,note,step,duration,channel,velocity
0,57.0,20.0,330.0,1.0,0.0
1,45.0,117.0,120.0,1.0,0.0
2,60.0,1.0,330.0,0.0,0.0
3,64.0,47.0,1020.0,0.0,0.0
4,48.0,110.0,120.0,1.0,0.0
5,52.0,110.0,120.0,1.0,0.0
6,62.0,15.0,360.0,0.0,0.0
7,44.0,125.0,120.0,1.0,0.0
8,59.0,4.0,330.0,1.0,0.0
9,47.0,106.0,120.0,1.0,0.0
10,52.0,115.0,120.0,1.0,0.0
11,43.0,120.0,120.0,1.0,0.0
12,58.0,9.0,360.0,1.0,0.0
13,61.0,4.0,480.0,0.0,0.0
14,46.0,68.0,120.0,1.0,0.0
15,52.0,105.0,120.0,1.0,0.0
16,42.0,119.0,120.0,1.0,0.0
17,69.0,4.0,240.0,0.0,0.0
18,57.0,11.0,240.0,1.0,0.0
19,45.0,106.0,120.0,1.0,0.0
20,62.0,3.0,240.0,0.0,0.0
21,50.0,2.0,120.0,1.0,0.0
22,71.0,1.0,120.0,0.0,0.0
23,56.0,115.0,120.0,1.0,0.0
24,57.0,7.0,240.0,1.0,0.0
25,41.0,66.0,120.0,1.0,0.0
26,72.0,32.0,180.0,0.0,0.0
27,63.0,10.0,450.0,0.0,0.0
28,45.0,3.0,120.0,1.0,0.0
29,74.0,23.0,30.0,0.0,0.0
30,72.0,52.0,30.0,0.0,0.0
31,59.0,8.0,60.0,1.0,0.0
32,51.0,11.0,90.0,1.0,0.0
33,71.0,19.0,60.0,0.0,0.0
34,60.0,107.0,60.0,1.0,0.0
35,69.0,23.0,20.0,0.0,0.0
36,60.0,106.0,120.0,1.0,0.0
37,76.0,43.0,540.0,0.0,0.0
38,69.0,8.0,120.0,0.0,0.0
39,52.0,0.0,480.0,1.0,0.0
40,40.0,9.0,480.0,1.0,0.0
41,68.0,108.0,120.0,0.0,0.0
42,64.0,8.0,120.0,0.0,0.0
43,59.0,0.0,120.0,1.0,0.0
44,63.0,9.0,120.0,0.0,0.0
45,69.0,1.0,120.0,0.0,0.0
46,54.0,7.0,90.0,1.0,0.0
47,57.0,113.0,120.0,1.0,0.0
48,72.0,0.0,120.0,0.0,0.0
49,68.0,0.0,120.0,0.0,0.0
50,71.0,3.0,120.0,0.0,0.0
51,64.0,8.0,120.0,0.0,0.0
52,59.0,51.0,120.0,1.0,0.0
53,56.0,3.0,120.0,1.0,0.0
54,72.0,5.0,15.0,0.0,0.0
55,74.0,13.0,15.0,0.0,0.0
56,76.0,45.0,15.0,0.0,0.0
57,74.0,58.0,60.0,0.0,0.0
58,72.0,243.0,60.0,0.0,0.0
59,72.0,29.0,420.0,0.0,0.0
60,64.0,116.0,120.0,1.0,0.0
61,67.0,5.0,120.0,0.0,0.0
62,65.0,71.0,120.0,1.0,0.0
63,69.0,11.0,120.0,0.0,0.0
64,62.0,7.0,240.0,1.0,0.0
65,65.0,6.0,240.0,0.0,0.0
66,74.0,12.0,15.0,0.0,0.0
67,72.0,112.0,15.0,0.0,0.0
68,71.0,107.0,120.0,0.0,0.0
69,64.0,98.0,120.0,0.0,0.0
70,69.0,15.0,210.0,0.0,0.0
71,60.0,6.0,120.0,1.0,0.0
72,59.0,120.0,240.0,1.0,0.0
73,62.0,4.0,240.0,0.0,0.0
74,71.0,14.0,15.0,0.0,0.0
75,69.0,104.0,15.0,0.0,0.0
76,67.0,9.0,120.0,0.0,0.0
77,65.0,12.0,240.0,0.0,0.0
78,60.0,106.0,120.0,0.0,0.0
79,57.0,3.0,120.0,1.0,0.0
80,59.0,4.0,120.0,0.0,0.0
81,56.0,122.0,120.0,1.0,0.0
82,57.0,2.0,120.0,1.0,0.0
83,60.0,336.0,120.0,0.0,0.0
84,64.0,2.0,120.0,0.0,0.0
85,69.0,35.0,420.0,0.0,0.0
86,53.0,2.0,360.0,1.0,0.0
87,57.0,6.0,120.0,0.0,0.0
88,60.0,114.0,120.0,0.0,0.0
89,59.0,78.0,120.0,0.0,0.0
90,62.0,5.0,120.0,0.0,0.0
91,60.0,60.0,1380.0,0.0,0.0
92,64.0,1.0,120.0,0.0,0.0
93,52.0,6.0,240.0,1.0,0.0
94,71.0,12.0,15.0,0.0,0.0
95,69.0,115.0,15.0,0.0,0.0
96,67.0,115.0,120.0,0.0,0.0
97,65.0,26.0,210.0,0.0,0.0
98,57.0,88.0,120.0,1.0,0.0
99,55.0,121.0,240.0,1.0,0.0
100,67.0,14.0,20.0,0.0,0.0
101,65.0,112.0,15.0,0.0,0.0
102,64.0,0.0,120.0,0.0,0.0
103,54.0,125.0,120.0,1.0,0.0
104,62.0,45.0,1260.0,0.0,0.0
105,55.0,118.0,120.0,1.0,0.0
106,56.0,116.0,120.0,1.0,0.0
107,54.0,94.0,120.0,1.0,0.0
108,55.0,22.0,90.0,1.0,0.0
109,54.0,11.0,20.0,1.0,0.0
110,55.0,105.0,15.0,1.0,0.0
111,57.0,67.0,120.0,1.0,0.0
112,52.0,121.0,120.0,1.0,0.0
113,59.0,6.0,120.0,0.0,0.0
114,53.0,120.0,480.0,1.0,0.0
115,44.0,115.0,120.0,1.0,0.0
116,57.0,118.0,120.0,0.0,0.0
117,45.0,2.0,120.0,1.0,0.0
118,47.0,1.0,120.0,1.0,0.0
119,56.0,67.0,120.0,0.0,0.0
120,55.0,2.0,240.0,0.0,0.0
121,48.0,7.0,360.0,1.0,0.0
122,52.0,118.0,120.0,1.0,0.0
123,60.0,76.0,330.0,0.0,0.0
124,54.0,2.0,120.0,0.0,0.0
125,51.0,104.0,120.0,1.0,0.0
126,43.0,4.0,300.0,1.0,0.0
127,50.0,34.0,300.0,1.0,0.0
128,53.0,11.0,360.0,0.0,0.0
129,59.0,60.0,60.0,0.0,0.0
130,69.0,67.0,60.0,0.0,0.0
131,67.0,6.0,60.0,0.0,0.0
132,59.0,62.0,60.0,0.0,0.0
133,52.0,59.0,60.0,0.0,0.0
134,48.0,22.0,120.0,1.0,0.0
135,60.0,95.0,150.0,0.0,0.0
136,55.0,225.0,120.0,0.0,0.0
137,52.0,6.0,120.0,1.0,0.0
138,53.0,10.0,240.0,0.0,0.0
139,50.0,113.0,240.0,1.0,0.0
140,70.0,14.0,570.0,0.0,0.0
141,52.0,119.0,120.0,0.0,0.0
142,49.0,5.0,120.0,1.0,0.0
143,61.0,3.0,120.0,0.0,0.0
144,52.0,115.0,120.0,1.0,0.0
145,41.0,3.0,330.0,1.0,0.0
146,53.0,94.0,120.0,1.0,0.0
147,62.0,6.0,120.0,0.0,0.0
148,61.0,9.0,120.0,1.0,0.0
149,64.0,105.0,120.0,0.0,0.0
150,69.0,11.0,120.0,0.0,0.0
151,65.0,2.0,90.0,0.0,0.0
152,62.0,65.0,120.0,1.0,0.0
153,58.0,29.0,60.0,1.0,0.0
154,65.0,0.0,60.0,0.0,0.0
155,69.0,6.0,60.0,0.0,0.0
156,43.0,0.0,60.0,1.0,0.0
157,67.0,72.0,30.0,0.0,0.0
158,64.0,1.0,30.0,0.0,0.0
159,57.0,3.0,60.0,1.0,0.0
160,67.0,11.0,60.0,0.0,0.0
161,64.0,3.0,60.0,0.0,0.0
162,45.0,19.0,60.0,1.0,0.0
163,62.0,88.0,30.0,0.0,0.0
164,65.0,1.0,30.0,0.0,0.0
165,55.0,26.0,60.0,1.0,0.0
166,65.0,17.0,60.0,0.0,0.0
167,62.0,1.0,60.0,0.0,0.0
168,45.0,0.0,60.0,1.0,0.0
169,64.0,80.0,30.0,0.0,0.0
170,61.0,4.0,30.0,0.0,0.0
171,53.0,52.0,60.0,1.0,0.0
172,50.0,53.0,120.0,1.0,0.0
173,62.0,65.0,180.0,0.0,0.0
174,57.0,227.0,120.0,0.0,0.0
175,53.0,14.0,120.0,1.0,0.0
176,55.0,4.0,240.0,0.0,0.0
177,52.0,112.0,240.0,1.0,0.0
178,72.0,6.0,570.0,0.0,0.0
179,51.0,121.0,120.0,1.0,0.0
180,54.0,0.0,120.0,0.0,0.0
181,63.0,3.0,120.0,0.0,0.0
182,54.0,117.0,120.0,1.0,0.0
183,64.0,13.0,120.0,0.0,0.0
184,55.0,81.0,120.0,1.0,0.0
185,43.0,6.0,360.0,1.0,0.0
186,63.0,13.0,120.0,1.0,0.0
187,66.0,18.0,90.0,0.0,0.0
188,64.0,2.0,20.0,0.0,0.0
189,66.0,86.0,20.0,0.0,0.0
190,64.0,60.0,120.0,1.0,0.0
191,67.0,7.0,90.0,0.0,0.0
192,71.0,12.0,90.0,0.0,0.0
193,71.0,10.0,60.0,0.0,0.0
194,45.0,1.0,60.0,1.0,0.0
195,67.0,2.0,60.0,0.0,0.0
196,60.0,16.0,60.0,1.0,0.0
197,66.0,1.0,20.0,0.0,0.0
198,69.0,99.0,30.0,0.0,0.0
199,69.0,0.0,60.0,0.0,0.0
200,59.0,0.0,60.0,1.0,0.0
201,47.0,10.0,60.0,1.0,0.0
202,66.0,2.0,60.0,0.0,0.0
203,64.0,2.0,15.0,0.0,0.0
204,67.0,96.0,20.0,0.0,0.0
205,47.0,4.0,90.0,1.0,0.0
206,67.0,18.0,60.0,0.0,0.0
207,64.0,6.0,60.0,0.0,0.0
208,57.0,3.0,90.0,1.0,0.0
209,63.0,151.0,30.0,0.0,0.0
210,66.0,4.0,30.0,0.0,0.0
211,56.0,127.0,240.0,1.0,0.0
212,64.0,80.0,390.0,0.0,0.0
213,40.0,106.0,120.0,1.0,0.0
214,59.0,3.0,120.0,0.0,0.0
215,59.0,39.0,120.0,1.0,0.0
216,62.0,5.0,120.0,0.0,0.0
217,57.0,25.0,450.0,1.0,0.0
218,61.0,12.0,240.0,0.0,0.0
219,69.0,59.0,60.0,0.0,0.0
220,68.0,48.0,60.0,0.0,0.0
221,67.0,60.0,60.0,0.0,0.0
222,60.0,3.0,120.0,0.0,0.0
223,66.0,58.0,60.0,0.0,0.0
224,65.0,99.0,60.0,0.0,0.0
225,59.0,118.0,240.0,0.0,0.0
226,52.0,4.0,360.0,1.0,0.0
227,64.0,107.0,120.0,0.0,0.0
228,56.0,5.0,240.0,1.0,0.0
229,44.0,2.0,120.0,1.0,0.0
230,50.0,124.0,120.0,1.0,0.0
231,49.0,31.0,210.0,1.0,0.0
232,45.0,21.0,450.0,1.0,0.0
233,57.0,55.0,60.0,1.0,0.0
234,56.0,31.0,60.0,1.0,0.0
235,55.0,60.0,60.0,1.0,0.0
236,54.0,54.0,60.0,1.0,0.0
237,48.0,1.0,120.0,1.0,0.0
238,53.0,101.0,60.0,1.0,0.0
239,52.0,110.0,240.0,1.0,0.0
240,40.0,21.0,390.0,1.0,0.0
241,47.0,118.0,120.0,1.0,0.0
242,44.0,5.0,240.0,1.0,0.0
243,59.0,4.0,120.0,1.0,0.0
244,56.0,2.0,120.0,1.0,0.0
245,62.0,38.0,120.0,0.0,0.0
246,61.0,60.0,60.0,0.0,0.0
247,57.0,2.0,120.0,1.0,0.0
248,45.0,0.0,60.0,1.0,0.0
249,60.0,58.0,60.0,0.0,0.0
250,59.0,2.0,60.0,0.0,0.0
251,44.0,62.0,60.0,1.0,0.0
252,64.0,53.0,120.0,0.0,0.0
253,43.0,1.0,60.0,1.0,0.0
254,58.0,3.0,60.0,0.0,0.0
255,57.0,2.0,120.0,0.0,0.0
256,42.0,48.0,60.0,1.0,0.0
257,63.0,6.0,60.0,0.0,0.0
258,69.0,4.0,60.0,0.0,0.0
259,41.0,47.0,60.0,1.0,0.0
260,68.0,4.0,60.0,0.0,0.0
261,64.0,1.0,30.0,0.0,0.0
262,59.0,62.0,60.0,0.0,0.0
263,40.0,7.0,300.0,1.0,0.0
264,67.0,4.0,60.0,0.0,0.0
265,58.0,52.0,60.0,0.0,0.0
266,49.0,6.0,60.0,1.0,0.0
267,50.0,38.0,60.0,1.0,0.0
268,57.0,0.0,60.0,0.0,0.0
269,62.0,2.0,60.0,0.0,0.0
270,66.0,4.0,60.0,0.0,0.0
271,65.0,16.0,30.0,0.0,0.0
272,56.0,42.0,60.0,0.0,0.0
273,47.0,5.0,60.0,1.0,0.0
274,60.0,6.0,30.0,0.0,0.0
275,64.0,3.0,30.0,0.0,0.0
276,57.0,4.0,60.0,0.0,0.0
277,48.0,47.0,60.0,1.0,0.0
278,74.0,7.0,60.0,0.0,0.0
279,71.0,1.0,60.0,0.0,0.0
280,65.0,3.0,60.0,1.0,0.0
281,44.0,47.0,60.0,1.0,0.0
282,45.0,8.0,60.0,1.0,0.0
283,72.0,6.0,60.0,0.0,0.0
284,69.0,4.0,60.0,0.0,0.0
285,64.0,37.0,60.0,1.0,0.0
286,62.0,1.0,60.0,1.0,0.0
287,68.0,5.0,60.0,0.0,0.0
288,66.0,11.0,30.0,0.0,0.0
289,47.0,13.0,60.0,1.0,0.0
290,60.0,15.0,60.0,1.0,0.0
291,50.0,15.0,15.0,1.0,0.0
292,64.0,13.0,60.0,0.0,0.0
293,69.0,5.0,30.0,0.0,0.0
294,48.0,10.0,15.0,1.0,0.0
295,50.0,2.0,15.0,1.0,0.0
296,48.0,0.0,15.0,1.0,0.0
297,50.0,15.0,15.0,1.0,0.0
298,52.0,0.0,60.0,1.0,0.0
299,64.0,8.0,60.0,0.0,0.0
300,60.0,1.0,60.0,0.0,0.0
301,48.0,15.0,15.0,1.0,0.0
302,47.0,6.0,15.0,1.0,0.0
303,48.0,49.0,15.0,1.0,0.0
304,50.0,0.0,60.0,1.0,0.0
305,53.0,2.0,60.0,1.0,0.0
306,59.0,5.0,60.0,0.0,0.0
307,62.0,55.0,60.0,0.0,0.0
308,57.0,2.0,60.0,0.0,0.0
309,51.0,61.0,60.0,1.0,0.0
310,54.0,2.0,60.0,1.0,0.0
311,60.0,6.0,60.0,0.0,0.0
312,56.0,1.0,60.0,0.0,0.0
313,52.0,9.0,120.0,1.0,0.0
314,40.0,0.0,60.0,1.0,0.0
315,59.0,46.0,60.0,0.0,0.0
316,44.0,63.0,60.0,1.0,0.0
317,47.0,65.0,60.0,1.0,0.0
318,52.0,52.0,60.0,1.0,0.0
319,60.0,1.0,120.0,1.0,0.0
320,63.0,2.0,120.0,0.0,0.0
321,69.0,59.0,120.0,0.0,0.0
322,48.0,57.0,60.0,1.0,0.0
323,45.0,2.0,60.0,1.0,0.0
324,68.0,56.0,60.0,0.0,0.0
325,64.0,3.0,60.0,0.0,0.0
326,40.0,3.0,60.0,1.0,0.0
327,59.0,3.0,60.0,1.0,0.0
328,44.0,54.0,60.0,1.0,0.0
329,47.0,69.0,60.0,1.0,0.0
330,52.0,49.0,60.0,1.0,0.0
331,72.0,4.0,120.0,0.0,0.0
332,69.0,1.0,120.0,0.0,0.0
333,48.0,60.0,60.0,1.0,0.0
334,63.0,1.0,120.0,1.0,0.0
335,45.0,58.0,60.0,1.0,0.0
336,64.0,55.0,60.0,1.0,0.0
337,40.0,3.0,60.0,1.0,0.0
338,71.0,4.0,60.0,0.0,0.0
339,68.0,0.0,60.0,0.0,0.0
340,44.0,53.0,60.0,1.0,0.0
341,47.0,67.0,60.0,1.0,0.0
342,52.0,54.0,60.0,1.0,0.0
343,72.0,1.0,120.0,0.0,0.0
344,63.0,2.0,120.0,1.0,0.0
345,54.0,1.0,120.0,1.0,0.0
346,57.0,4.0,120.0,1.0,0.0
347,48.0,53.0,60.0,1.0,0.0
348,69.0,1.0,120.0,0.0,0.0
349,66.0,0.0,120.0,0.0,0.0
350,75.0,3.0,120.0,0.0,0.0
351,60.0,1.0,120.0,1.0,0.0
352,45.0,55.0,60.0,1.0,0.0
353,71.0,0.0,60.0,0.0,0.0
354,68.0,1.0,60.0,0.0,0.0
355,76.0,1.0,60.0,0.0,0.0
356,59.0,1.0,60.0,1.0,0.0
357,56.0,0.0,60.0,1.0,0.0
358,40.0,0.0,60.0,1.0,0.0
359,64.0,426.0,60.0,1.0,0.0
360,69.0,5.0,120.0,0.0,0.0
361,64.0,63.0,120.0,0.0,0.0
362,57.0,1.0,120.0,1.0,0.0
363,45.0,1.0,120.0,1.0,0.0
364,61.0,0.0,120.0,1.0,0.0
365,45.0,0.0,20.0,1.0,0.0
366,57.0,1.0,20.0,1.0,0.0
367,64.0,5.0,15.0,0.0,0.0
368,69.0,20.0,20.0,0.0,0.0
369,61.0,2.0,20.0,1.0,0.0
370,61.0,1.0,20.0,1.0,0.0
371,57.0,2.0,15.0,1.0,0.0
372,45.0,2.0,20.0,1.0,0.0
373,64.0,4.0,15.0,0.0,0.0
374,69.0,136.0,20.0,0.0,0.0
375,71.0,54.0,150.0,0.0,0.0
376,59.0,6.0,120.0,1.0,0.0
377,44.0,3.0,120.0,1.0,0.0
378,56.0,1.0,120.0,1.0,0.0
379,64.0,5.0,150.0,0.0,0.0
380,64.0,26.0,20.0,0.0,0.0
381,71.0,1.0,20.0,0.0,0.0
382,56.0,0.0,20.0,1.0,0.0
383,59.0,2.0,15.0,1.0,0.0
384,44.0,0.0,20.0,1.0,0.0
385,71.0,141.0,20.0,0.0,0.0
386,64.0,2.0,20.0,0.0,0.0
387,56.0,1.0,15.0,1.0,0.0
388,44.0,1.0,20.0,1.0,0.0
389,59.0,2.0,15.0,1.0,0.0
390,54.0,1.0,120.0,1.0,0.0
391,42.0,1.0,120.0,1.0,0.0
392,61.0,8.0,150.0,1.0,0.0
393,69.0,46.0,150.0,0.0,0.0
394,73.0,1.0,150.0,0.0,0.0
395,57.0,4.0,120.0,1.0,0.0
396,42.0,25.0,20.0,1.0,0.0
397,69.0,2.0,15.0,0.0,0.0
398,73.0,0.0,15.0,0.0,0.0
399,54.0,1.0,15.0,1.0,0.0
400,61.0,1.0,15.0,1.0,0.0
401,57.0,1.0,15.0,1.0,0.0
402,42.0,5.0,15.0,1.0,0.0
403,57.0,0.0,15.0,1.0,0.0
404,73.0,140.0,20.0,0.0,0.0
405,54.0,1.0,15.0,1.0,0.0
406,69.0,1.0,15.0,0.0,0.0
407,61.0,1.0,15.0,1.0,0.0
408,40.0,1.0,120.0,1.0,0.0
409,64.0,1.0,150.0,1.0,0.0
410,59.0,1.0,150.0,1.0,0.0
411,71.0,3.0,120.0,0.0,0.0
412,68.0,1.0,120.0,0.0,0.0
413,76.0,5.0,150.0,0.0,0.0
414,56.0,0.0,150.0,1.0,0.0
415,52.0,55.0,150.0,1.0,0.0
416,50.0,0.0,20.0,1.0,0.0
417,64.0,0.0,20.0,0.0,0.0
418,59.0,26.0,20.0,0.0,0.0
419,56.0,1.0,20.0,1.0,0.0
420,64.0,68.0,20.0,0.0,0.0
421,50.0,2.0,15.0,1.0,0.0
422,56.0,0.0,15.0,1.0,0.0
423,59.0,2.0,15.0,0.0,0.0
424,49.0,22.0,120.0,1.0,0.0
425,69.0,60.0,60.0,0.0,0.0
426,61.0,20.0,150.0,0.0,0.0
427,64.0,1.0,150.0,0.0,0.0
428,57.0,5.0,120.0,1.0,0.0
429,71.0,9.0,60.0,0.0,0.0
430,73.0,50.0,60.0,0.0,0.0
431,57.0,8.0,30.0,0.0,0.0
432,64.0,103.0,60.0,0.0,0.0
433,49.0,12.0,60.0,1.0,0.0
434,57.0,9.0,120.0,0.0,0.0
435,66.0,3.0,120.0,0.0,0.0
436,50.0,102.0,120.0,1.0,0.0
437,69.0,7.0,240.0,0.0,0.0
438,64.0,10.0,90.0,0.0,0.0
439,57.0,24.0,120.0,1.0,0.0
440,49.0,1.0,120.0,1.0,0.0
441,47.0,0.0,120.0,1.0,0.0
442,59.0,5.0,240.0,1.0,0.0
443,64.0,11.0,15.0,0.0,0.0
444,62.0,19.0,15.0,0.0,0.0
445,64.0,13.0,15.0,0.0,0.0
446,62.0,17.0,15.0,0.0,0.0
447,64.0,14.0,15.0,0.0,0.0
448,62.0,12.0,15.0,0.0,0.0
449,61.0,9.0,15.0,0.0,0.0
450,62.0,57.0,15.0,0.0,0.0
451,64.0,55.0,60.0,0.0,0.0
452,40.0,3.0,120.0,1.0,0.0
453,68.0,122.0,120.0,0.0,0.0
454,62.0,1.0,60.0,0.0,0.0
455,57.0,1.0,120.0,1.0,0.0
456,45.0,0.0,120.0,1.0,0.0
457,61.0,1.0,120.0,0.0,0.0
458,69.0,55.0,120.0,0.0,0.0
459,64.0,26.0,30.0,0.0,0.0
460,61.0,3.0,30.0,0.0,0.0
461,66.0,31.0,30.0,0.0,0.0
462,62.0,1.0,30.0,0.0,0.0
463,68.0,26.0,30.0,0.0,0.0
464,64.0,0.0,30.0,0.0,0.0
465,66.0,27.0,30.0,0.0,0.0
466,69.0,4.0,30.0,0.0,0.0
467,68.0,3.0,30.0,0.0,0.0
468,71.0,27.0,30.0,0.0,0.0
469,73.0,31.0,30.0,0.0,0.0
470,69.0,2.0,30.0,0.0,0.0
471,74.0,53.0,30.0,0.0,0.0
472,71.0,0.0,30.0,0.0,0.0
473,76.0,17.0,180.0,0.0,0.0
474,73.0,1.0,180.0,0.0,0.0
475,57.0,6.0,20.0,1.0,0.0
476,61.0,25.0,30.0,1.0,0.0
477,59.0,1.0,20.0,1.0,0.0
478,62.0,32.0,20.0,1.0,0.0
479,64.0,27.0,30.0,1.0,0.0
480,61.0,1.0,30.0,1.0,0.0
481,66.0,0.0,20.0,1.0,0.0
482,62.0,31.0,20.0,1.0,0.0
483,64.0,2.0,30.0,1.0,0.0
484,61.0,0.0,30.0,1.0,0.0
485,62.0,2.0,15.0,1.0,0.0
486,71.0,57.0,60.0,0.0,0.0
487,74.0,0.0,60.0,0.0,0.0
488,66.0,31.0,15.0,1.0,0.0
489,64.0,0.0,20.0,1.0,0.0
490,68.0,15.0,20.0,1.0,0.0
491,69.0,5.0,240.0,0.0,0.0
492,73.0,20.0,90.0,0.0,0.0
493,66.0,3.0,240.0,1.0,0.0
494,54.0,25.0,30.0,1.0,0.0
495,52.0,14.0,30.0,1.0,0.0
496,54.0,16.0,30.0,1.0,0.0
497,50.0,16.0,30.0,1.0,0.0
498,73.0,13.0,15.0,0.0,0.0
499,71.0,3.0,15.0,0.0,0.0
500,73.0,11.0,15.0,0.0,0.0
501,47.0,17.0,30.0,1.0,0.0
502,71.0,1.0,15.0,0.0,0.0
503,73.0,14.0,15.0,0.0,0.0
504,49.0,12.0,30.0,1.0,0.0
505,71.0,3.0,15.0,0.0,0.0
506,50.0,0.0,30.0,1.0,0.0
507,73.0,6.0,15.0,0.0,0.0
508,71.0,16.0,15.0,0.0,0.0
509,73.0,14.0,15.0,0.0,0.0
510,52.0,17.0,30.0,1.0,0.0
511,64.0,30.0,60.0,1.0,0.0
512,68.0,52.0,120.0,0.0,0.0
513,71.0,0.0,15.0,0.0,0.0
514,50.0,0.0,30.0,1.0,0.0
515,73.0,12.0,15.0,0.0,0.0
516,71.0,1.0,15.0,0.0,0.0
517,52.0,1.0,30.0,1.0,0.0
518,62.0,4.0,60.0,1.0,0.0
519,69.0,27.0,30.0,0.0,0.0
520,40.0,0.0,30.0,1.0,0.0
521,71.0,3.0,30.0,0.0,0.0
522,61.0,2.0,120.0,1.0,0.0
523,45.0,4.0,120.0,1.0,0.0
524,69.0,32.0,60.0,0.0,0.0
525,73.0,25.0,30.0,0.0,0.0
526,71.0,31.0,30.0,0.0,0.0
527,69.0,32.0,30.0,0.0,0.0
528,68.0,28.0,30.0,0.0,0.0
529,66.0,26.0,30.0,0.0,0.0
530,57.0,3.0,120.0,0.0,0.0
531,45.0,2.0,60.0,1.0,0.0
532,49.0,3.0,60.0,1.0,0.0
533,64.0,57.0,30.0,0.0,0.0
534,47.0,8.0,120.0,1.0,0.0
535,50.0,2.0,120.0,1.0,0.0
536,62.0,21.0,60.0,0.0,0.0
537,56.0,18.0,60.0,0.0,0.0
538,74.0,39.0,20.0,0.0,0.0
539,73.0,1.0,30.0,0.0,0.0
540,71.0,30.0,30.0,0.0,0.0
541,69.0,25.0,30.0,0.0,0.0
542,68.0,34.0,30.0,0.0,0.0
543,59.0,2.0,120.0,0.0,0.0
544,47.0,1.0,60.0,1.0,0.0
545,50.0,0.0,60.0,1.0,0.0
546,66.0,56.0,30.0,0.0,0.0
547,64.0,32.0,60.0,0.0,0.0
548,52.0,20.0,120.0,1.0,0.0
549,49.0,0.0,120.0,1.0,0.0
550,76.0,29.0,30.0,0.0,0.0
551,57.0,1.0,60.0,0.0,0.0
552,74.0,10.0,30.0,0.0,0.0
553,73.0,27.0,30.0,0.0,0.0
554,71.0,31.0,30.0,0.0,0.0
555,69.0,27.0,30.0,0.0,0.0
556,61.0,1.0,120.0,0.0,0.0
557,49.0,1.0,60.0,1.0,0.0
558,52.0,3.0,60.0,1.0,0.0
559,68.0,58.0,30.0,0.0,0.0
560,54.0,18.0,120.0,1.0,0.0
561,50.0,4.0,120.0,1.0,0.0
562,66.0,34.0,60.0,0.0,0.0
563,78.0,29.0,30.0,0.0,0.0
564,59.0,8.0,60.0,0.0,0.0
565,76.0,1.0,30.0,0.0,0.0
566,74.0,27.0,30.0,0.0,0.0
567,69.0,26.0,30.0,0.0,0.0
568,73.0,4.0,30.0,0.0,0.0
569,51.0,2.0,60.0,1.0,0.0
570,59.0,10.0,60.0,1.0,0.0
571,71.0,1.0,30.0,0.0,0.0
572,68.0,17.0,30.0,0.0,0.0
573,66.0,3.0,30.0,0.0,0.0
574,69.0,29.0,30.0,0.0,0.0
575,59.0,11.0,120.0,1.0,0.0
576,64.0,2.0,150.0,0.0,0.0
577,52.0,55.0,30.0,1.0,0.0
578,68.0,13.0,120.0,0.0,0.0
579,52.0,32.0,30.0,1.0,0.0
580,51.0,3.0,30.0,1.0,0.0
581,49.0,33.0,30.0,1.0,0.0
582,47.0,29.0,30.0,1.0,0.0
583,45.0,25.0,30.0,1.0,0.0
584,59.0,3.0,60.0,1.0,0.0
585,68.0,54.0,60.0,0.0,0.0
586,64.0,26.0,120.0,0.0,0.0
587,44.0,6.0,30.0,1.0,0.0
588,69.0,1.0,60.0,0.0,0.0
589,57.0,1.0,120.0,1.0,0.0
590,54.0,29.0,30.0,1.0,0.0
591,63.0,15.0,60.0,0.0,0.0
592,66.0,2.0,90.0,0.0,0.0
593,52.0,9.0,30.0,1.0,0.0
594,51.0,33.0,20.0,1.0,0.0
595,49.0,25.0,30.0,1.0,0.0
596,47.0,26.0,30.0,1.0,0.0
597,63.0,5.0,20.0,1.0,0.0
598,66.0,3.0,120.0,0.0,0.0
599,69.0,49.0,60.0,0.0,0.0
600,61.0,10.0,30.0,1.0,0.0
601,45.0,2.0,30.0,1.0,0.0
602,44.0,9.0,60.0,1.0,0.0
603,59.0,22.0,120.0,1.0,0.0
604,71.0,21.0,60.0,0.0,0.0
605,56.0,30.0,30.0,1.0,0.0
606,64.0,5.0,90.0,0.0,0.0
607,68.0,27.0,90.0,0.0,0.0
608,54.0,2.0,30.0,1.0,0.0
609,52.0,4.0,30.0,1.0,0.0
610,51.0,29.0,30.0,1.0,0.0
611,49.0,29.0,30.0,1.0,0.0
612,64.0,1.0,30.0,1.0,0.0
613,71.0,4.0,60.0,0.0,0.0
614,68.0,36.0,120.0,0.0,0.0
615,47.0,4.0,30.0,1.0,0.0
616,63.0,55.0,30.0,1.0,0.0
617,73.0,5.0,180.0,0.0,0.0
618,45.0,2.0,60.0,1.0,0.0
619,61.0,5.0,120.0,1.0,0.0
620,66.0,25.0,60.0,0.0,0.0
621,57.0,21.0,30.0,1.0,0.0
622,56.0,9.0,30.0,1.0,0.0
623,54.0,24.0,30.0,1.0,0.0
624,52.0,25.0,30.0,1.0,0.0
625,64.0,7.0,60.0,0.0,0.0
626,58.0,3.0,60.0,0.0,0.0
627,54.0,3.0,20.0,1.0,0.0
628,51.0,15.0,30.0,1.0,0.0
629,49.0,40.0,30.0,1.0,0.0
630,54.0,7.0,15.0,1.0,0.0
631,59.0,18.0,30.0,0.0,0.0
632,63.0,3.0,60.0,0.0,0.0
633,47.0,24.0,60.0,1.0,0.0
634,54.0,1.0,60.0,1.0,0.0
635,78.0,2.0,30.0,0.0,0.0
636,75.0,30.0,30.0,0.0,0.0
637,76.0,7.0,30.0,0.0,0.0
638,73.0,23.0,30.0,0.0,0.0
639,75.0,1.0,30.0,0.0,0.0
640,71.0,26.0,30.0,0.0,0.0
641,73.0,2.0,30.0,0.0,0.0
642,69.0,27.0,30.0,0.0,0.0
643,71.0,25.0,30.0,0.0,0.0
644,68.0,4.0,30.0,0.0,0.0
645,66.0,1.0,90.0,0.0,0.0
646,69.0,22.0,30.0,0.0,0.0
647,69.0,11.0,15.0,0.0,0.0
648,52.0,18.0,30.0,1.0,0.0
649,68.0,0.0,15.0,0.0,0.0
650,51.0,3.0,30.0,1.0,0.0
651,69.0,11.0,15.0,0.0,0.0
652,68.0,16.0,15.0,0.0,0.0
653,59.0,3.0,60.0,0.0,0.0
654,69.0,13.0,15.0,0.0,0.0
655,47.0,1.0,60.0,1.0,0.0
656,52.0,15.0,30.0,1.0,0.0
657,68.0,2.0,15.0,0.0,0.0
658,69.0,8.0,15.0,0.0,0.0
659,54.0,3.0,30.0,1.0,0.0
660,68.0,14.0,15.0,0.0,0.0
661,56.0,3.0,30.0,1.0,0.0
662,44.0,2.0,60.0,1.0,0.0
663,69.0,12.0,15.0,0.0,0.0
664,64.0,36.0,150.0,0.0,0.0
665,68.0,16.0,15.0,0.0,0.0
666,69.0,9.0,15.0,0.0,0.0
667,54.0,1.0,30.0,1.0,0.0
668,68.0,29.0,15.0,0.0,0.0
669,40.0,2.0,60.0,1.0,0.0
670,56.0,26.0,30.0,1.0,0.0
671,66.0,3.0,30.0,0.0,0.0
672,58.0,0.0,30.0,1.0,0.0
673,68.0,18.0,30.0,0.0,0.0
674,59.0,3.0,120.0,1.0,0.0
675,66.0,10.0,60.0,0.0,0.0
676,47.0,4.0,120.0,1.0,0.0
677,63.0,24.0,30.0,0.0,0.0
678,78.0,25.0,30.0,0.0,0.0
679,75.0,1.0,30.0,0.0,0.0
680,76.0,5.0,30.0,0.0,0.0
681,73.0,24.0,30.0,0.0,0.0
682,71.0,27.0,30.0,0.0,0.0
683,75.0,1.0,30.0,0.0,0.0
684,69.0,1.0,30.0,0.0,0.0
685,73.0,30.0,30.0,0.0,0.0
686,47.0,0.0,30.0,1.0,0.0
687,49.0,0.0,30.0,1.0,0.0
688,68.0,3.0,30.0,0.0,0.0
689,71.0,19.0,30.0,0.0,0.0
690,51.0,21.0,30.0,1.0,0.0
691,69.0,8.0,20.0,0.0,0.0
692,66.0,0.0,90.0,0.0,0.0
693,52.0,3.0,30.0,1.0,0.0
694,69.0,8.0,20.0,0.0,0.0
695,68.0,15.0,15.0,0.0,0.0
696,69.0,12.0,15.0,0.0,0.0
697,51.0,2.0,30.0,1.0,0.0
698,68.0,17.0,15.0,0.0,0.0
699,47.0,1.0,60.0,1.0,0.0
700,69.0,12.0,15.0,0.0,0.0
701,52.0,12.0,30.0,1.0,0.0
702,59.0,2.0,60.0,0.0,0.0
703,68.0,4.0,15.0,0.0,0.0
704,54.0,0.0,30.0,1.0,0.0
705,69.0,12.0,15.0,0.0,0.0
706,68.0,15.0,15.0,0.0,0.0
707,69.0,13.0,15.0,0.0,0.0
708,56.0,18.0,30.0,1.0,0.0
709,44.0,29.0,60.0,1.0,0.0
710,64.0,3.0,120.0,0.0,0.0
711,68.0,1.0,15.0,0.0,0.0
712,54.0,2.0,30.0,1.0,0.0
713,69.0,8.0,15.0,0.0,0.0
714,68.0,3.0,15.0,0.0,0.0
715,56.0,1.0,30.0,1.0,0.0
716,40.0,1.0,60.0,1.0,0.0
717,66.0,24.0,30.0,0.0,0.0
718,58.0,2.0,30.0,1.0,0.0
719,68.0,29.0,30.0,0.0,0.0
720,63.0,28.0,120.0,0.0,0.0
721,47.0,27.0,30.0,1.0,0.0
722,59.0,0.0,120.0,1.0,0.0
723,66.0,5.0,120.0,0.0,0.0
724,46.0,32.0,30.0,1.0,0.0
725,47.0,24.0,30.0,1.0,0.0
726,49.0,6.0,30.0,1.0,0.0
727,47.0,28.0,30.0,1.0,0.0
728,44.0,28.0,30.0,1.0,0.0
729,45.0,33.0,30.0,1.0,0.0
730,42.0,27.0,30.0,1.0,0.0
731,52.0,2.0,30.0,1.0,0.0
732,40.0,21.0,120.0,1.0,0.0
733,56.0,27.0,30.0,0.0,0.0
734,54.0,3.0,30.0,1.0,0.0
735,57.0,28.0,30.0,0.0,0.0
736,52.0,2.0,30.0,1.0,0.0
737,56.0,31.0,30.0,0.0,0.0
738,54.0,1.0,30.0,1.0,0.0
739,57.0,7.0,30.0,0.0,0.0
740,59.0,33.0,30.0,0.0,0.0
741,56.0,0.0,30.0,1.0,0.0
742,57.0,13.0,30.0,0.0,0.0
743,54.0,1.0,30.0,1.0,0.0
744,59.0,28.0,30.0,0.0,0.0
745,63.0,0.0,60.0,0.0,0.0
746,47.0,8.0,15.0,1.0,0.0
747,56.0,4.0,20.0,1.0,0.0
748,54.0,1.0,30.0,1.0,0.0
749,57.0,31.0,30.0,0.0,0.0
750,47.0,1.0,30.0,1.0,0.0
751,64.0,1.0,60.0,0.0,0.0
752,40.0,0.0,120.0,1.0,0.0
753,52.0,27.0,30.0,1.0,0.0
754,56.0,2.0,30.0,0.0,0.0
755,57.0,4.0,30.0,0.0,0.0
756,54.0,28.0,30.0,1.0,0.0
757,52.0,0.0,30.0,1.0,0.0
758,56.0,28.0,30.0,0.0,0.0
759,57.0,3.0,30.0,0.0,0.0
760,54.0,1.0,30.0,1.0,0.0
761,56.0,1.0,30.0,1.0,0.0
762,59.0,25.0,15.0,0.0,0.0
763,57.0,17.0,30.0,0.0,0.0
764,54.0,3.0,30.0,1.0,0.0
765,59.0,18.0,30.0,0.0,0.0
766,63.0,3.0,60.0,0.0,0.0
767,47.0,8.0,15.0,1.0,0.0
768,56.0,8.0,30.0,1.0,0.0
769,47.0,4.0,20.0,1.0,0.0
770,54.0,3.0,30.0,1.0,0.0
771,57.0,52.0,30.0,0.0,0.0
772,64.0,2.0,60.0,0.0,0.0
773,52.0,1.0,120.0,1.0,0.0
774,40.0,27.0,60.0,1.0,0.0
775,56.0,71.0,120.0,0.0,0.0
776,68.0,24.0,20.0,0.0,0.0
777,71.0,12.0,210.0,0.0,0.0
778,44.0,27.0,60.0,1.0,0.0
779,68.0,1.0,30.0,0.0,0.0
780,64.0,5.0,30.0,1.0,0.0
781,63.0,0.0,30.0,1.0,0.0
782,66.0,28.0,30.0,0.0,0.0
783,61.0,30.0,30.0,1.0,0.0
784,64.0,0.0,30.0,0.0,0.0
785,59.0,30.0,30.0,1.0,0.0
786,63.0,0.0,30.0,0.0,0.0
787,47.0,2.0,120.0,1.0,0.0
788,64.0,28.0,30.0,0.0,0.0
789,61.0,2.0,30.0,1.0,0.0
790,63.0,4.0,30.0,0.0,0.0
791,59.0,11.0,30.0,1.0,0.0
792,57.0,1.0,30.0,1.0,0.0
793,61.0,16.0,30.0,0.0,0.0
794,56.0,11.0,30.0,1.0,0.0
795,64.0,11.0,15.0,0.0,0.0
796,59.0,4.0,30.0,0.0,0.0
797,63.0,2.0,15.0,0.0,0.0
798,57.0,2.0,30.0,1.0,0.0
799,61.0,16.0,30.0,0.0,0.0
800,64.0,16.0,15.0,0.0,0.0
801,63.0,1.0,15.0,0.0,0.0
802,64.0,10.0,20.0,0.0,0.0
803,59.0,16.0,30.0,0.0,0.0
804,56.0,2.0,30.0,1.0,0.0
805,63.0,0.0,15.0,0.0,0.0
806,61.0,9.0,15.0,0.0,0.0
807,57.0,2.0,30.0,0.0,0.0
808,54.0,2.0,30.0,1.0,0.0
809,63.0,46.0,15.0,0.0,0.0
810,64.0,7.0,120.0,0.0,0.0
811,52.0,28.0,60.0,1.0,0.0
812,56.0,14.0,60.0,0.0,0.0
813,68.0,22.0,30.0,0.0,0.0
814,64.0,2.0,30.0,1.0,0.0
815,66.0,30.0,30.0,1.0,0.0
816,69.0,1.0,30.0,0.0,0.0
817,71.0,1.0,30.0,0.0,0.0
818,68.0,26.0,30.0,1.0,0.0
819,69.0,17.0,30.0,0.0,0.0
820,66.0,2.0,30.0,1.0,0.0
821,59.0,9.0,15.0,1.0,0.0
822,71.0,23.0,30.0,0.0,0.0
823,68.0,4.0,20.0,1.0,0.0
824,47.0,0.0,15.0,1.0,0.0
825,75.0,1.0,60.0,0.0,0.0
826,47.0,3.0,20.0,1.0,0.0
827,59.0,3.0,20.0,1.0,0.0
828,66.0,4.0,30.0,1.0,0.0
829,69.0,29.0,30.0,0.0,0.0
830,64.0,20.0,30.0,1.0,0.0
831,52.0,4.0,60.0,1.0,0.0
832,76.0,3.0,60.0,0.0,0.0
833,68.0,0.0,30.0,0.0,0.0
834,66.0,2.0,30.0,1.0,0.0
835,69.0,28.0,30.0,0.0,0.0
836,64.0,21.0,30.0,1.0,0.0
837,71.0,10.0,60.0,0.0,0.0
838,68.0,1.0,30.0,0.0,0.0
839,66.0,27.0,30.0,1.0,0.0
840,69.0,1.0,30.0,0.0,0.0
841,68.0,28.0,30.0,1.0,0.0
842,71.0,1.0,30.0,0.0,0.0
843,66.0,3.0,30.0,1.0,0.0
844,69.0,13.0,30.0,0.0,0.0
845,59.0,8.0,15.0,1.0,0.0
846,47.0,1.0,15.0,1.0,0.0
847,71.0,21.0,30.0,0.0,0.0
848,75.0,7.0,60.0,0.0,0.0
849,68.0,3.0,20.0,1.0,0.0
850,69.0,47.0,30.0,0.0,0.0
851,66.0,2.0,30.0,1.0,0.0
852,47.0,0.0,30.0,1.0,0.0
853,59.0,10.0,15.0,1.0,0.0
854,52.0,3.0,60.0,1.0,0.0
855,76.0,20.0,60.0,0.0,0.0
856,64.0,1.0,60.0,1.0,0.0
857,68.0,48.0,15.0,0.0,0.0
858,44.0,21.0,60.0,1.0,0.0
859,71.0,11.0,210.0,0.0,0.0
860,64.0,3.0,30.0,1.0,0.0
861,68.0,10.0,30.0,0.0,0.0
862,66.0,29.0,30.0,0.0,0.0
863,63.0,1.0,30.0,1.0,0.0
864,61.0,1.0,30.0,1.0,0.0
865,64.0,28.0,30.0,0.0,0.0
866,59.0,29.0,30.0,1.0,0.0
867,47.0,4.0,120.0,1.0,0.0
868,63.0,0.0,30.0,0.0,0.0
869,64.0,27.0,30.0,0.0,0.0
870,61.0,4.0,30.0,1.0,0.0
871,63.0,1.0,30.0,0.0,0.0
872,59.0,9.0,30.0,1.0,0.0
873,61.0,15.0,30.0,0.0,0.0
874,57.0,5.0,20.0,1.0,0.0
875,59.0,1.0,30.0,0.0,0.0
876,64.0,15.0,15.0,0.0,0.0
877,56.0,16.0,30.0,1.0,0.0
878,63.0,0.0,15.0,0.0,0.0
879,57.0,15.0,30.0,1.0,0.0
880,61.0,1.0,30.0,0.0,0.0
881,64.0,15.0,15.0,0.0,0.0
882,63.0,0.0,15.0,0.0,0.0
883,59.0,1.0,30.0,0.0,0.0
884,64.0,12.0,15.0,0.0,0.0
885,56.0,15.0,30.0,1.0,0.0
886,63.0,0.0,15.0,0.0,0.0
887,54.0,2.0,30.0,1.0,0.0
888,61.0,10.0,15.0,0.0,0.0
889,57.0,31.0,30.0,0.0,0.0
890,63.0,1.0,15.0,0.0,0.0
891,64.0,9.0,240.0,0.0,0.0
892,52.0,6.0,810.0,1.0,0.0
893,40.0,0.0,30.0,1.0,0.0
894,56.0,27.0,30.0,0.0,0.0
895,42.0,1.0,30.0,1.0,0.0
896,57.0,34.0,30.0,0.0,0.0
897,40.0,27.0,30.0,1.0,0.0
898,56.0,1.0,30.0,0.0,0.0
899,42.0,3.0,30.0,1.0,0.0
900,57.0,24.0,30.0,0.0,0.0
901,59.0,29.0,30.0,0.0,0.0
902,44.0,4.0,30.0,1.0,0.0
903,57.0,28.0,30.0,0.0,0.0
904,42.0,2.0,30.0,1.0,0.0
905,59.0,1.0,30.0,0.0,0.0
906,44.0,20.0,30.0,1.0,0.0
907,56.0,28.0,30.0,0.0,0.0
908,40.0,2.0,30.0,1.0,0.0
909,63.0,21.0,210.0,0.0,0.0
910,42.0,30.0,30.0,1.0,0.0
911,57.0,0.0,30.0,0.0,0.0
912,59.0,0.0,30.0,0.0,0.0
913,44.0,30.0,30.0,1.0,0.0
914,42.0,29.0,30.0,1.0,0.0
915,57.0,1.0,30.0,0.0,0.0
916,59.0,25.0,30.0,0.0,0.0
917,44.0,5.0,30.0,1.0,0.0
918,60.0,0.0,30.0,0.0,0.0
919,45.0,31.0,30.0,1.0,0.0
920,44.0,29.0,30.0,1.0,0.0
921,59.0,0.0,30.0,0.0,0.0
922,60.0,0.0,30.0,0.0,0.0
923,45.0,10.0,30.0,1.0,0.0
924,57.0,15.0,30.0,0.0,0.0
925,42.0,1.0,30.0,1.0,0.0
926,44.0,17.0,30.0,1.0,0.0
927,59.0,1.0,30.0,0.0,0.0
928,64.0,12.0,15.0,0.0,0.0
929,62.0,1.0,15.0,0.0,0.0
930,57.0,17.0,30.0,0.0,0.0
931,64.0,11.0,15.0,0.0,0.0
932,45.0,2.0,30.0,1.0,0.0
933,62.0,0.0,15.0,0.0,0.0
934,44.0,1.0,30.0,1.0,0.0
935,64.0,10.0,15.0,0.0,0.0
936,59.0,15.0,30.0,0.0,0.0
937,62.0,2.0,15.0,0.0,0.0
938,45.0,0.0,30.0,1.0,0.0
939,64.0,13.0,15.0,0.0,0.0
940,57.0,1.0,30.0,0.0,0.0
941,62.0,16.0,15.0,0.0,0.0
942,47.0,1.0,30.0,1.0,0.0
943,56.0,3.0,30.0,0.0,0.0
944,64.0,13.0,15.0,0.0,0.0
945,62.0,11.0,15.0,0.0,0.0
946,64.0,16.0,15.0,0.0,0.0
947,57.0,1.0,30.0,0.0,0.0
948,45.0,27.0,30.0,1.0,0.0
949,62.0,0.0,15.0,0.0,0.0
950,47.0,26.0,30.0,1.0,0.0
951,61.0,2.0,30.0,0.0,0.0
952,56.0,2.0,30.0,0.0,0.0
953,59.0,27.0,30.0,0.0,0.0
954,44.0,1.0,30.0,1.0,0.0
955,62.0,3.0,30.0,0.0,0.0
956,61.0,2.0,30.0,0.0,0.0
957,57.0,29.0,30.0,0.0,0.0
958,45.0,0.0,120.0,1.0,0.0
959,59.0,24.0,30.0,0.0,0.0
960,62.0,0.0,30.0,0.0,0.0
961,61.0,30.0,30.0,0.0,0.0
962,57.0,0.0,30.0,0.0,0.0
963,62.0,1.0,30.0,0.0,0.0
964,59.0,28.0,30.0,0.0,0.0
965,64.0,31.0,30.0,0.0,0.0
966,61.0,0.0,30.0,0.0,0.0
967,62.0,28.0,30.0,0.0,0.0
968,59.0,0.0,30.0,0.0,0.0
969,64.0,3.0,30.0,0.0,0.0
970,61.0,31.0,30.0,0.0,0.0
971,61.0,3.0,30.0,0.0,0.0
972,57.0,25.0,30.0,0.0,0.0
973,71.0,3.0,900.0,0.0,0.0
974,59.0,1.0,30.0,0.0,0.0
975,51.0,30.0,30.0,1.0,0.0
976,47.0,17.0,900.0,1.0,0.0
977,52.0,28.0,30.0,1.0,0.0
978,61.0,2.0,30.0,0.0,0.0
979,59.0,0.0,30.0,0.0,0.0
980,51.0,28.0,30.0,1.0,0.0
981,61.0,29.0,30.0,0.0,0.0
982,52.0,1.0,30.0,1.0,0.0
983,54.0,31.0,30.0,1.0,0.0
984,63.0,1.0,30.0,0.0,0.0
985,52.0,3.0,30.0,1.0,0.0
986,61.0,27.0,30.0,0.0,0.0
987,54.0,28.0,30.0,1.0,0.0
988,63.0,1.0,30.0,0.0,0.0
989,51.0,3.0,30.0,1.0,0.0
990,59.0,27.0,30.0,0.0,0.0
991,52.0,29.0,30.0,1.0,0.0
992,61.0,1.0,30.0,0.0,0.0
993,70.0,12.0,240.0,0.0,0.0
994,63.0,30.0,30.0,0.0,0.0
995,54.0,0.0,30.0,1.0,0.0
996,52.0,0.0,30.0,1.0,0.0
997,61.0,30.0,30.0,0.0,0.0
998,63.0,28.0,30.0,0.0,0.0
999,54.0,2.0,30.0,1.0,0.0
1000,55.0,0.0,30.0,1.0,0.0
1001,64.0,30.0,30.0,0.0,0.0
1002,54.0,1.0,30.0,1.0,0.0
1003,63.0,30.0,30.0,0.0,0.0
1004,64.0,3.0,30.0,0.0,0.0
1005,55.0,15.0,30.0,1.0,0.0
1006,61.0,28.0,30.0,0.0,0.0
1007,52.0,1.0,30.0,1.0,0.0
1008,54.0,0.0,30.0,1.0,0.0
1009,69.0,11.0,180.0,0.0,0.0
1010,63.0,30.0,30.0,0.0,0.0
1011,56.0,2.0,30.0,1.0,0.0
1012,64.0,28.0,30.0,0.0,0.0
1013,54.0,27.0,30.0,1.0,0.0
1014,63.0,3.0,30.0,0.0,0.0
1015,56.0,2.0,30.0,1.0,0.0
1016,64.0,28.0,30.0,0.0,0.0
1017,57.0,19.0,30.0,1.0,0.0
1018,66.0,0.0,30.0,0.0,0.0
1019,64.0,28.0,30.0,0.0,0.0
1020,56.0,2.0,30.0,1.0,0.0
1021,68.0,3.0,30.0,0.0,0.0
1022,57.0,1.0,30.0,1.0,0.0
1023,66.0,27.0,30.0,0.0,0.0
1024,63.0,26.0,30.0,0.0,0.0
1025,54.0,1.0,30.0,1.0,0.0
1026,69.0,1.0,30.0,0.0,0.0
1027,55.0,2.0,30.0,1.0,0.0
1028,64.0,28.0,30.0,0.0,0.0
1029,67.0,3.0,120.0,0.0,0.0
1030,57.0,2.0,30.0,1.0,0.0
1031,66.0,28.0,30.0,0.0,0.0
1032,64.0,26.0,30.0,0.0,0.0
1033,55.0,1.0,30.0,1.0,0.0
1034,66.0,27.0,30.0,0.0,0.0
1035,57.0,3.0,30.0,1.0,0.0
1036,59.0,2.0,30.0,1.0,0.0
1037,67.0,29.0,30.0,0.0,0.0
1038,57.0,0.0,30.0,1.0,0.0
1039,66.0,11.0,30.0,0.0,0.0
1040,67.0,0.0,30.0,0.0,0.0
1041,59.0,24.0,30.0,1.0,0.0
1042,55.0,2.0,20.0,1.0,0.0
1043,64.0,34.0,30.0,0.0,0.0
1044,59.0,28.0,30.0,0.0,0.0
1045,65.0,4.0,210.0,0.0,0.0
1046,67.0,4.0,450.0,0.0,0.0
1047,74.0,8.0,240.0,0.0,0.0
1048,55.0,1.0,30.0,1.0,0.0
1049,60.0,0.0,30.0,0.0,0.0
1050,57.0,29.0,30.0,1.0,0.0
1051,59.0,30.0,30.0,0.0,0.0
1052,55.0,1.0,30.0,1.0,0.0
1053,57.0,0.0,30.0,1.0,0.0
1054,60.0,28.0,30.0,0.0,0.0
1055,62.0,1.0,30.0,0.0,0.0
1056,59.0,29.0,30.0,1.0,0.0
1057,60.0,16.0,30.0,0.0,0.0
1058,57.0,2.0,30.0,1.0,0.0
1059,43.0,12.0,15.0,1.0,0.0
1060,62.0,14.0,30.0,0.0,0.0
1061,59.0,3.0,30.0,1.0,0.0
1062,59.0,30.0,30.0,0.0,0.0
1063,55.0,2.0,30.0,1.0,0.0
1064,43.0,1.0,30.0,1.0,0.0
1065,72.0,30.0,30.0,0.0,0.0
1066,64.0,0.0,60.0,0.0,0.0
1067,48.0,4.0,120.0,1.0,0.0
1068,60.0,0.0,120.0,1.0,0.0
1069,76.0,30.0,30.0,0.0,0.0
1070,65.0,30.0,30.0,0.0,0.0
1071,74.0,0.0,30.0,0.0,0.0
1072,72.0,4.0,30.0,0.0,0.0
1073,64.0,23.0,30.0,0.0,0.0
1074,62.0,2.0,30.0,0.0,0.0
1075,71.0,24.0,30.0,0.0,0.0
1076,65.0,6.0,30.0,0.0,0.0
1077,74.0,14.0,30.0,0.0,0.0
1078,55.0,3.0,20.0,1.0,0.0
1079,72.0,2.0,30.0,0.0,0.0
1080,43.0,4.0,15.0,1.0,0.0
1081,64.0,25.0,30.0,0.0,0.0
1082,55.0,4.0,20.0,1.0,0.0
1083,43.0,1.0,30.0,1.0,0.0
1084,62.0,3.0,30.0,0.0,0.0
1085,71.0,26.0,30.0,0.0,0.0
1086,60.0,3.0,120.0,1.0,0.0
1087,48.0,19.0,120.0,1.0,0.0
1088,72.0,31.0,30.0,0.0,0.0
1089,67.0,0.0,450.0,0.0,0.0
1090,64.0,29.0,60.0,0.0,0.0
1091,76.0,1.0,30.0,0.0,0.0
1092,65.0,30.0,30.0,0.0,0.0
1093,74.0,0.0,30.0,0.0,0.0
1094,64.0,4.0,30.0,0.0,0.0
1095,72.0,5.0,30.0,0.0,0.0
1096,71.0,25.0,30.0,0.0,0.0
1097,62.0,1.0,30.0,0.0,0.0
1098,74.0,20.0,30.0,0.0,0.0
1099,65.0,4.0,30.0,0.0,0.0
1100,64.0,23.0,30.0,0.0,0.0
1101,55.0,8.0,20.0,1.0,0.0
1102,43.0,1.0,20.0,1.0,0.0
1103,72.0,1.0,30.0,0.0,0.0
1104,43.0,2.0,30.0,1.0,0.0
1105,55.0,4.0,20.0,1.0,0.0
1106,62.0,4.0,30.0,0.0,0.0
1107,71.0,28.0,30.0,0.0,0.0
1108,48.0,2.0,240.0,1.0,0.0
1109,60.0,10.0,240.0,1.0,0.0
1110,72.0,1.0,60.0,0.0,0.0
1111,64.0,28.0,30.0,0.0,0.0
1112,63.0,30.0,30.0,0.0,0.0
1113,71.0,5.0,120.0,0.0,0.0
1114,64.0,29.0,30.0,0.0,0.0
1115,63.0,31.0,30.0,0.0,0.0
1116,64.0,24.0,30.0,0.0,0.0
1117,63.0,34.0,30.0,0.0,0.0
1118,64.0,13.0,30.0,0.0,0.0
1119,70.0,4.0,60.0,0.0,0.0
1120,63.0,26.0,30.0,0.0,0.0
1121,64.0,4.0,120.0,0.0,0.0
1122,71.0,0.0,120.0,0.0,0.0
1123,68.0,51.0,120.0,0.0,0.0
1124,59.0,1.0,30.0,1.0,0.0
1125,47.0,25.0,30.0,1.0,0.0
1126,46.0,31.0,30.0,1.0,0.0
1127,58.0,4.0,20.0,1.0,0.0
1128,59.0,28.0,30.0,1.0,0.0
1129,47.0,2.0,30.0,1.0,0.0
1130,46.0,2.0,30.0,1.0,0.0
1131,58.0,3.0,30.0,1.0,0.0
1132,47.0,1.0,120.0,1.0,0.0
1133,59.0,0.0,120.0,1.0,0.0
1134,64.0,26.0,30.0,0.0,0.0
1135,68.0,2.0,30.0,0.0,0.0
1136,69.0,4.0,30.0,0.0,0.0
1137,66.0,26.0,30.0,0.0,0.0
1138,71.0,3.0,30.0,0.0,0.0
1139,68.0,11.0,30.0,0.0,0.0
1140,74.0,1.0,15.0,0.0,0.0
1141,71.0,19.0,15.0,0.0,0.0
1142,73.0,3.0,15.0,0.0,0.0
1143,69.0,24.0,20.0,0.0,0.0
1144,71.0,27.0,30.0,0.0,0.0
1145,68.0,4.0,30.0,0.0,0.0
1146,69.0,0.0,30.0,0.0,0.0
1147,73.0,28.0,30.0,0.0,0.0
1148,75.0,30.0,30.0,0.0,0.0
1149,71.0,1.0,30.0,0.0,0.0
1150,76.0,4.0,30.0,0.0,0.0
1151,73.0,26.0,30.0,0.0,0.0
1152,68.0,28.0,30.0,0.0,0.0
1153,72.0,1.0,30.0,0.0,0.0
1154,73.0,27.0,30.0,0.0,0.0
1155,69.0,1.0,30.0,0.0,0.0
1156,69.0,3.0,30.0,0.0,0.0
1157,66.0,16.0,30.0,0.0,0.0
1158,47.0,1.0,450.0,1.0,0.0
1159,68.0,12.0,15.0,0.0,0.0
1160,64.0,0.0,15.0,0.0,0.0
1161,66.0,2.0,15.0,0.0,0.0
1162,63.0,15.0,15.0,0.0,0.0
1163,68.0,14.0,15.0,0.0,0.0
1164,49.0,12.0,30.0,1.0,0.0
1165,64.0,0.0,15.0,0.0,0.0
1166,63.0,1.0,15.0,0.0,0.0
1167,66.0,1.0,15.0,0.0,0.0
1168,51.0,0.0,30.0,1.0,0.0
1169,68.0,12.0,15.0,0.0,0.0
1170,64.0,3.0,15.0,0.0,0.0
1171,63.0,2.0,15.0,0.0,0.0
1172,66.0,14.0,15.0,0.0,0.0
1173,52.0,2.0,30.0,1.0,0.0
1174,68.0,12.0,15.0,0.0,0.0
1175,64.0,2.0,15.0,0.0,0.0
1176,66.0,12.0,15.0,0.0,0.0
1177,63.0,1.0,15.0,0.0,0.0
1178,64.0,3.0,15.0,0.0,0.0
1179,68.0,12.0,15.0,0.0,0.0
1180,54.0,1.0,30.0,1.0,0.0
1181,63.0,16.0,15.0,0.0,0.0
1182,66.0,0.0,15.0,0.0,0.0
1183,64.0,1.0,15.0,0.0,0.0
1184,56.0,14.0,30.0,1.0,0.0
1185,68.0,13.0,15.0,0.0,0.0
1186,66.0,1.0,15.0,0.0,0.0
1187,63.0,0.0,15.0,0.0,0.0
1188,68.0,14.0,15.0,0.0,0.0
1189,64.0,1.0,15.0,0.0,0.0
1190,57.0,12.0,30.0,1.0,0.0
1191,66.0,5.0,15.0,0.0,0.0
1192,63.0,0.0,15.0,0.0,0.0
1193,58.0,2.0,30.0,1.0,0.0
1194,68.0,12.0,15.0,0.0,0.0
1195,64.0,1.0,15.0,0.0,0.0
1196,63.0,13.0,15.0,0.0,0.0
1197,66.0,0.0,15.0,0.0,0.0
1198,68.0,13.0,15.0,0.0,0.0
1199,64.0,2.0,15.0,0.0,0.0
1200,59.0,11.0,30.0,1.0,0.0
1201,66.0,3.0,15.0,0.0,0.0
1202,63.0,1.0,15.0,0.0,0.0
1203,64.0,14.0,15.0,0.0,0.0
1204,68.0,1.0,15.0,0.0,0.0
1205,58.0,1.0,30.0,1.0,0.0
1206,66.0,13.0,15.0,0.0,0.0
1207,63.0,1.0,15.0,0.0,0.0
1208,59.0,15.0,30.0,1.0,0.0
1209,68.0,12.0,15.0,0.0,0.0
1210,64.0,3.0,15.0,0.0,0.0
1211,66.0,1.0,15.0,0.0,0.0
1212,63.0,0.0,15.0,0.0,0.0
1213,61.0,14.0,30.0,1.0,0.0
1214,64.0,2.0,15.0,0.0,0.0
1215,68.0,11.0,15.0,0.0,0.0
1216,66.0,0.0,15.0,0.0,0.0
1217,63.0,2.0,15.0,0.0,0.0
1218,59.0,0.0,30.0,1.0,0.0
1219,68.0,12.0,15.0,0.0,0.0
1220,64.0,4.0,15.0,0.0,0.0
1221,66.0,13.0,15.0,0.0,0.0
1222,63.0,1.0,15.0,0.0,0.0
1223,61.0,12.0,30.0,1.0,0.0
1224,68.0,2.0,15.0,0.0,0.0
1225,64.0,13.0,15.0,0.0,0.0
1226,66.0,2.0,15.0,0.0,0.0
1227,63.0,1.0,15.0,0.0,0.0
1228,68.0,11.0,15.0,0.0,0.0
1229,64.0,2.0,15.0,0.0,0.0
1230,57.0,0.0,30.0,1.0,0.0
1231,63.0,1.0,15.0,0.0,0.0
1232,66.0,17.0,15.0,0.0,0.0
1233,64.0,2.0,15.0,0.0,0.0
1234,59.0,1.0,30.0,1.0,0.0
1235,66.0,2.0,15.0,0.0,0.0
1236,63.0,28.0,15.0,0.0,0.0
1237,56.0,1.0,60.0,1.0,0.0
1238,52.0,19.0,60.0,1.0,0.0
1239,64.0,31.0,30.0,0.0,0.0
1240,68.0,10.0,30.0,0.0,0.0
1241,71.0,22.0,30.0,0.0,0.0
1242,76.0,17.0,20.0,0.0,0.0
1243,63.0,20.0,15.0,0.0,0.0
1244,49.0,3.0,90.0,1.0,0.0
1245,52.0,0.0,90.0,1.0,0.0
1246,56.0,1.0,90.0,1.0,0.0
1247,61.0,33.0,30.0,0.0,0.0
1248,64.0,23.0,30.0,0.0,0.0
1249,68.0,20.0,30.0,0.0,0.0
1250,73.0,39.0,20.0,0.0,0.0
1251,57.0,37.0,30.0,0.0,0.0
1252,45.0,1.0,90.0,1.0,0.0
1253,52.0,1.0,90.0,1.0,0.0
1254,54.0,12.0,90.0,1.0,0.0
1255,61.0,11.0,30.0,0.0,0.0
1256,66.0,27.0,30.0,0.0,0.0
1257,69.0,33.0,30.0,0.0,0.0
1258,59.0,30.0,30.0,0.0,0.0
1259,54.0,1.0,60.0,1.0,0.0
1260,51.0,0.0,60.0,1.0,0.0
1261,47.0,17.0,60.0,1.0,0.0
1262,63.0,11.0,30.0,0.0,0.0
1263,66.0,29.0,30.0,0.0,0.0
1264,71.0,31.0,30.0,0.0,0.0
1265,52.0,28.0,30.0,1.0,0.0
1266,64.0,2.0,60.0,0.0,0.0
1267,68.0,23.0,60.0,0.0,0.0
1268,56.0,4.0,30.0,1.0,0.0
1269,59.0,29.0,30.0,1.0,0.0
1270,64.0,36.0,30.0,1.0,0.0
1271,68.0,1.0,60.0,0.0,0.0
1272,76.0,25.0,60.0,0.0,0.0
1273,49.0,28.0,30.0,1.0,0.0
1274,52.0,5.0,30.0,1.0,0.0
1275,56.0,25.0,30.0,1.0,0.0
1276,61.0,33.0,30.0,1.0,0.0
1277,66.0,15.0,60.0,0.0,0.0
1278,45.0,32.0,30.0,1.0,0.0
1279,73.0,2.0,60.0,0.0,0.0
1280,76.0,0.0,60.0,0.0,0.0
1281,49.0,10.0,30.0,1.0,0.0
1282,54.0,29.0,30.0,1.0,0.0
1283,57.0,33.0,30.0,1.0,0.0
1284,47.0,33.0,30.0,1.0,0.0
1285,71.0,1.0,90.0,0.0,0.0
1286,75.0,4.0,90.0,0.0,0.0
1287,66.0,2.0,90.0,0.0,0.0
1288,69.0,1.0,90.0,0.0,0.0
1289,51.0,17.0,30.0,1.0,0.0
1290,54.0,32.0,30.0,1.0,0.0
1291,59.0,46.0,30.0,1.0,0.0
1292,68.0,3.0,60.0,0.0,0.0
1293,52.0,5.0,60.0,1.0,0.0
1294,76.0,49.0,60.0,0.0,0.0
1295,71.0,1.0,60.0,0.0,0.0
1296,40.0,2.0,60.0,1.0,0.0
1297,56.0,0.0,60.0,0.0,0.0
1298,59.0,52.0,60.0,0.0,0.0
1299,40.0,4.0,60.0,1.0,0.0
1300,52.0,0.0,60.0,1.0,0.0
1301,64.0,1.0,60.0,0.0,0.0
1302,59.0,58.0,60.0,0.0,0.0
1303,40.0,2.0,30.0,1.0,0.0
1304,56.0,1.0,60.0,0.0,0.0
1305,52.0,1.0,30.0,1.0,0.0
1306,64.0,0.0,60.0,0.0,0.0
1307,40.0,1.0,30.0,1.0,0.0
1308,52.0,0.0,60.0,1.0,0.0
1309,64.0,128.0,60.0,0.0,0.0
1310,59.0,0.0,60.0,0.0,0.0
1311,56.0,1.0,60.0,0.0,0.0
1312,40.0,3.0,120.0,1.0,0.0
1313,64.0,2.0,120.0,0.0,0.0
1314,56.0,0.0,120.0,0.0,0.0
1315,52.0,245.0,120.0,1.0,0.0
1316,59.0,0.0,120.0,0.0,0.0
1317,61.0,0.0,120.0,1.0,0.0
1318,45.0,1.0,120.0,1.0,0.0
1319,57.0,1.0,120.0,1.0,0.0
1320,64.0,63.0,120.0,0.0,0.0
1321,69.0,5.0,120.0,0.0,0.0
1322,69.0,20.0,20.0,0.0,0.0
1323,57.0,1.0,20.0,1.0,0.0
1324,64.0,5.0,15.0,0.0,0.0
1325,61.0,2.0,20.0,1.0,0.0
1326,45.0,0.0,20.0,1.0,0.0
1327,57.0,2.0,15.0,1.0,0.0
1328,64.0,4.0,15.0,0.0,0.0
1329,69.0,136.0,20.0,0.0,0.0
1330,45.0,2.0,20.0,1.0,0.0
1331,61.0,1.0,20.0,1.0,0.0
1332,59.0,6.0,120.0,1.0,0.0
1333,56.0,1.0,120.0,1.0,0.0
1334,44.0,3.0,120.0,1.0,0.0
1335,71.0,54.0,150.0,0.0,0.0
1336,64.0,5.0,150.0,0.0,0.0
1337,64.0,26.0,20.0,0.0,0.0
1338,71.0,1.0,20.0,0.0,0.0
1339,56.0,0.0,20.0,1.0,0.0
1340,59.0,2.0,15.0,1.0,0.0
1341,44.0,0.0,20.0,1.0,0.0
1342,64.0,2.0,20.0,0.0,0.0
1343,44.0,1.0,20.0,1.0,0.0
1344,56.0,1.0,15.0,1.0,0.0
1345,71.0,141.0,20.0,0.0,0.0
1346,59.0,2.0,15.0,1.0,0.0
1347,73.0,1.0,150.0,0.0,0.0
1348,69.0,46.0,150.0,0.0,0.0
1349,42.0,1.0,120.0,1.0,0.0
1350,54.0,1.0,120.0,1.0,0.0
1351,61.0,8.0,150.0,1.0,0.0
1352,57.0,4.0,120.0,1.0,0.0
1353,69.0,2.0,15.0,0.0,0.0
1354,42.0,25.0,20.0,1.0,0.0
1355,57.0,0.0,15.0,1.0,0.0
1356,61.0,1.0,15.0,1.0,0.0
1357,54.0,1.0,15.0,1.0,0.0
1358,73.0,1.0,15.0,0.0,0.0
1359,69.0,1.0,15.0,0.0,0.0
1360,57.0,1.0,15.0,1.0,0.0
1361,61.0,1.0,15.0,1.0,0.0
1362,54.0,0.0,15.0,1.0,0.0
1363,42.0,5.0,15.0,1.0,0.0
1364,73.0,140.0,20.0,0.0,0.0
1365,64.0,1.0,150.0,1.0,0.0
1366,40.0,1.0,120.0,1.0,0.0
1367,71.0,3.0,120.0,0.0,0.0
1368,56.0,55.0,150.0,1.0,0.0
1369,68.0,1.0,120.0,0.0,0.0
1370,76.0,5.0,150.0,0.0,0.0
1371,59.0,1.0,150.0,1.0,0.0
1372,52.0,0.0,150.0,1.0,0.0
1373,50.0,0.0,20.0,1.0,0.0
1374,64.0,0.0,20.0,0.0,0.0
1375,56.0,1.0,20.0,1.0,0.0
1376,59.0,26.0,20.0,0.0,0.0
1377,50.0,2.0,15.0,1.0,0.0
1378,56.0,0.0,15.0,1.0,0.0
1379,64.0,68.0,20.0,0.0,0.0
1380,59.0,2.0,15.0,0.0,0.0
1381,61.0,20.0,150.0,0.0,0.0
1382,57.0,5.0,120.0,1.0,0.0
1383,69.0,60.0,60.0,0.0,0.0
1384,49.0,22.0,120.0,1.0,0.0
1385,64.0,1.0,150.0,0.0,0.0
1386,71.0,9.0,60.0,0.0,0.0
1387,73.0,50.0,60.0,0.0,0.0
1388,64.0,103.0,60.0,0.0,0.0
1389,57.0,8.0,30.0,0.0,0.0
1390,49.0,12.0,60.0,1.0,0.0
1391,57.0,9.0,120.0,0.0,0.0
1392,66.0,3.0,120.0,0.0,0.0
1393,50.0,102.0,120.0,1.0,0.0
1394,69.0,0.0,240.0,0.0,0.0
1395,64.0,10.0,90.0,0.0,0.0
1396,49.0,1.0,120.0,1.0,0.0
1397,57.0,24.0,120.0,1.0,0.0
1398,47.0,7.0,120.0,1.0,0.0
1399,59.0,5.0,240.0,1.0,0.0
1400,64.0,11.0,15.0,0.0,0.0
1401,62.0,19.0,15.0,0.0,0.0
1402,64.0,13.0,15.0,0.0,0.0
1403,62.0,17.0,15.0,0.0,0.0
1404,64.0,14.0,15.0,0.0,0.0
1405,62.0,12.0,15.0,0.0,0.0
1406,61.0,9.0,15.0,0.0,0.0
1407,62.0,57.0,15.0,0.0,0.0
1408,40.0,3.0,120.0,1.0,0.0
1409,68.0,122.0,120.0,0.0,0.0
1410,64.0,55.0,60.0,0.0,0.0
1411,62.0,1.0,60.0,0.0,0.0
1412,61.0,1.0,120.0,0.0,0.0
1413,69.0,0.0,120.0,0.0,0.0
1414,45.0,55.0,120.0,1.0,0.0
1415,57.0,1.0,120.0,1.0,0.0
1416,61.0,3.0,30.0,0.0,0.0
1417,64.0,26.0,30.0,0.0,0.0
1418,66.0,31.0,30.0,0.0,0.0
1419,62.0,1.0,30.0,0.0,0.0
1420,68.0,26.0,30.0,0.0,0.0
1421,64.0,0.0,30.0,0.0,0.0
1422,69.0,4.0,30.0,0.0,0.0
1423,66.0,27.0,30.0,0.0,0.0
1424,71.0,27.0,30.0,0.0,0.0
1425,68.0,3.0,30.0,0.0,0.0
1426,69.0,2.0,30.0,0.0,0.0
1427,73.0,31.0,30.0,0.0,0.0
1428,71.0,53.0,30.0,0.0,0.0
1429,74.0,0.0,30.0,0.0,0.0
1430,73.0,1.0,180.0,0.0,0.0
1431,76.0,17.0,180.0,0.0,0.0
1432,57.0,6.0,20.0,1.0,0.0
1433,61.0,25.0,30.0,1.0,0.0
1434,59.0,1.0,20.0,1.0,0.0
1435,62.0,32.0,20.0,1.0,0.0
1436,61.0,1.0,30.0,1.0,0.0
1437,64.0,27.0,30.0,1.0,0.0
1438,66.0,31.0,20.0,1.0,0.0
1439,62.0,0.0,20.0,1.0,0.0
1440,61.0,0.0,30.0,1.0,0.0
1441,64.0,2.0,30.0,1.0,0.0
1442,71.0,0.0,60.0,0.0,0.0
1443,74.0,57.0,60.0,0.0,0.0
1444,62.0,2.0,15.0,1.0,0.0
1445,66.0,31.0,15.0,1.0,0.0
1446,68.0,15.0,20.0,1.0,0.0
1447,64.0,0.0,20.0,1.0,0.0
1448,73.0,20.0,90.0,0.0,0.0
1449,69.0,5.0,240.0,0.0,0.0
1450,66.0,3.0,240.0,1.0,0.0
1451,54.0,25.0,30.0,1.0,0.0
1452,52.0,14.0,30.0,1.0,0.0
1453,54.0,16.0,30.0,1.0,0.0
1454,50.0,16.0,30.0,1.0,0.0
1455,73.0,13.0,15.0,0.0,0.0
1456,71.0,3.0,15.0,0.0,0.0
1457,47.0,17.0,30.0,1.0,0.0
1458,73.0,11.0,15.0,0.0,0.0
1459,71.0,1.0,15.0,0.0,0.0
1460,73.0,14.0,15.0,0.0,0.0
1461,49.0,12.0,30.0,1.0,0.0
1462,71.0,3.0,15.0,0.0,0.0
1463,50.0,16.0,30.0,1.0,0.0
1464,73.0,6.0,15.0,0.0,0.0
1465,71.0,0.0,15.0,0.0,0.0
1466,68.0,52.0,120.0,0.0,0.0
1467,73.0,14.0,15.0,0.0,0.0
1468,64.0,30.0,60.0,1.0,0.0
1469,52.0,17.0,30.0,1.0,0.0
1470,71.0,0.0,15.0,0.0,0.0
1471,50.0,0.0,30.0,1.0,0.0
1472,73.0,12.0,15.0,0.0,0.0
1473,71.0,1.0,15.0,0.0,0.0
1474,52.0,1.0,30.0,1.0,0.0
1475,62.0,4.0,60.0,1.0,0.0
1476,69.0,27.0,30.0,0.0,0.0
1477,71.0,0.0,30.0,0.0,0.0
1478,40.0,3.0,30.0,1.0,0.0
1479,69.0,32.0,60.0,0.0,0.0
1480,61.0,2.0,120.0,1.0,0.0
1481,45.0,4.0,120.0,1.0,0.0
1482,73.0,25.0,30.0,0.0,0.0
1483,71.0,31.0,30.0,0.0,0.0
1484,69.0,32.0,30.0,0.0,0.0
1485,68.0,28.0,30.0,0.0,0.0
1486,49.0,3.0,60.0,1.0,0.0
1487,45.0,2.0,60.0,1.0,0.0
1488,57.0,3.0,120.0,0.0,0.0
1489,66.0,26.0,30.0,0.0,0.0
1490,64.0,57.0,30.0,0.0,0.0
1491,47.0,8.0,120.0,1.0,0.0
1492,50.0,2.0,120.0,1.0,0.0
1493,62.0,21.0,60.0,0.0,0.0
1494,56.0,18.0,60.0,0.0,0.0
1495,74.0,39.0,20.0,0.0,0.0
1496,73.0,1.0,30.0,0.0,0.0
1497,71.0,30.0,30.0,0.0,0.0
1498,69.0,25.0,30.0,0.0,0.0
1499,50.0,0.0,60.0,1.0,0.0
1500,59.0,2.0,120.0,0.0,0.0
1501,68.0,34.0,30.0,0.0,0.0
1502,47.0,1.0,60.0,1.0,0.0
1503,66.0,56.0,30.0,0.0,0.0
1504,64.0,32.0,60.0,0.0,0.0
1505,49.0,0.0,120.0,1.0,0.0
1506,52.0,20.0,120.0,1.0,0.0
1507,76.0,29.0,30.0,0.0,0.0
1508,57.0,1.0,60.0,0.0,0.0
1509,74.0,10.0,30.0,0.0,0.0
1510,73.0,27.0,30.0,0.0,0.0
1511,71.0,31.0,30.0,0.0,0.0
1512,61.0,1.0,120.0,0.0,0.0
1513,69.0,27.0,30.0,0.0,0.0
1514,52.0,3.0,60.0,1.0,0.0
1515,49.0,1.0,60.0,1.0,0.0
1516,68.0,58.0,30.0,0.0,0.0
1517,50.0,4.0,120.0,1.0,0.0
1518,54.0,18.0,120.0,1.0,0.0
1519,66.0,34.0,60.0,0.0,0.0
1520,59.0,8.0,60.0,0.0,0.0
1521,78.0,29.0,30.0,0.0,0.0
1522,76.0,1.0,30.0,0.0,0.0
1523,74.0,27.0,30.0,0.0,0.0
1524,73.0,4.0,30.0,0.0,0.0
1525,69.0,26.0,30.0,0.0,0.0
1526,71.0,1.0,30.0,0.0,0.0
1527,68.0,17.0,30.0,0.0,0.0
1528,51.0,2.0,60.0,1.0,0.0
1529,59.0,10.0,60.0,1.0,0.0
1530,69.0,29.0,30.0,0.0,0.0
1531,66.0,3.0,30.0,0.0,0.0
1532,68.0,13.0,120.0,0.0,0.0
1533,64.0,2.0,150.0,0.0,0.0
1534,59.0,11.0,120.0,1.0,0.0
1535,52.0,55.0,30.0,1.0,0.0
1536,52.0,32.0,30.0,1.0,0.0
1537,51.0,3.0,30.0,1.0,0.0
1538,49.0,33.0,30.0,1.0,0.0
1539,47.0,29.0,30.0,1.0,0.0
1540,45.0,25.0,30.0,1.0,0.0
1541,64.0,26.0,120.0,0.0,0.0
1542,59.0,3.0,60.0,1.0,0.0
1543,68.0,54.0,60.0,0.0,0.0
1544,44.0,6.0,30.0,1.0,0.0
1545,69.0,1.0,60.0,0.0,0.0
1546,57.0,1.0,120.0,1.0,0.0
1547,54.0,29.0,30.0,1.0,0.0
1548,66.0,2.0,90.0,0.0,0.0
1549,63.0,15.0,60.0,0.0,0.0
1550,52.0,9.0,30.0,1.0,0.0
1551,51.0,33.0,20.0,1.0,0.0
1552,49.0,25.0,30.0,1.0,0.0
1553,47.0,26.0,30.0,1.0,0.0
1554,63.0,5.0,20.0,1.0,0.0
1555,69.0,49.0,60.0,0.0,0.0
1556,66.0,3.0,120.0,0.0,0.0
1557,45.0,2.0,30.0,1.0,0.0
1558,61.0,10.0,30.0,1.0,0.0
1559,44.0,9.0,60.0,1.0,0.0
1560,59.0,22.0,120.0,1.0,0.0
1561,71.0,21.0,60.0,0.0,0.0
1562,56.0,30.0,30.0,1.0,0.0
1563,68.0,27.0,90.0,0.0,0.0
1564,64.0,5.0,90.0,0.0,0.0
1565,54.0,2.0,30.0,1.0,0.0
1566,52.0,4.0,30.0,1.0,0.0
1567,51.0,29.0,30.0,1.0,0.0
1568,49.0,29.0,30.0,1.0,0.0
1569,64.0,1.0,30.0,1.0,0.0
1570,71.0,4.0,60.0,0.0,0.0
1571,68.0,36.0,120.0,0.0,0.0
1572,47.0,4.0,30.0,1.0,0.0
1573,63.0,55.0,30.0,1.0,0.0
1574,73.0,5.0,180.0,0.0,0.0
1575,45.0,2.0,60.0,1.0,0.0
1576,61.0,5.0,120.0,1.0,0.0
1577,66.0,25.0,60.0,0.0,0.0
1578,57.0,21.0,30.0,1.0,0.0
1579,56.0,9.0,30.0,1.0,0.0
1580,54.0,24.0,30.0,1.0,0.0
1581,52.0,25.0,30.0,1.0,0.0
1582,58.0,3.0,60.0,0.0,0.0
1583,64.0,7.0,60.0,0.0,0.0
1584,54.0,3.0,20.0,1.0,0.0
1585,51.0,15.0,30.0,1.0,0.0
1586,49.0,40.0,30.0,1.0,0.0
1587,54.0,7.0,15.0,1.0,0.0
1588,63.0,3.0,60.0,0.0,0.0
1589,59.0,18.0,30.0,0.0,0.0
1590,47.0,24.0,60.0,1.0,0.0
1591,54.0,1.0,60.0,1.0,0.0
1592,78.0,2.0,30.0,0.0,0.0
1593,75.0,30.0,30.0,0.0,0.0
1594,73.0,23.0,30.0,0.0,0.0
1595,76.0,7.0,30.0,0.0,0.0
1596,75.0,1.0,30.0,0.0,0.0
1597,71.0,26.0,30.0,0.0,0.0
1598,73.0,2.0,30.0,0.0,0.0
1599,69.0,27.0,30.0,0.0,0.0
1600,71.0,25.0,30.0,0.0,0.0
1601,68.0,4.0,30.0,0.0,0.0
1602,69.0,22.0,30.0,0.0,0.0
1603,66.0,1.0,90.0,0.0,0.0
1604,69.0,11.0,15.0,0.0,0.0
1605,52.0,18.0,30.0,1.0,0.0
1606,68.0,0.0,15.0,0.0,0.0
1607,51.0,3.0,30.0,1.0,0.0
1608,69.0,11.0,15.0,0.0,0.0
1609,68.0,16.0,15.0,0.0,0.0
1610,47.0,1.0,60.0,1.0,0.0
1611,52.0,15.0,30.0,1.0,0.0
1612,69.0,13.0,15.0,0.0,0.0
1613,59.0,3.0,60.0,0.0,0.0
1614,68.0,2.0,15.0,0.0,0.0
1615,69.0,8.0,15.0,0.0,0.0
1616,54.0,3.0,30.0,1.0,0.0
1617,68.0,14.0,15.0,0.0,0.0
1618,69.0,12.0,15.0,0.0,0.0
1619,56.0,3.0,30.0,1.0,0.0
1620,44.0,2.0,60.0,1.0,0.0
1621,64.0,36.0,150.0,0.0,0.0
1622,68.0,16.0,15.0,0.0,0.0
1623,54.0,1.0,30.0,1.0,0.0
1624,69.0,9.0,15.0,0.0,0.0
1625,68.0,29.0,15.0,0.0,0.0
1626,66.0,3.0,30.0,0.0,0.0
1627,56.0,26.0,30.0,1.0,0.0
1628,40.0,2.0,60.0,1.0,0.0
1629,68.0,18.0,30.0,0.0,0.0
1630,58.0,0.0,30.0,1.0,0.0
1631,66.0,10.0,60.0,0.0,0.0
1632,47.0,4.0,120.0,1.0,0.0
1633,59.0,3.0,120.0,1.0,0.0
1634,63.0,24.0,30.0,0.0,0.0
1635,75.0,1.0,30.0,0.0,0.0
1636,78.0,25.0,30.0,0.0,0.0
1637,76.0,5.0,30.0,0.0,0.0
1638,73.0,24.0,30.0,0.0,0.0
1639,75.0,1.0,30.0,0.0,0.0
1640,71.0,27.0,30.0,0.0,0.0
1641,69.0,1.0,30.0,0.0,0.0
1642,73.0,30.0,30.0,0.0,0.0
1643,47.0,0.0,30.0,1.0,0.0
1644,68.0,3.0,30.0,0.0,0.0
1645,71.0,0.0,30.0,0.0,0.0
1646,49.0,19.0,30.0,1.0,0.0
1647,69.0,8.0,20.0,0.0,0.0
1648,66.0,17.0,90.0,0.0,0.0
1649,51.0,21.0,30.0,1.0,0.0
1650,69.0,8.0,20.0,0.0,0.0
1651,52.0,3.0,30.0,1.0,0.0
1652,68.0,15.0,15.0,0.0,0.0
1653,51.0,2.0,30.0,1.0,0.0
1654,69.0,12.0,15.0,0.0,0.0
1655,68.0,0.0,15.0,0.0,0.0
1656,52.0,12.0,30.0,1.0,0.0
1657,47.0,0.0,60.0,1.0,0.0
1658,69.0,12.0,15.0,0.0,0.0
1659,59.0,2.0,60.0,0.0,0.0
1660,68.0,4.0,15.0,0.0,0.0
1661,69.0,12.0,15.0,0.0,0.0
1662,54.0,1.0,30.0,1.0,0.0
1663,68.0,15.0,15.0,0.0,0.0
1664,56.0,18.0,30.0,1.0,0.0
1665,69.0,13.0,15.0,0.0,0.0
1666,64.0,3.0,120.0,0.0,0.0
1667,44.0,29.0,60.0,1.0,0.0
1668,68.0,1.0,15.0,0.0,0.0
1669,54.0,2.0,30.0,1.0,0.0
1670,69.0,8.0,15.0,0.0,0.0
1671,68.0,3.0,15.0,0.0,0.0
1672,56.0,1.0,30.0,1.0,0.0
1673,40.0,1.0,60.0,1.0,0.0
1674,66.0,24.0,30.0,0.0,0.0
1675,58.0,2.0,30.0,1.0,0.0
1676,68.0,29.0,30.0,0.0,0.0
1677,66.0,5.0,120.0,0.0,0.0
1678,63.0,28.0,120.0,0.0,0.0
1679,47.0,27.0,30.0,1.0,0.0
1680,59.0,6.0,120.0,1.0,0.0
1681,46.0,32.0,30.0,1.0,0.0
1682,47.0,24.0,30.0,1.0,0.0
1683,49.0,0.0,30.0,1.0,0.0
1684,47.0,28.0,30.0,1.0,0.0
1685,44.0,28.0,30.0,1.0,0.0
1686,45.0,33.0,30.0,1.0,0.0
1687,42.0,27.0,30.0,1.0,0.0
1688,52.0,2.0,30.0,1.0,0.0
1689,40.0,21.0,120.0,1.0,0.0
1690,56.0,27.0,30.0,0.0,0.0
1691,57.0,28.0,30.0,0.0,0.0
1692,54.0,3.0,30.0,1.0,0.0
1693,56.0,31.0,30.0,0.0,0.0
1694,52.0,2.0,30.0,1.0,0.0
1695,57.0,7.0,30.0,0.0,0.0
1696,54.0,1.0,30.0,1.0,0.0
1697,59.0,0.0,30.0,0.0,0.0
1698,56.0,33.0,30.0,1.0,0.0
1699,57.0,13.0,30.0,0.0,0.0
1700,54.0,1.0,30.0,1.0,0.0
1701,56.0,4.0,20.0,1.0,0.0
1702,47.0,8.0,15.0,1.0,0.0
1703,63.0,0.0,60.0,0.0,0.0
1704,59.0,28.0,30.0,0.0,0.0
1705,57.0,31.0,30.0,0.0,0.0
1706,54.0,1.0,30.0,1.0,0.0
1707,47.0,1.0,30.0,1.0,0.0
1708,64.0,1.0,60.0,0.0,0.0
1709,56.0,2.0,30.0,0.0,0.0
1710,52.0,27.0,30.0,1.0,0.0
1711,40.0,1.0,120.0,1.0,0.0
1712,57.0,4.0,30.0,0.0,0.0
1713,54.0,28.0,30.0,1.0,0.0
1714,56.0,0.0,30.0,0.0,0.0
1715,52.0,28.0,30.0,1.0,0.0
1716,57.0,3.0,30.0,0.0,0.0
1717,54.0,0.0,30.0,1.0,0.0
1718,56.0,1.0,30.0,1.0,0.0
1719,59.0,25.0,15.0,0.0,0.0
1720,54.0,3.0,30.0,1.0,0.0
1721,57.0,17.0,30.0,0.0,0.0
1722,47.0,8.0,15.0,1.0,0.0
1723,56.0,8.0,30.0,1.0,0.0
1724,59.0,18.0,30.0,0.0,0.0
1725,63.0,3.0,60.0,0.0,0.0
1726,47.0,4.0,20.0,1.0,0.0
1727,54.0,3.0,30.0,1.0,0.0
1728,57.0,52.0,30.0,0.0,0.0
1729,40.0,27.0,60.0,1.0,0.0
1730,52.0,1.0,120.0,1.0,0.0
1731,56.0,71.0,120.0,0.0,0.0
1732,64.0,2.0,60.0,0.0,0.0
1733,68.0,24.0,20.0,0.0,0.0
1734,71.0,12.0,210.0,0.0,0.0
1735,44.0,27.0,60.0,1.0,0.0
1736,68.0,1.0,30.0,0.0,0.0
1737,64.0,5.0,30.0,1.0,0.0
1738,63.0,0.0,30.0,1.0,0.0
1739,66.0,28.0,30.0,0.0,0.0
1740,61.0,0.0,30.0,1.0,0.0
1741,64.0,30.0,30.0,0.0,0.0
1742,59.0,0.0,30.0,1.0,0.0
1743,47.0,2.0,120.0,1.0,0.0
1744,63.0,30.0,30.0,0.0,0.0
1745,64.0,28.0,30.0,0.0,0.0
1746,61.0,2.0,30.0,1.0,0.0
1747,59.0,11.0,30.0,1.0,0.0
1748,63.0,4.0,30.0,0.0,0.0
1749,61.0,16.0,30.0,0.0,0.0
1750,57.0,1.0,30.0,1.0,0.0
1751,56.0,11.0,30.0,1.0,0.0
1752,64.0,11.0,15.0,0.0,0.0
1753,59.0,4.0,30.0,0.0,0.0
1754,63.0,2.0,15.0,0.0,0.0
1755,57.0,2.0,30.0,1.0,0.0
1756,64.0,16.0,15.0,0.0,0.0
1757,61.0,16.0,30.0,0.0,0.0
1758,63.0,1.0,15.0,0.0,0.0
1759,59.0,0.0,30.0,0.0,0.0
1760,64.0,10.0,20.0,0.0,0.0
1761,56.0,2.0,30.0,1.0,0.0
1762,63.0,16.0,15.0,0.0,0.0
1763,54.0,2.0,30.0,1.0,0.0
1764,61.0,9.0,15.0,0.0,0.0
1765,57.0,2.0,30.0,0.0,0.0
1766,63.0,46.0,15.0,0.0,0.0
1767,52.0,28.0,60.0,1.0,0.0
1768,64.0,7.0,120.0,0.0,0.0
1769,56.0,14.0,60.0,0.0,0.0
1770,68.0,22.0,30.0,0.0,0.0
1771,64.0,2.0,30.0,1.0,0.0
1772,66.0,30.0,30.0,1.0,0.0
1773,69.0,1.0,30.0,0.0,0.0
1774,71.0,1.0,30.0,0.0,0.0
1775,68.0,26.0,30.0,1.0,0.0
1776,66.0,2.0,30.0,1.0,0.0
1777,69.0,17.0,30.0,0.0,0.0
1778,71.0,23.0,30.0,0.0,0.0
1779,68.0,4.0,20.0,1.0,0.0
1780,47.0,9.0,15.0,1.0,0.0
1781,59.0,0.0,15.0,1.0,0.0
1782,75.0,1.0,60.0,0.0,0.0
1783,66.0,4.0,30.0,1.0,0.0
1784,69.0,29.0,30.0,0.0,0.0
1785,47.0,3.0,20.0,1.0,0.0
1786,59.0,3.0,20.0,1.0,0.0
1787,76.0,3.0,60.0,0.0,0.0
1788,68.0,0.0,30.0,0.0,0.0
1789,64.0,20.0,30.0,1.0,0.0
1790,52.0,4.0,60.0,1.0,0.0
1791,66.0,2.0,30.0,1.0,0.0
1792,69.0,28.0,30.0,0.0,0.0
1793,68.0,1.0,30.0,0.0,0.0
1794,71.0,10.0,60.0,0.0,0.0
1795,64.0,21.0,30.0,1.0,0.0
1796,69.0,1.0,30.0,0.0,0.0
1797,66.0,27.0,30.0,1.0,0.0
1798,68.0,28.0,30.0,1.0,0.0
1799,71.0,1.0,30.0,0.0,0.0
1800,66.0,3.0,30.0,1.0,0.0
1801,69.0,13.0,30.0,0.0,0.0
1802,71.0,21.0,30.0,0.0,0.0
1803,75.0,7.0,60.0,0.0,0.0
1804,68.0,3.0,20.0,1.0,0.0
1805,47.0,1.0,15.0,1.0,0.0
1806,59.0,8.0,15.0,1.0,0.0
1807,66.0,2.0,30.0,1.0,0.0
1808,59.0,10.0,15.0,1.0,0.0
1809,69.0,47.0,30.0,0.0,0.0
1810,47.0,0.0,30.0,1.0,0.0
1811,64.0,1.0,60.0,1.0,0.0
1812,52.0,3.0,60.0,1.0,0.0
1813,76.0,20.0,60.0,0.0,0.0
1814,68.0,48.0,15.0,0.0,0.0
1815,71.0,11.0,210.0,0.0,0.0
1816,44.0,21.0,60.0,1.0,0.0
1817,68.0,10.0,30.0,0.0,0.0
1818,64.0,3.0,30.0,1.0,0.0
1819,63.0,1.0,30.0,1.0,0.0
1820,66.0,29.0,30.0,0.0,0.0
1821,61.0,1.0,30.0,1.0,0.0
1822,64.0,28.0,30.0,0.0,0.0
1823,63.0,0.0,30.0,0.0,0.0
1824,59.0,29.0,30.0,1.0,0.0
1825,47.0,4.0,120.0,1.0,0.0
1826,64.0,27.0,30.0,0.0,0.0
1827,61.0,4.0,30.0,1.0,0.0
1828,63.0,1.0,30.0,0.0,0.0
1829,59.0,9.0,30.0,1.0,0.0
1830,61.0,15.0,30.0,0.0,0.0
1831,57.0,5.0,20.0,1.0,0.0
1832,56.0,16.0,30.0,1.0,0.0
1833,59.0,1.0,30.0,0.0,0.0
1834,64.0,15.0,15.0,0.0,0.0
1835,63.0,0.0,15.0,0.0,0.0
1836,57.0,15.0,30.0,1.0,0.0
1837,64.0,15.0,15.0,0.0,0.0
1838,61.0,1.0,30.0,0.0,0.0
1839,63.0,0.0,15.0,0.0,0.0
1840,56.0,15.0,30.0,1.0,0.0
1841,59.0,1.0,30.0,0.0,0.0
1842,64.0,12.0,15.0,0.0,0.0
1843,63.0,0.0,15.0,0.0,0.0
1844,61.0,10.0,15.0,0.0,0.0
1845,57.0,31.0,30.0,0.0,0.0
1846,54.0,2.0,30.0,1.0,0.0
1847,63.0,1.0,15.0,0.0,0.0
1848,52.0,6.0,810.0,1.0,0.0
1849,64.0,9.0,240.0,0.0,0.0
1850,56.0,27.0,30.0,0.0,0.0
1851,40.0,0.0,30.0,1.0,0.0
1852,42.0,1.0,30.0,1.0,0.0
1853,57.0,34.0,30.0,0.0,0.0
1854,40.0,27.0,30.0,1.0,0.0
1855,56.0,1.0,30.0,0.0,0.0
1856,42.0,3.0,30.0,1.0,0.0
1857,57.0,24.0,30.0,0.0,0.0
1858,59.0,29.0,30.0,0.0,0.0
1859,44.0,4.0,30.0,1.0,0.0
1860,42.0,2.0,30.0,1.0,0.0
1861,57.0,28.0,30.0,0.0,0.0
1862,44.0,20.0,30.0,1.0,0.0
1863,59.0,1.0,30.0,0.0,0.0
1864,56.0,28.0,30.0,0.0,0.0
1865,40.0,2.0,30.0,1.0,0.0
1866,63.0,21.0,210.0,0.0,0.0
1867,57.0,0.0,30.0,0.0,0.0
1868,42.0,30.0,30.0,1.0,0.0
1869,59.0,30.0,30.0,0.0,0.0
1870,44.0,0.0,30.0,1.0,0.0
1871,57.0,1.0,30.0,0.0,0.0
1872,42.0,29.0,30.0,1.0,0.0
1873,44.0,5.0,30.0,1.0,0.0
1874,59.0,25.0,30.0,0.0,0.0
1875,45.0,31.0,30.0,1.0,0.0
1876,60.0,0.0,30.0,0.0,0.0
1877,59.0,29.0,30.0,0.0,0.0
1878,44.0,0.0,30.0,1.0,0.0
1879,45.0,10.0,30.0,1.0,0.0
1880,60.0,0.0,30.0,0.0,0.0
1881,57.0,15.0,30.0,0.0,0.0
1882,42.0,1.0,30.0,1.0,0.0
1883,64.0,12.0,15.0,0.0,0.0
1884,44.0,17.0,30.0,1.0,0.0
1885,59.0,1.0,30.0,0.0,0.0
1886,62.0,1.0,15.0,0.0,0.0
1887,45.0,0.0,30.0,1.0,0.0
1888,64.0,11.0,15.0,0.0,0.0
1889,57.0,17.0,30.0,0.0,0.0
1890,62.0,2.0,15.0,0.0,0.0
1891,64.0,10.0,15.0,0.0,0.0
1892,59.0,15.0,30.0,0.0,0.0
1893,44.0,1.0,30.0,1.0,0.0
1894,62.0,2.0,15.0,0.0,0.0
1895,45.0,16.0,30.0,1.0,0.0
1896,64.0,13.0,15.0,0.0,0.0
1897,57.0,1.0,30.0,0.0,0.0
1898,62.0,0.0,15.0,0.0,0.0
1899,47.0,1.0,30.0,1.0,0.0
1900,64.0,13.0,15.0,0.0,0.0
1901,56.0,3.0,30.0,0.0,0.0
1902,62.0,11.0,15.0,0.0,0.0
1903,64.0,16.0,15.0,0.0,0.0
1904,57.0,1.0,30.0,0.0,0.0
1905,45.0,27.0,30.0,1.0,0.0
1906,62.0,0.0,15.0,0.0,0.0
1907,56.0,2.0,30.0,0.0,0.0
1908,47.0,26.0,30.0,1.0,0.0
1909,61.0,2.0,30.0,0.0,0.0
1910,44.0,1.0,30.0,1.0,0.0
1911,62.0,3.0,30.0,0.0,0.0
1912,59.0,27.0,30.0,0.0,0.0
1913,61.0,2.0,30.0,0.0,0.0
1914,57.0,29.0,30.0,0.0,0.0
1915,45.0,0.0,120.0,1.0,0.0
1916,59.0,0.0,30.0,0.0,0.0
1917,62.0,24.0,30.0,0.0,0.0
1918,57.0,0.0,30.0,0.0,0.0
1919,61.0,30.0,30.0,0.0,0.0
1920,59.0,28.0,30.0,0.0,0.0
1921,62.0,1.0,30.0,0.0,0.0
1922,64.0,31.0,30.0,0.0,0.0
1923,61.0,0.0,30.0,0.0,0.0
1924,59.0,0.0,30.0,0.0,0.0
1925,62.0,28.0,30.0,0.0,0.0
1926,64.0,3.0,30.0,0.0,0.0
1927,61.0,31.0,30.0,0.0,0.0
1928,61.0,3.0,30.0,0.0,0.0
1929,57.0,25.0,30.0,0.0,0.0
1930,47.0,17.0,900.0,1.0,0.0
1931,51.0,30.0,30.0,1.0,0.0
1932,59.0,1.0,30.0,0.0,0.0
1933,71.0,3.0,900.0,0.0,0.0
1934,61.0,2.0,30.0,0.0,0.0
1935,52.0,28.0,30.0,1.0,0.0
1936,51.0,28.0,30.0,1.0,0.0
1937,59.0,0.0,30.0,0.0,0.0
1938,52.0,1.0,30.0,1.0,0.0
1939,61.0,29.0,30.0,0.0,0.0
1940,54.0,31.0,30.0,1.0,0.0
1941,63.0,1.0,30.0,0.0,0.0
1942,52.0,3.0,30.0,1.0,0.0
1943,61.0,27.0,30.0,0.0,0.0
1944,54.0,28.0,30.0,1.0,0.0
1945,63.0,1.0,30.0,0.0,0.0
1946,51.0,3.0,30.0,1.0,0.0
1947,59.0,27.0,30.0,0.0,0.0
1948,70.0,12.0,240.0,0.0,0.0
1949,52.0,29.0,30.0,1.0,0.0
1950,61.0,1.0,30.0,0.0,0.0
1951,54.0,30.0,30.0,1.0,0.0
1952,63.0,0.0,30.0,0.0,0.0
1953,61.0,0.0,30.0,0.0,0.0
1954,52.0,30.0,30.0,1.0,0.0
1955,63.0,28.0,30.0,0.0,0.0
1956,54.0,2.0,30.0,1.0,0.0
1957,64.0,0.0,30.0,0.0,0.0
1958,55.0,30.0,30.0,1.0,0.0
1959,54.0,1.0,30.0,1.0,0.0
1960,63.0,30.0,30.0,0.0,0.0
1961,64.0,3.0,30.0,0.0,0.0
1962,55.0,15.0,30.0,1.0,0.0
1963,52.0,1.0,30.0,1.0,0.0
1964,61.0,28.0,30.0,0.0,0.0
1965,69.0,11.0,180.0,0.0,0.0
1966,54.0,30.0,30.0,1.0,0.0
1967,63.0,0.0,30.0,0.0,0.0
1968,56.0,2.0,30.0,1.0,0.0
1969,64.0,28.0,30.0,0.0,0.0
1970,63.0,3.0,30.0,0.0,0.0
1971,54.0,27.0,30.0,1.0,0.0
1972,56.0,2.0,30.0,1.0,0.0
1973,64.0,28.0,30.0,0.0,0.0
1974,66.0,19.0,30.0,0.0,0.0
1975,57.0,0.0,30.0,1.0,0.0
1976,56.0,2.0,30.0,1.0,0.0
1977,64.0,28.0,30.0,0.0,0.0
1978,57.0,1.0,30.0,1.0,0.0
1979,68.0,3.0,30.0,0.0,0.0
1980,66.0,27.0,30.0,0.0,0.0
1981,54.0,1.0,30.0,1.0,0.0
1982,69.0,1.0,30.0,0.0,0.0
1983,63.0,26.0,30.0,0.0,0.0
1984,67.0,3.0,120.0,0.0,0.0
1985,64.0,28.0,30.0,0.0,0.0
1986,55.0,2.0,30.0,1.0,0.0
1987,66.0,28.0,30.0,0.0,0.0
1988,57.0,2.0,30.0,1.0,0.0
1989,64.0,26.0,30.0,0.0,0.0
1990,55.0,1.0,30.0,1.0,0.0
1991,57.0,3.0,30.0,1.0,0.0
1992,66.0,27.0,30.0,0.0,0.0
1993,59.0,2.0,30.0,1.0,0.0
1994,67.0,29.0,30.0,0.0,0.0
1995,57.0,0.0,30.0,1.0,0.0
1996,66.0,11.0,30.0,0.0,0.0
1997,59.0,24.0,30.0,1.0,0.0
1998,67.0,0.0,30.0,0.0,0.0
1999,64.0,34.0,30.0,0.0,0.0
2000,55.0,2.0,20.0,1.0,0.0
2001,59.0,28.0,30.0,0.0,0.0
2002,65.0,4.0,210.0,0.0,0.0
2003,67.0,4.0,450.0,0.0,0.0
2004,74.0,8.0,240.0,0.0,0.0
2005,55.0,1.0,30.0,1.0,0.0
2006,57.0,0.0,30.0,1.0,0.0
2007,60.0,29.0,30.0,0.0,0.0
2008,59.0,30.0,30.0,0.0,0.0
2009,55.0,1.0,30.0,1.0,0.0
2010,60.0,0.0,30.0,0.0,0.0
2011,57.0,28.0,30.0,1.0,0.0
2012,62.0,1.0,30.0,0.0,0.0
2013,59.0,29.0,30.0,1.0,0.0
2014,57.0,2.0,30.0,1.0,0.0
2015,60.0,16.0,30.0,0.0,0.0
2016,59.0,3.0,30.0,1.0,0.0
2017,43.0,12.0,15.0,1.0,0.0
2018,62.0,14.0,30.0,0.0,0.0
2019,59.0,30.0,30.0,0.0,0.0
2020,55.0,2.0,30.0,1.0,0.0
2021,43.0,1.0,30.0,1.0,0.0
2022,72.0,30.0,30.0,0.0,0.0
2023,60.0,4.0,120.0,1.0,0.0
2024,64.0,30.0,60.0,0.0,0.0
2025,48.0,0.0,120.0,1.0,0.0
2026,76.0,0.0,30.0,0.0,0.0
2027,74.0,30.0,30.0,0.0,0.0
2028,65.0,0.0,30.0,0.0,0.0
2029,64.0,23.0,30.0,0.0,0.0
2030,72.0,4.0,30.0,0.0,0.0
2031,71.0,24.0,30.0,0.0,0.0
2032,62.0,2.0,30.0,0.0,0.0
2033,74.0,14.0,30.0,0.0,0.0
2034,65.0,6.0,30.0,0.0,0.0
2035,43.0,4.0,15.0,1.0,0.0
2036,72.0,2.0,30.0,0.0,0.0
2037,64.0,25.0,30.0,0.0,0.0
2038,55.0,3.0,20.0,1.0,0.0
2039,55.0,4.0,20.0,1.0,0.0
2040,43.0,1.0,30.0,1.0,0.0
2041,62.0,3.0,30.0,0.0,0.0
2042,71.0,26.0,30.0,0.0,0.0
2043,72.0,31.0,30.0,0.0,0.0
2044,48.0,19.0,120.0,1.0,0.0
2045,60.0,3.0,120.0,1.0,0.0
2046,64.0,29.0,60.0,0.0,0.0
2047,67.0,0.0,450.0,0.0,0.0
2048,76.0,1.0,30.0,0.0,0.0
2049,65.0,30.0,30.0,0.0,0.0
2050,74.0,0.0,30.0,0.0,0.0
2051,72.0,5.0,30.0,0.0,0.0
2052,64.0,4.0,30.0,0.0,0.0
2053,71.0,25.0,30.0,0.0,0.0
2054,62.0,1.0,30.0,0.0,0.0
2055,74.0,20.0,30.0,0.0,0.0
2056,65.0,4.0,30.0,0.0,0.0
2057,43.0,1.0,20.0,1.0,0.0
2058,55.0,8.0,20.0,1.0,0.0
2059,64.0,23.0,30.0,0.0,0.0
2060,72.0,1.0,30.0,0.0,0.0
2061,71.0,28.0,30.0,0.0,0.0
2062,62.0,4.0,30.0,0.0,0.0
2063,43.0,2.0,30.0,1.0,0.0
2064,55.0,4.0,20.0,1.0,0.0
2065,64.0,28.0,30.0,0.0,0.0
2066,72.0,1.0,60.0,0.0,0.0
2067,60.0,10.0,240.0,1.0,0.0
2068,48.0,2.0,240.0,1.0,0.0
2069,63.0,30.0,30.0,0.0,0.0
2070,71.0,5.0,120.0,0.0,0.0
2071,64.0,29.0,30.0,0.0,0.0
2072,63.0,31.0,30.0,0.0,0.0
2073,64.0,24.0,30.0,0.0,0.0
2074,63.0,34.0,30.0,0.0,0.0
2075,70.0,4.0,60.0,0.0,0.0
2076,64.0,13.0,30.0,0.0,0.0
2077,63.0,26.0,30.0,0.0,0.0
2078,68.0,51.0,120.0,0.0,0.0
2079,71.0,4.0,120.0,0.0,0.0
2080,64.0,0.0,120.0,0.0,0.0
2081,59.0,1.0,30.0,1.0,0.0
2082,47.0,25.0,30.0,1.0,0.0
2083,58.0,4.0,20.0,1.0,0.0
2084,46.0,31.0,30.0,1.0,0.0
2085,59.0,28.0,30.0,1.0,0.0
2086,47.0,2.0,30.0,1.0,0.0
2087,46.0,2.0,30.0,1.0,0.0
2088,58.0,3.0,30.0,1.0,0.0
2089,59.0,3.0,120.0,1.0,0.0
2090,47.0,1.0,120.0,1.0,0.0
2091,68.0,2.0,30.0,0.0,0.0
2092,64.0,26.0,30.0,0.0,0.0
2093,69.0,4.0,30.0,0.0,0.0
2094,66.0,26.0,30.0,0.0,0.0
2095,68.0,11.0,30.0,0.0,0.0
2096,71.0,0.0,30.0,0.0,0.0
2097,71.0,19.0,15.0,0.0,0.0
2098,74.0,1.0,15.0,0.0,0.0
2099,73.0,3.0,15.0,0.0,0.0
2100,69.0,24.0,20.0,0.0,0.0
2101,71.0,27.0,30.0,0.0,0.0
2102,68.0,4.0,30.0,0.0,0.0
2103,69.0,0.0,30.0,0.0,0.0
2104,73.0,28.0,30.0,0.0,0.0
2105,75.0,30.0,30.0,0.0,0.0
2106,71.0,1.0,30.0,0.0,0.0
2107,76.0,4.0,30.0,0.0,0.0
2108,73.0,26.0,30.0,0.0,0.0
2109,68.0,28.0,30.0,0.0,0.0
2110,72.0,1.0,30.0,0.0,0.0
2111,73.0,27.0,30.0,0.0,0.0
2112,69.0,1.0,30.0,0.0,0.0
2113,69.0,3.0,30.0,0.0,0.0
2114,66.0,16.0,30.0,0.0,0.0
2115,68.0,0.0,15.0,0.0,0.0
2116,64.0,12.0,15.0,0.0,0.0
2117,47.0,1.0,450.0,1.0,0.0
2118,63.0,15.0,15.0,0.0,0.0
2119,66.0,2.0,15.0,0.0,0.0
2120,68.0,14.0,15.0,0.0,0.0
2121,49.0,12.0,30.0,1.0,0.0
2122,64.0,0.0,15.0,0.0,0.0
2123,63.0,1.0,15.0,0.0,0.0
2124,66.0,1.0,15.0,0.0,0.0
2125,68.0,12.0,15.0,0.0,0.0
2126,64.0,3.0,15.0,0.0,0.0
2127,51.0,0.0,30.0,1.0,0.0
2128,66.0,14.0,15.0,0.0,0.0
2129,63.0,2.0,15.0,0.0,0.0
2130,68.0,12.0,15.0,0.0,0.0
2131,64.0,2.0,15.0,0.0,0.0
2132,52.0,2.0,30.0,1.0,0.0
2133,63.0,1.0,15.0,0.0,0.0
2134,66.0,12.0,15.0,0.0,0.0
2135,68.0,12.0,15.0,0.0,0.0
2136,64.0,3.0,15.0,0.0,0.0
2137,54.0,0.0,30.0,1.0,0.0
2138,63.0,16.0,15.0,0.0,0.0
2139,66.0,1.0,15.0,0.0,0.0
2140,56.0,14.0,30.0,1.0,0.0
2141,64.0,1.0,15.0,0.0,0.0
2142,68.0,13.0,15.0,0.0,0.0
2143,66.0,0.0,15.0,0.0,0.0
2144,63.0,1.0,15.0,0.0,0.0
2145,68.0,14.0,15.0,0.0,0.0
2146,57.0,12.0,30.0,1.0,0.0
2147,64.0,1.0,15.0,0.0,0.0
2148,66.0,5.0,15.0,0.0,0.0
2149,63.0,0.0,15.0,0.0,0.0
2150,64.0,1.0,15.0,0.0,0.0
2151,68.0,12.0,15.0,0.0,0.0
2152,58.0,2.0,30.0,1.0,0.0
2153,66.0,0.0,15.0,0.0,0.0
2154,63.0,13.0,15.0,0.0,0.0
2155,64.0,2.0,15.0,0.0,0.0
2156,59.0,11.0,30.0,1.0,0.0
2157,68.0,13.0,15.0,0.0,0.0
2158,63.0,1.0,15.0,0.0,0.0
2159,66.0,3.0,15.0,0.0,0.0
2160,64.0,14.0,15.0,0.0,0.0
2161,58.0,1.0,30.0,1.0,0.0
2162,68.0,1.0,15.0,0.0,0.0
2163,63.0,1.0,15.0,0.0,0.0
2164,66.0,13.0,15.0,0.0,0.0
2165,59.0,0.0,30.0,1.0,0.0
2166,68.0,12.0,15.0,0.0,0.0
2167,64.0,3.0,15.0,0.0,0.0
2168,66.0,1.0,15.0,0.0,0.0
2169,63.0,15.0,15.0,0.0,0.0
2170,61.0,0.0,30.0,1.0,0.0
2171,64.0,2.0,15.0,0.0,0.0
2172,68.0,11.0,15.0,0.0,0.0
2173,66.0,14.0,15.0,0.0,0.0
2174,63.0,2.0,15.0,0.0,0.0
2175,64.0,4.0,15.0,0.0,0.0
2176,59.0,0.0,30.0,1.0,0.0
2177,68.0,12.0,15.0,0.0,0.0
2178,66.0,13.0,15.0,0.0,0.0
2179,63.0,1.0,15.0,0.0,0.0
2180,61.0,12.0,30.0,1.0,0.0
2181,68.0,2.0,15.0,0.0,0.0
2182,64.0,13.0,15.0,0.0,0.0
2183,66.0,2.0,15.0,0.0,0.0
2184,63.0,1.0,15.0,0.0,0.0
2185,68.0,11.0,15.0,0.0,0.0
2186,64.0,2.0,15.0,0.0,0.0
2187,57.0,0.0,30.0,1.0,0.0
2188,66.0,17.0,15.0,0.0,0.0
2189,63.0,1.0,15.0,0.0,0.0
2190,59.0,1.0,30.0,1.0,0.0
2191,64.0,2.0,15.0,0.0,0.0
2192,63.0,28.0,15.0,0.0,0.0
2193,66.0,2.0,15.0,0.0,0.0
2194,64.0,31.0,30.0,0.0,0.0
2195,56.0,1.0,60.0,1.0,0.0
2196,52.0,19.0,60.0,1.0,0.0
2197,68.0,10.0,30.0,0.0,0.0
2198,71.0,22.0,30.0,0.0,0.0
2199,76.0,17.0,20.0,0.0,0.0
2200,52.0,1.0,90.0,1.0,0.0
2201,49.0,3.0,90.0,1.0,0.0
2202,56.0,0.0,90.0,1.0,0.0
2203,63.0,20.0,15.0,0.0,0.0
2204,61.0,33.0,30.0,0.0,0.0
2205,64.0,23.0,30.0,0.0,0.0
2206,68.0,20.0,30.0,0.0,0.0
2207,73.0,39.0,20.0,0.0,0.0
2208,45.0,1.0,90.0,1.0,0.0
2209,52.0,1.0,90.0,1.0,0.0
2210,54.0,12.0,90.0,1.0,0.0
2211,57.0,37.0,30.0,0.0,0.0
2212,61.0,11.0,30.0,0.0,0.0
2213,66.0,27.0,30.0,0.0,0.0
2214,69.0,33.0,30.0,0.0,0.0
2215,54.0,1.0,60.0,1.0,0.0
2216,59.0,30.0,30.0,0.0,0.0
2217,51.0,17.0,60.0,1.0,0.0
2218,47.0,0.0,60.0,1.0,0.0
2219,63.0,11.0,30.0,0.0,0.0
2220,66.0,29.0,30.0,0.0,0.0
2221,71.0,31.0,30.0,0.0,0.0
2222,64.0,2.0,60.0,0.0,0.0
2223,68.0,23.0,60.0,0.0,0.0
2224,52.0,28.0,30.0,1.0,0.0
2225,56.0,4.0,30.0,1.0,0.0
2226,59.0,29.0,30.0,1.0,0.0
2227,64.0,36.0,30.0,1.0,0.0
2228,49.0,28.0,30.0,1.0,0.0
2229,68.0,1.0,60.0,0.0,0.0
2230,76.0,25.0,60.0,0.0,0.0
2231,52.0,5.0,30.0,1.0,0.0
2232,56.0,25.0,30.0,1.0,0.0
2233,61.0,33.0,30.0,1.0,0.0
2234,45.0,32.0,30.0,1.0,0.0
2235,73.0,2.0,60.0,0.0,0.0
2236,76.0,0.0,60.0,0.0,0.0
2237,66.0,15.0,60.0,0.0,0.0
2238,49.0,10.0,30.0,1.0,0.0
2239,54.0,29.0,30.0,1.0,0.0
2240,57.0,33.0,30.0,1.0,0.0
2241,47.0,33.0,30.0,1.0,0.0
2242,71.0,1.0,90.0,0.0,0.0
2243,75.0,4.0,90.0,0.0,0.0
2244,66.0,2.0,90.0,0.0,0.0
2245,69.0,1.0,90.0,0.0,0.0
2246,51.0,17.0,30.0,1.0,0.0
2247,54.0,32.0,30.0,1.0,0.0
2248,59.0,125.0,30.0,1.0,0.0
2249,52.0,69.0,120.0,1.0,0.0
2250,40.0,0.0,120.0,1.0,0.0
2251,64.0,0.0,120.0,0.0,0.0
2252,59.0,1.0,120.0,0.0,0.0
2253,55.0,3.0,120.0,1.0,0.0
2254,59.0,1.0,15.0,0.0,0.0
2255,55.0,2.0,20.0,1.0,0.0
2256,52.0,0.0,15.0,1.0,0.0
2257,64.0,28.0,20.0,0.0,0.0
2258,64.0,130.0,20.0,0.0,0.0
2259,55.0,5.0,20.0,1.0,0.0
2260,59.0,0.0,20.0,0.0,0.0
2261,52.0,1.0,20.0,1.0,0.0
2262,66.0,3.0,120.0,0.0,0.0
2263,59.0,64.0,120.0,1.0,0.0
2264,50.0,4.0,120.0,1.0,0.0
2265,71.0,0.0,120.0,0.0,0.0
2266,50.0,4.0,15.0,1.0,0.0
2267,59.0,0.0,20.0,1.0,0.0
2268,71.0,1.0,20.0,0.0,0.0
2269,66.0,29.0,20.0,0.0,0.0
2270,66.0,2.0,20.0,0.0,0.0
2271,50.0,131.0,20.0,1.0,0.0
2272,59.0,0.0,20.0,1.0,0.0
2273,71.0,3.0,20.0,0.0,0.0
2274,67.0,5.0,120.0,0.0,0.0
2275,76.0,8.0,120.0,0.0,0.0
2276,49.0,1.0,150.0,1.0,0.0
2277,58.0,55.0,150.0,1.0,0.0
2278,73.0,1.0,20.0,0.0,0.0
2279,66.0,26.0,20.0,0.0,0.0
2280,46.0,1.0,15.0,1.0,0.0
2281,64.0,2.0,15.0,1.0,0.0
2282,61.0,0.0,15.0,1.0,0.0
2283,58.0,2.0,15.0,1.0,0.0
2284,61.0,2.0,15.0,1.0,0.0
2285,64.0,132.0,20.0,1.0,0.0
2286,58.0,0.0,15.0,1.0,0.0
2287,46.0,1.0,15.0,1.0,0.0
2288,66.0,0.0,15.0,0.0,0.0
2289,73.0,1.0,20.0,0.0,0.0
2290,62.0,0.0,120.0,1.0,0.0
2291,74.0,1.0,120.0,0.0,0.0
2292,66.0,3.0,120.0,0.0,0.0
2293,59.0,3.0,120.0,1.0,0.0
2294,47.0,67.0,120.0,1.0,0.0
2295,70.0,0.0,20.0,0.0,0.0
2296,64.0,8.0,20.0,0.0,0.0
2297,42.0,3.0,15.0,1.0,0.0
2298,61.0,0.0,15.0,1.0,0.0
2299,54.0,2.0,15.0,1.0,0.0
2300,64.0,4.0,20.0,0.0,0.0
2301,70.0,63.0,20.0,0.0,0.0
2302,55.0,12.0,120.0,1.0,0.0
2303,59.0,2.0,120.0,1.0,0.0
2304,43.0,0.0,120.0,1.0,0.0
2305,62.0,36.0,150.0,0.0,0.0
2306,71.0,65.0,60.0,0.0,0.0
2307,73.0,7.0,60.0,0.0,0.0
2308,74.0,47.0,60.0,0.0,0.0
2309,50.0,0.0,60.0,1.0,0.0
2310,66.0,119.0,60.0,0.0,0.0
2311,59.0,10.0,60.0,0.0,0.0
2312,67.0,4.0,120.0,0.0,0.0
2313,59.0,1.0,120.0,0.0,0.0
2314,52.0,95.0,120.0,1.0,0.0
2315,71.0,4.0,240.0,0.0,0.0
2316,66.0,13.0,90.0,0.0,0.0
2317,50.0,3.0,120.0,1.0,0.0
2318,59.0,25.0,120.0,1.0,0.0
2319,66.0,12.0,15.0,0.0,0.0
2320,49.0,3.0,120.0,1.0,0.0
2321,61.0,3.0,240.0,1.0,0.0
2322,64.0,16.0,15.0,0.0,0.0
2323,66.0,17.0,15.0,0.0,0.0
2324,64.0,16.0,15.0,0.0,0.0
2325,66.0,14.0,15.0,0.0,0.0
2326,64.0,11.0,15.0,0.0,0.0
2327,62.0,8.0,15.0,0.0,0.0
2328,64.0,56.0,15.0,0.0,0.0
2329,70.0,3.0,120.0,0.0,0.0
2330,66.0,58.0,60.0,0.0,0.0
2331,42.0,2.0,120.0,1.0,0.0
2332,64.0,119.0,60.0,0.0,0.0
2333,47.0,1.0,120.0,1.0,0.0
2334,59.0,4.0,120.0,1.0,0.0
2335,62.0,2.0,120.0,0.0,0.0
2336,71.0,51.0,120.0,0.0,0.0
2337,62.0,3.0,30.0,0.0,0.0
2338,66.0,30.0,30.0,0.0,0.0
2339,64.0,24.0,30.0,0.0,0.0
2340,68.0,3.0,30.0,0.0,0.0
2341,66.0,31.0,30.0,0.0,0.0
2342,70.0,3.0,30.0,0.0,0.0
2343,68.0,0.0,30.0,0.0,0.0
2344,71.0,29.0,30.0,0.0,0.0
2345,73.0,28.0,30.0,0.0,0.0
2346,70.0,0.0,30.0,0.0,0.0
2347,74.0,4.0,30.0,0.0,0.0
2348,71.0,29.0,30.0,0.0,0.0
2349,76.0,1.0,30.0,0.0,0.0
2350,73.0,51.0,30.0,0.0,0.0
2351,74.0,21.0,180.0,0.0,0.0
2352,78.0,2.0,180.0,0.0,0.0
2353,59.0,6.0,20.0,1.0,0.0
2354,62.0,28.0,30.0,1.0,0.0
2355,64.0,26.0,30.0,1.0,0.0
2356,61.0,1.0,30.0,1.0,0.0
2357,62.0,28.0,30.0,1.0,0.0
2358,66.0,5.0,20.0,1.0,0.0
2359,68.0,6.0,30.0,1.0,0.0
2360,64.0,21.0,30.0,1.0,0.0
2361,66.0,2.0,30.0,1.0,0.0
2362,62.0,0.0,30.0,1.0,0.0
2363,73.0,0.0,60.0,0.0,0.0
2364,76.0,3.0,60.0,0.0,0.0
2365,64.0,1.0,20.0,1.0,0.0
2366,68.0,38.0,20.0,1.0,0.0
2367,70.0,58.0,30.0,1.0,0.0
2368,66.0,1.0,30.0,1.0,0.0
2369,71.0,4.0,240.0,0.0,0.0
2370,74.0,22.0,90.0,0.0,0.0
2371,55.0,31.0,30.0,1.0,0.0
2372,54.0,8.0,30.0,1.0,0.0
2373,55.0,14.0,30.0,1.0,0.0
2374,52.0,17.0,30.0,1.0,0.0
2375,74.0,14.0,15.0,0.0,0.0
2376,73.0,1.0,15.0,0.0,0.0
2377,50.0,1.0,30.0,1.0,0.0
2378,74.0,13.0,15.0,0.0,0.0
2379,73.0,15.0,15.0,0.0,0.0
2380,52.0,14.0,30.0,1.0,0.0
2381,74.0,14.0,15.0,0.0,0.0
2382,73.0,3.0,15.0,0.0,0.0
2383,74.0,4.0,15.0,0.0,0.0
2384,49.0,6.0,20.0,1.0,0.0
2385,73.0,15.0,15.0,0.0,0.0
2386,74.0,15.0,15.0,0.0,0.0
2387,69.0,8.0,240.0,0.0,0.0
2388,73.0,18.0,15.0,0.0,0.0
2389,74.0,10.0,20.0,0.0,0.0
2390,54.0,1.0,30.0,1.0,0.0
2391,73.0,17.0,15.0,0.0,0.0
2392,52.0,15.0,30.0,1.0,0.0
2393,74.0,13.0,15.0,0.0,0.0
2394,73.0,0.0,15.0,0.0,0.0
2395,71.0,8.0,15.0,0.0,0.0
2396,54.0,29.0,30.0,1.0,0.0
2397,73.0,6.0,15.0,0.0,0.0
2398,71.0,62.0,120.0,0.0,0.0
2399,51.0,33.0,30.0,1.0,0.0
2400,49.0,31.0,30.0,1.0,0.0
2401,51.0,17.0,30.0,1.0,0.0
2402,47.0,2.0,30.0,1.0,0.0
2403,67.0,17.0,90.0,0.0,0.0
2404,76.0,4.0,240.0,0.0,0.0
2405,60.0,30.0,30.0,1.0,0.0
2406,59.0,12.0,30.0,1.0,0.0
2407,60.0,16.0,30.0,1.0,0.0
2408,67.0,14.0,15.0,0.0,0.0
2409,57.0,0.0,30.0,1.0,0.0
2410,66.0,17.0,15.0,0.0,0.0
2411,55.0,19.0,30.0,1.0,0.0
2412,67.0,12.0,15.0,0.0,0.0
2413,66.0,0.0,15.0,0.0,0.0
2414,57.0,10.0,30.0,1.0,0.0
2415,67.0,11.0,15.0,0.0,0.0
2416,66.0,6.0,15.0,0.0,0.0
2417,67.0,8.0,15.0,0.0,0.0
2418,54.0,2.0,30.0,1.0,0.0
2419,66.0,16.0,15.0,0.0,0.0
2420,74.0,2.0,240.0,0.0,0.0
2421,67.0,15.0,15.0,0.0,0.0
2422,66.0,13.0,15.0,0.0,0.0
2423,67.0,17.0,15.0,0.0,0.0
2424,59.0,1.0,30.0,1.0,0.0
2425,66.0,17.0,15.0,0.0,0.0
2426,67.0,10.0,15.0,0.0,0.0
2427,57.0,2.0,30.0,1.0,0.0
2428,66.0,17.0,15.0,0.0,0.0
2429,59.0,30.0,30.0,1.0,0.0
2430,64.0,11.0,15.0,0.0,0.0
2431,66.0,2.0,15.0,0.0,0.0
2432,56.0,31.0,30.0,1.0,0.0
2433,64.0,16.0,90.0,0.0,0.0
2434,54.0,32.0,30.0,1.0,0.0
2435,56.0,5.0,30.0,1.0,0.0
2436,52.0,63.0,30.0,1.0,0.0
2437,69.0,3.0,240.0,0.0,0.0
2438,73.0,15.0,90.0,0.0,0.0
2439,54.0,28.0,30.0,1.0,0.0
2440,52.0,18.0,30.0,1.0,0.0
2441,54.0,14.0,30.0,1.0,0.0
2442,50.0,2.0,30.0,1.0,0.0
2443,73.0,16.0,15.0,0.0,0.0
2444,71.0,18.0,15.0,0.0,0.0
2445,49.0,1.0,30.0,1.0,0.0
2446,73.0,9.0,20.0,0.0,0.0
2447,71.0,18.0,15.0,0.0,0.0
2448,50.0,15.0,30.0,1.0,0.0
2449,73.0,12.0,15.0,0.0,0.0
2450,71.0,2.0,15.0,0.0,0.0
2451,73.0,10.0,15.0,0.0,0.0
2452,47.0,1.0,30.0,1.0,0.0
2453,71.0,17.0,15.0,0.0,0.0
2454,73.0,12.0,15.0,0.0,0.0
2455,67.0,7.0,240.0,0.0,0.0
2456,71.0,17.0,15.0,0.0,0.0
2457,52.0,2.0,30.0,1.0,0.0
2458,73.0,13.0,15.0,0.0,0.0
2459,71.0,17.0,15.0,0.0,0.0
2460,50.0,1.0,30.0,1.0,0.0
2461,73.0,10.0,20.0,0.0,0.0
2462,71.0,16.0,15.0,0.0,0.0
2463,52.0,28.0,30.0,1.0,0.0
2464,69.0,12.0,15.0,0.0,0.0
2465,71.0,2.0,15.0,0.0,0.0
2466,49.0,31.0,30.0,1.0,0.0
2467,69.0,52.0,120.0,0.0,0.0
2468,47.0,36.0,30.0,1.0,0.0
2469,49.0,18.0,30.0,1.0,0.0
2470,45.0,5.0,20.0,1.0,0.0
2471,66.0,18.0,90.0,0.0,0.0
2472,74.0,12.0,210.0,0.0,0.0
2473,59.0,30.0,30.0,1.0,0.0
2474,57.0,17.0,30.0,1.0,0.0
2475,59.0,27.0,30.0,1.0,0.0
2476,55.0,31.0,30.0,1.0,0.0
2477,64.0,22.0,210.0,0.0,0.0
2478,54.0,30.0,30.0,1.0,0.0
2479,55.0,13.0,30.0,1.0,0.0
2480,52.0,66.0,20.0,1.0,0.0
2481,73.0,3.0,210.0,0.0,0.0
2482,57.0,27.0,30.0,1.0,0.0
2483,55.0,10.0,30.0,1.0,0.0
2484,57.0,28.0,30.0,1.0,0.0
2485,54.0,30.0,30.0,1.0,0.0
2486,62.0,1.0,180.0,0.0,0.0
2487,52.0,1.0,30.0,1.0,0.0
2488,78.0,31.0,30.0,0.0,0.0
2489,76.0,1.0,30.0,0.0,0.0
2490,54.0,14.0,30.0,1.0,0.0
2491,78.0,25.0,30.0,0.0,0.0
2492,50.0,18.0,15.0,1.0,0.0
2493,71.0,17.0,60.0,0.0,0.0
2494,74.0,28.0,30.0,0.0,0.0
2495,55.0,0.0,30.0,1.0,0.0
2496,73.0,6.0,30.0,0.0,0.0
2497,59.0,3.0,30.0,1.0,0.0
2498,54.0,2.0,30.0,1.0,0.0
2499,74.0,27.0,30.0,0.0,0.0
2500,57.0,2.0,30.0,1.0,0.0
2501,71.0,1.0,30.0,0.0,0.0
2502,55.0,2.0,30.0,1.0,0.0
2503,59.0,28.0,30.0,1.0,0.0
2504,55.0,28.0,30.0,1.0,0.0
2505,52.0,1.0,30.0,1.0,0.0
2506,73.0,1.0,30.0,0.0,0.0
2507,50.0,24.0,30.0,1.0,0.0
2508,76.0,0.0,30.0,0.0,0.0
2509,54.0,1.0,30.0,1.0,0.0
2510,71.0,25.0,30.0,0.0,0.0
2511,55.0,0.0,30.0,1.0,0.0
2512,52.0,7.0,20.0,1.0,0.0
2513,74.0,0.0,30.0,0.0,0.0
2514,73.0,2.0,30.0,0.0,0.0
2515,76.0,28.0,30.0,0.0,0.0
2516,49.0,3.0,20.0,1.0,0.0
2517,52.0,2.0,30.0,1.0,0.0
2518,73.0,2.0,30.0,0.0,0.0
2519,70.0,26.0,30.0,0.0,0.0
2520,54.0,1.0,30.0,1.0,0.0
2521,71.0,1.0,30.0,0.0,0.0
2522,68.0,24.0,30.0,0.0,0.0
2523,58.0,3.0,30.0,1.0,0.0
2524,52.0,3.0,30.0,1.0,0.0
2525,56.0,1.0,30.0,1.0,0.0
2526,73.0,1.0,30.0,0.0,0.0
2527,66.0,1.0,20.0,0.0,0.0
2528,54.0,2.0,30.0,1.0,0.0
2529,58.0,30.0,30.0,1.0,0.0
2530,70.0,22.0,15.0,0.0,0.0
2531,50.0,1.0,30.0,1.0,0.0
2532,54.0,20.0,30.0,1.0,0.0
2533,49.0,0.0,30.0,1.0,0.0
2534,52.0,9.0,20.0,1.0,0.0
2535,74.0,24.0,30.0,0.0,0.0
2536,71.0,1.0,30.0,0.0,0.0
2537,50.0,5.0,20.0,1.0,0.0
2538,73.0,1.0,30.0,0.0,0.0
2539,69.0,0.0,30.0,0.0,0.0
2540,54.0,26.0,30.0,1.0,0.0
2541,50.0,3.0,30.0,1.0,0.0
2542,47.0,1.0,30.0,1.0,0.0
2543,74.0,24.0,30.0,0.0,0.0
2544,71.0,3.0,15.0,0.0,0.0
2545,68.0,26.0,30.0,0.0,0.0
2546,66.0,1.0,30.0,0.0,0.0
2547,69.0,29.0,30.0,0.0,0.0
2548,52.0,2.0,30.0,1.0,0.0
2549,56.0,0.0,30.0,1.0,0.0
2550,54.0,1.0,30.0,1.0,0.0
2551,50.0,0.0,30.0,1.0,0.0
2552,71.0,3.0,30.0,0.0,0.0
2553,56.0,30.0,30.0,1.0,0.0
2554,52.0,27.0,60.0,1.0,0.0
2555,64.0,3.0,20.0,0.0,0.0
2556,68.0,16.0,15.0,0.0,0.0
2557,49.0,3.0,30.0,1.0,0.0
2558,47.0,0.0,30.0,1.0,0.0
2559,69.0,30.0,30.0,0.0,0.0
2560,73.0,1.0,30.0,0.0,0.0
2561,50.0,2.0,30.0,1.0,0.0
2562,71.0,1.0,30.0,0.0,0.0
2563,68.0,2.0,30.0,0.0,0.0
2564,52.0,20.0,30.0,1.0,0.0
2565,49.0,1.0,30.0,1.0,0.0
2566,49.0,6.0,30.0,1.0,0.0
2567,73.0,27.0,30.0,0.0,0.0
2568,45.0,3.0,20.0,1.0,0.0
2569,66.0,1.0,30.0,0.0,0.0
2570,69.0,1.0,15.0,0.0,0.0
2571,64.0,24.0,30.0,0.0,0.0
2572,50.0,2.0,30.0,1.0,0.0
2573,68.0,5.0,30.0,0.0,0.0
2574,54.0,2.0,30.0,1.0,0.0
2575,66.0,20.0,30.0,0.0,0.0
2576,69.0,1.0,30.0,0.0,0.0
2577,52.0,0.0,30.0,1.0,0.0
2578,49.0,0.0,30.0,1.0,0.0
2579,50.0,1.0,30.0,1.0,0.0
2580,54.0,10.0,20.0,1.0,0.0
2581,62.0,2.0,30.0,0.0,0.0
2582,66.0,27.0,30.0,0.0,0.0
2583,54.0,0.0,60.0,1.0,0.0
2584,71.0,30.0,30.0,0.0,0.0
2585,68.0,0.0,30.0,0.0,0.0
2586,59.0,1.0,60.0,1.0,0.0
2587,62.0,22.0,60.0,1.0,0.0
2588,47.0,0.0,60.0,1.0,0.0
2589,69.0,5.0,30.0,0.0,0.0
2590,66.0,2.0,30.0,0.0,0.0
2591,71.0,3.0,30.0,0.0,0.0
2592,65.0,29.0,30.0,0.0,0.0
2593,68.0,27.0,15.0,0.0,0.0
2594,63.0,3.0,90.0,1.0,0.0
2595,54.0,0.0,90.0,1.0,0.0
2596,48.0,1.0,90.0,1.0,0.0
2597,57.0,1.0,90.0,1.0,0.0
2598,66.0,23.0,30.0,0.0,0.0
2599,69.0,4.0,30.0,0.0,0.0
2600,65.0,5.0,30.0,0.0,0.0
2601,68.0,24.0,30.0,0.0,0.0
2602,69.0,0.0,30.0,0.0,0.0
2603,66.0,26.0,30.0,0.0,0.0
2604,66.0,61.0,30.0,0.0,0.0
2605,63.0,3.0,30.0,0.0,0.0
2606,61.0,4.0,120.0,0.0,0.0
2607,65.0,24.0,120.0,0.0,0.0
2608,49.0,30.0,30.0,1.0,0.0
2609,53.0,30.0,30.0,1.0,0.0
2610,56.0,1.0,30.0,1.0,0.0
2611,61.0,33.0,30.0,1.0,0.0
2612,57.0,2.0,30.0,1.0,0.0
2613,61.0,26.0,30.0,0.0,0.0
2614,65.0,7.0,60.0,0.0,0.0
2615,59.0,23.0,30.0,1.0,0.0
2616,56.0,31.0,30.0,1.0,0.0
2617,68.0,0.0,30.0,0.0,0.0
2618,57.0,2.0,60.0,1.0,0.0
2619,73.0,28.0,15.0,0.0,0.0
2620,69.0,28.0,30.0,0.0,0.0
2621,71.0,5.0,30.0,0.0,0.0
2622,75.0,23.0,30.0,0.0,0.0
2623,56.0,3.0,60.0,1.0,0.0
2624,68.0,25.0,30.0,0.0,0.0
2625,77.0,4.0,30.0,0.0,0.0
2626,54.0,3.0,90.0,1.0,0.0
2627,70.0,26.0,30.0,0.0,0.0
2628,78.0,2.0,30.0,0.0,0.0
2629,71.0,26.0,30.0,0.0,0.0
2630,62.0,1.0,30.0,1.0,0.0
2631,74.0,2.0,30.0,0.0,0.0
2632,68.0,1.0,30.0,0.0,0.0
2633,76.0,19.0,30.0,0.0,0.0
2634,61.0,0.0,30.0,1.0,0.0
2635,73.0,2.0,30.0,0.0,0.0
2636,70.0,59.0,30.0,0.0,0.0
2637,66.0,1.0,30.0,1.0,0.0
2638,58.0,9.0,15.0,1.0,0.0
2639,71.0,3.0,120.0,0.0,0.0
2640,74.0,2.0,120.0,0.0,0.0
2641,59.0,9.0,120.0,1.0,0.0
2642,47.0,32.0,30.0,1.0,0.0
2643,50.0,14.0,30.0,1.0,0.0
2644,54.0,29.0,30.0,1.0,0.0
2645,59.0,30.0,30.0,1.0,0.0
2646,56.0,5.0,30.0,1.0,0.0
2647,59.0,26.0,30.0,0.0,0.0
2648,57.0,8.0,30.0,1.0,0.0
2649,62.0,20.0,30.0,0.0,0.0
2650,54.0,1.0,30.0,1.0,0.0
2651,66.0,31.0,30.0,0.0,0.0
2652,56.0,3.0,60.0,1.0,0.0
2653,71.0,26.0,30.0,0.0,0.0
2654,71.0,0.0,30.0,0.0,0.0
2655,68.0,31.0,30.0,0.0,0.0
2656,73.0,24.0,30.0,0.0,0.0
2657,69.0,2.0,30.0,0.0,0.0
2658,54.0,5.0,60.0,1.0,0.0
2659,75.0,28.0,30.0,0.0,0.0
2660,66.0,1.0,30.0,0.0,0.0
2661,68.0,2.0,30.0,0.0,0.0
2662,52.0,22.0,60.0,1.0,0.0
2663,76.0,27.0,30.0,0.0,0.0
2664,61.0,2.0,30.0,1.0,0.0
2665,73.0,5.0,30.0,0.0,0.0
2666,69.0,2.0,30.0,0.0,0.0
2667,74.0,26.0,30.0,0.0,0.0
2668,66.0,0.0,30.0,0.0,0.0
2669,59.0,1.0,30.0,1.0,0.0
2670,68.0,3.0,30.0,0.0,0.0
2671,71.0,119.0,30.0,0.0,0.0
2672,64.0,3.0,30.0,1.0,0.0
2673,45.0,73.0,120.0,1.0,0.0
2674,61.0,1.0,120.0,1.0,0.0
2675,69.0,0.0,120.0,0.0,0.0
2676,64.0,0.0,120.0,0.0,0.0
2677,57.0,2.0,120.0,1.0,0.0
2678,69.0,24.0,20.0,0.0,0.0
2679,45.0,1.0,20.0,1.0,0.0
2680,61.0,0.0,20.0,1.0,0.0
2681,57.0,1.0,20.0,1.0,0.0
2682,64.0,1.0,20.0,0.0,0.0
2683,69.0,138.0,20.0,0.0,0.0
2684,64.0,2.0,20.0,0.0,0.0
2685,57.0,2.0,15.0,1.0,0.0
2686,45.0,2.0,15.0,1.0,0.0
2687,61.0,1.0,20.0,1.0,0.0
2688,64.0,16.0,120.0,0.0,0.0
2689,44.0,2.0,150.0,1.0,0.0
2690,71.0,5.0,150.0,0.0,0.0
2691,56.0,0.0,150.0,1.0,0.0
2692,59.0,43.0,150.0,1.0,0.0
2693,56.0,1.0,15.0,1.0,0.0
2694,71.0,3.0,20.0,0.0,0.0
2695,64.0,22.0,20.0,0.0,0.0
2696,59.0,1.0,15.0,1.0,0.0
2697,44.0,0.0,15.0,1.0,0.0
2698,64.0,138.0,20.0,0.0,0.0
2699,71.0,5.0,20.0,0.0,0.0
2700,44.0,3.0,15.0,1.0,0.0
2701,59.0,0.0,20.0,1.0,0.0
2702,56.0,2.0,15.0,1.0,0.0
2703,54.0,2.0,150.0,1.0,0.0
2704,57.0,2.0,150.0,1.0,0.0
2705,42.0,0.0,150.0,1.0,0.0
2706,69.0,17.0,120.0,0.0,0.0
2707,61.0,38.0,150.0,1.0,0.0
2708,73.0,6.0,150.0,0.0,0.0
2709,69.0,0.0,20.0,0.0,0.0
2710,73.0,0.0,15.0,0.0,0.0
2711,57.0,1.0,20.0,1.0,0.0
2712,61.0,26.0,20.0,1.0,0.0
2713,42.0,1.0,20.0,1.0,0.0
2714,54.0,2.0,15.0,1.0,0.0
2715,42.0,1.0,20.0,1.0,0.0
2716,54.0,1.0,15.0,1.0,0.0
2717,61.0,2.0,20.0,1.0,0.0
2718,57.0,0.0,15.0,1.0,0.0
2719,73.0,2.0,15.0,0.0,0.0
2720,69.0,136.0,20.0,0.0,0.0
2721,52.0,2.0,150.0,1.0,0.0
2722,40.0,2.0,120.0,1.0,0.0
2723,64.0,6.0,120.0,1.0,0.0
2724,71.0,2.0,150.0,0.0,0.0
2725,68.0,1.0,150.0,0.0,0.0
2726,76.0,42.0,150.0,0.0,0.0
2727,59.0,0.0,120.0,1.0,0.0
2728,56.0,1.0,150.0,1.0,0.0
2729,61.0,15.0,15.0,0.0,0.0
2730,50.0,2.0,20.0,1.0,0.0
2731,64.0,1.0,20.0,0.0,0.0
2732,59.0,1.0,20.0,0.0,0.0
2733,56.0,23.0,20.0,1.0,0.0
2734,64.0,3.0,20.0,0.0,0.0
2735,59.0,63.0,30.0,0.0,0.0
2736,56.0,5.0,15.0,1.0,0.0
2737,50.0,1.0,15.0,1.0,0.0
2738,49.0,39.0,150.0,1.0,0.0
2739,57.0,3.0,120.0,1.0,0.0
2740,69.0,58.0,60.0,0.0,0.0
2741,61.0,2.0,120.0,0.0,0.0
2742,64.0,9.0,120.0,0.0,0.0
2743,71.0,8.0,60.0,0.0,0.0
2744,73.0,50.0,60.0,0.0,0.0
2745,49.0,3.0,60.0,1.0,0.0
2746,64.0,121.0,60.0,0.0,0.0
2747,57.0,8.0,60.0,0.0,0.0
2748,66.0,1.0,120.0,0.0,0.0
2749,57.0,94.0,120.0,0.0,0.0
2750,50.0,2.0,120.0,1.0,0.0
2751,69.0,6.0,240.0,0.0,0.0
2752,64.0,15.0,90.0,0.0,0.0
2753,57.0,25.0,120.0,1.0,0.0
2754,49.0,1.0,120.0,1.0,0.0
2755,59.0,5.0,240.0,1.0,0.0
2756,47.0,1.0,120.0,1.0,0.0
2757,64.0,12.0,15.0,0.0,0.0
2758,62.0,14.0,15.0,0.0,0.0
2759,64.0,14.0,15.0,0.0,0.0
2760,62.0,22.0,15.0,0.0,0.0
2761,64.0,9.0,20.0,0.0,0.0
2762,62.0,17.0,15.0,0.0,0.0
2763,61.0,5.0,15.0,0.0,0.0
2764,62.0,58.0,15.0,0.0,0.0
2765,64.0,56.0,60.0,0.0,0.0
2766,68.0,121.0,120.0,0.0,0.0
2767,40.0,3.0,120.0,1.0,0.0
2768,62.0,2.0,60.0,0.0,0.0
2769,57.0,52.0,120.0,1.0,0.0
2770,61.0,0.0,120.0,0.0,0.0
2771,69.0,2.0,120.0,0.0,0.0
2772,45.0,0.0,120.0,1.0,0.0
2773,61.0,4.0,30.0,0.0,0.0
2774,64.0,26.0,30.0,0.0,0.0
2775,62.0,2.0,30.0,0.0,0.0
2776,66.0,31.0,30.0,0.0,0.0
2777,68.0,0.0,30.0,0.0,0.0
2778,64.0,30.0,30.0,0.0,0.0
2779,69.0,29.0,30.0,0.0,0.0
2780,66.0,0.0,30.0,0.0,0.0
2781,71.0,28.0,30.0,0.0,0.0
2782,68.0,1.0,30.0,0.0,0.0
2783,69.0,2.0,30.0,0.0,0.0
2784,73.0,30.0,30.0,0.0,0.0
2785,71.0,1.0,30.0,0.0,0.0
2786,74.0,50.0,30.0,0.0,0.0
2787,73.0,16.0,180.0,0.0,0.0
2788,76.0,8.0,180.0,0.0,0.0
2789,57.0,7.0,20.0,1.0,0.0
2790,61.0,27.0,30.0,1.0,0.0
2791,59.0,5.0,20.0,1.0,0.0
2792,62.0,27.0,30.0,1.0,0.0
2793,64.0,2.0,30.0,1.0,0.0
2794,61.0,27.0,30.0,1.0,0.0
2795,62.0,1.0,30.0,1.0,0.0
2796,66.0,24.0,30.0,1.0,0.0
2797,61.0,2.0,30.0,1.0,0.0
2798,64.0,1.0,30.0,1.0,0.0
2799,71.0,58.0,60.0,0.0,0.0
2800,74.0,1.0,60.0,0.0,0.0
2801,62.0,32.0,20.0,1.0,0.0
2802,66.0,2.0,15.0,1.0,0.0
2803,64.0,0.0,20.0,1.0,0.0
2804,68.0,9.0,20.0,1.0,0.0
2805,73.0,22.0,90.0,0.0,0.0
2806,69.0,4.0,240.0,0.0,0.0
2807,66.0,6.0,240.0,1.0,0.0
2808,54.0,32.0,30.0,1.0,0.0
2809,52.0,10.0,30.0,1.0,0.0
2810,54.0,14.0,30.0,1.0,0.0
2811,50.0,16.0,30.0,1.0,0.0
2812,73.0,12.0,15.0,0.0,0.0
2813,71.0,2.0,15.0,0.0,0.0
2814,73.0,10.0,15.0,0.0,0.0
2815,47.0,16.0,30.0,1.0,0.0
2816,71.0,4.0,15.0,0.0,0.0
2817,73.0,10.0,15.0,0.0,0.0
2818,49.0,9.0,30.0,1.0,0.0
2819,71.0,10.0,15.0,0.0,0.0
2820,50.0,14.0,30.0,1.0,0.0
2821,73.0,4.0,15.0,0.0,0.0
2822,71.0,1.0,15.0,0.0,0.0
2823,52.0,16.0,30.0,1.0,0.0
2824,64.0,28.0,60.0,1.0,0.0
2825,68.0,53.0,120.0,0.0,0.0
2826,73.0,12.0,15.0,0.0,0.0
2827,71.0,1.0,15.0,0.0,0.0
2828,73.0,12.0,15.0,0.0,0.0
2829,50.0,3.0,30.0,1.0,0.0
2830,71.0,1.0,15.0,0.0,0.0
2831,62.0,1.0,60.0,1.0,0.0
2832,52.0,2.0,30.0,1.0,0.0
2833,69.0,28.0,30.0,0.0,0.0
2834,40.0,2.0,30.0,1.0,0.0
2835,71.0,3.0,30.0,0.0,0.0
2836,69.0,33.0,60.0,0.0,0.0
2837,45.0,2.0,120.0,1.0,0.0
2838,61.0,3.0,120.0,1.0,0.0
2839,73.0,24.0,30.0,0.0,0.0
2840,71.0,31.0,30.0,0.0,0.0
2841,69.0,31.0,30.0,0.0,0.0
2842,68.0,26.0,30.0,0.0,0.0
2843,57.0,3.0,120.0,0.0,0.0
2844,49.0,1.0,60.0,1.0,0.0
2845,66.0,29.0,30.0,0.0,0.0
2846,45.0,1.0,60.0,1.0,0.0
2847,64.0,60.0,30.0,0.0,0.0
2848,62.0,26.0,60.0,0.0,0.0
2849,50.0,5.0,120.0,1.0,0.0
2850,47.0,2.0,120.0,1.0,0.0
2851,56.0,23.0,60.0,0.0,0.0
2852,74.0,32.0,30.0,0.0,0.0
2853,73.0,1.0,30.0,0.0,0.0
2854,71.0,29.0,30.0,0.0,0.0
2855,69.0,28.0,30.0,0.0,0.0
2856,68.0,29.0,30.0,0.0,0.0
2857,50.0,3.0,60.0,1.0,0.0
2858,47.0,0.0,60.0,1.0,0.0
2859,59.0,24.0,120.0,0.0,0.0
2860,66.0,58.0,30.0,0.0,0.0
2861,52.0,27.0,120.0,1.0,0.0
2862,64.0,8.0,60.0,0.0,0.0
2863,49.0,0.0,120.0,1.0,0.0
2864,76.0,32.0,30.0,0.0,0.0
2865,57.0,0.0,60.0,0.0,0.0
2866,74.0,6.0,30.0,0.0,0.0
2867,73.0,25.0,30.0,0.0,0.0
2868,71.0,29.0,30.0,0.0,0.0
2869,49.0,4.0,60.0,1.0,0.0
2870,61.0,1.0,120.0,0.0,0.0
2871,69.0,27.0,30.0,0.0,0.0
2872,52.0,0.0,60.0,1.0,0.0
2873,68.0,56.0,30.0,0.0,0.0
2874,54.0,3.0,120.0,1.0,0.0
2875,50.0,4.0,120.0,1.0,0.0
2876,66.0,35.0,60.0,0.0,0.0
2877,59.0,24.0,60.0,0.0,0.0
2878,78.0,30.0,30.0,0.0,0.0
2879,76.0,0.0,30.0,0.0,0.0
2880,74.0,27.0,30.0,0.0,0.0
2881,73.0,1.0,30.0,0.0,0.0
2882,69.0,30.0,30.0,0.0,0.0
2883,68.0,0.0,30.0,0.0,0.0
2884,71.0,18.0,30.0,0.0,0.0
2885,51.0,2.0,60.0,1.0,0.0
2886,59.0,9.0,60.0,1.0,0.0
2887,66.0,1.0,30.0,0.0,0.0
2888,69.0,46.0,30.0,0.0,0.0
2889,52.0,43.0,60.0,1.0,0.0
2890,59.0,7.0,150.0,1.0,0.0
2891,64.0,8.0,120.0,0.0,0.0
2892,68.0,5.0,120.0,0.0,0.0
2893,52.0,27.0,30.0,1.0,0.0
2894,51.0,10.0,30.0,1.0,0.0
2895,49.0,36.0,30.0,1.0,0.0
2896,47.0,29.0,30.0,1.0,0.0
2897,68.0,48.0,60.0,0.0,0.0
2898,59.0,5.0,60.0,1.0,0.0
2899,45.0,24.0,30.0,1.0,0.0
2900,64.0,31.0,120.0,0.0,0.0
2901,44.0,2.0,30.0,1.0,0.0
2902,69.0,4.0,60.0,0.0,0.0
2903,57.0,7.0,180.0,1.0,0.0
2904,42.0,6.0,60.0,1.0,0.0
2905,66.0,18.0,60.0,0.0,0.0
2906,54.0,29.0,30.0,1.0,0.0
2907,63.0,8.0,90.0,0.0,0.0
2908,52.0,4.0,30.0,1.0,0.0
2909,51.0,23.0,30.0,1.0,0.0
2910,49.0,27.0,30.0,1.0,0.0
2911,63.0,2.0,30.0,1.0,0.0
2912,66.0,5.0,120.0,0.0,0.0
2913,69.0,2.0,60.0,0.0,0.0
2914,47.0,28.0,30.0,1.0,0.0
2915,61.0,58.0,30.0,1.0,0.0
2916,45.0,0.0,30.0,1.0,0.0
2917,44.0,1.0,60.0,1.0,0.0
2918,59.0,1.0,120.0,1.0,0.0
2919,71.0,25.0,60.0,0.0,0.0
2920,64.0,8.0,90.0,0.0,0.0
2921,56.0,30.0,30.0,1.0,0.0
2922,68.0,7.0,90.0,0.0,0.0
2923,54.0,19.0,30.0,1.0,0.0
2924,52.0,22.0,30.0,1.0,0.0
2925,50.0,38.0,30.0,1.0,0.0
2926,49.0,17.0,30.0,1.0,0.0
2927,62.0,1.0,60.0,1.0,0.0
2928,64.0,1.0,60.0,1.0,0.0
2929,71.0,61.0,60.0,0.0,0.0
2930,68.0,5.0,60.0,0.0,0.0
2931,47.0,1.0,30.0,1.0,0.0
2932,73.0,19.0,120.0,0.0,0.0
2933,64.0,2.0,120.0,1.0,0.0
2934,61.0,3.0,120.0,1.0,0.0
2935,45.0,1.0,120.0,1.0,0.0
2936,69.0,30.0,60.0,0.0,0.0
2937,61.0,25.0,30.0,0.0,0.0
2938,62.0,10.0,30.0,0.0,0.0
2939,64.0,33.0,30.0,0.0,0.0
2940,66.0,24.0,30.0,0.0,0.0
2941,57.0,29.0,120.0,1.0,0.0
2942,68.0,27.0,30.0,0.0,0.0
2943,73.0,56.0,60.0,0.0,0.0
2944,49.0,6.0,60.0,1.0,0.0
2945,69.0,5.0,30.0,0.0,0.0
2946,47.0,3.0,150.0,1.0,0.0
2947,71.0,0.0,60.0,0.0,0.0
2948,74.0,19.0,120.0,0.0,0.0
2949,62.0,31.0,30.0,0.0,0.0
2950,56.0,2.0,90.0,1.0,0.0
2951,64.0,7.0,30.0,0.0,0.0
2952,66.0,27.0,30.0,0.0,0.0
2953,68.0,33.0,30.0,0.0,0.0
2954,59.0,2.0,120.0,1.0,0.0
2955,74.0,57.0,60.0,0.0,0.0
2956,69.0,25.0,30.0,0.0,0.0
2957,50.0,3.0,60.0,1.0,0.0
2958,71.0,1.0,30.0,0.0,0.0
2959,76.0,4.0,120.0,0.0,0.0
2960,49.0,11.0,150.0,1.0,0.0
2961,73.0,30.0,60.0,0.0,0.0
2962,57.0,31.0,90.0,1.0,0.0
2963,64.0,31.0,30.0,0.0,0.0
2964,66.0,13.0,30.0,0.0,0.0
2965,68.0,3.0,30.0,0.0,0.0
2966,69.0,26.0,30.0,0.0,0.0
2967,52.0,4.0,60.0,1.0,0.0
2968,61.0,5.0,120.0,1.0,0.0
2969,71.0,27.0,30.0,0.0,0.0
2970,76.0,4.0,60.0,0.0,0.0
2971,73.0,26.0,30.0,0.0,0.0
2972,74.0,27.0,30.0,0.0,0.0
2973,78.0,2.0,180.0,0.0,0.0
2974,50.0,9.0,180.0,1.0,0.0
2975,76.0,28.0,30.0,0.0,0.0
2976,74.0,27.0,30.0,0.0,0.0
2977,59.0,3.0,30.0,1.0,0.0
2978,61.0,27.0,30.0,1.0,0.0
2979,73.0,3.0,30.0,0.0,0.0
2980,62.0,12.0,60.0,1.0,0.0
2981,71.0,18.0,30.0,0.0,0.0
2982,69.0,19.0,15.0,0.0,0.0
2983,68.0,19.0,30.0,0.0,0.0
2984,51.0,4.0,60.0,1.0,0.0
2985,59.0,6.0,60.0,1.0,0.0
2986,66.0,55.0,30.0,0.0,0.0
2987,59.0,4.0,120.0,1.0,0.0
2988,52.0,0.0,120.0,1.0,0.0
2989,68.0,2.0,60.0,0.0,0.0
2990,64.0,29.0,60.0,0.0,0.0
2991,71.0,5.0,30.0,0.0,0.0
2992,68.0,21.0,30.0,0.0,0.0
2993,69.0,29.0,30.0,0.0,0.0
2994,66.0,2.0,30.0,0.0,0.0
2995,64.0,26.0,30.0,0.0,0.0
2996,68.0,1.0,30.0,0.0,0.0
2997,66.0,3.0,30.0,0.0,0.0
2998,62.0,30.0,30.0,0.0,0.0
2999,40.0,0.0,30.0,1.0,0.0
3000,42.0,0.0,30.0,1.0,0.0
3001,61.0,26.0,30.0,0.0,0.0
3002,64.0,1.0,30.0,0.0,0.0
3003,44.0,17.0,30.0,1.0,0.0
3004,62.0,3.0,30.0,0.0,0.0
3005,59.0,11.0,90.0,0.0,0.0
3006,62.0,12.0,15.0,0.0,0.0
3007,45.0,17.0,30.0,1.0,0.0
3008,61.0,1.0,15.0,0.0,0.0
3009,62.0,14.0,15.0,0.0,0.0
3010,44.0,1.0,30.0,1.0,0.0
3011,61.0,3.0,15.0,0.0,0.0
3012,52.0,3.0,60.0,0.0,0.0
3013,62.0,12.0,15.0,0.0,0.0
3014,45.0,16.0,30.0,1.0,0.0
3015,61.0,2.0,15.0,0.0,0.0
3016,47.0,13.0,30.0,1.0,0.0
3017,62.0,12.0,15.0,0.0,0.0
3018,61.0,1.0,15.0,0.0,0.0
3019,57.0,0.0,120.0,0.0,0.0
3020,62.0,12.0,15.0,0.0,0.0
3021,49.0,1.0,30.0,1.0,0.0
3022,61.0,15.0,15.0,0.0,0.0
3023,62.0,17.0,15.0,0.0,0.0
3024,47.0,1.0,30.0,1.0,0.0
3025,61.0,29.0,15.0,0.0,0.0
3026,49.0,26.0,30.0,1.0,0.0
3027,59.0,1.0,30.0,0.0,0.0
3028,61.0,4.0,30.0,0.0,0.0
3029,51.0,60.0,30.0,1.0,0.0
3030,56.0,28.0,60.0,0.0,0.0
3031,59.0,0.0,120.0,0.0,0.0
3032,52.0,3.0,120.0,1.0,0.0
3033,71.0,30.0,30.0,0.0,0.0
3034,68.0,0.0,30.0,1.0,0.0
3035,69.0,26.0,30.0,0.0,0.0
3036,66.0,1.0,30.0,1.0,0.0
3037,64.0,2.0,30.0,1.0,0.0
3038,68.0,28.0,30.0,0.0,0.0
3039,66.0,1.0,30.0,0.0,0.0
3040,40.0,29.0,30.0,1.0,0.0
3041,62.0,0.0,30.0,1.0,0.0
3042,64.0,22.0,30.0,0.0,0.0
3043,61.0,1.0,30.0,1.0,0.0
3044,42.0,3.0,30.0,1.0,0.0
3045,59.0,2.0,30.0,1.0,0.0
3046,44.0,13.0,30.0,1.0,0.0
3047,62.0,4.0,20.0,0.0,0.0
3048,62.0,12.0,15.0,0.0,0.0
3049,59.0,3.0,15.0,1.0,0.0
3050,45.0,2.0,60.0,1.0,0.0
3051,57.0,0.0,15.0,1.0,0.0
3052,61.0,15.0,15.0,0.0,0.0
3053,62.0,10.0,15.0,0.0,0.0
3054,59.0,3.0,15.0,1.0,0.0
3055,64.0,14.0,30.0,0.0,0.0
3056,61.0,0.0,15.0,0.0,0.0
3057,57.0,1.0,15.0,1.0,0.0
3058,66.0,14.0,30.0,0.0,0.0
3059,62.0,11.0,15.0,0.0,0.0
3060,52.0,2.0,60.0,1.0,0.0
3061,59.0,3.0,15.0,1.0,0.0
3062,57.0,1.0,15.0,1.0,0.0
3063,61.0,1.0,15.0,0.0,0.0
3064,59.0,3.0,15.0,1.0,0.0
3065,62.0,10.0,15.0,0.0,0.0
3066,68.0,0.0,30.0,0.0,0.0
3067,57.0,2.0,15.0,1.0,0.0
3068,61.0,13.0,15.0,0.0,0.0
3069,69.0,2.0,30.0,0.0,0.0
3070,49.0,1.0,60.0,1.0,0.0
3071,62.0,14.0,15.0,0.0,0.0
3072,59.0,1.0,15.0,1.0,0.0
3073,57.0,1.0,15.0,1.0,0.0
3074,61.0,12.0,15.0,0.0,0.0
3075,71.0,28.0,30.0,0.0,0.0
3076,62.0,11.0,15.0,0.0,0.0
3077,59.0,2.0,15.0,1.0,0.0
3078,57.0,2.0,15.0,1.0,0.0
3079,61.0,1.0,15.0,0.0,0.0
3080,59.0,25.0,30.0,0.0,0.0
3081,73.0,2.0,30.0,0.0,0.0
3082,45.0,2.0,60.0,1.0,0.0
3083,56.0,1.0,30.0,1.0,0.0
3084,57.0,1.0,30.0,1.0,0.0
3085,75.0,61.0,30.0,0.0,0.0
3086,61.0,2.0,30.0,0.0,0.0
3087,40.0,27.0,60.0,1.0,0.0
3088,56.0,8.0,120.0,1.0,0.0
3089,76.0,5.0,120.0,0.0,0.0
3090,59.0,2.0,120.0,0.0,0.0
3091,42.0,23.0,30.0,1.0,0.0
3092,44.0,22.0,30.0,1.0,0.0
3093,45.0,31.0,30.0,1.0,0.0
3094,47.0,30.0,30.0,1.0,0.0
3095,49.0,29.0,30.0,1.0,0.0
3096,51.0,30.0,30.0,1.0,0.0
3097,52.0,28.0,30.0,1.0,0.0
3098,54.0,31.0,30.0,1.0,0.0
3099,52.0,32.0,30.0,1.0,0.0
3100,51.0,31.0,30.0,1.0,0.0
3101,52.0,28.0,30.0,1.0,0.0
3102,49.0,31.0,30.0,1.0,0.0
3103,50.0,25.0,30.0,1.0,0.0
3104,47.0,32.0,30.0,1.0,0.0
3105,45.0,27.0,120.0,1.0,0.0
3106,57.0,33.0,30.0,1.0,0.0
3107,61.0,2.0,30.0,0.0,0.0
3108,62.0,1.0,30.0,0.0,0.0
3109,59.0,26.0,30.0,1.0,0.0
3110,61.0,30.0,30.0,0.0,0.0
3111,57.0,0.0,30.0,1.0,0.0
3112,62.0,1.0,30.0,0.0,0.0
3113,59.0,1.0,30.0,1.0,0.0
3114,64.0,1.0,30.0,0.0,0.0
3115,61.0,27.0,30.0,1.0,0.0
3116,62.0,13.0,30.0,0.0,0.0
3117,59.0,4.0,30.0,1.0,0.0
3118,64.0,16.0,30.0,0.0,0.0
3119,52.0,11.0,15.0,1.0,0.0
3120,61.0,5.0,30.0,1.0,0.0
3121,40.0,1.0,15.0,1.0,0.0
3122,68.0,2.0,60.0,0.0,0.0
3123,62.0,30.0,30.0,0.0,0.0
3124,59.0,0.0,30.0,1.0,0.0
3125,40.0,2.0,15.0,1.0,0.0
3126,52.0,10.0,20.0,1.0,0.0
3127,57.0,5.0,30.0,1.0,0.0
3128,45.0,4.0,120.0,1.0,0.0
3129,61.0,17.0,30.0,0.0,0.0
3130,69.0,7.0,60.0,0.0,0.0
3131,62.0,4.0,30.0,0.0,0.0
3132,59.0,27.0,30.0,1.0,0.0
3133,57.0,2.0,30.0,1.0,0.0
3134,61.0,22.0,30.0,0.0,0.0
3135,59.0,3.0,30.0,1.0,0.0
3136,62.0,1.0,30.0,0.0,0.0
3137,64.0,26.0,15.0,0.0,0.0
3138,61.0,2.0,30.0,1.0,0.0
3139,62.0,15.0,30.0,0.0,0.0
3140,59.0,1.0,30.0,1.0,0.0
3141,52.0,11.0,15.0,1.0,0.0
3142,40.0,2.0,15.0,1.0,0.0
3143,61.0,4.0,30.0,1.0,0.0
3144,64.0,15.0,30.0,0.0,0.0
3145,68.0,3.0,60.0,0.0,0.0
3146,52.0,2.0,15.0,1.0,0.0
3147,40.0,7.0,15.0,1.0,0.0
3148,59.0,9.0,30.0,1.0,0.0
3149,62.0,46.0,30.0,0.0,0.0
3150,61.0,62.0,120.0,0.0,0.0
3151,69.0,20.0,60.0,0.0,0.0
3152,45.0,5.0,60.0,1.0,0.0
3153,57.0,2.0,120.0,1.0,0.0
3154,73.0,36.0,15.0,0.0,0.0
3155,76.0,18.0,210.0,0.0,0.0
3156,49.0,8.0,90.0,1.0,0.0
3157,73.0,3.0,30.0,0.0,0.0
3158,69.0,22.0,30.0,1.0,0.0
3159,68.0,0.0,30.0,1.0,0.0
3160,71.0,30.0,30.0,0.0,0.0
3161,69.0,0.0,30.0,0.0,0.0
3162,66.0,30.0,30.0,1.0,0.0
3163,64.0,2.0,30.0,1.0,0.0
3164,52.0,1.0,120.0,1.0,0.0
3165,68.0,28.0,30.0,0.0,0.0
3166,66.0,1.0,30.0,1.0,0.0
3167,69.0,32.0,30.0,0.0,0.0
3168,64.0,6.0,30.0,1.0,0.0
3169,68.0,2.0,30.0,0.0,0.0
3170,66.0,0.0,30.0,0.0,0.0
3171,62.0,16.0,30.0,1.0,0.0
3172,64.0,2.0,30.0,0.0,0.0
3173,69.0,13.0,15.0,0.0,0.0
3174,61.0,11.0,30.0,1.0,0.0
3175,68.0,2.0,15.0,0.0,0.0
3176,62.0,13.0,30.0,1.0,0.0
3177,69.0,14.0,15.0,0.0,0.0
3178,66.0,1.0,30.0,0.0,0.0
3179,68.0,4.0,15.0,0.0,0.0
3180,69.0,14.0,15.0,0.0,0.0
3181,64.0,12.0,30.0,0.0,0.0
3182,61.0,3.0,30.0,1.0,0.0
3183,68.0,1.0,15.0,0.0,0.0
3184,59.0,30.0,30.0,1.0,0.0
3185,66.0,11.0,15.0,0.0,0.0
3186,62.0,1.0,30.0,0.0,0.0
3187,68.0,3.0,15.0,0.0,0.0
3188,61.0,24.0,30.0,0.0,0.0
3189,69.0,7.0,60.0,0.0,0.0
3190,45.0,11.0,90.0,1.0,0.0
3191,57.0,1.0,30.0,1.0,0.0
3192,59.0,0.0,30.0,1.0,0.0
3193,62.0,27.0,30.0,0.0,0.0
3194,64.0,6.0,60.0,0.0,0.0
3195,57.0,12.0,30.0,1.0,0.0
3196,61.0,1.0,30.0,0.0,0.0
3197,62.0,1.0,30.0,0.0,0.0
3198,59.0,28.0,30.0,1.0,0.0
3199,61.0,1.0,30.0,1.0,0.0
3200,64.0,29.0,30.0,0.0,0.0
3201,59.0,1.0,30.0,1.0,0.0
3202,62.0,14.0,30.0,0.0,0.0
3203,61.0,1.0,30.0,1.0,0.0
3204,68.0,1.0,60.0,0.0,0.0
3205,52.0,15.0,15.0,1.0,0.0
3206,64.0,13.0,30.0,0.0,0.0
3207,40.0,1.0,15.0,1.0,0.0
3208,59.0,3.0,30.0,1.0,0.0
3209,62.0,32.0,30.0,0.0,0.0
3210,52.0,3.0,15.0,1.0,0.0
3211,40.0,10.0,15.0,1.0,0.0
3212,45.0,7.0,120.0,1.0,0.0
3213,57.0,23.0,30.0,1.0,0.0
3214,69.0,2.0,60.0,0.0,0.0
3215,61.0,3.0,30.0,0.0,0.0
3216,62.0,2.0,30.0,0.0,0.0
3217,59.0,26.0,30.0,1.0,0.0
3218,61.0,1.0,30.0,0.0,0.0
3219,57.0,23.0,30.0,1.0,0.0
3220,59.0,8.0,30.0,1.0,0.0
3221,62.0,1.0,30.0,0.0,0.0
3222,61.0,1.0,30.0,1.0,0.0
3223,64.0,21.0,15.0,0.0,0.0
3224,62.0,13.0,30.0,0.0,0.0
3225,59.0,1.0,30.0,1.0,0.0
3226,64.0,14.0,30.0,0.0,0.0
3227,68.0,2.0,60.0,0.0,0.0
3228,61.0,3.0,30.0,1.0,0.0
3229,40.0,1.0,15.0,1.0,0.0
3230,52.0,14.0,15.0,1.0,0.0
3231,59.0,1.0,30.0,1.0,0.0
3232,40.0,11.0,15.0,1.0,0.0
3233,52.0,0.0,15.0,1.0,0.0
3234,62.0,56.0,30.0,0.0,0.0
3235,69.0,14.0,60.0,0.0,0.0
3236,61.0,54.0,120.0,0.0,0.0
3237,57.0,14.0,120.0,1.0,0.0
3238,45.0,5.0,60.0,1.0,0.0
3239,73.0,37.0,15.0,0.0,0.0
3240,76.0,20.0,210.0,0.0,0.0
3241,49.0,1.0,90.0,1.0,0.0
3242,73.0,29.0,30.0,0.0,0.0
3243,69.0,1.0,30.0,1.0,0.0
3244,68.0,1.0,30.0,1.0,0.0
3245,71.0,30.0,30.0,0.0,0.0
3246,66.0,1.0,30.0,1.0,0.0
3247,69.0,27.0,30.0,0.0,0.0
3248,64.0,31.0,30.0,1.0,0.0
3249,52.0,21.0,60.0,1.0,0.0
3250,68.0,1.0,30.0,0.0,0.0
3251,66.0,8.0,30.0,1.0,0.0
3252,69.0,1.0,30.0,0.0,0.0
3253,64.0,3.0,30.0,1.0,0.0
3254,68.0,4.0,30.0,0.0,0.0
3255,66.0,15.0,30.0,0.0,0.0
3256,62.0,2.0,30.0,1.0,0.0
3257,64.0,9.0,30.0,0.0,0.0
3258,61.0,2.0,30.0,1.0,0.0
3259,69.0,14.0,15.0,0.0,0.0
3260,68.0,3.0,15.0,0.0,0.0
3261,62.0,15.0,30.0,1.0,0.0
3262,66.0,0.0,30.0,0.0,0.0
3263,69.0,17.0,15.0,0.0,0.0
3264,68.0,0.0,15.0,0.0,0.0
3265,64.0,0.0,30.0,0.0,0.0
3266,69.0,15.0,15.0,0.0,0.0
3267,61.0,1.0,30.0,1.0,0.0
3268,68.0,16.0,15.0,0.0,0.0
3269,62.0,29.0,30.0,0.0,0.0
3270,66.0,11.0,15.0,0.0,0.0
3271,59.0,1.0,30.0,1.0,0.0
3272,68.0,2.0,15.0,0.0,0.0
3273,69.0,5.0,240.0,0.0,0.0
3274,61.0,29.0,30.0,0.0,0.0
3275,57.0,8.0,690.0,1.0,0.0
3276,45.0,1.0,30.0,1.0,0.0
3277,62.0,29.0,30.0,0.0,0.0
3278,47.0,0.0,30.0,1.0,0.0
3279,45.0,1.0,30.0,1.0,0.0
3280,61.0,31.0,30.0,0.0,0.0
3281,62.0,0.0,30.0,0.0,0.0
3282,47.0,28.0,30.0,1.0,0.0
3283,64.0,1.0,30.0,0.0,0.0
3284,49.0,29.0,30.0,1.0,0.0
3285,62.0,31.0,30.0,0.0,0.0
3286,47.0,1.0,30.0,1.0,0.0
3287,64.0,3.0,30.0,0.0,0.0
3288,49.0,21.0,30.0,1.0,0.0
3289,45.0,2.0,30.0,1.0,0.0
3290,61.0,27.0,30.0,0.0,0.0
3291,47.0,30.0,30.0,1.0,0.0
3292,68.0,16.0,210.0,0.0,0.0
3293,62.0,1.0,30.0,0.0,0.0
3294,64.0,25.0,30.0,0.0,0.0
3295,49.0,5.0,30.0,1.0,0.0
3296,62.0,30.0,30.0,0.0,0.0
3297,47.0,0.0,30.0,1.0,0.0
3298,64.0,27.0,30.0,0.0,0.0
3299,49.0,2.0,30.0,1.0,0.0
3300,65.0,33.0,30.0,0.0,0.0
3301,50.0,1.0,30.0,1.0,0.0
3302,64.0,1.0,30.0,0.0,0.0
3303,49.0,26.0,30.0,1.0,0.0
3304,65.0,8.0,30.0,0.0,0.0
3305,50.0,4.0,30.0,1.0,0.0
3306,62.0,3.0,30.0,0.0,0.0
3307,47.0,15.0,30.0,1.0,0.0
3308,69.0,13.0,15.0,0.0,0.0
3309,64.0,0.0,30.0,0.0,0.0
3310,49.0,13.0,30.0,1.0,0.0
3311,67.0,3.0,15.0,0.0,0.0
3312,62.0,16.0,30.0,0.0,0.0
3313,69.0,14.0,15.0,0.0,0.0
3314,50.0,1.0,30.0,1.0,0.0
3315,67.0,0.0,15.0,0.0,0.0
3316,64.0,1.0,30.0,0.0,0.0
3317,69.0,14.0,15.0,0.0,0.0
3318,49.0,12.0,30.0,1.0,0.0
3319,67.0,1.0,15.0,0.0,0.0
3320,50.0,14.0,30.0,1.0,0.0
3321,69.0,15.0,15.0,0.0,0.0
3322,62.0,1.0,30.0,0.0,0.0
3323,67.0,2.0,15.0,0.0,0.0
3324,52.0,14.0,30.0,1.0,0.0
3325,69.0,14.0,15.0,0.0,0.0
3326,61.0,1.0,30.0,0.0,0.0
3327,67.0,0.0,15.0,0.0,0.0
3328,69.0,15.0,15.0,0.0,0.0
3329,62.0,18.0,30.0,0.0,0.0
3330,50.0,1.0,30.0,1.0,0.0
3331,67.0,2.0,15.0,0.0,0.0
3332,61.0,22.0,30.0,0.0,0.0
3333,66.0,2.0,30.0,0.0,0.0
3334,52.0,1.0,30.0,1.0,0.0
3335,67.0,3.0,30.0,0.0,0.0
3336,64.0,28.0,30.0,0.0,0.0
3337,49.0,5.0,20.0,1.0,0.0
3338,62.0,0.0,30.0,0.0,0.0
3339,66.0,31.0,30.0,0.0,0.0
3340,57.0,3.0,120.0,1.0,0.0
3341,50.0,6.0,120.0,1.0,0.0
3342,67.0,2.0,30.0,0.0,0.0
3343,64.0,27.0,30.0,0.0,0.0
3344,66.0,2.0,30.0,0.0,0.0
3345,62.0,18.0,30.0,0.0,0.0
3346,64.0,26.0,30.0,0.0,0.0
3347,67.0,3.0,30.0,0.0,0.0
3348,66.0,26.0,30.0,0.0,0.0
3349,69.0,4.0,30.0,0.0,0.0
3350,67.0,4.0,30.0,0.0,0.0
3351,64.0,26.0,30.0,0.0,0.0
3352,69.0,6.0,30.0,0.0,0.0
3353,62.0,28.0,30.0,0.0,0.0
3354,66.0,26.0,15.0,0.0,0.0
3355,64.0,0.0,30.0,0.0,0.0
3356,76.0,12.0,930.0,0.0,0.0
3357,40.0,4.0,900.0,1.0,0.0
3358,56.0,29.0,30.0,1.0,0.0
3359,57.0,28.0,30.0,1.0,0.0
3360,66.0,3.0,30.0,0.0,0.0
3361,64.0,29.0,30.0,0.0,0.0
3362,56.0,1.0,30.0,1.0,0.0
3363,57.0,29.0,30.0,1.0,0.0
3364,66.0,0.0,30.0,0.0,0.0
3365,59.0,2.0,30.0,1.0,0.0
3366,68.0,29.0,30.0,0.0,0.0
3367,66.0,2.0,30.0,0.0,0.0
3368,57.0,29.0,30.0,1.0,0.0
3369,68.0,1.0,30.0,0.0,0.0
3370,59.0,29.0,30.0,1.0,0.0
3371,56.0,1.0,30.0,1.0,0.0
3372,64.0,28.0,30.0,0.0,0.0
3373,57.0,31.0,30.0,1.0,0.0
3374,75.0,13.0,240.0,0.0,0.0
3375,66.0,1.0,30.0,0.0,0.0
3376,59.0,0.0,30.0,1.0,0.0
3377,68.0,26.0,30.0,0.0,0.0
3378,57.0,2.0,30.0,1.0,0.0
3379,66.0,30.0,30.0,0.0,0.0
3380,59.0,2.0,30.0,1.0,0.0
3381,68.0,28.0,30.0,0.0,0.0
3382,60.0,0.0,30.0,1.0,0.0
3383,69.0,30.0,30.0,0.0,0.0
3384,59.0,1.0,30.0,1.0,0.0
3385,68.0,32.0,30.0,0.0,0.0
3386,69.0,13.0,30.0,0.0,0.0
3387,60.0,2.0,30.0,1.0,0.0
3388,57.0,0.0,30.0,1.0,0.0
3389,66.0,29.0,30.0,0.0,0.0
3390,74.0,8.0,180.0,0.0,0.0
3391,59.0,29.0,30.0,1.0,0.0
3392,68.0,1.0,30.0,0.0,0.0
3393,61.0,2.0,30.0,1.0,0.0
3394,69.0,27.0,30.0,0.0,0.0
3395,59.0,30.0,30.0,1.0,0.0
3396,68.0,2.0,30.0,0.0,0.0
3397,61.0,0.0,30.0,1.0,0.0
3398,69.0,29.0,30.0,0.0,0.0
3399,62.0,22.0,30.0,1.0,0.0
3400,71.0,0.0,30.0,0.0,0.0
3401,61.0,27.0,30.0,1.0,0.0
3402,69.0,3.0,30.0,0.0,0.0
3403,62.0,1.0,30.0,1.0,0.0
3404,71.0,29.0,30.0,0.0,0.0
3405,73.0,1.0,30.0,0.0,0.0
3406,68.0,1.0,30.0,0.0,0.0
3407,74.0,27.0,30.0,0.0,0.0
3408,59.0,1.0,30.0,1.0,0.0
3409,60.0,31.0,30.0,1.0,0.0
3410,72.0,3.0,120.0,0.0,0.0
3411,69.0,0.0,30.0,0.0,0.0
3412,71.0,1.0,30.0,0.0,0.0
3413,62.0,27.0,30.0,1.0,0.0
3414,60.0,19.0,30.0,1.0,0.0
3415,69.0,7.0,30.0,0.0,0.0
3416,71.0,28.0,30.0,0.0,0.0
3417,62.0,4.0,30.0,1.0,0.0
3418,64.0,31.0,30.0,1.0,0.0
3419,72.0,2.0,30.0,0.0,0.0
3420,62.0,0.0,30.0,1.0,0.0
3421,71.0,13.0,30.0,0.0,0.0
3422,64.0,21.0,30.0,1.0,0.0
3423,72.0,0.0,30.0,0.0,0.0
3424,60.0,5.0,20.0,1.0,0.0
3425,69.0,31.0,30.0,0.0,0.0
3426,70.0,6.0,240.0,0.0,0.0
3427,64.0,4.0,30.0,0.0,0.0
3428,60.0,27.0,30.0,1.0,0.0
3429,72.0,23.0,510.0,0.0,0.0
3430,65.0,29.0,30.0,0.0,0.0
3431,62.0,1.0,30.0,1.0,0.0
3432,60.0,23.0,30.0,1.0,0.0
3433,64.0,4.0,30.0,0.0,0.0
3434,65.0,30.0,30.0,0.0,0.0
3435,62.0,3.0,30.0,1.0,0.0
3436,67.0,2.0,30.0,0.0,0.0
3437,64.0,21.0,30.0,1.0,0.0
3438,62.0,7.0,20.0,1.0,0.0
3439,65.0,17.0,30.0,0.0,0.0
3440,67.0,12.0,30.0,0.0,0.0
3441,48.0,15.0,15.0,1.0,0.0
3442,64.0,3.0,30.0,1.0,0.0
3443,48.0,6.0,20.0,1.0,0.0
3444,60.0,1.0,30.0,1.0,0.0
3445,64.0,30.0,30.0,0.0,0.0
3446,65.0,26.0,30.0,0.0,0.0
3447,53.0,5.0,120.0,1.0,0.0
3448,41.0,24.0,120.0,1.0,0.0
3449,57.0,1.0,30.0,1.0,0.0
3450,60.0,7.0,30.0,1.0,0.0
3451,69.0,4.0,30.0,0.0,0.0
3452,67.0,0.0,30.0,0.0,0.0
3453,59.0,27.0,30.0,1.0,0.0
3454,65.0,1.0,30.0,0.0,0.0
3455,57.0,2.0,30.0,1.0,0.0
3456,64.0,0.0,30.0,0.0,0.0
3457,55.0,26.0,30.0,1.0,0.0
3458,58.0,8.0,30.0,1.0,0.0
3459,67.0,14.0,30.0,0.0,0.0
3460,57.0,22.0,30.0,1.0,0.0
3461,48.0,11.0,15.0,1.0,0.0
3462,65.0,1.0,30.0,0.0,0.0
3463,64.0,27.0,30.0,0.0,0.0
3464,48.0,10.0,20.0,1.0,0.0
3465,55.0,1.0,20.0,1.0,0.0
3466,53.0,0.0,120.0,1.0,0.0
3467,41.0,26.0,120.0,1.0,0.0
3468,65.0,4.0,30.0,0.0,0.0
3469,57.0,3.0,30.0,1.0,0.0
3470,69.0,2.0,30.0,0.0,0.0
3471,60.0,26.0,30.0,1.0,0.0
3472,73.0,4.0,60.0,0.0,0.0
3473,58.0,5.0,30.0,1.0,0.0
3474,67.0,27.0,30.0,0.0,0.0
3475,69.0,0.0,30.0,0.0,0.0
3476,60.0,1.0,30.0,1.0,0.0
3477,57.0,29.0,30.0,1.0,0.0
3478,74.0,19.0,390.0,0.0,0.0
3479,66.0,0.0,30.0,0.0,0.0
3480,69.0,11.0,30.0,0.0,0.0
3481,60.0,5.0,30.0,1.0,0.0
3482,67.0,25.0,30.0,0.0,0.0
3483,59.0,5.0,30.0,1.0,0.0
3484,50.0,10.0,15.0,1.0,0.0
3485,57.0,1.0,30.0,1.0,0.0
3486,50.0,7.0,30.0,1.0,0.0
3487,66.0,28.0,30.0,0.0,0.0
3488,59.0,1.0,30.0,1.0,0.0
3489,55.0,21.0,120.0,1.0,0.0
3490,43.0,2.0,120.0,1.0,0.0
3491,67.0,23.0,30.0,0.0,0.0
3492,71.0,5.0,30.0,0.0,0.0
3493,62.0,30.0,30.0,1.0,0.0
3494,69.0,1.0,30.0,0.0,0.0
3495,60.0,29.0,30.0,1.0,0.0
3496,67.0,4.0,30.0,0.0,0.0
3497,59.0,2.0,30.0,1.0,0.0
3498,57.0,27.0,30.0,1.0,0.0
3499,66.0,1.0,30.0,0.0,0.0
3500,69.0,13.0,30.0,0.0,0.0
3501,60.0,4.0,30.0,1.0,0.0
3502,67.0,19.0,30.0,0.0,0.0
3503,50.0,8.0,15.0,1.0,0.0
3504,59.0,9.0,20.0,1.0,0.0
3505,50.0,0.0,20.0,1.0,0.0
3506,57.0,9.0,20.0,1.0,0.0
3507,66.0,30.0,30.0,0.0,0.0
3508,67.0,5.0,30.0,0.0,0.0
3509,59.0,4.0,30.0,1.0,0.0
3510,43.0,0.0,120.0,1.0,0.0
3511,55.0,28.0,120.0,1.0,0.0
3512,71.0,0.0,30.0,0.0,0.0
3513,62.0,35.0,30.0,1.0,0.0
3514,60.0,1.0,30.0,1.0,0.0
3515,69.0,25.0,30.0,0.0,0.0
3516,75.0,1.0,60.0,0.0,0.0
3517,62.0,1.0,30.0,1.0,0.0
3518,71.0,3.0,30.0,0.0,0.0
3519,76.0,47.0,360.0,0.0,0.0
3520,59.0,20.0,30.0,1.0,0.0
3521,68.0,2.0,30.0,0.0,0.0
3522,62.0,9.0,20.0,1.0,0.0
3523,71.0,12.0,30.0,0.0,0.0
3524,52.0,0.0,15.0,1.0,0.0
3525,40.0,11.0,15.0,1.0,0.0
3526,60.0,5.0,30.0,1.0,0.0
3527,69.0,11.0,30.0,0.0,0.0
3528,68.0,29.0,30.0,0.0,0.0
3529,40.0,3.0,15.0,1.0,0.0
3530,52.0,7.0,15.0,1.0,0.0
3531,59.0,11.0,20.0,1.0,0.0
3532,60.0,28.0,30.0,1.0,0.0
3533,45.0,0.0,120.0,1.0,0.0
3534,57.0,11.0,120.0,1.0,0.0
3535,69.0,0.0,30.0,0.0,0.0
3536,64.0,5.0,30.0,1.0,0.0
3537,72.0,26.0,30.0,0.0,0.0
3538,62.0,1.0,30.0,1.0,0.0
3539,71.0,16.0,30.0,0.0,0.0
3540,60.0,3.0,30.0,1.0,0.0
3541,69.0,30.0,30.0,0.0,0.0
3542,59.0,1.0,30.0,1.0,0.0
3543,68.0,24.0,30.0,0.0,0.0
3544,71.0,13.0,30.0,0.0,0.0
3545,62.0,5.0,30.0,1.0,0.0
3546,40.0,0.0,15.0,1.0,0.0
3547,60.0,6.0,30.0,1.0,0.0
3548,69.0,9.0,30.0,0.0,0.0
3549,52.0,11.0,15.0,1.0,0.0
3550,40.0,2.0,15.0,1.0,0.0
3551,59.0,5.0,20.0,1.0,0.0
3552,68.0,15.0,30.0,0.0,0.0
3553,52.0,11.0,15.0,1.0,0.0
3554,60.0,1.0,60.0,1.0,0.0
3555,45.0,25.0,60.0,1.0,0.0
3556,57.0,0.0,60.0,1.0,0.0
3557,69.0,2.0,30.0,0.0,0.0
3558,71.0,30.0,30.0,0.0,0.0
3559,69.0,34.0,30.0,0.0,0.0
3560,73.0,23.0,30.0,0.0,0.0
3561,57.0,4.0,60.0,1.0,0.0
3562,55.0,2.0,60.0,1.0,0.0
3563,43.0,14.0,90.0,1.0,0.0
3564,64.0,10.0,60.0,0.0,0.0
3565,61.0,1.0,60.0,0.0,0.0
3566,69.0,4.0,30.0,0.0,0.0
3567,71.0,29.0,30.0,0.0,0.0
3568,69.0,37.0,30.0,0.0,0.0
3569,54.0,0.0,60.0,1.0,0.0
3570,42.0,27.0,60.0,1.0,0.0
3571,74.0,20.0,30.0,0.0,0.0
3572,66.0,4.0,60.0,0.0,0.0
3573,57.0,1.0,60.0,1.0,0.0
3574,62.0,0.0,60.0,0.0,0.0
3575,69.0,2.0,30.0,0.0,0.0
3576,71.0,28.0,30.0,0.0,0.0
3577,69.0,34.0,30.0,0.0,0.0
3578,41.0,10.0,90.0,1.0,0.0
3579,53.0,0.0,90.0,1.0,0.0
3580,60.0,2.0,90.0,1.0,0.0
3581,63.0,13.0,60.0,0.0,0.0
3582,75.0,26.0,30.0,0.0,0.0
3583,57.0,3.0,90.0,1.0,0.0
3584,69.0,4.0,30.0,0.0,0.0
3585,71.0,25.0,30.0,0.0,0.0
3586,69.0,30.0,30.0,0.0,0.0
3587,69.0,1.0,120.0,0.0,0.0
3588,64.0,1.0,120.0,0.0,0.0
3589,57.0,55.0,120.0,0.0,0.0
3590,52.0,2.0,30.0,1.0,0.0
3591,40.0,2.0,30.0,1.0,0.0
3592,61.0,2.0,120.0,0.0,0.0
3593,76.0,4.0,120.0,0.0,0.0
3594,45.0,1.0,30.0,1.0,0.0
3595,57.0,29.0,30.0,1.0,0.0
3596,49.0,2.0,30.0,1.0,0.0
3597,61.0,24.0,30.0,1.0,0.0
3598,57.0,1.0,30.0,1.0,0.0
3599,45.0,1.0,30.0,1.0,0.0
3600,40.0,4.0,120.0,1.0,0.0
3601,52.0,1.0,120.0,1.0,0.0
3602,57.0,2.0,30.0,0.0,0.0
3603,61.0,27.0,30.0,0.0,0.0
3604,62.0,2.0,30.0,0.0,0.0
3605,59.0,27.0,30.0,0.0,0.0
3606,61.0,7.0,30.0,0.0,0.0
3607,64.0,17.0,30.0,0.0,0.0
3608,66.0,27.0,30.0,0.0,0.0
3609,62.0,3.0,30.0,0.0,0.0
3610,68.0,2.0,30.0,0.0,0.0
3611,64.0,31.0,30.0,0.0,0.0
3612,69.0,7.0,30.0,0.0,0.0
3613,66.0,23.0,30.0,0.0,0.0
3614,71.0,12.0,30.0,0.0,0.0
3615,68.0,0.0,30.0,0.0,0.0
3616,74.0,5.0,15.0,0.0,0.0
3617,71.0,14.0,15.0,0.0,0.0
3618,73.0,4.0,15.0,0.0,0.0
3619,69.0,24.0,20.0,0.0,0.0
3620,71.0,31.0,30.0,0.0,0.0
3621,68.0,2.0,30.0,0.0,0.0
3622,73.0,25.0,30.0,0.0,0.0
3623,69.0,1.0,30.0,0.0,0.0
3624,74.0,29.0,30.0,0.0,0.0
3625,71.0,2.0,30.0,0.0,0.0
3626,40.0,26.0,30.0,1.0,0.0
3627,73.0,5.0,120.0,0.0,0.0
3628,52.0,4.0,30.0,1.0,0.0
3629,76.0,0.0,120.0,0.0,0.0
3630,45.0,28.0,30.0,1.0,0.0
3631,57.0,1.0,30.0,1.0,0.0
3632,61.0,24.0,30.0,1.0,0.0
3633,49.0,2.0,30.0,1.0,0.0
3634,45.0,59.0,30.0,1.0,0.0
3635,57.0,2.0,30.0,1.0,0.0
3636,52.0,6.0,120.0,1.0,0.0
3637,40.0,1.0,120.0,1.0,0.0
3638,57.0,27.0,30.0,0.0,0.0
3639,61.0,0.0,30.0,0.0,0.0
3640,59.0,21.0,30.0,0.0,0.0
3641,62.0,5.0,30.0,0.0,0.0
3642,64.0,2.0,30.0,0.0,0.0
3643,61.0,25.0,30.0,0.0,0.0
3644,62.0,3.0,30.0,0.0,0.0
3645,66.0,28.0,30.0,0.0,0.0
3646,68.0,2.0,30.0,0.0,0.0
3647,64.0,28.0,30.0,0.0,0.0
3648,66.0,28.0,30.0,0.0,0.0
3649,69.0,2.0,30.0,0.0,0.0
3650,71.0,33.0,30.0,0.0,0.0
3651,68.0,2.0,30.0,0.0,0.0
3652,69.0,1.0,30.0,0.0,0.0
3653,73.0,25.0,30.0,0.0,0.0
3654,74.0,3.0,30.0,0.0,0.0
3655,71.0,29.0,30.0,0.0,0.0
3656,72.0,28.0,30.0,0.0,0.0
3657,75.0,1.0,30.0,0.0,0.0
3658,76.0,230.0,30.0,0.0,0.0
3659,73.0,0.0,30.0,0.0,0.0
3660,51.0,1.0,240.0,1.0,0.0
3661,63.0,2.0,240.0,1.0,0.0
3662,78.0,117.0,240.0,0.0,0.0
3663,72.0,16.0,450.0,0.0,0.0
3664,69.0,43.0,840.0,0.0,0.0
3665,76.0,6.0,120.0,0.0,0.0
3666,64.0,98.0,120.0,1.0,0.0
3667,52.0,0.0,120.0,1.0,0.0
3668,65.0,2.0,120.0,1.0,0.0
3669,53.0,3.0,120.0,1.0,0.0
3670,75.0,80.0,120.0,0.0,0.0
3671,40.0,17.0,480.0,1.0,0.0
3672,76.0,4.0,300.0,0.0,0.0
3673,73.0,50.0,240.0,0.0,0.0
3674,52.0,13.0,30.0,1.0,0.0
3675,54.0,28.0,30.0,1.0,0.0
3676,56.0,32.0,30.0,1.0,0.0
3677,57.0,35.0,30.0,1.0,0.0
3678,59.0,26.0,30.0,1.0,0.0
3679,61.0,28.0,30.0,1.0,0.0
3680,62.0,2.0,30.0,1.0,0.0
3681,64.0,56.0,60.0,1.0,0.0
3682,66.0,1.0,60.0,1.0,0.0
3683,72.0,9.0,60.0,0.0,0.0
3684,75.0,11.0,60.0,0.0,0.0
3685,71.0,5.0,60.0,0.0,0.0
3686,74.0,42.0,60.0,0.0,0.0
3687,68.0,5.0,90.0,1.0,0.0
3688,69.0,8.0,60.0,0.0,0.0
3689,73.0,0.0,60.0,0.0,0.0
3690,69.0,3.0,15.0,0.0,0.0
3691,64.0,4.0,15.0,1.0,0.0
3692,73.0,8.0,20.0,0.0,0.0
3693,62.0,0.0,15.0,1.0,0.0
3694,68.0,14.0,15.0,0.0,0.0
3695,71.0,1.0,15.0,0.0,0.0
3696,40.0,0.0,30.0,1.0,0.0
3697,73.0,10.0,15.0,0.0,0.0
3698,69.0,2.0,15.0,0.0,0.0
3699,64.0,2.0,15.0,1.0,0.0
3700,71.0,1.0,15.0,0.0,0.0
3701,62.0,0.0,15.0,1.0,0.0
3702,68.0,15.0,15.0,0.0,0.0
3703,42.0,0.0,30.0,1.0,0.0
3704,64.0,1.0,15.0,1.0,0.0
3705,73.0,0.0,15.0,0.0,0.0
3706,69.0,14.0,15.0,0.0,0.0
3707,62.0,15.0,15.0,1.0,0.0
3708,71.0,0.0,15.0,0.0,0.0
3709,68.0,0.0,15.0,0.0,0.0
3710,69.0,1.0,15.0,0.0,0.0
3711,73.0,13.0,15.0,0.0,0.0
3712,44.0,2.0,30.0,1.0,0.0
3713,64.0,1.0,15.0,1.0,0.0
3714,71.0,0.0,15.0,0.0,0.0
3715,68.0,13.0,15.0,0.0,0.0
3716,62.0,0.0,15.0,1.0,0.0
3717,64.0,1.0,15.0,1.0,0.0
3718,45.0,0.0,30.0,1.0,0.0
3719,73.0,14.0,15.0,0.0,0.0
3720,69.0,0.0,15.0,0.0,0.0
3721,71.0,1.0,15.0,0.0,0.0
3722,68.0,12.0,15.0,0.0,0.0
3723,62.0,2.0,15.0,1.0,0.0
3724,69.0,13.0,15.0,0.0,0.0
3725,73.0,1.0,15.0,0.0,0.0
3726,47.0,1.0,30.0,1.0,0.0
3727,64.0,1.0,15.0,1.0,0.0
3728,62.0,0.0,15.0,1.0,0.0
3729,71.0,0.0,15.0,0.0,0.0
3730,68.0,14.0,15.0,0.0,0.0
3731,73.0,1.0,15.0,0.0,0.0
3732,49.0,2.0,30.0,1.0,0.0
3733,69.0,13.0,15.0,0.0,0.0
3734,64.0,1.0,15.0,1.0,0.0
3735,62.0,0.0,15.0,1.0,0.0
3736,71.0,13.0,15.0,0.0,0.0
3737,68.0,0.0,15.0,0.0,0.0
3738,64.0,2.0,15.0,1.0,0.0
3739,73.0,1.0,15.0,0.0,0.0
3740,69.0,12.0,15.0,0.0,0.0
3741,50.0,0.0,30.0,1.0,0.0
3742,71.0,0.0,15.0,0.0,0.0
3743,68.0,13.0,15.0,0.0,0.0
3744,62.0,2.0,15.0,1.0,0.0
3745,52.0,0.0,30.0,1.0,0.0
3746,64.0,1.0,15.0,1.0,0.0
3747,69.0,11.0,15.0,0.0,0.0
3748,73.0,3.0,15.0,0.0,0.0
3749,62.0,1.0,15.0,1.0,0.0
3750,68.0,1.0,15.0,0.0,0.0
3751,71.0,13.0,15.0,0.0,0.0
3752,73.0,0.0,15.0,0.0,0.0
3753,54.0,3.0,30.0,1.0,0.0
3754,69.0,12.0,15.0,0.0,0.0
3755,64.0,3.0,15.0,1.0,0.0
3756,68.0,11.0,15.0,0.0,0.0
3757,62.0,0.0,15.0,1.0,0.0
3758,71.0,1.0,15.0,0.0,0.0
3759,64.0,3.0,15.0,1.0,0.0
3760,69.0,11.0,15.0,0.0,0.0
3761,73.0,1.0,15.0,0.0,0.0
3762,52.0,0.0,30.0,1.0,0.0
3763,71.0,12.0,15.0,0.0,0.0
3764,62.0,1.0,15.0,1.0,0.0
3765,68.0,2.0,15.0,0.0,0.0
3766,69.0,2.0,15.0,0.0,0.0
3767,73.0,11.0,15.0,0.0,0.0
3768,51.0,0.0,30.0,1.0,0.0
3769,64.0,2.0,15.0,1.0,0.0
3770,68.0,12.0,15.0,0.0,0.0
3771,71.0,0.0,15.0,0.0,0.0
3772,62.0,3.0,15.0,1.0,0.0
3773,52.0,0.0,30.0,1.0,0.0
3774,64.0,3.0,15.0,1.0,0.0
3775,73.0,9.0,20.0,0.0,0.0
3776,69.0,2.0,15.0,0.0,0.0
3777,68.0,1.0,15.0,0.0,0.0
3778,71.0,11.0,15.0,0.0,0.0
3779,62.0,4.0,15.0,1.0,0.0
3780,73.0,14.0,15.0,0.0,0.0
3781,69.0,1.0,15.0,0.0,0.0
3782,64.0,0.0,15.0,1.0,0.0
3783,47.0,0.0,30.0,1.0,0.0
3784,71.0,1.0,15.0,0.0,0.0
3785,68.0,13.0,15.0,0.0,0.0
3786,62.0,1.0,15.0,1.0,0.0
3787,69.0,13.0,15.0,0.0,0.0
3788,73.0,0.0,15.0,0.0,0.0
3789,44.0,1.0,30.0,1.0,0.0
3790,64.0,2.0,15.0,1.0,0.0
3791,62.0,0.0,15.0,1.0,0.0
3792,68.0,12.0,15.0,0.0,0.0
3793,71.0,2.0,15.0,0.0,0.0
3794,40.0,31.0,30.0,1.0,0.0
3795,61.0,2.0,15.0,1.0,0.0
3796,66.0,11.0,15.0,0.0,0.0
3797,69.0,0.0,15.0,0.0,0.0
3798,68.0,2.0,15.0,0.0,0.0
3799,62.0,0.0,15.0,1.0,0.0
3800,71.0,0.0,15.0,0.0,0.0
3801,68.0,34.0,30.0,0.0,0.0
3802,61.0,3.0,60.0,1.0,0.0
3803,45.0,22.0,60.0,1.0,0.0
3804,69.0,1.0,30.0,0.0,0.0
3805,73.0,28.0,30.0,0.0,0.0
3806,69.0,30.0,30.0,0.0,0.0
3807,57.0,2.0,60.0,1.0,0.0
3808,61.0,0.0,60.0,1.0,0.0
3809,54.0,15.0,60.0,1.0,0.0
3810,65.0,30.0,30.0,0.0,0.0
3811,66.0,15.0,30.0,0.0,0.0
3812,69.0,29.0,30.0,0.0,0.0
3813,66.0,31.0,30.0,0.0,0.0
3814,57.0,1.0,60.0,1.0,0.0
3815,50.0,17.0,60.0,1.0,0.0
3816,61.0,29.0,30.0,0.0,0.0
3817,59.0,1.0,60.0,1.0,0.0
3818,62.0,14.0,30.0,0.0,0.0
3819,66.0,28.0,30.0,0.0,0.0
3820,62.0,32.0,30.0,0.0,0.0
3821,59.0,4.0,90.0,1.0,0.0
3822,56.0,25.0,90.0,1.0,0.0
3823,63.0,28.0,30.0,0.0,0.0
3824,52.0,1.0,90.0,1.0,0.0
3825,64.0,27.0,30.0,0.0,0.0
3826,68.0,1.0,30.0,0.0,0.0
3827,64.0,32.0,30.0,0.0,0.0
3828,57.0,22.0,30.0,1.0,0.0
3829,69.0,31.0,60.0,0.0,0.0
3830,64.0,3.0,60.0,0.0,0.0
3831,61.0,4.0,60.0,0.0,0.0
3832,61.0,2.0,30.0,1.0,0.0
3833,57.0,28.0,30.0,1.0,0.0
3834,53.0,28.0,30.0,1.0,0.0
3835,66.0,1.0,60.0,0.0,0.0
3836,61.0,6.0,60.0,0.0,0.0
3837,69.0,1.0,60.0,0.0,0.0
3838,73.0,24.0,60.0,0.0,0.0
3839,54.0,28.0,30.0,1.0,0.0
3840,57.0,1.0,30.0,1.0,0.0
3841,54.0,33.0,30.0,1.0,0.0
3842,49.0,27.0,30.0,1.0,0.0
3843,66.0,2.0,60.0,0.0,0.0
3844,59.0,1.0,60.0,0.0,0.0
3845,69.0,1.0,60.0,0.0,0.0
3846,50.0,28.0,30.0,1.0,0.0
3847,71.0,28.0,60.0,0.0,0.0
3848,54.0,2.0,30.0,1.0,0.0
3849,50.0,29.0,30.0,1.0,0.0
3850,47.0,30.0,30.0,1.0,0.0
3851,76.0,1.0,60.0,0.0,0.0
3852,68.0,3.0,60.0,0.0,0.0
3853,59.0,20.0,60.0,0.0,0.0
3854,52.0,28.0,30.0,1.0,0.0
3855,62.0,0.0,60.0,0.0,0.0
3856,47.0,9.0,30.0,1.0,0.0
3857,44.0,29.0,30.0,1.0,0.0
3858,40.0,65.0,30.0,1.0,0.0
3859,57.0,164.0,60.0,1.0,0.0
3860,45.0,0.0,60.0,1.0,0.0
3861,69.0,2.0,60.0,0.0,0.0
3862,64.0,1.0,60.0,0.0,0.0
3863,61.0,0.0,60.0,0.0,0.0
3864,57.0,5.0,120.0,1.0,0.0
3865,64.0,7.0,240.0,0.0,0.0
3866,60.0,111.0,120.0,0.0,0.0
3867,59.0,106.0,120.0,0.0,0.0
3868,55.0,5.0,120.0,1.0,0.0
3869,63.0,134.0,120.0,0.0,0.0
3870,54.0,5.0,120.0,1.0,0.0
3871,57.0,0.0,120.0,0.0,0.0
3872,59.0,1.0,120.0,0.0,0.0
3873,52.0,69.0,120.0,1.0,0.0
3874,64.0,0.0,120.0,0.0,0.0
3875,40.0,0.0,120.0,1.0,0.0
3876,55.0,3.0,120.0,1.0,0.0
3877,52.0,1.0,15.0,1.0,0.0
3878,55.0,2.0,20.0,1.0,0.0
3879,59.0,0.0,15.0,0.0,0.0
3880,64.0,28.0,20.0,0.0,0.0
3881,64.0,130.0,20.0,0.0,0.0
3882,52.0,1.0,20.0,1.0,0.0
3883,55.0,5.0,20.0,1.0,0.0
3884,59.0,0.0,20.0,0.0,0.0
3885,71.0,3.0,120.0,0.0,0.0
3886,66.0,0.0,120.0,0.0,0.0
3887,59.0,64.0,120.0,1.0,0.0
3888,50.0,4.0,120.0,1.0,0.0
3889,71.0,0.0,20.0,0.0,0.0
3890,50.0,4.0,15.0,1.0,0.0
3891,59.0,1.0,20.0,1.0,0.0
3892,66.0,29.0,20.0,0.0,0.0
3893,66.0,2.0,20.0,0.0,0.0
3894,50.0,131.0,20.0,1.0,0.0
3895,59.0,0.0,20.0,1.0,0.0
3896,71.0,3.0,20.0,0.0,0.0
3897,58.0,55.0,150.0,1.0,0.0
3898,49.0,1.0,150.0,1.0,0.0
3899,67.0,5.0,120.0,0.0,0.0
3900,76.0,8.0,120.0,0.0,0.0
3901,58.0,2.0,15.0,1.0,0.0
3902,46.0,0.0,15.0,1.0,0.0
3903,64.0,2.0,15.0,1.0,0.0
3904,61.0,1.0,15.0,1.0,0.0
3905,66.0,26.0,20.0,0.0,0.0
3906,73.0,1.0,20.0,0.0,0.0
3907,73.0,1.0,20.0,0.0,0.0
3908,66.0,2.0,15.0,0.0,0.0
3909,46.0,1.0,15.0,1.0,0.0
3910,61.0,0.0,15.0,1.0,0.0
3911,58.0,0.0,15.0,1.0,0.0
3912,64.0,132.0,20.0,1.0,0.0
3913,74.0,1.0,120.0,0.0,0.0
3914,47.0,67.0,120.0,1.0,0.0
3915,59.0,3.0,120.0,1.0,0.0
3916,62.0,0.0,120.0,1.0,0.0
3917,66.0,3.0,120.0,0.0,0.0
3918,70.0,3.0,20.0,0.0,0.0
3919,64.0,8.0,20.0,0.0,0.0
3920,42.0,0.0,15.0,1.0,0.0
3921,61.0,0.0,15.0,1.0,0.0
3922,54.0,2.0,15.0,1.0,0.0
3923,64.0,4.0,20.0,0.0,0.0
3924,70.0,63.0,20.0,0.0,0.0
3925,43.0,12.0,120.0,1.0,0.0
3926,62.0,36.0,150.0,0.0,0.0
3927,55.0,0.0,120.0,1.0,0.0
3928,59.0,2.0,120.0,1.0,0.0
3929,71.0,65.0,60.0,0.0,0.0
3930,73.0,7.0,60.0,0.0,0.0
3931,74.0,47.0,60.0,0.0,0.0
3932,50.0,0.0,60.0,1.0,0.0
3933,59.0,10.0,60.0,0.0,0.0
3934,66.0,119.0,60.0,0.0,0.0
3935,59.0,1.0,120.0,0.0,0.0
3936,67.0,4.0,120.0,0.0,0.0
3937,52.0,95.0,120.0,1.0,0.0
3938,66.0,13.0,90.0,0.0,0.0
3939,71.0,4.0,240.0,0.0,0.0
3940,50.0,3.0,120.0,1.0,0.0
3941,59.0,25.0,120.0,1.0,0.0
3942,49.0,3.0,120.0,1.0,0.0
3943,61.0,3.0,240.0,1.0,0.0
3944,66.0,12.0,15.0,0.0,0.0
3945,64.0,16.0,15.0,0.0,0.0
3946,66.0,17.0,15.0,0.0,0.0
3947,64.0,16.0,15.0,0.0,0.0
3948,66.0,14.0,15.0,0.0,0.0
3949,64.0,11.0,15.0,0.0,0.0
3950,62.0,8.0,15.0,0.0,0.0
3951,64.0,56.0,15.0,0.0,0.0
3952,42.0,2.0,120.0,1.0,0.0
3953,70.0,3.0,120.0,0.0,0.0
3954,66.0,58.0,60.0,0.0,0.0
3955,64.0,119.0,60.0,0.0,0.0
3956,71.0,51.0,120.0,0.0,0.0
3957,62.0,2.0,120.0,0.0,0.0
3958,47.0,1.0,120.0,1.0,0.0
3959,59.0,4.0,120.0,1.0,0.0
3960,66.0,30.0,30.0,0.0,0.0
3961,62.0,3.0,30.0,0.0,0.0
3962,68.0,3.0,30.0,0.0,0.0
3963,64.0,24.0,30.0,0.0,0.0
3964,70.0,3.0,30.0,0.0,0.0
3965,66.0,31.0,30.0,0.0,0.0
3966,68.0,0.0,30.0,0.0,0.0
3967,71.0,29.0,30.0,0.0,0.0
3968,73.0,28.0,30.0,0.0,0.0
3969,70.0,0.0,30.0,0.0,0.0
3970,74.0,4.0,30.0,0.0,0.0
3971,71.0,29.0,30.0,0.0,0.0
3972,76.0,1.0,30.0,0.0,0.0
3973,73.0,51.0,30.0,0.0,0.0
3974,78.0,2.0,180.0,0.0,0.0
3975,74.0,21.0,180.0,0.0,0.0
3976,62.0,28.0,30.0,1.0,0.0
3977,59.0,6.0,20.0,1.0,0.0
3978,64.0,26.0,30.0,1.0,0.0
3979,61.0,1.0,30.0,1.0,0.0
3980,66.0,5.0,20.0,1.0,0.0
3981,62.0,28.0,30.0,1.0,0.0
3982,68.0,6.0,30.0,1.0,0.0
3983,64.0,21.0,30.0,1.0,0.0
3984,62.0,0.0,30.0,1.0,0.0
3985,66.0,2.0,30.0,1.0,0.0
3986,68.0,38.0,20.0,1.0,0.0
3987,73.0,0.0,60.0,0.0,0.0
3988,76.0,3.0,60.0,0.0,0.0
3989,64.0,1.0,20.0,1.0,0.0
3990,66.0,1.0,30.0,1.0,0.0
3991,70.0,58.0,30.0,1.0,0.0
3992,71.0,4.0,240.0,0.0,0.0
3993,74.0,22.0,90.0,0.0,0.0
3994,55.0,31.0,30.0,1.0,0.0
3995,54.0,8.0,30.0,1.0,0.0
3996,55.0,14.0,30.0,1.0,0.0
3997,74.0,14.0,15.0,0.0,0.0
3998,52.0,17.0,30.0,1.0,0.0
3999,73.0,1.0,15.0,0.0,0.0
4000,50.0,1.0,30.0,1.0,0.0
4001,74.0,13.0,15.0,0.0,0.0
4002,73.0,15.0,15.0,0.0,0.0
4003,74.0,14.0,15.0,0.0,0.0
4004,52.0,14.0,30.0,1.0,0.0
4005,73.0,3.0,15.0,0.0,0.0
4006,74.0,4.0,15.0,0.0,0.0
4007,49.0,6.0,20.0,1.0,0.0
4008,73.0,15.0,15.0,0.0,0.0
4009,74.0,15.0,15.0,0.0,0.0
4010,69.0,8.0,240.0,0.0,0.0
4011,73.0,18.0,15.0,0.0,0.0
4012,74.0,10.0,20.0,0.0,0.0
4013,54.0,1.0,30.0,1.0,0.0
4014,73.0,17.0,15.0,0.0,0.0
4015,52.0,0.0,30.0,1.0,0.0
4016,74.0,13.0,15.0,0.0,0.0
4017,73.0,15.0,15.0,0.0,0.0
4018,54.0,29.0,30.0,1.0,0.0
4019,71.0,8.0,15.0,0.0,0.0
4020,73.0,6.0,15.0,0.0,0.0
4021,51.0,33.0,30.0,1.0,0.0
4022,71.0,62.0,120.0,0.0,0.0
4023,49.0,31.0,30.0,1.0,0.0
4024,51.0,17.0,30.0,1.0,0.0
4025,47.0,2.0,30.0,1.0,0.0
4026,67.0,17.0,90.0,0.0,0.0
4027,76.0,4.0,240.0,0.0,0.0
4028,60.0,30.0,30.0,1.0,0.0
4029,59.0,12.0,30.0,1.0,0.0
4030,60.0,16.0,30.0,1.0,0.0
4031,67.0,14.0,15.0,0.0,0.0
4032,57.0,0.0,30.0,1.0,0.0
4033,66.0,17.0,15.0,0.0,0.0
4034,67.0,12.0,15.0,0.0,0.0
4035,55.0,19.0,30.0,1.0,0.0
4036,66.0,0.0,15.0,0.0,0.0
4037,67.0,11.0,15.0,0.0,0.0
4038,57.0,10.0,30.0,1.0,0.0
4039,66.0,6.0,15.0,0.0,0.0
4040,54.0,2.0,30.0,1.0,0.0
4041,67.0,8.0,15.0,0.0,0.0
4042,66.0,16.0,15.0,0.0,0.0
4043,74.0,2.0,240.0,0.0,0.0
4044,67.0,15.0,15.0,0.0,0.0
4045,66.0,13.0,15.0,0.0,0.0
4046,67.0,17.0,15.0,0.0,0.0
4047,59.0,1.0,30.0,1.0,0.0
4048,66.0,17.0,15.0,0.0,0.0
4049,67.0,10.0,15.0,0.0,0.0
4050,57.0,2.0,30.0,1.0,0.0
4051,66.0,17.0,15.0,0.0,0.0
4052,64.0,11.0,15.0,0.0,0.0
4053,59.0,30.0,30.0,1.0,0.0
4054,66.0,2.0,15.0,0.0,0.0
4055,56.0,31.0,30.0,1.0,0.0
4056,64.0,16.0,90.0,0.0,0.0
4057,54.0,32.0,30.0,1.0,0.0
4058,56.0,5.0,30.0,1.0,0.0
4059,52.0,63.0,30.0,1.0,0.0
4060,73.0,15.0,90.0,0.0,0.0
4061,69.0,3.0,240.0,0.0,0.0
4062,54.0,28.0,30.0,1.0,0.0
4063,52.0,18.0,30.0,1.0,0.0
4064,54.0,14.0,30.0,1.0,0.0
4065,50.0,2.0,30.0,1.0,0.0
4066,73.0,16.0,15.0,0.0,0.0
4067,71.0,18.0,15.0,0.0,0.0
4068,49.0,1.0,30.0,1.0,0.0
4069,73.0,9.0,20.0,0.0,0.0
4070,71.0,18.0,15.0,0.0,0.0
4071,73.0,12.0,15.0,0.0,0.0
4072,50.0,15.0,30.0,1.0,0.0
4073,71.0,2.0,15.0,0.0,0.0
4074,47.0,1.0,30.0,1.0,0.0
4075,73.0,10.0,15.0,0.0,0.0
4076,71.0,17.0,15.0,0.0,0.0
4077,73.0,12.0,15.0,0.0,0.0
4078,67.0,7.0,240.0,0.0,0.0
4079,71.0,17.0,15.0,0.0,0.0
4080,52.0,2.0,30.0,1.0,0.0
4081,73.0,13.0,15.0,0.0,0.0
4082,71.0,17.0,15.0,0.0,0.0
4083,73.0,10.0,20.0,0.0,0.0
4084,50.0,1.0,30.0,1.0,0.0
4085,71.0,16.0,15.0,0.0,0.0
4086,52.0,28.0,30.0,1.0,0.0
4087,69.0,12.0,15.0,0.0,0.0
4088,71.0,2.0,15.0,0.0,0.0
4089,69.0,52.0,120.0,0.0,0.0
4090,49.0,31.0,30.0,1.0,0.0
4091,47.0,36.0,30.0,1.0,0.0
4092,49.0,18.0,30.0,1.0,0.0
4093,45.0,5.0,20.0,1.0,0.0
4094,74.0,12.0,210.0,0.0,0.0
4095,66.0,18.0,90.0,0.0,0.0
4096,59.0,30.0,30.0,1.0,0.0
4097,57.0,17.0,30.0,1.0,0.0
4098,59.0,27.0,30.0,1.0,0.0
4099,64.0,22.0,210.0,0.0,0.0
4100,55.0,31.0,30.0,1.0,0.0
4101,54.0,30.0,30.0,1.0,0.0
4102,55.0,13.0,30.0,1.0,0.0
4103,52.0,66.0,20.0,1.0,0.0
4104,73.0,3.0,210.0,0.0,0.0
4105,57.0,27.0,30.0,1.0,0.0
4106,55.0,10.0,30.0,1.0,0.0
4107,57.0,28.0,30.0,1.0,0.0
4108,62.0,0.0,180.0,0.0,0.0
4109,54.0,30.0,30.0,1.0,0.0
4110,52.0,1.0,30.0,1.0,0.0
4111,78.0,31.0,30.0,0.0,0.0
4112,54.0,14.0,30.0,1.0,0.0
4113,76.0,1.0,30.0,0.0,0.0
4114,50.0,18.0,15.0,1.0,0.0
4115,78.0,25.0,30.0,0.0,0.0
4116,71.0,17.0,60.0,0.0,0.0
4117,74.0,28.0,30.0,0.0,0.0
4118,73.0,6.0,30.0,0.0,0.0
4119,59.0,3.0,30.0,1.0,0.0
4120,55.0,1.0,30.0,1.0,0.0
4121,74.0,27.0,30.0,0.0,0.0
4122,57.0,2.0,30.0,1.0,0.0
4123,54.0,2.0,30.0,1.0,0.0
4124,55.0,2.0,30.0,1.0,0.0
4125,59.0,28.0,30.0,1.0,0.0
4126,71.0,1.0,30.0,0.0,0.0
4127,52.0,1.0,30.0,1.0,0.0
4128,55.0,28.0,30.0,1.0,0.0
4129,54.0,1.0,30.0,1.0,0.0
4130,50.0,0.0,30.0,1.0,0.0
4131,73.0,1.0,30.0,0.0,0.0
4132,76.0,24.0,30.0,0.0,0.0
4133,52.0,7.0,20.0,1.0,0.0
4134,74.0,25.0,30.0,0.0,0.0
4135,71.0,0.0,30.0,0.0,0.0
4136,55.0,0.0,30.0,1.0,0.0
4137,52.0,2.0,30.0,1.0,0.0
4138,49.0,3.0,20.0,1.0,0.0
4139,73.0,2.0,30.0,0.0,0.0
4140,76.0,28.0,30.0,0.0,0.0
4141,73.0,2.0,30.0,0.0,0.0
4142,70.0,26.0,30.0,0.0,0.0
4143,68.0,24.0,30.0,0.0,0.0
4144,71.0,1.0,30.0,0.0,0.0
4145,54.0,1.0,30.0,1.0,0.0
4146,58.0,3.0,30.0,1.0,0.0
4147,52.0,3.0,30.0,1.0,0.0
4148,56.0,1.0,30.0,1.0,0.0
4149,73.0,1.0,30.0,0.0,0.0
4150,58.0,30.0,30.0,1.0,0.0
4151,54.0,2.0,30.0,1.0,0.0
4152,66.0,1.0,20.0,0.0,0.0
4153,70.0,22.0,15.0,0.0,0.0
4154,50.0,1.0,30.0,1.0,0.0
4155,54.0,20.0,30.0,1.0,0.0
4156,71.0,0.0,30.0,0.0,0.0
4157,74.0,24.0,30.0,0.0,0.0
4158,52.0,9.0,20.0,1.0,0.0
4159,49.0,1.0,30.0,1.0,0.0
4160,54.0,26.0,30.0,1.0,0.0
4161,73.0,1.0,30.0,0.0,0.0
4162,69.0,0.0,30.0,0.0,0.0
4163,50.0,5.0,20.0,1.0,0.0
4164,47.0,1.0,30.0,1.0,0.0
4165,50.0,3.0,30.0,1.0,0.0
4166,74.0,24.0,30.0,0.0,0.0
4167,71.0,3.0,30.0,0.0,0.0
4168,71.0,4.0,30.0,0.0,0.0
4169,68.0,26.0,30.0,0.0,0.0
4170,56.0,0.0,30.0,1.0,0.0
4171,52.0,2.0,30.0,1.0,0.0
4172,69.0,29.0,30.0,0.0,0.0
4173,66.0,1.0,30.0,0.0,0.0
4174,54.0,1.0,30.0,1.0,0.0
4175,50.0,0.0,30.0,1.0,0.0
4176,71.0,3.0,30.0,0.0,0.0
4177,52.0,27.0,60.0,1.0,0.0
4178,56.0,30.0,30.0,1.0,0.0
4179,64.0,3.0,20.0,0.0,0.0
4180,68.0,16.0,15.0,0.0,0.0
4181,49.0,3.0,30.0,1.0,0.0
4182,47.0,0.0,30.0,1.0,0.0
4183,50.0,2.0,30.0,1.0,0.0
4184,73.0,1.0,30.0,0.0,0.0
4185,69.0,30.0,30.0,0.0,0.0
4186,49.0,1.0,30.0,1.0,0.0
4187,52.0,20.0,30.0,1.0,0.0
4188,68.0,2.0,30.0,0.0,0.0
4189,71.0,1.0,30.0,0.0,0.0
4190,45.0,3.0,20.0,1.0,0.0
4191,73.0,27.0,30.0,0.0,0.0
4192,49.0,6.0,30.0,1.0,0.0
4193,66.0,1.0,30.0,0.0,0.0
4194,69.0,1.0,15.0,0.0,0.0
4195,68.0,5.0,30.0,0.0,0.0
4196,50.0,2.0,30.0,1.0,0.0
4197,54.0,2.0,30.0,1.0,0.0
4198,64.0,24.0,30.0,0.0,0.0
4199,49.0,20.0,30.0,1.0,0.0
4200,52.0,0.0,30.0,1.0,0.0
4201,66.0,0.0,30.0,0.0,0.0
4202,69.0,1.0,30.0,0.0,0.0
4203,62.0,2.0,30.0,0.0,0.0
4204,66.0,27.0,30.0,0.0,0.0
4205,50.0,1.0,30.0,1.0,0.0
4206,54.0,10.0,20.0,1.0,0.0
4207,68.0,30.0,30.0,0.0,0.0
4208,47.0,0.0,60.0,1.0,0.0
4209,54.0,22.0,60.0,1.0,0.0
4210,71.0,0.0,30.0,0.0,0.0
4211,59.0,1.0,60.0,1.0,0.0
4212,62.0,0.0,60.0,1.0,0.0
4213,69.0,5.0,30.0,0.0,0.0
4214,66.0,2.0,30.0,0.0,0.0
4215,71.0,3.0,30.0,0.0,0.0
4216,68.0,27.0,15.0,0.0,0.0
4217,65.0,0.0,30.0,0.0,0.0
4218,48.0,1.0,90.0,1.0,0.0
4219,66.0,23.0,30.0,0.0,0.0
4220,57.0,0.0,90.0,1.0,0.0
4221,63.0,3.0,90.0,1.0,0.0
4222,54.0,1.0,90.0,1.0,0.0
4223,69.0,4.0,30.0,0.0,0.0
4224,68.0,24.0,30.0,0.0,0.0
4225,65.0,5.0,30.0,0.0,0.0
4226,66.0,0.0,30.0,0.0,0.0
4227,69.0,26.0,30.0,0.0,0.0
4228,66.0,61.0,30.0,0.0,0.0
4229,63.0,3.0,30.0,0.0,0.0
4230,61.0,4.0,120.0,0.0,0.0
4231,65.0,24.0,120.0,0.0,0.0
4232,49.0,30.0,30.0,1.0,0.0
4233,53.0,30.0,30.0,1.0,0.0
4234,56.0,1.0,30.0,1.0,0.0
4235,61.0,33.0,30.0,1.0,0.0
4236,57.0,2.0,30.0,1.0,0.0
4237,61.0,26.0,30.0,0.0,0.0
4238,59.0,23.0,30.0,1.0,0.0
4239,65.0,7.0,60.0,0.0,0.0
4240,56.0,31.0,30.0,1.0,0.0
4241,68.0,0.0,30.0,0.0,0.0
4242,57.0,2.0,60.0,1.0,0.0
4243,69.0,28.0,30.0,0.0,0.0
4244,73.0,28.0,15.0,0.0,0.0
4245,56.0,3.0,60.0,1.0,0.0
4246,75.0,23.0,30.0,0.0,0.0
4247,71.0,5.0,30.0,0.0,0.0
4248,77.0,4.0,30.0,0.0,0.0
4249,68.0,25.0,30.0,0.0,0.0
4250,70.0,26.0,30.0,0.0,0.0
4251,54.0,3.0,90.0,1.0,0.0
4252,78.0,2.0,30.0,0.0,0.0
4253,62.0,1.0,30.0,1.0,0.0
4254,74.0,2.0,30.0,0.0,0.0
4255,71.0,26.0,30.0,0.0,0.0
4256,76.0,19.0,30.0,0.0,0.0
4257,68.0,1.0,30.0,0.0,0.0
4258,61.0,0.0,30.0,1.0,0.0
4259,66.0,1.0,30.0,1.0,0.0
4260,70.0,59.0,30.0,0.0,0.0
4261,73.0,2.0,30.0,0.0,0.0
4262,58.0,9.0,15.0,1.0,0.0
4263,59.0,9.0,120.0,1.0,0.0
4264,71.0,3.0,120.0,0.0,0.0
4265,74.0,2.0,120.0,0.0,0.0
4266,47.0,32.0,30.0,1.0,0.0
4267,50.0,14.0,30.0,1.0,0.0
4268,54.0,29.0,30.0,1.0,0.0
4269,59.0,30.0,30.0,1.0,0.0
4270,56.0,5.0,30.0,1.0,0.0
4271,59.0,26.0,30.0,0.0,0.0
4272,57.0,8.0,30.0,1.0,0.0
4273,62.0,20.0,30.0,0.0,0.0
4274,66.0,31.0,30.0,0.0,0.0
4275,54.0,1.0,30.0,1.0,0.0
4276,56.0,3.0,60.0,1.0,0.0
4277,68.0,31.0,30.0,0.0,0.0
4278,71.0,26.0,15.0,0.0,0.0
4279,73.0,24.0,30.0,0.0,0.0
4280,69.0,2.0,30.0,0.0,0.0
4281,54.0,5.0,60.0,1.0,0.0
4282,75.0,28.0,30.0,0.0,0.0
4283,66.0,1.0,30.0,0.0,0.0
4284,52.0,22.0,60.0,1.0,0.0
4285,76.0,27.0,30.0,0.0,0.0
4286,68.0,2.0,30.0,0.0,0.0
4287,61.0,2.0,30.0,1.0,0.0
4288,73.0,5.0,30.0,0.0,0.0
4289,69.0,2.0,30.0,0.0,0.0
4290,74.0,26.0,30.0,0.0,0.0
4291,66.0,0.0,30.0,0.0,0.0
4292,59.0,1.0,30.0,1.0,0.0
4293,71.0,119.0,30.0,0.0,0.0
4294,68.0,3.0,30.0,0.0,0.0
4295,64.0,3.0,30.0,1.0,0.0
4296,57.0,2.0,120.0,1.0,0.0
4297,64.0,0.0,120.0,0.0,0.0
4298,69.0,0.0,120.0,0.0,0.0
4299,61.0,1.0,120.0,1.0,0.0
4300,45.0,73.0,120.0,1.0,0.0
4301,69.0,24.0,20.0,0.0,0.0
4302,64.0,1.0,20.0,0.0,0.0
4303,61.0,0.0,20.0,1.0,0.0
4304,57.0,1.0,20.0,1.0,0.0
4305,45.0,1.0,20.0,1.0,0.0
4306,61.0,1.0,20.0,1.0,0.0
4307,45.0,2.0,15.0,1.0,0.0
4308,57.0,2.0,15.0,1.0,0.0
4309,69.0,138.0,20.0,0.0,0.0
4310,64.0,2.0,20.0,0.0,0.0
4311,59.0,43.0,150.0,1.0,0.0
4312,44.0,2.0,150.0,1.0,0.0
4313,64.0,16.0,120.0,0.0,0.0
4314,56.0,0.0,150.0,1.0,0.0
4315,71.0,5.0,150.0,0.0,0.0
4316,64.0,22.0,20.0,0.0,0.0
4317,71.0,3.0,20.0,0.0,0.0
4318,44.0,1.0,15.0,1.0,0.0
4319,59.0,0.0,15.0,1.0,0.0
4320,56.0,1.0,15.0,1.0,0.0
4321,64.0,138.0,20.0,0.0,0.0
4322,71.0,5.0,20.0,0.0,0.0
4323,44.0,3.0,15.0,1.0,0.0
4324,59.0,0.0,20.0,1.0,0.0
4325,56.0,2.0,15.0,1.0,0.0
4326,61.0,38.0,150.0,1.0,0.0
4327,57.0,2.0,150.0,1.0,0.0
4328,54.0,2.0,150.0,1.0,0.0
4329,42.0,0.0,150.0,1.0,0.0
4330,73.0,6.0,150.0,0.0,0.0
4331,69.0,17.0,120.0,0.0,0.0
4332,54.0,0.0,15.0,1.0,0.0
4333,42.0,1.0,20.0,1.0,0.0
4334,61.0,0.0,20.0,1.0,0.0
4335,57.0,1.0,20.0,1.0,0.0
4336,73.0,2.0,15.0,0.0,0.0
4337,69.0,26.0,20.0,0.0,0.0
4338,54.0,0.0,15.0,1.0,0.0
4339,69.0,136.0,20.0,0.0,0.0
4340,42.0,1.0,20.0,1.0,0.0
4341,57.0,1.0,15.0,1.0,0.0
4342,73.0,2.0,15.0,0.0,0.0
4343,61.0,2.0,20.0,1.0,0.0
4344,71.0,2.0,150.0,0.0,0.0
4345,68.0,1.0,150.0,0.0,0.0
4346,76.0,42.0,150.0,0.0,0.0
4347,64.0,6.0,120.0,1.0,0.0
4348,40.0,2.0,120.0,1.0,0.0
4349,59.0,0.0,120.0,1.0,0.0
4350,52.0,2.0,150.0,1.0,0.0
4351,56.0,1.0,150.0,1.0,0.0
4352,61.0,15.0,15.0,0.0,0.0
4353,59.0,1.0,20.0,0.0,0.0
4354,64.0,1.0,20.0,0.0,0.0
4355,56.0,23.0,20.0,1.0,0.0
4356,50.0,2.0,20.0,1.0,0.0
4357,50.0,1.0,15.0,1.0,0.0
4358,56.0,5.0,15.0,1.0,0.0
4359,59.0,63.0,30.0,0.0,0.0
4360,64.0,3.0,20.0,0.0,0.0
4361,57.0,3.0,120.0,1.0,0.0
4362,49.0,39.0,150.0,1.0,0.0
4363,64.0,9.0,120.0,0.0,0.0
4364,61.0,2.0,120.0,0.0,0.0
4365,69.0,58.0,60.0,0.0,0.0
4366,71.0,8.0,60.0,0.0,0.0
4367,73.0,50.0,60.0,0.0,0.0
4368,49.0,3.0,60.0,1.0,0.0
4369,57.0,8.0,60.0,0.0,0.0
4370,64.0,121.0,60.0,0.0,0.0
4371,50.0,2.0,120.0,1.0,0.0
4372,66.0,1.0,120.0,0.0,0.0
4373,57.0,94.0,120.0,0.0,0.0
4374,57.0,25.0,120.0,1.0,0.0
4375,69.0,6.0,240.0,0.0,0.0
4376,64.0,15.0,90.0,0.0,0.0
4377,49.0,1.0,120.0,1.0,0.0
4378,64.0,12.0,15.0,0.0,0.0
4379,47.0,1.0,120.0,1.0,0.0
4380,59.0,5.0,240.0,1.0,0.0
4381,62.0,14.0,15.0,0.0,0.0
4382,64.0,14.0,15.0,0.0,0.0
4383,62.0,22.0,15.0,0.0,0.0
4384,64.0,9.0,20.0,0.0,0.0
4385,62.0,17.0,15.0,0.0,0.0
4386,61.0,5.0,15.0,0.0,0.0
4387,62.0,58.0,15.0,0.0,0.0
4388,40.0,3.0,120.0,1.0,0.0
4389,64.0,56.0,60.0,0.0,0.0
4390,68.0,121.0,120.0,0.0,0.0
4391,62.0,2.0,60.0,0.0,0.0
4392,45.0,2.0,120.0,1.0,0.0
4393,69.0,0.0,120.0,0.0,0.0
4394,61.0,52.0,120.0,0.0,0.0
4395,57.0,0.0,120.0,1.0,0.0
4396,61.0,4.0,30.0,0.0,0.0
4397,64.0,26.0,30.0,0.0,0.0
4398,66.0,31.0,30.0,0.0,0.0
4399,62.0,2.0,30.0,0.0,0.0
4400,68.0,30.0,30.0,0.0,0.0
4401,64.0,0.0,30.0,0.0,0.0
4402,69.0,0.0,30.0,0.0,0.0
4403,66.0,29.0,30.0,0.0,0.0
4404,71.0,28.0,30.0,0.0,0.0
4405,68.0,1.0,30.0,0.0,0.0
4406,69.0,2.0,30.0,0.0,0.0
4407,73.0,30.0,30.0,0.0,0.0
4408,71.0,1.0,30.0,0.0,0.0
4409,74.0,50.0,30.0,0.0,0.0
4410,76.0,8.0,180.0,0.0,0.0
4411,73.0,16.0,180.0,0.0,0.0
4412,57.0,7.0,20.0,1.0,0.0
4413,61.0,27.0,30.0,1.0,0.0
4414,59.0,5.0,20.0,1.0,0.0
4415,62.0,27.0,30.0,1.0,0.0
4416,64.0,2.0,30.0,1.0,0.0
4417,61.0,27.0,30.0,1.0,0.0
4418,66.0,24.0,30.0,1.0,0.0
4419,62.0,1.0,30.0,1.0,0.0
4420,61.0,2.0,30.0,1.0,0.0
4421,64.0,1.0,30.0,1.0,0.0
4422,62.0,32.0,20.0,1.0,0.0
4423,74.0,1.0,60.0,0.0,0.0
4424,71.0,58.0,60.0,0.0,0.0
4425,66.0,2.0,15.0,1.0,0.0
4426,64.0,0.0,20.0,1.0,0.0
4427,68.0,9.0,20.0,1.0,0.0
4428,66.0,6.0,240.0,1.0,0.0
4429,69.0,4.0,240.0,0.0,0.0
4430,73.0,22.0,90.0,0.0,0.0
4431,54.0,32.0,30.0,1.0,0.0
4432,52.0,10.0,30.0,1.0,0.0
4433,54.0,14.0,30.0,1.0,0.0
4434,50.0,16.0,30.0,1.0,0.0
4435,73.0,12.0,15.0,0.0,0.0
4436,71.0,2.0,15.0,0.0,0.0
4437,47.0,16.0,30.0,1.0,0.0
4438,73.0,10.0,15.0,0.0,0.0
4439,71.0,4.0,15.0,0.0,0.0
4440,73.0,10.0,15.0,0.0,0.0
4441,49.0,9.0,30.0,1.0,0.0
4442,71.0,10.0,15.0,0.0,0.0
4443,50.0,14.0,30.0,1.0,0.0
4444,73.0,4.0,15.0,0.0,0.0
4445,71.0,1.0,15.0,0.0,0.0
4446,64.0,28.0,60.0,1.0,0.0
4447,73.0,12.0,15.0,0.0,0.0
4448,52.0,16.0,30.0,1.0,0.0
4449,68.0,53.0,120.0,0.0,0.0
4450,71.0,1.0,15.0,0.0,0.0
4451,50.0,3.0,30.0,1.0,0.0
4452,73.0,12.0,15.0,0.0,0.0
4453,71.0,1.0,15.0,0.0,0.0
4454,52.0,2.0,30.0,1.0,0.0
4455,69.0,28.0,30.0,0.0,0.0
4456,62.0,1.0,60.0,1.0,0.0
4457,71.0,3.0,30.0,0.0,0.0
4458,40.0,2.0,30.0,1.0,0.0
4459,61.0,3.0,120.0,1.0,0.0
4460,45.0,2.0,120.0,1.0,0.0
4461,69.0,33.0,60.0,0.0,0.0
4462,73.0,24.0,30.0,0.0,0.0
4463,71.0,31.0,30.0,0.0,0.0
4464,69.0,31.0,30.0,0.0,0.0
4465,68.0,26.0,30.0,0.0,0.0
4466,49.0,1.0,60.0,1.0,0.0
4467,66.0,29.0,30.0,0.0,0.0
4468,45.0,1.0,60.0,1.0,0.0
4469,57.0,3.0,120.0,0.0,0.0
4470,64.0,60.0,30.0,0.0,0.0
4471,47.0,2.0,120.0,1.0,0.0
4472,50.0,5.0,120.0,1.0,0.0
4473,62.0,26.0,60.0,0.0,0.0
4474,56.0,23.0,60.0,0.0,0.0
4475,74.0,32.0,30.0,0.0,0.0
4476,73.0,1.0,30.0,0.0,0.0
4477,71.0,29.0,30.0,0.0,0.0
4478,69.0,28.0,30.0,0.0,0.0
4479,68.0,29.0,30.0,0.0,0.0
4480,59.0,24.0,120.0,0.0,0.0
4481,50.0,0.0,60.0,1.0,0.0
4482,47.0,3.0,60.0,1.0,0.0
4483,66.0,58.0,30.0,0.0,0.0
4484,64.0,8.0,60.0,0.0,0.0
4485,49.0,27.0,120.0,1.0,0.0
4486,52.0,0.0,120.0,1.0,0.0
4487,76.0,32.0,30.0,0.0,0.0
4488,57.0,0.0,60.0,0.0,0.0
4489,74.0,6.0,30.0,0.0,0.0
4490,73.0,25.0,30.0,0.0,0.0
4491,71.0,29.0,30.0,0.0,0.0
4492,69.0,27.0,30.0,0.0,0.0
4493,61.0,1.0,120.0,0.0,0.0
4494,49.0,0.0,60.0,1.0,0.0
4495,52.0,4.0,60.0,1.0,0.0
4496,68.0,56.0,30.0,0.0,0.0
4497,50.0,4.0,120.0,1.0,0.0
4498,54.0,3.0,120.0,1.0,0.0
4499,66.0,35.0,60.0,0.0,0.0
4500,59.0,24.0,60.0,0.0,0.0
4501,78.0,30.0,30.0,0.0,0.0
4502,76.0,0.0,30.0,0.0,0.0
4503,74.0,27.0,30.0,0.0,0.0
4504,73.0,1.0,30.0,0.0,0.0
4505,69.0,30.0,30.0,0.0,0.0
4506,51.0,2.0,60.0,1.0,0.0
4507,59.0,9.0,60.0,1.0,0.0
4508,71.0,18.0,30.0,0.0,0.0
4509,68.0,0.0,30.0,0.0,0.0
4510,69.0,46.0,30.0,0.0,0.0
4511,66.0,1.0,30.0,0.0,0.0
4512,52.0,43.0,60.0,1.0,0.0
4513,68.0,5.0,120.0,0.0,0.0
4514,64.0,8.0,120.0,0.0,0.0
4515,59.0,7.0,150.0,1.0,0.0
4516,52.0,27.0,30.0,1.0,0.0
4517,51.0,10.0,30.0,1.0,0.0
4518,49.0,36.0,30.0,1.0,0.0
4519,47.0,29.0,30.0,1.0,0.0
4520,45.0,24.0,30.0,1.0,0.0
4521,64.0,31.0,120.0,0.0,0.0
4522,68.0,48.0,60.0,0.0,0.0
4523,59.0,5.0,60.0,1.0,0.0
4524,44.0,2.0,30.0,1.0,0.0
4525,42.0,6.0,60.0,1.0,0.0
4526,57.0,7.0,180.0,1.0,0.0
4527,69.0,4.0,60.0,0.0,0.0
4528,54.0,29.0,30.0,1.0,0.0
4529,63.0,8.0,90.0,0.0,0.0
4530,66.0,18.0,60.0,0.0,0.0
4531,52.0,4.0,30.0,1.0,0.0
4532,51.0,23.0,30.0,1.0,0.0
4533,49.0,27.0,30.0,1.0,0.0
4534,69.0,2.0,60.0,0.0,0.0
4535,66.0,5.0,120.0,0.0,0.0
4536,63.0,2.0,30.0,1.0,0.0
4537,47.0,28.0,30.0,1.0,0.0
4538,45.0,58.0,30.0,1.0,0.0
4539,61.0,0.0,30.0,1.0,0.0
4540,59.0,1.0,120.0,1.0,0.0
4541,44.0,1.0,60.0,1.0,0.0
4542,71.0,25.0,60.0,0.0,0.0
4543,68.0,7.0,90.0,0.0,0.0
4544,64.0,8.0,90.0,0.0,0.0
4545,56.0,30.0,30.0,1.0,0.0
4546,54.0,19.0,30.0,1.0,0.0
4547,52.0,22.0,30.0,1.0,0.0
4548,50.0,38.0,30.0,1.0,0.0
4549,49.0,17.0,30.0,1.0,0.0
4550,71.0,61.0,60.0,0.0,0.0
4551,62.0,1.0,60.0,1.0,0.0
4552,64.0,1.0,60.0,1.0,0.0
4553,68.0,5.0,60.0,0.0,0.0
4554,47.0,1.0,30.0,1.0,0.0
4555,69.0,30.0,60.0,0.0,0.0
4556,61.0,3.0,120.0,1.0,0.0
4557,45.0,1.0,120.0,1.0,0.0
4558,64.0,2.0,120.0,1.0,0.0
4559,73.0,19.0,120.0,0.0,0.0
4560,61.0,25.0,30.0,0.0,0.0
4561,62.0,10.0,30.0,0.0,0.0
4562,64.0,33.0,30.0,0.0,0.0
4563,66.0,24.0,30.0,0.0,0.0
4564,49.0,6.0,60.0,1.0,0.0
4565,57.0,29.0,120.0,1.0,0.0
4566,68.0,27.0,30.0,0.0,0.0
4567,73.0,56.0,60.0,0.0,0.0
4568,69.0,5.0,30.0,0.0,0.0
4569,74.0,19.0,120.0,0.0,0.0
4570,47.0,3.0,150.0,1.0,0.0
4571,71.0,0.0,60.0,0.0,0.0
4572,62.0,31.0,30.0,0.0,0.0
4573,56.0,2.0,90.0,1.0,0.0
4574,64.0,7.0,30.0,0.0,0.0
4575,66.0,27.0,30.0,0.0,0.0
4576,68.0,33.0,30.0,0.0,0.0
4577,50.0,3.0,60.0,1.0,0.0
4578,69.0,25.0,30.0,0.0,0.0
4579,59.0,2.0,120.0,1.0,0.0
4580,74.0,57.0,60.0,0.0,0.0
4581,71.0,1.0,30.0,0.0,0.0
4582,76.0,4.0,120.0,0.0,0.0
4583,49.0,11.0,150.0,1.0,0.0
4584,73.0,30.0,60.0,0.0,0.0
4585,64.0,31.0,30.0,0.0,0.0
4586,57.0,31.0,90.0,1.0,0.0
4587,66.0,13.0,30.0,0.0,0.0
4588,68.0,3.0,30.0,0.0,0.0
4589,69.0,26.0,30.0,0.0,0.0
4590,76.0,4.0,60.0,0.0,0.0
4591,71.0,27.0,30.0,0.0,0.0
4592,52.0,4.0,60.0,1.0,0.0
4593,61.0,5.0,120.0,1.0,0.0
4594,73.0,26.0,30.0,0.0,0.0
4595,78.0,2.0,180.0,0.0,0.0
4596,74.0,27.0,30.0,0.0,0.0
4597,50.0,9.0,180.0,1.0,0.0
4598,76.0,28.0,30.0,0.0,0.0
4599,74.0,27.0,30.0,0.0,0.0
4600,59.0,3.0,30.0,1.0,0.0
4601,61.0,27.0,30.0,1.0,0.0
4602,73.0,3.0,30.0,0.0,0.0
4603,71.0,18.0,30.0,0.0,0.0
4604,62.0,12.0,60.0,1.0,0.0
4605,69.0,19.0,15.0,0.0,0.0
4606,51.0,4.0,60.0,1.0,0.0
4607,59.0,6.0,60.0,1.0,0.0
4608,68.0,19.0,30.0,0.0,0.0
4609,66.0,55.0,30.0,0.0,0.0
4610,64.0,29.0,60.0,0.0,0.0
4611,68.0,2.0,60.0,0.0,0.0
4612,59.0,0.0,120.0,1.0,0.0
4613,52.0,4.0,120.0,1.0,0.0
4614,68.0,21.0,30.0,0.0,0.0
4615,71.0,5.0,30.0,0.0,0.0
4616,69.0,29.0,30.0,0.0,0.0
4617,66.0,2.0,30.0,0.0,0.0
4618,68.0,1.0,30.0,0.0,0.0
4619,64.0,26.0,30.0,0.0,0.0
4620,40.0,0.0,30.0,1.0,0.0
4621,66.0,3.0,30.0,0.0,0.0
4622,62.0,30.0,30.0,0.0,0.0
4623,64.0,0.0,30.0,0.0,0.0
4624,61.0,26.0,30.0,0.0,0.0
4625,42.0,1.0,30.0,1.0,0.0
4626,62.0,3.0,30.0,0.0,0.0
4627,59.0,11.0,90.0,0.0,0.0
4628,44.0,17.0,30.0,1.0,0.0
4629,45.0,17.0,30.0,1.0,0.0
4630,62.0,12.0,15.0,0.0,0.0
4631,61.0,1.0,15.0,0.0,0.0
4632,44.0,1.0,30.0,1.0,0.0
4633,62.0,14.0,15.0,0.0,0.0
4634,61.0,3.0,15.0,0.0,0.0
4635,45.0,16.0,30.0,1.0,0.0
4636,62.0,12.0,15.0,0.0,0.0
4637,52.0,3.0,60.0,0.0,0.0
4638,61.0,2.0,15.0,0.0,0.0
4639,62.0,12.0,15.0,0.0,0.0
4640,47.0,13.0,30.0,1.0,0.0
4641,61.0,1.0,15.0,0.0,0.0
4642,62.0,12.0,15.0,0.0,0.0
4643,57.0,4.0,120.0,0.0,0.0
4644,49.0,1.0,30.0,1.0,0.0
4645,61.0,15.0,15.0,0.0,0.0
4646,62.0,17.0,15.0,0.0,0.0
4647,47.0,1.0,30.0,1.0,0.0
4648,61.0,29.0,15.0,0.0,0.0
4649,59.0,1.0,30.0,0.0,0.0
4650,49.0,26.0,30.0,1.0,0.0
4651,51.0,60.0,30.0,1.0,0.0
4652,61.0,0.0,30.0,0.0,0.0
4653,52.0,3.0,120.0,1.0,0.0
4654,59.0,0.0,120.0,0.0,0.0
4655,56.0,28.0,60.0,0.0,0.0
4656,68.0,0.0,30.0,1.0,0.0
4657,71.0,30.0,30.0,0.0,0.0
4658,66.0,1.0,30.0,1.0,0.0
4659,69.0,26.0,30.0,0.0,0.0
4660,64.0,2.0,30.0,1.0,0.0
4661,68.0,28.0,30.0,0.0,0.0
4662,62.0,1.0,30.0,1.0,0.0
4663,66.0,0.0,30.0,0.0,0.0
4664,40.0,29.0,30.0,1.0,0.0
4665,61.0,1.0,30.0,1.0,0.0
4666,42.0,3.0,30.0,1.0,0.0
4667,64.0,22.0,30.0,0.0,0.0
4668,44.0,13.0,30.0,1.0,0.0
4669,62.0,4.0,20.0,0.0,0.0
4670,59.0,2.0,30.0,1.0,0.0
4671,62.0,12.0,15.0,0.0,0.0
4672,45.0,2.0,60.0,1.0,0.0
4673,59.0,3.0,15.0,1.0,0.0
4674,61.0,15.0,15.0,0.0,0.0
4675,57.0,0.0,15.0,1.0,0.0
4676,64.0,14.0,30.0,0.0,0.0
4677,59.0,3.0,15.0,1.0,0.0
4678,62.0,10.0,15.0,0.0,0.0
4679,57.0,0.0,15.0,1.0,0.0
4680,61.0,1.0,15.0,0.0,0.0
4681,66.0,14.0,30.0,0.0,0.0
4682,59.0,3.0,15.0,1.0,0.0
4683,52.0,2.0,60.0,1.0,0.0
4684,62.0,11.0,15.0,0.0,0.0
4685,61.0,1.0,15.0,0.0,0.0
4686,57.0,1.0,15.0,1.0,0.0
4687,59.0,3.0,15.0,1.0,0.0
4688,68.0,0.0,30.0,0.0,0.0
4689,62.0,10.0,15.0,0.0,0.0
4690,61.0,13.0,15.0,0.0,0.0
4691,57.0,2.0,15.0,1.0,0.0
4692,49.0,1.0,60.0,1.0,0.0
4693,59.0,1.0,15.0,1.0,0.0
4694,62.0,14.0,15.0,0.0,0.0
4695,69.0,2.0,30.0,0.0,0.0
4696,61.0,12.0,15.0,0.0,0.0
4697,57.0,1.0,15.0,1.0,0.0
4698,71.0,28.0,30.0,0.0,0.0
4699,59.0,2.0,15.0,1.0,0.0
4700,62.0,11.0,15.0,0.0,0.0
4701,61.0,1.0,15.0,0.0,0.0
4702,57.0,2.0,15.0,1.0,0.0
4703,73.0,2.0,30.0,0.0,0.0
4704,59.0,25.0,30.0,0.0,0.0
4705,45.0,2.0,60.0,1.0,0.0
4706,56.0,1.0,30.0,1.0,0.0
4707,57.0,1.0,30.0,1.0,0.0
4708,61.0,2.0,30.0,0.0,0.0
4709,75.0,61.0,30.0,0.0,0.0
4710,56.0,8.0,120.0,1.0,0.0
4711,59.0,2.0,120.0,0.0,0.0
4712,76.0,5.0,120.0,0.0,0.0
4713,40.0,27.0,60.0,1.0,0.0
4714,42.0,23.0,30.0,1.0,0.0
4715,44.0,22.0,30.0,1.0,0.0
4716,45.0,31.0,30.0,1.0,0.0
4717,47.0,30.0,30.0,1.0,0.0
4718,49.0,29.0,30.0,1.0,0.0
4719,51.0,30.0,30.0,1.0,0.0
4720,52.0,28.0,30.0,1.0,0.0
4721,54.0,31.0,30.0,1.0,0.0
4722,52.0,32.0,30.0,1.0,0.0
4723,51.0,31.0,30.0,1.0,0.0
4724,52.0,28.0,30.0,1.0,0.0
4725,49.0,31.0,30.0,1.0,0.0
4726,50.0,25.0,30.0,1.0,0.0
4727,47.0,32.0,30.0,1.0,0.0
4728,45.0,27.0,120.0,1.0,0.0
4729,57.0,33.0,30.0,1.0,0.0
4730,61.0,2.0,30.0,0.0,0.0
4731,59.0,26.0,30.0,1.0,0.0
4732,62.0,1.0,30.0,0.0,0.0
4733,61.0,30.0,30.0,0.0,0.0
4734,57.0,0.0,30.0,1.0,0.0
4735,59.0,1.0,30.0,1.0,0.0
4736,62.0,1.0,30.0,0.0,0.0
4737,61.0,27.0,30.0,1.0,0.0
4738,64.0,1.0,30.0,0.0,0.0
4739,59.0,4.0,30.0,1.0,0.0
4740,62.0,13.0,30.0,0.0,0.0
4741,68.0,0.0,60.0,0.0,0.0
4742,61.0,5.0,30.0,1.0,0.0
4743,40.0,1.0,15.0,1.0,0.0
4744,52.0,11.0,15.0,1.0,0.0
4745,64.0,16.0,30.0,0.0,0.0
4746,59.0,2.0,30.0,1.0,0.0
4747,40.0,2.0,15.0,1.0,0.0
4748,52.0,10.0,20.0,1.0,0.0
4749,62.0,30.0,30.0,0.0,0.0
4750,69.0,7.0,60.0,0.0,0.0
4751,57.0,5.0,30.0,1.0,0.0
4752,61.0,17.0,30.0,0.0,0.0
4753,45.0,4.0,120.0,1.0,0.0
4754,62.0,4.0,30.0,0.0,0.0
4755,59.0,27.0,30.0,1.0,0.0
4756,61.0,22.0,30.0,0.0,0.0
4757,57.0,2.0,30.0,1.0,0.0
4758,59.0,3.0,30.0,1.0,0.0
4759,62.0,1.0,30.0,0.0,0.0
4760,61.0,2.0,30.0,1.0,0.0
4761,64.0,26.0,15.0,0.0,0.0
4762,62.0,15.0,30.0,0.0,0.0
4763,59.0,1.0,30.0,1.0,0.0
4764,64.0,15.0,30.0,0.0,0.0
4765,68.0,3.0,60.0,0.0,0.0
4766,52.0,11.0,15.0,1.0,0.0
4767,40.0,2.0,15.0,1.0,0.0
4768,61.0,4.0,30.0,1.0,0.0
4769,59.0,9.0,30.0,1.0,0.0
4770,40.0,7.0,15.0,1.0,0.0
4771,62.0,46.0,30.0,0.0,0.0
4772,52.0,2.0,15.0,1.0,0.0
4773,45.0,5.0,60.0,1.0,0.0
4774,61.0,62.0,120.0,0.0,0.0
4775,57.0,2.0,120.0,1.0,0.0
4776,69.0,20.0,60.0,0.0,0.0
4777,73.0,36.0,15.0,0.0,0.0
4778,76.0,18.0,210.0,0.0,0.0
4779,49.0,8.0,90.0,1.0,0.0
4780,69.0,22.0,30.0,1.0,0.0
4781,73.0,3.0,30.0,0.0,0.0
4782,71.0,30.0,30.0,0.0,0.0
4783,68.0,0.0,30.0,1.0,0.0
4784,69.0,30.0,30.0,0.0,0.0
4785,66.0,0.0,30.0,1.0,0.0
4786,52.0,1.0,120.0,1.0,0.0
4787,64.0,2.0,30.0,1.0,0.0
4788,68.0,28.0,30.0,0.0,0.0
4789,66.0,1.0,30.0,1.0,0.0
4790,69.0,32.0,30.0,0.0,0.0
4791,68.0,2.0,30.0,0.0,0.0
4792,64.0,6.0,30.0,1.0,0.0
4793,66.0,0.0,30.0,0.0,0.0
4794,62.0,16.0,30.0,1.0,0.0
4795,64.0,2.0,30.0,0.0,0.0
4796,69.0,13.0,15.0,0.0,0.0
4797,61.0,11.0,30.0,1.0,0.0
4798,68.0,2.0,15.0,0.0,0.0
4799,62.0,13.0,30.0,1.0,0.0
4800,66.0,1.0,30.0,0.0,0.0
4801,69.0,14.0,15.0,0.0,0.0
4802,68.0,4.0,15.0,0.0,0.0
4803,69.0,14.0,15.0,0.0,0.0
4804,61.0,3.0,30.0,1.0,0.0
4805,64.0,12.0,30.0,0.0,0.0
4806,68.0,1.0,15.0,0.0,0.0
4807,59.0,30.0,30.0,1.0,0.0
4808,66.0,11.0,15.0,0.0,0.0
4809,62.0,1.0,30.0,0.0,0.0
4810,68.0,3.0,15.0,0.0,0.0
4811,45.0,11.0,90.0,1.0,0.0
4812,57.0,1.0,30.0,1.0,0.0
4813,61.0,24.0,30.0,0.0,0.0
4814,69.0,7.0,60.0,0.0,0.0
4815,59.0,0.0,30.0,1.0,0.0
4816,62.0,27.0,30.0,0.0,0.0
4817,57.0,12.0,30.0,1.0,0.0
4818,64.0,6.0,60.0,0.0,0.0
4819,61.0,1.0,30.0,0.0,0.0
4820,59.0,28.0,30.0,1.0,0.0
4821,62.0,1.0,30.0,0.0,0.0
4822,64.0,29.0,30.0,0.0,0.0
4823,61.0,1.0,30.0,1.0,0.0
4824,62.0,14.0,30.0,0.0,0.0
4825,59.0,1.0,30.0,1.0,0.0
4826,64.0,13.0,30.0,0.0,0.0
4827,61.0,1.0,30.0,1.0,0.0
4828,40.0,1.0,15.0,1.0,0.0
4829,52.0,15.0,15.0,1.0,0.0
4830,68.0,1.0,60.0,0.0,0.0
4831,62.0,32.0,30.0,0.0,0.0
4832,59.0,3.0,30.0,1.0,0.0
4833,40.0,10.0,15.0,1.0,0.0
4834,52.0,3.0,15.0,1.0,0.0
4835,57.0,23.0,30.0,1.0,0.0
4836,45.0,7.0,120.0,1.0,0.0
4837,69.0,2.0,60.0,0.0,0.0
4838,61.0,3.0,30.0,0.0,0.0
4839,59.0,26.0,30.0,1.0,0.0
4840,62.0,2.0,30.0,0.0,0.0
4841,61.0,1.0,30.0,0.0,0.0
4842,57.0,23.0,30.0,1.0,0.0
4843,62.0,1.0,30.0,0.0,0.0
4844,59.0,8.0,30.0,1.0,0.0
4845,61.0,1.0,30.0,1.0,0.0
4846,64.0,21.0,15.0,0.0,0.0
4847,62.0,13.0,30.0,0.0,0.0
4848,59.0,1.0,30.0,1.0,0.0
4849,68.0,2.0,60.0,0.0,0.0
4850,64.0,14.0,30.0,0.0,0.0
4851,52.0,14.0,15.0,1.0,0.0
4852,40.0,1.0,15.0,1.0,0.0
4853,61.0,3.0,30.0,1.0,0.0
4854,52.0,11.0,15.0,1.0,0.0
4855,40.0,0.0,15.0,1.0,0.0
4856,62.0,56.0,30.0,0.0,0.0
4857,59.0,1.0,30.0,1.0,0.0
4858,61.0,54.0,120.0,0.0,0.0
4859,69.0,14.0,60.0,0.0,0.0
4860,45.0,5.0,60.0,1.0,0.0
4861,57.0,14.0,120.0,1.0,0.0
4862,73.0,37.0,15.0,0.0,0.0
4863,49.0,1.0,90.0,1.0,0.0
4864,76.0,20.0,210.0,0.0,0.0
4865,69.0,1.0,30.0,1.0,0.0
4866,73.0,29.0,30.0,0.0,0.0
4867,68.0,1.0,30.0,1.0,0.0
4868,71.0,30.0,30.0,0.0,0.0
4869,69.0,27.0,30.0,0.0,0.0
4870,66.0,1.0,30.0,1.0,0.0
4871,52.0,21.0,60.0,1.0,0.0
4872,68.0,1.0,30.0,0.0,0.0
4873,64.0,31.0,30.0,1.0,0.0
4874,69.0,1.0,30.0,0.0,0.0
4875,66.0,8.0,30.0,1.0,0.0
4876,64.0,3.0,30.0,1.0,0.0
4877,68.0,4.0,30.0,0.0,0.0
4878,66.0,15.0,30.0,0.0,0.0
4879,62.0,2.0,30.0,1.0,0.0
4880,69.0,14.0,15.0,0.0,0.0
4881,64.0,9.0,30.0,0.0,0.0
4882,61.0,2.0,30.0,1.0,0.0
4883,68.0,3.0,15.0,0.0,0.0
4884,66.0,0.0,30.0,0.0,0.0
4885,69.0,17.0,15.0,0.0,0.0
4886,62.0,0.0,30.0,1.0,0.0
4887,68.0,15.0,15.0,0.0,0.0
4888,69.0,15.0,15.0,0.0,0.0
4889,64.0,1.0,30.0,0.0,0.0
4890,61.0,0.0,30.0,1.0,0.0
4891,68.0,16.0,15.0,0.0,0.0
4892,59.0,1.0,30.0,1.0,0.0
4893,66.0,11.0,15.0,0.0,0.0
4894,62.0,29.0,30.0,0.0,0.0
4895,68.0,2.0,15.0,0.0,0.0
4896,45.0,1.0,30.0,1.0,0.0
4897,57.0,8.0,690.0,1.0,0.0
4898,69.0,5.0,240.0,0.0,0.0
4899,61.0,29.0,30.0,0.0,0.0
4900,62.0,29.0,30.0,0.0,0.0
4901,47.0,0.0,30.0,1.0,0.0
4902,61.0,31.0,30.0,0.0,0.0
4903,45.0,1.0,30.0,1.0,0.0
4904,62.0,0.0,30.0,0.0,0.0
4905,47.0,28.0,30.0,1.0,0.0
4906,49.0,29.0,30.0,1.0,0.0
4907,64.0,1.0,30.0,0.0,0.0
4908,47.0,1.0,30.0,1.0,0.0
4909,62.0,31.0,30.0,0.0,0.0
4910,49.0,21.0,30.0,1.0,0.0
4911,64.0,3.0,30.0,0.0,0.0
4912,61.0,27.0,30.0,0.0,0.0
4913,45.0,2.0,30.0,1.0,0.0
4914,62.0,1.0,30.0,0.0,0.0
4915,47.0,30.0,30.0,1.0,0.0
4916,68.0,16.0,210.0,0.0,0.0
4917,49.0,5.0,30.0,1.0,0.0
4918,64.0,25.0,30.0,0.0,0.0
4919,47.0,0.0,30.0,1.0,0.0
4920,62.0,30.0,30.0,0.0,0.0
4921,49.0,2.0,30.0,1.0,0.0
4922,64.0,27.0,30.0,0.0,0.0
4923,65.0,33.0,30.0,0.0,0.0
4924,50.0,1.0,30.0,1.0,0.0
4925,64.0,1.0,30.0,0.0,0.0
4926,49.0,26.0,30.0,1.0,0.0
4927,65.0,8.0,30.0,0.0,0.0
4928,50.0,4.0,30.0,1.0,0.0
4929,62.0,3.0,30.0,0.0,0.0
4930,47.0,15.0,30.0,1.0,0.0
4931,69.0,13.0,15.0,0.0,0.0
4932,49.0,0.0,30.0,1.0,0.0
4933,64.0,13.0,30.0,0.0,0.0
4934,67.0,3.0,15.0,0.0,0.0
4935,69.0,14.0,15.0,0.0,0.0
4936,50.0,0.0,30.0,1.0,0.0
4937,62.0,16.0,30.0,0.0,0.0
4938,67.0,1.0,15.0,0.0,0.0
4939,64.0,1.0,30.0,0.0,0.0
4940,69.0,14.0,15.0,0.0,0.0
4941,49.0,12.0,30.0,1.0,0.0
4942,67.0,1.0,15.0,0.0,0.0
4943,50.0,14.0,30.0,1.0,0.0
4944,62.0,1.0,30.0,0.0,0.0
4945,69.0,15.0,15.0,0.0,0.0
4946,67.0,2.0,15.0,0.0,0.0
4947,52.0,14.0,30.0,1.0,0.0
4948,61.0,0.0,30.0,0.0,0.0
4949,69.0,14.0,15.0,0.0,0.0
4950,67.0,1.0,15.0,0.0,0.0
4951,50.0,1.0,30.0,1.0,0.0
4952,62.0,18.0,30.0,0.0,0.0
4953,69.0,15.0,15.0,0.0,0.0
4954,67.0,2.0,15.0,0.0,0.0
4955,66.0,2.0,30.0,0.0,0.0
4956,61.0,22.0,30.0,0.0,0.0
4957,52.0,1.0,30.0,1.0,0.0
4958,67.0,3.0,30.0,0.0,0.0
4959,49.0,5.0,20.0,1.0,0.0
4960,64.0,28.0,30.0,0.0,0.0
4961,50.0,6.0,120.0,1.0,0.0
4962,62.0,31.0,30.0,0.0,0.0
4963,66.0,0.0,30.0,0.0,0.0
4964,57.0,3.0,120.0,1.0,0.0
4965,67.0,2.0,30.0,0.0,0.0
4966,64.0,27.0,30.0,0.0,0.0
4967,62.0,18.0,30.0,0.0,0.0
4968,66.0,2.0,30.0,0.0,0.0
4969,67.0,3.0,30.0,0.0,0.0
4970,64.0,26.0,30.0,0.0,0.0
4971,69.0,4.0,30.0,0.0,0.0
4972,66.0,26.0,30.0,0.0,0.0
4973,67.0,4.0,30.0,0.0,0.0
4974,64.0,26.0,30.0,0.0,0.0
4975,69.0,6.0,30.0,0.0,0.0
4976,66.0,26.0,15.0,0.0,0.0
4977,62.0,28.0,30.0,0.0,0.0
4978,64.0,29.0,30.0,0.0,0.0
4979,56.0,0.0,30.0,1.0,0.0
4980,40.0,4.0,900.0,1.0,0.0
4981,76.0,12.0,930.0,0.0,0.0
4982,66.0,3.0,30.0,0.0,0.0
4983,57.0,28.0,30.0,1.0,0.0
4984,64.0,29.0,30.0,0.0,0.0
4985,56.0,1.0,30.0,1.0,0.0
4986,66.0,29.0,30.0,0.0,0.0
4987,57.0,0.0,30.0,1.0,0.0
4988,68.0,29.0,30.0,0.0,0.0
4989,59.0,2.0,30.0,1.0,0.0
4990,57.0,29.0,30.0,1.0,0.0
4991,66.0,2.0,30.0,0.0,0.0
4992,59.0,29.0,30.0,1.0,0.0
4993,68.0,1.0,30.0,0.0,0.0
4994,64.0,28.0,30.0,0.0,0.0
4995,56.0,1.0,30.0,1.0,0.0
4996,75.0,13.0,240.0,0.0,0.0
4997,57.0,31.0,30.0,1.0,0.0
4998,66.0,1.0,30.0,0.0,0.0
4999,59.0,0.0,30.0,1.0,0.0
5000,68.0,26.0,30.0,0.0,0.0
5001,57.0,2.0,30.0,1.0,0.0
5002,66.0,30.0,30.0,0.0,0.0
5003,68.0,28.0,30.0,0.0,0.0
5004,59.0,2.0,30.0,1.0,0.0
5005,69.0,30.0,30.0,0.0,0.0
5006,60.0,0.0,30.0,1.0,0.0
5007,59.0,1.0,30.0,1.0,0.0
5008,68.0,32.0,30.0,0.0,0.0
5009,69.0,13.0,30.0,0.0,0.0
5010,60.0,2.0,30.0,1.0,0.0
5011,57.0,29.0,30.0,1.0,0.0
5012,66.0,0.0,30.0,0.0,0.0
5013,59.0,29.0,30.0,1.0,0.0
5014,74.0,8.0,180.0,0.0,0.0
5015,68.0,1.0,30.0,0.0,0.0
5016,61.0,2.0,30.0,1.0,0.0
5017,69.0,27.0,30.0,0.0,0.0
5018,59.0,30.0,30.0,1.0,0.0
5019,68.0,2.0,30.0,0.0,0.0
5020,69.0,29.0,30.0,0.0,0.0
5021,61.0,0.0,30.0,1.0,0.0
5022,62.0,0.0,30.0,1.0,0.0
5023,71.0,22.0,30.0,0.0,0.0
5024,69.0,3.0,30.0,0.0,0.0
5025,61.0,27.0,30.0,1.0,0.0
5026,73.0,1.0,30.0,0.0,0.0
5027,62.0,1.0,30.0,1.0,0.0
5028,71.0,29.0,30.0,0.0,0.0
5029,59.0,1.0,30.0,1.0,0.0
5030,68.0,1.0,30.0,0.0,0.0
5031,74.0,27.0,30.0,0.0,0.0
5032,60.0,0.0,30.0,1.0,0.0
5033,69.0,31.0,30.0,0.0,0.0
5034,72.0,3.0,120.0,0.0,0.0
5035,71.0,1.0,30.0,0.0,0.0
5036,62.0,27.0,30.0,1.0,0.0
5037,69.0,7.0,30.0,0.0,0.0
5038,60.0,19.0,30.0,1.0,0.0
5039,71.0,28.0,30.0,0.0,0.0
5040,62.0,4.0,30.0,1.0,0.0
5041,64.0,31.0,30.0,1.0,0.0
5042,72.0,2.0,30.0,0.0,0.0
5043,71.0,0.0,30.0,0.0,0.0
5044,62.0,13.0,30.0,1.0,0.0
5045,64.0,0.0,30.0,1.0,0.0
5046,72.0,21.0,30.0,0.0,0.0
5047,69.0,31.0,30.0,0.0,0.0
5048,60.0,5.0,20.0,1.0,0.0
5049,70.0,6.0,240.0,0.0,0.0
5050,72.0,23.0,510.0,0.0,0.0
5051,64.0,4.0,30.0,0.0,0.0
5052,60.0,27.0,30.0,1.0,0.0
5053,62.0,1.0,30.0,1.0,0.0
5054,65.0,29.0,30.0,0.0,0.0
5055,60.0,23.0,30.0,1.0,0.0
5056,64.0,4.0,30.0,0.0,0.0
5057,65.0,30.0,30.0,0.0,0.0
5058,62.0,3.0,30.0,1.0,0.0
5059,64.0,21.0,30.0,1.0,0.0
5060,67.0,2.0,30.0,0.0,0.0
5061,65.0,17.0,30.0,0.0,0.0
5062,62.0,7.0,20.0,1.0,0.0
5063,64.0,3.0,30.0,1.0,0.0
5064,48.0,15.0,15.0,1.0,0.0
5065,67.0,12.0,30.0,0.0,0.0
5066,64.0,30.0,30.0,0.0,0.0
5067,48.0,6.0,20.0,1.0,0.0
5068,60.0,1.0,30.0,1.0,0.0
5069,53.0,5.0,120.0,1.0,0.0
5070,57.0,1.0,30.0,1.0,0.0
5071,41.0,24.0,120.0,1.0,0.0
5072,65.0,26.0,30.0,0.0,0.0
5073,69.0,4.0,30.0,0.0,0.0
5074,60.0,7.0,30.0,1.0,0.0
5075,59.0,27.0,30.0,1.0,0.0
5076,67.0,0.0,30.0,0.0,0.0
5077,65.0,1.0,30.0,0.0,0.0
5078,57.0,2.0,30.0,1.0,0.0
5079,64.0,0.0,30.0,0.0,0.0
5080,55.0,26.0,30.0,1.0,0.0
5081,67.0,14.0,30.0,0.0,0.0
5082,58.0,8.0,30.0,1.0,0.0
5083,65.0,1.0,30.0,0.0,0.0
5084,57.0,22.0,30.0,1.0,0.0
5085,48.0,11.0,15.0,1.0,0.0
5086,64.0,27.0,30.0,0.0,0.0
5087,55.0,1.0,20.0,1.0,0.0
5088,48.0,10.0,20.0,1.0,0.0
5089,57.0,3.0,30.0,1.0,0.0
5090,41.0,0.0,120.0,1.0,0.0
5091,53.0,26.0,120.0,1.0,0.0
5092,65.0,4.0,30.0,0.0,0.0
5093,69.0,2.0,30.0,0.0,0.0
5094,60.0,26.0,30.0,1.0,0.0
5095,58.0,5.0,30.0,1.0,0.0
5096,73.0,4.0,60.0,0.0,0.0
5097,67.0,27.0,30.0,0.0,0.0
5098,60.0,0.0,30.0,1.0,0.0
5099,69.0,1.0,30.0,0.0,0.0
5100,74.0,19.0,390.0,0.0,0.0
5101,66.0,29.0,30.0,0.0,0.0
5102,57.0,0.0,30.0,1.0,0.0
5103,69.0,11.0,30.0,0.0,0.0
5104,60.0,5.0,30.0,1.0,0.0
5105,67.0,25.0,30.0,0.0,0.0
5106,59.0,5.0,30.0,1.0,0.0
5107,50.0,10.0,15.0,1.0,0.0
5108,57.0,1.0,30.0,1.0,0.0
5109,66.0,28.0,30.0,0.0,0.0
5110,50.0,7.0,30.0,1.0,0.0
5111,67.0,23.0,30.0,0.0,0.0
5112,59.0,1.0,30.0,1.0,0.0
5113,43.0,2.0,120.0,1.0,0.0
5114,55.0,21.0,120.0,1.0,0.0
5115,71.0,5.0,30.0,0.0,0.0
5116,62.0,30.0,30.0,1.0,0.0
5117,69.0,1.0,30.0,0.0,0.0
5118,60.0,29.0,30.0,1.0,0.0
5119,59.0,2.0,30.0,1.0,0.0
5120,67.0,4.0,30.0,0.0,0.0
5121,66.0,1.0,30.0,0.0,0.0
5122,57.0,27.0,30.0,1.0,0.0
5123,69.0,13.0,30.0,0.0,0.0
5124,60.0,4.0,30.0,1.0,0.0
5125,50.0,8.0,15.0,1.0,0.0
5126,67.0,19.0,30.0,0.0,0.0
5127,59.0,9.0,20.0,1.0,0.0
5128,66.0,30.0,30.0,0.0,0.0
5129,50.0,9.0,20.0,1.0,0.0
5130,57.0,0.0,20.0,1.0,0.0
5131,59.0,4.0,30.0,1.0,0.0
5132,43.0,0.0,120.0,1.0,0.0
5133,55.0,28.0,120.0,1.0,0.0
5134,67.0,5.0,30.0,0.0,0.0
5135,62.0,35.0,30.0,1.0,0.0
5136,71.0,0.0,30.0,0.0,0.0
5137,69.0,25.0,30.0,0.0,0.0
5138,75.0,1.0,60.0,0.0,0.0
5139,60.0,1.0,30.0,1.0,0.0
5140,62.0,1.0,30.0,1.0,0.0
5141,71.0,3.0,30.0,0.0,0.0
5142,68.0,2.0,30.0,0.0,0.0
5143,59.0,20.0,30.0,1.0,0.0
5144,76.0,47.0,360.0,0.0,0.0
5145,62.0,9.0,20.0,1.0,0.0
5146,71.0,12.0,30.0,0.0,0.0
5147,60.0,5.0,30.0,1.0,0.0
5148,40.0,0.0,15.0,1.0,0.0
5149,52.0,11.0,15.0,1.0,0.0
5150,69.0,11.0,30.0,0.0,0.0
5151,68.0,29.0,30.0,0.0,0.0
5152,59.0,11.0,20.0,1.0,0.0
5153,40.0,3.0,15.0,1.0,0.0
5154,52.0,7.0,15.0,1.0,0.0
5155,45.0,0.0,120.0,1.0,0.0
5156,60.0,0.0,30.0,1.0,0.0
5157,57.0,11.0,120.0,1.0,0.0
5158,69.0,28.0,30.0,0.0,0.0
5159,64.0,5.0,30.0,1.0,0.0
5160,72.0,26.0,30.0,0.0,0.0
5161,62.0,1.0,30.0,1.0,0.0
5162,71.0,16.0,30.0,0.0,0.0
5163,60.0,3.0,30.0,1.0,0.0
5164,69.0,30.0,30.0,0.0,0.0
5165,68.0,24.0,30.0,0.0,0.0
5166,59.0,1.0,30.0,1.0,0.0
5167,62.0,5.0,30.0,1.0,0.0
5168,71.0,13.0,30.0,0.0,0.0
5169,69.0,9.0,30.0,0.0,0.0
5170,60.0,6.0,30.0,1.0,0.0
5171,40.0,11.0,15.0,1.0,0.0
5172,52.0,0.0,15.0,1.0,0.0
5173,68.0,15.0,30.0,0.0,0.0
5174,59.0,5.0,20.0,1.0,0.0
5175,40.0,2.0,15.0,1.0,0.0
5176,52.0,11.0,15.0,1.0,0.0
5177,60.0,1.0,60.0,1.0,0.0
5178,45.0,25.0,60.0,1.0,0.0
5179,57.0,0.0,60.0,1.0,0.0
5180,69.0,2.0,30.0,0.0,0.0
5181,71.0,30.0,30.0,0.0,0.0
5182,69.0,34.0,30.0,0.0,0.0
5183,61.0,1.0,60.0,0.0,0.0
5184,64.0,10.0,60.0,0.0,0.0
5185,57.0,4.0,60.0,1.0,0.0
5186,55.0,2.0,60.0,1.0,0.0
5187,43.0,14.0,90.0,1.0,0.0
5188,73.0,23.0,30.0,0.0,0.0
5189,69.0,4.0,30.0,0.0,0.0
5190,71.0,29.0,30.0,0.0,0.0
5191,69.0,37.0,30.0,0.0,0.0
5192,54.0,0.0,60.0,1.0,0.0
5193,57.0,0.0,60.0,1.0,0.0
5194,74.0,20.0,30.0,0.0,0.0
5195,42.0,27.0,60.0,1.0,0.0
5196,62.0,1.0,60.0,0.0,0.0
5197,66.0,4.0,60.0,0.0,0.0
5198,69.0,2.0,30.0,0.0,0.0
5199,71.0,28.0,30.0,0.0,0.0
5200,69.0,34.0,30.0,0.0,0.0
5201,57.0,3.0,90.0,1.0,0.0
5202,41.0,10.0,90.0,1.0,0.0
5203,75.0,26.0,30.0,0.0,0.0
5204,53.0,0.0,90.0,1.0,0.0
5205,63.0,13.0,60.0,0.0,0.0
5206,60.0,2.0,90.0,1.0,0.0
5207,69.0,4.0,30.0,0.0,0.0
5208,71.0,25.0,30.0,0.0,0.0
5209,69.0,30.0,30.0,0.0,0.0
5210,40.0,2.0,30.0,1.0,0.0
5211,69.0,1.0,120.0,0.0,0.0
5212,64.0,1.0,120.0,0.0,0.0
5213,57.0,55.0,120.0,0.0,0.0
5214,61.0,2.0,120.0,0.0,0.0
5215,76.0,4.0,120.0,0.0,0.0
5216,52.0,2.0,30.0,1.0,0.0
5217,57.0,29.0,30.0,1.0,0.0
5218,45.0,1.0,30.0,1.0,0.0
5219,49.0,2.0,30.0,1.0,0.0
5220,61.0,24.0,30.0,1.0,0.0
5221,57.0,1.0,30.0,1.0,0.0
5222,45.0,1.0,30.0,1.0,0.0
5223,40.0,4.0,120.0,1.0,0.0
5224,52.0,1.0,120.0,1.0,0.0
5225,57.0,2.0,30.0,0.0,0.0
5226,61.0,27.0,30.0,0.0,0.0
5227,59.0,27.0,30.0,0.0,0.0
5228,62.0,2.0,30.0,0.0,0.0
5229,64.0,17.0,30.0,0.0,0.0
5230,61.0,7.0,30.0,0.0,0.0
5231,62.0,3.0,30.0,0.0,0.0
5232,66.0,27.0,30.0,0.0,0.0
5233,64.0,31.0,30.0,0.0,0.0
5234,68.0,2.0,30.0,0.0,0.0
5235,66.0,23.0,30.0,0.0,0.0
5236,69.0,7.0,30.0,0.0,0.0
5237,71.0,0.0,30.0,0.0,0.0
5238,68.0,12.0,30.0,0.0,0.0
5239,74.0,5.0,15.0,0.0,0.0
5240,71.0,14.0,15.0,0.0,0.0
5241,69.0,24.0,20.0,0.0,0.0
5242,73.0,4.0,15.0,0.0,0.0
5243,68.0,2.0,30.0,0.0,0.0
5244,71.0,31.0,30.0,0.0,0.0
5245,69.0,1.0,30.0,0.0,0.0
5246,73.0,25.0,30.0,0.0,0.0
5247,74.0,29.0,30.0,0.0,0.0
5248,71.0,2.0,30.0,0.0,0.0
5249,52.0,4.0,30.0,1.0,0.0
5250,76.0,0.0,120.0,0.0,0.0
5251,73.0,5.0,120.0,0.0,0.0
5252,40.0,26.0,30.0,1.0,0.0
5253,45.0,28.0,30.0,1.0,0.0
5254,57.0,1.0,30.0,1.0,0.0
5255,61.0,24.0,30.0,1.0,0.0
5256,49.0,2.0,30.0,1.0,0.0
5257,57.0,2.0,30.0,1.0,0.0
5258,45.0,59.0,30.0,1.0,0.0
5259,52.0,6.0,120.0,1.0,0.0
5260,40.0,1.0,120.0,1.0,0.0
5261,61.0,27.0,30.0,0.0,0.0
5262,57.0,0.0,30.0,0.0,0.0
5263,62.0,5.0,30.0,0.0,0.0
5264,59.0,21.0,30.0,0.0,0.0
5265,64.0,2.0,30.0,0.0,0.0
5266,61.0,25.0,30.0,0.0,0.0
5267,66.0,28.0,30.0,0.0,0.0
5268,62.0,3.0,30.0,0.0,0.0
5269,68.0,2.0,30.0,0.0,0.0
5270,64.0,28.0,30.0,0.0,0.0
5271,69.0,2.0,30.0,0.0,0.0
5272,66.0,28.0,30.0,0.0,0.0
5273,71.0,33.0,30.0,0.0,0.0
5274,68.0,2.0,30.0,0.0,0.0
5275,73.0,25.0,30.0,0.0,0.0
5276,69.0,1.0,30.0,0.0,0.0
5277,71.0,29.0,30.0,0.0,0.0
5278,74.0,3.0,30.0,0.0,0.0
5279,72.0,28.0,30.0,0.0,0.0
5280,75.0,1.0,30.0,0.0,0.0
5281,76.0,0.0,30.0,0.0,0.0
5282,73.0,230.0,30.0,0.0,0.0
5283,51.0,1.0,240.0,1.0,0.0
5284,63.0,2.0,240.0,1.0,0.0
5285,69.0,43.0,840.0,0.0,0.0
5286,78.0,117.0,240.0,0.0,0.0
5287,72.0,16.0,450.0,0.0,0.0
5288,76.0,6.0,120.0,0.0,0.0
5289,64.0,98.0,120.0,1.0,0.0
5290,52.0,0.0,120.0,1.0,0.0
5291,75.0,80.0,120.0,0.0,0.0
5292,65.0,2.0,120.0,1.0,0.0
5293,53.0,3.0,120.0,1.0,0.0
5294,40.0,17.0,480.0,1.0,0.0
5295,73.0,50.0,240.0,0.0,0.0
5296,76.0,4.0,300.0,0.0,0.0
5297,52.0,13.0,30.0,1.0,0.0
5298,54.0,28.0,30.0,1.0,0.0
5299,56.0,32.0,30.0,1.0,0.0
5300,57.0,35.0,30.0,1.0,0.0
5301,59.0,26.0,30.0,1.0,0.0
5302,61.0,28.0,30.0,1.0,0.0
5303,62.0,2.0,30.0,1.0,0.0
5304,64.0,56.0,60.0,1.0,0.0
5305,75.0,11.0,60.0,0.0,0.0
5306,72.0,9.0,60.0,0.0,0.0
5307,66.0,1.0,60.0,1.0,0.0
5308,74.0,42.0,60.0,0.0,0.0
5309,71.0,5.0,60.0,0.0,0.0
5310,68.0,5.0,90.0,1.0,0.0
5311,69.0,8.0,60.0,0.0,0.0
5312,73.0,0.0,60.0,0.0,0.0
5313,73.0,8.0,20.0,0.0,0.0
5314,69.0,3.0,15.0,0.0,0.0
5315,64.0,4.0,15.0,1.0,0.0
5316,62.0,0.0,15.0,1.0,0.0
5317,71.0,1.0,15.0,0.0,0.0
5318,68.0,14.0,15.0,0.0,0.0
5319,64.0,2.0,15.0,1.0,0.0
5320,40.0,0.0,30.0,1.0,0.0
5321,73.0,10.0,15.0,0.0,0.0
5322,69.0,2.0,15.0,0.0,0.0
5323,62.0,0.0,15.0,1.0,0.0
5324,71.0,1.0,15.0,0.0,0.0
5325,68.0,15.0,15.0,0.0,0.0
5326,73.0,14.0,15.0,0.0,0.0
5327,42.0,0.0,30.0,1.0,0.0
5328,64.0,1.0,15.0,1.0,0.0
5329,69.0,0.0,15.0,0.0,0.0
5330,62.0,0.0,15.0,1.0,0.0
5331,68.0,15.0,15.0,0.0,0.0
5332,71.0,0.0,15.0,0.0,0.0
5333,73.0,13.0,15.0,0.0,0.0
5334,69.0,1.0,15.0,0.0,0.0
5335,64.0,1.0,15.0,1.0,0.0
5336,44.0,2.0,30.0,1.0,0.0
5337,62.0,0.0,15.0,1.0,0.0
5338,68.0,13.0,15.0,0.0,0.0
5339,71.0,0.0,15.0,0.0,0.0
5340,73.0,14.0,15.0,0.0,0.0
5341,69.0,0.0,15.0,0.0,0.0
5342,45.0,2.0,30.0,1.0,0.0
5343,64.0,1.0,15.0,1.0,0.0
5344,68.0,12.0,15.0,0.0,0.0
5345,62.0,0.0,15.0,1.0,0.0
5346,71.0,1.0,15.0,0.0,0.0
5347,47.0,0.0,30.0,1.0,0.0
5348,69.0,13.0,15.0,0.0,0.0
5349,73.0,1.0,15.0,0.0,0.0
5350,64.0,1.0,15.0,1.0,0.0
5351,62.0,1.0,15.0,1.0,0.0
5352,71.0,14.0,15.0,0.0,0.0
5353,68.0,0.0,15.0,0.0,0.0
5354,49.0,2.0,30.0,1.0,0.0
5355,73.0,1.0,15.0,0.0,0.0
5356,69.0,13.0,15.0,0.0,0.0
5357,64.0,1.0,15.0,1.0,0.0
5358,68.0,0.0,15.0,0.0,0.0
5359,71.0,13.0,15.0,0.0,0.0
5360,62.0,0.0,15.0,1.0,0.0
5361,69.0,12.0,15.0,0.0,0.0
5362,73.0,1.0,15.0,0.0,0.0
5363,64.0,2.0,15.0,1.0,0.0
5364,50.0,2.0,30.0,1.0,0.0
5365,68.0,13.0,15.0,0.0,0.0
5366,62.0,0.0,15.0,1.0,0.0
5367,71.0,0.0,15.0,0.0,0.0
5368,69.0,11.0,15.0,0.0,0.0
5369,73.0,3.0,15.0,0.0,0.0
5370,64.0,1.0,15.0,1.0,0.0
5371,52.0,0.0,30.0,1.0,0.0
5372,62.0,1.0,15.0,1.0,0.0
5373,71.0,13.0,15.0,0.0,0.0
5374,68.0,1.0,15.0,0.0,0.0
5375,73.0,12.0,15.0,0.0,0.0
5376,69.0,0.0,15.0,0.0,0.0
5377,64.0,3.0,15.0,1.0,0.0
5378,54.0,0.0,30.0,1.0,0.0
5379,62.0,3.0,15.0,1.0,0.0
5380,68.0,11.0,15.0,0.0,0.0
5381,71.0,1.0,15.0,0.0,0.0
5382,52.0,0.0,30.0,1.0,0.0
5383,64.0,3.0,15.0,1.0,0.0
5384,73.0,1.0,15.0,0.0,0.0
5385,69.0,11.0,15.0,0.0,0.0
5386,71.0,12.0,15.0,0.0,0.0
5387,68.0,2.0,15.0,0.0,0.0
5388,62.0,1.0,15.0,1.0,0.0
5389,69.0,2.0,15.0,0.0,0.0
5390,51.0,0.0,30.0,1.0,0.0
5391,64.0,2.0,15.0,1.0,0.0
5392,73.0,11.0,15.0,0.0,0.0
5393,62.0,3.0,15.0,1.0,0.0
5394,68.0,12.0,15.0,0.0,0.0
5395,71.0,0.0,15.0,0.0,0.0
5396,64.0,3.0,15.0,1.0,0.0
5397,52.0,4.0,30.0,1.0,0.0
5398,69.0,2.0,15.0,0.0,0.0
5399,73.0,9.0,20.0,0.0,0.0
5400,71.0,11.0,15.0,0.0,0.0
5401,68.0,1.0,15.0,0.0,0.0
5402,62.0,0.0,15.0,1.0,0.0
5403,64.0,1.0,15.0,1.0,0.0
5404,73.0,14.0,15.0,0.0,0.0
5405,69.0,0.0,15.0,0.0,0.0
5406,47.0,0.0,30.0,1.0,0.0
5407,62.0,1.0,15.0,1.0,0.0
5408,68.0,13.0,15.0,0.0,0.0
5409,71.0,1.0,15.0,0.0,0.0
5410,69.0,13.0,15.0,0.0,0.0
5411,73.0,0.0,15.0,0.0,0.0
5412,64.0,2.0,15.0,1.0,0.0
5413,44.0,1.0,30.0,1.0,0.0
5414,68.0,12.0,15.0,0.0,0.0
5415,71.0,2.0,15.0,0.0,0.0
5416,62.0,0.0,15.0,1.0,0.0
5417,66.0,0.0,15.0,0.0,0.0
5418,69.0,11.0,15.0,0.0,0.0
5419,40.0,0.0,30.0,1.0,0.0
5420,61.0,2.0,15.0,1.0,0.0
5421,62.0,0.0,15.0,1.0,0.0
5422,68.0,2.0,15.0,0.0,0.0
5423,71.0,31.0,15.0,0.0,0.0
5424,61.0,3.0,60.0,1.0,0.0
5425,45.0,22.0,60.0,1.0,0.0
5426,68.0,34.0,30.0,0.0,0.0
5427,69.0,1.0,30.0,0.0,0.0
5428,73.0,28.0,30.0,0.0,0.0
5429,69.0,30.0,30.0,0.0,0.0
5430,54.0,15.0,60.0,1.0,0.0
5431,57.0,2.0,60.0,1.0,0.0
5432,61.0,0.0,60.0,1.0,0.0
5433,65.0,30.0,30.0,0.0,0.0
5434,66.0,15.0,30.0,0.0,0.0
5435,69.0,29.0,30.0,0.0,0.0
5436,66.0,31.0,30.0,0.0,0.0
5437,59.0,1.0,60.0,1.0,0.0
5438,57.0,1.0,60.0,1.0,0.0
5439,50.0,17.0,60.0,1.0,0.0
5440,61.0,29.0,30.0,0.0,0.0
5441,62.0,14.0,30.0,0.0,0.0
5442,66.0,28.0,30.0,0.0,0.0
5443,62.0,32.0,30.0,0.0,0.0
5444,52.0,1.0,90.0,1.0,0.0
5445,56.0,25.0,90.0,1.0,0.0
5446,59.0,4.0,90.0,1.0,0.0
5447,63.0,28.0,30.0,0.0,0.0
5448,64.0,27.0,30.0,0.0,0.0
5449,68.0,1.0,30.0,0.0,0.0
5450,64.0,32.0,30.0,0.0,0.0
5451,64.0,3.0,60.0,0.0,0.0
5452,61.0,4.0,60.0,0.0,0.0
5453,69.0,31.0,60.0,0.0,0.0
5454,57.0,22.0,30.0,1.0,0.0
5455,61.0,2.0,30.0,1.0,0.0
5456,57.0,28.0,30.0,1.0,0.0
5457,53.0,28.0,30.0,1.0,0.0
5458,73.0,24.0,60.0,0.0,0.0
5459,66.0,1.0,60.0,0.0,0.0
5460,61.0,6.0,60.0,0.0,0.0
5461,69.0,1.0,60.0,0.0,0.0
5462,54.0,28.0,30.0,1.0,0.0
5463,57.0,1.0,30.0,1.0,0.0
5464,54.0,33.0,30.0,1.0,0.0
5465,49.0,27.0,30.0,1.0,0.0
5466,59.0,1.0,60.0,0.0,0.0
5467,66.0,2.0,60.0,0.0,0.0
5468,71.0,28.0,60.0,0.0,0.0
5469,69.0,1.0,60.0,0.0,0.0
5470,50.0,28.0,30.0,1.0,0.0
5471,54.0,2.0,30.0,1.0,0.0
5472,50.0,29.0,30.0,1.0,0.0
5473,47.0,30.0,30.0,1.0,0.0
5474,68.0,3.0,60.0,0.0,0.0
5475,59.0,20.0,60.0,0.0,0.0
5476,76.0,1.0,60.0,0.0,0.0
5477,52.0,28.0,30.0,1.0,0.0
5478,62.0,0.0,60.0,0.0,0.0
5479,47.0,9.0,30.0,1.0,0.0
5480,44.0,29.0,30.0,1.0,0.0
5481,40.0,119.0,30.0,1.0,0.0
5482,64.0,3.0,120.0,0.0,0.0
5483,69.0,3.0,120.0,0.0,0.0
5484,45.0,67.0,120.0,1.0,0.0
5485,57.0,2.0,120.0,1.0,0.0
5486,61.0,1.0,120.0,1.0,0.0
5487,64.0,2.0,15.0,0.0,0.0
5488,45.0,0.0,15.0,1.0,0.0
5489,57.0,2.0,15.0,1.0,0.0
5490,69.0,1.0,15.0,0.0,0.0
5491,61.0,21.0,20.0,1.0,0.0
5492,57.0,1.0,15.0,1.0,0.0
5493,45.0,3.0,15.0,1.0,0.0
5494,61.0,138.0,15.0,1.0,0.0
5495,69.0,1.0,15.0,0.0,0.0
5496,64.0,1.0,15.0,0.0,0.0
5497,64.0,2.0,120.0,1.0,0.0
5498,43.0,60.0,120.0,1.0,0.0
5499,55.0,1.0,120.0,1.0,0.0
5500,73.0,6.0,120.0,0.0,0.0
5501,69.0,1.0,120.0,0.0,0.0
5502,64.0,0.0,15.0,0.0,0.0
5503,43.0,1.0,15.0,1.0,0.0
5504,61.0,2.0,15.0,1.0,0.0
5505,69.0,25.0,20.0,0.0,0.0
5506,55.0,1.0,15.0,1.0,0.0
5507,43.0,0.0,15.0,1.0,0.0
5508,55.0,1.0,15.0,1.0,0.0
5509,61.0,0.0,15.0,1.0,0.0
5510,69.0,137.0,15.0,0.0,0.0
5511,64.0,3.0,15.0,0.0,0.0
5512,42.0,0.0,150.0,1.0,0.0
5513,66.0,2.0,150.0,1.0,0.0
5514,54.0,55.0,150.0,1.0,0.0
5515,69.0,9.0,120.0,0.0,0.0
5516,74.0,4.0,120.0,0.0,0.0
5517,54.0,0.0,15.0,1.0,0.0
5518,42.0,0.0,15.0,1.0,0.0
5519,69.0,0.0,20.0,0.0,0.0
5520,66.0,4.0,15.0,0.0,0.0
5521,62.0,22.0,20.0,1.0,0.0
5522,62.0,3.0,15.0,1.0,0.0
5523,69.0,130.0,20.0,0.0,0.0
5524,66.0,3.0,15.0,0.0,0.0
5525,42.0,0.0,15.0,1.0,0.0
5526,54.0,2.0,15.0,1.0,0.0
5527,69.0,0.0,120.0,0.0,0.0
5528,75.0,337.0,120.0,0.0,0.0
5529,41.0,1.0,120.0,1.0,0.0
5530,53.0,1.0,120.0,1.0,0.0
5531,63.0,3.0,120.0,1.0,0.0
5532,69.0,0.0,15.0,0.0,0.0
5533,75.0,123.0,20.0,0.0,0.0
5534,57.0,4.0,15.0,1.0,0.0
5535,53.0,1.0,15.0,1.0,0.0
5536,41.0,5.0,15.0,1.0,0.0
5537,41.0,0.0,120.0,1.0,0.0
5538,57.0,1.0,120.0,1.0,0.0
5539,53.0,0.0,120.0,1.0,0.0
5540,75.0,103.0,120.0,0.0,0.0
5541,69.0,3.0,120.0,0.0,0.0
5542,59.0,1.0,15.0,1.0,0.0
5543,52.0,0.0,15.0,1.0,0.0
5544,40.0,2.0,15.0,1.0,0.0
5545,69.0,244.0,15.0,0.0,0.0
5546,76.0,2.0,15.0,0.0,0.0
5547,59.0,3.0,570.0,0.0,0.0
5548,64.0,2.0,570.0,0.0,0.0
5549,40.0,13.0,570.0,1.0,0.0
5550,57.0,124.0,240.0,1.0,0.0
5551,52.0,11.0,570.0,1.0,0.0
5552,56.0,123.0,120.0,1.0,0.0
5553,54.0,89.0,120.0,1.0,0.0
5554,56.0,479.0,120.0,1.0,0.0
5555,60.0,6.0,330.0,0.0,0.0
5556,57.0,19.0,330.0,1.0,0.0
5557,45.0,121.0,120.0,1.0,0.0
5558,64.0,37.0,1020.0,0.0,0.0
5559,48.0,96.0,120.0,1.0,0.0
5560,52.0,125.0,120.0,1.0,0.0
5561,59.0,7.0,360.0,1.0,0.0
5562,44.0,116.0,120.0,1.0,0.0
5563,62.0,12.0,330.0,0.0,0.0
5564,47.0,104.0,120.0,1.0,0.0
5565,52.0,117.0,120.0,1.0,0.0
5566,58.0,8.0,360.0,1.0,0.0
5567,43.0,122.0,120.0,1.0,0.0
5568,61.0,38.0,450.0,0.0,0.0
5569,46.0,70.0,120.0,1.0,0.0
5570,52.0,85.0,120.0,1.0,0.0
5571,42.0,110.0,120.0,1.0,0.0
5572,69.0,1.0,240.0,0.0,0.0
5573,57.0,9.0,240.0,1.0,0.0
5574,62.0,7.0,240.0,0.0,0.0
5575,45.0,106.0,120.0,1.0,0.0
5576,71.0,5.0,120.0,0.0,0.0
5577,50.0,117.0,120.0,1.0,0.0
5578,56.0,2.0,120.0,1.0,0.0
5579,72.0,43.0,180.0,0.0,0.0
5580,63.0,8.0,450.0,0.0,0.0
5581,57.0,3.0,240.0,1.0,0.0
5582,41.0,52.0,120.0,1.0,0.0
5583,45.0,65.0,120.0,1.0,0.0
5584,74.0,23.0,30.0,0.0,0.0
5585,72.0,0.0,30.0,0.0,0.0
5586,71.0,39.0,60.0,0.0,0.0
5587,59.0,1.0,60.0,1.0,0.0
5588,51.0,7.0,90.0,1.0,0.0
5589,69.0,5.0,60.0,0.0,0.0
5590,60.0,107.0,60.0,1.0,0.0
5591,40.0,14.0,480.0,1.0,0.0
5592,52.0,2.0,480.0,1.0,0.0
5593,60.0,105.0,120.0,1.0,0.0
5594,69.0,13.0,120.0,0.0,0.0
5595,76.0,82.0,570.0,0.0,0.0
5596,64.0,9.0,120.0,0.0,0.0
5597,59.0,98.0,120.0,1.0,0.0
5598,68.0,4.0,90.0,0.0,0.0
5599,72.0,116.0,120.0,0.0,0.0
5600,63.0,0.0,120.0,0.0,0.0
5601,69.0,2.0,120.0,0.0,0.0
5602,54.0,17.0,90.0,1.0,0.0
5603,57.0,2.0,120.0,1.0,0.0
5604,56.0,6.0,120.0,1.0,0.0
5605,59.0,75.0,150.0,1.0,0.0
5606,71.0,3.0,120.0,0.0,0.0
5607,64.0,1.0,120.0,0.0,0.0
5608,68.0,0.0,120.0,0.0,0.0
5609,74.0,51.0,60.0,0.0,0.0
5610,72.0,247.0,60.0,0.0,0.0
5611,72.0,53.0,240.0,0.0,0.0
5612,60.0,7.0,240.0,1.0,0.0
5613,52.0,5.0,120.0,1.0,0.0
5614,67.0,8.0,180.0,0.0,0.0
5615,53.0,1.0,120.0,1.0,0.0
5616,71.0,50.0,60.0,0.0,0.0
5617,65.0,5.0,60.0,0.0,0.0
5618,69.0,49.0,60.0,0.0,0.0
5619,64.0,5.0,60.0,0.0,0.0
5620,55.0,1.0,120.0,1.0,0.0
5621,59.0,121.0,120.0,1.0,0.0
5622,67.0,59.0,60.0,0.0,0.0
5623,62.0,1.0,60.0,0.0,0.0
5624,65.0,2.0,60.0,0.0,0.0
5625,64.0,2.0,120.0,0.0,0.0
5626,60.0,4.0,120.0,0.0,0.0
5627,52.0,278.0,120.0,1.0,0.0
5628,48.0,4.0,120.0,1.0,0.0
5629,69.0,37.0,180.0,0.0,0.0
5630,57.0,4.0,300.0,1.0,0.0
5631,48.0,1.0,120.0,1.0,0.0
5632,64.0,8.0,180.0,0.0,0.0
5633,71.0,26.0,30.0,0.0,0.0
5634,69.0,54.0,30.0,0.0,0.0
5635,67.0,56.0,60.0,0.0,0.0
5636,50.0,0.0,120.0,1.0,0.0
5637,65.0,52.0,60.0,0.0,0.0
5638,62.0,3.0,60.0,0.0,0.0
5639,64.0,58.0,60.0,0.0,0.0
5640,60.0,2.0,60.0,0.0,0.0
5641,52.0,3.0,120.0,1.0,0.0
5642,62.0,0.0,60.0,0.0,0.0
5643,59.0,4.0,60.0,0.0,0.0
5644,56.0,117.0,60.0,1.0,0.0
5645,60.0,16.0,120.0,0.0,0.0
5646,57.0,1.0,120.0,0.0,0.0
5647,45.0,337.0,120.0,1.0,0.0
5648,58.0,2.0,240.0,0.0,0.0
5649,53.0,1.0,120.0,1.0,0.0
5650,50.0,124.0,120.0,1.0,0.0
5651,59.0,3.0,120.0,0.0,0.0
5652,54.0,120.0,120.0,1.0,0.0
5653,51.0,1.0,120.0,1.0,0.0
5654,62.0,2.0,120.0,0.0,0.0
5655,53.0,0.0,120.0,1.0,0.0
5656,57.0,120.0,120.0,1.0,0.0
5657,55.0,44.0,120.0,1.0,0.0
5658,52.0,1.0,120.0,1.0,0.0
5659,70.0,55.0,150.0,0.0,0.0
5660,61.0,2.0,120.0,0.0,0.0
5661,69.0,131.0,60.0,0.0,0.0
5662,60.0,1.0,240.0,0.0,0.0
5663,69.0,118.0,120.0,0.0,0.0
5664,55.0,3.0,120.0,1.0,0.0
5665,52.0,115.0,120.0,1.0,0.0
5666,53.0,1.0,120.0,1.0,0.0
5667,56.0,122.0,120.0,1.0,0.0
5668,61.0,2.0,120.0,0.0,0.0
5669,55.0,2.0,120.0,1.0,0.0
5670,59.0,113.0,120.0,1.0,0.0
5671,64.0,5.0,120.0,0.0,0.0
5672,57.0,5.0,120.0,1.0,0.0
5673,72.0,55.0,180.0,0.0,0.0
5674,54.0,48.0,120.0,1.0,0.0
5675,63.0,2.0,120.0,0.0,0.0
5676,71.0,133.0,60.0,0.0,0.0
5677,71.0,230.0,120.0,0.0,0.0
5678,40.0,14.0,1500.0,1.0,0.0
5679,76.0,8.0,240.0,0.0,0.0
5680,56.0,1.0,120.0,1.0,0.0
5681,59.0,46.0,120.0,1.0,0.0
5682,65.0,5.0,240.0,0.0,0.0
5683,57.0,11.0,120.0,1.0,0.0
5684,60.0,2.0,120.0,1.0,0.0
5685,77.0,15.0,15.0,0.0,0.0
5686,76.0,15.0,15.0,0.0,0.0
5687,75.0,15.0,15.0,0.0,0.0
5688,76.0,17.0,15.0,0.0,0.0
5689,77.0,109.0,30.0,0.0,0.0
5690,62.0,8.0,120.0,1.0,0.0
5691,59.0,43.0,120.0,1.0,0.0
5692,74.0,6.0,240.0,0.0,0.0
5693,57.0,3.0,120.0,1.0,0.0
5694,60.0,2.0,120.0,1.0,0.0
5695,67.0,15.0,15.0,0.0,0.0
5696,65.0,15.0,15.0,0.0,0.0
5697,64.0,15.0,15.0,0.0,0.0
5698,65.0,19.0,15.0,0.0,0.0
5699,67.0,45.0,30.0,0.0,0.0
5700,64.0,6.0,240.0,0.0,0.0
5701,59.0,3.0,120.0,1.0,0.0
5702,56.0,9.0,120.0,1.0,0.0
5703,76.0,15.0,15.0,0.0,0.0
5704,74.0,15.0,15.0,0.0,0.0
5705,73.0,15.0,15.0,0.0,0.0
5706,74.0,18.0,15.0,0.0,0.0
5707,76.0,109.0,30.0,0.0,0.0
5708,57.0,48.0,120.0,1.0,0.0
5709,60.0,2.0,120.0,1.0,0.0
5710,72.0,6.0,240.0,0.0,0.0
5711,59.0,1.0,120.0,1.0,0.0
5712,55.0,4.0,120.0,1.0,0.0
5713,65.0,15.0,15.0,0.0,0.0
5714,64.0,15.0,15.0,0.0,0.0
5715,63.0,15.0,15.0,0.0,0.0
5716,64.0,19.0,15.0,0.0,0.0
5717,65.0,45.0,30.0,0.0,0.0
5718,62.0,56.0,240.0,0.0,0.0
5719,54.0,0.0,120.0,1.0,0.0
5720,57.0,4.0,120.0,1.0,0.0
5721,74.0,15.0,15.0,0.0,0.0
5722,72.0,15.0,15.0,0.0,0.0
5723,71.0,15.0,15.0,0.0,0.0
5724,72.0,26.0,15.0,0.0,0.0
5725,74.0,107.0,30.0,0.0,0.0
5726,71.0,2.0,240.0,0.0,0.0
5727,59.0,2.0,120.0,1.0,0.0
5728,56.0,0.0,120.0,1.0,0.0
5729,52.0,5.0,120.0,1.0,0.0
5730,56.0,4.0,120.0,1.0,0.0
5731,64.0,15.0,15.0,0.0,0.0
5732,62.0,15.0,15.0,0.0,0.0
5733,61.0,15.0,15.0,0.0,0.0
5734,62.0,19.0,15.0,0.0,0.0
5735,64.0,45.0,30.0,0.0,0.0
5736,60.0,6.0,330.0,0.0,0.0
5737,52.0,1.0,420.0,1.0,0.0
5738,57.0,18.0,420.0,1.0,0.0
5739,72.0,15.0,15.0,0.0,0.0
5740,71.0,1.0,15.0,0.0,0.0
5741,69.0,15.0,15.0,0.0,0.0
5742,71.0,30.0,15.0,0.0,0.0
5743,72.0,111.0,30.0,0.0,0.0
5744,51.0,5.0,240.0,1.0,0.0
5745,41.0,112.0,120.0,1.0,0.0
5746,69.0,5.0,240.0,0.0,0.0
5747,42.0,66.0,120.0,1.0,0.0
5748,40.0,36.0,90.0,1.0,0.0
5749,57.0,15.0,30.0,0.0,0.0
5750,60.0,15.0,15.0,0.0,0.0
5751,59.0,15.0,15.0,0.0,0.0
5752,60.0,15.0,15.0,0.0,0.0
5753,59.0,15.0,15.0,0.0,0.0
5754,60.0,15.0,15.0,0.0,0.0
5755,59.0,15.0,15.0,0.0,0.0
5756,60.0,15.0,15.0,0.0,0.0
5757,59.0,15.0,15.0,0.0,0.0
5758,40.0,2.0,120.0,1.0,0.0
5759,52.0,68.0,180.0,1.0,0.0
5760,60.0,15.0,15.0,0.0,0.0
5761,59.0,15.0,15.0,0.0,0.0
5762,60.0,15.0,15.0,0.0,0.0
5763,59.0,15.0,15.0,0.0,0.0
5764,60.0,15.0,15.0,0.0,0.0
5765,59.0,15.0,15.0,0.0,0.0
5766,57.0,13.0,15.0,0.0,0.0
5767,59.0,54.0,15.0,0.0,0.0
5768,69.0,48.0,120.0,0.0,0.0
5769,41.0,13.0,240.0,1.0,0.0
5770,57.0,3.0,120.0,0.0,0.0
5771,55.0,5.0,60.0,1.0,0.0
5772,53.0,53.0,60.0,1.0,0.0
5773,52.0,54.0,60.0,1.0,0.0
5774,57.0,62.0,180.0,0.0,0.0
5775,42.0,6.0,120.0,1.0,0.0
5776,50.0,62.0,60.0,1.0,0.0
5777,48.0,50.0,60.0,1.0,0.0
5778,47.0,8.0,570.0,1.0,0.0
5779,43.0,9.0,330.0,1.0,0.0
5780,60.0,51.0,60.0,0.0,0.0
5781,59.0,63.0,60.0,0.0,0.0
5782,57.0,58.0,60.0,0.0,0.0
5783,55.0,54.0,60.0,0.0,0.0
5784,62.0,57.0,180.0,0.0,0.0
5785,53.0,61.0,60.0,0.0,0.0
5786,52.0,32.0,750.0,0.0,0.0
5787,44.0,3.0,360.0,1.0,0.0
5788,65.0,63.0,60.0,0.0,0.0
5789,64.0,51.0,60.0,0.0,0.0
5790,62.0,65.0,60.0,0.0,0.0
5791,71.0,67.0,180.0,0.0,0.0
5792,60.0,57.0,60.0,0.0,0.0
5793,50.0,50.0,120.0,1.0,0.0
5794,59.0,5.0,60.0,0.0,0.0
5795,60.0,0.0,210.0,0.0,0.0
5796,45.0,12.0,210.0,1.0,0.0
5797,48.0,0.0,210.0,1.0,0.0
5798,74.0,53.0,60.0,0.0,0.0
5799,72.0,48.0,60.0,0.0,0.0
5800,71.0,53.0,60.0,0.0,0.0
5801,59.0,3.0,120.0,0.0,0.0
5802,69.0,65.0,60.0,0.0,0.0
5803,47.0,16.0,120.0,1.0,0.0
5804,50.0,3.0,120.0,1.0,0.0
5805,68.0,10.0,60.0,0.0,0.0
5806,57.0,45.0,90.0,0.0,0.0
5807,69.0,3.0,60.0,0.0,0.0
5808,48.0,13.0,60.0,1.0,0.0
5809,70.0,2.0,60.0,0.0,0.0
5810,67.0,2.0,60.0,0.0,0.0
5811,52.0,2.0,60.0,1.0,0.0
5812,49.0,47.0,60.0,1.0,0.0
5813,69.0,3.0,60.0,0.0,0.0
5814,65.0,5.0,60.0,0.0,0.0
5815,50.0,53.0,60.0,1.0,0.0
5816,53.0,4.0,60.0,1.0,0.0
5817,64.0,6.0,60.0,0.0,0.0
5818,67.0,2.0,60.0,0.0,0.0
5819,52.0,47.0,60.0,1.0,0.0
5820,55.0,4.0,60.0,1.0,0.0
5821,62.0,2.0,60.0,0.0,0.0
5822,65.0,3.0,60.0,0.0,0.0
5823,57.0,44.0,60.0,1.0,0.0
5824,53.0,0.0,60.0,1.0,0.0
5825,64.0,13.0,60.0,0.0,0.0
5826,61.0,9.0,30.0,0.0,0.0
5827,58.0,46.0,60.0,1.0,0.0
5828,55.0,5.0,60.0,1.0,0.0
5829,65.0,55.0,60.0,0.0,0.0
5830,62.0,2.0,60.0,0.0,0.0
5831,57.0,1.0,60.0,1.0,0.0
5832,53.0,5.0,60.0,1.0,0.0
5833,74.0,1.0,60.0,0.0,0.0
5834,77.0,0.0,60.0,0.0,0.0
5835,59.0,2.0,60.0,1.0,0.0
5836,56.0,53.0,60.0,1.0,0.0
5837,76.0,59.0,60.0,0.0,0.0
5838,72.0,0.0,60.0,0.0,0.0
5839,60.0,4.0,60.0,1.0,0.0
5840,57.0,1.0,60.0,1.0,0.0
5841,74.0,0.0,60.0,0.0,0.0
5842,71.0,3.0,60.0,0.0,0.0
5843,62.0,1.0,60.0,1.0,0.0
5844,59.0,54.0,60.0,1.0,0.0
5845,72.0,48.0,60.0,0.0,0.0
5846,69.0,2.0,60.0,0.0,0.0
5847,60.0,1.0,60.0,1.0,0.0
5848,64.0,1.0,60.0,1.0,0.0
5849,68.0,8.0,60.0,0.0,0.0
5850,71.0,2.0,60.0,0.0,0.0
5851,62.0,50.0,60.0,1.0,0.0
5852,65.0,6.0,60.0,1.0,0.0
5853,69.0,4.0,60.0,0.0,0.0
5854,72.0,2.0,60.0,0.0,0.0
5855,63.0,4.0,60.0,1.0,0.0
5856,66.0,52.0,60.0,1.0,0.0
5857,60.0,2.0,120.0,0.0,0.0
5858,63.0,59.0,60.0,0.0,0.0
5859,57.0,57.0,120.0,1.0,0.0
5860,54.0,2.0,60.0,1.0,0.0
5861,64.0,8.0,300.0,0.0,0.0
5862,52.0,2.0,180.0,1.0,0.0
5863,61.0,58.0,60.0,0.0,0.0
5864,58.0,1.0,60.0,1.0,0.0
5865,62.0,2.0,60.0,0.0,0.0
5866,59.0,51.0,60.0,1.0,0.0
5867,56.0,55.0,60.0,0.0,0.0
5868,50.0,6.0,60.0,1.0,0.0
5869,57.0,32.0,60.0,0.0,0.0
5870,49.0,8.0,60.0,1.0,0.0
5871,45.0,18.0,90.0,1.0,0.0
5872,49.0,58.0,60.0,1.0,0.0
5873,52.0,67.0,60.0,1.0,0.0
5874,57.0,50.0,60.0,1.0,0.0
5875,52.0,59.0,60.0,1.0,0.0
5876,61.0,3.0,120.0,1.0,0.0
5877,64.0,3.0,120.0,0.0,0.0
5878,67.0,2.0,120.0,0.0,0.0
5879,49.0,65.0,60.0,1.0,0.0
5880,62.0,1.0,60.0,0.0,0.0
5881,65.0,39.0,90.0,0.0,0.0
5882,57.0,2.0,90.0,1.0,0.0
5883,45.0,15.0,60.0,1.0,0.0
5884,50.0,57.0,60.0,1.0,0.0
5885,54.0,62.0,60.0,1.0,0.0
5886,57.0,55.0,60.0,1.0,0.0
5887,59.0,59.0,60.0,1.0,0.0
5888,68.0,6.0,120.0,0.0,0.0
5889,54.0,1.0,60.0,1.0,0.0
5890,64.0,3.0,180.0,0.0,0.0
5891,50.0,58.0,60.0,1.0,0.0
5892,62.0,2.0,60.0,1.0,0.0
5893,69.0,16.0,60.0,0.0,0.0
5894,45.0,2.0,60.0,1.0,0.0
5895,61.0,38.0,90.0,1.0,0.0
5896,49.0,61.0,60.0,1.0,0.0
5897,52.0,59.0,60.0,1.0,0.0
5898,57.0,68.0,60.0,1.0,0.0
5899,70.0,5.0,90.0,0.0,0.0
5900,73.0,8.0,90.0,0.0,0.0
5901,52.0,22.0,60.0,1.0,0.0
5902,67.0,3.0,90.0,1.0,0.0
5903,49.0,12.0,30.0,1.0,0.0
5904,69.0,1.0,20.0,0.0,0.0
5905,74.0,25.0,20.0,0.0,0.0
5906,66.0,19.0,30.0,1.0,0.0
5907,45.0,66.0,60.0,1.0,0.0
5908,64.0,10.0,20.0,1.0,0.0
5909,74.0,4.0,30.0,0.0,0.0
5910,69.0,2.0,30.0,0.0,0.0
5911,50.0,58.0,60.0,1.0,0.0
5912,54.0,59.0,60.0,1.0,0.0
5913,57.0,54.0,60.0,1.0,0.0
5914,59.0,1.0,60.0,1.0,0.0
5915,65.0,13.0,90.0,0.0,0.0
5916,50.0,35.0,60.0,1.0,0.0
5917,68.0,6.0,90.0,0.0,0.0
5918,47.0,3.0,60.0,1.0,0.0
5919,62.0,53.0,60.0,1.0,0.0
5920,69.0,2.0,20.0,0.0,0.0
5921,64.0,8.0,20.0,0.0,0.0
5922,69.0,5.0,180.0,0.0,0.0
5923,60.0,8.0,60.0,1.0,0.0
5924,45.0,32.0,750.0,1.0,0.0
5925,64.0,50.0,60.0,0.0,0.0
5926,62.0,51.0,60.0,1.0,0.0
5927,65.0,8.0,60.0,0.0,0.0
5928,64.0,3.0,60.0,0.0,0.0
5929,60.0,56.0,60.0,1.0,0.0
5930,65.0,5.0,60.0,0.0,0.0
5931,68.0,1.0,60.0,0.0,0.0
5932,62.0,53.0,60.0,1.0,0.0
5933,69.0,1.0,60.0,0.0,0.0
5934,64.0,3.0,60.0,0.0,0.0
5935,60.0,54.0,60.0,1.0,0.0
5936,65.0,8.0,60.0,0.0,0.0
5937,68.0,52.0,60.0,0.0,0.0
5938,62.0,1.0,60.0,1.0,0.0
5939,64.0,58.0,60.0,0.0,0.0
5940,69.0,0.0,180.0,0.0,0.0
5941,60.0,7.0,60.0,1.0,0.0
5942,62.0,55.0,60.0,0.0,0.0
5943,59.0,1.0,60.0,1.0,0.0
5944,57.0,1.0,60.0,1.0,0.0
5945,60.0,60.0,60.0,0.0,0.0
5946,59.0,1.0,60.0,0.0,0.0
5947,56.0,51.0,60.0,1.0,0.0
5948,65.0,3.0,60.0,0.0,0.0
5949,60.0,4.0,60.0,0.0,0.0
5950,64.0,4.0,60.0,0.0,0.0
5951,57.0,58.0,60.0,1.0,0.0
5952,59.0,4.0,60.0,0.0,0.0
5953,65.0,2.0,60.0,0.0,0.0
5954,56.0,18.0,60.0,1.0,0.0
5955,60.0,1.0,60.0,0.0,0.0
5956,64.0,2.0,180.0,0.0,0.0
5957,57.0,64.0,60.0,1.0,0.0
5958,62.0,50.0,60.0,0.0,0.0
5959,44.0,1.0,60.0,1.0,0.0
5960,59.0,2.0,60.0,1.0,0.0
5961,60.0,2.0,60.0,0.0,0.0
5962,45.0,54.0,60.0,1.0,0.0
5963,57.0,2.0,60.0,1.0,0.0
5964,59.0,4.0,60.0,0.0,0.0
5965,62.0,3.0,60.0,0.0,0.0
5966,56.0,55.0,60.0,1.0,0.0
5967,40.0,1.0,60.0,1.0,0.0
5968,57.0,2.0,60.0,0.0,0.0
5969,60.0,1.0,60.0,0.0,0.0
5970,45.0,35.0,60.0,1.0,0.0
5971,59.0,62.0,60.0,0.0,0.0
5972,56.0,9.0,60.0,0.0,0.0
5973,40.0,12.0,30.0,1.0,0.0
5974,50.0,6.0,15.0,1.0,0.0
5975,45.0,7.0,60.0,1.0,0.0
5976,48.0,1.0,60.0,1.0,0.0
5977,57.0,46.0,60.0,0.0,0.0
5978,53.0,58.0,60.0,0.0,0.0
5979,50.0,0.0,60.0,1.0,0.0
5980,52.0,1.0,60.0,0.0,0.0
5981,48.0,8.0,60.0,1.0,0.0
5982,45.0,7.0,60.0,1.0,0.0
5983,57.0,45.0,60.0,0.0,0.0
5984,50.0,9.0,60.0,1.0,0.0
5985,53.0,52.0,60.0,0.0,0.0
5986,45.0,10.0,60.0,1.0,0.0
5987,48.0,2.0,60.0,1.0,0.0
5988,57.0,47.0,60.0,0.0,0.0
5989,52.0,2.0,60.0,0.0,0.0
5990,53.0,4.0,60.0,0.0,0.0
5991,50.0,236.0,60.0,1.0,0.0
5992,52.0,120.0,240.0,0.0,0.0
5993,45.0,3.0,240.0,1.0,0.0
5994,48.0,0.0,240.0,1.0,0.0
5995,57.0,1.0,240.0,0.0,0.0
