,note,step,duration,channel,velocity
0,66.0,240.0,960.0,7.0,0.0
1,62.0,456.0,450.0,8.0,0.0
2,81.0,24.0,900.0,6.0,0.0
3,62.0,24.0,450.0,8.0,0.0
4,62.0,24.0,450.0,8.0,0.0
5,80.0,0.0,240.0,6.0,0.0
6,65.0,216.0,240.0,7.0,0.0
7,66.0,0.0,240.0,7.0,0.0
8,81.0,240.0,240.0,6.0,0.0
9,80.0,0.0,240.0,6.0,0.0
10,62.0,12.0,450.0,8.0,0.0
11,65.0,216.0,240.0,7.0,0.0
12,66.0,240.0,240.0,7.0,0.0
13,81.0,12.0,240.0,6.0,0.0
14,83.0,216.0,240.0,6.0,0.0
15,67.0,0.0,240.0,7.0,0.0
16,62.0,24.0,450.0,8.0,0.0
17,66.0,0.0,240.0,7.0,0.0
18,81.0,240.0,240.0,6.0,0.0
19,64.0,0.0,240.0,7.0,0.0
20,79.0,192.0,240.0,6.0,0.0
21,78.0,396.0,240.0,6.0,0.0
22,62.0,36.0,180.0,7.0,0.0
23,78.0,384.0,450.0,6.0,0.0
24,62.0,72.0,390.0,7.0,0.0
25,81.0,114.0,360.0,6.0,0.0
26,78.0,162.0,120.0,6.0,0.0
27,50.0,204.0,900.0,8.0,0.0
28,54.0,72.0,150.0,7.0,0.0
29,74.0,168.0,240.0,6.0,0.0
30,57.0,240.0,150.0,7.0,0.0
31,74.0,168.0,240.0,6.0,0.0
32,54.0,72.0,150.0,7.0,0.0
33,57.0,36.0,150.0,7.0,0.0
34,69.0,168.0,240.0,6.0,0.0
35,52.0,204.0,900.0,8.0,0.0
36,49.0,0.0,900.0,8.0,0.0
37,55.0,72.0,150.0,7.0,0.0
38,57.0,240.0,150.0,7.0,0.0
39,69.0,168.0,240.0,6.0,0.0
40,55.0,72.0,150.0,7.0,0.0
41,57.0,36.0,150.0,7.0,0.0
42,54.0,240.0,150.0,7.0,0.0
43,50.0,48.0,900.0,8.0,0.0
44,74.0,60.0,480.0,6.0,0.0
45,57.0,84.0,150.0,7.0,0.0
46,76.0,60.0,60.0,6.0,0.0
47,54.0,24.0,150.0,7.0,0.0
48,74.0,36.0,60.0,6.0,0.0
49,73.0,60.0,60.0,6.0,0.0
50,74.0,120.0,60.0,6.0,0.0
51,57.0,36.0,150.0,7.0,0.0
52,76.0,36.0,120.0,6.0,0.0
53,78.0,240.0,120.0,6.0,0.0
54,76.0,144.0,240.0,6.0,0.0
55,45.0,96.0,390.0,7.0,0.0
56,78.0,240.0,240.0,6.0,0.0
57,79.0,228.0,240.0,6.0,0.0
58,80.0,468.0,240.0,6.0,0.0
59,81.0,24.0,900.0,6.0,0.0
60,66.0,240.0,960.0,7.0,0.0
61,62.0,456.0,450.0,8.0,0.0
62,62.0,24.0,450.0,8.0,0.0
63,65.0,216.0,240.0,7.0,0.0
64,80.0,0.0,240.0,6.0,0.0
65,62.0,24.0,450.0,8.0,0.0
66,81.0,240.0,240.0,6.0,0.0
67,66.0,0.0,240.0,7.0,0.0
68,65.0,216.0,240.0,7.0,0.0
69,62.0,12.0,450.0,8.0,0.0
70,80.0,0.0,240.0,6.0,0.0
71,66.0,240.0,240.0,7.0,0.0
72,81.0,12.0,240.0,6.0,0.0
73,62.0,24.0,450.0,8.0,0.0
74,83.0,0.0,240.0,6.0,0.0
75,67.0,216.0,240.0,7.0,0.0
76,66.0,0.0,240.0,7.0,0.0
77,81.0,240.0,240.0,6.0,0.0
78,64.0,0.0,240.0,7.0,0.0
79,79.0,192.0,240.0,6.0,0.0
80,78.0,396.0,240.0,6.0,0.0
81,62.0,36.0,180.0,7.0,0.0
82,62.0,72.0,390.0,7.0,0.0
83,78.0,384.0,450.0,6.0,0.0
84,81.0,114.0,360.0,6.0,0.0
85,78.0,162.0,120.0,6.0,0.0
86,50.0,204.0,900.0,8.0,0.0
87,74.0,168.0,240.0,6.0,0.0
88,54.0,72.0,150.0,7.0,0.0
89,57.0,240.0,150.0,7.0,0.0
90,54.0,72.0,150.0,7.0,0.0
91,74.0,168.0,240.0,6.0,0.0
92,57.0,36.0,150.0,7.0,0.0
93,55.0,72.0,150.0,7.0,0.0
94,52.0,0.0,900.0,8.0,0.0
95,49.0,432.0,900.0,8.0,0.0
96,69.0,168.0,240.0,6.0,0.0
97,57.0,240.0,150.0,7.0,0.0
98,55.0,72.0,150.0,7.0,0.0
99,69.0,168.0,240.0,6.0,0.0
100,57.0,36.0,150.0,7.0,0.0
101,67.0,144.0,960.0,6.0,0.0
102,50.0,480.0,390.0,8.0,0.0
103,61.0,0.0,960.0,7.0,0.0
104,57.0,48.0,1140.0,7.0,0.0
105,64.0,0.0,960.0,7.0,0.0
106,45.0,96.0,390.0,8.0,0.0
107,62.0,48.0,150.0,7.0,0.0
108,66.0,60.0,240.0,6.0,0.0
109,38.0,96.0,390.0,8.0,0.0
110,57.0,84.0,60.0,6.0,0.0
111,69.0,60.0,180.0,6.0,0.0
112,62.0,180.0,60.0,6.0,0.0
113,74.0,60.0,180.0,6.0,0.0
114,66.0,180.0,60.0,6.0,0.0
115,78.0,60.0,180.0,6.0,0.0
116,50.0,96.0,780.0,3.0,0.0
117,81.0,0.0,900.0,1.0,0.0
118,69.0,324.0,60.0,6.0,0.0
119,62.0,96.0,390.0,13.0,0.0
120,66.0,0.0,900.0,12.0,0.0
121,81.0,48.0,900.0,10.0,0.0
122,78.0,0.0,900.0,1.0,0.0
123,62.0,0.0,780.0,3.0,0.0
124,62.0,0.0,390.0,2.0,0.0
125,50.0,0.0,390.0,14.0,0.0
126,69.0,0.0,900.0,12.0,0.0
127,78.0,0.0,900.0,11.0,0.0
128,81.0,240.0,960.0,0.0,0.0
129,81.0,288.0,420.0,6.0,0.0
130,50.0,0.0,390.0,14.0,0.0
131,62.0,0.0,390.0,2.0,0.0
132,62.0,48.0,390.0,13.0,0.0
133,65.0,0.0,240.0,12.0,0.0
134,77.0,0.0,240.0,1.0,0.0
135,80.0,0.0,240.0,1.0,0.0
136,68.0,144.0,240.0,12.0,0.0
137,50.0,0.0,390.0,3.0,0.0
138,62.0,0.0,390.0,3.0,0.0
139,62.0,0.0,390.0,13.0,0.0
140,80.0,0.0,240.0,10.0,0.0
141,62.0,96.0,390.0,2.0,0.0
142,80.0,0.0,240.0,0.0,0.0
143,50.0,0.0,390.0,14.0,0.0
144,77.0,0.0,240.0,11.0,0.0
145,81.0,240.0,240.0,10.0,0.0
146,66.0,0.0,240.0,12.0,0.0
147,69.0,0.0,240.0,12.0,0.0
148,78.0,0.0,240.0,1.0,0.0
149,81.0,0.0,240.0,0.0,0.0
150,81.0,0.0,240.0,1.0,0.0
151,78.0,0.0,240.0,11.0,0.0
152,68.0,0.0,240.0,12.0,0.0
153,77.0,0.0,240.0,11.0,0.0
154,80.0,0.0,240.0,1.0,0.0
155,77.0,144.0,240.0,1.0,0.0
156,62.0,0.0,390.0,13.0,0.0
157,65.0,0.0,240.0,12.0,0.0
158,80.0,0.0,240.0,0.0,0.0
159,80.0,0.0,240.0,10.0,0.0
160,62.0,0.0,390.0,2.0,0.0
161,50.0,0.0,390.0,14.0,0.0
162,62.0,0.0,390.0,3.0,0.0
163,50.0,84.0,390.0,3.0,0.0
164,69.0,0.0,240.0,12.0,0.0
165,66.0,0.0,240.0,12.0,0.0
166,78.0,0.0,240.0,11.0,0.0
167,81.0,0.0,240.0,10.0,0.0
168,81.0,240.0,240.0,0.0,0.0
169,81.0,0.0,240.0,1.0,0.0
170,78.0,12.0,240.0,1.0,0.0
171,79.0,240.0,240.0,1.0,0.0
172,83.0,0.0,240.0,1.0,0.0
173,62.0,0.0,960.0,2.0,0.0
174,83.0,0.0,240.0,10.0,0.0
175,79.0,0.0,240.0,11.0,0.0
176,71.0,0.0,240.0,12.0,0.0
177,50.0,0.0,960.0,14.0,0.0
178,62.0,0.0,1350.0,3.0,0.0
179,62.0,144.0,960.0,13.0,0.0
180,50.0,0.0,1350.0,3.0,0.0
181,83.0,0.0,240.0,0.0,0.0
182,67.0,0.0,240.0,12.0,0.0
183,81.0,0.0,240.0,0.0,0.0
184,66.0,0.0,240.0,12.0,0.0
185,69.0,0.0,240.0,12.0,0.0
186,78.0,240.0,240.0,1.0,0.0
187,81.0,0.0,240.0,10.0,0.0
188,78.0,0.0,240.0,11.0,0.0
189,81.0,0.0,240.0,1.0,0.0
190,79.0,0.0,240.0,10.0,0.0
191,79.0,0.0,240.0,0.0,0.0
192,64.0,0.0,240.0,12.0,0.0
193,76.0,0.0,240.0,1.0,0.0
194,79.0,0.0,240.0,1.0,0.0
195,67.0,0.0,240.0,12.0,0.0
196,76.0,192.0,240.0,11.0,0.0
197,78.0,0.0,240.0,1.0,0.0
198,78.0,36.0,180.0,0.0,0.0
199,78.0,0.0,240.0,10.0,0.0
200,74.0,0.0,240.0,1.0,0.0
201,74.0,0.0,240.0,11.0,0.0
202,66.0,12.0,240.0,12.0,0.0
203,62.0,0.0,240.0,12.0,0.0
204,50.0,0.0,390.0,13.0,0.0
205,50.0,72.0,390.0,2.0,0.0
206,62.0,0.0,450.0,12.0,0.0
207,78.0,240.0,150.0,10.0,0.0
208,38.0,0.0,390.0,14.0,0.0
209,66.0,0.0,450.0,12.0,0.0
210,74.0,0.0,450.0,11.0,0.0
211,78.0,0.0,450.0,1.0,0.0
212,74.0,24.0,450.0,1.0,0.0
213,78.0,0.0,390.0,0.0,0.0
214,78.0,240.0,240.0,10.0,0.0
215,81.0,228.0,240.0,10.0,0.0
216,78.0,168.0,240.0,10.0,0.0
217,66.0,36.0,150.0,11.0,0.0
218,74.0,204.0,180.0,10.0,0.0
219,38.0,156.0,960.0,14.0,0.0
220,50.0,0.0,960.0,13.0,0.0
221,62.0,0.0,150.0,12.0,0.0
222,57.0,0.0,150.0,12.0,0.0
223,62.0,240.0,150.0,11.0,0.0
224,62.0,36.0,150.0,12.0,0.0
225,66.0,0.0,150.0,11.0,0.0
226,74.0,204.0,180.0,10.0,0.0
227,62.0,0.0,150.0,11.0,0.0
228,57.0,84.0,150.0,12.0,0.0
229,49.0,156.0,960.0,13.0,0.0
230,37.0,0.0,960.0,14.0,0.0
231,67.0,36.0,150.0,11.0,0.0
232,64.0,0.0,150.0,12.0,0.0
233,69.0,204.0,180.0,10.0,0.0
234,57.0,0.0,150.0,12.0,0.0
235,64.0,240.0,150.0,11.0,0.0
236,67.0,36.0,150.0,11.0,0.0
237,64.0,0.0,150.0,12.0,0.0
238,69.0,204.0,180.0,10.0,0.0
239,64.0,84.0,150.0,11.0,0.0
240,57.0,0.0,150.0,12.0,0.0
241,62.0,240.0,150.0,12.0,0.0
242,38.0,0.0,960.0,14.0,0.0
243,66.0,0.0,150.0,11.0,0.0
244,50.0,156.0,960.0,13.0,0.0
245,74.0,120.0,720.0,10.0,0.0
246,62.0,240.0,150.0,11.0,0.0
247,57.0,0.0,150.0,12.0,0.0
248,62.0,0.0,150.0,12.0,0.0
249,66.0,84.0,150.0,11.0,0.0
250,76.0,36.0,120.0,10.0,0.0
251,57.0,0.0,150.0,12.0,0.0
252,62.0,60.0,150.0,11.0,0.0
253,78.0,24.0,90.0,10.0,0.0
254,76.0,144.0,240.0,10.0,0.0
255,33.0,0.0,390.0,14.0,0.0
256,61.0,84.0,150.0,12.0,0.0
257,45.0,96.0,390.0,13.0,0.0
258,64.0,0.0,150.0,11.0,0.0
259,78.0,240.0,240.0,10.0,0.0
260,79.0,240.0,240.0,10.0,0.0
261,80.0,384.0,240.0,10.0,0.0
262,38.0,384.0,390.0,14.0,0.0
263,62.0,96.0,780.0,3.0,0.0
264,57.0,0.0,960.0,2.0,0.0
265,54.0,0.0,960.0,2.0,0.0
266,50.0,0.0,780.0,3.0,0.0
267,81.0,0.0,900.0,10.0,0.0
268,78.0,48.0,900.0,11.0,0.0
269,50.0,0.0,390.0,13.0,0.0
270,93.0,240.0,960.0,0.0,0.0
271,69.0,0.0,960.0,12.0,0.0
272,74.0,0.0,3270.0,1.0,0.0
273,86.0,0.0,3270.0,1.0,0.0
274,62.0,48.0,390.0,13.0,0.0
275,50.0,0.0,390.0,14.0,0.0
276,62.0,0.0,390.0,3.0,0.0
277,56.0,144.0,240.0,2.0,0.0
278,53.0,0.0,240.0,2.0,0.0
279,92.0,0.0,240.0,0.0,0.0
280,77.0,0.0,240.0,11.0,0.0
281,80.0,0.0,240.0,10.0,0.0
282,62.0,0.0,390.0,13.0,0.0
283,68.0,0.0,240.0,12.0,0.0
284,50.0,0.0,390.0,3.0,0.0
285,50.0,96.0,390.0,14.0,0.0
286,93.0,0.0,240.0,0.0,0.0
287,69.0,0.0,240.0,12.0,0.0
288,81.0,0.0,240.0,10.0,0.0
289,54.0,0.0,240.0,2.0,0.0
290,78.0,240.0,240.0,11.0,0.0
291,57.0,0.0,240.0,2.0,0.0
292,68.0,0.0,240.0,12.0,0.0
293,50.0,0.0,390.0,14.0,0.0
294,50.0,0.0,390.0,3.0,0.0
295,56.0,144.0,240.0,2.0,0.0
296,53.0,0.0,240.0,2.0,0.0
297,77.0,0.0,240.0,11.0,0.0
298,92.0,0.0,240.0,0.0,0.0
299,62.0,0.0,390.0,13.0,0.0
300,62.0,84.0,390.0,3.0,0.0
301,80.0,0.0,240.0,10.0,0.0
302,81.0,12.0,240.0,10.0,0.0
303,78.0,0.0,240.0,11.0,0.0
304,54.0,0.0,240.0,2.0,0.0
305,57.0,240.0,240.0,2.0,0.0
306,69.0,0.0,240.0,12.0,0.0
307,93.0,0.0,240.0,0.0,0.0
308,83.0,0.0,240.0,10.0,0.0
309,50.0,0.0,1350.0,3.0,0.0
310,62.0,0.0,1350.0,3.0,0.0
311,71.0,240.0,240.0,12.0,0.0
312,62.0,144.0,960.0,13.0,0.0
313,50.0,0.0,960.0,14.0,0.0
314,59.0,0.0,240.0,2.0,0.0
315,79.0,0.0,240.0,11.0,0.0
316,55.0,0.0,240.0,2.0,0.0
317,95.0,0.0,240.0,0.0,0.0
318,78.0,0.0,240.0,11.0,0.0
319,57.0,0.0,240.0,2.0,0.0
320,54.0,0.0,240.0,2.0,0.0
321,81.0,240.0,240.0,10.0,0.0
322,69.0,0.0,240.0,12.0,0.0
323,93.0,0.0,240.0,0.0,0.0
324,67.0,0.0,240.0,12.0,0.0
325,52.0,0.0,240.0,2.0,0.0
326,91.0,0.0,240.0,0.0,0.0
327,79.0,0.0,240.0,10.0,0.0
328,76.0,192.0,240.0,11.0,0.0
329,55.0,0.0,240.0,2.0,0.0
330,50.0,0.0,240.0,2.0,0.0
331,78.0,0.0,240.0,10.0,0.0
332,54.0,0.0,240.0,2.0,0.0
333,90.0,36.0,180.0,0.0,0.0
334,66.0,0.0,180.0,12.0,0.0
335,74.0,12.0,240.0,11.0,0.0
336,74.0,24.0,450.0,11.0,0.0
337,38.0,36.0,390.0,14.0,0.0
338,50.0,0.0,390.0,2.0,0.0
339,90.0,0.0,390.0,0.0,0.0
340,54.0,0.0,390.0,2.0,0.0
341,50.0,0.0,390.0,13.0,0.0
342,66.0,0.0,390.0,12.0,0.0
343,78.0,156.0,150.0,10.0,0.0
344,79.0,60.0,60.0,10.0,0.0
345,78.0,24.0,60.0,10.0,0.0
346,76.0,36.0,60.0,10.0,0.0
347,78.0,240.0,60.0,10.0,0.0
348,81.0,192.0,240.0,10.0,0.0
349,78.0,204.0,180.0,10.0,0.0
350,57.0,0.0,150.0,12.0,0.0
351,57.0,156.0,960.0,13.0,0.0
352,66.0,36.0,150.0,11.0,0.0
353,45.0,0.0,960.0,14.0,0.0
354,74.0,204.0,180.0,10.0,0.0
355,62.0,0.0,150.0,11.0,0.0
356,54.0,240.0,150.0,12.0,0.0
357,74.0,204.0,180.0,10.0,0.0
358,57.0,0.0,150.0,12.0,0.0
359,66.0,36.0,150.0,11.0,0.0
360,62.0,84.0,150.0,11.0,0.0
361,54.0,0.0,150.0,12.0,0.0
362,55.0,0.0,150.0,12.0,0.0
363,45.0,192.0,960.0,13.0,0.0
364,64.0,36.0,150.0,11.0,0.0
365,33.0,0.0,960.0,14.0,0.0
366,69.0,204.0,180.0,10.0,0.0
367,52.0,0.0,150.0,12.0,0.0
368,61.0,240.0,150.0,11.0,0.0
369,55.0,36.0,150.0,12.0,0.0
370,64.0,0.0,150.0,11.0,0.0
371,69.0,204.0,180.0,10.0,0.0
372,52.0,84.0,150.0,12.0,0.0
373,61.0,0.0,150.0,11.0,0.0
374,79.0,0.0,960.0,0.0,0.0
375,61.0,192.0,960.0,12.0,0.0
376,50.0,0.0,180.0,13.0,0.0
377,57.0,0.0,1140.0,3.0,0.0
378,45.0,0.0,960.0,3.0,0.0
379,52.0,0.0,960.0,2.0,0.0
380,55.0,0.0,960.0,2.0,0.0
381,67.0,0.0,960.0,10.0,0.0
382,73.0,0.0,960.0,1.0,0.0
383,76.0,0.0,960.0,1.0,0.0
384,64.0,0.0,960.0,11.0,0.0
385,38.0,480.0,180.0,14.0,0.0
386,33.0,288.0,180.0,14.0,0.0
387,45.0,0.0,180.0,13.0,0.0
388,38.0,0.0,180.0,14.0,0.0
389,50.0,0.0,180.0,2.0,0.0
390,54.0,0.0,180.0,2.0,0.0
391,57.0,0.0,15.0,12.0,0.0
392,78.0,0.0,180.0,1.0,0.0
393,74.0,0.0,180.0,1.0,0.0
394,66.0,0.0,180.0,10.0,0.0
395,62.0,288.0,180.0,11.0,0.0
396,50.0,0.0,180.0,13.0,0.0
397,62.0,0.0,180.0,12.0,0.0
398,50.0,0.0,180.0,3.0,0.0
399,78.0,0.0,180.0,0.0,0.0
400,74.0,240.0,240.0,10.0,0.0
401,74.0,0.0,240.0,11.0,0.0
402,76.0,240.0,240.0,10.0,0.0
403,73.0,0.0,240.0,11.0,0.0
404,74.0,0.0,240.0,11.0,0.0
405,78.0,384.0,240.0,10.0,0.0
406,76.0,0.0,390.0,11.0,0.0
407,79.0,80.0,720.0,6.0,0.0
408,79.0,336.0,390.0,10.0,0.0
409,57.0,0.0,960.0,7.0,0.0
410,61.0,0.0,720.0,7.0,0.0
411,78.0,80.0,90.0,6.0,0.0
412,64.0,0.0,480.0,7.0,0.0
413,76.0,80.0,90.0,6.0,0.0
414,74.0,144.0,90.0,6.0,0.0
415,73.0,96.0,150.0,6.0,0.0
416,67.0,240.0,240.0,7.0,0.0
417,76.0,240.0,240.0,6.0,0.0
418,78.0,240.0,240.0,6.0,0.0
419,79.0,720.0,240.0,6.0,0.0
420,81.0,80.0,720.0,6.0,0.0
421,57.0,0.0,960.0,7.0,0.0
422,62.0,0.0,720.0,7.0,0.0
423,66.0,0.0,480.0,7.0,0.0
424,79.0,80.0,90.0,6.0,0.0
425,78.0,80.0,90.0,6.0,0.0
426,76.0,144.0,90.0,6.0,0.0
427,69.0,240.0,240.0,7.0,0.0
428,74.0,96.0,150.0,6.0,0.0
429,81.0,240.0,240.0,6.0,0.0
430,83.0,240.0,240.0,6.0,0.0
431,85.0,720.0,240.0,6.0,0.0
432,86.0,80.0,720.0,6.0,0.0
433,52.0,0.0,960.0,7.0,0.0
434,56.0,0.0,720.0,7.0,0.0
435,59.0,0.0,480.0,7.0,0.0
436,85.0,80.0,90.0,6.0,0.0
437,83.0,80.0,90.0,6.0,0.0
438,81.0,144.0,90.0,6.0,0.0
439,80.0,96.0,150.0,6.0,0.0
440,62.0,240.0,240.0,7.0,0.0
441,83.0,240.0,240.0,6.0,0.0
442,85.0,240.0,240.0,6.0,0.0
443,86.0,720.0,240.0,6.0,0.0
444,88.0,80.0,720.0,6.0,0.0
445,57.0,228.0,960.0,7.0,0.0
446,61.0,0.0,720.0,7.0,0.0
447,86.0,80.0,90.0,6.0,0.0
448,64.0,0.0,480.0,7.0,0.0
449,85.0,80.0,90.0,6.0,0.0
450,83.0,144.0,90.0,6.0,0.0
451,69.0,0.0,240.0,7.0,0.0
452,81.0,96.0,150.0,6.0,0.0
453,81.0,240.0,240.0,6.0,0.0
454,81.0,240.0,240.0,6.0,0.0
455,81.0,396.0,240.0,6.0,0.0
456,62.0,480.0,390.0,8.0,0.0
457,81.0,48.0,900.0,6.0,0.0
458,66.0,240.0,960.0,7.0,0.0
459,62.0,48.0,390.0,8.0,0.0
460,65.0,144.0,240.0,7.0,0.0
461,62.0,96.0,390.0,8.0,0.0
462,80.0,0.0,240.0,6.0,0.0
463,66.0,240.0,240.0,7.0,0.0
464,81.0,0.0,240.0,6.0,0.0
465,62.0,48.0,390.0,8.0,0.0
466,65.0,144.0,240.0,7.0,0.0
467,80.0,0.0,240.0,6.0,0.0
468,81.0,48.0,180.0,6.0,0.0
469,66.0,240.0,240.0,7.0,0.0
470,67.0,0.0,240.0,7.0,0.0
471,83.0,144.0,240.0,6.0,0.0
472,62.0,96.0,390.0,8.0,0.0
473,66.0,240.0,240.0,7.0,0.0
474,81.0,0.0,240.0,6.0,0.0
475,79.0,240.0,240.0,6.0,0.0
476,64.0,0.0,240.0,7.0,0.0
477,78.0,0.0,15.0,6.0,0.0
478,62.0,144.0,15.0,7.0,0.0
479,79.0,60.0,60.0,6.0,0.0
480,78.0,24.0,60.0,6.0,0.0
481,76.0,60.0,60.0,6.0,0.0
482,78.0,360.0,60.0,6.0,0.0
483,81.0,120.0,360.0,6.0,0.0
484,78.0,192.0,120.0,6.0,0.0
485,54.0,240.0,180.0,7.0,0.0
486,50.0,0.0,900.0,8.0,0.0
487,45.0,0.0,900.0,8.0,0.0
488,74.0,0.0,180.0,6.0,0.0
489,57.0,240.0,180.0,7.0,0.0
490,74.0,240.0,180.0,6.0,0.0
491,54.0,0.0,180.0,7.0,0.0
492,57.0,240.0,180.0,7.0,0.0
493,69.0,0.0,180.0,6.0,0.0
494,45.0,432.0,900.0,8.0,0.0
495,52.0,240.0,180.0,7.0,0.0
496,49.0,0.0,900.0,8.0,0.0
497,57.0,240.0,180.0,7.0,0.0
498,52.0,0.0,180.0,7.0,0.0
499,69.0,240.0,180.0,6.0,0.0
500,57.0,0.0,180.0,7.0,0.0
501,50.0,480.0,390.0,8.0,0.0
502,64.0,0.0,960.0,7.0,0.0
503,61.0,0.0,960.0,7.0,0.0
504,67.0,192.0,960.0,6.0,0.0
505,45.0,96.0,390.0,8.0,0.0
506,38.0,108.0,180.0,8.0,0.0
507,66.0,0.0,180.0,6.0,0.0
508,62.0,0.0,180.0,7.0,0.0
509,57.0,0.0,15.0,7.0,0.0
510,62.0,180.0,60.0,6.0,0.0
511,74.0,60.0,180.0,6.0,0.0
512,64.0,180.0,60.0,6.0,0.0
513,76.0,60.0,180.0,6.0,0.0
514,66.0,180.0,60.0,6.0,0.0
515,78.0,60.0,180.0,6.0,0.0
516,73.0,0.0,720.0,1.0,0.0
517,57.0,0.0,900.0,13.0,0.0
518,79.0,0.0,720.0,10.0,0.0
519,57.0,32.0,780.0,8.0,0.0
520,57.0,0.0,1920.0,3.0,0.0
521,45.0,0.0,1920.0,3.0,0.0
522,91.0,0.0,720.0,0.0,0.0
523,76.0,0.0,720.0,1.0,0.0
524,64.0,0.0,720.0,2.0,0.0
525,67.0,48.0,720.0,2.0,0.0
526,67.0,372.0,60.0,6.0,0.0
527,45.0,48.0,900.0,14.0,0.0
528,79.0,240.0,420.0,6.0,0.0
529,64.0,48.0,180.0,11.0,0.0
530,61.0,0.0,180.0,12.0,0.0
531,61.0,0.0,240.0,12.0,0.0
532,64.0,0.0,240.0,11.0,0.0
533,74.0,0.0,240.0,1.0,0.0
534,78.0,144.0,240.0,1.0,0.0
535,78.0,0.0,90.0,10.0,0.0
536,62.0,0.0,180.0,12.0,0.0
537,66.0,0.0,240.0,2.0,0.0
538,62.0,0.0,240.0,2.0,0.0
539,90.0,80.0,90.0,0.0,0.0
540,66.0,0.0,180.0,11.0,0.0
541,76.0,0.0,90.0,10.0,0.0
542,88.0,32.0,90.0,0.0,0.0
543,86.0,0.0,90.0,0.0,0.0
544,74.0,0.0,90.0,10.0,0.0
545,73.0,48.0,150.0,10.0,0.0
546,64.0,0.0,180.0,2.0,0.0
547,61.0,288.0,180.0,2.0,0.0
548,85.0,0.0,180.0,0.0,0.0
549,67.0,0.0,180.0,11.0,0.0
550,79.0,0.0,180.0,1.0,0.0
551,76.0,0.0,180.0,1.0,0.0
552,64.0,0.0,180.0,12.0,0.0
553,76.0,0.0,240.0,10.0,0.0
554,67.0,240.0,240.0,11.0,0.0
555,64.0,0.0,240.0,12.0,0.0
556,62.0,0.0,240.0,12.0,0.0
557,78.0,0.0,240.0,10.0,0.0
558,66.0,192.0,240.0,11.0,0.0
559,61.0,48.0,180.0,12.0,0.0
560,64.0,0.0,180.0,11.0,0.0
561,79.0,432.0,240.0,10.0,0.0
562,50.0,0.0,1140.0,3.0,0.0
563,62.0,288.0,1140.0,3.0,0.0
564,38.0,0.0,900.0,14.0,0.0
565,66.0,80.0,720.0,2.0,0.0
566,93.0,0.0,720.0,0.0,0.0
567,69.0,0.0,720.0,2.0,0.0
568,81.0,0.0,720.0,10.0,0.0
569,78.0,0.0,720.0,1.0,0.0
570,74.0,0.0,720.0,1.0,0.0
571,50.0,0.0,900.0,13.0,0.0
572,66.0,0.0,180.0,11.0,0.0
573,62.0,288.0,180.0,12.0,0.0
574,66.0,0.0,240.0,11.0,0.0
575,62.0,0.0,240.0,12.0,0.0
576,64.0,0.0,240.0,2.0,0.0
577,76.0,0.0,240.0,1.0,0.0
578,79.0,0.0,240.0,1.0,0.0
579,79.0,0.0,90.0,10.0,0.0
580,91.0,80.0,90.0,0.0,0.0
581,67.0,0.0,240.0,2.0,0.0
582,67.0,48.0,180.0,11.0,0.0
583,64.0,0.0,180.0,12.0,0.0
584,90.0,32.0,90.0,0.0,0.0
585,78.0,0.0,90.0,10.0,0.0
586,76.0,144.0,90.0,10.0,0.0
587,88.0,0.0,90.0,0.0,0.0
588,62.0,0.0,180.0,2.0,0.0
589,66.0,0.0,180.0,2.0,0.0
590,81.0,0.0,180.0,1.0,0.0
591,78.0,0.0,180.0,1.0,0.0
592,86.0,0.0,180.0,0.0,0.0
593,69.0,0.0,180.0,11.0,0.0
594,74.0,48.0,150.0,10.0,0.0
595,66.0,0.0,180.0,12.0,0.0
596,81.0,0.0,240.0,10.0,0.0
597,76.0,0.0,240.0,11.0,0.0
598,73.0,240.0,240.0,12.0,0.0
599,74.0,192.0,240.0,11.0,0.0
600,83.0,0.0,240.0,10.0,0.0
601,71.0,0.0,240.0,12.0,0.0
602,73.0,48.0,180.0,11.0,0.0
603,85.0,432.0,240.0,10.0,0.0
604,69.0,0.0,180.0,12.0,0.0
605,52.0,48.0,1830.0,14.0,0.0
606,86.0,0.0,720.0,10.0,0.0
607,64.0,0.0,1830.0,13.0,0.0
608,71.0,0.0,180.0,11.0,0.0
609,68.0,288.0,180.0,12.0,0.0
610,68.0,0.0,240.0,12.0,0.0
611,71.0,80.0,240.0,11.0,0.0
612,69.0,48.0,180.0,12.0,0.0
613,85.0,80.0,90.0,10.0,0.0
614,73.0,0.0,180.0,11.0,0.0
615,83.0,32.0,90.0,10.0,0.0
616,81.0,144.0,90.0,10.0,0.0
617,74.0,288.0,180.0,11.0,0.0
618,80.0,48.0,150.0,10.0,0.0
619,71.0,0.0,180.0,12.0,0.0
620,74.0,240.0,240.0,11.0,0.0
621,83.0,0.0,240.0,10.0,0.0
622,71.0,0.0,240.0,12.0,0.0
623,73.0,144.0,240.0,11.0,0.0
624,69.0,0.0,240.0,12.0,0.0
625,85.0,0.0,240.0,10.0,0.0
626,86.0,432.0,240.0,10.0,0.0
627,71.0,48.0,180.0,11.0,0.0
628,68.0,0.0,180.0,12.0,0.0
629,45.0,0.0,1200.0,14.0,0.0
630,57.0,156.0,1200.0,13.0,0.0
631,88.0,0.0,720.0,10.0,0.0
632,69.0,0.0,180.0,12.0,0.0
633,73.0,288.0,180.0,11.0,0.0
634,69.0,80.0,240.0,12.0,0.0
635,73.0,0.0,240.0,11.0,0.0
636,86.0,80.0,90.0,10.0,0.0
637,74.0,0.0,180.0,11.0,0.0
638,71.0,48.0,180.0,12.0,0.0
639,85.0,32.0,90.0,10.0,0.0
640,83.0,144.0,90.0,10.0,0.0
641,73.0,48.0,390.0,12.0,0.0
642,76.0,0.0,390.0,11.0,0.0
643,81.0,84.0,150.0,10.0,0.0
644,57.0,24.0,180.0,3.0,0.0
645,61.0,0.0,240.0,2.0,0.0
646,79.0,0.0,240.0,1.0,0.0
647,81.0,24.0,210.0,10.0,0.0
648,76.0,156.0,240.0,1.0,0.0
649,81.0,0.0,240.0,0.0,0.0
650,64.0,0.0,240.0,2.0,0.0
651,93.0,36.0,150.0,0.0,0.0
652,78.0,0.0,240.0,1.0,0.0
653,74.0,0.0,240.0,1.0,0.0
654,66.0,156.0,240.0,2.0,0.0
655,81.0,24.0,210.0,10.0,0.0
656,62.0,0.0,240.0,2.0,0.0
657,57.0,24.0,180.0,3.0,0.0
658,93.0,36.0,150.0,0.0,0.0
659,81.0,24.0,210.0,10.0,0.0
660,57.0,24.0,180.0,3.0,0.0
661,64.0,384.0,240.0,2.0,0.0
662,76.0,0.0,240.0,1.0,0.0
663,67.0,0.0,240.0,2.0,0.0
664,73.0,0.0,240.0,1.0,0.0
665,74.0,0.0,3270.0,1.0,0.0
666,86.0,0.0,3270.0,1.0,0.0
667,69.0,96.0,780.0,2.0,0.0
668,38.0,384.0,390.0,14.0,0.0
669,93.0,0.0,900.0,0.0,0.0
670,62.0,0.0,780.0,3.0,0.0
671,81.0,288.0,900.0,10.0,0.0
672,50.0,0.0,390.0,13.0,0.0
673,69.0,0.0,900.0,12.0,0.0
674,66.0,0.0,780.0,2.0,0.0
675,66.0,0.0,900.0,11.0,0.0
676,50.0,0.0,780.0,3.0,0.0
677,62.0,48.0,390.0,13.0,0.0
678,50.0,0.0,390.0,14.0,0.0
679,65.0,0.0,240.0,2.0,0.0
680,62.0,96.0,390.0,13.0,0.0
681,68.0,144.0,240.0,12.0,0.0
682,68.0,0.0,240.0,2.0,0.0
683,50.0,0.0,390.0,3.0,0.0
684,62.0,0.0,390.0,3.0,0.0
685,92.0,0.0,240.0,0.0,0.0
686,50.0,0.0,390.0,14.0,0.0
687,65.0,0.0,240.0,11.0,0.0
688,80.0,0.0,240.0,10.0,0.0
689,81.0,0.0,240.0,10.0,0.0
690,93.0,0.0,240.0,0.0,0.0
691,66.0,0.0,240.0,11.0,0.0
692,69.0,240.0,240.0,12.0,0.0
693,69.0,0.0,240.0,2.0,0.0
694,66.0,0.0,240.0,2.0,0.0
695,80.0,0.0,240.0,10.0,0.0
696,62.0,84.0,390.0,13.0,0.0
697,50.0,0.0,390.0,14.0,0.0
698,65.0,0.0,240.0,11.0,0.0
699,68.0,0.0,240.0,12.0,0.0
700,68.0,144.0,240.0,2.0,0.0
701,65.0,0.0,240.0,2.0,0.0
702,62.0,0.0,390.0,3.0,0.0
703,50.0,0.0,390.0,3.0,0.0
704,92.0,0.0,240.0,0.0,0.0
705,93.0,0.0,240.0,0.0,0.0
706,66.0,240.0,240.0,2.0,0.0
707,69.0,0.0,240.0,2.0,0.0
708,69.0,12.0,240.0,12.0,0.0
709,81.0,0.0,240.0,10.0,0.0
710,66.0,0.0,240.0,11.0,0.0
711,95.0,0.0,240.0,0.0,0.0
712,62.0,36.0,900.0,13.0,0.0
713,71.0,0.0,240.0,12.0,0.0
714,50.0,0.0,900.0,14.0,0.0
715,67.0,0.0,240.0,2.0,0.0
716,71.0,0.0,240.0,2.0,0.0
717,50.0,0.0,1350.0,3.0,0.0
718,62.0,0.0,1350.0,3.0,0.0
719,83.0,0.0,240.0,10.0,0.0
720,67.0,240.0,240.0,11.0,0.0
721,93.0,0.0,240.0,0.0,0.0
722,81.0,0.0,240.0,10.0,0.0
723,69.0,0.0,240.0,12.0,0.0
724,66.0,0.0,240.0,11.0,0.0
725,69.0,0.0,240.0,2.0,0.0
726,66.0,240.0,240.0,2.0,0.0
727,91.0,0.0,240.0,0.0,0.0
728,67.0,0.0,240.0,2.0,0.0
729,64.0,0.0,240.0,2.0,0.0
730,79.0,0.0,240.0,10.0,0.0
731,64.0,0.0,240.0,11.0,0.0
732,67.0,192.0,240.0,12.0,0.0
733,62.0,0.0,240.0,11.0,0.0
734,62.0,0.0,240.0,2.0,0.0
735,66.0,144.0,240.0,2.0,0.0
736,78.0,0.0,240.0,10.0,0.0
737,66.0,12.0,240.0,12.0,0.0
738,62.0,0.0,390.0,11.0,0.0
739,38.0,0.0,390.0,14.0,0.0
740,50.0,36.0,390.0,13.0,0.0
741,78.0,156.0,150.0,10.0,0.0
742,90.0,0.0,15.0,0.0,0.0
743,66.0,0.0,390.0,12.0,0.0
744,66.0,0.0,390.0,2.0,0.0
745,62.0,0.0,390.0,2.0,0.0
746,79.0,60.0,60.0,10.0,0.0
747,78.0,24.0,60.0,10.0,0.0
748,76.0,60.0,60.0,10.0,0.0
749,78.0,240.0,60.0,10.0,0.0
750,81.0,240.0,240.0,10.0,0.0
751,78.0,144.0,240.0,10.0,0.0
752,66.0,48.0,150.0,11.0,0.0
753,57.0,0.0,150.0,12.0,0.0
754,74.0,192.0,180.0,10.0,0.0
755,57.0,192.0,900.0,13.0,0.0
756,45.0,0.0,900.0,14.0,0.0
757,62.0,240.0,150.0,11.0,0.0
758,54.0,0.0,150.0,12.0,0.0
759,57.0,48.0,150.0,12.0,0.0
760,74.0,192.0,180.0,10.0,0.0
761,66.0,0.0,150.0,11.0,0.0
762,62.0,48.0,150.0,11.0,0.0
763,54.0,0.0,150.0,12.0,0.0
764,69.0,192.0,180.0,10.0,0.0
765,33.0,0.0,900.0,14.0,0.0
766,45.0,432.0,900.0,13.0,0.0
767,55.0,48.0,150.0,12.0,0.0
768,64.0,0.0,150.0,11.0,0.0
769,61.0,0.0,150.0,11.0,0.0
770,52.0,240.0,150.0,12.0,0.0
771,64.0,48.0,150.0,11.0,0.0
772,55.0,0.0,150.0,12.0,0.0
773,69.0,192.0,180.0,10.0,0.0
774,61.0,48.0,150.0,11.0,0.0
775,52.0,0.0,150.0,12.0,0.0
776,66.0,0.0,960.0,10.0,0.0
777,35.0,0.0,390.0,14.0,0.0
778,78.0,0.0,960.0,0.0,0.0
779,54.0,384.0,960.0,2.0,0.0
780,69.0,0.0,960.0,1.0,0.0
781,75.0,0.0,960.0,1.0,0.0
782,47.0,36.0,390.0,13.0,0.0
783,51.0,0.0,960.0,2.0,0.0
784,63.0,0.0,180.0,11.0,0.0
785,57.0,240.0,180.0,12.0,0.0
786,63.0,240.0,180.0,11.0,0.0
787,57.0,0.0,180.0,12.0,0.0
788,63.0,60.0,180.0,11.0,0.0
789,57.0,0.0,180.0,12.0,0.0
790,67.0,0.0,960.0,10.0,0.0
791,52.0,36.0,390.0,13.0,0.0
792,40.0,0.0,390.0,14.0,0.0
793,52.0,0.0,960.0,2.0,0.0
794,76.0,0.0,960.0,1.0,0.0
795,67.0,0.0,960.0,1.0,0.0
796,55.0,384.0,960.0,2.0,0.0
797,79.0,0.0,960.0,0.0,0.0
798,64.0,60.0,180.0,11.0,0.0
799,55.0,180.0,240.0,12.0,0.0
800,64.0,0.0,180.0,11.0,0.0
801,59.0,240.0,180.0,12.0,0.0
802,64.0,60.0,180.0,11.0,0.0
803,59.0,0.0,180.0,12.0,0.0
804,69.0,384.0,960.0,10.0,0.0
805,38.0,36.0,390.0,14.0,0.0
806,81.0,0.0,960.0,0.0,0.0
807,72.0,0.0,960.0,1.0,0.0
808,78.0,0.0,960.0,1.0,0.0
809,54.0,0.0,960.0,2.0,0.0
810,57.0,0.0,960.0,2.0,0.0
811,50.0,0.0,390.0,13.0,0.0
812,60.0,240.0,180.0,12.0,0.0
813,66.0,0.0,180.0,11.0,0.0
814,66.0,0.0,180.0,11.0,0.0
815,60.0,240.0,180.0,12.0,0.0
816,66.0,60.0,180.0,11.0,0.0
817,60.0,0.0,180.0,12.0,0.0
818,71.0,0.0,900.0,1.0,0.0
819,55.0,0.0,390.0,13.0,0.0
820,59.0,0.0,900.0,2.0,0.0
821,43.0,36.0,390.0,14.0,0.0
822,79.0,0.0,1860.0,1.0,0.0
823,55.0,0.0,1860.0,2.0,0.0
824,71.0,480.0,900.0,10.0,0.0
825,83.0,0.0,900.0,0.0,0.0
826,67.0,60.0,180.0,11.0,0.0
827,59.0,180.0,240.0,12.0,0.0
828,62.0,0.0,180.0,12.0,0.0
829,67.0,240.0,180.0,11.0,0.0
830,62.0,12.0,180.0,12.0,0.0
831,67.0,0.0,180.0,11.0,0.0
832,57.0,0.0,900.0,13.0,0.0
833,45.0,144.0,780.0,3.0,0.0
834,57.0,0.0,780.0,3.0,0.0
835,76.0,0.0,900.0,1.0,0.0
836,85.0,0.0,900.0,0.0,0.0
837,73.0,0.0,900.0,10.0,0.0
838,61.0,0.0,900.0,2.0,0.0
839,45.0,0.0,900.0,14.0,0.0
840,64.0,240.0,180.0,12.0,0.0
841,67.0,0.0,180.0,11.0,0.0
842,67.0,0.0,180.0,11.0,0.0
843,64.0,96.0,180.0,12.0,0.0
844,64.0,0.0,180.0,12.0,0.0
845,67.0,288.0,180.0,11.0,0.0
846,62.0,24.0,450.0,12.0,0.0
847,88.0,0.0,240.0,0.0,0.0
848,76.0,144.0,240.0,10.0,0.0
849,66.0,0.0,480.0,11.0,0.0
850,50.0,0.0,390.0,3.0,0.0
851,59.0,0.0,390.0,13.0,0.0
852,62.0,0.0,390.0,2.0,0.0
853,74.0,228.0,1440.0,1.0,0.0
854,78.0,240.0,480.0,1.0,0.0
855,54.0,72.0,390.0,2.0,0.0
856,62.0,0.0,390.0,3.0,0.0
857,47.0,0.0,390.0,14.0,0.0
858,86.0,0.0,240.0,0.0,0.0
859,74.0,0.0,240.0,10.0,0.0
860,62.0,24.0,930.0,12.0,0.0
861,79.0,12.0,450.0,1.0,0.0
862,85.0,0.0,240.0,0.0,0.0
863,50.0,0.0,390.0,3.0,0.0
864,62.0,0.0,390.0,3.0,0.0
865,43.0,72.0,390.0,14.0,0.0
866,73.0,144.0,240.0,10.0,0.0
867,67.0,0.0,450.0,11.0,0.0
868,55.0,0.0,390.0,13.0,0.0
869,55.0,0.0,390.0,2.0,0.0
870,83.0,252.0,240.0,0.0,0.0
871,71.0,0.0,240.0,10.0,0.0
872,69.0,144.0,240.0,11.0,0.0
873,50.0,0.0,390.0,3.0,0.0
874,62.0,72.0,390.0,3.0,0.0
875,69.0,0.0,240.0,10.0,0.0
876,54.0,0.0,390.0,13.0,0.0
877,42.0,0.0,390.0,14.0,0.0
878,93.0,0.0,240.0,0.0,0.0
879,54.0,0.0,390.0,2.0,0.0
880,81.0,0.0,240.0,1.0,0.0
881,92.0,0.0,240.0,0.0,0.0
882,68.0,0.0,240.0,10.0,0.0
883,68.0,0.0,240.0,11.0,0.0
884,80.0,0.0,240.0,1.0,0.0
885,55.0,84.0,390.0,2.0,0.0
886,59.0,12.0,240.0,12.0,0.0
887,71.0,144.0,240.0,1.0,0.0
888,79.0,0.0,240.0,1.0,0.0
889,67.0,0.0,240.0,10.0,0.0
890,67.0,0.0,240.0,11.0,0.0
891,91.0,0.0,240.0,0.0,0.0
892,55.0,0.0,390.0,13.0,0.0
893,43.0,0.0,390.0,14.0,0.0
894,64.0,0.0,240.0,11.0,0.0
895,76.0,0.0,240.0,1.0,0.0
896,64.0,0.0,240.0,10.0,0.0
897,67.0,0.0,240.0,1.0,0.0
898,88.0,0.0,240.0,0.0,0.0
899,55.0,396.0,240.0,12.0,0.0
900,62.0,0.0,480.0,11.0,0.0
901,57.0,0.0,390.0,2.0,0.0
902,66.0,0.0,480.0,1.0,0.0
903,74.0,0.0,480.0,1.0,0.0
904,57.0,96.0,390.0,3.0,0.0
905,54.0,0.0,480.0,12.0,0.0
906,86.0,240.0,480.0,0.0,0.0
907,57.0,0.0,390.0,13.0,0.0
908,62.0,0.0,480.0,10.0,0.0
909,45.0,0.0,390.0,14.0,0.0
910,55.0,12.0,450.0,12.0,0.0
911,78.0,0.0,240.0,1.0,0.0
912,67.0,12.0,480.0,1.0,0.0
913,66.0,144.0,240.0,10.0,0.0
914,57.0,0.0,390.0,3.0,0.0
915,90.0,0.0,240.0,0.0,0.0
916,45.0,0.0,390.0,13.0,0.0
917,61.0,0.0,450.0,11.0,0.0
918,45.0,72.0,390.0,2.0,0.0
919,33.0,0.0,390.0,14.0,0.0
920,64.0,0.0,240.0,10.0,0.0
921,88.0,192.0,240.0,0.0,0.0
922,76.0,0.0,240.0,1.0,0.0
923,50.0,0.0,390.0,2.0,0.0
924,62.0,0.0,180.0,11.0,0.0
925,86.0,0.0,450.0,0.0,0.0
926,62.0,216.0,450.0,10.0,0.0
927,45.0,0.0,390.0,2.0,0.0
928,54.0,192.0,180.0,12.0,0.0
929,50.0,0.0,390.0,3.0,0.0
930,57.0,0.0,390.0,3.0,0.0
931,66.0,0.0,450.0,1.0,0.0
932,38.0,48.0,390.0,14.0,0.0
933,50.0,0.0,390.0,13.0,0.0
934,74.0,0.0,450.0,1.0,0.0
935,62.0,0.0,180.0,12.0,0.0
936,66.0,24.0,180.0,11.0,0.0
937,57.0,0.0,180.0,12.0,0.0
938,66.0,0.0,180.0,11.0,0.0
939,57.0,0.0,180.0,12.0,0.0
940,62.0,240.0,180.0,12.0,0.0
941,66.0,0.0,180.0,11.0,0.0
942,62.0,0.0,180.0,12.0,0.0
943,57.0,240.0,180.0,12.0,0.0
944,61.0,48.0,180.0,12.0,0.0
945,57.0,0.0,180.0,12.0,0.0
946,67.0,0.0,180.0,11.0,0.0
947,45.0,0.0,390.0,14.0,0.0
948,57.0,48.0,390.0,13.0,0.0
949,75.0,144.0,240.0,10.0,0.0
950,61.0,0.0,180.0,12.0,0.0
951,57.0,48.0,180.0,12.0,0.0
952,76.0,192.0,240.0,10.0,0.0
953,67.0,0.0,180.0,11.0,0.0
954,78.0,192.0,240.0,10.0,0.0
955,61.0,48.0,180.0,12.0,0.0
956,57.0,0.0,180.0,12.0,0.0
957,67.0,0.0,180.0,11.0,0.0
958,57.0,0.0,180.0,12.0,0.0
959,67.0,0.0,180.0,11.0,0.0
960,79.0,204.0,240.0,10.0,0.0
961,61.0,36.0,180.0,12.0,0.0
962,83.0,144.0,240.0,10.0,0.0
963,81.0,26.0,3810.0,1.0,0.0
964,62.0,48.0,180.0,12.0,0.0
965,57.0,0.0,180.0,12.0,0.0
966,66.0,0.0,180.0,11.0,0.0
967,62.0,48.0,390.0,13.0,0.0
968,50.0,0.0,390.0,14.0,0.0
969,69.0,0.0,3810.0,1.0,0.0
970,66.0,0.0,180.0,11.0,0.0
971,62.0,36.0,180.0,12.0,0.0
972,57.0,0.0,180.0,12.0,0.0
973,81.0,204.0,240.0,10.0,0.0
974,62.0,0.0,180.0,12.0,0.0
975,57.0,0.0,180.0,12.0,0.0
976,66.0,240.0,180.0,11.0,0.0
977,57.0,0.0,180.0,12.0,0.0
978,66.0,0.0,180.0,11.0,0.0
979,62.0,240.0,180.0,12.0,0.0
980,67.0,36.0,180.0,11.0,0.0
981,45.0,48.0,390.0,14.0,0.0
982,57.0,0.0,390.0,13.0,0.0
983,61.0,0.0,180.0,12.0,0.0
984,57.0,0.0,180.0,12.0,0.0
985,75.0,156.0,240.0,10.0,0.0
986,57.0,36.0,180.0,12.0,0.0
987,61.0,0.0,180.0,12.0,0.0
988,76.0,204.0,240.0,10.0,0.0
989,67.0,0.0,180.0,11.0,0.0
990,78.0,204.0,240.0,10.0,0.0
991,67.0,0.0,180.0,11.0,0.0
992,61.0,36.0,180.0,12.0,0.0
993,57.0,0.0,180.0,12.0,0.0
994,61.0,0.0,180.0,12.0,0.0
995,57.0,0.0,180.0,12.0,0.0
996,79.0,204.0,240.0,10.0,0.0
997,67.0,36.0,180.0,11.0,0.0
998,62.0,0.0,180.0,12.0,0.0
999,83.0,144.0,240.0,10.0,0.0
1000,66.0,0.0,180.0,11.0,0.0
1001,50.0,48.0,390.0,14.0,0.0
1002,62.0,0.0,390.0,13.0,0.0
1003,57.0,48.0,180.0,12.0,0.0
1004,81.0,204.0,240.0,10.0,0.0
1005,57.0,36.0,180.0,12.0,0.0
1006,66.0,0.0,180.0,11.0,0.0
1007,62.0,0.0,180.0,12.0,0.0
1008,62.0,0.0,180.0,12.0,0.0
1009,57.0,0.0,180.0,12.0,0.0
1010,66.0,240.0,180.0,11.0,0.0
1011,57.0,0.0,180.0,12.0,0.0
1012,62.0,0.0,180.0,12.0,0.0
1013,66.0,240.0,180.0,11.0,0.0
1014,57.0,48.0,390.0,13.0,0.0
1015,68.0,144.0,240.0,10.0,0.0
1016,80.0,0.0,240.0,0.0,0.0
1017,55.0,0.0,180.0,12.0,0.0
1018,57.0,0.0,180.0,12.0,0.0
1019,64.0,48.0,180.0,11.0,0.0
1020,45.0,0.0,390.0,14.0,0.0
1021,64.0,0.0,180.0,11.0,0.0
1022,69.0,0.0,240.0,10.0,0.0
1023,57.0,48.0,180.0,12.0,0.0
1024,55.0,0.0,180.0,12.0,0.0
1025,81.0,192.0,240.0,0.0,0.0
1026,57.0,0.0,180.0,12.0,0.0
1027,55.0,0.0,180.0,12.0,0.0
1028,64.0,48.0,180.0,11.0,0.0
1029,71.0,0.0,240.0,10.0,0.0
1030,83.0,192.0,240.0,0.0,0.0
1031,55.0,10.0,180.0,12.0,0.0
1032,57.0,0.0,180.0,12.0,0.0
1033,85.0,192.0,240.0,0.0,0.0
1034,64.0,0.0,180.0,11.0,0.0
1035,73.0,12.0,240.0,10.0,0.0
1036,79.0,0.0,960.0,1.0,0.0
1037,50.0,480.0,180.0,14.0,0.0
1038,55.0,192.0,960.0,12.0,0.0
1039,73.0,0.0,960.0,1.0,0.0
1040,57.0,0.0,1350.0,3.0,0.0
1041,45.0,0.0,960.0,3.0,0.0
1042,76.0,0.0,960.0,10.0,0.0
1043,67.0,0.0,960.0,2.0,0.0
1044,57.0,0.0,960.0,12.0,0.0
1045,62.0,0.0,180.0,13.0,0.0
1046,64.0,0.0,960.0,2.0,0.0
1047,61.0,0.0,960.0,11.0,0.0
1048,88.0,0.0,960.0,0.0,0.0
1049,57.0,288.0,180.0,13.0,0.0
1050,45.0,0.0,180.0,14.0,0.0
1051,74.0,600.0,450.0,10.0,0.0
1052,50.0,192.0,180.0,13.0,0.0
1053,78.0,0.0,390.0,1.0,0.0
1054,74.0,48.0,390.0,1.0,0.0
1055,50.0,0.0,390.0,3.0,0.0
1056,86.0,0.0,450.0,0.0,0.0
1057,62.0,0.0,390.0,2.0,0.0
1058,62.0,0.0,420.0,11.0,0.0
1059,66.0,0.0,390.0,2.0,0.0
1060,57.0,24.0,420.0,12.0,0.0
1061,54.0,0.0,420.0,12.0,0.0
1062,38.0,0.0,180.0,14.0,0.0
1063,50.0,0.0,390.0,13.0,0.0
1064,69.0,288.0,90.0,6.0,0.0
1065,62.0,0.0,390.0,7.0,0.0
1066,50.0,12.0,390.0,7.0,0.0
1067,38.0,0.0,390.0,14.0,0.0
1068,81.0,12.0,750.0,6.0,0.0
1069,69.0,0.0,150.0,10.0,0.0
1070,66.0,240.0,150.0,11.0,0.0
1071,62.0,0.0,150.0,12.0,0.0
1072,69.0,0.0,150.0,10.0,0.0
1073,66.0,228.0,150.0,11.0,0.0
1074,62.0,0.0,150.0,12.0,0.0
1075,69.0,240.0,150.0,10.0,0.0
1076,66.0,0.0,150.0,11.0,0.0
1077,62.0,0.0,150.0,12.0,0.0
1078,69.0,0.0,150.0,10.0,0.0
1079,66.0,0.0,150.0,11.0,0.0
1080,62.0,144.0,150.0,12.0,0.0
1081,74.0,60.0,300.0,6.0,0.0
1082,62.0,0.0,150.0,12.0,0.0
1083,69.0,0.0,150.0,10.0,0.0
1084,66.0,24.0,150.0,11.0,0.0
1085,76.0,36.0,60.0,6.0,0.0
1086,74.0,60.0,60.0,6.0,0.0
1087,73.0,156.0,60.0,6.0,0.0
1088,66.0,0.0,150.0,11.0,0.0
1089,62.0,84.0,150.0,12.0,0.0
1090,74.0,156.0,240.0,6.0,0.0
1091,69.0,0.0,150.0,10.0,0.0
1092,69.0,0.0,150.0,10.0,0.0
1093,62.0,0.0,150.0,12.0,0.0
1094,66.0,36.0,150.0,11.0,0.0
1095,78.0,288.0,180.0,6.0,0.0
1096,78.0,144.0,240.0,6.0,0.0
1097,38.0,12.0,390.0,14.0,0.0
1098,50.0,0.0,390.0,7.0,0.0
1099,62.0,0.0,390.0,7.0,0.0
1100,50.0,0.0,390.0,13.0,0.0
1101,69.0,36.0,150.0,10.0,0.0
1102,67.0,0.0,240.0,11.0,0.0
1103,76.0,48.0,180.0,6.0,0.0
1104,61.0,156.0,240.0,12.0,0.0
1105,66.0,0.0,150.0,11.0,0.0
1106,69.0,0.0,150.0,10.0,0.0
1107,62.0,228.0,150.0,12.0,0.0
1108,74.0,12.0,390.0,6.0,0.0
1109,66.0,0.0,150.0,11.0,0.0
1110,62.0,0.0,150.0,12.0,0.0
1111,69.0,240.0,150.0,10.0,0.0
1112,66.0,0.0,150.0,11.0,0.0
1113,62.0,240.0,150.0,12.0,0.0
1114,69.0,0.0,150.0,10.0,0.0
1115,66.0,0.0,150.0,11.0,0.0
1116,69.0,0.0,150.0,10.0,0.0
1117,62.0,84.0,150.0,12.0,0.0
1118,69.0,156.0,120.0,6.0,0.0
1119,69.0,0.0,150.0,10.0,0.0
1120,62.0,0.0,150.0,12.0,0.0
1121,66.0,204.0,150.0,11.0,0.0
1122,78.0,36.0,360.0,6.0,0.0
1123,66.0,0.0,150.0,11.0,0.0
1124,69.0,60.0,150.0,10.0,0.0
1125,62.0,0.0,150.0,12.0,0.0
1126,74.0,144.0,90.0,6.0,0.0
1127,81.0,120.0,120.0,6.0,0.0
1128,62.0,12.0,390.0,7.0,0.0
1129,50.0,0.0,390.0,7.0,0.0
1130,50.0,0.0,390.0,13.0,0.0
1131,38.0,0.0,390.0,14.0,0.0
1132,78.0,120.0,120.0,6.0,0.0
1133,62.0,0.0,150.0,12.0,0.0
1134,66.0,60.0,150.0,11.0,0.0
1135,86.0,24.0,120.0,6.0,0.0
1136,69.0,0.0,150.0,10.0,0.0
1137,81.0,180.0,90.0,6.0,0.0
1138,69.0,0.0,150.0,10.0,0.0
1139,90.0,60.0,570.0,6.0,0.0
1140,66.0,0.0,150.0,11.0,0.0
1141,62.0,240.0,150.0,12.0,0.0
1142,66.0,0.0,150.0,11.0,0.0
1143,62.0,180.0,150.0,12.0,0.0
1144,69.0,0.0,150.0,10.0,0.0
1145,66.0,240.0,150.0,11.0,0.0
1146,69.0,0.0,150.0,10.0,0.0
1147,62.0,0.0,150.0,12.0,0.0
1148,86.0,204.0,180.0,6.0,0.0
1149,66.0,0.0,150.0,11.0,0.0
1150,62.0,0.0,150.0,12.0,0.0
1151,69.0,36.0,150.0,10.0,0.0
1152,81.0,204.0,180.0,6.0,0.0
1153,66.0,0.0,150.0,11.0,0.0
1154,69.0,36.0,150.0,10.0,0.0
1155,62.0,0.0,150.0,12.0,0.0
1156,78.0,288.0,180.0,6.0,0.0
1157,66.0,0.0,150.0,11.0,0.0
1158,62.0,0.0,150.0,12.0,0.0
1159,69.0,36.0,150.0,10.0,0.0
1160,81.0,144.0,240.0,6.0,0.0
1161,62.0,0.0,390.0,7.0,0.0
1162,50.0,0.0,390.0,7.0,0.0
1163,38.0,0.0,390.0,14.0,0.0
1164,50.0,12.0,390.0,13.0,0.0
1165,69.0,84.0,150.0,11.0,0.0
1166,79.0,156.0,240.0,6.0,0.0
1167,64.0,0.0,240.0,12.0,0.0
1168,67.0,0.0,240.0,12.0,0.0
1169,73.0,0.0,240.0,10.0,0.0
1170,69.0,0.0,150.0,11.0,0.0
1171,74.0,228.0,150.0,10.0,0.0
1172,62.0,0.0,150.0,12.0,0.0
1173,78.0,0.0,390.0,6.0,0.0
1174,66.0,0.0,150.0,12.0,0.0
1175,66.0,0.0,150.0,12.0,0.0
1176,62.0,240.0,150.0,12.0,0.0
1177,69.0,0.0,150.0,11.0,0.0
1178,74.0,12.0,150.0,10.0,0.0
1179,69.0,324.0,150.0,11.0,0.0
1180,66.0,0.0,150.0,12.0,0.0
1181,74.0,0.0,150.0,10.0,0.0
1182,74.0,0.0,240.0,10.0,0.0
1183,66.0,0.0,240.0,11.0,0.0
1184,62.0,240.0,240.0,12.0,0.0
1185,67.0,0.0,240.0,11.0,0.0
1186,73.0,156.0,240.0,10.0,0.0
1187,64.0,0.0,240.0,12.0,0.0
1188,72.0,0.0,150.0,10.0,0.0
1189,66.0,468.0,150.0,12.0,0.0
1190,69.0,0.0,150.0,11.0,0.0
1191,62.0,0.0,390.0,7.0,0.0
1192,74.0,0.0,390.0,6.0,0.0
1193,50.0,12.0,390.0,13.0,0.0
1194,38.0,0.0,390.0,14.0,0.0
1195,50.0,0.0,390.0,7.0,0.0
1196,71.0,240.0,150.0,10.0,0.0
1197,67.0,0.0,150.0,11.0,0.0
1198,62.0,0.0,150.0,12.0,0.0
1199,67.0,0.0,150.0,11.0,0.0
1200,62.0,240.0,150.0,12.0,0.0
1201,71.0,0.0,150.0,10.0,0.0
1202,79.0,60.0,570.0,6.0,0.0
1203,62.0,0.0,150.0,12.0,0.0
1204,71.0,0.0,150.0,10.0,0.0
1205,67.0,180.0,150.0,11.0,0.0
1206,62.0,0.0,150.0,12.0,0.0
1207,71.0,144.0,150.0,10.0,0.0
1208,67.0,0.0,150.0,11.0,0.0
1209,62.0,24.0,150.0,12.0,0.0
1210,81.0,60.0,60.0,6.0,0.0
1211,71.0,0.0,150.0,10.0,0.0
1212,67.0,0.0,150.0,11.0,0.0
1213,79.0,36.0,60.0,6.0,0.0
1214,78.0,60.0,60.0,6.0,0.0
1215,79.0,156.0,60.0,6.0,0.0
1216,71.0,0.0,150.0,10.0,0.0
1217,67.0,84.0,150.0,11.0,0.0
1218,62.0,0.0,150.0,12.0,0.0
1219,81.0,156.0,240.0,6.0,0.0
1220,83.0,288.0,180.0,6.0,0.0
1221,71.0,36.0,150.0,10.0,0.0
1222,67.0,0.0,150.0,11.0,0.0
1223,62.0,0.0,150.0,12.0,0.0
1224,38.0,0.0,390.0,14.0,0.0
1225,83.0,144.0,240.0,6.0,0.0
1226,50.0,0.0,390.0,13.0,0.0
1227,50.0,12.0,390.0,7.0,0.0
1228,62.0,0.0,390.0,7.0,0.0
1229,66.0,0.0,150.0,11.0,0.0
1230,81.0,204.0,180.0,6.0,0.0
1231,62.0,36.0,150.0,12.0,0.0
1232,69.0,0.0,150.0,10.0,0.0
1233,66.0,0.0,150.0,11.0,0.0
1234,81.0,156.0,960.0,6.0,0.0
1235,62.0,0.0,150.0,12.0,0.0
1236,69.0,240.0,150.0,10.0,0.0
1237,62.0,0.0,150.0,12.0,0.0
1238,66.0,240.0,150.0,11.0,0.0
1239,69.0,0.0,150.0,10.0,0.0
1240,66.0,240.0,150.0,11.0,0.0
1241,62.0,0.0,150.0,12.0,0.0
1242,69.0,0.0,150.0,10.0,0.0
1243,66.0,84.0,150.0,11.0,0.0
1244,62.0,0.0,150.0,12.0,0.0
1245,69.0,0.0,150.0,10.0,0.0
1246,66.0,228.0,150.0,11.0,0.0
1247,62.0,0.0,150.0,12.0,0.0
1248,69.0,0.0,150.0,10.0,0.0
1249,86.0,12.0,390.0,6.0,0.0
1250,66.0,324.0,150.0,11.0,0.0
1251,62.0,0.0,150.0,12.0,0.0
1252,69.0,0.0,150.0,10.0,0.0
1253,45.0,0.0,390.0,7.0,0.0
1254,57.0,12.0,390.0,13.0,0.0
1255,57.0,0.0,390.0,7.0,0.0
1256,86.0,144.0,240.0,6.0,0.0
1257,45.0,0.0,390.0,14.0,0.0
1258,67.0,0.0,150.0,11.0,0.0
1259,64.0,0.0,150.0,11.0,0.0
1260,69.0,36.0,150.0,10.0,0.0
1261,61.0,0.0,150.0,12.0,0.0
1262,85.0,204.0,180.0,6.0,0.0
1263,88.0,204.0,900.0,6.0,0.0
1264,69.0,0.0,150.0,10.0,0.0
1265,61.0,0.0,150.0,12.0,0.0
1266,64.0,0.0,150.0,11.0,0.0
1267,67.0,240.0,150.0,11.0,0.0
1268,69.0,0.0,150.0,10.0,0.0
1269,67.0,0.0,150.0,11.0,0.0
1270,64.0,240.0,150.0,11.0,0.0
1271,61.0,0.0,150.0,12.0,0.0
1272,61.0,0.0,150.0,12.0,0.0
1273,69.0,0.0,150.0,10.0,0.0
1274,67.0,0.0,150.0,11.0,0.0
1275,64.0,240.0,150.0,11.0,0.0
1276,61.0,36.0,150.0,12.0,0.0
1277,67.0,0.0,150.0,11.0,0.0
1278,64.0,0.0,150.0,11.0,0.0
1279,69.0,0.0,150.0,10.0,0.0
1280,61.0,228.0,150.0,12.0,0.0
1281,79.0,12.0,390.0,6.0,0.0
1282,67.0,0.0,150.0,11.0,0.0
1283,64.0,0.0,150.0,11.0,0.0
1284,69.0,0.0,150.0,10.0,0.0
1285,64.0,324.0,150.0,11.0,0.0
1286,61.0,0.0,150.0,12.0,0.0
1287,69.0,0.0,150.0,10.0,0.0
1288,67.0,0.0,150.0,11.0,0.0
1289,50.0,0.0,390.0,7.0,0.0
1290,50.0,0.0,390.0,13.0,0.0
1291,78.0,144.0,240.0,6.0,0.0
1292,38.0,12.0,390.0,14.0,0.0
1293,62.0,0.0,390.0,7.0,0.0
1294,66.0,36.0,150.0,11.0,0.0
1295,79.0,204.0,180.0,6.0,0.0
1296,69.0,0.0,150.0,10.0,0.0
1297,62.0,0.0,150.0,12.0,0.0
1298,81.0,12.0,390.0,6.0,0.0
1299,66.0,0.0,150.0,11.0,0.0
1300,62.0,228.0,150.0,12.0,0.0
1301,69.0,0.0,150.0,10.0,0.0
1302,69.0,240.0,150.0,10.0,0.0
1303,62.0,0.0,150.0,12.0,0.0
1304,66.0,0.0,150.0,11.0,0.0
1305,62.0,0.0,150.0,12.0,0.0
1306,66.0,0.0,150.0,11.0,0.0
1307,69.0,324.0,150.0,10.0,0.0
1308,66.0,0.0,240.0,11.0,0.0
1309,62.0,240.0,240.0,12.0,0.0
1310,74.0,0.0,240.0,10.0,0.0
1311,73.0,240.0,240.0,10.0,0.0
1312,64.0,0.0,240.0,12.0,0.0
1313,67.0,0.0,240.0,11.0,0.0
1314,66.0,384.0,240.0,12.0,0.0
1315,69.0,0.0,240.0,11.0,0.0
1316,72.0,0.0,240.0,10.0,0.0
1317,74.0,0.0,390.0,6.0,0.0
1318,50.0,0.0,390.0,13.0,0.0
1319,50.0,0.0,390.0,7.0,0.0
1320,62.0,0.0,390.0,7.0,0.0
1321,38.0,12.0,390.0,14.0,0.0
1322,67.0,0.0,150.0,11.0,0.0
1323,62.0,240.0,150.0,12.0,0.0
1324,71.0,0.0,150.0,10.0,0.0
1325,67.0,240.0,150.0,11.0,0.0
1326,62.0,0.0,150.0,12.0,0.0
1327,71.0,0.0,150.0,10.0,0.0
1328,86.0,204.0,900.0,6.0,0.0
1329,62.0,0.0,150.0,12.0,0.0
1330,67.0,240.0,150.0,11.0,0.0
1331,71.0,0.0,150.0,10.0,0.0
1332,71.0,0.0,150.0,10.0,0.0
1333,62.0,0.0,150.0,12.0,0.0
1334,67.0,240.0,150.0,11.0,0.0
1335,62.0,0.0,150.0,12.0,0.0
1336,71.0,36.0,150.0,10.0,0.0
1337,67.0,0.0,150.0,11.0,0.0
1338,71.0,0.0,150.0,10.0,0.0
1339,83.0,12.0,390.0,6.0,0.0
1340,67.0,0.0,150.0,11.0,0.0
1341,62.0,228.0,150.0,12.0,0.0
1342,71.0,0.0,150.0,10.0,0.0
1343,67.0,0.0,150.0,11.0,0.0
1344,62.0,468.0,150.0,12.0,0.0
1345,38.0,0.0,390.0,14.0,0.0
1346,50.0,0.0,390.0,13.0,0.0
1347,81.0,180.0,450.0,6.0,0.0
1348,50.0,0.0,390.0,7.0,0.0
1349,62.0,12.0,390.0,7.0,0.0
1350,62.0,0.0,150.0,12.0,0.0
1351,69.0,60.0,150.0,10.0,0.0
1352,66.0,0.0,150.0,11.0,0.0
1353,86.0,180.0,450.0,6.0,0.0
1354,66.0,0.0,150.0,11.0,0.0
1355,69.0,0.0,150.0,10.0,0.0
1356,62.0,240.0,150.0,12.0,0.0
1357,66.0,0.0,150.0,11.0,0.0
1358,69.0,60.0,150.0,10.0,0.0
1359,62.0,0.0,150.0,12.0,0.0
1360,69.0,240.0,150.0,10.0,0.0
1361,66.0,0.0,150.0,11.0,0.0
1362,90.0,180.0,450.0,6.0,0.0
1363,62.0,0.0,150.0,12.0,0.0
1364,66.0,0.0,150.0,11.0,0.0
1365,62.0,60.0,150.0,12.0,0.0
1366,69.0,0.0,150.0,10.0,0.0
1367,62.0,0.0,150.0,12.0,0.0
1368,66.0,0.0,150.0,11.0,0.0
1369,93.0,408.0,450.0,6.0,0.0
1370,69.0,240.0,150.0,10.0,0.0
1371,62.0,0.0,150.0,12.0,0.0
1372,66.0,60.0,150.0,11.0,0.0
1373,69.0,0.0,150.0,10.0,0.0
1374,45.0,0.0,390.0,7.0,0.0
1375,57.0,0.0,390.0,7.0,0.0
1376,57.0,12.0,390.0,13.0,0.0
1377,45.0,0.0,390.0,14.0,0.0
1378,91.0,180.0,450.0,6.0,0.0
1379,69.0,0.0,150.0,12.0,0.0
1380,73.0,0.0,150.0,10.0,0.0
1381,67.0,60.0,150.0,11.0,0.0
1382,64.0,0.0,150.0,11.0,0.0
1383,88.0,180.0,450.0,6.0,0.0
1384,73.0,240.0,150.0,10.0,0.0
1385,64.0,0.0,150.0,11.0,0.0
1386,69.0,0.0,150.0,12.0,0.0
1387,67.0,0.0,150.0,11.0,0.0
1388,67.0,60.0,150.0,11.0,0.0
1389,69.0,0.0,150.0,12.0,0.0
1390,73.0,0.0,150.0,10.0,0.0
1391,64.0,0.0,150.0,11.0,0.0
1392,85.0,180.0,450.0,6.0,0.0
1393,69.0,240.0,150.0,12.0,0.0
1394,64.0,0.0,150.0,11.0,0.0
1395,73.0,0.0,150.0,10.0,0.0
1396,67.0,0.0,150.0,11.0,0.0
1397,67.0,0.0,150.0,11.0,0.0
1398,64.0,0.0,150.0,11.0,0.0
1399,73.0,60.0,150.0,10.0,0.0
1400,69.0,0.0,150.0,12.0,0.0
1401,64.0,0.0,150.0,11.0,0.0
1402,73.0,0.0,150.0,10.0,0.0
1403,69.0,240.0,150.0,12.0,0.0
1404,67.0,0.0,150.0,11.0,0.0
1405,79.0,144.0,450.0,6.0,0.0
1406,64.0,0.0,150.0,11.0,0.0
1407,67.0,0.0,150.0,11.0,0.0
1408,73.0,0.0,150.0,10.0,0.0
1409,69.0,60.0,150.0,12.0,0.0
1410,74.0,0.0,150.0,10.0,0.0
1411,79.0,36.0,120.0,6.0,0.0
1412,69.0,48.0,300.0,12.0,0.0
1413,50.0,0.0,390.0,7.0,0.0
1414,62.0,0.0,390.0,7.0,0.0
1415,62.0,84.0,150.0,11.0,0.0
1416,50.0,72.0,390.0,13.0,0.0
1417,38.0,0.0,390.0,14.0,0.0
1418,66.0,0.0,150.0,11.0,0.0
1419,78.0,72.0,120.0,6.0,0.0
1420,69.0,0.0,240.0,10.0,0.0
1421,76.0,24.0,120.0,6.0,0.0
1422,66.0,156.0,240.0,11.0,0.0
1423,74.0,24.0,90.0,6.0,0.0
1424,74.0,12.0,390.0,6.0,0.0
1425,78.0,0.0,150.0,10.0,0.0
1426,66.0,0.0,720.0,12.0,0.0
1427,74.0,228.0,150.0,11.0,0.0
1428,78.0,0.0,150.0,10.0,0.0
1429,74.0,324.0,150.0,11.0,0.0
1430,54.0,96.0,390.0,7.0,0.0
1431,74.0,144.0,240.0,11.0,0.0
1432,42.0,60.0,960.0,14.0,0.0
1433,78.0,0.0,240.0,10.0,0.0
1434,54.0,0.0,960.0,13.0,0.0
1435,67.0,0.0,240.0,12.0,0.0
1436,76.0,0.0,240.0,10.0,0.0
1437,73.0,240.0,240.0,11.0,0.0
1438,66.0,0.0,240.0,12.0,0.0
1439,74.0,156.0,240.0,10.0,0.0
1440,71.0,0.0,240.0,11.0,0.0
1441,73.0,0.0,150.0,10.0,0.0
1442,70.0,0.0,150.0,11.0,0.0
1443,64.0,84.0,150.0,12.0,0.0
1444,47.0,36.0,390.0,14.0,0.0
1445,47.0,0.0,390.0,7.0,0.0
1446,78.0,324.0,60.0,6.0,0.0
1447,59.0,0.0,390.0,13.0,0.0
1448,59.0,0.0,390.0,7.0,0.0
1449,90.0,180.0,1140.0,6.0,0.0
1450,66.0,0.0,180.0,11.0,0.0
1451,62.0,0.0,180.0,12.0,0.0
1452,71.0,240.0,180.0,10.0,0.0
1453,66.0,0.0,180.0,11.0,0.0
1454,62.0,0.0,180.0,12.0,0.0
1455,71.0,240.0,180.0,10.0,0.0
1456,71.0,0.0,180.0,10.0,0.0
1457,66.0,240.0,180.0,11.0,0.0
1458,62.0,0.0,180.0,12.0,0.0
1459,70.0,60.0,180.0,10.0,0.0
1460,66.0,0.0,180.0,11.0,0.0
1461,61.0,0.0,180.0,12.0,0.0
1462,61.0,0.0,180.0,12.0,0.0
1463,66.0,60.0,180.0,11.0,0.0
1464,91.0,180.0,240.0,6.0,0.0
1465,70.0,0.0,180.0,10.0,0.0
1466,64.0,0.0,180.0,12.0,0.0
1467,85.0,180.0,240.0,6.0,0.0
1468,66.0,0.0,180.0,11.0,0.0
1469,70.0,60.0,180.0,10.0,0.0
1470,66.0,60.0,180.0,11.0,0.0
1471,64.0,0.0,180.0,12.0,0.0
1472,70.0,0.0,180.0,10.0,0.0
1473,90.0,384.0,240.0,6.0,0.0
1474,47.0,0.0,390.0,7.0,0.0
1475,59.0,0.0,390.0,7.0,0.0
1476,88.0,0.0,480.0,6.0,0.0
1477,47.0,0.0,390.0,14.0,0.0
1478,59.0,96.0,390.0,13.0,0.0
1479,70.0,240.0,240.0,10.0,0.0
1480,66.0,144.0,480.0,11.0,0.0
1481,61.0,0.0,240.0,12.0,0.0
1482,62.0,0.0,240.0,12.0,0.0
1483,71.0,0.0,240.0,10.0,0.0
1484,86.0,96.0,390.0,6.0,0.0
1485,73.0,0.0,240.0,10.0,0.0
1486,61.0,192.0,240.0,12.0,0.0
1487,70.0,0.0,240.0,11.0,0.0
1488,74.0,192.0,240.0,10.0,0.0
1489,71.0,48.0,180.0,11.0,0.0
1490,59.0,0.0,240.0,12.0,0.0
1491,66.0,240.0,240.0,12.0,0.0
1492,62.0,48.0,180.0,11.0,0.0
1493,71.0,0.0,240.0,10.0,0.0
1494,61.0,0.0,240.0,11.0,0.0
1495,52.0,48.0,390.0,7.0,0.0
1496,40.0,0.0,390.0,7.0,0.0
1497,52.0,0.0,390.0,13.0,0.0
1498,64.0,0.0,240.0,12.0,0.0
1499,40.0,0.0,390.0,14.0,0.0
1500,69.0,144.0,240.0,10.0,0.0
1501,59.0,0.0,180.0,11.0,0.0
1502,62.0,108.0,180.0,12.0,0.0
1503,68.0,0.0,180.0,10.0,0.0
1504,76.0,324.0,60.0,6.0,0.0
1505,57.0,0.0,390.0,7.0,0.0
1506,45.0,0.0,390.0,7.0,0.0
1507,57.0,36.0,390.0,13.0,0.0
1508,45.0,0.0,390.0,14.0,0.0
1509,88.0,180.0,1140.0,6.0,0.0
1510,69.0,60.0,180.0,10.0,0.0
1511,57.0,0.0,240.0,12.0,0.0
1512,61.0,180.0,240.0,11.0,0.0
1513,64.0,240.0,180.0,11.0,0.0
1514,69.0,0.0,180.0,10.0,0.0
1515,61.0,0.0,180.0,12.0,0.0
1516,61.0,0.0,180.0,12.0,0.0
1517,69.0,240.0,180.0,10.0,0.0
1518,64.0,0.0,180.0,11.0,0.0
1519,59.0,0.0,180.0,12.0,0.0
1520,64.0,60.0,180.0,11.0,0.0
1521,68.0,0.0,180.0,10.0,0.0
1522,68.0,60.0,180.0,10.0,0.0
1523,64.0,0.0,180.0,11.0,0.0
1524,90.0,180.0,240.0,6.0,0.0
1525,59.0,0.0,180.0,12.0,0.0
1526,64.0,0.0,180.0,11.0,0.0
1527,62.0,0.0,180.0,12.0,0.0
1528,68.0,60.0,180.0,10.0,0.0
1529,83.0,180.0,240.0,6.0,0.0
1530,62.0,60.0,180.0,12.0,0.0
1531,88.0,384.0,240.0,6.0,0.0
1532,64.0,0.0,180.0,11.0,0.0
1533,68.0,0.0,180.0,10.0,0.0
1534,45.0,0.0,390.0,14.0,0.0
1535,57.0,0.0,390.0,13.0,0.0
1536,86.0,0.0,480.0,6.0,0.0
1537,57.0,0.0,390.0,7.0,0.0
1538,45.0,96.0,390.0,7.0,0.0
1539,64.0,144.0,480.0,12.0,0.0
1540,71.0,180.0,240.0,10.0,0.0
1541,68.0,0.0,240.0,11.0,0.0
1542,85.0,36.0,390.0,6.0,0.0
1543,69.0,0.0,180.0,11.0,0.0
1544,73.0,60.0,180.0,10.0,0.0
1545,64.0,300.0,180.0,11.0,0.0
1546,69.0,0.0,180.0,12.0,0.0
1547,73.0,0.0,180.0,10.0,0.0
1548,69.0,0.0,240.0,12.0,0.0
1549,64.0,0.0,240.0,11.0,0.0
1550,73.0,180.0,240.0,10.0,0.0
1551,62.0,0.0,180.0,11.0,0.0
1552,68.0,0.0,180.0,12.0,0.0
1553,71.0,300.0,180.0,10.0,0.0
1554,68.0,0.0,240.0,12.0,0.0
1555,62.0,180.0,240.0,11.0,0.0
1556,71.0,0.0,240.0,10.0,0.0
1557,69.0,0.0,180.0,12.0,0.0
1558,61.0,0.0,180.0,11.0,0.0
1559,69.0,120.0,180.0,10.0,0.0
1560,76.0,324.0,60.0,6.0,0.0
1561,57.0,0.0,390.0,13.0,0.0
1562,57.0,0.0,390.0,7.0,0.0
1563,45.0,36.0,390.0,14.0,0.0
1564,84.0,60.0,900.0,6.0,0.0
1565,57.0,60.0,180.0,12.0,0.0
1566,64.0,0.0,240.0,11.0,0.0
1567,69.0,180.0,240.0,10.0,0.0
1568,57.0,0.0,180.0,12.0,0.0
1569,76.0,240.0,180.0,10.0,0.0
1570,69.0,0.0,180.0,11.0,0.0
1571,57.0,60.0,180.0,12.0,0.0
1572,76.0,0.0,180.0,10.0,0.0
1573,69.0,0.0,180.0,11.0,0.0
1574,47.0,36.0,390.0,14.0,0.0
1575,80.0,324.0,60.0,6.0,0.0
1576,59.0,0.0,390.0,13.0,0.0
1577,59.0,0.0,390.0,7.0,0.0
1578,89.0,60.0,900.0,6.0,0.0
1579,68.0,180.0,240.0,10.0,0.0
1580,62.0,0.0,240.0,11.0,0.0
1581,59.0,60.0,180.0,12.0,0.0
1582,74.0,240.0,180.0,10.0,0.0
1583,68.0,0.0,180.0,11.0,0.0
1584,59.0,0.0,180.0,12.0,0.0
1585,74.0,60.0,180.0,10.0,0.0
1586,59.0,0.0,180.0,12.0,0.0
1587,68.0,0.0,180.0,11.0,0.0
1588,81.0,324.0,60.0,6.0,0.0
1589,48.0,0.0,390.0,14.0,0.0
1590,60.0,36.0,390.0,13.0,0.0
1591,60.0,0.0,390.0,7.0,0.0
1592,88.0,120.0,1020.0,6.0,0.0
1593,60.0,60.0,180.0,12.0,0.0
1594,64.0,0.0,240.0,11.0,0.0
1595,69.0,180.0,240.0,10.0,0.0
1596,69.0,0.0,180.0,11.0,0.0
1597,76.0,240.0,180.0,10.0,0.0
1598,60.0,0.0,180.0,12.0,0.0
1599,76.0,180.0,180.0,10.0,0.0
1600,60.0,0.0,180.0,12.0,0.0
1601,69.0,0.0,180.0,11.0,0.0
1602,62.0,36.0,390.0,7.0,0.0
1603,62.0,0.0,390.0,13.0,0.0
1604,50.0,0.0,390.0,14.0,0.0
1605,86.0,120.0,120.0,6.0,0.0
1606,65.0,0.0,240.0,11.0,0.0
1607,62.0,60.0,180.0,12.0,0.0
1608,71.0,0.0,240.0,10.0,0.0
1609,84.0,24.0,120.0,6.0,0.0
1610,83.0,120.0,120.0,6.0,0.0
1611,82.0,60.0,120.0,6.0,0.0
1612,71.0,0.0,180.0,11.0,0.0
1613,77.0,60.0,180.0,10.0,0.0
1614,62.0,0.0,180.0,12.0,0.0
1615,83.0,120.0,120.0,6.0,0.0
1616,62.0,60.0,180.0,12.0,0.0
1617,77.0,0.0,180.0,10.0,0.0
1618,86.0,60.0,120.0,6.0,0.0
1619,71.0,0.0,180.0,11.0,0.0
1620,83.0,240.0,120.0,6.0,0.0
1621,52.0,0.0,390.0,14.0,0.0
1622,64.0,0.0,390.0,13.0,0.0
1623,64.0,36.0,390.0,7.0,0.0
1624,83.0,144.0,240.0,6.0,0.0
1625,64.0,12.0,180.0,12.0,0.0
1626,60.0,0.0,240.0,11.0,0.0
1627,64.0,180.0,240.0,10.0,0.0
1628,81.0,48.0,180.0,6.0,0.0
1629,72.0,0.0,180.0,11.0,0.0
1630,76.0,240.0,180.0,10.0,0.0
1631,81.0,192.0,960.0,6.0,0.0
1632,64.0,0.0,180.0,12.0,0.0
1633,76.0,0.0,180.0,10.0,0.0
1634,72.0,0.0,180.0,11.0,0.0
1635,64.0,300.0,180.0,12.0,0.0
1636,52.0,0.0,390.0,7.0,0.0
1637,52.0,0.0,390.0,13.0,0.0
1638,76.0,144.0,240.0,10.0,0.0
1639,72.0,0.0,240.0,11.0,0.0
1640,40.0,48.0,390.0,14.0,0.0
1641,52.0,48.0,180.0,12.0,0.0
1642,69.0,0.0,240.0,11.0,0.0
1643,72.0,0.0,240.0,10.0,0.0
1644,52.0,48.0,180.0,12.0,0.0
1645,71.0,144.0,240.0,11.0,0.0
1646,80.0,48.0,390.0,6.0,0.0
1647,74.0,0.0,240.0,10.0,0.0
1648,71.0,252.0,240.0,10.0,0.0
1649,52.0,36.0,180.0,12.0,0.0
1650,68.0,0.0,240.0,11.0,0.0
1651,52.0,0.0,390.0,7.0,0.0
1652,52.0,0.0,1350.0,12.0,0.0
1653,81.0,60.0,480.0,6.0,0.0
1654,69.0,144.0,240.0,11.0,0.0
1655,52.0,0.0,390.0,13.0,0.0
1656,40.0,96.0,390.0,14.0,0.0
1657,72.0,0.0,720.0,10.0,0.0
1658,65.0,0.0,240.0,11.0,0.0
1659,64.0,0.0,240.0,11.0,0.0
1660,83.0,60.0,60.0,6.0,0.0
1661,81.0,60.0,60.0,6.0,0.0
1662,80.0,60.0,60.0,6.0,0.0
1663,81.0,120.0,60.0,6.0,0.0
1664,63.0,128.0,240.0,11.0,0.0
1665,83.0,0.0,120.0,6.0,0.0
1666,71.0,96.0,120.0,10.0,0.0
1667,84.0,24.0,90.0,6.0,0.0
1668,69.0,0.0,120.0,10.0,0.0
1669,40.0,0.0,390.0,14.0,0.0
1670,68.0,128.0,480.0,10.0,0.0
1671,52.0,0.0,390.0,13.0,0.0
1672,83.0,160.0,120.0,6.0,0.0
1673,52.0,0.0,390.0,7.0,0.0
1674,64.0,64.0,390.0,11.0,0.0
1675,76.0,96.0,120.0,6.0,0.0
1676,78.0,32.0,120.0,6.0,0.0
1677,80.0,160.0,120.0,6.0,0.0
1678,81.0,160.0,120.0,6.0,0.0
1679,83.0,416.0,120.0,6.0,0.0
1680,45.0,0.0,390.0,14.0,0.0
1681,64.0,0.0,2850.0,12.0,0.0
1682,57.0,48.0,390.0,13.0,0.0
1683,57.0,0.0,390.0,7.0,0.0
1684,85.0,72.0,600.0,6.0,0.0
1685,69.0,168.0,180.0,11.0,0.0
1686,73.0,0.0,180.0,10.0,0.0
1687,73.0,0.0,180.0,10.0,0.0
1688,69.0,48.0,180.0,11.0,0.0
1689,81.0,120.0,120.0,6.0,0.0
1690,85.0,72.0,120.0,6.0,0.0
1691,73.0,0.0,180.0,10.0,0.0
1692,69.0,48.0,180.0,11.0,0.0
1693,88.0,384.0,120.0,6.0,0.0
1694,57.0,0.0,390.0,7.0,0.0
1695,68.0,20.0,930.0,12.0,0.0
1696,57.0,0.0,390.0,13.0,0.0
1697,45.0,48.0,390.0,14.0,0.0
1698,86.0,72.0,600.0,6.0,0.0
1699,74.0,0.0,180.0,10.0,0.0
1700,71.0,168.0,180.0,11.0,0.0
1701,74.0,48.0,180.0,10.0,0.0
1702,71.0,0.0,180.0,11.0,0.0
1703,83.0,120.0,120.0,6.0,0.0
1704,86.0,72.0,120.0,6.0,0.0
1705,74.0,0.0,180.0,10.0,0.0
1706,71.0,28.0,180.0,11.0,0.0
1707,90.0,360.0,120.0,6.0,0.0
1708,45.0,0.0,390.0,14.0,0.0
1709,57.0,94.0,390.0,13.0,0.0
1710,69.0,246.0,930.0,12.0,0.0
1711,57.0,0.0,390.0,7.0,0.0
1712,88.0,24.0,360.0,6.0,0.0
1713,73.0,156.0,240.0,10.0,0.0
1714,69.0,0.0,240.0,11.0,0.0
1715,85.0,2.0,120.0,6.0,0.0
1716,73.0,0.0,150.0,11.0,0.0
1717,76.0,240.0,150.0,10.0,0.0
1718,93.0,158.0,720.0,6.0,0.0
1719,73.0,64.0,150.0,11.0,0.0
1720,76.0,0.0,150.0,10.0,0.0
1721,50.0,0.0,390.0,7.0,0.0
1722,66.0,16.0,930.0,12.0,0.0
1723,62.0,0.0,930.0,12.0,0.0
1724,50.0,0.0,390.0,13.0,0.0
1725,38.0,96.0,390.0,14.0,0.0
1726,71.0,156.0,240.0,10.0,0.0
1727,62.0,0.0,240.0,11.0,0.0
1728,83.0,0.0,240.0,6.0,0.0
1729,71.0,84.0,150.0,11.0,0.0
1730,74.0,0.0,150.0,10.0,0.0
1731,86.0,156.0,240.0,6.0,0.0
1732,74.0,64.0,150.0,10.0,0.0
1733,71.0,0.0,150.0,11.0,0.0
1734,90.0,244.0,240.0,6.0,0.0
1735,64.0,60.0,1530.0,12.0,0.0
1736,52.0,92.0,390.0,13.0,0.0
1737,40.0,0.0,390.0,14.0,0.0
1738,52.0,0.0,390.0,7.0,0.0
1739,90.0,144.0,240.0,6.0,0.0
1740,81.0,4.0,240.0,6.0,0.0
1741,64.0,0.0,240.0,10.0,0.0
1742,61.0,156.0,240.0,11.0,0.0
1743,81.0,96.0,960.0,6.0,0.0
1744,73.0,240.0,150.0,10.0,0.0
1745,69.0,0.0,150.0,11.0,0.0
1746,73.0,0.0,150.0,10.0,0.0
1747,69.0,468.0,150.0,11.0,0.0
1748,52.0,0.0,390.0,13.0,0.0
1749,52.0,96.0,390.0,7.0,0.0
1750,40.0,0.0,390.0,14.0,0.0
1751,64.0,0.0,240.0,10.0,0.0
1752,61.0,0.0,240.0,11.0,0.0
1753,62.0,84.0,150.0,11.0,0.0
1754,68.0,0.0,150.0,10.0,0.0
1755,85.0,156.0,240.0,6.0,0.0
1756,68.0,0.0,150.0,10.0,0.0
1757,83.0,184.0,240.0,6.0,0.0
1758,62.0,80.0,150.0,11.0,0.0
1759,81.0,190.0,480.0,6.0,0.0
1760,69.0,204.0,180.0,10.0,0.0
1761,57.0,0.0,390.0,7.0,0.0
1762,45.0,0.0,390.0,14.0,0.0
1763,57.0,36.0,390.0,13.0,0.0
1764,64.0,0.0,180.0,12.0,0.0
1765,61.0,0.0,180.0,11.0,0.0
1766,61.0,0.0,180.0,11.0,0.0
1767,57.0,0.0,180.0,12.0,0.0
1768,64.0,50.0,180.0,10.0,0.0
1769,61.0,0.0,180.0,11.0,0.0
1770,57.0,0.0,180.0,12.0,0.0
1771,64.0,240.0,180.0,10.0,0.0
1772,64.0,0.0,180.0,10.0,0.0
1773,61.0,240.0,180.0,11.0,0.0
1774,57.0,0.0,180.0,12.0,0.0
1775,52.0,0.0,390.0,13.0,0.0
1776,40.0,36.0,390.0,14.0,0.0
1777,82.0,144.0,240.0,6.0,0.0
1778,56.0,0.0,180.0,12.0,0.0
1779,62.0,60.0,180.0,11.0,0.0
1780,64.0,0.0,180.0,10.0,0.0
1781,52.0,0.0,390.0,7.0,0.0
1782,83.0,180.0,240.0,6.0,0.0
1783,64.0,0.0,180.0,10.0,0.0
1784,62.0,60.0,180.0,11.0,0.0
1785,56.0,0.0,180.0,12.0,0.0
1786,85.0,180.0,240.0,6.0,0.0
1787,64.0,0.0,180.0,10.0,0.0
1788,56.0,60.0,180.0,12.0,0.0
1789,62.0,0.0,180.0,11.0,0.0
1790,64.0,60.0,180.0,10.0,0.0
1791,56.0,0.0,180.0,12.0,0.0
1792,86.0,180.0,240.0,6.0,0.0
1793,62.0,0.0,180.0,11.0,0.0
1794,90.0,144.0,240.0,6.0,0.0
1795,57.0,0.0,390.0,7.0,0.0
1796,57.0,60.0,180.0,12.0,0.0
1797,61.0,0.0,180.0,11.0,0.0
1798,45.0,36.0,390.0,14.0,0.0
1799,64.0,0.0,180.0,10.0,0.0
1800,57.0,0.0,390.0,13.0,0.0
1801,64.0,0.0,180.0,10.0,0.0
1802,57.0,0.0,180.0,12.0,0.0
1803,88.0,184.0,240.0,6.0,0.0
1804,61.0,56.0,180.0,11.0,0.0
1805,57.0,240.0,180.0,12.0,0.0
1806,61.0,0.0,180.0,11.0,0.0
1807,64.0,0.0,180.0,10.0,0.0
1808,57.0,0.0,180.0,12.0,0.0
1809,61.0,240.0,180.0,11.0,0.0
1810,64.0,0.0,180.0,10.0,0.0
1811,52.0,0.0,390.0,13.0,0.0
1812,64.0,0.0,180.0,10.0,0.0
1813,52.0,0.0,390.0,7.0,0.0
1814,40.0,36.0,390.0,14.0,0.0
1815,56.0,0.0,180.0,12.0,0.0
1816,82.0,144.0,240.0,6.0,0.0
1817,62.0,60.0,180.0,11.0,0.0
1818,56.0,0.0,180.0,12.0,0.0
1819,83.0,180.0,240.0,6.0,0.0
1820,64.0,0.0,180.0,10.0,0.0
1821,62.0,60.0,180.0,11.0,0.0
1822,56.0,0.0,180.0,12.0,0.0
1823,62.0,60.0,180.0,11.0,0.0
1824,64.0,0.0,180.0,10.0,0.0
1825,85.0,180.0,240.0,6.0,0.0
1826,86.0,180.0,240.0,6.0,0.0
1827,62.0,0.0,180.0,11.0,0.0
1828,64.0,0.0,180.0,10.0,0.0
1829,56.0,60.0,180.0,12.0,0.0
1830,61.0,0.0,180.0,11.0,0.0
1831,45.0,0.0,390.0,14.0,0.0
1832,90.0,144.0,240.0,6.0,0.0
1833,57.0,0.0,390.0,13.0,0.0
1834,64.0,0.0,180.0,10.0,0.0
1835,57.0,60.0,180.0,12.0,0.0
1836,57.0,36.0,390.0,7.0,0.0
1837,88.0,184.0,240.0,6.0,0.0
1838,57.0,0.0,180.0,12.0,0.0
1839,64.0,56.0,180.0,10.0,0.0
1840,61.0,0.0,180.0,11.0,0.0
1841,57.0,0.0,180.0,12.0,0.0
1842,61.0,0.0,180.0,11.0,0.0
1843,64.0,240.0,180.0,10.0,0.0
1844,61.0,0.0,180.0,11.0,0.0
1845,64.0,240.0,180.0,10.0,0.0
1846,57.0,0.0,180.0,12.0,0.0
1847,52.0,0.0,390.0,7.0,0.0
1848,52.0,0.0,390.0,13.0,0.0
1849,64.0,0.0,180.0,10.0,0.0
1850,59.0,60.0,180.0,12.0,0.0
1851,62.0,0.0,180.0,11.0,0.0
1852,40.0,36.0,390.0,14.0,0.0
1853,75.0,144.0,240.0,6.0,0.0
1854,59.0,0.0,180.0,12.0,0.0
1855,64.0,0.0,180.0,10.0,0.0
1856,76.0,180.0,240.0,6.0,0.0
1857,62.0,60.0,180.0,11.0,0.0
1858,78.0,180.0,240.0,6.0,0.0
1859,62.0,0.0,180.0,11.0,0.0
1860,64.0,60.0,180.0,10.0,0.0
1861,59.0,0.0,180.0,12.0,0.0
1862,80.0,360.0,240.0,6.0,0.0
1863,59.0,60.0,180.0,12.0,0.0
1864,64.0,0.0,180.0,10.0,0.0
1865,62.0,0.0,180.0,11.0,0.0
1866,61.0,0.0,390.0,11.0,0.0
1867,57.0,0.0,1920.0,7.0,0.0
1868,45.0,0.0,2310.0,3.0,0.0
1869,57.0,0.0,2310.0,3.0,0.0
1870,57.0,0.0,390.0,12.0,0.0
1871,64.0,0.0,390.0,10.0,0.0
1872,33.0,72.0,390.0,14.0,0.0
1873,64.0,0.0,480.0,2.0,0.0
1874,88.0,384.0,480.0,0.0,0.0
1875,73.0,0.0,960.0,1.0,0.0
1876,76.0,0.0,480.0,1.0,0.0
1877,61.0,0.0,960.0,2.0,0.0
1878,83.0,24.0,360.0,6.0,0.0
1879,45.0,0.0,390.0,13.0,0.0
1880,81.0,24.0,90.0,6.0,0.0
1881,65.0,0.0,480.0,2.0,0.0
1882,89.0,384.0,480.0,0.0,0.0
1883,81.0,96.0,390.0,6.0,0.0
1884,77.0,0.0,480.0,1.0,0.0
1885,90.0,0.0,960.0,0.0,0.0
1886,74.0,0.0,480.0,1.0,0.0
1887,81.0,96.0,390.0,6.0,0.0
1888,78.0,60.0,960.0,1.0,0.0
1889,62.0,384.0,480.0,2.0,0.0
1890,66.0,0.0,960.0,2.0,0.0
1891,63.0,0.0,480.0,2.0,0.0
1892,81.0,96.0,390.0,6.0,0.0
1893,75.0,0.0,480.0,1.0,0.0
1894,57.0,384.0,1920.0,13.0,0.0
1895,91.0,0.0,390.0,0.0,0.0
1896,45.0,0.0,1920.0,14.0,0.0
1897,73.0,0.0,1920.0,10.0,0.0
1898,67.0,0.0,1920.0,11.0,0.0
1899,81.0,60.0,60.0,6.0,0.0
1900,64.0,0.0,1920.0,12.0,0.0
1901,45.0,0.0,390.0,7.0,0.0
1902,79.0,0.0,390.0,1.0,0.0
1903,76.0,0.0,390.0,1.0,0.0
1904,64.0,312.0,390.0,2.0,0.0
1905,67.0,0.0,390.0,2.0,0.0
1906,83.0,60.0,60.0,6.0,0.0
1907,81.0,60.0,60.0,6.0,0.0
1908,80.0,144.0,60.0,6.0,0.0
1909,91.0,144.0,450.0,6.0,0.0
1910,90.0,96.0,120.0,6.0,0.0
1911,88.0,144.0,90.0,6.0,0.0
1912,86.0,96.0,120.0,6.0,0.0
1913,85.0,144.0,90.0,6.0,0.0
1914,83.0,96.0,120.0,6.0,0.0
1915,81.0,144.0,90.0,6.0,0.0
1916,80.0,120.0,120.0,6.0,0.0
1917,81.0,120.0,120.0,6.0,0.0
1918,83.0,120.0,120.0,6.0,0.0
1919,81.0,0.0,120.0,6.0,0.0
1920,66.0,0.0,390.0,11.0,0.0
1921,74.0,0.0,390.0,10.0,0.0
1922,62.0,0.0,390.0,12.0,0.0
1923,62.0,384.0,390.0,7.0,0.0
1924,66.0,0.0,780.0,7.0,0.0
1925,81.0,96.0,780.0,6.0,0.0
1926,38.0,0.0,390.0,14.0,0.0
1927,50.0,0.0,390.0,13.0,0.0
1928,62.0,336.0,390.0,7.0,0.0
1929,80.0,0.0,240.0,6.0,0.0
1930,62.0,96.0,390.0,7.0,0.0
1931,65.0,144.0,240.0,7.0,0.0
1932,81.0,0.0,240.0,6.0,0.0
1933,66.0,240.0,240.0,7.0,0.0
1934,65.0,0.0,240.0,7.0,0.0
1935,80.0,144.0,240.0,6.0,0.0
1936,62.0,48.0,390.0,7.0,0.0
1937,66.0,0.0,180.0,7.0,0.0
1938,81.0,240.0,180.0,6.0,0.0
1939,62.0,48.0,390.0,7.0,0.0
1940,67.0,48.0,180.0,7.0,0.0
1941,83.0,144.0,240.0,6.0,0.0
1942,81.0,192.0,240.0,6.0,0.0
1943,66.0,48.0,180.0,7.0,0.0
1944,64.0,48.0,180.0,7.0,0.0
1945,79.0,192.0,240.0,6.0,0.0
1946,62.0,0.0,180.0,7.0,0.0
1947,78.0,288.0,180.0,6.0,0.0
1948,62.0,36.0,390.0,7.0,0.0
1949,78.0,60.0,240.0,6.0,0.0
1950,79.0,60.0,60.0,6.0,0.0
1951,78.0,24.0,60.0,6.0,0.0
1952,76.0,60.0,60.0,6.0,0.0
1953,78.0,360.0,60.0,6.0,0.0
1954,81.0,120.0,360.0,6.0,0.0
1955,78.0,192.0,120.0,6.0,0.0
1956,74.0,0.0,180.0,6.0,0.0
1957,54.0,240.0,180.0,7.0,0.0
1958,50.0,144.0,780.0,8.0,0.0
1959,57.0,240.0,180.0,7.0,0.0
1960,74.0,96.0,180.0,6.0,0.0
1961,54.0,0.0,180.0,7.0,0.0
1962,57.0,240.0,180.0,7.0,0.0
1963,69.0,240.0,180.0,6.0,0.0
1964,49.0,0.0,780.0,8.0,0.0
1965,52.0,144.0,780.0,8.0,0.0
1966,55.0,0.0,180.0,7.0,0.0
1967,57.0,240.0,180.0,7.0,0.0
1968,55.0,0.0,180.0,7.0,0.0
1969,69.0,96.0,180.0,6.0,0.0
1970,57.0,240.0,180.0,7.0,0.0
1971,54.0,240.0,180.0,7.0,0.0
1972,50.0,72.0,780.0,8.0,0.0
1973,74.0,60.0,480.0,6.0,0.0
1974,57.0,48.0,180.0,7.0,0.0
1975,76.0,60.0,60.0,6.0,0.0
1976,54.0,48.0,180.0,7.0,0.0
1977,74.0,60.0,60.0,6.0,0.0
1978,73.0,12.0,60.0,6.0,0.0
1979,74.0,48.0,60.0,6.0,0.0
1980,57.0,24.0,180.0,7.0,0.0
1981,76.0,72.0,120.0,6.0,0.0
1982,78.0,264.0,90.0,6.0,0.0
1983,76.0,144.0,240.0,6.0,0.0
1984,45.0,96.0,390.0,8.0,0.0
1985,78.0,240.0,240.0,6.0,0.0
1986,79.0,240.0,240.0,6.0,0.0
1987,80.0,384.0,240.0,6.0,0.0
1988,66.0,96.0,780.0,7.0,0.0
1989,81.0,0.0,780.0,6.0,0.0
1990,62.0,384.0,390.0,7.0,0.0
1991,62.0,336.0,390.0,7.0,0.0
1992,80.0,144.0,240.0,6.0,0.0
1993,65.0,0.0,240.0,7.0,0.0
1994,62.0,96.0,390.0,7.0,0.0
1995,66.0,240.0,240.0,7.0,0.0
1996,81.0,0.0,240.0,6.0,0.0
1997,65.0,144.0,240.0,7.0,0.0
1998,62.0,48.0,390.0,7.0,0.0
1999,80.0,0.0,240.0,6.0,0.0
2000,81.0,240.0,180.0,6.0,0.0
2001,66.0,0.0,180.0,7.0,0.0
2002,67.0,48.0,180.0,7.0,0.0
2003,83.0,144.0,240.0,6.0,0.0
2004,62.0,48.0,390.0,7.0,0.0
2005,81.0,192.0,240.0,6.0,0.0
2006,66.0,48.0,180.0,7.0,0.0
2007,64.0,48.0,180.0,7.0,0.0
2008,79.0,192.0,240.0,6.0,0.0
2009,62.0,0.0,180.0,7.0,0.0
2010,78.0,288.0,180.0,6.0,0.0
2011,62.0,36.0,390.0,7.0,0.0
2012,78.0,60.0,240.0,6.0,0.0
2013,79.0,60.0,60.0,6.0,0.0
2014,78.0,24.0,60.0,6.0,0.0
2015,76.0,60.0,60.0,6.0,0.0
2016,78.0,360.0,60.0,6.0,0.0
2017,81.0,120.0,360.0,6.0,0.0
2018,78.0,192.0,120.0,6.0,0.0
2019,74.0,0.0,180.0,6.0,0.0
2020,50.0,144.0,780.0,8.0,0.0
2021,54.0,240.0,180.0,7.0,0.0
2022,57.0,240.0,180.0,7.0,0.0
2023,54.0,0.0,180.0,7.0,0.0
2024,74.0,96.0,180.0,6.0,0.0
2025,57.0,240.0,180.0,7.0,0.0
2026,49.0,144.0,780.0,8.0,0.0
2027,55.0,240.0,180.0,7.0,0.0
2028,52.0,0.0,780.0,8.0,0.0
2029,69.0,0.0,180.0,6.0,0.0
2030,57.0,240.0,180.0,7.0,0.0
2031,69.0,0.0,180.0,6.0,0.0
2032,55.0,96.0,180.0,7.0,0.0
2033,57.0,432.0,180.0,7.0,0.0
2034,50.0,480.0,390.0,8.0,0.0
2035,61.0,192.0,960.0,7.0,0.0
2036,64.0,0.0,960.0,7.0,0.0
2037,57.0,0.0,1140.0,7.0,0.0
2038,67.0,0.0,960.0,6.0,0.0
2039,45.0,96.0,390.0,8.0,0.0
2040,66.0,108.0,180.0,6.0,0.0
2041,38.0,96.0,390.0,8.0,0.0
2042,62.0,0.0,180.0,7.0,0.0
2043,57.0,84.0,60.0,6.0,0.0
2044,69.0,60.0,180.0,6.0,0.0
2045,62.0,180.0,60.0,6.0,0.0
2046,74.0,60.0,180.0,6.0,0.0
2047,66.0,180.0,60.0,6.0,0.0
2048,78.0,384.0,180.0,6.0,0.0
2049,69.0,0.0,900.0,12.0,0.0
2050,62.0,0.0,900.0,3.0,0.0
2051,50.0,0.0,900.0,3.0,0.0
2052,78.0,0.0,900.0,1.0,0.0
2053,62.0,480.0,390.0,13.0,0.0
2054,50.0,0.0,390.0,14.0,0.0
2055,62.0,0.0,390.0,2.0,0.0
2056,81.0,0.0,900.0,1.0,0.0
2057,66.0,0.0,900.0,12.0,0.0
2058,81.0,288.0,900.0,10.0,0.0
2059,81.0,0.0,900.0,0.0,0.0
2060,78.0,0.0,900.0,11.0,0.0
2061,50.0,48.0,390.0,14.0,0.0
2062,62.0,0.0,390.0,2.0,0.0
2063,62.0,0.0,390.0,13.0,0.0
2064,80.0,0.0,240.0,10.0,0.0
2065,80.0,0.0,240.0,0.0,0.0
2066,80.0,0.0,240.0,1.0,0.0
2067,62.0,0.0,390.0,13.0,0.0
2068,77.0,0.0,240.0,1.0,0.0
2069,50.0,96.0,390.0,14.0,0.0
2070,68.0,0.0,240.0,12.0,0.0
2071,77.0,0.0,240.0,11.0,0.0
2072,62.0,0.0,390.0,2.0,0.0
2073,65.0,144.0,240.0,12.0,0.0
2074,50.0,0.0,390.0,3.0,0.0
2075,62.0,0.0,390.0,3.0,0.0
2076,78.0,0.0,240.0,1.0,0.0
2077,81.0,0.0,240.0,0.0,0.0
2078,81.0,0.0,240.0,10.0,0.0
2079,66.0,0.0,240.0,12.0,0.0
2080,78.0,0.0,240.0,11.0,0.0
2081,69.0,0.0,240.0,12.0,0.0
2082,81.0,240.0,240.0,1.0,0.0
2083,62.0,0.0,390.0,13.0,0.0
2084,62.0,0.0,390.0,3.0,0.0
2085,50.0,0.0,390.0,3.0,0.0
2086,77.0,0.0,240.0,11.0,0.0
2087,50.0,84.0,390.0,14.0,0.0
2088,65.0,0.0,240.0,12.0,0.0
2089,80.0,0.0,240.0,0.0,0.0
2090,80.0,0.0,240.0,10.0,0.0
2091,77.0,0.0,240.0,1.0,0.0
2092,62.0,0.0,390.0,2.0,0.0
2093,80.0,0.0,240.0,1.0,0.0
2094,68.0,144.0,240.0,12.0,0.0
2095,81.0,252.0,240.0,1.0,0.0
2096,78.0,0.0,240.0,1.0,0.0
2097,69.0,0.0,240.0,12.0,0.0
2098,81.0,0.0,240.0,10.0,0.0
2099,81.0,0.0,240.0,0.0,0.0
2100,78.0,0.0,240.0,11.0,0.0
2101,66.0,0.0,240.0,12.0,0.0
2102,83.0,0.0,240.0,0.0,0.0
2103,62.0,144.0,960.0,2.0,0.0
2104,50.0,180.0,780.0,14.0,0.0
2105,83.0,0.0,240.0,10.0,0.0
2106,83.0,0.0,240.0,1.0,0.0
2107,79.0,0.0,240.0,1.0,0.0
2108,62.0,0.0,780.0,13.0,0.0
2109,50.0,0.0,1350.0,3.0,0.0
2110,67.0,0.0,240.0,12.0,0.0
2111,79.0,240.0,240.0,11.0,0.0
2112,71.0,0.0,240.0,12.0,0.0
2113,62.0,0.0,1350.0,3.0,0.0
2114,81.0,240.0,240.0,1.0,0.0
2115,81.0,0.0,240.0,10.0,0.0
2116,69.0,0.0,240.0,12.0,0.0
2117,66.0,0.0,240.0,12.0,0.0
2118,81.0,0.0,240.0,0.0,0.0
2119,78.0,0.0,240.0,11.0,0.0
2120,78.0,0.0,240.0,1.0,0.0
2121,67.0,0.0,240.0,12.0,0.0
2122,79.0,0.0,240.0,10.0,0.0
2123,64.0,0.0,240.0,12.0,0.0
2124,76.0,0.0,240.0,11.0,0.0
2125,79.0,0.0,240.0,0.0,0.0
2126,79.0,0.0,240.0,1.0,0.0
2127,76.0,48.0,240.0,1.0,0.0
2128,62.0,0.0,240.0,12.0,0.0
2129,66.0,0.0,240.0,12.0,0.0
2130,74.0,0.0,240.0,11.0,0.0
2131,78.0,0.0,240.0,10.0,0.0
2132,78.0,0.0,240.0,1.0,0.0
2133,74.0,12.0,240.0,1.0,0.0
2134,78.0,0.0,240.0,0.0,0.0
2135,66.0,0.0,390.0,12.0,0.0
2136,78.0,156.0,150.0,10.0,0.0
2137,74.0,0.0,390.0,1.0,0.0
2138,50.0,0.0,390.0,13.0,0.0
2139,50.0,0.0,390.0,2.0,0.0
2140,74.0,36.0,390.0,11.0,0.0
2141,78.0,0.0,390.0,0.0,0.0
2142,62.0,0.0,390.0,12.0,0.0
2143,38.0,0.0,390.0,14.0,0.0
2144,78.0,0.0,390.0,1.0,0.0
2145,79.0,60.0,60.0,10.0,0.0
2146,78.0,24.0,60.0,10.0,0.0
2147,76.0,60.0,60.0,10.0,0.0
2148,78.0,240.0,60.0,10.0,0.0
2149,81.0,240.0,240.0,10.0,0.0
2150,78.0,144.0,240.0,10.0,0.0
2151,78.0,144.0,960.0,1.0,0.0
2152,74.0,0.0,960.0,1.0,0.0
2153,86.0,192.0,180.0,0.0,0.0
2154,50.0,0.0,960.0,2.0,0.0
2155,74.0,0.0,180.0,10.0,0.0
2156,38.0,0.0,780.0,14.0,0.0
2157,62.0,0.0,180.0,3.0,0.0
2158,66.0,0.0,150.0,11.0,0.0
2159,50.0,96.0,780.0,13.0,0.0
2160,62.0,48.0,150.0,12.0,0.0
2161,62.0,240.0,150.0,11.0,0.0
2162,57.0,0.0,150.0,12.0,0.0
2163,62.0,48.0,150.0,12.0,0.0
2164,86.0,96.0,180.0,0.0,0.0
2165,62.0,0.0,180.0,3.0,0.0
2166,74.0,0.0,180.0,10.0,0.0
2167,66.0,0.0,150.0,11.0,0.0
2168,57.0,0.0,150.0,12.0,0.0
2169,62.0,96.0,150.0,11.0,0.0
2170,37.0,96.0,780.0,14.0,0.0
2171,69.0,0.0,180.0,10.0,0.0
2172,76.0,0.0,900.0,1.0,0.0
2173,81.0,192.0,180.0,0.0,0.0
2174,64.0,0.0,150.0,12.0,0.0
2175,49.0,0.0,780.0,13.0,0.0
2176,49.0,0.0,900.0,2.0,0.0
2177,57.0,0.0,180.0,3.0,0.0
2178,79.0,192.0,900.0,1.0,0.0
2179,67.0,48.0,150.0,11.0,0.0
2180,64.0,0.0,150.0,11.0,0.0
2181,57.0,240.0,150.0,12.0,0.0
2182,67.0,0.0,150.0,11.0,0.0
2183,57.0,0.0,180.0,3.0,0.0
2184,69.0,96.0,180.0,10.0,0.0
2185,81.0,0.0,180.0,0.0,0.0
2186,64.0,48.0,150.0,12.0,0.0
2187,57.0,48.0,150.0,12.0,0.0
2188,64.0,0.0,150.0,11.0,0.0
2189,50.0,72.0,780.0,13.0,0.0
2190,78.0,0.0,960.0,1.0,0.0
2191,74.0,0.0,960.0,1.0,0.0
2192,86.0,48.0,720.0,0.0,0.0
2193,62.0,0.0,150.0,12.0,0.0
2194,50.0,0.0,960.0,2.0,0.0
2195,38.0,0.0,780.0,14.0,0.0
2196,66.0,240.0,150.0,11.0,0.0
2197,54.0,144.0,480.0,3.0,0.0
2198,74.0,0.0,720.0,10.0,0.0
2199,62.0,96.0,150.0,11.0,0.0
2200,57.0,0.0,150.0,12.0,0.0
2201,50.0,72.0,390.0,3.0,0.0
2202,62.0,0.0,150.0,12.0,0.0
2203,66.0,96.0,150.0,11.0,0.0
2204,88.0,0.0,120.0,0.0,0.0
2205,57.0,0.0,150.0,12.0,0.0
2206,62.0,0.0,150.0,11.0,0.0
2207,76.0,24.0,120.0,10.0,0.0
2208,78.0,24.0,90.0,10.0,0.0
2209,90.0,192.0,120.0,0.0,0.0
2210,57.0,0.0,390.0,3.0,0.0
2211,76.0,0.0,180.0,1.0,0.0
2212,45.0,96.0,390.0,2.0,0.0
2213,73.0,0.0,180.0,1.0,0.0
2214,76.0,144.0,240.0,10.0,0.0
2215,61.0,48.0,180.0,12.0,0.0
2216,88.0,0.0,180.0,0.0,0.0
2217,64.0,0.0,180.0,11.0,0.0
2218,33.0,0.0,390.0,14.0,0.0
2219,45.0,0.0,390.0,13.0,0.0
2220,78.0,240.0,240.0,10.0,0.0
2221,79.0,192.0,240.0,10.0,0.0
2222,80.0,432.0,180.0,10.0,0.0
2223,54.0,0.0,900.0,2.0,0.0
2224,78.0,0.0,900.0,11.0,0.0
2225,50.0,480.0,390.0,14.0,0.0
2226,81.0,0.0,900.0,10.0,0.0
2227,69.0,0.0,900.0,12.0,0.0
2228,57.0,0.0,900.0,2.0,0.0
2229,86.0,0.0,3300.0,1.0,0.0
2230,66.0,0.0,900.0,12.0,0.0
2231,50.0,0.0,900.0,3.0,0.0
2232,62.0,0.0,900.0,3.0,0.0
2233,74.0,12.0,3300.0,1.0,0.0
2234,62.0,0.0,390.0,13.0,0.0
2235,93.0,288.0,900.0,0.0,0.0
2236,62.0,0.0,390.0,13.0,0.0
2237,50.0,48.0,390.0,14.0,0.0
2238,68.0,0.0,240.0,12.0,0.0
2239,50.0,0.0,390.0,14.0,0.0
2240,92.0,0.0,240.0,0.0,0.0
2241,77.0,0.0,240.0,11.0,0.0
2242,65.0,0.0,240.0,12.0,0.0
2243,62.0,96.0,390.0,13.0,0.0
2244,50.0,0.0,390.0,3.0,0.0
2245,53.0,144.0,240.0,2.0,0.0
2246,56.0,0.0,240.0,2.0,0.0
2247,62.0,0.0,390.0,3.0,0.0
2248,80.0,0.0,240.0,10.0,0.0
2249,93.0,0.0,240.0,0.0,0.0
2250,78.0,0.0,240.0,11.0,0.0
2251,81.0,0.0,240.0,10.0,0.0
2252,66.0,0.0,240.0,12.0,0.0
2253,69.0,0.0,240.0,12.0,0.0
2254,54.0,240.0,240.0,2.0,0.0
2255,57.0,0.0,240.0,2.0,0.0
2256,62.0,0.0,390.0,13.0,0.0
2257,50.0,84.0,390.0,14.0,0.0
2258,92.0,0.0,240.0,0.0,0.0
2259,77.0,0.0,240.0,11.0,0.0
2260,65.0,0.0,240.0,12.0,0.0
2261,80.0,144.0,240.0,10.0,0.0
2262,53.0,0.0,240.0,2.0,0.0
2263,68.0,0.0,240.0,12.0,0.0
2264,56.0,0.0,240.0,2.0,0.0
2265,50.0,0.0,390.0,3.0,0.0
2266,62.0,0.0,390.0,3.0,0.0
2267,78.0,0.0,240.0,11.0,0.0
2268,66.0,0.0,240.0,12.0,0.0
2269,57.0,0.0,240.0,2.0,0.0
2270,54.0,0.0,240.0,2.0,0.0
2271,69.0,0.0,240.0,12.0,0.0
2272,93.0,0.0,240.0,0.0,0.0
2273,81.0,252.0,240.0,10.0,0.0
2274,62.0,0.0,780.0,13.0,0.0
2275,55.0,0.0,240.0,2.0,0.0
2276,59.0,0.0,240.0,2.0,0.0
2277,95.0,240.0,240.0,0.0,0.0
2278,67.0,0.0,240.0,12.0,0.0
2279,50.0,180.0,780.0,14.0,0.0
2280,50.0,0.0,1350.0,3.0,0.0
2281,62.0,0.0,1350.0,3.0,0.0
2282,83.0,0.0,240.0,10.0,0.0
2283,79.0,0.0,240.0,11.0,0.0
2284,71.0,0.0,240.0,12.0,0.0
2285,66.0,0.0,240.0,12.0,0.0
2286,69.0,0.0,240.0,12.0,0.0
2287,54.0,0.0,240.0,2.0,0.0
2288,57.0,0.0,240.0,2.0,0.0
2289,78.0,240.0,240.0,11.0,0.0
2290,81.0,0.0,240.0,10.0,0.0
2291,93.0,0.0,240.0,0.0,0.0
2292,91.0,0.0,240.0,0.0,0.0
2293,55.0,0.0,240.0,2.0,0.0
2294,52.0,48.0,240.0,2.0,0.0
2295,79.0,0.0,240.0,10.0,0.0
2296,76.0,0.0,240.0,11.0,0.0
2297,67.0,0.0,240.0,12.0,0.0
2298,64.0,0.0,240.0,12.0,0.0
2299,62.0,156.0,240.0,12.0,0.0
2300,54.0,0.0,240.0,2.0,0.0
2301,50.0,0.0,240.0,2.0,0.0
2302,78.0,0.0,240.0,10.0,0.0
2303,90.0,0.0,240.0,0.0,0.0
2304,66.0,0.0,240.0,12.0,0.0
2305,74.0,0.0,240.0,11.0,0.0
2306,66.0,0.0,390.0,12.0,0.0
2307,90.0,0.0,390.0,0.0,0.0
2308,50.0,0.0,390.0,2.0,0.0
2309,54.0,0.0,390.0,2.0,0.0
2310,74.0,0.0,390.0,11.0,0.0
2311,38.0,0.0,390.0,14.0,0.0
2312,62.0,24.0,390.0,12.0,0.0
2313,50.0,0.0,390.0,13.0,0.0
2314,78.0,156.0,150.0,10.0,0.0
2315,79.0,60.0,60.0,10.0,0.0
2316,78.0,24.0,60.0,10.0,0.0
2317,76.0,60.0,60.0,10.0,0.0
2318,78.0,120.0,60.0,10.0,0.0
2319,81.0,120.0,120.0,10.0,0.0
2320,78.0,120.0,120.0,10.0,0.0
2321,81.0,96.0,120.0,10.0,0.0
2322,78.0,168.0,90.0,10.0,0.0
2323,38.0,96.0,780.0,14.0,0.0
2324,62.0,48.0,150.0,12.0,0.0
2325,74.0,0.0,180.0,10.0,0.0
2326,62.0,0.0,180.0,3.0,0.0
2327,66.0,0.0,150.0,11.0,0.0
2328,50.0,0.0,780.0,13.0,0.0
2329,86.0,192.0,180.0,0.0,0.0
2330,62.0,240.0,150.0,11.0,0.0
2331,57.0,0.0,150.0,12.0,0.0
2332,86.0,0.0,180.0,0.0,0.0
2333,74.0,0.0,180.0,10.0,0.0
2334,62.0,0.0,150.0,12.0,0.0
2335,62.0,96.0,180.0,3.0,0.0
2336,66.0,48.0,150.0,11.0,0.0
2337,57.0,0.0,150.0,12.0,0.0
2338,62.0,240.0,150.0,11.0,0.0
2339,67.0,0.0,150.0,11.0,0.0
2340,49.0,0.0,780.0,13.0,0.0
2341,37.0,96.0,780.0,14.0,0.0
2342,69.0,192.0,180.0,10.0,0.0
2343,81.0,0.0,180.0,0.0,0.0
2344,64.0,48.0,150.0,12.0,0.0
2345,57.0,0.0,180.0,3.0,0.0
2346,64.0,240.0,150.0,11.0,0.0
2347,57.0,0.0,150.0,12.0,0.0
2348,67.0,0.0,150.0,11.0,0.0
2349,57.0,96.0,180.0,3.0,0.0
2350,69.0,0.0,180.0,10.0,0.0
2351,64.0,48.0,150.0,12.0,0.0
2352,81.0,0.0,180.0,0.0,0.0
2353,57.0,0.0,150.0,12.0,0.0
2354,64.0,288.0,150.0,11.0,0.0
2355,38.0,480.0,180.0,14.0,0.0
2356,45.0,0.0,960.0,3.0,0.0
2357,57.0,0.0,1200.0,12.0,0.0
2358,57.0,0.0,1140.0,3.0,0.0
2359,50.0,0.0,180.0,13.0,0.0
2360,61.0,0.0,960.0,12.0,0.0
2361,67.0,0.0,960.0,10.0,0.0
2362,79.0,0.0,960.0,0.0,0.0
2363,64.0,192.0,960.0,11.0,0.0
2364,45.0,0.0,180.0,13.0,0.0
2365,33.0,288.0,180.0,14.0,0.0
2366,50.0,48.0,180.0,13.0,0.0
2367,50.0,0.0,180.0,3.0,0.0
2368,78.0,0.0,180.0,0.0,0.0
2369,38.0,0.0,180.0,14.0,0.0
2370,62.0,0.0,240.0,12.0,0.0
2371,66.0,912.0,240.0,10.0,0.0
2372,62.0,0.0,240.0,11.0,0.0
2373,74.0,0.0,390.0,11.0,0.0
2374,59.0,0.0,390.0,10.0,0.0
2375,74.0,0.0,390.0,10.0,0.0
2376,59.0,0.0,390.0,12.0,0.0
2377,71.0,0.0,390.0,12.0,0.0
2378,83.0,0.0,390.0,11.0,0.0
2379,59.0,0.0,390.0,11.0,0.0
2380,66.0,0.0,390.0,11.0,0.0
2381,66.0,0.0,390.0,10.0,0.0
2382,78.0,192.0,180.0,6.0,0.0
2383,83.0,48.0,390.0,10.0,0.0
2384,59.0,0.0,390.0,13.0,0.0
2385,47.0,0.0,390.0,14.0,0.0
2386,74.0,0.0,180.0,6.0,0.0
2387,83.0,0.0,180.0,6.0,0.0
2388,59.0,32.0,180.0,7.0,0.0
2389,70.0,0.0,60.0,6.0,0.0
2390,71.0,160.0,60.0,6.0,0.0
2391,62.0,32.0,180.0,7.0,0.0
2392,73.0,48.0,60.0,6.0,0.0
2393,74.0,160.0,60.0,6.0,0.0
2394,66.0,32.0,180.0,7.0,0.0
2395,77.0,48.0,60.0,6.0,0.0
2396,78.0,160.0,60.0,6.0,0.0
2397,71.0,32.0,180.0,7.0,0.0
2398,82.0,48.0,60.0,6.0,0.0
2399,83.0,160.0,60.0,6.0,0.0
2400,71.0,32.0,180.0,7.0,0.0
2401,78.0,48.0,60.0,6.0,0.0
2402,86.0,160.0,60.0,6.0,0.0
2403,70.0,32.0,180.0,7.0,0.0
2404,76.0,48.0,60.0,6.0,0.0
2405,85.0,160.0,60.0,6.0,0.0
2406,71.0,32.0,180.0,7.0,0.0
2407,74.0,48.0,60.0,6.0,0.0
2408,83.0,160.0,60.0,6.0,0.0
2409,66.0,156.0,240.0,7.0,0.0
2410,76.0,144.0,720.0,1.0,0.0
2411,85.0,0.0,1200.0,0.0,0.0
2412,82.0,0.0,1200.0,1.0,0.0
2413,73.0,80.0,60.0,6.0,0.0
2414,82.0,4.0,60.0,6.0,0.0
2415,66.0,156.0,240.0,7.0,0.0
2416,54.0,0.0,180.0,2.0,0.0
2417,66.0,32.0,180.0,2.0,0.0
2418,54.0,0.0,240.0,8.0,0.0
2419,70.0,48.0,60.0,6.0,0.0
2420,73.0,4.0,60.0,6.0,0.0
2421,55.0,12.0,240.0,8.0,0.0
2422,67.0,32.0,180.0,2.0,0.0
2423,67.0,0.0,240.0,7.0,0.0
2424,55.0,0.0,180.0,2.0,0.0
2425,70.0,48.0,60.0,6.0,0.0
2426,73.0,4.0,60.0,6.0,0.0
2427,54.0,32.0,180.0,2.0,0.0
2428,78.0,144.0,240.0,1.0,0.0
2429,66.0,0.0,180.0,2.0,0.0
2430,66.0,12.0,240.0,7.0,0.0
2431,54.0,0.0,240.0,8.0,0.0
2432,70.0,48.0,60.0,6.0,0.0
2433,73.0,4.0,60.0,6.0,0.0
2434,52.0,0.0,240.0,8.0,0.0
2435,52.0,0.0,180.0,2.0,0.0
2436,64.0,12.0,240.0,7.0,0.0
2437,64.0,32.0,180.0,2.0,0.0
2438,79.0,144.0,240.0,1.0,0.0
2439,70.0,48.0,60.0,6.0,0.0
2440,73.0,4.0,60.0,6.0,0.0
2441,50.0,12.0,240.0,8.0,0.0
2442,86.0,0.0,240.0,0.0,0.0
2443,62.0,32.0,180.0,2.0,0.0
2444,83.0,144.0,240.0,1.0,0.0
2445,50.0,0.0,180.0,2.0,0.0
2446,78.0,0.0,240.0,1.0,0.0
2447,62.0,0.0,240.0,7.0,0.0
2448,71.0,48.0,60.0,6.0,0.0
2449,74.0,4.0,60.0,6.0,0.0
2450,76.0,144.0,240.0,1.0,0.0
2451,49.0,12.0,240.0,8.0,0.0
2452,88.0,0.0,240.0,0.0,0.0
2453,85.0,0.0,240.0,1.0,0.0
2454,49.0,0.0,180.0,2.0,0.0
2455,61.0,32.0,180.0,2.0,0.0
2456,61.0,0.0,240.0,7.0,0.0
2457,73.0,48.0,60.0,6.0,0.0
2458,76.0,4.0,60.0,6.0,0.0
2459,47.0,32.0,180.0,2.0,0.0
2460,47.0,12.0,240.0,8.0,0.0
2461,59.0,0.0,180.0,2.0,0.0
2462,59.0,0.0,240.0,7.0,0.0
2463,74.0,64.0,240.0,1.0,0.0
2464,86.0,0.0,240.0,1.0,0.0
2465,90.0,0.0,240.0,0.0,0.0
2466,74.0,48.0,60.0,6.0,0.0
2467,78.0,4.0,60.0,6.0,0.0
2468,46.0,0.0,390.0,2.0,0.0
2469,58.0,0.0,870.0,2.0,0.0
2470,91.0,0.0,960.0,0.0,0.0
2471,70.0,80.0,60.0,7.0,0.0
2472,73.0,0.0,960.0,1.0,0.0
2473,88.0,64.0,960.0,1.0,0.0
2474,46.0,32.0,180.0,8.0,0.0
2475,58.0,0.0,180.0,7.0,0.0
2476,73.0,48.0,60.0,7.0,0.0
2477,76.0,80.0,60.0,7.0,0.0
2478,79.0,80.0,60.0,7.0,0.0
2479,88.0,76.0,240.0,6.0,0.0
2480,76.0,80.0,60.0,7.0,0.0
2481,73.0,4.0,60.0,7.0,0.0
2482,70.0,80.0,60.0,7.0,0.0
2483,91.0,76.0,240.0,6.0,0.0
2484,73.0,80.0,60.0,7.0,0.0
2485,76.0,4.0,60.0,7.0,0.0
2486,88.0,12.0,240.0,6.0,0.0
2487,79.0,80.0,60.0,7.0,0.0
2488,76.0,80.0,60.0,7.0,0.0
2489,73.0,4.0,60.0,7.0,0.0
2490,70.0,16.0,780.0,2.0,0.0
2491,90.0,64.0,480.0,0.0,0.0
2492,70.0,80.0,60.0,7.0,0.0
2493,78.0,0.0,1200.0,1.0,0.0
2494,85.0,76.0,240.0,6.0,0.0
2495,85.0,64.0,960.0,1.0,0.0
2496,73.0,80.0,60.0,7.0,0.0
2497,76.0,4.0,60.0,7.0,0.0
2498,82.0,12.0,240.0,6.0,0.0
2499,78.0,80.0,60.0,7.0,0.0
2500,76.0,80.0,60.0,7.0,0.0
2501,73.0,4.0,60.0,7.0,0.0
2502,70.0,80.0,60.0,7.0,0.0
2503,90.0,60.0,240.0,6.0,0.0
2504,88.0,0.0,480.0,0.0,0.0
2505,73.0,80.0,60.0,7.0,0.0
2506,76.0,4.0,60.0,7.0,0.0
2507,78.0,80.0,60.0,7.0,0.0
2508,85.0,12.0,240.0,6.0,0.0
2509,76.0,80.0,60.0,7.0,0.0
2510,73.0,4.0,60.0,7.0,0.0
2511,71.0,36.0,150.0,2.0,0.0
2512,86.0,76.0,240.0,0.0,0.0
2513,66.0,80.0,60.0,7.0,0.0
2514,86.0,32.0,180.0,6.0,0.0
2515,83.0,0.0,240.0,1.0,0.0
2516,71.0,12.0,60.0,7.0,0.0
2517,74.0,4.0,60.0,7.0,0.0
2518,59.0,0.0,150.0,8.0,0.0
2519,78.0,80.0,60.0,7.0,0.0
2520,59.0,68.0,150.0,2.0,0.0
2521,78.0,0.0,450.0,1.0,0.0
2522,83.0,0.0,450.0,1.0,0.0
2523,86.0,8.0,450.0,0.0,0.0
2524,74.0,12.0,60.0,7.0,0.0
2525,71.0,80.0,60.0,7.0,0.0
2526,62.0,60.0,150.0,2.0,0.0
2527,66.0,80.0,60.0,7.0,0.0
2528,62.0,0.0,150.0,8.0,0.0
2529,71.0,12.0,60.0,7.0,0.0
2530,74.0,80.0,60.0,7.0,0.0
2531,78.0,0.0,450.0,1.0,0.0
2532,83.0,0.0,450.0,1.0,0.0
2533,86.0,8.0,450.0,0.0,0.0
2534,59.0,68.0,150.0,8.0,0.0
2535,59.0,0.0,150.0,2.0,0.0
2536,78.0,80.0,60.0,7.0,0.0
2537,74.0,12.0,60.0,7.0,0.0
2538,71.0,80.0,60.0,7.0,0.0
2539,54.0,60.0,150.0,8.0,0.0
2540,54.0,0.0,150.0,2.0,0.0
2541,66.0,80.0,60.0,7.0,0.0
2542,71.0,12.0,60.0,7.0,0.0
2543,74.0,80.0,60.0,7.0,0.0
2544,78.0,80.0,60.0,7.0,0.0
2545,83.0,8.0,450.0,1.0,0.0
2546,59.0,68.0,150.0,2.0,0.0
2547,78.0,0.0,450.0,1.0,0.0
2548,59.0,0.0,150.0,8.0,0.0
2549,86.0,0.0,450.0,0.0,0.0
2550,74.0,12.0,60.0,7.0,0.0
2551,71.0,80.0,60.0,7.0,0.0
2552,66.0,80.0,60.0,7.0,0.0
2553,50.0,60.0,150.0,2.0,0.0
2554,50.0,0.0,150.0,8.0,0.0
2555,71.0,12.0,60.0,7.0,0.0
2556,74.0,80.0,60.0,7.0,0.0
2557,78.0,0.0,630.0,1.0,0.0
2558,54.0,68.0,150.0,2.0,0.0
2559,78.0,80.0,60.0,7.0,0.0
2560,54.0,0.0,150.0,8.0,0.0
2561,86.0,48.0,630.0,0.0,0.0
2562,83.0,0.0,630.0,1.0,0.0
2563,74.0,12.0,60.0,7.0,0.0
2564,71.0,80.0,60.0,7.0,0.0
2565,47.0,0.0,390.0,2.0,0.0
2566,47.0,32.0,180.0,8.0,0.0
2567,71.0,80.0,60.0,7.0,0.0
2568,74.0,48.0,60.0,7.0,0.0
2569,73.0,80.0,60.0,7.0,0.0
2570,71.0,80.0,60.0,7.0,0.0
2571,83.0,32.0,180.0,6.0,0.0
2572,74.0,0.0,60.0,7.0,0.0
2573,73.0,80.0,60.0,7.0,0.0
2574,71.0,80.0,60.0,7.0,0.0
2575,90.0,32.0,180.0,6.0,0.0
2576,90.0,64.0,480.0,0.0,0.0
2577,78.0,0.0,480.0,1.0,0.0
2578,74.0,48.0,60.0,7.0,0.0
2579,73.0,80.0,60.0,7.0,0.0
2580,86.0,32.0,180.0,6.0,0.0
2581,71.0,80.0,60.0,7.0,0.0
2582,74.0,48.0,60.0,7.0,0.0
2583,73.0,16.0,60.0,7.0,0.0
2584,79.0,64.0,480.0,1.0,0.0
2585,71.0,0.0,960.0,2.0,0.0
2586,91.0,8.0,1410.0,0.0,0.0
2587,91.0,32.0,180.0,6.0,0.0
2588,71.0,80.0,60.0,7.0,0.0
2589,74.0,48.0,60.0,7.0,0.0
2590,73.0,80.0,60.0,7.0,0.0
2591,47.0,0.0,180.0,8.0,0.0
2592,71.0,80.0,60.0,7.0,0.0
2593,59.0,32.0,180.0,8.0,0.0
2594,47.0,48.0,150.0,2.0,0.0
2595,74.0,0.0,60.0,7.0,0.0
2596,73.0,16.0,60.0,7.0,0.0
2597,74.0,64.0,480.0,1.0,0.0
2598,71.0,80.0,60.0,7.0,0.0
2599,62.0,32.0,180.0,8.0,0.0
2600,71.0,0.0,480.0,1.0,0.0
2601,50.0,0.0,180.0,8.0,0.0
2602,50.0,0.0,150.0,2.0,0.0
2603,74.0,48.0,60.0,7.0,0.0
2604,73.0,80.0,60.0,7.0,0.0
2605,71.0,80.0,60.0,7.0,0.0
2606,55.0,0.0,150.0,2.0,0.0
2607,67.0,0.0,180.0,8.0,0.0
2608,55.0,32.0,180.0,8.0,0.0
2609,74.0,48.0,60.0,7.0,0.0
2610,73.0,16.0,60.0,7.0,0.0
2611,46.0,48.0,390.0,2.0,0.0
2612,70.0,0.0,960.0,2.0,0.0
2613,58.0,32.0,180.0,8.0,0.0
2614,76.0,64.0,480.0,1.0,0.0
2615,70.0,80.0,60.0,7.0,0.0
2616,46.0,0.0,180.0,8.0,0.0
2617,73.0,48.0,60.0,7.0,0.0
2618,71.0,80.0,60.0,7.0,0.0
2619,70.0,80.0,60.0,7.0,0.0
2620,82.0,24.0,180.0,6.0,0.0
2621,73.0,0.0,60.0,7.0,0.0
2622,71.0,16.0,60.0,7.0,0.0
2623,89.0,0.0,480.0,0.0,0.0
2624,77.0,64.0,480.0,1.0,0.0
2625,70.0,80.0,60.0,7.0,0.0
2626,89.0,32.0,180.0,6.0,0.0
2627,73.0,48.0,60.0,7.0,0.0
2628,71.0,80.0,60.0,7.0,0.0
2629,85.0,32.0,180.0,6.0,0.0
2630,70.0,80.0,60.0,7.0,0.0
2631,73.0,48.0,60.0,7.0,0.0
2632,71.0,16.0,60.0,7.0,0.0
2633,90.0,32.0,180.0,6.0,0.0
2634,69.0,80.0,60.0,7.0,0.0
2635,90.0,0.0,1440.0,0.0,0.0
2636,78.0,0.0,480.0,1.0,0.0
2637,69.0,64.0,960.0,2.0,0.0
2638,73.0,48.0,60.0,7.0,0.0
2639,71.0,80.0,60.0,7.0,0.0
2640,45.0,48.0,150.0,2.0,0.0
2641,45.0,0.0,180.0,8.0,0.0
2642,57.0,32.0,180.0,8.0,0.0
2643,69.0,80.0,60.0,7.0,0.0
2644,73.0,0.0,60.0,7.0,0.0
2645,71.0,16.0,60.0,7.0,0.0
2646,49.0,48.0,150.0,2.0,0.0
2647,69.0,80.0,60.0,7.0,0.0
2648,69.0,0.0,480.0,1.0,0.0
2649,73.0,64.0,15.0,1.0,0.0
2650,49.0,0.0,180.0,8.0,0.0
2651,61.0,32.0,180.0,8.0,0.0
2652,73.0,0.0,60.0,7.0,0.0
2653,71.0,80.0,60.0,7.0,0.0
2654,54.0,32.0,180.0,8.0,0.0
2655,66.0,0.0,180.0,8.0,0.0
2656,54.0,0.0,150.0,2.0,0.0
2657,69.0,80.0,60.0,7.0,0.0
2658,73.0,48.0,60.0,7.0,0.0
2659,71.0,16.0,60.0,7.0,0.0
2660,44.0,0.0,390.0,2.0,0.0
2661,68.0,80.0,60.0,7.0,0.0
2662,44.0,32.0,180.0,8.0,0.0
2663,56.0,0.0,180.0,8.0,0.0
2664,71.0,0.0,1920.0,1.0,0.0
2665,68.0,0.0,960.0,2.0,0.0
2666,74.0,64.0,480.0,1.0,0.0
2667,71.0,48.0,60.0,7.0,0.0
2668,69.0,80.0,60.0,7.0,0.0
2669,68.0,80.0,60.0,7.0,0.0
2670,80.0,32.0,180.0,6.0,0.0
2671,71.0,48.0,60.0,7.0,0.0
2672,69.0,16.0,60.0,7.0,0.0
2673,87.0,32.0,180.0,6.0,0.0
2674,87.0,64.0,480.0,0.0,0.0
2675,75.0,0.0,480.0,1.0,0.0
2676,68.0,80.0,60.0,7.0,0.0
2677,71.0,48.0,60.0,7.0,0.0
2678,69.0,80.0,60.0,7.0,0.0
2679,68.0,80.0,60.0,7.0,0.0
2680,83.0,32.0,180.0,6.0,0.0
2681,71.0,48.0,60.0,7.0,0.0
2682,69.0,16.0,60.0,7.0,0.0
2683,76.0,0.0,240.0,1.0,0.0
2684,67.0,0.0,960.0,2.0,0.0
2685,88.0,64.0,240.0,0.0,0.0
2686,67.0,80.0,60.0,7.0,0.0
2687,88.0,32.0,180.0,6.0,0.0
2688,71.0,48.0,60.0,7.0,0.0
2689,76.0,16.0,60.0,7.0,0.0
2690,67.0,80.0,60.0,7.0,0.0
2691,55.0,32.0,180.0,8.0,0.0
2692,43.0,0.0,180.0,8.0,0.0
2693,87.0,0.0,240.0,0.0,0.0
2694,43.0,0.0,150.0,2.0,0.0
2695,75.0,64.0,240.0,1.0,0.0
2696,71.0,48.0,60.0,7.0,0.0
2697,75.0,16.0,60.0,7.0,0.0
2698,88.0,0.0,240.0,0.0,0.0
2699,47.0,48.0,150.0,2.0,0.0
2700,76.0,64.0,240.0,1.0,0.0
2701,59.0,0.0,180.0,8.0,0.0
2702,67.0,80.0,60.0,7.0,0.0
2703,47.0,32.0,180.0,8.0,0.0
2704,71.0,0.0,60.0,7.0,0.0
2705,76.0,16.0,60.0,7.0,0.0
2706,43.0,0.0,180.0,8.0,0.0
2707,67.0,80.0,60.0,7.0,0.0
2708,89.0,192.0,240.0,0.0,0.0
2709,43.0,48.0,150.0,2.0,0.0
2710,77.0,0.0,240.0,1.0,0.0
2711,55.0,32.0,180.0,8.0,0.0
2712,71.0,0.0,60.0,7.0,0.0
2713,77.0,16.0,60.0,7.0,0.0
2714,90.0,8.0,450.0,0.0,0.0
2715,70.0,48.0,390.0,1.0,0.0
2716,54.0,0.0,180.0,8.0,0.0
2717,42.0,0.0,180.0,8.0,0.0
2718,66.0,0.0,390.0,2.0,0.0
2719,78.0,0.0,390.0,1.0,0.0
2720,78.0,192.0,180.0,7.0,0.0
2721,73.0,0.0,180.0,7.0,0.0
2722,70.0,0.0,180.0,7.0,0.0
2723,42.0,0.0,390.0,2.0,0.0
2724,54.0,24.0,180.0,8.0,0.0
2725,65.0,0.0,60.0,7.0,0.0
2726,66.0,160.0,60.0,7.0,0.0
2727,58.0,32.0,180.0,8.0,0.0
2728,69.0,48.0,60.0,7.0,0.0
2729,70.0,160.0,60.0,7.0,0.0
2730,61.0,32.0,180.0,8.0,0.0
2731,72.0,48.0,60.0,7.0,0.0
2732,73.0,160.0,60.0,7.0,0.0
2733,66.0,32.0,180.0,6.0,0.0
2734,77.0,48.0,60.0,7.0,0.0
2735,78.0,160.0,60.0,7.0,0.0
2736,70.0,32.0,180.0,6.0,0.0
2737,81.0,48.0,60.0,7.0,0.0
2738,82.0,160.0,60.0,7.0,0.0
2739,73.0,32.0,180.0,6.0,0.0
2740,84.0,48.0,60.0,7.0,0.0
2741,85.0,160.0,60.0,7.0,0.0
2742,78.0,32.0,180.0,6.0,0.0
2743,89.0,48.0,60.0,7.0,0.0
2744,90.0,208.0,60.0,7.0,0.0
2745,74.0,0.0,390.0,10.0,0.0
2746,83.0,0.0,390.0,10.0,0.0
2747,59.0,0.0,390.0,12.0,0.0
2748,66.0,0.0,390.0,10.0,0.0
2749,59.0,0.0,390.0,10.0,0.0
2750,71.0,0.0,390.0,12.0,0.0
2751,83.0,0.0,180.0,6.0,0.0
2752,78.0,0.0,180.0,6.0,0.0
2753,59.0,0.0,390.0,13.0,0.0
2754,47.0,48.0,390.0,14.0,0.0
2755,74.0,0.0,390.0,11.0,0.0
2756,66.0,0.0,390.0,11.0,0.0
2757,83.0,0.0,390.0,11.0,0.0
2758,59.0,0.0,390.0,11.0,0.0
2759,74.0,192.0,180.0,6.0,0.0
2760,59.0,32.0,180.0,7.0,0.0
2761,70.0,0.0,60.0,6.0,0.0
2762,71.0,160.0,60.0,6.0,0.0
2763,62.0,32.0,180.0,7.0,0.0
2764,73.0,48.0,60.0,6.0,0.0
2765,74.0,160.0,60.0,6.0,0.0
2766,66.0,32.0,180.0,7.0,0.0
2767,77.0,48.0,60.0,6.0,0.0
2768,78.0,160.0,60.0,6.0,0.0
2769,71.0,32.0,180.0,7.0,0.0
2770,82.0,48.0,60.0,6.0,0.0
2771,83.0,160.0,60.0,6.0,0.0
2772,71.0,32.0,180.0,7.0,0.0
2773,78.0,48.0,60.0,6.0,0.0
2774,86.0,160.0,60.0,6.0,0.0
2775,70.0,32.0,180.0,7.0,0.0
2776,76.0,48.0,60.0,6.0,0.0
2777,85.0,160.0,60.0,6.0,0.0
2778,71.0,32.0,180.0,7.0,0.0
2779,74.0,48.0,60.0,6.0,0.0
2780,83.0,160.0,60.0,6.0,0.0
2781,85.0,0.0,1200.0,0.0,0.0
2782,66.0,156.0,240.0,7.0,0.0
2783,76.0,144.0,720.0,1.0,0.0
2784,82.0,144.0,1200.0,1.0,0.0
2785,73.0,80.0,60.0,6.0,0.0
2786,82.0,4.0,60.0,6.0,0.0
2787,54.0,32.0,180.0,2.0,0.0
2788,66.0,0.0,180.0,2.0,0.0
2789,54.0,0.0,240.0,8.0,0.0
2790,66.0,156.0,240.0,7.0,0.0
2791,70.0,48.0,60.0,6.0,0.0
2792,73.0,4.0,60.0,6.0,0.0
2793,67.0,0.0,240.0,7.0,0.0
2794,67.0,0.0,180.0,2.0,0.0
2795,55.0,32.0,180.0,2.0,0.0
2796,55.0,12.0,240.0,8.0,0.0
2797,70.0,48.0,60.0,6.0,0.0
2798,73.0,4.0,60.0,6.0,0.0
2799,66.0,0.0,180.0,2.0,0.0
2800,54.0,12.0,240.0,8.0,0.0
2801,54.0,32.0,180.0,2.0,0.0
2802,78.0,144.0,240.0,1.0,0.0
2803,66.0,0.0,240.0,7.0,0.0
2804,70.0,48.0,60.0,6.0,0.0
2805,73.0,4.0,60.0,6.0,0.0
2806,79.0,0.0,240.0,1.0,0.0
2807,64.0,0.0,240.0,7.0,0.0
2808,52.0,0.0,180.0,2.0,0.0
2809,52.0,12.0,240.0,8.0,0.0
2810,64.0,32.0,180.0,2.0,0.0
2811,70.0,48.0,60.0,6.0,0.0
2812,73.0,4.0,60.0,6.0,0.0
2813,86.0,0.0,240.0,0.0,0.0
2814,62.0,32.0,180.0,2.0,0.0
2815,62.0,12.0,240.0,7.0,0.0
2816,50.0,0.0,180.0,2.0,0.0
2817,83.0,144.0,240.0,1.0,0.0
2818,78.0,0.0,240.0,1.0,0.0
2819,50.0,0.0,240.0,8.0,0.0
2820,71.0,48.0,60.0,6.0,0.0
2821,74.0,4.0,60.0,6.0,0.0
2822,49.0,0.0,180.0,2.0,0.0
2823,49.0,12.0,240.0,8.0,0.0
2824,61.0,0.0,240.0,7.0,0.0
2825,76.0,0.0,240.0,1.0,0.0
2826,88.0,144.0,240.0,0.0,0.0
2827,85.0,0.0,240.0,1.0,0.0
2828,61.0,32.0,180.0,2.0,0.0
2829,73.0,48.0,60.0,6.0,0.0
2830,76.0,4.0,60.0,6.0,0.0
2831,59.0,32.0,180.0,2.0,0.0
2832,74.0,0.0,240.0,1.0,0.0
2833,47.0,12.0,240.0,8.0,0.0
2834,86.0,0.0,240.0,1.0,0.0
2835,47.0,0.0,180.0,2.0,0.0
2836,90.0,64.0,240.0,0.0,0.0
2837,59.0,0.0,240.0,7.0,0.0
2838,74.0,48.0,60.0,6.0,0.0
2839,78.0,4.0,60.0,6.0,0.0
2840,73.0,0.0,960.0,1.0,0.0
2841,46.0,0.0,180.0,8.0,0.0
2842,46.0,0.0,390.0,2.0,0.0
2843,91.0,0.0,960.0,0.0,0.0
2844,88.0,64.0,960.0,1.0,0.0
2845,70.0,80.0,60.0,7.0,0.0
2846,58.0,32.0,180.0,7.0,0.0
2847,58.0,80.0,870.0,2.0,0.0
2848,73.0,48.0,60.0,7.0,0.0
2849,76.0,80.0,60.0,7.0,0.0
2850,79.0,80.0,60.0,7.0,0.0
2851,88.0,76.0,240.0,6.0,0.0
2852,76.0,80.0,60.0,7.0,0.0
2853,73.0,4.0,60.0,7.0,0.0
2854,70.0,80.0,60.0,7.0,0.0
2855,91.0,76.0,240.0,6.0,0.0
2856,73.0,80.0,60.0,7.0,0.0
2857,76.0,4.0,60.0,7.0,0.0
2858,88.0,12.0,240.0,6.0,0.0
2859,79.0,80.0,60.0,7.0,0.0
2860,76.0,0.0,60.0,7.0,0.0
2861,73.0,4.0,60.0,7.0,0.0
2862,85.0,76.0,240.0,6.0,0.0
2863,78.0,0.0,1200.0,1.0,0.0
2864,70.0,16.0,780.0,2.0,0.0
2865,70.0,80.0,60.0,7.0,0.0
2866,90.0,64.0,480.0,0.0,0.0
2867,85.0,0.0,960.0,1.0,0.0
2868,73.0,80.0,60.0,7.0,0.0
2869,76.0,4.0,60.0,7.0,0.0
2870,78.0,80.0,60.0,7.0,0.0
2871,82.0,12.0,240.0,6.0,0.0
2872,76.0,80.0,60.0,7.0,0.0
2873,73.0,4.0,60.0,7.0,0.0
2874,70.0,80.0,60.0,7.0,0.0
2875,88.0,64.0,480.0,0.0,0.0
2876,90.0,60.0,240.0,6.0,0.0
2877,73.0,80.0,60.0,7.0,0.0
2878,76.0,4.0,60.0,7.0,0.0
2879,85.0,12.0,240.0,6.0,0.0
2880,78.0,80.0,60.0,7.0,0.0
2881,76.0,80.0,60.0,7.0,0.0
2882,73.0,4.0,60.0,7.0,0.0
2883,71.0,36.0,150.0,2.0,0.0
2884,86.0,32.0,180.0,6.0,0.0
2885,83.0,76.0,240.0,1.0,0.0
2886,86.0,0.0,240.0,0.0,0.0
2887,66.0,80.0,60.0,7.0,0.0
2888,71.0,12.0,60.0,7.0,0.0
2889,74.0,4.0,60.0,7.0,0.0
2890,59.0,0.0,150.0,2.0,0.0
2891,86.0,0.0,450.0,0.0,0.0
2892,83.0,0.0,450.0,1.0,0.0
2893,78.0,8.0,450.0,1.0,0.0
2894,59.0,68.0,150.0,8.0,0.0
2895,78.0,80.0,60.0,7.0,0.0
2896,74.0,12.0,60.0,7.0,0.0
2897,71.0,80.0,60.0,7.0,0.0
2898,62.0,0.0,150.0,2.0,0.0
2899,62.0,60.0,150.0,8.0,0.0
2900,66.0,80.0,60.0,7.0,0.0
2901,71.0,12.0,60.0,7.0,0.0
2902,74.0,80.0,60.0,7.0,0.0
2903,78.0,80.0,60.0,7.0,0.0
2904,59.0,68.0,150.0,2.0,0.0
2905,86.0,0.0,450.0,0.0,0.0
2906,59.0,0.0,150.0,8.0,0.0
2907,78.0,0.0,450.0,1.0,0.0
2908,83.0,8.0,450.0,1.0,0.0
2909,74.0,12.0,60.0,7.0,0.0
2910,71.0,80.0,60.0,7.0,0.0
2911,54.0,0.0,150.0,8.0,0.0
2912,66.0,80.0,60.0,7.0,0.0
2913,54.0,60.0,150.0,2.0,0.0
2914,71.0,12.0,60.0,7.0,0.0
2915,74.0,80.0,60.0,7.0,0.0
2916,59.0,68.0,150.0,2.0,0.0
2917,78.0,80.0,60.0,7.0,0.0
2918,86.0,0.0,450.0,0.0,0.0
2919,59.0,0.0,150.0,8.0,0.0
2920,78.0,0.0,450.0,1.0,0.0
2921,83.0,8.0,450.0,1.0,0.0
2922,74.0,12.0,60.0,7.0,0.0
2923,71.0,80.0,60.0,7.0,0.0
2924,66.0,80.0,60.0,7.0,0.0
2925,50.0,60.0,150.0,8.0,0.0
2926,50.0,0.0,150.0,2.0,0.0
2927,71.0,12.0,60.0,7.0,0.0
2928,74.0,80.0,60.0,7.0,0.0
2929,54.0,68.0,150.0,2.0,0.0
2930,54.0,0.0,150.0,8.0,0.0
2931,78.0,0.0,630.0,1.0,0.0
2932,86.0,0.0,630.0,0.0,0.0
2933,83.0,48.0,630.0,1.0,0.0
2934,78.0,80.0,60.0,7.0,0.0
2935,74.0,12.0,60.0,7.0,0.0
2936,71.0,80.0,60.0,7.0,0.0
2937,47.0,0.0,390.0,2.0,0.0
2938,47.0,32.0,180.0,8.0,0.0
2939,71.0,80.0,60.0,7.0,0.0
2940,74.0,48.0,60.0,7.0,0.0
2941,73.0,80.0,60.0,7.0,0.0
2942,83.0,32.0,180.0,6.0,0.0
2943,71.0,80.0,60.0,7.0,0.0
2944,74.0,0.0,60.0,7.0,0.0
2945,73.0,80.0,60.0,7.0,0.0
2946,71.0,80.0,60.0,7.0,0.0
2947,78.0,0.0,480.0,1.0,0.0
2948,90.0,64.0,480.0,0.0,0.0
2949,90.0,32.0,180.0,6.0,0.0
2950,74.0,48.0,60.0,7.0,0.0
2951,73.0,80.0,60.0,7.0,0.0
2952,86.0,32.0,180.0,6.0,0.0
2953,71.0,80.0,60.0,7.0,0.0
2954,74.0,48.0,60.0,7.0,0.0
2955,73.0,16.0,60.0,7.0,0.0
2956,91.0,32.0,180.0,6.0,0.0
2957,79.0,64.0,480.0,1.0,0.0
2958,91.0,8.0,1410.0,0.0,0.0
2959,71.0,80.0,60.0,7.0,0.0
2960,71.0,0.0,960.0,2.0,0.0
2961,74.0,48.0,60.0,7.0,0.0
2962,73.0,80.0,60.0,7.0,0.0
2963,59.0,0.0,180.0,8.0,0.0
2964,71.0,80.0,60.0,7.0,0.0
2965,47.0,0.0,150.0,2.0,0.0
2966,47.0,32.0,180.0,8.0,0.0
2967,74.0,48.0,60.0,7.0,0.0
2968,73.0,16.0,60.0,7.0,0.0
2969,62.0,32.0,180.0,8.0,0.0
2970,50.0,0.0,180.0,8.0,0.0
2971,50.0,48.0,150.0,2.0,0.0
2972,74.0,64.0,480.0,1.0,0.0
2973,71.0,0.0,480.0,1.0,0.0
2974,71.0,80.0,60.0,7.0,0.0
2975,74.0,0.0,60.0,7.0,0.0
2976,73.0,80.0,60.0,7.0,0.0
2977,67.0,0.0,180.0,8.0,0.0
2978,55.0,32.0,180.0,8.0,0.0
2979,55.0,0.0,150.0,2.0,0.0
2980,71.0,80.0,60.0,7.0,0.0
2981,74.0,48.0,60.0,7.0,0.0
2982,73.0,16.0,60.0,7.0,0.0
2983,73.0,0.0,1440.0,1.0,0.0
2984,58.0,0.0,180.0,8.0,0.0
2985,70.0,0.0,960.0,2.0,0.0
2986,46.0,32.0,180.0,8.0,0.0
2987,76.0,64.0,480.0,1.0,0.0
2988,46.0,48.0,390.0,2.0,0.0
2989,70.0,80.0,60.0,7.0,0.0
2990,73.0,48.0,60.0,7.0,0.0
2991,71.0,80.0,60.0,7.0,0.0
2992,70.0,80.0,60.0,7.0,0.0
2993,82.0,24.0,180.0,6.0,0.0
2994,73.0,0.0,60.0,7.0,0.0
2995,71.0,16.0,60.0,7.0,0.0
2996,89.0,64.0,480.0,0.0,0.0
2997,77.0,0.0,480.0,1.0,0.0
2998,70.0,80.0,60.0,7.0,0.0
2999,89.0,32.0,180.0,6.0,0.0
3000,73.0,48.0,60.0,7.0,0.0
3001,71.0,80.0,60.0,7.0,0.0
3002,85.0,32.0,180.0,6.0,0.0
3003,70.0,80.0,60.0,7.0,0.0
3004,73.0,48.0,60.0,7.0,0.0
3005,71.0,16.0,60.0,7.0,0.0
3006,69.0,80.0,60.0,7.0,0.0
3007,90.0,0.0,1440.0,0.0,0.0
3008,90.0,32.0,180.0,6.0,0.0
3009,78.0,64.0,480.0,1.0,0.0
3010,69.0,64.0,960.0,2.0,0.0
3011,73.0,48.0,60.0,7.0,0.0
3012,71.0,80.0,60.0,7.0,0.0
3013,45.0,48.0,150.0,2.0,0.0
3014,69.0,80.0,60.0,7.0,0.0
3015,45.0,0.0,180.0,8.0,0.0
3016,57.0,32.0,180.0,8.0,0.0
3017,73.0,0.0,60.0,7.0,0.0
3018,71.0,16.0,60.0,7.0,0.0
3019,61.0,0.0,180.0,8.0,0.0
3020,49.0,32.0,180.0,8.0,0.0
3021,69.0,80.0,60.0,7.0,0.0
3022,69.0,0.0,480.0,1.0,0.0
3023,49.0,0.0,150.0,2.0,0.0
3024,73.0,0.0,480.0,1.0,0.0
3025,73.0,48.0,60.0,7.0,0.0
3026,71.0,80.0,60.0,7.0,0.0
3027,69.0,80.0,60.0,7.0,0.0
3028,54.0,0.0,180.0,8.0,0.0
3029,54.0,0.0,150.0,2.0,0.0
3030,66.0,32.0,180.0,8.0,0.0
3031,73.0,48.0,60.0,7.0,0.0
3032,71.0,16.0,60.0,7.0,0.0
3033,68.0,80.0,60.0,7.0,0.0
3034,68.0,0.0,960.0,2.0,0.0
3035,44.0,48.0,390.0,2.0,0.0
3036,74.0,64.0,480.0,1.0,0.0
3037,44.0,32.0,180.0,8.0,0.0
3038,56.0,0.0,180.0,8.0,0.0
3039,71.0,192.0,1920.0,1.0,0.0
3040,71.0,48.0,60.0,7.0,0.0
3041,69.0,80.0,60.0,7.0,0.0
3042,68.0,80.0,60.0,7.0,0.0
3043,80.0,32.0,180.0,6.0,0.0
3044,71.0,0.0,60.0,7.0,0.0
3045,69.0,16.0,60.0,7.0,0.0
3046,75.0,0.0,480.0,1.0,0.0
3047,68.0,80.0,60.0,7.0,0.0
3048,87.0,64.0,480.0,0.0,0.0
3049,87.0,32.0,180.0,6.0,0.0
3050,71.0,48.0,60.0,7.0,0.0
3051,69.0,80.0,60.0,7.0,0.0
3052,83.0,32.0,180.0,6.0,0.0
3053,68.0,80.0,60.0,7.0,0.0
3054,71.0,48.0,60.0,7.0,0.0
3055,69.0,16.0,60.0,7.0,0.0
3056,88.0,0.0,240.0,0.0,0.0
3057,76.0,64.0,240.0,1.0,0.0
3058,88.0,32.0,180.0,6.0,0.0
3059,67.0,80.0,60.0,7.0,0.0
3060,67.0,0.0,960.0,2.0,0.0
3061,71.0,48.0,60.0,7.0,0.0
3062,76.0,16.0,60.0,7.0,0.0
3063,67.0,80.0,60.0,7.0,0.0
3064,55.0,0.0,180.0,8.0,0.0
3065,43.0,32.0,180.0,8.0,0.0
3066,75.0,64.0,240.0,1.0,0.0
3067,43.0,0.0,150.0,2.0,0.0
3068,87.0,0.0,240.0,0.0,0.0
3069,71.0,48.0,60.0,7.0,0.0
3070,75.0,16.0,60.0,7.0,0.0
3071,47.0,0.0,150.0,2.0,0.0
3072,59.0,32.0,180.0,8.0,0.0
3073,76.0,64.0,240.0,1.0,0.0
3074,88.0,0.0,240.0,0.0,0.0
3075,47.0,0.0,180.0,8.0,0.0
3076,67.0,80.0,60.0,7.0,0.0
3077,71.0,48.0,60.0,7.0,0.0
3078,76.0,16.0,60.0,7.0,0.0
3079,55.0,32.0,180.0,8.0,0.0
3080,67.0,80.0,60.0,7.0,0.0
3081,89.0,0.0,240.0,0.0,0.0
3082,77.0,0.0,240.0,1.0,0.0
3083,43.0,0.0,180.0,8.0,0.0
3084,43.0,0.0,150.0,2.0,0.0
3085,71.0,48.0,60.0,7.0,0.0
3086,77.0,16.0,60.0,7.0,0.0
3087,54.0,0.0,180.0,8.0,0.0
3088,42.0,0.0,180.0,8.0,0.0
3089,90.0,8.0,450.0,0.0,0.0
3090,78.0,0.0,390.0,1.0,0.0
3091,70.0,0.0,390.0,1.0,0.0
3092,66.0,0.0,390.0,2.0,0.0
3093,42.0,0.0,390.0,2.0,0.0
3094,73.0,0.0,180.0,7.0,0.0
3095,70.0,192.0,180.0,7.0,0.0
3096,78.0,0.0,180.0,7.0,0.0
3097,54.0,24.0,180.0,8.0,0.0
3098,65.0,48.0,60.0,7.0,0.0
3099,66.0,160.0,60.0,7.0,0.0
3100,58.0,32.0,180.0,8.0,0.0
3101,69.0,48.0,60.0,7.0,0.0
3102,70.0,160.0,60.0,7.0,0.0
3103,61.0,32.0,180.0,8.0,0.0
3104,72.0,48.0,60.0,7.0,0.0
3105,73.0,160.0,60.0,7.0,0.0
3106,66.0,32.0,180.0,6.0,0.0
3107,77.0,48.0,60.0,7.0,0.0
3108,78.0,160.0,60.0,7.0,0.0
3109,70.0,32.0,180.0,6.0,0.0
3110,81.0,48.0,60.0,7.0,0.0
3111,82.0,160.0,60.0,7.0,0.0
3112,73.0,32.0,180.0,6.0,0.0
3113,84.0,48.0,60.0,7.0,0.0
3114,85.0,160.0,60.0,7.0,0.0
3115,78.0,32.0,180.0,6.0,0.0
3116,89.0,48.0,60.0,7.0,0.0
3117,90.0,208.0,60.0,7.0,0.0
3118,74.0,48.0,390.0,11.0,0.0
3119,66.0,0.0,390.0,11.0,0.0
3120,81.0,0.0,390.0,11.0,0.0
3121,38.0,0.0,390.0,14.0,0.0
3122,69.0,0.0,180.0,7.0,0.0
3123,74.0,0.0,180.0,7.0,0.0
3124,86.0,0.0,390.0,10.0,0.0
3125,78.0,0.0,390.0,10.0,0.0
3126,69.0,0.0,390.0,10.0,0.0
3127,62.0,0.0,390.0,12.0,0.0
3128,50.0,0.0,390.0,13.0,0.0
3129,66.0,192.0,180.0,7.0,0.0
3130,62.0,0.0,180.0,6.0,0.0
3131,74.0,32.0,180.0,6.0,0.0
3132,85.0,0.0,60.0,7.0,0.0
3133,86.0,160.0,60.0,7.0,0.0
3134,69.0,32.0,180.0,6.0,0.0
3135,80.0,48.0,60.0,7.0,0.0
3136,81.0,160.0,60.0,7.0,0.0
3137,66.0,32.0,180.0,6.0,0.0
3138,77.0,48.0,60.0,7.0,0.0
3139,78.0,160.0,60.0,7.0,0.0
3140,62.0,32.0,180.0,8.0,0.0
3141,73.0,48.0,60.0,7.0,0.0
3142,74.0,160.0,60.0,7.0,0.0
3143,57.0,32.0,180.0,8.0,0.0
3144,68.0,48.0,60.0,7.0,0.0
3145,69.0,160.0,60.0,7.0,0.0
3146,54.0,32.0,180.0,8.0,0.0
3147,65.0,48.0,60.0,7.0,0.0
3148,66.0,160.0,60.0,7.0,0.0
3149,50.0,32.0,180.0,8.0,0.0
3150,61.0,48.0,60.0,7.0,0.0
3151,62.0,96.0,60.0,7.0,0.0
3152,45.0,38.0,3810.0,3.0,0.0
3153,61.0,80.0,90.0,7.0,0.0
3154,45.0,38.0,1890.0,2.0,0.0
3155,57.0,0.0,3810.0,3.0,0.0
3156,64.0,80.0,90.0,7.0,0.0
3157,67.0,80.0,90.0,7.0,0.0
3158,69.0,0.0,240.0,2.0,0.0
3159,81.0,0.0,240.0,6.0,0.0
3160,73.0,80.0,90.0,7.0,0.0
3161,67.0,80.0,90.0,7.0,0.0
3162,64.0,80.0,90.0,7.0,0.0
3163,70.0,80.0,240.0,2.0,0.0
3164,82.0,0.0,240.0,6.0,0.0
3165,61.0,80.0,90.0,7.0,0.0
3166,64.0,80.0,90.0,7.0,0.0
3167,67.0,0.0,90.0,7.0,0.0
3168,81.0,80.0,240.0,6.0,0.0
3169,73.0,80.0,90.0,7.0,0.0
3170,69.0,0.0,240.0,2.0,0.0
3171,67.0,80.0,90.0,7.0,0.0
3172,64.0,0.0,90.0,7.0,0.0
3173,82.0,0.0,240.0,6.0,0.0
3174,70.0,0.0,240.0,2.0,0.0
3175,61.0,80.0,90.0,7.0,0.0
3176,64.0,80.0,90.0,7.0,0.0
3177,67.0,80.0,90.0,7.0,0.0
3178,81.0,0.0,240.0,6.0,0.0
3179,69.0,80.0,240.0,2.0,0.0
3180,73.0,80.0,90.0,7.0,0.0
3181,67.0,80.0,90.0,7.0,0.0
3182,64.0,0.0,90.0,7.0,0.0
3183,82.0,0.0,240.0,6.0,0.0
3184,70.0,0.0,240.0,2.0,0.0
3185,61.0,80.0,90.0,7.0,0.0
3186,64.0,80.0,90.0,7.0,0.0
3187,67.0,80.0,90.0,7.0,0.0
3188,73.0,80.0,90.0,7.0,0.0
3189,69.0,0.0,240.0,2.0,0.0
3190,81.0,80.0,240.0,6.0,0.0
3191,67.0,42.0,90.0,7.0,0.0
3192,64.0,0.0,90.0,7.0,0.0
3193,67.0,0.0,1920.0,1.0,0.0
3194,64.0,80.0,90.0,7.0,0.0
3195,61.0,0.0,1890.0,2.0,0.0
3196,91.0,64.0,1530.0,0.0,0.0
3197,64.0,0.0,1890.0,2.0,0.0
3198,79.0,48.0,180.0,6.0,0.0
3199,67.0,32.0,90.0,7.0,0.0
3200,73.0,80.0,90.0,7.0,0.0
3201,45.0,0.0,240.0,8.0,0.0
3202,81.0,0.0,240.0,1.0,0.0
3203,76.0,80.0,90.0,7.0,0.0
3204,73.0,80.0,90.0,7.0,0.0
3205,67.0,80.0,90.0,7.0,0.0
3206,82.0,0.0,240.0,1.0,0.0
3207,64.0,80.0,90.0,7.0,0.0
3208,46.0,0.0,240.0,8.0,0.0
3209,67.0,80.0,90.0,7.0,0.0
3210,73.0,80.0,90.0,7.0,0.0
3211,45.0,0.0,240.0,8.0,0.0
3212,76.0,80.0,90.0,7.0,0.0
3213,81.0,80.0,240.0,1.0,0.0
3214,73.0,80.0,90.0,7.0,0.0
3215,67.0,0.0,90.0,7.0,0.0
3216,82.0,80.0,240.0,1.0,0.0
3217,46.0,0.0,240.0,8.0,0.0
3218,64.0,80.0,90.0,7.0,0.0
3219,67.0,80.0,90.0,7.0,0.0
3220,73.0,0.0,90.0,7.0,0.0
3221,45.0,80.0,240.0,8.0,0.0
3222,81.0,0.0,240.0,1.0,0.0
3223,76.0,80.0,90.0,7.0,0.0
3224,73.0,80.0,90.0,7.0,0.0
3225,67.0,0.0,90.0,7.0,0.0
3226,64.0,16.0,90.0,7.0,0.0
3227,82.0,0.0,240.0,1.0,0.0
3228,46.0,80.0,240.0,8.0,0.0
3229,67.0,80.0,90.0,7.0,0.0
3230,73.0,0.0,90.0,7.0,0.0
3231,76.0,80.0,90.0,7.0,0.0
3232,81.0,0.0,240.0,1.0,0.0
3233,45.0,64.0,240.0,8.0,0.0
3234,73.0,42.0,90.0,7.0,0.0
3235,67.0,0.0,90.0,7.0,0.0
3236,86.0,80.0,7200.0,1.0,0.0
3237,62.0,80.0,390.0,2.0,0.0
3238,66.0,80.0,60.0,7.0,0.0
3239,66.0,64.0,480.0,1.0,0.0
3240,90.0,0.0,3840.0,0.0,0.0
3241,50.0,32.0,180.0,8.0,0.0
3242,57.0,0.0,480.0,3.0,0.0
3243,50.0,10.0,480.0,3.0,0.0
3244,64.0,48.0,60.0,7.0,0.0
3245,62.0,80.0,60.0,7.0,0.0
3246,66.0,32.0,60.0,7.0,0.0
3247,93.0,48.0,90.0,6.0,0.0
3248,64.0,0.0,60.0,7.0,0.0
3249,62.0,6.0,60.0,7.0,0.0
3250,62.0,0.0,3330.0,3.0,0.0
3251,90.0,48.0,90.0,6.0,0.0
3252,66.0,38.0,3330.0,3.0,0.0
3253,62.0,64.0,1440.0,2.0,0.0
3254,50.0,0.0,1440.0,2.0,0.0
3255,66.0,32.0,60.0,7.0,0.0
3256,81.0,0.0,3360.0,1.0,0.0
3257,64.0,80.0,60.0,7.0,0.0
3258,62.0,80.0,60.0,7.0,0.0
3259,66.0,32.0,60.0,7.0,0.0
3260,86.0,48.0,90.0,6.0,0.0
3261,64.0,80.0,60.0,7.0,0.0
3262,62.0,80.0,60.0,7.0,0.0
3263,66.0,32.0,60.0,7.0,0.0
3264,81.0,48.0,90.0,6.0,0.0
3265,64.0,80.0,60.0,7.0,0.0
3266,62.0,80.0,60.0,7.0,0.0
3267,78.0,48.0,90.0,6.0,0.0
3268,66.0,32.0,60.0,7.0,0.0
3269,64.0,80.0,60.0,7.0,0.0
3270,62.0,80.0,60.0,7.0,0.0
3271,66.0,32.0,60.0,7.0,0.0
3272,74.0,48.0,90.0,6.0,0.0
3273,64.0,80.0,60.0,7.0,0.0
3274,62.0,80.0,60.0,7.0,0.0
3275,69.0,48.0,90.0,6.0,0.0
3276,66.0,32.0,60.0,7.0,0.0
3277,64.0,80.0,60.0,7.0,0.0
3278,62.0,16.0,60.0,7.0,0.0
3279,60.0,64.0,90.0,8.0,0.0
3280,66.0,32.0,60.0,7.0,0.0
3281,48.0,80.0,1920.0,2.0,0.0
3282,60.0,0.0,1920.0,2.0,0.0
3283,64.0,80.0,90.0,7.0,0.0
3284,62.0,80.0,90.0,7.0,0.0
3285,57.0,64.0,90.0,8.0,0.0
3286,66.0,16.0,90.0,7.0,0.0
3287,64.0,80.0,90.0,7.0,0.0
3288,62.0,80.0,90.0,7.0,0.0
3289,54.0,64.0,90.0,8.0,0.0
3290,66.0,16.0,90.0,7.0,0.0
3291,64.0,80.0,90.0,7.0,0.0
3292,62.0,80.0,90.0,7.0,0.0
3293,50.0,64.0,90.0,8.0,0.0
3294,66.0,16.0,90.0,7.0,0.0
3295,64.0,80.0,90.0,7.0,0.0
3296,62.0,80.0,90.0,7.0,0.0
3297,48.0,64.0,90.0,8.0,0.0
3298,66.0,16.0,90.0,7.0,0.0
3299,64.0,80.0,90.0,7.0,0.0
3300,62.0,80.0,90.0,7.0,0.0
3301,45.0,64.0,90.0,8.0,0.0
3302,66.0,16.0,90.0,7.0,0.0
3303,64.0,80.0,90.0,7.0,0.0
3304,62.0,80.0,90.0,7.0,0.0
3305,66.0,16.0,90.0,7.0,0.0
3306,42.0,64.0,90.0,8.0,0.0
3307,64.0,80.0,90.0,7.0,0.0
3308,62.0,80.0,90.0,7.0,0.0
3309,36.0,64.0,90.0,8.0,0.0
3310,66.0,16.0,90.0,7.0,0.0
3311,64.0,42.0,90.0,7.0,0.0
3312,62.0,0.0,90.0,7.0,0.0
3313,67.0,80.0,90.0,7.0,0.0
3314,47.0,0.0,1920.0,2.0,0.0
3315,62.0,0.0,2850.0,3.0,0.0
3316,91.0,80.0,1920.0,0.0,0.0
3317,79.0,0.0,1920.0,1.0,0.0
3318,50.0,0.0,2850.0,3.0,0.0
3319,35.0,48.0,180.0,8.0,0.0
3320,59.0,0.0,1920.0,2.0,0.0
3321,62.0,32.0,90.0,7.0,0.0
3322,59.0,80.0,90.0,7.0,0.0
3323,91.0,64.0,90.0,6.0,0.0
3324,67.0,16.0,90.0,7.0,0.0
3325,62.0,80.0,90.0,7.0,0.0
3326,59.0,80.0,90.0,7.0,0.0
3327,67.0,16.0,90.0,7.0,0.0
3328,86.0,64.0,90.0,6.0,0.0
3329,62.0,80.0,90.0,7.0,0.0
3330,59.0,80.0,90.0,7.0,0.0
3331,83.0,64.0,90.0,6.0,0.0
3332,67.0,16.0,90.0,7.0,0.0
3333,62.0,80.0,90.0,7.0,0.0
3334,59.0,80.0,90.0,7.0,0.0
3335,62.0,16.0,90.0,7.0,0.0
3336,79.0,64.0,90.0,6.0,0.0
3337,59.0,80.0,90.0,7.0,0.0
3338,55.0,80.0,90.0,7.0,0.0
3339,74.0,64.0,90.0,6.0,0.0
3340,62.0,16.0,90.0,7.0,0.0
3341,59.0,80.0,90.0,7.0,0.0
3342,55.0,80.0,90.0,7.0,0.0
3343,62.0,16.0,90.0,7.0,0.0
3344,71.0,64.0,90.0,6.0,0.0
3345,59.0,80.0,90.0,7.0,0.0
3346,55.0,80.0,90.0,7.0,0.0
3347,67.0,64.0,90.0,6.0,0.0
3348,62.0,16.0,90.0,7.0,0.0
3349,59.0,80.0,90.0,7.0,0.0
3350,55.0,0.0,90.0,7.0,0.0
3351,56.0,0.0,930.0,2.0,0.0
3352,65.0,16.0,90.0,7.0,0.0
3353,44.0,20.0,930.0,2.0,0.0
3354,56.0,64.0,90.0,8.0,0.0
3355,83.0,80.0,960.0,1.0,0.0
3356,89.0,0.0,960.0,0.0,0.0
3357,62.0,80.0,90.0,7.0,0.0
3358,59.0,80.0,90.0,7.0,0.0
3359,50.0,64.0,90.0,8.0,0.0
3360,65.0,16.0,90.0,7.0,0.0
3361,62.0,80.0,90.0,7.0,0.0
3362,59.0,80.0,90.0,7.0,0.0
3363,47.0,64.0,90.0,8.0,0.0
3364,65.0,16.0,90.0,7.0,0.0
3365,62.0,80.0,90.0,7.0,0.0
3366,59.0,80.0,90.0,7.0,0.0
3367,65.0,16.0,90.0,7.0,0.0
3368,44.0,64.0,90.0,8.0,0.0
3369,62.0,60.0,90.0,7.0,0.0
3370,59.0,0.0,90.0,7.0,0.0
3371,88.0,0.0,960.0,0.0,0.0
3372,45.0,20.0,930.0,2.0,0.0
3373,57.0,0.0,930.0,2.0,0.0
3374,57.0,0.0,930.0,3.0,0.0
3375,45.0,0.0,930.0,3.0,0.0
3376,64.0,16.0,90.0,7.0,0.0
3377,45.0,64.0,90.0,8.0,0.0
3378,81.0,0.0,480.0,1.0,0.0
3379,62.0,80.0,90.0,7.0,0.0
3380,57.0,80.0,90.0,7.0,0.0
3381,64.0,16.0,90.0,7.0,0.0
3382,43.0,64.0,90.0,8.0,0.0
3383,62.0,80.0,90.0,7.0,0.0
3384,57.0,0.0,90.0,7.0,0.0
3385,64.0,16.0,90.0,7.0,0.0
3386,85.0,0.0,480.0,1.0,0.0
3387,79.0,80.0,480.0,1.0,0.0
3388,45.0,64.0,90.0,8.0,0.0
3389,61.0,80.0,90.0,7.0,0.0
3390,55.0,80.0,90.0,7.0,0.0
3391,64.0,16.0,90.0,7.0,0.0
3392,33.0,64.0,90.0,8.0,0.0
3393,61.0,60.0,90.0,7.0,0.0
3394,55.0,0.0,90.0,7.0,0.0
3395,86.0,16.0,390.0,1.0,0.0
3396,86.0,0.0,240.0,0.0,0.0
3397,78.0,0.0,390.0,1.0,0.0
3398,62.0,80.0,90.0,7.0,0.0
3399,62.0,0.0,960.0,2.0,0.0
3400,50.0,80.0,960.0,2.0,0.0
3401,57.0,0.0,390.0,3.0,0.0
3402,50.0,0.0,390.0,3.0,0.0
3403,50.0,0.0,930.0,8.0,0.0
3404,38.0,20.0,930.0,8.0,0.0
3405,57.0,80.0,90.0,7.0,0.0
3406,54.0,80.0,90.0,7.0,0.0
3407,81.0,80.0,240.0,0.0,0.0
3408,66.0,64.0,90.0,7.0,0.0
3409,62.0,80.0,90.0,7.0,0.0
3410,57.0,0.0,90.0,7.0,0.0
3411,69.0,0.0,480.0,1.0,0.0
3412,69.0,80.0,90.0,7.0,0.0
3413,90.0,80.0,240.0,0.0,0.0
3414,74.0,0.0,480.0,1.0,0.0
3415,66.0,80.0,90.0,7.0,0.0
3416,62.0,0.0,90.0,7.0,0.0
3417,74.0,80.0,90.0,7.0,0.0
3418,86.0,0.0,240.0,0.0,0.0
3419,69.0,60.0,90.0,7.0,0.0
3420,66.0,0.0,90.0,7.0,0.0
3421,49.0,20.0,930.0,8.0,0.0
3422,49.0,0.0,960.0,2.0,0.0
3423,61.0,192.0,960.0,2.0,0.0
3424,70.0,0.0,480.0,1.0,0.0
3425,76.0,80.0,90.0,7.0,0.0
3426,91.0,80.0,240.0,0.0,0.0
3427,76.0,0.0,240.0,1.0,0.0
3428,37.0,0.0,930.0,8.0,0.0
3429,70.0,80.0,90.0,7.0,0.0
3430,64.0,0.0,90.0,7.0,0.0
3431,88.0,80.0,240.0,0.0,0.0
3432,79.0,0.0,240.0,1.0,0.0
3433,82.0,80.0,90.0,7.0,0.0
3434,76.0,80.0,90.0,7.0,0.0
3435,73.0,0.0,90.0,7.0,0.0
3436,85.0,80.0,90.0,7.0,0.0
3437,78.0,80.0,240.0,1.0,0.0
3438,85.0,0.0,240.0,0.0,0.0
3439,82.0,80.0,90.0,7.0,0.0
3440,76.0,0.0,90.0,7.0,0.0
3441,76.0,0.0,240.0,1.0,0.0
3442,88.0,80.0,90.0,7.0,0.0
3443,82.0,0.0,240.0,0.0,0.0
3444,82.0,60.0,90.0,7.0,0.0
3445,76.0,0.0,90.0,7.0,0.0
3446,47.0,0.0,390.0,14.0,0.0
3447,59.0,0.0,390.0,13.0,0.0
3448,74.0,0.0,390.0,1.0,0.0
3449,54.0,0.0,390.0,3.0,0.0
3450,50.0,0.0,390.0,3.0,0.0
3451,83.0,0.0,390.0,0.0,0.0
3452,35.0,0.0,180.0,8.0,0.0
3453,66.0,0.0,15.0,1.0,0.0
3454,71.0,0.0,390.0,12.0,0.0
3455,59.0,0.0,390.0,12.0,0.0
3456,47.0,48.0,180.0,8.0,0.0
3457,83.0,0.0,240.0,7.0,0.0
3458,74.0,0.0,390.0,10.0,0.0
3459,83.0,0.0,390.0,10.0,0.0
3460,74.0,0.0,390.0,11.0,0.0
3461,59.0,0.0,390.0,10.0,0.0
3462,59.0,0.0,390.0,11.0,0.0
3463,66.0,16.0,390.0,11.0,0.0
3464,86.0,0.0,240.0,7.0,0.0
3465,78.0,144.0,240.0,7.0,0.0
3466,47.0,0.0,390.0,2.0,0.0
3467,59.0,0.0,390.0,2.0,0.0
3468,83.0,0.0,390.0,11.0,0.0
3469,66.0,0.0,390.0,10.0,0.0
3470,59.0,48.0,180.0,8.0,0.0
3471,70.0,32.0,90.0,7.0,0.0
3472,71.0,160.0,90.0,7.0,0.0
3473,62.0,48.0,180.0,8.0,0.0
3474,73.0,32.0,90.0,7.0,0.0
3475,74.0,160.0,90.0,7.0,0.0
3476,66.0,48.0,180.0,8.0,0.0
3477,77.0,32.0,90.0,7.0,0.0
3478,78.0,160.0,90.0,7.0,0.0
3479,71.0,48.0,180.0,6.0,0.0
3480,82.0,32.0,90.0,7.0,0.0
3481,83.0,160.0,90.0,7.0,0.0
3482,71.0,48.0,180.0,6.0,0.0
3483,78.0,32.0,90.0,7.0,0.0
3484,86.0,160.0,90.0,7.0,0.0
3485,70.0,48.0,180.0,6.0,0.0
3486,76.0,32.0,90.0,7.0,0.0
3487,85.0,160.0,90.0,7.0,0.0
3488,71.0,48.0,180.0,6.0,0.0
3489,74.0,32.0,90.0,7.0,0.0
3490,83.0,160.0,90.0,7.0,0.0
3491,76.0,160.0,720.0,1.0,0.0
3492,85.0,0.0,1200.0,0.0,0.0
3493,82.0,160.0,1200.0,1.0,0.0
3494,66.0,48.0,180.0,6.0,0.0
3495,73.0,32.0,90.0,7.0,0.0
3496,82.0,160.0,90.0,7.0,0.0
3497,54.0,0.0,210.0,2.0,0.0
3498,66.0,32.0,210.0,2.0,0.0
3499,66.0,4.0,240.0,8.0,0.0
3500,54.0,0.0,240.0,8.0,0.0
3501,70.0,44.0,90.0,7.0,0.0
3502,73.0,160.0,90.0,7.0,0.0
3503,67.0,0.0,210.0,2.0,0.0
3504,55.0,0.0,240.0,8.0,0.0
3505,55.0,32.0,210.0,2.0,0.0
3506,67.0,4.0,240.0,8.0,0.0
3507,70.0,44.0,90.0,7.0,0.0
3508,73.0,0.0,90.0,7.0,0.0
3509,54.0,0.0,240.0,8.0,0.0
3510,66.0,4.0,240.0,8.0,0.0
3511,78.0,0.0,240.0,1.0,0.0
3512,54.0,0.0,210.0,2.0,0.0
3513,66.0,32.0,210.0,2.0,0.0
3514,70.0,44.0,90.0,7.0,0.0
3515,73.0,160.0,90.0,7.0,0.0
3516,79.0,0.0,240.0,1.0,0.0
3517,52.0,0.0,240.0,8.0,0.0
3518,52.0,0.0,210.0,2.0,0.0
3519,64.0,4.0,240.0,8.0,0.0
3520,64.0,32.0,210.0,2.0,0.0
3521,70.0,44.0,90.0,7.0,0.0
3522,73.0,0.0,90.0,7.0,0.0
3523,50.0,4.0,240.0,8.0,0.0
3524,62.0,0.0,240.0,8.0,0.0
3525,78.0,160.0,240.0,1.0,0.0
3526,62.0,32.0,210.0,2.0,0.0
3527,50.0,0.0,210.0,2.0,0.0
3528,83.0,0.0,240.0,1.0,0.0
3529,86.0,0.0,240.0,0.0,0.0
3530,71.0,44.0,90.0,7.0,0.0
3531,74.0,0.0,90.0,7.0,0.0
3532,49.0,32.0,210.0,2.0,0.0
3533,61.0,0.0,210.0,2.0,0.0
3534,85.0,0.0,240.0,1.0,0.0
3535,61.0,4.0,240.0,8.0,0.0
3536,88.0,0.0,240.0,0.0,0.0
3537,76.0,160.0,240.0,1.0,0.0
3538,49.0,0.0,240.0,8.0,0.0
3539,73.0,44.0,90.0,7.0,0.0
3540,76.0,0.0,90.0,7.0,0.0
3541,47.0,32.0,210.0,2.0,0.0
3542,90.0,0.0,240.0,0.0,0.0
3543,59.0,0.0,240.0,8.0,0.0
3544,47.0,4.0,240.0,8.0,0.0
3545,86.0,0.0,240.0,1.0,0.0
3546,59.0,0.0,210.0,2.0,0.0
3547,74.0,0.0,240.0,1.0,0.0
3548,74.0,44.0,90.0,7.0,0.0
3549,78.0,80.0,90.0,7.0,0.0
3550,91.0,0.0,960.0,0.0,0.0
3551,73.0,80.0,960.0,1.0,0.0
3552,88.0,0.0,960.0,1.0,0.0
3553,70.0,80.0,90.0,7.0,0.0
3554,46.0,0.0,180.0,8.0,0.0
3555,58.0,48.0,180.0,8.0,0.0
3556,58.0,0.0,960.0,2.0,0.0
3557,46.0,16.0,390.0,2.0,0.0
3558,73.0,32.0,90.0,7.0,0.0
3559,76.0,80.0,90.0,7.0,0.0
3560,79.0,64.0,90.0,7.0,0.0
3561,88.0,48.0,180.0,6.0,0.0
3562,76.0,32.0,90.0,7.0,0.0
3563,73.0,80.0,90.0,7.0,0.0
3564,91.0,48.0,180.0,6.0,0.0
3565,70.0,80.0,90.0,7.0,0.0
3566,73.0,32.0,90.0,7.0,0.0
3567,76.0,80.0,90.0,7.0,0.0
3568,88.0,48.0,180.0,6.0,0.0
3569,79.0,80.0,90.0,7.0,0.0
3570,76.0,32.0,90.0,7.0,0.0
3571,73.0,0.0,90.0,7.0,0.0
3572,90.0,80.0,480.0,0.0,0.0
3573,70.0,80.0,90.0,7.0,0.0
3574,70.0,80.0,960.0,2.0,0.0
3575,85.0,48.0,180.0,6.0,0.0
3576,85.0,0.0,960.0,1.0,0.0
3577,73.0,32.0,90.0,7.0,0.0
3578,76.0,80.0,90.0,7.0,0.0
3579,82.0,48.0,180.0,6.0,0.0
3580,78.0,80.0,90.0,7.0,0.0
3581,76.0,32.0,90.0,7.0,0.0
3582,73.0,0.0,90.0,7.0,0.0
3583,90.0,48.0,180.0,6.0,0.0
3584,70.0,80.0,90.0,7.0,0.0
3585,88.0,0.0,480.0,0.0,0.0
3586,73.0,32.0,90.0,7.0,0.0
3587,76.0,80.0,90.0,7.0,0.0
3588,85.0,48.0,180.0,6.0,0.0
3589,78.0,80.0,90.0,7.0,0.0
3590,76.0,32.0,90.0,7.0,0.0
3591,73.0,0.0,90.0,7.0,0.0
3592,78.0,0.0,15.0,1.0,0.0
3593,81.0,0.0,390.0,1.0,0.0
3594,87.0,0.0,390.0,0.0,0.0
3595,66.0,64.0,90.0,7.0,0.0
3596,87.0,48.0,180.0,6.0,0.0
3597,71.0,16.0,150.0,2.0,0.0
3598,69.0,32.0,90.0,7.0,0.0
3599,75.0,144.0,90.0,7.0,0.0
3600,59.0,36.0,210.0,2.0,0.0
3601,47.0,0.0,210.0,2.0,0.0
3602,59.0,12.0,180.0,8.0,0.0
3603,47.0,0.0,180.0,8.0,0.0
3604,63.0,32.0,90.0,7.0,0.0
3605,66.0,160.0,90.0,7.0,0.0
3606,60.0,36.0,210.0,2.0,0.0
3607,78.0,0.0,720.0,0.0,0.0
3608,69.0,160.0,240.0,1.0,0.0
3609,75.0,0.0,720.0,1.0,0.0
3610,48.0,12.0,180.0,8.0,0.0
3611,60.0,0.0,180.0,8.0,0.0
3612,48.0,0.0,210.0,2.0,0.0
3613,63.0,32.0,90.0,7.0,0.0
3614,66.0,0.0,90.0,7.0,0.0
3615,47.0,36.0,210.0,2.0,0.0
3616,59.0,0.0,210.0,2.0,0.0
3617,71.0,0.0,240.0,1.0,0.0
3618,47.0,0.0,180.0,8.0,0.0
3619,59.0,12.0,180.0,8.0,0.0
3620,63.0,32.0,90.0,7.0,0.0
3621,66.0,160.0,90.0,7.0,0.0
3622,72.0,160.0,240.0,1.0,0.0
3623,45.0,36.0,210.0,2.0,0.0
3624,45.0,12.0,180.0,8.0,0.0
3625,57.0,0.0,180.0,8.0,0.0
3626,57.0,0.0,210.0,2.0,0.0
3627,63.0,32.0,90.0,7.0,0.0
3628,66.0,0.0,90.0,7.0,0.0
3629,43.0,36.0,210.0,2.0,0.0
3630,55.0,0.0,210.0,2.0,0.0
3631,79.0,160.0,240.0,0.0,0.0
3632,55.0,0.0,180.0,8.0,0.0
3633,71.0,0.0,240.0,1.0,0.0
3634,43.0,12.0,180.0,8.0,0.0
3635,76.0,0.0,240.0,1.0,0.0
3636,64.0,32.0,90.0,7.0,0.0
3637,67.0,0.0,90.0,7.0,0.0
3638,81.0,160.0,240.0,0.0,0.0
3639,78.0,0.0,240.0,1.0,0.0
3640,42.0,0.0,210.0,2.0,0.0
3641,69.0,0.0,240.0,1.0,0.0
3642,54.0,36.0,210.0,2.0,0.0
3643,42.0,12.0,180.0,8.0,0.0
3644,54.0,0.0,180.0,8.0,0.0
3645,66.0,32.0,90.0,7.0,0.0
3646,69.0,0.0,90.0,7.0,0.0
3647,79.0,0.0,240.0,1.0,0.0
3648,40.0,0.0,210.0,2.0,0.0
3649,52.0,36.0,210.0,2.0,0.0
3650,67.0,0.0,240.0,1.0,0.0
3651,83.0,0.0,240.0,0.0,0.0
3652,52.0,0.0,180.0,8.0,0.0
3653,40.0,12.0,180.0,8.0,0.0
3654,67.0,32.0,90.0,7.0,0.0
3655,71.0,80.0,90.0,7.0,0.0
3656,51.0,48.0,180.0,8.0,0.0
3657,39.0,0.0,180.0,8.0,0.0
3658,84.0,0.0,360.0,0.0,0.0
3659,66.0,0.0,360.0,1.0,0.0
3660,51.0,40.0,360.0,2.0,0.0
3661,63.0,80.0,90.0,7.0,0.0
3662,39.0,0.0,360.0,2.0,0.0
3663,81.0,0.0,360.0,1.0,0.0
3664,66.0,32.0,90.0,7.0,0.0
3665,69.0,80.0,90.0,7.0,0.0
3666,72.0,40.0,90.0,7.0,0.0
3667,78.0,48.0,180.0,6.0,0.0
3668,69.0,32.0,90.0,7.0,0.0
3669,66.0,80.0,90.0,7.0,0.0
3670,78.0,80.0,720.0,1.0,0.0
3671,71.0,80.0,960.0,1.0,0.0
3672,63.0,80.0,480.0,2.0,0.0
3673,83.0,0.0,240.0,0.0,0.0
3674,83.0,48.0,180.0,6.0,0.0
3675,63.0,80.0,90.0,7.0,0.0
3676,66.0,32.0,90.0,7.0,0.0
3677,69.0,80.0,90.0,7.0,0.0
3678,81.0,0.0,240.0,0.0,0.0
3679,81.0,48.0,180.0,6.0,0.0
3680,72.0,80.0,90.0,7.0,0.0
3681,69.0,32.0,90.0,7.0,0.0
3682,66.0,0.0,90.0,7.0,0.0
3683,79.0,48.0,180.0,6.0,0.0
3684,59.0,80.0,90.0,7.0,0.0
3685,64.0,0.0,480.0,2.0,0.0
3686,79.0,0.0,390.0,0.0,0.0
3687,64.0,32.0,90.0,7.0,0.0
3688,67.0,0.0,90.0,7.0,0.0
3689,40.0,0.0,180.0,8.0,0.0
3690,75.0,0.0,240.0,1.0,0.0
3691,71.0,64.0,90.0,7.0,0.0
3692,52.0,48.0,180.0,8.0,0.0
3693,52.0,16.0,150.0,2.0,0.0
3694,67.0,32.0,90.0,7.0,0.0
3695,64.0,0.0,90.0,7.0,0.0
3696,70.0,64.0,90.0,7.0,0.0
3697,76.0,0.0,840.0,1.0,0.0
3698,60.0,0.0,240.0,2.0,0.0
3699,91.0,0.0,840.0,0.0,0.0
3700,48.0,0.0,180.0,8.0,0.0
3701,36.0,48.0,180.0,8.0,0.0
3702,48.0,16.0,150.0,2.0,0.0
3703,70.0,0.0,240.0,1.0,0.0
3704,67.0,32.0,90.0,7.0,0.0
3705,64.0,80.0,90.0,7.0,0.0
3706,59.0,0.0,240.0,2.0,0.0
3707,71.0,64.0,240.0,1.0,0.0
3708,35.0,48.0,180.0,8.0,0.0
3709,47.0,0.0,180.0,8.0,0.0
3710,71.0,64.0,90.0,7.0,0.0
3711,47.0,16.0,150.0,2.0,0.0
3712,67.0,32.0,90.0,7.0,0.0
3713,64.0,0.0,90.0,7.0,0.0
3714,46.0,32.0,180.0,8.0,0.0
3715,34.0,0.0,180.0,8.0,0.0
3716,46.0,24.0,360.0,2.0,0.0
3717,58.0,0.0,360.0,2.0,0.0
3718,73.0,0.0,360.0,1.0,0.0
3719,64.0,80.0,60.0,7.0,0.0
3720,66.0,48.0,60.0,7.0,0.0
3721,70.0,80.0,60.0,7.0,0.0
3722,85.0,32.0,180.0,6.0,0.0
3723,73.0,56.0,60.0,7.0,0.0
3724,70.0,48.0,60.0,7.0,0.0
3725,66.0,80.0,60.0,7.0,0.0
3726,64.0,80.0,60.0,7.0,0.0
3727,90.0,64.0,240.0,0.0,0.0
3728,85.0,64.0,720.0,1.0,0.0
3729,90.0,32.0,180.0,6.0,0.0
3730,78.0,0.0,960.0,1.0,0.0
3731,70.0,64.0,480.0,2.0,0.0
3732,66.0,48.0,60.0,7.0,0.0
3733,70.0,16.0,60.0,7.0,0.0
3734,88.0,32.0,180.0,6.0,0.0
3735,73.0,80.0,60.0,7.0,0.0
3736,88.0,0.0,240.0,0.0,0.0
3737,70.0,48.0,60.0,7.0,0.0
3738,66.0,16.0,60.0,7.0,0.0
3739,86.0,32.0,180.0,6.0,0.0
3740,86.0,64.0,960.0,0.0,0.0
3741,62.0,80.0,60.0,7.0,0.0
3742,71.0,64.0,480.0,2.0,0.0
3743,66.0,48.0,60.0,7.0,0.0
3744,71.0,16.0,60.0,7.0,0.0
3745,47.0,0.0,180.0,8.0,0.0
3746,59.0,48.0,150.0,2.0,0.0
3747,59.0,32.0,180.0,8.0,0.0
3748,82.0,0.0,240.0,1.0,0.0
3749,74.0,80.0,60.0,7.0,0.0
3750,71.0,0.0,60.0,7.0,0.0
3751,66.0,16.0,60.0,7.0,0.0
3752,83.0,0.0,1410.0,1.0,0.0
3753,55.0,48.0,150.0,2.0,0.0
3754,74.0,80.0,60.0,7.0,0.0
3755,43.0,0.0,180.0,8.0,0.0
3756,55.0,32.0,180.0,8.0,0.0
3757,77.0,0.0,240.0,1.0,0.0
3758,67.0,64.0,240.0,2.0,0.0
3759,71.0,0.0,60.0,7.0,0.0
3760,67.0,16.0,60.0,7.0,0.0
3761,74.0,80.0,60.0,7.0,0.0
3762,65.0,0.0,240.0,2.0,0.0
3763,53.0,32.0,180.0,8.0,0.0
3764,41.0,0.0,180.0,8.0,0.0
3765,53.0,0.0,150.0,2.0,0.0
3766,80.0,0.0,240.0,1.0,0.0
3767,71.0,48.0,60.0,7.0,0.0
3768,68.0,16.0,60.0,7.0,0.0
3769,42.0,0.0,180.0,8.0,0.0
3770,66.0,0.0,930.0,2.0,0.0
3771,54.0,32.0,180.0,8.0,0.0
3772,74.0,0.0,930.0,1.0,0.0
3773,54.0,0.0,930.0,2.0,0.0
3774,90.0,4.0,930.0,0.0,0.0
3775,66.0,80.0,60.0,7.0,0.0
3776,71.0,48.0,60.0,7.0,0.0
3777,74.0,80.0,60.0,7.0,0.0
3778,83.0,32.0,180.0,6.0,0.0
3779,78.0,80.0,60.0,7.0,0.0
3780,74.0,48.0,60.0,7.0,0.0
3781,71.0,80.0,60.0,7.0,0.0
3782,90.0,64.0,240.0,6.0,0.0
3783,66.0,80.0,60.0,7.0,0.0
3784,71.0,80.0,60.0,7.0,0.0
3785,74.0,16.0,60.0,7.0,0.0
3786,78.0,80.0,60.0,7.0,0.0
3787,86.0,28.0,180.0,6.0,0.0
3788,74.0,48.0,60.0,7.0,0.0
3789,71.0,80.0,60.0,7.0,0.0
3790,73.0,0.0,930.0,1.0,0.0
3791,94.0,0.0,930.0,0.0,0.0
3792,42.0,32.0,180.0,8.0,0.0
3793,42.0,0.0,930.0,2.0,0.0
3794,76.0,0.0,930.0,1.0,0.0
3795,66.0,80.0,60.0,7.0,0.0
3796,54.0,0.0,180.0,8.0,0.0
3797,54.0,4.0,930.0,2.0,0.0
3798,70.0,48.0,60.0,7.0,0.0
3799,73.0,80.0,60.0,7.0,0.0
3800,82.0,32.0,180.0,6.0,0.0
3801,76.0,80.0,60.0,7.0,0.0
3802,73.0,48.0,60.0,7.0,0.0
3803,70.0,80.0,60.0,7.0,0.0
3804,88.0,64.0,240.0,6.0,0.0
3805,66.0,80.0,60.0,7.0,0.0
3806,70.0,80.0,60.0,7.0,0.0
3807,73.0,16.0,60.0,7.0,0.0
3808,76.0,80.0,60.0,7.0,0.0
3809,85.0,28.0,180.0,6.0,0.0
3810,73.0,48.0,60.0,7.0,0.0
3811,70.0,208.0,60.0,7.0,0.0
3812,47.0,0.0,390.0,2.0,0.0
3813,83.0,48.0,180.0,6.0,0.0
3814,59.0,0.0,390.0,2.0,0.0
3815,71.0,144.0,240.0,7.0,0.0
3816,71.0,0.0,390.0,1.0,0.0
3817,95.0,0.0,390.0,0.0,0.0
3818,74.0,16.0,390.0,1.0,0.0
3819,47.0,48.0,180.0,8.0,0.0
3820,58.0,32.0,90.0,7.0,0.0
3821,59.0,160.0,90.0,7.0,0.0
3822,50.0,48.0,180.0,8.0,0.0
3823,61.0,32.0,90.0,7.0,0.0
3824,62.0,160.0,90.0,7.0,0.0
3825,54.0,48.0,180.0,8.0,0.0
3826,65.0,32.0,90.0,7.0,0.0
3827,66.0,160.0,90.0,7.0,0.0
3828,59.0,48.0,180.0,8.0,0.0
3829,70.0,32.0,90.0,7.0,0.0
3830,71.0,160.0,90.0,7.0,0.0
3831,62.0,48.0,180.0,8.0,0.0
3832,73.0,32.0,90.0,7.0,0.0
3833,74.0,160.0,90.0,7.0,0.0
3834,66.0,48.0,180.0,8.0,0.0
3835,77.0,32.0,90.0,7.0,0.0
3836,78.0,160.0,90.0,7.0,0.0
3837,71.0,48.0,180.0,8.0,0.0
3838,82.0,32.0,90.0,7.0,0.0
3839,83.0,192.0,90.0,7.0,0.0
3840,38.0,0.0,390.0,14.0,0.0
3841,62.0,0.0,390.0,12.0,0.0
3842,62.0,0.0,180.0,6.0,0.0
3843,66.0,0.0,390.0,11.0,0.0
3844,74.0,192.0,180.0,7.0,0.0
3845,66.0,0.0,180.0,7.0,0.0
3846,69.0,0.0,180.0,7.0,0.0
3847,86.0,0.0,390.0,10.0,0.0
3848,69.0,0.0,390.0,10.0,0.0
3849,81.0,0.0,390.0,11.0,0.0
3850,78.0,0.0,390.0,10.0,0.0
3851,50.0,0.0,390.0,13.0,0.0
3852,74.0,0.0,390.0,11.0,0.0
3853,74.0,32.0,180.0,6.0,0.0
3854,85.0,48.0,60.0,7.0,0.0
3855,86.0,160.0,60.0,7.0,0.0
3856,69.0,32.0,180.0,6.0,0.0
3857,80.0,48.0,60.0,7.0,0.0
3858,81.0,160.0,60.0,7.0,0.0
3859,66.0,32.0,180.0,6.0,0.0
3860,77.0,48.0,60.0,7.0,0.0
3861,78.0,160.0,60.0,7.0,0.0
3862,62.0,32.0,180.0,8.0,0.0
3863,73.0,48.0,60.0,7.0,0.0
3864,74.0,160.0,60.0,7.0,0.0
3865,57.0,32.0,180.0,8.0,0.0
3866,68.0,48.0,60.0,7.0,0.0
3867,69.0,160.0,60.0,7.0,0.0
3868,54.0,32.0,180.0,8.0,0.0
3869,65.0,48.0,60.0,7.0,0.0
3870,66.0,160.0,60.0,7.0,0.0
3871,50.0,32.0,180.0,8.0,0.0
3872,61.0,48.0,60.0,7.0,0.0
3873,62.0,96.0,60.0,7.0,0.0
3874,61.0,80.0,90.0,7.0,0.0
3875,45.0,38.0,1890.0,2.0,0.0
3876,57.0,0.0,3810.0,3.0,0.0
3877,45.0,0.0,3810.0,3.0,0.0
3878,64.0,80.0,90.0,7.0,0.0
3879,67.0,80.0,90.0,7.0,0.0
3880,69.0,0.0,240.0,2.0,0.0
3881,73.0,80.0,90.0,7.0,0.0
3882,81.0,0.0,240.0,6.0,0.0
3883,67.0,80.0,90.0,7.0,0.0
3884,64.0,80.0,90.0,7.0,0.0
3885,70.0,80.0,240.0,2.0,0.0
3886,61.0,80.0,90.0,7.0,0.0
3887,82.0,0.0,240.0,6.0,0.0
3888,64.0,80.0,90.0,7.0,0.0
3889,67.0,0.0,90.0,7.0,0.0
3890,81.0,0.0,240.0,6.0,0.0
3891,69.0,0.0,240.0,2.0,0.0
3892,73.0,80.0,90.0,7.0,0.0
3893,67.0,80.0,90.0,7.0,0.0
3894,64.0,80.0,90.0,7.0,0.0
3895,70.0,0.0,240.0,2.0,0.0
3896,82.0,0.0,240.0,6.0,0.0
3897,61.0,80.0,90.0,7.0,0.0
3898,64.0,80.0,90.0,7.0,0.0
3899,67.0,80.0,90.0,7.0,0.0
3900,81.0,0.0,240.0,6.0,0.0
3901,69.0,80.0,240.0,2.0,0.0
3902,73.0,80.0,90.0,7.0,0.0
3903,67.0,80.0,90.0,7.0,0.0
3904,64.0,0.0,90.0,7.0,0.0
3905,61.0,80.0,90.0,7.0,0.0
3906,82.0,0.0,240.0,6.0,0.0
3907,70.0,0.0,240.0,2.0,0.0
3908,64.0,80.0,90.0,7.0,0.0
3909,67.0,80.0,90.0,7.0,0.0
3910,81.0,0.0,240.0,6.0,0.0
3911,69.0,0.0,240.0,2.0,0.0
3912,73.0,80.0,90.0,7.0,0.0
3913,67.0,42.0,90.0,7.0,0.0
3914,67.0,0.0,1920.0,1.0,0.0
3915,61.0,38.0,1890.0,2.0,0.0
3916,64.0,80.0,15.0,7.0,0.0
3917,64.0,0.0,1890.0,2.0,0.0
3918,79.0,48.0,180.0,6.0,0.0
3919,91.0,64.0,1530.0,0.0,0.0
3920,67.0,32.0,90.0,7.0,0.0
3921,73.0,80.0,90.0,7.0,0.0
3922,45.0,80.0,240.0,8.0,0.0
3923,81.0,0.0,240.0,1.0,0.0
3924,76.0,80.0,90.0,7.0,0.0
3925,73.0,80.0,90.0,7.0,0.0
3926,67.0,0.0,90.0,7.0,0.0
3927,82.0,0.0,240.0,1.0,0.0
3928,64.0,80.0,90.0,7.0,0.0
3929,46.0,80.0,240.0,8.0,0.0
3930,67.0,80.0,90.0,7.0,0.0
3931,73.0,0.0,90.0,7.0,0.0
3932,45.0,80.0,240.0,8.0,0.0
3933,76.0,80.0,90.0,7.0,0.0
3934,81.0,0.0,240.0,1.0,0.0
3935,73.0,80.0,90.0,7.0,0.0
3936,67.0,0.0,90.0,7.0,0.0
3937,64.0,80.0,90.0,7.0,0.0
3938,82.0,0.0,240.0,1.0,0.0
3939,46.0,80.0,240.0,8.0,0.0
3940,67.0,80.0,90.0,7.0,0.0
3941,73.0,0.0,90.0,7.0,0.0
3942,76.0,80.0,90.0,7.0,0.0
3943,45.0,0.0,240.0,8.0,0.0
3944,81.0,0.0,240.0,1.0,0.0
3945,73.0,80.0,90.0,7.0,0.0
3946,67.0,80.0,90.0,7.0,0.0
3947,82.0,0.0,240.0,1.0,0.0
3948,64.0,16.0,90.0,7.0,0.0
3949,46.0,0.0,240.0,8.0,0.0
3950,67.0,80.0,90.0,7.0,0.0
3951,73.0,80.0,90.0,7.0,0.0
3952,76.0,80.0,90.0,7.0,0.0
3953,45.0,0.0,240.0,8.0,0.0
3954,81.0,0.0,240.0,1.0,0.0
3955,73.0,42.0,90.0,7.0,0.0
3956,67.0,64.0,90.0,7.0,0.0
3957,50.0,0.0,480.0,3.0,0.0
3958,57.0,10.0,480.0,3.0,0.0
3959,62.0,0.0,390.0,2.0,0.0
3960,50.0,32.0,180.0,8.0,0.0
3961,86.0,0.0,7200.0,1.0,0.0
3962,90.0,0.0,3840.0,0.0,0.0
3963,66.0,64.0,480.0,1.0,0.0
3964,66.0,80.0,60.0,7.0,0.0
3965,64.0,48.0,60.0,7.0,0.0
3966,62.0,80.0,60.0,7.0,0.0
3967,93.0,48.0,90.0,6.0,0.0
3968,66.0,32.0,60.0,7.0,0.0
3969,64.0,80.0,60.0,7.0,0.0
3970,62.0,6.0,60.0,7.0,0.0
3971,66.0,32.0,60.0,7.0,0.0
3972,62.0,38.0,3330.0,3.0,0.0
3973,66.0,0.0,3330.0,3.0,0.0
3974,90.0,48.0,90.0,6.0,0.0
3975,50.0,64.0,1440.0,2.0,0.0
3976,81.0,0.0,3360.0,1.0,0.0
3977,62.0,0.0,1440.0,2.0,0.0
3978,64.0,80.0,60.0,7.0,0.0
3979,62.0,80.0,60.0,7.0,0.0
3980,66.0,32.0,60.0,7.0,0.0
3981,86.0,48.0,90.0,6.0,0.0
3982,64.0,80.0,60.0,7.0,0.0
3983,62.0,80.0,60.0,7.0,0.0
3984,81.0,48.0,90.0,6.0,0.0
3985,66.0,32.0,60.0,7.0,0.0
3986,64.0,80.0,60.0,7.0,0.0
3987,62.0,80.0,60.0,7.0,0.0
3988,66.0,32.0,60.0,7.0,0.0
3989,78.0,48.0,90.0,6.0,0.0
3990,64.0,80.0,60.0,7.0,0.0
3991,62.0,80.0,60.0,7.0,0.0
3992,66.0,32.0,60.0,7.0,0.0
3993,74.0,48.0,90.0,6.0,0.0
3994,64.0,80.0,60.0,7.0,0.0
3995,62.0,80.0,60.0,7.0,0.0
3996,69.0,48.0,90.0,6.0,0.0
3997,66.0,32.0,60.0,7.0,0.0
3998,64.0,80.0,60.0,7.0,0.0
3999,62.0,16.0,60.0,7.0,0.0
4000,60.0,0.0,1920.0,2.0,0.0
4001,48.0,0.0,1920.0,2.0,0.0
4002,60.0,64.0,90.0,8.0,0.0
4003,66.0,32.0,60.0,7.0,0.0
4004,64.0,80.0,90.0,7.0,0.0
4005,62.0,80.0,90.0,7.0,0.0
4006,66.0,16.0,90.0,7.0,0.0
4007,57.0,64.0,90.0,8.0,0.0
4008,64.0,80.0,90.0,7.0,0.0
4009,62.0,80.0,90.0,7.0,0.0
4010,66.0,16.0,90.0,7.0,0.0
4011,54.0,64.0,90.0,8.0,0.0
4012,64.0,80.0,90.0,7.0,0.0
4013,62.0,80.0,90.0,7.0,0.0
4014,50.0,64.0,90.0,8.0,0.0
4015,66.0,16.0,90.0,7.0,0.0
4016,64.0,80.0,90.0,7.0,0.0
4017,62.0,80.0,90.0,7.0,0.0
4018,48.0,64.0,90.0,8.0,0.0
4019,66.0,16.0,90.0,7.0,0.0
4020,64.0,80.0,90.0,7.0,0.0
4021,62.0,80.0,90.0,7.0,0.0
4022,66.0,16.0,90.0,7.0,0.0
4023,45.0,64.0,90.0,8.0,0.0
4024,64.0,80.0,90.0,7.0,0.0
4025,62.0,80.0,90.0,7.0,0.0
4026,42.0,64.0,90.0,8.0,0.0
4027,66.0,16.0,90.0,7.0,0.0
4028,64.0,80.0,90.0,7.0,0.0
4029,62.0,80.0,90.0,7.0,0.0
4030,66.0,16.0,90.0,7.0,0.0
4031,36.0,64.0,90.0,8.0,0.0
4032,64.0,42.0,90.0,7.0,0.0
4033,62.0,80.0,90.0,7.0,0.0
4034,59.0,0.0,1920.0,2.0,0.0
4035,50.0,0.0,2850.0,3.0,0.0
4036,35.0,48.0,180.0,8.0,0.0
4037,91.0,0.0,1920.0,0.0,0.0
4038,79.0,0.0,1920.0,1.0,0.0
4039,62.0,0.0,2850.0,3.0,0.0
4040,67.0,80.0,90.0,7.0,0.0
4041,47.0,80.0,1920.0,2.0,0.0
4042,62.0,32.0,90.0,7.0,0.0
4043,59.0,80.0,90.0,7.0,0.0
4044,67.0,16.0,90.0,7.0,0.0
4045,91.0,64.0,90.0,6.0,0.0
4046,62.0,80.0,90.0,7.0,0.0
4047,59.0,80.0,90.0,7.0,0.0
4048,67.0,16.0,90.0,7.0,0.0
4049,86.0,64.0,90.0,6.0,0.0
4050,62.0,80.0,90.0,7.0,0.0
4051,59.0,80.0,90.0,7.0,0.0
4052,83.0,64.0,90.0,6.0,0.0
4053,67.0,16.0,90.0,7.0,0.0
4054,62.0,80.0,90.0,7.0,0.0
4055,59.0,80.0,90.0,7.0,0.0
4056,62.0,16.0,90.0,7.0,0.0
4057,79.0,64.0,90.0,6.0,0.0
4058,59.0,80.0,90.0,7.0,0.0
4059,55.0,80.0,90.0,7.0,0.0
4060,74.0,64.0,90.0,6.0,0.0
4061,62.0,16.0,90.0,7.0,0.0
4062,59.0,80.0,90.0,7.0,0.0
4063,55.0,80.0,90.0,7.0,0.0
4064,71.0,64.0,90.0,6.0,0.0
4065,62.0,16.0,90.0,7.0,0.0
4066,59.0,80.0,90.0,7.0,0.0
4067,55.0,80.0,90.0,7.0,0.0
4068,67.0,64.0,90.0,6.0,0.0
4069,62.0,16.0,90.0,7.0,0.0
4070,59.0,80.0,90.0,7.0,0.0
4071,55.0,0.0,90.0,7.0,0.0
4072,83.0,0.0,960.0,1.0,0.0
4073,56.0,64.0,90.0,8.0,0.0
4074,56.0,20.0,930.0,2.0,0.0
4075,44.0,0.0,930.0,2.0,0.0
4076,65.0,16.0,90.0,7.0,0.0
4077,89.0,0.0,960.0,0.0,0.0
4078,62.0,80.0,90.0,7.0,0.0
4079,59.0,80.0,90.0,7.0,0.0
4080,65.0,16.0,90.0,7.0,0.0
4081,50.0,64.0,90.0,8.0,0.0
4082,62.0,80.0,90.0,7.0,0.0
4083,59.0,80.0,90.0,7.0,0.0
4084,65.0,16.0,90.0,7.0,0.0
4085,47.0,64.0,90.0,8.0,0.0
4086,62.0,80.0,90.0,7.0,0.0
4087,59.0,80.0,90.0,7.0,0.0
4088,44.0,64.0,90.0,8.0,0.0
4089,65.0,16.0,90.0,7.0,0.0
4090,62.0,60.0,90.0,7.0,0.0
4091,59.0,80.0,90.0,7.0,0.0
4092,81.0,80.0,480.0,1.0,0.0
4093,57.0,0.0,930.0,2.0,0.0
4094,45.0,0.0,930.0,2.0,0.0
4095,88.0,0.0,960.0,0.0,0.0
4096,45.0,20.0,930.0,3.0,0.0
4097,57.0,0.0,930.0,3.0,0.0
4098,45.0,64.0,90.0,8.0,0.0
4099,64.0,16.0,90.0,7.0,0.0
4100,62.0,80.0,90.0,7.0,0.0
4101,57.0,80.0,90.0,7.0,0.0
4102,43.0,64.0,90.0,8.0,0.0
4103,64.0,16.0,90.0,7.0,0.0
4104,62.0,80.0,90.0,7.0,0.0
4105,57.0,0.0,90.0,7.0,0.0
4106,45.0,64.0,90.0,8.0,0.0
4107,85.0,0.0,480.0,1.0,0.0
4108,64.0,16.0,90.0,7.0,0.0
4109,79.0,80.0,480.0,1.0,0.0
4110,61.0,80.0,90.0,7.0,0.0
4111,55.0,80.0,90.0,7.0,0.0
4112,64.0,16.0,90.0,7.0,0.0
4113,33.0,64.0,90.0,8.0,0.0
4114,61.0,60.0,90.0,7.0,0.0
4115,55.0,0.0,90.0,7.0,0.0
4116,62.0,80.0,960.0,2.0,0.0
4117,50.0,0.0,390.0,3.0,0.0
4118,86.0,16.0,390.0,1.0,0.0
4119,50.0,0.0,960.0,2.0,0.0
4120,62.0,80.0,90.0,7.0,0.0
4121,78.0,0.0,390.0,1.0,0.0
4122,86.0,80.0,240.0,0.0,0.0
4123,38.0,20.0,930.0,8.0,0.0
4124,50.0,0.0,930.0,8.0,0.0
4125,57.0,0.0,390.0,3.0,0.0
4126,57.0,80.0,90.0,7.0,0.0
4127,54.0,0.0,90.0,7.0,0.0
4128,66.0,64.0,90.0,7.0,0.0
4129,81.0,80.0,240.0,0.0,0.0
4130,62.0,80.0,90.0,7.0,0.0
4131,57.0,0.0,90.0,7.0,0.0
4132,90.0,80.0,240.0,0.0,0.0
4133,69.0,80.0,90.0,7.0,0.0
4134,74.0,0.0,480.0,1.0,0.0
4135,69.0,0.0,480.0,1.0,0.0
4136,66.0,80.0,90.0,7.0,0.0
4137,62.0,0.0,90.0,7.0,0.0
4138,74.0,80.0,90.0,7.0,0.0
4139,86.0,0.0,240.0,0.0,0.0
4140,69.0,60.0,90.0,7.0,0.0
4141,66.0,0.0,90.0,7.0,0.0
4142,76.0,0.0,240.0,1.0,0.0
4143,91.0,80.0,240.0,0.0,0.0
4144,70.0,0.0,480.0,1.0,0.0
4145,49.0,0.0,930.0,8.0,0.0
4146,37.0,20.0,930.0,8.0,0.0
4147,49.0,0.0,960.0,2.0,0.0
4148,61.0,0.0,960.0,2.0,0.0
4149,76.0,80.0,90.0,7.0,0.0
4150,70.0,80.0,90.0,7.0,0.0
4151,64.0,0.0,90.0,7.0,0.0
4152,82.0,80.0,90.0,7.0,0.0
4153,88.0,0.0,240.0,0.0,0.0
4154,79.0,80.0,240.0,1.0,0.0
4155,76.0,80.0,90.0,7.0,0.0
4156,73.0,0.0,90.0,7.0,0.0
4157,85.0,80.0,90.0,7.0,0.0
4158,66.0,0.0,480.0,1.0,0.0
4159,85.0,0.0,240.0,0.0,0.0
4160,78.0,80.0,240.0,1.0,0.0
4161,82.0,80.0,90.0,7.0,0.0
4162,76.0,0.0,90.0,7.0,0.0
4163,76.0,0.0,240.0,1.0,0.0
4164,82.0,0.0,240.0,0.0,0.0
4165,88.0,80.0,90.0,7.0,0.0
4166,82.0,60.0,90.0,7.0,0.0
4167,76.0,192.0,90.0,7.0,0.0
4168,59.0,0.0,390.0,2.0,0.0
4169,54.0,16.0,390.0,3.0,0.0
4170,50.0,0.0,390.0,3.0,0.0
4171,78.0,0.0,240.0,7.0,0.0
4172,59.0,0.0,390.0,12.0,0.0
4173,47.0,0.0,390.0,2.0,0.0
4174,59.0,0.0,390.0,10.0,0.0
4175,83.0,0.0,390.0,10.0,0.0
4176,74.0,0.0,390.0,10.0,0.0
4177,74.0,0.0,390.0,11.0,0.0
4178,74.0,0.0,390.0,1.0,0.0
4179,66.0,0.0,390.0,11.0,0.0
4180,59.0,0.0,390.0,11.0,0.0
4181,83.0,0.0,390.0,11.0,0.0
4182,66.0,0.0,390.0,1.0,0.0
4183,66.0,0.0,390.0,10.0,0.0
4184,71.0,0.0,390.0,12.0,0.0
4185,86.0,144.0,240.0,7.0,0.0
4186,47.0,0.0,390.0,14.0,0.0
4187,83.0,0.0,390.0,0.0,0.0
4188,59.0,0.0,390.0,13.0,0.0
4189,83.0,0.0,240.0,7.0,0.0
4190,35.0,48.0,180.0,8.0,0.0
4191,47.0,0.0,180.0,8.0,0.0
4192,59.0,48.0,180.0,8.0,0.0
4193,70.0,32.0,90.0,7.0,0.0
4194,71.0,160.0,90.0,7.0,0.0
4195,62.0,48.0,180.0,8.0,0.0
4196,73.0,32.0,90.0,7.0,0.0
4197,74.0,160.0,90.0,7.0,0.0
4198,66.0,48.0,180.0,8.0,0.0
4199,77.0,32.0,90.0,7.0,0.0
4200,78.0,160.0,90.0,7.0,0.0
4201,71.0,48.0,180.0,6.0,0.0
4202,82.0,32.0,90.0,7.0,0.0
4203,83.0,160.0,90.0,7.0,0.0
4204,71.0,48.0,180.0,6.0,0.0
4205,78.0,32.0,90.0,7.0,0.0
4206,86.0,160.0,90.0,7.0,0.0
4207,70.0,48.0,180.0,6.0,0.0
4208,76.0,32.0,90.0,7.0,0.0
4209,85.0,160.0,90.0,7.0,0.0
4210,71.0,48.0,180.0,6.0,0.0
4211,74.0,32.0,90.0,7.0,0.0
4212,83.0,160.0,90.0,7.0,0.0
4213,76.0,0.0,720.0,1.0,0.0
4214,66.0,48.0,180.0,6.0,0.0
4215,82.0,0.0,1200.0,1.0,0.0
4216,85.0,0.0,1200.0,0.0,0.0
4217,73.0,32.0,90.0,7.0,0.0
4218,82.0,160.0,90.0,7.0,0.0
4219,54.0,4.0,240.0,8.0,0.0
4220,66.0,0.0,240.0,8.0,0.0
4221,54.0,0.0,210.0,2.0,0.0
4222,66.0,32.0,210.0,2.0,0.0
4223,70.0,44.0,90.0,7.0,0.0
4224,73.0,160.0,90.0,7.0,0.0
4225,55.0,32.0,210.0,2.0,0.0
4226,55.0,4.0,240.0,8.0,0.0
4227,67.0,0.0,240.0,8.0,0.0
4228,67.0,0.0,210.0,2.0,0.0
4229,70.0,44.0,90.0,7.0,0.0
4230,73.0,160.0,90.0,7.0,0.0
4231,54.0,0.0,240.0,8.0,0.0
4232,66.0,4.0,240.0,8.0,0.0
4233,78.0,0.0,240.0,1.0,0.0
4234,54.0,32.0,210.0,2.0,0.0
4235,66.0,0.0,210.0,2.0,0.0
4236,70.0,44.0,90.0,7.0,0.0
4237,73.0,160.0,90.0,7.0,0.0
4238,79.0,160.0,240.0,1.0,0.0
4239,64.0,32.0,210.0,2.0,0.0
4240,64.0,4.0,240.0,8.0,0.0
4241,52.0,0.0,240.0,8.0,0.0
4242,52.0,0.0,210.0,2.0,0.0
4243,70.0,44.0,90.0,7.0,0.0
4244,73.0,0.0,90.0,7.0,0.0
4245,50.0,4.0,240.0,8.0,0.0
4246,86.0,160.0,240.0,0.0,0.0
4247,83.0,0.0,240.0,1.0,0.0
4248,62.0,0.0,240.0,8.0,0.0
4249,62.0,0.0,210.0,2.0,0.0
4250,50.0,32.0,210.0,2.0,0.0
4251,78.0,0.0,240.0,1.0,0.0
4252,71.0,44.0,90.0,7.0,0.0
4253,74.0,0.0,90.0,7.0,0.0
4254,49.0,32.0,210.0,2.0,0.0
4255,76.0,0.0,240.0,1.0,0.0
4256,49.0,0.0,240.0,8.0,0.0
4257,85.0,160.0,240.0,1.0,0.0
4258,61.0,0.0,210.0,2.0,0.0
4259,61.0,4.0,240.0,8.0,0.0
4260,88.0,0.0,240.0,0.0,0.0
4261,73.0,44.0,90.0,7.0,0.0
4262,76.0,0.0,90.0,7.0,0.0
4263,59.0,32.0,210.0,2.0,0.0
4264,47.0,0.0,210.0,2.0,0.0
4265,74.0,0.0,240.0,1.0,0.0
4266,59.0,4.0,240.0,8.0,0.0
4267,47.0,0.0,240.0,8.0,0.0
4268,86.0,0.0,240.0,1.0,0.0
4269,90.0,0.0,240.0,0.0,0.0
4270,74.0,44.0,90.0,7.0,0.0
4271,78.0,80.0,90.0,7.0,0.0
4272,70.0,80.0,90.0,7.0,0.0
4273,58.0,0.0,960.0,2.0,0.0
4274,88.0,0.0,960.0,1.0,0.0
4275,46.0,16.0,390.0,2.0,0.0
4276,46.0,48.0,180.0,8.0,0.0
4277,58.0,0.0,180.0,8.0,0.0
4278,91.0,0.0,960.0,0.0,0.0
4279,73.0,0.0,960.0,1.0,0.0
4280,73.0,32.0,90.0,7.0,0.0
4281,76.0,80.0,90.0,7.0,0.0
4282,79.0,64.0,90.0,7.0,0.0
4283,88.0,48.0,180.0,6.0,0.0
4284,76.0,32.0,90.0,7.0,0.0
4285,73.0,80.0,90.0,7.0,0.0
4286,91.0,48.0,180.0,6.0,0.0
4287,70.0,80.0,90.0,7.0,0.0
4288,73.0,32.0,90.0,7.0,0.0
4289,76.0,80.0,90.0,7.0,0.0
4290,88.0,48.0,180.0,6.0,0.0
4291,79.0,80.0,90.0,7.0,0.0
4292,76.0,32.0,90.0,7.0,0.0
4293,73.0,80.0,90.0,7.0,0.0
4294,70.0,0.0,960.0,2.0,0.0
4295,85.0,0.0,960.0,1.0,0.0
4296,85.0,48.0,180.0,6.0,0.0
4297,90.0,0.0,480.0,0.0,0.0
4298,70.0,80.0,90.0,7.0,0.0
4299,73.0,32.0,90.0,7.0,0.0
4300,76.0,80.0,90.0,7.0,0.0
4301,78.0,80.0,90.0,7.0,0.0
4302,82.0,48.0,180.0,6.0,0.0
4303,76.0,32.0,90.0,7.0,0.0
4304,73.0,80.0,90.0,7.0,0.0
4305,88.0,0.0,480.0,0.0,0.0
4306,70.0,80.0,90.0,7.0,0.0
4307,90.0,48.0,180.0,6.0,0.0
4308,73.0,32.0,90.0,7.0,0.0
4309,76.0,80.0,90.0,7.0,0.0
4310,78.0,80.0,90.0,7.0,0.0
4311,85.0,48.0,180.0,6.0,0.0
4312,76.0,32.0,90.0,7.0,0.0
4313,73.0,80.0,90.0,7.0,0.0
4314,78.0,0.0,15.0,1.0,0.0
4315,71.0,16.0,150.0,2.0,0.0
4316,87.0,48.0,180.0,6.0,0.0
4317,87.0,0.0,390.0,0.0,0.0
4318,81.0,16.0,390.0,1.0,0.0
4319,66.0,64.0,90.0,7.0,0.0
4320,69.0,32.0,90.0,7.0,0.0
4321,75.0,144.0,90.0,7.0,0.0
4322,47.0,0.0,210.0,2.0,0.0
4323,59.0,36.0,210.0,2.0,0.0
4324,59.0,0.0,180.0,8.0,0.0
4325,47.0,12.0,180.0,8.0,0.0
4326,63.0,32.0,90.0,7.0,0.0
4327,66.0,160.0,90.0,7.0,0.0
4328,78.0,0.0,720.0,0.0,0.0
4329,48.0,0.0,210.0,2.0,0.0
4330,69.0,0.0,240.0,1.0,0.0
4331,60.0,36.0,210.0,2.0,0.0
4332,75.0,0.0,720.0,1.0,0.0
4333,48.0,12.0,180.0,8.0,0.0
4334,60.0,0.0,180.0,8.0,0.0
4335,63.0,32.0,90.0,7.0,0.0
4336,66.0,160.0,90.0,7.0,0.0
4337,47.0,36.0,210.0,2.0,0.0
4338,59.0,12.0,180.0,8.0,0.0
4339,47.0,0.0,180.0,8.0,0.0
4340,71.0,0.0,240.0,1.0,0.0
4341,59.0,0.0,210.0,2.0,0.0
4342,63.0,32.0,90.0,7.0,0.0
4343,66.0,160.0,90.0,7.0,0.0
4344,45.0,36.0,210.0,2.0,0.0
4345,57.0,0.0,210.0,2.0,0.0
4346,57.0,12.0,180.0,8.0,0.0
4347,72.0,160.0,240.0,1.0,0.0
4348,45.0,0.0,180.0,8.0,0.0
4349,63.0,32.0,90.0,7.0,0.0
4350,66.0,0.0,90.0,7.0,0.0
4351,55.0,0.0,180.0,8.0,0.0
4352,43.0,12.0,180.0,8.0,0.0
4353,43.0,0.0,210.0,2.0,0.0
4354,79.0,0.0,240.0,0.0,0.0
4355,76.0,0.0,240.0,1.0,0.0
4356,71.0,160.0,240.0,1.0,0.0
4357,55.0,36.0,210.0,2.0,0.0
4358,64.0,32.0,90.0,7.0,0.0
4359,67.0,0.0,90.0,7.0,0.0
4360,81.0,160.0,240.0,0.0,0.0
4361,54.0,12.0,180.0,8.0,0.0
4362,54.0,0.0,210.0,2.0,0.0
4363,42.0,0.0,180.0,8.0,0.0
4364,42.0,36.0,210.0,2.0,0.0
4365,78.0,0.0,240.0,1.0,0.0
4366,69.0,0.0,240.0,1.0,0.0
4367,66.0,32.0,90.0,7.0,0.0
4368,69.0,0.0,90.0,7.0,0.0
4369,67.0,80.0,240.0,1.0,0.0
4370,83.0,0.0,240.0,0.0,0.0
4371,40.0,12.0,180.0,8.0,0.0
4372,52.0,36.0,210.0,2.0,0.0
4373,52.0,0.0,180.0,8.0,0.0
4374,79.0,0.0,240.0,1.0,0.0
4375,40.0,0.0,210.0,2.0,0.0
4376,67.0,32.0,90.0,7.0,0.0
4377,71.0,0.0,90.0,7.0,0.0
4378,51.0,0.0,360.0,2.0,0.0
4379,39.0,0.0,180.0,8.0,0.0
4380,39.0,0.0,360.0,2.0,0.0
4381,51.0,48.0,180.0,8.0,0.0
4382,63.0,80.0,90.0,7.0,0.0
4383,66.0,0.0,360.0,1.0,0.0
4384,84.0,0.0,360.0,0.0,0.0
4385,81.0,40.0,360.0,1.0,0.0
4386,66.0,32.0,90.0,7.0,0.0
4387,69.0,80.0,90.0,7.0,0.0
4388,78.0,48.0,180.0,6.0,0.0
4389,72.0,40.0,90.0,7.0,0.0
4390,69.0,32.0,90.0,7.0,0.0
4391,66.0,80.0,90.0,7.0,0.0
4392,63.0,0.0,480.0,2.0,0.0
4393,63.0,80.0,90.0,7.0,0.0
4394,71.0,80.0,960.0,1.0,0.0
4395,78.0,80.0,720.0,1.0,0.0
4396,83.0,48.0,180.0,6.0,0.0
4397,83.0,0.0,240.0,0.0,0.0
4398,66.0,32.0,90.0,7.0,0.0
4399,69.0,80.0,90.0,7.0,0.0
4400,81.0,80.0,240.0,0.0,0.0
4401,81.0,48.0,180.0,6.0,0.0
4402,72.0,80.0,90.0,7.0,0.0
4403,69.0,32.0,90.0,7.0,0.0
4404,66.0,0.0,90.0,7.0,0.0
4405,59.0,80.0,90.0,7.0,0.0
4406,79.0,48.0,180.0,6.0,0.0
4407,64.0,0.0,480.0,2.0,0.0
4408,79.0,0.0,390.0,0.0,0.0
4409,64.0,32.0,90.0,7.0,0.0
4410,67.0,0.0,90.0,7.0,0.0
4411,75.0,0.0,240.0,1.0,0.0
4412,40.0,48.0,180.0,8.0,0.0
4413,52.0,16.0,150.0,2.0,0.0
4414,71.0,64.0,90.0,7.0,0.0
4415,52.0,0.0,180.0,8.0,0.0
4416,67.0,32.0,90.0,7.0,0.0
4417,64.0,0.0,90.0,7.0,0.0
4418,60.0,0.0,240.0,2.0,0.0
4419,48.0,48.0,180.0,8.0,0.0
4420,91.0,0.0,840.0,0.0,0.0
4421,48.0,16.0,150.0,2.0,0.0
4422,70.0,64.0,90.0,7.0,0.0
4423,76.0,24.0,840.0,1.0,0.0
4424,70.0,0.0,240.0,1.0,0.0
4425,36.0,0.0,180.0,8.0,0.0
4426,67.0,32.0,90.0,7.0,0.0
4427,64.0,80.0,90.0,7.0,0.0
4428,35.0,48.0,180.0,8.0,0.0
4429,47.0,16.0,150.0,2.0,0.0
4430,59.0,0.0,240.0,2.0,0.0
4431,71.0,64.0,90.0,7.0,0.0
4432,47.0,0.0,180.0,8.0,0.0
4433,71.0,0.0,240.0,1.0,0.0
4434,67.0,32.0,90.0,7.0,0.0
4435,64.0,64.0,90.0,7.0,0.0
4436,34.0,0.0,180.0,8.0,0.0
4437,46.0,32.0,180.0,8.0,0.0
4438,58.0,0.0,360.0,2.0,0.0
4439,64.0,80.0,60.0,7.0,0.0
4440,73.0,0.0,360.0,1.0,0.0
4441,46.0,0.0,360.0,2.0,0.0
4442,66.0,48.0,60.0,7.0,0.0
4443,70.0,80.0,60.0,7.0,0.0
4444,85.0,32.0,180.0,6.0,0.0
4445,73.0,56.0,60.0,7.0,0.0
4446,70.0,48.0,60.0,7.0,0.0
4447,66.0,80.0,60.0,7.0,0.0
4448,78.0,64.0,960.0,1.0,0.0
4449,90.0,64.0,240.0,0.0,0.0
4450,85.0,64.0,720.0,1.0,0.0
4451,90.0,32.0,180.0,6.0,0.0
4452,70.0,64.0,480.0,2.0,0.0
4453,64.0,80.0,60.0,7.0,0.0
4454,66.0,48.0,60.0,7.0,0.0
4455,70.0,16.0,60.0,7.0,0.0
4456,88.0,0.0,240.0,0.0,0.0
4457,88.0,32.0,180.0,6.0,0.0
4458,73.0,80.0,60.0,7.0,0.0
4459,70.0,48.0,60.0,7.0,0.0
4460,66.0,16.0,60.0,7.0,0.0
4461,71.0,0.0,480.0,2.0,0.0
4462,86.0,32.0,180.0,6.0,0.0
4463,62.0,80.0,60.0,7.0,0.0
4464,86.0,0.0,960.0,0.0,0.0
4465,66.0,48.0,60.0,7.0,0.0
4466,71.0,16.0,60.0,7.0,0.0
4467,82.0,0.0,240.0,1.0,0.0
4468,59.0,48.0,150.0,2.0,0.0
4469,74.0,80.0,60.0,7.0,0.0
4470,59.0,32.0,180.0,8.0,0.0
4471,47.0,0.0,180.0,8.0,0.0
4472,71.0,0.0,60.0,7.0,0.0
4473,66.0,16.0,60.0,7.0,0.0
4474,67.0,0.0,240.0,2.0,0.0
4475,55.0,0.0,150.0,2.0,0.0
4476,55.0,0.0,180.0,8.0,0.0
4477,43.0,32.0,180.0,8.0,0.0
4478,74.0,80.0,60.0,7.0,0.0
4479,77.0,64.0,240.0,1.0,0.0
4480,83.0,0.0,1410.0,1.0,0.0
4481,71.0,48.0,60.0,7.0,0.0
4482,67.0,16.0,60.0,7.0,0.0
4483,41.0,32.0,180.0,8.0,0.0
4484,80.0,64.0,240.0,1.0,0.0
4485,53.0,48.0,150.0,2.0,0.0
4486,53.0,0.0,180.0,8.0,0.0
4487,65.0,0.0,240.0,2.0,0.0
4488,74.0,80.0,60.0,7.0,0.0
4489,71.0,0.0,60.0,7.0,0.0
4490,68.0,16.0,60.0,7.0,0.0
4491,66.0,0.0,930.0,2.0,0.0
4492,90.0,4.0,930.0,0.0,0.0
4493,54.0,32.0,180.0,8.0,0.0
4494,42.0,0.0,180.0,8.0,0.0
4495,66.0,80.0,60.0,7.0,0.0
4496,74.0,0.0,930.0,1.0,0.0
4497,54.0,0.0,930.0,2.0,0.0
4498,71.0,48.0,60.0,7.0,0.0
4499,74.0,80.0,60.0,7.0,0.0
4500,83.0,32.0,180.0,6.0,0.0
4501,78.0,80.0,60.0,7.0,0.0
4502,74.0,48.0,60.0,7.0,0.0
4503,71.0,80.0,60.0,7.0,0.0
4504,66.0,80.0,60.0,7.0,0.0
4505,90.0,64.0,240.0,6.0,0.0
4506,71.0,80.0,60.0,7.0,0.0
4507,74.0,16.0,60.0,7.0,0.0
4508,86.0,28.0,180.0,6.0,0.0
4509,78.0,80.0,60.0,7.0,0.0
4510,74.0,48.0,60.0,7.0,0.0
4511,71.0,80.0,60.0,7.0,0.0
4512,66.0,80.0,60.0,7.0,0.0
4513,73.0,4.0,930.0,1.0,0.0
4514,76.0,0.0,930.0,1.0,0.0
4515,42.0,0.0,180.0,8.0,0.0
4516,54.0,32.0,180.0,8.0,0.0
4517,42.0,0.0,930.0,2.0,0.0
4518,54.0,0.0,930.0,2.0,0.0
4519,94.0,0.0,930.0,0.0,0.0
4520,70.0,48.0,60.0,7.0,0.0
4521,73.0,80.0,60.0,7.0,0.0
4522,82.0,32.0,180.0,6.0,0.0
4523,76.0,80.0,60.0,7.0,0.0
4524,73.0,48.0,60.0,7.0,0.0
4525,70.0,80.0,60.0,7.0,0.0
4526,88.0,64.0,240.0,6.0,0.0
4527,66.0,80.0,60.0,7.0,0.0
4528,70.0,80.0,60.0,7.0,0.0
4529,73.0,16.0,60.0,7.0,0.0
4530,76.0,80.0,60.0,7.0,0.0
4531,85.0,28.0,180.0,6.0,0.0
4532,73.0,48.0,60.0,7.0,0.0
4533,70.0,208.0,60.0,7.0,0.0
4534,71.0,144.0,240.0,7.0,0.0
4535,74.0,16.0,390.0,1.0,0.0
4536,95.0,0.0,390.0,0.0,0.0
4537,59.0,0.0,390.0,2.0,0.0
4538,83.0,48.0,180.0,6.0,0.0
4539,47.0,0.0,390.0,2.0,0.0
4540,71.0,0.0,390.0,1.0,0.0
4541,47.0,48.0,180.0,8.0,0.0
4542,58.0,32.0,90.0,7.0,0.0
4543,59.0,160.0,90.0,7.0,0.0
4544,50.0,48.0,180.0,8.0,0.0
4545,61.0,32.0,90.0,7.0,0.0
4546,62.0,160.0,90.0,7.0,0.0
4547,54.0,48.0,180.0,8.0,0.0
4548,65.0,32.0,90.0,7.0,0.0
4549,66.0,160.0,90.0,7.0,0.0
4550,59.0,48.0,180.0,8.0,0.0
4551,70.0,32.0,90.0,7.0,0.0
4552,71.0,160.0,90.0,7.0,0.0
4553,62.0,48.0,180.0,8.0,0.0
4554,73.0,32.0,90.0,7.0,0.0
4555,74.0,160.0,90.0,7.0,0.0
4556,66.0,48.0,180.0,8.0,0.0
4557,77.0,32.0,90.0,7.0,0.0
4558,78.0,160.0,90.0,7.0,0.0
4559,71.0,48.0,180.0,8.0,0.0
4560,82.0,32.0,90.0,7.0,0.0
4561,83.0,360.0,90.0,7.0,0.0
4562,43.0,0.0,390.0,14.0,0.0
4563,50.0,0.0,390.0,3.0,0.0
4564,62.0,0.0,390.0,3.0,0.0
4565,67.0,0.0,390.0,10.0,0.0
4566,83.0,0.0,390.0,10.0,0.0
4567,74.0,0.0,390.0,10.0,0.0
4568,95.0,0.0,390.0,0.0,0.0
4569,86.0,0.0,390.0,1.0,0.0
4570,59.0,16.0,390.0,2.0,0.0
4571,55.0,0.0,390.0,13.0,0.0
4572,83.0,0.0,390.0,11.0,0.0
4573,74.0,0.0,390.0,11.0,0.0
4574,71.0,0.0,390.0,2.0,0.0
4575,67.0,0.0,390.0,12.0,0.0
4576,83.0,0.0,390.0,1.0,0.0
4577,67.0,0.0,390.0,11.0,0.0
4578,55.0,0.0,120.0,7.0,0.0
4579,43.0,24.0,120.0,8.0,0.0
4580,66.0,80.0,90.0,6.0,0.0
4581,67.0,120.0,90.0,6.0,0.0
4582,47.0,40.0,120.0,8.0,0.0
4583,59.0,0.0,120.0,7.0,0.0
4584,70.0,80.0,90.0,6.0,0.0
4585,71.0,120.0,90.0,6.0,0.0
4586,62.0,40.0,120.0,7.0,0.0
4587,50.0,0.0,120.0,8.0,0.0
4588,73.0,80.0,90.0,6.0,0.0
4589,74.0,120.0,90.0,6.0,0.0
4590,67.0,40.0,120.0,7.0,0.0
4591,55.0,0.0,120.0,8.0,0.0
4592,78.0,80.0,90.0,6.0,0.0
4593,79.0,120.0,90.0,6.0,0.0
4594,59.0,40.0,120.0,8.0,0.0
4595,71.0,0.0,120.0,7.0,0.0
4596,82.0,80.0,90.0,6.0,0.0
4597,83.0,120.0,90.0,6.0,0.0
4598,62.0,0.0,120.0,8.0,0.0
4599,74.0,40.0,120.0,7.0,0.0
4600,85.0,80.0,90.0,6.0,0.0
4601,86.0,120.0,90.0,6.0,0.0
4602,79.0,40.0,120.0,7.0,0.0
4603,67.0,0.0,120.0,8.0,0.0
4604,90.0,80.0,90.0,6.0,0.0
4605,91.0,360.0,90.0,6.0,0.0
4606,59.0,0.0,390.0,2.0,0.0
4607,74.0,0.0,390.0,11.0,0.0
4608,42.0,0.0,390.0,14.0,0.0
4609,71.0,0.0,390.0,2.0,0.0
4610,95.0,0.0,390.0,0.0,0.0
4611,83.0,0.0,390.0,11.0,0.0
4612,66.0,0.0,390.0,12.0,0.0
4613,62.0,0.0,390.0,3.0,0.0
4614,54.0,16.0,390.0,13.0,0.0
4615,50.0,0.0,390.0,3.0,0.0
4616,66.0,0.0,390.0,10.0,0.0
4617,83.0,0.0,390.0,10.0,0.0
4618,74.0,0.0,390.0,10.0,0.0
4619,66.0,0.0,390.0,11.0,0.0
4620,83.0,0.0,390.0,1.0,0.0
4621,86.0,0.0,390.0,1.0,0.0
4622,54.0,24.0,120.0,7.0,0.0
4623,42.0,0.0,120.0,8.0,0.0
4624,65.0,80.0,90.0,6.0,0.0
4625,66.0,120.0,90.0,6.0,0.0
4626,59.0,0.0,120.0,7.0,0.0
4627,47.0,40.0,120.0,8.0,0.0
4628,70.0,80.0,90.0,6.0,0.0
4629,71.0,120.0,90.0,6.0,0.0
4630,50.0,40.0,120.0,8.0,0.0
4631,62.0,0.0,120.0,7.0,0.0
4632,73.0,80.0,90.0,6.0,0.0
4633,74.0,120.0,90.0,6.0,0.0
4634,66.0,0.0,120.0,7.0,0.0
4635,54.0,40.0,120.0,8.0,0.0
4636,77.0,80.0,90.0,6.0,0.0
4637,78.0,120.0,90.0,6.0,0.0
4638,71.0,40.0,120.0,7.0,0.0
4639,59.0,0.0,120.0,8.0,0.0
4640,82.0,80.0,90.0,6.0,0.0
4641,83.0,120.0,90.0,6.0,0.0
4642,62.0,40.0,120.0,8.0,0.0
4643,74.0,0.0,120.0,7.0,0.0
4644,85.0,80.0,90.0,6.0,0.0
4645,86.0,120.0,90.0,6.0,0.0
4646,66.0,40.0,120.0,8.0,0.0
4647,78.0,0.0,120.0,7.0,0.0
4648,89.0,80.0,90.0,6.0,0.0
4649,90.0,360.0,90.0,6.0,0.0
4650,74.0,0.0,390.0,10.0,0.0
4651,71.0,0.0,390.0,11.0,0.0
4652,80.0,0.0,390.0,11.0,0.0
4653,62.0,0.0,390.0,11.0,0.0
4654,50.0,0.0,390.0,3.0,0.0
4655,62.0,0.0,390.0,3.0,0.0
4656,65.0,16.0,390.0,12.0,0.0
4657,68.0,0.0,390.0,2.0,0.0
4658,80.0,0.0,390.0,1.0,0.0
4659,86.0,0.0,390.0,1.0,0.0
4660,41.0,0.0,390.0,14.0,0.0
4661,95.0,0.0,390.0,0.0,0.0
4662,83.0,0.0,390.0,10.0,0.0
4663,71.0,0.0,390.0,2.0,0.0
4664,53.0,0.0,390.0,13.0,0.0
4665,41.0,0.0,120.0,8.0,0.0
4666,53.0,24.0,120.0,7.0,0.0
4667,64.0,80.0,90.0,6.0,0.0
4668,65.0,120.0,90.0,6.0,0.0
4669,44.0,0.0,120.0,8.0,0.0
4670,56.0,40.0,120.0,7.0,0.0
4671,67.0,80.0,90.0,6.0,0.0
4672,68.0,120.0,90.0,6.0,0.0
4673,47.0,0.0,120.0,8.0,0.0
4674,59.0,40.0,120.0,7.0,0.0
4675,70.0,80.0,90.0,6.0,0.0
4676,71.0,120.0,90.0,6.0,0.0
4677,65.0,0.0,120.0,7.0,0.0
4678,53.0,40.0,120.0,8.0,0.0
4679,76.0,80.0,90.0,6.0,0.0
4680,77.0,120.0,90.0,6.0,0.0
4681,68.0,0.0,120.0,7.0,0.0
4682,56.0,40.0,120.0,8.0,0.0
4683,79.0,80.0,90.0,6.0,0.0
4684,80.0,120.0,90.0,6.0,0.0
4685,59.0,40.0,120.0,8.0,0.0
4686,71.0,0.0,120.0,7.0,0.0
4687,82.0,80.0,90.0,6.0,0.0
4688,83.0,120.0,90.0,6.0,0.0
4689,65.0,0.0,120.0,8.0,0.0
4690,77.0,40.0,120.0,7.0,0.0
4691,88.0,80.0,90.0,6.0,0.0
4692,89.0,64.0,90.0,6.0,0.0
4693,61.0,0.0,180.0,11.0,0.0
4694,78.0,0.0,60.0,7.0,0.0
4695,66.0,0.0,180.0,10.0,0.0
4696,73.0,0.0,180.0,10.0,0.0
4697,82.0,0.0,180.0,10.0,0.0
4698,42.0,0.0,180.0,14.0,0.0
4699,70.0,0.0,180.0,11.0,0.0
4700,66.0,32.0,180.0,12.0,0.0
4701,90.0,80.0,60.0,6.0,0.0
4702,54.0,0.0,180.0,13.0,0.0
4703,79.0,48.0,60.0,7.0,0.0
4704,91.0,0.0,60.0,6.0,0.0
4705,90.0,0.0,60.0,6.0,0.0
4706,78.0,80.0,60.0,7.0,0.0
4707,88.0,0.0,60.0,6.0,0.0
4708,76.0,80.0,60.0,7.0,0.0
4709,74.0,80.0,60.0,7.0,0.0
4710,86.0,0.0,60.0,6.0,0.0
4711,85.0,0.0,60.0,6.0,0.0
4712,73.0,80.0,60.0,7.0,0.0
4713,71.0,32.0,180.0,11.0,0.0
4714,62.0,0.0,180.0,11.0,0.0
4715,54.0,0.0,180.0,13.0,0.0
4716,74.0,0.0,180.0,10.0,0.0
4717,86.0,80.0,60.0,6.0,0.0
4718,74.0,0.0,60.0,7.0,0.0
4719,83.0,0.0,180.0,10.0,0.0
4720,66.0,0.0,180.0,10.0,0.0
4721,42.0,0.0,180.0,14.0,0.0
4722,66.0,0.0,180.0,12.0,0.0
4723,78.0,48.0,60.0,7.0,0.0
4724,90.0,0.0,60.0,6.0,0.0
4725,88.0,0.0,60.0,6.0,0.0
4726,76.0,80.0,60.0,7.0,0.0
4727,86.0,0.0,60.0,6.0,0.0
4728,74.0,80.0,60.0,7.0,0.0
4729,85.0,0.0,60.0,6.0,0.0
4730,73.0,80.0,60.0,7.0,0.0
4731,71.0,0.0,60.0,7.0,0.0
4732,83.0,80.0,60.0,6.0,0.0
4733,70.0,0.0,60.0,7.0,0.0
4734,82.0,80.0,60.0,6.0,0.0
4735,61.0,0.0,180.0,11.0,0.0
4736,54.0,32.0,180.0,13.0,0.0
4737,73.0,0.0,180.0,10.0,0.0
4738,70.0,0.0,180.0,11.0,0.0
4739,66.0,0.0,180.0,10.0,0.0
4740,82.0,0.0,180.0,10.0,0.0
4741,66.0,0.0,180.0,12.0,0.0
4742,42.0,0.0,180.0,14.0,0.0
4743,79.0,0.0,60.0,6.0,0.0
4744,67.0,48.0,60.0,7.0,0.0
4745,66.0,80.0,60.0,7.0,0.0
4746,78.0,0.0,60.0,6.0,0.0
4747,76.0,0.0,60.0,6.0,0.0
4748,64.0,80.0,60.0,7.0,0.0
4749,74.0,0.0,60.0,6.0,0.0
4750,62.0,80.0,60.0,7.0,0.0
4751,61.0,80.0,60.0,7.0,0.0
4752,73.0,0.0,60.0,6.0,0.0
4753,66.0,0.0,180.0,12.0,0.0
4754,62.0,80.0,60.0,7.0,0.0
4755,42.0,0.0,180.0,14.0,0.0
4756,74.0,0.0,60.0,6.0,0.0
4757,83.0,0.0,180.0,10.0,0.0
4758,54.0,0.0,180.0,13.0,0.0
4759,62.0,32.0,180.0,11.0,0.0
4760,71.0,0.0,180.0,11.0,0.0
4761,74.0,0.0,180.0,10.0,0.0
4762,66.0,0.0,180.0,10.0,0.0
4763,78.0,48.0,60.0,6.0,0.0
4764,66.0,0.0,60.0,7.0,0.0
4765,76.0,80.0,60.0,6.0,0.0
4766,64.0,0.0,60.0,7.0,0.0
4767,74.0,80.0,60.0,6.0,0.0
4768,62.0,0.0,60.0,7.0,0.0
4769,61.0,80.0,60.0,7.0,0.0
4770,73.0,0.0,60.0,6.0,0.0
4771,59.0,0.0,60.0,7.0,0.0
4772,71.0,80.0,60.0,6.0,0.0
4773,61.0,0.0,180.0,11.0,0.0
4774,70.0,0.0,180.0,11.0,0.0
4775,54.0,0.0,180.0,13.0,0.0
4776,42.0,0.0,180.0,14.0,0.0
4777,82.0,0.0,180.0,10.0,0.0
4778,66.0,0.0,180.0,12.0,0.0
4779,66.0,32.0,180.0,10.0,0.0
4780,70.0,0.0,60.0,6.0,0.0
4781,58.0,80.0,60.0,7.0,0.0
4782,73.0,0.0,180.0,10.0,0.0
4783,67.0,0.0,60.0,6.0,0.0
4784,55.0,48.0,60.0,7.0,0.0
4785,66.0,80.0,60.0,6.0,0.0
4786,54.0,0.0,60.0,7.0,0.0
4787,85.0,0.0,180.0,1.0,0.0
4788,82.0,0.0,180.0,1.0,0.0
4789,70.0,0.0,180.0,2.0,0.0
4790,64.0,80.0,60.0,6.0,0.0
4791,66.0,0.0,180.0,3.0,0.0
4792,52.0,0.0,60.0,7.0,0.0
4793,61.0,0.0,180.0,2.0,0.0
4794,90.0,44.0,180.0,0.0,0.0
4795,54.0,0.0,180.0,3.0,0.0
4796,62.0,36.0,60.0,6.0,0.0
4797,50.0,0.0,60.0,7.0,0.0
4798,61.0,80.0,60.0,6.0,0.0
4799,49.0,0.0,60.0,7.0,0.0
4800,71.0,0.0,180.0,11.0,0.0
4801,42.0,0.0,180.0,14.0,0.0
4802,62.0,0.0,60.0,6.0,0.0
4803,62.0,0.0,180.0,11.0,0.0
4804,50.0,80.0,60.0,7.0,0.0
4805,66.0,0.0,180.0,10.0,0.0
4806,54.0,0.0,180.0,13.0,0.0
4807,66.0,0.0,180.0,12.0,0.0
4808,83.0,0.0,180.0,10.0,0.0
4809,74.0,32.0,180.0,10.0,0.0
4810,66.0,0.0,60.0,6.0,0.0
4811,54.0,48.0,60.0,7.0,0.0
4812,64.0,80.0,60.0,6.0,0.0
4813,52.0,0.0,60.0,7.0,0.0
4814,62.0,80.0,60.0,6.0,0.0
4815,71.0,0.0,180.0,2.0,0.0
4816,62.0,0.0,180.0,2.0,0.0
4817,66.0,0.0,180.0,3.0,0.0
4818,90.0,0.0,180.0,0.0,0.0
4819,83.0,44.0,180.0,1.0,0.0
4820,86.0,0.0,180.0,1.0,0.0
4821,54.0,0.0,180.0,3.0,0.0
4822,50.0,0.0,60.0,7.0,0.0
4823,61.0,36.0,60.0,6.0,0.0
4824,49.0,0.0,60.0,7.0,0.0
4825,47.0,80.0,60.0,7.0,0.0
4826,59.0,0.0,60.0,6.0,0.0
4827,70.0,0.0,180.0,11.0,0.0
4828,66.0,0.0,180.0,10.0,0.0
4829,73.0,0.0,180.0,10.0,0.0
4830,61.0,0.0,180.0,11.0,0.0
4831,66.0,0.0,180.0,12.0,0.0
4832,58.0,0.0,60.0,7.0,0.0
4833,82.0,0.0,180.0,10.0,0.0
4834,46.0,80.0,60.0,8.0,0.0
4835,54.0,0.0,180.0,13.0,0.0
4836,42.0,32.0,180.0,14.0,0.0
4837,43.0,48.0,60.0,8.0,0.0
4838,55.0,0.0,60.0,7.0,0.0
4839,54.0,80.0,60.0,7.0,0.0
4840,42.0,0.0,60.0,8.0,0.0
4841,40.0,80.0,60.0,8.0,0.0
4842,61.0,0.0,180.0,2.0,0.0
4843,70.0,0.0,180.0,2.0,0.0
4844,90.0,0.0,180.0,0.0,0.0
4845,82.0,0.0,180.0,1.0,0.0
4846,85.0,0.0,180.0,1.0,0.0
4847,52.0,0.0,60.0,7.0,0.0
4848,66.0,0.0,180.0,3.0,0.0
4849,54.0,44.0,180.0,3.0,0.0
4850,50.0,36.0,60.0,7.0,0.0
4851,38.0,0.0,60.0,8.0,0.0
4852,37.0,0.0,60.0,8.0,0.0
4853,49.0,80.0,60.0,7.0,0.0
4854,66.0,0.0,180.0,10.0,0.0
4855,83.0,0.0,180.0,10.0,0.0
4856,50.0,80.0,60.0,7.0,0.0
4857,62.0,0.0,180.0,11.0,0.0
4858,42.0,32.0,180.0,14.0,0.0
4859,66.0,0.0,180.0,12.0,0.0
4860,71.0,0.0,180.0,11.0,0.0
4861,74.0,0.0,180.0,10.0,0.0
4862,54.0,0.0,180.0,13.0,0.0
4863,38.0,0.0,60.0,8.0,0.0
4864,54.0,0.0,60.0,7.0,0.0
4865,42.0,48.0,60.0,8.0,0.0
4866,52.0,80.0,60.0,7.0,0.0
4867,40.0,0.0,60.0,8.0,0.0
4868,66.0,44.0,180.0,3.0,0.0
4869,86.0,0.0,180.0,1.0,0.0
4870,83.0,0.0,180.0,1.0,0.0
4871,90.0,0.0,180.0,0.0,0.0
4872,50.0,0.0,60.0,7.0,0.0
4873,71.0,0.0,180.0,2.0,0.0
4874,54.0,0.0,180.0,3.0,0.0
4875,62.0,0.0,180.0,2.0,0.0
4876,38.0,80.0,60.0,8.0,0.0
4877,37.0,0.0,60.0,8.0,0.0
4878,49.0,36.0,60.0,7.0,0.0
4879,35.0,0.0,60.0,8.0,0.0
4880,47.0,136.0,60.0,7.0,0.0
4881,61.0,0.0,390.0,2.0,0.0
4882,54.0,0.0,390.0,3.0,0.0
4883,46.0,120.0,120.0,7.0,0.0
4884,90.0,0.0,390.0,0.0,0.0
4885,70.0,0.0,390.0,2.0,0.0
4886,66.0,0.0,390.0,3.0,0.0
4887,73.0,0.0,390.0,10.0,0.0
4888,82.0,0.0,390.0,1.0,0.0
4889,54.0,240.0,7680.0,13.0,0.0
4890,42.0,0.0,7680.0,14.0,0.0
4891,82.0,96.0,390.0,10.0,0.0
4892,66.0,0.0,390.0,12.0,0.0
4893,85.0,0.0,390.0,1.0,0.0
4894,70.0,0.0,390.0,11.0,0.0
4895,66.0,0.0,390.0,10.0,0.0
4896,54.0,120.0,120.0,7.0,0.0
4897,49.0,24.0,120.0,7.0,0.0
4898,58.0,120.0,120.0,7.0,0.0
4899,54.0,120.0,120.0,7.0,0.0
4900,61.0,120.0,120.0,7.0,0.0
4901,58.0,120.0,120.0,7.0,0.0
4902,66.0,120.0,120.0,7.0,0.0
4903,61.0,120.0,120.0,7.0,0.0
4904,70.0,120.0,120.0,7.0,0.0
4905,66.0,120.0,120.0,7.0,0.0
4906,73.0,120.0,120.0,7.0,0.0
4907,70.0,120.0,120.0,7.0,0.0
4908,78.0,120.0,120.0,7.0,0.0
4909,73.0,120.0,120.0,7.0,0.0
4910,82.0,120.0,120.0,7.0,0.0
4911,78.0,120.0,120.0,6.0,0.0
4912,85.0,120.0,120.0,6.0,0.0
4913,82.0,120.0,120.0,6.0,0.0
4914,42.0,0.0,120.0,2.0,0.0
4915,66.0,0.0,120.0,0.0,0.0
4916,90.0,120.0,120.0,6.0,0.0
4917,85.0,0.0,120.0,6.0,0.0
4918,70.0,0.0,120.0,0.0,0.0
4919,46.0,120.0,120.0,2.0,0.0
4920,78.0,120.0,120.0,6.0,0.0
4921,49.0,0.0,120.0,2.0,0.0
4922,73.0,0.0,120.0,0.0,0.0
4923,82.0,120.0,120.0,6.0,0.0
4924,73.0,120.0,120.0,6.0,0.0
4925,78.0,0.0,120.0,6.0,0.0
4926,78.0,0.0,120.0,0.0,0.0
4927,54.0,120.0,120.0,2.0,0.0
4928,70.0,120.0,120.0,6.0,0.0
4929,82.0,120.0,120.0,0.0,0.0
4930,70.0,0.0,120.0,1.0,0.0
4931,73.0,0.0,120.0,6.0,0.0
4932,58.0,0.0,120.0,2.0,0.0
4933,66.0,120.0,120.0,6.0,0.0
4934,73.0,0.0,120.0,1.0,0.0
4935,61.0,0.0,120.0,2.0,0.0
4936,70.0,0.0,120.0,6.0,0.0
4937,85.0,120.0,120.0,0.0,0.0
4938,61.0,120.0,120.0,6.0,0.0
4939,78.0,0.0,120.0,1.0,0.0
4940,90.0,0.0,120.0,0.0,0.0
4941,66.0,120.0,120.0,2.0,0.0
4942,66.0,0.0,120.0,6.0,0.0
4943,58.0,0.0,120.0,6.0,0.0
4944,93.0,0.0,2040.0,0.0,0.0
4945,69.0,0.0,2040.0,2.0,0.0
4946,66.0,40.0,2040.0,2.0,0.0
4947,42.0,160.0,15.0,8.0,0.0
4948,61.0,160.0,150.0,6.0,0.0
4949,81.0,96.0,2310.0,1.0,0.0
4950,85.0,0.0,2310.0,1.0,0.0
4951,57.0,160.0,150.0,6.0,0.0
4952,69.0,160.0,150.0,6.0,0.0
4953,66.0,160.0,150.0,6.0,0.0
4954,73.0,160.0,150.0,6.0,0.0
4955,69.0,160.0,150.0,6.0,0.0
4956,78.0,160.0,150.0,6.0,0.0
4957,73.0,160.0,150.0,6.0,0.0
4958,81.0,160.0,150.0,6.0,0.0
4959,78.0,160.0,150.0,6.0,0.0
4960,85.0,160.0,150.0,6.0,0.0
4961,81.0,120.0,150.0,6.0,0.0
4962,90.0,160.0,150.0,6.0,0.0
4963,42.0,0.0,15.0,8.0,0.0
4964,54.0,0.0,15.0,8.0,0.0
4965,85.0,40.0,150.0,6.0,0.0
4966,42.0,24.0,120.0,2.0,0.0
4967,66.0,0.0,120.0,0.0,0.0
4968,93.0,120.0,150.0,6.0,0.0
4969,45.0,0.0,120.0,2.0,0.0
4970,69.0,40.0,120.0,0.0,0.0
4971,81.0,160.0,150.0,6.0,0.0
4972,90.0,40.0,150.0,6.0,0.0
4973,49.0,0.0,120.0,2.0,0.0
4974,73.0,120.0,120.0,0.0,0.0
4975,78.0,120.0,150.0,6.0,0.0
4976,54.0,0.0,120.0,2.0,0.0
4977,85.0,160.0,150.0,6.0,0.0
4978,78.0,40.0,120.0,0.0,0.0
4979,73.0,40.0,150.0,6.0,0.0
4980,81.0,24.0,120.0,0.0,0.0
4981,57.0,0.0,120.0,2.0,0.0
4982,69.0,96.0,150.0,1.0,0.0
4983,81.0,120.0,150.0,6.0,0.0
4984,73.0,16.0,150.0,1.0,0.0
4985,69.0,160.0,150.0,6.0,0.0
4986,61.0,0.0,120.0,2.0,0.0
4987,85.0,24.0,120.0,0.0,0.0
4988,78.0,40.0,150.0,6.0,0.0
4989,66.0,24.0,120.0,2.0,0.0
4990,78.0,64.0,150.0,1.0,0.0
4991,90.0,0.0,120.0,0.0,0.0
4992,66.0,32.0,120.0,6.0,0.0
4993,40.0,0.0,1920.0,8.0,0.0
4994,52.0,0.0,1920.0,8.0,0.0
4995,52.0,0.0,1920.0,13.0,0.0
4996,67.0,240.0,240.0,6.0,0.0
4997,79.0,240.0,1920.0,1.0,0.0
4998,85.0,0.0,1920.0,1.0,0.0
4999,67.0,0.0,1920.0,2.0,0.0
5000,64.0,0.0,1920.0,2.0,0.0
5001,91.0,0.0,1920.0,0.0,0.0
5002,73.0,240.0,240.0,6.0,0.0
5003,76.0,240.0,240.0,6.0,0.0
5004,79.0,240.0,240.0,6.0,0.0
5005,85.0,240.0,240.0,6.0,0.0
5006,91.0,240.0,240.0,6.0,0.0
5007,90.0,240.0,240.0,6.0,0.0
5008,88.0,0.0,240.0,6.0,0.0
5009,79.0,384.0,1920.0,0.0,0.0
5010,76.0,0.0,1920.0,1.0,0.0
5011,73.0,0.0,1920.0,1.0,0.0
5012,57.0,384.0,2310.0,3.0,0.0
5013,86.0,240.0,240.0,6.0,0.0
5014,85.0,240.0,240.0,6.0,0.0
5015,83.0,240.0,240.0,6.0,0.0
5016,81.0,240.0,240.0,6.0,0.0
5017,80.0,240.0,240.0,6.0,0.0
5018,81.0,240.0,240.0,6.0,0.0
5019,83.0,192.0,240.0,6.0,0.0
5020,81.0,48.0,180.0,6.0,0.0
5021,74.0,0.0,390.0,1.0,0.0
5022,78.0,0.0,390.0,1.0,0.0
5023,66.0,96.0,780.0,7.0,0.0
5024,50.0,0.0,390.0,3.0,0.0
5025,78.0,0.0,390.0,0.0,0.0
5026,62.0,0.0,390.0,7.0,0.0
5027,81.0,0.0,780.0,6.0,0.0
5028,62.0,336.0,390.0,7.0,0.0
5029,62.0,96.0,390.0,7.0,0.0
5030,80.0,144.0,240.0,6.0,0.0
5031,65.0,0.0,240.0,7.0,0.0
5032,66.0,0.0,240.0,7.0,0.0
5033,81.0,240.0,240.0,6.0,0.0
5034,62.0,48.0,390.0,7.0,0.0
5035,80.0,0.0,240.0,6.0,0.0
5036,65.0,144.0,240.0,7.0,0.0
5037,81.0,0.0,180.0,6.0,0.0
5038,66.0,288.0,180.0,7.0,0.0
5039,67.0,0.0,240.0,7.0,0.0
5040,83.0,144.0,240.0,6.0,0.0
5041,62.0,96.0,390.0,7.0,0.0
5042,66.0,240.0,240.0,7.0,0.0
5043,81.0,0.0,240.0,6.0,0.0
5044,64.0,0.0,240.0,7.0,0.0
5045,79.0,192.0,240.0,6.0,0.0
5046,62.0,432.0,180.0,7.0,0.0
5047,78.0,0.0,180.0,6.0,0.0
5048,62.0,456.0,390.0,7.0,0.0
5049,78.0,0.0,390.0,6.0,0.0
5050,81.0,96.0,360.0,6.0,0.0
5051,78.0,216.0,90.0,6.0,0.0
5052,74.0,48.0,180.0,6.0,0.0
5053,54.0,240.0,240.0,7.0,0.0
5054,50.0,192.0,960.0,8.0,0.0
5055,57.0,192.0,240.0,7.0,0.0
5056,54.0,240.0,240.0,7.0,0.0
5057,74.0,48.0,180.0,6.0,0.0
5058,57.0,0.0,240.0,7.0,0.0
5059,55.0,240.0,240.0,7.0,0.0
5060,52.0,240.0,960.0,8.0,0.0
5061,49.0,0.0,960.0,8.0,0.0
5062,69.0,48.0,180.0,6.0,0.0
5063,57.0,192.0,240.0,7.0,0.0
5064,69.0,48.0,180.0,6.0,0.0
5065,55.0,240.0,240.0,7.0,0.0
5066,57.0,0.0,240.0,7.0,0.0
5067,54.0,240.0,240.0,7.0,0.0
5068,74.0,60.0,480.0,6.0,0.0
5069,50.0,0.0,960.0,8.0,0.0
5070,57.0,0.0,240.0,7.0,0.0
5071,76.0,60.0,60.0,6.0,0.0
5072,54.0,0.0,240.0,7.0,0.0
5073,74.0,60.0,60.0,6.0,0.0
5074,73.0,60.0,60.0,6.0,0.0
5075,74.0,120.0,60.0,6.0,0.0
5076,57.0,0.0,240.0,7.0,0.0
5077,76.0,120.0,120.0,6.0,0.0
5078,78.0,240.0,120.0,6.0,0.0
5079,76.0,144.0,240.0,6.0,0.0
5080,45.0,96.0,390.0,7.0,0.0
5081,78.0,240.0,240.0,6.0,0.0
5082,79.0,240.0,240.0,6.0,0.0
5083,80.0,384.0,240.0,6.0,0.0
5084,62.0,384.0,390.0,7.0,0.0
5085,66.0,96.0,780.0,7.0,0.0
5086,81.0,0.0,780.0,6.0,0.0
5087,62.0,336.0,390.0,7.0,0.0
5088,65.0,144.0,240.0,7.0,0.0
5089,62.0,96.0,390.0,7.0,0.0
5090,80.0,0.0,240.0,6.0,0.0
5091,66.0,0.0,240.0,7.0,0.0
5092,81.0,240.0,240.0,6.0,0.0
5093,80.0,144.0,240.0,6.0,0.0
5094,65.0,0.0,240.0,7.0,0.0
5095,62.0,48.0,390.0,7.0,0.0
5096,66.0,0.0,180.0,7.0,0.0
5097,81.0,288.0,180.0,6.0,0.0
5098,83.0,144.0,240.0,6.0,0.0
5099,67.0,0.0,240.0,7.0,0.0
5100,62.0,96.0,390.0,7.0,0.0
5101,66.0,0.0,240.0,7.0,0.0
5102,81.0,240.0,240.0,6.0,0.0
5103,64.0,0.0,240.0,7.0,0.0
5104,79.0,192.0,240.0,6.0,0.0
5105,62.0,0.0,180.0,7.0,0.0
5106,78.0,432.0,180.0,6.0,0.0
5107,62.0,0.0,390.0,7.0,0.0
5108,78.0,456.0,390.0,6.0,0.0
5109,81.0,96.0,360.0,6.0,0.0
5110,78.0,216.0,90.0,6.0,0.0
5111,74.0,48.0,180.0,6.0,0.0
5112,54.0,240.0,240.0,7.0,0.0
5113,50.0,0.0,960.0,8.0,0.0
5114,57.0,192.0,240.0,7.0,0.0
5115,54.0,240.0,240.0,7.0,0.0
5116,74.0,48.0,180.0,6.0,0.0
5117,57.0,0.0,240.0,7.0,0.0
5118,52.0,240.0,240.0,7.0,0.0
5119,49.0,0.0,960.0,8.0,0.0
5120,69.0,48.0,180.0,6.0,0.0
5121,45.0,192.0,15.0,8.0,0.0
5122,57.0,192.0,240.0,7.0,0.0
5123,69.0,48.0,180.0,6.0,0.0
5124,52.0,240.0,240.0,7.0,0.0
5125,61.0,0.0,960.0,7.0,0.0
5126,57.0,0.0,15.0,7.0,0.0
5127,64.0,0.0,960.0,7.0,0.0
5128,67.0,192.0,960.0,6.0,0.0
5129,50.0,480.0,300.0,8.0,0.0
5130,45.0,192.0,300.0,8.0,0.0
5131,66.0,192.0,180.0,6.0,0.0
5132,38.0,0.0,390.0,8.0,0.0
5133,62.0,96.0,390.0,7.0,0.0
5134,74.0,240.0,240.0,6.0,0.0
5135,76.0,240.0,240.0,6.0,0.0
5136,78.0,432.0,240.0,6.0,0.0
5137,79.0,80.0,720.0,6.0,0.0
5138,57.0,288.0,1140.0,8.0,0.0
5139,64.0,240.0,180.0,7.0,0.0
5140,61.0,0.0,180.0,7.0,0.0
5141,64.0,48.0,180.0,7.0,0.0
5142,61.0,0.0,180.0,7.0,0.0
5143,78.0,80.0,90.0,6.0,0.0
5144,62.0,0.0,180.0,7.0,0.0
5145,66.0,48.0,180.0,7.0,0.0
5146,76.0,32.0,90.0,6.0,0.0
5147,74.0,144.0,90.0,6.0,0.0
5148,64.0,0.0,180.0,7.0,0.0
5149,67.0,0.0,180.0,7.0,0.0
5150,73.0,48.0,150.0,6.0,0.0
5151,76.0,240.0,240.0,6.0,0.0
5152,78.0,240.0,240.0,6.0,0.0
5153,79.0,432.0,240.0,6.0,0.0
5154,81.0,80.0,720.0,6.0,0.0
5155,62.0,0.0,180.0,7.0,0.0
5156,66.0,240.0,180.0,7.0,0.0
5157,62.0,48.0,180.0,7.0,0.0
5158,66.0,0.0,180.0,7.0,0.0
5159,79.0,80.0,90.0,6.0,0.0
5160,67.0,48.0,180.0,7.0,0.0
5161,64.0,0.0,180.0,7.0,0.0
5162,78.0,32.0,90.0,6.0,0.0
5163,76.0,144.0,90.0,6.0,0.0
5164,66.0,288.0,180.0,7.0,0.0
5165,74.0,48.0,150.0,6.0,0.0
5166,69.0,0.0,180.0,7.0,0.0
5167,81.0,240.0,240.0,6.0,0.0
5168,83.0,240.0,240.0,6.0,0.0
5169,85.0,432.0,240.0,6.0,0.0
5170,86.0,80.0,720.0,6.0,0.0
5171,64.0,288.0,1140.0,8.0,0.0
5172,71.0,240.0,180.0,7.0,0.0
5173,68.0,0.0,180.0,7.0,0.0
5174,68.0,48.0,180.0,7.0,0.0
5175,71.0,0.0,180.0,7.0,0.0
5176,85.0,80.0,90.0,6.0,0.0
5177,69.0,48.0,180.0,7.0,0.0
5178,73.0,0.0,180.0,7.0,0.0
5179,83.0,32.0,90.0,6.0,0.0
5180,81.0,144.0,90.0,6.0,0.0
5181,80.0,48.0,150.0,6.0,0.0
5182,74.0,0.0,180.0,7.0,0.0
5183,71.0,0.0,180.0,7.0,0.0
5184,83.0,240.0,240.0,6.0,0.0
5185,85.0,240.0,240.0,6.0,0.0
5186,86.0,456.0,240.0,6.0,0.0
5187,88.0,80.0,720.0,6.0,0.0
5188,69.0,240.0,210.0,7.0,0.0
5189,73.0,0.0,210.0,7.0,0.0
5190,73.0,24.0,210.0,7.0,0.0
5191,69.0,0.0,210.0,7.0,0.0
5192,71.0,0.0,210.0,7.0,0.0
5193,74.0,24.0,210.0,7.0,0.0
5194,86.0,80.0,90.0,6.0,0.0
5195,85.0,56.0,90.0,6.0,0.0
5196,83.0,144.0,90.0,6.0,0.0
5197,73.0,240.0,210.0,7.0,0.0
5198,81.0,72.0,150.0,6.0,0.0
5199,76.0,0.0,210.0,7.0,0.0
5200,81.0,240.0,210.0,6.0,0.0
5201,81.0,240.0,210.0,6.0,0.0
5202,81.0,408.0,210.0,6.0,0.0
5203,66.0,96.0,780.0,7.0,0.0
5204,62.0,384.0,390.0,7.0,0.0
5205,81.0,0.0,780.0,6.0,0.0
5206,62.0,336.0,390.0,7.0,0.0
5207,65.0,144.0,240.0,7.0,0.0
5208,80.0,0.0,240.0,6.0,0.0
5209,62.0,96.0,390.0,7.0,0.0
5210,81.0,240.0,240.0,6.0,0.0
5211,66.0,0.0,240.0,7.0,0.0
5212,62.0,48.0,390.0,7.0,0.0
5213,65.0,144.0,240.0,7.0,0.0
5214,80.0,0.0,240.0,6.0,0.0
5215,66.0,288.0,180.0,7.0,0.0
5216,81.0,0.0,180.0,6.0,0.0
5217,83.0,0.0,240.0,6.0,0.0
5218,62.0,96.0,390.0,7.0,0.0
5219,67.0,144.0,240.0,7.0,0.0
5220,81.0,0.0,240.0,6.0,0.0
5221,66.0,240.0,240.0,7.0,0.0
5222,79.0,0.0,240.0,6.0,0.0
5223,64.0,192.0,240.0,7.0,0.0
5224,62.0,432.0,180.0,7.0,0.0
5225,78.0,0.0,180.0,6.0,0.0
5226,78.0,0.0,390.0,6.0,0.0
5227,62.0,456.0,390.0,7.0,0.0
5228,81.0,120.0,360.0,6.0,0.0
5229,78.0,192.0,120.0,6.0,0.0
5230,54.0,240.0,210.0,7.0,0.0
5231,74.0,24.0,180.0,6.0,0.0
5232,50.0,0.0,960.0,8.0,0.0
5233,57.0,216.0,210.0,7.0,0.0
5234,54.0,240.0,210.0,7.0,0.0
5235,74.0,24.0,180.0,6.0,0.0
5236,57.0,24.0,210.0,7.0,0.0
5237,49.0,384.0,960.0,8.0,0.0
5238,45.0,192.0,15.0,8.0,0.0
5239,52.0,240.0,210.0,7.0,0.0
5240,69.0,24.0,180.0,6.0,0.0
5241,57.0,216.0,210.0,7.0,0.0
5242,52.0,240.0,210.0,7.0,0.0
5243,69.0,24.0,180.0,6.0,0.0
5244,57.0,24.0,210.0,7.0,0.0
5245,67.0,0.0,960.0,6.0,0.0
5246,64.0,0.0,960.0,7.0,0.0
5247,57.0,0.0,1350.0,7.0,0.0
5248,61.0,144.0,960.0,7.0,0.0
5249,50.0,480.0,390.0,8.0,0.0
5250,45.0,96.0,390.0,8.0,0.0
5251,62.0,96.0,390.0,7.0,0.0
5252,66.0,156.0,150.0,6.0,0.0
5253,38.0,0.0,390.0,8.0,0.0
5254,62.0,84.0,60.0,6.0,0.0
5255,74.0,60.0,180.0,6.0,0.0
5256,64.0,180.0,60.0,6.0,0.0
5257,76.0,60.0,180.0,6.0,0.0
5258,66.0,180.0,60.0,6.0,0.0
5259,78.0,60.0,180.0,6.0,0.0
5260,67.0,0.0,720.0,2.0,0.0
5261,67.0,324.0,60.0,6.0,0.0
5262,91.0,80.0,720.0,0.0,0.0
5263,64.0,0.0,720.0,2.0,0.0
5264,73.0,0.0,720.0,1.0,0.0
5265,45.0,26.0,1890.0,14.0,0.0
5266,79.0,0.0,720.0,10.0,0.0
5267,57.0,0.0,1890.0,13.0,0.0
5268,76.0,0.0,720.0,1.0,0.0
5269,79.0,36.0,330.0,6.0,0.0
5270,57.0,0.0,180.0,3.0,0.0
5271,45.0,240.0,180.0,3.0,0.0
5272,61.0,0.0,150.0,12.0,0.0
5273,64.0,12.0,150.0,11.0,0.0
5274,61.0,0.0,240.0,12.0,0.0
5275,45.0,48.0,180.0,3.0,0.0
5276,57.0,0.0,180.0,3.0,0.0
5277,64.0,0.0,240.0,11.0,0.0
5278,62.0,0.0,240.0,2.0,0.0
5279,66.0,0.0,240.0,2.0,0.0
5280,45.0,0.0,180.0,3.0,0.0
5281,57.0,0.0,180.0,3.0,0.0
5282,90.0,0.0,90.0,0.0,0.0
5283,78.0,80.0,90.0,10.0,0.0
5284,66.0,0.0,180.0,11.0,0.0
5285,62.0,48.0,180.0,12.0,0.0
5286,74.0,0.0,240.0,1.0,0.0
5287,78.0,0.0,240.0,1.0,0.0
5288,88.0,32.0,90.0,0.0,0.0
5289,76.0,0.0,90.0,10.0,0.0
5290,86.0,0.0,90.0,0.0,0.0
5291,74.0,192.0,90.0,10.0,0.0
5292,67.0,0.0,180.0,11.0,0.0
5293,79.0,0.0,180.0,1.0,0.0
5294,64.0,0.0,180.0,2.0,0.0
5295,61.0,0.0,180.0,2.0,0.0
5296,64.0,0.0,180.0,12.0,0.0
5297,85.0,0.0,180.0,0.0,0.0
5298,73.0,0.0,180.0,10.0,0.0
5299,57.0,0.0,180.0,3.0,0.0
5300,45.0,288.0,180.0,3.0,0.0
5301,76.0,0.0,180.0,1.0,0.0
5302,64.0,0.0,240.0,12.0,0.0
5303,67.0,0.0,240.0,11.0,0.0
5304,76.0,240.0,240.0,10.0,0.0
5305,66.0,192.0,240.0,11.0,0.0
5306,62.0,0.0,240.0,12.0,0.0
5307,78.0,0.0,240.0,10.0,0.0
5308,61.0,0.0,180.0,12.0,0.0
5309,79.0,396.0,240.0,10.0,0.0
5310,64.0,10.0,180.0,11.0,0.0
5311,38.0,0.0,1200.0,14.0,0.0
5312,81.0,80.0,720.0,10.0,0.0
5313,66.0,0.0,720.0,2.0,0.0
5314,69.0,0.0,720.0,2.0,0.0
5315,78.0,0.0,720.0,1.0,0.0
5316,74.0,0.0,720.0,1.0,0.0
5317,93.0,0.0,720.0,0.0,0.0
5318,50.0,244.0,1200.0,13.0,0.0
5319,50.0,240.0,180.0,3.0,0.0
5320,62.0,48.0,150.0,12.0,0.0
5321,66.0,0.0,150.0,11.0,0.0
5322,62.0,0.0,180.0,3.0,0.0
5323,66.0,0.0,240.0,11.0,0.0
5324,62.0,0.0,240.0,12.0,0.0
5325,50.0,48.0,180.0,3.0,0.0
5326,62.0,0.0,180.0,3.0,0.0
5327,91.0,0.0,90.0,0.0,0.0
5328,64.0,0.0,180.0,12.0,0.0
5329,62.0,0.0,180.0,3.0,0.0
5330,50.0,48.0,180.0,3.0,0.0
5331,76.0,0.0,240.0,1.0,0.0
5332,79.0,0.0,240.0,1.0,0.0
5333,79.0,80.0,90.0,10.0,0.0
5334,67.0,0.0,240.0,2.0,0.0
5335,64.0,0.0,240.0,2.0,0.0
5336,67.0,0.0,180.0,11.0,0.0
5337,90.0,0.0,90.0,0.0,0.0
5338,78.0,32.0,90.0,10.0,0.0
5339,76.0,0.0,90.0,10.0,0.0
5340,88.0,192.0,90.0,0.0,0.0
5341,66.0,0.0,180.0,12.0,0.0
5342,74.0,0.0,180.0,10.0,0.0
5343,86.0,0.0,180.0,0.0,0.0
5344,78.0,0.0,180.0,1.0,0.0
5345,81.0,0.0,180.0,1.0,0.0
5346,62.0,0.0,180.0,2.0,0.0
5347,69.0,44.0,180.0,11.0,0.0
5348,66.0,0.0,180.0,2.0,0.0
5349,50.0,0.0,180.0,3.0,0.0
5350,62.0,0.0,180.0,3.0,0.0
5351,81.0,0.0,240.0,10.0,0.0
5352,73.0,0.0,240.0,12.0,0.0
5353,76.0,240.0,240.0,11.0,0.0
5354,83.0,192.0,240.0,10.0,0.0
5355,71.0,0.0,240.0,12.0,0.0
5356,74.0,0.0,240.0,11.0,0.0
5357,73.0,36.0,180.0,11.0,0.0
5358,69.0,0.0,180.0,12.0,0.0
5359,85.0,396.0,240.0,10.0,0.0
5360,64.0,26.0,1890.0,13.0,0.0
5361,86.0,0.0,720.0,10.0,0.0
5362,52.0,0.0,1890.0,14.0,0.0
5363,68.0,0.0,150.0,12.0,0.0
5364,64.0,240.0,180.0,1.0,0.0
5365,71.0,48.0,150.0,11.0,0.0
5366,76.0,0.0,180.0,1.0,0.0
5367,71.0,0.0,240.0,11.0,0.0
5368,76.0,48.0,180.0,1.0,0.0
5369,64.0,0.0,180.0,1.0,0.0
5370,68.0,80.0,240.0,12.0,0.0
5371,73.0,0.0,180.0,11.0,0.0
5372,76.0,0.0,180.0,1.0,0.0
5373,85.0,80.0,90.0,10.0,0.0
5374,69.0,0.0,180.0,12.0,0.0
5375,64.0,48.0,180.0,1.0,0.0
5376,83.0,32.0,90.0,10.0,0.0
5377,81.0,192.0,90.0,10.0,0.0
5378,71.0,0.0,180.0,12.0,0.0
5379,80.0,0.0,180.0,10.0,0.0
5380,76.0,288.0,180.0,1.0,0.0
5381,64.0,0.0,180.0,1.0,0.0
5382,74.0,0.0,180.0,11.0,0.0
5383,83.0,0.0,240.0,10.0,0.0
5384,71.0,240.0,240.0,12.0,0.0
5385,74.0,0.0,240.0,11.0,0.0
5386,69.0,192.0,240.0,12.0,0.0
5387,73.0,0.0,240.0,11.0,0.0
5388,85.0,0.0,240.0,10.0,0.0
5389,68.0,0.0,180.0,12.0,0.0
5390,86.0,396.0,240.0,10.0,0.0
5391,71.0,10.0,180.0,11.0,0.0
5392,45.0,0.0,1200.0,14.0,0.0
5393,57.0,148.0,1200.0,13.0,0.0
5394,88.0,0.0,720.0,10.0,0.0
5395,81.0,0.0,180.0,1.0,0.0
5396,69.0,240.0,180.0,1.0,0.0
5397,73.0,48.0,150.0,11.0,0.0
5398,69.0,0.0,150.0,12.0,0.0
5399,81.0,0.0,180.0,1.0,0.0
5400,69.0,48.0,180.0,1.0,0.0
5401,69.0,0.0,240.0,12.0,0.0
5402,73.0,80.0,240.0,11.0,0.0
5403,71.0,12.0,240.0,12.0,0.0
5404,74.0,0.0,240.0,11.0,0.0
5405,86.0,80.0,90.0,10.0,0.0
5406,69.0,36.0,180.0,1.0,0.0
5407,81.0,0.0,180.0,1.0,0.0
5408,85.0,32.0,90.0,10.0,0.0
5409,83.0,216.0,90.0,10.0,0.0
5410,73.0,48.0,390.0,12.0,0.0
5411,76.0,0.0,390.0,11.0,0.0
5412,81.0,20.0,210.0,10.0,0.0
5413,57.0,24.0,180.0,3.0,0.0
5414,79.0,192.0,240.0,1.0,0.0
5415,76.0,0.0,240.0,1.0,0.0
5416,61.0,0.0,240.0,2.0,0.0
5417,81.0,0.0,240.0,0.0,0.0
5418,81.0,24.0,210.0,10.0,0.0
5419,64.0,0.0,240.0,2.0,0.0
5420,81.0,24.0,210.0,10.0,0.0
5421,62.0,0.0,240.0,2.0,0.0
5422,93.0,0.0,180.0,0.0,0.0
5423,74.0,144.0,240.0,1.0,0.0
5424,57.0,24.0,180.0,3.0,0.0
5425,78.0,0.0,240.0,1.0,0.0
5426,66.0,0.0,240.0,2.0,0.0
5427,81.0,24.0,210.0,10.0,0.0
5428,57.0,24.0,180.0,3.0,0.0
5429,64.0,384.0,240.0,2.0,0.0
5430,76.0,0.0,240.0,1.0,0.0
5431,67.0,0.0,240.0,2.0,0.0
5432,93.0,48.0,150.0,0.0,0.0
5433,73.0,0.0,240.0,1.0,0.0
5434,69.0,0.0,900.0,12.0,0.0
5435,86.0,0.0,3270.0,1.0,0.0
5436,66.0,0.0,900.0,2.0,0.0
5437,69.0,0.0,900.0,2.0,0.0
5438,93.0,288.0,900.0,0.0,0.0
5439,50.0,0.0,390.0,13.0,0.0
5440,81.0,0.0,900.0,10.0,0.0
5441,74.0,36.0,3270.0,1.0,0.0
5442,50.0,0.0,900.0,3.0,0.0
5443,66.0,0.0,900.0,11.0,0.0
5444,62.0,0.0,900.0,3.0,0.0
5445,45.0,480.0,390.0,14.0,0.0
5446,62.0,0.0,390.0,13.0,0.0
5447,50.0,48.0,390.0,14.0,0.0
5448,65.0,0.0,240.0,11.0,0.0
5449,50.0,0.0,390.0,3.0,0.0
5450,68.0,0.0,240.0,12.0,0.0
5451,80.0,0.0,240.0,10.0,0.0
5452,62.0,0.0,390.0,3.0,0.0
5453,92.0,144.0,240.0,0.0,0.0
5454,65.0,0.0,240.0,2.0,0.0
5455,68.0,0.0,240.0,2.0,0.0
5456,50.0,96.0,390.0,14.0,0.0
5457,62.0,0.0,390.0,13.0,0.0
5458,69.0,0.0,240.0,2.0,0.0
5459,66.0,0.0,240.0,11.0,0.0
5460,66.0,0.0,240.0,2.0,0.0
5461,69.0,240.0,240.0,12.0,0.0
5462,93.0,0.0,240.0,0.0,0.0
5463,81.0,0.0,240.0,10.0,0.0
5464,65.0,0.0,240.0,11.0,0.0
5465,62.0,0.0,390.0,13.0,0.0
5466,65.0,0.0,240.0,2.0,0.0
5467,68.0,0.0,240.0,2.0,0.0
5468,62.0,84.0,390.0,3.0,0.0
5469,80.0,144.0,240.0,10.0,0.0
5470,50.0,0.0,390.0,14.0,0.0
5471,92.0,0.0,240.0,0.0,0.0
5472,50.0,0.0,390.0,3.0,0.0
5473,68.0,0.0,240.0,12.0,0.0
5474,93.0,0.0,240.0,0.0,0.0
5475,66.0,0.0,240.0,11.0,0.0
5476,69.0,252.0,240.0,2.0,0.0
5477,69.0,0.0,240.0,12.0,0.0
5478,66.0,0.0,240.0,2.0,0.0
5479,81.0,0.0,240.0,10.0,0.0
5480,50.0,144.0,960.0,14.0,0.0
5481,71.0,240.0,240.0,12.0,0.0
5482,62.0,0.0,1350.0,3.0,0.0
5483,50.0,0.0,1350.0,3.0,0.0
5484,62.0,0.0,960.0,13.0,0.0
5485,95.0,0.0,240.0,0.0,0.0
5486,67.0,0.0,240.0,2.0,0.0
5487,83.0,0.0,240.0,10.0,0.0
5488,71.0,0.0,240.0,2.0,0.0
5489,67.0,0.0,240.0,11.0,0.0
5490,69.0,0.0,240.0,12.0,0.0
5491,69.0,0.0,240.0,2.0,0.0
5492,66.0,0.0,240.0,2.0,0.0
5493,66.0,0.0,240.0,11.0,0.0
5494,81.0,0.0,240.0,10.0,0.0
5495,93.0,240.0,240.0,0.0,0.0
5496,64.0,0.0,240.0,11.0,0.0
5497,67.0,0.0,240.0,12.0,0.0
5498,79.0,0.0,240.0,10.0,0.0
5499,91.0,0.0,240.0,0.0,0.0
5500,67.0,192.0,240.0,2.0,0.0
5501,64.0,0.0,240.0,2.0,0.0
5502,90.0,0.0,180.0,0.0,0.0
5503,66.0,36.0,180.0,2.0,0.0
5504,62.0,0.0,180.0,2.0,0.0
5505,78.0,0.0,240.0,10.0,0.0
5506,66.0,12.0,240.0,12.0,0.0
5507,62.0,0.0,240.0,11.0,0.0
5508,62.0,0.0,450.0,11.0,0.0
5509,90.0,0.0,390.0,0.0,0.0
5510,62.0,0.0,390.0,2.0,0.0
5511,66.0,0.0,390.0,2.0,0.0
5512,66.0,24.0,450.0,12.0,0.0
5513,50.0,0.0,390.0,13.0,0.0
5514,78.0,156.0,150.0,10.0,0.0
5515,38.0,0.0,390.0,14.0,0.0
5516,79.0,60.0,60.0,10.0,0.0
5517,78.0,24.0,60.0,10.0,0.0
5518,76.0,36.0,60.0,10.0,0.0
5519,78.0,240.0,60.0,10.0,0.0
5520,81.0,240.0,240.0,10.0,0.0
5521,78.0,132.0,240.0,10.0,0.0
5522,57.0,228.0,150.0,12.0,0.0
5523,62.0,0.0,150.0,3.0,0.0
5524,45.0,0.0,390.0,14.0,0.0
5525,57.0,0.0,390.0,13.0,0.0
5526,86.0,12.0,120.0,0.0,0.0
5527,66.0,0.0,150.0,11.0,0.0
5528,74.0,0.0,150.0,10.0,0.0
5529,62.0,0.0,150.0,2.0,0.0
5530,62.0,0.0,150.0,3.0,0.0
5531,62.0,0.0,150.0,2.0,0.0
5532,54.0,240.0,150.0,12.0,0.0
5533,74.0,0.0,150.0,10.0,0.0
5534,86.0,12.0,120.0,0.0,0.0
5535,62.0,0.0,150.0,11.0,0.0
5536,45.0,228.0,390.0,14.0,0.0
5537,57.0,0.0,390.0,13.0,0.0
5538,57.0,0.0,150.0,12.0,0.0
5539,66.0,228.0,150.0,11.0,0.0
5540,74.0,0.0,150.0,10.0,0.0
5541,86.0,12.0,120.0,0.0,0.0
5542,62.0,0.0,150.0,11.0,0.0
5543,62.0,0.0,150.0,3.0,0.0
5544,62.0,0.0,150.0,2.0,0.0
5545,54.0,0.0,150.0,12.0,0.0
5546,57.0,0.0,150.0,2.0,0.0
5547,64.0,0.0,150.0,11.0,0.0
5548,81.0,12.0,120.0,0.0,0.0
5549,57.0,228.0,150.0,3.0,0.0
5550,33.0,0.0,390.0,14.0,0.0
5551,45.0,0.0,390.0,13.0,0.0
5552,69.0,0.0,150.0,10.0,0.0
5553,55.0,0.0,150.0,12.0,0.0
5554,52.0,0.0,150.0,12.0,0.0
5555,69.0,0.0,150.0,10.0,0.0
5556,61.0,0.0,150.0,11.0,0.0
5557,81.0,12.0,120.0,0.0,0.0
5558,57.0,0.0,150.0,3.0,0.0
5559,57.0,240.0,150.0,2.0,0.0
5560,33.0,0.0,390.0,14.0,0.0
5561,64.0,0.0,150.0,11.0,0.0
5562,45.0,0.0,390.0,13.0,0.0
5563,55.0,228.0,150.0,12.0,0.0
5564,81.0,12.0,120.0,0.0,0.0
5565,57.0,336.0,150.0,2.0,0.0
5566,52.0,0.0,150.0,12.0,0.0
5567,61.0,0.0,150.0,11.0,0.0
5568,69.0,0.0,150.0,10.0,0.0
5569,57.0,0.0,150.0,3.0,0.0
5570,51.0,0.0,960.0,2.0,0.0
5571,69.0,0.0,960.0,1.0,0.0
5572,35.0,120.0,960.0,14.0,0.0
5573,47.0,0.0,960.0,13.0,0.0
5574,54.0,0.0,960.0,2.0,0.0
5575,75.0,0.0,960.0,1.0,0.0
5576,78.0,0.0,960.0,0.0,0.0
5577,47.0,0.0,960.0,7.0,0.0
5578,66.0,0.0,960.0,10.0,0.0
5579,59.0,0.0,960.0,7.0,0.0
5580,69.0,120.0,120.0,6.0,0.0
5581,57.0,48.0,180.0,12.0,0.0
5582,75.0,72.0,120.0,6.0,0.0
5583,63.0,0.0,180.0,11.0,0.0
5584,78.0,120.0,120.0,6.0,0.0
5585,57.0,48.0,180.0,12.0,0.0
5586,63.0,0.0,180.0,11.0,0.0
5587,81.0,72.0,120.0,6.0,0.0
5588,87.0,120.0,120.0,6.0,0.0
5589,57.0,0.0,180.0,12.0,0.0
5590,63.0,48.0,180.0,11.0,0.0
5591,90.0,72.0,120.0,6.0,0.0
5592,93.0,0.0,120.0,6.0,0.0
5593,67.0,0.0,960.0,10.0,0.0
5594,52.0,0.0,960.0,2.0,0.0
5595,40.0,0.0,960.0,7.0,0.0
5596,52.0,0.0,960.0,7.0,0.0
5597,52.0,0.0,900.0,13.0,0.0
5598,76.0,0.0,960.0,1.0,0.0
5599,91.0,120.0,120.0,6.0,0.0
5600,40.0,48.0,900.0,14.0,0.0
5601,55.0,0.0,960.0,2.0,0.0
5602,79.0,240.0,960.0,0.0,0.0
5603,67.0,0.0,960.0,1.0,0.0
5604,88.0,120.0,120.0,6.0,0.0
5605,55.0,120.0,240.0,12.0,0.0
5606,64.0,48.0,180.0,11.0,0.0
5607,83.0,72.0,120.0,6.0,0.0
5608,79.0,0.0,120.0,6.0,0.0
5609,64.0,0.0,180.0,11.0,0.0
5610,59.0,48.0,180.0,12.0,0.0
5611,76.0,72.0,120.0,6.0,0.0
5612,71.0,120.0,120.0,6.0,0.0
5613,59.0,0.0,180.0,12.0,0.0
5614,67.0,72.0,120.0,6.0,0.0
5615,64.0,0.0,180.0,11.0,0.0
5616,64.0,0.0,120.0,6.0,0.0
5617,72.0,0.0,960.0,1.0,0.0
5618,50.0,0.0,960.0,13.0,0.0
5619,54.0,0.0,960.0,2.0,0.0
5620,81.0,0.0,960.0,0.0,0.0
5621,38.0,0.0,960.0,14.0,0.0
5622,78.0,0.0,960.0,1.0,0.0
5623,57.0,0.0,960.0,2.0,0.0
5624,69.0,120.0,960.0,10.0,0.0
5625,38.0,0.0,960.0,7.0,0.0
5626,50.0,0.0,960.0,7.0,0.0
5627,60.0,120.0,120.0,6.0,0.0
5628,66.0,0.0,180.0,11.0,0.0
5629,66.0,72.0,120.0,6.0,0.0
5630,60.0,48.0,180.0,12.0,0.0
5631,69.0,120.0,120.0,6.0,0.0
5632,72.0,72.0,120.0,6.0,0.0
5633,66.0,0.0,180.0,11.0,0.0
5634,60.0,48.0,180.0,12.0,0.0
5635,78.0,120.0,120.0,6.0,0.0
5636,66.0,0.0,180.0,11.0,0.0
5637,60.0,48.0,180.0,12.0,0.0
5638,81.0,72.0,120.0,6.0,0.0
5639,84.0,0.0,120.0,6.0,0.0
5640,43.0,0.0,900.0,7.0,0.0
5641,55.0,0.0,900.0,7.0,0.0
5642,55.0,0.0,900.0,2.0,0.0
5643,83.0,0.0,900.0,0.0,0.0
5644,71.0,0.0,900.0,1.0,0.0
5645,43.0,0.0,900.0,14.0,0.0
5646,83.0,120.0,120.0,6.0,0.0
5647,59.0,0.0,900.0,2.0,0.0
5648,79.0,0.0,900.0,1.0,0.0
5649,71.0,0.0,900.0,10.0,0.0
5650,55.0,48.0,900.0,13.0,0.0
5651,79.0,120.0,120.0,6.0,0.0
5652,59.0,120.0,240.0,12.0,0.0
5653,67.0,48.0,180.0,11.0,0.0
5654,74.0,72.0,120.0,6.0,0.0
5655,71.0,0.0,120.0,6.0,0.0
5656,67.0,0.0,180.0,11.0,0.0
5657,67.0,72.0,120.0,6.0,0.0
5658,62.0,48.0,180.0,12.0,0.0
5659,62.0,120.0,120.0,6.0,0.0
5660,62.0,0.0,180.0,12.0,0.0
5661,67.0,0.0,180.0,11.0,0.0
5662,59.0,72.0,120.0,6.0,0.0
5663,55.0,240.0,120.0,6.0,0.0
5664,57.0,0.0,900.0,7.0,0.0
5665,45.0,24.0,900.0,7.0,0.0
5666,55.0,0.0,960.0,2.0,0.0
5667,76.0,0.0,960.0,1.0,0.0
5668,45.0,120.0,960.0,14.0,0.0
5669,85.0,0.0,900.0,0.0,0.0
5670,57.0,0.0,960.0,13.0,0.0
5671,73.0,0.0,900.0,10.0,0.0
5672,61.0,0.0,960.0,2.0,0.0
5673,79.0,0.0,960.0,1.0,0.0
5674,67.0,120.0,120.0,6.0,0.0
5675,67.0,0.0,180.0,11.0,0.0
5676,73.0,72.0,120.0,6.0,0.0
5677,64.0,48.0,180.0,12.0,0.0
5678,76.0,120.0,120.0,6.0,0.0
5679,67.0,0.0,180.0,11.0,0.0
5680,64.0,48.0,180.0,12.0,0.0
5681,79.0,72.0,120.0,6.0,0.0
5682,85.0,120.0,120.0,6.0,0.0
5683,64.0,0.0,180.0,12.0,0.0
5684,67.0,0.0,180.0,11.0,0.0
5685,88.0,72.0,120.0,6.0,0.0
5686,91.0,24.0,90.0,6.0,0.0
5687,59.0,0.0,450.0,7.0,0.0
5688,91.0,72.0,120.0,6.0,0.0
5689,47.0,0.0,480.0,14.0,0.0
5690,78.0,0.0,180.0,1.0,0.0
5691,66.0,72.0,390.0,11.0,0.0
5692,54.0,0.0,180.0,2.0,0.0
5693,62.0,0.0,180.0,2.0,0.0
5694,47.0,24.0,450.0,7.0,0.0
5695,76.0,120.0,240.0,10.0,0.0
5696,62.0,72.0,780.0,12.0,0.0
5697,88.0,0.0,240.0,0.0,0.0
5698,74.0,48.0,180.0,1.0,0.0
5699,59.0,0.0,480.0,13.0,0.0
5700,90.0,0.0,120.0,6.0,0.0
5701,86.0,0.0,240.0,0.0,0.0
5702,88.0,24.0,120.0,6.0,0.0
5703,74.0,120.0,240.0,10.0,0.0
5704,86.0,0.0,120.0,6.0,0.0
5705,43.0,0.0,450.0,14.0,0.0
5706,85.0,120.0,120.0,6.0,0.0
5707,55.0,0.0,450.0,7.0,0.0
5708,43.0,0.0,450.0,7.0,0.0
5709,55.0,12.0,450.0,13.0,0.0
5710,85.0,48.0,240.0,0.0,0.0
5711,73.0,0.0,240.0,10.0,0.0
5712,67.0,72.0,390.0,11.0,0.0
5713,83.0,0.0,120.0,6.0,0.0
5714,83.0,120.0,240.0,0.0,0.0
5715,82.0,24.0,120.0,6.0,0.0
5716,71.0,12.0,240.0,10.0,0.0
5717,83.0,0.0,90.0,6.0,0.0
5718,81.0,72.0,390.0,0.0,0.0
5719,54.0,24.0,450.0,7.0,0.0
5720,62.0,0.0,480.0,12.0,0.0
5721,81.0,120.0,120.0,6.0,0.0
5722,69.0,0.0,480.0,10.0,0.0
5723,54.0,0.0,480.0,13.0,0.0
5724,62.0,0.0,480.0,11.0,0.0
5725,42.0,120.0,480.0,14.0,0.0
5726,86.0,120.0,120.0,6.0,0.0
5727,85.0,24.0,120.0,6.0,0.0
5728,84.0,0.0,120.0,6.0,0.0
5729,55.0,0.0,450.0,13.0,0.0
5730,59.0,120.0,480.0,12.0,0.0
5731,67.0,0.0,480.0,10.0,0.0
5732,83.0,120.0,120.0,6.0,0.0
5733,43.0,0.0,450.0,14.0,0.0
5734,55.0,24.0,450.0,7.0,0.0
5735,64.0,0.0,480.0,11.0,0.0
5736,82.0,120.0,120.0,6.0,0.0
5737,81.0,96.0,120.0,6.0,0.0
5738,79.0,0.0,90.0,6.0,0.0
5739,62.0,0.0,480.0,11.0,0.0
5740,57.0,0.0,450.0,13.0,0.0
5741,57.0,120.0,480.0,12.0,0.0
5742,66.0,0.0,480.0,10.0,0.0
5743,57.0,0.0,450.0,7.0,0.0
5744,78.0,120.0,120.0,6.0,0.0
5745,45.0,24.0,450.0,14.0,0.0
5746,79.0,120.0,120.0,6.0,0.0
5747,80.0,96.0,120.0,6.0,0.0
5748,81.0,0.0,90.0,6.0,0.0
5749,61.0,24.0,450.0,11.0,0.0
5750,55.0,0.0,450.0,12.0,0.0
5751,64.0,0.0,450.0,10.0,0.0
5752,81.0,120.0,120.0,6.0,0.0
5753,45.0,0.0,450.0,7.0,0.0
5754,45.0,0.0,450.0,13.0,0.0
5755,33.0,0.0,450.0,14.0,0.0
5756,79.0,120.0,120.0,6.0,0.0
5757,78.0,96.0,120.0,6.0,0.0
5758,76.0,192.0,120.0,6.0,0.0
5759,54.0,0.0,390.0,12.0,0.0
5760,62.0,0.0,390.0,10.0,0.0
5761,62.0,0.0,390.0,11.0,0.0
5762,50.0,48.0,390.0,13.0,0.0
5763,50.0,0.0,390.0,7.0,0.0
5764,38.0,0.0,390.0,14.0,0.0
5765,86.0,0.0,5520.0,0.0,0.0
5766,50.0,192.0,180.0,2.0,0.0
5767,74.0,0.0,390.0,6.0,0.0
5768,62.0,240.0,180.0,2.0,0.0
5769,62.0,240.0,180.0,2.0,0.0
5770,62.0,288.0,180.0,2.0,0.0
5771,61.0,240.0,240.0,2.0,0.0
5772,62.0,0.0,240.0,2.0,0.0
5773,74.0,240.0,240.0,1.0,0.0
5774,60.0,0.0,240.0,2.0,0.0
5775,76.0,228.0,240.0,1.0,0.0
5776,62.0,240.0,240.0,2.0,0.0
5777,78.0,12.0,240.0,1.0,0.0
5778,59.0,0.0,240.0,2.0,0.0
5779,81.0,228.0,240.0,1.0,0.0
5780,62.0,240.0,240.0,2.0,0.0
5781,79.0,12.0,240.0,1.0,0.0
5782,57.0,216.0,240.0,2.0,0.0
5783,78.0,24.0,450.0,1.0,0.0
5784,62.0,240.0,240.0,2.0,0.0
5785,61.0,240.0,240.0,2.0,0.0
5786,78.0,240.0,240.0,1.0,0.0
5787,62.0,0.0,240.0,2.0,0.0
5788,74.0,0.0,240.0,1.0,0.0
5789,60.0,0.0,240.0,2.0,0.0
5790,76.0,228.0,240.0,1.0,0.0
5791,79.0,0.0,240.0,1.0,0.0
5792,81.0,12.0,240.0,1.0,0.0
5793,78.0,0.0,240.0,1.0,0.0
5794,57.0,240.0,240.0,2.0,0.0
5795,83.0,12.0,450.0,1.0,0.0
5796,55.0,0.0,240.0,2.0,0.0
5797,79.0,216.0,240.0,1.0,0.0
5798,74.0,12.0,240.0,1.0,0.0
5799,62.0,240.0,240.0,2.0,0.0
5800,54.0,240.0,240.0,2.0,0.0
5801,50.0,48.0,900.0,3.0,0.0
5802,62.0,0.0,900.0,3.0,0.0
5803,74.0,0.0,690.0,1.0,0.0
5804,81.0,228.0,690.0,1.0,0.0
5805,62.0,204.0,240.0,2.0,0.0
5806,54.0,0.0,480.0,2.0,0.0
5807,82.0,0.0,240.0,1.0,0.0
5808,72.0,240.0,240.0,1.0,0.0
5809,62.0,0.0,240.0,2.0,0.0
5810,83.0,0.0,240.0,1.0,0.0
5811,55.0,0.0,240.0,2.0,0.0
5812,62.0,0.0,630.0,3.0,0.0
5813,50.0,0.0,630.0,3.0,0.0
5814,71.0,228.0,240.0,1.0,0.0
5815,83.0,4.0,240.0,0.0,0.0
5816,86.0,8.0,240.0,1.0,0.0
5817,56.0,0.0,240.0,2.0,0.0
5818,62.0,144.0,240.0,2.0,0.0
5819,77.0,0.0,240.0,1.0,0.0
5820,81.0,0.0,240.0,0.0,0.0
5821,78.0,0.0,390.0,1.0,0.0
5822,86.0,144.0,240.0,1.0,0.0
5823,57.0,0.0,150.0,2.0,0.0
5824,62.0,0.0,150.0,2.0,0.0
5825,86.0,144.0,480.0,0.0,0.0
5826,57.0,0.0,150.0,2.0,0.0
5827,57.0,0.0,150.0,3.0,0.0
5828,81.0,240.0,150.0,1.0,0.0
5829,57.0,96.0,150.0,3.0,0.0
5830,66.0,0.0,150.0,2.0,0.0
5831,54.0,0.0,150.0,2.0,0.0
5832,74.0,92.0,150.0,1.0,0.0
5833,57.0,0.0,150.0,3.0,0.0
5834,90.0,148.0,240.0,0.0,0.0
5835,69.0,0.0,150.0,2.0,0.0
5836,78.0,0.0,150.0,1.0,0.0
5837,50.0,0.0,150.0,2.0,0.0
5838,57.0,96.0,150.0,2.0,0.0
5839,81.0,144.0,240.0,1.0,0.0
5840,45.0,44.0,900.0,2.0,0.0
5841,57.0,0.0,150.0,3.0,0.0
5842,93.0,0.0,240.0,0.0,0.0
5843,78.0,0.0,150.0,1.0,0.0
5844,57.0,0.0,150.0,3.0,0.0
5845,61.0,0.0,150.0,2.0,0.0
5846,91.0,144.0,480.0,0.0,0.0
5847,79.0,0.0,150.0,1.0,0.0
5848,76.0,240.0,150.0,1.0,0.0
5849,57.0,0.0,150.0,3.0,0.0
5850,64.0,96.0,150.0,2.0,0.0
5851,76.0,48.0,150.0,1.0,0.0
5852,88.0,244.0,240.0,0.0,0.0
5853,67.0,0.0,150.0,2.0,0.0
5854,73.0,0.0,150.0,1.0,0.0
5855,57.0,0.0,150.0,3.0,0.0
5856,50.0,240.0,960.0,14.0,0.0
5857,62.0,168.0,4620.0,12.0,0.0
5858,74.0,0.0,4620.0,11.0,0.0
5859,38.0,144.0,240.0,8.0,0.0
5860,62.0,0.0,960.0,13.0,0.0
5861,66.0,0.0,390.0,2.0,0.0
5862,74.0,0.0,390.0,1.0,0.0
5863,86.0,0.0,390.0,0.0,0.0
5864,50.0,0.0,390.0,3.0,0.0
5865,57.0,0.0,390.0,3.0,0.0
5866,86.0,0.0,4620.0,10.0,0.0
5867,50.0,84.0,390.0,2.0,0.0
5868,50.0,240.0,240.0,8.0,0.0
5869,50.0,240.0,240.0,8.0,0.0
5870,50.0,12.0,240.0,8.0,0.0
5871,61.0,0.0,480.0,13.0,0.0
5872,49.0,0.0,480.0,14.0,0.0
5873,49.0,240.0,240.0,8.0,0.0
5874,74.0,0.0,240.0,6.0,0.0
5875,50.0,240.0,240.0,8.0,0.0
5876,60.0,12.0,450.0,13.0,0.0
5877,48.0,216.0,240.0,8.0,0.0
5878,76.0,0.0,240.0,6.0,0.0
5879,48.0,0.0,450.0,14.0,0.0
5880,78.0,252.0,240.0,6.0,0.0
5881,50.0,0.0,240.0,8.0,0.0
5882,81.0,0.0,240.0,6.0,0.0
5883,59.0,0.0,480.0,13.0,0.0
5884,47.0,228.0,240.0,8.0,0.0
5885,47.0,240.0,480.0,14.0,0.0
5886,50.0,0.0,240.0,8.0,0.0
5887,79.0,12.0,240.0,6.0,0.0
5888,45.0,216.0,240.0,8.0,0.0
5889,78.0,24.0,450.0,6.0,0.0
5890,57.0,0.0,240.0,13.0,0.0
5891,45.0,0.0,240.0,14.0,0.0
5892,50.0,0.0,240.0,14.0,0.0
5893,62.0,240.0,240.0,13.0,0.0
5894,50.0,0.0,240.0,8.0,0.0
5895,49.0,0.0,240.0,8.0,0.0
5896,49.0,0.0,240.0,14.0,0.0
5897,61.0,80.0,240.0,13.0,0.0
5898,74.0,160.0,150.0,6.0,0.0
5899,50.0,0.0,240.0,14.0,0.0
5900,62.0,160.0,240.0,13.0,0.0
5901,50.0,0.0,240.0,8.0,0.0
5902,76.0,0.0,150.0,6.0,0.0
5903,48.0,0.0,240.0,8.0,0.0
5904,48.0,80.0,240.0,14.0,0.0
5905,78.0,80.0,150.0,6.0,0.0
5906,60.0,0.0,240.0,13.0,0.0
5907,79.0,148.0,150.0,6.0,0.0
5908,57.0,0.0,240.0,13.0,0.0
5909,45.0,4.0,240.0,8.0,0.0
5910,45.0,0.0,240.0,14.0,0.0
5911,81.0,248.0,150.0,6.0,0.0
5912,55.0,0.0,480.0,13.0,0.0
5913,83.0,240.0,480.0,6.0,0.0
5914,43.0,0.0,480.0,14.0,0.0
5915,43.0,240.0,240.0,8.0,0.0
5916,50.0,0.0,240.0,8.0,0.0
5917,42.0,0.0,450.0,14.0,0.0
5918,81.0,12.0,450.0,6.0,0.0
5919,42.0,48.0,240.0,8.0,0.0
5920,54.0,0.0,450.0,13.0,0.0
5921,50.0,492.0,240.0,8.0,0.0
5922,56.0,0.0,900.0,8.0,0.0
5923,44.0,0.0,960.0,14.0,0.0
5924,62.0,192.0,960.0,11.0,0.0
5925,83.0,60.0,480.0,6.0,0.0
5926,59.0,0.0,960.0,12.0,0.0
5927,56.0,0.0,960.0,13.0,0.0
5928,44.0,42.0,900.0,8.0,0.0
5929,65.0,0.0,960.0,10.0,0.0
5930,85.0,60.0,60.0,6.0,0.0
5931,83.0,60.0,60.0,6.0,0.0
5932,82.0,60.0,60.0,6.0,0.0
5933,83.0,120.0,60.0,6.0,0.0
5934,85.0,72.0,120.0,6.0,0.0
5935,86.0,6.0,120.0,6.0,0.0
5936,57.0,0.0,180.0,8.0,0.0
5937,57.0,48.0,390.0,13.0,0.0
5938,66.0,48.0,180.0,10.0,0.0
5939,57.0,0.0,180.0,12.0,0.0
5940,62.0,0.0,180.0,11.0,0.0
5941,45.0,0.0,390.0,14.0,0.0
5942,86.0,144.0,240.0,6.0,0.0
5943,81.0,0.0,180.0,6.0,0.0
5944,62.0,240.0,180.0,8.0,0.0
5945,78.0,108.0,180.0,10.0,0.0
5946,74.0,0.0,180.0,11.0,0.0
5947,69.0,0.0,180.0,12.0,0.0
5948,66.0,0.0,180.0,8.0,0.0
5949,62.0,48.0,180.0,8.0,0.0
5950,79.0,60.0,60.0,6.0,0.0
5951,78.0,60.0,60.0,6.0,0.0
5952,76.0,12.0,60.0,6.0,0.0
5953,78.0,192.0,60.0,6.0,0.0
5954,57.0,48.0,180.0,13.0,0.0
5955,45.0,0.0,180.0,14.0,0.0
5956,81.0,192.0,240.0,6.0,0.0
5957,57.0,0.0,180.0,8.0,0.0
5958,76.0,0.0,180.0,11.0,0.0
5959,79.0,0.0,180.0,10.0,0.0
5960,69.0,0.0,180.0,12.0,0.0
5961,61.0,0.0,180.0,8.0,0.0
5962,79.0,240.0,180.0,6.0,0.0
5963,73.0,0.0,180.0,10.0,0.0
5964,64.0,0.0,180.0,11.0,0.0
5965,69.0,0.0,180.0,12.0,0.0
5966,55.0,0.0,180.0,8.0,0.0
5967,55.0,0.0,180.0,13.0,0.0
5968,43.0,240.0,180.0,14.0,0.0
5969,76.0,240.0,180.0,6.0,0.0
5970,61.0,0.0,180.0,8.0,0.0
5971,66.0,0.0,180.0,11.0,0.0
5972,42.0,0.0,180.0,14.0,0.0
5973,62.0,48.0,390.0,8.0,0.0
5974,74.0,192.0,180.0,10.0,0.0
5975,54.0,0.0,390.0,8.0,0.0
5976,54.0,0.0,180.0,13.0,0.0
5977,69.0,0.0,180.0,12.0,0.0
5978,74.0,288.0,180.0,6.0,0.0
5979,90.0,192.0,240.0,6.0,0.0
5980,86.0,240.0,180.0,6.0,0.0
5981,43.0,192.0,180.0,14.0,0.0
5982,55.0,48.0,390.0,8.0,0.0
5983,62.0,0.0,180.0,12.0,0.0
5984,74.0,0.0,180.0,11.0,0.0
5985,83.0,0.0,180.0,10.0,0.0
5986,55.0,0.0,180.0,13.0,0.0
5987,71.0,288.0,180.0,6.0,0.0
5988,86.0,192.0,240.0,6.0,0.0
5989,83.0,240.0,180.0,6.0,0.0
5990,45.0,0.0,180.0,14.0,0.0
5991,57.0,0.0,180.0,13.0,0.0
5992,78.0,192.0,180.0,10.0,0.0
5993,74.0,0.0,180.0,11.0,0.0
5994,57.0,48.0,390.0,8.0,0.0
5995,69.0,0.0,180.0,12.0,0.0
5996,69.0,288.0,180.0,6.0,0.0
5997,81.0,192.0,240.0,6.0,0.0
5998,78.0,240.0,180.0,6.0,0.0
5999,69.0,192.0,180.0,12.0,0.0
6000,55.0,48.0,390.0,8.0,0.0
6001,55.0,0.0,180.0,13.0,0.0
6002,73.0,0.0,180.0,11.0,0.0
6003,76.0,0.0,180.0,10.0,0.0
6004,43.0,0.0,180.0,14.0,0.0
6005,69.0,288.0,180.0,6.0,0.0
6006,79.0,192.0,240.0,6.0,0.0
6007,76.0,240.0,180.0,6.0,0.0
6008,69.0,0.0,960.0,2.0,0.0
6009,54.0,0.0,180.0,13.0,0.0
6010,66.0,192.0,960.0,2.0,0.0
6011,78.0,0.0,960.0,1.0,0.0
6012,81.0,0.0,960.0,1.0,0.0
6013,54.0,48.0,390.0,8.0,0.0
6014,42.0,192.0,180.0,14.0,0.0
6015,93.0,0.0,960.0,0.0,0.0
6016,74.0,240.0,180.0,6.0,0.0
6017,81.0,48.0,180.0,10.0,0.0
6018,90.0,192.0,240.0,6.0,0.0
6019,78.0,0.0,180.0,11.0,0.0
6020,69.0,0.0,180.0,12.0,0.0
6021,66.0,0.0,180.0,12.0,0.0
6022,86.0,48.0,180.0,6.0,0.0
6023,91.0,192.0,960.0,0.0,0.0
6024,55.0,48.0,390.0,8.0,0.0
6025,43.0,0.0,180.0,14.0,0.0
6026,79.0,0.0,960.0,1.0,0.0
6027,64.0,0.0,960.0,2.0,0.0
6028,55.0,192.0,180.0,13.0,0.0
6029,67.0,0.0,960.0,2.0,0.0
6030,76.0,0.0,960.0,1.0,0.0
6031,71.0,240.0,180.0,6.0,0.0
6032,67.0,0.0,180.0,12.0,0.0
6033,64.0,0.0,180.0,12.0,0.0
6034,76.0,0.0,180.0,11.0,0.0
6035,79.0,48.0,180.0,10.0,0.0
6036,86.0,192.0,240.0,6.0,0.0
6037,83.0,48.0,180.0,6.0,0.0
6038,57.0,48.0,390.0,8.0,0.0
6039,57.0,192.0,180.0,13.0,0.0
6040,62.0,0.0,960.0,2.0,0.0
6041,66.0,192.0,960.0,2.0,0.0
6042,45.0,0.0,180.0,14.0,0.0
6043,74.0,0.0,960.0,1.0,0.0
6044,90.0,0.0,960.0,0.0,0.0
6045,78.0,0.0,960.0,1.0,0.0
6046,69.0,240.0,180.0,6.0,0.0
6047,81.0,192.0,240.0,6.0,0.0
6048,78.0,0.0,180.0,10.0,0.0
6049,74.0,0.0,180.0,11.0,0.0
6050,62.0,0.0,180.0,12.0,0.0
6051,66.0,48.0,180.0,12.0,0.0
6052,78.0,48.0,180.0,6.0,0.0
6053,33.0,192.0,180.0,14.0,0.0
6054,88.0,0.0,960.0,0.0,0.0
6055,45.0,0.0,180.0,13.0,0.0
6056,61.0,0.0,960.0,2.0,0.0
6057,71.0,192.0,960.0,1.0,0.0
6058,76.0,0.0,960.0,1.0,0.0
6059,64.0,0.0,960.0,2.0,0.0
6060,45.0,48.0,390.0,8.0,0.0
6061,69.0,240.0,180.0,6.0,0.0
6062,79.0,192.0,240.0,6.0,0.0
6063,61.0,0.0,180.0,12.0,0.0
6064,64.0,0.0,180.0,12.0,0.0
6065,76.0,0.0,180.0,10.0,0.0
6066,73.0,48.0,180.0,11.0,0.0
6067,76.0,48.0,180.0,6.0,0.0
6068,74.0,0.0,390.0,1.0,0.0
6069,74.0,0.0,390.0,6.0,0.0
6070,74.0,0.0,180.0,11.0,0.0
6071,38.0,0.0,390.0,14.0,0.0
6072,50.0,0.0,390.0,13.0,0.0
6073,62.0,0.0,390.0,2.0,0.0
6074,62.0,192.0,180.0,12.0,0.0
6075,86.0,0.0,390.0,0.0,0.0
6076,74.0,0.0,180.0,10.0,0.0
6077,50.0,72.0,390.0,8.0,0.0
6078,66.0,0.0,210.0,11.0,0.0
6079,69.0,0.0,210.0,10.0,0.0
6080,62.0,240.0,210.0,12.0,0.0
6081,62.0,240.0,210.0,12.0,0.0
6082,69.0,0.0,210.0,10.0,0.0
6083,66.0,0.0,210.0,11.0,0.0
6084,62.0,240.0,210.0,12.0,0.0
6085,69.0,0.0,210.0,10.0,0.0
6086,66.0,0.0,210.0,11.0,0.0
6087,57.0,0.0,390.0,8.0,0.0
6088,61.0,0.0,210.0,12.0,0.0
6089,75.0,144.0,240.0,6.0,0.0
6090,67.0,0.0,210.0,11.0,0.0
6091,45.0,0.0,390.0,14.0,0.0
6092,57.0,72.0,390.0,13.0,0.0
6093,69.0,24.0,210.0,10.0,0.0
6094,61.0,24.0,210.0,12.0,0.0
6095,69.0,0.0,210.0,10.0,0.0
6096,67.0,0.0,210.0,11.0,0.0
6097,76.0,216.0,240.0,6.0,0.0
6098,78.0,216.0,240.0,6.0,0.0
6099,69.0,24.0,210.0,10.0,0.0
6100,61.0,0.0,210.0,12.0,0.0
6101,67.0,0.0,210.0,11.0,0.0
6102,79.0,216.0,240.0,6.0,0.0
6103,69.0,0.0,210.0,10.0,0.0
6104,67.0,24.0,210.0,11.0,0.0
6105,61.0,0.0,210.0,12.0,0.0
6106,66.0,24.0,210.0,11.0,0.0
6107,83.0,144.0,240.0,6.0,0.0
6108,50.0,0.0,390.0,14.0,0.0
6109,62.0,0.0,390.0,13.0,0.0
6110,62.0,0.0,210.0,12.0,0.0
6111,62.0,48.0,390.0,8.0,0.0
6112,69.0,0.0,210.0,10.0,0.0
6113,81.0,24.0,180.0,6.0,0.0
6114,69.0,0.0,210.0,10.0,0.0
6115,62.0,240.0,210.0,12.0,0.0
6116,66.0,0.0,210.0,11.0,0.0
6117,69.0,0.0,210.0,10.0,0.0
6118,66.0,0.0,210.0,11.0,0.0
6119,62.0,240.0,210.0,12.0,0.0
6120,66.0,0.0,210.0,11.0,0.0
6121,69.0,0.0,210.0,10.0,0.0
6122,62.0,240.0,210.0,12.0,0.0
6123,45.0,0.0,390.0,14.0,0.0
6124,57.0,72.0,390.0,8.0,0.0
6125,75.0,144.0,240.0,6.0,0.0
6126,57.0,0.0,390.0,13.0,0.0
6127,69.0,24.0,210.0,10.0,0.0
6128,67.0,0.0,210.0,11.0,0.0
6129,61.0,0.0,210.0,12.0,0.0
6130,61.0,0.0,210.0,12.0,0.0
6131,67.0,0.0,210.0,11.0,0.0
6132,69.0,24.0,210.0,10.0,0.0
6133,76.0,216.0,240.0,6.0,0.0
6134,78.0,216.0,240.0,6.0,0.0
6135,61.0,24.0,210.0,12.0,0.0
6136,67.0,0.0,210.0,11.0,0.0
6137,69.0,0.0,210.0,10.0,0.0
6138,79.0,216.0,240.0,6.0,0.0
6139,69.0,0.0,210.0,10.0,0.0
6140,61.0,0.0,210.0,12.0,0.0
6141,67.0,24.0,210.0,11.0,0.0
6142,66.0,24.0,210.0,11.0,0.0
6143,38.0,0.0,390.0,14.0,0.0
6144,50.0,0.0,390.0,13.0,0.0
6145,83.0,144.0,240.0,6.0,0.0
6146,69.0,0.0,210.0,10.0,0.0
6147,50.0,48.0,390.0,8.0,0.0
6148,62.0,0.0,210.0,12.0,0.0
6149,66.0,0.0,210.0,11.0,0.0
6150,69.0,0.0,210.0,10.0,0.0
6151,81.0,24.0,180.0,6.0,0.0
6152,62.0,240.0,210.0,12.0,0.0
6153,66.0,240.0,210.0,11.0,0.0
6154,69.0,0.0,210.0,10.0,0.0
6155,62.0,0.0,210.0,12.0,0.0
6156,66.0,0.0,210.0,11.0,0.0
6157,69.0,240.0,210.0,10.0,0.0
6158,62.0,0.0,210.0,12.0,0.0
6159,64.0,0.0,210.0,12.0,0.0
6160,69.0,0.0,210.0,10.0,0.0
6161,57.0,0.0,390.0,8.0,0.0
6162,57.0,72.0,390.0,13.0,0.0
6163,80.0,144.0,240.0,6.0,0.0
6164,67.0,24.0,210.0,11.0,0.0
6165,45.0,0.0,390.0,14.0,0.0
6166,69.0,24.0,210.0,10.0,0.0
6167,81.0,216.0,240.0,6.0,0.0
6168,64.0,0.0,210.0,12.0,0.0
6169,67.0,0.0,210.0,11.0,0.0
6170,64.0,0.0,210.0,12.0,0.0
6171,69.0,24.0,210.0,10.0,0.0
6172,83.0,216.0,240.0,6.0,0.0
6173,67.0,0.0,210.0,11.0,0.0
6174,69.0,0.0,210.0,10.0,0.0
6175,67.0,24.0,210.0,11.0,0.0
6176,64.0,0.0,210.0,12.0,0.0
6177,85.0,192.0,240.0,6.0,0.0
6178,69.0,0.0,390.0,10.0,0.0
6179,50.0,0.0,2310.0,3.0,0.0
6180,81.0,0.0,2310.0,1.0,0.0
6181,86.0,192.0,180.0,6.0,0.0
6182,86.0,0.0,2310.0,0.0,0.0
6183,62.0,0.0,2310.0,3.0,0.0
6184,50.0,0.0,390.0,13.0,0.0
6185,66.0,0.0,390.0,11.0,0.0
6186,78.0,0.0,2310.0,1.0,0.0
6187,38.0,0.0,390.0,14.0,0.0
6188,66.0,0.0,2310.0,2.0,0.0
6189,69.0,0.0,2310.0,2.0,0.0
6190,50.0,0.0,390.0,8.0,0.0
6191,62.0,48.0,390.0,8.0,0.0
6192,62.0,0.0,390.0,12.0,0.0
6193,86.0,480.0,180.0,6.0,0.0
6194,90.0,480.0,180.0,6.0,0.0
6195,93.0,480.0,180.0,6.0,0.0
6196,90.0,432.0,180.0,6.0,0.0
6197,69.0,48.0,420.0,10.0,0.0
6198,66.0,32.0,390.0,11.0,0.0
6199,50.0,0.0,390.0,13.0,0.0
6200,50.0,0.0,450.0,8.0,0.0
6201,62.0,16.0,450.0,8.0,0.0
6202,38.0,0.0,390.0,14.0,0.0
6203,62.0,0.0,390.0,12.0,0.0
6204,86.0,1824.0,480.0,6.0,0.0
6205,38.0,0.0,390.0,14.0,0.0
