,note,step,duration,channel,velocity
0,54.0,50.0,360.0,4.0,64.0
1,66.0,11.0,330.0,4.0,64.0
2,42.0,18.0,1920.0,4.0,64.0
3,70.0,10.0,330.0,4.0,64.0
4,73.0,11.0,330.0,2.0,64.0
5,78.0,14.0,330.0,2.0,64.0
6,71.0,44.0,60.0,2.0,64.0
7,59.0,0.0,60.0,4.0,64.0
8,70.0,45.0,60.0,4.0,64.0
9,58.0,1.0,60.0,4.0,64.0
10,68.0,45.0,60.0,4.0,64.0
11,56.0,1.0,60.0,4.0,64.0
12,66.0,45.0,60.0,4.0,64.0
13,54.0,1.0,60.0,4.0,64.0
14,59.0,1.0,60.0,4.0,64.0
15,71.0,42.0,60.0,2.0,64.0
16,70.0,46.0,60.0,4.0,64.0
17,58.0,0.0,60.0,4.0,64.0
18,68.0,48.0,60.0,4.0,64.0
19,56.0,0.0,60.0,4.0,64.0
20,66.0,170.0,60.0,4.0,64.0
21,54.0,0.0,60.0,4.0,64.0
22,61.0,184.0,180.0,4.0,64.0
23,73.0,0.0,180.0,2.0,64.0
24,70.0,0.0,180.0,4.0,64.0
25,58.0,253.0,180.0,4.0,64.0
26,63.0,1.0,240.0,4.0,64.0
27,75.0,124.0,240.0,2.0,64.0
28,70.0,92.0,90.0,4.0,64.0
29,58.0,1.0,90.0,4.0,64.0
30,71.0,91.0,90.0,2.0,64.0
31,59.0,1.0,90.0,4.0,64.0
32,68.0,90.0,90.0,4.0,64.0
33,56.0,1.0,90.0,4.0,64.0
34,73.0,86.0,90.0,2.0,64.0
35,61.0,0.0,90.0,4.0,64.0
36,58.0,1.0,90.0,4.0,64.0
37,70.0,78.0,90.0,4.0,64.0
38,66.0,92.0,90.0,4.0,64.0
39,54.0,0.0,90.0,4.0,64.0
40,51.0,90.0,90.0,4.0,64.0
41,63.0,0.0,90.0,4.0,64.0
42,68.0,96.0,90.0,4.0,64.0
43,56.0,0.0,90.0,4.0,64.0
44,65.0,69.0,90.0,4.0,64.0
45,53.0,0.0,90.0,4.0,64.0
46,61.0,85.0,60.0,4.0,64.0
47,49.0,94.0,150.0,4.0,64.0
48,61.0,92.0,150.0,4.0,64.0
49,49.0,94.0,150.0,4.0,64.0
50,61.0,87.0,150.0,4.0,64.0
51,49.0,16.0,150.0,4.0,64.0
52,70.0,75.0,60.0,4.0,64.0
53,78.0,0.0,60.0,2.0,64.0
54,61.0,23.0,150.0,4.0,64.0
55,78.0,65.0,90.0,2.0,64.0
56,70.0,0.0,90.0,4.0,64.0
57,49.0,23.0,150.0,4.0,64.0
58,78.0,65.0,90.0,2.0,64.0
59,61.0,16.0,150.0,4.0,64.0
60,70.0,0.0,90.0,4.0,64.0
61,70.0,76.0,60.0,4.0,64.0
62,78.0,0.0,60.0,2.0,64.0
63,49.0,16.0,150.0,4.0,64.0
64,77.0,76.0,90.0,2.0,64.0
65,68.0,0.0,90.0,4.0,64.0
66,61.0,93.0,150.0,4.0,64.0
67,77.0,87.0,240.0,2.0,64.0
68,49.0,92.0,150.0,4.0,64.0
69,68.0,1.0,240.0,4.0,64.0
70,61.0,0.0,150.0,4.0,64.0
71,49.0,15.0,150.0,4.0,64.0
72,78.0,1.0,60.0,2.0,64.0
73,82.0,72.0,90.0,1.0,64.0
74,61.0,22.0,150.0,4.0,64.0
75,82.0,67.0,90.0,1.0,64.0
76,78.0,0.0,90.0,2.0,64.0
77,49.0,21.0,150.0,4.0,64.0
78,82.0,65.0,90.0,1.0,64.0
79,61.0,16.0,150.0,4.0,64.0
80,78.0,0.0,90.0,2.0,64.0
81,78.0,70.0,60.0,2.0,64.0
82,82.0,0.0,60.0,1.0,64.0
83,49.0,15.0,150.0,4.0,64.0
84,80.0,75.0,60.0,2.0,64.0
85,77.0,0.0,60.0,2.0,64.0
86,61.0,92.0,150.0,4.0,64.0
87,80.0,0.0,240.0,2.0,64.0
88,49.0,90.0,150.0,4.0,64.0
89,77.0,91.0,240.0,2.0,64.0
90,61.0,1.0,150.0,4.0,64.0
91,49.0,16.0,150.0,4.0,64.0
92,82.0,75.0,90.0,1.0,64.0
93,85.0,0.0,90.0,1.0,64.0
94,61.0,23.0,150.0,4.0,64.0
95,85.0,69.0,90.0,1.0,64.0
96,82.0,0.0,90.0,1.0,64.0
97,49.0,25.0,150.0,4.0,64.0
98,61.0,38.0,780.0,4.0,64.0
99,85.0,57.0,90.0,1.0,64.0
100,82.0,1.0,90.0,1.0,64.0
101,83.0,42.0,60.0,1.0,64.0
102,49.0,23.0,1350.0,4.0,64.0
103,82.0,44.0,60.0,1.0,64.0
104,83.0,42.0,60.0,1.0,64.0
105,85.0,43.0,60.0,1.0,64.0
106,87.0,40.0,60.0,1.0,64.0
107,85.0,42.0,60.0,1.0,64.0
108,83.0,43.0,60.0,1.0,64.0
109,82.0,42.0,60.0,1.0,64.0
110,80.0,44.0,60.0,2.0,64.0
111,79.0,44.0,60.0,2.0,64.0
112,80.0,35.0,60.0,2.0,64.0
113,82.0,36.0,60.0,1.0,64.0
114,83.0,46.0,60.0,1.0,64.0
115,82.0,42.0,60.0,1.0,64.0
116,80.0,44.0,60.0,2.0,64.0
117,78.0,7.0,60.0,2.0,64.0
118,77.0,44.0,60.0,2.0,64.0
119,65.0,0.0,60.0,4.0,64.0
120,75.0,0.0,60.0,2.0,64.0
121,63.0,42.0,60.0,4.0,64.0
122,77.0,39.0,60.0,2.0,64.0
123,65.0,1.0,60.0,4.0,64.0
124,78.0,44.0,60.0,2.0,64.0
125,66.0,1.0,60.0,4.0,64.0
126,80.0,38.0,60.0,2.0,64.0
127,68.0,0.0,60.0,4.0,64.0
128,78.0,41.0,60.0,2.0,64.0
129,66.0,1.0,60.0,4.0,64.0
130,77.0,43.0,60.0,2.0,64.0
131,65.0,1.0,60.0,4.0,64.0
132,63.0,1.0,60.0,4.0,64.0
133,75.0,44.0,60.0,2.0,64.0
134,73.0,44.0,60.0,2.0,64.0
135,61.0,0.0,60.0,4.0,64.0
136,72.0,42.0,60.0,2.0,64.0
137,60.0,0.0,60.0,4.0,64.0
138,73.0,46.0,60.0,2.0,64.0
139,61.0,0.0,60.0,4.0,64.0
140,75.0,37.0,60.0,2.0,64.0
141,63.0,1.0,60.0,4.0,64.0
142,61.0,1.0,60.0,4.0,64.0
143,73.0,44.0,60.0,2.0,64.0
144,71.0,44.0,60.0,2.0,64.0
145,59.0,0.0,60.0,4.0,64.0
146,70.0,24.0,60.0,4.0,64.0
147,58.0,0.0,60.0,4.0,64.0
148,68.0,76.0,60.0,4.0,64.0
149,56.0,0.0,60.0,4.0,64.0
150,66.0,94.0,360.0,4.0,64.0
151,42.0,83.0,1410.0,4.0,64.0
152,54.0,96.0,90.0,4.0,64.0
153,54.0,92.0,90.0,4.0,64.0
154,54.0,92.0,90.0,4.0,64.0
155,54.0,0.0,90.0,4.0,64.0
156,68.0,92.0,180.0,4.0,64.0
157,65.0,0.0,180.0,4.0,64.0
158,54.0,92.0,90.0,4.0,64.0
159,54.0,1.0,90.0,4.0,64.0
160,64.0,93.0,180.0,4.0,64.0
161,70.0,0.0,180.0,4.0,64.0
162,54.0,93.0,90.0,4.0,64.0
163,54.0,1.0,90.0,4.0,64.0
164,63.0,11.0,180.0,4.0,64.0
165,71.0,24.0,150.0,2.0,64.0
166,54.0,52.0,90.0,4.0,64.0
167,54.0,0.0,90.0,4.0,64.0
168,73.0,22.0,20.0,2.0,64.0
169,75.0,86.0,30.0,2.0,64.0
170,73.0,87.0,90.0,2.0,64.0
171,65.0,0.0,180.0,4.0,64.0
172,54.0,8.0,90.0,4.0,64.0
173,71.0,88.0,90.0,2.0,64.0
174,54.0,7.0,90.0,4.0,64.0
175,70.0,0.0,360.0,4.0,64.0
176,66.0,94.0,360.0,4.0,64.0
177,54.0,95.0,90.0,4.0,64.0
178,54.0,92.0,90.0,4.0,64.0
179,54.0,8.0,90.0,4.0,64.0
180,54.0,1.0,90.0,4.0,64.0
181,70.0,96.0,360.0,4.0,64.0
182,66.0,1.0,360.0,4.0,64.0
183,54.0,96.0,90.0,4.0,64.0
184,42.0,95.0,1440.0,4.0,64.0
185,54.0,96.0,90.0,4.0,64.0
186,54.0,95.0,90.0,4.0,64.0
187,54.0,0.0,90.0,4.0,64.0
188,71.0,0.0,180.0,2.0,64.0
189,54.0,94.0,90.0,4.0,64.0
190,68.0,89.0,180.0,4.0,64.0
191,54.0,6.0,90.0,4.0,64.0
192,73.0,90.0,180.0,2.0,64.0
193,70.0,1.0,180.0,4.0,64.0
194,54.0,94.0,90.0,4.0,64.0
195,54.0,0.0,90.0,4.0,64.0
196,75.0,28.0,150.0,2.0,64.0
197,71.0,8.0,390.0,2.0,64.0
198,54.0,54.0,90.0,4.0,64.0
199,54.0,9.0,90.0,4.0,64.0
200,77.0,22.0,30.0,2.0,64.0
201,78.0,86.0,30.0,2.0,64.0
202,54.0,7.0,90.0,4.0,64.0
203,77.0,88.0,90.0,2.0,64.0
204,75.0,87.0,90.0,2.0,64.0
205,54.0,0.0,90.0,4.0,64.0
206,70.0,6.0,390.0,4.0,64.0
207,73.0,0.0,390.0,2.0,64.0
208,54.0,96.0,90.0,4.0,64.0
209,54.0,94.0,90.0,4.0,64.0
210,54.0,9.0,90.0,4.0,64.0
211,54.0,1.0,90.0,4.0,64.0
212,82.0,87.0,90.0,1.0,64.0
213,59.0,0.0,210.0,4.0,64.0
214,80.0,48.0,90.0,2.0,64.0
215,47.0,37.0,210.0,4.0,64.0
216,90.0,46.0,90.0,1.0,64.0
217,80.0,11.0,90.0,2.0,64.0
218,90.0,48.0,90.0,1.0,64.0
219,80.0,48.0,90.0,2.0,64.0
220,66.0,37.0,210.0,4.0,64.0
221,54.0,0.0,210.0,4.0,64.0
222,90.0,48.0,90.0,1.0,64.0
223,80.0,9.0,90.0,2.0,64.0
224,90.0,47.0,90.0,1.0,64.0
225,80.0,46.0,90.0,2.0,64.0
226,51.0,37.0,180.0,4.0,64.0
227,63.0,0.0,180.0,4.0,64.0
228,90.0,48.0,90.0,1.0,64.0
229,80.0,11.0,90.0,2.0,64.0
230,90.0,48.0,90.0,1.0,64.0
231,80.0,47.0,90.0,2.0,64.0
232,47.0,37.0,210.0,4.0,64.0
233,59.0,0.0,210.0,4.0,64.0
234,90.0,48.0,90.0,1.0,64.0
235,80.0,11.0,90.0,2.0,64.0
236,90.0,46.0,90.0,1.0,64.0
237,82.0,48.0,90.0,1.0,64.0
238,49.0,1.0,210.0,4.0,64.0
239,61.0,36.0,210.0,4.0,64.0
240,90.0,49.0,90.0,1.0,64.0
241,82.0,9.0,90.0,1.0,64.0
242,90.0,48.0,90.0,1.0,64.0
243,82.0,48.0,90.0,1.0,64.0
244,66.0,35.0,210.0,4.0,64.0
245,54.0,1.0,210.0,4.0,64.0
246,90.0,48.0,90.0,1.0,64.0
247,82.0,11.0,90.0,1.0,64.0
248,90.0,46.0,90.0,1.0,64.0
249,82.0,47.0,90.0,1.0,64.0
250,52.0,1.0,180.0,4.0,64.0
251,64.0,37.0,180.0,4.0,64.0
252,90.0,46.0,90.0,1.0,64.0
253,82.0,10.0,90.0,1.0,64.0
254,90.0,46.0,90.0,1.0,64.0
255,61.0,35.0,210.0,4.0,64.0
256,82.0,48.0,90.0,1.0,64.0
257,49.0,1.0,210.0,4.0,64.0
258,90.0,48.0,90.0,1.0,64.0
259,82.0,10.0,90.0,1.0,64.0
260,90.0,48.0,90.0,1.0,64.0
261,63.0,0.0,180.0,4.0,64.0
262,83.0,46.0,90.0,1.0,64.0
263,51.0,37.0,180.0,4.0,64.0
264,90.0,46.0,90.0,1.0,64.0
265,83.0,11.0,90.0,1.0,64.0
266,90.0,46.0,90.0,1.0,64.0
267,71.0,0.0,180.0,2.0,64.0
268,83.0,48.0,90.0,1.0,64.0
269,59.0,35.0,180.0,4.0,64.0
270,90.0,46.0,90.0,1.0,64.0
271,83.0,11.0,90.0,1.0,64.0
272,90.0,46.0,90.0,1.0,64.0
273,83.0,46.0,90.0,1.0,64.0
274,66.0,35.0,180.0,4.0,64.0
275,54.0,1.0,180.0,4.0,64.0
276,90.0,46.0,90.0,1.0,64.0
277,83.0,10.0,90.0,1.0,64.0
278,90.0,48.0,90.0,1.0,64.0
279,51.0,1.0,180.0,4.0,64.0
280,63.0,35.0,180.0,4.0,64.0
281,83.0,47.0,90.0,1.0,64.0
282,90.0,46.0,90.0,1.0,64.0
283,83.0,9.0,90.0,1.0,64.0
284,90.0,46.0,90.0,1.0,64.0
285,84.0,48.0,90.0,1.0,64.0
286,78.0,0.0,90.0,2.0,64.0
287,50.0,1.0,180.0,4.0,64.0
288,62.0,36.0,180.0,4.0,64.0
289,90.0,47.0,90.0,1.0,64.0
290,84.0,10.0,90.0,1.0,64.0
291,78.0,1.0,90.0,2.0,64.0
292,90.0,46.0,90.0,1.0,64.0
293,84.0,47.0,90.0,1.0,64.0
294,78.0,1.0,90.0,2.0,64.0
295,57.0,37.0,180.0,4.0,64.0
296,69.0,0.0,180.0,4.0,64.0
297,90.0,45.0,90.0,1.0,64.0
298,84.0,10.0,90.0,1.0,64.0
299,78.0,1.0,90.0,2.0,64.0
300,90.0,48.0,90.0,1.0,64.0
301,66.0,38.0,210.0,4.0,64.0
302,84.0,45.0,90.0,1.0,64.0
303,78.0,1.0,90.0,2.0,64.0
304,54.0,1.0,210.0,4.0,64.0
305,90.0,49.0,90.0,1.0,64.0
306,84.0,10.0,90.0,1.0,64.0
307,78.0,0.0,90.0,2.0,64.0
308,90.0,48.0,90.0,1.0,64.0
309,78.0,1.0,90.0,2.0,64.0
310,84.0,45.0,90.0,1.0,64.0
311,50.0,90.0,210.0,4.0,64.0
312,62.0,1.0,180.0,4.0,64.0
313,90.0,43.0,90.0,1.0,64.0
314,84.0,26.0,90.0,1.0,64.0
315,78.0,1.0,90.0,2.0,64.0
316,90.0,1.0,30.0,1.0,64.0
317,61.0,51.0,660.0,4.0,64.0
318,80.0,8.0,240.0,2.0,64.0
319,85.0,10.0,240.0,1.0,64.0
320,89.0,43.0,240.0,1.0,64.0
321,73.0,46.0,60.0,2.0,64.0
322,72.0,44.0,60.0,2.0,64.0
323,73.0,44.0,60.0,2.0,64.0
324,75.0,19.0,60.0,2.0,64.0
325,73.0,53.0,90.0,2.0,64.0
326,85.0,0.0,90.0,1.0,64.0
327,70.0,32.0,90.0,4.0,64.0
328,73.0,52.0,90.0,2.0,64.0
329,83.0,33.0,90.0,1.0,64.0
330,68.0,1.0,90.0,4.0,64.0
331,73.0,53.0,90.0,2.0,64.0
332,66.0,32.0,90.0,4.0,64.0
333,82.0,0.0,90.0,1.0,64.0
334,73.0,52.0,90.0,2.0,64.0
335,80.0,35.0,90.0,2.0,64.0
336,65.0,1.0,90.0,4.0,64.0
337,73.0,4.0,90.0,2.0,64.0
338,78.0,35.0,90.0,2.0,64.0
339,63.0,0.0,90.0,4.0,64.0
340,73.0,51.0,90.0,2.0,64.0
341,61.0,34.0,90.0,4.0,64.0
342,77.0,0.0,90.0,2.0,64.0
343,73.0,54.0,90.0,2.0,64.0
344,78.0,33.0,90.0,2.0,64.0
345,63.0,1.0,90.0,4.0,64.0
346,73.0,51.0,90.0,2.0,64.0
347,80.0,35.0,90.0,2.0,64.0
348,65.0,0.0,90.0,4.0,64.0
349,73.0,53.0,90.0,2.0,64.0
350,82.0,32.0,90.0,1.0,64.0
351,66.0,1.0,90.0,4.0,64.0
352,73.0,8.0,90.0,2.0,64.0
353,85.0,42.0,60.0,1.0,64.0
354,68.0,31.0,90.0,4.0,64.0
355,83.0,0.0,60.0,1.0,64.0
356,73.0,9.0,90.0,2.0,64.0
357,82.0,41.0,60.0,1.0,64.0
358,65.0,35.0,90.0,4.0,64.0
359,80.0,1.0,60.0,2.0,64.0
360,73.0,8.0,90.0,2.0,64.0
361,66.0,33.0,90.0,4.0,64.0
362,83.0,40.0,60.0,1.0,64.0
363,82.0,0.0,60.0,1.0,64.0
364,73.0,9.0,90.0,2.0,64.0
365,80.0,35.0,60.0,2.0,64.0
366,63.0,93.0,90.0,4.0,64.0
367,78.0,17.0,30.0,2.0,64.0
368,73.0,0.0,30.0,2.0,64.0
369,61.0,52.0,660.0,4.0,64.0
370,77.0,12.0,240.0,2.0,64.0
371,80.0,9.0,240.0,2.0,64.0
372,85.0,15.0,240.0,1.0,64.0
373,73.0,43.0,60.0,2.0,64.0
374,72.0,43.0,60.0,2.0,64.0
375,73.0,43.0,60.0,2.0,64.0
376,75.0,7.0,60.0,2.0,64.0
377,73.0,79.0,60.0,2.0,64.0
378,85.0,8.0,90.0,1.0,64.0
379,70.0,33.0,90.0,4.0,64.0
380,73.0,51.0,90.0,2.0,64.0
381,83.0,35.0,90.0,1.0,64.0
382,68.0,0.0,90.0,4.0,64.0
383,73.0,52.0,90.0,2.0,64.0
384,82.0,33.0,90.0,1.0,64.0
385,66.0,0.0,90.0,4.0,64.0
386,73.0,53.0,90.0,2.0,64.0
387,65.0,33.0,90.0,4.0,64.0
388,80.0,0.0,90.0,2.0,64.0
389,73.0,2.0,90.0,2.0,64.0
390,78.0,34.0,90.0,2.0,64.0
391,63.0,1.0,90.0,4.0,64.0
392,73.0,54.0,90.0,2.0,64.0
393,77.0,35.0,90.0,2.0,64.0
394,61.0,0.0,90.0,4.0,64.0
395,73.0,51.0,90.0,2.0,64.0
396,63.0,1.0,90.0,4.0,64.0
397,78.0,32.0,90.0,2.0,64.0
398,73.0,53.0,90.0,2.0,64.0
399,80.0,33.0,90.0,2.0,64.0
400,65.0,1.0,90.0,4.0,64.0
401,73.0,51.0,90.0,2.0,64.0
402,66.0,33.0,90.0,4.0,64.0
403,82.0,0.0,90.0,1.0,64.0
404,73.0,11.0,90.0,2.0,64.0
405,85.0,40.0,60.0,1.0,64.0
406,68.0,33.0,90.0,4.0,64.0
407,83.0,1.0,60.0,1.0,64.0
408,73.0,9.0,90.0,2.0,64.0
409,82.0,43.0,60.0,1.0,64.0
410,65.0,33.0,90.0,4.0,64.0
411,80.0,0.0,60.0,2.0,64.0
412,73.0,10.0,90.0,2.0,64.0
413,83.0,41.0,60.0,1.0,64.0
414,66.0,35.0,90.0,4.0,64.0
415,82.0,1.0,60.0,1.0,64.0
416,73.0,9.0,90.0,2.0,64.0
417,80.0,33.0,60.0,2.0,64.0
418,63.0,171.0,90.0,4.0,64.0
419,78.0,0.0,30.0,2.0,64.0
420,73.0,1.0,30.0,2.0,64.0
421,61.0,9.0,180.0,4.0,64.0
422,77.0,0.0,180.0,2.0,64.0
423,80.0,11.0,150.0,2.0,64.0
424,85.0,49.0,150.0,1.0,64.0
425,80.0,44.0,60.0,2.0,64.0
426,68.0,1.0,180.0,4.0,64.0
427,61.0,0.0,180.0,4.0,64.0
428,65.0,14.0,180.0,4.0,64.0
429,77.0,48.0,60.0,2.0,64.0
430,80.0,31.0,60.0,2.0,64.0
431,77.0,348.0,60.0,2.0,64.0
432,68.0,52.0,600.0,4.0,64.0
433,73.0,104.0,360.0,2.0,64.0
434,61.0,24.0,1080.0,4.0,64.0
435,65.0,6.0,840.0,4.0,64.0
436,80.0,112.0,90.0,2.0,64.0
437,85.0,40.0,120.0,1.0,64.0
438,84.0,96.0,90.0,1.0,64.0
439,87.0,86.0,90.0,1.0,64.0
440,85.0,96.0,90.0,1.0,64.0
441,84.0,97.0,90.0,1.0,64.0
442,82.0,25.0,120.0,1.0,64.0
443,84.0,1.0,30.0,1.0,64.0
444,75.0,17.0,90.0,3.0,64.0
445,72.0,0.0,90.0,3.0,64.0
446,82.0,26.0,30.0,1.0,64.0
447,84.0,8.0,30.0,1.0,64.0
448,82.0,79.0,30.0,1.0,64.0
449,72.0,1.0,90.0,3.0,64.0
450,75.0,93.0,90.0,3.0,64.0
451,80.0,0.0,90.0,2.0,64.0
452,80.0,44.0,240.0,2.0,64.0
453,75.0,93.0,90.0,3.0,64.0
454,72.0,1.0,90.0,3.0,64.0
455,75.0,53.0,90.0,3.0,64.0
456,72.0,1.0,90.0,3.0,64.0
457,72.0,1.0,90.0,3.0,64.0
458,75.0,41.0,90.0,3.0,64.0
459,82.0,23.0,30.0,1.0,64.0
460,75.0,93.0,90.0,3.0,64.0
461,72.0,0.0,90.0,3.0,64.0
462,80.0,31.0,30.0,2.0,64.0
463,79.0,1.0,30.0,2.0,64.0
464,75.0,15.0,90.0,3.0,64.0
465,80.0,78.0,90.0,2.0,64.0
466,72.0,1.0,90.0,3.0,64.0
467,82.0,78.0,90.0,1.0,64.0
468,75.0,15.0,90.0,3.0,64.0
469,72.0,1.0,90.0,3.0,64.0
470,80.0,91.0,90.0,2.0,64.0
471,73.0,4.0,90.0,3.0,64.0
472,70.0,1.0,90.0,3.0,64.0
473,78.0,78.0,210.0,2.0,64.0
474,70.0,1.0,90.0,3.0,64.0
475,73.0,95.0,90.0,3.0,64.0
476,73.0,15.0,90.0,3.0,64.0
477,70.0,1.0,90.0,3.0,64.0
478,82.0,71.0,120.0,1.0,64.0
479,70.0,1.0,90.0,3.0,64.0
480,73.0,24.0,90.0,3.0,64.0
481,78.0,71.0,120.0,2.0,64.0
482,72.0,24.0,90.0,3.0,64.0
483,68.0,1.0,90.0,4.0,64.0
484,77.0,4.0,180.0,2.0,64.0
485,72.0,90.0,90.0,3.0,64.0
486,68.0,1.0,90.0,4.0,64.0
487,72.0,0.0,90.0,3.0,64.0
488,68.0,96.0,90.0,4.0,64.0
489,80.0,44.0,120.0,2.0,64.0
490,72.0,19.0,90.0,3.0,64.0
491,68.0,0.0,90.0,4.0,64.0
492,77.0,31.0,60.0,2.0,64.0
493,70.0,14.0,90.0,3.0,64.0
494,66.0,0.0,90.0,4.0,64.0
495,75.0,44.0,60.0,3.0,64.0
496,78.0,31.0,60.0,2.0,64.0
497,70.0,15.0,90.0,3.0,64.0
498,66.0,0.0,90.0,4.0,64.0
499,77.0,44.0,60.0,2.0,64.0
500,80.0,29.0,60.0,2.0,64.0
501,70.0,15.0,90.0,3.0,64.0
502,66.0,1.0,90.0,4.0,64.0
503,78.0,44.0,60.0,2.0,64.0
504,70.0,16.0,90.0,3.0,64.0
505,77.0,30.0,60.0,2.0,64.0
506,66.0,1.0,90.0,4.0,64.0
507,75.0,44.0,60.0,3.0,64.0
508,68.0,0.0,1020.0,4.0,64.0
509,73.0,46.0,60.0,3.0,64.0
510,65.0,37.0,1020.0,4.0,64.0
511,75.0,44.0,60.0,3.0,64.0
512,73.0,44.0,60.0,3.0,64.0
513,72.0,43.0,60.0,3.0,64.0
514,73.0,42.0,60.0,3.0,64.0
515,75.0,44.0,60.0,3.0,64.0
516,77.0,44.0,60.0,2.0,64.0
517,78.0,43.0,60.0,2.0,64.0
518,79.0,45.0,60.0,2.0,64.0
519,80.0,44.0,60.0,2.0,64.0
520,82.0,40.0,60.0,1.0,64.0
521,80.0,47.0,60.0,2.0,64.0
522,84.0,42.0,60.0,1.0,64.0
523,82.0,46.0,60.0,1.0,64.0
524,85.0,44.0,60.0,1.0,64.0
525,84.0,88.0,60.0,1.0,64.0
526,87.0,89.0,90.0,1.0,64.0
527,85.0,90.0,90.0,1.0,64.0
528,84.0,53.0,90.0,1.0,64.0
529,82.0,81.0,90.0,1.0,64.0
530,79.0,46.0,90.0,2.0,64.0
531,75.0,8.0,90.0,3.0,64.0
532,72.0,0.0,90.0,3.0,64.0
533,75.0,0.0,90.0,3.0,64.0
534,82.0,40.0,60.0,1.0,64.0
535,72.0,96.0,90.0,3.0,64.0
536,80.0,3.0,30.0,2.0,64.0
537,80.0,39.0,240.0,2.0,64.0
538,75.0,96.0,90.0,3.0,64.0
539,72.0,0.0,90.0,3.0,64.0
540,75.0,0.0,90.0,3.0,64.0
541,72.0,55.0,90.0,3.0,64.0
542,75.0,8.0,90.0,3.0,64.0
543,72.0,0.0,90.0,3.0,64.0
544,82.0,47.0,60.0,1.0,64.0
545,80.0,37.0,60.0,2.0,64.0
546,75.0,9.0,90.0,3.0,64.0
547,72.0,0.0,90.0,3.0,64.0
548,79.0,71.0,60.0,2.0,64.0
549,80.0,15.0,60.0,2.0,64.0
550,72.0,1.0,90.0,3.0,64.0
551,75.0,97.0,90.0,3.0,64.0
552,80.0,80.0,180.0,2.0,64.0
553,75.0,92.0,90.0,3.0,64.0
554,72.0,0.0,90.0,3.0,64.0
555,70.0,1.0,90.0,3.0,64.0
556,73.0,11.0,90.0,3.0,64.0
557,77.0,83.0,180.0,2.0,64.0
558,73.0,91.0,90.0,3.0,64.0
559,70.0,1.0,90.0,3.0,64.0
560,73.0,11.0,90.0,3.0,64.0
561,70.0,1.0,90.0,3.0,64.0
562,78.0,81.0,180.0,2.0,64.0
563,70.0,92.0,90.0,3.0,64.0
564,73.0,0.0,90.0,3.0,64.0
565,72.0,10.0,90.0,3.0,64.0
566,68.0,0.0,90.0,3.0,64.0
567,76.0,80.0,180.0,2.0,64.0
568,68.0,90.0,90.0,3.0,64.0
569,72.0,0.0,90.0,3.0,64.0
570,72.0,11.0,90.0,3.0,64.0
571,68.0,1.0,90.0,3.0,64.0
572,77.0,81.0,180.0,2.0,64.0
573,72.0,91.0,90.0,3.0,64.0
574,68.0,1.0,90.0,3.0,64.0
575,70.0,0.0,90.0,3.0,64.0
576,66.0,11.0,90.0,4.0,64.0
577,74.0,81.0,180.0,2.0,64.0
578,70.0,92.0,90.0,4.0,64.0
579,66.0,0.0,90.0,4.0,64.0
580,70.0,11.0,90.0,4.0,64.0
581,66.0,0.0,90.0,4.0,64.0
582,66.0,54.0,90.0,4.0,64.0
583,70.0,0.0,90.0,4.0,64.0
584,75.0,55.0,150.0,2.0,64.0
585,65.0,1.0,360.0,4.0,64.0
586,68.0,7.0,360.0,4.0,64.0
587,72.0,44.0,60.0,2.0,64.0
588,75.0,79.0,60.0,2.0,64.0
589,73.0,7.0,90.0,2.0,64.0
590,82.0,43.0,60.0,1.0,64.0
591,80.0,47.0,60.0,2.0,64.0
592,78.0,36.0,60.0,2.0,64.0
593,77.0,93.0,60.0,2.0,64.0
594,75.0,0.0,90.0,2.0,64.0
595,54.0,1.0,90.0,4.0,64.0
596,66.0,34.0,90.0,4.0,64.0
597,85.0,57.0,90.0,1.0,64.0
598,74.0,36.0,90.0,2.0,64.0
599,65.0,0.0,90.0,4.0,64.0
600,53.0,1.0,90.0,4.0,64.0
601,85.0,57.0,90.0,1.0,64.0
602,75.0,0.0,90.0,2.0,64.0
603,54.0,1.0,90.0,4.0,64.0
604,66.0,34.0,90.0,4.0,64.0
605,85.0,58.0,90.0,1.0,64.0
606,65.0,35.0,90.0,4.0,64.0
607,74.0,0.0,90.0,2.0,64.0
608,53.0,1.0,90.0,4.0,64.0
609,85.0,10.0,90.0,1.0,64.0
610,66.0,15.0,360.0,4.0,64.0
611,75.0,44.0,60.0,2.0,64.0
612,54.0,1.0,360.0,4.0,64.0
613,78.0,44.0,60.0,2.0,64.0
614,82.0,43.0,60.0,1.0,64.0
615,80.0,44.0,60.0,2.0,64.0
616,83.0,45.0,60.0,1.0,64.0
617,82.0,44.0,60.0,1.0,64.0
618,80.0,31.0,60.0,2.0,64.0
619,78.0,93.0,60.0,2.0,64.0
620,68.0,35.0,90.0,4.0,64.0
621,77.0,0.0,90.0,2.0,64.0
622,56.0,1.0,90.0,4.0,64.0
623,85.0,57.0,90.0,1.0,64.0
624,76.0,34.0,90.0,2.0,64.0
625,67.0,1.0,90.0,4.0,64.0
626,55.0,0.0,90.0,4.0,64.0
627,85.0,57.0,90.0,1.0,64.0
628,77.0,0.0,90.0,2.0,64.0
629,56.0,1.0,90.0,4.0,64.0
630,68.0,35.0,90.0,4.0,64.0
631,85.0,57.0,90.0,1.0,64.0
632,76.0,35.0,90.0,2.0,64.0
633,67.0,0.0,90.0,4.0,64.0
634,55.0,1.0,90.0,4.0,64.0
635,85.0,9.0,90.0,1.0,64.0
636,77.0,48.0,60.0,2.0,64.0
637,56.0,15.0,360.0,4.0,64.0
638,68.0,0.0,360.0,4.0,64.0
639,80.0,43.0,60.0,2.0,64.0
640,83.0,45.0,60.0,1.0,64.0
641,82.0,42.0,60.0,1.0,64.0
642,85.0,46.0,60.0,1.0,64.0
643,83.0,44.0,60.0,1.0,64.0
644,82.0,31.0,60.0,1.0,64.0
645,80.0,93.0,60.0,2.0,64.0
646,78.0,0.0,90.0,2.0,64.0
647,58.0,1.0,90.0,4.0,64.0
648,70.0,35.0,90.0,4.0,64.0
649,85.0,58.0,90.0,1.0,64.0
650,77.0,34.0,90.0,2.0,64.0
651,69.0,1.0,90.0,4.0,64.0
652,57.0,0.0,90.0,4.0,64.0
653,85.0,57.0,90.0,1.0,64.0
654,70.0,0.0,90.0,4.0,64.0
655,78.0,0.0,90.0,2.0,64.0
656,58.0,36.0,90.0,4.0,64.0
657,85.0,58.0,90.0,1.0,64.0
658,77.0,34.0,90.0,2.0,64.0
659,69.0,1.0,90.0,4.0,64.0
660,57.0,0.0,90.0,4.0,64.0
661,85.0,8.0,90.0,1.0,64.0
662,78.0,46.0,60.0,2.0,64.0
663,58.0,15.0,360.0,4.0,64.0
664,70.0,0.0,360.0,4.0,64.0
665,82.0,46.0,60.0,1.0,64.0
666,85.0,43.0,60.0,1.0,64.0
667,84.0,46.0,60.0,1.0,64.0
668,87.0,42.0,60.0,1.0,64.0
669,85.0,46.0,60.0,1.0,64.0
670,84.0,31.0,60.0,1.0,64.0
671,85.0,101.0,60.0,1.0,64.0
672,57.0,38.0,120.0,4.0,64.0
673,79.0,38.0,150.0,2.0,64.0
674,61.0,8.0,90.0,4.0,64.0
675,85.0,14.0,180.0,1.0,64.0
676,64.0,85.0,90.0,4.0,64.0
677,67.0,2.0,150.0,4.0,64.0
678,57.0,39.0,120.0,4.0,64.0
679,61.0,46.0,90.0,4.0,64.0
680,88.0,13.0,180.0,1.0,64.0
681,64.0,86.0,90.0,4.0,64.0
682,67.0,2.0,150.0,4.0,64.0
683,57.0,39.0,120.0,4.0,64.0
684,61.0,46.0,90.0,4.0,64.0
685,64.0,85.0,90.0,4.0,64.0
686,87.0,12.0,180.0,1.0,64.0
687,67.0,3.0,150.0,4.0,64.0
688,57.0,39.0,120.0,4.0,64.0
689,61.0,33.0,90.0,4.0,64.0
690,64.0,48.0,90.0,4.0,64.0
691,85.0,4.0,90.0,1.0,64.0
692,67.0,132.0,90.0,4.0,64.0
693,56.0,36.0,2460.0,4.0,64.0
694,84.0,7.0,270.0,1.0,64.0
695,68.0,86.0,90.0,3.0,64.0
696,68.0,4.0,90.0,3.0,64.0
697,72.0,89.0,90.0,3.0,64.0
698,80.0,4.0,90.0,2.0,64.0
699,72.0,87.0,90.0,3.0,64.0
700,68.0,1.0,90.0,3.0,64.0
701,81.0,3.0,90.0,2.0,64.0
702,77.0,1.0,180.0,2.0,64.0
703,74.0,88.0,90.0,3.0,64.0
704,68.0,1.0,90.0,3.0,64.0
705,82.0,7.0,180.0,1.0,64.0
706,68.0,4.0,90.0,3.0,64.0
707,74.0,88.0,90.0,3.0,64.0
708,78.0,0.0,180.0,2.0,64.0
709,75.0,87.0,90.0,3.0,64.0
710,68.0,0.0,90.0,3.0,64.0
711,82.0,84.0,90.0,1.0,64.0
712,68.0,7.0,90.0,3.0,64.0
713,75.0,2.0,90.0,3.0,64.0
714,79.0,90.0,90.0,2.0,64.0
715,72.0,0.0,90.0,3.0,64.0
716,68.0,6.0,90.0,3.0,64.0
717,80.0,4.0,180.0,2.0,64.0
718,72.0,87.0,90.0,3.0,64.0
719,68.0,6.0,90.0,3.0,64.0
720,73.0,4.0,90.0,3.0,64.0
721,77.0,77.0,90.0,2.0,64.0
722,68.0,1.0,90.0,3.0,64.0
723,80.0,7.0,90.0,2.0,64.0
724,73.0,87.0,90.0,3.0,64.0
725,68.0,6.0,90.0,3.0,64.0
726,70.0,4.0,90.0,3.0,64.0
727,85.0,85.0,90.0,1.0,64.0
728,68.0,4.0,90.0,3.0,64.0
729,78.0,4.0,180.0,2.0,64.0
730,70.0,89.0,90.0,3.0,64.0
731,68.0,4.0,90.0,3.0,64.0
732,75.0,0.0,180.0,3.0,64.0
733,72.0,88.0,90.0,3.0,64.0
734,68.0,0.0,90.0,3.0,64.0
735,68.0,5.0,90.0,3.0,64.0
736,72.0,87.0,90.0,3.0,64.0
737,78.0,1.0,90.0,2.0,64.0
738,76.0,85.0,90.0,2.0,64.0
739,73.0,2.0,90.0,3.0,64.0
740,68.0,4.0,90.0,3.0,64.0
741,77.0,92.0,90.0,2.0,64.0
742,73.0,23.0,240.0,3.0,64.0
743,68.0,0.0,90.0,3.0,64.0
744,77.0,67.0,90.0,2.0,64.0
745,68.0,0.0,90.0,3.0,64.0
746,80.0,61.0,90.0,2.0,64.0
747,77.0,0.0,90.0,2.0,64.0
748,68.0,1.0,90.0,3.0,64.0
749,78.0,16.0,360.0,2.0,64.0
750,82.0,45.0,60.0,1.0,64.0
751,68.0,46.0,1350.0,3.0,64.0
752,84.0,44.0,60.0,1.0,64.0
753,85.0,44.0,60.0,1.0,64.0
754,84.0,44.0,60.0,1.0,64.0
755,87.0,44.0,60.0,1.0,64.0
756,85.0,44.0,60.0,1.0,64.0
757,84.0,29.0,60.0,1.0,64.0
758,82.0,46.0,60.0,1.0,64.0
759,77.0,42.0,180.0,2.0,64.0
760,80.0,43.0,60.0,2.0,64.0
761,85.0,48.0,60.0,1.0,64.0
762,89.0,42.0,60.0,1.0,64.0
763,84.0,2.0,60.0,1.0,64.0
764,85.0,8.0,60.0,1.0,64.0
765,73.0,4.0,180.0,3.0,64.0
766,80.0,47.0,60.0,2.0,64.0
767,82.0,42.0,60.0,1.0,64.0
768,77.0,46.0,60.0,2.0,64.0
769,75.0,8.0,180.0,3.0,64.0
770,78.0,44.0,60.0,2.0,64.0
771,80.0,44.0,60.0,2.0,64.0
772,82.0,39.0,60.0,1.0,64.0
773,80.0,44.0,60.0,2.0,64.0
774,84.0,44.0,60.0,1.0,64.0
775,72.0,41.0,510.0,3.0,64.0
776,82.0,46.0,60.0,1.0,64.0
777,80.0,47.0,60.0,2.0,64.0
778,78.0,44.0,60.0,2.0,64.0
779,77.0,46.0,60.0,2.0,64.0
780,80.0,46.0,60.0,2.0,64.0
781,85.0,44.0,60.0,1.0,64.0
782,84.0,83.0,60.0,1.0,64.0
783,85.0,4.0,180.0,1.0,64.0
784,80.0,43.0,180.0,2.0,64.0
785,77.0,7.0,180.0,2.0,64.0
786,49.0,40.0,90.0,4.0,64.0
787,37.0,0.0,90.0,4.0,64.0
788,73.0,48.0,180.0,3.0,64.0
789,53.0,0.0,90.0,4.0,64.0
790,85.0,4.0,180.0,1.0,64.0
791,41.0,38.0,90.0,4.0,64.0
792,80.0,42.0,180.0,2.0,64.0
793,77.0,44.0,180.0,2.0,64.0
794,56.0,40.0,90.0,4.0,64.0
795,44.0,1.0,90.0,4.0,64.0
796,73.0,48.0,180.0,3.0,64.0
797,85.0,19.0,180.0,1.0,64.0
798,49.0,8.0,360.0,4.0,64.0
799,61.0,0.0,360.0,4.0,64.0
800,80.0,39.0,150.0,2.0,64.0
801,77.0,46.0,360.0,2.0,64.0
802,73.0,47.0,360.0,3.0,64.0
803,82.0,44.0,60.0,1.0,64.0
804,84.0,45.0,60.0,1.0,64.0
805,85.0,37.0,60.0,1.0,64.0
806,84.0,75.0,60.0,1.0,64.0
807,85.0,4.0,180.0,1.0,64.0
808,82.0,43.0,180.0,1.0,64.0
809,78.0,7.0,180.0,2.0,64.0
810,54.0,40.0,90.0,4.0,64.0
811,42.0,1.0,90.0,4.0,64.0
812,73.0,47.0,180.0,2.0,64.0
813,85.0,5.0,180.0,1.0,64.0
814,46.0,1.0,90.0,4.0,64.0
815,58.0,37.0,90.0,4.0,64.0
816,82.0,42.0,180.0,1.0,64.0
817,78.0,46.0,180.0,2.0,64.0
818,61.0,40.0,90.0,4.0,64.0
819,49.0,0.0,90.0,4.0,64.0
820,73.0,46.0,180.0,2.0,64.0
821,66.0,0.0,180.0,4.0,64.0
822,85.0,4.0,180.0,1.0,64.0
823,54.0,2.0,180.0,4.0,64.0
824,82.0,85.0,120.0,1.0,64.0
825,78.0,1.0,90.0,2.0,64.0
826,73.0,0.0,240.0,2.0,64.0
827,80.0,19.0,150.0,2.0,64.0
828,77.0,1.0,150.0,2.0,64.0
829,68.0,53.0,90.0,4.0,64.0
830,56.0,0.0,90.0,4.0,64.0
831,68.0,7.0,90.0,4.0,64.0
832,56.0,1.0,90.0,4.0,64.0
833,82.0,6.0,30.0,1.0,64.0
834,78.0,22.0,20.0,2.0,64.0
835,78.0,21.0,20.0,2.0,64.0
836,75.0,61.0,30.0,2.0,64.0
837,77.0,23.0,240.0,2.0,64.0
838,73.0,4.0,360.0,2.0,64.0
839,68.0,92.0,90.0,4.0,64.0
840,56.0,1.0,90.0,4.0,64.0
841,68.0,69.0,90.0,4.0,64.0
842,56.0,0.0,90.0,4.0,64.0
843,56.0,89.0,90.0,4.0,64.0
844,68.0,0.0,90.0,4.0,64.0
845,80.0,74.0,90.0,2.0,64.0
846,77.0,0.0,90.0,2.0,64.0
847,68.0,10.0,90.0,4.0,64.0
848,56.0,1.0,90.0,4.0,64.0
849,78.0,94.0,90.0,2.0,64.0
850,75.0,10.0,90.0,2.0,64.0
851,68.0,4.0,90.0,4.0,64.0
852,56.0,0.0,90.0,4.0,64.0
853,75.0,52.0,90.0,2.0,64.0
854,68.0,86.0,360.0,4.0,64.0
855,72.0,8.0,360.0,2.0,64.0
856,56.0,1.0,360.0,4.0,64.0
857,77.0,44.0,60.0,2.0,64.0
858,80.0,33.0,60.0,2.0,64.0
859,85.0,45.0,60.0,1.0,64.0
860,84.0,81.0,60.0,1.0,64.0
861,85.0,4.0,180.0,1.0,64.0
862,80.0,46.0,180.0,2.0,64.0
863,77.0,4.0,180.0,2.0,64.0
864,49.0,40.0,90.0,4.0,64.0
865,37.0,1.0,90.0,4.0,64.0
866,73.0,48.0,180.0,2.0,64.0
867,85.0,6.0,180.0,1.0,64.0
868,41.0,36.0,90.0,4.0,64.0
869,53.0,0.0,90.0,4.0,64.0
870,80.0,44.0,180.0,2.0,64.0
871,77.0,43.0,180.0,2.0,64.0
872,56.0,40.0,90.0,4.0,64.0
873,44.0,0.0,90.0,4.0,64.0
874,73.0,48.0,180.0,2.0,64.0
875,61.0,82.0,360.0,4.0,64.0
876,85.0,3.0,180.0,1.0,64.0
877,49.0,1.0,360.0,4.0,64.0
878,80.0,45.0,120.0,2.0,64.0
879,77.0,46.0,360.0,2.0,64.0
880,73.0,47.0,360.0,2.0,64.0
881,82.0,46.0,30.0,1.0,64.0
882,84.0,45.0,60.0,1.0,64.0
883,85.0,45.0,60.0,1.0,64.0
884,84.0,0.0,60.0,1.0,64.0
885,85.0,7.0,180.0,1.0,64.0
886,82.0,46.0,180.0,1.0,64.0
887,78.0,4.0,180.0,2.0,64.0
888,54.0,40.0,90.0,4.0,64.0
889,42.0,0.0,90.0,4.0,64.0
890,73.0,46.0,180.0,2.0,64.0
891,85.0,6.0,180.0,1.0,64.0
892,46.0,1.0,90.0,4.0,64.0
893,58.0,38.0,90.0,4.0,64.0
894,82.0,44.0,180.0,1.0,64.0
895,78.0,43.0,180.0,2.0,64.0
896,61.0,40.0,90.0,4.0,64.0
897,49.0,0.0,90.0,4.0,64.0
898,73.0,13.0,180.0,2.0,64.0
899,85.0,7.0,180.0,1.0,64.0
900,54.0,1.0,180.0,4.0,64.0
901,66.0,0.0,180.0,4.0,64.0
902,82.0,88.0,150.0,1.0,64.0
903,78.0,32.0,60.0,2.0,64.0
904,73.0,8.0,210.0,2.0,64.0
905,80.0,17.0,150.0,2.0,64.0
906,77.0,0.0,150.0,2.0,64.0
907,68.0,52.0,90.0,4.0,64.0
908,56.0,0.0,90.0,4.0,64.0
909,68.0,0.0,90.0,4.0,64.0
910,56.0,9.0,90.0,4.0,64.0
911,78.0,18.0,15.0,2.0,64.0
912,82.0,1.0,30.0,1.0,64.0
913,78.0,21.0,30.0,2.0,64.0
914,75.0,63.0,60.0,2.0,64.0
915,77.0,23.0,240.0,2.0,64.0
916,73.0,82.0,360.0,2.0,64.0
917,68.0,95.0,90.0,4.0,64.0
918,56.0,1.0,90.0,4.0,64.0
919,68.0,71.0,90.0,4.0,64.0
920,56.0,0.0,90.0,4.0,64.0
921,56.0,1.0,90.0,4.0,64.0
922,68.0,90.0,90.0,4.0,64.0
923,80.0,0.0,90.0,2.0,64.0
924,77.0,1.0,90.0,2.0,64.0
925,68.0,6.0,90.0,4.0,64.0
926,56.0,1.0,90.0,4.0,64.0
927,75.0,0.0,90.0,2.0,64.0
928,78.0,94.0,90.0,2.0,64.0
929,56.0,1.0,90.0,4.0,64.0
930,68.0,5.0,90.0,4.0,64.0
931,75.0,1.0,90.0,2.0,64.0
932,72.0,1.0,90.0,2.0,64.0
933,68.0,142.0,90.0,4.0,64.0
934,56.0,0.0,90.0,4.0,64.0
935,73.0,0.0,150.0,2.0,64.0
936,61.0,36.0,150.0,4.0,64.0
937,75.0,2.0,30.0,2.0,64.0
938,63.0,24.0,30.0,4.0,64.0
939,72.0,111.0,30.0,2.0,64.0
940,59.0,0.0,30.0,4.0,64.0
941,70.0,1.0,120.0,4.0,64.0
942,58.0,61.0,120.0,4.0,64.0
943,72.0,0.0,30.0,2.0,64.0
944,60.0,18.0,30.0,4.0,64.0
945,68.0,3.0,30.0,4.0,64.0
946,56.0,117.0,30.0,4.0,64.0
947,66.0,62.0,120.0,4.0,64.0
948,54.0,0.0,120.0,4.0,64.0
949,68.0,1.0,30.0,4.0,64.0
950,56.0,26.0,30.0,4.0,64.0
951,53.0,129.0,30.0,4.0,64.0
952,65.0,1.0,30.0,4.0,64.0
953,51.0,36.0,150.0,4.0,64.0
954,63.0,6.0,150.0,4.0,64.0
955,65.0,1.0,30.0,4.0,64.0
956,53.0,27.0,30.0,4.0,64.0
957,61.0,2.0,30.0,4.0,64.0
958,49.0,363.0,30.0,4.0,64.0
959,60.0,2.0,360.0,4.0,64.0
960,48.0,94.0,360.0,4.0,64.0
961,80.0,11.0,270.0,2.0,64.0
962,84.0,10.0,270.0,1.0,64.0
963,86.0,11.0,270.0,1.0,64.0
964,90.0,269.0,270.0,1.0,64.0
965,61.0,48.0,390.0,4.0,64.0
966,49.0,82.0,1770.0,4.0,64.0
967,77.0,9.0,240.0,2.0,64.0
968,80.0,10.0,240.0,2.0,64.0
969,85.0,11.0,240.0,1.0,64.0
970,89.0,121.0,240.0,1.0,64.0
971,73.0,0.0,750.0,2.0,64.0
972,66.0,66.0,750.0,4.0,64.0
973,82.0,87.0,120.0,1.0,64.0
974,81.0,88.0,90.0,2.0,64.0
975,82.0,94.0,90.0,1.0,64.0
976,81.0,88.0,90.0,2.0,64.0
977,82.0,86.0,90.0,1.0,64.0
978,84.0,99.0,90.0,1.0,64.0
979,85.0,106.0,180.0,1.0,64.0
980,76.0,0.0,750.0,2.0,64.0
981,67.0,47.0,750.0,4.0,64.0
982,85.0,96.0,90.0,1.0,64.0
983,84.0,86.0,90.0,1.0,64.0
984,85.0,94.0,90.0,1.0,64.0
985,84.0,90.0,90.0,1.0,64.0
986,85.0,91.0,90.0,1.0,64.0
987,87.0,7.0,90.0,1.0,64.0
988,88.0,8.0,90.0,1.0,64.0
989,89.0,43.0,60.0,1.0,64.0
990,56.0,21.0,150.0,4.0,64.0
991,92.0,21.0,60.0,1.0,64.0
992,65.0,22.0,90.0,4.0,64.0
993,89.0,1.0,60.0,1.0,64.0
994,61.0,45.0,150.0,4.0,64.0
995,85.0,45.0,30.0,1.0,64.0
996,65.0,22.0,90.0,4.0,64.0
997,56.0,22.0,150.0,4.0,64.0
998,85.0,1.0,60.0,1.0,64.0
999,89.0,24.0,60.0,1.0,64.0
1000,65.0,19.0,90.0,4.0,64.0
1001,85.0,0.0,60.0,1.0,64.0
1002,61.0,46.0,150.0,4.0,64.0
1003,80.0,43.0,30.0,2.0,64.0
1004,65.0,22.0,90.0,4.0,64.0
1005,56.0,21.0,150.0,4.0,64.0
1006,80.0,0.0,60.0,2.0,64.0
1007,85.0,21.0,60.0,1.0,64.0
1008,65.0,20.0,90.0,4.0,64.0
1009,80.0,1.0,60.0,2.0,64.0
1010,61.0,44.0,150.0,4.0,64.0
1011,77.0,48.0,30.0,2.0,64.0
1012,65.0,23.0,90.0,4.0,64.0
1013,77.0,0.0,60.0,2.0,64.0
1014,56.0,55.0,150.0,4.0,64.0
1015,80.0,23.0,60.0,2.0,64.0
1016,65.0,22.0,90.0,4.0,64.0
1017,61.0,48.0,150.0,4.0,64.0
1018,77.0,1.0,60.0,2.0,64.0
1019,65.0,24.0,90.0,4.0,64.0
1020,73.0,23.0,60.0,2.0,64.0
1021,77.0,1.0,60.0,2.0,64.0
1022,56.0,43.0,180.0,4.0,64.0
1023,75.0,24.0,60.0,2.0,64.0
1024,66.0,9.0,90.0,4.0,64.0
1025,77.0,14.0,60.0,2.0,64.0
1026,60.0,58.0,150.0,4.0,64.0
1027,75.0,29.0,60.0,2.0,64.0
1028,66.0,19.0,90.0,4.0,64.0
1029,77.0,4.0,90.0,2.0,64.0
1030,56.0,8.0,150.0,4.0,64.0
1031,75.0,15.0,90.0,2.0,64.0
1032,66.0,23.0,90.0,4.0,64.0
1033,77.0,53.0,90.0,2.0,64.0
1034,60.0,19.0,150.0,4.0,64.0
1035,75.0,6.0,90.0,2.0,64.0
1036,66.0,21.0,90.0,4.0,64.0
1037,56.0,33.0,120.0,4.0,64.0
1038,77.0,39.0,60.0,2.0,64.0
1039,66.0,15.0,60.0,4.0,64.0
1040,75.0,1.0,90.0,2.0,64.0
1041,60.0,33.0,120.0,4.0,64.0
1042,77.0,22.0,60.0,2.0,64.0
1043,66.0,15.0,60.0,4.0,64.0
1044,75.0,2.0,60.0,2.0,64.0
1045,56.0,21.0,120.0,4.0,64.0
1046,66.0,12.0,90.0,4.0,64.0
1047,77.0,25.0,30.0,2.0,64.0
1048,75.0,22.0,60.0,2.0,64.0
1049,60.0,4.0,90.0,4.0,64.0
1050,66.0,3.0,60.0,4.0,64.0
1051,73.0,21.0,30.0,2.0,64.0
1052,75.0,296.0,30.0,2.0,64.0
1053,61.0,1.0,300.0,4.0,64.0
1054,73.0,43.0,300.0,2.0,64.0
1055,77.0,41.0,60.0,2.0,64.0
1056,65.0,1.0,60.0,4.0,64.0
1057,73.0,85.0,60.0,2.0,64.0
1058,61.0,1.0,60.0,4.0,64.0
1059,66.0,1.0,90.0,4.0,64.0
1060,78.0,57.0,90.0,2.0,64.0
1061,75.0,42.0,60.0,2.0,64.0
1062,63.0,1.0,60.0,4.0,64.0
1063,72.0,85.0,60.0,2.0,64.0
1064,60.0,0.0,60.0,4.0,64.0
1065,73.0,52.0,90.0,2.0,64.0
1066,61.0,1.0,90.0,4.0,64.0
1067,70.0,0.0,60.0,4.0,64.0
1068,58.0,48.0,60.0,4.0,64.0
1069,67.0,170.0,60.0,4.0,64.0
1070,55.0,0.0,60.0,4.0,64.0
1071,68.0,195.0,180.0,4.0,64.0
1072,56.0,0.0,180.0,4.0,64.0
1073,84.0,269.0,180.0,1.0,64.0
1074,78.0,1.0,180.0,2.0,64.0
1075,75.0,0.0,180.0,2.0,64.0
1076,56.0,1.0,180.0,4.0,64.0
1077,44.0,0.0,180.0,4.0,64.0
1078,49.0,297.0,390.0,4.0,64.0
1079,73.0,9.0,270.0,2.0,64.0
1080,37.0,1.0,390.0,4.0,64.0
1081,77.0,10.0,270.0,2.0,64.0
1082,80.0,8.0,270.0,2.0,64.0
1083,85.0,108.0,270.0,1.0,64.0
1084,66.0,9.0,330.0,4.0,64.0
1085,42.0,17.0,1920.0,4.0,64.0
1086,54.0,31.0,300.0,4.0,64.0
1087,70.0,9.0,330.0,4.0,64.0
1088,73.0,12.0,330.0,2.0,64.0
1089,78.0,64.0,330.0,2.0,64.0
1090,71.0,43.0,60.0,2.0,64.0
1091,59.0,0.0,60.0,4.0,64.0
1092,70.0,45.0,60.0,4.0,64.0
1093,58.0,1.0,60.0,4.0,64.0
1094,68.0,46.0,60.0,4.0,64.0
1095,56.0,1.0,60.0,4.0,64.0
1096,66.0,46.0,60.0,4.0,64.0
1097,54.0,0.0,60.0,4.0,64.0
1098,71.0,41.0,60.0,2.0,64.0
1099,59.0,1.0,60.0,4.0,64.0
1100,70.0,0.0,60.0,4.0,64.0
1101,58.0,46.0,60.0,4.0,64.0
1102,68.0,47.0,60.0,4.0,64.0
1103,56.0,1.0,60.0,4.0,64.0
1104,66.0,171.0,60.0,4.0,64.0
1105,54.0,1.0,60.0,4.0,64.0
1106,61.0,1.0,180.0,4.0,64.0
1107,73.0,182.0,180.0,2.0,64.0
1108,70.0,0.0,180.0,4.0,64.0
1109,58.0,253.0,180.0,4.0,64.0
1110,75.0,123.0,240.0,2.0,64.0
1111,63.0,1.0,240.0,4.0,64.0
1112,70.0,94.0,90.0,4.0,64.0
1113,58.0,0.0,90.0,4.0,64.0
1114,71.0,92.0,90.0,2.0,64.0
1115,59.0,0.0,90.0,4.0,64.0
1116,68.0,89.0,90.0,4.0,64.0
1117,56.0,1.0,90.0,4.0,64.0
1118,73.0,88.0,90.0,2.0,64.0
1119,61.0,1.0,90.0,4.0,64.0
1120,70.0,0.0,90.0,4.0,64.0
1121,58.0,77.0,90.0,4.0,64.0
1122,66.0,92.0,90.0,4.0,64.0
1123,54.0,0.0,90.0,4.0,64.0
1124,63.0,90.0,90.0,4.0,64.0
1125,51.0,0.0,90.0,4.0,64.0
1126,56.0,1.0,90.0,4.0,64.0
1127,68.0,95.0,90.0,4.0,64.0
1128,65.0,69.0,90.0,4.0,64.0
1129,53.0,1.0,90.0,4.0,64.0
1130,61.0,84.0,60.0,4.0,64.0
1131,49.0,94.0,150.0,4.0,64.0
1132,61.0,93.0,150.0,4.0,64.0
1133,49.0,94.0,150.0,4.0,64.0
1134,61.0,89.0,150.0,4.0,64.0
1135,49.0,15.0,150.0,4.0,64.0
1136,78.0,72.0,60.0,2.0,64.0
1137,70.0,1.0,60.0,4.0,64.0
1138,61.0,23.0,150.0,4.0,64.0
1139,70.0,1.0,90.0,4.0,64.0
1140,78.0,65.0,90.0,2.0,64.0
1141,49.0,23.0,150.0,4.0,64.0
1142,78.0,65.0,90.0,2.0,64.0
1143,70.0,0.0,90.0,4.0,64.0
1144,61.0,15.0,150.0,4.0,64.0
1145,78.0,76.0,60.0,2.0,64.0
1146,49.0,15.0,150.0,4.0,64.0
1147,70.0,1.0,60.0,4.0,64.0
1148,77.0,76.0,90.0,2.0,64.0
1149,68.0,1.0,90.0,4.0,64.0
1150,61.0,92.0,150.0,4.0,64.0
1151,68.0,88.0,240.0,4.0,64.0
1152,77.0,0.0,240.0,2.0,64.0
1153,49.0,92.0,150.0,4.0,64.0
1154,61.0,1.0,150.0,4.0,64.0
1155,49.0,15.0,150.0,4.0,64.0
1156,82.0,72.0,90.0,1.0,64.0
1157,61.0,23.0,150.0,4.0,64.0
1158,78.0,1.0,60.0,2.0,64.0
1159,78.0,1.0,90.0,2.0,64.0
1160,82.0,64.0,90.0,1.0,64.0
1161,49.0,23.0,150.0,4.0,64.0
1162,82.0,66.0,90.0,1.0,64.0
1163,78.0,1.0,90.0,2.0,64.0
1164,61.0,13.0,150.0,4.0,64.0
1165,82.0,70.0,60.0,1.0,64.0
1166,49.0,16.0,150.0,4.0,64.0
1167,78.0,1.0,60.0,2.0,64.0
1168,80.0,73.0,60.0,2.0,64.0
1169,77.0,1.0,60.0,2.0,64.0
1170,61.0,92.0,150.0,4.0,64.0
1171,77.0,0.0,240.0,2.0,64.0
1172,80.0,89.0,240.0,2.0,64.0
1173,49.0,92.0,150.0,4.0,64.0
1174,61.0,1.0,150.0,4.0,64.0
1175,49.0,15.0,150.0,4.0,64.0
1176,85.0,74.0,90.0,1.0,64.0
1177,82.0,1.0,60.0,1.0,64.0
1178,61.0,23.0,150.0,4.0,64.0
1179,82.0,1.0,90.0,1.0,64.0
1180,85.0,69.0,90.0,1.0,64.0
1181,49.0,24.0,150.0,4.0,64.0
1182,85.0,57.0,90.0,1.0,64.0
1183,82.0,1.0,90.0,1.0,64.0
1184,61.0,37.0,780.0,4.0,64.0
1185,83.0,42.0,60.0,1.0,64.0
1186,49.0,25.0,1350.0,4.0,64.0
1187,82.0,46.0,60.0,1.0,64.0
1188,83.0,41.0,60.0,1.0,64.0
1189,85.0,42.0,60.0,1.0,64.0
1190,87.0,42.0,60.0,1.0,64.0
1191,85.0,39.0,60.0,1.0,64.0
1192,83.0,43.0,60.0,1.0,64.0
1193,82.0,42.0,60.0,1.0,64.0
1194,80.0,45.0,60.0,2.0,64.0
1195,79.0,44.0,60.0,2.0,64.0
1196,80.0,34.0,60.0,2.0,64.0
1197,82.0,41.0,60.0,1.0,64.0
1198,83.0,42.0,60.0,1.0,64.0
1199,82.0,42.0,60.0,1.0,64.0
1200,80.0,45.0,60.0,2.0,64.0
1201,78.0,8.0,60.0,2.0,64.0
1202,77.0,42.0,60.0,2.0,64.0
1203,65.0,1.0,60.0,4.0,64.0
1204,75.0,42.0,60.0,2.0,64.0
1205,63.0,0.0,60.0,4.0,64.0
1206,65.0,40.0,60.0,4.0,64.0
1207,77.0,0.0,60.0,2.0,64.0
1208,78.0,43.0,60.0,2.0,64.0
1209,66.0,1.0,60.0,4.0,64.0
1210,80.0,38.0,60.0,2.0,64.0
1211,68.0,1.0,60.0,4.0,64.0
1212,78.0,42.0,60.0,2.0,64.0
1213,66.0,0.0,60.0,4.0,64.0
1214,77.0,44.0,60.0,2.0,64.0
1215,65.0,0.0,60.0,4.0,64.0
1216,75.0,43.0,60.0,2.0,64.0
1217,63.0,1.0,60.0,4.0,64.0
1218,73.0,43.0,60.0,2.0,64.0
1219,61.0,1.0,60.0,4.0,64.0
1220,72.0,42.0,60.0,2.0,64.0
1221,60.0,1.0,60.0,4.0,64.0
1222,73.0,46.0,60.0,2.0,64.0
1223,61.0,0.0,60.0,4.0,64.0
1224,75.0,38.0,60.0,2.0,64.0
1225,63.0,0.0,60.0,4.0,64.0
1226,73.0,43.0,60.0,2.0,64.0
1227,61.0,1.0,60.0,4.0,64.0
1228,71.0,45.0,60.0,2.0,64.0
1229,59.0,1.0,60.0,4.0,64.0
1230,70.0,21.0,60.0,4.0,64.0
1231,58.0,1.0,60.0,4.0,64.0
1232,68.0,73.0,60.0,4.0,64.0
1233,56.0,1.0,60.0,4.0,64.0
1234,66.0,92.0,360.0,4.0,64.0
1235,42.0,85.0,1410.0,4.0,64.0
1236,54.0,96.0,90.0,4.0,64.0
1237,54.0,93.0,90.0,4.0,64.0
1238,54.0,93.0,90.0,4.0,64.0
1239,54.0,0.0,90.0,4.0,64.0
1240,68.0,91.0,180.0,4.0,64.0
1241,54.0,94.0,90.0,4.0,64.0
1242,65.0,1.0,180.0,4.0,64.0
1243,54.0,0.0,90.0,4.0,64.0
1244,64.0,91.0,180.0,4.0,64.0
1245,70.0,0.0,180.0,4.0,64.0
1246,54.0,94.0,90.0,4.0,64.0
1247,54.0,1.0,90.0,4.0,64.0
1248,63.0,10.0,180.0,4.0,64.0
1249,71.0,24.0,150.0,2.0,64.0
1250,54.0,53.0,90.0,4.0,64.0
1251,54.0,1.0,90.0,4.0,64.0
1252,73.0,22.0,20.0,2.0,64.0
1253,75.0,86.0,30.0,2.0,64.0
1254,73.0,87.0,90.0,2.0,64.0
1255,65.0,6.0,180.0,4.0,64.0
1256,54.0,8.0,90.0,4.0,64.0
1257,71.0,88.0,90.0,2.0,64.0
1258,54.0,1.0,90.0,4.0,64.0
1259,70.0,0.0,360.0,4.0,64.0
1260,66.0,94.0,360.0,4.0,64.0
1261,54.0,95.0,90.0,4.0,64.0
1262,54.0,92.0,90.0,4.0,64.0
1263,54.0,8.0,90.0,4.0,64.0
1264,54.0,1.0,90.0,4.0,64.0
1265,66.0,93.0,360.0,4.0,64.0
1266,70.0,0.0,360.0,4.0,64.0
1267,42.0,95.0,1440.0,4.0,64.0
1268,54.0,94.0,90.0,4.0,64.0
1269,54.0,96.0,90.0,4.0,64.0
1270,54.0,96.0,90.0,4.0,64.0
1271,54.0,1.0,90.0,4.0,64.0
1272,71.0,6.0,180.0,2.0,64.0
1273,54.0,95.0,90.0,4.0,64.0
1274,68.0,87.0,180.0,4.0,64.0
1275,54.0,1.0,90.0,4.0,64.0
1276,73.0,92.0,180.0,2.0,64.0
1277,70.0,0.0,180.0,4.0,64.0
1278,54.0,94.0,90.0,4.0,64.0
1279,54.0,1.0,90.0,4.0,64.0
1280,75.0,27.0,150.0,2.0,64.0
1281,71.0,8.0,390.0,2.0,64.0
1282,54.0,54.0,90.0,4.0,64.0
1283,54.0,10.0,90.0,4.0,64.0
1284,77.0,22.0,30.0,2.0,64.0
1285,78.0,85.0,30.0,2.0,64.0
1286,77.0,87.0,90.0,2.0,64.0
1287,54.0,8.0,90.0,4.0,64.0
1288,75.0,86.0,90.0,2.0,64.0
1289,54.0,1.0,90.0,4.0,64.0
1290,73.0,0.0,390.0,2.0,64.0
1291,70.0,8.0,390.0,4.0,64.0
1292,54.0,95.0,90.0,4.0,64.0
1293,54.0,96.0,90.0,4.0,64.0
1294,54.0,8.0,90.0,4.0,64.0
1295,54.0,1.0,90.0,4.0,64.0
1296,82.0,84.0,90.0,1.0,64.0
1297,80.0,48.0,90.0,2.0,64.0
1298,59.0,37.0,210.0,4.0,64.0
1299,47.0,0.0,210.0,4.0,64.0
1300,90.0,49.0,90.0,1.0,64.0
1301,80.0,10.0,90.0,2.0,64.0
1302,90.0,48.0,90.0,1.0,64.0
1303,80.0,48.0,90.0,2.0,64.0
1304,54.0,37.0,210.0,4.0,64.0
1305,66.0,0.0,210.0,4.0,64.0
1306,90.0,46.0,90.0,1.0,64.0
1307,80.0,11.0,90.0,2.0,64.0
1308,90.0,46.0,90.0,1.0,64.0
1309,80.0,47.0,90.0,2.0,64.0
1310,51.0,37.0,210.0,4.0,64.0
1311,63.0,0.0,210.0,4.0,64.0
1312,90.0,48.0,90.0,1.0,64.0
1313,80.0,11.0,90.0,2.0,64.0
1314,90.0,48.0,90.0,1.0,64.0
1315,47.0,37.0,210.0,4.0,64.0
1316,59.0,0.0,210.0,4.0,64.0
1317,80.0,48.0,90.0,2.0,64.0
1318,90.0,46.0,90.0,1.0,64.0
1319,80.0,11.0,90.0,2.0,64.0
1320,90.0,48.0,90.0,1.0,64.0
1321,49.0,37.0,210.0,4.0,64.0
1322,61.0,0.0,210.0,4.0,64.0
1323,82.0,48.0,90.0,1.0,64.0
1324,90.0,48.0,90.0,1.0,64.0
1325,82.0,11.0,90.0,1.0,64.0
1326,90.0,46.0,90.0,1.0,64.0
1327,82.0,48.0,90.0,1.0,64.0
1328,66.0,35.0,210.0,4.0,64.0
1329,54.0,0.0,210.0,4.0,64.0
1330,90.0,48.0,90.0,1.0,64.0
1331,82.0,11.0,90.0,1.0,64.0
1332,90.0,46.0,90.0,1.0,64.0
1333,82.0,46.0,90.0,1.0,64.0
1334,52.0,1.0,180.0,4.0,64.0
1335,64.0,36.0,180.0,4.0,64.0
1336,90.0,46.0,90.0,1.0,64.0
1337,82.0,11.0,90.0,1.0,64.0
1338,90.0,48.0,90.0,1.0,64.0
1339,82.0,48.0,90.0,1.0,64.0
1340,49.0,1.0,210.0,4.0,64.0
1341,61.0,35.0,210.0,4.0,64.0
1342,90.0,48.0,90.0,1.0,64.0
1343,82.0,11.0,90.0,1.0,64.0
1344,90.0,46.0,90.0,1.0,64.0
1345,83.0,48.0,90.0,1.0,64.0
1346,51.0,1.0,180.0,4.0,64.0
1347,63.0,37.0,180.0,4.0,64.0
1348,90.0,46.0,90.0,1.0,64.0
1349,83.0,9.0,90.0,1.0,64.0
1350,90.0,46.0,90.0,1.0,64.0
1351,83.0,48.0,90.0,1.0,64.0
1352,71.0,35.0,210.0,2.0,64.0
1353,59.0,1.0,180.0,4.0,64.0
1354,90.0,46.0,90.0,1.0,64.0
1355,83.0,10.0,90.0,1.0,64.0
1356,90.0,46.0,90.0,1.0,64.0
1357,66.0,0.0,180.0,4.0,64.0
1358,83.0,46.0,90.0,1.0,64.0
1359,54.0,37.0,180.0,4.0,64.0
1360,90.0,46.0,90.0,1.0,64.0
1361,83.0,9.0,90.0,1.0,64.0
1362,90.0,46.0,90.0,1.0,64.0
1363,83.0,48.0,90.0,1.0,64.0
1364,51.0,1.0,180.0,4.0,64.0
1365,63.0,37.0,180.0,4.0,64.0
1366,90.0,46.0,90.0,1.0,64.0
1367,83.0,10.0,90.0,1.0,64.0
1368,90.0,44.0,90.0,1.0,64.0
1369,84.0,46.0,90.0,1.0,64.0
1370,62.0,0.0,180.0,4.0,64.0
1371,78.0,1.0,90.0,2.0,64.0
1372,50.0,37.0,180.0,4.0,64.0
1373,90.0,48.0,90.0,1.0,64.0
1374,78.0,11.0,90.0,2.0,64.0
1375,84.0,0.0,90.0,1.0,64.0
1376,90.0,48.0,90.0,1.0,64.0
1377,84.0,46.0,90.0,1.0,64.0
1378,78.0,0.0,90.0,2.0,64.0
1379,57.0,1.0,180.0,4.0,64.0
1380,69.0,37.0,180.0,4.0,64.0
1381,90.0,46.0,90.0,1.0,64.0
1382,78.0,10.0,90.0,2.0,64.0
1383,84.0,0.0,90.0,1.0,64.0
1384,90.0,48.0,90.0,1.0,64.0
1385,84.0,46.0,90.0,1.0,64.0
1386,78.0,0.0,90.0,2.0,64.0
1387,66.0,37.0,210.0,4.0,64.0
1388,54.0,0.0,210.0,4.0,64.0
1389,90.0,48.0,90.0,1.0,64.0
1390,84.0,11.0,90.0,1.0,64.0
1391,78.0,0.0,90.0,2.0,64.0
1392,90.0,48.0,90.0,1.0,64.0
1393,84.0,0.0,90.0,1.0,64.0
1394,62.0,1.0,180.0,4.0,64.0
1395,78.0,48.0,90.0,2.0,64.0
1396,50.0,89.0,210.0,4.0,64.0
1397,90.0,43.0,90.0,1.0,64.0
1398,84.0,28.0,90.0,1.0,64.0
1399,78.0,0.0,90.0,2.0,64.0
1400,90.0,1.0,30.0,1.0,64.0
1401,61.0,51.0,660.0,4.0,64.0
1402,80.0,9.0,240.0,2.0,64.0
1403,85.0,9.0,240.0,1.0,64.0
1404,89.0,43.0,240.0,1.0,64.0
1405,73.0,45.0,60.0,2.0,64.0
1406,72.0,44.0,60.0,2.0,64.0
1407,73.0,46.0,60.0,2.0,64.0
1408,75.0,17.0,60.0,2.0,64.0
1409,73.0,52.0,90.0,2.0,64.0
1410,85.0,0.0,90.0,1.0,64.0
1411,70.0,34.0,90.0,4.0,64.0
1412,73.0,51.0,90.0,2.0,64.0
1413,83.0,35.0,90.0,1.0,64.0
1414,68.0,1.0,90.0,4.0,64.0
1415,73.0,51.0,90.0,2.0,64.0
1416,82.0,33.0,90.0,1.0,64.0
1417,66.0,0.0,90.0,4.0,64.0
1418,73.0,53.0,90.0,2.0,64.0
1419,65.0,34.0,90.0,4.0,64.0
1420,80.0,0.0,90.0,2.0,64.0
1421,73.0,5.0,90.0,2.0,64.0
1422,78.0,33.0,90.0,2.0,64.0
1423,63.0,1.0,90.0,4.0,64.0
1424,73.0,51.0,90.0,2.0,64.0
1425,77.0,34.0,90.0,2.0,64.0
1426,61.0,0.0,90.0,4.0,64.0
1427,73.0,55.0,90.0,2.0,64.0
1428,63.0,34.0,90.0,4.0,64.0
1429,78.0,0.0,90.0,2.0,64.0
1430,73.0,50.0,90.0,2.0,64.0
1431,80.0,35.0,90.0,2.0,64.0
1432,65.0,1.0,90.0,4.0,64.0
1433,73.0,53.0,90.0,2.0,64.0
1434,66.0,33.0,90.0,4.0,64.0
1435,82.0,0.0,90.0,1.0,64.0
1436,73.0,9.0,90.0,2.0,64.0
1437,85.0,39.0,60.0,1.0,64.0
1438,68.0,31.0,90.0,4.0,64.0
1439,83.0,1.0,60.0,1.0,64.0
1440,73.0,9.0,90.0,2.0,64.0
1441,82.0,43.0,60.0,1.0,64.0
1442,65.0,33.0,90.0,4.0,64.0
1443,80.0,0.0,60.0,2.0,64.0
1444,73.0,9.0,90.0,2.0,64.0
1445,83.0,41.0,60.0,1.0,64.0
1446,66.0,31.0,90.0,4.0,64.0
1447,82.0,1.0,60.0,1.0,64.0
1448,73.0,11.0,90.0,2.0,64.0
1449,80.0,32.0,60.0,2.0,64.0
1450,63.0,94.0,90.0,4.0,64.0
1451,78.0,17.0,30.0,2.0,64.0
1452,73.0,1.0,30.0,2.0,64.0
1453,77.0,11.0,240.0,2.0,64.0
1454,61.0,51.0,660.0,4.0,64.0
1455,80.0,10.0,240.0,2.0,64.0
1456,85.0,14.0,240.0,1.0,64.0
1457,73.0,42.0,60.0,2.0,64.0
1458,72.0,44.0,60.0,2.0,64.0
1459,73.0,42.0,60.0,2.0,64.0
1460,75.0,8.0,60.0,2.0,64.0
1461,73.0,79.0,60.0,2.0,64.0
1462,85.0,9.0,90.0,1.0,64.0
1463,70.0,32.0,90.0,4.0,64.0
1464,73.0,51.0,90.0,2.0,64.0
1465,68.0,1.0,90.0,4.0,64.0
1466,83.0,35.0,90.0,1.0,64.0
1467,73.0,51.0,90.0,2.0,64.0
1468,82.0,33.0,90.0,1.0,64.0
1469,66.0,0.0,90.0,4.0,64.0
1470,73.0,53.0,90.0,2.0,64.0
1471,65.0,35.0,90.0,4.0,64.0
1472,80.0,0.0,90.0,2.0,64.0
1473,73.0,2.0,90.0,2.0,64.0
1474,78.0,33.0,90.0,2.0,64.0
1475,63.0,1.0,90.0,4.0,64.0
1476,73.0,55.0,90.0,2.0,64.0
1477,77.0,33.0,90.0,2.0,64.0
1478,61.0,0.0,90.0,4.0,64.0
1479,73.0,53.0,90.0,2.0,64.0
1480,78.0,33.0,90.0,2.0,64.0
1481,63.0,1.0,90.0,4.0,64.0
1482,73.0,53.0,90.0,2.0,64.0
1483,80.0,31.0,90.0,2.0,64.0
1484,65.0,0.0,90.0,4.0,64.0
1485,73.0,54.0,90.0,2.0,64.0
1486,82.0,33.0,90.0,1.0,64.0
1487,66.0,0.0,90.0,4.0,64.0
1488,73.0,9.0,90.0,2.0,64.0
1489,68.0,32.0,90.0,4.0,64.0
1490,85.0,41.0,60.0,1.0,64.0
1491,73.0,9.0,90.0,2.0,64.0
1492,83.0,1.0,60.0,1.0,64.0
1493,82.0,43.0,60.0,1.0,64.0
1494,65.0,33.0,90.0,4.0,64.0
1495,80.0,1.0,60.0,2.0,64.0
1496,73.0,11.0,90.0,2.0,64.0
1497,83.0,39.0,60.0,1.0,64.0
1498,66.0,35.0,90.0,4.0,64.0
1499,73.0,9.0,90.0,2.0,64.0
1500,82.0,0.0,60.0,1.0,64.0
1501,80.0,35.0,60.0,2.0,64.0
1502,63.0,171.0,90.0,4.0,64.0
1503,78.0,1.0,30.0,2.0,64.0
1504,73.0,0.0,30.0,2.0,64.0
1505,77.0,8.0,180.0,2.0,64.0
1506,61.0,0.0,180.0,4.0,64.0
1507,80.0,10.0,150.0,2.0,64.0
1508,85.0,51.0,150.0,1.0,64.0
1509,80.0,44.0,60.0,2.0,64.0
1510,68.0,1.0,180.0,4.0,64.0
1511,61.0,0.0,180.0,4.0,64.0
1512,65.0,14.0,180.0,4.0,64.0
1513,77.0,48.0,60.0,2.0,64.0
1514,80.0,31.0,60.0,2.0,64.0
1515,77.0,347.0,60.0,2.0,64.0
1516,73.0,103.0,360.0,2.0,64.0
1517,61.0,24.0,1080.0,4.0,64.0
1518,68.0,52.0,600.0,4.0,64.0
1519,65.0,91.0,840.0,4.0,64.0
1520,80.0,113.0,90.0,2.0,64.0
1521,85.0,41.0,120.0,1.0,64.0
1522,84.0,83.0,90.0,1.0,64.0
1523,87.0,94.0,90.0,1.0,64.0
1524,85.0,5.0,90.0,1.0,64.0
1525,84.0,97.0,90.0,1.0,64.0
1526,82.0,36.0,90.0,1.0,64.0
1527,84.0,0.0,30.0,1.0,64.0
1528,75.0,15.0,90.0,3.0,64.0
1529,72.0,1.0,90.0,3.0,64.0
1530,82.0,25.0,30.0,1.0,64.0
1531,84.0,9.0,30.0,1.0,64.0
1532,82.0,80.0,30.0,1.0,64.0
1533,80.0,93.0,90.0,2.0,64.0
1534,75.0,0.0,90.0,3.0,64.0
1535,72.0,1.0,90.0,3.0,64.0
1536,75.0,93.0,90.0,3.0,64.0
1537,80.0,44.0,240.0,2.0,64.0
1538,72.0,1.0,90.0,3.0,64.0
1539,75.0,53.0,90.0,3.0,64.0
1540,72.0,1.0,90.0,3.0,64.0
1541,75.0,42.0,90.0,3.0,64.0
1542,72.0,1.0,90.0,3.0,64.0
1543,82.0,23.0,30.0,1.0,64.0
1544,75.0,92.0,90.0,3.0,64.0
1545,72.0,1.0,90.0,3.0,64.0
1546,80.0,31.0,30.0,2.0,64.0
1547,79.0,0.0,30.0,2.0,64.0
1548,80.0,79.0,90.0,2.0,64.0
1549,75.0,15.0,90.0,3.0,64.0
1550,72.0,0.0,90.0,3.0,64.0
1551,72.0,17.0,90.0,3.0,64.0
1552,75.0,0.0,90.0,3.0,64.0
1553,82.0,79.0,90.0,1.0,64.0
1554,80.0,91.0,90.0,2.0,64.0
1555,73.0,4.0,90.0,3.0,64.0
1556,70.0,0.0,90.0,3.0,64.0
1557,73.0,95.0,90.0,3.0,64.0
1558,78.0,79.0,210.0,2.0,64.0
1559,70.0,1.0,90.0,3.0,64.0
1560,73.0,14.0,90.0,3.0,64.0
1561,70.0,1.0,90.0,3.0,64.0
1562,82.0,71.0,120.0,1.0,64.0
1563,73.0,24.0,90.0,3.0,64.0
1564,70.0,1.0,90.0,3.0,64.0
1565,72.0,22.0,90.0,3.0,64.0
1566,78.0,73.0,120.0,2.0,64.0
1567,68.0,1.0,90.0,3.0,64.0
1568,77.0,4.0,180.0,2.0,64.0
1569,72.0,89.0,90.0,3.0,64.0
1570,68.0,1.0,90.0,3.0,64.0
1571,68.0,1.0,90.0,3.0,64.0
1572,72.0,95.0,90.0,3.0,64.0
1573,80.0,46.0,120.0,2.0,64.0
1574,72.0,18.0,90.0,3.0,64.0
1575,68.0,1.0,90.0,3.0,64.0
1576,77.0,27.0,60.0,2.0,64.0
1577,70.0,15.0,90.0,3.0,64.0
1578,66.0,1.0,90.0,4.0,64.0
1579,75.0,46.0,60.0,2.0,64.0
1580,70.0,0.0,90.0,3.0,64.0
1581,78.0,29.0,60.0,2.0,64.0
1582,66.0,15.0,90.0,4.0,64.0
1583,77.0,45.0,60.0,2.0,64.0
1584,80.0,29.0,60.0,2.0,64.0
1585,70.0,15.0,90.0,3.0,64.0
1586,66.0,0.0,90.0,4.0,64.0
1587,78.0,44.0,60.0,2.0,64.0
1588,77.0,31.0,60.0,2.0,64.0
1589,70.0,14.0,90.0,3.0,64.0
1590,66.0,1.0,90.0,4.0,64.0
1591,75.0,45.0,60.0,2.0,64.0
1592,68.0,38.0,1020.0,3.0,64.0
1593,73.0,46.0,60.0,2.0,64.0
1594,65.0,1.0,1020.0,4.0,64.0
1595,75.0,44.0,60.0,2.0,64.0
1596,73.0,44.0,60.0,2.0,64.0
1597,72.0,43.0,60.0,2.0,64.0
1598,73.0,42.0,60.0,2.0,64.0
1599,75.0,45.0,60.0,2.0,64.0
1600,77.0,44.0,60.0,2.0,64.0
1601,78.0,44.0,60.0,2.0,64.0
1602,79.0,43.0,60.0,2.0,64.0
1603,80.0,44.0,60.0,2.0,64.0
1604,82.0,42.0,60.0,1.0,64.0
1605,80.0,44.0,60.0,2.0,64.0
1606,84.0,44.0,60.0,1.0,64.0
1607,82.0,46.0,60.0,1.0,64.0
1608,85.0,44.0,60.0,1.0,64.0
1609,84.0,88.0,60.0,1.0,64.0
1610,87.0,87.0,90.0,1.0,64.0
1611,85.0,91.0,90.0,1.0,64.0
1612,84.0,53.0,90.0,1.0,64.0
1613,82.0,80.0,90.0,1.0,64.0
1614,79.0,48.0,90.0,2.0,64.0
1615,75.0,6.0,90.0,3.0,64.0
1616,72.0,1.0,90.0,3.0,64.0
1617,75.0,95.0,90.0,3.0,64.0
1618,82.0,38.0,60.0,1.0,64.0
1619,72.0,1.0,90.0,3.0,64.0
1620,80.0,4.0,30.0,2.0,64.0
1621,80.0,39.0,240.0,2.0,64.0
1622,75.0,93.0,90.0,3.0,64.0
1623,72.0,1.0,90.0,3.0,64.0
1624,75.0,56.0,90.0,3.0,64.0
1625,72.0,1.0,90.0,3.0,64.0
1626,75.0,6.0,90.0,3.0,64.0
1627,72.0,1.0,90.0,3.0,64.0
1628,82.0,48.0,60.0,1.0,64.0
1629,80.0,38.0,60.0,2.0,64.0
1630,75.0,8.0,90.0,3.0,64.0
1631,72.0,0.0,90.0,3.0,64.0
1632,79.0,69.0,60.0,2.0,64.0
1633,75.0,0.0,90.0,3.0,64.0
1634,80.0,17.0,60.0,2.0,64.0
1635,72.0,100.0,90.0,3.0,64.0
1636,80.0,79.0,180.0,2.0,64.0
1637,75.0,90.0,90.0,3.0,64.0
1638,72.0,0.0,90.0,3.0,64.0
1639,73.0,13.0,90.0,3.0,64.0
1640,70.0,0.0,90.0,3.0,64.0
1641,77.0,83.0,180.0,2.0,64.0
1642,70.0,92.0,90.0,3.0,64.0
1643,73.0,0.0,90.0,3.0,64.0
1644,73.0,11.0,90.0,3.0,64.0
1645,70.0,1.0,90.0,3.0,64.0
1646,73.0,89.0,90.0,3.0,64.0
1647,78.0,81.0,180.0,2.0,64.0
1648,70.0,1.0,90.0,3.0,64.0
1649,72.0,11.0,90.0,3.0,64.0
1650,68.0,1.0,90.0,3.0,64.0
1651,76.0,79.0,180.0,2.0,64.0
1652,72.0,92.0,90.0,3.0,64.0
1653,68.0,0.0,90.0,3.0,64.0
1654,72.0,0.0,90.0,3.0,64.0
1655,68.0,11.0,90.0,3.0,64.0
1656,77.0,82.0,180.0,2.0,64.0
1657,72.0,90.0,90.0,3.0,64.0
1658,68.0,0.0,90.0,3.0,64.0
1659,70.0,11.0,90.0,3.0,64.0
1660,66.0,1.0,90.0,3.0,64.0
1661,74.0,81.0,180.0,2.0,64.0
1662,70.0,91.0,90.0,4.0,64.0
1663,66.0,1.0,90.0,4.0,64.0
1664,70.0,9.0,90.0,4.0,64.0
1665,66.0,1.0,90.0,4.0,64.0
1666,75.0,54.0,150.0,2.0,64.0
1667,66.0,55.0,90.0,4.0,64.0
1668,70.0,0.0,90.0,4.0,64.0
1669,68.0,0.0,360.0,4.0,64.0
1670,65.0,9.0,360.0,4.0,64.0
1671,72.0,44.0,60.0,2.0,64.0
1672,75.0,79.0,60.0,2.0,64.0
1673,73.0,7.0,90.0,2.0,64.0
1674,82.0,46.0,60.0,1.0,64.0
1675,80.0,44.0,60.0,2.0,64.0
1676,78.0,37.0,60.0,2.0,64.0
1677,77.0,92.0,60.0,2.0,64.0
1678,66.0,0.0,90.0,4.0,64.0
1679,75.0,36.0,90.0,2.0,64.0
1680,54.0,1.0,90.0,4.0,64.0
1681,85.0,57.0,90.0,1.0,64.0
1682,74.0,34.0,90.0,2.0,64.0
1683,65.0,1.0,90.0,4.0,64.0
1684,53.0,0.0,90.0,4.0,64.0
1685,85.0,57.0,90.0,1.0,64.0
1686,75.0,34.0,90.0,2.0,64.0
1687,66.0,1.0,90.0,4.0,64.0
1688,54.0,0.0,90.0,4.0,64.0
1689,85.0,57.0,90.0,1.0,64.0
1690,74.0,0.0,90.0,2.0,64.0
1691,53.0,1.0,90.0,4.0,64.0
1692,65.0,34.0,90.0,4.0,64.0
1693,85.0,10.0,90.0,1.0,64.0
1694,75.0,44.0,60.0,2.0,64.0
1695,54.0,14.0,360.0,4.0,64.0
1696,66.0,0.0,360.0,4.0,64.0
1697,78.0,45.0,60.0,2.0,64.0
1698,82.0,44.0,60.0,1.0,64.0
1699,80.0,44.0,60.0,2.0,64.0
1700,83.0,44.0,60.0,1.0,64.0
1701,82.0,46.0,60.0,1.0,64.0
1702,80.0,31.0,60.0,2.0,64.0
1703,78.0,93.0,60.0,2.0,64.0
1704,56.0,1.0,90.0,4.0,64.0
1705,68.0,35.0,90.0,4.0,64.0
1706,77.0,0.0,90.0,2.0,64.0
1707,85.0,56.0,90.0,1.0,64.0
1708,76.0,37.0,90.0,2.0,64.0
1709,67.0,0.0,90.0,4.0,64.0
1710,55.0,1.0,90.0,4.0,64.0
1711,85.0,57.0,90.0,1.0,64.0
1712,77.0,34.0,90.0,2.0,64.0
1713,68.0,1.0,90.0,4.0,64.0
1714,56.0,0.0,90.0,4.0,64.0
1715,85.0,57.0,90.0,1.0,64.0
1716,67.0,0.0,90.0,4.0,64.0
1717,76.0,34.0,90.0,2.0,64.0
1718,55.0,1.0,90.0,4.0,64.0
1719,85.0,12.0,90.0,1.0,64.0
1720,68.0,14.0,360.0,4.0,64.0
1721,77.0,46.0,60.0,2.0,64.0
1722,56.0,1.0,360.0,4.0,64.0
1723,80.0,44.0,60.0,2.0,64.0
1724,83.0,42.0,60.0,1.0,64.0
1725,82.0,44.0,60.0,1.0,64.0
1726,85.0,46.0,60.0,1.0,64.0
1727,83.0,45.0,60.0,1.0,64.0
1728,82.0,30.0,60.0,1.0,64.0
1729,80.0,93.0,60.0,2.0,64.0
1730,78.0,36.0,90.0,2.0,64.0
1731,58.0,1.0,90.0,4.0,64.0
1732,70.0,0.0,90.0,4.0,64.0
1733,85.0,57.0,90.0,1.0,64.0
1734,77.0,34.0,90.0,2.0,64.0
1735,69.0,1.0,90.0,4.0,64.0
1736,57.0,0.0,90.0,4.0,64.0
1737,85.0,57.0,90.0,1.0,64.0
1738,78.0,35.0,90.0,2.0,64.0
1739,70.0,0.0,90.0,4.0,64.0
1740,58.0,1.0,90.0,4.0,64.0
1741,85.0,56.0,90.0,1.0,64.0
1742,77.0,0.0,90.0,2.0,64.0
1743,57.0,1.0,90.0,4.0,64.0
1744,69.0,35.0,90.0,4.0,64.0
1745,85.0,10.0,90.0,1.0,64.0
1746,70.0,14.0,360.0,4.0,64.0
1747,78.0,45.0,60.0,2.0,64.0
1748,58.0,1.0,360.0,4.0,64.0
1749,82.0,47.0,60.0,1.0,64.0
1750,85.0,42.0,60.0,1.0,64.0
1751,84.0,44.0,60.0,1.0,64.0
1752,87.0,44.0,60.0,1.0,64.0
1753,85.0,46.0,60.0,1.0,64.0
1754,84.0,29.0,60.0,1.0,64.0
1755,85.0,101.0,60.0,1.0,64.0
1756,79.0,40.0,150.0,2.0,64.0
1757,57.0,39.0,120.0,4.0,64.0
1758,61.0,8.0,90.0,4.0,64.0
1759,85.0,14.0,180.0,1.0,64.0
1760,64.0,85.0,90.0,4.0,64.0
1761,67.0,2.0,150.0,4.0,64.0
1762,57.0,38.0,120.0,4.0,64.0
1763,61.0,46.0,90.0,4.0,64.0
1764,64.0,85.0,90.0,4.0,64.0
1765,88.0,14.0,180.0,1.0,64.0
1766,67.0,2.0,150.0,4.0,64.0
1767,57.0,39.0,120.0,4.0,64.0
1768,61.0,46.0,90.0,4.0,64.0
1769,87.0,12.0,180.0,1.0,64.0
1770,64.0,84.0,90.0,4.0,64.0
1771,67.0,4.0,150.0,4.0,64.0
1772,57.0,39.0,120.0,4.0,64.0
1773,61.0,32.0,90.0,4.0,64.0
1774,85.0,6.0,90.0,1.0,64.0
1775,64.0,47.0,90.0,4.0,64.0
1776,67.0,131.0,90.0,4.0,64.0
1777,56.0,36.0,2460.0,4.0,64.0
1778,84.0,8.0,270.0,1.0,64.0
1779,68.0,85.0,90.0,3.0,64.0
1780,72.0,87.0,90.0,3.0,64.0
1781,68.0,6.0,90.0,3.0,64.0
1782,80.0,4.0,90.0,2.0,64.0
1783,72.0,88.0,90.0,3.0,64.0
1784,68.0,1.0,90.0,3.0,64.0
1785,77.0,2.0,180.0,2.0,64.0
1786,81.0,4.0,90.0,2.0,64.0
1787,74.0,86.0,90.0,3.0,64.0
1788,68.0,1.0,90.0,3.0,64.0
1789,74.0,87.0,90.0,3.0,64.0
1790,82.0,6.0,180.0,1.0,64.0
1791,68.0,4.0,90.0,3.0,64.0
1792,78.0,4.0,180.0,2.0,64.0
1793,75.0,89.0,90.0,3.0,64.0
1794,68.0,1.0,90.0,3.0,64.0
1795,82.0,86.0,90.0,1.0,64.0
1796,75.0,3.0,90.0,3.0,64.0
1797,68.0,0.0,90.0,3.0,64.0
1798,79.0,2.0,90.0,2.0,64.0
1799,68.0,3.0,90.0,3.0,64.0
1800,72.0,90.0,90.0,3.0,64.0
1801,80.0,0.0,180.0,2.0,64.0
1802,72.0,88.0,90.0,3.0,64.0
1803,68.0,5.0,90.0,3.0,64.0
1804,77.0,77.0,90.0,2.0,64.0
1805,68.0,5.0,90.0,3.0,64.0
1806,73.0,3.0,90.0,3.0,64.0
1807,80.0,8.0,90.0,2.0,64.0
1808,73.0,87.0,90.0,3.0,64.0
1809,68.0,6.0,90.0,3.0,64.0
1810,85.0,84.0,90.0,1.0,64.0
1811,70.0,4.0,90.0,3.0,64.0
1812,68.0,4.0,90.0,3.0,64.0
1813,78.0,6.0,180.0,2.0,64.0
1814,68.0,6.0,90.0,3.0,64.0
1815,70.0,86.0,90.0,3.0,64.0
1816,75.0,6.0,180.0,3.0,64.0
1817,72.0,86.0,90.0,3.0,64.0
1818,68.0,1.0,90.0,3.0,64.0
1819,72.0,85.0,90.0,3.0,64.0
1820,78.0,1.0,90.0,2.0,64.0
1821,68.0,1.0,90.0,3.0,64.0
1822,76.0,86.0,90.0,2.0,64.0
1823,73.0,1.0,90.0,3.0,64.0
1824,68.0,5.0,90.0,3.0,64.0
1825,77.0,89.0,90.0,2.0,64.0
1826,73.0,23.0,240.0,3.0,64.0
1827,68.0,1.0,90.0,3.0,64.0
1828,68.0,1.0,90.0,3.0,64.0
1829,77.0,69.0,90.0,2.0,64.0
1830,80.0,60.0,90.0,2.0,64.0
1831,77.0,0.0,90.0,2.0,64.0
1832,68.0,0.0,90.0,3.0,64.0
1833,78.0,14.0,360.0,2.0,64.0
1834,82.0,44.0,60.0,1.0,64.0
1835,68.0,44.0,1350.0,3.0,64.0
1836,84.0,46.0,60.0,1.0,64.0
1837,85.0,44.0,60.0,1.0,64.0
1838,84.0,44.0,60.0,1.0,64.0
1839,87.0,44.0,60.0,1.0,64.0
1840,85.0,45.0,60.0,1.0,64.0
1841,84.0,29.0,60.0,1.0,64.0
1842,82.0,46.0,60.0,1.0,64.0
1843,80.0,44.0,60.0,2.0,64.0
1844,77.0,41.0,180.0,2.0,64.0
1845,85.0,45.0,60.0,1.0,64.0
1846,89.0,45.0,60.0,1.0,64.0
1847,84.0,3.0,60.0,1.0,64.0
1848,85.0,10.0,60.0,1.0,64.0
1849,73.0,6.0,180.0,3.0,64.0
1850,80.0,44.0,60.0,2.0,64.0
1851,82.0,41.0,60.0,1.0,64.0
1852,77.0,44.0,60.0,2.0,64.0
1853,75.0,6.0,180.0,3.0,64.0
1854,78.0,46.0,60.0,2.0,64.0
1855,80.0,45.0,60.0,2.0,64.0
1856,82.0,39.0,60.0,1.0,64.0
1857,80.0,46.0,60.0,2.0,64.0
1858,72.0,42.0,510.0,3.0,64.0
1859,84.0,44.0,60.0,1.0,64.0
1860,82.0,46.0,60.0,1.0,64.0
1861,80.0,45.0,60.0,2.0,64.0
1862,78.0,46.0,60.0,2.0,64.0
1863,77.0,44.0,60.0,2.0,64.0
1864,80.0,46.0,60.0,2.0,64.0
1865,85.0,45.0,60.0,1.0,64.0
1866,84.0,84.0,60.0,1.0,64.0
1867,85.0,3.0,180.0,1.0,64.0
1868,80.0,42.0,180.0,2.0,64.0
1869,77.0,8.0,180.0,2.0,64.0
1870,49.0,41.0,90.0,4.0,64.0
1871,37.0,1.0,90.0,4.0,64.0
1872,73.0,48.0,180.0,3.0,64.0
1873,85.0,6.0,180.0,1.0,64.0
1874,53.0,36.0,90.0,4.0,64.0
1875,41.0,0.0,90.0,4.0,64.0
1876,80.0,42.0,180.0,2.0,64.0
1877,56.0,40.0,90.0,4.0,64.0
1878,77.0,45.0,180.0,2.0,64.0
1879,44.0,0.0,90.0,4.0,64.0
1880,73.0,47.0,180.0,3.0,64.0
1881,61.0,0.0,360.0,4.0,64.0
1882,85.0,21.0,180.0,1.0,64.0
1883,49.0,8.0,360.0,4.0,64.0
1884,80.0,36.0,150.0,2.0,64.0
1885,77.0,46.0,360.0,2.0,64.0
1886,73.0,48.0,360.0,3.0,64.0
1887,82.0,44.0,60.0,1.0,64.0
1888,84.0,46.0,60.0,1.0,64.0
1889,85.0,37.0,60.0,1.0,64.0
1890,84.0,75.0,60.0,1.0,64.0
1891,85.0,3.0,180.0,1.0,64.0
1892,82.0,42.0,180.0,1.0,64.0
1893,78.0,8.0,180.0,2.0,64.0
1894,54.0,40.0,90.0,4.0,64.0
1895,42.0,1.0,90.0,4.0,64.0
1896,73.0,48.0,180.0,3.0,64.0
1897,85.0,4.0,180.0,1.0,64.0
1898,58.0,38.0,90.0,4.0,64.0
1899,46.0,0.0,90.0,4.0,64.0
1900,82.0,43.0,180.0,1.0,64.0
1901,61.0,0.0,90.0,4.0,64.0
1902,78.0,46.0,180.0,2.0,64.0
1903,49.0,39.0,90.0,4.0,64.0
1904,73.0,44.0,180.0,3.0,64.0
1905,66.0,2.0,180.0,4.0,64.0
1906,85.0,6.0,180.0,1.0,64.0
1907,54.0,1.0,180.0,4.0,64.0
1908,82.0,0.0,150.0,1.0,64.0
1909,78.0,85.0,90.0,2.0,64.0
1910,73.0,6.0,240.0,3.0,64.0
1911,80.0,18.0,150.0,2.0,64.0
1912,77.0,1.0,150.0,2.0,64.0
1913,68.0,53.0,90.0,4.0,64.0
1914,56.0,1.0,90.0,4.0,64.0
1915,68.0,6.0,90.0,4.0,64.0
1916,56.0,1.0,90.0,4.0,64.0
1917,82.0,1.0,30.0,1.0,64.0
1918,78.0,22.0,20.0,2.0,64.0
1919,75.0,61.0,30.0,3.0,64.0
1920,78.0,21.0,20.0,2.0,64.0
1921,77.0,23.0,240.0,2.0,64.0
1922,73.0,4.0,360.0,3.0,64.0
1923,68.0,0.0,90.0,4.0,64.0
1924,56.0,92.0,90.0,4.0,64.0
1925,68.0,69.0,90.0,4.0,64.0
1926,56.0,1.0,90.0,4.0,64.0
1927,68.0,0.0,90.0,4.0,64.0
1928,56.0,89.0,90.0,4.0,64.0
1929,80.0,73.0,90.0,2.0,64.0
1930,77.0,1.0,90.0,2.0,64.0
1931,68.0,10.0,90.0,4.0,64.0
1932,56.0,0.0,90.0,4.0,64.0
1933,78.0,94.0,90.0,2.0,64.0
1934,75.0,8.0,90.0,3.0,64.0
1935,68.0,6.0,90.0,4.0,64.0
1936,56.0,1.0,90.0,4.0,64.0
1937,75.0,52.0,90.0,3.0,64.0
1938,68.0,0.0,360.0,4.0,64.0
1939,72.0,8.0,360.0,3.0,64.0
1940,56.0,87.0,360.0,4.0,64.0
1941,77.0,44.0,60.0,2.0,64.0
1942,80.0,32.0,60.0,2.0,64.0
1943,85.0,45.0,60.0,1.0,64.0
1944,84.0,82.0,30.0,1.0,64.0
1945,85.0,4.0,180.0,1.0,64.0
1946,80.0,46.0,180.0,2.0,64.0
1947,77.0,4.0,180.0,2.0,64.0
1948,49.0,40.0,90.0,4.0,64.0
1949,37.0,0.0,90.0,4.0,64.0
1950,73.0,48.0,180.0,3.0,64.0
1951,53.0,37.0,90.0,4.0,64.0
1952,85.0,3.0,180.0,1.0,64.0
1953,41.0,1.0,90.0,4.0,64.0
1954,80.0,46.0,180.0,2.0,64.0
1955,77.0,42.0,180.0,2.0,64.0
1956,56.0,40.0,90.0,4.0,64.0
1957,44.0,1.0,90.0,4.0,64.0
1958,73.0,47.0,180.0,2.0,64.0
1959,85.0,6.0,180.0,1.0,64.0
1960,49.0,1.0,360.0,4.0,64.0
1961,61.0,81.0,360.0,4.0,64.0
1962,80.0,45.0,120.0,2.0,64.0
1963,77.0,46.0,360.0,2.0,64.0
1964,73.0,50.0,360.0,2.0,64.0
1965,82.0,43.0,60.0,1.0,64.0
1966,84.0,45.0,30.0,1.0,64.0
1967,85.0,46.0,30.0,1.0,64.0
1968,84.0,0.0,60.0,1.0,64.0
1969,85.0,4.0,180.0,1.0,64.0
1970,82.0,44.0,180.0,1.0,64.0
1971,78.0,7.0,180.0,2.0,64.0
1972,54.0,40.0,90.0,4.0,64.0
1973,42.0,1.0,90.0,4.0,64.0
1974,73.0,47.0,180.0,2.0,64.0
1975,85.0,6.0,180.0,1.0,64.0
1976,58.0,0.0,90.0,4.0,64.0
1977,46.0,37.0,90.0,4.0,64.0
1978,82.0,45.0,180.0,1.0,64.0
1979,78.0,42.0,180.0,2.0,64.0
1980,61.0,40.0,90.0,4.0,64.0
1981,49.0,0.0,90.0,4.0,64.0
1982,73.0,14.0,180.0,2.0,64.0
1983,85.0,4.0,180.0,1.0,64.0
1984,54.0,2.0,180.0,4.0,64.0
1985,66.0,0.0,180.0,4.0,64.0
1986,82.0,88.0,120.0,1.0,64.0
1987,78.0,31.0,60.0,2.0,64.0
1988,73.0,9.0,210.0,2.0,64.0
1989,80.0,19.0,150.0,2.0,64.0
1990,77.0,0.0,150.0,2.0,64.0
1991,68.0,52.0,90.0,4.0,64.0
1992,56.0,1.0,90.0,4.0,64.0
1993,68.0,6.0,90.0,4.0,64.0
1994,56.0,0.0,90.0,4.0,64.0
1995,82.0,0.0,30.0,1.0,64.0
1996,78.0,18.0,20.0,2.0,64.0
1997,78.0,23.0,20.0,2.0,64.0
1998,75.0,63.0,60.0,2.0,64.0
1999,73.0,80.0,360.0,2.0,64.0
2000,77.0,24.0,240.0,2.0,64.0
2001,68.0,94.0,90.0,4.0,64.0
2002,56.0,1.0,90.0,4.0,64.0
2003,68.0,71.0,90.0,4.0,64.0
2004,56.0,0.0,90.0,4.0,64.0
2005,56.0,1.0,90.0,4.0,64.0
2006,68.0,91.0,90.0,4.0,64.0
2007,80.0,1.0,90.0,2.0,64.0
2008,77.0,0.0,90.0,2.0,64.0
2009,68.0,7.0,90.0,4.0,64.0
2010,56.0,0.0,90.0,4.0,64.0
2011,78.0,94.0,90.0,2.0,64.0
2012,75.0,1.0,90.0,2.0,64.0
2013,68.0,7.0,90.0,4.0,64.0
2014,56.0,0.0,90.0,4.0,64.0
2015,75.0,0.0,90.0,2.0,64.0
2016,68.0,140.0,90.0,4.0,64.0
2017,72.0,1.0,90.0,2.0,64.0
2018,56.0,1.0,90.0,4.0,64.0
2019,73.0,1.0,150.0,2.0,64.0
2020,61.0,38.0,150.0,4.0,64.0
2021,75.0,0.0,30.0,2.0,64.0
2022,63.0,24.0,30.0,4.0,64.0
2023,72.0,1.0,30.0,2.0,64.0
2024,59.0,110.0,30.0,4.0,64.0
2025,70.0,61.0,120.0,4.0,64.0
2026,58.0,0.0,120.0,4.0,64.0
2027,72.0,1.0,30.0,2.0,64.0
2028,60.0,17.0,30.0,4.0,64.0
2029,56.0,118.0,30.0,4.0,64.0
2030,68.0,3.0,30.0,4.0,64.0
2031,66.0,0.0,120.0,4.0,64.0
2032,54.0,62.0,120.0,4.0,64.0
2033,68.0,26.0,30.0,4.0,64.0
2034,56.0,0.0,30.0,4.0,64.0
2035,65.0,132.0,30.0,4.0,64.0
2036,53.0,0.0,30.0,4.0,64.0
2037,63.0,4.0,150.0,4.0,64.0
2038,51.0,37.0,150.0,4.0,64.0
2039,65.0,29.0,30.0,4.0,64.0
2040,53.0,0.0,30.0,4.0,64.0
2041,61.0,1.0,30.0,4.0,64.0
2042,49.0,363.0,30.0,4.0,64.0
2043,48.0,94.0,360.0,4.0,64.0
2044,60.0,1.0,360.0,4.0,64.0
2045,80.0,11.0,270.0,2.0,64.0
2046,84.0,11.0,270.0,1.0,64.0
2047,86.0,12.0,270.0,1.0,64.0
2048,90.0,269.0,270.0,1.0,64.0
2049,61.0,46.0,390.0,4.0,64.0
2050,49.0,82.0,1770.0,4.0,64.0
2051,77.0,9.0,240.0,2.0,64.0
2052,80.0,12.0,240.0,2.0,64.0
2053,85.0,10.0,240.0,1.0,64.0
2054,89.0,120.0,240.0,1.0,64.0
2055,73.0,1.0,750.0,2.0,64.0
2056,66.0,66.0,750.0,4.0,64.0
2057,82.0,87.0,120.0,1.0,64.0
2058,81.0,89.0,90.0,2.0,64.0
2059,82.0,94.0,90.0,1.0,64.0
2060,81.0,88.0,90.0,2.0,64.0
2061,82.0,87.0,90.0,1.0,64.0
2062,84.0,97.0,90.0,1.0,64.0
2063,85.0,107.0,180.0,1.0,64.0
2064,76.0,2.0,750.0,2.0,64.0
2065,67.0,45.0,750.0,4.0,64.0
2066,85.0,94.0,90.0,1.0,64.0
2067,84.0,87.0,90.0,1.0,64.0
2068,85.0,94.0,90.0,1.0,64.0
2069,84.0,92.0,90.0,1.0,64.0
2070,85.0,88.0,90.0,1.0,64.0
2071,87.0,8.0,90.0,1.0,64.0
2072,88.0,7.0,90.0,1.0,64.0
2073,56.0,22.0,150.0,4.0,64.0
2074,89.0,43.0,60.0,1.0,64.0
2075,92.0,22.0,60.0,1.0,64.0
2076,65.0,22.0,90.0,4.0,64.0
2077,89.0,0.0,60.0,1.0,64.0
2078,61.0,48.0,150.0,4.0,64.0
2079,85.0,45.0,30.0,1.0,64.0
2080,65.0,22.0,90.0,4.0,64.0
2081,85.0,0.0,60.0,1.0,64.0
2082,56.0,19.0,150.0,4.0,64.0
2083,65.0,20.0,90.0,4.0,64.0
2084,89.0,21.0,60.0,1.0,64.0
2085,85.0,1.0,60.0,1.0,64.0
2086,61.0,48.0,150.0,4.0,64.0
2087,80.0,44.0,30.0,2.0,64.0
2088,65.0,22.0,90.0,4.0,64.0
2089,80.0,0.0,60.0,2.0,64.0
2090,56.0,22.0,150.0,4.0,64.0
2091,85.0,19.0,60.0,1.0,64.0
2092,65.0,22.0,90.0,4.0,64.0
2093,80.0,0.0,60.0,2.0,64.0
2094,61.0,46.0,150.0,4.0,64.0
2095,65.0,22.0,90.0,4.0,64.0
2096,77.0,47.0,30.0,2.0,64.0
2097,77.0,1.0,60.0,2.0,64.0
2098,56.0,53.0,150.0,4.0,64.0
2099,80.0,20.0,60.0,2.0,64.0
2100,65.0,24.0,90.0,4.0,64.0
2101,61.0,49.0,150.0,4.0,64.0
2102,77.0,1.0,60.0,2.0,64.0
2103,65.0,23.0,90.0,4.0,64.0
2104,73.0,25.0,60.0,2.0,64.0
2105,77.0,1.0,60.0,2.0,64.0
2106,56.0,41.0,180.0,4.0,64.0
2107,75.0,23.0,60.0,2.0,64.0
2108,66.0,8.0,90.0,4.0,64.0
2109,77.0,16.0,60.0,2.0,64.0
2110,60.0,57.0,150.0,4.0,64.0
2111,75.0,30.0,60.0,2.0,64.0
2112,66.0,18.0,90.0,4.0,64.0
2113,77.0,5.0,90.0,2.0,64.0
2114,56.0,7.0,150.0,4.0,64.0
2115,75.0,15.0,90.0,2.0,64.0
2116,66.0,22.0,90.0,4.0,64.0
2117,77.0,54.0,90.0,2.0,64.0
2118,60.0,23.0,150.0,4.0,64.0
2119,75.0,6.0,90.0,2.0,64.0
2120,66.0,21.0,90.0,4.0,64.0
2121,56.0,32.0,120.0,4.0,64.0
2122,77.0,35.0,90.0,2.0,64.0
2123,66.0,15.0,60.0,4.0,64.0
2124,75.0,2.0,90.0,2.0,64.0
2125,60.0,33.0,120.0,4.0,64.0
2126,77.0,22.0,60.0,2.0,64.0
2127,66.0,15.0,60.0,4.0,64.0
2128,75.0,4.0,60.0,2.0,64.0
2129,56.0,22.0,120.0,4.0,64.0
2130,66.0,10.0,90.0,4.0,64.0
2131,77.0,25.0,30.0,2.0,64.0
2132,75.0,21.0,60.0,2.0,64.0
2133,60.0,4.0,90.0,4.0,64.0
2134,73.0,21.0,30.0,2.0,64.0
2135,66.0,4.0,60.0,4.0,64.0
2136,75.0,298.0,30.0,2.0,64.0
2137,61.0,42.0,300.0,4.0,64.0
2138,73.0,0.0,300.0,2.0,64.0
2139,77.0,44.0,60.0,2.0,64.0
2140,65.0,0.0,60.0,4.0,64.0
2141,73.0,84.0,60.0,2.0,64.0
2142,61.0,1.0,60.0,4.0,64.0
2143,78.0,58.0,90.0,2.0,64.0
2144,66.0,1.0,90.0,4.0,64.0
2145,75.0,41.0,60.0,2.0,64.0
2146,63.0,1.0,60.0,4.0,64.0
2147,72.0,85.0,60.0,2.0,64.0
2148,60.0,1.0,60.0,4.0,64.0
2149,73.0,54.0,90.0,2.0,64.0
2150,61.0,0.0,90.0,4.0,64.0
2151,70.0,47.0,60.0,4.0,64.0
2152,58.0,1.0,60.0,4.0,64.0
2153,55.0,1.0,60.0,4.0,64.0
2154,67.0,169.0,60.0,4.0,64.0
2155,68.0,192.0,180.0,4.0,64.0
2156,56.0,1.0,180.0,4.0,64.0
2157,84.0,0.0,180.0,1.0,64.0
2158,75.0,0.0,180.0,2.0,64.0
2159,78.0,271.0,180.0,2.0,64.0
2160,44.0,1.0,180.0,4.0,64.0
2161,56.0,1.0,180.0,4.0,64.0
2162,49.0,9.0,2400.0,4.0,64.0
2163,73.0,8.0,270.0,2.0,64.0
2164,37.0,41.0,3960.0,4.0,64.0
2165,77.0,9.0,270.0,2.0,64.0
2166,80.0,10.0,270.0,2.0,64.0
2167,85.0,211.0,270.0,1.0,64.0
2168,73.0,2.0,180.0,2.0,64.0
2169,61.0,52.0,180.0,4.0,64.0
2170,85.0,48.0,60.0,1.0,64.0
2171,84.0,31.0,60.0,1.0,64.0
2172,85.0,60.0,90.0,1.0,64.0
2173,73.0,35.0,120.0,2.0,64.0
2174,64.0,0.0,90.0,4.0,64.0
2175,85.0,58.0,90.0,1.0,64.0
2176,75.0,37.0,90.0,2.0,64.0
2177,66.0,0.0,90.0,4.0,64.0
2178,85.0,59.0,90.0,1.0,64.0
2179,68.0,35.0,90.0,4.0,64.0
2180,76.0,0.0,90.0,2.0,64.0
2181,85.0,57.0,90.0,1.0,64.0
2182,78.0,37.0,90.0,2.0,64.0
2183,69.0,0.0,90.0,4.0,64.0
2184,85.0,59.0,90.0,1.0,64.0
2185,76.0,0.0,120.0,2.0,64.0
2186,68.0,37.0,90.0,4.0,64.0
2187,85.0,61.0,90.0,1.0,64.0
2188,75.0,35.0,120.0,2.0,64.0
2189,66.0,0.0,120.0,4.0,64.0
2190,85.0,59.0,90.0,1.0,64.0
2191,73.0,39.0,150.0,2.0,64.0
2192,64.0,9.0,2340.0,4.0,64.0
2193,85.0,46.0,60.0,1.0,64.0
2194,84.0,6.0,60.0,1.0,64.0
2195,85.0,77.0,60.0,1.0,64.0
2196,88.0,86.0,90.0,1.0,64.0
2197,73.0,7.0,90.0,2.0,64.0
2198,85.0,1.0,60.0,1.0,64.0
2199,87.0,0.0,90.0,1.0,64.0
2200,73.0,8.0,90.0,2.0,64.0
2201,83.0,86.0,60.0,1.0,64.0
2202,85.0,6.0,90.0,1.0,64.0
2203,73.0,8.0,90.0,2.0,64.0
2204,82.0,79.0,60.0,1.0,64.0
2205,87.0,7.0,90.0,1.0,64.0
2206,73.0,8.0,90.0,2.0,64.0
2207,83.0,79.0,60.0,1.0,64.0
2208,85.0,9.0,90.0,1.0,64.0
2209,73.0,8.0,90.0,2.0,64.0
2210,82.0,47.0,60.0,1.0,64.0
2211,83.0,46.0,60.0,1.0,64.0
2212,73.0,45.0,300.0,2.0,64.0
2213,80.0,55.0,60.0,2.0,64.0
2214,82.0,1.0,60.0,1.0,64.0
2215,79.0,32.0,60.0,2.0,64.0
2216,87.0,47.0,60.0,1.0,64.0
2217,86.0,49.0,60.0,1.0,64.0
2218,87.0,59.0,90.0,1.0,64.0
2219,79.0,37.0,90.0,2.0,64.0
2220,70.0,0.0,90.0,4.0,64.0
2221,87.0,59.0,90.0,1.0,64.0
2222,71.0,37.0,120.0,2.0,64.0
2223,80.0,0.0,120.0,2.0,64.0
2224,87.0,48.0,90.0,1.0,64.0
2225,82.0,36.0,90.0,1.0,64.0
2226,73.0,1.0,90.0,2.0,64.0
2227,87.0,59.0,90.0,1.0,64.0
2228,75.0,35.0,90.0,2.0,64.0
2229,83.0,0.0,90.0,1.0,64.0
2230,87.0,57.0,90.0,1.0,64.0
2231,82.0,39.0,90.0,1.0,64.0
2232,73.0,0.0,90.0,2.0,64.0
2233,87.0,59.0,90.0,1.0,64.0
2234,80.0,34.0,120.0,2.0,64.0
2235,71.0,1.0,90.0,2.0,64.0
2236,87.0,19.0,90.0,1.0,64.0
2237,70.0,56.0,780.0,4.0,64.0
2238,79.0,31.0,60.0,2.0,64.0
2239,87.0,47.0,60.0,1.0,64.0
2240,86.0,47.0,60.0,1.0,64.0
2241,87.0,84.0,60.0,1.0,64.0
2242,88.0,85.0,90.0,1.0,64.0
2243,75.0,7.0,90.0,2.0,64.0
2244,85.0,1.0,60.0,1.0,64.0
2245,87.0,86.0,90.0,1.0,64.0
2246,75.0,8.0,90.0,2.0,64.0
2247,83.0,0.0,60.0,1.0,64.0
2248,85.0,84.0,90.0,1.0,64.0
2249,75.0,8.0,90.0,2.0,64.0
2250,82.0,1.0,60.0,1.0,64.0
2251,75.0,7.0,90.0,2.0,64.0
2252,83.0,88.0,90.0,1.0,64.0
2253,80.0,1.0,60.0,2.0,64.0
2254,82.0,47.0,90.0,1.0,64.0
2255,75.0,7.0,90.0,2.0,64.0
2256,78.0,1.0,60.0,2.0,64.0
2257,85.0,40.0,60.0,1.0,64.0
2258,75.0,5.0,90.0,2.0,64.0
2259,82.0,34.0,30.0,1.0,64.0
2260,83.0,42.0,180.0,1.0,64.0
2261,75.0,7.0,90.0,2.0,64.0
2262,80.0,48.0,60.0,2.0,64.0
2263,79.0,41.0,60.0,2.0,64.0
2264,80.0,59.0,90.0,2.0,64.0
2265,68.0,0.0,90.0,4.0,64.0
2266,59.0,35.0,90.0,4.0,64.0
2267,80.0,59.0,90.0,2.0,64.0
2268,70.0,35.0,90.0,4.0,64.0
2269,61.0,1.0,90.0,4.0,64.0
2270,80.0,60.0,90.0,2.0,64.0
2271,71.0,33.0,120.0,2.0,64.0
2272,63.0,1.0,120.0,4.0,64.0
2273,80.0,17.0,90.0,2.0,64.0
2274,64.0,1.0,90.0,4.0,64.0
2275,73.0,35.0,90.0,2.0,64.0
2276,80.0,58.0,90.0,2.0,64.0
2277,71.0,33.0,120.0,2.0,64.0
2278,63.0,1.0,90.0,4.0,64.0
2279,80.0,59.0,90.0,2.0,64.0
2280,61.0,35.0,90.0,4.0,64.0
2281,70.0,0.0,90.0,4.0,64.0
2282,80.0,52.0,90.0,2.0,64.0
2283,68.0,47.0,180.0,4.0,64.0
2284,59.0,15.0,2160.0,4.0,64.0
2285,80.0,45.0,60.0,2.0,64.0
2286,79.0,43.0,60.0,2.0,64.0
2287,80.0,41.0,90.0,2.0,64.0
2288,83.0,86.0,90.0,1.0,64.0
2289,68.0,7.0,90.0,4.0,64.0
2290,80.0,1.0,60.0,2.0,64.0
2291,82.0,7.0,90.0,1.0,64.0
2292,68.0,7.0,90.0,4.0,64.0
2293,78.0,79.0,60.0,2.0,64.0
2294,80.0,8.0,90.0,2.0,64.0
2295,68.0,8.0,90.0,4.0,64.0
2296,77.0,76.0,60.0,2.0,64.0
2297,82.0,8.0,90.0,1.0,64.0
2298,68.0,8.0,90.0,4.0,64.0
2299,78.0,79.0,60.0,2.0,64.0
2300,80.0,6.0,90.0,2.0,64.0
2301,68.0,8.0,90.0,4.0,64.0
2302,77.0,47.0,60.0,2.0,64.0
2303,78.0,47.0,60.0,2.0,64.0
2304,68.0,44.0,270.0,4.0,64.0
2305,75.0,86.0,60.0,2.0,64.0
2306,77.0,4.0,180.0,2.0,64.0
2307,74.0,1.0,180.0,2.0,64.0
2308,82.0,47.0,60.0,1.0,64.0
2309,81.0,41.0,60.0,2.0,64.0
2310,82.0,49.0,90.0,1.0,64.0
2311,70.0,43.0,90.0,4.0,64.0
2312,74.0,0.0,90.0,2.0,64.0
2313,82.0,48.0,90.0,1.0,64.0
2314,75.0,44.0,90.0,2.0,64.0
2315,72.0,1.0,90.0,2.0,64.0
2316,82.0,50.0,90.0,1.0,64.0
2317,77.0,0.0,90.0,2.0,64.0
2318,74.0,46.0,90.0,2.0,64.0
2319,82.0,49.0,90.0,1.0,64.0
2320,78.0,42.0,90.0,2.0,64.0
2321,75.0,1.0,90.0,2.0,64.0
2322,82.0,50.0,90.0,1.0,64.0
2323,77.0,43.0,90.0,2.0,64.0
2324,74.0,1.0,90.0,2.0,64.0
2325,82.0,48.0,90.0,1.0,64.0
2326,72.0,1.0,90.0,2.0,64.0
2327,75.0,41.0,90.0,2.0,64.0
2328,82.0,56.0,90.0,1.0,64.0
2329,74.0,11.0,180.0,2.0,64.0
2330,70.0,1.0,180.0,4.0,64.0
2331,82.0,48.0,60.0,1.0,64.0
2332,81.0,34.0,60.0,2.0,64.0
2333,82.0,77.0,60.0,1.0,64.0
2334,83.0,84.0,90.0,1.0,64.0
2335,70.0,6.0,90.0,4.0,64.0
2336,80.0,0.0,30.0,2.0,64.0
2337,82.0,86.0,90.0,1.0,64.0
2338,70.0,8.0,90.0,4.0,64.0
2339,78.0,0.0,60.0,2.0,64.0
2340,70.0,8.0,90.0,4.0,64.0
2341,80.0,85.0,90.0,2.0,64.0
2342,77.0,1.0,60.0,2.0,64.0
2343,78.0,88.0,90.0,2.0,64.0
2344,70.0,6.0,90.0,4.0,64.0
2345,75.0,1.0,60.0,2.0,64.0
2346,77.0,30.0,90.0,2.0,64.0
2347,70.0,7.0,90.0,4.0,64.0
2348,73.0,1.0,60.0,2.0,64.0
2349,80.0,49.0,60.0,2.0,64.0
2350,70.0,124.0,90.0,4.0,64.0
2351,77.0,10.0,60.0,2.0,64.0
2352,63.0,47.0,150.0,4.0,64.0
2353,78.0,23.0,210.0,2.0,64.0
2354,70.0,23.0,90.0,4.0,64.0
2355,66.0,69.0,150.0,4.0,64.0
2356,70.0,23.0,90.0,4.0,64.0
2357,90.0,70.0,240.0,1.0,64.0
2358,63.0,69.0,150.0,4.0,64.0
2359,71.0,21.0,90.0,2.0,64.0
2360,66.0,1.0,150.0,4.0,64.0
2361,71.0,23.0,90.0,2.0,64.0
2362,63.0,36.0,150.0,4.0,64.0
2363,71.0,23.0,90.0,2.0,64.0
2364,87.0,31.0,90.0,1.0,64.0
2365,66.0,37.0,150.0,4.0,64.0
2366,71.0,23.0,90.0,2.0,64.0
2367,83.0,31.0,90.0,1.0,64.0
2368,63.0,38.0,150.0,4.0,64.0
2369,71.0,23.0,90.0,2.0,64.0
2370,82.0,46.0,120.0,1.0,64.0
2371,66.0,31.0,90.0,4.0,64.0
2372,71.0,29.0,180.0,2.0,64.0
2373,63.0,117.0,750.0,4.0,64.0
2374,81.0,60.0,30.0,2.0,64.0
2375,84.0,0.0,60.0,1.0,64.0
2376,81.0,146.0,30.0,2.0,64.0
2377,87.0,49.0,180.0,1.0,64.0
2378,81.0,10.0,90.0,2.0,64.0
2379,84.0,31.0,60.0,1.0,64.0
2380,81.0,91.0,90.0,2.0,64.0
2381,89.0,50.0,180.0,1.0,64.0
2382,81.0,12.0,90.0,2.0,64.0
2383,84.0,30.0,60.0,1.0,64.0
2384,81.0,92.0,90.0,2.0,64.0
2385,90.0,14.0,180.0,1.0,64.0
2386,81.0,10.0,90.0,2.0,64.0
2387,84.0,31.0,60.0,1.0,64.0
2388,81.0,8.0,60.0,2.0,64.0
2389,61.0,21.0,150.0,4.0,64.0
2390,82.0,47.0,180.0,1.0,64.0
2391,70.0,23.0,90.0,4.0,64.0
2392,65.0,67.0,150.0,4.0,64.0
2393,70.0,25.0,90.0,4.0,64.0
2394,88.0,0.0,240.0,1.0,64.0
2395,61.0,69.0,150.0,4.0,64.0
2396,70.0,24.0,90.0,4.0,64.0
2397,64.0,69.0,150.0,4.0,64.0
2398,70.0,23.0,90.0,4.0,64.0
2399,61.0,39.0,150.0,4.0,64.0
2400,70.0,24.0,90.0,4.0,64.0
2401,85.0,29.0,90.0,1.0,64.0
2402,64.0,40.0,150.0,4.0,64.0
2403,70.0,23.0,90.0,4.0,64.0
2404,82.0,29.0,90.0,1.0,64.0
2405,61.0,38.0,150.0,4.0,64.0
2406,70.0,25.0,90.0,4.0,64.0
2407,64.0,29.0,90.0,4.0,64.0
2408,80.0,50.0,120.0,2.0,64.0
2409,70.0,32.0,180.0,4.0,64.0
2410,61.0,17.0,720.0,4.0,64.0
2411,79.0,56.0,30.0,2.0,64.0
2412,82.0,135.0,90.0,1.0,64.0
2413,79.0,2.0,30.0,2.0,64.0
2414,85.0,6.0,180.0,1.0,64.0
2415,79.0,40.0,90.0,2.0,64.0
2416,82.0,46.0,90.0,1.0,64.0
2417,79.0,90.0,90.0,2.0,64.0
2418,87.0,6.0,180.0,1.0,64.0
2419,79.0,42.0,90.0,2.0,64.0
2420,82.0,44.0,90.0,1.0,64.0
2421,79.0,96.0,90.0,2.0,64.0
2422,88.0,7.0,180.0,1.0,64.0
2423,79.0,17.0,90.0,2.0,64.0
2424,82.0,25.0,60.0,1.0,64.0
2425,79.0,115.0,60.0,2.0,64.0
2426,59.0,21.0,150.0,4.0,64.0
2427,80.0,43.0,180.0,2.0,64.0
2428,68.0,25.0,90.0,4.0,64.0
2429,63.0,71.0,150.0,4.0,64.0
2430,68.0,25.0,90.0,4.0,64.0
2431,59.0,68.0,150.0,4.0,64.0
2432,86.0,1.0,240.0,1.0,64.0
2433,68.0,28.0,90.0,4.0,64.0
2434,62.0,66.0,150.0,4.0,64.0
2435,68.0,22.0,90.0,4.0,64.0
2436,59.0,21.0,150.0,4.0,64.0
2437,68.0,25.0,90.0,4.0,64.0
2438,62.0,21.0,150.0,4.0,64.0
2439,83.0,45.0,90.0,1.0,64.0
2440,68.0,25.0,90.0,4.0,64.0
2441,80.0,49.0,90.0,2.0,64.0
2442,59.0,37.0,150.0,4.0,64.0
2443,68.0,23.0,90.0,4.0,64.0
2444,78.0,48.0,120.0,2.0,64.0
2445,62.0,30.0,90.0,4.0,64.0
2446,68.0,8.0,180.0,4.0,64.0
2447,59.0,42.0,720.0,4.0,64.0
2448,77.0,56.0,30.0,2.0,64.0
2449,80.0,26.0,60.0,2.0,64.0
2450,77.0,138.0,30.0,2.0,64.0
2451,83.0,52.0,180.0,1.0,64.0
2452,77.0,16.0,90.0,2.0,64.0
2453,80.0,21.0,60.0,2.0,64.0
2454,77.0,88.0,90.0,2.0,64.0
2455,85.0,48.0,180.0,1.0,64.0
2456,77.0,17.0,90.0,2.0,64.0
2457,80.0,24.0,60.0,2.0,64.0
2458,77.0,94.0,90.0,2.0,64.0
2459,86.0,9.0,180.0,1.0,64.0
2460,77.0,18.0,90.0,2.0,64.0
2461,80.0,23.0,60.0,2.0,64.0
2462,77.0,94.0,90.0,2.0,64.0
2463,69.0,41.0,180.0,4.0,64.0
2464,73.0,0.0,180.0,2.0,64.0
2465,78.0,55.0,90.0,2.0,64.0
2466,90.0,42.0,180.0,1.0,64.0
2467,78.0,54.0,90.0,2.0,64.0
2468,68.0,39.0,180.0,4.0,64.0
2469,71.0,0.0,180.0,2.0,64.0
2470,77.0,53.0,90.0,2.0,64.0
2471,89.0,40.0,180.0,1.0,64.0
2472,77.0,54.0,90.0,2.0,64.0
2473,73.0,39.0,180.0,2.0,64.0
2474,69.0,1.0,180.0,4.0,64.0
2475,78.0,53.0,90.0,2.0,64.0
2476,90.0,39.0,180.0,1.0,64.0
2477,78.0,49.0,90.0,2.0,64.0
2478,68.0,39.0,180.0,4.0,64.0
2479,65.0,0.0,180.0,4.0,64.0
2480,73.0,53.0,90.0,2.0,64.0
2481,85.0,38.0,180.0,1.0,64.0
2482,73.0,54.0,90.0,2.0,64.0
2483,66.0,1.0,180.0,4.0,64.0
2484,69.0,40.0,180.0,4.0,64.0
2485,74.0,51.0,90.0,2.0,64.0
2486,86.0,38.0,180.0,1.0,64.0
2487,74.0,51.0,90.0,2.0,64.0
2488,68.0,39.0,180.0,4.0,64.0
2489,65.0,1.0,180.0,4.0,64.0
2490,73.0,52.0,90.0,2.0,64.0
2491,85.0,37.0,180.0,1.0,64.0
2492,73.0,52.0,90.0,2.0,64.0
2493,66.0,39.0,180.0,4.0,64.0
2494,69.0,0.0,180.0,4.0,64.0
2495,74.0,51.0,90.0,2.0,64.0
2496,86.0,41.0,180.0,1.0,64.0
2497,74.0,50.0,90.0,2.0,64.0
2498,64.0,39.0,180.0,4.0,64.0
2499,61.0,1.0,180.0,4.0,64.0
2500,70.0,51.0,90.0,4.0,64.0
2501,82.0,40.0,180.0,1.0,64.0
2502,70.0,52.0,90.0,4.0,64.0
2503,66.0,0.0,180.0,4.0,64.0
2504,62.0,41.0,180.0,4.0,64.0
2505,71.0,53.0,90.0,2.0,64.0
2506,83.0,38.0,180.0,1.0,64.0
2507,71.0,52.0,90.0,2.0,64.0
2508,61.0,1.0,180.0,4.0,64.0
2509,64.0,38.0,180.0,4.0,64.0
2510,70.0,53.0,90.0,4.0,64.0
2511,82.0,41.0,180.0,1.0,64.0
2512,70.0,52.0,90.0,4.0,64.0
2513,62.0,1.0,180.0,4.0,64.0
2514,66.0,37.0,180.0,4.0,64.0
2515,71.0,50.0,90.0,2.0,64.0
2516,83.0,40.0,180.0,1.0,64.0
2517,71.0,52.0,90.0,2.0,64.0
2518,64.0,41.0,180.0,4.0,64.0
2519,61.0,0.0,180.0,4.0,64.0
2520,69.0,49.0,90.0,4.0,64.0
2521,81.0,41.0,180.0,2.0,64.0
2522,69.0,50.0,90.0,4.0,64.0
2523,59.0,41.0,180.0,4.0,64.0
2524,62.0,0.0,180.0,4.0,64.0
2525,67.0,55.0,90.0,4.0,64.0
2526,79.0,39.0,180.0,2.0,64.0
2527,67.0,53.0,90.0,4.0,64.0
2528,58.0,39.0,180.0,4.0,64.0
2529,61.0,0.0,180.0,4.0,64.0
2530,66.0,57.0,90.0,4.0,64.0
2531,78.0,40.0,180.0,2.0,64.0
2532,66.0,52.0,90.0,4.0,64.0
2533,59.0,1.0,180.0,4.0,64.0
2534,62.0,40.0,180.0,4.0,64.0
2535,67.0,51.0,90.0,4.0,64.0
2536,79.0,39.0,180.0,2.0,64.0
2537,67.0,52.0,90.0,4.0,64.0
2538,63.0,39.0,180.0,4.0,64.0
2539,60.0,0.0,180.0,4.0,64.0
2540,66.0,46.0,90.0,4.0,64.0
2541,78.0,4.0,90.0,2.0,64.0
2542,66.0,10.0,90.0,4.0,64.0
2543,77.0,46.0,60.0,2.0,64.0
2544,49.0,1.0,1350.0,4.0,64.0
2545,61.0,14.0,1350.0,4.0,64.0
2546,75.0,46.0,60.0,2.0,64.0
2547,73.0,42.0,60.0,2.0,64.0
2548,72.0,44.0,60.0,2.0,64.0
2549,73.0,44.0,60.0,2.0,64.0
2550,75.0,41.0,60.0,2.0,64.0
2551,77.0,40.0,60.0,2.0,64.0
2552,78.0,40.0,60.0,2.0,64.0
2553,80.0,43.0,60.0,2.0,64.0
2554,78.0,42.0,60.0,2.0,64.0
2555,77.0,43.0,60.0,2.0,64.0
2556,75.0,44.0,60.0,2.0,64.0
2557,77.0,43.0,60.0,2.0,64.0
2558,78.0,43.0,60.0,2.0,64.0
2559,80.0,32.0,60.0,2.0,64.0
2560,82.0,41.0,30.0,1.0,64.0
2561,83.0,40.0,30.0,1.0,64.0
2562,82.0,42.0,30.0,1.0,64.0
2563,80.0,42.0,30.0,2.0,64.0
2564,82.0,50.0,30.0,1.0,64.0
2565,80.0,42.0,60.0,2.0,64.0
2566,78.0,44.0,60.0,2.0,64.0
2567,77.0,44.0,60.0,2.0,64.0
2568,78.0,43.0,60.0,2.0,64.0
2569,77.0,42.0,60.0,2.0,64.0
2570,75.0,43.0,60.0,2.0,64.0
2571,73.0,45.0,60.0,2.0,64.0
2572,75.0,40.0,60.0,2.0,64.0
2573,73.0,43.0,60.0,2.0,64.0
2574,71.0,48.0,60.0,2.0,64.0
2575,70.0,28.0,60.0,4.0,64.0
2576,68.0,327.0,60.0,4.0,64.0
2577,54.0,50.0,360.0,4.0,64.0
2578,66.0,9.0,330.0,4.0,64.0
2579,42.0,61.0,2310.0,4.0,64.0
2580,70.0,10.0,330.0,4.0,64.0
2581,73.0,11.0,330.0,2.0,64.0
2582,78.0,14.0,330.0,2.0,64.0
2583,71.0,43.0,60.0,2.0,64.0
2584,59.0,1.0,60.0,4.0,64.0
2585,70.0,46.0,60.0,4.0,64.0
2586,58.0,1.0,60.0,4.0,64.0
2587,68.0,46.0,60.0,4.0,64.0
2588,56.0,0.0,60.0,4.0,64.0
2589,54.0,46.0,60.0,4.0,64.0
2590,66.0,0.0,60.0,4.0,64.0
2591,71.0,42.0,60.0,2.0,64.0
2592,59.0,0.0,60.0,4.0,64.0
2593,70.0,46.0,60.0,4.0,64.0
2594,58.0,0.0,60.0,4.0,64.0
2595,68.0,47.0,60.0,4.0,64.0
2596,56.0,1.0,60.0,4.0,64.0
2597,66.0,171.0,60.0,4.0,64.0
2598,54.0,1.0,60.0,4.0,64.0
2599,73.0,0.0,180.0,2.0,64.0
2600,61.0,182.0,180.0,4.0,64.0
2601,58.0,1.0,180.0,4.0,64.0
2602,70.0,253.0,180.0,4.0,64.0
2603,63.0,125.0,240.0,4.0,64.0
2604,75.0,0.0,240.0,2.0,64.0
2605,70.0,94.0,90.0,4.0,64.0
2606,58.0,0.0,90.0,4.0,64.0
2607,71.0,0.0,90.0,2.0,64.0
2608,59.0,92.0,90.0,4.0,64.0
2609,68.0,90.0,90.0,4.0,64.0
2610,56.0,0.0,90.0,4.0,64.0
2611,73.0,86.0,90.0,2.0,64.0
2612,61.0,0.0,90.0,4.0,64.0
2613,70.0,96.0,90.0,4.0,64.0
2614,58.0,1.0,90.0,4.0,64.0
2615,66.0,92.0,90.0,4.0,64.0
2616,54.0,0.0,90.0,4.0,64.0
2617,63.0,0.0,90.0,4.0,64.0
2618,51.0,90.0,90.0,4.0,64.0
2619,68.0,94.0,90.0,4.0,64.0
2620,56.0,0.0,90.0,4.0,64.0
2621,65.0,70.0,90.0,4.0,64.0
2622,53.0,1.0,90.0,4.0,64.0
2623,61.0,23.0,60.0,4.0,64.0
2624,49.0,94.0,150.0,4.0,64.0
2625,61.0,92.0,150.0,4.0,64.0
2626,49.0,94.0,150.0,4.0,64.0
2627,61.0,90.0,150.0,4.0,64.0
2628,49.0,15.0,150.0,4.0,64.0
2629,70.0,73.0,60.0,4.0,64.0
2630,78.0,0.0,60.0,2.0,64.0
2631,61.0,23.0,150.0,4.0,64.0
2632,78.0,65.0,90.0,2.0,64.0
2633,70.0,0.0,90.0,4.0,64.0
2634,49.0,23.0,150.0,4.0,64.0
2635,78.0,64.0,90.0,2.0,64.0
2636,70.0,1.0,90.0,4.0,64.0
2637,61.0,16.0,150.0,4.0,64.0
2638,70.0,76.0,60.0,4.0,64.0
2639,78.0,0.0,60.0,2.0,64.0
2640,49.0,17.0,150.0,4.0,64.0
2641,77.0,77.0,90.0,2.0,64.0
2642,68.0,0.0,90.0,4.0,64.0
2643,61.0,90.0,150.0,4.0,64.0
2644,77.0,0.0,240.0,2.0,64.0
2645,49.0,92.0,150.0,4.0,64.0
2646,68.0,87.0,240.0,4.0,64.0
2647,61.0,1.0,150.0,4.0,64.0
2648,49.0,16.0,150.0,4.0,64.0
2649,78.0,73.0,60.0,2.0,64.0
2650,82.0,0.0,60.0,1.0,64.0
2651,61.0,23.0,150.0,4.0,64.0
2652,82.0,67.0,90.0,1.0,64.0
2653,78.0,0.0,90.0,2.0,64.0
2654,49.0,23.0,150.0,4.0,64.0
2655,82.0,63.0,90.0,1.0,64.0
2656,78.0,1.0,90.0,2.0,64.0
2657,61.0,15.0,150.0,4.0,64.0
2658,78.0,72.0,60.0,2.0,64.0
2659,82.0,0.0,60.0,1.0,64.0
2660,49.0,13.0,150.0,4.0,64.0
2661,80.0,74.0,60.0,2.0,64.0
2662,77.0,1.0,60.0,2.0,64.0
2663,61.0,92.0,150.0,4.0,64.0
2664,77.0,90.0,240.0,2.0,64.0
2665,80.0,0.0,240.0,2.0,64.0
2666,49.0,92.0,150.0,4.0,64.0
2667,61.0,1.0,150.0,4.0,64.0
2668,49.0,15.0,150.0,4.0,64.0
2669,85.0,74.0,90.0,1.0,64.0
2670,61.0,23.0,150.0,4.0,64.0
2671,82.0,1.0,60.0,1.0,64.0
2672,85.0,70.0,90.0,1.0,64.0
2673,82.0,0.0,90.0,1.0,64.0
2674,49.0,24.0,150.0,4.0,64.0
2675,85.0,57.0,90.0,1.0,64.0
2676,82.0,1.0,90.0,1.0,64.0
2677,61.0,37.0,780.0,4.0,64.0
2678,83.0,42.0,60.0,1.0,64.0
2679,49.0,21.0,1350.0,4.0,64.0
2680,82.0,43.0,60.0,1.0,64.0
2681,83.0,42.0,60.0,1.0,64.0
2682,85.0,42.0,60.0,1.0,64.0
2683,87.0,40.0,60.0,1.0,64.0
2684,85.0,42.0,60.0,1.0,64.0
2685,83.0,43.0,60.0,1.0,64.0
2686,82.0,46.0,60.0,1.0,64.0
2687,80.0,40.0,60.0,2.0,64.0
2688,79.0,44.0,60.0,2.0,64.0
2689,80.0,37.0,60.0,2.0,64.0
2690,82.0,41.0,60.0,1.0,64.0
2691,83.0,42.0,60.0,1.0,64.0
2692,82.0,43.0,60.0,1.0,64.0
2693,80.0,43.0,60.0,2.0,64.0
2694,78.0,7.0,60.0,2.0,64.0
2695,77.0,43.0,60.0,2.0,64.0
2696,65.0,1.0,60.0,4.0,64.0
2697,75.0,41.0,60.0,2.0,64.0
2698,63.0,1.0,60.0,4.0,64.0
2699,77.0,41.0,60.0,2.0,64.0
2700,65.0,1.0,60.0,4.0,64.0
2701,78.0,44.0,60.0,2.0,64.0
2702,66.0,0.0,60.0,4.0,64.0
2703,80.0,38.0,60.0,2.0,64.0
2704,68.0,0.0,60.0,4.0,64.0
2705,78.0,42.0,60.0,2.0,64.0
2706,66.0,1.0,60.0,4.0,64.0
2707,65.0,44.0,60.0,4.0,64.0
2708,77.0,0.0,60.0,2.0,64.0
2709,75.0,44.0,60.0,2.0,64.0
2710,63.0,0.0,60.0,4.0,64.0
2711,73.0,44.0,60.0,2.0,64.0
2712,61.0,0.0,60.0,4.0,64.0
2713,72.0,42.0,60.0,2.0,64.0
2714,60.0,0.0,60.0,4.0,64.0
2715,73.0,41.0,60.0,2.0,64.0
2716,61.0,1.0,60.0,4.0,64.0
2717,75.0,42.0,60.0,2.0,64.0
2718,63.0,1.0,60.0,4.0,64.0
2719,61.0,44.0,60.0,4.0,64.0
2720,73.0,0.0,60.0,2.0,64.0
2721,71.0,42.0,60.0,2.0,64.0
2722,59.0,0.0,60.0,4.0,64.0
2723,70.0,25.0,60.0,4.0,64.0
2724,58.0,1.0,60.0,4.0,64.0
2725,68.0,75.0,60.0,4.0,64.0
2726,56.0,1.0,60.0,4.0,64.0
2727,66.0,1.0,360.0,4.0,64.0
2728,42.0,86.0,1410.0,4.0,64.0
2729,54.0,98.0,90.0,4.0,64.0
2730,54.0,92.0,90.0,4.0,64.0
2731,54.0,91.0,90.0,4.0,64.0
2732,54.0,94.0,90.0,4.0,64.0
2733,68.0,93.0,180.0,4.0,64.0
2734,65.0,0.0,180.0,4.0,64.0
2735,54.0,92.0,90.0,4.0,64.0
2736,54.0,1.0,90.0,4.0,64.0
2737,70.0,93.0,180.0,4.0,64.0
2738,54.0,92.0,90.0,4.0,64.0
2739,64.0,1.0,180.0,4.0,64.0
2740,54.0,0.0,90.0,4.0,64.0
2741,71.0,24.0,150.0,2.0,64.0
2742,54.0,52.0,90.0,4.0,64.0
2743,63.0,11.0,180.0,4.0,64.0
2744,54.0,0.0,90.0,4.0,64.0
2745,73.0,22.0,20.0,2.0,64.0
2746,75.0,86.0,30.0,2.0,64.0
2747,65.0,6.0,180.0,4.0,64.0
2748,73.0,87.0,90.0,2.0,64.0
2749,54.0,8.0,90.0,4.0,64.0
2750,54.0,1.0,90.0,4.0,64.0
2751,71.0,88.0,90.0,2.0,64.0
2752,70.0,94.0,360.0,4.0,64.0
2753,66.0,1.0,360.0,4.0,64.0
2754,54.0,93.0,90.0,4.0,64.0
2755,54.0,94.0,90.0,4.0,64.0
2756,54.0,6.0,90.0,4.0,64.0
2757,54.0,0.0,90.0,4.0,64.0
2758,70.0,96.0,360.0,4.0,64.0
2759,66.0,1.0,360.0,4.0,64.0
2760,54.0,96.0,90.0,4.0,64.0
2761,42.0,95.0,1440.0,4.0,64.0
2762,54.0,95.0,90.0,4.0,64.0
2763,54.0,95.0,90.0,4.0,64.0
2764,54.0,0.0,90.0,4.0,64.0
2765,71.0,0.0,180.0,2.0,64.0
2766,54.0,94.0,90.0,4.0,64.0
2767,68.0,88.0,180.0,4.0,64.0
2768,54.0,7.0,90.0,4.0,64.0
2769,73.0,90.0,180.0,2.0,64.0
2770,70.0,0.0,180.0,4.0,64.0
2771,54.0,94.0,90.0,4.0,64.0
2772,54.0,1.0,90.0,4.0,64.0
2773,71.0,9.0,390.0,2.0,64.0
2774,75.0,28.0,150.0,2.0,64.0
2775,54.0,54.0,90.0,4.0,64.0
2776,54.0,9.0,90.0,4.0,64.0
2777,77.0,22.0,30.0,2.0,64.0
2778,78.0,87.0,30.0,2.0,64.0
2779,54.0,8.0,90.0,4.0,64.0
2780,77.0,86.0,90.0,2.0,64.0
2781,75.0,86.0,90.0,2.0,64.0
2782,54.0,0.0,90.0,4.0,64.0
2783,73.0,0.0,390.0,2.0,64.0
2784,70.0,5.0,390.0,4.0,64.0
2785,54.0,96.0,90.0,4.0,64.0
2786,54.0,94.0,90.0,4.0,64.0
2787,54.0,10.0,90.0,4.0,64.0
2788,82.0,87.0,90.0,1.0,64.0
2789,54.0,1.0,90.0,4.0,64.0
2790,80.0,46.0,90.0,2.0,64.0
2791,47.0,1.0,180.0,4.0,64.0
2792,59.0,37.0,210.0,4.0,64.0
2793,90.0,48.0,90.0,1.0,64.0
2794,80.0,10.0,90.0,2.0,64.0
2795,90.0,48.0,90.0,1.0,64.0
2796,80.0,48.0,90.0,2.0,64.0
2797,66.0,37.0,210.0,4.0,64.0
2798,54.0,0.0,210.0,4.0,64.0
2799,90.0,48.0,90.0,1.0,64.0
2800,80.0,9.0,90.0,2.0,64.0
2801,90.0,47.0,90.0,1.0,64.0
2802,63.0,0.0,210.0,4.0,64.0
2803,80.0,46.0,90.0,2.0,64.0
2804,51.0,37.0,180.0,4.0,64.0
2805,90.0,48.0,90.0,1.0,64.0
2806,80.0,11.0,90.0,2.0,64.0
2807,90.0,48.0,90.0,1.0,64.0
2808,59.0,36.0,210.0,4.0,64.0
2809,80.0,47.0,90.0,2.0,64.0
2810,47.0,1.0,210.0,4.0,64.0
2811,90.0,48.0,90.0,1.0,64.0
2812,80.0,11.0,90.0,2.0,64.0
2813,90.0,47.0,90.0,1.0,64.0
2814,49.0,1.0,210.0,4.0,64.0
2815,61.0,36.0,210.0,4.0,64.0
2816,82.0,47.0,90.0,1.0,64.0
2817,90.0,49.0,90.0,1.0,64.0
2818,82.0,10.0,90.0,1.0,64.0
2819,90.0,48.0,90.0,1.0,64.0
2820,66.0,35.0,210.0,4.0,64.0
2821,82.0,49.0,90.0,1.0,64.0
2822,54.0,1.0,210.0,4.0,64.0
2823,90.0,46.0,90.0,1.0,64.0
2824,82.0,11.0,90.0,1.0,64.0
2825,90.0,46.0,90.0,1.0,64.0
2826,82.0,46.0,90.0,1.0,64.0
2827,64.0,37.0,180.0,4.0,64.0
2828,52.0,0.0,180.0,4.0,64.0
2829,90.0,46.0,90.0,1.0,64.0
2830,82.0,11.0,90.0,1.0,64.0
2831,90.0,47.0,90.0,1.0,64.0
2832,61.0,0.0,210.0,4.0,64.0
2833,82.0,48.0,90.0,1.0,64.0
2834,49.0,35.0,210.0,4.0,64.0
2835,90.0,48.0,90.0,1.0,64.0
2836,82.0,11.0,90.0,1.0,64.0
2837,90.0,48.0,90.0,1.0,64.0
2838,63.0,0.0,180.0,4.0,64.0
2839,83.0,46.0,90.0,1.0,64.0
2840,51.0,37.0,180.0,4.0,64.0
2841,90.0,46.0,90.0,1.0,64.0
2842,83.0,11.0,90.0,1.0,64.0
2843,90.0,46.0,90.0,1.0,64.0
2844,83.0,48.0,90.0,1.0,64.0
2845,59.0,1.0,180.0,4.0,64.0
2846,71.0,35.0,180.0,2.0,64.0
2847,90.0,46.0,90.0,1.0,64.0
2848,83.0,11.0,90.0,1.0,64.0
2849,90.0,46.0,90.0,1.0,64.0
2850,83.0,45.0,90.0,1.0,64.0
2851,66.0,35.0,180.0,4.0,64.0
2852,54.0,1.0,180.0,4.0,64.0
2853,90.0,46.0,90.0,1.0,64.0
2854,83.0,10.0,90.0,1.0,64.0
2855,90.0,48.0,90.0,1.0,64.0
2856,63.0,0.0,180.0,4.0,64.0
2857,83.0,47.0,90.0,1.0,64.0
2858,51.0,35.0,180.0,4.0,64.0
2859,90.0,46.0,90.0,1.0,64.0
2860,83.0,10.0,90.0,1.0,64.0
2861,90.0,46.0,90.0,1.0,64.0
2862,78.0,1.0,90.0,2.0,64.0
2863,84.0,47.0,90.0,1.0,64.0
2864,50.0,1.0,180.0,4.0,64.0
2865,62.0,36.0,180.0,4.0,64.0
2866,90.0,48.0,90.0,1.0,64.0
2867,84.0,8.0,90.0,1.0,64.0
2868,78.0,1.0,90.0,2.0,64.0
2869,90.0,48.0,90.0,1.0,64.0
2870,84.0,45.0,90.0,1.0,64.0
2871,69.0,36.0,210.0,4.0,64.0
2872,78.0,1.0,90.0,2.0,64.0
2873,57.0,1.0,180.0,4.0,64.0
2874,90.0,46.0,90.0,1.0,64.0
2875,84.0,10.0,90.0,1.0,64.0
2876,78.0,1.0,90.0,2.0,64.0
2877,90.0,48.0,90.0,1.0,64.0
2878,84.0,46.0,90.0,1.0,64.0
2879,66.0,0.0,210.0,4.0,64.0
2880,78.0,1.0,90.0,2.0,64.0
2881,54.0,38.0,210.0,4.0,64.0
2882,90.0,48.0,90.0,1.0,64.0
2883,84.0,0.0,90.0,1.0,64.0
2884,78.0,11.0,90.0,2.0,64.0
2885,90.0,48.0,90.0,1.0,64.0
2886,84.0,46.0,90.0,1.0,64.0
2887,78.0,1.0,90.0,2.0,64.0
2888,62.0,2.0,180.0,4.0,64.0
2889,50.0,88.0,210.0,4.0,64.0
2890,90.0,42.0,90.0,1.0,64.0
2891,84.0,24.0,90.0,1.0,64.0
2892,78.0,1.0,90.0,2.0,64.0
2893,90.0,0.0,30.0,1.0,64.0
2894,61.0,49.0,660.0,4.0,64.0
2895,80.0,9.0,240.0,2.0,64.0
2896,85.0,8.0,240.0,1.0,64.0
2897,89.0,44.0,240.0,1.0,64.0
2898,73.0,47.0,60.0,2.0,64.0
2899,72.0,44.0,60.0,2.0,64.0
2900,73.0,44.0,60.0,2.0,64.0
2901,75.0,19.0,60.0,2.0,64.0
2902,73.0,52.0,90.0,2.0,64.0
2903,85.0,32.0,90.0,1.0,64.0
2904,70.0,1.0,90.0,4.0,64.0
2905,73.0,52.0,90.0,2.0,64.0
2906,83.0,33.0,90.0,1.0,64.0
2907,68.0,0.0,90.0,4.0,64.0
2908,73.0,53.0,90.0,2.0,64.0
2909,82.0,33.0,90.0,1.0,64.0
2910,66.0,1.0,90.0,4.0,64.0
2911,73.0,51.0,90.0,2.0,64.0
2912,80.0,35.0,90.0,2.0,64.0
2913,65.0,0.0,90.0,4.0,64.0
2914,73.0,6.0,90.0,2.0,64.0
2915,78.0,35.0,90.0,2.0,64.0
2916,63.0,0.0,90.0,4.0,64.0
2917,73.0,51.0,90.0,2.0,64.0
2918,77.0,33.0,90.0,2.0,64.0
2919,61.0,1.0,90.0,4.0,64.0
2920,73.0,55.0,90.0,2.0,64.0
2921,78.0,33.0,90.0,2.0,64.0
2922,63.0,0.0,90.0,4.0,64.0
2923,73.0,53.0,90.0,2.0,64.0
2924,80.0,33.0,90.0,2.0,64.0
2925,65.0,1.0,90.0,4.0,64.0
2926,73.0,52.0,90.0,2.0,64.0
2927,82.0,33.0,90.0,1.0,64.0
2928,66.0,1.0,90.0,4.0,64.0
2929,73.0,9.0,90.0,2.0,64.0
2930,85.0,41.0,60.0,1.0,64.0
2931,68.0,32.0,90.0,4.0,64.0
2932,83.0,0.0,60.0,1.0,64.0
2933,73.0,7.0,90.0,2.0,64.0
2934,82.0,42.0,60.0,1.0,64.0
2935,65.0,35.0,90.0,4.0,64.0
2936,80.0,0.0,60.0,2.0,64.0
2937,73.0,9.0,90.0,2.0,64.0
2938,66.0,33.0,90.0,4.0,64.0
2939,83.0,39.0,60.0,1.0,64.0
2940,82.0,1.0,60.0,1.0,64.0
2941,73.0,10.0,90.0,2.0,64.0
2942,80.0,33.0,60.0,2.0,64.0
2943,63.0,93.0,90.0,4.0,64.0
2944,78.0,16.0,30.0,2.0,64.0
2945,73.0,1.0,30.0,2.0,64.0
2946,77.0,13.0,240.0,2.0,64.0
2947,61.0,51.0,660.0,4.0,64.0
2948,80.0,8.0,240.0,2.0,64.0
2949,85.0,16.0,240.0,1.0,64.0
2950,73.0,43.0,60.0,2.0,64.0
2951,72.0,44.0,60.0,2.0,64.0
2952,73.0,44.0,60.0,2.0,64.0
2953,75.0,6.0,60.0,2.0,64.0
2954,73.0,77.0,60.0,2.0,64.0
2955,85.0,9.0,90.0,1.0,64.0
2956,70.0,31.0,90.0,4.0,64.0
2957,73.0,54.0,90.0,2.0,64.0
2958,83.0,35.0,90.0,1.0,64.0
2959,68.0,0.0,90.0,4.0,64.0
2960,73.0,52.0,90.0,2.0,64.0
2961,82.0,33.0,90.0,1.0,64.0
2962,66.0,1.0,90.0,4.0,64.0
2963,73.0,51.0,90.0,2.0,64.0
2964,65.0,1.0,90.0,4.0,64.0
2965,80.0,34.0,90.0,2.0,64.0
2966,73.0,2.0,90.0,2.0,64.0
2967,78.0,35.0,90.0,2.0,64.0
2968,63.0,0.0,90.0,4.0,64.0
2969,73.0,53.0,90.0,2.0,64.0
2970,77.0,34.0,90.0,2.0,64.0
2971,61.0,0.0,90.0,4.0,64.0
2972,73.0,53.0,90.0,2.0,64.0
2973,78.0,33.0,90.0,2.0,64.0
2974,63.0,1.0,90.0,4.0,64.0
2975,73.0,53.0,90.0,2.0,64.0
2976,80.0,33.0,90.0,2.0,64.0
2977,65.0,0.0,90.0,4.0,64.0
2978,73.0,51.0,90.0,2.0,64.0
2979,82.0,32.0,90.0,1.0,64.0
2980,66.0,1.0,90.0,4.0,64.0
2981,73.0,11.0,90.0,2.0,64.0
2982,85.0,42.0,60.0,1.0,64.0
2983,68.0,31.0,90.0,4.0,64.0
2984,83.0,0.0,60.0,1.0,64.0
2985,73.0,9.0,90.0,2.0,64.0
2986,82.0,42.0,60.0,1.0,64.0
2987,65.0,34.0,90.0,4.0,64.0
2988,80.0,1.0,60.0,2.0,64.0
2989,73.0,9.0,90.0,2.0,64.0
2990,66.0,0.0,90.0,4.0,64.0
2991,83.0,42.0,60.0,1.0,64.0
2992,73.0,9.0,90.0,2.0,64.0
2993,82.0,35.0,60.0,1.0,64.0
2994,80.0,34.0,60.0,2.0,64.0
2995,63.0,172.0,90.0,4.0,64.0
2996,78.0,0.0,30.0,2.0,64.0
2997,73.0,1.0,30.0,2.0,64.0
2998,61.0,1.0,180.0,4.0,64.0
2999,77.0,10.0,180.0,2.0,64.0
3000,80.0,9.0,150.0,2.0,64.0
3001,85.0,48.0,150.0,1.0,64.0
3002,80.0,45.0,60.0,2.0,64.0
3003,68.0,1.0,180.0,4.0,64.0
3004,65.0,14.0,180.0,4.0,64.0
3005,61.0,0.0,180.0,4.0,64.0
3006,77.0,48.0,60.0,2.0,64.0
3007,80.0,30.0,60.0,2.0,64.0
3008,77.0,347.0,60.0,2.0,64.0
3009,68.0,44.0,600.0,4.0,64.0
3010,73.0,109.0,360.0,2.0,64.0
3011,61.0,37.0,1020.0,4.0,64.0
3012,65.0,90.0,840.0,4.0,64.0
3013,73.0,99.0,120.0,2.0,64.0
3014,78.0,48.0,90.0,2.0,64.0
3015,77.0,91.0,90.0,2.0,64.0
3016,80.0,91.0,90.0,2.0,64.0
3017,78.0,1.0,90.0,2.0,64.0
3018,77.0,95.0,90.0,2.0,64.0
3019,75.0,2.0,90.0,2.0,64.0
3020,77.0,27.0,30.0,2.0,64.0
3021,68.0,30.0,90.0,4.0,64.0
3022,65.0,1.0,90.0,4.0,64.0
3023,75.0,26.0,30.0,2.0,64.0
3024,77.0,8.0,30.0,2.0,64.0
3025,75.0,61.0,60.0,2.0,64.0
3026,68.0,98.0,90.0,4.0,64.0
3027,73.0,4.0,90.0,2.0,64.0
3028,65.0,1.0,90.0,4.0,64.0
3029,73.0,54.0,240.0,2.0,64.0
3030,68.0,97.0,90.0,4.0,64.0
3031,65.0,0.0,90.0,4.0,64.0
3032,68.0,43.0,90.0,4.0,64.0
3033,65.0,1.0,90.0,4.0,64.0
3034,65.0,5.0,90.0,4.0,64.0
3035,68.0,0.0,90.0,4.0,64.0
3036,75.0,24.0,20.0,2.0,64.0
3037,75.0,23.0,20.0,2.0,64.0
3038,68.0,95.0,90.0,4.0,64.0
3039,65.0,1.0,90.0,4.0,64.0
3040,73.0,42.0,20.0,2.0,64.0
3041,72.0,2.0,30.0,2.0,64.0
3042,73.0,88.0,120.0,2.0,64.0
3043,68.0,22.0,90.0,4.0,64.0
3044,65.0,1.0,90.0,4.0,64.0
3045,75.0,80.0,120.0,2.0,64.0
3046,68.0,1.0,90.0,4.0,64.0
3047,65.0,0.0,90.0,4.0,64.0
3048,73.0,91.0,90.0,2.0,64.0
3049,66.0,5.0,90.0,4.0,64.0
3050,63.0,0.0,90.0,4.0,64.0
3051,71.0,88.0,180.0,2.0,64.0
3052,66.0,95.0,90.0,4.0,64.0
3053,63.0,1.0,90.0,4.0,64.0
3054,66.0,8.0,90.0,4.0,64.0
3055,63.0,1.0,90.0,4.0,64.0
3056,75.0,75.0,120.0,2.0,64.0
3057,66.0,16.0,90.0,4.0,64.0
3058,63.0,0.0,90.0,4.0,64.0
3059,71.0,89.0,90.0,2.0,64.0
3060,65.0,9.0,90.0,4.0,64.0
3061,61.0,0.0,90.0,4.0,64.0
3062,70.0,5.0,180.0,4.0,64.0
3063,65.0,92.0,90.0,4.0,64.0
3064,61.0,0.0,90.0,4.0,64.0
3065,65.0,95.0,90.0,4.0,64.0
3066,61.0,1.0,90.0,4.0,64.0
3067,73.0,42.0,120.0,2.0,64.0
3068,65.0,15.0,90.0,4.0,64.0
3069,61.0,1.0,90.0,4.0,64.0
3070,70.0,39.0,60.0,4.0,64.0
3071,63.0,6.0,90.0,4.0,64.0
3072,59.0,1.0,90.0,4.0,64.0
3073,68.0,50.0,60.0,4.0,64.0
3074,71.0,37.0,60.0,2.0,64.0
3075,63.0,6.0,90.0,4.0,64.0
3076,59.0,1.0,90.0,4.0,64.0
3077,70.0,46.0,30.0,4.0,64.0
3078,73.0,40.0,60.0,2.0,64.0
3079,63.0,5.0,90.0,4.0,64.0
3080,59.0,1.0,90.0,4.0,64.0
3081,71.0,48.0,60.0,2.0,64.0
3082,70.0,40.0,60.0,4.0,64.0
3083,63.0,0.0,90.0,4.0,64.0
3084,59.0,8.0,90.0,4.0,64.0
3085,68.0,46.0,60.0,4.0,64.0
3086,61.0,75.0,1740.0,4.0,64.0
3087,66.0,47.0,60.0,4.0,64.0
3088,58.0,1.0,1740.0,4.0,64.0
3089,68.0,46.0,60.0,4.0,64.0
3090,66.0,47.0,60.0,4.0,64.0
3091,65.0,49.0,60.0,4.0,64.0
3092,66.0,49.0,60.0,4.0,64.0
3093,68.0,49.0,60.0,4.0,64.0
3094,70.0,47.0,60.0,3.0,64.0
3095,71.0,45.0,60.0,3.0,64.0
3096,72.0,46.0,30.0,3.0,64.0
3097,73.0,45.0,60.0,3.0,64.0
3098,75.0,44.0,60.0,3.0,64.0
3099,73.0,44.0,30.0,3.0,64.0
3100,77.0,43.0,30.0,3.0,64.0
3101,75.0,46.0,30.0,3.0,64.0
3102,78.0,41.0,60.0,3.0,64.0
3103,77.0,45.0,30.0,3.0,64.0
3104,80.0,42.0,30.0,3.0,64.0
3105,78.0,43.0,30.0,3.0,64.0
3106,82.0,43.0,30.0,3.0,64.0
3107,80.0,45.0,30.0,3.0,64.0
3108,83.0,43.0,30.0,3.0,64.0
3109,82.0,46.0,30.0,3.0,64.0
3110,85.0,48.0,60.0,1.0,64.0
3111,83.0,46.0,60.0,3.0,64.0
3112,84.0,47.0,60.0,1.0,64.0
3113,85.0,47.0,60.0,1.0,64.0
3114,87.0,43.0,60.0,1.0,64.0
3115,85.0,45.0,30.0,1.0,64.0
3116,89.0,45.0,60.0,1.0,64.0
3117,87.0,45.0,60.0,1.0,64.0
3118,90.0,43.0,30.0,1.0,64.0
3119,89.0,92.0,30.0,1.0,64.0
3120,92.0,91.0,90.0,1.0,64.0
3121,90.0,93.0,90.0,1.0,64.0
3122,89.0,14.0,90.0,1.0,64.0
3123,87.0,88.0,90.0,1.0,64.0
3124,84.0,48.0,90.0,1.0,64.0
3125,80.0,0.0,90.0,3.0,64.0
3126,77.0,12.0,90.0,3.0,64.0
3127,87.0,35.0,60.0,1.0,64.0
3128,80.0,94.0,90.0,3.0,64.0
3129,77.0,1.0,90.0,3.0,64.0
3130,85.0,0.0,30.0,1.0,64.0
3131,85.0,41.0,240.0,1.0,64.0
3132,80.0,94.0,90.0,3.0,64.0
3133,77.0,0.0,90.0,3.0,64.0
3134,80.0,53.0,90.0,3.0,64.0
3135,77.0,0.0,90.0,3.0,64.0
3136,80.0,15.0,90.0,3.0,64.0
3137,77.0,0.0,90.0,3.0,64.0
3138,87.0,44.0,60.0,1.0,64.0
3139,85.0,37.0,60.0,1.0,64.0
3140,80.0,14.0,90.0,3.0,64.0
3141,77.0,0.0,90.0,3.0,64.0
3142,84.0,81.0,60.0,1.0,64.0
3143,85.0,93.0,90.0,1.0,64.0
3144,80.0,1.0,90.0,3.0,64.0
3145,77.0,0.0,90.0,3.0,64.0
3146,85.0,80.0,180.0,1.0,64.0
3147,80.0,0.0,90.0,3.0,64.0
3148,77.0,92.0,90.0,3.0,64.0
3149,78.0,13.0,90.0,3.0,64.0
3150,75.0,1.0,90.0,3.0,64.0
3151,82.0,82.0,180.0,1.0,64.0
3152,78.0,93.0,90.0,3.0,64.0
3153,75.0,1.0,90.0,3.0,64.0
3154,78.0,11.0,90.0,3.0,64.0
3155,75.0,1.0,90.0,3.0,64.0
3156,83.0,82.0,180.0,1.0,64.0
3157,78.0,93.0,90.0,3.0,64.0
3158,75.0,1.0,90.0,3.0,64.0
3159,77.0,12.0,90.0,3.0,64.0
3160,73.0,1.0,90.0,3.0,64.0
3161,81.0,83.0,180.0,2.0,64.0
3162,77.0,94.0,90.0,3.0,64.0
3163,73.0,1.0,90.0,3.0,64.0
3164,77.0,11.0,90.0,3.0,64.0
3165,73.0,0.0,90.0,3.0,64.0
3166,73.0,1.0,90.0,3.0,64.0
3167,77.0,89.0,90.0,3.0,64.0
3168,82.0,80.0,180.0,1.0,64.0
3169,75.0,10.0,90.0,3.0,64.0
3170,71.0,1.0,90.0,3.0,64.0
3171,79.0,79.0,180.0,2.0,64.0
3172,75.0,92.0,90.0,3.0,64.0
3173,71.0,0.0,90.0,3.0,64.0
3174,75.0,0.0,90.0,3.0,64.0
3175,71.0,11.0,90.0,3.0,64.0
3176,80.0,53.0,150.0,2.0,64.0
3177,75.0,54.0,90.0,3.0,64.0
3178,71.0,0.0,90.0,3.0,64.0
3179,70.0,7.0,360.0,3.0,64.0
3180,73.0,0.0,360.0,3.0,64.0
3181,77.0,43.0,60.0,2.0,64.0
3182,80.0,42.0,60.0,2.0,64.0
3183,78.0,44.0,60.0,2.0,64.0
3184,87.0,44.0,60.0,1.0,64.0
3185,85.0,46.0,60.0,1.0,64.0
3186,83.0,41.0,60.0,1.0,64.0
3187,82.0,93.0,60.0,1.0,64.0
3188,80.0,2.0,90.0,2.0,64.0
3189,59.0,35.0,90.0,4.0,64.0
3190,47.0,1.0,90.0,4.0,64.0
3191,90.0,57.0,90.0,1.0,64.0
3192,58.0,33.0,120.0,4.0,64.0
3193,79.0,1.0,90.0,2.0,64.0
3194,46.0,1.0,90.0,4.0,64.0
3195,90.0,58.0,90.0,1.0,64.0
3196,59.0,0.0,90.0,4.0,64.0
3197,80.0,2.0,90.0,2.0,64.0
3198,47.0,33.0,90.0,4.0,64.0
3199,90.0,57.0,90.0,1.0,64.0
3200,79.0,2.0,90.0,2.0,64.0
3201,58.0,33.0,90.0,4.0,64.0
3202,46.0,0.0,90.0,4.0,64.0
3203,90.0,10.0,90.0,1.0,64.0
3204,80.0,44.0,60.0,2.0,64.0
3205,47.0,15.0,360.0,4.0,64.0
3206,59.0,0.0,360.0,4.0,64.0
3207,83.0,44.0,60.0,1.0,64.0
3208,87.0,44.0,60.0,1.0,64.0
3209,85.0,43.0,60.0,1.0,64.0
3210,88.0,44.0,60.0,1.0,64.0
3211,87.0,42.0,60.0,1.0,64.0
3212,85.0,31.0,60.0,1.0,64.0
3213,83.0,93.0,60.0,1.0,64.0
3214,82.0,2.0,90.0,1.0,64.0
3215,61.0,33.0,90.0,4.0,64.0
3216,49.0,1.0,90.0,4.0,64.0
3217,90.0,57.0,90.0,1.0,64.0
3218,60.0,35.0,90.0,4.0,64.0
3219,81.0,2.0,90.0,2.0,64.0
3220,48.0,1.0,90.0,4.0,64.0
3221,90.0,56.0,90.0,1.0,64.0
3222,61.0,33.0,90.0,4.0,64.0
3223,82.0,2.0,90.0,1.0,64.0
3224,49.0,1.0,90.0,4.0,64.0
3225,90.0,57.0,90.0,1.0,64.0
3226,81.0,2.0,90.0,2.0,64.0
3227,60.0,33.0,90.0,4.0,64.0
3228,48.0,0.0,90.0,4.0,64.0
3229,90.0,10.0,90.0,1.0,64.0
3230,61.0,0.0,360.0,4.0,64.0
3231,82.0,44.0,60.0,1.0,64.0
3232,49.0,14.0,360.0,4.0,64.0
3233,85.0,45.0,60.0,1.0,64.0
3234,88.0,43.0,60.0,1.0,64.0
3235,87.0,44.0,60.0,1.0,64.0
3236,90.0,45.0,60.0,1.0,64.0
3237,88.0,46.0,60.0,1.0,64.0
3238,87.0,31.0,60.0,1.0,64.0
3239,85.0,95.0,60.0,1.0,64.0
3240,83.0,1.0,90.0,1.0,64.0
3241,63.0,35.0,90.0,4.0,64.0
3242,51.0,0.0,90.0,4.0,64.0
3243,90.0,57.0,90.0,1.0,64.0
3244,62.0,0.0,90.0,4.0,64.0
3245,82.0,2.0,90.0,1.0,64.0
3246,50.0,33.0,90.0,4.0,64.0
3247,90.0,58.0,90.0,1.0,64.0
3248,83.0,3.0,90.0,1.0,64.0
3249,63.0,32.0,90.0,4.0,64.0
3250,51.0,0.0,90.0,4.0,64.0
3251,90.0,57.0,90.0,1.0,64.0
3252,82.0,1.0,90.0,1.0,64.0
3253,62.0,31.0,90.0,4.0,64.0
3254,50.0,1.0,90.0,4.0,64.0
3255,90.0,9.0,90.0,1.0,64.0
3256,83.0,45.0,60.0,1.0,64.0
3257,51.0,15.0,360.0,4.0,64.0
3258,63.0,8.0,330.0,4.0,64.0
3259,87.0,42.0,60.0,1.0,64.0
3260,90.0,46.0,60.0,1.0,64.0
3261,89.0,43.0,60.0,1.0,64.0
3262,90.0,46.0,60.0,1.0,64.0
3263,89.0,46.0,60.0,1.0,64.0
3264,87.0,21.0,60.0,1.0,64.0
3265,85.0,81.0,60.0,1.0,64.0
3266,84.0,37.0,90.0,1.0,64.0
3267,51.0,24.0,1140.0,4.0,64.0
3268,62.0,7.0,90.0,4.0,64.0
3269,66.0,45.0,90.0,4.0,64.0
3270,78.0,41.0,180.0,2.0,64.0
3271,69.0,64.0,90.0,4.0,64.0
3272,72.0,23.0,120.0,2.0,64.0
3273,62.0,1.0,90.0,4.0,64.0
3274,66.0,69.0,90.0,4.0,64.0
3275,81.0,19.0,180.0,2.0,64.0
3276,69.0,42.0,120.0,4.0,64.0
3277,72.0,26.0,120.0,2.0,64.0
3278,62.0,44.0,120.0,4.0,64.0
3279,66.0,46.0,120.0,4.0,64.0
3280,80.0,23.0,180.0,2.0,64.0
3281,69.0,46.0,120.0,4.0,64.0
3282,72.0,21.0,120.0,2.0,64.0
3283,62.0,30.0,120.0,4.0,64.0
3284,66.0,21.0,120.0,4.0,64.0
3285,69.0,16.0,60.0,4.0,64.0
3286,78.0,88.0,90.0,2.0,64.0
3287,72.0,2.0,30.0,2.0,64.0
3288,77.0,2.0,210.0,2.0,64.0
3289,73.0,59.0,210.0,2.0,64.0
3290,61.0,90.0,90.0,4.0,64.0
3291,61.0,32.0,90.0,4.0,64.0
3292,65.0,93.0,90.0,4.0,64.0
3293,61.0,1.0,90.0,4.0,64.0
3294,73.0,69.0,90.0,2.0,64.0
3295,65.0,0.0,90.0,4.0,64.0
3296,61.0,1.0,90.0,4.0,64.0
3297,74.0,86.0,90.0,2.0,64.0
3298,67.0,0.0,90.0,4.0,64.0
3299,70.0,4.0,180.0,4.0,64.0
3300,61.0,2.0,90.0,4.0,64.0
3301,75.0,8.0,180.0,2.0,64.0
3302,67.0,84.0,90.0,4.0,64.0
3303,61.0,0.0,90.0,4.0,64.0
3304,71.0,0.0,180.0,2.0,64.0
3305,68.0,89.0,90.0,4.0,64.0
3306,61.0,0.0,90.0,4.0,64.0
3307,75.0,4.0,90.0,2.0,64.0
3308,61.0,1.0,90.0,4.0,64.0
3309,68.0,94.0,90.0,4.0,64.0
3310,72.0,86.0,90.0,2.0,64.0
3311,65.0,5.0,90.0,4.0,64.0
3312,61.0,0.0,90.0,4.0,64.0
3313,73.0,94.0,180.0,2.0,64.0
3314,61.0,92.0,90.0,4.0,64.0
3315,65.0,0.0,90.0,4.0,64.0
3316,70.0,28.0,270.0,4.0,64.0
3317,66.0,1.0,90.0,4.0,64.0
3318,61.0,0.0,90.0,4.0,64.0
3319,73.0,90.0,90.0,2.0,64.0
3320,66.0,2.0,90.0,4.0,64.0
3321,61.0,0.0,90.0,4.0,64.0
3322,63.0,3.0,90.0,4.0,64.0
3323,78.0,63.0,120.0,2.0,64.0
3324,61.0,1.0,90.0,4.0,64.0
3325,71.0,1.0,180.0,2.0,64.0
3326,63.0,92.0,90.0,4.0,64.0
3327,61.0,0.0,90.0,4.0,64.0
3328,65.0,0.0,90.0,4.0,64.0
3329,68.0,90.0,90.0,4.0,64.0
3330,61.0,1.0,90.0,4.0,64.0
3331,71.0,86.0,90.0,2.0,64.0
3332,65.0,8.0,90.0,4.0,64.0
3333,61.0,1.0,90.0,4.0,64.0
3334,69.0,88.0,90.0,4.0,64.0
3335,66.0,5.0,90.0,4.0,64.0
3336,61.0,0.0,90.0,4.0,64.0
3337,70.0,90.0,90.0,4.0,64.0
3338,61.0,4.0,90.0,4.0,64.0
3339,66.0,0.0,90.0,4.0,64.0
3340,70.0,88.0,90.0,4.0,64.0
3341,61.0,5.0,90.0,4.0,64.0
3342,85.0,55.0,90.0,1.0,64.0
3343,70.0,2.0,90.0,4.0,64.0
3344,61.0,6.0,90.0,4.0,64.0
3345,71.0,16.0,360.0,2.0,64.0
3346,87.0,46.0,60.0,1.0,64.0
3347,61.0,25.0,1500.0,4.0,64.0
3348,89.0,46.0,60.0,1.0,64.0
3349,90.0,45.0,60.0,1.0,64.0
3350,89.0,45.0,60.0,1.0,64.0
3351,92.0,44.0,60.0,1.0,64.0
3352,90.0,44.0,60.0,1.0,64.0
3353,89.0,29.0,60.0,1.0,64.0
3354,87.0,44.0,60.0,1.0,64.0
3355,85.0,46.0,60.0,1.0,64.0
3356,70.0,6.0,180.0,4.0,64.0
3357,89.0,46.0,60.0,1.0,64.0
3358,90.0,40.0,60.0,1.0,64.0
3359,89.0,44.0,60.0,1.0,64.0
3360,66.0,1.0,180.0,4.0,64.0
3361,90.0,46.0,60.0,1.0,64.0
3362,85.0,44.0,60.0,1.0,64.0
3363,87.0,43.0,60.0,1.0,64.0
3364,82.0,45.0,60.0,1.0,64.0
3365,83.0,42.0,60.0,1.0,64.0
3366,68.0,6.0,180.0,4.0,64.0
3367,85.0,47.0,60.0,1.0,64.0
3368,87.0,37.0,60.0,1.0,64.0
3369,85.0,44.0,60.0,1.0,64.0
3370,65.0,8.0,360.0,4.0,64.0
3371,89.0,46.0,60.0,1.0,64.0
3372,87.0,44.0,60.0,1.0,64.0
3373,85.0,46.0,60.0,1.0,64.0
3374,83.0,45.0,60.0,1.0,64.0
3375,82.0,44.0,60.0,1.0,64.0
3376,85.0,46.0,60.0,1.0,64.0
3377,90.0,37.0,60.0,1.0,64.0
3378,89.0,168.0,60.0,1.0,64.0
3379,90.0,6.0,180.0,1.0,64.0
3380,85.0,19.0,180.0,1.0,64.0
3381,82.0,4.0,180.0,1.0,64.0
3382,42.0,40.0,90.0,4.0,64.0
3383,54.0,0.0,90.0,4.0,64.0
3384,78.0,48.0,180.0,2.0,64.0
3385,90.0,4.0,180.0,1.0,64.0
3386,58.0,38.0,90.0,4.0,64.0
3387,46.0,1.0,90.0,4.0,64.0
3388,85.0,45.0,180.0,1.0,64.0
3389,82.0,42.0,180.0,1.0,64.0
3390,61.0,39.0,90.0,4.0,64.0
3391,49.0,0.0,90.0,4.0,64.0
3392,78.0,16.0,180.0,2.0,64.0
3393,90.0,56.0,180.0,1.0,64.0
3394,54.0,6.0,360.0,4.0,64.0
3395,66.0,1.0,360.0,4.0,64.0
3396,85.0,4.0,120.0,1.0,64.0
3397,82.0,28.0,60.0,1.0,64.0
3398,78.0,48.0,360.0,2.0,64.0
3399,87.0,44.0,60.0,1.0,64.0
3400,89.0,45.0,60.0,1.0,64.0
3401,90.0,39.0,60.0,1.0,64.0
3402,89.0,121.0,60.0,1.0,64.0
3403,90.0,4.0,180.0,1.0,64.0
3404,87.0,45.0,180.0,1.0,64.0
3405,83.0,3.0,180.0,1.0,64.0
3406,59.0,40.0,90.0,4.0,64.0
3407,47.0,1.0,90.0,4.0,64.0
3408,78.0,48.0,180.0,2.0,64.0
3409,90.0,4.0,180.0,1.0,64.0
3410,63.0,36.0,90.0,4.0,64.0
3411,51.0,1.0,90.0,4.0,64.0
3412,87.0,44.0,180.0,1.0,64.0
3413,83.0,42.0,180.0,1.0,64.0
3414,66.0,40.0,90.0,4.0,64.0
3415,54.0,0.0,90.0,4.0,64.0
3416,78.0,46.0,180.0,2.0,64.0
3417,71.0,2.0,360.0,2.0,64.0
3418,90.0,5.0,180.0,1.0,64.0
3419,59.0,1.0,180.0,4.0,64.0
3420,87.0,8.0,120.0,1.0,64.0
3421,83.0,77.0,90.0,1.0,64.0
3422,78.0,6.0,240.0,2.0,64.0
3423,82.0,1.0,150.0,1.0,64.0
3424,85.0,26.0,150.0,1.0,64.0
3425,61.0,57.0,90.0,4.0,64.0
3426,49.0,0.0,90.0,4.0,64.0
3427,61.0,6.0,120.0,4.0,64.0
3428,49.0,1.0,90.0,4.0,64.0
3429,87.0,1.0,30.0,1.0,64.0
3430,83.0,18.0,30.0,1.0,64.0
3431,83.0,7.0,20.0,1.0,64.0
3432,80.0,73.0,30.0,2.0,64.0
3433,82.0,0.0,240.0,1.0,64.0
3434,78.0,22.0,240.0,2.0,64.0
3435,61.0,92.0,90.0,4.0,64.0
3436,49.0,1.0,90.0,4.0,64.0
3437,61.0,0.0,90.0,4.0,64.0
3438,49.0,69.0,90.0,4.0,64.0
3439,61.0,96.0,90.0,4.0,64.0
3440,49.0,0.0,90.0,4.0,64.0
3441,85.0,89.0,90.0,1.0,64.0
3442,82.0,1.0,90.0,1.0,64.0
3443,61.0,8.0,90.0,4.0,64.0
3444,49.0,0.0,90.0,4.0,64.0
3445,83.0,92.0,90.0,1.0,64.0
3446,61.0,0.0,90.0,4.0,64.0
3447,80.0,1.0,90.0,2.0,64.0
3448,49.0,8.0,90.0,4.0,64.0
3449,80.0,53.0,90.0,2.0,64.0
3450,61.0,0.0,300.0,4.0,64.0
3451,77.0,56.0,390.0,2.0,64.0
3452,49.0,103.0,300.0,4.0,64.0
3453,82.0,44.0,60.0,1.0,64.0
3454,85.0,47.0,60.0,1.0,64.0
3455,90.0,45.0,60.0,1.0,64.0
3456,89.0,11.0,60.0,1.0,64.0
3457,90.0,4.0,180.0,1.0,64.0
3458,85.0,44.0,180.0,1.0,64.0
3459,82.0,6.0,180.0,1.0,64.0
3460,42.0,39.0,90.0,4.0,64.0
3461,54.0,0.0,90.0,4.0,64.0
3462,78.0,46.0,180.0,2.0,64.0
3463,90.0,6.0,180.0,1.0,64.0
3464,58.0,37.0,90.0,4.0,64.0
3465,46.0,0.0,90.0,4.0,64.0
3466,85.0,46.0,180.0,1.0,64.0
3467,82.0,41.0,180.0,1.0,64.0
3468,61.0,38.0,90.0,4.0,64.0
3469,49.0,0.0,90.0,4.0,64.0
3470,78.0,48.0,180.0,2.0,64.0
3471,66.0,1.0,360.0,4.0,64.0
3472,90.0,4.0,180.0,1.0,64.0
3473,54.0,14.0,360.0,4.0,64.0
3474,85.0,9.0,120.0,1.0,64.0
3475,82.0,44.0,90.0,1.0,64.0
3476,78.0,46.0,360.0,2.0,64.0
3477,87.0,44.0,60.0,1.0,64.0
3478,89.0,46.0,60.0,1.0,64.0
3479,90.0,28.0,60.0,1.0,64.0
3480,89.0,122.0,60.0,1.0,64.0
3481,90.0,6.0,180.0,1.0,64.0
3482,87.0,45.0,180.0,1.0,64.0
3483,59.0,38.0,90.0,4.0,64.0
3484,83.0,5.0,180.0,1.0,64.0
3485,47.0,1.0,90.0,4.0,64.0
3486,78.0,46.0,180.0,2.0,64.0
3487,90.0,6.0,180.0,1.0,64.0
3488,63.0,36.0,90.0,4.0,64.0
3489,51.0,1.0,90.0,4.0,64.0
3490,87.0,45.0,180.0,1.0,64.0
3491,83.0,42.0,180.0,1.0,64.0
3492,66.0,38.0,90.0,4.0,64.0
3493,54.0,0.0,90.0,4.0,64.0
3494,78.0,45.0,180.0,2.0,64.0
3495,71.0,8.0,390.0,2.0,64.0
3496,90.0,4.0,180.0,1.0,64.0
3497,59.0,2.0,180.0,4.0,64.0
3498,87.0,12.0,120.0,1.0,64.0
3499,83.0,75.0,90.0,1.0,64.0
3500,78.0,12.0,210.0,2.0,64.0
3501,82.0,21.0,150.0,1.0,64.0
3502,85.0,2.0,150.0,1.0,64.0
3503,61.0,57.0,90.0,4.0,64.0
3504,49.0,0.0,90.0,4.0,64.0
3505,61.0,6.0,120.0,4.0,64.0
3506,49.0,1.0,120.0,4.0,64.0
3507,87.0,8.0,60.0,1.0,64.0
3508,83.0,12.0,20.0,1.0,64.0
3509,83.0,0.0,30.0,1.0,64.0
3510,80.0,77.0,30.0,2.0,64.0
3511,78.0,1.0,240.0,2.0,64.0
3512,82.0,23.0,240.0,1.0,64.0
3513,61.0,93.0,90.0,4.0,64.0
3514,49.0,1.0,90.0,4.0,64.0
3515,49.0,1.0,90.0,4.0,64.0
3516,61.0,70.0,90.0,4.0,64.0
3517,61.0,92.0,90.0,4.0,64.0
3518,49.0,1.0,90.0,4.0,64.0
3519,85.0,85.0,90.0,1.0,64.0
3520,49.0,1.0,90.0,4.0,64.0
3521,61.0,6.0,90.0,4.0,64.0
3522,82.0,1.0,90.0,1.0,64.0
3523,83.0,92.0,90.0,1.0,64.0
3524,80.0,1.0,90.0,2.0,64.0
3525,61.0,5.0,90.0,4.0,64.0
3526,49.0,0.0,90.0,4.0,64.0
3527,80.0,1.0,90.0,2.0,64.0
3528,77.0,1.0,90.0,2.0,64.0
3529,61.0,132.0,90.0,4.0,64.0
3530,49.0,0.0,90.0,4.0,64.0
3531,78.0,41.0,150.0,2.0,64.0
3532,66.0,9.0,120.0,4.0,64.0
3533,80.0,31.0,60.0,2.0,64.0
3534,68.0,0.0,60.0,4.0,64.0
3535,77.0,100.0,60.0,2.0,64.0
3536,65.0,0.0,60.0,4.0,64.0
3537,75.0,48.0,150.0,2.0,64.0
3538,63.0,18.0,120.0,4.0,64.0
3539,77.0,31.0,60.0,2.0,64.0
3540,65.0,0.0,60.0,4.0,64.0
3541,73.0,114.0,60.0,2.0,64.0
3542,61.0,0.0,60.0,4.0,64.0
3543,71.0,54.0,120.0,2.0,64.0
3544,59.0,0.0,120.0,4.0,64.0
3545,73.0,25.0,60.0,2.0,64.0
3546,61.0,1.0,60.0,4.0,64.0
3547,70.0,112.0,60.0,4.0,64.0
3548,58.0,0.0,60.0,4.0,64.0
3549,68.0,53.0,120.0,4.0,64.0
3550,56.0,3.0,120.0,4.0,64.0
3551,58.0,27.0,60.0,4.0,64.0
3552,70.0,0.0,60.0,4.0,64.0
3553,54.0,363.0,60.0,4.0,64.0
3554,66.0,0.0,60.0,4.0,64.0
3555,65.0,97.0,390.0,4.0,64.0
3556,53.0,1.0,390.0,4.0,64.0
3557,73.0,10.0,300.0,2.0,64.0
3558,77.0,11.0,300.0,2.0,64.0
3559,80.0,10.0,300.0,2.0,64.0
3560,83.0,242.0,300.0,1.0,64.0
3561,66.0,8.0,360.0,4.0,64.0
3562,54.0,44.0,390.0,4.0,64.0
3563,70.0,11.0,240.0,4.0,64.0
3564,73.0,10.0,240.0,2.0,64.0
3565,78.0,12.0,240.0,2.0,64.0
3566,82.0,119.0,240.0,1.0,64.0
3567,66.0,89.0,360.0,4.0,64.0
3568,59.0,1.0,360.0,4.0,64.0
3569,75.0,90.0,90.0,2.0,64.0
3570,74.0,86.0,90.0,2.0,64.0
3571,75.0,109.0,180.0,2.0,64.0
3572,69.0,0.0,360.0,4.0,64.0
3573,60.0,9.0,360.0,4.0,64.0
3574,78.0,92.0,120.0,2.0,64.0
3575,77.0,85.0,90.0,2.0,64.0
3576,78.0,122.0,90.0,2.0,64.0
3577,73.0,4.0,300.0,2.0,64.0
3578,61.0,69.0,150.0,4.0,64.0
3579,70.0,22.0,90.0,4.0,64.0
3580,66.0,64.0,150.0,4.0,64.0
3581,70.0,23.0,90.0,4.0,64.0
3582,61.0,79.0,150.0,4.0,64.0
3583,70.0,23.0,90.0,4.0,64.0
3584,66.0,12.0,180.0,4.0,64.0
3585,70.0,25.0,90.0,4.0,64.0
3586,61.0,10.0,180.0,4.0,64.0
3587,82.0,1.0,60.0,1.0,64.0
3588,80.0,32.0,30.0,2.0,64.0
3589,71.0,8.0,90.0,2.0,64.0
3590,82.0,31.0,30.0,1.0,64.0
3591,65.0,11.0,180.0,4.0,64.0
3592,80.0,18.0,30.0,2.0,64.0
3593,82.0,37.0,30.0,1.0,64.0
3594,71.0,2.0,90.0,2.0,64.0
3595,80.0,31.0,30.0,2.0,64.0
3596,61.0,9.0,180.0,4.0,64.0
3597,82.0,23.0,30.0,1.0,64.0
3598,80.0,35.0,30.0,2.0,64.0
3599,71.0,6.0,90.0,2.0,64.0
3600,82.0,33.0,30.0,1.0,64.0
3601,65.0,2.0,90.0,4.0,64.0
3602,80.0,20.0,30.0,2.0,64.0
3603,78.0,25.0,30.0,2.0,64.0
3604,71.0,15.0,90.0,2.0,64.0
3605,80.0,37.0,30.0,2.0,64.0
3606,66.0,5.0,180.0,4.0,64.0
3607,78.0,48.0,60.0,2.0,64.0
3608,54.0,1.0,180.0,4.0,64.0
3609,82.0,46.0,60.0,1.0,64.0
3610,78.0,41.0,60.0,2.0,64.0
3611,77.0,46.0,60.0,2.0,64.0
3612,63.0,0.0,180.0,4.0,64.0
3613,75.0,46.0,60.0,2.0,64.0
3614,51.0,6.0,180.0,4.0,64.0
3615,78.0,46.0,60.0,2.0,64.0
3616,75.0,42.0,60.0,2.0,64.0
3617,73.0,46.0,60.0,2.0,64.0
3618,71.0,48.0,60.0,2.0,64.0
3619,59.0,5.0,180.0,4.0,64.0
3620,47.0,0.0,180.0,4.0,64.0
3621,75.0,45.0,60.0,2.0,64.0
3622,71.0,41.0,60.0,2.0,64.0
3623,70.0,46.0,60.0,4.0,64.0
3624,68.0,47.0,60.0,4.0,64.0
3625,44.0,3.0,180.0,4.0,64.0
3626,56.0,0.0,180.0,4.0,64.0
3627,71.0,44.0,60.0,2.0,64.0
3628,68.0,33.0,60.0,4.0,64.0
3629,66.0,229.0,30.0,4.0,64.0
3630,41.0,1.0,240.0,4.0,64.0
3631,53.0,8.0,240.0,4.0,64.0
3632,65.0,0.0,240.0,4.0,64.0
3633,73.0,15.0,90.0,2.0,64.0
3634,80.0,15.0,90.0,2.0,64.0
3635,83.0,104.0,90.0,1.0,64.0
3636,83.0,191.0,120.0,1.0,64.0
3637,65.0,33.0,60.0,4.0,64.0
3638,53.0,1.0,60.0,4.0,64.0
3639,66.0,6.0,240.0,4.0,64.0
3640,54.0,1.0,240.0,4.0,64.0
3641,73.0,15.0,90.0,2.0,64.0
3642,78.0,15.0,90.0,2.0,64.0
3643,82.0,102.0,90.0,1.0,64.0
3644,82.0,167.0,120.0,1.0,64.0
3645,66.0,28.0,60.0,4.0,64.0
3646,54.0,0.0,60.0,4.0,64.0
3647,47.0,95.0,720.0,4.0,64.0
3648,59.0,0.0,720.0,4.0,64.0
3649,87.0,92.0,90.0,1.0,64.0
3650,75.0,0.0,90.0,2.0,64.0
3651,86.0,92.0,90.0,1.0,64.0
3652,74.0,0.0,90.0,2.0,64.0
3653,87.0,93.0,90.0,1.0,64.0
3654,75.0,1.0,90.0,2.0,64.0
3655,86.0,93.0,90.0,1.0,64.0
3656,74.0,1.0,90.0,2.0,64.0
3657,87.0,90.0,90.0,1.0,64.0
3658,75.0,1.0,90.0,2.0,64.0
3659,89.0,74.0,90.0,1.0,64.0
3660,77.0,0.0,90.0,2.0,64.0
3661,78.0,1.0,180.0,2.0,64.0
3662,90.0,108.0,180.0,1.0,64.0
3663,69.0,14.0,750.0,4.0,64.0
3664,60.0,1.0,720.0,4.0,64.0
3665,63.0,0.0,720.0,4.0,64.0
3666,90.0,91.0,90.0,1.0,64.0
3667,78.0,0.0,90.0,2.0,64.0
3668,77.0,94.0,90.0,2.0,64.0
3669,89.0,0.0,90.0,1.0,64.0
3670,90.0,96.0,90.0,1.0,64.0
3671,78.0,0.0,90.0,2.0,64.0
3672,89.0,92.0,90.0,1.0,64.0
3673,77.0,0.0,90.0,2.0,64.0
3674,78.0,90.0,90.0,2.0,64.0
3675,90.0,0.0,90.0,1.0,64.0
3676,92.0,75.0,90.0,1.0,64.0
3677,80.0,1.0,90.0,2.0,64.0
3678,93.0,45.0,90.0,1.0,64.0
3679,81.0,1.0,90.0,2.0,64.0
3680,61.0,23.0,150.0,4.0,64.0
3681,85.0,45.0,60.0,1.0,64.0
3682,90.0,26.0,60.0,1.0,64.0
3683,70.0,15.0,90.0,4.0,64.0
3684,85.0,8.0,60.0,1.0,64.0
3685,66.0,37.0,150.0,4.0,64.0
3686,82.0,43.0,30.0,1.0,64.0
3687,70.0,16.0,90.0,4.0,64.0
3688,82.0,8.0,60.0,1.0,64.0
3689,61.0,38.0,150.0,4.0,64.0
3690,85.0,29.0,60.0,1.0,64.0
3691,70.0,14.0,90.0,4.0,64.0
3692,82.0,7.0,60.0,1.0,64.0
3693,66.0,38.0,150.0,4.0,64.0
3694,78.0,28.0,60.0,2.0,64.0
3695,70.0,15.0,90.0,4.0,64.0
3696,61.0,22.0,150.0,4.0,64.0
3697,85.0,7.0,60.0,1.0,64.0
3698,90.0,29.0,60.0,1.0,64.0
3699,70.0,14.0,90.0,4.0,64.0
3700,85.0,6.0,60.0,1.0,64.0
3701,66.0,23.0,150.0,4.0,64.0
3702,82.0,45.0,30.0,1.0,64.0
3703,70.0,4.0,90.0,4.0,64.0
3704,82.0,20.0,30.0,1.0,64.0
3705,61.0,27.0,150.0,4.0,64.0
3706,85.0,43.0,30.0,1.0,64.0
3707,70.0,2.0,90.0,4.0,64.0
3708,66.0,42.0,180.0,4.0,64.0
3709,82.0,20.0,30.0,1.0,64.0
3710,70.0,25.0,90.0,4.0,64.0
3711,78.0,59.0,30.0,2.0,64.0
3712,61.0,35.0,180.0,4.0,64.0
3713,82.0,2.0,90.0,1.0,64.0
3714,80.0,19.0,60.0,2.0,64.0
3715,71.0,20.0,90.0,2.0,64.0
3716,82.0,21.0,60.0,1.0,64.0
3717,65.0,0.0,180.0,4.0,64.0
3718,80.0,6.0,60.0,2.0,64.0
3719,71.0,27.0,90.0,2.0,64.0
3720,82.0,36.0,60.0,1.0,64.0
3721,80.0,10.0,60.0,2.0,64.0
3722,61.0,10.0,180.0,4.0,64.0
3723,82.0,37.0,60.0,1.0,64.0
3724,71.0,26.0,90.0,2.0,64.0
3725,80.0,37.0,60.0,2.0,64.0
3726,82.0,2.0,60.0,1.0,64.0
3727,65.0,26.0,180.0,4.0,64.0
3728,80.0,38.0,60.0,2.0,64.0
3729,71.0,16.0,90.0,2.0,64.0
3730,82.0,29.0,60.0,1.0,64.0
3731,61.0,4.0,180.0,4.0,64.0
3732,80.0,10.0,60.0,2.0,64.0
3733,82.0,38.0,60.0,1.0,64.0
3734,71.0,25.0,90.0,2.0,64.0
3735,80.0,12.0,60.0,2.0,64.0
3736,65.0,13.0,180.0,4.0,64.0
3737,82.0,34.0,60.0,1.0,64.0
3738,71.0,2.0,90.0,2.0,64.0
3739,80.0,39.0,60.0,2.0,64.0
3740,82.0,23.0,60.0,1.0,64.0
3741,61.0,17.0,180.0,4.0,64.0
3742,80.0,39.0,60.0,2.0,64.0
3743,71.0,8.0,90.0,2.0,64.0
3744,82.0,21.0,60.0,1.0,64.0
3745,65.0,8.0,90.0,4.0,64.0
3746,80.0,16.0,30.0,2.0,64.0
3747,78.0,17.0,30.0,2.0,64.0
3748,71.0,209.0,90.0,2.0,64.0
3749,80.0,31.0,30.0,2.0,64.0
3750,66.0,27.0,240.0,4.0,64.0
3751,78.0,56.0,270.0,2.0,64.0
3752,54.0,1.0,240.0,4.0,64.0
3753,70.0,2.0,60.0,4.0,64.0
3754,58.0,45.0,60.0,4.0,64.0
3755,66.0,2.0,60.0,4.0,64.0
3756,54.0,72.0,60.0,4.0,64.0
3757,71.0,49.0,90.0,2.0,64.0
3758,59.0,10.0,90.0,4.0,64.0
3759,68.0,1.0,60.0,4.0,64.0
3760,56.0,49.0,60.0,4.0,64.0
3761,65.0,1.0,60.0,4.0,64.0
3762,53.0,88.0,60.0,4.0,64.0
3763,66.0,55.0,90.0,4.0,64.0
3764,54.0,5.0,90.0,4.0,64.0
3765,63.0,1.0,60.0,4.0,64.0
3766,51.0,45.0,60.0,4.0,64.0
3767,60.0,1.0,60.0,4.0,64.0
3768,48.0,180.0,60.0,4.0,64.0
3769,49.0,0.0,180.0,4.0,64.0
3770,61.0,210.0,180.0,4.0,64.0
3771,80.0,12.0,210.0,2.0,64.0
3772,49.0,1.0,210.0,4.0,64.0
3773,61.0,0.0,210.0,4.0,64.0
3774,85.0,18.0,180.0,1.0,64.0
3775,89.0,319.0,180.0,1.0,64.0
3776,42.0,14.0,3660.0,4.0,64.0
3777,54.0,9.0,2400.0,4.0,64.0
3778,78.0,12.0,330.0,2.0,64.0
3779,82.0,11.0,330.0,1.0,64.0
3780,85.0,12.0,330.0,1.0,64.0
3781,90.0,136.0,330.0,1.0,64.0
3782,73.0,2.0,180.0,2.0,64.0
3783,61.0,51.0,180.0,4.0,64.0
3784,85.0,48.0,60.0,1.0,64.0
3785,84.0,31.0,60.0,1.0,64.0
3786,85.0,59.0,90.0,1.0,64.0
3787,64.0,1.0,90.0,4.0,64.0
3788,73.0,37.0,120.0,2.0,64.0
3789,85.0,56.0,90.0,1.0,64.0
3790,75.0,37.0,90.0,2.0,64.0
3791,66.0,1.0,90.0,4.0,64.0
3792,85.0,56.0,90.0,1.0,64.0
3793,76.0,35.0,90.0,2.0,64.0
3794,68.0,1.0,90.0,4.0,64.0
3795,85.0,57.0,90.0,1.0,64.0
3796,78.0,0.0,90.0,2.0,64.0
3797,69.0,37.0,90.0,4.0,64.0
3798,85.0,59.0,90.0,1.0,64.0
3799,76.0,37.0,90.0,2.0,64.0
3800,68.0,0.0,90.0,4.0,64.0
3801,85.0,63.0,90.0,1.0,64.0
3802,66.0,35.0,120.0,4.0,64.0
3803,75.0,0.0,120.0,2.0,64.0
3804,85.0,58.0,90.0,1.0,64.0
3805,73.0,39.0,150.0,2.0,64.0
3806,64.0,9.0,2340.0,4.0,64.0
3807,85.0,46.0,60.0,1.0,64.0
3808,84.0,8.0,60.0,1.0,64.0
3809,85.0,77.0,60.0,1.0,64.0
3810,88.0,86.0,90.0,1.0,64.0
3811,73.0,6.0,90.0,2.0,64.0
3812,85.0,0.0,60.0,1.0,64.0
3813,87.0,86.0,90.0,1.0,64.0
3814,73.0,8.0,90.0,2.0,64.0
3815,83.0,0.0,60.0,1.0,64.0
3816,85.0,7.0,90.0,1.0,64.0
3817,73.0,8.0,90.0,2.0,64.0
3818,82.0,78.0,60.0,1.0,64.0
3819,87.0,9.0,90.0,1.0,64.0
3820,73.0,8.0,90.0,2.0,64.0
3821,83.0,78.0,60.0,1.0,64.0
3822,85.0,9.0,90.0,1.0,64.0
3823,73.0,8.0,90.0,2.0,64.0
3824,82.0,46.0,60.0,1.0,64.0
3825,83.0,46.0,60.0,1.0,64.0
3826,73.0,47.0,270.0,2.0,64.0
3827,80.0,56.0,60.0,2.0,64.0
3828,82.0,1.0,60.0,1.0,64.0
3829,79.0,31.0,60.0,2.0,64.0
3830,87.0,47.0,60.0,1.0,64.0
3831,86.0,48.0,60.0,1.0,64.0
3832,87.0,59.0,90.0,1.0,64.0
3833,70.0,37.0,120.0,4.0,64.0
3834,79.0,0.0,120.0,2.0,64.0
3835,87.0,57.0,90.0,1.0,64.0
3836,80.0,37.0,90.0,2.0,64.0
3837,71.0,0.0,90.0,2.0,64.0
3838,87.0,50.0,90.0,1.0,64.0
3839,82.0,0.0,90.0,1.0,64.0
3840,73.0,35.0,90.0,2.0,64.0
3841,87.0,59.0,90.0,1.0,64.0
3842,83.0,37.0,90.0,1.0,64.0
3843,75.0,0.0,90.0,2.0,64.0
3844,87.0,57.0,90.0,1.0,64.0
3845,82.0,0.0,90.0,1.0,64.0
3846,73.0,37.0,90.0,2.0,64.0
3847,87.0,59.0,90.0,1.0,64.0
3848,80.0,0.0,120.0,2.0,64.0
3849,71.0,37.0,90.0,2.0,64.0
3850,87.0,18.0,90.0,1.0,64.0
3851,79.0,32.0,60.0,2.0,64.0
3852,70.0,55.0,780.0,4.0,64.0
3853,87.0,45.0,60.0,1.0,64.0
3854,86.0,47.0,30.0,1.0,64.0
3855,87.0,87.0,60.0,1.0,64.0
3856,88.0,82.0,90.0,1.0,64.0
3857,75.0,8.0,90.0,2.0,64.0
3858,85.0,0.0,60.0,1.0,64.0
3859,87.0,88.0,90.0,1.0,64.0
3860,75.0,8.0,90.0,2.0,64.0
3861,83.0,0.0,60.0,1.0,64.0
3862,75.0,8.0,90.0,2.0,64.0
3863,85.0,84.0,90.0,1.0,64.0
3864,82.0,0.0,60.0,1.0,64.0
3865,83.0,86.0,90.0,1.0,64.0
3866,75.0,8.0,90.0,2.0,64.0
3867,80.0,0.0,60.0,2.0,64.0
3868,75.0,8.0,90.0,2.0,64.0
3869,82.0,49.0,90.0,1.0,64.0
3870,78.0,1.0,60.0,2.0,64.0
3871,85.0,39.0,60.0,1.0,64.0
3872,75.0,6.0,90.0,2.0,64.0
3873,82.0,34.0,60.0,1.0,64.0
3874,83.0,29.0,180.0,1.0,64.0
3875,75.0,8.0,90.0,2.0,64.0
3876,80.0,48.0,60.0,2.0,64.0
3877,79.0,41.0,60.0,2.0,64.0
3878,80.0,59.0,90.0,2.0,64.0
3879,68.0,33.0,90.0,4.0,64.0
3880,59.0,0.0,90.0,4.0,64.0
3881,80.0,61.0,90.0,2.0,64.0
3882,61.0,35.0,90.0,4.0,64.0
3883,70.0,0.0,90.0,4.0,64.0
3884,80.0,61.0,90.0,2.0,64.0
3885,71.0,32.0,120.0,2.0,64.0
3886,63.0,0.0,120.0,4.0,64.0
3887,80.0,59.0,90.0,2.0,64.0
3888,73.0,36.0,90.0,2.0,64.0
3889,64.0,0.0,90.0,4.0,64.0
3890,80.0,59.0,90.0,2.0,64.0
3891,63.0,33.0,120.0,4.0,64.0
3892,71.0,0.0,120.0,2.0,64.0
3893,80.0,58.0,90.0,2.0,64.0
3894,70.0,37.0,90.0,4.0,64.0
3895,61.0,1.0,90.0,4.0,64.0
3896,80.0,50.0,90.0,2.0,64.0
3897,68.0,47.0,180.0,4.0,64.0
3898,59.0,15.0,2160.0,4.0,64.0
3899,80.0,45.0,60.0,2.0,64.0
3900,79.0,43.0,30.0,2.0,64.0
3901,80.0,41.0,90.0,2.0,64.0
3902,83.0,86.0,90.0,1.0,64.0
3903,68.0,7.0,90.0,4.0,64.0
3904,80.0,1.0,60.0,2.0,64.0
3905,82.0,6.0,90.0,1.0,64.0
3906,68.0,8.0,90.0,4.0,64.0
3907,78.0,79.0,60.0,2.0,64.0
3908,80.0,8.0,90.0,2.0,64.0
3909,68.0,8.0,90.0,4.0,64.0
3910,77.0,75.0,60.0,2.0,64.0
3911,82.0,8.0,90.0,1.0,64.0
3912,68.0,8.0,90.0,4.0,64.0
3913,78.0,79.0,60.0,2.0,64.0
3914,80.0,9.0,90.0,2.0,64.0
3915,68.0,8.0,90.0,4.0,64.0
3916,77.0,45.0,60.0,2.0,64.0
3917,78.0,47.0,60.0,2.0,64.0
3918,68.0,45.0,270.0,4.0,64.0
3919,75.0,86.0,60.0,2.0,64.0
3920,74.0,1.0,180.0,2.0,64.0
3921,77.0,4.0,180.0,2.0,64.0
3922,82.0,47.0,60.0,1.0,64.0
3923,81.0,41.0,60.0,2.0,64.0
3924,82.0,48.0,90.0,1.0,64.0
3925,74.0,43.0,90.0,2.0,64.0
3926,70.0,1.0,90.0,4.0,64.0
3927,82.0,48.0,90.0,1.0,64.0
3928,75.0,44.0,90.0,2.0,64.0
3929,72.0,1.0,90.0,2.0,64.0
3930,82.0,50.0,90.0,1.0,64.0
3931,77.0,46.0,90.0,2.0,64.0
3932,74.0,0.0,90.0,2.0,64.0
3933,82.0,48.0,90.0,1.0,64.0
3934,75.0,44.0,90.0,2.0,64.0
3935,78.0,0.0,90.0,2.0,64.0
3936,82.0,50.0,90.0,1.0,64.0
3937,77.0,44.0,90.0,2.0,64.0
3938,74.0,0.0,90.0,2.0,64.0
3939,82.0,48.0,90.0,1.0,64.0
3940,75.0,41.0,90.0,2.0,64.0
3941,72.0,1.0,90.0,2.0,64.0
3942,82.0,56.0,90.0,1.0,64.0
3943,70.0,1.0,180.0,4.0,64.0
3944,74.0,11.0,180.0,2.0,64.0
3945,82.0,46.0,60.0,1.0,64.0
3946,81.0,34.0,60.0,2.0,64.0
3947,82.0,78.0,60.0,1.0,64.0
3948,83.0,82.0,90.0,1.0,64.0
3949,70.0,7.0,90.0,4.0,64.0
3950,80.0,1.0,60.0,2.0,64.0
3951,82.0,85.0,90.0,1.0,64.0
3952,70.0,8.0,90.0,4.0,64.0
3953,78.0,1.0,60.0,2.0,64.0
3954,80.0,87.0,90.0,2.0,64.0
3955,70.0,8.0,90.0,4.0,64.0
3956,77.0,0.0,60.0,2.0,64.0
3957,70.0,7.0,90.0,4.0,64.0
3958,78.0,86.0,90.0,2.0,64.0
3959,75.0,1.0,60.0,2.0,64.0
3960,77.0,30.0,90.0,2.0,64.0
3961,70.0,7.0,90.0,4.0,64.0
3962,73.0,1.0,60.0,2.0,64.0
3963,80.0,49.0,60.0,2.0,64.0
3964,70.0,122.0,90.0,4.0,64.0
3965,77.0,11.0,60.0,2.0,64.0
3966,63.0,47.0,150.0,4.0,64.0
3967,78.0,23.0,210.0,2.0,64.0
3968,70.0,24.0,90.0,4.0,64.0
3969,66.0,69.0,150.0,4.0,64.0
3970,70.0,23.0,90.0,4.0,64.0
3971,63.0,66.0,150.0,4.0,64.0
3972,90.0,72.0,240.0,1.0,64.0
3973,71.0,23.0,90.0,2.0,64.0
3974,66.0,1.0,150.0,4.0,64.0
3975,71.0,23.0,90.0,2.0,64.0
3976,63.0,36.0,150.0,4.0,64.0
3977,71.0,23.0,90.0,2.0,64.0
3978,87.0,31.0,90.0,1.0,64.0
3979,66.0,37.0,150.0,4.0,64.0
3980,71.0,21.0,90.0,2.0,64.0
3981,83.0,31.0,90.0,1.0,64.0
3982,63.0,38.0,150.0,4.0,64.0
3983,71.0,25.0,90.0,2.0,64.0
3984,66.0,29.0,90.0,4.0,64.0
3985,82.0,46.0,120.0,1.0,64.0
3986,71.0,29.0,180.0,2.0,64.0
3987,63.0,117.0,750.0,4.0,64.0
3988,81.0,62.0,30.0,2.0,64.0
3989,84.0,0.0,60.0,1.0,64.0
3990,81.0,145.0,30.0,2.0,64.0
3991,87.0,50.0,180.0,1.0,64.0
3992,81.0,11.0,90.0,2.0,64.0
3993,84.0,29.0,60.0,1.0,64.0
3994,81.0,92.0,90.0,2.0,64.0
3995,89.0,50.0,180.0,1.0,64.0
3996,81.0,10.0,90.0,2.0,64.0
3997,84.0,31.0,60.0,1.0,64.0
3998,81.0,91.0,90.0,2.0,64.0
3999,90.0,16.0,180.0,1.0,64.0
4000,81.0,12.0,90.0,2.0,64.0
4001,84.0,29.0,60.0,1.0,64.0
4002,81.0,7.0,60.0,2.0,64.0
4003,82.0,47.0,180.0,1.0,64.0
4004,61.0,21.0,150.0,4.0,64.0
4005,70.0,23.0,90.0,4.0,64.0
4006,65.0,70.0,150.0,4.0,64.0
4007,70.0,23.0,90.0,4.0,64.0
4008,61.0,68.0,150.0,4.0,64.0
4009,88.0,71.0,240.0,1.0,64.0
4010,70.0,23.0,90.0,4.0,64.0
4011,64.0,0.0,150.0,4.0,64.0
4012,70.0,23.0,90.0,4.0,64.0
4013,61.0,41.0,150.0,4.0,64.0
4014,70.0,23.0,90.0,4.0,64.0
4015,85.0,27.0,90.0,1.0,64.0
4016,64.0,41.0,150.0,4.0,64.0
4017,70.0,23.0,90.0,4.0,64.0
4018,61.0,39.0,150.0,4.0,64.0
4019,82.0,29.0,90.0,1.0,64.0
4020,70.0,23.0,90.0,4.0,64.0
4021,64.0,30.0,90.0,4.0,64.0
4022,80.0,50.0,120.0,2.0,64.0
4023,70.0,32.0,180.0,4.0,64.0
4024,61.0,15.0,720.0,4.0,64.0
4025,79.0,56.0,30.0,2.0,64.0
4026,82.0,135.0,90.0,1.0,64.0
4027,79.0,1.0,30.0,2.0,64.0
4028,85.0,5.0,180.0,1.0,64.0
4029,79.0,41.0,90.0,2.0,64.0
4030,82.0,47.0,90.0,1.0,64.0
4031,79.0,90.0,90.0,2.0,64.0
4032,87.0,6.0,180.0,1.0,64.0
4033,79.0,42.0,90.0,2.0,64.0
4034,82.0,44.0,90.0,1.0,64.0
4035,79.0,94.0,90.0,2.0,64.0
4036,88.0,7.0,180.0,1.0,64.0
4037,79.0,18.0,90.0,2.0,64.0
4038,82.0,25.0,60.0,1.0,64.0
4039,79.0,119.0,60.0,2.0,64.0
4040,80.0,43.0,180.0,2.0,64.0
4041,59.0,21.0,150.0,4.0,64.0
4042,68.0,23.0,90.0,4.0,64.0
4043,63.0,71.0,150.0,4.0,64.0
4044,68.0,25.0,90.0,4.0,64.0
4045,86.0,2.0,240.0,1.0,64.0
4046,59.0,71.0,150.0,4.0,64.0
4047,68.0,26.0,90.0,4.0,64.0
4048,62.0,67.0,150.0,4.0,64.0
4049,68.0,21.0,90.0,4.0,64.0
4050,59.0,22.0,150.0,4.0,64.0
4051,68.0,23.0,90.0,4.0,64.0
4052,83.0,46.0,90.0,1.0,64.0
4053,62.0,21.0,150.0,4.0,64.0
4054,68.0,25.0,90.0,4.0,64.0
4055,80.0,47.0,90.0,2.0,64.0
4056,59.0,36.0,150.0,4.0,64.0
4057,68.0,25.0,90.0,4.0,64.0
4058,78.0,46.0,120.0,2.0,64.0
4059,62.0,31.0,90.0,4.0,64.0
4060,68.0,7.0,180.0,4.0,64.0
4061,59.0,43.0,720.0,4.0,64.0
4062,77.0,58.0,30.0,2.0,64.0
4063,80.0,25.0,60.0,2.0,64.0
4064,77.0,138.0,30.0,2.0,64.0
4065,83.0,50.0,180.0,1.0,64.0
4066,77.0,18.0,90.0,2.0,64.0
4067,80.0,21.0,60.0,2.0,64.0
4068,77.0,88.0,90.0,2.0,64.0
4069,85.0,50.0,180.0,1.0,64.0
4070,77.0,18.0,90.0,2.0,64.0
4071,80.0,22.0,60.0,2.0,64.0
4072,77.0,93.0,90.0,2.0,64.0
4073,86.0,8.0,180.0,1.0,64.0
4074,77.0,19.0,90.0,2.0,64.0
4075,80.0,23.0,60.0,2.0,64.0
4076,77.0,96.0,90.0,2.0,64.0
4077,69.0,37.0,210.0,4.0,64.0
4078,73.0,0.0,210.0,2.0,64.0
4079,78.0,57.0,90.0,2.0,64.0
4080,90.0,42.0,180.0,1.0,64.0
4081,78.0,54.0,90.0,2.0,64.0
4082,71.0,38.0,180.0,2.0,64.0
4083,68.0,0.0,180.0,4.0,64.0
4084,77.0,53.0,90.0,2.0,64.0
4085,89.0,40.0,180.0,1.0,64.0
4086,77.0,55.0,90.0,2.0,64.0
4087,73.0,0.0,180.0,2.0,64.0
4088,69.0,40.0,180.0,4.0,64.0
4089,78.0,53.0,90.0,2.0,64.0
4090,90.0,39.0,180.0,1.0,64.0
4091,78.0,50.0,90.0,2.0,64.0
4092,68.0,39.0,180.0,4.0,64.0
4093,65.0,1.0,180.0,4.0,64.0
4094,73.0,52.0,90.0,2.0,64.0
4095,85.0,38.0,180.0,1.0,64.0
4096,73.0,53.0,90.0,2.0,64.0
4097,66.0,1.0,180.0,4.0,64.0
4098,69.0,40.0,180.0,4.0,64.0
4099,74.0,51.0,90.0,2.0,64.0
4100,86.0,39.0,180.0,1.0,64.0
4101,74.0,50.0,90.0,2.0,64.0
4102,68.0,39.0,180.0,4.0,64.0
4103,65.0,0.0,180.0,4.0,64.0
4104,73.0,53.0,90.0,2.0,64.0
4105,85.0,38.0,180.0,1.0,64.0
4106,73.0,52.0,90.0,2.0,64.0
4107,69.0,0.0,180.0,4.0,64.0
4108,66.0,37.0,180.0,4.0,64.0
4109,74.0,51.0,90.0,2.0,64.0
4110,86.0,41.0,180.0,1.0,64.0
4111,74.0,52.0,90.0,2.0,64.0
4112,64.0,39.0,180.0,4.0,64.0
4113,61.0,1.0,180.0,4.0,64.0
4114,70.0,50.0,90.0,4.0,64.0
4115,82.0,40.0,180.0,1.0,64.0
4116,70.0,52.0,90.0,4.0,64.0
4117,62.0,41.0,180.0,4.0,64.0
4118,66.0,0.0,180.0,4.0,64.0
4119,71.0,53.0,90.0,2.0,64.0
4120,83.0,38.0,180.0,1.0,64.0
4121,71.0,52.0,90.0,2.0,64.0
4122,64.0,38.0,180.0,4.0,64.0
4123,61.0,1.0,180.0,4.0,64.0
4124,70.0,53.0,90.0,4.0,64.0
4125,82.0,41.0,180.0,1.0,64.0
4126,70.0,52.0,90.0,4.0,64.0
4127,66.0,0.0,180.0,4.0,64.0
4128,62.0,37.0,180.0,4.0,64.0
4129,71.0,51.0,90.0,2.0,64.0
4130,83.0,40.0,180.0,1.0,64.0
4131,71.0,52.0,90.0,2.0,64.0
4132,61.0,39.0,180.0,4.0,64.0
4133,64.0,0.0,180.0,4.0,64.0
4134,69.0,51.0,90.0,4.0,64.0
4135,81.0,38.0,180.0,2.0,64.0
4136,69.0,53.0,90.0,4.0,64.0
4137,59.0,1.0,180.0,4.0,64.0
4138,62.0,41.0,180.0,4.0,64.0
4139,67.0,54.0,90.0,4.0,64.0
4140,79.0,41.0,180.0,2.0,64.0
4141,67.0,52.0,90.0,4.0,64.0
4142,58.0,1.0,180.0,4.0,64.0
4143,61.0,39.0,180.0,4.0,64.0
4144,66.0,55.0,90.0,4.0,64.0
4145,78.0,40.0,180.0,2.0,64.0
4146,66.0,52.0,90.0,4.0,64.0
4147,62.0,41.0,180.0,4.0,64.0
4148,59.0,0.0,180.0,4.0,64.0
4149,67.0,51.0,90.0,4.0,64.0
4150,79.0,39.0,180.0,2.0,64.0
4151,67.0,52.0,90.0,4.0,64.0
4152,63.0,39.0,180.0,4.0,64.0
4153,60.0,1.0,180.0,4.0,64.0
4154,66.0,46.0,90.0,4.0,64.0
4155,78.0,3.0,90.0,2.0,64.0
4156,66.0,10.0,90.0,4.0,64.0
4157,77.0,46.0,60.0,2.0,64.0
4158,49.0,1.0,1350.0,4.0,64.0
4159,61.0,15.0,1350.0,4.0,64.0
4160,75.0,46.0,60.0,2.0,64.0
4161,73.0,42.0,60.0,2.0,64.0
4162,72.0,46.0,60.0,2.0,64.0
4163,73.0,42.0,60.0,2.0,64.0
4164,75.0,41.0,60.0,2.0,64.0
4165,77.0,40.0,60.0,2.0,64.0
4166,78.0,40.0,60.0,2.0,64.0
4167,80.0,43.0,60.0,2.0,64.0
4168,78.0,42.0,60.0,2.0,64.0
4169,77.0,44.0,60.0,2.0,64.0
4170,75.0,42.0,60.0,2.0,64.0
4171,77.0,44.0,60.0,2.0,64.0
4172,78.0,35.0,60.0,2.0,64.0
4173,80.0,41.0,30.0,2.0,64.0
4174,82.0,42.0,30.0,1.0,64.0
4175,83.0,41.0,30.0,1.0,64.0
4176,82.0,41.0,30.0,1.0,64.0
4177,80.0,49.0,30.0,2.0,64.0
4178,82.0,42.0,60.0,1.0,64.0
4179,80.0,43.0,60.0,2.0,64.0
4180,78.0,42.0,60.0,2.0,64.0
4181,77.0,46.0,60.0,2.0,64.0
4182,78.0,42.0,60.0,2.0,64.0
4183,77.0,42.0,60.0,2.0,64.0
4184,75.0,44.0,60.0,2.0,64.0
4185,73.0,45.0,60.0,2.0,64.0
4186,75.0,40.0,60.0,2.0,64.0
4187,73.0,45.0,60.0,2.0,64.0
4188,71.0,46.0,60.0,2.0,64.0
4189,70.0,27.0,60.0,4.0,64.0
4190,68.0,322.0,60.0,4.0,64.0
4191,42.0,60.0,2310.0,4.0,64.0
4192,54.0,50.0,360.0,4.0,64.0
4193,66.0,11.0,330.0,4.0,64.0
4194,70.0,10.0,330.0,4.0,64.0
4195,73.0,12.0,330.0,2.0,64.0
4196,78.0,13.0,330.0,2.0,64.0
4197,71.0,0.0,60.0,2.0,64.0
4198,59.0,46.0,60.0,4.0,64.0
4199,70.0,44.0,60.0,4.0,64.0
4200,58.0,0.0,60.0,4.0,64.0
4201,68.0,47.0,60.0,4.0,64.0
4202,56.0,0.0,60.0,4.0,64.0
4203,66.0,43.0,60.0,4.0,64.0
4204,54.0,1.0,60.0,4.0,64.0
4205,71.0,42.0,60.0,2.0,64.0
4206,59.0,1.0,60.0,4.0,64.0
4207,70.0,48.0,60.0,4.0,64.0
4208,58.0,0.0,60.0,4.0,64.0
4209,68.0,0.0,60.0,4.0,64.0
4210,56.0,46.0,60.0,4.0,64.0
4211,66.0,172.0,60.0,4.0,64.0
4212,54.0,0.0,60.0,4.0,64.0
4213,73.0,181.0,180.0,2.0,64.0
4214,61.0,1.0,180.0,4.0,64.0
4215,70.0,254.0,180.0,4.0,64.0
4216,58.0,1.0,180.0,4.0,64.0
4217,75.0,0.0,240.0,2.0,64.0
4218,63.0,125.0,240.0,4.0,64.0
4219,70.0,92.0,90.0,4.0,64.0
4220,58.0,0.0,90.0,4.0,64.0
4221,71.0,92.0,90.0,2.0,64.0
4222,59.0,0.0,90.0,4.0,64.0
4223,56.0,90.0,90.0,4.0,64.0
4224,68.0,0.0,90.0,4.0,64.0
4225,73.0,88.0,90.0,2.0,64.0
4226,61.0,1.0,90.0,4.0,64.0
4227,70.0,96.0,90.0,4.0,64.0
4228,58.0,0.0,90.0,4.0,64.0
4229,66.0,0.0,90.0,4.0,64.0
4230,54.0,90.0,90.0,4.0,64.0
4231,63.0,92.0,90.0,4.0,64.0
4232,51.0,0.0,90.0,4.0,64.0
4233,56.0,94.0,90.0,4.0,64.0
4234,68.0,0.0,90.0,4.0,64.0
4235,65.0,69.0,90.0,4.0,64.0
4236,53.0,0.0,90.0,4.0,64.0
4237,49.0,94.0,150.0,4.0,64.0
4238,61.0,25.0,60.0,4.0,64.0
4239,61.0,94.0,150.0,4.0,64.0
4240,49.0,92.0,150.0,4.0,64.0
4241,61.0,89.0,150.0,4.0,64.0
4242,49.0,15.0,150.0,4.0,64.0
4243,78.0,75.0,60.0,2.0,64.0
4244,61.0,21.0,150.0,4.0,64.0
4245,70.0,0.0,60.0,4.0,64.0
4246,70.0,1.0,90.0,4.0,64.0
4247,78.0,66.0,90.0,2.0,64.0
4248,49.0,23.0,150.0,4.0,64.0
4249,78.0,66.0,90.0,2.0,64.0
4250,70.0,1.0,90.0,4.0,64.0
4251,61.0,13.0,150.0,4.0,64.0
4252,78.0,77.0,60.0,2.0,64.0
4253,49.0,15.0,150.0,4.0,64.0
4254,70.0,0.0,60.0,4.0,64.0
4255,77.0,76.0,90.0,2.0,64.0
4256,61.0,92.0,150.0,4.0,64.0
4257,68.0,1.0,60.0,4.0,64.0
4258,77.0,0.0,240.0,2.0,64.0
4259,68.0,89.0,240.0,4.0,64.0
4260,49.0,92.0,150.0,4.0,64.0
4261,61.0,1.0,150.0,4.0,64.0
4262,49.0,13.0,150.0,4.0,64.0
4263,82.0,75.0,60.0,1.0,64.0
4264,61.0,23.0,150.0,4.0,64.0
4265,78.0,0.0,60.0,2.0,64.0
4266,82.0,0.0,90.0,1.0,64.0
4267,49.0,23.0,150.0,4.0,64.0
4268,78.0,66.0,90.0,2.0,64.0
4269,82.0,64.0,90.0,1.0,64.0
4270,78.0,1.0,90.0,2.0,64.0
4271,61.0,14.0,150.0,4.0,64.0
4272,82.0,71.0,60.0,1.0,64.0
4273,78.0,0.0,60.0,2.0,64.0
4274,49.0,15.0,150.0,4.0,64.0
4275,80.0,74.0,60.0,2.0,64.0
4276,61.0,92.0,150.0,4.0,64.0
4277,77.0,1.0,60.0,2.0,64.0
4278,77.0,0.0,240.0,2.0,64.0
4279,80.0,91.0,240.0,2.0,64.0
4280,49.0,91.0,150.0,4.0,64.0
4281,61.0,1.0,150.0,4.0,64.0
4282,49.0,15.0,150.0,4.0,64.0
4283,85.0,75.0,90.0,1.0,64.0
4284,61.0,22.0,150.0,4.0,64.0
4285,82.0,1.0,60.0,1.0,64.0
4286,49.0,23.0,150.0,4.0,64.0
4287,82.0,70.0,90.0,1.0,64.0
4288,85.0,0.0,90.0,1.0,64.0
4289,85.0,59.0,90.0,1.0,64.0
4290,82.0,1.0,90.0,1.0,64.0
4291,61.0,37.0,780.0,4.0,64.0
4292,49.0,23.0,1350.0,4.0,64.0
4293,83.0,44.0,60.0,1.0,64.0
4294,82.0,40.0,60.0,1.0,64.0
4295,83.0,42.0,60.0,1.0,64.0
4296,85.0,42.0,60.0,1.0,64.0
4297,87.0,40.0,60.0,1.0,64.0
4298,85.0,42.0,60.0,1.0,64.0
4299,83.0,45.0,60.0,1.0,64.0
4300,82.0,43.0,60.0,1.0,64.0
4301,80.0,43.0,60.0,2.0,64.0
4302,79.0,44.0,60.0,2.0,64.0
4303,80.0,36.0,60.0,2.0,64.0
4304,82.0,41.0,60.0,1.0,64.0
4305,83.0,41.0,60.0,1.0,64.0
4306,82.0,42.0,60.0,1.0,64.0
4307,80.0,44.0,60.0,2.0,64.0
4308,78.0,8.0,60.0,2.0,64.0
4309,77.0,43.0,60.0,2.0,64.0
4310,65.0,1.0,60.0,4.0,64.0
4311,75.0,42.0,60.0,2.0,64.0
4312,63.0,0.0,60.0,4.0,64.0
4313,77.0,40.0,60.0,2.0,64.0
4314,65.0,1.0,60.0,4.0,64.0
4315,66.0,44.0,60.0,4.0,64.0
4316,78.0,0.0,60.0,2.0,64.0
4317,80.0,38.0,60.0,2.0,64.0
4318,68.0,0.0,60.0,4.0,64.0
4319,78.0,42.0,60.0,2.0,64.0
4320,66.0,1.0,30.0,4.0,64.0
4321,77.0,44.0,60.0,2.0,64.0
4322,65.0,0.0,60.0,4.0,64.0
4323,75.0,43.0,60.0,2.0,64.0
4324,63.0,0.0,60.0,4.0,64.0
4325,73.0,44.0,60.0,2.0,64.0
4326,61.0,1.0,60.0,4.0,64.0
4327,72.0,41.0,60.0,2.0,64.0
4328,60.0,1.0,60.0,4.0,64.0
4329,73.0,45.0,60.0,2.0,64.0
4330,61.0,1.0,60.0,4.0,64.0
4331,75.0,38.0,60.0,2.0,64.0
4332,63.0,1.0,60.0,4.0,64.0
4333,73.0,44.0,60.0,2.0,64.0
4334,61.0,0.0,60.0,4.0,64.0
4335,71.0,46.0,60.0,2.0,64.0
4336,59.0,0.0,60.0,4.0,64.0
4337,70.0,22.0,60.0,4.0,64.0
4338,58.0,1.0,60.0,4.0,64.0
4339,68.0,73.0,60.0,4.0,64.0
4340,56.0,1.0,60.0,4.0,64.0
4341,66.0,92.0,360.0,4.0,64.0
4342,42.0,85.0,1410.0,4.0,64.0
4343,54.0,96.0,90.0,4.0,64.0
4344,54.0,94.0,90.0,4.0,64.0
4345,54.0,92.0,90.0,4.0,64.0
4346,54.0,1.0,90.0,4.0,64.0
4347,65.0,1.0,180.0,4.0,64.0
4348,68.0,93.0,180.0,4.0,64.0
4349,54.0,93.0,90.0,4.0,64.0
4350,54.0,0.0,90.0,4.0,64.0
4351,70.0,91.0,180.0,4.0,64.0
4352,64.0,0.0,180.0,4.0,64.0
4353,54.0,93.0,90.0,4.0,64.0
4354,54.0,1.0,90.0,4.0,64.0
4355,71.0,26.0,150.0,2.0,64.0
4356,63.0,0.0,180.0,4.0,64.0
4357,54.0,52.0,90.0,4.0,64.0
4358,54.0,10.0,90.0,4.0,64.0
4359,73.0,22.0,30.0,2.0,64.0
4360,75.0,87.0,30.0,2.0,64.0
4361,73.0,86.0,90.0,2.0,64.0
4362,65.0,8.0,180.0,4.0,64.0
4363,54.0,7.0,90.0,4.0,64.0
4364,71.0,87.0,90.0,2.0,64.0
4365,54.0,0.0,90.0,4.0,64.0
4366,66.0,93.0,360.0,4.0,64.0
4367,70.0,0.0,360.0,4.0,64.0
4368,54.0,94.0,90.0,4.0,64.0
4369,54.0,93.0,90.0,4.0,64.0
4370,54.0,8.0,90.0,4.0,64.0
4371,54.0,1.0,90.0,4.0,64.0
4372,70.0,95.0,360.0,4.0,64.0
4373,42.0,95.0,1440.0,4.0,64.0
4374,66.0,1.0,360.0,4.0,64.0
4375,54.0,96.0,90.0,4.0,64.0
4376,54.0,96.0,90.0,4.0,64.0
4377,54.0,95.0,90.0,4.0,64.0
4378,54.0,0.0,90.0,4.0,64.0
4379,71.0,6.0,180.0,2.0,64.0
4380,54.0,94.0,90.0,4.0,64.0
4381,68.0,88.0,180.0,4.0,64.0
4382,54.0,0.0,90.0,4.0,64.0
4383,70.0,91.0,180.0,4.0,64.0
4384,73.0,0.0,180.0,2.0,64.0
4385,54.0,94.0,90.0,4.0,64.0
4386,54.0,1.0,90.0,4.0,64.0
4387,71.0,0.0,390.0,2.0,64.0
4388,75.0,30.0,150.0,2.0,64.0
4389,54.0,54.0,90.0,4.0,64.0
4390,54.0,10.0,90.0,4.0,64.0
4391,77.0,20.0,30.0,2.0,64.0
4392,78.0,85.0,30.0,2.0,64.0
4393,77.0,87.0,90.0,2.0,64.0
4394,54.0,8.0,90.0,4.0,64.0
4395,75.0,86.0,90.0,2.0,64.0
4396,54.0,9.0,90.0,4.0,64.0
4397,73.0,7.0,390.0,2.0,64.0
4398,70.0,1.0,390.0,4.0,64.0
4399,54.0,96.0,90.0,4.0,64.0
4400,54.0,96.0,90.0,4.0,64.0
4401,54.0,8.0,90.0,4.0,64.0
4402,82.0,85.0,90.0,1.0,64.0
4403,54.0,0.0,90.0,4.0,64.0
4404,80.0,48.0,90.0,2.0,64.0
4405,47.0,37.0,210.0,4.0,64.0
4406,59.0,0.0,210.0,4.0,64.0
4407,90.0,48.0,90.0,1.0,64.0
4408,80.0,9.0,90.0,2.0,64.0
4409,90.0,48.0,90.0,1.0,64.0
4410,66.0,0.0,210.0,4.0,64.0
4411,80.0,48.0,90.0,2.0,64.0
4412,54.0,35.0,210.0,4.0,64.0
4413,90.0,48.0,90.0,1.0,64.0
4414,80.0,11.0,90.0,2.0,64.0
4415,90.0,48.0,90.0,1.0,64.0
4416,63.0,0.0,180.0,4.0,64.0
4417,80.0,46.0,90.0,2.0,64.0
4418,51.0,37.0,180.0,4.0,64.0
4419,90.0,48.0,90.0,1.0,64.0
4420,80.0,9.0,90.0,2.0,64.0
4421,90.0,48.0,90.0,1.0,64.0
4422,80.0,48.0,90.0,2.0,64.0
4423,47.0,38.0,210.0,4.0,64.0
4424,59.0,0.0,210.0,4.0,64.0
4425,90.0,48.0,90.0,1.0,64.0
4426,80.0,11.0,90.0,2.0,64.0
4427,90.0,47.0,90.0,1.0,64.0
4428,82.0,46.0,90.0,1.0,64.0
4429,61.0,37.0,210.0,4.0,64.0
4430,49.0,0.0,210.0,4.0,64.0
4431,90.0,48.0,90.0,1.0,64.0
4432,82.0,11.0,90.0,1.0,64.0
4433,90.0,48.0,90.0,1.0,64.0
4434,54.0,1.0,210.0,4.0,64.0
4435,66.0,37.0,210.0,4.0,64.0
4436,82.0,48.0,90.0,1.0,64.0
4437,90.0,48.0,90.0,1.0,64.0
4438,82.0,9.0,90.0,1.0,64.0
4439,90.0,44.0,90.0,1.0,64.0
4440,82.0,47.0,90.0,1.0,64.0
4441,64.0,0.0,180.0,4.0,64.0
4442,52.0,37.0,180.0,4.0,64.0
4443,90.0,46.0,90.0,1.0,64.0
4444,82.0,11.0,90.0,1.0,64.0
4445,90.0,48.0,90.0,1.0,64.0
4446,61.0,0.0,210.0,4.0,64.0
4447,82.0,48.0,90.0,1.0,64.0
4448,49.0,35.0,210.0,4.0,64.0
4449,90.0,48.0,90.0,1.0,64.0
4450,82.0,11.0,90.0,1.0,64.0
4451,90.0,46.0,90.0,1.0,64.0
4452,83.0,48.0,90.0,1.0,64.0
4453,51.0,37.0,180.0,4.0,64.0
4454,63.0,0.0,180.0,4.0,64.0
4455,90.0,46.0,90.0,1.0,64.0
4456,83.0,11.0,90.0,1.0,64.0
4457,90.0,46.0,90.0,1.0,64.0
4458,83.0,47.0,90.0,1.0,64.0
4459,59.0,1.0,180.0,4.0,64.0
4460,71.0,37.0,180.0,2.0,64.0
4461,90.0,48.0,90.0,1.0,64.0
4462,83.0,8.0,90.0,1.0,64.0
4463,90.0,44.0,90.0,1.0,64.0
4464,83.0,46.0,90.0,1.0,64.0
4465,54.0,1.0,180.0,4.0,64.0
4466,66.0,37.0,180.0,4.0,64.0
4467,90.0,46.0,90.0,1.0,64.0
4468,83.0,10.0,90.0,1.0,64.0
4469,90.0,46.0,90.0,1.0,64.0
4470,63.0,0.0,210.0,4.0,64.0
4471,83.0,46.0,90.0,1.0,64.0
4472,51.0,35.0,180.0,4.0,64.0
4473,90.0,48.0,90.0,1.0,64.0
4474,83.0,10.0,90.0,1.0,64.0
4475,90.0,46.0,90.0,1.0,64.0
4476,84.0,45.0,90.0,1.0,64.0
4477,78.0,1.0,90.0,2.0,64.0
4478,50.0,37.0,180.0,4.0,64.0
4479,62.0,0.0,180.0,4.0,64.0
4480,90.0,48.0,90.0,1.0,64.0
4481,84.0,10.0,90.0,1.0,64.0
4482,78.0,1.0,90.0,2.0,64.0
4483,90.0,48.0,90.0,1.0,64.0
4484,84.0,45.0,90.0,1.0,64.0
4485,78.0,1.0,90.0,2.0,64.0
4486,69.0,37.0,210.0,4.0,64.0
4487,57.0,1.0,180.0,4.0,64.0
4488,90.0,47.0,90.0,1.0,64.0
4489,84.0,10.0,90.0,1.0,64.0
4490,78.0,0.0,90.0,2.0,64.0
4491,90.0,47.0,90.0,1.0,64.0
4492,84.0,0.0,90.0,1.0,64.0
4493,66.0,0.0,210.0,4.0,64.0
4494,78.0,47.0,90.0,2.0,64.0
4495,54.0,37.0,210.0,4.0,64.0
4496,90.0,48.0,90.0,1.0,64.0
4497,84.0,11.0,90.0,1.0,64.0
4498,78.0,0.0,90.0,2.0,64.0
4499,90.0,48.0,90.0,1.0,64.0
4500,84.0,0.0,90.0,1.0,64.0
4501,62.0,1.0,180.0,4.0,64.0
4502,78.0,48.0,90.0,2.0,64.0
4503,50.0,90.0,210.0,4.0,64.0
4504,90.0,42.0,90.0,1.0,64.0
4505,84.0,24.0,90.0,1.0,64.0
4506,78.0,0.0,90.0,2.0,64.0
4507,90.0,0.0,30.0,1.0,64.0
4508,61.0,51.0,660.0,4.0,64.0
4509,80.0,9.0,240.0,2.0,64.0
4510,85.0,8.0,240.0,1.0,64.0
4511,89.0,43.0,240.0,1.0,64.0
4512,73.0,45.0,60.0,2.0,64.0
4513,72.0,45.0,60.0,2.0,64.0
4514,73.0,43.0,60.0,2.0,64.0
4515,75.0,20.0,60.0,2.0,64.0
4516,73.0,53.0,90.0,2.0,64.0
4517,85.0,33.0,90.0,1.0,64.0
4518,70.0,1.0,90.0,4.0,64.0
4519,73.0,51.0,90.0,2.0,64.0
4520,68.0,34.0,90.0,4.0,64.0
4521,83.0,0.0,90.0,1.0,64.0
4522,73.0,52.0,90.0,2.0,64.0
4523,82.0,32.0,90.0,1.0,64.0
4524,66.0,1.0,90.0,4.0,64.0
4525,73.0,52.0,90.0,2.0,64.0
4526,65.0,35.0,90.0,4.0,64.0
4527,80.0,0.0,90.0,2.0,64.0
4528,73.0,4.0,90.0,2.0,64.0
4529,78.0,35.0,90.0,2.0,64.0
4530,63.0,1.0,90.0,4.0,64.0
4531,73.0,50.0,90.0,2.0,64.0
4532,77.0,33.0,90.0,2.0,64.0
4533,61.0,1.0,90.0,4.0,64.0
4534,73.0,55.0,90.0,2.0,64.0
4535,63.0,33.0,90.0,4.0,64.0
4536,78.0,0.0,90.0,2.0,64.0
4537,73.0,51.0,90.0,2.0,64.0
4538,80.0,35.0,90.0,2.0,64.0
4539,65.0,1.0,90.0,4.0,64.0
4540,73.0,53.0,90.0,2.0,64.0
4541,82.0,33.0,90.0,1.0,64.0
4542,66.0,0.0,90.0,4.0,64.0
4543,73.0,9.0,90.0,2.0,64.0
4544,68.0,31.0,90.0,4.0,64.0
4545,85.0,39.0,60.0,1.0,64.0
4546,83.0,1.0,60.0,1.0,64.0
4547,73.0,10.0,90.0,2.0,64.0
4548,82.0,42.0,60.0,1.0,64.0
4549,65.0,33.0,90.0,4.0,64.0
4550,80.0,0.0,60.0,2.0,64.0
4551,73.0,9.0,90.0,2.0,64.0
4552,83.0,41.0,60.0,1.0,64.0
4553,66.0,33.0,90.0,4.0,64.0
4554,82.0,1.0,60.0,1.0,64.0
4555,73.0,7.0,90.0,2.0,64.0
4556,80.0,35.0,60.0,2.0,64.0
4557,63.0,92.0,90.0,4.0,64.0
4558,78.0,16.0,30.0,2.0,64.0
4559,73.0,1.0,30.0,2.0,64.0
4560,61.0,50.0,660.0,4.0,64.0
4561,77.0,11.0,240.0,2.0,64.0
4562,80.0,8.0,240.0,2.0,64.0
4563,85.0,16.0,240.0,1.0,64.0
4564,73.0,45.0,60.0,2.0,64.0
4565,72.0,42.0,60.0,2.0,64.0
4566,73.0,44.0,60.0,2.0,64.0
4567,75.0,8.0,60.0,2.0,64.0
4568,73.0,77.0,60.0,2.0,64.0
4569,85.0,9.0,90.0,1.0,64.0
4570,70.0,32.0,90.0,4.0,64.0
4571,73.0,53.0,90.0,2.0,64.0
4572,68.0,1.0,90.0,4.0,64.0
4573,83.0,35.0,90.0,1.0,64.0
4574,73.0,52.0,90.0,2.0,64.0
4575,82.0,31.0,90.0,1.0,64.0
4576,66.0,1.0,90.0,4.0,64.0
4577,73.0,53.0,90.0,2.0,64.0
4578,80.0,34.0,90.0,2.0,64.0
4579,65.0,0.0,90.0,4.0,64.0
4580,73.0,3.0,90.0,2.0,64.0
4581,78.0,35.0,90.0,2.0,64.0
4582,63.0,1.0,90.0,4.0,64.0
4583,73.0,53.0,90.0,2.0,64.0
4584,77.0,35.0,90.0,2.0,64.0
4585,61.0,0.0,90.0,4.0,64.0
4586,73.0,51.0,90.0,2.0,64.0
4587,78.0,36.0,90.0,2.0,64.0
4588,63.0,0.0,90.0,4.0,64.0
4589,73.0,51.0,90.0,2.0,64.0
4590,80.0,0.0,90.0,2.0,64.0
4591,65.0,33.0,90.0,4.0,64.0
4592,73.0,51.0,90.0,2.0,64.0
4593,82.0,33.0,90.0,1.0,64.0
4594,66.0,0.0,90.0,4.0,64.0
4595,73.0,11.0,90.0,2.0,64.0
4596,68.0,31.0,90.0,4.0,64.0
4597,85.0,41.0,60.0,1.0,64.0
4598,83.0,1.0,60.0,1.0,64.0
4599,73.0,11.0,90.0,2.0,64.0
4600,82.0,41.0,60.0,1.0,64.0
4601,65.0,35.0,90.0,4.0,64.0
4602,80.0,0.0,60.0,2.0,64.0
4603,73.0,9.0,90.0,2.0,64.0
4604,83.0,42.0,60.0,1.0,64.0
4605,66.0,35.0,90.0,4.0,64.0
4606,82.0,0.0,60.0,1.0,64.0
4607,73.0,9.0,90.0,2.0,64.0
4608,80.0,34.0,60.0,2.0,64.0
4609,63.0,172.0,90.0,4.0,64.0
4610,73.0,1.0,30.0,2.0,64.0
4611,78.0,0.0,30.0,2.0,64.0
4612,77.0,7.0,180.0,2.0,64.0
4613,61.0,1.0,180.0,4.0,64.0
4614,80.0,12.0,150.0,2.0,64.0
4615,85.0,48.0,150.0,1.0,64.0
4616,68.0,1.0,180.0,4.0,64.0
4617,80.0,44.0,60.0,2.0,64.0
4618,61.0,14.0,180.0,4.0,64.0
4619,65.0,0.0,180.0,4.0,64.0
4620,77.0,48.0,60.0,2.0,64.0
4621,80.0,30.0,60.0,2.0,64.0
4622,77.0,349.0,60.0,2.0,64.0
4623,68.0,44.0,600.0,4.0,64.0
4624,73.0,107.0,360.0,2.0,64.0
4625,61.0,37.0,1020.0,4.0,64.0
4626,65.0,90.0,840.0,4.0,64.0
4627,73.0,102.0,120.0,2.0,64.0
4628,78.0,45.0,90.0,2.0,64.0
4629,77.0,93.0,90.0,2.0,64.0
4630,80.0,89.0,90.0,2.0,64.0
4631,78.0,3.0,90.0,2.0,64.0
4632,77.0,93.0,90.0,2.0,64.0
4633,75.0,2.0,90.0,2.0,64.0
4634,68.0,30.0,90.0,4.0,64.0
4635,77.0,27.0,30.0,2.0,64.0
4636,65.0,1.0,90.0,4.0,64.0
4637,75.0,27.0,30.0,2.0,64.0
4638,77.0,7.0,30.0,2.0,64.0
4639,75.0,61.0,60.0,2.0,64.0
4640,73.0,4.0,90.0,2.0,64.0
4641,68.0,99.0,90.0,4.0,64.0
4642,65.0,1.0,90.0,4.0,64.0
4643,68.0,95.0,90.0,4.0,64.0
4644,73.0,54.0,240.0,2.0,64.0
4645,65.0,1.0,90.0,4.0,64.0
4646,68.0,43.0,90.0,4.0,64.0
4647,65.0,1.0,90.0,4.0,64.0
4648,68.0,4.0,90.0,4.0,64.0
4649,65.0,1.0,90.0,4.0,64.0
4650,75.0,24.0,20.0,2.0,64.0
4651,68.0,95.0,90.0,4.0,64.0
4652,75.0,25.0,20.0,2.0,64.0
4653,65.0,1.0,90.0,4.0,64.0
4654,73.0,40.0,20.0,2.0,64.0
4655,72.0,2.0,30.0,2.0,64.0
4656,73.0,85.0,120.0,2.0,64.0
4657,68.0,23.0,90.0,4.0,64.0
4658,65.0,1.0,90.0,4.0,64.0
4659,68.0,82.0,90.0,4.0,64.0
4660,75.0,0.0,90.0,2.0,64.0
4661,65.0,1.0,90.0,4.0,64.0
4662,73.0,92.0,90.0,2.0,64.0
4663,66.0,4.0,90.0,4.0,64.0
4664,63.0,1.0,90.0,4.0,64.0
4665,71.0,87.0,180.0,2.0,64.0
4666,66.0,96.0,90.0,4.0,64.0
4667,63.0,0.0,90.0,4.0,64.0
4668,63.0,1.0,90.0,4.0,64.0
4669,66.0,8.0,90.0,4.0,64.0
4670,75.0,75.0,120.0,2.0,64.0
4671,66.0,17.0,90.0,4.0,64.0
4672,63.0,0.0,90.0,4.0,64.0
4673,71.0,87.0,90.0,2.0,64.0
4674,61.0,9.0,90.0,4.0,64.0
4675,65.0,0.0,90.0,4.0,64.0
4676,70.0,5.0,180.0,4.0,64.0
4677,65.0,92.0,90.0,4.0,64.0
4678,61.0,1.0,90.0,4.0,64.0
4679,65.0,98.0,90.0,4.0,64.0
4680,61.0,0.0,90.0,4.0,64.0
4681,73.0,42.0,90.0,2.0,64.0
4682,61.0,14.0,90.0,4.0,64.0
4683,65.0,0.0,90.0,4.0,64.0
4684,70.0,40.0,60.0,4.0,64.0
4685,63.0,8.0,90.0,4.0,64.0
4686,59.0,0.0,90.0,4.0,64.0
4687,68.0,50.0,60.0,4.0,64.0
4688,63.0,0.0,90.0,4.0,64.0
4689,71.0,36.0,60.0,2.0,64.0
4690,59.0,6.0,90.0,4.0,64.0
4691,70.0,46.0,30.0,4.0,64.0
4692,73.0,40.0,60.0,2.0,64.0
4693,63.0,8.0,90.0,4.0,64.0
4694,59.0,0.0,90.0,4.0,64.0
4695,71.0,46.0,60.0,2.0,64.0
4696,70.0,40.0,60.0,4.0,64.0
4697,63.0,8.0,90.0,4.0,64.0
4698,59.0,0.0,90.0,4.0,64.0
4699,68.0,47.0,60.0,4.0,64.0
4700,61.0,75.0,1740.0,4.0,64.0
4701,66.0,47.0,60.0,4.0,64.0
4702,58.0,1.0,1740.0,4.0,64.0
4703,68.0,45.0,60.0,4.0,64.0
4704,66.0,49.0,60.0,4.0,64.0
4705,65.0,47.0,60.0,4.0,64.0
4706,66.0,49.0,60.0,4.0,64.0
4707,68.0,49.0,60.0,4.0,64.0
4708,70.0,47.0,60.0,3.0,64.0
4709,71.0,47.0,60.0,3.0,64.0
4710,72.0,45.0,60.0,3.0,64.0
4711,73.0,45.0,60.0,3.0,64.0
4712,75.0,43.0,60.0,3.0,64.0
4713,73.0,45.0,30.0,3.0,64.0
4714,77.0,43.0,30.0,3.0,64.0
4715,75.0,44.0,30.0,3.0,64.0
4716,78.0,43.0,30.0,3.0,64.0
4717,77.0,44.0,30.0,3.0,64.0
4718,80.0,42.0,30.0,2.0,64.0
4719,78.0,43.0,30.0,3.0,64.0
4720,82.0,42.0,30.0,1.0,64.0
4721,80.0,45.0,30.0,2.0,64.0
4722,83.0,45.0,30.0,1.0,64.0
4723,82.0,45.0,60.0,1.0,64.0
4724,85.0,48.0,60.0,1.0,64.0
4725,83.0,47.0,60.0,1.0,64.0
4726,84.0,46.0,60.0,1.0,64.0
4727,85.0,46.0,60.0,1.0,64.0
4728,87.0,44.0,60.0,1.0,64.0
4729,85.0,46.0,30.0,1.0,64.0
4730,89.0,45.0,60.0,1.0,64.0
4731,87.0,43.0,60.0,1.0,64.0
4732,90.0,46.0,30.0,1.0,64.0
4733,89.0,91.0,60.0,1.0,64.0
4734,92.0,91.0,90.0,1.0,64.0
4735,90.0,91.0,90.0,1.0,64.0
4736,89.0,16.0,90.0,1.0,64.0
4737,87.0,87.0,90.0,1.0,64.0
4738,84.0,50.0,90.0,1.0,64.0
4739,80.0,11.0,90.0,3.0,64.0
4740,77.0,0.0,90.0,3.0,64.0
4741,87.0,35.0,60.0,1.0,64.0
4742,77.0,1.0,90.0,3.0,64.0
4743,80.0,93.0,90.0,3.0,64.0
4744,85.0,0.0,30.0,1.0,64.0
4745,85.0,40.0,240.0,1.0,64.0
4746,80.0,96.0,90.0,3.0,64.0
4747,77.0,0.0,90.0,3.0,64.0
4748,80.0,0.0,90.0,3.0,64.0
4749,77.0,52.0,90.0,3.0,64.0
4750,80.0,16.0,90.0,3.0,64.0
4751,77.0,1.0,90.0,3.0,64.0
4752,87.0,44.0,60.0,1.0,64.0
4753,85.0,35.0,60.0,1.0,64.0
4754,80.0,13.0,90.0,3.0,64.0
4755,77.0,0.0,90.0,3.0,64.0
4756,84.0,81.0,60.0,1.0,64.0
4757,80.0,0.0,90.0,3.0,64.0
4758,85.0,95.0,90.0,1.0,64.0
4759,77.0,1.0,90.0,3.0,64.0
4760,85.0,78.0,180.0,1.0,64.0
4761,80.0,92.0,90.0,3.0,64.0
4762,77.0,0.0,90.0,3.0,64.0
4763,78.0,13.0,90.0,3.0,64.0
4764,75.0,1.0,90.0,3.0,64.0
4765,82.0,82.0,180.0,1.0,64.0
4766,78.0,95.0,90.0,3.0,64.0
4767,75.0,1.0,90.0,3.0,64.0
4768,78.0,11.0,90.0,3.0,64.0
4769,75.0,1.0,90.0,3.0,64.0
4770,83.0,85.0,180.0,1.0,64.0
4771,75.0,1.0,90.0,3.0,64.0
4772,78.0,93.0,90.0,3.0,64.0
4773,77.0,10.0,90.0,3.0,64.0
4774,73.0,1.0,90.0,3.0,64.0
4775,81.0,83.0,180.0,2.0,64.0
4776,77.0,94.0,90.0,3.0,64.0
4777,73.0,0.0,90.0,3.0,64.0
4778,77.0,0.0,90.0,3.0,64.0
4779,73.0,11.0,90.0,3.0,64.0
4780,82.0,78.0,180.0,1.0,64.0
4781,77.0,90.0,90.0,3.0,64.0
4782,73.0,0.0,90.0,3.0,64.0
4783,71.0,11.0,90.0,3.0,64.0
4784,75.0,0.0,90.0,3.0,64.0
4785,79.0,81.0,180.0,2.0,64.0
4786,75.0,91.0,90.0,3.0,64.0
4787,71.0,1.0,90.0,3.0,64.0
4788,75.0,10.0,90.0,3.0,64.0
4789,71.0,1.0,90.0,3.0,64.0
4790,71.0,1.0,90.0,3.0,64.0
4791,75.0,53.0,90.0,3.0,64.0
4792,80.0,53.0,150.0,2.0,64.0
4793,70.0,8.0,360.0,3.0,64.0
4794,73.0,0.0,360.0,3.0,64.0
4795,77.0,44.0,60.0,2.0,64.0
4796,80.0,40.0,60.0,2.0,64.0
4797,78.0,46.0,60.0,2.0,64.0
4798,87.0,44.0,60.0,1.0,64.0
4799,85.0,46.0,60.0,1.0,64.0
4800,83.0,39.0,60.0,1.0,64.0
4801,82.0,94.0,60.0,1.0,64.0
4802,59.0,0.0,90.0,4.0,64.0
4803,80.0,1.0,90.0,2.0,64.0
4804,47.0,34.0,90.0,4.0,64.0
4805,90.0,59.0,90.0,1.0,64.0
4806,79.0,1.0,90.0,2.0,64.0
4807,58.0,35.0,90.0,4.0,64.0
4808,46.0,0.0,90.0,4.0,64.0
4809,90.0,57.0,90.0,1.0,64.0
4810,80.0,1.0,90.0,2.0,64.0
4811,59.0,33.0,90.0,4.0,64.0
4812,47.0,1.0,90.0,4.0,64.0
4813,90.0,57.0,90.0,1.0,64.0
4814,79.0,1.0,90.0,2.0,64.0
4815,46.0,1.0,90.0,4.0,64.0
4816,58.0,33.0,90.0,4.0,64.0
4817,90.0,8.0,90.0,1.0,64.0
4818,80.0,46.0,60.0,2.0,64.0
4819,47.0,13.0,360.0,4.0,64.0
4820,59.0,0.0,360.0,4.0,64.0
4821,83.0,42.0,60.0,1.0,64.0
4822,87.0,47.0,60.0,1.0,64.0
4823,85.0,42.0,60.0,1.0,64.0
4824,88.0,42.0,60.0,1.0,64.0
4825,87.0,44.0,60.0,1.0,64.0
4826,85.0,31.0,60.0,1.0,64.0
4827,83.0,94.0,60.0,1.0,64.0
4828,61.0,35.0,90.0,4.0,64.0
4829,82.0,2.0,90.0,1.0,64.0
4830,49.0,1.0,90.0,4.0,64.0
4831,90.0,56.0,90.0,1.0,64.0
4832,81.0,2.0,90.0,2.0,64.0
4833,60.0,33.0,90.0,4.0,64.0
4834,48.0,1.0,90.0,4.0,64.0
4835,90.0,57.0,90.0,1.0,64.0
4836,61.0,33.0,120.0,4.0,64.0
4837,82.0,3.0,90.0,1.0,64.0
4838,49.0,1.0,90.0,4.0,64.0
4839,90.0,55.0,90.0,1.0,64.0
4840,60.0,0.0,90.0,4.0,64.0
4841,81.0,4.0,90.0,2.0,64.0
4842,48.0,33.0,90.0,4.0,64.0
4843,90.0,10.0,90.0,1.0,64.0
4844,82.0,44.0,60.0,1.0,64.0
4845,49.0,1.0,360.0,4.0,64.0
4846,61.0,15.0,360.0,4.0,64.0
4847,85.0,45.0,60.0,1.0,64.0
4848,88.0,42.0,60.0,1.0,64.0
4849,87.0,45.0,60.0,1.0,64.0
4850,90.0,44.0,60.0,1.0,64.0
4851,88.0,46.0,60.0,1.0,64.0
4852,87.0,30.0,60.0,1.0,64.0
4853,85.0,94.0,60.0,1.0,64.0
4854,83.0,2.0,90.0,1.0,64.0
4855,51.0,33.0,90.0,4.0,64.0
4856,63.0,0.0,90.0,4.0,64.0
4857,90.0,57.0,90.0,1.0,64.0
4858,82.0,4.0,90.0,1.0,64.0
4859,62.0,34.0,90.0,4.0,64.0
4860,50.0,0.0,90.0,4.0,64.0
4861,90.0,56.0,90.0,1.0,64.0
4862,51.0,1.0,90.0,4.0,64.0
4863,63.0,33.0,90.0,4.0,64.0
4864,83.0,2.0,90.0,1.0,64.0
4865,90.0,56.0,90.0,1.0,64.0
4866,82.0,1.0,90.0,1.0,64.0
4867,62.0,34.0,90.0,4.0,64.0
4868,50.0,0.0,90.0,4.0,64.0
4869,90.0,9.0,90.0,1.0,64.0
4870,83.0,42.0,60.0,1.0,64.0
4871,51.0,14.0,360.0,4.0,64.0
4872,63.0,8.0,330.0,4.0,64.0
4873,87.0,44.0,60.0,1.0,64.0
4874,90.0,46.0,60.0,1.0,64.0
4875,89.0,43.0,60.0,1.0,64.0
4876,90.0,46.0,60.0,1.0,64.0
4877,89.0,44.0,60.0,1.0,64.0
4878,87.0,23.0,60.0,1.0,64.0
4879,85.0,82.0,60.0,1.0,64.0
4880,84.0,39.0,90.0,1.0,64.0
4881,51.0,23.0,1140.0,4.0,64.0
4882,62.0,6.0,90.0,4.0,64.0
4883,66.0,43.0,90.0,4.0,64.0
4884,78.0,42.0,180.0,2.0,64.0
4885,69.0,66.0,90.0,4.0,64.0
4886,72.0,21.0,120.0,2.0,64.0
4887,62.0,1.0,90.0,4.0,64.0
4888,66.0,68.0,90.0,4.0,64.0
4889,81.0,20.0,180.0,2.0,64.0
4890,69.0,42.0,120.0,4.0,64.0
4891,72.0,27.0,120.0,2.0,64.0
4892,62.0,44.0,120.0,4.0,64.0
4893,66.0,45.0,120.0,4.0,64.0
4894,80.0,23.0,180.0,2.0,64.0
4895,69.0,46.0,120.0,4.0,64.0
4896,72.0,22.0,120.0,2.0,64.0
4897,62.0,28.0,120.0,4.0,64.0
4898,66.0,21.0,120.0,4.0,64.0
4899,78.0,86.0,90.0,2.0,64.0
4900,69.0,16.0,60.0,4.0,64.0
4901,72.0,4.0,30.0,2.0,64.0
4902,77.0,2.0,210.0,2.0,64.0
4903,61.0,92.0,90.0,4.0,64.0
4904,73.0,60.0,210.0,2.0,64.0
4905,61.0,30.0,90.0,4.0,64.0
4906,65.0,94.0,90.0,4.0,64.0
4907,61.0,0.0,90.0,4.0,64.0
4908,73.0,68.0,90.0,2.0,64.0
4909,65.0,0.0,90.0,4.0,64.0
4910,61.0,1.0,90.0,4.0,64.0
4911,74.0,86.0,90.0,2.0,64.0
4912,70.0,4.0,180.0,4.0,64.0
4913,67.0,4.0,90.0,4.0,64.0
4914,61.0,0.0,90.0,4.0,64.0
4915,75.0,8.0,180.0,2.0,64.0
4916,61.0,85.0,90.0,4.0,64.0
4917,67.0,0.0,90.0,4.0,64.0
4918,71.0,92.0,180.0,2.0,64.0
4919,68.0,87.0,90.0,4.0,64.0
4920,61.0,0.0,90.0,4.0,64.0
4921,75.0,6.0,90.0,2.0,64.0
4922,68.0,1.0,90.0,4.0,64.0
4923,61.0,0.0,90.0,4.0,64.0
4924,65.0,6.0,90.0,4.0,64.0
4925,72.0,84.0,90.0,2.0,64.0
4926,61.0,1.0,90.0,4.0,64.0
4927,73.0,0.0,180.0,2.0,64.0
4928,65.0,92.0,90.0,4.0,64.0
4929,61.0,1.0,90.0,4.0,64.0
4930,70.0,27.0,270.0,4.0,64.0
4931,61.0,1.0,90.0,4.0,64.0
4932,66.0,94.0,90.0,4.0,64.0
4933,73.0,91.0,90.0,2.0,64.0
4934,66.0,2.0,90.0,4.0,64.0
4935,61.0,0.0,90.0,4.0,64.0
4936,78.0,62.0,120.0,2.0,64.0
4937,63.0,4.0,90.0,4.0,64.0
4938,61.0,0.0,90.0,4.0,64.0
4939,71.0,1.0,180.0,2.0,64.0
4940,61.0,93.0,90.0,4.0,64.0
4941,63.0,0.0,90.0,4.0,64.0
4942,68.0,92.0,90.0,4.0,64.0
4943,65.0,0.0,90.0,4.0,64.0
4944,61.0,0.0,90.0,4.0,64.0
4945,65.0,9.0,90.0,4.0,64.0
4946,71.0,85.0,90.0,2.0,64.0
4947,61.0,0.0,90.0,4.0,64.0
4948,69.0,88.0,90.0,4.0,64.0
4949,66.0,4.0,90.0,4.0,64.0
4950,61.0,0.0,90.0,4.0,64.0
4951,70.0,88.0,90.0,4.0,64.0
4952,66.0,6.0,90.0,4.0,64.0
4953,61.0,0.0,90.0,4.0,64.0
4954,70.0,88.0,90.0,4.0,64.0
4955,61.0,5.0,90.0,4.0,64.0
4956,85.0,55.0,90.0,1.0,64.0
4957,70.0,3.0,90.0,4.0,64.0
4958,61.0,5.0,90.0,4.0,64.0
4959,87.0,48.0,60.0,1.0,64.0
4960,61.0,25.0,1500.0,4.0,64.0
4961,71.0,17.0,360.0,2.0,64.0
4962,89.0,46.0,60.0,1.0,64.0
4963,90.0,44.0,60.0,1.0,64.0
4964,89.0,44.0,60.0,1.0,64.0
4965,92.0,44.0,60.0,1.0,64.0
4966,90.0,45.0,60.0,1.0,64.0
4967,89.0,28.0,60.0,1.0,64.0
4968,87.0,44.0,60.0,1.0,64.0
4969,85.0,46.0,60.0,1.0,64.0
4970,70.0,4.0,180.0,4.0,64.0
4971,89.0,45.0,60.0,1.0,64.0
4972,90.0,41.0,60.0,1.0,64.0
4973,89.0,46.0,60.0,1.0,64.0
4974,66.0,2.0,180.0,4.0,64.0
4975,90.0,45.0,60.0,1.0,64.0
4976,85.0,44.0,60.0,1.0,64.0
4977,87.0,43.0,60.0,1.0,64.0
4978,82.0,44.0,60.0,1.0,64.0
4979,83.0,44.0,60.0,1.0,64.0
4980,68.0,6.0,180.0,4.0,64.0
4981,85.0,45.0,60.0,1.0,64.0
4982,87.0,37.0,60.0,1.0,64.0
4983,85.0,46.0,60.0,1.0,64.0
4984,89.0,44.0,60.0,1.0,64.0
4985,65.0,7.0,360.0,4.0,64.0
4986,87.0,44.0,60.0,1.0,64.0
4987,85.0,46.0,60.0,1.0,64.0
4988,83.0,44.0,60.0,1.0,64.0
4989,82.0,45.0,60.0,1.0,64.0
4990,85.0,46.0,60.0,1.0,64.0
4991,90.0,38.0,60.0,1.0,64.0
4992,89.0,170.0,60.0,1.0,64.0
4993,90.0,4.0,180.0,1.0,64.0
4994,85.0,19.0,180.0,1.0,64.0
4995,82.0,4.0,180.0,1.0,64.0
4996,54.0,41.0,90.0,4.0,64.0
4997,42.0,0.0,90.0,4.0,64.0
4998,78.0,46.0,180.0,2.0,64.0
4999,90.0,6.0,180.0,1.0,64.0
5000,58.0,38.0,90.0,4.0,64.0
5001,46.0,0.0,90.0,4.0,64.0
5002,85.0,47.0,180.0,1.0,64.0
5003,61.0,38.0,90.0,4.0,64.0
5004,82.0,40.0,180.0,1.0,64.0
5005,49.0,1.0,90.0,4.0,64.0
5006,78.0,16.0,180.0,2.0,64.0
5007,90.0,58.0,180.0,1.0,64.0
5008,54.0,6.0,360.0,4.0,64.0
5009,66.0,1.0,360.0,4.0,64.0
5010,85.0,2.0,120.0,1.0,64.0
5011,82.0,30.0,60.0,1.0,64.0
5012,78.0,48.0,360.0,2.0,64.0
5013,87.0,44.0,60.0,1.0,64.0
5014,89.0,44.0,60.0,1.0,64.0
5015,90.0,38.0,60.0,1.0,64.0
5016,89.0,120.0,60.0,1.0,64.0
5017,90.0,6.0,180.0,1.0,64.0
5018,87.0,46.0,180.0,1.0,64.0
5019,83.0,4.0,180.0,1.0,64.0
5020,59.0,38.0,90.0,4.0,64.0
5021,47.0,1.0,90.0,4.0,64.0
5022,78.0,48.0,180.0,2.0,64.0
5023,90.0,4.0,180.0,1.0,64.0
5024,63.0,36.0,90.0,4.0,64.0
5025,51.0,1.0,90.0,4.0,64.0
5026,87.0,44.0,180.0,1.0,64.0
5027,83.0,41.0,180.0,1.0,64.0
5028,54.0,41.0,90.0,4.0,64.0
5029,66.0,0.0,90.0,4.0,64.0
5030,78.0,45.0,180.0,2.0,64.0
5031,71.0,1.0,360.0,2.0,64.0
5032,90.0,5.0,180.0,1.0,64.0
5033,59.0,2.0,180.0,4.0,64.0
5034,87.0,8.0,120.0,1.0,64.0
5035,83.0,77.0,90.0,1.0,64.0
5036,78.0,6.0,240.0,2.0,64.0
5037,85.0,26.0,150.0,1.0,64.0
5038,82.0,1.0,150.0,1.0,64.0
5039,61.0,57.0,90.0,4.0,64.0
5040,49.0,0.0,90.0,4.0,64.0
5041,61.0,7.0,90.0,4.0,64.0
5042,49.0,0.0,90.0,4.0,64.0
5043,87.0,0.0,60.0,1.0,64.0
5044,83.0,19.0,30.0,1.0,64.0
5045,83.0,8.0,20.0,1.0,64.0
5046,80.0,74.0,30.0,2.0,64.0
5047,82.0,0.0,240.0,1.0,64.0
5048,61.0,90.0,90.0,4.0,64.0
5049,78.0,23.0,240.0,2.0,64.0
5050,49.0,1.0,90.0,4.0,64.0
5051,61.0,69.0,90.0,4.0,64.0
5052,49.0,0.0,90.0,4.0,64.0
5053,61.0,0.0,90.0,4.0,64.0
5054,49.0,95.0,90.0,4.0,64.0
5055,85.0,91.0,90.0,1.0,64.0
5056,82.0,0.0,90.0,1.0,64.0
5057,61.0,7.0,90.0,4.0,64.0
5058,49.0,1.0,90.0,4.0,64.0
5059,83.0,95.0,90.0,1.0,64.0
5060,80.0,0.0,90.0,2.0,64.0
5061,61.0,7.0,90.0,4.0,64.0
5062,49.0,0.0,90.0,4.0,64.0
5063,61.0,100.0,300.0,4.0,64.0
5064,77.0,56.0,390.0,2.0,64.0
5065,80.0,51.0,90.0,2.0,64.0
5066,49.0,2.0,300.0,4.0,64.0
5067,82.0,45.0,60.0,1.0,64.0
5068,85.0,46.0,60.0,1.0,64.0
5069,90.0,47.0,60.0,1.0,64.0
5070,89.0,10.0,60.0,1.0,64.0
5071,90.0,4.0,180.0,1.0,64.0
5072,85.0,45.0,180.0,1.0,64.0
5073,82.0,4.0,180.0,1.0,64.0
5074,54.0,40.0,90.0,4.0,64.0
5075,42.0,0.0,90.0,4.0,64.0
5076,78.0,48.0,180.0,2.0,64.0
5077,90.0,5.0,180.0,1.0,64.0
5078,46.0,36.0,90.0,4.0,64.0
5079,58.0,0.0,90.0,4.0,64.0
5080,85.0,45.0,180.0,1.0,64.0
5081,82.0,42.0,180.0,1.0,64.0
5082,61.0,39.0,90.0,4.0,64.0
5083,49.0,0.0,90.0,4.0,64.0
5084,78.0,48.0,180.0,2.0,64.0
5085,90.0,4.0,180.0,1.0,64.0
5086,54.0,14.0,360.0,4.0,64.0
5087,66.0,0.0,360.0,4.0,64.0
5088,85.0,6.0,120.0,1.0,64.0
5089,82.0,46.0,90.0,1.0,64.0
5090,78.0,48.0,360.0,2.0,64.0
5091,87.0,43.0,60.0,1.0,64.0
5092,89.0,46.0,60.0,1.0,64.0
5093,90.0,31.0,60.0,1.0,64.0
5094,89.0,121.0,60.0,1.0,64.0
5095,90.0,4.0,180.0,1.0,64.0
5096,87.0,44.0,180.0,1.0,64.0
5097,83.0,5.0,180.0,1.0,64.0
5098,59.0,40.0,90.0,4.0,64.0
5099,47.0,0.0,90.0,4.0,64.0
5100,78.0,46.0,180.0,2.0,64.0
5101,63.0,0.0,90.0,4.0,64.0
5102,90.0,5.0,180.0,1.0,64.0
5103,51.0,38.0,90.0,4.0,64.0
5104,87.0,44.0,180.0,1.0,64.0
5105,83.0,43.0,180.0,1.0,64.0
5106,66.0,40.0,90.0,4.0,64.0
5107,54.0,0.0,90.0,4.0,64.0
5108,78.0,44.0,180.0,2.0,64.0
5109,71.0,9.0,390.0,2.0,64.0
5110,59.0,1.0,180.0,4.0,64.0
5111,90.0,6.0,180.0,1.0,64.0
5112,87.0,9.0,120.0,1.0,64.0
5113,83.0,76.0,90.0,1.0,64.0
5114,78.0,10.0,210.0,2.0,64.0
5115,85.0,2.0,150.0,1.0,64.0
5116,82.0,21.0,150.0,1.0,64.0
5117,61.0,57.0,90.0,4.0,64.0
5118,49.0,0.0,90.0,4.0,64.0
5119,49.0,1.0,120.0,4.0,64.0
5120,61.0,6.0,120.0,4.0,64.0
5121,87.0,8.0,60.0,1.0,64.0
5122,83.0,14.0,20.0,1.0,64.0
5123,83.0,0.0,30.0,1.0,64.0
5124,80.0,77.0,30.0,2.0,64.0
5125,78.0,1.0,240.0,2.0,64.0
5126,82.0,23.0,240.0,1.0,64.0
5127,61.0,92.0,90.0,4.0,64.0
5128,49.0,0.0,90.0,4.0,64.0
5129,61.0,70.0,90.0,4.0,64.0
5130,49.0,1.0,90.0,4.0,64.0
5131,61.0,95.0,90.0,4.0,64.0
5132,49.0,1.0,90.0,4.0,64.0
5133,85.0,85.0,90.0,1.0,64.0
5134,82.0,1.0,90.0,1.0,64.0
5135,61.0,6.0,90.0,4.0,64.0
5136,49.0,0.0,90.0,4.0,64.0
5137,83.0,92.0,90.0,1.0,64.0
5138,80.0,1.0,90.0,2.0,64.0
5139,61.0,5.0,90.0,4.0,64.0
5140,49.0,0.0,90.0,4.0,64.0
5141,80.0,1.0,90.0,2.0,64.0
5142,77.0,0.0,90.0,2.0,64.0
5143,61.0,132.0,90.0,4.0,64.0
5144,49.0,0.0,90.0,4.0,64.0
5145,78.0,41.0,150.0,2.0,64.0
5146,66.0,11.0,120.0,4.0,64.0
5147,68.0,31.0,60.0,4.0,64.0
5148,80.0,0.0,60.0,2.0,64.0
5149,77.0,98.0,60.0,2.0,64.0
5150,65.0,0.0,60.0,4.0,64.0
5151,75.0,50.0,150.0,2.0,64.0
5152,63.0,18.0,120.0,4.0,64.0
5153,77.0,28.0,60.0,2.0,64.0
5154,65.0,0.0,60.0,4.0,64.0
5155,61.0,1.0,60.0,4.0,64.0
5156,73.0,114.0,60.0,2.0,64.0
5157,71.0,54.0,120.0,2.0,64.0
5158,59.0,0.0,120.0,4.0,64.0
5159,73.0,26.0,60.0,2.0,64.0
5160,61.0,1.0,60.0,4.0,64.0
5161,70.0,110.0,60.0,4.0,64.0
5162,58.0,1.0,60.0,4.0,64.0
5163,56.0,4.0,120.0,4.0,64.0
5164,68.0,51.0,120.0,4.0,64.0
5165,70.0,26.0,60.0,4.0,64.0
5166,58.0,1.0,60.0,4.0,64.0
5167,66.0,364.0,60.0,4.0,64.0
5168,54.0,1.0,60.0,4.0,64.0
5169,53.0,98.0,390.0,4.0,64.0
5170,65.0,0.0,390.0,4.0,64.0
5171,73.0,11.0,300.0,2.0,64.0
5172,77.0,10.0,300.0,2.0,64.0
5173,80.0,11.0,300.0,2.0,64.0
5174,83.0,242.0,300.0,1.0,64.0
5175,54.0,45.0,390.0,4.0,64.0
5176,66.0,6.0,360.0,4.0,64.0
5177,70.0,11.0,240.0,4.0,64.0
5178,73.0,10.0,240.0,2.0,64.0
5179,78.0,11.0,240.0,2.0,64.0
5180,82.0,119.0,240.0,1.0,64.0
5181,66.0,90.0,360.0,4.0,64.0
5182,59.0,1.0,360.0,4.0,64.0
5183,75.0,90.0,90.0,2.0,64.0
5184,74.0,87.0,90.0,2.0,64.0
5185,75.0,106.0,180.0,2.0,64.0
5186,69.0,0.0,360.0,4.0,64.0
5187,60.0,9.0,360.0,4.0,64.0
5188,78.0,94.0,120.0,2.0,64.0
5189,77.0,85.0,90.0,2.0,64.0
5190,78.0,122.0,90.0,2.0,64.0
5191,73.0,4.0,300.0,2.0,64.0
5192,61.0,69.0,150.0,4.0,64.0
5193,70.0,22.0,90.0,4.0,64.0
5194,66.0,64.0,150.0,4.0,64.0
5195,70.0,23.0,90.0,4.0,64.0
5196,61.0,77.0,150.0,4.0,64.0
5197,70.0,23.0,90.0,4.0,64.0
5198,66.0,14.0,150.0,4.0,64.0
5199,70.0,25.0,90.0,4.0,64.0
5200,82.0,1.0,60.0,1.0,64.0
5201,61.0,10.0,180.0,4.0,64.0
5202,80.0,32.0,60.0,2.0,64.0
5203,71.0,8.0,90.0,2.0,64.0
5204,82.0,30.0,30.0,1.0,64.0
5205,65.0,11.0,180.0,4.0,64.0
5206,80.0,19.0,30.0,2.0,64.0
5207,82.0,36.0,30.0,1.0,64.0
5208,71.0,4.0,90.0,2.0,64.0
5209,80.0,31.0,30.0,2.0,64.0
5210,61.0,8.0,180.0,4.0,64.0
5211,82.0,21.0,30.0,1.0,64.0
5212,80.0,37.0,30.0,2.0,64.0
5213,71.0,6.0,90.0,2.0,64.0
5214,82.0,31.0,30.0,1.0,64.0
5215,65.0,2.0,90.0,4.0,64.0
5216,80.0,21.0,30.0,2.0,64.0
5217,78.0,25.0,30.0,2.0,64.0
5218,71.0,16.0,90.0,2.0,64.0
5219,80.0,38.0,30.0,2.0,64.0
5220,78.0,47.0,60.0,2.0,64.0
5221,66.0,2.0,180.0,4.0,64.0
5222,54.0,1.0,180.0,4.0,64.0
5223,82.0,46.0,60.0,1.0,64.0
5224,78.0,42.0,60.0,2.0,64.0
5225,77.0,46.0,60.0,2.0,64.0
5226,75.0,48.0,60.0,2.0,64.0
5227,51.0,1.0,180.0,4.0,64.0
5228,63.0,3.0,180.0,4.0,64.0
5229,78.0,46.0,60.0,2.0,64.0
5230,75.0,42.0,60.0,2.0,64.0
5231,73.0,48.0,60.0,2.0,64.0
5232,71.0,46.0,60.0,2.0,64.0
5233,47.0,3.0,180.0,4.0,64.0
5234,59.0,0.0,180.0,4.0,64.0
5235,75.0,46.0,60.0,2.0,64.0
5236,71.0,43.0,60.0,2.0,64.0
5237,70.0,46.0,60.0,4.0,64.0
5238,68.0,46.0,60.0,4.0,64.0
5239,44.0,1.0,180.0,4.0,64.0
5240,56.0,2.0,180.0,4.0,64.0
5241,71.0,46.0,60.0,2.0,64.0
5242,68.0,32.0,60.0,4.0,64.0
5243,66.0,230.0,30.0,4.0,64.0
5244,53.0,6.0,240.0,4.0,64.0
5245,65.0,0.0,240.0,4.0,64.0
5246,41.0,1.0,240.0,4.0,64.0
5247,73.0,15.0,90.0,2.0,64.0
5248,80.0,17.0,90.0,2.0,64.0
5249,83.0,105.0,90.0,1.0,64.0
5250,83.0,190.0,120.0,1.0,64.0
5251,65.0,31.0,60.0,4.0,64.0
5252,53.0,1.0,60.0,4.0,64.0
5253,66.0,8.0,240.0,4.0,64.0
5254,54.0,1.0,240.0,4.0,64.0
5255,73.0,15.0,90.0,2.0,64.0
5256,78.0,15.0,90.0,2.0,64.0
5257,82.0,102.0,90.0,1.0,64.0
5258,82.0,166.0,120.0,1.0,64.0
5259,66.0,28.0,60.0,4.0,64.0
5260,54.0,0.0,60.0,4.0,64.0
5261,59.0,95.0,750.0,4.0,64.0
5262,47.0,1.0,720.0,4.0,64.0
5263,87.0,0.0,90.0,1.0,64.0
5264,75.0,93.0,90.0,2.0,64.0
5265,86.0,91.0,90.0,1.0,64.0
5266,74.0,1.0,90.0,2.0,64.0
5267,87.0,94.0,90.0,1.0,64.0
5268,75.0,1.0,90.0,2.0,64.0
5269,74.0,1.0,90.0,2.0,64.0
5270,86.0,91.0,90.0,1.0,64.0
5271,87.0,90.0,90.0,1.0,64.0
5272,75.0,1.0,90.0,2.0,64.0
5273,77.0,75.0,90.0,2.0,64.0
5274,89.0,0.0,90.0,1.0,64.0
5275,90.0,108.0,180.0,1.0,64.0
5276,78.0,0.0,180.0,2.0,64.0
5277,69.0,0.0,750.0,4.0,64.0
5278,60.0,1.0,720.0,4.0,64.0
5279,63.0,14.0,720.0,4.0,64.0
5280,90.0,0.0,90.0,1.0,64.0
5281,78.0,89.0,90.0,2.0,64.0
5282,89.0,95.0,90.0,1.0,64.0
5283,77.0,1.0,90.0,2.0,64.0
5284,78.0,1.0,90.0,2.0,64.0
5285,90.0,93.0,120.0,1.0,64.0
5286,77.0,1.0,90.0,2.0,64.0
5287,89.0,92.0,90.0,1.0,64.0
5288,90.0,92.0,90.0,1.0,64.0
5289,78.0,0.0,90.0,2.0,64.0
5290,80.0,1.0,90.0,2.0,64.0
5291,92.0,73.0,90.0,1.0,64.0
5292,93.0,46.0,90.0,1.0,64.0
5293,81.0,1.0,90.0,2.0,64.0
5294,61.0,23.0,150.0,4.0,64.0
5295,85.0,45.0,60.0,1.0,64.0
5296,70.0,14.0,90.0,4.0,64.0
5297,90.0,27.0,60.0,1.0,64.0
5298,66.0,37.0,150.0,4.0,64.0
5299,85.0,8.0,60.0,1.0,64.0
5300,82.0,43.0,30.0,1.0,64.0
5301,70.0,14.0,90.0,4.0,64.0
5302,82.0,10.0,60.0,1.0,64.0
5303,61.0,38.0,150.0,4.0,64.0
5304,85.0,28.0,60.0,1.0,64.0
5305,70.0,15.0,90.0,4.0,64.0
5306,66.0,37.0,150.0,4.0,64.0
5307,82.0,6.0,60.0,1.0,64.0
5308,70.0,17.0,90.0,4.0,64.0
5309,78.0,28.0,60.0,2.0,64.0
5310,85.0,7.0,60.0,1.0,64.0
5311,61.0,23.0,150.0,4.0,64.0
5312,90.0,29.0,60.0,1.0,64.0
5313,70.0,14.0,90.0,4.0,64.0
5314,85.0,6.0,60.0,1.0,64.0
5315,66.0,25.0,150.0,4.0,64.0
5316,82.0,45.0,30.0,1.0,64.0
5317,70.0,2.0,90.0,4.0,64.0
5318,61.0,29.0,150.0,4.0,64.0
5319,82.0,20.0,30.0,1.0,64.0
5320,70.0,4.0,90.0,4.0,64.0
5321,85.0,41.0,30.0,1.0,64.0
5322,82.0,18.0,30.0,1.0,64.0
5323,66.0,42.0,180.0,4.0,64.0
5324,78.0,57.0,30.0,2.0,64.0
5325,70.0,26.0,90.0,4.0,64.0
5326,82.0,2.0,90.0,1.0,64.0
5327,61.0,35.0,180.0,4.0,64.0
5328,80.0,19.0,60.0,2.0,64.0
5329,71.0,19.0,90.0,2.0,64.0
5330,82.0,21.0,60.0,1.0,64.0
5331,65.0,39.0,180.0,4.0,64.0
5332,80.0,7.0,60.0,2.0,64.0
5333,82.0,38.0,60.0,1.0,64.0
5334,71.0,27.0,90.0,2.0,64.0
5335,80.0,8.0,60.0,2.0,64.0
5336,61.0,11.0,180.0,4.0,64.0
5337,82.0,0.0,60.0,1.0,64.0
5338,71.0,25.0,90.0,2.0,64.0
5339,80.0,39.0,60.0,2.0,64.0
5340,82.0,1.0,60.0,1.0,64.0
5341,65.0,27.0,180.0,4.0,64.0
5342,80.0,38.0,60.0,2.0,64.0
5343,71.0,16.0,90.0,2.0,64.0
5344,82.0,29.0,60.0,1.0,64.0
5345,61.0,4.0,180.0,4.0,64.0
5346,80.0,11.0,60.0,2.0,64.0
5347,82.0,36.0,60.0,1.0,64.0
5348,71.0,25.0,90.0,2.0,64.0
5349,80.0,12.0,60.0,2.0,64.0
5350,65.0,13.0,180.0,4.0,64.0
5351,82.0,34.0,60.0,1.0,64.0
5352,71.0,2.0,90.0,2.0,64.0
5353,80.0,39.0,60.0,2.0,64.0
5354,82.0,23.0,60.0,1.0,64.0
5355,61.0,17.0,180.0,4.0,64.0
5356,80.0,38.0,60.0,2.0,64.0
5357,71.0,7.0,90.0,2.0,64.0
5358,82.0,22.0,30.0,1.0,64.0
5359,65.0,8.0,90.0,4.0,64.0
5360,80.0,19.0,30.0,2.0,64.0
5361,71.0,209.0,90.0,2.0,64.0
5362,78.0,15.0,30.0,2.0,64.0
5363,80.0,31.0,30.0,2.0,64.0
5364,66.0,0.0,240.0,4.0,64.0
5365,78.0,58.0,270.0,2.0,64.0
5366,54.0,28.0,240.0,4.0,64.0
5367,70.0,45.0,60.0,4.0,64.0
5368,58.0,0.0,60.0,4.0,64.0
5369,66.0,1.0,60.0,4.0,64.0
5370,54.0,74.0,60.0,4.0,64.0
5371,71.0,50.0,90.0,2.0,64.0
5372,59.0,10.0,90.0,4.0,64.0
5373,68.0,1.0,60.0,4.0,64.0
5374,56.0,47.0,60.0,4.0,64.0
5375,65.0,1.0,60.0,4.0,64.0
5376,53.0,88.0,60.0,4.0,64.0
5377,66.0,57.0,90.0,4.0,64.0
5378,54.0,4.0,90.0,4.0,64.0
5379,63.0,46.0,60.0,4.0,64.0
5380,51.0,0.0,60.0,4.0,64.0
5381,60.0,183.0,60.0,4.0,64.0
5382,48.0,1.0,60.0,4.0,64.0
5383,61.0,227.0,180.0,4.0,64.0
5384,49.0,2.0,180.0,4.0,64.0
5385,49.0,1.0,210.0,4.0,64.0
5386,61.0,0.0,210.0,4.0,64.0
5387,80.0,11.0,210.0,2.0,64.0
5388,85.0,17.0,210.0,1.0,64.0
5389,89.0,3147.0,210.0,1.0,64.0
5390,54.0,41.0,3150.0,4.0,64.0
5391,78.0,0.0,3150.0,2.0,64.0
5392,42.0,1.0,3150.0,4.0,64.0
5393,82.0,44.0,3180.0,1.0,64.0
5394,85.0,42.0,3210.0,1.0,64.0
5395,90.0,1005.0,3240.0,1.0,64.0
5396,73.0,0.0,510.0,2.0,64.0
5397,61.0,4.0,510.0,4.0,64.0
5398,65.0,184.0,510.0,4.0,64.0
5399,75.0,51.0,180.0,2.0,64.0
5400,56.0,1.0,240.0,4.0,64.0
5401,66.0,20.0,240.0,4.0,64.0
5402,72.0,109.0,60.0,2.0,64.0
5403,65.0,122.0,120.0,4.0,64.0
5404,73.0,0.0,240.0,2.0,64.0
5405,61.0,23.0,240.0,4.0,64.0
5406,68.0,125.0,120.0,4.0,64.0
5407,65.0,0.0,120.0,4.0,64.0
5408,67.0,0.0,150.0,4.0,64.0
5409,64.0,119.0,150.0,4.0,64.0
5410,68.0,123.0,120.0,4.0,64.0
5411,65.0,0.0,120.0,4.0,64.0
5412,66.0,0.0,150.0,4.0,64.0
5413,63.0,124.0,120.0,4.0,64.0
5414,65.0,484.0,150.0,4.0,64.0
5415,61.0,1.0,150.0,4.0,64.0
5416,60.0,161.0,510.0,4.0,64.0
5417,75.0,0.0,510.0,2.0,64.0
5418,56.0,1.0,510.0,4.0,64.0
5419,77.0,67.0,180.0,2.0,64.0
5420,68.0,141.0,240.0,4.0,64.0
5421,61.0,2.0,240.0,4.0,64.0
5422,73.0,0.0,60.0,2.0,64.0
5423,78.0,25.0,240.0,2.0,64.0
5424,68.0,94.0,150.0,4.0,64.0
5425,60.0,0.0,240.0,4.0,64.0
5426,63.0,0.0,120.0,4.0,64.0
5427,66.0,122.0,120.0,4.0,64.0
5428,62.0,120.0,150.0,4.0,64.0
5429,65.0,0.0,150.0,4.0,64.0
5430,63.0,0.0,120.0,4.0,64.0
5431,66.0,121.0,120.0,4.0,64.0
5432,65.0,346.0,120.0,4.0,64.0
5433,61.0,1.0,120.0,4.0,64.0
5434,63.0,0.0,360.0,4.0,64.0
5435,60.0,112.0,360.0,4.0,64.0
5436,80.0,58.0,360.0,2.0,64.0
5437,68.0,19.0,240.0,4.0,64.0
5438,73.0,0.0,240.0,2.0,64.0
5439,65.0,1.0,240.0,4.0,64.0
5440,82.0,34.0,60.0,1.0,64.0
5441,80.0,35.0,60.0,2.0,64.0
5442,78.0,9.0,60.0,2.0,64.0
5443,77.0,99.0,30.0,2.0,64.0
5444,72.0,0.0,480.0,2.0,64.0
5445,78.0,121.0,120.0,2.0,64.0
5446,63.0,1.0,480.0,4.0,64.0
5447,68.0,106.0,480.0,4.0,64.0
5448,78.0,240.0,120.0,2.0,64.0
5449,77.0,70.0,330.0,2.0,64.0
5450,65.0,0.0,240.0,4.0,64.0
5451,68.0,31.0,240.0,4.0,64.0
5452,61.0,1.0,240.0,4.0,64.0
5453,78.0,35.0,60.0,2.0,64.0
5454,77.0,34.0,60.0,2.0,64.0
5455,75.0,1.0,60.0,2.0,64.0
5456,73.0,98.0,30.0,2.0,64.0
5457,72.0,117.0,120.0,2.0,64.0
5458,63.0,128.0,480.0,4.0,64.0
5459,56.0,120.0,360.0,4.0,64.0
5460,54.0,1.0,360.0,4.0,64.0
5461,72.0,130.0,120.0,2.0,64.0
5462,73.0,14.0,360.0,2.0,64.0
5463,53.0,13.0,1110.0,4.0,64.0
5464,65.0,102.0,150.0,4.0,64.0
5465,75.0,0.0,150.0,2.0,64.0
5466,68.0,21.0,120.0,4.0,64.0
5467,72.0,104.0,150.0,2.0,64.0
5468,66.0,1.0,120.0,4.0,64.0
5469,77.0,100.0,150.0,2.0,64.0
5470,73.0,1.0,150.0,2.0,64.0
5471,68.0,23.0,120.0,4.0,64.0
5472,65.0,0.0,150.0,4.0,64.0
5473,75.0,18.0,300.0,2.0,64.0
5474,68.0,27.0,120.0,4.0,64.0
5475,78.0,0.0,150.0,2.0,64.0
5476,63.0,47.0,150.0,4.0,64.0
5477,79.0,9.0,60.0,2.0,64.0
5478,77.0,45.0,60.0,2.0,64.0
5479,68.0,22.0,120.0,4.0,64.0
5480,61.0,39.0,150.0,4.0,64.0
5481,80.0,3.0,60.0,2.0,64.0
5482,82.0,65.0,60.0,1.0,64.0
5483,66.0,216.0,150.0,4.0,64.0
5484,78.0,1.0,60.0,2.0,64.0
5485,78.0,2.0,60.0,2.0,64.0
5486,75.0,0.0,60.0,2.0,64.0
5487,77.0,0.0,240.0,2.0,64.0
5488,68.0,22.0,720.0,4.0,64.0
5489,73.0,249.0,240.0,2.0,64.0
5490,75.0,1.0,240.0,2.0,64.0
5491,56.0,60.0,510.0,4.0,64.0
5492,72.0,223.0,240.0,2.0,64.0
5493,73.0,179.0,300.0,2.0,64.0
5494,61.0,27.0,240.0,4.0,64.0
5495,65.0,0.0,240.0,4.0,64.0
5496,68.0,54.0,300.0,4.0,64.0
5497,77.0,81.0,120.0,2.0,64.0
5498,63.0,0.0,270.0,4.0,64.0
5499,78.0,35.0,120.0,2.0,64.0
5500,56.0,28.0,270.0,4.0,64.0
5501,75.0,43.0,120.0,2.0,64.0
5502,66.0,14.0,120.0,4.0,64.0
5503,72.0,82.0,120.0,2.0,64.0
5504,73.0,108.0,120.0,2.0,64.0
5505,61.0,20.0,240.0,4.0,64.0
5506,65.0,22.0,120.0,4.0,64.0
5507,68.0,124.0,150.0,4.0,64.0
5508,65.0,1.0,150.0,4.0,64.0
5509,64.0,118.0,150.0,4.0,64.0
5510,67.0,0.0,150.0,4.0,64.0
5511,68.0,121.0,120.0,4.0,64.0
5512,65.0,0.0,120.0,4.0,64.0
5513,66.0,0.0,120.0,4.0,64.0
5514,63.0,371.0,120.0,4.0,64.0
5515,65.0,0.0,390.0,4.0,64.0
5516,61.0,140.0,390.0,4.0,64.0
5517,75.0,71.0,390.0,2.0,64.0
5518,56.0,350.0,1110.0,4.0,64.0
5519,60.0,2.0,240.0,4.0,64.0
5520,68.0,18.0,150.0,4.0,64.0
5521,78.0,98.0,90.0,2.0,64.0
5522,68.0,18.0,390.0,4.0,64.0
5523,77.0,102.0,120.0,2.0,64.0
5524,61.0,1.0,390.0,4.0,64.0
5525,73.0,48.0,120.0,2.0,64.0
5526,82.0,50.0,90.0,1.0,64.0
5527,80.0,69.0,60.0,2.0,64.0
5528,78.0,111.0,120.0,2.0,64.0
5529,66.0,123.0,120.0,4.0,64.0
5530,63.0,0.0,120.0,4.0,64.0
5531,65.0,0.0,150.0,4.0,64.0
5532,62.0,121.0,150.0,4.0,64.0
5533,66.0,121.0,150.0,4.0,64.0
5534,63.0,0.0,120.0,4.0,64.0
5535,65.0,6.0,120.0,4.0,64.0
5536,61.0,1.0,120.0,4.0,64.0
5537,60.0,59.0,360.0,4.0,64.0
5538,63.0,0.0,360.0,4.0,64.0
5539,80.0,66.0,300.0,2.0,64.0
5540,65.0,10.0,240.0,4.0,64.0
5541,73.0,0.0,240.0,2.0,64.0
5542,81.0,60.0,60.0,2.0,64.0
5543,82.0,48.0,60.0,1.0,64.0
5544,77.0,58.0,60.0,2.0,64.0
5545,72.0,0.0,510.0,2.0,64.0
5546,80.0,40.0,60.0,2.0,64.0
5547,63.0,56.0,510.0,4.0,64.0
5548,78.0,135.0,60.0,2.0,64.0
5549,78.0,256.0,120.0,2.0,64.0
5550,77.0,66.0,300.0,2.0,64.0
5551,61.0,60.0,240.0,4.0,64.0
5552,68.0,12.0,240.0,4.0,64.0
5553,79.0,59.0,60.0,2.0,64.0
5554,80.0,40.0,60.0,2.0,64.0
5555,73.0,1.0,60.0,2.0,64.0
5556,68.0,10.0,240.0,4.0,64.0
5557,73.0,51.0,60.0,2.0,64.0
5558,66.0,70.0,240.0,4.0,64.0
5559,72.0,119.0,60.0,2.0,64.0
5560,72.0,5.0,120.0,2.0,64.0
5561,73.0,53.0,60.0,2.0,64.0
5562,65.0,5.0,240.0,4.0,64.0
5563,68.0,13.0,210.0,4.0,64.0
5564,75.0,58.0,60.0,2.0,64.0
5565,77.0,37.0,60.0,2.0,64.0
5566,78.0,55.0,60.0,2.0,64.0
5567,80.0,53.0,60.0,2.0,64.0
5568,61.0,33.0,540.0,4.0,64.0
5569,53.0,6.0,210.0,4.0,64.0
5570,82.0,54.0,60.0,1.0,64.0
5571,84.0,49.0,60.0,1.0,64.0
5572,85.0,54.0,60.0,1.0,64.0
5573,84.0,54.0,60.0,1.0,64.0
5574,54.0,5.0,240.0,4.0,64.0
5575,82.0,56.0,60.0,1.0,64.0
5576,80.0,53.0,60.0,2.0,64.0
5577,78.0,58.0,60.0,2.0,64.0
5578,56.0,134.0,360.0,4.0,64.0
5579,77.0,29.0,60.0,2.0,64.0
5580,80.0,64.0,60.0,2.0,64.0
5581,60.0,123.0,120.0,4.0,64.0
5582,78.0,44.0,60.0,2.0,64.0
5583,75.0,13.0,60.0,2.0,64.0
5584,66.0,0.0,270.0,4.0,64.0
5585,68.0,129.0,270.0,4.0,64.0
5586,75.0,0.0,270.0,2.0,64.0
5587,61.0,1.0,270.0,4.0,64.0
5588,56.0,108.0,270.0,4.0,64.0
5589,65.0,130.0,270.0,4.0,64.0
5590,73.0,22.0,240.0,2.0,64.0
5591,49.0,17.0,1770.0,4.0,64.0
5592,73.0,17.0,390.0,2.0,64.0
5593,61.0,48.0,150.0,4.0,64.0
5594,68.0,81.0,120.0,4.0,64.0
5595,63.0,48.0,150.0,4.0,64.0
5596,68.0,65.0,120.0,4.0,64.0
5597,65.0,35.0,150.0,4.0,64.0
5598,68.0,15.0,120.0,4.0,64.0
5599,69.0,19.0,60.0,4.0,64.0
5600,66.0,46.0,150.0,4.0,64.0
5601,72.0,37.0,60.0,2.0,64.0
5602,68.0,34.0,120.0,4.0,64.0
5603,73.0,33.0,60.0,2.0,64.0
5604,72.0,4.0,60.0,2.0,64.0
5605,65.0,33.0,150.0,4.0,64.0
5606,73.0,49.0,90.0,2.0,64.0
5607,68.0,15.0,120.0,4.0,64.0
5608,73.0,17.0,60.0,2.0,64.0
5609,66.0,48.0,150.0,4.0,64.0
5610,72.0,35.0,30.0,2.0,64.0
5611,68.0,86.0,120.0,4.0,64.0
5612,73.0,33.0,60.0,2.0,64.0
5613,72.0,2.0,60.0,2.0,64.0
5614,65.0,33.0,150.0,4.0,64.0
5615,73.0,21.0,180.0,2.0,64.0
5616,68.0,9.0,150.0,4.0,64.0
5617,60.0,49.0,150.0,4.0,64.0
5618,77.0,40.0,60.0,2.0,64.0
5619,75.0,38.0,60.0,2.0,64.0
5620,68.0,78.0,120.0,4.0,64.0
5621,77.0,2.0,150.0,2.0,64.0
5622,61.0,51.0,150.0,4.0,64.0
5623,68.0,13.0,120.0,4.0,64.0
5624,63.0,47.0,150.0,4.0,64.0
5625,80.0,68.0,90.0,2.0,64.0
5626,78.0,4.0,90.0,2.0,64.0
5627,68.0,71.0,120.0,4.0,64.0
5628,77.0,14.0,120.0,2.0,64.0
5629,61.0,29.0,150.0,4.0,64.0
5630,68.0,62.0,120.0,4.0,64.0
5631,75.0,24.0,120.0,2.0,64.0
5632,60.0,50.0,150.0,4.0,64.0
5633,68.0,89.0,120.0,4.0,64.0
5634,75.0,20.0,390.0,2.0,64.0
5635,56.0,48.0,150.0,4.0,64.0
5636,68.0,83.0,120.0,4.0,64.0
5637,58.0,49.0,150.0,4.0,64.0
5638,68.0,66.0,120.0,4.0,64.0
5639,60.0,27.0,150.0,4.0,64.0
5640,68.0,8.0,150.0,4.0,64.0
5641,58.0,48.0,150.0,4.0,64.0
5642,75.0,27.0,30.0,2.0,64.0
5643,74.0,40.0,30.0,2.0,64.0
5644,75.0,35.0,60.0,2.0,64.0
5645,68.0,38.0,150.0,4.0,64.0
5646,74.0,10.0,30.0,2.0,64.0
5647,75.0,52.0,90.0,2.0,64.0
5648,60.0,10.0,150.0,4.0,64.0
5649,68.0,95.0,150.0,4.0,64.0
5650,73.0,32.0,60.0,2.0,64.0
5651,58.0,49.0,180.0,4.0,64.0
5652,75.0,10.0,60.0,2.0,64.0
5653,73.0,0.0,120.0,2.0,64.0
5654,68.0,46.0,150.0,4.0,64.0
5655,60.0,2.0,150.0,4.0,64.0
5656,75.0,47.0,120.0,2.0,64.0
5657,68.0,79.0,150.0,4.0,64.0
5658,77.0,29.0,60.0,2.0,64.0
5659,61.0,8.0,150.0,4.0,64.0
5660,78.0,21.0,30.0,2.0,64.0
5661,77.0,41.0,120.0,2.0,64.0
5662,68.0,69.0,120.0,4.0,64.0
5663,78.0,13.0,120.0,2.0,64.0
5664,63.0,50.0,150.0,4.0,64.0
5665,68.0,26.0,120.0,4.0,64.0
5666,82.0,61.0,90.0,1.0,64.0
5667,65.0,8.0,150.0,4.0,64.0
5668,80.0,40.0,90.0,2.0,64.0
5669,68.0,62.0,120.0,4.0,64.0
5670,78.0,28.0,120.0,2.0,64.0
5671,63.0,55.0,150.0,4.0,64.0
5672,68.0,68.0,150.0,4.0,64.0
5673,61.0,152.0,300.0,4.0,64.0
5674,77.0,154.0,150.0,2.0,64.0
5675,68.0,13.0,210.0,4.0,64.0
5676,77.0,4.0,150.0,2.0,64.0
5677,89.0,0.0,90.0,1.0,64.0
5678,89.0,58.0,270.0,1.0,64.0
5679,61.0,137.0,150.0,4.0,64.0
5680,68.0,0.0,150.0,4.0,64.0
5681,68.0,0.0,690.0,4.0,64.0
5682,61.0,1.0,690.0,4.0,64.0
5683,87.0,69.0,60.0,1.0,64.0
5684,85.0,63.0,90.0,1.0,64.0
5685,84.0,65.0,60.0,1.0,64.0
5686,82.0,73.0,90.0,1.0,64.0
5687,81.0,113.0,60.0,2.0,64.0
5688,82.0,119.0,150.0,1.0,64.0
5689,73.0,125.0,150.0,2.0,64.0
5690,85.0,1.0,90.0,1.0,64.0
5691,85.0,56.0,210.0,1.0,64.0
5692,67.0,96.0,120.0,4.0,64.0
5693,63.0,0.0,120.0,4.0,64.0
5694,58.0,1.0,120.0,4.0,64.0
5695,63.0,130.0,780.0,4.0,64.0
5696,67.0,0.0,780.0,4.0,64.0
5697,58.0,1.0,780.0,4.0,64.0
5698,84.0,79.0,30.0,1.0,64.0
5699,82.0,53.0,90.0,1.0,64.0
5700,80.0,77.0,30.0,2.0,64.0
5701,79.0,58.0,90.0,2.0,64.0
5702,77.0,110.0,60.0,2.0,64.0
5703,75.0,171.0,120.0,2.0,64.0
5704,75.0,86.0,150.0,2.0,64.0
5705,80.0,134.0,240.0,2.0,64.0
5706,60.0,1.0,240.0,4.0,64.0
5707,68.0,20.0,240.0,4.0,64.0
5708,75.0,134.0,150.0,2.0,64.0
5709,61.0,1.0,480.0,4.0,64.0
5710,68.0,110.0,480.0,4.0,64.0
5711,77.0,125.0,150.0,2.0,64.0
5712,73.0,115.0,150.0,2.0,64.0
5713,72.0,104.0,120.0,2.0,64.0
5714,75.0,151.0,240.0,2.0,64.0
5715,63.0,11.0,510.0,4.0,64.0
5716,67.0,0.0,510.0,4.0,64.0
5717,74.0,135.0,150.0,2.0,64.0
5718,51.0,4.0,270.0,4.0,64.0
5719,73.0,119.0,150.0,2.0,64.0
5720,70.0,63.0,150.0,4.0,64.0
5721,56.0,42.0,150.0,4.0,64.0
5722,72.0,59.0,90.0,2.0,64.0
5723,63.0,14.0,120.0,4.0,64.0
5724,75.0,4.0,60.0,2.0,64.0
5725,77.0,59.0,60.0,2.0,64.0
5726,60.0,42.0,120.0,4.0,64.0
5727,79.0,4.0,60.0,2.0,64.0
5728,63.0,13.0,120.0,4.0,64.0
5729,80.0,59.0,60.0,2.0,64.0
5730,56.0,42.0,120.0,4.0,64.0
5731,63.0,13.0,120.0,4.0,64.0
5732,82.0,2.0,60.0,1.0,64.0
5733,84.0,58.0,60.0,1.0,64.0
5734,60.0,44.0,120.0,4.0,64.0
5735,85.0,4.0,60.0,1.0,64.0
5736,63.0,13.0,120.0,4.0,64.0
5737,56.0,46.0,120.0,4.0,64.0
5738,87.0,60.0,60.0,1.0,64.0
5739,63.0,13.0,120.0,4.0,64.0
5740,89.0,2.0,60.0,1.0,64.0
5741,87.0,58.0,60.0,1.0,64.0
5742,60.0,42.0,120.0,4.0,64.0
5743,84.0,4.0,60.0,1.0,64.0
5744,63.0,13.0,120.0,4.0,64.0
5745,58.0,12.0,120.0,4.0,64.0
5746,85.0,46.0,60.0,1.0,64.0
5747,87.0,46.0,60.0,1.0,64.0
5748,63.0,14.0,120.0,4.0,64.0
5749,85.0,44.0,60.0,1.0,64.0
5750,58.0,12.0,120.0,4.0,64.0
5751,82.0,57.0,60.0,1.0,64.0
5752,61.0,56.0,120.0,4.0,64.0
5753,58.0,42.0,120.0,4.0,64.0
5754,79.0,4.0,60.0,2.0,64.0
5755,80.0,2.0,60.0,2.0,64.0
5756,63.0,13.0,120.0,4.0,64.0
5757,79.0,56.0,60.0,2.0,64.0
5758,61.0,42.0,120.0,4.0,64.0
5759,75.0,4.0,60.0,2.0,64.0
5760,63.0,13.0,120.0,4.0,64.0
5761,73.0,57.0,60.0,2.0,64.0
5762,55.0,42.0,120.0,4.0,64.0
5763,75.0,3.0,60.0,2.0,64.0
5764,63.0,13.0,120.0,4.0,64.0
5765,58.0,48.0,120.0,4.0,64.0
5766,73.0,57.0,60.0,2.0,64.0
5767,70.0,3.0,60.0,4.0,64.0
5768,63.0,13.0,120.0,4.0,64.0
5769,72.0,61.0,60.0,2.0,64.0
5770,56.0,42.0,150.0,4.0,64.0
5771,75.0,3.0,60.0,2.0,64.0
5772,63.0,13.0,120.0,4.0,64.0
5773,60.0,44.0,120.0,4.0,64.0
5774,77.0,59.0,60.0,2.0,64.0
5775,79.0,2.0,60.0,2.0,64.0
5776,63.0,12.0,120.0,4.0,64.0
5777,80.0,59.0,60.0,2.0,64.0
5778,56.0,44.0,120.0,4.0,64.0
5779,63.0,12.0,120.0,4.0,64.0
5780,82.0,2.0,60.0,1.0,64.0
5781,84.0,61.0,60.0,1.0,64.0
5782,60.0,42.0,120.0,4.0,64.0
5783,85.0,2.0,60.0,1.0,64.0
5784,63.0,12.0,120.0,4.0,64.0
5785,87.0,63.0,60.0,1.0,64.0
5786,56.0,40.0,120.0,4.0,64.0
5787,63.0,13.0,120.0,4.0,64.0
5788,89.0,4.0,60.0,1.0,64.0
5789,87.0,60.0,60.0,1.0,64.0
5790,60.0,44.0,120.0,4.0,64.0
5791,84.0,2.0,60.0,1.0,64.0
5792,63.0,11.0,120.0,4.0,64.0
5793,85.0,56.0,60.0,1.0,64.0
5794,58.0,42.0,120.0,4.0,64.0
5795,63.0,13.0,120.0,4.0,64.0
5796,87.0,2.0,60.0,1.0,64.0
5797,61.0,43.0,120.0,4.0,64.0
5798,85.0,58.0,60.0,1.0,64.0
5799,82.0,2.0,60.0,1.0,64.0
5800,63.0,12.0,120.0,4.0,64.0
5801,79.0,61.0,60.0,2.0,64.0
5802,58.0,42.0,120.0,4.0,64.0
5803,80.0,2.0,60.0,2.0,64.0
5804,63.0,12.0,120.0,4.0,64.0
5805,79.0,59.0,60.0,2.0,64.0
5806,61.0,40.0,120.0,4.0,64.0
5807,75.0,2.0,60.0,2.0,64.0
5808,63.0,13.0,120.0,4.0,64.0
5809,73.0,60.0,60.0,2.0,64.0
5810,55.0,40.0,120.0,4.0,64.0
5811,63.0,13.0,120.0,4.0,64.0
5812,75.0,2.0,60.0,2.0,64.0
5813,73.0,57.0,60.0,2.0,64.0
5814,58.0,46.0,120.0,4.0,64.0
5815,70.0,2.0,60.0,4.0,64.0
5816,63.0,14.0,120.0,4.0,64.0
5817,56.0,4.0,240.0,4.0,64.0
5818,72.0,63.0,60.0,2.0,64.0
5819,75.0,61.0,60.0,2.0,64.0
5820,80.0,42.0,60.0,2.0,64.0
5821,79.0,80.0,60.0,2.0,64.0
5822,79.0,60.0,60.0,2.0,64.0
5823,61.0,76.0,630.0,4.0,64.0
5824,77.0,59.0,60.0,2.0,64.0
5825,85.0,48.0,60.0,1.0,64.0
5826,84.0,73.0,60.0,1.0,64.0
5827,84.0,60.0,60.0,1.0,64.0
5828,82.0,62.0,60.0,1.0,64.0
5829,89.0,51.0,60.0,1.0,64.0
5830,87.0,94.0,60.0,1.0,64.0
5831,87.0,46.0,90.0,1.0,64.0
5832,85.0,0.0,90.0,1.0,64.0
5833,75.0,110.0,150.0,2.0,64.0
5834,84.0,43.0,60.0,1.0,64.0
5835,63.0,129.0,240.0,4.0,64.0
5836,67.0,1.0,150.0,4.0,64.0
5837,73.0,4.0,120.0,2.0,64.0
5838,82.0,18.0,60.0,1.0,64.0
5839,82.0,8.0,240.0,1.0,64.0
5840,68.0,238.0,270.0,4.0,64.0
5841,73.0,0.0,270.0,2.0,64.0
5842,63.0,3.0,120.0,4.0,64.0
5843,80.0,10.0,240.0,2.0,64.0
5844,56.0,214.0,510.0,4.0,64.0
5845,72.0,245.0,240.0,2.0,64.0
5846,80.0,21.0,240.0,2.0,64.0
5847,73.0,34.0,420.0,2.0,64.0
5848,61.0,71.0,240.0,4.0,64.0
5849,65.0,0.0,240.0,4.0,64.0
5850,66.0,0.0,240.0,4.0,64.0
5851,75.0,59.0,60.0,2.0,64.0
5852,56.0,4.0,240.0,4.0,64.0
5853,73.0,58.0,60.0,2.0,64.0
5854,75.0,53.0,60.0,2.0,64.0
5855,72.0,108.0,60.0,2.0,64.0
5856,65.0,21.0,120.0,4.0,64.0
5857,73.0,117.0,150.0,2.0,64.0
5858,61.0,1.0,150.0,4.0,64.0
5859,80.0,120.0,120.0,2.0,64.0
5860,68.0,1.0,120.0,4.0,64.0
5861,65.0,0.0,120.0,4.0,64.0
5862,53.0,1.0,120.0,4.0,64.0
5863,67.0,123.0,120.0,4.0,64.0
5864,79.0,0.0,120.0,2.0,64.0
5865,52.0,1.0,120.0,4.0,64.0
5866,64.0,0.0,120.0,4.0,64.0
5867,80.0,126.0,150.0,2.0,64.0
5868,68.0,0.0,150.0,4.0,64.0
5869,65.0,1.0,150.0,4.0,64.0
5870,53.0,0.0,150.0,4.0,64.0
5871,63.0,0.0,150.0,4.0,64.0
5872,66.0,166.0,150.0,4.0,64.0
5873,78.0,0.0,150.0,2.0,64.0
5874,51.0,1.0,150.0,4.0,64.0
5875,77.0,206.0,180.0,2.0,64.0
5876,61.0,0.0,420.0,4.0,64.0
5877,65.0,207.0,420.0,4.0,64.0
5878,49.0,1.0,420.0,4.0,64.0
5879,80.0,21.0,270.0,2.0,64.0
5880,75.0,21.0,420.0,2.0,64.0
5881,68.0,14.0,240.0,4.0,64.0
5882,60.0,108.0,240.0,4.0,64.0
5883,68.0,13.0,240.0,4.0,64.0
5884,77.0,79.0,120.0,2.0,64.0
5885,61.0,72.0,240.0,4.0,64.0
5886,75.0,34.0,120.0,2.0,64.0
5887,77.0,1.0,90.0,2.0,64.0
5888,73.0,38.0,120.0,2.0,64.0
5889,78.0,23.0,120.0,2.0,64.0
5890,63.0,1.0,120.0,4.0,64.0
5891,68.0,122.0,150.0,4.0,64.0
5892,66.0,0.0,150.0,4.0,64.0
5893,78.0,0.0,150.0,2.0,64.0
5894,51.0,1.0,120.0,4.0,64.0
5895,63.0,120.0,120.0,4.0,64.0
5896,65.0,0.0,120.0,4.0,64.0
5897,77.0,117.0,150.0,2.0,64.0
5898,50.0,1.0,120.0,4.0,64.0
5899,62.0,1.0,120.0,4.0,64.0
5900,66.0,0.0,120.0,4.0,64.0
5901,78.0,117.0,120.0,2.0,64.0
5902,51.0,1.0,120.0,4.0,64.0
5903,63.0,1.0,120.0,4.0,64.0
5904,65.0,0.0,120.0,4.0,64.0
5905,77.0,118.0,120.0,2.0,64.0
5906,49.0,1.0,120.0,4.0,64.0
5907,61.0,1.0,120.0,4.0,64.0
5908,63.0,23.0,390.0,4.0,64.0
5909,75.0,29.0,120.0,2.0,64.0
5910,48.0,1.0,360.0,4.0,64.0
5911,60.0,0.0,360.0,4.0,64.0
5912,79.0,31.0,30.0,2.0,64.0
5913,80.0,32.0,30.0,2.0,64.0
5914,82.0,33.0,30.0,1.0,64.0
5915,80.0,34.0,30.0,2.0,64.0
5916,82.0,30.0,30.0,1.0,64.0
5917,80.0,33.0,30.0,2.0,64.0
5918,82.0,23.0,30.0,1.0,64.0
5919,80.0,33.0,60.0,2.0,64.0
5920,82.0,32.0,60.0,1.0,64.0
5921,53.0,18.0,270.0,4.0,64.0
5922,65.0,0.0,270.0,4.0,64.0
5923,80.0,33.0,60.0,2.0,64.0
5924,82.0,34.0,60.0,1.0,64.0
5925,80.0,33.0,60.0,2.0,64.0
5926,82.0,33.0,60.0,1.0,64.0
5927,80.0,34.0,60.0,2.0,64.0
5928,82.0,15.0,60.0,1.0,64.0
5929,80.0,94.0,60.0,2.0,64.0
5930,63.0,0.0,510.0,4.0,64.0
5931,82.0,100.0,120.0,1.0,64.0
5932,51.0,5.0,510.0,4.0,64.0
5933,78.0,71.0,150.0,2.0,64.0
5934,75.0,27.0,30.0,2.0,64.0
5935,77.0,32.0,30.0,2.0,64.0
5936,78.0,31.0,30.0,2.0,64.0
5937,77.0,33.0,30.0,2.0,64.0
5938,78.0,31.0,30.0,2.0,64.0
5939,77.0,32.0,30.0,2.0,64.0
5940,78.0,28.0,30.0,2.0,64.0
5941,77.0,34.0,30.0,2.0,64.0
5942,68.0,79.0,270.0,4.0,64.0
5943,78.0,31.0,30.0,2.0,64.0
5944,56.0,1.0,270.0,4.0,64.0
5945,77.0,33.0,30.0,2.0,64.0
5946,78.0,34.0,30.0,2.0,64.0
5947,77.0,33.0,30.0,2.0,64.0
5948,78.0,31.0,30.0,2.0,64.0
5949,77.0,32.0,30.0,2.0,64.0
5950,78.0,26.0,30.0,2.0,64.0
5951,77.0,3.0,30.0,2.0,64.0
5952,78.0,163.0,90.0,2.0,64.0
5953,54.0,203.0,1020.0,4.0,64.0
5954,66.0,24.0,630.0,4.0,64.0
5955,75.0,82.0,180.0,2.0,64.0
5956,73.0,60.0,90.0,2.0,64.0
5957,75.0,76.0,60.0,2.0,64.0
5958,73.0,54.0,90.0,2.0,64.0
5959,72.0,106.0,60.0,2.0,64.0
5960,73.0,127.0,150.0,2.0,64.0
5961,75.0,0.0,150.0,2.0,64.0
5962,66.0,1.0,150.0,4.0,64.0
5963,72.0,126.0,150.0,2.0,64.0
5964,73.0,124.0,150.0,2.0,64.0
5965,77.0,0.0,150.0,2.0,64.0
5966,65.0,1.0,150.0,4.0,64.0
5967,78.0,6.0,150.0,2.0,64.0
5968,75.0,1.0,150.0,2.0,64.0
5969,63.0,0.0,150.0,4.0,64.0
5970,80.0,0.0,210.0,2.0,64.0
5971,61.0,1.0,210.0,4.0,64.0
5972,77.0,33.0,210.0,2.0,64.0
5973,53.0,60.0,150.0,4.0,64.0
5974,82.0,61.0,60.0,1.0,64.0
5975,56.0,69.0,750.0,4.0,64.0
5976,78.0,1.0,60.0,2.0,64.0
5977,77.0,61.0,60.0,2.0,64.0
5978,80.0,0.0,60.0,2.0,64.0
5979,78.0,61.0,60.0,2.0,64.0
5980,75.0,1.0,60.0,2.0,64.0
5981,77.0,245.0,60.0,2.0,64.0
5982,73.0,0.0,60.0,2.0,64.0
5983,72.0,248.0,270.0,2.0,64.0
5984,75.0,0.0,270.0,2.0,64.0
5985,73.0,108.0,330.0,2.0,64.0
5986,61.0,1.0,240.0,4.0,64.0
5987,65.0,49.0,240.0,4.0,64.0
5988,68.0,73.0,240.0,4.0,64.0
5989,77.0,62.0,60.0,2.0,64.0
5990,77.0,13.0,60.0,2.0,64.0
5991,77.0,0.0,60.0,2.0,64.0
5992,56.0,1.0,240.0,4.0,64.0
5993,63.0,136.0,240.0,4.0,64.0
5994,78.0,62.0,60.0,2.0,64.0
5995,75.0,59.0,60.0,2.0,64.0
5996,66.0,3.0,120.0,4.0,64.0
5997,72.0,0.0,60.0,2.0,64.0
5998,65.0,0.0,150.0,4.0,64.0
5999,73.0,129.0,150.0,2.0,64.0
6000,61.0,1.0,150.0,4.0,64.0
6001,89.0,122.0,150.0,1.0,64.0
6002,68.0,0.0,150.0,4.0,64.0
6003,88.0,0.0,150.0,1.0,64.0
6004,67.0,122.0,150.0,4.0,64.0
6005,89.0,124.0,150.0,1.0,64.0
6006,68.0,1.0,120.0,4.0,64.0
6007,66.0,1.0,150.0,4.0,64.0
6008,87.0,125.0,150.0,1.0,64.0
6009,85.0,2.0,150.0,1.0,64.0
6010,65.0,317.0,150.0,4.0,64.0
6011,75.0,92.0,330.0,2.0,64.0
6012,60.0,36.0,240.0,4.0,64.0
6013,56.0,9.0,240.0,4.0,64.0
6014,68.0,22.0,240.0,4.0,64.0
6015,78.0,52.0,60.0,2.0,64.0
6016,78.0,17.0,60.0,2.0,64.0
6017,61.0,132.0,240.0,4.0,64.0
6018,78.0,62.0,60.0,2.0,64.0
6019,56.0,20.0,240.0,4.0,64.0
6020,77.0,64.0,60.0,2.0,64.0
6021,80.0,39.0,60.0,2.0,64.0
6022,78.0,4.0,60.0,2.0,64.0
6023,75.0,4.0,150.0,2.0,64.0
6024,60.0,128.0,150.0,4.0,64.0
6025,56.0,0.0,150.0,4.0,64.0
6026,87.0,122.0,150.0,1.0,64.0
6027,66.0,1.0,150.0,4.0,64.0
6028,86.0,122.0,150.0,1.0,64.0
6029,65.0,1.0,150.0,4.0,64.0
6030,87.0,124.0,150.0,1.0,64.0
6031,66.0,1.0,150.0,4.0,64.0
6032,85.0,126.0,150.0,1.0,64.0
6033,65.0,0.0,150.0,4.0,64.0
6034,63.0,1.0,150.0,4.0,64.0
6035,84.0,309.0,150.0,1.0,64.0
6036,80.0,27.0,330.0,2.0,64.0
6037,73.0,6.0,270.0,2.0,64.0
6038,65.0,1.0,270.0,4.0,64.0
6039,68.0,0.0,270.0,4.0,64.0
6040,82.0,44.0,60.0,1.0,64.0
6041,84.0,44.0,60.0,1.0,64.0
6042,85.0,45.0,60.0,1.0,64.0
6043,87.0,36.0,60.0,1.0,64.0
6044,89.0,199.0,60.0,1.0,64.0
6045,90.0,45.0,210.0,1.0,64.0
6046,66.0,39.0,510.0,4.0,64.0
6047,72.0,0.0,510.0,2.0,64.0
6048,63.0,1.0,510.0,4.0,64.0
6049,78.0,247.0,30.0,2.0,64.0
6050,77.0,50.0,300.0,2.0,64.0
6051,65.0,0.0,270.0,4.0,64.0
6052,68.0,217.0,270.0,4.0,64.0
6053,61.0,1.0,270.0,4.0,64.0
6054,78.0,48.0,60.0,2.0,64.0
6055,80.0,46.0,60.0,2.0,64.0
6056,82.0,45.0,60.0,1.0,64.0
6057,84.0,43.0,60.0,1.0,64.0
6058,85.0,4.0,30.0,1.0,64.0
6059,87.0,41.0,210.0,1.0,64.0
6060,56.0,4.0,360.0,4.0,64.0
6061,60.0,97.0,390.0,4.0,64.0
6062,54.0,1.0,390.0,4.0,64.0
6063,84.0,56.0,30.0,1.0,64.0
6064,87.0,57.0,60.0,1.0,64.0
6065,85.0,42.0,150.0,1.0,64.0
6066,61.0,16.0,240.0,4.0,64.0
6067,53.0,1.0,270.0,4.0,64.0
6068,56.0,91.0,270.0,4.0,64.0
6069,80.0,59.0,30.0,2.0,64.0
6070,83.0,48.0,60.0,1.0,64.0
6071,82.0,43.0,150.0,1.0,64.0
6072,61.0,0.0,240.0,4.0,64.0
6073,54.0,77.0,510.0,4.0,64.0
6074,58.0,107.0,240.0,4.0,64.0
6075,77.0,55.0,30.0,2.0,64.0
6076,80.0,53.0,60.0,2.0,64.0
6077,78.0,37.0,150.0,2.0,64.0
6078,66.0,11.0,240.0,4.0,64.0
6079,58.0,129.0,390.0,4.0,64.0
6080,61.0,0.0,390.0,4.0,64.0
6081,73.0,54.0,30.0,2.0,64.0
6082,77.0,58.0,60.0,2.0,64.0
6083,75.0,46.0,150.0,2.0,64.0
6084,56.0,162.0,270.0,4.0,64.0
6085,66.0,4.0,120.0,4.0,64.0
6086,72.0,1.0,60.0,2.0,64.0
6087,66.0,0.0,270.0,4.0,64.0
6088,72.0,0.0,270.0,2.0,64.0
6089,61.0,132.0,270.0,4.0,64.0
6090,56.0,29.0,270.0,4.0,64.0
6091,73.0,145.0,180.0,2.0,64.0
6092,49.0,12.0,300.0,4.0,64.0
6093,65.0,1.0,180.0,4.0,64.0
6094,69.0,130.0,180.0,4.0,64.0
6095,70.0,48.0,300.0,4.0,64.0
6096,58.0,48.0,150.0,4.0,64.0
6097,65.0,87.0,120.0,4.0,64.0
6098,61.0,5.0,150.0,4.0,64.0
6099,65.0,50.0,150.0,4.0,64.0
6100,58.0,29.0,150.0,4.0,64.0
6101,77.0,38.0,60.0,2.0,64.0
6102,65.0,46.0,120.0,4.0,64.0
6103,77.0,20.0,30.0,2.0,64.0
6104,61.0,29.0,150.0,4.0,64.0
6105,77.0,39.0,60.0,2.0,64.0
6106,65.0,49.0,120.0,4.0,64.0
6107,58.0,30.0,150.0,4.0,64.0
6108,77.0,19.0,60.0,2.0,64.0
6109,65.0,56.0,120.0,4.0,64.0
6110,77.0,37.0,60.0,2.0,64.0
6111,77.0,21.0,60.0,2.0,64.0
6112,61.0,25.0,150.0,4.0,64.0
6113,77.0,33.0,60.0,2.0,64.0
6114,65.0,8.0,150.0,4.0,64.0
6115,78.0,28.0,60.0,2.0,64.0
6116,57.0,23.0,180.0,4.0,64.0
6117,77.0,37.0,30.0,2.0,64.0
6118,78.0,35.0,30.0,2.0,64.0
6119,63.0,8.0,150.0,4.0,64.0
6120,77.0,14.0,30.0,2.0,64.0
6121,78.0,31.0,30.0,2.0,64.0
6122,60.0,28.0,150.0,4.0,64.0
6123,77.0,35.0,30.0,2.0,64.0
6124,75.0,48.0,30.0,2.0,64.0
6125,63.0,49.0,120.0,4.0,64.0
6126,77.0,20.0,90.0,2.0,64.0
6127,57.0,31.0,150.0,4.0,64.0
6128,77.0,39.0,60.0,2.0,64.0
6129,63.0,48.0,150.0,4.0,64.0
6130,77.0,21.0,60.0,2.0,64.0
6131,60.0,31.0,150.0,4.0,64.0
6132,77.0,38.0,60.0,2.0,64.0
6133,63.0,48.0,120.0,4.0,64.0
6134,77.0,21.0,60.0,2.0,64.0
6135,57.0,30.0,150.0,4.0,64.0
6136,77.0,38.0,60.0,2.0,64.0
6137,63.0,65.0,120.0,4.0,64.0
6138,77.0,21.0,60.0,2.0,64.0
6139,60.0,23.0,150.0,4.0,64.0
6140,77.0,26.0,60.0,2.0,64.0
6141,63.0,9.0,150.0,4.0,64.0
6142,78.0,31.0,30.0,2.0,64.0
6143,56.0,26.0,180.0,4.0,64.0
6144,77.0,35.0,30.0,2.0,64.0
6145,62.0,8.0,150.0,4.0,64.0
6146,78.0,41.0,30.0,2.0,64.0
6147,77.0,12.0,30.0,2.0,64.0
6148,78.0,30.0,30.0,2.0,64.0
6149,59.0,28.0,150.0,4.0,64.0
6150,77.0,35.0,30.0,2.0,64.0
6151,75.0,46.0,30.0,2.0,64.0
6152,62.0,48.0,120.0,4.0,64.0
6153,77.0,22.0,90.0,2.0,64.0
6154,56.0,29.0,150.0,4.0,64.0
6155,77.0,39.0,60.0,2.0,64.0
6156,62.0,50.0,120.0,4.0,64.0
6157,77.0,19.0,60.0,2.0,64.0
6158,59.0,31.0,150.0,4.0,64.0
6159,77.0,40.0,60.0,2.0,64.0
6160,62.0,49.0,150.0,4.0,64.0
6161,77.0,19.0,60.0,2.0,64.0
6162,56.0,31.0,150.0,4.0,64.0
6163,62.0,84.0,150.0,4.0,64.0
6164,77.0,40.0,60.0,2.0,64.0
6165,77.0,21.0,60.0,2.0,64.0
6166,59.0,52.0,150.0,4.0,64.0
6167,77.0,5.0,90.0,2.0,64.0
6168,62.0,89.0,150.0,4.0,64.0
6169,82.0,24.0,180.0,1.0,64.0
6170,55.0,27.0,150.0,4.0,64.0
6171,63.0,72.0,150.0,4.0,64.0
6172,58.0,50.0,150.0,4.0,64.0
6173,79.0,19.0,60.0,2.0,64.0
6174,63.0,75.0,150.0,4.0,64.0
6175,75.0,13.0,570.0,2.0,64.0
6176,55.0,69.0,150.0,4.0,64.0
6177,63.0,71.0,150.0,4.0,64.0
6178,55.0,69.0,150.0,4.0,64.0
6179,63.0,88.0,150.0,4.0,64.0
6180,55.0,50.0,150.0,4.0,64.0
6181,63.0,71.0,150.0,4.0,64.0
6182,58.0,49.0,150.0,4.0,64.0
6183,63.0,85.0,120.0,4.0,64.0
6184,85.0,6.0,180.0,1.0,64.0
6185,54.0,44.0,150.0,4.0,64.0
6186,64.0,81.0,120.0,4.0,64.0
6187,58.0,50.0,150.0,4.0,64.0
6188,82.0,9.0,90.0,1.0,64.0
6189,64.0,87.0,150.0,4.0,64.0
6190,76.0,26.0,390.0,2.0,64.0
6191,54.0,53.0,150.0,4.0,64.0
6192,64.0,91.0,150.0,4.0,64.0
6193,58.0,48.0,150.0,4.0,64.0
6194,64.0,60.0,120.0,4.0,64.0
6195,54.0,67.0,150.0,4.0,64.0
6196,61.0,4.0,90.0,4.0,64.0
6197,76.0,147.0,150.0,2.0,64.0
6198,58.0,57.0,90.0,4.0,64.0
6199,61.0,9.0,60.0,4.0,64.0
6200,77.0,34.0,180.0,2.0,64.0
6201,53.0,157.0,840.0,4.0,64.0
6202,57.0,0.0,840.0,4.0,64.0
6203,65.0,42.0,90.0,4.0,64.0
6204,64.0,68.0,60.0,4.0,64.0
6205,65.0,72.0,60.0,4.0,64.0
6206,64.0,69.0,60.0,4.0,64.0
6207,65.0,72.0,60.0,4.0,64.0
6208,64.0,64.0,60.0,4.0,64.0
6209,65.0,74.0,60.0,4.0,64.0
6210,64.0,64.0,60.0,4.0,64.0
6211,65.0,72.0,60.0,4.0,64.0
6212,64.0,70.0,60.0,4.0,64.0
6213,65.0,1.0,60.0,4.0,64.0
6214,66.0,20.0,420.0,4.0,64.0
6215,54.0,52.0,150.0,4.0,64.0
6216,61.0,90.0,150.0,4.0,64.0
6217,56.0,52.0,150.0,4.0,64.0
6218,61.0,71.0,150.0,4.0,64.0
6219,58.0,13.0,150.0,4.0,64.0
6220,61.0,71.0,150.0,4.0,64.0
6221,65.0,24.0,30.0,4.0,64.0
6222,59.0,52.0,180.0,4.0,64.0
6223,66.0,25.0,30.0,4.0,64.0
6224,65.0,15.0,90.0,4.0,64.0
6225,61.0,74.0,120.0,4.0,64.0
6226,58.0,14.0,150.0,4.0,64.0
6227,66.0,20.0,150.0,4.0,64.0
6228,61.0,73.0,150.0,4.0,64.0
6229,59.0,52.0,180.0,4.0,64.0
6230,65.0,22.0,30.0,4.0,64.0
6231,66.0,25.0,30.0,4.0,64.0
6232,65.0,16.0,90.0,4.0,64.0
6233,61.0,64.0,150.0,4.0,64.0
6234,58.0,16.0,150.0,4.0,64.0
6235,66.0,29.0,120.0,4.0,64.0
6236,61.0,71.0,150.0,4.0,64.0
6237,68.0,27.0,30.0,4.0,64.0
6238,53.0,49.0,180.0,4.0,64.0
6239,70.0,19.0,30.0,4.0,64.0
6240,68.0,15.0,90.0,4.0,64.0
6241,61.0,67.0,120.0,4.0,64.0
6242,70.0,20.0,120.0,4.0,64.0
6243,54.0,50.0,150.0,4.0,64.0
6244,61.0,15.0,120.0,4.0,64.0
6245,56.0,50.0,150.0,4.0,64.0
6246,73.0,58.0,90.0,2.0,64.0
6247,71.0,12.0,60.0,2.0,64.0
6248,61.0,90.0,120.0,4.0,64.0
6249,70.0,53.0,150.0,4.0,64.0
6250,54.0,0.0,150.0,4.0,64.0
6251,61.0,67.0,150.0,4.0,64.0
6252,68.0,26.0,120.0,4.0,64.0
6253,53.0,48.0,150.0,4.0,64.0
6254,61.0,91.0,150.0,4.0,64.0
6255,68.0,22.0,420.0,4.0,64.0
6256,49.0,49.0,150.0,4.0,64.0
6257,61.0,90.0,150.0,4.0,64.0
6258,51.0,50.0,150.0,4.0,64.0
6259,61.0,67.0,150.0,4.0,64.0
6260,53.0,15.0,150.0,4.0,64.0
6261,61.0,31.0,150.0,4.0,64.0
6262,68.0,33.0,30.0,4.0,64.0
6263,51.0,46.0,150.0,4.0,64.0
6264,67.0,8.0,30.0,4.0,64.0
6265,61.0,78.0,120.0,4.0,64.0
6266,68.0,31.0,30.0,4.0,64.0
6267,67.0,22.0,30.0,4.0,64.0
6268,53.0,10.0,150.0,4.0,64.0
6269,68.0,13.0,150.0,4.0,64.0
6270,61.0,75.0,150.0,4.0,64.0
6271,67.0,21.0,30.0,4.0,64.0
6272,51.0,52.0,180.0,4.0,64.0
6273,68.0,27.0,30.0,4.0,64.0
6274,67.0,16.0,120.0,4.0,64.0
6275,61.0,76.0,150.0,4.0,64.0
6276,68.0,15.0,150.0,4.0,64.0
6277,53.0,19.0,150.0,4.0,64.0
6278,61.0,75.0,150.0,4.0,64.0
6279,70.0,1.0,20.0,4.0,64.0
6280,54.0,52.0,150.0,4.0,64.0
6281,71.0,37.0,15.0,2.0,64.0
6282,70.0,14.0,120.0,4.0,64.0
6283,61.0,80.0,150.0,4.0,64.0
6284,71.0,7.0,150.0,2.0,64.0
6285,56.0,51.0,150.0,4.0,64.0
6286,61.0,8.0,120.0,4.0,64.0
6287,75.0,69.0,60.0,2.0,64.0
6288,58.0,50.0,150.0,4.0,64.0
6289,73.0,3.0,60.0,2.0,64.0
6290,61.0,71.0,120.0,4.0,64.0
6291,71.0,14.0,120.0,2.0,64.0
6292,56.0,50.0,150.0,4.0,64.0
6293,61.0,26.0,120.0,4.0,64.0
6294,54.0,32.0,300.0,4.0,64.0
6295,70.0,67.0,90.0,4.0,64.0
6296,61.0,3.0,240.0,4.0,64.0
6297,70.0,123.0,60.0,4.0,64.0
6298,70.0,111.0,180.0,4.0,64.0
6299,82.0,20.0,120.0,1.0,64.0
6300,82.0,29.0,300.0,1.0,64.0
6301,61.0,157.0,120.0,4.0,64.0
6302,58.0,1.0,120.0,4.0,64.0
6303,54.0,0.0,120.0,4.0,64.0
6304,61.0,0.0,690.0,4.0,64.0
6305,54.0,35.0,690.0,4.0,64.0
6306,58.0,0.0,690.0,4.0,64.0
6307,80.0,92.0,60.0,2.0,64.0
6308,78.0,33.0,120.0,2.0,64.0
6309,77.0,104.0,30.0,2.0,64.0
6310,75.0,23.0,120.0,2.0,64.0
6311,74.0,127.0,30.0,2.0,64.0
6312,75.0,135.0,120.0,2.0,64.0
6313,66.0,94.0,180.0,4.0,64.0
6314,78.0,4.0,120.0,2.0,64.0
6315,60.0,0.0,120.0,4.0,64.0
6316,78.0,61.0,240.0,2.0,64.0
6317,51.0,1.0,120.0,4.0,64.0
6318,56.0,105.0,120.0,4.0,64.0
6319,56.0,1.0,810.0,4.0,64.0
6320,60.0,0.0,810.0,4.0,64.0
6321,51.0,1.0,810.0,4.0,64.0
6322,77.0,93.0,60.0,2.0,64.0
6323,75.0,29.0,120.0,2.0,64.0
6324,73.0,96.0,30.0,2.0,64.0
6325,72.0,48.0,90.0,2.0,64.0
6326,70.0,127.0,60.0,4.0,64.0
6327,68.0,255.0,150.0,4.0,64.0
6328,68.0,134.0,240.0,4.0,64.0
6329,80.0,123.0,270.0,2.0,64.0
6330,56.0,0.0,270.0,4.0,64.0
6331,61.0,14.0,240.0,4.0,64.0
6332,53.0,115.0,270.0,4.0,64.0
6333,73.0,134.0,240.0,2.0,64.0
6334,61.0,114.0,510.0,4.0,64.0
6335,85.0,24.0,240.0,1.0,64.0
6336,58.0,1.0,510.0,4.0,64.0
6337,78.0,125.0,150.0,2.0,64.0
6338,77.0,110.0,150.0,2.0,64.0
6339,80.0,138.0,240.0,2.0,64.0
6340,60.0,0.0,480.0,4.0,64.0
6341,56.0,11.0,480.0,4.0,64.0
6342,79.0,122.0,120.0,2.0,64.0
6343,78.0,112.0,120.0,2.0,64.0
6344,44.0,4.0,270.0,4.0,64.0
6345,75.0,60.0,150.0,2.0,64.0
6346,61.0,48.0,150.0,4.0,64.0
6347,77.0,64.0,60.0,2.0,64.0
6348,80.0,2.0,60.0,2.0,64.0
6349,68.0,12.0,120.0,4.0,64.0
6350,82.0,63.0,60.0,1.0,64.0
6351,65.0,44.0,150.0,4.0,64.0
6352,68.0,12.0,120.0,4.0,64.0
6353,84.0,2.0,60.0,1.0,64.0
6354,85.0,61.0,60.0,1.0,64.0
6355,61.0,42.0,120.0,4.0,64.0
6356,87.0,4.0,60.0,1.0,64.0
6357,68.0,12.0,120.0,4.0,64.0
6358,89.0,61.0,60.0,1.0,64.0
6359,65.0,56.0,120.0,4.0,64.0
6360,68.0,10.0,120.0,4.0,64.0
6361,90.0,2.0,60.0,1.0,64.0
6362,92.0,59.0,90.0,1.0,64.0
6363,61.0,44.0,150.0,4.0,64.0
6364,89.0,1.0,60.0,1.0,64.0
6365,68.0,14.0,120.0,4.0,64.0
6366,84.0,64.0,60.0,1.0,64.0
6367,65.0,46.0,150.0,4.0,64.0
6368,68.0,13.0,120.0,4.0,64.0
6369,85.0,4.0,60.0,1.0,64.0
6370,90.0,58.0,60.0,1.0,64.0
6371,63.0,43.0,150.0,4.0,64.0
6372,87.0,4.0,60.0,1.0,64.0
6373,68.0,12.0,120.0,4.0,64.0
6374,66.0,46.0,120.0,4.0,64.0
6375,82.0,55.0,60.0,1.0,64.0
6376,84.0,4.0,60.0,1.0,64.0
6377,68.0,12.0,120.0,4.0,64.0
6378,87.0,55.0,60.0,1.0,64.0
6379,60.0,44.0,120.0,4.0,64.0
6380,84.0,4.0,60.0,1.0,64.0
6381,68.0,14.0,120.0,4.0,64.0
6382,63.0,46.0,120.0,4.0,64.0
6383,79.0,61.0,60.0,2.0,64.0
6384,68.0,14.0,120.0,4.0,64.0
6385,80.0,4.0,60.0,2.0,64.0
6386,56.0,44.0,120.0,4.0,64.0
6387,82.0,57.0,60.0,1.0,64.0
6388,78.0,2.0,60.0,2.0,64.0
6389,68.0,13.0,120.0,4.0,64.0
6390,60.0,46.0,120.0,4.0,64.0
6391,74.0,62.0,60.0,2.0,64.0
6392,75.0,2.0,60.0,2.0,64.0
6393,68.0,12.0,120.0,4.0,64.0
6394,61.0,44.0,150.0,4.0,64.0
6395,77.0,59.0,60.0,2.0,64.0
6396,80.0,4.0,60.0,2.0,64.0
6397,68.0,13.0,120.0,4.0,64.0
6398,65.0,44.0,150.0,4.0,64.0
6399,82.0,62.0,60.0,1.0,64.0
6400,84.0,5.0,60.0,1.0,64.0
6401,68.0,12.0,120.0,4.0,64.0
6402,85.0,58.0,60.0,1.0,64.0
6403,61.0,44.0,120.0,4.0,64.0
6404,87.0,2.0,60.0,1.0,64.0
6405,68.0,13.0,120.0,4.0,64.0
6406,65.0,50.0,120.0,4.0,64.0
6407,89.0,60.0,60.0,1.0,64.0
6408,68.0,14.0,120.0,4.0,64.0
6409,90.0,2.0,60.0,1.0,64.0
6410,61.0,42.0,120.0,4.0,64.0
6411,92.0,55.0,90.0,1.0,64.0
6412,89.0,4.0,60.0,1.0,64.0
6413,68.0,15.0,120.0,4.0,64.0
6414,84.0,64.0,60.0,1.0,64.0
6415,65.0,46.0,150.0,4.0,64.0
6416,68.0,12.0,120.0,4.0,64.0
6417,85.0,4.0,60.0,1.0,64.0
6418,90.0,59.0,60.0,1.0,64.0
6419,63.0,44.0,150.0,4.0,64.0
6420,87.0,4.0,60.0,1.0,64.0
6421,68.0,14.0,120.0,4.0,64.0
6422,82.0,55.0,60.0,1.0,64.0
6423,66.0,46.0,120.0,4.0,64.0
6424,68.0,11.0,120.0,4.0,64.0
6425,84.0,2.0,60.0,1.0,64.0
6426,87.0,56.0,60.0,1.0,64.0
6427,60.0,42.0,120.0,4.0,64.0
6428,84.0,4.0,60.0,1.0,64.0
6429,68.0,11.0,120.0,4.0,64.0
6430,63.0,44.0,120.0,4.0,64.0
6431,79.0,58.0,60.0,2.0,64.0
6432,80.0,2.0,60.0,2.0,64.0
6433,68.0,15.0,120.0,4.0,64.0
6434,56.0,47.0,120.0,4.0,64.0
6435,82.0,55.0,60.0,1.0,64.0
6436,78.0,1.0,60.0,2.0,64.0
6437,68.0,12.0,120.0,4.0,64.0
6438,60.0,60.0,120.0,4.0,64.0
6439,74.0,61.0,60.0,2.0,64.0
6440,75.0,2.0,60.0,2.0,64.0
6441,68.0,0.0,60.0,4.0,64.0
6442,65.0,65.0,240.0,4.0,64.0
6443,77.0,61.0,60.0,2.0,64.0
6444,61.0,4.0,240.0,4.0,64.0
6445,80.0,60.0,60.0,2.0,64.0
6446,85.0,42.0,60.0,1.0,64.0
6447,84.0,11.0,60.0,1.0,64.0
6448,61.0,70.0,240.0,4.0,64.0
6449,84.0,62.0,60.0,1.0,64.0
6450,54.0,1.0,240.0,4.0,64.0
6451,82.0,63.0,60.0,1.0,64.0
6452,90.0,44.0,60.0,1.0,64.0
6453,89.0,7.0,60.0,1.0,64.0
6454,58.0,68.0,240.0,4.0,64.0
6455,89.0,46.0,60.0,1.0,64.0
6456,55.0,1.0,240.0,4.0,64.0
6457,87.0,77.0,60.0,1.0,64.0
6458,87.0,46.0,60.0,1.0,64.0
6459,85.0,9.0,60.0,1.0,64.0
6460,60.0,67.0,270.0,4.0,64.0
6461,85.0,46.0,60.0,1.0,64.0
6462,56.0,1.0,240.0,4.0,64.0
6463,84.0,79.0,60.0,1.0,64.0
6464,84.0,48.0,60.0,1.0,64.0
6465,82.0,9.0,60.0,1.0,64.0
6466,82.0,48.0,60.0,1.0,64.0
6467,58.0,29.0,960.0,4.0,64.0
6468,61.0,0.0,960.0,4.0,64.0
6469,80.0,70.0,60.0,2.0,64.0
6470,80.0,206.0,60.0,2.0,64.0
6471,79.0,42.0,210.0,2.0,64.0
6472,73.0,60.0,270.0,2.0,64.0
6473,82.0,58.0,60.0,1.0,64.0
6474,70.0,1.0,270.0,4.0,64.0
6475,80.0,68.0,60.0,2.0,64.0
6476,80.0,62.0,60.0,2.0,64.0
6477,79.0,4.0,60.0,2.0,64.0
6478,75.0,0.0,390.0,2.0,64.0
6479,82.0,56.0,60.0,1.0,64.0
6480,72.0,79.0,390.0,2.0,64.0
6481,80.0,64.0,60.0,2.0,64.0
6482,80.0,164.0,60.0,2.0,64.0
6483,78.0,1.0,180.0,2.0,64.0
6484,76.0,1.0,270.0,2.0,64.0
6485,85.0,4.0,270.0,1.0,64.0
6486,73.0,1.0,90.0,2.0,64.0
6487,61.0,57.0,90.0,4.0,64.0
6488,71.0,2.0,60.0,2.0,64.0
6489,59.0,65.0,60.0,4.0,64.0
6490,71.0,2.0,60.0,2.0,64.0
6491,59.0,56.0,60.0,4.0,64.0
6492,69.0,1.0,60.0,4.0,64.0
6493,57.0,66.0,60.0,4.0,64.0
6494,88.0,314.0,270.0,1.0,64.0
6495,85.0,1.0,270.0,1.0,64.0
6496,69.0,1.0,60.0,4.0,64.0
6497,57.0,58.0,60.0,4.0,64.0
6498,68.0,1.0,60.0,4.0,64.0
6499,56.0,63.0,60.0,4.0,64.0
6500,56.0,82.0,60.0,4.0,64.0
6501,68.0,1.0,60.0,4.0,64.0
6502,67.0,0.0,90.0,4.0,64.0
6503,55.0,0.0,90.0,4.0,64.0
6504,64.0,2.0,300.0,4.0,64.0
6505,73.0,5.0,300.0,2.0,64.0
6506,56.0,12.0,690.0,4.0,64.0
6507,79.0,380.0,330.0,2.0,64.0
6508,80.0,2.0,390.0,2.0,64.0
6509,63.0,1.0,390.0,4.0,64.0
6510,72.0,62.0,390.0,2.0,64.0
6511,75.0,32.0,60.0,2.0,64.0
6512,61.0,29.0,180.0,4.0,64.0
6513,73.0,36.0,30.0,2.0,64.0
6514,68.0,14.0,120.0,4.0,64.0
6515,75.0,34.0,60.0,2.0,64.0
6516,73.0,3.0,60.0,2.0,64.0
6517,75.0,18.0,30.0,2.0,64.0
6518,65.0,34.0,150.0,4.0,64.0
6519,73.0,37.0,30.0,2.0,64.0
6520,75.0,33.0,60.0,2.0,64.0
6521,68.0,15.0,120.0,4.0,64.0
6522,73.0,3.0,60.0,2.0,64.0
6523,61.0,33.0,150.0,4.0,64.0
6524,75.0,18.0,60.0,2.0,64.0
6525,73.0,39.0,60.0,2.0,64.0
6526,68.0,19.0,150.0,4.0,64.0
6527,75.0,35.0,60.0,2.0,64.0
6528,73.0,2.0,60.0,2.0,64.0
6529,75.0,21.0,60.0,2.0,64.0
6530,65.0,8.0,150.0,4.0,64.0
6531,73.0,33.0,60.0,2.0,64.0
6532,68.0,46.0,90.0,4.0,64.0
6533,75.0,39.0,60.0,2.0,64.0
6534,73.0,4.0,60.0,2.0,64.0
6535,56.0,35.0,150.0,4.0,64.0
6536,72.0,29.0,60.0,2.0,64.0
6537,68.0,18.0,60.0,4.0,64.0
6538,75.0,35.0,60.0,2.0,64.0
6539,66.0,4.0,90.0,4.0,64.0
6540,72.0,1.0,60.0,2.0,64.0
6541,63.0,54.0,180.0,4.0,64.0
6542,78.0,42.0,60.0,2.0,64.0
6543,75.0,40.0,60.0,2.0,64.0
6544,73.0,41.0,60.0,2.0,64.0
6545,66.0,1.0,90.0,4.0,64.0
6546,72.0,4.0,60.0,2.0,64.0
6547,73.0,11.0,930.0,2.0,64.0
6548,65.0,104.0,60.0,4.0,64.0
6549,61.0,76.0,180.0,4.0,64.0
6550,68.0,2.0,90.0,4.0,64.0
6551,65.0,0.0,90.0,4.0,64.0
6552,67.0,74.0,90.0,4.0,64.0
6553,64.0,1.0,90.0,4.0,64.0
6554,68.0,74.0,90.0,4.0,64.0
6555,65.0,1.0,90.0,4.0,64.0
6556,70.0,70.0,90.0,4.0,64.0
6557,66.0,1.0,90.0,4.0,64.0
6558,65.0,1.0,90.0,4.0,64.0
6559,68.0,73.0,90.0,4.0,64.0
6560,67.0,78.0,90.0,4.0,64.0
6561,64.0,1.0,90.0,4.0,64.0
6562,68.0,78.0,90.0,4.0,64.0
6563,65.0,0.0,90.0,4.0,64.0
6564,66.0,80.0,90.0,4.0,64.0
6565,63.0,1.0,90.0,4.0,64.0
6566,65.0,80.0,90.0,4.0,64.0
6567,61.0,1.0,90.0,4.0,64.0
6568,64.0,64.0,90.0,4.0,64.0
6569,60.0,0.0,90.0,4.0,64.0
6570,65.0,57.0,90.0,4.0,64.0
6571,61.0,1.0,90.0,4.0,64.0
6572,77.0,36.0,60.0,2.0,64.0
6573,56.0,8.0,180.0,4.0,64.0
6574,75.0,35.0,60.0,2.0,64.0
6575,77.0,26.0,60.0,2.0,64.0
6576,63.0,24.0,120.0,4.0,64.0
6577,75.0,32.0,60.0,2.0,64.0
6578,60.0,9.0,150.0,4.0,64.0
6579,77.0,10.0,60.0,2.0,64.0
6580,75.0,35.0,60.0,2.0,64.0
6581,63.0,28.0,120.0,4.0,64.0
6582,77.0,27.0,60.0,2.0,64.0
6583,75.0,33.0,60.0,2.0,64.0
6584,77.0,7.0,60.0,2.0,64.0
6585,56.0,9.0,150.0,4.0,64.0
6586,75.0,35.0,60.0,2.0,64.0
6587,77.0,28.0,60.0,2.0,64.0
6588,63.0,35.0,150.0,4.0,64.0
6589,75.0,37.0,60.0,2.0,64.0
6590,60.0,8.0,180.0,4.0,64.0
6591,77.0,7.0,60.0,2.0,64.0
6592,75.0,38.0,60.0,2.0,64.0
6593,77.0,29.0,60.0,2.0,64.0
6594,63.0,32.0,150.0,4.0,64.0
6595,75.0,39.0,60.0,2.0,64.0
6596,77.0,11.0,60.0,2.0,64.0
6597,56.0,12.0,180.0,4.0,64.0
6598,73.0,33.0,60.0,2.0,64.0
6599,80.0,27.0,60.0,2.0,64.0
6600,65.0,32.0,150.0,4.0,64.0
6601,77.0,38.0,60.0,2.0,64.0
6602,85.0,8.0,60.0,1.0,64.0
6603,61.0,10.0,180.0,4.0,64.0
6604,80.0,44.0,60.0,2.0,64.0
6605,65.0,105.0,180.0,4.0,64.0
6606,77.0,33.0,60.0,2.0,64.0
6607,73.0,42.0,60.0,2.0,64.0
6608,78.0,15.0,930.0,2.0,64.0
6609,60.0,74.0,180.0,4.0,64.0
6610,63.0,9.0,60.0,4.0,64.0
6611,66.0,4.0,90.0,4.0,64.0
6612,63.0,0.0,90.0,4.0,64.0
6613,65.0,72.0,90.0,4.0,64.0
6614,62.0,1.0,90.0,4.0,64.0
6615,63.0,1.0,90.0,4.0,64.0
6616,66.0,78.0,90.0,4.0,64.0
6617,68.0,73.0,90.0,4.0,64.0
6618,65.0,0.0,90.0,4.0,64.0
6619,66.0,75.0,90.0,4.0,64.0
6620,63.0,0.0,90.0,4.0,64.0
6621,65.0,0.0,90.0,4.0,64.0
6622,62.0,79.0,90.0,4.0,64.0
6623,66.0,73.0,90.0,4.0,64.0
6624,63.0,0.0,90.0,4.0,64.0
6625,65.0,76.0,90.0,4.0,64.0
6626,61.0,0.0,90.0,4.0,64.0
6627,63.0,80.0,90.0,4.0,64.0
6628,60.0,1.0,90.0,4.0,64.0
6629,62.0,68.0,90.0,4.0,64.0
6630,59.0,0.0,90.0,4.0,64.0
6631,63.0,156.0,90.0,4.0,64.0
6632,60.0,0.0,90.0,4.0,64.0
6633,80.0,17.0,360.0,2.0,64.0
6634,65.0,54.0,180.0,4.0,64.0
6635,73.0,92.0,150.0,2.0,64.0
6636,68.0,31.0,150.0,4.0,64.0
6637,73.0,27.0,150.0,2.0,64.0
6638,65.0,31.0,150.0,4.0,64.0
6639,79.0,45.0,60.0,2.0,64.0
6640,73.0,29.0,120.0,2.0,64.0
6641,80.0,18.0,60.0,2.0,64.0
6642,82.0,18.0,60.0,1.0,64.0
6643,68.0,52.0,150.0,4.0,64.0
6644,80.0,49.0,60.0,2.0,64.0
6645,73.0,82.0,150.0,2.0,64.0
6646,82.0,14.0,60.0,1.0,64.0
6647,80.0,13.0,150.0,2.0,64.0
6648,63.0,48.0,150.0,4.0,64.0
6649,72.0,81.0,150.0,2.0,64.0
6650,68.0,54.0,150.0,4.0,64.0
6651,78.0,15.0,150.0,2.0,64.0
6652,72.0,101.0,150.0,2.0,64.0
6653,77.0,25.0,360.0,2.0,64.0
6654,61.0,55.0,180.0,4.0,64.0
6655,73.0,94.0,150.0,2.0,64.0
6656,68.0,27.0,180.0,4.0,64.0
6657,73.0,30.0,150.0,2.0,64.0
6658,61.0,33.0,150.0,4.0,64.0
6659,76.0,49.0,60.0,2.0,64.0
6660,68.0,27.0,150.0,4.0,64.0
6661,77.0,17.0,60.0,2.0,64.0
6662,78.0,22.0,60.0,2.0,64.0
6663,65.0,54.0,150.0,4.0,64.0
6664,77.0,65.0,60.0,2.0,64.0
6665,68.0,16.0,150.0,4.0,64.0
6666,80.0,51.0,120.0,2.0,64.0
6667,73.0,20.0,150.0,2.0,64.0
6668,54.0,53.0,150.0,4.0,64.0
6669,63.0,87.0,150.0,4.0,64.0
6670,72.0,6.0,150.0,2.0,64.0
6671,56.0,76.0,150.0,4.0,64.0
6672,63.0,2.0,90.0,4.0,64.0
6673,73.0,60.0,90.0,2.0,64.0
6674,53.0,51.0,360.0,4.0,64.0
6675,65.0,0.0,360.0,4.0,64.0
6676,75.0,92.0,60.0,2.0,64.0
6677,73.0,47.0,90.0,2.0,64.0
6678,72.0,85.0,60.0,2.0,64.0
6679,73.0,101.0,150.0,2.0,64.0
6680,68.0,64.0,150.0,4.0,64.0
6681,75.0,0.0,180.0,2.0,64.0
6682,54.0,1.0,150.0,4.0,64.0
6683,66.0,0.0,150.0,4.0,64.0
6684,72.0,83.0,180.0,2.0,64.0
6685,68.0,70.0,150.0,4.0,64.0
6686,77.0,75.0,180.0,2.0,64.0
6687,65.0,1.0,180.0,4.0,64.0
6688,73.0,0.0,180.0,2.0,64.0
6689,53.0,1.0,180.0,4.0,64.0
6690,68.0,58.0,120.0,4.0,64.0
6691,78.0,141.0,150.0,2.0,64.0
6692,75.0,0.0,150.0,2.0,64.0
6693,63.0,1.0,150.0,4.0,64.0
6694,51.0,0.0,150.0,4.0,64.0
6695,68.0,32.0,300.0,4.0,64.0
6696,80.0,0.0,300.0,2.0,64.0
6697,61.0,1.0,300.0,4.0,64.0
6698,77.0,2.0,300.0,2.0,64.0
6699,49.0,103.0,150.0,4.0,64.0
6700,53.0,105.0,150.0,4.0,64.0
6701,41.0,0.0,150.0,4.0,64.0
6702,44.0,1.0,600.0,4.0,64.0
6703,56.0,108.0,600.0,4.0,64.0
6704,79.0,42.0,60.0,2.0,64.0
6705,80.0,44.0,60.0,2.0,64.0
6706,82.0,41.0,60.0,1.0,64.0
6707,80.0,38.0,60.0,2.0,64.0
6708,78.0,39.0,60.0,2.0,64.0
6709,77.0,259.0,60.0,2.0,64.0
6710,75.0,33.0,270.0,2.0,64.0
6711,65.0,46.0,120.0,4.0,64.0
6712,49.0,7.0,270.0,4.0,64.0
6713,61.0,0.0,270.0,4.0,64.0
6714,73.0,48.0,120.0,2.0,64.0
6715,68.0,39.0,120.0,4.0,64.0
6716,65.0,41.0,120.0,4.0,64.0
6717,73.0,46.0,120.0,2.0,64.0
6718,68.0,46.0,120.0,4.0,64.0
6719,41.0,2.0,270.0,4.0,64.0
6720,65.0,46.0,120.0,4.0,64.0
6721,53.0,6.0,270.0,4.0,64.0
6722,73.0,45.0,120.0,2.0,64.0
6723,68.0,34.0,120.0,4.0,64.0
6724,65.0,49.0,120.0,4.0,64.0
6725,73.0,44.0,120.0,2.0,64.0
6726,68.0,46.0,120.0,4.0,64.0
6727,44.0,18.0,1140.0,4.0,64.0
6728,66.0,50.0,120.0,4.0,64.0
6729,56.0,8.0,270.0,4.0,64.0
6730,75.0,46.0,150.0,2.0,64.0
6731,68.0,42.0,150.0,4.0,64.0
6732,66.0,14.0,150.0,4.0,64.0
6733,72.0,6.0,120.0,2.0,64.0
6734,68.0,119.0,60.0,4.0,64.0
6735,61.0,44.0,120.0,4.0,64.0
6736,73.0,20.0,240.0,2.0,64.0
6737,68.0,43.0,150.0,4.0,64.0
6738,65.0,30.0,120.0,4.0,64.0
6739,63.0,16.0,120.0,4.0,64.0
6740,68.0,46.0,150.0,4.0,64.0
6741,66.0,50.0,150.0,4.0,64.0
6742,72.0,33.0,60.0,2.0,64.0
6743,73.0,20.0,270.0,2.0,64.0
6744,61.0,48.0,150.0,4.0,64.0
6745,68.0,44.0,150.0,4.0,64.0
6746,65.0,30.0,150.0,4.0,64.0
6747,60.0,16.0,150.0,4.0,64.0
6748,68.0,42.0,150.0,4.0,64.0
6749,63.0,52.0,120.0,4.0,64.0
6750,75.0,31.0,60.0,2.0,64.0
6751,77.0,6.0,300.0,2.0,64.0
6752,61.0,46.0,150.0,4.0,64.0
6753,68.0,46.0,150.0,4.0,64.0
6754,65.0,52.0,150.0,4.0,64.0
6755,61.0,18.0,150.0,4.0,64.0
6756,68.0,94.0,150.0,4.0,64.0
6757,65.0,0.0,60.0,4.0,64.0
6758,48.0,0.0,270.0,4.0,64.0
6759,66.0,45.0,120.0,4.0,64.0
6760,60.0,43.0,270.0,4.0,64.0
6761,75.0,43.0,120.0,2.0,64.0
6762,68.0,46.0,120.0,4.0,64.0
6763,66.0,1.0,120.0,4.0,64.0
6764,75.0,50.0,120.0,2.0,64.0
6765,68.0,44.0,120.0,4.0,64.0
6766,44.0,1.0,270.0,4.0,64.0
6767,66.0,54.0,150.0,4.0,64.0
6768,56.0,53.0,270.0,4.0,64.0
6769,75.0,36.0,150.0,2.0,64.0
6770,68.0,39.0,120.0,4.0,64.0
6771,66.0,1.0,120.0,4.0,64.0
6772,72.0,35.0,120.0,2.0,64.0
6773,68.0,40.0,120.0,4.0,64.0
6774,49.0,12.0,1020.0,4.0,64.0
6775,65.0,48.0,120.0,4.0,64.0
6776,61.0,7.0,270.0,4.0,64.0
6777,73.0,40.0,120.0,2.0,64.0
6778,68.0,28.0,120.0,4.0,64.0
6779,65.0,2.0,120.0,4.0,64.0
6780,77.0,18.0,60.0,2.0,64.0
6781,73.0,118.0,60.0,2.0,64.0
6782,75.0,65.0,180.0,2.0,64.0
6783,60.0,42.0,120.0,4.0,64.0
6784,68.0,22.0,120.0,4.0,64.0
6785,63.0,2.0,120.0,4.0,64.0
6786,61.0,15.0,120.0,4.0,64.0
6787,68.0,43.0,120.0,4.0,64.0
6788,65.0,41.0,120.0,4.0,64.0
6789,73.0,29.0,60.0,2.0,64.0
6790,63.0,46.0,120.0,4.0,64.0
6791,72.0,5.0,240.0,2.0,64.0
6792,68.0,44.0,120.0,4.0,64.0
6793,66.0,37.0,120.0,4.0,64.0
6794,61.0,18.0,120.0,4.0,64.0
6795,68.0,47.0,120.0,4.0,64.0
6796,65.0,41.0,120.0,4.0,64.0
6797,73.0,26.0,60.0,2.0,64.0
6798,60.0,40.0,120.0,4.0,64.0
6799,78.0,4.0,240.0,2.0,64.0
6800,68.0,46.0,120.0,4.0,64.0
6801,63.0,23.0,120.0,4.0,64.0
6802,56.0,43.0,120.0,4.0,64.0
6803,68.0,4.0,120.0,4.0,64.0
6804,60.0,111.0,90.0,4.0,64.0
6805,65.0,0.0,270.0,4.0,64.0
6806,53.0,65.0,270.0,4.0,64.0
6807,80.0,2.0,90.0,2.0,64.0
6808,92.0,66.0,90.0,1.0,64.0
6809,79.0,2.0,90.0,2.0,64.0
6810,91.0,52.0,90.0,1.0,64.0
6811,92.0,92.0,120.0,1.0,64.0
6812,80.0,1.0,120.0,2.0,64.0
6813,53.0,95.0,270.0,4.0,64.0
6814,65.0,0.0,270.0,4.0,64.0
6815,73.0,2.0,90.0,2.0,64.0
6816,85.0,74.0,90.0,1.0,64.0
6817,84.0,51.0,90.0,1.0,64.0
6818,72.0,2.0,90.0,2.0,64.0
6819,85.0,4.0,150.0,1.0,64.0
6820,73.0,59.0,150.0,2.0,64.0
6821,63.0,98.0,300.0,4.0,64.0
6822,51.0,1.0,300.0,4.0,64.0
6823,72.0,2.0,90.0,2.0,64.0
6824,84.0,74.0,90.0,1.0,64.0
6825,75.0,2.0,90.0,2.0,64.0
6826,87.0,47.0,90.0,1.0,64.0
6827,90.0,61.0,150.0,1.0,64.0
6828,78.0,1.0,150.0,2.0,64.0
6829,61.0,107.0,300.0,4.0,64.0
6830,49.0,1.0,300.0,4.0,64.0
6831,77.0,6.0,90.0,2.0,64.0
6832,89.0,73.0,90.0,1.0,64.0
6833,76.0,6.0,90.0,2.0,64.0
6834,88.0,38.0,90.0,1.0,64.0
6835,89.0,1.0,150.0,1.0,64.0
6836,77.0,65.0,150.0,2.0,64.0
6837,49.0,35.0,300.0,4.0,64.0
6838,61.0,0.0,300.0,4.0,64.0
6839,80.0,2.0,90.0,2.0,64.0
6840,92.0,65.0,90.0,1.0,64.0
6841,79.0,2.0,90.0,2.0,64.0
6842,91.0,61.0,90.0,1.0,64.0
6843,92.0,74.0,150.0,1.0,64.0
6844,80.0,38.0,120.0,2.0,64.0
6845,66.0,2.0,90.0,4.0,64.0
6846,54.0,5.0,480.0,4.0,64.0
6847,80.0,71.0,90.0,2.0,64.0
6848,68.0,1.0,90.0,4.0,64.0
6849,72.0,5.0,90.0,2.0,64.0
6850,84.0,130.0,90.0,1.0,64.0
6851,75.0,83.0,330.0,2.0,64.0
6852,85.0,4.0,30.0,1.0,64.0
6853,87.0,0.0,15.0,1.0,64.0
6854,85.0,23.0,30.0,1.0,64.0
6855,87.0,15.0,30.0,1.0,64.0
6856,85.0,18.0,20.0,1.0,64.0
6857,84.0,7.0,20.0,1.0,64.0
6858,85.0,48.0,20.0,1.0,64.0
6859,61.0,12.0,330.0,4.0,64.0
6860,89.0,33.0,120.0,1.0,64.0
6861,53.0,1.0,330.0,4.0,64.0
6862,56.0,131.0,330.0,4.0,64.0
6863,80.0,23.0,60.0,2.0,64.0
6864,83.0,1.0,30.0,1.0,64.0
6865,82.0,27.0,30.0,1.0,64.0
6866,83.0,26.0,30.0,1.0,64.0
6867,82.0,27.0,30.0,1.0,64.0
6868,83.0,27.0,30.0,1.0,64.0
6869,82.0,19.0,30.0,1.0,64.0
6870,81.0,1.0,30.0,2.0,64.0
6871,82.0,0.0,20.0,1.0,64.0
6872,61.0,0.0,330.0,4.0,64.0
6873,85.0,36.0,150.0,1.0,64.0
6874,54.0,21.0,480.0,4.0,64.0
6875,58.0,20.0,330.0,4.0,64.0
6876,77.0,1.0,30.0,2.0,64.0
6877,80.0,25.0,30.0,2.0,64.0
6878,78.0,27.0,30.0,2.0,64.0
6879,80.0,24.0,30.0,2.0,64.0
6880,78.0,25.0,30.0,2.0,64.0
6881,80.0,21.0,30.0,2.0,64.0
6882,78.0,25.0,30.0,2.0,64.0
6883,77.0,1.0,30.0,2.0,64.0
6884,78.0,123.0,30.0,2.0,64.0
6885,66.0,0.0,180.0,4.0,64.0
6886,82.0,1.0,150.0,1.0,64.0
6887,58.0,68.0,150.0,4.0,64.0
6888,61.0,14.0,120.0,4.0,64.0
6889,65.0,12.0,180.0,4.0,64.0
6890,56.0,292.0,330.0,4.0,64.0
6891,61.0,0.0,180.0,4.0,64.0
6892,77.0,56.0,90.0,2.0,64.0
6893,73.0,24.0,60.0,2.0,64.0
6894,80.0,46.0,60.0,2.0,64.0
6895,66.0,2.0,150.0,4.0,64.0
6896,78.0,56.0,60.0,2.0,64.0
6897,63.0,1.0,150.0,4.0,64.0
6898,75.0,21.0,60.0,2.0,64.0
6899,72.0,14.0,30.0,2.0,64.0
6900,72.0,2.0,300.0,2.0,64.0
6901,63.0,136.0,300.0,4.0,64.0
6902,66.0,0.0,300.0,4.0,64.0
6903,57.0,1.0,300.0,4.0,64.0
6904,73.0,0.0,180.0,2.0,64.0
6905,61.0,141.0,180.0,4.0,64.0
6906,65.0,24.0,150.0,4.0,64.0
6907,58.0,1.0,150.0,4.0,64.0
6908,71.0,2.0,150.0,2.0,64.0
6909,65.0,237.0,150.0,4.0,64.0
6910,62.0,0.0,150.0,4.0,64.0
6911,56.0,1.0,150.0,4.0,64.0
6912,70.0,0.0,240.0,4.0,64.0
6913,58.0,0.0,270.0,4.0,64.0
6914,63.0,17.0,240.0,4.0,64.0
6915,54.0,126.0,270.0,4.0,64.0
6916,82.0,70.0,270.0,1.0,64.0
6917,63.0,148.0,270.0,4.0,64.0
6918,56.0,15.0,270.0,4.0,64.0
6919,60.0,0.0,270.0,4.0,64.0
6920,80.0,60.0,60.0,2.0,64.0
6921,78.0,40.0,210.0,2.0,64.0
6922,66.0,59.0,270.0,4.0,64.0
6923,56.0,12.0,270.0,4.0,64.0
6924,60.0,0.0,270.0,4.0,64.0
6925,77.0,64.0,60.0,2.0,64.0
6926,75.0,6.0,60.0,2.0,64.0
6927,77.0,59.0,60.0,2.0,64.0
6928,65.0,14.0,150.0,4.0,64.0
6929,56.0,273.0,300.0,4.0,64.0
6930,61.0,0.0,150.0,4.0,64.0
6931,73.0,24.0,60.0,2.0,64.0
6932,80.0,46.0,60.0,2.0,64.0
6933,63.0,10.0,120.0,4.0,64.0
6934,66.0,0.0,120.0,4.0,64.0
6935,78.0,50.0,60.0,2.0,64.0
6936,75.0,16.0,60.0,2.0,64.0
6937,72.0,4.0,30.0,2.0,64.0
6938,63.0,0.0,270.0,4.0,64.0
6939,66.0,0.0,270.0,4.0,64.0
6940,57.0,1.0,270.0,4.0,64.0
6941,72.0,122.0,270.0,2.0,64.0
6942,73.0,0.0,150.0,2.0,64.0
6943,58.0,1.0,120.0,4.0,64.0
6944,61.0,142.0,150.0,4.0,64.0
6945,65.0,9.0,120.0,4.0,64.0
6946,71.0,255.0,150.0,2.0,64.0
6947,65.0,1.0,150.0,4.0,64.0
6948,62.0,0.0,150.0,4.0,64.0
6949,56.0,1.0,150.0,4.0,64.0
6950,70.0,69.0,270.0,4.0,64.0
6951,58.0,1.0,270.0,4.0,64.0
6952,63.0,0.0,270.0,4.0,64.0
6953,54.0,11.0,270.0,4.0,64.0
6954,82.0,98.0,240.0,1.0,64.0
6955,62.0,43.0,60.0,4.0,64.0
6956,54.0,82.0,270.0,4.0,64.0
6957,63.0,4.0,180.0,4.0,64.0
6958,80.0,46.0,90.0,2.0,64.0
6959,78.0,69.0,210.0,2.0,64.0
6960,54.0,81.0,270.0,4.0,64.0
6961,65.0,60.0,60.0,4.0,64.0
6962,66.0,3.0,180.0,4.0,64.0
6963,77.0,55.0,60.0,2.0,64.0
6964,75.0,77.0,180.0,2.0,64.0
6965,65.0,42.0,60.0,4.0,64.0
6966,62.0,1.0,60.0,4.0,64.0
6967,56.0,44.0,750.0,4.0,64.0
6968,66.0,0.0,660.0,4.0,64.0
6969,63.0,29.0,660.0,4.0,64.0
6970,73.0,296.0,60.0,2.0,64.0
6971,72.0,91.0,300.0,2.0,64.0
6972,73.0,58.0,90.0,2.0,64.0
6973,75.0,57.0,60.0,2.0,64.0
6974,77.0,29.0,60.0,2.0,64.0
6975,78.0,9.0,60.0,2.0,64.0
6976,80.0,53.0,60.0,2.0,64.0
6977,53.0,6.0,210.0,4.0,64.0
6978,61.0,22.0,420.0,4.0,64.0
6979,82.0,54.0,60.0,1.0,64.0
6980,84.0,49.0,60.0,1.0,64.0
6981,85.0,55.0,60.0,1.0,64.0
6982,84.0,58.0,60.0,1.0,64.0
6983,54.0,6.0,240.0,4.0,64.0
6984,82.0,58.0,60.0,1.0,64.0
6985,80.0,36.0,60.0,2.0,64.0
6986,78.0,67.0,60.0,2.0,64.0
6987,77.0,69.0,90.0,2.0,64.0
6988,56.0,23.0,390.0,4.0,64.0
6989,61.0,62.0,150.0,4.0,64.0
6990,80.0,4.0,90.0,2.0,64.0
6991,78.0,53.0,90.0,2.0,64.0
6992,60.0,105.0,150.0,4.0,64.0
6993,75.0,16.0,60.0,2.0,64.0
6994,68.0,102.0,420.0,4.0,64.0
6995,75.0,2.0,240.0,2.0,64.0
6996,66.0,24.0,240.0,4.0,64.0
6997,61.0,96.0,150.0,4.0,64.0
6998,56.0,146.0,120.0,4.0,64.0
6999,65.0,28.0,270.0,4.0,64.0
7000,73.0,54.0,300.0,2.0,64.0
7001,49.0,11.0,540.0,4.0,64.0
7002,65.0,69.0,60.0,4.0,64.0
7003,61.0,0.0,60.0,4.0,64.0
7004,68.0,73.0,60.0,4.0,64.0
7005,65.0,0.0,60.0,4.0,64.0
7006,66.0,0.0,60.0,4.0,64.0
7007,63.0,64.0,60.0,4.0,64.0
7008,63.0,1.0,60.0,4.0,64.0
7009,60.0,541.0,60.0,4.0,64.0
7010,63.0,23.0,540.0,4.0,64.0
7011,60.0,1.0,570.0,4.0,64.0
7012,49.0,2.0,570.0,4.0,64.0
7013,56.0,1.0,570.0,4.0,64.0
7014,54.0,2650.0,570.0,4.0,64.0
7015,61.0,2.0,2640.0,4.0,64.0
7016,53.0,544.0,2640.0,4.0,64.0
7017,73.0,210.0,210.0,2.0,64.0
7018,73.0,214.0,210.0,2.0,64.0
7019,66.0,106.0,210.0,4.0,64.0
7020,78.0,8.0,420.0,2.0,64.0
7021,73.0,101.0,210.0,2.0,64.0
7022,70.0,9.0,210.0,4.0,64.0
7023,73.0,104.0,120.0,2.0,64.0
7024,77.0,88.0,120.0,2.0,64.0
7025,63.0,16.0,210.0,4.0,64.0
7026,70.0,17.0,210.0,4.0,64.0
7027,78.0,84.0,120.0,2.0,64.0
7028,66.0,17.0,180.0,4.0,64.0
7029,80.0,82.0,120.0,2.0,64.0
7030,70.0,99.0,210.0,4.0,64.0
7031,82.0,92.0,120.0,1.0,64.0
7032,59.0,99.0,210.0,4.0,64.0
7033,83.0,0.0,210.0,1.0,64.0
7034,80.0,17.0,180.0,2.0,64.0
7035,68.0,1.0,180.0,4.0,64.0
7036,63.0,17.0,210.0,4.0,64.0
7037,83.0,84.0,120.0,1.0,64.0
7038,68.0,15.0,210.0,4.0,64.0
7039,80.0,83.0,120.0,2.0,64.0
7040,61.0,18.0,210.0,4.0,64.0
7041,78.0,87.0,120.0,2.0,64.0
7042,77.0,91.0,120.0,2.0,64.0
7043,71.0,16.0,210.0,2.0,64.0
7044,75.0,90.0,120.0,2.0,64.0
7045,68.0,105.0,210.0,4.0,64.0
7046,71.0,102.0,210.0,2.0,64.0
7047,73.0,0.0,210.0,2.0,64.0
7048,85.0,100.0,210.0,1.0,64.0
7049,66.0,0.0,210.0,4.0,64.0
7050,73.0,103.0,210.0,2.0,64.0
7051,82.0,0.0,210.0,1.0,64.0
7052,70.0,1.0,210.0,4.0,64.0
7053,85.0,103.0,210.0,1.0,64.0
7054,82.0,0.0,210.0,1.0,64.0
7055,73.0,102.0,210.0,2.0,64.0
7056,59.0,101.0,210.0,4.0,64.0
7057,87.0,0.0,210.0,1.0,64.0
7058,68.0,1.0,210.0,4.0,64.0
7059,83.0,99.0,210.0,1.0,64.0
7060,63.0,1.0,210.0,4.0,64.0
7061,87.0,14.0,210.0,1.0,64.0
7062,83.0,4.0,90.0,1.0,64.0
7063,68.0,192.0,120.0,4.0,64.0
7064,66.0,16.0,210.0,4.0,64.0
7065,82.0,187.0,210.0,1.0,64.0
7066,61.0,189.0,840.0,4.0,64.0
7067,80.0,184.0,180.0,2.0,64.0
7068,65.0,10.0,630.0,4.0,64.0
7069,73.0,239.0,180.0,2.0,64.0
7070,73.0,15.0,210.0,2.0,64.0
7071,78.0,0.0,420.0,2.0,64.0
7072,58.0,108.0,210.0,4.0,64.0
7073,66.0,99.0,210.0,4.0,64.0
7074,61.0,100.0,210.0,4.0,64.0
7075,66.0,17.0,180.0,4.0,64.0
7076,82.0,84.0,120.0,1.0,64.0
7077,54.0,18.0,210.0,4.0,64.0
7078,80.0,85.0,120.0,2.0,64.0
7079,63.0,16.0,210.0,4.0,64.0
7080,58.0,17.0,210.0,4.0,64.0
7081,78.0,86.0,120.0,2.0,64.0
7082,63.0,103.0,180.0,4.0,64.0
7083,77.0,82.0,120.0,2.0,64.0
7084,75.0,97.0,210.0,2.0,64.0
7085,56.0,1.0,210.0,4.0,64.0
7086,78.0,0.0,180.0,2.0,64.0
7087,63.0,104.0,180.0,4.0,64.0
7088,60.0,101.0,210.0,4.0,64.0
7089,75.0,0.0,210.0,2.0,64.0
7090,63.0,1.0,210.0,4.0,64.0
7091,78.0,17.0,210.0,2.0,64.0
7092,87.0,82.0,120.0,1.0,64.0
7093,60.0,17.0,210.0,4.0,64.0
7094,85.0,86.0,120.0,1.0,64.0
7095,66.0,16.0,210.0,4.0,64.0
7096,84.0,81.0,120.0,1.0,64.0
7097,63.0,15.0,210.0,4.0,64.0
7098,82.0,104.0,120.0,1.0,64.0
7099,66.0,4.0,90.0,4.0,64.0
7100,65.0,19.0,210.0,4.0,64.0
7101,80.0,82.0,120.0,2.0,64.0
7102,61.0,1.0,210.0,4.0,64.0
7103,85.0,99.0,120.0,1.0,64.0
7104,82.0,82.0,120.0,1.0,64.0
7105,54.0,17.0,180.0,4.0,64.0
7106,63.0,0.0,180.0,4.0,64.0
7107,78.0,102.0,120.0,2.0,64.0
7108,77.0,85.0,120.0,2.0,64.0
7109,56.0,1.0,180.0,4.0,64.0
7110,61.0,18.0,210.0,4.0,64.0
7111,80.0,101.0,120.0,2.0,64.0
7112,60.0,0.0,210.0,4.0,64.0
7113,78.0,85.0,120.0,2.0,64.0
7114,56.0,0.0,210.0,4.0,64.0
7115,75.0,216.0,90.0,2.0,64.0
7116,66.0,1.0,90.0,4.0,64.0
7117,75.0,188.0,210.0,2.0,64.0
7118,61.0,212.0,660.0,4.0,64.0
7119,66.0,1.0,210.0,4.0,64.0
7120,49.0,29.0,1230.0,4.0,64.0
7121,56.0,289.0,870.0,4.0,64.0
7122,73.0,26.0,180.0,2.0,64.0
7123,65.0,193.0,210.0,4.0,64.0
7124,73.0,32.0,180.0,2.0,64.0
7125,73.0,20.0,210.0,2.0,64.0
7126,78.0,107.0,420.0,2.0,64.0
7127,66.0,72.0,300.0,4.0,64.0
7128,73.0,1.0,210.0,2.0,64.0
7129,70.0,15.0,300.0,4.0,64.0
7130,73.0,0.0,210.0,2.0,64.0
7131,63.0,16.0,210.0,4.0,64.0
7132,77.0,85.0,120.0,2.0,64.0
7133,70.0,17.0,180.0,4.0,64.0
7134,78.0,84.0,120.0,2.0,64.0
7135,80.0,84.0,120.0,2.0,64.0
7136,66.0,16.0,180.0,4.0,64.0
7137,82.0,85.0,120.0,1.0,64.0
7138,70.0,102.0,210.0,4.0,64.0
7139,83.0,100.0,210.0,1.0,64.0
7140,59.0,0.0,210.0,4.0,64.0
7141,68.0,15.0,210.0,4.0,64.0
7142,80.0,0.0,210.0,2.0,64.0
7143,83.0,86.0,120.0,1.0,64.0
7144,63.0,17.0,180.0,4.0,64.0
7145,68.0,16.0,210.0,4.0,64.0
7146,80.0,86.0,120.0,2.0,64.0
7147,61.0,10.0,210.0,4.0,64.0
7148,78.0,91.0,120.0,2.0,64.0
7149,77.0,85.0,120.0,2.0,64.0
7150,71.0,14.0,180.0,2.0,64.0
7151,68.0,102.0,210.0,4.0,64.0
7152,75.0,89.0,120.0,2.0,64.0
7153,73.0,101.0,210.0,2.0,64.0
7154,71.0,0.0,210.0,2.0,64.0
7155,66.0,90.0,210.0,4.0,64.0
7156,85.0,9.0,210.0,1.0,64.0
7157,82.0,0.0,210.0,1.0,64.0
7158,73.0,106.0,180.0,2.0,64.0
7159,85.0,10.0,210.0,1.0,64.0
7160,70.0,94.0,210.0,4.0,64.0
7161,82.0,105.0,210.0,1.0,64.0
7162,73.0,1.0,210.0,2.0,64.0
7163,59.0,92.0,210.0,4.0,64.0
7164,87.0,9.0,210.0,1.0,64.0
7165,83.0,0.0,210.0,1.0,64.0
7166,68.0,100.0,210.0,4.0,64.0
7167,87.0,5.0,180.0,1.0,64.0
7168,63.0,0.0,180.0,4.0,64.0
7169,83.0,193.0,90.0,1.0,64.0
7170,68.0,0.0,90.0,4.0,64.0
7171,82.0,206.0,210.0,1.0,64.0
7172,61.0,205.0,840.0,4.0,64.0
7173,66.0,10.0,180.0,4.0,64.0
7174,65.0,1.0,630.0,4.0,64.0
7175,80.0,189.0,210.0,2.0,64.0
7176,73.0,238.0,180.0,2.0,64.0
7177,73.0,5.0,210.0,2.0,64.0
7178,78.0,94.0,420.0,2.0,64.0
7179,58.0,98.0,210.0,4.0,64.0
7180,66.0,100.0,210.0,4.0,64.0
7181,61.0,10.0,180.0,4.0,64.0
7182,66.0,17.0,210.0,4.0,64.0
7183,54.0,16.0,210.0,4.0,64.0
7184,82.0,86.0,120.0,1.0,64.0
7185,63.0,16.0,210.0,4.0,64.0
7186,80.0,85.0,120.0,2.0,64.0
7187,78.0,83.0,120.0,2.0,64.0
7188,58.0,16.0,180.0,4.0,64.0
7189,77.0,85.0,120.0,2.0,64.0
7190,63.0,16.0,180.0,4.0,64.0
7191,56.0,16.0,210.0,4.0,64.0
7192,75.0,87.0,120.0,2.0,64.0
7193,63.0,17.0,210.0,4.0,64.0
7194,78.0,84.0,120.0,2.0,64.0
7195,75.0,82.0,120.0,2.0,64.0
7196,60.0,17.0,180.0,4.0,64.0
7197,78.0,86.0,120.0,2.0,64.0
7198,63.0,16.0,180.0,4.0,64.0
7199,87.0,81.0,120.0,1.0,64.0
7200,60.0,14.0,180.0,4.0,64.0
7201,66.0,16.0,180.0,4.0,64.0
7202,85.0,89.0,120.0,1.0,64.0
7203,63.0,5.0,210.0,4.0,64.0
7204,84.0,85.0,120.0,1.0,64.0
7205,66.0,12.0,90.0,4.0,64.0
7206,82.0,102.0,120.0,1.0,64.0
7207,65.0,0.0,180.0,4.0,64.0
7208,80.0,80.0,120.0,2.0,64.0
7209,61.0,18.0,180.0,4.0,64.0
7210,85.0,97.0,120.0,1.0,64.0
7211,82.0,81.0,120.0,1.0,64.0
7212,63.0,18.0,180.0,4.0,64.0
7213,54.0,1.0,180.0,4.0,64.0
7214,78.0,101.0,120.0,2.0,64.0
7215,61.0,0.0,180.0,4.0,64.0
7216,77.0,83.0,120.0,2.0,64.0
7217,56.0,19.0,180.0,4.0,64.0
7218,80.0,103.0,120.0,2.0,64.0
7219,78.0,86.0,120.0,2.0,64.0
7220,56.0,217.0,210.0,4.0,64.0
7221,60.0,0.0,210.0,4.0,64.0
7222,75.0,1.0,90.0,2.0,64.0
7223,66.0,0.0,90.0,4.0,64.0
7224,75.0,2.0,210.0,2.0,64.0
7225,56.0,0.0,840.0,4.0,64.0
7226,61.0,0.0,840.0,4.0,64.0
7227,66.0,323.0,210.0,4.0,64.0
7228,49.0,1.0,840.0,4.0,64.0
7229,65.0,10.0,600.0,4.0,64.0
7230,73.0,0.0,600.0,2.0,64.0
7231,85.0,97.0,120.0,1.0,64.0
7232,84.0,104.0,120.0,1.0,64.0
7233,85.0,89.0,120.0,1.0,64.0
7234,84.0,99.0,120.0,1.0,64.0
7235,85.0,90.0,120.0,1.0,64.0
7236,67.0,16.0,210.0,4.0,64.0
7237,63.0,0.0,210.0,4.0,64.0
7238,87.0,99.0,120.0,1.0,64.0
7239,84.0,80.0,120.0,1.0,64.0
7240,56.0,1.0,180.0,4.0,64.0
7241,68.0,15.0,180.0,4.0,64.0
7242,80.0,90.0,120.0,2.0,64.0
7243,83.0,84.0,90.0,1.0,64.0
7244,61.0,1.0,180.0,4.0,64.0
7245,65.0,18.0,180.0,4.0,64.0
7246,85.0,96.0,120.0,1.0,64.0
7247,54.0,35.0,2760.0,4.0,64.0
7248,66.0,10.0,390.0,4.0,64.0
7249,82.0,97.0,120.0,1.0,64.0
7250,78.0,98.0,120.0,2.0,64.0
7251,90.0,85.0,120.0,1.0,64.0
7252,75.0,1.0,120.0,2.0,64.0
7253,73.0,1.0,120.0,2.0,64.0
7254,89.0,94.0,120.0,1.0,64.0
7255,87.0,97.0,120.0,1.0,64.0
7256,71.0,0.0,90.0,2.0,64.0
7257,86.0,97.0,120.0,1.0,64.0
7258,70.0,1.0,120.0,4.0,64.0
7259,71.0,1.0,120.0,2.0,64.0
7260,87.0,100.0,120.0,1.0,64.0
7261,85.0,99.0,120.0,1.0,64.0
7262,70.0,0.0,120.0,4.0,64.0
7263,68.0,1.0,120.0,4.0,64.0
7264,83.0,98.0,120.0,1.0,64.0
7265,82.0,198.0,120.0,1.0,64.0
7266,66.0,0.0,120.0,4.0,64.0
7267,80.0,0.0,210.0,2.0,64.0
7268,83.0,200.0,210.0,1.0,64.0
7269,73.0,16.0,600.0,2.0,64.0
7270,65.0,1.0,210.0,4.0,64.0
7271,78.0,188.0,210.0,2.0,64.0
7272,82.0,0.0,210.0,1.0,64.0
7273,66.0,1.0,210.0,4.0,64.0
7274,65.0,200.0,210.0,4.0,64.0
7275,80.0,0.0,210.0,2.0,64.0
7276,78.0,371.0,210.0,2.0,64.0
7277,72.0,0.0,210.0,2.0,64.0
7278,63.0,1.0,210.0,4.0,64.0
7279,82.0,2.0,360.0,1.0,64.0
7280,66.0,1.0,360.0,4.0,64.0
7281,73.0,604.0,390.0,2.0,64.0
7282,61.0,11.0,1200.0,4.0,64.0
7283,65.0,185.0,630.0,4.0,64.0
7284,80.0,0.0,630.0,2.0,64.0
7285,73.0,1.0,210.0,2.0,64.0
7286,73.0,218.0,180.0,2.0,64.0
7287,78.0,95.0,420.0,2.0,64.0
7288,66.0,104.0,210.0,4.0,64.0
7289,73.0,104.0,210.0,2.0,64.0
7290,70.0,8.0,210.0,4.0,64.0
7291,73.0,18.0,210.0,2.0,64.0
7292,63.0,17.0,210.0,4.0,64.0
7293,77.0,82.0,120.0,2.0,64.0
7294,70.0,17.0,180.0,4.0,64.0
7295,78.0,80.0,120.0,2.0,64.0
7296,66.0,19.0,180.0,4.0,64.0
7297,80.0,84.0,120.0,2.0,64.0
7298,82.0,88.0,120.0,1.0,64.0
7299,70.0,18.0,210.0,4.0,64.0
7300,83.0,85.0,120.0,1.0,64.0
7301,59.0,18.0,210.0,4.0,64.0
7302,68.0,15.0,210.0,4.0,64.0
7303,80.0,86.0,120.0,2.0,64.0
7304,63.0,16.0,180.0,4.0,64.0
7305,83.0,82.0,120.0,1.0,64.0
7306,80.0,85.0,120.0,2.0,64.0
7307,68.0,16.0,180.0,4.0,64.0
7308,78.0,89.0,120.0,2.0,64.0
7309,61.0,16.0,210.0,4.0,64.0
7310,71.0,17.0,210.0,2.0,64.0
7311,77.0,88.0,120.0,2.0,64.0
7312,75.0,15.0,120.0,2.0,64.0
7313,68.0,77.0,120.0,4.0,64.0
7314,73.0,106.0,120.0,2.0,64.0
7315,71.0,11.0,90.0,2.0,64.0
7316,85.0,87.0,120.0,1.0,64.0
7317,66.0,1.0,210.0,4.0,64.0
7318,70.0,6.0,210.0,4.0,64.0
7319,90.0,96.0,120.0,1.0,64.0
7320,59.0,1.0,210.0,4.0,64.0
7321,68.0,8.0,210.0,4.0,64.0
7322,87.0,95.0,120.0,1.0,64.0
7323,83.0,102.0,120.0,1.0,64.0
7324,82.0,80.0,120.0,1.0,64.0
7325,61.0,13.0,180.0,4.0,64.0
7326,66.0,7.0,210.0,4.0,64.0
7327,85.0,102.0,120.0,1.0,64.0
7328,65.0,204.0,210.0,4.0,64.0
7329,83.0,84.0,120.0,1.0,64.0
7330,61.0,0.0,210.0,4.0,64.0
7331,80.0,2.0,90.0,2.0,64.0
7332,71.0,12.0,90.0,2.0,64.0
7333,80.0,1.0,210.0,2.0,64.0
7334,66.0,0.0,810.0,4.0,64.0
7335,71.0,320.0,210.0,2.0,64.0
7336,54.0,1.0,810.0,4.0,64.0
7337,61.0,8.0,810.0,4.0,64.0
7338,78.0,1.0,600.0,2.0,64.0
7339,70.0,1.0,600.0,4.0,64.0
7340,85.0,91.0,120.0,1.0,64.0
7341,84.0,98.0,90.0,1.0,64.0
7342,85.0,89.0,120.0,1.0,64.0
7343,84.0,102.0,120.0,1.0,64.0
7344,85.0,90.0,120.0,1.0,64.0
7345,63.0,3.0,210.0,4.0,64.0
7346,67.0,0.0,210.0,4.0,64.0
7347,87.0,100.0,90.0,1.0,64.0
7348,68.0,6.0,210.0,4.0,64.0
7349,84.0,92.0,120.0,1.0,64.0
7350,56.0,1.0,210.0,4.0,64.0
7351,80.0,91.0,120.0,2.0,64.0
7352,65.0,6.0,210.0,4.0,64.0
7353,83.0,96.0,90.0,1.0,64.0
7354,61.0,1.0,210.0,4.0,64.0
7355,85.0,96.0,120.0,1.0,64.0
7356,54.0,19.0,1560.0,4.0,64.0
7357,66.0,8.0,390.0,4.0,64.0
7358,82.0,100.0,120.0,1.0,64.0
7359,78.0,99.0,120.0,2.0,64.0
7360,90.0,0.0,120.0,1.0,64.0
7361,75.0,86.0,120.0,2.0,64.0
7362,89.0,98.0,120.0,1.0,64.0
7363,73.0,0.0,120.0,2.0,64.0
7364,87.0,0.0,120.0,1.0,64.0
7365,71.0,100.0,120.0,2.0,64.0
7366,86.0,92.0,120.0,1.0,64.0
7367,70.0,0.0,120.0,4.0,64.0
7368,87.0,98.0,90.0,1.0,64.0
7369,71.0,0.0,90.0,2.0,64.0
7370,85.0,0.0,120.0,1.0,64.0
7371,70.0,98.0,120.0,4.0,64.0
7372,83.0,97.0,120.0,1.0,64.0
7373,68.0,0.0,120.0,4.0,64.0
7374,82.0,0.0,120.0,1.0,64.0
7375,66.0,198.0,120.0,4.0,64.0
7376,73.0,183.0,630.0,2.0,64.0
7377,80.0,207.0,210.0,2.0,64.0
7378,83.0,0.0,210.0,1.0,64.0
7379,65.0,1.0,210.0,4.0,64.0
7380,82.0,182.0,210.0,1.0,64.0
7381,78.0,0.0,210.0,2.0,64.0
7382,66.0,1.0,210.0,4.0,64.0
7383,80.0,6.0,210.0,2.0,64.0
7384,65.0,1.0,210.0,4.0,64.0
7385,63.0,389.0,210.0,4.0,64.0
7386,72.0,11.0,180.0,2.0,64.0
7387,78.0,0.0,210.0,2.0,64.0
7388,73.0,215.0,750.0,2.0,64.0
7389,82.0,366.0,390.0,1.0,64.0
7390,61.0,106.0,1110.0,4.0,64.0
7391,66.0,1.0,390.0,4.0,64.0
7392,80.0,0.0,600.0,2.0,64.0
7393,65.0,100.0,600.0,4.0,64.0
7394,73.0,33.0,180.0,2.0,64.0
7395,73.0,200.0,210.0,2.0,64.0
7396,78.0,94.0,420.0,2.0,64.0
7397,66.0,103.0,210.0,4.0,64.0
7398,73.0,96.0,210.0,2.0,64.0
7399,70.0,9.0,180.0,4.0,64.0
7400,73.0,16.0,180.0,2.0,64.0
7401,63.0,16.0,210.0,4.0,64.0
7402,77.0,89.0,120.0,2.0,64.0
7403,78.0,83.0,120.0,2.0,64.0
7404,70.0,14.0,210.0,4.0,64.0
7405,80.0,86.0,120.0,2.0,64.0
7406,66.0,15.0,180.0,4.0,64.0
7407,70.0,16.0,210.0,4.0,64.0
7408,82.0,90.0,120.0,1.0,64.0
7409,59.0,17.0,210.0,4.0,64.0
7410,83.0,81.0,120.0,1.0,64.0
7411,68.0,14.0,180.0,4.0,64.0
7412,80.0,82.0,120.0,2.0,64.0
7413,83.0,83.0,120.0,1.0,64.0
7414,63.0,17.0,180.0,4.0,64.0
7415,80.0,82.0,120.0,2.0,64.0
7416,68.0,15.0,180.0,4.0,64.0
7417,78.0,85.0,120.0,2.0,64.0
7418,61.0,16.0,180.0,4.0,64.0
7419,77.0,87.0,120.0,2.0,64.0
7420,71.0,16.0,210.0,2.0,64.0
7421,68.0,77.0,120.0,4.0,64.0
7422,75.0,15.0,120.0,2.0,64.0
7423,71.0,12.0,90.0,2.0,64.0
7424,73.0,107.0,120.0,2.0,64.0
7425,70.0,0.0,210.0,4.0,64.0
7426,85.0,88.0,120.0,1.0,64.0
7427,66.0,8.0,210.0,4.0,64.0
7428,90.0,96.0,120.0,1.0,64.0
7429,68.0,8.0,210.0,4.0,64.0
7430,87.0,93.0,120.0,1.0,64.0
7431,59.0,1.0,210.0,4.0,64.0
7432,83.0,98.0,120.0,1.0,64.0
7433,82.0,90.0,120.0,1.0,64.0
7434,66.0,7.0,210.0,4.0,64.0
7435,61.0,11.0,210.0,4.0,64.0
7436,85.0,103.0,120.0,1.0,64.0
7437,65.0,322.0,210.0,4.0,64.0
7438,83.0,92.0,120.0,1.0,64.0
7439,61.0,16.0,210.0,4.0,64.0
7440,80.0,1.0,90.0,2.0,64.0
7441,71.0,0.0,120.0,2.0,64.0
7442,80.0,4.0,330.0,2.0,64.0
7443,66.0,0.0,990.0,4.0,64.0
7444,71.0,646.0,330.0,2.0,64.0
7445,54.0,262.0,990.0,4.0,64.0
7446,61.0,1.0,990.0,4.0,64.0
7447,78.0,0.0,630.0,2.0,64.0
7448,70.0,5.0,630.0,4.0,64.0
7449,73.0,56.0,90.0,2.0,64.0
7450,75.0,57.0,60.0,2.0,64.0
7451,72.0,54.0,60.0,2.0,64.0
7452,73.0,56.0,60.0,2.0,64.0
7453,75.0,57.0,60.0,2.0,64.0
7454,77.0,55.0,60.0,2.0,64.0
7455,78.0,58.0,60.0,2.0,64.0
7456,54.0,6.0,330.0,4.0,64.0
7457,58.0,13.0,330.0,4.0,64.0
7458,80.0,56.0,60.0,2.0,64.0
7459,77.0,55.0,60.0,2.0,64.0
7460,78.0,58.0,60.0,2.0,64.0
7461,80.0,35.0,60.0,2.0,64.0
7462,77.0,54.0,60.0,2.0,64.0
7463,58.0,1.0,330.0,4.0,64.0
7464,61.0,7.0,330.0,4.0,64.0
7465,78.0,53.0,60.0,2.0,64.0
7466,82.0,54.0,60.0,1.0,64.0
7467,80.0,54.0,60.0,2.0,64.0
7468,78.0,57.0,60.0,2.0,64.0
7469,80.0,48.0,60.0,2.0,64.0
7470,82.0,57.0,60.0,1.0,64.0
7471,83.0,55.0,60.0,1.0,64.0
7472,56.0,6.0,330.0,4.0,64.0
7473,63.0,0.0,330.0,4.0,64.0
7474,85.0,52.0,60.0,1.0,64.0
7475,82.0,56.0,60.0,1.0,64.0
7476,83.0,52.0,60.0,1.0,64.0
7477,80.0,46.0,60.0,2.0,64.0
7478,78.0,54.0,60.0,2.0,64.0
7479,61.0,7.0,330.0,4.0,64.0
7480,77.0,53.0,60.0,2.0,64.0
7481,80.0,52.0,60.0,2.0,64.0
7482,79.0,54.0,60.0,2.0,64.0
7483,80.0,54.0,60.0,2.0,64.0
7484,82.0,44.0,60.0,1.0,64.0
7485,83.0,54.0,60.0,1.0,64.0
7486,84.0,54.0,60.0,1.0,64.0
7487,58.0,8.0,330.0,4.0,64.0
7488,66.0,13.0,300.0,4.0,64.0
7489,85.0,54.0,60.0,1.0,64.0
7490,82.0,53.0,60.0,1.0,64.0
7491,84.0,58.0,60.0,1.0,64.0
7492,85.0,35.0,60.0,1.0,64.0
7493,82.0,53.0,60.0,1.0,64.0
7494,86.0,56.0,60.0,1.0,64.0
7495,59.0,7.0,330.0,4.0,64.0
7496,66.0,14.0,300.0,4.0,64.0
7497,87.0,52.0,60.0,1.0,64.0
7498,83.0,52.0,60.0,1.0,64.0
7499,86.0,54.0,60.0,1.0,64.0
7500,87.0,34.0,60.0,1.0,64.0
7501,83.0,152.0,60.0,1.0,64.0
7502,82.0,13.0,150.0,1.0,64.0
7503,61.0,46.0,1170.0,4.0,64.0
7504,66.0,157.0,180.0,4.0,64.0
7505,65.0,35.0,690.0,4.0,64.0
7506,80.0,77.0,150.0,2.0,64.0
7507,73.0,54.0,60.0,2.0,64.0
7508,75.0,54.0,60.0,2.0,64.0
7509,72.0,57.0,60.0,2.0,64.0
7510,73.0,54.0,60.0,2.0,64.0
7511,75.0,54.0,60.0,2.0,64.0
7512,77.0,55.0,60.0,2.0,64.0
7513,78.0,58.0,60.0,2.0,64.0
7514,80.0,55.0,60.0,2.0,64.0
7515,77.0,19.0,60.0,2.0,64.0
7516,78.0,57.0,60.0,2.0,64.0
7517,73.0,19.0,600.0,2.0,64.0
7518,70.0,12.0,330.0,4.0,64.0
7519,90.0,52.0,60.0,1.0,64.0
7520,89.0,54.0,60.0,1.0,64.0
7521,87.0,53.0,60.0,1.0,64.0
7522,89.0,43.0,60.0,1.0,64.0
7523,86.0,8.0,60.0,1.0,64.0
7524,87.0,54.0,60.0,1.0,64.0
7525,66.0,21.0,300.0,4.0,64.0
7526,70.0,6.0,330.0,4.0,64.0
7527,89.0,52.0,60.0,1.0,64.0
7528,85.0,51.0,60.0,1.0,64.0
7529,84.0,57.0,60.0,1.0,64.0
7530,85.0,5.0,60.0,1.0,64.0
7531,82.0,54.0,60.0,1.0,64.0
7532,66.0,8.0,330.0,4.0,64.0
7533,84.0,55.0,60.0,1.0,64.0
7534,63.0,6.0,300.0,4.0,64.0
7535,85.0,52.0,60.0,1.0,64.0
7536,82.0,52.0,60.0,1.0,64.0
7537,80.0,54.0,60.0,2.0,64.0
7538,82.0,40.0,60.0,1.0,64.0
7539,79.0,51.0,60.0,2.0,64.0
7540,80.0,56.0,60.0,2.0,64.0
7541,60.0,1.0,150.0,4.0,64.0
7542,63.0,12.0,150.0,4.0,64.0
7543,82.0,42.0,60.0,1.0,64.0
7544,78.0,55.0,60.0,2.0,64.0
7545,61.0,13.0,150.0,4.0,64.0
7546,77.0,54.0,60.0,2.0,64.0
7547,80.0,42.0,60.0,2.0,64.0
7548,85.0,54.0,60.0,1.0,64.0
7549,81.0,55.0,60.0,2.0,64.0
7550,63.0,8.0,150.0,4.0,64.0
7551,54.0,1.0,150.0,4.0,64.0
7552,82.0,43.0,60.0,1.0,64.0
7553,78.0,54.0,60.0,2.0,64.0
7554,79.0,54.0,60.0,2.0,64.0
7555,56.0,1.0,150.0,4.0,64.0
7556,65.0,66.0,150.0,4.0,64.0
7557,80.0,30.0,60.0,2.0,64.0
7558,77.0,14.0,30.0,2.0,64.0
7559,77.0,59.0,60.0,2.0,64.0
7560,66.0,0.0,180.0,4.0,64.0
7561,56.0,1.0,180.0,4.0,64.0
7562,60.0,173.0,180.0,4.0,64.0
7563,78.0,38.0,60.0,2.0,64.0
7564,75.0,11.0,60.0,2.0,64.0
7565,75.0,156.0,180.0,2.0,64.0
7566,61.0,4.0,690.0,4.0,64.0
7567,66.0,0.0,150.0,4.0,64.0
7568,65.0,48.0,510.0,4.0,64.0
7569,73.0,83.0,150.0,2.0,64.0
7570,73.0,53.0,60.0,2.0,64.0
7571,75.0,55.0,60.0,2.0,64.0
7572,72.0,55.0,60.0,2.0,64.0
7573,73.0,56.0,60.0,2.0,64.0
7574,75.0,55.0,60.0,2.0,64.0
7575,77.0,3.0,60.0,2.0,64.0
7576,58.0,11.0,300.0,4.0,64.0
7577,78.0,56.0,60.0,2.0,64.0
7578,54.0,8.0,330.0,4.0,64.0
7579,80.0,54.0,60.0,2.0,64.0
7580,77.0,51.0,60.0,2.0,64.0
7581,78.0,56.0,60.0,2.0,64.0
7582,80.0,33.0,60.0,2.0,64.0
7583,77.0,52.0,60.0,2.0,64.0
7584,61.0,5.0,330.0,4.0,64.0
7585,78.0,57.0,60.0,2.0,64.0
7586,58.0,1.0,330.0,4.0,64.0
7587,82.0,52.0,60.0,1.0,64.0
7588,80.0,50.0,60.0,2.0,64.0
7589,78.0,54.0,60.0,2.0,64.0
7590,80.0,46.0,60.0,2.0,64.0
7591,82.0,52.0,60.0,1.0,64.0
7592,63.0,7.0,300.0,4.0,64.0
7593,83.0,53.0,60.0,1.0,64.0
7594,56.0,1.0,300.0,4.0,64.0
7595,85.0,50.0,60.0,1.0,64.0
7596,82.0,54.0,60.0,1.0,64.0
7597,83.0,52.0,60.0,1.0,64.0
7598,80.0,46.0,60.0,2.0,64.0
7599,78.0,49.0,60.0,2.0,64.0
7600,77.0,55.0,60.0,2.0,64.0
7601,61.0,8.0,300.0,4.0,64.0
7602,80.0,54.0,60.0,2.0,64.0
7603,79.0,51.0,60.0,2.0,64.0
7604,80.0,52.0,60.0,2.0,64.0
7605,82.0,42.0,60.0,1.0,64.0
7606,83.0,50.0,60.0,1.0,64.0
7607,58.0,6.0,330.0,4.0,64.0
7608,66.0,14.0,300.0,4.0,64.0
7609,84.0,53.0,60.0,1.0,64.0
7610,85.0,53.0,60.0,1.0,64.0
7611,82.0,53.0,60.0,1.0,64.0
7612,84.0,53.0,60.0,1.0,64.0
7613,85.0,33.0,60.0,1.0,64.0
7614,82.0,52.0,60.0,1.0,64.0
7615,86.0,56.0,60.0,1.0,64.0
7616,59.0,6.0,330.0,4.0,64.0
7617,66.0,14.0,300.0,4.0,64.0
7618,87.0,51.0,60.0,1.0,64.0
7619,83.0,54.0,60.0,1.0,64.0
7620,86.0,58.0,60.0,1.0,64.0
7621,87.0,34.0,60.0,1.0,64.0
7622,83.0,157.0,60.0,1.0,64.0
7623,66.0,6.0,150.0,4.0,64.0
7624,82.0,164.0,180.0,1.0,64.0
7625,61.0,19.0,1050.0,4.0,64.0
7626,80.0,73.0,150.0,2.0,64.0
7627,65.0,33.0,690.0,4.0,64.0
7628,73.0,54.0,60.0,2.0,64.0
7629,75.0,55.0,60.0,2.0,64.0
7630,72.0,56.0,60.0,2.0,64.0
7631,73.0,54.0,60.0,2.0,64.0
7632,75.0,54.0,60.0,2.0,64.0
7633,77.0,51.0,60.0,2.0,64.0
7634,78.0,56.0,60.0,2.0,64.0
7635,80.0,55.0,60.0,2.0,64.0
7636,77.0,19.0,60.0,2.0,64.0
7637,78.0,57.0,60.0,2.0,64.0
7638,70.0,14.0,300.0,4.0,64.0
7639,73.0,5.0,330.0,2.0,64.0
7640,90.0,53.0,60.0,1.0,64.0
7641,89.0,35.0,60.0,1.0,64.0
7642,87.0,54.0,60.0,1.0,64.0
7643,89.0,32.0,60.0,1.0,64.0
7644,86.0,52.0,60.0,1.0,64.0
7645,70.0,6.0,330.0,4.0,64.0
7646,87.0,56.0,60.0,1.0,64.0
7647,66.0,21.0,300.0,4.0,64.0
7648,89.0,54.0,60.0,1.0,64.0
7649,85.0,53.0,60.0,1.0,64.0
7650,84.0,54.0,60.0,1.0,64.0
7651,85.0,29.0,60.0,1.0,64.0
7652,82.0,52.0,60.0,1.0,64.0
7653,66.0,6.0,300.0,4.0,64.0
7654,84.0,55.0,60.0,1.0,64.0
7655,63.0,11.0,300.0,4.0,64.0
7656,85.0,50.0,60.0,1.0,64.0
7657,82.0,52.0,60.0,1.0,64.0
7658,80.0,54.0,60.0,2.0,64.0
7659,82.0,33.0,60.0,1.0,64.0
7660,79.0,54.0,60.0,2.0,64.0
7661,60.0,4.0,150.0,4.0,64.0
7662,63.0,0.0,150.0,4.0,64.0
7663,80.0,51.0,60.0,2.0,64.0
7664,82.0,48.0,60.0,1.0,64.0
7665,78.0,54.0,60.0,2.0,64.0
7666,77.0,52.0,60.0,2.0,64.0
7667,61.0,4.0,150.0,4.0,64.0
7668,80.0,51.0,60.0,2.0,64.0
7669,85.0,50.0,60.0,1.0,64.0
7670,81.0,54.0,60.0,2.0,64.0
7671,54.0,3.0,150.0,4.0,64.0
7672,63.0,0.0,150.0,4.0,64.0
7673,82.0,49.0,60.0,1.0,64.0
7674,78.0,53.0,60.0,2.0,64.0
7675,65.0,61.0,180.0,4.0,64.0
7676,79.0,56.0,60.0,2.0,64.0
7677,56.0,10.0,150.0,4.0,64.0
7678,80.0,42.0,60.0,2.0,64.0
7679,77.0,1.0,60.0,2.0,64.0
7680,77.0,56.0,60.0,2.0,64.0
7681,66.0,11.0,150.0,4.0,64.0
7682,60.0,169.0,180.0,4.0,64.0
7683,56.0,0.0,180.0,4.0,64.0
7684,78.0,33.0,60.0,2.0,64.0
7685,75.0,11.0,30.0,2.0,64.0
7686,66.0,223.0,180.0,4.0,64.0
7687,75.0,0.0,180.0,2.0,64.0
7688,61.0,29.0,960.0,4.0,64.0
7689,65.0,6.0,510.0,4.0,64.0
7690,73.0,15.0,480.0,2.0,64.0
7691,85.0,56.0,60.0,1.0,64.0
7692,87.0,54.0,60.0,1.0,64.0
7693,84.0,53.0,60.0,1.0,64.0
7694,85.0,56.0,60.0,1.0,64.0
7695,87.0,33.0,60.0,1.0,64.0
7696,84.0,58.0,60.0,1.0,64.0
7697,85.0,53.0,60.0,1.0,64.0
7698,75.0,2.0,330.0,2.0,64.0
7699,67.0,53.0,180.0,4.0,64.0
7700,82.0,56.0,60.0,1.0,64.0
7701,87.0,0.0,60.0,1.0,64.0
7702,84.0,54.0,60.0,1.0,64.0
7703,68.0,1.0,150.0,4.0,64.0
7704,79.0,21.0,60.0,2.0,64.0
7705,80.0,55.0,60.0,2.0,64.0
7706,83.0,54.0,60.0,1.0,64.0
7707,65.0,1.0,180.0,4.0,64.0
7708,73.0,2.0,210.0,2.0,64.0
7709,80.0,56.0,60.0,2.0,64.0
7710,85.0,55.0,60.0,1.0,64.0
7711,82.0,56.0,60.0,1.0,64.0
7712,66.0,33.0,630.0,4.0,64.0
7713,77.0,44.0,60.0,2.0,64.0
7714,78.0,91.0,60.0,2.0,64.0
7715,78.0,8.0,150.0,2.0,64.0
7716,75.0,36.0,90.0,2.0,64.0
7717,90.0,40.0,60.0,1.0,64.0
7718,73.0,58.0,90.0,2.0,64.0
7719,89.0,28.0,120.0,1.0,64.0
7720,75.0,7.0,150.0,2.0,64.0
7721,71.0,34.0,90.0,2.0,64.0
7722,87.0,44.0,60.0,1.0,64.0
7723,70.0,55.0,90.0,4.0,64.0
7724,86.0,30.0,120.0,1.0,64.0
7725,71.0,35.0,90.0,2.0,64.0
7726,75.0,8.0,150.0,2.0,64.0
7727,87.0,10.0,60.0,1.0,64.0
7728,70.0,56.0,90.0,4.0,64.0
7729,85.0,28.0,120.0,1.0,64.0
7730,71.0,6.0,150.0,2.0,64.0
7731,68.0,36.0,90.0,4.0,64.0
7732,83.0,42.0,60.0,1.0,64.0
7733,66.0,7.0,90.0,4.0,64.0
7734,82.0,52.0,60.0,1.0,64.0
7735,83.0,52.0,60.0,1.0,64.0
7736,73.0,6.0,480.0,2.0,64.0
7737,65.0,4.0,150.0,4.0,64.0
7738,85.0,49.0,60.0,1.0,64.0
7739,83.0,56.0,60.0,1.0,64.0
7740,82.0,51.0,60.0,1.0,64.0
7741,66.0,3.0,150.0,4.0,64.0
7742,83.0,50.0,60.0,1.0,64.0
7743,82.0,52.0,60.0,1.0,64.0
7744,80.0,52.0,60.0,2.0,64.0
7745,65.0,52.0,150.0,4.0,64.0
7746,82.0,46.0,60.0,1.0,64.0
7747,80.0,0.0,60.0,2.0,64.0
7748,78.0,53.0,60.0,2.0,64.0
7749,72.0,10.0,150.0,2.0,64.0
7750,63.0,2.0,180.0,4.0,64.0
7751,80.0,48.0,60.0,2.0,64.0
7752,78.0,173.0,60.0,2.0,64.0
7753,82.0,1.0,180.0,1.0,64.0
7754,73.0,98.0,900.0,2.0,64.0
7755,61.0,3.0,1350.0,4.0,64.0
7756,66.0,153.0,180.0,4.0,64.0
7757,80.0,73.0,150.0,2.0,64.0
7758,65.0,43.0,1110.0,4.0,64.0
7759,85.0,57.0,60.0,1.0,64.0
7760,87.0,57.0,60.0,1.0,64.0
7761,84.0,56.0,60.0,1.0,64.0
7762,85.0,58.0,60.0,1.0,64.0
7763,87.0,57.0,60.0,1.0,64.0
7764,84.0,215.0,60.0,1.0,64.0
7765,85.0,10.0,210.0,1.0,64.0
7766,73.0,56.0,60.0,2.0,64.0
7767,75.0,57.0,60.0,2.0,64.0
7768,72.0,54.0,60.0,2.0,64.0
7769,73.0,56.0,60.0,2.0,64.0
7770,75.0,56.0,60.0,2.0,64.0
7771,77.0,10.0,60.0,2.0,64.0
7772,66.0,43.0,330.0,4.0,64.0
7773,78.0,56.0,60.0,2.0,64.0
7774,80.0,53.0,60.0,2.0,64.0
7775,77.0,58.0,60.0,2.0,64.0
7776,73.0,0.0,330.0,2.0,64.0
7777,78.0,55.0,60.0,2.0,64.0
7778,70.0,3.0,330.0,4.0,64.0
7779,81.0,41.0,60.0,2.0,64.0
7780,82.0,78.0,90.0,1.0,64.0
7781,78.0,41.0,150.0,2.0,64.0
7782,63.0,4.0,330.0,4.0,64.0
7783,86.0,41.0,60.0,1.0,64.0
7784,87.0,82.0,90.0,1.0,64.0
7785,78.0,40.0,180.0,2.0,64.0
7786,66.0,15.0,330.0,4.0,64.0
7787,70.0,0.0,330.0,4.0,64.0
7788,89.0,42.0,60.0,1.0,64.0
7789,90.0,29.0,90.0,1.0,64.0
7790,59.0,45.0,330.0,4.0,64.0
7791,83.0,52.0,60.0,1.0,64.0
7792,85.0,40.0,60.0,1.0,64.0
7793,82.0,83.0,60.0,1.0,64.0
7794,68.0,2.0,330.0,4.0,64.0
7795,83.0,25.0,90.0,1.0,64.0
7796,63.0,1.0,330.0,4.0,64.0
7797,79.0,40.0,60.0,2.0,64.0
7798,80.0,81.0,90.0,2.0,64.0
7799,61.0,2.0,510.0,4.0,64.0
7800,83.0,39.0,150.0,1.0,64.0
7801,76.0,42.0,60.0,2.0,64.0
7802,77.0,81.0,90.0,2.0,64.0
7803,83.0,11.0,150.0,1.0,64.0
7804,68.0,2.0,150.0,4.0,64.0
7805,65.0,1.0,150.0,4.0,64.0
7806,72.0,40.0,60.0,2.0,64.0
7807,73.0,55.0,60.0,2.0,64.0
7808,66.0,4.0,180.0,4.0,64.0
7809,82.0,54.0,60.0,1.0,64.0
7810,85.0,50.0,60.0,1.0,64.0
7811,90.0,54.0,60.0,1.0,64.0
7812,68.0,4.0,180.0,4.0,64.0
7813,86.0,53.0,60.0,1.0,64.0
7814,59.0,1.0,150.0,4.0,64.0
7815,87.0,53.0,60.0,1.0,64.0
7816,83.0,56.0,60.0,1.0,64.0
7817,84.0,57.0,60.0,1.0,64.0
7818,70.0,61.0,180.0,4.0,64.0
7819,61.0,9.0,150.0,4.0,64.0
7820,85.0,42.0,60.0,1.0,64.0
7821,82.0,1.0,60.0,1.0,64.0
7822,82.0,59.0,60.0,1.0,64.0
7823,65.0,0.0,180.0,4.0,64.0
7824,61.0,181.0,180.0,4.0,64.0
7825,83.0,42.0,60.0,1.0,64.0
7826,80.0,8.0,60.0,2.0,64.0
7827,80.0,0.0,180.0,2.0,64.0
7828,65.0,1.0,180.0,4.0,64.0
7829,71.0,238.0,180.0,2.0,64.0
7830,54.0,2.0,2250.0,4.0,64.0
7831,78.0,5.0,510.0,2.0,64.0
7832,66.0,4.0,510.0,4.0,64.0
7833,70.0,0.0,510.0,4.0,64.0
7834,85.0,60.0,60.0,1.0,64.0
7835,87.0,56.0,60.0,1.0,64.0
7836,84.0,55.0,60.0,1.0,64.0
7837,85.0,60.0,60.0,1.0,64.0
7838,87.0,48.0,60.0,1.0,64.0
7839,84.0,56.0,60.0,1.0,64.0
7840,85.0,57.0,60.0,1.0,64.0
7841,67.0,10.0,150.0,4.0,64.0
7842,75.0,23.0,300.0,2.0,64.0
7843,82.0,46.0,60.0,1.0,64.0
7844,87.0,56.0,60.0,1.0,64.0
7845,84.0,51.0,60.0,1.0,64.0
7846,68.0,64.0,150.0,4.0,64.0
7847,79.0,18.0,60.0,2.0,64.0
7848,80.0,4.0,60.0,2.0,64.0
7849,83.0,42.0,60.0,1.0,64.0
7850,73.0,37.0,240.0,2.0,64.0
7851,65.0,9.0,150.0,4.0,64.0
7852,80.0,62.0,60.0,2.0,64.0
7853,85.0,56.0,60.0,1.0,64.0
7854,82.0,17.0,60.0,1.0,64.0
7855,66.0,32.0,570.0,4.0,64.0
7856,77.0,44.0,60.0,2.0,64.0
7857,78.0,104.0,60.0,2.0,64.0
7858,78.0,46.0,690.0,2.0,64.0
7859,75.0,24.0,90.0,2.0,64.0
7860,90.0,61.0,60.0,1.0,64.0
7861,73.0,46.0,90.0,2.0,64.0
7862,89.0,37.0,120.0,1.0,64.0
7863,75.0,12.0,150.0,2.0,64.0
7864,71.0,27.0,90.0,2.0,64.0
7865,87.0,45.0,60.0,1.0,64.0
7866,70.0,48.0,90.0,4.0,64.0
7867,86.0,5.0,120.0,1.0,64.0
7868,75.0,13.0,180.0,2.0,64.0
7869,71.0,25.0,90.0,2.0,64.0
7870,87.0,46.0,60.0,1.0,64.0
7871,70.0,46.0,90.0,4.0,64.0
7872,85.0,37.0,120.0,1.0,64.0
7873,71.0,4.0,180.0,2.0,64.0
7874,68.0,25.0,90.0,4.0,64.0
7875,83.0,51.0,60.0,1.0,64.0
7876,66.0,6.0,90.0,4.0,64.0
7877,82.0,2.0,60.0,1.0,64.0
7878,83.0,56.0,60.0,1.0,64.0
7879,73.0,5.0,480.0,2.0,64.0
7880,65.0,3.0,180.0,4.0,64.0
7881,85.0,49.0,60.0,1.0,64.0
7882,83.0,48.0,60.0,1.0,64.0
7883,66.0,3.0,150.0,4.0,64.0
7884,82.0,56.0,60.0,1.0,64.0
7885,83.0,48.0,60.0,1.0,64.0
7886,82.0,56.0,60.0,1.0,64.0
7887,80.0,55.0,60.0,2.0,64.0
7888,65.0,3.0,180.0,4.0,64.0
7889,82.0,44.0,60.0,1.0,64.0
7890,80.0,54.0,60.0,2.0,64.0
7891,78.0,56.0,60.0,2.0,64.0
7892,72.0,12.0,150.0,2.0,64.0
7893,63.0,3.0,180.0,4.0,64.0
7894,80.0,44.0,60.0,2.0,64.0
7895,78.0,169.0,60.0,2.0,64.0
7896,82.0,1.0,180.0,1.0,64.0
7897,73.0,100.0,960.0,2.0,64.0
7898,66.0,167.0,180.0,4.0,64.0
7899,61.0,22.0,1590.0,4.0,64.0
7900,80.0,66.0,180.0,2.0,64.0
7901,65.0,20.0,1140.0,4.0,64.0
7902,85.0,54.0,60.0,1.0,64.0
7903,87.0,57.0,60.0,1.0,64.0
7904,84.0,56.0,60.0,1.0,64.0
7905,85.0,59.0,60.0,1.0,64.0
7906,87.0,56.0,60.0,1.0,64.0
7907,84.0,269.0,60.0,1.0,64.0
7908,85.0,6.0,810.0,1.0,64.0
7909,73.0,55.0,60.0,2.0,64.0
7910,75.0,58.0,60.0,2.0,64.0
7911,72.0,58.0,60.0,2.0,64.0
7912,73.0,55.0,60.0,2.0,64.0
7913,75.0,35.0,60.0,2.0,64.0
7914,77.0,56.0,60.0,2.0,64.0
7915,78.0,60.0,60.0,2.0,64.0
7916,66.0,66.0,330.0,4.0,64.0
7917,80.0,44.0,60.0,2.0,64.0
7918,77.0,54.0,60.0,2.0,64.0
7919,73.0,0.0,330.0,2.0,64.0
7920,78.0,33.0,60.0,2.0,64.0
7921,70.0,1.0,330.0,4.0,64.0
7922,81.0,43.0,60.0,2.0,64.0
7923,82.0,58.0,120.0,1.0,64.0
7924,78.0,60.0,150.0,2.0,64.0
7925,63.0,2.0,330.0,4.0,64.0
7926,86.0,42.0,60.0,1.0,64.0
7927,87.0,66.0,120.0,1.0,64.0
7928,78.0,43.0,180.0,2.0,64.0
7929,66.0,15.0,330.0,4.0,64.0
7930,70.0,0.0,330.0,4.0,64.0
7931,89.0,43.0,60.0,1.0,64.0
7932,90.0,25.0,90.0,1.0,64.0
7933,83.0,57.0,60.0,1.0,64.0
7934,59.0,61.0,330.0,4.0,64.0
7935,85.0,42.0,60.0,1.0,64.0
7936,82.0,98.0,60.0,1.0,64.0
7937,83.0,9.0,120.0,1.0,64.0
7938,63.0,1.0,330.0,4.0,64.0
7939,68.0,61.0,330.0,4.0,64.0
7940,79.0,38.0,60.0,2.0,64.0
7941,80.0,61.0,120.0,2.0,64.0
7942,61.0,1.0,330.0,4.0,64.0
7943,83.0,0.0,150.0,1.0,64.0
7944,76.0,42.0,60.0,2.0,64.0
7945,77.0,66.0,120.0,2.0,64.0
7946,83.0,41.0,150.0,1.0,64.0
7947,68.0,1.0,150.0,4.0,64.0
7948,65.0,0.0,150.0,4.0,64.0
7949,72.0,41.0,60.0,2.0,64.0
7950,73.0,28.0,90.0,2.0,64.0
7951,82.0,53.0,60.0,1.0,64.0
7952,66.0,14.0,150.0,4.0,64.0
7953,85.0,43.0,60.0,1.0,64.0
7954,90.0,54.0,60.0,1.0,64.0
7955,86.0,55.0,60.0,1.0,64.0
7956,59.0,13.0,150.0,4.0,64.0
7957,68.0,0.0,150.0,4.0,64.0
7958,87.0,43.0,60.0,1.0,64.0
7959,83.0,58.0,60.0,1.0,64.0
7960,84.0,57.0,60.0,1.0,64.0
7961,70.0,70.0,180.0,4.0,64.0
7962,61.0,0.0,180.0,4.0,64.0
7963,85.0,45.0,60.0,1.0,64.0
7964,82.0,0.0,60.0,1.0,64.0
7965,82.0,61.0,60.0,1.0,64.0
7966,61.0,264.0,180.0,4.0,64.0
7967,65.0,0.0,180.0,4.0,64.0
7968,83.0,44.0,60.0,1.0,64.0
7969,80.0,1.0,60.0,2.0,64.0
7970,80.0,16.0,270.0,2.0,64.0
7971,65.0,601.0,270.0,4.0,64.0
7972,71.0,8.0,240.0,2.0,64.0
7973,54.0,195.0,960.0,4.0,64.0
7974,78.0,4.0,630.0,2.0,64.0
7975,70.0,0.0,630.0,4.0,64.0
7976,66.0,66.0,630.0,4.0,64.0
7977,61.0,64.0,90.0,4.0,64.0
7978,63.0,67.0,90.0,4.0,64.0
7979,61.0,67.0,90.0,4.0,64.0
7980,59.0,71.0,60.0,4.0,64.0
7981,58.0,76.0,90.0,4.0,64.0
7982,56.0,44.0,90.0,4.0,64.0
7983,54.0,13.0,810.0,4.0,64.0
7984,82.0,43.0,60.0,1.0,64.0
7985,83.0,138.0,60.0,1.0,64.0
7986,85.0,54.0,150.0,1.0,64.0
7987,83.0,48.0,60.0,1.0,64.0
7988,82.0,48.0,60.0,1.0,64.0
7989,80.0,119.0,60.0,2.0,64.0
7990,78.0,22.0,450.0,2.0,64.0
7991,66.0,67.0,90.0,4.0,64.0
7992,68.0,65.0,60.0,4.0,64.0
7993,66.0,65.0,60.0,4.0,64.0
7994,64.0,66.0,60.0,4.0,64.0
7995,63.0,55.0,60.0,4.0,64.0
7996,61.0,0.0,90.0,4.0,64.0
7997,59.0,22.0,780.0,4.0,64.0
7998,83.0,32.0,30.0,1.0,64.0
7999,85.0,131.0,30.0,1.0,64.0
8000,87.0,65.0,120.0,1.0,64.0
8001,85.0,46.0,60.0,1.0,64.0
8002,83.0,50.0,60.0,1.0,64.0
8003,82.0,49.0,60.0,1.0,64.0
8004,80.0,71.0,60.0,2.0,64.0
8005,73.0,66.0,90.0,2.0,64.0
8006,75.0,64.0,60.0,2.0,64.0
8007,73.0,48.0,60.0,2.0,64.0
8008,80.0,15.0,60.0,2.0,64.0
8009,71.0,1.0,60.0,2.0,64.0
8010,77.0,63.0,60.0,2.0,64.0
8011,82.0,48.0,60.0,1.0,64.0
8012,78.0,1.0,60.0,2.0,64.0
8013,70.0,0.0,60.0,4.0,64.0
8014,83.0,38.0,90.0,1.0,64.0
8015,80.0,1.0,90.0,2.0,64.0
8016,68.0,0.0,90.0,4.0,64.0
8017,66.0,10.0,420.0,4.0,64.0
8018,82.0,27.0,60.0,1.0,64.0
8019,83.0,129.0,30.0,1.0,64.0
8020,85.0,65.0,150.0,1.0,64.0
8021,83.0,48.0,60.0,1.0,64.0
8022,82.0,48.0,60.0,1.0,64.0
8023,80.0,46.0,60.0,2.0,64.0
8024,78.0,32.0,60.0,2.0,64.0
8025,59.0,8.0,390.0,4.0,64.0
8026,71.0,0.0,390.0,2.0,64.0
8027,83.0,28.0,30.0,1.0,64.0
8028,85.0,126.0,30.0,1.0,64.0
8029,87.0,66.0,120.0,1.0,64.0
8030,85.0,47.0,60.0,1.0,64.0
8031,83.0,50.0,60.0,1.0,64.0
8032,82.0,42.0,60.0,1.0,64.0
8033,80.0,179.0,60.0,2.0,64.0
8034,61.0,81.0,390.0,4.0,64.0
8035,78.0,6.0,180.0,2.0,64.0
8036,70.0,186.0,180.0,4.0,64.0
8037,68.0,19.0,570.0,4.0,64.0
8038,77.0,0.0,570.0,2.0,64.0
8039,61.0,65.0,90.0,4.0,64.0
8040,63.0,65.0,60.0,4.0,64.0
8041,61.0,65.0,60.0,4.0,64.0
8042,59.0,64.0,60.0,4.0,64.0
8043,58.0,48.0,60.0,4.0,64.0
8044,56.0,37.0,60.0,4.0,64.0
8045,54.0,12.0,780.0,4.0,64.0
8046,78.0,26.0,60.0,2.0,64.0
8047,80.0,144.0,30.0,2.0,64.0
8048,82.0,46.0,150.0,1.0,64.0
8049,80.0,48.0,60.0,2.0,64.0
8050,78.0,48.0,60.0,2.0,64.0
8051,77.0,120.0,60.0,2.0,64.0
8052,75.0,35.0,450.0,2.0,64.0
8053,66.0,65.0,90.0,4.0,64.0
8054,68.0,65.0,60.0,4.0,64.0
8055,66.0,63.0,60.0,4.0,64.0
8056,65.0,64.0,60.0,4.0,64.0
8057,63.0,56.0,60.0,4.0,64.0
8058,61.0,0.0,90.0,4.0,64.0
8059,60.0,173.0,1350.0,4.0,64.0
8060,87.0,30.0,60.0,1.0,64.0
8061,89.0,134.0,30.0,1.0,64.0
8062,90.0,55.0,150.0,1.0,64.0
8063,89.0,48.0,60.0,1.0,64.0
8064,87.0,48.0,60.0,1.0,64.0
8065,85.0,72.0,60.0,1.0,64.0
8066,84.0,179.0,450.0,1.0,64.0
8067,75.0,23.0,30.0,2.0,64.0
8068,77.0,152.0,30.0,2.0,64.0
8069,78.0,40.0,150.0,2.0,64.0
8070,77.0,46.0,60.0,2.0,64.0
8071,75.0,48.0,60.0,2.0,64.0
8072,73.0,47.0,60.0,2.0,64.0
8073,72.0,71.0,540.0,2.0,64.0
8074,80.0,183.0,180.0,2.0,64.0
8075,81.0,133.0,180.0,2.0,64.0
8076,82.0,233.0,390.0,1.0,64.0
8077,72.0,21.0,180.0,2.0,64.0
8078,66.0,1.0,180.0,4.0,64.0
8079,63.0,0.0,180.0,4.0,64.0
8080,56.0,1.0,180.0,4.0,64.0
8081,68.0,202.0,240.0,4.0,64.0
8082,73.0,0.0,240.0,2.0,64.0
8083,61.0,1.0,240.0,4.0,64.0
8084,65.0,0.0,240.0,4.0,64.0
8085,49.0,14.0,570.0,4.0,64.0
8086,61.0,63.0,90.0,4.0,64.0
8087,63.0,66.0,60.0,4.0,64.0
8088,61.0,65.0,60.0,4.0,64.0
8089,59.0,61.0,60.0,4.0,64.0
8090,58.0,57.0,60.0,4.0,64.0
8091,56.0,44.0,90.0,4.0,64.0
8092,54.0,10.0,780.0,4.0,64.0
8093,82.0,29.0,60.0,1.0,64.0
8094,83.0,142.0,60.0,1.0,64.0
8095,85.0,42.0,150.0,1.0,64.0
8096,83.0,48.0,60.0,1.0,64.0
8097,82.0,46.0,60.0,1.0,64.0
8098,80.0,118.0,60.0,2.0,64.0
8099,78.0,33.0,450.0,2.0,64.0
8100,66.0,63.0,90.0,4.0,64.0
8101,68.0,65.0,60.0,4.0,64.0
8102,66.0,64.0,60.0,4.0,64.0
8103,64.0,63.0,60.0,4.0,64.0
8104,63.0,56.0,60.0,4.0,64.0
8105,61.0,1.0,60.0,4.0,64.0
8106,83.0,26.0,30.0,1.0,64.0
8107,59.0,12.0,780.0,4.0,64.0
8108,85.0,124.0,30.0,1.0,64.0
8109,87.0,63.0,120.0,1.0,64.0
8110,85.0,46.0,60.0,1.0,64.0
8111,83.0,46.0,60.0,1.0,64.0
8112,82.0,115.0,60.0,1.0,64.0
8113,80.0,16.0,240.0,2.0,64.0
8114,73.0,64.0,90.0,2.0,64.0
8115,75.0,48.0,60.0,2.0,64.0
8116,73.0,63.0,60.0,2.0,64.0
8117,80.0,0.0,60.0,2.0,64.0
8118,71.0,1.0,60.0,2.0,64.0
8119,77.0,68.0,60.0,2.0,64.0
8120,82.0,61.0,90.0,1.0,64.0
8121,78.0,0.0,90.0,2.0,64.0
8122,70.0,1.0,60.0,4.0,64.0
8123,83.0,33.0,90.0,1.0,64.0
8124,80.0,0.0,90.0,2.0,64.0
8125,68.0,1.0,90.0,4.0,64.0
8126,82.0,25.0,60.0,1.0,64.0
8127,66.0,7.0,390.0,4.0,64.0
8128,83.0,125.0,30.0,1.0,64.0
8129,85.0,61.0,120.0,1.0,64.0
8130,83.0,46.0,60.0,1.0,64.0
8131,82.0,46.0,60.0,1.0,64.0
8132,80.0,41.0,60.0,2.0,64.0
8133,78.0,27.0,60.0,2.0,64.0
8134,83.0,27.0,30.0,1.0,64.0
8135,59.0,8.0,390.0,4.0,64.0
8136,71.0,0.0,390.0,2.0,64.0
8137,85.0,125.0,30.0,1.0,64.0
8138,87.0,63.0,120.0,1.0,64.0
8139,85.0,48.0,60.0,1.0,64.0
8140,83.0,45.0,60.0,1.0,64.0
8141,82.0,41.0,60.0,1.0,64.0
8142,80.0,167.0,60.0,2.0,64.0
8143,61.0,83.0,360.0,4.0,64.0
8144,78.0,8.0,180.0,2.0,64.0
8145,70.0,184.0,180.0,4.0,64.0
8146,68.0,1.0,570.0,4.0,64.0
8147,77.0,11.0,570.0,2.0,64.0
8148,61.0,62.0,90.0,4.0,64.0
8149,63.0,65.0,60.0,4.0,64.0
8150,61.0,63.0,60.0,4.0,64.0
8151,59.0,63.0,60.0,4.0,64.0
8152,58.0,55.0,60.0,4.0,64.0
8153,56.0,36.0,60.0,4.0,64.0
8154,78.0,35.0,60.0,2.0,64.0
8155,54.0,12.0,780.0,4.0,64.0
8156,80.0,123.0,60.0,2.0,64.0
8157,82.0,63.0,120.0,1.0,64.0
8158,80.0,46.0,60.0,2.0,64.0
8159,78.0,46.0,60.0,2.0,64.0
8160,77.0,118.0,60.0,2.0,64.0
8161,75.0,33.0,450.0,2.0,64.0
8162,66.0,61.0,90.0,4.0,64.0
8163,68.0,65.0,60.0,4.0,64.0
8164,66.0,64.0,60.0,4.0,64.0
8165,65.0,63.0,60.0,4.0,64.0
8166,63.0,56.0,60.0,4.0,64.0
8167,61.0,1.0,90.0,4.0,64.0
8168,87.0,27.0,60.0,1.0,64.0
8169,60.0,7.0,750.0,4.0,64.0
8170,89.0,147.0,30.0,1.0,64.0
8171,90.0,39.0,150.0,1.0,64.0
8172,89.0,46.0,60.0,1.0,64.0
8173,87.0,46.0,60.0,1.0,64.0
8174,85.0,71.0,60.0,1.0,64.0
8175,84.0,182.0,420.0,1.0,64.0
8176,75.0,23.0,30.0,2.0,64.0
8177,77.0,138.0,30.0,2.0,64.0
8178,78.0,48.0,150.0,2.0,64.0
8179,77.0,46.0,60.0,2.0,64.0
8180,75.0,47.0,60.0,2.0,64.0
8181,73.0,41.0,60.0,2.0,64.0
8182,72.0,214.0,600.0,2.0,64.0
8183,80.0,186.0,180.0,2.0,64.0
8184,81.0,166.0,180.0,2.0,64.0
8185,82.0,223.0,420.0,1.0,64.0
8186,63.0,0.0,180.0,4.0,64.0
8187,66.0,24.0,180.0,4.0,64.0
8188,72.0,0.0,180.0,2.0,64.0
8189,56.0,1.0,180.0,4.0,64.0
8190,73.0,191.0,240.0,2.0,64.0
8191,65.0,0.0,240.0,4.0,64.0
8192,68.0,0.0,240.0,4.0,64.0
8193,61.0,1.0,240.0,4.0,64.0
8194,49.0,12.0,540.0,4.0,64.0
8195,73.0,59.0,60.0,2.0,64.0
8196,76.0,60.0,60.0,2.0,64.0
8197,79.0,61.0,60.0,2.0,64.0
8198,82.0,63.0,60.0,1.0,64.0
8199,85.0,57.0,60.0,1.0,64.0
8200,88.0,31.0,90.0,1.0,64.0
8201,82.0,0.0,210.0,1.0,64.0
8202,85.0,58.0,210.0,1.0,64.0
8203,63.0,23.0,30.0,4.0,64.0
8204,65.0,150.0,30.0,4.0,64.0
8205,67.0,1.0,150.0,4.0,64.0
8206,80.0,3.0,180.0,2.0,64.0
8207,84.0,29.0,210.0,1.0,64.0
8208,68.0,43.0,60.0,4.0,64.0
8209,66.0,46.0,60.0,4.0,64.0
8210,65.0,29.0,60.0,4.0,64.0
8211,63.0,12.0,30.0,4.0,64.0
8212,83.0,4.0,210.0,1.0,64.0
8213,80.0,1.0,210.0,2.0,64.0
8214,61.0,25.0,30.0,4.0,64.0
8215,63.0,158.0,20.0,4.0,64.0
8216,65.0,44.0,150.0,4.0,64.0
8217,82.0,6.0,180.0,1.0,64.0
8218,78.0,199.0,900.0,2.0,64.0
8219,66.0,44.0,60.0,4.0,64.0
8220,65.0,44.0,60.0,4.0,64.0
8221,63.0,40.0,60.0,4.0,64.0
8222,62.0,40.0,60.0,4.0,64.0
8223,90.0,6.0,60.0,1.0,64.0
8224,63.0,37.0,60.0,4.0,64.0
8225,89.0,7.0,30.0,1.0,64.0
8226,61.0,39.0,60.0,4.0,64.0
8227,87.0,8.0,60.0,1.0,64.0
8228,59.0,37.0,60.0,4.0,64.0
8229,86.0,8.0,60.0,1.0,64.0
8230,58.0,167.0,60.0,4.0,64.0
8231,59.0,56.0,180.0,4.0,64.0
8232,87.0,0.0,180.0,1.0,64.0
8233,87.0,7.0,60.0,1.0,64.0
8234,59.0,36.0,60.0,4.0,64.0
8235,85.0,9.0,30.0,1.0,64.0
8236,58.0,38.0,60.0,4.0,64.0
8237,56.0,39.0,60.0,4.0,64.0
8238,83.0,7.0,60.0,1.0,64.0
8239,82.0,10.0,60.0,1.0,64.0
8240,55.0,178.0,60.0,4.0,64.0
8241,56.0,4.0,930.0,4.0,64.0
8242,83.0,2.0,570.0,1.0,64.0
8243,73.0,148.0,210.0,2.0,64.0
8244,71.0,19.0,180.0,2.0,64.0
8245,68.0,1.0,180.0,4.0,64.0
8246,75.0,25.0,60.0,2.0,64.0
8247,77.0,80.0,60.0,2.0,64.0
8248,70.0,8.0,180.0,4.0,64.0
8249,78.0,78.0,90.0,2.0,64.0
8250,66.0,11.0,180.0,4.0,64.0
8251,80.0,96.0,120.0,2.0,64.0
8252,82.0,76.0,120.0,1.0,64.0
8253,63.0,195.0,180.0,4.0,64.0
8254,66.0,8.0,180.0,4.0,64.0
8255,84.0,0.0,90.0,1.0,64.0
8256,66.0,1.0,210.0,4.0,64.0
8257,84.0,163.0,210.0,1.0,64.0
8258,61.0,40.0,360.0,4.0,64.0
8259,85.0,329.0,570.0,1.0,64.0
8260,65.0,8.0,180.0,4.0,64.0
8261,65.0,26.0,30.0,4.0,64.0
8262,53.0,1.0,30.0,4.0,64.0
8263,54.0,1.0,30.0,4.0,64.0
8264,66.0,123.0,30.0,4.0,64.0
8265,68.0,60.0,120.0,4.0,64.0
8266,56.0,0.0,120.0,4.0,64.0
8267,66.0,46.0,60.0,4.0,64.0
8268,54.0,1.0,60.0,4.0,64.0
8269,53.0,45.0,60.0,4.0,64.0
8270,65.0,0.0,60.0,4.0,64.0
8271,63.0,35.0,60.0,4.0,64.0
8272,51.0,0.0,60.0,4.0,64.0
8273,61.0,4.0,30.0,4.0,64.0
8274,49.0,16.0,1530.0,4.0,64.0
8275,73.0,66.0,330.0,2.0,64.0
8276,61.0,43.0,720.0,4.0,64.0
8277,73.0,60.0,60.0,2.0,64.0
8278,75.0,62.0,60.0,2.0,64.0
8279,73.0,61.0,60.0,2.0,64.0
8280,71.0,63.0,60.0,2.0,64.0
8281,70.0,64.0,60.0,4.0,64.0
8282,68.0,1.0,60.0,4.0,64.0
8283,82.0,23.0,30.0,1.0,64.0
8284,66.0,81.0,390.0,4.0,64.0
8285,83.0,132.0,30.0,1.0,64.0
8286,85.0,49.0,150.0,1.0,64.0
8287,83.0,46.0,60.0,1.0,64.0
8288,82.0,47.0,60.0,1.0,64.0
8289,80.0,36.0,60.0,2.0,64.0
8290,78.0,14.0,450.0,2.0,64.0
8291,66.0,61.0,90.0,4.0,64.0
8292,68.0,64.0,60.0,4.0,64.0
8293,66.0,62.0,60.0,4.0,64.0
8294,64.0,62.0,60.0,4.0,64.0
8295,63.0,64.0,60.0,4.0,64.0
8296,61.0,0.0,60.0,4.0,64.0
8297,83.0,25.0,30.0,1.0,64.0
8298,59.0,8.0,750.0,4.0,64.0
8299,85.0,134.0,30.0,1.0,64.0
8300,87.0,46.0,150.0,1.0,64.0
8301,85.0,46.0,60.0,1.0,64.0
8302,83.0,44.0,60.0,1.0,64.0
8303,82.0,68.0,60.0,1.0,64.0
8304,80.0,181.0,420.0,2.0,64.0
8305,68.0,23.0,30.0,4.0,64.0
8306,70.0,123.0,30.0,4.0,64.0
8307,71.0,59.0,120.0,2.0,64.0
8308,70.0,44.0,60.0,4.0,64.0
8309,68.0,47.0,60.0,4.0,64.0
8310,66.0,39.0,60.0,4.0,64.0
8311,65.0,143.0,600.0,4.0,64.0
8312,85.0,186.0,180.0,1.0,64.0
8313,86.0,192.0,180.0,1.0,64.0
8314,87.0,44.0,330.0,1.0,64.0
8315,68.0,0.0,180.0,4.0,64.0
8316,71.0,0.0,180.0,2.0,64.0
8317,77.0,246.0,180.0,2.0,64.0
8318,61.0,1.0,180.0,4.0,64.0
8319,78.0,190.0,240.0,2.0,64.0
8320,66.0,1.0,240.0,4.0,64.0
8321,70.0,1.0,240.0,4.0,64.0
8322,73.0,0.0,240.0,2.0,64.0
8323,54.0,23.0,570.0,4.0,64.0
8324,73.0,60.0,60.0,2.0,64.0
8325,76.0,59.0,60.0,2.0,64.0
8326,79.0,62.0,60.0,2.0,64.0
8327,82.0,61.0,60.0,1.0,64.0
8328,85.0,48.0,60.0,1.0,64.0
8329,88.0,15.0,60.0,1.0,64.0
8330,88.0,0.0,210.0,1.0,64.0
8331,85.0,16.0,210.0,1.0,64.0
8332,63.0,23.0,30.0,4.0,64.0
8333,65.0,140.0,30.0,4.0,64.0
8334,67.0,43.0,150.0,4.0,64.0
8335,68.0,47.0,60.0,4.0,64.0
8336,80.0,13.0,180.0,2.0,64.0
8337,84.0,19.0,180.0,1.0,64.0
8338,66.0,47.0,60.0,4.0,64.0
8339,65.0,47.0,60.0,4.0,64.0
8340,63.0,0.0,60.0,4.0,64.0
8341,61.0,25.0,30.0,4.0,64.0
8342,80.0,6.0,210.0,2.0,64.0
8343,83.0,41.0,210.0,1.0,64.0
8344,63.0,119.0,30.0,4.0,64.0
8345,65.0,39.0,120.0,4.0,64.0
8346,66.0,44.0,90.0,4.0,64.0
8347,78.0,272.0,930.0,2.0,64.0
8348,82.0,160.0,360.0,1.0,64.0
8349,65.0,46.0,60.0,4.0,64.0
8350,63.0,47.0,60.0,4.0,64.0
8351,62.0,47.0,60.0,4.0,64.0
8352,90.0,43.0,60.0,1.0,64.0
8353,63.0,1.0,60.0,4.0,64.0
8354,89.0,43.0,60.0,1.0,64.0
8355,61.0,1.0,60.0,4.0,64.0
8356,87.0,45.0,60.0,1.0,64.0
8357,59.0,1.0,60.0,4.0,64.0
8358,86.0,0.0,60.0,1.0,64.0
8359,58.0,1.0,60.0,4.0,64.0
8360,59.0,62.0,180.0,4.0,64.0
8361,87.0,7.0,180.0,1.0,64.0
8362,87.0,44.0,60.0,1.0,64.0
8363,59.0,1.0,60.0,4.0,64.0
8364,85.0,44.0,60.0,1.0,64.0
8365,58.0,0.0,60.0,4.0,64.0
8366,83.0,43.0,60.0,1.0,64.0
8367,56.0,1.0,60.0,4.0,64.0
8368,82.0,3.0,60.0,1.0,64.0
8369,55.0,178.0,60.0,4.0,64.0
8370,56.0,191.0,930.0,4.0,64.0
8371,83.0,3.0,570.0,1.0,64.0
8372,73.0,77.0,270.0,2.0,64.0
8373,68.0,1.0,180.0,4.0,64.0
8374,71.0,20.0,180.0,2.0,64.0
8375,75.0,22.0,60.0,2.0,64.0
8376,77.0,79.0,60.0,2.0,64.0
8377,78.0,73.0,90.0,2.0,64.0
8378,66.0,10.0,180.0,4.0,64.0
8379,70.0,6.0,180.0,4.0,64.0
8380,80.0,92.0,90.0,2.0,64.0
8381,82.0,75.0,90.0,1.0,64.0
8382,63.0,5.0,180.0,4.0,64.0
8383,66.0,2.0,180.0,4.0,64.0
8384,84.0,0.0,90.0,1.0,64.0
8385,84.0,160.0,180.0,1.0,64.0
8386,61.0,48.0,360.0,4.0,64.0
8387,66.0,0.0,180.0,4.0,64.0
8388,85.0,10.0,570.0,1.0,64.0
8389,65.0,15.0,150.0,4.0,64.0
8390,65.0,26.0,60.0,4.0,64.0
8391,53.0,1.0,60.0,4.0,64.0
8392,54.0,1.0,30.0,4.0,64.0
8393,66.0,137.0,30.0,4.0,64.0
8394,56.0,1.0,150.0,4.0,64.0
8395,68.0,47.0,150.0,4.0,64.0
8396,66.0,48.0,60.0,4.0,64.0
8397,54.0,1.0,60.0,4.0,64.0
8398,53.0,1.0,60.0,4.0,64.0
8399,65.0,50.0,60.0,4.0,64.0
8400,63.0,27.0,60.0,4.0,64.0
8401,51.0,1.0,60.0,4.0,64.0
8402,61.0,354.0,60.0,4.0,64.0
8403,49.0,34.0,1830.0,4.0,64.0
8404,73.0,78.0,360.0,2.0,64.0
8405,61.0,19.0,720.0,4.0,64.0
8406,73.0,59.0,60.0,2.0,64.0
8407,75.0,62.0,60.0,2.0,64.0
8408,73.0,62.0,60.0,2.0,64.0
8409,71.0,61.0,60.0,2.0,64.0
8410,70.0,56.0,60.0,4.0,64.0
8411,68.0,43.0,90.0,4.0,64.0
8412,82.0,23.0,60.0,1.0,64.0
8413,66.0,79.0,390.0,4.0,64.0
8414,83.0,133.0,30.0,1.0,64.0
8415,85.0,54.0,150.0,1.0,64.0
8416,83.0,46.0,60.0,1.0,64.0
8417,82.0,46.0,60.0,1.0,64.0
8418,80.0,36.0,60.0,2.0,64.0
8419,78.0,31.0,450.0,2.0,64.0
8420,66.0,63.0,60.0,4.0,64.0
8421,68.0,65.0,60.0,4.0,64.0
8422,66.0,64.0,60.0,4.0,64.0
8423,64.0,61.0,60.0,4.0,64.0
8424,63.0,68.0,60.0,4.0,64.0
8425,61.0,1.0,60.0,4.0,64.0
8426,59.0,7.0,750.0,4.0,64.0
8427,83.0,23.0,60.0,1.0,64.0
8428,85.0,133.0,30.0,1.0,64.0
8429,87.0,54.0,150.0,1.0,64.0
8430,85.0,11.0,60.0,1.0,64.0
8431,83.0,48.0,60.0,1.0,64.0
8432,82.0,69.0,60.0,1.0,64.0
8433,80.0,182.0,420.0,2.0,64.0
8434,68.0,23.0,30.0,4.0,64.0
8435,70.0,133.0,30.0,4.0,64.0
8436,71.0,53.0,150.0,2.0,64.0
8437,70.0,46.0,60.0,4.0,64.0
8438,68.0,48.0,60.0,4.0,64.0
8439,66.0,38.0,60.0,4.0,64.0
8440,65.0,170.0,600.0,4.0,64.0
8441,85.0,179.0,180.0,1.0,64.0
8442,86.0,185.0,180.0,1.0,64.0
8443,87.0,187.0,420.0,1.0,64.0
8444,77.0,54.0,180.0,2.0,64.0
8445,71.0,1.0,180.0,2.0,64.0
8446,68.0,0.0,180.0,4.0,64.0
8447,61.0,1.0,180.0,4.0,64.0
8448,73.0,327.0,240.0,2.0,64.0
8449,78.0,0.0,240.0,2.0,64.0
8450,66.0,1.0,240.0,4.0,64.0
8451,70.0,0.0,240.0,4.0,64.0
8452,54.0,223.0,360.0,4.0,64.0
8453,78.0,44.0,60.0,2.0,64.0
8454,77.0,40.0,60.0,2.0,64.0
8455,80.0,42.0,60.0,2.0,64.0
8456,78.0,43.0,60.0,2.0,64.0
8457,82.0,40.0,60.0,1.0,64.0
8458,80.0,43.0,60.0,2.0,64.0
8459,83.0,42.0,60.0,1.0,64.0
8460,82.0,43.0,60.0,1.0,64.0
8461,85.0,29.0,60.0,1.0,64.0
8462,70.0,10.0,90.0,4.0,64.0
8463,58.0,1.0,90.0,4.0,64.0
8464,87.0,40.0,60.0,1.0,64.0
8465,65.0,0.0,90.0,4.0,64.0
8466,83.0,32.0,60.0,1.0,64.0
8467,53.0,11.0,90.0,4.0,64.0
8468,85.0,41.0,60.0,1.0,64.0
8469,82.0,30.0,60.0,1.0,64.0
8470,66.0,10.0,90.0,4.0,64.0
8471,54.0,0.0,90.0,4.0,64.0
8472,83.0,42.0,60.0,1.0,64.0
8473,80.0,32.0,60.0,2.0,64.0
8474,62.0,10.0,90.0,4.0,64.0
8475,50.0,1.0,90.0,4.0,64.0
8476,82.0,40.0,60.0,1.0,64.0
8477,78.0,27.0,60.0,2.0,64.0
8478,51.0,20.0,330.0,4.0,64.0
8479,63.0,0.0,330.0,4.0,64.0
8480,80.0,40.0,60.0,2.0,64.0
8481,78.0,40.0,60.0,2.0,64.0
8482,77.0,54.0,60.0,2.0,64.0
8483,78.0,41.0,60.0,2.0,64.0
8484,80.0,40.0,60.0,2.0,64.0
8485,82.0,22.0,60.0,1.0,64.0
8486,78.0,40.0,60.0,2.0,64.0
8487,83.0,31.0,60.0,1.0,64.0
8488,68.0,10.0,90.0,4.0,64.0
8489,56.0,1.0,90.0,4.0,64.0
8490,85.0,40.0,60.0,1.0,64.0
8491,82.0,32.0,60.0,1.0,64.0
8492,70.0,9.0,90.0,4.0,64.0
8493,58.0,0.0,90.0,4.0,64.0
8494,83.0,43.0,60.0,1.0,64.0
8495,80.0,32.0,60.0,2.0,64.0
8496,59.0,1.0,90.0,4.0,64.0
8497,71.0,10.0,90.0,2.0,64.0
8498,82.0,42.0,60.0,1.0,64.0
8499,78.0,31.0,60.0,2.0,64.0
8500,72.0,10.0,90.0,2.0,64.0
8501,60.0,0.0,90.0,4.0,64.0
8502,80.0,28.0,60.0,2.0,64.0
8503,77.0,39.0,60.0,2.0,64.0
8504,61.0,20.0,330.0,4.0,64.0
8505,73.0,21.0,300.0,2.0,64.0
8506,78.0,41.0,60.0,2.0,64.0
8507,80.0,41.0,60.0,2.0,64.0
8508,82.0,39.0,60.0,1.0,64.0
8509,83.0,43.0,60.0,1.0,64.0
8510,82.0,56.0,60.0,1.0,64.0
8511,83.0,0.0,60.0,1.0,64.0
8512,80.0,42.0,60.0,2.0,64.0
8513,70.0,0.0,330.0,4.0,64.0
8514,73.0,6.0,330.0,2.0,64.0
8515,82.0,42.0,60.0,1.0,64.0
8516,66.0,1.0,330.0,4.0,64.0
8517,78.0,42.0,60.0,2.0,64.0
8518,83.0,43.0,60.0,1.0,64.0
8519,80.0,28.0,60.0,2.0,64.0
8520,85.0,41.0,60.0,1.0,64.0
8521,84.0,43.0,60.0,1.0,64.0
8522,85.0,33.0,60.0,1.0,64.0
8523,82.0,53.0,60.0,1.0,64.0
8524,68.0,0.0,330.0,4.0,64.0
8525,83.0,41.0,60.0,1.0,64.0
8526,59.0,6.0,330.0,4.0,64.0
8527,63.0,0.0,330.0,4.0,64.0
8528,80.0,40.0,60.0,2.0,64.0
8529,85.0,40.0,60.0,1.0,64.0
8530,82.0,27.0,60.0,1.0,64.0
8531,87.0,42.0,60.0,1.0,64.0
8532,86.0,39.0,60.0,1.0,64.0
8533,87.0,35.0,60.0,1.0,64.0
8534,83.0,156.0,60.0,1.0,64.0
8535,61.0,23.0,660.0,4.0,64.0
8536,66.0,157.0,180.0,4.0,64.0
8537,82.0,5.0,150.0,1.0,64.0
8538,80.0,74.0,150.0,2.0,64.0
8539,65.0,0.0,510.0,4.0,64.0
8540,78.0,42.0,60.0,2.0,64.0
8541,77.0,40.0,60.0,2.0,64.0
8542,80.0,43.0,60.0,2.0,64.0
8543,78.0,44.0,60.0,2.0,64.0
8544,82.0,40.0,60.0,1.0,64.0
8545,80.0,42.0,60.0,2.0,64.0
8546,83.0,22.0,60.0,1.0,64.0
8547,82.0,42.0,60.0,1.0,64.0
8548,85.0,31.0,60.0,1.0,64.0
8549,70.0,10.0,90.0,4.0,64.0
8550,58.0,1.0,90.0,4.0,64.0
8551,87.0,42.0,60.0,1.0,64.0
8552,65.0,12.0,90.0,4.0,64.0
8553,83.0,30.0,60.0,1.0,64.0
8554,53.0,1.0,90.0,4.0,64.0
8555,85.0,40.0,60.0,1.0,64.0
8556,82.0,32.0,60.0,1.0,64.0
8557,66.0,10.0,90.0,4.0,64.0
8558,54.0,0.0,90.0,4.0,64.0
8559,83.0,40.0,60.0,1.0,64.0
8560,80.0,31.0,60.0,2.0,64.0
8561,62.0,10.0,90.0,4.0,64.0
8562,50.0,1.0,90.0,4.0,64.0
8563,82.0,40.0,60.0,1.0,64.0
8564,78.0,30.0,60.0,2.0,64.0
8565,51.0,12.0,90.0,4.0,64.0
8566,63.0,0.0,90.0,4.0,64.0
8567,80.0,41.0,60.0,2.0,64.0
8568,77.0,31.0,60.0,2.0,64.0
8569,65.0,10.0,90.0,4.0,64.0
8570,53.0,1.0,90.0,4.0,64.0
8571,78.0,39.0,60.0,2.0,64.0
8572,75.0,32.0,60.0,2.0,64.0
8573,66.0,12.0,90.0,4.0,64.0
8574,54.0,0.0,90.0,4.0,64.0
8575,77.0,41.0,60.0,2.0,64.0
8576,73.0,31.0,60.0,2.0,64.0
8577,55.0,1.0,90.0,4.0,64.0
8578,67.0,12.0,90.0,4.0,64.0
8579,75.0,71.0,60.0,2.0,64.0
8580,68.0,27.0,300.0,4.0,64.0
8581,72.0,43.0,90.0,2.0,64.0
8582,56.0,8.0,330.0,4.0,64.0
8583,84.0,0.0,60.0,1.0,64.0
8584,87.0,40.0,60.0,1.0,64.0
8585,85.0,41.0,60.0,1.0,64.0
8586,84.0,40.0,60.0,1.0,64.0
8587,82.0,40.0,60.0,1.0,64.0
8588,80.0,9.0,60.0,2.0,64.0
8589,79.0,40.0,60.0,2.0,64.0
8590,78.0,43.0,60.0,2.0,64.0
8591,63.0,0.0,330.0,4.0,64.0
8592,68.0,5.0,330.0,4.0,64.0
8593,60.0,1.0,330.0,4.0,64.0
8594,87.0,41.0,60.0,1.0,64.0
8595,90.0,39.0,60.0,1.0,64.0
8596,89.0,41.0,60.0,1.0,64.0
8597,87.0,40.0,60.0,1.0,64.0
8598,85.0,42.0,60.0,1.0,64.0
8599,84.0,37.0,60.0,1.0,64.0
8600,82.0,44.0,60.0,1.0,64.0
8601,80.0,41.0,60.0,2.0,64.0
8602,61.0,2.0,180.0,4.0,64.0
8603,65.0,0.0,180.0,4.0,64.0
8604,82.0,40.0,60.0,1.0,64.0
8605,84.0,39.0,60.0,1.0,64.0
8606,85.0,41.0,60.0,1.0,64.0
8607,63.0,3.0,180.0,4.0,64.0
8608,84.0,40.0,60.0,1.0,64.0
8609,54.0,1.0,150.0,4.0,64.0
8610,82.0,40.0,60.0,1.0,64.0
8611,80.0,38.0,60.0,2.0,64.0
8612,78.0,42.0,60.0,2.0,64.0
8613,77.0,41.0,60.0,2.0,64.0
8614,61.0,5.0,180.0,4.0,64.0
8615,56.0,8.0,150.0,4.0,64.0
8616,78.0,40.0,60.0,2.0,64.0
8617,80.0,29.0,60.0,2.0,64.0
8618,82.0,40.0,60.0,1.0,64.0
8619,80.0,40.0,60.0,2.0,64.0
8620,56.0,3.0,150.0,4.0,64.0
8621,60.0,4.0,180.0,4.0,64.0
8622,78.0,43.0,60.0,2.0,64.0
8623,77.0,34.0,60.0,2.0,64.0
8624,75.0,50.0,60.0,2.0,64.0
8625,73.0,117.0,330.0,2.0,64.0
8626,49.0,54.0,60.0,4.0,64.0
8627,61.0,55.0,60.0,4.0,64.0
8628,56.0,52.0,60.0,4.0,64.0
8629,53.0,119.0,60.0,4.0,64.0
8630,49.0,36.0,510.0,4.0,64.0
8631,78.0,41.0,60.0,2.0,64.0
8632,77.0,42.0,60.0,2.0,64.0
8633,80.0,41.0,60.0,2.0,64.0
8634,78.0,42.0,60.0,2.0,64.0
8635,82.0,45.0,60.0,1.0,64.0
8636,80.0,42.0,60.0,2.0,64.0
8637,83.0,7.0,60.0,1.0,64.0
8638,82.0,31.0,60.0,1.0,64.0
8639,70.0,0.0,90.0,4.0,64.0
8640,85.0,45.0,60.0,1.0,64.0
8641,58.0,12.0,90.0,4.0,64.0
8642,87.0,43.0,60.0,1.0,64.0
8643,83.0,31.0,60.0,1.0,64.0
8644,65.0,10.0,90.0,4.0,64.0
8645,53.0,1.0,90.0,4.0,64.0
8646,85.0,45.0,60.0,1.0,64.0
8647,82.0,30.0,60.0,1.0,64.0
8648,66.0,12.0,90.0,4.0,64.0
8649,54.0,0.0,90.0,4.0,64.0
8650,83.0,42.0,60.0,1.0,64.0
8651,62.0,10.0,90.0,4.0,64.0
8652,80.0,32.0,60.0,2.0,64.0
8653,50.0,1.0,90.0,4.0,64.0
8654,82.0,26.0,60.0,1.0,64.0
8655,78.0,44.0,60.0,2.0,64.0
8656,51.0,1.0,300.0,4.0,64.0
8657,63.0,20.0,300.0,4.0,64.0
8658,80.0,38.0,60.0,2.0,64.0
8659,78.0,40.0,60.0,2.0,64.0
8660,77.0,45.0,60.0,2.0,64.0
8661,78.0,42.0,60.0,2.0,64.0
8662,80.0,34.0,60.0,2.0,64.0
8663,82.0,43.0,60.0,1.0,64.0
8664,78.0,29.0,60.0,2.0,64.0
8665,83.0,45.0,60.0,1.0,64.0
8666,68.0,12.0,90.0,4.0,64.0
8667,56.0,0.0,90.0,4.0,64.0
8668,85.0,43.0,60.0,1.0,64.0
8669,82.0,31.0,60.0,1.0,64.0
8670,58.0,1.0,90.0,4.0,64.0
8671,70.0,12.0,90.0,4.0,64.0
8672,83.0,42.0,60.0,1.0,64.0
8673,80.0,31.0,60.0,2.0,64.0
8674,71.0,10.0,90.0,2.0,64.0
8675,59.0,1.0,90.0,4.0,64.0
8676,82.0,41.0,60.0,1.0,64.0
8677,78.0,28.0,60.0,2.0,64.0
8678,72.0,39.0,90.0,2.0,64.0
8679,60.0,1.0,90.0,4.0,64.0
8680,80.0,1.0,60.0,2.0,64.0
8681,73.0,14.0,300.0,2.0,64.0
8682,77.0,41.0,60.0,2.0,64.0
8683,61.0,1.0,300.0,4.0,64.0
8684,78.0,42.0,60.0,2.0,64.0
8685,80.0,45.0,60.0,2.0,64.0
8686,82.0,42.0,60.0,1.0,64.0
8687,83.0,40.0,60.0,1.0,64.0
8688,82.0,40.0,60.0,1.0,64.0
8689,83.0,42.0,60.0,1.0,64.0
8690,80.0,42.0,60.0,2.0,64.0
8691,73.0,6.0,330.0,2.0,64.0
8692,82.0,43.0,60.0,1.0,64.0
8693,66.0,1.0,330.0,4.0,64.0
8694,70.0,0.0,330.0,4.0,64.0
8695,78.0,42.0,60.0,2.0,64.0
8696,83.0,44.0,60.0,1.0,64.0
8697,80.0,27.0,60.0,2.0,64.0
8698,85.0,42.0,60.0,1.0,64.0
8699,84.0,42.0,60.0,1.0,64.0
8700,85.0,35.0,60.0,1.0,64.0
8701,82.0,55.0,60.0,1.0,64.0
8702,83.0,43.0,60.0,1.0,64.0
8703,63.0,6.0,330.0,4.0,64.0
8704,68.0,0.0,330.0,4.0,64.0
8705,59.0,1.0,330.0,4.0,64.0
8706,80.0,42.0,60.0,2.0,64.0
8707,85.0,40.0,60.0,1.0,64.0
8708,82.0,29.0,60.0,1.0,64.0
8709,87.0,39.0,60.0,1.0,64.0
8710,86.0,42.0,60.0,1.0,64.0
8711,87.0,32.0,60.0,1.0,64.0
8712,83.0,154.0,60.0,1.0,64.0
8713,82.0,4.0,150.0,1.0,64.0
8714,66.0,135.0,150.0,4.0,64.0
8715,61.0,13.0,660.0,4.0,64.0
8716,65.0,22.0,480.0,4.0,64.0
8717,80.0,94.0,150.0,2.0,64.0
8718,78.0,40.0,60.0,2.0,64.0
8719,77.0,42.0,60.0,2.0,64.0
8720,80.0,43.0,60.0,2.0,64.0
8721,78.0,43.0,60.0,2.0,64.0
8722,82.0,42.0,60.0,1.0,64.0
8723,80.0,42.0,60.0,2.0,64.0
8724,83.0,8.0,60.0,1.0,64.0
8725,82.0,45.0,60.0,1.0,64.0
8726,85.0,31.0,60.0,1.0,64.0
8727,58.0,1.0,90.0,4.0,64.0
8728,70.0,12.0,90.0,4.0,64.0
8729,87.0,40.0,60.0,1.0,64.0
8730,83.0,32.0,60.0,1.0,64.0
8731,65.0,10.0,90.0,4.0,64.0
8732,53.0,0.0,90.0,4.0,64.0
8733,85.0,41.0,60.0,1.0,64.0
8734,82.0,30.0,60.0,1.0,64.0
8735,66.0,12.0,90.0,4.0,64.0
8736,54.0,1.0,90.0,4.0,64.0
8737,83.0,40.0,60.0,1.0,64.0
8738,62.0,0.0,90.0,4.0,64.0
8739,80.0,31.0,60.0,2.0,64.0
8740,50.0,10.0,90.0,4.0,64.0
8741,82.0,41.0,60.0,1.0,64.0
8742,78.0,30.0,60.0,2.0,64.0
8743,63.0,12.0,90.0,4.0,64.0
8744,51.0,0.0,90.0,4.0,64.0
8745,80.0,40.0,60.0,2.0,64.0
8746,77.0,30.0,60.0,2.0,64.0
8747,65.0,12.0,90.0,4.0,64.0
8748,53.0,1.0,90.0,4.0,64.0
8749,78.0,39.0,60.0,2.0,64.0
8750,66.0,0.0,90.0,4.0,64.0
8751,75.0,30.0,60.0,2.0,64.0
8752,54.0,11.0,90.0,4.0,64.0
8753,77.0,43.0,60.0,2.0,64.0
8754,73.0,28.0,60.0,2.0,64.0
8755,67.0,12.0,90.0,4.0,64.0
8756,55.0,1.0,90.0,4.0,64.0
8757,75.0,63.0,60.0,2.0,64.0
8758,72.0,6.0,90.0,2.0,64.0
8759,56.0,7.0,330.0,4.0,64.0
8760,68.0,27.0,300.0,4.0,64.0
8761,84.0,43.0,60.0,1.0,64.0
8762,87.0,40.0,60.0,1.0,64.0
8763,85.0,38.0,60.0,1.0,64.0
8764,84.0,41.0,60.0,1.0,64.0
8765,82.0,42.0,60.0,1.0,64.0
8766,80.0,6.0,60.0,2.0,64.0
8767,79.0,41.0,60.0,2.0,64.0
8768,68.0,0.0,330.0,4.0,64.0
8769,78.0,40.0,60.0,2.0,64.0
8770,60.0,1.0,330.0,4.0,64.0
8771,63.0,8.0,330.0,4.0,64.0
8772,87.0,40.0,60.0,1.0,64.0
8773,90.0,40.0,60.0,1.0,64.0
8774,89.0,40.0,60.0,1.0,64.0
8775,87.0,41.0,60.0,1.0,64.0
8776,85.0,40.0,60.0,1.0,64.0
8777,84.0,33.0,60.0,1.0,64.0
8778,82.0,40.0,60.0,1.0,64.0
8779,61.0,4.0,150.0,4.0,64.0
8780,65.0,0.0,150.0,4.0,64.0
8781,80.0,40.0,60.0,2.0,64.0
8782,82.0,41.0,60.0,1.0,64.0
8783,84.0,36.0,60.0,1.0,64.0
8784,85.0,41.0,60.0,1.0,64.0
8785,84.0,39.0,60.0,1.0,64.0
8786,63.0,3.0,150.0,4.0,64.0
8787,54.0,1.0,150.0,4.0,64.0
8788,82.0,39.0,60.0,1.0,64.0
8789,80.0,36.0,60.0,2.0,64.0
8790,78.0,41.0,60.0,2.0,64.0
8791,61.0,5.0,150.0,4.0,64.0
8792,77.0,42.0,60.0,2.0,64.0
8793,56.0,9.0,150.0,4.0,64.0
8794,78.0,38.0,60.0,2.0,64.0
8795,80.0,29.0,60.0,2.0,64.0
8796,82.0,40.0,60.0,1.0,64.0
8797,60.0,4.0,150.0,4.0,64.0
8798,80.0,40.0,60.0,2.0,64.0
8799,56.0,3.0,150.0,4.0,64.0
8800,78.0,40.0,60.0,2.0,64.0
8801,77.0,34.0,60.0,2.0,64.0
8802,75.0,50.0,60.0,2.0,64.0
8803,73.0,7.0,210.0,2.0,64.0
8804,49.0,48.0,60.0,4.0,64.0
8805,61.0,52.0,60.0,4.0,64.0
8806,56.0,40.0,60.0,4.0,64.0
8807,53.0,222.0,60.0,4.0,64.0
8808,49.0,30.0,450.0,4.0,64.0
8809,85.0,48.0,60.0,1.0,64.0
8810,87.0,43.0,60.0,1.0,64.0
8811,88.0,40.0,60.0,1.0,64.0
8812,87.0,44.0,60.0,1.0,64.0
8813,85.0,43.0,60.0,1.0,64.0
8814,83.0,15.0,60.0,1.0,64.0
8815,82.0,42.0,60.0,1.0,64.0
8816,80.0,42.0,60.0,2.0,64.0
8817,79.0,45.0,60.0,2.0,64.0
8818,76.0,18.0,180.0,2.0,64.0
8819,73.0,1.0,180.0,2.0,64.0
8820,80.0,44.0,60.0,2.0,64.0
8821,82.0,22.0,60.0,1.0,64.0
8822,79.0,44.0,60.0,2.0,64.0
8823,75.0,0.0,180.0,2.0,64.0
8824,80.0,44.0,60.0,2.0,64.0
8825,72.0,19.0,180.0,2.0,64.0
8826,84.0,46.0,60.0,1.0,64.0
8827,87.0,24.0,60.0,1.0,64.0
8828,78.0,42.0,60.0,2.0,64.0
8829,71.0,1.0,180.0,2.0,64.0
8830,74.0,20.0,180.0,2.0,64.0
8831,77.0,44.0,60.0,2.0,64.0
8832,78.0,40.0,60.0,2.0,64.0
8833,80.0,24.0,60.0,2.0,64.0
8834,77.0,43.0,60.0,2.0,64.0
8835,78.0,44.0,60.0,2.0,64.0
8836,73.0,20.0,180.0,2.0,64.0
8837,70.0,0.0,180.0,4.0,64.0
8838,82.0,42.0,60.0,1.0,64.0
8839,85.0,26.0,60.0,1.0,64.0
8840,78.0,44.0,60.0,2.0,64.0
8841,90.0,32.0,60.0,1.0,64.0
8842,63.0,1.0,90.0,4.0,64.0
8843,75.0,12.0,90.0,2.0,64.0
8844,92.0,44.0,60.0,1.0,64.0
8845,89.0,30.0,60.0,1.0,64.0
8846,73.0,13.0,90.0,2.0,64.0
8847,61.0,0.0,90.0,4.0,64.0
8848,90.0,43.0,60.0,1.0,64.0
8849,71.0,0.0,90.0,2.0,64.0
8850,87.0,32.0,60.0,1.0,64.0
8851,59.0,12.0,90.0,4.0,64.0
8852,89.0,44.0,60.0,1.0,64.0
8853,86.0,32.0,60.0,1.0,64.0
8854,58.0,1.0,90.0,4.0,64.0
8855,70.0,10.0,90.0,4.0,64.0
8856,89.0,44.0,60.0,1.0,64.0
8857,87.0,31.0,60.0,1.0,64.0
8858,71.0,12.0,90.0,2.0,64.0
8859,59.0,1.0,90.0,4.0,64.0
8860,89.0,44.0,60.0,1.0,64.0
8861,70.0,0.0,90.0,4.0,64.0
8862,85.0,32.0,60.0,1.0,64.0
8863,58.0,12.0,90.0,4.0,64.0
8864,87.0,43.0,60.0,1.0,64.0
8865,84.0,31.0,60.0,1.0,64.0
8866,68.0,12.0,90.0,4.0,64.0
8867,56.0,1.0,90.0,4.0,64.0
8868,85.0,44.0,60.0,1.0,64.0
8869,82.0,29.0,60.0,1.0,64.0
8870,66.0,10.0,90.0,4.0,64.0
8871,54.0,1.0,90.0,4.0,64.0
8872,85.0,42.0,20.0,1.0,64.0
8873,75.0,17.0,180.0,2.0,64.0
8874,68.0,1.0,180.0,4.0,64.0
8875,83.0,42.0,60.0,1.0,64.0
8876,82.0,24.0,60.0,1.0,64.0
8877,83.0,46.0,60.0,1.0,64.0
8878,73.0,2.0,330.0,2.0,64.0
8879,80.0,41.0,60.0,2.0,64.0
8880,65.0,17.0,180.0,4.0,64.0
8881,82.0,43.0,60.0,1.0,64.0
8882,83.0,26.0,60.0,1.0,64.0
8883,85.0,43.0,60.0,1.0,64.0
8884,83.0,42.0,60.0,1.0,64.0
8885,66.0,19.0,180.0,4.0,64.0
8886,82.0,45.0,60.0,1.0,64.0
8887,80.0,21.0,60.0,2.0,64.0
8888,82.0,42.0,60.0,1.0,64.0
8889,78.0,40.0,60.0,2.0,64.0
8890,63.0,16.0,180.0,4.0,64.0
8891,71.0,0.0,180.0,2.0,64.0
8892,80.0,41.0,60.0,2.0,64.0
8893,82.0,23.0,60.0,1.0,64.0
8894,83.0,252.0,60.0,1.0,64.0
8895,82.0,37.0,270.0,1.0,64.0
8896,61.0,65.0,630.0,4.0,64.0
8897,66.0,274.0,300.0,4.0,64.0
8898,85.0,6.0,60.0,1.0,64.0
8899,65.0,6.0,300.0,4.0,64.0
8900,80.0,40.0,300.0,2.0,64.0
8901,73.0,40.0,60.0,2.0,64.0
8902,72.0,43.0,60.0,2.0,64.0
8903,75.0,41.0,60.0,2.0,64.0
8904,73.0,42.0,60.0,2.0,64.0
8905,77.0,42.0,60.0,2.0,64.0
8906,75.0,43.0,60.0,2.0,64.0
8907,78.0,42.0,60.0,2.0,64.0
8908,77.0,40.0,60.0,2.0,64.0
8909,80.0,42.0,60.0,2.0,64.0
8910,78.0,41.0,60.0,2.0,64.0
8911,82.0,42.0,60.0,1.0,64.0
8912,80.0,44.0,60.0,2.0,64.0
8913,83.0,45.0,60.0,1.0,64.0
8914,82.0,28.0,60.0,1.0,64.0
8915,85.0,45.0,60.0,1.0,64.0
8916,58.0,13.0,90.0,4.0,64.0
8917,70.0,0.0,90.0,4.0,64.0
8918,87.0,41.0,60.0,1.0,64.0
8919,83.0,31.0,60.0,1.0,64.0
8920,65.0,10.0,90.0,4.0,64.0
8921,53.0,0.0,90.0,4.0,64.0
8922,85.0,43.0,60.0,1.0,64.0
8923,82.0,30.0,60.0,1.0,64.0
8924,66.0,12.0,90.0,4.0,64.0
8925,54.0,1.0,90.0,4.0,64.0
8926,83.0,42.0,60.0,1.0,64.0
8927,80.0,32.0,60.0,2.0,64.0
8928,50.0,12.0,90.0,4.0,64.0
8929,62.0,0.0,90.0,4.0,64.0
8930,82.0,27.0,60.0,1.0,64.0
8931,78.0,44.0,60.0,2.0,64.0
8932,51.0,22.0,330.0,4.0,64.0
8933,63.0,0.0,330.0,4.0,64.0
8934,80.0,42.0,60.0,2.0,64.0
8935,78.0,43.0,60.0,2.0,64.0
8936,77.0,44.0,60.0,2.0,64.0
8937,78.0,54.0,60.0,2.0,64.0
8938,80.0,42.0,60.0,2.0,64.0
8939,82.0,23.0,60.0,1.0,64.0
8940,78.0,27.0,60.0,2.0,64.0
8941,71.0,1.0,330.0,2.0,64.0
8942,83.0,40.0,60.0,1.0,64.0
8943,65.0,1.0,330.0,4.0,64.0
8944,68.0,0.0,330.0,4.0,64.0
8945,62.0,7.0,330.0,4.0,64.0
8946,82.0,41.0,60.0,1.0,64.0
8947,80.0,40.0,60.0,2.0,64.0
8948,78.0,42.0,60.0,2.0,64.0
8949,77.0,40.0,60.0,2.0,64.0
8950,78.0,40.0,60.0,2.0,64.0
8951,80.0,29.0,60.0,2.0,64.0
8952,82.0,42.0,30.0,1.0,64.0
8953,71.0,0.0,330.0,2.0,64.0
8954,83.0,41.0,60.0,1.0,64.0
8955,65.0,0.0,330.0,4.0,64.0
8956,68.0,6.0,330.0,4.0,64.0
8957,61.0,1.0,330.0,4.0,64.0
8958,82.0,38.0,60.0,1.0,64.0
8959,80.0,42.0,60.0,2.0,64.0
8960,82.0,41.0,60.0,1.0,64.0
8961,83.0,40.0,60.0,1.0,64.0
8962,85.0,38.0,60.0,1.0,64.0
8963,87.0,35.0,60.0,1.0,64.0
8964,89.0,43.0,60.0,1.0,64.0
8965,90.0,40.0,60.0,1.0,64.0
8966,70.0,3.0,180.0,4.0,64.0
8967,66.0,0.0,180.0,4.0,64.0
8968,89.0,41.0,60.0,1.0,64.0
8969,87.0,38.0,60.0,1.0,64.0
8970,85.0,41.0,60.0,1.0,64.0
8971,68.0,0.0,180.0,4.0,64.0
8972,83.0,39.0,60.0,1.0,64.0
8973,59.0,4.0,150.0,4.0,64.0
8974,85.0,43.0,60.0,1.0,64.0
8975,87.0,36.0,60.0,1.0,64.0
8976,83.0,41.0,60.0,1.0,64.0
8977,82.0,40.0,60.0,1.0,64.0
8978,61.0,8.0,150.0,4.0,64.0
8979,66.0,6.0,150.0,4.0,64.0
8980,83.0,40.0,60.0,1.0,64.0
8981,85.0,27.0,60.0,1.0,64.0
8982,82.0,40.0,60.0,1.0,64.0
8983,80.0,42.0,60.0,2.0,64.0
8984,65.0,7.0,180.0,4.0,64.0
8985,61.0,1.0,150.0,4.0,64.0
8986,82.0,44.0,60.0,1.0,64.0
8987,83.0,33.0,60.0,1.0,64.0
8988,80.0,53.0,60.0,2.0,64.0
8989,78.0,86.0,330.0,2.0,64.0
8990,54.0,49.0,60.0,4.0,64.0
8991,66.0,49.0,60.0,4.0,64.0
8992,61.0,50.0,60.0,4.0,64.0
8993,58.0,128.0,60.0,4.0,64.0
8994,54.0,7.0,1200.0,4.0,64.0
8995,85.0,41.0,60.0,1.0,64.0
8996,87.0,44.0,60.0,1.0,64.0
8997,88.0,40.0,60.0,1.0,64.0
8998,87.0,41.0,60.0,1.0,64.0
8999,85.0,40.0,60.0,1.0,64.0
9000,83.0,40.0,60.0,1.0,64.0
9001,82.0,42.0,60.0,1.0,64.0
9002,80.0,40.0,60.0,2.0,64.0
9003,76.0,0.0,180.0,2.0,64.0
9004,79.0,42.0,60.0,2.0,64.0
9005,73.0,7.0,180.0,2.0,64.0
9006,80.0,44.0,60.0,2.0,64.0
9007,82.0,35.0,60.0,1.0,64.0
9008,79.0,40.0,60.0,2.0,64.0
9009,75.0,0.0,180.0,2.0,64.0
9010,80.0,40.0,60.0,2.0,64.0
9011,72.0,7.0,180.0,2.0,64.0
9012,84.0,60.0,60.0,1.0,64.0
9013,87.0,21.0,60.0,1.0,64.0
9014,78.0,45.0,60.0,2.0,64.0
9015,74.0,6.0,180.0,2.0,64.0
9016,77.0,49.0,60.0,2.0,64.0
9017,71.0,1.0,180.0,2.0,64.0
9018,78.0,44.0,60.0,2.0,64.0
9019,80.0,36.0,60.0,2.0,64.0
9020,77.0,40.0,60.0,2.0,64.0
9021,78.0,42.0,60.0,2.0,64.0
9022,73.0,14.0,180.0,2.0,64.0
9023,70.0,1.0,180.0,4.0,64.0
9024,82.0,57.0,60.0,1.0,64.0
9025,85.0,21.0,60.0,1.0,64.0
9026,78.0,27.0,60.0,2.0,64.0
9027,90.0,43.0,60.0,1.0,64.0
9028,63.0,1.0,90.0,4.0,64.0
9029,75.0,41.0,90.0,2.0,64.0
9030,92.0,2.0,60.0,1.0,64.0
9031,89.0,47.0,60.0,1.0,64.0
9032,73.0,12.0,90.0,2.0,64.0
9033,61.0,0.0,90.0,4.0,64.0
9034,90.0,40.0,60.0,1.0,64.0
9035,87.0,32.0,60.0,1.0,64.0
9036,71.0,12.0,90.0,2.0,64.0
9037,59.0,1.0,90.0,4.0,64.0
9038,89.0,42.0,60.0,1.0,64.0
9039,58.0,12.0,90.0,4.0,64.0
9040,70.0,0.0,90.0,4.0,64.0
9041,86.0,30.0,60.0,1.0,64.0
9042,89.0,44.0,60.0,1.0,64.0
9043,87.0,31.0,60.0,1.0,64.0
9044,71.0,13.0,90.0,2.0,64.0
9045,59.0,0.0,90.0,4.0,64.0
9046,89.0,28.0,60.0,1.0,64.0
9047,85.0,43.0,60.0,1.0,64.0
9048,70.0,39.0,90.0,4.0,64.0
9049,58.0,1.0,90.0,4.0,64.0
9050,87.0,2.0,60.0,1.0,64.0
9051,84.0,44.0,60.0,1.0,64.0
9052,56.0,40.0,90.0,4.0,64.0
9053,68.0,0.0,90.0,4.0,64.0
9054,85.0,2.0,60.0,1.0,64.0
9055,82.0,30.0,60.0,1.0,64.0
9056,66.0,39.0,90.0,4.0,64.0
9057,54.0,1.0,90.0,4.0,64.0
9058,85.0,14.0,30.0,1.0,64.0
9059,85.0,42.0,60.0,1.0,64.0
9060,68.0,1.0,180.0,4.0,64.0
9061,75.0,5.0,180.0,2.0,64.0
9062,83.0,45.0,60.0,1.0,64.0
9063,82.0,37.0,60.0,1.0,64.0
9064,83.0,41.0,60.0,1.0,64.0
9065,80.0,42.0,60.0,2.0,64.0
9066,65.0,5.0,180.0,4.0,64.0
9067,73.0,2.0,330.0,2.0,64.0
9068,82.0,43.0,60.0,1.0,64.0
9069,83.0,38.0,60.0,1.0,64.0
9070,85.0,40.0,60.0,1.0,64.0
9071,83.0,42.0,60.0,1.0,64.0
9072,66.0,19.0,180.0,4.0,64.0
9073,82.0,43.0,60.0,1.0,64.0
9074,80.0,36.0,60.0,2.0,64.0
9075,82.0,27.0,60.0,1.0,64.0
9076,78.0,42.0,60.0,2.0,64.0
9077,63.0,4.0,180.0,4.0,64.0
9078,71.0,0.0,180.0,2.0,64.0
9079,80.0,41.0,60.0,2.0,64.0
9080,82.0,36.0,60.0,1.0,64.0
9081,83.0,271.0,60.0,1.0,64.0
9082,82.0,37.0,270.0,1.0,64.0
9083,61.0,22.0,1230.0,4.0,64.0
9084,66.0,21.0,300.0,4.0,64.0
9085,85.0,280.0,60.0,1.0,64.0
9086,65.0,57.0,330.0,4.0,64.0
9087,80.0,35.0,300.0,2.0,64.0
9088,73.0,57.0,60.0,2.0,64.0
9089,72.0,43.0,60.0,2.0,64.0
9090,75.0,44.0,60.0,2.0,64.0
9091,73.0,40.0,60.0,2.0,64.0
9092,77.0,42.0,60.0,2.0,64.0
9093,75.0,42.0,60.0,2.0,64.0
9094,78.0,44.0,60.0,2.0,64.0
9095,77.0,40.0,60.0,2.0,64.0
9096,80.0,40.0,60.0,2.0,64.0
9097,78.0,43.0,60.0,2.0,64.0
9098,82.0,46.0,60.0,1.0,64.0
9099,80.0,27.0,60.0,2.0,64.0
9100,83.0,21.0,60.0,1.0,64.0
9101,82.0,42.0,60.0,1.0,64.0
9102,70.0,0.0,90.0,4.0,64.0
9103,85.0,47.0,60.0,1.0,64.0
9104,58.0,11.0,90.0,4.0,64.0
9105,87.0,38.0,60.0,1.0,64.0
9106,83.0,32.0,60.0,1.0,64.0
9107,65.0,12.0,90.0,4.0,64.0
9108,53.0,0.0,90.0,4.0,64.0
9109,85.0,40.0,60.0,1.0,64.0
9110,82.0,30.0,60.0,1.0,64.0
9111,66.0,12.0,90.0,4.0,64.0
9112,54.0,1.0,90.0,4.0,64.0
9113,83.0,39.0,60.0,1.0,64.0
9114,62.0,0.0,90.0,4.0,64.0
9115,80.0,31.0,60.0,2.0,64.0
9116,50.0,12.0,90.0,4.0,64.0
9117,82.0,26.0,60.0,1.0,64.0
9118,78.0,43.0,60.0,2.0,64.0
9119,63.0,8.0,330.0,4.0,64.0
9120,51.0,1.0,330.0,4.0,64.0
9121,80.0,42.0,60.0,2.0,64.0
9122,78.0,40.0,60.0,2.0,64.0
9123,77.0,39.0,60.0,2.0,64.0
9124,78.0,40.0,60.0,2.0,64.0
9125,80.0,54.0,60.0,2.0,64.0
9126,82.0,21.0,60.0,1.0,64.0
9127,78.0,42.0,60.0,2.0,64.0
9128,71.0,1.0,330.0,2.0,64.0
9129,83.0,40.0,60.0,1.0,64.0
9130,65.0,1.0,330.0,4.0,64.0
9131,68.0,0.0,330.0,4.0,64.0
9132,62.0,6.0,330.0,4.0,64.0
9133,82.0,42.0,60.0,1.0,64.0
9134,80.0,43.0,60.0,2.0,64.0
9135,78.0,42.0,60.0,2.0,64.0
9136,77.0,40.0,60.0,2.0,64.0
9137,78.0,42.0,60.0,2.0,64.0
9138,80.0,32.0,60.0,2.0,64.0
9139,82.0,42.0,60.0,1.0,64.0
9140,83.0,41.0,60.0,1.0,64.0
9141,68.0,0.0,330.0,4.0,64.0
9142,71.0,0.0,330.0,2.0,64.0
9143,61.0,9.0,330.0,4.0,64.0
9144,65.0,1.0,330.0,4.0,64.0
9145,82.0,43.0,60.0,1.0,64.0
9146,80.0,42.0,60.0,2.0,64.0
9147,82.0,41.0,60.0,1.0,64.0
9148,83.0,40.0,60.0,1.0,64.0
9149,85.0,39.0,60.0,1.0,64.0
9150,87.0,30.0,60.0,1.0,64.0
9151,89.0,41.0,60.0,1.0,64.0
9152,90.0,40.0,60.0,1.0,64.0
9153,70.0,4.0,180.0,4.0,64.0
9154,66.0,0.0,180.0,4.0,64.0
9155,89.0,40.0,60.0,1.0,64.0
9156,87.0,38.0,60.0,1.0,64.0
9157,85.0,41.0,60.0,1.0,64.0
9158,68.0,0.0,180.0,4.0,64.0
9159,83.0,40.0,60.0,1.0,64.0
9160,59.0,3.0,180.0,4.0,64.0
9161,85.0,42.0,60.0,1.0,64.0
9162,87.0,38.0,60.0,1.0,64.0
9163,83.0,42.0,60.0,1.0,64.0
9164,66.0,6.0,180.0,4.0,64.0
9165,82.0,42.0,60.0,1.0,64.0
9166,61.0,8.0,150.0,4.0,64.0
9167,83.0,40.0,60.0,1.0,64.0
9168,85.0,29.0,60.0,1.0,64.0
9169,82.0,42.0,60.0,1.0,64.0
9170,80.0,42.0,60.0,2.0,64.0
9171,65.0,13.0,180.0,4.0,64.0
9172,61.0,0.0,180.0,4.0,64.0
9173,82.0,42.0,60.0,1.0,64.0
9174,83.0,35.0,60.0,1.0,64.0
9175,80.0,54.0,60.0,2.0,64.0
9176,78.0,226.0,600.0,2.0,64.0
9177,54.0,48.0,60.0,4.0,64.0
9178,66.0,63.0,60.0,4.0,64.0
9179,61.0,56.0,60.0,4.0,64.0
9180,58.0,364.0,60.0,4.0,64.0
9181,54.0,290.0,600.0,4.0,64.0
9182,37.0,61.0,300.0,4.0,64.0
9183,73.0,92.0,180.0,2.0,64.0
9184,54.0,44.0,90.0,4.0,64.0
9185,70.0,8.0,210.0,4.0,64.0
9186,73.0,40.0,210.0,2.0,64.0
9187,78.0,60.0,330.0,2.0,64.0
9188,58.0,42.0,60.0,4.0,64.0
9189,61.0,37.0,60.0,4.0,64.0
9190,66.0,2.0,60.0,4.0,64.0
9191,65.0,44.0,60.0,4.0,64.0
9192,66.0,43.0,60.0,4.0,64.0
9193,65.0,23.0,60.0,4.0,64.0
9194,66.0,39.0,90.0,4.0,64.0
9195,82.0,0.0,180.0,1.0,64.0
9196,78.0,15.0,150.0,2.0,64.0
9197,51.0,4.0,60.0,4.0,64.0
9198,54.0,44.0,60.0,4.0,64.0
9199,58.0,29.0,60.0,4.0,64.0
9200,63.0,44.0,60.0,4.0,64.0
9201,78.0,55.0,180.0,2.0,64.0
9202,70.0,1.0,180.0,4.0,64.0
9203,62.0,44.0,60.0,4.0,64.0
9204,63.0,42.0,60.0,4.0,64.0
9205,62.0,29.0,60.0,4.0,64.0
9206,63.0,40.0,90.0,4.0,64.0
9207,75.0,1.0,150.0,2.0,64.0
9208,83.0,14.0,150.0,1.0,64.0
9209,47.0,2.0,60.0,4.0,64.0
9210,51.0,42.0,60.0,4.0,64.0
9211,56.0,29.0,60.0,4.0,64.0
9212,59.0,42.0,60.0,4.0,64.0
9213,58.0,44.0,60.0,4.0,64.0
9214,59.0,42.0,60.0,4.0,64.0
9215,80.0,46.0,90.0,2.0,64.0
9216,58.0,38.0,60.0,4.0,64.0
9217,59.0,40.0,90.0,4.0,64.0
9218,77.0,14.0,150.0,2.0,64.0
9219,49.0,2.0,60.0,4.0,64.0
9220,53.0,42.0,60.0,4.0,64.0
9221,56.0,31.0,60.0,4.0,64.0
9222,61.0,43.0,60.0,4.0,64.0
9223,73.0,22.0,210.0,2.0,64.0
9224,60.0,42.0,60.0,4.0,64.0
9225,61.0,42.0,60.0,4.0,64.0
9226,60.0,43.0,60.0,4.0,64.0
9227,61.0,21.0,60.0,4.0,64.0
9228,85.0,42.0,60.0,1.0,64.0
9229,58.0,1.0,60.0,4.0,64.0
9230,61.0,42.0,60.0,4.0,64.0
9231,82.0,0.0,60.0,1.0,64.0
9232,78.0,42.0,60.0,2.0,64.0
9233,66.0,0.0,60.0,4.0,64.0
9234,73.0,41.0,60.0,2.0,64.0
9235,70.0,1.0,60.0,4.0,64.0
9236,72.0,44.0,60.0,2.0,64.0
9237,69.0,1.0,60.0,4.0,64.0
9238,73.0,42.0,60.0,2.0,64.0
9239,70.0,0.0,60.0,4.0,64.0
9240,72.0,85.0,60.0,2.0,64.0
9241,69.0,0.0,60.0,4.0,64.0
9242,70.0,1.0,90.0,4.0,64.0
9243,73.0,40.0,90.0,2.0,64.0
9244,87.0,0.0,60.0,1.0,64.0
9245,59.0,1.0,60.0,4.0,64.0
9246,83.0,43.0,60.0,1.0,64.0
9247,63.0,0.0,60.0,4.0,64.0
9248,78.0,44.0,60.0,2.0,64.0
9249,66.0,0.0,60.0,4.0,64.0
9250,75.0,43.0,60.0,2.0,64.0
9251,71.0,0.0,60.0,2.0,64.0
9252,74.0,0.0,60.0,2.0,64.0
9253,70.0,43.0,60.0,4.0,64.0
9254,75.0,42.0,60.0,2.0,64.0
9255,71.0,1.0,60.0,2.0,64.0
9256,74.0,43.0,60.0,2.0,64.0
9257,70.0,1.0,60.0,4.0,64.0
9258,75.0,162.0,60.0,2.0,64.0
9259,71.0,0.0,60.0,2.0,64.0
9260,78.0,40.0,180.0,2.0,64.0
9261,61.0,229.0,210.0,4.0,64.0
9262,70.0,5.0,180.0,4.0,64.0
9263,68.0,1.0,270.0,4.0,64.0
9264,77.0,148.0,270.0,2.0,64.0
9265,37.0,54.0,270.0,4.0,64.0
9266,73.0,82.0,150.0,2.0,64.0
9267,70.0,5.0,330.0,4.0,64.0
9268,54.0,44.0,60.0,4.0,64.0
9269,73.0,12.0,330.0,2.0,64.0
9270,78.0,68.0,300.0,2.0,64.0
9271,58.0,43.0,60.0,4.0,64.0
9272,61.0,44.0,60.0,4.0,64.0
9273,66.0,42.0,60.0,4.0,64.0
9274,65.0,44.0,60.0,4.0,64.0
9275,66.0,37.0,60.0,4.0,64.0
9276,65.0,6.0,60.0,4.0,64.0
9277,66.0,40.0,90.0,4.0,64.0
9278,78.0,1.0,150.0,2.0,64.0
9279,82.0,14.0,150.0,1.0,64.0
9280,51.0,2.0,60.0,4.0,64.0
9281,54.0,42.0,60.0,4.0,64.0
9282,58.0,29.0,60.0,4.0,64.0
9283,63.0,43.0,60.0,4.0,64.0
9284,70.0,57.0,150.0,4.0,64.0
9285,78.0,0.0,150.0,2.0,64.0
9286,62.0,44.0,60.0,4.0,64.0
9287,63.0,42.0,60.0,4.0,64.0
9288,62.0,29.0,60.0,4.0,64.0
9289,63.0,40.0,90.0,4.0,64.0
9290,87.0,1.0,210.0,1.0,64.0
9291,90.0,37.0,210.0,1.0,64.0
9292,48.0,0.0,60.0,4.0,64.0
9293,51.0,42.0,60.0,4.0,64.0
9294,54.0,45.0,60.0,4.0,64.0
9295,60.0,41.0,60.0,4.0,64.0
9296,59.0,5.0,60.0,4.0,64.0
9297,60.0,42.0,60.0,4.0,64.0
9298,87.0,72.0,60.0,1.0,64.0
9299,84.0,0.0,60.0,1.0,64.0
9300,59.0,15.0,60.0,4.0,64.0
9301,60.0,41.0,90.0,4.0,64.0
9302,84.0,15.0,180.0,1.0,64.0
9303,75.0,1.0,150.0,2.0,64.0
9304,78.0,0.0,150.0,2.0,64.0
9305,44.0,2.0,60.0,4.0,64.0
9306,48.0,42.0,60.0,4.0,64.0
9307,51.0,29.0,60.0,4.0,64.0
9308,56.0,42.0,60.0,4.0,64.0
9309,78.0,0.0,180.0,2.0,64.0
9310,72.0,13.0,180.0,2.0,64.0
9311,75.0,0.0,180.0,2.0,64.0
9312,55.0,43.0,60.0,4.0,64.0
9313,56.0,45.0,60.0,4.0,64.0
9314,55.0,29.0,60.0,4.0,64.0
9315,56.0,41.0,60.0,4.0,64.0
9316,80.0,40.0,60.0,2.0,64.0
9317,53.0,1.0,60.0,4.0,64.0
9318,77.0,42.0,60.0,2.0,64.0
9319,56.0,0.0,60.0,4.0,64.0
9320,73.0,43.0,60.0,2.0,64.0
9321,61.0,1.0,60.0,4.0,64.0
9322,68.0,41.0,60.0,4.0,64.0
9323,65.0,0.0,60.0,4.0,64.0
9324,67.0,43.0,60.0,4.0,64.0
9325,64.0,0.0,60.0,4.0,64.0
9326,65.0,1.0,60.0,4.0,64.0
9327,68.0,40.0,60.0,4.0,64.0
9328,67.0,84.0,60.0,4.0,64.0
9329,64.0,1.0,60.0,4.0,64.0
9330,68.0,40.0,90.0,4.0,64.0
9331,65.0,1.0,90.0,4.0,64.0
9332,82.0,2.0,60.0,1.0,64.0
9333,54.0,1.0,60.0,4.0,64.0
9334,78.0,40.0,60.0,2.0,64.0
9335,58.0,0.0,60.0,4.0,64.0
9336,61.0,40.0,60.0,4.0,64.0
9337,73.0,0.0,60.0,2.0,64.0
9338,70.0,43.0,60.0,4.0,64.0
9339,66.0,1.0,60.0,4.0,64.0
9340,78.0,40.0,60.0,2.0,64.0
9341,44.0,1.0,60.0,4.0,64.0
9342,75.0,42.0,60.0,2.0,64.0
9343,48.0,0.0,60.0,4.0,64.0
9344,72.0,26.0,60.0,2.0,64.0
9345,51.0,1.0,60.0,4.0,64.0
9346,68.0,23.0,30.0,4.0,64.0
9347,56.0,177.0,60.0,4.0,64.0
9348,49.0,11.0,180.0,4.0,64.0
9349,65.0,0.0,180.0,4.0,64.0
9350,68.0,12.0,180.0,4.0,64.0
9351,73.0,270.0,180.0,2.0,64.0
9352,61.0,141.0,300.0,4.0,64.0
9353,37.0,53.0,270.0,4.0,64.0
9354,73.0,97.0,150.0,2.0,64.0
9355,70.0,7.0,330.0,4.0,64.0
9356,54.0,41.0,90.0,4.0,64.0
9357,73.0,13.0,330.0,2.0,64.0
9358,78.0,71.0,300.0,2.0,64.0
9359,58.0,41.0,60.0,4.0,64.0
9360,61.0,44.0,60.0,4.0,64.0
9361,66.0,42.0,60.0,4.0,64.0
9362,65.0,44.0,60.0,4.0,64.0
9363,66.0,35.0,60.0,4.0,64.0
9364,65.0,2.0,60.0,4.0,64.0
9365,66.0,40.0,90.0,4.0,64.0
9366,82.0,13.0,180.0,1.0,64.0
9367,78.0,1.0,180.0,2.0,64.0
9368,51.0,2.0,60.0,4.0,64.0
9369,54.0,44.0,60.0,4.0,64.0
9370,58.0,31.0,60.0,4.0,64.0
9371,63.0,43.0,60.0,4.0,64.0
9372,78.0,56.0,150.0,2.0,64.0
9373,70.0,1.0,150.0,4.0,64.0
9374,62.0,42.0,60.0,4.0,64.0
9375,63.0,42.0,60.0,4.0,64.0
9376,62.0,29.0,60.0,4.0,64.0
9377,63.0,38.0,90.0,4.0,64.0
9378,75.0,1.0,240.0,2.0,64.0
9379,83.0,13.0,240.0,1.0,64.0
9380,47.0,4.0,60.0,4.0,64.0
9381,51.0,42.0,60.0,4.0,64.0
9382,56.0,44.0,60.0,4.0,64.0
9383,59.0,43.0,60.0,4.0,64.0
9384,58.0,30.0,60.0,4.0,64.0
9385,59.0,42.0,60.0,4.0,64.0
9386,80.0,45.0,90.0,2.0,64.0
9387,58.0,39.0,60.0,4.0,64.0
9388,59.0,41.0,90.0,4.0,64.0
9389,77.0,14.0,150.0,2.0,64.0
9390,49.0,2.0,60.0,4.0,64.0
9391,53.0,42.0,60.0,4.0,64.0
9392,56.0,31.0,60.0,4.0,64.0
9393,61.0,43.0,60.0,4.0,64.0
9394,60.0,44.0,60.0,4.0,64.0
9395,73.0,23.0,210.0,2.0,64.0
9396,61.0,42.0,60.0,4.0,64.0
9397,60.0,45.0,60.0,4.0,64.0
9398,61.0,21.0,60.0,4.0,64.0
9399,85.0,40.0,60.0,1.0,64.0
9400,58.0,0.0,60.0,4.0,64.0
9401,61.0,40.0,60.0,4.0,64.0
9402,82.0,0.0,60.0,1.0,64.0
9403,78.0,43.0,60.0,2.0,64.0
9404,66.0,1.0,60.0,4.0,64.0
9405,73.0,42.0,60.0,2.0,64.0
9406,70.0,1.0,60.0,4.0,64.0
9407,72.0,46.0,60.0,2.0,64.0
9408,69.0,0.0,60.0,4.0,64.0
9409,73.0,42.0,60.0,2.0,64.0
9410,70.0,0.0,60.0,4.0,64.0
9411,72.0,89.0,60.0,2.0,64.0
9412,69.0,0.0,60.0,4.0,64.0
9413,73.0,39.0,90.0,2.0,64.0
9414,70.0,1.0,90.0,4.0,64.0
9415,87.0,0.0,60.0,1.0,64.0
9416,59.0,1.0,60.0,4.0,64.0
9417,83.0,40.0,60.0,1.0,64.0
9418,63.0,1.0,60.0,4.0,64.0
9419,78.0,46.0,60.0,2.0,64.0
9420,66.0,0.0,60.0,4.0,64.0
9421,75.0,42.0,60.0,2.0,64.0
9422,71.0,0.0,60.0,2.0,64.0
9423,74.0,41.0,60.0,2.0,64.0
9424,70.0,1.0,60.0,4.0,64.0
9425,75.0,42.0,60.0,2.0,64.0
9426,71.0,1.0,60.0,2.0,64.0
9427,74.0,43.0,60.0,2.0,64.0
9428,70.0,0.0,60.0,4.0,64.0
9429,75.0,153.0,60.0,2.0,64.0
9430,71.0,0.0,60.0,2.0,64.0
9431,78.0,287.0,150.0,2.0,64.0
9432,61.0,119.0,480.0,4.0,64.0
9433,70.0,1.0,150.0,4.0,64.0
9434,77.0,25.0,270.0,2.0,64.0
9435,68.0,1.0,270.0,4.0,64.0
9436,37.0,50.0,240.0,4.0,64.0
9437,73.0,76.0,150.0,2.0,64.0
9438,70.0,15.0,210.0,4.0,64.0
9439,54.0,42.0,60.0,4.0,64.0
9440,73.0,4.0,210.0,2.0,64.0
9441,78.0,22.0,270.0,2.0,64.0
9442,58.0,41.0,60.0,4.0,64.0
9443,61.0,44.0,60.0,4.0,64.0
9444,66.0,21.0,60.0,4.0,64.0
9445,65.0,44.0,60.0,4.0,64.0
9446,66.0,21.0,60.0,4.0,64.0
9447,65.0,85.0,60.0,4.0,64.0
9448,66.0,42.0,90.0,4.0,64.0
9449,82.0,14.0,180.0,1.0,64.0
9450,78.0,1.0,150.0,2.0,64.0
9451,51.0,1.0,60.0,4.0,64.0
9452,54.0,41.0,60.0,4.0,64.0
9453,58.0,30.0,60.0,4.0,64.0
9454,63.0,42.0,60.0,4.0,64.0
9455,78.0,0.0,150.0,2.0,64.0
9456,70.0,56.0,150.0,4.0,64.0
9457,62.0,44.0,60.0,4.0,64.0
9458,63.0,41.0,60.0,4.0,64.0
9459,62.0,29.0,60.0,4.0,64.0
9460,63.0,40.0,90.0,4.0,64.0
9461,90.0,0.0,240.0,1.0,64.0
9462,87.0,38.0,240.0,1.0,64.0
9463,48.0,4.0,60.0,4.0,64.0
9464,51.0,43.0,60.0,4.0,64.0
9465,54.0,43.0,60.0,4.0,64.0
9466,60.0,42.0,60.0,4.0,64.0
9467,59.0,6.0,60.0,4.0,64.0
9468,60.0,43.0,60.0,4.0,64.0
9469,87.0,70.0,60.0,1.0,64.0
9470,84.0,0.0,60.0,1.0,64.0
9471,59.0,15.0,60.0,4.0,64.0
9472,60.0,40.0,90.0,4.0,64.0
9473,84.0,0.0,180.0,1.0,64.0
9474,75.0,1.0,180.0,2.0,64.0
9475,78.0,13.0,180.0,2.0,64.0
9476,44.0,2.0,60.0,4.0,64.0
9477,48.0,42.0,60.0,4.0,64.0
9478,51.0,33.0,60.0,4.0,64.0
9479,56.0,45.0,60.0,4.0,64.0
9480,78.0,14.0,180.0,2.0,64.0
9481,75.0,1.0,180.0,2.0,64.0
9482,72.0,0.0,180.0,2.0,64.0
9483,55.0,46.0,60.0,4.0,64.0
9484,56.0,42.0,60.0,4.0,64.0
9485,55.0,29.0,60.0,4.0,64.0
9486,56.0,41.0,60.0,4.0,64.0
9487,80.0,42.0,60.0,2.0,64.0
9488,53.0,1.0,60.0,4.0,64.0
9489,77.0,42.0,60.0,2.0,64.0
9490,56.0,0.0,60.0,4.0,64.0
9491,73.0,44.0,60.0,2.0,64.0
9492,61.0,0.0,60.0,4.0,64.0
9493,68.0,41.0,60.0,4.0,64.0
9494,65.0,1.0,60.0,4.0,64.0
9495,67.0,43.0,60.0,4.0,64.0
9496,64.0,1.0,60.0,4.0,64.0
9497,65.0,1.0,60.0,4.0,64.0
9498,68.0,42.0,60.0,4.0,64.0
9499,67.0,85.0,60.0,4.0,64.0
9500,64.0,0.0,60.0,4.0,64.0
9501,68.0,40.0,90.0,4.0,64.0
9502,65.0,0.0,90.0,4.0,64.0
9503,82.0,2.0,60.0,1.0,64.0
9504,54.0,1.0,60.0,4.0,64.0
9505,78.0,42.0,60.0,2.0,64.0
9506,58.0,1.0,60.0,4.0,64.0
9507,73.0,40.0,60.0,2.0,64.0
9508,61.0,0.0,60.0,4.0,64.0
9509,66.0,44.0,60.0,4.0,64.0
9510,70.0,0.0,60.0,4.0,64.0
9511,78.0,39.0,60.0,2.0,64.0
9512,44.0,1.0,60.0,4.0,64.0
9513,75.0,42.0,60.0,2.0,64.0
9514,48.0,1.0,60.0,4.0,64.0
9515,72.0,27.0,60.0,2.0,64.0
9516,51.0,0.0,60.0,4.0,64.0
9517,68.0,23.0,30.0,4.0,64.0
9518,56.0,176.0,60.0,4.0,64.0
9519,65.0,10.0,180.0,4.0,64.0
9520,49.0,1.0,180.0,4.0,64.0
9521,68.0,11.0,180.0,4.0,64.0
9522,73.0,163.0,180.0,2.0,64.0
9523,61.0,208.0,180.0,4.0,64.0
9524,37.0,22.0,270.0,4.0,64.0
9525,85.0,13.0,360.0,1.0,64.0
9526,76.0,4.0,180.0,2.0,64.0
9527,73.0,44.0,60.0,2.0,64.0
9528,71.0,22.0,60.0,2.0,64.0
9529,70.0,41.0,60.0,4.0,64.0
9530,68.0,44.0,60.0,4.0,64.0
9531,75.0,32.0,330.0,2.0,64.0
9532,67.0,45.0,60.0,4.0,64.0
9533,65.0,46.0,60.0,4.0,64.0
9534,67.0,29.0,60.0,4.0,64.0
9535,63.0,42.0,60.0,4.0,64.0
9536,83.0,4.0,360.0,1.0,64.0
9537,68.0,43.0,60.0,4.0,64.0
9538,70.0,46.0,60.0,4.0,64.0
9539,71.0,9.0,60.0,2.0,64.0
9540,68.0,42.0,60.0,4.0,64.0
9541,73.0,33.0,300.0,2.0,64.0
9542,65.0,43.0,60.0,4.0,64.0
9543,63.0,47.0,60.0,4.0,64.0
9544,65.0,37.0,60.0,4.0,64.0
9545,61.0,42.0,60.0,4.0,64.0
9546,82.0,9.0,180.0,1.0,64.0
9547,66.0,42.0,60.0,4.0,64.0
9548,68.0,47.0,60.0,4.0,64.0
9549,70.0,0.0,60.0,4.0,64.0
9550,66.0,46.0,60.0,4.0,64.0
9551,90.0,6.0,120.0,1.0,64.0
9552,75.0,42.0,60.0,2.0,64.0
9553,74.0,39.0,60.0,2.0,64.0
9554,75.0,43.0,60.0,2.0,64.0
9555,86.0,45.0,60.0,1.0,64.0
9556,70.0,1.0,60.0,4.0,64.0
9557,87.0,8.0,120.0,1.0,64.0
9558,71.0,44.0,60.0,2.0,64.0
9559,70.0,36.0,60.0,4.0,64.0
9560,71.0,45.0,60.0,2.0,64.0
9561,66.0,45.0,60.0,4.0,64.0
9562,82.0,0.0,60.0,1.0,64.0
9563,83.0,8.0,120.0,1.0,64.0
9564,68.0,44.0,60.0,4.0,64.0
9565,66.0,37.0,60.0,4.0,64.0
9566,68.0,44.0,60.0,4.0,64.0
9567,78.0,45.0,60.0,2.0,64.0
9568,63.0,0.0,60.0,4.0,64.0
9569,65.0,44.0,60.0,4.0,64.0
9570,80.0,7.0,120.0,2.0,64.0
9571,63.0,38.0,60.0,4.0,64.0
9572,65.0,39.0,60.0,4.0,64.0
9573,75.0,6.0,60.0,2.0,64.0
9574,60.0,44.0,60.0,4.0,64.0
9575,77.0,8.0,180.0,2.0,64.0
9576,61.0,43.0,60.0,4.0,64.0
9577,59.0,42.0,60.0,4.0,64.0
9578,58.0,34.0,60.0,4.0,64.0
9579,56.0,42.0,60.0,4.0,64.0
9580,80.0,12.0,330.0,2.0,64.0
9581,83.0,0.0,330.0,1.0,64.0
9582,73.0,1.0,330.0,2.0,64.0
9583,54.0,42.0,60.0,4.0,64.0
9584,53.0,45.0,60.0,4.0,64.0
9585,51.0,42.0,60.0,4.0,64.0
9586,49.0,44.0,60.0,4.0,64.0
9587,54.0,44.0,60.0,4.0,64.0
9588,53.0,43.0,60.0,4.0,64.0
9589,54.0,33.0,60.0,4.0,64.0
9590,56.0,24.0,60.0,4.0,64.0
9591,78.0,2.0,210.0,2.0,64.0
9592,83.0,25.0,30.0,1.0,64.0
9593,58.0,21.0,60.0,4.0,64.0
9594,82.0,6.0,30.0,1.0,64.0
9595,83.0,28.0,30.0,1.0,64.0
9596,56.0,21.0,60.0,4.0,64.0
9597,82.0,6.0,30.0,1.0,64.0
9598,83.0,25.0,30.0,1.0,64.0
9599,58.0,17.0,60.0,4.0,64.0
9600,82.0,5.0,30.0,1.0,64.0
9601,80.0,19.0,20.0,2.0,64.0
9602,59.0,44.0,60.0,4.0,64.0
9603,82.0,6.0,20.0,1.0,64.0
9604,77.0,1.0,240.0,2.0,64.0
9605,80.0,38.0,240.0,2.0,64.0
9606,61.0,46.0,60.0,4.0,64.0
9607,65.0,42.0,60.0,4.0,64.0
9608,68.0,46.0,60.0,4.0,64.0
9609,73.0,42.0,60.0,2.0,64.0
9610,72.0,7.0,60.0,2.0,64.0
9611,73.0,43.0,60.0,2.0,64.0
9612,72.0,32.0,60.0,2.0,64.0
9613,73.0,42.0,30.0,2.0,64.0
9614,73.0,49.0,30.0,2.0,64.0
9615,61.0,125.0,360.0,4.0,64.0
9616,77.0,43.0,60.0,2.0,64.0
9617,80.0,46.0,60.0,2.0,64.0
9618,85.0,44.0,60.0,1.0,64.0
9619,84.0,46.0,60.0,1.0,64.0
9620,85.0,44.0,60.0,1.0,64.0
9621,84.0,39.0,60.0,1.0,64.0
9622,85.0,169.0,180.0,1.0,64.0
9623,73.0,39.0,300.0,2.0,64.0
9624,61.0,260.0,180.0,4.0,64.0
9625,37.0,56.0,270.0,4.0,64.0
9626,73.0,81.0,180.0,2.0,64.0
9627,70.0,10.0,300.0,4.0,64.0
9628,54.0,44.0,60.0,4.0,64.0
9629,73.0,11.0,300.0,2.0,64.0
9630,78.0,16.0,300.0,2.0,64.0
9631,58.0,46.0,60.0,4.0,64.0
9632,61.0,48.0,60.0,4.0,64.0
9633,66.0,44.0,60.0,4.0,64.0
9634,65.0,46.0,60.0,4.0,64.0
9635,66.0,7.0,60.0,4.0,64.0
9636,65.0,89.0,60.0,4.0,64.0
9637,66.0,42.0,90.0,4.0,64.0
9638,82.0,15.0,180.0,1.0,64.0
9639,51.0,2.0,60.0,4.0,64.0
9640,78.0,1.0,180.0,2.0,64.0
9641,54.0,41.0,60.0,4.0,64.0
9642,58.0,30.0,60.0,4.0,64.0
9643,63.0,42.0,60.0,4.0,64.0
9644,70.0,1.0,150.0,4.0,64.0
9645,78.0,57.0,180.0,2.0,64.0
9646,62.0,44.0,60.0,4.0,64.0
9647,63.0,42.0,60.0,4.0,64.0
9648,62.0,29.0,60.0,4.0,64.0
9649,63.0,38.0,90.0,4.0,64.0
9650,75.0,1.0,240.0,2.0,64.0
9651,83.0,15.0,240.0,1.0,64.0
9652,47.0,2.0,60.0,4.0,64.0
9653,51.0,45.0,60.0,4.0,64.0
9654,56.0,45.0,60.0,4.0,64.0
9655,59.0,42.0,60.0,4.0,64.0
9656,58.0,29.0,60.0,4.0,64.0
9657,59.0,39.0,60.0,4.0,64.0
9658,80.0,55.0,60.0,2.0,64.0
9659,58.0,29.0,60.0,4.0,64.0
9660,59.0,39.0,90.0,4.0,64.0
9661,49.0,1.0,60.0,4.0,64.0
9662,77.0,14.0,150.0,2.0,64.0
9663,53.0,42.0,60.0,4.0,64.0
9664,56.0,31.0,60.0,4.0,64.0
9665,61.0,42.0,60.0,4.0,64.0
9666,73.0,14.0,150.0,2.0,64.0
9667,60.0,43.0,60.0,4.0,64.0
9668,61.0,44.0,60.0,4.0,64.0
9669,60.0,27.0,60.0,4.0,64.0
9670,61.0,43.0,60.0,4.0,64.0
9671,85.0,42.0,60.0,1.0,64.0
9672,58.0,1.0,60.0,4.0,64.0
9673,82.0,42.0,60.0,1.0,64.0
9674,61.0,0.0,60.0,4.0,64.0
9675,78.0,46.0,60.0,2.0,64.0
9676,66.0,0.0,60.0,4.0,64.0
9677,73.0,42.0,60.0,2.0,64.0
9678,70.0,0.0,60.0,4.0,64.0
9679,72.0,44.0,60.0,2.0,64.0
9680,69.0,1.0,60.0,4.0,64.0
9681,73.0,42.0,60.0,2.0,64.0
9682,70.0,0.0,60.0,4.0,64.0
9683,72.0,87.0,60.0,2.0,64.0
9684,69.0,0.0,60.0,4.0,64.0
9685,73.0,41.0,90.0,2.0,64.0
9686,70.0,0.0,90.0,4.0,64.0
9687,87.0,1.0,60.0,1.0,64.0
9688,59.0,0.0,60.0,4.0,64.0
9689,63.0,42.0,60.0,4.0,64.0
9690,83.0,0.0,60.0,1.0,64.0
9691,78.0,46.0,60.0,2.0,64.0
9692,66.0,0.0,60.0,4.0,64.0
9693,75.0,44.0,60.0,2.0,64.0
9694,71.0,0.0,60.0,2.0,64.0
9695,83.0,41.0,60.0,1.0,64.0
9696,49.0,1.0,60.0,4.0,64.0
9697,80.0,38.0,60.0,2.0,64.0
9698,53.0,1.0,60.0,4.0,64.0
9699,77.0,31.0,60.0,2.0,64.0
9700,56.0,0.0,60.0,4.0,64.0
9701,61.0,140.0,60.0,4.0,64.0
9702,73.0,27.0,30.0,2.0,64.0
9703,78.0,177.0,180.0,2.0,64.0
9704,73.0,2.0,180.0,2.0,64.0
9705,70.0,2.0,180.0,4.0,64.0
9706,66.0,8.0,150.0,4.0,64.0
9707,54.0,217.0,180.0,4.0,64.0
9708,37.0,22.0,270.0,4.0,64.0
9709,85.0,8.0,360.0,1.0,64.0
9710,76.0,7.0,180.0,2.0,64.0
9711,73.0,44.0,60.0,2.0,64.0
9712,71.0,23.0,60.0,2.0,64.0
9713,70.0,38.0,60.0,4.0,64.0
9714,68.0,42.0,60.0,4.0,64.0
9715,75.0,7.0,330.0,2.0,64.0
9716,67.0,42.0,60.0,4.0,64.0
9717,65.0,45.0,60.0,4.0,64.0
9718,67.0,34.0,60.0,4.0,64.0
9719,63.0,44.0,60.0,4.0,64.0
9720,83.0,12.0,360.0,1.0,64.0
9721,68.0,44.0,60.0,4.0,64.0
9722,70.0,44.0,60.0,4.0,64.0
9723,71.0,35.0,60.0,2.0,64.0
9724,68.0,44.0,60.0,4.0,64.0
9725,73.0,7.0,360.0,2.0,64.0
9726,65.0,44.0,60.0,4.0,64.0
9727,63.0,45.0,60.0,4.0,64.0
9728,65.0,31.0,60.0,4.0,64.0
9729,61.0,44.0,60.0,4.0,64.0
9730,82.0,0.0,180.0,1.0,64.0
9731,66.0,45.0,60.0,4.0,64.0
9732,68.0,44.0,60.0,4.0,64.0
9733,70.0,39.0,60.0,4.0,64.0
9734,66.0,46.0,60.0,4.0,64.0
9735,90.0,7.0,120.0,1.0,64.0
9736,75.0,44.0,60.0,2.0,64.0
9737,74.0,38.0,60.0,2.0,64.0
9738,75.0,45.0,60.0,2.0,64.0
9739,86.0,45.0,60.0,1.0,64.0
9740,70.0,1.0,60.0,4.0,64.0
9741,87.0,7.0,120.0,1.0,64.0
9742,71.0,43.0,60.0,2.0,64.0
9743,70.0,36.0,60.0,4.0,64.0
9744,71.0,44.0,60.0,2.0,64.0
9745,82.0,45.0,60.0,1.0,64.0
9746,66.0,0.0,60.0,4.0,64.0
9747,83.0,7.0,120.0,1.0,64.0
9748,68.0,43.0,60.0,4.0,64.0
9749,66.0,37.0,60.0,4.0,64.0
9750,68.0,43.0,60.0,4.0,64.0
9751,63.0,44.0,60.0,4.0,64.0
9752,78.0,0.0,60.0,2.0,64.0
9753,80.0,9.0,120.0,2.0,64.0
9754,65.0,45.0,60.0,4.0,64.0
9755,63.0,36.0,60.0,4.0,64.0
9756,65.0,40.0,60.0,4.0,64.0
9757,75.0,1.0,60.0,2.0,64.0
9758,60.0,46.0,60.0,4.0,64.0
9759,77.0,5.0,180.0,2.0,64.0
9760,61.0,41.0,60.0,4.0,64.0
9761,59.0,43.0,60.0,4.0,64.0
9762,58.0,37.0,60.0,4.0,64.0
9763,56.0,44.0,60.0,4.0,64.0
9764,80.0,0.0,330.0,2.0,64.0
9765,83.0,10.0,330.0,1.0,64.0
9766,73.0,1.0,330.0,2.0,64.0
9767,54.0,42.0,60.0,4.0,64.0
9768,53.0,43.0,60.0,4.0,64.0
9769,51.0,43.0,60.0,4.0,64.0
9770,49.0,46.0,60.0,4.0,64.0
9771,54.0,43.0,60.0,4.0,64.0
9772,53.0,43.0,60.0,4.0,64.0
9773,54.0,33.0,60.0,4.0,64.0
9774,56.0,25.0,60.0,4.0,64.0
9775,78.0,9.0,210.0,2.0,64.0
9776,83.0,28.0,30.0,1.0,64.0
9777,58.0,21.0,60.0,4.0,64.0
9778,82.0,6.0,30.0,1.0,64.0
9779,83.0,28.0,30.0,1.0,64.0
9780,56.0,19.0,60.0,4.0,64.0
9781,82.0,6.0,30.0,1.0,64.0
9782,83.0,26.0,30.0,1.0,64.0
9783,58.0,20.0,60.0,4.0,64.0
9784,82.0,3.0,30.0,1.0,64.0
9785,80.0,13.0,30.0,2.0,64.0
9786,59.0,44.0,60.0,4.0,64.0
9787,82.0,6.0,30.0,1.0,64.0
9788,77.0,7.0,300.0,2.0,64.0
9789,80.0,0.0,300.0,2.0,64.0
9790,61.0,44.0,60.0,4.0,64.0
9791,65.0,42.0,60.0,4.0,64.0
9792,68.0,44.0,60.0,4.0,64.0
9793,73.0,44.0,60.0,2.0,64.0
9794,72.0,46.0,60.0,2.0,64.0
9795,73.0,37.0,60.0,2.0,64.0
9796,72.0,127.0,60.0,2.0,64.0
9797,73.0,16.0,120.0,2.0,64.0
9798,61.0,8.0,300.0,4.0,64.0
9799,77.0,27.0,60.0,2.0,64.0
9800,80.0,29.0,60.0,2.0,64.0
9801,85.0,42.0,60.0,1.0,64.0
9802,84.0,45.0,60.0,1.0,64.0
9803,85.0,35.0,60.0,1.0,64.0
9804,84.0,87.0,60.0,1.0,64.0
9805,85.0,124.0,90.0,1.0,64.0
9806,73.0,276.0,180.0,2.0,64.0
9807,61.0,156.0,270.0,4.0,64.0
9808,37.0,54.0,270.0,4.0,64.0
9809,73.0,80.0,180.0,2.0,64.0
9810,70.0,9.0,360.0,4.0,64.0
9811,54.0,46.0,60.0,4.0,64.0
9812,73.0,14.0,330.0,2.0,64.0
9813,78.0,65.0,330.0,2.0,64.0
9814,58.0,45.0,60.0,4.0,64.0
9815,61.0,48.0,60.0,4.0,64.0
9816,66.0,44.0,60.0,4.0,64.0
9817,65.0,46.0,60.0,4.0,64.0
9818,66.0,44.0,60.0,4.0,64.0
9819,65.0,1.0,60.0,4.0,64.0
9820,66.0,41.0,90.0,4.0,64.0
9821,82.0,13.0,180.0,1.0,64.0
9822,78.0,0.0,180.0,2.0,64.0
9823,51.0,2.0,60.0,4.0,64.0
9824,54.0,42.0,60.0,4.0,64.0
9825,58.0,31.0,60.0,4.0,64.0
9826,63.0,43.0,60.0,4.0,64.0
9827,78.0,57.0,180.0,2.0,64.0
9828,62.0,46.0,60.0,4.0,64.0
9829,70.0,1.0,180.0,4.0,64.0
9830,63.0,42.0,60.0,4.0,64.0
9831,62.0,29.0,60.0,4.0,64.0
9832,63.0,40.0,90.0,4.0,64.0
9833,75.0,1.0,240.0,2.0,64.0
9834,83.0,15.0,240.0,1.0,64.0
9835,47.0,3.0,60.0,4.0,64.0
9836,51.0,42.0,60.0,4.0,64.0
9837,56.0,46.0,60.0,4.0,64.0
9838,59.0,42.0,60.0,4.0,64.0
9839,58.0,30.0,60.0,4.0,64.0
9840,59.0,38.0,60.0,4.0,64.0
9841,80.0,57.0,90.0,2.0,64.0
9842,58.0,31.0,30.0,4.0,64.0
9843,59.0,41.0,90.0,4.0,64.0
9844,77.0,15.0,150.0,2.0,64.0
9845,49.0,1.0,60.0,4.0,64.0
9846,53.0,42.0,60.0,4.0,64.0
9847,56.0,31.0,60.0,4.0,64.0
9848,61.0,40.0,60.0,4.0,64.0
9849,73.0,17.0,180.0,2.0,64.0
9850,60.0,47.0,60.0,4.0,64.0
9851,61.0,43.0,60.0,4.0,64.0
9852,60.0,30.0,60.0,4.0,64.0
9853,61.0,43.0,60.0,4.0,64.0
9854,85.0,44.0,60.0,1.0,64.0
9855,58.0,0.0,60.0,4.0,64.0
9856,82.0,41.0,60.0,1.0,64.0
9857,61.0,1.0,60.0,4.0,64.0
9858,78.0,43.0,60.0,2.0,64.0
9859,66.0,1.0,60.0,4.0,64.0
9860,73.0,44.0,60.0,2.0,64.0
9861,70.0,1.0,60.0,4.0,64.0
9862,72.0,43.0,60.0,2.0,64.0
9863,69.0,1.0,60.0,4.0,64.0
9864,73.0,44.0,60.0,2.0,64.0
9865,70.0,0.0,60.0,4.0,64.0
9866,72.0,89.0,60.0,2.0,64.0
9867,69.0,0.0,60.0,4.0,64.0
9868,73.0,40.0,90.0,2.0,64.0
9869,70.0,0.0,90.0,4.0,64.0
9870,87.0,1.0,60.0,1.0,64.0
9871,59.0,1.0,60.0,4.0,64.0
9872,83.0,42.0,60.0,1.0,64.0
9873,63.0,0.0,60.0,4.0,64.0
9874,78.0,44.0,60.0,2.0,64.0
9875,66.0,0.0,60.0,4.0,64.0
9876,75.0,46.0,60.0,2.0,64.0
9877,71.0,0.0,60.0,2.0,64.0
9878,83.0,45.0,60.0,1.0,64.0
9879,49.0,0.0,60.0,4.0,64.0
9880,80.0,0.0,60.0,2.0,64.0
9881,53.0,45.0,60.0,4.0,64.0
9882,77.0,29.0,60.0,2.0,64.0
9883,56.0,1.0,60.0,4.0,64.0
9884,73.0,24.0,30.0,2.0,64.0
9885,61.0,350.0,60.0,4.0,64.0
9886,70.0,0.0,360.0,4.0,64.0
9887,66.0,4.0,360.0,4.0,64.0
9888,73.0,6.0,360.0,2.0,64.0
9889,78.0,393.0,330.0,2.0,64.0
9890,54.0,279.0,540.0,4.0,64.0
9891,85.0,115.0,90.0,1.0,64.0
9892,85.0,138.0,90.0,1.0,64.0
9893,85.0,106.0,90.0,1.0,64.0
9894,85.0,125.0,90.0,1.0,64.0
9895,85.0,14.0,210.0,1.0,64.0
9896,70.0,89.0,120.0,4.0,64.0
9897,66.0,1.0,120.0,4.0,64.0
9898,68.0,85.0,120.0,4.0,64.0
9899,71.0,0.0,120.0,2.0,64.0
9900,78.0,8.0,210.0,2.0,64.0
9901,73.0,97.0,90.0,2.0,64.0
9902,70.0,8.0,90.0,4.0,64.0
9903,66.0,1.0,90.0,4.0,64.0
9904,70.0,73.0,120.0,4.0,64.0
9905,90.0,36.0,60.0,1.0,64.0
9906,66.0,72.0,120.0,4.0,64.0
9907,63.0,1.0,120.0,4.0,64.0
9908,90.0,37.0,60.0,1.0,64.0
9909,68.0,99.0,120.0,4.0,64.0
9910,65.0,0.0,120.0,4.0,64.0
9911,70.0,96.0,120.0,4.0,64.0
9912,90.0,8.0,90.0,1.0,64.0
9913,66.0,1.0,90.0,4.0,64.0
9914,90.0,2.0,90.0,1.0,64.0
9915,66.0,107.0,120.0,4.0,64.0
9916,63.0,8.0,90.0,4.0,64.0
9917,90.0,6.0,210.0,1.0,64.0
9918,63.0,100.0,120.0,4.0,64.0
9919,59.0,1.0,120.0,4.0,64.0
9920,65.0,1.0,120.0,4.0,64.0
9921,61.0,97.0,120.0,4.0,64.0
9922,80.0,8.0,210.0,2.0,64.0
9923,66.0,92.0,90.0,4.0,64.0
9924,63.0,7.0,90.0,4.0,64.0
9925,63.0,100.0,90.0,4.0,64.0
9926,59.0,0.0,90.0,4.0,64.0
9927,65.0,0.0,120.0,4.0,64.0
9928,83.0,9.0,90.0,1.0,64.0
9929,61.0,100.0,120.0,4.0,64.0
9930,83.0,10.0,90.0,1.0,64.0
9931,66.0,97.0,120.0,4.0,64.0
9932,63.0,1.0,120.0,4.0,64.0
9933,83.0,11.0,90.0,1.0,64.0
9934,68.0,94.0,120.0,4.0,64.0
9935,65.0,0.0,90.0,4.0,64.0
9936,83.0,8.0,90.0,1.0,64.0
9937,61.0,150.0,90.0,4.0,64.0
9938,65.0,0.0,90.0,4.0,64.0
9939,66.0,200.0,840.0,4.0,64.0
9940,82.0,62.0,150.0,1.0,64.0
9941,78.0,148.0,60.0,2.0,64.0
9942,85.0,48.0,150.0,1.0,64.0
9943,64.0,135.0,210.0,4.0,64.0
9944,82.0,10.0,60.0,1.0,64.0
9945,83.0,57.0,150.0,1.0,64.0
9946,63.0,145.0,210.0,4.0,64.0
9947,78.0,1.0,60.0,2.0,64.0
9948,87.0,53.0,150.0,1.0,64.0
9949,59.0,18.0,210.0,4.0,64.0
9950,83.0,1.0,150.0,1.0,64.0
9951,83.0,4.0,30.0,1.0,64.0
9952,80.0,1.0,30.0,2.0,64.0
9953,78.0,206.0,210.0,2.0,64.0
9954,82.0,0.0,210.0,1.0,64.0
9955,61.0,118.0,840.0,4.0,64.0
9956,77.0,1.0,210.0,2.0,64.0
9957,80.0,70.0,210.0,2.0,64.0
9958,85.0,110.0,60.0,1.0,64.0
9959,85.0,138.0,60.0,1.0,64.0
9960,85.0,106.0,90.0,1.0,64.0
9961,85.0,9.0,90.0,1.0,64.0
9962,85.0,20.0,210.0,1.0,64.0
9963,70.0,87.0,120.0,4.0,64.0
9964,66.0,1.0,120.0,4.0,64.0
9965,71.0,0.0,120.0,2.0,64.0
9966,68.0,103.0,120.0,4.0,64.0
9967,78.0,11.0,210.0,2.0,64.0
9968,73.0,91.0,120.0,2.0,64.0
9969,70.0,1.0,120.0,4.0,64.0
9970,71.0,64.0,120.0,2.0,64.0
9971,68.0,1.0,120.0,4.0,64.0
9972,90.0,49.0,60.0,1.0,64.0
9973,70.0,60.0,120.0,4.0,64.0
9974,66.0,1.0,120.0,4.0,64.0
9975,90.0,49.0,60.0,1.0,64.0
9976,65.0,86.0,120.0,4.0,64.0
9977,68.0,0.0,120.0,4.0,64.0
9978,90.0,21.0,90.0,1.0,64.0
9979,66.0,85.0,120.0,4.0,64.0
9980,63.0,0.0,120.0,4.0,64.0
9981,90.0,20.0,90.0,1.0,64.0
9982,61.0,1.0,120.0,4.0,64.0
9983,65.0,103.0,120.0,4.0,64.0
9984,90.0,99.0,210.0,1.0,64.0
9985,63.0,0.0,120.0,4.0,64.0
9986,60.0,102.0,120.0,4.0,64.0
9987,61.0,5.0,120.0,4.0,64.0
9988,58.0,0.0,120.0,4.0,64.0
9989,84.0,28.0,180.0,1.0,64.0
9990,60.0,0.0,120.0,4.0,64.0
9991,56.0,73.0,120.0,4.0,64.0
9992,61.0,103.0,120.0,4.0,64.0
9993,58.0,1.0,120.0,4.0,64.0
9994,63.0,0.0,120.0,4.0,64.0
9995,87.0,10.0,210.0,1.0,64.0
9996,60.0,94.0,120.0,4.0,64.0
9997,65.0,81.0,120.0,4.0,64.0
9998,61.0,0.0,120.0,4.0,64.0
9999,80.0,18.0,180.0,2.0,64.0
10000,66.0,85.0,90.0,4.0,64.0
10001,63.0,10.0,90.0,4.0,64.0
10002,63.0,0.0,90.0,4.0,64.0
10003,60.0,138.0,90.0,4.0,64.0
10004,80.0,67.0,150.0,2.0,64.0
10005,61.0,5.0,210.0,4.0,64.0
10006,65.0,0.0,210.0,4.0,64.0
10007,85.0,144.0,60.0,1.0,64.0
10008,82.0,51.0,150.0,1.0,64.0
10009,54.0,143.0,210.0,4.0,64.0
10010,63.0,0.0,210.0,4.0,64.0
10011,78.0,4.0,60.0,2.0,64.0
10012,77.0,49.0,150.0,2.0,64.0
10013,61.0,6.0,210.0,4.0,64.0
10014,56.0,1.0,180.0,4.0,64.0
10015,80.0,140.0,60.0,2.0,64.0
10016,60.0,0.0,210.0,4.0,64.0
10017,78.0,57.0,150.0,2.0,64.0
10018,56.0,201.0,210.0,4.0,64.0
10019,75.0,1.0,30.0,2.0,64.0
10020,60.0,8.0,180.0,4.0,64.0
10021,75.0,198.0,210.0,2.0,64.0
10022,73.0,2.0,210.0,2.0,64.0
10023,61.0,511.0,210.0,4.0,64.0
10024,49.0,118.0,870.0,4.0,64.0
10025,85.0,111.0,90.0,1.0,64.0
10026,85.0,127.0,90.0,1.0,64.0
10027,85.0,105.0,90.0,1.0,64.0
10028,85.0,8.0,90.0,1.0,64.0
10029,85.0,85.0,210.0,1.0,64.0
10030,70.0,101.0,120.0,4.0,64.0
10031,66.0,0.0,120.0,4.0,64.0
10032,71.0,0.0,120.0,2.0,64.0
10033,68.0,1.0,120.0,4.0,64.0
10034,73.0,58.0,120.0,2.0,64.0
10035,78.0,26.0,180.0,2.0,64.0
10036,70.0,20.0,90.0,4.0,64.0
10037,70.0,73.0,120.0,4.0,64.0
10038,66.0,8.0,90.0,4.0,64.0
10039,66.0,9.0,90.0,4.0,64.0
10040,90.0,31.0,60.0,1.0,64.0
10041,63.0,74.0,120.0,4.0,64.0
10042,90.0,36.0,90.0,1.0,64.0
10043,68.0,98.0,120.0,4.0,64.0
10044,65.0,0.0,120.0,4.0,64.0
10045,70.0,98.0,120.0,4.0,64.0
10046,90.0,2.0,90.0,1.0,64.0
10047,66.0,7.0,90.0,4.0,64.0
10048,90.0,1.0,90.0,1.0,64.0
10049,66.0,106.0,120.0,4.0,64.0
10050,63.0,8.0,90.0,4.0,64.0
10051,90.0,8.0,210.0,1.0,64.0
10052,59.0,97.0,120.0,4.0,64.0
10053,63.0,0.0,120.0,4.0,64.0
10054,65.0,99.0,120.0,4.0,64.0
10055,61.0,1.0,90.0,4.0,64.0
10056,80.0,35.0,180.0,2.0,64.0
10057,66.0,72.0,120.0,4.0,64.0
10058,63.0,8.0,90.0,4.0,64.0
10059,59.0,1.0,120.0,4.0,64.0
10060,63.0,97.0,120.0,4.0,64.0
10061,83.0,10.0,90.0,1.0,64.0
10062,65.0,99.0,120.0,4.0,64.0
10063,61.0,0.0,120.0,4.0,64.0
10064,83.0,10.0,90.0,1.0,64.0
10065,63.0,1.0,120.0,4.0,64.0
10066,66.0,96.0,120.0,4.0,64.0
10067,83.0,1.0,90.0,1.0,64.0
10068,68.0,95.0,120.0,4.0,64.0
10069,65.0,9.0,90.0,4.0,64.0
10070,83.0,9.0,90.0,1.0,64.0
10071,65.0,195.0,120.0,4.0,64.0
10072,61.0,1.0,90.0,4.0,64.0
10073,82.0,12.0,210.0,1.0,64.0
10074,66.0,21.0,210.0,4.0,64.0
10075,78.0,121.0,60.0,2.0,64.0
10076,85.0,61.0,150.0,1.0,64.0
10077,64.0,5.0,210.0,4.0,64.0
10078,82.0,185.0,60.0,1.0,64.0
10079,63.0,23.0,210.0,4.0,64.0
10080,83.0,12.0,180.0,1.0,64.0
10081,78.0,121.0,90.0,2.0,64.0
10082,87.0,55.0,150.0,1.0,64.0
10083,59.0,213.0,210.0,4.0,64.0
10084,83.0,1.0,150.0,1.0,64.0
10085,83.0,13.0,60.0,1.0,64.0
10086,80.0,0.0,60.0,2.0,64.0
10087,78.0,214.0,210.0,2.0,64.0
10088,82.0,0.0,210.0,1.0,64.0
10089,61.0,114.0,840.0,4.0,64.0
10090,77.0,87.0,210.0,2.0,64.0
10091,80.0,0.0,210.0,2.0,64.0
10092,85.0,108.0,90.0,1.0,64.0
10093,85.0,111.0,90.0,1.0,64.0
10094,85.0,104.0,90.0,1.0,64.0
10095,85.0,11.0,90.0,1.0,64.0
10096,85.0,8.0,210.0,1.0,64.0
10097,70.0,97.0,120.0,4.0,64.0
10098,66.0,1.0,120.0,4.0,64.0
10099,68.0,107.0,120.0,4.0,64.0
10100,71.0,0.0,120.0,2.0,64.0
10101,78.0,11.0,210.0,2.0,64.0
10102,73.0,92.0,120.0,2.0,64.0
10103,70.0,1.0,120.0,4.0,64.0
10104,71.0,60.0,120.0,2.0,64.0
10105,68.0,1.0,120.0,4.0,64.0
10106,66.0,1.0,120.0,4.0,64.0
10107,70.0,58.0,120.0,4.0,64.0
10108,90.0,49.0,60.0,1.0,64.0
10109,90.0,47.0,60.0,1.0,64.0
10110,68.0,83.0,120.0,4.0,64.0
10111,65.0,0.0,120.0,4.0,64.0
10112,90.0,20.0,90.0,1.0,64.0
10113,63.0,82.0,120.0,4.0,64.0
10114,66.0,0.0,120.0,4.0,64.0
10115,90.0,18.0,90.0,1.0,64.0
10116,65.0,104.0,120.0,4.0,64.0
10117,61.0,0.0,120.0,4.0,64.0
10118,63.0,0.0,120.0,4.0,64.0
10119,90.0,2.0,210.0,1.0,64.0
10120,60.0,100.0,120.0,4.0,64.0
10121,61.0,102.0,120.0,4.0,64.0
10122,58.0,0.0,120.0,4.0,64.0
10123,84.0,8.0,210.0,1.0,64.0
10124,60.0,95.0,120.0,4.0,64.0
10125,56.0,1.0,120.0,4.0,64.0
10126,58.0,104.0,120.0,4.0,64.0
10127,61.0,0.0,120.0,4.0,64.0
10128,87.0,7.0,210.0,1.0,64.0
10129,63.0,94.0,120.0,4.0,64.0
10130,60.0,0.0,120.0,4.0,64.0
10131,65.0,83.0,120.0,4.0,64.0
10132,61.0,1.0,120.0,4.0,64.0
10133,80.0,5.0,210.0,2.0,64.0
10134,66.0,97.0,90.0,4.0,64.0
10135,63.0,8.0,90.0,4.0,64.0
10136,63.0,166.0,90.0,4.0,64.0
10137,60.0,1.0,90.0,4.0,64.0
10138,80.0,39.0,180.0,2.0,64.0
10139,65.0,156.0,210.0,4.0,64.0
10140,61.0,0.0,210.0,4.0,64.0
10141,85.0,4.0,60.0,1.0,64.0
10142,82.0,44.0,150.0,1.0,64.0
10143,54.0,1.0,210.0,4.0,64.0
10144,63.0,156.0,210.0,4.0,64.0
10145,78.0,2.0,60.0,2.0,64.0
10146,61.0,148.0,210.0,4.0,64.0
10147,77.0,34.0,150.0,2.0,64.0
10148,56.0,8.0,180.0,4.0,64.0
10149,80.0,4.0,60.0,2.0,64.0
10150,78.0,55.0,150.0,2.0,64.0
10151,56.0,202.0,210.0,4.0,64.0
10152,60.0,14.0,210.0,4.0,64.0
10153,75.0,1.0,60.0,2.0,64.0
10154,60.0,226.0,210.0,4.0,64.0
10155,75.0,2.0,210.0,2.0,64.0
10156,73.0,1.0,240.0,2.0,64.0
10157,61.0,352.0,240.0,4.0,64.0
10158,49.0,79.0,2040.0,4.0,64.0
10159,88.0,105.0,60.0,1.0,64.0
10160,88.0,131.0,60.0,1.0,64.0
10161,88.0,108.0,90.0,1.0,64.0
10162,88.0,116.0,90.0,1.0,64.0
10163,79.0,186.0,120.0,2.0,64.0
10164,76.0,0.0,120.0,2.0,64.0
10165,73.0,1.0,120.0,2.0,64.0
10166,75.0,0.0,300.0,2.0,64.0
10167,80.0,96.0,300.0,2.0,64.0
10168,72.0,1.0,300.0,2.0,64.0
10169,86.0,111.0,90.0,1.0,64.0
10170,87.0,11.0,210.0,1.0,64.0
10171,77.0,0.0,120.0,2.0,64.0
10172,71.0,1.0,120.0,2.0,64.0
10173,74.0,175.0,120.0,2.0,64.0
10174,78.0,0.0,300.0,2.0,64.0
10175,70.0,1.0,300.0,4.0,64.0
10176,73.0,4.0,300.0,2.0,64.0
10177,84.0,113.0,90.0,1.0,64.0
10178,85.0,67.0,90.0,1.0,64.0
10179,78.0,0.0,120.0,2.0,64.0
10180,90.0,46.0,60.0,1.0,64.0
10181,75.0,59.0,120.0,2.0,64.0
10182,90.0,47.0,60.0,1.0,64.0
10183,77.0,58.0,120.0,2.0,64.0
10184,73.0,0.0,120.0,2.0,64.0
10185,90.0,47.0,60.0,1.0,64.0
10186,75.0,56.0,120.0,2.0,64.0
10187,71.0,0.0,120.0,2.0,64.0
10188,73.0,0.0,120.0,2.0,64.0
10189,90.0,44.0,60.0,1.0,64.0
10190,70.0,85.0,120.0,4.0,64.0
10191,90.0,20.0,90.0,1.0,64.0
10192,75.0,6.0,120.0,2.0,64.0
10193,71.0,1.0,120.0,2.0,64.0
10194,73.0,0.0,120.0,2.0,64.0
10195,90.0,20.0,90.0,1.0,64.0
10196,70.0,84.0,120.0,4.0,64.0
10197,90.0,19.0,90.0,1.0,64.0
10198,71.0,80.0,120.0,2.0,64.0
10199,68.0,1.0,120.0,4.0,64.0
10200,90.0,18.0,90.0,1.0,64.0
10201,66.0,1.0,120.0,4.0,64.0
10202,70.0,146.0,120.0,4.0,64.0
10203,83.0,47.0,150.0,1.0,64.0
10204,73.0,47.0,750.0,2.0,64.0
10205,65.0,148.0,210.0,4.0,64.0
10206,85.0,3.0,60.0,1.0,64.0
10207,82.0,54.0,150.0,1.0,64.0
10208,66.0,148.0,210.0,4.0,64.0
10209,78.0,3.0,60.0,2.0,64.0
10210,65.0,148.0,210.0,4.0,64.0
10211,80.0,49.0,150.0,2.0,64.0
10212,85.0,4.0,60.0,1.0,64.0
10213,84.0,3.0,150.0,1.0,64.0
10214,63.0,193.0,210.0,4.0,64.0
10215,66.0,0.0,210.0,4.0,64.0
10216,78.0,12.0,60.0,2.0,64.0
10217,72.0,1.0,60.0,2.0,64.0
10218,82.0,0.0,210.0,1.0,64.0
10219,73.0,7.0,1050.0,2.0,64.0
10220,78.0,205.0,210.0,2.0,64.0
10221,61.0,52.0,2010.0,4.0,64.0
10222,77.0,1.0,210.0,2.0,64.0
10223,80.0,79.0,210.0,2.0,64.0
10224,92.0,108.0,60.0,1.0,64.0
10225,92.0,132.0,60.0,1.0,64.0
10226,92.0,102.0,90.0,1.0,64.0
10227,92.0,215.0,90.0,1.0,64.0
10228,92.0,200.0,210.0,1.0,64.0
10229,85.0,74.0,210.0,1.0,64.0
10230,73.0,111.0,60.0,2.0,64.0
10231,73.0,136.0,60.0,2.0,64.0
10232,73.0,108.0,90.0,2.0,64.0
10233,73.0,122.0,90.0,2.0,64.0
10234,82.0,101.0,120.0,1.0,64.0
10235,73.0,1.0,210.0,2.0,64.0
10236,78.0,1.0,120.0,2.0,64.0
10237,83.0,0.0,120.0,1.0,64.0
10238,80.0,102.0,120.0,2.0,64.0
10239,85.0,6.0,120.0,1.0,64.0
10240,82.0,1.0,120.0,1.0,64.0
10241,66.0,45.0,180.0,4.0,64.0
10242,83.0,58.0,120.0,1.0,64.0
10243,87.0,0.0,120.0,1.0,64.0
10244,85.0,60.0,120.0,1.0,64.0
10245,82.0,1.0,120.0,1.0,64.0
10246,66.0,47.0,60.0,4.0,64.0
10247,83.0,83.0,120.0,1.0,64.0
10248,87.0,0.0,120.0,1.0,64.0
10249,66.0,47.0,60.0,4.0,64.0
10250,89.0,79.0,120.0,1.0,64.0
10251,80.0,0.0,120.0,2.0,64.0
10252,66.0,21.0,90.0,4.0,64.0
10253,90.0,101.0,120.0,1.0,64.0
10254,82.0,1.0,120.0,1.0,64.0
10255,66.0,20.0,90.0,4.0,64.0
10256,83.0,1.0,120.0,1.0,64.0
10257,87.0,90.0,120.0,1.0,64.0
10258,66.0,12.0,210.0,4.0,64.0
10259,89.0,85.0,120.0,1.0,64.0
10260,85.0,0.0,120.0,1.0,64.0
10261,87.0,10.0,90.0,1.0,64.0
10262,90.0,95.0,120.0,1.0,64.0
10263,59.0,8.0,210.0,4.0,64.0
10264,87.0,103.0,90.0,1.0,64.0
10265,83.0,1.0,90.0,1.0,64.0
10266,83.0,92.0,90.0,1.0,64.0
10267,59.0,9.0,180.0,4.0,64.0
10268,80.0,1.0,90.0,2.0,64.0
10269,85.0,95.0,90.0,1.0,64.0
10270,82.0,1.0,90.0,1.0,64.0
10271,87.0,93.0,90.0,1.0,64.0
10272,53.0,9.0,180.0,4.0,64.0
10273,83.0,8.0,90.0,1.0,64.0
10274,83.0,0.0,90.0,1.0,64.0
10275,80.0,194.0,90.0,2.0,64.0
10276,54.0,1.0,180.0,4.0,64.0
10277,78.0,0.0,180.0,2.0,64.0
10278,82.0,8.0,180.0,1.0,64.0
10279,90.0,151.0,60.0,1.0,64.0
10280,68.0,15.0,210.0,4.0,64.0
10281,87.0,44.0,150.0,1.0,64.0
10282,59.0,1.0,180.0,4.0,64.0
10283,83.0,150.0,60.0,1.0,64.0
10284,82.0,37.0,150.0,1.0,64.0
10285,66.0,9.0,180.0,4.0,64.0
10286,61.0,0.0,180.0,4.0,64.0
10287,85.0,146.0,60.0,1.0,64.0
10288,83.0,82.0,150.0,1.0,64.0
10289,61.0,1.0,240.0,4.0,64.0
10290,65.0,3.0,240.0,4.0,64.0
10291,80.0,238.0,120.0,2.0,64.0
10292,65.0,1.0,240.0,4.0,64.0
10293,80.0,231.0,240.0,2.0,64.0
10294,66.0,1.0,240.0,4.0,64.0
10295,78.0,442.0,240.0,2.0,64.0
10296,54.0,79.0,2160.0,4.0,64.0
10297,88.0,109.0,60.0,1.0,64.0
10298,88.0,136.0,60.0,1.0,64.0
10299,88.0,101.0,90.0,1.0,64.0
10300,88.0,118.0,90.0,1.0,64.0
10301,79.0,188.0,120.0,2.0,64.0
10302,76.0,1.0,120.0,2.0,64.0
10303,73.0,0.0,120.0,2.0,64.0
10304,80.0,90.0,300.0,2.0,64.0
10305,72.0,1.0,300.0,2.0,64.0
10306,75.0,0.0,300.0,2.0,64.0
10307,86.0,108.0,90.0,1.0,64.0
10308,87.0,19.0,180.0,1.0,64.0
10309,74.0,0.0,120.0,2.0,64.0
10310,77.0,174.0,120.0,2.0,64.0
10311,71.0,1.0,120.0,2.0,64.0
10312,70.0,1.0,300.0,4.0,64.0
10313,73.0,69.0,300.0,2.0,64.0
10314,78.0,7.0,300.0,2.0,64.0
10315,84.0,119.0,90.0,1.0,64.0
10316,85.0,0.0,90.0,1.0,64.0
10317,90.0,44.0,60.0,1.0,64.0
10318,75.0,1.0,120.0,2.0,64.0
10319,78.0,62.0,120.0,2.0,64.0
10320,90.0,47.0,60.0,1.0,64.0
10321,77.0,58.0,120.0,2.0,64.0
10322,73.0,1.0,120.0,2.0,64.0
10323,90.0,47.0,60.0,1.0,64.0
10324,75.0,57.0,120.0,2.0,64.0
10325,71.0,0.0,120.0,2.0,64.0
10326,90.0,46.0,60.0,1.0,64.0
10327,70.0,86.0,120.0,4.0,64.0
10328,73.0,0.0,120.0,2.0,64.0
10329,90.0,20.0,90.0,1.0,64.0
10330,75.0,6.0,120.0,2.0,64.0
10331,71.0,1.0,120.0,2.0,64.0
10332,73.0,0.0,120.0,2.0,64.0
10333,90.0,20.0,90.0,1.0,64.0
10334,70.0,83.0,120.0,4.0,64.0
10335,90.0,18.0,90.0,1.0,64.0
10336,71.0,86.0,120.0,2.0,64.0
10337,68.0,1.0,120.0,4.0,64.0
10338,70.0,138.0,120.0,4.0,64.0
10339,90.0,20.0,90.0,1.0,64.0
10340,66.0,1.0,120.0,4.0,64.0
10341,83.0,45.0,150.0,1.0,64.0
10342,73.0,94.0,480.0,2.0,64.0
10343,65.0,17.0,180.0,4.0,64.0
10344,85.0,149.0,60.0,1.0,64.0
10345,82.0,35.0,150.0,1.0,64.0
10346,66.0,16.0,180.0,4.0,64.0
10347,78.0,60.0,60.0,2.0,64.0
10348,65.0,17.0,210.0,4.0,64.0
10349,80.0,34.0,150.0,2.0,64.0
10350,85.0,190.0,60.0,1.0,64.0
10351,84.0,0.0,210.0,1.0,64.0
10352,63.0,1.0,210.0,4.0,64.0
10353,66.0,16.0,210.0,4.0,64.0
10354,78.0,0.0,30.0,2.0,64.0
10355,72.0,198.0,60.0,2.0,64.0
10356,82.0,206.0,210.0,1.0,64.0
10357,73.0,22.0,1050.0,2.0,64.0
10358,78.0,1.0,210.0,2.0,64.0
10359,61.0,73.0,2010.0,4.0,64.0
10360,77.0,71.0,210.0,2.0,64.0
10361,80.0,0.0,210.0,2.0,64.0
10362,92.0,109.0,60.0,1.0,64.0
10363,92.0,135.0,60.0,1.0,64.0
10364,92.0,107.0,90.0,1.0,64.0
10365,92.0,213.0,90.0,1.0,64.0
10366,92.0,270.0,240.0,1.0,64.0
10367,85.0,37.0,360.0,1.0,64.0
10368,73.0,73.0,90.0,2.0,64.0
10369,73.0,123.0,90.0,2.0,64.0
10370,73.0,108.0,90.0,2.0,64.0
10371,73.0,123.0,90.0,2.0,64.0
10372,78.0,102.0,120.0,2.0,64.0
10373,82.0,0.0,120.0,1.0,64.0
10374,73.0,0.0,210.0,2.0,64.0
10375,83.0,103.0,120.0,1.0,64.0
10376,80.0,1.0,120.0,2.0,64.0
10377,85.0,4.0,120.0,1.0,64.0
10378,66.0,30.0,180.0,4.0,64.0
10379,82.0,1.0,120.0,1.0,64.0
10380,83.0,62.0,120.0,1.0,64.0
10381,87.0,0.0,120.0,1.0,64.0
10382,85.0,56.0,120.0,1.0,64.0
10383,82.0,1.0,120.0,1.0,64.0
10384,66.0,45.0,60.0,4.0,64.0
10385,83.0,87.0,120.0,1.0,64.0
10386,87.0,0.0,120.0,1.0,64.0
10387,66.0,47.0,60.0,4.0,64.0
10388,89.0,87.0,120.0,1.0,64.0
10389,80.0,1.0,120.0,2.0,64.0
10390,66.0,20.0,90.0,4.0,64.0
10391,82.0,104.0,120.0,1.0,64.0
10392,90.0,0.0,120.0,1.0,64.0
10393,66.0,20.0,90.0,4.0,64.0
10394,87.0,103.0,120.0,1.0,64.0
10395,83.0,0.0,120.0,1.0,64.0
10396,66.0,1.0,210.0,4.0,64.0
10397,89.0,87.0,120.0,1.0,64.0
10398,85.0,0.0,120.0,1.0,64.0
10399,87.0,8.0,90.0,1.0,64.0
10400,90.0,95.0,120.0,1.0,64.0
10401,59.0,9.0,210.0,4.0,64.0
10402,87.0,113.0,90.0,1.0,64.0
10403,83.0,0.0,90.0,1.0,64.0
10404,83.0,83.0,120.0,1.0,64.0
10405,59.0,19.0,210.0,4.0,64.0
10406,80.0,1.0,120.0,2.0,64.0
10407,85.0,85.0,120.0,1.0,64.0
10408,82.0,0.0,120.0,1.0,64.0
10409,83.0,10.0,90.0,1.0,64.0
10410,87.0,93.0,120.0,1.0,64.0
10411,53.0,9.0,210.0,4.0,64.0
10412,83.0,193.0,90.0,1.0,64.0
10413,80.0,1.0,90.0,2.0,64.0
10414,82.0,0.0,180.0,1.0,64.0
10415,54.0,8.0,180.0,4.0,64.0
10416,78.0,1.0,180.0,2.0,64.0
10417,90.0,150.0,60.0,1.0,64.0
10418,87.0,44.0,150.0,1.0,64.0
10419,59.0,17.0,180.0,4.0,64.0
10420,68.0,0.0,180.0,4.0,64.0
10421,83.0,144.0,60.0,1.0,64.0
10422,82.0,42.0,150.0,1.0,64.0
10423,61.0,1.0,180.0,4.0,64.0
10424,66.0,17.0,180.0,4.0,64.0
10425,85.0,131.0,60.0,1.0,64.0
10426,83.0,69.0,150.0,1.0,64.0
10427,65.0,254.0,210.0,4.0,64.0
10428,61.0,1.0,210.0,4.0,64.0
10429,80.0,2.0,60.0,2.0,64.0
10430,65.0,215.0,240.0,4.0,64.0
10431,80.0,2.0,240.0,2.0,64.0
10432,78.0,409.0,210.0,2.0,64.0
10433,66.0,0.0,210.0,4.0,64.0
10434,54.0,268.0,420.0,4.0,64.0
10435,61.0,215.0,90.0,4.0,64.0
10436,49.0,0.0,90.0,4.0,64.0
10437,58.0,125.0,120.0,4.0,64.0
10438,46.0,0.0,120.0,4.0,64.0
10439,42.0,1.0,420.0,4.0,64.0
10440,54.0,14.0,420.0,4.0,64.0
10441,66.0,84.0,60.0,4.0,64.0
10442,70.0,55.0,120.0,4.0,64.0
10443,66.0,27.0,60.0,4.0,64.0
10444,85.0,12.0,180.0,1.0,64.0
10445,66.0,70.0,60.0,4.0,64.0
10446,70.0,41.0,120.0,4.0,64.0
10447,66.0,29.0,60.0,4.0,64.0
10448,87.0,12.0,180.0,1.0,64.0
10449,66.0,71.0,60.0,4.0,64.0
10450,70.0,57.0,120.0,4.0,64.0
10451,66.0,29.0,60.0,4.0,64.0
10452,82.0,14.0,180.0,1.0,64.0
10453,67.0,71.0,60.0,4.0,64.0
10454,75.0,57.0,120.0,2.0,64.0
10455,67.0,27.0,60.0,4.0,64.0
10456,83.0,14.0,840.0,1.0,64.0
10457,68.0,83.0,60.0,4.0,64.0
10458,75.0,41.0,120.0,2.0,64.0
10459,68.0,29.0,60.0,4.0,64.0
10460,56.0,13.0,90.0,4.0,64.0
10461,44.0,1.0,90.0,4.0,64.0
10462,72.0,83.0,60.0,2.0,64.0
10463,75.0,43.0,120.0,2.0,64.0
10464,72.0,27.0,60.0,2.0,64.0
10465,41.0,1.0,90.0,4.0,64.0
10466,53.0,14.0,90.0,4.0,64.0
10467,71.0,83.0,60.0,2.0,64.0
10468,80.0,41.0,120.0,2.0,64.0
10469,71.0,28.0,60.0,2.0,64.0
10470,49.0,13.0,90.0,4.0,64.0
10471,37.0,0.0,90.0,4.0,64.0
10472,71.0,85.0,60.0,2.0,64.0
10473,77.0,57.0,120.0,2.0,64.0
10474,71.0,27.0,60.0,2.0,64.0
10475,42.0,20.0,240.0,4.0,64.0
10476,54.0,0.0,240.0,4.0,64.0
10477,70.0,71.0,60.0,4.0,64.0
10478,78.0,36.0,120.0,2.0,64.0
10479,70.0,27.0,60.0,4.0,64.0
10480,85.0,55.0,300.0,1.0,64.0
10481,70.0,85.0,60.0,4.0,64.0
10482,78.0,56.0,120.0,2.0,64.0
10483,70.0,28.0,60.0,4.0,64.0
10484,47.0,14.0,420.0,4.0,64.0
10485,59.0,0.0,420.0,4.0,64.0
10486,68.0,29.0,60.0,4.0,64.0
10487,78.0,54.0,120.0,2.0,64.0
10488,68.0,29.0,60.0,4.0,64.0
10489,87.0,8.0,180.0,1.0,64.0
10490,68.0,48.0,60.0,4.0,64.0
10491,78.0,29.0,60.0,2.0,64.0
10492,68.0,69.0,60.0,4.0,64.0
10493,78.0,6.0,180.0,2.0,64.0
10494,70.0,43.0,60.0,4.0,64.0
10495,73.0,36.0,60.0,2.0,64.0
10496,70.0,84.0,60.0,4.0,64.0
10497,77.0,13.0,720.0,2.0,64.0
10498,68.0,42.0,60.0,4.0,64.0
10499,73.0,67.0,60.0,2.0,64.0
10500,68.0,50.0,90.0,4.0,64.0
10501,61.0,194.0,90.0,4.0,64.0
10502,49.0,0.0,90.0,4.0,64.0
10503,58.0,165.0,120.0,4.0,64.0
10504,46.0,0.0,120.0,4.0,64.0
10505,42.0,1.0,630.0,4.0,64.0
10506,54.0,40.0,630.0,4.0,64.0
10507,70.0,85.0,60.0,4.0,64.0
10508,73.0,57.0,120.0,2.0,64.0
10509,70.0,14.0,60.0,4.0,64.0
10510,90.0,14.0,180.0,1.0,64.0
10511,70.0,69.0,60.0,4.0,64.0
10512,73.0,57.0,120.0,2.0,64.0
10513,70.0,29.0,60.0,4.0,64.0
10514,87.0,19.0,150.0,1.0,64.0
10515,70.0,63.0,60.0,4.0,64.0
10516,78.0,57.0,120.0,2.0,64.0
10517,70.0,29.0,60.0,4.0,64.0
10518,85.0,14.0,180.0,1.0,64.0
10519,70.0,26.0,60.0,4.0,64.0
10520,78.0,57.0,120.0,2.0,64.0
10521,70.0,29.0,60.0,4.0,64.0
10522,84.0,78.0,840.0,1.0,64.0
10523,68.0,83.0,60.0,4.0,64.0
10524,78.0,41.0,120.0,2.0,64.0
10525,68.0,29.0,60.0,4.0,64.0
10526,51.0,14.0,90.0,4.0,64.0
10527,39.0,1.0,90.0,4.0,64.0
10528,72.0,83.0,60.0,2.0,64.0
10529,78.0,57.0,120.0,2.0,64.0
10530,72.0,29.0,60.0,2.0,64.0
10531,56.0,63.0,120.0,4.0,64.0
10532,44.0,0.0,120.0,4.0,64.0
10533,72.0,19.0,60.0,2.0,64.0
10534,75.0,57.0,120.0,2.0,64.0
10535,72.0,29.0,60.0,2.0,64.0
10536,42.0,1.0,120.0,4.0,64.0
10537,54.0,62.0,120.0,4.0,64.0
10538,72.0,21.0,60.0,2.0,64.0
10539,75.0,55.0,120.0,2.0,64.0
10540,72.0,28.0,60.0,2.0,64.0
10541,41.0,7.0,240.0,4.0,64.0
10542,53.0,0.0,240.0,4.0,64.0
10543,73.0,43.0,60.0,2.0,64.0
10544,77.0,27.0,60.0,2.0,64.0
10545,73.0,14.0,120.0,2.0,64.0
10546,80.0,22.0,330.0,2.0,64.0
10547,65.0,86.0,60.0,4.0,64.0
10548,73.0,57.0,120.0,2.0,64.0
10549,65.0,26.0,60.0,4.0,64.0
10550,56.0,0.0,420.0,4.0,64.0
10551,44.0,15.0,420.0,4.0,64.0
10552,63.0,42.0,60.0,4.0,64.0
10553,72.0,21.0,60.0,2.0,64.0
10554,63.0,85.0,60.0,4.0,64.0
10555,72.0,22.0,150.0,2.0,64.0
10556,66.0,42.0,60.0,4.0,64.0
10557,68.0,19.0,60.0,4.0,64.0
10558,66.0,69.0,60.0,4.0,64.0
10559,75.0,8.0,180.0,2.0,64.0
10560,66.0,42.0,60.0,4.0,64.0
10561,68.0,34.0,60.0,4.0,64.0
10562,66.0,85.0,60.0,4.0,64.0
10563,73.0,15.0,720.0,2.0,64.0
10564,65.0,41.0,60.0,4.0,64.0
10565,68.0,43.0,60.0,4.0,64.0
10566,65.0,70.0,60.0,4.0,64.0
10567,61.0,0.0,90.0,4.0,64.0
10568,49.0,216.0,90.0,4.0,64.0
10569,46.0,140.0,120.0,4.0,64.0
10570,58.0,0.0,120.0,4.0,64.0
10571,42.0,1.0,630.0,4.0,64.0
10572,54.0,39.0,630.0,4.0,64.0
10573,66.0,84.0,60.0,4.0,64.0
10574,70.0,55.0,120.0,4.0,64.0
10575,66.0,14.0,60.0,4.0,64.0
10576,85.0,21.0,150.0,1.0,64.0
10577,66.0,63.0,60.0,4.0,64.0
10578,70.0,57.0,120.0,4.0,64.0
10579,66.0,29.0,60.0,4.0,64.0
10580,87.0,14.0,180.0,1.0,64.0
10581,66.0,69.0,60.0,4.0,64.0
10582,70.0,57.0,120.0,4.0,64.0
10583,66.0,29.0,60.0,4.0,64.0
10584,82.0,15.0,180.0,1.0,64.0
10585,67.0,28.0,60.0,4.0,64.0
10586,75.0,57.0,120.0,2.0,64.0
10587,67.0,29.0,60.0,4.0,64.0
10588,83.0,14.0,840.0,1.0,64.0
10589,68.0,83.0,60.0,4.0,64.0
10590,75.0,43.0,120.0,2.0,64.0
10591,68.0,29.0,60.0,4.0,64.0
10592,44.0,1.0,90.0,4.0,64.0
10593,56.0,13.0,90.0,4.0,64.0
10594,72.0,84.0,60.0,2.0,64.0
10595,75.0,57.0,120.0,2.0,64.0
10596,72.0,29.0,60.0,2.0,64.0
10597,53.0,69.0,120.0,4.0,64.0
10598,41.0,0.0,120.0,4.0,64.0
10599,71.0,13.0,60.0,2.0,64.0
10600,80.0,57.0,120.0,2.0,64.0
10601,71.0,29.0,60.0,2.0,64.0
10602,49.0,70.0,120.0,4.0,64.0
10603,37.0,1.0,120.0,4.0,64.0
10604,71.0,13.0,60.0,2.0,64.0
10605,77.0,57.0,120.0,2.0,64.0
10606,71.0,27.0,60.0,2.0,64.0
10607,42.0,20.0,240.0,4.0,64.0
10608,54.0,0.0,240.0,4.0,64.0
10609,70.0,69.0,60.0,4.0,64.0
10610,78.0,36.0,120.0,2.0,64.0
10611,70.0,29.0,60.0,4.0,64.0
10612,85.0,57.0,300.0,1.0,64.0
10613,70.0,85.0,60.0,4.0,64.0
10614,78.0,57.0,120.0,2.0,64.0
10615,70.0,27.0,60.0,4.0,64.0
10616,47.0,1.0,480.0,4.0,64.0
10617,59.0,18.0,480.0,4.0,64.0
10618,68.0,27.0,60.0,4.0,64.0
10619,78.0,59.0,120.0,2.0,64.0
10620,68.0,27.0,60.0,4.0,64.0
10621,87.0,7.0,180.0,1.0,64.0
10622,68.0,40.0,60.0,4.0,64.0
10623,78.0,35.0,60.0,2.0,64.0
10624,68.0,84.0,60.0,4.0,64.0
10625,78.0,9.0,180.0,2.0,64.0
10626,70.0,42.0,60.0,4.0,64.0
10627,73.0,15.0,60.0,2.0,64.0
10628,70.0,85.0,60.0,4.0,64.0
10629,77.0,13.0,720.0,2.0,64.0
10630,68.0,42.0,60.0,4.0,64.0
10631,73.0,43.0,60.0,2.0,64.0
10632,68.0,83.0,60.0,4.0,64.0
10633,61.0,199.0,90.0,4.0,64.0
10634,49.0,0.0,90.0,4.0,64.0
10635,46.0,1.0,120.0,4.0,64.0
10636,58.0,155.0,120.0,4.0,64.0
10637,54.0,0.0,630.0,4.0,64.0
10638,42.0,46.0,630.0,4.0,64.0
10639,70.0,84.0,60.0,4.0,64.0
10640,73.0,57.0,120.0,2.0,64.0
10641,70.0,16.0,60.0,4.0,64.0
10642,90.0,14.0,180.0,1.0,64.0
10643,70.0,69.0,60.0,4.0,64.0
10644,73.0,57.0,120.0,2.0,64.0
10645,70.0,29.0,60.0,4.0,64.0
10646,87.0,25.0,150.0,1.0,64.0
10647,70.0,59.0,60.0,4.0,64.0
10648,78.0,56.0,120.0,2.0,64.0
10649,70.0,29.0,60.0,4.0,64.0
10650,85.0,13.0,180.0,1.0,64.0
10651,70.0,27.0,60.0,4.0,64.0
10652,78.0,56.0,120.0,2.0,64.0
10653,70.0,29.0,60.0,4.0,64.0
10654,84.0,15.0,840.0,1.0,64.0
10655,68.0,84.0,60.0,4.0,64.0
10656,78.0,41.0,120.0,2.0,64.0
10657,68.0,29.0,60.0,4.0,64.0
10658,51.0,13.0,90.0,4.0,64.0
10659,39.0,0.0,90.0,4.0,64.0
10660,72.0,85.0,60.0,2.0,64.0
10661,78.0,56.0,120.0,2.0,64.0
10662,72.0,29.0,60.0,2.0,64.0
10663,56.0,0.0,120.0,4.0,64.0
10664,44.0,69.0,120.0,4.0,64.0
10665,72.0,14.0,60.0,2.0,64.0
10666,75.0,55.0,120.0,2.0,64.0
10667,72.0,29.0,60.0,2.0,64.0
10668,54.0,69.0,120.0,4.0,64.0
10669,42.0,0.0,120.0,4.0,64.0
10670,72.0,16.0,60.0,2.0,64.0
10671,75.0,57.0,120.0,2.0,64.0
10672,72.0,28.0,60.0,2.0,64.0
10673,53.0,0.0,240.0,4.0,64.0
10674,41.0,20.0,240.0,4.0,64.0
10675,73.0,40.0,60.0,2.0,64.0
10676,77.0,29.0,60.0,2.0,64.0
10677,73.0,63.0,60.0,2.0,64.0
10678,80.0,15.0,330.0,2.0,64.0
10679,65.0,43.0,60.0,4.0,64.0
10680,73.0,41.0,60.0,2.0,64.0
10681,65.0,85.0,60.0,4.0,64.0
10682,56.0,72.0,780.0,4.0,64.0
10683,44.0,14.0,1710.0,4.0,64.0
10684,63.0,43.0,60.0,4.0,64.0
10685,72.0,27.0,60.0,2.0,64.0
10686,63.0,84.0,60.0,4.0,64.0
10687,72.0,10.0,180.0,2.0,64.0
10688,66.0,42.0,60.0,4.0,64.0
10689,68.0,33.0,60.0,4.0,64.0
10690,66.0,83.0,60.0,4.0,64.0
10691,75.0,17.0,180.0,2.0,64.0
10692,66.0,42.0,60.0,4.0,64.0
10693,68.0,26.0,60.0,4.0,64.0
10694,66.0,84.0,60.0,4.0,64.0
10695,73.0,20.0,150.0,2.0,64.0
10696,65.0,42.0,60.0,4.0,64.0
10697,68.0,22.0,60.0,4.0,64.0
10698,65.0,90.0,60.0,4.0,64.0
10699,85.0,16.0,180.0,1.0,64.0
10700,73.0,0.0,60.0,2.0,64.0
10701,82.0,58.0,120.0,1.0,64.0
10702,73.0,31.0,60.0,2.0,64.0
10703,88.0,14.0,180.0,1.0,64.0
10704,80.0,46.0,60.0,2.0,64.0
10705,85.0,28.0,60.0,1.0,64.0
10706,80.0,90.0,60.0,2.0,64.0
10707,87.0,28.0,150.0,1.0,64.0
10708,79.0,58.0,60.0,2.0,64.0
10709,85.0,57.0,120.0,1.0,64.0
10710,79.0,31.0,60.0,2.0,64.0
10711,92.0,13.0,180.0,1.0,64.0
10712,78.0,42.0,60.0,2.0,64.0
10713,84.0,29.0,60.0,1.0,64.0
10714,78.0,88.0,60.0,2.0,64.0
10715,85.0,17.0,180.0,1.0,64.0
10716,77.0,71.0,60.0,2.0,64.0
10717,83.0,55.0,120.0,1.0,64.0
10718,77.0,31.0,60.0,2.0,64.0
10719,90.0,42.0,990.0,1.0,64.0
10720,76.0,71.0,60.0,2.0,64.0
10721,82.0,53.0,120.0,1.0,64.0
10722,76.0,29.0,60.0,2.0,64.0
10723,59.0,0.0,90.0,4.0,64.0
10724,47.0,7.0,90.0,4.0,64.0
10725,75.0,85.0,60.0,2.0,64.0
10726,87.0,49.0,120.0,1.0,64.0
10727,75.0,29.0,60.0,2.0,64.0
10728,65.0,7.0,90.0,4.0,64.0
10729,53.0,0.0,90.0,4.0,64.0
10730,80.0,85.0,60.0,2.0,64.0
10731,83.0,51.0,120.0,1.0,64.0
10732,80.0,27.0,60.0,2.0,64.0
10733,58.0,6.0,90.0,4.0,64.0
10734,46.0,0.0,90.0,4.0,64.0
10735,73.0,84.0,60.0,2.0,64.0
10736,85.0,49.0,120.0,1.0,64.0
10737,73.0,29.0,60.0,2.0,64.0
10738,63.0,0.0,90.0,4.0,64.0
10739,51.0,8.0,90.0,4.0,64.0
10740,78.0,84.0,60.0,2.0,64.0
10741,82.0,54.0,120.0,1.0,64.0
10742,78.0,29.0,60.0,2.0,64.0
10743,56.0,14.0,840.0,4.0,64.0
10744,44.0,53.0,1140.0,4.0,64.0
10745,75.0,43.0,60.0,2.0,64.0
10746,83.0,56.0,120.0,1.0,64.0
10747,75.0,29.0,60.0,2.0,64.0
10748,89.0,21.0,150.0,1.0,64.0
10749,73.0,63.0,60.0,2.0,64.0
10750,83.0,54.0,120.0,1.0,64.0
10751,73.0,27.0,60.0,2.0,64.0
10752,90.0,54.0,210.0,1.0,64.0
10753,73.0,86.0,60.0,2.0,64.0
10754,82.0,0.0,120.0,1.0,64.0
10755,73.0,27.0,60.0,2.0,64.0
10756,78.0,23.0,150.0,2.0,64.0
10757,72.0,60.0,60.0,2.0,64.0
10758,75.0,57.0,120.0,2.0,64.0
10759,72.0,29.0,60.0,2.0,64.0
10760,82.0,8.0,150.0,1.0,64.0
10761,73.0,41.0,60.0,2.0,64.0
10762,78.0,21.0,60.0,2.0,64.0
10763,73.0,86.0,60.0,2.0,64.0
10764,80.0,0.0,180.0,2.0,64.0
10765,73.0,66.0,60.0,2.0,64.0
10766,77.0,76.0,120.0,2.0,64.0
10767,73.0,28.0,60.0,2.0,64.0
10768,92.0,178.0,180.0,1.0,64.0
10769,80.0,1.0,180.0,2.0,64.0
10770,77.0,300.0,180.0,2.0,64.0
10771,89.0,0.0,180.0,1.0,64.0
10772,85.0,0.0,300.0,1.0,64.0
10773,73.0,151.0,300.0,2.0,64.0
10774,61.0,228.0,90.0,4.0,64.0
10775,49.0,1.0,90.0,4.0,64.0
10776,58.0,0.0,150.0,4.0,64.0
10777,46.0,144.0,120.0,4.0,64.0
10778,42.0,1.0,420.0,4.0,64.0
10779,54.0,13.0,420.0,4.0,64.0
10780,66.0,86.0,60.0,4.0,64.0
10781,70.0,57.0,120.0,4.0,64.0
10782,66.0,29.0,60.0,4.0,64.0
10783,85.0,17.0,180.0,1.0,64.0
10784,66.0,69.0,60.0,4.0,64.0
10785,70.0,43.0,120.0,4.0,64.0
10786,66.0,29.0,60.0,4.0,64.0
10787,87.0,15.0,180.0,1.0,64.0
10788,66.0,70.0,60.0,4.0,64.0
10789,70.0,56.0,120.0,4.0,64.0
10790,66.0,29.0,60.0,4.0,64.0
10791,82.0,10.0,180.0,1.0,64.0
10792,67.0,73.0,60.0,4.0,64.0
10793,75.0,56.0,120.0,2.0,64.0
10794,67.0,27.0,60.0,4.0,64.0
10795,83.0,15.0,840.0,1.0,64.0
10796,68.0,84.0,60.0,4.0,64.0
10797,75.0,56.0,120.0,2.0,64.0
10798,68.0,29.0,60.0,4.0,64.0
10799,44.0,1.0,120.0,4.0,64.0
10800,56.0,57.0,120.0,4.0,64.0
10801,72.0,27.0,60.0,2.0,64.0
10802,75.0,56.0,120.0,2.0,64.0
10803,72.0,27.0,60.0,2.0,64.0
10804,41.0,1.0,120.0,4.0,64.0
10805,53.0,55.0,120.0,4.0,64.0
10806,71.0,29.0,60.0,2.0,64.0
10807,80.0,54.0,120.0,2.0,64.0
10808,71.0,29.0,60.0,2.0,64.0
10809,49.0,55.0,120.0,4.0,64.0
10810,37.0,1.0,120.0,4.0,64.0
10811,71.0,29.0,60.0,2.0,64.0
10812,77.0,56.0,120.0,2.0,64.0
10813,71.0,28.0,60.0,2.0,64.0
10814,42.0,21.0,240.0,4.0,64.0
10815,54.0,0.0,240.0,4.0,64.0
10816,70.0,70.0,60.0,4.0,64.0
10817,78.0,36.0,120.0,2.0,64.0
10818,70.0,27.0,60.0,4.0,64.0
10819,87.0,21.0,330.0,1.0,64.0
10820,71.0,84.0,60.0,2.0,64.0
10821,78.0,55.0,120.0,2.0,64.0
10822,71.0,29.0,60.0,2.0,64.0
10823,49.0,15.0,1710.0,4.0,64.0
10824,61.0,15.0,420.0,4.0,64.0
10825,70.0,42.0,60.0,4.0,64.0
10826,78.0,21.0,60.0,2.0,64.0
10827,70.0,86.0,60.0,4.0,64.0
10828,77.0,27.0,150.0,2.0,64.0
10829,68.0,57.0,60.0,4.0,64.0
10830,73.0,41.0,120.0,2.0,64.0
10831,68.0,29.0,60.0,4.0,64.0
10832,80.0,14.0,180.0,2.0,64.0
10833,71.0,70.0,60.0,2.0,64.0
10834,73.0,55.0,120.0,2.0,64.0
10835,71.0,28.0,60.0,2.0,64.0
10836,78.0,21.0,150.0,2.0,64.0
10837,70.0,42.0,60.0,4.0,64.0
10838,73.0,19.0,60.0,2.0,64.0
10839,70.0,89.0,60.0,4.0,64.0
10840,85.0,20.0,180.0,1.0,64.0
10841,73.0,68.0,60.0,2.0,64.0
10842,82.0,56.0,120.0,1.0,64.0
10843,73.0,28.0,60.0,2.0,64.0
10844,88.0,14.0,180.0,1.0,64.0
10845,80.0,45.0,60.0,2.0,64.0
10846,85.0,27.0,60.0,1.0,64.0
10847,80.0,86.0,60.0,2.0,64.0
10848,87.0,14.0,180.0,1.0,64.0
10849,79.0,75.0,60.0,2.0,64.0
10850,85.0,61.0,120.0,1.0,64.0
10851,79.0,28.0,60.0,2.0,64.0
10852,92.0,12.0,180.0,1.0,64.0
10853,78.0,43.0,60.0,2.0,64.0
10854,84.0,30.0,60.0,1.0,64.0
10855,78.0,89.0,60.0,2.0,64.0
10856,85.0,10.0,180.0,1.0,64.0
10857,77.0,79.0,60.0,2.0,64.0
10858,83.0,58.0,120.0,1.0,64.0
10859,77.0,27.0,60.0,2.0,64.0
10860,90.0,43.0,990.0,1.0,64.0
10861,76.0,74.0,60.0,2.0,64.0
10862,82.0,51.0,120.0,1.0,64.0
10863,76.0,29.0,60.0,2.0,64.0
10864,59.0,6.0,90.0,4.0,64.0
10865,47.0,0.0,90.0,4.0,64.0
10866,75.0,86.0,60.0,2.0,64.0
10867,87.0,52.0,120.0,1.0,64.0
10868,75.0,30.0,60.0,2.0,64.0
10869,65.0,6.0,90.0,4.0,64.0
10870,53.0,0.0,90.0,4.0,64.0
10871,80.0,85.0,60.0,2.0,64.0
10872,83.0,51.0,120.0,1.0,64.0
10873,80.0,29.0,60.0,2.0,64.0
10874,46.0,7.0,90.0,4.0,64.0
10875,58.0,0.0,90.0,4.0,64.0
10876,73.0,85.0,60.0,2.0,64.0
10877,85.0,51.0,120.0,1.0,64.0
10878,73.0,28.0,60.0,2.0,64.0
10879,63.0,6.0,90.0,4.0,64.0
10880,51.0,1.0,90.0,4.0,64.0
10881,78.0,84.0,60.0,2.0,64.0
10882,82.0,57.0,120.0,1.0,64.0
10883,78.0,27.0,60.0,2.0,64.0
10884,56.0,14.0,420.0,4.0,64.0
10885,44.0,51.0,1140.0,4.0,64.0
10886,75.0,42.0,60.0,2.0,64.0
10887,83.0,57.0,120.0,1.0,64.0
10888,75.0,26.0,60.0,2.0,64.0
10889,89.0,31.0,150.0,1.0,64.0
10890,73.0,53.0,60.0,2.0,64.0
10891,83.0,42.0,120.0,1.0,64.0
10892,73.0,28.0,60.0,2.0,64.0
10893,90.0,14.0,300.0,1.0,64.0
10894,73.0,85.0,60.0,2.0,64.0
10895,82.0,57.0,120.0,1.0,64.0
10896,73.0,28.0,60.0,2.0,64.0
10897,78.0,25.0,150.0,2.0,64.0
10898,72.0,29.0,60.0,2.0,64.0
10899,75.0,16.0,60.0,2.0,64.0
10900,72.0,82.0,60.0,2.0,64.0
10901,82.0,21.0,150.0,1.0,64.0
10902,73.0,40.0,60.0,2.0,64.0
10903,78.0,22.0,60.0,2.0,64.0
10904,73.0,90.0,60.0,2.0,64.0
10905,80.0,22.0,180.0,2.0,64.0
10906,73.0,65.0,60.0,2.0,64.0
10907,77.0,79.0,120.0,2.0,64.0
10908,73.0,33.0,60.0,2.0,64.0
10909,80.0,1.0,180.0,2.0,64.0
10910,92.0,176.0,180.0,1.0,64.0
10911,77.0,1.0,180.0,2.0,64.0
10912,89.0,218.0,180.0,1.0,64.0
10913,73.0,219.0,210.0,2.0,64.0
10914,85.0,0.0,210.0,1.0,64.0
10915,61.0,219.0,90.0,4.0,64.0
10916,49.0,0.0,90.0,4.0,64.0
10917,58.0,161.0,120.0,4.0,64.0
10918,46.0,0.0,120.0,4.0,64.0
10919,42.0,13.0,630.0,4.0,64.0
10920,54.0,0.0,630.0,4.0,64.0
10921,66.0,43.0,60.0,4.0,64.0
10922,70.0,41.0,60.0,4.0,64.0
10923,66.0,84.0,60.0,4.0,64.0
10924,85.0,29.0,150.0,1.0,64.0
10925,66.0,44.0,60.0,4.0,64.0
10926,70.0,14.0,60.0,4.0,64.0
10927,66.0,86.0,60.0,4.0,64.0
10928,87.0,18.0,180.0,1.0,64.0
10929,66.0,43.0,60.0,4.0,64.0
10930,70.0,25.0,60.0,4.0,64.0
10931,66.0,86.0,60.0,4.0,64.0
10932,82.0,18.0,180.0,1.0,64.0
10933,67.0,29.0,60.0,4.0,64.0
10934,75.0,25.0,60.0,2.0,64.0
10935,67.0,86.0,60.0,4.0,64.0
10936,83.0,14.0,840.0,1.0,64.0
10937,68.0,42.0,60.0,4.0,64.0
10938,75.0,45.0,60.0,2.0,64.0
10939,68.0,69.0,60.0,4.0,64.0
10940,44.0,1.0,90.0,4.0,64.0
10941,56.0,14.0,90.0,4.0,64.0
10942,72.0,42.0,60.0,2.0,64.0
10943,75.0,41.0,60.0,2.0,64.0
10944,72.0,85.0,60.0,2.0,64.0
10945,53.0,35.0,120.0,4.0,64.0
10946,41.0,0.0,120.0,4.0,64.0
10947,71.0,8.0,60.0,2.0,64.0
10948,80.0,41.0,60.0,2.0,64.0
10949,71.0,85.0,60.0,2.0,64.0
10950,49.0,35.0,120.0,4.0,64.0
10951,37.0,0.0,120.0,4.0,64.0
10952,71.0,8.0,60.0,2.0,64.0
10953,77.0,41.0,60.0,2.0,64.0
10954,71.0,85.0,60.0,2.0,64.0
10955,42.0,20.0,240.0,4.0,64.0
10956,54.0,0.0,240.0,4.0,64.0
10957,70.0,42.0,60.0,4.0,64.0
10958,78.0,29.0,60.0,2.0,64.0
10959,70.0,64.0,60.0,4.0,64.0
10960,87.0,13.0,330.0,1.0,64.0
10961,71.0,42.0,60.0,2.0,64.0
10962,78.0,41.0,60.0,2.0,64.0
10963,71.0,85.0,60.0,2.0,64.0
10964,49.0,147.0,1260.0,4.0,64.0
10965,61.0,14.0,420.0,4.0,64.0
10966,70.0,42.0,60.0,4.0,64.0
10967,78.0,29.0,60.0,2.0,64.0
10968,70.0,86.0,60.0,4.0,64.0
10969,77.0,23.0,150.0,2.0,64.0
10970,68.0,42.0,60.0,4.0,64.0
10971,73.0,19.0,60.0,2.0,64.0
10972,68.0,75.0,60.0,4.0,64.0
10973,80.0,21.0,180.0,2.0,64.0
10974,71.0,48.0,60.0,2.0,64.0
10975,73.0,29.0,60.0,2.0,64.0
10976,71.0,110.0,60.0,2.0,64.0
10977,78.0,104.0,480.0,2.0,64.0
10978,70.0,65.0,60.0,4.0,64.0
10979,73.0,64.0,90.0,2.0,64.0
10980,70.0,99.0,90.0,4.0,64.0
10981,73.0,104.0,120.0,2.0,64.0
10982,74.0,8.0,120.0,2.0,64.0
10983,73.0,101.0,120.0,2.0,64.0
10984,77.0,57.0,90.0,2.0,64.0
10985,78.0,98.0,360.0,2.0,64.0
10986,73.0,105.0,90.0,2.0,64.0
10987,69.0,1.0,90.0,4.0,64.0
10988,66.0,0.0,90.0,4.0,64.0
10989,73.0,69.0,90.0,2.0,64.0
10990,69.0,0.0,90.0,4.0,64.0
10991,66.0,0.0,90.0,4.0,64.0
10992,73.0,4.0,210.0,2.0,64.0
10993,66.0,1.0,210.0,4.0,64.0
10994,69.0,0.0,210.0,4.0,64.0
10995,86.0,45.0,60.0,1.0,64.0
10996,85.0,50.0,60.0,1.0,64.0
10997,86.0,43.0,60.0,1.0,64.0
10998,73.0,7.0,90.0,2.0,64.0
10999,69.0,1.0,90.0,4.0,64.0
11000,66.0,0.0,90.0,4.0,64.0
11001,85.0,48.0,60.0,1.0,64.0
11002,69.0,0.0,90.0,4.0,64.0
11003,73.0,7.0,90.0,2.0,64.0
11004,86.0,40.0,60.0,1.0,64.0
11005,66.0,1.0,90.0,4.0,64.0
11006,85.0,48.0,60.0,1.0,64.0
11007,83.0,51.0,60.0,1.0,64.0
11008,73.0,99.0,180.0,2.0,64.0
11009,69.0,0.0,180.0,4.0,64.0
11010,66.0,1.0,180.0,4.0,64.0
11011,81.0,95.0,60.0,2.0,64.0
11012,80.0,107.0,360.0,2.0,64.0
11013,68.0,0.0,90.0,4.0,64.0
11014,59.0,1.0,90.0,4.0,64.0
11015,62.0,100.0,90.0,4.0,64.0
11016,68.0,57.0,90.0,4.0,64.0
11017,62.0,1.0,90.0,4.0,64.0
11018,59.0,0.0,90.0,4.0,64.0
11019,62.0,4.0,210.0,4.0,64.0
11020,68.0,0.0,210.0,4.0,64.0
11021,59.0,1.0,210.0,4.0,64.0
11022,85.0,45.0,60.0,1.0,64.0
11023,83.0,49.0,60.0,1.0,64.0
11024,85.0,41.0,60.0,1.0,64.0
11025,65.0,8.0,90.0,4.0,64.0
11026,68.0,0.0,90.0,4.0,64.0
11027,61.0,1.0,90.0,4.0,64.0
11028,83.0,48.0,60.0,1.0,64.0
11029,85.0,43.0,60.0,1.0,64.0
11030,68.0,8.0,90.0,4.0,64.0
11031,65.0,0.0,90.0,4.0,64.0
11032,61.0,1.0,90.0,4.0,64.0
11033,83.0,52.0,60.0,1.0,64.0
11034,81.0,43.0,60.0,2.0,64.0
11035,68.0,16.0,90.0,4.0,64.0
11036,65.0,1.0,90.0,4.0,64.0
11037,61.0,0.0,90.0,4.0,64.0
11038,80.0,194.0,60.0,2.0,64.0
11039,81.0,4.0,210.0,2.0,64.0
11040,54.0,98.0,210.0,4.0,64.0
11041,66.0,0.0,210.0,4.0,64.0
11042,78.0,106.0,210.0,2.0,64.0
11043,64.0,97.0,210.0,4.0,64.0
11044,82.0,5.0,210.0,1.0,64.0
11045,52.0,1.0,210.0,4.0,64.0
11046,78.0,104.0,210.0,2.0,64.0
11047,83.0,4.0,210.0,1.0,64.0
11048,51.0,96.0,210.0,4.0,64.0
11049,63.0,0.0,210.0,4.0,64.0
11050,78.0,102.0,210.0,2.0,64.0
11051,84.0,1.0,210.0,1.0,64.0
11052,90.0,4.0,210.0,1.0,64.0
11053,50.0,201.0,210.0,4.0,64.0
11054,62.0,0.0,210.0,4.0,64.0
11055,78.0,1.0,90.0,2.0,64.0
11056,90.0,0.0,210.0,1.0,64.0
11057,85.0,10.0,390.0,1.0,64.0
11058,81.0,192.0,210.0,2.0,64.0
11059,49.0,100.0,930.0,4.0,64.0
11060,61.0,0.0,930.0,4.0,64.0
11061,80.0,116.0,180.0,2.0,64.0
11062,89.0,0.0,180.0,1.0,64.0
11063,73.0,106.0,120.0,2.0,64.0
11064,74.0,109.0,120.0,2.0,64.0
11065,73.0,106.0,120.0,2.0,64.0
11066,77.0,92.0,120.0,2.0,64.0
11067,78.0,100.0,360.0,2.0,64.0
11068,66.0,97.0,90.0,4.0,64.0
11069,61.0,0.0,90.0,4.0,64.0
11070,57.0,0.0,90.0,4.0,64.0
11071,66.0,0.0,90.0,4.0,64.0
11072,57.0,1.0,90.0,4.0,64.0
11073,61.0,57.0,90.0,4.0,64.0
11074,66.0,4.0,180.0,4.0,64.0
11075,61.0,0.0,180.0,4.0,64.0
11076,57.0,1.0,180.0,4.0,64.0
11077,80.0,43.0,60.0,2.0,64.0
11078,78.0,50.0,60.0,2.0,64.0
11079,80.0,39.0,60.0,2.0,64.0
11080,61.0,6.0,90.0,4.0,64.0
11081,66.0,0.0,90.0,4.0,64.0
11082,57.0,1.0,90.0,4.0,64.0
11083,78.0,47.0,60.0,2.0,64.0
11084,80.0,39.0,60.0,2.0,64.0
11085,66.0,8.0,90.0,4.0,64.0
11086,61.0,0.0,90.0,4.0,64.0
11087,57.0,1.0,90.0,4.0,64.0
11088,78.0,48.0,60.0,2.0,64.0
11089,77.0,47.0,60.0,2.0,64.0
11090,61.0,0.0,180.0,4.0,64.0
11091,66.0,95.0,180.0,4.0,64.0
11092,57.0,1.0,180.0,4.0,64.0
11093,78.0,95.0,60.0,2.0,64.0
11094,79.0,99.0,360.0,2.0,64.0
11095,64.0,99.0,90.0,4.0,64.0
11096,61.0,1.0,90.0,4.0,64.0
11097,57.0,0.0,90.0,4.0,64.0
11098,61.0,0.0,90.0,4.0,64.0
11099,64.0,56.0,90.0,4.0,64.0
11100,57.0,1.0,90.0,4.0,64.0
11101,61.0,0.0,180.0,4.0,64.0
11102,64.0,4.0,180.0,4.0,64.0
11103,57.0,1.0,180.0,4.0,64.0
11104,80.0,43.0,60.0,2.0,64.0
11105,79.0,48.0,60.0,2.0,64.0
11106,80.0,41.0,60.0,2.0,64.0
11107,64.0,6.0,90.0,4.0,64.0
11108,61.0,1.0,90.0,4.0,64.0
11109,57.0,0.0,90.0,4.0,64.0
11110,79.0,47.0,60.0,2.0,64.0
11111,80.0,40.0,60.0,2.0,64.0
11112,64.0,5.0,90.0,4.0,64.0
11113,61.0,1.0,90.0,4.0,64.0
11114,57.0,0.0,90.0,4.0,64.0
11115,79.0,47.0,60.0,2.0,64.0
11116,77.0,39.0,60.0,2.0,64.0
11117,64.0,8.0,90.0,4.0,64.0
11118,61.0,1.0,90.0,4.0,64.0
11119,57.0,0.0,90.0,4.0,64.0
11120,79.0,346.0,60.0,2.0,64.0
11121,64.0,0.0,390.0,4.0,64.0
11122,80.0,42.0,360.0,2.0,64.0
11123,56.0,8.0,390.0,4.0,64.0
11124,61.0,215.0,390.0,4.0,64.0
11125,73.0,132.0,420.0,2.0,64.0
11126,63.0,370.0,390.0,4.0,64.0
11127,66.0,0.0,390.0,4.0,64.0
11128,56.0,1.0,390.0,4.0,64.0
11129,75.0,53.0,150.0,2.0,64.0
11130,72.0,0.0,60.0,2.0,64.0
11131,61.0,0.0,900.0,4.0,64.0
11132,73.0,133.0,360.0,2.0,64.0
11133,64.0,99.0,900.0,4.0,64.0
11134,73.0,105.0,120.0,2.0,64.0
11135,74.0,105.0,120.0,2.0,64.0
11136,73.0,105.0,120.0,2.0,64.0
11137,77.0,91.0,120.0,2.0,64.0
11138,78.0,101.0,360.0,2.0,64.0
11139,73.0,99.0,90.0,2.0,64.0
11140,69.0,1.0,90.0,4.0,64.0
11141,66.0,0.0,90.0,4.0,64.0
11142,73.0,0.0,90.0,2.0,64.0
11143,66.0,1.0,90.0,4.0,64.0
11144,69.0,56.0,90.0,4.0,64.0
11145,73.0,0.0,210.0,2.0,64.0
11146,66.0,1.0,210.0,4.0,64.0
11147,69.0,4.0,210.0,4.0,64.0
11148,86.0,45.0,60.0,1.0,64.0
11149,85.0,50.0,60.0,1.0,64.0
11150,86.0,41.0,60.0,1.0,64.0
11151,73.0,6.0,90.0,2.0,64.0
11152,69.0,0.0,90.0,4.0,64.0
11153,66.0,1.0,90.0,4.0,64.0
11154,85.0,50.0,60.0,1.0,64.0
11155,86.0,40.0,60.0,1.0,64.0
11156,73.0,7.0,90.0,2.0,64.0
11157,69.0,1.0,90.0,4.0,64.0
11158,66.0,0.0,90.0,4.0,64.0
11159,85.0,52.0,60.0,1.0,64.0
11160,83.0,58.0,60.0,1.0,64.0
11161,73.0,95.0,210.0,2.0,64.0
11162,69.0,1.0,210.0,4.0,64.0
11163,66.0,0.0,180.0,4.0,64.0
11164,81.0,87.0,60.0,2.0,64.0
11165,80.0,105.0,360.0,2.0,64.0
11166,62.0,99.0,90.0,4.0,64.0
11167,68.0,0.0,90.0,4.0,64.0
11168,59.0,1.0,90.0,4.0,64.0
11169,68.0,57.0,90.0,4.0,64.0
11170,62.0,1.0,90.0,4.0,64.0
11171,59.0,0.0,90.0,4.0,64.0
11172,62.0,4.0,210.0,4.0,64.0
11173,68.0,0.0,210.0,4.0,64.0
11174,59.0,1.0,210.0,4.0,64.0
11175,85.0,45.0,60.0,1.0,64.0
11176,83.0,48.0,60.0,1.0,64.0
11177,85.0,43.0,60.0,1.0,64.0
11178,68.0,8.0,90.0,4.0,64.0
11179,65.0,0.0,90.0,4.0,64.0
11180,61.0,1.0,90.0,4.0,64.0
11181,83.0,50.0,60.0,1.0,64.0
11182,85.0,39.0,60.0,1.0,64.0
11183,61.0,1.0,90.0,4.0,64.0
11184,65.0,8.0,90.0,4.0,64.0
11185,68.0,0.0,90.0,4.0,64.0
11186,83.0,50.0,60.0,1.0,64.0
11187,81.0,41.0,60.0,2.0,64.0
11188,68.0,16.0,90.0,4.0,64.0
11189,65.0,1.0,90.0,4.0,64.0
11190,61.0,0.0,90.0,4.0,64.0
11191,80.0,187.0,60.0,2.0,64.0
11192,66.0,92.0,210.0,4.0,64.0
11193,81.0,8.0,180.0,2.0,64.0
11194,54.0,1.0,210.0,4.0,64.0
11195,78.0,106.0,210.0,2.0,64.0
11196,82.0,7.0,210.0,1.0,64.0
11197,52.0,93.0,210.0,4.0,64.0
11198,64.0,0.0,210.0,4.0,64.0
11199,78.0,105.0,210.0,2.0,64.0
11200,63.0,0.0,210.0,4.0,64.0
11201,83.0,8.0,210.0,1.0,64.0
11202,51.0,95.0,210.0,4.0,64.0
11203,78.0,106.0,210.0,2.0,64.0
11204,90.0,0.0,210.0,1.0,64.0
11205,62.0,190.0,210.0,4.0,64.0
11206,84.0,8.0,210.0,1.0,64.0
11207,50.0,1.0,210.0,4.0,64.0
11208,78.0,5.0,120.0,2.0,64.0
11209,85.0,102.0,300.0,1.0,64.0
11210,90.0,114.0,210.0,1.0,64.0
11211,61.0,4.0,420.0,4.0,64.0
11212,81.0,1.0,180.0,2.0,64.0
11213,49.0,111.0,420.0,4.0,64.0
11214,89.0,6.0,210.0,1.0,64.0
11215,80.0,1.0,210.0,2.0,64.0
11216,73.0,103.0,120.0,2.0,64.0
11217,74.0,108.0,90.0,2.0,64.0
11218,73.0,103.0,120.0,2.0,64.0
11219,77.0,190.0,90.0,2.0,64.0
11220,78.0,107.0,360.0,2.0,64.0
11221,66.0,99.0,90.0,4.0,64.0
11222,61.0,0.0,90.0,4.0,64.0
11223,57.0,1.0,90.0,4.0,64.0
11224,66.0,57.0,90.0,4.0,64.0
11225,61.0,0.0,90.0,4.0,64.0
11226,57.0,1.0,90.0,4.0,64.0
11227,66.0,4.0,210.0,4.0,64.0
11228,61.0,1.0,210.0,4.0,64.0
11229,57.0,0.0,210.0,4.0,64.0
11230,80.0,46.0,60.0,2.0,64.0
11231,78.0,54.0,60.0,2.0,64.0
11232,66.0,0.0,90.0,4.0,64.0
11233,80.0,43.0,60.0,2.0,64.0
11234,57.0,1.0,90.0,4.0,64.0
11235,61.0,8.0,90.0,4.0,64.0
11236,78.0,50.0,60.0,2.0,64.0
11237,80.0,39.0,60.0,2.0,64.0
11238,66.0,8.0,90.0,4.0,64.0
11239,61.0,0.0,90.0,4.0,64.0
11240,57.0,1.0,90.0,4.0,64.0
11241,78.0,48.0,60.0,2.0,64.0
11242,77.0,49.0,60.0,2.0,64.0
11243,61.0,0.0,180.0,4.0,64.0
11244,66.0,94.0,180.0,4.0,64.0
11245,57.0,1.0,180.0,4.0,64.0
11246,78.0,95.0,60.0,2.0,64.0
11247,79.0,105.0,360.0,2.0,64.0
11248,64.0,98.0,90.0,4.0,64.0
11249,61.0,1.0,90.0,4.0,64.0
11250,57.0,0.0,90.0,4.0,64.0
11251,57.0,1.0,90.0,4.0,64.0
11252,61.0,0.0,90.0,4.0,64.0
11253,64.0,58.0,90.0,4.0,64.0
11254,64.0,0.0,210.0,4.0,64.0
11255,57.0,1.0,210.0,4.0,64.0
11256,61.0,4.0,210.0,4.0,64.0
11257,80.0,45.0,60.0,2.0,64.0
11258,79.0,54.0,60.0,2.0,64.0
11259,80.0,41.0,60.0,2.0,64.0
11260,64.0,8.0,90.0,4.0,64.0
11261,61.0,1.0,90.0,4.0,64.0
11262,57.0,0.0,90.0,4.0,64.0
11263,79.0,51.0,60.0,2.0,64.0
11264,64.0,0.0,90.0,4.0,64.0
11265,80.0,38.0,60.0,2.0,64.0
11266,57.0,1.0,90.0,4.0,64.0
11267,61.0,6.0,90.0,4.0,64.0
11268,79.0,46.0,30.0,2.0,64.0
11269,77.0,39.0,60.0,2.0,64.0
11270,64.0,6.0,90.0,4.0,64.0
11271,61.0,1.0,90.0,4.0,64.0
11272,57.0,0.0,90.0,4.0,64.0
11273,79.0,198.0,60.0,2.0,64.0
11274,80.0,190.0,210.0,2.0,64.0
11275,61.0,149.0,390.0,4.0,64.0
11276,64.0,0.0,390.0,4.0,64.0
11277,56.0,9.0,390.0,4.0,64.0
11278,73.0,198.0,360.0,2.0,64.0
11279,63.0,0.0,390.0,4.0,64.0
11280,66.0,511.0,390.0,4.0,64.0
11281,56.0,1.0,390.0,4.0,64.0
11282,75.0,54.0,150.0,2.0,64.0
11283,72.0,1.0,60.0,2.0,64.0
11284,73.0,0.0,780.0,2.0,64.0
11285,61.0,1.0,780.0,4.0,64.0
11286,64.0,16.0,780.0,4.0,64.0
11287,85.0,102.0,120.0,1.0,64.0
11288,84.0,98.0,120.0,1.0,64.0
11289,85.0,79.0,120.0,1.0,64.0
11290,87.0,97.0,120.0,1.0,64.0
11291,88.0,81.0,120.0,1.0,64.0
11292,73.0,19.0,180.0,2.0,64.0
11293,70.0,0.0,180.0,4.0,64.0
11294,79.0,102.0,120.0,2.0,64.0
11295,78.0,73.0,120.0,2.0,64.0
11296,71.0,17.0,180.0,2.0,64.0
11297,75.0,0.0,180.0,2.0,64.0
11298,87.0,100.0,90.0,1.0,64.0
11299,86.0,79.0,120.0,1.0,64.0
11300,68.0,1.0,180.0,4.0,64.0
11301,71.0,19.0,180.0,2.0,64.0
11302,77.0,94.0,120.0,2.0,64.0
11303,78.0,82.0,120.0,2.0,64.0
11304,69.0,1.0,180.0,4.0,64.0
11305,73.0,20.0,180.0,2.0,64.0
11306,85.0,173.0,120.0,1.0,64.0
11307,83.0,0.0,210.0,1.0,64.0
11308,62.0,127.0,270.0,4.0,64.0
11309,78.0,68.0,210.0,2.0,64.0
11310,50.0,15.0,90.0,4.0,64.0
11311,76.0,1.0,210.0,2.0,64.0
11312,81.0,68.0,210.0,2.0,64.0
11313,49.0,119.0,270.0,4.0,64.0
11314,61.0,3.0,90.0,4.0,64.0
11315,79.0,70.0,180.0,2.0,64.0
11316,59.0,121.0,270.0,4.0,64.0
11317,74.0,1.0,180.0,2.0,64.0
11318,47.0,3.0,90.0,4.0,64.0
11319,73.0,4.0,180.0,2.0,64.0
11320,78.0,0.0,180.0,2.0,64.0
11321,45.0,91.0,210.0,4.0,64.0
11322,57.0,0.0,90.0,4.0,64.0
11323,71.0,0.0,390.0,2.0,64.0
11324,77.0,95.0,90.0,2.0,64.0
11325,56.0,93.0,390.0,4.0,64.0
11326,78.0,97.0,90.0,2.0,64.0
11327,80.0,85.0,90.0,2.0,64.0
11328,78.0,10.0,90.0,2.0,64.0
11329,78.0,93.0,90.0,2.0,64.0
11330,57.0,1.0,390.0,4.0,64.0
11331,73.0,357.0,390.0,2.0,64.0
11332,80.0,101.0,90.0,2.0,64.0
11333,81.0,89.0,90.0,2.0,64.0
11334,80.0,8.0,90.0,2.0,64.0
11335,77.0,1.0,360.0,2.0,64.0
11336,80.0,2.0,360.0,2.0,64.0
11337,61.0,147.0,360.0,4.0,64.0
11338,44.0,95.0,90.0,4.0,64.0
11339,45.0,99.0,90.0,4.0,64.0
11340,44.0,99.0,90.0,4.0,64.0
11341,48.0,346.0,90.0,4.0,64.0
11342,49.0,159.0,360.0,4.0,64.0
11343,73.0,104.0,120.0,2.0,64.0
11344,74.0,105.0,90.0,2.0,64.0
11345,73.0,99.0,90.0,2.0,64.0
11346,77.0,196.0,90.0,2.0,64.0
11347,78.0,114.0,360.0,2.0,64.0
11348,61.0,98.0,90.0,4.0,64.0
11349,66.0,2.0,90.0,4.0,64.0
11350,57.0,1.0,90.0,4.0,64.0
11351,66.0,1.0,90.0,4.0,64.0
11352,61.0,49.0,90.0,4.0,64.0
11353,57.0,0.0,90.0,4.0,64.0
11354,61.0,2.0,210.0,4.0,64.0
11355,66.0,0.0,210.0,4.0,64.0
11356,57.0,1.0,210.0,4.0,64.0
11357,81.0,50.0,60.0,2.0,64.0
11358,80.0,50.0,60.0,2.0,64.0
11359,81.0,46.0,60.0,2.0,64.0
11360,62.0,0.0,90.0,4.0,64.0
11361,66.0,0.0,90.0,4.0,64.0
11362,59.0,1.0,90.0,4.0,64.0
11363,80.0,57.0,60.0,2.0,64.0
11364,81.0,43.0,60.0,2.0,64.0
11365,66.0,1.0,90.0,4.0,64.0
11366,62.0,4.0,90.0,4.0,64.0
11367,59.0,0.0,90.0,4.0,64.0
11368,80.0,51.0,60.0,2.0,64.0
11369,78.0,46.0,60.0,2.0,64.0
11370,66.0,0.0,180.0,4.0,64.0
11371,59.0,1.0,180.0,4.0,64.0
11372,62.0,98.0,180.0,4.0,64.0
11373,80.0,91.0,60.0,2.0,64.0
11374,82.0,112.0,360.0,1.0,64.0
11375,66.0,97.0,90.0,4.0,64.0
11376,64.0,0.0,90.0,4.0,64.0
11377,61.0,0.0,90.0,4.0,64.0
11378,66.0,2.0,90.0,4.0,64.0
11379,64.0,50.0,90.0,4.0,64.0
11380,61.0,1.0,90.0,4.0,64.0
11381,66.0,1.0,210.0,4.0,64.0
11382,61.0,46.0,210.0,4.0,64.0
11383,64.0,0.0,210.0,4.0,64.0
11384,85.0,46.0,60.0,1.0,64.0
11385,83.0,5.0,60.0,1.0,64.0
11386,85.0,50.0,60.0,1.0,64.0
11387,66.0,58.0,90.0,4.0,64.0
11388,63.0,0.0,90.0,4.0,64.0
11389,83.0,1.0,60.0,1.0,64.0
11390,85.0,40.0,60.0,1.0,64.0
11391,66.0,15.0,90.0,4.0,64.0
11392,63.0,1.0,90.0,4.0,64.0
11393,83.0,30.0,60.0,1.0,64.0
11394,82.0,45.0,30.0,1.0,64.0
11395,63.0,4.0,90.0,4.0,64.0
11396,66.0,0.0,90.0,4.0,64.0
11397,83.0,191.0,60.0,1.0,64.0
11398,84.0,0.0,180.0,1.0,64.0
11399,62.0,1.0,180.0,4.0,64.0
11400,66.0,332.0,180.0,4.0,64.0
11401,66.0,1.0,390.0,4.0,64.0
11402,69.0,151.0,390.0,4.0,64.0
11403,85.0,43.0,330.0,1.0,64.0
11404,61.0,9.0,360.0,4.0,64.0
11405,80.0,0.0,150.0,2.0,64.0
11406,61.0,1.0,150.0,4.0,64.0
11407,71.0,60.0,150.0,2.0,64.0
11408,77.0,514.0,60.0,2.0,64.0
11409,68.0,1.0,60.0,4.0,64.0
11410,78.0,18.0,810.0,2.0,64.0
11411,66.0,1.0,810.0,4.0,64.0
11412,69.0,0.0,810.0,4.0,64.0
11413,85.0,107.0,120.0,1.0,64.0
11414,84.0,98.0,120.0,1.0,64.0
11415,85.0,81.0,120.0,1.0,64.0
11416,87.0,98.0,120.0,1.0,64.0
11417,88.0,78.0,120.0,1.0,64.0
11418,70.0,1.0,180.0,4.0,64.0
11419,73.0,19.0,180.0,2.0,64.0
11420,79.0,100.0,120.0,2.0,64.0
11421,78.0,77.0,120.0,2.0,64.0
11422,71.0,1.0,180.0,2.0,64.0
11423,75.0,17.0,180.0,2.0,64.0
11424,87.0,96.0,120.0,1.0,64.0
11425,71.0,5.0,210.0,2.0,64.0
11426,86.0,91.0,120.0,1.0,64.0
11427,68.0,95.0,180.0,4.0,64.0
11428,77.0,1.0,120.0,2.0,64.0
11429,78.0,90.0,120.0,2.0,64.0
11430,69.0,7.0,180.0,4.0,64.0
11431,73.0,0.0,180.0,2.0,64.0
11432,85.0,168.0,120.0,1.0,64.0
11433,83.0,72.0,180.0,1.0,64.0
11434,62.0,124.0,270.0,4.0,64.0
11435,78.0,1.0,180.0,2.0,64.0
11436,50.0,18.0,90.0,4.0,64.0
11437,76.0,1.0,210.0,2.0,64.0
11438,81.0,71.0,210.0,2.0,64.0
11439,49.0,119.0,270.0,4.0,64.0
11440,61.0,0.0,90.0,4.0,64.0
11441,79.0,0.0,180.0,2.0,64.0
11442,59.0,117.0,270.0,4.0,64.0
11443,74.0,73.0,180.0,2.0,64.0
11444,47.0,1.0,90.0,4.0,64.0
11445,78.0,75.0,180.0,2.0,64.0
11446,45.0,17.0,270.0,4.0,64.0
11447,73.0,0.0,180.0,2.0,64.0
11448,57.0,1.0,90.0,4.0,64.0
11449,77.0,97.0,90.0,2.0,64.0
11450,71.0,7.0,390.0,2.0,64.0
11451,56.0,86.0,390.0,4.0,64.0
11452,78.0,93.0,90.0,2.0,64.0
11453,80.0,86.0,90.0,2.0,64.0
11454,78.0,7.0,90.0,2.0,64.0
11455,73.0,6.0,360.0,2.0,64.0
11456,78.0,103.0,90.0,2.0,64.0
11457,57.0,332.0,360.0,4.0,64.0
11458,80.0,85.0,90.0,2.0,64.0
11459,81.0,77.0,90.0,2.0,64.0
11460,80.0,15.0,60.0,2.0,64.0
11461,80.0,17.0,330.0,2.0,64.0
11462,61.0,2.0,360.0,4.0,64.0
11463,77.0,154.0,360.0,2.0,64.0
11464,44.0,102.0,120.0,4.0,64.0
11465,45.0,100.0,90.0,4.0,64.0
11466,44.0,98.0,90.0,4.0,64.0
11467,48.0,347.0,90.0,4.0,64.0
11468,49.0,149.0,360.0,4.0,64.0
11469,73.0,102.0,90.0,2.0,64.0
11470,74.0,104.0,90.0,2.0,64.0
11471,73.0,103.0,90.0,2.0,64.0
11472,77.0,191.0,90.0,2.0,64.0
11473,78.0,115.0,360.0,2.0,64.0
11474,66.0,1.0,90.0,4.0,64.0
11475,61.0,97.0,90.0,4.0,64.0
11476,57.0,0.0,90.0,4.0,64.0
11477,66.0,2.0,90.0,4.0,64.0
11478,61.0,57.0,90.0,4.0,64.0
11479,57.0,0.0,90.0,4.0,64.0
11480,61.0,0.0,210.0,4.0,64.0
11481,66.0,2.0,210.0,4.0,64.0
11482,57.0,46.0,210.0,4.0,64.0
11483,81.0,51.0,60.0,2.0,64.0
11484,80.0,0.0,60.0,2.0,64.0
11485,81.0,37.0,60.0,2.0,64.0
11486,66.0,1.0,90.0,4.0,64.0
11487,62.0,7.0,90.0,4.0,64.0
11488,59.0,0.0,90.0,4.0,64.0
11489,80.0,48.0,60.0,2.0,64.0
11490,81.0,37.0,60.0,2.0,64.0
11491,62.0,0.0,90.0,4.0,64.0
11492,66.0,1.0,90.0,4.0,64.0
11493,59.0,7.0,90.0,4.0,64.0
11494,80.0,54.0,60.0,2.0,64.0
11495,78.0,46.0,60.0,2.0,64.0
11496,66.0,1.0,180.0,4.0,64.0
11497,62.0,95.0,180.0,4.0,64.0
11498,59.0,0.0,180.0,4.0,64.0
11499,80.0,86.0,60.0,2.0,64.0
11500,82.0,126.0,360.0,1.0,64.0
11501,64.0,0.0,90.0,4.0,64.0
11502,66.0,1.0,90.0,4.0,64.0
11503,61.0,99.0,90.0,4.0,64.0
11504,66.0,1.0,90.0,4.0,64.0
11505,64.0,57.0,90.0,4.0,64.0
11506,61.0,0.0,90.0,4.0,64.0
11507,66.0,1.0,210.0,4.0,64.0
11508,61.0,4.0,210.0,4.0,64.0
11509,64.0,0.0,210.0,4.0,64.0
11510,85.0,45.0,60.0,1.0,64.0
11511,83.0,52.0,60.0,1.0,64.0
11512,66.0,2.0,90.0,4.0,64.0
11513,85.0,43.0,60.0,1.0,64.0
11514,63.0,6.0,90.0,4.0,64.0
11515,83.0,50.0,60.0,1.0,64.0
11516,85.0,39.0,60.0,1.0,64.0
11517,66.0,1.0,90.0,4.0,64.0
11518,63.0,6.0,90.0,4.0,64.0
11519,83.0,48.0,60.0,1.0,64.0
11520,82.0,43.0,60.0,1.0,64.0
11521,66.0,1.0,90.0,4.0,64.0
11522,63.0,8.0,90.0,4.0,64.0
11523,83.0,181.0,60.0,1.0,64.0
11524,84.0,9.0,180.0,1.0,64.0
11525,62.0,393.0,180.0,4.0,64.0
11526,66.0,0.0,180.0,4.0,64.0
11527,85.0,0.0,390.0,1.0,64.0
11528,66.0,1.0,390.0,4.0,64.0
11529,69.0,144.0,390.0,4.0,64.0
11530,61.0,16.0,390.0,4.0,64.0
11531,71.0,1.0,150.0,2.0,64.0
11532,80.0,0.0,150.0,2.0,64.0
11533,61.0,65.0,150.0,4.0,64.0
11534,77.0,528.0,60.0,2.0,64.0
11535,68.0,0.0,60.0,4.0,64.0
11536,78.0,0.0,540.0,2.0,64.0
11537,66.0,297.0,540.0,4.0,64.0
11538,69.0,0.0,540.0,4.0,64.0
11539,85.0,92.0,180.0,1.0,64.0
11540,73.0,1.0,180.0,2.0,64.0
11541,73.0,1.0,90.0,2.0,64.0
11542,85.0,93.0,90.0,1.0,64.0
11543,85.0,197.0,90.0,1.0,64.0
11544,73.0,1.0,90.0,2.0,64.0
11545,78.0,153.0,330.0,2.0,64.0
11546,90.0,0.0,330.0,1.0,64.0
11547,70.0,87.0,90.0,4.0,64.0
11548,66.0,1.0,90.0,4.0,64.0
11549,71.0,66.0,90.0,2.0,64.0
11550,68.0,1.0,90.0,4.0,64.0
11551,70.0,1.0,240.0,4.0,64.0
11552,73.0,39.0,240.0,2.0,64.0
11553,90.0,88.0,180.0,1.0,64.0
11554,78.0,0.0,180.0,2.0,64.0
11555,90.0,0.0,90.0,1.0,64.0
11556,78.0,85.0,90.0,2.0,64.0
11557,90.0,195.0,90.0,1.0,64.0
11558,78.0,1.0,90.0,2.0,64.0
11559,71.0,61.0,330.0,2.0,64.0
11560,83.0,0.0,330.0,1.0,64.0
11561,61.0,1.0,90.0,4.0,64.0
11562,65.0,89.0,90.0,4.0,64.0
11563,66.0,57.0,90.0,4.0,64.0
11564,63.0,1.0,90.0,4.0,64.0
11565,68.0,0.0,120.0,4.0,64.0
11566,65.0,141.0,120.0,4.0,64.0
11567,83.0,86.0,180.0,1.0,64.0
11568,71.0,0.0,180.0,2.0,64.0
11569,71.0,1.0,90.0,2.0,64.0
11570,83.0,84.0,90.0,1.0,64.0
11571,83.0,104.0,90.0,1.0,64.0
11572,71.0,0.0,90.0,2.0,64.0
11573,82.0,84.0,90.0,1.0,64.0
11574,70.0,0.0,90.0,4.0,64.0
11575,54.0,1.0,330.0,4.0,64.0
11576,66.0,10.0,330.0,4.0,64.0
11577,83.0,86.0,90.0,1.0,64.0
11578,71.0,1.0,90.0,2.0,64.0
11579,84.0,77.0,90.0,1.0,64.0
11580,72.0,0.0,90.0,2.0,64.0
11581,73.0,86.0,90.0,2.0,64.0
11582,85.0,0.0,90.0,1.0,64.0
11583,86.0,88.0,90.0,1.0,64.0
11584,59.0,0.0,360.0,4.0,64.0
11585,74.0,1.0,90.0,2.0,64.0
11586,47.0,8.0,360.0,4.0,64.0
11587,87.0,86.0,90.0,1.0,64.0
11588,75.0,0.0,90.0,2.0,64.0
11589,89.0,0.0,90.0,1.0,64.0
11590,77.0,72.0,90.0,2.0,64.0
11591,90.0,164.0,90.0,1.0,64.0
11592,78.0,6.0,90.0,2.0,64.0
11593,78.0,161.0,180.0,2.0,64.0
11594,82.0,9.0,180.0,1.0,64.0
11595,49.0,1.0,330.0,4.0,64.0
11596,61.0,59.0,330.0,4.0,64.0
11597,77.0,132.0,210.0,2.0,64.0
11598,80.0,0.0,210.0,2.0,64.0
11599,49.0,1.0,180.0,4.0,64.0
11600,61.0,93.0,180.0,4.0,64.0
11601,61.0,0.0,90.0,4.0,64.0
11602,49.0,90.0,90.0,4.0,64.0
11603,61.0,196.0,90.0,4.0,64.0
11604,49.0,0.0,90.0,4.0,64.0
11605,54.0,1.0,330.0,4.0,64.0
11606,66.0,51.0,330.0,4.0,64.0
11607,78.0,88.0,90.0,2.0,64.0
11608,82.0,0.0,90.0,1.0,64.0
11609,83.0,66.0,90.0,1.0,64.0
11610,80.0,0.0,90.0,2.0,64.0
11611,82.0,1.0,120.0,1.0,64.0
11612,85.0,139.0,120.0,1.0,64.0
11613,54.0,91.0,180.0,4.0,64.0
11614,66.0,0.0,180.0,4.0,64.0
11615,54.0,1.0,90.0,4.0,64.0
11616,66.0,90.0,90.0,4.0,64.0
11617,66.0,192.0,90.0,4.0,64.0
11618,54.0,0.0,90.0,4.0,64.0
11619,44.0,84.0,450.0,4.0,64.0
11620,56.0,0.0,450.0,4.0,64.0
11621,84.0,1.0,90.0,1.0,64.0
11622,87.0,87.0,90.0,1.0,64.0
11623,89.0,115.0,90.0,1.0,64.0
11624,85.0,1.0,90.0,1.0,64.0
11625,87.0,51.0,120.0,1.0,64.0
11626,90.0,0.0,120.0,1.0,64.0
11627,80.0,15.0,180.0,2.0,64.0
11628,68.0,1.0,180.0,4.0,64.0
11629,63.0,73.0,90.0,4.0,64.0
11630,60.0,1.0,90.0,4.0,64.0
11631,68.0,1.0,90.0,4.0,64.0
11632,80.0,14.0,90.0,2.0,64.0
11633,61.0,74.0,90.0,4.0,64.0
11634,65.0,0.0,90.0,4.0,64.0
11635,80.0,43.0,90.0,2.0,64.0
11636,68.0,134.0,120.0,4.0,64.0
11637,66.0,1.0,120.0,4.0,64.0
11638,63.0,0.0,120.0,4.0,64.0
11639,92.0,83.0,180.0,1.0,64.0
11640,80.0,1.0,180.0,2.0,64.0
11641,61.0,80.0,180.0,4.0,64.0
11642,65.0,0.0,180.0,4.0,64.0
11643,90.0,87.0,180.0,1.0,64.0
11644,78.0,1.0,180.0,2.0,64.0
11645,54.0,84.0,180.0,4.0,64.0
11646,63.0,0.0,180.0,4.0,64.0
11647,89.0,77.0,180.0,1.0,64.0
11648,77.0,1.0,180.0,2.0,64.0
11649,61.0,87.0,180.0,4.0,64.0
11650,56.0,9.0,180.0,4.0,64.0
11651,87.0,0.0,180.0,1.0,64.0
11652,75.0,80.0,180.0,2.0,64.0
11653,56.0,11.0,180.0,4.0,64.0
11654,60.0,181.0,180.0,4.0,64.0
11655,85.0,212.0,330.0,1.0,64.0
11656,73.0,1.0,330.0,2.0,64.0
11657,61.0,55.0,180.0,4.0,64.0
11658,49.0,53.0,2040.0,4.0,64.0
11659,85.0,86.0,180.0,1.0,64.0
11660,73.0,1.0,180.0,2.0,64.0
11661,85.0,87.0,90.0,1.0,64.0
11662,73.0,0.0,90.0,2.0,64.0
11663,73.0,196.0,90.0,2.0,64.0
11664,85.0,0.0,90.0,1.0,64.0
11665,78.0,1.0,330.0,2.0,64.0
11666,90.0,161.0,330.0,1.0,64.0
11667,70.0,0.0,90.0,4.0,64.0
11668,66.0,89.0,90.0,4.0,64.0
11669,71.0,56.0,90.0,2.0,64.0
11670,68.0,1.0,90.0,4.0,64.0
11671,73.0,0.0,240.0,2.0,64.0
11672,70.0,43.0,240.0,4.0,64.0
11673,90.0,0.0,180.0,1.0,64.0
11674,78.0,90.0,180.0,2.0,64.0
11675,90.0,87.0,90.0,1.0,64.0
11676,78.0,1.0,90.0,2.0,64.0
11677,78.0,1.0,90.0,2.0,64.0
11678,90.0,194.0,90.0,1.0,64.0
11679,83.0,0.0,360.0,1.0,64.0
11680,71.0,55.0,330.0,2.0,64.0
11681,65.0,90.0,90.0,4.0,64.0
11682,61.0,1.0,90.0,4.0,64.0
11683,66.0,66.0,90.0,4.0,64.0
11684,63.0,0.0,90.0,4.0,64.0
11685,68.0,141.0,120.0,4.0,64.0
11686,65.0,1.0,120.0,4.0,64.0
11687,83.0,0.0,180.0,1.0,64.0
11688,71.0,90.0,180.0,2.0,64.0
11689,83.0,88.0,90.0,1.0,64.0
11690,71.0,0.0,90.0,2.0,64.0
11691,71.0,1.0,90.0,2.0,64.0
11692,83.0,50.0,90.0,1.0,64.0
11693,82.0,84.0,90.0,1.0,64.0
11694,70.0,0.0,90.0,4.0,64.0
11695,54.0,1.0,330.0,4.0,64.0
11696,66.0,8.0,330.0,4.0,64.0
11697,83.0,86.0,90.0,1.0,64.0
11698,71.0,1.0,90.0,2.0,64.0
11699,84.0,77.0,90.0,1.0,64.0
11700,72.0,0.0,90.0,2.0,64.0
11701,85.0,86.0,90.0,1.0,64.0
11702,73.0,1.0,90.0,2.0,64.0
11703,86.0,0.0,90.0,1.0,64.0
11704,59.0,0.0,360.0,4.0,64.0
11705,74.0,86.0,90.0,2.0,64.0
11706,47.0,14.0,360.0,4.0,64.0
11707,87.0,88.0,90.0,1.0,64.0
11708,75.0,0.0,90.0,2.0,64.0
11709,89.0,69.0,90.0,1.0,64.0
11710,77.0,1.0,90.0,2.0,64.0
11711,78.0,8.0,90.0,2.0,64.0
11712,90.0,166.0,90.0,1.0,64.0
11713,82.0,170.0,180.0,1.0,64.0
11714,78.0,1.0,180.0,2.0,64.0
11715,49.0,9.0,360.0,4.0,64.0
11716,61.0,0.0,360.0,4.0,64.0
11717,77.0,176.0,180.0,2.0,64.0
11718,80.0,0.0,180.0,2.0,64.0
11719,49.0,1.0,180.0,4.0,64.0
11720,61.0,88.0,180.0,4.0,64.0
11721,61.0,89.0,90.0,4.0,64.0
11722,49.0,0.0,90.0,4.0,64.0
11723,61.0,0.0,90.0,4.0,64.0
11724,49.0,198.0,90.0,4.0,64.0
11725,66.0,82.0,300.0,4.0,64.0
11726,54.0,1.0,300.0,4.0,64.0
11727,82.0,88.0,90.0,1.0,64.0
11728,78.0,0.0,90.0,2.0,64.0
11729,80.0,35.0,90.0,2.0,64.0
11730,83.0,0.0,90.0,1.0,64.0
11731,85.0,133.0,120.0,1.0,64.0
11732,82.0,0.0,120.0,1.0,64.0
11733,66.0,97.0,180.0,4.0,64.0
11734,54.0,1.0,180.0,4.0,64.0
11735,66.0,90.0,90.0,4.0,64.0
11736,54.0,1.0,90.0,4.0,64.0
11737,54.0,195.0,90.0,4.0,64.0
11738,66.0,0.0,90.0,4.0,64.0
11739,56.0,0.0,450.0,4.0,64.0
11740,44.0,88.0,450.0,4.0,64.0
11741,84.0,1.0,90.0,1.0,64.0
11742,87.0,88.0,90.0,1.0,64.0
11743,85.0,1.0,90.0,1.0,64.0
11744,89.0,116.0,90.0,1.0,64.0
11745,90.0,53.0,120.0,1.0,64.0
11746,87.0,0.0,120.0,1.0,64.0
11747,80.0,0.0,180.0,2.0,64.0
11748,68.0,16.0,180.0,4.0,64.0
11749,63.0,71.0,90.0,4.0,64.0
11750,60.0,1.0,90.0,4.0,64.0
11751,80.0,16.0,90.0,2.0,64.0
11752,68.0,1.0,90.0,4.0,64.0
11753,65.0,68.0,90.0,4.0,64.0
11754,61.0,0.0,90.0,4.0,64.0
11755,68.0,57.0,120.0,4.0,64.0
11756,80.0,43.0,90.0,2.0,64.0
11757,63.0,88.0,180.0,4.0,64.0
11758,66.0,0.0,180.0,4.0,64.0
11759,92.0,86.0,180.0,1.0,64.0
11760,80.0,0.0,180.0,2.0,64.0
11761,61.0,1.0,180.0,4.0,64.0
11762,65.0,82.0,180.0,4.0,64.0
11763,78.0,86.0,180.0,2.0,64.0
11764,90.0,0.0,180.0,1.0,64.0
11765,63.0,88.0,180.0,4.0,64.0
11766,54.0,1.0,180.0,4.0,64.0
11767,89.0,0.0,180.0,1.0,64.0
11768,77.0,75.0,180.0,2.0,64.0
11769,61.0,92.0,180.0,4.0,64.0
11770,56.0,11.0,180.0,4.0,64.0
11771,87.0,0.0,180.0,1.0,64.0
11772,75.0,85.0,180.0,2.0,64.0
11773,56.0,10.0,180.0,4.0,64.0
11774,60.0,182.0,180.0,4.0,64.0
11775,73.0,1.0,330.0,2.0,64.0
11776,85.0,216.0,330.0,1.0,64.0
11777,61.0,48.0,180.0,4.0,64.0
11778,49.0,4.0,1350.0,4.0,64.0
11779,73.0,1.0,180.0,2.0,64.0
11780,85.0,88.0,180.0,1.0,64.0
11781,85.0,86.0,90.0,1.0,64.0
11782,73.0,1.0,90.0,2.0,64.0
11783,85.0,0.0,90.0,1.0,64.0
11784,73.0,184.0,90.0,2.0,64.0
11785,88.0,87.0,180.0,1.0,64.0
11786,76.0,1.0,180.0,2.0,64.0
11787,67.0,1.0,180.0,4.0,64.0
11788,73.0,92.0,180.0,2.0,64.0
11789,87.0,0.0,180.0,1.0,64.0
11790,75.0,88.0,180.0,2.0,64.0
11791,72.0,0.0,180.0,2.0,64.0
11792,68.0,90.0,180.0,4.0,64.0
11793,74.0,1.0,180.0,2.0,64.0
11794,86.0,87.0,180.0,1.0,64.0
11795,71.0,92.0,180.0,2.0,64.0
11796,65.0,1.0,180.0,4.0,64.0
11797,73.0,87.0,180.0,2.0,64.0
11798,85.0,0.0,180.0,1.0,64.0
11799,66.0,1.0,180.0,4.0,64.0
11800,70.0,183.0,180.0,4.0,64.0
11801,89.0,7.0,90.0,1.0,64.0
11802,77.0,0.0,90.0,2.0,64.0
11803,90.0,59.0,240.0,1.0,64.0
11804,78.0,1.0,240.0,2.0,64.0
11805,50.0,58.0,90.0,4.0,64.0
11806,62.0,0.0,90.0,4.0,64.0
11807,63.0,47.0,120.0,4.0,64.0
11808,51.0,0.0,120.0,4.0,64.0
11809,86.0,194.0,90.0,1.0,64.0
11810,74.0,1.0,90.0,2.0,64.0
11811,75.0,32.0,240.0,2.0,64.0
11812,87.0,0.0,240.0,1.0,64.0
11813,58.0,57.0,90.0,4.0,64.0
11814,46.0,0.0,90.0,4.0,64.0
11815,47.0,7.0,90.0,4.0,64.0
11816,59.0,175.0,90.0,4.0,64.0
11817,83.0,179.0,180.0,1.0,64.0
11818,71.0,1.0,180.0,2.0,64.0
11819,65.0,0.0,180.0,4.0,64.0
11820,53.0,0.0,180.0,4.0,64.0
11821,82.0,0.0,180.0,1.0,64.0
11822,66.0,0.0,180.0,4.0,64.0
11823,70.0,180.0,180.0,4.0,64.0
11824,54.0,1.0,180.0,4.0,64.0
11825,68.0,178.0,180.0,4.0,64.0
11826,80.0,0.0,180.0,2.0,64.0
11827,53.0,1.0,180.0,4.0,64.0
11828,65.0,0.0,180.0,4.0,64.0
11829,78.0,0.0,180.0,2.0,64.0
11830,63.0,250.0,180.0,4.0,64.0
11831,66.0,8.0,180.0,4.0,64.0
11832,51.0,1.0,180.0,4.0,64.0
11833,82.0,6.0,270.0,1.0,64.0
11834,70.0,92.0,270.0,4.0,64.0
11835,61.0,3.0,690.0,4.0,64.0
11836,66.0,0.0,690.0,4.0,64.0
11837,83.0,5.0,90.0,1.0,64.0
11838,71.0,81.0,90.0,2.0,64.0
11839,84.0,6.0,90.0,1.0,64.0
11840,72.0,80.0,90.0,2.0,64.0
11841,85.0,6.0,90.0,1.0,64.0
11842,73.0,78.0,90.0,2.0,64.0
11843,84.0,6.0,90.0,1.0,64.0
11844,72.0,79.0,90.0,2.0,64.0
11845,85.0,6.0,90.0,1.0,64.0
11846,73.0,297.0,90.0,2.0,64.0
11847,80.0,7.0,300.0,2.0,64.0
11848,65.0,1.0,300.0,4.0,64.0
11849,68.0,218.0,300.0,4.0,64.0
11850,37.0,1.0,180.0,4.0,64.0
11851,49.0,88.0,180.0,4.0,64.0
11852,49.0,90.0,90.0,4.0,64.0
11853,37.0,0.0,90.0,4.0,64.0
11854,49.0,0.0,90.0,4.0,64.0
11855,37.0,196.0,90.0,4.0,64.0
11856,42.0,75.0,330.0,4.0,64.0
11857,54.0,0.0,330.0,4.0,64.0
11858,82.0,88.0,90.0,1.0,64.0
11859,78.0,0.0,90.0,2.0,64.0
11860,80.0,44.0,90.0,2.0,64.0
11861,83.0,0.0,90.0,1.0,64.0
11862,85.0,139.0,120.0,1.0,64.0
11863,82.0,0.0,120.0,1.0,64.0
11864,54.0,90.0,180.0,4.0,64.0
11865,66.0,0.0,180.0,4.0,64.0
11866,66.0,88.0,90.0,4.0,64.0
11867,54.0,0.0,90.0,4.0,64.0
11868,54.0,1.0,90.0,4.0,64.0
11869,66.0,197.0,90.0,4.0,64.0
11870,47.0,46.0,330.0,4.0,64.0
11871,59.0,0.0,330.0,4.0,64.0
11872,80.0,87.0,90.0,2.0,64.0
11873,75.0,1.0,90.0,2.0,64.0
11874,82.0,43.0,90.0,1.0,64.0
11875,79.0,1.0,90.0,2.0,64.0
11876,83.0,169.0,90.0,1.0,64.0
11877,80.0,1.0,90.0,2.0,64.0
11878,77.0,18.0,180.0,2.0,64.0
11879,89.0,0.0,180.0,1.0,64.0
11880,75.0,72.0,90.0,2.0,64.0
11881,71.0,0.0,90.0,2.0,64.0
11882,89.0,16.0,90.0,1.0,64.0
11883,77.0,0.0,90.0,2.0,64.0
11884,73.0,69.0,90.0,2.0,64.0
11885,70.0,1.0,90.0,4.0,64.0
11886,89.0,96.0,90.0,1.0,64.0
11887,71.0,86.0,180.0,2.0,64.0
11888,77.0,1.0,90.0,2.0,64.0
11889,68.0,1.0,180.0,4.0,64.0
11890,90.0,84.0,180.0,1.0,64.0
11891,78.0,0.0,180.0,2.0,64.0
11892,70.0,85.0,180.0,4.0,64.0
11893,66.0,1.0,180.0,4.0,64.0
11894,75.0,1.0,180.0,2.0,64.0
11895,87.0,86.0,180.0,1.0,64.0
11896,68.0,84.0,180.0,4.0,64.0
11897,59.0,0.0,180.0,4.0,64.0
11898,73.0,76.0,180.0,2.0,64.0
11899,85.0,0.0,180.0,1.0,64.0
11900,61.0,11.0,150.0,4.0,64.0
11901,70.0,85.0,180.0,4.0,64.0
11902,89.0,79.0,180.0,1.0,64.0
11903,77.0,1.0,180.0,2.0,64.0
11904,61.0,9.0,180.0,4.0,64.0
11905,68.0,169.0,180.0,4.0,64.0
11906,78.0,1.0,300.0,2.0,64.0
11907,90.0,222.0,300.0,1.0,64.0
11908,66.0,52.0,180.0,4.0,64.0
11909,54.0,103.0,1410.0,4.0,64.0
11910,85.0,0.0,180.0,1.0,64.0
11911,73.0,92.0,180.0,2.0,64.0
11912,85.0,89.0,90.0,1.0,64.0
11913,73.0,1.0,90.0,2.0,64.0
11914,85.0,185.0,90.0,1.0,64.0
11915,73.0,0.0,90.0,2.0,64.0
11916,76.0,1.0,180.0,2.0,64.0
11917,88.0,86.0,180.0,1.0,64.0
11918,67.0,84.0,180.0,4.0,64.0
11919,73.0,0.0,180.0,2.0,64.0
11920,87.0,85.0,180.0,1.0,64.0
11921,75.0,1.0,180.0,2.0,64.0
11922,72.0,86.0,180.0,2.0,64.0
11923,68.0,1.0,180.0,4.0,64.0
11924,86.0,0.0,180.0,1.0,64.0
11925,74.0,86.0,180.0,2.0,64.0
11926,65.0,1.0,180.0,4.0,64.0
11927,71.0,88.0,180.0,2.0,64.0
11928,85.0,92.0,180.0,1.0,64.0
11929,73.0,0.0,180.0,2.0,64.0
11930,70.0,0.0,180.0,4.0,64.0
11931,66.0,8.0,180.0,4.0,64.0
11932,77.0,1.0,90.0,2.0,64.0
11933,89.0,68.0,90.0,1.0,64.0
11934,78.0,150.0,210.0,2.0,64.0
11935,90.0,0.0,210.0,1.0,64.0
11936,50.0,1.0,90.0,4.0,64.0
11937,62.0,35.0,90.0,4.0,64.0
11938,51.0,143.0,240.0,4.0,64.0
11939,63.0,0.0,240.0,4.0,64.0
11940,86.0,37.0,120.0,1.0,64.0
11941,74.0,1.0,120.0,2.0,64.0
11942,75.0,50.0,210.0,2.0,64.0
11943,87.0,0.0,210.0,1.0,64.0
11944,58.0,32.0,90.0,4.0,64.0
11945,46.0,0.0,90.0,4.0,64.0
11946,59.0,179.0,90.0,4.0,64.0
11947,47.0,1.0,90.0,4.0,64.0
11948,65.0,0.0,180.0,4.0,64.0
11949,83.0,0.0,180.0,1.0,64.0
11950,53.0,1.0,180.0,4.0,64.0
11951,71.0,179.0,180.0,2.0,64.0
11952,82.0,0.0,180.0,1.0,64.0
11953,54.0,1.0,180.0,4.0,64.0
11954,66.0,1.0,180.0,4.0,64.0
11955,70.0,179.0,180.0,4.0,64.0
11956,65.0,0.0,180.0,4.0,64.0
11957,80.0,0.0,180.0,2.0,64.0
11958,53.0,1.0,180.0,4.0,64.0
11959,68.0,178.0,180.0,4.0,64.0
11960,78.0,265.0,180.0,2.0,64.0
11961,63.0,1.0,180.0,4.0,64.0
11962,51.0,0.0,180.0,4.0,64.0
11963,66.0,7.0,180.0,4.0,64.0
11964,82.0,0.0,270.0,1.0,64.0
11965,70.0,92.0,270.0,4.0,64.0
11966,61.0,1.0,690.0,4.0,64.0
11967,66.0,2.0,690.0,4.0,64.0
11968,83.0,6.0,90.0,1.0,64.0
11969,71.0,78.0,90.0,2.0,64.0
11970,84.0,8.0,90.0,1.0,64.0
11971,72.0,81.0,90.0,2.0,64.0
11972,85.0,5.0,90.0,1.0,64.0
11973,73.0,77.0,90.0,2.0,64.0
11974,84.0,6.0,90.0,1.0,64.0
11975,72.0,78.0,90.0,2.0,64.0
11976,85.0,7.0,90.0,1.0,64.0
11977,73.0,303.0,90.0,2.0,64.0
11978,68.0,0.0,330.0,4.0,64.0
11979,80.0,2.0,300.0,2.0,64.0
11980,65.0,213.0,300.0,4.0,64.0
11981,37.0,92.0,180.0,4.0,64.0
11982,49.0,0.0,180.0,4.0,64.0
11983,49.0,88.0,90.0,4.0,64.0
11984,37.0,0.0,90.0,4.0,64.0
11985,49.0,193.0,90.0,4.0,64.0
11986,37.0,1.0,90.0,4.0,64.0
11987,42.0,1.0,300.0,4.0,64.0
11988,54.0,48.0,300.0,4.0,64.0
11989,82.0,85.0,90.0,1.0,64.0
11990,78.0,1.0,90.0,2.0,64.0
11991,83.0,41.0,90.0,1.0,64.0
11992,80.0,1.0,90.0,2.0,64.0
11993,82.0,168.0,90.0,1.0,64.0
11994,85.0,0.0,90.0,1.0,64.0
11995,66.0,88.0,180.0,4.0,64.0
11996,54.0,1.0,180.0,4.0,64.0
11997,66.0,87.0,90.0,4.0,64.0
11998,54.0,0.0,90.0,4.0,64.0
11999,66.0,192.0,90.0,4.0,64.0
12000,54.0,1.0,90.0,4.0,64.0
12001,47.0,53.0,300.0,4.0,64.0
12002,59.0,0.0,300.0,4.0,64.0
12003,80.0,89.0,90.0,2.0,64.0
12004,75.0,0.0,90.0,2.0,64.0
12005,82.0,33.0,90.0,1.0,64.0
12006,79.0,1.0,90.0,2.0,64.0
12007,80.0,164.0,90.0,2.0,64.0
12008,83.0,0.0,90.0,1.0,64.0
12009,89.0,19.0,180.0,1.0,64.0
12010,77.0,0.0,180.0,2.0,64.0
12011,71.0,70.0,90.0,2.0,64.0
12012,75.0,0.0,90.0,2.0,64.0
12013,89.0,16.0,90.0,1.0,64.0
12014,77.0,0.0,90.0,2.0,64.0
12015,73.0,67.0,90.0,2.0,64.0
12016,70.0,1.0,90.0,4.0,64.0
12017,89.0,93.0,90.0,1.0,64.0
12018,77.0,1.0,90.0,2.0,64.0
12019,68.0,86.0,180.0,4.0,64.0
12020,71.0,0.0,180.0,2.0,64.0
12021,90.0,0.0,180.0,1.0,64.0
12022,78.0,86.0,180.0,2.0,64.0
12023,70.0,86.0,180.0,4.0,64.0
12024,66.0,1.0,180.0,4.0,64.0
12025,87.0,0.0,180.0,1.0,64.0
12026,75.0,90.0,180.0,2.0,64.0
12027,68.0,0.0,180.0,4.0,64.0
12028,59.0,87.0,180.0,4.0,64.0
12029,85.0,81.0,180.0,1.0,64.0
12030,73.0,1.0,180.0,2.0,64.0
12031,70.0,89.0,180.0,4.0,64.0
12032,61.0,11.0,180.0,4.0,64.0
12033,77.0,76.0,180.0,2.0,64.0
12034,89.0,0.0,180.0,1.0,64.0
12035,68.0,178.0,180.0,4.0,64.0
12036,61.0,11.0,180.0,4.0,64.0
12037,78.0,276.0,270.0,2.0,64.0
12038,90.0,0.0,270.0,1.0,64.0
12039,66.0,12.0,180.0,4.0,64.0
12040,54.0,317.0,390.0,4.0,64.0
12041,73.0,92.0,150.0,2.0,64.0
12042,73.0,76.0,90.0,2.0,64.0
12043,71.0,74.0,90.0,2.0,64.0
12044,54.0,73.0,210.0,4.0,64.0
12045,70.0,75.0,90.0,4.0,64.0
12046,68.0,66.0,90.0,4.0,64.0
12047,66.0,73.0,210.0,4.0,64.0
12048,53.0,71.0,60.0,4.0,64.0
12049,51.0,76.0,210.0,4.0,64.0
12050,68.0,67.0,60.0,4.0,64.0
12051,70.0,40.0,240.0,4.0,64.0
12052,49.0,104.0,60.0,4.0,64.0
12053,47.0,42.0,240.0,4.0,64.0
12054,63.0,104.0,60.0,4.0,64.0
12055,71.0,36.0,240.0,2.0,64.0
12056,44.0,102.0,90.0,4.0,64.0
12057,49.0,94.0,210.0,4.0,64.0
12058,65.0,52.0,60.0,4.0,64.0
12059,68.0,38.0,240.0,4.0,64.0
12060,47.0,106.0,60.0,4.0,64.0
12061,46.0,36.0,240.0,4.0,64.0
12062,61.0,106.0,60.0,4.0,64.0
12063,73.0,34.0,240.0,2.0,64.0
12064,42.0,109.0,60.0,4.0,64.0
12065,51.0,38.0,240.0,4.0,64.0
12066,66.0,113.0,60.0,4.0,64.0
12067,71.0,86.0,210.0,2.0,64.0
12068,47.0,59.0,60.0,4.0,64.0
12069,61.0,13.0,150.0,4.0,64.0
12070,49.0,0.0,150.0,4.0,64.0
12071,70.0,78.0,90.0,4.0,64.0
12072,61.0,58.0,90.0,4.0,64.0
12073,68.0,13.0,150.0,4.0,64.0
12074,49.0,1.0,90.0,4.0,64.0
12075,59.0,73.0,90.0,4.0,64.0
12076,47.0,0.0,90.0,4.0,64.0
12077,85.0,6.0,120.0,1.0,64.0
12078,58.0,52.0,90.0,4.0,64.0
12079,46.0,1.0,90.0,4.0,64.0
12080,73.0,14.0,120.0,2.0,64.0
12081,56.0,64.0,90.0,4.0,64.0
12082,44.0,1.0,90.0,4.0,64.0
12083,85.0,7.0,60.0,1.0,64.0
12084,54.0,19.0,210.0,4.0,64.0
12085,42.0,1.0,210.0,4.0,64.0
12086,73.0,69.0,60.0,2.0,64.0
12087,83.0,5.0,90.0,1.0,64.0
12088,71.0,50.0,60.0,2.0,64.0
12089,82.0,6.0,60.0,1.0,64.0
12090,70.0,72.0,90.0,4.0,64.0
12091,53.0,75.0,90.0,4.0,64.0
12092,80.0,6.0,90.0,2.0,64.0
12093,41.0,1.0,90.0,4.0,64.0
12094,68.0,2.0,90.0,4.0,64.0
12095,78.0,6.0,210.0,2.0,64.0
12096,51.0,72.0,90.0,4.0,64.0
12097,39.0,1.0,90.0,4.0,64.0
12098,66.0,19.0,210.0,4.0,64.0
12099,37.0,5.0,90.0,4.0,64.0
12100,49.0,41.0,90.0,4.0,64.0
12101,36.0,6.0,90.0,4.0,64.0
12102,48.0,66.0,90.0,4.0,64.0
12103,77.0,5.0,90.0,2.0,64.0
12104,37.0,0.0,90.0,4.0,64.0
12105,65.0,66.0,90.0,4.0,64.0
12106,49.0,0.0,90.0,4.0,64.0
12107,75.0,6.0,90.0,2.0,64.0
12108,51.0,0.0,210.0,4.0,64.0
12109,63.0,69.0,90.0,4.0,64.0
12110,39.0,2.0,210.0,4.0,64.0
12111,73.0,6.0,90.0,2.0,64.0
12112,61.0,65.0,90.0,4.0,64.0
12113,72.0,6.0,90.0,2.0,64.0
12114,60.0,67.0,90.0,4.0,64.0
12115,73.0,6.0,90.0,2.0,64.0
12116,61.0,70.0,90.0,4.0,64.0
12117,53.0,0.0,90.0,4.0,64.0
12118,41.0,1.0,90.0,4.0,64.0
12119,75.0,5.0,210.0,2.0,64.0
12120,54.0,72.0,90.0,4.0,64.0
12121,63.0,95.0,210.0,4.0,64.0
12122,42.0,1.0,90.0,4.0,64.0
12123,55.0,41.0,90.0,4.0,64.0
12124,43.0,1.0,90.0,4.0,64.0
12125,44.0,67.0,300.0,4.0,64.0
12126,56.0,0.0,300.0,4.0,64.0
12127,77.0,5.0,90.0,2.0,64.0
12128,65.0,66.0,90.0,4.0,64.0
12129,78.0,5.0,90.0,2.0,64.0
12130,66.0,66.0,90.0,4.0,64.0
12131,79.0,6.0,150.0,2.0,64.0
12132,67.0,145.0,150.0,4.0,64.0
12133,53.0,69.0,300.0,4.0,64.0
12134,80.0,0.0,150.0,2.0,64.0
12135,77.0,83.0,150.0,2.0,64.0
12136,58.0,70.0,300.0,4.0,64.0
12137,77.0,82.0,150.0,2.0,64.0
12138,74.0,1.0,150.0,2.0,64.0
12139,51.0,82.0,300.0,4.0,64.0
12140,78.0,84.0,150.0,2.0,64.0
12141,75.0,0.0,150.0,2.0,64.0
12142,56.0,132.0,300.0,4.0,64.0
12143,72.0,63.0,150.0,2.0,64.0
12144,75.0,4.0,150.0,2.0,64.0
12145,49.0,73.0,600.0,4.0,64.0
12146,73.0,157.0,210.0,2.0,64.0
12147,61.0,9.0,450.0,4.0,64.0
12148,73.0,94.0,150.0,2.0,64.0
12149,73.0,67.0,90.0,2.0,64.0
12150,71.0,4.0,90.0,2.0,64.0
12151,70.0,75.0,90.0,4.0,64.0
12152,54.0,72.0,240.0,4.0,64.0
12153,68.0,71.0,90.0,4.0,64.0
12154,66.0,66.0,210.0,4.0,64.0
12155,53.0,69.0,90.0,4.0,64.0
12156,51.0,80.0,210.0,4.0,64.0
12157,68.0,65.0,60.0,4.0,64.0
12158,70.0,141.0,180.0,4.0,64.0
12159,49.0,50.0,60.0,4.0,64.0
12160,47.0,13.0,180.0,4.0,64.0
12161,63.0,81.0,150.0,4.0,64.0
12162,71.0,92.0,210.0,2.0,64.0
12163,44.0,50.0,60.0,4.0,64.0
12164,49.0,90.0,210.0,4.0,64.0
12165,65.0,50.0,60.0,4.0,64.0
12166,68.0,144.0,210.0,4.0,64.0
12167,47.0,53.0,60.0,4.0,64.0
12168,46.0,11.0,210.0,4.0,64.0
12169,61.0,79.0,150.0,4.0,64.0
12170,73.0,88.0,210.0,2.0,64.0
12171,44.0,53.0,60.0,4.0,64.0
12172,51.0,90.0,210.0,4.0,64.0
12173,66.0,56.0,60.0,4.0,64.0
12174,71.0,86.0,210.0,2.0,64.0
12175,47.0,55.0,60.0,4.0,64.0
12176,61.0,4.0,150.0,4.0,64.0
12177,49.0,1.0,150.0,4.0,64.0
12178,70.0,81.0,60.0,4.0,64.0
12179,68.0,13.0,150.0,4.0,64.0
12180,61.0,58.0,90.0,4.0,64.0
12181,49.0,1.0,90.0,4.0,64.0
12182,47.0,1.0,90.0,4.0,64.0
12183,59.0,74.0,90.0,4.0,64.0
12184,85.0,24.0,150.0,1.0,64.0
12185,73.0,1.0,150.0,2.0,64.0
12186,58.0,54.0,90.0,4.0,64.0
12187,46.0,1.0,90.0,4.0,64.0
12188,56.0,68.0,90.0,4.0,64.0
12189,44.0,1.0,90.0,4.0,64.0
12190,85.0,6.0,90.0,1.0,64.0
12191,73.0,68.0,90.0,2.0,64.0
12192,54.0,1.0,240.0,4.0,64.0
12193,42.0,1.0,210.0,4.0,64.0
12194,83.0,6.0,90.0,1.0,64.0
12195,71.0,69.0,90.0,2.0,64.0
12196,82.0,7.0,90.0,1.0,64.0
12197,70.0,68.0,90.0,4.0,64.0
12198,80.0,6.0,90.0,2.0,64.0
12199,68.0,73.0,90.0,4.0,64.0
12200,53.0,0.0,90.0,4.0,64.0
12201,41.0,0.0,90.0,4.0,64.0
12202,78.0,5.0,210.0,2.0,64.0
12203,66.0,27.0,210.0,4.0,64.0
12204,39.0,74.0,90.0,4.0,64.0
12205,51.0,0.0,90.0,4.0,64.0
12206,49.0,41.0,90.0,4.0,64.0
12207,37.0,1.0,90.0,4.0,64.0
12208,48.0,68.0,90.0,4.0,64.0
12209,36.0,0.0,90.0,4.0,64.0
12210,77.0,6.0,90.0,2.0,64.0
12211,65.0,0.0,90.0,4.0,64.0
12212,37.0,70.0,90.0,4.0,64.0
12213,49.0,0.0,90.0,4.0,64.0
12214,75.0,6.0,90.0,2.0,64.0
12215,63.0,73.0,90.0,4.0,64.0
12216,39.0,2.0,240.0,4.0,64.0
12217,51.0,0.0,240.0,4.0,64.0
12218,73.0,5.0,90.0,2.0,64.0
12219,61.0,66.0,90.0,4.0,64.0
12220,72.0,6.0,90.0,2.0,64.0
12221,60.0,67.0,90.0,4.0,64.0
12222,73.0,6.0,90.0,2.0,64.0
12223,61.0,72.0,90.0,4.0,64.0
12224,53.0,0.0,90.0,4.0,64.0
12225,41.0,1.0,90.0,4.0,64.0
12226,75.0,6.0,210.0,2.0,64.0
12227,63.0,94.0,210.0,4.0,64.0
12228,54.0,72.0,90.0,4.0,64.0
12229,42.0,1.0,90.0,4.0,64.0
12230,55.0,40.0,90.0,4.0,64.0
12231,43.0,1.0,90.0,4.0,64.0
12232,56.0,63.0,300.0,4.0,64.0
12233,44.0,1.0,300.0,4.0,64.0
12234,77.0,6.0,90.0,2.0,64.0
12235,65.0,67.0,90.0,4.0,64.0
12236,78.0,6.0,90.0,2.0,64.0
12237,66.0,65.0,90.0,4.0,64.0
12238,79.0,3.0,150.0,2.0,64.0
12239,67.0,146.0,150.0,4.0,64.0
12240,53.0,62.0,300.0,4.0,64.0
12241,77.0,1.0,150.0,2.0,64.0
12242,80.0,86.0,150.0,2.0,64.0
12243,58.0,70.0,300.0,4.0,64.0
12244,77.0,82.0,150.0,2.0,64.0
12245,74.0,0.0,150.0,2.0,64.0
12246,51.0,71.0,300.0,4.0,64.0
12247,75.0,80.0,150.0,2.0,64.0
12248,78.0,0.0,150.0,2.0,64.0
12249,56.0,72.0,300.0,4.0,64.0
12250,75.0,7.0,150.0,2.0,64.0
12251,72.0,74.0,150.0,2.0,64.0
12252,49.0,72.0,630.0,4.0,64.0
12253,73.0,233.0,150.0,2.0,64.0
12254,61.0,9.0,450.0,4.0,64.0
12255,85.0,90.0,150.0,1.0,64.0
12256,85.0,67.0,90.0,1.0,64.0
12257,87.0,3.0,90.0,1.0,64.0
12258,88.0,68.0,90.0,1.0,64.0
12259,73.0,5.0,150.0,2.0,64.0
12260,67.0,143.0,150.0,4.0,64.0
12261,87.0,1.0,90.0,1.0,64.0
12262,72.0,5.0,150.0,2.0,64.0
12263,92.0,94.0,210.0,1.0,64.0
12264,66.0,49.0,150.0,4.0,64.0
12265,71.0,6.0,150.0,2.0,64.0
12266,65.0,141.0,150.0,4.0,64.0
12267,85.0,1.0,60.0,1.0,64.0
12268,90.0,98.0,210.0,1.0,64.0
12269,70.0,5.0,150.0,4.0,64.0
12270,64.0,48.0,150.0,4.0,64.0
12271,51.0,4.0,210.0,4.0,64.0
12272,63.0,76.0,210.0,4.0,64.0
12273,86.0,64.0,90.0,1.0,64.0
12274,74.0,1.0,90.0,2.0,64.0
12275,75.0,1.0,210.0,2.0,64.0
12276,87.0,96.0,210.0,1.0,64.0
12277,58.0,46.0,90.0,4.0,64.0
12278,46.0,1.0,90.0,4.0,64.0
12279,47.0,79.0,210.0,4.0,64.0
12280,59.0,0.0,210.0,4.0,64.0
12281,82.0,67.0,90.0,1.0,64.0
12282,70.0,1.0,90.0,4.0,64.0
12283,83.0,0.0,210.0,1.0,64.0
12284,71.0,85.0,210.0,2.0,64.0
12285,55.0,48.0,90.0,4.0,64.0
12286,43.0,1.0,90.0,4.0,64.0
12287,56.0,44.0,150.0,4.0,64.0
12288,44.0,112.0,180.0,4.0,64.0
12289,61.0,1.0,60.0,4.0,64.0
12290,71.0,83.0,210.0,2.0,64.0
12291,53.0,69.0,150.0,4.0,64.0
12292,54.0,94.0,210.0,4.0,64.0
12293,70.0,46.0,90.0,4.0,64.0
12294,75.0,31.0,240.0,2.0,64.0
12295,48.0,105.0,150.0,4.0,64.0
12296,49.0,14.0,600.0,4.0,64.0
12297,68.0,148.0,60.0,4.0,64.0
12298,68.0,149.0,150.0,4.0,64.0
12299,61.0,97.0,150.0,4.0,64.0
12300,73.0,0.0,150.0,2.0,64.0
12301,73.0,5.0,90.0,2.0,64.0
12302,61.0,55.0,90.0,4.0,64.0
12303,75.0,5.0,90.0,2.0,64.0
12304,63.0,69.0,90.0,4.0,64.0
12305,77.0,5.0,90.0,2.0,64.0
12306,65.0,61.0,90.0,4.0,64.0
12307,61.0,7.0,150.0,4.0,64.0
12308,49.0,1.0,150.0,4.0,64.0
12309,78.0,7.0,90.0,2.0,64.0
12310,66.0,74.0,90.0,4.0,64.0
12311,80.0,6.0,150.0,2.0,64.0
12312,61.0,0.0,90.0,4.0,64.0
12313,68.0,13.0,150.0,4.0,64.0
12314,49.0,54.0,90.0,4.0,64.0
12315,59.0,72.0,90.0,4.0,64.0
12316,47.0,1.0,90.0,4.0,64.0
12317,78.0,4.0,120.0,2.0,64.0
12318,66.0,20.0,120.0,4.0,64.0
12319,58.0,48.0,90.0,4.0,64.0
12320,46.0,1.0,90.0,4.0,64.0
12321,44.0,1.0,90.0,4.0,64.0
12322,56.0,70.0,90.0,4.0,64.0
12323,78.0,6.0,90.0,2.0,64.0
12324,54.0,8.0,150.0,4.0,64.0
12325,66.0,60.0,90.0,4.0,64.0
12326,42.0,31.0,270.0,4.0,64.0
12327,80.0,6.0,90.0,2.0,64.0
12328,68.0,65.0,90.0,4.0,64.0
12329,82.0,6.0,90.0,1.0,64.0
12330,54.0,8.0,150.0,4.0,64.0
12331,66.0,0.0,150.0,4.0,64.0
12332,70.0,29.0,90.0,4.0,64.0
12333,83.0,6.0,90.0,1.0,64.0
12334,71.0,74.0,90.0,2.0,64.0
12335,85.0,4.0,150.0,1.0,64.0
12336,73.0,16.0,150.0,2.0,64.0
12337,66.0,55.0,90.0,4.0,64.0
12338,54.0,0.0,90.0,4.0,64.0
12339,64.0,75.0,90.0,4.0,64.0
12340,52.0,0.0,90.0,4.0,64.0
12341,90.0,5.0,150.0,1.0,64.0
12342,78.0,21.0,150.0,2.0,64.0
12343,51.0,49.0,90.0,4.0,64.0
12344,63.0,0.0,90.0,4.0,64.0
12345,61.0,70.0,90.0,4.0,64.0
12346,49.0,0.0,90.0,4.0,64.0
12347,90.0,5.0,90.0,1.0,64.0
12348,59.0,19.0,210.0,4.0,64.0
12349,78.0,68.0,90.0,2.0,64.0
12350,47.0,1.0,210.0,4.0,64.0
12351,88.0,5.0,90.0,1.0,64.0
12352,76.0,48.0,90.0,2.0,64.0
12353,87.0,6.0,90.0,1.0,64.0
12354,75.0,69.0,90.0,2.0,64.0
12355,85.0,4.0,90.0,1.0,64.0
12356,73.0,74.0,90.0,2.0,64.0
12357,58.0,0.0,90.0,4.0,64.0
12358,46.0,1.0,90.0,4.0,64.0
12359,83.0,5.0,210.0,1.0,64.0
12360,59.0,72.0,90.0,4.0,64.0
12361,71.0,94.0,210.0,2.0,64.0
12362,47.0,1.0,90.0,4.0,64.0
12363,44.0,1.0,90.0,4.0,64.0
12364,56.0,43.0,90.0,4.0,64.0
12365,61.0,0.0,210.0,4.0,64.0
12366,49.0,21.0,210.0,4.0,64.0
12367,82.0,6.0,90.0,1.0,64.0
12368,70.0,48.0,90.0,4.0,64.0
12369,83.0,6.0,90.0,1.0,64.0
12370,71.0,73.0,90.0,2.0,64.0
12371,80.0,5.0,150.0,2.0,64.0
12372,68.0,146.0,150.0,4.0,64.0
12373,59.0,57.0,90.0,4.0,64.0
12374,58.0,64.0,300.0,4.0,64.0
12375,85.0,86.0,150.0,1.0,64.0
12376,82.0,1.0,150.0,1.0,64.0
12377,63.0,62.0,300.0,4.0,64.0
12378,79.0,1.0,150.0,2.0,64.0
12379,82.0,89.0,150.0,1.0,64.0
12380,56.0,76.0,300.0,4.0,64.0
12381,83.0,86.0,150.0,1.0,64.0
12382,80.0,1.0,150.0,2.0,64.0
12383,61.0,64.0,300.0,4.0,64.0
12384,80.0,2.0,150.0,2.0,64.0
12385,77.0,76.0,150.0,2.0,64.0
12386,54.0,69.0,1110.0,4.0,64.0
12387,78.0,229.0,150.0,2.0,64.0
12388,66.0,74.0,450.0,4.0,64.0
12389,85.0,82.0,150.0,1.0,64.0
12390,85.0,70.0,90.0,1.0,64.0
12391,87.0,1.0,60.0,1.0,64.0
12392,88.0,72.0,60.0,1.0,64.0
12393,73.0,5.0,150.0,2.0,64.0
12394,67.0,141.0,150.0,4.0,64.0
12395,87.0,1.0,60.0,1.0,64.0
12396,92.0,87.0,210.0,1.0,64.0
12397,72.0,7.0,150.0,2.0,64.0
12398,66.0,51.0,150.0,4.0,64.0
12399,71.0,7.0,150.0,2.0,64.0
12400,65.0,76.0,150.0,4.0,64.0
12401,85.0,4.0,60.0,1.0,64.0
12402,90.0,98.0,210.0,1.0,64.0
12403,70.0,4.0,150.0,4.0,64.0
12404,64.0,52.0,150.0,4.0,64.0
12405,51.0,6.0,210.0,4.0,64.0
12406,63.0,80.0,210.0,4.0,64.0
12407,86.0,62.0,90.0,1.0,64.0
12408,74.0,1.0,90.0,2.0,64.0
12409,75.0,100.0,210.0,2.0,64.0
12410,87.0,0.0,210.0,1.0,64.0
12411,58.0,0.0,90.0,4.0,64.0
12412,46.0,48.0,90.0,4.0,64.0
12413,59.0,82.0,210.0,4.0,64.0
12414,47.0,5.0,210.0,4.0,64.0
12415,82.0,60.0,90.0,1.0,64.0
12416,70.0,0.0,90.0,4.0,64.0
12417,83.0,4.0,300.0,1.0,64.0
12418,71.0,1.0,300.0,2.0,64.0
12419,55.0,133.0,90.0,4.0,64.0
12420,43.0,0.0,90.0,4.0,64.0
12421,44.0,1.0,150.0,4.0,64.0
12422,56.0,0.0,150.0,4.0,64.0
12423,61.0,154.0,60.0,4.0,64.0
12424,71.0,68.0,240.0,2.0,64.0
12425,53.0,73.0,150.0,4.0,64.0
12426,41.0,0.0,150.0,4.0,64.0
12427,54.0,150.0,150.0,4.0,64.0
12428,70.0,6.0,60.0,4.0,64.0
12429,75.0,86.0,210.0,2.0,64.0
12430,48.0,53.0,150.0,4.0,64.0
12431,49.0,8.0,600.0,4.0,64.0
12432,68.0,149.0,60.0,4.0,64.0
12433,68.0,141.0,150.0,4.0,64.0
12434,73.0,87.0,150.0,2.0,64.0
12435,61.0,0.0,120.0,4.0,64.0
12436,73.0,9.0,60.0,2.0,64.0
12437,61.0,58.0,90.0,4.0,64.0
12438,75.0,5.0,60.0,2.0,64.0
12439,63.0,66.0,60.0,4.0,64.0
12440,77.0,6.0,60.0,2.0,64.0
12441,61.0,1.0,150.0,4.0,64.0
12442,49.0,7.0,150.0,4.0,64.0
12443,65.0,63.0,60.0,4.0,64.0
12444,78.0,6.0,60.0,2.0,64.0
12445,66.0,77.0,60.0,4.0,64.0
12446,80.0,4.0,150.0,2.0,64.0
12447,61.0,60.0,90.0,4.0,64.0
12448,49.0,1.0,90.0,4.0,64.0
12449,68.0,13.0,150.0,4.0,64.0
12450,59.0,74.0,90.0,4.0,64.0
12451,47.0,1.0,90.0,4.0,64.0
12452,78.0,6.0,150.0,2.0,64.0
12453,46.0,49.0,90.0,4.0,64.0
12454,58.0,0.0,90.0,4.0,64.0
12455,66.0,20.0,150.0,4.0,64.0
12456,56.0,71.0,90.0,4.0,64.0
12457,44.0,0.0,90.0,4.0,64.0
12458,78.0,6.0,90.0,2.0,64.0
12459,66.0,59.0,90.0,4.0,64.0
12460,54.0,8.0,150.0,4.0,64.0
12461,42.0,1.0,150.0,4.0,64.0
12462,80.0,6.0,90.0,2.0,64.0
12463,68.0,69.0,90.0,4.0,64.0
12464,82.0,5.0,90.0,1.0,64.0
12465,70.0,58.0,90.0,4.0,64.0
12466,54.0,1.0,150.0,4.0,64.0
12467,66.0,7.0,150.0,4.0,64.0
12468,83.0,6.0,90.0,1.0,64.0
12469,71.0,68.0,90.0,2.0,64.0
12470,85.0,4.0,90.0,1.0,64.0
12471,73.0,13.0,150.0,2.0,64.0
12472,66.0,60.0,90.0,4.0,64.0
12473,54.0,0.0,90.0,4.0,64.0
12474,52.0,1.0,90.0,4.0,64.0
12475,64.0,74.0,90.0,4.0,64.0
12476,90.0,26.0,150.0,1.0,64.0
12477,78.0,1.0,120.0,2.0,64.0
12478,63.0,46.0,90.0,4.0,64.0
12479,51.0,1.0,90.0,4.0,64.0
12480,61.0,67.0,90.0,4.0,64.0
12481,49.0,1.0,90.0,4.0,64.0
12482,90.0,6.0,90.0,1.0,64.0
12483,59.0,0.0,210.0,4.0,64.0
12484,78.0,71.0,90.0,2.0,64.0
12485,47.0,19.0,210.0,4.0,64.0
12486,88.0,4.0,90.0,1.0,64.0
12487,76.0,49.0,90.0,2.0,64.0
12488,87.0,6.0,90.0,1.0,64.0
12489,75.0,67.0,90.0,2.0,64.0
12490,85.0,6.0,90.0,1.0,64.0
12491,58.0,1.0,90.0,4.0,64.0
12492,73.0,72.0,90.0,2.0,64.0
12493,46.0,0.0,90.0,4.0,64.0
12494,83.0,5.0,210.0,1.0,64.0
12495,71.0,94.0,210.0,2.0,64.0
12496,59.0,75.0,90.0,4.0,64.0
12497,47.0,0.0,90.0,4.0,64.0
12498,56.0,42.0,90.0,4.0,64.0
12499,44.0,0.0,90.0,4.0,64.0
12500,49.0,21.0,210.0,4.0,64.0
12501,61.0,0.0,210.0,4.0,64.0
12502,82.0,6.0,90.0,1.0,64.0
12503,70.0,48.0,90.0,4.0,64.0
12504,83.0,6.0,90.0,1.0,64.0
12505,71.0,67.0,90.0,2.0,64.0
12506,80.0,139.0,150.0,2.0,64.0
12507,68.0,4.0,150.0,4.0,64.0
12508,59.0,65.0,60.0,4.0,64.0
12509,58.0,62.0,300.0,4.0,64.0
12510,85.0,86.0,150.0,1.0,64.0
12511,82.0,0.0,150.0,1.0,64.0
12512,63.0,62.0,300.0,4.0,64.0
12513,82.0,0.0,150.0,1.0,64.0
12514,79.0,85.0,150.0,2.0,64.0
12515,56.0,79.0,300.0,4.0,64.0
12516,83.0,85.0,150.0,1.0,64.0
12517,80.0,1.0,150.0,2.0,64.0
12518,61.0,99.0,270.0,4.0,64.0
12519,80.0,12.0,150.0,2.0,64.0
12520,77.0,43.0,150.0,2.0,64.0
12521,54.0,44.0,240.0,4.0,64.0
12522,78.0,331.0,210.0,2.0,64.0
12523,66.0,180.0,450.0,4.0,64.0
12524,73.0,38.0,60.0,2.0,64.0
12525,85.0,39.0,60.0,1.0,64.0
12526,73.0,39.0,60.0,2.0,64.0
12527,85.0,38.0,90.0,1.0,64.0
12528,73.0,39.0,60.0,2.0,64.0
12529,85.0,38.0,90.0,1.0,64.0
12530,73.0,38.0,90.0,2.0,64.0
12531,85.0,38.0,60.0,1.0,64.0
12532,73.0,38.0,60.0,2.0,64.0
12533,58.0,36.0,300.0,4.0,64.0
12534,61.0,4.0,300.0,4.0,64.0
12535,85.0,39.0,60.0,1.0,64.0
12536,73.0,38.0,60.0,2.0,64.0
12537,85.0,37.0,60.0,1.0,64.0
12538,73.0,38.0,60.0,2.0,64.0
12539,85.0,33.0,60.0,1.0,64.0
12540,73.0,2.0,60.0,2.0,64.0
12541,85.0,36.0,60.0,1.0,64.0
12542,66.0,0.0,150.0,4.0,64.0
12543,73.0,39.0,60.0,2.0,64.0
12544,61.0,4.0,150.0,4.0,64.0
12545,85.0,33.0,60.0,1.0,64.0
12546,73.0,37.0,60.0,2.0,64.0
12547,85.0,36.0,60.0,1.0,64.0
12548,70.0,4.0,150.0,4.0,64.0
12549,73.0,39.0,60.0,2.0,64.0
12550,66.0,1.0,150.0,4.0,64.0
12551,85.0,34.0,60.0,1.0,64.0
12552,73.0,37.0,60.0,2.0,64.0
12553,85.0,38.0,60.0,1.0,64.0
12554,68.0,36.0,240.0,4.0,64.0
12555,73.0,36.0,60.0,2.0,64.0
12556,65.0,1.0,240.0,4.0,64.0
12557,85.0,39.0,60.0,1.0,64.0
12558,73.0,38.0,60.0,2.0,64.0
12559,85.0,37.0,60.0,1.0,64.0
12560,73.0,2.0,60.0,2.0,64.0
12561,85.0,32.0,60.0,1.0,64.0
12562,73.0,37.0,60.0,2.0,64.0
12563,70.0,4.0,60.0,4.0,64.0
12564,66.0,1.0,60.0,4.0,64.0
12565,85.0,38.0,60.0,1.0,64.0
12566,73.0,37.0,60.0,2.0,64.0
12567,71.0,4.0,150.0,2.0,64.0
12568,68.0,0.0,150.0,4.0,64.0
12569,85.0,35.0,60.0,1.0,64.0
12570,73.0,37.0,60.0,2.0,64.0
12571,85.0,39.0,60.0,1.0,64.0
12572,73.0,38.0,60.0,2.0,64.0
12573,68.0,4.0,150.0,4.0,64.0
12574,71.0,0.0,150.0,2.0,64.0
12575,85.0,33.0,60.0,1.0,64.0
12576,73.0,38.0,60.0,2.0,64.0
12577,85.0,36.0,60.0,1.0,64.0
12578,73.0,39.0,60.0,2.0,64.0
12579,66.0,36.0,300.0,4.0,64.0
12580,70.0,0.0,300.0,4.0,64.0
12581,85.0,36.0,60.0,1.0,64.0
12582,73.0,39.0,60.0,2.0,64.0
12583,85.0,38.0,60.0,1.0,64.0
12584,74.0,38.0,60.0,2.0,64.0
12585,86.0,36.0,60.0,1.0,64.0
12586,74.0,2.0,60.0,2.0,64.0
12587,86.0,39.0,60.0,1.0,64.0
12588,71.0,2.0,300.0,2.0,64.0
12589,75.0,36.0,60.0,2.0,64.0
12590,59.0,1.0,300.0,4.0,64.0
12591,87.0,41.0,60.0,1.0,64.0
12592,75.0,36.0,90.0,2.0,64.0
12593,87.0,42.0,60.0,1.0,64.0
12594,80.0,33.0,60.0,2.0,64.0
12595,92.0,41.0,60.0,1.0,64.0
12596,80.0,2.0,60.0,2.0,64.0
12597,92.0,157.0,30.0,1.0,64.0
12598,90.0,1.0,150.0,1.0,64.0
12599,78.0,150.0,150.0,2.0,64.0
12600,70.0,1.0,150.0,4.0,64.0
12601,61.0,0.0,150.0,4.0,64.0
12602,68.0,1.0,150.0,4.0,64.0
12603,89.0,4.0,150.0,1.0,64.0
12604,77.0,61.0,150.0,2.0,64.0
12605,61.0,37.0,60.0,4.0,64.0
12606,73.0,38.0,60.0,2.0,64.0
12607,61.0,38.0,60.0,4.0,64.0
12608,73.0,38.0,60.0,2.0,64.0
12609,80.0,36.0,150.0,2.0,64.0
12610,77.0,1.0,150.0,2.0,64.0
12611,59.0,41.0,60.0,4.0,64.0
12612,71.0,44.0,60.0,2.0,64.0
12613,59.0,1.0,60.0,4.0,64.0
12614,71.0,39.0,60.0,2.0,64.0
12615,58.0,39.0,60.0,4.0,64.0
12616,73.0,30.0,150.0,2.0,64.0
12617,70.0,39.0,60.0,4.0,64.0
12618,85.0,29.0,150.0,1.0,64.0
12619,58.0,8.0,60.0,4.0,64.0
12620,70.0,37.0,60.0,4.0,64.0
12621,77.0,32.0,150.0,2.0,64.0
12622,56.0,9.0,60.0,4.0,64.0
12623,68.0,40.0,60.0,4.0,64.0
12624,83.0,31.0,150.0,1.0,64.0
12625,56.0,8.0,60.0,4.0,64.0
12626,68.0,39.0,60.0,4.0,64.0
12627,78.0,29.0,150.0,2.0,64.0
12628,54.0,9.0,60.0,4.0,64.0
12629,66.0,37.0,60.0,4.0,64.0
12630,82.0,31.0,150.0,1.0,64.0
12631,54.0,8.0,60.0,4.0,64.0
12632,66.0,39.0,60.0,4.0,64.0
12633,74.0,30.0,150.0,2.0,64.0
12634,53.0,8.0,60.0,4.0,64.0
12635,65.0,40.0,60.0,4.0,64.0
12636,80.0,30.0,150.0,2.0,64.0
12637,53.0,8.0,60.0,4.0,64.0
12638,65.0,38.0,60.0,4.0,64.0
12639,75.0,7.0,150.0,2.0,64.0
12640,51.0,7.0,60.0,4.0,64.0
12641,63.0,41.0,60.0,4.0,64.0
12642,78.0,23.0,90.0,2.0,64.0
12643,51.0,7.0,60.0,4.0,64.0
12644,63.0,40.0,60.0,4.0,64.0
12645,49.0,14.0,60.0,4.0,64.0
12646,76.0,24.0,90.0,2.0,64.0
12647,61.0,36.0,60.0,4.0,64.0
12648,79.0,33.0,150.0,2.0,64.0
12649,49.0,40.0,60.0,4.0,64.0
12650,61.0,38.0,60.0,4.0,64.0
12651,75.0,30.0,150.0,2.0,64.0
12652,48.0,7.0,60.0,4.0,64.0
12653,60.0,38.0,60.0,4.0,64.0
12654,48.0,9.0,60.0,4.0,64.0
12655,80.0,30.0,150.0,2.0,64.0
12656,60.0,39.0,60.0,4.0,64.0
12657,72.0,31.0,150.0,2.0,64.0
12658,44.0,8.0,60.0,4.0,64.0
12659,56.0,39.0,60.0,4.0,64.0
12660,78.0,39.0,120.0,2.0,64.0
12661,44.0,6.0,60.0,4.0,64.0
12662,56.0,0.0,60.0,4.0,64.0
12663,65.0,39.0,60.0,4.0,64.0
12664,61.0,2.0,300.0,4.0,64.0
12665,77.0,38.0,60.0,2.0,64.0
12666,65.0,40.0,60.0,4.0,64.0
12667,77.0,39.0,60.0,2.0,64.0
12668,53.0,25.0,150.0,4.0,64.0
12669,68.0,33.0,60.0,4.0,64.0
12670,80.0,41.0,60.0,2.0,64.0
12671,68.0,10.0,60.0,4.0,64.0
12672,80.0,39.0,60.0,2.0,64.0
12673,60.0,38.0,60.0,4.0,64.0
12674,56.0,31.0,150.0,4.0,64.0
12675,72.0,38.0,60.0,2.0,64.0
12676,60.0,9.0,60.0,4.0,64.0
12677,72.0,38.0,60.0,2.0,64.0
12678,63.0,39.0,60.0,4.0,64.0
12679,44.0,30.0,150.0,4.0,64.0
12680,75.0,38.0,60.0,2.0,64.0
12681,63.0,8.0,60.0,4.0,64.0
12682,75.0,173.0,60.0,2.0,64.0
12683,61.0,167.0,210.0,4.0,64.0
12684,73.0,0.0,210.0,2.0,64.0
12685,49.0,1.0,210.0,4.0,64.0
12686,37.0,31.0,240.0,4.0,64.0
12687,73.0,8.0,60.0,2.0,64.0
12688,85.0,40.0,90.0,1.0,64.0
12689,73.0,38.0,90.0,2.0,64.0
12690,85.0,39.0,90.0,1.0,64.0
12691,73.0,36.0,90.0,2.0,64.0
12692,85.0,39.0,60.0,1.0,64.0
12693,73.0,37.0,60.0,2.0,64.0
12694,85.0,37.0,60.0,1.0,64.0
12695,58.0,37.0,300.0,4.0,64.0
12696,61.0,4.0,300.0,4.0,64.0
12697,73.0,38.0,60.0,2.0,64.0
12698,85.0,36.0,60.0,1.0,64.0
12699,73.0,37.0,60.0,2.0,64.0
12700,85.0,37.0,60.0,1.0,64.0
12701,73.0,39.0,60.0,2.0,64.0
12702,85.0,32.0,60.0,1.0,64.0
12703,73.0,2.0,60.0,2.0,64.0
12704,85.0,37.0,60.0,1.0,64.0
12705,73.0,38.0,60.0,2.0,64.0
12706,66.0,10.0,150.0,4.0,64.0
12707,61.0,1.0,150.0,4.0,64.0
12708,85.0,27.0,60.0,1.0,64.0
12709,73.0,37.0,60.0,2.0,64.0
12710,85.0,39.0,60.0,1.0,64.0
12711,73.0,38.0,60.0,2.0,64.0
12712,66.0,12.0,150.0,4.0,64.0
12713,70.0,33.0,150.0,4.0,64.0
12714,85.0,27.0,60.0,1.0,64.0
12715,73.0,3.0,60.0,2.0,64.0
12716,85.0,38.0,60.0,1.0,64.0
12717,73.0,37.0,60.0,2.0,64.0
12718,65.0,1.0,240.0,4.0,64.0
12719,68.0,36.0,240.0,4.0,64.0
12720,85.0,39.0,60.0,1.0,64.0
12721,73.0,37.0,60.0,2.0,64.0
12722,85.0,39.0,60.0,1.0,64.0
12723,73.0,1.0,60.0,2.0,64.0
12724,85.0,36.0,60.0,1.0,64.0
12725,73.0,11.0,60.0,2.0,64.0
12726,70.0,26.0,90.0,4.0,64.0
12727,66.0,0.0,90.0,4.0,64.0
12728,85.0,38.0,60.0,1.0,64.0
12729,73.0,39.0,60.0,2.0,64.0
12730,68.0,10.0,150.0,4.0,64.0
12731,71.0,0.0,150.0,2.0,64.0
12732,85.0,27.0,60.0,1.0,64.0
12733,73.0,40.0,60.0,2.0,64.0
12734,85.0,38.0,60.0,1.0,64.0
12735,73.0,36.0,90.0,2.0,64.0
12736,71.0,33.0,150.0,2.0,64.0
12737,68.0,0.0,150.0,4.0,64.0
12738,85.0,39.0,60.0,1.0,64.0
12739,73.0,5.0,60.0,2.0,64.0
12740,85.0,37.0,60.0,1.0,64.0
12741,70.0,2.0,300.0,4.0,64.0
12742,73.0,38.0,60.0,2.0,64.0
12743,66.0,1.0,300.0,4.0,64.0
12744,85.0,37.0,60.0,1.0,64.0
12745,73.0,38.0,60.0,2.0,64.0
12746,85.0,38.0,60.0,1.0,64.0
12747,74.0,37.0,60.0,2.0,64.0
12748,86.0,34.0,60.0,1.0,64.0
12749,74.0,40.0,60.0,2.0,64.0
12750,86.0,36.0,60.0,1.0,64.0
12751,75.0,39.0,60.0,2.0,64.0
12752,59.0,5.0,300.0,4.0,64.0
12753,71.0,0.0,300.0,2.0,64.0
12754,87.0,38.0,60.0,1.0,64.0
12755,75.0,38.0,60.0,2.0,64.0
12756,87.0,39.0,90.0,1.0,64.0
12757,80.0,27.0,90.0,2.0,64.0
12758,92.0,46.0,60.0,1.0,64.0
12759,80.0,28.0,90.0,2.0,64.0
12760,92.0,136.0,60.0,1.0,64.0
12761,90.0,0.0,150.0,1.0,64.0
12762,70.0,150.0,150.0,4.0,64.0
12763,78.0,0.0,150.0,2.0,64.0
12764,61.0,1.0,150.0,4.0,64.0
12765,89.0,6.0,150.0,1.0,64.0
12766,77.0,67.0,150.0,2.0,64.0
12767,68.0,1.0,150.0,4.0,64.0
12768,61.0,41.0,60.0,4.0,64.0
12769,73.0,38.0,60.0,2.0,64.0
12770,61.0,38.0,60.0,4.0,64.0
12771,73.0,40.0,60.0,2.0,64.0
12772,80.0,5.0,150.0,2.0,64.0
12773,77.0,31.0,150.0,2.0,64.0
12774,59.0,40.0,60.0,4.0,64.0
12775,71.0,40.0,60.0,2.0,64.0
12776,59.0,4.0,60.0,4.0,64.0
12777,71.0,38.0,60.0,2.0,64.0
12778,73.0,30.0,150.0,2.0,64.0
12779,58.0,40.0,60.0,4.0,64.0
12780,70.0,38.0,60.0,4.0,64.0
12781,85.0,31.0,150.0,1.0,64.0
12782,58.0,9.0,60.0,4.0,64.0
12783,70.0,39.0,60.0,4.0,64.0
12784,56.0,8.0,60.0,4.0,64.0
12785,77.0,31.0,150.0,2.0,64.0
12786,68.0,38.0,60.0,4.0,64.0
12787,83.0,31.0,150.0,1.0,64.0
12788,56.0,8.0,60.0,4.0,64.0
12789,68.0,39.0,60.0,4.0,64.0
12790,78.0,31.0,150.0,2.0,64.0
12791,54.0,8.0,60.0,4.0,64.0
12792,66.0,37.0,60.0,4.0,64.0
12793,82.0,31.0,150.0,1.0,64.0
12794,54.0,9.0,60.0,4.0,64.0
12795,66.0,38.0,60.0,4.0,64.0
12796,74.0,28.0,150.0,2.0,64.0
12797,53.0,9.0,60.0,4.0,64.0
12798,65.0,38.0,60.0,4.0,64.0
12799,80.0,5.0,150.0,2.0,64.0
12800,53.0,9.0,60.0,4.0,64.0
12801,65.0,37.0,60.0,4.0,64.0
12802,51.0,9.0,60.0,4.0,64.0
12803,75.0,23.0,90.0,2.0,64.0
12804,63.0,39.0,60.0,4.0,64.0
12805,78.0,25.0,90.0,2.0,64.0
12806,51.0,14.0,60.0,4.0,64.0
12807,63.0,39.0,60.0,4.0,64.0
12808,76.0,23.0,90.0,2.0,64.0
12809,49.0,14.0,60.0,4.0,64.0
12810,61.0,37.0,60.0,4.0,64.0
12811,79.0,31.0,150.0,2.0,64.0
12812,49.0,38.0,60.0,4.0,64.0
12813,61.0,38.0,60.0,4.0,64.0
12814,75.0,29.0,150.0,2.0,64.0
12815,48.0,7.0,60.0,4.0,64.0
12816,60.0,38.0,60.0,4.0,64.0
12817,80.0,28.0,150.0,2.0,64.0
12818,48.0,9.0,60.0,4.0,64.0
12819,60.0,38.0,60.0,4.0,64.0
12820,72.0,31.0,150.0,2.0,64.0
12821,44.0,9.0,60.0,4.0,64.0
12822,56.0,39.0,60.0,4.0,64.0
12823,44.0,8.0,60.0,4.0,64.0
12824,78.0,32.0,120.0,2.0,64.0
12825,56.0,6.0,60.0,4.0,64.0
12826,61.0,4.0,300.0,4.0,64.0
12827,65.0,38.0,60.0,4.0,64.0
12828,77.0,38.0,60.0,2.0,64.0
12829,65.0,40.0,60.0,4.0,64.0
12830,77.0,39.0,60.0,2.0,64.0
12831,68.0,33.0,60.0,4.0,64.0
12832,53.0,25.0,150.0,4.0,64.0
12833,80.0,44.0,60.0,2.0,64.0
12834,68.0,5.0,60.0,4.0,64.0
12835,80.0,38.0,60.0,2.0,64.0
12836,60.0,40.0,60.0,4.0,64.0
12837,56.0,33.0,150.0,4.0,64.0
12838,72.0,39.0,60.0,2.0,64.0
12839,60.0,8.0,60.0,4.0,64.0
12840,72.0,36.0,60.0,2.0,64.0
12841,63.0,41.0,60.0,4.0,64.0
12842,44.0,31.0,150.0,4.0,64.0
12843,75.0,38.0,60.0,2.0,64.0
12844,63.0,9.0,60.0,4.0,64.0
12845,75.0,169.0,60.0,2.0,64.0
12846,61.0,198.0,210.0,4.0,64.0
12847,73.0,0.0,210.0,2.0,64.0
12848,49.0,1.0,210.0,4.0,64.0
12849,37.0,26.0,240.0,4.0,64.0
12850,70.0,14.0,90.0,4.0,64.0
12851,82.0,41.0,60.0,1.0,64.0
12852,70.0,6.0,60.0,4.0,64.0
12853,82.0,76.0,30.0,1.0,64.0
12854,82.0,30.0,180.0,1.0,64.0
12855,85.0,9.0,150.0,1.0,64.0
12856,68.0,43.0,60.0,4.0,64.0
12857,80.0,40.0,90.0,2.0,64.0
12858,68.0,0.0,60.0,4.0,64.0
12859,80.0,39.0,60.0,2.0,64.0
12860,85.0,1.0,150.0,1.0,64.0
12861,88.0,33.0,150.0,1.0,64.0
12862,67.0,40.0,60.0,4.0,64.0
12863,79.0,40.0,60.0,2.0,64.0
12864,67.0,7.0,60.0,4.0,64.0
12865,79.0,40.0,60.0,2.0,64.0
12866,87.0,31.0,150.0,1.0,64.0
12867,84.0,1.0,150.0,1.0,64.0
12868,68.0,40.0,60.0,4.0,64.0
12869,80.0,41.0,60.0,2.0,64.0
12870,68.0,7.0,60.0,4.0,64.0
12871,80.0,40.0,60.0,2.0,64.0
12872,83.0,1.0,180.0,1.0,64.0
12873,86.0,32.0,180.0,1.0,64.0
12874,65.0,41.0,60.0,4.0,64.0
12875,77.0,41.0,60.0,2.0,64.0
12876,65.0,8.0,90.0,4.0,64.0
12877,77.0,40.0,90.0,2.0,64.0
12878,85.0,0.0,180.0,1.0,64.0
12879,82.0,79.0,150.0,1.0,64.0
12880,66.0,40.0,60.0,4.0,64.0
12881,78.0,45.0,60.0,2.0,64.0
12882,66.0,4.0,60.0,4.0,64.0
12883,78.0,1.0,30.0,2.0,64.0
12884,78.0,14.0,90.0,2.0,64.0
12885,60.0,37.0,90.0,4.0,64.0
12886,90.0,6.0,90.0,1.0,64.0
12887,72.0,26.0,90.0,2.0,64.0
12888,77.0,15.0,90.0,2.0,64.0
12889,61.0,34.0,90.0,4.0,64.0
12890,89.0,6.0,90.0,1.0,64.0
12891,73.0,25.0,90.0,2.0,64.0
12892,76.0,15.0,60.0,2.0,64.0
12893,58.0,35.0,90.0,4.0,64.0
12894,88.0,6.0,90.0,1.0,64.0
12895,70.0,27.0,90.0,4.0,64.0
12896,75.0,14.0,90.0,2.0,64.0
12897,59.0,17.0,90.0,4.0,64.0
12898,87.0,23.0,60.0,1.0,64.0
12899,71.0,27.0,90.0,2.0,64.0
12900,75.0,17.0,90.0,2.0,64.0
12901,57.0,34.0,90.0,4.0,64.0
12902,87.0,6.0,90.0,1.0,64.0
12903,69.0,27.0,90.0,4.0,64.0
12904,74.0,16.0,90.0,2.0,64.0
12905,58.0,35.0,90.0,4.0,64.0
12906,86.0,7.0,90.0,1.0,64.0
12907,70.0,27.0,90.0,4.0,64.0
12908,73.0,15.0,90.0,2.0,64.0
12909,55.0,36.0,90.0,4.0,64.0
12910,85.0,6.0,90.0,1.0,64.0
12911,67.0,25.0,90.0,4.0,64.0
12912,56.0,33.0,90.0,4.0,64.0
12913,72.0,15.0,90.0,2.0,64.0
12914,84.0,8.0,90.0,1.0,64.0
12915,68.0,24.0,90.0,4.0,64.0
12916,65.0,0.0,150.0,4.0,64.0
12917,71.0,34.0,60.0,2.0,64.0
12918,62.0,34.0,150.0,4.0,64.0
12919,83.0,47.0,60.0,1.0,64.0
12920,71.0,1.0,60.0,2.0,64.0
12921,83.0,46.0,60.0,1.0,64.0
12922,66.0,33.0,150.0,4.0,64.0
12923,70.0,36.0,60.0,4.0,64.0
12924,82.0,46.0,60.0,1.0,64.0
12925,70.0,1.0,60.0,4.0,64.0
12926,82.0,42.0,60.0,1.0,64.0
12927,63.0,0.0,15.0,4.0,64.0
12928,59.0,31.0,150.0,4.0,64.0
12929,68.0,40.0,60.0,4.0,64.0
12930,80.0,41.0,60.0,2.0,64.0
12931,68.0,8.0,60.0,4.0,64.0
12932,80.0,42.0,60.0,2.0,64.0
12933,60.0,32.0,180.0,4.0,64.0
12934,66.0,41.0,60.0,4.0,64.0
12935,78.0,42.0,60.0,2.0,64.0
12936,66.0,4.0,90.0,4.0,64.0
12937,78.0,58.0,90.0,2.0,64.0
12938,61.0,52.0,930.0,4.0,64.0
12939,65.0,42.0,90.0,4.0,64.0
12940,77.0,42.0,90.0,2.0,64.0
12941,66.0,39.0,90.0,4.0,64.0
12942,78.0,40.0,90.0,2.0,64.0
12943,67.0,42.0,90.0,4.0,64.0
12944,79.0,41.0,90.0,2.0,64.0
12945,68.0,40.0,90.0,4.0,64.0
12946,80.0,38.0,90.0,2.0,64.0
12947,69.0,41.0,90.0,4.0,64.0
12948,81.0,38.0,90.0,2.0,64.0
12949,70.0,41.0,90.0,4.0,64.0
12950,82.0,39.0,90.0,1.0,64.0
12951,71.0,40.0,90.0,2.0,64.0
12952,83.0,31.0,90.0,1.0,64.0
12953,72.0,281.0,90.0,2.0,64.0
12954,84.0,6.0,30.0,1.0,64.0
12955,73.0,20.0,330.0,2.0,64.0
12956,85.0,33.0,360.0,1.0,64.0
12957,61.0,39.0,60.0,4.0,64.0
12958,73.0,41.0,60.0,2.0,64.0
12959,61.0,38.0,60.0,4.0,64.0
12960,73.0,40.0,60.0,2.0,64.0
12961,80.0,6.0,150.0,2.0,64.0
12962,77.0,31.0,180.0,2.0,64.0
12963,59.0,42.0,60.0,4.0,64.0
12964,71.0,41.0,90.0,2.0,64.0
12965,59.0,3.0,60.0,4.0,64.0
12966,71.0,42.0,60.0,2.0,64.0
12967,73.0,30.0,180.0,2.0,64.0
12968,58.0,40.0,60.0,4.0,64.0
12969,70.0,40.0,60.0,4.0,64.0
12970,85.0,36.0,150.0,1.0,64.0
12971,58.0,11.0,60.0,4.0,64.0
12972,70.0,41.0,90.0,4.0,64.0
12973,56.0,3.0,60.0,4.0,64.0
12974,77.0,33.0,150.0,2.0,64.0
12975,68.0,42.0,60.0,4.0,64.0
12976,83.0,40.0,180.0,1.0,64.0
12977,56.0,9.0,60.0,4.0,64.0
12978,68.0,40.0,90.0,4.0,64.0
12979,78.0,33.0,180.0,2.0,64.0
12980,54.0,3.0,90.0,4.0,64.0
12981,66.0,42.0,90.0,4.0,64.0
12982,82.0,38.0,180.0,1.0,64.0
12983,54.0,9.0,90.0,4.0,64.0
12984,66.0,40.0,90.0,4.0,64.0
12985,74.0,32.0,180.0,2.0,64.0
12986,53.0,3.0,60.0,4.0,64.0
12987,65.0,44.0,90.0,4.0,64.0
12988,80.0,0.0,90.0,2.0,64.0
12989,53.0,9.0,90.0,4.0,64.0
12990,65.0,42.0,90.0,4.0,64.0
12991,78.0,31.0,180.0,2.0,64.0
12992,51.0,39.0,90.0,4.0,64.0
12993,75.0,1.0,180.0,2.0,64.0
12994,63.0,42.0,90.0,4.0,64.0
12995,90.0,38.0,180.0,1.0,64.0
12996,51.0,9.0,60.0,4.0,64.0
12997,63.0,41.0,90.0,4.0,64.0
12998,82.0,41.0,180.0,1.0,64.0
12999,49.0,5.0,90.0,4.0,64.0
13000,61.0,43.0,90.0,4.0,64.0
13001,88.0,41.0,180.0,1.0,64.0
13002,49.0,2.0,90.0,4.0,64.0
13003,61.0,42.0,90.0,4.0,64.0
13004,83.0,40.0,180.0,1.0,64.0
13005,47.0,1.0,90.0,4.0,64.0
13006,59.0,41.0,90.0,4.0,64.0
13007,87.0,38.0,180.0,1.0,64.0
13008,47.0,1.0,90.0,4.0,64.0
13009,59.0,41.0,90.0,4.0,64.0
13010,46.0,2.0,90.0,4.0,64.0
13011,78.0,24.0,180.0,2.0,64.0
13012,58.0,41.0,60.0,4.0,64.0
13013,86.0,6.0,120.0,1.0,64.0
13014,46.0,8.0,60.0,4.0,64.0
13015,58.0,41.0,60.0,4.0,64.0
13016,75.0,34.0,60.0,2.0,64.0
13017,47.0,28.0,300.0,4.0,64.0
13018,59.0,0.0,300.0,4.0,64.0
13019,87.0,46.0,60.0,1.0,64.0
13020,75.0,33.0,60.0,2.0,64.0
13021,87.0,44.0,60.0,1.0,64.0
13022,68.0,34.0,60.0,4.0,64.0
13023,80.0,45.0,60.0,2.0,64.0
13024,68.0,6.0,60.0,4.0,64.0
13025,80.0,46.0,60.0,2.0,64.0
13026,49.0,1.0,330.0,4.0,64.0
13027,61.0,27.0,330.0,4.0,64.0
13028,71.0,35.0,60.0,2.0,64.0
13029,83.0,46.0,60.0,1.0,64.0
13030,71.0,35.0,60.0,2.0,64.0
13031,83.0,41.0,60.0,1.0,64.0
13032,65.0,41.0,60.0,4.0,64.0
13033,77.0,40.0,60.0,2.0,64.0
13034,65.0,12.0,60.0,4.0,64.0
13035,77.0,247.0,60.0,2.0,64.0
13036,66.0,0.0,270.0,4.0,64.0
13037,78.0,115.0,270.0,2.0,64.0
13038,54.0,1.0,270.0,4.0,64.0
13039,42.0,29.0,240.0,4.0,64.0
13040,70.0,13.0,90.0,4.0,64.0
13041,82.0,43.0,90.0,1.0,64.0
13042,70.0,82.0,90.0,4.0,64.0
13043,82.0,0.0,30.0,1.0,64.0
13044,85.0,7.0,150.0,1.0,64.0
13045,82.0,35.0,180.0,1.0,64.0
13046,68.0,85.0,60.0,4.0,64.0
13047,80.0,42.0,150.0,2.0,64.0
13048,68.0,0.0,90.0,4.0,64.0
13049,88.0,33.0,180.0,1.0,64.0
13050,67.0,42.0,90.0,4.0,64.0
13051,85.0,1.0,180.0,1.0,64.0
13052,79.0,42.0,90.0,2.0,64.0
13053,67.0,9.0,90.0,4.0,64.0
13054,79.0,44.0,90.0,2.0,64.0
13055,87.0,33.0,180.0,1.0,64.0
13056,84.0,1.0,180.0,1.0,64.0
13057,68.0,40.0,90.0,4.0,64.0
13058,80.0,44.0,90.0,2.0,64.0
13059,68.0,8.0,90.0,4.0,64.0
13060,80.0,42.0,90.0,2.0,64.0
13061,83.0,1.0,180.0,1.0,64.0
13062,86.0,31.0,180.0,1.0,64.0
13063,65.0,44.0,90.0,4.0,64.0
13064,77.0,40.0,90.0,2.0,64.0
13065,65.0,9.0,90.0,4.0,64.0
13066,77.0,44.0,60.0,2.0,64.0
13067,85.0,59.0,210.0,1.0,64.0
13068,82.0,0.0,210.0,1.0,64.0
13069,66.0,42.0,90.0,4.0,64.0
13070,78.0,91.0,90.0,2.0,64.0
13071,66.0,6.0,120.0,4.0,64.0
13072,78.0,1.0,30.0,2.0,64.0
13073,60.0,41.0,90.0,4.0,64.0
13074,72.0,26.0,90.0,2.0,64.0
13075,90.0,0.0,90.0,1.0,64.0
13076,77.0,9.0,90.0,2.0,64.0
13077,61.0,39.0,90.0,4.0,64.0
13078,89.0,25.0,90.0,1.0,64.0
13079,73.0,1.0,90.0,2.0,64.0
13080,76.0,15.0,60.0,2.0,64.0
13081,58.0,40.0,90.0,4.0,64.0
13082,70.0,26.0,90.0,4.0,64.0
13083,88.0,0.0,90.0,1.0,64.0
13084,75.0,14.0,60.0,2.0,64.0
13085,59.0,27.0,90.0,4.0,64.0
13086,87.0,15.0,60.0,1.0,64.0
13087,71.0,25.0,90.0,2.0,64.0
13088,75.0,16.0,60.0,2.0,64.0
13089,57.0,41.0,90.0,4.0,64.0
13090,87.0,25.0,90.0,1.0,64.0
13091,69.0,1.0,90.0,4.0,64.0
13092,74.0,17.0,60.0,2.0,64.0
13093,58.0,41.0,90.0,4.0,64.0
13094,86.0,0.0,90.0,1.0,64.0
13095,70.0,26.0,90.0,4.0,64.0
13096,73.0,14.0,90.0,2.0,64.0
13097,55.0,43.0,90.0,4.0,64.0
13098,85.0,26.0,90.0,1.0,64.0
13099,67.0,1.0,90.0,4.0,64.0
13100,72.0,12.0,90.0,2.0,64.0
13101,56.0,43.0,90.0,4.0,64.0
13102,84.0,23.0,90.0,1.0,64.0
13103,68.0,2.0,60.0,4.0,64.0
13104,71.0,41.0,60.0,2.0,64.0
13105,62.0,1.0,180.0,4.0,64.0
13106,65.0,25.0,180.0,4.0,64.0
13107,83.0,41.0,60.0,1.0,64.0
13108,71.0,9.0,60.0,2.0,64.0
13109,83.0,48.0,90.0,1.0,64.0
13110,70.0,35.0,60.0,4.0,64.0
13111,66.0,26.0,150.0,4.0,64.0
13112,63.0,8.0,150.0,4.0,64.0
13113,82.0,46.0,90.0,1.0,64.0
13114,70.0,0.0,60.0,4.0,64.0
13115,82.0,47.0,60.0,1.0,64.0
13116,63.0,26.0,180.0,4.0,64.0
13117,68.0,34.0,90.0,4.0,64.0
13118,59.0,1.0,150.0,4.0,64.0
13119,80.0,46.0,60.0,2.0,64.0
13120,68.0,9.0,60.0,4.0,64.0
13121,80.0,46.0,90.0,2.0,64.0
13122,66.0,36.0,60.0,4.0,64.0
13123,60.0,27.0,150.0,4.0,64.0
13124,78.0,38.0,90.0,2.0,64.0
13125,66.0,16.0,60.0,4.0,64.0
13126,78.0,56.0,90.0,2.0,64.0
13127,65.0,40.0,90.0,4.0,64.0
13128,77.0,42.0,90.0,2.0,64.0
13129,66.0,41.0,90.0,4.0,64.0
13130,78.0,38.0,90.0,2.0,64.0
13131,67.0,40.0,90.0,4.0,64.0
13132,79.0,43.0,90.0,2.0,64.0
13133,68.0,38.0,90.0,4.0,64.0
13134,80.0,38.0,90.0,2.0,64.0
13135,69.0,41.0,90.0,4.0,64.0
13136,81.0,38.0,90.0,2.0,64.0
13137,70.0,39.0,90.0,4.0,64.0
13138,82.0,36.0,90.0,1.0,64.0
13139,71.0,38.0,90.0,2.0,64.0
13140,83.0,23.0,90.0,1.0,64.0
13141,72.0,265.0,90.0,2.0,64.0
13142,84.0,15.0,30.0,1.0,64.0
13143,85.0,0.0,270.0,1.0,64.0
13144,73.0,114.0,270.0,2.0,64.0
13145,61.0,40.0,60.0,4.0,64.0
13146,73.0,39.0,60.0,2.0,64.0
13147,61.0,38.0,60.0,4.0,64.0
13148,73.0,41.0,60.0,2.0,64.0
13149,77.0,29.0,180.0,2.0,64.0
13150,80.0,0.0,180.0,2.0,64.0
13151,59.0,6.0,60.0,4.0,64.0
13152,71.0,42.0,90.0,2.0,64.0
13153,59.0,9.0,90.0,4.0,64.0
13154,71.0,45.0,60.0,2.0,64.0
13155,73.0,33.0,180.0,2.0,64.0
13156,58.0,41.0,90.0,4.0,64.0
13157,70.0,42.0,90.0,4.0,64.0
13158,85.0,39.0,180.0,1.0,64.0
13159,58.0,10.0,90.0,4.0,64.0
13160,70.0,47.0,90.0,4.0,64.0
13161,77.0,32.0,180.0,2.0,64.0
13162,56.0,3.0,90.0,4.0,64.0
13163,68.0,42.0,90.0,4.0,64.0
13164,83.0,37.0,180.0,1.0,64.0
13165,56.0,9.0,90.0,4.0,64.0
13166,68.0,42.0,90.0,4.0,64.0
13167,78.0,34.0,180.0,2.0,64.0
13168,54.0,3.0,90.0,4.0,64.0
13169,66.0,42.0,90.0,4.0,64.0
13170,82.0,38.0,180.0,1.0,64.0
13171,54.0,9.0,90.0,4.0,64.0
13172,66.0,41.0,90.0,4.0,64.0
13173,74.0,32.0,180.0,2.0,64.0
13174,53.0,3.0,90.0,4.0,64.0
13175,65.0,42.0,90.0,4.0,64.0
13176,80.0,9.0,90.0,2.0,64.0
13177,53.0,1.0,60.0,4.0,64.0
13178,65.0,42.0,90.0,4.0,64.0
13179,78.0,0.0,180.0,2.0,64.0
13180,75.0,34.0,180.0,2.0,64.0
13181,51.0,42.0,90.0,4.0,64.0
13182,63.0,41.0,90.0,4.0,64.0
13183,90.0,40.0,180.0,1.0,64.0
13184,51.0,10.0,90.0,4.0,64.0
13185,63.0,40.0,90.0,4.0,64.0
13186,82.0,40.0,180.0,1.0,64.0
13187,49.0,1.0,90.0,4.0,64.0
13188,61.0,41.0,90.0,4.0,64.0
13189,88.0,40.0,180.0,1.0,64.0
13190,49.0,3.0,90.0,4.0,64.0
13191,61.0,40.0,90.0,4.0,64.0
13192,83.0,39.0,180.0,1.0,64.0
13193,47.0,1.0,90.0,4.0,64.0
13194,59.0,43.0,60.0,4.0,64.0
13195,87.0,40.0,180.0,1.0,64.0
13196,47.0,4.0,90.0,4.0,64.0
13197,59.0,40.0,90.0,4.0,64.0
13198,78.0,23.0,180.0,2.0,64.0
13199,46.0,3.0,60.0,4.0,64.0
13200,58.0,42.0,90.0,4.0,64.0
13201,86.0,6.0,120.0,1.0,64.0
13202,46.0,9.0,90.0,4.0,64.0
13203,58.0,41.0,60.0,4.0,64.0
13204,59.0,34.0,330.0,4.0,64.0
13205,75.0,35.0,60.0,2.0,64.0
13206,47.0,1.0,330.0,4.0,64.0
13207,87.0,44.0,60.0,1.0,64.0
13208,75.0,37.0,60.0,2.0,64.0
13209,87.0,42.0,60.0,1.0,64.0
13210,68.0,42.0,60.0,4.0,64.0
13211,80.0,38.0,60.0,2.0,64.0
13212,68.0,6.0,60.0,4.0,64.0
13213,80.0,41.0,60.0,2.0,64.0
13214,71.0,34.0,60.0,2.0,64.0
13215,49.0,1.0,330.0,4.0,64.0
13216,61.0,247.0,330.0,4.0,64.0
13217,83.0,40.0,60.0,1.0,64.0
13218,71.0,40.0,60.0,2.0,64.0
13219,83.0,43.0,60.0,1.0,64.0
13220,65.0,40.0,90.0,4.0,64.0
13221,77.0,36.0,60.0,2.0,64.0
13222,65.0,11.0,60.0,4.0,64.0
13223,77.0,1.0,30.0,2.0,64.0
13224,78.0,0.0,240.0,2.0,64.0
13225,54.0,321.0,240.0,4.0,64.0
13226,66.0,0.0,240.0,4.0,64.0
13227,42.0,206.0,420.0,4.0,64.0
13228,85.0,96.0,90.0,1.0,64.0
13229,83.0,88.0,90.0,1.0,64.0
13230,82.0,68.0,90.0,1.0,64.0
13231,80.0,37.0,90.0,2.0,64.0
13232,80.0,60.0,30.0,2.0,64.0
13233,66.0,44.0,90.0,4.0,64.0
13234,78.0,5.0,150.0,2.0,64.0
13235,70.0,40.0,90.0,4.0,64.0
13236,73.0,44.0,90.0,2.0,64.0
13237,70.0,42.0,90.0,4.0,64.0
13238,66.0,44.0,90.0,4.0,64.0
13239,78.0,25.0,270.0,2.0,64.0
13240,70.0,46.0,90.0,4.0,64.0
13241,73.0,45.0,90.0,2.0,64.0
13242,70.0,46.0,90.0,4.0,64.0
13243,63.0,9.0,90.0,4.0,64.0
13244,66.0,3.0,90.0,4.0,64.0
13245,70.0,3.0,90.0,4.0,64.0
13246,80.0,16.0,20.0,2.0,64.0
13247,78.0,24.0,20.0,2.0,64.0
13248,77.0,22.0,20.0,2.0,64.0
13249,66.0,46.0,90.0,4.0,64.0
13250,78.0,39.0,30.0,2.0,64.0
13251,80.0,36.0,90.0,2.0,64.0
13252,63.0,9.0,90.0,4.0,64.0
13253,66.0,42.0,90.0,4.0,64.0
13254,70.0,8.0,90.0,4.0,64.0
13255,82.0,36.0,90.0,1.0,64.0
13256,66.0,43.0,90.0,4.0,64.0
13257,80.0,35.0,90.0,2.0,64.0
13258,59.0,8.0,90.0,4.0,64.0
13259,63.0,44.0,90.0,4.0,64.0
13260,83.0,23.0,180.0,1.0,64.0
13261,68.0,44.0,90.0,4.0,64.0
13262,63.0,42.0,90.0,4.0,64.0
13263,59.0,22.0,90.0,4.0,64.0
13264,63.0,46.0,90.0,4.0,64.0
13265,68.0,14.0,90.0,4.0,64.0
13266,80.0,29.0,90.0,2.0,64.0
13267,63.0,42.0,90.0,4.0,64.0
13268,78.0,37.0,90.0,2.0,64.0
13269,61.0,6.0,90.0,4.0,64.0
13270,68.0,44.0,90.0,4.0,64.0
13271,77.0,39.0,90.0,2.0,64.0
13272,71.0,6.0,90.0,2.0,64.0
13273,68.0,46.0,90.0,4.0,64.0
13274,75.0,44.0,90.0,2.0,64.0
13275,61.0,2.0,90.0,4.0,64.0
13276,68.0,44.0,90.0,4.0,64.0
13277,71.0,0.0,90.0,2.0,64.0
13278,73.0,43.0,90.0,2.0,64.0
13279,68.0,42.0,90.0,4.0,64.0
13280,66.0,41.0,90.0,4.0,64.0
13281,70.0,23.0,90.0,4.0,64.0
13282,73.0,4.0,30.0,2.0,64.0
13283,85.0,75.0,90.0,1.0,64.0
13284,70.0,1.0,120.0,4.0,64.0
13285,82.0,38.0,90.0,1.0,64.0
13286,58.0,5.0,90.0,4.0,64.0
13287,61.0,43.0,90.0,4.0,64.0
13288,66.0,9.0,90.0,4.0,64.0
13289,78.0,31.0,90.0,2.0,64.0
13290,61.0,44.0,90.0,4.0,64.0
13291,59.0,8.0,90.0,4.0,64.0
13292,75.0,36.0,90.0,2.0,64.0
13293,63.0,43.0,90.0,4.0,64.0
13294,66.0,13.0,90.0,4.0,64.0
13295,90.0,31.0,90.0,1.0,64.0
13296,63.0,9.0,90.0,4.0,64.0
13297,59.0,4.0,90.0,4.0,64.0
13298,89.0,35.0,30.0,1.0,64.0
13299,63.0,4.0,90.0,4.0,64.0
13300,87.0,39.0,30.0,1.0,64.0
13301,85.0,41.0,30.0,1.0,64.0
13302,68.0,11.0,90.0,4.0,64.0
13303,83.0,33.0,60.0,1.0,64.0
13304,63.0,44.0,90.0,4.0,64.0
13305,61.0,45.0,90.0,4.0,64.0
13306,82.0,35.0,120.0,1.0,64.0
13307,66.0,7.0,90.0,4.0,64.0
13308,70.0,10.0,90.0,4.0,64.0
13309,85.0,32.0,60.0,1.0,64.0
13310,66.0,42.0,90.0,4.0,64.0
13311,61.0,45.0,90.0,4.0,64.0
13312,80.0,84.0,270.0,2.0,64.0
13313,65.0,42.0,90.0,4.0,64.0
13314,68.0,42.0,90.0,4.0,64.0
13315,65.0,55.0,90.0,4.0,64.0
13316,61.0,4.0,360.0,4.0,64.0
13317,82.0,91.0,90.0,1.0,64.0
13318,83.0,89.0,90.0,1.0,64.0
13319,84.0,73.0,90.0,1.0,64.0
13320,58.0,46.0,90.0,4.0,64.0
13321,85.0,31.0,180.0,1.0,64.0
13322,61.0,43.0,90.0,4.0,64.0
13323,66.0,14.0,90.0,4.0,64.0
13324,61.0,10.0,90.0,4.0,64.0
13325,58.0,6.0,90.0,4.0,64.0
13326,83.0,36.0,60.0,1.0,64.0
13327,82.0,42.0,60.0,1.0,64.0
13328,61.0,5.0,90.0,4.0,64.0
13329,80.0,41.0,60.0,2.0,64.0
13330,66.0,3.0,90.0,4.0,64.0
13331,78.0,41.0,60.0,2.0,64.0
13332,61.0,46.0,90.0,4.0,64.0
13333,57.0,44.0,90.0,4.0,64.0
13334,78.0,43.0,180.0,2.0,64.0
13335,61.0,46.0,90.0,4.0,64.0
13336,66.0,1.0,90.0,4.0,64.0
13337,61.0,46.0,90.0,4.0,64.0
13338,78.0,29.0,180.0,2.0,64.0
13339,57.0,44.0,90.0,4.0,64.0
13340,61.0,47.0,90.0,4.0,64.0
13341,66.0,13.0,90.0,4.0,64.0
13342,61.0,42.0,90.0,4.0,64.0
13343,56.0,42.0,90.0,4.0,64.0
13344,90.0,31.0,300.0,1.0,64.0
13345,60.0,44.0,90.0,4.0,64.0
13346,63.0,45.0,90.0,4.0,64.0
13347,60.0,43.0,90.0,4.0,64.0
13348,56.0,44.0,90.0,4.0,64.0
13349,60.0,13.0,90.0,4.0,64.0
13350,63.0,17.0,90.0,4.0,64.0
13351,60.0,44.0,90.0,4.0,64.0
13352,87.0,27.0,60.0,1.0,64.0
13353,56.0,45.0,90.0,4.0,64.0
13354,84.0,2.0,180.0,1.0,64.0
13355,60.0,44.0,90.0,4.0,64.0
13356,63.0,4.0,90.0,4.0,64.0
13357,60.0,80.0,60.0,4.0,64.0
13358,78.0,3.0,180.0,2.0,64.0
13359,60.0,44.0,90.0,4.0,64.0
13360,63.0,41.0,90.0,4.0,64.0
13361,68.0,46.0,90.0,4.0,64.0
13362,63.0,13.0,90.0,4.0,64.0
13363,77.0,46.0,60.0,2.0,64.0
13364,61.0,41.0,180.0,4.0,64.0
13365,78.0,44.0,60.0,2.0,64.0
13366,79.0,42.0,60.0,2.0,64.0
13367,80.0,0.0,60.0,2.0,64.0
13368,54.0,18.0,180.0,4.0,64.0
13369,81.0,48.0,60.0,2.0,64.0
13370,82.0,42.0,60.0,1.0,64.0
13371,84.0,25.0,60.0,1.0,64.0
13372,85.0,47.0,60.0,1.0,64.0
13373,61.0,8.0,150.0,4.0,64.0
13374,56.0,0.0,150.0,4.0,64.0
13375,77.0,40.0,60.0,2.0,64.0
13376,78.0,44.0,60.0,2.0,64.0
13377,79.0,23.0,60.0,2.0,64.0
13378,60.0,163.0,180.0,4.0,64.0
13379,80.0,49.0,15.0,2.0,64.0
13380,56.0,0.0,180.0,4.0,64.0
13381,78.0,44.0,60.0,2.0,64.0
13382,77.0,42.0,60.0,2.0,64.0
13383,75.0,6.0,60.0,2.0,64.0
13384,75.0,1.0,180.0,2.0,64.0
13385,66.0,0.0,180.0,4.0,64.0
13386,68.0,159.0,240.0,4.0,64.0
13387,49.0,3.0,720.0,4.0,64.0
13388,61.0,72.0,180.0,4.0,64.0
13389,65.0,43.0,360.0,4.0,64.0
13390,73.0,4.0,210.0,2.0,64.0
13391,84.0,43.0,60.0,1.0,64.0
13392,85.0,40.0,60.0,1.0,64.0
13393,87.0,27.0,60.0,1.0,64.0
13394,85.0,15.0,30.0,1.0,64.0
13395,85.0,46.0,60.0,1.0,64.0
13396,83.0,44.0,60.0,1.0,64.0
13397,82.0,36.0,60.0,1.0,64.0
13398,80.0,25.0,60.0,2.0,64.0
13399,66.0,42.0,90.0,4.0,64.0
13400,80.0,60.0,20.0,2.0,64.0
13401,78.0,2.0,150.0,2.0,64.0
13402,70.0,40.0,90.0,4.0,64.0
13403,73.0,42.0,90.0,2.0,64.0
13404,70.0,43.0,90.0,4.0,64.0
13405,66.0,44.0,90.0,4.0,64.0
13406,78.0,32.0,210.0,2.0,64.0
13407,70.0,42.0,90.0,4.0,64.0
13408,73.0,42.0,90.0,2.0,64.0
13409,70.0,10.0,90.0,4.0,64.0
13410,63.0,17.0,90.0,4.0,64.0
13411,66.0,17.0,90.0,4.0,64.0
13412,89.0,27.0,60.0,1.0,64.0
13413,70.0,17.0,90.0,4.0,64.0
13414,90.0,25.0,60.0,1.0,64.0
13415,66.0,28.0,90.0,4.0,64.0
13416,89.0,26.0,60.0,1.0,64.0
13417,63.0,31.0,90.0,4.0,64.0
13418,90.0,13.0,60.0,1.0,64.0
13419,66.0,30.0,90.0,4.0,64.0
13420,87.0,12.0,60.0,1.0,64.0
13421,70.0,35.0,90.0,4.0,64.0
13422,90.0,12.0,60.0,1.0,64.0
13423,66.0,48.0,90.0,4.0,64.0
13424,82.0,5.0,60.0,1.0,64.0
13425,59.0,36.0,60.0,4.0,64.0
13426,80.0,33.0,120.0,2.0,64.0
13427,63.0,8.0,90.0,4.0,64.0
13428,68.0,14.0,90.0,4.0,64.0
13429,79.0,28.0,60.0,2.0,64.0
13430,63.0,18.0,60.0,4.0,64.0
13431,59.0,15.0,90.0,4.0,64.0
13432,80.0,25.0,60.0,2.0,64.0
13433,63.0,15.0,90.0,4.0,64.0
13434,82.0,29.0,60.0,1.0,64.0
13435,68.0,14.0,90.0,4.0,64.0
13436,83.0,25.0,60.0,1.0,64.0
13437,63.0,36.0,90.0,4.0,64.0
13438,80.0,27.0,60.0,2.0,64.0
13439,61.0,39.0,60.0,4.0,64.0
13440,78.0,4.0,60.0,2.0,64.0
13441,68.0,40.0,60.0,4.0,64.0
13442,77.0,1.0,60.0,2.0,64.0
13443,71.0,37.0,60.0,2.0,64.0
13444,68.0,8.0,90.0,4.0,64.0
13445,61.0,7.0,120.0,4.0,64.0
13446,77.0,19.0,20.0,2.0,64.0
13447,75.0,8.0,20.0,2.0,64.0
13448,77.0,15.0,20.0,2.0,64.0
13449,75.0,14.0,20.0,2.0,64.0
13450,68.0,40.0,90.0,4.0,64.0
13451,77.0,13.0,20.0,2.0,64.0
13452,75.0,5.0,20.0,2.0,64.0
13453,77.0,4.0,20.0,2.0,64.0
13454,75.0,11.0,15.0,2.0,64.0
13455,71.0,20.0,15.0,2.0,64.0
13456,73.0,15.0,60.0,2.0,64.0
13457,68.0,62.0,60.0,4.0,64.0
13458,73.0,33.0,60.0,2.0,64.0
13459,66.0,4.0,60.0,4.0,64.0
13460,85.0,18.0,120.0,1.0,64.0
13461,70.0,40.0,60.0,4.0,64.0
13462,73.0,1.0,60.0,2.0,64.0
13463,70.0,37.0,90.0,4.0,64.0
13464,85.0,10.0,15.0,1.0,64.0
13465,58.0,4.0,90.0,4.0,64.0
13466,83.0,26.0,15.0,1.0,64.0
13467,82.0,10.0,60.0,1.0,64.0
13468,61.0,29.0,90.0,4.0,64.0
13469,82.0,33.0,15.0,1.0,64.0
13470,66.0,57.0,90.0,4.0,64.0
13471,80.0,13.0,30.0,2.0,64.0
13472,78.0,9.0,60.0,2.0,64.0
13473,61.0,20.0,210.0,4.0,64.0
13474,59.0,4.0,330.0,4.0,64.0
13475,75.0,55.0,60.0,2.0,64.0
13476,78.0,59.0,60.0,2.0,64.0
13477,77.0,5.0,90.0,2.0,64.0
13478,75.0,31.0,60.0,2.0,64.0
13479,77.0,39.0,30.0,2.0,64.0
13480,63.0,45.0,300.0,4.0,64.0
13481,78.0,33.0,30.0,2.0,64.0
13482,80.0,31.0,30.0,2.0,64.0
13483,82.0,36.0,30.0,1.0,64.0
13484,83.0,36.0,30.0,1.0,64.0
13485,66.0,23.0,300.0,4.0,64.0
13486,85.0,40.0,30.0,1.0,64.0
13487,87.0,44.0,30.0,1.0,64.0
13488,89.0,9.0,30.0,1.0,64.0
13489,90.0,44.0,60.0,1.0,64.0
13490,63.0,13.0,240.0,4.0,64.0
13491,89.0,39.0,60.0,1.0,64.0
13492,90.0,41.0,30.0,1.0,64.0
13493,89.0,24.0,60.0,1.0,64.0
13494,59.0,20.0,180.0,4.0,64.0
13495,92.0,48.0,30.0,1.0,64.0
13496,90.0,57.0,60.0,1.0,64.0
13497,63.0,17.0,150.0,4.0,64.0
13498,89.0,23.0,60.0,1.0,64.0
13499,87.0,45.0,60.0,1.0,64.0
13500,68.0,4.0,180.0,4.0,64.0
13501,89.0,21.0,60.0,1.0,64.0
13502,87.0,35.0,30.0,1.0,64.0
13503,85.0,41.0,30.0,1.0,64.0
13504,63.0,14.0,120.0,4.0,64.0
13505,83.0,47.0,30.0,1.0,64.0
13506,83.0,33.0,60.0,1.0,64.0
13507,61.0,14.0,90.0,4.0,64.0
13508,82.0,33.0,60.0,1.0,64.0
13509,66.0,14.0,90.0,4.0,64.0
13510,80.0,37.0,60.0,2.0,64.0
13511,70.0,14.0,90.0,4.0,64.0
13512,66.0,14.0,90.0,4.0,64.0
13513,83.0,29.0,60.0,1.0,64.0
13514,61.0,15.0,90.0,4.0,64.0
13515,84.0,29.0,60.0,1.0,64.0
13516,85.0,27.0,60.0,1.0,64.0
13517,65.0,40.0,90.0,4.0,64.0
13518,80.0,48.0,120.0,2.0,64.0
13519,68.0,40.0,60.0,4.0,64.0
13520,65.0,4.0,60.0,4.0,64.0
13521,61.0,58.0,360.0,4.0,64.0
13522,80.0,41.0,60.0,2.0,64.0
13523,79.0,42.0,60.0,2.0,64.0
13524,80.0,40.0,60.0,2.0,64.0
13525,81.0,42.0,60.0,2.0,64.0
13526,82.0,42.0,60.0,1.0,64.0
13527,83.0,45.0,60.0,1.0,64.0
13528,84.0,8.0,60.0,1.0,64.0
13529,58.0,38.0,60.0,4.0,64.0
13530,85.0,32.0,150.0,1.0,64.0
13531,61.0,35.0,60.0,4.0,64.0
13532,66.0,6.0,60.0,4.0,64.0
13533,61.0,4.0,60.0,4.0,64.0
13534,83.0,30.0,30.0,1.0,64.0
13535,58.0,4.0,60.0,4.0,64.0
13536,61.0,14.0,120.0,4.0,64.0
13537,82.0,35.0,30.0,1.0,64.0
13538,82.0,33.0,30.0,1.0,64.0
13539,66.0,14.0,180.0,4.0,64.0
13540,80.0,25.0,30.0,2.0,64.0
13541,82.0,7.0,30.0,1.0,64.0
13542,80.0,62.0,30.0,2.0,64.0
13543,78.0,62.0,90.0,2.0,64.0
13544,61.0,27.0,210.0,4.0,64.0
13545,57.0,18.0,270.0,4.0,64.0
13546,80.0,37.0,60.0,2.0,64.0
13547,78.0,36.0,60.0,2.0,64.0
13548,80.0,8.0,60.0,2.0,64.0
13549,78.0,36.0,60.0,2.0,64.0
13550,80.0,33.0,60.0,2.0,64.0
13551,61.0,5.0,240.0,4.0,64.0
13552,78.0,31.0,60.0,2.0,64.0
13553,80.0,15.0,30.0,2.0,64.0
13554,78.0,32.0,60.0,2.0,64.0
13555,80.0,29.0,60.0,2.0,64.0
13556,66.0,48.0,240.0,4.0,64.0
13557,78.0,33.0,30.0,2.0,64.0
13558,80.0,23.0,60.0,2.0,64.0
13559,78.0,29.0,30.0,2.0,64.0
13560,80.0,29.0,30.0,2.0,64.0
13561,61.0,16.0,240.0,4.0,64.0
13562,78.0,29.0,30.0,2.0,64.0
13563,77.0,27.0,30.0,2.0,64.0
13564,78.0,73.0,90.0,2.0,64.0
13565,57.0,4.0,300.0,4.0,64.0
13566,80.0,28.0,60.0,2.0,64.0
13567,78.0,44.0,60.0,2.0,64.0
13568,77.0,40.0,60.0,2.0,64.0
13569,61.0,26.0,330.0,4.0,64.0
13570,78.0,39.0,60.0,2.0,64.0
13571,79.0,36.0,30.0,2.0,64.0
13572,80.0,42.0,60.0,2.0,64.0
13573,81.0,39.0,60.0,2.0,64.0
13574,66.0,19.0,270.0,4.0,64.0
13575,82.0,40.0,60.0,1.0,64.0
13576,83.0,40.0,60.0,1.0,64.0
13577,84.0,8.0,60.0,1.0,64.0
13578,85.0,31.0,30.0,1.0,64.0
13579,86.0,26.0,30.0,1.0,64.0
13580,61.0,26.0,210.0,4.0,64.0
13581,87.0,28.0,30.0,1.0,64.0
13582,88.0,14.0,30.0,1.0,64.0
13583,89.0,67.0,30.0,1.0,64.0
13584,56.0,29.0,240.0,4.0,64.0
13585,90.0,33.0,30.0,1.0,64.0
13586,92.0,2.0,30.0,1.0,64.0
13587,90.0,32.0,30.0,1.0,64.0
13588,60.0,28.0,240.0,4.0,64.0
13589,92.0,29.0,30.0,1.0,64.0
13590,90.0,37.0,30.0,1.0,64.0
13591,92.0,0.0,60.0,1.0,64.0
13592,90.0,35.0,30.0,1.0,64.0
13593,63.0,59.0,210.0,4.0,64.0
13594,92.0,29.0,30.0,1.0,64.0
13595,90.0,32.0,30.0,1.0,64.0
13596,92.0,2.0,30.0,1.0,64.0
13597,90.0,23.0,30.0,1.0,64.0
13598,89.0,42.0,30.0,1.0,64.0
13599,60.0,25.0,180.0,4.0,64.0
13600,90.0,2.0,30.0,1.0,64.0
13601,89.0,27.0,30.0,1.0,64.0
13602,56.0,24.0,210.0,4.0,64.0
13603,87.0,30.0,30.0,1.0,64.0
13604,89.0,1.0,30.0,1.0,64.0
13605,87.0,31.0,30.0,1.0,64.0
13606,89.0,27.0,30.0,1.0,64.0
13607,60.0,22.0,210.0,4.0,64.0
13608,87.0,29.0,30.0,1.0,64.0
13609,89.0,2.0,30.0,1.0,64.0
13610,87.0,28.0,30.0,1.0,64.0
13611,63.0,36.0,180.0,4.0,64.0
13612,89.0,25.0,30.0,1.0,64.0
13613,87.0,29.0,30.0,1.0,64.0
13614,89.0,2.0,30.0,1.0,64.0
13615,87.0,27.0,30.0,1.0,64.0
13616,60.0,28.0,210.0,4.0,64.0
13617,86.0,50.0,30.0,1.0,64.0
13618,87.0,23.0,60.0,1.0,64.0
13619,85.0,31.0,30.0,1.0,64.0
13620,56.0,26.0,240.0,4.0,64.0
13621,84.0,32.0,60.0,1.0,64.0
13622,85.0,2.0,30.0,1.0,64.0
13623,84.0,30.0,30.0,1.0,64.0
13624,60.0,24.0,210.0,4.0,64.0
13625,85.0,31.0,30.0,1.0,64.0
13626,84.0,31.0,30.0,1.0,64.0
13627,85.0,2.0,30.0,1.0,64.0
13628,84.0,30.0,30.0,1.0,64.0
13629,63.0,37.0,180.0,4.0,64.0
13630,85.0,25.0,30.0,1.0,64.0
13631,84.0,28.0,30.0,1.0,64.0
13632,85.0,2.0,30.0,1.0,64.0
13633,84.0,27.0,30.0,1.0,64.0
13634,60.0,2.0,60.0,4.0,64.0
13635,82.0,36.0,30.0,1.0,64.0
13636,84.0,23.0,60.0,1.0,64.0
13637,60.0,24.0,240.0,4.0,64.0
13638,80.0,29.0,30.0,2.0,64.0
13639,78.0,35.0,30.0,2.0,64.0
13640,80.0,30.0,30.0,2.0,64.0
13641,78.0,32.0,30.0,2.0,64.0
13642,63.0,20.0,210.0,4.0,64.0
13643,80.0,27.0,30.0,2.0,64.0
13644,78.0,31.0,30.0,2.0,64.0
13645,80.0,2.0,30.0,2.0,64.0
13646,78.0,27.0,30.0,2.0,64.0
13647,80.0,25.0,30.0,2.0,64.0
13648,68.0,38.0,180.0,4.0,64.0
13649,78.0,28.0,30.0,2.0,64.0
13650,80.0,1.0,30.0,2.0,64.0
13651,78.0,62.0,30.0,2.0,64.0
13652,63.0,37.0,210.0,4.0,64.0
13653,77.0,19.0,60.0,2.0,64.0
13654,78.0,53.0,60.0,2.0,64.0
13655,77.0,25.0,60.0,2.0,64.0
13656,61.0,33.0,420.0,4.0,64.0
13657,78.0,52.0,90.0,2.0,64.0
13658,77.0,53.0,60.0,2.0,64.0
13659,78.0,52.0,60.0,2.0,64.0
13660,79.0,64.0,60.0,2.0,64.0
13661,80.0,51.0,90.0,2.0,64.0
13662,79.0,18.0,60.0,2.0,64.0
13663,80.0,46.0,60.0,2.0,64.0
13664,54.0,58.0,390.0,4.0,64.0
13665,81.0,56.0,60.0,2.0,64.0
13666,82.0,50.0,60.0,1.0,64.0
13667,81.0,56.0,60.0,2.0,64.0
13668,82.0,50.0,60.0,1.0,64.0
13669,84.0,53.0,60.0,1.0,64.0
13670,85.0,46.0,60.0,1.0,64.0
13671,84.0,14.0,60.0,1.0,64.0
13672,85.0,31.0,90.0,1.0,64.0
13673,77.0,58.0,90.0,2.0,64.0
13674,56.0,7.0,240.0,4.0,64.0
13675,61.0,0.0,240.0,4.0,64.0
13676,78.0,57.0,60.0,2.0,64.0
13677,79.0,37.0,60.0,2.0,64.0
13678,80.0,68.0,60.0,2.0,64.0
13679,80.0,59.0,60.0,2.0,64.0
13680,56.0,7.0,240.0,4.0,64.0
13681,60.0,0.0,240.0,4.0,64.0
13682,78.0,64.0,60.0,2.0,64.0
13683,77.0,38.0,60.0,2.0,64.0
13684,75.0,222.0,60.0,2.0,64.0
13685,75.0,10.0,210.0,2.0,64.0
13686,68.0,159.0,300.0,4.0,64.0
13687,61.0,126.0,750.0,4.0,64.0
13688,66.0,76.0,210.0,4.0,64.0
13689,49.0,2.0,2340.0,4.0,64.0
13690,56.0,37.0,1560.0,4.0,64.0
13691,65.0,50.0,300.0,4.0,64.0
13692,73.0,45.0,240.0,2.0,64.0
13693,85.0,23.0,90.0,1.0,64.0
13694,87.0,84.0,90.0,1.0,64.0
13695,88.0,80.0,90.0,1.0,64.0
13696,80.0,25.0,90.0,2.0,64.0
13697,79.0,39.0,150.0,2.0,64.0
13698,73.0,2.0,180.0,2.0,64.0
13699,76.0,161.0,180.0,2.0,64.0
13700,80.0,14.0,180.0,2.0,64.0
13701,75.0,0.0,180.0,2.0,64.0
13702,72.0,46.0,180.0,2.0,64.0
13703,90.0,128.0,90.0,1.0,64.0
13704,77.0,201.0,150.0,2.0,64.0
13705,74.0,0.0,150.0,2.0,64.0
13706,71.0,1.0,150.0,2.0,64.0
13707,78.0,6.0,180.0,2.0,64.0
13708,73.0,54.0,180.0,2.0,64.0
13709,70.0,0.0,180.0,4.0,64.0
13710,85.0,4.0,90.0,1.0,64.0
13711,75.0,34.0,120.0,2.0,64.0
13712,78.0,19.0,180.0,2.0,64.0
13713,90.0,29.0,60.0,1.0,64.0
13714,90.0,40.0,90.0,1.0,64.0
13715,73.0,46.0,120.0,2.0,64.0
13716,89.0,44.0,90.0,1.0,64.0
13717,78.0,16.0,180.0,2.0,64.0
13718,71.0,44.0,90.0,2.0,64.0
13719,87.0,27.0,90.0,1.0,64.0
13720,70.0,43.0,90.0,4.0,64.0
13721,86.0,49.0,90.0,1.0,64.0
13722,78.0,17.0,180.0,2.0,64.0
13723,80.0,0.0,180.0,2.0,64.0
13724,71.0,43.0,90.0,2.0,64.0
13725,87.0,29.0,90.0,1.0,64.0
13726,70.0,46.0,90.0,4.0,64.0
13727,85.0,46.0,90.0,1.0,64.0
13728,78.0,18.0,180.0,2.0,64.0
13729,68.0,48.0,90.0,4.0,64.0
13730,83.0,29.0,90.0,1.0,64.0
13731,66.0,48.0,120.0,4.0,64.0
13732,82.0,35.0,120.0,1.0,64.0
13733,65.0,10.0,90.0,4.0,64.0
13734,85.0,33.0,120.0,1.0,64.0
13735,68.0,44.0,90.0,4.0,64.0
13736,83.0,11.0,150.0,1.0,64.0
13737,73.0,46.0,90.0,2.0,64.0
13738,68.0,31.0,90.0,4.0,64.0
13739,66.0,42.0,90.0,4.0,64.0
13740,70.0,48.0,90.0,4.0,64.0
13741,73.0,4.0,90.0,2.0,64.0
13742,82.0,38.0,90.0,1.0,64.0
13743,70.0,45.0,90.0,4.0,64.0
13744,65.0,4.0,90.0,4.0,64.0
13745,79.0,43.0,90.0,2.0,64.0
13746,68.0,44.0,90.0,4.0,64.0
13747,80.0,5.0,180.0,2.0,64.0
13748,73.0,45.0,90.0,2.0,64.0
13749,68.0,38.0,90.0,4.0,64.0
13750,63.0,47.0,90.0,4.0,64.0
13751,66.0,41.0,90.0,4.0,64.0
13752,78.0,6.0,90.0,2.0,64.0
13753,72.0,11.0,90.0,2.0,64.0
13754,66.0,41.0,60.0,4.0,64.0
13755,68.0,127.0,300.0,4.0,64.0
13756,73.0,98.0,210.0,2.0,64.0
13757,78.0,91.0,60.0,2.0,64.0
13758,61.0,8.0,570.0,4.0,64.0
13759,77.0,17.0,90.0,2.0,64.0
13760,82.0,25.0,60.0,1.0,64.0
13761,80.0,16.0,30.0,2.0,64.0
13762,80.0,52.0,240.0,2.0,64.0
13763,81.0,44.0,60.0,2.0,64.0
13764,82.0,39.0,60.0,1.0,64.0
13765,77.0,44.0,60.0,2.0,64.0
13766,78.0,45.0,60.0,2.0,64.0
13767,74.0,46.0,60.0,2.0,64.0
13768,75.0,50.0,60.0,2.0,64.0
13769,72.0,67.0,60.0,2.0,64.0
13770,75.0,55.0,90.0,2.0,64.0
13771,73.0,71.0,60.0,2.0,64.0
13772,73.0,87.0,60.0,2.0,64.0
13773,73.0,313.0,90.0,2.0,64.0
13774,73.0,94.0,300.0,2.0,64.0
13775,85.0,63.0,180.0,1.0,64.0
13776,85.0,75.0,30.0,1.0,64.0
13777,83.0,51.0,60.0,1.0,64.0
13778,83.0,64.0,60.0,1.0,64.0
13779,82.0,89.0,60.0,1.0,64.0
13780,82.0,55.0,60.0,1.0,64.0
13781,80.0,62.0,60.0,2.0,64.0
13782,66.0,50.0,90.0,4.0,64.0
13783,80.0,43.0,60.0,2.0,64.0
13784,78.0,2.0,180.0,2.0,64.0
13785,70.0,46.0,90.0,4.0,64.0
13786,73.0,50.0,90.0,2.0,64.0
13787,70.0,46.0,90.0,4.0,64.0
13788,66.0,48.0,90.0,4.0,64.0
13789,78.0,21.0,300.0,2.0,64.0
13790,70.0,48.0,90.0,4.0,64.0
13791,73.0,46.0,90.0,2.0,64.0
13792,70.0,50.0,90.0,4.0,64.0
13793,63.0,31.0,90.0,4.0,64.0
13794,66.0,14.0,120.0,4.0,64.0
13795,70.0,8.0,120.0,4.0,64.0
13796,80.0,16.0,30.0,2.0,64.0
13797,78.0,30.0,30.0,2.0,64.0
13798,66.0,48.0,90.0,4.0,64.0
13799,77.0,21.0,30.0,2.0,64.0
13800,78.0,33.0,30.0,2.0,64.0
13801,80.0,39.0,90.0,2.0,64.0
13802,63.0,6.0,90.0,4.0,64.0
13803,66.0,48.0,90.0,4.0,64.0
13804,70.0,9.0,90.0,4.0,64.0
13805,82.0,36.0,90.0,1.0,64.0
13806,66.0,50.0,90.0,4.0,64.0
13807,80.0,39.0,90.0,2.0,64.0
13808,59.0,8.0,90.0,4.0,64.0
13809,63.0,46.0,90.0,4.0,64.0
13810,87.0,31.0,180.0,1.0,64.0
13811,68.0,46.0,90.0,4.0,64.0
13812,63.0,50.0,90.0,4.0,64.0
13813,59.0,14.0,90.0,4.0,64.0
13814,63.0,42.0,90.0,4.0,64.0
13815,68.0,46.0,90.0,4.0,64.0
13816,83.0,15.0,60.0,1.0,64.0
13817,63.0,43.0,90.0,4.0,64.0
13818,80.0,1.0,60.0,2.0,64.0
13819,61.0,6.0,90.0,4.0,64.0
13820,77.0,40.0,90.0,2.0,64.0
13821,68.0,92.0,90.0,4.0,64.0
13822,71.0,36.0,180.0,2.0,64.0
13823,83.0,6.0,180.0,1.0,64.0
13824,68.0,44.0,90.0,4.0,64.0
13825,61.0,2.0,90.0,4.0,64.0
13826,68.0,32.0,90.0,4.0,64.0
13827,80.0,3.0,120.0,2.0,64.0
13828,71.0,52.0,60.0,2.0,64.0
13829,68.0,80.0,90.0,4.0,64.0
13830,71.0,12.0,60.0,2.0,64.0
13831,82.0,3.0,90.0,1.0,64.0
13832,66.0,70.0,570.0,4.0,64.0
13833,70.0,83.0,90.0,4.0,64.0
13834,83.0,0.0,90.0,1.0,64.0
13835,71.0,73.0,90.0,2.0,64.0
13836,72.0,69.0,90.0,2.0,64.0
13837,84.0,0.0,90.0,1.0,64.0
13838,85.0,64.0,90.0,1.0,64.0
13839,73.0,1.0,90.0,2.0,64.0
13840,86.0,61.0,60.0,1.0,64.0
13841,74.0,1.0,60.0,2.0,64.0
13842,75.0,74.0,60.0,2.0,64.0
13843,87.0,0.0,60.0,1.0,64.0
13844,89.0,45.0,90.0,1.0,64.0
13845,77.0,0.0,90.0,2.0,64.0
13846,90.0,8.0,120.0,1.0,64.0
13847,78.0,8.0,150.0,2.0,64.0
13848,61.0,36.0,300.0,4.0,64.0
13849,82.0,93.0,60.0,1.0,64.0
13850,82.0,34.0,60.0,1.0,64.0
13851,80.0,46.0,60.0,2.0,64.0
13852,66.0,28.0,300.0,4.0,64.0
13853,82.0,48.0,60.0,1.0,64.0
13854,80.0,35.0,60.0,2.0,64.0
13855,82.0,3.0,60.0,1.0,64.0
13856,80.0,36.0,60.0,2.0,64.0
13857,82.0,35.0,60.0,1.0,64.0
13858,68.0,32.0,270.0,4.0,64.0
13859,80.0,42.0,60.0,2.0,64.0
13860,82.0,2.0,60.0,1.0,64.0
13861,80.0,36.0,30.0,2.0,64.0
13862,66.0,25.0,270.0,4.0,64.0
13863,82.0,39.0,30.0,1.0,64.0
13864,80.0,39.0,60.0,2.0,64.0
13865,82.0,1.0,60.0,1.0,64.0
13866,80.0,42.0,60.0,2.0,64.0
13867,61.0,26.0,240.0,4.0,64.0
13868,82.0,29.0,60.0,1.0,64.0
13869,80.0,38.0,60.0,2.0,64.0
13870,82.0,2.0,60.0,1.0,64.0
13871,80.0,42.0,30.0,2.0,64.0
13872,65.0,26.0,240.0,4.0,64.0
13873,82.0,33.0,60.0,1.0,64.0
13874,80.0,32.0,60.0,2.0,64.0
13875,82.0,2.0,30.0,1.0,64.0
13876,80.0,38.0,30.0,2.0,64.0
13877,82.0,25.0,60.0,1.0,64.0
13878,68.0,35.0,210.0,4.0,64.0
13879,80.0,35.0,30.0,2.0,64.0
13880,82.0,2.0,30.0,1.0,64.0
13881,80.0,27.0,30.0,2.0,64.0
13882,82.0,23.0,30.0,1.0,64.0
13883,65.0,262.0,150.0,4.0,64.0
13884,80.0,32.0,30.0,2.0,64.0
13885,78.0,2.0,30.0,2.0,64.0
13886,80.0,12.0,60.0,2.0,64.0
13887,80.0,2.0,270.0,2.0,64.0
13888,71.0,1.0,270.0,2.0,64.0
13889,54.0,153.0,1080.0,4.0,64.0
13890,73.0,260.0,360.0,2.0,64.0
13891,66.0,93.0,270.0,4.0,64.0
13892,70.0,67.0,570.0,4.0,64.0
13893,78.0,3.0,360.0,2.0,64.0
13894,85.0,77.0,90.0,1.0,64.0
13895,84.0,71.0,90.0,1.0,64.0
13896,85.0,71.0,90.0,1.0,64.0
13897,87.0,1.0,90.0,1.0,64.0
13898,88.0,62.0,90.0,1.0,64.0
13899,82.0,54.0,60.0,1.0,64.0
13900,85.0,52.0,60.0,1.0,64.0
13901,80.0,16.0,60.0,2.0,64.0
13902,76.0,0.0,300.0,2.0,64.0
13903,78.0,62.0,180.0,2.0,64.0
13904,73.0,46.0,300.0,2.0,64.0
13905,80.0,60.0,60.0,2.0,64.0
13906,82.0,10.0,60.0,1.0,64.0
13907,80.0,78.0,60.0,2.0,64.0
13908,72.0,1.0,660.0,2.0,64.0
13909,75.0,25.0,660.0,2.0,64.0
13910,81.0,52.0,60.0,2.0,64.0
13911,82.0,50.0,60.0,1.0,64.0
13912,83.0,44.0,60.0,1.0,64.0
13913,84.0,88.0,60.0,1.0,64.0
13914,85.0,66.0,90.0,1.0,64.0
13915,86.0,118.0,120.0,1.0,64.0
13916,87.0,78.0,150.0,1.0,64.0
13917,84.0,33.0,150.0,1.0,64.0
13918,80.0,235.0,150.0,2.0,64.0
13919,77.0,73.0,300.0,2.0,64.0
13920,74.0,4.0,420.0,2.0,64.0
13921,71.0,1.0,420.0,2.0,64.0
13922,78.0,52.0,60.0,2.0,64.0
13923,80.0,47.0,60.0,2.0,64.0
13924,78.0,56.0,60.0,2.0,64.0
13925,70.0,43.0,540.0,4.0,64.0
13926,73.0,0.0,540.0,2.0,64.0
13927,82.0,50.0,60.0,1.0,64.0
13928,80.0,51.0,60.0,2.0,64.0
13929,78.0,48.0,60.0,2.0,64.0
13930,80.0,79.0,60.0,2.0,64.0
13931,82.0,100.0,90.0,1.0,64.0
13932,83.0,44.0,150.0,1.0,64.0
13933,85.0,37.0,120.0,1.0,64.0
13934,87.0,35.0,90.0,1.0,64.0
13935,89.0,4.0,90.0,1.0,64.0
13936,75.0,36.0,150.0,2.0,64.0
13937,90.0,51.0,60.0,1.0,64.0
13938,92.0,29.0,60.0,1.0,64.0
13939,78.0,7.0,120.0,2.0,64.0
13940,90.0,67.0,90.0,1.0,64.0
13941,73.0,35.0,120.0,2.0,64.0
13942,89.0,26.0,120.0,1.0,64.0
13943,78.0,6.0,90.0,2.0,64.0
13944,71.0,34.0,120.0,2.0,64.0
13945,89.0,42.0,20.0,1.0,64.0
13946,78.0,6.0,90.0,2.0,64.0
13947,87.0,69.0,90.0,1.0,64.0
13948,70.0,38.0,120.0,4.0,64.0
13949,78.0,5.0,120.0,2.0,64.0
13950,86.0,46.0,120.0,1.0,64.0
13951,71.0,37.0,120.0,2.0,64.0
13952,89.0,30.0,30.0,1.0,64.0
13953,78.0,6.0,120.0,2.0,64.0
13954,87.0,70.0,90.0,1.0,64.0
13955,70.0,34.0,120.0,4.0,64.0
13956,85.0,29.0,120.0,1.0,64.0
13957,78.0,8.0,90.0,2.0,64.0
13958,68.0,38.0,120.0,4.0,64.0
13959,85.0,42.0,30.0,1.0,64.0
13960,78.0,8.0,120.0,2.0,64.0
13961,83.0,76.0,90.0,1.0,64.0
13962,66.0,33.0,150.0,4.0,64.0
13963,82.0,28.0,120.0,1.0,64.0
13964,78.0,9.0,120.0,2.0,64.0
13965,85.0,61.0,90.0,1.0,64.0
13966,65.0,33.0,180.0,4.0,64.0
13967,68.0,71.0,150.0,4.0,64.0
13968,87.0,18.0,60.0,1.0,64.0
13969,85.0,5.0,60.0,1.0,64.0
13970,83.0,3.0,210.0,1.0,64.0
13971,73.0,36.0,120.0,2.0,64.0
13972,68.0,51.0,90.0,4.0,64.0
13973,66.0,56.0,90.0,4.0,64.0
13974,70.0,56.0,90.0,4.0,64.0
13975,82.0,49.0,120.0,1.0,64.0
13976,73.0,6.0,90.0,2.0,64.0
13977,70.0,57.0,90.0,4.0,64.0
13978,79.0,50.0,120.0,2.0,64.0
13979,65.0,6.0,90.0,4.0,64.0
13980,68.0,60.0,90.0,4.0,64.0
13981,80.0,92.0,120.0,2.0,64.0
13982,73.0,17.0,120.0,2.0,64.0
13983,68.0,35.0,180.0,4.0,64.0
13984,63.0,22.0,300.0,4.0,64.0
13985,82.0,29.0,60.0,1.0,64.0
13986,84.0,52.0,60.0,1.0,64.0
13987,66.0,21.0,240.0,4.0,64.0
13988,85.0,46.0,60.0,1.0,64.0
13989,87.0,21.0,60.0,1.0,64.0
13990,89.0,43.0,60.0,1.0,64.0
13991,72.0,18.0,240.0,2.0,64.0
13992,90.0,38.0,60.0,1.0,64.0
13993,87.0,17.0,30.0,1.0,64.0
13994,84.0,40.0,30.0,1.0,64.0
13995,66.0,53.0,180.0,4.0,64.0
13996,80.0,59.0,30.0,2.0,64.0
13997,82.0,23.0,60.0,1.0,64.0
13998,78.0,26.0,60.0,2.0,64.0
13999,78.0,62.0,60.0,2.0,64.0
14000,73.0,11.0,480.0,2.0,64.0
14001,61.0,23.0,990.0,4.0,64.0
14002,68.0,14.0,480.0,4.0,64.0
14003,77.0,67.0,60.0,2.0,64.0
14004,82.0,69.0,60.0,1.0,64.0
14005,80.0,206.0,60.0,2.0,64.0
14006,80.0,284.0,240.0,2.0,64.0
14007,68.0,103.0,270.0,4.0,64.0
14008,69.0,64.0,90.0,4.0,64.0
14009,70.0,42.0,90.0,4.0,64.0
14010,65.0,68.0,90.0,4.0,64.0
14011,66.0,66.0,90.0,4.0,64.0
14012,62.0,70.0,90.0,4.0,64.0
14013,63.0,60.0,90.0,4.0,64.0
14014,60.0,69.0,90.0,4.0,64.0
14015,63.0,37.0,90.0,4.0,64.0
14016,49.0,215.0,270.0,4.0,64.0
14017,53.0,0.0,270.0,4.0,64.0
14018,61.0,65.0,60.0,4.0,64.0
14019,61.0,67.0,60.0,4.0,64.0
14020,61.0,1.0,60.0,4.0,64.0
14021,53.0,0.0,1230.0,4.0,64.0
14022,61.0,151.0,210.0,4.0,64.0
14023,49.0,27.0,1200.0,4.0,64.0
14024,63.0,73.0,120.0,4.0,64.0
14025,65.0,62.0,120.0,4.0,64.0
14026,66.0,52.0,90.0,4.0,64.0
14027,68.0,49.0,90.0,4.0,64.0
14028,70.0,47.0,60.0,4.0,64.0
14029,72.0,46.0,60.0,2.0,64.0
14030,73.0,40.0,60.0,2.0,64.0
14031,75.0,41.0,60.0,2.0,64.0
14032,77.0,39.0,60.0,2.0,64.0
14033,78.0,36.0,60.0,2.0,64.0
14034,80.0,37.0,60.0,2.0,64.0
14035,82.0,34.0,60.0,1.0,64.0
14036,84.0,35.0,60.0,1.0,64.0
14037,85.0,36.0,60.0,1.0,64.0
14038,87.0,37.0,60.0,1.0,64.0
14039,89.0,49.0,60.0,1.0,64.0
14040,90.0,68.0,60.0,1.0,64.0
14041,65.0,0.0,300.0,4.0,64.0
14042,61.0,8.0,300.0,4.0,64.0
14043,92.0,75.0,60.0,1.0,64.0
14044,90.0,4.0,60.0,1.0,64.0
14045,90.0,23.0,30.0,1.0,64.0
14046,89.0,22.0,30.0,1.0,64.0
14047,90.0,28.0,30.0,1.0,64.0
14048,89.0,55.0,30.0,1.0,64.0
14049,87.0,29.0,90.0,1.0,64.0
14050,87.0,22.0,30.0,1.0,64.0
14051,65.0,0.0,330.0,4.0,64.0
14052,61.0,97.0,330.0,4.0,64.0
14053,85.0,25.0,30.0,1.0,64.0
14054,87.0,19.0,30.0,1.0,64.0
14055,85.0,73.0,30.0,1.0,64.0
14056,83.0,30.0,90.0,1.0,64.0
14057,83.0,22.0,30.0,1.0,64.0
14058,82.0,21.0,30.0,1.0,64.0
14059,83.0,19.0,30.0,1.0,64.0
14060,82.0,67.0,20.0,1.0,64.0
14061,80.0,2.0,60.0,2.0,64.0
14062,66.0,9.0,150.0,4.0,64.0
14063,80.0,65.0,90.0,2.0,64.0
14064,70.0,67.0,120.0,4.0,64.0
14065,78.0,59.0,60.0,2.0,64.0
14066,73.0,65.0,120.0,2.0,64.0
14067,78.0,55.0,270.0,2.0,64.0
14068,70.0,67.0,120.0,4.0,64.0
14069,66.0,8.0,120.0,4.0,64.0
14070,70.0,67.0,120.0,4.0,64.0
14071,73.0,73.0,120.0,2.0,64.0
14072,78.0,37.0,210.0,2.0,64.0
14073,70.0,16.0,120.0,4.0,64.0
14074,63.0,17.0,180.0,4.0,64.0
14075,66.0,10.0,180.0,4.0,64.0
14076,90.0,25.0,30.0,1.0,64.0
14077,89.0,23.0,30.0,1.0,64.0
14078,90.0,4.0,30.0,1.0,64.0
14079,89.0,67.0,30.0,1.0,64.0
14080,90.0,40.0,90.0,1.0,64.0
14081,70.0,9.0,180.0,4.0,64.0
14082,90.0,25.0,30.0,1.0,64.0
14083,66.0,2.0,180.0,4.0,64.0
14084,89.0,21.0,30.0,1.0,64.0
14085,90.0,12.0,30.0,1.0,64.0
14086,89.0,73.0,30.0,1.0,64.0
14087,90.0,37.0,90.0,1.0,64.0
14088,63.0,4.0,180.0,4.0,64.0
14089,89.0,21.0,30.0,1.0,64.0
14090,66.0,96.0,180.0,4.0,64.0
14091,87.0,25.0,30.0,1.0,64.0
14092,89.0,19.0,30.0,1.0,64.0
14093,87.0,77.0,30.0,1.0,64.0
14094,90.0,4.0,90.0,1.0,64.0
14095,70.0,88.0,180.0,4.0,64.0
14096,82.0,41.0,180.0,1.0,64.0
14097,66.0,64.0,240.0,4.0,64.0
14098,59.0,62.0,180.0,4.0,64.0
14099,80.0,10.0,120.0,2.0,64.0
14100,83.0,12.0,60.0,1.0,64.0
14101,87.0,35.0,360.0,1.0,64.0
14102,63.0,59.0,120.0,4.0,64.0
14103,68.0,64.0,120.0,4.0,64.0
14104,63.0,54.0,120.0,4.0,64.0
14105,59.0,46.0,120.0,4.0,64.0
14106,63.0,47.0,120.0,4.0,64.0
14107,68.0,9.0,360.0,4.0,64.0
14108,85.0,58.0,90.0,1.0,64.0
14109,83.0,61.0,90.0,1.0,64.0
14110,63.0,72.0,390.0,4.0,64.0
14111,82.0,67.0,90.0,1.0,64.0
14112,80.0,43.0,90.0,2.0,64.0
14113,78.0,87.0,60.0,2.0,64.0
14114,77.0,30.0,90.0,2.0,64.0
14115,61.0,70.0,210.0,4.0,64.0
14116,80.0,35.0,60.0,2.0,64.0
14117,83.0,6.0,450.0,1.0,64.0
14118,65.0,68.0,120.0,4.0,64.0
14119,68.0,69.0,120.0,4.0,64.0
14120,65.0,67.0,120.0,4.0,64.0
14121,61.0,65.0,120.0,4.0,64.0
14122,65.0,59.0,120.0,4.0,64.0
14123,68.0,6.0,360.0,4.0,64.0
14124,82.0,71.0,60.0,1.0,64.0
14125,65.0,198.0,420.0,4.0,64.0
14126,80.0,80.0,60.0,2.0,64.0
14127,78.0,31.0,90.0,2.0,64.0
14128,77.0,54.0,60.0,2.0,64.0
14129,75.0,69.0,60.0,2.0,64.0
14130,73.0,83.0,90.0,2.0,64.0
14131,71.0,1.0,120.0,2.0,64.0
14132,70.0,61.0,210.0,4.0,64.0
14133,66.0,48.0,870.0,4.0,64.0
14134,82.0,56.0,150.0,1.0,64.0
14135,71.0,47.0,120.0,2.0,64.0
14136,83.0,46.0,120.0,1.0,64.0
14137,72.0,42.0,120.0,2.0,64.0
14138,84.0,41.0,90.0,1.0,64.0
14139,73.0,40.0,90.0,2.0,64.0
14140,85.0,38.0,90.0,1.0,64.0
14141,74.0,41.0,90.0,2.0,64.0
14142,86.0,36.0,90.0,1.0,64.0
14143,75.0,39.0,90.0,2.0,64.0
14144,87.0,37.0,90.0,1.0,64.0
14145,77.0,42.0,90.0,2.0,64.0
14146,89.0,103.0,90.0,1.0,64.0
14147,90.0,19.0,180.0,1.0,64.0
14148,61.0,16.0,360.0,4.0,64.0
14149,78.0,0.0,210.0,2.0,64.0
14150,80.0,27.0,60.0,2.0,64.0
14151,82.0,28.0,60.0,1.0,64.0
14152,80.0,46.0,60.0,2.0,64.0
14153,82.0,46.0,60.0,1.0,64.0
14154,66.0,6.0,300.0,4.0,64.0
14155,80.0,37.0,60.0,2.0,64.0
14156,82.0,19.0,60.0,1.0,64.0
14157,80.0,35.0,60.0,2.0,64.0
14158,82.0,36.0,60.0,1.0,64.0
14159,68.0,10.0,270.0,4.0,64.0
14160,80.0,33.0,60.0,2.0,64.0
14161,82.0,25.0,30.0,1.0,64.0
14162,80.0,32.0,30.0,2.0,64.0
14163,82.0,33.0,30.0,1.0,64.0
14164,66.0,27.0,270.0,4.0,64.0
14165,80.0,31.0,30.0,2.0,64.0
14166,82.0,33.0,30.0,1.0,64.0
14167,80.0,2.0,30.0,2.0,64.0
14168,82.0,36.0,30.0,1.0,64.0
14169,80.0,25.0,30.0,2.0,64.0
14170,61.0,18.0,270.0,4.0,64.0
14171,82.0,41.0,30.0,1.0,64.0
14172,80.0,21.0,60.0,2.0,64.0
14173,82.0,7.0,60.0,1.0,64.0
14174,80.0,29.0,30.0,2.0,64.0
14175,82.0,39.0,30.0,1.0,64.0
14176,65.0,7.0,270.0,4.0,64.0
14177,80.0,35.0,60.0,2.0,64.0
14178,82.0,15.0,60.0,1.0,64.0
14179,80.0,27.0,30.0,2.0,64.0
14180,82.0,34.0,30.0,1.0,64.0
14181,68.0,48.0,270.0,4.0,64.0
14182,80.0,33.0,30.0,2.0,64.0
14183,82.0,25.0,30.0,1.0,64.0
14184,80.0,33.0,30.0,2.0,64.0
14185,82.0,31.0,30.0,1.0,64.0
14186,65.0,281.0,180.0,4.0,64.0
14187,80.0,34.0,30.0,2.0,64.0
14188,78.0,35.0,30.0,2.0,64.0
14189,80.0,2.0,30.0,2.0,64.0
14190,80.0,2.0,300.0,2.0,64.0
14191,71.0,103.0,300.0,2.0,64.0
14192,54.0,1.0,1710.0,4.0,64.0
14193,61.0,0.0,1740.0,4.0,64.0
14194,73.0,1308.0,390.0,2.0,64.0
14195,66.0,86.0,1710.0,4.0,64.0
14196,78.0,1.0,1410.0,2.0,64.0
14197,70.0,14.0,1410.0,4.0,64.0
14198,85.0,79.0,90.0,1.0,64.0
14199,77.0,39.0,90.0,2.0,64.0
14200,80.0,125.0,30.0,2.0,64.0
14201,66.0,82.0,150.0,4.0,64.0
14202,78.0,3.0,120.0,2.0,64.0
14203,70.0,77.0,150.0,4.0,64.0
14204,78.0,2.0,150.0,2.0,64.0
14205,73.0,81.0,150.0,2.0,64.0
14206,70.0,79.0,150.0,4.0,64.0
14207,66.0,82.0,150.0,4.0,64.0
14208,78.0,4.0,150.0,2.0,64.0
14209,70.0,79.0,150.0,4.0,64.0
14210,80.0,78.0,150.0,2.0,64.0
14211,65.0,0.0,150.0,4.0,64.0
14212,71.0,77.0,150.0,2.0,64.0
14213,73.0,80.0,150.0,2.0,64.0
14214,83.0,4.0,150.0,1.0,64.0
14215,71.0,74.0,150.0,2.0,64.0
14216,68.0,70.0,150.0,4.0,64.0
14217,77.0,3.0,150.0,2.0,64.0
14218,73.0,8.0,150.0,2.0,64.0
14219,71.0,79.0,150.0,2.0,64.0
14220,82.0,75.0,150.0,1.0,64.0
14221,66.0,4.0,150.0,4.0,64.0
14222,73.0,56.0,150.0,2.0,64.0
14223,85.0,21.0,120.0,1.0,64.0
14224,70.0,78.0,150.0,4.0,64.0
14225,66.0,13.0,150.0,4.0,64.0
14226,87.0,67.0,90.0,1.0,64.0
14227,59.0,11.0,150.0,4.0,64.0
14228,71.0,0.0,150.0,2.0,64.0
14229,68.0,87.0,150.0,4.0,64.0
14230,83.0,69.0,90.0,1.0,64.0
14231,61.0,22.0,450.0,4.0,64.0
14232,82.0,146.0,150.0,1.0,64.0
14233,66.0,0.0,150.0,4.0,64.0
14234,65.0,27.0,270.0,4.0,64.0
14235,80.0,92.0,150.0,2.0,64.0
14236,85.0,29.0,90.0,1.0,64.0
14237,77.0,25.0,90.0,2.0,64.0
14238,80.0,105.0,30.0,2.0,64.0
14239,58.0,77.0,150.0,4.0,64.0
14240,78.0,12.0,90.0,2.0,64.0
14241,61.0,73.0,150.0,4.0,64.0
14242,78.0,2.0,150.0,2.0,64.0
14243,66.0,78.0,150.0,4.0,64.0
14244,61.0,81.0,150.0,4.0,64.0
14245,78.0,6.0,150.0,2.0,64.0
14246,57.0,15.0,150.0,4.0,64.0
14247,61.0,293.0,90.0,4.0,64.0
14248,78.0,10.0,300.0,2.0,64.0
14249,60.0,150.0,600.0,4.0,64.0
14250,63.0,0.0,600.0,4.0,64.0
14251,56.0,1.0,600.0,4.0,64.0
14252,84.0,7.0,270.0,1.0,64.0
14253,90.0,25.0,240.0,1.0,64.0
14254,78.0,117.0,30.0,2.0,64.0
14255,80.0,47.0,120.0,2.0,64.0
14256,82.0,105.0,60.0,1.0,64.0
14257,80.0,30.0,270.0,2.0,64.0
14258,60.0,1.0,450.0,4.0,64.0
14259,63.0,0.0,450.0,4.0,64.0
14260,66.0,12.0,450.0,4.0,64.0
14261,56.0,1.0,420.0,4.0,64.0
14262,78.0,109.0,30.0,2.0,64.0
14263,75.0,48.0,90.0,2.0,64.0
14264,72.0,138.0,30.0,2.0,64.0
14265,73.0,139.0,150.0,2.0,64.0
14266,65.0,0.0,330.0,4.0,64.0
14267,61.0,68.0,330.0,4.0,64.0
14268,84.0,125.0,30.0,1.0,64.0
14269,85.0,40.0,120.0,1.0,64.0
14270,77.0,14.0,30.0,2.0,64.0
14271,54.0,14.0,90.0,4.0,64.0
14272,66.0,27.0,60.0,4.0,64.0
14273,82.0,14.0,30.0,1.0,64.0
14274,65.0,25.0,60.0,4.0,64.0
14275,85.0,36.0,30.0,1.0,64.0
14276,66.0,46.0,60.0,4.0,64.0
14277,90.0,18.0,210.0,1.0,64.0
14278,51.0,13.0,90.0,4.0,64.0
14279,63.0,42.0,60.0,4.0,64.0
14280,61.0,64.0,60.0,4.0,64.0
14281,63.0,25.0,90.0,4.0,64.0
14282,46.0,15.0,90.0,4.0,64.0
14283,58.0,41.0,60.0,4.0,64.0
14284,78.0,0.0,240.0,2.0,64.0
14285,56.0,62.0,60.0,4.0,64.0
14286,58.0,21.0,90.0,4.0,64.0
14287,80.0,28.0,60.0,2.0,64.0
14288,47.0,15.0,90.0,4.0,64.0
14289,59.0,38.0,60.0,4.0,64.0
14290,83.0,6.0,60.0,1.0,64.0
14291,58.0,0.0,60.0,4.0,64.0
14292,80.0,21.0,60.0,2.0,64.0
14293,59.0,20.0,60.0,4.0,64.0
14294,87.0,27.0,60.0,1.0,64.0
14295,44.0,14.0,90.0,4.0,64.0
14296,56.0,43.0,60.0,4.0,64.0
14297,83.0,41.0,60.0,1.0,64.0
14298,55.0,1.0,60.0,4.0,64.0
14299,80.0,22.0,60.0,2.0,64.0
14300,56.0,19.0,90.0,4.0,64.0
14301,77.0,27.0,60.0,2.0,64.0
14302,49.0,14.0,90.0,4.0,64.0
14303,61.0,42.0,60.0,4.0,64.0
14304,80.0,42.0,60.0,2.0,64.0
14305,60.0,0.0,60.0,4.0,64.0
14306,73.0,23.0,60.0,2.0,64.0
14307,61.0,21.0,90.0,4.0,64.0
14308,85.0,27.0,60.0,1.0,64.0
14309,46.0,13.0,90.0,4.0,64.0
14310,58.0,40.0,60.0,4.0,64.0
14311,82.0,38.0,60.0,1.0,64.0
14312,56.0,1.0,60.0,4.0,64.0
14313,78.0,21.0,60.0,2.0,64.0
14314,58.0,46.0,60.0,4.0,64.0
14315,90.0,26.0,210.0,1.0,64.0
14316,51.0,12.0,90.0,4.0,64.0
14317,63.0,39.0,60.0,4.0,64.0
14318,62.0,59.0,60.0,4.0,64.0
14319,63.0,20.0,60.0,4.0,64.0
14320,47.0,14.0,90.0,4.0,64.0
14321,59.0,41.0,60.0,4.0,64.0
14322,83.0,42.0,90.0,1.0,64.0
14323,80.0,0.0,90.0,2.0,64.0
14324,58.0,23.0,60.0,4.0,64.0
14325,59.0,66.0,90.0,4.0,64.0
14326,78.0,1.0,180.0,2.0,64.0
14327,82.0,42.0,180.0,1.0,64.0
14328,49.0,8.0,150.0,4.0,64.0
14329,61.0,44.0,60.0,4.0,64.0
14330,60.0,14.0,60.0,4.0,64.0
14331,61.0,41.0,90.0,4.0,64.0
14332,80.0,0.0,300.0,2.0,64.0
14333,49.0,40.0,90.0,4.0,64.0
14334,77.0,39.0,300.0,2.0,64.0
14335,61.0,44.0,60.0,4.0,64.0
14336,47.0,43.0,90.0,4.0,64.0
14337,59.0,44.0,90.0,4.0,64.0
14338,46.0,41.0,90.0,4.0,64.0
14339,58.0,8.0,90.0,4.0,64.0
14340,44.0,43.0,90.0,4.0,64.0
14341,56.0,48.0,90.0,4.0,64.0
14342,46.0,21.0,240.0,4.0,64.0
14343,78.0,36.0,90.0,2.0,64.0
14344,58.0,20.0,90.0,4.0,64.0
14345,82.0,21.0,60.0,1.0,64.0
14346,56.0,20.0,90.0,4.0,64.0
14347,85.0,21.0,60.0,1.0,64.0
14348,58.0,22.0,90.0,4.0,64.0
14349,54.0,40.0,90.0,4.0,64.0
14350,90.0,8.0,240.0,1.0,64.0
14351,66.0,40.0,60.0,4.0,64.0
14352,53.0,41.0,60.0,4.0,64.0
14353,65.0,32.0,60.0,4.0,64.0
14354,51.0,41.0,60.0,4.0,64.0
14355,63.0,39.0,90.0,4.0,64.0
14356,49.0,43.0,60.0,4.0,64.0
14357,78.0,1.0,60.0,2.0,64.0
14358,61.0,42.0,90.0,4.0,64.0
14359,78.0,20.0,90.0,2.0,64.0
14360,48.0,22.0,150.0,4.0,64.0
14361,60.0,41.0,60.0,4.0,64.0
14362,84.0,18.0,60.0,1.0,64.0
14363,58.0,1.0,60.0,4.0,64.0
14364,87.0,21.0,60.0,1.0,64.0
14365,60.0,40.0,60.0,4.0,64.0
14366,90.0,6.0,240.0,1.0,64.0
14367,51.0,41.0,60.0,4.0,64.0
14368,63.0,38.0,60.0,4.0,64.0
14369,49.0,41.0,60.0,4.0,64.0
14370,61.0,32.0,60.0,4.0,64.0
14371,47.0,41.0,60.0,4.0,64.0
14372,59.0,42.0,60.0,4.0,64.0
14373,78.0,34.0,90.0,2.0,64.0
14374,44.0,7.0,60.0,4.0,64.0
14375,56.0,62.0,90.0,4.0,64.0
14376,77.0,44.0,150.0,2.0,64.0
14377,49.0,1.0,150.0,4.0,64.0
14378,61.0,38.0,60.0,4.0,64.0
14379,60.0,19.0,60.0,4.0,64.0
14380,61.0,46.0,90.0,4.0,64.0
14381,80.0,42.0,150.0,2.0,64.0
14382,41.0,14.0,90.0,4.0,64.0
14383,53.0,40.0,60.0,4.0,64.0
14384,51.0,20.0,60.0,4.0,64.0
14385,53.0,46.0,60.0,4.0,64.0
14386,72.0,19.0,150.0,2.0,64.0
14387,63.0,1.0,150.0,4.0,64.0
14388,66.0,0.0,150.0,4.0,64.0
14389,44.0,15.0,90.0,4.0,64.0
14390,56.0,44.0,60.0,4.0,64.0
14391,54.0,21.0,60.0,4.0,64.0
14392,56.0,69.0,60.0,4.0,64.0
14393,73.0,91.0,240.0,2.0,64.0
14394,65.0,23.0,480.0,4.0,64.0
14395,68.0,79.0,330.0,4.0,64.0
14396,49.0,16.0,90.0,4.0,64.0
14397,61.0,44.0,60.0,4.0,64.0
14398,56.0,42.0,60.0,4.0,64.0
14399,53.0,69.0,60.0,4.0,64.0
14400,49.0,10.0,840.0,4.0,64.0
14401,85.0,64.0,90.0,1.0,64.0
14402,82.0,83.0,90.0,1.0,64.0
14403,79.0,81.0,90.0,2.0,64.0
14404,76.0,0.0,90.0,2.0,64.0
14405,73.0,1.0,90.0,2.0,64.0
14406,80.0,82.0,90.0,2.0,64.0
14407,72.0,1.0,90.0,2.0,64.0
14408,75.0,0.0,90.0,2.0,64.0
14409,86.0,84.0,90.0,1.0,64.0
14410,87.0,83.0,90.0,1.0,64.0
14411,77.0,0.0,90.0,2.0,64.0
14412,71.0,1.0,90.0,2.0,64.0
14413,74.0,75.0,90.0,2.0,64.0
14414,78.0,159.0,90.0,2.0,64.0
14415,73.0,1.0,90.0,2.0,64.0
14416,70.0,1.0,90.0,4.0,64.0
14417,51.0,7.0,180.0,4.0,64.0
14418,63.0,0.0,180.0,4.0,64.0
14419,78.0,160.0,90.0,2.0,64.0
14420,90.0,0.0,90.0,1.0,64.0
14421,61.0,4.0,180.0,4.0,64.0
14422,49.0,1.0,180.0,4.0,64.0
14423,89.0,160.0,90.0,1.0,64.0
14424,77.0,0.0,90.0,2.0,64.0
14425,59.0,37.0,180.0,4.0,64.0
14426,47.0,41.0,210.0,4.0,64.0
14427,87.0,77.0,150.0,1.0,64.0
14428,75.0,0.0,150.0,2.0,64.0
14429,70.0,0.0,150.0,4.0,64.0
14430,58.0,82.0,150.0,4.0,64.0
14431,85.0,78.0,150.0,1.0,64.0
14432,73.0,1.0,150.0,2.0,64.0
14433,68.0,81.0,150.0,4.0,64.0
14434,56.0,0.0,150.0,4.0,64.0
14435,83.0,0.0,150.0,1.0,64.0
14436,71.0,74.0,150.0,2.0,64.0
14437,66.0,201.0,180.0,4.0,64.0
14438,54.0,1.0,180.0,4.0,64.0
14439,82.0,3.0,90.0,1.0,64.0
14440,70.0,7.0,90.0,4.0,64.0
14441,85.0,67.0,240.0,1.0,64.0
14442,73.0,24.0,420.0,2.0,64.0
14443,70.0,36.0,210.0,4.0,64.0
14444,61.0,227.0,480.0,4.0,64.0
14445,83.0,49.0,60.0,1.0,64.0
14446,68.0,1.0,60.0,4.0,64.0
14447,66.0,1.0,60.0,4.0,64.0
14448,82.0,38.0,60.0,1.0,64.0
14449,80.0,0.0,60.0,2.0,64.0
14450,65.0,14.0,60.0,4.0,64.0
14451,82.0,38.0,60.0,1.0,64.0
14452,66.0,1.0,60.0,4.0,64.0
14453,65.0,11.0,480.0,4.0,64.0
14454,80.0,121.0,270.0,2.0,64.0
14455,85.0,67.0,90.0,1.0,64.0
14456,77.0,32.0,90.0,2.0,64.0
14457,80.0,122.0,30.0,2.0,64.0
14458,58.0,83.0,150.0,4.0,64.0
14459,78.0,2.0,120.0,2.0,64.0
14460,61.0,79.0,150.0,4.0,64.0
14461,66.0,85.0,150.0,4.0,64.0
14462,78.0,4.0,150.0,2.0,64.0
14463,61.0,85.0,150.0,4.0,64.0
14464,58.0,5.0,180.0,4.0,64.0
14465,78.0,4.0,180.0,2.0,64.0
14466,61.0,291.0,90.0,4.0,64.0
14467,59.0,6.0,630.0,4.0,64.0
14468,63.0,1.0,630.0,4.0,64.0
14469,66.0,127.0,630.0,4.0,64.0
14470,78.0,6.0,270.0,2.0,64.0
14471,80.0,5.0,240.0,2.0,64.0
14472,87.0,32.0,240.0,1.0,64.0
14473,80.0,135.0,30.0,2.0,64.0
14474,82.0,38.0,120.0,1.0,64.0
14475,83.0,117.0,30.0,1.0,64.0
14476,85.0,71.0,240.0,1.0,64.0
14477,61.0,78.0,450.0,4.0,64.0
14478,65.0,0.0,450.0,4.0,64.0
14479,83.0,110.0,30.0,1.0,64.0
14480,80.0,38.0,120.0,2.0,64.0
14481,77.0,146.0,30.0,2.0,64.0
14482,78.0,96.0,210.0,2.0,64.0
14483,54.0,1.0,330.0,4.0,64.0
14484,61.0,79.0,330.0,4.0,64.0
14485,66.0,0.0,330.0,4.0,64.0
14486,73.0,114.0,30.0,2.0,64.0
14487,78.0,36.0,120.0,2.0,64.0
14488,82.0,21.0,30.0,1.0,64.0
14489,85.0,36.0,90.0,1.0,64.0
14490,82.0,0.0,90.0,1.0,64.0
14491,55.0,8.0,90.0,4.0,64.0
14492,67.0,39.0,90.0,4.0,64.0
14493,83.0,0.0,90.0,1.0,64.0
14494,56.0,9.0,90.0,4.0,64.0
14495,80.0,33.0,90.0,2.0,64.0
14496,68.0,44.0,90.0,4.0,64.0
14497,88.0,32.0,90.0,1.0,64.0
14498,79.0,1.0,90.0,2.0,64.0
14499,61.0,6.0,90.0,4.0,64.0
14500,73.0,37.0,90.0,2.0,64.0
14501,87.0,6.0,90.0,1.0,64.0
14502,80.0,0.0,90.0,2.0,64.0
14503,59.0,44.0,90.0,4.0,64.0
14504,71.0,35.0,90.0,2.0,64.0
14505,80.0,8.0,90.0,2.0,64.0
14506,83.0,37.0,90.0,1.0,64.0
14507,53.0,8.0,90.0,4.0,64.0
14508,65.0,36.0,90.0,4.0,64.0
14509,82.0,37.0,90.0,1.0,64.0
14510,78.0,7.0,90.0,2.0,64.0
14511,54.0,8.0,90.0,4.0,64.0
14512,66.0,39.0,90.0,4.0,64.0
14513,86.0,27.0,90.0,1.0,64.0
14514,77.0,16.0,90.0,2.0,64.0
14515,59.0,1.0,90.0,4.0,64.0
14516,71.0,45.0,90.0,2.0,64.0
14517,85.0,90.0,90.0,1.0,64.0
14518,58.0,15.0,240.0,4.0,64.0
14519,78.0,9.0,90.0,2.0,64.0
14520,70.0,8.0,210.0,4.0,64.0
14521,78.0,43.0,180.0,2.0,64.0
14522,90.0,44.0,60.0,1.0,64.0
14523,89.0,8.0,60.0,1.0,64.0
14524,90.0,60.0,90.0,1.0,64.0
14525,76.0,35.0,180.0,2.0,64.0
14526,66.0,4.0,180.0,4.0,64.0
14527,58.0,0.0,180.0,4.0,64.0
14528,88.0,44.0,60.0,1.0,64.0
14529,87.0,31.0,60.0,1.0,64.0
14530,88.0,54.0,90.0,1.0,64.0
14531,66.0,14.0,480.0,4.0,64.0
14532,74.0,33.0,180.0,2.0,64.0
14533,59.0,1.0,150.0,4.0,64.0
14534,86.0,42.0,60.0,1.0,64.0
14535,85.0,35.0,60.0,1.0,64.0
14536,86.0,56.0,90.0,1.0,64.0
14537,73.0,0.0,150.0,2.0,64.0
14538,61.0,34.0,150.0,4.0,64.0
14539,85.0,40.0,60.0,1.0,64.0
14540,84.0,35.0,60.0,1.0,64.0
14541,85.0,56.0,90.0,1.0,64.0
14542,72.0,6.0,180.0,2.0,64.0
14543,62.0,0.0,180.0,4.0,64.0
14544,84.0,42.0,60.0,1.0,64.0
14545,83.0,21.0,60.0,1.0,64.0
14546,84.0,144.0,60.0,1.0,64.0
14547,65.0,6.0,150.0,4.0,64.0
14548,85.0,0.0,150.0,1.0,64.0
14549,61.0,164.0,150.0,4.0,64.0
14550,37.0,163.0,150.0,4.0,64.0
14551,49.0,0.0,150.0,4.0,64.0
14552,50.0,174.0,180.0,4.0,64.0
14553,38.0,0.0,180.0,4.0,64.0
14554,36.0,1.0,180.0,4.0,64.0
14555,48.0,289.0,180.0,4.0,64.0
14556,37.0,35.0,990.0,4.0,64.0
14557,49.0,1.0,420.0,4.0,64.0
14558,73.0,44.0,120.0,2.0,64.0
14559,77.0,66.0,30.0,2.0,64.0
14560,78.0,15.0,90.0,2.0,64.0
14561,54.0,23.0,60.0,4.0,64.0
14562,66.0,41.0,60.0,4.0,64.0
14563,82.0,43.0,60.0,1.0,64.0
14564,65.0,0.0,60.0,4.0,64.0
14565,85.0,21.0,60.0,1.0,64.0
14566,66.0,54.0,90.0,4.0,64.0
14567,90.0,12.0,240.0,1.0,64.0
14568,51.0,6.0,90.0,4.0,64.0
14569,63.0,40.0,60.0,4.0,64.0
14570,61.0,63.0,60.0,4.0,64.0
14571,63.0,43.0,90.0,4.0,64.0
14572,46.0,8.0,90.0,4.0,64.0
14573,58.0,38.0,60.0,4.0,64.0
14574,78.0,43.0,60.0,2.0,64.0
14575,56.0,21.0,60.0,4.0,64.0
14576,58.0,54.0,90.0,4.0,64.0
14577,80.0,6.0,90.0,2.0,64.0
14578,47.0,2.0,90.0,4.0,64.0
14579,59.0,43.0,60.0,4.0,64.0
14580,83.0,27.0,90.0,1.0,64.0
14581,58.0,1.0,60.0,4.0,64.0
14582,80.0,37.0,90.0,2.0,64.0
14583,59.0,15.0,90.0,4.0,64.0
14584,87.0,6.0,90.0,1.0,64.0
14585,44.0,4.0,90.0,4.0,64.0
14586,56.0,39.0,60.0,4.0,64.0
14587,83.0,25.0,90.0,1.0,64.0
14588,55.0,39.0,60.0,4.0,64.0
14589,80.0,41.0,90.0,2.0,64.0
14590,56.0,13.0,90.0,4.0,64.0
14591,77.0,6.0,90.0,2.0,64.0
14592,49.0,2.0,90.0,4.0,64.0
14593,61.0,41.0,60.0,4.0,64.0
14594,60.0,37.0,60.0,4.0,64.0
14595,80.0,27.0,90.0,2.0,64.0
14596,73.0,39.0,90.0,2.0,64.0
14597,61.0,17.0,90.0,4.0,64.0
14598,85.0,6.0,90.0,1.0,64.0
14599,46.0,4.0,90.0,4.0,64.0
14600,58.0,38.0,60.0,4.0,64.0
14601,82.0,25.0,90.0,1.0,64.0
14602,56.0,38.0,60.0,4.0,64.0
14603,78.0,21.0,150.0,2.0,64.0
14604,58.0,56.0,60.0,4.0,64.0
14605,87.0,41.0,150.0,1.0,64.0
14606,47.0,7.0,90.0,4.0,64.0
14607,59.0,20.0,60.0,4.0,64.0
14608,58.0,21.0,60.0,4.0,64.0
14609,59.0,19.0,90.0,4.0,64.0
14610,77.0,0.0,150.0,2.0,64.0
14611,73.0,43.0,150.0,2.0,64.0
14612,68.0,35.0,60.0,4.0,64.0
14613,49.0,7.0,90.0,4.0,64.0
14614,61.0,41.0,60.0,4.0,64.0
14615,60.0,21.0,60.0,4.0,64.0
14616,61.0,57.0,90.0,4.0,64.0
14617,78.0,38.0,180.0,2.0,64.0
14618,51.0,7.0,90.0,4.0,64.0
14619,63.0,44.0,60.0,4.0,64.0
14620,84.0,11.0,180.0,1.0,64.0
14621,61.0,23.0,60.0,4.0,64.0
14622,63.0,48.0,60.0,4.0,64.0
14623,90.0,19.0,180.0,1.0,64.0
14624,80.0,39.0,180.0,2.0,64.0
14625,49.0,7.0,90.0,4.0,64.0
14626,61.0,26.0,60.0,4.0,64.0
14627,85.0,11.0,180.0,1.0,64.0
14628,60.0,25.0,60.0,4.0,64.0
14629,89.0,19.0,180.0,1.0,64.0
14630,61.0,44.0,90.0,4.0,64.0
14631,77.0,41.0,180.0,2.0,64.0
14632,47.0,7.0,90.0,4.0,64.0
14633,59.0,25.0,60.0,4.0,64.0
14634,80.0,10.0,180.0,2.0,64.0
14635,58.0,24.0,60.0,4.0,64.0
14636,87.0,18.0,180.0,1.0,64.0
14637,59.0,46.0,90.0,4.0,64.0
14638,78.0,24.0,180.0,2.0,64.0
14639,46.0,6.0,90.0,4.0,64.0
14640,58.0,27.0,60.0,4.0,64.0
14641,82.0,18.0,60.0,1.0,64.0
14642,56.0,8.0,60.0,4.0,64.0
14643,58.0,55.0,90.0,4.0,64.0
14644,85.0,16.0,60.0,1.0,64.0
14645,75.0,11.0,180.0,2.0,64.0
14646,47.0,7.0,90.0,4.0,64.0
14647,80.0,10.0,150.0,2.0,64.0
14648,83.0,21.0,150.0,1.0,64.0
14649,59.0,44.0,60.0,4.0,64.0
14650,58.0,22.0,60.0,4.0,64.0
14651,59.0,55.0,90.0,4.0,64.0
14652,73.0,12.0,180.0,2.0,64.0
14653,49.0,8.0,90.0,4.0,64.0
14654,77.0,10.0,180.0,2.0,64.0
14655,80.0,21.0,180.0,2.0,64.0
14656,61.0,44.0,60.0,4.0,64.0
14657,59.0,21.0,60.0,4.0,64.0
14658,61.0,54.0,90.0,4.0,64.0
14659,78.0,41.0,150.0,2.0,64.0
14660,51.0,8.0,90.0,4.0,64.0
14661,63.0,39.0,60.0,4.0,64.0
14662,61.0,25.0,60.0,4.0,64.0
14663,84.0,8.0,180.0,1.0,64.0
14664,90.0,18.0,180.0,1.0,64.0
14665,63.0,46.0,90.0,4.0,64.0
14666,80.0,40.0,180.0,2.0,64.0
14667,49.0,8.0,90.0,4.0,64.0
14668,61.0,25.0,60.0,4.0,64.0
14669,85.0,10.0,180.0,1.0,64.0
14670,60.0,25.0,60.0,4.0,64.0
14671,61.0,45.0,90.0,4.0,64.0
14672,89.0,20.0,180.0,1.0,64.0
14673,77.0,39.0,180.0,2.0,64.0
14674,47.0,8.0,90.0,4.0,64.0
14675,59.0,23.0,60.0,4.0,64.0
14676,80.0,10.0,180.0,2.0,64.0
14677,58.0,25.0,60.0,4.0,64.0
14678,87.0,18.0,180.0,1.0,64.0
14679,59.0,46.0,90.0,4.0,64.0
14680,78.0,23.0,150.0,2.0,64.0
14681,46.0,6.0,90.0,4.0,64.0
14682,58.0,23.0,60.0,4.0,64.0
14683,82.0,17.0,60.0,1.0,64.0
14684,56.0,8.0,60.0,4.0,64.0
14685,85.0,15.0,60.0,1.0,64.0
14686,58.0,59.0,90.0,4.0,64.0
14687,75.0,12.0,180.0,2.0,64.0
14688,47.0,6.0,90.0,4.0,64.0
14689,80.0,9.0,180.0,2.0,64.0
14690,83.0,23.0,180.0,1.0,64.0
14691,59.0,44.0,60.0,4.0,64.0
14692,58.0,23.0,60.0,4.0,64.0
14693,59.0,64.0,90.0,4.0,64.0
14694,73.0,8.0,180.0,2.0,64.0
14695,49.0,4.0,180.0,4.0,64.0
14696,77.0,10.0,180.0,2.0,64.0
14697,80.0,25.0,180.0,2.0,64.0
14698,61.0,44.0,60.0,4.0,64.0
14699,59.0,21.0,60.0,4.0,64.0
14700,61.0,67.0,90.0,4.0,64.0
14701,66.0,7.0,180.0,4.0,64.0
14702,42.0,38.0,180.0,4.0,64.0
14703,54.0,1.0,60.0,4.0,64.0
14704,78.0,39.0,60.0,2.0,64.0
14705,77.0,22.0,60.0,2.0,64.0
14706,53.0,1.0,60.0,4.0,64.0
14707,78.0,60.0,90.0,2.0,64.0
14708,54.0,0.0,90.0,4.0,64.0
14709,70.0,7.0,150.0,4.0,64.0
14710,46.0,38.0,150.0,4.0,64.0
14711,82.0,39.0,60.0,1.0,64.0
14712,58.0,1.0,60.0,4.0,64.0
14713,57.0,1.0,60.0,4.0,64.0
14714,81.0,22.0,60.0,2.0,64.0
14715,82.0,60.0,90.0,1.0,64.0
14716,58.0,0.0,90.0,4.0,64.0
14717,73.0,9.0,150.0,2.0,64.0
14718,49.0,2.0,150.0,4.0,64.0
14719,85.0,39.0,60.0,1.0,64.0
14720,61.0,1.0,60.0,4.0,64.0
14721,84.0,20.0,60.0,1.0,64.0
14722,60.0,1.0,60.0,4.0,64.0
14723,85.0,5244.0,60.0,1.0,64.0
14724,61.0,1.0,60.0,4.0,64.0
14725,54.0,1.0,5310.0,4.0,64.0
14726,78.0,63.0,5250.0,2.0,64.0
14727,58.0,0.0,5340.0,4.0,64.0
14728,82.0,35.0,5280.0,1.0,64.0
14729,61.0,34.0,5340.0,4.0,64.0
14730,85.0,16.0,5310.0,1.0,64.0
14731,90.0,16.0,5310.0,1.0,64.0
14732,66.0,0.0,5370.0,4.0,64.0
