,note,step,duration,channel,velocity
0,76.0,59,60,0.0,0.0
1,57.0,1,120,1.0,0.0
2,73.0,20,60,0.0,0.0
3,71.0,20,20,0.0,0.0
4,73.0,20,20,0.0,0.0
5,71.0,60,20,0.0,0.0
6,69.0,60,60,0.0,0.0
7,81.0,1,120,0.0,0.0
8,45.0,59,60,1.0,0.0
9,57.0,60,60,1.0,0.0
10,52.0,60,60,1.0,0.0
11,49.0,60,60,1.0,0.0
12,45.0,1,120,1.0,0.0
13,76.0,59,60,0.0,0.0
14,73.0,20,60,0.0,0.0
15,71.0,20,20,0.0,0.0
16,73.0,20,20,0.0,0.0
17,71.0,60,20,0.0,0.0
18,69.0,60,60,0.0,0.0
19,81.0,61,120,0.0,0.0
20,45.0,57,60,1.0,0.0
21,57.0,2,60,1.0,0.0
22,49.0,57,60,1.0,0.0
23,57.0,63,60,1.0,0.0
24,81.0,0,60,0.0,0.0
25,47.0,57,60,1.0,0.0
26,80.0,0,60,0.0,0.0
27,59.0,63,60,1.0,0.0
28,57.0,61,120,1.0,0.0
29,80.0,57,60,0.0,0.0
30,78.0,2,60,0.0,0.0
31,56.0,61,120,1.0,0.0
32,78.0,57,60,0.0,0.0
33,76.0,2,60,0.0,0.0
34,54.0,61,120,1.0,0.0
35,76.0,57,60,0.0,0.0
36,74.0,2,60,0.0,0.0
37,52.0,60,120,1.0,0.0
38,73.0,57,60,0.0,0.0
39,76.0,2,60,0.0,0.0
40,50.0,120,120,1.0,0.0
41,68.0,60,60,0.0,0.0
42,71.0,0,60,0.0,0.0
43,49.0,0,120,1.0,0.0
44,69.0,120,120,0.0,0.0
45,45.0,61,120,1.0,0.0
46,57.0,1,120,1.0,0.0
47,76.0,59,60,0.0,0.0
48,73.0,20,60,0.0,0.0
49,71.0,20,20,0.0,0.0
50,73.0,20,20,0.0,0.0
51,71.0,60,20,0.0,0.0
52,69.0,60,60,0.0,0.0
53,45.0,59,60,1.0,0.0
54,81.0,1,120,0.0,0.0
55,57.0,60,60,1.0,0.0
56,52.0,60,60,1.0,0.0
57,49.0,60,60,1.0,0.0
58,76.0,59,60,0.0,0.0
59,45.0,1,120,1.0,0.0
60,73.0,20,60,0.0,0.0
61,71.0,20,20,0.0,0.0
62,73.0,20,20,0.0,0.0
63,71.0,60,20,0.0,0.0
64,69.0,60,60,0.0,0.0
65,81.0,60,120,0.0,0.0
66,45.0,57,60,1.0,0.0
67,57.0,2,60,1.0,0.0
68,49.0,60,60,1.0,0.0
69,52.0,61,60,1.0,0.0
70,81.0,57,60,0.0,0.0
71,47.0,0,60,1.0,0.0
72,59.0,63,60,1.0,0.0
73,80.0,0,60,0.0,0.0
74,80.0,57,60,0.0,0.0
75,57.0,61,120,1.0,0.0
76,78.0,2,60,0.0,0.0
77,78.0,57,60,0.0,0.0
78,56.0,61,120,1.0,0.0
79,76.0,2,60,0.0,0.0
80,54.0,61,120,1.0,0.0
81,76.0,57,60,0.0,0.0
82,74.0,2,60,0.0,0.0
83,52.0,60,120,1.0,0.0
84,73.0,57,60,0.0,0.0
85,76.0,2,60,0.0,0.0
86,50.0,0,120,1.0,0.0
87,68.0,60,60,0.0,0.0
88,71.0,60,60,0.0,0.0
89,49.0,60,60,1.0,0.0
90,69.0,0,120,0.0,0.0
91,57.0,60,60,1.0,0.0
92,52.0,60,60,1.0,0.0
93,49.0,61,60,1.0,0.0
94,57.0,1,120,1.0,0.0
95,76.0,59,60,0.0,0.0
96,73.0,20,60,0.0,0.0
97,71.0,20,20,0.0,0.0
98,73.0,20,20,0.0,0.0
99,71.0,60,20,0.0,0.0
100,69.0,60,60,0.0,0.0
101,81.0,1,120,0.0,0.0
102,45.0,59,60,1.0,0.0
103,57.0,60,60,1.0,0.0
104,52.0,60,60,1.0,0.0
105,49.0,60,60,1.0,0.0
106,76.0,59,60,0.0,0.0
107,45.0,1,120,1.0,0.0
108,73.0,20,60,0.0,0.0
109,71.0,20,20,0.0,0.0
110,73.0,20,20,0.0,0.0
111,71.0,60,20,0.0,0.0
112,69.0,60,60,0.0,0.0
113,45.0,57,60,1.0,0.0
114,81.0,61,120,0.0,0.0
115,57.0,2,60,1.0,0.0
116,49.0,57,60,1.0,0.0
117,57.0,63,60,1.0,0.0
118,47.0,57,60,1.0,0.0
119,81.0,0,60,0.0,0.0
120,80.0,0,60,0.0,0.0
121,59.0,63,60,1.0,0.0
122,57.0,61,120,1.0,0.0
123,80.0,57,60,0.0,0.0
124,78.0,2,60,0.0,0.0
125,78.0,57,60,0.0,0.0
126,56.0,61,120,1.0,0.0
127,76.0,2,60,0.0,0.0
128,54.0,61,120,1.0,0.0
129,76.0,57,60,0.0,0.0
130,74.0,2,60,0.0,0.0
131,73.0,57,60,0.0,0.0
132,52.0,60,120,1.0,0.0
133,76.0,2,60,0.0,0.0
134,68.0,60,60,0.0,0.0
135,50.0,0,120,1.0,0.0
136,71.0,120,60,0.0,0.0
137,69.0,120,120,0.0,0.0
138,49.0,0,120,1.0,0.0
139,45.0,61,120,1.0,0.0
140,57.0,1,120,1.0,0.0
141,76.0,59,60,0.0,0.0
142,73.0,20,60,0.0,0.0
143,71.0,20,20,0.0,0.0
144,73.0,20,20,0.0,0.0
145,71.0,60,20,0.0,0.0
146,69.0,60,60,0.0,0.0
147,45.0,59,60,1.0,0.0
148,81.0,1,120,0.0,0.0
149,57.0,60,60,1.0,0.0
150,52.0,60,60,1.0,0.0
151,49.0,60,60,1.0,0.0
152,45.0,1,120,1.0,0.0
153,76.0,59,60,0.0,0.0
154,73.0,20,60,0.0,0.0
155,71.0,20,20,0.0,0.0
156,73.0,20,20,0.0,0.0
157,71.0,60,20,0.0,0.0
158,69.0,60,60,0.0,0.0
159,45.0,57,60,1.0,0.0
160,81.0,60,120,0.0,0.0
161,57.0,2,60,1.0,0.0
162,49.0,60,60,1.0,0.0
163,52.0,61,60,1.0,0.0
164,81.0,0,60,0.0,0.0
165,47.0,57,60,1.0,0.0
166,80.0,63,60,0.0,0.0
167,59.0,0,60,1.0,0.0
168,57.0,61,120,1.0,0.0
169,80.0,57,60,0.0,0.0
170,78.0,2,60,0.0,0.0
171,78.0,57,60,0.0,0.0
172,56.0,61,120,1.0,0.0
173,76.0,2,60,0.0,0.0
174,76.0,57,60,0.0,0.0
175,54.0,61,120,1.0,0.0
176,74.0,2,60,0.0,0.0
177,73.0,57,60,0.0,0.0
178,52.0,60,120,1.0,0.0
179,76.0,2,60,0.0,0.0
180,50.0,60,120,1.0,0.0
181,68.0,60,60,0.0,0.0
182,71.0,0,60,0.0,0.0
183,49.0,60,60,1.0,0.0
184,69.0,0,120,0.0,0.0
185,57.0,60,60,1.0,0.0
186,52.0,60,60,1.0,0.0
187,49.0,120,60,1.0,0.0
188,57.0,120,120,1.0,0.0
189,72.0,120,120,0.0,0.0
190,76.0,0,120,0.0,0.0
191,50.0,120,120,1.0,0.0
192,74.0,120,120,0.0,0.0
193,77.0,0,120,0.0,0.0
194,52.0,120,120,1.0,0.0
195,80.0,120,120,0.0,0.0
196,71.0,0,120,0.0,0.0
197,45.0,120,120,1.0,0.0
198,72.0,121,120,0.0,0.0
199,81.0,0,120,0.0,0.0
200,68.0,117,120,0.0,0.0
201,40.0,0,240,1.0,0.0
202,52.0,120,240,1.0,0.0
203,71.0,0,120,0.0,0.0
204,69.0,2,120,0.0,0.0
205,72.0,0,120,0.0,0.0
206,40.0,1,120,1.0,0.0
207,74.0,117,120,0.0,0.0
208,71.0,0,120,0.0,0.0
209,52.0,0,120,1.0,0.0
210,69.0,2,120,0.0,0.0
211,72.0,0,120,0.0,0.0
212,52.0,60,120,1.0,0.0
213,40.0,0,120,1.0,0.0
214,52.0,0,60,1.0,0.0
215,40.0,0,60,1.0,0.0
216,68.0,60,60,0.0,0.0
217,71.0,0,60,0.0,0.0
218,69.0,0,60,0.0,0.0
219,72.0,0,60,0.0,0.0
220,40.0,0,60,1.0,0.0
221,52.0,60,60,1.0,0.0
222,71.0,0,60,0.0,0.0
223,74.0,60,60,0.0,0.0
224,52.0,0,60,1.0,0.0
225,40.0,0,60,1.0,0.0
226,72.0,0,60,0.0,0.0
227,40.0,0,60,1.0,0.0
228,69.0,0,60,0.0,0.0
229,52.0,120,60,1.0,0.0
230,68.0,0,240,0.0,0.0
231,71.0,0,240,0.0,0.0
232,52.0,120,120,1.0,0.0
233,40.0,120,120,1.0,0.0
234,57.0,120,120,1.0,0.0
235,76.0,0,120,0.0,0.0
236,73.0,120,120,0.0,0.0
237,50.0,120,120,1.0,0.0
238,74.0,120,120,0.0,0.0
239,77.0,0,120,0.0,0.0
240,51.0,120,120,1.0,0.0
241,78.0,120,120,0.0,0.0
242,71.0,0,120,0.0,0.0
243,52.0,120,120,1.0,0.0
244,80.0,0,120,0.0,0.0
245,74.0,121,120,0.0,0.0
246,72.0,117,120,0.0,0.0
247,45.0,0,240,1.0,0.0
248,57.0,120,240,1.0,0.0
249,81.0,0,120,0.0,0.0
250,77.0,0,120,0.0,0.0
251,74.0,2,120,0.0,0.0
252,76.0,0,120,0.0,0.0
253,72.0,117,120,0.0,0.0
254,57.0,1,120,1.0,0.0
255,45.0,0,120,1.0,0.0
256,71.0,0,120,0.0,0.0
257,74.0,2,120,0.0,0.0
258,57.0,60,120,1.0,0.0
259,45.0,0,120,1.0,0.0
260,72.0,0,60,0.0,0.0
261,69.0,0,60,0.0,0.0
262,57.0,60,60,1.0,0.0
263,45.0,0,60,1.0,0.0
264,72.0,60,60,0.0,0.0
265,76.0,0,60,0.0,0.0
266,57.0,0,60,1.0,0.0
267,45.0,0,60,1.0,0.0
268,71.0,0,60,0.0,0.0
269,74.0,0,60,0.0,0.0
270,57.0,60,60,1.0,0.0
271,45.0,0,60,1.0,0.0
272,45.0,0,60,1.0,0.0
273,57.0,0,60,1.0,0.0
274,71.0,240,60,0.0,0.0
275,68.0,0,60,0.0,0.0
276,60.0,0,240,0.0,0.0
277,64.0,120,240,0.0,0.0
278,69.0,0,240,0.0,0.0
279,57.0,0,240,1.0,0.0
280,52.0,0,240,1.0,0.0
281,48.0,0,240,1.0,0.0
282,45.0,0,240,1.0,0.0
283,57.0,120,120,1.0,0.0
284,72.0,120,120,0.0,0.0
285,76.0,0,120,0.0,0.0
286,50.0,120,120,1.0,0.0
287,74.0,0,120,0.0,0.0
288,77.0,120,120,0.0,0.0
289,52.0,120,120,1.0,0.0
290,71.0,120,120,0.0,0.0
291,80.0,0,120,0.0,0.0
292,45.0,120,120,1.0,0.0
293,81.0,121,120,0.0,0.0
294,72.0,0,120,0.0,0.0
295,71.0,0,120,0.0,0.0
296,52.0,0,240,1.0,0.0
297,40.0,120,240,1.0,0.0
298,68.0,117,120,0.0,0.0
299,69.0,2,120,0.0,0.0
300,72.0,0,120,0.0,0.0
301,74.0,117,120,0.0,0.0
302,40.0,0,120,1.0,0.0
303,71.0,0,120,0.0,0.0
304,52.0,1,120,1.0,0.0
305,69.0,2,120,0.0,0.0
306,52.0,60,120,1.0,0.0
307,40.0,0,120,1.0,0.0
308,72.0,0,120,0.0,0.0
309,52.0,60,60,1.0,0.0
310,40.0,0,60,1.0,0.0
311,71.0,0,60,0.0,0.0
312,68.0,0,60,0.0,0.0
313,72.0,60,60,0.0,0.0
314,69.0,0,60,0.0,0.0
315,52.0,0,60,1.0,0.0
316,40.0,0,60,1.0,0.0
317,40.0,0,60,1.0,0.0
318,71.0,0,60,0.0,0.0
319,52.0,0,60,1.0,0.0
320,74.0,60,60,0.0,0.0
321,40.0,0,60,1.0,0.0
322,52.0,0,60,1.0,0.0
323,72.0,0,60,0.0,0.0
324,69.0,120,60,0.0,0.0
325,71.0,0,240,0.0,0.0
326,52.0,120,120,1.0,0.0
327,68.0,120,240,0.0,0.0
328,40.0,0,120,1.0,0.0
329,57.0,120,120,1.0,0.0
330,76.0,120,120,0.0,0.0
331,73.0,0,120,0.0,0.0
332,50.0,120,120,1.0,0.0
333,74.0,0,120,0.0,0.0
334,77.0,120,120,0.0,0.0
335,51.0,120,120,1.0,0.0
336,78.0,0,120,0.0,0.0
337,71.0,120,120,0.0,0.0
338,52.0,120,120,1.0,0.0
339,80.0,121,120,0.0,0.0
340,74.0,0,120,0.0,0.0
341,45.0,0,240,1.0,0.0
342,57.0,120,240,1.0,0.0
343,72.0,117,120,0.0,0.0
344,81.0,0,120,0.0,0.0
345,77.0,2,120,0.0,0.0
346,74.0,0,120,0.0,0.0
347,76.0,117,120,0.0,0.0
348,72.0,0,120,0.0,0.0
349,57.0,1,120,1.0,0.0
350,45.0,0,120,1.0,0.0
351,57.0,0,120,1.0,0.0
352,45.0,60,120,1.0,0.0
353,74.0,2,120,0.0,0.0
354,71.0,0,120,0.0,0.0
355,45.0,0,60,1.0,0.0
356,57.0,0,60,1.0,0.0
357,69.0,60,60,0.0,0.0
358,72.0,0,60,0.0,0.0
359,72.0,0,60,0.0,0.0
360,76.0,60,60,0.0,0.0
361,45.0,0,60,1.0,0.0
362,57.0,0,60,1.0,0.0
363,74.0,0,60,0.0,0.0
364,71.0,0,60,0.0,0.0
365,45.0,0,60,1.0,0.0
366,57.0,60,60,1.0,0.0
367,71.0,0,60,0.0,0.0
368,68.0,240,60,0.0,0.0
369,45.0,0,60,1.0,0.0
370,57.0,0,60,1.0,0.0
371,57.0,0,240,1.0,0.0
372,45.0,0,240,1.0,0.0
373,52.0,0,240,1.0,0.0
374,69.0,0,240,0.0,0.0
375,64.0,0,240,0.0,0.0
376,60.0,0,240,0.0,0.0
377,48.0,0,240,1.0,0.0
