tick,type,time,meta,track,numerator,denominator,clocks_per_click,notated_32nd_notes_per_beat,key,tempo,control,value,channel,program,note,velocity
0,track_name,0,1,0,,,,,,,,,,,,
0,control_change,0,0,4,,,,,,,93,64,3,,,
0,track_name,0,1,5,,,,,,,,,,,,
0,control_change,0,0,5,,,,,,,0,0,4,,,
0,control_change,0,0,5,,,,,,,7,110,4,,,
0,control_change,0,0,5,,,,,,,10,30,4,,,
0,control_change,0,0,5,,,,,,,91,73,4,,,
0,control_change,0,0,5,,,,,,,93,79,4,,,
0,control_change,0,0,4,,,,,,,91,76,3,,,
0,control_change,0,0,14,,,,,,,95,127,0,,,
0,control_change,0,0,6,,,,,,,0,0,5,,,
0,control_change,0,0,6,,,,,,,7,110,5,,,
0,control_change,0,0,6,,,,,,,10,100,5,,,
0,control_change,0,0,6,,,,,,,91,82,5,,,
0,control_change,0,0,6,,,,,,,93,91,5,,,
0,track_name,0,1,7,,,,,,,,,,,,
0,control_change,0,0,7,,,,,,,0,0,6,,,
0,track_name,0,1,6,,,,,,,,,,,,
0,control_change,0,0,4,,,,,,,10,64,3,,,
0,control_change,0,0,4,,,,,,,7,75,3,,,
0,control_change,0,0,4,,,,,,,0,0,3,,,
0,control_change,0,0,1,,,,,,,7,100,0,,,
0,control_change,0,0,1,,,,,,,10,64,0,,,
0,control_change,0,0,1,,,,,,,91,85,0,,,
0,control_change,0,0,1,,,,,,,93,85,0,,,
0,track_name,0,1,2,,,,,,,,,,,,
0,control_change,0,0,2,,,,,,,0,0,1,,,
0,control_change,0,0,2,,,,,,,7,90,1,,,
0,control_change,0,0,2,,,,,,,10,75,1,,,
0,control_change,0,0,2,,,,,,,91,70,1,,,
0,control_change,0,0,2,,,,,,,93,70,1,,,
0,track_name,0,1,3,,,,,,,,,,,,
0,control_change,0,0,3,,,,,,,0,0,2,,,
0,control_change,0,0,3,,,,,,,7,100,2,,,
0,control_change,0,0,3,,,,,,,10,45,2,,,
0,control_change,0,0,3,,,,,,,91,55,2,,,
0,control_change,0,0,3,,,,,,,93,76,2,,,
0,track_name,0,1,4,,,,,,,,,,,,
0,control_change,0,0,7,,,,,,,7,90,6,,,
0,control_change,0,0,7,,,,,,,10,45,6,,,
0,control_change,0,0,7,,,,,,,91,73,6,,,
0,control_change,0,0,7,,,,,,,93,73,6,,,
0,control_change,0,0,12,,,,,,,91,0,0,,,
0,control_change,0,0,12,,,,,,,93,0,0,,,
0,end_of_track,0,1,12,,,,,,,,,,,,
0,track_name,0,1,13,,,,,,,,,,,,
0,control_change,0,0,13,,,,,,,91,0,0,,,
0,control_change,0,0,13,,,,,,,93,0,0,,,
0,end_of_track,0,1,13,,,,,,,,,,,,
0,track_name,0,1,14,,,,,,,,,,,,
0,control_change,0,0,14,,,,,,,93,64,1,,,
0,control_change,0,0,14,,,,,,,92,0,1,,,
0,control_change,0,0,14,,,,,,,96,64,1,,,
0,control_change,0,0,14,,,,,,,95,127,1,,,
0,control_change,0,0,14,,,,,,,40,103,1,,,
0,control_change,0,0,14,,,,,,,40,103,0,,,
0,control_change,0,0,14,,,,,,,93,64,0,,,
0,control_change,0,0,14,,,,,,,92,0,0,,,
0,control_change,0,0,14,,,,,,,96,64,0,,,
0,track_name,0,1,12,,,,,,,,,,,,
0,control_change,0,0,1,,,,,,,0,0,0,,,
0,end_of_track,0,1,11,,,,,,,,,,,,
0,control_change,0,0,11,,,,,,,91,0,0,,,
0,track_name,0,1,8,,,,,,,,,,,,
0,control_change,0,0,8,,,,,,,0,0,7,,,
0,control_change,0,0,8,,,,,,,7,80,7,,,
0,control_change,0,0,8,,,,,,,10,85,7,,,
0,control_change,0,0,8,,,,,,,91,70,7,,,
0,control_change,0,0,8,,,,,,,93,70,7,,,
0,track_name,0,1,9,,,,,,,,,,,,
0,control_change,0,0,9,,,,,,,0,0,8,,,
0,control_change,0,0,9,,,,,,,7,80,8,,,
0,control_change,0,0,9,,,,,,,10,75,8,,,
0,control_change,0,0,9,,,,,,,91,79,8,,,
0,control_change,0,0,9,,,,,,,93,79,8,,,
0,track_name,0,1,10,,,,,,,,,,,,
0,control_change,0,0,10,,,,,,,91,0,0,,,
0,control_change,0,0,10,,,,,,,93,0,0,,,
0,end_of_track,0,1,10,,,,,,,,,,,,
0,track_name,0,1,11,,,,,,,,,,,,
0,control_change,0,0,11,,,,,,,93,0,0,,,
0,track_name,0,1,1,,,,,,,,,,,,
0,end_of_track,0,1,14,,,,,,,,,,,,
0,marker,0,1,0,,,,,,,,,,,,
0,set_tempo,0,1,0,,,,,,555556,,,,,,
0,key_signature,0,1,0,,,,,Bb,,,,,,,
0,time_signature,0,1,0,4,4,24,8,,,,,,,,
1,control_change,1,0,2,,,,,,,32,1,1,,,
1,control_change,1,0,1,,,,,,,32,1,0,,,
1,control_change,1,0,4,,,,,,,32,1,3,,,
1,control_change,1,0,8,,,,,,,32,1,7,,,
1,control_change,1,0,3,,,,,,,32,1,2,,,
1,control_change,1,0,5,,,,,,,32,1,4,,,
1,control_change,1,0,6,,,,,,,32,1,5,,,
1,control_change,1,0,7,,,,,,,32,1,6,,,
1,control_change,1,0,9,,,,,,,32,1,8,,,
2,program_change,1,0,8,,,,,,,,,7,48,,
2,program_change,1,0,7,,,,,,,,,6,48,,
2,program_change,1,0,4,,,,,,,,,3,70,,
2,program_change,1,0,3,,,,,,,,,2,60,,
2,program_change,1,0,5,,,,,,,,,4,48,,
2,program_change,1,0,1,,,,,,,,,0,70,,
2,program_change,1,0,2,,,,,,,,,1,68,,
2,program_change,1,0,9,,,,,,,,,8,48,,
2,program_change,1,0,6,,,,,,,,,5,48,,
1440,note_on,1438,0,9,,,,,,,,,8,,46,64
1440,note_on,1438,0,4,,,,,,,,,3,,58,88
1440,note_on,1438,0,8,,,,,,,,,7,,58,64
1440,note_on,1438,0,7,,,,,,,,,6,,62,64
1440,note_on,0,0,3,,,,,,,,,2,,70,69
1440,note_on,1438,0,3,,,,,,,,,2,,62,69
1440,note_on,1438,0,5,,,,,,,,,4,,62,88
1440,note_on,0,0,5,,,,,,,,,4,,70,88
1440,note_on,1438,0,6,,,,,,,,,5,,65,64
1440,note_on,1438,0,2,,,,,,,,,1,,70,88
1860,note_on,420,0,7,,,,,,,,,6,,62,0
1860,note_on,420,0,4,,,,,,,,,3,,58,0
1860,note_on,420,0,8,,,,,,,,,7,,58,0
1860,note_on,420,0,9,,,,,,,,,8,,46,0
1920,note_on,60,0,8,,,,,,,,,7,,62,64
1920,note_on,60,0,9,,,,,,,,,8,,50,64
1920,note_on,60,0,7,,,,,,,,,6,,70,64
1920,note_on,60,0,4,,,,,,,,,3,,62,88
2340,note_on,0,0,5,,,,,,,,,4,,62,0
2340,note_on,0,0,3,,,,,,,,,2,,62,0
2340,note_on,420,0,7,,,,,,,,,6,,70,0
2340,note_on,900,0,6,,,,,,,,,5,,65,0
2340,note_on,900,0,2,,,,,,,,,1,,70,0
2340,note_on,420,0,8,,,,,,,,,7,,62,0
2340,note_on,420,0,4,,,,,,,,,3,,62,0
2340,note_on,900,0,5,,,,,,,,,4,,70,0
2340,note_on,900,0,3,,,,,,,,,2,,70,0
2340,note_on,420,0,9,,,,,,,,,8,,50,0
2400,note_on,60,0,6,,,,,,,,,5,,63,64
2400,note_on,60,0,7,,,,,,,,,6,,69,64
2400,note_on,60,0,2,,,,,,,,,1,,69,71
2400,note_on,0,0,2,,,,,,,,,1,,72,71
2400,note_on,60,0,5,,,,,,,,,4,,72,88
2400,note_on,60,0,8,,,,,,,,,7,,58,64
2400,note_on,60,0,9,,,,,,,,,8,,46,64
2400,note_on,60,0,4,,,,,,,,,3,,58,88
2607,note_on,0,0,2,,,,,,,,,1,,69,0
2607,note_on,207,0,6,,,,,,,,,5,,63,0
2607,note_on,207,0,7,,,,,,,,,6,,69,0
2607,note_on,207,0,5,,,,,,,,,4,,72,0
2607,note_on,207,0,2,,,,,,,,,1,,72,0
2640,note_on,33,0,2,,,,,,,,,1,,70,71
2640,note_on,33,0,7,,,,,,,,,6,,70,64
2640,note_on,33,0,5,,,,,,,,,4,,74,88
2640,note_on,0,0,2,,,,,,,,,1,,74,71
2640,note_on,33,0,6,,,,,,,,,5,,62,64
2820,note_on,420,0,8,,,,,,,,,7,,58,0
2820,note_on,420,0,4,,,,,,,,,3,,58,0
2820,note_on,420,0,9,,,,,,,,,8,,46,0
2847,note_on,207,0,6,,,,,,,,,5,,62,0
2847,note_on,207,0,5,,,,,,,,,4,,74,0
2847,note_on,207,0,2,,,,,,,,,1,,74,0
2847,note_on,0,0,2,,,,,,,,,1,,70,0
2847,note_on,207,0,7,,,,,,,,,6,,70,0
2880,note_on,60,0,4,,,,,,,,,3,,60,88
2880,note_on,33,0,6,,,,,,,,,5,,67,64
2880,note_on,33,0,2,,,,,,,,,1,,67,71
2880,note_on,33,0,7,,,,,,,,,6,,67,64
2880,note_on,0,0,2,,,,,,,,,1,,77,71
2880,note_on,60,0,8,,,,,,,,,7,,60,64
2880,note_on,60,0,9,,,,,,,,,8,,48,64
2880,note_on,33,0,5,,,,,,,,,4,,77,88
3087,note_on,207,0,2,,,,,,,,,1,,77,0
3087,note_on,207,0,5,,,,,,,,,4,,77,0
3120,note_on,33,0,5,,,,,,,,,4,,75,88
3120,note_on,33,0,2,,,,,,,,,1,,75,71
3300,note_on,420,0,4,,,,,,,,,3,,60,0
3300,note_on,420,0,6,,,,,,,,,5,,67,0
3300,note_on,420,0,9,,,,,,,,,8,,48,0
3300,note_on,420,0,8,,,,,,,,,7,,60,0
3327,note_on,0,0,2,,,,,,,,,1,,67,0
3327,note_on,207,0,5,,,,,,,,,4,,75,0
3327,note_on,207,0,2,,,,,,,,,1,,75,0
3360,note_on,60,0,9,,,,,,,,,8,,43,64
3360,note_on,0,0,2,,,,,,,,,1,,75,71
3360,note_on,33,0,2,,,,,,,,,1,,70,71
3360,note_on,0,0,3,,,,,,,,,2,,70,69
3360,note_on,60,0,8,,,,,,,,,7,,55,64
3360,note_on,33,0,5,,,,,,,,,4,,75,88
3360,note_on,60,0,6,,,,,,,,,5,,58,64
3360,note_on,60,0,4,,,,,,,,,3,,55,88
3360,note_on,1020,0,3,,,,,,,,,2,,58,69
3780,note_on,420,0,3,,,,,,,,,2,,70,0
3780,note_on,0,0,3,,,,,,,,,2,,58,0
3780,note_on,420,0,9,,,,,,,,,8,,43,0
3780,note_on,420,0,4,,,,,,,,,3,,55,0
3780,note_on,420,0,8,,,,,,,,,7,,55,0
3780,note_on,900,0,7,,,,,,,,,6,,67,0
3780,note_on,420,0,6,,,,,,,,,5,,58,0
3780,note_on,420,0,2,,,,,,,,,1,,70,0
3840,note_on,60,0,8,,,,,,,,,7,,57,64
3840,note_on,60,0,4,,,,,,,,,3,,57,88
3840,note_on,0,0,3,,,,,,,,,2,,72,69
3840,note_on,60,0,3,,,,,,,,,2,,65,69
3840,note_on,60,0,6,,,,,,,,,5,,60,64
3840,note_on,60,0,7,,,,,,,,,6,,65,64
3840,note_on,60,0,9,,,,,,,,,8,,45,64
3840,note_on,60,0,2,,,,,,,,,1,,72,71
4260,note_on,420,0,9,,,,,,,,,8,,45,0
4260,note_on,900,0,5,,,,,,,,,4,,75,0
4260,note_on,420,0,2,,,,,,,,,1,,72,0
4260,note_on,0,0,2,,,,,,,,,1,,75,0
4260,note_on,420,0,3,,,,,,,,,2,,72,0
4260,note_on,0,0,3,,,,,,,,,2,,65,0
4260,note_on,420,0,6,,,,,,,,,5,,60,0
4260,note_on,420,0,4,,,,,,,,,3,,57,0
4260,note_on,420,0,7,,,,,,,,,6,,65,0
4260,note_on,420,0,8,,,,,,,,,7,,57,0
4320,note_on,60,0,7,,,,,,,,,6,,65,64
4320,note_on,0,0,2,,,,,,,,,1,,74,71
4320,note_on,0,0,3,,,,,,,,,2,,74,69
4320,note_on,60,0,2,,,,,,,,,1,,70,71
4320,note_on,60,0,8,,,,,,,,,7,,58,64
4320,note_on,60,0,3,,,,,,,,,2,,70,69
4320,note_on,60,0,4,,,,,,,,,3,,58,88
4320,note_on,60,0,6,,,,,,,,,5,,58,64
4320,note_on,60,0,9,,,,,,,,,8,,46,64
4320,note_on,60,0,5,,,,,,,,,4,,74,88
4527,note_on,207,0,7,,,,,,,,,6,,65,0
4527,note_on,207,0,5,,,,,,,,,4,,74,0
4527,note_on,207,0,6,,,,,,,,,5,,58,0
4527,note_on,207,0,2,,,,,,,,,1,,74,0
4560,note_on,33,0,7,,,,,,,,,6,,62,64
4560,note_on,33,0,2,,,,,,,,,1,,77,71
4560,note_on,33,0,6,,,,,,,,,5,,62,64
4560,note_on,33,0,5,,,,,,,,,4,,77,88
4740,note_on,420,0,8,,,,,,,,,7,,58,0
4740,note_on,420,0,9,,,,,,,,,8,,46,0
4740,note_on,420,0,4,,,,,,,,,3,,58,0
4767,note_on,207,0,7,,,,,,,,,6,,62,0
4767,note_on,207,0,2,,,,,,,,,1,,77,0
4767,note_on,207,0,6,,,,,,,,,5,,62,0
4767,note_on,0,0,2,,,,,,,,,1,,70,0
4767,note_on,207,0,5,,,,,,,,,4,,77,0
4800,note_on,60,0,8,,,,,,,,,7,,55,64
4800,note_on,33,0,5,,,,,,,,,4,,70,88
4800,note_on,60,0,4,,,,,,,,,3,,55,88
4800,note_on,33,0,2,,,,,,,,,1,,74,71
4800,note_on,33,0,6,,,,,,,,,5,,62,64
4800,note_on,60,0,9,,,,,,,,,8,,43,64
4800,note_on,0,0,2,,,,,,,,,1,,82,71
4800,note_on,33,0,7,,,,,,,,,6,,65,64
5007,note_on,207,0,5,,,,,,,,,4,,70,0
5007,note_on,207,0,7,,,,,,,,,6,,65,0
5007,note_on,207,0,6,,,,,,,,,5,,62,0
5040,note_on,33,0,6,,,,,,,,,5,,70,64
5040,note_on,33,0,7,,,,,,,,,6,,58,64
5040,note_on,33,0,5,,,,,,,,,4,,74,88
5220,note_on,900,0,3,,,,,,,,,2,,74,0
5220,note_on,0,0,2,,,,,,,,,1,,74,0
5220,note_on,420,0,8,,,,,,,,,7,,55,0
5220,note_on,420,0,9,,,,,,,,,8,,43,0
5220,note_on,420,0,4,,,,,,,,,3,,55,0
5220,note_on,0,0,3,,,,,,,,,2,,70,0
5220,note_on,420,0,2,,,,,,,,,1,,82,0
5247,note_on,207,0,5,,,,,,,,,4,,74,0
5247,note_on,207,0,7,,,,,,,,,6,,58,0
5247,note_on,207,0,6,,,,,,,,,5,,70,0
5280,note_on,0,0,3,,,,,,,,,2,,75,69
5280,note_on,60,0,8,,,,,,,,,7,,51,64
5280,note_on,33,0,5,,,,,,,,,4,,67,88
5280,note_on,60,0,3,,,,,,,,,2,,72,69
5280,note_on,33,0,6,,,,,,,,,5,,67,64
5280,note_on,33,0,7,,,,,,,,,6,,63,64
5280,note_on,60,0,9,,,,,,,,,8,,39,64
5280,note_on,60,0,2,,,,,,,,,1,,79,71
5280,note_on,60,0,4,,,,,,,,,3,,51,88
5487,note_on,207,0,6,,,,,,,,,5,,67,0
5487,note_on,207,0,2,,,,,,,,,1,,79,0
5487,note_on,207,0,5,,,,,,,,,4,,67,0
5487,note_on,207,0,7,,,,,,,,,6,,63,0
5520,note_on,33,0,5,,,,,,,,,4,,72,88
5520,note_on,33,0,7,,,,,,,,,6,,60,64
5520,note_on,0,0,2,,,,,,,,,1,,84,71
5520,note_on,33,0,2,,,,,,,,,1,,75,71
5520,note_on,33,0,6,,,,,,,,,5,,63,64
5700,note_on,0,0,3,,,,,,,,,2,,72,0
5700,note_on,420,0,4,,,,,,,,,3,,51,0
5700,note_on,420,0,8,,,,,,,,,7,,51,0
5700,note_on,420,0,3,,,,,,,,,2,,75,0
5700,note_on,420,0,9,,,,,,,,,8,,39,0
5727,note_on,207,0,2,,,,,,,,,1,,84,0
5727,note_on,0,0,2,,,,,,,,,1,,75,0
5727,note_on,207,0,5,,,,,,,,,4,,72,0
5727,note_on,207,0,7,,,,,,,,,6,,60,0
5727,note_on,207,0,6,,,,,,,,,5,,63,0
5760,note_on,33,0,6,,,,,,,,,5,,62,64
5760,note_on,60,0,8,,,,,,,,,7,,53,64
5760,note_on,60,0,9,,,,,,,,,8,,41,64
5760,note_on,60,0,3,,,,,,,,,2,,65,70
5760,note_on,60,0,4,,,,,,,,,3,,53,88
5760,note_on,33,0,7,,,,,,,,,6,,53,64
5760,note_on,33,0,5,,,,,,,,,4,,70,88
5760,note_on,0,0,2,,,,,,,,,1,,82,71
5760,note_on,33,0,2,,,,,,,,,1,,74,71
5967,note_on,207,0,6,,,,,,,,,5,,62,0
5967,note_on,0,0,2,,,,,,,,,1,,74,0
5967,note_on,207,0,2,,,,,,,,,1,,82,0
5967,note_on,207,0,5,,,,,,,,,4,,70,0
6000,note_on,33,0,6,,,,,,,,,5,,60,64
6000,note_on,33,0,5,,,,,,,,,4,,69,88
6000,note_on,33,0,2,,,,,,,,,1,,72,71
6000,note_on,0,0,2,,,,,,,,,1,,81,71
6180,note_on,420,0,8,,,,,,,,,7,,53,0
6180,note_on,420,0,4,,,,,,,,,3,,53,0
6180,note_on,420,0,7,,,,,,,,,6,,53,0
6180,note_on,420,0,9,,,,,,,,,8,,41,0
6207,note_on,0,0,2,,,,,,,,,1,,72,0
6207,note_on,207,0,5,,,,,,,,,4,,69,0
6207,note_on,207,0,2,,,,,,,,,1,,81,0
6207,note_on,207,0,6,,,,,,,,,5,,60,0
6240,note_on,60,0,7,,,,,,,,,6,,65,64
6240,note_on,60,0,4,,,,,,,,,3,,53,88
6240,note_on,60,0,9,,,,,,,,,8,,41,64
6240,note_on,33,0,5,,,,,,,,,4,,67,88
6240,note_on,60,0,8,,,,,,,,,7,,53,64
6240,note_on,33,0,6,,,,,,,,,5,,58,64
6240,note_on,33,0,2,,,,,,,,,1,,70,71
6240,note_on,0,0,2,,,,,,,,,1,,79,71
6447,note_on,207,0,6,,,,,,,,,5,,58,0
6447,note_on,207,0,2,,,,,,,,,1,,79,0
6447,note_on,207,0,5,,,,,,,,,4,,67,0
6447,note_on,0,0,2,,,,,,,,,1,,70,0
6480,note_on,33,0,5,,,,,,,,,4,,65,88
6480,note_on,0,0,2,,,,,,,,,1,,77,71
6480,note_on,33,0,6,,,,,,,,,5,,57,64
6480,note_on,33,0,2,,,,,,,,,1,,69,71
6660,note_on,420,0,7,,,,,,,,,6,,65,0
6660,note_on,420,0,9,,,,,,,,,8,,41,0
6660,note_on,420,0,4,,,,,,,,,3,,53,0
6660,note_on,420,0,8,,,,,,,,,7,,53,0
6687,note_on,207,0,5,,,,,,,,,4,,65,0
6687,note_on,207,0,2,,,,,,,,,1,,77,0
6687,note_on,0,0,2,,,,,,,,,1,,69,0
6687,note_on,207,0,6,,,,,,,,,5,,57,0
6720,note_on,33,0,6,,,,,,,,,5,,58,64
6720,note_on,60,0,9,,,,,,,,,8,,39,64
6720,note_on,33,0,2,,,,,,,,,1,,70,71
6720,note_on,0,0,2,,,,,,,,,1,,79,71
6720,note_on,60,0,7,,,,,,,,,6,,65,64
6720,note_on,33,0,5,,,,,,,,,4,,67,88
6720,note_on,60,0,8,,,,,,,,,7,,51,64
6720,note_on,60,0,4,,,,,,,,,3,,51,88
6927,note_on,207,0,6,,,,,,,,,5,,58,0
6927,note_on,207,0,5,,,,,,,,,4,,67,0
6927,note_on,0,0,2,,,,,,,,,1,,70,0
6927,note_on,207,0,2,,,,,,,,,1,,79,0
6960,note_on,33,0,6,,,,,,,,,5,,60,64
6960,note_on,0,0,2,,,,,,,,,1,,81,71
6960,note_on,33,0,5,,,,,,,,,4,,69,88
6960,note_on,33,0,2,,,,,,,,,1,,72,71
7140,note_on,420,0,9,,,,,,,,,8,,39,0
7140,note_on,420,0,8,,,,,,,,,7,,51,0
7140,note_on,420,0,4,,,,,,,,,3,,51,0
7140,note_on,420,0,7,,,,,,,,,6,,65,0
7167,note_on,207,0,6,,,,,,,,,5,,60,0
7167,note_on,0,0,2,,,,,,,,,1,,72,0
7167,note_on,207,0,2,,,,,,,,,1,,81,0
7167,note_on,207,0,5,,,,,,,,,4,,69,0
7200,note_on,60,0,9,,,,,,,,,8,,38,64
7200,note_on,60,0,4,,,,,,,,,3,,50,88
7200,note_on,0,0,2,,,,,,,,,1,,82,71
7200,note_on,33,0,2,,,,,,,,,1,,74,71
7200,note_on,1440,0,3,,,,,,,,,2,,58,70
7200,note_on,60,0,8,,,,,,,,,7,,50,64
7200,note_on,33,0,5,,,,,,,,,4,,62,88
7200,note_on,0,0,5,,,,,,,,,4,,70,88
7200,note_on,60,0,7,,,,,,,,,6,,65,64
7200,note_on,33,0,6,,,,,,,,,5,,62,64
7620,note_on,420,0,8,,,,,,,,,7,,50,0
7620,note_on,420,0,4,,,,,,,,,3,,50,0
7620,note_on,420,0,9,,,,,,,,,8,,38,0
7620,note_on,420,0,7,,,,,,,,,6,,65,0
7620,note_on,420,0,6,,,,,,,,,5,,62,0
7620,note_on,0,0,2,,,,,,,,,1,,74,0
7620,note_on,420,0,2,,,,,,,,,1,,82,0
7680,note_on,60,0,9,,,,,,,,,8,,50,64
7680,note_on,60,0,2,,,,,,,,,1,,70,71
7680,note_on,60,0,6,,,,,,,,,5,,65,64
7680,note_on,60,0,7,,,,,,,,,6,,70,64
7680,note_on,60,0,4,,,,,,,,,3,,62,88
7680,note_on,60,0,8,,,,,,,,,7,,62,64
8100,note_on,420,0,4,,,,,,,,,3,,62,0
8100,note_on,0,0,5,,,,,,,,,4,,62,0
8100,note_on,420,0,7,,,,,,,,,6,,70,0
8100,note_on,420,0,6,,,,,,,,,5,,65,0
8100,note_on,420,0,9,,,,,,,,,8,,50,0
8100,note_on,420,0,8,,,,,,,,,7,,62,0
8100,note_on,900,0,5,,,,,,,,,4,,70,0
8100,note_on,0,0,3,,,,,,,,,2,,65,0
8100,note_on,900,0,3,,,,,,,,,2,,58,0
8100,note_on,420,0,2,,,,,,,,,1,,70,0
8160,note_on,60,0,8,,,,,,,,,7,,58,64
8160,note_on,60,0,7,,,,,,,,,6,,69,64
8160,note_on,60,0,6,,,,,,,,,5,,63,64
8160,note_on,0,0,2,,,,,,,,,1,,72,71
8160,note_on,60,0,5,,,,,,,,,4,,72,88
8160,note_on,60,0,4,,,,,,,,,3,,58,88
8160,note_on,60,0,9,,,,,,,,,8,,46,64
8160,note_on,60,0,2,,,,,,,,,1,,69,71
8367,note_on,207,0,2,,,,,,,,,1,,72,0
8367,note_on,207,0,7,,,,,,,,,6,,69,0
8367,note_on,207,0,5,,,,,,,,,4,,72,0
8367,note_on,207,0,6,,,,,,,,,5,,63,0
8367,note_on,0,0,2,,,,,,,,,1,,69,0
8400,note_on,33,0,6,,,,,,,,,5,,62,64
8400,note_on,33,0,5,,,,,,,,,4,,74,88
8400,note_on,0,0,2,,,,,,,,,1,,74,71
8400,note_on,33,0,7,,,,,,,,,6,,70,64
8400,note_on,33,0,2,,,,,,,,,1,,70,71
8580,note_on,420,0,9,,,,,,,,,8,,46,0
8580,note_on,420,0,4,,,,,,,,,3,,58,0
8580,note_on,420,0,8,,,,,,,,,7,,58,0
8607,note_on,207,0,5,,,,,,,,,4,,74,0
8607,note_on,207,0,7,,,,,,,,,6,,70,0
8607,note_on,207,0,6,,,,,,,,,5,,62,0
8607,note_on,207,0,2,,,,,,,,,1,,74,0
8607,note_on,0,0,2,,,,,,,,,1,,70,0
8640,note_on,60,0,8,,,,,,,,,7,,60,64
8640,note_on,33,0,6,,,,,,,,,5,,67,64
8640,note_on,60,0,4,,,,,,,,,3,,60,88
8640,note_on,33,0,7,,,,,,,,,6,,67,64
8640,note_on,33,0,2,,,,,,,,,1,,67,71
8640,note_on,60,0,9,,,,,,,,,8,,48,64
8640,note_on,33,0,5,,,,,,,,,4,,77,88
8640,note_on,0,0,2,,,,,,,,,1,,77,71
8847,note_on,207,0,2,,,,,,,,,1,,77,0
8847,note_on,207,0,5,,,,,,,,,4,,77,0
8880,note_on,33,0,2,,,,,,,,,1,,75,71
8880,note_on,33,0,5,,,,,,,,,4,,75,88
9060,note_on,420,0,8,,,,,,,,,7,,60,0
9060,note_on,420,0,6,,,,,,,,,5,,67,0
9060,note_on,420,0,9,,,,,,,,,8,,48,0
9060,note_on,420,0,4,,,,,,,,,3,,60,0
9087,note_on,207,0,2,,,,,,,,,1,,75,0
9087,note_on,0,0,2,,,,,,,,,1,,67,0
9087,note_on,207,0,5,,,,,,,,,4,,75,0
9120,note_on,33,0,5,,,,,,,,,4,,75,88
9120,note_on,60,0,9,,,,,,,,,8,,43,64
9120,note_on,60,0,6,,,,,,,,,5,,58,64
9120,note_on,0,0,3,,,,,,,,,2,,70,70
9120,note_on,1020,0,3,,,,,,,,,2,,58,70
9120,note_on,60,0,8,,,,,,,,,7,,55,64
9120,note_on,33,0,2,,,,,,,,,1,,70,71
9120,note_on,60,0,4,,,,,,,,,3,,55,88
9120,note_on,0,0,2,,,,,,,,,1,,75,71
9540,note_on,420,0,4,,,,,,,,,3,,55,0
9540,note_on,420,0,9,,,,,,,,,8,,43,0
9540,note_on,0,0,3,,,,,,,,,2,,58,0
9540,note_on,420,0,3,,,,,,,,,2,,70,0
9540,note_on,900,0,7,,,,,,,,,6,,67,0
9540,note_on,420,0,8,,,,,,,,,7,,55,0
9540,note_on,420,0,6,,,,,,,,,5,,58,0
9540,note_on,420,0,2,,,,,,,,,1,,70,0
9600,note_on,60,0,9,,,,,,,,,8,,45,64
9600,note_on,60,0,6,,,,,,,,,5,,60,64
9600,note_on,60,0,4,,,,,,,,,3,,57,88
9600,note_on,60,0,3,,,,,,,,,2,,65,70
9600,note_on,0,0,3,,,,,,,,,2,,72,70
9600,note_on,60,0,8,,,,,,,,,7,,57,64
9600,note_on,60,0,2,,,,,,,,,1,,72,71
9600,note_on,60,0,7,,,,,,,,,6,,65,64
10020,note_on,420,0,9,,,,,,,,,8,,45,0
10020,note_on,420,0,6,,,,,,,,,5,,60,0
10020,note_on,900,0,5,,,,,,,,,4,,75,0
10020,note_on,420,0,8,,,,,,,,,7,,57,0
10020,note_on,420,0,2,,,,,,,,,1,,72,0
10020,note_on,0,0,2,,,,,,,,,1,,75,0
10020,note_on,0,0,3,,,,,,,,,2,,65,0
10020,note_on,420,0,3,,,,,,,,,2,,72,0
10020,note_on,420,0,7,,,,,,,,,6,,65,0
10020,note_on,420,0,4,,,,,,,,,3,,57,0
10080,note_on,60,0,3,,,,,,,,,2,,70,73
10080,note_on,0,0,3,,,,,,,,,2,,74,73
10080,note_on,60,0,2,,,,,,,,,1,,70,71
10080,note_on,0,0,2,,,,,,,,,1,,74,71
10080,note_on,60,0,9,,,,,,,,,8,,46,64
10080,note_on,60,0,4,,,,,,,,,3,,58,88
10080,note_on,60,0,7,,,,,,,,,6,,65,64
10080,note_on,60,0,6,,,,,,,,,5,,65,64
10080,note_on,60,0,8,,,,,,,,,7,,58,64
10080,note_on,60,0,5,,,,,,,,,4,,74,88
10390,note_on,310,0,5,,,,,,,,,4,,74,0
10390,note_on,310,0,2,,,,,,,,,1,,74,0
10440,note_on,50,0,5,,,,,,,,,4,,75,88
10440,note_on,50,0,2,,,,,,,,,1,,77,71
10490,note_on,50,0,5,,,,,,,,,4,,75,0
10500,note_on,420,0,6,,,,,,,,,5,,65,0
10500,note_on,420,0,9,,,,,,,,,8,,46,0
10500,note_on,10,0,5,,,,,,,,,4,,77,88
10500,note_on,420,0,4,,,,,,,,,3,,58,0
10500,note_on,420,0,8,,,,,,,,,7,,58,0
10500,note_on,420,0,7,,,,,,,,,6,,65,0
10542,note_on,0,0,2,,,,,,,,,1,,70,0
10542,note_on,102,0,2,,,,,,,,,1,,77,0
10550,note_on,50,0,5,,,,,,,,,4,,77,0
10560,note_on,60,0,8,,,,,,,,,7,,53,64
10560,note_on,10,0,5,,,,,,,,,4,,70,88
10560,note_on,0,0,2,,,,,,,,,1,,82,72
10560,note_on,18,0,2,,,,,,,,,1,,74,72
10560,note_on,60,0,7,,,,,,,,,6,,65,64
10560,note_on,60,0,6,,,,,,,,,5,,62,64
10560,note_on,60,0,9,,,,,,,,,8,,41,64
10560,note_on,60,0,4,,,,,,,,,3,,53,88
10980,note_on,420,0,4,,,,,,,,,3,,53,0
10980,note_on,900,0,3,,,,,,,,,2,,74,0
10980,note_on,0,0,3,,,,,,,,,2,,70,0
10980,note_on,420,0,6,,,,,,,,,5,,62,0
10980,note_on,420,0,8,,,,,,,,,7,,53,0
10980,note_on,420,0,9,,,,,,,,,8,,41,0
10980,note_on,420,0,7,,,,,,,,,6,,65,0
10980,note_on,420,0,5,,,,,,,,,4,,70,0
10980,note_on,0,0,2,,,,,,,,,1,,74,0
10980,note_on,420,0,2,,,,,,,,,1,,82,0
11040,note_on,60,0,5,,,,,,,,,4,,69,88
11040,note_on,60,0,9,,,,,,,,,8,,29,64
11040,note_on,60,0,4,,,,,,,,,3,,41,88
11040,note_on,60,0,7,,,,,,,,,6,,65,64
11040,note_on,0,0,3,,,,,,,,,2,,72,73
11040,note_on,60,0,3,,,,,,,,,2,,65,73
11040,note_on,60,0,8,,,,,,,,,7,,41,64
11040,note_on,0,0,2,,,,,,,,,1,,81,72
11040,note_on,60,0,6,,,,,,,,,5,,60,64
11040,note_on,60,0,2,,,,,,,,,1,,72,72
11460,note_on,420,0,9,,,,,,,,,8,,29,0
11460,note_on,420,0,5,,,,,,,,,4,,69,0
11460,note_on,0,0,2,,,,,,,,,1,,72,0
11460,note_on,420,0,4,,,,,,,,,3,,41,0
11460,note_on,420,0,7,,,,,,,,,6,,65,0
11460,note_on,420,0,2,,,,,,,,,1,,81,0
11460,note_on,420,0,8,,,,,,,,,7,,41,0
11460,note_on,0,0,3,,,,,,,,,2,,65,0
11460,note_on,420,0,6,,,,,,,,,5,,60,0
11460,note_on,420,0,3,,,,,,,,,2,,72,0
11520,note_on,60,0,4,,,,,,,,,3,,46,88
11520,note_on,0,0,2,,,,,,,,,1,,82,72
11520,note_on,60,0,8,,,,,,,,,7,,46,64
11520,note_on,60,0,2,,,,,,,,,1,,74,72
11520,note_on,0,0,3,,,,,,,,,2,,70,73
11520,note_on,60,0,3,,,,,,,,,2,,62,73
11520,note_on,60,0,5,,,,,,,,,4,,62,88
11520,note_on,0,0,5,,,,,,,,,4,,70,88
11520,note_on,60,0,9,,,,,,,,,8,,34,64
11520,note_on,60,0,7,,,,,,,,,6,,65,64
11520,note_on,0,0,6,,,,,,,,,5,,70,64
11520,note_on,60,0,6,,,,,,,,,5,,62,64
11940,note_on,420,0,8,,,,,,,,,7,,46,0
11940,note_on,420,0,9,,,,,,,,,8,,34,0
11940,note_on,420,0,4,,,,,,,,,3,,46,0
12000,note_on,60,0,9,,,,,,,,,8,,41,64
12000,note_on,60,0,4,,,,,,,,,3,,53,88
12000,note_on,60,0,8,,,,,,,,,7,,53,64
12420,note_on,900,0,5,,,,,,,,,4,,70,0
12420,note_on,420,0,8,,,,,,,,,7,,53,0
12420,note_on,900,0,7,,,,,,,,,6,,65,0
12420,note_on,420,0,9,,,,,,,,,8,,41,0
12420,note_on,900,0,2,,,,,,,,,1,,82,0
12420,note_on,0,0,2,,,,,,,,,1,,74,0
12420,note_on,900,0,6,,,,,,,,,5,,70,0
12420,note_on,0,0,6,,,,,,,,,5,,62,0
12420,note_on,0,0,5,,,,,,,,,4,,62,0
12420,note_on,0,0,3,,,,,,,,,2,,62,0
12420,note_on,420,0,4,,,,,,,,,3,,53,0
12420,note_on,900,0,3,,,,,,,,,2,,70,0
12480,note_on,60,0,8,,,,,,,,,7,,58,64
12480,note_on,60,0,9,,,,,,,,,8,,46,64
12480,note_on,60,0,4,,,,,,,,,3,,58,88
12900,note_on,420,0,8,,,,,,,,,7,,58,0
12900,note_on,420,0,9,,,,,,,,,8,,46,0
12900,note_on,420,0,4,,,,,,,,,3,,58,0
12960,note_on,540,0,2,,,,,,,,,1,,70,72
12960,note_on,60,0,9,,,,,,,,,8,,46,64
12960,note_on,60,0,8,,,,,,,,,7,,58,64
12960,note_on,0,0,3,,,,,,,,,2,,70,73
12960,note_on,540,0,7,,,,,,,,,6,,62,64
12960,note_on,540,0,6,,,,,,,,,5,,65,64
12960,note_on,60,0,4,,,,,,,,,3,,58,88
12960,note_on,0,0,5,,,,,,,,,4,,70,88
12960,note_on,540,0,5,,,,,,,,,4,,62,88
12960,note_on,540,0,3,,,,,,,,,2,,62,73
13380,note_on,420,0,8,,,,,,,,,7,,58,0
13380,note_on,420,0,4,,,,,,,,,3,,58,0
13380,note_on,420,0,9,,,,,,,,,8,,46,0
13380,note_on,420,0,7,,,,,,,,,6,,62,0
13440,note_on,60,0,9,,,,,,,,,8,,50,64
13440,note_on,60,0,4,,,,,,,,,3,,62,88
13440,note_on,60,0,8,,,,,,,,,7,,62,64
13440,note_on,60,0,7,,,,,,,,,6,,70,64
13860,note_on,420,0,7,,,,,,,,,6,,70,0
13860,note_on,420,0,9,,,,,,,,,8,,50,0
13860,note_on,420,0,4,,,,,,,,,3,,62,0
13860,note_on,900,0,6,,,,,,,,,5,,65,0
13860,note_on,420,0,8,,,,,,,,,7,,62,0
13860,note_on,900,0,2,,,,,,,,,1,,70,0
13860,note_on,0,0,5,,,,,,,,,4,,62,0
13860,note_on,900,0,5,,,,,,,,,4,,70,0
13860,note_on,900,0,3,,,,,,,,,2,,70,0
13860,note_on,0,0,3,,,,,,,,,2,,62,0
13920,note_on,60,0,5,,,,,,,,,4,,72,88
13920,note_on,60,0,4,,,,,,,,,3,,58,88
13920,note_on,60,0,6,,,,,,,,,5,,63,64
13920,note_on,60,0,9,,,,,,,,,8,,46,64
13920,note_on,60,0,7,,,,,,,,,6,,69,64
13920,note_on,0,0,2,,,,,,,,,1,,72,72
13920,note_on,60,0,2,,,,,,,,,1,,69,72
13920,note_on,60,0,8,,,,,,,,,7,,58,64
14127,note_on,0,0,2,,,,,,,,,1,,69,0
14127,note_on,207,0,2,,,,,,,,,1,,72,0
14127,note_on,207,0,6,,,,,,,,,5,,63,0
14127,note_on,207,0,5,,,,,,,,,4,,72,0
14127,note_on,207,0,7,,,,,,,,,6,,69,0
14160,note_on,33,0,6,,,,,,,,,5,,62,64
14160,note_on,33,0,2,,,,,,,,,1,,70,72
14160,note_on,33,0,5,,,,,,,,,4,,74,88
14160,note_on,33,0,7,,,,,,,,,6,,70,64
14160,note_on,0,0,2,,,,,,,,,1,,74,72
14340,note_on,420,0,8,,,,,,,,,7,,58,0
14340,note_on,420,0,9,,,,,,,,,8,,46,0
14340,note_on,420,0,4,,,,,,,,,3,,58,0
14367,note_on,207,0,5,,,,,,,,,4,,74,0
14367,note_on,207,0,6,,,,,,,,,5,,62,0
14367,note_on,207,0,7,,,,,,,,,6,,70,0
14367,note_on,207,0,2,,,,,,,,,1,,74,0
14367,note_on,0,0,2,,,,,,,,,1,,70,0
14400,note_on,33,0,6,,,,,,,,,5,,67,64
14400,note_on,60,0,9,,,,,,,,,8,,48,64
14400,note_on,60,0,8,,,,,,,,,7,,60,64
14400,note_on,33,0,7,,,,,,,,,6,,67,64
14400,note_on,33,0,5,,,,,,,,,4,,77,88
14400,note_on,0,0,2,,,,,,,,,1,,77,72
14400,note_on,33,0,2,,,,,,,,,1,,67,72
14400,note_on,60,0,4,,,,,,,,,3,,60,88
14607,note_on,207,0,2,,,,,,,,,1,,77,0
14607,note_on,207,0,5,,,,,,,,,4,,77,0
14640,note_on,33,0,5,,,,,,,,,4,,75,88
14640,note_on,33,0,2,,,,,,,,,1,,75,72
14820,note_on,420,0,6,,,,,,,,,5,,67,0
14820,note_on,420,0,8,,,,,,,,,7,,60,0
14820,note_on,420,0,4,,,,,,,,,3,,60,0
14820,note_on,420,0,9,,,,,,,,,8,,48,0
14847,note_on,0,0,2,,,,,,,,,1,,67,0
14847,note_on,207,0,2,,,,,,,,,1,,75,0
14847,note_on,207,0,5,,,,,,,,,4,,75,0
14880,note_on,0,0,2,,,,,,,,,1,,75,72
14880,note_on,60,0,6,,,,,,,,,5,,58,64
14880,note_on,60,0,4,,,,,,,,,3,,55,88
14880,note_on,1020,0,3,,,,,,,,,2,,58,73
14880,note_on,33,0,2,,,,,,,,,1,,70,72
14880,note_on,33,0,5,,,,,,,,,4,,75,88
14880,note_on,0,0,3,,,,,,,,,2,,70,73
14880,note_on,60,0,8,,,,,,,,,7,,55,64
14880,note_on,60,0,9,,,,,,,,,8,,43,64
15300,note_on,420,0,6,,,,,,,,,5,,58,0
15300,note_on,420,0,8,,,,,,,,,7,,55,0
15300,note_on,420,0,2,,,,,,,,,1,,70,0
15300,note_on,420,0,9,,,,,,,,,8,,43,0
15300,note_on,0,0,3,,,,,,,,,2,,58,0
15300,note_on,420,0,3,,,,,,,,,2,,70,0
15300,note_on,420,0,4,,,,,,,,,3,,55,0
15300,note_on,900,0,7,,,,,,,,,6,,67,0
15360,note_on,60,0,4,,,,,,,,,3,,57,88
15360,note_on,60,0,2,,,,,,,,,1,,72,72
15360,note_on,60,0,6,,,,,,,,,5,,60,64
15360,note_on,60,0,9,,,,,,,,,8,,45,64
15360,note_on,60,0,8,,,,,,,,,7,,57,64
15360,note_on,60,0,3,,,,,,,,,2,,65,73
15360,note_on,0,0,3,,,,,,,,,2,,72,73
15360,note_on,60,0,7,,,,,,,,,6,,65,64
15780,note_on,420,0,7,,,,,,,,,6,,65,0
15780,note_on,420,0,9,,,,,,,,,8,,45,0
15780,note_on,0,0,2,,,,,,,,,1,,75,0
15780,note_on,0,0,3,,,,,,,,,2,,65,0
15780,note_on,420,0,3,,,,,,,,,2,,72,0
15780,note_on,420,0,2,,,,,,,,,1,,72,0
15780,note_on,420,0,6,,,,,,,,,5,,60,0
15780,note_on,420,0,4,,,,,,,,,3,,57,0
15780,note_on,420,0,8,,,,,,,,,7,,57,0
15780,note_on,900,0,5,,,,,,,,,4,,75,0
15840,note_on,0,0,3,,,,,,,,,2,,74,73
15840,note_on,60,0,4,,,,,,,,,3,,58,88
15840,note_on,60,0,2,,,,,,,,,1,,70,72
15840,note_on,0,0,2,,,,,,,,,1,,74,72
15840,note_on,60,0,8,,,,,,,,,7,,58,64
15840,note_on,60,0,3,,,,,,,,,2,,70,73
15840,note_on,60,0,5,,,,,,,,,4,,74,88
15840,note_on,60,0,6,,,,,,,,,5,,58,64
15840,note_on,60,0,9,,,,,,,,,8,,46,64
15840,note_on,60,0,7,,,,,,,,,6,,65,64
16047,note_on,207,0,2,,,,,,,,,1,,74,0
16047,note_on,207,0,5,,,,,,,,,4,,74,0
16047,note_on,207,0,6,,,,,,,,,5,,58,0
16047,note_on,207,0,7,,,,,,,,,6,,65,0
16080,note_on,33,0,7,,,,,,,,,6,,62,64
16080,note_on,33,0,2,,,,,,,,,1,,77,72
16080,note_on,33,0,5,,,,,,,,,4,,77,88
16080,note_on,33,0,6,,,,,,,,,5,,62,64
16260,note_on,420,0,4,,,,,,,,,3,,58,0
16260,note_on,420,0,9,,,,,,,,,8,,46,0
16260,note_on,420,0,8,,,,,,,,,7,,58,0
16287,note_on,207,0,2,,,,,,,,,1,,77,0
16287,note_on,207,0,5,,,,,,,,,4,,77,0
16287,note_on,207,0,7,,,,,,,,,6,,62,0
16287,note_on,0,0,2,,,,,,,,,1,,70,0
16287,note_on,207,0,6,,,,,,,,,5,,62,0
16320,note_on,33,0,2,,,,,,,,,1,,74,72
16320,note_on,0,0,2,,,,,,,,,1,,82,72
16320,note_on,60,0,4,,,,,,,,,3,,55,88
16320,note_on,33,0,6,,,,,,,,,5,,62,64
16320,note_on,60,0,9,,,,,,,,,8,,43,64
16320,note_on,60,0,8,,,,,,,,,7,,55,64
16320,note_on,33,0,7,,,,,,,,,6,,65,64
16320,note_on,33,0,5,,,,,,,,,4,,70,88
16527,note_on,207,0,7,,,,,,,,,6,,65,0
16527,note_on,207,0,6,,,,,,,,,5,,62,0
16527,note_on,207,0,5,,,,,,,,,4,,70,0
16560,note_on,33,0,6,,,,,,,,,5,,70,64
16560,note_on,33,0,7,,,,,,,,,6,,58,64
16560,note_on,33,0,5,,,,,,,,,4,,74,88
16740,note_on,0,0,3,,,,,,,,,2,,70,0
16740,note_on,900,0,3,,,,,,,,,2,,74,0
16740,note_on,420,0,4,,,,,,,,,3,,55,0
16740,note_on,420,0,2,,,,,,,,,1,,82,0
16740,note_on,0,0,2,,,,,,,,,1,,74,0
16740,note_on,420,0,9,,,,,,,,,8,,43,0
16740,note_on,420,0,8,,,,,,,,,7,,55,0
16767,note_on,207,0,7,,,,,,,,,6,,58,0
16767,note_on,207,0,5,,,,,,,,,4,,74,0
16767,note_on,207,0,6,,,,,,,,,5,,70,0
16800,note_on,33,0,5,,,,,,,,,4,,67,88
16800,note_on,60,0,4,,,,,,,,,3,,51,88
16800,note_on,60,0,9,,,,,,,,,8,,39,64
16800,note_on,33,0,7,,,,,,,,,6,,63,64
16800,note_on,60,0,2,,,,,,,,,1,,79,72
16800,note_on,33,0,6,,,,,,,,,5,,67,64
16800,note_on,60,0,8,,,,,,,,,7,,51,64
16800,note_on,60,0,3,,,,,,,,,2,,72,73
16800,note_on,0,0,3,,,,,,,,,2,,75,73
17007,note_on,207,0,5,,,,,,,,,4,,67,0
17007,note_on,207,0,6,,,,,,,,,5,,67,0
17007,note_on,207,0,7,,,,,,,,,6,,63,0
17007,note_on,207,0,2,,,,,,,,,1,,79,0
17040,note_on,33,0,6,,,,,,,,,5,,63,64
17040,note_on,33,0,2,,,,,,,,,1,,75,72
17040,note_on,0,0,2,,,,,,,,,1,,84,72
17040,note_on,33,0,7,,,,,,,,,6,,60,64
17040,note_on,33,0,5,,,,,,,,,4,,72,88
17220,note_on,0,0,3,,,,,,,,,2,,72,0
17220,note_on,420,0,3,,,,,,,,,2,,75,0
17220,note_on,420,0,8,,,,,,,,,7,,51,0
17220,note_on,420,0,4,,,,,,,,,3,,51,0
17220,note_on,420,0,9,,,,,,,,,8,,39,0
17247,note_on,207,0,5,,,,,,,,,4,,72,0
17247,note_on,0,0,2,,,,,,,,,1,,75,0
17247,note_on,207,0,6,,,,,,,,,5,,63,0
17247,note_on,207,0,7,,,,,,,,,6,,60,0
17247,note_on,207,0,2,,,,,,,,,1,,84,0
17280,note_on,0,0,2,,,,,,,,,1,,82,72
17280,note_on,60,0,9,,,,,,,,,8,,41,64
17280,note_on,60,0,4,,,,,,,,,3,,53,88
17280,note_on,33,0,7,,,,,,,,,6,,53,64
17280,note_on,33,0,6,,,,,,,,,5,,62,64
17280,note_on,60,0,8,,,,,,,,,7,,53,64
17280,note_on,60,0,3,,,,,,,,,2,,65,73
17280,note_on,33,0,5,,,,,,,,,4,,70,88
17280,note_on,33,0,2,,,,,,,,,1,,74,72
17487,note_on,0,0,2,,,,,,,,,1,,74,0
17487,note_on,207,0,2,,,,,,,,,1,,82,0
17487,note_on,207,0,6,,,,,,,,,5,,62,0
17487,note_on,207,0,5,,,,,,,,,4,,70,0
17520,note_on,0,0,2,,,,,,,,,1,,81,72
17520,note_on,33,0,5,,,,,,,,,4,,69,88
17520,note_on,33,0,2,,,,,,,,,1,,72,72
17520,note_on,33,0,6,,,,,,,,,5,,60,64
17700,note_on,420,0,7,,,,,,,,,6,,53,0
17700,note_on,420,0,4,,,,,,,,,3,,53,0
17700,note_on,420,0,8,,,,,,,,,7,,53,0
17700,note_on,420,0,9,,,,,,,,,8,,41,0
17727,note_on,0,0,2,,,,,,,,,1,,72,0
17727,note_on,207,0,5,,,,,,,,,4,,69,0
17727,note_on,207,0,6,,,,,,,,,5,,60,0
17727,note_on,207,0,2,,,,,,,,,1,,81,0
17760,note_on,0,0,2,,,,,,,,,1,,79,72
17760,note_on,33,0,6,,,,,,,,,5,,58,64
17760,note_on,33,0,2,,,,,,,,,1,,70,72
17760,note_on,33,0,5,,,,,,,,,4,,67,88
17760,note_on,60,0,9,,,,,,,,,8,,41,64
17760,note_on,60,0,7,,,,,,,,,6,,65,64
17760,note_on,60,0,4,,,,,,,,,3,,53,88
17760,note_on,60,0,8,,,,,,,,,7,,53,64
17967,note_on,207,0,6,,,,,,,,,5,,58,0
17967,note_on,207,0,2,,,,,,,,,1,,79,0
17967,note_on,0,0,2,,,,,,,,,1,,70,0
17967,note_on,207,0,5,,,,,,,,,4,,67,0
18000,note_on,33,0,6,,,,,,,,,5,,57,64
18000,note_on,33,0,5,,,,,,,,,4,,65,88
18000,note_on,0,0,2,,,,,,,,,1,,77,72
18000,note_on,33,0,2,,,,,,,,,1,,69,72
18180,note_on,420,0,7,,,,,,,,,6,,65,0
18180,note_on,420,0,8,,,,,,,,,7,,53,0
18180,note_on,420,0,9,,,,,,,,,8,,41,0
18180,note_on,420,0,4,,,,,,,,,3,,53,0
18207,note_on,0,0,2,,,,,,,,,1,,69,0
18207,note_on,207,0,5,,,,,,,,,4,,65,0
18207,note_on,207,0,2,,,,,,,,,1,,77,0
18207,note_on,207,0,6,,,,,,,,,5,,57,0
18240,note_on,60,0,7,,,,,,,,,6,,65,64
18240,note_on,33,0,5,,,,,,,,,4,,67,88
18240,note_on,33,0,2,,,,,,,,,1,,70,72
18240,note_on,60,0,9,,,,,,,,,8,,39,64
18240,note_on,60,0,4,,,,,,,,,3,,51,88
18240,note_on,60,0,8,,,,,,,,,7,,51,64
18240,note_on,33,0,6,,,,,,,,,5,,58,64
18240,note_on,0,0,2,,,,,,,,,1,,79,72
18447,note_on,207,0,5,,,,,,,,,4,,67,0
18447,note_on,0,0,2,,,,,,,,,1,,70,0
18447,note_on,207,0,2,,,,,,,,,1,,79,0
18447,note_on,207,0,6,,,,,,,,,5,,58,0
18480,note_on,33,0,5,,,,,,,,,4,,69,88
18480,note_on,0,0,2,,,,,,,,,1,,81,72
18480,note_on,33,0,6,,,,,,,,,5,,60,64
18480,note_on,33,0,2,,,,,,,,,1,,72,72
18660,note_on,420,0,8,,,,,,,,,7,,51,0
18660,note_on,420,0,4,,,,,,,,,3,,51,0
18660,note_on,420,0,9,,,,,,,,,8,,39,0
18660,note_on,420,0,7,,,,,,,,,6,,65,0
18687,note_on,207,0,5,,,,,,,,,4,,69,0
18687,note_on,0,0,2,,,,,,,,,1,,72,0
18687,note_on,207,0,2,,,,,,,,,1,,81,0
18687,note_on,207,0,6,,,,,,,,,5,,60,0
18720,note_on,33,0,2,,,,,,,,,1,,74,72
18720,note_on,33,0,5,,,,,,,,,4,,62,88
18720,note_on,0,0,5,,,,,,,,,4,,70,88
18720,note_on,60,0,7,,,,,,,,,6,,65,64
18720,note_on,60,0,8,,,,,,,,,7,,50,64
18720,note_on,33,0,6,,,,,,,,,5,,62,64
18720,note_on,60,0,9,,,,,,,,,8,,38,64
18720,note_on,60,0,4,,,,,,,,,3,,50,88
18720,note_on,1440,0,3,,,,,,,,,2,,58,73
18720,note_on,0,0,2,,,,,,,,,1,,82,72
19140,note_on,420,0,8,,,,,,,,,7,,50,0
19140,note_on,420,0,9,,,,,,,,,8,,38,0
19140,note_on,420,0,2,,,,,,,,,1,,82,0
19140,note_on,0,0,2,,,,,,,,,1,,74,0
19140,note_on,420,0,6,,,,,,,,,5,,62,0
19140,note_on,420,0,4,,,,,,,,,3,,50,0
19140,note_on,420,0,7,,,,,,,,,6,,65,0
19200,note_on,60,0,6,,,,,,,,,5,,65,64
19200,note_on,60,0,9,,,,,,,,,8,,50,64
19200,note_on,60,0,2,,,,,,,,,1,,70,73
19200,note_on,60,0,4,,,,,,,,,3,,62,88
19200,note_on,60,0,8,,,,,,,,,7,,62,64
19200,note_on,60,0,7,,,,,,,,,6,,70,64
19620,note_on,900,0,5,,,,,,,,,4,,70,0
19620,note_on,0,0,5,,,,,,,,,4,,62,0
19620,note_on,420,0,8,,,,,,,,,7,,62,0
19620,note_on,420,0,9,,,,,,,,,8,,50,0
19620,note_on,420,0,4,,,,,,,,,3,,62,0
19620,note_on,0,0,3,,,,,,,,,2,,65,0
19620,note_on,900,0,3,,,,,,,,,2,,58,0
19620,note_on,420,0,6,,,,,,,,,5,,65,0
19620,note_on,420,0,7,,,,,,,,,6,,70,0
19620,note_on,420,0,2,,,,,,,,,1,,70,0
19680,note_on,60,0,6,,,,,,,,,5,,63,64
19680,note_on,60,0,2,,,,,,,,,1,,69,73
19680,note_on,60,0,4,,,,,,,,,3,,58,88
19680,note_on,60,0,7,,,,,,,,,6,,69,64
19680,note_on,60,0,8,,,,,,,,,7,,58,64
19680,note_on,60,0,9,,,,,,,,,8,,46,64
19680,note_on,0,0,2,,,,,,,,,1,,72,73
19680,note_on,60,0,5,,,,,,,,,4,,72,88
19887,note_on,207,0,2,,,,,,,,,1,,72,0
19887,note_on,0,0,2,,,,,,,,,1,,69,0
19887,note_on,207,0,5,,,,,,,,,4,,72,0
19887,note_on,207,0,6,,,,,,,,,5,,63,0
19887,note_on,207,0,7,,,,,,,,,6,,69,0
19920,note_on,33,0,2,,,,,,,,,1,,70,73
19920,note_on,33,0,5,,,,,,,,,4,,74,88
19920,note_on,33,0,7,,,,,,,,,6,,70,64
19920,note_on,0,0,2,,,,,,,,,1,,74,73
19920,note_on,33,0,6,,,,,,,,,5,,62,64
20100,note_on,420,0,4,,,,,,,,,3,,58,0
20100,note_on,420,0,8,,,,,,,,,7,,58,0
20100,note_on,420,0,9,,,,,,,,,8,,46,0
20127,note_on,207,0,7,,,,,,,,,6,,70,0
20127,note_on,0,0,2,,,,,,,,,1,,70,0
20127,note_on,207,0,2,,,,,,,,,1,,74,0
20127,note_on,207,0,6,,,,,,,,,5,,62,0
20127,note_on,207,0,5,,,,,,,,,4,,74,0
20160,note_on,33,0,5,,,,,,,,,4,,77,88
20160,note_on,60,0,4,,,,,,,,,3,,60,88
20160,note_on,60,0,9,,,,,,,,,8,,48,64
20160,note_on,60,0,8,,,,,,,,,7,,60,64
20160,note_on,33,0,2,,,,,,,,,1,,67,73
20160,note_on,0,0,2,,,,,,,,,1,,77,73
20160,note_on,33,0,7,,,,,,,,,6,,67,64
20160,note_on,33,0,6,,,,,,,,,5,,67,64
20367,note_on,207,0,5,,,,,,,,,4,,77,0
20367,note_on,207,0,2,,,,,,,,,1,,77,0
20400,note_on,33,0,5,,,,,,,,,4,,75,88
20400,note_on,33,0,2,,,,,,,,,1,,75,73
20580,note_on,420,0,9,,,,,,,,,8,,48,0
20580,note_on,420,0,8,,,,,,,,,7,,60,0
20580,note_on,420,0,4,,,,,,,,,3,,60,0
20580,note_on,420,0,6,,,,,,,,,5,,67,0
20607,note_on,0,0,2,,,,,,,,,1,,67,0
20607,note_on,207,0,2,,,,,,,,,1,,75,0
20607,note_on,207,0,5,,,,,,,,,4,,75,0
20640,note_on,60,0,6,,,,,,,,,5,,58,64
20640,note_on,33,0,2,,,,,,,,,1,,70,73
20640,note_on,1020,0,3,,,,,,,,,2,,58,73
20640,note_on,60,0,8,,,,,,,,,7,,55,64
20640,note_on,60,0,4,,,,,,,,,3,,55,88
20640,note_on,0,0,3,,,,,,,,,2,,70,73
20640,note_on,0,0,2,,,,,,,,,1,,75,73
20640,note_on,60,0,9,,,,,,,,,8,,43,64
20640,note_on,33,0,5,,,,,,,,,4,,75,88
21060,note_on,900,0,7,,,,,,,,,6,,67,0
21060,note_on,420,0,9,,,,,,,,,8,,43,0
21060,note_on,420,0,3,,,,,,,,,2,,70,0
21060,note_on,0,0,3,,,,,,,,,2,,58,0
21060,note_on,420,0,8,,,,,,,,,7,,55,0
21060,note_on,420,0,4,,,,,,,,,3,,55,0
21060,note_on,420,0,6,,,,,,,,,5,,58,0
21060,note_on,420,0,2,,,,,,,,,1,,70,0
21120,note_on,60,0,9,,,,,,,,,8,,45,64
21120,note_on,0,0,3,,,,,,,,,2,,72,73
21120,note_on,60,0,3,,,,,,,,,2,,65,73
21120,note_on,60,0,6,,,,,,,,,5,,60,64
21120,note_on,60,0,4,,,,,,,,,3,,57,88
21120,note_on,60,0,8,,,,,,,,,7,,57,64
21120,note_on,60,0,7,,,,,,,,,6,,65,64
21120,note_on,60,0,2,,,,,,,,,1,,72,73
21540,note_on,420,0,4,,,,,,,,,3,,57,0
21540,note_on,420,0,2,,,,,,,,,1,,72,0
21540,note_on,420,0,8,,,,,,,,,7,,57,0
21540,note_on,0,0,3,,,,,,,,,2,,65,0
21540,note_on,420,0,9,,,,,,,,,8,,45,0
21540,note_on,420,0,3,,,,,,,,,2,,72,0
21540,note_on,420,0,6,,,,,,,,,5,,60,0
21540,note_on,0,0,2,,,,,,,,,1,,75,0
21540,note_on,900,0,5,,,,,,,,,4,,75,0
21540,note_on,420,0,7,,,,,,,,,6,,65,0
21600,note_on,0,0,2,,,,,,,,,1,,74,73
21600,note_on,60,0,6,,,,,,,,,5,,65,64
21600,note_on,60,0,8,,,,,,,,,7,,58,64
21600,note_on,60,0,9,,,,,,,,,8,,46,64
21600,note_on,60,0,4,,,,,,,,,3,,58,88
21600,note_on,60,0,5,,,,,,,,,4,,74,88
21600,note_on,60,0,7,,,,,,,,,6,,65,64
21600,note_on,0,0,3,,,,,,,,,2,,74,73
21600,note_on,60,0,3,,,,,,,,,2,,70,73
21600,note_on,60,0,2,,,,,,,,,1,,70,73
21910,note_on,310,0,2,,,,,,,,,1,,74,0
21910,note_on,310,0,5,,,,,,,,,4,,74,0
21960,note_on,50,0,2,,,,,,,,,1,,77,73
21960,note_on,50,0,5,,,,,,,,,4,,75,88
22010,note_on,50,0,5,,,,,,,,,4,,75,0
22020,note_on,420,0,6,,,,,,,,,5,,65,0
22020,note_on,10,0,5,,,,,,,,,4,,77,88
22020,note_on,420,0,7,,,,,,,,,6,,65,0
22020,note_on,420,0,9,,,,,,,,,8,,46,0
22020,note_on,420,0,4,,,,,,,,,3,,58,0
22020,note_on,420,0,8,,,,,,,,,7,,58,0
22062,note_on,102,0,2,,,,,,,,,1,,77,0
22062,note_on,0,0,2,,,,,,,,,1,,70,0
22070,note_on,50,0,5,,,,,,,,,4,,77,0
22080,note_on,60,0,8,,,,,,,,,7,,53,64
22080,note_on,60,0,6,,,,,,,,,5,,62,64
22080,note_on,60,0,9,,,,,,,,,8,,41,64
22080,note_on,0,0,2,,,,,,,,,1,,82,73
22080,note_on,18,0,2,,,,,,,,,1,,74,73
22080,note_on,60,0,7,,,,,,,,,6,,65,64
22080,note_on,10,0,5,,,,,,,,,4,,70,88
22080,note_on,60,0,4,,,,,,,,,3,,53,88
22500,note_on,420,0,9,,,,,,,,,8,,41,0
22500,note_on,420,0,7,,,,,,,,,6,,65,0
22500,note_on,0,0,3,,,,,,,,,2,,70,0
22500,note_on,900,0,3,,,,,,,,,2,,74,0
22500,note_on,420,0,4,,,,,,,,,3,,53,0
22500,note_on,0,0,2,,,,,,,,,1,,74,0
22500,note_on,420,0,2,,,,,,,,,1,,82,0
22500,note_on,420,0,8,,,,,,,,,7,,53,0
22500,note_on,420,0,6,,,,,,,,,5,,62,0
22500,note_on,420,0,5,,,,,,,,,4,,70,0
22560,note_on,60,0,8,,,,,,,,,7,,41,64
22560,note_on,60,0,3,,,,,,,,,2,,65,73
22560,note_on,0,0,3,,,,,,,,,2,,72,73
22560,note_on,60,0,2,,,,,,,,,1,,72,73
22560,note_on,60,0,9,,,,,,,,,8,,29,64
22560,note_on,60,0,6,,,,,,,,,5,,60,64
22560,note_on,60,0,7,,,,,,,,,6,,65,64
22560,note_on,60,0,4,,,,,,,,,3,,41,88
22560,note_on,60,0,5,,,,,,,,,4,,69,88
22560,note_on,0,0,2,,,,,,,,,1,,81,73
22980,note_on,420,0,5,,,,,,,,,4,,69,0
22980,note_on,420,0,6,,,,,,,,,5,,60,0
22980,note_on,420,0,3,,,,,,,,,2,,72,0
22980,note_on,0,0,2,,,,,,,,,1,,72,0
22980,note_on,420,0,7,,,,,,,,,6,,65,0
22980,note_on,420,0,4,,,,,,,,,3,,41,0
22980,note_on,0,0,3,,,,,,,,,2,,65,0
22980,note_on,420,0,8,,,,,,,,,7,,41,0
22980,note_on,420,0,9,,,,,,,,,8,,29,0
22980,note_on,420,0,2,,,,,,,,,1,,81,0
23040,note_on,0,0,6,,,,,,,,,5,,70,64
23040,note_on,0,0,2,,,,,,,,,1,,82,73
23040,note_on,60,0,2,,,,,,,,,1,,74,73
23040,note_on,60,0,6,,,,,,,,,5,,62,64
23040,note_on,60,0,4,,,,,,,,,3,,46,88
23040,note_on,0,0,5,,,,,,,,,4,,70,88
23040,note_on,60,0,8,,,,,,,,,7,,46,64
23040,note_on,60,0,7,,,,,,,,,6,,65,64
23040,note_on,0,0,3,,,,,,,,,2,,70,73
23040,note_on,60,0,9,,,,,,,,,8,,34,64
23040,note_on,60,0,3,,,,,,,,,2,,62,73
23040,note_on,60,0,5,,,,,,,,,4,,62,88
23460,note_on,420,0,8,,,,,,,,,7,,46,0
23460,note_on,420,0,4,,,,,,,,,3,,46,0
23460,note_on,420,0,9,,,,,,,,,8,,34,0
23520,note_on,60,0,9,,,,,,,,,8,,41,64
23520,note_on,60,0,8,,,,,,,,,7,,53,64
23520,note_on,60,0,4,,,,,,,,,3,,53,88
23940,note_on,420,0,9,,,,,,,,,8,,41,0
23940,note_on,900,0,7,,,,,,,,,6,,65,0
23940,note_on,0,0,5,,,,,,,,,4,,62,0
23940,note_on,900,0,5,,,,,,,,,4,,70,0
23940,note_on,900,0,3,,,,,,,,,2,,70,0
23940,note_on,0,0,3,,,,,,,,,2,,62,0
23940,note_on,900,0,2,,,,,,,,,1,,82,0
23940,note_on,0,0,2,,,,,,,,,1,,74,0
23940,note_on,420,0,8,,,,,,,,,7,,53,0
23940,note_on,420,0,4,,,,,,,,,3,,53,0
23940,note_on,900,0,6,,,,,,,,,5,,70,0
23940,note_on,0,0,6,,,,,,,,,5,,62,0
24000,note_on,60,0,4,,,,,,,,,3,,58,88
24000,note_on,60,0,8,,,,,,,,,7,,58,64
24000,note_on,60,0,9,,,,,,,,,8,,46,64
24420,note_on,420,0,8,,,,,,,,,7,,58,0
24420,note_on,420,0,4,,,,,,,,,3,,58,0
24420,note_on,420,0,9,,,,,,,,,8,,46,0
24480,note_on,540,0,7,,,,,,,,,6,,60,64
24480,note_on,540,0,6,,,,,,,,,5,,57,64
24480,note_on,60,0,8,,,,,,,,,7,,53,64
24480,note_on,540,0,3,,,,,,,,,2,,53,73
24480,note_on,540,0,5,,,,,,,,,4,,72,88
24480,note_on,60,0,4,,,,,,,,,3,,53,88
24480,note_on,60,0,9,,,,,,,,,8,,41,64
24480,note_on,0,0,3,,,,,,,,,2,,65,73
24900,note_on,420,0,9,,,,,,,,,8,,41,0
24900,note_on,420,0,8,,,,,,,,,7,,53,0
24900,note_on,420,0,4,,,,,,,,,3,,53,0
24960,note_on,60,0,9,,,,,,,,,8,,41,64
24960,note_on,60,0,8,,,,,,,,,7,,53,64
24960,note_on,60,0,4,,,,,,,,,3,,53,88
25380,note_on,900,0,6,,,,,,,,,5,,57,0
25380,note_on,420,0,8,,,,,,,,,7,,53,0
25380,note_on,900,0,7,,,,,,,,,6,,60,0
25380,note_on,420,0,4,,,,,,,,,3,,53,0
25380,note_on,900,0,5,,,,,,,,,4,,72,0
25380,note_on,420,0,9,,,,,,,,,8,,41,0
25440,note_on,60,0,5,,,,,,,,,4,,74,88
25440,note_on,60,0,9,,,,,,,,,8,,41,64
25440,note_on,60,0,6,,,,,,,,,5,,58,64
25440,note_on,60,0,8,,,,,,,,,7,,53,64
25440,note_on,60,0,7,,,,,,,,,6,,62,64
25440,note_on,60,0,4,,,,,,,,,3,,53,88
25647,note_on,207,0,5,,,,,,,,,4,,74,0
25647,note_on,207,0,6,,,,,,,,,5,,58,0
25647,note_on,207,0,7,,,,,,,,,6,,62,0
25680,note_on,33,0,6,,,,,,,,,5,,55,64
25680,note_on,33,0,5,,,,,,,,,4,,70,88
25680,note_on,33,0,7,,,,,,,,,6,,58,64
25860,note_on,420,0,9,,,,,,,,,8,,41,0
25860,note_on,420,0,8,,,,,,,,,7,,53,0
25860,note_on,420,0,4,,,,,,,,,3,,53,0
25887,note_on,207,0,6,,,,,,,,,5,,55,0
25887,note_on,207,0,7,,,,,,,,,6,,58,0
25887,note_on,207,0,5,,,,,,,,,4,,70,0
25920,note_on,60,0,8,,,,,,,,,7,,53,64
25920,note_on,33,0,6,,,,,,,,,5,,59,64
25920,note_on,33,0,7,,,,,,,,,6,,62,64
25920,note_on,33,0,5,,,,,,,,,4,,74,88
25920,note_on,60,0,4,,,,,,,,,3,,53,88
25920,note_on,60,0,9,,,,,,,,,8,,41,64
26127,note_on,207,0,6,,,,,,,,,5,,59,0
26127,note_on,207,0,7,,,,,,,,,6,,62,0
26127,note_on,207,0,5,,,,,,,,,4,,74,0
26160,note_on,33,0,6,,,,,,,,,5,,60,64
26160,note_on,33,0,7,,,,,,,,,6,,63,64
26160,note_on,33,0,5,,,,,,,,,4,,75,88
26340,note_on,0,0,3,,,,,,,,,2,,53,0
26340,note_on,420,0,8,,,,,,,,,7,,53,0
26340,note_on,420,0,4,,,,,,,,,3,,53,0
26340,note_on,420,0,9,,,,,,,,,8,,41,0
26340,note_on,1860,0,3,,,,,,,,,2,,65,0
26367,note_on,207,0,5,,,,,,,,,4,,75,0
26367,note_on,207,0,6,,,,,,,,,5,,60,0
26367,note_on,207,0,7,,,,,,,,,6,,63,0
26400,note_on,60,0,8,,,,,,,,,7,,53,64
26400,note_on,33,0,6,,,,,,,,,5,,60,64
26400,note_on,60,0,4,,,,,,,,,3,,53,88
26400,note_on,33,0,7,,,,,,,,,6,,63,64
26400,note_on,0,0,3,,,,,,,,,2,,65,72
26400,note_on,60,0,3,,,,,,,,,2,,53,72
26400,note_on,33,0,5,,,,,,,,,4,,75,88
26400,note_on,0,0,2,,,,,,,,,1,,75,73
26400,note_on,2460,0,2,,,,,,,,,1,,72,73
26400,note_on,60,0,9,,,,,,,,,8,,41,64
26607,note_on,207,0,2,,,,,,,,,1,,75,0
26607,note_on,0,0,2,,,,,,,,,1,,72,0
26640,note_on,33,0,2,,,,,,,,,1,,69,73
26640,note_on,0,0,2,,,,,,,,,1,,72,73
26820,note_on,420,0,8,,,,,,,,,7,,53,0
26820,note_on,0,0,3,,,,,,,,,2,,53,0
26820,note_on,420,0,9,,,,,,,,,8,,41,0
26820,note_on,420,0,4,,,,,,,,,3,,53,0
26820,note_on,420,0,3,,,,,,,,,2,,65,0
26847,note_on,207,0,2,,,,,,,,,1,,72,0
26847,note_on,0,0,2,,,,,,,,,1,,69,0
26880,note_on,0,0,2,,,,,,,,,1,,75,73
26880,note_on,60,0,8,,,,,,,,,7,,53,64
26880,note_on,60,0,4,,,,,,,,,3,,53,88
26880,note_on,60,0,9,,,,,,,,,8,,41,64
26880,note_on,60,0,3,,,,,,,,,2,,53,72
26880,note_on,0,0,3,,,,,,,,,2,,65,72
26880,note_on,33,0,2,,,,,,,,,1,,72,73
27087,note_on,207,0,2,,,,,,,,,1,,75,0
27087,note_on,0,0,2,,,,,,,,,1,,72,0
27120,note_on,33,0,2,,,,,,,,,1,,69,73
27120,note_on,0,0,2,,,,,,,,,1,,72,73
27300,note_on,420,0,9,,,,,,,,,8,,41,0
27300,note_on,420,0,4,,,,,,,,,3,,53,0
27300,note_on,0,0,3,,,,,,,,,2,,53,0
27300,note_on,900,0,7,,,,,,,,,6,,63,0
27300,note_on,900,0,6,,,,,,,,,5,,60,0
27300,note_on,420,0,8,,,,,,,,,7,,53,0
27300,note_on,900,0,5,,,,,,,,,4,,75,0
27300,note_on,420,0,3,,,,,,,,,2,,65,0
27327,note_on,207,0,2,,,,,,,,,1,,72,0
27327,note_on,0,0,2,,,,,,,,,1,,69,0
27360,note_on,60,0,7,,,,,,,,,6,,62,64
27360,note_on,60,0,6,,,,,,,,,5,,58,64
27360,note_on,60,0,5,,,,,,,,,4,,74,88
27360,note_on,0,0,3,,,,,,,,,2,,65,72
27360,note_on,60,0,4,,,,,,,,,3,,58,88
27360,note_on,60,0,9,,,,,,,,,8,,46,64
27360,note_on,60,0,3,,,,,,,,,2,,58,72
27360,note_on,60,0,8,,,,,,,,,7,,58,64
27780,note_on,420,0,8,,,,,,,,,7,,58,0
27780,note_on,420,0,4,,,,,,,,,3,,58,0
27780,note_on,420,0,9,,,,,,,,,8,,46,0
27840,note_on,60,0,8,,,,,,,,,7,,58,64
27840,note_on,60,0,4,,,,,,,,,3,,58,88
27840,note_on,60,0,9,,,,,,,,,8,,46,64
28260,note_on,900,0,6,,,,,,,,,5,,58,0
28260,note_on,420,0,9,,,,,,,,,8,,46,0
28260,note_on,900,0,5,,,,,,,,,4,,74,0
28260,note_on,420,0,4,,,,,,,,,3,,58,0
28260,note_on,900,0,7,,,,,,,,,6,,62,0
28260,note_on,420,0,8,,,,,,,,,7,,58,0
28320,note_on,60,0,5,,,,,,,,,4,,75,88
28320,note_on,60,0,7,,,,,,,,,6,,63,64
28320,note_on,60,0,6,,,,,,,,,5,,60,64
28320,note_on,60,0,8,,,,,,,,,7,,58,64
28320,note_on,60,0,9,,,,,,,,,8,,46,64
28320,note_on,60,0,4,,,,,,,,,3,,58,88
28527,note_on,207,0,7,,,,,,,,,6,,63,0
28527,note_on,207,0,6,,,,,,,,,5,,60,0
28527,note_on,207,0,5,,,,,,,,,4,,75,0
28560,note_on,33,0,5,,,,,,,,,4,,72,88
28560,note_on,33,0,7,,,,,,,,,6,,60,64
28560,note_on,33,0,6,,,,,,,,,5,,57,64
28740,note_on,420,0,4,,,,,,,,,3,,58,0
28740,note_on,420,0,8,,,,,,,,,7,,58,0
28740,note_on,420,0,9,,,,,,,,,8,,46,0
28767,note_on,207,0,7,,,,,,,,,6,,60,0
28767,note_on,207,0,6,,,,,,,,,5,,57,0
28767,note_on,207,0,5,,,,,,,,,4,,72,0
28800,note_on,33,0,5,,,,,,,,,4,,76,88
28800,note_on,60,0,8,,,,,,,,,7,,58,64
28800,note_on,60,0,4,,,,,,,,,3,,58,88
28800,note_on,60,0,9,,,,,,,,,8,,46,64
28800,note_on,33,0,7,,,,,,,,,6,,64,64
28800,note_on,33,0,6,,,,,,,,,5,,61,64
29007,note_on,207,0,7,,,,,,,,,6,,64,0
29007,note_on,207,0,6,,,,,,,,,5,,61,0
29007,note_on,207,0,5,,,,,,,,,4,,76,0
29040,note_on,33,0,7,,,,,,,,,6,,65,64
29040,note_on,33,0,6,,,,,,,,,5,,62,64
29040,note_on,33,0,5,,,,,,,,,4,,77,88
29220,note_on,0,0,3,,,,,,,,,2,,58,0
29220,note_on,1860,0,3,,,,,,,,,2,,65,0
29220,note_on,420,0,8,,,,,,,,,7,,58,0
29220,note_on,420,0,9,,,,,,,,,8,,46,0
29220,note_on,420,0,4,,,,,,,,,3,,58,0
29247,note_on,207,0,7,,,,,,,,,6,,65,0
29247,note_on,207,0,5,,,,,,,,,4,,77,0
29247,note_on,207,0,6,,,,,,,,,5,,62,0
29280,note_on,33,0,5,,,,,,,,,4,,77,88
29280,note_on,33,0,6,,,,,,,,,5,,62,64
29280,note_on,60,0,4,,,,,,,,,3,,58,88
29280,note_on,60,0,3,,,,,,,,,2,,58,72
29280,note_on,0,0,3,,,,,,,,,2,,65,72
29280,note_on,33,0,7,,,,,,,,,6,,65,64
29280,note_on,60,0,8,,,,,,,,,7,,58,64
29280,note_on,1953,0,2,,,,,,,,,1,,74,75
29280,note_on,60,0,9,,,,,,,,,8,,46,64
29280,note_on,0,0,2,,,,,,,,,1,,77,75
29487,note_on,0,0,2,,,,,,,,,1,,74,0
29487,note_on,207,0,2,,,,,,,,,1,,77,0
29520,note_on,33,0,2,,,,,,,,,1,,70,75
29520,note_on,0,0,2,,,,,,,,,1,,74,75
29700,note_on,420,0,3,,,,,,,,,2,,65,0
29700,note_on,0,0,3,,,,,,,,,2,,58,0
29700,note_on,420,0,9,,,,,,,,,8,,46,0
29700,note_on,420,0,8,,,,,,,,,7,,58,0
29700,note_on,420,0,4,,,,,,,,,3,,58,0
29727,note_on,207,0,2,,,,,,,,,1,,74,0
29727,note_on,0,0,2,,,,,,,,,1,,70,0
29760,note_on,60,0,3,,,,,,,,,2,,58,72
29760,note_on,33,0,2,,,,,,,,,1,,74,75
29760,note_on,60,0,9,,,,,,,,,8,,46,64
29760,note_on,0,0,2,,,,,,,,,1,,77,75
29760,note_on,0,0,3,,,,,,,,,2,,65,72
29760,note_on,60,0,4,,,,,,,,,3,,58,88
29760,note_on,60,0,8,,,,,,,,,7,,58,64
29967,note_on,0,0,2,,,,,,,,,1,,74,0
29967,note_on,207,0,2,,,,,,,,,1,,77,0
30000,note_on,0,0,2,,,,,,,,,1,,74,75
30000,note_on,33,0,2,,,,,,,,,1,,70,75
30180,note_on,420,0,3,,,,,,,,,2,,65,0
30180,note_on,0,0,3,,,,,,,,,2,,58,0
30180,note_on,900,0,6,,,,,,,,,5,,62,0
30180,note_on,420,0,4,,,,,,,,,3,,58,0
30180,note_on,900,0,7,,,,,,,,,6,,65,0
30180,note_on,420,0,9,,,,,,,,,8,,46,0
30180,note_on,900,0,5,,,,,,,,,4,,77,0
30180,note_on,420,0,8,,,,,,,,,7,,58,0
30207,note_on,207,0,2,,,,,,,,,1,,74,0
30207,note_on,0,0,2,,,,,,,,,1,,70,0
30240,note_on,60,0,6,,,,,,,,,5,,65,64
30240,note_on,33,0,2,,,,,,,,,1,,70,75
30240,note_on,60,0,5,,,,,,,,,4,,62,88
30240,note_on,60,0,8,,,,,,,,,7,,58,64
30240,note_on,60,0,9,,,,,,,,,8,,46,64
30240,note_on,0,0,5,,,,,,,,,4,,70,88
30240,note_on,60,0,7,,,,,,,,,6,,62,64
30240,note_on,60,0,3,,,,,,,,,2,,62,72
30240,note_on,60,0,4,,,,,,,,,3,,58,88
30240,note_on,0,0,3,,,,,,,,,2,,70,72
30660,note_on,420,0,7,,,,,,,,,6,,62,0
30660,note_on,420,0,9,,,,,,,,,8,,46,0
30660,note_on,420,0,8,,,,,,,,,7,,58,0
30660,note_on,420,0,4,,,,,,,,,3,,58,0
30720,note_on,60,0,8,,,,,,,,,7,,62,64
30720,note_on,60,0,4,,,,,,,,,3,,62,88
30720,note_on,60,0,9,,,,,,,,,8,,50,64
30720,note_on,60,0,7,,,,,,,,,6,,70,64
31140,note_on,420,0,8,,,,,,,,,7,,62,0
31140,note_on,900,0,3,,,,,,,,,2,,70,0
31140,note_on,0,0,3,,,,,,,,,2,,62,0
31140,note_on,420,0,9,,,,,,,,,8,,50,0
31140,note_on,900,0,2,,,,,,,,,1,,70,0
31140,note_on,420,0,4,,,,,,,,,3,,62,0
31140,note_on,900,0,5,,,,,,,,,4,,70,0
31140,note_on,0,0,5,,,,,,,,,4,,62,0
31140,note_on,900,0,6,,,,,,,,,5,,65,0
31140,note_on,420,0,7,,,,,,,,,6,,70,0
31200,note_on,60,0,4,,,,,,,,,3,,58,88
31200,note_on,60,0,7,,,,,,,,,6,,69,64
31200,note_on,60,0,5,,,,,,,,,4,,72,88
31200,note_on,60,0,6,,,,,,,,,5,,63,64
31200,note_on,60,0,9,,,,,,,,,8,,46,64
31200,note_on,60,0,8,,,,,,,,,7,,58,64
31200,note_on,0,0,2,,,,,,,,,1,,72,75
31200,note_on,60,0,2,,,,,,,,,1,,69,75
31407,note_on,207,0,2,,,,,,,,,1,,72,0
31407,note_on,0,0,2,,,,,,,,,1,,69,0
31407,note_on,207,0,6,,,,,,,,,5,,63,0
31407,note_on,207,0,7,,,,,,,,,6,,69,0
31407,note_on,207,0,5,,,,,,,,,4,,72,0
31440,note_on,33,0,2,,,,,,,,,1,,70,75
31440,note_on,0,0,2,,,,,,,,,1,,74,75
31440,note_on,33,0,6,,,,,,,,,5,,62,64
31440,note_on,33,0,7,,,,,,,,,6,,70,64
31440,note_on,33,0,5,,,,,,,,,4,,74,88
31620,note_on,420,0,8,,,,,,,,,7,,58,0
31620,note_on,420,0,4,,,,,,,,,3,,58,0
31620,note_on,420,0,9,,,,,,,,,8,,46,0
31647,note_on,207,0,6,,,,,,,,,5,,62,0
31647,note_on,0,0,2,,,,,,,,,1,,70,0
31647,note_on,207,0,2,,,,,,,,,1,,74,0
31647,note_on,207,0,7,,,,,,,,,6,,70,0
31647,note_on,207,0,5,,,,,,,,,4,,74,0
31680,note_on,33,0,6,,,,,,,,,5,,67,64
31680,note_on,60,0,4,,,,,,,,,3,,60,88
31680,note_on,33,0,5,,,,,,,,,4,,77,88
31680,note_on,60,0,9,,,,,,,,,8,,48,64
31680,note_on,60,0,8,,,,,,,,,7,,60,64
31680,note_on,33,0,2,,,,,,,,,1,,67,75
31680,note_on,0,0,2,,,,,,,,,1,,77,75
31680,note_on,33,0,7,,,,,,,,,6,,67,64
31887,note_on,207,0,2,,,,,,,,,1,,77,0
31887,note_on,207,0,5,,,,,,,,,4,,77,0
31920,note_on,33,0,2,,,,,,,,,1,,75,75
31920,note_on,33,0,5,,,,,,,,,4,,75,88
32100,note_on,420,0,8,,,,,,,,,7,,60,0
32100,note_on,420,0,4,,,,,,,,,3,,60,0
32100,note_on,420,0,6,,,,,,,,,5,,67,0
32100,note_on,420,0,9,,,,,,,,,8,,48,0
32127,note_on,0,0,2,,,,,,,,,1,,67,0
32127,note_on,207,0,5,,,,,,,,,4,,75,0
32127,note_on,207,0,2,,,,,,,,,1,,75,0
32160,note_on,60,0,6,,,,,,,,,5,,58,64
32160,note_on,33,0,5,,,,,,,,,4,,75,88
32160,note_on,1020,0,3,,,,,,,,,2,,58,72
32160,note_on,0,0,3,,,,,,,,,2,,70,72
32160,note_on,33,0,2,,,,,,,,,1,,70,75
32160,note_on,0,0,2,,,,,,,,,1,,75,75
32160,note_on,60,0,4,,,,,,,,,3,,55,88
32160,note_on,60,0,8,,,,,,,,,7,,55,64
32160,note_on,60,0,9,,,,,,,,,8,,43,64
32580,note_on,420,0,8,,,,,,,,,7,,55,0
32580,note_on,420,0,3,,,,,,,,,2,,70,0
32580,note_on,0,0,3,,,,,,,,,2,,58,0
32580,note_on,420,0,4,,,,,,,,,3,,55,0
32580,note_on,420,0,9,,,,,,,,,8,,43,0
32580,note_on,900,0,7,,,,,,,,,6,,67,0
32580,note_on,420,0,6,,,,,,,,,5,,58,0
32580,note_on,420,0,2,,,,,,,,,1,,70,0
32640,note_on,60,0,6,,,,,,,,,5,,60,64
32640,note_on,60,0,2,,,,,,,,,1,,72,75
32640,note_on,0,0,3,,,,,,,,,2,,72,72
32640,note_on,60,0,4,,,,,,,,,3,,57,88
32640,note_on,60,0,8,,,,,,,,,7,,57,64
32640,note_on,60,0,9,,,,,,,,,8,,45,64
32640,note_on,60,0,7,,,,,,,,,6,,65,64
32640,note_on,60,0,3,,,,,,,,,2,,65,72
33060,note_on,900,0,5,,,,,,,,,4,,75,0
33060,note_on,420,0,8,,,,,,,,,7,,57,0
33060,note_on,420,0,9,,,,,,,,,8,,45,0
33060,note_on,420,0,2,,,,,,,,,1,,72,0
33060,note_on,0,0,2,,,,,,,,,1,,75,0
33060,note_on,420,0,4,,,,,,,,,3,,57,0
33060,note_on,0,0,3,,,,,,,,,2,,65,0
33060,note_on,420,0,3,,,,,,,,,2,,72,0
33060,note_on,420,0,6,,,,,,,,,5,,60,0
33060,note_on,420,0,7,,,,,,,,,6,,65,0
33120,note_on,60,0,8,,,,,,,,,7,,58,64
33120,note_on,60,0,5,,,,,,,,,4,,74,88
33120,note_on,60,0,7,,,,,,,,,6,,65,64
33120,note_on,60,0,9,,,,,,,,,8,,46,64
33120,note_on,60,0,2,,,,,,,,,1,,70,75
33120,note_on,0,0,2,,,,,,,,,1,,74,75
33120,note_on,0,0,3,,,,,,,,,2,,74,72
33120,note_on,60,0,4,,,,,,,,,3,,58,88
33120,note_on,60,0,6,,,,,,,,,5,,58,64
33120,note_on,60,0,3,,,,,,,,,2,,70,72
33327,note_on,207,0,5,,,,,,,,,4,,74,0
33327,note_on,207,0,6,,,,,,,,,5,,58,0
33327,note_on,207,0,2,,,,,,,,,1,,74,0
33327,note_on,207,0,7,,,,,,,,,6,,65,0
33360,note_on,33,0,2,,,,,,,,,1,,77,75
33360,note_on,33,0,6,,,,,,,,,5,,62,64
33360,note_on,33,0,5,,,,,,,,,4,,77,88
33360,note_on,33,0,7,,,,,,,,,6,,62,64
33540,note_on,420,0,9,,,,,,,,,8,,46,0
33540,note_on,420,0,4,,,,,,,,,3,,58,0
33540,note_on,420,0,8,,,,,,,,,7,,58,0
33567,note_on,207,0,7,,,,,,,,,6,,62,0
33567,note_on,207,0,2,,,,,,,,,1,,77,0
33567,note_on,0,0,2,,,,,,,,,1,,70,0
33567,note_on,207,0,5,,,,,,,,,4,,77,0
33567,note_on,207,0,6,,,,,,,,,5,,62,0
33600,note_on,33,0,6,,,,,,,,,5,,62,64
33600,note_on,60,0,4,,,,,,,,,3,,55,88
33600,note_on,60,0,8,,,,,,,,,7,,55,64
33600,note_on,33,0,7,,,,,,,,,6,,67,64
33600,note_on,33,0,5,,,,,,,,,4,,70,88
33600,note_on,60,0,9,,,,,,,,,8,,43,64
33600,note_on,0,0,2,,,,,,,,,1,,82,75
33600,note_on,33,0,2,,,,,,,,,1,,74,75
33807,note_on,207,0,6,,,,,,,,,5,,62,0
33807,note_on,207,0,7,,,,,,,,,6,,67,0
33807,note_on,207,0,5,,,,,,,,,4,,70,0
33840,note_on,33,0,5,,,,,,,,,4,,74,88
33840,note_on,33,0,7,,,,,,,,,6,,58,64
33840,note_on,33,0,6,,,,,,,,,5,,70,64
34020,note_on,420,0,2,,,,,,,,,1,,82,0
34020,note_on,0,0,2,,,,,,,,,1,,74,0
34020,note_on,420,0,8,,,,,,,,,7,,55,0
34020,note_on,420,0,4,,,,,,,,,3,,55,0
34020,note_on,900,0,3,,,,,,,,,2,,74,0
34020,note_on,0,0,3,,,,,,,,,2,,70,0
34020,note_on,420,0,9,,,,,,,,,8,,43,0
34047,note_on,207,0,5,,,,,,,,,4,,74,0
34047,note_on,207,0,7,,,,,,,,,6,,58,0
34047,note_on,207,0,6,,,,,,,,,5,,70,0
34080,note_on,33,0,6,,,,,,,,,5,,67,64
34080,note_on,60,0,4,,,,,,,,,3,,51,88
34080,note_on,60,0,9,,,,,,,,,8,,39,64
34080,note_on,0,0,3,,,,,,,,,2,,75,72
34080,note_on,60,0,2,,,,,,,,,1,,79,75
34080,note_on,33,0,7,,,,,,,,,6,,63,64
34080,note_on,60,0,8,,,,,,,,,7,,51,64
34080,note_on,33,0,5,,,,,,,,,4,,67,88
34080,note_on,60,0,3,,,,,,,,,2,,72,72
34287,note_on,207,0,6,,,,,,,,,5,,67,0
34287,note_on,207,0,2,,,,,,,,,1,,79,0
34287,note_on,207,0,7,,,,,,,,,6,,63,0
34287,note_on,207,0,5,,,,,,,,,4,,67,0
34320,note_on,33,0,5,,,,,,,,,4,,72,88
34320,note_on,0,0,2,,,,,,,,,1,,84,75
34320,note_on,33,0,2,,,,,,,,,1,,75,75
34320,note_on,33,0,6,,,,,,,,,5,,63,64
34320,note_on,33,0,7,,,,,,,,,6,,60,64
34500,note_on,420,0,8,,,,,,,,,7,,51,0
34500,note_on,420,0,4,,,,,,,,,3,,51,0
34500,note_on,0,0,3,,,,,,,,,2,,72,0
34500,note_on,420,0,3,,,,,,,,,2,,75,0
34500,note_on,420,0,9,,,,,,,,,8,,39,0
34527,note_on,207,0,7,,,,,,,,,6,,60,0
34527,note_on,207,0,2,,,,,,,,,1,,84,0
34527,note_on,207,0,5,,,,,,,,,4,,72,0
34527,note_on,207,0,6,,,,,,,,,5,,63,0
34527,note_on,0,0,2,,,,,,,,,1,,75,0
34560,note_on,60,0,8,,,,,,,,,7,,53,64
34560,note_on,60,0,9,,,,,,,,,8,,41,64
34560,note_on,33,0,5,,,,,,,,,4,,70,88
34560,note_on,33,0,6,,,,,,,,,5,,62,64
34560,note_on,60,0,4,,,,,,,,,3,,53,88
34560,note_on,60,0,3,,,,,,,,,2,,65,72
34560,note_on,33,0,2,,,,,,,,,1,,74,75
34560,note_on,33,0,7,,,,,,,,,6,,53,64
34560,note_on,0,0,2,,,,,,,,,1,,82,75
34767,note_on,207,0,5,,,,,,,,,4,,70,0
34767,note_on,207,0,6,,,,,,,,,5,,62,0
34767,note_on,0,0,2,,,,,,,,,1,,74,0
34767,note_on,207,0,2,,,,,,,,,1,,82,0
34800,note_on,0,0,2,,,,,,,,,1,,81,75
34800,note_on,33,0,6,,,,,,,,,5,,60,64
34800,note_on,33,0,2,,,,,,,,,1,,72,75
34800,note_on,33,0,5,,,,,,,,,4,,69,88
34980,note_on,420,0,4,,,,,,,,,3,,53,0
34980,note_on,420,0,7,,,,,,,,,6,,53,0
34980,note_on,420,0,8,,,,,,,,,7,,53,0
34980,note_on,420,0,9,,,,,,,,,8,,41,0
35007,note_on,207,0,5,,,,,,,,,4,,69,0
35007,note_on,0,0,2,,,,,,,,,1,,72,0
35007,note_on,207,0,6,,,,,,,,,5,,60,0
35007,note_on,207,0,2,,,,,,,,,1,,81,0
35040,note_on,33,0,5,,,,,,,,,4,,67,88
35040,note_on,60,0,8,,,,,,,,,7,,53,64
35040,note_on,33,0,6,,,,,,,,,5,,58,64
35040,note_on,60,0,4,,,,,,,,,3,,53,88
35040,note_on,60,0,7,,,,,,,,,6,,65,64
35040,note_on,60,0,9,,,,,,,,,8,,41,64
35040,note_on,33,0,2,,,,,,,,,1,,70,75
35040,note_on,0,0,2,,,,,,,,,1,,79,75
35247,note_on,207,0,5,,,,,,,,,4,,67,0
35247,note_on,207,0,6,,,,,,,,,5,,58,0
35247,note_on,207,0,2,,,,,,,,,1,,79,0
35247,note_on,0,0,2,,,,,,,,,1,,70,0
35280,note_on,33,0,6,,,,,,,,,5,,57,64
35280,note_on,0,0,2,,,,,,,,,1,,77,75
35280,note_on,33,0,5,,,,,,,,,4,,65,88
35280,note_on,33,0,2,,,,,,,,,1,,69,75
35460,note_on,420,0,8,,,,,,,,,7,,53,0
35460,note_on,420,0,9,,,,,,,,,8,,41,0
35460,note_on,420,0,7,,,,,,,,,6,,65,0
35460,note_on,420,0,4,,,,,,,,,3,,53,0
35487,note_on,207,0,6,,,,,,,,,5,,57,0
35487,note_on,207,0,2,,,,,,,,,1,,77,0
35487,note_on,0,0,2,,,,,,,,,1,,69,0
35487,note_on,207,0,5,,,,,,,,,4,,65,0
35520,note_on,60,0,7,,,,,,,,,6,,65,64
35520,note_on,60,0,4,,,,,,,,,3,,51,88
35520,note_on,33,0,6,,,,,,,,,5,,58,64
35520,note_on,33,0,2,,,,,,,,,1,,70,75
35520,note_on,0,0,2,,,,,,,,,1,,79,75
35520,note_on,60,0,8,,,,,,,,,7,,51,64
35520,note_on,60,0,9,,,,,,,,,8,,39,64
35520,note_on,33,0,5,,,,,,,,,4,,67,88
35727,note_on,207,0,6,,,,,,,,,5,,58,0
35727,note_on,207,0,2,,,,,,,,,1,,79,0
35727,note_on,0,0,2,,,,,,,,,1,,70,0
35727,note_on,207,0,5,,,,,,,,,4,,67,0
35760,note_on,33,0,2,,,,,,,,,1,,72,75
35760,note_on,33,0,6,,,,,,,,,5,,60,64
35760,note_on,0,0,2,,,,,,,,,1,,81,75
35760,note_on,33,0,5,,,,,,,,,4,,69,88
35940,note_on,420,0,9,,,,,,,,,8,,39,0
35940,note_on,420,0,7,,,,,,,,,6,,65,0
35940,note_on,420,0,8,,,,,,,,,7,,51,0
35940,note_on,420,0,4,,,,,,,,,3,,51,0
35967,note_on,207,0,5,,,,,,,,,4,,69,0
35967,note_on,207,0,6,,,,,,,,,5,,60,0
35967,note_on,0,0,2,,,,,,,,,1,,72,0
35967,note_on,207,0,2,,,,,,,,,1,,81,0
36000,note_on,33,0,5,,,,,,,,,4,,62,88
36000,note_on,0,0,5,,,,,,,,,4,,70,88
36000,note_on,33,0,6,,,,,,,,,5,,62,64
36000,note_on,0,0,2,,,,,,,,,1,,82,75
36000,note_on,60,0,4,,,,,,,,,3,,50,88
36000,note_on,33,0,2,,,,,,,,,1,,74,75
36000,note_on,1440,0,3,,,,,,,,,2,,58,72
36000,note_on,60,0,7,,,,,,,,,6,,65,64
36000,note_on,60,0,9,,,,,,,,,8,,38,64
36000,note_on,60,0,8,,,,,,,,,7,,50,64
36420,note_on,420,0,9,,,,,,,,,8,,38,0
36420,note_on,420,0,6,,,,,,,,,5,,62,0
36420,note_on,420,0,8,,,,,,,,,7,,50,0
36420,note_on,420,0,4,,,,,,,,,3,,50,0
36420,note_on,420,0,2,,,,,,,,,1,,82,0
36420,note_on,0,0,2,,,,,,,,,1,,74,0
36420,note_on,420,0,7,,,,,,,,,6,,65,0
36480,note_on,60,0,4,,,,,,,,,3,,62,88
36480,note_on,60,0,8,,,,,,,,,7,,62,64
36480,note_on,60,0,2,,,,,,,,,1,,70,75
36480,note_on,60,0,7,,,,,,,,,6,,70,64
36480,note_on,60,0,9,,,,,,,,,8,,50,64
36480,note_on,60,0,6,,,,,,,,,5,,65,64
36900,note_on,420,0,4,,,,,,,,,3,,62,0
36900,note_on,0,0,3,,,,,,,,,2,,65,0
36900,note_on,0,0,5,,,,,,,,,4,,62,0
36900,note_on,900,0,5,,,,,,,,,4,,70,0
36900,note_on,420,0,9,,,,,,,,,8,,50,0
36900,note_on,420,0,6,,,,,,,,,5,,65,0
36900,note_on,420,0,7,,,,,,,,,6,,70,0
36900,note_on,900,0,3,,,,,,,,,2,,58,0
36900,note_on,420,0,2,,,,,,,,,1,,70,0
36900,note_on,420,0,8,,,,,,,,,7,,62,0
36960,note_on,60,0,4,,,,,,,,,3,,58,88
36960,note_on,60,0,7,,,,,,,,,6,,69,64
36960,note_on,60,0,6,,,,,,,,,5,,63,64
36960,note_on,60,0,2,,,,,,,,,1,,69,75
36960,note_on,60,0,5,,,,,,,,,4,,72,88
36960,note_on,60,0,8,,,,,,,,,7,,58,64
36960,note_on,60,0,9,,,,,,,,,8,,46,64
36960,note_on,0,0,2,,,,,,,,,1,,72,75
37167,note_on,0,0,2,,,,,,,,,1,,69,0
37167,note_on,207,0,6,,,,,,,,,5,,63,0
37167,note_on,207,0,2,,,,,,,,,1,,72,0
37167,note_on,207,0,7,,,,,,,,,6,,69,0
37167,note_on,207,0,5,,,,,,,,,4,,72,0
37200,note_on,33,0,5,,,,,,,,,4,,74,88
37200,note_on,33,0,6,,,,,,,,,5,,62,64
37200,note_on,0,0,2,,,,,,,,,1,,74,75
37200,note_on,33,0,2,,,,,,,,,1,,70,75
37200,note_on,33,0,7,,,,,,,,,6,,70,64
37380,note_on,420,0,4,,,,,,,,,3,,58,0
37380,note_on,420,0,8,,,,,,,,,7,,58,0
37380,note_on,420,0,9,,,,,,,,,8,,46,0
37407,note_on,207,0,6,,,,,,,,,5,,62,0
37407,note_on,207,0,5,,,,,,,,,4,,74,0
37407,note_on,207,0,2,,,,,,,,,1,,74,0
37407,note_on,207,0,7,,,,,,,,,6,,70,0
37407,note_on,0,0,2,,,,,,,,,1,,70,0
37440,note_on,60,0,9,,,,,,,,,8,,48,64
37440,note_on,33,0,6,,,,,,,,,5,,67,64
37440,note_on,33,0,2,,,,,,,,,1,,67,75
37440,note_on,60,0,4,,,,,,,,,3,,60,88
37440,note_on,0,0,2,,,,,,,,,1,,77,75
37440,note_on,33,0,7,,,,,,,,,6,,67,64
37440,note_on,60,0,8,,,,,,,,,7,,60,64
37440,note_on,33,0,5,,,,,,,,,4,,77,88
37647,note_on,207,0,2,,,,,,,,,1,,77,0
37647,note_on,207,0,5,,,,,,,,,4,,77,0
37680,note_on,33,0,2,,,,,,,,,1,,75,75
37680,note_on,33,0,5,,,,,,,,,4,,75,88
37860,note_on,420,0,4,,,,,,,,,3,,60,0
37860,note_on,420,0,6,,,,,,,,,5,,67,0
37860,note_on,420,0,8,,,,,,,,,7,,60,0
37860,note_on,420,0,9,,,,,,,,,8,,48,0
37887,note_on,0,0,2,,,,,,,,,1,,67,0
37887,note_on,207,0,2,,,,,,,,,1,,75,0
37887,note_on,207,0,5,,,,,,,,,4,,75,0
37920,note_on,0,0,3,,,,,,,,,2,,70,72
37920,note_on,1020,0,3,,,,,,,,,2,,58,72
37920,note_on,60,0,4,,,,,,,,,3,,55,88
37920,note_on,60,0,9,,,,,,,,,8,,43,64
37920,note_on,60,0,6,,,,,,,,,5,,58,64
37920,note_on,60,0,8,,,,,,,,,7,,55,64
37920,note_on,33,0,5,,,,,,,,,4,,75,88
37920,note_on,33,0,2,,,,,,,,,1,,70,75
37920,note_on,0,0,2,,,,,,,,,1,,75,75
38340,note_on,420,0,2,,,,,,,,,1,,70,0
38340,note_on,420,0,4,,,,,,,,,3,,55,0
38340,note_on,420,0,8,,,,,,,,,7,,55,0
38340,note_on,0,0,3,,,,,,,,,2,,58,0
38340,note_on,420,0,3,,,,,,,,,2,,70,0
38340,note_on,420,0,6,,,,,,,,,5,,58,0
38340,note_on,900,0,7,,,,,,,,,6,,67,0
38340,note_on,420,0,9,,,,,,,,,8,,43,0
38400,note_on,60,0,8,,,,,,,,,7,,57,64
38400,note_on,60,0,2,,,,,,,,,1,,72,75
38400,note_on,60,0,7,,,,,,,,,6,,65,64
38400,note_on,60,0,3,,,,,,,,,2,,65,72
38400,note_on,60,0,6,,,,,,,,,5,,60,64
38400,note_on,0,0,3,,,,,,,,,2,,72,72
38400,note_on,60,0,9,,,,,,,,,8,,45,64
38400,note_on,60,0,4,,,,,,,,,3,,57,88
38820,note_on,420,0,4,,,,,,,,,3,,57,0
38820,note_on,420,0,2,,,,,,,,,1,,72,0
38820,note_on,420,0,9,,,,,,,,,8,,45,0
38820,note_on,0,0,3,,,,,,,,,2,,65,0
38820,note_on,420,0,8,,,,,,,,,7,,57,0
38820,note_on,420,0,7,,,,,,,,,6,,65,0
38820,note_on,420,0,3,,,,,,,,,2,,72,0
38820,note_on,420,0,6,,,,,,,,,5,,60,0
38820,note_on,0,0,2,,,,,,,,,1,,75,0
38820,note_on,900,0,5,,,,,,,,,4,,75,0
38880,note_on,60,0,6,,,,,,,,,5,,65,64
38880,note_on,60,0,5,,,,,,,,,4,,74,88
38880,note_on,60,0,9,,,,,,,,,8,,46,64
38880,note_on,60,0,8,,,,,,,,,7,,58,64
38880,note_on,60,0,4,,,,,,,,,3,,58,88
38880,note_on,60,0,7,,,,,,,,,6,,65,64
38880,note_on,60,0,2,,,,,,,,,1,,70,75
38880,note_on,0,0,2,,,,,,,,,1,,74,75
38880,note_on,0,0,3,,,,,,,,,2,,74,72
38880,note_on,60,0,3,,,,,,,,,2,,70,72
39190,note_on,310,0,5,,,,,,,,,4,,74,0
39190,note_on,310,0,2,,,,,,,,,1,,74,0
39240,note_on,50,0,2,,,,,,,,,1,,77,75
39240,note_on,50,0,5,,,,,,,,,4,,75,88
39290,note_on,50,0,5,,,,,,,,,4,,75,0
39300,note_on,420,0,7,,,,,,,,,6,,65,0
39300,note_on,420,0,6,,,,,,,,,5,,65,0
39300,note_on,420,0,4,,,,,,,,,3,,58,0
39300,note_on,420,0,8,,,,,,,,,7,,58,0
39300,note_on,10,0,5,,,,,,,,,4,,77,88
39300,note_on,420,0,9,,,,,,,,,8,,46,0
39342,note_on,0,0,2,,,,,,,,,1,,70,0
39342,note_on,102,0,2,,,,,,,,,1,,77,0
39350,note_on,50,0,5,,,,,,,,,4,,77,0
39360,note_on,60,0,7,,,,,,,,,6,,65,64
39360,note_on,0,0,2,,,,,,,,,1,,82,75
39360,note_on,60,0,6,,,,,,,,,5,,62,64
39360,note_on,18,0,2,,,,,,,,,1,,74,75
39360,note_on,60,0,4,,,,,,,,,3,,53,88
39360,note_on,60,0,8,,,,,,,,,7,,53,64
39360,note_on,10,0,5,,,,,,,,,4,,70,88
39360,note_on,60,0,9,,,,,,,,,8,,41,64
39780,note_on,0,0,2,,,,,,,,,1,,74,0
39780,note_on,420,0,2,,,,,,,,,1,,82,0
39780,note_on,420,0,5,,,,,,,,,4,,70,0
39780,note_on,420,0,8,,,,,,,,,7,,53,0
39780,note_on,420,0,9,,,,,,,,,8,,41,0
39780,note_on,420,0,6,,,,,,,,,5,,62,0
39780,note_on,420,0,7,,,,,,,,,6,,65,0
39780,note_on,900,0,3,,,,,,,,,2,,74,0
39780,note_on,0,0,3,,,,,,,,,2,,70,0
39780,note_on,420,0,4,,,,,,,,,3,,53,0
39840,note_on,60,0,2,,,,,,,,,1,,72,75
39840,note_on,60,0,9,,,,,,,,,8,,29,64
39840,note_on,60,0,4,,,,,,,,,3,,41,88
39840,note_on,60,0,8,,,,,,,,,7,,41,64
39840,note_on,60,0,6,,,,,,,,,5,,60,64
39840,note_on,0,0,3,,,,,,,,,2,,72,72
39840,note_on,0,0,2,,,,,,,,,1,,81,75
39840,note_on,60,0,5,,,,,,,,,4,,69,88
39840,note_on,60,0,3,,,,,,,,,2,,65,72
39840,note_on,60,0,7,,,,,,,,,6,,65,64
40260,note_on,0,0,3,,,,,,,,,2,,65,0
40260,note_on,420,0,8,,,,,,,,,7,,41,0
40260,note_on,420,0,5,,,,,,,,,4,,69,0
40260,note_on,420,0,6,,,,,,,,,5,,60,0
40260,note_on,420,0,2,,,,,,,,,1,,81,0
40260,note_on,420,0,4,,,,,,,,,3,,41,0
40260,note_on,420,0,3,,,,,,,,,2,,72,0
40260,note_on,420,0,7,,,,,,,,,6,,65,0
40260,note_on,0,0,2,,,,,,,,,1,,72,0
40260,note_on,420,0,9,,,,,,,,,8,,29,0
40320,note_on,0,0,3,,,,,,,,,2,,70,72
40320,note_on,60,0,7,,,,,,,,,6,,65,64
40320,note_on,60,0,5,,,,,,,,,4,,62,88
40320,note_on,0,0,5,,,,,,,,,4,,70,88
40320,note_on,0,0,6,,,,,,,,,5,,70,64
40320,note_on,60,0,6,,,,,,,,,5,,62,64
40320,note_on,60,0,9,,,,,,,,,8,,34,64
40320,note_on,60,0,8,,,,,,,,,7,,46,64
40320,note_on,60,0,2,,,,,,,,,1,,74,75
40320,note_on,60,0,3,,,,,,,,,2,,62,72
40320,note_on,60,0,4,,,,,,,,,3,,46,88
40320,note_on,0,0,2,,,,,,,,,1,,82,75
40740,note_on,420,0,9,,,,,,,,,8,,34,0
40740,note_on,420,0,4,,,,,,,,,3,,46,0
40740,note_on,420,0,8,,,,,,,,,7,,46,0
40800,note_on,60,0,9,,,,,,,,,8,,38,64
40800,note_on,60,0,4,,,,,,,,,3,,50,88
40800,note_on,60,0,8,,,,,,,,,7,,50,64
41220,note_on,0,0,3,,,,,,,,,2,,62,0
41220,note_on,420,0,4,,,,,,,,,3,,50,0
41220,note_on,900,0,5,,,,,,,,,4,,70,0
41220,note_on,0,0,5,,,,,,,,,4,,62,0
41220,note_on,900,0,6,,,,,,,,,5,,70,0
41220,note_on,900,0,3,,,,,,,,,2,,70,0
41220,note_on,0,0,6,,,,,,,,,5,,62,0
41220,note_on,900,0,7,,,,,,,,,6,,65,0
41220,note_on,420,0,8,,,,,,,,,7,,50,0
41220,note_on,420,0,9,,,,,,,,,8,,38,0
41220,note_on,0,0,2,,,,,,,,,1,,74,0
41220,note_on,900,0,2,,,,,,,,,1,,82,0
41280,note_on,60,0,9,,,,,,,,,8,,41,64
41280,note_on,60,0,4,,,,,,,,,3,,53,88
41280,note_on,60,0,8,,,,,,,,,7,,53,64
41700,note_on,420,0,8,,,,,,,,,7,,53,0
41700,note_on,420,0,4,,,,,,,,,3,,53,0
41700,note_on,420,0,9,,,,,,,,,8,,41,0
41760,note_on,41758,0,1,,,,,,,,,0,,58,109
41760,note_on,540,0,6,,,,,,,,,5,,62,64
41760,note_on,540,0,5,,,,,,,,,4,,65,49
41760,note_on,60,0,8,,,,,,,,,7,,58,64
41760,note_on,540,0,7,,,,,,,,,6,,58,64
41760,note_on,60,0,9,,,,,,,,,8,,46,64
41840,note_on,80,0,1,,,,,,,,,0,,58,0
41920,note_on,80,0,1,,,,,,,,,0,,53,111
42000,note_on,80,0,1,,,,,,,,,0,,53,0
42080,note_on,80,0,1,,,,,,,,,0,,50,112
42160,note_on,80,0,1,,,,,,,,,0,,50,0
42180,note_on,420,0,5,,,,,,,,,4,,65,0
42180,note_on,420,0,8,,,,,,,,,7,,58,0
42180,note_on,420,0,9,,,,,,,,,8,,46,0
42180,note_on,420,0,6,,,,,,,,,5,,62,0
42240,note_on,60,0,6,,,,,,,,,5,,70,64
42240,note_on,60,0,8,,,,,,,,,7,,62,64
42240,note_on,60,0,5,,,,,,,,,4,,77,49
42240,note_on,80,0,1,,,,,,,,,0,,46,114
42240,note_on,60,0,9,,,,,,,,,8,,50,64
42320,note_on,80,0,1,,,,,,,,,0,,46,0
42400,note_on,80,0,1,,,,,,,,,0,,50,116
42480,note_on,80,0,1,,,,,,,,,0,,50,0
42550,note_on,310,0,6,,,,,,,,,5,,70,0
42550,note_on,310,0,5,,,,,,,,,4,,77,0
42560,note_on,80,0,1,,,,,,,,,0,,53,116
42600,note_on,50,0,5,,,,,,,,,4,,74,49
42600,note_on,50,0,6,,,,,,,,,5,,65,64
42640,note_on,80,0,1,,,,,,,,,0,,53,0
42660,note_on,420,0,9,,,,,,,,,8,,50,0
42660,note_on,420,0,8,,,,,,,,,7,,62,0
42702,note_on,102,0,6,,,,,,,,,5,,65,0
42702,note_on,102,0,5,,,,,,,,,4,,74,0
42720,note_on,18,0,5,,,,,,,,,4,,77,49
42720,note_on,60,0,9,,,,,,,,,8,,46,64
42720,note_on,60,0,8,,,,,,,,,7,,58,64
42720,note_on,80,0,1,,,,,,,,,0,,58,116
42720,note_on,18,0,6,,,,,,,,,5,,74,64
42800,note_on,80,0,1,,,,,,,,,0,,58,0
42880,note_on,80,0,1,,,,,,,,,0,,62,116
42960,note_on,80,0,1,,,,,,,,,0,,62,0
43040,note_on,80,0,1,,,,,,,,,0,,65,116
43140,note_on,420,0,6,,,,,,,,,5,,74,0
43140,note_on,420,0,5,,,,,,,,,4,,77,0
43140,note_on,420,0,9,,,,,,,,,8,,46,0
43140,note_on,420,0,8,,,,,,,,,7,,58,0
43140,note_on,1380,0,7,,,,,,,,,6,,58,0
43200,note_on,60,0,9,,,,,,,,,8,,48,64
43200,note_on,60,0,7,,,,,,,,,6,,60,64
43200,note_on,60,0,6,,,,,,,,,5,,57,64
43200,note_on,160,0,1,,,,,,,,,0,,63,116
43200,note_on,60,0,8,,,,,,,,,7,,60,64
43200,note_on,60,0,5,,,,,,,,,4,,63,49
43240,note_on,40,0,1,,,,,,,,,0,,65,0
43280,note_on,40,0,1,,,,,,,,,0,,63,0
43360,note_on,80,0,1,,,,,,,,,0,,60,116
43440,note_on,80,0,1,,,,,,,,,0,,60,0
43520,note_on,80,0,1,,,,,,,,,0,,58,113
43600,note_on,80,0,1,,,,,,,,,0,,58,0
43620,note_on,420,0,8,,,,,,,,,7,,60,0
43620,note_on,420,0,9,,,,,,,,,8,,48,0
43620,note_on,420,0,5,,,,,,,,,4,,63,0
43620,note_on,420,0,6,,,,,,,,,5,,57,0
43680,note_on,60,0,5,,,,,,,,,4,,75,49
43680,note_on,60,0,8,,,,,,,,,7,,53,64
43680,note_on,80,0,1,,,,,,,,,0,,57,112
43680,note_on,60,0,6,,,,,,,,,5,,72,64
43680,note_on,60,0,9,,,,,,,,,8,,41,64
43760,note_on,80,0,1,,,,,,,,,0,,57,0
43840,note_on,80,0,1,,,,,,,,,0,,60,110
43920,note_on,80,0,1,,,,,,,,,0,,60,0
43990,note_on,310,0,5,,,,,,,,,4,,75,0
43990,note_on,310,0,6,,,,,,,,,5,,72,0
44000,note_on,80,0,1,,,,,,,,,0,,55,106
44040,note_on,50,0,5,,,,,,,,,4,,72,49
44040,note_on,50,0,6,,,,,,,,,5,,69,64
44100,note_on,420,0,9,,,,,,,,,8,,41,0
44100,note_on,420,0,8,,,,,,,,,7,,53,0
44142,note_on,102,0,5,,,,,,,,,4,,72,0
44142,note_on,102,0,6,,,,,,,,,5,,69,0
44160,note_on,18,0,6,,,,,,,,,5,,65,64
44160,note_on,160,0,1,,,,,,,,,0,,53,106
44160,note_on,60,0,8,,,,,,,,,7,,57,64
44160,note_on,18,0,5,,,,,,,,,4,,75,49
44160,note_on,60,0,9,,,,,,,,,8,,45,64
44200,note_on,40,0,1,,,,,,,,,0,,55,0
44240,note_on,40,0,1,,,,,,,,,0,,53,0
44320,note_on,80,0,1,,,,,,,,,0,,60,105
44400,note_on,80,0,1,,,,,,,,,0,,60,0
44480,note_on,80,0,1,,,,,,,,,0,,51,105
44580,note_on,420,0,5,,,,,,,,,4,,75,0
44580,note_on,420,0,8,,,,,,,,,7,,57,0
44580,note_on,420,0,6,,,,,,,,,5,,65,0
44580,note_on,1380,0,7,,,,,,,,,6,,60,0
44580,note_on,420,0,9,,,,,,,,,8,,45,0
44640,note_on,60,0,5,,,,,,,,,4,,74,49
44640,note_on,60,0,6,,,,,,,,,5,,65,64
44640,note_on,160,0,1,,,,,,,,,0,,50,105
44640,note_on,60,0,9,,,,,,,,,8,,46,64
44640,note_on,60,0,7,,,,,,,,,6,,62,64
44640,note_on,60,0,8,,,,,,,,,7,,58,64
44680,note_on,40,0,1,,,,,,,,,0,,51,0
44720,note_on,40,0,1,,,,,,,,,0,,50,0
44800,note_on,80,0,1,,,,,,,,,0,,58,103
44880,note_on,80,0,1,,,,,,,,,0,,58,0
44960,note_on,80,0,1,,,,,,,,,0,,57,101
45040,note_on,80,0,1,,,,,,,,,0,,57,0
45060,note_on,420,0,5,,,,,,,,,4,,74,0
45060,note_on,420,0,8,,,,,,,,,7,,58,0
45060,note_on,420,0,7,,,,,,,,,6,,62,0
45060,note_on,420,0,9,,,,,,,,,8,,46,0
45060,note_on,420,0,6,,,,,,,,,5,,65,0
45120,note_on,80,0,1,,,,,,,,,0,,55,100
45120,note_on,60,0,9,,,,,,,,,8,,39,64
45120,note_on,60,0,7,,,,,,,,,6,,60,64
45120,note_on,60,0,8,,,,,,,,,7,,51,64
45120,note_on,60,0,5,,,,,,,,,4,,79,49
45120,note_on,60,0,6,,,,,,,,,5,,70,64
45200,note_on,80,0,1,,,,,,,,,0,,55,0
45280,note_on,80,0,1,,,,,,,,,0,,63,98
45360,note_on,80,0,1,,,,,,,,,0,,63,0
45440,note_on,80,0,1,,,,,,,,,0,,62,98
45520,note_on,80,0,1,,,,,,,,,0,,62,0
45540,note_on,420,0,9,,,,,,,,,8,,39,0
45540,note_on,420,0,7,,,,,,,,,6,,60,0
45540,note_on,420,0,8,,,,,,,,,7,,51,0
45540,note_on,420,0,5,,,,,,,,,4,,79,0
45540,note_on,420,0,6,,,,,,,,,5,,70,0
45600,note_on,80,0,1,,,,,,,,,0,,60,98
45600,note_on,60,0,8,,,,,,,,,7,,52,64
45600,note_on,60,0,7,,,,,,,,,6,,60,64
45600,note_on,60,0,6,,,,,,,,,5,,67,64
45600,note_on,60,0,5,,,,,,,,,4,,70,49
45600,note_on,60,0,9,,,,,,,,,8,,40,64
45680,note_on,80,0,1,,,,,,,,,0,,60,0
45760,note_on,80,0,1,,,,,,,,,0,,62,99
45840,note_on,80,0,1,,,,,,,,,0,,62,0
45920,note_on,80,0,1,,,,,,,,,0,,55,99
46000,note_on,80,0,1,,,,,,,,,0,,55,0
46020,note_on,420,0,8,,,,,,,,,7,,52,0
46020,note_on,420,0,5,,,,,,,,,4,,70,0
46020,note_on,420,0,6,,,,,,,,,5,,67,0
46020,note_on,420,0,7,,,,,,,,,6,,60,0
46020,note_on,420,0,9,,,,,,,,,8,,40,0
46080,note_on,60,0,5,,,,,,,,,4,,69,49
46080,note_on,60,0,6,,,,,,,,,5,,65,64
46080,note_on,80,0,1,,,,,,,,,0,,57,99
46080,note_on,60,0,8,,,,,,,,,7,,53,64
46080,note_on,60,0,7,,,,,,,,,6,,60,64
46080,note_on,60,0,9,,,,,,,,,8,,41,64
46220,note_on,140,0,5,,,,,,,,,4,,69,0
46237,note_on,17,0,5,,,,,,,,,4,,70,49
46240,note_on,160,0,1,,,,,,,,,0,,58,98
46262,note_on,22,0,1,,,,,,,,,0,,57,0
46320,note_on,58,0,1,,,,,,,,,0,,58,0
46379,note_on,142,0,5,,,,,,,,,4,,70,0
46397,note_on,18,0,5,,,,,,,,,4,,72,49
46400,note_on,80,0,1,,,,,,,,,0,,60,98
46480,note_on,80,0,1,,,,,,,,,0,,60,0
46500,note_on,420,0,8,,,,,,,,,7,,53,0
46500,note_on,420,0,7,,,,,,,,,6,,60,0
46500,note_on,420,0,9,,,,,,,,,8,,41,0
46500,note_on,420,0,6,,,,,,,,,5,,65,0
46537,note_on,140,0,5,,,,,,,,,4,,72,0
46560,note_on,60,0,6,,,,,,,,,5,,62,64
46560,note_on,80,0,1,,,,,,,,,0,,58,98
46560,note_on,23,0,5,,,,,,,,,4,,70,49
46640,note_on,80,0,1,,,,,,,,,0,,58,0
46700,note_on,140,0,6,,,,,,,,,5,,62,0
46700,note_on,140,0,5,,,,,,,,,4,,70,0
46717,note_on,17,0,6,,,,,,,,,5,,60,64
46717,note_on,17,0,5,,,,,,,,,4,,69,49
46720,note_on,80,0,1,,,,,,,,,0,,57,99
46800,note_on,80,0,1,,,,,,,,,0,,57,0
46859,note_on,142,0,5,,,,,,,,,4,,69,0
46859,note_on,142,0,6,,,,,,,,,5,,60,0
46877,note_on,18,0,5,,,,,,,,,4,,67,49
46877,note_on,18,0,6,,,,,,,,,5,,58,64
46880,note_on,80,0,1,,,,,,,,,0,,55,100
46960,note_on,80,0,1,,,,,,,,,0,,55,0
47017,note_on,140,0,5,,,,,,,,,4,,67,0
47017,note_on,140,0,6,,,,,,,,,5,,58,0
47040,note_on,540,0,8,,,,,,,,,7,,51,64
47040,note_on,23,0,6,,,,,,,,,5,,57,64
47040,note_on,23,0,5,,,,,,,,,4,,65,49
47040,note_on,540,0,9,,,,,,,,,8,,39,64
47040,note_on,80,0,1,,,,,,,,,0,,53,102
47180,note_on,140,0,9,,,,,,,,,8,,39,0
47180,note_on,140,0,6,,,,,,,,,5,,57,0
47180,note_on,140,0,8,,,,,,,,,7,,51,0
47197,note_on,17,0,9,,,,,,,,,8,,38,64
47197,note_on,17,0,6,,,,,,,,,5,,58,64
47197,note_on,17,0,8,,,,,,,,,7,,50,64
47339,note_on,142,0,9,,,,,,,,,8,,38,0
47339,note_on,142,0,6,,,,,,,,,5,,58,0
47339,note_on,142,0,8,,,,,,,,,7,,50,0
47342,note_on,302,0,1,,,,,,,,,0,,53,0
47357,note_on,18,0,6,,,,,,,,,5,,60,64
47357,note_on,18,0,8,,,,,,,,,7,,48,64
47357,note_on,18,0,9,,,,,,,,,8,,36,64
47460,note_on,420,0,5,,,,,,,,,4,,65,0
47497,note_on,140,0,6,,,,,,,,,5,,60,0
47497,note_on,140,0,8,,,,,,,,,7,,48,0
47497,note_on,140,0,9,,,,,,,,,8,,36,0
47520,note_on,60,0,5,,,,,,,,,4,,65,49
47520,note_on,178,0,1,,,,,,,,,0,,58,102
47520,note_on,23,0,6,,,,,,,,,5,,62,64
47520,note_on,1020,0,7,,,,,,,,,6,,58,64
47520,note_on,23,0,8,,,,,,,,,7,,46,64
47520,note_on,23,0,9,,,,,,,,,8,,34,64
47600,note_on,80,0,1,,,,,,,,,0,,58,0
47680,note_on,80,0,1,,,,,,,,,0,,53,104
47760,note_on,80,0,1,,,,,,,,,0,,53,0
47840,note_on,80,0,1,,,,,,,,,0,,50,106
47920,note_on,80,0,1,,,,,,,,,0,,50,0
47940,note_on,420,0,9,,,,,,,,,8,,34,0
47940,note_on,420,0,8,,,,,,,,,7,,46,0
47940,note_on,420,0,6,,,,,,,,,5,,62,0
47940,note_on,420,0,5,,,,,,,,,4,,65,0
48000,note_on,60,0,9,,,,,,,,,8,,50,64
48000,note_on,80,0,1,,,,,,,,,0,,46,109
48000,note_on,60,0,8,,,,,,,,,7,,62,64
48000,note_on,60,0,6,,,,,,,,,5,,70,64
48000,note_on,60,0,5,,,,,,,,,4,,77,49
48080,note_on,80,0,1,,,,,,,,,0,,46,0
48160,note_on,80,0,1,,,,,,,,,0,,50,109
48240,note_on,80,0,1,,,,,,,,,0,,50,0
48310,note_on,310,0,6,,,,,,,,,5,,70,0
48310,note_on,310,0,5,,,,,,,,,4,,77,0
48320,note_on,80,0,1,,,,,,,,,0,,53,109
48360,note_on,50,0,6,,,,,,,,,5,,65,64
48360,note_on,50,0,5,,,,,,,,,4,,74,49
48400,note_on,80,0,1,,,,,,,,,0,,53,0
48420,note_on,420,0,9,,,,,,,,,8,,50,0
48420,note_on,420,0,8,,,,,,,,,7,,62,0
48462,note_on,102,0,5,,,,,,,,,4,,74,0
48462,note_on,102,0,6,,,,,,,,,5,,65,0
48480,note_on,18,0,5,,,,,,,,,4,,77,49
48480,note_on,60,0,9,,,,,,,,,8,,46,64
48480,note_on,60,0,8,,,,,,,,,7,,58,64
48480,note_on,80,0,1,,,,,,,,,0,,58,108
48480,note_on,18,0,6,,,,,,,,,5,,74,64
48560,note_on,80,0,1,,,,,,,,,0,,58,0
48640,note_on,80,0,1,,,,,,,,,0,,62,106
48720,note_on,80,0,1,,,,,,,,,0,,62,0
48800,note_on,80,0,1,,,,,,,,,0,,65,105
48900,note_on,1380,0,7,,,,,,,,,6,,58,0
48900,note_on,420,0,6,,,,,,,,,5,,74,0
48900,note_on,420,0,8,,,,,,,,,7,,58,0
48900,note_on,420,0,9,,,,,,,,,8,,46,0
48900,note_on,420,0,5,,,,,,,,,4,,77,0
48960,note_on,60,0,6,,,,,,,,,5,,57,64
48960,note_on,60,0,7,,,,,,,,,6,,60,64
48960,note_on,60,0,9,,,,,,,,,8,,48,64
48960,note_on,160,0,1,,,,,,,,,0,,63,105
48960,note_on,60,0,5,,,,,,,,,4,,63,49
48960,note_on,60,0,8,,,,,,,,,7,,60,64
49000,note_on,40,0,1,,,,,,,,,0,,65,0
49040,note_on,40,0,1,,,,,,,,,0,,63,0
49120,note_on,80,0,1,,,,,,,,,0,,60,105
49200,note_on,80,0,1,,,,,,,,,0,,60,0
49280,note_on,80,0,1,,,,,,,,,0,,58,106
49360,note_on,80,0,1,,,,,,,,,0,,58,0
49380,note_on,420,0,9,,,,,,,,,8,,48,0
49380,note_on,420,0,6,,,,,,,,,5,,57,0
49380,note_on,420,0,5,,,,,,,,,4,,63,0
49380,note_on,420,0,8,,,,,,,,,7,,60,0
49440,note_on,60,0,5,,,,,,,,,4,,75,49
49440,note_on,60,0,9,,,,,,,,,8,,41,64
49440,note_on,60,0,6,,,,,,,,,5,,72,64
49440,note_on,60,0,8,,,,,,,,,7,,53,64
49440,note_on,80,0,1,,,,,,,,,0,,57,107
49520,note_on,80,0,1,,,,,,,,,0,,57,0
49600,note_on,80,0,1,,,,,,,,,0,,60,107
49680,note_on,80,0,1,,,,,,,,,0,,60,0
49750,note_on,310,0,5,,,,,,,,,4,,75,0
49750,note_on,310,0,6,,,,,,,,,5,,72,0
49760,note_on,80,0,1,,,,,,,,,0,,55,106
49800,note_on,50,0,5,,,,,,,,,4,,72,49
49800,note_on,50,0,6,,,,,,,,,5,,69,64
49860,note_on,420,0,8,,,,,,,,,7,,53,0
49860,note_on,420,0,9,,,,,,,,,8,,41,0
49902,note_on,102,0,5,,,,,,,,,4,,72,0
49902,note_on,102,0,6,,,,,,,,,5,,69,0
49920,note_on,18,0,5,,,,,,,,,4,,75,49
49920,note_on,160,0,1,,,,,,,,,0,,53,106
49920,note_on,60,0,9,,,,,,,,,8,,45,64
49920,note_on,18,0,6,,,,,,,,,5,,65,64
49920,note_on,60,0,8,,,,,,,,,7,,57,64
49952,note_on,32,0,1,,,,,,,,,0,,55,0
50000,note_on,48,0,1,,,,,,,,,0,,53,0
50080,note_on,80,0,1,,,,,,,,,0,,60,106
50160,note_on,80,0,1,,,,,,,,,0,,60,0
50240,note_on,80,0,1,,,,,,,,,0,,51,107
50340,note_on,420,0,5,,,,,,,,,4,,75,0
50340,note_on,1380,0,7,,,,,,,,,6,,60,0
50340,note_on,420,0,8,,,,,,,,,7,,57,0
50340,note_on,420,0,9,,,,,,,,,8,,45,0
50400,note_on,60,0,8,,,,,,,,,7,,58,64
50400,note_on,60,0,9,,,,,,,,,8,,46,64
50400,note_on,160,0,1,,,,,,,,,0,,50,107
50400,note_on,60,0,7,,,,,,,,,6,,62,64
50400,note_on,60,0,5,,,,,,,,,4,,74,49
50412,note_on,12,0,1,,,,,,,,,0,,51,0
50480,note_on,68,0,1,,,,,,,,,0,,50,0
50560,note_on,80,0,1,,,,,,,,,0,,58,107
50640,note_on,80,0,1,,,,,,,,,0,,58,0
50720,note_on,80,0,1,,,,,,,,,0,,53,107
50800,note_on,80,0,1,,,,,,,,,0,,53,0
50820,note_on,420,0,5,,,,,,,,,4,,74,0
50820,note_on,900,0,6,,,,,,,,,5,,65,0
50820,note_on,420,0,8,,,,,,,,,7,,58,0
50820,note_on,420,0,9,,,,,,,,,8,,46,0
50820,note_on,420,0,7,,,,,,,,,6,,62,0
50880,note_on,60,0,5,,,,,,,,,4,,74,49
50880,note_on,60,0,6,,,,,,,,,5,,67,64
50880,note_on,60,0,9,,,,,,,,,8,,39,64
50880,note_on,60,0,8,,,,,,,,,7,,51,64
50880,note_on,60,0,7,,,,,,,,,6,,63,64
50880,note_on,80,0,1,,,,,,,,,0,,62,106
50930,note_on,50,0,5,,,,,,,,,4,,74,0
50940,note_on,10,0,5,,,,,,,,,4,,72,49
50990,note_on,50,0,5,,,,,,,,,4,,72,0
51000,note_on,10,0,5,,,,,,,,,4,,74,49
51012,note_on,132,0,1,,,,,,,,,0,,60,106
51035,note_on,23,0,1,,,,,,,,,0,,62,0
51050,note_on,50,0,5,,,,,,,,,4,,74,0
51060,note_on,10,0,5,,,,,,,,,4,,72,49
51080,note_on,45,0,1,,,,,,,,,0,,62,106
51099,note_on,19,0,1,,,,,,,,,0,,60,0
51110,note_on,50,0,5,,,,,,,,,4,,72,0
51120,note_on,10,0,5,,,,,,,,,4,,74,49
51140,note_on,41,0,1,,,,,,,,,0,,60,106
51167,note_on,27,0,1,,,,,,,,,0,,62,0
51170,note_on,50,0,5,,,,,,,,,4,,74,0
51180,note_on,10,0,5,,,,,,,,,4,,72,49
51200,note_on,33,0,1,,,,,,,,,0,,62,106
51225,note_on,25,0,1,,,,,,,,,0,,60,0
51230,note_on,50,0,5,,,,,,,,,4,,72,0
51240,note_on,10,0,5,,,,,,,,,4,,74,49
51260,note_on,35,0,1,,,,,,,,,0,,60,106
51287,note_on,27,0,1,,,,,,,,,0,,62,0
51290,note_on,50,0,5,,,,,,,,,4,,74,0
51300,note_on,420,0,6,,,,,,,,,5,,67,0
51300,note_on,10,0,5,,,,,,,,,4,,72,49
51300,note_on,420,0,9,,,,,,,,,8,,39,0
51300,note_on,420,0,8,,,,,,,,,7,,51,0
51312,note_on,25,0,1,,,,,,,,,0,,62,105
51345,note_on,33,0,1,,,,,,,,,0,,60,0
51350,note_on,50,0,5,,,,,,,,,4,,72,0
51360,note_on,60,0,6,,,,,,,,,5,,69,64
51360,note_on,60,0,8,,,,,,,,,7,,53,64
51360,note_on,60,0,9,,,,,,,,,8,,41,64
51360,note_on,10,0,5,,,,,,,,,4,,74,49
51365,note_on,20,0,1,,,,,,,,,0,,60,105
51399,note_on,34,0,1,,,,,,,,,0,,62,0
51410,note_on,50,0,5,,,,,,,,,4,,74,0
51420,note_on,10,0,5,,,,,,,,,4,,72,49
51422,note_on,23,0,1,,,,,,,,,0,,62,105
51452,note_on,30,0,1,,,,,,,,,0,,60,0
51467,note_on,15,0,1,,,,,,,,,0,,60,105
51470,note_on,50,0,5,,,,,,,,,4,,72,0
51480,note_on,10,0,5,,,,,,,,,4,,74,49
51507,note_on,40,0,1,,,,,,,,,0,,62,0
51512,note_on,5,0,1,,,,,,,,,0,,62,105
51530,note_on,50,0,5,,,,,,,,,4,,74,0
51540,note_on,10,0,5,,,,,,,,,4,,72,49
51549,note_on,37,0,1,,,,,,,,,0,,60,0
51570,note_on,21,0,1,,,,,,,,,0,,60,105
51589,note_on,19,0,1,,,,,,,,,0,,62,0
51590,note_on,50,0,5,,,,,,,,,4,,72,0
51600,note_on,10,0,5,,,,,,,,,4,,74,49
51605,note_on,16,0,1,,,,,,,,,0,,62,105
51650,note_on,45,0,1,,,,,,,,,0,,60,0
51650,note_on,50,0,5,,,,,,,,,4,,74,0
51657,note_on,7,0,1,,,,,,,,,0,,60,103
51660,note_on,10,0,5,,,,,,,,,4,,72,49
51685,note_on,28,0,1,,,,,,,,,0,,62,0
51702,note_on,17,0,1,,,,,,,,,0,,58,103
51710,note_on,50,0,5,,,,,,,,,4,,72,0
51720,note_on,10,0,5,,,,,,,,,4,,70,49
51724,note_on,22,0,1,,,,,,,,,0,,60,0
51767,note_on,43,0,1,,,,,,,,,0,,60,103
51770,note_on,50,0,5,,,,,,,,,4,,70,0
51780,note_on,420,0,9,,,,,,,,,8,,41,0
51780,note_on,420,0,6,,,,,,,,,5,,69,0
51780,note_on,10,0,5,,,,,,,,,4,,72,49
51780,note_on,900,0,7,,,,,,,,,6,,63,0
51780,note_on,420,0,8,,,,,,,,,7,,53,0
51787,note_on,20,0,1,,,,,,,,,0,,58,0
51830,note_on,50,0,5,,,,,,,,,4,,72,0
51840,note_on,10,0,5,,,,,,,,,4,,70,49
51840,note_on,53,0,1,,,,,,,,,0,,58,101
51840,note_on,60,0,7,,,,,,,,,6,,62,64
51840,note_on,60,0,6,,,,,,,,,5,,70,64
51840,note_on,60,0,8,,,,,,,,,7,,58,64
51840,note_on,60,0,9,,,,,,,,,8,,46,64
51852,note_on,12,0,1,,,,,,,,,0,,60,0
51980,note_on,140,0,8,,,,,,,,,7,,58,0
51980,note_on,140,0,7,,,,,,,,,6,,62,0
51980,note_on,140,0,5,,,,,,,,,4,,70,0
51980,note_on,140,0,6,,,,,,,,,5,,70,0
51980,note_on,140,0,9,,,,,,,,,8,,46,0
51997,note_on,17,0,9,,,,,,,,,8,,41,64
51997,note_on,17,0,5,,,,,,,,,4,,65,49
51997,note_on,17,0,7,,,,,,,,,6,,65,64
51997,note_on,17,0,6,,,,,,,,,5,,65,64
51997,note_on,17,0,8,,,,,,,,,7,,53,64
52139,note_on,142,0,8,,,,,,,,,7,,53,0
52139,note_on,142,0,6,,,,,,,,,5,,65,0
52139,note_on,142,0,7,,,,,,,,,6,,65,0
52139,note_on,142,0,9,,,,,,,,,8,,41,0
52139,note_on,142,0,5,,,,,,,,,4,,65,0
52157,note_on,18,0,8,,,,,,,,,7,,51,64
52157,note_on,18,0,7,,,,,,,,,6,,63,64
52157,note_on,18,0,9,,,,,,,,,8,,39,64
52157,note_on,18,0,6,,,,,,,,,5,,63,64
52157,note_on,18,0,5,,,,,,,,,4,,63,49
52297,note_on,140,0,6,,,,,,,,,5,,63,0
52297,note_on,140,0,9,,,,,,,,,8,,39,0
52297,note_on,140,0,8,,,,,,,,,7,,51,0
52297,note_on,140,0,7,,,,,,,,,6,,63,0
52297,note_on,140,0,5,,,,,,,,,4,,63,0
52320,note_on,23,0,7,,,,,,,,,6,,62,64
52320,note_on,23,0,9,,,,,,,,,8,,38,64
52320,note_on,23,0,5,,,,,,,,,4,,62,49
52320,note_on,23,0,6,,,,,,,,,5,,62,64
52320,note_on,23,0,8,,,,,,,,,7,,50,64
52390,note_on,538,0,1,,,,,,,,,0,,58,0
52460,note_on,140,0,7,,,,,,,,,6,,62,0
52460,note_on,140,0,5,,,,,,,,,4,,62,0
52460,note_on,140,0,9,,,,,,,,,8,,38,0
52460,note_on,140,0,6,,,,,,,,,5,,62,0
52460,note_on,140,0,8,,,,,,,,,7,,50,0
52477,note_on,17,0,7,,,,,,,,,6,,63,64
52477,note_on,17,0,5,,,,,,,,,4,,63,49
52477,note_on,17,0,9,,,,,,,,,8,,39,64
52477,note_on,17,0,6,,,,,,,,,5,,63,64
52477,note_on,17,0,8,,,,,,,,,7,,51,64
52619,note_on,142,0,9,,,,,,,,,8,,39,0
52619,note_on,142,0,7,,,,,,,,,6,,63,0
52619,note_on,142,0,6,,,,,,,,,5,,63,0
52619,note_on,142,0,8,,,,,,,,,7,,51,0
52619,note_on,142,0,5,,,,,,,,,4,,63,0
52637,note_on,18,0,6,,,,,,,,,5,,65,64
52637,note_on,18,0,5,,,,,,,,,4,,65,49
52637,note_on,18,0,8,,,,,,,,,7,,53,64
52637,note_on,18,0,7,,,,,,,,,6,,65,64
52637,note_on,18,0,9,,,,,,,,,8,,41,64
52777,note_on,140,0,5,,,,,,,,,4,,65,0
52777,note_on,140,0,9,,,,,,,,,8,,41,0
52777,note_on,140,0,6,,,,,,,,,5,,65,0
52777,note_on,140,0,8,,,,,,,,,7,,53,0
52777,note_on,140,0,7,,,,,,,,,6,,65,0
52800,note_on,23,0,6,,,,,,,,,5,,58,64
52800,note_on,23,0,8,,,,,,,,,7,,46,64
52800,note_on,23,0,5,,,,,,,,,4,,58,49
52800,note_on,23,0,9,,,,,,,,,8,,34,64
52800,note_on,23,0,7,,,,,,,,,6,,58,64
53220,note_on,420,0,7,,,,,,,,,6,,58,0
53220,note_on,420,0,9,,,,,,,,,8,,34,0
53220,note_on,420,0,8,,,,,,,,,7,,46,0
53220,note_on,420,0,5,,,,,,,,,4,,58,0
53220,note_on,420,0,6,,,,,,,,,5,,58,0
53280,note_on,60,0,9,,,,,,,,,8,,46,64
53280,note_on,60,0,7,,,,,,,,,6,,58,64
53280,note_on,890,0,1,,,,,,,,,0,,58,102
53280,note_on,60,0,8,,,,,,,,,7,,58,64
53400,note_on,120,0,1,,,,,,,,,0,,53,103
53435,note_on,35,0,1,,,,,,,,,0,,58,0
53495,note_on,60,0,1,,,,,,,,,0,,53,0
53520,note_on,25,0,1,,,,,,,,,0,,55,105
53520,note_on,300,0,5,,,,,,,,,4,,74,49
53520,note_on,300,0,6,,,,,,,,,5,,65,64
53640,note_on,120,0,1,,,,,,,,,0,,55,0
53640,note_on,0,0,1,,,,,,,,,0,,57,107
53700,note_on,420,0,8,,,,,,,,,7,,58,0
53700,note_on,420,0,7,,,,,,,,,6,,58,0
53700,note_on,420,0,9,,,,,,,,,8,,46,0
53727,note_on,207,0,6,,,,,,,,,5,,65,0
53727,note_on,207,0,5,,,,,,,,,4,,74,0
53740,note_on,100,0,1,,,,,,,,,0,,57,0
53760,note_on,20,0,1,,,,,,,,,0,,58,108
53760,note_on,33,0,6,,,,,,,,,5,,65,64
53760,note_on,33,0,5,,,,,,,,,4,,74,49
53860,note_on,100,0,1,,,,,,,,,0,,58,0
53880,note_on,20,0,1,,,,,,,,,0,,60,110
53967,note_on,207,0,5,,,,,,,,,4,,74,0
53967,note_on,207,0,6,,,,,,,,,5,,65,0
53980,note_on,100,0,1,,,,,,,,,0,,60,0
54000,note_on,20,0,1,,,,,,,,,0,,62,112
54000,note_on,33,0,5,,,,,,,,,4,,74,49
54000,note_on,33,0,6,,,,,,,,,5,,65,64
54100,note_on,100,0,1,,,,,,,,,0,,62,0
54120,note_on,20,0,1,,,,,,,,,0,,64,112
54207,note_on,207,0,5,,,,,,,,,4,,74,0
54207,note_on,207,0,6,,,,,,,,,5,,65,0
54220,note_on,100,0,1,,,,,,,,,0,,64,0
54240,note_on,33,0,5,,,,,,,,,4,,77,49
54240,note_on,540,0,9,,,,,,,,,8,,46,64
54240,note_on,540,0,8,,,,,,,,,7,,58,64
54240,note_on,540,0,7,,,,,,,,,6,,58,64
54240,note_on,20,0,1,,,,,,,,,0,,65,114
54240,note_on,33,0,6,,,,,,,,,5,,74,64
54325,note_on,85,0,1,,,,,,,,,0,,65,0
54447,note_on,207,0,6,,,,,,,,,5,,74,0
54447,note_on,207,0,5,,,,,,,,,4,,77,0
54480,note_on,33,0,6,,,,,,,,,5,,65,64
54480,note_on,33,0,5,,,,,,,,,4,,74,49
54480,note_on,155,0,1,,,,,,,,,0,,65,114
54582,note_on,102,0,1,,,,,,,,,0,,65,0
54660,note_on,420,0,7,,,,,,,,,6,,58,0
54660,note_on,420,0,8,,,,,,,,,7,,58,0
54660,note_on,420,0,9,,,,,,,,,8,,46,0
54687,note_on,207,0,5,,,,,,,,,4,,74,0
54687,note_on,207,0,6,,,,,,,,,5,,65,0
54720,note_on,138,0,1,,,,,,,,,0,,65,101
54720,note_on,60,0,9,,,,,,,,,8,,45,64
54720,note_on,60,0,7,,,,,,,,,6,,57,64
54720,note_on,60,0,8,,,,,,,,,7,,57,64
54960,note_on,273,0,6,,,,,,,,,5,,65,64
54960,note_on,273,0,5,,,,,,,,,4,,72,49
54960,note_on,240,0,1,,,,,,,,,0,,60,102
54995,note_on,35,0,1,,,,,,,,,0,,65,0
55107,note_on,112,0,1,,,,,,,,,0,,60,0
55140,note_on,420,0,8,,,,,,,,,7,,57,0
55140,note_on,420,0,9,,,,,,,,,8,,45,0
55140,note_on,420,0,7,,,,,,,,,6,,57,0
55167,note_on,207,0,6,,,,,,,,,5,,65,0
55167,note_on,207,0,5,,,,,,,,,4,,72,0
55200,note_on,93,0,1,,,,,,,,,0,,60,101
55200,note_on,33,0,6,,,,,,,,,5,,65,64
55200,note_on,33,0,5,,,,,,,,,4,,72,49
55407,note_on,207,0,6,,,,,,,,,5,,65,0
55407,note_on,207,0,5,,,,,,,,,4,,72,0
55440,note_on,33,0,6,,,,,,,,,5,,65,64
55440,note_on,33,0,5,,,,,,,,,4,,72,49
55647,note_on,207,0,6,,,,,,,,,5,,65,0
55647,note_on,207,0,5,,,,,,,,,4,,72,0
55680,note_on,33,0,5,,,,,,,,,4,,77,49
55680,note_on,33,0,6,,,,,,,,,5,,72,64
55680,note_on,540,0,7,,,,,,,,,6,,57,64
55680,note_on,540,0,8,,,,,,,,,7,,57,64
55680,note_on,540,0,9,,,,,,,,,8,,45,64
55887,note_on,207,0,6,,,,,,,,,5,,72,0
55887,note_on,207,0,5,,,,,,,,,4,,77,0
55920,note_on,33,0,5,,,,,,,,,4,,72,49
55920,note_on,33,0,6,,,,,,,,,5,,65,64
55975,note_on,775,0,1,,,,,,,,,0,,60,0
56100,note_on,420,0,8,,,,,,,,,7,,57,0
56100,note_on,420,0,9,,,,,,,,,8,,45,0
56100,note_on,420,0,7,,,,,,,,,6,,57,0
56127,note_on,207,0,6,,,,,,,,,5,,65,0
56127,note_on,207,0,5,,,,,,,,,4,,72,0
56160,note_on,60,0,7,,,,,,,,,6,,60,64
56160,note_on,60,0,8,,,,,,,,,7,,55,64
56160,note_on,60,0,9,,,,,,,,,8,,43,64
56160,note_on,185,0,1,,,,,,,,,0,,58,104
56280,note_on,120,0,1,,,,,,,,,0,,60,108
56315,note_on,35,0,1,,,,,,,,,0,,58,0
56400,note_on,85,0,1,,,,,,,,,0,,60,0
56400,note_on,273,0,5,,,,,,,,,4,,70,49
56400,note_on,0,0,1,,,,,,,,,0,,58,108
56400,note_on,273,0,6,,,,,,,,,5,,64,64
56520,note_on,0,0,1,,,,,,,,,0,,57,108
56520,note_on,120,0,1,,,,,,,,,0,,58,0
56580,note_on,420,0,9,,,,,,,,,8,,43,0
56580,note_on,420,0,8,,,,,,,,,7,,55,0
56607,note_on,207,0,6,,,,,,,,,5,,64,0
56607,note_on,207,0,5,,,,,,,,,4,,70,0
56640,note_on,33,0,5,,,,,,,,,4,,70,49
56640,note_on,120,0,1,,,,,,,,,0,,57,0
56640,note_on,0,0,1,,,,,,,,,0,,55,106
56640,note_on,33,0,6,,,,,,,,,5,,64,64
56760,note_on,120,0,1,,,,,,,,,0,,57,102
56795,note_on,35,0,1,,,,,,,,,0,,55,0
56847,note_on,207,0,6,,,,,,,,,5,,64,0
56847,note_on,207,0,5,,,,,,,,,4,,70,0
56880,note_on,0,0,1,,,,,,,,,0,,55,99
56880,note_on,33,0,6,,,,,,,,,5,,64,64
56880,note_on,85,0,1,,,,,,,,,0,,57,0
56880,note_on,33,0,5,,,,,,,,,4,,70,49
57000,note_on,120,0,1,,,,,,,,,0,,55,0
57000,note_on,0,0,1,,,,,,,,,0,,53,99
57087,note_on,207,0,5,,,,,,,,,4,,70,0
57087,note_on,207,0,6,,,,,,,,,5,,64,0
57120,note_on,120,0,1,,,,,,,,,0,,53,0
57120,note_on,540,0,8,,,,,,,,,7,,52,64
57120,note_on,33,0,5,,,,,,,,,4,,79,49
57120,note_on,0,0,1,,,,,,,,,0,,52,96
57120,note_on,540,0,9,,,,,,,,,8,,40,64
57120,note_on,33,0,6,,,,,,,,,5,,70,64
57242,note_on,122,0,1,,,,,,,,,0,,52,0
57327,note_on,207,0,5,,,,,,,,,4,,79,0
57327,note_on,207,0,6,,,,,,,,,5,,70,0
57360,note_on,118,0,1,,,,,,,,,0,,58,102
57360,note_on,33,0,6,,,,,,,,,5,,67,64
57360,note_on,33,0,5,,,,,,,,,4,,70,49
57477,note_on,117,0,1,,,,,,,,,0,,58,0
57540,note_on,420,0,8,,,,,,,,,7,,52,0
57540,note_on,420,0,9,,,,,,,,,8,,40,0
57567,note_on,207,0,5,,,,,,,,,4,,70,0
57567,note_on,207,0,6,,,,,,,,,5,,67,0
57600,note_on,60,0,8,,,,,,,,,7,,53,64
57600,note_on,33,0,6,,,,,,,,,5,,67,64
57600,note_on,33,0,5,,,,,,,,,4,,70,49
57600,note_on,123,0,1,,,,,,,,,0,,58,111
57600,note_on,60,0,9,,,,,,,,,8,,41,64
57692,note_on,92,0,1,,,,,,,,,0,,57,113
57720,note_on,28,0,1,,,,,,,,,0,,58,0
57740,note_on,20,0,1,,,,,,,,,0,,58,113
57767,note_on,27,0,1,,,,,,,,,0,,57,0
57795,note_on,28,0,1,,,,,,,,,0,,57,113
57807,note_on,207,0,5,,,,,,,,,4,,70,0
57807,note_on,207,0,6,,,,,,,,,5,,67,0
57812,note_on,17,0,1,,,,,,,,,0,,58,0
57840,note_on,33,0,6,,,,,,,,,5,,65,64
57840,note_on,28,0,1,,,,,,,,,0,,58,112
57840,note_on,33,0,5,,,,,,,,,4,,69,49
57870,note_on,30,0,1,,,,,,,,,0,,57,0
57900,note_on,30,0,1,,,,,,,,,0,,57,107
57915,note_on,15,0,1,,,,,,,,,0,,58,0
57960,note_on,45,0,1,,,,,,,,,0,,55,105
57982,note_on,22,0,1,,,,,,,,,0,,57,0
58020,note_on,38,0,1,,,,,,,,,0,,55,0
58020,note_on,420,0,8,,,,,,,,,7,,53,0
58020,note_on,420,0,9,,,,,,,,,8,,41,0
58020,note_on,0,0,1,,,,,,,,,0,,57,102
58020,note_on,1860,0,7,,,,,,,,,6,,60,0
58047,note_on,207,0,5,,,,,,,,,4,,69,0
58047,note_on,207,0,6,,,,,,,,,5,,65,0
58080,note_on,60,0,7,,,,,,,,,6,,60,64
58080,note_on,33,0,6,,,,,,,,,5,,64,64
58080,note_on,60,0,9,,,,,,,,,8,,48,64
58080,note_on,33,0,5,,,,,,,,,4,,67,49
58080,note_on,60,0,1,,,,,,,,,0,,57,0
58080,note_on,60,0,8,,,,,,,,,7,,60,64
58080,note_on,0,0,1,,,,,,,,,0,,55,99
58287,note_on,207,0,7,,,,,,,,,6,,60,0
58287,note_on,207,0,9,,,,,,,,,8,,48,0
58287,note_on,207,0,8,,,,,,,,,7,,60,0
58320,note_on,33,0,8,,,,,,,,,7,,58,64
58320,note_on,33,0,9,,,,,,,,,8,,46,64
58320,note_on,33,0,7,,,,,,,,,6,,62,64
58500,note_on,420,0,5,,,,,,,,,4,,67,0
58500,note_on,420,0,6,,,,,,,,,5,,64,0
58527,note_on,207,0,8,,,,,,,,,7,,58,0
58527,note_on,207,0,9,,,,,,,,,8,,46,0
58527,note_on,207,0,7,,,,,,,,,6,,62,0
58560,note_on,33,0,8,,,,,,,,,7,,57,64
58560,note_on,480,0,1,,,,,,,,,0,,55,0
58560,note_on,33,0,9,,,,,,,,,8,,45,64
58560,note_on,33,0,7,,,,,,,,,6,,60,64
58767,note_on,207,0,9,,,,,,,,,8,,45,0
58767,note_on,207,0,8,,,,,,,,,7,,57,0
58767,note_on,207,0,7,,,,,,,,,6,,60,0
58800,note_on,33,0,7,,,,,,,,,6,,64,64
58800,note_on,33,0,8,,,,,,,,,7,,55,64
58800,note_on,33,0,9,,,,,,,,,8,,43,64
59007,note_on,207,0,8,,,,,,,,,7,,55,0
59007,note_on,207,0,9,,,,,,,,,8,,43,0
59007,note_on,207,0,7,,,,,,,,,6,,64,0
59040,note_on,33,0,9,,,,,,,,,8,,41,64
59040,note_on,480,0,1,,,,,,,,,0,,60,113
59040,note_on,33,0,8,,,,,,,,,7,,53,64
59040,note_on,540,0,5,,,,,,,,,4,,69,49
59040,note_on,33,0,7,,,,,,,,,6,,65,64
59142,note_on,102,0,5,,,,,,,,,4,,69,0
59160,note_on,18,0,5,,,,,,,,,4,,70,49
59262,note_on,102,0,5,,,,,,,,,4,,70,0
59280,note_on,18,0,5,,,,,,,,,4,,72,49
59382,note_on,102,0,5,,,,,,,,,4,,72,0
59400,note_on,18,0,5,,,,,,,,,4,,69,49
59460,note_on,420,0,9,,,,,,,,,8,,41,0
59460,note_on,420,0,8,,,,,,,,,7,,53,0
59460,note_on,420,0,7,,,,,,,,,6,,65,0
59502,note_on,102,0,5,,,,,,,,,4,,69,0
59520,note_on,18,0,5,,,,,,,,,4,,77,49
59520,note_on,60,0,9,,,,,,,,,8,,45,64
59520,note_on,1020,0,6,,,,,,,,,5,,60,64
59520,note_on,60,0,8,,,,,,,,,7,,57,64
59727,note_on,207,0,5,,,,,,,,,4,,77,0
59760,note_on,33,0,5,,,,,,,,,4,,77,49
59940,note_on,420,0,9,,,,,,,,,8,,45,0
59940,note_on,420,0,6,,,,,,,,,5,,60,0
59940,note_on,420,0,8,,,,,,,,,7,,57,0
59967,note_on,207,0,5,,,,,,,,,4,,77,0
60000,note_on,60,0,9,,,,,,,,,8,,41,64
60000,note_on,60,0,8,,,,,,,,,7,,53,64
60000,note_on,60,0,6,,,,,,,,,5,,69,64
60000,note_on,33,0,5,,,,,,,,,4,,79,49
60050,note_on,50,0,5,,,,,,,,,4,,79,0
60060,note_on,10,0,5,,,,,,,,,4,,77,49
60110,note_on,50,0,5,,,,,,,,,4,,77,0
60120,note_on,10,0,5,,,,,,,,,4,,79,49
60170,note_on,50,0,5,,,,,,,,,4,,79,0
60180,note_on,10,0,5,,,,,,,,,4,,77,49
60230,note_on,50,0,5,,,,,,,,,4,,77,0
60240,note_on,10,0,5,,,,,,,,,4,,79,49
60290,note_on,50,0,5,,,,,,,,,4,,79,0
60300,note_on,10,0,5,,,,,,,,,4,,77,49
60350,note_on,50,0,5,,,,,,,,,4,,77,0
60360,note_on,10,0,5,,,,,,,,,4,,76,49
60410,note_on,50,0,5,,,,,,,,,4,,76,0
60420,note_on,420,0,8,,,,,,,,,7,,53,0
60420,note_on,10,0,5,,,,,,,,,4,,77,49
60420,note_on,420,0,9,,,,,,,,,8,,41,0
60420,note_on,420,0,6,,,,,,,,,5,,69,0
60470,note_on,50,0,5,,,,,,,,,4,,77,0
60480,note_on,60,0,8,,,,,,,,,7,,55,64
60480,note_on,10,0,5,,,,,,,,,4,,76,49
60480,note_on,60,0,9,,,,,,,,,8,,43,64
60480,note_on,60,0,6,,,,,,,,,5,,70,64
60582,note_on,102,0,5,,,,,,,,,4,,76,0
60600,note_on,18,0,5,,,,,,,,,4,,77,49
60702,note_on,102,0,5,,,,,,,,,4,,77,0
60720,note_on,18,0,5,,,,,,,,,4,,79,49
60822,note_on,102,0,5,,,,,,,,,4,,79,0
60840,note_on,18,0,5,,,,,,,,,4,,76,49
60900,note_on,420,0,8,,,,,,,,,7,,55,0
60900,note_on,420,0,6,,,,,,,,,5,,70,0
60900,note_on,420,0,9,,,,,,,,,8,,43,0
60942,note_on,102,0,5,,,,,,,,,4,,76,0
60960,note_on,60,0,9,,,,,,,,,8,,40,64
60960,note_on,60,0,8,,,,,,,,,7,,52,64
60960,note_on,18,0,5,,,,,,,,,4,,70,49
60960,note_on,60,0,6,,,,,,,,,5,,55,64
61167,note_on,207,0,5,,,,,,,,,4,,70,0
61200,note_on,33,0,5,,,,,,,,,4,,70,49
61380,note_on,420,0,8,,,,,,,,,7,,52,0
61380,note_on,420,0,9,,,,,,,,,8,,40,0
61380,note_on,420,0,6,,,,,,,,,5,,55,0
61407,note_on,207,0,5,,,,,,,,,4,,70,0
61440,note_on,33,0,5,,,,,,,,,4,,72,49
61440,note_on,60,0,8,,,,,,,,,7,,48,64
61440,note_on,60,0,6,,,,,,,,,5,,64,64
61440,note_on,60,0,9,,,,,,,,,8,,36,64
61490,note_on,50,0,5,,,,,,,,,4,,72,0
61500,note_on,10,0,5,,,,,,,,,4,,70,49
61550,note_on,50,0,5,,,,,,,,,4,,70,0
61560,note_on,10,0,5,,,,,,,,,4,,72,49
61610,note_on,50,0,5,,,,,,,,,4,,72,0
61620,note_on,10,0,5,,,,,,,,,4,,70,49
61670,note_on,50,0,5,,,,,,,,,4,,70,0
61680,note_on,10,0,5,,,,,,,,,4,,72,49
61715,note_on,2675,0,1,,,,,,,,,0,,60,0
61730,note_on,50,0,5,,,,,,,,,4,,72,0
61740,note_on,10,0,5,,,,,,,,,4,,70,49
61790,note_on,50,0,5,,,,,,,,,4,,70,0
61800,note_on,10,0,5,,,,,,,,,4,,69,49
61850,note_on,50,0,5,,,,,,,,,4,,69,0
61860,note_on,420,0,9,,,,,,,,,8,,36,0
61860,note_on,420,0,8,,,,,,,,,7,,48,0
61860,note_on,420,0,6,,,,,,,,,5,,64,0
61860,note_on,10,0,5,,,,,,,,,4,,70,49
61910,note_on,50,0,5,,,,,,,,,4,,70,0
61920,note_on,60,0,6,,,,,,,,,5,,65,64
61920,note_on,10,0,5,,,,,,,,,4,,69,49
61920,note_on,60,0,9,,,,,,,,,8,,41,64
61920,note_on,20700,0,2,,,,,,,,,1,,84,49
61920,note_on,60,0,8,,,,,,,,,7,,53,64
61922,note_on,207,0,1,,,,,,,,,0,,62,101
62022,note_on,102,0,5,,,,,,,,,4,,69,0
62040,note_on,18,0,5,,,,,,,,,4,,70,49
62115,note_on,193,0,1,,,,,,,,,0,,60,101
62139,note_on,24,0,1,,,,,,,,,0,,62,0
62142,note_on,102,0,5,,,,,,,,,4,,70,0
62160,note_on,18,0,5,,,,,,,,,4,,72,49
62235,note_on,96,0,1,,,,,,,,,0,,62,101
62260,note_on,25,0,1,,,,,,,,,0,,60,0
62262,note_on,102,0,5,,,,,,,,,4,,72,0
62280,note_on,18,0,5,,,,,,,,,4,,69,49
62315,note_on,55,0,1,,,,,,,,,0,,60,101
62340,note_on,420,0,9,,,,,,,,,8,,41,0
62340,note_on,420,0,6,,,,,,,,,5,,65,0
62340,note_on,420,0,8,,,,,,,,,7,,53,0
62355,note_on,40,0,1,,,,,,,,,0,,62,0
62382,note_on,102,0,5,,,,,,,,,4,,69,0
62400,note_on,18,0,5,,,,,,,,,4,,77,49
62400,note_on,60,0,9,,,,,,,,,8,,45,64
62400,note_on,60,0,6,,,,,,,,,5,,60,64
62400,note_on,60,0,8,,,,,,,,,7,,57,64
62420,note_on,65,0,1,,,,,,,,,0,,62,101
62455,note_on,35,0,1,,,,,,,,,0,,60,0
62500,note_on,45,0,1,,,,,,,,,0,,60,101
62530,note_on,30,0,1,,,,,,,,,0,,62,0
62562,note_on,32,0,1,,,,,,,,,0,,62,101
62607,note_on,207,0,5,,,,,,,,,4,,77,0
62607,note_on,45,0,1,,,,,,,,,0,,60,0
62627,note_on,20,0,1,,,,,,,,,0,,60,101
62640,note_on,33,0,5,,,,,,,,,4,,77,49
62652,note_on,25,0,1,,,,,,,,,0,,62,0
62685,note_on,33,0,1,,,,,,,,,0,,62,101
62709,note_on,24,0,1,,,,,,,,,0,,60,0
62730,note_on,21,0,1,,,,,,,,,0,,60,101
62765,note_on,35,0,1,,,,,,,,,0,,62,0
62785,note_on,20,0,1,,,,,,,,,0,,62,103
62810,note_on,25,0,1,,,,,,,,,0,,60,0
62820,note_on,420,0,9,,,,,,,,,8,,45,0
62820,note_on,420,0,6,,,,,,,,,5,,60,0
62820,note_on,420,0,8,,,,,,,,,7,,57,0
62832,note_on,22,0,1,,,,,,,,,0,,60,103
62847,note_on,207,0,5,,,,,,,,,4,,77,0
62865,note_on,33,0,1,,,,,,,,,0,,62,0
62875,note_on,10,0,1,,,,,,,,,0,,62,103
62880,note_on,33,0,5,,,,,,,,,4,,79,49
62880,note_on,60,0,6,,,,,,,,,5,,69,64
62880,note_on,60,0,8,,,,,,,,,7,,53,64
62880,note_on,60,0,9,,,,,,,,,8,,41,64
62912,note_on,37,0,1,,,,,,,,,0,,60,0
62925,note_on,13,0,1,,,,,,,,,0,,60,103
62930,note_on,50,0,5,,,,,,,,,4,,79,0
62940,note_on,10,0,5,,,,,,,,,4,,77,49
62955,note_on,30,0,1,,,,,,,,,0,,62,0
62970,note_on,15,0,1,,,,,,,,,0,,62,103
62990,note_on,50,0,5,,,,,,,,,4,,77,0
63000,note_on,10,0,5,,,,,,,,,4,,79,49
63005,note_on,35,0,1,,,,,,,,,0,,60,0
63022,note_on,17,0,1,,,,,,,,,0,,60,103
63050,note_on,50,0,5,,,,,,,,,4,,79,0
63050,note_on,28,0,1,,,,,,,,,0,,62,0
63060,note_on,10,0,5,,,,,,,,,4,,77,49
63067,note_on,17,0,1,,,,,,,,,0,,62,103
63102,note_on,35,0,1,,,,,,,,,0,,60,0
63110,note_on,50,0,5,,,,,,,,,4,,77,0
63120,note_on,10,0,5,,,,,,,,,4,,79,49
63127,note_on,25,0,1,,,,,,,,,0,,60,103
63147,note_on,20,0,1,,,,,,,,,0,,62,0
63170,note_on,23,0,1,,,,,,,,,0,,62,103
63170,note_on,50,0,5,,,,,,,,,4,,79,0
63180,note_on,10,0,5,,,,,,,,,4,,77,49
63207,note_on,37,0,1,,,,,,,,,0,,60,0
63230,note_on,50,0,5,,,,,,,,,4,,77,0
63235,note_on,28,0,1,,,,,,,,,0,,60,103
63240,note_on,10,0,5,,,,,,,,,4,,76,49
63250,note_on,15,0,1,,,,,,,,,0,,62,0
63275,note_on,25,0,1,,,,,,,,,0,,62,103
63290,note_on,50,0,5,,,,,,,,,4,,76,0
63300,note_on,10,0,5,,,,,,,,,4,,77,49
63300,note_on,420,0,8,,,,,,,,,7,,53,0
63300,note_on,420,0,6,,,,,,,,,5,,69,0
63300,note_on,420,0,9,,,,,,,,,8,,41,0
63315,note_on,40,0,1,,,,,,,,,0,,60,0
63335,note_on,20,0,1,,,,,,,,,0,,60,103
63350,note_on,50,0,5,,,,,,,,,4,,77,0
63355,note_on,20,0,1,,,,,,,,,0,,62,0
63360,note_on,10,0,5,,,,,,,,,4,,76,49
63360,note_on,60,0,9,,,,,,,,,8,,43,64
63360,note_on,60,0,8,,,,,,,,,7,,55,64
63360,note_on,60,0,6,,,,,,,,,5,,70,64
63372,note_on,17,0,1,,,,,,,,,0,,62,103
63415,note_on,43,0,1,,,,,,,,,0,,60,0
63435,note_on,20,0,1,,,,,,,,,0,,60,103
63452,note_on,17,0,1,,,,,,,,,0,,62,0
63462,note_on,102,0,5,,,,,,,,,4,,76,0
63475,note_on,23,0,1,,,,,,,,,0,,62,103
63480,note_on,18,0,5,,,,,,,,,4,,77,49
63515,note_on,40,0,1,,,,,,,,,0,,60,0
63535,note_on,20,0,1,,,,,,,,,0,,60,102
63555,note_on,20,0,1,,,,,,,,,0,,62,0
63570,note_on,15,0,1,,,,,,,,,0,,62,102
63582,note_on,102,0,5,,,,,,,,,4,,77,0
63600,note_on,18,0,5,,,,,,,,,4,,79,49
63615,note_on,45,0,1,,,,,,,,,0,,60,0
63635,note_on,20,0,1,,,,,,,,,0,,60,102
63650,note_on,15,0,1,,,,,,,,,0,,62,0
63675,note_on,25,0,1,,,,,,,,,0,,62,102
63702,note_on,102,0,5,,,,,,,,,4,,79,0
63715,note_on,40,0,1,,,,,,,,,0,,60,0
63720,note_on,18,0,5,,,,,,,,,4,,76,49
63735,note_on,20,0,1,,,,,,,,,0,,60,100
63755,note_on,20,0,1,,,,,,,,,0,,62,0
63772,note_on,17,0,1,,,,,,,,,0,,62,100
63780,note_on,420,0,9,,,,,,,,,8,,43,0
63780,note_on,420,0,8,,,,,,,,,7,,55,0
63780,note_on,420,0,6,,,,,,,,,5,,70,0
63815,note_on,43,0,1,,,,,,,,,0,,60,0
63822,note_on,102,0,5,,,,,,,,,4,,76,0
63840,note_on,60,0,9,,,,,,,,,8,,40,64
63840,note_on,18,0,5,,,,,,,,,4,,70,49
63840,note_on,60,0,8,,,,,,,,,7,,52,64
63840,note_on,60,0,6,,,,,,,,,5,,55,64
63840,note_on,25,0,1,,,,,,,,,0,,60,99
63852,note_on,12,0,1,,,,,,,,,0,,62,0
63885,note_on,33,0,1,,,,,,,,,0,,62,99
63920,note_on,35,0,1,,,,,,,,,0,,60,0
63962,note_on,42,0,1,,,,,,,,,0,,60,97
63972,note_on,10,0,1,,,,,,,,,0,,62,0
64012,note_on,40,0,1,,,,,,,,,0,,62,97
64042,note_on,30,0,1,,,,,,,,,0,,60,0
64047,note_on,207,0,5,,,,,,,,,4,,70,0
64070,note_on,28,0,1,,,,,,,,,0,,60,95
64080,note_on,33,0,5,,,,,,,,,4,,70,49
64092,note_on,22,0,1,,,,,,,,,0,,62,0
64130,note_on,38,0,1,,,,,,,,,0,,62,95
64150,note_on,20,0,1,,,,,,,,,0,,60,0
64180,note_on,30,0,1,,,,,,,,,0,,60,95
64210,note_on,30,0,1,,,,,,,,,0,,62,0
64242,note_on,32,0,1,,,,,,,,,0,,62,93
64260,note_on,420,0,9,,,,,,,,,8,,40,0
64260,note_on,420,0,6,,,,,,,,,5,,55,0
64260,note_on,420,0,8,,,,,,,,,7,,52,0
64260,note_on,18,0,1,,,,,,,,,0,,60,0
64287,note_on,207,0,5,,,,,,,,,4,,70,0
64297,note_on,37,0,1,,,,,,,,,0,,60,93
64320,note_on,60,0,6,,,,,,,,,5,,64,64
64320,note_on,33,0,5,,,,,,,,,4,,72,49
64320,note_on,60,0,8,,,,,,,,,7,,48,64
64320,note_on,60,0,9,,,,,,,,,8,,36,64
64322,note_on,25,0,1,,,,,,,,,0,,62,0
64347,note_on,25,0,1,,,,,,,,,0,,62,93
64370,note_on,50,0,5,,,,,,,,,4,,72,0
64377,note_on,30,0,1,,,,,,,,,0,,60,0
64380,note_on,10,0,5,,,,,,,,,4,,70,49
64390,note_on,13,0,1,,,,,,,,,0,,60,92
64427,note_on,37,0,1,,,,,,,,,0,,62,0
64430,note_on,50,0,5,,,,,,,,,4,,70,0
64440,note_on,10,0,5,,,,,,,,,4,,72,49
64445,note_on,18,0,1,,,,,,,,,0,,62,92
64470,note_on,25,0,1,,,,,,,,,0,,60,0
64490,note_on,20,0,1,,,,,,,,,0,,60,92
64490,note_on,50,0,5,,,,,,,,,4,,72,0
64500,note_on,10,0,5,,,,,,,,,4,,70,49
64525,note_on,35,0,1,,,,,,,,,0,,62,0
64547,note_on,22,0,1,,,,,,,,,0,,62,92
64550,note_on,50,0,5,,,,,,,,,4,,70,0
64560,note_on,10,0,5,,,,,,,,,4,,72,49
64570,note_on,23,0,1,,,,,,,,,0,,60,0
64595,note_on,25,0,1,,,,,,,,,0,,60,92
64610,note_on,50,0,5,,,,,,,,,4,,72,0
64620,note_on,10,0,5,,,,,,,,,4,,70,49
64627,note_on,32,0,1,,,,,,,,,0,,62,0
64650,note_on,23,0,1,,,,,,,,,0,,62,92
64670,note_on,50,0,5,,,,,,,,,4,,70,0
64680,note_on,10,0,5,,,,,,,,,4,,69,49
64695,note_on,45,0,1,,,,,,,,,0,,60,0
64715,note_on,20,0,1,,,,,,,,,0,,60,92
64730,note_on,15,0,1,,,,,,,,,0,,62,0
64730,note_on,50,0,5,,,,,,,,,4,,69,0
64740,note_on,2820,0,2,,,,,,,,,1,,84,0
64740,note_on,420,0,6,,,,,,,,,5,,64,0
64740,note_on,10,0,5,,,,,,,,,4,,70,49
64740,note_on,420,0,8,,,,,,,,,7,,48,0
64740,note_on,420,0,9,,,,,,,,,8,,36,0
64790,note_on,50,0,5,,,,,,,,,4,,70,0
64800,note_on,60,0,8,,,,,,,,,7,,53,64
64800,note_on,60,0,6,,,,,,,,,5,,65,64
64800,note_on,60,0,9,,,,,,,,,8,,41,64
64800,note_on,10,0,5,,,,,,,,,4,,69,49
65000,note_on,270,0,1,,,,,,,,,0,,60,0
65007,note_on,207,0,8,,,,,,,,,7,,53,0
65007,note_on,207,0,9,,,,,,,,,8,,41,0
65007,note_on,207,0,5,,,,,,,,,4,,69,0
65007,note_on,207,0,6,,,,,,,,,5,,65,0
65040,note_on,40,0,1,,,,,,,,,0,,62,101
65130,note_on,90,0,1,,,,,,,,,0,,62,0
65160,note_on,30,0,1,,,,,,,,,0,,64,108
65250,note_on,90,0,1,,,,,,,,,0,,64,0
65280,note_on,30,0,1,,,,,,,,,0,,65,115
65280,note_on,273,0,5,,,,,,,,,4,,72,49
65280,note_on,273,0,6,,,,,,,,,5,,65,64
65280,note_on,273,0,9,,,,,,,,,8,,45,64
65280,note_on,273,0,8,,,,,,,,,7,,57,64
65400,note_on,120,0,1,,,,,,,,,0,,64,118
65432,note_on,32,0,1,,,,,,,,,0,,65,0
65487,note_on,207,0,6,,,,,,,,,5,,65,0
65487,note_on,207,0,8,,,,,,,,,7,,57,0
65487,note_on,207,0,9,,,,,,,,,8,,45,0
65487,note_on,207,0,5,,,,,,,,,4,,72,0
65490,note_on,58,0,1,,,,,,,,,0,,64,0
65520,note_on,30,0,1,,,,,,,,,0,,62,118
65610,note_on,90,0,1,,,,,,,,,0,,62,0
65640,note_on,30,0,1,,,,,,,,,0,,60,116
65730,note_on,90,0,1,,,,,,,,,0,,60,0
65760,note_on,273,0,9,,,,,,,,,8,,33,64
65760,note_on,273,0,8,,,,,,,,,7,,45,64
65760,note_on,273,0,6,,,,,,,,,5,,60,64
65760,note_on,30,0,1,,,,,,,,,0,,58,111
65760,note_on,273,0,5,,,,,,,,,4,,77,49
65850,note_on,90,0,1,,,,,,,,,0,,58,0
65880,note_on,30,0,1,,,,,,,,,0,,57,109
65967,note_on,207,0,6,,,,,,,,,5,,60,0
65967,note_on,207,0,9,,,,,,,,,8,,33,0
65967,note_on,207,0,5,,,,,,,,,4,,77,0
65967,note_on,207,0,8,,,,,,,,,7,,45,0
65970,note_on,90,0,1,,,,,,,,,0,,57,0
66000,note_on,30,0,1,,,,,,,,,0,,55,107
66090,note_on,90,0,1,,,,,,,,,0,,55,0
66120,note_on,30,0,1,,,,,,,,,0,,53,106
66210,note_on,90,0,1,,,,,,,,,0,,53,0
66240,note_on,273,0,6,,,,,,,,,5,,62,64
66240,note_on,273,0,9,,,,,,,,,8,,34,64
66240,note_on,273,0,5,,,,,,,,,4,,67,49
66240,note_on,30,0,1,,,,,,,,,0,,55,104
66240,note_on,6780,0,7,,,,,,,,,6,,58,64
66240,note_on,273,0,8,,,,,,,,,7,,46,64
66360,note_on,120,0,1,,,,,,,,,0,,54,102
66407,note_on,47,0,1,,,,,,,,,0,,55,0
66450,note_on,43,0,1,,,,,,,,,0,,54,0
66480,note_on,30,0,1,,,,,,,,,0,,55,101
66570,note_on,90,0,1,,,,,,,,,0,,55,0
66600,note_on,30,0,1,,,,,,,,,0,,57,101
66660,note_on,420,0,5,,,,,,,,,4,,67,0
66690,note_on,90,0,1,,,,,,,,,0,,57,0
66720,note_on,60,0,5,,,,,,,,,4,,70,49
66720,note_on,30,0,1,,,,,,,,,0,,58,101
66840,note_on,120,0,1,,,,,,,,,0,,57,101
66880,note_on,40,0,1,,,,,,,,,0,,58,0
66930,note_on,50,0,1,,,,,,,,,0,,57,0
66960,note_on,30,0,1,,,,,,,,,0,,58,99
67050,note_on,90,0,1,,,,,,,,,0,,58,0
67080,note_on,30,0,1,,,,,,,,,0,,60,99
67140,note_on,420,0,5,,,,,,,,,4,,70,0
67140,note_on,900,0,6,,,,,,,,,5,,62,0
67140,note_on,900,0,7,,,,,,,,,6,,58,0
67170,note_on,90,0,1,,,,,,,,,0,,60,0
67200,note_on,60,0,5,,,,,,,,,4,,74,49
67200,note_on,30,0,1,,,,,,,,,0,,62,97
67200,note_on,60,0,7,,,,,,,,,6,,55,64
67200,note_on,60,0,6,,,,,,,,,5,,64,64
67405,note_on,205,0,1,,,,,,,,,0,,62,0
67560,note_on,155,0,1,,,,,,,,,0,,62,102
67620,note_on,420,0,5,,,,,,,,,4,,74,0
67620,note_on,1380,0,8,,,,,,,,,7,,46,0
67620,note_on,420,0,6,,,,,,,,,5,,64,0
67620,note_on,1380,0,9,,,,,,,,,8,,34,0
67620,note_on,420,0,7,,,,,,,,,6,,55,0
67680,note_on,60,0,8,,,,,,,,,7,,45,64
67680,note_on,60,0,6,,,,,,,,,5,,65,64
67680,note_on,60,0,7,,,,,,,,,6,,57,64
67680,note_on,0,0,1,,,,,,,,,0,,60,100
67680,note_on,120,0,1,,,,,,,,,0,,62,0
67680,note_on,60,0,9,,,,,,,,,8,,33,64
67680,note_on,60,0,5,,,,,,,,,4,,72,49
67990,note_on,310,0,5,,,,,,,,,4,,72,0
67990,note_on,310,0,9,,,,,,,,,8,,33,0
67990,note_on,310,0,7,,,,,,,,,6,,57,0
67990,note_on,310,0,8,,,,,,,,,7,,45,0
68040,note_on,50,0,5,,,,,,,,,4,,74,49
68040,note_on,360,0,1,,,,,,,,,0,,62,106
68040,note_on,50,0,9,,,,,,,,,8,,34,64
68040,note_on,50,0,7,,,,,,,,,6,,58,64
68040,note_on,50,0,8,,,,,,,,,7,,46,64
68095,note_on,55,0,1,,,,,,,,,0,,60,0
68100,note_on,420,0,6,,,,,,,,,5,,65,0
68142,note_on,102,0,9,,,,,,,,,8,,34,0
68142,note_on,102,0,7,,,,,,,,,6,,58,0
68142,note_on,102,0,5,,,,,,,,,4,,74,0
68142,note_on,102,0,8,,,,,,,,,7,,46,0
68160,note_on,18,0,5,,,,,,,,,4,,65,49
68160,note_on,18,0,7,,,,,,,,,6,,60,64
68160,note_on,18,0,8,,,,,,,,,7,,48,64
68160,note_on,60,0,6,,,,,,,,,5,,57,64
68160,note_on,0,0,1,,,,,,,,,0,,53,105
68160,note_on,65,0,1,,,,,,,,,0,,62,0
68160,note_on,18,0,9,,,,,,,,,8,,36,64
68580,note_on,420,0,8,,,,,,,,,7,,48,0
68580,note_on,420,0,5,,,,,,,,,4,,65,0
68580,note_on,420,0,6,,,,,,,,,5,,57,0
68580,note_on,420,0,9,,,,,,,,,8,,36,0
68640,note_on,60,0,5,,,,,,,,,4,,64,49
68640,note_on,480,0,1,,,,,,,,,0,,52,107
68640,note_on,60,0,9,,,,,,,,,8,,34,64
68640,note_on,60,0,8,,,,,,,,,7,,46,64
68640,note_on,60,0,6,,,,,,,,,5,,55,64
68702,note_on,62,0,1,,,,,,,,,0,,53,0
69007,note_on,305,0,1,,,,,,,,,0,,52,0
69060,note_on,420,0,9,,,,,,,,,8,,34,0
69060,note_on,420,0,5,,,,,,,,,4,,64,0
69060,note_on,900,0,7,,,,,,,,,6,,60,0
69060,note_on,420,0,8,,,,,,,,,7,,46,0
69060,note_on,420,0,6,,,,,,,,,5,,55,0
69120,note_on,60,0,7,,,,,,,,,6,,60,64
69120,note_on,60,0,8,,,,,,,,,7,,45,64
69120,note_on,113,0,1,,,,,,,,,0,,60,107
69120,note_on,60,0,9,,,,,,,,,8,,33,64
69120,note_on,60,0,5,,,,,,,,,4,,72,49
69120,note_on,60,0,6,,,,,,,,,5,,65,64
69320,note_on,200,0,1,,,,,,,,,0,,60,0
69327,note_on,207,0,8,,,,,,,,,7,,45,0
69327,note_on,207,0,9,,,,,,,,,8,,33,0
69327,note_on,207,0,5,,,,,,,,,4,,72,0
69327,note_on,207,0,6,,,,,,,,,5,,65,0
69360,note_on,40,0,1,,,,,,,,,0,,62,96
69440,note_on,80,0,1,,,,,,,,,0,,62,0
69480,note_on,40,0,1,,,,,,,,,0,,64,98
69540,note_on,420,0,7,,,,,,,,,6,,60,0
69560,note_on,80,0,1,,,,,,,,,0,,64,0
69600,note_on,273,0,9,,,,,,,,,8,,45,64
69600,note_on,273,0,5,,,,,,,,,4,,77,49
69600,note_on,273,0,6,,,,,,,,,5,,72,64
69600,note_on,273,0,8,,,,,,,,,7,,57,64
69600,note_on,40,0,1,,,,,,,,,0,,65,102
69720,note_on,120,0,1,,,,,,,,,0,,64,104
69782,note_on,62,0,1,,,,,,,,,0,,65,0
69807,note_on,207,0,8,,,,,,,,,7,,57,0
69807,note_on,207,0,6,,,,,,,,,5,,72,0
69807,note_on,207,0,9,,,,,,,,,8,,45,0
69807,note_on,207,0,5,,,,,,,,,4,,77,0
69840,note_on,0,0,1,,,,,,,,,0,,62,104
69840,note_on,58,0,1,,,,,,,,,0,,64,0
69935,note_on,95,0,1,,,,,,,,,0,,62,0
69960,note_on,25,0,1,,,,,,,,,0,,60,105
70055,note_on,95,0,1,,,,,,,,,0,,60,0
70080,note_on,25,0,1,,,,,,,,,0,,58,107
70080,note_on,273,0,8,,,,,,,,,7,,45,64
70080,note_on,273,0,9,,,,,,,,,8,,33,64
70080,note_on,273,0,5,,,,,,,,,4,,77,49
70080,note_on,273,0,6,,,,,,,,,5,,60,64
70175,note_on,95,0,1,,,,,,,,,0,,58,0
70200,note_on,25,0,1,,,,,,,,,0,,57,109
70287,note_on,207,0,6,,,,,,,,,5,,60,0
70287,note_on,207,0,8,,,,,,,,,7,,45,0
70287,note_on,207,0,9,,,,,,,,,8,,33,0
70287,note_on,207,0,5,,,,,,,,,4,,77,0
70295,note_on,95,0,1,,,,,,,,,0,,57,0
70320,note_on,25,0,1,,,,,,,,,0,,55,109
70415,note_on,95,0,1,,,,,,,,,0,,55,0
70440,note_on,25,0,1,,,,,,,,,0,,53,108
70535,note_on,95,0,1,,,,,,,,,0,,53,0
70560,note_on,273,0,6,,,,,,,,,5,,62,64
70560,note_on,273,0,9,,,,,,,,,8,,34,64
70560,note_on,273,0,5,,,,,,,,,4,,67,49
70560,note_on,25,0,1,,,,,,,,,0,,55,106
70560,note_on,1020,0,7,,,,,,,,,6,,58,64
70560,note_on,273,0,8,,,,,,,,,7,,46,64
70680,note_on,120,0,1,,,,,,,,,0,,54,106
70720,note_on,40,0,1,,,,,,,,,0,,55,0
70775,note_on,55,0,1,,,,,,,,,0,,54,0
70800,note_on,25,0,1,,,,,,,,,0,,55,105
70895,note_on,95,0,1,,,,,,,,,0,,55,0
70920,note_on,25,0,1,,,,,,,,,0,,57,103
70980,note_on,420,0,5,,,,,,,,,4,,67,0
70980,note_on,420,0,6,,,,,,,,,5,,62,0
71015,note_on,95,0,1,,,,,,,,,0,,57,0
71040,note_on,60,0,5,,,,,,,,,4,,70,49
71040,note_on,60,0,6,,,,,,,,,5,,58,64
71040,note_on,25,0,1,,,,,,,,,0,,58,103
71160,note_on,120,0,1,,,,,,,,,0,,57,101
71185,note_on,25,0,1,,,,,,,,,0,,58,0
71255,note_on,70,0,1,,,,,,,,,0,,57,0
71280,note_on,25,0,1,,,,,,,,,0,,58,100
71375,note_on,95,0,1,,,,,,,,,0,,58,0
71400,note_on,25,0,1,,,,,,,,,0,,60,100
71460,note_on,420,0,6,,,,,,,,,5,,58,0
71460,note_on,420,0,5,,,,,,,,,4,,70,0
71495,note_on,95,0,1,,,,,,,,,0,,60,0
71520,note_on,60,0,5,,,,,,,,,4,,74,49
71520,note_on,25,0,1,,,,,,,,,0,,62,98
71520,note_on,60,0,6,,,,,,,,,5,,55,64
71760,note_on,240,0,1,,,,,,,,,0,,62,0
71940,note_on,1380,0,8,,,,,,,,,7,,46,0
71940,note_on,1380,0,9,,,,,,,,,8,,34,0
71940,note_on,420,0,6,,,,,,,,,5,,55,0
71940,note_on,420,0,5,,,,,,,,,4,,74,0
71940,note_on,1380,0,7,,,,,,,,,6,,58,0
72000,note_on,240,0,1,,,,,,,,,0,,55,108
72120,note_on,120,0,1,,,,,,,,,0,,54,112
72160,note_on,40,0,1,,,,,,,,,0,,55,0
72195,note_on,35,0,1,,,,,,,,,0,,54,0
72240,note_on,45,0,1,,,,,,,,,0,,55,114
72315,note_on,75,0,1,,,,,,,,,0,,55,0
72360,note_on,45,0,1,,,,,,,,,0,,57,116
72435,note_on,75,0,1,,,,,,,,,0,,57,0
72480,note_on,45,0,1,,,,,,,,,0,,58,116
72600,note_on,120,0,1,,,,,,,,,0,,57,114
72625,note_on,25,0,1,,,,,,,,,0,,58,0
72675,note_on,50,0,1,,,,,,,,,0,,57,0
72720,note_on,45,0,1,,,,,,,,,0,,58,113
72795,note_on,75,0,1,,,,,,,,,0,,58,0
72840,note_on,45,0,1,,,,,,,,,0,,60,109
72915,note_on,75,0,1,,,,,,,,,0,,60,0
72960,note_on,45,0,1,,,,,,,,,0,,62,107
73145,note_on,185,0,1,,,,,,,,,0,,62,0
73320,note_on,1380,0,9,,,,,,,,,8,,34,64
73320,note_on,175,0,1,,,,,,,,,0,,62,115
73320,note_on,1380,0,7,,,,,,,,,6,,55,64
73320,note_on,1380,0,6,,,,,,,,,5,,64,64
73320,note_on,1380,0,5,,,,,,,,,4,,74,49
73320,note_on,1380,0,8,,,,,,,,,7,,46,64
73422,note_on,102,0,9,,,,,,,,,8,,34,0
73422,note_on,102,0,8,,,,,,,,,7,,46,0
73422,note_on,102,0,6,,,,,,,,,5,,64,0
73422,note_on,102,0,5,,,,,,,,,4,,74,0
73422,note_on,102,0,7,,,,,,,,,6,,55,0
73440,note_on,120,0,1,,,,,,,,,0,,62,0
73440,note_on,0,0,1,,,,,,,,,0,,60,113
73440,note_on,18,0,6,,,,,,,,,5,,65,64
73440,note_on,18,0,7,,,,,,,,,6,,57,64
73440,note_on,18,0,8,,,,,,,,,7,,45,64
73440,note_on,18,0,5,,,,,,,,,4,,72,49
73440,note_on,18,0,9,,,,,,,,,8,,33,64
73750,note_on,310,0,7,,,,,,,,,6,,57,0
73750,note_on,310,0,8,,,,,,,,,7,,45,0
73750,note_on,310,0,5,,,,,,,,,4,,72,0
73750,note_on,310,0,9,,,,,,,,,8,,33,0
73800,note_on,0,0,1,,,,,,,,,0,,62,113
73800,note_on,50,0,7,,,,,,,,,6,,58,64
73800,note_on,360,0,1,,,,,,,,,0,,60,0
73800,note_on,50,0,8,,,,,,,,,7,,46,64
73800,note_on,50,0,5,,,,,,,,,4,,74,49
73800,note_on,50,0,9,,,,,,,,,8,,34,64
73860,note_on,420,0,6,,,,,,,,,5,,65,0
73902,note_on,102,0,9,,,,,,,,,8,,34,0
73902,note_on,102,0,5,,,,,,,,,4,,74,0
73902,note_on,102,0,8,,,,,,,,,7,,46,0
73902,note_on,102,0,7,,,,,,,,,6,,58,0
73920,note_on,120,0,1,,,,,,,,,0,,62,0
73920,note_on,18,0,9,,,,,,,,,8,,36,64
73920,note_on,18,0,7,,,,,,,,,6,,60,64
73920,note_on,18,0,5,,,,,,,,,4,,65,49
73920,note_on,0,0,1,,,,,,,,,0,,53,113
73920,note_on,18,0,8,,,,,,,,,7,,48,64
73920,note_on,60,0,6,,,,,,,,,5,,57,64
74340,note_on,420,0,5,,,,,,,,,4,,65,0
74340,note_on,420,0,7,,,,,,,,,6,,60,0
74340,note_on,420,0,8,,,,,,,,,7,,48,0
74340,note_on,420,0,9,,,,,,,,,8,,36,0
74340,note_on,420,0,6,,,,,,,,,5,,57,0
74400,note_on,60,0,7,,,,,,,,,6,,55,64
74400,note_on,60,0,8,,,,,,,,,7,,48,64
74400,note_on,60,0,5,,,,,,,,,4,,64,49
74400,note_on,480,0,1,,,,,,,,,0,,53,0
74400,note_on,60,0,9,,,,,,,,,8,,36,64
74400,note_on,60,0,6,,,,,,,,,5,,58,64
74400,note_on,0,0,1,,,,,,,,,0,,52,113
74780,note_on,380,0,1,,,,,,,,,0,,52,0
74820,note_on,420,0,9,,,,,,,,,8,,36,0
74820,note_on,420,0,7,,,,,,,,,6,,55,0
74820,note_on,420,0,8,,,,,,,,,7,,48,0
74820,note_on,420,0,6,,,,,,,,,5,,58,0
74820,note_on,420,0,5,,,,,,,,,4,,64,0
74880,note_on,60,0,9,,,,,,,,,8,,41,64
74880,note_on,60,0,7,,,,,,,,,6,,55,64
74880,note_on,60,0,8,,,,,,,,,7,,53,64
74880,note_on,60,0,6,,,,,,,,,5,,58,64
74880,note_on,100,0,1,,,,,,,,,0,,52,117
74880,note_on,60,0,5,,,,,,,,,4,,64,49
75300,note_on,420,0,5,,,,,,,,,4,,64,0
75300,note_on,420,0,6,,,,,,,,,5,,58,0
75300,note_on,420,0,7,,,,,,,,,6,,55,0
75360,note_on,60,0,5,,,,,,,,,4,,65,49
75360,note_on,480,0,1,,,,,,,,,0,,53,115
75360,note_on,60,0,6,,,,,,,,,5,,57,64
75360,note_on,60,0,7,,,,,,,,,6,,53,64
75405,note_on,45,0,1,,,,,,,,,0,,52,0
75670,note_on,310,0,6,,,,,,,,,5,,57,0
75670,note_on,310,0,7,,,,,,,,,6,,53,0
75670,note_on,790,0,8,,,,,,,,,7,,53,0
75670,note_on,310,0,5,,,,,,,,,4,,65,0
75670,note_on,790,0,9,,,,,,,,,8,,41,0
75720,note_on,50,0,8,,,,,,,,,7,,55,64
75720,note_on,50,0,5,,,,,,,,,4,,67,49
75720,note_on,50,0,7,,,,,,,,,6,,55,64
75720,note_on,50,0,9,,,,,,,,,8,,43,64
75720,note_on,50,0,6,,,,,,,,,5,,67,64
75822,note_on,102,0,6,,,,,,,,,5,,67,0
75822,note_on,102,0,5,,,,,,,,,4,,67,0
75822,note_on,102,0,7,,,,,,,,,6,,55,0
75822,note_on,102,0,8,,,,,,,,,7,,55,0
75822,note_on,102,0,9,,,,,,,,,8,,43,0
75840,note_on,18,0,9,,,,,,,,,8,,45,64
75840,note_on,18,0,7,,,,,,,,,6,,57,64
75840,note_on,435,0,1,,,,,,,,,0,,53,0
75840,note_on,18,0,6,,,,,,,,,5,,69,64
75840,note_on,18,0,5,,,,,,,,,4,,69,49
75840,note_on,18,0,8,,,,,,,,,7,,57,64
75890,note_on,50,0,6,,,,,,,,,5,,69,0
75890,note_on,50,0,7,,,,,,,,,6,,57,0
75890,note_on,50,0,9,,,,,,,,,8,,45,0
75890,note_on,50,0,8,,,,,,,,,7,,57,0
75890,note_on,50,0,5,,,,,,,,,4,,69,0
75900,note_on,10,0,9,,,,,,,,,8,,43,64
75900,note_on,10,0,7,,,,,,,,,6,,55,64
75900,note_on,10,0,6,,,,,,,,,5,,67,64
75900,note_on,10,0,5,,,,,,,,,4,,67,49
75900,note_on,10,0,8,,,,,,,,,7,,55,64
75950,note_on,50,0,5,,,,,,,,,4,,67,0
75950,note_on,50,0,7,,,,,,,,,6,,55,0
75950,note_on,50,0,8,,,,,,,,,7,,55,0
75950,note_on,50,0,6,,,,,,,,,5,,67,0
75950,note_on,50,0,9,,,,,,,,,8,,43,0
75960,note_on,10,0,5,,,,,,,,,4,,69,49
75960,note_on,10,0,9,,,,,,,,,8,,45,64
75960,note_on,10,0,7,,,,,,,,,6,,57,64
75960,note_on,10,0,6,,,,,,,,,5,,69,64
75960,note_on,10,0,8,,,,,,,,,7,,57,64
76010,note_on,50,0,9,,,,,,,,,8,,45,0
76010,note_on,50,0,6,,,,,,,,,5,,69,0
76010,note_on,50,0,7,,,,,,,,,6,,57,0
76010,note_on,50,0,5,,,,,,,,,4,,69,0
76010,note_on,50,0,8,,,,,,,,,7,,57,0
76020,note_on,10,0,9,,,,,,,,,8,,43,64
76020,note_on,10,0,5,,,,,,,,,4,,67,49
76020,note_on,10,0,6,,,,,,,,,5,,67,64
76020,note_on,10,0,7,,,,,,,,,6,,55,64
76020,note_on,10,0,8,,,,,,,,,7,,55,64
76070,note_on,50,0,5,,,,,,,,,4,,67,0
76070,note_on,50,0,7,,,,,,,,,6,,55,0
76070,note_on,50,0,8,,,,,,,,,7,,55,0
76070,note_on,50,0,6,,,,,,,,,5,,67,0
76070,note_on,50,0,9,,,,,,,,,8,,43,0
76080,note_on,10,0,8,,,,,,,,,7,,57,64
76080,note_on,10,0,6,,,,,,,,,5,,69,64
76080,note_on,10,0,7,,,,,,,,,6,,57,64
76080,note_on,10,0,9,,,,,,,,,8,,45,64
76080,note_on,10,0,5,,,,,,,,,4,,69,49
76130,note_on,50,0,8,,,,,,,,,7,,57,0
76130,note_on,50,0,5,,,,,,,,,4,,69,0
76130,note_on,50,0,7,,,,,,,,,6,,57,0
76130,note_on,50,0,6,,,,,,,,,5,,69,0
76130,note_on,50,0,9,,,,,,,,,8,,45,0
76140,note_on,10,0,5,,,,,,,,,4,,67,49
76140,note_on,10,0,7,,,,,,,,,6,,55,64
76140,note_on,10,0,9,,,,,,,,,8,,43,64
76140,note_on,10,0,6,,,,,,,,,5,,67,64
76140,note_on,10,0,8,,,,,,,,,7,,55,64
76190,note_on,50,0,9,,,,,,,,,8,,43,0
76190,note_on,50,0,6,,,,,,,,,5,,67,0
76190,note_on,50,0,8,,,,,,,,,7,,55,0
76190,note_on,50,0,7,,,,,,,,,6,,55,0
76190,note_on,50,0,5,,,,,,,,,4,,67,0
76200,note_on,10,0,6,,,,,,,,,5,,65,64
76200,note_on,10,0,8,,,,,,,,,7,,53,64
76200,note_on,10,0,5,,,,,,,,,4,,65,49
76200,note_on,10,0,9,,,,,,,,,8,,41,64
76200,note_on,10,0,7,,,,,,,,,6,,53,64
76250,note_on,50,0,6,,,,,,,,,5,,65,0
76250,note_on,50,0,9,,,,,,,,,8,,41,0
76250,note_on,50,0,5,,,,,,,,,4,,65,0
76250,note_on,50,0,7,,,,,,,,,6,,53,0
76250,note_on,50,0,8,,,,,,,,,7,,53,0
76260,note_on,10,0,5,,,,,,,,,4,,67,49
76260,note_on,10,0,7,,,,,,,,,6,,55,64
76260,note_on,10,0,8,,,,,,,,,7,,55,64
76260,note_on,10,0,9,,,,,,,,,8,,43,64
76260,note_on,10,0,6,,,,,,,,,5,,67,64
76310,note_on,50,0,7,,,,,,,,,6,,55,0
76310,note_on,50,0,5,,,,,,,,,4,,67,0
76310,note_on,50,0,9,,,,,,,,,8,,43,0
76310,note_on,50,0,8,,,,,,,,,7,,55,0
76310,note_on,50,0,6,,,,,,,,,5,,67,0
76320,note_on,10,0,7,,,,,,,,,6,,56,64
76320,note_on,10,0,5,,,,,,,,,4,,68,49
76320,note_on,10,0,9,,,,,,,,,8,,44,64
76320,note_on,10,0,8,,,,,,,,,7,,56,64
76320,note_on,10,0,6,,,,,,,,,5,,68,64
76320,note_on,480,0,1,,,,,,,,,0,,53,109
76480,note_on,160,0,1,,,,,,,,,0,,65,111
76525,note_on,45,0,1,,,,,,,,,0,,53,0
76590,note_on,65,0,1,,,,,,,,,0,,65,0
76640,note_on,50,0,1,,,,,,,,,0,,65,112
76740,note_on,420,0,9,,,,,,,,,8,,44,0
76740,note_on,420,0,6,,,,,,,,,5,,68,0
76740,note_on,420,0,8,,,,,,,,,7,,56,0
76740,note_on,420,0,7,,,,,,,,,6,,56,0
76740,note_on,420,0,5,,,,,,,,,4,,68,0
76750,note_on,110,0,1,,,,,,,,,0,,65,0
76800,note_on,50,0,1,,,,,,,,,0,,65,112
76800,note_on,60,0,5,,,,,,,,,4,,72,49
76887,note_on,87,0,1,,,,,,,,,0,,65,0
76960,note_on,73,0,1,,,,,,,,,0,,67,116
77047,note_on,87,0,1,,,,,,,,,0,,67,0
77120,note_on,73,0,1,,,,,,,,,0,,65,119
77207,note_on,87,0,1,,,,,,,,,0,,65,0
77220,note_on,420,0,5,,,,,,,,,4,,72,0
77280,note_on,540,0,8,,,,,,,,,7,,56,64
77280,note_on,60,0,5,,,,,,,,,4,,77,49
77280,note_on,73,0,1,,,,,,,,,0,,63,115
77280,note_on,540,0,9,,,,,,,,,8,,44,64
77280,note_on,540,0,6,,,,,,,,,5,,72,64
77280,note_on,540,0,7,,,,,,,,,6,,60,64
77367,note_on,87,0,1,,,,,,,,,0,,63,0
77440,note_on,73,0,1,,,,,,,,,0,,62,115
77527,note_on,87,0,1,,,,,,,,,0,,62,0
77600,note_on,73,0,1,,,,,,,,,0,,60,114
77687,note_on,87,0,1,,,,,,,,,0,,60,0
77700,note_on,420,0,7,,,,,,,,,6,,60,0
77700,note_on,420,0,8,,,,,,,,,7,,56,0
77700,note_on,420,0,9,,,,,,,,,8,,44,0
77700,note_on,420,0,6,,,,,,,,,5,,72,0
77760,note_on,60,0,8,,,,,,,,,7,,55,64
77760,note_on,60,0,6,,,,,,,,,5,,71,64
77760,note_on,60,0,7,,,,,,,,,6,,62,64
77760,note_on,60,0,9,,,,,,,,,8,,43,64
77760,note_on,73,0,1,,,,,,,,,0,,59,114
77920,note_on,160,0,1,,,,,,,,,0,,55,114
77972,note_on,52,0,1,,,,,,,,,0,,59,0
78052,note_on,80,0,1,,,,,,,,,0,,55,0
78080,note_on,28,0,1,,,,,,,,,0,,55,113
78180,note_on,420,0,7,,,,,,,,,6,,62,0
78180,note_on,900,0,5,,,,,,,,,4,,77,0
78180,note_on,420,0,8,,,,,,,,,7,,55,0
78180,note_on,420,0,6,,,,,,,,,5,,71,0
78180,note_on,420,0,9,,,,,,,,,8,,43,0
78197,note_on,117,0,1,,,,,,,,,0,,55,0
78240,note_on,43,0,1,,,,,,,,,0,,55,113
78240,note_on,60,0,5,,,,,,,,,4,,74,49
78320,note_on,80,0,1,,,,,,,,,0,,55,0
78400,note_on,80,0,1,,,,,,,,,0,,56,113
78480,note_on,80,0,1,,,,,,,,,0,,56,0
78560,note_on,80,0,1,,,,,,,,,0,,55,113
78647,note_on,87,0,1,,,,,,,,,0,,55,0
78660,note_on,420,0,5,,,,,,,,,4,,74,0
78720,note_on,60,0,5,,,,,,,,,4,,79,49
78720,note_on,73,0,1,,,,,,,,,0,,53,113
78720,note_on,540,0,9,,,,,,,,,8,,47,64
78720,note_on,540,0,8,,,,,,,,,7,,59,64
78720,note_on,540,0,7,,,,,,,,,6,,62,64
78720,note_on,540,0,6,,,,,,,,,5,,65,64
78807,note_on,87,0,1,,,,,,,,,0,,53,0
78880,note_on,73,0,1,,,,,,,,,0,,51,113
78967,note_on,87,0,1,,,,,,,,,0,,51,0
79040,note_on,73,0,1,,,,,,,,,0,,50,113
79127,note_on,87,0,1,,,,,,,,,0,,50,0
79140,note_on,420,0,7,,,,,,,,,6,,62,0
79140,note_on,420,0,9,,,,,,,,,8,,47,0
79140,note_on,420,0,8,,,,,,,,,7,,59,0
79140,note_on,420,0,6,,,,,,,,,5,,65,0
79200,note_on,60,0,6,,,,,,,,,5,,63,64
79200,note_on,73,0,1,,,,,,,,,0,,48,113
79200,note_on,60,0,7,,,,,,,,,6,,60,64
79200,note_on,60,0,9,,,,,,,,,8,,48,64
79200,note_on,60,0,8,,,,,,,,,7,,60,64
79360,note_on,160,0,1,,,,,,,,,0,,48,0
79360,note_on,0,0,1,,,,,,,,,0,,63,113
79485,note_on,125,0,1,,,,,,,,,0,,63,0
79520,note_on,35,0,1,,,,,,,,,0,,63,112
79620,note_on,420,0,7,,,,,,,,,6,,60,0
79620,note_on,420,0,8,,,,,,,,,7,,60,0
79620,note_on,420,0,9,,,,,,,,,8,,48,0
79620,note_on,900,0,5,,,,,,,,,4,,79,0
79620,note_on,100,0,1,,,,,,,,,0,,63,0
79620,note_on,420,0,6,,,,,,,,,5,,63,0
79680,note_on,60,0,1,,,,,,,,,0,,63,112
79680,note_on,60,0,5,,,,,,,,,4,,72,49
79780,note_on,100,0,1,,,,,,,,,0,,63,0
79840,note_on,60,0,1,,,,,,,,,0,,65,110
79927,note_on,87,0,1,,,,,,,,,0,,65,0
80000,note_on,73,0,1,,,,,,,,,0,,63,108
80087,note_on,87,0,1,,,,,,,,,0,,63,0
80100,note_on,420,0,5,,,,,,,,,4,,72,0
80160,note_on,540,0,9,,,,,,,,,8,,42,64
80160,note_on,60,0,5,,,,,,,,,4,,75,49
80160,note_on,540,0,8,,,,,,,,,7,,54,64
80160,note_on,540,0,6,,,,,,,,,5,,70,64
80160,note_on,73,0,1,,,,,,,,,0,,62,107
80160,note_on,540,0,7,,,,,,,,,6,,58,64
80247,note_on,87,0,1,,,,,,,,,0,,62,0
80320,note_on,73,0,1,,,,,,,,,0,,60,107
80407,note_on,87,0,1,,,,,,,,,0,,60,0
80480,note_on,73,0,1,,,,,,,,,0,,58,107
80567,note_on,87,0,1,,,,,,,,,0,,58,0
80580,note_on,420,0,8,,,,,,,,,7,,54,0
80580,note_on,420,0,9,,,,,,,,,8,,42,0
80580,note_on,420,0,6,,,,,,,,,5,,70,0
80580,note_on,420,0,7,,,,,,,,,6,,58,0
80640,note_on,60,0,9,,,,,,,,,8,,41,64
80640,note_on,73,0,1,,,,,,,,,0,,57,107
80640,note_on,60,0,7,,,,,,,,,6,,60,64
80640,note_on,60,0,8,,,,,,,,,7,,53,64
80640,note_on,60,0,6,,,,,,,,,5,,69,64
80800,note_on,160,0,1,,,,,,,,,0,,53,107
80837,note_on,37,0,1,,,,,,,,,0,,57,0
80910,note_on,73,0,1,,,,,,,,,0,,53,0
80960,note_on,50,0,1,,,,,,,,,0,,53,107
81060,note_on,420,0,6,,,,,,,,,5,,69,0
81060,note_on,420,0,8,,,,,,,,,7,,53,0
81060,note_on,420,0,7,,,,,,,,,6,,60,0
81060,note_on,420,0,9,,,,,,,,,8,,41,0
81060,note_on,900,0,5,,,,,,,,,4,,75,0
81077,note_on,117,0,1,,,,,,,,,0,,53,0
81120,note_on,43,0,1,,,,,,,,,0,,53,107
81120,note_on,60,0,5,,,,,,,,,4,,72,49
81200,note_on,80,0,1,,,,,,,,,0,,53,0
81280,note_on,80,0,1,,,,,,,,,0,,55,107
81367,note_on,87,0,1,,,,,,,,,0,,55,0
81440,note_on,73,0,1,,,,,,,,,0,,53,107
81527,note_on,87,0,1,,,,,,,,,0,,53,0
81540,note_on,420,0,5,,,,,,,,,4,,72,0
81600,note_on,73,0,1,,,,,,,,,0,,51,109
81600,note_on,540,0,8,,,,,,,,,7,,57,64
81600,note_on,540,0,9,,,,,,,,,8,,45,64
81600,note_on,540,0,7,,,,,,,,,6,,60,64
81600,note_on,60,0,5,,,,,,,,,4,,77,49
81600,note_on,540,0,6,,,,,,,,,5,,63,64
81687,note_on,87,0,1,,,,,,,,,0,,51,0
81760,note_on,73,0,1,,,,,,,,,0,,50,112
81847,note_on,87,0,1,,,,,,,,,0,,50,0
81920,note_on,73,0,1,,,,,,,,,0,,48,114
82007,note_on,87,0,1,,,,,,,,,0,,48,0
82020,note_on,420,0,7,,,,,,,,,6,,60,0
82020,note_on,420,0,9,,,,,,,,,8,,45,0
82020,note_on,420,0,6,,,,,,,,,5,,63,0
82020,note_on,420,0,8,,,,,,,,,7,,57,0
82080,note_on,60,0,8,,,,,,,,,7,,58,64
82080,note_on,73,0,1,,,,,,,,,0,,46,114
82080,note_on,60,0,6,,,,,,,,,5,,62,64
82080,note_on,60,0,9,,,,,,,,,8,,46,64
82080,note_on,60,0,7,,,,,,,,,6,,58,64
82240,note_on,160,0,1,,,,,,,,,0,,50,114
82300,note_on,60,0,1,,,,,,,,,0,,46,0
82400,note_on,0,0,1,,,,,,,,,0,,53,114
82400,note_on,100,0,1,,,,,,,,,0,,50,0
82500,note_on,900,0,5,,,,,,,,,4,,77,0
82500,note_on,420,0,6,,,,,,,,,5,,62,0
82500,note_on,100,0,1,,,,,,,,,0,,53,0
82560,note_on,60,0,1,,,,,,,,,0,,58,114
82560,note_on,60,0,5,,,,,,,,,4,,74,49
82560,note_on,60,0,6,,,,,,,,,5,,65,64
82660,note_on,100,0,1,,,,,,,,,0,,58,0
82720,note_on,60,0,1,,,,,,,,,0,,62,114
82820,note_on,100,0,1,,,,,,,,,0,,62,0
82880,note_on,60,0,1,,,,,,,,,0,,65,113
82980,note_on,900,0,9,,,,,,,,,8,,46,0
82980,note_on,900,0,7,,,,,,,,,6,,58,0
82980,note_on,900,0,8,,,,,,,,,7,,58,0
82980,note_on,420,0,5,,,,,,,,,4,,74,0
82980,note_on,420,0,6,,,,,,,,,5,,65,0
82997,note_on,117,0,1,,,,,,,,,0,,65,0
83040,note_on,60,0,9,,,,,,,,,8,,39,64
83040,note_on,60,0,7,,,,,,,,,6,,58,64
83040,note_on,60,0,6,,,,,,,,,5,,67,64
83040,note_on,60,0,8,,,,,,,,,7,,51,64
83040,note_on,60,0,5,,,,,,,,,4,,75,49
83040,note_on,43,0,1,,,,,,,,,0,,67,113
83200,note_on,160,0,1,,,,,,,,,0,,63,112
83245,note_on,45,0,1,,,,,,,,,0,,67,0
83350,note_on,310,0,6,,,,,,,,,5,,67,0
83350,note_on,310,0,5,,,,,,,,,4,,75,0
83350,note_on,310,0,7,,,,,,,,,6,,58,0
83360,note_on,115,0,1,,,,,,,,,0,,60,110
83390,note_on,30,0,1,,,,,,,,,0,,63,0
83400,note_on,50,0,7,,,,,,,,,6,,67,64
83400,note_on,50,0,5,,,,,,,,,4,,72,49
83400,note_on,50,0,6,,,,,,,,,5,,63,64
83460,note_on,420,0,9,,,,,,,,,8,,39,0
83460,note_on,420,0,8,,,,,,,,,7,,51,0
83470,note_on,80,0,1,,,,,,,,,0,,60,0
83502,note_on,102,0,5,,,,,,,,,4,,72,0
83502,note_on,102,0,6,,,,,,,,,5,,63,0
83502,note_on,102,0,7,,,,,,,,,6,,67,0
83520,note_on,60,0,9,,,,,,,,,8,,41,64
83520,note_on,18,0,5,,,,,,,,,4,,70,49
83520,note_on,50,0,1,,,,,,,,,0,,58,108
83520,note_on,60,0,8,,,,,,,,,7,,53,64
83520,note_on,18,0,7,,,,,,,,,6,,65,64
83520,note_on,18,0,6,,,,,,,,,5,,62,64
83940,note_on,420,0,8,,,,,,,,,7,,53,0
83940,note_on,420,0,9,,,,,,,,,8,,41,0
84000,note_on,60,0,8,,,,,,,,,7,,41,64
84000,note_on,60,0,9,,,,,,,,,8,,29,64
84420,note_on,420,0,9,,,,,,,,,8,,29,0
84420,note_on,900,0,6,,,,,,,,,5,,62,0
84420,note_on,900,0,5,,,,,,,,,4,,70,0
84420,note_on,420,0,8,,,,,,,,,7,,41,0
84420,note_on,900,0,7,,,,,,,,,6,,65,0
84480,note_on,60,0,7,,,,,,,,,6,,63,64
84480,note_on,60,0,6,,,,,,,,,5,,60,64
84480,note_on,960,0,1,,,,,,,,,0,,57,100
84480,note_on,60,0,9,,,,,,,,,8,,41,64
84480,note_on,60,0,5,,,,,,,,,4,,69,49
84480,note_on,60,0,8,,,,,,,,,7,,53,64
84525,note_on,45,0,1,,,,,,,,,0,,58,0
84900,note_on,420,0,9,,,,,,,,,8,,41,0
84900,note_on,420,0,5,,,,,,,,,4,,69,0
84900,note_on,420,0,7,,,,,,,,,6,,63,0
84900,note_on,420,0,6,,,,,,,,,5,,60,0
84900,note_on,420,0,8,,,,,,,,,7,,53,0
84960,note_on,60,0,8,,,,,,,,,7,,58,64
84960,note_on,60,0,5,,,,,,,,,4,,62,88
84960,note_on,20220,0,2,,,,,,,,,1,,70,73
84960,note_on,0,0,5,,,,,,,,,4,,70,88
84960,note_on,60,0,9,,,,,,,,,8,,46,64
84960,note_on,435,0,1,,,,,,,,,0,,57,0
84960,note_on,0,0,3,,,,,,,,,2,,70,72
84960,note_on,43740,0,3,,,,,,,,,2,,62,72
84960,note_on,43260,0,4,,,,,,,,,3,,58,88
84960,note_on,60,0,6,,,,,,,,,5,,65,64
84960,note_on,60,0,7,,,,,,,,,6,,62,64
85380,note_on,420,0,4,,,,,,,,,3,,58,0
85380,note_on,420,0,9,,,,,,,,,8,,46,0
85380,note_on,420,0,7,,,,,,,,,6,,62,0
85380,note_on,420,0,8,,,,,,,,,7,,58,0
85440,note_on,60,0,7,,,,,,,,,6,,70,64
85440,note_on,60,0,4,,,,,,,,,3,,62,88
85440,note_on,60,0,8,,,,,,,,,7,,62,64
85440,note_on,60,0,9,,,,,,,,,8,,50,64
85860,note_on,0,0,5,,,,,,,,,4,,62,0
85860,note_on,420,0,9,,,,,,,,,8,,50,0
85860,note_on,900,0,2,,,,,,,,,1,,70,0
85860,note_on,420,0,8,,,,,,,,,7,,62,0
85860,note_on,0,0,3,,,,,,,,,2,,62,0
85860,note_on,900,0,3,,,,,,,,,2,,70,0
85860,note_on,420,0,4,,,,,,,,,3,,62,0
85860,note_on,420,0,7,,,,,,,,,6,,70,0
85860,note_on,900,0,5,,,,,,,,,4,,70,0
85860,note_on,900,0,6,,,,,,,,,5,,65,0
85920,note_on,60,0,6,,,,,,,,,5,,63,64
85920,note_on,0,0,2,,,,,,,,,1,,72,73
85920,note_on,60,0,2,,,,,,,,,1,,69,73
85920,note_on,60,0,8,,,,,,,,,7,,58,64
85920,note_on,60,0,7,,,,,,,,,6,,69,64
85920,note_on,60,0,5,,,,,,,,,4,,72,88
85920,note_on,60,0,4,,,,,,,,,3,,58,88
85920,note_on,60,0,9,,,,,,,,,8,,46,64
86127,note_on,0,0,2,,,,,,,,,1,,69,0
86127,note_on,207,0,2,,,,,,,,,1,,72,0
86127,note_on,207,0,5,,,,,,,,,4,,72,0
86127,note_on,207,0,6,,,,,,,,,5,,63,0
86127,note_on,207,0,7,,,,,,,,,6,,69,0
86160,note_on,33,0,5,,,,,,,,,4,,74,88
86160,note_on,33,0,6,,,,,,,,,5,,62,64
86160,note_on,33,0,2,,,,,,,,,1,,70,73
86160,note_on,0,0,2,,,,,,,,,1,,74,73
86160,note_on,33,0,7,,,,,,,,,6,,70,64
86340,note_on,420,0,9,,,,,,,,,8,,46,0
86340,note_on,420,0,4,,,,,,,,,3,,58,0
86340,note_on,420,0,8,,,,,,,,,7,,58,0
86367,note_on,207,0,5,,,,,,,,,4,,74,0
86367,note_on,207,0,2,,,,,,,,,1,,74,0
86367,note_on,0,0,2,,,,,,,,,1,,70,0
86367,note_on,207,0,6,,,,,,,,,5,,62,0
86367,note_on,207,0,7,,,,,,,,,6,,70,0
86400,note_on,33,0,7,,,,,,,,,6,,67,64
86400,note_on,60,0,9,,,,,,,,,8,,48,64
86400,note_on,60,0,4,,,,,,,,,3,,60,88
86400,note_on,60,0,8,,,,,,,,,7,,60,64
86400,note_on,0,0,2,,,,,,,,,1,,77,73
86400,note_on,33,0,2,,,,,,,,,1,,67,73
86400,note_on,33,0,5,,,,,,,,,4,,77,88
86400,note_on,33,0,6,,,,,,,,,5,,67,64
86607,note_on,207,0,5,,,,,,,,,4,,77,0
86607,note_on,207,0,2,,,,,,,,,1,,77,0
86640,note_on,33,0,5,,,,,,,,,4,,75,88
86640,note_on,33,0,2,,,,,,,,,1,,75,73
86820,note_on,420,0,4,,,,,,,,,3,,60,0
86820,note_on,420,0,9,,,,,,,,,8,,48,0
86820,note_on,420,0,8,,,,,,,,,7,,60,0
86820,note_on,420,0,6,,,,,,,,,5,,67,0
86847,note_on,207,0,2,,,,,,,,,1,,75,0
86847,note_on,207,0,5,,,,,,,,,4,,75,0
86847,note_on,0,0,2,,,,,,,,,1,,67,0
86880,note_on,60,0,8,,,,,,,,,7,,55,64
86880,note_on,60,0,6,,,,,,,,,5,,58,64
86880,note_on,60,0,4,,,,,,,,,3,,55,88
86880,note_on,0,0,2,,,,,,,,,1,,75,73
86880,note_on,33,0,5,,,,,,,,,4,,75,88
86880,note_on,60,0,9,,,,,,,,,8,,43,64
86880,note_on,0,0,3,,,,,,,,,2,,70,72
86880,note_on,1020,0,3,,,,,,,,,2,,58,72
86880,note_on,33,0,2,,,,,,,,,1,,70,73
87300,note_on,420,0,8,,,,,,,,,7,,55,0
87300,note_on,420,0,4,,,,,,,,,3,,55,0
87300,note_on,420,0,9,,,,,,,,,8,,43,0
87300,note_on,420,0,6,,,,,,,,,5,,58,0
87300,note_on,0,0,3,,,,,,,,,2,,58,0
87300,note_on,900,0,7,,,,,,,,,6,,67,0
87300,note_on,420,0,3,,,,,,,,,2,,70,0
87300,note_on,420,0,2,,,,,,,,,1,,70,0
87360,note_on,60,0,8,,,,,,,,,7,,57,64
87360,note_on,0,0,3,,,,,,,,,2,,72,72
87360,note_on,60,0,3,,,,,,,,,2,,65,72
87360,note_on,60,0,2,,,,,,,,,1,,72,73
87360,note_on,60,0,7,,,,,,,,,6,,65,64
87360,note_on,60,0,6,,,,,,,,,5,,60,64
87360,note_on,60,0,9,,,,,,,,,8,,45,64
87360,note_on,60,0,4,,,,,,,,,3,,57,88
87780,note_on,420,0,4,,,,,,,,,3,,57,0
87780,note_on,420,0,3,,,,,,,,,2,,72,0
87780,note_on,0,0,3,,,,,,,,,2,,65,0
87780,note_on,0,0,2,,,,,,,,,1,,75,0
87780,note_on,420,0,8,,,,,,,,,7,,57,0
87780,note_on,420,0,6,,,,,,,,,5,,60,0
87780,note_on,420,0,7,,,,,,,,,6,,65,0
87780,note_on,420,0,9,,,,,,,,,8,,45,0
87780,note_on,420,0,2,,,,,,,,,1,,72,0
87780,note_on,900,0,5,,,,,,,,,4,,75,0
87840,note_on,60,0,4,,,,,,,,,3,,58,88
87840,note_on,60,0,6,,,,,,,,,5,,58,64
87840,note_on,60,0,8,,,,,,,,,7,,58,64
87840,note_on,60,0,3,,,,,,,,,2,,70,72
87840,note_on,0,0,3,,,,,,,,,2,,74,72
87840,note_on,60,0,7,,,,,,,,,6,,65,64
87840,note_on,60,0,2,,,,,,,,,1,,70,73
87840,note_on,60,0,9,,,,,,,,,8,,46,64
87840,note_on,0,0,2,,,,,,,,,1,,74,73
87840,note_on,60,0,5,,,,,,,,,4,,74,88
88047,note_on,207,0,6,,,,,,,,,5,,58,0
88047,note_on,207,0,7,,,,,,,,,6,,65,0
88047,note_on,207,0,2,,,,,,,,,1,,74,0
88047,note_on,207,0,5,,,,,,,,,4,,74,0
88080,note_on,33,0,5,,,,,,,,,4,,77,88
88080,note_on,33,0,7,,,,,,,,,6,,62,64
88080,note_on,33,0,6,,,,,,,,,5,,62,64
88080,note_on,33,0,2,,,,,,,,,1,,77,73
88260,note_on,420,0,8,,,,,,,,,7,,58,0
88260,note_on,420,0,4,,,,,,,,,3,,58,0
88260,note_on,420,0,9,,,,,,,,,8,,46,0
88287,note_on,207,0,7,,,,,,,,,6,,62,0
88287,note_on,207,0,6,,,,,,,,,5,,62,0
88287,note_on,0,0,2,,,,,,,,,1,,70,0
88287,note_on,207,0,5,,,,,,,,,4,,77,0
88287,note_on,207,0,2,,,,,,,,,1,,77,0
88320,note_on,60,0,9,,,,,,,,,8,,43,64
88320,note_on,33,0,2,,,,,,,,,1,,74,73
88320,note_on,60,0,8,,,,,,,,,7,,55,64
88320,note_on,33,0,6,,,,,,,,,5,,62,64
88320,note_on,33,0,7,,,,,,,,,6,,67,64
88320,note_on,33,0,5,,,,,,,,,4,,70,88
88320,note_on,60,0,4,,,,,,,,,3,,55,88
88320,note_on,0,0,2,,,,,,,,,1,,82,73
88527,note_on,207,0,7,,,,,,,,,6,,67,0
88527,note_on,207,0,6,,,,,,,,,5,,62,0
88527,note_on,207,0,5,,,,,,,,,4,,70,0
88560,note_on,33,0,5,,,,,,,,,4,,74,88
88560,note_on,33,0,7,,,,,,,,,6,,58,64
88560,note_on,33,0,6,,,,,,,,,5,,70,64
88740,note_on,0,0,3,,,,,,,,,2,,70,0
88740,note_on,900,0,3,,,,,,,,,2,,74,0
88740,note_on,420,0,8,,,,,,,,,7,,55,0
88740,note_on,420,0,2,,,,,,,,,1,,82,0
88740,note_on,0,0,2,,,,,,,,,1,,74,0
88740,note_on,420,0,4,,,,,,,,,3,,55,0
88740,note_on,420,0,9,,,,,,,,,8,,43,0
88767,note_on,207,0,6,,,,,,,,,5,,70,0
88767,note_on,207,0,7,,,,,,,,,6,,58,0
88767,note_on,207,0,5,,,,,,,,,4,,74,0
88800,note_on,33,0,6,,,,,,,,,5,,67,64
88800,note_on,33,0,5,,,,,,,,,4,,67,88
88800,note_on,60,0,4,,,,,,,,,3,,51,88
88800,note_on,60,0,2,,,,,,,,,1,,79,73
88800,note_on,60,0,3,,,,,,,,,2,,72,72
88800,note_on,0,0,3,,,,,,,,,2,,75,72
88800,note_on,60,0,8,,,,,,,,,7,,51,64
88800,note_on,60,0,9,,,,,,,,,8,,39,64
88800,note_on,33,0,7,,,,,,,,,6,,63,64
89007,note_on,207,0,5,,,,,,,,,4,,67,0
89007,note_on,207,0,2,,,,,,,,,1,,79,0
89007,note_on,207,0,7,,,,,,,,,6,,63,0
89007,note_on,207,0,6,,,,,,,,,5,,67,0
89040,note_on,33,0,6,,,,,,,,,5,,63,64
89040,note_on,33,0,5,,,,,,,,,4,,72,88
89040,note_on,33,0,2,,,,,,,,,1,,75,73
89040,note_on,0,0,2,,,,,,,,,1,,84,73
89040,note_on,33,0,7,,,,,,,,,6,,60,64
89220,note_on,420,0,3,,,,,,,,,2,,75,0
89220,note_on,420,0,9,,,,,,,,,8,,39,0
89220,note_on,0,0,3,,,,,,,,,2,,72,0
89220,note_on,420,0,4,,,,,,,,,3,,51,0
89220,note_on,420,0,8,,,,,,,,,7,,51,0
89247,note_on,207,0,5,,,,,,,,,4,,72,0
89247,note_on,207,0,7,,,,,,,,,6,,60,0
89247,note_on,0,0,2,,,,,,,,,1,,75,0
89247,note_on,207,0,2,,,,,,,,,1,,84,0
89247,note_on,207,0,6,,,,,,,,,5,,63,0
89280,note_on,33,0,2,,,,,,,,,1,,74,73
89280,note_on,60,0,3,,,,,,,,,2,,65,72
89280,note_on,33,0,7,,,,,,,,,6,,53,64
89280,note_on,60,0,8,,,,,,,,,7,,53,64
89280,note_on,33,0,6,,,,,,,,,5,,62,64
89280,note_on,33,0,5,,,,,,,,,4,,70,88
89280,note_on,60,0,9,,,,,,,,,8,,41,64
89280,note_on,0,0,2,,,,,,,,,1,,82,73
89280,note_on,60,0,4,,,,,,,,,3,,53,88
89487,note_on,207,0,2,,,,,,,,,1,,82,0
89487,note_on,0,0,2,,,,,,,,,1,,74,0
89487,note_on,207,0,6,,,,,,,,,5,,62,0
89487,note_on,207,0,5,,,,,,,,,4,,70,0
89520,note_on,33,0,6,,,,,,,,,5,,60,64
89520,note_on,33,0,5,,,,,,,,,4,,69,88
89520,note_on,33,0,2,,,,,,,,,1,,72,73
89520,note_on,0,0,2,,,,,,,,,1,,81,73
89700,note_on,420,0,4,,,,,,,,,3,,53,0
89700,note_on,420,0,7,,,,,,,,,6,,53,0
89700,note_on,420,0,8,,,,,,,,,7,,53,0
89700,note_on,420,0,9,,,,,,,,,8,,41,0
89727,note_on,207,0,5,,,,,,,,,4,,69,0
89727,note_on,207,0,6,,,,,,,,,5,,60,0
89727,note_on,207,0,2,,,,,,,,,1,,81,0
89727,note_on,0,0,2,,,,,,,,,1,,72,0
89760,note_on,60,0,7,,,,,,,,,6,,65,64
89760,note_on,33,0,5,,,,,,,,,4,,67,88
89760,note_on,60,0,9,,,,,,,,,8,,41,64
89760,note_on,60,0,4,,,,,,,,,3,,53,88
89760,note_on,60,0,8,,,,,,,,,7,,53,64
89760,note_on,33,0,6,,,,,,,,,5,,58,64
89760,note_on,33,0,2,,,,,,,,,1,,70,73
89760,note_on,0,0,2,,,,,,,,,1,,79,73
89967,note_on,0,0,2,,,,,,,,,1,,70,0
89967,note_on,207,0,6,,,,,,,,,5,,58,0
89967,note_on,207,0,5,,,,,,,,,4,,67,0
89967,note_on,207,0,2,,,,,,,,,1,,79,0
90000,note_on,33,0,5,,,,,,,,,4,,65,88
90000,note_on,0,0,2,,,,,,,,,1,,77,73
90000,note_on,33,0,6,,,,,,,,,5,,57,64
90000,note_on,33,0,2,,,,,,,,,1,,69,73
90180,note_on,420,0,8,,,,,,,,,7,,53,0
90180,note_on,420,0,9,,,,,,,,,8,,41,0
90180,note_on,420,0,7,,,,,,,,,6,,65,0
90180,note_on,420,0,4,,,,,,,,,3,,53,0
90207,note_on,0,0,2,,,,,,,,,1,,69,0
90207,note_on,207,0,5,,,,,,,,,4,,65,0
90207,note_on,207,0,2,,,,,,,,,1,,77,0
90207,note_on,207,0,6,,,,,,,,,5,,57,0
90240,note_on,33,0,6,,,,,,,,,5,,58,64
90240,note_on,60,0,4,,,,,,,,,3,,51,88
90240,note_on,60,0,7,,,,,,,,,6,,65,64
90240,note_on,33,0,2,,,,,,,,,1,,70,73
90240,note_on,33,0,5,,,,,,,,,4,,67,88
90240,note_on,60,0,8,,,,,,,,,7,,51,64
90240,note_on,60,0,9,,,,,,,,,8,,39,64
90240,note_on,0,0,2,,,,,,,,,1,,79,73
90447,note_on,207,0,2,,,,,,,,,1,,79,0
90447,note_on,207,0,5,,,,,,,,,4,,67,0
90447,note_on,207,0,6,,,,,,,,,5,,58,0
90447,note_on,0,0,2,,,,,,,,,1,,70,0
90480,note_on,33,0,6,,,,,,,,,5,,60,64
90480,note_on,33,0,5,,,,,,,,,4,,69,88
90480,note_on,0,0,2,,,,,,,,,1,,81,73
90480,note_on,33,0,2,,,,,,,,,1,,72,73
90660,note_on,420,0,9,,,,,,,,,8,,39,0
90660,note_on,420,0,8,,,,,,,,,7,,51,0
90660,note_on,420,0,4,,,,,,,,,3,,51,0
90660,note_on,420,0,7,,,,,,,,,6,,65,0
90687,note_on,207,0,2,,,,,,,,,1,,81,0
90687,note_on,0,0,2,,,,,,,,,1,,72,0
90687,note_on,207,0,6,,,,,,,,,5,,60,0
90687,note_on,207,0,5,,,,,,,,,4,,69,0
90720,note_on,60,0,9,,,,,,,,,8,,38,64
90720,note_on,1440,0,3,,,,,,,,,2,,58,72
90720,note_on,60,0,7,,,,,,,,,6,,65,64
90720,note_on,0,0,2,,,,,,,,,1,,82,73
90720,note_on,0,0,5,,,,,,,,,4,,70,88
90720,note_on,33,0,5,,,,,,,,,4,,62,88
90720,note_on,33,0,2,,,,,,,,,1,,74,73
90720,note_on,33,0,6,,,,,,,,,5,,62,64
90720,note_on,60,0,8,,,,,,,,,7,,50,64
90720,note_on,60,0,4,,,,,,,,,3,,50,88
91140,note_on,420,0,4,,,,,,,,,3,,50,0
91140,note_on,420,0,9,,,,,,,,,8,,38,0
91140,note_on,420,0,6,,,,,,,,,5,,62,0
91140,note_on,420,0,8,,,,,,,,,7,,50,0
91140,note_on,420,0,7,,,,,,,,,6,,65,0
91140,note_on,420,0,2,,,,,,,,,1,,82,0
91140,note_on,0,0,2,,,,,,,,,1,,74,0
91200,note_on,60,0,8,,,,,,,,,7,,62,64
91200,note_on,60,0,9,,,,,,,,,8,,50,64
91200,note_on,60,0,4,,,,,,,,,3,,62,88
91200,note_on,60,0,7,,,,,,,,,6,,70,64
91200,note_on,60,0,6,,,,,,,,,5,,65,64
91200,note_on,60,0,2,,,,,,,,,1,,70,73
91620,note_on,420,0,2,,,,,,,,,1,,70,0
91620,note_on,900,0,5,,,,,,,,,4,,70,0
91620,note_on,0,0,5,,,,,,,,,4,,62,0
91620,note_on,0,0,3,,,,,,,,,2,,65,0
91620,note_on,420,0,6,,,,,,,,,5,,65,0
91620,note_on,420,0,9,,,,,,,,,8,,50,0
91620,note_on,420,0,7,,,,,,,,,6,,70,0
91620,note_on,420,0,4,,,,,,,,,3,,62,0
91620,note_on,420,0,8,,,,,,,,,7,,62,0
91620,note_on,900,0,3,,,,,,,,,2,,58,0
91680,note_on,60,0,9,,,,,,,,,8,,46,64
91680,note_on,60,0,7,,,,,,,,,6,,69,64
91680,note_on,60,0,4,,,,,,,,,3,,58,88
91680,note_on,0,0,2,,,,,,,,,1,,72,73
91680,note_on,60,0,2,,,,,,,,,1,,69,73
91680,note_on,60,0,5,,,,,,,,,4,,72,88
91680,note_on,60,0,8,,,,,,,,,7,,58,64
91680,note_on,60,0,6,,,,,,,,,5,,63,64
91887,note_on,207,0,2,,,,,,,,,1,,72,0
91887,note_on,207,0,5,,,,,,,,,4,,72,0
91887,note_on,0,0,2,,,,,,,,,1,,69,0
91887,note_on,207,0,6,,,,,,,,,5,,63,0
91887,note_on,207,0,7,,,,,,,,,6,,69,0
91920,note_on,0,0,2,,,,,,,,,1,,74,73
91920,note_on,33,0,5,,,,,,,,,4,,74,88
91920,note_on,33,0,7,,,,,,,,,6,,70,64
91920,note_on,33,0,2,,,,,,,,,1,,70,73
91920,note_on,33,0,6,,,,,,,,,5,,62,64
92100,note_on,420,0,8,,,,,,,,,7,,58,0
92100,note_on,420,0,9,,,,,,,,,8,,46,0
92100,note_on,420,0,4,,,,,,,,,3,,58,0
92127,note_on,207,0,6,,,,,,,,,5,,62,0
92127,note_on,207,0,2,,,,,,,,,1,,74,0
92127,note_on,207,0,5,,,,,,,,,4,,74,0
92127,note_on,207,0,7,,,,,,,,,6,,70,0
92127,note_on,0,0,2,,,,,,,,,1,,70,0
92160,note_on,33,0,7,,,,,,,,,6,,67,64
92160,note_on,60,0,4,,,,,,,,,3,,60,88
92160,note_on,0,0,2,,,,,,,,,1,,77,73
92160,note_on,33,0,2,,,,,,,,,1,,67,73
92160,note_on,33,0,5,,,,,,,,,4,,77,88
92160,note_on,60,0,8,,,,,,,,,7,,60,64
92160,note_on,60,0,9,,,,,,,,,8,,48,64
92160,note_on,33,0,6,,,,,,,,,5,,67,64
92367,note_on,207,0,2,,,,,,,,,1,,77,0
92367,note_on,207,0,5,,,,,,,,,4,,77,0
92400,note_on,33,0,2,,,,,,,,,1,,75,73
92400,note_on,33,0,5,,,,,,,,,4,,75,88
92580,note_on,420,0,6,,,,,,,,,5,,67,0
92580,note_on,420,0,9,,,,,,,,,8,,48,0
92580,note_on,420,0,8,,,,,,,,,7,,60,0
92580,note_on,420,0,4,,,,,,,,,3,,60,0
92607,note_on,0,0,2,,,,,,,,,1,,67,0
92607,note_on,207,0,5,,,,,,,,,4,,75,0
92607,note_on,207,0,2,,,,,,,,,1,,75,0
92640,note_on,60,0,6,,,,,,,,,5,,58,64
92640,note_on,0,0,3,,,,,,,,,2,,70,72
92640,note_on,0,0,2,,,,,,,,,1,,75,73
92640,note_on,60,0,8,,,,,,,,,7,,55,64
92640,note_on,1020,0,3,,,,,,,,,2,,58,72
92640,note_on,33,0,5,,,,,,,,,4,,75,88
92640,note_on,60,0,9,,,,,,,,,8,,43,64
92640,note_on,33,0,2,,,,,,,,,1,,70,73
92640,note_on,60,0,4,,,,,,,,,3,,55,88
93060,note_on,420,0,3,,,,,,,,,2,,70,0
93060,note_on,900,0,7,,,,,,,,,6,,67,0
93060,note_on,0,0,3,,,,,,,,,2,,58,0
93060,note_on,420,0,9,,,,,,,,,8,,43,0
93060,note_on,420,0,6,,,,,,,,,5,,58,0
93060,note_on,420,0,4,,,,,,,,,3,,55,0
93060,note_on,420,0,8,,,,,,,,,7,,55,0
93060,note_on,420,0,2,,,,,,,,,1,,70,0
93120,note_on,60,0,4,,,,,,,,,3,,57,88
93120,note_on,60,0,9,,,,,,,,,8,,45,64
93120,note_on,60,0,6,,,,,,,,,5,,60,64
93120,note_on,60,0,8,,,,,,,,,7,,57,64
93120,note_on,60,0,2,,,,,,,,,1,,72,73
93120,note_on,0,0,3,,,,,,,,,2,,72,72
93120,note_on,60,0,7,,,,,,,,,6,,65,64
93120,note_on,60,0,3,,,,,,,,,2,,65,72
93540,note_on,420,0,7,,,,,,,,,6,,65,0
93540,note_on,0,0,2,,,,,,,,,1,,75,0
93540,note_on,420,0,8,,,,,,,,,7,,57,0
93540,note_on,900,0,5,,,,,,,,,4,,75,0
93540,note_on,0,0,3,,,,,,,,,2,,65,0
93540,note_on,420,0,6,,,,,,,,,5,,60,0
93540,note_on,420,0,9,,,,,,,,,8,,45,0
93540,note_on,420,0,4,,,,,,,,,3,,57,0
93540,note_on,420,0,2,,,,,,,,,1,,72,0
93540,note_on,420,0,3,,,,,,,,,2,,72,0
93600,note_on,60,0,7,,,,,,,,,6,,65,64
93600,note_on,60,0,8,,,,,,,,,7,,58,64
93600,note_on,60,0,5,,,,,,,,,4,,74,88
93600,note_on,60,0,4,,,,,,,,,3,,58,88
93600,note_on,60,0,9,,,,,,,,,8,,46,64
93600,note_on,60,0,3,,,,,,,,,2,,70,72
93600,note_on,0,0,2,,,,,,,,,1,,74,73
93600,note_on,60,0,6,,,,,,,,,5,,65,64
93600,note_on,60,0,2,,,,,,,,,1,,70,73
93600,note_on,0,0,3,,,,,,,,,2,,74,72
93910,note_on,310,0,2,,,,,,,,,1,,74,0
93910,note_on,310,0,5,,,,,,,,,4,,74,0
93960,note_on,50,0,2,,,,,,,,,1,,77,73
93960,note_on,50,0,5,,,,,,,,,4,,75,88
94010,note_on,50,0,5,,,,,,,,,4,,75,0
94020,note_on,10,0,5,,,,,,,,,4,,77,88
94020,note_on,420,0,7,,,,,,,,,6,,65,0
94020,note_on,420,0,9,,,,,,,,,8,,46,0
94020,note_on,420,0,4,,,,,,,,,3,,58,0
94020,note_on,420,0,6,,,,,,,,,5,,65,0
94020,note_on,420,0,8,,,,,,,,,7,,58,0
94062,note_on,102,0,2,,,,,,,,,1,,77,0
94062,note_on,0,0,2,,,,,,,,,1,,70,0
94070,note_on,50,0,5,,,,,,,,,4,,77,0
94080,note_on,60,0,9,,,,,,,,,8,,41,64
94080,note_on,60,0,8,,,,,,,,,7,,53,64
94080,note_on,10,0,5,,,,,,,,,4,,70,88
94080,note_on,18,0,2,,,,,,,,,1,,74,73
94080,note_on,0,0,2,,,,,,,,,1,,82,73
94080,note_on,60,0,4,,,,,,,,,3,,53,88
94080,note_on,60,0,6,,,,,,,,,5,,62,64
94080,note_on,60,0,7,,,,,,,,,6,,65,64
94500,note_on,420,0,9,,,,,,,,,8,,41,0
94500,note_on,420,0,5,,,,,,,,,4,,70,0
94500,note_on,420,0,8,,,,,,,,,7,,53,0
94500,note_on,900,0,3,,,,,,,,,2,,74,0
94500,note_on,420,0,4,,,,,,,,,3,,53,0
94500,note_on,420,0,6,,,,,,,,,5,,62,0
94500,note_on,0,0,3,,,,,,,,,2,,70,0
94500,note_on,420,0,7,,,,,,,,,6,,65,0
94500,note_on,0,0,2,,,,,,,,,1,,74,0
94500,note_on,420,0,2,,,,,,,,,1,,82,0
94560,note_on,60,0,7,,,,,,,,,6,,65,64
94560,note_on,60,0,6,,,,,,,,,5,,60,64
94560,note_on,0,0,3,,,,,,,,,2,,72,72
94560,note_on,60,0,2,,,,,,,,,1,,72,73
94560,note_on,60,0,4,,,,,,,,,3,,41,88
94560,note_on,60,0,9,,,,,,,,,8,,29,64
94560,note_on,60,0,3,,,,,,,,,2,,65,72
94560,note_on,60,0,5,,,,,,,,,4,,69,88
94560,note_on,60,0,8,,,,,,,,,7,,41,64
94560,note_on,0,0,2,,,,,,,,,1,,81,73
94980,note_on,420,0,2,,,,,,,,,1,,81,0
94980,note_on,420,0,6,,,,,,,,,5,,60,0
94980,note_on,420,0,9,,,,,,,,,8,,29,0
94980,note_on,420,0,5,,,,,,,,,4,,69,0
94980,note_on,420,0,7,,,,,,,,,6,,65,0
94980,note_on,420,0,8,,,,,,,,,7,,41,0
94980,note_on,0,0,2,,,,,,,,,1,,72,0
94980,note_on,420,0,3,,,,,,,,,2,,72,0
94980,note_on,420,0,4,,,,,,,,,3,,41,0
94980,note_on,0,0,3,,,,,,,,,2,,65,0
95040,note_on,60,0,2,,,,,,,,,1,,74,73
95040,note_on,60,0,6,,,,,,,,,5,,62,64
95040,note_on,0,0,6,,,,,,,,,5,,70,64
95040,note_on,60,0,4,,,,,,,,,3,,46,88
95040,note_on,0,0,5,,,,,,,,,4,,70,88
95040,note_on,60,0,5,,,,,,,,,4,,62,88
95040,note_on,60,0,3,,,,,,,,,2,,62,72
95040,note_on,60,0,9,,,,,,,,,8,,34,64
95040,note_on,60,0,8,,,,,,,,,7,,46,64
95040,note_on,0,0,3,,,,,,,,,2,,70,72
95040,note_on,60,0,7,,,,,,,,,6,,65,64
95040,note_on,0,0,2,,,,,,,,,1,,82,73
95460,note_on,420,0,4,,,,,,,,,3,,46,0
95460,note_on,420,0,9,,,,,,,,,8,,34,0
95460,note_on,420,0,8,,,,,,,,,7,,46,0
95520,note_on,60,0,4,,,,,,,,,3,,53,88
95520,note_on,60,0,9,,,,,,,,,8,,41,64
95520,note_on,60,0,8,,,,,,,,,7,,53,64
95940,note_on,420,0,8,,,,,,,,,7,,53,0
95940,note_on,420,0,4,,,,,,,,,3,,53,0
95940,note_on,900,0,5,,,,,,,,,4,,70,0
95940,note_on,900,0,6,,,,,,,,,5,,70,0
95940,note_on,0,0,6,,,,,,,,,5,,62,0
95940,note_on,0,0,2,,,,,,,,,1,,74,0
95940,note_on,900,0,7,,,,,,,,,6,,65,0
95940,note_on,900,0,3,,,,,,,,,2,,70,0
95940,note_on,0,0,3,,,,,,,,,2,,62,0
95940,note_on,420,0,9,,,,,,,,,8,,41,0
95940,note_on,0,0,5,,,,,,,,,4,,62,0
95940,note_on,900,0,2,,,,,,,,,1,,82,0
96000,note_on,60,0,8,,,,,,,,,7,,58,64
96000,note_on,60,0,4,,,,,,,,,3,,58,88
96000,note_on,60,0,9,,,,,,,,,8,,46,64
96420,note_on,420,0,8,,,,,,,,,7,,58,0
96420,note_on,420,0,9,,,,,,,,,8,,46,0
96420,note_on,420,0,4,,,,,,,,,3,,58,0
96480,note_on,60,0,8,,,,,,,,,7,,55,64
96480,note_on,11520,0,1,,,,,,,,,0,,62,112
96480,note_on,540,0,7,,,,,,,,,6,,62,64
96480,note_on,540,0,6,,,,,,,,,5,,58,64
96480,note_on,60,0,9,,,,,,,,,8,,43,64
96480,note_on,540,0,5,,,,,,,,,4,,67,49
96687,note_on,207,0,8,,,,,,,,,7,,55,0
96687,note_on,207,0,7,,,,,,,,,6,,62,0
96687,note_on,207,0,6,,,,,,,,,5,,58,0
96687,note_on,207,0,9,,,,,,,,,8,,43,0
96687,note_on,207,0,5,,,,,,,,,4,,67,0
96720,note_on,33,0,7,,,,,,,,,6,,62,64
96720,note_on,33,0,6,,,,,,,,,5,,58,64
96720,note_on,33,0,5,,,,,,,,,4,,67,49
96720,note_on,33,0,9,,,,,,,,,8,,43,64
96720,note_on,33,0,8,,,,,,,,,7,,55,64
96927,note_on,207,0,7,,,,,,,,,6,,62,0
96927,note_on,207,0,9,,,,,,,,,8,,43,0
96927,note_on,207,0,6,,,,,,,,,5,,58,0
96927,note_on,207,0,8,,,,,,,,,7,,55,0
96927,note_on,207,0,5,,,,,,,,,4,,67,0
96960,note_on,33,0,8,,,,,,,,,7,,55,64
96960,note_on,33,0,9,,,,,,,,,8,,43,64
96960,note_on,33,0,6,,,,,,,,,5,,58,64
96960,note_on,480,0,1,,,,,,,,,0,,62,0
96960,note_on,33,0,7,,,,,,,,,6,,62,64
96960,note_on,33,0,5,,,,,,,,,4,,67,49
96960,note_on,0,0,1,,,,,,,,,0,,60,114
97080,note_on,120,0,1,,,,,,,,,0,,58,114
97132,note_on,52,0,1,,,,,,,,,0,,60,0
97167,note_on,207,0,9,,,,,,,,,8,,43,0
97167,note_on,207,0,7,,,,,,,,,6,,62,0
97167,note_on,207,0,5,,,,,,,,,4,,67,0
97167,note_on,207,0,6,,,,,,,,,5,,58,0
97167,note_on,207,0,8,,,,,,,,,7,,55,0
97200,note_on,33,0,9,,,,,,,,,8,,43,64
97200,note_on,33,0,6,,,,,,,,,5,,58,64
97200,note_on,33,0,8,,,,,,,,,7,,55,64
97200,note_on,33,0,5,,,,,,,,,4,,67,49
97200,note_on,33,0,7,,,,,,,,,6,,62,64
97407,note_on,207,0,8,,,,,,,,,7,,55,0
97407,note_on,207,0,7,,,,,,,,,6,,62,0
97407,note_on,207,0,5,,,,,,,,,4,,67,0
97407,note_on,207,0,6,,,,,,,,,5,,58,0
97407,note_on,207,0,9,,,,,,,,,8,,43,0
97420,note_on,288,0,1,,,,,,,,,0,,58,0
97440,note_on,33,0,7,,,,,,,,,6,,62,64
97440,note_on,33,0,8,,,,,,,,,7,,55,64
97440,note_on,20,0,1,,,,,,,,,0,,57,111
97440,note_on,33,0,5,,,,,,,,,4,,67,49
97440,note_on,33,0,9,,,,,,,,,8,,43,64
97440,note_on,33,0,6,,,,,,,,,5,,58,64
97560,note_on,120,0,1,,,,,,,,,0,,55,110
97605,note_on,45,0,1,,,,,,,,,0,,57,0
97647,note_on,207,0,5,,,,,,,,,4,,67,0
97647,note_on,207,0,8,,,,,,,,,7,,55,0
97647,note_on,207,0,7,,,,,,,,,6,,62,0
97647,note_on,207,0,6,,,,,,,,,5,,58,0
97647,note_on,207,0,9,,,,,,,,,8,,43,0
97680,note_on,33,0,8,,,,,,,,,7,,55,64
97680,note_on,33,0,5,,,,,,,,,4,,67,49
97680,note_on,33,0,7,,,,,,,,,6,,62,64
97680,note_on,33,0,6,,,,,,,,,5,,58,64
97680,note_on,33,0,9,,,,,,,,,8,,43,64
97887,note_on,207,0,7,,,,,,,,,6,,62,0
97887,note_on,207,0,6,,,,,,,,,5,,58,0
97887,note_on,207,0,5,,,,,,,,,4,,67,0
97887,note_on,207,0,8,,,,,,,,,7,,55,0
97887,note_on,207,0,9,,,,,,,,,8,,43,0
97900,note_on,295,0,1,,,,,,,,,0,,55,0
97920,note_on,20,0,1,,,,,,,,,0,,54,108
97920,note_on,33,0,7,,,,,,,,,6,,60,64
97920,note_on,33,0,5,,,,,,,,,4,,66,49
97920,note_on,33,0,6,,,,,,,,,5,,63,64
97920,note_on,33,0,8,,,,,,,,,7,,57,64
97920,note_on,33,0,9,,,,,,,,,8,,45,64
98040,note_on,120,0,1,,,,,,,,,0,,57,108
98092,note_on,52,0,1,,,,,,,,,0,,54,0
98127,note_on,207,0,7,,,,,,,,,6,,60,0
98127,note_on,207,0,9,,,,,,,,,8,,45,0
98127,note_on,207,0,8,,,,,,,,,7,,57,0
98127,note_on,207,0,6,,,,,,,,,5,,63,0
98127,note_on,207,0,5,,,,,,,,,4,,66,0
98160,note_on,33,0,8,,,,,,,,,7,,57,64
98160,note_on,33,0,6,,,,,,,,,5,,63,64
98160,note_on,33,0,9,,,,,,,,,8,,45,64
98160,note_on,68,0,1,,,,,,,,,0,,60,108
98160,note_on,33,0,5,,,,,,,,,4,,66,49
98160,note_on,33,0,7,,,,,,,,,6,,60,64
98205,note_on,45,0,1,,,,,,,,,0,,57,0
98280,note_on,75,0,1,,,,,,,,,0,,63,108
98325,note_on,45,0,1,,,,,,,,,0,,60,0
98367,note_on,207,0,9,,,,,,,,,8,,45,0
98367,note_on,207,0,6,,,,,,,,,5,,63,0
98367,note_on,207,0,8,,,,,,,,,7,,57,0
98367,note_on,207,0,5,,,,,,,,,4,,66,0
98367,note_on,207,0,7,,,,,,,,,6,,60,0
98372,note_on,47,0,1,,,,,,,,,0,,63,0
98400,note_on,33,0,8,,,,,,,,,7,,57,64
98400,note_on,33,0,5,,,,,,,,,4,,66,49
98400,note_on,33,0,9,,,,,,,,,8,,45,64
98400,note_on,28,0,1,,,,,,,,,0,,63,108
98400,note_on,33,0,7,,,,,,,,,6,,60,64
98400,note_on,33,0,6,,,,,,,,,5,,63,64
98607,note_on,207,0,7,,,,,,,,,6,,60,0
98607,note_on,207,0,8,,,,,,,,,7,,57,0
98607,note_on,207,0,6,,,,,,,,,5,,63,0
98607,note_on,207,0,5,,,,,,,,,4,,66,0
98607,note_on,207,0,9,,,,,,,,,8,,45,0
98640,note_on,33,0,8,,,,,,,,,7,,57,64
98640,note_on,33,0,5,,,,,,,,,4,,66,49
98640,note_on,33,0,6,,,,,,,,,5,,63,64
98640,note_on,33,0,7,,,,,,,,,6,,60,64
98640,note_on,33,0,9,,,,,,,,,8,,45,64
98847,note_on,207,0,5,,,,,,,,,4,,66,0
98847,note_on,207,0,9,,,,,,,,,8,,45,0
98847,note_on,207,0,8,,,,,,,,,7,,57,0
98847,note_on,207,0,7,,,,,,,,,6,,60,0
98847,note_on,207,0,6,,,,,,,,,5,,63,0
98880,note_on,33,0,7,,,,,,,,,6,,60,64
98880,note_on,33,0,9,,,,,,,,,8,,45,64
98880,note_on,33,0,8,,,,,,,,,7,,57,64
98880,note_on,33,0,5,,,,,,,,,4,,66,49
98880,note_on,33,0,6,,,,,,,,,5,,63,64
99087,note_on,207,0,7,,,,,,,,,6,,60,0
99087,note_on,207,0,9,,,,,,,,,8,,45,0
99087,note_on,207,0,8,,,,,,,,,7,,57,0
99087,note_on,207,0,5,,,,,,,,,4,,66,0
99087,note_on,207,0,6,,,,,,,,,5,,63,0
99120,note_on,33,0,6,,,,,,,,,5,,63,64
99120,note_on,33,0,8,,,,,,,,,7,,57,64
99120,note_on,33,0,5,,,,,,,,,4,,66,49
99120,note_on,33,0,9,,,,,,,,,8,,45,64
99120,note_on,33,0,7,,,,,,,,,6,,60,64
99165,note_on,765,0,1,,,,,,,,,0,,63,0
99327,note_on,207,0,6,,,,,,,,,5,,63,0
99327,note_on,207,0,8,,,,,,,,,7,,57,0
99327,note_on,207,0,7,,,,,,,,,6,,60,0
99327,note_on,207,0,9,,,,,,,,,8,,45,0
99327,note_on,207,0,5,,,,,,,,,4,,66,0
99360,note_on,33,0,5,,,,,,,,,4,,67,49
99360,note_on,33,0,8,,,,,,,,,7,,58,64
99360,note_on,195,0,1,,,,,,,,,0,,62,105
99360,note_on,33,0,6,,,,,,,,,5,,62,64
99360,note_on,33,0,9,,,,,,,,,8,,46,64
99567,note_on,207,0,8,,,,,,,,,7,,58,0
99567,note_on,207,0,9,,,,,,,,,8,,46,0
99567,note_on,207,0,6,,,,,,,,,5,,62,0
99567,note_on,207,0,5,,,,,,,,,4,,67,0
99600,note_on,33,0,6,,,,,,,,,5,,62,64
99600,note_on,33,0,5,,,,,,,,,4,,67,49
99600,note_on,33,0,9,,,,,,,,,8,,46,64
99600,note_on,33,0,8,,,,,,,,,7,,58,64
99807,note_on,207,0,5,,,,,,,,,4,,67,0
99807,note_on,207,0,6,,,,,,,,,5,,62,0
99807,note_on,207,0,9,,,,,,,,,8,,46,0
99807,note_on,207,0,8,,,,,,,,,7,,58,0
99840,note_on,33,0,6,,,,,,,,,5,,62,64
99840,note_on,0,0,1,,,,,,,,,0,,60,105
99840,note_on,480,0,1,,,,,,,,,0,,62,0
99840,note_on,33,0,8,,,,,,,,,7,,58,64
99840,note_on,33,0,9,,,,,,,,,8,,46,64
99840,note_on,33,0,5,,,,,,,,,4,,67,49
99960,note_on,120,0,1,,,,,,,,,0,,58,105
100012,note_on,52,0,1,,,,,,,,,0,,60,0
100047,note_on,207,0,9,,,,,,,,,8,,46,0
100047,note_on,207,0,8,,,,,,,,,7,,58,0
100047,note_on,207,0,5,,,,,,,,,4,,67,0
100047,note_on,207,0,6,,,,,,,,,5,,62,0
100080,note_on,33,0,9,,,,,,,,,8,,46,64
100080,note_on,33,0,6,,,,,,,,,5,,62,64
100080,note_on,33,0,8,,,,,,,,,7,,58,64
100080,note_on,33,0,5,,,,,,,,,4,,67,49
100285,note_on,273,0,1,,,,,,,,,0,,58,0
100287,note_on,207,0,6,,,,,,,,,5,,62,0
100287,note_on,207,0,9,,,,,,,,,8,,46,0
100287,note_on,207,0,8,,,,,,,,,7,,58,0
100287,note_on,207,0,5,,,,,,,,,4,,67,0
100320,note_on,33,0,5,,,,,,,,,4,,67,49
100320,note_on,33,0,8,,,,,,,,,7,,58,64
100320,note_on,35,0,1,,,,,,,,,0,,57,106
100320,note_on,33,0,6,,,,,,,,,5,,62,64
100320,note_on,33,0,9,,,,,,,,,8,,46,64
100440,note_on,120,0,1,,,,,,,,,0,,55,106
100470,note_on,30,0,1,,,,,,,,,0,,57,0
100527,note_on,207,0,8,,,,,,,,,7,,58,0
100527,note_on,207,0,6,,,,,,,,,5,,62,0
100527,note_on,207,0,5,,,,,,,,,4,,67,0
100527,note_on,207,0,9,,,,,,,,,8,,46,0
100560,note_on,33,0,8,,,,,,,,,7,,58,64
100560,note_on,33,0,9,,,,,,,,,8,,46,64
100560,note_on,33,0,6,,,,,,,,,5,,62,64
100560,note_on,33,0,5,,,,,,,,,4,,67,49
100762,note_on,292,0,1,,,,,,,,,0,,55,0
100767,note_on,207,0,8,,,,,,,,,7,,58,0
100767,note_on,207,0,5,,,,,,,,,4,,67,0
100767,note_on,207,0,6,,,,,,,,,5,,62,0
100767,note_on,207,0,9,,,,,,,,,8,,46,0
100800,note_on,33,0,5,,,,,,,,,4,,66,49
100800,note_on,38,0,1,,,,,,,,,0,,54,113
100800,note_on,33,0,8,,,,,,,,,7,,60,64
100800,note_on,1473,0,7,,,,,,,,,6,,57,64
100800,note_on,33,0,6,,,,,,,,,5,,63,64
100800,note_on,33,0,9,,,,,,,,,8,,48,64
100920,note_on,120,0,1,,,,,,,,,0,,57,113
100950,note_on,30,0,1,,,,,,,,,0,,54,0
101007,note_on,207,0,6,,,,,,,,,5,,63,0
101007,note_on,207,0,8,,,,,,,,,7,,60,0
101007,note_on,207,0,9,,,,,,,,,8,,48,0
101007,note_on,207,0,5,,,,,,,,,4,,66,0
101007,note_on,207,0,7,,,,,,,,,6,,57,0
101040,note_on,33,0,7,,,,,,,,,6,,57,64
101040,note_on,33,0,6,,,,,,,,,5,,63,64
101040,note_on,33,0,8,,,,,,,,,7,,60,64
101040,note_on,33,0,9,,,,,,,,,8,,48,64
101040,note_on,90,0,1,,,,,,,,,0,,60,115
101040,note_on,33,0,5,,,,,,,,,4,,66,49
101060,note_on,20,0,1,,,,,,,,,0,,57,0
101160,note_on,100,0,1,,,,,,,,,0,,63,118
101180,note_on,20,0,1,,,,,,,,,0,,60,0
101247,note_on,207,0,8,,,,,,,,,7,,60,0
101247,note_on,207,0,9,,,,,,,,,8,,48,0
101247,note_on,207,0,6,,,,,,,,,5,,63,0
101247,note_on,207,0,7,,,,,,,,,6,,57,0
101247,note_on,207,0,5,,,,,,,,,4,,66,0
101252,note_on,72,0,1,,,,,,,,,0,,63,0
101280,note_on,33,0,7,,,,,,,,,6,,57,64
101280,note_on,28,0,1,,,,,,,,,0,,63,120
101280,note_on,33,0,8,,,,,,,,,7,,60,64
101280,note_on,33,0,6,,,,,,,,,5,,63,64
101280,note_on,33,0,5,,,,,,,,,4,,66,49
101280,note_on,33,0,9,,,,,,,,,8,,48,64
101487,note_on,207,0,8,,,,,,,,,7,,60,0
101487,note_on,207,0,6,,,,,,,,,5,,63,0
101487,note_on,207,0,5,,,,,,,,,4,,66,0
101487,note_on,207,0,9,,,,,,,,,8,,48,0
101487,note_on,207,0,7,,,,,,,,,6,,57,0
101520,note_on,33,0,8,,,,,,,,,7,,60,64
101520,note_on,33,0,6,,,,,,,,,5,,63,64
101520,note_on,33,0,9,,,,,,,,,8,,48,64
101520,note_on,33,0,7,,,,,,,,,6,,57,64
101520,note_on,33,0,5,,,,,,,,,4,,66,49
101727,note_on,207,0,5,,,,,,,,,4,,66,0
101727,note_on,207,0,7,,,,,,,,,6,,57,0
101727,note_on,207,0,9,,,,,,,,,8,,48,0
101727,note_on,207,0,6,,,,,,,,,5,,63,0
101727,note_on,207,0,8,,,,,,,,,7,,60,0
101760,note_on,33,0,8,,,,,,,,,7,,60,64
101760,note_on,33,0,6,,,,,,,,,5,,63,64
101760,note_on,33,0,5,,,,,,,,,4,,66,49
101760,note_on,33,0,9,,,,,,,,,8,,48,64
101760,note_on,33,0,7,,,,,,,,,6,,57,64
101967,note_on,207,0,7,,,,,,,,,6,,57,0
101967,note_on,207,0,6,,,,,,,,,5,,63,0
101967,note_on,207,0,5,,,,,,,,,4,,66,0
101967,note_on,207,0,9,,,,,,,,,8,,48,0
101967,note_on,207,0,8,,,,,,,,,7,,60,0
102000,note_on,33,0,5,,,,,,,,,4,,66,49
102000,note_on,33,0,7,,,,,,,,,6,,57,64
102000,note_on,33,0,9,,,,,,,,,8,,48,64
102000,note_on,33,0,6,,,,,,,,,5,,63,64
102000,note_on,33,0,8,,,,,,,,,7,,60,64
102020,note_on,740,0,1,,,,,,,,,0,,63,0
102207,note_on,207,0,7,,,,,,,,,6,,57,0
102207,note_on,207,0,8,,,,,,,,,7,,60,0
102207,note_on,207,0,5,,,,,,,,,4,,66,0
102207,note_on,207,0,9,,,,,,,,,8,,48,0
102207,note_on,207,0,6,,,,,,,,,5,,63,0
102240,note_on,33,0,8,,,,,,,,,7,,58,64
102240,note_on,33,0,5,,,,,,,,,4,,67,49
102240,note_on,33,0,9,,,,,,,,,8,,46,64
102240,note_on,33,0,6,,,,,,,,,5,,62,64
102240,note_on,220,0,1,,,,,,,,,0,,62,121
102447,note_on,207,0,5,,,,,,,,,4,,67,0
102447,note_on,207,0,6,,,,,,,,,5,,62,0
102480,note_on,33,0,6,,,,,,,,,5,,74,64
102480,note_on,33,0,5,,,,,,,,,4,,79,49
102480,note_on,240,0,1,,,,,,,,,0,,67,121
102517,note_on,37,0,1,,,,,,,,,0,,62,0
102660,note_on,420,0,9,,,,,,,,,8,,46,0
102660,note_on,143,0,1,,,,,,,,,0,,67,0
102660,note_on,420,0,8,,,,,,,,,7,,58,0
102687,note_on,207,0,6,,,,,,,,,5,,74,0
102687,note_on,207,0,5,,,,,,,,,4,,79,0
102720,note_on,33,0,5,,,,,,,,,4,,79,49
102720,note_on,60,0,1,,,,,,,,,0,,67,121
102720,note_on,60,0,8,,,,,,,,,7,,57,64
102720,note_on,60,0,9,,,,,,,,,8,,45,64
102720,note_on,33,0,6,,,,,,,,,5,,72,64
102927,note_on,207,0,5,,,,,,,,,4,,79,0
102960,note_on,33,0,5,,,,,,,,,4,,78,49
102960,note_on,240,0,1,,,,,,,,,0,,66,120
103000,note_on,40,0,1,,,,,,,,,0,,67,0
103140,note_on,420,0,9,,,,,,,,,8,,45,0
103140,note_on,420,0,6,,,,,,,,,5,,72,0
103140,note_on,420,0,8,,,,,,,,,7,,57,0
103167,note_on,207,0,5,,,,,,,,,4,,78,0
103200,note_on,60,0,9,,,,,,,,,8,,43,64
103200,note_on,200,0,1,,,,,,,,,0,,66,0
103200,note_on,60,0,6,,,,,,,,,5,,70,64
103200,note_on,60,0,8,,,,,,,,,7,,55,64
103440,note_on,273,0,5,,,,,,,,,4,,75,49
103450,note_on,250,0,1,,,,,,,,,0,,63,115
103565,note_on,115,0,1,,,,,,,,,0,,63,0
103620,note_on,420,0,6,,,,,,,,,5,,70,0
103620,note_on,420,0,9,,,,,,,,,8,,43,0
103620,note_on,420,0,8,,,,,,,,,7,,55,0
103647,note_on,207,0,5,,,,,,,,,4,,75,0
103680,note_on,60,0,9,,,,,,,,,8,,42,64
103680,note_on,115,0,1,,,,,,,,,0,,63,113
103680,note_on,60,0,8,,,,,,,,,7,,54,64
103680,note_on,60,0,6,,,,,,,,,5,,69,64
103680,note_on,33,0,5,,,,,,,,,4,,75,49
103887,note_on,207,0,5,,,,,,,,,4,,75,0
103920,note_on,33,0,5,,,,,,,,,4,,74,49
103920,note_on,240,0,1,,,,,,,,,0,,62,112
103960,note_on,40,0,1,,,,,,,,,0,,63,0
104080,note_on,120,0,1,,,,,,,,,0,,62,0
104100,note_on,420,0,9,,,,,,,,,8,,42,0
104100,note_on,420,0,6,,,,,,,,,5,,69,0
104100,note_on,420,0,8,,,,,,,,,7,,54,0
104127,note_on,207,0,5,,,,,,,,,4,,74,0
104160,note_on,1953,0,7,,,,,,,,,6,,55,64
104160,note_on,60,0,6,,,,,,,,,5,,67,64
104160,note_on,60,0,9,,,,,,,,,8,,40,64
104160,note_on,33,0,5,,,,,,,,,4,,74,49
104160,note_on,80,0,1,,,,,,,,,0,,62,110
104160,note_on,60,0,8,,,,,,,,,7,,52,64
104367,note_on,207,0,5,,,,,,,,,4,,74,0
104400,note_on,33,0,5,,,,,,,,,4,,72,49
104400,note_on,240,0,1,,,,,,,,,0,,60,110
104455,note_on,55,0,1,,,,,,,,,0,,62,0
104580,note_on,420,0,7,,,,,,,,,6,,55,0
104580,note_on,420,0,6,,,,,,,,,5,,67,0
104580,note_on,420,0,8,,,,,,,,,7,,52,0
104580,note_on,420,0,9,,,,,,,,,8,,40,0
104607,note_on,207,0,5,,,,,,,,,4,,72,0
104640,note_on,60,0,9,,,,,,,,,8,,38,64
104640,note_on,185,0,1,,,,,,,,,0,,60,0
104640,note_on,60,0,6,,,,,,,,,5,,65,64
104640,note_on,60,0,8,,,,,,,,,7,,50,64
104640,note_on,60,0,7,,,,,,,,,6,,62,64
104880,note_on,240,0,1,,,,,,,,,0,,58,108
104880,note_on,273,0,5,,,,,,,,,4,,70,49
105022,note_on,142,0,1,,,,,,,,,0,,58,0
105060,note_on,420,0,9,,,,,,,,,8,,38,0
105060,note_on,420,0,7,,,,,,,,,6,,62,0
105060,note_on,420,0,8,,,,,,,,,7,,50,0
105060,note_on,420,0,6,,,,,,,,,5,,65,0
105087,note_on,207,0,5,,,,,,,,,4,,70,0
105120,note_on,33,0,5,,,,,,,,,4,,70,49
105120,note_on,60,0,7,,,,,,,,,6,,60,64
105120,note_on,60,0,8,,,,,,,,,7,,48,64
105120,note_on,98,0,1,,,,,,,,,0,,58,108
105120,note_on,60,0,9,,,,,,,,,8,,36,64
105120,note_on,60,0,6,,,,,,,,,5,,63,64
105327,note_on,207,0,5,,,,,,,,,4,,70,0
105360,note_on,240,0,1,,,,,,,,,0,,57,108
105360,note_on,33,0,5,,,,,,,,,4,,69,49
105390,note_on,30,0,1,,,,,,,,,0,,58,0
105540,note_on,420,0,9,,,,,,,,,8,,36,0
105540,note_on,420,0,8,,,,,,,,,7,,48,0
105540,note_on,420,0,7,,,,,,,,,6,,60,0
105540,note_on,420,0,6,,,,,,,,,5,,63,0
105542,note_on,152,0,1,,,,,,,,,0,,57,0
105567,note_on,207,0,5,,,,,,,,,4,,69,0
105600,note_on,33,0,5,,,,,,,,,4,,69,49
105600,note_on,58,0,1,,,,,,,,,0,,57,108
105600,note_on,60,0,9,,,,,,,,,8,,38,64
105600,note_on,60,0,7,,,,,,,,,6,,58,64
105600,note_on,60,0,6,,,,,,,,,5,,62,64
105600,note_on,60,0,8,,,,,,,,,7,,50,64
105807,note_on,207,0,5,,,,,,,,,4,,69,0
105840,note_on,33,0,5,,,,,,,,,4,,67,49
105840,note_on,240,0,1,,,,,,,,,0,,55,108
105862,note_on,22,0,1,,,,,,,,,0,,57,0
105990,note_on,128,0,1,,,,,,,,,0,,55,0
106020,note_on,420,0,6,,,,,,,,,5,,62,0
106020,note_on,420,0,8,,,,,,,,,7,,50,0
106020,note_on,420,0,7,,,,,,,,,6,,58,0
106020,note_on,420,0,9,,,,,,,,,8,,38,0
106047,note_on,207,0,5,,,,,,,,,4,,67,0
106080,note_on,60,0,8,,,,,,,,,7,,50,64
106080,note_on,60,0,9,,,,,,,,,8,,38,64
106080,note_on,90,0,1,,,,,,,,,0,,55,108
106080,note_on,60,0,6,,,,,,,,,5,,60,64
106080,note_on,60,0,7,,,,,,,,,6,,57,64
106080,note_on,33,0,5,,,,,,,,,4,,67,49
106287,note_on,207,0,5,,,,,,,,,4,,67,0
106320,note_on,240,0,1,,,,,,,,,0,,54,108
106320,note_on,33,0,5,,,,,,,,,4,,66,49
106360,note_on,40,0,1,,,,,,,,,0,,55,0
106455,note_on,95,0,1,,,,,,,,,0,,54,0
106500,note_on,420,0,7,,,,,,,,,6,,57,0
106500,note_on,420,0,8,,,,,,,,,7,,50,0
106500,note_on,420,0,6,,,,,,,,,5,,60,0
106500,note_on,420,0,9,,,,,,,,,8,,38,0
106527,note_on,207,0,5,,,,,,,,,4,,66,0
106560,note_on,33,0,5,,,,,,,,,4,,66,49
106560,note_on,60,0,6,,,,,,,,,5,,60,64
106560,note_on,60,0,8,,,,,,,,,7,,43,64
106560,note_on,60,0,9,,,,,,,,,8,,31,64
106560,note_on,60,0,7,,,,,,,,,6,,57,64
106560,note_on,105,0,1,,,,,,,,,0,,54,108
106980,note_on,420,0,9,,,,,,,,,8,,31,0
106980,note_on,420,0,8,,,,,,,,,7,,43,0
107040,note_on,60,0,9,,,,,,,,,8,,43,64
107040,note_on,60,0,8,,,,,,,,,7,,55,64
107460,note_on,900,0,7,,,,,,,,,6,,57,0
107460,note_on,900,0,6,,,,,,,,,5,,60,0
107460,note_on,900,0,5,,,,,,,,,4,,66,0
107460,note_on,420,0,9,,,,,,,,,8,,43,0
107460,note_on,420,0,8,,,,,,,,,7,,55,0
107520,note_on,60,0,9,,,,,,,,,8,,31,64
107520,note_on,60,0,5,,,,,,,,,4,,67,49
107520,note_on,60,0,7,,,,,,,,,6,,55,64
107520,note_on,960,0,1,,,,,,,,,0,,55,105
107520,note_on,60,0,8,,,,,,,,,7,,43,64
107520,note_on,60,0,6,,,,,,,,,5,,58,64
107560,note_on,40,0,1,,,,,,,,,0,,54,0
107822,note_on,262,0,1,,,,,,,,,0,,55,0
107940,note_on,420,0,7,,,,,,,,,6,,55,0
107940,note_on,420,0,9,,,,,,,,,8,,31,0
107940,note_on,420,0,6,,,,,,,,,5,,58,0
107940,note_on,420,0,8,,,,,,,,,7,,43,0
107940,note_on,420,0,5,,,,,,,,,4,,67,0
108000,note_on,178,0,1,,,,,,,,,0,,58,105
108000,note_on,60,0,8,,,,,,,,,7,,56,64
108000,note_on,60,0,9,,,,,,,,,8,,44,64
108240,note_on,300,0,6,,,,,,,,,5,,58,64
108240,note_on,300,0,5,,,,,,,,,4,,62,49
108420,note_on,420,0,9,,,,,,,,,8,,44,0
108420,note_on,420,0,8,,,,,,,,,7,,56,0
108480,note_on,60,0,8,,,,,,,,,7,,53,64
108480,note_on,60,0,9,,,,,,,,,8,,41,64
108480,note_on,540,0,7,,,,,,,,,6,,58,64
108660,note_on,420,0,6,,,,,,,,,5,,58,0
108660,note_on,420,0,5,,,,,,,,,4,,62,0
108720,note_on,60,0,5,,,,,,,,,4,,65,49
108720,note_on,60,0,6,,,,,,,,,5,,62,64
108900,note_on,420,0,9,,,,,,,,,8,,41,0
108900,note_on,420,0,8,,,,,,,,,7,,53,0
108900,note_on,420,0,7,,,,,,,,,6,,58,0
108960,note_on,60,0,7,,,,,,,,,6,,58,64
108960,note_on,60,0,8,,,,,,,,,7,,50,64
108960,note_on,60,0,9,,,,,,,,,8,,38,64
109140,note_on,420,0,6,,,,,,,,,5,,62,0
109140,note_on,420,0,5,,,,,,,,,4,,65,0
109200,note_on,60,0,5,,,,,,,,,4,,68,49
109200,note_on,60,0,6,,,,,,,,,5,,65,64
109380,note_on,420,0,7,,,,,,,,,6,,58,0
109380,note_on,420,0,8,,,,,,,,,7,,50,0
109380,note_on,420,0,9,,,,,,,,,8,,38,0
109407,note_on,207,0,5,,,,,,,,,4,,68,0
109407,note_on,207,0,6,,,,,,,,,5,,65,0
109440,note_on,60,0,7,,,,,,,,,6,,58,64
109440,note_on,33,0,5,,,,,,,,,4,,67,49
109440,note_on,60,0,9,,,,,,,,,8,,39,64
109440,note_on,60,0,8,,,,,,,,,7,,51,64
109440,note_on,33,0,6,,,,,,,,,5,,63,64
109610,note_on,1610,0,1,,,,,,,,,0,,58,0
109680,note_on,70,0,1,,,,,,,,,0,,57,105
109860,note_on,420,0,9,,,,,,,,,8,,39,0
109860,note_on,420,0,5,,,,,,,,,4,,67,0
109860,note_on,420,0,7,,,,,,,,,6,,58,0
109860,note_on,420,0,6,,,,,,,,,5,,63,0
109860,note_on,420,0,8,,,,,,,,,7,,51,0
109920,note_on,240,0,1,,,,,,,,,0,,58,105
109967,note_on,47,0,1,,,,,,,,,0,,57,0
110160,note_on,193,0,1,,,,,,,,,0,,57,105
110190,note_on,30,0,1,,,,,,,,,0,,58,0
110400,note_on,210,0,1,,,,,,,,,0,,58,107
110440,note_on,40,0,1,,,,,,,,,0,,57,0
110640,note_on,200,0,1,,,,,,,,,0,,59,109
110687,note_on,47,0,1,,,,,,,,,0,,58,0
110870,note_on,183,0,1,,,,,,,,,0,,59,0
110880,note_on,10,0,1,,,,,,,,,0,,60,110
110880,note_on,1020,0,8,,,,,,,,,7,,58,64
110880,note_on,1020,0,9,,,,,,,,,8,,46,64
111120,note_on,1260,0,5,,,,,,,,,4,,64,49
111120,note_on,1260,0,6,,,,,,,,,5,,60,64
111300,note_on,420,0,8,,,,,,,,,7,,58,0
111300,note_on,420,0,9,,,,,,,,,8,,46,0
111360,note_on,60,0,9,,,,,,,,,8,,43,64
111360,note_on,1500,0,7,,,,,,,,,6,,60,64
111360,note_on,60,0,8,,,,,,,,,7,,55,64
111540,note_on,420,0,5,,,,,,,,,4,,64,0
111540,note_on,420,0,6,,,,,,,,,5,,60,0
111600,note_on,60,0,5,,,,,,,,,4,,67,49
111600,note_on,60,0,6,,,,,,,,,5,,64,64
111780,note_on,420,0,8,,,,,,,,,7,,55,0
111780,note_on,420,0,7,,,,,,,,,6,,60,0
111780,note_on,420,0,9,,,,,,,,,8,,43,0
111840,note_on,60,0,9,,,,,,,,,8,,40,64
111840,note_on,60,0,8,,,,,,,,,7,,52,64
111840,note_on,60,0,7,,,,,,,,,6,,60,64
112020,note_on,420,0,6,,,,,,,,,5,,64,0
112020,note_on,420,0,5,,,,,,,,,4,,67,0
112080,note_on,60,0,5,,,,,,,,,4,,70,49
112080,note_on,60,0,6,,,,,,,,,5,,67,64
112260,note_on,420,0,7,,,,,,,,,6,,60,0
112260,note_on,420,0,8,,,,,,,,,7,,52,0
112260,note_on,420,0,9,,,,,,,,,8,,40,0
112287,note_on,207,0,6,,,,,,,,,5,,67,0
112287,note_on,207,0,5,,,,,,,,,4,,70,0
112320,note_on,33,0,5,,,,,,,,,4,,69,49
112320,note_on,33,0,6,,,,,,,,,5,,65,64
112320,note_on,60,0,9,,,,,,,,,8,,41,64
112320,note_on,60,0,7,,,,,,,,,6,,60,64
112320,note_on,60,0,8,,,,,,,,,7,,53,64
112430,note_on,1550,0,1,,,,,,,,,0,,60,0
112560,note_on,130,0,1,,,,,,,,,0,,59,112
112740,note_on,420,0,5,,,,,,,,,4,,69,0
112740,note_on,420,0,9,,,,,,,,,8,,41,0
112740,note_on,420,0,8,,,,,,,,,7,,53,0
112740,note_on,420,0,7,,,,,,,,,6,,60,0
112740,note_on,420,0,6,,,,,,,,,5,,65,0
112800,note_on,240,0,1,,,,,,,,,0,,60,111
112855,note_on,55,0,1,,,,,,,,,0,,59,0
113040,note_on,0,0,1,,,,,,,,,0,,59,111
113040,note_on,185,0,1,,,,,,,,,0,,60,0
113280,note_on,240,0,1,,,,,,,,,0,,60,111
113335,note_on,55,0,1,,,,,,,,,0,,59,0
113520,note_on,185,0,1,,,,,,,,,0,,61,110
113575,note_on,55,0,1,,,,,,,,,0,,60,0
113760,note_on,1020,0,9,,,,,,,,,8,,48,64
113760,note_on,185,0,1,,,,,,,,,0,,62,110
113760,note_on,1020,0,8,,,,,,,,,7,,60,64
113762,note_on,2,0,1,,,,,,,,,0,,61,0
114000,note_on,1260,0,5,,,,,,,,,4,,66,49
114000,note_on,1260,0,6,,,,,,,,,5,,62,64
114180,note_on,420,0,8,,,,,,,,,7,,60,0
114180,note_on,420,0,9,,,,,,,,,8,,48,0
114240,note_on,60,0,8,,,,,,,,,7,,57,64
114240,note_on,60,0,9,,,,,,,,,8,,45,64
114240,note_on,1500,0,7,,,,,,,,,6,,62,64
114420,note_on,420,0,6,,,,,,,,,5,,62,0
114420,note_on,420,0,5,,,,,,,,,4,,66,0
114480,note_on,60,0,5,,,,,,,,,4,,69,49
114480,note_on,60,0,6,,,,,,,,,5,,66,64
114660,note_on,420,0,7,,,,,,,,,6,,62,0
114660,note_on,420,0,8,,,,,,,,,7,,57,0
114660,note_on,420,0,9,,,,,,,,,8,,45,0
114720,note_on,60,0,8,,,,,,,,,7,,54,64
114720,note_on,60,0,9,,,,,,,,,8,,42,64
114720,note_on,60,0,7,,,,,,,,,6,,62,64
114900,note_on,420,0,6,,,,,,,,,5,,66,0
114900,note_on,420,0,5,,,,,,,,,4,,69,0
114960,note_on,60,0,6,,,,,,,,,5,,69,64
114960,note_on,60,0,5,,,,,,,,,4,,72,49
115140,note_on,420,0,8,,,,,,,,,7,,54,0
115140,note_on,420,0,9,,,,,,,,,8,,42,0
115140,note_on,420,0,7,,,,,,,,,6,,62,0
115167,note_on,207,0,5,,,,,,,,,4,,72,0
115167,note_on,207,0,6,,,,,,,,,5,,69,0
115195,set_tempo,115195,1,0,,,,,,606061,,,,,,
115200,note_on,33,0,5,,,,,,,,,4,,70,49
115200,note_on,33,0,6,,,,,,,,,5,,67,64
115200,note_on,60,0,8,,,,,,,,,7,,55,64
115200,note_on,60,0,7,,,,,,,,,6,,62,64
115200,note_on,60,0,9,,,,,,,,,8,,43,64
115322,note_on,1560,0,1,,,,,,,,,0,,62,0
115440,note_on,118,0,1,,,,,,,,,0,,61,106
115475,set_tempo,280,1,0,,,,,,618557,,,,,,
115495,set_tempo,20,1,0,,,,,,625000,,,,,,
115517,set_tempo,22,1,0,,,,,,631579,,,,,,
115620,note_on,420,0,9,,,,,,,,,8,,43,0
115620,note_on,420,0,8,,,,,,,,,7,,55,0
115620,note_on,420,0,7,,,,,,,,,6,,62,0
115620,note_on,420,0,5,,,,,,,,,4,,70,0
115620,note_on,420,0,6,,,,,,,,,5,,67,0
115675,set_tempo,158,1,0,,,,,,645161,,,,,,
115680,note_on,240,0,1,,,,,,,,,0,,62,107
115697,set_tempo,22,1,0,,,,,,652174,,,,,,
115715,set_tempo,18,1,0,,,,,,659341,,,,,,
115740,note_on,60,0,1,,,,,,,,,0,,61,0
115905,set_tempo,190,1,0,,,,,,674157,,,,,,
115920,note_on,180,0,1,,,,,,,,,0,,61,107
115925,set_tempo,20,1,0,,,,,,681818,,,,,,
115937,set_tempo,12,1,0,,,,,,689655,,,,,,
115955,set_tempo,18,1,0,,,,,,697674,,,,,,
115962,note_on,42,0,1,,,,,,,,,0,,62,0
115965,set_tempo,10,1,0,,,,,,705882,,,,,,
115977,set_tempo,12,1,0,,,,,,714286,,,,,,
115995,set_tempo,18,1,0,,,,,,722892,,,,,,
116125,set_tempo,130,1,0,,,,,,740741,,,,,,
116155,set_tempo,30,1,0,,,,,,759494,,,,,,
116160,note_on,198,0,1,,,,,,,,,0,,62,107
116165,set_tempo,10,1,0,,,,,,769231,,,,,,
116177,set_tempo,12,1,0,,,,,,779221,,,,,,
116195,set_tempo,18,1,0,,,,,,789474,,,,,,
116202,note_on,42,0,1,,,,,,,,,0,,61,0
116205,set_tempo,10,1,0,,,,,,800000,,,,,,
116217,set_tempo,12,1,0,,,,,,821918,,,,,,
116245,set_tempo,28,1,0,,,,,,833333,,,,,,
116257,set_tempo,12,1,0,,,,,,845070,,,,,,
116325,set_tempo,68,1,0,,,,,,857143,,,,,,
116335,set_tempo,10,1,0,,,,,,869565,,,,,,
116357,set_tempo,22,1,0,,,,,,882353,,,,,,
116377,set_tempo,20,1,0,,,,,,895522,,,,,,
116400,note_on,198,0,1,,,,,,,,,0,,61,109
116405,set_tempo,28,1,0,,,,,,909091,,,,,,
116417,set_tempo,12,1,0,,,,,,923077,,,,,,
116435,set_tempo,18,1,0,,,,,,937500,,,,,,
116435,note_on,35,0,1,,,,,,,,,0,,62,0
116540,note_on,105,0,1,,,,,,,,,0,,61,0
116562,set_tempo,127,1,0,,,,,,937500,,,,,,
116620,set_tempo,58,1,0,,,,,,923077,,,,,,
116622,set_tempo,2,1,0,,,,,,594059,,,,,,
116640,note_on,1020,0,5,,,,,,,,,4,,67,49
116640,note_on,1020,0,6,,,,,,,,,5,,62,64
116640,note_on,100,0,1,,,,,,,,,0,,62,110
116640,note_on,1020,0,8,,,,,,,,,7,,55,64
116640,note_on,1020,0,7,,,,,,,,,6,,58,64
116640,note_on,1020,0,9,,,,,,,,,8,,43,64
116722,set_tempo,100,1,0,,,,,,555556,,,,,,
116847,note_on,207,0,8,,,,,,,,,7,,55,0
116847,note_on,207,0,7,,,,,,,,,6,,58,0
116847,note_on,207,0,5,,,,,,,,,4,,67,0
116847,note_on,207,0,6,,,,,,,,,5,,62,0
116847,note_on,207,0,9,,,,,,,,,8,,43,0
116880,note_on,33,0,5,,,,,,,,,4,,67,49
116880,note_on,33,0,8,,,,,,,,,7,,55,64
116880,note_on,33,0,6,,,,,,,,,5,,62,64
116880,note_on,33,0,7,,,,,,,,,6,,58,64
116880,note_on,33,0,9,,,,,,,,,8,,43,64
117087,note_on,207,0,8,,,,,,,,,7,,55,0
117087,note_on,207,0,7,,,,,,,,,6,,58,0
117087,note_on,207,0,9,,,,,,,,,8,,43,0
117087,note_on,207,0,5,,,,,,,,,4,,67,0
117087,note_on,207,0,6,,,,,,,,,5,,62,0
117120,note_on,33,0,5,,,,,,,,,4,,67,49
117120,note_on,33,0,7,,,,,,,,,6,,58,64
117120,note_on,33,0,8,,,,,,,,,7,,55,64
117120,note_on,0,0,1,,,,,,,,,0,,60,112
117120,note_on,33,0,6,,,,,,,,,5,,62,64
117120,note_on,33,0,9,,,,,,,,,8,,43,64
117120,note_on,480,0,1,,,,,,,,,0,,62,0
117240,note_on,120,0,1,,,,,,,,,0,,58,112
117275,note_on,35,0,1,,,,,,,,,0,,60,0
117327,note_on,207,0,5,,,,,,,,,4,,67,0
117327,note_on,207,0,8,,,,,,,,,7,,55,0
117327,note_on,207,0,6,,,,,,,,,5,,62,0
117327,note_on,207,0,7,,,,,,,,,6,,58,0
117327,note_on,207,0,9,,,,,,,,,8,,43,0
117360,note_on,33,0,5,,,,,,,,,4,,67,49
117360,note_on,33,0,8,,,,,,,,,7,,55,64
117360,note_on,33,0,6,,,,,,,,,5,,62,64
117360,note_on,33,0,7,,,,,,,,,6,,58,64
117360,note_on,33,0,9,,,,,,,,,8,,43,64
117567,note_on,207,0,5,,,,,,,,,4,,67,0
117567,note_on,207,0,7,,,,,,,,,6,,58,0
117567,note_on,207,0,6,,,,,,,,,5,,62,0
117567,note_on,207,0,9,,,,,,,,,8,,43,0
117567,note_on,207,0,8,,,,,,,,,7,,55,0
117570,note_on,295,0,1,,,,,,,,,0,,58,0
117600,note_on,30,0,1,,,,,,,,,0,,57,111
117600,note_on,33,0,6,,,,,,,,,5,,62,64
117600,note_on,33,0,9,,,,,,,,,8,,43,64
117600,note_on,33,0,8,,,,,,,,,7,,55,64
117600,note_on,33,0,5,,,,,,,,,4,,67,49
117600,note_on,33,0,7,,,,,,,,,6,,58,64
117720,note_on,120,0,1,,,,,,,,,0,,55,111
117747,note_on,27,0,1,,,,,,,,,0,,57,0
117807,note_on,207,0,5,,,,,,,,,4,,67,0
117807,note_on,207,0,6,,,,,,,,,5,,62,0
117807,note_on,207,0,7,,,,,,,,,6,,58,0
117807,note_on,207,0,8,,,,,,,,,7,,55,0
117807,note_on,207,0,9,,,,,,,,,8,,43,0
117840,note_on,33,0,7,,,,,,,,,6,,58,64
117840,note_on,33,0,5,,,,,,,,,4,,67,49
117840,note_on,33,0,8,,,,,,,,,7,,55,64
117840,note_on,33,0,9,,,,,,,,,8,,43,64
117840,note_on,33,0,6,,,,,,,,,5,,62,64
118027,note_on,280,0,1,,,,,,,,,0,,55,0
118047,note_on,207,0,7,,,,,,,,,6,,58,0
118047,note_on,207,0,8,,,,,,,,,7,,55,0
118047,note_on,207,0,6,,,,,,,,,5,,62,0
118047,note_on,207,0,5,,,,,,,,,4,,67,0
118047,note_on,207,0,9,,,,,,,,,8,,43,0
118080,note_on,53,0,1,,,,,,,,,0,,54,111
118080,note_on,33,0,5,,,,,,,,,4,,66,49
118080,note_on,33,0,7,,,,,,,,,6,,63,64
118080,note_on,33,0,8,,,,,,,,,7,,57,64
118080,note_on,33,0,6,,,,,,,,,5,,60,64
118080,note_on,33,0,9,,,,,,,,,8,,45,64
118200,note_on,120,0,1,,,,,,,,,0,,57,111
118227,note_on,27,0,1,,,,,,,,,0,,54,0
118287,note_on,207,0,9,,,,,,,,,8,,45,0
118287,note_on,207,0,8,,,,,,,,,7,,57,0
118287,note_on,207,0,6,,,,,,,,,5,,60,0
118287,note_on,207,0,7,,,,,,,,,6,,63,0
118287,note_on,207,0,5,,,,,,,,,4,,66,0
118320,note_on,33,0,6,,,,,,,,,5,,60,64
118320,note_on,33,0,7,,,,,,,,,6,,63,64
118320,note_on,33,0,9,,,,,,,,,8,,45,64
118320,note_on,93,0,1,,,,,,,,,0,,60,111
118320,note_on,33,0,8,,,,,,,,,7,,57,64
118320,note_on,33,0,5,,,,,,,,,4,,66,49
118347,note_on,27,0,1,,,,,,,,,0,,57,0
118440,note_on,93,0,1,,,,,,,,,0,,63,111
118467,note_on,27,0,1,,,,,,,,,0,,60,0
118515,note_on,48,0,1,,,,,,,,,0,,63,0
118527,note_on,207,0,7,,,,,,,,,6,,63,0
118527,note_on,207,0,9,,,,,,,,,8,,45,0
118527,note_on,207,0,8,,,,,,,,,7,,57,0
118527,note_on,207,0,6,,,,,,,,,5,,60,0
118527,note_on,207,0,5,,,,,,,,,4,,66,0
118560,note_on,33,0,7,,,,,,,,,6,,63,64
118560,note_on,33,0,6,,,,,,,,,5,,60,64
118560,note_on,33,0,9,,,,,,,,,8,,45,64
118560,note_on,33,0,5,,,,,,,,,4,,66,49
118560,note_on,33,0,8,,,,,,,,,7,,57,64
118560,note_on,45,0,1,,,,,,,,,0,,63,111
118767,note_on,207,0,6,,,,,,,,,5,,60,0
118767,note_on,207,0,7,,,,,,,,,6,,63,0
118767,note_on,207,0,9,,,,,,,,,8,,45,0
118767,note_on,207,0,5,,,,,,,,,4,,66,0
118767,note_on,207,0,8,,,,,,,,,7,,57,0
118800,note_on,33,0,6,,,,,,,,,5,,60,64
118800,note_on,33,0,9,,,,,,,,,8,,45,64
118800,note_on,33,0,8,,,,,,,,,7,,57,64
118800,note_on,33,0,7,,,,,,,,,6,,63,64
118800,note_on,33,0,5,,,,,,,,,4,,66,49
119007,note_on,207,0,8,,,,,,,,,7,,57,0
119007,note_on,207,0,6,,,,,,,,,5,,60,0
119007,note_on,207,0,9,,,,,,,,,8,,45,0
119007,note_on,207,0,5,,,,,,,,,4,,66,0
119007,note_on,207,0,7,,,,,,,,,6,,63,0
119040,note_on,33,0,7,,,,,,,,,6,,63,64
119040,note_on,33,0,8,,,,,,,,,7,,57,64
119040,note_on,33,0,5,,,,,,,,,4,,66,49
119040,note_on,33,0,6,,,,,,,,,5,,60,64
119040,note_on,33,0,9,,,,,,,,,8,,45,64
119247,note_on,207,0,6,,,,,,,,,5,,60,0
119247,note_on,207,0,9,,,,,,,,,8,,45,0
119247,note_on,207,0,5,,,,,,,,,4,,66,0
119247,note_on,207,0,7,,,,,,,,,6,,63,0
119247,note_on,207,0,8,,,,,,,,,7,,57,0
119280,note_on,33,0,6,,,,,,,,,5,,60,64
119280,note_on,33,0,5,,,,,,,,,4,,66,49
119280,note_on,33,0,7,,,,,,,,,6,,63,64
119280,note_on,33,0,8,,,,,,,,,7,,57,64
119280,note_on,33,0,9,,,,,,,,,8,,45,64
119310,note_on,750,0,1,,,,,,,,,0,,63,0
119487,note_on,207,0,6,,,,,,,,,5,,60,0
119487,note_on,207,0,9,,,,,,,,,8,,45,0
119487,note_on,207,0,7,,,,,,,,,6,,63,0
119487,note_on,207,0,5,,,,,,,,,4,,66,0
119487,note_on,207,0,8,,,,,,,,,7,,57,0
119520,note_on,33,0,6,,,,,,,,,5,,58,64
119520,note_on,33,0,9,,,,,,,,,8,,46,64
119520,note_on,210,0,1,,,,,,,,,0,,62,115
119520,note_on,33,0,5,,,,,,,,,4,,67,49
119520,note_on,33,0,8,,,,,,,,,7,,58,64
119520,note_on,33,0,7,,,,,,,,,6,,62,64
119727,note_on,207,0,8,,,,,,,,,7,,58,0
119727,note_on,207,0,9,,,,,,,,,8,,46,0
119727,note_on,207,0,6,,,,,,,,,5,,58,0
119727,note_on,207,0,7,,,,,,,,,6,,62,0
119727,note_on,207,0,5,,,,,,,,,4,,67,0
119760,note_on,33,0,8,,,,,,,,,7,,58,64
119760,note_on,33,0,9,,,,,,,,,8,,46,64
119760,note_on,33,0,6,,,,,,,,,5,,62,64
119760,note_on,33,0,5,,,,,,,,,4,,67,49
119967,note_on,207,0,9,,,,,,,,,8,,46,0
119967,note_on,207,0,5,,,,,,,,,4,,67,0
119967,note_on,207,0,6,,,,,,,,,5,,62,0
119967,note_on,207,0,8,,,,,,,,,7,,58,0
120000,note_on,33,0,9,,,,,,,,,8,,46,64
120000,note_on,33,0,5,,,,,,,,,4,,67,49
120000,note_on,33,0,8,,,,,,,,,7,,58,64
120000,note_on,0,0,1,,,,,,,,,0,,60,115
120000,note_on,33,0,6,,,,,,,,,5,,62,64
120000,note_on,480,0,1,,,,,,,,,0,,62,0
120120,note_on,120,0,1,,,,,,,,,0,,58,115
120162,note_on,42,0,1,,,,,,,,,0,,60,0
120207,note_on,207,0,9,,,,,,,,,8,,46,0
120207,note_on,207,0,6,,,,,,,,,5,,62,0
120207,note_on,207,0,5,,,,,,,,,4,,67,0
120207,note_on,207,0,8,,,,,,,,,7,,58,0
120240,note_on,33,0,6,,,,,,,,,5,,62,64
120240,note_on,33,0,9,,,,,,,,,8,,46,64
120240,note_on,33,0,5,,,,,,,,,4,,67,49
120240,note_on,33,0,8,,,,,,,,,7,,58,64
120447,note_on,207,0,8,,,,,,,,,7,,58,0
120447,note_on,207,0,6,,,,,,,,,5,,62,0
120447,note_on,207,0,9,,,,,,,,,8,,46,0
120447,note_on,207,0,5,,,,,,,,,4,,67,0
120480,note_on,0,0,1,,,,,,,,,0,,57,115
120480,note_on,318,0,1,,,,,,,,,0,,58,0
120480,note_on,33,0,5,,,,,,,,,4,,67,49
120480,note_on,33,0,9,,,,,,,,,8,,46,64
120480,note_on,33,0,8,,,,,,,,,7,,58,64
120480,note_on,33,0,6,,,,,,,,,5,,62,64
120600,note_on,120,0,1,,,,,,,,,0,,55,115
120625,note_on,25,0,1,,,,,,,,,0,,57,0
120687,note_on,207,0,6,,,,,,,,,5,,62,0
120687,note_on,207,0,5,,,,,,,,,4,,67,0
120687,note_on,207,0,8,,,,,,,,,7,,58,0
120687,note_on,207,0,9,,,,,,,,,8,,46,0
120720,note_on,33,0,6,,,,,,,,,5,,62,64
120720,note_on,33,0,5,,,,,,,,,4,,67,49
120720,note_on,33,0,8,,,,,,,,,7,,58,64
120720,note_on,33,0,9,,,,,,,,,8,,46,64
120905,note_on,280,0,1,,,,,,,,,0,,55,0
120927,note_on,207,0,5,,,,,,,,,4,,67,0
120927,note_on,207,0,6,,,,,,,,,5,,62,0
120927,note_on,207,0,8,,,,,,,,,7,,58,0
120927,note_on,207,0,9,,,,,,,,,8,,46,0
120960,note_on,33,0,8,,,,,,,,,7,,60,64
120960,note_on,55,0,1,,,,,,,,,0,,54,115
120960,note_on,33,0,5,,,,,,,,,4,,66,49
120960,note_on,33,0,9,,,,,,,,,8,,48,64
120960,note_on,1233,0,7,,,,,,,,,6,,57,64
120960,note_on,33,0,6,,,,,,,,,5,,63,64
121080,note_on,120,0,1,,,,,,,,,0,,57,115
121105,note_on,25,0,1,,,,,,,,,0,,54,0
121167,note_on,207,0,9,,,,,,,,,8,,48,0
121167,note_on,207,0,8,,,,,,,,,7,,60,0
121167,note_on,207,0,7,,,,,,,,,6,,57,0
121167,note_on,207,0,6,,,,,,,,,5,,63,0
121167,note_on,207,0,5,,,,,,,,,4,,66,0
121200,note_on,33,0,6,,,,,,,,,5,,63,64
121200,note_on,33,0,5,,,,,,,,,4,,66,49
121200,note_on,33,0,7,,,,,,,,,6,,57,64
121200,note_on,33,0,9,,,,,,,,,8,,48,64
121200,note_on,95,0,1,,,,,,,,,0,,60,115
121200,note_on,33,0,8,,,,,,,,,7,,60,64
121225,note_on,25,0,1,,,,,,,,,0,,57,0
121320,note_on,95,0,1,,,,,,,,,0,,63,115
121337,note_on,17,0,1,,,,,,,,,0,,60,0
121395,note_on,58,0,1,,,,,,,,,0,,63,0
121407,note_on,207,0,6,,,,,,,,,5,,63,0
121407,note_on,207,0,9,,,,,,,,,8,,48,0
121407,note_on,207,0,7,,,,,,,,,6,,57,0
121407,note_on,207,0,5,,,,,,,,,4,,66,0
121407,note_on,207,0,8,,,,,,,,,7,,60,0
121440,note_on,33,0,5,,,,,,,,,4,,66,49
121440,note_on,33,0,8,,,,,,,,,7,,60,64
121440,note_on,33,0,9,,,,,,,,,8,,48,64
121440,note_on,33,0,6,,,,,,,,,5,,63,64
121440,note_on,33,0,7,,,,,,,,,6,,57,64
121440,note_on,45,0,1,,,,,,,,,0,,63,115
121647,note_on,207,0,6,,,,,,,,,5,,63,0
121647,note_on,207,0,5,,,,,,,,,4,,66,0
121647,note_on,207,0,7,,,,,,,,,6,,57,0
121647,note_on,207,0,8,,,,,,,,,7,,60,0
121647,note_on,207,0,9,,,,,,,,,8,,48,0
121680,note_on,33,0,9,,,,,,,,,8,,48,64
121680,note_on,33,0,6,,,,,,,,,5,,63,64
121680,note_on,33,0,8,,,,,,,,,7,,60,64
121680,note_on,33,0,7,,,,,,,,,6,,57,64
121680,note_on,33,0,5,,,,,,,,,4,,66,49
121887,note_on,207,0,7,,,,,,,,,6,,57,0
121887,note_on,207,0,8,,,,,,,,,7,,60,0
121887,note_on,207,0,5,,,,,,,,,4,,66,0
121887,note_on,207,0,9,,,,,,,,,8,,48,0
121887,note_on,207,0,6,,,,,,,,,5,,63,0
121920,note_on,33,0,9,,,,,,,,,8,,48,64
121920,note_on,33,0,5,,,,,,,,,4,,66,49
121920,note_on,33,0,6,,,,,,,,,5,,63,64
121920,note_on,33,0,7,,,,,,,,,6,,57,64
121920,note_on,33,0,8,,,,,,,,,7,,60,64
122127,note_on,207,0,7,,,,,,,,,6,,57,0
122127,note_on,207,0,8,,,,,,,,,7,,60,0
122127,note_on,207,0,5,,,,,,,,,4,,66,0
122127,note_on,207,0,9,,,,,,,,,8,,48,0
122127,note_on,207,0,6,,,,,,,,,5,,63,0
122160,note_on,33,0,7,,,,,,,,,6,,57,64
122160,note_on,33,0,5,,,,,,,,,4,,66,49
122160,note_on,33,0,9,,,,,,,,,8,,48,64
122160,note_on,33,0,6,,,,,,,,,5,,63,64
122160,note_on,33,0,8,,,,,,,,,7,,60,64
122210,note_on,770,0,1,,,,,,,,,0,,63,0
122367,note_on,207,0,9,,,,,,,,,8,,48,0
122367,note_on,207,0,6,,,,,,,,,5,,63,0
122367,note_on,207,0,8,,,,,,,,,7,,60,0
122367,note_on,207,0,5,,,,,,,,,4,,66,0
122367,note_on,207,0,7,,,,,,,,,6,,57,0
122400,note_on,190,0,1,,,,,,,,,0,,62,120
122400,note_on,33,0,6,,,,,,,,,5,,62,64
122400,note_on,33,0,8,,,,,,,,,7,,58,64
122400,note_on,33,0,9,,,,,,,,,8,,46,64
122400,note_on,33,0,5,,,,,,,,,4,,67,49
122607,note_on,207,0,6,,,,,,,,,5,,62,0
122607,note_on,207,0,5,,,,,,,,,4,,67,0
122640,note_on,33,0,5,,,,,,,,,4,,79,49
122640,note_on,33,0,6,,,,,,,,,5,,74,64
122640,note_on,240,0,1,,,,,,,,,0,,67,120
122665,note_on,25,0,1,,,,,,,,,0,,62,0
122820,note_on,420,0,9,,,,,,,,,8,,46,0
122820,note_on,420,0,8,,,,,,,,,7,,58,0
122825,note_on,160,0,1,,,,,,,,,0,,67,0
122847,note_on,207,0,5,,,,,,,,,4,,79,0
122847,note_on,207,0,6,,,,,,,,,5,,74,0
122880,note_on,33,0,6,,,,,,,,,5,,72,64
122880,note_on,33,0,5,,,,,,,,,4,,79,49
122880,note_on,60,0,9,,,,,,,,,8,,45,64
122880,note_on,60,0,8,,,,,,,,,7,,57,64
122880,note_on,55,0,1,,,,,,,,,0,,67,120
123087,note_on,207,0,5,,,,,,,,,4,,79,0
123120,note_on,33,0,5,,,,,,,,,4,,78,49
123120,note_on,240,0,1,,,,,,,,,0,,66,120
123162,note_on,42,0,1,,,,,,,,,0,,67,0
123300,note_on,420,0,8,,,,,,,,,7,,57,0
123300,note_on,420,0,9,,,,,,,,,8,,45,0
123300,note_on,420,0,6,,,,,,,,,5,,72,0
123322,note_on,160,0,1,,,,,,,,,0,,66,0
123327,note_on,207,0,5,,,,,,,,,4,,78,0
123360,note_on,60,0,8,,,,,,,,,7,,55,64
123360,note_on,60,0,6,,,,,,,,,5,,70,64
123360,note_on,60,0,9,,,,,,,,,8,,43,64
123600,note_on,278,0,1,,,,,,,,,0,,63,119
123600,note_on,273,0,5,,,,,,,,,4,,75,49
123722,note_on,122,0,1,,,,,,,,,0,,63,0
123780,note_on,420,0,9,,,,,,,,,8,,43,0
123780,note_on,420,0,8,,,,,,,,,7,,55,0
123780,note_on,420,0,6,,,,,,,,,5,,70,0
123807,note_on,207,0,5,,,,,,,,,4,,75,0
123840,note_on,60,0,9,,,,,,,,,8,,42,64
123840,note_on,33,0,5,,,,,,,,,4,,75,49
123840,note_on,60,0,8,,,,,,,,,7,,54,64
123840,note_on,118,0,1,,,,,,,,,0,,63,118
123840,note_on,60,0,6,,,,,,,,,5,,69,64
124047,note_on,207,0,5,,,,,,,,,4,,75,0
124080,note_on,240,0,1,,,,,,,,,0,,62,118
124080,note_on,33,0,5,,,,,,,,,4,,74,49
124115,note_on,35,0,1,,,,,,,,,0,,63,0
124210,note_on,95,0,1,,,,,,,,,0,,62,0
124260,note_on,420,0,8,,,,,,,,,7,,54,0
124260,note_on,420,0,9,,,,,,,,,8,,42,0
124260,note_on,420,0,6,,,,,,,,,5,,69,0
124287,note_on,207,0,5,,,,,,,,,4,,74,0
124320,note_on,60,0,6,,,,,,,,,5,,67,64
124320,note_on,33,0,5,,,,,,,,,4,,74,49
124320,note_on,60,0,8,,,,,,,,,7,,51,64
124320,note_on,60,0,9,,,,,,,,,8,,39,64
124320,note_on,110,0,1,,,,,,,,,0,,62,116
124527,note_on,207,0,5,,,,,,,,,4,,74,0
124560,note_on,240,0,1,,,,,,,,,0,,62,0
124560,note_on,33,0,5,,,,,,,,,4,,72,49
124560,note_on,0,0,1,,,,,,,,,0,,60,114
124740,note_on,420,0,8,,,,,,,,,7,,51,0
124740,note_on,420,0,6,,,,,,,,,5,,67,0
124740,note_on,420,0,9,,,,,,,,,8,,39,0
124767,note_on,207,0,5,,,,,,,,,4,,72,0
124800,note_on,2433,0,7,,,,,,,,,6,,62,64
124800,note_on,240,0,1,,,,,,,,,0,,60,0
124800,note_on,60,0,8,,,,,,,,,7,,50,64
124800,note_on,60,0,6,,,,,,,,,5,,65,64
124800,note_on,60,0,9,,,,,,,,,8,,38,64
125040,note_on,273,0,5,,,,,,,,,4,,70,49
125040,note_on,240,0,1,,,,,,,,,0,,58,111
125160,note_on,120,0,1,,,,,,,,,0,,58,0
125220,note_on,420,0,6,,,,,,,,,5,,65,0
125220,note_on,420,0,8,,,,,,,,,7,,50,0
125220,note_on,420,0,9,,,,,,,,,8,,38,0
125220,note_on,420,0,7,,,,,,,,,6,,62,0
125247,note_on,207,0,5,,,,,,,,,4,,70,0
125280,note_on,60,0,6,,,,,,,,,5,,63,64
125280,note_on,33,0,5,,,,,,,,,4,,70,49
125280,note_on,60,0,7,,,,,,,,,6,,60,64
125280,note_on,120,0,1,,,,,,,,,0,,58,109
125280,note_on,60,0,9,,,,,,,,,8,,36,64
125280,note_on,60,0,8,,,,,,,,,7,,48,64
125487,note_on,207,0,5,,,,,,,,,4,,70,0
125520,note_on,33,0,5,,,,,,,,,4,,69,49
125520,note_on,240,0,1,,,,,,,,,0,,57,108
125560,note_on,40,0,1,,,,,,,,,0,,58,0
125680,note_on,120,0,1,,,,,,,,,0,,57,0
125700,note_on,420,0,9,,,,,,,,,8,,36,0
125700,note_on,420,0,7,,,,,,,,,6,,60,0
125700,note_on,420,0,6,,,,,,,,,5,,63,0
125700,note_on,420,0,8,,,,,,,,,7,,48,0
125727,note_on,207,0,5,,,,,,,,,4,,69,0
125760,note_on,60,0,6,,,,,,,,,5,,62,64
125760,note_on,60,0,8,,,,,,,,,7,,50,64
125760,note_on,60,0,9,,,,,,,,,8,,38,64
125760,note_on,60,0,7,,,,,,,,,6,,58,64
125760,note_on,33,0,5,,,,,,,,,4,,69,49
125760,note_on,80,0,1,,,,,,,,,0,,57,106
125967,note_on,207,0,5,,,,,,,,,4,,69,0
126000,note_on,33,0,5,,,,,,,,,4,,67,49
126000,note_on,240,0,1,,,,,,,,,0,,55,104
126025,note_on,25,0,1,,,,,,,,,0,,57,0
126170,note_on,145,0,1,,,,,,,,,0,,55,0
126180,note_on,420,0,6,,,,,,,,,5,,62,0
126180,note_on,420,0,7,,,,,,,,,6,,58,0
126180,note_on,420,0,9,,,,,,,,,8,,38,0
126180,note_on,420,0,8,,,,,,,,,7,,50,0
126207,note_on,207,0,5,,,,,,,,,4,,67,0
126240,note_on,33,0,5,,,,,,,,,4,,67,49
126240,note_on,60,0,6,,,,,,,,,5,,60,64
126240,note_on,70,0,1,,,,,,,,,0,,55,104
126240,note_on,60,0,9,,,,,,,,,8,,38,64
126240,note_on,60,0,7,,,,,,,,,6,,57,64
126240,note_on,60,0,8,,,,,,,,,7,,50,64
126447,note_on,207,0,5,,,,,,,,,4,,67,0
126480,note_on,33,0,5,,,,,,,,,4,,66,49
126480,note_on,240,0,1,,,,,,,,,0,,54,102
126505,note_on,25,0,1,,,,,,,,,0,,55,0
126617,note_on,112,0,1,,,,,,,,,0,,54,0
126660,note_on,420,0,8,,,,,,,,,7,,50,0
126660,note_on,420,0,6,,,,,,,,,5,,60,0
126660,note_on,420,0,7,,,,,,,,,6,,57,0
126660,note_on,420,0,9,,,,,,,,,8,,38,0
126687,note_on,207,0,5,,,,,,,,,4,,66,0
126720,note_on,60,0,7,,,,,,,,,6,,57,64
126720,note_on,60,0,9,,,,,,,,,8,,31,64
126720,note_on,60,0,6,,,,,,,,,5,,60,64
126720,note_on,33,0,5,,,,,,,,,4,,66,49
126720,note_on,103,0,1,,,,,,,,,0,,54,102
126720,note_on,60,0,8,,,,,,,,,7,,43,64
127140,note_on,420,0,9,,,,,,,,,8,,31,0
127140,note_on,420,0,8,,,,,,,,,7,,43,0
127200,note_on,60,0,8,,,,,,,,,7,,55,64
127200,note_on,60,0,9,,,,,,,,,8,,43,64
127620,note_on,420,0,8,,,,,,,,,7,,55,0
127620,note_on,900,0,7,,,,,,,,,6,,57,0
127620,note_on,420,0,9,,,,,,,,,8,,43,0
127620,note_on,900,0,5,,,,,,,,,4,,66,0
127620,note_on,900,0,6,,,,,,,,,5,,60,0
127680,note_on,60,0,8,,,,,,,,,7,,43,64
127680,note_on,60,0,5,,,,,,,,,4,,67,49
127680,note_on,60,0,9,,,,,,,,,8,,31,64
127680,note_on,60,0,7,,,,,,,,,6,,55,64
127680,note_on,960,0,1,,,,,,,,,0,,55,102
127680,note_on,60,0,6,,,,,,,,,5,,58,64
127745,note_on,65,0,1,,,,,,,,,0,,54,0
128100,note_on,420,0,5,,,,,,,,,4,,67,0
128100,note_on,420,0,6,,,,,,,,,5,,58,0
128100,note_on,420,0,8,,,,,,,,,7,,43,0
128100,note_on,420,0,7,,,,,,,,,6,,55,0
128100,note_on,420,0,9,,,,,,,,,8,,31,0
128160,note_on,0,0,5,,,,,,,,,4,,70,88
128160,note_on,31740,0,4,,,,,,,,,3,,58,88
128160,note_on,60,0,5,,,,,,,,,4,,62,88
128160,note_on,32220,0,3,,,,,,,,,2,,62,71
128160,note_on,32220,0,2,,,,,,,,,1,,70,72
128160,note_on,60,0,8,,,,,,,,,7,,58,64
128160,note_on,60,0,6,,,,,,,,,5,,65,64
128160,note_on,415,0,1,,,,,,,,,0,,55,0
128160,note_on,60,0,9,,,,,,,,,8,,46,64
128160,note_on,0,0,3,,,,,,,,,2,,70,71
128160,note_on,60,0,7,,,,,,,,,6,,62,64
128580,note_on,420,0,4,,,,,,,,,3,,58,0
128580,note_on,420,0,9,,,,,,,,,8,,46,0
128580,note_on,420,0,7,,,,,,,,,6,,62,0
128580,note_on,420,0,8,,,,,,,,,7,,58,0
128640,note_on,60,0,7,,,,,,,,,6,,70,64
128640,note_on,60,0,9,,,,,,,,,8,,50,64
128640,note_on,60,0,4,,,,,,,,,3,,62,88
128640,note_on,60,0,8,,,,,,,,,7,,62,64
129060,note_on,900,0,6,,,,,,,,,5,,65,0
129060,note_on,900,0,3,,,,,,,,,2,,70,0
129060,note_on,900,0,2,,,,,,,,,1,,70,0
129060,note_on,0,0,5,,,,,,,,,4,,62,0
129060,note_on,900,0,5,,,,,,,,,4,,70,0
129060,note_on,420,0,7,,,,,,,,,6,,70,0
129060,note_on,420,0,8,,,,,,,,,7,,62,0
129060,note_on,0,0,3,,,,,,,,,2,,62,0
129060,note_on,420,0,4,,,,,,,,,3,,62,0
129060,note_on,420,0,9,,,,,,,,,8,,50,0
129120,note_on,60,0,4,,,,,,,,,3,,58,88
129120,note_on,0,0,2,,,,,,,,,1,,72,72
129120,note_on,60,0,2,,,,,,,,,1,,69,72
129120,note_on,60,0,6,,,,,,,,,5,,63,64
129120,note_on,60,0,5,,,,,,,,,4,,72,88
129120,note_on,60,0,7,,,,,,,,,6,,69,64
129120,note_on,60,0,8,,,,,,,,,7,,58,64
129120,note_on,60,0,9,,,,,,,,,8,,46,64
129327,note_on,207,0,6,,,,,,,,,5,,63,0
129327,note_on,0,0,2,,,,,,,,,1,,69,0
129327,note_on,207,0,5,,,,,,,,,4,,72,0
129327,note_on,207,0,2,,,,,,,,,1,,72,0
129327,note_on,207,0,7,,,,,,,,,6,,69,0
129360,note_on,33,0,7,,,,,,,,,6,,70,64
129360,note_on,0,0,2,,,,,,,,,1,,74,72
129360,note_on,33,0,6,,,,,,,,,5,,62,64
129360,note_on,33,0,2,,,,,,,,,1,,70,72
129360,note_on,33,0,5,,,,,,,,,4,,74,88
129540,note_on,420,0,9,,,,,,,,,8,,46,0
129540,note_on,420,0,4,,,,,,,,,3,,58,0
129540,note_on,420,0,8,,,,,,,,,7,,58,0
129567,note_on,207,0,5,,,,,,,,,4,,74,0
129567,note_on,207,0,2,,,,,,,,,1,,74,0
129567,note_on,207,0,7,,,,,,,,,6,,70,0
129567,note_on,0,0,2,,,,,,,,,1,,70,0
129567,note_on,207,0,6,,,,,,,,,5,,62,0
129600,note_on,33,0,6,,,,,,,,,5,,67,64
129600,note_on,33,0,2,,,,,,,,,1,,67,72
129600,note_on,33,0,7,,,,,,,,,6,,67,64
129600,note_on,60,0,8,,,,,,,,,7,,60,64
129600,note_on,0,0,2,,,,,,,,,1,,77,72
129600,note_on,60,0,9,,,,,,,,,8,,48,64
129600,note_on,60,0,4,,,,,,,,,3,,60,88
129600,note_on,33,0,5,,,,,,,,,4,,77,88
129807,note_on,207,0,2,,,,,,,,,1,,77,0
129807,note_on,207,0,5,,,,,,,,,4,,77,0
129840,note_on,33,0,2,,,,,,,,,1,,75,72
129840,note_on,33,0,5,,,,,,,,,4,,75,88
130020,note_on,420,0,4,,,,,,,,,3,,60,0
130020,note_on,420,0,8,,,,,,,,,7,,60,0
130020,note_on,420,0,9,,,,,,,,,8,,48,0
130020,note_on,420,0,6,,,,,,,,,5,,67,0
130047,note_on,0,0,2,,,,,,,,,1,,67,0
130047,note_on,207,0,2,,,,,,,,,1,,75,0
130047,note_on,207,0,5,,,,,,,,,4,,75,0
130080,note_on,33,0,5,,,,,,,,,4,,75,88
130080,note_on,60,0,8,,,,,,,,,7,,55,64
130080,note_on,0,0,2,,,,,,,,,1,,75,72
130080,note_on,0,0,3,,,,,,,,,2,,70,71
130080,note_on,33,0,2,,,,,,,,,1,,70,72
130080,note_on,60,0,6,,,,,,,,,5,,58,64
130080,note_on,60,0,4,,,,,,,,,3,,55,88
130080,note_on,60,0,9,,,,,,,,,8,,43,64
130080,note_on,1020,0,3,,,,,,,,,2,,58,71
130500,note_on,420,0,3,,,,,,,,,2,,70,0
130500,note_on,900,0,7,,,,,,,,,6,,67,0
130500,note_on,420,0,8,,,,,,,,,7,,55,0
130500,note_on,420,0,4,,,,,,,,,3,,55,0
130500,note_on,420,0,9,,,,,,,,,8,,43,0
130500,note_on,0,0,3,,,,,,,,,2,,58,0
130500,note_on,420,0,6,,,,,,,,,5,,58,0
130500,note_on,420,0,2,,,,,,,,,1,,70,0
130560,note_on,60,0,9,,,,,,,,,8,,45,64
130560,note_on,60,0,8,,,,,,,,,7,,57,64
130560,note_on,60,0,2,,,,,,,,,1,,72,72
130560,note_on,60,0,7,,,,,,,,,6,,65,64
130560,note_on,0,0,3,,,,,,,,,2,,72,71
130560,note_on,60,0,3,,,,,,,,,2,,65,71
130560,note_on,60,0,4,,,,,,,,,3,,57,88
130560,note_on,60,0,6,,,,,,,,,5,,60,64
130980,note_on,0,0,3,,,,,,,,,2,,65,0
130980,note_on,420,0,3,,,,,,,,,2,,72,0
130980,note_on,420,0,9,,,,,,,,,8,,45,0
130980,note_on,420,0,8,,,,,,,,,7,,57,0
130980,note_on,420,0,4,,,,,,,,,3,,57,0
130980,note_on,420,0,6,,,,,,,,,5,,60,0
130980,note_on,900,0,5,,,,,,,,,4,,75,0
130980,note_on,0,0,2,,,,,,,,,1,,75,0
130980,note_on,420,0,7,,,,,,,,,6,,65,0
130980,note_on,420,0,2,,,,,,,,,1,,72,0
131040,note_on,0,0,3,,,,,,,,,2,,74,71
131040,note_on,0,0,2,,,,,,,,,1,,74,72
131040,note_on,60,0,3,,,,,,,,,2,,70,71
131040,note_on,60,0,4,,,,,,,,,3,,58,88
131040,note_on,60,0,5,,,,,,,,,4,,74,88
131040,note_on,60,0,2,,,,,,,,,1,,70,72
131040,note_on,60,0,8,,,,,,,,,7,,58,64
131040,note_on,60,0,6,,,,,,,,,5,,58,64
131040,note_on,60,0,9,,,,,,,,,8,,46,64
131040,note_on,60,0,7,,,,,,,,,6,,65,64
131247,note_on,207,0,7,,,,,,,,,6,,65,0
131247,note_on,207,0,2,,,,,,,,,1,,74,0
131247,note_on,207,0,6,,,,,,,,,5,,58,0
131247,note_on,207,0,5,,,,,,,,,4,,74,0
131280,note_on,33,0,5,,,,,,,,,4,,70,88
131280,note_on,33,0,2,,,,,,,,,1,,77,72
131280,note_on,33,0,7,,,,,,,,,6,,62,64
131280,note_on,33,0,6,,,,,,,,,5,,62,64
131280,note_on,0,0,5,,,,,,,,,4,,77,88
131460,note_on,420,0,4,,,,,,,,,3,,58,0
131460,note_on,420,0,9,,,,,,,,,8,,46,0
131460,note_on,420,0,8,,,,,,,,,7,,58,0
131487,note_on,207,0,5,,,,,,,,,4,,77,0
131487,note_on,0,0,5,,,,,,,,,4,,70,0
131487,note_on,207,0,6,,,,,,,,,5,,62,0
131487,note_on,207,0,7,,,,,,,,,6,,62,0
131487,note_on,207,0,2,,,,,,,,,1,,77,0
131487,note_on,0,0,2,,,,,,,,,1,,70,0
131520,note_on,60,0,8,,,,,,,,,7,,55,64
131520,note_on,60,0,4,,,,,,,,,3,,55,88
131520,note_on,33,0,5,,,,,,,,,4,,70,88
131520,note_on,33,0,6,,,,,,,,,5,,62,64
131520,note_on,33,0,7,,,,,,,,,6,,67,64
131520,note_on,33,0,2,,,,,,,,,1,,74,72
131520,note_on,0,0,2,,,,,,,,,1,,82,72
131520,note_on,60,0,9,,,,,,,,,8,,43,64
131727,note_on,207,0,5,,,,,,,,,4,,70,0
131727,note_on,207,0,7,,,,,,,,,6,,67,0
131727,note_on,207,0,6,,,,,,,,,5,,62,0
131760,note_on,33,0,5,,,,,,,,,4,,74,88
131760,note_on,33,0,6,,,,,,,,,5,,70,64
131760,note_on,33,0,7,,,,,,,,,6,,58,64
131940,note_on,420,0,2,,,,,,,,,1,,82,0
131940,note_on,420,0,9,,,,,,,,,8,,43,0
131940,note_on,420,0,4,,,,,,,,,3,,55,0
131940,note_on,0,0,3,,,,,,,,,2,,70,0
131940,note_on,900,0,3,,,,,,,,,2,,74,0
131940,note_on,420,0,8,,,,,,,,,7,,55,0
131940,note_on,0,0,2,,,,,,,,,1,,74,0
131967,note_on,207,0,5,,,,,,,,,4,,74,0
131967,note_on,207,0,6,,,,,,,,,5,,70,0
131967,note_on,207,0,7,,,,,,,,,6,,58,0
132000,note_on,33,0,7,,,,,,,,,6,,63,64
132000,note_on,33,0,5,,,,,,,,,4,,67,88
132000,note_on,60,0,9,,,,,,,,,8,,39,64
132000,note_on,33,0,6,,,,,,,,,5,,67,64
132000,note_on,60,0,4,,,,,,,,,3,,51,88
132000,note_on,60,0,2,,,,,,,,,1,,79,72
132000,note_on,0,0,3,,,,,,,,,2,,75,71
132000,note_on,60,0,8,,,,,,,,,7,,51,64
132000,note_on,60,0,3,,,,,,,,,2,,72,71
132207,note_on,207,0,6,,,,,,,,,5,,67,0
132207,note_on,207,0,2,,,,,,,,,1,,79,0
132207,note_on,207,0,5,,,,,,,,,4,,67,0
132207,note_on,207,0,7,,,,,,,,,6,,63,0
132240,note_on,33,0,5,,,,,,,,,4,,72,88
132240,note_on,33,0,2,,,,,,,,,1,,75,72
132240,note_on,0,0,2,,,,,,,,,1,,84,72
132240,note_on,33,0,7,,,,,,,,,6,,60,64
132240,note_on,33,0,6,,,,,,,,,5,,63,64
132420,note_on,420,0,3,,,,,,,,,2,,75,0
132420,note_on,420,0,4,,,,,,,,,3,,51,0
132420,note_on,0,0,3,,,,,,,,,2,,72,0
132420,note_on,420,0,9,,,,,,,,,8,,39,0
132420,note_on,420,0,8,,,,,,,,,7,,51,0
132447,note_on,207,0,5,,,,,,,,,4,,72,0
132447,note_on,207,0,6,,,,,,,,,5,,63,0
132447,note_on,207,0,7,,,,,,,,,6,,60,0
132447,note_on,0,0,2,,,,,,,,,1,,75,0
132447,note_on,207,0,2,,,,,,,,,1,,84,0
132480,note_on,60,0,8,,,,,,,,,7,,53,64
132480,note_on,60,0,9,,,,,,,,,8,,41,64
132480,note_on,0,0,2,,,,,,,,,1,,82,72
132480,note_on,33,0,2,,,,,,,,,1,,74,72
132480,note_on,33,0,6,,,,,,,,,5,,62,64
132480,note_on,60,0,3,,,,,,,,,2,,65,71
132480,note_on,33,0,5,,,,,,,,,4,,70,88
132480,note_on,33,0,7,,,,,,,,,6,,53,64
132480,note_on,60,0,4,,,,,,,,,3,,53,88
132687,note_on,207,0,5,,,,,,,,,4,,70,0
132687,note_on,207,0,6,,,,,,,,,5,,62,0
132687,note_on,207,0,2,,,,,,,,,1,,82,0
132687,note_on,0,0,2,,,,,,,,,1,,74,0
132720,note_on,33,0,2,,,,,,,,,1,,72,72
132720,note_on,0,0,2,,,,,,,,,1,,81,72
132720,note_on,33,0,6,,,,,,,,,5,,60,64
132720,note_on,33,0,5,,,,,,,,,4,,69,88
132900,note_on,420,0,9,,,,,,,,,8,,41,0
132900,note_on,420,0,4,,,,,,,,,3,,53,0
132900,note_on,420,0,8,,,,,,,,,7,,53,0
132900,note_on,420,0,7,,,,,,,,,6,,53,0
132927,note_on,207,0,2,,,,,,,,,1,,81,0
132927,note_on,207,0,5,,,,,,,,,4,,69,0
132927,note_on,207,0,6,,,,,,,,,5,,60,0
132927,note_on,0,0,2,,,,,,,,,1,,72,0
132960,note_on,0,0,2,,,,,,,,,1,,79,72
132960,note_on,60,0,8,,,,,,,,,7,,53,64
132960,note_on,60,0,4,,,,,,,,,3,,53,88
132960,note_on,33,0,2,,,,,,,,,1,,70,72
132960,note_on,33,0,6,,,,,,,,,5,,58,64
132960,note_on,60,0,9,,,,,,,,,8,,41,64
132960,note_on,33,0,5,,,,,,,,,4,,67,88
132960,note_on,60,0,7,,,,,,,,,6,,65,64
133167,note_on,207,0,5,,,,,,,,,4,,67,0
133167,note_on,207,0,6,,,,,,,,,5,,58,0
133167,note_on,0,0,2,,,,,,,,,1,,70,0
133167,note_on,207,0,2,,,,,,,,,1,,79,0
133200,note_on,33,0,2,,,,,,,,,1,,69,72
133200,note_on,0,0,2,,,,,,,,,1,,77,72
133200,note_on,33,0,5,,,,,,,,,4,,65,88
133200,note_on,33,0,6,,,,,,,,,5,,57,64
133380,note_on,420,0,4,,,,,,,,,3,,53,0
133380,note_on,420,0,9,,,,,,,,,8,,41,0
133380,note_on,420,0,7,,,,,,,,,6,,65,0
133380,note_on,420,0,8,,,,,,,,,7,,53,0
133407,note_on,207,0,2,,,,,,,,,1,,77,0
133407,note_on,0,0,2,,,,,,,,,1,,69,0
133407,note_on,207,0,6,,,,,,,,,5,,57,0
133407,note_on,207,0,5,,,,,,,,,4,,65,0
133440,note_on,33,0,6,,,,,,,,,5,,58,64
133440,note_on,33,0,5,,,,,,,,,4,,67,88
133440,note_on,60,0,9,,,,,,,,,8,,39,64
133440,note_on,60,0,4,,,,,,,,,3,,51,88
133440,note_on,60,0,7,,,,,,,,,6,,65,64
133440,note_on,33,0,2,,,,,,,,,1,,70,72
133440,note_on,0,0,2,,,,,,,,,1,,79,72
133440,note_on,60,0,8,,,,,,,,,7,,51,64
133647,note_on,207,0,6,,,,,,,,,5,,58,0
133647,note_on,207,0,2,,,,,,,,,1,,79,0
133647,note_on,0,0,2,,,,,,,,,1,,70,0
133647,note_on,207,0,5,,,,,,,,,4,,67,0
133680,note_on,33,0,2,,,,,,,,,1,,72,72
133680,note_on,33,0,6,,,,,,,,,5,,60,64
133680,note_on,0,0,2,,,,,,,,,1,,81,72
133680,note_on,33,0,5,,,,,,,,,4,,69,88
133860,note_on,420,0,7,,,,,,,,,6,,65,0
133860,note_on,420,0,9,,,,,,,,,8,,39,0
133860,note_on,420,0,8,,,,,,,,,7,,51,0
133860,note_on,420,0,4,,,,,,,,,3,,51,0
133887,note_on,207,0,6,,,,,,,,,5,,60,0
133887,note_on,0,0,2,,,,,,,,,1,,72,0
133887,note_on,207,0,2,,,,,,,,,1,,81,0
133887,note_on,207,0,5,,,,,,,,,4,,69,0
133920,note_on,60,0,7,,,,,,,,,6,,65,64
133920,note_on,60,0,4,,,,,,,,,3,,50,88
133920,note_on,33,0,2,,,,,,,,,1,,74,72
133920,note_on,0,0,5,,,,,,,,,4,,70,88
133920,note_on,60,0,9,,,,,,,,,8,,38,64
133920,note_on,0,0,2,,,,,,,,,1,,82,72
133920,note_on,33,0,6,,,,,,,,,5,,62,64
133920,note_on,1440,0,3,,,,,,,,,2,,58,72
133920,note_on,60,0,8,,,,,,,,,7,,50,64
133920,note_on,33,0,5,,,,,,,,,4,,62,88
134340,note_on,420,0,4,,,,,,,,,3,,50,0
134340,note_on,420,0,7,,,,,,,,,6,,65,0
134340,note_on,420,0,2,,,,,,,,,1,,82,0
134340,note_on,0,0,2,,,,,,,,,1,,74,0
134340,note_on,420,0,8,,,,,,,,,7,,50,0
134340,note_on,420,0,6,,,,,,,,,5,,62,0
134340,note_on,420,0,9,,,,,,,,,8,,38,0
134400,note_on,60,0,2,,,,,,,,,1,,70,72
134400,note_on,60,0,6,,,,,,,,,5,,65,64
134400,note_on,60,0,9,,,,,,,,,8,,50,64
134400,note_on,60,0,4,,,,,,,,,3,,62,88
134400,note_on,60,0,8,,,,,,,,,7,,62,64
134400,note_on,60,0,7,,,,,,,,,6,,70,64
134820,note_on,420,0,8,,,,,,,,,7,,62,0
134820,note_on,420,0,6,,,,,,,,,5,,65,0
134820,note_on,420,0,4,,,,,,,,,3,,62,0
134820,note_on,420,0,2,,,,,,,,,1,,70,0
134820,note_on,420,0,7,,,,,,,,,6,,70,0
134820,note_on,900,0,5,,,,,,,,,4,,70,0
134820,note_on,0,0,5,,,,,,,,,4,,62,0
134820,note_on,0,0,3,,,,,,,,,2,,65,0
134820,note_on,900,0,3,,,,,,,,,2,,58,0
134820,note_on,420,0,9,,,,,,,,,8,,50,0
134880,note_on,60,0,7,,,,,,,,,6,,69,64
134880,note_on,60,0,2,,,,,,,,,1,,69,72
134880,note_on,0,0,2,,,,,,,,,1,,72,72
134880,note_on,60,0,8,,,,,,,,,7,,58,64
134880,note_on,60,0,9,,,,,,,,,8,,46,64
134880,note_on,60,0,4,,,,,,,,,3,,58,88
134880,note_on,60,0,6,,,,,,,,,5,,63,64
134880,note_on,60,0,5,,,,,,,,,4,,72,88
135087,note_on,207,0,7,,,,,,,,,6,,69,0
135087,note_on,207,0,5,,,,,,,,,4,,72,0
135087,note_on,207,0,6,,,,,,,,,5,,63,0
135087,note_on,0,0,2,,,,,,,,,1,,69,0
135087,note_on,207,0,2,,,,,,,,,1,,72,0
135120,note_on,33,0,7,,,,,,,,,6,,70,64
135120,note_on,0,0,2,,,,,,,,,1,,74,72
135120,note_on,33,0,5,,,,,,,,,4,,74,88
135120,note_on,33,0,2,,,,,,,,,1,,70,72
135120,note_on,33,0,6,,,,,,,,,5,,62,64
135300,note_on,420,0,9,,,,,,,,,8,,46,0
135300,note_on,420,0,8,,,,,,,,,7,,58,0
135300,note_on,420,0,4,,,,,,,,,3,,58,0
135327,note_on,207,0,2,,,,,,,,,1,,74,0
135327,note_on,207,0,6,,,,,,,,,5,,62,0
135327,note_on,207,0,5,,,,,,,,,4,,74,0
135327,note_on,207,0,7,,,,,,,,,6,,70,0
135327,note_on,0,0,2,,,,,,,,,1,,70,0
135360,note_on,60,0,9,,,,,,,,,8,,48,64
135360,note_on,33,0,7,,,,,,,,,6,,67,64
135360,note_on,0,0,2,,,,,,,,,1,,77,72
135360,note_on,60,0,8,,,,,,,,,7,,60,64
135360,note_on,60,0,4,,,,,,,,,3,,60,88
135360,note_on,33,0,6,,,,,,,,,5,,67,64
135360,note_on,33,0,5,,,,,,,,,4,,77,88
135360,note_on,33,0,2,,,,,,,,,1,,67,72
135567,note_on,207,0,5,,,,,,,,,4,,77,0
135567,note_on,207,0,2,,,,,,,,,1,,77,0
135600,note_on,33,0,2,,,,,,,,,1,,75,72
135600,note_on,33,0,5,,,,,,,,,4,,75,88
135780,note_on,420,0,6,,,,,,,,,5,,67,0
135780,note_on,420,0,9,,,,,,,,,8,,48,0
135780,note_on,420,0,8,,,,,,,,,7,,60,0
135780,note_on,420,0,4,,,,,,,,,3,,60,0
135807,note_on,207,0,2,,,,,,,,,1,,75,0
135807,note_on,0,0,2,,,,,,,,,1,,67,0
135807,note_on,207,0,5,,,,,,,,,4,,75,0
135840,note_on,60,0,4,,,,,,,,,3,,55,88
135840,note_on,60,0,8,,,,,,,,,7,,55,64
135840,note_on,33,0,2,,,,,,,,,1,,70,72
135840,note_on,0,0,2,,,,,,,,,1,,75,72
135840,note_on,0,0,3,,,,,,,,,2,,70,72
135840,note_on,33,0,5,,,,,,,,,4,,75,88
135840,note_on,60,0,6,,,,,,,,,5,,58,64
135840,note_on,60,0,9,,,,,,,,,8,,43,64
135840,note_on,1020,0,3,,,,,,,,,2,,58,72
136260,note_on,420,0,6,,,,,,,,,5,,58,0
136260,note_on,420,0,9,,,,,,,,,8,,43,0
136260,note_on,420,0,2,,,,,,,,,1,,70,0
136260,note_on,420,0,4,,,,,,,,,3,,55,0
136260,note_on,420,0,8,,,,,,,,,7,,55,0
136260,note_on,900,0,7,,,,,,,,,6,,67,0
136260,note_on,420,0,3,,,,,,,,,2,,70,0
136260,note_on,0,0,3,,,,,,,,,2,,58,0
136320,note_on,60,0,6,,,,,,,,,5,,60,64
136320,note_on,60,0,4,,,,,,,,,3,,57,88
136320,note_on,60,0,7,,,,,,,,,6,,65,64
136320,note_on,60,0,9,,,,,,,,,8,,45,64
136320,note_on,60,0,8,,,,,,,,,7,,57,64
136320,note_on,60,0,3,,,,,,,,,2,,65,72
136320,note_on,60,0,2,,,,,,,,,1,,72,72
136320,note_on,0,0,3,,,,,,,,,2,,72,72
136740,note_on,420,0,8,,,,,,,,,7,,57,0
136740,note_on,420,0,7,,,,,,,,,6,,65,0
136740,note_on,420,0,3,,,,,,,,,2,,72,0
136740,note_on,0,0,3,,,,,,,,,2,,65,0
136740,note_on,900,0,5,,,,,,,,,4,,75,0
136740,note_on,0,0,2,,,,,,,,,1,,75,0
136740,note_on,420,0,2,,,,,,,,,1,,72,0
136740,note_on,420,0,6,,,,,,,,,5,,60,0
136740,note_on,420,0,9,,,,,,,,,8,,45,0
136740,note_on,420,0,4,,,,,,,,,3,,57,0
136800,note_on,60,0,8,,,,,,,,,7,,58,64
136800,note_on,0,0,2,,,,,,,,,1,,74,72
136800,note_on,60,0,2,,,,,,,,,1,,70,72
136800,note_on,60,0,6,,,,,,,,,5,,65,64
136800,note_on,0,0,3,,,,,,,,,2,,74,72
136800,note_on,60,0,3,,,,,,,,,2,,70,72
136800,note_on,60,0,7,,,,,,,,,6,,65,64
136800,note_on,60,0,5,,,,,,,,,4,,74,88
136800,note_on,60,0,4,,,,,,,,,3,,58,88
136800,note_on,60,0,9,,,,,,,,,8,,46,64
137110,note_on,310,0,5,,,,,,,,,4,,74,0
137110,note_on,310,0,2,,,,,,,,,1,,74,0
137160,note_on,50,0,2,,,,,,,,,1,,77,72
137160,note_on,50,0,5,,,,,,,,,4,,75,88
137210,note_on,50,0,5,,,,,,,,,4,,75,0
137220,note_on,420,0,4,,,,,,,,,3,,58,0
137220,note_on,420,0,8,,,,,,,,,7,,58,0
137220,note_on,420,0,7,,,,,,,,,6,,65,0
137220,note_on,420,0,6,,,,,,,,,5,,65,0
137220,note_on,420,0,9,,,,,,,,,8,,46,0
137220,note_on,10,0,5,,,,,,,,,4,,77,88
137262,note_on,0,0,2,,,,,,,,,1,,70,0
137262,note_on,102,0,2,,,,,,,,,1,,77,0
137270,note_on,50,0,5,,,,,,,,,4,,77,0
137280,note_on,60,0,8,,,,,,,,,7,,53,64
137280,note_on,60,0,9,,,,,,,,,8,,41,64
137280,note_on,18,0,2,,,,,,,,,1,,74,72
137280,note_on,0,0,2,,,,,,,,,1,,82,72
137280,note_on,60,0,4,,,,,,,,,3,,53,88
137280,note_on,10,0,5,,,,,,,,,4,,70,88
137280,note_on,60,0,6,,,,,,,,,5,,62,64
137280,note_on,60,0,7,,,,,,,,,6,,65,64
137700,note_on,420,0,5,,,,,,,,,4,,70,0
137700,note_on,420,0,7,,,,,,,,,6,,65,0
137700,note_on,420,0,6,,,,,,,,,5,,62,0
137700,note_on,420,0,8,,,,,,,,,7,,53,0
137700,note_on,900,0,3,,,,,,,,,2,,74,0
137700,note_on,0,0,3,,,,,,,,,2,,70,0
137700,note_on,420,0,4,,,,,,,,,3,,53,0
137700,note_on,420,0,2,,,,,,,,,1,,82,0
137700,note_on,420,0,9,,,,,,,,,8,,41,0
137700,note_on,0,0,2,,,,,,,,,1,,74,0
137760,note_on,60,0,2,,,,,,,,,1,,72,72
137760,note_on,60,0,7,,,,,,,,,6,,65,64
137760,note_on,60,0,5,,,,,,,,,4,,69,88
137760,note_on,60,0,9,,,,,,,,,8,,29,64
137760,note_on,0,0,2,,,,,,,,,1,,81,72
137760,note_on,60,0,6,,,,,,,,,5,,60,64
137760,note_on,60,0,4,,,,,,,,,3,,41,88
137760,note_on,60,0,3,,,,,,,,,2,,65,72
137760,note_on,0,0,3,,,,,,,,,2,,72,72
137760,note_on,60,0,8,,,,,,,,,7,,41,64
138180,note_on,420,0,7,,,,,,,,,6,,65,0
138180,note_on,420,0,6,,,,,,,,,5,,60,0
138180,note_on,0,0,3,,,,,,,,,2,,65,0
138180,note_on,420,0,3,,,,,,,,,2,,72,0
138180,note_on,420,0,4,,,,,,,,,3,,41,0
138180,note_on,0,0,2,,,,,,,,,1,,72,0
138180,note_on,420,0,2,,,,,,,,,1,,81,0
138180,note_on,420,0,5,,,,,,,,,4,,69,0
138180,note_on,420,0,9,,,,,,,,,8,,29,0
138180,note_on,420,0,8,,,,,,,,,7,,41,0
138240,note_on,60,0,8,,,,,,,,,7,,46,64
138240,note_on,60,0,7,,,,,,,,,6,,65,64
138240,note_on,60,0,4,,,,,,,,,3,,46,88
138240,note_on,0,0,5,,,,,,,,,4,,70,88
138240,note_on,60,0,5,,,,,,,,,4,,62,88
138240,note_on,0,0,6,,,,,,,,,5,,70,64
138240,note_on,60,0,3,,,,,,,,,2,,62,72
138240,note_on,0,0,3,,,,,,,,,2,,70,72
138240,note_on,60,0,6,,,,,,,,,5,,62,64
138240,note_on,0,0,2,,,,,,,,,1,,82,72
138240,note_on,60,0,9,,,,,,,,,8,,34,64
138240,note_on,60,0,2,,,,,,,,,1,,74,72
138660,note_on,420,0,4,,,,,,,,,3,,46,0
138660,note_on,420,0,9,,,,,,,,,8,,34,0
138660,note_on,420,0,8,,,,,,,,,7,,46,0
138720,note_on,60,0,9,,,,,,,,,8,,41,64
138720,note_on,60,0,4,,,,,,,,,3,,53,88
138720,note_on,60,0,8,,,,,,,,,7,,53,64
139140,note_on,420,0,4,,,,,,,,,3,,53,0
139140,note_on,420,0,9,,,,,,,,,8,,41,0
139140,note_on,900,0,7,,,,,,,,,6,,65,0
139140,note_on,420,0,8,,,,,,,,,7,,53,0
139140,note_on,0,0,5,,,,,,,,,4,,62,0
139140,note_on,900,0,6,,,,,,,,,5,,70,0
139140,note_on,900,0,3,,,,,,,,,2,,70,0
139140,note_on,900,0,5,,,,,,,,,4,,70,0
139140,note_on,0,0,6,,,,,,,,,5,,62,0
139140,note_on,0,0,2,,,,,,,,,1,,74,0
139140,note_on,900,0,2,,,,,,,,,1,,82,0
139140,note_on,0,0,3,,,,,,,,,2,,62,0
139200,note_on,60,0,9,,,,,,,,,8,,46,64
139200,note_on,60,0,8,,,,,,,,,7,,58,64
139200,note_on,60,0,4,,,,,,,,,3,,58,88
139620,note_on,420,0,8,,,,,,,,,7,,58,0
139620,note_on,420,0,4,,,,,,,,,3,,58,0
139620,note_on,420,0,9,,,,,,,,,8,,46,0
139680,note_on,11520,0,1,,,,,,,,,0,,58,127
139680,note_on,540,0,6,,,,,,,,,5,,62,64
139680,note_on,540,0,7,,,,,,,,,6,,58,64
139680,note_on,60,0,9,,,,,,,,,8,,46,64
139680,note_on,540,0,5,,,,,,,,,4,,65,49
139800,note_on,120,0,1,,,,,,,,,0,,57,127
139845,note_on,45,0,1,,,,,,,,,0,,58,0
139902,note_on,57,0,1,,,,,,,,,0,,57,0
139920,note_on,18,0,1,,,,,,,,,0,,58,127
139997,note_on,77,0,1,,,,,,,,,0,,58,0
140040,note_on,43,0,1,,,,,,,,,0,,60,127
140100,note_on,420,0,6,,,,,,,,,5,,62,0
140100,note_on,420,0,9,,,,,,,,,8,,46,0
140100,note_on,420,0,5,,,,,,,,,4,,65,0
140102,note_on,62,0,1,,,,,,,,,0,,60,0
140160,note_on,58,0,1,,,,,,,,,0,,62,127
140160,note_on,540,0,8,,,,,,,,,7,,62,64
140160,note_on,60,0,5,,,,,,,,,4,,77,49
140160,note_on,60,0,6,,,,,,,,,5,,70,64
140160,note_on,60,0,9,,,,,,,,,8,,50,64
140280,note_on,120,0,1,,,,,,,,,0,,60,127
140310,note_on,30,0,1,,,,,,,,,0,,62,0
140365,note_on,55,0,1,,,,,,,,,0,,60,0
140400,note_on,35,0,1,,,,,,,,,0,,62,126
140455,note_on,55,0,1,,,,,,,,,0,,62,0
140470,note_on,310,0,5,,,,,,,,,4,,77,0
140470,note_on,310,0,6,,,,,,,,,5,,70,0
140520,note_on,50,0,6,,,,,,,,,5,,65,64
140520,note_on,65,0,1,,,,,,,,,0,,63,125
140520,note_on,50,0,5,,,,,,,,,4,,74,49
140580,note_on,420,0,8,,,,,,,,,7,,62,0
140580,note_on,420,0,9,,,,,,,,,8,,50,0
140590,note_on,70,0,1,,,,,,,,,0,,63,0
140622,note_on,102,0,6,,,,,,,,,5,,65,0
140622,note_on,102,0,5,,,,,,,,,4,,74,0
140640,note_on,60,0,9,,,,,,,,,8,,46,64
140640,note_on,18,0,6,,,,,,,,,5,,74,64
140640,note_on,50,0,1,,,,,,,,,0,,65,125
140640,note_on,18,0,5,,,,,,,,,4,,77,49
140640,note_on,60,0,8,,,,,,,,,7,,58,64
141030,note_on,390,0,1,,,,,,,,,0,,65,0
141060,note_on,420,0,8,,,,,,,,,7,,58,0
141060,note_on,1380,0,7,,,,,,,,,6,,58,0
141060,note_on,420,0,6,,,,,,,,,5,,74,0
141060,note_on,420,0,5,,,,,,,,,4,,77,0
141060,note_on,420,0,9,,,,,,,,,8,,46,0
141120,note_on,60,0,5,,,,,,,,,4,,63,49
141120,note_on,60,0,6,,,,,,,,,5,,57,64
141120,note_on,60,0,7,,,,,,,,,6,,60,64
141120,note_on,60,0,9,,,,,,,,,8,,48,64
141120,note_on,90,0,1,,,,,,,,,0,,63,123
141240,note_on,120,0,1,,,,,,,,,0,,65,123
141262,note_on,22,0,1,,,,,,,,,0,,63,0
141340,note_on,78,0,1,,,,,,,,,0,,65,0
141360,note_on,20,0,1,,,,,,,,,0,,63,127
141430,note_on,70,0,1,,,,,,,,,0,,63,0
141480,note_on,50,0,1,,,,,,,,,0,,62,127
141540,note_on,420,0,9,,,,,,,,,8,,48,0
141540,note_on,420,0,6,,,,,,,,,5,,57,0
141540,note_on,420,0,5,,,,,,,,,4,,63,0
141542,note_on,62,0,1,,,,,,,,,0,,62,0
141600,note_on,58,0,1,,,,,,,,,0,,60,127
141600,note_on,60,0,5,,,,,,,,,4,,75,49
141600,note_on,60,0,6,,,,,,,,,5,,72,64
141600,note_on,540,0,8,,,,,,,,,7,,57,64
141600,note_on,60,0,9,,,,,,,,,8,,45,64
141720,note_on,120,0,1,,,,,,,,,0,,62,127
141757,note_on,37,0,1,,,,,,,,,0,,60,0
141820,note_on,63,0,1,,,,,,,,,0,,62,0
141840,note_on,20,0,1,,,,,,,,,0,,60,127
141910,note_on,310,0,5,,,,,,,,,4,,75,0
141910,note_on,310,0,6,,,,,,,,,5,,72,0
141917,note_on,77,0,1,,,,,,,,,0,,60,0
141960,note_on,43,0,1,,,,,,,,,0,,58,127
141960,note_on,50,0,6,,,,,,,,,5,,69,64
141960,note_on,50,0,5,,,,,,,,,4,,72,49
142020,note_on,420,0,8,,,,,,,,,7,,57,0
142020,note_on,420,0,9,,,,,,,,,8,,45,0
142020,note_on,900,0,7,,,,,,,,,6,,60,0
142030,note_on,70,0,1,,,,,,,,,0,,58,0
142062,note_on,102,0,6,,,,,,,,,5,,69,0
142062,note_on,102,0,5,,,,,,,,,4,,72,0
142080,note_on,60,0,8,,,,,,,,,7,,53,64
142080,note_on,60,0,9,,,,,,,,,8,,41,64
142080,note_on,60,0,7,,,,,,,,,6,,57,64
142080,note_on,18,0,6,,,,,,,,,5,,72,64
142080,note_on,50,0,1,,,,,,,,,0,,57,127
142080,note_on,18,0,5,,,,,,,,,4,,75,49
142470,note_on,390,0,1,,,,,,,,,0,,57,0
142500,note_on,420,0,9,,,,,,,,,8,,41,0
142500,note_on,420,0,7,,,,,,,,,6,,57,0
142500,note_on,420,0,6,,,,,,,,,5,,72,0
142500,note_on,420,0,8,,,,,,,,,7,,53,0
142500,note_on,420,0,5,,,,,,,,,4,,75,0
142560,note_on,90,0,1,,,,,,,,,0,,58,127
142560,note_on,60,0,6,,,,,,,,,5,,70,64
142560,note_on,60,0,9,,,,,,,,,8,,46,64
142560,note_on,60,0,5,,,,,,,,,4,,74,49
142560,note_on,60,0,7,,,,,,,,,6,,58,64
142680,note_on,120,0,1,,,,,,,,,0,,58,0
142680,note_on,0,0,1,,,,,,,,,0,,60,127
142780,note_on,100,0,1,,,,,,,,,0,,60,0
142800,note_on,20,0,1,,,,,,,,,0,,58,127
142880,note_on,80,0,1,,,,,,,,,0,,58,0
142920,note_on,40,0,1,,,,,,,,,0,,57,127
142980,note_on,420,0,5,,,,,,,,,4,,74,0
142980,note_on,420,0,9,,,,,,,,,8,,46,0
142995,note_on,75,0,1,,,,,,,,,0,,57,0
143040,note_on,540,0,8,,,,,,,,,7,,51,64
143040,note_on,45,0,1,,,,,,,,,0,,55,127
143040,note_on,60,0,9,,,,,,,,,8,,39,64
143040,note_on,60,0,5,,,,,,,,,4,,79,49
143280,note_on,240,0,1,,,,,,,,,0,,60,127
143285,note_on,5,0,1,,,,,,,,,0,,55,0
143365,note_on,80,0,1,,,,,,,,,0,,60,0
143400,note_on,35,0,1,,,,,,,,,0,,62,127
143460,note_on,420,0,8,,,,,,,,,7,,51,0
143460,note_on,900,0,7,,,,,,,,,6,,58,0
143460,note_on,900,0,6,,,,,,,,,5,,70,0
143460,note_on,420,0,5,,,,,,,,,4,,79,0
143460,note_on,420,0,9,,,,,,,,,8,,39,0
143477,note_on,77,0,1,,,,,,,,,0,,62,0
143520,note_on,60,0,9,,,,,,,,,8,,39,64
143520,note_on,60,0,7,,,,,,,,,6,,60,64
143520,note_on,60,0,8,,,,,,,,,7,,51,64
143520,note_on,43,0,1,,,,,,,,,0,,63,127
143520,note_on,60,0,6,,,,,,,,,5,,67,64
143520,note_on,60,0,5,,,,,,,,,4,,70,49
143640,note_on,120,0,1,,,,,,,,,0,,62,127
143677,note_on,37,0,1,,,,,,,,,0,,63,0
143740,note_on,63,0,1,,,,,,,,,0,,62,0
143760,note_on,20,0,1,,,,,,,,,0,,60,127
143860,note_on,100,0,1,,,,,,,,,0,,60,0
143880,note_on,20,0,1,,,,,,,,,0,,58,127
143940,note_on,420,0,6,,,,,,,,,5,,67,0
143940,note_on,420,0,5,,,,,,,,,4,,70,0
143940,note_on,420,0,9,,,,,,,,,8,,39,0
143940,note_on,420,0,8,,,,,,,,,7,,51,0
143940,note_on,420,0,7,,,,,,,,,6,,60,0
143957,note_on,77,0,1,,,,,,,,,0,,58,0
144000,note_on,60,0,7,,,,,,,,,6,,60,64
144000,note_on,60,0,9,,,,,,,,,8,,41,64
144000,note_on,60,0,6,,,,,,,,,5,,65,64
144000,note_on,60,0,8,,,,,,,,,7,,53,64
144000,note_on,60,0,5,,,,,,,,,4,,69,49
144000,note_on,43,0,1,,,,,,,,,0,,57,127
144120,note_on,120,0,1,,,,,,,,,0,,58,127
144142,note_on,22,0,1,,,,,,,,,0,,57,0
144197,note_on,55,0,1,,,,,,,,,0,,58,0
144207,note_on,207,0,7,,,,,,,,,6,,60,0
144240,note_on,33,0,7,,,,,,,,,6,,57,64
144240,note_on,43,0,1,,,,,,,,,0,,60,127
144317,note_on,77,0,1,,,,,,,,,0,,60,0
144360,note_on,43,0,1,,,,,,,,,0,,58,127
144420,note_on,420,0,8,,,,,,,,,7,,53,0
144420,note_on,420,0,9,,,,,,,,,8,,41,0
144420,note_on,420,0,6,,,,,,,,,5,,65,0
144420,note_on,420,0,5,,,,,,,,,4,,69,0
144437,note_on,77,0,1,,,,,,,,,0,,58,0
144447,note_on,207,0,7,,,,,,,,,6,,57,0
144480,note_on,60,0,6,,,,,,,,,5,,69,64
144480,note_on,33,0,7,,,,,,,,,6,,53,64
144480,note_on,43,0,1,,,,,,,,,0,,57,127
144480,note_on,60,0,5,,,,,,,,,4,,72,49
144480,note_on,60,0,8,,,,,,,,,7,,41,64
144480,note_on,60,0,9,,,,,,,,,8,,29,64
144600,note_on,120,0,1,,,,,,,,,0,,58,127
144630,note_on,30,0,1,,,,,,,,,0,,57,0
144677,note_on,47,0,1,,,,,,,,,0,,58,0
144720,note_on,43,0,1,,,,,,,,,0,,57,127
144797,note_on,77,0,1,,,,,,,,,0,,57,0
144840,note_on,43,0,1,,,,,,,,,0,,55,127
144900,note_on,420,0,5,,,,,,,,,4,,72,0
144900,note_on,420,0,6,,,,,,,,,5,,69,0
144900,note_on,420,0,8,,,,,,,,,7,,41,0
144900,note_on,420,0,9,,,,,,,,,8,,29,0
144900,note_on,420,0,7,,,,,,,,,6,,53,0
144917,note_on,77,0,1,,,,,,,,,0,,55,0
144960,note_on,43,0,1,,,,,,,,,0,,53,127
144960,note_on,60,0,6,,,,,,,,,5,,69,64
144960,note_on,60,0,8,,,,,,,,,7,,53,64
144960,note_on,60,0,9,,,,,,,,,8,,41,64
145062,note_on,102,0,6,,,,,,,,,5,,69,0
145062,note_on,102,0,8,,,,,,,,,7,,53,0
145062,note_on,102,0,9,,,,,,,,,8,,41,0
145080,note_on,18,0,6,,,,,,,,,5,,67,64
145080,note_on,18,0,8,,,,,,,,,7,,51,64
145080,note_on,18,0,9,,,,,,,,,8,,39,64
145182,note_on,102,0,6,,,,,,,,,5,,67,0
145182,note_on,102,0,8,,,,,,,,,7,,51,0
145182,note_on,102,0,9,,,,,,,,,8,,39,0
145200,note_on,18,0,8,,,,,,,,,7,,50,64
145200,note_on,18,0,6,,,,,,,,,5,,65,64
145200,note_on,18,0,9,,,,,,,,,8,,38,64
145270,note_on,310,0,1,,,,,,,,,0,,53,0
145302,note_on,102,0,6,,,,,,,,,5,,65,0
145302,note_on,102,0,9,,,,,,,,,8,,38,0
145302,note_on,102,0,8,,,,,,,,,7,,50,0
145320,note_on,18,0,8,,,,,,,,,7,,48,64
145320,note_on,18,0,9,,,,,,,,,8,,36,64
145320,note_on,18,0,6,,,,,,,,,5,,63,64
145422,note_on,102,0,8,,,,,,,,,7,,48,0
145422,note_on,102,0,9,,,,,,,,,8,,36,0
145422,note_on,102,0,6,,,,,,,,,5,,63,0
145440,note_on,540,0,5,,,,,,,,,4,,65,49
145440,note_on,18,0,8,,,,,,,,,7,,46,64
145440,note_on,18,0,9,,,,,,,,,8,,34,64
145440,note_on,540,0,7,,,,,,,,,6,,58,64
145440,note_on,170,0,1,,,,,,,,,0,,58,127
145440,note_on,18,0,6,,,,,,,,,5,,62,64
145560,note_on,120,0,1,,,,,,,,,0,,57,127
145597,note_on,37,0,1,,,,,,,,,0,,58,0
145637,note_on,40,0,1,,,,,,,,,0,,57,0
145680,note_on,43,0,1,,,,,,,,,0,,58,127
145757,note_on,77,0,1,,,,,,,,,0,,58,0
145800,note_on,43,0,1,,,,,,,,,0,,60,127
145860,note_on,420,0,8,,,,,,,,,7,,46,0
145860,note_on,420,0,9,,,,,,,,,8,,34,0
145860,note_on,420,0,6,,,,,,,,,5,,62,0
145860,note_on,420,0,5,,,,,,,,,4,,65,0
145877,note_on,77,0,1,,,,,,,,,0,,60,0
145920,note_on,43,0,1,,,,,,,,,0,,62,127
145920,note_on,60,0,5,,,,,,,,,4,,77,49
145920,note_on,60,0,6,,,,,,,,,5,,70,64
145920,note_on,60,0,8,,,,,,,,,7,,62,64
145920,note_on,60,0,9,,,,,,,,,8,,50,64
146040,note_on,120,0,1,,,,,,,,,0,,60,127
146060,note_on,20,0,1,,,,,,,,,0,,62,0
146117,note_on,57,0,1,,,,,,,,,0,,60,0
146160,note_on,43,0,1,,,,,,,,,0,,62,127
146230,note_on,310,0,5,,,,,,,,,4,,77,0
146230,note_on,310,0,6,,,,,,,,,5,,70,0
146237,note_on,77,0,1,,,,,,,,,0,,62,0
146280,note_on,50,0,6,,,,,,,,,5,,65,64
146280,note_on,50,0,5,,,,,,,,,4,,74,49
146280,note_on,43,0,1,,,,,,,,,0,,63,127
146340,note_on,420,0,9,,,,,,,,,8,,50,0
146340,note_on,420,0,8,,,,,,,,,7,,62,0
146357,note_on,77,0,1,,,,,,,,,0,,63,0
146382,note_on,102,0,5,,,,,,,,,4,,74,0
146382,note_on,102,0,6,,,,,,,,,5,,65,0
146400,note_on,18,0,5,,,,,,,,,4,,77,49
146400,note_on,60,0,8,,,,,,,,,7,,58,64
146400,note_on,43,0,1,,,,,,,,,0,,65,127
146400,note_on,60,0,9,,,,,,,,,8,,46,64
146400,note_on,18,0,6,,,,,,,,,5,,74,64
146580,note_on,180,0,1,,,,,,,,,0,,65,0
146640,note_on,60,0,1,,,,,,,,,0,,65,127
146820,note_on,1380,0,7,,,,,,,,,6,,58,0
146820,note_on,420,0,5,,,,,,,,,4,,77,0
146820,note_on,420,0,9,,,,,,,,,8,,46,0
146820,note_on,420,0,8,,,,,,,,,7,,58,0
146820,note_on,420,0,6,,,,,,,,,5,,74,0
146837,note_on,197,0,1,,,,,,,,,0,,65,0
146880,note_on,60,0,7,,,,,,,,,6,,60,64
146880,note_on,60,0,5,,,,,,,,,4,,63,49
146880,note_on,60,0,6,,,,,,,,,5,,57,64
146880,note_on,60,0,9,,,,,,,,,8,,48,64
146880,note_on,43,0,1,,,,,,,,,0,,63,127
147000,note_on,120,0,1,,,,,,,,,0,,65,127
147037,note_on,37,0,1,,,,,,,,,0,,63,0
147092,note_on,55,0,1,,,,,,,,,0,,65,0
147120,note_on,28,0,1,,,,,,,,,0,,63,127
147212,note_on,92,0,1,,,,,,,,,0,,63,0
147240,note_on,28,0,1,,,,,,,,,0,,62,127
147300,note_on,420,0,5,,,,,,,,,4,,63,0
147300,note_on,420,0,6,,,,,,,,,5,,57,0
147300,note_on,420,0,9,,,,,,,,,8,,48,0
147332,note_on,92,0,1,,,,,,,,,0,,62,0
147360,note_on,60,0,9,,,,,,,,,8,,45,64
147360,note_on,60,0,6,,,,,,,,,5,,72,64
147360,note_on,540,0,8,,,,,,,,,7,,57,64
147360,note_on,28,0,1,,,,,,,,,0,,60,127
147360,note_on,60,0,5,,,,,,,,,4,,75,49
147480,note_on,120,0,1,,,,,,,,,0,,62,127
147492,note_on,12,0,1,,,,,,,,,0,,60,0
147572,note_on,80,0,1,,,,,,,,,0,,62,0
147600,note_on,28,0,1,,,,,,,,,0,,60,127
147670,note_on,310,0,5,,,,,,,,,4,,75,0
147670,note_on,310,0,6,,,,,,,,,5,,72,0
147677,note_on,77,0,1,,,,,,,,,0,,60,0
147720,note_on,50,0,5,,,,,,,,,4,,72,49
147720,note_on,43,0,1,,,,,,,,,0,,58,127
147720,note_on,50,0,6,,,,,,,,,5,,69,64
147780,note_on,420,0,9,,,,,,,,,8,,45,0
147780,note_on,900,0,7,,,,,,,,,6,,60,0
147780,note_on,420,0,8,,,,,,,,,7,,57,0
147780,note_on,60,0,1,,,,,,,,,0,,58,0
147822,note_on,102,0,5,,,,,,,,,4,,72,0
147822,note_on,102,0,6,,,,,,,,,5,,69,0
147840,note_on,60,0,9,,,,,,,,,8,,41,64
147840,note_on,60,0,7,,,,,,,,,6,,57,64
147840,note_on,60,0,1,,,,,,,,,0,,57,127
147840,note_on,60,0,8,,,,,,,,,7,,53,64
147840,note_on,18,0,6,,,,,,,,,5,,72,64
147840,note_on,18,0,5,,,,,,,,,4,,75,49
147997,note_on,157,0,1,,,,,,,,,0,,57,0
148080,note_on,83,0,1,,,,,,,,,0,,57,127
148230,note_on,150,0,1,,,,,,,,,0,,57,0
148260,note_on,420,0,7,,,,,,,,,6,,57,0
148260,note_on,420,0,9,,,,,,,,,8,,41,0
148260,note_on,420,0,8,,,,,,,,,7,,53,0
148260,note_on,420,0,5,,,,,,,,,4,,75,0
148260,note_on,420,0,6,,,,,,,,,5,,72,0
148320,note_on,60,0,8,,,,,,,,,7,,58,64
148320,note_on,90,0,1,,,,,,,,,0,,58,114
148320,note_on,60,0,5,,,,,,,,,4,,74,49
148320,note_on,60,0,7,,,,,,,,,6,,65,64
148320,note_on,60,0,6,,,,,,,,,5,,70,64
148320,note_on,60,0,9,,,,,,,,,8,,46,64
148680,note_on,360,0,1,,,,,,,,,0,,58,0
148680,note_on,0,0,1,,,,,,,,,0,,60,113
148740,note_on,420,0,8,,,,,,,,,7,,58,0
148740,note_on,420,0,7,,,,,,,,,6,,65,0
148740,note_on,420,0,5,,,,,,,,,4,,74,0
148740,note_on,420,0,9,,,,,,,,,8,,46,0
148800,note_on,60,0,9,,,,,,,,,8,,39,64
148800,note_on,60,0,7,,,,,,,,,6,,67,64
148800,note_on,60,0,5,,,,,,,,,4,,74,49
148800,note_on,120,0,1,,,,,,,,,0,,60,0
148800,note_on,0,0,1,,,,,,,,,0,,62,115
148800,note_on,60,0,8,,,,,,,,,7,,51,64
148850,note_on,50,0,5,,,,,,,,,4,,74,0
148860,note_on,10,0,5,,,,,,,,,4,,72,49
148910,note_on,50,0,5,,,,,,,,,4,,72,0
148915,note_on,115,0,1,,,,,,,,,0,,60,117
148920,note_on,10,0,5,,,,,,,,,4,,74,49
148940,note_on,25,0,1,,,,,,,,,0,,62,0
148960,note_on,20,0,1,,,,,,,,,0,,62,118
148970,note_on,50,0,5,,,,,,,,,4,,74,0
148980,note_on,10,0,5,,,,,,,,,4,,72,49
148982,note_on,22,0,1,,,,,,,,,0,,60,0
149012,note_on,30,0,1,,,,,,,,,0,,60,118
149030,note_on,50,0,5,,,,,,,,,4,,72,0
149040,note_on,10,0,5,,,,,,,,,4,,74,49
149045,note_on,33,0,1,,,,,,,,,0,,62,0
149070,note_on,25,0,1,,,,,,,,,0,,62,120
149087,note_on,17,0,1,,,,,,,,,0,,60,0
149090,note_on,50,0,5,,,,,,,,,4,,74,0
149100,note_on,10,0,5,,,,,,,,,4,,72,49
149107,note_on,20,0,1,,,,,,,,,0,,60,120
149145,note_on,38,0,1,,,,,,,,,0,,62,0
149150,note_on,50,0,5,,,,,,,,,4,,72,0
149160,note_on,10,0,5,,,,,,,,,4,,74,49
149175,note_on,30,0,1,,,,,,,,,0,,62,120
149182,note_on,7,0,1,,,,,,,,,0,,60,0
149210,note_on,50,0,5,,,,,,,,,4,,74,0
149220,note_on,420,0,8,,,,,,,,,7,,51,0
149220,note_on,900,0,6,,,,,,,,,5,,70,0
149220,note_on,420,0,7,,,,,,,,,6,,67,0
149220,note_on,10,0,5,,,,,,,,,4,,72,49
149220,note_on,420,0,9,,,,,,,,,8,,39,0
149220,note_on,38,0,1,,,,,,,,,0,,60,120
149250,note_on,30,0,1,,,,,,,,,0,,62,0
149270,note_on,50,0,5,,,,,,,,,4,,72,0
149280,note_on,60,0,8,,,,,,,,,7,,53,64
149280,note_on,60,0,7,,,,,,,,,6,,65,64
149280,note_on,60,0,6,,,,,,,,,5,,69,64
149280,note_on,60,0,9,,,,,,,,,8,,41,64
149280,note_on,10,0,5,,,,,,,,,4,,74,49
149287,note_on,37,0,1,,,,,,,,,0,,62,120
149295,note_on,8,0,1,,,,,,,,,0,,60,0
149330,note_on,50,0,5,,,,,,,,,4,,74,0
149340,note_on,45,0,1,,,,,,,,,0,,60,120
149340,note_on,10,0,5,,,,,,,,,4,,72,49
149362,note_on,22,0,1,,,,,,,,,0,,62,0
149390,note_on,50,0,5,,,,,,,,,4,,72,0
149397,note_on,35,0,1,,,,,,,,,0,,62,120
149400,note_on,10,0,5,,,,,,,,,4,,74,49
149415,note_on,18,0,1,,,,,,,,,0,,60,0
149445,note_on,30,0,1,,,,,,,,,0,,60,119
149450,note_on,50,0,5,,,,,,,,,4,,74,0
149460,note_on,10,0,5,,,,,,,,,4,,72,49
149472,note_on,27,0,1,,,,,,,,,0,,62,0
149487,note_on,207,0,7,,,,,,,,,6,,65,0
149510,note_on,50,0,5,,,,,,,,,4,,72,0
149515,note_on,43,0,1,,,,,,,,,0,,62,119
149520,note_on,33,0,7,,,,,,,,,6,,63,64
149520,note_on,10,0,5,,,,,,,,,4,,74,49
149520,note_on,5,0,1,,,,,,,,,0,,60,0
149557,note_on,37,0,1,,,,,,,,,0,,60,119
149570,note_on,50,0,5,,,,,,,,,4,,74,0
149580,note_on,10,0,5,,,,,,,,,4,,72,49
149595,note_on,38,0,1,,,,,,,,,0,,62,0
149612,note_on,17,0,1,,,,,,,,,0,,58,118
149630,note_on,50,0,5,,,,,,,,,4,,72,0
149640,note_on,10,0,5,,,,,,,,,4,,70,49
149644,note_on,32,0,1,,,,,,,,,0,,60,0
149672,note_on,28,0,1,,,,,,,,,0,,60,114
149690,note_on,50,0,5,,,,,,,,,4,,70,0
149700,note_on,420,0,9,,,,,,,,,8,,41,0
149700,note_on,420,0,8,,,,,,,,,7,,53,0
149700,note_on,420,0,6,,,,,,,,,5,,69,0
149700,note_on,10,0,5,,,,,,,,,4,,72,49
149709,note_on,37,0,1,,,,,,,,,0,,58,0
149727,note_on,207,0,7,,,,,,,,,6,,63,0
149750,note_on,50,0,5,,,,,,,,,4,,72,0
149760,note_on,60,0,8,,,,,,,,,7,,58,64
149760,note_on,33,0,7,,,,,,,,,6,,62,64
149760,note_on,60,0,9,,,,,,,,,8,,46,64
149760,note_on,51,0,1,,,,,,,,,0,,58,112
149760,note_on,10,0,5,,,,,,,,,4,,70,49
149764,note_on,4,0,1,,,,,,,,,0,,60,0
149862,note_on,102,0,7,,,,,,,,,6,,62,0
149967,note_on,207,0,9,,,,,,,,,8,,46,0
149967,note_on,207,0,8,,,,,,,,,7,,58,0
149967,note_on,207,0,5,,,,,,,,,4,,70,0
150000,note_on,33,0,5,,,,,,,,,4,,69,49
150000,note_on,33,0,9,,,,,,,,,8,,45,64
150000,note_on,33,0,8,,,,,,,,,7,,57,64
150102,note_on,102,0,5,,,,,,,,,4,,69,0
150102,note_on,102,0,9,,,,,,,,,8,,45,0
150102,note_on,102,0,8,,,,,,,,,7,,57,0
150120,note_on,18,0,9,,,,,,,,,8,,43,64
150120,note_on,18,0,5,,,,,,,,,4,,67,49
150120,note_on,18,0,8,,,,,,,,,7,,55,64
150222,note_on,102,0,9,,,,,,,,,8,,43,0
150222,note_on,102,0,8,,,,,,,,,7,,55,0
150222,note_on,102,0,5,,,,,,,,,4,,67,0
150240,note_on,18,0,8,,,,,,,,,7,,53,64
150240,note_on,18,0,5,,,,,,,,,4,,65,49
150240,note_on,476,0,1,,,,,,,,,0,,58,0
150240,note_on,18,0,9,,,,,,,,,8,,41,64
150342,note_on,102,0,8,,,,,,,,,7,,53,0
150342,note_on,102,0,9,,,,,,,,,8,,41,0
150342,note_on,102,0,5,,,,,,,,,4,,65,0
150360,note_on,18,0,8,,,,,,,,,7,,51,64
150360,note_on,18,0,5,,,,,,,,,4,,63,49
150360,note_on,18,0,9,,,,,,,,,8,,39,64
150462,note_on,102,0,5,,,,,,,,,4,,63,0
150462,note_on,102,0,8,,,,,,,,,7,,51,0
150462,note_on,102,0,9,,,,,,,,,8,,39,0
150480,note_on,18,0,5,,,,,,,,,4,,62,49
150480,note_on,18,0,8,,,,,,,,,7,,50,64
150480,note_on,18,0,9,,,,,,,,,8,,38,64
150582,note_on,102,0,9,,,,,,,,,8,,38,0
150582,note_on,102,0,5,,,,,,,,,4,,62,0
150582,note_on,102,0,8,,,,,,,,,7,,50,0
150600,note_on,18,0,5,,,,,,,,,4,,60,49
150600,note_on,18,0,8,,,,,,,,,7,,48,64
150600,note_on,18,0,9,,,,,,,,,8,,36,64
150702,note_on,102,0,8,,,,,,,,,7,,48,0
150702,note_on,102,0,9,,,,,,,,,8,,36,0
150702,note_on,102,0,5,,,,,,,,,4,,60,0
150720,note_on,18,0,5,,,,,,,,,4,,58,49
150720,note_on,18,0,9,,,,,,,,,8,,34,64
150720,note_on,18,0,8,,,,,,,,,7,,46,64
151140,note_on,420,0,9,,,,,,,,,8,,34,0
151140,note_on,420,0,8,,,,,,,,,7,,46,0
151140,note_on,420,0,5,,,,,,,,,4,,58,0
151200,note_on,1338,0,7,,,,,,,,,6,,65,64
151200,note_on,960,0,1,,,,,,,,,0,,46,111
151200,note_on,60,0,9,,,,,,,,,8,,34,64
151200,note_on,60,0,8,,,,,,,,,7,,46,64
151290,note_on,90,0,1,,,,,,,,,0,,46,0
151360,note_on,70,0,1,,,,,,,,,0,,58,115
151440,note_on,300,0,5,,,,,,,,,4,,70,49
151440,note_on,1740,0,6,,,,,,,,,5,,62,64
151450,note_on,90,0,1,,,,,,,,,0,,58,0
151520,note_on,70,0,1,,,,,,,,,0,,58,116
151610,note_on,90,0,1,,,,,,,,,0,,58,0
151620,note_on,420,0,9,,,,,,,,,8,,34,0
151620,note_on,420,0,8,,,,,,,,,7,,46,0
151647,note_on,207,0,5,,,,,,,,,4,,70,0
151647,note_on,207,0,6,,,,,,,,,5,,62,0
151680,note_on,33,0,5,,,,,,,,,4,,70,49
151680,note_on,33,0,6,,,,,,,,,5,,62,64
151680,note_on,60,0,8,,,,,,,,,7,,58,64
151680,note_on,70,0,1,,,,,,,,,0,,58,118
151680,note_on,60,0,9,,,,,,,,,8,,46,64
151770,note_on,90,0,1,,,,,,,,,0,,58,0
151840,note_on,70,0,1,,,,,,,,,0,,60,120
151860,note_on,660,0,7,,,,,,,,,6,,65,0
151887,note_on,207,0,5,,,,,,,,,4,,70,0
151887,note_on,207,0,6,,,,,,,,,5,,62,0
151920,note_on,33,0,6,,,,,,,,,5,,62,64
151920,note_on,60,0,7,,,,,,,,,6,,62,64
151920,note_on,33,0,5,,,,,,,,,4,,70,49
151930,note_on,90,0,1,,,,,,,,,0,,60,0
152000,note_on,70,0,1,,,,,,,,,0,,58,120
152090,note_on,90,0,1,,,,,,,,,0,,58,0
152100,note_on,420,0,9,,,,,,,,,8,,46,0
152100,note_on,420,0,8,,,,,,,,,7,,58,0
152127,note_on,207,0,5,,,,,,,,,4,,70,0
152127,note_on,207,0,7,,,,,,,,,6,,62,0
152127,note_on,207,0,6,,,,,,,,,5,,62,0
152160,note_on,60,0,8,,,,,,,,,7,,50,64
152160,note_on,60,0,9,,,,,,,,,8,,38,64
152160,note_on,70,0,1,,,,,,,,,0,,56,118
152160,note_on,33,0,5,,,,,,,,,4,,77,49
152160,note_on,33,0,6,,,,,,,,,5,,68,64
152160,note_on,33,0,7,,,,,,,,,6,,58,64
152320,note_on,160,0,1,,,,,,,,,0,,55,116
152340,note_on,20,0,1,,,,,,,,,0,,56,0
152367,note_on,207,0,5,,,,,,,,,4,,77,0
152367,note_on,207,0,6,,,,,,,,,5,,68,0
152400,note_on,33,0,6,,,,,,,,,5,,65,64
152400,note_on,33,0,5,,,,,,,,,4,,68,49
152430,note_on,90,0,1,,,,,,,,,0,,55,0
152480,note_on,50,0,1,,,,,,,,,0,,56,113
152580,note_on,420,0,9,,,,,,,,,8,,38,0
152580,note_on,420,0,8,,,,,,,,,7,,50,0
152580,note_on,420,0,7,,,,,,,,,6,,58,0
152580,note_on,100,0,1,,,,,,,,,0,,56,0
152607,note_on,207,0,5,,,,,,,,,4,,68,0
152607,note_on,207,0,6,,,,,,,,,5,,65,0
152640,note_on,60,0,7,,,,,,,,,6,,70,64
152640,note_on,60,0,9,,,,,,,,,8,,39,64
152640,note_on,60,0,1,,,,,,,,,0,,55,115
152640,note_on,60,0,8,,,,,,,,,7,,51,64
152800,note_on,160,0,1,,,,,,,,,0,,58,116
152825,note_on,25,0,1,,,,,,,,,0,,55,0
152880,note_on,273,0,6,,,,,,,,,5,,63,64
152880,note_on,273,0,5,,,,,,,,,4,,67,49
152932,note_on,107,0,1,,,,,,,,,0,,58,0
152960,note_on,28,0,1,,,,,,,,,0,,55,117
153060,note_on,420,0,8,,,,,,,,,7,,51,0
153060,note_on,420,0,9,,,,,,,,,8,,39,0
153065,note_on,105,0,1,,,,,,,,,0,,55,0
153087,note_on,207,0,5,,,,,,,,,4,,67,0
153087,note_on,207,0,6,,,,,,,,,5,,63,0
153120,note_on,33,0,5,,,,,,,,,4,,70,49
153120,note_on,33,0,6,,,,,,,,,5,,67,64
153120,note_on,55,0,1,,,,,,,,,0,,51,119
153200,note_on,80,0,1,,,,,,,,,0,,51,0
153280,note_on,80,0,1,,,,,,,,,0,,46,117
153300,note_on,660,0,7,,,,,,,,,6,,70,0
153327,note_on,207,0,5,,,,,,,,,4,,70,0
153327,note_on,207,0,6,,,,,,,,,5,,67,0
153360,note_on,60,0,7,,,,,,,,,6,,67,64
153360,note_on,33,0,5,,,,,,,,,4,,70,49
153360,note_on,33,0,6,,,,,,,,,5,,67,64
153367,note_on,87,0,1,,,,,,,,,0,,46,0
153440,note_on,73,0,1,,,,,,,,,0,,43,114
153527,note_on,87,0,1,,,,,,,,,0,,43,0
153567,note_on,207,0,6,,,,,,,,,5,,67,0
153567,note_on,207,0,5,,,,,,,,,4,,70,0
153567,note_on,207,0,7,,,,,,,,,6,,67,0
153600,note_on,33,0,5,,,,,,,,,4,,79,49
153600,note_on,33,0,6,,,,,,,,,5,,70,64
153600,note_on,33,0,7,,,,,,,,,6,,63,64
153600,note_on,73,0,1,,,,,,,,,0,,39,112
153807,note_on,207,0,6,,,,,,,,,5,,70,0
153807,note_on,207,0,5,,,,,,,,,4,,79,0
153840,note_on,33,0,6,,,,,,,,,5,,67,64
153840,note_on,33,0,5,,,,,,,,,4,,70,49
153920,note_on,320,0,1,,,,,,,,,0,,39,0
154020,note_on,420,0,7,,,,,,,,,6,,63,0
154047,note_on,207,0,5,,,,,,,,,4,,70,0
154047,note_on,207,0,6,,,,,,,,,5,,67,0
154080,note_on,160,0,1,,,,,,,,,0,,48,106
154080,note_on,60,0,7,,,,,,,,,6,,67,64
154080,note_on,1020,0,8,,,,,,,,,7,,52,64
154080,note_on,1020,0,9,,,,,,,,,8,,40,64
154175,note_on,95,0,1,,,,,,,,,0,,48,0
154240,note_on,65,0,1,,,,,,,,,0,,60,107
154320,note_on,273,0,5,,,,,,,,,4,,72,49
154320,note_on,273,0,6,,,,,,,,,5,,67,64
154327,note_on,87,0,1,,,,,,,,,0,,60,0
154400,note_on,73,0,1,,,,,,,,,0,,60,107
154487,note_on,87,0,1,,,,,,,,,0,,60,0
154500,note_on,420,0,9,,,,,,,,,8,,40,0
154500,note_on,420,0,8,,,,,,,,,7,,52,0
154527,note_on,207,0,5,,,,,,,,,4,,72,0
154527,note_on,207,0,6,,,,,,,,,5,,67,0
154560,note_on,73,0,1,,,,,,,,,0,,60,110
154560,note_on,60,0,8,,,,,,,,,7,,60,64
154560,note_on,60,0,9,,,,,,,,,8,,48,64
154560,note_on,33,0,5,,,,,,,,,4,,72,49
154560,note_on,33,0,6,,,,,,,,,5,,67,64
154647,note_on,87,0,1,,,,,,,,,0,,60,0
154720,note_on,73,0,1,,,,,,,,,0,,62,114
154740,note_on,660,0,7,,,,,,,,,6,,67,0
154767,note_on,207,0,6,,,,,,,,,5,,67,0
154767,note_on,207,0,5,,,,,,,,,4,,72,0
154800,note_on,60,0,7,,,,,,,,,6,,64,64
154800,note_on,33,0,5,,,,,,,,,4,,72,49
154800,note_on,33,0,6,,,,,,,,,5,,67,64
154807,note_on,87,0,1,,,,,,,,,0,,62,0
154880,note_on,73,0,1,,,,,,,,,0,,60,115
154967,note_on,87,0,1,,,,,,,,,0,,60,0
154980,note_on,420,0,8,,,,,,,,,7,,60,0
154980,note_on,420,0,9,,,,,,,,,8,,48,0
155007,note_on,207,0,5,,,,,,,,,4,,72,0
155007,note_on,207,0,6,,,,,,,,,5,,67,0
155007,note_on,207,0,7,,,,,,,,,6,,64,0
155040,note_on,33,0,5,,,,,,,,,4,,79,49
155040,note_on,60,0,8,,,,,,,,,7,,52,64
155040,note_on,60,0,9,,,,,,,,,8,,40,64
155040,note_on,33,0,6,,,,,,,,,5,,70,64
155040,note_on,73,0,1,,,,,,,,,0,,58,116
155040,note_on,33,0,7,,,,,,,,,6,,60,64
155092,note_on,52,0,1,,,,,,,,,0,,60,116
155120,note_on,28,0,1,,,,,,,,,0,,58,0
155155,note_on,35,0,1,,,,,,,,,0,,58,116
155172,note_on,17,0,1,,,,,,,,,0,,60,0
155225,note_on,53,0,1,,,,,,,,,0,,57,114
155247,note_on,207,0,5,,,,,,,,,4,,79,0
155247,note_on,207,0,6,,,,,,,,,5,,70,0
155262,note_on,37,0,1,,,,,,,,,0,,58,0
155280,note_on,33,0,5,,,,,,,,,4,,70,49
155280,note_on,33,0,6,,,,,,,,,5,,67,64
155377,note_on,115,0,1,,,,,,,,,0,,58,110
155400,note_on,23,0,1,,,,,,,,,0,,57,0
155460,note_on,420,0,8,,,,,,,,,7,,52,0
155460,note_on,420,0,7,,,,,,,,,6,,60,0
155460,note_on,420,0,9,,,,,,,,,8,,40,0
155487,note_on,207,0,6,,,,,,,,,5,,67,0
155487,note_on,207,0,5,,,,,,,,,4,,70,0
155520,note_on,60,0,9,,,,,,,,,8,,41,64
155520,note_on,120,0,1,,,,,,,,,0,,57,108
155520,note_on,60,0,7,,,,,,,,,6,,72,64
155520,note_on,60,0,8,,,,,,,,,7,,53,64
155527,note_on,7,0,1,,,,,,,,,0,,58,0
155680,note_on,153,0,1,,,,,,,,,0,,60,109
155697,note_on,17,0,1,,,,,,,,,0,,57,0
155760,note_on,273,0,6,,,,,,,,,5,,65,64
155760,note_on,273,0,5,,,,,,,,,4,,69,49
155775,note_on,78,0,1,,,,,,,,,0,,60,0
155840,note_on,65,0,1,,,,,,,,,0,,57,110
155927,note_on,87,0,1,,,,,,,,,0,,57,0
155940,note_on,420,0,8,,,,,,,,,7,,53,0
155940,note_on,420,0,9,,,,,,,,,8,,41,0
155967,note_on,207,0,6,,,,,,,,,5,,65,0
155967,note_on,207,0,5,,,,,,,,,4,,69,0
156000,note_on,73,0,1,,,,,,,,,0,,53,114
156000,note_on,33,0,6,,,,,,,,,5,,65,64
156000,note_on,33,0,5,,,,,,,,,4,,69,49
156080,note_on,80,0,1,,,,,,,,,0,,53,0
156160,note_on,80,0,1,,,,,,,,,0,,48,108
156180,note_on,660,0,7,,,,,,,,,6,,72,0
156207,note_on,207,0,5,,,,,,,,,4,,69,0
156207,note_on,207,0,6,,,,,,,,,5,,65,0
156225,note_on,65,0,1,,,,,,,,,0,,48,0
156240,note_on,60,0,7,,,,,,,,,6,,69,64
156240,note_on,33,0,5,,,,,,,,,4,,69,49
156240,note_on,33,0,6,,,,,,,,,5,,65,64
156320,note_on,95,0,1,,,,,,,,,0,,45,105
156385,note_on,65,0,1,,,,,,,,,0,,45,0
156447,note_on,207,0,6,,,,,,,,,5,,65,0
156447,note_on,207,0,7,,,,,,,,,6,,69,0
156447,note_on,207,0,5,,,,,,,,,4,,69,0
156480,note_on,33,0,6,,,,,,,,,5,,69,64
156480,note_on,33,0,5,,,,,,,,,4,,72,49
156480,note_on,95,0,1,,,,,,,,,0,,41,103
156480,note_on,33,0,7,,,,,,,,,6,,65,64
156687,note_on,207,0,6,,,,,,,,,5,,69,0
156687,note_on,207,0,5,,,,,,,,,4,,72,0
156720,note_on,33,0,6,,,,,,,,,5,,57,64
156720,note_on,33,0,5,,,,,,,,,4,,65,49
156815,note_on,335,0,1,,,,,,,,,0,,41,0
156900,note_on,420,0,7,,,,,,,,,6,,65,0
156927,note_on,207,0,6,,,,,,,,,5,,57,0
156927,note_on,207,0,5,,,,,,,,,4,,65,0
156960,note_on,145,0,1,,,,,,,,,0,,60,99
156960,note_on,1020,0,8,,,,,,,,,7,,53,64
156960,note_on,0,0,3,,,,,,,,,2,,65,49
156960,note_on,1020,0,9,,,,,,,,,8,,41,64
156960,note_on,17820,0,3,,,,,,,,,2,,53,49
157380,note_on,420,0,8,,,,,,,,,7,,53,0
157380,note_on,420,0,9,,,,,,,,,8,,41,0
157440,note_on,480,0,1,,,,,,,,,0,,61,99
157495,note_on,55,0,1,,,,,,,,,0,,60,0
157920,note_on,425,0,1,,,,,,,,,0,,58,97
157920,note_on,1020,0,7,,,,,,,,,6,,64,64
157950,note_on,30,0,1,,,,,,,,,0,,61,0
158340,note_on,420,0,7,,,,,,,,,6,,64,0
158400,note_on,1473,0,5,,,,,,,,,4,,72,49
158400,note_on,1020,0,9,,,,,,,,,8,,29,64
158400,note_on,1020,0,8,,,,,,,,,7,,41,64
158400,note_on,60,0,7,,,,,,,,,6,,65,64
158400,note_on,0,0,1,,,,,,,,,0,,57,102
158400,note_on,450,0,1,,,,,,,,,0,,58,0
158560,note_on,160,0,1,,,,,,,,,0,,60,105
158582,note_on,22,0,1,,,,,,,,,0,,57,0
158720,note_on,138,0,1,,,,,,,,,0,,65,105
158725,note_on,5,0,1,,,,,,,,,0,,60,0
158820,note_on,420,0,7,,,,,,,,,6,,65,0
158820,note_on,420,0,5,,,,,,,,,4,,72,0
158820,note_on,420,0,8,,,,,,,,,7,,41,0
158820,note_on,420,0,9,,,,,,,,,8,,29,0
158845,note_on,120,0,1,,,,,,,,,0,,65,0
158880,note_on,60,0,5,,,,,,,,,4,,73,49
158880,note_on,35,0,1,,,,,,,,,0,,65,110
159300,note_on,420,0,5,,,,,,,,,4,,73,0
159360,note_on,60,0,5,,,,,,,,,4,,70,49
159360,note_on,2433,0,6,,,,,,,,,5,,76,64
159702,note_on,822,0,1,,,,,,,,,0,,65,0
159780,note_on,420,0,6,,,,,,,,,5,,76,0
159780,note_on,420,0,5,,,,,,,,,4,,70,0
159840,note_on,1020,0,9,,,,,,,,,8,,41,64
159840,note_on,60,0,6,,,,,,,,,5,,77,64
159840,note_on,60,0,5,,,,,,,,,4,,69,49
159840,note_on,1020,0,8,,,,,,,,,7,,53,64
159840,note_on,138,0,1,,,,,,,,,0,,60,102
159980,note_on,140,0,5,,,,,,,,,4,,69,0
159997,note_on,17,0,5,,,,,,,,,4,,72,49
160139,note_on,142,0,5,,,,,,,,,4,,72,0
160157,note_on,18,0,5,,,,,,,,,4,,77,49
160260,note_on,420,0,6,,,,,,,,,5,,77,0
160260,note_on,420,0,8,,,,,,,,,7,,53,0
160260,note_on,420,0,9,,,,,,,,,8,,41,0
160297,note_on,140,0,5,,,,,,,,,4,,77,0
160320,note_on,23,0,5,,,,,,,,,4,,77,49
160320,note_on,480,0,1,,,,,,,,,0,,61,107
160350,note_on,30,0,1,,,,,,,,,0,,60,0
160800,note_on,450,0,1,,,,,,,,,0,,58,103
160800,note_on,1980,0,7,,,,,,,,,6,,64,64
160837,note_on,37,0,1,,,,,,,,,0,,61,0
161220,note_on,420,0,7,,,,,,,,,6,,64,0
161220,note_on,900,0,5,,,,,,,,,4,,77,0
161260,note_on,423,0,1,,,,,,,,,0,,58,0
161280,note_on,20,0,1,,,,,,,,,0,,57,100
161280,note_on,60,0,5,,,,,,,,,4,,72,49
161280,note_on,60,0,7,,,,,,,,,6,,65,64
161280,note_on,1020,0,9,,,,,,,,,8,,29,64
161280,note_on,1020,0,8,,,,,,,,,7,,41,64
161440,note_on,160,0,1,,,,,,,,,0,,60,100
161477,note_on,37,0,1,,,,,,,,,0,,57,0
161600,note_on,123,0,1,,,,,,,,,0,,65,101
161630,note_on,30,0,1,,,,,,,,,0,,60,0
161700,note_on,420,0,9,,,,,,,,,8,,29,0
161700,note_on,420,0,8,,,,,,,,,7,,41,0
161700,note_on,420,0,5,,,,,,,,,4,,72,0
161700,note_on,420,0,7,,,,,,,,,6,,65,0
161725,note_on,95,0,1,,,,,,,,,0,,65,0
161760,note_on,60,0,5,,,,,,,,,4,,73,49
161760,note_on,35,0,1,,,,,,,,,0,,65,104
162180,note_on,420,0,5,,,,,,,,,4,,73,0
162240,note_on,60,0,5,,,,,,,,,4,,70,49
162240,note_on,1980,0,6,,,,,,,,,5,,76,64
162550,note_on,790,0,1,,,,,,,,,0,,65,0
162660,note_on,420,0,6,,,,,,,,,5,,76,0
162660,note_on,420,0,5,,,,,,,,,4,,70,0
162720,note_on,60,0,5,,,,,,,,,4,,69,49
162720,note_on,1020,0,8,,,,,,,,,7,,53,64
162720,note_on,170,0,1,,,,,,,,,0,,60,110
162720,note_on,60,0,6,,,,,,,,,5,,77,64
162720,note_on,1020,0,9,,,,,,,,,8,,41,64
162860,note_on,140,0,5,,,,,,,,,4,,69,0
162877,note_on,17,0,5,,,,,,,,,4,,72,49
163019,note_on,142,0,5,,,,,,,,,4,,72,0
163037,note_on,18,0,5,,,,,,,,,4,,77,49
163140,note_on,420,0,9,,,,,,,,,8,,41,0
163140,note_on,420,0,8,,,,,,,,,7,,53,0
163140,note_on,420,0,6,,,,,,,,,5,,77,0
163177,note_on,140,0,5,,,,,,,,,4,,77,0
163200,note_on,480,0,1,,,,,,,,,0,,61,117
163200,note_on,23,0,5,,,,,,,,,4,,77,49
163262,note_on,62,0,1,,,,,,,,,0,,60,0
163380,set_tempo,46658,1,0,,,,,,600000,,,,,,
163407,set_tempo,27,1,0,,,,,,612245,,,,,,
163420,set_tempo,13,1,0,,,,,,618557,,,,,,
163437,set_tempo,17,1,0,,,,,,625000,,,,,,
163447,set_tempo,10,1,0,,,,,,631579,,,,,,
163607,set_tempo,160,1,0,,,,,,638298,,,,,,
163617,set_tempo,10,1,0,,,,,,645161,,,,,,
163620,note_on,420,0,5,,,,,,,,,4,,77,0
163627,set_tempo,10,1,0,,,,,,652174,,,,,,
163637,set_tempo,10,1,0,,,,,,659341,,,,,,
163647,set_tempo,10,1,0,,,,,,666667,,,,,,
163680,note_on,60,0,5,,,,,,,,,4,,77,49
163680,note_on,540,0,6,,,,,,,,,5,,61,64
163680,note_on,418,0,1,,,,,,,,,0,,58,122
163680,note_on,1980,0,7,,,,,,,,,6,,58,64
163700,note_on,20,0,1,,,,,,,,,0,,61,0
163740,set_tempo,93,1,0,,,,,,674157,,,,,,
163780,set_tempo,40,1,0,,,,,,681818,,,,,,
163797,set_tempo,17,1,0,,,,,,689655,,,,,,
163817,set_tempo,20,1,0,,,,,,697674,,,,,,
163820,set_tempo,3,1,0,,,,,,705882,,,,,,
163860,set_tempo,40,1,0,,,,,,714286,,,,,,
163877,set_tempo,17,1,0,,,,,,722892,,,,,,
163887,set_tempo,10,1,0,,,,,,731707,,,,,,
163897,set_tempo,10,1,0,,,,,,740741,,,,,,
163907,set_tempo,10,1,0,,,,,,750000,,,,,,
163920,set_tempo,13,1,0,,,,,,759494,,,,,,
163967,set_tempo,47,1,0,,,,,,769231,,,,,,
163980,set_tempo,13,1,0,,,,,,779221,,,,,,
163995,set_tempo,15,1,0,,,,,,769231,,,,,,
164060,set_tempo,65,1,0,,,,,,789474,,,,,,
164075,set_tempo,15,1,0,,,,,,810811,,,,,,
164080,note_on,380,0,1,,,,,,,,,0,,58,0
164090,set_tempo,15,1,0,,,,,,833333,,,,,,
164100,note_on,420,0,7,,,,,,,,,6,,58,0
164100,note_on,420,0,5,,,,,,,,,4,,77,0
164100,note_on,420,0,6,,,,,,,,,5,,61,0
164107,set_tempo,17,1,0,,,,,,857143,,,,,,
164115,set_tempo,8,1,0,,,,,,869565,,,,,,
164122,set_tempo,7,1,0,,,,,,882353,,,,,,
164140,set_tempo,18,1,0,,,,,,923077,,,,,,
164147,set_tempo,7,1,0,,,,,,937500,,,,,,
164155,set_tempo,8,1,0,,,,,,967742,,,,,,
164160,note_on,1020,0,9,,,,,,,,,8,,29,64
164160,note_on,80,0,1,,,,,,,,,0,,67,118
164160,note_on,60,0,7,,,,,,,,,6,,57,64
164160,note_on,60,0,6,,,,,,,,,5,,60,64
164160,note_on,1020,0,8,,,,,,,,,7,,41,64
164160,note_on,60,0,5,,,,,,,,,4,,77,49
164170,set_tempo,15,1,0,,,,,,1000000,,,,,,
164212,set_tempo,42,1,0,,,,,,1016949,,,,,,
164220,set_tempo,8,1,0,,,,,,1000000,,,,,,
164230,set_tempo,10,1,0,,,,,,983607,,,,,,
164240,set_tempo,10,1,0,,,,,,967742,,,,,,
164242,set_tempo,2,1,0,,,,,,882353,,,,,,
164250,set_tempo,8,1,0,,,,,,869565,,,,,,
164267,set_tempo,17,1,0,,,,,,857143,,,,,,
164282,set_tempo,15,1,0,,,,,,845070,,,,,,
164290,note_on,130,0,1,,,,,,,,,0,,65,116
164300,set_tempo,18,1,0,,,,,,833333,,,,,,
164310,note_on,20,0,1,,,,,,,,,0,,67,0
164315,set_tempo,15,1,0,,,,,,821918,,,,,,
164365,note_on,55,0,1,,,,,,,,,0,,67,116
164397,note_on,32,0,1,,,,,,,,,0,,65,0
164437,note_on,40,0,1,,,,,,,,,0,,67,0
164437,note_on,0,0,1,,,,,,,,,0,,65,116
164480,note_on,43,0,1,,,,,,,,,0,,67,116
164512,note_on,32,0,1,,,,,,,,,0,,65,0
164535,note_on,23,0,1,,,,,,,,,0,,65,116
164555,set_tempo,240,1,0,,,,,,810811,,,,,,
164555,note_on,20,0,1,,,,,,,,,0,,67,0
164575,note_on,20,0,1,,,,,,,,,0,,67,116
164580,note_on,420,0,8,,,,,,,,,7,,41,0
164580,note_on,420,0,9,,,,,,,,,8,,29,0
164580,note_on,420,0,7,,,,,,,,,6,,57,0
164580,note_on,420,0,6,,,,,,,,,5,,60,0
164580,note_on,0,0,3,,,,,,,,,2,,53,0
164580,note_on,7620,0,3,,,,,,,,,2,,65,0
164580,note_on,420,0,5,,,,,,,,,4,,77,0
164610,note_on,35,0,1,,,,,,,,,0,,65,0
164630,note_on,20,0,1,,,,,,,,,0,,65,116
164650,note_on,20,0,1,,,,,,,,,0,,67,0
164670,note_on,20,0,1,,,,,,,,,0,,67,116
164705,note_on,35,0,1,,,,,,,,,0,,65,0
164715,set_tempo,160,1,0,,,,,,821918,,,,,,
164732,note_on,27,0,1,,,,,,,,,0,,65,117
164745,note_on,13,0,1,,,,,,,,,0,,67,0
164747,set_tempo,32,1,0,,,,,,845070,,,,,,
164777,note_on,32,0,1,,,,,,,,,0,,67,117
164780,set_tempo,33,1,0,,,,,,857143,,,,,,
164807,note_on,30,0,1,,,,,,,,,0,,65,0
164827,set_tempo,47,1,0,,,,,,909091,,,,,,
164835,note_on,28,0,1,,,,,,,,,0,,65,117
164842,set_tempo,15,1,0,,,,,,923077,,,,,,
164852,note_on,17,0,1,,,,,,,,,0,,67,0
164860,set_tempo,18,1,0,,,,,,937500,,,,,,
164875,set_tempo,15,1,0,,,,,,952381,,,,,,
164890,set_tempo,15,1,0,,,,,,1016949,,,,,,
164892,note_on,40,0,1,,,,,,,,,0,,67,117
164907,set_tempo,17,1,0,,,,,,1052632,,,,,,
164910,note_on,18,0,1,,,,,,,,,0,,65,0
164915,set_tempo,8,1,0,,,,,,1071429,,,,,,
164922,set_tempo,7,1,0,,,,,,1224490,,,,,,
164930,set_tempo,8,1,0,,,,,,1250000,,,,,,
164940,set_tempo,10,1,0,,,,,,1538462,,,,,,
164940,note_on,30,0,1,,,,,,,,,0,,65,117
164947,set_tempo,7,1,0,,,,,,1578947,,,,,,
164955,set_tempo,8,1,0,,,,,,1621622,,,,,,
164962,set_tempo,7,1,0,,,,,,1666667,,,,,,
164970,set_tempo,8,1,0,,,,,,1714286,,,,,,
164972,note_on,32,0,1,,,,,,,,,0,,67,0
164980,set_tempo,10,1,0,,,,,,1764706,,,,,,
164990,note_on,18,0,1,,,,,,,,,0,,64,117
164995,set_tempo,15,1,0,,,,,,1875000,,,,,,
165010,set_tempo,15,1,0,,,,,,1935484,,,,,,
165020,note_on,30,0,1,,,,,,,,,0,,65,0
165020,set_tempo,10,1,0,,,,,,2000000,,,,,,
165042,set_tempo,22,1,0,,,,,,2068966,,,,,,
165050,set_tempo,8,1,0,,,,,,2142857,,,,,,
165050,note_on,30,0,1,,,,,,,,,0,,65,117
165067,set_tempo,17,1,0,,,,,,2222222,,,,,,
165070,note_on,20,0,1,,,,,,,,,0,,64,0
165075,set_tempo,8,1,0,,,,,,2307692,,,,,,
165100,set_tempo,25,1,0,,,,,,2400000,,,,,,
165120,note_on,50,0,1,,,,,,,,,0,,53,117
165135,note_on,15,0,1,,,,,,,,,0,,65,0
165275,set_tempo,175,1,0,,,,,,2400000,,,,,,
165355,set_tempo,80,1,0,,,,,,2307692,,,,,,
165370,set_tempo,15,1,0,,,,,,2222222,,,,,,
165380,set_tempo,10,1,0,,,,,,2142857,,,,,,
165387,set_tempo,7,1,0,,,,,,2068966,,,,,,
165395,set_tempo,8,1,0,,,,,,2000000,,,,,,
165402,set_tempo,7,1,0,,,,,,1935484,,,,,,
165410,set_tempo,8,1,0,,,,,,1818182,,,,,,
165420,set_tempo,10,1,0,,,,,,1764706,,,,,,
165427,set_tempo,7,1,0,,,,,,1714286,,,,,,
165435,set_tempo,8,1,0,,,,,,1621622,,,,,,
165442,set_tempo,7,1,0,,,,,,1578947,,,,,,
165450,set_tempo,8,1,0,,,,,,1538462,,,,,,
165460,set_tempo,10,1,0,,,,,,1500000,,,,,,
165467,set_tempo,7,1,0,,,,,,1463415,,,,,,
165475,set_tempo,8,1,0,,,,,,1428571,,,,,,
165482,set_tempo,7,1,0,,,,,,1395349,,,,,,
165490,set_tempo,8,1,0,,,,,,1333333,,,,,,
165500,set_tempo,10,1,0,,,,,,1304348,,,,,,
165507,set_tempo,7,1,0,,,,,,1276596,,,,,,
165515,set_tempo,8,1,0,,,,,,1224490,,,,,,
165522,set_tempo,7,1,0,,,,,,1200000,,,,,,
165530,set_tempo,8,1,0,,,,,,1176471,,,,,,
165540,note_on,405,0,1,,,,,,,,,0,,53,0
165547,set_tempo,17,1,0,,,,,,1090909,,,,,,
165565,set_tempo,18,1,0,,,,,,937500,,,,,,
165572,set_tempo,7,1,0,,,,,,923077,,,,,,
165580,set_tempo,8,1,0,,,,,,895522,,,,,,
165587,set_tempo,7,1,0,,,,,,869565,,,,,,
165595,set_tempo,8,1,0,,,,,,600000,,,,,,
165600,note_on,1020,0,9,,,,,,,,,8,,46,64
165600,note_on,1020,0,8,,,,,,,,,7,,58,64
165600,note_on,60,0,1,,,,,,,,,0,,58,115
165602,set_tempo,7,1,0,,,,,,555556,,,,,,
165840,note_on,1260,0,5,,,,,,,,,4,,77,49
165942,note_on,102,0,5,,,,,,,,,4,,77,0
165960,note_on,18,0,5,,,,,,,,,4,,76,49
166020,note_on,420,0,9,,,,,,,,,8,,46,0
166020,note_on,420,0,8,,,,,,,,,7,,58,0
166062,note_on,102,0,5,,,,,,,,,4,,76,0
166080,note_on,60,0,9,,,,,,,,,8,,50,64
166080,note_on,60,0,8,,,,,,,,,7,,62,64
166080,note_on,1500,0,7,,,,,,,,,6,,65,64
166080,note_on,18,0,5,,,,,,,,,4,,77,49
166287,note_on,207,0,5,,,,,,,,,4,,77,0
166320,note_on,33,0,5,,,,,,,,,4,,70,49
166500,note_on,420,0,9,,,,,,,,,8,,50,0
166500,note_on,420,0,7,,,,,,,,,6,,65,0
166500,note_on,420,0,8,,,,,,,,,7,,62,0
166527,note_on,207,0,5,,,,,,,,,4,,70,0
166535,note_on,935,0,1,,,,,,,,,0,,58,0
166560,note_on,33,0,5,,,,,,,,,4,,72,49
166560,note_on,25,0,1,,,,,,,,,0,,60,111
166560,note_on,60,0,8,,,,,,,,,7,,58,64
166560,note_on,60,0,7,,,,,,,,,6,,70,64
166560,note_on,60,0,9,,,,,,,,,8,,46,64
166767,note_on,207,0,5,,,,,,,,,4,,72,0
166800,note_on,240,0,1,,,,,,,,,0,,62,112
166800,note_on,33,0,5,,,,,,,,,4,,74,49
166822,note_on,22,0,1,,,,,,,,,0,,60,0
166980,note_on,420,0,9,,,,,,,,,8,,46,0
166980,note_on,420,0,8,,,,,,,,,7,,58,0
166980,note_on,420,0,7,,,,,,,,,6,,70,0
167000,note_on,178,0,1,,,,,,,,,0,,62,0
167007,note_on,207,0,5,,,,,,,,,4,,74,0
167040,note_on,40,0,1,,,,,,,,,0,,65,116
167040,note_on,60,0,7,,,,,,,,,6,,69,64
167040,note_on,60,0,9,,,,,,,,,8,,48,64
167040,note_on,60,0,8,,,,,,,,,7,,60,64
167040,note_on,33,0,5,,,,,,,,,4,,77,49
167247,note_on,207,0,5,,,,,,,,,4,,77,0
167280,note_on,33,0,5,,,,,,,,,4,,75,49
167280,note_on,2700,0,6,,,,,,,,,5,,69,64
167280,note_on,240,0,1,,,,,,,,,0,,63,117
167310,note_on,30,0,1,,,,,,,,,0,,65,0
167382,note_on,102,0,6,,,,,,,,,5,,69,0
167400,note_on,18,0,6,,,,,,,,,5,,70,64
167460,note_on,420,0,8,,,,,,,,,7,,60,0
167460,note_on,420,0,7,,,,,,,,,6,,69,0
167460,note_on,420,0,9,,,,,,,,,8,,48,0
167480,note_on,170,0,1,,,,,,,,,0,,63,0
167487,note_on,207,0,5,,,,,,,,,4,,75,0
167502,note_on,102,0,6,,,,,,,,,5,,70,0
167520,note_on,60,0,7,,,,,,,,,6,,65,64
167520,note_on,40,0,1,,,,,,,,,0,,63,117
167520,note_on,60,0,9,,,,,,,,,8,,45,64
167520,note_on,18,0,6,,,,,,,,,5,,72,64
167520,note_on,60,0,8,,,,,,,,,7,,57,64
167520,note_on,33,0,5,,,,,,,,,4,,75,49
167727,note_on,207,0,6,,,,,,,,,5,,72,0
167760,note_on,33,0,6,,,,,,,,,5,,65,64
167940,note_on,420,0,7,,,,,,,,,6,,65,0
167940,note_on,420,0,9,,,,,,,,,8,,45,0
167940,note_on,420,0,8,,,,,,,,,7,,57,0
167967,note_on,207,0,6,,,,,,,,,5,,65,0
168000,note_on,33,0,6,,,,,,,,,5,,67,64
168000,note_on,60,0,9,,,,,,,,,8,,41,64
168000,note_on,60,0,8,,,,,,,,,7,,53,64
168207,note_on,207,0,6,,,,,,,,,5,,67,0
168240,note_on,33,0,6,,,,,,,,,5,,69,64
168295,note_on,775,0,1,,,,,,,,,0,,63,0
168420,note_on,900,0,5,,,,,,,,,4,,75,0
168420,note_on,420,0,9,,,,,,,,,8,,41,0
168420,note_on,420,0,8,,,,,,,,,7,,53,0
168447,note_on,207,0,6,,,,,,,,,5,,69,0
168480,note_on,185,0,1,,,,,,,,,0,,62,121
168480,note_on,33,0,6,,,,,,,,,5,,70,64
168480,note_on,60,0,9,,,,,,,,,8,,46,64
168480,note_on,60,0,8,,,,,,,,,7,,58,64
168720,note_on,240,0,1,,,,,,,,,0,,65,121
168720,note_on,300,0,5,,,,,,,,,4,,74,49
168742,note_on,22,0,1,,,,,,,,,0,,62,0
168822,note_on,102,0,5,,,,,,,,,4,,74,0
168840,note_on,18,0,5,,,,,,,,,4,,72,49
168900,note_on,420,0,8,,,,,,,,,7,,58,0
168900,note_on,420,0,9,,,,,,,,,8,,46,0
168900,note_on,158,0,1,,,,,,,,,0,,65,0
168900,note_on,420,0,6,,,,,,,,,5,,70,0
168942,note_on,102,0,5,,,,,,,,,4,,72,0
168960,note_on,60,0,9,,,,,,,,,8,,43,64
168960,note_on,1020,0,7,,,,,,,,,6,,58,64
168960,note_on,60,0,8,,,,,,,,,7,,55,64
168960,note_on,18,0,5,,,,,,,,,4,,74,49
168960,note_on,60,0,1,,,,,,,,,0,,58,119
169167,note_on,207,0,5,,,,,,,,,4,,74,0
169200,note_on,33,0,5,,,,,,,,,4,,70,49
169200,note_on,240,0,1,,,,,,,,,0,,62,119
169222,note_on,22,0,1,,,,,,,,,0,,58,0
169362,note_on,140,0,1,,,,,,,,,0,,62,0
169380,note_on,420,0,9,,,,,,,,,8,,43,0
169380,note_on,420,0,7,,,,,,,,,6,,58,0
169380,note_on,420,0,8,,,,,,,,,7,,55,0
169407,note_on,207,0,5,,,,,,,,,4,,70,0
169440,note_on,60,0,7,,,,,,,,,6,,63,64
169440,note_on,78,0,1,,,,,,,,,0,,55,118
169440,note_on,33,0,5,,,,,,,,,4,,79,49
169440,note_on,60,0,9,,,,,,,,,8,,39,64
169440,note_on,60,0,8,,,,,,,,,7,,51,64
169647,note_on,207,0,5,,,,,,,,,4,,79,0
169680,note_on,240,0,1,,,,,,,,,0,,60,118
169680,note_on,33,0,5,,,,,,,,,4,,70,49
169702,note_on,22,0,1,,,,,,,,,0,,55,0
169850,note_on,148,0,1,,,,,,,,,0,,60,0
169860,note_on,420,0,7,,,,,,,,,6,,63,0
169860,note_on,420,0,9,,,,,,,,,8,,39,0
169860,note_on,420,0,8,,,,,,,,,7,,51,0
169887,note_on,207,0,5,,,,,,,,,4,,70,0
169920,note_on,60,0,9,,,,,,,,,8,,41,64
169920,note_on,60,0,7,,,,,,,,,6,,65,64
169920,note_on,33,0,5,,,,,,,,,4,,70,49
169920,note_on,60,0,8,,,,,,,,,7,,53,64
169920,note_on,70,0,1,,,,,,,,,0,,58,118
170127,note_on,207,0,5,,,,,,,,,4,,70,0
170160,note_on,1260,0,6,,,,,,,,,5,,72,64
170160,note_on,33,0,5,,,,,,,,,4,,69,49
170160,note_on,240,0,1,,,,,,,,,0,,57,118
170200,note_on,40,0,1,,,,,,,,,0,,58,0
170262,note_on,102,0,6,,,,,,,,,5,,72,0
170280,note_on,18,0,6,,,,,,,,,5,,70,64
170340,note_on,420,0,8,,,,,,,,,7,,53,0
170340,note_on,420,0,9,,,,,,,,,8,,41,0
170340,note_on,420,0,7,,,,,,,,,6,,65,0
170367,note_on,207,0,5,,,,,,,,,4,,69,0
170382,note_on,102,0,6,,,,,,,,,5,,70,0
170400,note_on,18,0,6,,,,,,,,,5,,69,64
170400,note_on,200,0,1,,,,,,,,,0,,55,118
170400,note_on,60,0,9,,,,,,,,,8,,41,64
170400,note_on,60,0,8,,,,,,,,,7,,53,64
170400,note_on,60,0,7,,,,,,,,,6,,69,64
170400,note_on,33,0,5,,,,,,,,,4,,72,49
170430,note_on,30,0,1,,,,,,,,,0,,57,0
170607,note_on,207,0,6,,,,,,,,,5,,69,0
170640,note_on,210,0,1,,,,,,,,,0,,53,118
170640,note_on,33,0,6,,,,,,,,,5,,65,64
170670,note_on,30,0,1,,,,,,,,,0,,55,0
170820,note_on,420,0,7,,,,,,,,,6,,69,0
170820,note_on,420,0,8,,,,,,,,,7,,53,0
170820,note_on,420,0,9,,,,,,,,,8,,41,0
170847,note_on,207,0,6,,,,,,,,,5,,65,0
170880,note_on,60,0,9,,,,,,,,,8,,39,64
170880,note_on,210,0,1,,,,,,,,,0,,55,122
170880,note_on,60,0,8,,,,,,,,,7,,51,64
170880,note_on,33,0,6,,,,,,,,,5,,67,64
170910,note_on,30,0,1,,,,,,,,,0,,53,0
171087,note_on,207,0,6,,,,,,,,,5,,67,0
171120,note_on,210,0,1,,,,,,,,,0,,57,123
171120,note_on,33,0,6,,,,,,,,,5,,69,64
171135,note_on,15,0,1,,,,,,,,,0,,55,0
171300,note_on,420,0,8,,,,,,,,,7,,51,0
171300,note_on,420,0,9,,,,,,,,,8,,39,0
171300,note_on,900,0,5,,,,,,,,,4,,72,0
171320,note_on,185,0,1,,,,,,,,,0,,57,0
171327,note_on,207,0,6,,,,,,,,,5,,69,0
171360,note_on,33,0,6,,,,,,,,,5,,70,64
171360,note_on,60,0,9,,,,,,,,,8,,38,64
171360,note_on,40,0,1,,,,,,,,,0,,58,123
171360,note_on,60,0,8,,,,,,,,,7,,50,64
171600,note_on,300,0,5,,,,,,,,,4,,77,49
171702,note_on,102,0,5,,,,,,,,,4,,77,0
171720,note_on,18,0,5,,,,,,,,,4,,76,49
171780,note_on,420,0,8,,,,,,,,,7,,50,0
171780,note_on,420,0,6,,,,,,,,,5,,70,0
171780,note_on,420,0,9,,,,,,,,,8,,38,0
171822,note_on,102,0,5,,,,,,,,,4,,76,0
171840,note_on,60,0,9,,,,,,,,,8,,50,64
171840,note_on,60,0,8,,,,,,,,,7,,62,64
171840,note_on,1020,0,7,,,,,,,,,6,,65,64
171840,note_on,18,0,5,,,,,,,,,4,,77,49
172047,note_on,207,0,5,,,,,,,,,4,,77,0
172080,note_on,33,0,5,,,,,,,,,4,,70,49
172260,note_on,420,0,7,,,,,,,,,6,,65,0
172260,note_on,420,0,8,,,,,,,,,7,,62,0
172260,note_on,420,0,9,,,,,,,,,8,,50,0
172287,note_on,207,0,5,,,,,,,,,4,,70,0
172295,note_on,935,0,1,,,,,,,,,0,,58,0
172320,note_on,25,0,1,,,,,,,,,0,,60,123
172320,note_on,33,0,5,,,,,,,,,4,,72,49
172320,note_on,60,0,7,,,,,,,,,6,,70,64
172320,note_on,60,0,8,,,,,,,,,7,,58,64
172320,note_on,60,0,9,,,,,,,,,8,,46,64
172527,note_on,207,0,5,,,,,,,,,4,,72,0
172560,note_on,240,0,1,,,,,,,,,0,,62,121
172560,note_on,33,0,5,,,,,,,,,4,,74,49
172605,note_on,45,0,1,,,,,,,,,0,,60,0
172740,note_on,420,0,8,,,,,,,,,7,,58,0
172740,note_on,420,0,7,,,,,,,,,6,,70,0
172740,note_on,420,0,9,,,,,,,,,8,,46,0
172767,note_on,207,0,5,,,,,,,,,4,,74,0
172775,note_on,170,0,1,,,,,,,,,0,,62,0
172800,note_on,60,0,9,,,,,,,,,8,,48,64
172800,note_on,33,0,5,,,,,,,,,4,,77,49
172800,note_on,25,0,1,,,,,,,,,0,,65,118
172800,note_on,60,0,8,,,,,,,,,7,,60,64
172800,note_on,60,0,7,,,,,,,,,6,,69,64
173007,note_on,207,0,5,,,,,,,,,4,,77,0
173040,note_on,33,0,5,,,,,,,,,4,,75,49
173040,note_on,240,0,1,,,,,,,,,0,,63,116
173040,note_on,1260,0,6,,,,,,,,,5,,69,64
173055,note_on,15,0,1,,,,,,,,,0,,65,0
173142,note_on,102,0,6,,,,,,,,,5,,69,0
173160,note_on,18,0,6,,,,,,,,,5,,70,64
173190,note_on,135,0,1,,,,,,,,,0,,63,0
173220,note_on,420,0,7,,,,,,,,,6,,69,0
173220,note_on,420,0,9,,,,,,,,,8,,48,0
173220,note_on,420,0,8,,,,,,,,,7,,60,0
173247,note_on,207,0,5,,,,,,,,,4,,75,0
173262,note_on,102,0,6,,,,,,,,,5,,70,0
173280,note_on,60,0,8,,,,,,,,,7,,57,64
173280,note_on,60,0,7,,,,,,,,,6,,65,64
173280,note_on,33,0,5,,,,,,,,,4,,75,49
173280,note_on,18,0,6,,,,,,,,,5,,72,64
173280,note_on,90,0,1,,,,,,,,,0,,63,114
173280,note_on,60,0,9,,,,,,,,,8,,45,64
173487,note_on,207,0,6,,,,,,,,,5,,72,0
173520,note_on,33,0,6,,,,,,,,,5,,65,64
173700,note_on,420,0,7,,,,,,,,,6,,65,0
173700,note_on,420,0,8,,,,,,,,,7,,57,0
173700,note_on,420,0,9,,,,,,,,,8,,45,0
173727,note_on,207,0,6,,,,,,,,,5,,65,0
173760,note_on,60,0,8,,,,,,,,,7,,53,64
173760,note_on,33,0,6,,,,,,,,,5,,67,64
173760,note_on,60,0,9,,,,,,,,,8,,41,64
173967,note_on,207,0,6,,,,,,,,,5,,67,0
174000,note_on,33,0,6,,,,,,,,,5,,69,64
174022,note_on,742,0,1,,,,,,,,,0,,63,0
174180,note_on,420,0,9,,,,,,,,,8,,41,0
174180,note_on,420,0,8,,,,,,,,,7,,53,0
174180,note_on,900,0,5,,,,,,,,,4,,75,0
174207,note_on,207,0,6,,,,,,,,,5,,69,0
174240,note_on,60,0,8,,,,,,,,,7,,58,64
174240,note_on,60,0,9,,,,,,,,,8,,46,64
174240,note_on,33,0,6,,,,,,,,,5,,70,64
174240,note_on,218,0,1,,,,,,,,,0,,62,112
174480,note_on,300,0,5,,,,,,,,,4,,74,49
174582,note_on,102,0,5,,,,,,,,,4,,74,0
174600,note_on,360,0,1,,,,,,,,,0,,63,111
174600,note_on,18,0,5,,,,,,,,,4,,75,49
174645,note_on,45,0,1,,,,,,,,,0,,62,0
174660,note_on,15,0,1,,,,,,,,,0,,65,111
174660,note_on,420,0,9,,,,,,,,,8,,46,0
174660,note_on,420,0,8,,,,,,,,,7,,58,0
174660,note_on,420,0,6,,,,,,,,,5,,70,0
174685,note_on,25,0,1,,,,,,,,,0,,63,0
174702,note_on,102,0,5,,,,,,,,,4,,75,0
174720,note_on,1020,0,7,,,,,,,,,6,,70,64
174720,note_on,35,0,1,,,,,,,,,0,,65,0
174720,note_on,0,0,1,,,,,,,,,0,,58,111
174720,note_on,18,0,5,,,,,,,,,4,,77,49
174720,note_on,60,0,8,,,,,,,,,7,,50,64
174720,note_on,60,0,9,,,,,,,,,8,,38,64
174927,note_on,207,0,5,,,,,,,,,4,,77,0
174927,note_on,207,0,7,,,,,,,,,6,,70,0
174960,note_on,33,0,5,,,,,,,,,4,,70,49
174960,note_on,33,0,7,,,,,,,,,6,,65,64
175140,note_on,420,0,9,,,,,,,,,8,,38,0
175140,note_on,420,0,8,,,,,,,,,7,,50,0
175167,note_on,207,0,5,,,,,,,,,4,,70,0
175167,note_on,207,0,7,,,,,,,,,6,,65,0
175200,note_on,33,0,7,,,,,,,,,6,,63,64
175200,note_on,33,0,5,,,,,,,,,4,,72,49
175200,note_on,480,0,1,,,,,,,,,0,,57,111
175200,note_on,60,0,9,,,,,,,,,8,,41,64
175200,note_on,60,0,8,,,,,,,,,7,,53,64
175245,note_on,45,0,1,,,,,,,,,0,,58,0
175407,note_on,207,0,5,,,,,,,,,4,,72,0
175407,note_on,207,0,7,,,,,,,,,6,,63,0
175440,note_on,33,0,5,,,,,,,,,4,,69,49
175440,note_on,33,0,7,,,,,,,,,6,,60,64
175620,note_on,420,0,8,,,,,,,,,7,,53,0
175620,note_on,420,0,9,,,,,,,,,8,,41,0
175647,note_on,207,0,7,,,,,,,,,6,,60,0
175647,note_on,207,0,5,,,,,,,,,4,,69,0
175655,note_on,410,0,1,,,,,,,,,0,,57,0
175680,note_on,33,0,5,,,,,,,,,4,,70,49
175680,note_on,60,0,9,,,,,,,,,8,,46,64
175680,note_on,33,0,7,,,,,,,,,6,,62,64
175680,note_on,25,0,1,,,,,,,,,0,,58,111
175680,note_on,60,0,8,,,,,,,,,7,,58,64
175920,note_on,1260,0,6,,,,,,,,,5,,62,64
176022,note_on,102,0,6,,,,,,,,,5,,62,0
176040,note_on,18,0,6,,,,,,,,,5,,63,64
176100,note_on,420,0,5,,,,,,,,,4,,70,0
176100,note_on,420,0,9,,,,,,,,,8,,46,0
176100,note_on,420,0,7,,,,,,,,,6,,62,0
176100,note_on,420,0,8,,,,,,,,,7,,58,0
176142,note_on,102,0,6,,,,,,,,,5,,63,0
176160,note_on,480,0,1,,,,,,,,,0,,58,0
176160,note_on,60,0,8,,,,,,,,,7,,46,64
176160,note_on,60,0,9,,,,,,,,,8,,34,64
176160,note_on,18,0,6,,,,,,,,,5,,65,64
176367,note_on,207,0,6,,,,,,,,,5,,65,0
176400,note_on,33,0,6,,,,,,,,,5,,62,64
176580,note_on,420,0,9,,,,,,,,,8,,34,0
176580,note_on,420,0,8,,,,,,,,,7,,46,0
176607,note_on,207,0,6,,,,,,,,,5,,62,0
176640,note_on,33,0,6,,,,,,,,,5,,60,64
176847,note_on,207,0,6,,,,,,,,,5,,60,0
176880,note_on,33,0,6,,,,,,,,,5,,58,64
177087,note_on,207,0,6,,,,,,,,,5,,58,0
177120,note_on,960,0,1,,,,,,,,,0,,60,111
177120,note_on,540,0,8,,,,,,,,,7,,53,64
177120,note_on,540,0,9,,,,,,,,,8,,41,64
177120,note_on,33,0,6,,,,,,,,,5,,57,64
177120,note_on,1020,0,7,,,,,,,,,6,,65,64
177327,note_on,207,0,6,,,,,,,,,5,,57,0
177360,note_on,1260,0,5,,,,,,,,,4,,72,49
177360,note_on,33,0,6,,,,,,,,,5,,57,64
177462,note_on,102,0,6,,,,,,,,,5,,57,0
177462,note_on,102,0,5,,,,,,,,,4,,72,0
177480,note_on,18,0,6,,,,,,,,,5,,56,64
177480,note_on,18,0,5,,,,,,,,,4,,71,49
177540,note_on,420,0,9,,,,,,,,,8,,41,0
177540,note_on,420,0,8,,,,,,,,,7,,53,0
177582,note_on,102,0,6,,,,,,,,,5,,56,0
177582,note_on,102,0,5,,,,,,,,,4,,71,0
177600,note_on,18,0,6,,,,,,,,,5,,57,64
177600,note_on,60,0,8,,,,,,,,,7,,53,64
177600,note_on,18,0,5,,,,,,,,,4,,72,49
177600,note_on,60,0,9,,,,,,,,,8,,41,64
177807,note_on,207,0,5,,,,,,,,,4,,72,0
177807,note_on,207,0,6,,,,,,,,,5,,57,0
177840,note_on,33,0,6,,,,,,,,,5,,57,64
177840,note_on,33,0,5,,,,,,,,,4,,72,49
178020,note_on,420,0,8,,,,,,,,,7,,53,0
178020,note_on,420,0,9,,,,,,,,,8,,41,0
178047,note_on,207,0,5,,,,,,,,,4,,72,0
178047,note_on,207,0,6,,,,,,,,,5,,57,0
178080,note_on,960,0,1,,,,,,,,,0,,60,0
178080,note_on,33,0,5,,,,,,,,,4,,74,49
178080,note_on,60,0,8,,,,,,,,,7,,53,64
178080,note_on,0,0,1,,,,,,,,,0,,62,107
178080,note_on,33,0,6,,,,,,,,,5,,58,64
178080,note_on,60,0,9,,,,,,,,,8,,41,64
178287,note_on,207,0,5,,,,,,,,,4,,74,0
178287,note_on,207,0,6,,,,,,,,,5,,58,0
178320,note_on,33,0,5,,,,,,,,,4,,70,49
178320,note_on,240,0,1,,,,,,,,,0,,58,107
178320,note_on,33,0,6,,,,,,,,,5,,62,64
178380,note_on,60,0,1,,,,,,,,,0,,62,0
178500,note_on,420,0,8,,,,,,,,,7,,53,0
178500,note_on,420,0,9,,,,,,,,,8,,41,0
178527,note_on,207,0,5,,,,,,,,,4,,70,0
178527,note_on,207,0,6,,,,,,,,,5,,62,0
178560,note_on,0,0,1,,,,,,,,,0,,62,107
178560,note_on,60,0,9,,,,,,,,,8,,41,64
178560,note_on,60,0,8,,,,,,,,,7,,53,64
178560,note_on,33,0,5,,,,,,,,,4,,74,49
178560,note_on,180,0,1,,,,,,,,,0,,58,0
178560,note_on,33,0,6,,,,,,,,,5,,59,64
178767,note_on,207,0,5,,,,,,,,,4,,74,0
178767,note_on,207,0,6,,,,,,,,,5,,59,0
178800,note_on,33,0,5,,,,,,,,,4,,75,49
178800,note_on,33,0,6,,,,,,,,,5,,60,64
178800,note_on,240,0,1,,,,,,,,,0,,63,107
178800,note_on,39660,0,2,,,,,,,,,1,,69,49
178800,note_on,0,0,2,,,,,,,,,1,,72,49
178830,note_on,30,0,1,,,,,,,,,0,,62,0
178902,note_on,102,0,2,,,,,,,,,1,,72,0
178902,note_on,0,0,2,,,,,,,,,1,,69,0
178920,note_on,18,0,2,,,,,,,,,1,,70,49
178920,note_on,0,0,2,,,,,,,,,1,,74,49
178980,note_on,420,0,9,,,,,,,,,8,,41,0
178980,note_on,420,0,8,,,,,,,,,7,,53,0
178990,note_on,160,0,1,,,,,,,,,0,,63,0
179007,note_on,207,0,5,,,,,,,,,4,,75,0
179007,note_on,207,0,6,,,,,,,,,5,,60,0
179022,note_on,0,0,2,,,,,,,,,1,,70,0
179022,note_on,102,0,2,,,,,,,,,1,,74,0
179040,note_on,33,0,6,,,,,,,,,5,,60,64
179040,note_on,60,0,8,,,,,,,,,7,,53,64
179040,note_on,60,0,9,,,,,,,,,8,,41,64
179040,note_on,50,0,1,,,,,,,,,0,,63,107
179040,note_on,33,0,5,,,,,,,,,4,,75,49
179040,note_on,18,0,2,,,,,,,,,1,,72,49
179040,note_on,0,0,2,,,,,,,,,1,,75,49
179247,note_on,0,0,2,,,,,,,,,1,,72,0
179247,note_on,207,0,2,,,,,,,,,1,,75,0
179280,note_on,0,0,2,,,,,,,,,1,,72,49
179280,note_on,33,0,2,,,,,,,,,1,,69,49
179460,note_on,420,0,8,,,,,,,,,7,,53,0
179460,note_on,420,0,9,,,,,,,,,8,,41,0
179487,note_on,207,0,2,,,,,,,,,1,,72,0
179487,note_on,0,0,2,,,,,,,,,1,,69,0
179520,note_on,0,0,2,,,,,,,,,1,,75,49
179520,note_on,60,0,9,,,,,,,,,8,,41,64
179520,note_on,60,0,8,,,,,,,,,7,,53,64
179520,note_on,33,0,2,,,,,,,,,1,,72,49
179727,note_on,0,0,2,,,,,,,,,1,,72,0
179727,note_on,207,0,2,,,,,,,,,1,,75,0
179760,note_on,33,0,2,,,,,,,,,1,,69,49
179760,note_on,0,0,2,,,,,,,,,1,,72,49
179790,note_on,750,0,1,,,,,,,,,0,,63,0
179940,note_on,900,0,6,,,,,,,,,5,,60,0
179940,note_on,900,0,5,,,,,,,,,4,,75,0
179940,note_on,420,0,8,,,,,,,,,7,,53,0
179940,note_on,420,0,9,,,,,,,,,8,,41,0
179940,note_on,2820,0,7,,,,,,,,,6,,65,0
179967,note_on,207,0,2,,,,,,,,,1,,72,0
179967,note_on,0,0,2,,,,,,,,,1,,69,0
180000,note_on,60,0,7,,,,,,,,,6,,70,64
180000,note_on,60,0,8,,,,,,,,,7,,58,64
180000,note_on,60,0,9,,,,,,,,,8,,46,64
180000,note_on,210,0,1,,,,,,,,,0,,62,108
180240,note_on,300,0,6,,,,,,,,,5,,58,64
180240,note_on,300,0,5,,,,,,,,,4,,74,49
180342,note_on,102,0,6,,,,,,,,,5,,58,0
180342,note_on,102,0,5,,,,,,,,,4,,74,0
180360,note_on,18,0,6,,,,,,,,,5,,57,64
180360,note_on,18,0,5,,,,,,,,,4,,73,49
180420,note_on,420,0,9,,,,,,,,,8,,46,0
180420,note_on,420,0,8,,,,,,,,,7,,58,0
180462,note_on,102,0,6,,,,,,,,,5,,57,0
180462,note_on,102,0,5,,,,,,,,,4,,73,0
180480,note_on,60,0,9,,,,,,,,,8,,46,64
180480,note_on,18,0,5,,,,,,,,,4,,74,49
180480,note_on,60,0,8,,,,,,,,,7,,58,64
180480,note_on,18,0,6,,,,,,,,,5,,58,64
180687,note_on,207,0,6,,,,,,,,,5,,58,0
180687,note_on,207,0,5,,,,,,,,,4,,74,0
180720,note_on,33,0,5,,,,,,,,,4,,74,49
180720,note_on,33,0,6,,,,,,,,,5,,58,64
180900,note_on,420,0,9,,,,,,,,,8,,46,0
180900,note_on,420,0,8,,,,,,,,,7,,58,0
180927,note_on,207,0,5,,,,,,,,,4,,74,0
180927,note_on,207,0,6,,,,,,,,,5,,58,0
180960,note_on,60,0,8,,,,,,,,,7,,58,64
180960,note_on,0,0,1,,,,,,,,,0,,63,108
180960,note_on,960,0,1,,,,,,,,,0,,62,0
180960,note_on,60,0,9,,,,,,,,,8,,46,64
180960,note_on,33,0,5,,,,,,,,,4,,75,49
180960,note_on,33,0,6,,,,,,,,,5,,60,64
181167,note_on,207,0,6,,,,,,,,,5,,60,0
181167,note_on,207,0,5,,,,,,,,,4,,75,0
181200,note_on,33,0,6,,,,,,,,,5,,63,64
181200,note_on,240,0,1,,,,,,,,,0,,60,110
181200,note_on,33,0,5,,,,,,,,,4,,72,49
181237,note_on,37,0,1,,,,,,,,,0,,63,0
181380,note_on,420,0,9,,,,,,,,,8,,46,0
181380,note_on,420,0,8,,,,,,,,,7,,58,0
181397,note_on,160,0,1,,,,,,,,,0,,60,0
181407,note_on,207,0,6,,,,,,,,,5,,63,0
181407,note_on,207,0,5,,,,,,,,,4,,72,0
181440,note_on,33,0,5,,,,,,,,,4,,76,49
181440,note_on,60,0,9,,,,,,,,,8,,46,64
181440,note_on,33,0,6,,,,,,,,,5,,61,64
181440,note_on,43,0,1,,,,,,,,,0,,64,110
181440,note_on,60,0,8,,,,,,,,,7,,58,64
181647,note_on,207,0,5,,,,,,,,,4,,76,0
181647,note_on,207,0,6,,,,,,,,,5,,61,0
181680,note_on,33,0,6,,,,,,,,,5,,62,64
181680,note_on,33,0,5,,,,,,,,,4,,77,49
181680,note_on,0,0,2,,,,,,,,,1,,74,49
181680,note_on,1713,0,2,,,,,,,,,1,,70,49
181680,note_on,240,0,1,,,,,,,,,0,,65,110
181717,note_on,37,0,1,,,,,,,,,0,,64,0
181782,note_on,102,0,2,,,,,,,,,1,,74,0
181782,note_on,0,0,2,,,,,,,,,1,,70,0
181800,note_on,18,0,2,,,,,,,,,1,,72,49
181800,note_on,0,0,2,,,,,,,,,1,,75,49
181830,note_on,113,0,1,,,,,,,,,0,,65,0
181860,note_on,420,0,8,,,,,,,,,7,,58,0
181860,note_on,420,0,9,,,,,,,,,8,,46,0
181887,note_on,207,0,6,,,,,,,,,5,,62,0
181887,note_on,207,0,5,,,,,,,,,4,,77,0
181902,note_on,102,0,2,,,,,,,,,1,,75,0
181902,note_on,0,0,2,,,,,,,,,1,,72,0
181920,note_on,90,0,1,,,,,,,,,0,,65,112
181920,note_on,60,0,8,,,,,,,,,7,,58,64
181920,note_on,0,0,2,,,,,,,,,1,,77,49
181920,note_on,60,0,9,,,,,,,,,8,,46,64
181920,note_on,33,0,6,,,,,,,,,5,,62,64
181920,note_on,18,0,2,,,,,,,,,1,,74,49
181920,note_on,33,0,5,,,,,,,,,4,,77,49
182127,note_on,207,0,2,,,,,,,,,1,,77,0
182127,note_on,0,0,2,,,,,,,,,1,,74,0
182160,note_on,0,0,2,,,,,,,,,1,,74,49
182160,note_on,33,0,2,,,,,,,,,1,,70,49
182340,note_on,420,0,8,,,,,,,,,7,,58,0
182340,note_on,420,0,9,,,,,,,,,8,,46,0
182367,note_on,0,0,2,,,,,,,,,1,,70,0
182367,note_on,207,0,2,,,,,,,,,1,,74,0
182400,note_on,60,0,8,,,,,,,,,7,,58,64
182400,note_on,33,0,2,,,,,,,,,1,,74,49
182400,note_on,0,0,2,,,,,,,,,1,,77,49
182400,note_on,60,0,9,,,,,,,,,8,,46,64
182607,note_on,207,0,2,,,,,,,,,1,,77,0
182607,note_on,0,0,2,,,,,,,,,1,,74,0
182640,note_on,0,0,2,,,,,,,,,1,,74,49
182640,note_on,33,0,2,,,,,,,,,1,,70,49
182732,note_on,812,0,1,,,,,,,,,0,,65,0
182820,note_on,900,0,6,,,,,,,,,5,,62,0
182820,note_on,420,0,8,,,,,,,,,7,,58,0
182820,note_on,2820,0,7,,,,,,,,,6,,70,0
182820,note_on,900,0,5,,,,,,,,,4,,77,0
182820,note_on,420,0,9,,,,,,,,,8,,46,0
182847,note_on,0,0,2,,,,,,,,,1,,70,0
182847,note_on,207,0,2,,,,,,,,,1,,74,0
182880,note_on,60,0,6,,,,,,,,,5,,65,64
182880,note_on,60,0,7,,,,,,,,,6,,70,64
182880,note_on,60,0,8,,,,,,,,,7,,58,64
182880,note_on,60,0,9,,,,,,,,,8,,46,64
182880,note_on,0,0,5,,,,,,,,,4,,70,49
182880,note_on,60,0,5,,,,,,,,,4,,62,49
182880,note_on,148,0,1,,,,,,,,,0,,46,112
182967,note_on,87,0,1,,,,,,,,,0,,46,0
183120,note_on,153,0,1,,,,,,,,,0,,58,113
183207,note_on,87,0,1,,,,,,,,,0,,58,0
183300,note_on,420,0,9,,,,,,,,,8,,46,0
183300,note_on,420,0,8,,,,,,,,,7,,58,0
183360,note_on,60,0,8,,,,,,,,,7,,62,64
183360,note_on,60,0,9,,,,,,,,,8,,50,64
183360,note_on,153,0,1,,,,,,,,,0,,46,113
183447,note_on,87,0,1,,,,,,,,,0,,46,0
183600,note_on,153,0,1,,,,,,,,,0,,62,115
183687,note_on,87,0,1,,,,,,,,,0,,62,0
183780,note_on,900,0,6,,,,,,,,,5,,65,0
183780,note_on,420,0,8,,,,,,,,,7,,62,0
183780,note_on,900,0,7,,,,,,,,,6,,70,0
183780,note_on,0,0,5,,,,,,,,,4,,62,0
183780,note_on,420,0,9,,,,,,,,,8,,50,0
183780,note_on,900,0,5,,,,,,,,,4,,70,0
183840,note_on,60,0,5,,,,,,,,,4,,72,49
183840,note_on,60,0,8,,,,,,,,,7,,58,64
183840,note_on,60,0,6,,,,,,,,,5,,63,64
183840,note_on,153,0,1,,,,,,,,,0,,46,117
183840,note_on,60,0,7,,,,,,,,,6,,69,64
183840,note_on,60,0,9,,,,,,,,,8,,46,64
183927,note_on,87,0,1,,,,,,,,,0,,46,0
184047,note_on,207,0,5,,,,,,,,,4,,72,0
184047,note_on,207,0,6,,,,,,,,,5,,63,0
184047,note_on,207,0,7,,,,,,,,,6,,69,0
184080,note_on,33,0,5,,,,,,,,,4,,74,49
184080,note_on,33,0,6,,,,,,,,,5,,62,64
184080,note_on,153,0,1,,,,,,,,,0,,65,118
184080,note_on,33,0,7,,,,,,,,,6,,70,64
184167,note_on,87,0,1,,,,,,,,,0,,65,0
184260,note_on,420,0,8,,,,,,,,,7,,58,0
184260,note_on,420,0,9,,,,,,,,,8,,46,0
184287,note_on,207,0,6,,,,,,,,,5,,62,0
184287,note_on,207,0,5,,,,,,,,,4,,74,0
184287,note_on,207,0,7,,,,,,,,,6,,70,0
184320,note_on,60,0,9,,,,,,,,,8,,48,64
184320,note_on,60,0,8,,,,,,,,,7,,60,64
184320,note_on,33,0,5,,,,,,,,,4,,77,49
184320,note_on,33,0,6,,,,,,,,,5,,67,64
184320,note_on,153,0,1,,,,,,,,,0,,63,120
184320,note_on,33,0,7,,,,,,,,,6,,67,64
184407,note_on,87,0,1,,,,,,,,,0,,63,0
184527,note_on,207,0,5,,,,,,,,,4,,77,0
184560,note_on,33,0,5,,,,,,,,,4,,75,49
184560,note_on,153,0,1,,,,,,,,,0,,60,120
184680,note_on,120,0,1,,,,,,,,,0,,62,120
184707,note_on,27,0,1,,,,,,,,,0,,60,0
184740,note_on,420,0,9,,,,,,,,,8,,48,0
184740,note_on,420,0,8,,,,,,,,,7,,60,0
184740,note_on,420,0,7,,,,,,,,,6,,67,0
184740,note_on,420,0,6,,,,,,,,,5,,67,0
184767,note_on,207,0,5,,,,,,,,,4,,75,0
184800,note_on,93,0,1,,,,,,,,,0,,63,120
184800,note_on,33,0,5,,,,,,,,,4,,75,49
184800,note_on,60,0,7,,,,,,,,,6,,65,64
184800,note_on,60,0,9,,,,,,,,,8,,45,64
184800,note_on,60,0,6,,,,,,,,,5,,72,64
184800,note_on,60,0,8,,,,,,,,,7,,57,64
184827,note_on,27,0,1,,,,,,,,,0,,62,0
184885,note_on,58,0,1,,,,,,,,,0,,63,0
185040,note_on,155,0,1,,,,,,,,,0,,60,120
185127,note_on,87,0,1,,,,,,,,,0,,60,0
185220,note_on,420,0,6,,,,,,,,,5,,72,0
185220,note_on,420,0,9,,,,,,,,,8,,45,0
185220,note_on,420,0,8,,,,,,,,,7,,57,0
185280,note_on,60,0,8,,,,,,,,,7,,53,64
185280,note_on,153,0,1,,,,,,,,,0,,57,122
185280,note_on,60,0,6,,,,,,,,,5,,69,64
185280,note_on,60,0,9,,,,,,,,,8,,41,64
185367,note_on,87,0,1,,,,,,,,,0,,57,0
185520,note_on,153,0,1,,,,,,,,,0,,53,122
185607,note_on,87,0,1,,,,,,,,,0,,53,0
185700,note_on,420,0,6,,,,,,,,,5,,69,0
185700,note_on,420,0,8,,,,,,,,,7,,53,0
185700,note_on,900,0,5,,,,,,,,,4,,75,0
185700,note_on,420,0,9,,,,,,,,,8,,41,0
185700,note_on,900,0,7,,,,,,,,,6,,65,0
185760,note_on,60,0,5,,,,,,,,,4,,74,49
185760,note_on,153,0,1,,,,,,,,,0,,46,122
185760,note_on,60,0,9,,,,,,,,,8,,46,64
185760,note_on,60,0,8,,,,,,,,,7,,58,64
185760,note_on,60,0,6,,,,,,,,,5,,70,64
185760,note_on,60,0,7,,,,,,,,,6,,65,64
185847,note_on,87,0,1,,,,,,,,,0,,46,0
185967,note_on,207,0,5,,,,,,,,,4,,74,0
185967,note_on,207,0,6,,,,,,,,,5,,70,0
185967,note_on,207,0,7,,,,,,,,,6,,65,0
186000,note_on,153,0,1,,,,,,,,,0,,62,122
186000,note_on,33,0,5,,,,,,,,,4,,77,49
186000,note_on,33,0,7,,,,,,,,,6,,62,64
186000,note_on,33,0,6,,,,,,,,,5,,74,64
186087,note_on,87,0,1,,,,,,,,,0,,62,0
186180,note_on,420,0,9,,,,,,,,,8,,46,0
186180,note_on,420,0,8,,,,,,,,,7,,58,0
186207,note_on,207,0,6,,,,,,,,,5,,74,0
186207,note_on,207,0,7,,,,,,,,,6,,62,0
186207,note_on,207,0,5,,,,,,,,,4,,77,0
186240,note_on,33,0,6,,,,,,,,,5,,62,64
186240,note_on,153,0,1,,,,,,,,,0,,43,123
186240,note_on,60,0,9,,,,,,,,,8,,43,64
186240,note_on,33,0,5,,,,,,,,,4,,70,49
186240,note_on,33,0,7,,,,,,,,,6,,67,64
186240,note_on,60,0,8,,,,,,,,,7,,55,64
186327,note_on,87,0,1,,,,,,,,,0,,43,0
186447,note_on,207,0,7,,,,,,,,,6,,67,0
186447,note_on,207,0,6,,,,,,,,,5,,62,0
186447,note_on,207,0,5,,,,,,,,,4,,70,0
186480,note_on,33,0,5,,,,,,,,,4,,74,49
186480,note_on,33,0,6,,,,,,,,,5,,70,64
186480,note_on,33,0,7,,,,,,,,,6,,58,64
186480,note_on,153,0,1,,,,,,,,,0,,58,123
186567,note_on,87,0,1,,,,,,,,,0,,58,0
186660,note_on,420,0,8,,,,,,,,,7,,55,0
186660,note_on,420,0,9,,,,,,,,,8,,43,0
186687,note_on,207,0,6,,,,,,,,,5,,70,0
186687,note_on,207,0,7,,,,,,,,,6,,58,0
186687,note_on,207,0,5,,,,,,,,,4,,74,0
186720,note_on,153,0,1,,,,,,,,,0,,39,123
186720,note_on,33,0,5,,,,,,,,,4,,67,49
186720,note_on,60,0,8,,,,,,,,,7,,51,64
186720,note_on,60,0,9,,,,,,,,,8,,39,64
186720,note_on,33,0,6,,,,,,,,,5,,67,64
186720,note_on,33,0,7,,,,,,,,,6,,63,64
186807,note_on,87,0,1,,,,,,,,,0,,39,0
186927,note_on,207,0,5,,,,,,,,,4,,67,0
186927,note_on,207,0,6,,,,,,,,,5,,67,0
186927,note_on,207,0,7,,,,,,,,,6,,63,0
186960,note_on,33,0,6,,,,,,,,,5,,63,64
186960,note_on,33,0,7,,,,,,,,,6,,60,64
186960,note_on,33,0,5,,,,,,,,,4,,72,49
186960,note_on,153,0,1,,,,,,,,,0,,60,123
187047,note_on,87,0,1,,,,,,,,,0,,60,0
187140,note_on,420,0,9,,,,,,,,,8,,39,0
187140,note_on,420,0,8,,,,,,,,,7,,51,0
187167,note_on,207,0,7,,,,,,,,,6,,60,0
187167,note_on,207,0,5,,,,,,,,,4,,72,0
187167,note_on,207,0,6,,,,,,,,,5,,63,0
187200,note_on,33,0,5,,,,,,,,,4,,70,49
187200,note_on,33,0,7,,,,,,,,,6,,53,64
187200,note_on,153,0,1,,,,,,,,,0,,41,123
187200,note_on,60,0,9,,,,,,,,,8,,41,64
187200,note_on,60,0,8,,,,,,,,,7,,53,64
187200,note_on,33,0,6,,,,,,,,,5,,62,64
187287,note_on,87,0,1,,,,,,,,,0,,41,0
187407,note_on,207,0,6,,,,,,,,,5,,62,0
187407,note_on,207,0,5,,,,,,,,,4,,70,0
187440,note_on,153,0,1,,,,,,,,,0,,60,123
187440,note_on,33,0,6,,,,,,,,,5,,60,64
187440,note_on,33,0,5,,,,,,,,,4,,69,49
187560,note_on,120,0,1,,,,,,,,,0,,58,123
187587,note_on,27,0,1,,,,,,,,,0,,60,0
187620,note_on,420,0,9,,,,,,,,,8,,41,0
187620,note_on,420,0,8,,,,,,,,,7,,53,0
187620,note_on,420,0,7,,,,,,,,,6,,53,0
187647,note_on,207,0,5,,,,,,,,,4,,69,0
187647,note_on,207,0,6,,,,,,,,,5,,60,0
187680,note_on,33,0,6,,,,,,,,,5,,58,64
187680,note_on,60,0,7,,,,,,,,,6,,65,64
187680,note_on,60,0,9,,,,,,,,,8,,41,64
187680,note_on,33,0,5,,,,,,,,,4,,67,49
187680,note_on,93,0,1,,,,,,,,,0,,57,125
187680,note_on,60,0,8,,,,,,,,,7,,53,64
187707,note_on,27,0,1,,,,,,,,,0,,58,0
187765,note_on,58,0,1,,,,,,,,,0,,57,0
187887,note_on,207,0,6,,,,,,,,,5,,58,0
187887,note_on,207,0,5,,,,,,,,,4,,67,0
187920,note_on,155,0,1,,,,,,,,,0,,60,123
187920,note_on,33,0,6,,,,,,,,,5,,57,64
187920,note_on,33,0,5,,,,,,,,,4,,65,49
188007,note_on,87,0,1,,,,,,,,,0,,60,0
188100,note_on,420,0,8,,,,,,,,,7,,53,0
188100,note_on,420,0,9,,,,,,,,,8,,41,0
188100,note_on,420,0,7,,,,,,,,,6,,65,0
188127,note_on,207,0,5,,,,,,,,,4,,65,0
188127,note_on,207,0,6,,,,,,,,,5,,57,0
188160,note_on,60,0,7,,,,,,,,,6,,65,64
188160,note_on,153,0,1,,,,,,,,,0,,53,123
188160,note_on,60,0,9,,,,,,,,,8,,39,64
188160,note_on,60,0,8,,,,,,,,,7,,51,64
188160,note_on,33,0,5,,,,,,,,,4,,67,49
188160,note_on,33,0,6,,,,,,,,,5,,58,64
188247,note_on,87,0,1,,,,,,,,,0,,53,0
188367,note_on,207,0,5,,,,,,,,,4,,67,0
188367,note_on,207,0,6,,,,,,,,,5,,58,0
188400,note_on,33,0,5,,,,,,,,,4,,69,49
188400,note_on,153,0,1,,,,,,,,,0,,57,125
188400,note_on,33,0,6,,,,,,,,,5,,60,64
188487,note_on,87,0,1,,,,,,,,,0,,57,0
188580,note_on,420,0,8,,,,,,,,,7,,51,0
188580,note_on,420,0,7,,,,,,,,,6,,65,0
188580,note_on,420,0,9,,,,,,,,,8,,39,0
188607,note_on,207,0,6,,,,,,,,,5,,60,0
188607,note_on,207,0,5,,,,,,,,,4,,69,0
188640,note_on,60,0,9,,,,,,,,,8,,38,64
188640,note_on,60,0,8,,,,,,,,,7,,50,64
188640,note_on,153,0,1,,,,,,,,,0,,46,125
188640,note_on,33,0,5,,,,,,,,,4,,62,49
188640,note_on,0,0,5,,,,,,,,,4,,70,49
188640,note_on,33,0,6,,,,,,,,,5,,62,64
188640,note_on,60,0,7,,,,,,,,,6,,65,64
188727,note_on,87,0,1,,,,,,,,,0,,46,0
188880,note_on,153,0,1,,,,,,,,,0,,58,127
188967,note_on,87,0,1,,,,,,,,,0,,58,0
189060,note_on,420,0,9,,,,,,,,,8,,38,0
189060,note_on,420,0,7,,,,,,,,,6,,65,0
189060,note_on,420,0,6,,,,,,,,,5,,62,0
189060,note_on,420,0,8,,,,,,,,,7,,50,0
189120,note_on,60,0,6,,,,,,,,,5,,65,64
189120,note_on,60,0,8,,,,,,,,,7,,62,64
189120,note_on,60,0,7,,,,,,,,,6,,70,64
189120,note_on,60,0,9,,,,,,,,,8,,50,64
189120,note_on,153,0,1,,,,,,,,,0,,46,127
189207,note_on,87,0,1,,,,,,,,,0,,46,0
189360,note_on,153,0,1,,,,,,,,,0,,62,127
189447,note_on,87,0,1,,,,,,,,,0,,62,0
189540,note_on,900,0,5,,,,,,,,,4,,70,0
189540,note_on,420,0,7,,,,,,,,,6,,70,0
189540,note_on,0,0,5,,,,,,,,,4,,62,0
189540,note_on,420,0,8,,,,,,,,,7,,62,0
189540,note_on,420,0,9,,,,,,,,,8,,50,0
189540,note_on,420,0,6,,,,,,,,,5,,65,0
189600,note_on,153,0,1,,,,,,,,,0,,46,127
189600,note_on,60,0,7,,,,,,,,,6,,69,64
189600,note_on,60,0,8,,,,,,,,,7,,58,64
189600,note_on,60,0,9,,,,,,,,,8,,46,64
189600,note_on,60,0,6,,,,,,,,,5,,63,64
189600,note_on,60,0,5,,,,,,,,,4,,72,49
189687,note_on,87,0,1,,,,,,,,,0,,46,0
189807,note_on,207,0,5,,,,,,,,,4,,72,0
189807,note_on,207,0,6,,,,,,,,,5,,63,0
189807,note_on,207,0,7,,,,,,,,,6,,69,0
189840,note_on,153,0,1,,,,,,,,,0,,65,127
189840,note_on,33,0,5,,,,,,,,,4,,74,49
189840,note_on,33,0,6,,,,,,,,,5,,62,64
189840,note_on,33,0,7,,,,,,,,,6,,70,64
189927,note_on,87,0,1,,,,,,,,,0,,65,0
190020,note_on,420,0,9,,,,,,,,,8,,46,0
190020,note_on,420,0,8,,,,,,,,,7,,58,0
190047,note_on,207,0,5,,,,,,,,,4,,74,0
190047,note_on,207,0,7,,,,,,,,,6,,70,0
190047,note_on,207,0,6,,,,,,,,,5,,62,0
190080,note_on,60,0,9,,,,,,,,,8,,48,64
190080,note_on,33,0,5,,,,,,,,,4,,77,49
190080,note_on,33,0,7,,,,,,,,,6,,67,64
190080,note_on,153,0,1,,,,,,,,,0,,63,127
190080,note_on,60,0,8,,,,,,,,,7,,60,64
190080,note_on,33,0,6,,,,,,,,,5,,67,64
190167,note_on,87,0,1,,,,,,,,,0,,63,0
190287,note_on,207,0,5,,,,,,,,,4,,77,0
190320,note_on,33,0,5,,,,,,,,,4,,75,49
190320,note_on,153,0,1,,,,,,,,,0,,60,127
190440,note_on,120,0,1,,,,,,,,,0,,62,127
190495,note_on,55,0,1,,,,,,,,,0,,60,0
190500,note_on,420,0,9,,,,,,,,,8,,48,0
190500,note_on,420,0,6,,,,,,,,,5,,67,0
190500,note_on,420,0,8,,,,,,,,,7,,60,0
190500,note_on,420,0,7,,,,,,,,,6,,67,0
190527,note_on,207,0,5,,,,,,,,,4,,75,0
190560,note_on,65,0,1,,,,,,,,,0,,63,127
190560,note_on,60,0,7,,,,,,,,,6,,65,64
190560,note_on,60,0,9,,,,,,,,,8,,45,64
190560,note_on,60,0,8,,,,,,,,,7,,57,64
190560,note_on,60,0,6,,,,,,,,,5,,72,64
190560,note_on,33,0,5,,,,,,,,,4,,75,49
190580,note_on,20,0,1,,,,,,,,,0,,62,0
190645,note_on,65,0,1,,,,,,,,,0,,63,0
190800,note_on,155,0,1,,,,,,,,,0,,60,127
190887,note_on,87,0,1,,,,,,,,,0,,60,0
190980,note_on,420,0,8,,,,,,,,,7,,57,0
190980,note_on,420,0,9,,,,,,,,,8,,45,0
190980,note_on,420,0,6,,,,,,,,,5,,72,0
191040,note_on,60,0,6,,,,,,,,,5,,69,64
191040,note_on,60,0,8,,,,,,,,,7,,53,64
191040,note_on,60,0,9,,,,,,,,,8,,41,64
191040,note_on,153,0,1,,,,,,,,,0,,57,127
191127,note_on,87,0,1,,,,,,,,,0,,57,0
191280,note_on,153,0,1,,,,,,,,,0,,53,127
191367,note_on,87,0,1,,,,,,,,,0,,53,0
191460,note_on,420,0,6,,,,,,,,,5,,69,0
191460,note_on,900,0,7,,,,,,,,,6,,65,0
191460,note_on,420,0,9,,,,,,,,,8,,41,0
191460,note_on,900,0,5,,,,,,,,,4,,75,0
191460,note_on,420,0,8,,,,,,,,,7,,53,0
191520,note_on,60,0,9,,,,,,,,,8,,46,64
191520,note_on,60,0,5,,,,,,,,,4,,74,49
191520,note_on,60,0,6,,,,,,,,,5,,70,64
191520,note_on,60,0,8,,,,,,,,,7,,58,64
191520,note_on,60,0,7,,,,,,,,,6,,65,64
191520,note_on,153,0,1,,,,,,,,,0,,62,126
191830,note_on,310,0,6,,,,,,,,,5,,70,0
191830,note_on,310,0,5,,,,,,,,,4,,74,0
191880,note_on,360,0,1,,,,,,,,,0,,63,126
191880,note_on,50,0,6,,,,,,,,,5,,72,64
191880,note_on,50,0,5,,,,,,,,,4,,75,49
191915,note_on,35,0,1,,,,,,,,,0,,62,0
191930,note_on,50,0,5,,,,,,,,,4,,75,0
191930,note_on,50,0,6,,,,,,,,,5,,72,0
191940,note_on,10,0,5,,,,,,,,,4,,77,49
191940,note_on,420,0,9,,,,,,,,,8,,46,0
191940,note_on,420,0,8,,,,,,,,,7,,58,0
191940,note_on,25,0,1,,,,,,,,,0,,65,126
191940,note_on,420,0,7,,,,,,,,,6,,65,0
191940,note_on,10,0,6,,,,,,,,,5,,74,64
191972,note_on,32,0,1,,,,,,,,,0,,63,0
191990,note_on,50,0,5,,,,,,,,,4,,77,0
191990,note_on,50,0,6,,,,,,,,,5,,74,0
192000,note_on,60,0,8,,,,,,,,,7,,53,64
192000,note_on,60,0,7,,,,,,,,,6,,65,64
192000,note_on,10,0,5,,,,,,,,,4,,70,49
192000,note_on,10,0,6,,,,,,,,,5,,62,64
192000,note_on,28,0,1,,,,,,,,,0,,58,126
192000,note_on,60,0,9,,,,,,,,,8,,41,64
192020,note_on,20,0,1,,,,,,,,,0,,65,0
192420,note_on,420,0,5,,,,,,,,,4,,70,0
192420,note_on,420,0,9,,,,,,,,,8,,41,0
192420,note_on,420,0,8,,,,,,,,,7,,53,0
192420,note_on,420,0,7,,,,,,,,,6,,65,0
192420,note_on,420,0,6,,,,,,,,,5,,62,0
192480,note_on,60,0,8,,,,,,,,,7,,41,64
192480,note_on,60,0,9,,,,,,,,,8,,29,64
192480,note_on,60,0,7,,,,,,,,,6,,65,64
192480,note_on,60,0,5,,,,,,,,,4,,69,49
192480,note_on,60,0,6,,,,,,,,,5,,60,64
192480,note_on,460,0,1,,,,,,,,,0,,57,124
192540,note_on,60,0,1,,,,,,,,,0,,58,0
192900,note_on,420,0,7,,,,,,,,,6,,65,0
192900,note_on,420,0,9,,,,,,,,,8,,29,0
192900,note_on,420,0,8,,,,,,,,,7,,41,0
192900,note_on,420,0,5,,,,,,,,,4,,69,0
192900,note_on,420,0,6,,,,,,,,,5,,60,0
192960,note_on,60,0,6,,,,,,,,,5,,62,64
192960,note_on,60,0,7,,,,,,,,,6,,65,64
192960,note_on,60,0,8,,,,,,,,,7,,46,64
192960,note_on,60,0,9,,,,,,,,,8,,34,64
192960,note_on,60,0,5,,,,,,,,,4,,74,49
192960,note_on,0,0,1,,,,,,,,,0,,65,122
192960,note_on,420,0,1,,,,,,,,,0,,57,0
193062,note_on,102,0,5,,,,,,,,,4,,74,0
193080,note_on,18,0,5,,,,,,,,,4,,75,49
193182,note_on,102,0,5,,,,,,,,,4,,75,0
193200,note_on,18,0,5,,,,,,,,,4,,77,49
193302,note_on,102,0,5,,,,,,,,,4,,77,0
193320,note_on,18,0,5,,,,,,,,,4,,74,49
193380,note_on,420,0,7,,,,,,,,,6,,65,0
193380,note_on,420,0,9,,,,,,,,,8,,34,0
193380,note_on,420,0,8,,,,,,,,,7,,46,0
193380,note_on,420,0,6,,,,,,,,,5,,62,0
193422,note_on,102,0,5,,,,,,,,,4,,74,0
193440,note_on,60,0,9,,,,,,,,,8,,50,64
193440,note_on,60,0,8,,,,,,,,,7,,62,64
193440,note_on,60,0,6,,,,,,,,,5,,65,64
193440,note_on,18,0,5,,,,,,,,,4,,82,49
193647,note_on,207,0,5,,,,,,,,,4,,82,0
193680,note_on,33,0,5,,,,,,,,,4,,82,49
193860,note_on,420,0,8,,,,,,,,,7,,62,0
193860,note_on,420,0,9,,,,,,,,,8,,50,0
193860,note_on,420,0,6,,,,,,,,,5,,65,0
193887,note_on,207,0,5,,,,,,,,,4,,82,0
193920,note_on,60,0,6,,,,,,,,,5,,74,64
193920,note_on,60,0,9,,,,,,,,,8,,46,64
193920,note_on,33,0,5,,,,,,,,,4,,84,49
193920,note_on,60,0,8,,,,,,,,,7,,58,64
193970,note_on,50,0,5,,,,,,,,,4,,84,0
193980,note_on,10,0,5,,,,,,,,,4,,82,49
194030,note_on,50,0,5,,,,,,,,,4,,82,0
194040,note_on,10,0,5,,,,,,,,,4,,84,49
194090,note_on,50,0,5,,,,,,,,,4,,84,0
194100,note_on,10,0,5,,,,,,,,,4,,82,49
194150,note_on,50,0,5,,,,,,,,,4,,82,0
194160,note_on,10,0,5,,,,,,,,,4,,84,49
194210,note_on,50,0,5,,,,,,,,,4,,84,0
194220,note_on,10,0,5,,,,,,,,,4,,82,49
194270,note_on,50,0,5,,,,,,,,,4,,82,0
194280,note_on,10,0,5,,,,,,,,,4,,81,49
194330,note_on,50,0,5,,,,,,,,,4,,81,0
194340,note_on,10,0,5,,,,,,,,,4,,82,49
194340,note_on,420,0,6,,,,,,,,,5,,74,0
194340,note_on,420,0,9,,,,,,,,,8,,46,0
194340,note_on,420,0,8,,,,,,,,,7,,58,0
194390,note_on,50,0,5,,,,,,,,,4,,82,0
194400,note_on,10,0,5,,,,,,,,,4,,81,49
194400,note_on,60,0,8,,,,,,,,,7,,60,64
194400,note_on,60,0,6,,,,,,,,,5,,75,64
194400,note_on,60,0,9,,,,,,,,,8,,48,64
194502,note_on,102,0,5,,,,,,,,,4,,81,0
194520,note_on,18,0,5,,,,,,,,,4,,82,49
194622,note_on,102,0,5,,,,,,,,,4,,82,0
194640,note_on,18,0,5,,,,,,,,,4,,84,49
194742,note_on,102,0,5,,,,,,,,,4,,84,0
194760,note_on,18,0,5,,,,,,,,,4,,81,49
194820,note_on,420,0,9,,,,,,,,,8,,48,0
194820,note_on,420,0,6,,,,,,,,,5,,75,0
194820,note_on,420,0,8,,,,,,,,,7,,60,0
194862,note_on,102,0,5,,,,,,,,,4,,81,0
194880,note_on,60,0,8,,,,,,,,,7,,57,64
194880,note_on,60,0,6,,,,,,,,,5,,60,64
194880,note_on,18,0,5,,,,,,,,,4,,75,49
194880,note_on,60,0,9,,,,,,,,,8,,45,64
195087,note_on,207,0,5,,,,,,,,,4,,75,0
195120,note_on,33,0,5,,,,,,,,,4,,75,49
195300,note_on,420,0,8,,,,,,,,,7,,57,0
195300,note_on,420,0,6,,,,,,,,,5,,60,0
195300,note_on,420,0,9,,,,,,,,,8,,45,0
195327,note_on,207,0,5,,,,,,,,,4,,75,0
195360,note_on,60,0,8,,,,,,,,,7,,53,64
195360,note_on,60,0,6,,,,,,,,,5,,69,64
195360,note_on,33,0,5,,,,,,,,,4,,77,49
195360,note_on,60,0,9,,,,,,,,,8,,41,64
195410,note_on,50,0,5,,,,,,,,,4,,77,0
195420,note_on,10,0,5,,,,,,,,,4,,75,49
195470,note_on,50,0,5,,,,,,,,,4,,75,0
195480,note_on,10,0,5,,,,,,,,,4,,77,49
195530,note_on,50,0,5,,,,,,,,,4,,77,0
195540,note_on,10,0,5,,,,,,,,,4,,75,49
195590,note_on,50,0,5,,,,,,,,,4,,75,0
195600,note_on,10,0,5,,,,,,,,,4,,77,49
195650,note_on,2690,0,1,,,,,,,,,0,,65,0
195650,note_on,50,0,5,,,,,,,,,4,,77,0
195660,note_on,10,0,5,,,,,,,,,4,,75,49
195710,note_on,50,0,5,,,,,,,,,4,,75,0
195720,note_on,10,0,5,,,,,,,,,4,,74,49
195770,note_on,50,0,5,,,,,,,,,4,,74,0
195780,note_on,420,0,8,,,,,,,,,7,,53,0
195780,note_on,420,0,6,,,,,,,,,5,,69,0
195780,note_on,420,0,9,,,,,,,,,8,,41,0
195780,note_on,10,0,5,,,,,,,,,4,,75,49
195830,note_on,50,0,5,,,,,,,,,4,,75,0
195840,note_on,10,0,5,,,,,,,,,4,,74,49
195840,note_on,60,0,8,,,,,,,,,7,,58,64
195840,note_on,60,0,6,,,,,,,,,5,,70,64
195840,note_on,60,0,9,,,,,,,,,8,,46,64
195842,note_on,192,0,1,,,,,,,,,0,,67,118
195942,note_on,102,0,5,,,,,,,,,4,,74,0
195960,note_on,18,0,5,,,,,,,,,4,,75,49
196062,note_on,102,0,5,,,,,,,,,4,,75,0
196080,note_on,18,0,5,,,,,,,,,4,,77,49
196107,note_on,265,0,1,,,,,,,,,0,,65,110
196139,note_on,32,0,1,,,,,,,,,0,,67,0
196182,note_on,102,0,5,,,,,,,,,4,,77,0
196200,note_on,18,0,5,,,,,,,,,4,,74,49
196235,note_on,96,0,1,,,,,,,,,0,,67,108
196260,note_on,420,0,6,,,,,,,,,5,,70,0
196260,note_on,420,0,9,,,,,,,,,8,,46,0
196260,note_on,420,0,8,,,,,,,,,7,,58,0
196292,note_on,57,0,1,,,,,,,,,0,,65,0
196302,note_on,102,0,5,,,,,,,,,4,,74,0
196320,note_on,18,0,5,,,,,,,,,4,,70,49
196320,note_on,60,0,6,,,,,,,,,5,,65,64
196320,note_on,60,0,9,,,,,,,,,8,,50,64
196320,note_on,60,0,8,,,,,,,,,7,,62,64
196340,note_on,48,0,1,,,,,,,,,0,,65,108
196362,note_on,22,0,1,,,,,,,,,0,,67,0
196400,note_on,38,0,1,,,,,,,,,0,,67,105
196412,note_on,12,0,1,,,,,,,,,0,,65,0
196445,note_on,33,0,1,,,,,,,,,0,,65,80
196465,note_on,20,0,1,,,,,,,,,0,,67,0
196502,note_on,37,0,1,,,,,,,,,0,,67,105
196527,note_on,207,0,5,,,,,,,,,4,,70,0
196527,note_on,25,0,1,,,,,,,,,0,,65,0
196550,note_on,23,0,1,,,,,,,,,0,,65,78
196560,note_on,33,0,5,,,,,,,,,4,,70,49
196584,note_on,34,0,1,,,,,,,,,0,,67,0
196612,note_on,28,0,1,,,,,,,,,0,,67,105
196632,note_on,20,0,1,,,,,,,,,0,,65,0
196672,note_on,40,0,1,,,,,,,,,0,,65,80
196694,note_on,22,0,1,,,,,,,,,0,,67,0
196735,note_on,41,0,1,,,,,,,,,0,,67,105
196740,note_on,420,0,6,,,,,,,,,5,,65,0
196740,note_on,420,0,8,,,,,,,,,7,,62,0
196740,note_on,420,0,9,,,,,,,,,8,,50,0
196754,note_on,19,0,1,,,,,,,,,0,,65,0
196767,note_on,207,0,5,,,,,,,,,4,,70,0
196782,note_on,28,0,1,,,,,,,,,0,,65,80
196800,note_on,33,0,5,,,,,,,,,4,,72,49
196800,note_on,60,0,6,,,,,,,,,5,,74,64
196800,note_on,60,0,8,,,,,,,,,7,,58,64
196800,note_on,60,0,9,,,,,,,,,8,,46,64
196817,note_on,35,0,1,,,,,,,,,0,,67,0
196847,note_on,30,0,1,,,,,,,,,0,,67,105
196850,note_on,50,0,5,,,,,,,,,4,,72,0
196860,note_on,10,0,5,,,,,,,,,4,,70,49
196864,note_on,17,0,1,,,,,,,,,0,,65,0
196897,note_on,33,0,1,,,,,,,,,0,,65,84
196910,note_on,50,0,5,,,,,,,,,4,,70,0
196920,note_on,10,0,5,,,,,,,,,4,,72,49
196924,note_on,27,0,1,,,,,,,,,0,,67,0
196955,note_on,31,0,1,,,,,,,,,0,,67,105
196970,note_on,50,0,5,,,,,,,,,4,,72,0
196972,note_on,17,0,1,,,,,,,,,0,,65,0
196980,note_on,10,0,5,,,,,,,,,4,,70,49
197005,note_on,33,0,1,,,,,,,,,0,,65,81
197030,note_on,50,0,5,,,,,,,,,4,,70,0
197037,note_on,32,0,1,,,,,,,,,0,,67,0
197040,note_on,10,0,5,,,,,,,,,4,,72,49
197062,note_on,25,0,1,,,,,,,,,0,,67,105
197087,note_on,25,0,1,,,,,,,,,0,,65,0
197090,note_on,50,0,5,,,,,,,,,4,,72,0
197100,note_on,10,0,5,,,,,,,,,4,,70,49
197112,note_on,25,0,1,,,,,,,,,0,,65,80
197144,note_on,32,0,1,,,,,,,,,0,,67,0
197150,note_on,50,0,5,,,,,,,,,4,,70,0
197160,note_on,10,0,5,,,,,,,,,4,,69,49
197175,note_on,31,0,1,,,,,,,,,0,,67,105
197194,note_on,19,0,1,,,,,,,,,0,,65,0
197210,note_on,50,0,5,,,,,,,,,4,,69,0
197220,note_on,10,0,5,,,,,,,,,4,,70,49
197220,note_on,420,0,8,,,,,,,,,7,,58,0
197220,note_on,420,0,9,,,,,,,,,8,,46,0
197220,note_on,420,0,6,,,,,,,,,5,,74,0
197227,note_on,33,0,1,,,,,,,,,0,,65,80
197257,note_on,30,0,1,,,,,,,,,0,,67,0
197270,note_on,50,0,5,,,,,,,,,4,,70,0
197280,note_on,10,0,5,,,,,,,,,4,,69,49
197280,note_on,60,0,8,,,,,,,,,7,,60,64
197280,note_on,60,0,9,,,,,,,,,8,,48,64
197280,note_on,60,0,6,,,,,,,,,5,,75,64
197282,note_on,25,0,1,,,,,,,,,0,,67,105
197309,note_on,27,0,1,,,,,,,,,0,,65,0
197325,note_on,16,0,1,,,,,,,,,0,,65,84
197357,note_on,32,0,1,,,,,,,,,0,,67,0
197382,note_on,25,0,1,,,,,,,,,0,,67,105
197382,note_on,102,0,5,,,,,,,,,4,,69,0
197400,note_on,18,0,5,,,,,,,,,4,,70,49
197407,note_on,25,0,1,,,,,,,,,0,,65,0
197435,note_on,28,0,1,,,,,,,,,0,,65,84
197452,note_on,17,0,1,,,,,,,,,0,,67,0
197487,note_on,35,0,1,,,,,,,,,0,,67,105
197502,note_on,102,0,5,,,,,,,,,4,,70,0
197517,note_on,30,0,1,,,,,,,,,0,,65,0
197520,note_on,18,0,5,,,,,,,,,4,,72,49
197537,note_on,20,0,1,,,,,,,,,0,,65,82
197552,note_on,15,0,1,,,,,,,,,0,,67,0
197595,note_on,43,0,1,,,,,,,,,0,,67,105
197619,note_on,24,0,1,,,,,,,,,0,,65,0
197622,note_on,102,0,5,,,,,,,,,4,,72,0
197640,note_on,21,0,1,,,,,,,,,0,,65,86
197640,note_on,18,0,5,,,,,,,,,4,,69,49
197657,note_on,17,0,1,,,,,,,,,0,,67,0
197690,note_on,33,0,1,,,,,,,,,0,,67,105
197700,note_on,420,0,6,,,,,,,,,5,,75,0
197700,note_on,420,0,9,,,,,,,,,8,,48,0
197700,note_on,420,0,8,,,,,,,,,7,,60,0
197722,note_on,32,0,1,,,,,,,,,0,,65,0
197742,note_on,102,0,5,,,,,,,,,4,,69,0
197745,note_on,23,0,1,,,,,,,,,0,,65,86
197760,note_on,60,0,8,,,,,,,,,7,,57,64
197760,note_on,18,0,5,,,,,,,,,4,,63,49
197760,note_on,60,0,6,,,,,,,,,5,,60,64
197760,note_on,60,0,9,,,,,,,,,8,,45,64
197772,note_on,27,0,1,,,,,,,,,0,,67,0
197795,note_on,23,0,1,,,,,,,,,0,,67,105
197827,note_on,32,0,1,,,,,,,,,0,,65,0
197855,note_on,28,0,1,,,,,,,,,0,,65,88
197877,note_on,22,0,1,,,,,,,,,0,,67,0
197900,note_on,23,0,1,,,,,,,,,0,,67,105
197917,note_on,17,0,1,,,,,,,,,0,,65,0
197962,note_on,45,0,1,,,,,,,,,0,,65,88
197967,note_on,207,0,5,,,,,,,,,4,,63,0
197982,note_on,20,0,1,,,,,,,,,0,,67,0
198000,note_on,33,0,5,,,,,,,,,4,,63,49
198007,note_on,25,0,1,,,,,,,,,0,,67,105
198024,note_on,17,0,1,,,,,,,,,0,,65,0
198057,note_on,33,0,1,,,,,,,,,0,,65,88
198089,note_on,32,0,1,,,,,,,,,0,,67,0
198120,note_on,31,0,1,,,,,,,,,0,,67,105
198139,note_on,19,0,1,,,,,,,,,0,,65,0
198162,note_on,23,0,1,,,,,,,,,0,,65,87
198180,note_on,420,0,6,,,,,,,,,5,,60,0
198180,note_on,420,0,9,,,,,,,,,8,,45,0
198180,note_on,420,0,8,,,,,,,,,7,,57,0
198195,note_on,33,0,1,,,,,,,,,0,,67,0
198207,note_on,12,0,1,,,,,,,,,0,,67,105
198207,note_on,207,0,5,,,,,,,,,4,,63,0
198227,note_on,20,0,1,,,,,,,,,0,,65,0
198240,note_on,60,0,8,,,,,,,,,7,,53,64
198240,note_on,60,0,9,,,,,,,,,8,,41,64
198240,note_on,33,0,5,,,,,,,,,4,,65,49
198240,note_on,60,0,6,,,,,,,,,5,,69,64
198257,note_on,30,0,1,,,,,,,,,0,,65,90
198289,note_on,32,0,1,,,,,,,,,0,,67,0
198290,note_on,50,0,5,,,,,,,,,4,,65,0
198300,note_on,10,0,5,,,,,,,,,4,,63,49
198310,note_on,21,0,1,,,,,,,,,0,,67,105
198339,note_on,29,0,1,,,,,,,,,0,,65,0
198350,note_on,50,0,5,,,,,,,,,4,,63,0
198360,note_on,10,0,5,,,,,,,,,4,,65,49
198362,note_on,23,0,1,,,,,,,,,0,,65,90
198387,note_on,25,0,1,,,,,,,,,0,,67,0
198410,note_on,50,0,5,,,,,,,,,4,,65,0
198417,note_on,30,0,1,,,,,,,,,0,,67,105
198420,note_on,10,0,5,,,,,,,,,4,,63,49
198444,note_on,27,0,1,,,,,,,,,0,,65,0
198467,note_on,23,0,1,,,,,,,,,0,,65,90
198470,note_on,50,0,5,,,,,,,,,4,,63,0
198480,note_on,10,0,5,,,,,,,,,4,,65,49
198494,note_on,27,0,1,,,,,,,,,0,,67,0
198510,note_on,16,0,1,,,,,,,,,0,,67,105
198530,note_on,50,0,5,,,,,,,,,4,,65,0
198532,note_on,22,0,1,,,,,,,,,0,,65,0
198540,note_on,10,0,5,,,,,,,,,4,,63,49
198555,note_on,23,0,1,,,,,,,,,0,,65,88
198575,note_on,20,0,1,,,,,,,,,0,,67,0
198590,note_on,50,0,5,,,,,,,,,4,,63,0
198600,note_on,10,0,5,,,,,,,,,4,,62,49
198605,note_on,30,0,1,,,,,,,,,0,,64,105
198627,note_on,22,0,1,,,,,,,,,0,,65,0
198650,note_on,50,0,5,,,,,,,,,4,,62,0
198660,note_on,420,0,9,,,,,,,,,8,,41,0
198660,note_on,420,0,6,,,,,,,,,5,,69,0
198660,note_on,10,0,5,,,,,,,,,4,,63,49
198660,note_on,33,0,1,,,,,,,,,0,,65,105
198660,note_on,420,0,8,,,,,,,,,7,,53,0
198682,note_on,22,0,1,,,,,,,,,0,,64,0
198710,note_on,50,0,5,,,,,,,,,4,,63,0
198720,note_on,60,0,8,,,,,,,,,7,,58,64
198720,note_on,60,0,9,,,,,,,,,8,,46,64
198720,note_on,10,0,5,,,,,,,,,4,,62,49
198720,note_on,60,0,6,,,,,,,,,5,,70,64
198815,note_on,133,0,1,,,,,,,,,0,,65,0
198840,note_on,25,0,1,,,,,,,,,0,,63,110
198927,note_on,207,0,6,,,,,,,,,5,,70,0
198927,note_on,207,0,5,,,,,,,,,4,,62,0
198927,note_on,207,0,9,,,,,,,,,8,,46,0
198927,note_on,207,0,8,,,,,,,,,7,,58,0
198957,note_on,117,0,1,,,,,,,,,0,,62,110
198980,note_on,23,0,1,,,,,,,,,0,,63,0
199052,note_on,72,0,1,,,,,,,,,0,,63,105
199087,note_on,35,0,1,,,,,,,,,0,,62,0
199162,note_on,75,0,1,,,,,,,,,0,,63,0
199200,note_on,273,0,5,,,,,,,,,4,,70,49
199200,note_on,273,0,9,,,,,,,,,8,,38,64
199200,note_on,273,0,6,,,,,,,,,5,,65,64
199200,note_on,273,0,8,,,,,,,,,7,,50,64
199200,note_on,38,0,1,,,,,,,,,0,,65,110
199307,note_on,107,0,1,,,,,,,,,0,,65,0
199320,note_on,13,0,1,,,,,,,,,0,,63,110
199407,note_on,207,0,9,,,,,,,,,8,,38,0
199407,note_on,207,0,6,,,,,,,,,5,,65,0
199407,note_on,207,0,8,,,,,,,,,7,,50,0
199407,note_on,207,0,5,,,,,,,,,4,,70,0
199427,note_on,107,0,1,,,,,,,,,0,,63,0
199440,note_on,13,0,1,,,,,,,,,0,,62,109
199547,note_on,107,0,1,,,,,,,,,0,,62,0
199560,note_on,13,0,1,,,,,,,,,0,,60,104
199667,note_on,107,0,1,,,,,,,,,0,,60,0
199680,note_on,13,0,1,,,,,,,,,0,,58,103
199680,note_on,273,0,6,,,,,,,,,5,,58,64
199680,note_on,273,0,9,,,,,,,,,8,,38,64
199680,note_on,273,0,5,,,,,,,,,4,,77,49
199680,note_on,273,0,8,,,,,,,,,7,,50,64
199787,note_on,107,0,1,,,,,,,,,0,,58,0
199800,note_on,13,0,1,,,,,,,,,0,,57,101
199887,note_on,207,0,8,,,,,,,,,7,,50,0
199887,note_on,207,0,6,,,,,,,,,5,,58,0
199887,note_on,207,0,5,,,,,,,,,4,,77,0
199887,note_on,207,0,9,,,,,,,,,8,,38,0
199907,note_on,107,0,1,,,,,,,,,0,,57,0
199920,note_on,13,0,1,,,,,,,,,0,,55,99
200027,note_on,107,0,1,,,,,,,,,0,,55,0
200040,note_on,13,0,1,,,,,,,,,0,,53,99
200147,note_on,107,0,1,,,,,,,,,0,,53,0
200160,note_on,6780,0,7,,,,,,,,,6,,63,64
200160,note_on,273,0,6,,,,,,,,,5,,67,64
200160,note_on,273,0,5,,,,,,,,,4,,72,49
200160,note_on,273,0,9,,,,,,,,,8,,39,64
200160,note_on,13,0,1,,,,,,,,,0,,55,99
200160,note_on,273,0,8,,,,,,,,,7,,51,64
200375,note_on,215,0,1,,,,,,,,,0,,55,0
200400,note_on,25,0,1,,,,,,,,,0,,57,99
200520,note_on,0,0,1,,,,,,,,,0,,59,99
200520,note_on,120,0,1,,,,,,,,,0,,57,0
200580,note_on,420,0,6,,,,,,,,,5,,67,0
200580,note_on,420,0,5,,,,,,,,,4,,72,0
200640,note_on,60,0,6,,,,,,,,,5,,63,64
200640,note_on,0,0,1,,,,,,,,,0,,60,99
200640,note_on,60,0,5,,,,,,,,,4,,75,49
200640,note_on,120,0,1,,,,,,,,,0,,59,0
200760,note_on,120,0,1,,,,,,,,,0,,59,99
200790,note_on,30,0,1,,,,,,,,,0,,60,0
200880,note_on,90,0,1,,,,,,,,,0,,59,0
200880,note_on,0,0,1,,,,,,,,,0,,60,103
201000,note_on,120,0,1,,,,,,,,,0,,60,0
201000,note_on,0,0,1,,,,,,,,,0,,62,105
201060,note_on,420,0,6,,,,,,,,,5,,63,0
201060,note_on,420,0,5,,,,,,,,,4,,75,0
201120,note_on,60,0,6,,,,,,,,,5,,60,64
201120,note_on,120,0,1,,,,,,,,,0,,62,0
201120,note_on,0,0,1,,,,,,,,,0,,63,109
201120,note_on,60,0,5,,,,,,,,,4,,79,49
201360,note_on,240,0,1,,,,,,,,,0,,63,0
201540,note_on,1380,0,7,,,,,,,,,6,,63,0
201540,note_on,420,0,5,,,,,,,,,4,,79,0
201540,note_on,1380,0,9,,,,,,,,,8,,39,0
201540,note_on,1380,0,8,,,,,,,,,7,,51,0
201540,note_on,420,0,6,,,,,,,,,5,,60,0
201600,note_on,60,0,6,,,,,,,,,5,,58,64
201600,note_on,60,0,7,,,,,,,,,6,,65,64
201600,note_on,60,0,9,,,,,,,,,8,,41,64
201600,note_on,60,0,5,,,,,,,,,4,,74,49
201600,note_on,60,0,8,,,,,,,,,7,,53,64
201610,note_on,250,0,1,,,,,,,,,0,,53,111
201807,note_on,207,0,7,,,,,,,,,6,,65,0
201807,note_on,207,0,9,,,,,,,,,8,,41,0
201807,note_on,207,0,5,,,,,,,,,4,,74,0
201807,note_on,207,0,8,,,,,,,,,7,,53,0
201807,note_on,207,0,6,,,,,,,,,5,,58,0
201840,note_on,33,0,9,,,,,,,,,8,,41,64
201840,note_on,33,0,5,,,,,,,,,4,,74,49
201840,note_on,33,0,7,,,,,,,,,6,,65,64
201840,note_on,33,0,8,,,,,,,,,7,,53,64
201840,note_on,33,0,6,,,,,,,,,5,,70,64
202047,note_on,207,0,9,,,,,,,,,8,,41,0
202047,note_on,207,0,7,,,,,,,,,6,,65,0
202047,note_on,207,0,5,,,,,,,,,4,,74,0
202047,note_on,207,0,8,,,,,,,,,7,,53,0
202047,note_on,207,0,6,,,,,,,,,5,,70,0
202070,note_on,460,0,1,,,,,,,,,0,,62,113
202080,note_on,33,0,8,,,,,,,,,7,,53,64
202080,note_on,33,0,9,,,,,,,,,8,,41,64
202080,note_on,33,0,7,,,,,,,,,6,,65,64
202080,note_on,33,0,6,,,,,,,,,5,,70,64
202080,note_on,33,0,5,,,,,,,,,4,,72,49
202082,note_on,12,0,1,,,,,,,,,0,,53,0
202200,note_on,118,0,1,,,,,,,,,0,,60,113
202210,note_on,10,0,1,,,,,,,,,0,,62,0
202242,note_on,32,0,1,,,,,,,,,0,,62,113
202282,note_on,40,0,1,,,,,,,,,0,,60,0
202287,note_on,207,0,6,,,,,,,,,5,,70,0
202287,note_on,207,0,9,,,,,,,,,8,,41,0
202287,note_on,207,0,8,,,,,,,,,7,,53,0
202287,note_on,207,0,5,,,,,,,,,4,,72,0
202287,note_on,207,0,7,,,,,,,,,6,,65,0
202307,note_on,25,0,1,,,,,,,,,0,,60,93
202320,note_on,33,0,7,,,,,,,,,6,,65,64
202320,note_on,33,0,9,,,,,,,,,8,,41,64
202320,note_on,33,0,6,,,,,,,,,5,,70,64
202320,note_on,33,0,8,,,,,,,,,7,,53,64
202320,note_on,33,0,5,,,,,,,,,4,,72,49
202329,note_on,22,0,1,,,,,,,,,0,,62,0
202352,note_on,23,0,1,,,,,,,,,0,,62,113
202387,note_on,35,0,1,,,,,,,,,0,,60,0
202402,note_on,15,0,1,,,,,,,,,0,,60,92
202434,note_on,32,0,1,,,,,,,,,0,,62,0
202455,note_on,21,0,1,,,,,,,,,0,,62,112
202489,note_on,34,0,1,,,,,,,,,0,,60,0
202515,note_on,26,0,1,,,,,,,,,0,,60,94
202527,note_on,207,0,8,,,,,,,,,7,,53,0
202527,note_on,207,0,9,,,,,,,,,8,,41,0
202527,note_on,207,0,6,,,,,,,,,5,,70,0
202527,note_on,207,0,5,,,,,,,,,4,,72,0
202527,note_on,207,0,7,,,,,,,,,6,,65,0
202547,note_on,32,0,1,,,,,,,,,0,,62,0
202557,note_on,10,0,1,,,,,,,,,0,,62,109
202560,note_on,33,0,8,,,,,,,,,7,,51,64
202560,note_on,33,0,9,,,,,,,,,8,,39,64
202560,note_on,33,0,6,,,,,,,,,5,,69,64
202560,note_on,33,0,5,,,,,,,,,4,,72,49
202560,note_on,33,0,7,,,,,,,,,6,,65,64
202595,note_on,38,0,1,,,,,,,,,0,,60,0
202612,note_on,17,0,1,,,,,,,,,0,,60,98
202642,note_on,30,0,1,,,,,,,,,0,,62,0
202662,note_on,20,0,1,,,,,,,,,0,,62,109
202699,note_on,37,0,1,,,,,,,,,0,,60,0
202730,note_on,31,0,1,,,,,,,,,0,,60,95
202749,note_on,19,0,1,,,,,,,,,0,,62,0
202767,note_on,18,0,1,,,,,,,,,0,,62,108
202767,note_on,207,0,9,,,,,,,,,8,,39,0
202767,note_on,207,0,5,,,,,,,,,4,,72,0
202767,note_on,207,0,6,,,,,,,,,5,,69,0
202767,note_on,207,0,8,,,,,,,,,7,,51,0
202767,note_on,207,0,7,,,,,,,,,6,,65,0
202800,note_on,33,0,5,,,,,,,,,4,,72,49
202800,note_on,33,0,9,,,,,,,,,8,,39,64
202800,note_on,33,0,6,,,,,,,,,5,,69,64
202800,note_on,33,0,8,,,,,,,,,7,,51,64
202800,note_on,33,0,7,,,,,,,,,6,,65,64
202810,note_on,43,0,1,,,,,,,,,0,,60,0
202827,note_on,17,0,1,,,,,,,,,0,,60,95
202854,note_on,27,0,1,,,,,,,,,0,,62,0
202880,note_on,26,0,1,,,,,,,,,0,,58,108
202914,note_on,34,0,1,,,,,,,,,0,,60,0
202935,note_on,21,0,1,,,,,,,,,0,,60,108
202972,note_on,37,0,1,,,,,,,,,0,,58,0
203007,note_on,207,0,9,,,,,,,,,8,,39,0
203007,note_on,207,0,7,,,,,,,,,6,,65,0
203007,note_on,207,0,5,,,,,,,,,4,,72,0
203007,note_on,207,0,8,,,,,,,,,7,,51,0
203007,note_on,207,0,6,,,,,,,,,5,,69,0
203027,note_on,55,0,1,,,,,,,,,0,,60,0
203030,note_on,3,0,1,,,,,,,,,0,,65,108
203040,note_on,33,0,7,,,,,,,,,6,,65,64
203040,note_on,33,0,5,,,,,,,,,4,,70,49
203040,note_on,33,0,9,,,,,,,,,8,,38,64
203040,note_on,33,0,6,,,,,,,,,5,,70,64
203040,note_on,33,0,8,,,,,,,,,7,,50,64
203150,note_on,120,0,1,,,,,,,,,0,,63,116
203187,note_on,37,0,1,,,,,,,,,0,,65,0
203247,note_on,207,0,8,,,,,,,,,7,,50,0
203247,note_on,207,0,6,,,,,,,,,5,,70,0
203247,note_on,207,0,5,,,,,,,,,4,,70,0
203247,note_on,207,0,9,,,,,,,,,8,,38,0
203270,note_on,83,0,1,,,,,,,,,0,,63,0
203270,note_on,0,0,1,,,,,,,,,0,,62,113
203377,note_on,107,0,1,,,,,,,,,0,,62,0
203390,note_on,13,0,1,,,,,,,,,0,,63,110
203460,note_on,420,0,7,,,,,,,,,6,,65,0
203497,note_on,107,0,1,,,,,,,,,0,,63,0
203510,note_on,13,0,1,,,,,,,,,0,,65,110
203520,note_on,273,0,6,,,,,,,,,5,,70,64
203520,note_on,273,0,8,,,,,,,,,7,,50,64
203520,note_on,273,0,9,,,,,,,,,8,,38,64
203520,note_on,273,0,5,,,,,,,,,4,,77,49
203617,note_on,107,0,1,,,,,,,,,0,,65,0
203630,note_on,13,0,1,,,,,,,,,0,,63,112
203727,note_on,207,0,6,,,,,,,,,5,,70,0
203727,note_on,207,0,5,,,,,,,,,4,,77,0
203727,note_on,207,0,9,,,,,,,,,8,,38,0
203727,note_on,207,0,8,,,,,,,,,7,,50,0
203737,note_on,107,0,1,,,,,,,,,0,,63,0
203750,note_on,13,0,1,,,,,,,,,0,,62,114
203857,note_on,107,0,1,,,,,,,,,0,,62,0
203870,note_on,13,0,1,,,,,,,,,0,,60,114
203977,note_on,107,0,1,,,,,,,,,0,,60,0
203990,note_on,13,0,1,,,,,,,,,0,,58,114
204000,note_on,273,0,9,,,,,,,,,8,,38,64
204000,note_on,273,0,8,,,,,,,,,7,,50,64
204000,note_on,273,0,5,,,,,,,,,4,,74,49
204000,note_on,273,0,6,,,,,,,,,5,,65,64
204097,note_on,107,0,1,,,,,,,,,0,,58,0
204110,note_on,13,0,1,,,,,,,,,0,,57,114
204207,note_on,207,0,5,,,,,,,,,4,,74,0
204207,note_on,207,0,6,,,,,,,,,5,,65,0
204207,note_on,207,0,8,,,,,,,,,7,,50,0
204207,note_on,207,0,9,,,,,,,,,8,,38,0
204217,note_on,107,0,1,,,,,,,,,0,,57,0
204230,note_on,13,0,1,,,,,,,,,0,,55,113
204337,note_on,107,0,1,,,,,,,,,0,,55,0
204350,note_on,13,0,1,,,,,,,,,0,,53,108
204457,note_on,107,0,1,,,,,,,,,0,,53,0
204470,note_on,13,0,1,,,,,,,,,0,,55,108
204480,note_on,273,0,5,,,,,,,,,4,,72,49
204480,note_on,273,0,6,,,,,,,,,5,,67,64
204480,note_on,273,0,9,,,,,,,,,8,,39,64
204480,note_on,273,0,8,,,,,,,,,7,,51,64
204480,note_on,1020,0,7,,,,,,,,,6,,63,64
204697,note_on,227,0,1,,,,,,,,,0,,55,0
204710,note_on,13,0,1,,,,,,,,,0,,57,107
204817,note_on,107,0,1,,,,,,,,,0,,57,0
204830,note_on,13,0,1,,,,,,,,,0,,59,107
204900,note_on,420,0,5,,,,,,,,,4,,72,0
204900,note_on,420,0,6,,,,,,,,,5,,67,0
204937,note_on,107,0,1,,,,,,,,,0,,59,0
204950,note_on,13,0,1,,,,,,,,,0,,60,108
204960,note_on,60,0,6,,,,,,,,,5,,63,64
204960,note_on,60,0,5,,,,,,,,,4,,75,49
205070,note_on,120,0,1,,,,,,,,,0,,59,112
205090,note_on,20,0,1,,,,,,,,,0,,60,0
205177,note_on,87,0,1,,,,,,,,,0,,59,0
205190,note_on,13,0,1,,,,,,,,,0,,60,116
205297,note_on,107,0,1,,,,,,,,,0,,60,0
205310,note_on,13,0,1,,,,,,,,,0,,62,117
205380,note_on,420,0,5,,,,,,,,,4,,75,0
205380,note_on,420,0,6,,,,,,,,,5,,63,0
205417,note_on,107,0,1,,,,,,,,,0,,62,0
205430,note_on,13,0,1,,,,,,,,,0,,63,118
205440,note_on,60,0,6,,,,,,,,,5,,60,64
205440,note_on,60,0,5,,,,,,,,,4,,79,49
205645,note_on,215,0,1,,,,,,,,,0,,63,0
205860,note_on,1380,0,8,,,,,,,,,7,,51,0
205860,note_on,420,0,5,,,,,,,,,4,,79,0
205860,note_on,1380,0,9,,,,,,,,,8,,39,0
205860,note_on,420,0,6,,,,,,,,,5,,60,0
205860,note_on,1380,0,7,,,,,,,,,6,,63,0
205910,note_on,265,0,1,,,,,,,,,0,,55,97
206137,note_on,227,0,1,,,,,,,,,0,,55,0
206150,note_on,13,0,1,,,,,,,,,0,,57,108
206257,note_on,107,0,1,,,,,,,,,0,,57,0
206270,note_on,13,0,1,,,,,,,,,0,,59,107
206377,note_on,107,0,1,,,,,,,,,0,,59,0
206390,note_on,13,0,1,,,,,,,,,0,,60,105
206510,note_on,120,0,1,,,,,,,,,0,,59,105
206537,note_on,27,0,1,,,,,,,,,0,,60,0
206617,note_on,80,0,1,,,,,,,,,0,,59,0
206630,note_on,13,0,1,,,,,,,,,0,,60,105
206737,note_on,107,0,1,,,,,,,,,0,,60,0
206750,note_on,13,0,1,,,,,,,,,0,,62,106
206857,note_on,107,0,1,,,,,,,,,0,,62,0
206870,note_on,13,0,1,,,,,,,,,0,,63,108
207085,note_on,215,0,1,,,,,,,,,0,,63,0
207350,note_on,265,0,1,,,,,,,,,0,,53,121
207360,note_on,1500,0,9,,,,,,,,,8,,41,64
207360,note_on,1500,0,7,,,,,,,,,6,,65,64
207360,note_on,1500,0,6,,,,,,,,,5,,70,64
207360,note_on,1500,0,5,,,,,,,,,4,,74,49
207360,note_on,1500,0,8,,,,,,,,,7,,53,64
207567,note_on,207,0,5,,,,,,,,,4,,74,0
207567,note_on,207,0,6,,,,,,,,,5,,70,0
207567,note_on,207,0,9,,,,,,,,,8,,41,0
207567,note_on,207,0,7,,,,,,,,,6,,65,0
207567,note_on,207,0,8,,,,,,,,,7,,53,0
207600,note_on,33,0,9,,,,,,,,,8,,41,64
207600,note_on,33,0,6,,,,,,,,,5,,70,64
207600,note_on,33,0,8,,,,,,,,,7,,53,64
207600,note_on,33,0,7,,,,,,,,,6,,65,64
207600,note_on,33,0,5,,,,,,,,,4,,74,49
207807,note_on,207,0,8,,,,,,,,,7,,53,0
207807,note_on,207,0,7,,,,,,,,,6,,65,0
207807,note_on,207,0,9,,,,,,,,,8,,41,0
207807,note_on,207,0,5,,,,,,,,,4,,74,0
207807,note_on,207,0,6,,,,,,,,,5,,70,0
207840,note_on,33,0,8,,,,,,,,,7,,53,64
207840,note_on,33,0,7,,,,,,,,,6,,65,64
207840,note_on,33,0,9,,,,,,,,,8,,41,64
207840,note_on,33,0,6,,,,,,,,,5,,70,64
207840,note_on,33,0,5,,,,,,,,,4,,74,49
208047,note_on,207,0,6,,,,,,,,,5,,70,0
208047,note_on,207,0,5,,,,,,,,,4,,74,0
208047,note_on,207,0,8,,,,,,,,,7,,53,0
208047,note_on,207,0,7,,,,,,,,,6,,65,0
208047,note_on,207,0,9,,,,,,,,,8,,41,0
208080,note_on,33,0,5,,,,,,,,,4,,74,49
208080,note_on,33,0,6,,,,,,,,,5,,70,64
208080,note_on,33,0,7,,,,,,,,,6,,65,64
208080,note_on,33,0,8,,,,,,,,,7,,53,64
208080,note_on,33,0,9,,,,,,,,,8,,41,64
208287,note_on,207,0,8,,,,,,,,,7,,53,0
208287,note_on,207,0,9,,,,,,,,,8,,41,0
208287,note_on,207,0,5,,,,,,,,,4,,74,0
208287,note_on,207,0,6,,,,,,,,,5,,70,0
208287,note_on,207,0,7,,,,,,,,,6,,65,0
208320,note_on,33,0,8,,,,,,,,,7,,53,64
208320,note_on,33,0,7,,,,,,,,,6,,65,64
208320,note_on,33,0,6,,,,,,,,,5,,70,64
208320,note_on,33,0,5,,,,,,,,,4,,74,49
208320,note_on,33,0,9,,,,,,,,,8,,41,64
208527,note_on,207,0,9,,,,,,,,,8,,41,0
208527,note_on,207,0,5,,,,,,,,,4,,74,0
208527,note_on,207,0,6,,,,,,,,,5,,70,0
208527,note_on,207,0,8,,,,,,,,,7,,53,0
208527,note_on,207,0,7,,,,,,,,,6,,65,0
208560,note_on,33,0,7,,,,,,,,,6,,65,64
208560,note_on,33,0,5,,,,,,,,,4,,74,49
208560,note_on,33,0,6,,,,,,,,,5,,70,64
208560,note_on,33,0,8,,,,,,,,,7,,53,64
208560,note_on,33,0,9,,,,,,,,,8,,41,64
208767,note_on,207,0,5,,,,,,,,,4,,74,0
208767,note_on,207,0,8,,,,,,,,,7,,53,0
208767,note_on,207,0,6,,,,,,,,,5,,70,0
208767,note_on,207,0,9,,,,,,,,,8,,41,0
208767,note_on,207,0,7,,,,,,,,,6,,65,0
208790,note_on,1440,0,1,,,,,,,,,0,,53,0
208790,note_on,0,0,1,,,,,,,,,0,,62,118
208800,note_on,33,0,6,,,,,,,,,5,,69,64
208800,note_on,33,0,9,,,,,,,,,8,,29,64
208800,note_on,33,0,8,,,,,,,,,7,,41,64
208800,note_on,33,0,7,,,,,,,,,6,,63,64
208800,note_on,33,0,5,,,,,,,,,4,,72,49
208902,note_on,102,0,6,,,,,,,,,5,,69,0
208902,note_on,102,0,5,,,,,,,,,4,,72,0
208902,note_on,102,0,7,,,,,,,,,6,,63,0
208920,note_on,18,0,6,,,,,,,,,5,,69,64
208920,note_on,18,0,5,,,,,,,,,4,,72,49
208920,note_on,18,0,7,,,,,,,,,6,,63,64
208980,note_on,190,0,1,,,,,,,,,0,,60,118
209007,note_on,207,0,8,,,,,,,,,7,,41,0
209007,note_on,207,0,9,,,,,,,,,8,,29,0
209012,note_on,32,0,1,,,,,,,,,0,,62,0
209022,note_on,102,0,7,,,,,,,,,6,,63,0
209022,note_on,102,0,6,,,,,,,,,5,,69,0
209022,note_on,102,0,5,,,,,,,,,4,,72,0
209040,note_on,33,0,9,,,,,,,,,8,,29,64
209040,note_on,18,0,7,,,,,,,,,6,,63,64
209040,note_on,33,0,8,,,,,,,,,7,,41,64
209040,note_on,18,0,5,,,,,,,,,4,,72,49
209040,note_on,18,0,6,,,,,,,,,5,,69,64
209070,note_on,58,0,1,,,,,,,,,0,,62,118
209082,note_on,12,0,1,,,,,,,,,0,,60,0
209132,note_on,50,0,1,,,,,,,,,0,,60,91
209142,note_on,102,0,5,,,,,,,,,4,,72,0
209142,note_on,102,0,7,,,,,,,,,6,,63,0
209142,note_on,102,0,6,,,,,,,,,5,,69,0
209145,note_on,13,0,1,,,,,,,,,0,,62,0
209160,note_on,18,0,5,,,,,,,,,4,,72,49
209160,note_on,18,0,6,,,,,,,,,5,,69,64
209160,note_on,18,0,7,,,,,,,,,6,,63,64
209187,note_on,42,0,1,,,,,,,,,0,,62,118
209207,note_on,20,0,1,,,,,,,,,0,,60,0
209237,note_on,30,0,1,,,,,,,,,0,,60,91
209247,note_on,207,0,8,,,,,,,,,7,,41,0
209247,note_on,207,0,9,,,,,,,,,8,,29,0
209262,note_on,25,0,1,,,,,,,,,0,,62,0
209262,note_on,102,0,5,,,,,,,,,4,,72,0
209262,note_on,102,0,6,,,,,,,,,5,,69,0
209262,note_on,102,0,7,,,,,,,,,6,,63,0
209280,note_on,18,0,7,,,,,,,,,6,,63,64
209280,note_on,33,0,9,,,,,,,,,8,,29,64
209280,note_on,33,0,8,,,,,,,,,7,,41,64
209280,note_on,18,0,6,,,,,,,,,5,,69,64
209280,note_on,18,0,5,,,,,,,,,4,,72,49
209295,note_on,33,0,1,,,,,,,,,0,,62,118
209312,note_on,17,0,1,,,,,,,,,0,,60,0
209350,note_on,38,0,1,,,,,,,,,0,,60,88
209370,note_on,20,0,1,,,,,,,,,0,,62,0
209382,note_on,102,0,5,,,,,,,,,4,,72,0
209382,note_on,102,0,6,,,,,,,,,5,,69,0
209382,note_on,102,0,7,,,,,,,,,6,,63,0
209400,note_on,18,0,5,,,,,,,,,4,,72,49
209400,note_on,18,0,7,,,,,,,,,6,,63,64
209400,note_on,18,0,6,,,,,,,,,5,,69,64
209410,note_on,40,0,1,,,,,,,,,0,,62,118
209425,note_on,15,0,1,,,,,,,,,0,,60,0
209462,note_on,37,0,1,,,,,,,,,0,,60,91
209485,note_on,23,0,1,,,,,,,,,0,,62,0
209487,note_on,207,0,8,,,,,,,,,7,,41,0
209487,note_on,207,0,9,,,,,,,,,8,,29,0
209502,note_on,102,0,5,,,,,,,,,4,,72,0
209502,note_on,102,0,7,,,,,,,,,6,,63,0
209502,note_on,102,0,6,,,,,,,,,5,,69,0
209515,note_on,30,0,1,,,,,,,,,0,,62,118
209520,note_on,18,0,5,,,,,,,,,4,,72,49
209520,note_on,18,0,6,,,,,,,,,5,,69,64
209520,note_on,18,0,7,,,,,,,,,6,,63,64
209520,note_on,33,0,9,,,,,,,,,8,,29,64
209520,note_on,33,0,8,,,,,,,,,7,,41,64
209524,note_on,9,0,1,,,,,,,,,0,,60,0
209575,note_on,51,0,1,,,,,,,,,0,,60,94
209590,note_on,15,0,1,,,,,,,,,0,,62,0
209620,note_on,30,0,1,,,,,,,,,0,,62,118
209622,note_on,102,0,5,,,,,,,,,4,,72,0
209622,note_on,2,0,1,,,,,,,,,0,,60,0
209622,note_on,102,0,7,,,,,,,,,6,,63,0
209622,note_on,102,0,6,,,,,,,,,5,,69,0
209640,note_on,18,0,7,,,,,,,,,6,,63,64
209640,note_on,18,0,6,,,,,,,,,5,,69,64
209640,note_on,18,0,5,,,,,,,,,4,,72,49
209680,note_on,58,0,1,,,,,,,,,0,,60,94
209695,note_on,15,0,1,,,,,,,,,0,,62,0
209725,note_on,30,0,1,,,,,,,,,0,,62,118
209727,note_on,207,0,9,,,,,,,,,8,,29,0
209727,note_on,207,0,8,,,,,,,,,7,,41,0
209737,note_on,12,0,1,,,,,,,,,0,,60,0
209742,note_on,102,0,5,,,,,,,,,4,,72,0
209742,note_on,102,0,7,,,,,,,,,6,,63,0
209742,note_on,102,0,6,,,,,,,,,5,,69,0
209760,note_on,18,0,6,,,,,,,,,5,,69,64
209760,note_on,18,0,5,,,,,,,,,4,,72,49
209760,note_on,33,0,9,,,,,,,,,8,,29,64
209760,note_on,18,0,7,,,,,,,,,6,,63,64
209760,note_on,33,0,8,,,,,,,,,7,,41,64
209772,note_on,35,0,1,,,,,,,,,0,,60,98
209775,note_on,3,0,1,,,,,,,,,0,,62,0
209820,note_on,45,0,1,,,,,,,,,0,,62,118
209827,note_on,7,0,1,,,,,,,,,0,,60,0
209862,note_on,102,0,7,,,,,,,,,6,,63,0
209862,note_on,102,0,5,,,,,,,,,4,,72,0
209862,note_on,102,0,6,,,,,,,,,5,,69,0
209865,note_on,38,0,1,,,,,,,,,0,,62,0
209867,note_on,2,0,1,,,,,,,,,0,,60,99
209880,note_on,18,0,5,,,,,,,,,4,,72,49
209880,note_on,18,0,6,,,,,,,,,5,,69,64
209880,note_on,18,0,7,,,,,,,,,6,,63,64
209912,note_on,45,0,1,,,,,,,,,0,,62,118
209922,note_on,10,0,1,,,,,,,,,0,,60,0
209967,note_on,207,0,9,,,,,,,,,8,,29,0
209967,note_on,207,0,8,,,,,,,,,7,,41,0
209977,note_on,55,0,1,,,,,,,,,0,,60,99
209982,note_on,102,0,5,,,,,,,,,4,,72,0
209982,note_on,102,0,7,,,,,,,,,6,,63,0
209982,note_on,102,0,6,,,,,,,,,5,,69,0
209987,note_on,10,0,1,,,,,,,,,0,,62,0
210000,note_on,18,0,7,,,,,,,,,6,,63,64
210000,note_on,18,0,6,,,,,,,,,5,,69,64
210000,note_on,33,0,9,,,,,,,,,8,,29,64
210000,note_on,18,0,5,,,,,,,,,4,,72,49
210000,note_on,33,0,8,,,,,,,,,7,,41,64
210012,note_on,25,0,1,,,,,,,,,0,,62,118
210034,note_on,22,0,1,,,,,,,,,0,,60,0
210067,note_on,33,0,1,,,,,,,,,0,,60,99
210087,note_on,20,0,1,,,,,,,,,0,,62,0
210102,note_on,102,0,5,,,,,,,,,4,,72,0
210102,note_on,102,0,7,,,,,,,,,6,,63,0
210102,note_on,102,0,6,,,,,,,,,5,,69,0
210120,note_on,18,0,7,,,,,,,,,6,,63,64
210120,note_on,18,0,5,,,,,,,,,4,,72,49
210120,note_on,18,0,6,,,,,,,,,5,,69,64
210120,note_on,33,0,1,,,,,,,,,0,,58,118
210122,note_on,2,0,1,,,,,,,,,0,,60,0
210162,note_on,40,0,1,,,,,,,,,0,,60,102
210192,note_on,30,0,1,,,,,,,,,0,,58,0
210207,note_on,207,0,8,,,,,,,,,7,,41,0
210207,note_on,207,0,9,,,,,,,,,8,,29,0
210222,note_on,102,0,7,,,,,,,,,6,,63,0
210222,note_on,102,0,6,,,,,,,,,5,,69,0
210222,note_on,102,0,5,,,,,,,,,4,,72,0
210230,note_on,38,0,1,,,,,,,,,0,,58,118
210240,note_on,18,0,5,,,,,,,,,4,,62,88
210240,note_on,0,0,5,,,,,,,,,4,,70,88
210240,note_on,70620,0,4,,,,,,,,,3,,58,88
210240,note_on,33,0,8,,,,,,,,,7,,58,64
210240,note_on,45660,0,3,,,,,,,,,2,,62,72
210240,note_on,0,0,3,,,,,,,,,2,,70,72
210240,note_on,18,0,6,,,,,,,,,5,,65,64
210240,note_on,27393,0,2,,,,,,,,,1,,70,75
210240,note_on,18,0,7,,,,,,,,,6,,62,64
210240,note_on,33,0,9,,,,,,,,,8,,46,64
210254,note_on,24,0,1,,,,,,,,,0,,60,0
210660,note_on,420,0,8,,,,,,,,,7,,58,0
210660,note_on,420,0,9,,,,,,,,,8,,46,0
210660,note_on,420,0,7,,,,,,,,,6,,62,0
210660,note_on,420,0,4,,,,,,,,,3,,58,0
210720,note_on,60,0,9,,,,,,,,,8,,50,64
210720,note_on,60,0,7,,,,,,,,,6,,70,64
210720,note_on,60,0,4,,,,,,,,,3,,62,88
210720,note_on,60,0,8,,,,,,,,,7,,62,64
210805,end_of_track,0,1,1,,,,,,,,,,,,
210805,note_on,551,0,1,,,,,,,,,0,,58,0
211140,note_on,420,0,7,,,,,,,,,6,,70,0
211140,note_on,900,0,5,,,,,,,,,4,,70,0
211140,note_on,0,0,5,,,,,,,,,4,,62,0
211140,note_on,900,0,3,,,,,,,,,2,,70,0
211140,note_on,0,0,3,,,,,,,,,2,,62,0
211140,note_on,900,0,2,,,,,,,,,1,,70,0
211140,note_on,900,0,6,,,,,,,,,5,,65,0
211140,note_on,420,0,8,,,,,,,,,7,,62,0
211140,note_on,420,0,4,,,,,,,,,3,,62,0
211140,note_on,420,0,9,,,,,,,,,8,,50,0
211200,note_on,60,0,6,,,,,,,,,5,,63,64
211200,note_on,60,0,5,,,,,,,,,4,,72,88
211200,note_on,60,0,4,,,,,,,,,3,,58,88
211200,note_on,60,0,9,,,,,,,,,8,,46,64
211200,note_on,60,0,7,,,,,,,,,6,,69,64
211200,note_on,60,0,2,,,,,,,,,1,,69,75
211200,note_on,0,0,2,,,,,,,,,1,,72,75
211200,note_on,60,0,8,,,,,,,,,7,,58,64
211407,note_on,207,0,6,,,,,,,,,5,,63,0
211407,note_on,207,0,5,,,,,,,,,4,,72,0
211407,note_on,207,0,7,,,,,,,,,6,,69,0
211407,note_on,207,0,2,,,,,,,,,1,,72,0
211407,note_on,0,0,2,,,,,,,,,1,,69,0
211440,note_on,33,0,6,,,,,,,,,5,,62,64
211440,note_on,33,0,5,,,,,,,,,4,,74,88
211440,note_on,33,0,2,,,,,,,,,1,,70,75
211440,note_on,0,0,2,,,,,,,,,1,,74,75
211440,note_on,33,0,7,,,,,,,,,6,,70,64
211620,note_on,420,0,8,,,,,,,,,7,,58,0
211620,note_on,420,0,9,,,,,,,,,8,,46,0
211620,note_on,420,0,4,,,,,,,,,3,,58,0
211647,note_on,207,0,6,,,,,,,,,5,,62,0
211647,note_on,0,0,2,,,,,,,,,1,,70,0
211647,note_on,207,0,5,,,,,,,,,4,,74,0
211647,note_on,207,0,2,,,,,,,,,1,,74,0
211647,note_on,207,0,7,,,,,,,,,6,,70,0
211680,note_on,33,0,6,,,,,,,,,5,,67,64
211680,note_on,33,0,5,,,,,,,,,4,,77,88
211680,note_on,33,0,2,,,,,,,,,1,,67,75
211680,note_on,33,0,7,,,,,,,,,6,,67,64
211680,note_on,60,0,9,,,,,,,,,8,,48,64
211680,note_on,60,0,4,,,,,,,,,3,,60,88
211680,note_on,60,0,8,,,,,,,,,7,,60,64
211680,note_on,0,0,2,,,,,,,,,1,,77,75
211887,note_on,207,0,2,,,,,,,,,1,,77,0
211887,note_on,207,0,5,,,,,,,,,4,,77,0
211920,note_on,33,0,2,,,,,,,,,1,,75,75
211920,note_on,33,0,5,,,,,,,,,4,,75,88
212100,note_on,420,0,8,,,,,,,,,7,,60,0
212100,note_on,420,0,4,,,,,,,,,3,,60,0
212100,note_on,420,0,9,,,,,,,,,8,,48,0
212100,note_on,420,0,6,,,,,,,,,5,,67,0
212127,note_on,0,0,2,,,,,,,,,1,,67,0
212127,note_on,207,0,2,,,,,,,,,1,,75,0
212127,note_on,207,0,5,,,,,,,,,4,,75,0
212160,note_on,0,0,3,,,,,,,,,2,,70,72
212160,note_on,60,0,4,,,,,,,,,3,,55,88
212160,note_on,0,0,2,,,,,,,,,1,,75,75
212160,note_on,33,0,2,,,,,,,,,1,,70,75
212160,note_on,60,0,6,,,,,,,,,5,,58,64
212160,note_on,1020,0,3,,,,,,,,,2,,58,72
212160,note_on,60,0,9,,,,,,,,,8,,43,64
212160,note_on,60,0,8,,,,,,,,,7,,55,64
212160,note_on,33,0,5,,,,,,,,,4,,75,88
212580,note_on,420,0,3,,,,,,,,,2,,70,0
212580,note_on,420,0,9,,,,,,,,,8,,43,0
212580,note_on,420,0,4,,,,,,,,,3,,55,0
212580,note_on,420,0,2,,,,,,,,,1,,70,0
212580,note_on,420,0,8,,,,,,,,,7,,55,0
212580,note_on,420,0,6,,,,,,,,,5,,58,0
212580,note_on,900,0,7,,,,,,,,,6,,67,0
212580,note_on,0,0,3,,,,,,,,,2,,58,0
212640,note_on,60,0,6,,,,,,,,,5,,60,64
212640,note_on,60,0,9,,,,,,,,,8,,45,64
212640,note_on,60,0,3,,,,,,,,,2,,65,72
212640,note_on,0,0,3,,,,,,,,,2,,72,72
212640,note_on,60,0,4,,,,,,,,,3,,57,88
212640,note_on,60,0,7,,,,,,,,,6,,65,64
212640,note_on,60,0,8,,,,,,,,,7,,57,64
212640,note_on,60,0,2,,,,,,,,,1,,72,75
213060,note_on,0,0,2,,,,,,,,,1,,75,0
213060,note_on,420,0,2,,,,,,,,,1,,72,0
213060,note_on,0,0,3,,,,,,,,,2,,65,0
213060,note_on,420,0,6,,,,,,,,,5,,60,0
213060,note_on,420,0,7,,,,,,,,,6,,65,0
213060,note_on,420,0,4,,,,,,,,,3,,57,0
213060,note_on,900,0,5,,,,,,,,,4,,75,0
213060,note_on,420,0,8,,,,,,,,,7,,57,0
213060,note_on,420,0,3,,,,,,,,,2,,72,0
213060,note_on,420,0,9,,,,,,,,,8,,45,0
213120,note_on,60,0,7,,,,,,,,,6,,65,64
213120,note_on,0,0,3,,,,,,,,,2,,74,72
213120,note_on,0,0,2,,,,,,,,,1,,74,75
213120,note_on,60,0,2,,,,,,,,,1,,70,75
213120,note_on,60,0,9,,,,,,,,,8,,46,64
213120,note_on,60,0,5,,,,,,,,,4,,74,88
213120,note_on,60,0,4,,,,,,,,,3,,58,88
213120,note_on,60,0,8,,,,,,,,,7,,58,64
213120,note_on,60,0,6,,,,,,,,,5,,58,64
213120,note_on,60,0,3,,,,,,,,,2,,70,72
213327,note_on,207,0,2,,,,,,,,,1,,74,0
213327,note_on,207,0,5,,,,,,,,,4,,74,0
213327,note_on,207,0,7,,,,,,,,,6,,65,0
213327,note_on,207,0,6,,,,,,,,,5,,58,0
213360,note_on,33,0,7,,,,,,,,,6,,62,64
213360,note_on,33,0,2,,,,,,,,,1,,77,75
213360,note_on,33,0,5,,,,,,,,,4,,77,88
213360,note_on,33,0,6,,,,,,,,,5,,62,64
213540,note_on,420,0,8,,,,,,,,,7,,58,0
213540,note_on,420,0,4,,,,,,,,,3,,58,0
213540,note_on,420,0,9,,,,,,,,,8,,46,0
213567,note_on,207,0,6,,,,,,,,,5,,62,0
213567,note_on,207,0,7,,,,,,,,,6,,62,0
213567,note_on,207,0,5,,,,,,,,,4,,77,0
213567,note_on,0,0,2,,,,,,,,,1,,70,0
213567,note_on,207,0,2,,,,,,,,,1,,77,0
213600,note_on,33,0,5,,,,,,,,,4,,70,88
213600,note_on,33,0,6,,,,,,,,,5,,62,64
213600,note_on,60,0,8,,,,,,,,,7,,55,64
213600,note_on,60,0,9,,,,,,,,,8,,43,64
213600,note_on,0,0,2,,,,,,,,,1,,82,75
213600,note_on,33,0,2,,,,,,,,,1,,74,75
213600,note_on,60,0,4,,,,,,,,,3,,55,88
213600,note_on,33,0,7,,,,,,,,,6,,67,64
213807,note_on,207,0,5,,,,,,,,,4,,70,0
213807,note_on,207,0,7,,,,,,,,,6,,67,0
213807,note_on,207,0,6,,,,,,,,,5,,62,0
213840,note_on,33,0,5,,,,,,,,,4,,74,88
213840,note_on,33,0,7,,,,,,,,,6,,58,64
213840,note_on,33,0,6,,,,,,,,,5,,70,64
214020,note_on,420,0,4,,,,,,,,,3,,55,0
214020,note_on,420,0,9,,,,,,,,,8,,43,0
214020,note_on,420,0,8,,,,,,,,,7,,55,0
214020,note_on,420,0,2,,,,,,,,,1,,82,0
214020,note_on,0,0,2,,,,,,,,,1,,74,0
214020,note_on,0,0,3,,,,,,,,,2,,70,0
214020,note_on,900,0,3,,,,,,,,,2,,74,0
214047,note_on,207,0,5,,,,,,,,,4,,74,0
214047,note_on,207,0,6,,,,,,,,,5,,70,0
214047,note_on,207,0,7,,,,,,,,,6,,58,0
214080,note_on,0,0,3,,,,,,,,,2,,75,72
214080,note_on,33,0,7,,,,,,,,,6,,63,64
214080,note_on,60,0,9,,,,,,,,,8,,39,64
214080,note_on,33,0,6,,,,,,,,,5,,67,64
214080,note_on,60,0,4,,,,,,,,,3,,51,88
214080,note_on,60,0,2,,,,,,,,,1,,79,75
214080,note_on,60,0,3,,,,,,,,,2,,72,72
214080,note_on,60,0,8,,,,,,,,,7,,51,64
214080,note_on,33,0,5,,,,,,,,,4,,67,88
214287,note_on,207,0,5,,,,,,,,,4,,67,0
214287,note_on,207,0,6,,,,,,,,,5,,67,0
214287,note_on,207,0,2,,,,,,,,,1,,79,0
214287,note_on,207,0,7,,,,,,,,,6,,63,0
214320,note_on,33,0,7,,,,,,,,,6,,60,64
214320,note_on,33,0,5,,,,,,,,,4,,72,88
214320,note_on,33,0,2,,,,,,,,,1,,75,75
214320,note_on,0,0,2,,,,,,,,,1,,84,75
214320,note_on,33,0,6,,,,,,,,,5,,63,64
214500,note_on,420,0,4,,,,,,,,,3,,51,0
214500,note_on,0,0,3,,,,,,,,,2,,72,0
214500,note_on,420,0,3,,,,,,,,,2,,75,0
214500,note_on,420,0,8,,,,,,,,,7,,51,0
214500,note_on,420,0,9,,,,,,,,,8,,39,0
214527,note_on,207,0,5,,,,,,,,,4,,72,0
214527,note_on,0,0,2,,,,,,,,,1,,75,0
214527,note_on,207,0,7,,,,,,,,,6,,60,0
214527,note_on,207,0,2,,,,,,,,,1,,84,0
214527,note_on,207,0,6,,,,,,,,,5,,63,0
214560,note_on,60,0,9,,,,,,,,,8,,41,64
214560,note_on,33,0,6,,,,,,,,,5,,62,64
214560,note_on,60,0,3,,,,,,,,,2,,65,72
214560,note_on,60,0,8,,,,,,,,,7,,53,64
214560,note_on,33,0,7,,,,,,,,,6,,53,64
214560,note_on,60,0,4,,,,,,,,,3,,53,88
214560,note_on,33,0,5,,,,,,,,,4,,70,88
214560,note_on,0,0,2,,,,,,,,,1,,82,75
214560,note_on,33,0,2,,,,,,,,,1,,74,75
214767,note_on,0,0,2,,,,,,,,,1,,74,0
214767,note_on,207,0,2,,,,,,,,,1,,82,0
214767,note_on,207,0,5,,,,,,,,,4,,70,0
214767,note_on,207,0,6,,,,,,,,,5,,62,0
214800,note_on,33,0,6,,,,,,,,,5,,60,64
214800,note_on,33,0,2,,,,,,,,,1,,72,75
214800,note_on,0,0,2,,,,,,,,,1,,81,75
214800,note_on,33,0,5,,,,,,,,,4,,69,88
214980,note_on,420,0,4,,,,,,,,,3,,53,0
214980,note_on,420,0,7,,,,,,,,,6,,53,0
214980,note_on,420,0,9,,,,,,,,,8,,41,0
214980,note_on,420,0,8,,,,,,,,,7,,53,0
215007,note_on,207,0,5,,,,,,,,,4,,69,0
215007,note_on,207,0,6,,,,,,,,,5,,60,0
215007,note_on,207,0,2,,,,,,,,,1,,81,0
215007,note_on,0,0,2,,,,,,,,,1,,72,0
215040,note_on,33,0,5,,,,,,,,,4,,67,88
215040,note_on,60,0,8,,,,,,,,,7,,53,64
215040,note_on,33,0,2,,,,,,,,,1,,70,75
215040,note_on,0,0,2,,,,,,,,,1,,79,75
215040,note_on,33,0,6,,,,,,,,,5,,58,64
215040,note_on,60,0,9,,,,,,,,,8,,41,64
215040,note_on,60,0,4,,,,,,,,,3,,53,88
215040,note_on,60,0,7,,,,,,,,,6,,65,64
215247,note_on,207,0,2,,,,,,,,,1,,79,0
215247,note_on,0,0,2,,,,,,,,,1,,70,0
215247,note_on,207,0,6,,,,,,,,,5,,58,0
215247,note_on,207,0,5,,,,,,,,,4,,67,0
215280,note_on,33,0,6,,,,,,,,,5,,57,64
215280,note_on,0,0,2,,,,,,,,,1,,77,75
215280,note_on,33,0,2,,,,,,,,,1,,69,75
215280,note_on,33,0,5,,,,,,,,,4,,65,88
215460,note_on,420,0,7,,,,,,,,,6,,65,0
215460,note_on,420,0,4,,,,,,,,,3,,53,0
215460,note_on,420,0,9,,,,,,,,,8,,41,0
215460,note_on,420,0,8,,,,,,,,,7,,53,0
215487,note_on,207,0,6,,,,,,,,,5,,57,0
215487,note_on,207,0,5,,,,,,,,,4,,65,0
215487,note_on,207,0,2,,,,,,,,,1,,77,0
215487,note_on,0,0,2,,,,,,,,,1,,69,0
215520,note_on,60,0,8,,,,,,,,,7,,51,64
215520,note_on,60,0,4,,,,,,,,,3,,51,88
215520,note_on,33,0,6,,,,,,,,,5,,58,64
215520,note_on,33,0,5,,,,,,,,,4,,67,88
215520,note_on,33,0,2,,,,,,,,,1,,70,75
215520,note_on,0,0,2,,,,,,,,,1,,79,75
215520,note_on,60,0,7,,,,,,,,,6,,65,64
215520,note_on,60,0,9,,,,,,,,,8,,39,64
215727,note_on,207,0,6,,,,,,,,,5,,58,0
215727,note_on,207,0,2,,,,,,,,,1,,79,0
215727,note_on,0,0,2,,,,,,,,,1,,70,0
215727,note_on,207,0,5,,,,,,,,,4,,67,0
215760,note_on,33,0,6,,,,,,,,,5,,60,64
215760,note_on,33,0,5,,,,,,,,,4,,69,88
215760,note_on,33,0,2,,,,,,,,,1,,72,75
215760,note_on,0,0,2,,,,,,,,,1,,81,75
215940,note_on,420,0,4,,,,,,,,,3,,51,0
215940,note_on,420,0,8,,,,,,,,,7,,51,0
215940,note_on,420,0,9,,,,,,,,,8,,39,0
215940,note_on,420,0,7,,,,,,,,,6,,65,0
215967,note_on,207,0,5,,,,,,,,,4,,69,0
215967,note_on,207,0,2,,,,,,,,,1,,81,0
215967,note_on,207,0,6,,,,,,,,,5,,60,0
215967,note_on,0,0,2,,,,,,,,,1,,72,0
216000,note_on,60,0,8,,,,,,,,,7,,50,64
216000,note_on,0,0,5,,,,,,,,,4,,70,88
216000,note_on,33,0,5,,,,,,,,,4,,62,88
216000,note_on,60,0,7,,,,,,,,,6,,65,64
216000,note_on,0,0,2,,,,,,,,,1,,82,75
216000,note_on,33,0,2,,,,,,,,,1,,74,75
216000,note_on,60,0,4,,,,,,,,,3,,50,88
216000,note_on,60,0,9,,,,,,,,,8,,38,64
216000,note_on,33,0,6,,,,,,,,,5,,62,64
216000,note_on,1440,0,3,,,,,,,,,2,,58,72
216420,note_on,420,0,7,,,,,,,,,6,,65,0
216420,note_on,420,0,9,,,,,,,,,8,,38,0
216420,note_on,420,0,4,,,,,,,,,3,,50,0
216420,note_on,0,0,2,,,,,,,,,1,,74,0
216420,note_on,420,0,2,,,,,,,,,1,,82,0
216420,note_on,420,0,6,,,,,,,,,5,,62,0
216420,note_on,420,0,8,,,,,,,,,7,,50,0
216480,note_on,60,0,6,,,,,,,,,5,,65,64
216480,note_on,60,0,7,,,,,,,,,6,,70,64
216480,note_on,60,0,2,,,,,,,,,1,,70,75
216480,note_on,60,0,9,,,,,,,,,8,,50,64
216480,note_on,60,0,8,,,,,,,,,7,,62,64
216480,note_on,60,0,4,,,,,,,,,3,,62,88
216900,note_on,0,0,5,,,,,,,,,4,,62,0
216900,note_on,420,0,8,,,,,,,,,7,,62,0
216900,note_on,420,0,6,,,,,,,,,5,,65,0
216900,note_on,420,0,7,,,,,,,,,6,,70,0
216900,note_on,900,0,5,,,,,,,,,4,,70,0
216900,note_on,420,0,9,,,,,,,,,8,,50,0
216900,note_on,900,0,3,,,,,,,,,2,,58,0
216900,note_on,0,0,3,,,,,,,,,2,,65,0
216900,note_on,420,0,4,,,,,,,,,3,,62,0
216900,note_on,420,0,2,,,,,,,,,1,,70,0
216960,note_on,60,0,7,,,,,,,,,6,,69,64
216960,note_on,60,0,6,,,,,,,,,5,,63,64
216960,note_on,60,0,4,,,,,,,,,3,,58,88
216960,note_on,0,0,2,,,,,,,,,1,,72,75
216960,note_on,60,0,5,,,,,,,,,4,,72,88
216960,note_on,60,0,8,,,,,,,,,7,,58,64
216960,note_on,60,0,2,,,,,,,,,1,,69,75
216960,note_on,60,0,9,,,,,,,,,8,,46,64
217167,note_on,207,0,6,,,,,,,,,5,,63,0
217167,note_on,0,0,2,,,,,,,,,1,,69,0
217167,note_on,207,0,2,,,,,,,,,1,,72,0
217167,note_on,207,0,7,,,,,,,,,6,,69,0
217167,note_on,207,0,5,,,,,,,,,4,,72,0
217200,note_on,33,0,6,,,,,,,,,5,,62,64
217200,note_on,0,0,2,,,,,,,,,1,,74,75
217200,note_on,33,0,7,,,,,,,,,6,,70,64
217200,note_on,33,0,5,,,,,,,,,4,,74,88
217200,note_on,33,0,2,,,,,,,,,1,,70,75
217380,note_on,420,0,4,,,,,,,,,3,,58,0
217380,note_on,420,0,9,,,,,,,,,8,,46,0
217380,note_on,420,0,8,,,,,,,,,7,,58,0
217407,note_on,207,0,6,,,,,,,,,5,,62,0
217407,note_on,207,0,2,,,,,,,,,1,,74,0
217407,note_on,207,0,7,,,,,,,,,6,,70,0
217407,note_on,207,0,5,,,,,,,,,4,,74,0
217407,note_on,0,0,2,,,,,,,,,1,,70,0
217440,note_on,33,0,5,,,,,,,,,4,,77,88
217440,note_on,60,0,9,,,,,,,,,8,,48,64
217440,note_on,60,0,8,,,,,,,,,7,,60,64
217440,note_on,33,0,7,,,,,,,,,6,,67,64
217440,note_on,0,0,2,,,,,,,,,1,,77,75
217440,note_on,33,0,2,,,,,,,,,1,,67,75
217440,note_on,60,0,4,,,,,,,,,3,,60,88
217440,note_on,33,0,6,,,,,,,,,5,,67,64
217647,note_on,207,0,5,,,,,,,,,4,,77,0
217647,note_on,207,0,2,,,,,,,,,1,,77,0
217680,note_on,33,0,2,,,,,,,,,1,,75,75
217680,note_on,33,0,5,,,,,,,,,4,,75,88
217860,note_on,420,0,4,,,,,,,,,3,,60,0
217860,note_on,420,0,9,,,,,,,,,8,,48,0
217860,note_on,420,0,8,,,,,,,,,7,,60,0
217860,note_on,420,0,6,,,,,,,,,5,,67,0
217887,note_on,0,0,2,,,,,,,,,1,,67,0
217887,note_on,207,0,5,,,,,,,,,4,,75,0
217887,note_on,207,0,2,,,,,,,,,1,,75,0
217920,note_on,33,0,2,,,,,,,,,1,,70,75
217920,note_on,0,0,3,,,,,,,,,2,,70,72
217920,note_on,60,0,6,,,,,,,,,5,,58,64
217920,note_on,0,0,2,,,,,,,,,1,,75,75
217920,note_on,1020,0,3,,,,,,,,,2,,58,72
217920,note_on,60,0,9,,,,,,,,,8,,43,64
217920,note_on,33,0,5,,,,,,,,,4,,75,88
217920,note_on,60,0,8,,,,,,,,,7,,55,64
217920,note_on,60,0,4,,,,,,,,,3,,55,88
218340,note_on,420,0,4,,,,,,,,,3,,55,0
218340,note_on,420,0,9,,,,,,,,,8,,43,0
218340,note_on,420,0,8,,,,,,,,,7,,55,0
218340,note_on,420,0,2,,,,,,,,,1,,70,0
218340,note_on,900,0,7,,,,,,,,,6,,67,0
218340,note_on,420,0,3,,,,,,,,,2,,70,0
218340,note_on,0,0,3,,,,,,,,,2,,58,0
218340,note_on,420,0,6,,,,,,,,,5,,58,0
218400,note_on,60,0,4,,,,,,,,,3,,57,88
218400,note_on,0,0,3,,,,,,,,,2,,72,72
218400,note_on,60,0,8,,,,,,,,,7,,57,64
218400,note_on,60,0,2,,,,,,,,,1,,72,75
218400,note_on,60,0,7,,,,,,,,,6,,65,64
218400,note_on,60,0,3,,,,,,,,,2,,65,72
218400,note_on,60,0,9,,,,,,,,,8,,45,64
218400,note_on,60,0,6,,,,,,,,,5,,60,64
218820,note_on,420,0,9,,,,,,,,,8,,45,0
218820,note_on,420,0,4,,,,,,,,,3,,57,0
218820,note_on,420,0,8,,,,,,,,,7,,57,0
218820,note_on,420,0,3,,,,,,,,,2,,72,0
218820,note_on,420,0,6,,,,,,,,,5,,60,0
218820,note_on,0,0,3,,,,,,,,,2,,65,0
218820,note_on,900,0,5,,,,,,,,,4,,75,0
218820,note_on,420,0,2,,,,,,,,,1,,72,0
218820,note_on,420,0,7,,,,,,,,,6,,65,0
218820,note_on,0,0,2,,,,,,,,,1,,75,0
218880,note_on,60,0,9,,,,,,,,,8,,46,64
218880,note_on,60,0,8,,,,,,,,,7,,58,64
218880,note_on,0,0,2,,,,,,,,,1,,74,75
218880,note_on,60,0,4,,,,,,,,,3,,58,88
218880,note_on,60,0,3,,,,,,,,,2,,70,72
218880,note_on,60,0,5,,,,,,,,,4,,74,88
218880,note_on,60,0,7,,,,,,,,,6,,65,64
218880,note_on,60,0,6,,,,,,,,,5,,65,64
218880,note_on,60,0,2,,,,,,,,,1,,70,75
218880,note_on,0,0,3,,,,,,,,,2,,74,72
219190,note_on,310,0,2,,,,,,,,,1,,74,0
219190,note_on,310,0,5,,,,,,,,,4,,74,0
219240,note_on,50,0,2,,,,,,,,,1,,77,75
219240,note_on,50,0,5,,,,,,,,,4,,75,88
219290,note_on,50,0,5,,,,,,,,,4,,75,0
219300,note_on,420,0,9,,,,,,,,,8,,46,0
219300,note_on,10,0,5,,,,,,,,,4,,77,88
219300,note_on,420,0,4,,,,,,,,,3,,58,0
219300,note_on,420,0,6,,,,,,,,,5,,65,0
219300,note_on,420,0,8,,,,,,,,,7,,58,0
219300,note_on,420,0,7,,,,,,,,,6,,65,0
219342,note_on,102,0,2,,,,,,,,,1,,77,0
219342,note_on,0,0,2,,,,,,,,,1,,70,0
219350,note_on,50,0,5,,,,,,,,,4,,77,0
219360,note_on,0,0,2,,,,,,,,,1,,82,75
219360,note_on,60,0,8,,,,,,,,,7,,53,64
219360,note_on,10,0,5,,,,,,,,,4,,70,88
219360,note_on,60,0,4,,,,,,,,,3,,53,88
219360,note_on,18,0,2,,,,,,,,,1,,74,75
219360,note_on,60,0,6,,,,,,,,,5,,62,64
219360,note_on,60,0,9,,,,,,,,,8,,41,64
219360,note_on,60,0,7,,,,,,,,,6,,65,64
219780,note_on,420,0,7,,,,,,,,,6,,65,0
219780,note_on,900,0,3,,,,,,,,,2,,74,0
219780,note_on,0,0,3,,,,,,,,,2,,70,0
219780,note_on,420,0,9,,,,,,,,,8,,41,0
219780,note_on,420,0,5,,,,,,,,,4,,70,0
219780,note_on,420,0,4,,,,,,,,,3,,53,0
219780,note_on,0,0,2,,,,,,,,,1,,74,0
219780,note_on,420,0,2,,,,,,,,,1,,82,0
219780,note_on,420,0,8,,,,,,,,,7,,53,0
219780,note_on,420,0,6,,,,,,,,,5,,62,0
219840,note_on,0,0,2,,,,,,,,,1,,81,75
219840,note_on,60,0,7,,,,,,,,,6,,65,64
219840,note_on,60,0,4,,,,,,,,,3,,41,88
219840,note_on,60,0,8,,,,,,,,,7,,41,64
219840,note_on,60,0,6,,,,,,,,,5,,60,64
219840,note_on,60,0,5,,,,,,,,,4,,69,88
219840,note_on,60,0,2,,,,,,,,,1,,72,75
219840,note_on,60,0,9,,,,,,,,,8,,29,64
219840,note_on,60,0,3,,,,,,,,,2,,65,72
219840,note_on,0,0,3,,,,,,,,,2,,72,72
220260,note_on,420,0,8,,,,,,,,,7,,41,0
220260,note_on,0,0,3,,,,,,,,,2,,65,0
220260,note_on,420,0,5,,,,,,,,,4,,69,0
220260,note_on,420,0,2,,,,,,,,,1,,81,0
220260,note_on,0,0,2,,,,,,,,,1,,72,0
220260,note_on,420,0,6,,,,,,,,,5,,60,0
220260,note_on,420,0,4,,,,,,,,,3,,41,0
220260,note_on,420,0,7,,,,,,,,,6,,65,0
220260,note_on,420,0,3,,,,,,,,,2,,72,0
220260,note_on,420,0,9,,,,,,,,,8,,29,0
220320,note_on,60,0,2,,,,,,,,,1,,74,75
220320,note_on,0,0,2,,,,,,,,,1,,82,75
220320,note_on,0,0,3,,,,,,,,,2,,70,72
220320,note_on,60,0,3,,,,,,,,,2,,62,72
220320,note_on,60,0,8,,,,,,,,,7,,50,64
220320,note_on,60,0,6,,,,,,,,,5,,62,64
220320,note_on,60,0,7,,,,,,,,,6,,62,64
220320,note_on,60,0,4,,,,,,,,,3,,50,88
220320,note_on,0,0,5,,,,,,,,,4,,77,88
220320,note_on,60,0,5,,,,,,,,,4,,70,88
220320,note_on,60,0,9,,,,,,,,,8,,38,64
220527,note_on,207,0,9,,,,,,,,,8,,38,0
220527,note_on,207,0,8,,,,,,,,,7,,50,0
220527,note_on,207,0,7,,,,,,,,,6,,62,0
220527,note_on,207,0,4,,,,,,,,,3,,50,0
220560,note_on,33,0,7,,,,,,,,,6,,62,64
220560,note_on,33,0,8,,,,,,,,,7,,50,64
220560,note_on,33,0,4,,,,,,,,,3,,50,88
220560,note_on,33,0,9,,,,,,,,,8,,38,64
220630,note_on,310,0,6,,,,,,,,,5,,62,0
220630,note_on,0,0,5,,,,,,,,,4,,70,0
220630,note_on,310,0,5,,,,,,,,,4,,77,0
220680,note_on,50,0,5,,,,,,,,,4,,79,88
220730,note_on,50,0,5,,,,,,,,,4,,79,0
220740,note_on,10,0,5,,,,,,,,,4,,81,88
220767,note_on,207,0,8,,,,,,,,,7,,50,0
220767,note_on,207,0,4,,,,,,,,,3,,50,0
220767,note_on,207,0,7,,,,,,,,,6,,62,0
220767,note_on,207,0,9,,,,,,,,,8,,38,0
220790,note_on,50,0,5,,,,,,,,,4,,81,0
220800,note_on,33,0,8,,,,,,,,,7,,50,64
220800,note_on,33,0,4,,,,,,,,,3,,50,88
220800,note_on,33,0,7,,,,,,,,,6,,62,64
220800,note_on,10,0,5,,,,,,,,,4,,82,88
220800,note_on,33,0,9,,,,,,,,,8,,38,64
220902,note_on,102,0,5,,,,,,,,,4,,82,0
220920,note_on,18,0,5,,,,,,,,,4,,81,88
221007,note_on,207,0,4,,,,,,,,,3,,50,0
221007,note_on,207,0,8,,,,,,,,,7,,50,0
221007,note_on,207,0,9,,,,,,,,,8,,38,0
221007,note_on,207,0,7,,,,,,,,,6,,62,0
221022,note_on,102,0,5,,,,,,,,,4,,81,0
221040,note_on,33,0,7,,,,,,,,,6,,62,64
221040,note_on,33,0,4,,,,,,,,,3,,50,88
221040,note_on,33,0,8,,,,,,,,,7,,50,64
221040,note_on,18,0,5,,,,,,,,,4,,79,88
221040,note_on,33,0,9,,,,,,,,,8,,38,64
221142,note_on,102,0,5,,,,,,,,,4,,79,0
221160,note_on,18,0,5,,,,,,,,,4,,77,88
221220,note_on,0,0,2,,,,,,,,,1,,74,0
221220,note_on,900,0,2,,,,,,,,,1,,82,0
221247,note_on,207,0,9,,,,,,,,,8,,38,0
221247,note_on,207,0,7,,,,,,,,,6,,62,0
221247,note_on,207,0,8,,,,,,,,,7,,50,0
221247,note_on,207,0,4,,,,,,,,,3,,50,0
221262,note_on,102,0,5,,,,,,,,,4,,77,0
221280,note_on,33,0,7,,,,,,,,,6,,62,64
221280,note_on,33,0,8,,,,,,,,,7,,50,64
221280,note_on,18,0,5,,,,,,,,,4,,75,88
221280,note_on,33,0,9,,,,,,,,,8,,38,64
221280,note_on,33,0,4,,,,,,,,,3,,50,88
221280,note_on,60,0,2,,,,,,,,,1,,74,75
221280,note_on,0,0,2,,,,,,,,,1,,77,75
221382,note_on,102,0,5,,,,,,,,,4,,75,0
221400,note_on,18,0,5,,,,,,,,,4,,74,88
221487,note_on,207,0,7,,,,,,,,,6,,62,0
221487,note_on,207,0,8,,,,,,,,,7,,50,0
221487,note_on,207,0,4,,,,,,,,,3,,50,0
221487,note_on,207,0,9,,,,,,,,,8,,38,0
221502,note_on,102,0,5,,,,,,,,,4,,74,0
221520,note_on,18,0,5,,,,,,,,,4,,72,88
221520,note_on,33,0,4,,,,,,,,,3,,50,88
221520,note_on,33,0,9,,,,,,,,,8,,38,64
221520,note_on,33,0,7,,,,,,,,,6,,62,64
221520,note_on,33,0,8,,,,,,,,,7,,50,64
221622,note_on,102,0,5,,,,,,,,,4,,72,0
221640,note_on,18,0,5,,,,,,,,,4,,70,88
221700,note_on,1380,0,3,,,,,,,,,2,,70,0
221700,note_on,420,0,2,,,,,,,,,1,,77,0
221700,note_on,0,0,2,,,,,,,,,1,,74,0
221700,note_on,0,0,3,,,,,,,,,2,,62,0
221727,note_on,207,0,7,,,,,,,,,6,,62,0
221727,note_on,207,0,9,,,,,,,,,8,,38,0
221727,note_on,207,0,4,,,,,,,,,3,,50,0
221727,note_on,207,0,8,,,,,,,,,7,,50,0
221742,note_on,102,0,5,,,,,,,,,4,,70,0
221760,note_on,33,0,8,,,,,,,,,7,,51,64
221760,note_on,0,0,2,,,,,,,,,1,,75,75
221760,note_on,33,0,7,,,,,,,,,6,,63,64
221760,note_on,18,0,5,,,,,,,,,4,,75,88
221760,note_on,33,0,9,,,,,,,,,8,,39,64
221760,note_on,60,0,2,,,,,,,,,1,,72,75
221760,note_on,33,0,4,,,,,,,,,3,,51,88
221862,note_on,102,0,5,,,,,,,,,4,,75,0
221880,note_on,18,0,5,,,,,,,,,4,,77,88
221967,note_on,207,0,7,,,,,,,,,6,,63,0
221967,note_on,207,0,4,,,,,,,,,3,,51,0
221967,note_on,207,0,8,,,,,,,,,7,,51,0
221967,note_on,207,0,9,,,,,,,,,8,,39,0
221982,note_on,102,0,5,,,,,,,,,4,,77,0
222000,note_on,33,0,8,,,,,,,,,7,,51,64
222000,note_on,18,0,5,,,,,,,,,4,,79,88
222000,note_on,33,0,7,,,,,,,,,6,,63,64
222000,note_on,33,0,4,,,,,,,,,3,,51,88
222000,note_on,33,0,9,,,,,,,,,8,,39,64
222102,note_on,102,0,5,,,,,,,,,4,,79,0
222120,note_on,18,0,5,,,,,,,,,4,,75,88
222180,note_on,0,0,2,,,,,,,,,1,,72,0
222180,note_on,420,0,2,,,,,,,,,1,,75,0
222207,note_on,207,0,7,,,,,,,,,6,,63,0
222207,note_on,207,0,9,,,,,,,,,8,,39,0
222207,note_on,207,0,8,,,,,,,,,7,,51,0
222207,note_on,207,0,4,,,,,,,,,3,,51,0
222222,note_on,102,0,5,,,,,,,,,4,,75,0
222240,note_on,33,0,4,,,,,,,,,3,,53,88
222240,note_on,540,0,3,,,,,,,,,2,,65,72
222240,note_on,33,0,9,,,,,,,,,8,,41,64
222240,note_on,0,0,2,,,,,,,,,1,,74,75
222240,note_on,60,0,2,,,,,,,,,1,,70,75
222240,note_on,33,0,7,,,,,,,,,6,,65,64
222240,note_on,18,0,5,,,,,,,,,4,,74,88
222240,note_on,33,0,8,,,,,,,,,7,,53,64
222342,note_on,102,0,5,,,,,,,,,4,,74,0
222360,note_on,18,0,5,,,,,,,,,4,,75,88
222447,note_on,207,0,8,,,,,,,,,7,,53,0
222447,note_on,207,0,9,,,,,,,,,8,,41,0
222447,note_on,207,0,7,,,,,,,,,6,,65,0
222447,note_on,207,0,4,,,,,,,,,3,,53,0
222462,note_on,102,0,5,,,,,,,,,4,,75,0
222480,note_on,18,0,5,,,,,,,,,4,,77,88
222480,note_on,33,0,7,,,,,,,,,6,,65,64
222480,note_on,33,0,9,,,,,,,,,8,,41,64
222480,note_on,33,0,4,,,,,,,,,3,,53,88
222480,note_on,33,0,8,,,,,,,,,7,,53,64
222582,note_on,102,0,5,,,,,,,,,4,,77,0
222600,note_on,18,0,5,,,,,,,,,4,,74,88
222660,note_on,420,0,3,,,,,,,,,2,,65,0
222660,note_on,420,0,2,,,,,,,,,1,,74,0
222660,note_on,0,0,2,,,,,,,,,1,,70,0
222687,note_on,207,0,7,,,,,,,,,6,,65,0
222687,note_on,207,0,8,,,,,,,,,7,,53,0
222687,note_on,207,0,9,,,,,,,,,8,,41,0
222687,note_on,207,0,4,,,,,,,,,3,,53,0
222702,note_on,102,0,5,,,,,,,,,4,,74,0
222720,note_on,33,0,7,,,,,,,,,6,,63,64
222720,note_on,60,0,2,,,,,,,,,1,,69,75
222720,note_on,33,0,8,,,,,,,,,7,,51,64
222720,note_on,33,0,9,,,,,,,,,8,,39,64
222720,note_on,0,0,2,,,,,,,,,1,,72,75
222720,note_on,33,0,4,,,,,,,,,3,,51,88
222720,note_on,60,0,3,,,,,,,,,2,,65,72
222720,note_on,18,0,5,,,,,,,,,4,,72,88
222822,note_on,102,0,5,,,,,,,,,4,,72,0
222840,note_on,18,0,5,,,,,,,,,4,,74,88
222927,note_on,207,0,8,,,,,,,,,7,,51,0
222927,note_on,207,0,4,,,,,,,,,3,,51,0
222927,note_on,207,0,9,,,,,,,,,8,,39,0
222927,note_on,207,0,7,,,,,,,,,6,,63,0
222942,note_on,102,0,5,,,,,,,,,4,,74,0
222960,note_on,33,0,4,,,,,,,,,3,,51,88
222960,note_on,33,0,8,,,,,,,,,7,,51,64
222960,note_on,33,0,9,,,,,,,,,8,,39,64
222960,note_on,18,0,5,,,,,,,,,4,,75,88
222960,note_on,33,0,7,,,,,,,,,6,,63,64
223062,note_on,102,0,5,,,,,,,,,4,,75,0
223080,note_on,18,0,5,,,,,,,,,4,,72,88
223140,note_on,420,0,3,,,,,,,,,2,,65,0
223140,note_on,420,0,2,,,,,,,,,1,,72,0
223140,note_on,0,0,2,,,,,,,,,1,,69,0
223167,note_on,207,0,7,,,,,,,,,6,,63,0
223167,note_on,207,0,8,,,,,,,,,7,,51,0
223167,note_on,207,0,4,,,,,,,,,3,,51,0
223167,note_on,207,0,9,,,,,,,,,8,,39,0
223182,note_on,102,0,5,,,,,,,,,4,,72,0
223200,note_on,18,0,5,,,,,,,,,4,,77,88
223200,note_on,0,0,6,,,,,,,,,5,,70,64
223200,note_on,33,0,9,,,,,,,,,8,,38,64
223200,note_on,33,0,4,,,,,,,,,3,,50,88
223200,note_on,2570,0,6,,,,,,,,,5,,62,64
223200,note_on,60,0,3,,,,,,,,,2,,58,72
223200,note_on,0,0,3,,,,,,,,,2,,70,72
223200,note_on,60,0,2,,,,,,,,,1,,74,75
223200,note_on,33,0,7,,,,,,,,,6,,62,64
223200,note_on,33,0,8,,,,,,,,,7,,50,64
223200,note_on,0,0,2,,,,,,,,,1,,82,75
223407,note_on,207,0,8,,,,,,,,,7,,50,0
223407,note_on,207,0,9,,,,,,,,,8,,38,0
223407,note_on,207,0,7,,,,,,,,,6,,62,0
223407,note_on,207,0,4,,,,,,,,,3,,50,0
223440,note_on,33,0,9,,,,,,,,,8,,38,64
223440,note_on,33,0,4,,,,,,,,,3,,50,88
223440,note_on,33,0,8,,,,,,,,,7,,50,64
223440,note_on,33,0,7,,,,,,,,,6,,62,64
223510,note_on,310,0,6,,,,,,,,,5,,70,0
223510,note_on,310,0,5,,,,,,,,,4,,77,0
223510,note_on,0,0,6,,,,,,,,,5,,62,0
223560,note_on,50,0,5,,,,,,,,,4,,79,88
223610,note_on,50,0,5,,,,,,,,,4,,79,0
223620,note_on,10,0,5,,,,,,,,,4,,81,88
223647,note_on,207,0,7,,,,,,,,,6,,62,0
223647,note_on,207,0,4,,,,,,,,,3,,50,0
223647,note_on,207,0,9,,,,,,,,,8,,38,0
223647,note_on,207,0,8,,,,,,,,,7,,50,0
223670,note_on,50,0,5,,,,,,,,,4,,81,0
223680,note_on,33,0,4,,,,,,,,,3,,50,88
223680,note_on,33,0,9,,,,,,,,,8,,38,64
223680,note_on,10,0,5,,,,,,,,,4,,82,88
223680,note_on,33,0,7,,,,,,,,,6,,62,64
223680,note_on,33,0,8,,,,,,,,,7,,50,64
223782,note_on,102,0,5,,,,,,,,,4,,82,0
223800,note_on,18,0,5,,,,,,,,,4,,81,88
223887,note_on,207,0,7,,,,,,,,,6,,62,0
223887,note_on,207,0,4,,,,,,,,,3,,50,0
223887,note_on,207,0,8,,,,,,,,,7,,50,0
223887,note_on,207,0,9,,,,,,,,,8,,38,0
223902,note_on,102,0,5,,,,,,,,,4,,81,0
223920,note_on,33,0,8,,,,,,,,,7,,50,64
223920,note_on,33,0,7,,,,,,,,,6,,62,64
223920,note_on,33,0,9,,,,,,,,,8,,38,64
223920,note_on,33,0,4,,,,,,,,,3,,50,88
223920,note_on,18,0,5,,,,,,,,,4,,79,88
224022,note_on,102,0,5,,,,,,,,,4,,79,0
224040,note_on,18,0,5,,,,,,,,,4,,77,88
224100,note_on,900,0,2,,,,,,,,,1,,82,0
224100,note_on,0,0,2,,,,,,,,,1,,74,0
224127,note_on,207,0,4,,,,,,,,,3,,50,0
224127,note_on,207,0,8,,,,,,,,,7,,50,0
224127,note_on,207,0,9,,,,,,,,,8,,38,0
224127,note_on,207,0,7,,,,,,,,,6,,62,0
224142,note_on,102,0,5,,,,,,,,,4,,77,0
224160,note_on,18,0,5,,,,,,,,,4,,75,88
224160,note_on,33,0,9,,,,,,,,,8,,38,64
224160,note_on,33,0,4,,,,,,,,,3,,50,88
224160,note_on,60,0,2,,,,,,,,,1,,74,75
224160,note_on,0,0,2,,,,,,,,,1,,77,75
224160,note_on,33,0,8,,,,,,,,,7,,50,64
224160,note_on,33,0,7,,,,,,,,,6,,62,64
224262,note_on,102,0,5,,,,,,,,,4,,75,0
224280,note_on,18,0,5,,,,,,,,,4,,74,88
224367,note_on,207,0,9,,,,,,,,,8,,38,0
224367,note_on,207,0,7,,,,,,,,,6,,62,0
224367,note_on,207,0,4,,,,,,,,,3,,50,0
224367,note_on,207,0,8,,,,,,,,,7,,50,0
224382,note_on,102,0,5,,,,,,,,,4,,74,0
224400,note_on,33,0,9,,,,,,,,,8,,38,64
224400,note_on,33,0,4,,,,,,,,,3,,50,88
224400,note_on,33,0,8,,,,,,,,,7,,50,64
224400,note_on,18,0,5,,,,,,,,,4,,72,88
224400,note_on,33,0,7,,,,,,,,,6,,62,64
224502,note_on,102,0,5,,,,,,,,,4,,72,0
224520,note_on,18,0,5,,,,,,,,,4,,70,88
224580,note_on,0,0,2,,,,,,,,,1,,74,0
224580,note_on,420,0,2,,,,,,,,,1,,77,0
224607,note_on,207,0,7,,,,,,,,,6,,62,0
224607,note_on,207,0,8,,,,,,,,,7,,50,0
224607,note_on,207,0,9,,,,,,,,,8,,38,0
224607,note_on,207,0,4,,,,,,,,,3,,50,0
224622,note_on,102,0,5,,,,,,,,,4,,70,0
224640,note_on,18,0,5,,,,,,,,,4,,75,88
224640,note_on,33,0,9,,,,,,,,,8,,39,64
224640,note_on,33,0,4,,,,,,,,,3,,51,88
224640,note_on,33,0,7,,,,,,,,,6,,63,64
224640,note_on,33,0,8,,,,,,,,,7,,51,64
224640,note_on,0,0,2,,,,,,,,,1,,75,75
224640,note_on,60,0,2,,,,,,,,,1,,72,75
224742,note_on,102,0,5,,,,,,,,,4,,75,0
224760,note_on,18,0,5,,,,,,,,,4,,77,88
224847,note_on,207,0,4,,,,,,,,,3,,51,0
224847,note_on,207,0,8,,,,,,,,,7,,51,0
224847,note_on,207,0,9,,,,,,,,,8,,39,0
224847,note_on,207,0,7,,,,,,,,,6,,63,0
224862,note_on,102,0,5,,,,,,,,,4,,77,0
224880,note_on,33,0,9,,,,,,,,,8,,39,64
224880,note_on,33,0,7,,,,,,,,,6,,63,64
224880,note_on,18,0,5,,,,,,,,,4,,79,88
224880,note_on,33,0,8,,,,,,,,,7,,51,64
224880,note_on,33,0,4,,,,,,,,,3,,51,88
224982,note_on,102,0,5,,,,,,,,,4,,79,0
225000,note_on,18,0,5,,,,,,,,,4,,75,88
225060,note_on,0,0,3,,,,,,,,,2,,58,0
225060,note_on,0,0,2,,,,,,,,,1,,72,0
225060,note_on,420,0,2,,,,,,,,,1,,75,0
225060,note_on,1860,0,3,,,,,,,,,2,,70,0
225087,note_on,207,0,8,,,,,,,,,7,,51,0
225087,note_on,207,0,7,,,,,,,,,6,,63,0
225087,note_on,207,0,4,,,,,,,,,3,,51,0
225087,note_on,207,0,9,,,,,,,,,8,,39,0
225102,note_on,102,0,5,,,,,,,,,4,,75,0
225120,note_on,60,0,3,,,,,,,,,2,,70,72
225120,note_on,60,0,2,,,,,,,,,1,,70,75
225120,note_on,0,0,3,,,,,,,,,2,,74,72
225120,note_on,33,0,8,,,,,,,,,7,,53,64
225120,note_on,33,0,9,,,,,,,,,8,,41,64
225120,note_on,33,0,4,,,,,,,,,3,,53,88
225120,note_on,0,0,2,,,,,,,,,1,,74,75
225120,note_on,18,0,5,,,,,,,,,4,,74,88
225120,note_on,33,0,7,,,,,,,,,6,,65,64
225222,note_on,102,0,5,,,,,,,,,4,,74,0
225240,note_on,18,0,5,,,,,,,,,4,,75,88
225327,note_on,207,0,8,,,,,,,,,7,,53,0
225327,note_on,207,0,7,,,,,,,,,6,,65,0
225327,note_on,207,0,4,,,,,,,,,3,,53,0
225327,note_on,207,0,9,,,,,,,,,8,,41,0
225342,note_on,102,0,5,,,,,,,,,4,,75,0
225360,note_on,33,0,8,,,,,,,,,7,,53,64
225360,note_on,18,0,5,,,,,,,,,4,,77,88
225360,note_on,33,0,9,,,,,,,,,8,,41,64
225360,note_on,33,0,4,,,,,,,,,3,,53,88
225360,note_on,33,0,7,,,,,,,,,6,,65,64
225462,note_on,102,0,5,,,,,,,,,4,,77,0
225480,note_on,18,0,5,,,,,,,,,4,,74,88
225540,note_on,420,0,2,,,,,,,,,1,,74,0
225540,note_on,0,0,3,,,,,,,,,2,,70,0
225540,note_on,0,0,2,,,,,,,,,1,,70,0
225540,note_on,420,0,3,,,,,,,,,2,,74,0
225567,note_on,207,0,9,,,,,,,,,8,,41,0
225567,note_on,207,0,7,,,,,,,,,6,,65,0
225567,note_on,207,0,4,,,,,,,,,3,,53,0
225567,note_on,207,0,8,,,,,,,,,7,,53,0
225582,note_on,102,0,5,,,,,,,,,4,,74,0
225600,note_on,0,0,3,,,,,,,,,2,,72,72
225600,note_on,60,0,3,,,,,,,,,2,,65,72
225600,note_on,0,0,2,,,,,,,,,1,,72,75
225600,note_on,18,0,5,,,,,,,,,4,,72,88
225600,note_on,60,0,2,,,,,,,,,1,,69,75
225600,note_on,33,0,7,,,,,,,,,6,,53,64
225600,note_on,33,0,9,,,,,,,,,8,,29,64
225600,note_on,33,0,4,,,,,,,,,3,,41,88
225600,note_on,33,0,8,,,,,,,,,7,,41,64
225702,note_on,102,0,5,,,,,,,,,4,,72,0
225720,note_on,18,0,5,,,,,,,,,4,,74,88
225807,note_on,207,0,4,,,,,,,,,3,,41,0
225807,note_on,207,0,7,,,,,,,,,6,,53,0
225807,note_on,207,0,8,,,,,,,,,7,,41,0
225807,note_on,207,0,9,,,,,,,,,8,,29,0
225822,note_on,102,0,5,,,,,,,,,4,,74,0
225840,note_on,18,0,5,,,,,,,,,4,,75,88
225840,note_on,33,0,8,,,,,,,,,7,,41,64
225840,note_on,33,0,9,,,,,,,,,8,,29,64
225840,note_on,33,0,4,,,,,,,,,3,,41,88
225840,note_on,33,0,7,,,,,,,,,6,,53,64
225942,note_on,102,0,5,,,,,,,,,4,,75,0
225960,note_on,18,0,5,,,,,,,,,4,,72,88
226020,note_on,0,0,3,,,,,,,,,2,,65,0
226020,note_on,420,0,3,,,,,,,,,2,,72,0
226020,note_on,0,0,2,,,,,,,,,1,,69,0
226020,note_on,420,0,2,,,,,,,,,1,,72,0
226047,note_on,207,0,4,,,,,,,,,3,,41,0
226047,note_on,207,0,8,,,,,,,,,7,,41,0
226047,note_on,207,0,7,,,,,,,,,6,,53,0
226047,note_on,207,0,9,,,,,,,,,8,,29,0
226058,set_tempo,60456,1,0,,,,,,594059,,,,,,
226062,note_on,102,0,5,,,,,,,,,4,,72,0
226080,note_on,18,0,5,,,,,,,,,4,,70,88
226080,note_on,33,0,4,,,,,,,,,3,,46,88
226080,note_on,33,0,9,,,,,,,,,8,,34,64
226080,note_on,33,0,7,,,,,,,,,6,,58,64
226080,note_on,33,0,8,,,,,,,,,7,,46,64
226080,note_on,60,0,3,,,,,,,,,2,,62,72
226080,note_on,0,0,3,,,,,,,,,2,,70,72
226080,note_on,60,0,2,,,,,,,,,1,,70,75
226287,note_on,207,0,7,,,,,,,,,6,,58,0
226287,note_on,207,0,4,,,,,,,,,3,,46,0
226287,note_on,207,0,9,,,,,,,,,8,,34,0
226287,note_on,207,0,8,,,,,,,,,7,,46,0
226320,note_on,33,0,9,,,,,,,,,8,,34,64
226320,note_on,33,0,8,,,,,,,,,7,,46,64
226320,note_on,33,0,4,,,,,,,,,3,,46,88
226320,note_on,33,0,7,,,,,,,,,6,,58,64
226500,note_on,420,0,5,,,,,,,,,4,,70,0
226500,note_on,0,0,3,,,,,,,,,2,,62,0
226500,note_on,420,0,3,,,,,,,,,2,,70,0
226500,note_on,420,0,2,,,,,,,,,1,,70,0
226527,note_on,207,0,9,,,,,,,,,8,,34,0
226527,note_on,207,0,8,,,,,,,,,7,,46,0
226527,note_on,207,0,4,,,,,,,,,3,,46,0
226527,note_on,207,0,7,,,,,,,,,6,,58,0
226560,note_on,60,0,2,,,,,,,,,1,,74,75
226560,note_on,60,0,3,,,,,,,,,2,,62,72
226560,note_on,33,0,8,,,,,,,,,7,,50,64
226560,note_on,33,0,7,,,,,,,,,6,,62,64
226560,note_on,3050,0,6,,,,,,,,,5,,58,64
226560,note_on,0,0,5,,,,,,,,,4,,82,88
226560,note_on,33,0,4,,,,,,,,,3,,50,88
226560,note_on,0,0,2,,,,,,,,,1,,82,75
226560,note_on,33,0,9,,,,,,,,,8,,38,64
226560,note_on,60,0,5,,,,,,,,,4,,70,88
226560,note_on,0,0,3,,,,,,,,,2,,70,72
226567,set_tempo,509,1,0,,,,,,631579,,,,,,
226767,note_on,207,0,8,,,,,,,,,7,,50,0
226767,note_on,207,0,7,,,,,,,,,6,,62,0
226767,note_on,207,0,4,,,,,,,,,3,,50,0
226767,note_on,207,0,9,,,,,,,,,8,,38,0
226800,note_on,33,0,9,,,,,,,,,8,,34,64
226800,note_on,33,0,7,,,,,,,,,6,,58,64
226800,note_on,33,0,4,,,,,,,,,3,,46,88
226800,note_on,33,0,8,,,,,,,,,7,,46,64
226980,note_on,0,0,2,,,,,,,,,1,,74,0
226980,note_on,0,0,3,,,,,,,,,2,,62,0
226980,note_on,420,0,3,,,,,,,,,2,,70,0
226980,note_on,420,0,6,,,,,,,,,5,,58,0
226980,note_on,420,0,2,,,,,,,,,1,,82,0
226980,note_on,420,0,5,,,,,,,,,4,,82,0
226980,note_on,0,0,5,,,,,,,,,4,,70,0
227007,note_on,207,0,4,,,,,,,,,3,,46,0
227007,note_on,207,0,8,,,,,,,,,7,,46,0
227007,note_on,207,0,9,,,,,,,,,8,,34,0
227007,note_on,207,0,7,,,,,,,,,6,,58,0
227040,note_on,0,0,5,,,,,,,,,4,,82,88
227040,note_on,33,0,8,,,,,,,,,7,,50,64
227040,note_on,33,0,9,,,,,,,,,8,,38,64
227040,note_on,33,0,7,,,,,,,,,6,,62,64
227040,note_on,33,0,4,,,,,,,,,3,,50,88
227040,note_on,60,0,6,,,,,,,,,5,,58,64
227040,note_on,60,0,2,,,,,,,,,1,,74,75
227040,note_on,60,0,3,,,,,,,,,2,,62,72
227040,note_on,0,0,2,,,,,,,,,1,,82,75
227040,note_on,0,0,3,,,,,,,,,2,,70,72
227040,note_on,60,0,5,,,,,,,,,4,,70,88
227247,note_on,207,0,8,,,,,,,,,7,,50,0
227247,note_on,207,0,7,,,,,,,,,6,,62,0
227247,note_on,207,0,4,,,,,,,,,3,,50,0
227247,note_on,207,0,9,,,,,,,,,8,,38,0
227280,note_on,33,0,8,,,,,,,,,7,,53,64
227280,note_on,33,0,7,,,,,,,,,6,,65,64
227280,note_on,33,0,4,,,,,,,,,3,,53,88
227280,note_on,33,0,9,,,,,,,,,8,,41,64
227460,note_on,420,0,3,,,,,,,,,2,,70,0
227460,note_on,0,0,3,,,,,,,,,2,,62,0
227460,note_on,420,0,2,,,,,,,,,1,,82,0
227460,note_on,0,0,2,,,,,,,,,1,,74,0
227460,note_on,420,0,6,,,,,,,,,5,,58,0
227460,note_on,0,0,5,,,,,,,,,4,,70,0
227460,note_on,420,0,5,,,,,,,,,4,,82,0
227487,note_on,207,0,9,,,,,,,,,8,,41,0
227487,note_on,207,0,8,,,,,,,,,7,,53,0
227487,note_on,207,0,7,,,,,,,,,6,,65,0
227487,note_on,207,0,4,,,,,,,,,3,,53,0
227517,set_tempo,950,1,0,,,,,,681818,,,,,,
227520,note_on,33,0,9,,,,,,,,,8,,46,64
227520,note_on,60,0,3,,,,,,,,,2,,62,72
227520,note_on,0,0,3,,,,,,,,,2,,70,72
227520,note_on,33,0,8,,,,,,,,,7,,58,64
227520,note_on,60,0,5,,,,,,,,,4,,70,88
227520,note_on,0,0,5,,,,,,,,,4,,82,88
227520,note_on,33,0,7,,,,,,,,,6,,70,64
227520,note_on,60,0,2,,,,,,,,,1,,74,75
227520,note_on,60,0,6,,,,,,,,,5,,58,64
227520,note_on,0,0,2,,,,,,,,,1,,82,75
227520,note_on,33,0,4,,,,,,,,,3,,58,88
227940,note_on,420,0,4,,,,,,,,,3,,58,0
227940,note_on,0,0,3,,,,,,,,,2,,62,0
227940,note_on,420,0,3,,,,,,,,,2,,70,0
227940,note_on,420,0,5,,,,,,,,,4,,82,0
227940,note_on,0,0,5,,,,,,,,,4,,70,0
227940,note_on,420,0,6,,,,,,,,,5,,58,0
227940,end_of_track,0,1,6,,,,,,,,,,,,
227940,note_on,420,0,9,,,,,,,,,8,,46,0
227940,note_on,420,0,2,,,,,,,,,1,,82,0
227940,note_on,0,0,2,,,,,,,,,1,,74,0
227940,note_on,420,0,7,,,,,,,,,6,,70,0
227940,note_on,420,0,8,,,,,,,,,7,,58,0
227997,set_tempo,480,1,0,,,,,,750000,,,,,,
228000,note_on,60,0,5,,,,,,,,,4,,58,88
228000,note_on,60,0,2,,,,,,,,,1,,70,75
228000,note_on,60,0,8,,,,,,,,,7,,46,64
228000,note_on,60,0,4,,,,,,,,,3,,46,88
228000,note_on,60,0,3,,,,,,,,,2,,58,72
228000,note_on,60,0,9,,,,,,,,,8,,34,64
228000,note_on,60,0,7,,,,,,,,,6,,58,64
228420,note_on,420,0,3,,,,,,,,,2,,58,0
228420,note_on,420,0,9,,,,,,,,,8,,34,0
228420,end_of_track,0,1,5,,,,,,,,,,,,
228420,note_on,420,0,5,,,,,,,,,4,,58,0
228420,end_of_track,0,1,3,,,,,,,,,,,,
228420,note_on,420,0,2,,,,,,,,,1,,70,0
228420,end_of_track,0,1,2,,,,,,,,,,,,
228420,note_on,420,0,8,,,,,,,,,7,,46,0
228420,end_of_track,0,1,8,,,,,,,,,,,,
228420,end_of_track,0,1,7,,,,,,,,,,,,
228420,end_of_track,0,1,4,,,,,,,,,,,,
228420,note_on,420,0,4,,,,,,,,,3,,46,0
228420,end_of_track,0,1,9,,,,,,,,,,,,
228420,note_on,420,0,7,,,,,,,,,6,,58,0
228727,end_of_track,0,1,0,,,,,,,,,,,,
228727,set_tempo,730,1,0,,,,,,594059,,,,,,
