,note,step,duration,channel,velocity
0,46.0,480,420,8.0,0.0
1,58.0,0,420,3.0,0.0
2,58.0,0,420,7.0,0.0
3,62.0,0,420,6.0,0.0
4,70.0,0,900,2.0,0.0
5,62.0,0,900,2.0,0.0
6,62.0,0,900,4.0,0.0
7,70.0,0,900,4.0,0.0
8,65.0,0,900,5.0,0.0
9,70.0,0,900,1.0,0.0
10,62.0,0,420,7.0,0.0
11,50.0,267,420,8.0,0.0
12,70.0,0,420,6.0,0.0
13,62.0,0,420,3.0,0.0
14,63.0,0,210,5.0,0.0
15,69.0,0,210,6.0,0.0
16,69.0,0,210,1.0,0.0
17,72.0,213,210,1.0,0.0
18,72.0,0,210,4.0,0.0
19,58.0,0,420,7.0,0.0
20,46.0,27,420,8.0,0.0
21,58.0,0,420,3.0,0.0
22,70.0,0,210,1.0,0.0
23,70.0,240,210,6.0,0.0
24,74.0,0,210,4.0,0.0
25,74.0,0,210,1.0,0.0
26,62.0,0,210,5.0,0.0
27,60.0,0,420,3.0,0.0
28,67.0,0,420,5.0,0.0
29,67.0,0,450,1.0,0.0
30,67.0,0,900,6.0,0.0
31,77.0,0,210,1.0,0.0
32,60.0,27,420,7.0,0.0
33,48.0,0,420,8.0,0.0
34,77.0,213,210,4.0,0.0
35,75.0,0,210,4.0,0.0
36,75.0,453,210,1.0,0.0
37,43.0,0,420,8.0,0.0
38,75.0,0,900,1.0,0.0
39,70.0,480,420,1.0,0.0
40,70.0,0,420,2.0,0.0
41,55.0,0,420,7.0,0.0
42,75.0,0,900,4.0,0.0
43,58.0,0,420,5.0,0.0
44,55.0,0,420,3.0,0.0
45,58.0,0,420,2.0,0.0
46,57.0,267,420,7.0,0.0
47,57.0,0,420,3.0,0.0
48,72.0,0,420,2.0,0.0
49,65.0,0,420,2.0,0.0
50,60.0,0,420,5.0,0.0
51,65.0,0,420,6.0,0.0
52,45.0,0,420,8.0,0.0
53,72.0,0,420,1.0,0.0
54,65.0,0,210,6.0,0.0
55,74.0,213,210,1.0,0.0
56,74.0,0,900,2.0,0.0
57,70.0,0,450,1.0,0.0
58,58.0,0,420,7.0,0.0
59,70.0,0,900,2.0,0.0
60,58.0,27,420,3.0,0.0
61,58.0,0,210,5.0,0.0
62,46.0,0,420,8.0,0.0
63,74.0,0,210,4.0,0.0
64,62.0,0,210,6.0,0.0
65,77.0,0,210,1.0,0.0
66,62.0,0,210,5.0,0.0
67,77.0,240,210,4.0,0.0
68,55.0,0,420,7.0,0.0
69,70.0,0,210,4.0,0.0
70,55.0,0,420,3.0,0.0
71,74.0,0,420,1.0,0.0
72,62.0,213,210,5.0,0.0
73,43.0,0,420,8.0,0.0
74,82.0,27,420,1.0,0.0
75,65.0,0,210,6.0,0.0
76,70.0,240,210,5.0,0.0
77,58.0,0,210,6.0,0.0
78,74.0,0,210,4.0,0.0
79,75.0,0,420,2.0,0.0
80,51.0,0,420,7.0,0.0
81,67.0,0,210,4.0,0.0
82,72.0,0,420,2.0,0.0
83,67.0,0,210,5.0,0.0
84,63.0,213,210,6.0,0.0
85,39.0,27,420,8.0,0.0
86,79.0,0,210,1.0,0.0
87,51.0,0,420,3.0,0.0
88,72.0,0,210,4.0,0.0
89,60.0,0,210,6.0,0.0
90,84.0,0,210,1.0,0.0
91,75.0,0,210,1.0,0.0
92,63.0,240,210,5.0,0.0
93,62.0,0,210,5.0,0.0
94,53.0,0,420,7.0,0.0
95,41.0,27,420,8.0,0.0
96,65.0,0,2340,2.0,0.0
97,53.0,0,420,3.0,0.0
98,53.0,0,420,6.0,0.0
99,70.0,213,210,4.0,0.0
100,82.0,0,210,1.0,0.0
101,74.0,0,210,1.0,0.0
102,60.0,240,210,5.0,0.0
103,69.0,0,210,4.0,0.0
104,72.0,0,210,1.0,0.0
105,81.0,0,210,1.0,0.0
106,65.0,0,420,6.0,0.0
107,53.0,0,420,3.0,0.0
108,41.0,0,420,8.0,0.0
109,67.0,0,210,4.0,0.0
110,53.0,27,420,7.0,0.0
111,58.0,0,210,5.0,0.0
112,70.0,213,210,1.0,0.0
113,79.0,0,210,1.0,0.0
114,65.0,0,210,4.0,0.0
115,77.0,0,210,1.0,0.0
116,57.0,240,210,5.0,0.0
117,69.0,0,210,1.0,0.0
118,58.0,0,210,5.0,0.0
119,39.0,0,420,8.0,0.0
120,70.0,0,210,1.0,0.0
121,79.0,213,210,1.0,0.0
122,65.0,27,420,6.0,0.0
123,67.0,0,210,4.0,0.0
124,51.0,0,420,7.0,0.0
125,51.0,0,420,3.0,0.0
126,60.0,0,210,5.0,0.0
127,81.0,0,210,1.0,0.0
128,69.0,453,210,4.0,0.0
129,72.0,0,210,1.0,0.0
130,38.0,0,420,8.0,0.0
131,50.0,0,420,3.0,0.0
132,82.0,480,420,1.0,0.0
133,74.0,0,420,1.0,0.0
134,58.0,0,900,2.0,0.0
135,50.0,0,420,7.0,0.0
136,62.0,0,900,4.0,0.0
137,70.0,0,900,4.0,0.0
138,65.0,0,420,6.0,0.0
139,62.0,0,420,5.0,0.0
140,50.0,0,420,8.0,0.0
141,70.0,267,420,1.0,0.0
142,65.0,0,420,5.0,0.0
143,70.0,0,420,6.0,0.0
144,62.0,0,420,3.0,0.0
145,62.0,0,420,7.0,0.0
146,58.0,27,420,7.0,0.0
147,69.0,0,210,6.0,0.0
148,63.0,0,210,5.0,0.0
149,72.0,0,210,1.0,0.0
150,72.0,0,210,4.0,0.0
151,58.0,0,420,3.0,0.0
152,46.0,0,420,8.0,0.0
153,69.0,213,210,1.0,0.0
154,62.0,0,210,5.0,0.0
155,74.0,0,210,4.0,0.0
156,74.0,0,210,1.0,0.0
157,70.0,0,210,6.0,0.0
158,70.0,240,210,1.0,0.0
159,60.0,0,420,7.0,0.0
160,67.0,0,420,5.0,0.0
161,60.0,27,420,3.0,0.0
162,67.0,0,900,6.0,0.0
163,67.0,0,450,1.0,0.0
164,48.0,0,420,8.0,0.0
165,77.0,213,210,4.0,0.0
166,77.0,0,210,1.0,0.0
167,75.0,0,210,1.0,0.0
168,75.0,453,210,4.0,0.0
169,75.0,0,900,4.0,0.0
170,43.0,0,420,8.0,0.0
171,58.0,0,420,5.0,0.0
172,70.0,0,420,2.0,0.0
173,58.0,0,420,2.0,0.0
174,55.0,0,420,7.0,0.0
175,70.0,480,420,1.0,0.0
176,55.0,0,420,3.0,0.0
177,75.0,0,900,1.0,0.0
178,45.0,0,420,8.0,0.0
179,60.0,0,420,5.0,0.0
180,57.0,370,420,3.0,0.0
181,65.0,0,420,2.0,0.0
182,72.0,0,420,2.0,0.0
183,57.0,0,420,7.0,0.0
184,72.0,0,420,1.0,0.0
185,65.0,0,420,6.0,0.0
186,70.0,0,900,2.0,0.0
187,74.0,0,900,2.0,0.0
188,70.0,0,450,1.0,0.0
189,74.0,100,300,1.0,0.0
190,46.0,0,420,8.0,0.0
191,58.0,0,420,3.0,0.0
192,65.0,42,420,6.0,0.0
193,65.0,0,420,5.0,0.0
194,58.0,0,420,7.0,0.0
195,74.0,0,300,4.0,0.0
196,75.0,10,60,4.0,0.0
197,77.0,8,90,1.0,0.0
198,77.0,430,60,4.0,0.0
199,53.0,0,420,7.0,0.0
200,70.0,0,420,4.0,0.0
201,82.0,480,420,1.0,0.0
202,74.0,0,420,1.0,0.0
203,65.0,0,420,6.0,0.0
204,62.0,0,420,5.0,0.0
205,41.0,0,420,8.0,0.0
206,53.0,0,420,3.0,0.0
207,69.0,0,420,4.0,0.0
208,29.0,0,420,8.0,0.0
209,41.0,0,420,3.0,0.0
210,65.0,0,420,6.0,0.0
211,72.0,480,420,2.0,0.0
212,65.0,0,420,2.0,0.0
213,41.0,0,420,7.0,0.0
214,81.0,0,420,1.0,0.0
215,60.0,0,420,5.0,0.0
216,72.0,0,420,1.0,0.0
217,46.0,480,420,3.0,0.0
218,82.0,0,900,1.0,0.0
219,46.0,0,420,7.0,0.0
220,74.0,0,900,1.0,0.0
221,70.0,480,900,2.0,0.0
222,62.0,0,900,2.0,0.0
223,62.0,0,900,4.0,0.0
224,70.0,0,900,4.0,0.0
225,34.0,0,420,8.0,0.0
226,65.0,0,900,6.0,0.0
227,70.0,0,900,5.0,0.0
228,62.0,0,900,5.0,0.0
229,41.0,0,420,8.0,0.0
230,53.0,0,420,3.0,0.0
231,53.0,0,420,7.0,0.0
232,58.0,0,420,7.0,0.0
233,46.0,0,420,8.0,0.0
234,58.0,480,420,3.0,0.0
235,70.0,0,900,1.0,0.0
236,46.0,0,420,8.0,0.0
237,58.0,0,420,7.0,0.0
238,70.0,0,900,2.0,0.0
239,62.0,480,420,6.0,0.0
240,65.0,0,900,5.0,0.0
241,58.0,0,420,3.0,0.0
242,70.0,0,900,4.0,0.0
243,62.0,0,900,4.0,0.0
244,62.0,267,900,2.0,0.0
245,50.0,0,420,8.0,0.0
246,62.0,0,420,3.0,0.0
247,62.0,0,420,7.0,0.0
248,70.0,0,420,6.0,0.0
249,72.0,0,210,4.0,0.0
250,58.0,27,420,3.0,0.0
251,63.0,0,210,5.0,0.0
252,46.0,0,420,8.0,0.0
253,69.0,213,210,6.0,0.0
254,72.0,0,210,1.0,0.0
255,69.0,0,210,1.0,0.0
256,58.0,0,420,7.0,0.0
257,62.0,0,210,5.0,0.0
258,70.0,240,210,1.0,0.0
259,74.0,0,210,4.0,0.0
260,70.0,0,210,6.0,0.0
261,74.0,0,210,1.0,0.0
262,67.0,0,420,5.0,0.0
263,48.0,27,420,8.0,0.0
264,60.0,0,420,7.0,0.0
265,67.0,480,900,6.0,0.0
266,77.0,213,210,4.0,0.0
267,77.0,0,210,1.0,0.0
268,67.0,0,450,1.0,0.0
269,60.0,0,420,3.0,0.0
270,75.0,453,210,4.0,0.0
271,75.0,0,210,1.0,0.0
272,75.0,0,900,1.0,0.0
273,58.0,0,420,5.0,0.0
274,55.0,0,420,3.0,0.0
275,58.0,0,420,2.0,0.0
276,70.0,0,420,1.0,0.0
277,75.0,267,900,4.0,0.0
278,70.0,0,420,2.0,0.0
279,55.0,0,420,7.0,0.0
280,43.0,0,420,8.0,0.0
281,57.0,0,420,3.0,0.0
282,72.0,0,420,1.0,0.0
283,60.0,0,420,5.0,0.0
284,45.0,0,420,8.0,0.0
285,57.0,0,420,7.0,0.0
286,65.0,0,420,2.0,0.0
287,72.0,0,420,2.0,0.0
288,65.0,0,420,6.0,0.0
289,74.0,0,900,2.0,0.0
290,58.0,0,420,3.0,0.0
291,70.0,0,450,1.0,0.0
292,74.0,0,210,1.0,0.0
293,58.0,27,420,7.0,0.0
294,70.0,0,900,2.0,0.0
295,74.0,0,210,4.0,0.0
296,58.0,0,210,5.0,0.0
297,46.0,0,420,8.0,0.0
298,65.0,213,210,6.0,0.0
299,62.0,0,210,6.0,0.0
300,77.0,0,210,1.0,0.0
301,77.0,0,210,4.0,0.0
302,62.0,240,210,5.0,0.0
303,74.0,0,420,1.0,0.0
304,82.0,0,420,1.0,0.0
305,55.0,0,420,3.0,0.0
306,62.0,0,210,5.0,0.0
307,43.0,0,420,8.0,0.0
308,55.0,27,420,7.0,0.0
309,65.0,0,210,6.0,0.0
310,70.0,213,210,4.0,0.0
311,70.0,240,210,5.0,0.0
312,58.0,0,210,6.0,0.0
313,74.0,0,210,4.0,0.0
314,67.0,0,210,4.0,0.0
315,51.0,0,420,3.0,0.0
316,39.0,27,420,8.0,0.0
317,63.0,0,210,6.0,0.0
318,79.0,213,210,1.0,0.0
319,67.0,0,210,5.0,0.0
320,51.0,0,420,7.0,0.0
321,72.0,0,420,2.0,0.0
322,75.0,0,420,2.0,0.0
323,63.0,0,210,5.0,0.0
324,75.0,0,210,1.0,0.0
325,84.0,240,210,1.0,0.0
326,60.0,0,210,6.0,0.0
327,72.0,0,210,4.0,0.0
328,82.0,0,210,1.0,0.0
329,41.0,27,420,8.0,0.0
330,53.0,0,420,3.0,0.0
331,53.0,0,420,6.0,0.0
332,62.0,0,210,5.0,0.0
333,53.0,0,420,7.0,0.0
334,65.0,0,2340,2.0,0.0
335,70.0,213,210,4.0,0.0
336,74.0,0,210,1.0,0.0
337,81.0,240,210,1.0,0.0
338,69.0,0,210,4.0,0.0
339,72.0,0,210,1.0,0.0
340,60.0,0,210,5.0,0.0
341,79.0,0,210,1.0,0.0
342,58.0,0,210,5.0,0.0
343,70.0,0,210,1.0,0.0
344,67.0,213,210,4.0,0.0
345,41.0,0,420,8.0,0.0
346,65.0,0,420,6.0,0.0
347,53.0,27,420,3.0,0.0
348,53.0,0,420,7.0,0.0
349,57.0,240,210,5.0,0.0
350,65.0,0,210,4.0,0.0
351,77.0,0,210,1.0,0.0
352,69.0,0,210,1.0,0.0
353,65.0,27,420,6.0,0.0
354,67.0,0,210,4.0,0.0
355,70.0,0,210,1.0,0.0
356,39.0,0,420,8.0,0.0
357,51.0,0,420,3.0,0.0
358,51.0,0,420,7.0,0.0
359,58.0,213,210,5.0,0.0
360,79.0,0,210,1.0,0.0
361,69.0,0,210,4.0,0.0
362,81.0,0,210,1.0,0.0
363,60.0,453,210,5.0,0.0
364,72.0,0,210,1.0,0.0
365,74.0,0,420,1.0,0.0
366,62.0,0,900,4.0,0.0
367,70.0,0,900,4.0,0.0
368,65.0,480,420,6.0,0.0
369,50.0,0,420,7.0,0.0
370,62.0,0,420,5.0,0.0
371,38.0,0,420,8.0,0.0
372,50.0,0,420,3.0,0.0
373,58.0,0,900,2.0,0.0
374,82.0,0,420,1.0,0.0
375,65.0,0,420,5.0,0.0
376,50.0,0,420,8.0,0.0
377,70.0,267,420,1.0,0.0
378,62.0,0,420,3.0,0.0
379,62.0,0,420,7.0,0.0
380,70.0,0,420,6.0,0.0
381,63.0,0,210,5.0,0.0
382,69.0,0,210,1.0,0.0
383,58.0,0,420,3.0,0.0
384,69.0,213,210,6.0,0.0
385,58.0,0,420,7.0,0.0
386,46.0,27,420,8.0,0.0
387,72.0,0,210,1.0,0.0
388,72.0,0,210,4.0,0.0
389,70.0,0,210,1.0,0.0
390,74.0,240,210,4.0,0.0
391,70.0,0,210,6.0,0.0
392,74.0,0,210,1.0,0.0
393,62.0,0,210,5.0,0.0
394,77.0,0,210,4.0,0.0
395,60.0,0,420,3.0,0.0
396,48.0,0,420,8.0,0.0
397,60.0,0,420,7.0,0.0
398,67.0,0,450,1.0,0.0
399,77.0,213,210,1.0,0.0
400,67.0,0,900,6.0,0.0
401,67.0,27,420,5.0,0.0
402,75.0,453,210,4.0,0.0
403,75.0,0,210,1.0,0.0
404,58.0,0,420,5.0,0.0
405,70.0,480,420,1.0,0.0
406,58.0,0,420,2.0,0.0
407,55.0,0,420,7.0,0.0
408,55.0,0,420,3.0,0.0
409,70.0,0,420,2.0,0.0
410,75.0,0,900,1.0,0.0
411,43.0,0,420,8.0,0.0
412,75.0,0,900,4.0,0.0
413,45.0,0,420,8.0,0.0
414,72.0,0,420,2.0,0.0
415,65.0,0,420,2.0,0.0
416,60.0,0,420,5.0,0.0
417,57.0,0,420,3.0,0.0
418,57.0,0,420,7.0,0.0
419,65.0,370,420,6.0,0.0
420,72.0,0,420,1.0,0.0
421,74.0,0,300,1.0,0.0
422,65.0,0,420,5.0,0.0
423,58.0,42,420,7.0,0.0
424,46.0,0,420,8.0,0.0
425,58.0,0,420,3.0,0.0
426,74.0,100,300,4.0,0.0
427,65.0,0,420,6.0,0.0
428,74.0,0,900,2.0,0.0
429,70.0,0,900,2.0,0.0
430,70.0,8,450,1.0,0.0
431,77.0,0,90,1.0,0.0
432,75.0,10,60,4.0,0.0
433,77.0,430,60,4.0,0.0
434,53.0,0,420,7.0,0.0
435,62.0,0,420,5.0,0.0
436,41.0,0,420,8.0,0.0
437,82.0,0,420,1.0,0.0
438,74.0,0,420,1.0,0.0
439,65.0,0,420,6.0,0.0
440,70.0,480,420,4.0,0.0
441,53.0,0,420,3.0,0.0
442,41.0,0,420,7.0,0.0
443,65.0,0,420,2.0,0.0
444,72.0,0,420,2.0,0.0
445,72.0,0,420,1.0,0.0
446,29.0,0,420,8.0,0.0
447,60.0,0,420,5.0,0.0
448,65.0,0,420,6.0,0.0
449,41.0,0,420,3.0,0.0
450,69.0,0,420,4.0,0.0
451,81.0,480,420,1.0,0.0
452,70.0,0,900,5.0,0.0
453,82.0,0,900,1.0,0.0
454,74.0,0,900,1.0,0.0
455,62.0,480,900,5.0,0.0
456,46.0,0,420,3.0,0.0
457,70.0,0,900,4.0,0.0
458,46.0,0,420,7.0,0.0
459,65.0,0,900,6.0,0.0
460,70.0,0,900,2.0,0.0
461,34.0,480,420,8.0,0.0
462,62.0,0,900,2.0,0.0
463,62.0,0,900,4.0,0.0
464,41.0,0,420,8.0,0.0
465,53.0,0,420,7.0,0.0
466,53.0,0,420,3.0,0.0
467,58.0,0,420,3.0,0.0
468,58.0,0,420,7.0,0.0
469,46.0,480,420,8.0,0.0
470,60.0,0,900,6.0,0.0
471,57.0,0,900,5.0,0.0
472,53.0,0,420,7.0,0.0
473,53.0,0,1860,2.0,0.0
474,72.0,0,900,4.0,0.0
475,53.0,480,420,3.0,0.0
476,41.0,0,420,8.0,0.0
477,65.0,27,1860,2.0,0.0
478,41.0,267,420,8.0,0.0
479,53.0,0,420,7.0,0.0
480,53.0,0,420,3.0,0.0
481,74.0,0,210,4.0,0.0
482,41.0,0,420,8.0,0.0
483,58.0,0,210,5.0,0.0
484,53.0,0,420,7.0,0.0
485,62.0,213,210,6.0,0.0
486,53.0,27,420,3.0,0.0
487,55.0,0,210,5.0,0.0
488,70.0,240,210,4.0,0.0
489,58.0,0,210,6.0,0.0
490,53.0,0,420,7.0,0.0
491,59.0,0,210,5.0,0.0
492,62.0,0,210,6.0,0.0
493,74.0,213,210,4.0,0.0
494,53.0,0,420,3.0,0.0
495,41.0,0,420,8.0,0.0
496,60.0,0,210,5.0,0.0
497,63.0,240,210,6.0,0.0
498,75.0,0,210,4.0,0.0
499,53.0,0,420,7.0,0.0
500,60.0,0,900,5.0,0.0
501,53.0,0,420,3.0,0.0
502,63.0,0,900,6.0,0.0
503,65.0,27,420,2.0,0.0
504,53.0,0,420,2.0,0.0
505,75.0,0,900,4.0,0.0
506,75.0,0,210,1.0,0.0
507,72.0,213,210,1.0,0.0
508,41.0,0,420,8.0,0.0
509,69.0,240,210,1.0,0.0
510,72.0,0,210,1.0,0.0
511,75.0,0,210,1.0,0.0
512,53.0,0,420,7.0,0.0
513,53.0,0,420,3.0,0.0
514,41.0,0,420,8.0,0.0
515,53.0,0,420,2.0,0.0
516,65.0,27,420,2.0,0.0
517,72.0,213,210,1.0,0.0
518,69.0,453,210,1.0,0.0
519,72.0,0,210,1.0,0.0
520,62.0,0,900,6.0,0.0
521,58.0,0,900,5.0,0.0
522,74.0,0,900,4.0,0.0
523,65.0,0,1860,2.0,0.0
524,58.0,0,420,3.0,0.0
525,46.0,480,420,8.0,0.0
526,58.0,0,1860,2.0,0.0
527,58.0,0,420,7.0,0.0
528,58.0,267,420,7.0,0.0
529,58.0,0,420,3.0,0.0
530,46.0,0,420,8.0,0.0
531,75.0,213,210,4.0,0.0
532,63.0,0,210,6.0,0.0
533,60.0,0,210,5.0,0.0
534,58.0,0,420,7.0,0.0
535,46.0,27,420,8.0,0.0
536,58.0,0,420,3.0,0.0
537,72.0,240,210,4.0,0.0
538,60.0,0,210,6.0,0.0
539,57.0,0,210,5.0,0.0
540,76.0,213,210,4.0,0.0
541,58.0,0,420,7.0,0.0
542,58.0,27,420,3.0,0.0
543,46.0,0,420,8.0,0.0
544,64.0,0,210,6.0,0.0
545,61.0,0,210,5.0,0.0
546,65.0,0,210,6.0,0.0
547,62.0,240,210,5.0,0.0
548,77.0,0,210,4.0,0.0
549,77.0,0,900,4.0,0.0
550,62.0,0,900,5.0,0.0
551,58.0,27,420,3.0,0.0
552,58.0,0,420,2.0,0.0
553,65.0,0,420,2.0,0.0
554,65.0,0,900,6.0,0.0
555,58.0,0,420,7.0,0.0
556,74.0,0,210,1.0,0.0
557,46.0,0,420,8.0,0.0
558,77.0,213,210,1.0,0.0
559,70.0,240,210,1.0,0.0
560,74.0,0,210,1.0,0.0
561,58.0,0,420,2.0,0.0
562,74.0,0,210,1.0,0.0
563,46.0,0,420,8.0,0.0
564,77.0,213,210,1.0,0.0
565,65.0,0,420,2.0,0.0
566,58.0,0,420,3.0,0.0
567,58.0,27,420,7.0,0.0
568,74.0,0,210,1.0,0.0
569,70.0,453,210,1.0,0.0
570,65.0,0,900,5.0,0.0
571,70.0,0,900,1.0,0.0
572,62.0,0,900,4.0,0.0
573,58.0,0,420,7.0,0.0
574,46.0,0,420,8.0,0.0
575,70.0,0,900,4.0,0.0
576,62.0,0,420,6.0,0.0
577,62.0,0,900,2.0,0.0
578,58.0,480,420,3.0,0.0
579,70.0,0,900,2.0,0.0
580,62.0,0,420,7.0,0.0
581,62.0,0,420,3.0,0.0
582,50.0,0,420,8.0,0.0
583,70.0,267,420,6.0,0.0
584,58.0,0,420,3.0,0.0
585,69.0,0,210,6.0,0.0
586,72.0,213,210,4.0,0.0
587,63.0,0,210,5.0,0.0
588,46.0,27,420,8.0,0.0
589,58.0,0,420,7.0,0.0
590,72.0,0,210,1.0,0.0
591,69.0,0,210,1.0,0.0
592,70.0,0,210,1.0,0.0
593,74.0,0,210,1.0,0.0
594,62.0,0,210,5.0,0.0
595,70.0,0,210,6.0,0.0
596,74.0,240,210,4.0,0.0
597,67.0,0,420,5.0,0.0
598,60.0,0,420,3.0,0.0
599,77.0,213,210,4.0,0.0
600,48.0,27,420,8.0,0.0
601,60.0,0,420,7.0,0.0
602,67.0,0,450,1.0,0.0
603,77.0,0,210,1.0,0.0
604,67.0,0,900,6.0,0.0
605,75.0,453,210,1.0,0.0
606,75.0,0,210,4.0,0.0
607,58.0,0,420,5.0,0.0
608,75.0,0,900,4.0,0.0
609,58.0,0,420,2.0,0.0
610,70.0,0,420,2.0,0.0
611,70.0,480,420,1.0,0.0
612,75.0,0,900,1.0,0.0
613,55.0,0,420,3.0,0.0
614,55.0,0,420,7.0,0.0
615,43.0,0,420,8.0,0.0
616,60.0,0,420,5.0,0.0
617,72.0,0,420,1.0,0.0
618,72.0,0,420,2.0,0.0
619,57.0,0,420,3.0,0.0
620,57.0,0,420,7.0,0.0
621,45.0,0,420,8.0,0.0
622,65.0,267,420,6.0,0.0
623,65.0,0,420,2.0,0.0
624,58.0,27,420,7.0,0.0
625,74.0,0,210,4.0,0.0
626,65.0,213,210,6.0,0.0
627,46.0,0,420,8.0,0.0
628,70.0,0,450,1.0,0.0
629,74.0,0,210,1.0,0.0
630,74.0,0,900,2.0,0.0
631,58.0,0,420,3.0,0.0
632,58.0,0,210,5.0,0.0
633,70.0,0,900,2.0,0.0
634,77.0,0,210,1.0,0.0
635,62.0,240,210,5.0,0.0
636,77.0,0,210,4.0,0.0
637,62.0,0,210,6.0,0.0
638,62.0,0,210,5.0,0.0
639,55.0,0,420,3.0,0.0
640,55.0,0,420,7.0,0.0
641,67.0,0,210,6.0,0.0
642,70.0,213,210,4.0,0.0
643,43.0,27,420,8.0,0.0
644,82.0,0,420,1.0,0.0
645,74.0,0,420,1.0,0.0
646,74.0,0,210,4.0,0.0
647,58.0,0,210,6.0,0.0
648,70.0,240,210,5.0,0.0
649,67.0,0,210,5.0,0.0
650,51.0,0,420,3.0,0.0
651,39.0,27,420,8.0,0.0
652,75.0,0,420,2.0,0.0
653,79.0,0,210,1.0,0.0
654,63.0,0,210,6.0,0.0
655,51.0,0,420,7.0,0.0
656,67.0,213,210,4.0,0.0
657,72.0,0,420,2.0,0.0
658,72.0,0,210,4.0,0.0
659,84.0,0,210,1.0,0.0
660,75.0,240,210,1.0,0.0
661,63.0,0,210,5.0,0.0
662,60.0,0,210,6.0,0.0
663,53.0,0,420,7.0,0.0
664,41.0,27,420,8.0,0.0
665,70.0,0,210,4.0,0.0
666,62.0,0,210,5.0,0.0
667,53.0,0,420,3.0,0.0
668,65.0,0,2340,2.0,0.0
669,74.0,0,210,1.0,0.0
670,53.0,0,420,6.0,0.0
671,82.0,213,210,1.0,0.0
672,81.0,240,210,1.0,0.0
673,60.0,0,210,5.0,0.0
674,72.0,0,210,1.0,0.0
675,69.0,0,210,4.0,0.0
676,67.0,0,210,4.0,0.0
677,53.0,0,420,7.0,0.0
678,58.0,0,210,5.0,0.0
679,53.0,27,420,3.0,0.0
680,65.0,0,420,6.0,0.0
681,41.0,0,420,8.0,0.0
682,70.0,213,210,1.0,0.0
683,79.0,0,210,1.0,0.0
684,57.0,0,210,5.0,0.0
685,77.0,0,210,1.0,0.0
686,65.0,240,210,4.0,0.0
687,69.0,0,210,1.0,0.0
688,65.0,0,420,6.0,0.0
689,51.0,27,420,3.0,0.0
690,58.0,0,210,5.0,0.0
691,70.0,0,210,1.0,0.0
692,79.0,0,210,1.0,0.0
693,51.0,0,420,7.0,0.0
694,39.0,0,420,8.0,0.0
695,67.0,213,210,4.0,0.0
696,72.0,0,210,1.0,0.0
697,60.0,0,210,5.0,0.0
698,81.0,453,210,1.0,0.0
699,69.0,0,210,4.0,0.0
700,62.0,0,900,4.0,0.0
701,70.0,0,900,4.0,0.0
702,62.0,0,420,5.0,0.0
703,82.0,0,420,1.0,0.0
704,50.0,0,420,3.0,0.0
705,74.0,0,420,1.0,0.0
706,58.0,0,900,2.0,0.0
707,65.0,480,420,6.0,0.0
708,38.0,0,420,8.0,0.0
709,50.0,0,420,7.0,0.0
710,62.0,0,420,3.0,0.0
711,62.0,267,420,7.0,0.0
712,70.0,0,420,1.0,0.0
713,70.0,0,420,6.0,0.0
714,50.0,0,420,8.0,0.0
715,65.0,0,420,5.0,0.0
716,58.0,0,420,3.0,0.0
717,69.0,0,210,6.0,0.0
718,63.0,0,210,5.0,0.0
719,69.0,0,210,1.0,0.0
720,72.0,213,210,4.0,0.0
721,58.0,0,420,7.0,0.0
722,46.0,27,420,8.0,0.0
723,72.0,0,210,1.0,0.0
724,74.0,0,210,4.0,0.0
725,62.0,0,210,5.0,0.0
726,74.0,0,210,1.0,0.0
727,70.0,240,210,1.0,0.0
728,70.0,0,210,6.0,0.0
729,48.0,27,420,8.0,0.0
730,67.0,0,420,5.0,0.0
731,67.0,0,450,1.0,0.0
732,60.0,0,420,3.0,0.0
733,77.0,0,210,1.0,0.0
734,67.0,0,900,6.0,0.0
735,60.0,0,420,7.0,0.0
736,77.0,213,210,4.0,0.0
737,75.0,0,210,1.0,0.0
738,75.0,453,210,4.0,0.0
739,70.0,0,420,2.0,0.0
740,58.0,0,420,2.0,0.0
741,55.0,0,420,3.0,0.0
742,43.0,480,420,8.0,0.0
743,58.0,0,420,5.0,0.0
744,55.0,0,420,7.0,0.0
745,75.0,370,900,4.0,0.0
746,70.0,0,420,1.0,0.0
747,75.0,0,900,1.0,0.0
748,57.0,0,420,7.0,0.0
749,72.0,0,420,1.0,0.0
750,65.0,0,420,6.0,0.0
751,65.0,0,420,2.0,0.0
752,60.0,0,420,5.0,0.0
753,72.0,0,420,2.0,0.0
754,45.0,0,420,8.0,0.0
755,57.0,0,420,3.0,0.0
756,65.0,0,420,5.0,0.0
757,74.0,0,300,4.0,0.0
758,46.0,42,420,8.0,0.0
759,58.0,0,420,7.0,0.0
760,58.0,0,420,3.0,0.0
761,65.0,0,420,6.0,0.0
762,70.0,0,450,1.0,0.0
763,74.0,100,300,1.0,0.0
764,74.0,0,900,2.0,0.0
765,70.0,0,900,2.0,0.0
766,77.0,8,90,1.0,0.0
767,75.0,10,60,4.0,0.0
768,77.0,430,60,4.0,0.0
769,65.0,0,420,6.0,0.0
770,82.0,0,420,1.0,0.0
771,62.0,0,420,5.0,0.0
772,74.0,0,420,1.0,0.0
773,53.0,480,420,3.0,0.0
774,53.0,0,420,7.0,0.0
775,70.0,0,420,4.0,0.0
776,41.0,0,420,8.0,0.0
777,72.0,0,420,1.0,0.0
778,29.0,480,420,8.0,0.0
779,41.0,0,420,3.0,0.0
780,41.0,0,420,7.0,0.0
781,60.0,0,420,5.0,0.0
782,72.0,0,420,2.0,0.0
783,81.0,0,420,1.0,0.0
784,69.0,0,420,4.0,0.0
785,65.0,0,420,2.0,0.0
786,65.0,0,420,6.0,0.0
787,70.0,0,900,2.0,0.0
788,65.0,0,900,6.0,0.0
789,62.0,0,900,4.0,0.0
790,70.0,0,900,4.0,0.0
791,70.0,0,900,5.0,0.0
792,62.0,0,900,5.0,0.0
793,34.0,0,420,8.0,0.0
794,46.0,480,420,7.0,0.0
795,74.0,0,900,1.0,0.0
796,62.0,0,900,2.0,0.0
797,46.0,0,420,3.0,0.0
798,82.0,480,900,1.0,0.0
799,38.0,0,420,8.0,0.0
800,50.0,0,420,3.0,0.0
801,50.0,0,420,7.0,0.0
802,41.0,140,420,8.0,0.0
803,53.0,0,420,3.0,0.0
804,53.0,0,420,7.0,0.0
805,58.0,160,90,0.0,0.0
806,62.0,140,420,5.0,0.0
807,65.0,0,420,4.0,0.0
808,58.0,0,420,7.0,0.0
809,58.0,100,1380,6.0,0.0
810,46.0,0,420,8.0,0.0
811,53.0,160,90,0.0,0.0
812,50.0,20,90,0.0,0.0
813,70.0,0,300,5.0,0.0
814,62.0,42,420,7.0,0.0
815,77.0,90,300,4.0,0.0
816,46.0,160,90,0.0,0.0
817,50.0,0,420,8.0,0.0
818,50.0,70,90,0.0,0.0
819,53.0,20,90,0.0,0.0
820,74.0,98,90,4.0,0.0
821,65.0,0,90,5.0,0.0
822,77.0,0,420,4.0,0.0
823,46.0,0,420,8.0,0.0
824,58.0,0,420,7.0,0.0
825,58.0,160,90,0.0,0.0
826,74.0,0,420,5.0,0.0
827,62.0,180,90,0.0,0.0
828,65.0,40,210,0.0,0.0
829,48.0,0,420,8.0,0.0
830,60.0,0,1380,6.0,0.0
831,57.0,140,420,5.0,0.0
832,63.0,160,90,0.0,0.0
833,60.0,0,420,7.0,0.0
834,63.0,0,420,4.0,0.0
835,60.0,160,90,0.0,0.0
836,58.0,20,90,0.0,0.0
837,75.0,0,300,4.0,0.0
838,53.0,42,420,7.0,0.0
839,57.0,160,90,0.0,0.0
840,72.0,110,300,5.0,0.0
841,41.0,0,420,8.0,0.0
842,60.0,70,90,0.0,0.0
843,55.0,40,210,0.0,0.0
844,72.0,0,90,4.0,0.0
845,69.0,58,90,5.0,0.0
846,65.0,0,420,5.0,0.0
847,53.0,160,90,0.0,0.0
848,57.0,0,420,7.0,0.0
849,75.0,0,420,4.0,0.0
850,45.0,100,420,8.0,0.0
851,60.0,180,90,0.0,0.0
852,51.0,40,210,0.0,0.0
853,74.0,0,420,4.0,0.0
854,65.0,140,420,5.0,0.0
855,50.0,160,90,0.0,0.0
856,46.0,0,420,8.0,0.0
857,62.0,0,420,6.0,0.0
858,58.0,0,420,7.0,0.0
859,58.0,160,90,0.0,0.0
860,57.0,20,90,0.0,0.0
861,55.0,160,90,0.0,0.0
862,39.0,0,420,8.0,0.0
863,60.0,0,420,6.0,0.0
864,51.0,0,420,7.0,0.0
865,79.0,0,420,4.0,0.0
866,70.0,140,420,5.0,0.0
867,63.0,160,90,0.0,0.0
868,62.0,20,90,0.0,0.0
869,60.0,160,90,0.0,0.0
870,52.0,0,420,7.0,0.0
871,60.0,0,420,6.0,0.0
872,67.0,0,420,5.0,0.0
873,70.0,0,420,4.0,0.0
874,40.0,200,420,8.0,0.0
875,62.0,160,90,0.0,0.0
876,55.0,20,90,0.0,0.0
877,69.0,42,150,4.0,0.0
878,65.0,37,420,5.0,0.0
879,57.0,58,180,0.0,0.0
880,53.0,0,420,7.0,0.0
881,60.0,0,420,6.0,0.0
882,41.0,0,420,8.0,0.0
883,70.0,101,150,4.0,0.0
884,58.0,59,90,0.0,0.0
885,72.0,103,150,4.0,0.0
886,60.0,20,90,0.0,0.0
887,62.0,0,150,5.0,0.0
888,58.0,60,90,0.0,0.0
889,70.0,100,150,4.0,0.0
890,60.0,101,150,5.0,0.0
891,69.0,0,150,4.0,0.0
892,57.0,59,90,0.0,0.0
893,67.0,0,150,4.0,0.0
894,58.0,163,150,5.0,0.0
895,55.0,57,90,0.0,0.0
896,51.0,159,150,7.0,0.0
897,57.0,0,150,5.0,0.0
898,65.0,37,420,4.0,0.0
899,39.0,0,150,8.0,0.0
900,53.0,118,300,0.0,0.0
901,38.0,0,150,8.0,0.0
902,58.0,0,150,5.0,0.0
903,50.0,3,150,7.0,0.0
904,60.0,0,150,5.0,0.0
905,48.0,0,150,7.0,0.0
906,36.0,103,150,8.0,0.0
907,65.0,140,420,4.0,0.0
908,58.0,160,90,0.0,0.0
909,62.0,0,420,5.0,0.0
910,58.0,0,1380,6.0,0.0
911,46.0,0,420,7.0,0.0
912,34.0,0,420,8.0,0.0
913,53.0,160,90,0.0,0.0
914,50.0,20,90,0.0,0.0
915,50.0,0,420,8.0,0.0
916,46.0,160,90,0.0,0.0
917,62.0,42,420,7.0,0.0
918,70.0,0,300,5.0,0.0
919,77.0,90,300,4.0,0.0
920,50.0,70,90,0.0,0.0
921,53.0,20,90,0.0,0.0
922,65.0,98,90,5.0,0.0
923,74.0,0,90,4.0,0.0
924,77.0,100,420,4.0,0.0
925,46.0,0,420,8.0,0.0
926,58.0,0,420,7.0,0.0
927,58.0,160,90,0.0,0.0
928,74.0,0,420,5.0,0.0
929,62.0,180,90,0.0,0.0
930,65.0,40,210,0.0,0.0
931,57.0,0,420,5.0,0.0
932,60.0,0,1380,6.0,0.0
933,48.0,0,420,8.0,0.0
934,63.0,160,90,0.0,0.0
935,63.0,0,420,4.0,0.0
936,60.0,140,420,7.0,0.0
937,60.0,160,90,0.0,0.0
938,58.0,20,90,0.0,0.0
939,75.0,0,300,4.0,0.0
940,41.0,42,420,8.0,0.0
941,72.0,110,300,5.0,0.0
942,53.0,0,420,7.0,0.0
943,57.0,160,90,0.0,0.0
944,60.0,70,90,0.0,0.0
945,55.0,48,180,0.0,0.0
946,72.0,0,90,4.0,0.0
947,69.0,50,90,5.0,0.0
948,75.0,0,420,4.0,0.0
949,53.0,160,90,0.0,0.0
950,45.0,72,420,8.0,0.0
951,65.0,0,900,5.0,0.0
952,57.0,0,420,7.0,0.0
953,60.0,180,90,0.0,0.0
954,51.0,68,180,0.0,0.0
955,58.0,0,420,7.0,0.0
956,46.0,0,420,8.0,0.0
957,50.0,160,90,0.0,0.0
958,62.0,110,420,6.0,0.0
959,74.0,0,420,4.0,0.0
960,58.0,160,90,0.0,0.0
961,53.0,20,90,0.0,0.0
962,74.0,60,60,4.0,0.0
963,67.0,0,420,5.0,0.0
964,39.0,0,420,8.0,0.0
965,51.0,45,420,7.0,0.0
966,63.0,0,900,6.0,0.0
967,62.0,15,150,0.0,0.0
968,72.0,45,60,4.0,0.0
969,74.0,49,60,4.0,0.0
970,60.0,11,90,0.0,0.0
971,72.0,57,60,4.0,0.0
972,62.0,3,90,0.0,0.0
973,74.0,55,60,4.0,0.0
974,60.0,5,90,0.0,0.0
975,72.0,57,60,4.0,0.0
976,62.0,3,90,0.0,0.0
977,74.0,10,60,4.0,0.0
978,60.0,5,90,0.0,0.0
979,72.0,49,60,4.0,0.0
980,62.0,11,90,0.0,0.0
981,69.0,0,420,5.0,0.0
982,53.0,7,420,7.0,0.0
983,41.0,0,420,8.0,0.0
984,74.0,42,60,4.0,0.0
985,60.0,18,90,0.0,0.0
986,72.0,37,60,4.0,0.0
987,62.0,23,90,0.0,0.0
988,60.0,40,90,0.0,0.0
989,74.0,19,60,4.0,0.0
990,62.0,1,90,0.0,0.0
991,72.0,60,60,4.0,0.0
992,60.0,0,90,0.0,0.0
993,74.0,35,60,4.0,0.0
994,62.0,25,90,0.0,0.0
995,60.0,46,60,0.0,0.0
996,72.0,14,60,4.0,0.0
997,58.0,43,90,0.0,0.0
998,70.0,10,60,4.0,0.0
999,60.0,128,90,0.0,0.0
1000,72.0,22,60,4.0,0.0
1001,70.0,0,150,4.0,0.0
1002,58.0,70,540,0.0,0.0
1003,62.0,0,150,6.0,0.0
1004,70.0,0,150,5.0,0.0
1005,58.0,0,150,7.0,0.0
1006,46.0,159,150,8.0,0.0
1007,41.0,0,150,8.0,0.0
1008,65.0,158,150,4.0,0.0
1009,65.0,0,150,6.0,0.0
1010,65.0,0,150,5.0,0.0
1011,53.0,0,150,7.0,0.0
1012,51.0,0,150,7.0,0.0
1013,63.0,0,150,6.0,0.0
1014,39.0,0,150,8.0,0.0
1015,63.0,0,150,5.0,0.0
1016,63.0,93,150,4.0,0.0
1017,62.0,0,150,6.0,0.0
1018,38.0,0,150,8.0,0.0
1019,62.0,0,150,4.0,0.0
1020,62.0,0,150,5.0,0.0
1021,50.0,159,150,7.0,0.0
1022,63.0,0,150,6.0,0.0
1023,63.0,158,150,4.0,0.0
1024,39.0,0,150,8.0,0.0
1025,63.0,0,150,5.0,0.0
1026,51.0,0,150,7.0,0.0
1027,65.0,0,150,5.0,0.0
1028,65.0,0,150,4.0,0.0
1029,53.0,0,150,7.0,0.0
1030,65.0,443,150,6.0,0.0
1031,41.0,0,150,8.0,0.0
1032,58.0,215,420,5.0,0.0
1033,46.0,0,420,7.0,0.0
1034,58.0,0,420,4.0,0.0
1035,34.0,0,420,8.0,0.0
1036,58.0,0,420,6.0,0.0
1037,46.0,27,420,8.0,0.0
1038,58.0,0,420,6.0,0.0
1039,58.0,60,150,0.0,0.0
1040,58.0,0,420,7.0,0.0
1041,53.0,145,90,0.0,0.0
1042,55.0,60,120,0.0,0.0
1043,74.0,13,210,4.0,0.0
1044,65.0,0,210,5.0,0.0
1045,57.0,120,90,0.0,0.0
1046,58.0,107,90,0.0,0.0
1047,65.0,13,210,5.0,0.0
1048,74.0,0,210,4.0,0.0
1049,60.0,120,90,0.0,0.0
1050,62.0,107,90,0.0,0.0
1051,74.0,0,210,4.0,0.0
1052,65.0,13,210,5.0,0.0
1053,64.0,105,90,0.0,0.0
1054,77.0,135,210,4.0,0.0
1055,46.0,27,420,8.0,0.0
1056,58.0,0,420,7.0,0.0
1057,58.0,0,420,6.0,0.0
1058,65.0,122,90,0.0,0.0
1059,74.0,0,210,5.0,0.0
1060,65.0,308,210,5.0,0.0
1061,74.0,0,210,4.0,0.0
1062,65.0,78,90,0.0,0.0
1063,65.0,112,270,0.0,0.0
1064,45.0,0,420,8.0,0.0
1065,57.0,27,420,6.0,0.0
1066,57.0,0,420,7.0,0.0
1067,65.0,0,210,5.0,0.0
1068,72.0,240,210,4.0,0.0
1069,60.0,33,150,0.0,0.0
1070,60.0,125,780,0.0,0.0
1071,65.0,0,210,5.0,0.0
1072,72.0,240,210,4.0,0.0
1073,65.0,0,210,5.0,0.0
1074,72.0,240,210,4.0,0.0
1075,77.0,88,210,4.0,0.0
1076,72.0,0,210,5.0,0.0
1077,57.0,27,420,6.0,0.0
1078,57.0,0,420,7.0,0.0
1079,45.0,0,420,8.0,0.0
1080,72.0,188,210,4.0,0.0
1081,65.0,0,210,5.0,0.0
1082,60.0,27,1860,6.0,0.0
1083,55.0,27,420,7.0,0.0
1084,43.0,0,420,8.0,0.0
1085,58.0,85,150,0.0,0.0
1086,60.0,120,120,0.0,0.0
1087,70.0,33,210,4.0,0.0
1088,58.0,60,120,0.0,0.0
1089,64.0,0,210,5.0,0.0
1090,57.0,155,120,0.0,0.0
1091,70.0,33,210,4.0,0.0
1092,55.0,52,150,0.0,0.0
1093,64.0,0,210,5.0,0.0
1094,57.0,120,120,0.0,0.0
1095,55.0,87,120,0.0,0.0
1096,64.0,33,210,5.0,0.0
1097,70.0,0,210,4.0,0.0
1098,53.0,122,120,0.0,0.0
1099,52.0,0,420,7.0,0.0
1100,79.0,0,210,4.0,0.0
1101,52.0,85,120,0.0,0.0
1102,40.0,27,420,8.0,0.0
1103,70.0,150,210,5.0,0.0
1104,58.0,63,120,0.0,0.0
1105,67.0,153,210,5.0,0.0
1106,70.0,0,210,4.0,0.0
1107,53.0,0,420,7.0,0.0
1108,67.0,5,210,5.0,0.0
1109,70.0,0,210,4.0,0.0
1110,58.0,47,120,0.0,0.0
1111,41.0,0,420,8.0,0.0
1112,57.0,40,60,0.0,0.0
1113,58.0,58,60,0.0,0.0
1114,57.0,45,60,0.0,0.0
1115,65.0,33,210,5.0,0.0
1116,58.0,67,60,0.0,0.0
1117,69.0,0,210,4.0,0.0
1118,57.0,38,90,0.0,0.0
1119,55.0,0,60,0.0,0.0
1120,57.0,207,60,0.0,0.0
1121,60.0,0,210,6.0,0.0
1122,64.0,27,420,5.0,0.0
1123,48.0,0,210,8.0,0.0
1124,67.0,0,420,4.0,0.0
1125,60.0,213,210,7.0,0.0
1126,55.0,207,480,0.0,0.0
1127,58.0,0,210,7.0,0.0
1128,46.0,0,210,8.0,0.0
1129,62.0,33,210,6.0,0.0
1130,57.0,0,210,7.0,0.0
1131,45.0,0,210,8.0,0.0
1132,60.0,240,210,6.0,0.0
1133,64.0,135,210,6.0,0.0
1134,55.0,0,210,7.0,0.0
1135,43.0,0,210,8.0,0.0
1136,41.0,0,420,8.0,0.0
1137,60.0,15,2670,0.0,0.0
1138,53.0,0,420,7.0,0.0
1139,69.0,120,90,4.0,0.0
1140,65.0,42,420,6.0,0.0
1141,70.0,120,90,4.0,0.0
1142,72.0,78,90,4.0,0.0
1143,69.0,225,90,4.0,0.0
1144,77.0,213,210,4.0,0.0
1145,45.0,0,420,8.0,0.0
1146,60.0,0,420,5.0,0.0
1147,57.0,27,420,7.0,0.0
1148,77.0,83,210,4.0,0.0
1149,41.0,0,420,8.0,0.0
1150,53.0,0,420,7.0,0.0
1151,69.0,50,420,5.0,0.0
1152,79.0,60,60,4.0,0.0
1153,77.0,60,60,4.0,0.0
1154,79.0,60,60,4.0,0.0
1155,77.0,60,60,4.0,0.0
1156,79.0,60,60,4.0,0.0
1157,77.0,60,60,4.0,0.0
1158,76.0,10,60,4.0,0.0
1159,77.0,112,60,4.0,0.0
1160,55.0,0,420,7.0,0.0
1161,76.0,120,90,4.0,0.0
1162,43.0,42,420,8.0,0.0
1163,70.0,0,420,5.0,0.0
1164,77.0,120,90,4.0,0.0
1165,79.0,78,90,4.0,0.0
1166,76.0,225,90,4.0,0.0
1167,40.0,0,420,8.0,0.0
1168,52.0,0,420,7.0,0.0
1169,70.0,213,210,4.0,0.0
1170,55.0,27,420,5.0,0.0
1171,70.0,83,210,4.0,0.0
1172,72.0,60,60,4.0,0.0
1173,48.0,0,420,7.0,0.0
1174,64.0,50,420,5.0,0.0
1175,36.0,0,420,8.0,0.0
1176,70.0,60,60,4.0,0.0
1177,72.0,60,60,4.0,0.0
1178,70.0,45,60,4.0,0.0
1179,72.0,60,60,4.0,0.0
1180,70.0,60,60,4.0,0.0
1181,69.0,10,60,4.0,0.0
1182,70.0,112,60,4.0,0.0
1183,65.0,0,420,5.0,0.0
1184,69.0,117,90,4.0,0.0
1185,41.0,0,420,8.0,0.0
1186,84.0,0,2820,1.0,0.0
1187,53.0,15,420,7.0,0.0
1188,62.0,3,210,0.0,0.0
1189,70.0,118,90,4.0,0.0
1190,60.0,2,150,0.0,0.0
1191,72.0,78,90,4.0,0.0
1192,62.0,27,120,0.0,0.0
1193,69.0,73,90,4.0,0.0
1194,60.0,75,150,0.0,0.0
1195,77.0,0,210,4.0,0.0
1196,45.0,0,420,8.0,0.0
1197,60.0,0,420,5.0,0.0
1198,57.0,27,420,7.0,0.0
1199,62.0,77,120,0.0,0.0
1200,60.0,45,120,0.0,0.0
1201,62.0,57,90,0.0,0.0
1202,60.0,56,90,0.0,0.0
1203,77.0,18,210,4.0,0.0
1204,62.0,45,90,0.0,0.0
1205,60.0,10,90,0.0,0.0
1206,62.0,47,90,0.0,0.0
1207,60.0,18,90,0.0,0.0
1208,62.0,35,90,0.0,0.0
1209,79.0,25,60,4.0,0.0
1210,69.0,0,420,5.0,0.0
1211,53.0,0,420,7.0,0.0
1212,41.0,15,420,8.0,0.0
1213,60.0,45,90,0.0,0.0
1214,77.0,15,60,4.0,0.0
1215,62.0,52,90,0.0,0.0
1216,79.0,0,60,4.0,0.0
1217,60.0,8,90,0.0,0.0
1218,77.0,37,60,4.0,0.0
1219,62.0,23,90,0.0,0.0
1220,79.0,37,60,4.0,0.0
1221,60.0,23,90,0.0,0.0
1222,62.0,40,90,0.0,0.0
1223,77.0,20,60,4.0,0.0
1224,60.0,35,90,0.0,0.0
1225,76.0,10,60,4.0,0.0
1226,62.0,60,90,0.0,0.0
1227,77.0,5,60,4.0,0.0
1228,60.0,37,90,0.0,0.0
1229,76.0,53,90,4.0,0.0
1230,43.0,0,420,8.0,0.0
1231,55.0,0,420,7.0,0.0
1232,70.0,35,420,5.0,0.0
1233,62.0,10,90,0.0,0.0
1234,60.0,40,90,0.0,0.0
1235,62.0,27,90,0.0,0.0
1236,77.0,33,90,4.0,0.0
1237,60.0,35,90,0.0,0.0
1238,62.0,52,90,0.0,0.0
1239,79.0,13,90,4.0,0.0
1240,60.0,40,90,0.0,0.0
1241,62.0,25,90,0.0,0.0
1242,76.0,30,90,4.0,0.0
1243,60.0,7,90,0.0,0.0
1244,62.0,68,90,0.0,0.0
1245,40.0,0,420,8.0,0.0
1246,70.0,45,210,4.0,0.0
1247,52.0,0,420,7.0,0.0
1248,55.0,0,420,5.0,0.0
1249,60.0,52,90,0.0,0.0
1250,62.0,70,90,0.0,0.0
1251,60.0,5,90,0.0,0.0
1252,62.0,58,90,0.0,0.0
1253,60.0,60,90,0.0,0.0
1254,70.0,35,210,4.0,0.0
1255,62.0,50,90,0.0,0.0
1256,60.0,27,90,0.0,0.0
1257,62.0,48,90,0.0,0.0
1258,60.0,50,90,0.0,0.0
1259,64.0,0,420,5.0,0.0
1260,72.0,7,60,4.0,0.0
1261,48.0,0,420,7.0,0.0
1262,36.0,50,420,8.0,0.0
1263,62.0,3,90,0.0,0.0
1264,70.0,40,60,4.0,0.0
1265,60.0,20,90,0.0,0.0
1266,72.0,35,60,4.0,0.0
1267,62.0,25,90,0.0,0.0
1268,60.0,40,90,0.0,0.0
1269,70.0,20,60,4.0,0.0
1270,62.0,43,90,0.0,0.0
1271,72.0,17,60,4.0,0.0
1272,60.0,35,90,0.0,0.0
1273,70.0,25,60,4.0,0.0
1274,62.0,0,90,0.0,0.0
1275,69.0,10,60,4.0,0.0
1276,60.0,7,300,0.0,0.0
1277,70.0,210,60,4.0,0.0
1278,53.0,0,210,7.0,0.0
1279,65.0,123,210,5.0,0.0
1280,41.0,0,210,8.0,0.0
1281,69.0,0,210,4.0,0.0
1282,62.0,120,90,0.0,0.0
1283,64.0,182,90,0.0,0.0
1284,65.0,55,150,0.0,0.0
1285,72.0,3,210,4.0,0.0
1286,65.0,0,210,5.0,0.0
1287,45.0,0,210,8.0,0.0
1288,57.0,0,210,7.0,0.0
1289,64.0,120,90,0.0,0.0
1290,62.0,120,90,0.0,0.0
1291,60.0,120,90,0.0,0.0
1292,33.0,0,210,8.0,0.0
1293,45.0,3,210,7.0,0.0
1294,60.0,0,210,5.0,0.0
1295,58.0,117,90,0.0,0.0
1296,77.0,0,210,4.0,0.0
1297,57.0,120,90,0.0,0.0
1298,55.0,120,90,0.0,0.0
1299,53.0,197,90,0.0,0.0
1300,62.0,0,900,5.0,0.0
1301,34.0,0,1380,8.0,0.0
1302,67.0,30,420,4.0,0.0
1303,55.0,43,180,0.0,0.0
1304,58.0,30,900,6.0,0.0
1305,46.0,0,1380,7.0,0.0
1306,54.0,120,90,0.0,0.0
1307,55.0,90,90,0.0,0.0
1308,57.0,190,90,0.0,0.0
1309,70.0,0,420,4.0,0.0
1310,58.0,50,150,0.0,0.0
1311,57.0,120,90,0.0,0.0
1312,58.0,90,90,0.0,0.0
1313,60.0,235,90,0.0,0.0
1314,74.0,0,420,4.0,0.0
1315,62.0,215,210,0.0,0.0
1316,55.0,60,420,6.0,0.0
1317,64.0,0,420,5.0,0.0
1318,62.0,310,120,0.0,0.0
1319,45.0,105,300,7.0,0.0
1320,65.0,42,420,5.0,0.0
1321,57.0,0,300,6.0,0.0
1322,60.0,5,420,0.0,0.0
1323,33.0,0,300,8.0,0.0
1324,72.0,0,300,4.0,0.0
1325,74.0,0,90,4.0,0.0
1326,62.0,420,120,0.0,0.0
1327,34.0,0,90,8.0,0.0
1328,58.0,0,90,6.0,0.0
1329,46.0,18,90,7.0,0.0
1330,65.0,0,420,4.0,0.0
1331,60.0,0,900,6.0,0.0
1332,48.0,0,420,7.0,0.0
1333,57.0,0,420,5.0,0.0
1334,53.0,305,540,0.0,0.0
1335,36.0,122,420,8.0,0.0
1336,64.0,0,420,4.0,0.0
1337,52.0,53,360,0.0,0.0
1338,34.0,0,420,8.0,0.0
1339,46.0,0,420,7.0,0.0
1340,55.0,260,420,5.0,0.0
1341,60.0,20,420,6.0,0.0
1342,45.0,0,210,7.0,0.0
1343,60.0,7,210,0.0,0.0
1344,33.0,0,210,8.0,0.0
1345,72.0,0,210,4.0,0.0
1346,65.0,113,210,5.0,0.0
1347,62.0,100,90,0.0,0.0
1348,64.0,222,90,0.0,0.0
1349,45.0,0,210,8.0,0.0
1350,77.0,33,210,4.0,0.0
1351,72.0,0,210,5.0,0.0
1352,57.0,0,210,7.0,0.0
1353,65.0,25,180,0.0,0.0
1354,64.0,95,120,0.0,0.0
1355,62.0,120,90,0.0,0.0
1356,60.0,120,90,0.0,0.0
1357,58.0,112,90,0.0,0.0
1358,45.0,0,210,7.0,0.0
1359,33.0,0,210,8.0,0.0
1360,77.0,8,210,4.0,0.0
1361,60.0,0,210,5.0,0.0
1362,57.0,120,90,0.0,0.0
1363,55.0,120,90,0.0,0.0
1364,53.0,185,90,0.0,0.0
1365,62.0,35,420,5.0,0.0
1366,34.0,0,1380,8.0,0.0
1367,67.0,0,420,4.0,0.0
1368,55.0,55,150,0.0,0.0
1369,58.0,220,1380,6.0,0.0
1370,46.0,0,1380,7.0,0.0
1371,54.0,120,90,0.0,0.0
1372,55.0,85,90,0.0,0.0
1373,57.0,170,90,0.0,0.0
1374,70.0,35,420,4.0,0.0
1375,58.0,0,420,5.0,0.0
1376,58.0,70,150,0.0,0.0
1377,57.0,120,90,0.0,0.0
1378,58.0,85,90,0.0,0.0
1379,60.0,265,90,0.0,0.0
1380,74.0,0,420,4.0,0.0
1381,62.0,180,240,0.0,0.0
1382,55.0,0,420,5.0,0.0
1383,55.0,35,150,0.0,0.0
1384,54.0,120,60,0.0,0.0
1385,55.0,120,60,0.0,0.0
1386,57.0,190,60,0.0,0.0
1387,58.0,50,150,0.0,0.0
1388,57.0,120,60,0.0,0.0
1389,58.0,120,60,0.0,0.0
1390,60.0,230,60,0.0,0.0
1391,62.0,277,180,0.0,0.0
1392,34.0,0,90,8.0,0.0
1393,62.0,310,120,0.0,0.0
1394,55.0,18,90,6.0,0.0
1395,64.0,0,90,5.0,0.0
1396,74.0,0,90,4.0,0.0
1397,46.0,0,90,7.0,0.0
1398,60.0,60,360,0.0,0.0
1399,65.0,42,420,5.0,0.0
1400,57.0,0,300,6.0,0.0
1401,45.0,0,300,7.0,0.0
1402,72.0,0,300,4.0,0.0
1403,33.0,50,300,8.0,0.0
1404,62.0,420,120,0.0,0.0
1405,58.0,18,90,6.0,0.0
1406,46.0,0,90,7.0,0.0
1407,74.0,0,90,4.0,0.0
1408,34.0,0,90,8.0,0.0
1409,36.0,0,420,8.0,0.0
1410,60.0,0,420,6.0,0.0
1411,65.0,0,420,4.0,0.0
1412,53.0,380,480,0.0,0.0
1413,48.0,0,420,7.0,0.0
1414,57.0,60,420,5.0,0.0
1415,55.0,0,420,6.0,0.0
1416,48.0,0,420,7.0,0.0
1417,64.0,480,420,4.0,0.0
1418,36.0,0,420,8.0,0.0
1419,58.0,0,420,5.0,0.0
1420,52.0,40,390,0.0,0.0
1421,41.0,152,780,8.0,0.0
1422,55.0,105,420,6.0,0.0
1423,53.0,0,780,7.0,0.0
1424,58.0,0,420,5.0,0.0
1425,52.0,265,540,0.0,0.0
1426,64.0,0,420,4.0,0.0
1427,65.0,0,300,4.0,0.0
1428,53.0,50,480,0.0,0.0
1429,57.0,0,300,5.0,0.0
1430,53.0,0,300,6.0,0.0
1431,55.0,0,90,7.0,0.0
1432,67.0,0,90,4.0,0.0
1433,55.0,0,90,6.0,0.0
1434,43.0,18,90,8.0,0.0
1435,67.0,0,90,5.0,0.0
1436,45.0,0,60,8.0,0.0
1437,57.0,0,60,6.0,0.0
1438,69.0,0,60,5.0,0.0
1439,69.0,60,60,4.0,0.0
1440,57.0,0,60,7.0,0.0
1441,43.0,60,60,8.0,0.0
1442,55.0,0,60,6.0,0.0
1443,67.0,0,60,5.0,0.0
1444,67.0,0,60,4.0,0.0
1445,55.0,0,60,7.0,0.0
1446,69.0,0,60,4.0,0.0
1447,45.0,0,60,8.0,0.0
1448,57.0,0,60,6.0,0.0
1449,69.0,0,60,5.0,0.0
1450,57.0,60,60,7.0,0.0
1451,43.0,60,60,8.0,0.0
1452,67.0,0,60,4.0,0.0
1453,67.0,0,60,5.0,0.0
1454,55.0,0,60,6.0,0.0
1455,55.0,0,60,7.0,0.0
1456,57.0,0,60,7.0,0.0
1457,69.0,0,60,5.0,0.0
1458,57.0,0,60,6.0,0.0
1459,45.0,60,60,8.0,0.0
1460,69.0,0,60,4.0,0.0
1461,67.0,60,60,4.0,0.0
1462,55.0,0,60,6.0,0.0
1463,43.0,0,60,8.0,0.0
1464,67.0,0,60,5.0,0.0
1465,55.0,0,60,7.0,0.0
1466,65.0,0,60,5.0,0.0
1467,53.0,60,60,7.0,0.0
1468,65.0,0,60,4.0,0.0
1469,41.0,0,60,8.0,0.0
1470,53.0,0,60,6.0,0.0
1471,67.0,0,60,4.0,0.0
1472,55.0,0,60,6.0,0.0
1473,55.0,0,60,7.0,0.0
1474,43.0,0,60,8.0,0.0
1475,67.0,215,60,5.0,0.0
1476,56.0,0,420,6.0,0.0
1477,68.0,10,420,4.0,0.0
1478,44.0,0,420,8.0,0.0
1479,56.0,0,420,7.0,0.0
1480,68.0,0,420,5.0,0.0
1481,53.0,65,210,0.0,0.0
1482,65.0,150,120,0.0,0.0
1483,65.0,137,120,0.0,0.0
1484,65.0,160,90,0.0,0.0
1485,72.0,147,420,4.0,0.0
1486,67.0,160,90,0.0,0.0
1487,65.0,13,90,0.0,0.0
1488,56.0,0,420,7.0,0.0
1489,77.0,0,900,4.0,0.0
1490,63.0,160,90,0.0,0.0
1491,44.0,0,420,8.0,0.0
1492,72.0,272,420,5.0,0.0
1493,60.0,0,420,6.0,0.0
1494,62.0,160,90,0.0,0.0
1495,60.0,13,90,0.0,0.0
1496,55.0,0,420,7.0,0.0
1497,71.0,0,420,5.0,0.0
1498,62.0,0,420,6.0,0.0
1499,43.0,17,420,8.0,0.0
1500,59.0,80,210,0.0,0.0
1501,55.0,128,120,0.0,0.0
1502,55.0,123,120,0.0,0.0
1503,55.0,160,90,0.0,0.0
1504,74.0,147,420,4.0,0.0
1505,56.0,167,90,0.0,0.0
1506,55.0,13,90,0.0,0.0
1507,79.0,0,900,4.0,0.0
1508,53.0,160,90,0.0,0.0
1509,47.0,0,420,8.0,0.0
1510,59.0,0,420,7.0,0.0
1511,62.0,0,420,6.0,0.0
1512,65.0,220,420,5.0,0.0
1513,51.0,160,90,0.0,0.0
1514,50.0,13,90,0.0,0.0
1515,63.0,160,420,5.0,0.0
1516,48.0,125,150,0.0,0.0
1517,60.0,0,420,6.0,0.0
1518,48.0,0,420,8.0,0.0
1519,60.0,0,420,7.0,0.0
1520,63.0,135,120,0.0,0.0
1521,63.0,0,90,0.0,0.0
1522,63.0,147,90,0.0,0.0
1523,72.0,147,420,4.0,0.0
1524,65.0,160,90,0.0,0.0
1525,63.0,13,90,0.0,0.0
1526,42.0,0,420,8.0,0.0
1527,75.0,17,900,4.0,0.0
1528,54.0,0,420,7.0,0.0
1529,70.0,0,420,5.0,0.0
1530,62.0,160,90,0.0,0.0
1531,58.0,257,420,6.0,0.0
1532,60.0,160,90,0.0,0.0
1533,58.0,13,90,0.0,0.0
1534,41.0,0,420,8.0,0.0
1535,57.0,73,210,0.0,0.0
1536,60.0,0,420,6.0,0.0
1537,53.0,0,420,7.0,0.0
1538,69.0,0,420,5.0,0.0
1539,53.0,150,120,0.0,0.0
1540,53.0,123,120,0.0,0.0
1541,53.0,167,90,0.0,0.0
1542,72.0,147,420,4.0,0.0
1543,55.0,160,90,0.0,0.0
1544,53.0,13,90,0.0,0.0
1545,51.0,160,90,0.0,0.0
1546,57.0,280,420,7.0,0.0
1547,45.0,0,420,8.0,0.0
1548,60.0,0,420,6.0,0.0
1549,77.0,0,900,4.0,0.0
1550,63.0,0,420,5.0,0.0
1551,50.0,160,90,0.0,0.0
1552,48.0,13,90,0.0,0.0
1553,58.0,0,900,7.0,0.0
1554,46.0,100,210,0.0,0.0
1555,62.0,0,420,5.0,0.0
1556,46.0,0,900,8.0,0.0
1557,58.0,0,900,6.0,0.0
1558,50.0,100,150,0.0,0.0
1559,53.0,160,90,0.0,0.0
1560,58.0,160,90,0.0,0.0
1561,74.0,0,420,4.0,0.0
1562,65.0,17,420,5.0,0.0
1563,62.0,160,90,0.0,0.0
1564,65.0,248,120,0.0,0.0
1565,39.0,0,420,8.0,0.0
1566,58.0,40,300,6.0,0.0
1567,67.0,0,300,5.0,0.0
1568,51.0,10,420,7.0,0.0
1569,75.0,0,300,4.0,0.0
1570,67.0,105,210,0.0,0.0
1571,63.0,70,180,0.0,0.0
1572,60.0,32,120,0.0,0.0
1573,67.0,438,90,6.0,0.0
1574,72.0,0,90,4.0,0.0
1575,63.0,0,90,5.0,0.0
1576,41.0,480,420,8.0,0.0
1577,70.0,0,900,4.0,0.0
1578,58.0,375,1020,0.0,0.0
1579,53.0,0,420,7.0,0.0
1580,65.0,105,900,6.0,0.0
1581,62.0,0,900,5.0,0.0
1582,41.0,0,420,7.0,0.0
1583,29.0,0,420,8.0,0.0
1584,63.0,0,420,6.0,0.0
1585,60.0,0,420,5.0,0.0
1586,57.0,420,480,0.0,0.0
1587,41.0,0,420,8.0,0.0
1588,69.0,0,420,4.0,0.0
1589,53.0,60,420,7.0,0.0
1590,58.0,480,420,7.0,0.0
1591,62.0,0,900,4.0,0.0
1592,70.0,0,900,1.0,0.0
1593,70.0,0,900,4.0,0.0
1594,46.0,0,420,8.0,0.0
1595,70.0,0,900,2.0,0.0
1596,62.0,0,900,2.0,0.0
1597,58.0,0,420,3.0,0.0
1598,65.0,267,900,5.0,0.0
1599,62.0,0,420,6.0,0.0
1600,70.0,0,420,6.0,0.0
1601,62.0,0,420,3.0,0.0
1602,62.0,0,420,7.0,0.0
1603,50.0,0,420,8.0,0.0
1604,63.0,0,210,5.0,0.0
1605,72.0,0,210,1.0,0.0
1606,69.0,0,210,1.0,0.0
1607,58.0,27,420,7.0,0.0
1608,69.0,213,210,6.0,0.0
1609,72.0,0,210,4.0,0.0
1610,58.0,0,420,3.0,0.0
1611,46.0,0,420,8.0,0.0
1612,74.0,0,210,4.0,0.0
1613,62.0,0,210,5.0,0.0
1614,70.0,0,210,1.0,0.0
1615,74.0,0,210,1.0,0.0
1616,70.0,240,210,6.0,0.0
1617,67.0,0,900,6.0,0.0
1618,48.0,0,420,8.0,0.0
1619,60.0,0,420,3.0,0.0
1620,60.0,0,420,7.0,0.0
1621,77.0,213,210,1.0,0.0
1622,67.0,453,450,1.0,0.0
1623,77.0,0,210,4.0,0.0
1624,67.0,27,420,5.0,0.0
1625,75.0,0,210,4.0,0.0
1626,75.0,0,210,1.0,0.0
1627,55.0,0,420,7.0,0.0
1628,58.0,0,420,5.0,0.0
1629,55.0,0,420,3.0,0.0
1630,75.0,0,900,1.0,0.0
1631,75.0,267,900,4.0,0.0
1632,43.0,0,420,8.0,0.0
1633,70.0,0,420,2.0,0.0
1634,58.0,0,420,2.0,0.0
1635,70.0,480,420,1.0,0.0
1636,57.0,0,420,7.0,0.0
1637,72.0,0,420,2.0,0.0
1638,65.0,0,420,2.0,0.0
1639,72.0,0,420,1.0,0.0
1640,65.0,0,420,6.0,0.0
1641,60.0,0,420,5.0,0.0
1642,45.0,0,420,8.0,0.0
1643,57.0,0,420,3.0,0.0
1644,58.0,0,420,3.0,0.0
1645,58.0,0,210,5.0,0.0
1646,58.0,0,420,7.0,0.0
1647,70.0,0,900,2.0,0.0
1648,74.0,0,900,2.0,0.0
1649,65.0,0,210,6.0,0.0
1650,70.0,0,450,1.0,0.0
1651,46.0,27,420,8.0,0.0
1652,74.0,0,210,1.0,0.0
1653,74.0,213,210,4.0,0.0
1654,77.0,0,210,4.0,0.0
1655,62.0,0,210,6.0,0.0
1656,62.0,0,210,5.0,0.0
1657,77.0,240,210,1.0,0.0
1658,43.0,27,420,8.0,0.0
1659,74.0,0,420,1.0,0.0
1660,55.0,0,420,7.0,0.0
1661,62.0,0,210,5.0,0.0
1662,67.0,0,210,6.0,0.0
1663,70.0,213,210,4.0,0.0
1664,55.0,0,420,3.0,0.0
1665,82.0,0,420,1.0,0.0
1666,74.0,240,210,4.0,0.0
1667,58.0,0,210,6.0,0.0
1668,70.0,0,210,5.0,0.0
1669,67.0,213,210,5.0,0.0
1670,67.0,0,210,4.0,0.0
1671,51.0,0,420,3.0,0.0
1672,79.0,0,210,1.0,0.0
1673,72.0,0,420,2.0,0.0
1674,75.0,0,420,2.0,0.0
1675,51.0,27,420,7.0,0.0
1676,39.0,0,420,8.0,0.0
1677,63.0,0,210,6.0,0.0
1678,63.0,240,210,5.0,0.0
1679,72.0,0,210,4.0,0.0
1680,75.0,0,210,1.0,0.0
1681,84.0,0,210,1.0,0.0
1682,60.0,0,210,6.0,0.0
1683,74.0,0,210,1.0,0.0
1684,65.0,0,2340,2.0,0.0
1685,53.0,0,420,6.0,0.0
1686,53.0,0,420,7.0,0.0
1687,62.0,0,210,5.0,0.0
1688,70.0,213,210,4.0,0.0
1689,41.0,27,420,8.0,0.0
1690,82.0,0,210,1.0,0.0
1691,53.0,0,420,3.0,0.0
1692,60.0,0,210,5.0,0.0
1693,69.0,0,210,4.0,0.0
1694,72.0,240,210,1.0,0.0
1695,81.0,0,210,1.0,0.0
1696,65.0,0,420,6.0,0.0
1697,67.0,0,210,4.0,0.0
1698,41.0,0,420,8.0,0.0
1699,53.0,27,420,3.0,0.0
1700,53.0,0,420,7.0,0.0
1701,58.0,0,210,5.0,0.0
1702,70.0,0,210,1.0,0.0
1703,79.0,213,210,1.0,0.0
1704,65.0,0,210,4.0,0.0
1705,77.0,0,210,1.0,0.0
1706,57.0,240,210,5.0,0.0
1707,69.0,0,210,1.0,0.0
1708,58.0,0,210,5.0,0.0
1709,51.0,0,420,3.0,0.0
1710,65.0,27,420,6.0,0.0
1711,70.0,213,210,1.0,0.0
1712,67.0,0,210,4.0,0.0
1713,51.0,0,420,7.0,0.0
1714,39.0,0,420,8.0,0.0
1715,79.0,0,210,1.0,0.0
1716,60.0,0,210,5.0,0.0
1717,69.0,453,210,4.0,0.0
1718,81.0,0,210,1.0,0.0
1719,72.0,0,210,1.0,0.0
1720,38.0,0,420,8.0,0.0
1721,58.0,267,900,2.0,0.0
1722,65.0,0,420,6.0,0.0
1723,82.0,0,420,1.0,0.0
1724,70.0,0,900,4.0,0.0
1725,62.0,0,900,4.0,0.0
1726,74.0,480,420,1.0,0.0
1727,62.0,0,420,5.0,0.0
1728,50.0,0,420,7.0,0.0
1729,50.0,0,420,3.0,0.0
1730,62.0,0,420,7.0,0.0
1731,50.0,0,420,8.0,0.0
1732,62.0,0,420,3.0,0.0
1733,70.0,0,420,6.0,0.0
1734,65.0,0,420,5.0,0.0
1735,70.0,0,420,1.0,0.0
1736,46.0,0,420,8.0,0.0
1737,69.0,213,210,6.0,0.0
1738,58.0,27,420,3.0,0.0
1739,72.0,0,210,1.0,0.0
1740,69.0,0,210,1.0,0.0
1741,72.0,0,210,4.0,0.0
1742,58.0,0,420,7.0,0.0
1743,63.0,0,210,5.0,0.0
1744,74.0,0,210,1.0,0.0
1745,74.0,0,210,4.0,0.0
1746,70.0,0,210,6.0,0.0
1747,70.0,240,210,1.0,0.0
1748,62.0,0,210,5.0,0.0
1749,67.0,0,900,6.0,0.0
1750,60.0,27,420,3.0,0.0
1751,77.0,0,210,1.0,0.0
1752,67.0,0,450,1.0,0.0
1753,77.0,213,210,4.0,0.0
1754,60.0,0,420,7.0,0.0
1755,48.0,0,420,8.0,0.0
1756,67.0,0,420,5.0,0.0
1757,75.0,453,210,1.0,0.0
1758,75.0,0,210,4.0,0.0
1759,58.0,0,420,5.0,0.0
1760,70.0,0,420,2.0,0.0
1761,75.0,0,900,1.0,0.0
1762,55.0,0,420,7.0,0.0
1763,58.0,0,420,2.0,0.0
1764,75.0,0,900,4.0,0.0
1765,43.0,0,420,8.0,0.0
1766,70.0,480,420,1.0,0.0
1767,55.0,0,420,3.0,0.0
1768,57.0,0,420,3.0,0.0
1769,45.0,0,420,8.0,0.0
1770,60.0,0,420,5.0,0.0
1771,57.0,0,420,7.0,0.0
1772,72.0,0,420,1.0,0.0
1773,72.0,370,420,2.0,0.0
1774,65.0,0,420,6.0,0.0
1775,65.0,0,420,2.0,0.0
1776,65.0,0,420,6.0,0.0
1777,58.0,42,420,7.0,0.0
1778,74.0,100,300,4.0,0.0
1779,58.0,0,420,3.0,0.0
1780,46.0,0,420,8.0,0.0
1781,70.0,0,900,2.0,0.0
1782,74.0,0,300,1.0,0.0
1783,65.0,0,420,5.0,0.0
1784,70.0,8,450,1.0,0.0
1785,74.0,0,900,2.0,0.0
1786,77.0,0,90,1.0,0.0
1787,75.0,10,60,4.0,0.0
1788,77.0,430,60,4.0,0.0
1789,41.0,0,420,8.0,0.0
1790,53.0,0,420,7.0,0.0
1791,70.0,0,420,4.0,0.0
1792,74.0,0,420,1.0,0.0
1793,82.0,480,420,1.0,0.0
1794,53.0,0,420,3.0,0.0
1795,62.0,0,420,5.0,0.0
1796,65.0,0,420,6.0,0.0
1797,65.0,0,420,6.0,0.0
1798,60.0,0,420,5.0,0.0
1799,72.0,0,420,2.0,0.0
1800,72.0,0,420,1.0,0.0
1801,41.0,0,420,3.0,0.0
1802,29.0,0,420,8.0,0.0
1803,65.0,480,420,2.0,0.0
1804,69.0,0,420,4.0,0.0
1805,41.0,0,420,7.0,0.0
1806,81.0,0,420,1.0,0.0
1807,74.0,0,900,1.0,0.0
1808,62.0,0,900,5.0,0.0
1809,70.0,0,900,5.0,0.0
1810,46.0,0,420,3.0,0.0
1811,70.0,0,900,4.0,0.0
1812,62.0,0,900,4.0,0.0
1813,62.0,0,900,2.0,0.0
1814,34.0,0,420,8.0,0.0
1815,46.0,480,420,7.0,0.0
1816,70.0,0,900,2.0,0.0
1817,65.0,0,900,6.0,0.0
1818,82.0,480,900,1.0,0.0
1819,53.0,0,420,3.0,0.0
1820,41.0,0,420,8.0,0.0
1821,53.0,0,420,7.0,0.0
1822,58.0,0,420,7.0,0.0
1823,58.0,267,420,3.0,0.0
1824,46.0,0,420,8.0,0.0
1825,55.0,0,210,7.0,0.0
1826,62.0,172,480,0.0,0.0
1827,62.0,0,210,6.0,0.0
1828,58.0,0,210,5.0,0.0
1829,43.0,0,210,8.0,0.0
1830,67.0,240,210,4.0,0.0
1831,62.0,0,210,6.0,0.0
1832,58.0,0,210,5.0,0.0
1833,67.0,33,210,4.0,0.0
1834,43.0,0,210,8.0,0.0
1835,55.0,0,210,7.0,0.0
1836,55.0,240,210,7.0,0.0
1837,43.0,0,210,8.0,0.0
1838,58.0,0,210,5.0,0.0
1839,62.0,0,210,6.0,0.0
1840,67.0,0,210,4.0,0.0
1841,60.0,35,180,0.0,0.0
1842,58.0,185,330,0.0,0.0
1843,43.0,13,210,8.0,0.0
1844,58.0,0,210,5.0,0.0
1845,55.0,0,210,7.0,0.0
1846,67.0,0,210,4.0,0.0
1847,62.0,0,210,6.0,0.0
1848,62.0,0,210,6.0,0.0
1849,55.0,0,210,7.0,0.0
1850,57.0,42,180,0.0,0.0
1851,67.0,0,210,4.0,0.0
1852,43.0,240,210,8.0,0.0
1853,58.0,0,210,5.0,0.0
1854,55.0,192,330,0.0,0.0
1855,55.0,0,210,7.0,0.0
1856,67.0,0,210,4.0,0.0
1857,62.0,0,210,6.0,0.0
1858,58.0,0,210,5.0,0.0
1859,43.0,13,210,8.0,0.0
1860,54.0,35,180,0.0,0.0
1861,60.0,0,210,6.0,0.0
1862,66.0,78,210,4.0,0.0
1863,63.0,0,210,5.0,0.0
1864,57.0,0,210,7.0,0.0
1865,45.0,0,210,8.0,0.0
1866,57.0,120,180,0.0,0.0
1867,57.0,0,210,7.0,0.0
1868,63.0,0,210,5.0,0.0
1869,45.0,0,210,8.0,0.0
1870,60.0,42,180,0.0,0.0
1871,66.0,0,210,4.0,0.0
1872,60.0,5,210,6.0,0.0
1873,63.0,235,90,0.0,0.0
1874,57.0,0,210,7.0,0.0
1875,66.0,0,210,4.0,0.0
1876,45.0,240,210,8.0,0.0
1877,63.0,162,780,0.0,0.0
1878,60.0,0,210,6.0,0.0
1879,63.0,0,210,5.0,0.0
1880,57.0,0,210,7.0,0.0
1881,66.0,0,210,4.0,0.0
1882,63.0,240,210,5.0,0.0
1883,60.0,0,210,6.0,0.0
1884,45.0,0,210,8.0,0.0
1885,60.0,0,210,6.0,0.0
1886,45.0,0,210,8.0,0.0
1887,57.0,0,210,7.0,0.0
1888,66.0,0,210,4.0,0.0
1889,63.0,78,210,5.0,0.0
1890,63.0,0,210,5.0,0.0
1891,57.0,0,210,7.0,0.0
1892,66.0,240,210,4.0,0.0
1893,45.0,0,210,8.0,0.0
1894,60.0,0,210,6.0,0.0
1895,67.0,240,210,4.0,0.0
1896,58.0,0,210,7.0,0.0
1897,62.0,172,480,0.0,0.0
1898,62.0,0,210,5.0,0.0
1899,46.0,0,210,8.0,0.0
1900,62.0,0,210,5.0,0.0
1901,67.0,0,210,4.0,0.0
1902,46.0,0,210,8.0,0.0
1903,58.0,33,210,7.0,0.0
1904,62.0,238,210,5.0,0.0
1905,60.0,35,180,0.0,0.0
1906,58.0,0,210,7.0,0.0
1907,46.0,0,210,8.0,0.0
1908,67.0,0,210,4.0,0.0
1909,58.0,2,330,0.0,0.0
1910,46.0,0,210,8.0,0.0
1911,62.0,0,210,5.0,0.0
1912,58.0,0,210,7.0,0.0
1913,67.0,183,210,4.0,0.0
1914,67.0,0,210,4.0,0.0
1915,58.0,0,210,7.0,0.0
1916,57.0,57,150,0.0,0.0
1917,62.0,0,210,5.0,0.0
1918,46.0,235,210,8.0,0.0
1919,55.0,5,330,0.0,0.0
1920,58.0,0,210,7.0,0.0
1921,46.0,183,210,8.0,0.0
1922,62.0,0,210,5.0,0.0
1923,67.0,0,210,4.0,0.0
1924,66.0,0,210,4.0,0.0
1925,54.0,57,150,0.0,0.0
1926,60.0,0,210,7.0,0.0
1927,57.0,53,210,6.0,0.0
1928,63.0,0,210,5.0,0.0
1929,48.0,0,210,8.0,0.0
1930,57.0,120,150,0.0,0.0
1931,57.0,0,210,6.0,0.0
1932,63.0,0,210,5.0,0.0
1933,60.0,0,210,7.0,0.0
1934,48.0,0,210,8.0,0.0
1935,60.0,67,150,0.0,0.0
1936,66.0,5,210,4.0,0.0
1937,63.0,235,90,0.0,0.0
1938,57.0,240,210,6.0,0.0
1939,63.0,187,750,0.0,0.0
1940,60.0,0,210,7.0,0.0
1941,63.0,0,210,5.0,0.0
1942,66.0,0,210,4.0,0.0
1943,48.0,0,210,8.0,0.0
1944,60.0,240,210,7.0,0.0
1945,63.0,0,210,5.0,0.0
1946,48.0,0,210,8.0,0.0
1947,57.0,0,210,6.0,0.0
1948,66.0,0,210,4.0,0.0
1949,60.0,53,210,7.0,0.0
1950,63.0,0,210,5.0,0.0
1951,66.0,0,210,4.0,0.0
1952,48.0,0,210,8.0,0.0
1953,57.0,0,210,6.0,0.0
1954,66.0,0,210,4.0,0.0
1955,57.0,0,210,6.0,0.0
1956,48.0,0,210,8.0,0.0
1957,63.0,240,210,5.0,0.0
1958,60.0,0,210,7.0,0.0
1959,58.0,27,420,7.0,0.0
1960,67.0,0,210,4.0,0.0
1961,46.0,0,420,8.0,0.0
1962,62.0,70,210,5.0,0.0
1963,62.0,143,270,0.0,0.0
1964,74.0,0,210,5.0,0.0
1965,79.0,240,210,4.0,0.0
1966,67.0,0,180,0.0,0.0
1967,79.0,73,210,4.0,0.0
1968,67.0,140,270,0.0,0.0
1969,57.0,27,420,7.0,0.0
1970,45.0,0,420,8.0,0.0
1971,72.0,0,420,5.0,0.0
1972,78.0,33,210,4.0,0.0
1973,66.0,365,240,0.0,0.0
1974,43.0,0,420,8.0,0.0
1975,70.0,0,420,5.0,0.0
1976,55.0,27,420,7.0,0.0
1977,75.0,240,210,4.0,0.0
1978,63.0,55,120,0.0,0.0
1979,42.0,0,420,8.0,0.0
1980,63.0,120,270,0.0,0.0
1981,54.0,27,420,7.0,0.0
1982,69.0,0,420,5.0,0.0
1983,75.0,73,210,4.0,0.0
1984,74.0,240,210,4.0,0.0
1985,62.0,20,150,0.0,0.0
1986,55.0,0,420,6.0,0.0
1987,67.0,0,420,5.0,0.0
1988,40.0,27,420,8.0,0.0
1989,74.0,88,210,4.0,0.0
1990,62.0,125,300,0.0,0.0
1991,52.0,0,420,7.0,0.0
1992,72.0,33,210,4.0,0.0
1993,60.0,382,240,0.0,0.0
1994,38.0,0,420,8.0,0.0
1995,65.0,27,420,5.0,0.0
1996,50.0,0,420,7.0,0.0
1997,62.0,0,420,6.0,0.0
1998,58.0,38,150,0.0,0.0
1999,70.0,240,210,4.0,0.0
2000,70.0,63,210,4.0,0.0
2001,60.0,0,420,6.0,0.0
2002,48.0,0,420,7.0,0.0
2003,58.0,150,270,0.0,0.0
2004,36.0,0,420,8.0,0.0
2005,63.0,2,420,5.0,0.0
2006,57.0,25,180,0.0,0.0
2007,69.0,240,210,4.0,0.0
2008,69.0,55,210,4.0,0.0
2009,57.0,128,270,0.0,0.0
2010,38.0,27,420,8.0,0.0
2011,58.0,0,420,6.0,0.0
2012,62.0,0,420,5.0,0.0
2013,50.0,0,420,7.0,0.0
2014,67.0,240,210,4.0,0.0
2015,55.0,30,150,0.0,0.0
2016,50.0,0,420,7.0,0.0
2017,38.0,27,420,8.0,0.0
2018,55.0,95,270,0.0,0.0
2019,60.0,0,420,5.0,0.0
2020,57.0,0,420,6.0,0.0
2021,67.0,73,210,4.0,0.0
2022,54.0,45,120,0.0,0.0
2023,66.0,453,210,4.0,0.0
2024,66.0,0,900,4.0,0.0
2025,60.0,0,900,5.0,0.0
2026,43.0,480,420,7.0,0.0
2027,31.0,0,420,8.0,0.0
2028,57.0,0,900,6.0,0.0
2029,54.0,262,990,0.0,0.0
2030,43.0,0,420,8.0,0.0
2031,55.0,100,420,7.0,0.0
2032,31.0,0,420,8.0,0.0
2033,67.0,480,420,4.0,0.0
2034,55.0,0,420,6.0,0.0
2035,55.0,118,300,0.0,0.0
2036,43.0,0,420,7.0,0.0
2037,58.0,0,420,5.0,0.0
2038,58.0,250,1620,0.0,0.0
2039,56.0,240,420,7.0,0.0
2040,44.0,0,420,8.0,0.0
2041,58.0,0,420,5.0,0.0
2042,62.0,240,420,4.0,0.0
2043,53.0,0,420,7.0,0.0
2044,41.0,0,420,8.0,0.0
2045,58.0,240,420,6.0,0.0
2046,65.0,240,420,4.0,0.0
2047,62.0,0,420,5.0,0.0
2048,58.0,0,420,6.0,0.0
2049,50.0,0,420,7.0,0.0
2050,38.0,27,420,8.0,0.0
2051,68.0,0,210,4.0,0.0
2052,65.0,203,210,5.0,0.0
2053,58.0,0,420,6.0,0.0
2054,67.0,0,420,4.0,0.0
2055,39.0,0,420,8.0,0.0
2056,51.0,107,420,7.0,0.0
2057,63.0,0,420,5.0,0.0
2058,57.0,223,300,0.0,0.0
2059,58.0,250,270,0.0,0.0
2060,57.0,247,270,0.0,0.0
2061,58.0,183,300,0.0,0.0
2062,59.0,430,240,0.0,0.0
2063,60.0,310,1560,0.0,0.0
2064,58.0,0,420,7.0,0.0
2065,46.0,240,420,8.0,0.0
2066,64.0,0,420,4.0,0.0
2067,60.0,240,420,5.0,0.0
2068,43.0,240,420,8.0,0.0
2069,60.0,0,420,6.0,0.0
2070,55.0,0,420,7.0,0.0
2071,67.0,240,420,4.0,0.0
2072,64.0,0,420,5.0,0.0
2073,40.0,27,420,8.0,0.0
2074,52.0,0,420,7.0,0.0
2075,60.0,0,420,6.0,0.0
2076,70.0,143,210,4.0,0.0
2077,67.0,0,210,5.0,0.0
2078,69.0,0,420,4.0,0.0
2079,65.0,115,420,5.0,0.0
2080,41.0,0,420,8.0,0.0
2081,60.0,0,420,6.0,0.0
2082,53.0,0,420,7.0,0.0
2083,59.0,185,300,0.0,0.0
2084,60.0,295,240,0.0,0.0
2085,59.0,240,300,0.0,0.0
2086,60.0,187,300,0.0,0.0
2087,61.0,418,240,0.0,0.0
2088,48.0,240,420,8.0,0.0
2089,62.0,298,1560,0.0,0.0
2090,60.0,0,420,7.0,0.0
2091,66.0,240,420,4.0,0.0
2092,62.0,0,420,5.0,0.0
2093,57.0,0,420,7.0,0.0
2094,45.0,240,420,8.0,0.0
2095,62.0,0,420,6.0,0.0
2096,69.0,240,420,4.0,0.0
2097,66.0,0,420,5.0,0.0
2098,54.0,0,420,7.0,0.0
2099,42.0,0,420,8.0,0.0
2100,62.0,27,420,6.0,0.0
2101,69.0,155,210,5.0,0.0
2102,72.0,0,210,4.0,0.0
2103,70.0,0,420,4.0,0.0
2104,67.0,120,420,5.0,0.0
2105,55.0,0,420,7.0,0.0
2106,62.0,0,420,6.0,0.0
2107,43.0,0,420,8.0,0.0
2108,61.0,222,300,0.0,0.0
2109,62.0,240,270,0.0,0.0
2110,61.0,233,270,0.0,0.0
2111,62.0,105,270,0.0,0.0
2112,61.0,307,150,0.0,0.0
2113,67.0,0,210,4.0,0.0
2114,62.0,0,210,5.0,0.0
2115,62.0,155,480,0.0,0.0
2116,55.0,0,210,7.0,0.0
2117,58.0,0,210,6.0,0.0
2118,43.0,240,210,8.0,0.0
2119,67.0,0,210,4.0,0.0
2120,55.0,0,210,7.0,0.0
2121,62.0,33,210,5.0,0.0
2122,58.0,0,210,6.0,0.0
2123,43.0,0,210,8.0,0.0
2124,67.0,0,210,4.0,0.0
2125,58.0,0,210,6.0,0.0
2126,55.0,0,210,7.0,0.0
2127,60.0,52,150,0.0,0.0
2128,62.0,0,210,5.0,0.0
2129,43.0,240,210,8.0,0.0
2130,58.0,177,330,0.0,0.0
2131,67.0,0,210,4.0,0.0
2132,55.0,3,210,7.0,0.0
2133,62.0,0,210,5.0,0.0
2134,58.0,0,210,6.0,0.0
2135,43.0,0,210,8.0,0.0
2136,57.0,60,150,0.0,0.0
2137,62.0,0,210,5.0,0.0
2138,43.0,220,210,8.0,0.0
2139,55.0,0,210,7.0,0.0
2140,67.0,0,210,4.0,0.0
2141,58.0,0,210,6.0,0.0
2142,55.0,20,300,0.0,0.0
2143,58.0,0,210,6.0,0.0
2144,67.0,0,210,4.0,0.0
2145,55.0,0,210,7.0,0.0
2146,43.0,180,210,8.0,0.0
2147,62.0,0,210,5.0,0.0
2148,54.0,60,150,0.0,0.0
2149,66.0,60,210,4.0,0.0
2150,63.0,0,210,6.0,0.0
2151,57.0,0,210,7.0,0.0
2152,60.0,0,210,5.0,0.0
2153,45.0,0,210,8.0,0.0
2154,57.0,120,150,0.0,0.0
2155,60.0,0,210,5.0,0.0
2156,63.0,0,210,6.0,0.0
2157,45.0,0,210,8.0,0.0
2158,60.0,48,150,0.0,0.0
2159,57.0,0,210,7.0,0.0
2160,66.0,240,210,4.0,0.0
2161,63.0,12,60,0.0,0.0
2162,63.0,0,210,6.0,0.0
2163,60.0,0,210,5.0,0.0
2164,45.0,0,210,8.0,0.0
2165,66.0,0,210,4.0,0.0
2166,57.0,240,210,7.0,0.0
2167,63.0,177,750,0.0,0.0
2168,60.0,0,210,5.0,0.0
2169,45.0,0,210,8.0,0.0
2170,57.0,0,210,7.0,0.0
2171,63.0,240,210,6.0,0.0
2172,66.0,0,210,4.0,0.0
2173,63.0,0,210,6.0,0.0
2174,57.0,63,210,7.0,0.0
2175,66.0,0,210,4.0,0.0
2176,60.0,0,210,5.0,0.0
2177,45.0,0,210,8.0,0.0
2178,60.0,0,210,5.0,0.0
2179,66.0,0,210,4.0,0.0
2180,63.0,0,210,6.0,0.0
2181,57.0,240,210,7.0,0.0
2182,45.0,0,210,8.0,0.0
2183,58.0,0,210,5.0,0.0
2184,46.0,0,210,8.0,0.0
2185,62.0,162,480,0.0,0.0
2186,67.0,240,210,4.0,0.0
2187,58.0,0,210,7.0,0.0
2188,62.0,0,210,6.0,0.0
2189,58.0,33,210,7.0,0.0
2190,46.0,0,210,8.0,0.0
2191,62.0,0,210,5.0,0.0
2192,67.0,0,210,4.0,0.0
2193,46.0,0,210,8.0,0.0
2194,67.0,0,210,4.0,0.0
2195,58.0,240,210,7.0,0.0
2196,60.0,45,150,0.0,0.0
2197,62.0,0,210,5.0,0.0
2198,58.0,145,360,0.0,0.0
2199,62.0,0,210,5.0,0.0
2200,46.0,0,210,8.0,0.0
2201,67.0,33,210,4.0,0.0
2202,58.0,0,210,7.0,0.0
2203,57.0,62,150,0.0,0.0
2204,67.0,0,210,4.0,0.0
2205,46.0,218,210,8.0,0.0
2206,58.0,0,210,7.0,0.0
2207,62.0,0,210,5.0,0.0
2208,55.0,22,300,0.0,0.0
2209,62.0,0,210,5.0,0.0
2210,67.0,0,210,4.0,0.0
2211,58.0,0,210,7.0,0.0
2212,46.0,178,210,8.0,0.0
2213,60.0,0,210,7.0,0.0
2214,54.0,62,150,0.0,0.0
2215,66.0,58,210,4.0,0.0
2216,48.0,0,210,8.0,0.0
2217,57.0,0,210,6.0,0.0
2218,63.0,0,210,5.0,0.0
2219,57.0,112,150,0.0,0.0
2220,63.0,0,210,5.0,0.0
2221,66.0,0,210,4.0,0.0
2222,57.0,0,210,6.0,0.0
2223,48.0,0,210,8.0,0.0
2224,60.0,58,150,0.0,0.0
2225,60.0,240,210,7.0,0.0
2226,63.0,12,60,0.0,0.0
2227,66.0,0,210,4.0,0.0
2228,60.0,0,210,7.0,0.0
2229,48.0,240,210,8.0,0.0
2230,63.0,0,210,5.0,0.0
2231,57.0,0,210,6.0,0.0
2232,63.0,157,780,0.0,0.0
2233,48.0,0,210,8.0,0.0
2234,63.0,240,210,5.0,0.0
2235,60.0,0,210,7.0,0.0
2236,57.0,0,210,6.0,0.0
2237,66.0,0,210,4.0,0.0
2238,48.0,0,210,8.0,0.0
2239,66.0,0,210,4.0,0.0
2240,63.0,83,210,5.0,0.0
2241,57.0,0,210,6.0,0.0
2242,60.0,0,210,7.0,0.0
2243,57.0,240,210,6.0,0.0
2244,66.0,0,210,4.0,0.0
2245,48.0,0,210,8.0,0.0
2246,63.0,0,210,5.0,0.0
2247,60.0,0,210,7.0,0.0
2248,62.0,155,270,0.0,0.0
2249,62.0,0,210,5.0,0.0
2250,58.0,5,420,7.0,0.0
2251,46.0,0,420,8.0,0.0
2252,67.0,58,210,4.0,0.0
2253,79.0,0,210,4.0,0.0
2254,74.0,240,210,5.0,0.0
2255,67.0,22,180,0.0,0.0
2256,72.0,22,420,5.0,0.0
2257,79.0,75,210,4.0,0.0
2258,45.0,0,420,8.0,0.0
2259,57.0,0,420,7.0,0.0
2260,67.0,138,270,0.0,0.0
2261,78.0,395,210,4.0,0.0
2262,66.0,5,210,0.0,0.0
2263,55.0,0,420,7.0,0.0
2264,70.0,27,420,5.0,0.0
2265,43.0,0,420,8.0,0.0
2266,63.0,58,120,0.0,0.0
2267,75.0,240,210,4.0,0.0
2268,42.0,0,420,8.0,0.0
2269,75.0,68,210,4.0,0.0
2270,54.0,0,420,7.0,0.0
2271,63.0,95,270,0.0,0.0
2272,69.0,27,420,5.0,0.0
2273,62.0,50,120,0.0,0.0
2274,74.0,240,210,4.0,0.0
2275,67.0,0,420,5.0,0.0
2276,74.0,33,210,4.0,0.0
2277,51.0,0,420,7.0,0.0
2278,39.0,27,420,8.0,0.0
2279,62.0,180,240,0.0,0.0
2280,72.0,33,210,4.0,0.0
2281,60.0,360,240,0.0,0.0
2282,62.0,27,420,6.0,0.0
2283,50.0,0,420,7.0,0.0
2284,65.0,0,420,5.0,0.0
2285,38.0,0,420,8.0,0.0
2286,70.0,240,210,4.0,0.0
2287,58.0,60,120,0.0,0.0
2288,63.0,0,420,5.0,0.0
2289,70.0,73,210,4.0,0.0
2290,60.0,0,420,6.0,0.0
2291,58.0,120,270,0.0,0.0
2292,36.0,0,420,8.0,0.0
2293,48.0,27,420,7.0,0.0
2294,69.0,240,210,4.0,0.0
2295,57.0,20,150,0.0,0.0
2296,62.0,0,420,5.0,0.0
2297,50.0,27,420,7.0,0.0
2298,38.0,0,420,8.0,0.0
2299,58.0,0,420,6.0,0.0
2300,69.0,58,210,4.0,0.0
2301,57.0,145,270,0.0,0.0
2302,67.0,240,210,4.0,0.0
2303,55.0,10,180,0.0,0.0
2304,67.0,58,210,4.0,0.0
2305,60.0,0,420,5.0,0.0
2306,55.0,112,270,0.0,0.0
2307,38.0,27,420,8.0,0.0
2308,57.0,0,420,6.0,0.0
2309,50.0,0,420,7.0,0.0
2310,66.0,453,210,4.0,0.0
2311,54.0,43,150,0.0,0.0
2312,57.0,0,900,6.0,0.0
2313,31.0,0,420,8.0,0.0
2314,60.0,125,900,5.0,0.0
2315,66.0,0,900,4.0,0.0
2316,54.0,355,1020,0.0,0.0
2317,43.0,480,420,7.0,0.0
2318,55.0,0,420,7.0,0.0
2319,43.0,0,420,8.0,0.0
2320,43.0,0,420,7.0,0.0
2321,67.0,0,420,4.0,0.0
2322,31.0,60,420,8.0,0.0
2323,55.0,0,420,6.0,0.0
2324,55.0,420,480,0.0,0.0
2325,58.0,0,420,5.0,0.0
2326,70.0,0,900,4.0,0.0
2327,58.0,0,420,3.0,0.0
2328,62.0,0,900,4.0,0.0
2329,62.0,0,900,2.0,0.0
2330,70.0,0,900,1.0,0.0
2331,58.0,480,420,7.0,0.0
2332,65.0,0,900,5.0,0.0
2333,46.0,0,420,8.0,0.0
2334,70.0,0,900,2.0,0.0
2335,62.0,0,420,6.0,0.0
2336,70.0,0,420,6.0,0.0
2337,50.0,267,420,8.0,0.0
2338,62.0,0,420,3.0,0.0
2339,62.0,0,420,7.0,0.0
2340,58.0,0,420,3.0,0.0
2341,72.0,0,210,1.0,0.0
2342,69.0,0,210,1.0,0.0
2343,63.0,0,210,5.0,0.0
2344,72.0,0,210,4.0,0.0
2345,69.0,213,210,6.0,0.0
2346,58.0,27,420,7.0,0.0
2347,46.0,0,420,8.0,0.0
2348,70.0,0,210,6.0,0.0
2349,74.0,0,210,1.0,0.0
2350,62.0,240,210,5.0,0.0
2351,70.0,0,210,1.0,0.0
2352,74.0,0,210,4.0,0.0
2353,67.0,27,420,5.0,0.0
2354,67.0,0,450,1.0,0.0
2355,67.0,0,900,6.0,0.0
2356,60.0,0,420,7.0,0.0
2357,77.0,0,210,1.0,0.0
2358,48.0,0,420,8.0,0.0
2359,60.0,0,420,3.0,0.0
2360,77.0,213,210,4.0,0.0
2361,75.0,0,210,1.0,0.0
2362,75.0,453,210,4.0,0.0
2363,75.0,0,900,4.0,0.0
2364,55.0,0,420,7.0,0.0
2365,75.0,0,900,1.0,0.0
2366,70.0,0,420,2.0,0.0
2367,70.0,480,420,1.0,0.0
2368,58.0,0,420,5.0,0.0
2369,55.0,0,420,3.0,0.0
2370,43.0,0,420,8.0,0.0
2371,58.0,0,420,2.0,0.0
2372,45.0,0,420,8.0,0.0
2373,57.0,0,420,7.0,0.0
2374,72.0,267,420,1.0,0.0
2375,65.0,0,420,6.0,0.0
2376,72.0,0,420,2.0,0.0
2377,65.0,0,420,2.0,0.0
2378,57.0,0,420,3.0,0.0
2379,60.0,0,420,5.0,0.0
2380,74.0,0,900,2.0,0.0
2381,74.0,0,210,1.0,0.0
2382,70.0,0,900,2.0,0.0
2383,58.0,0,420,3.0,0.0
2384,74.0,213,210,4.0,0.0
2385,70.0,240,450,1.0,0.0
2386,58.0,27,420,7.0,0.0
2387,58.0,0,210,5.0,0.0
2388,46.0,0,420,8.0,0.0
2389,65.0,0,210,6.0,0.0
2390,70.0,0,210,4.0,0.0
2391,77.0,0,210,1.0,0.0
2392,62.0,0,210,6.0,0.0
2393,62.0,0,210,5.0,0.0
2394,77.0,0,210,4.0,0.0
2395,55.0,0,420,7.0,0.0
2396,55.0,0,420,3.0,0.0
2397,70.0,0,210,4.0,0.0
2398,62.0,213,210,5.0,0.0
2399,67.0,0,210,6.0,0.0
2400,74.0,27,420,1.0,0.0
2401,82.0,0,420,1.0,0.0
2402,43.0,0,420,8.0,0.0
2403,74.0,0,210,4.0,0.0
2404,70.0,0,210,5.0,0.0
2405,58.0,240,210,6.0,0.0
2406,63.0,213,210,6.0,0.0
2407,67.0,0,210,4.0,0.0
2408,39.0,0,420,8.0,0.0
2409,67.0,0,210,5.0,0.0
2410,51.0,0,420,3.0,0.0
2411,79.0,0,210,1.0,0.0
2412,75.0,0,420,2.0,0.0
2413,51.0,27,420,7.0,0.0
2414,72.0,0,420,2.0,0.0
2415,72.0,0,210,4.0,0.0
2416,75.0,0,210,1.0,0.0
2417,84.0,240,210,1.0,0.0
2418,60.0,0,210,6.0,0.0
2419,63.0,0,210,5.0,0.0
2420,53.0,0,420,7.0,0.0
2421,41.0,0,420,8.0,0.0
2422,82.0,0,210,1.0,0.0
2423,74.0,213,210,1.0,0.0
2424,62.0,0,210,5.0,0.0
2425,65.0,0,2340,2.0,0.0
2426,70.0,0,210,4.0,0.0
2427,53.0,27,420,6.0,0.0
2428,53.0,0,420,3.0,0.0
2429,72.0,240,210,1.0,0.0
2430,81.0,0,210,1.0,0.0
2431,60.0,0,210,5.0,0.0
2432,69.0,0,210,4.0,0.0
2433,79.0,213,210,1.0,0.0
2434,53.0,27,420,7.0,0.0
2435,53.0,0,420,3.0,0.0
2436,70.0,0,210,1.0,0.0
2437,58.0,0,210,5.0,0.0
2438,41.0,0,420,8.0,0.0
2439,67.0,0,210,4.0,0.0
2440,65.0,0,420,6.0,0.0
2441,69.0,0,210,1.0,0.0
2442,77.0,0,210,1.0,0.0
2443,65.0,240,210,4.0,0.0
2444,57.0,0,210,5.0,0.0
2445,58.0,0,210,5.0,0.0
2446,67.0,213,210,4.0,0.0
2447,39.0,0,420,8.0,0.0
2448,51.0,27,420,3.0,0.0
2449,65.0,0,420,6.0,0.0
2450,70.0,0,210,1.0,0.0
2451,79.0,0,210,1.0,0.0
2452,51.0,0,420,7.0,0.0
2453,72.0,0,210,1.0,0.0
2454,60.0,0,210,5.0,0.0
2455,81.0,0,210,1.0,0.0
2456,69.0,453,210,4.0,0.0
2457,65.0,0,420,6.0,0.0
2458,50.0,0,420,3.0,0.0
2459,74.0,0,420,1.0,0.0
2460,70.0,0,900,4.0,0.0
2461,38.0,480,420,8.0,0.0
2462,82.0,0,420,1.0,0.0
2463,62.0,0,420,5.0,0.0
2464,58.0,0,900,2.0,0.0
2465,50.0,0,420,7.0,0.0
2466,62.0,0,900,4.0,0.0
2467,70.0,0,420,1.0,0.0
2468,65.0,0,420,5.0,0.0
2469,50.0,267,420,8.0,0.0
2470,62.0,0,420,3.0,0.0
2471,62.0,0,420,7.0,0.0
2472,70.0,0,420,6.0,0.0
2473,69.0,0,210,6.0,0.0
2474,69.0,0,210,1.0,0.0
2475,72.0,213,210,1.0,0.0
2476,58.0,0,420,7.0,0.0
2477,46.0,0,420,8.0,0.0
2478,58.0,27,420,3.0,0.0
2479,63.0,0,210,5.0,0.0
2480,72.0,0,210,4.0,0.0
2481,70.0,0,210,6.0,0.0
2482,74.0,0,210,1.0,0.0
2483,74.0,0,210,4.0,0.0
2484,70.0,240,210,1.0,0.0
2485,62.0,0,210,5.0,0.0
2486,48.0,0,420,8.0,0.0
2487,67.0,0,900,6.0,0.0
2488,77.0,213,210,1.0,0.0
2489,60.0,0,420,7.0,0.0
2490,60.0,27,420,3.0,0.0
2491,67.0,0,420,5.0,0.0
2492,77.0,0,210,4.0,0.0
2493,67.0,0,450,1.0,0.0
2494,75.0,0,210,1.0,0.0
2495,75.0,453,210,4.0,0.0
2496,55.0,0,420,3.0,0.0
2497,55.0,0,420,7.0,0.0
2498,70.0,0,420,1.0,0.0
2499,75.0,0,900,1.0,0.0
2500,70.0,0,420,2.0,0.0
2501,75.0,0,900,4.0,0.0
2502,58.0,0,420,5.0,0.0
2503,43.0,0,420,8.0,0.0
2504,58.0,480,420,2.0,0.0
2505,60.0,0,420,5.0,0.0
2506,57.0,370,420,3.0,0.0
2507,65.0,0,420,6.0,0.0
2508,45.0,0,420,8.0,0.0
2509,57.0,0,420,7.0,0.0
2510,65.0,0,420,2.0,0.0
2511,72.0,0,420,1.0,0.0
2512,72.0,0,420,2.0,0.0
2513,58.0,0,420,7.0,0.0
2514,74.0,100,300,1.0,0.0
2515,70.0,0,450,1.0,0.0
2516,65.0,0,420,5.0,0.0
2517,74.0,0,900,2.0,0.0
2518,70.0,0,900,2.0,0.0
2519,65.0,0,420,6.0,0.0
2520,74.0,0,300,4.0,0.0
2521,58.0,0,420,3.0,0.0
2522,46.0,42,420,8.0,0.0
2523,77.0,8,90,1.0,0.0
2524,75.0,10,60,4.0,0.0
2525,77.0,430,60,4.0,0.0
2526,53.0,0,420,7.0,0.0
2527,41.0,0,420,8.0,0.0
2528,74.0,480,420,1.0,0.0
2529,82.0,0,420,1.0,0.0
2530,53.0,0,420,3.0,0.0
2531,70.0,0,420,4.0,0.0
2532,62.0,0,420,5.0,0.0
2533,65.0,0,420,6.0,0.0
2534,72.0,0,420,1.0,0.0
2535,65.0,0,420,6.0,0.0
2536,69.0,0,420,4.0,0.0
2537,29.0,0,420,8.0,0.0
2538,81.0,0,420,1.0,0.0
2539,60.0,0,420,5.0,0.0
2540,41.0,0,420,3.0,0.0
2541,65.0,0,420,2.0,0.0
2542,72.0,0,420,2.0,0.0
2543,41.0,480,420,7.0,0.0
2544,46.0,480,420,7.0,0.0
2545,65.0,0,900,6.0,0.0
2546,46.0,0,420,3.0,0.0
2547,70.0,0,900,4.0,0.0
2548,62.0,0,900,4.0,0.0
2549,70.0,0,900,5.0,0.0
2550,62.0,480,900,2.0,0.0
2551,70.0,0,900,2.0,0.0
2552,62.0,0,900,5.0,0.0
2553,82.0,0,900,1.0,0.0
2554,34.0,0,420,8.0,0.0
2555,74.0,0,900,1.0,0.0
2556,41.0,0,420,8.0,0.0
2557,53.0,0,420,3.0,0.0
2558,53.0,0,420,7.0,0.0
2559,46.0,225,420,8.0,0.0
2560,58.0,0,420,7.0,0.0
2561,58.0,0,420,3.0,0.0
2562,58.0,57,180,0.0,0.0
2563,62.0,0,420,5.0,0.0
2564,58.0,0,1380,6.0,0.0
2565,46.0,0,420,8.0,0.0
2566,65.0,2,420,4.0,0.0
2567,57.0,95,90,0.0,0.0
2568,58.0,103,90,0.0,0.0
2569,60.0,208,60,0.0,0.0
2570,62.0,55,150,0.0,0.0
2571,62.0,0,420,7.0,0.0
2572,77.0,0,300,4.0,0.0
2573,70.0,110,300,5.0,0.0
2574,50.0,10,420,8.0,0.0
2575,60.0,90,90,0.0,0.0
2576,62.0,15,60,0.0,0.0
2577,65.0,0,90,5.0,0.0
2578,63.0,32,60,0.0,0.0
2579,74.0,408,90,4.0,0.0
2580,46.0,202,420,8.0,0.0
2581,74.0,0,420,5.0,0.0
2582,65.0,30,390,0.0,0.0
2583,77.0,0,420,4.0,0.0
2584,58.0,0,420,7.0,0.0
2585,63.0,2,420,4.0,0.0
2586,57.0,0,420,5.0,0.0
2587,60.0,10,900,6.0,0.0
2588,48.0,0,420,8.0,0.0
2589,63.0,78,150,0.0,0.0
2590,65.0,90,90,0.0,0.0
2591,63.0,110,60,0.0,0.0
2592,62.0,215,60,0.0,0.0
2593,60.0,63,150,0.0,0.0
2594,75.0,0,300,4.0,0.0
2595,72.0,7,300,5.0,0.0
2596,57.0,0,420,7.0,0.0
2597,45.0,0,420,8.0,0.0
2598,62.0,90,90,0.0,0.0
2599,60.0,103,90,0.0,0.0
2600,58.0,32,60,0.0,0.0
2601,69.0,0,90,5.0,0.0
2602,72.0,408,90,4.0,0.0
2603,53.0,0,420,7.0,0.0
2604,41.0,0,420,8.0,0.0
2605,57.0,0,420,6.0,0.0
2606,72.0,0,420,5.0,0.0
2607,57.0,30,390,0.0,0.0
2608,75.0,180,420,4.0,0.0
2609,58.0,100,120,0.0,0.0
2610,70.0,0,900,5.0,0.0
2611,46.0,15,420,8.0,0.0
2612,74.0,0,420,4.0,0.0
2613,58.0,0,900,6.0,0.0
2614,60.0,100,90,0.0,0.0
2615,58.0,100,90,0.0,0.0
2616,57.0,290,60,0.0,0.0
2617,51.0,0,420,7.0,0.0
2618,55.0,80,240,0.0,0.0
2619,39.0,17,420,8.0,0.0
2620,79.0,0,420,4.0,0.0
2621,60.0,95,90,0.0,0.0
2622,62.0,200,90,0.0,0.0
2623,39.0,0,420,8.0,0.0
2624,60.0,17,420,6.0,0.0
2625,51.0,0,420,7.0,0.0
2626,63.0,63,150,0.0,0.0
2627,67.0,0,420,5.0,0.0
2628,70.0,0,420,4.0,0.0
2629,62.0,120,90,0.0,0.0
2630,60.0,80,90,0.0,0.0
2631,58.0,185,90,0.0,0.0
2632,60.0,110,210,6.0,0.0
2633,41.0,0,420,8.0,0.0
2634,65.0,0,420,5.0,0.0
2635,53.0,0,420,7.0,0.0
2636,69.0,17,420,4.0,0.0
2637,57.0,55,150,0.0,0.0
2638,58.0,10,90,0.0,0.0
2639,57.0,183,210,6.0,0.0
2640,60.0,103,90,0.0,0.0
2641,58.0,10,90,0.0,0.0
2642,69.0,0,420,5.0,0.0
2643,53.0,17,420,6.0,0.0
2644,57.0,47,150,0.0,0.0
2645,72.0,0,420,4.0,0.0
2646,41.0,0,420,7.0,0.0
2647,29.0,0,420,8.0,0.0
2648,58.0,120,90,0.0,0.0
2649,57.0,103,90,0.0,0.0
2650,55.0,145,90,0.0,0.0
2651,53.0,32,300,0.0,0.0
2652,69.0,0,90,5.0,0.0
2653,53.0,0,90,7.0,0.0
2654,41.0,120,90,8.0,0.0
2655,67.0,0,90,5.0,0.0
2656,51.0,0,90,7.0,0.0
2657,39.0,88,90,8.0,0.0
2658,50.0,120,90,7.0,0.0
2659,65.0,0,90,5.0,0.0
2660,38.0,0,90,8.0,0.0
2661,48.0,0,90,7.0,0.0
2662,36.0,0,90,8.0,0.0
2663,63.0,175,90,5.0,0.0
2664,65.0,17,420,4.0,0.0
2665,46.0,0,420,7.0,0.0
2666,34.0,0,420,8.0,0.0
2667,58.0,0,1380,6.0,0.0
2668,58.0,40,150,0.0,0.0
2669,62.0,0,420,5.0,0.0
2670,57.0,120,90,0.0,0.0
2671,58.0,103,90,0.0,0.0
2672,60.0,183,90,0.0,0.0
2673,62.0,57,150,0.0,0.0
2674,77.0,0,300,4.0,0.0
2675,70.0,7,300,5.0,0.0
2676,62.0,17,420,7.0,0.0
2677,50.0,0,420,8.0,0.0
2678,60.0,113,90,0.0,0.0
2679,62.0,103,90,0.0,0.0
2680,65.0,198,90,5.0,0.0
2681,74.0,0,90,4.0,0.0
2682,63.0,25,90,0.0,0.0
2683,77.0,0,420,4.0,0.0
2684,58.0,0,420,7.0,0.0
2685,65.0,240,180,0.0,0.0
2686,46.0,0,420,8.0,0.0
2687,74.0,17,420,5.0,0.0
2688,65.0,200,210,0.0,0.0
2689,60.0,0,900,6.0,0.0
2690,63.0,0,420,4.0,0.0
2691,57.0,0,420,5.0,0.0
2692,48.0,32,420,8.0,0.0
2693,63.0,55,150,0.0,0.0
2694,65.0,120,90,0.0,0.0
2695,63.0,88,90,0.0,0.0
2696,62.0,160,90,0.0,0.0
2697,45.0,0,420,8.0,0.0
2698,72.0,7,300,5.0,0.0
2699,57.0,0,420,7.0,0.0
2700,60.0,80,120,0.0,0.0
2701,75.0,0,300,4.0,0.0
2702,62.0,98,90,0.0,0.0
2703,60.0,103,90,0.0,0.0
2704,72.0,0,90,4.0,0.0
2705,58.0,42,60,0.0,0.0
2706,69.0,175,90,5.0,0.0
2707,41.0,0,420,8.0,0.0
2708,57.0,0,420,6.0,0.0
2709,57.0,233,150,0.0,0.0
2710,53.0,0,420,7.0,0.0
2711,72.0,420,420,5.0,0.0
2712,75.0,0,420,4.0,0.0
2713,57.0,30,150,0.0,0.0
2714,58.0,0,420,7.0,0.0
2715,58.0,60,360,0.0,0.0
2716,74.0,0,420,4.0,0.0
2717,65.0,0,420,6.0,0.0
2718,70.0,0,900,5.0,0.0
2719,46.0,60,420,8.0,0.0
2720,60.0,50,120,0.0,0.0
2721,39.0,30,420,8.0,0.0
2722,67.0,0,420,6.0,0.0
2723,74.0,60,60,4.0,0.0
2724,62.0,30,150,0.0,0.0
2725,51.0,0,420,7.0,0.0
2726,72.0,30,60,4.0,0.0
2727,60.0,48,60,0.0,0.0
2728,74.0,12,60,4.0,0.0
2729,62.0,42,90,0.0,0.0
2730,72.0,15,60,4.0,0.0
2731,60.0,3,60,0.0,0.0
2732,74.0,55,60,4.0,0.0
2733,62.0,5,60,0.0,0.0
2734,72.0,32,60,4.0,0.0
2735,60.0,28,60,0.0,0.0
2736,74.0,10,60,4.0,0.0
2737,62.0,20,60,0.0,0.0
2738,72.0,25,60,4.0,0.0
2739,60.0,35,60,0.0,0.0
2740,53.0,0,420,7.0,0.0
2741,65.0,23,210,6.0,0.0
2742,69.0,9,420,5.0,0.0
2743,41.0,0,420,8.0,0.0
2744,74.0,32,60,4.0,0.0
2745,62.0,28,60,0.0,0.0
2746,60.0,35,60,0.0,0.0
2747,72.0,25,60,4.0,0.0
2748,62.0,15,60,0.0,0.0
2749,74.0,22,60,4.0,0.0
2750,60.0,50,60,0.0,0.0
2751,72.0,10,60,4.0,0.0
2752,62.0,35,90,0.0,0.0
2753,63.0,23,210,6.0,0.0
2754,74.0,25,60,4.0,0.0
2755,60.0,46,90,0.0,0.0
2756,72.0,14,60,4.0,0.0
2757,58.0,18,90,0.0,0.0
2758,70.0,10,60,4.0,0.0
2759,60.0,98,90,0.0,0.0
2760,72.0,14,60,4.0,0.0
2761,58.0,0,210,7.0,0.0
2762,62.0,105,90,6.0,0.0
2763,46.0,0,210,8.0,0.0
2764,58.0,102,480,0.0,0.0
2765,70.0,135,210,4.0,0.0
2766,69.0,0,90,4.0,0.0
2767,45.0,0,90,8.0,0.0
2768,57.0,120,90,7.0,0.0
2769,43.0,0,90,8.0,0.0
2770,67.0,18,90,4.0,0.0
2771,55.0,0,90,7.0,0.0
2772,53.0,0,90,7.0,0.0
2773,65.0,120,90,4.0,0.0
2774,41.0,0,90,8.0,0.0
2775,51.0,0,90,7.0,0.0
2776,63.0,0,90,4.0,0.0
2777,39.0,120,90,8.0,0.0
2778,62.0,0,90,4.0,0.0
2779,50.0,120,90,7.0,0.0
2780,38.0,0,90,8.0,0.0
2781,60.0,438,90,4.0,0.0
2782,48.0,0,90,7.0,0.0
2783,36.0,0,90,8.0,0.0
2784,58.0,150,420,4.0,0.0
2785,34.0,0,420,8.0,0.0
2786,46.0,0,420,7.0,0.0
2787,65.0,27,660,6.0,0.0
2788,46.0,160,90,0.0,0.0
2789,34.0,0,420,8.0,0.0
2790,46.0,27,420,7.0,0.0
2791,58.0,160,90,0.0,0.0
2792,70.0,0,210,4.0,0.0
2793,62.0,123,210,5.0,0.0
2794,58.0,10,90,0.0,0.0
2795,70.0,0,210,4.0,0.0
2796,62.0,43,210,5.0,0.0
2797,58.0,27,420,7.0,0.0
2798,58.0,90,90,0.0,0.0
2799,46.0,0,420,8.0,0.0
2800,60.0,160,90,0.0,0.0
2801,62.0,213,210,5.0,0.0
2802,62.0,0,210,6.0,0.0
2803,70.0,0,210,4.0,0.0
2804,58.0,10,90,0.0,0.0
2805,50.0,0,420,7.0,0.0
2806,38.0,0,420,8.0,0.0
2807,56.0,27,180,0.0,0.0
2808,77.0,0,210,4.0,0.0
2809,68.0,63,210,5.0,0.0
2810,58.0,0,420,6.0,0.0
2811,55.0,150,120,0.0,0.0
2812,65.0,218,210,5.0,0.0
2813,68.0,0,210,4.0,0.0
2814,56.0,27,90,0.0,0.0
2815,70.0,27,660,6.0,0.0
2816,39.0,5,420,8.0,0.0
2817,55.0,107,180,0.0,0.0
2818,51.0,0,420,7.0,0.0
2819,58.0,128,120,0.0,0.0
2820,63.0,113,210,5.0,0.0
2821,67.0,0,210,4.0,0.0
2822,55.0,22,120,0.0,0.0
2823,70.0,0,210,4.0,0.0
2824,67.0,40,210,5.0,0.0
2825,51.0,100,90,0.0,0.0
2826,46.0,160,90,0.0,0.0
2827,67.0,240,210,6.0,0.0
2828,70.0,0,210,4.0,0.0
2829,67.0,0,210,5.0,0.0
2830,43.0,40,90,0.0,0.0
2831,79.0,113,210,4.0,0.0
2832,70.0,0,210,5.0,0.0
2833,63.0,27,420,6.0,0.0
2834,39.0,100,330,0.0,0.0
2835,67.0,128,210,5.0,0.0
2836,70.0,0,210,4.0,0.0
2837,48.0,152,90,0.0,0.0
2838,67.0,27,660,6.0,0.0
2839,52.0,27,420,7.0,0.0
2840,40.0,0,420,8.0,0.0
2841,60.0,160,90,0.0,0.0
2842,72.0,0,210,4.0,0.0
2843,67.0,120,210,5.0,0.0
2844,60.0,13,90,0.0,0.0
2845,60.0,93,90,0.0,0.0
2846,60.0,0,420,7.0,0.0
2847,48.0,27,420,8.0,0.0
2848,72.0,40,210,4.0,0.0
2849,67.0,0,210,5.0,0.0
2850,62.0,160,90,0.0,0.0
2851,64.0,113,210,6.0,0.0
2852,72.0,0,210,4.0,0.0
2853,67.0,0,210,5.0,0.0
2854,60.0,13,90,0.0,0.0
2855,79.0,0,210,4.0,0.0
2856,52.0,0,420,7.0,0.0
2857,40.0,27,420,8.0,0.0
2858,70.0,15,210,5.0,0.0
2859,58.0,52,90,0.0,0.0
2860,60.0,0,420,6.0,0.0
2861,60.0,75,90,0.0,0.0
2862,58.0,138,120,0.0,0.0
2863,57.0,60,180,0.0,0.0
2864,70.0,40,210,4.0,0.0
2865,67.0,0,210,5.0,0.0
2866,58.0,170,150,0.0,0.0
2867,41.0,27,420,8.0,0.0
2868,57.0,78,180,0.0,0.0
2869,72.0,27,660,6.0,0.0
2870,53.0,0,420,7.0,0.0
2871,60.0,152,90,0.0,0.0
2872,65.0,0,210,5.0,0.0
2873,69.0,113,210,4.0,0.0
2874,57.0,13,90,0.0,0.0
2875,53.0,100,90,0.0,0.0
2876,65.0,18,210,5.0,0.0
2877,69.0,0,210,4.0,0.0
2878,48.0,160,60,0.0,0.0
2879,69.0,0,210,6.0,0.0
2880,69.0,240,210,4.0,0.0
2881,65.0,0,210,5.0,0.0
2882,45.0,62,60,0.0,0.0
2883,69.0,0,210,5.0,0.0
2884,72.0,128,210,4.0,0.0
2885,41.0,85,330,0.0,0.0
2886,65.0,27,420,6.0,0.0
2887,57.0,0,210,5.0,0.0
2888,65.0,453,210,4.0,0.0
2889,60.0,455,540,0.0,0.0
2890,53.0,0,420,7.0,0.0
2891,65.0,0,7620,2.0,0.0
2892,41.0,115,420,8.0,0.0
2893,53.0,0,7620,2.0,0.0
2894,61.0,390,510,0.0,0.0
2895,58.0,182,480,0.0,0.0
2896,64.0,60,420,6.0,0.0
2897,72.0,0,420,4.0,0.0
2898,29.0,25,420,8.0,0.0
2899,41.0,0,420,7.0,0.0
2900,65.0,0,420,6.0,0.0
2901,57.0,143,180,0.0,0.0
2902,60.0,95,180,0.0,0.0
2903,65.0,455,120,0.0,0.0
2904,73.0,402,420,4.0,0.0
2905,65.0,78,810,0.0,0.0
2906,70.0,200,420,4.0,0.0
2907,76.0,0,420,5.0,0.0
2908,41.0,37,420,8.0,0.0
2909,77.0,0,420,5.0,0.0
2910,69.0,159,150,4.0,0.0
2911,53.0,0,420,7.0,0.0
2912,60.0,487,510,0.0,0.0
2913,72.0,121,150,4.0,0.0
2914,77.0,53,150,4.0,0.0
2915,77.0,40,900,4.0,0.0
2916,61.0,383,510,0.0,0.0
2917,58.0,217,450,0.0,0.0
2918,64.0,0,420,6.0,0.0
2919,57.0,153,210,0.0,0.0
2920,72.0,0,420,4.0,0.0
2921,65.0,25,420,6.0,0.0
2922,29.0,0,420,8.0,0.0
2923,41.0,0,420,7.0,0.0
2924,60.0,70,180,0.0,0.0
2925,65.0,455,120,0.0,0.0
2926,73.0,370,420,4.0,0.0
2927,65.0,110,780,0.0,0.0
2928,70.0,200,420,4.0,0.0
2929,76.0,0,420,5.0,0.0
2930,69.0,159,150,4.0,0.0
2931,53.0,0,420,7.0,0.0
2932,60.0,358,540,0.0,0.0
2933,77.0,37,420,5.0,0.0
2934,41.0,0,420,8.0,0.0
2935,72.0,121,150,4.0,0.0
2936,77.0,85,150,4.0,0.0
2937,61.0,380,510,0.0,0.0
2938,77.0,80,420,4.0,0.0
2939,77.0,0,420,4.0,0.0
2940,61.0,210,420,5.0,0.0
2941,58.0,20,390,0.0,0.0
2942,58.0,0,420,6.0,0.0
2943,29.0,0,420,8.0,0.0
2944,67.0,87,150,0.0,0.0
2945,57.0,0,420,6.0,0.0
2946,60.0,0,420,5.0,0.0
2947,41.0,0,420,7.0,0.0
2948,77.0,30,420,4.0,0.0
2949,65.0,40,120,0.0,0.0
2950,67.0,75,60,0.0,0.0
2951,65.0,43,60,0.0,0.0
2952,67.0,25,60,0.0,0.0
2953,65.0,40,60,0.0,0.0
2954,67.0,55,60,0.0,0.0
2955,65.0,40,60,0.0,0.0
2956,67.0,62,60,0.0,0.0
2957,65.0,45,60,0.0,0.0
2958,67.0,58,60,0.0,0.0
2959,65.0,62,60,0.0,0.0
2960,67.0,48,90,0.0,0.0
2961,65.0,50,90,0.0,0.0
2962,64.0,65,90,0.0,0.0
2963,65.0,405,90,0.0,0.0
2964,53.0,402,420,0.0,0.0
2965,46.0,0,420,8.0,0.0
2966,58.0,42,420,7.0,0.0
2967,58.0,232,930,0.0,0.0
2968,77.0,78,90,4.0,0.0
2969,76.0,225,90,4.0,0.0
2970,50.0,0,420,8.0,0.0
2971,62.0,27,420,7.0,0.0
2972,65.0,0,420,6.0,0.0
2973,77.0,213,210,4.0,0.0
2974,70.0,8,210,4.0,0.0
2975,72.0,55,210,4.0,0.0
2976,60.0,158,270,0.0,0.0
2977,58.0,0,420,7.0,0.0
2978,70.0,20,420,6.0,0.0
2979,46.0,0,420,8.0,0.0
2980,62.0,7,210,0.0,0.0
2981,74.0,240,210,4.0,0.0
2982,65.0,72,270,0.0,0.0
2983,69.0,0,420,6.0,0.0
2984,48.0,20,420,8.0,0.0
2985,60.0,0,420,7.0,0.0
2986,77.0,63,210,4.0,0.0
2987,75.0,15,210,4.0,0.0
2988,69.0,78,90,5.0,0.0
2989,63.0,7,210,0.0,0.0
2990,70.0,225,90,5.0,0.0
2991,65.0,0,420,6.0,0.0
2992,63.0,125,780,0.0,0.0
2993,45.0,0,420,8.0,0.0
2994,72.0,213,210,5.0,0.0
2995,57.0,27,420,7.0,0.0
2996,75.0,0,900,4.0,0.0
2997,65.0,240,210,5.0,0.0
2998,67.0,88,210,5.0,0.0
2999,41.0,0,420,8.0,0.0
3000,53.0,27,420,7.0,0.0
3001,69.0,295,210,5.0,0.0
3002,62.0,80,270,0.0,0.0
3003,70.0,42,420,5.0,0.0
3004,46.0,0,420,8.0,0.0
3005,58.0,0,420,7.0,0.0
3006,65.0,0,180,0.0,0.0
3007,74.0,78,90,4.0,0.0
3008,72.0,225,90,4.0,0.0
3009,43.0,0,420,8.0,0.0
3010,58.0,0,420,6.0,0.0
3011,55.0,27,420,7.0,0.0
3012,74.0,55,210,4.0,0.0
3013,58.0,140,270,0.0,0.0
3014,70.0,240,210,4.0,0.0
3015,62.0,18,150,0.0,0.0
3016,63.0,0,420,6.0,0.0
3017,55.0,148,270,0.0,0.0
3018,79.0,55,210,4.0,0.0
3019,39.0,0,420,8.0,0.0
3020,51.0,27,420,7.0,0.0
3021,60.0,10,180,0.0,0.0
3022,70.0,240,210,4.0,0.0
3023,41.0,0,420,8.0,0.0
3024,65.0,27,420,6.0,0.0
3025,70.0,73,210,4.0,0.0
3026,53.0,0,420,7.0,0.0
3027,58.0,62,270,0.0,0.0
3028,72.0,78,90,5.0,0.0
3029,69.0,15,210,4.0,0.0
3030,57.0,177,270,0.0,0.0
3031,70.0,48,90,5.0,0.0
3032,69.0,63,210,5.0,0.0
3033,55.0,150,270,0.0,0.0
3034,41.0,27,420,8.0,0.0
3035,53.0,0,420,7.0,0.0
3036,69.0,0,420,6.0,0.0
3037,72.0,20,900,4.0,0.0
3038,53.0,177,270,0.0,0.0
3039,65.0,63,210,5.0,0.0
3040,39.0,0,420,8.0,0.0
3041,55.0,165,240,0.0,0.0
3042,51.0,0,420,7.0,0.0
3043,67.0,48,210,5.0,0.0
3044,57.0,7,210,0.0,0.0
3045,69.0,375,210,5.0,0.0
3046,70.0,0,420,5.0,0.0
3047,38.0,42,420,8.0,0.0
3048,58.0,232,930,0.0,0.0
3049,50.0,0,420,7.0,0.0
3050,77.0,78,90,4.0,0.0
3051,76.0,225,90,4.0,0.0
3052,50.0,27,420,8.0,0.0
3053,62.0,0,420,7.0,0.0
3054,65.0,0,420,6.0,0.0
3055,77.0,213,210,4.0,0.0
3056,70.0,8,210,4.0,0.0
3057,60.0,135,300,0.0,0.0
3058,72.0,78,210,4.0,0.0
3059,70.0,0,420,6.0,0.0
3060,58.0,0,420,7.0,0.0
3061,46.0,27,420,8.0,0.0
3062,62.0,232,210,0.0,0.0
3063,74.0,8,210,4.0,0.0
3064,48.0,0,420,8.0,0.0
3065,77.0,48,210,4.0,0.0
3066,65.0,87,240,0.0,0.0
3067,60.0,27,420,7.0,0.0
3068,69.0,0,420,6.0,0.0
3069,75.0,15,210,4.0,0.0
3070,63.0,30,150,0.0,0.0
3071,69.0,48,90,5.0,0.0
3072,70.0,225,90,5.0,0.0
3073,57.0,0,420,7.0,0.0
3074,65.0,0,420,6.0,0.0
3075,75.0,27,900,4.0,0.0
3076,72.0,213,210,5.0,0.0
3077,63.0,158,750,0.0,0.0
3078,45.0,27,420,8.0,0.0
3079,65.0,240,210,5.0,0.0
3080,53.0,0,420,7.0,0.0
3081,67.0,55,210,5.0,0.0
3082,41.0,0,420,8.0,0.0
3083,69.0,375,210,5.0,0.0
3084,58.0,0,420,7.0,0.0
3085,46.0,0,420,8.0,0.0
3086,70.0,25,420,5.0,0.0
3087,62.0,15,420,0.0,0.0
3088,74.0,63,90,4.0,0.0
3089,63.0,17,90,0.0,0.0
3090,75.0,18,90,4.0,0.0
3091,65.0,207,60,0.0,0.0
3092,70.0,213,210,6.0,0.0
3093,58.0,162,540,0.0,0.0
3094,77.0,0,210,4.0,0.0
3095,50.0,27,420,7.0,0.0
3096,38.0,0,420,8.0,0.0
3097,70.0,0,210,4.0,0.0
3098,65.0,78,210,6.0,0.0
3099,63.0,213,210,6.0,0.0
3100,72.0,0,210,4.0,0.0
3101,57.0,367,450,0.0,0.0
3102,41.0,27,420,8.0,0.0
3103,53.0,0,420,7.0,0.0
3104,69.0,8,210,4.0,0.0
3105,60.0,0,210,6.0,0.0
3106,70.0,0,420,4.0,0.0
3107,46.0,0,420,8.0,0.0
3108,62.0,0,420,6.0,0.0
3109,58.0,207,480,0.0,0.0
3110,58.0,42,420,7.0,0.0
3111,62.0,78,90,5.0,0.0
3112,63.0,18,90,5.0,0.0
3113,46.0,27,420,7.0,0.0
3114,34.0,0,420,8.0,0.0
3115,65.0,213,210,5.0,0.0
3116,62.0,240,210,5.0,0.0
3117,60.0,240,210,5.0,0.0
3118,58.0,240,210,5.0,0.0
3119,60.0,207,960,0.0,0.0
3120,53.0,42,420,7.0,0.0
3121,41.0,0,420,8.0,0.0
3122,57.0,135,210,5.0,0.0
3123,65.0,27,2820,6.0,0.0
3124,72.0,78,90,4.0,0.0
3125,57.0,0,90,5.0,0.0
3126,56.0,0,90,5.0,0.0
3127,71.0,225,90,4.0,0.0
3128,57.0,213,210,5.0,0.0
3129,53.0,0,420,7.0,0.0
3130,72.0,0,210,4.0,0.0
3131,41.0,27,420,8.0,0.0
3132,57.0,33,210,5.0,0.0
3133,72.0,0,210,4.0,0.0
3134,74.0,0,210,4.0,0.0
3135,53.0,0,420,7.0,0.0
3136,62.0,120,300,0.0,0.0
3137,58.0,93,210,5.0,0.0
3138,41.0,27,420,8.0,0.0
3139,70.0,0,210,4.0,0.0
3140,58.0,207,240,0.0,0.0
3141,62.0,33,210,5.0,0.0
3142,62.0,72,270,0.0,0.0
3143,41.0,0,420,8.0,0.0
3144,53.0,10,420,7.0,0.0
3145,74.0,0,210,4.0,0.0
3146,59.0,63,210,5.0,0.0
3147,75.0,0,210,4.0,0.0
3148,60.0,15,210,5.0,0.0
3149,63.0,17,180,0.0,0.0
3150,69.0,78,90,1.0,0.0
3151,72.0,0,90,1.0,0.0
3152,70.0,0,90,1.0,0.0
3153,74.0,225,90,1.0,0.0
3154,60.0,0,900,5.0,0.0
3155,53.0,0,420,7.0,0.0
3156,41.0,27,420,8.0,0.0
3157,63.0,150,750,0.0,0.0
3158,75.0,0,900,4.0,0.0
3159,72.0,0,210,1.0,0.0
3160,75.0,213,210,1.0,0.0
3161,72.0,0,210,1.0,0.0
3162,69.0,240,210,1.0,0.0
3163,75.0,63,210,1.0,0.0
3164,41.0,0,420,8.0,0.0
3165,53.0,0,420,7.0,0.0
3166,72.0,0,210,1.0,0.0
3167,69.0,375,210,1.0,0.0
3168,72.0,0,210,1.0,0.0
3169,70.0,0,2820,6.0,0.0
3170,58.0,42,420,7.0,0.0
3171,46.0,0,420,8.0,0.0
3172,62.0,207,960,0.0,0.0
3173,58.0,0,90,5.0,0.0
3174,74.0,78,90,4.0,0.0
3175,57.0,0,90,5.0,0.0
3176,73.0,225,90,4.0,0.0
3177,46.0,0,420,8.0,0.0
3178,74.0,213,210,4.0,0.0
3179,58.0,27,420,7.0,0.0
3180,58.0,0,210,5.0,0.0
3181,74.0,0,210,4.0,0.0
3182,58.0,33,210,5.0,0.0
3183,58.0,17,420,7.0,0.0
3184,63.0,143,270,0.0,0.0
3185,46.0,0,420,8.0,0.0
3186,75.0,70,210,4.0,0.0
3187,60.0,0,210,5.0,0.0
3188,63.0,0,210,5.0,0.0
3189,60.0,10,210,0.0,0.0
3190,72.0,240,210,4.0,0.0
3191,76.0,0,210,4.0,0.0
3192,46.0,27,420,8.0,0.0
3193,61.0,70,210,5.0,0.0
3194,64.0,65,270,0.0,0.0
3195,58.0,0,420,7.0,0.0
3196,62.0,0,210,5.0,0.0
3197,77.0,15,210,4.0,0.0
3198,74.0,0,90,1.0,0.0
3199,70.0,48,90,1.0,0.0
3200,65.0,30,150,0.0,0.0
3201,72.0,225,90,1.0,0.0
3202,75.0,0,90,1.0,0.0
3203,65.0,88,810,0.0,0.0
3204,58.0,0,420,7.0,0.0
3205,77.0,0,210,1.0,0.0
3206,46.0,27,420,8.0,0.0
3207,62.0,0,900,5.0,0.0
3208,74.0,213,210,1.0,0.0
3209,77.0,0,900,4.0,0.0
3210,74.0,240,210,1.0,0.0
3211,70.0,0,210,1.0,0.0
3212,58.0,0,420,7.0,0.0
3213,74.0,125,210,1.0,0.0
3214,77.0,0,210,1.0,0.0
3215,46.0,27,420,8.0,0.0
3216,74.0,120,210,1.0,0.0
3217,70.0,0,210,1.0,0.0
3218,65.0,0,900,5.0,0.0
3219,70.0,0,900,6.0,0.0
3220,58.0,147,420,7.0,0.0
3221,46.0,0,420,8.0,0.0
3222,70.0,147,900,4.0,0.0
3223,62.0,0,900,4.0,0.0
3224,46.0,240,90,0.0,0.0
3225,58.0,93,90,0.0,0.0
3226,62.0,0,420,7.0,0.0
3227,50.0,0,420,8.0,0.0
3228,46.0,240,90,0.0,0.0
3229,62.0,93,90,0.0,0.0
3230,72.0,0,210,4.0,0.0
3231,58.0,0,420,7.0,0.0
3232,63.0,0,210,5.0,0.0
3233,46.0,120,90,0.0,0.0
3234,69.0,120,210,6.0,0.0
3235,46.0,27,420,8.0,0.0
3236,74.0,0,210,4.0,0.0
3237,62.0,0,210,5.0,0.0
3238,65.0,93,90,0.0,0.0
3239,70.0,120,210,6.0,0.0
3240,48.0,0,420,8.0,0.0
3241,60.0,0,420,7.0,0.0
3242,77.0,180,210,4.0,0.0
3243,67.0,27,420,5.0,0.0
3244,63.0,120,90,0.0,0.0
3245,67.0,0,420,6.0,0.0
3246,75.0,60,210,4.0,0.0
3247,60.0,33,150,0.0,0.0
3248,62.0,58,150,0.0,0.0
3249,63.0,242,90,0.0,0.0
3250,75.0,0,900,4.0,0.0
3251,65.0,147,900,6.0,0.0
3252,45.0,0,420,8.0,0.0
3253,72.0,0,420,5.0,0.0
3254,57.0,147,420,7.0,0.0
3255,60.0,93,90,0.0,0.0
3256,53.0,0,420,7.0,0.0
3257,57.0,240,90,0.0,0.0
3258,69.0,0,420,5.0,0.0
3259,41.0,0,420,8.0,0.0
3260,53.0,93,90,0.0,0.0
3261,74.0,0,210,4.0,0.0
3262,46.0,120,90,0.0,0.0
3263,46.0,0,420,8.0,0.0
3264,58.0,27,420,7.0,0.0
3265,70.0,0,210,5.0,0.0
3266,65.0,120,210,6.0,0.0
3267,62.0,93,90,0.0,0.0
3268,77.0,120,210,4.0,0.0
3269,62.0,0,210,6.0,0.0
3270,74.0,0,210,5.0,0.0
3271,62.0,0,210,5.0,0.0
3272,43.0,120,90,0.0,0.0
3273,43.0,27,420,8.0,0.0
3274,70.0,120,210,4.0,0.0
3275,67.0,0,210,6.0,0.0
3276,55.0,0,420,7.0,0.0
3277,74.0,120,210,4.0,0.0
3278,70.0,0,210,5.0,0.0
3279,58.0,0,210,6.0,0.0
3280,58.0,93,90,0.0,0.0
3281,39.0,120,90,0.0,0.0
3282,67.0,0,210,4.0,0.0
3283,51.0,27,420,7.0,0.0
3284,39.0,0,420,8.0,0.0
3285,67.0,0,210,5.0,0.0
3286,63.0,120,210,6.0,0.0
3287,63.0,120,210,5.0,0.0
3288,60.0,0,210,6.0,0.0
3289,72.0,0,210,4.0,0.0
3290,60.0,93,90,0.0,0.0
3291,70.0,180,210,4.0,0.0
3292,53.0,27,420,6.0,0.0
3293,41.0,120,90,0.0,0.0
3294,41.0,0,420,8.0,0.0
3295,53.0,0,420,7.0,0.0
3296,62.0,0,210,5.0,0.0
3297,60.0,33,150,0.0,0.0
3298,60.0,60,210,5.0,0.0
3299,69.0,0,210,4.0,0.0
3300,58.0,58,150,0.0,0.0
3301,58.0,0,210,5.0,0.0
3302,65.0,27,420,6.0,0.0
3303,41.0,0,420,8.0,0.0
3304,67.0,120,210,4.0,0.0
3305,57.0,122,90,0.0,0.0
3306,53.0,0,420,7.0,0.0
3307,60.0,93,90,0.0,0.0
3308,57.0,120,210,5.0,0.0
3309,65.0,0,210,4.0,0.0
3310,65.0,0,420,6.0,0.0
3311,53.0,120,90,0.0,0.0
3312,39.0,27,420,8.0,0.0
3313,51.0,0,420,7.0,0.0
3314,67.0,0,210,4.0,0.0
3315,58.0,120,210,5.0,0.0
3316,69.0,120,210,4.0,0.0
3317,57.0,93,90,0.0,0.0
3318,60.0,0,210,5.0,0.0
3319,38.0,0,420,8.0,0.0
3320,50.0,147,420,7.0,0.0
3321,46.0,240,90,0.0,0.0
3322,62.0,0,900,4.0,0.0
3323,70.0,0,900,4.0,0.0
3324,62.0,0,420,5.0,0.0
3325,65.0,0,420,6.0,0.0
3326,58.0,93,90,0.0,0.0
3327,65.0,147,420,5.0,0.0
3328,62.0,0,420,7.0,0.0
3329,70.0,0,420,6.0,0.0
3330,50.0,0,420,8.0,0.0
3331,46.0,240,90,0.0,0.0
3332,62.0,93,90,0.0,0.0
3333,46.0,120,90,0.0,0.0
3334,69.0,120,210,6.0,0.0
3335,58.0,27,420,7.0,0.0
3336,46.0,0,420,8.0,0.0
3337,63.0,0,210,5.0,0.0
3338,72.0,0,210,4.0,0.0
3339,65.0,93,90,0.0,0.0
3340,74.0,0,210,4.0,0.0
3341,62.0,120,210,5.0,0.0
3342,70.0,0,210,6.0,0.0
3343,48.0,0,420,8.0,0.0
3344,77.0,208,210,4.0,0.0
3345,67.0,27,420,6.0,0.0
3346,63.0,120,90,0.0,0.0
3347,60.0,0,420,7.0,0.0
3348,67.0,0,420,5.0,0.0
3349,75.0,53,210,4.0,0.0
3350,60.0,5,180,0.0,0.0
3351,62.0,65,150,0.0,0.0
3352,63.0,242,90,0.0,0.0
3353,65.0,0,900,6.0,0.0
3354,45.0,0,420,8.0,0.0
3355,57.0,0,420,7.0,0.0
3356,72.0,147,420,5.0,0.0
3357,75.0,0,900,4.0,0.0
3358,60.0,93,90,0.0,0.0
3359,69.0,0,420,5.0,0.0
3360,53.0,370,420,7.0,0.0
3361,41.0,0,420,8.0,0.0
3362,57.0,240,90,0.0,0.0
3363,53.0,93,90,0.0,0.0
3364,46.0,0,420,8.0,0.0
3365,74.0,85,300,4.0,0.0
3366,70.0,0,300,5.0,0.0
3367,58.0,0,420,7.0,0.0
3368,65.0,32,420,6.0,0.0
3369,62.0,15,390,0.0,0.0
3370,63.0,18,90,0.0,0.0
3371,72.0,10,60,5.0,0.0
3372,75.0,0,60,4.0,0.0
3373,77.0,0,60,4.0,0.0
3374,65.0,400,90,0.0,0.0
3375,74.0,30,60,5.0,0.0
3376,53.0,0,420,7.0,0.0
3377,65.0,0,420,6.0,0.0
3378,70.0,0,420,4.0,0.0
3379,62.0,120,420,5.0,0.0
3380,58.0,360,540,0.0,0.0
3381,41.0,0,420,8.0,0.0
3382,41.0,0,420,7.0,0.0
3383,29.0,0,420,8.0,0.0
3384,65.0,0,420,6.0,0.0
3385,69.0,0,420,4.0,0.0
3386,60.0,60,420,5.0,0.0
3387,57.0,102,480,0.0,0.0
3388,62.0,42,420,5.0,0.0
3389,65.0,0,420,6.0,0.0
3390,46.0,0,420,7.0,0.0
3391,34.0,0,420,8.0,0.0
3392,74.0,120,90,4.0,0.0
3393,65.0,0,2700,0.0,0.0
3394,75.0,120,90,4.0,0.0
3395,77.0,78,90,4.0,0.0
3396,74.0,225,90,4.0,0.0
3397,50.0,0,420,8.0,0.0
3398,62.0,0,420,7.0,0.0
3399,65.0,27,420,5.0,0.0
3400,82.0,213,210,4.0,0.0
3401,82.0,83,210,4.0,0.0
3402,74.0,0,420,5.0,0.0
3403,46.0,0,420,8.0,0.0
3404,84.0,60,60,4.0,0.0
3405,58.0,50,420,7.0,0.0
3406,82.0,60,60,4.0,0.0
3407,84.0,60,60,4.0,0.0
3408,82.0,60,60,4.0,0.0
3409,84.0,60,60,4.0,0.0
3410,82.0,60,60,4.0,0.0
3411,81.0,10,60,4.0,0.0
3412,82.0,112,60,4.0,0.0
3413,81.0,120,90,4.0,0.0
3414,60.0,42,420,7.0,0.0
3415,75.0,0,420,5.0,0.0
3416,48.0,0,420,8.0,0.0
3417,82.0,120,90,4.0,0.0
3418,84.0,78,90,4.0,0.0
3419,81.0,225,90,4.0,0.0
3420,57.0,0,420,7.0,0.0
3421,60.0,0,420,5.0,0.0
3422,75.0,213,210,4.0,0.0
3423,45.0,27,420,8.0,0.0
3424,75.0,83,210,4.0,0.0
3425,53.0,0,420,7.0,0.0
3426,69.0,0,420,5.0,0.0
3427,77.0,60,60,4.0,0.0
3428,41.0,50,420,8.0,0.0
3429,75.0,60,60,4.0,0.0
3430,77.0,60,60,4.0,0.0
3431,75.0,60,60,4.0,0.0
3432,77.0,60,60,4.0,0.0
3433,75.0,60,60,4.0,0.0
3434,74.0,10,60,4.0,0.0
3435,75.0,112,60,4.0,0.0
3436,74.0,120,90,4.0,0.0
3437,58.0,32,420,7.0,0.0
3438,70.0,0,420,5.0,0.0
3439,46.0,0,420,8.0,0.0
3440,67.0,43,300,0.0,0.0
3441,75.0,77,90,4.0,0.0
3442,77.0,78,90,4.0,0.0
3443,65.0,10,180,0.0,0.0
3444,74.0,60,90,4.0,0.0
3445,67.0,50,120,0.0,0.0
3446,70.0,0,210,4.0,0.0
3447,65.0,0,420,5.0,0.0
3448,50.0,14,420,8.0,0.0
3449,62.0,0,420,7.0,0.0
3450,65.0,53,60,0.0,0.0
3451,67.0,62,60,0.0,0.0
3452,65.0,57,90,0.0,0.0
3453,67.0,48,90,0.0,0.0
3454,65.0,62,90,0.0,0.0
3455,70.0,50,210,4.0,0.0
3456,67.0,46,90,0.0,0.0
3457,65.0,13,90,0.0,0.0
3458,67.0,33,90,0.0,0.0
3459,65.0,46,90,0.0,0.0
3460,72.0,14,60,4.0,0.0
3461,74.0,37,420,5.0,0.0
3462,58.0,0,420,7.0,0.0
3463,46.0,0,420,8.0,0.0
3464,67.0,46,90,0.0,0.0
3465,70.0,14,60,4.0,0.0
3466,65.0,58,60,0.0,0.0
3467,72.0,2,60,4.0,0.0
3468,67.0,50,90,0.0,0.0
3469,70.0,7,60,4.0,0.0
3470,65.0,3,90,0.0,0.0
3471,72.0,54,60,4.0,0.0
3472,67.0,6,90,0.0,0.0
3473,70.0,44,60,4.0,0.0
3474,65.0,16,90,0.0,0.0
3475,69.0,10,60,4.0,0.0
3476,67.0,13,90,0.0,0.0
3477,70.0,39,60,4.0,0.0
3478,65.0,48,90,0.0,0.0
3479,69.0,25,90,4.0,0.0
3480,60.0,22,420,7.0,0.0
3481,48.0,0,420,8.0,0.0
3482,75.0,0,420,5.0,0.0
3483,67.0,25,60,0.0,0.0
3484,65.0,45,90,0.0,0.0
3485,67.0,50,60,0.0,0.0
3486,70.0,15,90,4.0,0.0
3487,65.0,35,90,0.0,0.0
3488,67.0,67,60,0.0,0.0
3489,72.0,35,90,4.0,0.0
3490,65.0,3,90,0.0,0.0
3491,67.0,43,60,0.0,0.0
3492,65.0,20,90,0.0,0.0
3493,69.0,30,90,4.0,0.0
3494,67.0,55,90,0.0,0.0
3495,65.0,50,90,0.0,0.0
3496,57.0,15,420,7.0,0.0
3497,63.0,15,210,4.0,0.0
3498,60.0,0,420,5.0,0.0
3499,45.0,0,420,8.0,0.0
3500,67.0,40,90,0.0,0.0
3501,65.0,50,60,0.0,0.0
3502,67.0,42,90,0.0,0.0
3503,65.0,65,60,0.0,0.0
3504,63.0,20,210,4.0,0.0
3505,67.0,50,90,0.0,0.0
3506,65.0,41,90,0.0,0.0
3507,67.0,12,60,0.0,0.0
3508,65.0,62,60,0.0,0.0
3509,67.0,1,90,0.0,0.0
3510,53.0,22,420,7.0,0.0
3511,41.0,0,420,8.0,0.0
3512,65.0,49,60,4.0,0.0
3513,69.0,0,420,5.0,0.0
3514,65.0,11,90,0.0,0.0
3515,63.0,37,60,4.0,0.0
3516,67.0,23,90,0.0,0.0
3517,65.0,34,60,4.0,0.0
3518,65.0,26,90,0.0,0.0
3519,67.0,36,90,0.0,0.0
3520,63.0,24,60,4.0,0.0
3521,65.0,43,60,0.0,0.0
3522,65.0,2,60,4.0,0.0
3523,67.0,15,60,0.0,0.0
3524,63.0,37,60,4.0,0.0
3525,65.0,23,60,0.0,0.0
3526,62.0,10,60,4.0,0.0
3527,64.0,28,90,0.0,0.0
3528,63.0,105,60,4.0,0.0
3529,65.0,112,150,0.0,0.0
3530,58.0,53,210,7.0,0.0
3531,46.0,0,210,8.0,0.0
3532,62.0,0,210,4.0,0.0
3533,70.0,0,210,5.0,0.0
3534,63.0,107,150,0.0,0.0
3535,62.0,75,120,0.0,0.0
3536,63.0,145,120,0.0,0.0
3537,70.0,20,210,4.0,0.0
3538,38.0,0,210,8.0,0.0
3539,65.0,0,210,5.0,0.0
3540,50.0,0,210,7.0,0.0
3541,65.0,100,120,0.0,0.0
3542,63.0,120,120,0.0,0.0
3543,62.0,120,120,0.0,0.0
3544,60.0,120,120,0.0,0.0
3545,58.0,100,120,0.0,0.0
3546,58.0,0,210,5.0,0.0
3547,38.0,20,210,8.0,0.0
3548,77.0,0,210,4.0,0.0
3549,50.0,0,210,7.0,0.0
3550,57.0,120,120,0.0,0.0
3551,55.0,120,120,0.0,0.0
3552,53.0,228,120,0.0,0.0
3553,63.0,0,1380,6.0,0.0
3554,67.0,0,420,5.0,0.0
3555,72.0,60,420,4.0,0.0
3556,39.0,0,1380,8.0,0.0
3557,55.0,145,210,0.0,0.0
3558,51.0,0,1380,7.0,0.0
3559,57.0,60,120,0.0,0.0
3560,59.0,150,120,0.0,0.0
3561,63.0,0,420,5.0,0.0
3562,60.0,90,150,0.0,0.0
3563,75.0,60,420,4.0,0.0
3564,59.0,120,120,0.0,0.0
3565,60.0,60,120,0.0,0.0
3566,62.0,240,120,0.0,0.0
3567,60.0,267,420,5.0,0.0
3568,63.0,180,240,0.0,0.0
3569,79.0,0,420,4.0,0.0
3570,58.0,240,210,5.0,0.0
3571,65.0,0,210,6.0,0.0
3572,41.0,0,210,8.0,0.0
3573,74.0,0,210,4.0,0.0
3574,53.0,0,210,7.0,0.0
3575,53.0,128,480,0.0,0.0
3576,41.0,0,210,8.0,0.0
3577,74.0,0,210,4.0,0.0
3578,65.0,0,210,6.0,0.0
3579,53.0,0,210,7.0,0.0
3580,70.0,35,210,5.0,0.0
3581,62.0,72,150,0.0,0.0
3582,53.0,0,210,7.0,0.0
3583,41.0,0,210,8.0,0.0
3584,65.0,42,210,6.0,0.0
3585,70.0,0,210,5.0,0.0
3586,72.0,0,210,4.0,0.0
3587,60.0,5,90,0.0,0.0
3588,62.0,58,90,0.0,0.0
3589,60.0,47,90,0.0,0.0
3590,65.0,20,210,6.0,0.0
3591,41.0,0,210,8.0,0.0
3592,70.0,0,210,5.0,0.0
3593,53.0,0,210,7.0,0.0
3594,72.0,0,210,4.0,0.0
3595,62.0,55,90,0.0,0.0
3596,60.0,38,90,0.0,0.0
3597,62.0,48,90,0.0,0.0
3598,60.0,47,90,0.0,0.0
3599,62.0,57,90,0.0,0.0
3600,51.0,0,210,7.0,0.0
3601,39.0,0,210,8.0,0.0
3602,69.0,0,210,5.0,0.0
3603,72.0,0,210,4.0,0.0
3604,65.0,43,210,6.0,0.0
3605,60.0,50,90,0.0,0.0
3606,62.0,18,90,0.0,0.0
3607,60.0,44,90,0.0,0.0
3608,62.0,60,90,0.0,0.0
3609,72.0,0,210,4.0,0.0
3610,39.0,0,210,8.0,0.0
3611,69.0,20,210,5.0,0.0
3612,51.0,0,210,7.0,0.0
3613,65.0,0,210,6.0,0.0
3614,60.0,58,90,0.0,0.0
3615,58.0,35,90,0.0,0.0
3616,60.0,160,90,0.0,0.0
3617,65.0,60,150,0.0,0.0
3618,65.0,37,420,6.0,0.0
3619,70.0,0,210,4.0,0.0
3620,38.0,23,210,8.0,0.0
3621,70.0,0,210,5.0,0.0
3622,50.0,0,210,7.0,0.0
3623,63.0,107,120,0.0,0.0
3624,62.0,83,120,0.0,0.0
3625,63.0,120,120,0.0,0.0
3626,65.0,110,120,0.0,0.0
3627,70.0,0,210,5.0,0.0
3628,50.0,10,210,7.0,0.0
3629,38.0,0,210,8.0,0.0
3630,77.0,0,210,4.0,0.0
3631,63.0,120,120,0.0,0.0
3632,62.0,120,120,0.0,0.0
3633,60.0,120,120,0.0,0.0
3634,58.0,110,120,0.0,0.0
3635,38.0,10,210,8.0,0.0
3636,50.0,0,210,7.0,0.0
3637,74.0,0,210,4.0,0.0
3638,65.0,0,210,5.0,0.0
3639,57.0,120,120,0.0,0.0
3640,55.0,120,120,0.0,0.0
3641,53.0,240,120,0.0,0.0
3642,55.0,120,240,0.0,0.0
3643,72.0,0,420,4.0,0.0
3644,67.0,37,420,5.0,0.0
3645,39.0,0,1380,8.0,0.0
3646,51.0,0,1380,7.0,0.0
3647,63.0,277,1380,6.0,0.0
3648,57.0,83,120,0.0,0.0
3649,59.0,153,120,0.0,0.0
3650,60.0,87,150,0.0,0.0
3651,63.0,37,420,5.0,0.0
3652,75.0,0,420,4.0,0.0
3653,59.0,120,120,0.0,0.0
3654,60.0,83,120,0.0,0.0
3655,62.0,228,120,0.0,0.0
3656,63.0,215,210,0.0,0.0
3657,60.0,0,420,5.0,0.0
3658,79.0,0,420,4.0,0.0
3659,55.0,120,240,0.0,0.0
3660,57.0,120,120,0.0,0.0
3661,59.0,160,120,0.0,0.0
3662,60.0,80,150,0.0,0.0
3663,59.0,120,120,0.0,0.0
3664,60.0,120,120,0.0,0.0
3665,62.0,228,120,0.0,0.0
3666,63.0,482,210,0.0,0.0
3667,53.0,112,1440,0.0,0.0
3668,41.0,0,210,8.0,0.0
3669,65.0,0,210,6.0,0.0
3670,70.0,0,210,5.0,0.0
3671,74.0,0,210,4.0,0.0
3672,53.0,240,210,7.0,0.0
3673,41.0,0,210,8.0,0.0
3674,70.0,240,210,5.0,0.0
3675,53.0,0,210,7.0,0.0
3676,65.0,0,210,6.0,0.0
3677,74.0,0,210,4.0,0.0
3678,53.0,0,210,7.0,0.0
3679,65.0,0,210,6.0,0.0
3680,41.0,240,210,8.0,0.0
3681,70.0,0,210,5.0,0.0
3682,74.0,0,210,4.0,0.0
3683,74.0,0,210,4.0,0.0
3684,70.0,0,210,5.0,0.0
3685,65.0,240,210,6.0,0.0
3686,53.0,0,210,7.0,0.0
3687,41.0,0,210,8.0,0.0
3688,53.0,0,210,7.0,0.0
3689,65.0,240,210,6.0,0.0
3690,70.0,0,210,5.0,0.0
3691,74.0,0,210,4.0,0.0
3692,41.0,0,210,8.0,0.0
3693,65.0,23,210,6.0,0.0
3694,74.0,0,210,4.0,0.0
3695,70.0,0,210,5.0,0.0
3696,53.0,0,210,7.0,0.0
3697,41.0,0,210,8.0,0.0
3698,62.0,10,210,0.0,0.0
3699,69.0,0,90,5.0,0.0
3700,29.0,5,210,8.0,0.0
3701,41.0,0,210,7.0,0.0
3702,63.0,105,90,6.0,0.0
3703,72.0,0,90,4.0,0.0
3704,69.0,0,90,5.0,0.0
3705,72.0,60,90,4.0,0.0
3706,63.0,0,90,6.0,0.0
3707,60.0,60,90,0.0,0.0
3708,29.0,15,210,8.0,0.0
3709,63.0,0,90,6.0,0.0
3710,41.0,0,210,7.0,0.0
3711,72.0,0,90,4.0,0.0
3712,69.0,3,90,5.0,0.0
3713,62.0,62,60,0.0,0.0
3714,60.0,40,60,0.0,0.0
3715,72.0,0,90,4.0,0.0
3716,69.0,0,90,5.0,0.0
3717,63.0,50,90,6.0,0.0
3718,62.0,0,60,0.0,0.0
3719,60.0,58,60,0.0,0.0
3720,63.0,43,90,6.0,0.0
3721,29.0,15,210,8.0,0.0
3722,41.0,0,210,7.0,0.0
3723,69.0,0,90,5.0,0.0
3724,72.0,0,90,4.0,0.0
3725,62.0,12,60,0.0,0.0
3726,60.0,60,60,0.0,0.0
3727,72.0,0,90,4.0,0.0
3728,63.0,0,90,6.0,0.0
3729,69.0,22,90,5.0,0.0
3730,62.0,2,60,0.0,0.0
3731,60.0,66,60,0.0,0.0
3732,62.0,32,60,0.0,0.0
3733,72.0,0,90,4.0,0.0
3734,69.0,73,90,5.0,0.0
3735,63.0,0,90,6.0,0.0
3736,29.0,0,210,8.0,0.0
3737,41.0,10,210,7.0,0.0
3738,60.0,0,60,0.0,0.0
3739,62.0,32,60,0.0,0.0
3740,63.0,0,90,6.0,0.0
3741,69.0,33,90,5.0,0.0
3742,72.0,0,90,4.0,0.0
3743,60.0,5,60,0.0,0.0
3744,62.0,52,60,0.0,0.0
3745,69.0,3,90,5.0,0.0
3746,72.0,0,90,4.0,0.0
3747,29.0,0,210,8.0,0.0
3748,63.0,0,90,6.0,0.0
3749,41.0,15,210,7.0,0.0
3750,60.0,35,60,0.0,0.0
3751,62.0,57,60,0.0,0.0
3752,60.0,45,60,0.0,0.0
3753,72.0,0,90,4.0,0.0
3754,69.0,5,90,5.0,0.0
3755,63.0,0,90,6.0,0.0
3756,62.0,47,60,0.0,0.0
3757,60.0,53,60,0.0,0.0
3758,63.0,0,90,6.0,0.0
3759,69.0,20,90,5.0,0.0
3760,29.0,15,210,8.0,0.0
3761,72.0,0,90,4.0,0.0
3762,41.0,0,210,7.0,0.0
3763,62.0,15,60,0.0,0.0
3764,60.0,70,60,0.0,0.0
3765,63.0,0,90,6.0,0.0
3766,72.0,32,90,4.0,0.0
3767,69.0,0,90,5.0,0.0
3768,58.0,15,60,0.0,0.0
3769,60.0,406,90,0.0,0.0
3770,58.0,335,570,0.0,0.0
3771,62.0,0,900,4.0,0.0
3772,70.0,0,900,4.0,0.0
3773,58.0,145,420,3.0,0.0
3774,58.0,0,420,7.0,0.0
3775,62.0,0,900,2.0,0.0
3776,70.0,0,900,2.0,0.0
3777,65.0,0,900,5.0,0.0
3778,70.0,0,900,1.0,0.0
3779,62.0,0,420,6.0,0.0
3780,46.0,0,420,8.0,0.0
3781,50.0,267,420,8.0,0.0
3782,70.0,0,420,6.0,0.0
3783,62.0,0,420,3.0,0.0
3784,62.0,0,420,7.0,0.0
3785,63.0,0,210,5.0,0.0
3786,72.0,0,210,4.0,0.0
3787,58.0,27,420,3.0,0.0
3788,46.0,0,420,8.0,0.0
3789,69.0,0,210,6.0,0.0
3790,69.0,213,210,1.0,0.0
3791,72.0,0,210,1.0,0.0
3792,58.0,0,420,7.0,0.0
3793,62.0,0,210,5.0,0.0
3794,74.0,0,210,4.0,0.0
3795,70.0,0,210,1.0,0.0
3796,74.0,0,210,1.0,0.0
3797,70.0,240,210,6.0,0.0
3798,67.0,27,420,5.0,0.0
3799,77.0,213,210,4.0,0.0
3800,67.0,0,450,1.0,0.0
3801,67.0,0,900,6.0,0.0
3802,48.0,0,420,8.0,0.0
3803,60.0,0,420,3.0,0.0
3804,60.0,0,420,7.0,0.0
3805,77.0,0,210,1.0,0.0
3806,75.0,0,210,1.0,0.0
3807,75.0,453,210,4.0,0.0
3808,70.0,0,420,2.0,0.0
3809,55.0,0,420,3.0,0.0
3810,75.0,0,900,1.0,0.0
3811,70.0,0,420,1.0,0.0
3812,58.0,0,420,5.0,0.0
3813,58.0,480,420,2.0,0.0
3814,43.0,0,420,8.0,0.0
3815,55.0,0,420,7.0,0.0
3816,75.0,0,900,4.0,0.0
3817,60.0,0,420,5.0,0.0
3818,45.0,267,420,8.0,0.0
3819,65.0,0,420,2.0,0.0
3820,72.0,0,420,2.0,0.0
3821,57.0,0,420,3.0,0.0
3822,65.0,0,420,6.0,0.0
3823,57.0,0,420,7.0,0.0
3824,72.0,0,420,1.0,0.0
3825,65.0,0,210,6.0,0.0
3826,74.0,27,900,2.0,0.0
3827,74.0,0,210,1.0,0.0
3828,70.0,0,450,1.0,0.0
3829,46.0,27,420,8.0,0.0
3830,74.0,0,210,4.0,0.0
3831,58.0,0,420,3.0,0.0
3832,58.0,0,420,7.0,0.0
3833,58.0,213,210,5.0,0.0
3834,70.0,0,900,2.0,0.0
3835,62.0,0,210,6.0,0.0
3836,77.0,240,210,1.0,0.0
3837,77.0,0,210,4.0,0.0
3838,62.0,0,210,5.0,0.0
3839,70.0,0,210,4.0,0.0
3840,62.0,213,210,5.0,0.0
3841,55.0,0,420,7.0,0.0
3842,43.0,0,420,8.0,0.0
3843,82.0,0,420,1.0,0.0
3844,74.0,0,420,1.0,0.0
3845,55.0,0,420,3.0,0.0
3846,67.0,0,210,6.0,0.0
3847,74.0,0,210,4.0,0.0
3848,58.0,240,210,6.0,0.0
3849,70.0,0,210,5.0,0.0
3850,75.0,0,420,2.0,0.0
3851,63.0,213,210,6.0,0.0
3852,39.0,27,420,8.0,0.0
3853,67.0,0,210,5.0,0.0
3854,51.0,0,420,3.0,0.0
3855,79.0,0,210,1.0,0.0
3856,72.0,0,420,2.0,0.0
3857,51.0,0,420,7.0,0.0
3858,67.0,0,210,4.0,0.0
3859,60.0,0,210,6.0,0.0
3860,72.0,0,210,4.0,0.0
3861,75.0,0,210,1.0,0.0
3862,84.0,0,210,1.0,0.0
3863,63.0,240,210,5.0,0.0
3864,41.0,0,420,8.0,0.0
3865,62.0,213,210,5.0,0.0
3866,65.0,0,2340,2.0,0.0
3867,53.0,27,420,7.0,0.0
3868,53.0,0,420,6.0,0.0
3869,53.0,0,420,3.0,0.0
3870,70.0,0,210,4.0,0.0
3871,82.0,0,210,1.0,0.0
3872,74.0,0,210,1.0,0.0
3873,60.0,0,210,5.0,0.0
3874,72.0,240,210,1.0,0.0
3875,81.0,0,210,1.0,0.0
3876,69.0,0,210,4.0,0.0
3877,67.0,213,210,4.0,0.0
3878,53.0,27,420,7.0,0.0
3879,70.0,0,210,1.0,0.0
3880,79.0,0,210,1.0,0.0
3881,58.0,0,210,5.0,0.0
3882,41.0,0,420,8.0,0.0
3883,53.0,0,420,3.0,0.0
3884,65.0,0,420,6.0,0.0
3885,57.0,0,210,5.0,0.0
3886,77.0,0,210,1.0,0.0
3887,69.0,240,210,1.0,0.0
3888,65.0,0,210,4.0,0.0
3889,51.0,0,420,7.0,0.0
3890,51.0,0,420,3.0,0.0
3891,58.0,0,210,5.0,0.0
3892,67.0,213,210,4.0,0.0
3893,70.0,0,210,1.0,0.0
3894,79.0,0,210,1.0,0.0
3895,65.0,27,420,6.0,0.0
3896,39.0,0,420,8.0,0.0
3897,60.0,0,210,5.0,0.0
3898,69.0,0,210,4.0,0.0
3899,72.0,453,210,1.0,0.0
3900,81.0,0,210,1.0,0.0
3901,50.0,480,420,7.0,0.0
3902,70.0,0,900,4.0,0.0
3903,62.0,0,900,4.0,0.0
3904,65.0,0,420,6.0,0.0
3905,82.0,0,420,1.0,0.0
3906,74.0,0,420,1.0,0.0
3907,50.0,0,420,3.0,0.0
3908,38.0,0,420,8.0,0.0
3909,62.0,0,420,5.0,0.0
3910,58.0,0,900,2.0,0.0
3911,65.0,0,420,5.0,0.0
3912,70.0,0,420,6.0,0.0
3913,70.0,267,420,1.0,0.0
3914,50.0,0,420,8.0,0.0
3915,62.0,0,420,7.0,0.0
3916,62.0,0,420,3.0,0.0
3917,69.0,0,210,6.0,0.0
3918,63.0,0,210,5.0,0.0
3919,58.0,0,420,3.0,0.0
3920,72.0,0,210,1.0,0.0
3921,72.0,213,210,4.0,0.0
3922,58.0,27,420,7.0,0.0
3923,69.0,0,210,1.0,0.0
3924,46.0,0,420,8.0,0.0
3925,62.0,0,210,5.0,0.0
3926,74.0,0,210,1.0,0.0
3927,70.0,0,210,6.0,0.0
3928,74.0,0,210,4.0,0.0
3929,70.0,240,210,1.0,0.0
3930,77.0,0,210,4.0,0.0
3931,48.0,0,420,8.0,0.0
3932,60.0,0,420,7.0,0.0
3933,67.0,0,900,6.0,0.0
3934,77.0,213,210,1.0,0.0
3935,67.0,0,450,1.0,0.0
3936,60.0,0,420,3.0,0.0
3937,67.0,27,420,5.0,0.0
3938,75.0,453,210,1.0,0.0
3939,75.0,0,210,4.0,0.0
3940,70.0,0,420,1.0,0.0
3941,70.0,0,420,2.0,0.0
3942,58.0,480,420,5.0,0.0
3943,75.0,370,900,1.0,0.0
3944,58.0,0,420,2.0,0.0
3945,43.0,0,420,8.0,0.0
3946,75.0,0,900,4.0,0.0
3947,55.0,0,420,7.0,0.0
3948,55.0,0,420,3.0,0.0
3949,57.0,0,420,3.0,0.0
3950,72.0,0,420,2.0,0.0
3951,57.0,0,420,7.0,0.0
3952,72.0,0,420,1.0,0.0
3953,65.0,0,420,6.0,0.0
3954,65.0,0,420,2.0,0.0
3955,45.0,0,420,8.0,0.0
3956,60.0,0,420,5.0,0.0
3957,46.0,0,420,8.0,0.0
3958,58.0,0,420,7.0,0.0
3959,74.0,0,300,1.0,0.0
3960,58.0,0,420,3.0,0.0
3961,70.0,0,900,2.0,0.0
3962,74.0,100,300,4.0,0.0
3963,65.0,42,420,6.0,0.0
3964,65.0,0,420,5.0,0.0
3965,70.0,8,450,1.0,0.0
3966,74.0,0,900,2.0,0.0
3967,77.0,0,90,1.0,0.0
3968,75.0,10,60,4.0,0.0
3969,77.0,430,60,4.0,0.0
3970,82.0,0,420,1.0,0.0
3971,53.0,0,420,7.0,0.0
3972,70.0,0,420,4.0,0.0
3973,53.0,0,420,3.0,0.0
3974,74.0,0,420,1.0,0.0
3975,62.0,480,420,5.0,0.0
3976,41.0,0,420,8.0,0.0
3977,65.0,0,420,6.0,0.0
3978,81.0,0,420,1.0,0.0
3979,65.0,0,420,6.0,0.0
3980,41.0,0,420,3.0,0.0
3981,41.0,0,420,7.0,0.0
3982,60.0,0,420,5.0,0.0
3983,69.0,0,420,4.0,0.0
3984,72.0,0,420,1.0,0.0
3985,29.0,267,420,8.0,0.0
3986,65.0,0,420,2.0,0.0
3987,72.0,0,420,2.0,0.0
3988,74.0,0,900,1.0,0.0
3989,82.0,27,900,1.0,0.0
3990,70.0,0,1380,2.0,0.0
3991,62.0,27,1380,2.0,0.0
3992,50.0,0,210,7.0,0.0
3993,62.0,0,300,5.0,0.0
3994,62.0,0,210,6.0,0.0
3995,50.0,103,210,3.0,0.0
3996,77.0,100,300,4.0,0.0
3997,70.0,0,300,4.0,0.0
3998,38.0,0,210,8.0,0.0
3999,62.0,0,210,6.0,0.0
4000,50.0,0,210,7.0,0.0
4001,50.0,0,210,3.0,0.0
4002,38.0,23,210,8.0,0.0
4003,79.0,37,60,4.0,0.0
4004,81.0,112,60,4.0,0.0
4005,50.0,0,210,7.0,0.0
4006,50.0,0,210,3.0,0.0
4007,62.0,15,210,6.0,0.0
4008,82.0,105,90,4.0,0.0
4009,38.0,0,210,8.0,0.0
4010,81.0,120,90,4.0,0.0
4011,62.0,0,210,6.0,0.0
4012,50.0,15,210,3.0,0.0
4013,50.0,0,210,7.0,0.0
4014,79.0,78,90,4.0,0.0
4015,38.0,0,210,8.0,0.0
4016,77.0,120,90,4.0,0.0
4017,62.0,0,210,6.0,0.0
4018,50.0,0,210,7.0,0.0
4019,75.0,105,90,4.0,0.0
4020,38.0,15,210,8.0,0.0
4021,50.0,0,210,3.0,0.0
4022,74.0,0,420,1.0,0.0
4023,77.0,0,420,1.0,0.0
4024,74.0,120,90,4.0,0.0
4025,72.0,78,90,4.0,0.0
4026,50.0,0,210,3.0,0.0
4027,38.0,0,210,8.0,0.0
4028,62.0,0,210,6.0,0.0
4029,50.0,15,210,7.0,0.0
4030,70.0,120,90,4.0,0.0
4031,51.0,0,210,7.0,0.0
4032,75.0,27,420,1.0,0.0
4033,63.0,0,210,6.0,0.0
4034,75.0,105,90,4.0,0.0
4035,39.0,15,210,8.0,0.0
4036,72.0,0,420,1.0,0.0
4037,51.0,0,210,3.0,0.0
4038,77.0,120,90,4.0,0.0
4039,51.0,0,210,7.0,0.0
4040,79.0,78,90,4.0,0.0
4041,63.0,0,210,6.0,0.0
4042,51.0,15,210,3.0,0.0
4043,39.0,0,210,8.0,0.0
4044,75.0,120,90,4.0,0.0
4045,53.0,15,210,3.0,0.0
4046,65.0,0,420,2.0,0.0
4047,41.0,0,210,8.0,0.0
4048,74.0,0,420,1.0,0.0
4049,70.0,27,420,1.0,0.0
4050,65.0,0,210,6.0,0.0
4051,74.0,105,90,4.0,0.0
4052,53.0,0,210,7.0,0.0
4053,75.0,120,90,4.0,0.0
4054,77.0,78,90,4.0,0.0
4055,65.0,0,210,6.0,0.0
4056,41.0,0,210,8.0,0.0
4057,53.0,15,210,3.0,0.0
4058,53.0,0,210,7.0,0.0
4059,74.0,120,90,4.0,0.0
4060,63.0,15,210,6.0,0.0
4061,69.0,27,420,1.0,0.0
4062,51.0,0,210,7.0,0.0
4063,39.0,0,210,8.0,0.0
4064,72.0,0,420,1.0,0.0
4065,51.0,0,210,3.0,0.0
4066,65.0,0,420,2.0,0.0
4067,72.0,105,90,4.0,0.0
4068,74.0,120,90,4.0,0.0
4069,51.0,0,210,3.0,0.0
4070,51.0,0,210,7.0,0.0
4071,39.0,15,210,8.0,0.0
4072,75.0,78,90,4.0,0.0
4073,63.0,0,210,6.0,0.0
4074,72.0,225,90,4.0,0.0
4075,77.0,0,300,4.0,0.0
4076,70.0,0,300,5.0,0.0
4077,38.0,0,210,8.0,0.0
4078,50.0,103,210,3.0,0.0
4079,62.0,100,300,5.0,0.0
4080,58.0,0,1860,2.0,0.0
4081,70.0,27,1860,2.0,0.0
4082,74.0,27,900,1.0,0.0
4083,62.0,0,210,6.0,0.0
4084,50.0,0,210,7.0,0.0
4085,82.0,0,900,1.0,0.0
4086,38.0,0,210,8.0,0.0
4087,50.0,0,210,3.0,0.0
4088,50.0,23,210,7.0,0.0
4089,62.0,0,210,6.0,0.0
4090,79.0,37,60,4.0,0.0
4091,81.0,112,60,4.0,0.0
4092,50.0,0,210,3.0,0.0
4093,38.0,15,210,8.0,0.0
4094,82.0,105,90,4.0,0.0
4095,62.0,0,210,6.0,0.0
4096,50.0,0,210,7.0,0.0
4097,81.0,120,90,4.0,0.0
4098,50.0,0,210,7.0,0.0
4099,62.0,15,210,6.0,0.0
4100,38.0,0,210,8.0,0.0
4101,50.0,0,210,3.0,0.0
4102,79.0,78,90,4.0,0.0
4103,77.0,120,90,4.0,0.0
4104,75.0,105,90,4.0,0.0
4105,38.0,0,210,8.0,0.0
4106,50.0,0,210,3.0,0.0
4107,74.0,0,420,1.0,0.0
4108,77.0,27,420,1.0,0.0
4109,50.0,15,210,7.0,0.0
4110,62.0,0,210,6.0,0.0
4111,74.0,120,90,4.0,0.0
4112,38.0,0,210,8.0,0.0
4113,50.0,15,210,3.0,0.0
4114,50.0,0,210,7.0,0.0
4115,72.0,78,90,4.0,0.0
4116,62.0,0,210,6.0,0.0
4117,70.0,120,90,4.0,0.0
4118,75.0,105,90,4.0,0.0
4119,39.0,0,210,8.0,0.0
4120,51.0,0,210,3.0,0.0
4121,63.0,15,210,6.0,0.0
4122,51.0,0,210,7.0,0.0
4123,75.0,0,420,1.0,0.0
4124,72.0,0,420,1.0,0.0
4125,77.0,120,90,4.0,0.0
4126,39.0,15,210,8.0,0.0
4127,63.0,0,210,6.0,0.0
4128,79.0,78,90,4.0,0.0
4129,51.0,0,210,7.0,0.0
4130,51.0,0,210,3.0,0.0
4131,75.0,120,90,4.0,0.0
4132,70.0,0,420,2.0,0.0
4133,70.0,0,420,1.0,0.0
4134,74.0,27,420,2.0,0.0
4135,53.0,0,210,7.0,0.0
4136,41.0,15,210,8.0,0.0
4137,53.0,0,210,3.0,0.0
4138,74.0,0,420,1.0,0.0
4139,74.0,105,90,4.0,0.0
4140,65.0,0,210,6.0,0.0
4141,75.0,120,90,4.0,0.0
4142,53.0,15,210,7.0,0.0
4143,77.0,78,90,4.0,0.0
4144,41.0,0,210,8.0,0.0
4145,53.0,0,210,3.0,0.0
4146,65.0,0,210,6.0,0.0
4147,74.0,120,90,4.0,0.0
4148,72.0,0,420,2.0,0.0
4149,65.0,0,420,2.0,0.0
4150,72.0,27,420,1.0,0.0
4151,72.0,105,90,4.0,0.0
4152,69.0,0,420,1.0,0.0
4153,53.0,0,210,6.0,0.0
4154,29.0,15,210,8.0,0.0
4155,41.0,0,210,3.0,0.0
4156,41.0,0,210,7.0,0.0
4157,74.0,120,90,4.0,0.0
4158,75.0,78,90,4.0,0.0
4159,41.0,0,210,7.0,0.0
4160,29.0,15,210,8.0,0.0
4161,41.0,0,210,3.0,0.0
4162,53.0,0,210,6.0,0.0
4163,72.0,225,90,4.0,0.0
4164,70.0,0,420,4.0,0.0
4165,46.0,0,210,3.0,0.0
4166,34.0,0,210,8.0,0.0
4167,58.0,0,210,6.0,0.0
4168,46.0,213,210,7.0,0.0
4169,62.0,0,420,2.0,0.0
4170,70.0,0,420,2.0,0.0
4171,70.0,27,420,1.0,0.0
4172,34.0,0,210,8.0,0.0
4173,46.0,0,210,7.0,0.0
4174,46.0,0,210,3.0,0.0
4175,58.0,240,210,6.0,0.0
4176,74.0,0,420,1.0,0.0
4177,62.0,0,420,2.0,0.0
4178,50.0,0,210,7.0,0.0
4179,62.0,0,210,6.0,0.0
4180,58.0,0,420,5.0,0.0
4181,82.0,0,420,4.0,0.0
4182,50.0,0,210,3.0,0.0
4183,82.0,0,420,1.0,0.0
4184,38.0,213,210,8.0,0.0
4185,70.0,27,420,4.0,0.0
4186,70.0,0,420,2.0,0.0
4187,34.0,0,210,8.0,0.0
4188,58.0,240,210,6.0,0.0
4189,46.0,0,210,3.0,0.0
4190,46.0,0,210,7.0,0.0
4191,82.0,27,420,4.0,0.0
4192,50.0,0,210,7.0,0.0
4193,38.0,213,210,8.0,0.0
4194,62.0,0,210,6.0,0.0
4195,50.0,0,210,3.0,0.0
4196,58.0,0,420,5.0,0.0
4197,74.0,0,420,1.0,0.0
4198,62.0,0,420,2.0,0.0
4199,82.0,0,420,1.0,0.0
4200,70.0,0,420,2.0,0.0
4201,70.0,0,420,4.0,0.0
4202,53.0,0,210,7.0,0.0
4203,65.0,0,210,6.0,0.0
4204,53.0,453,210,3.0,0.0
4205,41.0,0,210,8.0,0.0
4206,46.0,0,420,8.0,0.0
4207,62.0,0,420,2.0,0.0
4208,70.0,0,420,2.0,0.0
4209,58.0,480,420,7.0,0.0
4210,70.0,0,420,4.0,0.0
4211,82.0,0,420,4.0,0.0
4212,70.0,0,420,6.0,0.0
4213,74.0,0,420,1.0,0.0
4214,58.0,0,420,5.0,0.0
4215,82.0,0,420,1.0,0.0
4216,58.0,0,420,3.0,0.0
4217,58.0,0,420,4.0,0.0
4218,70.0,0,420,1.0,0.0
4219,46.0,0,420,7.0,0.0
4220,46.0,0,420,3.0,0.0
4221,58.0,0,420,2.0,0.0
4222,34.0,0,420,8.0,0.0
4223,58.0,307,420,6.0,0.0
