,note,step,duration,channel,velocity
0,82.0,30,1860,1.0,0.0
1,34.0,2,210,8.0,0.0
2,82.0,2,420,4.0,0.0
3,74.0,28,3780,1.0,0.0
4,46.0,2,210,7.0,0.0
5,74.0,2,420,4.0,0.0
6,46.0,2,210,3.0,0.0
7,70.0,0,420,2.0,0.0
8,77.0,24,420,5.0,0.0
9,58.0,206,210,6.0,0.0
10,46.0,4,210,3.0,0.0
11,34.0,0,210,8.0,0.0
12,46.0,4,210,7.0,0.0
13,58.0,232,210,6.0,0.0
14,46.0,4,210,7.0,0.0
15,82.0,6,900,4.0,0.0
16,34.0,0,210,8.0,0.0
17,46.0,6,210,3.0,0.0
18,74.0,2,900,5.0,0.0
19,70.0,18,870,2.0,0.0
20,77.0,18,900,5.0,0.0
21,58.0,232,210,6.0,0.0
22,34.0,4,210,8.0,0.0
23,46.0,0,210,7.0,0.0
24,46.0,0,210,3.0,0.0
25,58.0,238,210,6.0,0.0
26,34.0,2,210,8.0,0.0
27,46.0,0,210,3.0,0.0
28,46.0,4,210,7.0,0.0
29,58.0,184,210,6.0,0.0
30,46.0,4,210,3.0,0.0
31,34.0,0,210,8.0,0.0
32,46.0,8,210,7.0,0.0
33,58.0,228,210,6.0,0.0
34,86.0,6,390,4.0,0.0
35,46.0,4,210,3.0,0.0
36,34.0,2,210,8.0,0.0
37,82.0,24,390,5.0,0.0
38,74.0,4,390,2.0,0.0
39,46.0,2,210,7.0,0.0
40,58.0,172,210,6.0,0.0
41,34.0,0,210,8.0,0.0
42,46.0,4,210,3.0,0.0
43,46.0,2,210,7.0,0.0
44,58.0,50,210,6.0,0.0
45,82.0,6,180,4.0,0.0
46,70.0,20,150,2.0,0.0
47,77.0,154,180,5.0,0.0
48,46.0,4,210,3.0,0.0
49,34.0,0,210,8.0,0.0
50,77.0,2,420,4.0,0.0
51,46.0,4,210,7.0,0.0
52,65.0,4,420,2.0,0.0
53,77.0,0,2340,1.0,0.0
54,74.0,24,420,5.0,0.0
55,58.0,206,210,6.0,0.0
56,46.0,4,210,3.0,0.0
57,34.0,0,210,8.0,0.0
58,58.0,0,210,6.0,0.0
59,46.0,234,210,7.0,0.0
60,77.0,4,900,4.0,0.0
61,65.0,8,900,2.0,0.0
62,46.0,2,210,3.0,0.0
63,46.0,6,210,7.0,0.0
64,34.0,0,210,8.0,0.0
65,74.0,20,900,5.0,0.0
66,58.0,232,210,6.0,0.0
67,34.0,0,210,8.0,0.0
68,46.0,2,210,3.0,0.0
69,46.0,6,210,7.0,0.0
70,58.0,230,210,6.0,0.0
71,46.0,6,210,3.0,0.0
72,34.0,2,210,8.0,0.0
73,46.0,0,210,7.0,0.0
74,58.0,202,210,6.0,0.0
75,46.0,0,210,3.0,0.0
76,34.0,4,210,8.0,0.0
77,46.0,4,210,7.0,0.0
78,58.0,232,210,6.0,0.0
79,74.0,22,390,4.0,0.0
80,46.0,2,210,3.0,0.0
81,65.0,8,420,5.0,0.0
82,34.0,4,210,8.0,0.0
83,62.0,12,390,2.0,0.0
84,46.0,4,210,7.0,0.0
85,58.0,160,210,6.0,0.0
86,46.0,2,210,7.0,0.0
87,34.0,2,210,8.0,0.0
88,58.0,0,210,6.0,0.0
89,46.0,54,210,3.0,0.0
90,70.0,30,180,4.0,0.0
91,58.0,20,150,2.0,0.0
92,62.0,134,180,5.0,0.0
93,65.0,6,420,4.0,0.0
94,53.0,148,540,2.0,0.0
95,65.0,2,450,2.0,0.0
96,72.0,2,420,1.0,0.0
97,33.0,2,210,8.0,0.0
98,45.0,0,210,7.0,0.0
99,60.0,22,420,5.0,0.0
100,45.0,6,210,3.0,0.0
101,57.0,198,210,6.0,0.0
102,33.0,4,210,8.0,0.0
103,45.0,0,210,3.0,0.0
104,65.0,86,210,6.0,0.0
105,45.0,0,210,7.0,0.0
106,75.0,2,900,4.0,0.0
107,33.0,2,210,8.0,0.0
108,65.0,154,540,1.0,0.0
109,65.0,2,900,2.0,0.0
110,45.0,2,210,7.0,0.0
111,45.0,2,210,3.0,0.0
112,69.0,10,420,1.0,0.0
113,72.0,2,900,2.0,0.0
114,72.0,12,900,5.0,0.0
115,65.0,224,210,6.0,0.0
116,33.0,2,210,8.0,0.0
117,45.0,6,210,3.0,0.0
118,45.0,2,210,7.0,0.0
119,65.0,76,210,6.0,0.0
120,45.0,2,210,8.0,0.0
121,57.0,2,210,7.0,0.0
122,57.0,2,210,3.0,0.0
123,72.0,10,420,1.0,0.0
124,69.0,172,510,1.0,0.0
125,65.0,206,210,6.0,0.0
126,45.0,2,210,8.0,0.0
127,57.0,6,210,3.0,0.0
128,57.0,4,210,7.0,0.0
129,65.0,58,210,6.0,0.0
130,72.0,2,420,1.0,0.0
131,57.0,2,210,3.0,0.0
132,75.0,2,420,2.0,0.0
133,45.0,4,210,8.0,0.0
134,75.0,2,420,4.0,0.0
135,72.0,0,420,2.0,0.0
136,75.0,4,420,1.0,0.0
137,65.0,0,210,6.0,0.0
138,57.0,204,210,7.0,0.0
139,72.0,18,420,5.0,0.0
140,57.0,2,210,3.0,0.0
141,45.0,4,210,8.0,0.0
142,57.0,73,210,7.0,0.0
143,65.0,0,210,6.0,0.0
144,77.0,61,60,2.0,0.0
145,74.0,0,60,2.0,0.0
146,46.0,2,210,8.0,0.0
147,77.0,2,120,4.0,0.0
148,74.0,0,120,1.0,0.0
149,77.0,3,120,1.0,0.0
150,58.0,2,210,3.0,0.0
151,58.0,54,210,7.0,0.0
152,74.0,14,120,5.0,0.0
153,65.0,0,210,6.0,0.0
154,75.0,0,60,2.0,0.0
155,72.0,59,60,2.0,0.0
156,75.0,6,120,4.0,0.0
157,75.0,0,120,1.0,0.0
158,72.0,3,120,1.0,0.0
159,72.0,12,120,5.0,0.0
160,77.0,1,60,2.0,0.0
161,74.0,0,60,2.0,0.0
162,77.0,6,120,4.0,0.0
163,77.0,0,120,1.0,0.0
164,74.0,3,120,1.0,0.0
165,74.0,12,120,5.0,0.0
166,75.0,59,60,2.0,0.0
167,72.0,0,60,2.0,0.0
168,75.0,6,120,4.0,0.0
169,72.0,0,120,1.0,0.0
170,58.0,2,210,3.0,0.0
171,75.0,3,120,1.0,0.0
172,58.0,2,210,7.0,0.0
173,72.0,12,120,5.0,0.0
174,46.0,10,210,8.0,0.0
175,65.0,26,210,6.0,0.0
176,77.0,59,60,2.0,0.0
177,74.0,0,60,2.0,0.0
178,77.0,6,120,4.0,0.0
179,77.0,3,120,1.0,0.0
180,74.0,0,120,1.0,0.0
181,74.0,12,120,5.0,0.0
182,72.0,0,60,2.0,0.0
183,75.0,3,60,2.0,0.0
184,72.0,16,120,5.0,0.0
185,75.0,18,120,4.0,0.0
186,72.0,0,120,1.0,0.0
187,75.0,166,120,1.0,0.0
188,70.0,2,450,1.0,0.0
189,58.0,4,210,3.0,0.0
190,74.0,6,480,4.0,0.0
191,74.0,0,420,2.0,0.0
192,74.0,30,450,1.0,0.0
193,70.0,28,420,2.0,0.0
194,46.0,2,210,8.0,0.0
195,70.0,186,480,5.0,0.0
196,58.0,8,210,7.0,0.0
197,65.0,200,210,6.0,0.0
198,58.0,2,210,7.0,0.0
199,46.0,2,210,8.0,0.0
200,65.0,6,210,6.0,0.0
201,58.0,2,210,3.0,0.0
202,38.0,2,210,8.0,0.0
203,50.0,2,210,3.0,0.0
204,50.0,228,210,7.0,0.0
205,53.0,8,420,6.0,0.0
206,50.0,2,210,3.0,0.0
207,38.0,0,210,8.0,0.0
208,50.0,158,210,7.0,0.0
209,50.0,2,210,7.0,0.0
210,79.0,82,120,4.0,0.0
211,50.0,2,210,3.0,0.0
212,38.0,34,210,8.0,0.0
213,58.0,2,420,5.0,0.0
214,53.0,18,420,6.0,0.0
215,77.0,114,120,4.0,0.0
216,75.0,68,120,4.0,0.0
217,50.0,0,210,3.0,0.0
218,38.0,4,210,8.0,0.0
219,50.0,8,210,7.0,0.0
220,74.0,226,90,4.0,0.0
221,51.0,4,210,3.0,0.0
222,39.0,2,210,8.0,0.0
223,60.0,24,420,5.0,0.0
224,74.0,156,270,4.0,0.0
225,55.0,140,1020,6.0,0.0
226,51.0,54,210,7.0,0.0
227,72.0,174,270,4.0,0.0
228,51.0,6,210,3.0,0.0
229,39.0,2,210,8.0,0.0
230,51.0,60,210,7.0,0.0
231,51.0,4,210,7.0,0.0
232,62.0,138,1020,5.0,0.0
233,70.0,22,990,4.0,0.0
234,39.0,0,210,8.0,0.0
235,51.0,236,210,3.0,0.0
236,51.0,0,210,7.0,0.0
237,39.0,2,210,8.0,0.0
238,51.0,100,210,3.0,0.0
239,53.0,2,210,3.0,0.0
240,41.0,2,210,8.0,0.0
241,53.0,236,210,7.0,0.0
242,53.0,18,900,6.0,0.0
243,53.0,2,210,3.0,0.0
244,53.0,0,210,7.0,0.0
245,41.0,74,210,8.0,0.0
246,53.0,6,210,3.0,0.0
247,69.0,6,420,4.0,0.0
248,41.0,2,210,8.0,0.0
249,63.0,6,420,5.0,0.0
250,53.0,204,210,7.0,0.0
251,53.0,2,210,3.0,0.0
252,53.0,2,210,7.0,0.0
253,41.0,134,210,8.0,0.0
254,46.0,4,420,3.0,0.0
255,70.0,0,90,4.0,0.0
256,62.0,106,90,5.0,0.0
257,70.0,0,1860,2.0,0.0
258,46.0,0,420,7.0,0.0
259,77.0,2,1860,1.0,0.0
260,74.0,0,1860,1.0,0.0
261,58.0,12,210,6.0,0.0
262,34.0,30,420,8.0,0.0
263,62.0,20,1860,2.0,0.0
264,65.0,122,90,4.0,0.0
265,65.0,74,90,4.0,0.0
266,62.0,12,210,6.0,0.0
267,65.0,114,90,4.0,0.0
268,65.0,118,90,4.0,0.0
269,65.0,4,210,6.0,0.0
270,65.0,120,90,4.0,0.0
271,65.0,106,90,4.0,0.0
272,62.0,4,210,3.0,0.0
273,50.0,4,210,8.0,0.0
274,62.0,0,210,7.0,0.0
275,70.0,6,210,6.0,0.0
276,65.0,118,90,4.0,0.0
277,70.0,12,90,4.0,0.0
278,58.0,0,210,7.0,0.0
279,58.0,10,210,3.0,0.0
280,46.0,0,210,8.0,0.0
281,74.0,20,420,6.0,0.0
282,62.0,98,90,5.0,0.0
283,65.0,126,90,4.0,0.0
284,53.0,2,210,7.0,0.0
285,65.0,82,90,4.0,0.0
286,41.0,2,210,8.0,0.0
287,53.0,12,210,3.0,0.0
288,65.0,116,90,4.0,0.0
289,74.0,6,90,4.0,0.0
290,50.0,2,210,3.0,0.0
291,50.0,0,210,7.0,0.0
292,58.0,104,90,5.0,0.0
293,38.0,8,210,8.0,0.0
294,65.0,122,90,4.0,0.0
295,65.0,82,90,4.0,0.0
296,34.0,2,210,8.0,0.0
297,46.0,2,210,3.0,0.0
298,46.0,2,210,7.0,0.0
299,58.0,14,210,6.0,0.0
300,65.0,118,90,4.0,0.0
301,75.0,2,1860,1.0,0.0
302,72.0,8,90,4.0,0.0
303,77.0,2,1860,1.0,0.0
304,45.0,2,420,7.0,0.0
305,72.0,0,1860,2.0,0.0
306,33.0,0,420,8.0,0.0
307,45.0,30,420,3.0,0.0
308,65.0,24,1860,2.0,0.0
309,60.0,10,210,6.0,0.0
310,63.0,104,90,5.0,0.0
311,65.0,116,90,4.0,0.0
312,65.0,78,90,4.0,0.0
313,65.0,12,210,6.0,0.0
314,65.0,116,90,4.0,0.0
315,65.0,116,90,4.0,0.0
316,69.0,4,210,6.0,0.0
317,65.0,122,90,4.0,0.0
318,65.0,110,90,4.0,0.0
319,60.0,6,210,3.0,0.0
320,60.0,0,210,7.0,0.0
321,48.0,0,210,8.0,0.0
322,72.0,8,210,6.0,0.0
323,65.0,114,90,4.0,0.0
324,72.0,6,90,4.0,0.0
325,45.0,2,210,8.0,0.0
326,57.0,2,210,3.0,0.0
327,57.0,12,210,7.0,0.0
328,60.0,100,90,5.0,0.0
329,75.0,20,420,6.0,0.0
330,65.0,120,90,4.0,0.0
331,65.0,84,90,4.0,0.0
332,41.0,2,210,8.0,0.0
333,53.0,2,210,7.0,0.0
334,53.0,12,210,3.0,0.0
335,65.0,120,90,4.0,0.0
336,75.0,8,90,4.0,0.0
337,48.0,4,210,3.0,0.0
338,36.0,2,210,8.0,0.0
339,48.0,12,210,7.0,0.0
340,57.0,98,90,5.0,0.0
341,65.0,118,90,4.0,0.0
342,45.0,6,210,3.0,0.0
343,65.0,74,90,4.0,0.0
344,33.0,0,210,8.0,0.0
345,45.0,4,210,7.0,0.0
346,60.0,4,210,6.0,0.0
347,65.0,122,90,4.0,0.0
348,34.0,4,420,8.0,0.0
349,74.0,6,90,4.0,0.0
350,74.0,26,1380,1.0,0.0
351,77.0,0,1380,1.0,0.0
352,58.0,0,3780,2.0,0.0
353,46.0,2,420,3.0,0.0
354,46.0,28,420,7.0,0.0
355,58.0,106,90,5.0,0.0
356,70.0,20,3780,2.0,0.0
357,58.0,6,210,6.0,0.0
358,70.0,126,90,4.0,0.0
359,70.0,72,90,4.0,0.0
360,62.0,8,210,6.0,0.0
361,70.0,122,90,4.0,0.0
362,70.0,116,90,4.0,0.0
363,65.0,2,210,6.0,0.0
364,70.0,124,90,4.0,0.0
365,70.0,104,90,4.0,0.0
366,50.0,2,210,8.0,0.0
367,62.0,2,210,3.0,0.0
368,70.0,12,210,6.0,0.0
369,62.0,0,210,7.0,0.0
370,70.0,118,90,4.0,0.0
371,77.0,10,90,4.0,0.0
372,46.0,0,210,8.0,0.0
373,58.0,2,210,7.0,0.0
374,58.0,0,210,3.0,0.0
375,74.0,8,210,6.0,0.0
376,62.0,98,90,5.0,0.0
377,70.0,126,90,4.0,0.0
378,41.0,6,210,8.0,0.0
379,70.0,74,90,4.0,0.0
380,53.0,2,210,3.0,0.0
381,53.0,0,210,7.0,0.0
382,70.0,10,210,6.0,0.0
383,70.0,118,90,4.0,0.0
384,80.0,4,420,1.0,0.0
385,80.0,10,90,4.0,0.0
386,50.0,0,210,3.0,0.0
387,38.0,10,210,8.0,0.0
388,50.0,0,210,7.0,0.0
389,77.0,28,420,1.0,0.0
390,65.0,96,90,5.0,0.0
391,65.0,4,210,6.0,0.0
392,70.0,124,90,4.0,0.0
393,70.0,72,90,4.0,0.0
394,34.0,2,210,8.0,0.0
395,46.0,6,210,3.0,0.0
396,46.0,0,210,7.0,0.0
397,62.0,2,210,6.0,0.0
398,70.0,160,90,4.0,0.0
399,79.0,50,150,4.0,0.0
400,79.0,4,1860,1.0,0.0
401,75.0,30,420,1.0,0.0
402,51.0,2,210,7.0,0.0
403,39.0,2,210,8.0,0.0
404,51.0,4,210,3.0,0.0
405,70.0,18,150,5.0,0.0
406,63.0,10,210,6.0,0.0
407,69.0,154,90,5.0,0.0
408,78.0,0,90,4.0,0.0
409,79.0,6,180,4.0,0.0
410,51.0,0,210,7.0,0.0
411,39.0,2,210,8.0,0.0
412,63.0,0,210,6.0,0.0
413,70.0,34,150,5.0,0.0
414,51.0,14,210,3.0,0.0
415,78.0,0,90,4.0,0.0
416,69.0,158,90,5.0,0.0
417,51.0,2,210,3.0,0.0
418,39.0,2,210,8.0,0.0
419,70.0,4,1380,1.0,0.0
420,79.0,34,180,4.0,0.0
421,63.0,2,210,6.0,0.0
422,51.0,12,210,7.0,0.0
423,70.0,30,150,5.0,0.0
424,78.0,152,90,4.0,0.0
425,69.0,0,90,5.0,0.0
426,39.0,0,210,8.0,0.0
427,51.0,6,210,3.0,0.0
428,79.0,56,150,4.0,0.0
429,70.0,12,150,5.0,0.0
430,51.0,8,210,7.0,0.0
431,63.0,0,210,6.0,0.0
432,78.0,8,90,4.0,0.0
433,69.0,146,90,5.0,0.0
434,79.0,6,150,4.0,0.0
435,39.0,0,210,8.0,0.0
436,51.0,4,210,3.0,0.0
437,70.0,68,150,5.0,0.0
438,63.0,2,210,6.0,0.0
439,51.0,8,210,7.0,0.0
440,77.0,4,90,4.0,0.0
441,69.0,72,90,5.0,0.0
442,75.0,78,90,4.0,0.0
443,39.0,2,210,8.0,0.0
444,51.0,6,210,3.0,0.0
445,51.0,0,210,7.0,0.0
446,67.0,38,60,5.0,0.0
447,63.0,6,210,6.0,0.0
448,65.0,34,60,5.0,0.0
449,74.0,152,90,4.0,0.0
450,72.0,10,150,4.0,0.0
451,39.0,2,210,8.0,0.0
452,51.0,0,210,3.0,0.0
453,51.0,4,210,7.0,0.0
454,58.0,6,210,6.0,0.0
455,63.0,64,150,5.0,0.0
456,70.0,6,90,4.0,0.0
457,62.0,148,90,5.0,0.0
458,69.0,6,150,4.0,0.0
459,52.0,4,210,3.0,0.0
460,40.0,2,210,8.0,0.0
461,52.0,6,210,7.0,0.0
462,60.0,38,150,5.0,0.0
463,67.0,6,210,6.0,0.0
464,70.0,6,90,4.0,0.0
465,62.0,268,90,5.0,0.0
466,77.0,24,510,4.0,0.0
467,69.0,164,510,4.0,0.0
468,77.0,0,420,1.0,0.0
469,69.0,0,420,1.0,0.0
470,41.0,4,420,8.0,0.0
471,53.0,150,270,2.0,0.0
472,53.0,0,420,7.0,0.0
473,53.0,2,420,3.0,0.0
474,60.0,2,420,5.0,0.0
475,65.0,10,240,2.0,0.0
476,60.0,68,420,6.0,0.0
477,65.0,0,420,5.0,0.0
478,65.0,4,300,1.0,0.0
479,65.0,6,210,2.0,0.0
480,77.0,122,300,1.0,0.0
481,53.0,104,210,2.0,0.0
482,77.0,2,90,1.0,0.0
483,65.0,18,90,1.0,0.0
484,53.0,332,90,2.0,0.0
485,65.0,8,90,2.0,0.0
486,77.0,6,420,1.0,0.0
487,65.0,100,330,2.0,0.0
488,53.0,0,330,2.0,0.0
489,65.0,372,420,1.0,0.0
490,77.0,6,420,1.0,0.0
491,53.0,102,330,2.0,0.0
492,65.0,0,330,2.0,0.0
493,65.0,1122,420,1.0,0.0
494,77.0,2,5700,1.0,0.0
495,53.0,2,5700,2.0,0.0
496,65.0,2,5700,1.0,0.0
497,65.0,20,5700,2.0,0.0
498,62.0,236,90,4.0,0.0
499,65.0,560,90,4.0,0.0
500,38.0,0,450,8.0,0.0
501,70.0,2,450,4.0,0.0
502,50.0,2,450,7.0,0.0
503,50.0,38,420,3.0,0.0
504,65.0,4,450,5.0,0.0
505,62.0,122,450,6.0,0.0
506,36.0,6,540,8.0,0.0
507,69.0,238,120,4.0,0.0
508,48.0,130,420,3.0,0.0
509,48.0,2,540,7.0,0.0
510,63.0,2,540,5.0,0.0
511,60.0,338,540,6.0,0.0
512,72.0,76,120,4.0,0.0
513,75.0,102,450,4.0,0.0
514,33.0,2,540,8.0,0.0
515,45.0,4,540,7.0,0.0
516,45.0,30,420,3.0,0.0
517,60.0,4,540,5.0,0.0
518,57.0,28,540,6.0,0.0
519,75.0,124,120,4.0,0.0
520,46.0,2,540,7.0,0.0
521,34.0,0,540,8.0,0.0
522,46.0,58,420,3.0,0.0
523,58.0,180,540,6.0,0.0
524,62.0,0,540,5.0,0.0
525,74.0,122,120,4.0,0.0
526,72.0,66,120,4.0,0.0
527,70.0,74,120,4.0,0.0
528,69.0,166,270,4.0,0.0
529,65.0,2,450,5.0,0.0
530,38.0,2,450,8.0,0.0
531,50.0,40,420,3.0,0.0
532,50.0,0,450,7.0,0.0
533,62.0,2,450,6.0,0.0
534,70.0,124,240,4.0,0.0
535,69.0,238,120,4.0,0.0
536,36.0,0,540,8.0,0.0
537,48.0,134,420,3.0,0.0
538,48.0,2,540,7.0,0.0
539,63.0,4,540,5.0,0.0
540,60.0,336,540,6.0,0.0
541,72.0,72,120,4.0,0.0
542,75.0,94,450,4.0,0.0
543,45.0,42,420,3.0,0.0
544,33.0,0,540,8.0,0.0
545,45.0,4,540,7.0,0.0
546,60.0,42,540,5.0,0.0
547,57.0,0,540,6.0,0.0
548,75.0,120,120,4.0,0.0
549,34.0,4,540,8.0,0.0
550,46.0,58,420,3.0,0.0
551,58.0,2,540,6.0,0.0
552,46.0,0,540,7.0,0.0
553,62.0,176,540,5.0,0.0
554,74.0,116,120,4.0,0.0
555,72.0,66,120,4.0,0.0
556,70.0,74,120,4.0,0.0
557,69.0,160,270,4.0,0.0
558,38.0,2,450,8.0,0.0
559,50.0,0,420,3.0,0.0
560,62.0,0,450,6.0,0.0
561,50.0,0,450,7.0,0.0
562,65.0,118,450,5.0,0.0
563,70.0,22,210,4.0,0.0
564,39.0,2,420,8.0,0.0
565,51.0,4,420,7.0,0.0
566,67.0,4,90,4.0,0.0
567,51.0,6,420,3.0,0.0
568,58.0,234,90,5.0,0.0
569,63.0,476,420,6.0,0.0
570,70.0,6,90,4.0,0.0
571,67.0,68,90,5.0,0.0
572,79.0,114,480,4.0,0.0
573,75.0,40,420,5.0,0.0
574,71.0,8,90,4.0,0.0
575,62.0,0,900,2.0,0.0
576,71.0,6,900,1.0,0.0
577,38.0,4,1050,8.0,0.0
578,80.0,0,900,1.0,0.0
579,50.0,12,1020,3.0,0.0
580,62.0,2,1050,6.0,0.0
581,68.0,236,90,5.0,0.0
582,65.0,2,900,2.0,0.0
583,50.0,18,1050,7.0,0.0
584,77.0,2,90,4.0,0.0
585,65.0,554,90,5.0,0.0
586,80.0,78,480,4.0,0.0
587,59.0,38,420,5.0,0.0
588,72.0,12,90,4.0,0.0
589,51.0,2,420,3.0,0.0
590,39.0,4,420,8.0,0.0
591,51.0,0,420,7.0,0.0
592,67.0,230,90,5.0,0.0
593,63.0,474,420,6.0,0.0
594,75.0,6,90,4.0,0.0
595,63.0,74,90,5.0,0.0
596,60.0,52,420,5.0,0.0
597,79.0,110,480,4.0,0.0
598,50.0,330,1050,3.0,0.0
599,38.0,0,1050,8.0,0.0
600,71.0,2,90,4.0,0.0
601,50.0,4,1050,7.0,0.0
602,68.0,240,90,5.0,0.0
603,71.0,0,900,1.0,0.0
604,65.0,2,900,2.0,0.0
605,62.0,8,1050,6.0,0.0
606,62.0,0,900,2.0,0.0
607,80.0,0,900,1.0,0.0
608,77.0,4,90,4.0,0.0
609,65.0,546,90,5.0,0.0
610,80.0,6,420,4.0,0.0
611,59.0,132,420,5.0,0.0
612,51.0,6,420,3.0,0.0
613,79.0,2,480,4.0,0.0
614,63.0,2,420,6.0,0.0
615,39.0,0,420,8.0,0.0
616,67.0,134,480,5.0,0.0
617,51.0,60,420,7.0,0.0
618,77.0,300,150,4.0,0.0
619,65.0,8,150,5.0,0.0
620,63.0,12,360,5.0,0.0
621,75.0,150,330,4.0,0.0
622,74.0,314,150,4.0,0.0
623,62.0,10,120,5.0,0.0
624,72.0,146,390,4.0,0.0
625,60.0,46,330,5.0,0.0
626,71.0,296,180,4.0,0.0
627,59.0,6,150,5.0,0.0
628,72.0,16,360,4.0,0.0
629,60.0,656,330,5.0,0.0
630,67.0,4,660,4.0,0.0
631,55.0,156,660,5.0,0.0
632,39.0,2,420,8.0,0.0
633,51.0,0,420,7.0,0.0
634,51.0,2,420,3.0,0.0
635,55.0,38,420,6.0,0.0
636,75.0,4,90,4.0,0.0
637,67.0,76,90,5.0,0.0
638,72.0,6,90,4.0,0.0
639,63.0,430,90,5.0,0.0
640,70.0,2,420,4.0,0.0
641,53.0,0,420,7.0,0.0
642,53.0,2,420,3.0,0.0
643,53.0,2,900,6.0,0.0
644,41.0,2,420,8.0,0.0
645,62.0,472,420,5.0,0.0
646,41.0,2,420,3.0,0.0
647,69.0,0,420,4.0,0.0
648,29.0,4,420,8.0,0.0
649,60.0,0,420,5.0,0.0
650,41.0,504,420,7.0,0.0
651,77.0,2,660,4.0,0.0
652,62.0,4,660,4.0,0.0
653,70.0,6,660,4.0,0.0
654,77.0,36,750,1.0,0.0
655,58.0,2,1860,2.0,0.0
656,70.0,20,1860,2.0,0.0
657,62.0,18,660,5.0,0.0
658,34.0,2,210,8.0,0.0
659,46.0,0,210,3.0,0.0
660,46.0,4,210,7.0,0.0
661,58.0,200,210,6.0,0.0
662,50.0,4,210,3.0,0.0
663,50.0,2,210,7.0,0.0
664,38.0,4,210,8.0,0.0
665,62.0,68,210,6.0,0.0
666,39.0,2,210,8.0,0.0
667,81.0,40,90,4.0,0.0
668,51.0,4,210,3.0,0.0
669,51.0,0,210,7.0,0.0
670,63.0,8,210,6.0,0.0
671,81.0,10,60,1.0,0.0
672,79.0,32,90,4.0,0.0
673,79.0,20,60,1.0,0.0
674,81.0,6,90,4.0,0.0
675,81.0,22,60,1.0,0.0
676,79.0,44,60,1.0,0.0
677,79.0,180,90,4.0,0.0
678,77.0,26,660,4.0,0.0
679,50.0,2,210,7.0,0.0
680,77.0,144,750,1.0,0.0
681,50.0,2,210,3.0,0.0
682,62.0,0,210,6.0,0.0
683,38.0,136,210,8.0,0.0
684,34.0,0,90,8.0,0.0
685,46.0,2,90,3.0,0.0
686,46.0,2,90,7.0,0.0
687,58.0,112,90,6.0,0.0
688,36.0,0,90,8.0,0.0
689,48.0,2,90,3.0,0.0
690,48.0,4,90,7.0,0.0
691,60.0,190,90,6.0,0.0
692,38.0,4,210,8.0,0.0
693,50.0,8,210,7.0,0.0
694,50.0,0,210,3.0,0.0
695,62.0,62,210,6.0,0.0
696,43.0,2,210,8.0,0.0
697,82.0,246,270,4.0,0.0
698,55.0,0,210,3.0,0.0
699,55.0,6,210,7.0,0.0
700,82.0,12,240,1.0,0.0
701,70.0,4,210,5.0,0.0
702,67.0,24,210,6.0,0.0
703,81.0,30,270,4.0,0.0
704,53.0,0,270,3.0,0.0
705,53.0,2,270,7.0,0.0
706,70.0,2,1860,2.0,0.0
707,69.0,8,270,5.0,0.0
708,41.0,0,270,8.0,0.0
709,58.0,24,1860,2.0,0.0
710,81.0,194,300,1.0,0.0
711,65.0,4,270,6.0,0.0
712,43.0,2,270,8.0,0.0
713,55.0,4,270,3.0,0.0
714,82.0,26,270,4.0,0.0
715,82.0,196,300,1.0,0.0
716,55.0,4,270,7.0,0.0
717,67.0,0,270,6.0,0.0
718,70.0,10,270,5.0,0.0
719,81.0,26,270,4.0,0.0
720,53.0,0,270,7.0,0.0
721,53.0,2,270,3.0,0.0
722,81.0,196,300,1.0,0.0
723,41.0,6,270,8.0,0.0
724,69.0,0,270,5.0,0.0
725,65.0,8,270,6.0,0.0
726,51.0,4,270,3.0,0.0
727,79.0,202,300,1.0,0.0
728,79.0,24,270,4.0,0.0
729,51.0,0,270,7.0,0.0
730,39.0,2,270,8.0,0.0
731,63.0,4,270,6.0,0.0
732,67.0,6,270,5.0,0.0
733,77.0,28,270,4.0,0.0
734,50.0,4,270,3.0,0.0
735,77.0,198,300,1.0,0.0
736,50.0,0,270,7.0,0.0
737,38.0,2,270,8.0,0.0
738,65.0,4,270,5.0,0.0
739,62.0,4,270,6.0,0.0
740,79.0,26,270,4.0,0.0
741,79.0,200,300,1.0,0.0
742,39.0,2,270,8.0,0.0
743,67.0,2,270,5.0,0.0
744,51.0,0,270,7.0,0.0
745,51.0,4,270,3.0,0.0
746,63.0,6,270,6.0,0.0
747,50.0,0,270,7.0,0.0
748,77.0,24,270,4.0,0.0
749,77.0,122,300,1.0,0.0
750,38.0,2,270,8.0,0.0
751,65.0,0,270,5.0,0.0
752,50.0,6,270,3.0,0.0
753,62.0,8,270,6.0,0.0
754,75.0,0,210,4.0,0.0
755,48.0,4,210,3.0,0.0
756,75.0,258,240,1.0,0.0
757,36.0,2,210,8.0,0.0
758,48.0,2,210,7.0,0.0
759,63.0,2,210,5.0,0.0
760,60.0,22,210,6.0,0.0
761,46.0,4,270,3.0,0.0
762,74.0,202,300,1.0,0.0
763,58.0,0,1860,2.0,0.0
764,70.0,28,1860,2.0,0.0
765,74.0,22,270,4.0,0.0
766,46.0,0,270,7.0,0.0
767,62.0,2,270,5.0,0.0
768,34.0,6,270,8.0,0.0
769,58.0,8,270,6.0,0.0
770,79.0,200,300,1.0,0.0
771,79.0,22,270,4.0,0.0
772,46.0,2,270,8.0,0.0
773,67.0,2,270,5.0,0.0
774,58.0,0,270,3.0,0.0
775,58.0,4,270,7.0,0.0
776,70.0,6,270,6.0,0.0
777,77.0,32,270,4.0,0.0
778,45.0,4,270,8.0,0.0
779,57.0,2,270,3.0,0.0
780,57.0,2,270,7.0,0.0
781,77.0,196,300,1.0,0.0
782,65.0,4,270,5.0,0.0
783,69.0,2,270,6.0,0.0
784,75.0,30,270,4.0,0.0
785,55.0,2,270,7.0,0.0
786,43.0,0,270,8.0,0.0
787,75.0,200,300,1.0,0.0
788,55.0,0,270,3.0,0.0
789,63.0,8,270,5.0,0.0
790,67.0,2,270,6.0,0.0
791,74.0,26,270,4.0,0.0
792,74.0,200,300,1.0,0.0
793,41.0,2,270,8.0,0.0
794,53.0,0,270,7.0,0.0
795,53.0,0,270,3.0,0.0
796,65.0,2,270,6.0,0.0
797,62.0,10,270,5.0,0.0
798,75.0,198,300,1.0,0.0
799,75.0,24,270,4.0,0.0
800,55.0,2,270,7.0,0.0
801,43.0,2,270,8.0,0.0
802,55.0,0,270,3.0,0.0
803,63.0,0,270,5.0,0.0
804,67.0,10,270,6.0,0.0
805,74.0,30,270,4.0,0.0
806,41.0,6,270,8.0,0.0
807,53.0,0,270,3.0,0.0
808,74.0,118,300,1.0,0.0
809,65.0,0,270,6.0,0.0
810,53.0,8,270,7.0,0.0
811,62.0,0,270,5.0,0.0
812,72.0,26,210,4.0,0.0
813,52.0,2,210,7.0,0.0
814,60.0,2,210,5.0,0.0
815,52.0,4,210,3.0,0.0
816,72.0,102,240,1.0,0.0
817,40.0,0,210,8.0,0.0
818,67.0,2,210,6.0,0.0
819,70.0,240,120,4.0,0.0
820,41.0,0,420,8.0,0.0
821,53.0,2,420,7.0,0.0
822,70.0,104,480,1.0,0.0
823,70.0,0,420,2.0,0.0
824,53.0,2,420,3.0,0.0
825,58.0,4,90,5.0,0.0
826,62.0,4,420,2.0,0.0
827,62.0,58,420,6.0,0.0
828,74.0,0,120,4.0,0.0
829,70.0,70,90,5.0,0.0
830,74.0,2,120,4.0,0.0
831,70.0,236,90,5.0,0.0
832,74.0,232,120,4.0,0.0
833,70.0,6,90,5.0,0.0
834,74.0,234,120,4.0,0.0
835,70.0,8,90,5.0,0.0
836,74.0,238,120,4.0,0.0
837,70.0,6,90,5.0,0.0
838,74.0,232,120,4.0,0.0
839,70.0,4,90,5.0,0.0
840,74.0,448,120,4.0,0.0
841,70.0,8,90,5.0,0.0
842,74.0,34,780,4.0,0.0
843,77.0,4,900,1.0,0.0
844,74.0,24,900,1.0,0.0
845,70.0,26,660,5.0,0.0
846,53.0,124,210,3.0,0.0
847,53.0,2,90,7.0,0.0
848,65.0,20,90,2.0,0.0
849,41.0,8,90,8.0,0.0
850,65.0,92,90,6.0,0.0
851,41.0,6,90,8.0,0.0
852,53.0,84,210,3.0,0.0
853,65.0,2,90,6.0,0.0
854,53.0,74,90,7.0,0.0
855,65.0,12,90,2.0,0.0
856,41.0,2,90,8.0,0.0
857,53.0,14,210,3.0,0.0
858,72.0,4,90,5.0,0.0
859,75.0,22,150,4.0,0.0
860,65.0,16,90,2.0,0.0
861,53.0,48,90,7.0,0.0
862,65.0,0,90,6.0,0.0
863,77.0,6,90,4.0,0.0
864,74.0,98,90,5.0,0.0
865,77.0,26,180,4.0,0.0
866,74.0,4,210,1.0,0.0
867,53.0,4,90,7.0,0.0
868,65.0,18,90,2.0,0.0
869,41.0,6,90,8.0,0.0
870,77.0,104,210,1.0,0.0
871,53.0,12,210,3.0,0.0
872,74.0,2,180,5.0,0.0
873,65.0,66,90,6.0,0.0
874,75.0,6,330,4.0,0.0
875,72.0,8,300,1.0,0.0
876,72.0,2,300,5.0,0.0
877,75.0,72,300,1.0,0.0
878,53.0,30,210,3.0,0.0
879,41.0,4,90,8.0,0.0
880,53.0,8,90,7.0,0.0
881,65.0,14,90,2.0,0.0
882,65.0,92,90,6.0,0.0
883,70.0,12,210,1.0,0.0
884,41.0,4,90,8.0,0.0
885,74.0,10,210,4.0,0.0
886,53.0,0,210,3.0,0.0
887,65.0,18,90,2.0,0.0
888,53.0,8,90,7.0,0.0
889,74.0,108,210,1.0,0.0
890,70.0,18,180,5.0,0.0
891,65.0,66,90,6.0,0.0
892,72.0,6,300,4.0,0.0
893,72.0,2,300,1.0,0.0
894,69.0,416,330,5.0,0.0
895,69.0,2,300,1.0,0.0
896,41.0,2,90,8.0,0.0
897,53.0,10,90,7.0,0.0
898,65.0,14,90,2.0,0.0
899,53.0,18,210,3.0,0.0
900,65.0,98,90,6.0,0.0
901,70.0,2,420,4.0,0.0
902,46.0,2,420,3.0,0.0
903,34.0,0,420,8.0,0.0
904,46.0,4,420,7.0,0.0
905,70.0,2,420,1.0,0.0
906,58.0,0,420,2.0,0.0
907,70.0,2,420,5.0,0.0
908,58.0,176,420,6.0,0.0
909,82.0,70,120,4.0,0.0
910,82.0,2,300,1.0,0.0
911,74.0,46,300,1.0,0.0
912,70.0,0,180,2.0,0.0
913,62.0,52,180,2.0,0.0
914,77.0,68,120,4.0,0.0
915,74.0,76,120,4.0,0.0
916,70.0,122,120,4.0,0.0
917,70.0,42,90,2.0,0.0
918,82.0,2,90,1.0,0.0
919,74.0,0,90,1.0,0.0
920,62.0,0,90,2.0,0.0
921,77.0,118,120,4.0,0.0
922,70.0,2,420,2.0,0.0
923,74.0,2,420,1.0,0.0
924,62.0,0,420,2.0,0.0
925,82.0,64,420,1.0,0.0
926,74.0,120,120,4.0,0.0
927,70.0,58,120,4.0,0.0
928,65.0,116,120,4.0,0.0
929,74.0,122,120,4.0,0.0
930,70.0,2,420,2.0,0.0
931,62.0,2,420,2.0,0.0
932,82.0,0,420,1.0,0.0
933,74.0,60,420,1.0,0.0
934,70.0,118,120,4.0,0.0
935,65.0,56,120,4.0,0.0
936,62.0,122,120,4.0,0.0
937,58.0,6,1050,7.0,0.0
938,46.0,0,1050,8.0,0.0
939,58.0,0,1050,3.0,0.0
940,62.0,62,420,2.0,0.0
941,70.0,0,420,2.0,0.0
942,70.0,120,120,4.0,0.0
943,82.0,114,480,1.0,0.0
944,74.0,0,480,1.0,0.0
945,70.0,24,1050,6.0,0.0
946,65.0,118,120,4.0,0.0
947,62.0,56,120,4.0,0.0
948,58.0,2,120,4.0,0.0
949,79.0,114,120,4.0,0.0
950,63.0,4,120,5.0,0.0
951,77.0,114,120,4.0,0.0
952,62.0,10,120,5.0,0.0
953,75.0,108,120,4.0,0.0
954,60.0,8,120,5.0,0.0
955,74.0,74,120,4.0,0.0
956,58.0,6,120,5.0,0.0
957,41.0,6,900,8.0,0.0
958,72.0,398,120,4.0,0.0
959,57.0,6,90,5.0,0.0
960,53.0,2,900,3.0,0.0
961,53.0,4,900,7.0,0.0
962,65.0,24,900,6.0,0.0
963,72.0,8,270,4.0,0.0
964,57.0,234,270,5.0,0.0
965,74.0,140,270,4.0,0.0
966,58.0,6,270,5.0,0.0
967,75.0,246,270,4.0,0.0
968,60.0,56,210,5.0,0.0
969,34.0,4,420,8.0,0.0
970,73.0,124,300,4.0,0.0
971,46.0,4,420,3.0,0.0
972,57.0,18,270,5.0,0.0
973,46.0,4,420,7.0,0.0
974,58.0,18,420,6.0,0.0
975,74.0,4,210,4.0,0.0
976,58.0,150,210,5.0,0.0
977,82.0,92,120,4.0,0.0
978,74.0,2,300,1.0,0.0
979,70.0,0,210,2.0,0.0
980,82.0,56,300,1.0,0.0
981,62.0,34,210,2.0,0.0
982,77.0,62,120,4.0,0.0
983,74.0,66,120,4.0,0.0
984,70.0,126,120,4.0,0.0
985,74.0,4,90,1.0,0.0
986,62.0,4,90,2.0,0.0
987,82.0,2,90,1.0,0.0
988,70.0,38,90,2.0,0.0
989,70.0,2,420,2.0,0.0
990,82.0,0,420,1.0,0.0
991,77.0,120,120,4.0,0.0
992,74.0,2,420,1.0,0.0
993,62.0,60,420,2.0,0.0
994,74.0,114,120,4.0,0.0
995,70.0,58,120,4.0,0.0
996,65.0,118,120,4.0,0.0
997,74.0,126,120,4.0,0.0
998,74.0,2,420,1.0,0.0
999,82.0,0,420,1.0,0.0
1000,70.0,2,420,2.0,0.0
1001,62.0,60,420,2.0,0.0
1002,70.0,118,120,4.0,0.0
1003,65.0,52,120,4.0,0.0
1004,62.0,126,120,4.0,0.0
1005,58.0,2,1050,3.0,0.0
1006,58.0,2,1050,7.0,0.0
1007,82.0,8,480,1.0,0.0
1008,74.0,2,480,1.0,0.0
1009,70.0,118,120,4.0,0.0
1010,46.0,8,1050,8.0,0.0
1011,70.0,10,450,5.0,0.0
1012,70.0,0,420,2.0,0.0
1013,62.0,40,420,2.0,0.0
1014,70.0,26,1050,6.0,0.0
1015,65.0,122,120,4.0,0.0
1016,62.0,58,120,4.0,0.0
1017,58.0,132,120,4.0,0.0
1018,79.0,104,150,4.0,0.0
1019,77.0,124,120,4.0,0.0
1020,75.0,104,120,4.0,0.0
1021,74.0,84,120,4.0,0.0
1022,75.0,258,120,4.0,0.0
1023,41.0,0,6660,8.0,0.0
1024,53.0,0,6660,3.0,0.0
1025,53.0,4,6660,7.0,0.0
1026,65.0,46,6660,6.0,0.0
1027,75.0,252,120,4.0,0.0
1028,77.0,100,150,4.0,0.0
1029,75.0,122,120,4.0,0.0
1030,74.0,124,120,4.0,0.0
1031,72.0,106,120,4.0,0.0
1032,74.0,258,120,4.0,0.0
1033,74.0,236,120,4.0,0.0
1034,75.0,74,180,4.0,0.0
1035,67.0,38,120,5.0,0.0
1036,74.0,114,120,4.0,0.0
1037,65.0,2,120,5.0,0.0
1038,72.0,114,120,4.0,0.0
1039,63.0,8,120,5.0,0.0
1040,70.0,112,120,4.0,0.0
1041,62.0,8,120,5.0,0.0
1042,53.0,2,4740,2.0,0.0
1043,72.0,252,120,4.0,0.0
1044,63.0,0,120,5.0,0.0
1045,65.0,2,4740,2.0,0.0
1046,72.0,8,120,4.0,0.0
1047,63.0,230,120,5.0,0.0
1048,74.0,86,150,4.0,0.0
1049,65.0,22,120,5.0,0.0
1050,72.0,116,120,4.0,0.0
1051,63.0,6,120,5.0,0.0
1052,70.0,110,120,4.0,0.0
1053,62.0,10,120,5.0,0.0
1054,69.0,112,120,4.0,0.0
1055,60.0,4,120,5.0,0.0
1056,70.0,8,120,4.0,0.0
1057,77.0,58,900,1.0,0.0
1058,62.0,246,120,5.0,0.0
1059,70.0,10,120,4.0,0.0
1060,62.0,230,120,5.0,0.0
1061,79.0,100,150,4.0,0.0
1062,63.0,8,120,5.0,0.0
1063,77.0,118,120,4.0,0.0
1064,62.0,6,120,5.0,0.0
1065,75.0,58,120,4.0,0.0
1066,60.0,4,120,5.0,0.0
1067,74.0,118,120,4.0,0.0
1068,58.0,4,120,5.0,0.0
1069,75.0,4,120,4.0,0.0
1070,75.0,64,900,1.0,0.0
1071,60.0,248,120,5.0,0.0
1072,75.0,6,150,4.0,0.0
1073,60.0,232,150,5.0,0.0
1074,77.0,100,150,4.0,0.0
1075,62.0,4,120,5.0,0.0
1076,60.0,12,120,5.0,0.0
1077,75.0,108,120,4.0,0.0
1078,74.0,56,120,4.0,0.0
1079,58.0,6,120,5.0,0.0
1080,72.0,112,120,4.0,0.0
1081,57.0,6,120,5.0,0.0
1082,74.0,6,900,1.0,0.0
1083,74.0,8,120,4.0,0.0
1084,77.0,54,900,1.0,0.0
1085,58.0,248,120,5.0,0.0
1086,74.0,4,150,4.0,0.0
1087,58.0,228,150,5.0,0.0
1088,75.0,106,150,4.0,0.0
1089,67.0,8,120,5.0,0.0
1090,74.0,112,120,4.0,0.0
1091,65.0,6,120,5.0,0.0
1092,72.0,52,120,4.0,0.0
1093,63.0,6,120,5.0,0.0
1094,70.0,112,120,4.0,0.0
1095,62.0,10,120,5.0,0.0
1096,72.0,8,120,4.0,0.0
1097,75.0,2,900,1.0,0.0
1098,72.0,0,900,1.0,0.0
1099,63.0,248,120,5.0,0.0
1100,72.0,8,150,4.0,0.0
1101,63.0,230,150,5.0,0.0
1102,74.0,100,150,4.0,0.0
1103,65.0,4,120,5.0,0.0
1104,72.0,114,120,4.0,0.0
1105,63.0,8,120,5.0,0.0
1106,70.0,54,120,4.0,0.0
1107,62.0,6,120,5.0,0.0
1108,69.0,102,120,4.0,0.0
1109,60.0,10,120,5.0,0.0
1110,70.0,94,120,4.0,0.0
1111,55.0,4,210,3.0,0.0
1112,74.0,2,900,1.0,0.0
1113,43.0,6,210,8.0,0.0
1114,55.0,0,210,7.0,0.0
1115,70.0,2,1860,2.0,0.0
1116,70.0,24,900,1.0,0.0
1117,58.0,4,90,5.0,0.0
1118,58.0,26,1860,2.0,0.0
1119,67.0,4,210,6.0,0.0
1120,74.0,12,90,4.0,0.0
1121,70.0,114,90,5.0,0.0
1122,74.0,4,90,4.0,0.0
1123,43.0,0,210,8.0,0.0
1124,55.0,6,210,3.0,0.0
1125,55.0,0,210,7.0,0.0
1126,70.0,102,90,5.0,0.0
1127,67.0,8,210,6.0,0.0
1128,74.0,6,90,4.0,0.0
1129,70.0,108,90,5.0,0.0
1130,74.0,6,90,4.0,0.0
1131,70.0,106,90,5.0,0.0
1132,43.0,0,210,8.0,0.0
1133,55.0,2,210,3.0,0.0
1134,55.0,2,210,7.0,0.0
1135,67.0,6,210,6.0,0.0
1136,74.0,8,90,4.0,0.0
1137,70.0,116,90,5.0,0.0
1138,55.0,6,210,3.0,0.0
1139,74.0,4,90,4.0,0.0
1140,43.0,2,210,8.0,0.0
1141,67.0,0,210,6.0,0.0
1142,70.0,70,90,5.0,0.0
1143,55.0,6,210,7.0,0.0
1144,74.0,10,90,4.0,0.0
1145,70.0,116,90,5.0,0.0
1146,75.0,2,900,1.0,0.0
1147,79.0,2,900,1.0,0.0
1148,51.0,2,210,7.0,0.0
1149,39.0,8,210,8.0,0.0
1150,75.0,0,90,5.0,0.0
1151,51.0,0,210,3.0,0.0
1152,79.0,102,90,4.0,0.0
1153,63.0,2,210,6.0,0.0
1154,79.0,8,90,4.0,0.0
1155,75.0,118,90,5.0,0.0
1156,39.0,2,210,8.0,0.0
1157,51.0,6,210,3.0,0.0
1158,79.0,4,90,4.0,0.0
1159,75.0,96,90,5.0,0.0
1160,51.0,0,210,7.0,0.0
1161,63.0,10,210,6.0,0.0
1162,79.0,6,90,4.0,0.0
1163,75.0,116,90,5.0,0.0
1164,51.0,2,210,3.0,0.0
1165,39.0,4,210,8.0,0.0
1166,79.0,6,90,4.0,0.0
1167,51.0,8,210,7.0,0.0
1168,63.0,0,210,6.0,0.0
1169,75.0,96,90,5.0,0.0
1170,79.0,6,90,4.0,0.0
1171,75.0,114,90,5.0,0.0
1172,79.0,10,90,4.0,0.0
1173,51.0,0,210,7.0,0.0
1174,51.0,2,210,3.0,0.0
1175,39.0,2,210,8.0,0.0
1176,63.0,6,210,6.0,0.0
1177,75.0,66,90,5.0,0.0
1178,79.0,6,90,4.0,0.0
1179,75.0,120,90,5.0,0.0
1180,53.0,0,1860,2.0,0.0
1181,65.0,2,1860,2.0,0.0
1182,53.0,2,210,7.0,0.0
1183,77.0,4,900,1.0,0.0
1184,77.0,2,90,4.0,0.0
1185,41.0,2,210,8.0,0.0
1186,53.0,2,210,3.0,0.0
1187,74.0,24,900,1.0,0.0
1188,74.0,100,90,5.0,0.0
1189,65.0,8,210,6.0,0.0
1190,77.0,10,90,4.0,0.0
1191,74.0,110,90,5.0,0.0
1192,77.0,6,90,4.0,0.0
1193,53.0,0,210,7.0,0.0
1194,53.0,6,210,3.0,0.0
1195,41.0,0,210,8.0,0.0
1196,74.0,102,90,5.0,0.0
1197,65.0,6,210,6.0,0.0
1198,77.0,6,90,4.0,0.0
1199,74.0,114,90,5.0,0.0
1200,53.0,4,210,3.0,0.0
1201,77.0,6,90,4.0,0.0
1202,41.0,2,210,8.0,0.0
1203,53.0,6,210,7.0,0.0
1204,74.0,98,90,5.0,0.0
1205,65.0,8,210,6.0,0.0
1206,77.0,2,90,4.0,0.0
1207,74.0,118,90,5.0,0.0
1208,53.0,2,210,7.0,0.0
1209,53.0,0,210,3.0,0.0
1210,77.0,74,90,4.0,0.0
1211,74.0,0,90,5.0,0.0
1212,41.0,8,210,8.0,0.0
1213,65.0,6,210,6.0,0.0
1214,77.0,6,90,4.0,0.0
1215,74.0,116,90,5.0,0.0
1216,53.0,2,210,3.0,0.0
1217,53.0,2,210,7.0,0.0
1218,69.0,2,90,4.0,0.0
1219,63.0,2,900,1.0,0.0
1220,41.0,8,210,8.0,0.0
1221,63.0,2,90,5.0,0.0
1222,69.0,24,900,1.0,0.0
1223,60.0,96,90,5.0,0.0
1224,65.0,6,210,6.0,0.0
1225,69.0,2,90,4.0,0.0
1226,63.0,6,90,5.0,0.0
1227,60.0,110,90,5.0,0.0
1228,69.0,8,90,4.0,0.0
1229,53.0,2,210,7.0,0.0
1230,41.0,10,210,8.0,0.0
1231,65.0,0,210,6.0,0.0
1232,53.0,0,210,3.0,0.0
1233,63.0,100,90,5.0,0.0
1234,60.0,0,90,5.0,0.0
1235,69.0,4,90,4.0,0.0
1236,60.0,6,90,5.0,0.0
1237,63.0,114,90,5.0,0.0
1238,53.0,2,210,7.0,0.0
1239,69.0,0,90,4.0,0.0
1240,63.0,2,90,5.0,0.0
1241,41.0,0,210,8.0,0.0
1242,53.0,2,210,3.0,0.0
1243,60.0,100,90,5.0,0.0
1244,65.0,14,210,6.0,0.0
1245,69.0,4,90,4.0,0.0
1246,63.0,0,90,5.0,0.0
1247,60.0,110,90,5.0,0.0
1248,69.0,6,90,4.0,0.0
1249,41.0,2,210,8.0,0.0
1250,53.0,2,210,3.0,0.0
1251,63.0,4,90,5.0,0.0
1252,65.0,2,210,6.0,0.0
1253,53.0,6,210,7.0,0.0
1254,60.0,70,90,5.0,0.0
1255,69.0,8,90,4.0,0.0
1256,60.0,4,90,5.0,0.0
1257,63.0,119,90,5.0,0.0
1258,46.0,101,240,3.0,0.0
1259,70.0,8,120,4.0,0.0
1260,34.0,6,240,8.0,0.0
1261,70.0,4,420,1.0,0.0
1262,46.0,2,240,7.0,0.0
1263,62.0,2,420,1.0,0.0
1264,62.0,104,120,5.0,0.0
1265,58.0,43,420,2.0,0.0
1266,58.0,15,240,6.0,0.0
1267,58.0,2,120,4.0,0.0
1268,60.0,6,120,4.0,0.0
1269,48.0,56,120,3.0,0.0
1270,48.0,2,120,7.0,0.0
1271,36.0,7,120,8.0,0.0
1272,62.0,4,120,4.0,0.0
1273,50.0,4,120,7.0,0.0
1274,50.0,103,120,3.0,0.0
1275,38.0,11,120,8.0,0.0
1276,51.0,105,120,3.0,0.0
1277,63.0,2,120,4.0,0.0
1278,39.0,2,120,8.0,0.0
1279,51.0,9,120,7.0,0.0
1280,65.0,6,120,4.0,0.0
1281,41.0,2,120,8.0,0.0
1282,53.0,99,120,3.0,0.0
1283,53.0,13,120,7.0,0.0
1284,67.0,2,120,4.0,0.0
1285,43.0,8,120,8.0,0.0
1286,55.0,105,120,3.0,0.0
1287,55.0,9,120,7.0,0.0
1288,69.0,0,120,4.0,0.0
1289,45.0,4,120,8.0,0.0
1290,57.0,13,120,7.0,0.0
1291,57.0,103,120,3.0,0.0
1292,82.0,2,420,1.0,0.0
1293,70.0,2,120,4.0,0.0
1294,58.0,0,420,2.0,0.0
1295,70.0,49,420,1.0,0.0
1296,58.0,2,120,7.0,0.0
1297,70.0,0,420,2.0,0.0
1298,58.0,103,120,3.0,0.0
1299,46.0,13,120,8.0,0.0
1300,72.0,0,120,4.0,0.0
1301,60.0,2,120,7.0,0.0
1302,48.0,15,120,8.0,0.0
1303,60.0,103,120,3.0,0.0
1304,74.0,4,120,4.0,0.0
1305,62.0,50,120,3.0,0.0
1306,50.0,2,120,8.0,0.0
1307,62.0,11,120,7.0,0.0
1308,45.0,2,120,8.0,0.0
1309,57.0,107,120,3.0,0.0
1310,57.0,2,120,7.0,0.0
1311,69.0,9,120,4.0,0.0
1312,70.0,4,120,4.0,0.0
1313,58.0,105,120,3.0,0.0
1314,58.0,2,420,2.0,0.0
1315,58.0,2,120,7.0,0.0
1316,82.0,2,420,1.0,0.0
1317,70.0,47,420,1.0,0.0
1318,70.0,0,420,2.0,0.0
1319,46.0,9,120,8.0,0.0
1320,48.0,2,120,8.0,0.0
1321,60.0,13,120,7.0,0.0
1322,72.0,0,120,4.0,0.0
1323,60.0,103,120,3.0,0.0
1324,74.0,6,120,4.0,0.0
1325,50.0,4,120,8.0,0.0
1326,62.0,50,120,3.0,0.0
1327,62.0,11,120,7.0,0.0
1328,69.0,6,120,4.0,0.0
1329,57.0,105,120,3.0,0.0
1330,45.0,2,120,8.0,0.0
1331,57.0,7,120,7.0,0.0
1332,46.0,2,120,8.0,0.0
1333,70.0,2,420,1.0,0.0
1334,70.0,2,120,4.0,0.0
1335,58.0,103,120,3.0,0.0
1336,82.0,6,420,1.0,0.0
1337,58.0,11,120,7.0,0.0
1338,58.0,47,420,2.0,0.0
1339,70.0,0,420,2.0,0.0
1340,58.0,4,120,4.0,0.0
1341,34.0,4,120,8.0,0.0
1342,46.0,99,120,3.0,0.0
1343,46.0,13,120,7.0,0.0
1344,60.0,6,120,4.0,0.0
1345,48.0,52,120,3.0,0.0
1346,48.0,2,120,7.0,0.0
1347,36.0,9,120,8.0,0.0
1348,38.0,2,120,8.0,0.0
1349,62.0,2,120,4.0,0.0
1350,50.0,13,120,7.0,0.0
1351,50.0,101,120,3.0,0.0
1352,63.0,6,120,4.0,0.0
1353,51.0,107,120,3.0,0.0
1354,39.0,0,120,8.0,0.0
1355,51.0,11,120,7.0,0.0
1356,53.0,105,120,3.0,0.0
1357,65.0,2,120,4.0,0.0
1358,41.0,2,120,8.0,0.0
1359,53.0,9,120,7.0,0.0
1360,67.0,0,120,4.0,0.0
1361,55.0,107,120,3.0,0.0
1362,43.0,6,120,8.0,0.0
1363,55.0,7,120,7.0,0.0
1364,69.0,4,120,4.0,0.0
1365,57.0,101,120,3.0,0.0
1366,57.0,11,120,7.0,0.0
1367,45.0,0,120,8.0,0.0
1368,70.0,6,120,4.0,0.0
1369,58.0,107,120,3.0,0.0
1370,82.0,2,420,1.0,0.0
1371,46.0,4,120,8.0,0.0
1372,70.0,4,420,1.0,0.0
1373,70.0,45,420,2.0,0.0
1374,58.0,0,420,2.0,0.0
1375,58.0,5,120,7.0,0.0
1376,48.0,2,120,8.0,0.0
1377,72.0,0,120,4.0,0.0
1378,60.0,107,120,3.0,0.0
1379,60.0,11,120,7.0,0.0
1380,50.0,0,120,8.0,0.0
1381,62.0,56,120,3.0,0.0
1382,74.0,2,120,4.0,0.0
1383,62.0,11,120,7.0,0.0
1384,45.0,2,120,8.0,0.0
1385,69.0,6,120,4.0,0.0
1386,57.0,99,120,3.0,0.0
1387,57.0,9,120,7.0,0.0
1388,70.0,8,120,4.0,0.0
1389,70.0,2,420,1.0,0.0
1390,58.0,103,120,3.0,0.0
1391,82.0,4,420,1.0,0.0
1392,58.0,2,120,7.0,0.0
1393,46.0,9,120,8.0,0.0
1394,70.0,2,420,2.0,0.0
1395,58.0,48,420,2.0,0.0
1396,72.0,2,120,4.0,0.0
1397,60.0,105,120,3.0,0.0
1398,48.0,2,120,8.0,0.0
1399,60.0,11,120,7.0,0.0
1400,74.0,4,120,4.0,0.0
1401,50.0,4,120,8.0,0.0
1402,62.0,13,120,7.0,0.0
1403,62.0,48,120,3.0,0.0
1404,69.0,2,120,4.0,0.0
1405,57.0,2,120,3.0,0.0
1406,45.0,420,120,8.0,0.0
1407,57.0,0,120,7.0,0.0
1408,82.0,2,420,1.0,0.0
1409,70.0,2,450,4.0,0.0
1410,70.0,2,420,1.0,0.0
1411,58.0,0,420,2.0,0.0
1412,58.0,4,450,7.0,0.0
1413,70.0,38,420,2.0,0.0
1414,46.0,434,450,8.0,0.0
1415,58.0,0,450,3.0,0.0
1416,62.0,2,450,4.0,0.0
1417,70.0,2,450,4.0,0.0
1418,82.0,4,450,4.0,0.0
1419,70.0,2,420,2.0,0.0
1420,82.0,0,420,1.0,0.0
1421,62.0,2,420,2.0,0.0
1422,74.0,34,420,1.0,0.0
1423,46.0,0,450,8.0,0.0
1424,58.0,0,450,3.0,0.0
1425,58.0,436,450,7.0,0.0
1426,58.0,2,450,4.0,0.0
1427,46.0,2,450,3.0,0.0
1428,58.0,38,420,2.0,0.0
1429,34.0,0,450,8.0,0.0
1430,70.0,0,420,1.0,0.0
1431,46.0,850,450,7.0,0.0
1432,58.0,2,450,7.0,0.0
1433,46.0,124,450,8.0,0.0
1434,58.0,76,390,0.0,0.0
1435,65.0,4,120,4.0,0.0
1436,62.0,2,120,5.0,0.0
1437,58.0,28,120,6.0,0.0
1438,65.0,10,120,4.0,0.0
1439,58.0,74,990,0.0,0.0
1440,62.0,4,120,5.0,0.0
1441,58.0,232,120,6.0,0.0
1442,65.0,2,120,4.0,0.0
1443,62.0,6,120,5.0,0.0
1444,58.0,228,120,6.0,0.0
1445,65.0,10,120,4.0,0.0
1446,46.0,4,450,7.0,0.0
1447,34.0,50,450,8.0,0.0
1448,62.0,2,120,5.0,0.0
1449,58.0,220,120,6.0,0.0
1450,65.0,18,90,4.0,0.0
1451,62.0,2,120,5.0,0.0
1452,58.0,98,120,6.0,0.0
1453,65.0,6,120,4.0,0.0
1454,62.0,88,390,0.0,0.0
1455,62.0,8,120,5.0,0.0
1456,58.0,232,120,6.0,0.0
1457,65.0,6,120,4.0,0.0
1458,62.0,2,120,5.0,0.0
1459,58.0,28,120,6.0,0.0
1460,58.0,350,120,0.0,0.0
1461,53.0,60,390,0.0,0.0
1462,46.0,2,450,8.0,0.0
1463,58.0,124,450,7.0,0.0
1464,65.0,8,120,4.0,0.0
1465,58.0,2,120,6.0,0.0
1466,62.0,44,120,5.0,0.0
1467,65.0,6,120,4.0,0.0
1468,53.0,76,990,0.0,0.0
1469,62.0,6,120,5.0,0.0
1470,58.0,234,120,6.0,0.0
1471,65.0,6,120,4.0,0.0
1472,62.0,0,120,5.0,0.0
1473,58.0,228,120,6.0,0.0
1474,65.0,8,120,4.0,0.0
1475,34.0,52,450,8.0,0.0
1476,46.0,0,450,7.0,0.0
1477,58.0,4,120,6.0,0.0
1478,62.0,234,120,5.0,0.0
1479,65.0,6,120,4.0,0.0
1480,62.0,0,120,5.0,0.0
1481,58.0,102,120,6.0,0.0
1482,65.0,6,120,4.0,0.0
1483,50.0,112,390,0.0,0.0
1484,62.0,2,120,5.0,0.0
1485,58.0,236,120,6.0,0.0
1486,65.0,2,120,4.0,0.0
1487,58.0,4,120,6.0,0.0
1488,62.0,38,120,5.0,0.0
1489,46.0,316,150,0.0,0.0
1490,41.0,10,360,0.0,0.0
1491,45.0,0,450,8.0,0.0
1492,57.0,132,450,7.0,0.0
1493,65.0,82,150,4.0,0.0
1494,60.0,2,120,5.0,0.0
1495,63.0,22,120,6.0,0.0
1496,63.0,14,930,0.0,0.0
1497,75.0,4,120,4.0,0.0
1498,72.0,2,120,5.0,0.0
1499,65.0,184,120,6.0,0.0
1500,75.0,244,120,4.0,0.0
1501,72.0,0,60,5.0,0.0
1502,65.0,40,60,6.0,0.0
1503,75.0,8,120,4.0,0.0
1504,33.0,2,450,8.0,0.0
1505,45.0,132,450,7.0,0.0
1506,65.0,4,120,6.0,0.0
1507,72.0,230,120,5.0,0.0
1508,75.0,6,120,4.0,0.0
1509,65.0,2,120,6.0,0.0
1510,72.0,88,120,5.0,0.0
1511,63.0,120,480,0.0,0.0
1512,72.0,4,120,5.0,0.0
1513,75.0,0,120,4.0,0.0
1514,65.0,230,120,6.0,0.0
1515,75.0,8,120,4.0,0.0
1516,72.0,4,120,5.0,0.0
1517,65.0,118,120,6.0,0.0
1518,46.0,4,450,8.0,0.0
1519,65.0,64,120,0.0,0.0
1520,58.0,54,450,7.0,0.0
1521,63.0,48,90,0.0,0.0
1522,65.0,60,90,0.0,0.0
1523,63.0,60,90,0.0,0.0
1524,75.0,44,150,4.0,0.0
1525,72.0,0,120,5.0,0.0
1526,65.0,30,120,6.0,0.0
1527,65.0,6,90,0.0,0.0
1528,63.0,0,90,0.0,0.0
1529,62.0,30,90,0.0,0.0
1530,63.0,76,120,0.0,0.0
1531,62.0,464,480,0.0,0.0
1532,70.0,0,120,5.0,0.0
1533,74.0,4,120,4.0,0.0
1534,65.0,186,120,6.0,0.0
1535,74.0,24,90,4.0,0.0
1536,70.0,34,60,5.0,0.0
1537,65.0,116,120,6.0,0.0
1538,50.0,2,450,7.0,0.0
1539,38.0,10,450,8.0,0.0
1540,77.0,86,300,4.0,0.0
1541,74.0,2,240,5.0,0.0
1542,58.0,76,240,6.0,0.0
1543,70.0,68,300,4.0,0.0
1544,67.0,70,150,0.0,0.0
1545,65.0,8,240,5.0,0.0
1546,62.0,22,240,6.0,0.0
1547,65.0,28,150,0.0,0.0
1548,74.0,8,240,4.0,0.0
1549,63.0,88,150,0.0,0.0
1550,65.0,24,120,5.0,0.0
1551,58.0,0,240,6.0,0.0
1552,62.0,250,120,0.0,0.0
1553,39.0,2,900,8.0,0.0
1554,62.0,12,300,0.0,0.0
1555,74.0,46,240,4.0,0.0
1556,51.0,126,900,7.0,0.0
1557,65.0,140,300,5.0,0.0
1558,55.0,356,1020,6.0,0.0
1559,72.0,12,210,4.0,0.0
1560,60.0,378,270,0.0,0.0
1561,63.0,64,210,5.0,0.0
1562,70.0,358,1020,4.0,0.0
1563,58.0,4,1020,0.0,0.0
1564,62.0,2,1020,5.0,0.0
1565,53.0,110,420,7.0,0.0
1566,41.0,0,420,8.0,0.0
1567,53.0,2,930,6.0,0.0
1568,69.0,6,420,4.0,0.0
1569,57.0,156,450,0.0,0.0
1570,39.0,4,420,8.0,0.0
1571,51.0,2,420,7.0,0.0
1572,60.0,14,420,5.0,0.0
1573,38.0,4,420,8.0,0.0
1574,70.0,4,210,4.0,0.0
1575,58.0,84,120,0.0,0.0
1576,50.0,20,420,7.0,0.0
1577,53.0,2,210,6.0,0.0
1578,62.0,108,210,5.0,0.0
1579,53.0,6,90,0.0,0.0
1580,55.0,96,90,0.0,0.0
1581,57.0,112,90,0.0,0.0
1582,58.0,128,90,0.0,0.0
1583,60.0,120,90,0.0,0.0
1584,62.0,104,90,0.0,0.0
1585,63.0,128,60,0.0,0.0
1586,77.0,8,210,4.0,0.0
1587,65.0,128,60,0.0,0.0
1588,74.0,72,210,5.0,0.0
1589,65.0,96,150,0.0,0.0
1590,64.0,124,150,0.0,0.0
1591,65.0,136,150,0.0,0.0
1592,82.0,10,210,4.0,0.0
1593,67.0,44,150,0.0,0.0
1594,74.0,26,210,5.0,0.0
1595,65.0,120,120,0.0,0.0
1596,63.0,104,120,0.0,0.0
1597,62.0,184,90,0.0,0.0
1598,39.0,6,420,8.0,0.0
1599,62.0,64,180,0.0,0.0
1600,51.0,0,420,7.0,0.0
1601,55.0,150,1020,6.0,0.0
1602,60.0,72,120,0.0,0.0
1603,72.0,168,270,4.0,0.0
1604,63.0,114,60,0.0,0.0
1605,63.0,62,210,5.0,0.0
1606,60.0,32,60,0.0,0.0
1607,70.0,8,210,4.0,0.0
1608,58.0,2,1020,0.0,0.0
1609,52.0,2,420,7.0,0.0
1610,40.0,6,420,8.0,0.0
1611,62.0,132,210,5.0,0.0
1612,70.0,116,180,4.0,0.0
1613,62.0,76,90,5.0,0.0
1614,70.0,134,300,4.0,0.0
1615,53.0,4,420,7.0,0.0
1616,41.0,30,420,8.0,0.0
1617,62.0,70,210,5.0,0.0
1618,53.0,24,900,6.0,0.0
1619,74.0,156,300,4.0,0.0
1620,65.0,78,210,5.0,0.0
1621,57.0,39,570,0.0,0.0
1622,72.0,140,270,4.0,0.0
1623,29.0,2,420,8.0,0.0
1624,41.0,10,420,7.0,0.0
1625,63.0,68,210,5.0,0.0
1626,69.0,55,240,4.0,0.0
1627,60.0,40,210,5.0,0.0
1628,70.0,100,120,4.0,0.0
1629,58.0,56,540,0.0,0.0
1630,34.0,20,210,8.0,0.0
1631,46.0,0,210,7.0,0.0
1632,70.0,4,420,1.0,0.0
1633,62.0,2,90,5.0,0.0
1634,58.0,36,420,2.0,0.0
1635,58.0,88,240,6.0,0.0
1636,58.0,28,120,4.0,0.0
1637,60.0,72,120,4.0,0.0
1638,36.0,2,90,8.0,0.0
1639,48.0,2,90,7.0,0.0
1640,62.0,62,120,4.0,0.0
1641,38.0,6,90,8.0,0.0
1642,50.0,2,90,7.0,0.0
1643,63.0,112,120,4.0,0.0
1644,39.0,2,90,8.0,0.0
1645,51.0,2,90,7.0,0.0
1646,65.0,110,120,4.0,0.0
1647,53.0,2,90,7.0,0.0
1648,41.0,8,90,8.0,0.0
1649,67.0,116,120,4.0,0.0
1650,55.0,6,90,7.0,0.0
1651,43.0,0,90,8.0,0.0
1652,69.0,112,120,4.0,0.0
1653,45.0,4,90,8.0,0.0
1654,57.0,2,90,7.0,0.0
1655,70.0,4,420,1.0,0.0
1656,70.0,112,120,4.0,0.0
1657,46.0,6,90,8.0,0.0
1658,82.0,2,420,1.0,0.0
1659,70.0,2,420,2.0,0.0
1660,58.0,36,420,2.0,0.0
1661,58.0,2,90,7.0,0.0
1662,48.0,2,90,8.0,0.0
1663,72.0,108,120,4.0,0.0
1664,60.0,8,90,7.0,0.0
1665,50.0,4,90,8.0,0.0
1666,74.0,62,120,4.0,0.0
1667,62.0,10,90,7.0,0.0
1668,45.0,6,90,8.0,0.0
1669,69.0,106,120,4.0,0.0
1670,57.0,8,90,7.0,0.0
1671,70.0,112,120,4.0,0.0
1672,46.0,8,90,8.0,0.0
1673,70.0,6,420,1.0,0.0
1674,70.0,2,420,2.0,0.0
1675,82.0,0,420,1.0,0.0
1676,58.0,2,90,7.0,0.0
1677,58.0,40,420,2.0,0.0
1678,72.0,114,120,4.0,0.0
1679,48.0,6,90,8.0,0.0
1680,60.0,0,90,7.0,0.0
1681,74.0,66,120,4.0,0.0
1682,50.0,6,90,8.0,0.0
1683,62.0,2,90,7.0,0.0
1684,69.0,118,120,4.0,0.0
1685,57.0,2,90,7.0,0.0
1686,45.0,2,90,8.0,0.0
1687,70.0,2,420,1.0,0.0
1688,58.0,0,420,2.0,0.0
1689,70.0,4,420,2.0,0.0
1690,70.0,110,120,4.0,0.0
1691,82.0,42,420,1.0,0.0
1692,46.0,2,90,8.0,0.0
1693,58.0,6,90,7.0,0.0
1694,46.0,2,90,7.0,0.0
1695,58.0,110,120,4.0,0.0
1696,34.0,8,90,8.0,0.0
1697,60.0,68,120,4.0,0.0
1698,36.0,0,90,8.0,0.0
1699,48.0,4,90,7.0,0.0
1700,62.0,112,120,4.0,0.0
1701,38.0,8,90,8.0,0.0
1702,50.0,0,90,7.0,0.0
1703,63.0,110,120,4.0,0.0
1704,51.0,2,90,7.0,0.0
1705,39.0,4,90,8.0,0.0
1706,65.0,118,120,4.0,0.0
1707,41.0,8,90,8.0,0.0
1708,53.0,0,90,7.0,0.0
1709,67.0,108,120,4.0,0.0
1710,43.0,2,90,8.0,0.0
1711,55.0,4,90,7.0,0.0
1712,45.0,8,90,8.0,0.0
1713,69.0,106,120,4.0,0.0
1714,57.0,6,90,7.0,0.0
1715,46.0,8,90,8.0,0.0
1716,70.0,116,120,4.0,0.0
1717,70.0,2,420,2.0,0.0
1718,70.0,0,420,1.0,0.0
1719,82.0,0,420,1.0,0.0
1720,58.0,40,420,2.0,0.0
1721,58.0,2,90,7.0,0.0
1722,72.0,114,120,4.0,0.0
1723,48.0,2,90,8.0,0.0
1724,60.0,2,90,7.0,0.0
1725,74.0,68,120,4.0,0.0
1726,50.0,2,90,8.0,0.0
1727,62.0,8,90,7.0,0.0
1728,69.0,118,120,4.0,0.0
1729,45.0,2,90,8.0,0.0
1730,57.0,2,90,7.0,0.0
1731,70.0,0,120,4.0,0.0
1732,82.0,4,420,1.0,0.0
1733,58.0,2,420,2.0,0.0
1734,46.0,2,90,8.0,0.0
1735,70.0,0,420,1.0,0.0
1736,70.0,36,420,2.0,0.0
1737,58.0,118,90,7.0,0.0
1738,72.0,108,120,4.0,0.0
1739,48.0,0,90,8.0,0.0
1740,60.0,8,90,7.0,0.0
1741,74.0,68,120,4.0,0.0
1742,62.0,0,90,7.0,0.0
1743,50.0,8,90,8.0,0.0
1744,69.0,430,120,4.0,0.0
1745,45.0,6,90,8.0,0.0
1746,57.0,2,90,7.0,0.0
1747,70.0,2,420,1.0,0.0
1748,70.0,458,450,4.0,0.0
1749,70.0,2,420,2.0,0.0
1750,58.0,0,420,7.0,0.0
1751,82.0,0,420,1.0,0.0
1752,46.0,0,420,8.0,0.0
1753,58.0,14,420,2.0,0.0
1754,82.0,2,420,4.0,0.0
1755,46.0,2,420,8.0,0.0
1756,70.0,0,420,4.0,0.0
1757,58.0,2,420,7.0,0.0
1758,70.0,2,420,2.0,0.0
1759,62.0,0,420,2.0,0.0
1760,62.0,0,420,4.0,0.0
1761,82.0,0,420,1.0,0.0
1762,74.0,472,420,1.0,0.0
1763,58.0,4,420,4.0,0.0
1764,34.0,0,420,8.0,0.0
1765,70.0,2,420,1.0,0.0
1766,58.0,642,420,2.0,0.0
1767,46.0,0,420,7.0,0.0
1768,53.0,42,300,0.0,0.0
1769,69.0,8,90,4.0,0.0
1770,41.0,6,420,8.0,0.0
1771,53.0,156,420,7.0,0.0
1772,60.0,2,90,5.0,0.0
1773,53.0,190,90,6.0,0.0
1774,60.0,0,90,5.0,0.0
1775,69.0,4,90,4.0,0.0
1776,53.0,70,90,6.0,0.0
1777,69.0,8,90,4.0,0.0
1778,53.0,94,480,0.0,0.0
1779,60.0,232,90,5.0,0.0
1780,53.0,0,90,6.0,0.0
1781,69.0,4,90,4.0,0.0
1782,60.0,6,90,5.0,0.0
1783,53.0,140,90,6.0,0.0
1784,69.0,2,90,4.0,0.0
1785,60.0,4,90,5.0,0.0
1786,53.0,96,90,6.0,0.0
1787,41.0,114,90,0.0,0.0
1788,69.0,8,90,4.0,0.0
1789,45.0,20,90,0.0,0.0
1790,60.0,2,90,5.0,0.0
1791,53.0,84,90,6.0,0.0
1792,48.0,112,90,0.0,0.0
1793,69.0,4,90,4.0,0.0
1794,53.0,34,60,0.0,0.0
1795,60.0,4,90,5.0,0.0
1796,53.0,84,90,6.0,0.0
1797,45.0,120,60,0.0,0.0
1798,69.0,10,90,4.0,0.0
1799,48.0,26,60,0.0,0.0
1800,53.0,2,90,6.0,0.0
1801,60.0,74,90,5.0,0.0
1802,53.0,128,60,0.0,0.0
1803,69.0,38,270,4.0,0.0
1804,53.0,4,420,7.0,0.0
1805,57.0,124,60,0.0,0.0
1806,41.0,16,420,8.0,0.0
1807,60.0,2,210,5.0,0.0
1808,53.0,62,210,6.0,0.0
1809,48.0,16,90,0.0,0.0
1810,53.0,104,90,0.0,0.0
1811,72.0,0,210,4.0,0.0
1812,69.0,96,210,5.0,0.0
1813,65.0,0,210,6.0,0.0
1814,57.0,16,90,0.0,0.0
1815,60.0,38,60,0.0,0.0
1816,72.0,54,270,4.0,0.0
1817,69.0,4,90,5.0,0.0
1818,65.0,82,90,6.0,0.0
1819,53.0,66,90,0.0,0.0
1820,77.0,242,210,4.0,0.0
1821,57.0,32,90,0.0,0.0
1822,69.0,6,90,5.0,0.0
1823,65.0,78,90,6.0,0.0
1824,60.0,20,60,0.0,0.0
1825,77.0,18,300,4.0,0.0
1826,65.0,142,300,0.0,0.0
1827,69.0,4,210,5.0,0.0
1828,65.0,76,210,6.0,0.0
1829,76.0,30,270,4.0,0.0
1830,64.0,152,300,0.0,0.0
1831,69.0,2,210,5.0,0.0
1832,65.0,54,210,6.0,0.0
1833,74.0,158,300,4.0,0.0
1834,62.0,2,270,0.0,0.0
1835,69.0,2,210,5.0,0.0
1836,65.0,70,210,6.0,0.0
1837,60.0,4,210,0.0,0.0
1838,72.0,4,210,4.0,0.0
1839,69.0,2,210,5.0,0.0
1840,65.0,302,210,6.0,0.0
1841,72.0,78,300,4.0,0.0
1842,43.0,6,420,8.0,0.0
1843,55.0,2,420,7.0,0.0
1844,62.0,2,420,6.0,0.0
1845,60.0,34,270,0.0,0.0
1846,67.0,20,420,5.0,0.0
1847,59.0,30,150,0.0,0.0
1848,71.0,132,210,4.0,0.0
1849,71.0,8,90,4.0,0.0
1850,59.0,64,1470,0.0,0.0
1851,67.0,52,120,5.0,0.0
1852,64.0,2,90,6.0,0.0
1853,62.0,10,90,6.0,0.0
1854,65.0,52,120,5.0,0.0
1855,67.0,52,120,5.0,0.0
1856,64.0,8,90,6.0,0.0
1857,65.0,54,120,5.0,0.0
1858,62.0,4,90,6.0,0.0
1859,71.0,2,90,4.0,0.0
1860,67.0,52,120,5.0,0.0
1861,64.0,8,90,6.0,0.0
1862,65.0,54,120,5.0,0.0
1863,62.0,6,90,6.0,0.0
1864,67.0,50,120,5.0,0.0
1865,64.0,8,90,6.0,0.0
1866,65.0,50,120,5.0,0.0
1867,62.0,8,90,6.0,0.0
1868,71.0,6,90,4.0,0.0
1869,67.0,52,120,5.0,0.0
1870,64.0,2,90,6.0,0.0
1871,65.0,58,120,5.0,0.0
1872,62.0,8,90,6.0,0.0
1873,67.0,46,120,5.0,0.0
1874,64.0,8,90,6.0,0.0
1875,62.0,10,90,6.0,0.0
1876,65.0,52,120,5.0,0.0
1877,71.0,80,90,4.0,0.0
1878,64.0,8,180,5.0,0.0
1879,61.0,82,180,6.0,0.0
1880,65.0,22,150,5.0,0.0
1881,62.0,50,180,6.0,0.0
1882,71.0,150,90,4.0,0.0
1883,67.0,16,240,5.0,0.0
1884,64.0,76,270,6.0,0.0
1885,65.0,0,90,5.0,0.0
1886,71.0,68,90,4.0,0.0
1887,62.0,102,180,6.0,0.0
1888,70.0,110,90,4.0,0.0
1889,58.0,68,360,0.0,0.0
1890,36.0,0,420,8.0,0.0
1891,48.0,30,420,7.0,0.0
1892,64.0,8,210,5.0,0.0
1893,60.0,128,210,6.0,0.0
1894,70.0,6,90,4.0,0.0
1895,67.0,2,210,5.0,0.0
1896,64.0,128,210,6.0,0.0
1897,70.0,8,90,4.0,0.0
1898,36.0,52,1020,0.0,0.0
1899,64.0,2,90,6.0,0.0
1900,67.0,230,90,5.0,0.0
1901,70.0,8,90,4.0,0.0
1902,67.0,6,90,5.0,0.0
1903,64.0,230,90,6.0,0.0
1904,70.0,6,90,4.0,0.0
1905,67.0,2,90,5.0,0.0
1906,64.0,232,90,6.0,0.0
1907,70.0,8,90,4.0,0.0
1908,67.0,0,90,5.0,0.0
1909,64.0,180,90,6.0,0.0
1910,67.0,52,780,0.0,0.0
1911,70.0,2,90,4.0,0.0
1912,67.0,2,90,5.0,0.0
1913,64.0,232,90,6.0,0.0
1914,70.0,10,90,4.0,0.0
1915,64.0,2,90,6.0,0.0
1916,67.0,230,90,5.0,0.0
1917,70.0,4,90,4.0,0.0
1918,60.0,2,900,7.0,0.0
1919,67.0,8,90,5.0,0.0
1920,48.0,264,900,8.0,0.0
1921,64.0,178,90,6.0,0.0
1922,70.0,6,90,4.0,0.0
1923,64.0,100,480,0.0,0.0
1924,64.0,232,90,6.0,0.0
1925,67.0,0,90,5.0,0.0
1926,70.0,4,90,4.0,0.0
1927,67.0,6,90,5.0,0.0
1928,64.0,128,90,6.0,0.0
1929,70.0,6,90,4.0,0.0
1930,60.0,188,480,0.0,0.0
1931,67.0,6,90,5.0,0.0
1932,64.0,68,90,6.0,0.0
1933,36.0,4,900,8.0,0.0
1934,70.0,6,210,4.0,0.0
1935,48.0,28,900,7.0,0.0
1936,67.0,28,210,5.0,0.0
1937,64.0,22,420,6.0,0.0
1938,55.0,150,300,0.0,0.0
1939,67.0,10,300,4.0,0.0
1940,64.0,84,210,5.0,0.0
1941,57.0,26,270,0.0,0.0
1942,69.0,108,300,4.0,0.0
1943,65.0,70,210,5.0,0.0
1944,58.0,12,240,0.0,0.0
1945,70.0,8,210,4.0,0.0
1946,67.0,76,240,5.0,0.0
1947,64.0,22,210,6.0,0.0
1948,72.0,18,90,4.0,0.0
1949,53.0,0,420,7.0,0.0
1950,41.0,6,420,8.0,0.0
1951,60.0,6,90,0.0,0.0
1952,69.0,32,120,5.0,0.0
1953,64.0,2,420,6.0,0.0
1954,70.0,18,90,4.0,0.0
1955,58.0,8,90,0.0,0.0
1956,67.0,38,120,5.0,0.0
1957,60.0,6,90,0.0,0.0
1958,72.0,18,90,4.0,0.0
1959,69.0,30,120,5.0,0.0
1960,58.0,14,90,0.0,0.0
1961,70.0,14,90,4.0,0.0
1962,67.0,44,120,5.0,0.0
1963,60.0,14,90,0.0,0.0
1964,72.0,2,90,4.0,0.0
1965,69.0,18,120,5.0,0.0
1966,58.0,14,90,0.0,0.0
1967,70.0,10,90,4.0,0.0
1968,67.0,28,90,5.0,0.0
1969,57.0,12,90,0.0,0.0
1970,69.0,12,90,4.0,0.0
1971,69.0,48,90,5.0,0.0
1972,58.0,2,120,0.0,0.0
1973,70.0,8,90,4.0,0.0
1974,67.0,120,90,5.0,0.0
1975,69.0,116,150,4.0,0.0
1976,57.0,30,480,0.0,0.0
1977,29.0,2,420,8.0,0.0
1978,65.0,6,150,5.0,0.0
1979,41.0,6,420,7.0,0.0
1980,65.0,50,420,6.0,0.0
1981,67.0,110,150,4.0,0.0
1982,64.0,8,150,5.0,0.0
1983,69.0,24,150,4.0,0.0
1984,65.0,8,150,5.0,0.0
1985,70.0,70,150,4.0,0.0
1986,67.0,8,150,5.0,0.0
1987,72.0,226,120,4.0,0.0
1988,69.0,6,90,5.0,0.0
1989,72.0,6,90,4.0,0.0
1990,33.0,0,90,8.0,0.0
1991,45.0,4,90,7.0,0.0
1992,60.0,206,120,0.0,0.0
1993,65.0,4,90,5.0,0.0
1994,57.0,16,90,6.0,0.0
1995,33.0,0,90,8.0,0.0
1996,72.0,4,90,4.0,0.0
1997,45.0,6,90,7.0,0.0
1998,62.0,6,90,0.0,0.0
1999,65.0,48,90,5.0,0.0
2000,57.0,0,90,6.0,0.0
2001,60.0,48,90,0.0,0.0
2002,62.0,54,90,0.0,0.0
2003,60.0,66,90,0.0,0.0
2004,72.0,4,90,4.0,0.0
2005,62.0,12,90,0.0,0.0
2006,33.0,2,90,8.0,0.0
2007,45.0,4,90,7.0,0.0
2008,65.0,2,90,5.0,0.0
2009,57.0,66,90,6.0,0.0
2010,60.0,2,60,0.0,0.0
2011,58.0,40,120,0.0,0.0
2012,60.0,140,90,0.0,0.0
2013,34.0,0,300,8.0,0.0
2014,62.0,84,120,0.0,0.0
2015,46.0,2,300,7.0,0.0
2016,74.0,84,360,4.0,0.0
2017,65.0,6,300,5.0,0.0
2018,58.0,14,300,6.0,0.0
2019,58.0,98,90,0.0,0.0
2020,58.0,44,90,0.0,0.0
2021,58.0,132,90,0.0,0.0
2022,60.0,68,90,0.0,0.0
2023,58.0,54,120,0.0,0.0
2024,60.0,110,90,0.0,0.0
2025,58.0,80,150,0.0,0.0
2026,57.0,84,120,0.0,0.0
2027,58.0,56,120,0.0,0.0
2028,53.0,60,150,0.0,0.0
2029,34.0,4,60,8.0,0.0
2030,74.0,48,90,4.0,0.0
2031,46.0,0,60,7.0,0.0
2032,65.0,2,60,5.0,0.0
2033,58.0,14,60,6.0,0.0
2034,58.0,108,90,0.0,0.0
2035,58.0,140,60,0.0,0.0
2036,58.0,102,90,0.0,0.0
2037,46.0,2,60,7.0,0.0
2038,50.0,40,150,0.0,0.0
2039,65.0,2,60,5.0,0.0
2040,74.0,56,90,4.0,0.0
2041,34.0,2,60,8.0,0.0
2042,58.0,16,60,6.0,0.0
2043,58.0,120,60,0.0,0.0
2044,58.0,128,60,0.0,0.0
2045,58.0,192,90,0.0,0.0
2046,34.0,2,300,8.0,0.0
2047,46.0,40,150,0.0,0.0
2048,74.0,60,360,4.0,0.0
2049,65.0,2,300,5.0,0.0
2050,58.0,0,300,6.0,0.0
2051,46.0,64,300,7.0,0.0
2052,58.0,110,60,0.0,0.0
2053,58.0,2,60,0.0,0.0
2054,58.0,136,60,0.0,0.0
2055,60.0,64,90,0.0,0.0
2056,58.0,56,90,0.0,0.0
2057,60.0,96,90,0.0,0.0
2058,58.0,96,120,0.0,0.0
2059,57.0,56,120,0.0,0.0
2060,58.0,102,90,0.0,0.0
2061,62.0,52,150,0.0,0.0
2062,74.0,48,90,4.0,0.0
2063,34.0,2,60,8.0,0.0
2064,46.0,2,60,7.0,0.0
2065,65.0,2,60,5.0,0.0
2066,58.0,8,60,6.0,0.0
2067,58.0,108,60,0.0,0.0
2068,58.0,132,60,0.0,0.0
2069,58.0,122,60,0.0,0.0
2070,74.0,42,90,4.0,0.0
2071,34.0,2,60,8.0,0.0
2072,65.0,60,120,0.0,0.0
2073,46.0,2,60,7.0,0.0
2074,58.0,4,60,6.0,0.0
2075,65.0,8,60,5.0,0.0
2076,62.0,120,60,0.0,0.0
2077,62.0,104,60,0.0,0.0
2078,62.0,236,60,0.0,0.0
2079,76.0,74,360,4.0,0.0
2080,34.0,0,300,8.0,0.0
2081,64.0,20,180,0.0,0.0
2082,46.0,4,300,7.0,0.0
2083,72.0,2,300,5.0,0.0
2084,67.0,4,300,6.0,0.0
2085,60.0,110,60,0.0,0.0
2086,60.0,38,60,0.0,0.0
2087,60.0,140,60,0.0,0.0
2088,62.0,48,90,0.0,0.0
2089,60.0,60,90,0.0,0.0
2090,62.0,128,90,0.0,0.0
2091,60.0,84,150,0.0,0.0
2092,59.0,76,120,0.0,0.0
2093,60.0,78,120,0.0,0.0
2094,55.0,44,150,0.0,0.0
2095,76.0,68,90,4.0,0.0
2096,34.0,2,60,8.0,0.0
2097,46.0,0,60,7.0,0.0
2098,72.0,4,60,5.0,0.0
2099,67.0,8,60,6.0,0.0
2100,60.0,108,90,0.0,0.0
2101,60.0,128,60,0.0,0.0
2102,60.0,114,90,0.0,0.0
2103,52.0,28,180,0.0,0.0
2104,76.0,68,90,4.0,0.0
2105,34.0,2,60,8.0,0.0
2106,72.0,2,60,5.0,0.0
2107,46.0,4,60,7.0,0.0
2108,67.0,22,60,6.0,0.0
2109,60.0,120,90,0.0,0.0
2110,60.0,120,90,0.0,0.0
2111,60.0,212,90,0.0,0.0
2112,76.0,86,360,4.0,0.0
2113,48.0,40,180,0.0,0.0
2114,34.0,0,300,8.0,0.0
2115,46.0,4,300,7.0,0.0
2116,60.0,0,300,6.0,0.0
2117,67.0,24,300,5.0,0.0
2118,60.0,92,90,0.0,0.0
2119,60.0,34,90,0.0,0.0
2120,60.0,114,90,0.0,0.0
2121,62.0,52,90,0.0,0.0
2122,60.0,56,90,0.0,0.0
2123,62.0,128,90,0.0,0.0
2124,60.0,80,150,0.0,0.0
2125,59.0,82,120,0.0,0.0
2126,60.0,68,120,0.0,0.0
2127,34.0,2,60,8.0,0.0
2128,64.0,12,180,0.0,0.0
2129,46.0,6,60,7.0,0.0
2130,76.0,68,90,4.0,0.0
2131,67.0,4,60,5.0,0.0
2132,60.0,20,60,6.0,0.0
2133,60.0,120,60,0.0,0.0
2134,60.0,128,60,0.0,0.0
2135,60.0,124,60,0.0,0.0
2136,76.0,62,90,4.0,0.0
2137,67.0,40,150,0.0,0.0
2138,34.0,4,60,8.0,0.0
2139,67.0,0,60,5.0,0.0
2140,46.0,4,60,7.0,0.0
2141,60.0,14,60,6.0,0.0
2142,64.0,120,90,0.0,0.0
2143,64.0,112,90,0.0,0.0
2144,64.0,152,60,0.0,0.0
2145,77.0,30,270,4.0,0.0
2146,65.0,14,330,0.0,0.0
2147,33.0,2,90,8.0,0.0
2148,45.0,148,90,7.0,0.0
2149,72.0,48,270,5.0,0.0
2150,60.0,24,420,6.0,0.0
2151,72.0,8,210,4.0,0.0
2152,33.0,4,90,8.0,0.0
2153,45.0,74,90,7.0,0.0
2154,69.0,130,210,5.0,0.0
2155,72.0,14,1020,4.0,0.0
2156,45.0,0,90,7.0,0.0
2157,65.0,132,210,5.0,0.0
2158,33.0,104,90,8.0,0.0
2159,57.0,96,900,6.0,0.0
2160,60.0,44,990,0.0,0.0
2161,33.0,6,90,8.0,0.0
2162,45.0,234,90,7.0,0.0
2163,65.0,154,420,5.0,0.0
2164,33.0,4,90,8.0,0.0
2165,45.0,82,90,7.0,0.0
2166,33.0,2,90,8.0,0.0
2167,45.0,86,90,7.0,0.0
2168,65.0,156,420,5.0,0.0
2169,73.0,50,480,4.0,0.0
2170,61.0,372,540,0.0,0.0
2171,45.0,4,90,7.0,0.0
2172,33.0,80,90,8.0,0.0
2173,57.0,52,420,6.0,0.0
2174,33.0,2,90,8.0,0.0
2175,45.0,80,90,7.0,0.0
2176,65.0,2,660,5.0,0.0
2177,46.0,2,420,7.0,0.0
2178,62.0,96,780,0.0,0.0
2179,74.0,38,750,4.0,0.0
2180,34.0,2,420,8.0,0.0
2181,58.0,320,420,6.0,0.0
2182,65.0,26,900,5.0,0.0
2183,34.0,4,420,8.0,0.0
2184,46.0,72,420,7.0,0.0
2185,64.0,2,180,0.0,0.0
2186,76.0,20,150,4.0,0.0
2187,65.0,206,180,0.0,0.0
2188,77.0,34,150,4.0,0.0
2189,76.0,42,270,4.0,0.0
2190,64.0,122,300,0.0,0.0
2191,74.0,18,270,4.0,0.0
2192,62.0,164,270,0.0,0.0
2193,46.0,2,210,7.0,0.0
2194,34.0,8,210,8.0,0.0
2195,58.0,48,210,6.0,0.0
2196,72.0,14,270,4.0,0.0
2197,60.0,100,270,0.0,0.0
2198,36.0,0,210,8.0,0.0
2199,48.0,4,210,7.0,0.0
2200,65.0,6,900,5.0,0.0
2201,60.0,54,210,6.0,0.0
2202,71.0,286,270,4.0,0.0
2203,38.0,6,210,8.0,0.0
2204,59.0,66,150,0.0,0.0
2205,50.0,4,210,7.0,0.0
2206,62.0,42,210,6.0,0.0
2207,33.0,2,420,8.0,0.0
2208,45.0,2,420,7.0,0.0
2209,60.0,80,300,0.0,0.0
2210,72.0,6,510,4.0,0.0
2211,57.0,16,420,6.0,0.0
2212,62.0,34,90,0.0,0.0
2213,60.0,70,90,0.0,0.0
2214,58.0,232,120,0.0,0.0
2215,60.0,150,270,0.0,0.0
2216,70.0,58,510,4.0,0.0
2217,67.0,338,570,5.0,0.0
2218,34.0,6,420,8.0,0.0
2219,46.0,0,420,7.0,0.0
2220,62.0,32,420,6.0,0.0
2221,62.0,54,210,0.0,0.0
2222,69.0,38,510,4.0,0.0
2223,53.0,28,540,0.0,0.0
2224,48.0,2,900,7.0,0.0
2225,36.0,0,900,8.0,0.0
2226,65.0,332,570,5.0,0.0
2227,60.0,76,420,6.0,0.0
2228,67.0,54,510,4.0,0.0
2229,52.0,338,570,0.0,0.0
2230,64.0,6,480,5.0,0.0
2231,58.0,74,420,6.0,0.0
2232,29.0,2,420,8.0,0.0
2233,84.0,2,420,1.0,0.0
2234,53.0,250,540,0.0,0.0
2235,65.0,26,510,4.0,0.0
2236,41.0,0,420,7.0,0.0
2237,72.0,2,420,1.0,0.0
2238,72.0,0,420,2.0,0.0
2239,57.0,90,420,6.0,0.0
2240,65.0,0,420,5.0,0.0
2241,84.0,4,300,1.0,0.0
2242,72.0,4,300,1.0,0.0
2243,72.0,118,300,2.0,0.0
2244,72.0,2,90,1.0,0.0
2245,84.0,462,90,1.0,0.0
2246,72.0,2,60,2.0,0.0
2247,72.0,0,420,1.0,0.0
2248,72.0,0,420,2.0,0.0
2249,84.0,480,420,1.0,0.0
2250,72.0,2,420,1.0,0.0
2251,72.0,1068,420,2.0,0.0
2252,84.0,0,420,1.0,0.0
2253,84.0,0,4740,1.0,0.0
2254,72.0,2,4740,2.0,0.0
2255,72.0,2,4740,1.0,0.0
2256,57.0,242,60,4.0,0.0
2257,60.0,132,510,0.0,0.0
2258,60.0,226,60,4.0,0.0
2259,65.0,42,480,4.0,0.0
2260,45.0,4,450,8.0,0.0
2261,58.0,28,180,0.0,0.0
2262,57.0,26,450,7.0,0.0
2263,60.0,8,420,5.0,0.0
2264,57.0,10,420,6.0,0.0
2265,57.0,128,90,0.0,0.0
2266,55.0,94,90,0.0,0.0
2267,53.0,20,90,0.0,0.0
2268,64.0,240,60,4.0,0.0
2269,58.0,54,510,0.0,0.0
2270,55.0,2,570,7.0,0.0
2271,58.0,0,570,5.0,0.0
2272,43.0,2,570,8.0,0.0
2273,55.0,90,570,6.0,0.0
2274,67.0,212,60,4.0,0.0
2275,57.0,36,180,0.0,0.0
2276,52.0,0,570,7.0,0.0
2277,70.0,18,420,4.0,0.0
2278,40.0,2,570,8.0,0.0
2279,52.0,2,570,6.0,0.0
2280,55.0,16,570,5.0,0.0
2281,55.0,120,90,0.0,0.0
2282,53.0,94,90,0.0,0.0
2283,52.0,120,90,0.0,0.0
2284,53.0,66,90,0.0,0.0
2285,70.0,68,150,4.0,0.0
2286,57.0,2,570,5.0,0.0
2287,53.0,26,570,7.0,0.0
2288,53.0,0,570,6.0,0.0
2289,41.0,0,570,8.0,0.0
2290,69.0,90,120,4.0,0.0
2291,67.0,122,120,4.0,0.0
2292,57.0,24,90,0.0,0.0
2293,65.0,90,120,4.0,0.0
2294,64.0,236,120,4.0,0.0
2295,45.0,6,450,8.0,0.0
2296,60.0,8,330,0.0,0.0
2297,57.0,2,450,7.0,0.0
2298,57.0,0,450,6.0,0.0
2299,60.0,66,450,5.0,0.0
2300,65.0,108,120,4.0,0.0
2301,58.0,12,540,0.0,0.0
2302,43.0,0,540,8.0,0.0
2303,55.0,4,540,7.0,0.0
2304,64.0,238,60,4.0,0.0
2305,55.0,2,540,6.0,0.0
2306,58.0,62,540,5.0,0.0
2307,67.0,252,60,4.0,0.0
2308,57.0,80,150,0.0,0.0
2309,70.0,0,420,4.0,0.0
2310,40.0,2,540,8.0,0.0
2311,55.0,16,420,5.0,0.0
2312,52.0,64,540,7.0,0.0
2313,52.0,2,540,6.0,0.0
2314,55.0,104,90,0.0,0.0
2315,53.0,92,90,0.0,0.0
2316,52.0,108,90,0.0,0.0
2317,70.0,80,150,4.0,0.0
2318,53.0,18,150,0.0,0.0
2319,41.0,0,540,8.0,0.0
2320,53.0,40,540,7.0,0.0
2321,57.0,66,270,5.0,0.0
2322,53.0,20,420,6.0,0.0
2323,69.0,50,120,4.0,0.0
2324,67.0,26,120,4.0,0.0
2325,57.0,54,150,0.0,0.0
2326,60.0,24,210,5.0,0.0
2327,65.0,64,120,4.0,0.0
2328,72.0,8,60,4.0,0.0
2329,45.0,4,450,8.0,0.0
2330,60.0,144,150,0.0,0.0
2331,65.0,46,90,5.0,0.0
2332,57.0,150,450,7.0,0.0
2333,75.0,52,60,4.0,0.0
2334,63.0,62,150,0.0,0.0
2335,72.0,52,90,5.0,0.0
2336,74.0,122,510,4.0,0.0
2337,62.0,272,150,0.0,0.0
2338,70.0,2,420,5.0,0.0
2339,58.0,0,420,7.0,0.0
2340,46.0,30,420,8.0,0.0
2341,46.0,14,180,0.0,0.0
2342,62.0,48,210,6.0,0.0
2343,45.0,264,150,0.0,0.0
2344,45.0,2,420,8.0,0.0
2345,57.0,2,420,7.0,0.0
2346,60.0,98,420,6.0,0.0
2347,72.0,6,300,4.0,0.0
2348,60.0,16,180,0.0,0.0
2349,66.0,108,300,5.0,0.0
2350,43.0,4,420,8.0,0.0
2351,58.0,256,150,0.0,0.0
2352,70.0,186,480,4.0,0.0
2353,55.0,6,420,7.0,0.0
2354,67.0,30,420,5.0,0.0
2355,43.0,2,180,0.0,0.0
2356,58.0,20,210,6.0,0.0
2357,41.0,238,180,0.0,0.0
2358,53.0,2,420,7.0,0.0
2359,41.0,0,420,8.0,0.0
2360,57.0,88,420,6.0,0.0
2361,69.0,38,270,4.0,0.0
2362,57.0,6,180,0.0,0.0
2363,62.0,92,300,5.0,0.0
2364,55.0,240,180,0.0,0.0
2365,67.0,170,480,4.0,0.0
2366,64.0,2,420,5.0,0.0
2367,40.0,0,420,8.0,0.0
2368,52.0,30,420,7.0,0.0
2369,40.0,14,180,0.0,0.0
2370,55.0,24,210,6.0,0.0
2371,38.0,2,420,8.0,0.0
2372,38.0,252,180,0.0,0.0
2373,50.0,4,420,7.0,0.0
2374,53.0,6,420,6.0,0.0
2375,65.0,156,300,4.0,0.0
2376,53.0,84,180,0.0,0.0
2377,59.0,18,270,5.0,0.0
2378,52.0,182,480,0.0,0.0
2379,64.0,178,240,4.0,0.0
2380,60.0,36,210,5.0,0.0
2381,48.0,0,420,7.0,0.0
2382,36.0,34,420,8.0,0.0
2383,67.0,64,540,4.0,0.0
2384,64.0,36,420,5.0,0.0
2385,60.0,22,210,6.0,0.0
2386,62.0,106,480,0.0,0.0
2387,46.0,2,420,7.0,0.0
2388,34.0,30,420,8.0,0.0
2389,58.0,68,210,6.0,0.0
2390,74.0,10,240,4.0,0.0
2391,64.0,16,210,5.0,0.0
2392,67.0,72,90,6.0,0.0
2393,60.0,46,300,0.0,0.0
2394,72.0,6,90,4.0,0.0
2395,33.0,2,210,8.0,0.0
2396,45.0,84,210,7.0,0.0
2397,65.0,2,90,5.0,0.0
2398,60.0,100,90,6.0,0.0
2399,72.0,4,90,4.0,0.0
2400,65.0,2,90,5.0,0.0
2401,57.0,234,90,6.0,0.0
2402,45.0,130,210,8.0,0.0
2403,67.0,26,180,0.0,0.0
2404,57.0,0,210,7.0,0.0
2405,77.0,6,90,4.0,0.0
2406,57.0,0,90,6.0,0.0
2407,72.0,72,90,5.0,0.0
2408,65.0,128,330,0.0,0.0
2409,77.0,6,90,4.0,0.0
2410,72.0,4,90,5.0,0.0
2411,57.0,104,90,6.0,0.0
2412,46.0,4,210,8.0,0.0
2413,74.0,8,90,4.0,0.0
2414,64.0,8,210,0.0,0.0
2415,58.0,128,210,7.0,0.0
2416,70.0,2,90,5.0,0.0
2417,58.0,88,90,6.0,0.0
2418,62.0,130,330,0.0,0.0
2419,74.0,8,90,4.0,0.0
2420,70.0,2,90,5.0,0.0
2421,58.0,106,90,6.0,0.0
2422,50.0,6,210,8.0,0.0
2423,60.0,18,180,0.0,0.0
2424,70.0,0,90,4.0,0.0
2425,65.0,4,90,5.0,0.0
2426,62.0,124,210,7.0,0.0
2427,62.0,82,90,6.0,0.0
2428,58.0,134,330,0.0,0.0
2429,70.0,8,90,4.0,0.0
2430,62.0,2,90,6.0,0.0
2431,65.0,102,90,5.0,0.0
2432,57.0,48,180,0.0,0.0
2433,69.0,0,90,4.0,0.0
2434,48.0,2,90,8.0,0.0
2435,60.0,0,90,7.0,0.0
2436,65.0,2,90,5.0,0.0
2437,60.0,58,90,6.0,0.0
2438,58.0,120,90,0.0,0.0
2439,60.0,10,90,0.0,0.0
2440,69.0,0,90,4.0,0.0
2441,60.0,2,90,7.0,0.0
2442,48.0,0,90,8.0,0.0
2443,60.0,2,90,6.0,0.0
2444,65.0,106,90,5.0,0.0
2445,58.0,124,90,0.0,0.0
2446,69.0,2,90,4.0,0.0
2447,48.0,2,90,8.0,0.0
2448,60.0,64,150,0.0,0.0
2449,60.0,8,90,7.0,0.0
2450,65.0,2,90,5.0,0.0
2451,60.0,46,90,6.0,0.0
2452,57.0,118,90,0.0,0.0
2453,69.0,2,90,4.0,0.0
2454,55.0,4,90,0.0,0.0
2455,60.0,0,90,7.0,0.0
2456,48.0,2,90,8.0,0.0
2457,60.0,0,90,6.0,0.0
2458,65.0,90,90,5.0,0.0
2459,53.0,142,90,0.0,0.0
2460,48.0,2,90,8.0,0.0
2461,57.0,104,180,0.0,0.0
2462,60.0,2,90,7.0,0.0
2463,67.0,2,90,4.0,0.0
2464,65.0,4,90,5.0,0.0
2465,60.0,72,90,6.0,0.0
2466,55.0,32,150,0.0,0.0
2467,57.0,20,90,0.0,0.0
2468,67.0,6,90,4.0,0.0
2469,48.0,2,90,8.0,0.0
2470,65.0,6,90,5.0,0.0
2471,60.0,0,90,7.0,0.0
2472,60.0,54,90,6.0,0.0
2473,55.0,40,120,0.0,0.0
2474,57.0,64,120,0.0,0.0
2475,55.0,40,90,0.0,0.0
2476,57.0,28,90,0.0,0.0
2477,67.0,4,90,4.0,0.0
2478,58.0,2,90,7.0,0.0
2479,46.0,4,90,8.0,0.0
2480,64.0,0,90,5.0,0.0
2481,60.0,30,90,6.0,0.0
2482,55.0,48,90,0.0,0.0
2483,57.0,140,90,0.0,0.0
2484,55.0,18,150,0.0,0.0
2485,67.0,2,90,4.0,0.0
2486,46.0,2,90,8.0,0.0
2487,58.0,2,90,7.0,0.0
2488,64.0,0,90,5.0,0.0
2489,60.0,60,90,6.0,0.0
2490,53.0,100,120,0.0,0.0
2491,55.0,178,120,0.0,0.0
2492,57.0,2,210,7.0,0.0
2493,53.0,32,300,0.0,0.0
2494,45.0,0,210,8.0,0.0
2495,65.0,34,270,4.0,0.0
2496,65.0,6,210,5.0,0.0
2497,60.0,60,210,6.0,0.0
2498,55.0,104,90,0.0,0.0
2499,57.0,128,90,0.0,0.0
2500,58.0,104,90,0.0,0.0
2501,60.0,128,90,0.0,0.0
2502,62.0,120,90,0.0,0.0
2503,64.0,180,90,0.0,0.0
2504,65.0,60,150,0.0,0.0
2505,60.0,120,90,0.0,0.0
2506,57.0,116,90,0.0,0.0
2507,53.0,200,90,0.0,0.0
2508,63.0,2,510,4.0,0.0
2509,45.0,0,540,7.0,0.0
2510,33.0,4,540,8.0,0.0
2511,53.0,62,1170,6.0,0.0
2512,60.0,78,540,5.0,0.0
2513,53.0,68,150,0.0,0.0
2514,51.0,48,90,0.0,0.0
2515,53.0,72,90,0.0,0.0
2516,51.0,60,90,0.0,0.0
2517,50.0,110,90,0.0,0.0
2518,51.0,26,150,0.0,0.0
2519,50.0,120,150,0.0,0.0
2520,62.0,138,510,4.0,0.0
2521,58.0,0,420,5.0,0.0
2522,34.0,2,420,8.0,0.0
2523,46.0,22,420,7.0,0.0
2524,52.0,56,150,0.0,0.0
2525,53.0,96,90,0.0,0.0
2526,52.0,58,90,0.0,0.0
2527,53.0,54,150,0.0,0.0
2528,54.0,46,150,0.0,0.0
2529,55.0,114,90,0.0,0.0
2530,54.0,208,90,0.0,0.0
2531,34.0,2,420,8.0,0.0
2532,67.0,164,480,4.0,0.0
2533,46.0,4,420,7.0,0.0
2534,55.0,124,180,0.0,0.0
2535,62.0,0,420,5.0,0.0
2536,58.0,58,420,6.0,0.0
2537,57.0,28,180,0.0,0.0
2538,58.0,98,90,0.0,0.0
2539,57.0,2,60,0.0,0.0
2540,58.0,136,180,0.0,0.0
2541,61.0,24,180,0.0,0.0
2542,62.0,104,90,0.0,0.0
2543,61.0,224,60,0.0,0.0
2544,74.0,92,240,4.0,0.0
2545,62.0,32,180,0.0,0.0
2546,34.0,2,210,8.0,0.0
2547,67.0,2,210,5.0,0.0
2548,58.0,0,210,6.0,0.0
2549,46.0,22,210,7.0,0.0
2550,64.0,2,90,0.0,0.0
2551,65.0,120,90,0.0,0.0
2552,64.0,120,90,0.0,0.0
2553,65.0,112,90,0.0,0.0
2554,34.0,2,210,8.0,0.0
2555,77.0,62,240,4.0,0.0
2556,74.0,2,210,5.0,0.0
2557,46.0,0,210,7.0,0.0
2558,67.0,30,210,6.0,0.0
2559,64.0,8,90,0.0,0.0
2560,65.0,128,60,0.0,0.0
2561,64.0,124,60,0.0,0.0
2562,46.0,2,210,7.0,0.0
2563,65.0,116,90,0.0,0.0
2564,77.0,86,240,4.0,0.0
2565,34.0,2,210,8.0,0.0
2566,74.0,6,210,5.0,0.0
2567,67.0,24,210,6.0,0.0
2568,64.0,16,60,0.0,0.0
2569,62.0,112,90,0.0,0.0
2570,60.0,104,90,0.0,0.0
2571,77.0,84,240,4.0,0.0
2572,58.0,136,60,0.0,0.0
2573,74.0,2,210,5.0,0.0
2574,34.0,2,210,8.0,0.0
2575,46.0,4,210,7.0,0.0
2576,67.0,18,210,6.0,0.0
2577,57.0,10,90,0.0,0.0
2578,55.0,100,90,0.0,0.0
2579,53.0,166,60,0.0,0.0
2580,36.0,4,90,8.0,0.0
2581,48.0,2,90,7.0,0.0
2582,60.0,228,90,6.0,0.0
2583,48.0,12,780,0.0,0.0
2584,81.0,4,90,4.0,0.0
2585,48.0,2,90,7.0,0.0
2586,36.0,4,90,8.0,0.0
2587,60.0,2,90,6.0,0.0
2588,77.0,228,90,5.0,0.0
2589,81.0,6,90,4.0,0.0
2590,77.0,4,90,5.0,0.0
2591,36.0,0,90,8.0,0.0
2592,48.0,4,90,7.0,0.0
2593,60.0,214,90,6.0,0.0
2594,81.0,4,90,4.0,0.0
2595,48.0,4,90,7.0,0.0
2596,60.0,0,90,6.0,0.0
2597,36.0,2,90,8.0,0.0
2598,77.0,230,90,5.0,0.0
2599,81.0,4,90,4.0,0.0
2600,81.0,18,900,1.0,0.0
2601,77.0,20,1860,1.0,0.0
2602,48.0,4,90,7.0,0.0
2603,36.0,2,90,8.0,0.0
2604,62.0,56,150,0.0,0.0
2605,77.0,0,90,5.0,0.0
2606,60.0,54,90,6.0,0.0
2607,60.0,48,90,0.0,0.0
2608,62.0,56,90,0.0,0.0
2609,36.0,2,90,8.0,0.0
2610,48.0,0,90,7.0,0.0
2611,81.0,4,90,4.0,0.0
2612,77.0,0,90,5.0,0.0
2613,60.0,16,90,6.0,0.0
2614,60.0,18,90,0.0,0.0
2615,62.0,56,90,0.0,0.0
2616,60.0,48,90,0.0,0.0
2617,62.0,48,90,0.0,0.0
2618,60.0,48,90,0.0,0.0
2619,81.0,0,90,4.0,0.0
2620,48.0,2,90,7.0,0.0
2621,62.0,22,90,0.0,0.0
2622,36.0,2,90,8.0,0.0
2623,60.0,2,90,6.0,0.0
2624,77.0,20,90,5.0,0.0
2625,60.0,64,90,0.0,0.0
2626,62.0,48,90,0.0,0.0
2627,60.0,56,90,0.0,0.0
2628,62.0,44,90,0.0,0.0
2629,36.0,2,90,8.0,0.0
2630,48.0,0,90,7.0,0.0
2631,81.0,6,90,4.0,0.0
2632,77.0,0,90,5.0,0.0
2633,60.0,4,90,6.0,0.0
2634,60.0,62,90,0.0,0.0
2635,59.0,64,120,0.0,0.0
2636,60.0,84,90,0.0,0.0
2637,69.0,6,240,0.0,0.0
2638,79.0,4,90,4.0,0.0
2639,81.0,6,1860,1.0,0.0
2640,36.0,2,210,8.0,0.0
2641,48.0,4,210,7.0,0.0
2642,77.0,102,90,5.0,0.0
2643,60.0,4,210,6.0,0.0
2644,79.0,0,90,4.0,0.0
2645,77.0,100,90,5.0,0.0
2646,67.0,20,150,0.0,0.0
2647,36.0,4,210,8.0,0.0
2648,79.0,2,90,4.0,0.0
2649,77.0,44,90,5.0,0.0
2650,48.0,6,210,7.0,0.0
2651,60.0,2,210,6.0,0.0
2652,69.0,56,120,0.0,0.0
2653,67.0,2,120,0.0,0.0
2654,79.0,6,90,4.0,0.0
2655,77.0,60,90,5.0,0.0
2656,69.0,52,120,0.0,0.0
2657,67.0,8,120,0.0,0.0
2658,79.0,2,90,4.0,0.0
2659,36.0,2,210,8.0,0.0
2660,48.0,2,210,7.0,0.0
2661,77.0,52,90,5.0,0.0
2662,60.0,6,210,6.0,0.0
2663,69.0,48,120,0.0,0.0
2664,67.0,4,90,0.0,0.0
2665,79.0,8,90,4.0,0.0
2666,77.0,38,90,5.0,0.0
2667,69.0,66,90,0.0,0.0
2668,67.0,10,120,0.0,0.0
2669,36.0,0,210,8.0,0.0
2670,48.0,8,210,7.0,0.0
2671,77.0,0,90,5.0,0.0
2672,79.0,34,90,4.0,0.0
2673,60.0,6,210,6.0,0.0
2674,69.0,40,90,0.0,0.0
2675,67.0,10,90,0.0,0.0
2676,79.0,8,90,4.0,0.0
2677,77.0,32,90,5.0,0.0
2678,69.0,44,120,0.0,0.0
2679,67.0,38,90,0.0,0.0
2680,76.0,4,900,1.0,0.0
2681,48.0,2,210,7.0,0.0
2682,79.0,4,90,4.0,0.0
2683,36.0,8,210,8.0,0.0
2684,76.0,14,90,5.0,0.0
2685,60.0,2,210,6.0,0.0
2686,69.0,44,90,0.0,0.0
2687,67.0,40,90,0.0,0.0
2688,79.0,4,90,4.0,0.0
2689,76.0,46,90,5.0,0.0
2690,69.0,2,90,0.0,0.0
2691,67.0,42,90,0.0,0.0
2692,69.0,26,90,0.0,0.0
2693,79.0,8,90,4.0,0.0
2694,36.0,8,210,8.0,0.0
2695,76.0,26,90,5.0,0.0
2696,48.0,4,210,7.0,0.0
2697,60.0,6,210,6.0,0.0
2698,67.0,54,90,0.0,0.0
2699,69.0,18,120,0.0,0.0
2700,79.0,6,90,4.0,0.0
2701,76.0,6,90,5.0,0.0
2702,67.0,40,90,0.0,0.0
2703,69.0,48,90,0.0,0.0
2704,79.0,6,90,4.0,0.0
2705,67.0,18,90,0.0,0.0
2706,76.0,32,90,5.0,0.0
2707,36.0,2,210,8.0,0.0
2708,48.0,4,210,7.0,0.0
2709,60.0,2,210,6.0,0.0
2710,69.0,44,90,0.0,0.0
2711,67.0,28,90,0.0,0.0
2712,79.0,8,90,4.0,0.0
2713,76.0,108,90,5.0,0.0
2714,69.0,4,90,0.0,0.0
2715,67.0,50,180,0.0,0.0
2716,79.0,6,90,4.0,0.0
2717,36.0,0,210,8.0,0.0
2718,48.0,10,210,7.0,0.0
2719,76.0,22,90,5.0,0.0
2720,60.0,6,210,6.0,0.0
2721,65.0,20,90,0.0,0.0
2722,79.0,2,90,4.0,0.0
2723,76.0,34,90,5.0,0.0
2724,67.0,86,120,0.0,0.0
2725,41.0,4,420,8.0,0.0
2726,65.0,100,480,0.0,0.0
2727,81.0,6,1860,1.0,0.0
2728,77.0,0,1860,1.0,0.0
2729,72.0,0,1860,2.0,0.0
2730,77.0,4,90,4.0,0.0
2731,53.0,36,420,7.0,0.0
2732,77.0,104,90,5.0,0.0
2733,53.0,8,210,6.0,0.0
2734,65.0,26,1860,2.0,0.0
2735,72.0,122,90,4.0,0.0
2736,72.0,74,90,4.0,0.0
2737,57.0,6,210,6.0,0.0
2738,72.0,16,90,4.0,0.0
2739,72.0,116,90,4.0,0.0
2740,60.0,10,210,6.0,0.0
2741,72.0,114,90,4.0,0.0
2742,72.0,106,90,4.0,0.0
2743,45.0,6,210,8.0,0.0
2744,57.0,6,210,7.0,0.0
2745,65.0,4,210,6.0,0.0
2746,72.0,118,90,4.0,0.0
2747,77.0,10,90,4.0,0.0
2748,41.0,6,210,8.0,0.0
2749,53.0,12,210,7.0,0.0
2750,69.0,98,90,5.0,0.0
2751,69.0,20,420,6.0,0.0
2752,72.0,114,90,4.0,0.0
2753,72.0,90,90,4.0,0.0
2754,36.0,0,210,8.0,0.0
2755,48.0,10,210,7.0,0.0
2756,72.0,126,90,4.0,0.0
2757,33.0,2,210,8.0,0.0
2758,81.0,4,90,4.0,0.0
2759,45.0,8,210,7.0,0.0
2760,65.0,100,90,5.0,0.0
2761,72.0,126,90,4.0,0.0
2762,72.0,74,90,4.0,0.0
2763,29.0,0,210,8.0,0.0
2764,53.0,2,210,6.0,0.0
2765,41.0,6,210,7.0,0.0
2766,72.0,122,90,4.0,0.0
2767,79.0,4,90,4.0,0.0
2768,79.0,2,1860,1.0,0.0
2769,28.0,4,420,8.0,0.0
2770,82.0,0,1860,1.0,0.0
2771,70.0,106,90,5.0,0.0
2772,72.0,24,1860,2.0,0.0
2773,55.0,12,210,6.0,0.0
2774,40.0,2,420,3.0,0.0
2775,40.0,26,420,7.0,0.0
2776,72.0,116,90,4.0,0.0
2777,72.0,80,90,4.0,0.0
2778,58.0,12,210,6.0,0.0
2779,72.0,116,90,4.0,0.0
2780,72.0,116,90,4.0,0.0
2781,64.0,10,210,6.0,0.0
2782,72.0,114,90,4.0,0.0
2783,72.0,106,90,4.0,0.0
2784,55.0,0,210,3.0,0.0
2785,43.0,6,210,8.0,0.0
2786,55.0,10,210,7.0,0.0
2787,67.0,0,210,6.0,0.0
2788,72.0,120,90,4.0,0.0
2789,79.0,6,90,4.0,0.0
2790,40.0,4,210,8.0,0.0
2791,67.0,100,90,5.0,0.0
2792,70.0,24,420,6.0,0.0
2793,52.0,0,210,7.0,0.0
2794,52.0,8,210,3.0,0.0
2795,72.0,122,90,4.0,0.0
2796,72.0,82,90,4.0,0.0
2797,46.0,2,210,7.0,0.0
2798,46.0,0,210,3.0,0.0
2799,34.0,12,210,8.0,0.0
2800,72.0,124,90,4.0,0.0
2801,31.0,2,210,8.0,0.0
2802,43.0,2,210,3.0,0.0
2803,43.0,14,210,7.0,0.0
2804,82.0,2,90,4.0,0.0
2805,64.0,98,90,5.0,0.0
2806,72.0,118,90,4.0,0.0
2807,72.0,78,90,4.0,0.0
2808,28.0,2,210,8.0,0.0
2809,40.0,2,210,3.0,0.0
2810,40.0,4,210,7.0,0.0
2811,55.0,12,210,6.0,0.0
2812,72.0,432,90,4.0,0.0
2813,81.0,2,420,1.0,0.0
2814,41.0,2,420,3.0,0.0
2815,77.0,0,420,1.0,0.0
2816,29.0,0,420,8.0,0.0
2817,81.0,116,480,4.0,0.0
2818,72.0,2,420,2.0,0.0
2819,72.0,2,420,5.0,0.0
2820,65.0,0,420,2.0,0.0
2821,41.0,2,420,7.0,0.0
2822,53.0,58,420,6.0,0.0
2823,72.0,2,300,2.0,0.0
2824,84.0,116,120,4.0,0.0
2825,77.0,2,300,1.0,0.0
2826,65.0,40,300,2.0,0.0
2827,81.0,0,300,1.0,0.0
2828,81.0,74,120,4.0,0.0
2829,77.0,80,120,4.0,0.0
2830,72.0,124,120,4.0,0.0
2831,77.0,4,90,1.0,0.0
2832,65.0,0,90,2.0,0.0
2833,81.0,34,90,1.0,0.0
2834,72.0,2,60,2.0,0.0
2835,81.0,4,420,1.0,0.0
2836,81.0,122,120,4.0,0.0
2837,65.0,0,420,2.0,0.0
2838,77.0,4,420,1.0,0.0
2839,72.0,54,420,2.0,0.0
2840,77.0,118,120,4.0,0.0
2841,72.0,58,120,4.0,0.0
2842,69.0,120,120,4.0,0.0
2843,81.0,2,420,1.0,0.0
2844,77.0,118,120,4.0,0.0
2845,65.0,2,420,2.0,0.0
2846,72.0,58,420,2.0,0.0
2847,77.0,0,420,1.0,0.0
2848,72.0,122,120,4.0,0.0
2849,69.0,58,120,4.0,0.0
2850,65.0,116,120,4.0,0.0
2851,72.0,122,120,4.0,0.0
2852,53.0,2,900,7.0,0.0
2853,53.0,2,900,3.0,0.0
2854,72.0,2,420,2.0,0.0
2855,77.0,0,420,1.0,0.0
2856,81.0,56,420,1.0,0.0
2857,65.0,0,420,2.0,0.0
2858,41.0,6,900,8.0,0.0
2859,65.0,40,900,6.0,0.0
2860,69.0,124,120,4.0,0.0
2861,65.0,60,120,4.0,0.0
2862,60.0,110,120,4.0,0.0
2863,74.0,106,120,4.0,0.0
2864,70.0,12,90,5.0,0.0
2865,72.0,112,120,4.0,0.0
2866,69.0,10,90,5.0,0.0
2867,70.0,64,120,4.0,0.0
2868,67.0,6,90,5.0,0.0
2869,69.0,110,120,4.0,0.0
2870,65.0,10,90,5.0,0.0
2871,67.0,336,120,4.0,0.0
2872,48.0,0,900,7.0,0.0
2873,48.0,2,900,3.0,0.0
2874,36.0,8,900,8.0,0.0
2875,64.0,8,90,5.0,0.0
2876,60.0,26,900,6.0,0.0
2877,67.0,216,240,4.0,0.0
2878,64.0,22,210,5.0,0.0
2879,69.0,178,240,4.0,0.0
2880,65.0,30,210,5.0,0.0
2881,70.0,214,240,4.0,0.0
2882,67.0,20,210,5.0,0.0
2883,41.0,2,420,3.0,0.0
2884,29.0,6,420,8.0,0.0
2885,41.0,0,420,7.0,0.0
2886,68.0,176,240,4.0,0.0
2887,64.0,32,210,5.0,0.0
2888,53.0,30,420,6.0,0.0
2889,69.0,116,240,4.0,0.0
2890,65.0,26,210,5.0,0.0
2891,77.0,6,300,1.0,0.0
2892,84.0,124,120,4.0,0.0
2893,81.0,0,300,1.0,0.0
2894,65.0,44,300,2.0,0.0
2895,72.0,0,300,2.0,0.0
2896,81.0,68,120,4.0,0.0
2897,77.0,78,120,4.0,0.0
2898,81.0,0,90,1.0,0.0
2899,72.0,122,120,4.0,0.0
2900,77.0,0,90,1.0,0.0
2901,72.0,2,90,2.0,0.0
2902,65.0,40,90,2.0,0.0
2903,81.0,2,420,1.0,0.0
2904,77.0,0,420,1.0,0.0
2905,65.0,4,420,2.0,0.0
2906,81.0,118,120,4.0,0.0
2907,72.0,54,420,2.0,0.0
2908,77.0,120,120,4.0,0.0
2909,72.0,58,120,4.0,0.0
2910,69.0,120,120,4.0,0.0
2911,77.0,120,120,4.0,0.0
2912,81.0,2,420,1.0,0.0
2913,77.0,2,420,1.0,0.0
2914,72.0,2,420,2.0,0.0
2915,65.0,52,420,2.0,0.0
2916,72.0,124,120,4.0,0.0
2917,69.0,58,120,4.0,0.0
2918,65.0,104,120,4.0,0.0
2919,72.0,124,90,4.0,0.0
2920,81.0,4,420,1.0,0.0
2921,53.0,4,1080,7.0,0.0
2922,65.0,2,420,2.0,0.0
2923,53.0,58,900,3.0,0.0
2924,77.0,42,420,1.0,0.0
2925,41.0,232,1080,8.0,0.0
2926,65.0,2,1080,6.0,0.0
2927,72.0,0,420,2.0,0.0
2928,72.0,0,420,5.0,0.0
2929,69.0,118,90,4.0,0.0
2930,65.0,74,90,4.0,0.0
2931,60.0,184,90,4.0,0.0
2932,86.0,68,180,4.0,0.0
2933,84.0,120,120,4.0,0.0
2934,82.0,64,120,4.0,0.0
2935,81.0,116,120,4.0,0.0
2936,36.0,4,6660,8.0,0.0
2937,82.0,2,120,4.0,0.0
2938,48.0,2,6660,3.0,0.0
2939,48.0,2,6660,7.0,0.0
2940,60.0,54,6660,6.0,0.0
2941,82.0,286,120,4.0,0.0
2942,84.0,74,150,4.0,0.0
2943,82.0,124,120,4.0,0.0
2944,81.0,122,120,4.0,0.0
2945,79.0,116,120,4.0,0.0
2946,81.0,242,120,4.0,0.0
2947,81.0,226,120,4.0,0.0
2948,82.0,72,180,4.0,0.0
2949,74.0,64,90,5.0,0.0
2950,81.0,10,120,4.0,0.0
2951,72.0,110,120,5.0,0.0
2952,79.0,10,120,4.0,0.0
2953,70.0,104,120,5.0,0.0
2954,77.0,10,120,4.0,0.0
2955,69.0,104,120,5.0,0.0
2956,79.0,230,120,4.0,0.0
2957,72.0,0,4740,2.0,0.0
2958,70.0,6,90,5.0,0.0
2959,79.0,246,120,4.0,0.0
2960,70.0,16,90,5.0,0.0
2961,81.0,72,180,4.0,0.0
2962,72.0,42,120,5.0,0.0
2963,79.0,10,120,4.0,0.0
2964,70.0,104,120,5.0,0.0
2965,77.0,14,120,4.0,0.0
2966,69.0,106,120,5.0,0.0
2967,76.0,14,120,4.0,0.0
2968,67.0,98,120,5.0,0.0
2969,77.0,236,120,4.0,0.0
2970,84.0,53,1020,1.0,0.0
2971,69.0,8,90,5.0,0.0
2972,77.0,250,120,4.0,0.0
2973,69.0,10,90,5.0,0.0
2974,86.0,78,150,4.0,0.0
2975,70.0,26,120,5.0,0.0
2976,84.0,14,120,4.0,0.0
2977,69.0,106,120,5.0,0.0
2978,82.0,10,120,4.0,0.0
2979,67.0,112,120,5.0,0.0
2980,81.0,10,120,4.0,0.0
2981,65.0,49,120,5.0,0.0
2982,82.0,55,1020,1.0,0.0
2983,82.0,238,120,4.0,0.0
2984,67.0,2,90,5.0,0.0
2985,82.0,248,120,4.0,0.0
2986,67.0,10,90,5.0,0.0
2987,84.0,82,150,4.0,0.0
2988,69.0,30,120,5.0,0.0
2989,82.0,10,120,4.0,0.0
2990,67.0,106,120,5.0,0.0
2991,81.0,16,120,4.0,0.0
2992,65.0,110,120,5.0,0.0
2993,79.0,6,120,4.0,0.0
2994,64.0,49,120,5.0,0.0
2995,81.0,232,120,4.0,0.0
2996,81.0,2,1020,1.0,0.0
2997,84.0,49,1020,1.0,0.0
2998,65.0,2,90,5.0,0.0
2999,81.0,250,120,4.0,0.0
3000,65.0,16,90,5.0,0.0
3001,82.0,74,180,4.0,0.0
3002,74.0,34,120,5.0,0.0
3003,81.0,6,120,4.0,0.0
3004,72.0,112,120,5.0,0.0
3005,79.0,10,120,4.0,0.0
3006,70.0,110,120,5.0,0.0
3007,77.0,10,120,4.0,0.0
3008,69.0,51,120,5.0,0.0
3009,79.0,87,1080,1.0,0.0
3010,79.0,236,120,4.0,0.0
3011,82.0,58,1020,1.0,0.0
3012,70.0,6,90,5.0,0.0
3013,79.0,250,120,4.0,0.0
3014,70.0,10,90,5.0,0.0
3015,81.0,82,150,4.0,0.0
3016,72.0,26,120,5.0,0.0
3017,79.0,12,120,4.0,0.0
3018,70.0,108,120,5.0,0.0
3019,77.0,6,120,4.0,0.0
3020,69.0,54,120,5.0,0.0
3021,76.0,8,120,4.0,0.0
3022,67.0,53,120,5.0,0.0
3023,81.0,0,420,1.0,0.0
3024,77.0,4,210,4.0,0.0
3025,41.0,2,420,8.0,0.0
3026,53.0,4,510,0.0,0.0
3027,53.0,2,420,3.0,0.0
3028,65.0,0,420,2.0,0.0
3029,53.0,94,420,7.0,0.0
3030,65.0,0,420,6.0,0.0
3031,77.0,0,420,1.0,0.0
3032,65.0,208,210,5.0,0.0
3033,65.0,6,270,4.0,0.0
3034,65.0,134,270,5.0,0.0
3035,65.0,60,690,0.0,0.0
3036,77.0,28,180,4.0,0.0
3037,68.0,142,210,5.0,0.0
3038,77.0,238,210,4.0,0.0
3039,68.0,86,90,5.0,0.0
3040,77.0,136,300,4.0,0.0
3041,41.0,6,420,8.0,0.0
3042,53.0,0,420,7.0,0.0
3043,68.0,30,240,5.0,0.0
3044,65.0,68,420,6.0,0.0
3045,63.0,2,270,0.0,0.0
3046,75.0,194,270,4.0,0.0
3047,67.0,28,240,5.0,0.0
3048,62.0,14,240,0.0,0.0
3049,74.0,42,240,4.0,0.0
3050,65.0,128,300,5.0,0.0
3051,60.0,26,180,0.0,0.0
3052,72.0,6,210,4.0,0.0
3053,63.0,318,210,5.0,0.0
3054,72.0,6,300,4.0,0.0
3055,60.0,12,300,0.0,0.0
3056,63.0,132,300,5.0,0.0
3057,71.0,2,210,4.0,0.0
3058,31.0,4,210,8.0,0.0
3059,59.0,0,210,0.0,0.0
3060,62.0,2,210,5.0,0.0
3061,43.0,236,210,7.0,0.0
3062,71.0,32,900,4.0,0.0
3063,43.0,6,210,8.0,0.0
3064,55.0,132,210,7.0,0.0
3065,62.0,22,660,5.0,0.0
3066,59.0,2,930,0.0,0.0
3067,43.0,4,90,8.0,0.0
3068,55.0,318,90,7.0,0.0
3069,55.0,2,210,7.0,0.0
3070,43.0,204,210,8.0,0.0
3071,41.0,4,210,8.0,0.0
3072,68.0,146,300,5.0,0.0
3073,62.0,0,210,6.0,0.0
3074,53.0,90,210,7.0,0.0
3075,71.0,34,420,4.0,0.0
3076,59.0,68,480,0.0,0.0
3077,39.0,4,210,8.0,0.0
3078,51.0,2,210,7.0,0.0
3079,67.0,92,210,6.0,0.0
3080,67.0,44,300,5.0,0.0
3081,38.0,0,210,8.0,0.0
3082,50.0,30,210,7.0,0.0
3083,65.0,16,300,5.0,0.0
3084,67.0,64,90,6.0,0.0
3085,60.0,192,90,0.0,0.0
3086,36.0,0,420,8.0,0.0
3087,72.0,4,420,4.0,0.0
3088,79.0,40,2340,1.0,0.0
3089,67.0,6,1860,6.0,0.0
3090,63.0,0,420,5.0,0.0
3091,48.0,66,420,7.0,0.0
3092,55.0,96,150,0.0,0.0
3093,56.0,50,120,0.0,0.0
3094,55.0,144,120,0.0,0.0
3095,60.0,112,150,0.0,0.0
3096,62.0,56,150,0.0,0.0
3097,63.0,104,90,0.0,0.0
3098,60.0,128,60,0.0,0.0
3099,74.0,4,420,4.0,0.0
3100,35.0,0,420,8.0,0.0
3101,62.0,200,90,0.0,0.0
3102,67.0,2,420,5.0,0.0
3103,47.0,68,420,7.0,0.0
3104,55.0,120,150,0.0,0.0
3105,56.0,22,150,0.0,0.0
3106,55.0,128,120,0.0,0.0
3107,62.0,120,150,0.0,0.0
3108,63.0,40,150,0.0,0.0
3109,65.0,126,60,0.0,0.0
3110,62.0,256,60,0.0,0.0
3111,60.0,106,240,4.0,0.0
3112,48.0,0,210,7.0,0.0
3113,63.0,42,540,0.0,0.0
3114,36.0,30,210,8.0,0.0
3115,50.0,4,90,7.0,0.0
3116,62.0,62,120,4.0,0.0
3117,38.0,14,90,8.0,0.0
3118,63.0,68,120,4.0,0.0
3119,39.0,2,90,8.0,0.0
3120,51.0,10,90,7.0,0.0
3121,65.0,108,120,4.0,0.0
3122,41.0,10,90,8.0,0.0
3123,53.0,0,90,7.0,0.0
3124,67.0,106,120,4.0,0.0
3125,43.0,2,90,8.0,0.0
3126,55.0,12,90,7.0,0.0
3127,68.0,112,120,4.0,0.0
3128,44.0,4,90,8.0,0.0
3129,56.0,8,90,7.0,0.0
3130,71.0,104,120,4.0,0.0
3131,47.0,2,90,8.0,0.0
3132,59.0,12,90,7.0,0.0
3133,72.0,106,120,4.0,0.0
3134,48.0,4,90,8.0,0.0
3135,60.0,10,90,7.0,0.0
3136,74.0,102,120,4.0,0.0
3137,62.0,14,90,7.0,0.0
3138,50.0,0,90,8.0,0.0
3139,51.0,8,90,8.0,0.0
3140,75.0,104,120,4.0,0.0
3141,63.0,12,90,7.0,0.0
3142,47.0,4,90,8.0,0.0
3143,71.0,206,120,4.0,0.0
3144,59.0,12,90,7.0,0.0
3145,72.0,660,240,4.0,0.0
3146,48.0,2,210,8.0,0.0
3147,60.0,28,210,7.0,0.0
3148,36.0,6,420,8.0,0.0
3149,51.0,32,540,0.0,0.0
3150,48.0,0,420,7.0,0.0
3151,60.0,78,420,6.0,0.0
3152,63.0,34,270,4.0,0.0
3153,55.0,128,330,5.0,0.0
3154,75.0,114,240,4.0,0.0
3155,63.0,54,690,0.0,0.0
3156,67.0,20,210,5.0,0.0
3157,75.0,250,210,4.0,0.0
3158,67.0,104,90,5.0,0.0
3159,75.0,0,270,4.0,0.0
3160,48.0,4,420,7.0,0.0
3161,36.0,2,420,8.0,0.0
3162,60.0,84,420,6.0,0.0
3163,67.0,142,270,5.0,0.0
3164,74.0,8,270,4.0,0.0
3165,62.0,214,300,0.0,0.0
3166,65.0,22,270,5.0,0.0
3167,72.0,14,270,4.0,0.0
3168,60.0,140,300,0.0,0.0
3169,63.0,4,270,5.0,0.0
3170,70.0,258,240,4.0,0.0
3171,58.0,20,180,0.0,0.0
3172,62.0,24,210,5.0,0.0
3173,70.0,18,300,4.0,0.0
3174,62.0,140,300,5.0,0.0
3175,58.0,32,240,0.0,0.0
3176,29.0,4,270,8.0,0.0
3177,69.0,2,210,4.0,0.0
3178,57.0,4,210,0.0,0.0
3179,60.0,58,210,5.0,0.0
3180,41.0,176,270,7.0,0.0
3181,69.0,36,900,4.0,0.0
3182,53.0,4,210,7.0,0.0
3183,57.0,0,750,0.0,0.0
3184,41.0,130,210,8.0,0.0
3185,60.0,86,660,5.0,0.0
3186,41.0,8,90,8.0,0.0
3187,53.0,316,90,7.0,0.0
3188,53.0,2,270,7.0,0.0
3189,41.0,146,270,8.0,0.0
3190,51.0,4,270,7.0,0.0
3191,39.0,2,270,8.0,0.0
3192,67.0,180,270,5.0,0.0
3193,60.0,54,210,6.0,0.0
3194,69.0,2,480,4.0,0.0
3195,57.0,0,480,0.0,0.0
3196,38.0,2,270,8.0,0.0
3197,65.0,76,270,5.0,0.0
3198,50.0,0,270,7.0,0.0
3199,65.0,58,210,6.0,0.0
3200,63.0,84,240,5.0,0.0
3201,36.0,2,210,8.0,0.0
3202,48.0,24,210,7.0,0.0
3203,65.0,100,90,6.0,0.0
3204,70.0,130,510,4.0,0.0
3205,34.0,4,420,8.0,0.0
3206,58.0,196,90,0.0,0.0
3207,62.0,58,420,5.0,0.0
3208,46.0,0,420,7.0,0.0
3209,77.0,42,2340,1.0,0.0
3210,65.0,260,1860,6.0,0.0
3211,53.0,80,150,0.0,0.0
3212,55.0,58,120,0.0,0.0
3213,53.0,22,120,0.0,0.0
3214,58.0,104,150,0.0,0.0
3215,60.0,40,150,0.0,0.0
3216,62.0,132,60,0.0,0.0
3217,58.0,128,60,0.0,0.0
3218,60.0,204,90,0.0,0.0
3219,33.0,2,420,8.0,0.0
3220,72.0,154,480,4.0,0.0
3221,65.0,4,420,5.0,0.0
3222,45.0,38,420,7.0,0.0
3223,53.0,80,150,0.0,0.0
3224,55.0,60,120,0.0,0.0
3225,53.0,30,90,0.0,0.0
3226,60.0,88,180,0.0,0.0
3227,62.0,56,150,0.0,0.0
3228,63.0,116,60,0.0,0.0
3229,60.0,0,60,0.0,0.0
3230,58.0,110,240,4.0,0.0
3231,62.0,78,510,0.0,0.0
3232,46.0,4,210,7.0,0.0
3233,34.0,24,210,8.0,0.0
3234,60.0,66,120,4.0,0.0
3235,48.0,0,90,7.0,0.0
3236,36.0,12,90,8.0,0.0
3237,62.0,26,120,4.0,0.0
3238,50.0,2,90,7.0,0.0
3239,38.0,10,90,8.0,0.0
3240,39.0,8,90,8.0,0.0
3241,63.0,108,120,4.0,0.0
3242,51.0,10,90,7.0,0.0
3243,65.0,106,120,4.0,0.0
3244,41.0,2,90,8.0,0.0
3245,53.0,10,90,7.0,0.0
3246,67.0,104,120,4.0,0.0
3247,43.0,2,90,8.0,0.0
3248,55.0,12,90,7.0,0.0
3249,45.0,2,90,8.0,0.0
3250,69.0,106,120,4.0,0.0
3251,57.0,14,90,7.0,0.0
3252,70.0,108,120,4.0,0.0
3253,46.0,4,90,8.0,0.0
3254,58.0,10,90,7.0,0.0
3255,72.0,104,120,4.0,0.0
3256,48.0,0,90,8.0,0.0
3257,60.0,14,90,7.0,0.0
3258,74.0,108,120,4.0,0.0
3259,62.0,0,90,7.0,0.0
3260,50.0,12,90,8.0,0.0
3261,57.0,2,90,7.0,0.0
3262,69.0,86,120,4.0,0.0
3263,45.0,14,90,8.0,0.0
3264,70.0,8,240,4.0,0.0
3265,63.0,46,90,0.0,0.0
3266,46.0,6,210,8.0,0.0
3267,58.0,22,210,7.0,0.0
3268,62.0,60,90,0.0,0.0
3269,63.0,14,90,0.0,0.0
3270,62.0,48,90,0.0,0.0
3271,63.0,56,90,0.0,0.0
3272,62.0,80,90,0.0,0.0
3273,60.0,80,90,0.0,0.0
3274,62.0,76,120,0.0,0.0
3275,63.0,92,510,0.0,0.0
3276,36.0,2,90,8.0,0.0
3277,75.0,0,120,4.0,0.0
3278,67.0,4,90,5.0,0.0
3279,48.0,0,90,7.0,0.0
3280,60.0,238,90,6.0,0.0
3281,75.0,136,120,4.0,0.0
3282,48.0,2,90,7.0,0.0
3283,36.0,0,90,8.0,0.0
3284,67.0,4,90,5.0,0.0
3285,60.0,2,90,6.0,0.0
3286,72.0,0,120,4.0,0.0
3287,36.0,6,90,8.0,0.0
3288,60.0,124,450,0.0,0.0
3289,48.0,2,90,7.0,0.0
3290,63.0,0,90,5.0,0.0
3291,60.0,232,90,6.0,0.0
3292,72.0,102,120,4.0,0.0
3293,36.0,6,90,8.0,0.0
3294,63.0,0,90,5.0,0.0
3295,60.0,0,90,6.0,0.0
3296,48.0,8,90,7.0,0.0
3297,48.0,2,90,7.0,0.0
3298,58.0,156,180,0.0,0.0
3299,69.0,2,120,4.0,0.0
3300,60.0,0,90,5.0,0.0
3301,36.0,4,90,8.0,0.0
3302,60.0,76,90,6.0,0.0
3303,57.0,104,330,0.0,0.0
3304,69.0,102,120,4.0,0.0
3305,48.0,2,90,7.0,0.0
3306,60.0,2,90,5.0,0.0
3307,36.0,6,90,8.0,0.0
3308,60.0,4,90,6.0,0.0
3309,67.0,0,120,4.0,0.0
3310,57.0,20,90,0.0,0.0
3311,37.0,4,90,8.0,0.0
3312,49.0,2,90,7.0,0.0
3313,58.0,4,90,5.0,0.0
3314,61.0,30,90,6.0,0.0
3315,55.0,48,90,0.0,0.0
3316,57.0,60,90,0.0,0.0
3317,55.0,48,90,0.0,0.0
3318,57.0,42,90,0.0,0.0
3319,37.0,4,90,8.0,0.0
3320,58.0,4,90,5.0,0.0
3321,67.0,58,120,4.0,0.0
3322,49.0,2,90,7.0,0.0
3323,61.0,4,90,6.0,0.0
3324,55.0,6,90,0.0,0.0
3325,54.0,100,120,0.0,0.0
3326,55.0,10,150,0.0,0.0
3327,66.0,218,90,4.0,0.0
3328,38.0,4,60,8.0,0.0
3329,54.0,140,480,0.0,0.0
3330,50.0,2,60,7.0,0.0
3331,57.0,2,60,5.0,0.0
3332,62.0,18,60,6.0,0.0
3333,62.0,82,90,4.0,0.0
3334,50.0,2,60,7.0,0.0
3335,38.0,34,60,8.0,0.0
3336,64.0,22,90,4.0,0.0
3337,40.0,4,60,8.0,0.0
3338,52.0,42,60,7.0,0.0
3339,66.0,112,150,4.0,0.0
3340,42.0,2,150,8.0,0.0
3341,54.0,4,150,7.0,0.0
3342,67.0,2,150,4.0,0.0
3343,55.0,0,150,7.0,0.0
3344,43.0,82,150,8.0,0.0
3345,45.0,6,90,8.0,0.0
3346,69.0,52,120,4.0,0.0
3347,57.0,12,90,7.0,0.0
3348,66.0,202,90,4.0,0.0
3349,54.0,4,60,7.0,0.0
3350,42.0,42,60,8.0,0.0
3351,62.0,64,240,4.0,0.0
3352,50.0,2,210,7.0,0.0
3353,38.0,24,210,8.0,0.0
3354,50.0,30,60,0.0,0.0
3355,54.0,120,60,0.0,0.0
3356,57.0,252,60,0.0,0.0
3357,62.0,18,180,0.0,0.0
3358,74.0,96,240,4.0,0.0
3359,42.0,4,210,8.0,0.0
3360,54.0,2,210,7.0,0.0
3361,66.0,0,210,6.0,0.0
3362,69.0,24,210,5.0,0.0
3363,60.0,0,120,0.0,0.0
3364,57.0,128,90,0.0,0.0
3365,60.0,122,90,0.0,0.0
3366,58.0,2,450,0.0,0.0
3367,70.0,0,90,5.0,0.0
3368,74.0,168,120,4.0,0.0
3369,55.0,0,90,7.0,0.0
3370,43.0,8,90,8.0,0.0
3371,67.0,8,90,6.0,0.0
3372,31.0,8,60,8.0,0.0
3373,55.0,54,120,4.0,0.0
3374,43.0,64,60,7.0,0.0
3375,57.0,148,120,4.0,0.0
3376,33.0,2,60,8.0,0.0
3377,45.0,46,60,7.0,0.0
3378,58.0,90,180,4.0,0.0
3379,34.0,8,150,8.0,0.0
3380,46.0,28,150,7.0,0.0
3381,60.0,74,150,4.0,0.0
3382,36.0,14,150,8.0,0.0
3383,48.0,0,150,7.0,0.0
3384,62.0,26,150,4.0,0.0
3385,38.0,0,90,8.0,0.0
3386,50.0,38,90,7.0,0.0
3387,34.0,2,60,8.0,0.0
3388,58.0,194,120,4.0,0.0
3389,46.0,52,60,7.0,0.0
3390,55.0,66,240,4.0,0.0
3391,31.0,4,210,8.0,0.0
3392,43.0,20,210,7.0,0.0
3393,55.0,30,60,0.0,0.0
3394,58.0,120,60,0.0,0.0
3395,62.0,244,60,0.0,0.0
3396,35.0,2,210,8.0,0.0
3397,47.0,2,210,7.0,0.0
3398,67.0,22,180,0.0,0.0
3399,67.0,2,210,4.0,0.0
3400,62.0,0,210,5.0,0.0
3401,59.0,28,210,6.0,0.0
3402,65.0,104,120,0.0,0.0
3403,63.0,128,90,0.0,0.0
3404,65.0,114,120,0.0,0.0
3405,67.0,140,150,4.0,0.0
3406,63.0,138,480,0.0,0.0
3407,36.0,2,90,8.0,0.0
3408,48.0,0,90,7.0,0.0
3409,63.0,0,90,5.0,0.0
3410,60.0,42,90,6.0,0.0
3411,36.0,2,60,8.0,0.0
3412,60.0,80,90,4.0,0.0
3413,48.0,42,60,7.0,0.0
3414,62.0,10,120,4.0,0.0
3415,38.0,2,60,8.0,0.0
3416,50.0,54,60,7.0,0.0
3417,63.0,104,150,4.0,0.0
3418,51.0,2,150,7.0,0.0
3419,39.0,10,150,8.0,0.0
3420,65.0,80,150,4.0,0.0
3421,41.0,4,150,8.0,0.0
3422,53.0,4,150,7.0,0.0
3423,43.0,6,90,8.0,0.0
3424,67.0,54,120,4.0,0.0
3425,55.0,10,90,7.0,0.0
3426,39.0,4,60,8.0,0.0
3427,63.0,198,90,4.0,0.0
3428,51.0,46,60,7.0,0.0
3429,60.0,46,270,4.0,0.0
3430,48.0,2,210,7.0,0.0
3431,36.0,44,210,8.0,0.0
3432,48.0,28,60,0.0,0.0
3433,51.0,120,60,0.0,0.0
3434,55.0,240,60,0.0,0.0
3435,40.0,6,210,8.0,0.0
3436,72.0,154,240,4.0,0.0
3437,60.0,26,180,0.0,0.0
3438,67.0,0,210,5.0,0.0
3439,64.0,2,210,6.0,0.0
3440,52.0,26,210,7.0,0.0
3441,58.0,6,120,0.0,0.0
3442,55.0,120,150,0.0,0.0
3443,58.0,66,150,0.0,0.0
3444,72.0,166,120,4.0,0.0
3445,57.0,6,480,0.0,0.0
3446,69.0,4,90,5.0,0.0
3447,41.0,0,90,8.0,0.0
3448,53.0,0,90,7.0,0.0
3449,65.0,16,90,6.0,0.0
3450,65.0,60,120,4.0,0.0
3451,41.0,4,60,8.0,0.0
3452,53.0,54,60,7.0,0.0
3453,43.0,8,60,8.0,0.0
3454,67.0,128,120,4.0,0.0
3455,55.0,62,60,7.0,0.0
3456,45.0,6,150,8.0,0.0
3457,69.0,100,150,4.0,0.0
3458,57.0,18,150,7.0,0.0
3459,70.0,62,180,4.0,0.0
3460,46.0,2,150,8.0,0.0
3461,58.0,26,150,7.0,0.0
3462,72.0,24,150,4.0,0.0
3463,48.0,42,90,8.0,0.0
3464,60.0,0,90,7.0,0.0
3465,69.0,182,120,4.0,0.0
3466,57.0,2,60,7.0,0.0
3467,45.0,62,60,8.0,0.0
3468,53.0,0,210,7.0,0.0
3469,65.0,38,270,4.0,0.0
3470,41.0,52,210,8.0,0.0
3471,53.0,30,60,0.0,0.0
3472,57.0,120,60,0.0,0.0
3473,60.0,240,60,0.0,0.0
3474,77.0,150,270,4.0,0.0
3475,65.0,30,180,0.0,0.0
3476,45.0,2,210,8.0,0.0
3477,57.0,4,210,7.0,0.0
3478,72.0,24,210,5.0,0.0
3479,69.0,0,210,6.0,0.0
3480,63.0,14,120,0.0,0.0
3481,60.0,100,150,0.0,0.0
3482,63.0,84,150,0.0,0.0
3483,77.0,160,120,4.0,0.0
3484,62.0,136,480,0.0,0.0
3485,46.0,2,90,8.0,0.0
3486,74.0,2,90,5.0,0.0
3487,58.0,0,90,7.0,0.0
3488,70.0,22,90,6.0,0.0
3489,58.0,70,90,4.0,0.0
3490,34.0,2,60,8.0,0.0
3491,46.0,46,60,7.0,0.0
3492,36.0,6,60,8.0,0.0
3493,60.0,10,120,4.0,0.0
3494,48.0,52,60,7.0,0.0
3495,62.0,98,150,4.0,0.0
3496,38.0,4,150,8.0,0.0
3497,50.0,18,150,7.0,0.0
3498,51.0,14,150,7.0,0.0
3499,39.0,0,150,8.0,0.0
3500,63.0,74,150,4.0,0.0
3501,65.0,48,120,4.0,0.0
3502,41.0,6,90,8.0,0.0
3503,53.0,16,90,7.0,0.0
3504,38.0,2,60,8.0,0.0
3505,62.0,190,120,4.0,0.0
3506,50.0,54,60,7.0,0.0
3507,46.0,2,210,7.0,0.0
3508,58.0,90,210,4.0,0.0
3509,34.0,0,210,8.0,0.0
3510,46.0,28,60,0.0,0.0
3511,50.0,120,60,0.0,0.0
3512,53.0,204,60,0.0,0.0
3513,38.0,0,210,8.0,0.0
3514,70.0,4,210,4.0,0.0
3515,58.0,62,150,0.0,0.0
3516,65.0,2,210,5.0,0.0
3517,62.0,2,210,6.0,0.0
3518,50.0,26,210,7.0,0.0
3519,56.0,180,120,0.0,0.0
3520,53.0,120,180,0.0,0.0
3521,56.0,150,180,0.0,0.0
3522,70.0,6,240,4.0,0.0
3523,55.0,216,240,0.0,0.0
3524,67.0,4,210,5.0,0.0
3525,39.0,0,210,8.0,0.0
3526,51.0,2,210,7.0,0.0
3527,63.0,10,210,6.0,0.0
3528,67.0,182,510,0.0,0.0
3529,51.0,2,210,7.0,0.0
3530,79.0,46,450,4.0,0.0
3531,39.0,8,210,8.0,0.0
3532,70.0,18,420,5.0,0.0
3533,63.0,210,210,6.0,0.0
3534,39.0,6,210,8.0,0.0
3535,51.0,2,210,7.0,0.0
3536,63.0,4,210,6.0,0.0
3537,75.0,22,480,4.0,0.0
3538,39.0,2,210,8.0,0.0
3539,51.0,8,210,7.0,0.0
3540,63.0,80,510,0.0,0.0
3541,55.0,56,420,5.0,0.0
3542,63.0,126,210,6.0,0.0
3543,39.0,8,90,8.0,0.0
3544,51.0,4,90,7.0,0.0
3545,63.0,72,90,6.0,0.0
3546,72.0,46,480,4.0,0.0
3547,39.0,6,90,8.0,0.0
3548,60.0,34,510,0.0,0.0
3549,51.0,0,90,7.0,0.0
3550,63.0,316,90,6.0,0.0
3551,67.0,24,420,5.0,0.0
3552,39.0,4,210,8.0,0.0
3553,51.0,20,210,7.0,0.0
3554,63.0,132,300,6.0,0.0
3555,70.0,2,210,4.0,0.0
3556,58.0,132,210,0.0,0.0
3557,52.0,2,210,7.0,0.0
3558,40.0,2,210,8.0,0.0
3559,67.0,0,210,5.0,0.0
3560,60.0,4,210,6.0,0.0
3561,57.0,52,150,0.0,0.0
3562,53.0,4,420,7.0,0.0
3563,69.0,22,150,4.0,0.0
3564,65.0,30,90,5.0,0.0
3565,41.0,32,420,8.0,0.0
3566,65.0,184,210,6.0,0.0
3567,65.0,210,4350,0.0,0.0
3568,72.0,18,150,4.0,0.0
3569,69.0,6,150,5.0,0.0
3570,65.0,76,210,6.0,0.0
3571,74.0,128,180,4.0,0.0
3572,70.0,6,180,5.0,0.0
3573,72.0,30,180,4.0,0.0
3574,69.0,2,210,5.0,0.0
3575,65.0,132,210,6.0,0.0
3576,72.0,10,210,4.0,0.0
3577,65.0,242,210,6.0,0.0
3578,69.0,92,90,5.0,0.0
3579,74.0,136,330,4.0,0.0
3580,65.0,70,210,6.0,0.0
3581,70.0,30,270,5.0,0.0
3582,75.0,2,210,4.0,0.0
3583,65.0,2,210,6.0,0.0
3584,72.0,164,210,5.0,0.0
3585,79.0,18,150,4.0,0.0
3586,75.0,60,150,5.0,0.0
3587,65.0,10,210,6.0,0.0
3588,77.0,110,120,4.0,0.0
3589,74.0,16,90,5.0,0.0
3590,75.0,90,120,4.0,0.0
3591,65.0,20,210,6.0,0.0
3592,72.0,10,90,5.0,0.0
3593,74.0,196,120,4.0,0.0
3594,70.0,18,90,5.0,0.0
3595,72.0,6,210,4.0,0.0
3596,53.0,34,420,7.0,0.0
3597,53.0,4,210,6.0,0.0
3598,41.0,0,420,8.0,0.0
3599,69.0,164,210,5.0,0.0
3600,69.0,2,150,1.0,0.0
3601,60.0,18,150,4.0,0.0
3602,72.0,12,150,1.0,0.0
3603,57.0,12,180,5.0,0.0
3604,53.0,42,210,6.0,0.0
3605,62.0,152,150,4.0,0.0
3606,74.0,0,150,1.0,0.0
3607,70.0,8,150,1.0,0.0
3608,58.0,6,150,5.0,0.0
3609,72.0,4,210,1.0,0.0
3610,60.0,20,180,4.0,0.0
3611,69.0,4,210,1.0,0.0
3612,53.0,2,210,6.0,0.0
3613,57.0,126,210,5.0,0.0
3614,72.0,2,90,1.0,0.0
3615,60.0,30,180,4.0,0.0
3616,69.0,2,90,1.0,0.0
3617,57.0,80,90,5.0,0.0
3618,53.0,240,210,6.0,0.0
3619,62.0,150,300,4.0,0.0
3620,70.0,0,270,1.0,0.0
3621,74.0,28,270,1.0,0.0
3622,58.0,2,270,5.0,0.0
3623,53.0,52,210,6.0,0.0
3624,63.0,140,240,4.0,0.0
3625,75.0,2,210,1.0,0.0
3626,60.0,2,210,5.0,0.0
3627,72.0,6,210,1.0,0.0
3628,53.0,16,210,6.0,0.0
3629,75.0,6,150,1.0,0.0
3630,67.0,10,150,4.0,0.0
3631,79.0,22,150,1.0,0.0
3632,63.0,44,180,5.0,0.0
3633,53.0,16,210,6.0,0.0
3634,65.0,14,120,4.0,0.0
3635,74.0,2,150,1.0,0.0
3636,77.0,88,150,1.0,0.0
3637,62.0,10,90,5.0,0.0
3638,63.0,100,120,4.0,0.0
3639,72.0,2,90,1.0,0.0
3640,75.0,2,90,1.0,0.0
3641,60.0,4,90,5.0,0.0
3642,53.0,6,210,6.0,0.0
3643,62.0,2,90,4.0,0.0
3644,70.0,4,90,1.0,0.0
3645,74.0,2,90,1.0,0.0
3646,58.0,392,90,5.0,0.0
3647,41.0,4,420,8.0,0.0
3648,69.0,14,390,1.0,0.0
3649,72.0,0,390,1.0,0.0
3650,60.0,18,390,4.0,0.0
3651,53.0,4,420,7.0,0.0
3652,57.0,10,390,5.0,0.0
3653,53.0,14,420,6.0,0.0
3654,70.0,6,90,1.0,0.0
3655,62.0,6,90,4.0,0.0
3656,74.0,176,90,1.0,0.0
3657,58.0,12,90,5.0,0.0
3658,41.0,2,420,8.0,0.0
3659,72.0,0,360,1.0,0.0
3660,69.0,26,360,1.0,0.0
3661,60.0,16,390,4.0,0.0
3662,53.0,6,420,7.0,0.0
3663,57.0,2,420,5.0,0.0
3664,53.0,14,420,6.0,0.0
3665,64.0,2,150,0.0,0.0
3666,62.0,12,90,4.0,0.0
3667,74.0,4,90,1.0,0.0
3668,70.0,46,90,1.0,0.0
3669,58.0,8,90,5.0,0.0
3670,65.0,212,150,0.0,0.0
3671,69.0,0,330,1.0,0.0
3672,60.0,22,450,4.0,0.0
3673,72.0,60,330,1.0,0.0
3674,53.0,2,420,7.0,0.0
3675,41.0,6,420,8.0,0.0
3676,57.0,327,450,5.0,0.0
3677,53.0,0,240,0.0,0.0
3678,53.0,16,420,6.0,0.0
3679,52.0,42,180,0.0,0.0
3680,53.0,0,150,0.0,0.0
3681,41.0,375,330,0.0,0.0
3682,82.0,32,1860,1.0,0.0
3683,82.0,2,420,4.0,0.0
3684,74.0,30,3780,1.0,0.0
3685,70.0,6,420,2.0,0.0
3686,34.0,4,210,8.0,0.0
3687,58.0,0,210,6.0,0.0
3688,74.0,2,420,5.0,0.0
3689,46.0,204,210,7.0,0.0
3690,77.0,22,420,5.0,0.0
3691,34.0,4,210,8.0,0.0
3692,46.0,2,210,7.0,0.0
3693,58.0,230,210,6.0,0.0
3694,34.0,2,210,8.0,0.0
3695,46.0,4,210,7.0,0.0
3696,70.0,6,900,2.0,0.0
3697,74.0,0,900,5.0,0.0
3698,82.0,0,900,4.0,0.0
3699,58.0,238,210,6.0,0.0
3700,77.0,22,900,5.0,0.0
3701,34.0,4,210,8.0,0.0
3702,46.0,0,210,7.0,0.0
3703,58.0,232,210,6.0,0.0
3704,34.0,4,210,8.0,0.0
3705,46.0,2,210,7.0,0.0
3706,58.0,210,210,6.0,0.0
3707,34.0,2,210,8.0,0.0
3708,46.0,6,210,7.0,0.0
3709,58.0,230,210,6.0,0.0
3710,86.0,36,390,4.0,0.0
3711,46.0,10,210,7.0,0.0
3712,34.0,0,210,8.0,0.0
3713,74.0,40,330,2.0,0.0
3714,82.0,24,300,5.0,0.0
3715,58.0,100,210,6.0,0.0
3716,34.0,4,210,8.0,0.0
3717,46.0,4,210,7.0,0.0
3718,58.0,14,210,6.0,0.0
3719,70.0,184,150,2.0,0.0
3720,82.0,16,120,4.0,0.0
3721,77.0,14,90,5.0,0.0
3722,34.0,6,210,8.0,0.0
3723,77.0,4,2340,1.0,0.0
3724,77.0,12,450,4.0,0.0
3725,65.0,16,420,2.0,0.0
3726,74.0,0,420,5.0,0.0
3727,46.0,6,210,7.0,0.0
3728,58.0,204,210,6.0,0.0
3729,34.0,2,210,8.0,0.0
3730,46.0,4,210,7.0,0.0
3731,58.0,230,210,6.0,0.0
3732,77.0,24,960,4.0,0.0
3733,34.0,6,210,8.0,0.0
3734,74.0,28,900,5.0,0.0
3735,65.0,202,960,2.0,0.0
3736,46.0,2,210,7.0,0.0
3737,58.0,232,210,6.0,0.0
3738,34.0,6,210,8.0,0.0
3739,46.0,4,210,7.0,0.0
3740,58.0,234,210,6.0,0.0
3741,34.0,2,210,8.0,0.0
3742,46.0,2,210,7.0,0.0
3743,58.0,208,210,6.0,0.0
3744,34.0,8,210,8.0,0.0
3745,46.0,0,210,7.0,0.0
3746,58.0,4,210,6.0,0.0
3747,62.0,4,300,2.0,0.0
3748,34.0,6,210,8.0,0.0
3749,74.0,36,390,4.0,0.0
3750,65.0,66,300,5.0,0.0
3751,46.0,4,210,7.0,0.0
3752,58.0,94,210,6.0,0.0
3753,34.0,4,210,8.0,0.0
3754,58.0,2,210,6.0,0.0
3755,46.0,12,210,7.0,0.0
3756,70.0,16,120,4.0,0.0
3757,62.0,12,90,5.0,0.0
3758,58.0,194,120,2.0,0.0
3759,72.0,0,420,1.0,0.0
3760,65.0,210,480,4.0,0.0
3761,53.0,0,420,2.0,0.0
3762,33.0,2,210,8.0,0.0
3763,45.0,8,210,7.0,0.0
3764,65.0,2,420,2.0,0.0
3765,60.0,22,420,5.0,0.0
3766,57.0,202,210,6.0,0.0
3767,45.0,4,210,7.0,0.0
3768,57.0,26,210,6.0,0.0
3769,33.0,0,210,8.0,0.0
3770,65.0,6,900,2.0,0.0
3771,45.0,8,210,7.0,0.0
3772,75.0,4,930,4.0,0.0
3773,69.0,2,450,1.0,0.0
3774,33.0,0,210,8.0,0.0
3775,65.0,168,510,1.0,0.0
3776,72.0,0,900,2.0,0.0
3777,72.0,18,900,5.0,0.0
3778,57.0,228,210,6.0,0.0
3779,33.0,8,210,8.0,0.0
3780,57.0,70,210,6.0,0.0
3781,45.0,0,210,7.0,0.0
3782,69.0,150,540,1.0,0.0
3783,72.0,4,450,1.0,0.0
3784,57.0,0,210,7.0,0.0
3785,45.0,4,210,8.0,0.0
3786,69.0,204,210,6.0,0.0
3787,45.0,2,210,8.0,0.0
3788,57.0,4,210,7.0,0.0
3789,69.0,82,210,6.0,0.0
3790,75.0,0,420,1.0,0.0
3791,75.0,2,420,4.0,0.0
3792,45.0,4,210,8.0,0.0
3793,72.0,0,420,1.0,0.0
3794,75.0,2,420,2.0,0.0
3795,72.0,0,420,2.0,0.0
3796,72.0,22,420,5.0,0.0
3797,57.0,4,210,7.0,0.0
3798,69.0,204,210,6.0,0.0
3799,45.0,2,210,8.0,0.0
3800,57.0,2,210,7.0,0.0
3801,69.0,78,210,6.0,0.0
3802,46.0,8,420,8.0,0.0
3803,74.0,2,60,1.0,0.0
3804,74.0,2,60,2.0,0.0
3805,77.0,2,60,2.0,0.0
3806,77.0,4,90,4.0,0.0
3807,77.0,50,60,1.0,0.0
3808,70.0,38,420,6.0,0.0
3809,58.0,0,420,7.0,0.0
3810,74.0,0,90,5.0,0.0
3811,72.0,6,60,1.0,0.0
3812,75.0,6,90,4.0,0.0
3813,75.0,2,60,1.0,0.0
3814,72.0,0,60,2.0,0.0
3815,75.0,46,60,2.0,0.0
3816,72.0,2,90,5.0,0.0
3817,77.0,0,60,1.0,0.0
3818,74.0,0,60,1.0,0.0
3819,77.0,2,60,2.0,0.0
3820,77.0,6,90,4.0,0.0
3821,74.0,50,60,2.0,0.0
3822,74.0,2,90,5.0,0.0
3823,75.0,2,60,2.0,0.0
3824,75.0,2,60,1.0,0.0
3825,75.0,4,90,4.0,0.0
3826,72.0,2,60,1.0,0.0
3827,72.0,48,60,2.0,0.0
3828,72.0,0,90,5.0,0.0
3829,77.0,8,90,4.0,0.0
3830,77.0,4,60,1.0,0.0
3831,74.0,4,60,1.0,0.0
3832,77.0,0,60,2.0,0.0
3833,74.0,42,60,2.0,0.0
3834,74.0,4,90,5.0,0.0
3835,75.0,6,90,4.0,0.0
3836,72.0,2,60,1.0,0.0
3837,72.0,2,60,2.0,0.0
3838,75.0,46,60,2.0,0.0
3839,75.0,0,60,1.0,0.0
3840,72.0,4,90,5.0,0.0
3841,70.0,2,60,1.0,0.0
3842,74.0,2,90,4.0,0.0
3843,74.0,4,60,1.0,0.0
3844,74.0,0,60,2.0,0.0
3845,70.0,6,90,5.0,0.0
3846,70.0,0,60,2.0,0.0
3847,72.0,2,60,1.0,0.0
3848,75.0,2,60,2.0,0.0
3849,75.0,4,90,4.0,0.0
3850,72.0,0,60,2.0,0.0
3851,75.0,50,60,1.0,0.0
3852,72.0,90,90,5.0,0.0
3853,74.0,16,240,4.0,0.0
3854,70.0,2,420,2.0,0.0
3855,74.0,2,420,1.0,0.0
3856,70.0,86,150,5.0,0.0
3857,70.0,0,420,1.0,0.0
3858,74.0,38,420,2.0,0.0
3859,60.0,2,90,7.0,0.0
3860,48.0,6,90,8.0,0.0
3861,72.0,78,150,5.0,0.0
3862,72.0,12,90,6.0,0.0
3863,72.0,6,90,4.0,0.0
3864,58.0,2,90,7.0,0.0
3865,46.0,6,90,8.0,0.0
3866,70.0,18,150,5.0,0.0
3867,70.0,28,90,6.0,0.0
3868,70.0,22,90,4.0,0.0
3869,69.0,20,120,4.0,0.0
3870,57.0,6,90,7.0,0.0
3871,45.0,0,90,8.0,0.0
3872,69.0,14,90,6.0,0.0
3873,69.0,186,150,5.0,0.0
3874,70.0,174,270,4.0,0.0
3875,46.0,4,210,8.0,0.0
3876,70.0,0,210,5.0,0.0
3877,58.0,4,210,7.0,0.0
3878,70.0,56,210,6.0,0.0
3879,41.0,4,210,8.0,0.0
3880,65.0,170,270,4.0,0.0
3881,65.0,2,210,6.0,0.0
3882,53.0,0,210,7.0,0.0
3883,65.0,64,210,5.0,0.0
3884,62.0,180,270,4.0,0.0
3885,50.0,2,210,7.0,0.0
3886,38.0,2,210,8.0,0.0
3887,62.0,4,210,6.0,0.0
3888,62.0,56,210,5.0,0.0
3889,65.0,234,270,4.0,0.0
3890,41.0,2,210,8.0,0.0
3891,65.0,0,210,5.0,0.0
3892,53.0,4,210,7.0,0.0
3893,65.0,60,210,6.0,0.0
3894,70.0,124,270,4.0,0.0
3895,46.0,4,420,8.0,0.0
3896,58.0,30,420,7.0,0.0
3897,58.0,22,390,0.0,0.0
3898,62.0,192,210,4.0,0.0
3899,58.0,2,210,6.0,0.0
3900,62.0,48,180,4.0,0.0
3901,58.0,74,990,0.0,0.0
3902,58.0,160,210,6.0,0.0
3903,62.0,82,150,4.0,0.0
3904,58.0,128,210,6.0,0.0
3905,62.0,6,90,4.0,0.0
3906,34.0,4,420,8.0,0.0
3907,46.0,82,420,7.0,0.0
3908,58.0,232,90,6.0,0.0
3909,62.0,6,90,4.0,0.0
3910,58.0,74,90,6.0,0.0
3911,62.0,10,90,4.0,0.0
3912,62.0,76,390,0.0,0.0
3913,58.0,232,90,6.0,0.0
3914,62.0,4,90,4.0,0.0
3915,58.0,56,90,6.0,0.0
3916,58.0,344,120,0.0,0.0
3917,46.0,2,420,8.0,0.0
3918,53.0,2,360,0.0,0.0
3919,58.0,164,420,7.0,0.0
3920,65.0,2,90,4.0,0.0
3921,62.0,2,90,5.0,0.0
3922,58.0,70,90,6.0,0.0
3923,53.0,70,990,0.0,0.0
3924,65.0,2,90,4.0,0.0
3925,62.0,4,90,5.0,0.0
3926,58.0,234,90,6.0,0.0
3927,65.0,0,90,4.0,0.0
3928,62.0,8,90,5.0,0.0
3929,58.0,226,90,6.0,0.0
3930,65.0,6,90,4.0,0.0
3931,62.0,8,90,5.0,0.0
3932,46.0,92,420,7.0,0.0
3933,34.0,0,420,8.0,0.0
3934,58.0,232,90,6.0,0.0
3935,65.0,6,90,4.0,0.0
3936,62.0,72,90,5.0,0.0
3937,58.0,0,90,6.0,0.0
3938,50.0,92,390,0.0,0.0
3939,65.0,4,90,4.0,0.0
3940,62.0,2,90,5.0,0.0
3941,58.0,234,90,6.0,0.0
3942,65.0,2,90,4.0,0.0
3943,62.0,2,90,5.0,0.0
3944,58.0,38,90,6.0,0.0
3945,46.0,332,120,0.0,0.0
3946,45.0,4,420,8.0,0.0
3947,41.0,88,330,0.0,0.0
3948,57.0,34,420,7.0,0.0
3949,65.0,22,300,4.0,0.0
3950,60.0,136,300,5.0,0.0
3951,63.0,68,210,6.0,0.0
3952,75.0,6,210,4.0,0.0
3953,63.0,54,780,0.0,0.0
3954,72.0,2,210,5.0,0.0
3955,65.0,84,210,6.0,0.0
3956,75.0,250,90,4.0,0.0
3957,72.0,4,60,5.0,0.0
3958,65.0,36,60,6.0,0.0
3959,33.0,160,420,8.0,0.0
3960,75.0,0,90,4.0,0.0
3961,45.0,0,420,7.0,0.0
3962,72.0,2,90,5.0,0.0
3963,65.0,184,90,6.0,0.0
3964,75.0,6,90,4.0,0.0
3965,65.0,0,90,6.0,0.0
3966,72.0,70,90,5.0,0.0
3967,75.0,6,90,4.0,0.0
3968,63.0,92,480,0.0,0.0
3969,72.0,6,90,5.0,0.0
3970,65.0,232,90,6.0,0.0
3971,75.0,4,90,4.0,0.0
3972,72.0,2,90,5.0,0.0
3973,65.0,128,90,6.0,0.0
3974,65.0,50,90,0.0,0.0
3975,58.0,2,420,7.0,0.0
3976,46.0,28,420,8.0,0.0
3977,63.0,54,90,0.0,0.0
3978,65.0,60,90,0.0,0.0
3979,63.0,42,90,0.0,0.0
3980,65.0,64,90,0.0,0.0
3981,75.0,14,300,4.0,0.0
3982,65.0,68,210,6.0,0.0
3983,72.0,130,300,5.0,0.0
3984,63.0,54,90,0.0,0.0
3985,62.0,6,90,0.0,0.0
3986,63.0,22,150,0.0,0.0
3987,74.0,8,210,4.0,0.0
3988,62.0,418,480,0.0,0.0
3989,70.0,4,210,5.0,0.0
3990,65.0,132,210,6.0,0.0
3991,74.0,28,180,4.0,0.0
3992,70.0,80,90,5.0,0.0
3993,65.0,22,210,6.0,0.0
3994,38.0,6,420,8.0,0.0
3995,50.0,116,420,7.0,0.0
3996,77.0,4,300,4.0,0.0
3997,74.0,10,300,5.0,0.0
3998,58.0,94,300,6.0,0.0
3999,70.0,20,270,4.0,0.0
4000,67.0,46,180,0.0,0.0
4001,65.0,42,210,5.0,0.0
4002,62.0,54,300,6.0,0.0
4003,65.0,22,150,0.0,0.0
4004,74.0,4,210,4.0,0.0
4005,63.0,60,150,0.0,0.0
4006,58.0,238,270,6.0,0.0
4007,65.0,32,90,5.0,0.0
4008,62.0,58,90,0.0,0.0
4009,74.0,18,270,4.0,0.0
4010,39.0,4,900,8.0,0.0
4011,62.0,2,270,0.0,0.0
4012,51.0,108,900,7.0,0.0
4013,65.0,160,270,5.0,0.0
4014,55.0,454,990,6.0,0.0
4015,60.0,386,270,0.0,0.0
4016,72.0,8,210,4.0,0.0
4017,63.0,60,210,5.0,0.0
4018,58.0,30,990,0.0,0.0
4019,70.0,6,1020,4.0,0.0
4020,62.0,320,1020,5.0,0.0
4021,41.0,0,510,8.0,0.0
4022,53.0,16,510,7.0,0.0
4023,53.0,22,900,6.0,0.0
4024,57.0,26,390,0.0,0.0
4025,69.0,138,450,4.0,0.0
4026,51.0,2,420,7.0,0.0
4027,60.0,6,450,5.0,0.0
4028,39.0,6,420,8.0,0.0
4029,70.0,82,480,4.0,0.0
4030,38.0,4,420,8.0,0.0
4031,58.0,72,120,0.0,0.0
4032,53.0,0,420,6.0,0.0
4033,50.0,2,420,7.0,0.0
4034,62.0,14,420,5.0,0.0
4035,53.0,122,60,0.0,0.0
4036,55.0,110,60,0.0,0.0
4037,57.0,26,90,0.0,0.0
4038,58.0,124,60,0.0,0.0
4039,60.0,116,60,0.0,0.0
4040,62.0,120,60,0.0,0.0
4041,63.0,96,60,0.0,0.0
4042,65.0,166,40,0.0,0.0
4043,77.0,30,270,4.0,0.0
4044,74.0,48,210,5.0,0.0
4045,65.0,104,180,0.0,0.0
4046,64.0,124,150,0.0,0.0
4047,65.0,124,150,0.0,0.0
4048,67.0,52,150,0.0,0.0
4049,82.0,138,270,4.0,0.0
4050,74.0,40,210,5.0,0.0
4051,65.0,14,120,0.0,0.0
4052,63.0,28,150,0.0,0.0
4053,62.0,224,60,0.0,0.0
4054,39.0,4,510,8.0,0.0
4055,62.0,60,180,0.0,0.0
4056,51.0,40,510,7.0,0.0
4057,55.0,4,900,6.0,0.0
4058,60.0,80,120,0.0,0.0
4059,72.0,2,270,4.0,0.0
4060,63.0,96,90,0.0,0.0
4061,63.0,142,300,5.0,0.0
4062,60.0,90,60,0.0,0.0
4063,58.0,214,990,0.0,0.0
4064,52.0,4,420,7.0,0.0
4065,70.0,6,210,4.0,0.0
4066,40.0,6,420,8.0,0.0
4067,62.0,130,210,5.0,0.0
4068,70.0,256,210,4.0,0.0
4069,62.0,74,90,5.0,0.0
4070,70.0,156,270,4.0,0.0
4071,41.0,0,420,8.0,0.0
4072,62.0,56,210,5.0,0.0
4073,53.0,92,420,7.0,0.0
4074,53.0,16,900,6.0,0.0
4075,74.0,2,270,4.0,0.0
4076,65.0,0,270,5.0,0.0
4077,72.0,26,240,4.0,0.0
4078,57.0,12,450,0.0,0.0
4079,41.0,2,420,7.0,0.0
4080,29.0,0,420,8.0,0.0
4081,63.0,146,270,5.0,0.0
4082,69.0,118,240,4.0,0.0
4083,60.0,22,210,5.0,0.0
4084,70.0,96,120,4.0,0.0
4085,58.0,2,480,0.0,0.0
4086,70.0,2,420,1.0,0.0
4087,34.0,0,210,8.0,0.0
4088,46.0,4,210,7.0,0.0
4089,58.0,42,420,2.0,0.0
4090,58.0,24,210,6.0,0.0
4091,62.0,4,90,5.0,0.0
4092,58.0,102,120,4.0,0.0
4093,36.0,6,90,8.0,0.0
4094,60.0,62,120,4.0,0.0
4095,48.0,12,90,7.0,0.0
4096,38.0,4,90,8.0,0.0
4097,62.0,102,120,4.0,0.0
4098,50.0,10,90,7.0,0.0
4099,63.0,108,120,4.0,0.0
4100,51.0,12,90,7.0,0.0
4101,39.0,0,90,8.0,0.0
4102,65.0,110,120,4.0,0.0
4103,53.0,4,90,7.0,0.0
4104,41.0,10,90,8.0,0.0
4105,67.0,112,120,4.0,0.0
4106,43.0,0,90,8.0,0.0
4107,55.0,8,90,7.0,0.0
4108,69.0,110,120,4.0,0.0
4109,57.0,0,90,7.0,0.0
4110,45.0,8,90,8.0,0.0
4111,82.0,0,420,1.0,0.0
4112,70.0,4,420,1.0,0.0
4113,70.0,2,420,2.0,0.0
4114,46.0,4,90,8.0,0.0
4115,70.0,100,120,4.0,0.0
4116,58.0,44,420,2.0,0.0
4117,58.0,12,90,7.0,0.0
4118,48.0,6,90,8.0,0.0
4119,72.0,106,120,4.0,0.0
4120,60.0,14,90,7.0,0.0
4121,74.0,56,120,4.0,0.0
4122,50.0,2,90,8.0,0.0
4123,62.0,12,90,7.0,0.0
4124,69.0,108,120,4.0,0.0
4125,45.0,0,90,8.0,0.0
4126,57.0,8,90,7.0,0.0
4127,70.0,104,120,4.0,0.0
4128,58.0,0,90,7.0,0.0
4129,46.0,14,90,8.0,0.0
4130,82.0,2,420,1.0,0.0
4131,70.0,0,420,1.0,0.0
4132,58.0,0,420,2.0,0.0
4133,70.0,38,420,2.0,0.0
4134,48.0,8,90,8.0,0.0
4135,72.0,106,120,4.0,0.0
4136,60.0,8,90,7.0,0.0
4137,50.0,2,90,8.0,0.0
4138,62.0,16,90,7.0,0.0
4139,74.0,60,120,4.0,0.0
4140,45.0,2,90,8.0,0.0
4141,57.0,16,90,7.0,0.0
4142,69.0,104,120,4.0,0.0
4143,70.0,108,120,4.0,0.0
4144,70.0,4,420,1.0,0.0
4145,58.0,2,90,7.0,0.0
4146,46.0,10,90,8.0,0.0
4147,82.0,2,420,1.0,0.0
4148,58.0,2,420,2.0,0.0
4149,70.0,40,420,2.0,0.0
4150,58.0,112,120,4.0,0.0
4151,34.0,6,90,8.0,0.0
4152,46.0,6,90,7.0,0.0
4153,60.0,60,120,4.0,0.0
4154,48.0,10,90,7.0,0.0
4155,36.0,0,90,8.0,0.0
4156,62.0,108,120,4.0,0.0
4157,38.0,4,90,8.0,0.0
4158,50.0,8,90,7.0,0.0
4159,51.0,2,90,7.0,0.0
4160,63.0,106,120,4.0,0.0
4161,39.0,14,90,8.0,0.0
4162,65.0,104,120,4.0,0.0
4163,41.0,0,90,8.0,0.0
4164,53.0,12,90,7.0,0.0
4165,55.0,4,90,7.0,0.0
4166,67.0,104,120,4.0,0.0
4167,43.0,14,90,8.0,0.0
4168,45.0,4,90,8.0,0.0
4169,69.0,100,120,4.0,0.0
4170,57.0,12,90,7.0,0.0
4171,82.0,4,420,1.0,0.0
4172,46.0,8,90,8.0,0.0
4173,70.0,104,120,4.0,0.0
4174,70.0,4,420,1.0,0.0
4175,58.0,0,420,2.0,0.0
4176,70.0,36,420,2.0,0.0
4177,58.0,12,90,7.0,0.0
4178,72.0,102,120,4.0,0.0
4179,60.0,2,90,7.0,0.0
4180,48.0,14,90,8.0,0.0
4181,74.0,62,120,4.0,0.0
4182,62.0,4,90,7.0,0.0
4183,50.0,8,90,8.0,0.0
4184,45.0,4,90,8.0,0.0
4185,69.0,104,120,4.0,0.0
4186,57.0,14,90,7.0,0.0
4187,70.0,108,120,4.0,0.0
4188,70.0,4,420,1.0,0.0
4189,82.0,0,420,1.0,0.0
4190,58.0,4,90,7.0,0.0
4191,70.0,4,420,2.0,0.0
4192,46.0,8,90,8.0,0.0
4193,58.0,38,420,2.0,0.0
4194,72.0,108,120,4.0,0.0
4195,48.0,6,90,8.0,0.0
4196,60.0,6,90,7.0,0.0
4197,74.0,60,120,4.0,0.0
4198,50.0,2,90,8.0,0.0
4199,62.0,12,90,7.0,0.0
4200,57.0,4,90,7.0,0.0
4201,69.0,418,120,4.0,0.0
4202,45.0,12,90,8.0,0.0
4203,46.0,2,420,8.0,0.0
4204,70.0,2,420,4.0,0.0
4205,70.0,0,420,1.0,0.0
4206,58.0,2,420,7.0,0.0
4207,70.0,2,420,2.0,0.0
4208,82.0,0,420,1.0,0.0
4209,58.0,470,420,2.0,0.0
4210,70.0,0,420,4.0,0.0
4211,62.0,2,420,4.0,0.0
4212,74.0,4,420,1.0,0.0
4213,82.0,0,420,4.0,0.0
4214,46.0,2,420,8.0,0.0
4215,70.0,2,420,2.0,0.0
4216,58.0,0,420,7.0,0.0
4217,82.0,0,420,1.0,0.0
4218,62.0,470,420,2.0,0.0
4219,58.0,2,420,4.0,0.0
4220,34.0,4,420,8.0,0.0
4221,70.0,0,420,1.0,0.0
4222,58.0,0,420,2.0,0.0
4223,46.0,644,420,7.0,0.0
4224,51.0,36,330,0.0,0.0
4225,67.0,200,120,4.0,0.0
4226,39.0,2,420,8.0,0.0
4227,58.0,6,90,5.0,0.0
4228,51.0,164,420,7.0,0.0
4229,51.0,4,90,6.0,0.0
4230,67.0,66,120,4.0,0.0
4231,58.0,2,90,5.0,0.0
4232,51.0,2,90,6.0,0.0
4233,67.0,236,120,4.0,0.0
4234,51.0,6,570,0.0,0.0
4235,51.0,0,90,6.0,0.0
4236,58.0,2,90,5.0,0.0
4237,67.0,226,120,4.0,0.0
4238,58.0,6,90,5.0,0.0
4239,51.0,2,90,6.0,0.0
4240,67.0,4,120,4.0,0.0
4241,58.0,4,90,5.0,0.0
4242,51.0,82,90,6.0,0.0
4243,39.0,112,90,0.0,0.0
4244,67.0,0,120,4.0,0.0
4245,43.0,42,60,0.0,0.0
4246,58.0,4,90,5.0,0.0
4247,51.0,66,90,6.0,0.0
4248,46.0,128,60,0.0,0.0
4249,67.0,70,120,4.0,0.0
4250,51.0,40,60,0.0,0.0
4251,51.0,0,90,6.0,0.0
4252,58.0,2,90,5.0,0.0
4253,43.0,120,60,0.0,0.0
4254,67.0,0,120,4.0,0.0
4255,46.0,50,60,0.0,0.0
4256,58.0,2,90,5.0,0.0
4257,51.0,60,90,6.0,0.0
4258,51.0,112,60,0.0,0.0
4259,55.0,120,40,0.0,0.0
4260,51.0,0,420,7.0,0.0
4261,67.0,22,300,4.0,0.0
4262,39.0,28,420,8.0,0.0
4263,51.0,2,270,6.0,0.0
4264,58.0,10,270,5.0,0.0
4265,46.0,110,40,0.0,0.0
4266,70.0,22,150,4.0,0.0
4267,51.0,90,60,0.0,0.0
4268,67.0,6,210,5.0,0.0
4269,63.0,90,210,6.0,0.0
4270,55.0,4,60,0.0,0.0
4271,70.0,84,240,4.0,0.0
4272,58.0,38,60,0.0,0.0
4273,67.0,8,90,5.0,0.0
4274,63.0,66,90,6.0,0.0
4275,51.0,44,60,0.0,0.0
4276,75.0,38,150,4.0,0.0
4277,55.0,40,60,0.0,0.0
4278,63.0,2,90,6.0,0.0
4279,67.0,32,90,5.0,0.0
4280,58.0,170,60,0.0,0.0
4281,75.0,6,270,4.0,0.0
4282,63.0,72,270,0.0,0.0
4283,67.0,2,90,5.0,0.0
4284,63.0,158,90,6.0,0.0
4285,74.0,14,270,4.0,0.0
4286,62.0,56,300,0.0,0.0
4287,67.0,0,90,5.0,0.0
4288,63.0,170,90,6.0,0.0
4289,60.0,46,300,0.0,0.0
4290,72.0,22,270,4.0,0.0
4291,63.0,170,90,6.0,0.0
4292,67.0,0,90,5.0,0.0
4293,70.0,300,240,4.0,0.0
4294,58.0,24,210,0.0,0.0
4295,67.0,2,90,5.0,0.0
4296,63.0,96,90,6.0,0.0
4297,53.0,0,420,7.0,0.0
4298,41.0,4,420,8.0,0.0
4299,58.0,14,300,0.0,0.0
4300,70.0,118,300,4.0,0.0
4301,65.0,4,420,5.0,0.0
4302,60.0,26,420,6.0,0.0
4303,57.0,10,210,0.0,0.0
4304,69.0,114,240,4.0,0.0
4305,57.0,112,1440,0.0,0.0
4306,69.0,46,120,4.0,0.0
4307,65.0,8,90,5.0,0.0
4308,62.0,8,90,6.0,0.0
4309,63.0,2,90,5.0,0.0
4310,60.0,58,90,6.0,0.0
4311,65.0,2,90,5.0,0.0
4312,62.0,56,90,6.0,0.0
4313,63.0,8,90,5.0,0.0
4314,60.0,54,90,6.0,0.0
4315,69.0,42,120,4.0,0.0
4316,65.0,6,90,5.0,0.0
4317,62.0,10,90,6.0,0.0
4318,63.0,6,90,5.0,0.0
4319,60.0,54,90,6.0,0.0
4320,65.0,4,90,5.0,0.0
4321,62.0,56,90,6.0,0.0
4322,63.0,6,90,5.0,0.0
4323,60.0,56,90,6.0,0.0
4324,69.0,50,120,4.0,0.0
4325,65.0,6,90,5.0,0.0
4326,62.0,4,90,6.0,0.0
4327,63.0,2,90,5.0,0.0
4328,60.0,58,90,6.0,0.0
4329,62.0,0,90,6.0,0.0
4330,65.0,64,90,5.0,0.0
4331,63.0,2,90,5.0,0.0
4332,60.0,64,90,6.0,0.0
4333,69.0,42,120,4.0,0.0
4334,59.0,140,150,6.0,0.0
4335,62.0,0,150,5.0,0.0
4336,63.0,2,180,5.0,0.0
4337,60.0,56,150,6.0,0.0
4338,69.0,134,120,4.0,0.0
4339,65.0,10,240,5.0,0.0
4340,62.0,96,240,6.0,0.0
4341,69.0,2,120,4.0,0.0
4342,60.0,0,90,6.0,0.0
4343,63.0,128,90,5.0,0.0
4344,68.0,156,120,4.0,0.0
4345,34.0,2,420,8.0,0.0
4346,46.0,116,420,7.0,0.0
4347,56.0,18,330,0.0,0.0
4348,62.0,14,270,5.0,0.0
4349,58.0,50,270,6.0,0.0
4350,68.0,2,120,4.0,0.0
4351,65.0,2,90,5.0,0.0
4352,62.0,64,90,6.0,0.0
4353,68.0,186,120,4.0,0.0
4354,34.0,110,960,0.0,0.0
4355,62.0,4,60,6.0,0.0
4356,65.0,50,60,5.0,0.0
4357,68.0,236,120,4.0,0.0
4358,65.0,2,60,5.0,0.0
4359,62.0,54,60,6.0,0.0
4360,68.0,2,120,4.0,0.0
4361,62.0,2,90,6.0,0.0
4362,65.0,240,90,5.0,0.0
4363,68.0,124,120,4.0,0.0
4364,65.0,2,90,5.0,0.0
4365,62.0,2,90,6.0,0.0
4366,68.0,238,120,4.0,0.0
4367,65.0,48,780,0.0,0.0
4368,65.0,0,90,5.0,0.0
4369,62.0,0,90,6.0,0.0
4370,68.0,4,120,4.0,0.0
4371,65.0,2,90,5.0,0.0
4372,62.0,232,90,6.0,0.0
4373,46.0,2,900,8.0,0.0
4374,68.0,184,120,4.0,0.0
4375,58.0,250,900,7.0,0.0
4376,65.0,6,90,5.0,0.0
4377,62.0,4,90,6.0,0.0
4378,62.0,74,510,0.0,0.0
4379,68.0,232,120,4.0,0.0
4380,62.0,6,90,6.0,0.0
4381,65.0,0,90,5.0,0.0
4382,68.0,164,120,4.0,0.0
4383,65.0,6,90,5.0,0.0
4384,62.0,0,90,6.0,0.0
4385,58.0,78,420,0.0,0.0
4386,68.0,64,120,4.0,0.0
4387,65.0,2,90,5.0,0.0
4388,62.0,4,90,6.0,0.0
4389,68.0,26,270,4.0,0.0
4390,34.0,2,900,8.0,0.0
4391,65.0,130,300,5.0,0.0
4392,62.0,92,420,6.0,0.0
4393,46.0,30,900,7.0,0.0
4394,65.0,14,270,4.0,0.0
4395,53.0,20,300,0.0,0.0
4396,62.0,188,300,5.0,0.0
4397,55.0,20,270,0.0,0.0
4398,67.0,138,270,4.0,0.0
4399,63.0,6,270,5.0,0.0
4400,56.0,94,240,0.0,0.0
4401,68.0,10,240,4.0,0.0
4402,65.0,0,240,5.0,0.0
4403,62.0,14,210,6.0,0.0
4404,58.0,10,90,0.0,0.0
4405,70.0,8,90,4.0,0.0
4406,51.0,4,420,7.0,0.0
4407,39.0,2,420,8.0,0.0
4408,62.0,38,420,6.0,0.0
4409,67.0,28,120,5.0,0.0
4410,68.0,10,90,4.0,0.0
4411,56.0,20,90,0.0,0.0
4412,65.0,34,120,5.0,0.0
4413,58.0,16,90,0.0,0.0
4414,70.0,10,90,4.0,0.0
4415,67.0,14,120,5.0,0.0
4416,56.0,40,90,0.0,0.0
4417,68.0,8,90,4.0,0.0
4418,65.0,20,120,5.0,0.0
4419,58.0,32,90,0.0,0.0
4420,70.0,0,90,4.0,0.0
4421,67.0,36,120,5.0,0.0
4422,56.0,8,90,0.0,0.0
4423,55.0,18,90,0.0,0.0
4424,68.0,4,90,4.0,0.0
4425,65.0,10,120,5.0,0.0
4426,56.0,18,150,0.0,0.0
4427,67.0,4,90,4.0,0.0
4428,63.0,40,120,5.0,0.0
4429,68.0,8,90,4.0,0.0
4430,65.0,78,120,5.0,0.0
4431,67.0,114,150,4.0,0.0
4432,55.0,158,600,0.0,0.0
4433,27.0,2,420,8.0,0.0
4434,63.0,0,420,6.0,0.0
4435,39.0,64,420,7.0,0.0
4436,63.0,2,120,5.0,0.0
4437,65.0,108,150,4.0,0.0
4438,62.0,14,120,5.0,0.0
4439,67.0,10,180,4.0,0.0
4440,63.0,44,120,5.0,0.0
4441,68.0,114,120,4.0,0.0
4442,65.0,4,120,5.0,0.0
4443,67.0,22,300,4.0,0.0
4444,63.0,40,300,5.0,0.0
4445,57.0,18,270,0.0,0.0
4446,69.0,2,300,4.0,0.0
4447,51.0,176,90,6.0,0.0
4448,65.0,44,300,5.0,0.0
4449,58.0,54,300,0.0,0.0
4450,70.0,14,270,4.0,0.0
4451,67.0,68,210,5.0,0.0
4452,51.0,102,90,6.0,0.0
4453,71.0,90,270,4.0,0.0
4454,59.0,26,240,0.0,0.0
4455,67.0,6,90,5.0,0.0
4456,51.0,116,90,6.0,0.0
4457,60.0,38,180,0.0,0.0
4458,39.0,4,90,8.0,0.0
4459,72.0,58,120,4.0,0.0
4460,67.0,8,210,5.0,0.0
4461,51.0,6,90,7.0,0.0
4462,51.0,74,210,6.0,0.0
4463,62.0,52,180,0.0,0.0
4464,72.0,62,120,4.0,0.0
4465,63.0,38,180,0.0,0.0
4466,39.0,2,90,8.0,0.0
4467,51.0,4,90,7.0,0.0
4468,67.0,66,210,5.0,0.0
4469,63.0,26,420,6.0,0.0
4470,62.0,72,150,0.0,0.0
4471,60.0,52,780,0.0,0.0
4472,72.0,74,120,4.0,0.0
4473,51.0,0,90,7.0,0.0
4474,39.0,8,90,8.0,0.0
4475,67.0,130,210,5.0,0.0
4476,72.0,96,120,4.0,0.0
4477,51.0,2,90,7.0,0.0
4478,39.0,8,90,8.0,0.0
4479,67.0,134,210,5.0,0.0
4480,63.0,102,420,6.0,0.0
4481,72.0,0,120,4.0,0.0
4482,39.0,6,90,8.0,0.0
4483,51.0,0,90,7.0,0.0
4484,67.0,78,90,5.0,0.0
4485,39.0,2,90,8.0,0.0
4486,51.0,6,90,7.0,0.0
4487,72.0,220,120,4.0,0.0
4488,67.0,4,90,5.0,0.0
4489,60.0,0,90,6.0,0.0
4490,70.0,0,120,4.0,0.0
4491,40.0,8,90,8.0,0.0
4492,60.0,6,90,0.0,0.0
4493,52.0,0,90,7.0,0.0
4494,67.0,2,90,5.0,0.0
4495,60.0,32,90,6.0,0.0
4496,58.0,62,90,0.0,0.0
4497,60.0,46,90,0.0,0.0
4498,58.0,48,90,0.0,0.0
4499,60.0,44,60,0.0,0.0
4500,70.0,16,120,4.0,0.0
4501,40.0,6,90,8.0,0.0
4502,52.0,2,90,7.0,0.0
4503,67.0,0,90,5.0,0.0
4504,60.0,0,90,6.0,0.0
4505,58.0,52,90,0.0,0.0
4506,57.0,72,90,0.0,0.0
4507,58.0,96,120,0.0,0.0
4508,53.0,4,210,7.0,0.0
4509,69.0,94,120,4.0,0.0
4510,57.0,116,510,0.0,0.0
4511,41.0,82,210,8.0,0.0
4512,60.0,2,90,6.0,0.0
4513,57.0,4,90,5.0,0.0
4514,65.0,78,90,4.0,0.0
4515,41.0,2,60,8.0,0.0
4516,53.0,38,60,7.0,0.0
4517,67.0,22,120,4.0,0.0
4518,55.0,2,60,7.0,0.0
4519,43.0,64,60,8.0,0.0
4520,69.0,84,180,4.0,0.0
4521,45.0,0,150,8.0,0.0
4522,57.0,38,150,7.0,0.0
4523,70.0,76,150,4.0,0.0
4524,46.0,2,150,8.0,0.0
4525,58.0,10,150,7.0,0.0
4526,72.0,30,150,4.0,0.0
4527,60.0,2,90,7.0,0.0
4528,48.0,34,90,8.0,0.0
4529,69.0,126,120,4.0,0.0
4530,45.0,6,60,8.0,0.0
4531,57.0,52,60,7.0,0.0
4532,41.0,6,420,8.0,0.0
4533,65.0,232,120,4.0,0.0
4534,53.0,156,420,7.0,0.0
4535,72.0,4,120,4.0,0.0
4536,60.0,2,120,0.0,0.0
4537,69.0,0,90,5.0,0.0
4538,65.0,64,90,6.0,0.0
4539,72.0,38,120,4.0,0.0
4540,29.0,4,420,8.0,0.0
4541,62.0,8,90,0.0,0.0
4542,41.0,86,420,7.0,0.0
4543,65.0,0,90,6.0,0.0
4544,69.0,2,90,5.0,0.0
4545,60.0,72,90,0.0,0.0
4546,62.0,88,90,0.0,0.0
4547,60.0,40,120,0.0,0.0
4548,72.0,32,120,4.0,0.0
4549,69.0,6,90,5.0,0.0
4550,65.0,2,90,6.0,0.0
4551,58.0,30,120,0.0,0.0
4552,60.0,136,150,0.0,0.0
4553,74.0,70,240,4.0,0.0
4554,62.0,24,150,0.0,0.0
4555,34.0,4,210,8.0,0.0
4556,70.0,0,210,5.0,0.0
4557,46.0,14,210,7.0,0.0
4558,65.0,0,210,6.0,0.0
4559,58.0,24,60,0.0,0.0
4560,58.0,120,60,0.0,0.0
4561,58.0,160,60,0.0,0.0
4562,60.0,56,90,0.0,0.0
4563,58.0,56,90,0.0,0.0
4564,60.0,104,90,0.0,0.0
4565,58.0,64,150,0.0,0.0
4566,57.0,100,120,0.0,0.0
4567,58.0,104,120,0.0,0.0
4568,34.0,4,90,8.0,0.0
4569,53.0,24,180,0.0,0.0
4570,74.0,44,120,4.0,0.0
4571,46.0,2,90,7.0,0.0
4572,58.0,2,90,6.0,0.0
4573,65.0,16,90,5.0,0.0
4574,58.0,136,90,0.0,0.0
4575,58.0,96,90,0.0,0.0
4576,58.0,156,60,0.0,0.0
4577,74.0,42,120,4.0,0.0
4578,50.0,24,150,0.0,0.0
4579,46.0,2,90,7.0,0.0
4580,34.0,2,90,8.0,0.0
4581,65.0,6,90,5.0,0.0
4582,58.0,8,90,6.0,0.0
4583,58.0,104,60,0.0,0.0
4584,58.0,136,60,0.0,0.0
4585,58.0,208,60,0.0,0.0
4586,74.0,50,240,4.0,0.0
4587,34.0,2,210,8.0,0.0
4588,65.0,8,210,5.0,0.0
4589,46.0,0,210,7.0,0.0
4590,46.0,24,150,0.0,0.0
4591,58.0,30,210,6.0,0.0
4592,58.0,30,60,0.0,0.0
4593,58.0,128,60,0.0,0.0
4594,58.0,144,60,0.0,0.0
4595,60.0,72,90,0.0,0.0
4596,58.0,72,90,0.0,0.0
4597,60.0,80,120,0.0,0.0
4598,58.0,96,150,0.0,0.0
4599,57.0,68,150,0.0,0.0
4600,58.0,104,120,0.0,0.0
4601,74.0,40,120,4.0,0.0
4602,46.0,0,90,7.0,0.0
4603,62.0,32,150,0.0,0.0
4604,34.0,2,90,8.0,0.0
4605,65.0,2,90,5.0,0.0
4606,58.0,16,90,6.0,0.0
4607,58.0,112,90,0.0,0.0
4608,58.0,144,60,0.0,0.0
4609,58.0,130,90,0.0,0.0
4610,34.0,8,90,8.0,0.0
4611,65.0,40,150,0.0,0.0
4612,74.0,34,120,4.0,0.0
4613,46.0,0,90,7.0,0.0
4614,58.0,4,90,6.0,0.0
4615,65.0,0,90,5.0,0.0
4616,62.0,120,60,0.0,0.0
4617,62.0,128,60,0.0,0.0
4618,62.0,220,90,0.0,0.0
4619,33.0,4,210,8.0,0.0
4620,63.0,32,180,0.0,0.0
4621,65.0,8,210,5.0,0.0
4622,75.0,86,240,4.0,0.0
4623,45.0,0,210,7.0,0.0
4624,60.0,14,210,6.0,0.0
4625,60.0,0,90,0.0,0.0
4626,60.0,112,90,0.0,0.0
4627,60.0,144,60,0.0,0.0
4628,62.0,56,90,0.0,0.0
4629,60.0,80,90,0.0,0.0
4630,62.0,88,120,0.0,0.0
4631,60.0,72,150,0.0,0.0
4632,59.0,88,120,0.0,0.0
4633,60.0,104,120,0.0,0.0
4634,57.0,48,150,0.0,0.0
4635,75.0,38,120,4.0,0.0
4636,33.0,0,90,8.0,0.0
4637,45.0,4,90,7.0,0.0
4638,60.0,2,90,6.0,0.0
4639,65.0,4,90,5.0,0.0
4640,60.0,128,90,0.0,0.0
4641,60.0,112,90,0.0,0.0
4642,60.0,144,90,0.0,0.0
4643,53.0,120,210,0.0,0.0
4644,33.0,4,90,8.0,0.0
4645,75.0,84,120,4.0,0.0
4646,65.0,2,90,5.0,0.0
4647,45.0,2,90,7.0,0.0
4648,60.0,4,90,6.0,0.0
4649,60.0,8,90,0.0,0.0
4650,60.0,120,90,0.0,0.0
4651,60.0,216,90,0.0,0.0
4652,75.0,84,240,4.0,0.0
4653,48.0,24,180,0.0,0.0
4654,45.0,2,210,7.0,0.0
4655,33.0,0,210,8.0,0.0
4656,60.0,12,210,6.0,0.0
4657,65.0,0,210,5.0,0.0
4658,60.0,6,90,0.0,0.0
4659,60.0,104,60,0.0,0.0
4660,60.0,152,60,0.0,0.0
4661,62.0,56,90,0.0,0.0
4662,60.0,96,90,0.0,0.0
4663,62.0,80,120,0.0,0.0
4664,60.0,88,150,0.0,0.0
4665,59.0,72,150,0.0,0.0
4666,60.0,104,120,0.0,0.0
4667,75.0,0,120,4.0,0.0
4668,45.0,4,90,7.0,0.0
4669,57.0,32,180,0.0,0.0
4670,33.0,2,90,8.0,0.0
4671,65.0,2,90,6.0,0.0
4672,72.0,64,90,5.0,0.0
4673,60.0,104,90,0.0,0.0
4674,60.0,128,60,0.0,0.0
4675,60.0,140,90,0.0,0.0
4676,75.0,4,90,4.0,0.0
4677,45.0,0,90,7.0,0.0
4678,33.0,4,90,8.0,0.0
4679,53.0,104,180,0.0,0.0
4680,72.0,2,90,5.0,0.0
4681,65.0,74,90,6.0,0.0
4682,63.0,8,60,0.0,0.0
4683,63.0,152,60,0.0,0.0
4684,63.0,216,90,0.0,0.0
4685,74.0,100,240,4.0,0.0
4686,46.0,2,210,7.0,0.0
4687,62.0,24,180,0.0,0.0
4688,34.0,2,210,8.0,0.0
4689,70.0,6,210,5.0,0.0
4690,65.0,8,210,6.0,0.0
4691,58.0,2,90,0.0,0.0
4692,58.0,104,90,0.0,0.0
4693,58.0,160,60,0.0,0.0
4694,60.0,48,120,0.0,0.0
4695,58.0,64,90,0.0,0.0
4696,60.0,88,90,0.0,0.0
4697,58.0,88,120,0.0,0.0
4698,57.0,80,120,0.0,0.0
4699,58.0,106,120,0.0,0.0
4700,74.0,0,120,4.0,0.0
4701,53.0,16,180,0.0,0.0
4702,34.0,2,90,8.0,0.0
4703,70.0,2,90,5.0,0.0
4704,46.0,2,90,7.0,0.0
4705,65.0,64,90,6.0,0.0
4706,58.0,120,60,0.0,0.0
4707,58.0,112,60,0.0,0.0
4708,58.0,160,60,0.0,0.0
4709,46.0,2,90,7.0,0.0
4710,50.0,32,150,0.0,0.0
4711,74.0,42,120,4.0,0.0
4712,34.0,2,90,8.0,0.0
4713,70.0,6,90,5.0,0.0
4714,65.0,0,90,6.0,0.0
4715,53.0,112,60,0.0,0.0
4716,53.0,128,60,0.0,0.0
4717,53.0,156,60,0.0,0.0
4718,58.0,110,120,4.0,0.0
4719,46.0,60,510,0.0,0.0
4720,46.0,2,90,7.0,0.0
4721,70.0,4,1860,2.0,0.0
4722,34.0,6,90,8.0,0.0
4723,58.0,38,1860,2.0,0.0
4724,70.0,110,120,4.0,0.0
4725,46.0,4,90,8.0,0.0
4726,58.0,6,90,7.0,0.0
4727,70.0,114,120,4.0,0.0
4728,46.0,6,90,8.0,0.0
4729,58.0,2,90,7.0,0.0
4730,46.0,0,90,8.0,0.0
4731,58.0,10,90,7.0,0.0
4732,70.0,50,120,4.0,0.0
4733,72.0,60,120,4.0,0.0
4734,46.0,2,420,8.0,0.0
4735,58.0,36,420,7.0,0.0
4736,70.0,58,90,4.0,0.0
4737,72.0,58,90,4.0,0.0
4738,70.0,64,90,4.0,0.0
4739,72.0,60,90,4.0,0.0
4740,70.0,18,90,4.0,0.0
4741,69.0,66,90,4.0,0.0
4742,70.0,60,90,4.0,0.0
4743,65.0,114,120,4.0,0.0
4744,53.0,0,90,7.0,0.0
4745,41.0,4,90,8.0,0.0
4746,46.0,2,90,8.0,0.0
4747,58.0,112,90,7.0,0.0
4748,70.0,0,90,4.0,0.0
4749,70.0,6,90,4.0,0.0
4750,58.0,0,90,7.0,0.0
4751,46.0,118,90,8.0,0.0
4752,58.0,118,90,7.0,0.0
4753,70.0,2,90,4.0,0.0
4754,46.0,0,90,8.0,0.0
4755,62.0,2,90,4.0,0.0
4756,50.0,4,90,7.0,0.0
4757,38.0,116,90,8.0,0.0
4758,70.0,2,90,4.0,0.0
4759,58.0,2,90,7.0,0.0
4760,46.0,114,90,8.0,0.0
4761,58.0,2,90,7.0,0.0
4762,70.0,2,90,4.0,0.0
4763,46.0,74,90,8.0,0.0
4764,70.0,6,90,4.0,0.0
4765,58.0,120,90,7.0,0.0
4766,46.0,0,90,8.0,0.0
4767,63.0,324,120,4.0,0.0
4768,39.0,0,90,8.0,0.0
4769,51.0,16,90,7.0,0.0
4770,51.0,138,210,0.0,0.0
4771,67.0,82,120,4.0,0.0
4772,51.0,232,210,0.0,0.0
4773,51.0,2,90,7.0,0.0
4774,39.0,2,90,8.0,0.0
4775,63.0,0,90,6.0,0.0
4776,58.0,16,90,5.0,0.0
4777,51.0,146,210,0.0,0.0
4778,67.0,184,120,4.0,0.0
4779,51.0,16,300,0.0,0.0
4780,51.0,0,90,7.0,0.0
4781,39.0,4,90,8.0,0.0
4782,58.0,2,90,5.0,0.0
4783,63.0,12,90,6.0,0.0
4784,53.0,120,90,0.0,0.0
4785,55.0,112,90,0.0,0.0
4786,67.0,86,120,4.0,0.0
4787,39.0,6,90,8.0,0.0
4788,56.0,28,90,0.0,0.0
4789,51.0,0,90,7.0,0.0
4790,58.0,4,90,5.0,0.0
4791,63.0,12,90,6.0,0.0
4792,58.0,104,90,0.0,0.0
4793,60.0,112,90,0.0,0.0
4794,62.0,128,60,0.0,0.0
4795,67.0,50,270,4.0,0.0
4796,63.0,112,90,0.0,0.0
4797,39.0,2,420,8.0,0.0
4798,63.0,2,420,6.0,0.0
4799,58.0,54,210,5.0,0.0
4800,51.0,10,420,7.0,0.0
4801,65.0,24,60,0.0,0.0
4802,82.0,2,210,1.0,0.0
4803,70.0,124,240,4.0,0.0
4804,79.0,2,210,1.0,0.0
4805,67.0,106,90,0.0,0.0
4806,67.0,16,210,5.0,0.0
4807,68.0,10,90,0.0,0.0
4808,70.0,86,120,4.0,0.0
4809,82.0,2,210,1.0,0.0
4810,70.0,20,510,0.0,0.0
4811,79.0,140,210,1.0,0.0
4812,67.0,12,90,5.0,0.0
4813,70.0,86,120,4.0,0.0
4814,82.0,2,210,1.0,0.0
4815,79.0,74,210,1.0,0.0
4816,67.0,12,90,5.0,0.0
4817,72.0,6,90,4.0,0.0
4818,84.0,34,60,1.0,0.0
4819,81.0,0,60,1.0,0.0
4820,69.0,20,90,5.0,0.0
4821,70.0,14,90,4.0,0.0
4822,79.0,30,60,1.0,0.0
4823,82.0,0,60,1.0,0.0
4824,67.0,12,90,5.0,0.0
4825,81.0,4,60,1.0,0.0
4826,72.0,12,90,4.0,0.0
4827,69.0,20,90,5.0,0.0
4828,84.0,26,60,1.0,0.0
4829,82.0,4,60,1.0,0.0
4830,70.0,4,90,4.0,0.0
4831,79.0,36,60,1.0,0.0
4832,67.0,166,90,5.0,0.0
4833,77.0,6,240,1.0,0.0
4834,68.0,14,240,4.0,0.0
4835,80.0,48,240,1.0,0.0
4836,65.0,22,210,5.0,0.0
4837,70.0,18,90,4.0,0.0
4838,82.0,0,60,1.0,0.0
4839,79.0,28,60,1.0,0.0
4840,67.0,12,90,5.0,0.0
4841,80.0,4,60,1.0,0.0
4842,68.0,14,90,4.0,0.0
4843,77.0,30,60,1.0,0.0
4844,65.0,12,90,5.0,0.0
4845,79.0,2,60,1.0,0.0
4846,70.0,8,90,4.0,0.0
4847,82.0,36,60,1.0,0.0
4848,67.0,16,90,5.0,0.0
4849,68.0,14,90,4.0,0.0
4850,80.0,4,60,1.0,0.0
4851,77.0,28,60,1.0,0.0
4852,65.0,164,90,5.0,0.0
4853,67.0,16,240,4.0,0.0
4854,75.0,2,240,1.0,0.0
4855,79.0,94,240,1.0,0.0
4856,63.0,22,210,5.0,0.0
4857,34.0,4,90,8.0,0.0
4858,46.0,0,90,7.0,0.0
4859,65.0,302,120,4.0,0.0
4860,62.0,2,90,5.0,0.0
4861,58.0,22,90,6.0,0.0
4862,46.0,148,210,0.0,0.0
4863,65.0,56,120,4.0,0.0
4864,46.0,2,90,7.0,0.0
4865,46.0,240,180,0.0,0.0
4866,62.0,2,90,5.0,0.0
4867,34.0,0,90,8.0,0.0
4868,58.0,24,90,6.0,0.0
4869,46.0,160,180,0.0,0.0
4870,65.0,140,120,4.0,0.0
4871,46.0,48,270,0.0,0.0
4872,46.0,0,90,7.0,0.0
4873,58.0,0,90,6.0,0.0
4874,34.0,2,90,8.0,0.0
4875,62.0,18,90,5.0,0.0
4876,48.0,120,90,0.0,0.0
4877,50.0,112,90,0.0,0.0
4878,34.0,8,90,8.0,0.0
4879,65.0,52,150,4.0,0.0
4880,51.0,34,60,0.0,0.0
4881,46.0,0,90,7.0,0.0
4882,62.0,2,90,5.0,0.0
4883,58.0,32,90,6.0,0.0
4884,53.0,104,90,0.0,0.0
4885,55.0,112,60,0.0,0.0
4886,57.0,144,60,0.0,0.0
4887,58.0,104,90,0.0,0.0
4888,46.0,2,420,7.0,0.0
4889,65.0,2,210,4.0,0.0
4890,34.0,4,420,8.0,0.0
4891,62.0,104,210,5.0,0.0
4892,58.0,2,420,6.0,0.0
4893,60.0,30,60,0.0,0.0
4894,77.0,0,210,1.0,0.0
4895,65.0,2,210,4.0,0.0
4896,62.0,104,90,0.0,0.0
4897,62.0,2,210,5.0,0.0
4898,74.0,236,210,1.0,0.0
4899,63.0,20,60,0.0,0.0
4900,65.0,64,480,0.0,0.0
4901,77.0,2,210,1.0,0.0
4902,74.0,0,210,1.0,0.0
4903,62.0,234,210,5.0,0.0
4904,65.0,0,210,4.0,0.0
4905,65.0,2,210,4.0,0.0
4906,77.0,0,210,1.0,0.0
4907,74.0,6,210,1.0,0.0
4908,62.0,28,210,5.0,0.0
4909,67.0,14,90,4.0,0.0
4910,79.0,0,60,1.0,0.0
4911,75.0,26,60,1.0,0.0
4912,63.0,18,90,5.0,0.0
4913,77.0,4,60,1.0,0.0
4914,65.0,12,90,4.0,0.0
4915,74.0,28,60,1.0,0.0
4916,62.0,18,90,5.0,0.0
4917,67.0,18,90,4.0,0.0
4918,79.0,2,60,1.0,0.0
4919,75.0,24,60,1.0,0.0
4920,63.0,12,90,5.0,0.0
4921,65.0,16,90,4.0,0.0
4922,77.0,6,60,1.0,0.0
4923,62.0,170,90,5.0,0.0
4924,74.0,20,60,1.0,0.0
4925,75.0,2,240,1.0,0.0
4926,63.0,4,240,4.0,0.0
4927,60.0,36,210,5.0,0.0
4928,72.0,46,240,1.0,0.0
4929,77.0,0,60,1.0,0.0
4930,74.0,38,60,1.0,0.0
4931,65.0,8,90,4.0,0.0
4932,62.0,18,90,5.0,0.0
4933,63.0,20,90,4.0,0.0
4934,75.0,2,60,1.0,0.0
4935,60.0,0,90,5.0,0.0
4936,72.0,36,60,1.0,0.0
4937,74.0,2,60,1.0,0.0
4938,77.0,34,60,1.0,0.0
4939,65.0,10,90,4.0,0.0
4940,62.0,12,90,5.0,0.0
4941,75.0,4,60,1.0,0.0
4942,63.0,162,120,4.0,0.0
4943,72.0,44,60,1.0,0.0
4944,60.0,2,90,5.0,0.0
4945,62.0,8,240,4.0,0.0
4946,70.0,0,240,1.0,0.0
4947,74.0,94,240,1.0,0.0
4948,58.0,30,210,5.0,0.0
4949,41.0,2,90,8.0,0.0
4950,60.0,290,120,4.0,0.0
4951,57.0,2,90,5.0,0.0
4952,65.0,2,90,6.0,0.0
4953,53.0,20,90,7.0,0.0
4954,41.0,166,180,0.0,0.0
4955,60.0,52,120,4.0,0.0
4956,41.0,240,180,0.0,0.0
4957,41.0,4,90,8.0,0.0
4958,57.0,2,90,5.0,0.0
4959,53.0,0,90,7.0,0.0
4960,65.0,16,90,6.0,0.0
4961,41.0,164,180,0.0,0.0
4962,60.0,122,120,4.0,0.0
4963,53.0,0,90,7.0,0.0
4964,41.0,64,240,0.0,0.0
4965,41.0,6,90,8.0,0.0
4966,57.0,0,90,5.0,0.0
4967,65.0,20,90,6.0,0.0
4968,43.0,120,90,0.0,0.0
4969,45.0,128,90,0.0,0.0
4970,41.0,4,90,8.0,0.0
4971,60.0,54,120,4.0,0.0
4972,46.0,18,90,0.0,0.0
4973,57.0,4,90,5.0,0.0
4974,53.0,4,90,7.0,0.0
4975,65.0,20,90,6.0,0.0
4976,48.0,112,60,0.0,0.0
4977,50.0,120,60,0.0,0.0
4978,51.0,128,60,0.0,0.0
4979,60.0,26,270,4.0,0.0
4980,53.0,104,60,0.0,0.0
4981,41.0,4,420,8.0,0.0
4982,65.0,0,420,6.0,0.0
4983,53.0,10,420,7.0,0.0
4984,57.0,58,210,5.0,0.0
4985,55.0,44,60,0.0,0.0
4986,63.0,128,210,4.0,0.0
4987,57.0,122,60,0.0,0.0
4988,72.0,2,210,1.0,0.0
4989,75.0,6,210,1.0,0.0
4990,60.0,0,210,5.0,0.0
4991,58.0,14,90,0.0,0.0
4992,63.0,68,150,4.0,0.0
4993,75.0,2,210,1.0,0.0
4994,60.0,60,480,0.0,0.0
4995,72.0,142,210,1.0,0.0
4996,60.0,32,90,5.0,0.0
4997,72.0,6,210,1.0,0.0
4998,63.0,52,150,4.0,0.0
4999,75.0,28,210,1.0,0.0
5000,60.0,44,90,5.0,0.0
5001,77.0,2,60,1.0,0.0
5002,65.0,4,90,4.0,0.0
5003,74.0,36,60,1.0,0.0
5004,62.0,18,90,5.0,0.0
5005,72.0,2,60,1.0,0.0
5006,75.0,32,60,1.0,0.0
5007,63.0,14,90,4.0,0.0
5008,60.0,12,90,5.0,0.0
5009,65.0,8,90,4.0,0.0
5010,74.0,2,60,1.0,0.0
5011,77.0,36,60,1.0,0.0
5012,62.0,14,90,5.0,0.0
5013,63.0,18,90,4.0,0.0
5014,72.0,6,60,1.0,0.0
5015,75.0,20,60,1.0,0.0
5016,60.0,160,90,5.0,0.0
5017,62.0,12,210,4.0,0.0
5018,70.0,2,240,1.0,0.0
5019,74.0,46,240,1.0,0.0
5020,58.0,36,210,5.0,0.0
5021,63.0,16,90,4.0,0.0
5022,75.0,6,60,1.0,0.0
5023,72.0,24,60,1.0,0.0
5024,60.0,16,90,5.0,0.0
5025,62.0,2,90,4.0,0.0
5026,70.0,2,60,1.0,0.0
5027,74.0,38,60,1.0,0.0
5028,58.0,20,90,5.0,0.0
5029,63.0,4,90,4.0,0.0
5030,72.0,2,60,1.0,0.0
5031,60.0,20,90,5.0,0.0
5032,75.0,32,60,1.0,0.0
5033,70.0,4,60,1.0,0.0
5034,62.0,14,90,4.0,0.0
5035,74.0,28,60,1.0,0.0
5036,58.0,156,90,5.0,0.0
5037,60.0,8,210,4.0,0.0
5038,69.0,2,240,1.0,0.0
5039,72.0,72,240,1.0,0.0
5040,57.0,38,210,5.0,0.0
5041,62.0,72,300,4.0,0.0
5042,34.0,6,540,8.0,0.0
5043,62.0,184,90,0.0,0.0
5044,46.0,4,540,7.0,0.0
5045,77.0,24,4260,1.0,0.0
5046,58.0,62,360,5.0,0.0
5047,58.0,14,540,6.0,0.0
5048,65.0,18,150,0.0,0.0
5049,65.0,18,300,4.0,0.0
5050,64.0,76,180,0.0,0.0
5051,62.0,60,330,5.0,0.0
5052,65.0,38,150,0.0,0.0
5053,50.0,0,540,7.0,0.0
5054,63.0,88,150,0.0,0.0
5055,38.0,10,540,8.0,0.0
5056,62.0,178,540,6.0,0.0
5057,62.0,64,120,0.0,0.0
5058,60.0,128,60,0.0,0.0
5059,70.0,66,240,4.0,0.0
5060,65.0,30,210,5.0,0.0
5061,58.0,12,90,0.0,0.0
5062,69.0,14,270,4.0,0.0
5063,57.0,10,60,0.0,0.0
5064,65.0,84,300,5.0,0.0
5065,36.0,2,540,8.0,0.0
5066,60.0,0,540,6.0,0.0
5067,48.0,84,540,7.0,0.0
5068,63.0,28,150,0.0,0.0
5069,72.0,18,240,4.0,0.0
5070,62.0,98,150,0.0,0.0
5071,63.0,38,270,5.0,0.0
5072,63.0,16,150,0.0,0.0
5073,41.0,10,420,8.0,0.0
5074,53.0,24,450,7.0,0.0
5075,62.0,64,150,0.0,0.0
5076,65.0,4,420,6.0,0.0
5077,60.0,80,120,0.0,0.0
5078,75.0,62,240,4.0,0.0
5079,58.0,110,60,0.0,0.0
5080,69.0,6,210,5.0,0.0
5081,57.0,24,60,0.0,0.0
5082,74.0,12,270,4.0,0.0
5083,46.0,2,540,7.0,0.0
5084,58.0,120,60,0.0,0.0
5085,34.0,4,540,8.0,0.0
5086,58.0,100,540,6.0,0.0
5087,70.0,34,270,5.0,0.0
5088,65.0,82,60,0.0,0.0
5089,77.0,12,270,4.0,0.0
5090,64.0,96,90,0.0,0.0
5091,74.0,10,270,5.0,0.0
5092,65.0,98,60,0.0,0.0
5093,63.0,22,60,0.0,0.0
5094,38.0,2,540,8.0,0.0
5095,50.0,0,540,7.0,0.0
5096,62.0,84,540,6.0,0.0
5097,62.0,120,60,0.0,0.0
5098,70.0,30,270,4.0,0.0
5099,60.0,128,60,0.0,0.0
5100,65.0,62,210,5.0,0.0
5101,58.0,20,60,0.0,0.0
5102,57.0,18,60,0.0,0.0
5103,36.0,2,540,8.0,0.0
5104,69.0,36,240,4.0,0.0
5105,48.0,8,540,7.0,0.0
5106,65.0,10,270,5.0,0.0
5107,60.0,64,540,6.0,0.0
5108,63.0,82,40,0.0,0.0
5109,72.0,20,300,4.0,0.0
5110,62.0,128,60,0.0,0.0
5111,63.0,14,270,5.0,0.0
5112,63.0,98,60,0.0,0.0
5113,41.0,0,450,8.0,0.0
5114,53.0,4,450,7.0,0.0
5115,62.0,2,60,0.0,0.0
5116,65.0,52,450,6.0,0.0
5117,60.0,144,30,0.0,0.0
5118,58.0,128,60,0.0,0.0
5119,63.0,170,270,4.0,0.0
5120,57.0,10,210,5.0,0.0
5121,57.0,32,60,0.0,0.0
5122,62.0,18,270,4.0,0.0
5123,46.0,4,210,7.0,0.0
5124,58.0,2,450,0.0,0.0
5125,58.0,144,270,5.0,0.0
5126,58.0,50,210,6.0,0.0
5127,34.0,0,210,8.0,0.0
5128,65.0,4,210,4.0,0.0
5129,46.0,0,210,7.0,0.0
5130,34.0,0,210,8.0,0.0
5131,62.0,0,210,5.0,0.0
5132,58.0,236,210,6.0,0.0
5133,65.0,84,1050,4.0,0.0
5134,53.0,46,1020,0.0,0.0
5135,34.0,2,210,8.0,0.0
5136,58.0,238,210,5.0,0.0
5137,46.0,0,210,7.0,0.0
5138,58.0,0,210,6.0,0.0
5139,46.0,2,210,7.0,0.0
5140,34.0,4,210,8.0,0.0
5141,58.0,22,420,5.0,0.0
5142,58.0,210,210,6.0,0.0
5143,50.0,4,210,7.0,0.0
5144,38.0,4,210,8.0,0.0
5145,62.0,232,210,6.0,0.0
5146,50.0,2,210,7.0,0.0
5147,38.0,8,210,8.0,0.0
5148,58.0,22,420,5.0,0.0
5149,62.0,78,210,6.0,0.0
5150,66.0,118,450,4.0,0.0
5151,50.0,4,210,7.0,0.0
5152,54.0,54,570,0.0,0.0
5153,38.0,2,210,8.0,0.0
5154,62.0,238,210,6.0,0.0
5155,58.0,0,210,5.0,0.0
5156,38.0,2,210,8.0,0.0
5157,62.0,4,210,6.0,0.0
5158,50.0,0,210,7.0,0.0
5159,67.0,8,150,4.0,0.0
5160,55.0,132,510,0.0,0.0
5161,51.0,2,420,7.0,0.0
5162,39.0,2,420,8.0,0.0
5163,55.0,264,150,5.0,0.0
5164,63.0,34,420,6.0,0.0
5165,79.0,18,330,4.0,0.0
5166,67.0,26,330,5.0,0.0
5167,60.0,120,510,0.0,0.0
5168,77.0,2,150,4.0,0.0
5169,65.0,314,150,5.0,0.0
5170,75.0,10,330,4.0,0.0
5171,63.0,30,360,5.0,0.0
5172,63.0,90,540,0.0,0.0
5173,62.0,8,150,5.0,0.0
5174,74.0,300,150,4.0,0.0
5175,72.0,4,330,4.0,0.0
5176,60.0,72,330,5.0,0.0
5177,71.0,10,150,4.0,0.0
5178,67.0,8,450,0.0,0.0
5179,59.0,300,150,5.0,0.0
5180,72.0,670,360,4.0,0.0
5181,60.0,10,330,5.0,0.0
5182,67.0,38,720,4.0,0.0
5183,55.0,66,750,0.0,0.0
5184,55.0,58,660,5.0,0.0
5185,39.0,6,420,8.0,0.0
5186,55.0,2,420,6.0,0.0
5187,51.0,46,420,7.0,0.0
5188,75.0,16,150,4.0,0.0
5189,63.0,10,150,0.0,0.0
5190,67.0,46,90,5.0,0.0
5191,60.0,382,150,0.0,0.0
5192,72.0,30,120,4.0,0.0
5193,63.0,18,90,5.0,0.0
5194,58.0,122,450,0.0,0.0
5195,41.0,0,420,8.0,0.0
5196,53.0,26,420,7.0,0.0
5197,70.0,0,420,4.0,0.0
5198,53.0,0,900,6.0,0.0
5199,62.0,8,450,5.0,0.0
5200,70.0,6,90,4.0,0.0
5201,58.0,10,90,0.0,0.0
5202,29.0,4,420,8.0,0.0
5203,41.0,16,420,7.0,0.0
5204,62.0,32,120,5.0,0.0
5205,69.0,22,90,4.0,0.0
5206,57.0,2,120,0.0,0.0
5207,60.0,40,120,5.0,0.0
5208,70.0,6,90,4.0,0.0
5209,58.0,12,90,0.0,0.0
5210,62.0,38,120,5.0,0.0
5211,69.0,6,90,4.0,0.0
5212,57.0,22,90,0.0,0.0
5213,60.0,38,120,5.0,0.0
5214,58.0,6,90,0.0,0.0
5215,70.0,12,90,4.0,0.0
5216,62.0,36,120,5.0,0.0
5217,57.0,18,90,0.0,0.0
5218,60.0,14,120,5.0,0.0
5219,69.0,4,90,4.0,0.0
5220,55.0,16,90,0.0,0.0
5221,67.0,12,90,4.0,0.0
5222,58.0,44,120,5.0,0.0
5223,57.0,12,90,0.0,0.0
5224,69.0,6,90,4.0,0.0
5225,60.0,368,120,5.0,0.0
5226,34.0,2,420,8.0,0.0
5227,58.0,18,480,0.0,0.0
5228,65.0,0,420,1.0,0.0
5229,70.0,292,510,4.0,0.0
5230,53.0,2,420,2.0,0.0
5231,77.0,0,420,1.0,0.0
5232,46.0,2,420,7.0,0.0
5233,65.0,2,420,2.0,0.0
5234,53.0,0,420,6.0,0.0
5235,62.0,52,420,5.0,0.0
5236,65.0,2,300,1.0,0.0
5237,53.0,4,300,2.0,0.0
5238,77.0,0,300,1.0,0.0
5239,65.0,124,300,2.0,0.0
5240,53.0,0,90,2.0,0.0
5241,77.0,0,90,1.0,0.0
5242,65.0,4,90,1.0,0.0
5243,65.0,454,90,2.0,0.0
5244,65.0,0,420,1.0,0.0
5245,77.0,4,420,1.0,0.0
5246,65.0,2,420,2.0,0.0
5247,53.0,476,420,2.0,0.0
5248,77.0,4,420,1.0,0.0
5249,65.0,2,420,1.0,0.0
5250,65.0,0,420,2.0,0.0
5251,53.0,1074,420,2.0,0.0
5252,77.0,0,4740,1.0,0.0
5253,65.0,2,4740,1.0,0.0
5254,65.0,4,4740,2.0,0.0
5255,53.0,0,4740,2.0,0.0
5256,77.0,168,480,4.0,0.0
5257,50.0,240,60,0.0,0.0
5258,53.0,166,60,0.0,0.0
5259,75.0,88,150,4.0,0.0
5260,58.0,26,450,0.0,0.0
5261,65.0,0,420,5.0,0.0
5262,38.0,2,420,8.0,0.0
5263,50.0,24,420,7.0,0.0
5264,62.0,0,420,6.0,0.0
5265,74.0,128,120,4.0,0.0
5266,72.0,52,120,4.0,0.0
5267,70.0,66,120,4.0,0.0
5268,57.0,240,60,0.0,0.0
5269,36.0,4,540,8.0,0.0
5270,75.0,66,480,4.0,0.0
5271,48.0,2,540,7.0,0.0
5272,63.0,2,540,5.0,0.0
5273,60.0,78,540,6.0,0.0
5274,60.0,182,60,0.0,0.0
5275,29.0,2,540,8.0,0.0
5276,63.0,58,420,0.0,0.0
5277,74.0,88,150,4.0,0.0
5278,60.0,2,540,5.0,0.0
5279,53.0,0,540,6.0,0.0
5280,41.0,98,540,7.0,0.0
5281,72.0,128,120,4.0,0.0
5282,70.0,62,120,4.0,0.0
5283,69.0,56,120,4.0,0.0
5284,70.0,54,180,4.0,0.0
5285,63.0,18,180,0.0,0.0
5286,46.0,4,540,7.0,0.0
5287,34.0,0,540,8.0,0.0
5288,62.0,2,540,5.0,0.0
5289,58.0,8,540,6.0,0.0
5290,62.0,80,120,0.0,0.0
5291,60.0,104,90,0.0,0.0
5292,74.0,104,210,4.0,0.0
5293,58.0,18,60,0.0,0.0
5294,38.0,2,420,8.0,0.0
5295,57.0,232,90,0.0,0.0
5296,65.0,4,420,5.0,0.0
5297,50.0,4,420,7.0,0.0
5298,62.0,40,420,6.0,0.0
5299,58.0,106,60,0.0,0.0
5300,77.0,2,15,4.0,0.0
5301,75.0,56,480,4.0,0.0
5302,48.0,2,540,7.0,0.0
5303,57.0,252,40,0.0,0.0
5304,36.0,4,540,8.0,0.0
5305,63.0,4,540,5.0,0.0
5306,60.0,78,540,6.0,0.0
5307,60.0,190,60,0.0,0.0
5308,41.0,0,540,7.0,0.0
5309,29.0,6,540,8.0,0.0
5310,63.0,42,420,0.0,0.0
5311,74.0,88,150,4.0,0.0
5312,53.0,88,540,6.0,0.0
5313,60.0,66,480,5.0,0.0
5314,72.0,128,120,4.0,0.0
5315,70.0,48,120,4.0,0.0
5316,69.0,14,120,4.0,0.0
5317,70.0,36,210,4.0,0.0
5318,34.0,6,420,8.0,0.0
5319,63.0,44,150,0.0,0.0
5320,58.0,2,420,6.0,0.0
5321,46.0,6,420,7.0,0.0
5322,62.0,88,240,5.0,0.0
5323,62.0,0,120,0.0,0.0
5324,74.0,102,180,4.0,0.0
5325,60.0,90,90,0.0,0.0
5326,65.0,40,300,5.0,0.0
5327,58.0,2,60,0.0,0.0
5328,79.0,64,90,4.0,0.0
5329,62.0,4,420,7.0,0.0
5330,57.0,2,90,0.0,0.0
5331,62.0,14,210,5.0,0.0
5332,50.0,34,420,8.0,0.0
5333,77.0,50,90,4.0,0.0
5334,79.0,64,120,4.0,0.0
5335,77.0,38,120,4.0,0.0
5336,79.0,14,90,4.0,0.0
5337,58.0,10,90,0.0,0.0
5338,70.0,42,90,5.0,0.0
5339,77.0,26,90,4.0,0.0
5340,75.0,40,90,4.0,0.0
5341,77.0,110,90,4.0,0.0
5342,79.0,56,510,4.0,0.0
5343,67.0,288,120,0.0,0.0
5344,51.0,2,420,8.0,0.0
5345,70.0,82,420,5.0,0.0
5346,63.0,0,420,7.0,0.0
5347,51.0,6,180,0.0,0.0
5348,67.0,70,330,6.0,0.0
5349,50.0,6,420,8.0,0.0
5350,50.0,240,150,0.0,0.0
5351,62.0,2,420,7.0,0.0
5352,65.0,88,420,6.0,0.0
5353,77.0,46,270,4.0,0.0
5354,65.0,26,150,0.0,0.0
5355,71.0,40,330,5.0,0.0
5356,75.0,76,480,4.0,0.0
5357,60.0,2,420,7.0,0.0
5358,63.0,280,120,0.0,0.0
5359,48.0,2,420,8.0,0.0
5360,72.0,54,420,5.0,0.0
5361,48.0,20,150,0.0,0.0
5362,63.0,62,300,6.0,0.0
5363,46.0,264,150,0.0,0.0
5364,58.0,2,420,7.0,0.0
5365,62.0,98,420,6.0,0.0
5366,46.0,0,420,8.0,0.0
5367,62.0,22,150,0.0,0.0
5368,74.0,22,270,4.0,0.0
5369,67.0,56,300,5.0,0.0
5370,72.0,68,510,4.0,0.0
5371,45.0,2,420,8.0,0.0
5372,57.0,2,420,7.0,0.0
5373,60.0,272,120,0.0,0.0
5374,69.0,72,420,5.0,0.0
5375,45.0,26,150,0.0,0.0
5376,60.0,86,300,6.0,0.0
5377,43.0,208,180,0.0,0.0
5378,43.0,4,420,8.0,0.0
5379,55.0,2,420,7.0,0.0
5380,58.0,96,420,6.0,0.0
5381,70.0,22,300,4.0,0.0
5382,58.0,44,150,0.0,0.0
5383,64.0,64,300,5.0,0.0
5384,69.0,44,510,4.0,0.0
5385,57.0,264,120,0.0,0.0
5386,41.0,0,420,8.0,0.0
5387,65.0,70,420,5.0,0.0
5388,53.0,0,420,7.0,0.0
5389,41.0,32,150,0.0,0.0
5390,57.0,94,300,6.0,0.0
5391,39.0,154,150,0.0,0.0
5392,39.0,0,420,8.0,0.0
5393,51.0,30,420,7.0,0.0
5394,55.0,110,300,6.0,0.0
5395,67.0,14,270,4.0,0.0
5396,55.0,8,180,0.0,0.0
5397,60.0,102,300,5.0,0.0
5398,57.0,60,210,6.0,0.0
5399,38.0,6,420,8.0,0.0
5400,65.0,14,150,4.0,0.0
5401,53.0,36,150,0.0,0.0
5402,50.0,4,420,7.0,0.0
5403,62.0,96,240,5.0,0.0
5404,58.0,20,420,6.0,0.0
5405,55.0,32,90,0.0,0.0
5406,57.0,62,90,0.0,0.0
5407,58.0,10,420,5.0,0.0
5408,65.0,28,150,4.0,0.0
5409,58.0,112,90,0.0,0.0
5410,77.0,32,150,4.0,0.0
5411,60.0,70,90,0.0,0.0
5412,38.0,18,420,8.0,0.0
5413,50.0,0,420,7.0,0.0
5414,50.0,88,540,6.0,0.0
5415,62.0,112,60,0.0,0.0
5416,77.0,40,150,4.0,0.0
5417,63.0,78,60,0.0,0.0
5418,70.0,238,420,5.0,0.0
5419,65.0,106,90,0.0,0.0
5420,55.0,4,420,7.0,0.0
5421,77.0,22,150,4.0,0.0
5422,65.0,6,180,0.0,0.0
5423,43.0,32,420,8.0,0.0
5424,55.0,56,570,6.0,0.0
5425,75.0,104,360,4.0,0.0
5426,63.0,10,330,0.0,0.0
5427,58.0,234,420,5.0,0.0
5428,74.0,22,150,4.0,0.0
5429,62.0,18,180,0.0,0.0
5430,51.0,4,420,7.0,0.0
5431,39.0,4,420,8.0,0.0
5432,67.0,40,420,6.0,0.0
5433,72.0,12,360,4.0,0.0
5434,60.0,102,360,0.0,0.0
5435,70.0,104,450,5.0,0.0
5436,74.0,0,120,4.0,0.0
5437,41.0,2,90,8.0,0.0
5438,58.0,4,90,0.0,0.0
5439,53.0,4,90,7.0,0.0
5440,65.0,96,90,6.0,0.0
5441,57.0,8,90,0.0,0.0
5442,74.0,96,120,4.0,0.0
5443,58.0,26,90,0.0,0.0
5444,70.0,2,90,5.0,0.0
5445,41.0,2,90,8.0,0.0
5446,65.0,0,90,6.0,0.0
5447,53.0,2,90,7.0,0.0
5448,60.0,120,90,0.0,0.0
5449,41.0,4,90,8.0,0.0
5450,58.0,14,90,0.0,0.0
5451,70.0,2,90,5.0,0.0
5452,74.0,82,120,4.0,0.0
5453,53.0,2,90,7.0,0.0
5454,65.0,8,90,6.0,0.0
5455,57.0,120,90,0.0,0.0
5456,41.0,4,90,8.0,0.0
5457,74.0,94,120,4.0,0.0
5458,58.0,22,90,0.0,0.0
5459,70.0,2,90,5.0,0.0
5460,53.0,4,90,7.0,0.0
5461,65.0,2,90,6.0,0.0
5462,60.0,140,90,0.0,0.0
5463,72.0,94,120,4.0,0.0
5464,62.0,70,210,0.0,0.0
5465,41.0,2,90,8.0,0.0
5466,70.0,0,90,5.0,0.0
5467,53.0,2,90,7.0,0.0
5468,65.0,2,90,6.0,0.0
5469,60.0,56,90,0.0,0.0
5470,41.0,2,90,8.0,0.0
5471,62.0,10,90,0.0,0.0
5472,53.0,4,90,7.0,0.0
5473,72.0,20,120,4.0,0.0
5474,70.0,8,90,5.0,0.0
5475,65.0,0,90,6.0,0.0
5476,60.0,50,90,0.0,0.0
5477,62.0,38,90,0.0,0.0
5478,60.0,38,90,0.0,0.0
5479,62.0,38,60,0.0,0.0
5480,60.0,42,60,0.0,0.0
5481,39.0,2,90,8.0,0.0
5482,72.0,28,120,4.0,0.0
5483,51.0,2,90,7.0,0.0
5484,69.0,4,90,5.0,0.0
5485,65.0,4,90,6.0,0.0
5486,62.0,0,90,0.0,0.0
5487,60.0,58,60,0.0,0.0
5488,62.0,36,90,0.0,0.0
5489,60.0,58,90,0.0,0.0
5490,62.0,50,90,0.0,0.0
5491,72.0,84,120,4.0,0.0
5492,60.0,4,120,0.0,0.0
5493,39.0,0,90,8.0,0.0
5494,51.0,2,90,7.0,0.0
5495,69.0,2,90,5.0,0.0
5496,65.0,2,90,6.0,0.0
5497,58.0,80,120,0.0,0.0
5498,60.0,48,150,0.0,0.0
5499,70.0,88,240,4.0,0.0
5500,38.0,0,210,8.0,0.0
5501,58.0,120,90,0.0,0.0
5502,50.0,2,210,7.0,0.0
5503,70.0,14,210,5.0,0.0
5504,65.0,0,210,6.0,0.0
5505,46.0,8,90,0.0,0.0
5506,50.0,120,90,0.0,0.0
5507,53.0,120,90,0.0,0.0
5508,58.0,128,90,0.0,0.0
5509,53.0,128,90,0.0,0.0
5510,62.0,104,90,0.0,0.0
5511,58.0,148,90,0.0,0.0
5512,77.0,134,150,4.0,0.0
5513,65.0,72,270,0.0,0.0
5514,74.0,38,90,5.0,0.0
5515,80.0,202,150,4.0,0.0
5516,77.0,34,90,5.0,0.0
5517,38.0,4,540,8.0,0.0
5518,58.0,2,510,4.0,0.0
5519,68.0,0,510,4.0,0.0
5520,58.0,40,120,0.0,0.0
5521,50.0,4,540,7.0,0.0
5522,58.0,32,960,6.0,0.0
5523,65.0,96,540,5.0,0.0
5524,56.0,80,90,0.0,0.0
5525,58.0,24,90,0.0,0.0
5526,56.0,88,90,0.0,0.0
5527,58.0,32,90,0.0,0.0
5528,56.0,88,90,0.0,0.0
5529,55.0,46,120,0.0,0.0
5530,56.0,36,120,0.0,0.0
5531,67.0,134,510,4.0,0.0
5532,55.0,112,180,0.0,0.0
5533,39.0,2,420,8.0,0.0
5534,51.0,22,420,7.0,0.0
5535,63.0,10,450,5.0,0.0
5536,57.0,48,150,0.0,0.0
5537,58.0,96,90,0.0,0.0
5538,57.0,24,90,0.0,0.0
5539,58.0,104,180,0.0,0.0
5540,59.0,40,150,0.0,0.0
5541,60.0,112,60,0.0,0.0
5542,59.0,232,60,0.0,0.0
5543,60.0,112,180,0.0,0.0
5544,72.0,150,510,4.0,0.0
5545,51.0,0,420,7.0,0.0
5546,39.0,2,420,8.0,0.0
5547,67.0,8,420,5.0,0.0
5548,63.0,18,420,6.0,0.0
5549,62.0,32,180,0.0,0.0
5550,63.0,100,90,0.0,0.0
5551,62.0,58,90,0.0,0.0
5552,63.0,120,180,0.0,0.0
5553,66.0,40,180,0.0,0.0
5554,67.0,112,90,0.0,0.0
5555,66.0,136,90,0.0,0.0
5556,51.0,4,90,7.0,0.0
5557,67.0,104,180,0.0,0.0
5558,72.0,58,120,4.0,0.0
5559,67.0,0,90,5.0,0.0
5560,39.0,4,90,8.0,0.0
5561,63.0,6,90,6.0,0.0
5562,65.0,32,150,0.0,0.0
5563,63.0,128,60,0.0,0.0
5564,62.0,142,90,0.0,0.0
5565,72.0,48,120,4.0,0.0
5566,39.0,6,90,8.0,0.0
5567,63.0,120,150,0.0,0.0
5568,67.0,0,90,5.0,0.0
5569,51.0,2,90,7.0,0.0
5570,63.0,2,90,6.0,0.0
5571,62.0,32,150,0.0,0.0
5572,60.0,128,60,0.0,0.0
5573,59.0,124,90,0.0,0.0
5574,60.0,22,90,0.0,0.0
5575,72.0,46,120,4.0,0.0
5576,51.0,2,90,7.0,0.0
5577,63.0,2,90,6.0,0.0
5578,39.0,0,90,8.0,0.0
5579,67.0,8,90,5.0,0.0
5580,62.0,132,40,0.0,0.0
5581,63.0,112,60,0.0,0.0
5582,62.0,136,40,0.0,0.0
5583,75.0,0,120,4.0,0.0
5584,60.0,40,60,0.0,0.0
5585,51.0,4,90,7.0,0.0
5586,39.0,0,90,8.0,0.0
5587,72.0,6,90,5.0,0.0
5588,67.0,78,90,6.0,0.0
5589,58.0,104,60,0.0,0.0
5590,57.0,144,60,0.0,0.0
5591,55.0,250,90,0.0,0.0
5592,77.0,2,3780,1.0,0.0
5593,53.0,4,210,7.0,0.0
5594,53.0,32,270,0.0,0.0
5595,74.0,4,3780,1.0,0.0
5596,74.0,42,240,4.0,0.0
5597,41.0,4,210,8.0,0.0
5598,70.0,2,3780,2.0,0.0
5599,62.0,162,3780,2.0,0.0
5600,70.0,2,210,5.0,0.0
5601,65.0,18,210,6.0,0.0
5602,55.0,136,60,0.0,0.0
5603,57.0,112,90,0.0,0.0
5604,58.0,136,90,0.0,0.0
5605,60.0,96,90,0.0,0.0
5606,62.0,128,60,0.0,0.0
5607,63.0,120,90,0.0,0.0
5608,65.0,120,90,0.0,0.0
5609,67.0,112,90,0.0,0.0
5610,64.0,128,60,0.0,0.0
5611,67.0,112,90,0.0,0.0
5612,65.0,120,60,0.0,0.0
5613,67.0,128,60,0.0,0.0
5614,64.0,112,90,0.0,0.0
5615,67.0,172,60,0.0,0.0
5616,65.0,228,120,0.0,0.0
5617,70.0,256,120,0.0,0.0
5618,65.0,228,120,0.0,0.0
5619,62.0,228,120,0.0,0.0
5620,58.0,268,90,0.0,0.0
5621,53.0,232,120,0.0,0.0
5622,50.0,224,120,0.0,0.0
5623,46.0,70,120,0.0,0.0
5624,41.0,228,840,0.0,0.0
5625,41.0,2,90,8.0,0.0
5626,65.0,0,90,6.0,0.0
5627,53.0,234,90,7.0,0.0
5628,74.0,234,120,4.0,0.0
5629,53.0,2,90,7.0,0.0
5630,70.0,2,90,5.0,0.0
5631,41.0,2,90,8.0,0.0
5632,65.0,2,90,6.0,0.0
5633,74.0,230,120,4.0,0.0
5634,41.0,2,90,8.0,0.0
5635,53.0,0,90,7.0,0.0
5636,70.0,4,90,5.0,0.0
5637,65.0,2,90,6.0,0.0
5638,74.0,4,120,4.0,0.0
5639,53.0,4,90,7.0,0.0
5640,65.0,2,90,6.0,0.0
5641,41.0,0,90,8.0,0.0
5642,70.0,2,90,5.0,0.0
5643,74.0,50,120,4.0,0.0
5644,41.0,6,90,8.0,0.0
5645,55.0,54,150,0.0,0.0
5646,53.0,2,90,7.0,0.0
5647,70.0,2,90,5.0,0.0
5648,65.0,0,90,6.0,0.0
5649,53.0,50,90,0.0,0.0
5650,55.0,54,90,0.0,0.0
5651,53.0,22,90,0.0,0.0
5652,53.0,2,90,7.0,0.0
5653,74.0,18,120,4.0,0.0
5654,41.0,6,90,8.0,0.0
5655,70.0,2,90,5.0,0.0
5656,65.0,2,90,6.0,0.0
5657,55.0,48,90,0.0,0.0
5658,53.0,52,90,0.0,0.0
5659,55.0,48,90,0.0,0.0
5660,53.0,64,90,0.0,0.0
5661,74.0,30,120,4.0,0.0
5662,65.0,2,90,6.0,0.0
5663,41.0,0,90,8.0,0.0
5664,53.0,0,90,7.0,0.0
5665,70.0,2,90,5.0,0.0
5666,55.0,2,90,0.0,0.0
5667,53.0,58,90,0.0,0.0
5668,55.0,54,90,0.0,0.0
5669,53.0,46,90,0.0,0.0
5670,55.0,46,90,0.0,0.0
5671,74.0,14,120,4.0,0.0
5672,53.0,2,90,7.0,0.0
5673,41.0,4,90,8.0,0.0
5674,65.0,0,90,6.0,0.0
5675,70.0,2,90,5.0,0.0
5676,53.0,60,90,0.0,0.0
5677,52.0,64,90,0.0,0.0
5678,53.0,96,90,0.0,0.0
5679,62.0,102,240,0.0,0.0
5680,72.0,110,120,4.0,0.0
5681,70.0,0,90,5.0,0.0
5682,29.0,2,90,8.0,0.0
5683,41.0,0,90,7.0,0.0
5684,53.0,8,90,6.0,0.0
5685,72.0,6,120,4.0,0.0
5686,70.0,10,90,5.0,0.0
5687,60.0,58,210,0.0,0.0
5688,72.0,56,120,4.0,0.0
5689,70.0,2,90,5.0,0.0
5690,29.0,2,90,8.0,0.0
5691,41.0,2,90,7.0,0.0
5692,53.0,4,90,6.0,0.0
5693,72.0,34,120,4.0,0.0
5694,70.0,4,90,5.0,0.0
5695,62.0,74,120,0.0,0.0
5696,60.0,2,150,0.0,0.0
5697,29.0,4,90,8.0,0.0
5698,72.0,64,120,4.0,0.0
5699,41.0,2,90,7.0,0.0
5700,70.0,2,90,5.0,0.0
5701,53.0,4,90,6.0,0.0
5702,62.0,32,90,0.0,0.0
5703,60.0,20,90,0.0,0.0
5704,72.0,40,120,4.0,0.0
5705,70.0,4,90,5.0,0.0
5706,62.0,34,90,0.0,0.0
5707,60.0,36,90,0.0,0.0
5708,72.0,18,120,4.0,0.0
5709,70.0,2,90,5.0,0.0
5710,41.0,0,90,7.0,0.0
5711,29.0,4,90,8.0,0.0
5712,53.0,2,90,6.0,0.0
5713,62.0,24,90,0.0,0.0
5714,60.0,66,90,0.0,0.0
5715,72.0,8,120,4.0,0.0
5716,70.0,4,90,5.0,0.0
5717,62.0,8,90,0.0,0.0
5718,60.0,58,90,0.0,0.0
5719,62.0,30,90,0.0,0.0
5720,72.0,0,120,4.0,0.0
5721,29.0,8,90,8.0,0.0
5722,41.0,2,90,7.0,0.0
5723,69.0,2,90,5.0,0.0
5724,53.0,38,90,6.0,0.0
5725,60.0,12,90,0.0,0.0
5726,62.0,20,90,0.0,0.0
5727,60.0,60,90,0.0,0.0
5728,72.0,10,120,4.0,0.0
5729,69.0,2,90,5.0,0.0
5730,62.0,24,90,0.0,0.0
5731,60.0,64,90,0.0,0.0
5732,72.0,12,120,4.0,0.0
5733,29.0,0,90,8.0,0.0
5734,41.0,4,90,7.0,0.0
5735,69.0,2,90,5.0,0.0
5736,53.0,4,90,6.0,0.0
5737,62.0,12,90,0.0,0.0
5738,60.0,56,90,0.0,0.0
5739,62.0,38,90,0.0,0.0
5740,72.0,36,120,4.0,0.0
5741,69.0,6,90,5.0,0.0
5742,60.0,6,90,0.0,0.0
5743,62.0,42,90,0.0,0.0
5744,60.0,34,90,0.0,0.0
5745,41.0,2,90,7.0,0.0
5746,72.0,16,120,4.0,0.0
5747,29.0,0,90,8.0,0.0
5748,69.0,4,90,5.0,0.0
5749,53.0,6,90,6.0,0.0
5750,62.0,32,90,0.0,0.0
5751,60.0,56,90,0.0,0.0
5752,72.0,96,120,4.0,0.0
5753,69.0,4,90,5.0,0.0
5754,62.0,12,90,0.0,0.0
5755,60.0,14,150,0.0,0.0
5756,72.0,0,120,4.0,0.0
5757,29.0,0,90,8.0,0.0
5758,41.0,4,90,7.0,0.0
5759,69.0,4,90,5.0,0.0
5760,53.0,82,90,6.0,0.0
5761,58.0,30,150,0.0,0.0
5762,72.0,428,120,4.0,0.0
5763,60.0,4,120,0.0,0.0
5764,69.0,2,90,5.0,0.0
5765,58.0,2,420,2.0,0.0
5766,70.0,10,480,4.0,0.0
5767,58.0,114,480,0.0,0.0
5768,46.0,0,420,7.0,0.0
5769,70.0,2,420,1.0,0.0
5770,34.0,6,420,8.0,0.0
5771,58.0,40,420,6.0,0.0
5772,82.0,118,120,4.0,0.0
5773,82.0,2,300,1.0,0.0
5774,74.0,2,300,1.0,0.0
5775,70.0,0,300,2.0,0.0
5776,62.0,42,300,2.0,0.0
5777,77.0,80,120,4.0,0.0
5778,74.0,76,120,4.0,0.0
5779,74.0,4,90,1.0,0.0
5780,70.0,0,90,2.0,0.0
5781,70.0,116,120,4.0,0.0
5782,62.0,6,90,2.0,0.0
5783,82.0,34,90,1.0,0.0
5784,77.0,120,120,4.0,0.0
5785,82.0,2,420,1.0,0.0
5786,74.0,2,420,1.0,0.0
5787,62.0,2,420,2.0,0.0
5788,70.0,46,420,2.0,0.0
5789,74.0,120,120,4.0,0.0
5790,70.0,66,120,4.0,0.0
5791,65.0,124,120,4.0,0.0
5792,82.0,2,420,1.0,0.0
5793,74.0,2,420,1.0,0.0
5794,74.0,118,120,4.0,0.0
5795,62.0,0,420,2.0,0.0
5796,70.0,54,420,2.0,0.0
5797,70.0,120,120,4.0,0.0
5798,65.0,64,120,4.0,0.0
5799,62.0,116,120,4.0,0.0
5800,70.0,124,120,4.0,0.0
5801,74.0,2,420,1.0,0.0
5802,82.0,0,420,1.0,0.0
5803,58.0,54,900,3.0,0.0
5804,70.0,4,420,2.0,0.0
5805,46.0,2,1080,8.0,0.0
5806,58.0,8,1080,7.0,0.0
5807,62.0,48,420,2.0,0.0
5808,70.0,48,1080,6.0,0.0
5809,65.0,122,120,4.0,0.0
5810,62.0,60,120,4.0,0.0
5811,58.0,120,120,4.0,0.0
5812,79.0,6,120,4.0,0.0
5813,63.0,120,120,5.0,0.0
5814,77.0,2,120,4.0,0.0
5815,62.0,112,120,5.0,0.0
5816,75.0,8,120,4.0,0.0
5817,60.0,60,120,5.0,0.0
5818,74.0,8,120,4.0,0.0
5819,58.0,118,120,5.0,0.0
5820,41.0,6,900,8.0,0.0
5821,53.0,0,900,3.0,0.0
5822,72.0,344,180,4.0,0.0
5823,53.0,2,900,7.0,0.0
5824,65.0,28,900,6.0,0.0
5825,57.0,0,120,5.0,0.0
5826,72.0,22,270,4.0,0.0
5827,57.0,226,300,5.0,0.0
5828,74.0,22,300,4.0,0.0
5829,58.0,106,300,5.0,0.0
5830,75.0,278,240,4.0,0.0
5831,60.0,20,210,5.0,0.0
5832,73.0,138,270,4.0,0.0
5833,34.0,2,420,8.0,0.0
5834,46.0,0,420,7.0,0.0
5835,46.0,4,420,3.0,0.0
5836,58.0,24,420,6.0,0.0
5837,57.0,10,270,5.0,0.0
5838,74.0,130,240,4.0,0.0
5839,58.0,18,210,5.0,0.0
5840,82.0,2,300,1.0,0.0
5841,74.0,2,300,1.0,0.0
5842,62.0,4,300,2.0,0.0
5843,82.0,116,120,4.0,0.0
5844,70.0,36,300,2.0,0.0
5845,77.0,76,120,4.0,0.0
5846,74.0,84,120,4.0,0.0
5847,74.0,2,90,1.0,0.0
5848,70.0,120,120,4.0,0.0
5849,82.0,2,90,1.0,0.0
5850,70.0,30,90,2.0,0.0
5851,62.0,4,90,2.0,0.0
5852,77.0,120,120,4.0,0.0
5853,70.0,52,420,2.0,0.0
5854,74.0,0,420,1.0,0.0
5855,82.0,0,420,1.0,0.0
5856,62.0,0,420,2.0,0.0
5857,74.0,122,120,4.0,0.0
5858,70.0,64,120,4.0,0.0
5859,65.0,124,120,4.0,0.0
5860,82.0,0,420,1.0,0.0
5861,74.0,2,420,1.0,0.0
5862,74.0,116,120,4.0,0.0
5863,62.0,4,420,2.0,0.0
5864,70.0,52,420,2.0,0.0
5865,70.0,118,120,4.0,0.0
5866,65.0,68,120,4.0,0.0
5867,62.0,120,120,4.0,0.0
5868,58.0,60,900,3.0,0.0
5869,74.0,2,420,1.0,0.0
5870,70.0,2,420,2.0,0.0
5871,46.0,2,1080,8.0,0.0
5872,82.0,0,420,1.0,0.0
5873,70.0,118,120,4.0,0.0
5874,58.0,6,1080,7.0,0.0
5875,62.0,4,420,2.0,0.0
5876,70.0,46,420,5.0,0.0
5877,70.0,220,1080,6.0,0.0
5878,65.0,116,120,4.0,0.0
5879,62.0,66,120,4.0,0.0
5880,58.0,126,120,4.0,0.0
5881,79.0,114,120,4.0,0.0
5882,77.0,122,120,4.0,0.0
5883,75.0,64,120,4.0,0.0
5884,74.0,112,120,4.0,0.0
5885,75.0,10,120,4.0,0.0
5886,53.0,2,6660,3.0,0.0
5887,41.0,4,6660,8.0,0.0
5888,53.0,2,6660,7.0,0.0
5889,65.0,46,6660,6.0,0.0
5890,75.0,248,120,4.0,0.0
5891,77.0,114,120,4.0,0.0
5892,75.0,126,120,4.0,0.0
5893,74.0,116,120,4.0,0.0
5894,72.0,120,120,4.0,0.0
5895,74.0,228,120,4.0,0.0
5896,74.0,254,90,4.0,0.0
5897,75.0,8,120,4.0,0.0
5898,67.0,108,120,5.0,0.0
5899,74.0,10,120,4.0,0.0
5900,65.0,110,120,5.0,0.0
5901,72.0,8,120,4.0,0.0
5902,63.0,116,120,5.0,0.0
5903,70.0,6,120,4.0,0.0
5904,62.0,106,120,5.0,0.0
5905,65.0,0,4740,2.0,0.0
5906,72.0,12,90,4.0,0.0
5907,63.0,226,120,5.0,0.0
5908,53.0,0,4740,2.0,0.0
5909,72.0,8,90,4.0,0.0
5910,63.0,238,90,5.0,0.0
5911,74.0,8,120,4.0,0.0
5912,65.0,116,120,5.0,0.0
5913,72.0,4,120,4.0,0.0
5914,63.0,112,120,5.0,0.0
5915,70.0,10,120,4.0,0.0
5916,62.0,116,120,5.0,0.0
5917,69.0,6,120,4.0,0.0
5918,60.0,114,120,5.0,0.0
5919,77.0,50,1020,1.0,0.0
5920,70.0,4,120,4.0,0.0
5921,62.0,222,120,5.0,0.0
5922,65.0,8,90,4.0,0.0
5923,62.0,246,90,5.0,0.0
5924,67.0,6,120,4.0,0.0
5925,63.0,112,120,5.0,0.0
5926,65.0,2,120,4.0,0.0
5927,62.0,120,120,5.0,0.0
5928,63.0,2,120,4.0,0.0
5929,60.0,116,120,5.0,0.0
5930,62.0,4,120,4.0,0.0
5931,58.0,62,120,5.0,0.0
5932,63.0,6,120,4.0,0.0
5933,75.0,52,900,1.0,0.0
5934,60.0,228,120,5.0,0.0
5935,63.0,2,90,4.0,0.0
5936,60.0,244,90,5.0,0.0
5937,65.0,6,120,4.0,0.0
5938,62.0,118,120,5.0,0.0
5939,63.0,8,120,4.0,0.0
5940,60.0,110,120,5.0,0.0
5941,62.0,8,120,4.0,0.0
5942,58.0,60,120,5.0,0.0
5943,60.0,8,120,4.0,0.0
5944,57.0,112,120,5.0,0.0
5945,62.0,10,120,4.0,0.0
5946,77.0,0,1020,1.0,0.0
5947,74.0,50,1020,1.0,0.0
5948,58.0,220,120,5.0,0.0
5949,62.0,4,90,4.0,0.0
5950,58.0,248,90,5.0,0.0
5951,63.0,4,120,4.0,0.0
5952,67.0,118,120,5.0,0.0
5953,65.0,0,120,5.0,0.0
5954,62.0,120,120,4.0,0.0
5955,60.0,6,120,4.0,0.0
5956,63.0,108,120,5.0,0.0
5957,58.0,10,120,4.0,0.0
5958,62.0,60,120,5.0,0.0
5959,60.0,6,120,4.0,0.0
5960,75.0,0,900,1.0,0.0
5961,63.0,238,120,5.0,0.0
5962,72.0,2,900,1.0,0.0
5963,60.0,4,120,4.0,0.0
5964,63.0,234,120,5.0,0.0
5965,62.0,4,120,4.0,0.0
5966,65.0,114,120,5.0,0.0
5967,60.0,6,120,4.0,0.0
5968,63.0,120,120,5.0,0.0
5969,58.0,2,120,4.0,0.0
5970,62.0,60,120,5.0,0.0
5971,57.0,4,120,4.0,0.0
5972,60.0,118,120,5.0,0.0
5973,55.0,2,420,7.0,0.0
5974,70.0,2,1860,2.0,0.0
5975,58.0,2,120,4.0,0.0
5976,43.0,2,420,8.0,0.0
5977,74.0,0,420,1.0,0.0
5978,70.0,4,420,1.0,0.0
5979,58.0,112,120,5.0,0.0
5980,58.0,0,1860,2.0,0.0
5981,67.0,36,420,6.0,0.0
5982,82.0,8,120,4.0,0.0
5983,74.0,114,120,5.0,0.0
5984,82.0,10,120,4.0,0.0
5985,74.0,58,120,5.0,0.0
5986,82.0,2,90,4.0,0.0
5987,74.0,116,90,5.0,0.0
5988,74.0,4,900,1.0,0.0
5989,82.0,6,90,4.0,0.0
5990,46.0,4,420,8.0,0.0
5991,82.0,2,900,1.0,0.0
5992,74.0,116,90,5.0,0.0
5993,70.0,0,420,6.0,0.0
5994,58.0,34,420,7.0,0.0
5995,82.0,2,90,4.0,0.0
5996,74.0,114,90,5.0,0.0
5997,82.0,12,90,4.0,0.0
5998,74.0,70,90,5.0,0.0
5999,82.0,6,90,4.0,0.0
6000,74.0,118,90,5.0,0.0
6001,82.0,6,90,4.0,0.0
6002,38.0,2,420,8.0,0.0
6003,74.0,114,90,5.0,0.0
6004,62.0,0,420,6.0,0.0
6005,50.0,34,420,7.0,0.0
6006,82.0,4,90,4.0,0.0
6007,74.0,112,90,5.0,0.0
6008,82.0,10,90,4.0,0.0
6009,74.0,68,90,5.0,0.0
6010,82.0,8,90,4.0,0.0
6011,74.0,118,90,5.0,0.0
6012,74.0,4,420,1.0,0.0
6013,82.0,6,90,4.0,0.0
6014,82.0,0,420,1.0,0.0
6015,40.0,2,420,8.0,0.0
6016,64.0,11,420,6.0,0.0
6017,52.0,0,420,7.0,0.0
6018,74.0,108,90,5.0,0.0
6019,58.0,18,360,0.0,0.0
6020,82.0,12,90,4.0,0.0
6021,74.0,112,90,5.0,0.0
6022,82.0,6,90,4.0,0.0
6023,74.0,50,90,5.0,0.0
6024,82.0,2,90,4.0,0.0
6025,74.0,822,90,5.0,0.0
6026,82.0,2,900,4.0,0.0
6027,58.0,90,810,0.0,0.0
6028,74.0,0,900,1.0,0.0
6029,41.0,2,900,8.0,0.0
6030,82.0,0,900,1.0,0.0
6031,53.0,2,900,7.0,0.0
6032,65.0,2,900,6.0,0.0
6033,65.0,2,900,2.0,0.0
6034,74.0,327,900,5.0,0.0
6035,53.0,152,300,0.0,0.0
6036,50.0,436,90,0.0,0.0
6037,58.0,960,420,0.0,0.0
6038,58.0,372,900,0.0,0.0
6039,58.0,152,300,0.0,0.0
6040,53.0,436,90,0.0,0.0
6041,62.0,372,420,0.0,0.0
6042,62.0,152,300,0.0,0.0
6043,58.0,436,90,0.0,0.0
6044,65.0,372,420,0.0,0.0
6045,65.0,152,300,0.0,0.0
6046,62.0,1080,90,0.0,0.0
6047,70.0,120,1050,0.0,0.0
6048,69.0,120,90,0.0,0.0
6049,67.0,120,90,0.0,0.0
6050,65.0,120,90,0.0,0.0
6051,63.0,120,90,0.0,0.0
6052,62.0,120,90,0.0,0.0
6053,60.0,120,90,0.0,0.0
6054,58.0,224,90,0.0,0.0
6055,58.0,240,210,0.0,0.0
6056,57.0,452,210,0.0,0.0
6057,57.0,852,420,0.0,0.0
6058,41.0,152,300,0.0,0.0
6059,36.0,436,90,0.0,0.0
6060,45.0,960,420,0.0,0.0
6061,45.0,372,900,0.0,0.0
6062,45.0,152,300,0.0,0.0
6063,41.0,436,90,0.0,0.0
6064,48.0,372,420,0.0,0.0
6065,48.0,152,300,0.0,0.0
6066,45.0,436,90,0.0,0.0
6067,53.0,372,420,0.0,0.0
6068,53.0,152,300,0.0,0.0
6069,48.0,1080,90,0.0,0.0
6070,57.0,120,1050,0.0,0.0
6071,55.0,120,90,0.0,0.0
6072,53.0,120,90,0.0,0.0
6073,51.0,120,90,0.0,0.0
6074,50.0,120,90,0.0,0.0
6075,48.0,120,90,0.0,0.0
6076,46.0,120,90,0.0,0.0
6077,45.0,224,90,0.0,0.0
6078,48.0,240,210,0.0,0.0
6079,46.0,1158,210,0.0,0.0
6080,46.0,1482,1140,0.0,0.0
6081,70.0,240,1170,0.0,0.0
6082,68.0,240,210,0.0,0.0
6083,67.0,144,210,0.0,0.0
6084,64.0,60,60,0.0,0.0
6085,65.0,36,60,0.0,0.0
6086,67.0,216,60,0.0,0.0
6087,65.0,240,210,0.0,0.0
6088,64.0,932,210,0.0,0.0
6089,64.0,112,900,0.0,0.0
6090,65.0,60,60,0.0,0.0
6091,64.0,60,60,0.0,0.0
6092,65.0,60,60,0.0,0.0
6093,64.0,112,60,0.0,0.0
6094,62.0,120,90,0.0,0.0
6095,64.0,224,90,0.0,0.0
6096,65.0,240,210,0.0,0.0
6097,60.0,720,210,0.0,0.0
6098,68.0,240,690,0.0,0.0
6099,67.0,240,210,0.0,0.0
6100,65.0,144,210,0.0,0.0
6101,62.0,60,60,0.0,0.0
6102,63.0,36,60,0.0,0.0
6103,65.0,216,60,0.0,0.0
6104,63.0,240,210,0.0,0.0
6105,62.0,678,210,0.0,0.0
6106,62.0,366,660,0.0,0.0
6107,63.0,60,60,0.0,0.0
6108,62.0,60,60,0.0,0.0
6109,63.0,60,60,0.0,0.0
6110,62.0,112,60,0.0,0.0
6111,60.0,120,90,0.0,0.0
6112,62.0,120,90,0.0,0.0
6113,63.0,120,90,0.0,0.0
6114,46.0,120,90,0.0,0.0
6115,48.0,120,90,0.0,0.0
6116,46.0,120,90,0.0,0.0
6117,51.0,120,90,0.0,0.0
6118,53.0,120,90,0.0,0.0
6119,55.0,120,90,0.0,0.0
6120,51.0,120,90,0.0,0.0
6121,53.0,120,90,0.0,0.0
6122,46.0,120,90,0.0,0.0
6123,48.0,120,90,0.0,0.0
6124,46.0,120,90,0.0,0.0
6125,53.0,120,90,0.0,0.0
6126,55.0,120,90,0.0,0.0
6127,56.0,120,90,0.0,0.0
6128,53.0,120,90,0.0,0.0
6129,55.0,120,90,0.0,0.0
6130,51.0,120,90,0.0,0.0
6131,53.0,120,90,0.0,0.0
6132,51.0,120,90,0.0,0.0
6133,55.0,120,90,0.0,0.0
6134,56.0,120,90,0.0,0.0
6135,58.0,120,90,0.0,0.0
6136,55.0,120,90,0.0,0.0
6137,56.0,120,90,0.0,0.0
6138,50.0,120,90,0.0,0.0
6139,51.0,120,90,0.0,0.0
6140,50.0,120,90,0.0,0.0
6141,58.0,120,90,0.0,0.0
6142,60.0,120,90,0.0,0.0
6143,62.0,120,90,0.0,0.0
6144,58.0,454,90,0.0,0.0
6145,63.0,266,450,0.0,0.0
6146,39.0,120,90,0.0,0.0
6147,43.0,120,90,0.0,0.0
6148,46.0,120,90,0.0,0.0
6149,51.0,120,90,0.0,0.0
6150,43.0,120,90,0.0,0.0
6151,46.0,120,90,0.0,0.0
6152,51.0,120,90,0.0,0.0
6153,55.0,120,90,0.0,0.0
6154,46.0,120,90,0.0,0.0
6155,51.0,120,90,0.0,0.0
6156,55.0,120,90,0.0,0.0
6157,58.0,120,90,0.0,0.0
6158,51.0,120,90,0.0,0.0
6159,55.0,120,90,0.0,0.0
6160,58.0,120,90,0.0,0.0
6161,63.0,120,90,0.0,0.0
6162,62.0,120,90,0.0,0.0
6163,60.0,120,90,0.0,0.0
6164,58.0,476,90,0.0,0.0
6165,56.0,244,450,0.0,0.0
6166,44.0,120,90,0.0,0.0
6167,48.0,120,90,0.0,0.0
6168,51.0,120,90,0.0,0.0
6169,56.0,120,90,0.0,0.0
6170,48.0,120,90,0.0,0.0
6171,51.0,120,90,0.0,0.0
6172,56.0,120,90,0.0,0.0
6173,60.0,120,90,0.0,0.0
6174,51.0,120,90,0.0,0.0
6175,56.0,120,90,0.0,0.0
6176,60.0,120,90,0.0,0.0
6177,63.0,120,90,0.0,0.0
6178,56.0,120,90,0.0,0.0
6179,60.0,120,90,0.0,0.0
6180,63.0,120,90,0.0,0.0
6181,68.0,120,90,0.0,0.0
6182,67.0,120,90,0.0,0.0
6183,65.0,120,90,0.0,0.0
6184,63.0,492,90,0.0,0.0
6185,62.0,228,480,0.0,0.0
6186,46.0,120,90,0.0,0.0
6187,50.0,120,90,0.0,0.0
6188,53.0,120,90,0.0,0.0
6189,58.0,120,90,0.0,0.0
6190,50.0,120,90,0.0,0.0
6191,53.0,120,90,0.0,0.0
6192,58.0,120,90,0.0,0.0
6193,62.0,120,90,0.0,0.0
6194,53.0,120,90,0.0,0.0
6195,58.0,120,90,0.0,0.0
6196,62.0,120,90,0.0,0.0
6197,65.0,120,90,0.0,0.0
6198,58.0,120,90,0.0,0.0
6199,62.0,120,90,0.0,0.0
6200,65.0,600,90,0.0,0.0
6201,68.0,120,570,0.0,0.0
6202,70.0,120,90,0.0,0.0
6203,72.0,120,90,0.0,0.0
6204,70.0,120,90,0.0,0.0
6205,68.0,120,90,0.0,0.0
6206,67.0,120,90,0.0,0.0
6207,65.0,120,90,0.0,0.0
6208,64.0,120,90,0.0,0.0
6209,65.0,120,90,0.0,0.0
6210,67.0,120,90,0.0,0.0
6211,68.0,120,90,0.0,0.0
6212,67.0,120,90,0.0,0.0
6213,65.0,120,90,0.0,0.0
6214,63.0,120,90,0.0,0.0
6215,62.0,120,90,0.0,0.0
6216,60.0,120,90,0.0,0.0
6217,58.0,120,90,0.0,0.0
6218,59.0,120,90,0.0,0.0
6219,60.0,120,90,0.0,0.0
6220,58.0,120,90,0.0,0.0
6221,56.0,120,90,0.0,0.0
6222,55.0,120,90,0.0,0.0
6223,53.0,120,90,0.0,0.0
6224,51.0,500,90,0.0,0.0
6225,50.0,472,480,0.0,0.0
6226,34.0,228,480,0.0,0.0
6227,37.0,120,90,0.0,0.0
6228,38.0,120,90,0.0,0.0
6229,37.0,120,90,0.0,0.0
6230,38.0,120,90,0.0,0.0
6231,40.0,120,90,0.0,0.0
6232,41.0,120,90,0.0,0.0
6233,40.0,120,90,0.0,0.0
6234,41.0,120,90,0.0,0.0
6235,45.0,120,90,0.0,0.0
6236,46.0,120,90,0.0,0.0
6237,45.0,120,90,0.0,0.0
6238,46.0,120,90,0.0,0.0
6239,49.0,120,90,0.0,0.0
6240,50.0,120,90,0.0,0.0
6241,49.0,120,90,0.0,0.0
6242,50.0,120,90,0.0,0.0
6243,52.0,120,90,0.0,0.0
6244,53.0,120,90,0.0,0.0
6245,52.0,120,90,0.0,0.0
6246,53.0,120,90,0.0,0.0
6247,57.0,120,90,0.0,0.0
6248,58.0,120,90,0.0,0.0
6249,57.0,120,90,0.0,0.0
6250,58.0,120,90,0.0,0.0
6251,61.0,120,90,0.0,0.0
6252,62.0,120,90,0.0,0.0
6253,61.0,120,90,0.0,0.0
6254,62.0,120,90,0.0,0.0
6255,64.0,120,90,0.0,0.0
6256,65.0,120,90,0.0,0.0
6257,64.0,120,90,0.0,0.0
6258,65.0,120,90,0.0,0.0
6259,64.0,120,90,0.0,0.0
6260,65.0,120,90,0.0,0.0
6261,64.0,120,90,0.0,0.0
6262,65.0,120,90,0.0,0.0
6263,66.0,120,90,0.0,0.0
6264,67.0,120,90,0.0,0.0
6265,69.0,1182,90,0.0,0.0
6266,70.0,471,1170,0.0,0.0
6267,62.0,90,150,0.0,0.0
6268,60.0,55,90,0.0,0.0
6269,62.0,35,60,0.0,0.0
6270,60.0,35,40,0.0,0.0
6271,62.0,40,40,0.0,0.0
6272,60.0,35,40,0.0,0.0
6273,62.0,40,40,0.0,0.0
6274,60.0,35,40,0.0,0.0
6275,62.0,35,40,0.0,0.0
6276,60.0,35,40,0.0,0.0
6277,62.0,35,40,0.0,0.0
6278,60.0,35,40,0.0,0.0
6279,62.0,35,40,0.0,0.0
6280,60.0,236,40,0.0,0.0
6281,58.0,148,210,0.0,0.0
6282,62.0,2,1860,2.0,0.0
6283,77.0,0,3780,1.0,0.0
6284,74.0,2,1860,1.0,0.0
6285,70.0,42,1860,2.0,0.0
6286,34.0,3,450,8.0,0.0
6287,46.0,13,450,7.0,0.0
6288,70.0,2,120,4.0,0.0
6289,62.0,70,120,5.0,0.0
6290,58.0,70,510,0.0,0.0
6291,58.0,42,180,6.0,0.0
6292,65.0,126,120,4.0,0.0
6293,65.0,76,120,4.0,0.0
6294,62.0,26,180,6.0,0.0
6295,65.0,46,120,4.0,0.0
6296,65.0,80,120,4.0,0.0
6297,65.0,40,180,6.0,0.0
6298,65.0,126,120,4.0,0.0
6299,50.0,1,240,8.0,0.0
6300,62.0,7,240,7.0,0.0
6301,65.0,74,120,4.0,0.0
6302,70.0,34,180,6.0,0.0
6303,65.0,120,120,4.0,0.0
6304,58.0,1,240,7.0,0.0
6305,46.0,6,240,8.0,0.0
6306,70.0,6,120,4.0,0.0
6307,62.0,105,120,5.0,0.0
6308,74.0,120,450,6.0,0.0
6309,65.0,122,120,4.0,0.0
6310,41.0,11,240,8.0,0.0
6311,65.0,106,120,4.0,0.0
6312,53.0,1,240,7.0,0.0
6313,65.0,4,120,4.0,0.0
6314,38.0,11,240,8.0,0.0
6315,74.0,4,120,4.0,0.0
6316,50.0,7,240,7.0,0.0
6317,58.0,100,120,5.0,0.0
6318,65.0,118,120,4.0,0.0
6319,34.0,5,240,8.0,0.0
6320,46.0,9,240,7.0,0.0
6321,65.0,58,120,4.0,0.0
6322,58.0,118,240,6.0,0.0
6323,65.0,4,120,4.0,0.0
6324,45.0,20,420,3.0,0.0
6325,72.0,2,1860,2.0,0.0
6326,33.0,1,450,8.0,0.0
6327,75.0,2,1860,1.0,0.0
6328,45.0,13,450,7.0,0.0
6329,65.0,28,1860,2.0,0.0
6330,72.0,4,120,4.0,0.0
6331,63.0,76,120,5.0,0.0
6332,60.0,42,180,6.0,0.0
6333,65.0,118,120,4.0,0.0
6334,65.0,56,120,4.0,0.0
6335,65.0,26,180,6.0,0.0
6336,65.0,126,120,4.0,0.0
6337,65.0,78,120,4.0,0.0
6338,69.0,42,180,6.0,0.0
6339,65.0,118,120,4.0,0.0
6340,48.0,11,240,8.0,0.0
6341,60.0,14,210,3.0,0.0
6342,65.0,78,120,4.0,0.0
6343,60.0,5,240,7.0,0.0
6344,72.0,12,180,6.0,0.0
6345,65.0,122,120,4.0,0.0
6346,45.0,5,240,8.0,0.0
6347,57.0,16,210,3.0,0.0
6348,57.0,11,240,7.0,0.0
6349,72.0,2,120,4.0,0.0
6350,60.0,84,120,5.0,0.0
6351,75.0,2,450,6.0,0.0
6352,65.0,122,120,4.0,0.0
6353,41.0,7,240,8.0,0.0
6354,53.0,16,210,3.0,0.0
6355,53.0,1,240,7.0,0.0
6356,65.0,88,15,4.0,0.0
6357,48.0,20,210,3.0,0.0
6358,36.0,7,240,8.0,0.0
6359,75.0,12,120,4.0,0.0
6360,48.0,7,240,7.0,0.0
6361,57.0,76,120,5.0,0.0
6362,65.0,122,120,4.0,0.0
6363,33.0,5,240,8.0,0.0
6364,45.0,18,210,3.0,0.0
6365,45.0,5,240,7.0,0.0
6366,65.0,58,120,4.0,0.0
6367,60.0,166,240,6.0,0.0
6368,65.0,6,120,4.0,0.0
6369,46.0,2,210,3.0,0.0
6370,74.0,136,270,1.0,0.0
6371,70.0,6,1860,2.0,0.0
6372,77.0,22,210,1.0,0.0
6373,34.0,3,240,8.0,0.0
6374,46.0,35,240,7.0,0.0
6375,58.0,20,1860,2.0,0.0
6376,70.0,0,720,4.0,0.0
6377,77.0,2,720,4.0,0.0
6378,62.0,38,720,4.0,0.0
6379,58.0,34,150,6.0,0.0
6380,77.0,14,480,1.0,0.0
6381,46.0,4,210,3.0,0.0
6382,34.0,3,210,8.0,0.0
6383,46.0,183,210,7.0,0.0
6384,58.0,42,150,6.0,0.0
6385,50.0,4,210,3.0,0.0
6386,38.0,1,210,8.0,0.0
6387,50.0,27,210,7.0,0.0
6388,62.0,52,150,6.0,0.0
6389,81.0,54,60,1.0,0.0
6390,39.0,5,210,8.0,0.0
6391,51.0,0,210,3.0,0.0
6392,81.0,4,90,4.0,0.0
6393,51.0,9,210,7.0,0.0
6394,63.0,10,150,6.0,0.0
6395,79.0,44,60,1.0,0.0
6396,79.0,6,90,4.0,0.0
6397,81.0,40,60,1.0,0.0
6398,81.0,4,90,4.0,0.0
6399,79.0,54,60,1.0,0.0
6400,79.0,128,90,4.0,0.0
6401,77.0,8,660,1.0,0.0
6402,50.0,2,210,3.0,0.0
6403,38.0,3,210,8.0,0.0
6404,50.0,131,210,7.0,0.0
6405,77.0,24,660,4.0,0.0
6406,62.0,34,150,6.0,0.0
6407,46.0,5,90,3.0,0.0
6408,34.0,0,90,8.0,0.0
6409,46.0,15,90,7.0,0.0
6410,58.0,102,90,6.0,0.0
6411,48.0,4,90,3.0,0.0
6412,36.0,1,90,8.0,0.0
6413,48.0,15,90,7.0,0.0
6414,60.0,174,90,6.0,0.0
6415,50.0,2,210,3.0,0.0
6416,38.0,1,210,8.0,0.0
6417,50.0,13,210,7.0,0.0
6418,62.0,194,210,6.0,0.0
6419,55.0,4,210,3.0,0.0
6420,82.0,0,210,1.0,0.0
6421,43.0,4,210,8.0,0.0
6422,82.0,1,210,4.0,0.0
6423,55.0,9,210,7.0,0.0
6424,70.0,4,210,5.0,0.0
6425,67.0,220,210,6.0,0.0
6426,81.0,6,270,1.0,0.0
6427,53.0,64,210,3.0,0.0
6428,58.0,6,1860,2.0,0.0
6429,41.0,1,270,8.0,0.0
6430,53.0,1,270,7.0,0.0
6431,81.0,2,270,4.0,0.0
6432,70.0,22,1860,2.0,0.0
6433,69.0,6,270,5.0,0.0
6434,65.0,160,270,6.0,0.0
6435,43.0,3,270,8.0,0.0
6436,82.0,6,270,1.0,0.0
6437,55.0,62,210,3.0,0.0
6438,55.0,3,270,7.0,0.0
6439,82.0,2,270,4.0,0.0
6440,70.0,2,270,5.0,0.0
6441,67.0,166,270,6.0,0.0
6442,81.0,1,270,1.0,0.0
6443,41.0,4,270,8.0,0.0
6444,53.0,62,210,3.0,0.0
6445,53.0,1,270,7.0,0.0
6446,81.0,4,270,4.0,0.0
6447,69.0,0,270,5.0,0.0
6448,65.0,162,270,6.0,0.0
6449,51.0,66,210,3.0,0.0
6450,79.0,4,270,1.0,0.0
6451,39.0,1,270,8.0,0.0
6452,51.0,1,270,7.0,0.0
6453,79.0,6,270,4.0,0.0
6454,67.0,4,270,5.0,0.0
6455,63.0,160,270,6.0,0.0
6456,77.0,4,270,1.0,0.0
6457,50.0,66,210,3.0,0.0
6458,38.0,1,270,8.0,0.0
6459,77.0,0,270,4.0,0.0
6460,50.0,1,270,7.0,0.0
6461,65.0,8,270,5.0,0.0
6462,62.0,160,270,6.0,0.0
6463,79.0,4,270,1.0,0.0
6464,39.0,5,270,8.0,0.0
6465,51.0,62,210,3.0,0.0
6466,51.0,1,270,7.0,0.0
6467,79.0,4,270,4.0,0.0
6468,67.0,2,270,5.0,0.0
6469,63.0,160,270,6.0,0.0
6470,38.0,5,270,8.0,0.0
6471,50.0,62,210,3.0,0.0
6472,77.0,2,270,1.0,0.0
6473,50.0,7,270,7.0,0.0
6474,77.0,0,270,4.0,0.0
6475,65.0,2,270,5.0,0.0
6476,62.0,136,270,6.0,0.0
6477,36.0,2,210,8.0,0.0
6478,48.0,1,210,3.0,0.0
6479,48.0,1,210,7.0,0.0
6480,75.0,6,210,1.0,0.0
6481,75.0,2,210,4.0,0.0
6482,63.0,8,210,5.0,0.0
6483,60.0,222,210,6.0,0.0
6484,70.0,4,1860,2.0,0.0
6485,74.0,2,270,1.0,0.0
6486,46.0,62,210,3.0,0.0
6487,34.0,3,270,8.0,0.0
6488,58.0,24,1860,2.0,0.0
6489,46.0,1,270,7.0,0.0
6490,74.0,4,270,4.0,0.0
6491,62.0,8,270,5.0,0.0
6492,58.0,160,270,6.0,0.0
6493,79.0,0,270,1.0,0.0
6494,46.0,5,270,8.0,0.0
6495,58.0,60,210,3.0,0.0
6496,58.0,3,270,7.0,0.0
6497,79.0,2,270,4.0,0.0
6498,67.0,10,270,5.0,0.0
6499,70.0,156,270,6.0,0.0
6500,77.0,6,270,1.0,0.0
6501,57.0,62,210,3.0,0.0
6502,45.0,1,270,8.0,0.0
6503,57.0,5,270,7.0,0.0
6504,77.0,2,270,4.0,0.0
6505,65.0,4,270,5.0,0.0
6506,69.0,162,270,6.0,0.0
6507,55.0,64,210,3.0,0.0
6508,43.0,2,270,8.0,0.0
6509,75.0,3,270,4.0,0.0
6510,75.0,0,270,1.0,0.0
6511,55.0,9,270,7.0,0.0
6512,63.0,0,270,5.0,0.0
6513,67.0,162,270,6.0,0.0
6514,74.0,0,270,1.0,0.0
6515,41.0,5,270,8.0,0.0
6516,53.0,60,210,3.0,0.0
6517,53.0,5,270,7.0,0.0
6518,74.0,6,270,4.0,0.0
6519,62.0,6,270,5.0,0.0
6520,65.0,158,270,6.0,0.0
6521,43.0,2,270,8.0,0.0
6522,75.0,7,270,1.0,0.0
6523,55.0,60,210,3.0,0.0
6524,55.0,1,270,7.0,0.0
6525,75.0,6,270,4.0,0.0
6526,67.0,162,270,6.0,0.0
6527,63.0,0,270,5.0,0.0
6528,53.0,64,210,3.0,0.0
6529,74.0,2,270,1.0,0.0
6530,41.0,6,270,8.0,0.0
6531,74.0,1,270,4.0,0.0
6532,53.0,1,270,7.0,0.0
6533,62.0,10,270,5.0,0.0
6534,65.0,130,270,6.0,0.0
6535,40.0,2,210,8.0,0.0
6536,72.0,86,270,1.0,0.0
6537,52.0,3,210,3.0,0.0
6538,52.0,3,210,7.0,0.0
6539,72.0,4,210,4.0,0.0
6540,60.0,6,210,5.0,0.0
6541,67.0,46,210,6.0,0.0
6542,62.0,2,420,2.0,0.0
6543,53.0,0,420,3.0,0.0
6544,70.0,2,420,2.0,0.0
6545,53.0,1,450,7.0,0.0
6546,70.0,41,420,1.0,0.0
6547,41.0,10,450,8.0,0.0
6548,70.0,10,120,4.0,0.0
6549,62.0,126,450,6.0,0.0
6550,58.0,234,120,5.0,0.0
6551,74.0,8,120,4.0,0.0
6552,70.0,50,120,5.0,0.0
6553,74.0,4,120,4.0,0.0
6554,70.0,234,120,5.0,0.0
6555,74.0,8,120,4.0,0.0
6556,70.0,236,120,5.0,0.0
6557,74.0,2,120,4.0,0.0
6558,70.0,236,120,5.0,0.0
6559,74.0,8,120,4.0,0.0
6560,70.0,228,120,5.0,0.0
6561,74.0,10,120,4.0,0.0
6562,70.0,232,120,5.0,0.0
6563,74.0,4,120,4.0,0.0
6564,70.0,444,120,5.0,0.0
6565,74.0,4,900,1.0,0.0
6566,77.0,28,900,1.0,0.0
6567,74.0,6,720,4.0,0.0
6568,70.0,68,720,5.0,0.0
6569,41.0,5,120,8.0,0.0
6570,53.0,13,120,7.0,0.0
6571,53.0,4,90,3.0,0.0
6572,65.0,20,90,2.0,0.0
6573,65.0,198,120,6.0,0.0
6574,53.0,14,90,3.0,0.0
6575,41.0,3,120,8.0,0.0
6576,65.0,14,90,2.0,0.0
6577,53.0,15,120,7.0,0.0
6578,65.0,118,120,6.0,0.0
6579,41.0,3,120,8.0,0.0
6580,65.0,22,90,2.0,0.0
6581,53.0,13,120,7.0,0.0
6582,75.0,8,150,4.0,0.0
6583,53.0,6,90,3.0,0.0
6584,72.0,4,150,5.0,0.0
6585,65.0,38,120,6.0,0.0
6586,77.0,10,90,4.0,0.0
6587,74.0,102,90,5.0,0.0
6588,41.0,9,120,8.0,0.0
6589,65.0,24,90,2.0,0.0
6590,77.0,2,150,1.0,0.0
6591,53.0,4,90,3.0,0.0
6592,74.0,12,150,1.0,0.0
6593,77.0,8,150,4.0,0.0
6594,53.0,13,120,7.0,0.0
6595,74.0,168,150,5.0,0.0
6596,65.0,6,120,6.0,0.0
6597,72.0,0,360,1.0,0.0
6598,75.0,4,360,1.0,0.0
6599,75.0,8,330,4.0,0.0
6600,72.0,88,330,5.0,0.0
6601,41.0,3,120,8.0,0.0
6602,53.0,8,90,3.0,0.0
6603,53.0,15,120,7.0,0.0
6604,65.0,16,90,2.0,0.0
6605,65.0,94,120,6.0,0.0
6606,41.0,9,120,8.0,0.0
6607,65.0,22,90,2.0,0.0
6608,74.0,2,150,1.0,0.0
6609,53.0,6,90,3.0,0.0
6610,74.0,10,150,4.0,0.0
6611,70.0,10,150,1.0,0.0
6612,53.0,7,120,7.0,0.0
6613,70.0,162,150,5.0,0.0
6614,65.0,10,120,6.0,0.0
6615,69.0,2,360,1.0,0.0
6616,72.0,0,360,1.0,0.0
6617,72.0,8,330,4.0,0.0
6618,69.0,120,330,5.0,0.0
6619,41.0,9,120,8.0,0.0
6620,65.0,24,90,2.0,0.0
6621,53.0,4,90,3.0,0.0
6622,53.0,11,120,7.0,0.0
6623,65.0,96,120,6.0,0.0
6624,70.0,4,420,1.0,0.0
6625,34.0,7,240,8.0,0.0
6626,46.0,18,210,3.0,0.0
6627,70.0,6,120,4.0,0.0
6628,58.0,40,420,2.0,0.0
6629,46.0,5,240,7.0,0.0
6630,70.0,88,120,5.0,0.0
6631,58.0,102,240,6.0,0.0
6632,58.0,2,120,4.0,0.0
6633,48.0,11,90,3.0,0.0
6634,48.0,1,120,7.0,0.0
6635,36.0,2,120,8.0,0.0
6636,60.0,60,120,4.0,0.0
6637,50.0,14,90,3.0,0.0
6638,38.0,1,120,8.0,0.0
6639,50.0,5,120,7.0,0.0
6640,62.0,104,120,4.0,0.0
6641,51.0,1,120,7.0,0.0
6642,51.0,9,90,3.0,0.0
6643,39.0,4,120,8.0,0.0
6644,63.0,100,120,4.0,0.0
6645,53.0,12,90,3.0,0.0
6646,41.0,7,120,8.0,0.0
6647,53.0,1,120,7.0,0.0
6648,65.0,102,120,4.0,0.0
6649,43.0,10,120,8.0,0.0
6650,55.0,8,90,3.0,0.0
6651,67.0,1,120,4.0,0.0
6652,55.0,99,120,7.0,0.0
6653,57.0,14,90,3.0,0.0
6654,45.0,7,120,8.0,0.0
6655,57.0,1,120,7.0,0.0
6656,69.0,100,120,4.0,0.0
6657,82.0,2,420,1.0,0.0
6658,58.0,14,90,3.0,0.0
6659,70.0,2,420,1.0,0.0
6660,58.0,4,420,2.0,0.0
6661,70.0,0,120,4.0,0.0
6662,46.0,3,120,8.0,0.0
6663,70.0,38,420,2.0,0.0
6664,58.0,107,120,7.0,0.0
6665,48.0,8,120,8.0,0.0
6666,60.0,4,90,3.0,0.0
6667,72.0,1,120,4.0,0.0
6668,60.0,105,120,7.0,0.0
6669,62.0,10,90,3.0,0.0
6670,50.0,2,120,8.0,0.0
6671,74.0,5,120,4.0,0.0
6672,62.0,55,120,7.0,0.0
6673,45.0,3,120,8.0,0.0
6674,57.0,10,90,3.0,0.0
6675,57.0,3,120,7.0,0.0
6676,69.0,104,120,4.0,0.0
6677,70.0,0,420,1.0,0.0
6678,82.0,2,420,1.0,0.0
6679,46.0,5,120,8.0,0.0
6680,58.0,4,420,2.0,0.0
6681,58.0,10,90,3.0,0.0
6682,70.0,42,420,2.0,0.0
6683,58.0,5,120,7.0,0.0
6684,70.0,98,120,4.0,0.0
6685,60.0,10,90,3.0,0.0
6686,48.0,5,120,8.0,0.0
6687,60.0,7,120,7.0,0.0
6688,72.0,98,120,4.0,0.0
6689,50.0,5,120,8.0,0.0
6690,62.0,10,90,3.0,0.0
6691,62.0,3,120,7.0,0.0
6692,74.0,58,120,4.0,0.0
6693,57.0,11,90,3.0,0.0
6694,57.0,1,120,7.0,0.0
6695,45.0,104,120,8.0,0.0
6696,69.0,0,120,4.0,0.0
6697,58.0,15,90,3.0,0.0
6698,82.0,2,420,1.0,0.0
6699,70.0,2,420,1.0,0.0
6700,70.0,2,420,2.0,0.0
6701,58.0,1,120,7.0,0.0
6702,46.0,6,120,8.0,0.0
6703,58.0,44,420,2.0,0.0
6704,70.0,100,120,4.0,0.0
6705,34.0,7,120,8.0,0.0
6706,46.0,10,90,3.0,0.0
6707,46.0,1,120,7.0,0.0
6708,58.0,100,120,4.0,0.0
6709,48.0,14,90,3.0,0.0
6710,36.0,3,120,8.0,0.0
6711,48.0,1,120,7.0,0.0
6712,60.0,58,120,4.0,0.0
6713,38.0,4,120,8.0,0.0
6714,50.0,6,90,3.0,0.0
6715,62.0,3,120,4.0,0.0
6716,50.0,101,120,7.0,0.0
6717,51.0,14,90,3.0,0.0
6718,39.0,5,120,8.0,0.0
6719,51.0,3,120,7.0,0.0
6720,63.0,100,120,4.0,0.0
6721,53.0,14,90,3.0,0.0
6722,41.0,0,120,8.0,0.0
6723,65.0,3,120,4.0,0.0
6724,53.0,101,120,7.0,0.0
6725,55.0,16,90,3.0,0.0
6726,43.0,0,120,8.0,0.0
6727,67.0,3,120,4.0,0.0
6728,55.0,101,120,7.0,0.0
6729,57.0,12,90,3.0,0.0
6730,45.0,3,120,8.0,0.0
6731,57.0,5,120,7.0,0.0
6732,69.0,104,120,4.0,0.0
6733,46.0,3,120,8.0,0.0
6734,70.0,2,420,2.0,0.0
6735,58.0,0,420,2.0,0.0
6736,70.0,2,420,1.0,0.0
6737,58.0,8,90,3.0,0.0
6738,58.0,1,120,7.0,0.0
6739,70.0,104,120,4.0,0.0
6740,82.0,44,420,1.0,0.0
6741,60.0,12,90,3.0,0.0
6742,48.0,9,120,8.0,0.0
6743,60.0,1,120,7.0,0.0
6744,72.0,102,120,4.0,0.0
6745,50.0,9,120,8.0,0.0
6746,62.0,6,90,3.0,0.0
6747,62.0,1,120,7.0,0.0
6748,74.0,58,120,4.0,0.0
6749,45.0,1,120,8.0,0.0
6750,57.0,5,120,7.0,0.0
6751,57.0,8,90,3.0,0.0
6752,69.0,100,120,4.0,0.0
6753,82.0,2,420,1.0,0.0
6754,58.0,12,90,3.0,0.0
6755,46.0,8,120,8.0,0.0
6756,70.0,2,420,2.0,0.0
6757,58.0,44,420,2.0,0.0
6758,70.0,0,420,1.0,0.0
6759,70.0,1,120,4.0,0.0
6760,58.0,99,120,7.0,0.0
6761,60.0,16,90,3.0,0.0
6762,48.0,1,120,8.0,0.0
6763,60.0,5,120,7.0,0.0
6764,72.0,102,120,4.0,0.0
6765,50.0,3,120,8.0,0.0
6766,62.0,8,90,3.0,0.0
6767,62.0,1,120,7.0,0.0
6768,74.0,60,120,4.0,0.0
6769,57.0,11,90,3.0,0.0
6770,57.0,1,120,7.0,0.0
6771,45.0,0,120,8.0,0.0
6772,69.0,422,120,4.0,0.0
6773,70.0,2,420,2.0,0.0
6774,58.0,0,420,3.0,0.0
6775,82.0,2,420,1.0,0.0
6776,70.0,0,420,1.0,0.0
6777,70.0,0,450,4.0,0.0
6778,58.0,42,420,2.0,0.0
6779,46.0,1,450,8.0,0.0
6780,58.0,433,450,7.0,0.0
6781,74.0,2,420,1.0,0.0
6782,58.0,0,420,3.0,0.0
6783,82.0,0,420,1.0,0.0
6784,62.0,4,420,2.0,0.0
6785,58.0,1,450,7.0,0.0
6786,46.0,432,450,8.0,0.0
6787,62.0,0,450,4.0,0.0
6788,82.0,0,450,4.0,0.0
6789,70.0,0,450,4.0,0.0
6790,70.0,39,420,2.0,0.0
6791,70.0,4,420,1.0,0.0
6792,34.0,4,450,8.0,0.0
6793,58.0,40,420,2.0,0.0
6794,46.0,0,420,3.0,0.0
6795,58.0,3,450,4.0,0.0
6796,46.0,2716,450,7.0,0.0
