,note,step,duration,channel,velocity
0,57.0,0,52,0.0,49.0
1,60.0,60,55,0.0,54.0
2,53.0,60,57,0.0,32.0
3,57.0,0,60,0.0,59.0
4,65.0,0,242,0.0,64.0
5,60.0,60,62,0.0,65.0
6,46.0,0,58,0.0,54.0
7,58.0,60,59,0.0,72.0
8,62.0,60,58,0.0,65.0
9,67.0,0,120,0.0,54.0
10,65.0,60,55,0.0,54.0
11,55.0,0,60,0.0,59.0
12,48.0,0,60,0.0,40.0
13,64.0,0,45,0.0,39.0
14,58.0,60,53,0.0,65.0
15,57.0,60,10,0.0,59.0
16,65.0,0,27,0.0,64.0
17,41.0,0,48,0.0,65.0
18,60.0,60,34,0.0,45.0
19,57.0,0,57,0.0,27.0
20,65.0,0,52,0.0,45.0
21,60.0,60,52,0.0,50.0
22,64.0,60,29,0.0,43.0
23,67.0,0,30,0.0,50.0
24,65.0,0,53,0.0,59.0
25,60.0,60,57,0.0,37.0
26,65.0,0,59,0.0,45.0
27,53.0,60,62,0.0,54.0
28,60.0,60,29,0.0,45.0
29,69.0,60,232,0.0,54.0
30,70.0,0,66,0.0,45.0
31,46.0,0,68,0.0,49.0
32,62.0,60,76,0.0,34.0
33,67.0,60,52,0.0,50.0
34,65.0,0,55,0.0,54.0
35,69.0,60,60,0.0,50.0
36,48.0,0,61,0.0,49.0
37,67.0,60,51,0.0,45.0
38,64.0,0,52,0.0,32.0
39,41.0,60,49,0.0,54.0
40,65.0,0,56,0.0,45.0
41,69.0,0,60,0.0,43.0
42,60.0,60,68,0.0,37.0
43,65.0,60,55,0.0,54.0
44,69.0,60,34,0.0,59.0
45,69.0,0,62,0.0,54.0
46,72.0,0,66,0.0,43.0
47,65.0,60,33,0.0,59.0
48,60.0,0,60,0.0,49.0
49,57.0,60,63,0.0,38.0
50,65.0,60,60,0.0,65.0
51,57.0,60,56,0.0,54.0
52,53.0,0,57,0.0,27.0
53,77.0,0,77,0.0,54.0
54,60.0,60,63,0.0,45.0
55,77.0,60,24,0.0,59.0
56,76.0,30,23,0.0,43.0
57,58.0,0,59,0.0,65.0
58,55.0,0,59,0.0,29.0
59,74.0,0,30,0.0,50.0
60,72.0,30,29,0.0,37.0
61,64.0,30,60,0.0,45.0
62,52.0,0,55,0.0,40.0
63,55.0,0,57,0.0,54.0
64,58.0,60,56,0.0,59.0
65,70.0,30,127,0.0,59.0
66,48.0,0,46,0.0,45.0
67,64.0,60,56,0.0,50.0
68,67.0,0,16,0.0,43.0
69,70.0,60,24,0.0,54.0
70,65.0,60,58,0.0,64.0
71,53.0,0,58,0.0,54.0
72,69.0,0,81,0.0,54.0
73,60.0,60,31,0.0,43.0
74,65.0,30,21,0.0,70.0
75,69.0,0,57,0.0,70.0
76,72.0,30,86,0.0,54.0
77,65.0,60,26,0.0,50.0
78,69.0,30,5,0.0,50.0
79,74.0,0,34,0.0,70.0
80,46.0,30,55,0.0,45.0
81,58.0,0,58,0.0,65.0
82,79.0,0,75,0.0,43.0
83,82.0,0,89,0.0,85.0
84,70.0,60,36,0.0,85.0
85,55.0,0,56,0.0,49.0
86,81.0,0,74,0.0,30.0
87,77.0,0,80,0.0,70.0
88,69.0,0,92,0.0,59.0
89,67.0,0,19,0.0,34.0
90,79.0,120,21,0.0,54.0
91,76.0,0,27,0.0,54.0
92,74.0,30,23,0.0,26.0
93,77.0,0,32,0.0,43.0
94,76.0,30,5,0.0,37.0
95,72.0,0,7,0.0,39.0
96,70.0,0,9,0.0,54.0
97,74.0,30,21,0.0,34.0
98,48.0,60,239,0.0,54.0
99,72.0,0,7,0.0,54.0
100,69.0,30,12,0.0,45.0
101,70.0,30,10,0.0,70.0
102,67.0,0,10,0.0,54.0
103,69.0,0,9,0.0,37.0
104,65.0,30,11,0.0,43.0
105,64.0,0,8,0.0,32.0
106,67.0,30,10,0.0,50.0
107,57.0,1,63,0.0,40.0
108,60.0,60,57,0.0,45.0
109,57.0,60,57,0.0,49.0
110,53.0,0,59,0.0,34.0
111,60.0,60,56,0.0,49.0
112,65.0,29,237,2.0,59.0
113,65.0,0,242,0.0,50.0
114,46.0,0,51,0.0,49.0
115,58.0,0,59,0.0,65.0
116,67.0,3,100,0.0,50.0
117,62.0,0,49,0.0,45.0
118,67.0,57,119,2.0,58.0
119,65.0,55,58,2.0,59.0
120,65.0,0,56,0.0,59.0
121,55.0,5,56,0.0,54.0
122,48.0,0,61,0.0,34.0
123,64.0,55,8,2.0,57.0
124,65.0,2,10,2.0,60.0
125,64.0,5,54,0.0,54.0
126,64.0,8,47,2.0,58.0
127,58.0,0,57,0.0,54.0
128,57.0,0,21,0.0,43.0
129,65.0,2,39,0.0,59.0
130,41.0,0,49,0.0,49.0
131,57.0,0,26,0.0,30.0
132,60.0,60,27,0.0,50.0
133,65.0,48,123,2.0,59.0
134,65.0,60,44,0.0,59.0
135,60.0,0,45,0.0,32.0
136,67.0,60,34,0.0,50.0
137,64.0,0,34,0.0,54.0
138,65.0,0,39,0.0,59.0
139,60.0,59,49,0.0,21.0
140,65.0,0,59,0.0,50.0
141,60.0,60,30,0.0,37.0
142,69.0,60,223,0.0,50.0
143,69.0,1,239,2.0,58.0
144,53.0,60,121,0.0,45.0
145,62.0,60,77,0.0,59.0
146,70.0,0,78,0.0,77.0
147,67.0,0,55,0.0,43.0
148,70.0,0,119,2.0,59.0
149,65.0,0,52,0.0,54.0
150,69.0,60,55,2.0,59.0
151,69.0,0,59,0.0,54.0
152,46.0,60,121,0.0,49.0
153,67.0,57,9,2.0,56.0
154,69.0,4,16,2.0,58.0
155,67.0,0,52,0.0,54.0
156,64.0,3,52,0.0,39.0
157,48.0,0,116,0.0,59.0
158,67.0,12,41,2.0,56.0
159,41.0,0,52,0.0,49.0
160,65.0,0,54,0.0,70.0
161,69.0,4,58,0.0,45.0
162,69.0,40,118,2.0,59.0
163,60.0,60,65,0.0,50.0
164,65.0,60,62,0.0,50.0
165,72.0,57,42,2.0,58.0
166,69.0,3,52,0.0,54.0
167,60.0,60,55,0.0,39.0
168,65.0,0,58,0.0,50.0
169,72.0,58,183,2.0,59.0
170,60.0,60,49,0.0,37.0
171,74.0,0,58,2.0,58.0
172,57.0,60,119,0.0,45.0
173,69.0,0,57,0.0,50.0
174,76.0,56,62,2.0,57.0
175,53.0,4,59,0.0,45.0
176,72.0,2,304,0.0,64.0
177,77.0,58,46,2.0,58.0
178,65.0,2,66,0.0,59.0
179,77.0,2,32,2.0,56.0
180,70.0,0,57,0.0,64.0
181,76.0,28,29,2.0,57.0
182,55.0,60,74,0.0,49.0
183,74.0,29,26,2.0,58.0
184,72.0,0,120,0.0,50.0
185,64.0,1,62,0.0,54.0
186,72.0,28,34,2.0,56.0
187,52.0,0,67,0.0,54.0
188,67.0,0,75,0.0,54.0
189,70.0,32,78,0.0,64.0
190,70.0,0,122,2.0,59.0
191,53.0,120,54,0.0,59.0
192,69.0,3,19,0.0,50.0
193,60.0,0,26,0.0,37.0
194,69.0,57,57,2.0,57.0
195,67.0,56,35,2.0,58.0
196,74.0,28,31,2.0,57.0
197,58.0,0,70,0.0,59.0
198,67.0,4,83,0.0,59.0
199,70.0,27,29,2.0,61.0
200,67.0,24,32,2.0,58.0
201,62.0,5,56,0.0,54.0
202,46.0,0,121,0.0,45.0
203,57.0,2,56,0.0,39.0
204,60.0,60,63,0.0,59.0
205,65.0,0,128,0.0,70.0
206,65.0,34,182,2.0,59.0
207,69.0,60,9,2.0,56.0
208,55.0,60,75,0.0,30.0
209,58.0,0,30,0.0,64.0
210,48.0,0,219,0.0,54.0
211,64.0,0,45,0.0,54.0
212,67.0,5,53,2.0,59.0
213,65.0,55,41,0.0,59.0
214,57.0,0,43,0.0,54.0
215,41.0,0,53,0.0,49.0
216,60.0,0,30,0.0,54.0
217,69.0,59,35,0.0,59.0
218,65.0,1,111,2.0,59.0
219,41.0,0,46,0.0,34.0
220,53.0,60,48,0.0,54.0
221,60.0,60,31,0.0,45.0
222,69.0,0,33,0.0,45.0
223,70.0,51,9,2.0,61.0
224,53.0,2,43,0.0,49.0
225,41.0,0,45,0.0,34.0
226,69.0,7,63,2.0,57.0
227,60.0,0,24,0.0,34.0
228,67.0,60,26,2.0,59.0
229,69.0,0,31,0.0,50.0
230,65.0,30,28,2.0,57.0
231,72.0,0,32,2.0,60.0
232,52.0,0,55,0.0,49.0
233,40.0,30,56,0.0,40.0
234,60.0,0,29,0.0,45.0
235,67.0,1,35,0.0,54.0
236,72.0,59,57,2.0,60.0
237,40.0,0,50,0.0,34.0
238,52.0,60,50,0.0,40.0
239,64.0,0,34,0.0,39.0
240,72.0,60,36,0.0,45.0
241,74.0,54,12,2.0,60.0
242,52.0,0,39,0.0,40.0
243,40.0,6,42,0.0,40.0
244,72.0,3,54,2.0,58.0
245,71.0,55,23,2.0,57.0
246,72.0,2,25,0.0,54.0
247,67.0,0,28,0.0,54.0
248,69.0,26,27,2.0,58.0
249,50.0,0,50,0.0,45.0
250,38.0,3,54,0.0,38.0
251,67.0,31,58,2.0,58.0
252,65.0,57,60,2.0,60.0
253,72.0,3,91,0.0,54.0
254,60.0,0,95,0.0,50.0
255,50.0,3,47,0.0,45.0
256,38.0,0,48,0.0,38.0
257,71.0,0,75,0.0,50.0
258,59.0,60,84,0.0,50.0
259,50.0,60,33,0.0,38.0
260,38.0,0,41,0.0,40.0
261,57.0,60,21,0.0,59.0
262,69.0,0,33,0.0,54.0
263,77.0,57,304,2.0,60.0
264,71.0,0,122,0.0,70.0
265,74.0,60,124,2.0,59.0
266,62.0,60,220,0.0,32.0
267,74.0,60,121,0.0,54.0
268,71.0,62,60,2.0,59.0
269,67.0,1,55,2.0,59.0
270,31.0,0,323,0.0,29.0
271,43.0,0,326,0.0,34.0
272,62.0,58,91,0.0,50.0
273,65.0,56,37,2.0,59.0
274,62.0,2,15,0.0,45.0
275,59.0,0,20,0.0,43.0
276,65.0,61,59,2.0,60.0
277,44.0,0,100,0.0,54.0
278,32.0,0,106,0.0,49.0
279,62.0,0,61,0.0,50.0
280,59.0,1,61,0.0,45.0
281,64.0,59,67,2.0,60.0
282,56.0,60,108,0.0,88.0
283,44.0,0,109,0.0,80.0
284,62.0,60,75,0.0,45.0
285,59.0,0,75,0.0,32.0
286,64.0,0,76,0.0,39.0
287,62.0,0,13,0.0,54.0
288,59.0,0,16,0.0,43.0
289,64.0,59,22,0.0,43.0
290,76.0,1,92,2.0,62.0
291,44.0,60,101,0.0,98.0
292,56.0,0,103,0.0,108.0
293,74.0,29,15,2.0,61.0
294,74.0,29,56,2.0,63.0
295,64.0,0,75,0.0,64.0
296,60.0,2,76,0.0,50.0
297,45.0,0,119,0.0,108.0
298,57.0,0,121,0.0,108.0
299,72.0,57,64,2.0,61.0
300,64.0,0,69,0.0,59.0
301,67.0,0,70,0.0,45.0
302,60.0,0,70,0.0,34.0
303,72.0,181,73,2.0,59.0
304,46.0,2,92,0.0,34.0
305,72.0,86,16,2.0,59.0
306,55.0,0,106,0.0,45.0
307,69.0,0,86,0.0,54.0
308,45.0,0,119,0.0,22.0
309,65.0,89,31,0.0,54.0
310,72.0,1,147,2.0,57.0
311,53.0,0,172,0.0,34.0
312,41.0,30,53,0.0,49.0
313,71.0,28,26,2.0,58.0
314,69.0,0,54,0.0,64.0
315,60.0,34,184,0.0,54.0
316,72.0,29,30,2.0,56.0
317,71.0,30,14,2.0,56.0
318,74.0,16,14,2.0,57.0
319,72.0,8,68,2.0,58.0
320,71.0,67,30,2.0,58.0
321,69.0,30,14,2.0,55.0
322,71.0,19,11,2.0,58.0
323,69.0,8,70,2.0,58.0
324,67.0,62,26,2.0,60.0
325,53.0,0,97,0.0,45.0
326,62.0,0,100,0.0,54.0
327,74.0,0,103,0.0,45.0
328,77.0,5,105,0.0,70.0
329,65.0,28,27,2.0,58.0
330,60.0,30,92,0.0,45.0
331,55.0,0,93,0.0,45.0
332,64.0,0,94,0.0,45.0
333,64.0,2,111,2.0,58.0
334,76.0,0,115,0.0,39.0
335,62.0,113,8,2.0,58.0
336,64.0,2,9,2.0,60.0
337,72.0,0,132,0.0,45.0
338,55.0,5,75,0.0,40.0
339,62.0,0,78,0.0,45.0
340,62.0,8,108,2.0,60.0
341,71.0,0,118,0.0,50.0
342,74.0,0,121,0.0,45.0
343,48.0,0,120,0.0,49.0
344,60.0,110,122,0.0,59.0
345,60.0,1,150,2.0,60.0
346,72.0,0,179,0.0,54.0
347,73.0,1,60,0.0,77.0
348,61.0,178,62,2.0,60.0
349,74.0,60,51,0.0,54.0
350,62.0,1,57,2.0,58.0
351,64.0,59,59,2.0,58.0
352,76.0,0,59,0.0,54.0
353,57.0,0,61,0.0,45.0
354,60.0,60,53,0.0,49.0
355,57.0,0,57,0.0,38.0
356,53.0,60,65,0.0,29.0
357,77.0,1,233,0.0,54.0
358,60.0,60,55,0.0,40.0
359,65.0,59,236,2.0,62.0
360,69.0,53,10,2.0,58.0
361,58.0,0,64,0.0,54.0
362,79.0,0,77,0.0,54.0
363,62.0,60,56,0.0,45.0
364,67.0,7,120,2.0,60.0
365,60.0,0,6,0.0,65.0
366,77.0,0,55,0.0,54.0
367,65.0,1,56,2.0,61.0
368,70.0,0,59,0.0,70.0
369,67.0,0,62,0.0,28.0
370,64.0,57,9,2.0,58.0
371,60.0,0,10,0.0,49.0
372,65.0,5,13,2.0,58.0
373,64.0,8,42,2.0,61.0
374,76.0,2,57,0.0,50.0
375,48.0,60,118,0.0,40.0
376,60.0,0,13,0.0,49.0
377,69.0,0,47,0.0,59.0
378,53.0,0,48,0.0,38.0
379,77.0,4,63,0.0,59.0
380,57.0,0,57,0.0,45.0
381,65.0,43,125,2.0,61.0
382,72.0,0,65,0.0,70.0
383,60.0,60,11,0.0,45.0
384,65.0,0,57,0.0,70.0
385,77.0,0,60,0.0,64.0
386,67.0,0,49,0.0,45.0
387,64.0,60,59,0.0,54.0
388,79.0,0,61,0.0,64.0
389,65.0,1,52,0.0,54.0
390,60.0,60,54,0.0,34.0
391,69.0,0,121,0.0,59.0
392,65.0,0,59,0.0,59.0
393,53.0,60,62,0.0,40.0
394,69.0,59,234,2.0,60.0
395,72.0,51,8,2.0,56.0
396,60.0,60,59,0.0,49.0
397,81.0,0,247,0.0,59.0
398,62.0,0,54,0.0,54.0
399,58.0,9,63,0.0,54.0
400,82.0,0,106,0.0,64.0
401,67.0,60,56,0.0,59.0
402,70.0,0,119,2.0,58.0
403,60.0,0,16,0.0,54.0
404,48.0,0,34,0.0,40.0
405,69.0,58,58,2.0,59.0
406,81.0,2,64,0.0,43.0
407,67.0,58,9,2.0,58.0
408,76.0,0,69,0.0,39.0
409,69.0,6,13,2.0,59.0
410,60.0,0,21,0.0,54.0
411,70.0,0,96,0.0,64.0
412,79.0,2,56,0.0,50.0
413,67.0,10,44,2.0,56.0
414,60.0,2,35,0.0,54.0
415,77.0,0,36,0.0,59.0
416,53.0,0,37,0.0,45.0
417,69.0,0,74,0.0,50.0
418,81.0,0,87,0.0,45.0
419,60.0,0,46,0.0,70.0
420,72.0,60,55,0.0,50.0
421,69.0,42,120,2.0,60.0
422,65.0,0,34,0.0,39.0
423,77.0,60,36,0.0,30.0
424,69.0,0,8,0.0,50.0
425,81.0,5,19,0.0,50.0
426,72.0,55,40,2.0,58.0
427,60.0,60,53,0.0,49.0
428,65.0,0,52,0.0,54.0
429,57.0,60,56,0.0,45.0
430,72.0,0,181,2.0,61.0
431,60.0,1,56,0.0,40.0
432,74.0,59,58,2.0,60.0
433,53.0,0,49,0.0,40.0
434,76.0,55,62,2.0,60.0
435,69.0,5,63,0.0,64.0
436,77.0,57,42,2.0,61.0
437,65.0,3,57,0.0,64.0
438,77.0,2,27,2.0,61.0
439,55.0,0,42,0.0,49.0
440,70.0,60,56,0.0,59.0
441,76.0,26,32,2.0,59.0
442,74.0,28,32,2.0,60.0
443,72.0,28,29,2.0,59.0
444,64.0,4,58,0.0,64.0
445,52.0,3,47,0.0,49.0
446,67.0,0,57,0.0,59.0
447,60.0,60,60,0.0,59.0
448,70.0,29,124,2.0,61.0
449,53.0,0,51,0.0,49.0
450,65.0,60,56,0.0,59.0
451,84.0,0,682,0.0,85.0
452,72.0,60,689,0.0,93.0
453,60.0,60,32,0.0,54.0
454,69.0,1,55,2.0,60.0
455,67.0,58,37,2.0,59.0
456,46.0,1,54,0.0,59.0
457,74.0,31,34,2.0,59.0
458,70.0,27,30,2.0,60.0
459,70.0,0,34,0.0,64.0
460,62.0,2,38,0.0,54.0
461,67.0,29,30,2.0,57.0
462,48.0,31,55,0.0,40.0
463,69.0,0,29,0.0,59.0
464,60.0,59,37,0.0,50.0
465,48.0,60,55,0.0,49.0
466,65.0,1,175,2.0,60.0
467,69.0,56,6,2.0,58.0
468,64.0,4,26,0.0,45.0
469,58.0,0,26,0.0,54.0
470,67.0,0,57,2.0,60.0
471,65.0,0,109,2.0,61.0
472,41.0,60,123,0.0,45.0
473,57.0,0,82,0.0,50.0
474,65.0,60,84,0.0,59.0
475,53.0,60,103,0.0,65.0
476,57.0,60,87,0.0,45.0
477,65.0,0,90,0.0,59.0
478,65.0,0,68,2.0,61.0
479,57.0,0,28,0.0,54.0
480,65.0,60,31,0.0,59.0
481,65.0,31,14,2.0,61.0
482,53.0,60,116,0.0,59.0
483,65.0,28,60,2.0,62.0
484,63.0,58,58,2.0,61.0
485,41.0,1,125,0.0,45.0
486,60.0,0,80,0.0,50.0
487,57.0,0,82,0.0,45.0
488,63.0,2,86,0.0,77.0
489,53.0,60,104,0.0,80.0
490,57.0,0,81,0.0,37.0
491,60.0,60,85,0.0,43.0
492,63.0,0,85,0.0,70.0
493,63.0,58,70,2.0,60.0
494,60.0,0,19,0.0,50.0
495,57.0,0,20,0.0,54.0
496,63.0,60,26,0.0,77.0
497,53.0,2,93,0.0,88.0
498,63.0,29,28,2.0,61.0
499,53.0,0,63,0.0,45.0
500,41.0,31,64,0.0,38.0
501,63.0,60,113,0.0,70.0
502,75.0,0,179,2.0,61.0
503,53.0,0,86,0.0,49.0
504,41.0,45,91,0.0,34.0
505,74.0,72,120,2.0,60.0
506,62.0,3,118,0.0,59.0
507,53.0,0,87,0.0,40.0
508,41.0,60,87,0.0,34.0
509,73.0,55,45,2.0,60.0
510,61.0,5,71,0.0,64.0
511,57.0,0,403,0.0,54.0
512,73.0,59,61,2.0,60.0
513,74.0,57,38,2.0,60.0
514,62.0,3,84,0.0,50.0
515,60.0,0,86,0.0,45.0
516,74.0,58,105,2.0,59.0
517,62.0,0,85,0.0,45.0
518,58.0,62,86,0.0,70.0
519,42.0,0,313,0.0,40.0
520,74.0,66,86,2.0,59.0
521,54.0,1,335,0.0,54.0
522,57.0,0,40,0.0,50.0
523,62.0,54,41,0.0,54.0
524,72.0,31,10,2.0,59.0
525,41.0,14,60,0.0,38.0
526,53.0,15,53,0.0,49.0
527,62.0,54,12,0.0,54.0
528,56.0,0,14,0.0,70.0
529,62.0,0,12,0.0,50.0
530,56.0,0,15,0.0,54.0
531,53.0,60,55,0.0,40.0
532,41.0,0,58,0.0,38.0
533,62.0,60,12,0.0,54.0
534,56.0,0,14,0.0,64.0
535,62.0,60,10,0.0,37.0
536,56.0,0,16,0.0,64.0
537,53.0,0,50,0.0,49.0
538,41.0,0,60,0.0,34.0
539,62.0,0,14,0.0,64.0
540,56.0,60,19,0.0,70.0
541,71.0,6,348,2.0,59.0
542,52.0,4,62,0.0,54.0
543,40.0,0,65,0.0,40.0
544,55.0,0,19,0.0,54.0
545,61.0,60,21,0.0,77.0
546,60.0,0,16,0.0,43.0
547,55.0,60,17,0.0,43.0
548,52.0,0,55,0.0,49.0
549,70.0,56,181,2.0,60.0
550,40.0,0,58,0.0,38.0
551,60.0,2,12,0.0,77.0
552,55.0,0,13,0.0,64.0
553,69.0,58,31,2.0,59.0
554,70.0,24,27,2.0,61.0
555,60.0,0,16,0.0,50.0
556,55.0,4,16,0.0,45.0
557,72.0,32,61,2.0,58.0
558,52.0,0,59,0.0,38.0
559,40.0,0,65,0.0,32.0
560,55.0,0,17,0.0,50.0
561,60.0,3,19,0.0,54.0
562,70.0,57,63,2.0,59.0
563,68.0,58,40,2.0,60.0
564,60.0,2,14,0.0,59.0
565,56.0,0,15,0.0,77.0
566,53.0,2,120,0.0,65.0
567,41.0,0,124,0.0,40.0
568,68.0,58,72,2.0,60.0
569,65.0,0,13,0.0,70.0
570,60.0,60,22,0.0,50.0
571,65.0,60,15,0.0,64.0
572,68.0,0,20,0.0,85.0
573,72.0,60,11,0.0,45.0
574,68.0,0,12,0.0,93.0
575,72.0,0,13,0.0,54.0
576,77.0,58,14,0.0,77.0
577,65.0,2,90,2.0,60.0
578,72.0,31,26,2.0,58.0
579,71.0,29,40,2.0,60.0
580,56.0,1,17,0.0,77.0
581,65.0,0,21,0.0,59.0
582,37.0,0,111,0.0,59.0
583,49.0,0,112,0.0,65.0
584,71.0,59,62,2.0,60.0
585,65.0,60,16,0.0,77.0
586,68.0,0,20,0.0,85.0
587,68.0,60,18,0.0,85.0
588,71.0,0,21,0.0,77.0
589,71.0,2,20,0.0,70.0
590,77.0,0,23,0.0,77.0
591,71.0,58,64,2.0,60.0
592,71.0,26,33,2.0,58.0
593,77.0,34,34,2.0,59.0
594,77.0,0,97,0.0,70.0
595,80.0,60,100,0.0,77.0
596,37.0,0,102,0.0,127.0
597,49.0,0,102,0.0,120.0
598,80.0,0,87,0.0,125.0
599,68.0,7,88,0.0,125.0
600,37.0,0,99,0.0,108.0
601,49.0,60,101,0.0,108.0
602,79.0,60,83,0.0,64.0
603,67.0,0,88,0.0,59.0
604,77.0,53,256,2.0,61.0
605,71.0,53,31,2.0,58.0
606,77.0,0,27,0.0,54.0
607,65.0,7,30,0.0,59.0
608,72.0,23,16,2.0,57.0
609,37.0,60,100,0.0,65.0
610,49.0,0,101,0.0,49.0
611,64.0,0,19,0.0,59.0
612,76.0,0,33,0.0,50.0
613,76.0,60,19,0.0,59.0
614,72.0,0,20,0.0,54.0
615,36.0,0,106,0.0,40.0
616,48.0,4,114,0.0,49.0
617,77.0,60,20,0.0,16.0
618,74.0,0,23,0.0,45.0
619,76.0,60,12,0.0,54.0
620,79.0,0,18,0.0,59.0
621,60.0,0,22,0.0,49.0
622,48.0,0,25,0.0,38.0
623,56.0,0,16,0.0,59.0
624,44.0,0,20,0.0,49.0
625,77.0,60,77,0.0,39.0
626,41.0,60,18,0.0,40.0
627,53.0,0,18,0.0,40.0
628,80.0,0,79,0.0,64.0
629,79.0,0,16,0.0,45.0
630,77.0,0,5,0.0,32.0
631,82.0,30,21,0.0,45.0
632,80.0,15,9,0.0,59.0
633,79.0,0,9,0.0,64.0
634,76.0,0,11,0.0,59.0
635,36.0,15,50,0.0,59.0
636,48.0,0,52,0.0,38.0
637,64.0,60,20,0.0,64.0
638,72.0,0,20,0.0,54.0
639,76.0,0,26,0.0,70.0
640,65.0,0,13,0.0,59.0
641,77.0,60,17,0.0,70.0
642,74.0,0,18,0.0,64.0
643,67.0,0,9,0.0,70.0
644,79.0,0,12,0.0,64.0
645,76.0,0,12,0.0,70.0
646,60.0,60,14,0.0,45.0
647,48.0,0,18,0.0,40.0
648,56.0,0,13,0.0,59.0
649,44.0,0,16,0.0,49.0
650,68.0,0,54,0.0,50.0
651,77.0,60,57,0.0,54.0
652,80.0,0,58,0.0,59.0
653,53.0,60,13,0.0,40.0
654,41.0,0,13,0.0,27.0
655,82.0,0,16,0.0,70.0
656,79.0,30,18,0.0,59.0
657,77.0,0,10,0.0,64.0
658,80.0,15,15,0.0,70.0
659,76.0,0,69,0.0,77.0
660,72.0,0,72,0.0,70.0
661,79.0,0,72,0.0,54.0
662,72.0,33,818,2.0,59.0
663,70.0,94,12,2.0,57.0
664,36.0,0,121,0.0,65.0
665,48.0,15,122,0.0,49.0
666,70.0,30,181,2.0,60.0
667,67.0,177,55,2.0,58.0
668,57.0,0,29,0.0,45.0
669,60.0,59,36,0.0,50.0
670,57.0,0,20,0.0,59.0
671,65.0,60,26,0.0,70.0
672,53.0,0,59,0.0,38.0
673,60.0,0,27,0.0,24.0
674,69.0,60,32,0.0,43.0
675,65.0,60,251,2.0,59.0
676,62.0,0,17,0.0,54.0
677,67.0,6,29,2.0,57.0
678,70.0,0,40,0.0,64.0
679,69.0,25,25,2.0,57.0
680,46.0,60,64,0.0,54.0
681,67.0,0,15,0.0,54.0
682,58.0,4,23,0.0,59.0
683,70.0,25,28,2.0,58.0
684,67.0,23,32,2.0,56.0
685,55.0,3,24,0.0,50.0
686,58.0,0,27,0.0,77.0
687,65.0,34,59,2.0,59.0
688,48.0,0,59,0.0,38.0
689,64.0,58,8,2.0,59.0
690,65.0,6,10,2.0,60.0
691,67.0,0,27,0.0,64.0
692,58.0,2,27,0.0,70.0
693,64.0,8,43,2.0,58.0
694,57.0,0,18,0.0,64.0
695,65.0,0,21,0.0,70.0
696,41.0,2,61,0.0,45.0
697,65.0,44,71,2.0,60.0
698,60.0,60,19,0.0,28.0
699,72.0,0,24,0.0,70.0
700,65.0,0,19,0.0,70.0
701,69.0,0,22,0.0,85.0
702,77.0,60,23,0.0,77.0
703,67.0,0,16,0.0,54.0
704,72.0,0,18,0.0,70.0
705,76.0,60,19,0.0,59.0
706,79.0,0,22,0.0,77.0
707,81.0,0,18,0.0,64.0
708,77.0,60,19,0.0,54.0
709,69.0,0,27,0.0,50.0
710,60.0,0,25,0.0,37.0
711,57.0,59,27,0.0,43.0
712,65.0,0,20,0.0,64.0
713,60.0,60,21,0.0,54.0
714,53.0,0,67,0.0,40.0
715,65.0,0,25,0.0,70.0
716,69.0,60,26,0.0,54.0
717,69.0,1,239,2.0,61.0
718,70.0,59,30,2.0,61.0
719,74.0,0,34,0.0,77.0
720,62.0,1,34,0.0,77.0
721,72.0,28,28,2.0,58.0
722,46.0,0,69,0.0,54.0
723,74.0,28,30,2.0,58.0
724,67.0,4,26,0.0,45.0
725,70.0,0,28,0.0,77.0
726,70.0,24,31,2.0,59.0
727,60.0,0,27,0.0,59.0
728,69.0,33,58,2.0,58.0
729,67.0,55,8,2.0,59.0
730,48.0,3,68,0.0,40.0
731,69.0,2,13,2.0,59.0
732,58.0,5,24,0.0,70.0
733,64.0,0,26,0.0,64.0
734,67.0,9,43,2.0,58.0
735,57.0,5,15,0.0,70.0
736,65.0,0,19,0.0,70.0
737,41.0,0,59,0.0,45.0
738,60.0,0,16,0.0,64.0
739,72.0,60,22,0.0,77.0
740,69.0,44,125,2.0,59.0
741,65.0,0,17,0.0,77.0
742,77.0,60,21,0.0,39.0
743,69.0,0,13,0.0,59.0
744,81.0,2,18,0.0,59.0
745,72.0,58,44,2.0,61.0
746,84.0,60,20,0.0,77.0
747,72.0,0,25,0.0,64.0
748,72.0,59,31,0.0,70.0
749,65.0,60,27,0.0,59.0
750,72.0,1,149,2.0,61.0
751,70.0,28,28,2.0,59.0
752,57.0,0,59,0.0,45.0
753,60.0,0,64,0.0,49.0
754,72.0,3,24,0.0,54.0
755,69.0,29,31,2.0,59.0
756,70.0,25,27,2.0,61.0
757,72.0,30,31,2.0,58.0
758,69.0,0,32,0.0,32.0
759,74.0,25,31,2.0,60.0
760,65.0,0,60,0.0,54.0
761,53.0,5,62,0.0,25.0
762,72.0,3,21,0.0,54.0
763,76.0,32,36,2.0,59.0
764,77.0,27,16,2.0,60.0
765,60.0,0,20,0.0,64.0
766,77.0,32,30,2.0,59.0
767,76.0,26,35,2.0,59.0
768,58.0,0,62,0.0,54.0
769,55.0,1,63,0.0,34.0
770,64.0,2,15,0.0,50.0
771,74.0,32,28,2.0,59.0
772,72.0,26,32,2.0,58.0
773,67.0,0,20,0.0,59.0
774,64.0,0,21,0.0,59.0
775,60.0,60,20,0.0,54.0
776,48.0,1,93,0.0,54.0
777,70.0,33,120,2.0,58.0
778,60.0,60,23,0.0,59.0
779,60.0,60,19,0.0,64.0
780,72.0,60,148,0.0,59.0
781,70.0,30,29,0.0,59.0
782,57.0,120,63,0.0,49.0
783,69.0,30,32,0.0,43.0
784,70.0,30,28,0.0,59.0
785,72.0,0,28,0.0,54.0
786,74.0,30,27,0.0,59.0
787,53.0,30,59,0.0,49.0
788,76.0,30,28,0.0,37.0
789,77.0,30,17,0.0,70.0
790,77.0,30,25,0.0,45.0
791,55.0,0,63,0.0,49.0
792,76.0,30,34,0.0,43.0
793,74.0,30,27,0.0,59.0
794,72.0,30,31,0.0,45.0
795,52.0,30,66,0.0,45.0
796,60.0,0,555,0.0,59.0
797,70.0,0,117,0.0,59.0
798,57.0,118,49,0.0,59.0
799,53.0,0,49,0.0,49.0
800,69.0,62,24,0.0,54.0
801,69.0,1,60,2.0,60.0
802,67.0,0,33,2.0,59.0
803,74.0,35,27,2.0,57.0
804,58.0,0,65,0.0,64.0
805,67.0,59,78,0.0,45.0
806,70.0,24,33,2.0,60.0
807,62.0,1,55,0.0,59.0
808,67.0,28,32,2.0,58.0
809,46.0,0,125,0.0,59.0
810,57.0,0,67,0.0,54.0
811,60.0,59,63,0.0,54.0
812,65.0,32,144,0.0,64.0
813,65.0,1,177,2.0,59.0
814,69.0,55,9,2.0,59.0
815,55.0,60,75,0.0,50.0
816,48.0,0,212,0.0,49.0
817,67.0,1,58,2.0,58.0
818,60.0,0,59,0.0,50.0
819,64.0,5,65,0.0,54.0
820,55.0,0,29,0.0,125.0
821,59.0,0,31,0.0,125.0
822,38.0,0,32,0.0,120.0
823,50.0,59,32,0.0,120.0
824,65.0,0,36,0.0,125.0
825,67.0,0,24,0.0,64.0
826,50.0,0,24,0.0,45.0
827,65.0,0,25,0.0,50.0
828,38.0,59,26,0.0,54.0
829,71.0,0,28,0.0,64.0
830,65.0,1,120,2.0,60.0
831,65.0,0,25,0.0,45.0
832,67.0,0,26,0.0,45.0
833,50.0,60,27,0.0,40.0
834,38.0,0,27,0.0,38.0
835,71.0,0,28,0.0,43.0
836,65.0,0,21,0.0,45.0
837,67.0,0,21,0.0,45.0
838,38.0,0,24,0.0,45.0
839,71.0,0,28,0.0,43.0
840,50.0,60,28,0.0,40.0
841,67.0,0,22,0.0,54.0
842,50.0,60,24,0.0,45.0
843,65.0,0,24,0.0,45.0
844,38.0,0,25,0.0,40.0
845,71.0,0,28,0.0,50.0
846,65.0,2,72,2.0,63.0
847,38.0,58,15,0.0,45.0
848,67.0,0,17,0.0,59.0
849,50.0,0,21,0.0,59.0
850,65.0,0,23,0.0,45.0
851,71.0,0,26,0.0,45.0
852,65.0,35,11,2.0,60.0
853,59.0,0,25,0.0,125.0
854,65.0,26,85,2.0,63.0
855,62.0,0,27,0.0,125.0
856,55.0,0,27,0.0,120.0
857,65.0,0,29,0.0,125.0
858,43.0,59,31,0.0,120.0
859,71.0,27,15,2.0,62.0
860,31.0,3,22,0.0,54.0
861,71.0,0,25,0.0,85.0
862,74.0,0,26,0.0,77.0
863,65.0,0,26,0.0,77.0
864,43.0,0,27,0.0,59.0
865,71.0,0,21,0.0,64.0
866,31.0,0,21,0.0,49.0
867,43.0,60,22,0.0,59.0
868,65.0,0,23,0.0,50.0
869,74.0,0,25,0.0,50.0
870,71.0,30,116,2.0,63.0
871,31.0,0,20,0.0,54.0
872,71.0,0,22,0.0,59.0
873,65.0,0,23,0.0,54.0
874,43.0,0,25,0.0,54.0
875,74.0,60,27,0.0,54.0
876,43.0,0,18,0.0,65.0
877,71.0,0,18,0.0,64.0
878,31.0,60,18,0.0,59.0
879,65.0,0,20,0.0,54.0
880,74.0,0,23,0.0,54.0
881,71.0,25,16,2.0,62.0
882,71.0,29,89,2.0,63.0
883,59.0,66,24,0.0,113.0
884,62.0,0,27,0.0,113.0
885,65.0,0,29,0.0,125.0
886,55.0,0,31,0.0,120.0
887,43.0,0,31,0.0,120.0
888,74.0,22,16,2.0,62.0
889,31.0,0,18,0.0,45.0
890,67.0,0,23,0.0,50.0
891,74.0,0,23,0.0,59.0
892,71.0,2,23,0.0,59.0
893,43.0,0,27,0.0,45.0
894,77.0,0,27,0.0,64.0
895,71.0,0,19,0.0,54.0
896,74.0,0,19,0.0,50.0
897,67.0,0,21,0.0,43.0
898,31.0,60,24,0.0,49.0
899,77.0,0,26,0.0,54.0
900,43.0,0,29,0.0,49.0
901,74.0,36,118,2.0,64.0
902,71.0,0,14,0.0,43.0
903,74.0,0,18,0.0,45.0
904,67.0,60,18,0.0,39.0
905,77.0,0,22,0.0,39.0
906,31.0,0,22,0.0,49.0
907,43.0,0,25,0.0,49.0
908,67.0,0,12,0.0,21.0
909,31.0,0,14,0.0,49.0
910,71.0,60,15,0.0,50.0
911,74.0,0,18,0.0,50.0
912,43.0,0,20,0.0,54.0
913,77.0,0,23,0.0,50.0
914,74.0,27,13,2.0,63.0
915,71.0,0,26,0.0,125.0
916,74.0,30,89,2.0,64.0
917,79.0,0,27,0.0,113.0
918,74.0,0,27,0.0,113.0
919,83.0,0,28,0.0,113.0
920,43.0,0,36,0.0,120.0
921,55.0,63,37,0.0,120.0
922,77.0,27,19,2.0,63.0
923,74.0,33,121,0.0,125.0
924,79.0,0,122,0.0,113.0
925,71.0,0,122,0.0,113.0
926,83.0,0,125,0.0,103.0
927,31.0,0,134,0.0,80.0
928,43.0,0,136,0.0,108.0
929,77.0,0,191,2.0,64.0
930,74.0,219,11,2.0,57.0
931,75.0,6,12,2.0,60.0
932,60.0,30,29,0.0,43.0
933,48.0,11,67,0.0,45.0
934,64.0,30,24,0.0,30.0
935,67.0,0,28,0.0,45.0
936,60.0,30,26,0.0,32.0
937,64.0,30,28,0.0,39.0
938,67.0,0,30,0.0,43.0
939,55.0,0,50,0.0,54.0
940,60.0,30,26,0.0,45.0
941,76.0,4,189,2.0,58.0
942,62.0,0,27,0.0,45.0
943,65.0,3,30,0.0,54.0
944,77.0,27,36,2.0,61.0
945,59.0,3,4,0.0,30.0
946,74.0,27,27,2.0,61.0
947,48.0,0,30,0.0,59.0
948,72.0,25,60,2.0,60.0
949,60.0,30,31,0.0,45.0
950,67.0,4,26,0.0,49.0
951,64.0,0,27,0.0,49.0
952,67.0,26,59,2.0,61.0
953,60.0,30,28,0.0,38.0
954,67.0,0,28,0.0,40.0
955,64.0,6,28,0.0,32.0
956,72.0,24,62,2.0,61.0
957,60.0,30,28,0.0,45.0
958,76.0,5,184,0.0,64.0
959,62.0,0,23,0.0,38.0
960,65.0,6,26,0.0,49.0
961,77.0,0,42,0.0,54.0
962,59.0,30,22,0.0,59.0
963,74.0,24,62,2.0,63.0
964,74.0,15,19,0.0,45.0
965,72.0,0,25,0.0,54.0
966,60.0,4,40,0.0,49.0
967,64.0,30,30,0.0,45.0
968,67.0,30,22,0.0,50.0
969,64.0,30,27,0.0,50.0
970,67.0,0,40,0.0,45.0
971,72.0,30,55,0.0,45.0
972,76.0,11,181,2.0,62.0
973,55.0,30,29,0.0,54.0
974,64.0,0,32,0.0,54.0
975,59.0,5,20,0.0,38.0
976,62.0,0,21,0.0,59.0
977,74.0,0,27,0.0,64.0
978,77.0,25,34,2.0,61.0
979,74.0,26,29,2.0,61.0
980,65.0,4,25,0.0,59.0
981,72.0,25,55,2.0,62.0
982,48.0,5,56,0.0,45.0
983,64.0,30,28,0.0,50.0
984,67.0,0,27,0.0,50.0
985,55.0,30,37,0.0,54.0
986,64.0,30,26,0.0,45.0
987,67.0,0,19,0.0,39.0
988,76.0,0,144,0.0,59.0
989,52.0,30,39,0.0,49.0
990,64.0,30,15,0.0,34.0
991,60.0,0,50,0.0,49.0
992,77.0,0,27,0.0,59.0
993,71.0,0,27,0.0,43.0
994,65.0,30,17,0.0,54.0
995,55.0,0,51,0.0,49.0
996,62.0,30,52,0.0,59.0
997,74.0,15,18,0.0,77.0
998,64.0,30,22,0.0,59.0
999,72.0,1,59,0.0,64.0
1000,60.0,0,60,0.0,54.0
1001,67.0,30,27,0.0,59.0
1002,64.0,30,13,0.0,50.0
1003,76.0,14,165,2.0,61.0
1004,62.0,30,29,0.0,43.0
1005,59.0,30,64,0.0,45.0
1006,64.0,3,24,0.0,32.0
1007,68.0,0,26,0.0,59.0
1008,76.0,27,46,2.0,62.0
1009,62.0,30,16,0.0,45.0
1010,60.0,30,29,0.0,50.0
1011,57.0,2,66,0.0,45.0
1012,64.0,30,24,0.0,37.0
1013,69.0,0,31,0.0,54.0
1014,60.0,30,18,0.0,45.0
1015,76.0,28,152,2.0,61.0
1016,59.0,2,29,0.0,50.0
1017,77.0,28,33,2.0,61.0
1018,50.0,30,63,0.0,54.0
1019,62.0,2,27,0.0,32.0
1020,74.0,28,30,2.0,62.0
1021,65.0,0,33,0.0,45.0
1022,59.0,0,17,0.0,54.0
1023,71.0,30,25,2.0,62.0
1024,57.0,30,29,0.0,50.0
1025,52.0,30,72,0.0,38.0
1026,60.0,0,26,0.0,37.0
1027,64.0,30,29,0.0,39.0
1028,57.0,30,15,0.0,54.0
1029,59.0,30,30,0.0,59.0
1030,69.0,0,181,2.0,61.0
1031,72.0,22,13,2.0,61.0
1032,52.0,30,72,0.0,59.0
1033,64.0,8,27,0.0,54.0
1034,68.0,0,28,0.0,70.0
1035,62.0,29,20,0.0,59.0
1036,71.0,1,52,2.0,61.0
1037,69.0,4,29,0.0,64.0
1038,57.0,0,31,0.0,45.0
1039,60.0,30,29,0.0,40.0
1040,68.0,0,29,0.0,85.0
1041,64.0,30,30,0.0,49.0
1042,69.0,0,34,0.0,77.0
1043,69.0,26,119,2.0,61.0
1044,60.0,30,25,0.0,49.0
1045,71.0,0,29,0.0,70.0
1046,72.0,30,28,0.0,50.0
1047,55.0,0,34,0.0,54.0
1048,64.0,0,24,0.0,45.0
1049,71.0,30,26,0.0,54.0
1050,69.0,0,29,0.0,59.0
1051,72.0,30,31,0.0,28.0
1052,73.0,30,20,0.0,54.0
1053,64.0,0,32,0.0,49.0
1054,74.0,30,33,0.0,70.0
1055,54.0,0,54,0.0,65.0
1056,62.0,25,31,0.0,45.0
1057,66.0,0,31,0.0,64.0
1058,69.0,30,34,0.0,45.0
1059,62.0,30,11,0.0,54.0
1060,62.0,5,155,2.0,78.0
1061,57.0,30,27,0.0,50.0
1062,48.0,30,64,0.0,49.0
1063,66.0,30,30,0.0,70.0
1064,69.0,0,32,0.0,59.0
1065,57.0,30,13,0.0,64.0
1066,62.0,0,45,2.0,78.0
1067,59.0,30,32,0.0,45.0
1068,47.0,30,63,0.0,45.0
1069,67.0,0,31,0.0,45.0
1070,71.0,30,36,0.0,70.0
1071,62.0,30,11,0.0,54.0
1072,62.0,0,150,2.0,78.0
1073,60.0,2,28,0.0,45.0
1074,64.0,28,33,2.0,78.0
1075,48.0,30,68,0.0,49.0
1076,64.0,0,25,0.0,39.0
1077,60.0,26,32,2.0,70.0
1078,69.0,4,31,0.0,50.0
1079,60.0,4,16,0.0,50.0
1080,57.0,26,30,2.0,70.0
1081,59.0,30,29,0.0,45.0
1082,50.0,3,70,0.0,59.0
1083,62.0,30,29,0.0,45.0
1084,67.0,0,33,0.0,45.0
1085,59.0,30,13,0.0,50.0
1086,55.0,27,175,2.0,78.0
1087,59.0,21,10,2.0,70.0
1088,60.0,30,31,0.0,50.0
1089,62.0,2,26,0.0,39.0
1090,50.0,30,88,0.0,25.0
1091,66.0,0,32,0.0,70.0
1092,60.0,30,14,0.0,45.0
1093,57.0,7,60,2.0,70.0
1094,43.0,1,41,0.0,40.0
1095,59.0,0,22,0.0,40.0
1096,67.0,30,28,0.0,45.0
1097,66.0,30,16,0.0,64.0
1098,62.0,0,20,0.0,53.0
1099,67.0,30,20,0.0,59.0
1100,55.0,29,116,2.0,78.0
1101,59.0,0,26,0.0,45.0
1102,71.0,0,23,0.0,43.0
1103,55.0,30,30,0.0,32.0
1104,59.0,30,26,0.0,38.0
1105,74.0,0,26,0.0,59.0
1106,78.0,0,19,0.0,59.0
1107,62.0,30,25,0.0,38.0
1108,79.0,30,13,0.0,64.0
1109,59.0,0,32,0.0,40.0
1110,55.0,0,28,0.0,38.0
1111,81.0,1,55,0.0,59.0
1112,61.0,30,30,0.0,72.0
1113,73.0,30,28,0.0,77.0
1114,64.0,30,24,0.0,45.0
1115,62.0,30,27,0.0,37.0
1116,53.0,30,59,0.0,54.0
1117,69.0,29,184,2.0,70.0
1118,74.0,30,30,0.0,50.0
1119,77.0,1,32,2.0,70.0
1120,65.0,0,34,0.0,54.0
1121,62.0,1,16,0.0,54.0
1122,74.0,28,18,2.0,55.0
1123,72.0,21,17,2.0,62.0
1124,59.0,30,30,0.0,50.0
1125,53.0,0,63,0.0,49.0
1126,62.0,0,23,0.0,45.0
1127,67.0,30,25,0.0,59.0
1128,59.0,30,14,0.0,45.0
1129,71.0,9,109,2.0,64.0
1130,74.0,19,6,2.0,62.0
1131,72.0,5,63,2.0,70.0
1132,60.0,30,28,0.0,50.0
1133,52.0,6,64,0.0,54.0
1134,64.0,1,25,0.0,43.0
1135,71.0,29,28,2.0,70.0
1136,67.0,0,30,0.0,54.0
1137,60.0,4,13,0.0,54.0
1138,69.0,26,28,2.0,62.0
1139,55.0,30,20,0.0,58.0
1140,67.0,27,61,2.0,70.0
1141,47.0,3,64,0.0,49.0
1142,65.0,0,27,0.0,70.0
1143,62.0,0,27,0.0,39.0
1144,55.0,30,32,0.0,39.0
1145,62.0,0,26,0.0,54.0
1146,65.0,0,29,0.0,64.0
1147,47.0,30,53,0.0,45.0
1148,55.0,30,30,0.0,50.0
1149,65.0,30,120,2.0,78.0
1150,48.0,0,30,0.0,34.0
1151,60.0,0,31,0.0,50.0
1152,64.0,30,33,0.0,54.0
1153,64.0,1,40,2.0,78.0
1154,55.0,29,11,0.0,59.0
1155,55.0,30,32,0.0,59.0
1156,64.0,0,56,2.0,88.0
1157,67.0,0,27,0.0,54.0
1158,59.0,30,28,0.0,38.0
1159,66.0,0,16,0.0,64.0
1160,62.0,3,29,0.0,54.0
1161,59.0,30,26,0.0,40.0
1162,67.0,0,27,0.0,50.0
1163,62.0,27,61,2.0,78.0
1164,69.0,0,27,0.0,45.0
1165,55.0,30,28,0.0,40.0
1166,71.0,0,25,0.0,50.0
1167,62.0,30,27,0.0,65.0
1168,72.0,0,22,0.0,50.0
1169,65.0,30,26,0.0,59.0
1170,74.0,0,26,0.0,32.0
1171,62.0,30,30,0.0,45.0
1172,60.0,2,29,0.0,60.0
1173,63.0,30,25,0.0,54.0
1174,75.0,0,60,0.0,77.0
1175,67.0,30,23,0.0,43.0
1176,63.0,30,20,0.0,70.0
1177,60.0,27,127,2.0,70.0
1178,67.0,30,26,0.0,54.0
1179,63.0,0,27,0.0,64.0
1180,63.0,1,178,2.0,78.0
1181,60.0,29,28,0.0,48.0
1182,55.0,0,64,0.0,49.0
1183,62.0,0,30,0.0,45.0
1184,65.0,2,32,0.0,59.0
1185,65.0,28,44,2.0,70.0
1186,59.0,30,15,0.0,54.0
1187,62.0,13,15,2.0,78.0
1188,55.0,1,122,2.0,70.0
1189,60.0,1,63,2.0,70.0
1190,60.0,30,27,0.0,43.0
1191,51.0,0,59,2.0,78.0
1192,67.0,0,26,0.0,45.0
1193,63.0,2,27,0.0,64.0
1194,48.0,2,88,0.0,54.0
1195,48.0,0,53,2.0,70.0
1196,60.0,30,25,0.0,45.0
1197,55.0,28,62,2.0,70.0
1198,72.0,10,129,2.0,70.0
1199,67.0,0,25,0.0,50.0
1200,63.0,1,29,0.0,70.0
1201,75.0,4,178,2.0,88.0
1202,60.0,29,29,0.0,45.0
1203,60.0,29,63,2.0,70.0
1204,62.0,0,26,0.0,43.0
1205,65.0,4,33,0.0,59.0
1206,59.0,29,11,0.0,54.0
1207,77.0,26,48,2.0,88.0
1208,74.0,12,14,2.0,62.0
1209,62.0,1,58,2.0,78.0
1210,67.0,1,123,2.0,78.0
1211,72.0,14,61,2.0,88.0
1212,48.0,1,57,0.0,49.0
1213,63.0,1,58,2.0,78.0
1214,60.0,28,31,0.0,43.0
1215,67.0,0,24,0.0,37.0
1216,63.0,2,25,0.0,77.0
1217,60.0,2,51,2.0,70.0
1218,67.0,28,59,2.0,78.0
1219,60.0,28,30,0.0,45.0
1220,63.0,0,27,0.0,70.0
1221,67.0,0,28,0.0,45.0
1222,55.0,3,50,0.0,54.0
1223,72.0,27,62,2.0,78.0
1224,60.0,29,30,0.0,45.0
1225,62.0,0,30,0.0,37.0
1226,65.0,2,34,0.0,54.0
1227,59.0,30,15,0.0,54.0
1228,65.0,28,49,2.0,78.0
1229,74.0,0,57,2.0,88.0
1230,55.0,1,119,2.0,70.0
1231,62.0,15,15,2.0,70.0
1232,48.0,3,51,0.0,45.0
1233,60.0,30,28,0.0,50.0
1234,52.0,0,59,2.0,62.0
1235,60.0,1,76,2.0,62.0
1236,64.0,2,24,0.0,50.0
1237,67.0,0,26,0.0,50.0
1238,55.0,0,49,0.0,65.0
1239,48.0,28,55,2.0,70.0
1240,60.0,30,27,0.0,50.0
1241,72.0,0,125,2.0,78.0
1242,64.0,2,24,0.0,39.0
1243,67.0,0,27,0.0,34.0
1244,60.0,30,23,0.0,37.0
1245,52.0,0,56,0.0,32.0
1246,76.0,11,182,2.0,88.0
1247,65.0,3,28,0.0,45.0
1248,62.0,0,29,0.0,43.0
1249,77.0,27,43,2.0,88.0
1250,55.0,0,41,0.0,40.0
1251,59.0,30,14,0.0,64.0
1252,67.0,28,106,2.0,78.0
1253,74.0,10,16,2.0,70.0
1254,72.0,1,59,2.0,62.0
1255,60.0,28,30,0.0,54.0
1256,64.0,0,26,0.0,45.0
1257,67.0,3,27,0.0,37.0
1258,60.0,30,17,0.0,54.0
1259,64.0,15,122,2.0,70.0
1260,60.0,4,118,2.0,78.0
1261,67.0,2,118,2.0,70.0
1262,76.0,27,102,2.0,88.0
1263,62.0,30,30,0.0,59.0
1264,59.0,1,67,0.0,45.0
1265,64.0,3,26,0.0,39.0
1266,68.0,0,33,0.0,70.0
1267,76.0,27,45,2.0,88.0
1268,62.0,30,19,0.0,45.0
1269,62.0,26,119,2.0,70.0
1270,68.0,1,121,2.0,78.0
1271,59.0,2,121,2.0,78.0
1272,60.0,30,31,0.0,50.0
1273,57.0,1,63,0.0,54.0
1274,64.0,0,27,0.0,50.0
1275,69.0,30,40,0.0,54.0
1276,60.0,30,15,0.0,54.0
1277,57.0,0,120,2.0,88.0
1278,60.0,1,152,2.0,55.0
1279,76.0,25,155,2.0,98.0
1280,62.0,2,13,0.0,50.0
1281,65.0,0,26,0.0,64.0
1282,74.0,28,33,2.0,78.0
1283,65.0,0,37,2.0,62.0
1284,67.0,0,16,0.0,45.0
1285,64.0,2,17,0.0,45.0
1286,53.0,0,80,0.0,45.0
1287,76.0,28,32,2.0,78.0
1288,64.0,0,30,2.0,55.0
1289,65.0,0,12,0.0,59.0
1290,69.0,2,14,0.0,59.0
1291,77.0,26,27,2.0,70.0
1292,69.0,3,236,2.0,70.0
1293,53.0,30,122,2.0,78.0
1294,62.0,2,37,2.0,62.0
1295,60.0,29,29,0.0,50.0
1296,55.0,1,61,0.0,54.0
1297,64.0,30,26,0.0,34.0
1298,67.0,0,35,0.0,43.0
1299,60.0,30,14,0.0,50.0
1300,67.0,1,119,2.0,62.0
1301,64.0,1,116,2.0,55.0
1302,55.0,3,120,2.0,78.0
1303,72.0,25,179,2.0,88.0
1304,59.0,30,29,0.0,50.0
1305,76.0,21,13,2.0,70.0
1306,56.0,2,71,0.0,65.0
1307,62.0,1,29,0.0,32.0
1308,65.0,0,31,0.0,50.0
1309,59.0,30,4,0.0,59.0
1310,56.0,1,113,2.0,88.0
1311,59.0,1,116,2.0,70.0
1312,74.0,8,56,2.0,88.0
1313,65.0,26,123,2.0,78.0
1314,57.0,0,30,0.0,54.0
1315,60.0,30,28,0.0,45.0
1316,64.0,1,91,2.0,62.0
1317,64.0,30,31,0.0,54.0
1318,60.0,0,121,2.0,70.0
1319,60.0,30,27,0.0,32.0
1320,72.0,3,120,2.0,78.0
1321,57.0,25,125,2.0,88.0
1322,58.0,0,32,0.0,54.0
1323,64.0,26,43,2.0,70.0
1324,67.0,2,45,2.0,78.0
1325,58.0,2,49,2.0,88.0
1326,64.0,30,27,0.0,65.0
1327,67.0,1,24,0.0,65.0
1328,67.0,3,56,2.0,70.0
1329,64.0,26,61,2.0,55.0
1330,64.0,29,28,0.0,45.0
1331,58.0,1,61,2.0,88.0
1332,76.0,0,123,0.0,45.0
1333,57.0,2,40,0.0,54.0
1334,60.0,28,29,0.0,65.0
1335,69.0,30,33,0.0,80.0
1336,65.0,2,117,2.0,70.0
1337,77.0,0,117,0.0,64.0
1338,60.0,30,28,0.0,59.0
1339,69.0,3,122,2.0,70.0
1340,57.0,2,118,2.0,88.0
1341,72.0,23,165,2.0,88.0
1342,55.0,2,56,0.0,72.0
1343,60.0,30,28,0.0,72.0
1344,70.0,3,80,2.0,78.0
1345,64.0,5,30,0.0,80.0
1346,72.0,0,453,0.0,85.0
1347,82.0,0,102,0.0,77.0
1348,84.0,1,463,0.0,77.0
1349,72.0,25,49,2.0,78.0
1350,70.0,15,10,2.0,55.0
1351,55.0,0,116,2.0,78.0
1352,74.0,1,11,2.0,78.0
1353,64.0,25,124,2.0,70.0
1354,60.0,30,34,0.0,49.0
1355,53.0,0,26,0.0,72.0
1356,84.0,0,52,0.0,77.0
1357,81.0,1,52,0.0,70.0
1358,65.0,3,56,2.0,78.0
1359,72.0,4,69,2.0,78.0
1360,69.0,4,74,2.0,70.0
1361,65.0,30,36,0.0,80.0
1362,83.0,4,27,0.0,45.0
1363,67.0,0,28,2.0,55.0
1364,67.0,0,29,0.0,80.0
1365,71.0,1,28,2.0,88.0
1366,79.0,0,32,0.0,50.0
1367,81.0,0,7,0.0,43.0
1368,65.0,27,11,2.0,62.0
1369,77.0,0,9,0.0,50.0
1370,69.0,1,14,2.0,70.0
1371,69.0,1,15,0.0,80.0
1372,67.0,18,10,2.0,62.0
1373,71.0,3,10,2.0,88.0
1374,53.0,4,31,0.0,80.0
1375,53.0,2,157,2.0,78.0
1376,77.0,0,38,0.0,85.0
1377,81.0,0,56,0.0,70.0
1378,65.0,2,66,2.0,78.0
1379,60.0,26,124,2.0,78.0
1380,62.0,30,32,0.0,72.0
1381,69.0,3,69,2.0,98.0
1382,79.0,0,9,0.0,43.0
1383,76.0,0,11,0.0,45.0
1384,64.0,0,27,2.0,78.0
1385,67.0,2,27,2.0,88.0
1386,64.0,1,31,0.0,80.0
1387,77.0,0,9,0.0,59.0
1388,74.0,0,11,0.0,54.0
1389,57.0,28,54,2.0,70.0
1390,62.0,25,28,2.0,62.0
1391,65.0,2,28,2.0,70.0
1392,53.0,1,63,2.0,78.0
1393,65.0,1,32,0.0,72.0
1394,55.0,1,28,0.0,98.0
1395,60.0,28,35,0.0,88.0
1396,64.0,30,32,0.0,98.0
1397,76.0,0,109,0.0,54.0
1398,72.0,0,112,0.0,59.0
1399,55.0,1,114,2.0,98.0
1400,64.0,2,120,2.0,78.0
1401,60.0,30,30,0.0,80.0
1402,60.0,1,119,2.0,78.0
1403,53.0,1,10,2.0,70.0
1404,59.0,0,9,2.0,78.0
1405,62.0,27,13,2.0,88.0
1406,55.0,4,10,2.0,70.0
1407,60.0,3,8,2.0,70.0
1408,64.0,1,12,2.0,62.0
1409,55.0,1,32,0.0,88.0
1410,62.0,14,28,0.0,98.0
1411,65.0,30,33,0.0,108.0
1412,74.0,0,114,0.0,59.0
1413,53.0,3,103,2.0,49.0
1414,71.0,0,115,0.0,50.0
1415,62.0,2,100,2.0,62.0
1416,62.0,30,26,0.0,80.0
1417,59.0,3,102,2.0,62.0
1418,43.0,1,118,2.0,62.0
1419,60.0,0,24,0.0,98.0
1420,60.0,0,63,2.0,98.0
1421,72.0,2,64,0.0,70.0
1422,60.0,0,25,0.0,77.0
1423,48.0,0,25,0.0,108.0
1424,36.0,60,25,0.0,108.0
1425,52.0,26,90,2.0,88.0
1426,48.0,1,92,2.0,88.0
1427,48.0,45,12,0.0,88.0
1428,36.0,0,12,0.0,88.0
1429,60.0,0,20,0.0,54.0
1430,52.0,15,15,0.0,108.0
1431,64.0,0,22,0.0,93.0
1432,40.0,0,25,0.0,108.0
1433,40.0,0,12,0.0,98.0
1434,52.0,0,12,0.0,98.0
1435,64.0,45,16,0.0,103.0
1436,55.0,0,12,0.0,120.0
1437,67.0,0,16,0.0,103.0
1438,43.0,15,22,0.0,108.0
1439,43.0,0,10,0.0,65.0
1440,55.0,0,13,0.0,59.0
1441,67.0,45,19,0.0,70.0
1442,76.0,0,26,0.0,113.0
1443,72.0,30,36,0.0,64.0
1444,67.0,30,23,0.0,77.0
1445,60.0,0,115,0.0,98.0
1446,48.0,0,115,0.0,108.0
1447,60.0,15,116,1.0,90.0
1448,64.0,30,35,0.0,77.0
1449,67.0,0,21,0.0,64.0
1450,72.0,30,23,0.0,70.0
1451,76.0,0,179,1.0,90.0
1452,77.0,0,24,0.0,103.0
1453,71.0,0,32,0.0,93.0
1454,77.0,30,32,1.0,78.0
1455,43.0,0,113,0.0,108.0
1456,55.0,0,114,0.0,120.0
1457,74.0,30,25,0.0,85.0
1458,55.0,30,122,1.0,78.0
1459,74.0,0,35,1.0,78.0
1460,67.0,0,165,1.0,78.0
1461,52.0,30,60,1.0,78.0
1462,72.0,0,64,1.0,90.0
1463,67.0,0,28,0.0,93.0
1464,67.0,0,40,1.0,68.0
1465,48.0,0,49,1.0,78.0
1466,64.0,30,24,0.0,77.0
1467,48.0,0,117,0.0,108.0
1468,72.0,0,117,0.0,101.0
1469,36.0,0,121,0.0,120.0
1470,72.0,0,33,0.0,93.0
1471,72.0,0,55,1.0,78.0
1472,67.0,30,30,0.0,77.0
1473,64.0,0,188,1.0,68.0
1474,71.0,30,32,0.0,93.0
1475,65.0,0,36,1.0,78.0
1476,74.0,0,38,0.0,93.0
1477,65.0,0,27,0.0,77.0
1478,74.0,0,58,1.0,90.0
1479,55.0,0,120,0.0,108.0
1480,43.0,30,121,0.0,108.0
1481,62.0,30,31,1.0,78.0
1482,67.0,0,159,1.0,78.0
1483,72.0,30,28,0.0,77.0
1484,60.0,0,62,1.0,78.0
1485,67.0,30,30,0.0,77.0
1486,67.0,0,44,1.0,78.0
1487,48.0,0,115,0.0,108.0
1488,55.0,0,56,1.0,78.0
1489,60.0,0,118,0.0,108.0
1490,64.0,30,35,0.0,77.0
1491,67.0,0,20,0.0,70.0
1492,76.0,30,149,0.0,103.0
1493,72.0,30,25,0.0,70.0
1494,60.0,30,59,1.0,78.0
1495,76.0,0,182,1.0,68.0
1496,77.0,0,23,0.0,93.0
1497,77.0,30,31,1.0,78.0
1498,71.0,0,32,0.0,103.0
1499,74.0,0,25,0.0,85.0
1500,55.0,0,117,1.0,90.0
1501,43.0,0,119,0.0,108.0
1502,74.0,30,29,1.0,68.0
1503,62.0,0,60,1.0,78.0
1504,55.0,0,121,0.0,108.0
1505,67.0,0,158,1.0,78.0
1506,36.0,0,43,0.0,108.0
1507,52.0,30,56,1.0,78.0
1508,48.0,0,61,0.0,108.0
1509,64.0,0,82,0.0,103.0
1510,72.0,0,85,0.0,93.0
1511,52.0,60,32,0.0,98.0
1512,72.0,0,97,1.0,78.0
1513,67.0,0,43,1.0,68.0
1514,48.0,0,43,1.0,78.0
1515,55.0,30,29,0.0,80.0
1516,67.0,0,19,0.0,103.0
1517,76.0,0,28,0.0,93.0
1518,48.0,0,52,0.0,108.0
1519,76.0,30,56,1.0,78.0
1520,64.0,0,179,1.0,78.0
1521,60.0,0,60,1.0,78.0
1522,67.0,0,61,1.0,90.0
1523,60.0,0,64,0.0,98.0
1524,77.0,0,24,0.0,93.0
1525,72.0,0,25,0.0,103.0
1526,65.0,60,49,1.0,78.0
1527,45.0,0,53,0.0,98.0
1528,57.0,0,54,0.0,108.0
1529,60.0,0,60,1.0,68.0
1530,57.0,0,61,1.0,90.0
1531,77.0,0,61,1.0,78.0
1532,74.0,0,24,0.0,103.0
1533,65.0,60,36,0.0,113.0
1534,47.0,0,57,0.0,120.0
1535,65.0,0,58,1.0,90.0
1536,74.0,0,60,1.0,78.0
1537,59.0,0,60,1.0,78.0
1538,62.0,0,60,1.0,78.0
1539,59.0,0,61,0.0,98.0
1540,71.0,60,22,0.0,93.0
1541,76.0,0,24,0.0,85.0
1542,64.0,0,44,1.0,78.0
1543,59.0,0,53,1.0,78.0
1544,55.0,0,58,1.0,78.0
1545,55.0,0,59,0.0,108.0
1546,76.0,0,59,1.0,78.0
1547,43.0,0,60,0.0,98.0
1548,64.0,60,23,0.0,103.0
1549,72.0,0,24,0.0,103.0
1550,60.0,0,57,1.0,78.0
1551,64.0,0,58,1.0,68.0
1552,57.0,0,60,0.0,98.0
1553,45.0,0,61,0.0,108.0
1554,72.0,0,61,1.0,68.0
1555,57.0,0,2,1.0,78.0
1556,69.0,0,19,0.0,103.0
1557,74.0,0,21,0.0,113.0
1558,62.0,0,41,1.0,68.0
1559,54.0,0,56,1.0,90.0
1560,42.0,0,56,0.0,120.0
1561,54.0,0,58,0.0,120.0
1562,74.0,60,60,1.0,78.0
1563,62.0,0,38,0.0,103.0
1564,71.0,0,46,0.0,93.0
1565,71.0,0,59,1.0,78.0
1566,43.0,0,60,0.0,108.0
1567,55.0,0,61,0.0,108.0
1568,55.0,0,61,1.0,78.0
1569,60.0,0,12,0.0,85.0
1570,69.0,0,18,0.0,93.0
1571,69.0,0,27,1.0,78.0
1572,57.0,0,31,1.0,78.0
1573,59.0,0,12,0.0,77.0
1574,67.0,0,14,0.0,70.0
1575,67.0,30,27,1.0,78.0
1576,62.0,60,118,1.0,78.0
1577,53.0,0,58,0.0,108.0
1578,41.0,0,59,0.0,98.0
1579,53.0,60,59,1.0,78.0
1580,59.0,0,35,1.0,68.0
1581,72.0,0,26,0.0,103.0
1582,67.0,0,28,0.0,103.0
1583,64.0,0,58,1.0,78.0
1584,52.0,0,59,0.0,98.0
1585,52.0,30,60,1.0,78.0
1586,40.0,0,60,0.0,98.0
1587,72.0,0,60,1.0,78.0
1588,60.0,0,61,1.0,78.0
1589,77.0,0,24,0.0,113.0
1590,74.0,0,25,0.0,113.0
1591,67.0,0,27,0.0,103.0
1592,77.0,0,44,1.0,58.0
1593,67.0,60,45,1.0,78.0
1594,62.0,0,47,1.0,78.0
1595,35.0,0,55,0.0,98.0
1596,47.0,0,56,0.0,108.0
1597,47.0,0,58,1.0,78.0
1598,48.0,0,32,0.0,108.0
1599,36.0,0,34,0.0,108.0
1600,47.0,30,35,0.0,88.0
1601,48.0,60,90,1.0,78.0
1602,48.0,30,33,0.0,88.0
1603,74.0,0,117,0.0,113.0
1604,77.0,0,118,0.0,113.0
1605,77.0,0,120,1.0,78.0
1606,62.0,0,122,1.0,78.0
1607,67.0,0,123,0.0,113.0
1608,50.0,30,34,0.0,88.0
1609,50.0,0,40,1.0,78.0
1610,52.0,0,31,0.0,98.0
1611,50.0,30,31,0.0,98.0
1612,52.0,0,84,1.0,78.0
1613,72.0,0,85,0.0,93.0
1614,76.0,0,87,0.0,85.0
1615,52.0,30,35,0.0,88.0
1616,67.0,0,223,1.0,78.0
1617,60.0,30,114,1.0,78.0
1618,76.0,0,116,1.0,90.0
1619,53.0,0,27,1.0,78.0
1620,53.0,30,32,0.0,88.0
1621,67.0,0,35,0.0,93.0
1622,71.0,0,41,0.0,93.0
1623,55.0,0,41,0.0,108.0
1624,74.0,0,41,0.0,103.0
1625,55.0,0,16,0.0,88.0
1626,67.0,60,28,0.0,113.0
1627,79.0,0,29,0.0,103.0
1628,57.0,30,16,0.0,98.0
1629,67.0,0,7,0.0,93.0
1630,79.0,15,8,0.0,103.0
1631,55.0,30,117,1.0,78.0
1632,74.0,0,121,1.0,90.0
1633,67.0,0,121,1.0,68.0
1634,59.0,0,124,1.0,78.0
1635,55.0,0,13,0.0,88.0
1636,79.0,0,42,0.0,113.0
1637,53.0,30,12,0.0,98.0
1638,67.0,15,43,0.0,113.0
1639,52.0,0,15,0.0,98.0
1640,79.0,0,31,0.0,103.0
1641,67.0,30,38,0.0,103.0
1642,50.0,30,9,0.0,88.0
1643,72.0,30,32,0.0,77.0
1644,67.0,30,28,0.0,85.0
1645,48.0,0,109,0.0,80.0
1646,60.0,0,117,1.0,78.0
1647,64.0,30,34,0.0,77.0
1648,67.0,0,24,0.0,85.0
1649,76.0,30,150,0.0,103.0
1650,72.0,30,22,0.0,64.0
1651,76.0,0,181,1.0,78.0
1652,77.0,0,27,0.0,103.0
1653,71.0,0,34,0.0,103.0
1654,77.0,30,36,1.0,78.0
1655,43.0,0,99,0.0,98.0
1656,55.0,0,110,0.0,98.0
1657,74.0,0,29,0.0,70.0
1658,74.0,30,29,1.0,68.0
1659,55.0,0,122,1.0,90.0
1660,67.0,30,165,1.0,90.0
1661,67.0,30,16,0.0,77.0
1662,52.0,0,59,1.0,78.0
1663,72.0,0,62,1.0,78.0
1664,72.0,0,63,0.0,103.0
1665,67.0,0,29,0.0,113.0
1666,67.0,0,43,1.0,78.0
1667,48.0,0,52,1.0,78.0
1668,48.0,30,119,0.0,108.0
1669,60.0,0,124,0.0,108.0
1670,64.0,30,35,0.0,77.0
1671,72.0,30,32,0.0,103.0
1672,72.0,0,59,1.0,78.0
1673,67.0,30,32,0.0,77.0
1674,64.0,0,189,1.0,78.0
1675,74.0,0,28,0.0,103.0
1676,71.0,30,32,0.0,103.0
1677,65.0,0,36,1.0,78.0
1678,43.0,0,114,0.0,98.0
1679,55.0,0,114,0.0,98.0
1680,74.0,0,56,1.0,78.0
1681,62.0,30,31,1.0,68.0
1682,65.0,0,32,0.0,85.0
1683,76.0,0,31,0.0,103.0
1684,67.0,0,156,1.0,78.0
1685,72.0,30,28,0.0,59.0
1686,60.0,0,64,1.0,90.0
1687,67.0,0,32,0.0,103.0
1688,67.0,30,43,1.0,78.0
1689,55.0,0,58,1.0,78.0
1690,64.0,30,28,0.0,59.0
1691,48.0,0,121,0.0,108.0
1692,60.0,0,121,0.0,98.0
1693,67.0,30,25,0.0,85.0
1694,76.0,0,93,0.0,93.0
1695,72.0,30,22,0.0,77.0
1696,76.0,30,179,1.0,78.0
1697,60.0,0,61,1.0,78.0
1698,77.0,0,25,0.0,93.0
1699,77.0,30,29,1.0,78.0
1700,71.0,0,33,0.0,103.0
1701,43.0,0,118,0.0,98.0
1702,74.0,0,30,1.0,68.0
1703,55.0,0,120,0.0,98.0
1704,62.0,0,60,1.0,78.0
1705,74.0,30,34,0.0,85.0
1706,55.0,0,125,1.0,90.0
1707,72.0,30,27,0.0,93.0
1708,67.0,0,157,1.0,78.0
1709,52.0,0,58,1.0,78.0
1710,36.0,0,59,0.0,108.0
1711,48.0,0,60,0.0,108.0
1712,71.0,30,36,0.0,85.0
1713,52.0,30,29,0.0,88.0
1714,72.0,0,32,0.0,85.0
1715,67.0,0,40,1.0,78.0
1716,72.0,0,109,1.0,90.0
1717,48.0,0,51,1.0,78.0
1718,74.0,0,29,0.0,77.0
1719,55.0,30,34,0.0,88.0
1720,67.0,0,29,0.0,113.0
1721,76.0,0,35,0.0,85.0
1722,60.0,30,57,0.0,98.0
1723,67.0,0,57,1.0,78.0
1724,76.0,0,58,1.0,78.0
1725,48.0,0,60,0.0,108.0
1726,60.0,0,60,1.0,78.0
1727,64.0,0,183,1.0,78.0
1728,77.0,0,25,0.0,103.0
1729,72.0,0,29,0.0,103.0
1730,65.0,60,42,1.0,90.0
1731,45.0,0,59,0.0,98.0
1732,57.0,0,59,0.0,108.0
1733,77.0,0,60,1.0,78.0
1734,57.0,0,64,1.0,78.0
1735,60.0,0,64,1.0,68.0
1736,74.0,0,26,0.0,103.0
1737,65.0,0,31,0.0,113.0
1738,74.0,0,55,1.0,68.0
1739,47.0,60,58,0.0,120.0
1740,62.0,0,58,1.0,78.0
1741,65.0,0,59,1.0,90.0
1742,59.0,0,60,1.0,68.0
1743,59.0,0,63,0.0,108.0
1744,71.0,0,23,0.0,113.0
1745,76.0,0,25,0.0,93.0
1746,64.0,0,46,1.0,78.0
1747,55.0,0,56,0.0,108.0
1748,55.0,0,56,1.0,78.0
1749,43.0,0,57,0.0,98.0
1750,59.0,0,59,1.0,78.0
1751,76.0,60,60,1.0,68.0
1752,72.0,60,26,0.0,103.0
1753,64.0,0,27,0.0,103.0
1754,64.0,0,54,1.0,68.0
1755,45.0,0,58,0.0,108.0
1756,60.0,0,58,1.0,68.0
1757,72.0,0,59,1.0,78.0
1758,57.0,0,2,1.0,68.0
1759,57.0,0,62,0.0,108.0
1760,74.0,0,20,0.0,103.0
1761,69.0,0,27,0.0,103.0
1762,62.0,0,40,1.0,68.0
1763,54.0,0,55,1.0,90.0
1764,74.0,60,58,1.0,78.0
1765,42.0,0,58,0.0,108.0
1766,54.0,0,59,0.0,120.0
1767,67.0,60,40,0.0,103.0
1768,71.0,0,46,0.0,103.0
1769,74.0,0,47,0.0,113.0
1770,43.0,0,58,0.0,108.0
1771,55.0,0,59,0.0,98.0
1772,59.0,0,59,1.0,68.0
1773,55.0,0,68,1.0,78.0
1774,67.0,0,68,1.0,78.0
1775,69.0,0,30,0.0,93.0
1776,69.0,0,33,1.0,68.0
1777,53.0,0,57,0.0,98.0
1778,41.0,60,58,0.0,98.0
1779,53.0,0,59,1.0,78.0
1780,62.0,0,120,1.0,90.0
1781,57.0,0,62,1.0,78.0
1782,71.0,0,32,1.0,58.0
1783,71.0,30,37,0.0,77.0
1784,72.0,0,31,0.0,93.0
1785,72.0,0,35,1.0,78.0
1786,67.0,0,55,1.0,78.0
1787,40.0,0,58,0.0,88.0
1788,52.0,0,58,1.0,78.0
1789,52.0,0,60,0.0,98.0
1790,74.0,30,34,1.0,78.0
1791,74.0,0,47,0.0,103.0
1792,76.0,0,26,0.0,85.0
1793,76.0,0,30,1.0,68.0
1794,77.0,0,25,0.0,85.0
1795,50.0,30,57,1.0,78.0
1796,38.0,0,59,0.0,98.0
1797,50.0,0,59,0.0,108.0
1798,65.0,0,60,1.0,78.0
1799,77.0,30,37,1.0,68.0
1800,76.0,0,37,0.0,93.0
1801,79.0,0,39,0.0,103.0
1802,55.0,30,177,1.0,90.0
1803,67.0,0,57,0.0,103.0
1804,36.0,0,61,0.0,108.0
1805,64.0,0,61,1.0,68.0
1806,48.0,30,62,0.0,108.0
1807,48.0,0,64,1.0,68.0
1808,79.0,0,65,1.0,78.0
1809,67.0,0,44,1.0,78.0
1810,60.0,0,48,1.0,78.0
1811,76.0,0,53,0.0,93.0
1812,76.0,0,58,1.0,78.0
1813,40.0,60,60,0.0,88.0
1814,52.0,0,60,0.0,108.0
1815,52.0,0,60,1.0,78.0
1816,43.0,60,50,0.0,88.0
1817,55.0,0,54,0.0,108.0
1818,72.0,0,115,0.0,103.0
1819,60.0,0,64,1.0,78.0
1820,74.0,0,64,0.0,103.0
1821,71.0,60,33,0.0,85.0
1822,72.0,30,17,0.0,77.0
1823,74.0,15,9,0.0,85.0
1824,67.0,0,115,1.0,78.0
1825,74.0,0,118,1.0,78.0
1826,43.0,0,59,0.0,88.0
1827,31.0,0,60,0.0,108.0
1828,59.0,0,61,1.0,78.0
1829,55.0,0,124,1.0,68.0
1830,48.0,0,31,0.0,108.0
1831,36.0,15,32,0.0,98.0
1832,64.0,0,41,0.0,103.0
1833,72.0,0,53,0.0,113.0
1834,48.0,60,28,0.0,108.0
1835,48.0,0,107,1.0,78.0
1836,60.0,0,49,0.0,103.0
1837,72.0,0,110,1.0,78.0
1838,67.0,0,116,1.0,90.0
1839,60.0,0,126,1.0,78.0
1840,52.0,0,29,0.0,98.0
1841,64.0,60,59,0.0,103.0
1842,48.0,60,31,0.0,98.0
1843,60.0,0,35,0.0,93.0
1844,55.0,0,74,0.0,59.0
1845,59.0,0,172,1.0,50.0
1846,74.0,60,177,1.0,35.0
1847,76.0,0,30,1.0,35.0
1848,60.0,180,30,1.0,42.0
1849,67.0,0,225,1.0,35.0
1850,72.0,30,23,1.0,24.0
1851,57.0,0,31,1.0,42.0
1852,55.0,0,243,1.0,78.0
1853,43.0,0,48,1.0,15.0
1854,62.0,0,52,1.0,50.0
1855,67.0,30,53,1.0,29.0
1856,77.0,0,54,1.0,42.0
1857,43.0,0,61,0.0,59.0
1858,62.0,0,40,0.0,38.0
1859,77.0,60,42,0.0,39.0
1860,59.0,0,42,0.0,34.0
1861,74.0,0,42,0.0,50.0
1862,72.0,0,28,0.0,45.0
1863,76.0,60,29,0.0,43.0
1864,64.0,0,36,0.0,49.0
1865,60.0,0,38,0.0,38.0
1866,71.0,0,23,0.0,50.0
1867,74.0,0,28,0.0,39.0
1868,67.0,0,450,0.0,50.0
1869,62.0,60,38,0.0,49.0
1870,65.0,0,38,0.0,54.0
1871,55.0,60,120,0.0,59.0
1872,76.0,0,174,1.0,29.0
1873,60.0,0,180,1.0,35.0
1874,62.0,0,27,1.0,35.0
1875,77.0,180,28,1.0,24.0
1876,67.0,0,225,1.0,29.0
1877,74.0,30,29,1.0,35.0
1878,59.0,0,32,1.0,29.0
1879,55.0,0,245,1.0,35.0
1880,79.0,30,45,1.0,24.0
1881,64.0,0,49,1.0,29.0
1882,43.0,0,49,1.0,15.0
1883,67.0,0,54,1.0,29.0
1884,43.0,0,82,0.0,54.0
1885,76.0,0,23,0.0,45.0
1886,79.0,60,28,0.0,43.0
1887,60.0,0,35,0.0,40.0
1888,64.0,0,37,0.0,65.0
1889,62.0,60,23,0.0,45.0
1890,65.0,0,26,0.0,54.0
1891,77.0,0,31,0.0,54.0
1892,74.0,0,34,0.0,54.0
1893,72.0,0,23,0.0,43.0
1894,67.0,0,23,0.0,54.0
1895,76.0,60,29,0.0,50.0
1896,64.0,0,41,0.0,49.0
1897,55.0,60,40,0.0,72.0
1898,83.0,0,53,0.0,64.0
1899,67.0,30,29,0.0,45.0
1900,65.0,0,23,0.0,49.0
1901,67.0,30,28,0.0,38.0
1902,65.0,30,25,0.0,49.0
1903,55.0,0,163,1.0,29.0
1904,65.0,0,173,1.0,50.0
1905,67.0,30,26,0.0,32.0
1906,62.0,0,179,1.0,35.0
1907,71.0,0,182,1.0,42.0
1908,83.0,30,123,0.0,64.0
1909,64.0,30,25,0.0,49.0
1910,64.0,0,33,1.0,35.0
1911,72.0,0,37,1.0,15.0
1912,55.0,0,40,1.0,35.0
1913,84.0,0,50,0.0,64.0
1914,67.0,30,24,0.0,40.0
1915,60.0,0,57,1.0,29.0
1916,55.0,0,34,0.0,54.0
1917,83.0,0,38,0.0,45.0
1918,67.0,30,27,0.0,45.0
1919,65.0,30,26,0.0,54.0
1920,67.0,30,31,0.0,38.0
1921,65.0,30,25,0.0,40.0
1922,55.0,0,158,1.0,29.0
1923,71.0,30,177,1.0,35.0
1924,67.0,30,29,0.0,38.0
1925,65.0,0,179,1.0,42.0
1926,62.0,0,183,1.0,42.0
1927,83.0,0,131,0.0,59.0
1928,79.0,0,432,0.0,54.0
1929,64.0,30,26,0.0,32.0
1930,72.0,0,29,1.0,35.0
1931,55.0,0,31,1.0,24.0
1932,64.0,0,31,1.0,29.0
1933,84.0,0,41,0.0,70.0
1934,67.0,30,25,0.0,45.0
1935,60.0,0,60,1.0,42.0
1936,55.0,0,18,0.0,65.0
1937,77.0,0,33,0.0,64.0
1938,62.0,30,13,0.0,65.0
1939,62.0,0,60,1.0,19.0
1940,55.0,0,15,0.0,45.0
1941,62.0,30,16,0.0,38.0
1942,55.0,0,122,1.0,35.0
1943,59.0,0,2,1.0,42.0
1944,55.0,0,13,0.0,49.0
1945,47.0,30,31,0.0,54.0
1946,67.0,0,102,1.0,35.0
1947,74.0,0,103,0.0,54.0
1948,62.0,30,15,0.0,54.0
1949,77.0,30,110,0.0,54.0
1950,62.0,0,56,1.0,42.0
1951,77.0,0,178,1.0,42.0
1952,55.0,0,16,0.0,49.0
1953,72.0,0,28,0.0,50.0
1954,76.0,0,29,0.0,50.0
1955,48.0,0,31,0.0,45.0
1956,76.0,30,35,1.0,29.0
1957,67.0,0,40,1.0,42.0
1958,60.0,0,46,1.0,42.0
1959,60.0,30,20,0.0,54.0
1960,60.0,0,2,1.0,35.0
1961,76.0,0,25,0.0,45.0
1962,72.0,0,25,0.0,50.0
1963,55.0,0,38,1.0,35.0
1964,67.0,30,39,1.0,24.0
1965,76.0,0,58,1.0,35.0
1966,43.0,0,77,0.0,54.0
1967,67.0,60,39,1.0,35.0
1968,74.0,0,46,1.0,35.0
1969,55.0,0,50,1.0,29.0
1970,59.0,0,51,1.0,42.0
1971,71.0,0,61,0.0,59.0
1972,67.0,0,63,0.0,50.0
1973,74.0,0,65,0.0,45.0
1974,55.0,60,14,0.0,120.0
1975,53.0,30,16,0.0,108.0
1976,52.0,30,16,0.0,98.0
1977,50.0,30,13,0.0,98.0
1978,48.0,0,28,0.0,108.0
1979,50.0,30,33,0.0,108.0
1980,52.0,30,27,0.0,108.0
1981,48.0,0,115,1.0,90.0
1982,76.0,0,118,0.0,113.0
1983,48.0,30,29,0.0,98.0
1984,72.0,30,119,0.0,125.0
1985,76.0,0,122,1.0,90.0
1986,60.0,0,128,1.0,90.0
1987,53.0,0,30,0.0,108.0
1988,55.0,30,30,0.0,98.0
1989,74.0,0,84,1.0,90.0
1990,59.0,0,84,1.0,78.0
1991,74.0,0,85,0.0,113.0
1992,53.0,30,87,1.0,90.0
1993,67.0,0,89,0.0,113.0
1994,71.0,0,90,0.0,113.0
1995,53.0,30,34,0.0,108.0
1996,72.0,0,8,0.0,93.0
1997,76.0,0,10,0.0,103.0
1998,67.0,0,235,1.0,90.0
1999,52.0,30,28,1.0,78.0
2000,76.0,0,28,1.0,78.0
2001,52.0,0,31,0.0,98.0
2002,60.0,0,32,1.0,78.0
2003,50.0,30,32,0.0,108.0
2004,52.0,30,30,0.0,108.0
2005,50.0,30,30,0.0,108.0
2006,49.0,30,29,0.0,108.0
2007,57.0,0,122,1.0,90.0
2008,65.0,0,122,1.0,90.0
2009,50.0,0,122,1.0,78.0
2010,77.0,0,123,1.0,78.0
2011,69.0,0,124,0.0,103.0
2012,74.0,0,126,0.0,113.0
2013,77.0,0,128,0.0,113.0
2014,50.0,30,29,0.0,108.0
2015,45.0,30,36,0.0,98.0
2016,47.0,30,30,0.0,98.0
2017,49.0,30,30,0.0,108.0
2018,50.0,0,34,0.0,108.0
2019,52.0,30,31,0.0,98.0
2020,53.0,30,29,0.0,98.0
2021,77.0,30,114,0.0,113.0
2022,74.0,0,115,0.0,125.0
2023,69.0,0,117,1.0,90.0
2024,77.0,0,118,1.0,90.0
2025,50.0,0,120,1.0,90.0
2026,50.0,30,30,0.0,98.0
2027,57.0,0,121,1.0,90.0
2028,55.0,0,30,0.0,120.0
2029,57.0,30,31,0.0,98.0
2030,76.0,0,84,0.0,103.0
2031,60.0,0,85,1.0,78.0
2032,55.0,30,89,1.0,78.0
2033,72.0,0,89,0.0,113.0
2034,55.0,30,30,0.0,108.0
2035,76.0,0,93,1.0,78.0
2036,77.0,0,7,0.0,103.0
2037,74.0,0,8,0.0,113.0
2038,67.0,0,110,1.0,78.0
2039,77.0,30,26,1.0,78.0
2040,53.0,0,30,1.0,78.0
2041,62.0,0,33,1.0,78.0
2042,53.0,0,33,0.0,98.0
2043,52.0,0,32,0.0,98.0
2044,53.0,30,34,0.0,98.0
2045,52.0,30,33,0.0,98.0
2046,64.0,30,106,1.0,78.0
2047,50.0,30,28,0.0,98.0
2048,52.0,0,118,1.0,78.0
2049,67.0,0,122,0.0,113.0
2050,76.0,0,123,0.0,103.0
2051,67.0,0,125,1.0,90.0
2052,79.0,0,129,0.0,103.0
2053,79.0,0,130,1.0,68.0
2054,48.0,30,31,0.0,80.0
2055,43.0,30,33,0.0,108.0
2056,45.0,30,31,0.0,98.0
2057,47.0,30,28,0.0,98.0
2058,48.0,0,34,0.0,98.0
2059,52.0,30,29,0.0,98.0
2060,55.0,30,31,0.0,98.0
2061,79.0,0,105,0.0,125.0
2062,76.0,30,108,0.0,103.0
2063,72.0,0,108,0.0,113.0
2064,67.0,0,112,1.0,90.0
2065,79.0,0,115,1.0,90.0
2066,64.0,0,122,1.0,78.0
2067,60.0,30,33,0.0,98.0
2068,60.0,0,7,1.0,78.0
2069,57.0,0,32,0.0,108.0
2070,59.0,30,39,0.0,88.0
2071,72.0,0,74,0.0,103.0
2072,77.0,0,77,0.0,103.0
2073,77.0,0,87,1.0,78.0
2074,57.0,30,88,1.0,90.0
2075,57.0,30,31,0.0,98.0
2076,72.0,0,95,1.0,78.0
2077,71.0,0,12,0.0,93.0
2078,72.0,30,17,0.0,85.0
2079,76.0,0,18,0.0,85.0
2080,55.0,0,29,0.0,98.0
2081,55.0,0,30,1.0,78.0
2082,76.0,0,30,1.0,68.0
2083,71.0,0,31,1.0,78.0
2084,53.0,0,33,0.0,98.0
2085,55.0,30,33,0.0,98.0
2086,72.0,0,71,0.0,113.0
2087,69.0,30,73,0.0,113.0
2088,74.0,0,73,0.0,113.0
2089,69.0,0,88,1.0,78.0
2090,53.0,0,89,1.0,78.0
2091,53.0,30,31,0.0,98.0
2092,74.0,0,92,1.0,78.0
2093,72.0,0,13,0.0,93.0
2094,67.0,0,13,0.0,103.0
2095,67.0,30,17,1.0,78.0
2096,52.0,0,28,0.0,98.0
2097,52.0,0,31,1.0,58.0
2098,72.0,0,33,1.0,68.0
2099,50.0,0,31,0.0,98.0
2100,65.0,0,59,0.0,113.0
2101,67.0,0,63,0.0,113.0
2102,52.0,30,38,0.0,98.0
2103,71.0,0,69,0.0,113.0
2104,65.0,0,89,1.0,78.0
2105,50.0,30,29,0.0,98.0
2106,50.0,0,90,1.0,90.0
2107,74.0,30,91,1.0,90.0
2108,64.0,0,7,0.0,103.0
2109,72.0,0,10,0.0,103.0
2110,48.0,0,23,1.0,78.0
2111,76.0,30,26,1.0,78.0
2112,67.0,0,117,1.0,90.0
2113,48.0,0,29,0.0,98.0
2114,64.0,0,30,1.0,68.0
2115,53.0,0,32,0.0,108.0
2116,50.0,30,37,0.0,98.0
2117,74.0,0,91,0.0,113.0
2118,52.0,30,32,0.0,98.0
2119,69.0,0,97,0.0,113.0
2120,79.0,0,105,0.0,103.0
2121,77.0,30,116,1.0,68.0
2122,69.0,0,117,1.0,90.0
2123,53.0,30,31,0.0,108.0
2124,62.0,0,122,1.0,78.0
2125,53.0,0,127,1.0,78.0
2126,55.0,30,31,0.0,98.0
2127,54.0,30,27,0.0,120.0
2128,71.0,0,95,0.0,113.0
2129,74.0,0,95,0.0,113.0
2130,67.0,0,95,0.0,113.0
2131,55.0,30,36,0.0,108.0
2132,67.0,0,113,1.0,78.0
2133,55.0,0,116,1.0,78.0
2134,74.0,0,119,1.0,78.0
2135,59.0,0,120,1.0,78.0
2136,43.0,30,31,0.0,88.0
2137,48.0,30,29,0.0,108.0
2138,64.0,0,45,0.0,113.0
2139,72.0,0,53,0.0,113.0
2140,48.0,0,24,0.0,120.0
2141,60.0,60,40,0.0,85.0
2142,60.0,0,108,1.0,78.0
2143,67.0,0,115,1.0,78.0
2144,72.0,0,115,1.0,90.0
2145,48.0,0,115,1.0,78.0
2146,52.0,0,20,0.0,120.0
2147,64.0,60,41,0.0,113.0
2148,48.0,60,18,0.0,88.0
2149,60.0,0,29,0.0,85.0
2150,55.0,0,108,0.0,49.0
2151,74.0,60,174,1.0,35.0
2152,59.0,0,182,1.0,29.0
2153,60.0,180,27,1.0,24.0
2154,76.0,0,32,1.0,15.0
2155,67.0,0,222,1.0,29.0
2156,72.0,0,29,1.0,10.0
2157,57.0,30,30,1.0,35.0
2158,55.0,0,252,1.0,24.0
2159,43.0,0,52,1.0,19.0
2160,67.0,0,58,1.0,35.0
2161,77.0,30,61,1.0,15.0
2162,43.0,0,61,0.0,40.0
2163,74.0,0,12,0.0,54.0
2164,77.0,0,16,0.0,54.0
2165,59.0,60,18,0.0,40.0
2166,62.0,0,78,1.0,35.0
2167,62.0,0,24,0.0,45.0
2168,72.0,0,19,0.0,26.0
2169,76.0,0,21,0.0,30.0
2170,60.0,0,24,0.0,49.0
2171,64.0,60,28,0.0,38.0
2172,71.0,60,14,0.0,50.0
2173,67.0,0,435,0.0,59.0
2174,74.0,0,18,0.0,43.0
2175,62.0,0,24,0.0,54.0
2176,65.0,0,26,0.0,54.0
2177,55.0,0,110,0.0,72.0
2178,76.0,0,175,1.0,15.0
2179,60.0,60,181,1.0,24.0
2180,62.0,0,26,1.0,24.0
2181,77.0,180,31,1.0,29.0
2182,67.0,0,215,1.0,29.0
2183,59.0,30,28,1.0,24.0
2184,74.0,0,30,1.0,24.0
2185,55.0,0,241,1.0,42.0
2186,79.0,0,40,1.0,19.0
2187,67.0,30,46,1.0,42.0
2188,43.0,0,52,1.0,19.0
2189,64.0,0,52,1.0,24.0
2190,43.0,0,56,0.0,40.0
2191,76.0,60,14,0.0,54.0
2192,79.0,0,16,0.0,50.0
2193,60.0,0,22,0.0,40.0
2194,64.0,0,23,0.0,38.0
2195,77.0,0,18,0.0,59.0
2196,74.0,0,20,0.0,54.0
2197,65.0,60,22,0.0,49.0
2198,62.0,0,22,0.0,40.0
2199,67.0,0,10,0.0,54.0
2200,72.0,0,10,0.0,45.0
2201,76.0,60,16,0.0,50.0
2202,64.0,0,34,0.0,65.0
2203,83.0,0,24,0.0,64.0
2204,55.0,60,47,0.0,65.0
2205,67.0,30,32,0.0,80.0
2206,65.0,30,26,0.0,72.0
2207,67.0,30,31,0.0,45.0
2208,65.0,30,27,0.0,54.0
2209,55.0,0,161,1.0,42.0
2210,65.0,0,176,1.0,35.0
2211,83.0,0,118,0.0,45.0
2212,74.0,0,179,1.0,35.0
2213,67.0,30,32,0.0,40.0
2214,71.0,0,183,1.0,24.0
2215,64.0,30,25,0.0,59.0
2216,72.0,0,32,1.0,29.0
2217,55.0,0,32,1.0,24.0
2218,76.0,0,33,1.0,19.0
2219,67.0,30,26,0.0,40.0
2220,84.0,0,57,0.0,54.0
2221,64.0,0,62,1.0,35.0
2222,83.0,0,20,0.0,43.0
2223,55.0,30,34,0.0,72.0
2224,67.0,30,31,0.0,59.0
2225,65.0,30,27,0.0,65.0
2226,67.0,30,33,0.0,45.0
2227,65.0,30,25,0.0,59.0
2228,55.0,0,156,1.0,50.0
2229,74.0,0,175,1.0,29.0
2230,67.0,30,26,0.0,40.0
2231,71.0,0,180,1.0,19.0
2232,65.0,0,182,1.0,42.0
2233,83.0,0,123,0.0,54.0
2234,84.0,0,12,0.0,59.0
2235,64.0,0,28,0.0,49.0
2236,72.0,0,33,1.0,29.0
2237,55.0,30,33,1.0,24.0
2238,79.0,0,458,0.0,43.0
2239,76.0,0,39,1.0,19.0
2240,67.0,30,17,0.0,49.0
2241,64.0,0,61,1.0,35.0
2242,77.0,0,30,0.0,70.0
2243,55.0,0,36,0.0,59.0
2244,71.0,30,57,1.0,35.0
2245,62.0,30,31,0.0,88.0
2246,55.0,0,34,0.0,65.0
2247,62.0,30,28,0.0,65.0
2248,55.0,0,119,1.0,50.0
2249,77.0,0,131,1.0,35.0
2250,55.0,30,29,0.0,80.0
2251,47.0,0,31,0.0,80.0
2252,67.0,0,102,1.0,42.0
2253,74.0,0,112,0.0,59.0
2254,77.0,30,116,0.0,59.0
2255,59.0,0,56,1.0,50.0
2256,62.0,0,176,1.0,42.0
2257,62.0,30,29,0.0,65.0
2258,76.0,0,19,0.0,39.0
2259,72.0,0,20,0.0,45.0
2260,55.0,30,29,0.0,98.0
2261,48.0,0,32,0.0,88.0
2262,67.0,0,41,1.0,35.0
2263,76.0,0,45,1.0,50.0
2264,60.0,0,50,1.0,42.0
2265,60.0,30,29,0.0,80.0
2266,72.0,0,29,0.0,59.0
2267,76.0,0,39,0.0,59.0
2268,67.0,0,40,1.0,42.0
2269,55.0,30,49,1.0,42.0
2270,76.0,0,57,1.0,42.0
2271,60.0,0,58,1.0,42.0
2272,43.0,0,61,0.0,108.0
2273,55.0,60,41,1.0,50.0
2274,59.0,0,47,1.0,42.0
2275,67.0,0,47,1.0,50.0
2276,74.0,0,55,1.0,42.0
2277,67.0,0,73,0.0,43.0
2278,71.0,0,73,0.0,64.0
2279,74.0,0,74,0.0,54.0
2280,55.0,60,20,0.0,120.0
2281,53.0,30,17,0.0,120.0
2282,52.0,30,25,0.0,108.0
2283,50.0,30,18,0.0,108.0
2284,48.0,0,25,0.0,120.0
2285,50.0,30,22,0.0,98.0
2286,52.0,30,25,0.0,108.0
2287,48.0,30,17,0.0,98.0
2288,48.0,0,110,1.0,78.0
2289,76.0,0,113,0.0,113.0
2290,72.0,0,117,0.0,113.0
2291,76.0,0,120,1.0,78.0
2292,60.0,30,121,1.0,90.0
2293,53.0,0,27,0.0,120.0
2294,55.0,30,23,0.0,108.0
2295,74.0,30,82,1.0,90.0
2296,59.0,0,86,1.0,78.0
2297,74.0,0,86,0.0,113.0
2298,53.0,30,27,0.0,108.0
2299,71.0,0,89,0.0,113.0
2300,67.0,0,90,0.0,113.0
2301,53.0,0,92,1.0,78.0
2302,76.0,0,9,0.0,93.0
2303,72.0,0,9,0.0,93.0
2304,76.0,0,28,1.0,78.0
2305,52.0,0,29,1.0,78.0
2306,67.0,0,239,1.0,90.0
2307,52.0,0,31,0.0,108.0
2308,60.0,30,32,1.0,78.0
2309,50.0,30,29,0.0,108.0
2310,52.0,30,26,0.0,98.0
2311,65.0,0,65,1.0,90.0
2312,57.0,0,85,1.0,78.0
2313,50.0,30,27,0.0,108.0
2314,49.0,30,25,0.0,108.0
2315,50.0,0,118,1.0,78.0
2316,69.0,0,123,0.0,113.0
2317,74.0,0,126,0.0,113.0
2318,77.0,0,126,1.0,90.0
2319,77.0,0,128,0.0,103.0
2320,50.0,30,29,0.0,108.0
2321,45.0,30,28,0.0,108.0
2322,47.0,30,32,0.0,98.0
2323,49.0,30,23,0.0,108.0
2324,50.0,0,33,0.0,120.0
2325,52.0,30,23,0.0,108.0
2326,53.0,30,31,0.0,108.0
2327,50.0,0,113,1.0,90.0
2328,57.0,0,116,1.0,78.0
2329,69.0,30,117,1.0,90.0
2330,77.0,0,118,1.0,78.0
2331,77.0,0,118,0.0,125.0
2332,74.0,0,118,0.0,125.0
2333,50.0,30,29,0.0,98.0
2334,55.0,0,30,0.0,108.0
2335,57.0,30,31,0.0,108.0
2336,72.0,0,82,0.0,113.0
2337,76.0,0,85,0.0,113.0
2338,55.0,0,86,1.0,78.0
2339,76.0,0,89,1.0,90.0
2340,60.0,0,91,1.0,78.0
2341,55.0,30,32,0.0,108.0
2342,74.0,0,10,0.0,103.0
2343,67.0,30,101,1.0,78.0
2344,77.0,0,15,0.0,93.0
2345,62.0,30,25,1.0,78.0
2346,53.0,0,29,1.0,78.0
2347,77.0,0,30,1.0,78.0
2348,53.0,0,31,0.0,108.0
2349,52.0,0,27,0.0,108.0
2350,53.0,30,31,0.0,108.0
2351,52.0,30,35,0.0,108.0
2352,67.0,0,113,0.0,113.0
2353,52.0,0,114,1.0,68.0
2354,50.0,30,25,0.0,98.0
2355,76.0,0,115,0.0,103.0
2356,79.0,0,118,0.0,103.0
2357,79.0,30,125,1.0,78.0
2358,67.0,0,126,1.0,90.0
2359,64.0,0,128,1.0,78.0
2360,48.0,30,31,0.0,98.0
2361,43.0,30,34,0.0,108.0
2362,45.0,30,30,0.0,88.0
2363,47.0,30,25,0.0,98.0
2364,48.0,0,34,0.0,88.0
2365,52.0,30,29,0.0,98.0
2366,55.0,30,29,0.0,98.0
2367,79.0,0,103,0.0,113.0
2368,76.0,0,105,0.0,113.0
2369,72.0,0,107,0.0,113.0
2370,67.0,0,114,1.0,78.0
2371,60.0,30,1,1.0,78.0
2372,64.0,0,122,1.0,78.0
2373,79.0,0,124,1.0,78.0
2374,60.0,30,39,0.0,98.0
2375,57.0,0,33,0.0,98.0
2376,59.0,30,39,0.0,98.0
2377,72.0,0,72,0.0,113.0
2378,77.0,0,73,0.0,113.0
2379,57.0,0,86,1.0,90.0
2380,77.0,0,87,1.0,78.0
2381,57.0,30,29,0.0,98.0
2382,72.0,0,90,1.0,78.0
2383,71.0,0,11,0.0,93.0
2384,76.0,30,16,0.0,93.0
2385,72.0,0,16,0.0,93.0
2386,55.0,0,26,0.0,98.0
2387,76.0,0,29,1.0,68.0
2388,71.0,0,30,1.0,78.0
2389,55.0,0,33,1.0,78.0
2390,53.0,0,34,0.0,108.0
2391,72.0,0,59,0.0,113.0
2392,74.0,0,62,0.0,113.0
2393,69.0,30,63,0.0,113.0
2394,55.0,30,36,0.0,98.0
2395,53.0,0,86,1.0,78.0
2396,74.0,0,87,1.0,78.0
2397,69.0,0,87,1.0,78.0
2398,53.0,30,31,0.0,108.0
2399,72.0,0,9,0.0,103.0
2400,67.0,0,10,0.0,113.0
2401,67.0,0,16,1.0,78.0
2402,52.0,0,27,0.0,108.0
2403,52.0,30,30,1.0,58.0
2404,72.0,0,38,1.0,68.0
2405,50.0,0,31,0.0,108.0
2406,65.0,0,57,0.0,113.0
2407,67.0,0,66,0.0,113.0
2408,52.0,30,38,0.0,98.0
2409,71.0,0,69,0.0,113.0
2410,50.0,30,30,0.0,98.0
2411,50.0,30,91,1.0,78.0
2412,74.0,0,91,1.0,78.0
2413,65.0,0,93,1.0,78.0
2414,64.0,0,7,0.0,103.0
2415,72.0,0,11,0.0,103.0
2416,76.0,30,26,1.0,68.0
2417,67.0,0,117,1.0,90.0
2418,48.0,0,28,1.0,68.0
2419,48.0,0,29,0.0,98.0
2420,64.0,0,31,1.0,58.0
2421,53.0,30,34,0.0,108.0
2422,50.0,30,35,0.0,98.0
2423,52.0,30,34,0.0,108.0
2424,74.0,0,97,0.0,113.0
2425,69.0,0,98,0.0,113.0
2426,77.0,0,104,0.0,113.0
2427,53.0,0,116,1.0,78.0
2428,77.0,0,118,1.0,78.0
2429,62.0,0,119,1.0,78.0
2430,69.0,0,120,1.0,90.0
2431,53.0,30,30,0.0,108.0
2432,55.0,30,32,0.0,98.0
2433,54.0,30,28,0.0,108.0
2434,67.0,0,92,0.0,113.0
2435,55.0,30,36,0.0,98.0
2436,71.0,0,97,0.0,113.0
2437,67.0,0,104,1.0,78.0
2438,74.0,0,108,0.0,125.0
2439,74.0,0,117,1.0,78.0
2440,55.0,0,117,1.0,78.0
2441,43.0,30,28,0.0,98.0
2442,59.0,0,119,1.0,78.0
2443,64.0,0,17,0.0,113.0
2444,48.0,0,19,0.0,98.0
2445,72.0,0,21,0.0,113.0
2446,60.0,30,42,1.0,78.0
2447,48.0,0,48,1.0,78.0
2448,67.0,0,54,1.0,78.0
2449,72.0,0,57,1.0,90.0
2450,76.0,0,22,0.0,50.0
2451,72.0,0,23,0.0,59.0
2452,48.0,0,27,0.0,120.0
2453,60.0,0,36,0.0,108.0
2454,60.0,0,56,1.0,78.0
2455,76.0,0,60,1.0,78.0
2456,72.0,0,22,0.0,85.0
2457,74.0,0,24,0.0,93.0
2458,59.0,0,30,0.0,108.0
2459,47.0,60,32,0.0,120.0
2460,72.0,0,111,1.0,90.0
2461,59.0,0,56,1.0,68.0
2462,74.0,0,62,1.0,90.0
2463,72.0,0,16,0.0,93.0
2464,76.0,0,21,0.0,93.0
2465,46.0,0,27,0.0,120.0
2466,58.0,0,28,0.0,120.0
2467,72.0,0,45,1.0,90.0
2468,60.0,0,45,1.0,78.0
2469,58.0,0,58,1.0,90.0
2470,76.0,60,61,1.0,78.0
2471,77.0,0,61,1.0,78.0
2472,57.0,0,79,0.0,120.0
2473,45.0,0,80,0.0,120.0
2474,72.0,60,85,0.0,113.0
2475,77.0,0,88,0.0,113.0
2476,57.0,0,93,1.0,90.0
2477,72.0,0,14,0.0,93.0
2478,43.0,30,20,0.0,108.0
2479,79.0,0,20,0.0,93.0
2480,55.0,0,26,0.0,120.0
2481,55.0,0,29,1.0,78.0
2482,60.0,0,158,1.0,78.0
2483,72.0,0,41,0.0,113.0
2484,53.0,30,46,0.0,108.0
2485,81.0,0,48,0.0,113.0
2486,41.0,0,49,0.0,98.0
2487,53.0,0,56,1.0,78.0
2488,72.0,60,117,1.0,78.0
2489,77.0,0,33,0.0,113.0
2490,72.0,0,37,0.0,103.0
2491,45.0,60,38,0.0,120.0
2492,57.0,0,44,0.0,120.0
2493,60.0,0,44,1.0,78.0
2494,77.0,0,55,1.0,78.0
2495,65.0,0,55,1.0,90.0
2496,57.0,0,58,1.0,90.0
2497,72.0,0,94,0.0,103.0
2498,76.0,0,103,0.0,103.0
2499,55.0,0,110,0.0,108.0
2500,43.0,0,112,0.0,108.0
2501,76.0,0,118,1.0,78.0
2502,60.0,60,119,1.0,90.0
2503,43.0,0,76,0.0,120.0
2504,55.0,120,77,0.0,120.0
2505,71.0,0,91,0.0,103.0
2506,74.0,0,93,1.0,78.0
2507,67.0,0,93,0.0,113.0
2508,74.0,0,96,0.0,113.0
2509,76.0,0,16,0.0,77.0
2510,55.0,0,22,0.0,108.0
2511,76.0,90,26,1.0,78.0
2512,43.0,0,26,0.0,88.0
2513,59.0,0,117,1.0,78.0
2514,55.0,0,238,1.0,90.0
2515,67.0,0,241,1.0,78.0
2516,72.0,30,40,0.0,113.0
2517,77.0,0,43,0.0,113.0
2518,72.0,0,13,0.0,93.0
2519,60.0,60,13,0.0,93.0
2520,72.0,30,15,0.0,93.0
2521,60.0,0,16,0.0,93.0
2522,60.0,0,116,1.0,78.0
2523,57.0,0,118,1.0,90.0
2524,65.0,0,118,1.0,90.0
2525,45.0,0,123,0.0,108.0
2526,57.0,0,123,0.0,120.0
2527,77.0,0,127,1.0,68.0
2528,60.0,30,37,0.0,103.0
2529,72.0,0,38,0.0,103.0
2530,72.0,60,31,0.0,113.0
2531,60.0,0,31,0.0,103.0
2532,72.0,0,37,0.0,113.0
2533,60.0,60,40,0.0,103.0
2534,72.0,0,23,0.0,93.0
2535,76.0,0,25,0.0,103.0
2536,58.0,0,27,0.0,120.0
2537,46.0,60,29,0.0,120.0
2538,58.0,0,56,1.0,90.0
2539,64.0,0,63,1.0,68.0
2540,57.0,60,24,0.0,120.0
2541,45.0,0,25,0.0,120.0
2542,72.0,0,27,0.0,93.0
2543,77.0,0,32,0.0,103.0
2544,72.0,0,107,1.0,90.0
2545,57.0,0,60,1.0,90.0
2546,60.0,0,122,1.0,78.0
2547,65.0,0,62,1.0,78.0
2548,79.0,0,23,0.0,103.0
2549,72.0,0,24,0.0,93.0
2550,55.0,0,25,0.0,120.0
2551,43.0,0,30,0.0,108.0
2552,72.0,0,41,1.0,78.0
2553,55.0,60,58,1.0,78.0
2554,64.0,0,58,1.0,78.0
2555,67.0,0,61,1.0,78.0
2556,72.0,0,70,0.0,103.0
2557,81.0,0,75,0.0,113.0
2558,72.0,0,88,1.0,78.0
2559,69.0,0,94,1.0,78.0
2560,72.0,0,14,0.0,93.0
2561,83.0,0,15,0.0,113.0
2562,67.0,90,28,1.0,78.0
2563,71.0,0,29,1.0,78.0
2564,72.0,0,33,0.0,113.0
2565,84.0,30,40,0.0,113.0
2566,53.0,0,166,0.0,108.0
2567,53.0,0,173,1.0,90.0
2568,41.0,0,173,0.0,108.0
2569,72.0,0,57,1.0,78.0
2570,69.0,0,62,1.0,78.0
2571,65.0,60,3,1.0,90.0
2572,77.0,0,22,0.0,103.0
2573,72.0,0,27,0.0,103.0
2574,60.0,0,45,1.0,78.0
2575,57.0,0,54,1.0,90.0
2576,77.0,0,55,1.0,78.0
2577,45.0,0,55,0.0,120.0
2578,57.0,0,57,0.0,120.0
2579,76.0,60,80,0.0,113.0
2580,72.0,0,84,0.0,113.0
2581,43.0,0,110,0.0,108.0
2582,55.0,0,114,0.0,120.0
2583,60.0,0,122,1.0,68.0
2584,76.0,0,125,1.0,78.0
2585,67.0,0,78,0.0,113.0
2586,74.0,0,78,0.0,113.0
2587,71.0,0,78,0.0,125.0
2588,67.0,0,230,1.0,78.0
2589,43.0,0,115,0.0,108.0
2590,31.0,0,115,0.0,108.0
2591,74.0,120,116,1.0,90.0
2592,59.0,0,122,1.0,90.0
2593,55.0,0,243,1.0,90.0
2594,72.0,0,32,0.0,113.0
2595,64.0,0,32,0.0,113.0
2596,55.0,60,53,0.0,45.0
2597,67.0,0,116,1.0,90.0
2598,60.0,0,117,1.0,78.0
2599,48.0,0,117,0.0,120.0
2600,36.0,0,117,0.0,108.0
2601,48.0,0,119,1.0,78.0
2602,72.0,120,120,1.0,78.0
2603,60.0,60,47,0.0,43.0
2604,62.0,0,54,0.0,43.0
2605,59.0,60,58,0.0,45.0
2606,48.0,60,57,0.0,54.0
2607,64.0,0,163,0.0,45.0
2608,60.0,0,169,0.0,39.0
2609,55.0,120,53,0.0,49.0
2610,62.0,60,14,0.0,59.0
2611,65.0,0,24,0.0,59.0
2612,59.0,30,11,0.0,54.0
2613,62.0,0,17,0.0,45.0
2614,48.0,0,53,0.0,34.0
2615,60.0,30,61,0.0,64.0
2616,55.0,60,53,0.0,39.0
2617,60.0,0,127,2.0,62.0
2618,60.0,0,59,0.0,50.0
2619,76.0,0,183,2.0,70.0
2620,62.0,60,29,2.0,49.0
2621,77.0,0,31,2.0,70.0
2622,67.0,0,225,2.0,70.0
2623,59.0,0,47,0.0,34.0
2624,62.0,0,52,0.0,45.0
2625,55.0,60,116,2.0,49.0
2626,74.0,0,30,2.0,70.0
2627,59.0,30,31,2.0,55.0
2628,48.0,0,46,2.0,44.0
2629,60.0,30,47,2.0,55.0
2630,48.0,0,50,0.0,40.0
2631,72.0,0,54,2.0,70.0
2632,67.0,0,59,2.0,78.0
2633,64.0,0,159,0.0,50.0
2634,60.0,0,162,0.0,45.0
2635,55.0,120,48,0.0,54.0
2636,62.0,0,12,0.0,50.0
2637,65.0,60,16,0.0,50.0
2638,59.0,0,7,0.0,54.0
2639,62.0,30,12,0.0,59.0
2640,60.0,30,67,0.0,59.0
2641,67.0,60,35,0.0,64.0
2642,48.0,0,99,0.0,45.0
2643,60.0,0,129,2.0,55.0
2644,64.0,60,33,0.0,64.0
2645,67.0,0,35,0.0,70.0
2646,72.0,0,45,0.0,77.0
2647,76.0,0,182,2.0,70.0
2648,74.0,0,24,0.0,77.0
2649,71.0,0,26,0.0,77.0
2650,62.0,0,26,2.0,55.0
2651,77.0,60,30,2.0,55.0
2652,67.0,0,35,0.0,77.0
2653,67.0,0,224,2.0,62.0
2654,55.0,0,115,2.0,39.0
2655,74.0,0,26,2.0,70.0
2656,59.0,30,31,2.0,44.0
2657,72.0,0,30,0.0,77.0
2658,76.0,0,32,0.0,70.0
2659,48.0,0,34,2.0,44.0
2660,72.0,0,42,2.0,62.0
2661,60.0,30,44,2.0,55.0
2662,67.0,0,50,2.0,62.0
2663,76.0,0,30,0.0,113.0
2664,72.0,0,31,0.0,125.0
2665,48.0,0,35,0.0,120.0
2666,60.0,0,39,0.0,108.0
2667,60.0,0,57,1.0,90.0
2668,76.0,0,61,1.0,90.0
2669,72.0,0,27,0.0,113.0
2670,74.0,0,28,0.0,125.0
2671,47.0,0,39,0.0,120.0
2672,59.0,0,39,0.0,108.0
2673,72.0,0,111,1.0,90.0
2674,74.0,60,52,1.0,78.0
2675,59.0,0,64,1.0,78.0
2676,72.0,0,23,0.0,113.0
2677,76.0,0,25,0.0,113.0
2678,46.0,0,36,0.0,120.0
2679,58.0,0,38,0.0,120.0
2680,72.0,0,38,1.0,90.0
2681,60.0,0,43,1.0,90.0
2682,58.0,60,57,1.0,90.0
2683,76.0,0,61,1.0,78.0
2684,72.0,0,73,0.0,103.0
2685,77.0,0,79,0.0,113.0
2686,45.0,0,87,0.0,120.0
2687,57.0,0,88,1.0,90.0
2688,57.0,0,88,0.0,120.0
2689,77.0,0,91,1.0,90.0
2690,72.0,0,15,0.0,103.0
2691,79.0,0,17,0.0,85.0
2692,43.0,0,26,0.0,108.0
2693,55.0,0,28,0.0,108.0
2694,55.0,90,29,1.0,78.0
2695,76.0,0,29,1.0,78.0
2696,72.0,0,33,0.0,113.0
2697,81.0,0,41,0.0,113.0
2698,60.0,60,166,1.0,90.0
2699,53.0,0,52,0.0,120.0
2700,77.0,0,52,1.0,90.0
2701,41.0,30,56,0.0,80.0
2702,53.0,0,57,1.0,90.0
2703,72.0,0,182,1.0,90.0
2704,77.0,0,27,0.0,113.0
2705,72.0,0,34,0.0,103.0
2706,60.0,0,45,1.0,90.0
2707,45.0,0,51,0.0,120.0
2708,57.0,60,54,0.0,120.0
2709,57.0,0,55,1.0,90.0
2710,65.0,0,56,1.0,90.0
2711,77.0,0,60,1.0,90.0
2712,72.0,0,88,0.0,113.0
2713,76.0,60,94,0.0,113.0
2714,55.0,0,107,0.0,108.0
2715,43.0,0,108,0.0,108.0
2716,76.0,0,116,1.0,78.0
2717,60.0,0,124,1.0,90.0
2718,55.0,0,77,0.0,120.0
2719,43.0,120,78,0.0,108.0
2720,71.0,0,88,0.0,103.0
2721,67.0,0,91,0.0,113.0
2722,74.0,0,92,1.0,90.0
2723,74.0,0,95,0.0,113.0
2724,76.0,0,18,0.0,85.0
2725,76.0,0,21,1.0,78.0
2726,55.0,0,26,0.0,108.0
2727,55.0,0,236,1.0,90.0
2728,59.0,0,117,1.0,90.0
2729,43.0,90,28,0.0,98.0
2730,67.0,0,243,1.0,90.0
2731,72.0,0,38,0.0,125.0
2732,77.0,0,43,0.0,113.0
2733,60.0,0,15,0.0,103.0
2734,72.0,60,16,0.0,113.0
2735,72.0,30,15,0.0,113.0
2736,60.0,0,18,0.0,93.0
2737,57.0,0,114,1.0,90.0
2738,60.0,0,116,1.0,78.0
2739,77.0,0,122,1.0,90.0
2740,45.0,30,123,0.0,120.0
2741,57.0,0,123,0.0,120.0
2742,65.0,0,124,1.0,90.0
2743,60.0,30,34,0.0,113.0
2744,72.0,0,35,0.0,113.0
2745,60.0,60,32,0.0,103.0
2746,72.0,0,40,0.0,113.0
2747,60.0,60,35,0.0,113.0
2748,72.0,0,36,0.0,103.0
2749,72.0,0,18,0.0,113.0
2750,76.0,60,18,0.0,125.0
2751,58.0,0,29,0.0,120.0
2752,46.0,0,33,0.0,127.0
2753,58.0,0,57,1.0,90.0
2754,64.0,0,61,1.0,90.0
2755,72.0,60,22,0.0,113.0
2756,77.0,0,25,0.0,113.0
2757,57.0,0,28,0.0,120.0
2758,45.0,0,33,0.0,120.0
2759,72.0,0,109,1.0,90.0
2760,65.0,0,55,1.0,90.0
2761,57.0,0,59,1.0,78.0
2762,60.0,0,125,1.0,90.0
2763,72.0,0,16,0.0,103.0
2764,79.0,0,20,0.0,103.0
2765,55.0,0,25,0.0,108.0
2766,43.0,60,30,0.0,108.0
2767,72.0,0,45,1.0,78.0
2768,55.0,0,58,1.0,78.0
2769,67.0,0,58,1.0,78.0
2770,64.0,0,66,1.0,78.0
2771,65.0,0,56,1.0,78.0
2772,72.0,0,71,0.0,113.0
2773,81.0,0,71,0.0,113.0
2774,72.0,0,84,1.0,78.0
2775,53.0,0,85,0.0,108.0
2776,41.0,60,87,0.0,108.0
2777,53.0,0,89,1.0,78.0
2778,69.0,0,98,1.0,78.0
2779,72.0,30,12,0.0,103.0
2780,83.0,0,14,0.0,113.0
2781,67.0,0,29,1.0,78.0
2782,55.0,0,30,0.0,108.0
2783,71.0,0,30,1.0,78.0
2784,55.0,0,30,1.0,78.0
2785,43.0,0,32,0.0,98.0
2786,84.0,0,21,0.0,113.0
2787,72.0,0,27,0.0,113.0
2788,65.0,30,54,1.0,90.0
2789,72.0,0,57,1.0,78.0
2790,60.0,60,117,1.0,90.0
2791,57.0,0,58,1.0,90.0
2792,45.0,0,60,0.0,108.0
2793,57.0,0,65,0.0,108.0
2794,77.0,0,36,0.0,113.0
2795,74.0,60,36,0.0,113.0
2796,72.0,0,40,0.0,113.0
2797,53.0,0,50,0.0,108.0
2798,41.0,0,52,0.0,98.0
2799,53.0,0,54,1.0,78.0
2800,57.0,0,56,1.0,90.0
2801,77.0,0,57,1.0,90.0
2802,69.0,0,60,1.0,78.0
2803,76.0,0,83,0.0,113.0
2804,72.0,0,85,0.0,113.0
2805,43.0,0,109,0.0,120.0
2806,55.0,0,118,0.0,108.0
2807,76.0,0,122,1.0,90.0
2808,60.0,0,126,1.0,90.0
2809,67.0,0,78,0.0,125.0
2810,71.0,0,81,0.0,125.0
2811,74.0,0,83,0.0,113.0
2812,67.0,0,221,1.0,90.0
2813,43.0,0,113,0.0,120.0
2814,74.0,0,114,1.0,78.0
2815,31.0,120,115,0.0,120.0
2816,59.0,0,117,1.0,78.0
2817,55.0,60,242,1.0,78.0
2818,48.0,0,35,0.0,98.0
2819,64.0,0,37,0.0,125.0
2820,72.0,0,40,0.0,113.0
2821,52.0,30,29,0.0,88.0
2822,55.0,30,27,0.0,88.0
2823,48.0,0,101,1.0,78.0
2824,67.0,120,102,1.0,90.0
2825,60.0,0,109,1.0,90.0
2826,72.0,0,116,1.0,90.0
2827,60.0,30,31,0.0,108.0
2828,59.0,30,32,0.0,108.0
2829,74.0,0,34,0.0,113.0
2830,67.0,0,36,0.0,125.0
2831,79.0,0,38,0.0,113.0
2832,57.0,30,35,0.0,108.0
2833,74.0,0,78,1.0,90.0
2834,65.0,0,79,1.0,90.0
2835,67.0,0,82,1.0,90.0
2836,55.0,0,83,1.0,90.0
2837,59.0,30,30,0.0,108.0
2838,67.0,0,16,1.0,78.0
2839,55.0,0,23,1.0,90.0
2840,74.0,0,26,1.0,78.0
2841,55.0,0,29,0.0,108.0
2842,65.0,30,32,1.0,58.0
2843,60.0,0,30,0.0,108.0
2844,67.0,0,33,0.0,125.0
2845,72.0,0,38,0.0,113.0
2846,76.0,0,39,0.0,113.0
2847,60.0,0,40,1.0,78.0
2848,67.0,30,44,1.0,90.0
2849,76.0,0,46,1.0,78.0
2850,64.0,0,58,1.0,78.0
2851,55.0,30,35,0.0,98.0
2852,52.0,0,30,0.0,108.0
2853,67.0,0,40,1.0,90.0
2854,76.0,30,55,1.0,90.0
2855,60.0,0,56,1.0,78.0
2856,48.0,30,27,0.0,108.0
2857,55.0,0,30,0.0,108.0
2858,74.0,0,33,0.0,125.0
2859,79.0,0,35,0.0,113.0
2860,83.0,30,35,0.0,125.0
2861,54.0,30,30,0.0,120.0
2862,55.0,30,26,0.0,108.0
2863,67.0,0,100,1.0,90.0
2864,79.0,0,120,1.0,78.0
2865,59.0,0,120,1.0,90.0
2866,43.0,30,32,0.0,120.0
2867,55.0,0,123,1.0,78.0
2868,48.0,0,33,0.0,108.0
2869,84.0,0,35,0.0,113.0
2870,76.0,0,35,0.0,103.0
2871,79.0,0,37,0.0,113.0
2872,72.0,30,38,0.0,113.0
2873,52.0,30,32,0.0,98.0
2874,55.0,30,27,0.0,98.0
2875,48.0,0,97,1.0,68.0
2876,67.0,0,105,1.0,90.0
2877,60.0,0,115,1.0,78.0
2878,76.0,0,118,1.0,78.0
2879,60.0,30,30,0.0,98.0
2880,59.0,30,31,0.0,108.0
2881,74.0,0,33,0.0,125.0
2882,79.0,0,36,0.0,113.0
2883,67.0,0,38,0.0,113.0
2884,57.0,30,30,0.0,108.0
2885,74.0,0,75,1.0,90.0
2886,55.0,0,80,1.0,90.0
2887,65.0,0,83,1.0,78.0
2888,67.0,0,85,1.0,90.0
2889,59.0,30,32,0.0,98.0
2890,67.0,30,16,1.0,78.0
2891,65.0,0,27,1.0,78.0
2892,55.0,0,29,1.0,78.0
2893,74.0,0,29,1.0,78.0
2894,55.0,0,31,0.0,108.0
2895,67.0,0,31,0.0,113.0
2896,60.0,0,32,0.0,98.0
2897,72.0,0,35,0.0,113.0
2898,76.0,0,37,0.0,113.0
2899,67.0,30,43,1.0,78.0
2900,60.0,0,45,1.0,78.0
2901,76.0,0,48,1.0,78.0
2902,64.0,0,59,1.0,78.0
2903,55.0,30,32,0.0,98.0
2904,52.0,0,31,0.0,98.0
2905,67.0,30,42,1.0,90.0
2906,76.0,0,55,1.0,68.0
2907,60.0,0,56,1.0,78.0
2908,48.0,30,29,0.0,88.0
2909,55.0,0,29,0.0,108.0
2910,74.0,0,33,0.0,125.0
2911,83.0,0,36,0.0,125.0
2912,79.0,0,36,0.0,113.0
2913,54.0,30,30,0.0,120.0
2914,55.0,30,32,0.0,98.0
2915,67.0,0,105,1.0,78.0
2916,55.0,30,114,1.0,78.0
2917,79.0,0,121,1.0,90.0
2918,59.0,0,125,1.0,90.0
2919,43.0,30,35,0.0,120.0
2920,72.0,0,102,0.0,113.0
2921,76.0,0,102,0.0,103.0
2922,79.0,0,103,0.0,113.0
2923,84.0,0,105,0.0,113.0
2924,48.0,0,113,1.0,78.0
2925,76.0,0,114,1.0,78.0
2926,60.0,30,119,1.0,90.0
2927,48.0,0,120,0.0,120.0
2928,67.0,0,128,1.0,90.0
