,note,step,duration,channel,velocity
0,36.0,0,59,0.0,88.0
1,48.0,0,65,0.0,88.0
2,52.0,55,34,0.0,45.0
3,55.0,30,20,0.0,60.0
4,48.0,0,16,0.0,60.0
5,60.0,30,19,0.0,78.0
6,64.0,3,138,1.0,68.0
7,72.0,0,143,1.0,78.0
8,55.0,2,150,1.0,90.0
9,48.0,0,154,1.0,90.0
10,64.0,44,30,1.0,78.0
11,48.0,0,14,0.0,60.0
12,60.0,8,16,0.0,60.0
13,48.0,0,34,1.0,78.0
14,72.0,5,35,1.0,78.0
15,55.0,3,35,1.0,90.0
16,48.0,0,14,0.0,60.0
17,60.0,9,17,0.0,68.0
18,60.0,60,14,0.0,60.0
19,64.0,45,97,1.0,90.0
20,72.0,1,93,1.0,90.0
21,55.0,2,92,1.0,90.0
22,48.0,3,97,1.0,90.0
23,76.0,0,325,0.0,88.0
24,72.0,0,326,0.0,78.0
25,79.0,0,328,0.0,78.0
26,84.0,0,328,0.0,88.0
27,60.0,60,20,0.0,88.0
28,60.0,60,18,0.0,39.0
29,60.0,59,19,0.0,78.0
30,60.0,60,18,0.0,45.0
31,64.0,1,100,0.0,68.0
32,67.0,45,26,0.0,52.0
33,60.0,15,19,0.0,78.0
34,65.0,0,68,0.0,68.0
35,60.0,0,14,0.0,45.0
36,64.0,60,30,0.0,45.0
37,65.0,30,32,0.0,68.0
38,60.0,30,19,0.0,60.0
39,67.0,0,25,0.0,78.0
40,60.0,60,20,0.0,45.0
41,60.0,60,23,0.0,78.0
42,60.0,60,16,0.0,52.0
43,64.0,0,116,0.0,68.0
44,65.0,0,11,0.0,78.0
45,69.0,0,16,0.0,78.0
46,60.0,60,21,0.0,68.0
47,60.0,60,15,0.0,60.0
48,69.0,0,15,0.0,78.0
49,77.0,0,16,0.0,78.0
50,60.0,60,19,0.0,78.0
51,60.0,60,17,0.0,52.0
52,65.0,0,12,0.0,88.0
53,74.0,60,15,0.0,88.0
54,60.0,0,18,0.0,78.0
55,60.0,60,18,0.0,60.0
56,62.0,0,11,0.0,88.0
57,71.0,60,15,0.0,78.0
58,60.0,0,22,0.0,60.0
59,60.0,60,21,0.0,68.0
60,36.0,0,60,0.0,100.0
61,48.0,4,66,0.0,100.0
62,52.0,59,28,0.0,60.0
63,55.0,30,16,0.0,68.0
64,48.0,30,16,0.0,100.0
65,60.0,0,20,0.0,88.0
66,64.0,1,148,1.0,90.0
67,55.0,56,157,1.0,90.0
68,48.0,0,162,1.0,90.0
69,72.0,0,165,1.0,68.0
70,48.0,0,13,0.0,88.0
71,60.0,2,14,0.0,78.0
72,64.0,49,31,1.0,78.0
73,48.0,5,35,1.0,78.0
74,55.0,3,37,1.0,90.0
75,72.0,1,41,1.0,58.0
76,48.0,1,13,0.0,100.0
77,60.0,0,17,0.0,100.0
78,60.0,60,17,0.0,60.0
79,48.0,2,96,1.0,90.0
80,76.0,0,334,0.0,88.0
81,79.0,0,337,0.0,88.0
82,72.0,0,339,0.0,88.0
83,84.0,0,340,0.0,88.0
84,55.0,1,117,1.0,68.0
85,72.0,7,115,1.0,68.0
86,64.0,49,125,1.0,78.0
87,60.0,60,17,0.0,45.0
88,60.0,60,17,0.0,18.0
89,60.0,60,17,0.0,20.0
90,60.0,60,16,0.0,25.0
91,64.0,0,100,0.0,78.0
92,67.0,45,18,0.0,60.0
93,60.0,15,19,0.0,20.0
94,65.0,0,63,0.0,78.0
95,60.0,60,18,0.0,20.0
96,64.0,0,32,0.0,52.0
97,65.0,30,32,0.0,60.0
98,60.0,30,18,0.0,20.0
99,60.0,60,19,0.0,20.0
100,67.0,0,116,0.0,68.0
101,60.0,0,18,0.0,34.0
102,60.0,60,18,0.0,7.0
103,64.0,60,119,0.0,52.0
104,65.0,60,13,0.0,78.0
105,60.0,0,19,0.0,18.0
106,69.0,0,19,0.0,78.0
107,60.0,60,19,0.0,29.0
108,77.0,0,17,0.0,60.0
109,60.0,60,17,0.0,29.0
110,81.0,0,21,0.0,68.0
111,60.0,60,19,0.0,34.0
112,74.0,60,12,0.0,68.0
113,77.0,0,17,0.0,78.0
114,60.0,0,19,0.0,29.0
115,60.0,60,15,0.0,25.0
116,71.0,0,13,0.0,68.0
117,74.0,0,14,0.0,68.0
118,60.0,60,18,0.0,45.0
119,60.0,60,30,0.0,60.0
120,36.0,0,62,0.0,100.0
121,84.0,0,68,0.0,88.0
122,48.0,1,69,0.0,100.0
123,76.0,0,69,0.0,78.0
124,79.0,0,70,0.0,78.0
125,72.0,0,77,0.0,78.0
126,52.0,60,36,0.0,52.0
127,55.0,30,19,0.0,52.0
128,48.0,30,20,0.0,88.0
129,60.0,0,20,0.0,68.0
130,60.0,2,143,1.0,78.0
131,67.0,55,154,1.0,78.0
132,48.0,2,157,1.0,90.0
133,76.0,0,162,1.0,68.0
134,64.0,15,55,0.0,68.0
135,48.0,0,18,0.0,60.0
136,60.0,0,20,0.0,52.0
137,60.0,35,34,1.0,68.0
138,48.0,8,27,1.0,68.0
139,67.0,0,34,1.0,78.0
140,76.0,1,34,1.0,50.0
141,60.0,0,1,0.0,78.0
142,48.0,0,21,0.0,88.0
143,64.0,1,73,0.0,68.0
144,67.0,0,18,0.0,68.0
145,60.0,57,22,0.0,78.0
146,67.0,1,88,1.0,90.0
147,48.0,56,94,1.0,68.0
148,60.0,1,114,1.0,90.0
149,76.0,3,111,1.0,78.0
150,67.0,0,23,0.0,60.0
151,72.0,0,24,0.0,60.0
152,64.0,1,61,1.0,90.0
153,64.0,20,33,0.0,45.0
154,72.0,7,56,1.0,68.0
155,67.0,0,72,1.0,104.0
156,60.0,2,72,1.0,78.0
157,72.0,0,22,0.0,45.0
158,67.0,30,26,0.0,52.0
159,36.0,0,94,0.0,100.0
160,48.0,60,98,0.0,88.0
161,64.0,25,15,1.0,68.0
162,60.0,3,17,1.0,78.0
163,67.0,0,15,1.0,90.0
164,72.0,3,19,1.0,68.0
165,64.0,5,36,0.0,20.0
166,67.0,0,27,0.0,60.0
167,72.0,0,31,0.0,52.0
168,64.0,20,33,0.0,39.0
169,60.0,0,79,0.0,88.0
170,48.0,0,84,0.0,100.0
171,72.0,0,25,0.0,52.0
172,67.0,30,28,0.0,52.0
173,67.0,1,96,1.0,90.0
174,72.0,9,91,1.0,78.0
175,64.0,15,116,1.0,90.0
176,60.0,9,114,1.0,90.0
177,64.0,30,30,0.0,45.0
178,67.0,0,29,0.0,52.0
179,76.0,30,40,0.0,60.0
180,64.0,23,31,0.0,45.0
181,76.0,7,54,1.0,68.0
182,48.0,0,14,0.0,68.0
183,36.0,0,14,0.0,68.0
184,67.0,30,27,0.0,45.0
185,72.0,1,27,1.0,50.0
186,72.0,0,39,0.0,52.0
187,64.0,29,9,0.0,68.0
188,74.0,0,30,0.0,60.0
189,79.0,0,38,0.0,52.0
190,59.0,21,70,1.0,78.0
191,35.0,3,64,0.0,88.0
192,62.0,2,71,1.0,78.0
193,47.0,0,69,0.0,88.0
194,67.0,2,67,1.0,90.0
195,67.0,28,40,0.0,45.0
196,74.0,30,28,0.0,60.0
197,79.0,0,32,0.0,52.0
198,59.0,15,18,1.0,68.0
199,50.0,0,33,0.0,7.0
200,62.0,8,17,1.0,78.0
201,74.0,4,112,1.0,68.0
202,67.0,3,16,1.0,78.0
203,55.0,7,26,0.0,29.0
204,67.0,0,34,0.0,52.0
205,47.0,2,13,0.0,68.0
206,59.0,3,17,0.0,68.0
207,74.0,0,29,0.0,60.0
208,79.0,0,34,0.0,52.0
209,67.0,27,34,0.0,45.0
210,47.0,0,13,0.0,60.0
211,59.0,30,16,0.0,60.0
212,62.0,5,92,1.0,90.0
213,59.0,11,103,1.0,78.0
214,74.0,0,27,0.0,52.0
215,67.0,3,85,1.0,90.0
216,79.0,0,30,0.0,45.0
217,67.0,30,32,0.0,52.0
218,62.0,0,30,1.0,78.0
219,47.0,0,17,0.0,68.0
220,59.0,0,20,0.0,78.0
221,59.0,17,34,1.0,78.0
222,79.0,5,27,1.0,58.0
223,74.0,1,32,0.0,60.0
224,79.0,0,35,0.0,60.0
225,71.0,7,51,1.0,78.0
226,67.0,30,35,0.0,52.0
227,47.0,0,14,0.0,78.0
228,35.0,0,15,0.0,78.0
229,79.0,2,32,1.0,50.0
230,74.0,0,29,0.0,52.0
231,79.0,6,33,0.0,52.0
232,67.0,16,50,1.0,68.0
233,59.0,3,43,1.0,78.0
234,67.0,30,9,0.0,68.0
235,62.0,3,60,1.0,90.0
236,79.0,0,30,0.0,60.0
237,84.0,8,33,0.0,68.0
238,72.0,30,36,0.0,52.0
239,79.0,30,27,0.0,52.0
240,84.0,0,33,0.0,60.0
241,33.0,0,102,0.0,88.0
242,45.0,0,109,0.0,88.0
243,72.0,30,31,0.0,68.0
244,79.0,1,145,1.0,68.0
245,84.0,30,31,0.0,60.0
246,76.0,0,31,0.0,52.0
247,72.0,28,30,0.0,60.0
248,57.0,15,216,1.0,68.0
249,84.0,0,31,0.0,60.0
250,76.0,30,32,0.0,34.0
251,57.0,0,119,0.0,88.0
252,72.0,30,32,0.0,60.0
253,76.0,2,131,1.0,68.0
254,45.0,0,133,0.0,78.0
255,77.0,0,31,0.0,68.0
256,84.0,7,32,0.0,60.0
257,72.0,24,35,0.0,52.0
258,45.0,30,11,0.0,68.0
259,33.0,0,13,0.0,60.0
260,60.0,2,331,1.0,78.0
261,72.0,4,339,1.0,90.0
262,84.0,0,29,0.0,52.0
263,77.0,0,29,0.0,39.0
264,77.0,6,97,1.0,68.0
265,57.0,23,112,1.0,90.0
266,72.0,30,33,0.0,52.0
267,77.0,0,32,0.0,60.0
268,84.0,4,33,0.0,60.0
269,31.0,0,58,0.0,88.0
270,43.0,0,63,0.0,88.0
271,72.0,30,35,0.0,52.0
272,77.0,0,30,0.0,39.0
273,84.0,0,31,0.0,52.0
274,48.0,30,43,0.0,39.0
275,52.0,30,18,0.0,34.0
276,72.0,0,33,0.0,68.0
277,77.0,0,125,1.0,58.0
278,43.0,0,15,0.0,60.0
279,55.0,0,21,0.0,52.0
280,84.0,0,32,0.0,52.0
281,75.0,30,37,0.0,68.0
282,72.0,30,36,0.0,52.0
283,43.0,0,12,0.0,52.0
284,55.0,30,15,0.0,60.0
285,84.0,0,28,0.0,52.0
286,75.0,0,33,0.0,78.0
287,55.0,13,233,1.0,78.0
288,72.0,30,35,0.0,60.0
289,75.0,0,126,1.0,78.0
290,43.0,0,17,0.0,60.0
291,55.0,3,19,0.0,78.0
292,84.0,0,31,0.0,68.0
293,76.0,0,32,0.0,60.0
294,72.0,30,32,0.0,52.0
295,43.0,30,14,0.0,68.0
296,31.0,0,16,0.0,68.0
297,60.0,9,331,1.0,90.0
298,84.0,0,28,0.0,60.0
299,76.0,0,28,0.0,45.0
300,55.0,24,110,1.0,78.0
301,72.0,4,362,1.0,78.0
302,72.0,30,30,0.0,52.0
303,76.0,3,132,1.0,58.0
304,69.0,2,34,1.0,78.0
305,74.0,0,27,0.0,60.0
306,81.0,7,30,0.0,68.0
307,60.0,2,38,1.0,78.0
308,53.0,19,42,1.0,78.0
309,74.0,3,33,1.0,78.0
310,72.0,27,36,0.0,52.0
311,29.0,0,73,0.0,88.0
312,53.0,0,32,1.0,68.0
313,69.0,18,33,1.0,78.0
314,60.0,2,34,1.0,78.0
315,41.0,0,86,0.0,88.0
316,81.0,0,31,0.0,52.0
317,74.0,3,32,0.0,52.0
318,74.0,7,36,1.0,58.0
319,72.0,30,36,0.0,52.0
320,74.0,0,31,0.0,60.0
321,81.0,0,32,0.0,60.0
322,72.0,30,33,0.0,45.0
323,74.0,30,29,0.0,60.0
324,60.0,0,102,1.0,90.0
325,81.0,0,32,0.0,52.0
326,74.0,7,100,1.0,68.0
327,69.0,6,127,1.0,78.0
328,53.0,13,138,1.0,68.0
329,53.0,0,122,0.0,88.0
330,41.0,4,122,0.0,68.0
331,72.0,30,37,0.0,52.0
332,79.0,0,30,0.0,52.0
333,74.0,0,32,0.0,60.0
334,72.0,29,33,0.0,52.0
335,79.0,0,28,0.0,52.0
336,74.0,30,32,0.0,60.0
337,60.0,26,99,1.0,90.0
338,74.0,1,100,1.0,78.0
339,72.0,30,21,0.0,52.0
340,43.0,0,120,0.0,78.0
341,67.0,2,122,1.0,68.0
342,55.0,0,122,0.0,88.0
343,55.0,2,126,1.0,78.0
344,60.0,0,107,1.0,90.0
345,57.0,0,118,0.0,88.0
346,74.0,8,110,1.0,90.0
347,57.0,29,121,1.0,78.0
348,66.0,0,121,1.0,90.0
349,45.0,1,121,0.0,88.0
350,74.0,0,144,0.0,78.0
351,72.0,0,148,0.0,52.0
352,78.0,0,156,0.0,88.0
353,72.0,280,15,0.0,60.0
354,74.0,14,15,0.0,60.0
355,76.0,18,15,0.0,60.0
356,78.0,10,15,0.0,60.0
357,79.0,15,15,0.0,60.0
358,60.0,3,117,1.0,90.0
359,57.0,7,124,1.0,90.0
360,78.0,0,120,0.0,60.0
361,74.0,0,120,0.0,60.0
362,66.0,4,121,1.0,90.0
363,72.0,0,120,0.0,60.0
364,74.0,5,125,1.0,78.0
365,45.0,1,158,0.0,78.0
366,57.0,0,168,0.0,88.0
367,72.0,275,15,0.0,60.0
368,74.0,10,15,0.0,60.0
369,76.0,10,15,0.0,60.0
370,77.0,10,15,0.0,60.0
371,79.0,10,15,0.0,60.0
372,81.0,10,15,0.0,60.0
373,83.0,10,15,0.0,60.0
374,45.0,0,21,0.0,68.0
375,57.0,0,22,0.0,68.0
376,57.0,0,18,0.0,60.0
377,45.0,58,19,0.0,52.0
378,45.0,0,17,0.0,60.0
379,57.0,60,19,0.0,68.0
380,45.0,0,16,0.0,52.0
381,57.0,60,19,0.0,52.0
382,72.0,5,209,1.0,78.0
383,62.0,4,222,1.0,90.0
384,57.0,7,228,1.0,90.0
385,78.0,2,215,1.0,90.0
386,57.0,0,19,0.0,60.0
387,45.0,3,19,0.0,52.0
388,78.0,4,300,0.0,88.0
389,84.0,0,304,0.0,78.0
390,45.0,0,19,0.0,52.0
391,57.0,57,21,0.0,52.0
392,62.0,3,90,1.0,78.0
393,57.0,57,116,1.0,90.0
394,72.0,0,120,1.0,78.0
395,78.0,0,119,1.0,78.0
396,55.0,5,19,0.0,52.0
397,43.0,0,20,0.0,60.0
398,83.0,0,30,0.0,78.0
399,79.0,0,30,0.0,78.0
400,74.0,28,33,0.0,39.0
401,43.0,0,19,0.0,45.0
402,55.0,30,21,0.0,52.0
403,83.0,0,29,0.0,39.0
404,79.0,0,30,0.0,45.0
405,74.0,30,17,0.0,52.0
406,43.0,0,20,0.0,52.0
407,55.0,0,21,0.0,45.0
408,74.0,30,29,0.0,60.0
409,79.0,0,31,0.0,60.0
410,71.0,30,31,0.0,52.0
411,43.0,0,20,0.0,45.0
412,55.0,0,21,0.0,45.0
413,74.0,0,28,0.0,45.0
414,79.0,30,29,0.0,45.0
415,71.0,30,15,0.0,52.0
416,43.0,0,19,0.0,45.0
417,55.0,30,19,0.0,45.0
418,74.0,0,27,0.0,60.0
419,71.0,0,29,0.0,52.0
420,55.0,52,304,1.0,78.0
421,67.0,30,34,0.0,39.0
422,62.0,0,313,1.0,90.0
423,71.0,3,320,1.0,78.0
424,55.0,30,16,0.0,29.0
425,43.0,0,17,0.0,29.0
426,74.0,0,23,0.0,25.0
427,79.0,2,322,1.0,58.0
428,71.0,0,24,0.0,39.0
429,59.0,17,19,1.0,68.0
430,55.0,0,15,1.0,78.0
431,67.0,5,18,1.0,78.0
432,74.0,0,18,1.0,58.0
433,67.0,8,14,0.0,39.0
434,59.0,17,115,1.0,90.0
435,55.0,1,121,1.0,90.0
436,67.0,1,127,1.0,78.0
437,55.0,9,133,0.0,60.0
438,43.0,0,134,0.0,68.0
439,74.0,2,149,1.0,90.0
440,74.0,0,141,0.0,78.0
441,71.0,0,143,0.0,78.0
442,67.0,0,143,0.0,88.0
443,79.0,0,148,0.0,60.0
444,79.0,0,357,0.0,68.0
445,67.0,360,357,0.0,88.0
446,64.0,0,363,0.0,45.0
447,76.0,360,363,0.0,78.0
448,72.0,3,346,0.0,68.0
449,45.0,357,351,1.0,42.0
450,60.0,0,350,0.0,45.0
451,57.0,6,354,1.0,29.0
452,65.0,6,349,1.0,42.0
453,77.0,4,353,1.0,24.0
454,81.0,1,335,0.0,60.0
455,69.0,0,342,0.0,68.0
456,62.0,2,352,1.0,35.0
457,74.0,0,355,1.0,35.0
458,41.0,332,371,1.0,42.0
459,53.0,11,377,1.0,35.0
460,43.0,0,108,0.0,39.0
461,74.0,0,58,0.0,60.0
462,77.0,56,58,0.0,52.0
463,76.0,0,52,0.0,39.0
464,73.0,60,59,0.0,60.0
465,77.0,0,47,0.0,39.0
466,74.0,60,56,0.0,45.0
467,79.0,0,42,0.0,52.0
468,76.0,60,61,0.0,60.0
469,74.0,0,22,0.0,60.0
470,77.0,60,23,0.0,45.0
471,43.0,353,367,1.0,42.0
472,55.0,4,361,1.0,29.0
473,59.0,1,369,1.0,50.0
474,71.0,4,373,1.0,29.0
475,76.0,0,67,0.0,52.0
476,72.0,49,68,0.0,52.0
477,45.0,60,134,0.0,45.0
478,75.0,0,61,0.0,68.0
479,71.0,60,63,0.0,52.0
480,57.0,1,193,1.0,29.0
481,76.0,0,16,0.0,39.0
482,72.0,60,21,0.0,52.0
483,45.0,0,235,1.0,42.0
484,60.0,1,236,1.0,35.0
485,72.0,9,238,1.0,29.0
486,77.0,4,34,0.0,60.0
487,69.0,3,53,1.0,42.0
488,81.0,0,62,0.0,52.0
489,77.0,0,23,0.0,45.0
490,74.0,57,24,0.0,52.0
491,41.0,0,116,0.0,39.0
492,62.0,1,121,1.0,42.0
493,41.0,54,125,1.0,42.0
494,65.0,1,59,1.0,24.0
495,57.0,1,132,1.0,42.0
496,43.0,0,80,0.0,29.0
497,76.0,52,57,0.0,52.0
498,72.0,0,60,0.0,45.0
499,75.0,60,54,0.0,60.0
500,71.0,0,63,0.0,52.0
501,72.0,60,38,0.0,34.0
502,76.0,0,38,0.0,34.0
503,76.0,0,26,0.0,60.0
504,79.0,60,61,0.0,52.0
505,76.0,60,24,0.0,45.0
506,72.0,0,30,0.0,39.0
507,64.0,8,344,1.0,24.0
508,60.0,53,364,1.0,42.0
509,55.0,0,366,1.0,35.0
510,43.0,1,98,0.0,25.0
511,71.0,0,48,0.0,52.0
512,74.0,59,53,0.0,60.0
513,55.0,1,510,0.0,52.0
514,70.0,60,51,0.0,68.0
515,73.0,0,55,0.0,60.0
516,71.0,60,34,0.0,52.0
517,74.0,0,35,0.0,52.0
518,74.0,0,35,0.0,52.0
519,77.0,60,55,0.0,45.0
520,74.0,0,24,0.0,60.0
521,71.0,60,28,0.0,60.0
522,53.0,1,359,1.0,42.0
523,43.0,5,721,1.0,42.0
524,62.0,54,366,1.0,24.0
525,59.0,5,366,1.0,42.0
526,60.0,3,111,1.0,50.0
527,52.0,0,117,1.0,29.0
528,48.0,0,118,1.0,35.0
529,60.0,0,125,0.0,60.0
530,72.0,2,126,0.0,52.0
531,36.0,0,128,0.0,88.0
532,48.0,0,130,0.0,88.0
533,48.0,0,20,0.0,39.0
534,60.0,210,28,0.0,39.0
535,50.0,0,18,0.0,60.0
536,62.0,15,23,0.0,60.0
537,52.0,0,14,0.0,68.0
538,64.0,15,27,0.0,60.0
539,52.0,74,17,0.0,45.0
540,64.0,0,18,0.0,34.0
541,53.0,16,18,0.0,78.0
542,65.0,0,19,0.0,60.0
543,67.0,0,150,0.0,68.0
544,55.0,15,152,0.0,78.0
545,52.0,227,23,0.0,39.0
546,65.0,13,21,0.0,68.0
547,64.0,0,22,0.0,29.0
548,53.0,0,23,0.0,60.0
549,67.0,0,21,0.0,78.0
550,55.0,15,21,0.0,78.0
551,55.0,80,23,0.0,60.0
552,67.0,0,14,0.0,29.0
553,69.0,10,16,0.0,60.0
554,71.0,0,9,0.0,39.0
555,59.0,9,16,0.0,60.0
556,57.0,6,27,0.0,68.0
557,60.0,15,51,0.0,78.0
558,72.0,0,54,0.0,68.0
559,35.0,0,5,0.0,45.0
560,36.0,0,10,0.0,34.0
561,48.0,0,17,0.0,68.0
562,60.0,47,21,0.0,68.0
563,55.0,30,22,0.0,60.0
564,48.0,0,18,0.0,60.0
565,36.0,30,19,0.0,60.0
566,64.0,0,22,0.0,60.0
567,60.0,30,22,0.0,39.0
568,36.0,0,12,0.0,68.0
569,48.0,0,18,0.0,52.0
570,67.0,30,19,0.0,25.0
571,64.0,30,19,0.0,52.0
572,36.0,30,14,0.0,45.0
573,48.0,0,17,0.0,52.0
574,72.0,0,26,0.0,68.0
575,67.0,30,35,0.0,45.0
576,36.0,0,14,0.0,52.0
577,48.0,30,18,0.0,52.0
578,48.0,4,318,1.0,90.0
579,76.0,0,28,0.0,60.0
580,55.0,2,341,1.0,90.0
581,72.0,30,17,0.0,25.0
582,64.0,7,335,1.0,90.0
583,72.0,0,335,1.0,78.0
584,36.0,6,16,0.0,68.0
585,48.0,0,21,0.0,68.0
586,77.0,0,30,0.0,68.0
587,65.0,0,41,0.0,60.0
588,36.0,0,15,0.0,60.0
589,48.0,60,19,0.0,39.0
590,65.0,0,28,0.0,78.0
591,60.0,30,20,0.0,60.0
592,36.0,0,16,0.0,60.0
593,69.0,0,20,0.0,52.0
594,48.0,30,20,0.0,52.0
595,65.0,30,22,0.0,45.0
596,36.0,30,15,0.0,60.0
597,48.0,1,208,1.0,90.0
598,48.0,0,19,0.0,52.0
599,72.0,0,21,0.0,39.0
600,77.0,18,226,1.0,78.0
601,57.0,4,233,1.0,90.0
602,65.0,1,234,1.0,104.0
603,69.0,30,22,0.0,52.0
604,76.0,0,16,0.0,7.0
605,36.0,0,17,0.0,60.0
606,48.0,0,19,0.0,45.0
607,77.0,7,23,0.0,39.0
608,72.0,30,29,0.0,45.0
609,83.0,0,15,0.0,45.0
610,36.0,0,17,0.0,60.0
611,48.0,0,17,0.0,45.0
612,48.0,2,92,1.0,90.0
613,77.0,30,24,0.0,52.0
614,67.0,5,96,1.0,90.0
615,59.0,13,114,1.0,78.0
616,77.0,3,118,1.0,78.0
617,72.0,30,16,0.0,34.0
618,84.0,0,31,0.0,60.0
619,72.0,0,32,0.0,52.0
620,48.0,4,35,0.0,68.0
621,76.0,0,35,0.0,68.0
622,36.0,0,36,0.0,68.0
623,76.0,4,92,1.0,78.0
624,76.0,60,26,0.0,45.0
625,79.0,0,28,0.0,60.0
626,60.0,1,111,1.0,78.0
627,48.0,15,114,1.0,90.0
628,67.0,6,126,1.0,90.0
629,77.0,0,20,0.0,34.0
630,74.0,60,25,0.0,18.0
631,76.0,0,17,0.0,52.0
632,72.0,60,25,0.0,45.0
633,74.0,60,13,0.0,52.0
634,71.0,0,18,0.0,52.0
635,69.0,0,17,0.0,45.0
636,72.0,60,19,0.0,52.0
637,67.0,0,9,0.0,60.0
638,71.0,60,10,0.0,60.0
639,55.0,0,70,0.0,68.0
640,43.0,0,74,0.0,52.0
641,81.0,0,18,0.0,68.0
642,84.0,0,24,0.0,78.0
643,72.0,60,29,0.0,68.0
644,79.0,0,15,0.0,68.0
645,83.0,60,16,0.0,68.0
646,71.0,0,22,0.0,68.0
647,77.0,0,10,0.0,45.0
648,81.0,60,14,0.0,52.0
649,69.0,0,16,0.0,52.0
650,76.0,0,12,0.0,52.0
651,67.0,60,15,0.0,60.0
652,79.0,0,15,0.0,60.0
653,74.0,0,10,0.0,60.0
654,65.0,60,13,0.0,52.0
655,77.0,0,14,0.0,60.0
656,48.0,0,47,0.0,68.0
657,72.0,0,115,0.0,60.0
658,64.0,0,116,0.0,68.0
659,76.0,60,118,0.0,60.0
660,60.0,122,90,2.0,88.0
661,67.0,3,87,2.0,88.0
662,64.0,2,88,2.0,78.0
663,72.0,3,86,2.0,78.0
664,72.0,1,86,2.0,78.0
665,64.0,112,117,2.0,78.0
666,67.0,2,121,2.0,88.0
667,60.0,3,119,2.0,88.0
668,60.0,0,370,0.0,78.0
669,72.0,0,132,2.0,88.0
670,62.0,0,155,2.0,88.0
671,65.0,3,159,2.0,88.0
672,55.0,4,158,2.0,78.0
673,71.0,125,54,2.0,88.0
674,65.0,3,32,2.0,88.0
675,62.0,47,38,2.0,88.0
676,55.0,4,38,2.0,88.0
677,69.0,2,60,2.0,78.0
678,55.0,112,346,0.0,68.0
679,71.0,6,103,2.0,88.0
680,55.0,0,118,2.0,78.0
681,62.0,54,121,2.0,98.0
682,65.0,1,125,2.0,98.0
683,67.0,0,430,0.0,78.0
684,72.0,52,31,0.0,68.0
685,48.0,4,101,0.0,60.0
686,36.0,0,106,0.0,52.0
687,72.0,107,111,2.0,88.0
688,60.0,1,104,2.0,88.0
689,48.0,2,107,2.0,88.0
690,64.0,5,109,2.0,98.0
691,76.0,0,60,0.0,60.0
692,69.0,0,30,0.0,60.0
693,72.0,60,52,0.0,68.0
694,67.0,0,22,0.0,39.0
695,71.0,60,33,0.0,60.0
696,69.0,0,19,0.0,52.0
697,66.0,60,29,0.0,68.0
698,67.0,0,22,0.0,52.0
699,64.0,60,30,0.0,60.0
700,62.0,0,10,0.0,60.0
701,66.0,60,11,0.0,88.0
702,67.0,0,18,0.0,60.0
703,76.0,60,19,0.0,68.0
704,79.0,0,20,0.0,68.0
705,50.0,0,110,0.0,52.0
706,38.0,0,111,0.0,52.0
707,74.0,0,16,0.0,68.0
708,78.0,0,21,0.0,88.0
709,66.0,60,29,0.0,100.0
710,72.0,0,20,0.0,60.0
711,76.0,0,22,0.0,68.0
712,64.0,60,29,0.0,60.0
713,71.0,60,17,0.0,68.0
714,74.0,0,20,0.0,78.0
715,62.0,0,22,0.0,68.0
716,72.0,0,14,0.0,60.0
717,69.0,0,14,0.0,78.0
718,60.0,60,22,0.0,60.0
719,43.0,0,54,0.0,52.0
720,71.0,60,83,0.0,78.0
721,59.0,0,96,0.0,78.0
722,55.0,0,83,2.0,88.0
723,59.0,1,88,2.0,88.0
724,74.0,1,93,2.0,98.0
725,67.0,116,95,2.0,88.0
726,67.0,0,92,2.0,88.0
727,74.0,0,111,2.0,88.0
728,67.0,0,356,0.0,88.0
729,59.0,120,119,2.0,98.0
730,55.0,2,120,2.0,98.0
731,55.0,0,368,0.0,68.0
732,67.0,1,127,2.0,78.0
733,66.0,122,52,2.0,98.0
734,50.0,2,209,2.0,88.0
735,57.0,1,217,2.0,88.0
736,72.0,116,219,2.0,88.0
737,64.0,55,61,2.0,88.0
738,57.0,58,118,2.0,98.0
739,66.0,3,115,2.0,110.0
740,72.0,3,113,2.0,88.0
741,62.0,0,355,0.0,60.0
742,50.0,0,120,2.0,98.0
743,74.0,0,423,0.0,78.0
744,55.0,115,103,2.0,98.0
745,67.0,0,106,2.0,88.0
746,55.0,3,107,0.0,52.0
747,43.0,2,105,2.0,88.0
748,71.0,1,112,2.0,88.0
749,43.0,0,112,0.0,39.0
750,76.0,0,52,0.0,60.0
751,72.0,58,63,0.0,60.0
752,71.0,60,26,0.0,52.0
753,74.0,0,58,0.0,52.0
754,69.0,60,27,0.0,52.0
755,72.0,0,40,0.0,68.0
756,67.0,60,25,0.0,39.0
757,71.0,0,54,0.0,60.0
758,69.0,60,14,0.0,45.0
759,65.0,0,22,0.0,52.0
760,64.0,0,9,0.0,60.0
761,67.0,0,11,0.0,68.0
762,84.0,0,21,0.0,52.0
763,81.0,0,23,0.0,78.0
764,72.0,60,34,0.0,68.0
765,31.0,0,127,0.0,52.0
766,43.0,60,128,0.0,39.0
767,79.0,60,21,0.0,60.0
768,83.0,0,25,0.0,68.0
769,71.0,0,31,0.0,60.0
770,77.0,0,19,0.0,68.0
771,81.0,60,22,0.0,60.0
772,69.0,0,29,0.0,68.0
773,76.0,0,16,0.0,60.0
774,79.0,0,17,0.0,60.0
775,67.0,60,22,0.0,60.0
776,74.0,0,14,0.0,68.0
777,65.0,0,17,0.0,68.0
778,77.0,60,17,0.0,60.0
779,48.0,0,19,0.0,52.0
780,36.0,0,21,0.0,52.0
781,72.0,0,23,0.0,78.0
782,76.0,4,23,0.0,78.0
783,64.0,0,29,0.0,78.0
784,36.0,0,16,0.0,45.0
785,48.0,60,19,0.0,52.0
786,72.0,55,85,1.0,68.0
787,55.0,0,85,1.0,68.0
788,48.0,0,91,1.0,90.0
789,64.0,1,96,1.0,78.0
790,60.0,0,43,0.0,60.0
791,55.0,30,19,0.0,60.0
792,48.0,0,17,0.0,68.0
793,36.0,0,19,0.0,60.0
794,64.0,1,23,0.0,52.0
795,60.0,29,19,0.0,52.0
796,36.0,0,15,0.0,45.0
797,48.0,0,16,0.0,52.0
798,72.0,23,84,1.0,68.0
799,67.0,30,21,0.0,45.0
800,55.0,3,85,1.0,78.0
801,48.0,1,85,1.0,90.0
802,64.0,3,92,1.0,90.0
803,64.0,30,19,0.0,45.0
804,36.0,0,16,0.0,52.0
805,48.0,0,17,0.0,52.0
806,72.0,3,27,0.0,39.0
807,67.0,30,39,0.0,45.0
808,36.0,30,14,0.0,45.0
809,48.0,0,17,0.0,52.0
810,76.0,0,23,0.0,45.0
811,48.0,2,89,1.0,90.0
812,72.0,2,103,1.0,58.0
813,55.0,23,115,1.0,78.0
814,64.0,0,113,1.0,78.0
815,72.0,30,20,0.0,25.0
816,36.0,0,17,0.0,52.0
817,48.0,3,17,0.0,45.0
818,77.0,0,27,0.0,68.0
819,65.0,0,37,0.0,68.0
820,36.0,0,18,0.0,39.0
821,48.0,0,20,0.0,39.0
822,65.0,60,34,0.0,52.0
823,60.0,30,20,0.0,52.0
824,36.0,0,19,0.0,52.0
825,48.0,30,20,0.0,52.0
826,69.0,0,23,0.0,68.0
827,65.0,30,22,0.0,52.0
828,36.0,0,18,0.0,39.0
829,48.0,0,20,0.0,45.0
830,72.0,30,22,0.0,52.0
831,48.0,2,208,1.0,90.0
832,77.0,22,213,1.0,68.0
833,65.0,1,236,1.0,90.0
834,69.0,30,25,0.0,60.0
835,57.0,2,248,1.0,78.0
836,48.0,0,19,0.0,52.0
837,36.0,2,20,0.0,60.0
838,77.0,0,26,0.0,52.0
839,74.0,0,27,0.0,78.0
840,72.0,30,30,0.0,52.0
841,36.0,0,18,0.0,52.0
842,48.0,30,20,0.0,45.0
843,83.0,0,24,0.0,52.0
844,77.0,0,26,0.0,52.0
845,48.0,21,99,1.0,90.0
846,67.0,1,95,1.0,78.0
847,77.0,5,112,1.0,68.0
848,72.0,30,18,0.0,45.0
849,59.0,1,122,1.0,78.0
850,36.0,0,44,0.0,60.0
851,48.0,0,46,0.0,52.0
852,84.0,0,47,0.0,68.0
853,76.0,0,49,0.0,68.0
854,72.0,0,54,0.0,78.0
855,76.0,2,81,1.0,68.0
856,67.0,22,109,1.0,90.0
857,60.0,2,103,1.0,78.0
858,48.0,4,114,1.0,90.0
859,60.0,210,21,0.0,39.0
860,48.0,3,26,0.0,29.0
861,50.0,0,21,0.0,45.0
862,62.0,12,22,0.0,68.0
863,52.0,15,20,0.0,68.0
864,64.0,0,31,0.0,68.0
865,52.0,91,21,0.0,34.0
866,65.0,0,17,0.0,68.0
867,64.0,14,18,0.0,34.0
868,53.0,3,20,0.0,52.0
869,55.0,0,70,0.0,78.0
870,67.0,12,76,0.0,68.0
871,64.0,210,26,0.0,34.0
872,52.0,4,28,0.0,34.0
873,53.0,0,23,0.0,52.0
874,65.0,11,23,0.0,68.0
875,67.0,0,19,0.0,68.0
876,55.0,15,20,0.0,68.0
877,67.0,60,23,0.0,52.0
878,55.0,13,21,0.0,45.0
879,69.0,2,24,0.0,52.0
880,57.0,13,22,0.0,45.0
881,71.0,17,12,0.0,39.0
882,59.0,0,17,0.0,52.0
883,67.0,0,47,0.0,78.0
884,72.0,0,53,0.0,78.0
885,64.0,26,26,0.0,68.0
886,60.0,0,65,1.0,90.0
887,64.0,4,62,1.0,78.0
888,67.0,0,7,0.0,45.0
889,72.0,30,7,0.0,45.0
890,72.0,13,69,1.0,78.0
891,67.0,1,69,1.0,90.0
892,48.0,1,92,0.0,100.0
893,64.0,4,7,0.0,45.0
894,60.0,0,98,0.0,78.0
895,60.0,26,14,1.0,90.0
896,64.0,1,13,1.0,78.0
897,67.0,0,17,1.0,90.0
898,72.0,1,18,1.0,58.0
899,67.0,0,26,0.0,60.0
900,72.0,1,30,0.0,68.0
901,64.0,27,34,0.0,34.0
902,72.0,0,21,0.0,45.0
903,67.0,30,22,0.0,39.0
904,67.0,0,90,1.0,90.0
905,72.0,5,94,1.0,78.0
906,48.0,2,118,0.0,78.0
907,64.0,30,34,0.0,39.0
908,36.0,1,123,0.0,88.0
909,72.0,0,30,0.0,45.0
910,67.0,30,30,0.0,52.0
911,64.0,30,30,0.0,34.0
912,67.0,30,21,0.0,34.0
913,72.0,0,23,0.0,34.0
914,36.0,4,17,0.0,60.0
915,48.0,23,29,0.0,52.0
916,60.0,18,242,1.0,78.0
917,64.0,3,26,0.0,45.0
918,64.0,4,247,1.0,78.0
919,71.0,0,20,0.0,60.0
920,44.0,0,32,0.0,88.0
921,76.0,6,33,0.0,52.0
922,74.0,0,35,0.0,68.0
923,32.0,3,54,0.0,78.0
924,64.0,30,35,0.0,45.0
925,47.0,0,12,0.0,39.0
926,71.0,0,24,0.0,39.0
927,74.0,30,27,0.0,45.0
928,76.0,0,27,0.0,34.0
929,52.0,28,14,0.0,52.0
930,44.0,0,6,0.0,25.0
931,64.0,2,37,0.0,34.0
932,56.0,0,14,0.0,68.0
933,56.0,19,154,1.0,90.0
934,76.0,1,154,1.0,78.0
935,62.0,1,150,1.0,90.0
936,71.0,30,29,0.0,52.0
937,76.0,0,29,0.0,52.0
938,74.0,0,29,0.0,52.0
939,71.0,0,161,1.0,90.0
940,64.0,30,33,0.0,45.0
941,56.0,0,9,0.0,34.0
942,44.0,6,13,0.0,88.0
943,76.0,2,35,1.0,58.0
944,71.0,0,26,0.0,52.0
945,76.0,0,27,0.0,45.0
946,56.0,0,42,1.0,90.0
947,74.0,3,30,0.0,52.0
948,62.0,17,49,1.0,90.0
949,71.0,2,45,1.0,78.0
950,64.0,30,32,0.0,52.0
951,44.0,3,13,0.0,100.0
952,56.0,0,26,0.0,78.0
953,76.0,0,29,0.0,52.0
954,71.0,0,29,0.0,52.0
955,74.0,0,31,0.0,52.0
956,64.0,30,35,0.0,78.0
957,44.0,0,14,0.0,52.0
958,32.0,0,22,0.0,78.0
959,76.0,1,88,1.0,68.0
960,71.0,0,29,0.0,45.0
961,64.0,30,8,0.0,60.0
962,76.0,0,41,0.0,39.0
963,74.0,30,41,0.0,45.0
964,56.0,20,112,1.0,90.0
965,71.0,5,114,1.0,78.0
966,62.0,1,119,1.0,78.0
967,76.0,0,29,0.0,68.0
968,81.0,0,33,0.0,60.0
969,72.0,30,34,0.0,29.0
970,57.0,24,70,1.0,90.0
971,60.0,2,69,1.0,78.0
972,76.0,0,74,1.0,68.0
973,33.0,1,84,0.0,68.0
974,69.0,12,13,1.0,58.0
975,81.0,0,26,0.0,60.0
976,76.0,30,27,0.0,52.0
977,45.0,0,94,0.0,78.0
978,57.0,12,15,1.0,90.0
979,60.0,4,15,1.0,78.0
980,64.0,4,16,1.0,78.0
981,72.0,2,39,0.0,34.0
982,81.0,0,29,0.0,60.0
983,76.0,0,31,0.0,60.0
984,72.0,30,33,0.0,52.0
985,81.0,30,30,0.0,52.0
986,76.0,0,35,0.0,45.0
987,57.0,3,118,1.0,90.0
988,69.0,13,129,1.0,78.0
989,64.0,6,121,1.0,78.0
990,60.0,4,128,1.0,78.0
991,72.0,30,35,0.0,45.0
992,57.0,0,132,0.0,88.0
993,45.0,0,142,0.0,68.0
994,81.0,30,34,0.0,39.0
995,76.0,0,34,0.0,29.0
996,72.0,30,30,0.0,34.0
997,81.0,0,26,0.0,45.0
998,76.0,30,26,0.0,20.0
999,33.0,15,13,0.0,60.0
1000,45.0,5,12,0.0,60.0
1001,72.0,10,12,0.0,52.0
1002,81.0,0,25,0.0,52.0
1003,84.0,0,26,0.0,68.0
1004,86.0,0,32,0.0,52.0
1005,74.0,28,33,0.0,68.0
1006,30.0,2,63,0.0,88.0
1007,42.0,0,74,0.0,88.0
1008,81.0,0,23,0.0,45.0
1009,86.0,30,27,0.0,68.0
1010,84.0,0,28,0.0,52.0
1011,45.0,7,30,0.0,39.0
1012,50.0,19,18,0.0,52.0
1013,42.0,24,13,0.0,78.0
1014,74.0,4,38,0.0,60.0
1015,54.0,1,17,0.0,78.0
1016,54.0,3,150,1.0,90.0
1017,81.0,0,28,0.0,60.0
1018,60.0,4,149,1.0,78.0
1019,84.0,0,31,0.0,52.0
1020,86.0,5,33,0.0,60.0
1021,74.0,0,160,1.0,78.0
1022,69.0,23,162,1.0,78.0
1023,74.0,30,37,0.0,29.0
1024,54.0,0,14,0.0,68.0
1025,42.0,0,15,0.0,60.0
1026,74.0,20,36,1.0,68.0
1027,60.0,1,35,1.0,78.0
1028,84.0,5,30,0.0,52.0
1029,81.0,0,31,0.0,52.0
1030,54.0,2,40,1.0,90.0
1031,69.0,2,40,1.0,78.0
1032,86.0,0,36,0.0,52.0
1033,74.0,30,33,0.0,52.0
1034,42.0,0,16,0.0,60.0
1035,54.0,0,19,0.0,88.0
1036,84.0,4,32,0.0,52.0
1037,81.0,0,33,0.0,52.0
1038,86.0,0,35,0.0,45.0
1039,74.0,30,35,0.0,39.0
1040,30.0,0,9,0.0,68.0
1041,74.0,0,77,1.0,90.0
1042,42.0,0,20,0.0,88.0
1043,84.0,0,26,0.0,39.0
1044,81.0,30,26,0.0,39.0
1045,86.0,0,28,0.0,39.0
1046,54.0,5,107,1.0,90.0
1047,74.0,30,19,0.0,52.0
1048,69.0,1,124,1.0,78.0
1049,60.0,20,134,1.0,90.0
1050,83.0,0,27,0.0,52.0
1051,79.0,1,30,0.0,52.0
1052,74.0,29,34,0.0,25.0
1053,31.0,0,84,0.0,78.0
1054,83.0,30,29,0.0,52.0
1055,43.0,0,89,0.0,78.0
1056,79.0,0,30,0.0,52.0
1057,55.0,21,105,1.0,78.0
1058,59.0,7,100,1.0,78.0
1059,74.0,30,21,0.0,60.0
1060,67.0,1,115,1.0,90.0
1061,74.0,1,121,1.0,78.0
1062,83.0,0,32,0.0,39.0
1063,79.0,0,33,0.0,52.0
1064,74.0,30,19,0.0,60.0
1065,67.0,0,83,1.0,68.0
1066,74.0,30,27,0.0,52.0
1067,55.0,1,89,0.0,78.0
1068,43.0,0,90,0.0,78.0
1069,79.0,0,33,0.0,39.0
1070,62.0,28,104,1.0,78.0
1071,71.0,30,17,0.0,45.0
1072,55.0,1,121,1.0,78.0
1073,59.0,0,124,1.0,78.0
1074,71.0,0,25,0.0,60.0
1075,74.0,30,26,0.0,60.0
1076,67.0,30,36,0.0,34.0
1077,74.0,0,23,0.0,52.0
1078,71.0,30,23,0.0,60.0
1079,67.0,30,21,0.0,60.0
1080,79.0,0,22,0.0,52.0
1081,76.0,0,25,0.0,45.0
1082,36.0,0,59,0.0,78.0
1083,48.0,2,64,0.0,78.0
1084,69.0,30,37,0.0,60.0
1085,79.0,0,28,0.0,60.0
1086,76.0,30,30,0.0,45.0
1087,64.0,21,123,1.0,78.0
1088,69.0,5,126,1.0,78.0
1089,69.0,30,35,0.0,45.0
1090,79.0,0,29,0.0,60.0
1091,76.0,0,32,0.0,60.0
1092,69.0,23,36,0.0,52.0
1093,48.0,0,75,0.0,68.0
1094,36.0,5,81,0.0,68.0
1095,57.0,3,89,1.0,58.0
1096,79.0,30,30,0.0,39.0
1097,67.0,22,98,1.0,78.0
1098,76.0,0,33,0.0,39.0
1099,76.0,7,109,1.0,78.0
1100,69.0,30,34,0.0,52.0
1101,48.0,2,253,1.0,68.0
1102,79.0,0,30,0.0,60.0
1103,74.0,1,32,0.0,78.0
1104,69.0,29,35,0.0,52.0
1105,50.0,0,69,0.0,78.0
1106,67.0,2,87,1.0,78.0
1107,38.0,0,84,0.0,60.0
1108,57.0,23,98,1.0,68.0
1109,74.0,30,32,0.0,52.0
1110,79.0,0,33,0.0,45.0
1111,69.0,30,18,0.0,60.0
1112,50.0,4,117,1.0,78.0
1113,74.0,1,119,1.0,68.0
1114,69.0,0,39,0.0,78.0
1115,73.0,3,40,0.0,100.0
1116,79.0,0,43,0.0,88.0
1117,57.0,2,88,1.0,90.0
1118,67.0,0,93,1.0,90.0
1119,73.0,3,91,1.0,90.0
1120,40.0,0,91,0.0,78.0
1121,52.0,0,91,0.0,78.0
1122,52.0,22,102,1.0,78.0
1123,73.0,0,76,1.0,90.0
1124,52.0,1,101,1.0,90.0
1125,67.0,2,106,1.0,90.0
1126,57.0,114,109,1.0,68.0
1127,69.0,158,15,0.0,60.0
1128,71.0,20,15,0.0,60.0
1129,73.0,20,15,0.0,60.0
1130,74.0,10,15,0.0,60.0
1131,76.0,10,15,0.0,60.0
1132,78.0,10,15,0.0,60.0
1133,69.0,1,44,0.0,78.0
1134,79.0,4,48,0.0,78.0
1135,73.0,1,48,0.0,100.0
1136,52.0,6,75,1.0,104.0
1137,57.0,3,73,1.0,90.0
1138,73.0,2,74,1.0,104.0
1139,67.0,0,74,1.0,90.0
1140,52.0,0,75,0.0,88.0
1141,40.0,0,77,0.0,78.0
1142,52.0,80,16,1.0,50.0
1143,73.0,7,14,1.0,58.0
1144,67.0,2,13,1.0,78.0
1145,57.0,3,17,1.0,58.0
1146,73.0,5,63,1.0,90.0
1147,52.0,15,124,1.0,68.0
1148,67.0,4,121,1.0,90.0
1149,57.0,2,125,1.0,68.0
1150,73.0,134,15,0.0,78.0
1151,74.0,12,15,0.0,78.0
1152,76.0,16,15,0.0,78.0
1153,78.0,13,15,0.0,78.0
1154,79.0,15,15,0.0,78.0
1155,81.0,19,15,0.0,78.0
1156,83.0,11,15,0.0,78.0
1157,52.0,1,18,0.0,68.0
1158,40.0,0,18,0.0,68.0
1159,81.0,0,29,0.0,60.0
1160,85.0,0,29,0.0,88.0
1161,81.0,0,29,0.0,60.0
1162,76.0,23,29,0.0,60.0
1163,79.0,0,72,1.0,68.0
1164,52.0,4,67,1.0,78.0
1165,61.0,3,73,1.0,90.0
1166,40.0,0,17,0.0,52.0
1167,52.0,0,21,0.0,60.0
1168,81.0,0,29,0.0,60.0
1169,85.0,30,29,0.0,60.0
1170,76.0,30,29,0.0,60.0
1171,40.0,30,19,0.0,52.0
1172,52.0,0,22,0.0,60.0
1173,85.0,0,29,0.0,60.0
1174,81.0,0,29,0.0,60.0
1175,69.0,0,163,1.0,90.0
1176,76.0,30,29,0.0,60.0
1177,40.0,0,17,0.0,39.0
1178,52.0,0,19,0.0,45.0
1179,81.0,30,29,0.0,60.0
1180,85.0,0,29,0.0,60.0
1181,52.0,2,28,1.0,78.0
1182,61.0,0,38,1.0,78.0
1183,69.0,5,35,1.0,78.0
1184,79.0,1,36,1.0,68.0
1185,76.0,22,29,0.0,60.0
1186,40.0,0,18,0.0,52.0
1187,52.0,0,21,0.0,52.0
1188,81.0,0,29,0.0,60.0
1189,85.0,4,29,0.0,60.0
1190,76.0,25,29,0.0,60.0
1191,40.0,0,21,0.0,39.0
1192,52.0,0,21,0.0,52.0
1193,85.0,0,29,0.0,60.0
1194,81.0,30,29,0.0,60.0
1195,69.0,4,87,1.0,78.0
1196,52.0,26,113,1.0,90.0
1197,61.0,1,110,1.0,90.0
1198,76.0,30,29,0.0,60.0
1199,79.0,0,116,1.0,58.0
1200,38.0,0,21,0.0,60.0
1201,50.0,2,22,0.0,60.0
1202,81.0,0,31,0.0,60.0
1203,86.0,0,32,0.0,60.0
1204,78.0,29,28,0.0,39.0
1205,38.0,0,19,0.0,45.0
1206,50.0,0,21,0.0,45.0
1207,86.0,30,25,0.0,34.0
1208,81.0,0,26,0.0,39.0
1209,78.0,30,11,0.0,52.0
1210,38.0,0,19,0.0,52.0
1211,50.0,0,20,0.0,52.0
1212,81.0,0,30,0.0,52.0
1213,78.0,30,30,0.0,78.0
1214,74.0,30,32,0.0,7.0
1215,38.0,0,19,0.0,52.0
1216,50.0,30,21,0.0,39.0
1217,81.0,0,28,0.0,34.0
1218,78.0,0,29,0.0,52.0
1219,74.0,30,15,0.0,52.0
1220,74.0,0,21,0.0,39.0
1221,50.0,30,21,0.0,39.0
1222,38.0,0,21,0.0,52.0
1223,78.0,0,33,0.0,60.0
1224,69.0,30,32,0.0,52.0
1225,38.0,0,18,0.0,45.0
1226,50.0,0,21,0.0,60.0
1227,74.0,0,21,0.0,45.0
1228,78.0,30,25,0.0,52.0
1229,50.0,24,333,1.0,78.0
1230,69.0,30,13,0.0,29.0
1231,69.0,2,354,1.0,78.0
1232,62.0,2,360,1.0,78.0
1233,78.0,1,359,1.0,90.0
1234,50.0,6,74,0.0,60.0
1235,38.0,0,74,0.0,68.0
1236,66.0,0,75,0.0,88.0
1237,69.0,0,75,0.0,60.0
1238,74.0,0,79,0.0,68.0
1239,50.0,4,103,1.0,90.0
1240,74.0,3,104,1.0,78.0
1241,57.0,1,124,1.0,68.0
1242,66.0,16,135,1.0,90.0
1243,71.0,0,11,0.0,60.0
1244,74.0,52,12,0.0,68.0
1245,55.0,0,147,0.0,39.0
1246,43.0,360,150,0.0,25.0
1247,76.0,60,35,0.0,60.0
1248,84.0,0,39,0.0,68.0
1249,83.0,0,14,0.0,68.0
1250,74.0,60,19,0.0,68.0
1251,72.0,0,16,0.0,52.0
1252,81.0,60,16,0.0,60.0
1253,74.0,8,264,2.0,98.0
1254,71.0,0,15,0.0,60.0
1255,74.0,56,20,2.0,98.0
1256,79.0,4,22,0.0,60.0
1257,78.0,0,15,0.0,68.0
1258,69.0,13,17,0.0,60.0
1259,67.0,60,14,0.0,39.0
1260,76.0,0,17,0.0,29.0
1261,50.0,0,104,0.0,34.0
1262,74.0,0,14,0.0,52.0
1263,66.0,60,20,0.0,78.0
1264,72.0,60,15,0.0,45.0
1265,64.0,0,17,0.0,45.0
1266,62.0,0,17,0.0,45.0
1267,71.0,60,22,0.0,60.0
1268,60.0,0,17,0.0,39.0
1269,69.0,60,30,0.0,52.0
1270,74.0,47,372,2.0,98.0
1271,74.0,60,19,0.0,52.0
1272,71.0,59,98,2.0,88.0
1273,72.0,33,28,2.0,78.0
1274,76.0,0,22,0.0,52.0
1275,84.0,27,22,0.0,60.0
1276,59.0,0,168,0.0,45.0
1277,55.0,0,179,0.0,25.0
1278,83.0,0,16,0.0,52.0
1279,74.0,60,18,0.0,52.0
1280,74.0,0,116,2.0,98.0
1281,81.0,0,18,0.0,45.0
1282,72.0,60,19,0.0,45.0
1283,67.0,1,302,0.0,52.0
1284,79.0,0,21,0.0,52.0
1285,69.0,60,28,0.0,34.0
1286,62.0,0,341,2.0,98.0
1287,71.0,30,30,0.0,29.0
1288,69.0,30,22,0.0,34.0
1289,78.0,0,25,0.0,78.0
1290,76.0,60,17,0.0,52.0
1291,72.0,0,21,0.0,52.0
1292,74.0,0,16,0.0,68.0
1293,71.0,60,18,0.0,52.0
1294,72.0,60,12,0.0,60.0
1295,69.0,0,16,0.0,52.0
1296,67.0,0,14,0.0,39.0
1297,71.0,60,17,0.0,45.0
1298,66.0,0,14,0.0,60.0
1299,69.0,60,14,0.0,45.0
1300,62.0,0,358,0.0,52.0
1301,62.0,0,360,2.0,98.0
1302,71.0,57,7,0.0,39.0
1303,74.0,0,10,0.0,60.0
1304,59.0,0,89,2.0,88.0
1305,60.0,27,26,2.0,78.0
1306,55.0,0,125,0.0,18.0
1307,84.0,5,19,0.0,68.0
1308,76.0,0,20,0.0,60.0
1309,83.0,60,14,0.0,52.0
1310,74.0,0,17,0.0,52.0
1311,62.0,28,125,2.0,98.0
1312,72.0,0,22,0.0,45.0
1313,81.0,60,26,0.0,52.0
1314,67.0,60,309,0.0,45.0
1315,79.0,60,16,0.0,60.0
1316,69.0,0,32,0.0,34.0
1317,74.0,3,333,2.0,98.0
1318,71.0,30,42,0.0,25.0
1319,78.0,0,21,0.0,68.0
1320,69.0,6,27,0.0,60.0
1321,67.0,0,19,0.0,45.0
1322,76.0,60,21,0.0,39.0
1323,74.0,60,14,0.0,52.0
1324,66.0,0,19,0.0,68.0
1325,72.0,0,17,0.0,45.0
1326,64.0,60,19,0.0,45.0
1327,62.0,0,17,0.0,39.0
1328,71.0,60,18,0.0,45.0
1329,60.0,60,13,0.0,52.0
1330,69.0,0,17,0.0,52.0
1331,74.0,24,359,2.0,98.0
1332,74.0,60,28,0.0,52.0
1333,71.0,53,102,2.0,88.0
1334,72.0,30,25,2.0,70.0
1335,76.0,0,19,0.0,60.0
1336,84.0,9,19,0.0,60.0
1337,59.0,0,161,0.0,45.0
1338,55.0,0,170,0.0,39.0
1339,83.0,60,16,0.0,52.0
1340,74.0,0,19,0.0,52.0
1341,74.0,21,128,2.0,78.0
1342,81.0,60,18,0.0,52.0
1343,72.0,0,23,0.0,52.0
1344,67.0,3,292,0.0,45.0
1345,79.0,60,23,0.0,52.0
1346,69.0,0,24,0.0,45.0
1347,62.0,4,327,2.0,98.0
1348,71.0,30,26,0.0,14.0
1349,69.0,0,19,0.0,60.0
1350,78.0,0,29,0.0,68.0
1351,76.0,60,16,0.0,45.0
1352,72.0,0,21,0.0,45.0
1353,71.0,0,16,0.0,34.0
1354,74.0,60,18,0.0,52.0
1355,72.0,0,10,0.0,52.0
1356,69.0,60,19,0.0,52.0
1357,62.0,24,215,2.0,88.0
1358,71.0,60,16,0.0,52.0
1359,67.0,0,17,0.0,52.0
1360,69.0,59,15,0.0,39.0
1361,66.0,0,19,0.0,68.0
1362,62.0,6,355,0.0,25.0
1363,62.0,1,115,2.0,98.0
1364,74.0,60,18,0.0,52.0
1365,71.0,0,21,0.0,39.0
1366,59.0,57,87,2.0,88.0
1367,60.0,22,22,2.0,78.0
1368,55.0,0,111,0.0,39.0
1369,43.0,3,111,0.0,34.0
1370,71.0,12,21,0.0,39.0
1371,74.0,0,21,0.0,45.0
1372,71.0,0,23,0.0,45.0
1373,74.0,60,23,0.0,52.0
1374,74.0,60,21,0.0,60.0
1375,71.0,0,23,0.0,52.0
1376,62.0,26,156,2.0,98.0
1377,74.0,0,16,0.0,39.0
1378,71.0,60,19,0.0,52.0
1379,31.0,0,56,0.0,45.0
1380,43.0,0,59,0.0,39.0
1381,71.0,5,58,2.0,88.0
1382,71.0,60,69,0.0,60.0
1383,67.0,55,18,0.0,45.0
1384,74.0,0,84,0.0,52.0
1385,74.0,0,86,2.0,88.0
1386,71.0,25,27,2.0,70.0
1387,67.0,1,54,2.0,78.0
1388,71.0,4,29,0.0,29.0
1389,67.0,0,15,0.0,45.0
1390,67.0,63,30,0.0,39.0
1391,67.0,57,15,0.0,29.0
1392,76.0,0,169,0.0,52.0
1393,72.0,0,173,0.0,52.0
1394,72.0,3,182,2.0,88.0
1395,76.0,27,187,2.0,98.0
1396,74.0,0,17,0.0,20.0
1397,71.0,0,25,0.0,25.0
1398,74.0,59,33,2.0,98.0
1399,71.0,2,34,2.0,98.0
1400,67.0,1,53,0.0,20.0
1401,71.0,3,57,2.0,98.0
1402,74.0,54,65,2.0,98.0
1403,72.0,0,19,0.0,34.0
1404,69.0,5,21,0.0,25.0
1405,69.0,50,39,2.0,78.0
1406,72.0,5,36,2.0,88.0
1407,62.0,0,94,0.0,45.0
1408,50.0,1,95,0.0,14.0
1409,69.0,0,22,0.0,39.0
1410,72.0,5,23,0.0,39.0
1411,72.0,60,20,0.0,39.0
1412,69.0,0,23,0.0,39.0
1413,69.0,1,126,2.0,88.0
1414,72.0,54,133,2.0,88.0
1415,69.0,60,22,0.0,52.0
1416,72.0,0,27,0.0,45.0
1417,69.0,0,19,0.0,39.0
1418,72.0,60,23,0.0,34.0
1419,38.0,1,58,0.0,39.0
1420,50.0,2,63,0.0,39.0
1421,69.0,3,64,0.0,52.0
1422,62.0,60,13,0.0,68.0
1423,72.0,0,82,0.0,45.0
1424,69.0,30,10,0.0,25.0
1425,66.0,0,16,0.0,45.0
1426,66.0,54,117,2.0,98.0
1427,69.0,0,121,2.0,78.0
1428,62.0,1,12,0.0,45.0
1429,62.0,60,13,0.0,25.0
1430,62.0,60,11,0.0,39.0
1431,71.0,25,174,2.0,88.0
1432,74.0,0,170,0.0,68.0
1433,71.0,0,173,0.0,60.0
1434,74.0,4,193,2.0,98.0
1435,62.0,0,18,0.0,45.0
1436,69.0,0,21,0.0,29.0
1437,69.0,50,34,2.0,88.0
1438,72.0,10,25,0.0,34.0
1439,72.0,5,30,2.0,88.0
1440,72.0,2,88,2.0,98.0
1441,69.0,2,96,2.0,98.0
1442,67.0,0,17,2.0,88.0
1443,71.0,92,17,2.0,88.0
1444,43.0,0,111,0.0,20.0
1445,55.0,2,122,0.0,34.0
1446,67.0,2,54,0.0,45.0
1447,59.0,0,57,0.0,39.0
1448,71.0,26,109,2.0,110.0
1449,58.0,0,50,0.0,52.0
1450,66.0,60,53,0.0,45.0
1451,67.0,0,115,2.0,98.0
1452,67.0,60,23,0.0,45.0
1453,59.0,0,30,0.0,39.0
1454,67.0,0,9,0.0,52.0
1455,55.0,49,321,2.0,98.0
1456,55.0,35,14,2.0,110.0
1457,59.0,1,1,0.0,52.0
1458,67.0,0,67,0.0,52.0
1459,62.0,60,18,0.0,39.0
1460,55.0,0,96,0.0,45.0
1461,43.0,0,115,0.0,25.0
1462,55.0,1,129,2.0,110.0
1463,67.0,0,59,0.0,60.0
1464,71.0,60,62,0.0,60.0
1465,71.0,1,234,2.0,98.0
1466,70.0,0,54,0.0,52.0
1467,66.0,60,58,0.0,68.0
1468,62.0,22,252,2.0,98.0
1469,67.0,2,17,0.0,45.0
1470,71.0,0,21,0.0,45.0
1471,67.0,56,53,2.0,98.0
1472,71.0,60,21,0.0,78.0
1473,59.0,2,93,2.0,98.0
1474,67.0,37,15,2.0,78.0
1475,67.0,0,2,2.0,110.0
1476,67.0,0,64,0.0,34.0
1477,74.0,21,58,2.0,88.0
1478,71.0,0,59,0.0,78.0
1479,59.0,0,61,2.0,78.0
1480,62.0,2,67,0.0,78.0
1481,67.0,5,25,0.0,45.0
1482,71.0,51,40,2.0,88.0
1483,55.0,4,37,2.0,98.0
1484,55.0,0,95,0.0,39.0
1485,43.0,0,126,0.0,29.0
1486,67.0,0,56,0.0,52.0
1487,74.0,0,63,0.0,68.0
1488,55.0,6,93,2.0,88.0
1489,71.0,0,114,2.0,98.0
1490,70.0,0,51,0.0,88.0
1491,73.0,60,63,0.0,60.0
1492,71.0,0,15,0.0,39.0
1493,74.0,1,19,0.0,60.0
1494,55.0,59,21,2.0,98.0
1495,71.0,8,13,0.0,52.0
1496,74.0,0,28,0.0,60.0
1497,55.0,52,59,2.0,98.0
1498,72.0,0,23,0.0,60.0
1499,57.0,1,40,2.0,98.0
1500,76.0,5,43,0.0,60.0
1501,76.0,1,59,2.0,78.0
1502,72.0,0,21,0.0,45.0
1503,69.0,5,23,0.0,45.0
1504,36.0,0,88,0.0,60.0
1505,48.0,0,95,0.0,45.0
1506,48.0,54,111,2.0,88.0
1507,64.0,1,116,2.0,88.0
1508,57.0,1,52,2.0,98.0
1509,72.0,53,66,2.0,88.0
1510,71.0,3,24,0.0,60.0
1511,67.0,0,25,0.0,45.0
1512,38.0,0,79,0.0,52.0
1513,50.0,0,81,0.0,52.0
1514,71.0,0,24,0.0,52.0
1515,74.0,60,26,0.0,45.0
1516,62.0,2,120,2.0,98.0
1517,67.0,5,124,2.0,98.0
1518,71.0,0,125,2.0,88.0
1519,72.0,0,14,0.0,45.0
1520,69.0,0,15,0.0,52.0
1521,50.0,0,62,0.0,34.0
1522,69.0,0,8,0.0,25.0
1523,66.0,54,9,0.0,45.0
1524,38.0,3,71,0.0,45.0
1525,66.0,54,115,2.0,110.0
1526,50.0,49,244,2.0,98.0
1527,60.0,3,123,2.0,98.0
1528,69.0,6,116,2.0,98.0
1529,59.0,0,74,0.0,60.0
1530,67.0,0,85,0.0,60.0
1531,31.0,0,104,0.0,29.0
1532,43.0,0,111,0.0,34.0
1533,43.0,0,123,2.0,88.0
1534,67.0,2,118,2.0,98.0
1535,59.0,4,124,2.0,98.0
1536,59.0,0,54,0.0,29.0
1537,67.0,118,56,0.0,60.0
1538,55.0,5,91,2.0,98.0
1539,58.0,55,51,0.0,39.0
1540,66.0,0,54,0.0,60.0
1541,67.0,0,17,0.0,60.0
1542,59.0,60,18,0.0,34.0
1543,55.0,3,29,2.0,110.0
1544,67.0,0,12,0.0,78.0
1545,55.0,52,29,2.0,98.0
1546,59.0,5,46,0.0,25.0
1547,67.0,0,69,0.0,45.0
1548,59.0,0,75,0.0,45.0
1549,62.0,60,27,0.0,45.0
1550,67.0,4,6,0.0,60.0
1551,71.0,0,57,0.0,60.0
1552,43.0,0,181,0.0,45.0
1553,55.0,2,182,0.0,25.0
1554,67.0,56,90,2.0,98.0
1555,71.0,0,234,2.0,98.0
1556,66.0,0,53,0.0,68.0
1557,70.0,60,65,0.0,45.0
1558,62.0,4,250,2.0,98.0
1559,71.0,1,14,0.0,68.0
1560,67.0,0,16,0.0,52.0
1561,67.0,0,24,2.0,110.0
1562,71.0,12,21,0.0,88.0
1563,67.0,48,40,2.0,98.0
1564,59.0,3,93,2.0,98.0
1565,55.0,54,358,2.0,110.0
1566,67.0,54,4,2.0,110.0
1567,67.0,0,61,0.0,52.0
1568,62.0,0,58,0.0,52.0
1569,71.0,0,61,0.0,52.0
1570,59.0,1,63,2.0,88.0
1571,74.0,3,66,2.0,98.0
1572,67.0,1,20,0.0,52.0
1573,55.0,54,31,2.0,88.0
1574,71.0,5,30,2.0,70.0
1575,43.0,1,109,2.0,98.0
1576,43.0,1,125,0.0,45.0
1577,55.0,0,126,0.0,52.0
1578,71.0,2,57,0.0,68.0
1579,74.0,0,63,0.0,68.0
1580,71.0,5,117,2.0,98.0
1581,70.0,0,56,0.0,60.0
1582,55.0,53,126,2.0,98.0
1583,73.0,60,64,0.0,68.0
1584,71.0,0,20,0.0,34.0
1585,74.0,0,25,0.0,60.0
1586,74.0,0,15,0.0,60.0
1587,62.0,2,102,2.0,88.0
1588,71.0,60,42,0.0,45.0
1589,79.0,1,112,2.0,78.0
1590,59.0,57,116,2.0,98.0
1591,72.0,0,15,0.0,68.0
1592,76.0,0,25,0.0,60.0
1593,48.0,1,32,2.0,88.0
1594,57.0,1,55,2.0,88.0
1595,64.0,2,54,2.0,98.0
1596,76.0,57,59,2.0,78.0
1597,72.0,0,13,0.0,45.0
1598,36.0,0,75,0.0,20.0
1599,69.0,2,16,0.0,45.0
1600,72.0,46,32,2.0,88.0
1601,48.0,2,88,0.0,14.0
1602,48.0,5,54,2.0,88.0
1603,69.0,2,59,2.0,88.0
1604,64.0,2,59,2.0,98.0
1605,71.0,0,15,0.0,52.0
1606,67.0,0,16,0.0,39.0
1607,74.0,0,19,0.0,45.0
1608,71.0,60,21,0.0,45.0
1609,38.0,3,82,0.0,25.0
1610,50.0,0,84,0.0,29.0
1611,71.0,49,126,2.0,88.0
1612,67.0,6,126,2.0,98.0
1613,72.0,3,16,0.0,29.0
1614,69.0,0,16,0.0,34.0
1615,50.0,0,65,0.0,25.0
1616,38.0,0,73,0.0,39.0
1617,66.0,0,16,0.0,52.0
1618,69.0,60,16,0.0,29.0
1619,62.0,0,232,2.0,98.0
1620,50.0,2,236,2.0,98.0
1621,66.0,0,116,2.0,110.0
1622,69.0,57,122,2.0,98.0
1623,67.0,0,17,0.0,78.0
1624,55.0,60,29,0.0,52.0
1625,31.0,1,101,0.0,7.0
1626,43.0,0,105,0.0,25.0
1627,50.0,30,15,0.0,60.0
1628,43.0,57,119,2.0,98.0
1629,67.0,1,129,2.0,88.0
1630,62.0,0,130,2.0,98.0
1631,43.0,0,12,0.0,1.0
1632,58.0,30,17,0.0,68.0
1633,55.0,30,30,0.0,68.0
1634,43.0,30,24,0.0,39.0
1635,62.0,0,26,0.0,60.0
1636,58.0,30,5,0.0,45.0
1637,43.0,30,19,0.0,39.0
1638,67.0,0,26,0.0,52.0
1639,62.0,30,23,0.0,45.0
1640,43.0,30,23,0.0,34.0
1641,70.0,0,29,0.0,68.0
1642,67.0,30,5,0.0,45.0
1643,67.0,0,19,0.0,78.0
1644,55.0,0,25,0.0,78.0
1645,43.0,30,30,0.0,68.0
1646,70.0,0,51,0.0,78.0
1647,74.0,0,56,0.0,88.0
1648,62.0,60,66,0.0,45.0
1649,45.0,60,18,0.0,68.0
1650,57.0,0,20,0.0,78.0
1651,67.0,0,57,0.0,60.0
1652,69.0,0,60,0.0,68.0
1653,72.0,0,66,0.0,68.0
1654,62.0,60,60,0.0,45.0
1655,46.0,60,23,0.0,78.0
1656,58.0,0,27,0.0,88.0
1657,67.0,0,56,0.0,68.0
1658,70.0,0,62,0.0,78.0
1659,62.0,5,18,0.0,52.0
1660,55.0,49,37,1.0,68.0
1661,46.0,1,50,1.0,90.0
1662,62.0,4,51,1.0,78.0
1663,70.0,1,50,1.0,90.0
1664,67.0,0,13,0.0,88.0
1665,69.0,0,18,0.0,88.0
1666,63.0,3,19,0.0,88.0
1667,48.0,0,73,0.0,68.0
1668,57.0,60,28,0.0,60.0
1669,60.0,0,88,0.0,60.0
1670,55.0,30,20,0.0,52.0
1671,60.0,30,18,0.0,52.0
1672,55.0,0,22,0.0,52.0
1673,57.0,30,22,0.0,25.0
1674,63.0,0,19,0.0,52.0
1675,55.0,30,20,0.0,52.0
1676,55.0,2,210,1.0,78.0
1677,63.0,50,221,1.0,90.0
1678,48.0,1,219,1.0,78.0
1679,69.0,4,217,1.0,90.0
1680,60.0,30,22,0.0,34.0
1681,55.0,0,20,0.0,39.0
1682,69.0,3,29,0.0,29.0
1683,67.0,23,25,0.0,60.0
1684,55.0,0,23,0.0,52.0
1685,72.0,30,33,0.0,52.0
1686,69.0,30,5,0.0,39.0
1687,69.0,5,88,1.0,90.0
1688,55.0,25,100,1.0,78.0
1689,48.0,2,101,1.0,78.0
1690,63.0,2,101,1.0,90.0
1691,72.0,0,58,0.0,60.0
1692,75.0,0,66,0.0,88.0
1693,57.0,0,101,0.0,68.0
1694,45.0,30,103,0.0,52.0
1695,67.0,60,55,0.0,60.0
1696,46.0,0,58,0.0,60.0
1697,58.0,0,58,0.0,68.0
1698,74.0,0,68,0.0,68.0
1699,70.0,60,72,0.0,78.0
1700,67.0,60,54,0.0,39.0
1701,69.0,0,61,0.0,45.0
1702,72.0,60,67,0.0,39.0
1703,60.0,0,73,0.0,60.0
1704,67.0,4,13,0.0,45.0
1705,48.0,0,73,0.0,52.0
1706,55.0,2,37,1.0,78.0
1707,72.0,2,49,1.0,68.0
1708,48.0,49,62,1.0,90.0
1709,63.0,3,69,1.0,90.0
1710,67.0,1,13,0.0,88.0
1711,65.0,0,14,0.0,78.0
1712,71.0,0,16,0.0,78.0
1713,50.0,0,51,0.0,60.0
1714,62.0,0,57,0.0,78.0
1715,59.0,60,29,0.0,45.0
1716,55.0,30,30,0.0,52.0
1717,55.0,0,16,0.0,52.0
1718,62.0,30,21,0.0,60.0
1719,59.0,30,23,0.0,18.0
1720,65.0,30,23,0.0,78.0
1721,55.0,0,24,0.0,60.0
1722,50.0,1,215,1.0,78.0
1723,55.0,4,221,1.0,90.0
1724,65.0,4,217,1.0,90.0
1725,71.0,50,230,1.0,78.0
1726,62.0,30,20,0.0,60.0
1727,55.0,0,22,0.0,52.0
1728,71.0,0,27,0.0,52.0
1729,65.0,27,33,0.0,52.0
1730,55.0,30,22,0.0,52.0
1731,74.0,0,28,0.0,52.0
1732,50.0,2,98,1.0,78.0
1733,55.0,27,106,1.0,78.0
1734,71.0,30,15,0.0,52.0
1735,65.0,1,108,1.0,90.0
1736,71.0,3,109,1.0,90.0
1737,74.0,0,48,0.0,68.0
1738,59.0,0,48,0.0,68.0
1739,77.0,30,56,0.0,68.0
1740,47.0,0,58,0.0,60.0
1741,67.0,60,65,0.0,52.0
1742,60.0,0,59,0.0,68.0
1743,72.0,60,61,0.0,68.0
1744,48.0,0,63,0.0,45.0
1745,75.0,0,66,0.0,78.0
1746,67.0,60,65,0.0,52.0
1747,71.0,60,56,0.0,60.0
1748,50.0,0,61,0.0,52.0
1749,74.0,0,62,0.0,60.0
1750,62.0,0,69,0.0,68.0
1751,55.0,0,31,1.0,68.0
1752,67.0,8,23,0.0,39.0
1753,74.0,49,62,1.0,68.0
1754,65.0,0,64,1.0,90.0
1755,50.0,3,66,1.0,78.0
1756,63.0,0,19,0.0,88.0
1757,51.0,0,21,0.0,68.0
1758,67.0,5,23,0.0,60.0
1759,72.0,0,27,0.0,60.0
1760,39.0,60,18,0.0,60.0
1761,51.0,0,19,0.0,52.0
1762,39.0,0,16,0.0,60.0
1763,51.0,60,17,0.0,52.0
1764,72.0,0,83,0.0,78.0
1765,67.0,0,84,0.0,78.0
1766,79.0,0,86,0.0,68.0
1767,51.0,60,14,0.0,45.0
1768,39.0,0,15,0.0,60.0
1769,51.0,0,16,0.0,52.0
1770,39.0,60,17,0.0,60.0
1771,67.0,0,78,0.0,78.0
1772,72.0,0,81,0.0,78.0
1773,79.0,0,84,0.0,68.0
1774,67.0,0,10,0.0,68.0
1775,72.0,60,11,0.0,68.0
1776,51.0,0,15,0.0,29.0
1777,39.0,0,17,0.0,52.0
1778,79.0,0,18,0.0,52.0
1779,51.0,0,335,1.0,90.0
1780,55.0,49,345,1.0,78.0
1781,67.0,4,341,1.0,90.0
1782,72.0,2,364,1.0,78.0
1783,51.0,0,19,0.0,60.0
1784,39.0,3,19,0.0,68.0
1785,81.0,0,26,0.0,52.0
1786,79.0,30,29,0.0,39.0
1787,51.0,0,14,0.0,52.0
1788,39.0,30,17,0.0,68.0
1789,78.0,0,30,0.0,34.0
1790,79.0,30,29,0.0,45.0
1791,51.0,30,16,0.0,60.0
1792,39.0,0,18,0.0,78.0
1793,81.0,0,30,0.0,52.0
1794,79.0,30,33,0.0,39.0
1795,51.0,0,14,0.0,34.0
1796,39.0,0,18,0.0,52.0
1797,78.0,30,34,0.0,52.0
1798,79.0,30,29,0.0,39.0
1799,51.0,0,14,0.0,45.0
1800,39.0,0,18,0.0,68.0
1801,81.0,30,32,0.0,39.0
1802,79.0,30,37,0.0,34.0
1803,51.0,0,13,0.0,29.0
1804,39.0,30,19,0.0,52.0
1805,73.0,0,328,0.0,78.0
1806,78.0,0,34,0.0,39.0
1807,79.0,30,11,0.0,52.0
1808,55.0,3,355,1.0,78.0
1809,51.0,53,359,1.0,90.0
1810,73.0,1,356,1.0,90.0
1811,67.0,0,354,1.0,90.0
1812,50.0,0,14,0.0,52.0
1813,38.0,0,19,0.0,60.0
1814,74.0,0,30,0.0,60.0
1815,78.0,4,30,0.0,60.0
1816,69.0,30,42,0.0,39.0
1817,38.0,0,17,0.0,52.0
1818,50.0,0,17,0.0,60.0
1819,74.0,0,25,0.0,60.0
1820,78.0,30,50,0.0,60.0
1821,69.0,30,25,0.0,45.0
1822,57.0,14,136,1.0,90.0
1823,66.0,8,128,1.0,90.0
1824,50.0,5,15,0.0,52.0
1825,38.0,0,16,0.0,52.0
1826,74.0,0,28,0.0,78.0
1827,79.0,0,34,0.0,60.0
1828,70.0,30,35,0.0,52.0
1829,50.0,0,15,0.0,45.0
1830,38.0,30,19,0.0,45.0
1831,79.0,0,23,0.0,45.0
1832,74.0,0,27,0.0,60.0
1833,70.0,30,16,0.0,52.0
1834,58.0,22,127,1.0,78.0
1835,67.0,3,128,1.0,78.0
1836,50.0,0,15,0.0,45.0
1837,38.0,0,16,0.0,45.0
1838,82.0,4,29,0.0,88.0
1839,79.0,0,31,0.0,68.0
1840,74.0,30,37,0.0,52.0
1841,50.0,30,15,0.0,39.0
1842,38.0,0,16,0.0,45.0
1843,79.0,0,27,0.0,34.0
1844,82.0,0,30,0.0,52.0
1845,74.0,2,335,1.0,78.0
1846,50.0,2,337,1.0,78.0
1847,70.0,0,110,1.0,90.0
1848,74.0,30,21,0.0,34.0
1849,55.0,26,123,1.0,68.0
1850,81.0,0,58,0.0,78.0
1851,86.0,0,61,0.0,68.0
1852,78.0,0,63,0.0,78.0
1853,74.0,0,66,0.0,78.0
1854,74.0,5,98,1.0,90.0
1855,50.0,2,104,1.0,78.0
1856,38.0,0,113,0.0,52.0
1857,50.0,4,116,0.0,45.0
1858,54.0,19,130,1.0,90.0
1859,69.0,0,155,1.0,78.0
1860,62.0,0,86,0.0,78.0
1861,74.0,120,87,0.0,78.0
1862,74.0,0,62,0.0,68.0
1863,62.0,120,83,0.0,60.0
1864,74.0,120,51,0.0,68.0
1865,70.0,0,54,0.0,68.0
1866,55.0,0,115,0.0,52.0
1867,62.0,50,73,0.0,34.0
1868,69.0,0,54,0.0,60.0
1869,72.0,0,54,0.0,52.0
1870,57.0,60,120,0.0,60.0
1871,62.0,60,66,0.0,39.0
1872,67.0,0,57,0.0,52.0
1873,70.0,60,58,0.0,60.0
1874,62.0,10,327,2.0,70.0
1875,58.0,0,113,0.0,68.0
1876,62.0,60,60,0.0,39.0
1877,66.0,1,58,0.0,88.0
1878,69.0,0,62,0.0,60.0
1879,60.0,1,124,2.0,88.0
1880,60.0,0,123,0.0,60.0
1881,69.0,0,124,2.0,70.0
1882,66.0,58,127,2.0,88.0
1883,62.0,56,67,0.0,52.0
1884,67.0,0,59,0.0,52.0
1885,70.0,3,62,0.0,68.0
1886,58.0,0,120,0.0,68.0
1887,62.0,58,61,0.0,39.0
1888,67.0,57,127,2.0,78.0
1889,58.0,0,124,2.0,88.0
1890,70.0,2,127,2.0,88.0
1891,72.0,0,49,0.0,60.0
1892,69.0,60,56,0.0,52.0
1893,62.0,4,333,2.0,78.0
1894,62.0,52,53,0.0,45.0
1895,57.0,0,114,0.0,60.0
1896,69.0,2,112,2.0,78.0
1897,72.0,4,113,2.0,70.0
1898,57.0,2,125,2.0,78.0
1899,74.0,0,47,0.0,60.0
1900,70.0,60,62,0.0,78.0
1901,69.0,0,24,0.0,52.0
1902,72.0,55,28,0.0,39.0
1903,62.0,2,115,2.0,78.0
1904,55.0,0,119,0.0,52.0
1905,70.0,0,129,2.0,78.0
1906,55.0,2,126,2.0,70.0
1907,72.0,0,59,0.0,45.0
1908,69.0,0,64,0.0,60.0
1909,74.0,1,187,2.0,78.0
1910,70.0,58,14,0.0,60.0
1911,67.0,0,20,0.0,39.0
1912,66.0,0,112,2.0,88.0
1913,57.0,0,122,0.0,60.0
1914,75.0,4,58,2.0,88.0
1915,60.0,60,124,2.0,78.0
1916,57.0,2,123,2.0,70.0
1917,70.0,0,54,0.0,60.0
1918,67.0,0,55,0.0,52.0
1919,69.0,58,15,0.0,45.0
1920,66.0,0,20,0.0,68.0
1921,58.0,1,108,2.0,98.0
1922,67.0,51,121,2.0,70.0
1923,58.0,1,118,0.0,78.0
1924,74.0,1,125,2.0,88.0
1925,69.0,0,64,0.0,60.0
1926,66.0,0,64,0.0,78.0
1927,66.0,51,124,2.0,98.0
1928,69.0,5,120,2.0,78.0
1929,60.0,4,131,2.0,78.0
1930,62.0,55,68,0.0,60.0
1931,60.0,4,128,0.0,60.0
1932,67.0,0,53,0.0,52.0
1933,70.0,3,59,0.0,60.0
1934,62.0,1,223,2.0,98.0
1935,58.0,55,118,2.0,88.0
1936,62.0,57,57,0.0,45.0
1937,58.0,0,123,0.0,60.0
1938,70.0,3,121,2.0,98.0
1939,67.0,2,133,2.0,88.0
1940,69.0,0,59,0.0,52.0
1941,72.0,2,59,0.0,52.0
1942,62.0,0,89,2.0,78.0
1943,57.0,0,112,0.0,60.0
1944,57.0,57,119,2.0,70.0
1945,72.0,1,120,2.0,78.0
1946,62.0,57,60,0.0,39.0
1947,69.0,3,121,2.0,78.0
1948,74.0,0,48,0.0,39.0
1949,70.0,0,69,0.0,60.0
1950,69.0,58,23,0.0,45.0
1951,72.0,0,30,0.0,39.0
1952,70.0,0,121,2.0,88.0
1953,62.0,2,121,2.0,88.0
1954,55.0,56,127,2.0,78.0
1955,55.0,2,129,0.0,45.0
1956,69.0,0,56,0.0,39.0
1957,72.0,0,61,0.0,34.0
1958,74.0,2,182,2.0,70.0
1959,70.0,1,17,0.0,52.0
1960,67.0,0,22,0.0,34.0
1961,66.0,1,112,2.0,98.0
1962,57.0,2,116,0.0,45.0
1963,57.0,56,123,2.0,78.0
1964,60.0,1,124,2.0,88.0
1965,75.0,59,64,2.0,88.0
1966,67.0,0,25,0.0,45.0
1967,70.0,3,50,0.0,60.0
1968,69.0,0,22,0.0,34.0
1969,66.0,57,25,0.0,60.0
1970,58.0,0,95,2.0,88.0
1971,67.0,52,117,2.0,78.0
1972,58.0,0,116,0.0,60.0
1973,74.0,3,115,2.0,88.0
1974,69.0,0,27,0.0,45.0
1975,66.0,0,33,0.0,68.0
1976,69.0,60,29,0.0,45.0
1977,60.0,2,124,0.0,52.0
1978,72.0,0,15,0.0,52.0
1979,75.0,60,12,0.0,78.0
1980,66.0,0,214,2.0,98.0
1981,57.0,51,222,2.0,88.0
1982,75.0,5,218,2.0,98.0
1983,63.0,60,116,0.0,68.0
1984,60.0,2,240,2.0,88.0
1985,78.0,0,29,0.0,52.0
1986,81.0,58,16,0.0,60.0
1987,66.0,2,107,2.0,98.0
1988,75.0,3,114,2.0,98.0
1989,57.0,2,122,2.0,98.0
1990,48.0,55,131,2.0,88.0
1991,60.0,0,129,0.0,39.0
1992,70.0,58,29,0.0,60.0
1993,46.0,0,121,0.0,60.0
1994,74.0,0,12,0.0,45.0
1995,79.0,60,11,0.0,52.0
1996,46.0,4,198,2.0,88.0
1997,74.0,1,204,2.0,88.0
1998,67.0,55,218,2.0,88.0
1999,58.0,2,226,2.0,98.0
2000,58.0,60,123,0.0,78.0
2001,82.0,2,26,0.0,52.0
2002,86.0,57,11,0.0,52.0
2003,67.0,3,109,2.0,70.0
2004,74.0,2,117,2.0,98.0
2005,62.0,54,124,2.0,88.0
2006,55.0,0,122,0.0,52.0
2007,46.0,2,130,2.0,88.0
2008,69.0,58,13,0.0,52.0
2009,72.0,0,18,0.0,60.0
2010,48.0,2,108,2.0,88.0
2011,48.0,5,115,0.0,45.0
2012,60.0,0,116,0.0,52.0
2013,69.0,53,124,2.0,78.0
2014,72.0,0,129,2.0,88.0
2015,63.0,2,129,2.0,88.0
2016,50.0,2,71,0.0,52.0
2017,67.0,60,13,0.0,29.0
2018,70.0,0,19,0.0,60.0
2019,62.0,0,86,0.0,60.0
2020,67.0,3,126,2.0,78.0
2021,70.0,2,121,2.0,98.0
2022,62.0,3,134,2.0,88.0
2023,66.0,58,10,0.0,52.0
2024,69.0,0,13,0.0,29.0
2025,50.0,1,79,0.0,45.0
2026,50.0,50,245,2.0,88.0
2027,66.0,55,125,2.0,98.0
2028,69.0,4,121,2.0,98.0
2029,67.0,0,7,0.0,52.0
2030,60.0,2,134,2.0,78.0
2031,50.0,0,79,0.0,88.0
2032,55.0,50,22,0.0,52.0
2033,43.0,0,87,0.0,88.0
2034,58.0,10,84,2.0,78.0
2035,50.0,30,26,0.0,34.0
2036,67.0,0,116,2.0,88.0
2037,43.0,55,121,2.0,78.0
2038,58.0,0,24,0.0,52.0
2039,43.0,30,24,0.0,60.0
2040,62.0,60,26,0.0,52.0
2041,43.0,0,26,0.0,60.0
2042,58.0,30,9,0.0,78.0
2043,67.0,30,22,0.0,68.0
2044,43.0,0,24,0.0,52.0
2045,62.0,30,29,0.0,52.0
2046,43.0,0,28,0.0,52.0
2047,70.0,30,33,0.0,68.0
2048,67.0,30,9,0.0,29.0
2049,67.0,0,26,0.0,60.0
2050,74.0,0,30,0.0,68.0
2051,70.0,0,33,0.0,88.0
2052,55.0,30,79,0.0,78.0
2053,62.0,60,31,0.0,45.0
2054,43.0,0,97,0.0,78.0
2055,67.0,0,23,0.0,68.0
2056,69.0,0,26,0.0,68.0
2057,72.0,60,27,0.0,68.0
2058,45.0,0,81,0.0,88.0
2059,62.0,60,25,0.0,52.0
2060,57.0,0,87,0.0,88.0
2061,70.0,0,27,0.0,78.0
2062,67.0,60,28,0.0,60.0
2063,58.0,0,59,0.0,88.0
2064,46.0,0,63,0.0,88.0
2065,62.0,12,18,0.0,45.0
2066,55.0,0,37,1.0,78.0
2067,70.0,44,53,1.0,90.0
2068,46.0,2,53,1.0,90.0
2069,62.0,2,52,1.0,68.0
2070,67.0,0,13,0.0,68.0
2071,69.0,0,13,0.0,78.0
2072,63.0,0,15,0.0,88.0
2073,48.0,0,77,0.0,88.0
2074,60.0,10,78,0.0,78.0
2075,57.0,60,24,0.0,52.0
2076,55.0,30,21,0.0,39.0
2077,55.0,30,21,0.0,88.0
2078,60.0,0,27,0.0,52.0
2079,57.0,30,21,0.0,45.0
2080,63.0,0,19,0.0,78.0
2081,55.0,30,21,0.0,60.0
2082,63.0,46,219,1.0,90.0
2083,48.0,1,220,1.0,78.0
2084,69.0,0,221,1.0,90.0
2085,55.0,3,221,1.0,78.0
2086,60.0,30,18,0.0,34.0
2087,55.0,0,21,0.0,68.0
2088,69.0,7,25,0.0,68.0
2089,67.0,30,20,0.0,25.0
2090,55.0,0,20,0.0,60.0
2091,72.0,30,25,0.0,52.0
2092,69.0,16,101,1.0,78.0
2093,55.0,3,102,1.0,90.0
2094,48.0,0,103,1.0,90.0
2095,63.0,4,110,1.0,90.0
2096,69.0,30,11,0.0,34.0
2097,72.0,0,32,0.0,68.0
2098,75.0,30,34,0.0,88.0
2099,67.0,60,27,0.0,45.0
2100,45.0,0,89,0.0,88.0
2101,57.0,0,92,0.0,88.0
2102,74.0,0,34,0.0,68.0
2103,70.0,0,42,0.0,88.0
2104,46.0,0,82,0.0,88.0
2105,58.0,60,83,0.0,100.0
2106,67.0,60,29,0.0,45.0
2107,72.0,60,52,0.0,60.0
2108,69.0,0,56,0.0,68.0
2109,67.0,9,11,0.0,52.0
2110,48.0,0,76,0.0,78.0
2111,60.0,0,82,0.0,88.0
2112,55.0,2,37,1.0,90.0
2113,72.0,44,61,1.0,68.0
2114,63.0,2,59,1.0,90.0
2115,48.0,3,65,1.0,78.0
2116,71.0,0,30,0.0,68.0
2117,67.0,0,30,0.0,78.0
2118,65.0,7,30,0.0,88.0
2119,62.0,0,90,0.0,88.0
2120,50.0,0,90,0.0,88.0
2121,59.0,60,30,0.0,68.0
2122,55.0,30,0,0.0,78.0
2123,62.0,0,30,0.0,68.0
2124,59.0,30,30,0.0,14.0
2125,55.0,3,207,1.0,90.0
2126,65.0,1,217,1.0,90.0
2127,65.0,0,30,0.0,52.0
2128,55.0,30,30,0.0,68.0
2129,71.0,47,225,1.0,78.0
2130,50.0,2,225,1.0,90.0
2131,62.0,30,30,0.0,20.0
2132,55.0,0,30,0.0,78.0
2133,71.0,4,30,0.0,60.0
2134,65.0,30,30,0.0,14.0
2135,55.0,17,101,1.0,90.0
2136,55.0,0,30,0.0,68.0
2137,74.0,30,30,0.0,60.0
2138,65.0,2,106,1.0,90.0
2139,50.0,3,106,1.0,78.0
2140,71.0,30,30,0.0,39.0
2141,71.0,4,128,1.0,68.0
2142,74.0,0,60,0.0,78.0
2143,77.0,0,60,0.0,78.0
2144,67.0,60,36,0.0,52.0
2145,59.0,0,120,0.0,88.0
2146,47.0,30,120,0.0,100.0
2147,72.0,60,54,0.0,68.0
2148,75.0,0,59,0.0,78.0
2149,67.0,60,35,0.0,52.0
2150,48.0,0,107,0.0,78.0
2151,60.0,0,117,0.0,88.0
2152,74.0,0,53,0.0,68.0
2153,71.0,0,54,0.0,68.0
2154,50.0,60,71,0.0,88.0
2155,67.0,3,19,0.0,34.0
2156,55.0,2,30,1.0,68.0
2157,62.0,0,91,0.0,88.0
2158,50.0,53,56,1.0,68.0
2159,65.0,0,60,1.0,68.0
2160,74.0,2,63,1.0,78.0
2161,72.0,0,23,0.0,52.0
2162,67.0,0,24,0.0,52.0
2163,51.0,1,37,0.0,88.0
2164,63.0,0,44,0.0,114.0
2165,39.0,0,27,0.0,78.0
2166,51.0,0,27,0.0,68.0
2167,72.0,0,30,0.0,88.0
2168,67.0,0,31,0.0,88.0
2169,79.0,60,31,0.0,78.0
2170,39.0,0,24,0.0,88.0
2171,51.0,60,26,0.0,78.0
2172,51.0,0,21,0.0,68.0
2173,39.0,0,22,0.0,78.0
2174,67.0,0,24,0.0,88.0
2175,72.0,60,25,0.0,88.0
2176,79.0,0,26,0.0,78.0
2177,51.0,0,20,0.0,68.0
2178,39.0,60,22,0.0,78.0
2179,67.0,0,9,0.0,68.0
2180,72.0,0,12,0.0,68.0
2181,51.0,60,16,0.0,68.0
2182,79.0,0,17,0.0,52.0
2183,39.0,0,19,0.0,78.0
2184,55.0,0,323,1.0,90.0
2185,51.0,56,328,1.0,90.0
2186,67.0,2,326,1.0,78.0
2187,72.0,1,336,1.0,78.0
2188,81.0,0,30,0.0,68.0
2189,39.0,0,30,0.0,100.0
2190,51.0,0,30,0.0,78.0
2191,79.0,30,30,0.0,52.0
2192,51.0,30,30,0.0,68.0
2193,39.0,0,30,0.0,78.0
2194,78.0,0,30,0.0,45.0
2195,79.0,30,30,0.0,29.0
2196,51.0,0,30,0.0,88.0
2197,39.0,30,30,0.0,88.0
2198,81.0,0,30,0.0,68.0
2199,79.0,30,30,0.0,34.0
2200,78.0,0,30,0.0,45.0
2201,39.0,30,30,0.0,68.0
2202,51.0,0,30,0.0,60.0
2203,79.0,30,30,0.0,60.0
2204,81.0,30,30,0.0,52.0
2205,39.0,0,30,0.0,88.0
2206,51.0,0,30,0.0,78.0
2207,79.0,30,30,0.0,39.0
2208,67.0,49,332,1.0,90.0
2209,78.0,30,30,0.0,45.0
2210,72.0,2,330,0.0,60.0
2211,39.0,0,30,0.0,78.0
2212,51.0,0,30,0.0,60.0
2213,51.0,1,342,1.0,104.0
2214,55.0,3,361,1.0,90.0
2215,72.0,5,359,1.0,78.0
2216,79.0,13,0,0.0,60.0
2217,73.0,0,20,0.0,78.0
2218,40.0,0,25,0.0,78.0
2219,52.0,0,26,0.0,88.0
2220,70.0,30,26,0.0,78.0
2221,40.0,30,22,0.0,52.0
2222,52.0,0,23,0.0,60.0
2223,73.0,0,26,0.0,78.0
2224,79.0,0,29,0.0,52.0
2225,70.0,30,20,0.0,52.0
2226,40.0,0,23,0.0,68.0
2227,52.0,0,25,0.0,78.0
2228,79.0,30,25,0.0,60.0
2229,82.0,0,31,0.0,78.0
2230,73.0,30,20,0.0,52.0
2231,52.0,0,21,0.0,68.0
2232,40.0,30,21,0.0,60.0
2233,79.0,0,31,0.0,39.0
2234,82.0,0,33,0.0,60.0
2235,73.0,30,32,0.0,52.0
2236,52.0,0,19,0.0,68.0
2237,40.0,0,21,0.0,68.0
2238,85.0,0,25,0.0,78.0
2239,79.0,30,30,0.0,68.0
2240,82.0,0,35,0.0,88.0
2241,73.0,30,23,0.0,45.0
2242,67.0,5,335,1.0,90.0
2243,40.0,30,17,0.0,39.0
2244,52.0,0,19,0.0,60.0
2245,52.0,7,347,1.0,78.0
2246,58.0,4,339,1.0,90.0
2247,79.0,0,27,0.0,18.0
2248,85.0,0,35,0.0,88.0
2249,82.0,0,38,0.0,68.0
2250,73.0,30,15,0.0,45.0
2251,73.0,1,363,1.0,90.0
2252,79.0,0,32,0.0,68.0
2253,82.0,0,32,0.0,88.0
2254,84.0,12,34,0.0,88.0
2255,72.0,0,40,0.0,78.0
2256,52.0,0,76,0.0,88.0
2257,40.0,0,77,0.0,88.0
2258,52.0,4,100,1.0,78.0
2259,72.0,2,99,1.0,78.0
2260,58.0,2,123,1.0,90.0
2261,67.0,10,138,1.0,78.0
2262,72.0,120,73,0.0,78.0
2263,60.0,0,79,0.0,78.0
2264,60.0,0,75,0.0,60.0
2265,72.0,120,81,0.0,60.0
2266,72.0,0,39,0.0,45.0
2267,68.0,120,54,0.0,60.0
2268,67.0,53,17,0.0,18.0
2269,70.0,0,21,0.0,34.0
2270,53.0,0,114,0.0,78.0
2271,67.0,0,52,0.0,34.0
2272,70.0,60,63,0.0,39.0
2273,60.0,7,181,2.0,78.0
2274,68.0,60,13,0.0,45.0
2275,65.0,0,19,0.0,29.0
2276,61.0,3,57,2.0,98.0
2277,55.0,0,131,0.0,45.0
2278,68.0,0,49,0.0,52.0
2279,65.0,0,52,0.0,39.0
2280,64.0,0,19,0.0,34.0
2281,67.0,59,22,0.0,29.0
2282,60.0,0,355,0.0,78.0
2283,60.0,1,118,2.0,98.0
2284,56.0,57,122,0.0,68.0
2285,64.0,60,58,0.0,39.0
2286,67.0,0,59,0.0,39.0
2287,60.0,60,54,0.0,45.0
2288,58.0,0,115,0.0,52.0
2289,72.0,0,173,2.0,78.0
2290,65.0,0,57,0.0,45.0
2291,68.0,0,57,0.0,60.0
2292,73.0,47,71,2.0,88.0
2293,60.0,13,59,0.0,34.0
2294,56.0,60,122,0.0,52.0
2295,67.0,0,55,0.0,52.0
2296,70.0,0,58,0.0,52.0
2297,72.0,50,99,2.0,78.0
2298,60.0,60,55,0.0,34.0
2299,55.0,10,116,0.0,34.0
2300,68.0,0,59,0.0,52.0
2301,72.0,9,61,0.0,45.0
2302,56.0,1,119,2.0,98.0
2303,72.0,4,123,2.0,78.0
2304,53.0,0,119,0.0,52.0
2305,60.0,60,64,0.0,29.0
2306,48.0,46,189,2.0,88.0
2307,67.0,0,59,0.0,39.0
2308,70.0,0,61,0.0,39.0
2309,49.0,50,60,2.0,98.0
2310,55.0,50,120,2.0,88.0
2311,70.0,1,122,2.0,88.0
2312,60.0,10,60,0.0,25.0
2313,55.0,9,123,0.0,45.0
2314,65.0,0,58,0.0,34.0
2315,68.0,8,63,0.0,52.0
2316,48.0,0,114,2.0,98.0
2317,68.0,0,117,2.0,98.0
2318,60.0,60,57,0.0,34.0
2319,53.0,52,125,2.0,88.0
2320,56.0,0,121,0.0,52.0
2321,64.0,0,56,0.0,29.0
2322,67.0,0,59,0.0,39.0
2323,67.0,50,123,2.0,98.0
2324,60.0,60,56,0.0,34.0
2325,58.0,3,118,0.0,52.0
2326,52.0,7,129,2.0,88.0
2327,68.0,0,56,0.0,52.0
2328,65.0,0,58,0.0,45.0
2329,60.0,0,182,2.0,98.0
2330,60.0,4,59,0.0,29.0
2331,68.0,50,130,2.0,98.0
2332,61.0,52,64,2.0,98.0
2333,53.0,4,122,2.0,98.0
2334,56.0,10,127,0.0,60.0
2335,67.0,0,58,0.0,39.0
2336,70.0,0,61,0.0,52.0
2337,60.0,2,93,2.0,88.0
2338,55.0,2,111,0.0,45.0
2339,70.0,58,114,2.0,98.0
2340,55.0,0,113,2.0,98.0
2341,72.0,0,38,0.0,52.0
2342,68.0,1,53,0.0,60.0
2343,67.0,0,19,0.0,29.0
2344,70.0,60,22,0.0,52.0
2345,53.0,2,119,2.0,98.0
2346,56.0,3,117,2.0,98.0
2347,60.0,2,119,2.0,88.0
2348,53.0,0,127,0.0,52.0
2349,67.0,0,22,0.0,45.0
2350,70.0,0,26,0.0,52.0
2351,72.0,52,174,2.0,88.0
2352,65.0,16,23,0.0,45.0
2353,68.0,0,24,0.0,68.0
2354,73.0,44,63,2.0,88.0
2355,58.0,2,118,2.0,110.0
2356,64.0,2,118,2.0,98.0
2357,55.0,51,123,2.0,88.0
2358,55.0,5,119,0.0,34.0
2359,65.0,0,21,0.0,29.0
2360,68.0,0,27,0.0,60.0
2361,60.0,58,365,0.0,39.0
2362,64.0,60,15,0.0,39.0
2363,67.0,0,23,0.0,45.0
2364,72.0,47,102,2.0,88.0
2365,60.0,3,111,2.0,88.0
2366,56.0,1,118,2.0,98.0
2367,65.0,2,123,2.0,98.0
2368,56.0,7,125,0.0,60.0
2369,64.0,8,13,0.0,45.0
2370,67.0,0,15,0.0,60.0
2371,67.0,60,23,0.0,45.0
2372,58.0,0,123,0.0,60.0
2373,70.0,0,13,0.0,60.0
2374,58.0,4,163,2.0,98.0
2375,73.0,60,20,0.0,52.0
2376,55.0,46,220,2.0,98.0
2377,64.0,2,217,2.0,88.0
2378,73.0,0,226,2.0,98.0
2379,61.0,60,126,0.0,60.0
2380,76.0,2,17,0.0,34.0
2381,79.0,60,8,0.0,39.0
2382,64.0,6,118,2.0,98.0
2383,46.0,49,125,2.0,88.0
2384,55.0,2,117,2.0,98.0
2385,58.0,0,122,0.0,45.0
2386,73.0,1,144,2.0,98.0
2387,68.0,60,21,0.0,52.0
2388,56.0,1,126,0.0,60.0
2389,72.0,0,15,0.0,39.0
2390,72.0,0,162,2.0,78.0
2391,56.0,54,187,2.0,98.0
2392,44.0,2,198,2.0,110.0
2393,77.0,2,24,0.0,60.0
2394,72.0,57,31,2.0,88.0
2395,65.0,60,114,0.0,60.0
2396,60.0,1,2,2.0,88.0
2397,65.0,2,1,2.0,88.0
2398,80.0,0,19,0.0,52.0
2399,84.0,58,9,0.0,60.0
2400,60.0,1,118,0.0,45.0
2401,72.0,53,127,2.0,88.0
2402,44.0,5,129,2.0,98.0
2403,67.0,59,14,0.0,52.0
2404,70.0,0,15,0.0,60.0
2405,46.0,1,103,2.0,98.0
2406,67.0,1,112,2.0,88.0
2407,58.0,2,127,0.0,60.0
2408,61.0,0,137,2.0,98.0
2409,68.0,0,16,0.0,52.0
2410,65.0,60,17,0.0,45.0
2411,60.0,0,111,0.0,20.0
2412,65.0,0,119,2.0,98.0
2413,60.0,4,118,2.0,88.0
2414,67.0,0,10,0.0,45.0
2415,64.0,60,15,0.0,39.0
2416,48.0,1,106,0.0,45.0
2417,64.0,3,108,2.0,88.0
2418,48.0,1,238,2.0,98.0
2419,58.0,1,122,2.0,98.0
2420,65.0,0,15,0.0,52.0
2421,41.0,0,63,0.0,34.0
2422,53.0,0,71,0.0,60.0
2423,65.0,60,27,0.0,88.0
2424,56.0,0,105,2.0,98.0
2425,65.0,1,100,2.0,110.0
2426,60.0,30,16,0.0,60.0
2427,53.0,8,111,2.0,98.0
2428,68.0,30,23,0.0,100.0
2429,65.0,30,18,0.0,68.0
2430,72.0,30,16,0.0,78.0
2431,29.0,0,95,0.0,100.0
2432,41.0,0,101,0.0,100.0
2433,68.0,30,18,0.0,39.0
2434,77.0,30,28,0.0,88.0
2435,72.0,30,16,0.0,45.0
2436,56.0,16,29,1.0,90.0
2437,80.0,14,18,0.0,88.0
2438,77.0,0,16,0.0,52.0
2439,53.0,0,21,0.0,60.0
2440,41.0,30,23,0.0,60.0
2441,70.0,16,8,0.0,1.0
2442,50.0,0,28,0.0,52.0
2443,40.0,0,31,0.0,68.0
2444,77.0,0,57,0.0,88.0
2445,80.0,0,57,0.0,100.0
2446,53.0,0,18,0.0,52.0
2447,56.0,14,119,1.0,90.0
2448,58.0,30,18,0.0,78.0
2449,70.0,60,53,0.0,88.0
2450,50.0,12,16,0.0,78.0
2451,62.0,0,21,0.0,78.0
2452,79.0,0,64,0.0,68.0
2453,50.0,60,8,0.0,52.0
2454,62.0,0,19,0.0,60.0
2455,70.0,0,31,0.0,88.0
2456,55.0,18,119,1.0,90.0
2457,50.0,0,8,0.0,52.0
2458,62.0,0,35,0.0,52.0
2459,68.0,0,36,0.0,100.0
2460,78.0,11,60,0.0,78.0
2461,70.0,47,23,1.0,90.0
2462,50.0,0,15,0.0,60.0
2463,38.0,13,22,0.0,88.0
2464,54.0,49,112,1.0,90.0
2465,70.0,0,73,0.0,100.0
2466,79.0,3,13,0.0,78.0
2467,75.0,0,15,0.0,100.0
2468,55.0,14,68,1.0,90.0
2469,39.0,0,79,0.0,100.0
2470,51.0,0,89,0.0,100.0
2471,63.0,60,33,0.0,100.0
2472,55.0,25,15,1.0,78.0
2473,58.0,5,22,0.0,78.0
2474,70.0,43,132,1.0,90.0
2475,67.0,0,27,0.0,78.0
2476,63.0,30,19,0.0,78.0
2477,75.0,3,91,1.0,90.0
2478,70.0,30,24,0.0,78.0
2479,55.0,20,117,1.0,90.0
2480,67.0,30,23,0.0,60.0
2481,51.0,7,137,0.0,88.0
2482,75.0,11,23,0.0,88.0
2483,70.0,30,33,0.0,60.0
2484,67.0,16,28,1.0,78.0
2485,39.0,0,18,0.0,78.0
2486,75.0,19,91,1.0,78.0
2487,51.0,5,29,1.0,90.0
2488,79.0,9,32,0.0,60.0
2489,75.0,0,14,0.0,60.0
2490,51.0,30,18,0.0,88.0
2491,36.0,9,46,0.0,100.0
2492,48.0,0,50,0.0,88.0
2493,79.0,0,65,0.0,88.0
2494,75.0,0,66,0.0,100.0
2495,75.0,1,99,1.0,90.0
2496,51.0,0,34,0.0,60.0
2497,68.0,1,9,1.0,58.0
2498,56.0,30,15,0.0,68.0
2499,51.0,2,115,1.0,90.0
2500,67.0,18,125,1.0,90.0
2501,68.0,60,57,0.0,88.0
2502,48.0,0,14,0.0,88.0
2503,60.0,0,15,0.0,88.0
2504,77.0,4,60,0.0,78.0
2505,60.0,0,11,0.0,68.0
2506,48.0,60,12,0.0,60.0
2507,56.0,12,105,1.0,90.0
2508,65.0,10,113,1.0,90.0
2509,68.0,0,49,0.0,100.0
2510,68.0,3,120,1.0,90.0
2511,60.0,0,12,0.0,78.0
2512,48.0,3,18,0.0,78.0
2513,76.0,0,65,0.0,78.0
2514,67.0,0,69,0.0,88.0
2515,48.0,13,16,0.0,68.0
2516,56.0,47,32,1.0,90.0
2517,36.0,0,23,0.0,78.0
2518,64.0,52,109,1.0,78.0
2519,68.0,0,51,0.0,100.0
2520,77.0,0,18,0.0,88.0
2521,74.0,0,19,0.0,88.0
2522,65.0,3,69,1.0,90.0
2523,38.0,0,66,0.0,88.0
2524,56.0,1,83,1.0,90.0
2525,50.0,10,75,0.0,88.0
2526,62.0,60,31,0.0,68.0
2527,65.0,2,17,1.0,90.0
2528,50.0,16,19,1.0,68.0
2529,56.0,12,18,0.0,78.0
2530,65.0,14,24,0.0,88.0
2531,62.0,30,25,0.0,52.0
2532,68.0,30,8,0.0,29.0
2533,62.0,2,97,1.0,68.0
2534,50.0,0,97,0.0,88.0
2535,50.0,13,119,1.0,78.0
2536,65.0,1,118,1.0,90.0
2537,65.0,30,25,0.0,60.0
2538,74.0,12,25,0.0,68.0
2539,68.0,30,22,0.0,78.0
2540,77.0,14,34,1.0,78.0
2541,62.0,18,95,1.0,78.0
2542,77.0,12,24,0.0,88.0
2543,68.0,1,50,1.0,90.0
2544,74.0,0,17,0.0,60.0
2545,50.0,3,60,1.0,78.0
2546,50.0,30,24,0.0,60.0
2547,38.0,0,24,0.0,29.0
2548,35.0,11,44,0.0,88.0
2549,47.0,0,49,0.0,88.0
2550,74.0,0,58,0.0,78.0
2551,77.0,0,61,0.0,88.0
2552,62.0,1,87,1.0,90.0
2553,47.0,1,92,1.0,90.0
2554,50.0,60,23,0.0,45.0
2555,67.0,2,98,1.0,90.0
2556,55.0,15,17,1.0,78.0
2557,55.0,15,8,0.0,52.0
2558,77.0,15,120,1.0,68.0
2559,67.0,0,53,0.0,78.0
2560,59.0,0,14,0.0,60.0
2561,47.0,0,14,0.0,39.0
2562,75.0,11,65,0.0,100.0
2563,67.0,2,84,1.0,90.0
2564,47.0,0,15,0.0,68.0
2565,59.0,0,16,0.0,60.0
2566,55.0,9,114,1.0,78.0
2567,67.0,60,38,0.0,68.0
2568,47.0,2,113,1.0,68.0
2569,75.0,6,128,1.0,90.0
2570,47.0,0,23,0.0,60.0
2571,59.0,0,26,0.0,78.0
2572,65.0,0,36,0.0,88.0
2573,74.0,15,67,0.0,88.0
2574,35.0,0,13,0.0,68.0
2575,47.0,0,20,0.0,68.0
2576,67.0,40,101,1.0,78.0
2577,67.0,60,36,0.0,68.0
2578,65.0,2,119,1.0,78.0
2579,59.0,2,120,1.0,78.0
2580,74.0,1,131,1.0,78.0
2581,67.0,0,27,0.0,88.0
2582,75.0,0,29,0.0,100.0
2583,48.0,10,33,0.0,88.0
2584,36.0,0,33,0.0,100.0
2585,48.0,0,18,0.0,52.0
2586,60.0,0,22,0.0,60.0
2587,67.0,44,103,1.0,90.0
2588,63.0,0,103,1.0,90.0
2589,75.0,4,151,1.0,78.0
2590,60.0,0,19,0.0,60.0
2591,48.0,11,19,0.0,52.0
2592,60.0,2,150,1.0,78.0
2593,79.0,0,85,0.0,100.0
2594,75.0,60,87,0.0,100.0
2595,67.0,0,89,0.0,100.0
2596,67.0,47,85,1.0,78.0
2597,48.0,11,21,0.0,60.0
2598,60.0,0,28,0.0,68.0
2599,63.0,2,120,1.0,90.0
2600,67.0,0,51,0.0,88.0
2601,60.0,47,65,1.0,78.0
2602,75.0,2,69,1.0,90.0
2603,75.0,0,59,0.0,100.0
2604,79.0,0,60,0.0,78.0
2605,46.0,2,21,0.0,68.0
2606,58.0,0,22,0.0,68.0
2607,74.0,0,36,0.0,88.0
2608,74.0,0,14,0.0,88.0
2609,79.0,0,17,0.0,88.0
2610,46.0,60,19,0.0,78.0
2611,58.0,0,24,0.0,78.0
2612,67.0,2,105,1.0,78.0
2613,58.0,49,116,1.0,90.0
2614,62.0,6,112,1.0,78.0
2615,79.0,1,118,1.0,68.0
2616,86.0,0,5,0.0,60.0
2617,56.0,3,19,0.0,100.0
2618,44.0,0,20,0.0,88.0
2619,75.0,0,43,0.0,78.0
2620,84.0,30,18,0.0,45.0
2621,83.0,0,12,0.0,78.0
2622,44.0,0,19,0.0,68.0
2623,56.0,0,20,0.0,78.0
2624,75.0,0,49,0.0,78.0
2625,84.0,30,21,0.0,60.0
2626,56.0,0,12,0.0,88.0
2627,44.0,0,19,0.0,78.0
2628,86.0,0,23,0.0,78.0
2629,72.0,1,157,1.0,78.0
2630,56.0,47,160,1.0,78.0
2631,60.0,6,153,1.0,78.0
2632,78.0,3,153,1.0,78.0
2633,75.0,30,50,0.0,100.0
2634,84.0,30,20,0.0,39.0
2635,56.0,2,31,1.0,90.0
2636,56.0,0,15,0.0,88.0
2637,44.0,0,17,0.0,78.0
2638,72.0,12,36,1.0,78.0
2639,60.0,0,37,1.0,78.0
2640,78.0,3,39,1.0,78.0
2641,83.0,13,35,0.0,68.0
2642,75.0,0,48,0.0,52.0
2643,84.0,30,20,0.0,45.0
2644,56.0,0,16,0.0,78.0
2645,44.0,0,18,0.0,78.0
2646,86.0,0,25,0.0,68.0
2647,84.0,30,26,0.0,39.0
2648,75.0,0,6,0.0,100.0
2649,56.0,0,14,0.0,88.0
2650,44.0,0,16,0.0,78.0
2651,83.0,30,26,0.0,45.0
2652,56.0,10,116,1.0,90.0
2653,72.0,5,114,1.0,90.0
2654,84.0,30,10,0.0,39.0
2655,60.0,2,122,1.0,78.0
2656,78.0,2,128,1.0,90.0
2657,43.0,0,18,0.0,78.0
2658,55.0,0,22,0.0,88.0
2659,83.0,9,32,0.0,88.0
2660,79.0,0,33,0.0,78.0
2661,74.0,30,30,0.0,68.0
2662,43.0,0,15,0.0,52.0
2663,55.0,30,17,0.0,52.0
2664,83.0,0,27,0.0,78.0
2665,79.0,0,30,0.0,78.0
2666,71.0,9,125,1.0,90.0
2667,62.0,1,124,1.0,78.0
2668,74.0,30,32,0.0,52.0
2669,43.0,0,16,0.0,60.0
2670,55.0,0,16,0.0,68.0
2671,79.0,0,31,0.0,78.0
2672,84.0,13,31,0.0,88.0
2673,75.0,30,32,0.0,60.0
2674,55.0,0,15,0.0,52.0
2675,43.0,0,16,0.0,60.0
2676,72.0,2,89,1.0,78.0
2677,63.0,15,93,1.0,90.0
2678,84.0,30,30,0.0,78.0
2679,79.0,0,34,0.0,68.0
2680,71.0,18,24,1.0,78.0
2681,75.0,7,26,0.0,68.0
2682,62.0,5,34,1.0,68.0
2683,55.0,0,16,0.0,60.0
2684,43.0,0,16,0.0,68.0
2685,79.0,0,30,0.0,52.0
2686,84.0,0,31,0.0,60.0
2687,87.0,14,33,0.0,88.0
2688,75.0,30,31,0.0,78.0
2689,43.0,30,14,0.0,52.0
2690,55.0,0,15,0.0,68.0
2691,55.0,2,339,1.0,90.0
2692,84.0,0,27,0.0,52.0
2693,79.0,9,340,1.0,78.0
2694,87.0,0,33,0.0,88.0
2695,79.0,0,38,0.0,45.0
2696,72.0,15,117,1.0,68.0
2697,63.0,1,122,1.0,90.0
2698,75.0,30,18,0.0,60.0
2699,83.0,0,32,0.0,78.0
2700,86.0,0,32,0.0,88.0
2701,43.0,0,33,0.0,88.0
2702,55.0,11,33,0.0,100.0
2703,79.0,0,36,0.0,78.0
2704,79.0,4,106,1.0,68.0
2705,71.0,1,127,1.0,90.0
2706,62.0,3,128,1.0,90.0
2707,55.0,11,137,1.0,90.0
2708,67.0,120,14,0.0,39.0
2709,79.0,0,17,0.0,25.0
2710,67.0,0,12,0.0,52.0
2711,79.0,120,16,0.0,52.0
2712,75.0,0,55,0.0,45.0
2713,79.0,0,56,0.0,39.0
2714,67.0,59,54,0.0,34.0
2715,48.0,120,126,0.0,34.0
2716,77.0,60,56,0.0,25.0
2717,74.0,0,57,0.0,45.0
2718,67.0,1,183,2.0,88.0
2719,67.0,3,55,0.0,25.0
2720,50.0,0,116,0.0,9.0
2721,68.0,57,63,2.0,88.0
2722,72.0,0,57,0.0,20.0
2723,75.0,6,61,0.0,39.0
2724,67.0,54,95,2.0,88.0
2725,67.0,60,55,0.0,18.0
2726,51.0,0,117,0.0,39.0
2727,74.0,10,56,0.0,20.0
2728,71.0,0,57,0.0,25.0
2729,53.0,48,122,2.0,88.0
2730,59.0,2,125,2.0,88.0
2731,67.0,60,58,0.0,18.0
2732,53.0,0,129,0.0,20.0
2733,72.0,0,61,0.0,3.0
2734,75.0,8,61,0.0,45.0
2735,67.0,60,55,0.0,25.0
2736,51.0,0,115,0.0,34.0
2737,51.0,48,134,2.0,78.0
2738,60.0,4,136,2.0,78.0
2739,77.0,0,71,0.0,34.0
2740,74.0,3,71,0.0,34.0
2741,67.0,60,13,0.0,39.0
2742,67.0,0,337,2.0,88.0
2743,50.0,0,118,2.0,78.0
2744,50.0,0,117,0.0,29.0
2745,62.0,57,122,2.0,98.0
2746,75.0,0,49,0.0,68.0
2747,67.0,60,55,0.0,39.0
2748,63.0,50,126,2.0,98.0
2749,48.0,1,118,0.0,34.0
2750,48.0,6,124,2.0,88.0
2751,71.0,3,58,0.0,39.0
2752,77.0,0,62,0.0,39.0
2753,67.0,3,185,2.0,88.0
2754,67.0,1,56,0.0,34.0
2755,68.0,54,59,2.0,88.0
2756,62.0,50,125,2.0,98.0
2757,50.0,7,123,2.0,88.0
2758,50.0,0,121,0.0,29.0
2759,75.0,5,57,0.0,45.0
2760,72.0,2,56,0.0,29.0
2761,67.0,53,82,2.0,88.0
2762,51.0,5,110,2.0,98.0
2763,60.0,2,126,2.0,78.0
2764,51.0,0,118,0.0,52.0
2765,67.0,56,67,0.0,25.0
2766,74.0,9,55,0.0,34.0
2767,71.0,0,59,0.0,39.0
2768,53.0,47,123,2.0,98.0
2769,59.0,6,128,2.0,98.0
2770,53.0,0,121,0.0,39.0
2771,79.0,0,483,0.0,60.0
2772,67.0,60,63,0.0,39.0
2773,72.0,9,51,0.0,29.0
2774,75.0,0,55,0.0,60.0
2775,80.0,0,31,0.0,52.0
2776,51.0,46,119,2.0,98.0
2777,60.0,5,123,2.0,78.0
2778,67.0,60,59,0.0,60.0
2779,51.0,0,121,0.0,45.0
2780,77.0,0,58,0.0,39.0
2781,74.0,0,62,0.0,45.0
2782,50.0,47,123,2.0,78.0
2783,62.0,4,122,2.0,98.0
2784,50.0,0,117,0.0,29.0
2785,67.0,60,65,0.0,39.0
2786,75.0,0,62,0.0,68.0
2787,67.0,60,58,0.0,39.0
2788,48.0,51,129,2.0,88.0
2789,48.0,9,121,0.0,39.0
2790,63.0,0,132,2.0,88.0
2791,67.0,0,549,2.0,98.0
2792,71.0,5,58,0.0,52.0
2793,77.0,0,70,0.0,39.0
2794,68.0,48,60,2.0,98.0
2795,50.0,51,123,2.0,88.0
2796,62.0,4,126,2.0,98.0
2797,50.0,0,123,0.0,39.0
2798,67.0,12,65,0.0,45.0
2799,72.0,9,66,0.0,39.0
2800,75.0,0,70,0.0,45.0
2801,79.0,9,433,0.0,52.0
2802,67.0,60,23,0.0,39.0
2803,51.0,47,112,2.0,98.0
2804,60.0,3,116,2.0,78.0
2805,51.0,0,107,0.0,39.0
2806,67.0,1,125,2.0,88.0
2807,67.0,60,20,0.0,45.0
2808,58.0,0,82,0.0,60.0
2809,72.0,60,23,0.0,34.0
2810,76.0,60,10,0.0,39.0
2811,52.0,9,193,0.0,20.0
2812,70.0,2,218,2.0,110.0
2813,55.0,6,221,2.0,98.0
2814,52.0,43,232,2.0,98.0
2815,67.0,0,100,0.0,60.0
2816,79.0,0,15,0.0,45.0
2817,84.0,60,9,0.0,60.0
2818,60.0,0,83,0.0,52.0
2819,52.0,1,116,0.0,25.0
2820,52.0,55,124,2.0,88.0
2821,70.0,2,121,2.0,98.0
2822,55.0,2,127,2.0,98.0
2823,68.0,60,27,0.0,45.0
2824,72.0,60,13,0.0,29.0
2825,53.0,0,146,0.0,25.0
2826,77.0,60,12,0.0,34.0
2827,56.0,0,199,0.0,52.0
2828,56.0,3,235,2.0,110.0
2829,67.0,0,115,0.0,45.0
2830,68.0,3,242,2.0,98.0
2831,53.0,54,248,2.0,98.0
2832,76.0,1,22,0.0,5.0
2833,84.0,60,11,0.0,52.0
2834,67.0,5,97,2.0,98.0
2835,53.0,0,98,0.0,29.0
2836,58.0,53,122,2.0,98.0
2837,55.0,1,121,2.0,98.0
2838,60.0,0,124,0.0,39.0
2839,64.0,60,31,0.0,29.0
2840,67.0,0,120,2.0,98.0
2841,56.0,0,126,0.0,52.0
2842,65.0,3,14,0.0,52.0
2843,72.0,60,25,0.0,29.0
2844,60.0,0,122,0.0,39.0
2845,65.0,57,129,2.0,98.0
2846,78.0,60,19,0.0,52.0
2847,84.0,60,13,0.0,60.0
2848,66.0,0,77,0.0,68.0
2849,56.0,53,361,2.0,110.0
2850,60.0,7,357,2.0,88.0
2851,66.0,0,121,2.0,110.0
2852,67.0,0,45,0.0,78.0
2853,55.0,0,59,0.0,68.0
2854,74.0,0,76,0.0,52.0
2855,79.0,0,77,0.0,45.0
2856,83.0,1,79,0.0,60.0
2857,67.0,0,115,2.0,98.0
2858,62.0,1,116,2.0,88.0
2859,55.0,58,123,2.0,98.0
2860,43.0,0,86,0.0,52.0
2861,55.0,120,90,0.0,60.0
2862,67.0,96,24,0.0,25.0
2863,69.0,8,18,0.0,39.0
2864,71.0,16,16,0.0,52.0
2865,71.0,90,12,0.0,34.0
2866,72.0,15,20,0.0,39.0
2867,43.0,15,83,0.0,60.0
2868,55.0,0,99,0.0,60.0
2869,62.0,0,103,0.0,60.0
2870,74.0,0,104,0.0,78.0
2871,67.0,0,104,0.0,52.0
2872,31.0,120,74,0.0,52.0
2873,43.0,0,83,0.0,60.0
2874,71.0,0,14,0.0,52.0
2875,67.0,90,22,0.0,52.0
2876,72.0,0,17,0.0,52.0
2877,69.0,15,24,0.0,45.0
2878,71.0,0,18,0.0,68.0
2879,74.0,15,20,0.0,68.0
2880,74.0,75,11,0.0,18.0
2881,71.0,0,22,0.0,45.0
2882,76.0,15,16,0.0,45.0
2883,72.0,0,18,0.0,45.0
2884,43.0,0,65,0.0,52.0
2885,55.0,15,67,0.0,60.0
2886,76.0,0,21,0.0,39.0
2887,74.0,15,101,0.0,78.0
2888,73.0,60,27,0.0,60.0
2889,77.0,0,110,0.0,78.0
2890,67.0,30,24,0.0,25.0
2891,74.0,0,24,0.0,45.0
2892,77.0,30,26,0.0,39.0
2893,67.0,30,25,0.0,25.0
2894,43.0,0,76,0.0,39.0
2895,55.0,0,77,0.0,68.0
2896,76.0,30,23,0.0,25.0
2897,73.0,0,25,0.0,45.0
2898,67.0,30,28,0.0,25.0
2899,74.0,0,23,0.0,34.0
2900,77.0,0,27,0.0,39.0
2901,67.0,30,31,0.0,20.0
2902,43.0,0,71,0.0,39.0
2903,55.0,30,72,0.0,68.0
2904,76.0,30,22,0.0,25.0
2905,73.0,0,25,0.0,45.0
2906,67.0,30,29,0.0,29.0
2907,43.0,30,22,0.0,45.0
2908,74.0,0,24,0.0,45.0
2909,77.0,0,26,0.0,45.0
2910,55.0,0,26,0.0,52.0
2911,67.0,30,35,0.0,20.0
2912,43.0,0,22,0.0,39.0
2913,55.0,30,25,0.0,52.0
2914,76.0,0,29,0.0,29.0
2915,73.0,0,30,0.0,60.0
2916,67.0,30,26,0.0,25.0
2917,43.0,0,23,0.0,39.0
2918,74.0,0,24,0.0,39.0
2919,77.0,30,25,0.0,39.0
2920,55.0,0,27,0.0,60.0
2921,67.0,30,29,0.0,25.0
2922,43.0,0,20,0.0,34.0
2923,55.0,0,24,0.0,52.0
2924,76.0,30,28,0.0,45.0
2925,79.0,0,30,0.0,52.0
2926,67.0,30,17,0.0,34.0
2927,43.0,30,20,0.0,34.0
2928,55.0,0,23,0.0,60.0
2929,81.0,0,23,0.0,45.0
2930,77.0,0,25,0.0,39.0
2931,74.0,30,27,0.0,18.0
2932,83.0,0,25,0.0,60.0
2933,55.0,30,26,0.0,45.0
2934,43.0,0,26,0.0,25.0
2935,77.0,0,29,0.0,39.0
2936,74.0,30,15,0.0,20.0
2937,36.0,3,43,0.0,100.0
2938,48.0,0,51,0.0,88.0
2939,52.0,54,35,0.0,39.0
2940,55.0,30,24,0.0,52.0
2941,48.0,30,15,0.0,68.0
2942,60.0,0,18,0.0,78.0
2943,72.0,27,156,1.0,78.0
2944,64.0,2,153,1.0,90.0
2945,55.0,4,151,1.0,90.0
2946,48.0,0,155,1.0,90.0
2947,48.0,0,13,0.0,60.0
2948,60.0,3,14,0.0,52.0
2949,64.0,0,32,1.0,78.0
2950,48.0,1,30,1.0,90.0
2951,72.0,54,37,1.0,78.0
2952,55.0,2,40,1.0,90.0
2953,48.0,3,19,0.0,68.0
2954,60.0,0,20,0.0,68.0
2955,72.0,54,74,1.0,78.0
2956,60.0,60,16,0.0,60.0
2957,55.0,1,92,1.0,90.0
2958,79.0,0,340,0.0,78.0
2959,76.0,0,340,0.0,78.0
2960,48.0,1,104,1.0,90.0
2961,64.0,1,106,1.0,78.0
2962,84.0,0,342,0.0,88.0
2963,72.0,0,343,0.0,78.0
2964,60.0,60,16,0.0,45.0
2965,60.0,60,18,0.0,25.0
2966,60.0,0,16,0.0,29.0
2967,60.0,55,16,0.0,18.0
2968,64.0,1,97,0.0,34.0
2969,64.0,5,115,1.0,35.0
2970,67.0,45,19,0.0,34.0
2971,60.0,0,19,0.0,29.0
2972,65.0,3,55,0.0,29.0
2973,60.0,0,18,0.0,34.0
2974,64.0,59,26,0.0,20.0
2975,65.0,1,112,1.0,42.0
2976,65.0,30,30,0.0,18.0
2977,60.0,0,19,0.0,39.0
2978,60.0,60,20,0.0,29.0
2979,67.0,27,114,1.0,50.0
2980,67.0,3,115,0.0,25.0
2981,64.0,56,4,1.0,15.0
2982,60.0,0,22,0.0,39.0
2983,60.0,60,23,0.0,25.0
2984,64.0,2,111,0.0,34.0
2985,60.0,2,122,1.0,42.0
2986,69.0,0,14,0.0,39.0
2987,65.0,4,15,0.0,39.0
2988,60.0,0,21,0.0,52.0
2989,60.0,60,18,0.0,34.0
2990,69.0,52,114,1.0,42.0
2991,65.0,4,120,1.0,50.0
2992,77.0,0,14,0.0,45.0
2993,69.0,2,14,0.0,25.0
2994,60.0,0,20,0.0,45.0
2995,60.0,60,18,0.0,34.0
2996,69.0,4,118,1.0,42.0
2997,77.0,54,127,1.0,24.0
2998,65.0,0,15,0.0,34.0
2999,74.0,0,16,0.0,45.0
3000,60.0,4,25,0.0,45.0
3001,60.0,60,21,0.0,39.0
3002,65.0,2,121,1.0,50.0
3003,74.0,54,129,1.0,42.0
3004,60.0,0,17,0.0,52.0
3005,62.0,1,17,0.0,39.0
3006,71.0,0,23,0.0,45.0
3007,60.0,59,33,0.0,60.0
3008,62.0,59,107,1.0,50.0
3009,71.0,1,107,1.0,58.0
3010,36.0,3,53,0.0,100.0
3011,48.0,0,58,0.0,100.0
3012,52.0,60,26,0.0,60.0
3013,55.0,30,18,0.0,39.0
3014,48.0,0,19,0.0,78.0
3015,60.0,30,21,0.0,68.0
3016,72.0,0,195,1.0,90.0
3017,48.0,0,17,0.0,88.0
3018,64.0,0,203,1.0,90.0
3019,60.0,60,21,0.0,78.0
3020,55.0,2,216,1.0,90.0
3021,48.0,55,221,1.0,90.0
3022,48.0,6,13,0.0,100.0
3023,60.0,0,22,0.0,88.0
3024,48.0,1,84,1.0,90.0
3025,60.0,60,21,0.0,29.0
3026,55.0,4,95,1.0,90.0
3027,64.0,49,111,1.0,90.0
3028,72.0,0,354,0.0,88.0
3029,76.0,0,354,0.0,78.0
3030,79.0,0,356,0.0,78.0
3031,72.0,0,123,1.0,90.0
3032,84.0,0,358,0.0,100.0
3033,60.0,60,18,0.0,14.0
3034,60.0,60,24,0.0,12.0
3035,60.0,7,19,0.0,20.0
3036,60.0,60,20,0.0,20.0
3037,64.0,0,85,0.0,39.0
3038,67.0,30,15,0.0,18.0
3039,60.0,47,131,1.0,35.0
3040,64.0,6,129,1.0,24.0
3041,60.0,5,20,0.0,20.0
3042,65.0,15,60,0.0,34.0
3043,64.0,45,30,0.0,18.0
3044,60.0,15,20,0.0,34.0
3045,65.0,15,27,0.0,18.0
3046,65.0,8,122,1.0,35.0
3047,62.0,2,128,1.0,29.0
3048,60.0,7,21,0.0,39.0
3049,60.0,60,19,0.0,25.0
3050,67.0,30,117,0.0,20.0
3051,64.0,1,117,1.0,19.0
3052,67.0,7,119,1.0,24.0
3053,60.0,0,21,0.0,25.0
3054,60.0,60,21,0.0,29.0
3055,64.0,2,112,0.0,25.0
3056,64.0,5,117,1.0,24.0
3057,60.0,53,127,1.0,35.0
3058,65.0,1,17,0.0,25.0
3059,69.0,0,21,0.0,34.0
3060,60.0,0,22,0.0,45.0
3061,60.0,60,23,0.0,14.0
3062,65.0,6,110,1.0,42.0
3063,69.0,53,116,1.0,42.0
3064,77.0,0,7,0.0,52.0
3065,81.0,6,11,0.0,60.0
3066,60.0,0,24,0.0,20.0
3067,60.0,60,19,0.0,14.0
3068,69.0,60,7,0.0,25.0
3069,72.0,0,7,0.0,52.0
3070,77.0,0,10,0.0,60.0
3071,60.0,0,22,0.0,34.0
3072,60.0,60,19,0.0,20.0
3073,69.0,2,239,1.0,50.0
3074,77.0,52,246,1.0,50.0
3075,71.0,0,8,0.0,34.0
3076,65.0,0,11,0.0,34.0
3077,74.0,6,14,0.0,52.0
3078,60.0,0,22,0.0,39.0
3079,67.0,0,88,1.0,58.0
3080,60.0,60,24,0.0,39.0
3081,74.0,54,109,1.0,50.0
3082,36.0,0,50,0.0,100.0
3083,48.0,5,57,0.0,88.0
3084,72.0,0,62,0.0,60.0
3085,76.0,0,65,0.0,60.0
3086,67.0,0,66,0.0,60.0
3087,52.0,58,33,0.0,20.0
3088,55.0,30,22,0.0,60.0
3089,48.0,0,18,0.0,60.0
3090,60.0,30,21,0.0,52.0
3091,60.0,0,151,1.0,90.0
3092,48.0,47,167,1.0,90.0
3093,67.0,8,160,1.0,90.0
3094,76.0,2,154,1.0,104.0
3095,64.0,0,59,0.0,68.0
3096,48.0,0,17,0.0,52.0
3097,60.0,0,20,0.0,52.0
3098,48.0,1,27,1.0,90.0
3099,60.0,2,30,1.0,78.0
3100,76.0,53,33,1.0,90.0
3101,67.0,2,28,1.0,90.0
3102,60.0,0,1,0.0,68.0
3103,48.0,0,22,0.0,68.0
3104,64.0,7,61,0.0,45.0
3105,67.0,0,12,0.0,52.0
3106,60.0,60,19,0.0,68.0
3107,67.0,51,96,1.0,90.0
3108,76.0,0,107,1.0,90.0
3109,60.0,1,111,1.0,90.0
3110,48.0,1,114,1.0,78.0
3111,67.0,2,24,0.0,45.0
3112,72.0,0,25,0.0,39.0
3113,72.0,1,49,1.0,78.0
3114,60.0,53,64,1.0,78.0
3115,64.0,30,31,0.0,29.0
3116,64.0,2,70,1.0,90.0
3117,67.0,2,74,1.0,104.0
3118,72.0,0,24,0.0,34.0
3119,36.0,0,84,0.0,100.0
3120,67.0,30,26,0.0,45.0
3121,48.0,0,90,0.0,88.0
3122,60.0,19,17,1.0,78.0
3123,72.0,1,19,1.0,78.0
3124,64.0,4,16,1.0,90.0
3125,67.0,0,14,1.0,90.0
3126,64.0,6,33,0.0,34.0
3127,72.0,0,26,0.0,60.0
3128,67.0,0,28,0.0,60.0
3129,64.0,30,35,0.0,45.0
3130,72.0,0,30,0.0,60.0
3131,64.0,0,101,1.0,90.0
3132,67.0,30,32,0.0,60.0
3133,60.0,19,112,1.0,90.0
3134,67.0,3,108,1.0,90.0
3135,60.0,6,107,0.0,88.0
3136,72.0,2,123,1.0,78.0
3137,64.0,30,26,0.0,45.0
3138,48.0,0,129,0.0,100.0
3139,67.0,30,28,0.0,68.0
3140,76.0,0,36,0.0,68.0
3141,64.0,28,31,0.0,60.0
3142,76.0,2,64,1.0,78.0
3143,67.0,4,27,0.0,52.0
3144,72.0,26,38,1.0,50.0
3145,72.0,0,34,0.0,45.0
3146,64.0,30,8,0.0,52.0
3147,48.0,0,15,0.0,78.0
3148,36.0,0,17,0.0,88.0
3149,74.0,0,28,0.0,68.0
3150,79.0,1,35,0.0,60.0
3151,35.0,0,46,0.0,88.0
3152,47.0,0,56,0.0,100.0
3153,67.0,0,67,1.0,90.0
3154,59.0,24,68,1.0,90.0
3155,62.0,5,66,1.0,90.0
3156,67.0,30,40,0.0,45.0
3157,74.0,0,26,0.0,60.0
3158,79.0,0,29,0.0,45.0
3159,59.0,21,17,1.0,78.0
3160,50.0,30,40,0.0,45.0
3161,62.0,7,17,1.0,90.0
3162,55.0,0,17,0.0,29.0
3163,74.0,0,113,1.0,90.0
3164,67.0,0,19,1.0,90.0
3165,67.0,2,34,0.0,39.0
3166,47.0,0,19,0.0,78.0
3167,59.0,0,21,0.0,78.0
3168,74.0,1,23,0.0,52.0
3169,79.0,0,27,0.0,45.0
3170,67.0,30,34,0.0,39.0
3171,59.0,0,16,0.0,78.0
3172,47.0,0,17,0.0,68.0
3173,62.0,0,80,1.0,78.0
3174,74.0,30,26,0.0,52.0
3175,79.0,0,27,0.0,52.0
3176,59.0,24,97,1.0,90.0
3177,67.0,5,96,1.0,78.0
3178,67.0,30,39,0.0,45.0
3179,59.0,0,18,0.0,88.0
3180,47.0,6,18,0.0,78.0
3181,74.0,0,28,0.0,45.0
3182,79.0,0,29,0.0,52.0
3183,71.0,12,62,1.0,90.0
3184,67.0,30,31,0.0,45.0
3185,47.0,0,16,0.0,78.0
3186,35.0,0,17,0.0,88.0
3187,79.0,4,90,1.0,78.0
3188,74.0,16,28,0.0,45.0
3189,79.0,0,30,0.0,45.0
3190,67.0,30,7,0.0,45.0
3191,67.0,14,53,1.0,68.0
3192,59.0,3,113,1.0,90.0
3193,62.0,5,123,1.0,90.0
3194,79.0,12,30,0.0,60.0
3195,84.0,0,32,0.0,68.0
3196,72.0,30,35,0.0,60.0
3197,33.0,0,88,0.0,88.0
3198,45.0,0,91,0.0,100.0
3199,79.0,30,32,0.0,60.0
3200,84.0,0,36,0.0,68.0
3201,72.0,30,24,0.0,39.0
3202,79.0,1,127,1.0,90.0
3203,76.0,11,30,0.0,68.0
3204,84.0,0,33,0.0,78.0
3205,72.0,27,38,0.0,45.0
3206,57.0,0,220,1.0,90.0
3207,76.0,0,34,0.0,60.0
3208,84.0,33,34,0.0,52.0
3209,76.0,19,129,1.0,78.0
3210,72.0,30,34,0.0,34.0
3211,57.0,0,129,0.0,88.0
3212,45.0,0,142,0.0,88.0
3213,84.0,7,32,0.0,60.0
3214,77.0,0,35,0.0,68.0
3215,72.0,30,34,0.0,52.0
3216,72.0,3,332,1.0,78.0
3217,60.0,14,339,1.0,78.0
3218,77.0,18,98,1.0,78.0
3219,77.0,0,28,0.0,60.0
3220,84.0,30,29,0.0,60.0
3221,45.0,0,12,0.0,78.0
3222,33.0,30,14,0.0,68.0
3223,57.0,5,113,1.0,90.0
3224,72.0,0,38,0.0,20.0
3225,84.0,0,31,0.0,68.0
3226,77.0,9,33,0.0,68.0
3227,31.0,0,51,0.0,78.0
3228,43.0,0,59,0.0,88.0
3229,72.0,30,32,0.0,34.0
3230,48.0,0,25,0.0,52.0
3231,77.0,0,31,0.0,60.0
3232,84.0,30,34,0.0,68.0
3233,52.0,0,18,0.0,20.0
3234,72.0,30,18,0.0,45.0
3235,77.0,18,129,1.0,68.0
3236,43.0,8,21,0.0,78.0
3237,55.0,0,21,0.0,78.0
3238,75.0,0,29,0.0,88.0
3239,84.0,0,30,0.0,78.0
3240,72.0,30,34,0.0,60.0
3241,55.0,0,17,0.0,78.0
3242,43.0,30,17,0.0,60.0
3243,75.0,0,30,0.0,78.0
3244,84.0,0,31,0.0,60.0
3245,55.0,1,224,1.0,90.0
3246,75.0,22,129,1.0,90.0
3247,72.0,30,32,0.0,45.0
3248,55.0,0,20,0.0,88.0
3249,43.0,0,21,0.0,68.0
3250,84.0,0,33,0.0,78.0
3251,76.0,2,33,0.0,68.0
3252,72.0,30,32,0.0,39.0
3253,43.0,0,14,0.0,78.0
3254,31.0,0,18,0.0,78.0
3255,60.0,1,329,1.0,90.0
3256,84.0,0,28,0.0,52.0
3257,76.0,30,29,0.0,52.0
3258,72.0,1,361,1.0,90.0
3259,55.0,3,115,1.0,90.0
3260,76.0,25,122,1.0,68.0
3261,72.0,30,27,0.0,39.0
3262,81.0,0,30,0.0,68.0
3263,74.0,0,32,0.0,68.0
3264,72.0,30,28,0.0,60.0
3265,29.0,3,79,0.0,88.0
3266,53.0,1,88,1.0,78.0
3267,74.0,0,30,0.0,60.0
3268,60.0,6,99,1.0,90.0
3269,81.0,30,31,0.0,68.0
3270,69.0,16,105,1.0,78.0
3271,41.0,0,92,0.0,88.0
3272,74.0,4,95,1.0,90.0
3273,72.0,30,30,0.0,39.0
3274,74.0,7,30,0.0,60.0
3275,81.0,0,31,0.0,60.0
3276,72.0,30,34,0.0,52.0
3277,60.0,0,93,1.0,78.0
3278,41.0,0,90,0.0,52.0
3279,74.0,0,102,1.0,78.0
3280,74.0,30,32,0.0,68.0
3281,81.0,0,41,0.0,52.0
3282,53.0,0,102,0.0,88.0
3283,53.0,20,119,1.0,78.0
3284,69.0,3,123,1.0,90.0
3285,72.0,30,34,0.0,39.0
3286,74.0,0,30,0.0,68.0
3287,79.0,0,33,0.0,60.0
3288,72.0,30,32,0.0,34.0
3289,43.0,4,83,0.0,68.0
3290,60.0,0,87,1.0,90.0
3291,74.0,30,28,0.0,60.0
3292,55.0,0,88,0.0,68.0
3293,55.0,0,94,1.0,78.0
3294,79.0,0,33,0.0,52.0
3295,74.0,23,102,1.0,90.0
3296,67.0,3,104,1.0,78.0
3297,72.0,30,21,0.0,34.0
3298,45.0,0,79,0.0,88.0
3299,57.0,0,82,0.0,88.0
3300,66.0,0,92,1.0,90.0
3301,74.0,0,87,0.0,78.0
3302,60.0,1,87,1.0,90.0
3303,72.0,0,90,0.0,60.0
3304,78.0,0,90,0.0,88.0
3305,57.0,24,96,1.0,104.0
3306,74.0,5,97,1.0,90.0
3307,74.0,2,83,1.0,78.0
3308,60.0,5,98,1.0,68.0
3309,66.0,1,98,1.0,90.0
3310,57.0,113,113,1.0,68.0
3311,72.0,189,15,0.0,60.0
3312,74.0,10,15,0.0,60.0
3313,76.0,10,15,0.0,60.0
3314,77.0,10,15,0.0,60.0
3315,79.0,10,15,0.0,60.0
3316,66.0,1,61,1.0,104.0
3317,74.0,2,68,1.0,104.0
3318,60.0,2,67,1.0,90.0
3319,57.0,4,74,1.0,104.0
3320,66.0,83,13,1.0,90.0
3321,74.0,0,98,0.0,88.0
3322,60.0,1,14,1.0,78.0
3323,74.0,1,14,1.0,78.0
3324,72.0,0,102,0.0,60.0
3325,78.0,0,102,0.0,100.0
3326,57.0,3,13,1.0,68.0
3327,57.0,0,104,0.0,100.0
3328,45.0,2,105,0.0,88.0
3329,74.0,2,98,1.0,90.0
3330,60.0,1,105,1.0,90.0
3331,66.0,19,117,1.0,90.0
3332,57.0,3,129,1.0,90.0
3333,72.0,166,15,0.0,60.0
3334,74.0,10,15,0.0,60.0
3335,57.0,2,19,1.0,104.0
3336,76.0,4,15,0.0,60.0
3337,77.0,5,15,0.0,60.0
3338,79.0,10,15,0.0,60.0
3339,69.0,3,43,1.0,78.0
3340,74.0,1,42,1.0,90.0
3341,81.0,10,15,0.0,60.0
3342,83.0,10,15,0.0,60.0
3343,60.0,5,52,1.0,90.0
3344,57.0,0,19,0.0,68.0
3345,45.0,0,21,0.0,60.0
3346,78.0,0,32,0.0,100.0
3347,84.0,10,37,0.0,68.0
3348,74.0,30,34,0.0,60.0
3349,45.0,0,15,0.0,52.0
3350,57.0,0,17,0.0,52.0
3351,57.0,6,102,1.0,90.0
3352,78.0,0,29,0.0,60.0
3353,84.0,30,29,0.0,45.0
3354,78.0,2,99,1.0,90.0
3355,72.0,1,104,1.0,68.0
3356,62.0,1,105,1.0,90.0
3357,74.0,30,32,0.0,34.0
3358,45.0,0,19,0.0,52.0
3359,57.0,0,21,0.0,52.0
3360,84.0,4,25,0.0,52.0
3361,78.0,0,29,0.0,60.0
3362,74.0,30,34,0.0,18.0
3363,45.0,0,17,0.0,45.0
3364,57.0,0,20,0.0,52.0
3365,78.0,2,92,1.0,90.0
3366,57.0,20,95,1.0,90.0
3367,62.0,1,93,1.0,90.0
3368,72.0,3,93,1.0,90.0
3369,84.0,0,30,0.0,52.0
3370,78.0,30,31,0.0,60.0
3371,74.0,30,32,0.0,25.0
3372,57.0,0,23,0.0,68.0
3373,45.0,0,24,0.0,60.0
3374,78.0,7,26,0.0,52.0
3375,84.0,0,28,0.0,34.0
3376,74.0,30,34,0.0,18.0
3377,62.0,1,85,1.0,78.0
3378,57.0,0,22,0.0,68.0
3379,45.0,30,24,0.0,60.0
3380,84.0,0,28,0.0,29.0
3381,78.0,0,29,0.0,52.0
3382,72.0,0,109,1.0,78.0
3383,57.0,21,118,1.0,90.0
3384,78.0,1,119,1.0,90.0
3385,74.0,30,29,0.0,34.0
3386,43.0,7,23,0.0,78.0
3387,55.0,0,23,0.0,78.0
3388,83.0,0,28,0.0,68.0
3389,79.0,0,29,0.0,60.0
3390,74.0,30,31,0.0,45.0
3391,55.0,0,20,0.0,60.0
3392,43.0,30,23,0.0,60.0
3393,79.0,0,31,0.0,45.0
3394,83.0,0,32,0.0,45.0
3395,74.0,30,23,0.0,45.0
3396,43.0,0,23,0.0,68.0
3397,55.0,0,23,0.0,60.0
3398,74.0,30,26,0.0,68.0
3399,79.0,0,31,0.0,52.0
3400,71.0,30,27,0.0,39.0
3401,55.0,30,22,0.0,60.0
3402,43.0,0,22,0.0,60.0
3403,74.0,0,29,0.0,52.0
3404,79.0,0,31,0.0,52.0
3405,71.0,30,16,0.0,52.0
3406,43.0,0,21,0.0,60.0
3407,55.0,30,21,0.0,60.0
3408,74.0,0,29,0.0,60.0
3409,71.0,0,30,0.0,52.0
3410,55.0,0,312,1.0,78.0
3411,67.0,30,32,0.0,52.0
3412,55.0,0,20,0.0,52.0
3413,43.0,0,20,0.0,60.0
3414,74.0,30,23,0.0,52.0
3415,71.0,0,24,0.0,52.0
3416,62.0,3,333,1.0,90.0
3417,71.0,19,337,1.0,78.0
3418,79.0,1,337,1.0,68.0
3419,55.0,20,15,1.0,90.0
3420,59.0,7,12,1.0,58.0
3421,67.0,0,14,1.0,68.0
3422,67.0,2,15,0.0,45.0
3423,74.0,1,18,1.0,78.0
3424,74.0,0,94,0.0,78.0
3425,79.0,7,95,0.0,78.0
3426,71.0,0,96,0.0,78.0
3427,74.0,2,106,1.0,78.0
3428,67.0,2,112,1.0,78.0
3429,55.0,15,133,1.0,90.0
3430,59.0,4,137,1.0,90.0
3431,55.0,0,141,0.0,68.0
3432,43.0,0,142,0.0,78.0
3433,67.0,0,362,0.0,78.0
3434,79.0,360,366,0.0,60.0
3435,64.0,0,352,0.0,29.0
3436,76.0,360,354,0.0,39.0
3437,60.0,0,290,0.0,34.0
3438,57.0,1,348,1.0,42.0
3439,45.0,2,356,1.0,50.0
3440,72.0,360,361,0.0,34.0
3441,65.0,2,357,1.0,50.0
3442,77.0,0,361,1.0,29.0
3443,69.0,0,341,0.0,39.0
3444,81.0,2,346,0.0,25.0
3445,41.0,3,362,1.0,35.0
3446,62.0,0,360,1.0,42.0
3447,74.0,1,366,1.0,42.0
3448,53.0,349,372,1.0,35.0
3449,77.0,58,51,0.0,29.0
3450,74.0,0,57,0.0,29.0
3451,43.0,1,122,0.0,45.0
3452,76.0,60,50,0.0,25.0
3453,73.0,0,58,0.0,29.0
3454,77.0,0,47,0.0,25.0
3455,74.0,60,66,0.0,34.0
3456,79.0,60,55,0.0,29.0
3457,76.0,0,57,0.0,20.0
3458,74.0,0,19,0.0,20.0
3459,77.0,60,19,0.0,9.0
3460,71.0,2,358,1.0,29.0
3461,43.0,355,366,1.0,35.0
3462,55.0,0,361,1.0,35.0
3463,59.0,4,363,1.0,29.0
3464,45.0,0,110,0.0,39.0
3465,76.0,60,58,0.0,14.0
3466,72.0,0,62,0.0,18.0
3467,75.0,0,51,0.0,29.0
3468,71.0,60,58,0.0,20.0
3469,72.0,0,22,0.0,18.0
3470,76.0,60,24,0.0,25.0
3471,57.0,0,206,1.0,35.0
3472,45.0,59,239,1.0,42.0
3473,60.0,0,238,1.0,42.0
3474,72.0,1,243,1.0,29.0
3475,77.0,2,30,0.0,39.0
3476,69.0,53,67,1.0,29.0
3477,81.0,0,70,0.0,39.0
3478,77.0,60,22,0.0,34.0
3479,41.0,0,84,0.0,34.0
3480,74.0,0,28,0.0,29.0
3481,41.0,1,120,1.0,35.0
3482,65.0,0,60,1.0,24.0
3483,62.0,2,123,1.0,35.0
3484,57.0,2,132,1.0,35.0
3485,43.0,0,110,0.0,18.0
3486,76.0,55,56,0.0,18.0
3487,72.0,0,59,0.0,18.0
3488,75.0,0,52,0.0,34.0
3489,71.0,60,66,0.0,14.0
3490,76.0,60,18,0.0,25.0
3491,72.0,0,25,0.0,25.0
3492,76.0,0,29,0.0,34.0
3493,79.0,60,68,0.0,34.0
3494,76.0,0,21,0.0,14.0
3495,72.0,60,32,0.0,25.0
3496,55.0,57,352,1.0,42.0
3497,64.0,3,349,1.0,29.0
3498,60.0,2,354,1.0,35.0
3499,43.0,3,92,0.0,34.0
3500,71.0,0,55,0.0,25.0
3501,74.0,60,57,0.0,29.0
3502,73.0,0,31,0.0,29.0
3503,70.0,60,41,0.0,45.0
3504,74.0,60,34,0.0,45.0
3505,71.0,0,59,0.0,34.0
3506,74.0,60,37,0.0,29.0
3507,77.0,0,52,0.0,25.0
3508,71.0,60,14,0.0,29.0
3509,74.0,0,29,0.0,34.0
3510,55.0,2,710,0.0,45.0
3511,53.0,0,360,1.0,29.0
3512,62.0,51,364,1.0,35.0
3513,59.0,6,361,1.0,42.0
3514,43.0,1,720,1.0,35.0
3515,48.0,3,103,1.0,42.0
3516,60.0,0,104,1.0,35.0
3517,72.0,2,105,0.0,88.0
3518,52.0,54,111,1.0,42.0
3519,48.0,0,109,0.0,52.0
3520,36.0,0,111,0.0,60.0
3521,60.0,0,132,0.0,88.0
3522,60.0,210,20,0.0,34.0
3523,48.0,5,24,0.0,20.0
3524,62.0,1,15,0.0,60.0
3525,50.0,9,21,0.0,52.0
3526,64.0,4,11,0.0,78.0
3527,52.0,11,25,0.0,68.0
3528,64.0,78,15,0.0,39.0
3529,52.0,11,14,0.0,18.0
3530,65.0,1,15,0.0,78.0
3531,53.0,4,20,0.0,52.0
3532,67.0,11,127,0.0,88.0
3533,55.0,0,142,0.0,60.0
3534,64.0,210,25,0.0,29.0
3535,65.0,18,19,0.0,60.0
3536,52.0,2,25,0.0,18.0
3537,67.0,10,19,0.0,68.0
3538,53.0,0,21,0.0,52.0
3539,55.0,12,25,0.0,60.0
3540,55.0,63,21,0.0,60.0
3541,67.0,11,22,0.0,52.0
3542,57.0,9,23,0.0,39.0
3543,69.0,6,26,0.0,45.0
3544,59.0,14,21,0.0,60.0
3545,71.0,4,18,0.0,39.0
3546,48.0,0,22,0.0,100.0
3547,60.0,0,31,0.0,78.0
3548,64.0,0,64,0.0,78.0
3549,72.0,2,85,1.0,90.0
3550,48.0,0,87,1.0,90.0
3551,64.0,1,94,1.0,90.0
3552,48.0,0,20,0.0,39.0
3553,36.0,0,23,0.0,60.0
3554,55.0,5,98,1.0,90.0
3555,72.0,8,95,0.0,78.0
3556,57.0,30,15,0.0,45.0
3557,60.0,60,51,0.0,60.0
3558,36.0,0,16,0.0,52.0
3559,48.0,7,21,0.0,39.0
3560,64.0,0,60,0.0,60.0
3561,72.0,2,76,1.0,90.0
3562,36.0,0,16,0.0,34.0
3563,64.0,20,90,1.0,78.0
3564,48.0,0,87,1.0,90.0
3565,48.0,0,21,0.0,34.0
3566,67.0,60,21,0.0,68.0
3567,55.0,1,97,1.0,90.0
3568,64.0,30,23,0.0,20.0
3569,36.0,5,20,0.0,45.0
3570,48.0,0,22,0.0,39.0
3571,72.0,0,28,0.0,68.0
3572,67.0,30,45,0.0,45.0
3573,48.0,4,81,1.0,90.0
3574,36.0,30,19,0.0,39.0
3575,48.0,0,22,0.0,34.0
3576,76.0,0,28,0.0,60.0
3577,72.0,0,110,1.0,90.0
3578,64.0,20,115,1.0,68.0
3579,55.0,1,112,1.0,90.0
3580,72.0,30,25,0.0,20.0
3581,36.0,9,20,0.0,45.0
3582,48.0,0,22,0.0,39.0
3583,77.0,0,23,0.0,88.0
3584,65.0,0,34,0.0,100.0
3585,36.0,0,17,0.0,29.0
3586,48.0,0,19,0.0,29.0
3587,65.0,60,33,0.0,78.0
3588,60.0,30,18,0.0,52.0
3589,36.0,0,20,0.0,39.0
3590,48.0,0,21,0.0,29.0
3591,69.0,30,21,0.0,60.0
3592,65.0,30,23,0.0,52.0
3593,36.0,0,17,0.0,29.0
3594,72.0,0,18,0.0,52.0
3595,48.0,30,19,0.0,18.0
3596,65.0,2,253,1.0,78.0
3597,69.0,30,35,0.0,25.0
3598,57.0,17,262,1.0,78.0
3599,36.0,2,20,0.0,39.0
3600,48.0,0,22,0.0,29.0
3601,77.0,0,25,0.0,60.0
3602,74.0,0,26,0.0,60.0
3603,77.0,1,285,1.0,90.0
3604,69.0,30,11,0.0,39.0
3605,48.0,1,309,1.0,90.0
3606,59.0,3,70,1.0,78.0
3607,67.0,25,79,1.0,68.0
3608,36.0,0,18,0.0,45.0
3609,48.0,0,20,0.0,25.0
3610,77.0,0,26,0.0,60.0
3611,83.0,9,26,0.0,68.0
3612,77.0,21,48,1.0,78.0
3613,48.0,23,16,1.0,78.0
3614,67.0,3,11,1.0,78.0
3615,72.0,5,18,0.0,39.0
3616,59.0,2,37,1.0,90.0
3617,84.0,0,20,0.0,88.0
3618,76.0,7,21,0.0,88.0
3619,76.0,14,107,1.0,78.0
3620,48.0,0,103,0.0,52.0
3621,36.0,0,105,0.0,60.0
3622,60.0,4,114,1.0,58.0
3623,48.0,2,120,1.0,90.0
3624,67.0,0,120,1.0,90.0
3625,48.0,210,21,0.0,25.0
3626,60.0,4,20,0.0,39.0
3627,62.0,0,15,0.0,45.0
3628,50.0,11,25,0.0,52.0
3629,64.0,15,14,0.0,68.0
3630,52.0,0,19,0.0,45.0
3631,64.0,81,20,0.0,34.0
3632,52.0,9,20,0.0,18.0
3633,65.0,6,16,0.0,52.0
3634,53.0,1,21,0.0,45.0
3635,67.0,9,123,0.0,78.0
3636,55.0,14,118,0.0,52.0
3637,52.0,195,28,0.0,18.0
3638,64.0,15,19,0.0,34.0
3639,53.0,0,23,0.0,39.0
3640,65.0,15,16,0.0,52.0
3641,55.0,0,18,0.0,39.0
3642,67.0,13,12,0.0,78.0
3643,67.0,47,20,0.0,45.0
3644,55.0,10,1,1.0,78.0
3645,55.0,1,23,0.0,45.0
3646,69.0,0,23,0.0,29.0
3647,67.0,2,11,1.0,68.0
3648,71.0,1,20,0.0,18.0
3649,72.0,3,6,0.0,34.0
3650,57.0,4,22,0.0,34.0
3651,55.0,6,21,1.0,90.0
3652,59.0,4,18,0.0,25.0
3653,67.0,4,10,1.0,8.0
3654,64.0,0,16,0.0,88.0
3655,72.0,0,29,0.0,68.0
3656,48.0,0,32,0.0,68.0
3657,60.0,13,34,0.0,60.0
3658,48.0,3,91,1.0,78.0
3659,64.0,0,94,1.0,68.0
3660,72.0,7,68,1.0,78.0
3661,36.0,0,19,0.0,45.0
3662,48.0,49,21,0.0,45.0
3663,60.0,0,32,0.0,68.0
3664,55.0,30,12,0.0,52.0
3665,64.0,2,24,1.0,78.0
3666,48.0,1,26,1.0,90.0
3667,64.0,13,21,0.0,88.0
3668,55.0,11,37,1.0,78.0
3669,36.0,0,19,0.0,60.0
3670,48.0,3,20,0.0,39.0
3671,72.0,0,55,1.0,78.0
3672,60.0,30,24,0.0,34.0
3673,64.0,2,33,1.0,78.0
3674,55.0,3,33,1.0,78.0
3675,72.0,9,29,1.0,90.0
3676,48.0,2,39,1.0,78.0
3677,36.0,0,18,0.0,45.0
3678,48.0,14,18,0.0,34.0
3679,67.0,0,28,0.0,78.0
3680,64.0,30,16,0.0,45.0
3681,55.0,0,28,1.0,90.0
3682,64.0,6,31,1.0,90.0
3683,72.0,0,36,1.0,78.0
3684,48.0,9,32,1.0,78.0
3685,48.0,15,19,0.0,34.0
3686,36.0,0,21,0.0,52.0
3687,72.0,0,29,0.0,78.0
3688,67.0,30,31,0.0,2.0
3689,72.0,3,28,1.0,68.0
3690,48.0,11,27,1.0,68.0
3691,36.0,0,17,0.0,39.0
3692,48.0,0,21,0.0,34.0
3693,55.0,2,55,1.0,78.0
3694,72.0,19,9,1.0,2.0
3695,76.0,12,28,0.0,60.0
3696,64.0,2,54,1.0,78.0
3697,72.0,11,27,0.0,25.0
3698,36.0,0,20,0.0,60.0
3699,48.0,9,21,0.0,39.0
3700,77.0,0,22,0.0,78.0
3701,65.0,0,33,0.0,88.0
3702,36.0,0,16,0.0,29.0
3703,48.0,0,20,0.0,29.0
3704,65.0,60,39,0.0,78.0
3705,60.0,30,16,0.0,45.0
3706,36.0,0,21,0.0,45.0
3707,69.0,30,22,0.0,68.0
3708,48.0,0,22,0.0,25.0
3709,65.0,30,19,0.0,34.0
3710,72.0,30,16,0.0,60.0
3711,48.0,0,21,0.0,29.0
3712,36.0,0,21,0.0,52.0
3713,65.0,4,238,1.0,90.0
3714,57.0,6,252,1.0,90.0
3715,69.0,30,28,0.0,34.0
3716,36.0,0,16,0.0,29.0
3717,48.0,0,16,0.0,25.0
3718,77.0,12,25,0.0,68.0
3719,74.0,0,26,0.0,78.0
3720,72.0,30,26,0.0,34.0
3721,83.0,0,9,0.0,68.0
3722,48.0,6,331,1.0,78.0
3723,48.0,0,18,0.0,25.0
3724,36.0,0,18,0.0,39.0
3725,67.0,13,96,1.0,78.0
3726,77.0,30,37,0.0,68.0
3727,74.0,30,11,0.0,29.0
3728,59.0,5,123,1.0,78.0
3729,77.0,5,364,1.0,78.0
3730,84.0,4,11,0.0,60.0
3731,76.0,0,13,0.0,78.0
3732,72.0,0,18,0.0,60.0
3733,36.0,0,75,0.0,60.0
3734,48.0,0,83,0.0,45.0
3735,76.0,1,99,1.0,78.0
3736,60.0,60,44,0.0,52.0
3737,67.0,12,123,1.0,90.0
3738,48.0,9,114,1.0,90.0
3739,55.0,30,15,0.0,52.0
3740,60.0,4,118,1.0,78.0
3741,64.0,30,20,0.0,78.0
3742,60.0,30,28,0.0,45.0
3743,67.0,30,24,0.0,68.0
3744,64.0,30,15,0.0,34.0
3745,72.0,30,29,0.0,68.0
3746,67.0,30,32,0.0,9.0
3747,76.0,30,33,0.0,45.0
3748,72.0,30,8,0.0,52.0
3749,74.0,0,16,0.0,88.0
3750,77.0,0,20,0.0,52.0
3751,55.0,9,66,0.0,52.0
3752,48.0,0,68,0.0,52.0
3753,74.0,60,13,0.0,78.0
3754,77.0,0,18,0.0,78.0
3755,60.0,5,120,1.0,78.0
3756,76.0,2,128,1.0,78.0
3757,72.0,0,14,0.0,20.0
3758,77.0,0,42,0.0,60.0
3759,47.0,1,66,0.0,60.0
3760,55.0,0,67,0.0,52.0
3761,86.0,60,17,0.0,78.0
3762,67.0,0,222,1.0,90.0
3763,65.0,47,129,1.0,90.0
3764,59.0,3,126,1.0,78.0
3765,74.0,9,126,1.0,90.0
3766,76.0,0,52,0.0,60.0
3767,72.0,4,58,0.0,60.0
3768,48.0,0,63,0.0,45.0
3769,55.0,0,64,0.0,68.0
3770,84.0,60,17,0.0,78.0
3771,67.0,3,94,1.0,90.0
3772,72.0,1,94,1.0,78.0
3773,64.0,1,100,1.0,78.0
3774,60.0,51,118,1.0,78.0
3775,84.0,0,64,0.0,88.0
3776,76.0,1,65,0.0,78.0
3777,79.0,0,70,0.0,78.0
3778,72.0,0,71,0.0,78.0
3779,43.0,0,75,0.0,52.0
3780,67.0,1,91,1.0,90.0
3781,55.0,51,98,1.0,90.0
3782,55.0,0,91,0.0,60.0
3783,64.0,3,123,1.0,90.0
3784,72.0,4,121,1.0,90.0
3785,31.0,0,52,0.0,68.0
3786,43.0,0,52,0.0,68.0
3787,55.0,8,91,1.0,78.0
3788,67.0,109,107,1.0,90.0
3789,71.0,0,99,1.0,90.0
3790,79.0,0,99,0.0,78.0
3791,74.0,0,100,0.0,88.0
3792,71.0,0,101,0.0,78.0
3793,83.0,2,102,0.0,78.0
3794,62.0,1,121,1.0,78.0
3795,64.0,0,6,0.0,52.0
3796,67.0,60,8,0.0,60.0
3797,60.0,6,93,0.0,68.0
3798,69.0,0,24,0.0,60.0
3799,77.0,60,25,0.0,68.0
3800,76.0,0,14,0.0,45.0
3801,67.0,60,19,0.0,45.0
3802,74.0,60,15,0.0,52.0
3803,65.0,0,18,0.0,52.0
3804,72.0,0,16,0.0,45.0
3805,64.0,60,16,0.0,45.0
3806,71.0,0,16,0.0,68.0
3807,62.0,60,18,0.0,52.0
3808,69.0,0,14,0.0,45.0
3809,60.0,60,17,0.0,34.0
3810,55.0,0,96,0.0,34.0
3811,59.0,60,19,0.0,39.0
3812,67.0,0,24,0.0,52.0
3813,79.0,234,543,2.0,88.0
3814,65.0,0,20,0.0,39.0
3815,62.0,12,21,0.0,45.0
3816,77.0,48,73,2.0,88.0
3817,64.0,0,14,0.0,45.0
3818,60.0,11,17,0.0,34.0
3819,76.0,49,63,2.0,98.0
3820,59.0,0,6,0.0,29.0
3821,62.0,11,11,0.0,60.0
3822,74.0,49,70,2.0,88.0
3823,48.0,0,110,0.0,39.0
3824,79.0,60,52,0.0,60.0
3825,76.0,60,15,0.0,60.0
3826,84.0,0,22,0.0,60.0
3827,79.0,0,23,0.0,39.0
3828,83.0,60,36,0.0,39.0
3829,77.0,0,23,0.0,20.0
3830,81.0,60,38,0.0,29.0
3831,72.0,53,309,2.0,98.0
3832,60.0,0,304,0.0,39.0
3833,62.0,0,19,0.0,45.0
3834,79.0,6,22,0.0,39.0
3835,76.0,0,24,0.0,25.0
3836,74.0,54,33,2.0,88.0
3837,64.0,12,27,0.0,29.0
3838,76.0,18,43,2.0,62.0
3839,77.0,0,11,0.0,45.0
3840,74.0,0,14,0.0,45.0
3841,76.0,60,10,0.0,34.0
3842,72.0,0,13,0.0,29.0
3843,62.0,4,99,0.0,39.0
3844,71.0,60,12,0.0,39.0
3845,74.0,0,15,0.0,39.0
3846,67.0,26,147,2.0,88.0
3847,72.0,0,12,0.0,20.0
3848,76.0,6,13,0.0,25.0
3849,64.0,54,65,2.0,70.0
3850,74.0,0,12,0.0,39.0
3851,77.0,8,23,0.0,29.0
3852,65.0,52,59,2.0,88.0
3853,71.0,0,17,0.0,34.0
3854,79.0,10,17,0.0,39.0
3855,62.0,50,60,2.0,70.0
3856,55.0,0,357,0.0,29.0
3857,72.0,0,16,0.0,39.0
3858,76.0,0,19,0.0,52.0
3859,67.0,60,16,0.0,20.0
3860,48.0,6,105,0.0,34.0
3861,60.0,0,106,0.0,45.0
3862,77.0,60,16,0.0,52.0
3863,69.0,0,16,0.0,52.0
3864,76.0,60,15,0.0,39.0
3865,67.0,0,16,0.0,39.0
3866,74.0,60,13,0.0,45.0
3867,65.0,0,16,0.0,52.0
3868,72.0,60,15,0.0,52.0
3869,64.0,0,15,0.0,39.0
3870,60.0,53,340,2.0,88.0
3871,62.0,27,21,2.0,62.0
3872,64.0,13,25,2.0,70.0
3873,71.0,0,13,0.0,45.0
3874,62.0,0,15,0.0,39.0
3875,69.0,60,13,0.0,45.0
3876,60.0,0,14,0.0,39.0
3877,62.0,18,122,2.0,98.0
3878,55.0,2,126,0.0,52.0
3879,59.0,0,15,0.0,39.0
3880,67.0,60,21,0.0,45.0
3881,62.0,60,10,0.0,29.0
3882,65.0,0,11,0.0,45.0
3883,67.0,1,558,2.0,78.0
3884,65.0,2,70,2.0,98.0
3885,64.0,0,13,0.0,39.0
3886,60.0,58,14,0.0,25.0
3887,64.0,1,59,2.0,78.0
3888,59.0,2,7,0.0,18.0
3889,62.0,0,13,0.0,52.0
3890,62.0,57,64,2.0,78.0
3891,79.0,60,18,0.0,60.0
3892,76.0,0,16,0.0,45.0
3893,84.0,60,23,0.0,60.0
3894,79.0,0,13,0.0,45.0
3895,83.0,60,15,0.0,45.0
3896,60.0,1,236,0.0,39.0
3897,81.0,60,12,0.0,52.0
3898,77.0,0,16,0.0,52.0
3899,48.0,0,274,0.0,25.0
3900,60.0,0,309,2.0,88.0
3901,79.0,60,11,0.0,52.0
3902,76.0,0,12,0.0,39.0
3903,62.0,0,18,0.0,39.0
3904,62.0,1,21,2.0,78.0
3905,64.0,4,24,0.0,14.0
3906,64.0,25,31,2.0,39.0
3907,77.0,0,11,0.0,52.0
3908,74.0,4,13,0.0,39.0
3909,76.0,60,14,0.0,34.0
3910,72.0,0,16,0.0,34.0
3911,62.0,26,107,2.0,78.0
3912,62.0,0,114,0.0,34.0
3913,74.0,60,12,0.0,39.0
3914,71.0,0,13,0.0,39.0
3915,55.0,59,529,2.0,98.0
3916,72.0,15,17,0.0,34.0
3917,76.0,0,19,0.0,29.0
3918,52.0,45,62,2.0,88.0
3919,55.0,0,258,0.0,29.0
3920,74.0,18,20,0.0,45.0
3921,77.0,0,32,0.0,45.0
3922,53.0,42,65,2.0,88.0
3923,79.0,15,13,0.0,52.0
3924,71.0,0,14,0.0,60.0
3925,50.0,45,67,2.0,88.0
3926,76.0,0,25,0.0,60.0
3927,84.0,0,29,0.0,68.0
3928,48.0,2,52,2.0,88.0
3929,48.0,0,60,0.0,88.0
3930,72.0,30,33,0.0,1.0
3931,36.0,5,66,0.0,100.0
3932,84.0,30,30,0.0,52.0
3933,72.0,30,27,0.0,9.0
3934,48.0,49,132,1.0,68.0
3935,84.0,30,32,0.0,52.0
3936,48.0,0,68,0.0,88.0
3937,60.0,0,81,0.0,100.0
3938,72.0,59,40,0.0,68.0
3939,72.0,0,229,1.0,90.0
3940,60.0,1,105,1.0,90.0
3941,74.0,30,16,0.0,34.0
3942,60.0,1,10,1.0,90.0
3943,76.0,30,17,0.0,68.0
3944,72.0,0,21,0.0,60.0
3945,47.0,0,70,0.0,100.0
3946,76.0,54,12,0.0,60.0
3947,72.0,0,15,0.0,52.0
3948,59.0,0,78,0.0,88.0
3949,72.0,2,93,1.0,78.0
3950,59.0,3,115,1.0,78.0
3951,72.0,0,21,0.0,88.0
3952,67.0,0,32,0.0,88.0
3953,76.0,3,38,0.0,78.0
3954,46.0,0,76,0.0,100.0
3955,58.0,0,77,0.0,100.0
3956,74.0,60,25,0.0,88.0
3957,76.0,30,14,0.0,45.0
3958,64.0,52,117,1.0,78.0
3959,58.0,5,115,1.0,90.0
3960,77.0,8,45,0.0,78.0
3961,72.0,0,49,0.0,78.0
3962,57.0,0,83,0.0,88.0
3963,76.0,60,26,0.0,45.0
3964,45.0,0,87,0.0,88.0
3965,77.0,23,21,0.0,29.0
3966,65.0,16,120,1.0,90.0
3967,57.0,6,118,1.0,90.0
3968,81.0,0,55,0.0,68.0
3969,72.0,0,64,0.0,60.0
3970,53.0,0,69,0.0,88.0
3971,41.0,8,72,0.0,78.0
3972,79.0,60,33,0.0,60.0
3973,81.0,30,6,0.0,39.0
3974,69.0,2,115,1.0,78.0
3975,53.0,27,118,1.0,78.0
3976,84.0,0,30,0.0,60.0
3977,79.0,10,31,0.0,68.0
3978,72.0,30,34,0.0,45.0
3979,40.0,0,67,0.0,78.0
3980,52.0,0,78,0.0,88.0
3981,84.0,30,31,0.0,60.0
3982,67.0,3,118,1.0,78.0
3983,72.0,30,20,0.0,20.0
3984,52.0,0,124,1.0,78.0
3985,76.0,0,44,0.0,78.0
3986,84.0,0,44,0.0,78.0
3987,48.0,6,84,0.0,88.0
3988,72.0,60,28,0.0,45.0
3989,72.0,14,225,1.0,90.0
3990,60.0,0,90,0.0,88.0
3991,60.0,24,98,1.0,90.0
3992,74.0,30,18,0.0,60.0
3993,60.0,19,0,1.0,90.0
3994,76.0,0,25,0.0,78.0
3995,72.0,0,28,0.0,68.0
3996,72.0,4,75,1.0,90.0
3997,76.0,60,10,0.0,68.0
3998,72.0,0,14,0.0,60.0
3999,59.0,7,76,0.0,88.0
4000,47.0,0,76,0.0,88.0
4001,59.0,0,129,1.0,78.0
4002,72.0,4,27,0.0,78.0
4003,67.0,0,37,0.0,78.0
4004,76.0,0,44,0.0,78.0
4005,46.0,0,69,0.0,100.0
4006,58.0,0,79,0.0,100.0
4007,74.0,60,29,0.0,60.0
4008,76.0,23,13,0.0,39.0
4009,58.0,48,118,1.0,90.0
4010,64.0,8,124,1.0,68.0
4011,72.0,0,51,0.0,78.0
4012,77.0,8,56,0.0,78.0
4013,57.0,0,67,0.0,88.0
4014,45.0,0,82,0.0,78.0
4015,76.0,60,29,0.0,60.0
4016,77.0,23,21,0.0,60.0
4017,65.0,0,120,1.0,78.0
4018,57.0,29,127,1.0,78.0
4019,81.0,0,48,0.0,78.0
4020,72.0,0,59,0.0,78.0
4021,53.0,0,69,0.0,88.0
4022,41.0,3,73,0.0,78.0
4023,79.0,60,27,0.0,39.0
4024,53.0,7,112,1.0,78.0
4025,81.0,28,24,0.0,52.0
4026,69.0,27,124,1.0,78.0
4027,79.0,0,29,0.0,78.0
4028,52.0,8,29,0.0,78.0
4029,84.0,0,36,0.0,78.0
4030,40.0,0,43,0.0,88.0
4031,72.0,27,34,0.0,45.0
4032,52.0,0,19,0.0,68.0
4033,84.0,33,29,0.0,60.0
4034,72.0,27,19,0.0,25.0
4035,52.0,1,118,1.0,78.0
4036,67.0,2,121,1.0,90.0
4037,60.0,0,25,0.0,78.0
4038,48.0,0,29,0.0,78.0
4039,84.0,0,36,0.0,78.0
4040,76.0,6,40,0.0,88.0
4041,60.0,27,80,1.0,90.0
4042,72.0,20,206,1.0,90.0
4043,60.0,60,23,0.0,78.0
4044,72.0,0,26,0.0,45.0
4045,48.0,0,29,0.0,68.0
4046,74.0,30,19,0.0,25.0
4047,60.0,16,13,1.0,90.0
4048,72.0,5,25,0.0,68.0
4049,76.0,0,26,0.0,78.0
4050,59.0,0,29,0.0,88.0
4051,47.0,0,30,0.0,78.0
4052,72.0,4,73,1.0,78.0
4053,76.0,0,8,0.0,45.0
4054,72.0,60,13,0.0,60.0
4055,47.0,0,28,0.0,78.0
4056,59.0,0,40,0.0,78.0
4057,59.0,5,119,1.0,78.0
4058,72.0,0,19,0.0,88.0
4059,58.0,0,26,0.0,100.0
4060,46.0,0,28,0.0,100.0
4061,67.0,5,33,0.0,78.0
4062,76.0,0,42,0.0,78.0
4063,74.0,0,20,0.0,52.0
4064,58.0,0,30,0.0,88.0
4065,46.0,60,31,0.0,78.0
4066,76.0,30,9,0.0,25.0
4067,58.0,3,125,1.0,90.0
4068,67.0,46,130,1.0,78.0
4069,57.0,0,26,0.0,88.0
4070,45.0,0,31,0.0,68.0
4071,69.0,8,32,0.0,78.0
4072,72.0,0,33,0.0,88.0
4073,77.0,0,42,0.0,78.0
4074,76.0,0,22,0.0,25.0
4075,45.0,0,27,0.0,68.0
4076,60.0,2,221,1.0,90.0
4077,57.0,60,37,0.0,78.0
4078,77.0,30,18,0.0,60.0
4079,65.0,21,125,1.0,90.0
4080,57.0,1,126,1.0,90.0
4081,72.0,4,247,1.0,78.0
4082,43.0,0,25,0.0,68.0
4083,72.0,0,27,0.0,78.0
4084,55.0,0,28,0.0,78.0
4085,70.0,0,35,0.0,88.0
4086,79.0,2,43,0.0,78.0
4087,60.0,23,88,1.0,78.0
4088,77.0,60,24,0.0,39.0
4089,43.0,0,25,0.0,68.0
4090,55.0,0,40,0.0,68.0
4091,70.0,2,111,1.0,90.0
4092,55.0,1,113,1.0,78.0
4093,79.0,30,22,0.0,52.0
4094,64.0,2,116,1.0,78.0
4095,72.0,0,65,0.0,88.0
4096,69.0,7,66,0.0,88.0
4097,81.0,0,69,0.0,88.0
4098,69.0,1,84,1.0,90.0
4099,60.0,20,98,1.0,90.0
4100,53.0,2,97,1.0,78.0
4101,65.0,0,91,1.0,90.0
4102,41.0,0,94,0.0,78.0
4103,53.0,0,96,0.0,88.0
4104,69.0,2,80,1.0,78.0
4105,60.0,1,79,1.0,78.0
4106,65.0,3,91,1.0,90.0
4107,53.0,114,109,1.0,90.0
4108,72.0,152,10,0.0,39.0
4109,74.0,11,7,0.0,45.0
4110,76.0,27,4,0.0,60.0
4111,77.0,10,4,0.0,60.0
4112,79.0,10,4,0.0,60.0
4113,81.0,10,4,0.0,60.0
4114,79.0,2,52,0.0,78.0
4115,74.0,0,53,0.0,78.0
4116,83.0,0,55,0.0,52.0
4117,62.0,1,89,1.0,90.0
4118,67.0,3,84,1.0,90.0
4119,71.0,0,87,1.0,78.0
4120,53.0,17,92,1.0,90.0
4121,53.0,0,114,0.0,88.0
4122,41.0,0,118,0.0,88.0
4123,62.0,1,94,1.0,90.0
4124,67.0,111,113,1.0,90.0
4125,53.0,0,118,1.0,90.0
4126,71.0,1,134,1.0,78.0
4127,74.0,161,19,0.0,88.0
4128,76.0,11,19,0.0,88.0
4129,77.0,14,19,0.0,88.0
4130,79.0,18,19,0.0,88.0
4131,81.0,10,19,0.0,88.0
4132,83.0,10,19,0.0,88.0
4133,40.0,0,52,0.0,88.0
4134,52.0,0,55,0.0,100.0
4135,72.0,0,62,0.0,88.0
4136,79.0,20,71,0.0,88.0
4137,84.0,0,72,0.0,88.0
4138,86.0,0,51,0.0,88.0
4139,83.0,0,52,0.0,88.0
4140,38.0,120,52,0.0,100.0
4141,50.0,0,53,0.0,88.0
4142,79.0,0,57,0.0,78.0
4143,77.0,0,57,0.0,88.0
4144,84.0,120,51,0.0,78.0
4145,88.0,0,55,0.0,88.0
4146,48.0,0,55,0.0,88.0
4147,36.0,0,55,0.0,88.0
4148,79.0,0,56,0.0,88.0
4149,76.0,0,67,0.0,78.0
4150,81.0,0,24,0.0,78.0
4151,77.0,1,27,0.0,78.0
4152,53.0,0,29,0.0,88.0
4153,41.0,0,33,0.0,78.0
4154,72.0,28,35,0.0,45.0
4155,77.0,30,26,0.0,60.0
4156,53.0,0,27,0.0,68.0
4157,41.0,0,28,0.0,60.0
4158,81.0,0,29,0.0,52.0
4159,72.0,30,18,0.0,45.0
4160,69.0,117,115,1.0,90.0
4161,60.0,0,123,1.0,90.0
4162,72.0,2,121,1.0,78.0
4163,83.0,0,21,0.0,88.0
4164,80.0,0,27,0.0,60.0
4165,53.0,2,32,0.0,78.0
4166,41.0,0,33,0.0,68.0
4167,77.0,0,33,0.0,88.0
4168,74.0,30,39,0.0,60.0
4169,53.0,0,29,0.0,68.0
4170,41.0,30,31,0.0,60.0
4171,83.0,0,34,0.0,60.0
4172,77.0,0,40,0.0,60.0
4173,80.0,0,41,0.0,68.0
4174,59.0,0,105,1.0,90.0
4175,74.0,30,15,0.0,45.0
4176,71.0,4,122,1.0,90.0
4177,74.0,24,133,1.0,90.0
4178,53.0,2,255,1.0,90.0
4179,75.0,0,14,0.0,39.0
4180,54.0,2,27,0.0,100.0
4181,42.0,0,29,0.0,88.0
4182,84.0,0,40,0.0,88.0
4183,81.0,0,40,0.0,88.0
4184,72.0,29,12,0.0,39.0
4185,75.0,0,12,0.0,39.0
4186,84.0,0,13,0.0,20.0
4187,81.0,0,13,0.0,34.0
4188,54.0,30,29,0.0,88.0
4189,42.0,0,32,0.0,78.0
4190,72.0,30,12,0.0,39.0
4191,57.0,1,111,1.0,90.0
4192,54.0,0,117,1.0,90.0
4193,72.0,28,119,1.0,78.0
4194,75.0,0,120,1.0,90.0
4195,55.0,1,27,0.0,68.0
4196,76.0,0,31,0.0,68.0
4197,43.0,0,32,0.0,78.0
4198,79.0,0,33,0.0,60.0
4199,84.0,0,36,0.0,78.0
4200,72.0,30,34,0.0,60.0
4201,43.0,0,26,0.0,68.0
4202,76.0,30,27,0.0,45.0
4203,79.0,0,27,0.0,34.0
4204,55.0,0,28,0.0,68.0
4205,84.0,0,31,0.0,45.0
4206,72.0,30,33,0.0,45.0
4207,55.0,0,29,0.0,88.0
4208,79.0,0,31,0.0,45.0
4209,76.0,0,32,0.0,52.0
4210,43.0,0,32,0.0,78.0
4211,84.0,30,37,0.0,52.0
4212,72.0,30,35,0.0,39.0
4213,43.0,0,27,0.0,60.0
4214,55.0,30,27,0.0,78.0
4215,79.0,0,27,0.0,45.0
4216,76.0,0,29,0.0,45.0
4217,84.0,0,29,0.0,52.0
4218,72.0,30,35,0.0,39.0
4219,55.0,30,26,0.0,68.0
4220,43.0,0,29,0.0,68.0
4221,79.0,0,29,0.0,39.0
4222,84.0,0,33,0.0,60.0
4223,76.0,0,36,0.0,52.0
4224,72.0,30,32,0.0,45.0
4225,55.0,0,28,0.0,78.0
4226,43.0,0,28,0.0,68.0
4227,84.0,30,30,0.0,60.0
4228,79.0,0,31,0.0,39.0
4229,76.0,0,39,0.0,39.0
4230,60.0,0,352,1.0,90.0
4231,76.0,27,359,1.0,78.0
4232,72.0,30,27,0.0,45.0
4233,79.0,0,31,0.0,68.0
4234,31.0,4,32,0.0,88.0
4235,83.0,0,32,0.0,68.0
4236,43.0,0,33,0.0,78.0
4237,74.0,30,35,0.0,52.0
4238,43.0,0,26,0.0,68.0
4239,79.0,0,27,0.0,52.0
4240,83.0,30,27,0.0,52.0
4241,31.0,0,28,0.0,68.0
4242,74.0,30,38,0.0,29.0
4243,43.0,30,28,0.0,68.0
4244,83.0,0,29,0.0,52.0
4245,31.0,0,30,0.0,78.0
4246,79.0,0,31,0.0,52.0
4247,74.0,30,31,0.0,45.0
4248,43.0,0,23,0.0,68.0
4249,31.0,0,24,0.0,68.0
4250,83.0,30,26,0.0,52.0
4251,79.0,0,28,0.0,60.0
4252,74.0,30,35,0.0,52.0
4253,43.0,0,22,0.0,68.0
4254,31.0,30,26,0.0,68.0
4255,79.0,0,28,0.0,60.0
4256,83.0,0,30,0.0,60.0
4257,74.0,30,36,0.0,52.0
4258,43.0,0,19,0.0,68.0
4259,31.0,30,26,0.0,60.0
4260,83.0,0,27,0.0,52.0
4261,67.0,2,691,1.0,78.0
4262,79.0,0,33,0.0,60.0
4263,59.0,19,351,1.0,78.0
4264,74.0,30,17,0.0,39.0
4265,55.0,0,716,1.0,78.0
4266,74.0,7,359,1.0,90.0
4267,48.0,3,81,1.0,78.0
4268,79.0,0,80,0.0,68.0
4269,76.0,0,81,0.0,78.0
4270,84.0,0,84,0.0,68.0
4271,60.0,21,95,1.0,78.0
4272,36.0,3,101,0.0,88.0
4273,48.0,0,105,0.0,88.0
4274,72.0,1,111,1.0,78.0
4275,67.0,2,119,1.0,90.0
4276,60.0,92,23,0.0,20.0
4277,48.0,0,25,0.0,34.0
4278,48.0,5,119,1.0,90.0
4279,62.0,0,17,0.0,60.0
4280,50.0,15,22,0.0,60.0
4281,64.0,0,11,0.0,88.0
4282,52.0,7,23,0.0,60.0
4283,52.0,1,101,1.0,78.0
4284,64.0,89,16,0.0,34.0
4285,52.0,0,18,0.0,25.0
4286,65.0,0,19,0.0,45.0
4287,53.0,15,20,0.0,52.0
4288,55.0,13,92,0.0,60.0
4289,55.0,1,120,1.0,78.0
4290,67.0,0,127,0.0,60.0
4291,64.0,101,23,0.0,20.0
4292,52.0,0,127,1.0,78.0
4293,52.0,0,27,0.0,29.0
4294,65.0,0,19,0.0,52.0
4295,53.0,15,22,0.0,39.0
4296,67.0,2,18,0.0,60.0
4297,55.0,2,21,0.0,60.0
4298,55.0,71,21,0.0,45.0
4299,67.0,4,18,0.0,45.0
4300,55.0,4,104,1.0,78.0
4301,57.0,13,23,0.0,60.0
4302,69.0,2,25,0.0,52.0
4303,71.0,0,12,0.0,52.0
4304,59.0,0,23,0.0,60.0
4305,60.0,0,79,0.0,68.0
4306,64.0,0,93,0.0,60.0
4307,72.0,15,107,0.0,88.0
4308,60.0,6,74,0.0,68.0
4309,48.0,0,81,0.0,78.0
4310,72.0,75,15,0.0,39.0
4311,74.0,15,14,0.0,60.0
4312,60.0,1,124,1.0,78.0
4313,64.0,5,20,0.0,34.0
4314,76.0,15,41,0.0,68.0
4315,55.0,0,59,0.0,68.0
4316,43.0,0,75,0.0,78.0
4317,76.0,75,12,0.0,5.0
4318,77.0,15,12,0.0,45.0
4319,64.0,5,111,1.0,78.0
4320,52.0,3,49,0.0,78.0
4321,40.0,0,50,0.0,88.0
4322,67.0,15,83,0.0,68.0
4323,79.0,0,103,0.0,29.0
4324,67.0,3,119,1.0,78.0
4325,55.0,0,53,0.0,78.0
4326,43.0,3,57,0.0,88.0
4327,64.0,2,121,1.0,78.0
4328,76.0,90,32,0.0,45.0
4329,67.0,4,13,0.0,60.0
4330,77.0,15,29,0.0,18.0
4331,79.0,0,29,0.0,60.0
4332,52.0,0,52,0.0,78.0
4333,40.0,0,53,0.0,78.0
4334,67.0,0,96,1.0,78.0
4335,79.0,75,20,0.0,52.0
4336,81.0,15,22,0.0,25.0
4337,60.0,1,360,1.0,90.0
4338,67.0,2,1,1.0,90.0
4339,83.0,15,19,0.0,60.0
4340,48.0,0,47,0.0,78.0
4341,36.0,0,55,0.0,88.0
4342,84.0,2,73,0.0,68.0
4343,72.0,0,77,0.0,60.0
4344,72.0,0,27,0.0,68.0
4345,76.0,0,31,0.0,60.0
4346,79.0,0,31,0.0,68.0
4347,84.0,0,35,0.0,68.0
4348,48.0,0,46,0.0,78.0
4349,36.0,120,48,0.0,78.0
4350,76.0,120,35,0.0,88.0
4351,72.0,0,37,0.0,88.0
4352,84.0,0,39,0.0,88.0
4353,79.0,0,40,0.0,88.0
4354,48.0,0,43,0.0,78.0
4355,36.0,0,47,0.0,88.0
4356,64.0,10,346,1.0,90.0
4357,72.0,1,344,1.0,78.0
4358,60.0,1,93,1.0,90.0
4359,72.0,3,95,1.0,90.0
4360,48.0,1,103,0.0,88.0
4361,36.0,0,106,0.0,88.0
4362,76.0,0,113,0.0,88.0
4363,79.0,0,115,0.0,78.0
4364,72.0,0,116,0.0,88.0
4365,84.0,0,121,0.0,78.0
4366,67.0,119,122,1.0,90.0
4367,64.0,2,131,1.0,90.0
