,note,step,duration,channel,velocity
0,79.0,0,120,0.0,57.0
1,77.0,120,120,0.0,56.0
2,75.0,120,120,0.0,54.0
3,74.0,120,120,0.0,52.0
4,72.0,120,240,0.0,60.0
5,70.0,240,240,0.0,54.0
6,58.0,0,240,0.0,37.0
7,62.0,240,240,0.0,37.0
8,65.0,240,240,0.0,33.0
9,62.0,240,240,0.0,36.0
10,70.0,0,720,0.0,51.0
11,58.0,240,240,0.0,33.0
12,74.0,0,240,0.0,57.0
13,79.0,240,240,0.0,60.0
14,62.0,0,240,0.0,41.0
15,67.0,0,240,0.0,38.0
16,74.0,240,240,0.0,55.0
17,60.0,240,240,0.0,34.0
18,77.0,240,480,0.0,60.0
19,63.0,0,240,0.0,39.0
20,67.0,240,240,0.0,36.0
21,75.0,240,720,0.0,56.0
22,63.0,240,240,0.0,44.0
23,77.0,240,120,0.0,60.0
24,79.0,120,120,0.0,56.0
25,60.0,0,240,0.0,37.0
26,77.0,120,120,0.0,61.0
27,75.0,120,120,0.0,54.0
28,63.0,0,240,0.0,38.0
29,74.0,0,120,0.0,58.0
30,72.0,120,120,0.0,53.0
31,67.0,120,240,0.0,34.0
32,70.0,120,480,0.0,66.0
33,53.0,240,240,0.0,35.0
34,60.0,0,240,0.0,35.0
35,63.0,240,240,0.0,34.0
36,69.0,240,720,0.0,57.0
37,60.0,240,240,0.0,47.0
38,69.0,0,240,0.0,62.0
39,53.0,240,240,0.0,36.0
40,60.0,0,240,0.0,43.0
41,70.0,240,240,0.0,65.0
42,72.0,0,240,0.0,61.0
43,63.0,240,240,0.0,36.0
44,72.0,240,480,0.0,61.0
45,58.0,240,240,0.0,42.0
46,69.0,0,480,0.0,52.0
47,62.0,0,240,0.0,42.0
48,65.0,240,240,0.0,36.0
49,70.0,0,480,0.0,49.0
50,74.0,240,480,0.0,58.0
51,62.0,240,240,0.0,45.0
52,77.0,0,120,0.0,64.0
53,76.0,120,120,0.0,63.0
54,58.0,240,240,0.0,42.0
55,79.0,120,120,0.0,66.0
56,77.0,120,120,0.0,63.0
57,62.0,0,240,0.0,42.0
58,75.0,0,120,0.0,63.0
59,65.0,120,240,0.0,39.0
60,74.0,120,120,0.0,61.0
61,63.0,120,240,0.0,45.0
62,74.0,0,240,0.0,68.0
63,67.0,240,240,0.0,37.0
64,62.0,240,240,0.0,40.0
65,72.0,0,480,0.0,61.0
66,70.0,0,240,0.0,61.0
67,65.0,240,240,0.0,35.0
68,74.0,240,240,0.0,67.0
69,63.0,0,240,0.0,45.0
70,67.0,240,240,0.0,35.0
71,60.0,240,240,0.0,38.0
72,72.0,0,480,0.0,62.0
73,63.0,0,240,0.0,32.0
74,69.0,240,240,0.0,64.0
75,70.0,240,120,0.0,68.0
76,72.0,120,120,0.0,59.0
77,70.0,120,120,0.0,62.0
78,69.0,120,120,0.0,58.0
79,62.0,0,480,0.0,42.0
80,65.0,0,480,0.0,42.0
81,70.0,120,120,0.0,66.0
82,72.0,120,120,0.0,60.0
83,74.0,120,120,0.0,63.0
84,75.0,120,120,0.0,61.0
85,76.0,120,120,0.0,69.0
86,77.0,120,120,0.0,65.0
87,76.0,120,120,0.0,69.0
88,77.0,120,120,0.0,65.0
89,79.0,120,120,0.0,69.0
90,77.0,120,120,0.0,67.0
91,75.0,120,120,0.0,66.0
92,74.0,120,120,0.0,65.0
93,63.0,0,240,0.0,47.0
94,74.0,120,240,0.0,72.0
95,72.0,240,0,0.0,56.0
96,67.0,240,240,0.0,36.0
97,62.0,0,240,0.0,40.0
98,65.0,240,240,0.0,33.0
99,70.0,0,240,0.0,54.0
100,74.0,0,240,0.0,65.0
101,63.0,240,240,0.0,47.0
102,67.0,240,240,0.0,37.0
103,72.0,0,0,0.0,57.0
104,60.0,240,240,0.0,39.0
105,63.0,240,240,0.0,32.0
106,69.0,0,240,0.0,53.0
107,70.0,0,240,0.0,66.0
108,72.0,240,120,0.0,57.0
109,74.0,120,120,0.0,58.0
110,65.0,240,480,0.0,47.0
111,62.0,0,480,0.0,47.0
112,75.0,120,120,0.0,59.0
113,77.0,120,120,0.0,60.0
114,79.0,120,120,0.0,61.0
115,81.0,120,120,0.0,64.0
116,82.0,120,120,0.0,66.0
117,84.0,120,120,0.0,67.0
118,86.0,120,120,0.0,68.0
119,87.0,120,120,0.0,69.0
120,89.0,120,120,0.0,76.0
121,89.0,240,120,0.0,75.0
122,89.0,0,240,0.0,76.0
123,57.0,0,480,0.0,61.0
124,87.0,240,480,0.0,74.0
125,58.0,240,480,0.0,55.0
126,86.0,0,0,0.0,75.0
127,77.0,240,1200,0.0,76.0
128,84.0,0,120,0.0,64.0
129,75.0,240,120,0.0,64.0
130,51.0,240,480,0.0,63.0
131,82.0,0,120,0.0,72.0
132,74.0,0,120,0.0,72.0
133,81.0,0,120,0.0,64.0
134,72.0,240,120,0.0,64.0
135,53.0,240,480,0.0,57.0
136,82.0,0,240,0.0,76.0
137,74.0,240,240,0.0,76.0
138,46.0,240,120,0.0,52.0
139,50.0,240,120,0.0,55.0
140,70.0,0,240,0.0,72.0
141,53.0,240,120,0.0,50.0
142,58.0,240,480,0.0,61.0
143,67.0,480,120,0.0,52.0
144,65.0,120,120,0.0,49.0
145,63.0,120,120,0.0,52.0
146,62.0,120,120,0.0,50.0
147,60.0,120,240,0.0,56.0
148,46.0,240,240,0.0,34.0
149,58.0,0,0,0.0,53.0
150,50.0,240,240,0.0,37.0
151,53.0,240,240,0.0,35.0
152,50.0,240,240,0.0,43.0
153,70.0,240,240,0.0,63.0
154,46.0,0,240,0.0,39.0
155,50.0,240,240,0.0,39.0
156,69.0,0,240,0.0,58.0
157,67.0,240,240,0.0,56.0
158,53.0,0,240,0.0,35.0
159,65.0,240,480,0.0,64.0
160,48.0,240,240,0.0,36.0
161,55.0,0,240,0.0,39.0
162,58.0,240,240,0.0,35.0
163,64.0,240,600,0.0,51.0
164,67.0,120,120,0.0,52.0
165,55.0,240,240,0.0,42.0
166,65.0,120,120,0.0,56.0
167,69.0,120,120,0.0,52.0
168,48.0,0,240,0.0,34.0
169,67.0,120,120,0.0,56.0
170,55.0,0,240,0.0,38.0
171,70.0,120,120,0.0,53.0
172,69.0,0,120,0.0,56.0
173,72.0,120,120,0.0,53.0
174,58.0,120,240,0.0,34.0
175,70.0,120,120,0.0,56.0
176,67.0,120,120,0.0,58.0
177,76.0,120,120,0.0,61.0
178,72.0,120,120,0.0,62.0
179,52.0,0,240,0.0,39.0
180,79.0,120,120,0.0,64.0
181,55.0,0,240,0.0,43.0
182,76.0,120,120,0.0,67.0
183,82.0,120,120,0.0,70.0
184,60.0,0,240,0.0,46.0
185,81.0,120,120,0.0,69.0
186,82.0,0,120,0.0,71.0
187,81.0,120,120,0.0,67.0
188,55.0,120,240,0.0,49.0
189,79.0,0,120,0.0,69.0
190,52.0,120,240,0.0,47.0
191,77.0,120,120,0.0,65.0
192,76.0,0,120,0.0,66.0
193,55.0,120,240,0.0,50.0
194,74.0,120,120,0.0,65.0
195,72.0,120,120,0.0,64.0
196,70.0,120,120,0.0,63.0
197,60.0,0,240,0.0,54.0
198,70.0,120,120,0.0,69.0
199,69.0,120,120,0.0,56.0
200,74.0,120,120,0.0,64.0
201,53.0,0,240,0.0,42.0
202,72.0,120,120,0.0,54.0
203,57.0,120,240,0.0,41.0
204,60.0,240,240,0.0,34.0
205,72.0,0,480,0.0,54.0
206,57.0,240,240,0.0,37.0
207,53.0,240,240,0.0,34.0
208,86.0,240,120,0.0,69.0
209,84.0,120,120,0.0,66.0
210,57.0,0,240,0.0,36.0
211,82.0,0,120,0.0,69.0
212,60.0,120,240,0.0,32.0
213,81.0,120,120,0.0,66.0
214,58.0,0,240,0.0,47.0
215,60.0,240,240,0.0,32.0
216,79.0,120,720,0.0,72.0
217,58.0,240,240,0.0,37.0
218,76.0,240,240,0.0,63.0
219,60.0,0,240,0.0,31.0
220,77.0,0,60,0.0,66.0
221,84.0,120,120,0.0,70.0
222,57.0,240,240,0.0,50.0
223,83.0,120,120,0.0,70.0
224,84.0,120,120,0.0,67.0
225,60.0,0,240,0.0,41.0
226,86.0,120,120,0.0,73.0
227,57.0,0,240,0.0,44.0
228,84.0,120,120,0.0,68.0
229,82.0,0,120,0.0,71.0
230,81.0,120,120,0.0,68.0
231,60.0,120,240,0.0,41.0
232,79.0,120,120,0.0,81.0
233,58.0,0,240,0.0,49.0
234,60.0,0,240,0.0,36.0
235,58.0,240,240,0.0,42.0
236,79.0,240,480,0.0,75.0
237,60.0,240,240,0.0,36.0
238,76.0,0,240,0.0,64.0
239,77.0,0,60,0.0,63.0
240,84.0,120,120,0.0,70.0
241,57.0,240,240,0.0,53.0
242,83.0,120,120,0.0,69.0
243,60.0,0,240,0.0,45.0
244,84.0,120,120,0.0,68.0
245,86.0,120,120,0.0,75.0
246,84.0,120,120,0.0,69.0
247,57.0,0,240,0.0,46.0
248,82.0,0,120,0.0,71.0
249,60.0,120,240,0.0,44.0
250,81.0,120,120,0.0,67.0
251,58.0,120,240,0.0,51.0
252,81.0,0,240,0.0,73.0
253,62.0,240,240,0.0,46.0
254,79.0,0,240,0.0,70.0
255,58.0,240,240,0.0,51.0
256,79.0,240,240,0.0,72.0
257,62.0,0,240,0.0,46.0
258,59.0,0,240,0.0,50.0
259,79.0,240,240,0.0,78.0
260,77.0,240,240,0.0,72.0
261,62.0,0,240,0.0,46.0
262,59.0,240,240,0.0,52.0
263,62.0,240,240,0.0,48.0
264,77.0,0,240,0.0,72.0
265,76.0,0,120,0.0,73.0
266,77.0,120,120,0.0,66.0
267,76.0,120,120,0.0,68.0
268,72.0,120,120,0.0,65.0
269,60.0,240,480,0.0,59.0
270,77.0,120,120,0.0,75.0
271,79.0,120,120,0.0,68.0
272,77.0,120,120,0.0,68.0
273,72.0,120,120,0.0,65.0
274,62.0,0,480,0.0,61.0
275,79.0,0,120,0.0,80.0
276,81.0,120,120,0.0,68.0
277,79.0,120,120,0.0,72.0
278,72.0,120,120,0.0,67.0
279,64.0,120,480,0.0,63.0
280,81.0,120,120,0.0,81.0
281,82.0,120,120,0.0,74.0
282,81.0,120,120,0.0,76.0
283,72.0,120,120,0.0,69.0
284,65.0,0,480,0.0,65.0
285,82.0,0,120,0.0,85.0
286,67.0,120,240,0.0,65.0
287,82.0,0,120,0.0,83.0
288,72.0,240,240,0.0,53.0
289,64.0,240,240,0.0,60.0
290,79.0,0,120,0.0,77.0
291,72.0,240,240,0.0,53.0
292,65.0,0,240,0.0,59.0
293,82.0,240,240,0.0,81.0
294,81.0,0,120,0.0,71.0
295,72.0,240,240,0.0,50.0
296,79.0,0,120,0.0,76.0
297,62.0,240,240,0.0,56.0
298,77.0,240,120,0.0,73.0
299,72.0,0,240,0.0,52.0
300,76.0,240,120,0.0,78.0
301,72.0,120,120,0.0,72.0
302,83.0,120,120,0.0,72.0
303,84.0,120,120,0.0,68.0
304,60.0,0,480,0.0,60.0
305,77.0,120,120,0.0,80.0
306,72.0,120,120,0.0,73.0
307,83.0,120,120,0.0,73.0
308,62.0,0,480,0.0,62.0
309,84.0,120,120,0.0,69.0
310,79.0,0,120,0.0,81.0
311,72.0,120,120,0.0,76.0
312,83.0,120,120,0.0,76.0
313,64.0,120,480,0.0,65.0
314,84.0,120,120,0.0,73.0
315,81.0,0,120,0.0,84.0
316,72.0,120,120,0.0,76.0
317,83.0,120,120,0.0,76.0
318,84.0,120,120,0.0,75.0
319,65.0,120,480,0.0,68.0
320,82.0,0,120,0.0,89.0
321,67.0,120,120,0.0,66.0
322,72.0,120,120,0.0,44.0
323,82.0,120,120,0.0,84.0
324,71.0,0,120,0.0,47.0
325,72.0,120,120,0.0,44.0
326,64.0,120,120,0.0,57.0
327,72.0,120,120,0.0,45.0
328,81.0,120,60,0.0,69.0
329,71.0,0,120,0.0,48.0
330,79.0,60,60,0.0,66.0
331,78.0,0,60,0.0,69.0
332,72.0,60,120,0.0,44.0
333,79.0,60,60,0.0,67.0
334,65.0,60,120,0.0,57.0
335,82.0,0,240,0.0,79.0
336,72.0,120,120,0.0,44.0
337,81.0,120,120,0.0,76.0
338,71.0,0,120,0.0,46.0
339,72.0,120,120,0.0,44.0
340,62.0,120,120,0.0,56.0
341,79.0,0,120,0.0,76.0
342,71.0,120,120,0.0,45.0
343,77.0,120,120,0.0,75.0
344,69.0,0,120,0.0,45.0
345,71.0,120,120,0.0,43.0
346,76.0,0,120,0.0,79.0
347,84.0,120,120,0.0,71.0
348,79.0,120,120,0.0,72.0
349,60.0,120,480,0.0,56.0
350,76.0,120,120,0.0,70.0
351,72.0,120,0,0.0,76.0
352,67.0,120,120,0.0,69.0
353,64.0,120,120,0.0,71.0
354,60.0,120,120,0.0,70.0
355,36.0,0,240,0.0,73.0
356,48.0,120,240,0.0,73.0
357,72.0,0,720,0.0,70.0
358,69.0,0,720,0.0,70.0
359,65.0,0,720,0.0,70.0
360,60.0,0,720,0.0,70.0
361,74.0,720,120,0.0,48.0
362,41.0,0,960,0.0,66.0
363,72.0,120,120,0.0,48.0
364,53.0,960,960,0.0,66.0
365,70.0,120,120,0.0,52.0
366,69.0,240,120,0.0,48.0
367,67.0,240,120,0.0,48.0
368,65.0,240,120,0.0,48.0
369,65.0,240,240,0.0,54.0
370,74.0,240,240,0.0,50.0
371,65.0,240,720,0.0,72.0
372,74.0,0,720,0.0,72.0
373,46.0,0,960,0.0,68.0
374,58.0,0,960,0.0,68.0
375,72.0,720,240,0.0,53.0
376,76.0,0,240,0.0,56.0
377,57.0,240,480,0.0,44.0
378,77.0,0,0,0.0,61.0
379,59.0,240,480,0.0,38.0
380,62.0,0,480,0.0,38.0
381,67.0,240,480,0.0,53.0
382,69.0,240,240,0.0,53.0
383,60.0,240,480,0.0,38.0
384,77.0,0,240,0.0,61.0
385,62.0,0,480,0.0,38.0
386,59.0,240,480,0.0,38.0
387,67.0,240,480,0.0,53.0
388,60.0,240,480,0.0,40.0
389,69.0,240,240,0.0,53.0
390,62.0,240,480,0.0,39.0
391,72.0,480,0,0.0,52.0
392,70.0,60,60,0.0,48.0
393,72.0,60,60,0.0,52.0
394,70.0,60,60,0.0,48.0
395,72.0,60,60,0.0,52.0
396,70.0,60,60,0.0,48.0
397,69.0,60,60,0.0,52.0
398,64.0,0,480,0.0,35.0
399,70.0,60,60,0.0,49.0
400,69.0,60,120,0.0,57.0
401,69.0,240,240,0.0,53.0
402,65.0,0,480,0.0,35.0
403,70.0,240,240,0.0,56.0
404,72.0,240,240,0.0,53.0
405,73.0,240,240,0.0,65.0
406,46.0,0,240,0.0,45.0
407,74.0,240,480,0.0,54.0
408,50.0,240,240,0.0,46.0
409,72.0,240,120,0.0,54.0
410,70.0,120,120,0.0,50.0
411,55.0,0,240,0.0,45.0
412,69.0,120,240,0.0,54.0
413,58.0,0,480,0.0,52.0
414,67.0,240,240,0.0,53.0
415,69.0,240,240,0.0,54.0
416,70.0,240,240,0.0,52.0
417,74.0,240,240,0.0,63.0
418,45.0,0,240,0.0,44.0
419,48.0,240,240,0.0,44.0
420,72.0,240,480,0.0,53.0
421,70.0,240,120,0.0,54.0
422,69.0,120,120,0.0,52.0
423,53.0,0,240,0.0,42.0
424,67.0,120,240,0.0,56.0
425,65.0,240,240,0.0,54.0
426,57.0,0,480,0.0,52.0
427,67.0,240,240,0.0,54.0
428,69.0,240,240,0.0,54.0
429,72.0,0,240,0.0,63.0
430,55.0,240,480,0.0,44.0
431,70.0,240,480,0.0,51.0
432,67.0,240,240,0.0,51.0
433,52.0,240,480,0.0,41.0
434,70.0,240,240,0.0,62.0
435,53.0,0,480,0.0,43.0
436,69.0,240,480,0.0,52.0
437,65.0,240,240,0.0,52.0
438,50.0,240,480,0.0,42.0
439,64.0,240,120,0.0,61.0
440,65.0,120,120,0.0,53.0
441,64.0,120,120,0.0,53.0
442,65.0,120,120,0.0,50.0
443,48.0,0,480,0.0,44.0
444,71.0,120,120,0.0,59.0
445,72.0,120,120,0.0,54.0
446,71.0,120,120,0.0,54.0
447,72.0,120,120,0.0,51.0
448,48.0,0,120,0.0,53.0
449,50.0,120,120,0.0,49.0
450,46.0,120,120,0.0,54.0
451,48.0,120,120,0.0,49.0
452,60.0,120,480,0.0,56.0
453,45.0,120,120,0.0,54.0
454,46.0,120,120,0.0,49.0
455,43.0,120,120,0.0,56.0
456,45.0,120,120,0.0,49.0
457,41.0,0,480,0.0,66.0
458,72.0,120,720,0.0,71.0
459,69.0,0,720,0.0,71.0
460,74.0,240,120,0.0,51.0
461,53.0,480,480,0.0,46.0
462,72.0,120,120,0.0,51.0
463,70.0,120,120,0.0,57.0
464,69.0,240,120,0.0,50.0
465,67.0,240,120,0.0,50.0
466,65.0,240,120,0.0,50.0
467,65.0,240,240,0.0,54.0
468,74.0,240,240,0.0,50.0
469,65.0,0,720,0.0,71.0
470,74.0,0,720,0.0,71.0
471,58.0,240,960,0.0,59.0
472,46.0,0,960,0.0,59.0
473,72.0,720,240,0.0,53.0
474,76.0,0,240,0.0,66.0
475,57.0,240,480,0.0,43.0
476,77.0,240,480,0.0,63.0
477,67.0,240,240,0.0,53.0
478,62.0,240,480,0.0,43.0
479,59.0,0,480,0.0,43.0
480,69.0,240,240,0.0,53.0
481,60.0,0,480,0.0,43.0
482,77.0,240,480,0.0,69.0
483,59.0,0,480,0.0,43.0
484,67.0,240,240,0.0,53.0
485,62.0,240,480,0.0,43.0
486,69.0,240,240,0.0,53.0
487,77.0,240,120,0.0,69.0
488,60.0,0,480,0.0,43.0
489,62.0,0,480,0.0,43.0
490,65.0,240,480,0.0,43.0
491,72.0,0,480,0.0,54.0
492,71.0,0,240,0.0,53.0
493,70.0,240,240,0.0,53.0
494,64.0,0,480,0.0,43.0
495,67.0,480,480,0.0,43.0
496,69.0,240,120,0.0,48.0
497,69.0,240,240,0.0,54.0
498,65.0,0,480,0.0,46.0
499,70.0,240,240,0.0,60.0
500,72.0,240,240,0.0,64.0
501,73.0,240,240,0.0,75.0
502,50.0,240,240,0.0,54.0
503,62.0,240,120,0.0,61.0
504,74.0,0,480,0.0,70.0
505,76.0,240,120,0.0,70.0
506,60.0,0,120,0.0,53.0
507,78.0,120,120,0.0,67.0
508,58.0,0,120,0.0,60.0
509,79.0,120,120,0.0,70.0
510,81.0,120,120,0.0,67.0
511,82.0,0,120,0.0,70.0
512,46.0,120,240,0.0,53.0
513,81.0,120,120,0.0,67.0
514,58.0,120,120,0.0,61.0
515,79.0,0,120,0.0,70.0
516,81.0,120,120,0.0,67.0
517,77.0,0,120,0.0,70.0
518,57.0,120,120,0.0,53.0
519,79.0,120,120,0.0,67.0
520,76.0,120,120,0.0,71.0
521,55.0,0,240,0.0,57.0
522,77.0,120,120,0.0,66.0
523,74.0,120,120,0.0,71.0
524,76.0,120,120,0.0,67.0
525,53.0,0,240,0.0,53.0
526,72.0,0,120,0.0,70.0
527,52.0,120,240,0.0,53.0
528,74.0,120,120,0.0,65.0
529,70.0,0,120,0.0,68.0
530,72.0,120,120,0.0,61.0
531,48.0,120,240,0.0,53.0
532,69.0,120,120,0.0,66.0
533,70.0,120,120,0.0,64.0
534,72.0,120,120,0.0,68.0
535,53.0,0,480,0.0,60.0
536,74.0,120,120,0.0,64.0
537,76.0,120,120,0.0,71.0
538,77.0,120,120,0.0,68.0
539,76.0,120,120,0.0,71.0
540,77.0,120,120,0.0,68.0
541,45.0,0,480,0.0,56.0
542,79.0,0,120,0.0,72.0
543,77.0,120,120,0.0,70.0
544,76.0,120,120,0.0,69.0
545,46.0,120,480,0.0,59.0
546,74.0,120,120,0.0,67.0
547,76.0,120,120,0.0,72.0
548,74.0,120,120,0.0,70.0
549,72.0,120,120,0.0,69.0
550,70.0,120,120,0.0,67.0
551,58.0,0,480,0.0,53.0
552,69.0,120,480,0.0,71.0
553,60.0,0,480,0.0,54.0
554,69.0,480,60,0.0,58.0
555,67.0,60,60,0.0,51.0
556,69.0,60,60,0.0,58.0
557,67.0,60,60,0.0,52.0
558,69.0,60,60,0.0,58.0
559,67.0,60,60,0.0,53.0
560,65.0,60,60,0.0,66.0
561,64.0,0,480,0.0,58.0
562,67.0,60,60,0.0,62.0
563,48.0,0,480,0.0,53.0
564,53.0,0,120,0.0,53.0
565,60.0,120,120,0.0,46.0
566,59.0,120,120,0.0,49.0
567,65.0,60,480,0.0,75.0
568,60.0,120,120,0.0,46.0
569,62.0,120,120,0.0,53.0
570,60.0,120,120,0.0,46.0
571,59.0,120,120,0.0,49.0
572,60.0,120,120,0.0,46.0
573,58.0,120,120,0.0,53.0
574,60.0,120,120,0.0,50.0
575,57.0,120,120,0.0,53.0
576,58.0,120,120,0.0,49.0
577,55.0,120,120,0.0,53.0
578,60.0,120,120,0.0,50.0
579,53.0,120,120,0.0,53.0
580,60.0,120,120,0.0,50.0
581,52.0,0,120,0.0,48.0
582,82.0,120,240,0.0,96.0
583,60.0,120,120,0.0,42.0
584,55.0,0,120,0.0,42.0
585,79.0,120,120,0.0,62.0
586,60.0,120,120,0.0,40.0
587,76.0,0,120,0.0,66.0
588,58.0,120,120,0.0,48.0
589,60.0,120,120,0.0,42.0
590,58.0,0,120,0.0,42.0
591,76.0,120,120,0.0,62.0
592,60.0,120,120,0.0,41.0
593,52.0,0,120,0.0,47.0
594,60.0,120,120,0.0,43.0
595,82.0,120,240,0.0,96.0
596,79.0,120,120,0.0,59.0
597,58.0,0,120,0.0,43.0
598,60.0,120,120,0.0,42.0
599,58.0,0,120,0.0,48.0
600,76.0,120,120,0.0,63.0
601,60.0,120,120,0.0,42.0
602,58.0,0,120,0.0,42.0
603,76.0,120,120,0.0,60.0
604,60.0,120,120,0.0,42.0
605,57.0,120,120,0.0,44.0
606,77.0,0,120,0.0,62.0
607,60.0,120,120,0.0,45.0
608,52.0,120,120,0.0,45.0
609,79.0,0,120,0.0,63.0
610,60.0,120,120,0.0,45.0
611,53.0,120,120,0.0,46.0
612,81.0,0,120,0.0,64.0
613,60.0,120,120,0.0,47.0
614,55.0,0,120,0.0,48.0
615,82.0,120,120,0.0,66.0
616,60.0,120,120,0.0,49.0
617,56.0,0,120,0.0,53.0
618,83.0,120,240,0.0,93.0
619,60.0,120,120,0.0,48.0
620,57.0,120,120,0.0,53.0
621,84.0,0,240,0.0,75.0
622,60.0,120,120,0.0,46.0
623,56.0,0,120,0.0,53.0
624,83.0,120,240,0.0,93.0
625,60.0,120,120,0.0,46.0
626,57.0,120,120,0.0,53.0
627,84.0,0,240,0.0,75.0
628,60.0,120,120,0.0,47.0
629,52.0,0,120,0.0,48.0
630,82.0,120,240,0.0,95.0
631,60.0,120,120,0.0,38.0
632,55.0,120,120,0.0,42.0
633,79.0,0,120,0.0,62.0
634,60.0,120,120,0.0,39.0
635,58.0,120,120,0.0,48.0
636,76.0,0,120,0.0,67.0
637,60.0,120,120,0.0,39.0
638,58.0,120,120,0.0,42.0
639,76.0,0,120,0.0,62.0
640,60.0,120,120,0.0,40.0
641,52.0,0,120,0.0,47.0
642,60.0,120,120,0.0,41.0
643,82.0,120,240,0.0,97.0
644,79.0,0,120,0.0,59.0
645,58.0,120,120,0.0,43.0
646,60.0,120,120,0.0,40.0
647,76.0,120,120,0.0,65.0
648,58.0,0,120,0.0,48.0
649,60.0,120,120,0.0,38.0
650,76.0,120,120,0.0,60.0
651,58.0,0,120,0.0,42.0
652,60.0,120,120,0.0,40.0
653,57.0,120,120,0.0,44.0
654,77.0,0,120,0.0,62.0
655,60.0,120,120,0.0,43.0
656,52.0,120,120,0.0,45.0
657,79.0,0,120,0.0,63.0
658,60.0,120,120,0.0,45.0
659,81.0,120,120,0.0,64.0
660,53.0,0,120,0.0,46.0
661,60.0,120,120,0.0,45.0
662,55.0,0,120,0.0,48.0
663,82.0,120,120,0.0,66.0
664,60.0,120,120,0.0,47.0
665,56.0,0,120,0.0,53.0
666,83.0,120,240,0.0,93.0
667,60.0,120,120,0.0,48.0
668,57.0,0,120,0.0,53.0
669,60.0,120,120,0.0,46.0
670,84.0,120,240,0.0,75.0
671,56.0,0,120,0.0,53.0
672,83.0,120,240,0.0,93.0
673,60.0,120,120,0.0,46.0
674,57.0,0,120,0.0,53.0
675,84.0,120,240,0.0,75.0
676,60.0,120,120,0.0,47.0
677,58.0,240,240,0.0,36.0
678,57.0,240,240,0.0,38.0
679,58.0,240,240,0.0,36.0
680,74.0,120,960,0.0,78.0
681,86.0,0,960,0.0,78.0
682,60.0,240,240,0.0,34.0
683,59.0,240,240,0.0,38.0
684,60.0,240,240,0.0,33.0
685,64.0,240,960,0.0,64.0
686,76.0,0,960,0.0,64.0
687,61.0,240,240,0.0,34.0
688,59.0,240,240,0.0,36.0
689,82.0,0,960,0.0,71.0
690,70.0,240,960,0.0,71.0
691,61.0,240,240,0.0,34.0
692,62.0,240,240,0.0,38.0
693,61.0,240,240,0.0,40.0
694,62.0,240,240,0.0,38.0
695,69.0,240,960,0.0,66.0
696,81.0,240,0,0.0,75.0
697,79.0,120,120,0.0,68.0
698,82.0,120,120,0.0,72.0
699,81.0,120,120,0.0,68.0
700,84.0,120,120,0.0,74.0
701,82.0,120,120,0.0,72.0
702,81.0,120,120,0.0,71.0
703,67.0,0,480,0.0,54.0
704,79.0,120,120,0.0,69.0
705,58.0,0,480,0.0,54.0
706,69.0,120,480,0.0,54.0
707,77.0,0,480,0.0,72.0
708,60.0,0,960,0.0,54.0
709,76.0,0,480,0.0,63.0
710,70.0,480,480,0.0,45.0
711,77.0,240,240,0.0,45.0
712,76.0,240,240,0.0,49.0
713,69.0,0,0,0.0,36.0
714,77.0,240,240,0.0,45.0
715,65.0,240,0,0.0,30.0
716,75.0,240,240,0.0,45.0
717,74.0,240,240,0.0,50.0
718,75.0,240,240,0.0,46.0
719,74.0,240,240,0.0,54.0
720,86.0,240,240,0.0,67.0
721,86.0,240,120,0.0,63.0
722,60.0,0,960,0.0,36.0
723,57.0,0,960,0.0,30.0
724,54.0,240,960,0.0,30.0
725,86.0,240,240,0.0,61.0
726,74.0,240,240,0.0,51.0
727,74.0,240,120,0.0,47.0
728,55.0,240,960,0.0,30.0
729,58.0,240,0,0.0,35.0
730,72.0,240,240,0.0,49.0
731,84.0,240,240,0.0,62.0
732,84.0,240,120,0.0,57.0
733,55.0,0,960,0.0,29.0
734,52.0,0,960,0.0,29.0
735,84.0,240,240,0.0,56.0
736,72.0,240,240,0.0,48.0
737,72.0,240,120,0.0,45.0
738,57.0,240,960,0.0,35.0
739,53.0,0,960,0.0,29.0
740,73.0,240,240,0.0,46.0
741,74.0,240,240,0.0,50.0
742,76.0,240,240,0.0,54.0
743,77.0,240,240,0.0,49.0
744,47.0,0,480,0.0,32.0
745,55.0,0,480,0.0,32.0
746,65.0,240,480,0.0,45.0
747,57.0,0,480,0.0,36.0
748,69.0,0,240,0.0,42.0
749,67.0,240,240,0.0,42.0
750,48.0,0,960,0.0,36.0
751,58.0,480,480,0.0,35.0
752,64.0,0,480,0.0,42.0
753,57.0,240,120,0.0,43.0
754,53.0,0,120,0.0,43.0
755,65.0,0,120,0.0,45.0
756,65.0,240,120,0.0,47.0
757,69.0,120,120,0.0,45.0
758,67.0,0,120,0.0,47.0
759,70.0,120,120,0.0,45.0
760,64.0,120,240,0.0,35.0
761,69.0,120,120,0.0,47.0
762,63.0,0,240,0.0,35.0
763,72.0,120,120,0.0,45.0
764,62.0,0,120,0.0,43.0
765,53.0,0,120,0.0,43.0
766,70.0,120,120,0.0,48.0
767,65.0,240,120,0.0,52.0
768,69.0,120,120,0.0,48.0
769,67.0,0,120,0.0,52.0
770,64.0,120,240,0.0,35.0
771,70.0,120,120,0.0,48.0
772,69.0,0,120,0.0,52.0
773,63.0,120,240,0.0,35.0
774,72.0,120,120,0.0,48.0
775,62.0,120,120,0.0,42.0
776,53.0,0,120,0.0,42.0
777,70.0,0,120,0.0,52.0
778,65.0,240,120,0.0,48.0
779,69.0,120,120,0.0,50.0
780,67.0,0,120,0.0,52.0
781,70.0,120,120,0.0,53.0
782,64.0,120,240,0.0,43.0
783,69.0,120,120,0.0,54.0
784,63.0,0,240,0.0,43.0
785,72.0,120,120,0.0,57.0
786,70.0,120,120,0.0,58.0
787,74.0,120,120,0.0,60.0
788,62.0,0,240,0.0,47.0
789,72.0,0,120,0.0,61.0
790,57.0,120,240,0.0,44.0
791,75.0,120,120,0.0,63.0
792,74.0,0,120,0.0,64.0
793,77.0,120,120,0.0,65.0
794,58.0,120,240,0.0,46.0
795,76.0,120,120,0.0,67.0
796,55.0,0,240,0.0,44.0
797,79.0,120,120,0.0,69.0
798,77.0,0,120,0.0,70.0
799,79.0,120,120,0.0,72.0
800,81.0,120,120,0.0,75.0
801,79.0,120,120,0.0,75.0
802,57.0,120,480,0.0,52.0
803,77.0,120,120,0.0,73.0
804,75.0,120,120,0.0,72.0
805,74.0,120,120,0.0,71.0
806,73.0,120,120,0.0,70.0
807,74.0,0,120,0.0,72.0
808,72.0,120,120,0.0,69.0
809,70.0,120,120,0.0,71.0
810,69.0,120,120,0.0,68.0
811,58.0,120,480,0.0,49.0
812,67.0,120,120,0.0,70.0
813,65.0,120,120,0.0,67.0
814,63.0,120,120,0.0,69.0
815,62.0,120,120,0.0,65.0
816,60.0,0,120,0.0,68.0
817,48.0,120,240,0.0,48.0
818,65.0,120,120,0.0,65.0
819,69.0,120,120,0.0,68.0
820,72.0,120,120,0.0,65.0
821,53.0,0,240,0.0,44.0
822,77.0,120,120,0.0,72.0
823,57.0,0,240,0.0,44.0
824,69.0,0,120,0.0,59.0
825,65.0,0,120,0.0,59.0
826,53.0,240,240,0.0,41.0
827,72.0,0,240,0.0,64.0
828,69.0,240,240,0.0,64.0
829,48.0,0,240,0.0,49.0
830,67.0,0,120,0.0,60.0
831,70.0,0,120,0.0,60.0
832,55.0,240,240,0.0,43.0
833,69.0,0,120,0.0,61.0
834,65.0,0,120,0.0,61.0
835,58.0,240,240,0.0,45.0
836,64.0,0,120,0.0,58.0
837,67.0,0,120,0.0,58.0
838,55.0,240,240,0.0,43.0
839,57.0,240,120,0.0,51.0
840,65.0,0,120,0.0,61.0
841,53.0,0,120,0.0,51.0
842,77.0,0,120,0.0,47.0
843,81.0,120,120,0.0,45.0
844,65.0,240,240,0.0,35.0
845,79.0,120,120,0.0,47.0
846,82.0,120,120,0.0,45.0
847,64.0,0,240,0.0,35.0
848,81.0,120,120,0.0,47.0
849,63.0,0,240,0.0,32.0
850,84.0,120,120,0.0,45.0
851,82.0,0,120,0.0,48.0
852,53.0,120,120,0.0,43.0
853,62.0,0,120,0.0,43.0
854,77.0,240,120,0.0,54.0
855,81.0,120,120,0.0,50.0
856,65.0,0,240,0.0,32.0
857,79.0,0,120,0.0,54.0
858,64.0,120,240,0.0,35.0
859,82.0,120,120,0.0,51.0
860,81.0,0,120,0.0,54.0
861,63.0,120,240,0.0,33.0
862,84.0,120,120,0.0,50.0
863,82.0,0,120,0.0,54.0
864,62.0,120,120,0.0,42.0
865,53.0,0,120,0.0,42.0
866,77.0,240,120,0.0,55.0
867,65.0,0,240,0.0,35.0
868,81.0,120,120,0.0,56.0
869,79.0,0,120,0.0,58.0
870,82.0,120,120,0.0,59.0
871,64.0,120,240,0.0,43.0
872,81.0,0,120,0.0,61.0
873,84.0,120,120,0.0,63.0
874,63.0,120,240,0.0,43.0
875,82.0,0,120,0.0,64.0
876,77.0,120,120,0.0,67.0
877,62.0,120,240,0.0,47.0
878,84.0,120,120,0.0,68.0
879,57.0,0,240,0.0,44.0
880,77.0,120,120,0.0,69.0
881,86.0,120,120,0.0,70.0
882,58.0,0,240,0.0,46.0
883,77.0,120,120,0.0,72.0
884,88.0,0,120,0.0,74.0
885,55.0,120,240,0.0,44.0
886,77.0,120,120,0.0,75.0
887,89.0,120,120,0.0,78.0
888,88.0,120,120,0.0,78.0
889,86.0,120,120,0.0,77.0
890,84.0,120,120,0.0,75.0
891,45.0,0,480,0.0,62.0
892,57.0,0,480,0.0,62.0
893,82.0,120,120,0.0,74.0
894,81.0,120,120,0.0,73.0
895,79.0,120,120,0.0,72.0
896,77.0,120,120,0.0,71.0
897,86.0,0,120,0.0,79.0
898,84.0,120,120,0.0,75.0
899,82.0,120,120,0.0,78.0
900,81.0,120,120,0.0,77.0
901,58.0,0,480,0.0,63.0
902,46.0,120,480,0.0,63.0
903,79.0,120,120,0.0,75.0
904,77.0,120,120,0.0,71.0
905,76.0,120,120,0.0,73.0
906,74.0,120,120,0.0,70.0
907,48.0,0,120,0.0,48.0
908,57.0,120,120,0.0,40.0
909,72.0,120,240,0.0,78.0
910,84.0,0,120,0.0,75.0
911,53.0,120,120,0.0,44.0
912,57.0,120,120,0.0,41.0
913,48.0,0,120,0.0,48.0
914,84.0,120,120,0.0,78.0
915,57.0,120,120,0.0,40.0
916,53.0,0,120,0.0,44.0
917,84.0,120,120,0.0,77.0
918,57.0,120,120,0.0,40.0
919,48.0,120,120,0.0,48.0
920,84.0,0,120,0.0,75.0
921,57.0,0,120,0.0,42.0
922,81.0,120,120,0.0,72.0
923,53.0,120,120,0.0,46.0
924,77.0,0,120,0.0,70.0
925,72.0,0,120,0.0,70.0
926,57.0,120,120,0.0,42.0
927,77.0,0,120,0.0,75.0
928,48.0,120,120,0.0,48.0
929,57.0,120,120,0.0,43.0
930,72.0,0,120,0.0,73.0
931,69.0,120,120,0.0,70.0
932,53.0,0,120,0.0,46.0
933,65.0,120,120,0.0,70.0
934,57.0,0,120,0.0,43.0
935,69.0,120,80,0.0,51.0
936,48.0,0,120,0.0,48.0
937,67.0,80,80,0.0,46.0
938,58.0,40,120,0.0,40.0
939,69.0,40,80,0.0,51.0
940,67.0,0,80,0.0,46.0
941,52.0,80,120,0.0,43.0
942,69.0,80,80,0.0,51.0
943,58.0,40,120,0.0,40.0
944,67.0,40,80,0.0,46.0
945,69.0,80,80,0.0,51.0
946,48.0,0,120,0.0,48.0
947,67.0,80,80,0.0,46.0
948,69.0,40,80,0.0,51.0
949,58.0,40,120,0.0,42.0
950,67.0,80,80,0.0,46.0
951,52.0,0,120,0.0,43.0
952,69.0,80,80,0.0,51.0
953,67.0,40,80,0.0,46.0
954,58.0,40,120,0.0,42.0
955,69.0,80,80,0.0,51.0
956,48.0,0,120,0.0,48.0
957,67.0,80,80,0.0,46.0
958,58.0,40,120,0.0,41.0
959,69.0,40,80,0.0,51.0
960,67.0,0,80,0.0,48.0
961,52.0,80,120,0.0,43.0
962,69.0,40,0,0.0,47.0
963,58.0,40,120,0.0,41.0
964,69.0,0,0,0.0,51.0
965,67.0,60,60,0.0,48.0
966,48.0,80,120,0.0,48.0
967,69.0,0,60,0.0,51.0
968,67.0,60,60,0.0,47.0
969,58.0,60,120,0.0,42.0
970,69.0,60,60,0.0,51.0
971,67.0,60,60,0.0,48.0
972,52.0,0,120,0.0,45.0
973,65.0,0,60,0.0,62.0
974,58.0,60,120,0.0,42.0
975,67.0,60,60,0.0,58.0
976,65.0,0,0,0.0,44.0
977,53.0,60,240,0.0,51.0
978,77.0,240,240,0.0,54.0
979,64.0,240,240,0.0,44.0
980,77.0,240,240,0.0,53.0
981,65.0,0,240,0.0,44.0
982,76.0,240,240,0.0,51.0
983,67.0,0,240,0.0,45.0
984,77.0,240,240,0.0,58.0
985,65.0,0,240,0.0,48.0
986,64.0,0,240,0.0,51.0
987,79.0,240,240,0.0,60.0
988,81.0,240,240,0.0,66.0
989,63.0,0,240,0.0,54.0
990,82.0,0,120,0.0,70.0
991,62.0,240,240,0.0,59.0
992,84.0,120,120,0.0,68.0
993,86.0,0,120,0.0,72.0
994,53.0,120,240,0.0,45.0
995,84.0,120,120,0.0,67.0
996,82.0,0,120,0.0,70.0
997,80.0,120,120,0.0,67.0
998,61.0,120,240,0.0,53.0
999,79.0,120,120,0.0,68.0
1000,77.0,120,120,0.0,65.0
1001,53.0,0,240,0.0,45.0
1002,76.0,120,120,0.0,67.0
1003,60.0,0,240,0.0,52.0
1004,77.0,120,120,0.0,68.0
1005,79.0,120,120,0.0,69.0
1006,77.0,120,120,0.0,68.0
1007,53.0,0,240,0.0,44.0
1008,76.0,120,120,0.0,67.0
1009,64.0,0,240,0.0,50.0
1010,74.0,120,120,0.0,65.0
1011,72.0,0,120,0.0,64.0
1012,70.0,120,120,0.0,63.0
1013,53.0,120,240,0.0,44.0
1014,65.0,120,120,0.0,53.0
1015,69.0,0,120,0.0,62.0
1016,69.0,240,120,0.0,49.0
1017,53.0,0,240,0.0,41.0
1018,52.0,240,240,0.0,41.0
1019,53.0,0,240,0.0,41.0
1020,65.0,240,240,0.0,53.0
1021,64.0,0,240,0.0,49.0
1022,55.0,240,240,0.0,45.0
1023,53.0,240,240,0.0,43.0
1024,65.0,0,240,0.0,49.0
1025,52.0,240,240,0.0,43.0
1026,67.0,0,240,0.0,49.0
1027,51.0,0,240,0.0,43.0
1028,69.0,240,240,0.0,49.0
1029,70.0,0,120,0.0,52.0
1030,72.0,240,60,0.0,52.0
1031,70.0,60,60,0.0,49.0
1032,69.0,60,60,0.0,52.0
1033,50.0,240,480,0.0,45.0
1034,70.0,60,60,0.0,49.0
1035,72.0,60,240,0.0,58.0
1036,74.0,240,240,0.0,59.0
1037,46.0,0,480,0.0,35.0
1038,70.0,240,240,0.0,50.0
1039,74.0,0,240,0.0,50.0
1040,48.0,240,0,0.0,35.0
1041,72.0,0,240,0.0,46.0
1042,69.0,240,240,0.0,46.0
1043,64.0,240,240,0.0,33.0
1044,58.0,0,240,0.0,33.0
1045,53.0,0,480,0.0,37.0
1046,48.0,480,480,0.0,28.0
1047,67.0,0,960,0.0,45.0
1048,58.0,240,960,0.0,45.0
1049,65.0,0,360,0.0,34.0
1050,57.0,0,360,0.0,34.0
1051,41.0,480,360,0.0,28.0
1052,79.0,480,120,0.0,57.0
1053,77.0,120,120,0.0,56.0
1054,75.0,120,120,0.0,54.0
1055,74.0,120,120,0.0,52.0
1056,72.0,120,240,0.0,60.0
1057,58.0,240,240,0.0,37.0
1058,70.0,0,0,0.0,51.0
1059,62.0,240,240,0.0,37.0
1060,65.0,240,240,0.0,33.0
1061,62.0,240,240,0.0,38.0
1062,58.0,0,240,0.0,33.0
1063,74.0,240,240,0.0,57.0
1064,62.0,240,240,0.0,41.0
1065,79.0,0,240,0.0,60.0
1066,74.0,0,240,0.0,55.0
1067,67.0,240,240,0.0,38.0
1068,77.0,240,480,0.0,60.0
1069,60.0,240,240,0.0,34.0
1070,63.0,0,240,0.0,39.0
1071,67.0,240,240,0.0,36.0
1072,75.0,240,720,0.0,56.0
1073,63.0,240,240,0.0,44.0
1074,77.0,0,120,0.0,60.0
1075,60.0,240,240,0.0,37.0
1076,79.0,120,120,0.0,56.0
1077,77.0,120,120,0.0,61.0
1078,75.0,120,120,0.0,54.0
1079,63.0,0,240,0.0,38.0
1080,74.0,120,120,0.0,58.0
1081,72.0,120,120,0.0,53.0
1082,67.0,0,240,0.0,34.0
1083,70.0,120,480,0.0,66.0
1084,53.0,240,240,0.0,35.0
1085,60.0,0,240,0.0,35.0
1086,63.0,240,240,0.0,34.0
1087,69.0,240,720,0.0,57.0
1088,60.0,240,240,0.0,47.0
1089,53.0,240,240,0.0,36.0
1090,69.0,0,240,0.0,62.0
1091,60.0,240,240,0.0,43.0
1092,70.0,0,240,0.0,65.0
1093,63.0,240,240,0.0,36.0
1094,72.0,240,0,0.0,61.0
1095,69.0,0,480,0.0,52.0
1096,58.0,240,240,0.0,42.0
1097,62.0,0,240,0.0,42.0
1098,65.0,240,240,0.0,36.0
1099,74.0,0,480,0.0,58.0
1100,70.0,240,480,0.0,49.0
1101,62.0,240,240,0.0,45.0
1102,77.0,240,120,0.0,64.0
1103,58.0,0,240,0.0,42.0
1104,76.0,120,120,0.0,63.0
1105,79.0,0,120,0.0,66.0
1106,77.0,120,120,0.0,63.0
1107,62.0,120,240,0.0,42.0
1108,75.0,120,120,0.0,63.0
1109,65.0,0,240,0.0,39.0
1110,74.0,120,0,0.0,68.0
1111,63.0,0,240,0.0,45.0
1112,67.0,0,240,0.0,37.0
1113,62.0,240,240,0.0,40.0
1114,72.0,240,480,0.0,61.0
1115,65.0,0,240,0.0,35.0
1116,70.0,240,240,0.0,61.0
1117,74.0,240,240,0.0,67.0
1118,63.0,0,240,0.0,45.0
1119,67.0,240,240,0.0,35.0
1120,72.0,0,480,0.0,62.0
1121,60.0,240,240,0.0,38.0
1122,69.0,0,240,0.0,64.0
1123,63.0,240,240,0.0,32.0
1124,70.0,240,120,0.0,68.0
1125,72.0,120,120,0.0,59.0
1126,70.0,120,120,0.0,62.0
1127,69.0,120,120,0.0,58.0
1128,62.0,0,480,0.0,42.0
1129,65.0,0,480,0.0,42.0
1130,70.0,120,120,0.0,66.0
1131,72.0,120,120,0.0,60.0
1132,74.0,120,120,0.0,63.0
1133,75.0,120,120,0.0,61.0
1134,76.0,120,120,0.0,69.0
1135,77.0,120,120,0.0,65.0
1136,76.0,120,120,0.0,69.0
1137,77.0,120,120,0.0,65.0
1138,79.0,120,120,0.0,69.0
1139,77.0,120,120,0.0,67.0
1140,75.0,120,120,0.0,66.0
1141,74.0,120,120,0.0,65.0
1142,63.0,0,240,0.0,47.0
1143,74.0,120,240,0.0,72.0
1144,72.0,0,240,0.0,54.0
1145,67.0,240,240,0.0,36.0
1146,72.0,0,240,0.0,56.0
1147,62.0,240,240,0.0,40.0
1148,70.0,240,240,0.0,54.0
1149,65.0,0,240,0.0,33.0
1150,74.0,240,240,0.0,65.0
1151,63.0,0,240,0.0,47.0
1152,67.0,0,240,0.0,37.0
1153,72.0,240,240,0.0,54.0
1154,60.0,240,240,0.0,39.0
1155,72.0,0,240,0.0,57.0
1156,69.0,240,240,0.0,53.0
1157,63.0,0,240,0.0,32.0
1158,70.0,240,240,0.0,66.0
1159,72.0,240,120,0.0,57.0
1160,74.0,120,120,0.0,58.0
1161,65.0,0,480,0.0,47.0
1162,62.0,0,480,0.0,47.0
1163,75.0,120,120,0.0,59.0
1164,77.0,120,120,0.0,60.0
1165,79.0,120,120,0.0,61.0
1166,81.0,120,120,0.0,64.0
1167,82.0,120,120,0.0,66.0
1168,84.0,120,120,0.0,67.0
1169,86.0,120,120,0.0,68.0
1170,87.0,120,120,0.0,69.0
1171,89.0,120,120,0.0,76.0
1172,89.0,240,120,0.0,75.0
1173,89.0,0,240,0.0,76.0
1174,57.0,0,480,0.0,61.0
1175,87.0,240,480,0.0,74.0
1176,58.0,240,480,0.0,55.0
1177,86.0,240,240,0.0,73.0
1178,86.0,0,240,0.0,75.0
1179,77.0,240,1200,0.0,76.0
1180,75.0,0,120,0.0,64.0
1181,84.0,240,120,0.0,64.0
1182,51.0,240,480,0.0,63.0
1183,74.0,0,120,0.0,72.0
1184,82.0,0,120,0.0,72.0
1185,81.0,240,120,0.0,64.0
1186,72.0,0,120,0.0,64.0
1187,53.0,240,480,0.0,57.0
1188,82.0,240,240,0.0,76.0
1189,74.0,0,240,0.0,76.0
1190,46.0,240,120,0.0,52.0
1191,50.0,0,120,0.0,55.0
1192,70.0,240,240,0.0,72.0
1193,53.0,240,120,0.0,50.0
1194,58.0,240,480,0.0,61.0
1195,67.0,480,120,0.0,52.0
1196,65.0,120,120,0.0,49.0
1197,63.0,120,120,0.0,52.0
1198,62.0,120,120,0.0,50.0
1199,60.0,120,240,0.0,56.0
1200,46.0,240,240,0.0,34.0
1201,58.0,240,0,0.0,53.0
1202,50.0,0,240,0.0,37.0
1203,53.0,240,240,0.0,35.0
1204,50.0,240,240,0.0,43.0
1205,70.0,240,240,0.0,63.0
1206,46.0,0,240,0.0,39.0
1207,50.0,0,240,0.0,39.0
1208,69.0,240,240,0.0,58.0
1209,67.0,0,240,0.0,56.0
1210,53.0,240,240,0.0,35.0
1211,48.0,240,240,0.0,36.0
1212,65.0,240,480,0.0,64.0
1213,55.0,240,240,0.0,39.0
1214,58.0,240,240,0.0,35.0
1215,64.0,0,600,0.0,51.0
1216,67.0,120,120,0.0,52.0
1217,55.0,240,240,0.0,42.0
1218,65.0,120,120,0.0,56.0
1219,48.0,0,240,0.0,34.0
1220,69.0,120,120,0.0,52.0
1221,67.0,120,120,0.0,56.0
1222,55.0,0,240,0.0,38.0
1223,70.0,120,120,0.0,53.0
1224,69.0,120,120,0.0,56.0
1225,58.0,0,240,0.0,34.0
1226,72.0,120,120,0.0,53.0
1227,70.0,120,120,0.0,56.0
1228,67.0,120,120,0.0,58.0
1229,76.0,0,120,0.0,61.0
1230,52.0,120,240,0.0,39.0
1231,72.0,120,120,0.0,62.0
1232,79.0,120,120,0.0,64.0
1233,76.0,120,120,0.0,67.0
1234,55.0,0,240,0.0,43.0
1235,82.0,120,120,0.0,70.0
1236,81.0,120,120,0.0,69.0
1237,60.0,0,240,0.0,46.0
1238,82.0,120,120,0.0,71.0
1239,81.0,120,120,0.0,67.0
1240,55.0,0,240,0.0,49.0
1241,79.0,0,120,0.0,69.0
1242,77.0,120,120,0.0,65.0
1243,52.0,120,240,0.0,47.0
1244,76.0,120,120,0.0,66.0
1245,55.0,0,240,0.0,50.0
1246,74.0,120,120,0.0,65.0
1247,72.0,120,120,0.0,64.0
1248,70.0,120,0,0.0,69.0
1249,60.0,0,240,0.0,54.0
1250,69.0,120,120,0.0,56.0
1251,74.0,120,120,0.0,64.0
1252,72.0,120,0,0.0,54.0
1253,53.0,0,240,0.0,42.0
1254,57.0,0,240,0.0,41.0
1255,60.0,240,240,0.0,34.0
1256,57.0,240,240,0.0,37.0
1257,53.0,240,240,0.0,34.0
1258,86.0,240,120,0.0,69.0
1259,57.0,0,240,0.0,36.0
1260,84.0,120,120,0.0,66.0
1261,82.0,120,120,0.0,69.0
1262,81.0,120,120,0.0,66.0
1263,60.0,0,240,0.0,32.0
1264,58.0,0,240,0.0,47.0
1265,60.0,240,240,0.0,32.0
1266,79.0,120,720,0.0,72.0
1267,58.0,240,240,0.0,37.0
1268,76.0,240,240,0.0,63.0
1269,60.0,0,240,0.0,31.0
1270,77.0,0,60,0.0,66.0
1271,84.0,120,120,0.0,70.0
1272,57.0,240,240,0.0,50.0
1273,83.0,120,120,0.0,70.0
1274,60.0,0,240,0.0,41.0
1275,84.0,120,120,0.0,67.0
1276,86.0,0,120,0.0,73.0
1277,57.0,120,240,0.0,44.0
1278,84.0,120,120,0.0,68.0
1279,82.0,0,120,0.0,71.0
1280,81.0,120,120,0.0,68.0
1281,60.0,120,240,0.0,41.0
1282,79.0,0,120,0.0,81.0
1283,58.0,120,240,0.0,49.0
1284,60.0,240,240,0.0,36.0
1285,58.0,240,240,0.0,42.0
1286,79.0,0,480,0.0,75.0
1287,60.0,240,240,0.0,36.0
1288,76.0,0,240,0.0,64.0
1289,77.0,240,60,0.0,63.0
1290,57.0,0,240,0.0,53.0
1291,84.0,120,120,0.0,70.0
1292,83.0,0,120,0.0,69.0
1293,84.0,120,120,0.0,68.0
1294,60.0,120,240,0.0,45.0
1295,86.0,0,120,0.0,75.0
1296,84.0,120,120,0.0,69.0
1297,57.0,120,240,0.0,46.0
1298,82.0,120,120,0.0,71.0
1299,60.0,0,240,0.0,44.0
1300,81.0,120,0,0.0,73.0
1301,58.0,0,240,0.0,51.0
1302,79.0,240,240,0.0,70.0
1303,62.0,0,240,0.0,46.0
1304,58.0,240,240,0.0,51.0
1305,62.0,0,240,0.0,46.0
1306,79.0,0,0,0.0,78.0
1307,59.0,240,240,0.0,50.0
1308,62.0,240,240,0.0,46.0
1309,77.0,0,240,0.0,72.0
1310,59.0,240,240,0.0,52.0
1311,77.0,240,240,0.0,72.0
1312,62.0,0,240,0.0,48.0
1313,76.0,240,120,0.0,73.0
1314,77.0,120,120,0.0,66.0
1315,76.0,120,120,0.0,68.0
1316,60.0,0,480,0.0,59.0
1317,72.0,120,120,0.0,65.0
1318,77.0,120,120,0.0,75.0
1319,79.0,120,120,0.0,68.0
1320,77.0,120,120,0.0,68.0
1321,62.0,0,480,0.0,61.0
1322,72.0,120,120,0.0,65.0
1323,79.0,120,120,0.0,80.0
1324,81.0,120,120,0.0,68.0
1325,79.0,120,120,0.0,72.0
1326,72.0,120,120,0.0,67.0
1327,64.0,0,480,0.0,63.0
1328,81.0,120,120,0.0,81.0
1329,82.0,120,120,0.0,74.0
1330,81.0,120,120,0.0,76.0
1331,72.0,120,120,0.0,69.0
1332,65.0,0,480,0.0,65.0
1333,82.0,120,120,0.0,85.0
1334,67.0,0,240,0.0,65.0
1335,82.0,0,120,0.0,83.0
1336,72.0,240,240,0.0,53.0
1337,64.0,240,240,0.0,60.0
1338,79.0,0,120,0.0,77.0
1339,72.0,240,240,0.0,53.0
1340,82.0,240,240,0.0,81.0
1341,65.0,0,240,0.0,59.0
1342,81.0,240,120,0.0,71.0
1343,72.0,0,240,0.0,50.0
1344,79.0,240,120,0.0,76.0
1345,62.0,0,240,0.0,56.0
1346,77.0,240,120,0.0,73.0
1347,72.0,0,240,0.0,52.0
1348,76.0,0,120,0.0,78.0
1349,72.0,120,120,0.0,72.0
1350,83.0,120,120,0.0,72.0
1351,60.0,240,480,0.0,60.0
1352,84.0,120,120,0.0,68.0
1353,77.0,0,120,0.0,80.0
1354,72.0,120,120,0.0,73.0
1355,83.0,120,120,0.0,73.0
1356,62.0,120,480,0.0,62.0
1357,84.0,120,120,0.0,69.0
1358,79.0,0,120,0.0,81.0
1359,72.0,120,120,0.0,76.0
1360,83.0,120,120,0.0,76.0
1361,84.0,120,120,0.0,73.0
1362,64.0,120,480,0.0,65.0
1363,81.0,120,120,0.0,84.0
1364,72.0,120,120,0.0,76.0
1365,83.0,120,120,0.0,76.0
1366,84.0,120,120,0.0,75.0
1367,65.0,0,480,0.0,68.0
1368,67.0,120,120,0.0,66.0
1369,82.0,0,120,0.0,89.0
1370,72.0,120,120,0.0,44.0
1371,82.0,120,120,0.0,84.0
1372,71.0,0,120,0.0,47.0
1373,72.0,120,120,0.0,44.0
1374,64.0,120,120,0.0,57.0
1375,72.0,120,120,0.0,45.0
1376,81.0,0,60,0.0,69.0
1377,79.0,60,60,0.0,66.0
1378,71.0,120,120,0.0,48.0
1379,78.0,0,60,0.0,69.0
1380,79.0,60,60,0.0,67.0
1381,72.0,60,120,0.0,44.0
1382,65.0,0,120,0.0,57.0
1383,72.0,120,120,0.0,44.0
1384,82.0,60,240,0.0,79.0
1385,81.0,120,120,0.0,76.0
1386,71.0,0,120,0.0,46.0
1387,72.0,120,120,0.0,44.0
1388,62.0,120,120,0.0,56.0
1389,79.0,0,120,0.0,76.0
1390,71.0,120,120,0.0,45.0
1391,77.0,0,120,0.0,75.0
1392,69.0,120,120,0.0,45.0
1393,71.0,120,120,0.0,43.0
1394,76.0,0,120,0.0,79.0
1395,84.0,120,120,0.0,71.0
1396,79.0,120,120,0.0,72.0
1397,60.0,120,480,0.0,56.0
1398,76.0,120,120,0.0,70.0
1399,72.0,120,0,0.0,76.0
1400,67.0,120,120,0.0,69.0
1401,64.0,120,120,0.0,71.0
1402,60.0,120,120,0.0,70.0
1403,48.0,0,240,0.0,73.0
1404,36.0,120,240,0.0,73.0
1405,69.0,960,720,0.0,70.0
1406,72.0,0,720,0.0,70.0
1407,60.0,0,720,0.0,70.0
1408,65.0,0,720,0.0,70.0
1409,74.0,720,120,0.0,48.0
1410,41.0,0,960,0.0,66.0
1411,53.0,0,960,0.0,66.0
1412,72.0,120,120,0.0,48.0
1413,70.0,120,120,0.0,52.0
1414,69.0,240,120,0.0,48.0
1415,67.0,240,120,0.0,48.0
1416,65.0,240,120,0.0,48.0
1417,65.0,240,240,0.0,54.0
1418,74.0,240,240,0.0,50.0
1419,65.0,0,720,0.0,72.0
1420,74.0,0,720,0.0,72.0
1421,72.0,720,240,0.0,53.0
1422,58.0,240,960,0.0,68.0
1423,46.0,0,960,0.0,68.0
1424,76.0,240,240,0.0,56.0
1425,77.0,240,240,0.0,53.0
1426,57.0,0,480,0.0,44.0
1427,77.0,0,240,0.0,61.0
1428,59.0,0,480,0.0,38.0
1429,62.0,240,480,0.0,38.0
1430,67.0,240,480,0.0,53.0
1431,60.0,240,480,0.0,38.0
1432,69.0,240,240,0.0,53.0
1433,77.0,240,240,0.0,61.0
1434,62.0,0,480,0.0,38.0
1435,59.0,0,480,0.0,38.0
1436,67.0,240,480,0.0,53.0
1437,60.0,240,480,0.0,40.0
1438,69.0,240,240,0.0,53.0
1439,72.0,240,480,0.0,58.0
1440,62.0,0,480,0.0,39.0
1441,72.0,0,60,0.0,52.0
1442,70.0,60,60,0.0,48.0
1443,72.0,60,60,0.0,52.0
1444,70.0,60,60,0.0,48.0
1445,72.0,60,60,0.0,52.0
1446,70.0,60,60,0.0,48.0
1447,69.0,60,60,0.0,52.0
1448,70.0,60,60,0.0,49.0
1449,64.0,480,480,0.0,35.0
1450,69.0,60,120,0.0,57.0
1451,65.0,0,480,0.0,35.0
1452,69.0,240,240,0.0,53.0
1453,70.0,240,240,0.0,56.0
1454,72.0,240,240,0.0,53.0
1455,73.0,240,240,0.0,65.0
1456,46.0,0,240,0.0,45.0
1457,74.0,240,480,0.0,54.0
1458,50.0,240,240,0.0,46.0
1459,72.0,0,120,0.0,54.0
1460,55.0,240,240,0.0,45.0
1461,70.0,120,120,0.0,50.0
1462,69.0,0,240,0.0,54.0
1463,58.0,120,480,0.0,52.0
1464,67.0,240,240,0.0,53.0
1465,69.0,240,240,0.0,54.0
1466,70.0,240,240,0.0,52.0
1467,74.0,240,240,0.0,63.0
1468,45.0,0,240,0.0,44.0
1469,48.0,240,240,0.0,44.0
1470,72.0,240,480,0.0,53.0
1471,70.0,0,120,0.0,54.0
1472,53.0,240,240,0.0,42.0
1473,69.0,120,120,0.0,52.0
1474,67.0,120,240,0.0,56.0
1475,65.0,240,240,0.0,54.0
1476,57.0,0,480,0.0,52.0
1477,67.0,240,240,0.0,54.0
1478,69.0,240,240,0.0,54.0
1479,72.0,0,240,0.0,63.0
1480,55.0,240,480,0.0,44.0
1481,70.0,240,480,0.0,51.0
1482,52.0,240,480,0.0,41.0
1483,67.0,240,240,0.0,51.0
1484,70.0,240,240,0.0,62.0
1485,53.0,0,480,0.0,43.0
1486,69.0,240,480,0.0,52.0
1487,50.0,240,480,0.0,42.0
1488,65.0,240,240,0.0,52.0
1489,64.0,0,120,0.0,61.0
1490,65.0,120,120,0.0,53.0
1491,64.0,120,120,0.0,53.0
1492,65.0,120,120,0.0,50.0
1493,48.0,240,480,0.0,44.0
1494,71.0,120,120,0.0,59.0
1495,72.0,120,120,0.0,54.0
1496,71.0,120,120,0.0,54.0
1497,72.0,120,120,0.0,51.0
1498,48.0,120,120,0.0,53.0
1499,50.0,120,120,0.0,49.0
1500,46.0,120,120,0.0,54.0
1501,48.0,120,120,0.0,49.0
1502,60.0,0,480,0.0,56.0
1503,45.0,120,120,0.0,54.0
1504,46.0,120,120,0.0,49.0
1505,43.0,120,120,0.0,56.0
1506,45.0,120,120,0.0,49.0
1507,41.0,0,480,0.0,66.0
1508,69.0,120,720,0.0,71.0
1509,72.0,0,720,0.0,71.0
1510,74.0,240,120,0.0,51.0
1511,72.0,120,120,0.0,51.0
1512,53.0,480,480,0.0,46.0
1513,70.0,120,120,0.0,57.0
1514,69.0,240,120,0.0,50.0
1515,67.0,240,120,0.0,50.0
1516,65.0,240,120,0.0,50.0
1517,65.0,240,240,0.0,54.0
1518,74.0,240,0,0.0,71.0
1519,65.0,0,720,0.0,71.0
1520,72.0,720,240,0.0,53.0
1521,58.0,0,960,0.0,59.0
1522,46.0,0,960,0.0,59.0
1523,76.0,240,240,0.0,66.0
1524,57.0,0,480,0.0,43.0
1525,77.0,240,480,0.0,63.0
1526,59.0,240,480,0.0,43.0
1527,62.0,0,480,0.0,43.0
1528,67.0,240,240,0.0,53.0
1529,69.0,0,240,0.0,53.0
1530,60.0,240,480,0.0,43.0
1531,77.0,240,480,0.0,69.0
1532,59.0,240,480,0.0,43.0
1533,67.0,240,240,0.0,53.0
1534,62.0,0,480,0.0,43.0
1535,69.0,0,240,0.0,53.0
1536,77.0,240,120,0.0,69.0
1537,60.0,240,480,0.0,43.0
1538,72.0,0,480,0.0,54.0
1539,62.0,240,480,0.0,43.0
1540,65.0,0,480,0.0,43.0
1541,71.0,480,240,0.0,53.0
1542,70.0,240,240,0.0,53.0
1543,64.0,0,480,0.0,43.0
1544,67.0,0,480,0.0,43.0
1545,69.0,240,120,0.0,48.0
1546,69.0,240,240,0.0,54.0
1547,65.0,0,480,0.0,46.0
1548,70.0,240,240,0.0,60.0
1549,72.0,240,240,0.0,64.0
1550,73.0,240,240,0.0,75.0
1551,50.0,0,240,0.0,54.0
1552,62.0,240,120,0.0,61.0
1553,74.0,240,480,0.0,70.0
1554,60.0,0,120,0.0,53.0
1555,76.0,240,120,0.0,70.0
1556,78.0,120,120,0.0,67.0
1557,79.0,0,120,0.0,70.0
1558,58.0,120,120,0.0,60.0
1559,81.0,120,120,0.0,67.0
1560,82.0,120,120,0.0,70.0
1561,46.0,0,240,0.0,53.0
1562,81.0,120,120,0.0,67.0
1563,79.0,120,120,0.0,70.0
1564,58.0,0,120,0.0,61.0
1565,81.0,120,120,0.0,67.0
1566,57.0,0,120,0.0,53.0
1567,77.0,120,120,0.0,70.0
1568,79.0,120,120,0.0,67.0
1569,76.0,0,120,0.0,71.0
1570,55.0,120,240,0.0,57.0
1571,77.0,120,120,0.0,66.0
1572,74.0,120,120,0.0,71.0
1573,76.0,120,120,0.0,67.0
1574,53.0,0,240,0.0,53.0
1575,72.0,0,120,0.0,70.0
1576,52.0,120,240,0.0,53.0
1577,74.0,120,120,0.0,65.0
1578,70.0,120,120,0.0,68.0
1579,48.0,0,240,0.0,53.0
1580,72.0,120,120,0.0,61.0
1581,69.0,0,120,0.0,66.0
1582,70.0,120,120,0.0,64.0
1583,72.0,120,120,0.0,68.0
1584,53.0,120,480,0.0,60.0
1585,74.0,120,120,0.0,64.0
1586,76.0,120,120,0.0,71.0
1587,77.0,120,120,0.0,68.0
1588,76.0,120,120,0.0,71.0
1589,77.0,120,120,0.0,68.0
1590,45.0,0,480,0.0,56.0
1591,79.0,0,120,0.0,72.0
1592,77.0,120,120,0.0,70.0
1593,76.0,120,120,0.0,69.0
1594,46.0,120,480,0.0,59.0
1595,74.0,120,120,0.0,67.0
1596,76.0,120,120,0.0,72.0
1597,74.0,120,120,0.0,70.0
1598,72.0,120,120,0.0,69.0
1599,70.0,120,120,0.0,67.0
1600,58.0,0,480,0.0,53.0
1601,69.0,0,0,0.0,58.0
1602,60.0,0,480,0.0,54.0
1603,67.0,60,60,0.0,51.0
1604,69.0,60,60,0.0,58.0
1605,67.0,60,60,0.0,52.0
1606,69.0,60,60,0.0,58.0
1607,67.0,60,60,0.0,53.0
1608,65.0,60,60,0.0,66.0
1609,48.0,480,480,0.0,53.0
1610,64.0,0,480,0.0,58.0
1611,67.0,60,60,0.0,62.0
1612,53.0,60,120,0.0,53.0
1613,60.0,120,120,0.0,46.0
1614,59.0,120,120,0.0,49.0
1615,65.0,0,480,0.0,75.0
1616,60.0,120,120,0.0,46.0
1617,62.0,120,120,0.0,53.0
1618,60.0,120,120,0.0,46.0
1619,59.0,120,120,0.0,49.0
1620,60.0,120,120,0.0,46.0
1621,58.0,120,120,0.0,53.0
1622,60.0,120,120,0.0,50.0
1623,57.0,120,120,0.0,53.0
1624,58.0,120,120,0.0,49.0
1625,55.0,120,120,0.0,53.0
1626,60.0,120,120,0.0,50.0
1627,53.0,120,120,0.0,53.0
1628,60.0,120,120,0.0,50.0
1629,52.0,120,120,0.0,48.0
1630,60.0,120,120,0.0,42.0
1631,82.0,0,240,0.0,96.0
1632,79.0,0,120,0.0,62.0
1633,55.0,120,120,0.0,42.0
1634,60.0,120,120,0.0,40.0
1635,76.0,0,120,0.0,66.0
1636,58.0,120,120,0.0,48.0
1637,60.0,120,120,0.0,42.0
1638,58.0,0,120,0.0,42.0
1639,76.0,120,120,0.0,62.0
1640,60.0,120,120,0.0,41.0
1641,52.0,120,120,0.0,47.0
1642,60.0,120,120,0.0,43.0
1643,82.0,0,240,0.0,96.0
1644,58.0,120,120,0.0,43.0
1645,79.0,0,120,0.0,59.0
1646,60.0,120,120,0.0,42.0
1647,76.0,120,120,0.0,63.0
1648,58.0,0,120,0.0,48.0
1649,60.0,120,120,0.0,42.0
1650,58.0,120,120,0.0,42.0
1651,76.0,0,120,0.0,60.0
1652,60.0,120,120,0.0,42.0
1653,77.0,0,120,0.0,62.0
1654,57.0,120,120,0.0,44.0
1655,60.0,120,120,0.0,45.0
1656,79.0,0,120,0.0,63.0
1657,52.0,120,120,0.0,45.0
1658,60.0,120,120,0.0,45.0
1659,81.0,120,120,0.0,64.0
1660,53.0,0,120,0.0,46.0
1661,60.0,120,120,0.0,47.0
1662,55.0,0,120,0.0,48.0
1663,82.0,120,120,0.0,66.0
1664,60.0,120,120,0.0,49.0
1665,56.0,120,120,0.0,53.0
1666,83.0,0,240,0.0,93.0
1667,60.0,120,120,0.0,48.0
1668,57.0,120,120,0.0,53.0
1669,60.0,120,120,0.0,46.0
1670,84.0,0,240,0.0,75.0
1671,56.0,120,120,0.0,53.0
1672,83.0,0,240,0.0,93.0
1673,60.0,120,120,0.0,46.0
1674,57.0,0,120,0.0,53.0
1675,84.0,120,240,0.0,75.0
1676,60.0,120,120,0.0,47.0
1677,52.0,0,120,0.0,48.0
1678,60.0,120,120,0.0,38.0
1679,82.0,120,240,0.0,95.0
1680,79.0,0,120,0.0,62.0
1681,55.0,120,120,0.0,42.0
1682,60.0,120,120,0.0,39.0
1683,76.0,120,120,0.0,67.0
1684,58.0,0,120,0.0,48.0
1685,60.0,120,120,0.0,39.0
1686,76.0,0,120,0.0,62.0
1687,58.0,120,120,0.0,42.0
1688,60.0,120,120,0.0,40.0
1689,52.0,0,120,0.0,47.0
1690,60.0,120,120,0.0,41.0
1691,82.0,120,240,0.0,97.0
1692,58.0,0,120,0.0,43.0
1693,79.0,120,120,0.0,59.0
1694,60.0,120,120,0.0,40.0
1695,76.0,0,120,0.0,65.0
1696,58.0,120,120,0.0,48.0
1697,60.0,120,120,0.0,38.0
1698,76.0,0,120,0.0,60.0
1699,58.0,120,120,0.0,42.0
1700,60.0,120,120,0.0,40.0
1701,77.0,0,120,0.0,62.0
1702,57.0,120,120,0.0,44.0
1703,60.0,120,120,0.0,43.0
1704,79.0,120,120,0.0,63.0
1705,52.0,0,120,0.0,45.0
1706,60.0,120,120,0.0,45.0
1707,81.0,120,120,0.0,64.0
1708,53.0,0,120,0.0,46.0
1709,60.0,120,120,0.0,45.0
1710,82.0,120,120,0.0,66.0
1711,55.0,0,120,0.0,48.0
1712,60.0,120,120,0.0,47.0
1713,56.0,0,120,0.0,53.0
1714,83.0,120,240,0.0,93.0
1715,60.0,120,120,0.0,48.0
1716,57.0,0,120,0.0,53.0
1717,60.0,120,120,0.0,46.0
1718,84.0,120,240,0.0,75.0
1719,56.0,120,120,0.0,53.0
1720,60.0,120,120,0.0,46.0
1721,83.0,0,240,0.0,93.0
1722,57.0,120,120,0.0,53.0
1723,60.0,120,120,0.0,47.0
1724,84.0,0,240,0.0,75.0
1725,58.0,240,240,0.0,36.0
1726,57.0,240,240,0.0,38.0
1727,86.0,0,960,0.0,78.0
1728,74.0,120,960,0.0,78.0
1729,58.0,240,240,0.0,36.0
1730,60.0,240,240,0.0,34.0
1731,59.0,240,240,0.0,38.0
1732,60.0,240,240,0.0,33.0
1733,64.0,240,960,0.0,64.0
1734,76.0,0,960,0.0,64.0
1735,61.0,240,240,0.0,34.0
1736,59.0,240,240,0.0,36.0
1737,82.0,0,960,0.0,71.0
1738,70.0,240,960,0.0,71.0
1739,61.0,240,240,0.0,34.0
1740,62.0,240,240,0.0,38.0
1741,61.0,240,240,0.0,40.0
1742,81.0,240,960,0.0,66.0
1743,69.0,0,960,0.0,66.0
1744,62.0,240,240,0.0,38.0
1745,81.0,240,120,0.0,75.0
1746,79.0,120,120,0.0,68.0
1747,82.0,120,120,0.0,72.0
1748,81.0,120,120,0.0,68.0
1749,84.0,120,120,0.0,74.0
1750,82.0,120,120,0.0,72.0
1751,81.0,120,120,0.0,71.0
1752,79.0,120,120,0.0,69.0
1753,67.0,0,480,0.0,54.0
1754,58.0,0,480,0.0,54.0
1755,77.0,0,480,0.0,72.0
1756,69.0,0,480,0.0,54.0
1757,70.0,480,480,0.0,45.0
1758,76.0,0,480,0.0,63.0
1759,60.0,120,960,0.0,54.0
1760,77.0,240,240,0.0,45.0
1761,76.0,240,240,0.0,49.0
1762,77.0,240,240,0.0,45.0
1763,65.0,240,0,0.0,30.0
1764,69.0,0,960,0.0,40.0
1765,75.0,240,240,0.0,45.0
1766,74.0,240,240,0.0,50.0
1767,75.0,240,240,0.0,46.0
1768,69.0,0,960,0.0,36.0
1769,74.0,240,240,0.0,54.0
1770,86.0,240,0,0.0,63.0
1771,54.0,0,960,0.0,30.0
1772,57.0,240,960,0.0,30.0
1773,60.0,0,960,0.0,36.0
1774,86.0,240,240,0.0,61.0
1775,74.0,240,0,0.0,47.0
1776,58.0,240,960,0.0,36.0
1777,55.0,0,0,0.0,29.0
1778,72.0,240,240,0.0,49.0
1779,84.0,240,240,0.0,62.0
1780,84.0,240,120,0.0,57.0
1781,58.0,240,960,0.0,35.0
1782,52.0,0,960,0.0,29.0
1783,84.0,240,240,0.0,56.0
1784,72.0,240,240,0.0,48.0
1785,72.0,240,120,0.0,45.0
1786,53.0,240,960,0.0,29.0
1787,57.0,0,960,0.0,35.0
1788,73.0,240,240,0.0,46.0
1789,74.0,240,240,0.0,50.0
1790,76.0,0,240,0.0,54.0
1791,55.0,0,480,0.0,32.0
1792,77.0,240,240,0.0,49.0
1793,47.0,240,480,0.0,32.0
1794,57.0,240,480,0.0,36.0
1795,65.0,0,480,0.0,45.0
1796,69.0,480,240,0.0,42.0
1797,64.0,0,480,0.0,42.0
1798,48.0,0,960,0.0,36.0
1799,58.0,0,480,0.0,35.0
1800,67.0,240,240,0.0,42.0
1801,57.0,0,120,0.0,43.0
1802,65.0,240,120,0.0,45.0
1803,53.0,0,120,0.0,43.0
1804,65.0,240,120,0.0,47.0
1805,69.0,120,120,0.0,45.0
1806,67.0,0,120,0.0,47.0
1807,70.0,120,120,0.0,45.0
1808,64.0,120,240,0.0,35.0
1809,69.0,120,120,0.0,47.0
1810,72.0,120,120,0.0,45.0
1811,63.0,0,240,0.0,35.0
1812,62.0,0,120,0.0,43.0
1813,53.0,0,120,0.0,43.0
1814,70.0,120,120,0.0,48.0
1815,65.0,240,120,0.0,52.0
1816,69.0,120,120,0.0,48.0
1817,67.0,0,120,0.0,52.0
1818,70.0,120,120,0.0,48.0
1819,64.0,120,240,0.0,35.0
1820,69.0,0,120,0.0,52.0
1821,72.0,120,120,0.0,48.0
1822,63.0,120,240,0.0,35.0
1823,70.0,0,120,0.0,52.0
1824,53.0,120,120,0.0,42.0
1825,62.0,0,120,0.0,42.0
1826,65.0,240,120,0.0,48.0
1827,69.0,120,120,0.0,50.0
1828,67.0,0,120,0.0,52.0
1829,70.0,120,120,0.0,53.0
1830,64.0,120,240,0.0,43.0
1831,69.0,0,120,0.0,54.0
1832,63.0,120,240,0.0,43.0
1833,72.0,120,120,0.0,57.0
1834,70.0,0,120,0.0,58.0
1835,62.0,120,240,0.0,47.0
1836,74.0,120,120,0.0,60.0
1837,72.0,0,120,0.0,61.0
1838,57.0,120,240,0.0,44.0
1839,75.0,120,120,0.0,63.0
1840,74.0,0,120,0.0,64.0
1841,58.0,120,240,0.0,46.0
1842,77.0,120,120,0.0,65.0
1843,76.0,120,120,0.0,67.0
1844,55.0,0,240,0.0,44.0
1845,79.0,120,120,0.0,69.0
1846,77.0,120,120,0.0,70.0
1847,79.0,120,120,0.0,72.0
1848,81.0,120,120,0.0,75.0
1849,79.0,120,120,0.0,75.0
1850,57.0,0,480,0.0,52.0
1851,77.0,120,120,0.0,73.0
1852,75.0,120,120,0.0,72.0
1853,74.0,120,120,0.0,71.0
1854,73.0,120,120,0.0,70.0
1855,74.0,0,120,0.0,72.0
1856,72.0,120,120,0.0,69.0
1857,70.0,120,120,0.0,71.0
1858,58.0,120,480,0.0,49.0
1859,69.0,120,120,0.0,68.0
1860,67.0,120,120,0.0,70.0
1861,65.0,120,120,0.0,67.0
1862,63.0,120,120,0.0,69.0
1863,62.0,120,120,0.0,65.0
1864,60.0,120,120,0.0,68.0
1865,48.0,0,240,0.0,48.0
1866,65.0,120,120,0.0,65.0
1867,69.0,0,120,0.0,68.0
1868,72.0,120,120,0.0,65.0
1869,53.0,120,240,0.0,44.0
1870,77.0,120,120,0.0,72.0
1871,57.0,0,240,0.0,44.0
1872,69.0,0,120,0.0,59.0
1873,65.0,0,120,0.0,59.0
1874,53.0,240,240,0.0,41.0
1875,72.0,0,240,0.0,64.0
1876,69.0,0,240,0.0,64.0
1877,48.0,240,240,0.0,49.0
1878,70.0,0,120,0.0,60.0
1879,67.0,240,120,0.0,60.0
1880,55.0,0,240,0.0,43.0
1881,65.0,240,120,0.0,61.0
1882,69.0,0,120,0.0,61.0
1883,58.0,0,240,0.0,45.0
1884,64.0,0,120,0.0,58.0
1885,67.0,240,120,0.0,58.0
1886,55.0,0,240,0.0,43.0
1887,65.0,0,120,0.0,61.0
1888,57.0,240,120,0.0,51.0
1889,53.0,0,120,0.0,51.0
1890,77.0,0,120,0.0,47.0
1891,81.0,120,120,0.0,45.0
1892,65.0,240,240,0.0,35.0
1893,79.0,120,120,0.0,47.0
1894,64.0,0,240,0.0,35.0
1895,82.0,120,120,0.0,45.0
1896,81.0,120,120,0.0,47.0
1897,63.0,0,240,0.0,32.0
1898,84.0,120,120,0.0,45.0
1899,62.0,120,120,0.0,43.0
1900,53.0,0,120,0.0,43.0
1901,82.0,0,120,0.0,48.0
1902,77.0,0,120,0.0,54.0
1903,81.0,120,120,0.0,50.0
1904,65.0,240,240,0.0,32.0
1905,79.0,0,120,0.0,54.0
1906,82.0,120,120,0.0,51.0
1907,64.0,120,240,0.0,35.0
1908,81.0,120,120,0.0,54.0
1909,63.0,0,240,0.0,33.0
1910,84.0,120,120,0.0,50.0
1911,82.0,0,120,0.0,54.0
1912,53.0,120,120,0.0,42.0
1913,62.0,0,120,0.0,42.0
1914,77.0,0,120,0.0,55.0
1915,65.0,240,240,0.0,35.0
1916,81.0,120,120,0.0,56.0
1917,79.0,0,120,0.0,58.0
1918,82.0,120,120,0.0,59.0
1919,64.0,120,240,0.0,43.0
1920,81.0,0,120,0.0,61.0
1921,84.0,120,120,0.0,63.0
1922,63.0,120,240,0.0,43.0
1923,82.0,120,120,0.0,64.0
1924,77.0,120,120,0.0,67.0
1925,62.0,0,240,0.0,47.0
1926,84.0,120,120,0.0,68.0
1927,57.0,0,240,0.0,44.0
1928,77.0,120,120,0.0,69.0
1929,86.0,120,120,0.0,70.0
1930,77.0,120,120,0.0,72.0
1931,58.0,0,240,0.0,46.0
1932,88.0,0,120,0.0,74.0
1933,55.0,120,240,0.0,44.0
1934,77.0,120,120,0.0,75.0
1935,89.0,0,120,0.0,78.0
1936,88.0,120,120,0.0,78.0
1937,86.0,120,120,0.0,77.0
1938,84.0,120,120,0.0,75.0
1939,57.0,120,480,0.0,62.0
1940,45.0,0,480,0.0,62.0
1941,82.0,120,120,0.0,74.0
1942,81.0,120,120,0.0,73.0
1943,79.0,120,120,0.0,72.0
1944,77.0,120,120,0.0,71.0
1945,86.0,120,120,0.0,79.0
1946,84.0,120,120,0.0,75.0
1947,82.0,120,120,0.0,78.0
1948,58.0,0,480,0.0,63.0
1949,81.0,120,120,0.0,77.0
1950,46.0,0,480,0.0,63.0
1951,79.0,120,120,0.0,75.0
1952,77.0,120,120,0.0,71.0
1953,76.0,120,120,0.0,73.0
1954,74.0,120,120,0.0,70.0
1955,48.0,120,120,0.0,48.0
1956,72.0,0,240,0.0,78.0
1957,57.0,120,120,0.0,40.0
1958,84.0,0,120,0.0,75.0
1959,53.0,120,120,0.0,44.0
1960,57.0,120,120,0.0,41.0
1961,84.0,0,120,0.0,78.0
1962,48.0,120,120,0.0,48.0
1963,57.0,120,120,0.0,40.0
1964,53.0,0,120,0.0,44.0
1965,84.0,120,120,0.0,77.0
1966,57.0,120,120,0.0,40.0
1967,48.0,0,120,0.0,48.0
1968,84.0,120,120,0.0,75.0
1969,81.0,120,120,0.0,72.0
1970,57.0,0,120,0.0,42.0
1971,77.0,120,120,0.0,70.0
1972,53.0,0,120,0.0,46.0
1973,57.0,120,120,0.0,42.0
1974,72.0,0,120,0.0,70.0
1975,77.0,0,120,0.0,75.0
1976,48.0,120,120,0.0,48.0
1977,57.0,120,120,0.0,43.0
1978,72.0,0,120,0.0,73.0
1979,53.0,120,120,0.0,46.0
1980,69.0,0,120,0.0,70.0
1981,57.0,120,120,0.0,43.0
1982,65.0,0,120,0.0,70.0
1983,69.0,0,80,0.0,51.0
1984,48.0,120,120,0.0,48.0
1985,67.0,80,80,0.0,46.0
1986,58.0,40,120,0.0,40.0
1987,69.0,40,80,0.0,51.0
1988,67.0,80,80,0.0,46.0
1989,52.0,0,120,0.0,43.0
1990,69.0,80,80,0.0,51.0
1991,67.0,40,80,0.0,46.0
1992,58.0,40,120,0.0,40.0
1993,69.0,80,80,0.0,51.0
1994,48.0,0,120,0.0,48.0
1995,67.0,80,80,0.0,46.0
1996,58.0,40,120,0.0,42.0
1997,69.0,40,80,0.0,51.0
1998,67.0,0,80,0.0,46.0
1999,52.0,80,120,0.0,43.0
2000,69.0,80,80,0.0,51.0
2001,58.0,40,120,0.0,42.0
2002,67.0,40,80,0.0,46.0
2003,69.0,0,80,0.0,51.0
2004,48.0,80,120,0.0,48.0
2005,67.0,80,80,0.0,46.0
2006,69.0,40,80,0.0,51.0
2007,58.0,40,120,0.0,41.0
2008,67.0,80,80,0.0,48.0
2009,52.0,0,120,0.0,43.0
2010,69.0,80,80,0.0,51.0
2011,58.0,40,120,0.0,41.0
2012,69.0,80,0,0.0,51.0
2013,48.0,0,120,0.0,48.0
2014,67.0,60,60,0.0,48.0
2015,69.0,60,60,0.0,51.0
2016,67.0,60,60,0.0,47.0
2017,58.0,0,120,0.0,42.0
2018,69.0,0,60,0.0,51.0
2019,67.0,60,60,0.0,48.0
2020,52.0,60,120,0.0,45.0
2021,65.0,60,60,0.0,62.0
2022,58.0,0,120,0.0,42.0
2023,67.0,60,60,0.0,58.0
2024,53.0,0,240,0.0,51.0
2025,65.0,240,0,0.0,44.0
2026,77.0,0,240,0.0,54.0
2027,64.0,240,240,0.0,44.0
2028,65.0,0,240,0.0,44.0
2029,77.0,240,240,0.0,53.0
2030,67.0,0,240,0.0,45.0
2031,76.0,240,240,0.0,51.0
2032,65.0,240,240,0.0,48.0
2033,77.0,0,240,0.0,58.0
2034,79.0,0,240,0.0,60.0
2035,64.0,240,240,0.0,51.0
2036,81.0,240,240,0.0,66.0
2037,63.0,0,240,0.0,54.0
2038,82.0,240,120,0.0,70.0
2039,62.0,0,240,0.0,59.0
2040,84.0,120,120,0.0,68.0
2041,86.0,0,120,0.0,72.0
2042,84.0,120,120,0.0,67.0
2043,53.0,120,240,0.0,45.0
2044,82.0,0,120,0.0,70.0
2045,80.0,120,120,0.0,67.0
2046,61.0,120,240,0.0,53.0
2047,79.0,0,120,0.0,68.0
2048,77.0,120,120,0.0,65.0
2049,53.0,120,240,0.0,45.0
2050,76.0,0,120,0.0,67.0
2051,60.0,120,240,0.0,52.0
2052,77.0,120,120,0.0,68.0
2053,79.0,0,120,0.0,69.0
2054,77.0,120,120,0.0,68.0
2055,53.0,120,240,0.0,44.0
2056,76.0,120,120,0.0,67.0
2057,74.0,120,120,0.0,65.0
2058,64.0,0,240,0.0,50.0
2059,72.0,0,120,0.0,64.0
2060,53.0,120,240,0.0,44.0
2061,70.0,120,120,0.0,63.0
2062,69.0,120,120,0.0,62.0
2063,65.0,0,120,0.0,53.0
2064,69.0,240,120,0.0,49.0
2065,53.0,0,240,0.0,41.0
2066,52.0,240,240,0.0,41.0
2067,53.0,0,240,0.0,41.0
2068,65.0,240,240,0.0,53.0
2069,55.0,240,240,0.0,45.0
2070,64.0,0,240,0.0,49.0
2071,53.0,240,240,0.0,43.0
2072,65.0,0,240,0.0,49.0
2073,52.0,240,240,0.0,43.0
2074,67.0,0,240,0.0,49.0
2075,69.0,0,240,0.0,49.0
2076,51.0,240,240,0.0,43.0
2077,70.0,0,120,0.0,52.0
2078,72.0,240,60,0.0,52.0
2079,70.0,60,60,0.0,49.0
2080,69.0,60,60,0.0,52.0
2081,50.0,240,480,0.0,45.0
2082,70.0,60,60,0.0,49.0
2083,72.0,0,240,0.0,58.0
2084,46.0,60,480,0.0,35.0
2085,74.0,240,240,0.0,59.0
2086,70.0,0,240,0.0,50.0
2087,74.0,0,240,0.0,50.0
2088,48.0,240,0,0.0,35.0
2089,72.0,0,240,0.0,46.0
2090,69.0,240,240,0.0,46.0
2091,64.0,240,240,0.0,33.0
2092,58.0,0,240,0.0,33.0
2093,53.0,0,480,0.0,37.0
2094,48.0,480,480,0.0,28.0
2095,58.0,240,960,0.0,45.0
2096,67.0,0,960,0.0,45.0
2097,65.0,0,360,0.0,34.0
2098,57.0,0,360,0.0,34.0
2099,41.0,480,360,0.0,28.0
2100,74.0,480,120,0.0,47.0
2101,72.0,120,120,0.0,45.0
2102,70.0,120,120,0.0,47.0
2103,69.0,120,120,0.0,45.0
2104,67.0,120,240,0.0,52.0
2105,41.0,0,240,0.0,33.0
2106,65.0,240,240,0.0,47.0
2107,45.0,240,240,0.0,35.0
2108,48.0,240,240,0.0,33.0
2109,45.0,240,240,0.0,38.0
2110,65.0,0,720,0.0,47.0
2111,41.0,240,240,0.0,32.0
2112,77.0,0,240,0.0,52.0
2113,79.0,0,240,0.0,57.0
2114,45.0,240,240,0.0,34.0
2115,76.0,180,60,0.0,55.0
2116,81.0,0,240,0.0,61.0
2117,48.0,240,240,0.0,32.0
2118,82.0,60,360,0.0,69.0
2119,55.0,240,240,0.0,32.0
2120,79.0,120,120,0.0,64.0
2121,58.0,120,240,0.0,35.0
2122,76.0,0,480,0.0,56.0
2123,64.0,240,240,0.0,33.0
2124,58.0,240,240,0.0,34.0
2125,55.0,240,240,0.0,30.0
2126,72.0,0,120,0.0,48.0
2127,58.0,240,240,0.0,34.0
2128,70.0,120,120,0.0,48.0
2129,69.0,0,120,0.0,48.0
2130,64.0,120,240,0.0,30.0
2131,67.0,120,120,0.0,46.0
2132,65.0,120,240,0.0,53.0
2133,64.0,240,0,0.0,47.0
2134,43.0,0,240,0.0,32.0
2135,46.0,0,240,0.0,35.0
2136,52.0,240,240,0.0,32.0
2137,46.0,240,240,0.0,39.0
2138,43.0,0,240,0.0,33.0
2139,79.0,240,240,0.0,53.0
2140,81.0,0,240,0.0,58.0
2141,46.0,240,240,0.0,35.0
2142,82.0,0,240,0.0,63.0
2143,52.0,240,240,0.0,33.0
2144,78.0,180,60,0.0,52.0
2145,84.0,60,360,0.0,68.0
2146,81.0,120,120,0.0,65.0
2147,57.0,240,240,0.0,33.0
2148,60.0,0,240,0.0,35.0
2149,63.0,240,240,0.0,34.0
2150,78.0,120,480,0.0,57.0
2151,60.0,240,240,0.0,37.0
2152,57.0,0,240,0.0,32.0
2153,81.0,240,240,0.0,60.0
2154,82.0,240,240,0.0,64.0
2155,60.0,0,240,0.0,34.0
2156,63.0,0,240,0.0,34.0
2157,84.0,240,240,0.0,69.0
2158,79.0,180,60,0.0,66.0
2159,86.0,60,360,0.0,84.0
2160,82.0,120,120,0.0,77.0
2161,46.0,240,240,0.0,41.0
2162,79.0,120,240,0.0,72.0
2163,50.0,0,240,0.0,47.0
2164,55.0,240,240,0.0,44.0
2165,76.0,180,60,0.0,71.0
2166,82.0,60,360,0.0,85.0
2167,48.0,240,240,0.0,46.0
2168,79.0,120,120,0.0,76.0
2169,76.0,0,240,0.0,72.0
2170,55.0,120,240,0.0,49.0
2171,71.0,180,60,0.0,68.0
2172,58.0,240,240,0.0,46.0
2173,77.0,60,360,0.0,79.0
2174,74.0,120,120,0.0,73.0
2175,50.0,240,240,0.0,48.0
2176,53.0,0,240,0.0,50.0
2177,56.0,240,240,0.0,45.0
2178,71.0,120,480,0.0,69.0
2179,53.0,240,240,0.0,52.0
2180,50.0,240,240,0.0,49.0
2181,71.0,0,240,0.0,68.0
2182,53.0,240,240,0.0,53.0
2183,71.0,0,240,0.0,69.0
2184,71.0,0,240,0.0,67.0
2185,56.0,240,240,0.0,50.0
2186,72.0,240,120,0.0,76.0
2187,81.0,120,120,0.0,69.0
2188,77.0,120,120,0.0,72.0
2189,72.0,120,120,0.0,70.0
2190,69.0,120,120,0.0,76.0
2191,77.0,120,120,0.0,70.0
2192,72.0,120,120,0.0,72.0
2193,69.0,120,120,0.0,67.0
2194,48.0,0,960,0.0,63.0
2195,57.0,0,960,0.0,63.0
2196,69.0,0,240,0.0,61.0
2197,72.0,0,240,0.0,72.0
2198,67.0,0,240,0.0,53.0
2199,60.0,120,480,0.0,48.0
2200,70.0,240,240,0.0,63.0
2201,69.0,240,120,0.0,61.0
2202,65.0,0,120,0.0,51.0
2203,64.0,240,120,0.0,49.0
2204,67.0,0,120,0.0,58.0
2205,48.0,0,480,0.0,45.0
2206,53.0,0,120,0.0,41.0
2207,60.0,120,120,0.0,34.0
2208,56.0,120,120,0.0,37.0
2209,65.0,240,480,0.0,54.0
2210,60.0,120,120,0.0,34.0
2211,53.0,120,120,0.0,41.0
2212,60.0,120,120,0.0,34.0
2213,56.0,120,120,0.0,37.0
2214,60.0,120,120,0.0,34.0
2215,53.0,120,120,0.0,46.0
2216,65.0,120,120,0.0,54.0
2217,60.0,0,120,0.0,36.0
2218,56.0,120,120,0.0,41.0
2219,67.0,0,120,0.0,58.0
2220,60.0,120,120,0.0,37.0
2221,68.0,0,120,0.0,61.0
2222,70.0,0,120,0.0,63.0
2223,53.0,120,120,0.0,49.0
2224,60.0,0,120,0.0,39.0
2225,72.0,120,120,0.0,65.0
2226,74.0,120,120,0.0,68.0
2227,56.0,0,120,0.0,44.0
2228,60.0,0,120,0.0,39.0
2229,76.0,120,120,0.0,71.0
2230,53.0,0,120,0.0,49.0
2231,77.0,120,120,0.0,75.0
2232,60.0,0,120,0.0,43.0
2233,72.0,120,120,0.0,71.0
2234,56.0,0,120,0.0,45.0
2235,80.0,120,120,0.0,75.0
2236,60.0,120,120,0.0,43.0
2237,79.0,0,120,0.0,72.0
2238,77.0,0,120,0.0,75.0
2239,53.0,120,120,0.0,49.0
2240,72.0,120,120,0.0,71.0
2241,60.0,0,120,0.0,43.0
2242,80.0,120,120,0.0,72.0
2243,56.0,0,120,0.0,45.0
2244,60.0,0,120,0.0,43.0
2245,79.0,120,120,0.0,70.0
2246,77.0,120,120,0.0,72.0
2247,53.0,0,120,0.0,48.0
2248,79.0,120,120,0.0,71.0
2249,62.0,0,120,0.0,42.0
2250,75.0,120,120,0.0,71.0
2251,56.0,0,120,0.0,45.0
2252,62.0,0,120,0.0,43.0
2253,77.0,120,120,0.0,68.0
2254,74.0,0,120,0.0,70.0
2255,53.0,120,120,0.0,47.0
2256,75.0,120,120,0.0,67.0
2257,62.0,0,120,0.0,43.0
2258,56.0,120,120,0.0,45.0
2259,72.0,0,120,0.0,68.0
2260,74.0,0,120,0.0,68.0
2261,62.0,120,120,0.0,43.0
2262,55.0,0,120,0.0,54.0
2263,71.0,120,240,0.0,67.0
2264,65.0,120,120,0.0,46.0
2265,62.0,0,120,0.0,48.0
2266,65.0,120,120,0.0,45.0
2267,55.0,120,120,0.0,54.0
2268,65.0,120,120,0.0,45.0
2269,89.0,120,480,0.0,90.0
2270,62.0,120,120,0.0,48.0
2271,65.0,120,120,0.0,45.0
2272,55.0,120,120,0.0,54.0
2273,87.0,0,480,0.0,89.0
2274,65.0,120,120,0.0,46.0
2275,62.0,0,120,0.0,48.0
2276,65.0,120,120,0.0,45.0
2277,55.0,120,120,0.0,52.0
2278,65.0,120,120,0.0,45.0
2279,86.0,120,480,0.0,88.0
2280,62.0,120,120,0.0,48.0
2281,65.0,120,120,0.0,45.0
2282,55.0,120,120,0.0,53.0
2283,84.0,0,480,0.0,87.0
2284,65.0,120,120,0.0,45.0
2285,62.0,0,120,0.0,48.0
2286,65.0,120,120,0.0,45.0
2287,55.0,120,120,0.0,53.0
2288,83.0,120,480,0.0,84.0
2289,65.0,120,120,0.0,45.0
2290,62.0,0,120,0.0,48.0
2291,65.0,120,120,0.0,45.0
2292,55.0,120,120,0.0,53.0
2293,62.0,120,120,0.0,46.0
2294,80.0,120,480,0.0,78.0
2295,59.0,120,120,0.0,48.0
2296,62.0,120,120,0.0,45.0
2297,55.0,120,120,0.0,53.0
2298,62.0,120,120,0.0,45.0
2299,79.0,0,480,0.0,83.0
2300,59.0,0,120,0.0,48.0
2301,77.0,120,240,0.0,78.0
2302,62.0,120,120,0.0,45.0
2303,55.0,0,120,0.0,48.0
2304,77.0,120,240,0.0,80.0
2305,64.0,120,120,0.0,39.0
2306,60.0,120,120,0.0,44.0
2307,64.0,120,120,0.0,39.0
2308,76.0,0,240,0.0,77.0
2309,55.0,0,120,0.0,48.0
2310,63.0,120,120,0.0,41.0
2311,60.0,120,120,0.0,44.0
2312,63.0,120,120,0.0,41.0
2313,75.0,120,480,0.0,67.0
2314,55.0,120,120,0.0,48.0
2315,75.0,120,120,0.0,65.0
2316,63.0,0,120,0.0,40.0
2317,74.0,120,120,0.0,68.0
2318,60.0,0,120,0.0,44.0
2319,63.0,120,120,0.0,38.0
2320,75.0,0,120,0.0,66.0
2321,55.0,120,120,0.0,48.0
2322,77.0,0,120,0.0,68.0
2323,75.0,120,120,0.0,66.0
2324,63.0,0,120,0.0,40.0
2325,74.0,120,120,0.0,68.0
2326,60.0,0,120,0.0,45.0
2327,63.0,0,120,0.0,40.0
2328,75.0,120,120,0.0,65.0
2329,54.0,0,120,0.0,54.0
2330,63.0,120,120,0.0,40.0
2331,58.0,120,120,0.0,44.0
2332,78.0,120,360,0.0,77.0
2333,75.0,0,120,0.0,69.0
2334,63.0,120,120,0.0,41.0
2335,77.0,0,60,0.0,65.0
2336,54.0,120,120,0.0,49.0
2337,75.0,60,60,0.0,62.0
2338,77.0,0,60,0.0,65.0
2339,75.0,60,60,0.0,63.0
2340,63.0,60,120,0.0,42.0
2341,77.0,60,60,0.0,66.0
2342,58.0,0,120,0.0,45.0
2343,75.0,60,60,0.0,64.0
2344,74.0,0,60,0.0,71.0
2345,75.0,60,60,0.0,69.0
2346,63.0,60,120,0.0,40.0
2347,54.0,0,120,0.0,54.0
2348,63.0,120,120,0.0,42.0
2349,82.0,60,360,0.0,78.0
2350,58.0,120,120,0.0,45.0
2351,75.0,120,120,0.0,68.0
2352,63.0,0,120,0.0,42.0
2353,77.0,0,60,0.0,64.0
2354,75.0,60,60,0.0,62.0
2355,54.0,120,120,0.0,48.0
2356,77.0,60,60,0.0,64.0
2357,75.0,60,60,0.0,62.0
2358,63.0,0,120,0.0,40.0
2359,77.0,0,60,0.0,64.0
2360,75.0,60,60,0.0,63.0
2361,58.0,60,120,0.0,45.0
2362,74.0,60,60,0.0,71.0
2363,63.0,0,120,0.0,40.0
2364,75.0,60,60,0.0,68.0
2365,53.0,60,120,0.0,49.0
2366,81.0,0,120,0.0,81.0
2367,63.0,120,120,0.0,40.0
2368,84.0,120,120,0.0,85.0
2369,60.0,0,120,0.0,45.0
2370,63.0,120,120,0.0,41.0
2371,53.0,0,120,0.0,50.0
2372,63.0,120,120,0.0,42.0
2373,60.0,120,120,0.0,45.0
2374,63.0,120,120,0.0,40.0
2375,87.0,120,600,0.0,89.0
2376,53.0,120,120,0.0,50.0
2377,89.0,120,120,0.0,71.0
2378,63.0,0,120,0.0,43.0
2379,60.0,0,120,0.0,48.0
2380,86.0,120,120,0.0,77.0
2381,63.0,0,120,0.0,43.0
2382,87.0,120,120,0.0,71.0
2383,53.0,120,120,0.0,54.0
2384,84.0,0,120,0.0,77.0
2385,86.0,0,120,0.0,71.0
2386,63.0,120,120,0.0,45.0
2387,60.0,0,120,0.0,48.0
2388,82.0,120,120,0.0,77.0
2389,63.0,120,120,0.0,45.0
2390,84.0,0,120,0.0,71.0
2391,53.0,120,120,0.0,54.0
2392,81.0,0,120,0.0,72.0
2393,82.0,120,120,0.0,73.0
2394,63.0,0,120,0.0,45.0
2395,84.0,120,120,0.0,77.0
2396,60.0,0,120,0.0,48.0
2397,63.0,0,120,0.0,44.0
2398,82.0,120,120,0.0,72.0
2399,53.0,0,120,0.0,54.0
2400,81.0,120,120,0.0,71.0
2401,82.0,0,120,0.0,72.0
2402,63.0,120,120,0.0,45.0
2403,60.0,0,120,0.0,48.0
2404,84.0,120,120,0.0,73.0
2405,86.0,120,120,0.0,70.0
2406,63.0,0,120,0.0,44.0
2407,53.0,0,120,0.0,52.0
2408,87.0,120,120,0.0,75.0
2409,60.0,120,120,0.0,44.0
2410,86.0,0,120,0.0,70.0
2411,84.0,0,120,0.0,72.0
2412,57.0,120,120,0.0,48.0
2413,60.0,120,120,0.0,44.0
2414,82.0,0,120,0.0,72.0
2415,81.0,120,120,0.0,71.0
2416,53.0,0,120,0.0,53.0
2417,60.0,0,120,0.0,44.0
2418,79.0,120,120,0.0,70.0
2419,57.0,120,120,0.0,47.0
2420,77.0,0,120,0.0,69.0
2421,60.0,120,120,0.0,44.0
2422,75.0,0,120,0.0,68.0
2423,75.0,0,60,0.0,65.0
2424,54.0,120,120,0.0,44.0
2425,77.0,60,60,0.0,63.0
2426,60.0,60,120,0.0,39.0
2427,75.0,0,120,0.0,72.0
2428,57.0,120,120,0.0,40.0
2429,74.0,0,240,0.0,68.0
2430,60.0,120,120,0.0,35.0
2431,54.0,0,120,0.0,44.0
2432,60.0,120,120,0.0,33.0
2433,57.0,120,120,0.0,39.0
2434,60.0,120,120,0.0,34.0
2435,54.0,120,120,0.0,44.0
2436,74.0,120,0,0.0,72.0
2437,60.0,120,120,0.0,33.0
2438,57.0,0,120,0.0,39.0
2439,60.0,120,120,0.0,33.0
2440,54.0,120,120,0.0,44.0
2441,62.0,120,120,0.0,35.0
2442,86.0,0,240,0.0,81.0
2443,57.0,120,120,0.0,39.0
2444,62.0,120,120,0.0,34.0
2445,55.0,120,120,0.0,48.0
2446,84.0,0,480,0.0,77.0
2447,62.0,120,120,0.0,39.0
2448,58.0,0,120,0.0,44.0
2449,62.0,120,120,0.0,39.0
2450,53.0,120,120,0.0,48.0
2451,82.0,120,480,0.0,78.0
2452,62.0,120,120,0.0,38.0
2453,57.0,0,120,0.0,44.0
2454,62.0,120,120,0.0,38.0
2455,81.0,120,360,0.0,77.0
2456,52.0,120,120,0.0,48.0
2457,79.0,120,120,0.0,70.0
2458,62.0,0,120,0.0,38.0
2459,55.0,0,120,0.0,44.0
2460,82.0,120,120,0.0,73.0
2461,62.0,120,120,0.0,37.0
2462,81.0,0,120,0.0,70.0
2463,84.0,0,120,0.0,73.0
2464,51.0,120,120,0.0,48.0
2465,82.0,120,120,0.0,69.0
2466,61.0,0,120,0.0,38.0
2467,81.0,120,120,0.0,73.0
2468,55.0,0,120,0.0,44.0
2469,61.0,120,120,0.0,39.0
2470,79.0,0,120,0.0,67.0
2471,78.0,0,60,0.0,71.0
2472,74.0,120,120,0.0,58.0
2473,86.0,120,120,0.0,57.0
2474,62.0,0,480,0.0,38.0
2475,50.0,120,480,0.0,38.0
2476,85.0,120,120,0.0,57.0
2477,86.0,120,120,0.0,56.0
2478,85.0,120,120,0.0,56.0
2479,86.0,120,120,0.0,57.0
2480,85.0,120,120,0.0,58.0
2481,86.0,120,120,0.0,59.0
2482,87.0,120,120,0.0,59.0
2483,84.0,120,120,0.0,60.0
2484,86.0,120,120,0.0,58.0
2485,82.0,0,120,0.0,62.0
2486,84.0,120,120,0.0,60.0
2487,81.0,120,120,0.0,63.0
2488,82.0,120,120,0.0,61.0
2489,62.0,0,480,0.0,45.0
2490,66.0,120,480,0.0,45.0
2491,79.0,120,120,0.0,64.0
2492,81.0,120,120,0.0,63.0
2493,77.0,120,120,0.0,66.0
2494,79.0,120,120,0.0,63.0
2495,63.0,0,480,0.0,45.0
2496,67.0,0,480,0.0,45.0
2497,75.0,120,120,0.0,67.0
2498,77.0,120,120,0.0,64.0
2499,74.0,120,120,0.0,69.0
2500,75.0,120,120,0.0,66.0
2501,73.0,120,120,0.0,70.0
2502,82.0,240,240,0.0,69.0
2503,81.0,0,240,0.0,70.0
2504,61.0,0,480,0.0,54.0
2505,51.0,240,480,0.0,54.0
2506,79.0,240,240,0.0,68.0
2507,78.0,240,60,0.0,71.0
2508,73.0,120,120,0.0,52.0
2509,74.0,120,120,0.0,57.0
2510,50.0,0,480,0.0,49.0
2511,73.0,120,120,0.0,52.0
2512,62.0,0,480,0.0,49.0
2513,74.0,120,120,0.0,57.0
2514,73.0,120,120,0.0,53.0
2515,74.0,120,120,0.0,57.0
2516,73.0,120,120,0.0,53.0
2517,74.0,120,120,0.0,54.0
2518,75.0,120,120,0.0,51.0
2519,72.0,120,120,0.0,53.0
2520,74.0,120,120,0.0,49.0
2521,70.0,120,120,0.0,52.0
2522,72.0,120,120,0.0,49.0
2523,69.0,120,120,0.0,50.0
2524,50.0,0,480,0.0,45.0
2525,60.0,0,480,0.0,45.0
2526,70.0,120,120,0.0,46.0
2527,67.0,0,120,0.0,48.0
2528,69.0,120,120,0.0,46.0
2529,65.0,120,120,0.0,46.0
2530,67.0,120,120,0.0,45.0
2531,51.0,0,480,0.0,42.0
2532,58.0,120,480,0.0,42.0
2533,63.0,120,120,0.0,45.0
2534,65.0,120,120,0.0,44.0
2535,62.0,120,120,0.0,43.0
2536,63.0,120,120,0.0,42.0
2537,61.0,120,120,0.0,41.0
2538,67.0,240,240,0.0,41.0
2539,70.0,0,240,0.0,45.0
2540,51.0,240,480,0.0,32.0
2541,55.0,0,480,0.0,32.0
2542,61.0,240,240,0.0,42.0
2543,62.0,0,120,0.0,39.0
2544,50.0,0,240,0.0,24.0
2545,54.0,240,240,0.0,24.0
2546,74.0,240,120,0.0,46.0
2547,58.0,240,240,0.0,27.0
2548,55.0,0,240,0.0,27.0
2549,50.0,0,240,0.0,27.0
2550,74.0,240,240,0.0,49.0
2551,54.0,0,240,0.0,28.0
2552,50.0,240,240,0.0,28.0
2553,57.0,0,240,0.0,28.0
2554,74.0,240,240,0.0,46.0
2555,55.0,240,240,0.0,32.0
2556,58.0,0,240,0.0,32.0
2557,50.0,0,240,0.0,32.0
2558,74.0,240,240,0.0,48.0
2559,57.0,0,480,0.0,34.0
2560,50.0,240,480,0.0,34.0
2561,74.0,240,240,0.0,43.0
2562,54.0,0,480,0.0,34.0
2563,73.0,240,240,0.0,46.0
2564,74.0,240,240,0.0,49.0
2565,73.0,240,240,0.0,53.0
2566,74.0,240,240,0.0,56.0
2567,73.0,240,240,0.0,60.0
2568,74.0,240,240,0.0,63.0
2569,77.0,240,480,0.0,66.0
2570,69.0,0,240,0.0,34.0
2571,65.0,0,240,0.0,30.0
2572,60.0,240,240,0.0,30.0
2573,69.0,0,240,0.0,37.0
2574,65.0,0,240,0.0,33.0
2575,60.0,0,240,0.0,33.0
2576,60.0,240,240,0.0,36.0
2577,65.0,0,240,0.0,36.0
2578,69.0,0,240,0.0,40.0
2579,75.0,240,480,0.0,64.0
2580,75.0,120,120,0.0,53.0
2581,74.0,120,120,0.0,56.0
2582,65.0,240,480,0.0,39.0
2583,69.0,0,480,0.0,44.0
2584,60.0,0,480,0.0,39.0
2585,75.0,120,120,0.0,53.0
2586,74.0,120,120,0.0,56.0
2587,75.0,120,120,0.0,54.0
2588,74.0,120,120,0.0,56.0
2589,75.0,120,120,0.0,53.0
2590,75.0,0,240,0.0,36.0
2591,72.0,0,240,0.0,32.0
2592,65.0,240,240,0.0,32.0
2593,82.0,120,480,0.0,70.0
2594,65.0,0,0,0.0,39.0
2595,72.0,240,0,0.0,39.0
2596,75.0,0,240,0.0,40.0
2597,81.0,240,480,0.0,66.0
2598,72.0,240,0,0.0,42.0
2599,75.0,0,0,0.0,47.0
2600,65.0,0,0,0.0,42.0
2601,81.0,120,120,0.0,61.0
2602,79.0,120,120,0.0,63.0
2603,81.0,120,120,0.0,61.0
2604,82.0,120,120,0.0,63.0
2605,81.0,120,120,0.0,61.0
2606,79.0,120,120,0.0,63.0
2607,81.0,120,120,0.0,61.0
2608,89.0,120,480,0.0,77.0
2609,65.0,240,240,0.0,47.0
2610,75.0,0,240,0.0,45.0
2611,79.0,240,240,0.0,45.0
2612,87.0,240,480,0.0,75.0
2613,87.0,120,120,0.0,66.0
2614,86.0,120,120,0.0,68.0
2615,87.0,120,120,0.0,65.0
2616,89.0,120,120,0.0,68.0
2617,87.0,120,120,0.0,65.0
2618,85.0,120,120,0.0,68.0
2619,84.0,120,120,0.0,65.0
2620,66.0,240,960,0.0,47.0
2621,82.0,120,480,0.0,77.0
2622,65.0,240,240,0.0,38.0
2623,72.0,0,240,0.0,41.0
2624,81.0,240,480,0.0,69.0
2625,75.0,240,240,0.0,37.0
2626,87.0,120,120,0.0,67.0
2627,86.0,120,120,0.0,69.0
2628,87.0,120,120,0.0,66.0
2629,89.0,120,120,0.0,70.0
2630,87.0,120,120,0.0,67.0
2631,85.0,120,120,0.0,68.0
2632,84.0,120,120,0.0,67.0
2633,66.0,240,960,0.0,49.0
2634,82.0,0,120,0.0,66.0
2635,81.0,120,120,0.0,65.0
2636,65.0,120,240,0.0,46.0
2637,87.0,120,120,0.0,69.0
2638,86.0,120,120,0.0,66.0
2639,89.0,0,120,0.0,71.0
2640,87.0,120,120,0.0,68.0
2641,85.0,120,120,0.0,69.0
2642,84.0,120,120,0.0,67.0
2643,66.0,0,480,0.0,52.0
2644,82.0,0,120,0.0,66.0
2645,81.0,120,120,0.0,65.0
2646,87.0,120,120,0.0,70.0
2647,75.0,0,960,0.0,52.0
2648,72.0,120,960,0.0,52.0
2649,86.0,120,120,0.0,67.0
2650,65.0,120,480,0.0,49.0
2651,89.0,0,120,0.0,71.0
2652,87.0,120,120,0.0,68.0
2653,85.0,120,120,0.0,70.0
2654,66.0,0,480,0.0,53.0
2655,84.0,120,120,0.0,69.0
2656,82.0,0,120,0.0,68.0
2657,81.0,120,120,0.0,67.0
2658,84.0,120,120,0.0,68.0
2659,65.0,120,480,0.0,50.0
2660,83.0,120,120,0.0,64.0
2661,75.0,120,960,0.0,53.0
2662,72.0,0,960,0.0,53.0
2663,86.0,120,120,0.0,68.0
2664,84.0,120,120,0.0,67.0
2665,82.0,120,120,0.0,65.0
2666,81.0,120,120,0.0,63.0
2667,79.0,120,120,0.0,63.0
2668,77.0,120,120,0.0,61.0
2669,79.0,120,120,0.0,59.0
2670,78.0,120,120,0.0,58.0
2671,81.0,120,120,0.0,59.0
2672,79.0,120,120,0.0,57.0
2673,77.0,120,120,0.0,56.0
2674,75.0,120,120,0.0,54.0
2675,74.0,120,240,0.0,52.0
2676,72.0,240,240,0.0,52.0
2677,74.0,240,120,0.0,54.0
2678,75.0,240,120,0.0,56.0
2679,76.0,240,120,0.0,58.0
2680,77.0,240,120,0.0,61.0
2681,79.0,240,120,0.0,62.0
2682,77.0,120,120,0.0,58.0
2683,75.0,120,120,0.0,61.0
2684,74.0,120,120,0.0,58.0
2685,72.0,120,240,0.0,67.0
2686,58.0,0,240,0.0,39.0
2687,70.0,240,240,0.0,60.0
2688,62.0,0,240,0.0,42.0
2689,65.0,240,240,0.0,39.0
2690,70.0,240,720,0.0,59.0
2691,62.0,240,240,0.0,46.0
2692,58.0,0,240,0.0,39.0
2693,74.0,240,240,0.0,61.0
2694,62.0,0,240,0.0,41.0
2695,79.0,240,240,0.0,63.0
2696,67.0,240,240,0.0,38.0
2697,74.0,0,240,0.0,60.0
2698,60.0,240,240,0.0,35.0
2699,77.0,240,480,0.0,68.0
2700,63.0,0,240,0.0,39.0
2701,67.0,240,240,0.0,36.0
2702,75.0,240,720,0.0,62.0
2703,63.0,240,240,0.0,44.0
2704,77.0,240,120,0.0,65.0
2705,79.0,120,120,0.0,62.0
2706,60.0,0,240,0.0,41.0
2707,77.0,120,120,0.0,65.0
2708,63.0,0,240,0.0,41.0
2709,75.0,120,120,0.0,62.0
2710,74.0,0,120,0.0,65.0
2711,72.0,120,120,0.0,65.0
2712,67.0,120,240,0.0,38.0
2713,53.0,240,240,0.0,38.0
2714,70.0,120,480,0.0,71.0
2715,60.0,240,240,0.0,41.0
2716,63.0,240,240,0.0,41.0
2717,69.0,0,720,0.0,65.0
2718,60.0,240,240,0.0,49.0
2719,69.0,240,240,0.0,63.0
2720,53.0,0,240,0.0,41.0
2721,70.0,240,240,0.0,65.0
2722,60.0,0,240,0.0,43.0
2723,63.0,0,240,0.0,40.0
2724,72.0,240,240,0.0,63.0
2725,72.0,0,480,0.0,61.0
2726,69.0,240,480,0.0,61.0
2727,58.0,240,240,0.0,40.0
2728,62.0,0,240,0.0,42.0
2729,74.0,240,480,0.0,58.0
2730,70.0,0,480,0.0,58.0
2731,65.0,240,240,0.0,39.0
2732,62.0,240,240,0.0,47.0
2733,77.0,240,120,0.0,64.0
2734,58.0,0,240,0.0,40.0
2735,76.0,120,120,0.0,62.0
2736,79.0,0,120,0.0,66.0
2737,62.0,120,240,0.0,42.0
2738,77.0,120,120,0.0,62.0
2739,75.0,120,120,0.0,63.0
2740,74.0,120,120,0.0,61.0
2741,65.0,0,240,0.0,39.0
2742,74.0,120,240,0.0,68.0
2743,63.0,0,240,0.0,45.0
2744,67.0,0,240,0.0,31.0
2745,62.0,240,240,0.0,36.0
2746,72.0,240,480,0.0,62.0
2747,70.0,0,240,0.0,63.0
2748,65.0,240,240,0.0,31.0
2749,74.0,0,240,0.0,67.0
2750,63.0,240,240,0.0,45.0
2751,67.0,0,240,0.0,35.0
2752,72.0,240,480,0.0,64.0
2753,60.0,240,240,0.0,39.0
2754,63.0,0,240,0.0,33.0
2755,69.0,240,240,0.0,64.0
2756,70.0,0,120,0.0,68.0
2757,72.0,120,120,0.0,60.0
2758,70.0,120,120,0.0,63.0
2759,62.0,240,480,0.0,42.0
2760,65.0,0,480,0.0,42.0
2761,69.0,120,120,0.0,60.0
2762,70.0,120,120,0.0,68.0
2763,72.0,120,120,0.0,60.0
2764,74.0,120,120,0.0,63.0
2765,75.0,120,120,0.0,59.0
2766,76.0,120,120,0.0,72.0
2767,77.0,120,120,0.0,68.0
2768,76.0,120,120,0.0,72.0
2769,77.0,120,120,0.0,66.0
2770,79.0,120,120,0.0,74.0
2771,77.0,120,120,0.0,68.0
2772,75.0,120,120,0.0,67.0
2773,74.0,120,120,0.0,64.0
2774,74.0,120,240,0.0,74.0
2775,63.0,0,240,0.0,47.0
2776,67.0,0,240,0.0,34.0
2777,72.0,0,0,0.0,59.0
2778,62.0,240,240,0.0,39.0
2779,65.0,240,240,0.0,34.0
2780,70.0,0,240,0.0,54.0
2781,74.0,0,240,0.0,68.0
2782,63.0,240,240,0.0,47.0
2783,67.0,240,240,0.0,34.0
2784,72.0,0,0,0.0,57.0
2785,60.0,240,240,0.0,38.0
2786,69.0,0,240,0.0,53.0
2787,63.0,240,240,0.0,34.0
2788,70.0,0,240,0.0,64.0
2789,72.0,240,120,0.0,61.0
2790,74.0,120,120,0.0,62.0
2791,65.0,0,480,0.0,44.0
2792,62.0,240,480,0.0,44.0
2793,75.0,120,120,0.0,64.0
2794,77.0,120,120,0.0,64.0
2795,79.0,120,120,0.0,67.0
2796,81.0,120,120,0.0,68.0
2797,82.0,120,120,0.0,70.0
2798,84.0,120,120,0.0,71.0
2799,86.0,120,120,0.0,72.0
2800,87.0,120,120,0.0,72.0
2801,89.0,120,120,0.0,74.0
2802,89.0,240,120,0.0,76.0
2803,89.0,0,240,0.0,80.0
2804,57.0,240,480,0.0,57.0
2805,87.0,240,480,0.0,76.0
2806,58.0,240,480,0.0,52.0
2807,86.0,240,240,0.0,78.0
2808,77.0,0,1200,0.0,80.0
2809,86.0,0,240,0.0,78.0
2810,84.0,240,120,0.0,67.0
2811,75.0,0,120,0.0,67.0
2812,51.0,240,480,0.0,59.0
2813,82.0,0,120,0.0,71.0
2814,74.0,0,120,0.0,71.0
2815,72.0,240,120,0.0,64.0
2816,81.0,0,120,0.0,64.0
2817,53.0,240,480,0.0,54.0
2818,82.0,240,240,0.0,73.0
2819,74.0,0,240,0.0,73.0
2820,46.0,240,120,0.0,54.0
2821,50.0,0,120,0.0,56.0
2822,70.0,240,240,0.0,72.0
2823,53.0,240,120,0.0,55.0
2824,58.0,240,480,0.0,58.0
2825,67.0,480,120,0.0,52.0
2826,65.0,120,120,0.0,48.0
2827,63.0,120,120,0.0,52.0
2828,62.0,120,120,0.0,48.0
2829,60.0,120,240,0.0,56.0
2830,46.0,240,240,0.0,34.0
2831,58.0,0,0,0.0,53.0
2832,50.0,240,240,0.0,37.0
2833,53.0,240,240,0.0,34.0
2834,50.0,240,240,0.0,43.0
2835,70.0,0,120,0.0,54.0
2836,46.0,240,240,0.0,35.0
2837,70.0,240,240,0.0,54.0
2838,50.0,0,240,0.0,39.0
2839,53.0,240,240,0.0,39.0
2840,72.0,0,240,0.0,51.0
2841,70.0,240,240,0.0,61.0
2842,46.0,0,240,0.0,37.0
2843,69.0,240,240,0.0,53.0
2844,50.0,240,240,0.0,41.0
2845,53.0,240,240,0.0,37.0
2846,68.0,240,0,0.0,58.0
2847,50.0,240,240,0.0,43.0
2848,46.0,0,240,0.0,38.0
2849,68.0,0,0,0.0,65.0
2850,50.0,240,240,0.0,38.0
2851,68.0,240,0,0.0,72.0
2852,53.0,0,240,0.0,34.0
2853,80.0,240,120,0.0,78.0
2854,82.0,120,120,0.0,71.0
2855,79.0,0,120,0.0,78.0
2856,46.0,120,240,0.0,47.0
2857,80.0,120,120,0.0,70.0
2858,77.0,120,120,0.0,79.0
2859,50.0,0,240,0.0,47.0
2860,79.0,120,120,0.0,69.0
2861,75.0,120,120,0.0,77.0
2862,77.0,120,120,0.0,70.0
2863,53.0,0,240,0.0,45.0
2864,74.0,120,120,0.0,79.0
2865,56.0,0,240,0.0,53.0
2866,75.0,120,120,0.0,70.0
2867,72.0,0,120,0.0,75.0
2868,53.0,120,240,0.0,45.0
2869,74.0,120,120,0.0,69.0
2870,70.0,120,120,0.0,76.0
2871,50.0,0,240,0.0,48.0
2872,72.0,120,120,0.0,70.0
2873,68.0,0,120,0.0,72.0
2874,70.0,120,120,0.0,67.0
2875,46.0,120,240,0.0,45.0
2876,68.0,120,240,0.0,72.0
2877,47.0,240,240,0.0,36.0
2878,67.0,0,240,0.0,67.0
2879,50.0,240,240,0.0,36.0
2880,53.0,240,240,0.0,36.0
2881,67.0,0,720,0.0,59.0
2882,55.0,240,240,0.0,41.0
2883,79.0,0,120,0.0,54.0
2884,53.0,240,240,0.0,33.0
2885,50.0,0,240,0.0,34.0
2886,79.0,240,240,0.0,60.0
2887,77.0,240,0,0.0,63.0
2888,47.0,240,240,0.0,32.0
2889,58.0,0,240,0.0,33.0
2890,76.0,240,0,0.0,54.0
2891,61.0,0,240,0.0,36.0
2892,64.0,240,240,0.0,32.0
2893,85.0,240,120,0.0,59.0
2894,67.0,240,480,0.0,40.0
2895,85.0,240,240,0.0,61.0
2896,76.0,240,240,0.0,56.0
2897,79.0,240,240,0.0,61.0
2898,77.0,240,0,0.0,54.0
2899,57.0,0,240,0.0,34.0
2900,60.0,0,240,0.0,34.0
2901,65.0,240,240,0.0,32.0
2902,78.0,240,240,0.0,52.0
2903,69.0,240,480,0.0,39.0
2904,79.0,240,240,0.0,54.0
2905,75.0,240,240,0.0,52.0
2906,73.0,240,240,0.0,57.0
2907,74.0,240,240,0.0,52.0
2908,58.0,0,240,0.0,32.0
2909,62.0,240,240,0.0,34.0
2910,74.0,0,480,0.0,52.0
2911,65.0,240,240,0.0,30.0
2912,70.0,240,480,0.0,38.0
2913,77.0,240,240,0.0,54.0
2914,79.0,240,120,0.0,61.0
2915,77.0,120,120,0.0,57.0
2916,75.0,120,120,0.0,61.0
2917,74.0,120,120,0.0,56.0
2918,63.0,120,240,0.0,42.0
2919,67.0,240,240,0.0,38.0
2920,63.0,240,240,0.0,42.0
2921,72.0,0,720,0.0,61.0
2922,65.0,240,240,0.0,38.0
2923,69.0,0,240,0.0,52.0
2924,70.0,240,60,0.0,52.0
2925,77.0,120,120,0.0,56.0
2926,62.0,0,240,0.0,41.0
2927,76.0,120,120,0.0,56.0
2928,65.0,0,240,0.0,38.0
2929,77.0,120,120,0.0,52.0
2930,79.0,0,120,0.0,63.0
2931,62.0,120,240,0.0,41.0
2932,77.0,120,120,0.0,54.0
2933,75.0,0,120,0.0,59.0
2934,65.0,120,240,0.0,38.0
2935,74.0,120,120,0.0,53.0
2936,72.0,120,120,0.0,63.0
2937,63.0,0,240,0.0,41.0
2938,65.0,0,240,0.0,38.0
2939,72.0,240,480,0.0,63.0
2940,63.0,240,240,0.0,41.0
2941,65.0,0,240,0.0,38.0
2942,69.0,240,240,0.0,54.0
2943,70.0,0,60,0.0,54.0
2944,77.0,120,120,0.0,51.0
2945,62.0,240,240,0.0,41.0
2946,76.0,0,120,0.0,56.0
2947,77.0,120,120,0.0,53.0
2948,65.0,120,240,0.0,38.0
2949,79.0,120,120,0.0,62.0
2950,77.0,120,120,0.0,53.0
2951,62.0,0,240,0.0,41.0
2952,75.0,0,120,0.0,57.0
2953,65.0,120,240,0.0,38.0
2954,74.0,120,120,0.0,54.0
2955,74.0,0,240,0.0,63.0
2956,63.0,120,240,0.0,41.0
2957,72.0,0,240,0.0,60.0
2958,67.0,240,240,0.0,38.0
2959,63.0,240,240,0.0,41.0
2960,72.0,0,240,0.0,59.0
2961,67.0,240,240,0.0,38.0
2962,72.0,240,240,0.0,63.0
2963,64.0,0,240,0.0,41.0
2964,70.0,0,240,0.0,59.0
2965,67.0,240,240,0.0,38.0
2966,64.0,240,240,0.0,41.0
2967,70.0,0,240,0.0,52.0
2968,67.0,240,240,0.0,38.0
2969,69.0,0,120,0.0,64.0
2970,70.0,120,120,0.0,58.0
2971,69.0,120,120,0.0,62.0
2972,65.0,120,120,0.0,58.0
2973,53.0,240,480,0.0,41.0
2974,70.0,0,120,0.0,69.0
2975,72.0,120,120,0.0,62.0
2976,70.0,120,120,0.0,67.0
2977,65.0,120,120,0.0,59.0
2978,55.0,120,480,0.0,47.0
2979,72.0,120,120,0.0,70.0
2980,74.0,120,120,0.0,64.0
2981,72.0,120,120,0.0,69.0
2982,57.0,0,480,0.0,52.0
2983,65.0,120,120,0.0,63.0
2984,74.0,0,120,0.0,77.0
2985,75.0,120,120,0.0,67.0
2986,74.0,120,120,0.0,72.0
2987,58.0,120,480,0.0,58.0
2988,65.0,120,120,0.0,67.0
2989,75.0,0,120,0.0,78.0
2990,60.0,120,240,0.0,64.0
2991,75.0,240,120,0.0,78.0
2992,65.0,0,240,0.0,45.0
2993,57.0,240,240,0.0,51.0
2994,72.0,0,120,0.0,73.0
2995,65.0,240,240,0.0,46.0
2996,58.0,240,240,0.0,52.0
2997,75.0,0,240,0.0,79.0
2998,74.0,0,120,0.0,72.0
2999,65.0,240,240,0.0,46.0
3000,72.0,240,120,0.0,74.0
3001,55.0,0,240,0.0,52.0
3002,70.0,240,120,0.0,71.0
3003,65.0,0,240,0.0,46.0
3004,69.0,240,120,0.0,67.0
3005,65.0,120,120,0.0,59.0
3006,76.0,120,120,0.0,61.0
3007,53.0,0,480,0.0,40.0
3008,77.0,120,120,0.0,59.0
3009,70.0,0,120,0.0,70.0
3010,65.0,120,120,0.0,59.0
3011,76.0,120,120,0.0,66.0
3012,77.0,120,120,0.0,61.0
3013,55.0,120,480,0.0,46.0
3014,72.0,120,120,0.0,74.0
3015,65.0,120,120,0.0,64.0
3016,76.0,120,120,0.0,69.0
3017,57.0,0,480,0.0,51.0
3018,77.0,120,120,0.0,62.0
3019,74.0,0,120,0.0,79.0
3020,65.0,120,120,0.0,69.0
3021,76.0,120,120,0.0,73.0
3022,58.0,120,480,0.0,58.0
3023,77.0,120,120,0.0,69.0
3024,60.0,0,120,0.0,64.0
3025,75.0,120,120,0.0,79.0
3026,65.0,120,120,0.0,45.0
3027,64.0,120,120,0.0,49.0
3028,75.0,0,120,0.0,79.0
3029,65.0,120,120,0.0,45.0
3030,57.0,120,120,0.0,56.0
3031,65.0,120,120,0.0,46.0
3032,74.0,0,60,0.0,57.0
3033,64.0,120,120,0.0,49.0
3034,72.0,60,60,0.0,52.0
3035,71.0,0,60,0.0,57.0
3036,65.0,60,120,0.0,46.0
3037,72.0,60,60,0.0,52.0
3038,58.0,0,120,0.0,56.0
3039,65.0,120,120,0.0,46.0
3040,75.0,60,240,0.0,72.0
3041,64.0,0,120,0.0,49.0
3042,74.0,120,120,0.0,71.0
3043,65.0,120,120,0.0,47.0
3044,55.0,0,120,0.0,57.0
3045,72.0,120,120,0.0,71.0
3046,64.0,120,120,0.0,45.0
3047,70.0,0,120,0.0,68.0
3048,62.0,120,120,0.0,49.0
3049,64.0,120,120,0.0,46.0
3050,69.0,0,120,0.0,78.0
3051,77.0,120,120,0.0,69.0
3052,72.0,120,120,0.0,73.0
3053,69.0,120,120,0.0,70.0
3054,65.0,120,0,0.0,77.0
3055,53.0,0,480,0.0,59.0
3056,60.0,120,120,0.0,69.0
3057,57.0,120,120,0.0,70.0
3058,53.0,120,120,0.0,67.0
3059,29.0,120,240,0.0,75.0
3060,41.0,0,240,0.0,75.0
3061,65.0,0,720,0.0,72.0
3062,62.0,0,720,0.0,72.0
3063,53.0,960,720,0.0,72.0
3064,58.0,0,720,0.0,72.0
3065,67.0,720,120,0.0,48.0
3066,46.0,0,960,0.0,58.0
3067,34.0,0,960,0.0,58.0
3068,65.0,120,120,0.0,45.0
3069,63.0,120,120,0.0,52.0
3070,62.0,240,120,0.0,48.0
3071,60.0,240,120,0.0,52.0
3072,58.0,240,120,0.0,48.0
3073,58.0,240,240,0.0,54.0
3074,67.0,0,0,0.0,72.0
3075,58.0,0,720,0.0,72.0
3076,65.0,720,240,0.0,53.0
3077,51.0,240,960,0.0,57.0
3078,39.0,0,960,0.0,57.0
3079,69.0,240,240,0.0,53.0
3080,50.0,0,480,0.0,44.0
3081,70.0,240,240,0.0,52.0
3082,70.0,0,240,0.0,61.0
3083,55.0,0,480,0.0,38.0
3084,52.0,240,480,0.0,38.0
3085,60.0,240,480,0.0,53.0
3086,62.0,240,240,0.0,53.0
3087,53.0,240,480,0.0,38.0
3088,70.0,240,240,0.0,61.0
3089,52.0,0,480,0.0,38.0
3090,55.0,0,480,0.0,38.0
3091,60.0,240,480,0.0,51.0
3092,53.0,240,480,0.0,40.0
3093,62.0,240,240,0.0,53.0
3094,55.0,240,480,0.0,39.0
3095,65.0,0,0,0.0,52.0
3096,63.0,60,60,0.0,47.0
3097,65.0,60,60,0.0,52.0
3098,63.0,60,60,0.0,49.0
3099,65.0,60,60,0.0,52.0
3100,63.0,60,60,0.0,49.0
3101,62.0,60,60,0.0,52.0
3102,57.0,480,480,0.0,35.0
3103,63.0,60,60,0.0,48.0
3104,62.0,0,120,0.0,57.0
3105,62.0,240,240,0.0,51.0
3106,58.0,60,480,0.0,35.0
3107,63.0,240,240,0.0,53.0
3108,65.0,240,240,0.0,51.0
3109,66.0,240,240,0.0,65.0
3110,39.0,0,240,0.0,46.0
3111,43.0,240,240,0.0,46.0
3112,67.0,240,480,0.0,54.0
3113,65.0,240,120,0.0,53.0
3114,48.0,0,240,0.0,45.0
3115,63.0,120,120,0.0,50.0
3116,62.0,0,240,0.0,54.0
3117,60.0,240,240,0.0,51.0
3118,51.0,120,480,0.0,52.0
3119,62.0,240,240,0.0,52.0
3120,63.0,240,240,0.0,51.0
3121,67.0,240,240,0.0,63.0
3122,38.0,0,240,0.0,44.0
3123,41.0,240,240,0.0,44.0
3124,65.0,240,480,0.0,53.0
3125,63.0,0,120,0.0,54.0
3126,46.0,240,240,0.0,43.0
3127,62.0,120,120,0.0,49.0
3128,60.0,120,240,0.0,56.0
3129,58.0,240,240,0.0,52.0
3130,50.0,0,480,0.0,52.0
3131,60.0,240,240,0.0,54.0
3132,62.0,240,240,0.0,50.0
3133,65.0,240,240,0.0,63.0
3134,48.0,0,480,0.0,44.0
3135,63.0,240,480,0.0,51.0
3136,45.0,240,480,0.0,41.0
3137,60.0,240,240,0.0,51.0
3138,63.0,0,240,0.0,62.0
3139,46.0,240,480,0.0,43.0
3140,62.0,240,480,0.0,52.0
3141,58.0,240,240,0.0,52.0
3142,43.0,240,480,0.0,42.0
3143,57.0,240,120,0.0,48.0
3144,58.0,120,120,0.0,49.0
3145,59.0,120,120,0.0,50.0
3146,60.0,120,120,0.0,51.0
3147,41.0,0,480,0.0,44.0
3148,61.0,120,120,0.0,52.0
3149,62.0,120,120,0.0,53.0
3150,63.0,120,120,0.0,54.0
3151,64.0,120,120,0.0,54.0
3152,53.0,120,120,0.0,53.0
3153,55.0,120,120,0.0,49.0
3154,51.0,120,120,0.0,54.0
3155,53.0,120,120,0.0,49.0
3156,65.0,0,480,0.0,56.0
3157,50.0,120,120,0.0,54.0
3158,51.0,120,120,0.0,49.0
3159,48.0,120,120,0.0,56.0
3160,50.0,120,120,0.0,49.0
3161,46.0,0,480,0.0,69.0
3162,74.0,0,720,0.0,73.0
3163,70.0,0,720,0.0,73.0
3164,65.0,120,720,0.0,73.0
3165,77.0,0,720,0.0,73.0
3166,79.0,240,120,0.0,51.0
3167,58.0,480,480,0.0,58.0
3168,77.0,120,120,0.0,49.0
3169,75.0,120,120,0.0,57.0
3170,74.0,240,120,0.0,50.0
3171,72.0,240,120,0.0,50.0
3172,70.0,240,120,0.0,47.0
3173,70.0,240,240,0.0,53.0
3174,79.0,0,0,0.0,71.0
3175,70.0,240,720,0.0,64.0
3176,77.0,720,240,0.0,53.0
3177,63.0,0,960,0.0,59.0
3178,51.0,0,960,0.0,59.0
3179,81.0,0,240,0.0,66.0
3180,62.0,240,480,0.0,43.0
3181,82.0,240,480,0.0,63.0
3182,64.0,240,480,0.0,43.0
3183,67.0,0,480,0.0,43.0
3184,72.0,240,240,0.0,53.0
3185,74.0,240,240,0.0,53.0
3186,65.0,0,480,0.0,43.0
3187,82.0,240,480,0.0,68.0
3188,72.0,240,240,0.0,53.0
3189,67.0,0,480,0.0,43.0
3190,64.0,240,480,0.0,43.0
3191,74.0,0,240,0.0,53.0
3192,82.0,240,120,0.0,67.0
3193,65.0,240,480,0.0,41.0
3194,67.0,240,480,0.0,43.0
3195,77.0,0,480,0.0,54.0
3196,70.0,0,480,0.0,43.0
3197,76.0,0,240,0.0,53.0
3198,69.0,480,480,0.0,43.0
3199,72.0,0,480,0.0,43.0
3200,75.0,240,240,0.0,53.0
3201,74.0,0,120,0.0,48.0
3202,74.0,240,240,0.0,54.0
3203,70.0,240,480,0.0,46.0
3204,75.0,240,240,0.0,60.0
3205,77.0,240,240,0.0,64.0
3206,78.0,240,240,0.0,74.0
3207,55.0,240,240,0.0,54.0
3208,67.0,240,120,0.0,61.0
3209,79.0,0,480,0.0,70.0
3210,65.0,240,120,0.0,53.0
3211,81.0,0,120,0.0,70.0
3212,83.0,120,120,0.0,67.0
3213,63.0,120,120,0.0,60.0
3214,84.0,0,120,0.0,70.0
3215,86.0,120,120,0.0,67.0
3216,87.0,120,120,0.0,70.0
3217,86.0,120,120,0.0,66.0
3218,51.0,0,240,0.0,53.0
3219,84.0,120,120,0.0,70.0
3220,63.0,0,120,0.0,61.0
3221,86.0,120,120,0.0,67.0
3222,82.0,120,120,0.0,70.0
3223,62.0,0,120,0.0,53.0
3224,84.0,120,120,0.0,67.0
3225,81.0,120,120,0.0,69.0
3226,82.0,120,120,0.0,66.0
3227,60.0,0,240,0.0,57.0
3228,79.0,120,120,0.0,69.0
3229,81.0,120,120,0.0,64.0
3230,58.0,0,240,0.0,53.0
3231,77.0,120,120,0.0,71.0
3232,57.0,0,240,0.0,53.0
3233,79.0,120,120,0.0,67.0
3234,75.0,0,120,0.0,71.0
3235,77.0,120,120,0.0,67.0
3236,53.0,120,240,0.0,53.0
3237,74.0,120,120,0.0,68.0
3238,75.0,120,120,0.0,64.0
3239,77.0,120,120,0.0,68.0
3240,58.0,0,480,0.0,60.0
3241,79.0,120,120,0.0,65.0
3242,81.0,120,120,0.0,70.0
3243,82.0,120,120,0.0,66.0
3244,81.0,120,120,0.0,69.0
3245,50.0,0,480,0.0,54.0
3246,82.0,120,120,0.0,65.0
3247,84.0,120,120,0.0,72.0
3248,82.0,120,120,0.0,70.0
3249,81.0,120,120,0.0,69.0
3250,51.0,0,480,0.0,59.0
3251,79.0,120,120,0.0,67.0
3252,81.0,0,120,0.0,72.0
3253,79.0,120,120,0.0,70.0
3254,77.0,120,120,0.0,69.0
3255,63.0,120,480,0.0,53.0
3256,75.0,120,120,0.0,67.0
3257,65.0,120,480,0.0,54.0
3258,74.0,0,0,0.0,58.0
3259,72.0,60,60,0.0,54.0
3260,74.0,60,60,0.0,58.0
3261,72.0,60,60,0.0,53.0
3262,74.0,60,60,0.0,58.0
3263,72.0,60,60,0.0,54.0
3264,70.0,60,60,0.0,66.0
3265,53.0,0,480,0.0,53.0
3266,69.0,480,480,0.0,58.0
3267,72.0,60,60,0.0,62.0
3268,58.0,60,120,0.0,53.0
3269,65.0,120,120,0.0,46.0
3270,64.0,120,120,0.0,49.0
3271,70.0,0,480,0.0,75.0
3272,65.0,120,120,0.0,46.0
3273,67.0,120,120,0.0,53.0
3274,65.0,120,120,0.0,47.0
3275,64.0,120,120,0.0,49.0
3276,65.0,120,120,0.0,46.0
3277,63.0,120,120,0.0,53.0
3278,65.0,120,120,0.0,51.0
3279,62.0,120,120,0.0,53.0
3280,63.0,120,120,0.0,49.0
3281,60.0,120,120,0.0,53.0
3282,65.0,120,120,0.0,50.0
3283,58.0,120,120,0.0,53.0
3284,65.0,120,120,0.0,50.0
3285,57.0,0,120,0.0,48.0
3286,75.0,120,240,0.0,85.0
3287,65.0,120,120,0.0,40.0
3288,60.0,0,120,0.0,42.0
3289,72.0,120,120,0.0,56.0
3290,65.0,120,120,0.0,38.0
3291,69.0,0,120,0.0,62.0
3292,63.0,120,120,0.0,48.0
3293,65.0,120,120,0.0,40.0
3294,69.0,0,120,0.0,56.0
3295,63.0,120,120,0.0,42.0
3296,65.0,120,120,0.0,39.0
3297,57.0,0,120,0.0,47.0
3298,65.0,120,120,0.0,40.0
3299,75.0,120,240,0.0,85.0
3300,63.0,120,120,0.0,43.0
3301,72.0,0,120,0.0,54.0
3302,65.0,120,120,0.0,40.0
3303,63.0,0,120,0.0,48.0
3304,69.0,120,120,0.0,60.0
3305,65.0,120,120,0.0,42.0
3306,69.0,120,120,0.0,54.0
3307,63.0,0,120,0.0,42.0
3308,65.0,120,120,0.0,42.0
3309,62.0,120,120,0.0,44.0
3310,70.0,0,120,0.0,62.0
3311,65.0,120,120,0.0,45.0
3312,72.0,120,120,0.0,63.0
3313,57.0,0,120,0.0,45.0
3314,65.0,120,120,0.0,45.0
3315,74.0,120,120,0.0,64.0
3316,58.0,0,120,0.0,46.0
3317,65.0,120,120,0.0,47.0
3318,60.0,0,120,0.0,48.0
3319,75.0,120,120,0.0,66.0
3320,65.0,120,120,0.0,49.0
3321,61.0,0,120,0.0,53.0
3322,65.0,120,120,0.0,48.0
3323,76.0,120,240,0.0,88.0
3324,62.0,120,120,0.0,53.0
3325,77.0,0,240,0.0,75.0
3326,65.0,120,120,0.0,46.0
3327,61.0,120,120,0.0,53.0
3328,76.0,0,240,0.0,87.0
3329,65.0,120,120,0.0,46.0
3330,62.0,0,120,0.0,53.0
3331,65.0,120,120,0.0,47.0
3332,77.0,120,240,0.0,75.0
3333,57.0,0,120,0.0,48.0
3334,87.0,120,240,0.0,97.0
3335,75.0,0,240,0.0,82.0
3336,65.0,120,120,0.0,39.0
3337,72.0,0,120,0.0,48.0
3338,84.0,0,120,0.0,57.0
3339,60.0,120,120,0.0,42.0
3340,65.0,120,120,0.0,39.0
3341,63.0,0,120,0.0,48.0
3342,69.0,0,120,0.0,52.0
3343,81.0,120,120,0.0,62.0
3344,65.0,120,120,0.0,40.0
3345,63.0,0,120,0.0,42.0
3346,81.0,0,120,0.0,56.0
3347,69.0,120,120,0.0,47.0
3348,65.0,120,120,0.0,39.0
3349,57.0,120,120,0.0,47.0
3350,75.0,0,240,0.0,82.0
3351,87.0,0,240,0.0,97.0
3352,65.0,120,120,0.0,39.0
3353,72.0,120,120,0.0,45.0
3354,63.0,0,120,0.0,43.0
3355,84.0,0,120,0.0,54.0
3356,65.0,120,120,0.0,39.0
3357,63.0,120,120,0.0,48.0
3358,69.0,0,120,0.0,51.0
3359,81.0,0,120,0.0,60.0
3360,65.0,120,120,0.0,42.0
3361,69.0,0,120,0.0,45.0
3362,63.0,0,120,0.0,42.0
3363,81.0,120,120,0.0,54.0
3364,65.0,120,120,0.0,42.0
3365,70.0,0,120,0.0,52.0
3366,82.0,120,120,0.0,62.0
3367,62.0,0,120,0.0,44.0
3368,65.0,120,120,0.0,45.0
3369,72.0,120,120,0.0,53.0
3370,84.0,0,120,0.0,63.0
3371,57.0,0,120,0.0,45.0
3372,65.0,120,120,0.0,45.0
3373,58.0,0,120,0.0,46.0
3374,74.0,0,120,0.0,54.0
3375,86.0,120,120,0.0,64.0
3376,65.0,120,120,0.0,47.0
3377,75.0,120,120,0.0,56.0
3378,87.0,0,120,0.0,66.0
3379,60.0,0,120,0.0,48.0
3380,65.0,120,120,0.0,49.0
3381,61.0,120,120,0.0,53.0
3382,76.0,0,240,0.0,76.0
3383,88.0,0,240,0.0,90.0
3384,65.0,120,120,0.0,48.0
3385,62.0,0,120,0.0,53.0
3386,77.0,0,240,0.0,63.0
3387,89.0,120,240,0.0,75.0
3388,65.0,120,120,0.0,46.0
3389,61.0,120,120,0.0,53.0
3390,88.0,0,240,0.0,91.0
3391,76.0,0,240,0.0,77.0
3392,65.0,120,120,0.0,46.0
3393,62.0,0,120,0.0,53.0
3394,89.0,0,240,0.0,75.0
3395,77.0,120,240,0.0,63.0
3396,65.0,120,120,0.0,47.0
3397,51.0,240,240,0.0,38.0
3398,50.0,240,240,0.0,40.0
3399,67.0,120,960,0.0,56.0
3400,79.0,0,960,0.0,66.0
3401,51.0,240,240,0.0,38.0
3402,53.0,240,240,0.0,38.0
3403,52.0,240,240,0.0,40.0
3404,53.0,240,240,0.0,38.0
3405,57.0,240,960,0.0,45.0
3406,69.0,0,960,0.0,54.0
3407,54.0,240,240,0.0,38.0
3408,52.0,240,240,0.0,42.0
3409,75.0,0,960,0.0,65.0
3410,87.0,240,960,0.0,77.0
3411,54.0,240,240,0.0,38.0
3412,55.0,240,240,0.0,40.0
3413,54.0,240,240,0.0,42.0
3414,86.0,240,960,0.0,68.0
3415,55.0,240,240,0.0,39.0
3416,74.0,0,960,0.0,57.0
3417,86.0,240,120,0.0,75.0
3418,84.0,120,120,0.0,68.0
3419,87.0,120,120,0.0,72.0
3420,86.0,120,120,0.0,67.0
3421,89.0,0,120,0.0,75.0
3422,87.0,120,120,0.0,71.0
3423,86.0,120,120,0.0,72.0
3424,63.0,120,480,0.0,54.0
3425,72.0,0,480,0.0,54.0
3426,84.0,120,120,0.0,68.0
3427,74.0,0,480,0.0,54.0
3428,82.0,120,480,0.0,75.0
3429,75.0,480,480,0.0,45.0
3430,65.0,0,960,0.0,54.0
3431,81.0,0,480,0.0,63.0
3432,82.0,240,240,0.0,47.0
3433,81.0,240,240,0.0,50.0
3434,82.0,240,240,0.0,47.0
3435,74.0,0,0,0.0,34.0
3436,70.0,240,0,0.0,28.0
3437,80.0,240,240,0.0,46.0
3438,79.0,240,240,0.0,51.0
3439,80.0,240,240,0.0,46.0
3440,79.0,240,240,0.0,44.0
3441,78.0,240,240,0.0,48.0
3442,79.0,240,240,0.0,45.0
3443,74.0,0,960,0.0,29.0
3444,70.0,0,960,0.0,29.0
3445,77.0,240,960,0.0,35.0
3446,79.0,240,240,0.0,44.0
3447,91.0,240,0,0.0,48.0
3448,75.0,0,960,0.0,34.0
3449,72.0,240,960,0.0,28.0
3450,91.0,240,240,0.0,50.0
3451,77.0,240,0,0.0,44.0
3452,69.0,0,960,0.0,29.0
3453,75.0,0,960,0.0,35.0
3454,72.0,240,960,0.0,29.0
3455,77.0,240,240,0.0,46.0
3456,86.0,240,0,0.0,48.0
3457,74.0,0,960,0.0,33.0
3458,70.0,240,0,0.0,29.0
3459,86.0,240,240,0.0,49.0
3460,75.0,240,240,0.0,45.0
3461,75.0,240,120,0.0,45.0
3462,67.0,0,960,0.0,29.0
3463,74.0,0,960,0.0,35.0
3464,75.0,240,240,0.0,44.0
3465,84.0,240,0,0.0,47.0
3466,69.0,0,0,0.0,28.0
3467,72.0,240,0,0.0,33.0
3468,84.0,240,240,0.0,48.0
3469,74.0,240,0,0.0,44.0
3470,66.0,0,960,0.0,28.0
3471,74.0,240,240,0.0,44.0
3472,82.0,240,0,0.0,46.0
3473,67.0,0,960,0.0,28.0
3474,70.0,240,960,0.0,34.0
3475,82.0,240,240,0.0,54.0
3476,72.0,0,120,0.0,44.0
3477,70.0,240,239,0.0,36.0
3478,64.0,0,239,0.0,30.0
3479,70.0,0,239,0.0,42.0
3480,64.0,240,240,0.0,35.0
3481,70.0,0,240,0.0,38.0
3482,64.0,240,240,0.0,32.0
3483,82.0,240,240,0.0,63.0
3484,74.0,240,120,0.0,52.0
3485,70.0,0,240,0.0,41.0
3486,65.0,0,240,0.0,34.0
3487,70.0,0,240,0.0,46.0
3488,65.0,240,240,0.0,39.0
3489,65.0,240,240,0.0,37.0
3490,70.0,0,240,0.0,44.0
3491,82.0,240,240,0.0,69.0
3492,75.0,0,120,0.0,54.0
3493,70.0,0,240,0.0,46.0
3494,67.0,240,240,0.0,39.0
3495,70.0,0,240,0.0,53.0
3496,67.0,240,240,0.0,45.0
3497,70.0,0,240,0.0,50.0
3498,67.0,240,240,0.0,42.0
3499,82.0,240,240,0.0,81.0
3500,76.0,0,120,0.0,67.0
3501,70.0,240,0,0.0,69.0
3502,66.0,0,0,0.0,58.0
3503,66.0,240,240,0.0,54.0
3504,70.0,0,240,0.0,64.0
3505,82.0,240,240,0.0,89.0
3506,77.0,240,120,0.0,83.0
3507,65.0,0,480,0.0,53.0
3508,70.0,0,480,0.0,63.0
3509,82.0,240,240,0.0,89.0
3510,78.0,240,120,0.0,83.0
3511,62.0,0,480,0.0,53.0
3512,70.0,0,0,0.0,63.0
3513,82.0,240,240,0.0,89.0
3514,79.0,240,240,0.0,85.0
3515,63.0,0,480,0.0,53.0
3516,87.0,240,240,0.0,89.0
3517,65.0,0,480,0.0,63.0
3518,60.0,0,480,0.0,53.0
3519,81.0,240,240,0.0,85.0
3520,87.0,240,60,0.0,82.0
3521,86.0,60,60,0.0,81.0
3522,84.0,60,60,0.0,85.0
3523,86.0,60,60,0.0,78.0
3524,58.0,0,480,0.0,51.0
3525,65.0,0,480,0.0,60.0
3526,89.0,60,240,0.0,94.0
3527,84.0,0,60,0.0,81.0
3528,82.0,60,60,0.0,76.0
3529,81.0,60,60,0.0,81.0
3530,82.0,60,60,0.0,75.0
3531,86.0,60,240,0.0,92.0
3532,53.0,240,480,0.0,51.0
3533,50.0,0,480,0.0,43.0
3534,81.0,240,60,0.0,75.0
3535,79.0,60,60,0.0,69.0
3536,78.0,60,60,0.0,75.0
3537,79.0,60,60,0.0,71.0
3538,58.0,0,480,0.0,50.0
3539,82.0,60,240,0.0,88.0
3540,51.0,240,0,0.0,39.0
3541,74.0,0,60,0.0,71.0
3542,72.0,60,60,0.0,66.0
3543,71.0,60,60,0.0,71.0
3544,72.0,60,60,0.0,67.0
3545,74.0,60,240,0.0,79.0
3546,55.0,0,480,0.0,46.0
3547,65.0,240,60,0.0,74.0
3548,77.0,120,120,0.0,76.0
3549,79.0,120,120,0.0,78.0
3550,77.0,120,120,0.0,76.0
3551,75.0,120,120,0.0,76.0
3552,74.0,120,120,0.0,71.0
3553,72.0,120,120,0.0,72.0
3554,50.0,0,480,0.0,46.0
3555,70.0,120,120,0.0,70.0
3556,74.0,0,60,0.0,54.0
3557,72.0,60,60,0.0,50.0
3558,74.0,60,60,0.0,54.0
3559,72.0,60,60,0.0,49.0
3560,74.0,60,60,0.0,54.0
3561,72.0,60,60,0.0,49.0
3562,74.0,60,60,0.0,54.0
3563,72.0,60,60,0.0,49.0
3564,58.0,0,960,0.0,46.0
3565,51.0,120,480,0.0,46.0
3566,74.0,0,60,0.0,54.0
3567,72.0,60,60,0.0,49.0
3568,74.0,60,60,0.0,54.0
3569,72.0,60,60,0.0,51.0
3570,74.0,60,60,0.0,54.0
3571,72.0,60,60,0.0,50.0
3572,70.0,60,60,0.0,66.0
3573,57.0,60,480,0.0,46.0
3574,53.0,0,480,0.0,46.0
3575,72.0,60,60,0.0,62.0
3576,70.0,0,120,0.0,70.0
3577,46.0,0,120,0.0,52.0
3578,58.0,60,120,0.0,52.0
3579,58.0,240,120,0.0,47.0
3580,62.0,120,120,0.0,45.0
3581,60.0,120,120,0.0,47.0
3582,63.0,120,120,0.0,45.0
3583,57.0,0,240,0.0,35.0
3584,62.0,0,120,0.0,47.0
3585,56.0,120,240,0.0,33.0
3586,65.0,120,120,0.0,45.0
3587,55.0,0,120,0.0,43.0
3588,63.0,0,120,0.0,48.0
3589,46.0,120,120,0.0,43.0
3590,58.0,240,120,0.0,52.0
3591,62.0,120,120,0.0,48.0
3592,60.0,120,120,0.0,52.0
3593,57.0,0,240,0.0,35.0
3594,63.0,120,120,0.0,48.0
3595,62.0,0,120,0.0,52.0
3596,56.0,120,240,0.0,33.0
3597,65.0,120,120,0.0,48.0
3598,46.0,0,120,0.0,42.0
3599,55.0,0,120,0.0,42.0
3600,63.0,120,120,0.0,52.0
3601,58.0,240,120,0.0,52.0
3602,62.0,120,120,0.0,55.0
3603,60.0,0,120,0.0,57.0
3604,63.0,120,120,0.0,58.0
3605,57.0,120,240,0.0,47.0
3606,62.0,120,120,0.0,59.0
3607,56.0,0,240,0.0,47.0
3608,65.0,120,120,0.0,62.0
3609,63.0,0,120,0.0,63.0
3610,67.0,120,120,0.0,66.0
3611,55.0,120,240,0.0,51.0
3612,65.0,120,120,0.0,67.0
3613,50.0,0,240,0.0,50.0
3614,68.0,120,120,0.0,69.0
3615,67.0,0,120,0.0,70.0
3616,70.0,120,120,0.0,71.0
3617,51.0,120,240,0.0,50.0
3618,69.0,120,120,0.0,73.0
3619,48.0,0,240,0.0,50.0
3620,72.0,120,120,0.0,75.0
3621,70.0,0,120,0.0,77.0
3622,72.0,120,120,0.0,79.0
3623,74.0,120,120,0.0,82.0
3624,50.0,120,480,0.0,57.0
3625,72.0,120,120,0.0,82.0
3626,70.0,120,120,0.0,80.0
3627,68.0,120,120,0.0,79.0
3628,67.0,120,120,0.0,78.0
3629,66.0,120,120,0.0,77.0
3630,67.0,0,120,0.0,78.0
3631,72.0,120,120,0.0,79.0
3632,75.0,120,120,0.0,80.0
3633,74.0,120,120,0.0,79.0
3634,51.0,120,480,0.0,53.0
3635,72.0,120,120,0.0,79.0
3636,70.0,120,120,0.0,78.0
3637,69.0,120,120,0.0,75.0
3638,67.0,120,120,0.0,74.0
3639,65.0,120,120,0.0,75.0
3640,70.0,120,120,0.0,79.0
3641,53.0,0,240,0.0,52.0
3642,74.0,0,120,0.0,82.0
3643,77.0,120,120,0.0,88.0
3644,58.0,120,240,0.0,48.0
3645,82.0,0,120,0.0,94.0
3646,62.0,120,240,0.0,48.0
3647,70.0,240,120,0.0,64.0
3648,74.0,0,120,0.0,64.0
3649,58.0,0,240,0.0,48.0
3650,74.0,0,240,0.0,70.0
3651,77.0,0,240,0.0,70.0
3652,53.0,240,240,0.0,53.0
3653,75.0,0,120,0.0,66.0
3654,72.0,0,120,0.0,66.0
3655,60.0,240,240,0.0,49.0
3656,74.0,240,120,0.0,67.0
3657,70.0,0,120,0.0,67.0
3658,63.0,0,240,0.0,49.0
3659,72.0,0,120,0.0,67.0
3660,69.0,0,120,0.0,67.0
3661,60.0,240,240,0.0,48.0
3662,62.0,0,120,0.0,56.0
3663,58.0,0,120,0.0,56.0
3664,70.0,240,120,0.0,67.0
3665,70.0,240,120,0.0,47.0
3666,74.0,120,120,0.0,45.0
3667,72.0,120,120,0.0,47.0
3668,75.0,120,120,0.0,45.0
3669,69.0,0,240,0.0,35.0
3670,74.0,120,120,0.0,47.0
3671,77.0,120,120,0.0,45.0
3672,68.0,0,240,0.0,35.0
3673,58.0,0,120,0.0,43.0
3674,67.0,120,120,0.0,43.0
3675,75.0,0,120,0.0,48.0
3676,82.0,240,120,0.0,62.0
3677,86.0,120,120,0.0,58.0
3678,70.0,0,240,0.0,35.0
3679,84.0,120,120,0.0,62.0
3680,87.0,120,120,0.0,59.0
3681,69.0,0,240,0.0,35.0
3682,86.0,120,120,0.0,62.0
3683,68.0,0,240,0.0,35.0
3684,89.0,120,120,0.0,58.0
3685,87.0,120,120,0.0,68.0
3686,58.0,0,120,0.0,46.0
3687,67.0,0,120,0.0,46.0
3688,70.0,0,120,0.0,55.0
3689,74.0,120,120,0.0,56.0
3690,72.0,120,120,0.0,58.0
3691,75.0,120,120,0.0,59.0
3692,69.0,0,240,0.0,47.0
3693,74.0,0,120,0.0,61.0
3694,68.0,120,240,0.0,47.0
3695,77.0,120,120,0.0,63.0
3696,75.0,120,120,0.0,64.0
3697,70.0,120,120,0.0,67.0
3698,67.0,0,240,0.0,51.0
3699,77.0,0,120,0.0,68.0
3700,70.0,120,120,0.0,69.0
3701,62.0,120,240,0.0,49.0
3702,79.0,120,120,0.0,70.0
3703,70.0,120,120,0.0,72.0
3704,63.0,0,240,0.0,50.0
3705,81.0,0,120,0.0,74.0
3706,70.0,120,120,0.0,75.0
3707,60.0,120,240,0.0,50.0
3708,82.0,0,120,0.0,78.0
3709,84.0,120,120,0.0,78.0
3710,86.0,120,120,0.0,77.0
3711,62.0,0,480,0.0,68.0
3712,50.0,120,480,0.0,68.0
3713,84.0,120,120,0.0,75.0
3714,82.0,120,120,0.0,74.0
3715,80.0,120,120,0.0,73.0
3716,79.0,120,120,0.0,72.0
3717,78.0,120,120,0.0,71.0
3718,79.0,0,120,0.0,79.0
3719,77.0,120,120,0.0,79.0
3720,75.0,120,120,0.0,78.0
3721,74.0,120,120,0.0,77.0
3722,51.0,120,480,0.0,69.0
3723,63.0,0,480,0.0,69.0
3724,72.0,120,120,0.0,75.0
3725,70.0,120,120,0.0,74.0
3726,69.0,120,120,0.0,73.0
3727,67.0,120,120,0.0,73.0
3728,53.0,120,120,0.0,48.0
3729,65.0,0,240,0.0,82.0
3730,62.0,120,120,0.0,41.0
3731,89.0,120,120,0.0,82.0
3732,58.0,0,120,0.0,44.0
3733,62.0,120,120,0.0,39.0
3734,89.0,120,120,0.0,82.0
3735,53.0,0,120,0.0,48.0
3736,62.0,120,120,0.0,40.0
3737,89.0,120,120,0.0,82.0
3738,58.0,0,120,0.0,44.0
3739,62.0,120,120,0.0,41.0
3740,89.0,0,120,0.0,81.0
3741,53.0,120,120,0.0,48.0
3742,86.0,120,120,0.0,76.0
3743,62.0,0,120,0.0,42.0
3744,58.0,0,120,0.0,46.0
3745,82.0,120,120,0.0,71.0
3746,62.0,120,120,0.0,42.0
3747,77.0,0,120,0.0,69.0
3748,82.0,120,120,0.0,81.0
3749,53.0,0,120,0.0,48.0
3750,62.0,0,120,0.0,44.0
3751,77.0,120,120,0.0,75.0
3752,74.0,0,120,0.0,71.0
3753,58.0,120,120,0.0,46.0
3754,70.0,0,120,0.0,69.0
3755,62.0,120,120,0.0,43.0
3756,74.0,120,80,0.0,51.0
3757,53.0,0,120,0.0,48.0
3758,72.0,80,80,0.0,47.0
3759,63.0,40,120,0.0,40.0
3760,74.0,40,80,0.0,51.0
3761,72.0,80,80,0.0,46.0
3762,57.0,0,120,0.0,43.0
3763,74.0,80,80,0.0,51.0
3764,72.0,40,80,0.0,47.0
3765,63.0,40,120,0.0,40.0
3766,74.0,80,80,0.0,51.0
3767,53.0,0,120,0.0,48.0
3768,72.0,80,80,0.0,47.0
3769,63.0,40,120,0.0,39.0
3770,74.0,40,80,0.0,51.0
3771,72.0,0,80,0.0,47.0
3772,57.0,80,120,0.0,43.0
3773,74.0,80,80,0.0,51.0
3774,63.0,40,120,0.0,39.0
3775,72.0,40,80,0.0,47.0
3776,74.0,0,80,0.0,51.0
3777,53.0,80,120,0.0,48.0
3778,72.0,80,80,0.0,48.0
3779,63.0,40,120,0.0,39.0
3780,74.0,40,80,0.0,51.0
3781,72.0,0,80,0.0,47.0
3782,57.0,80,120,0.0,43.0
3783,74.0,80,80,0.0,51.0
3784,72.0,40,80,0.0,46.0
3785,63.0,40,120,0.0,38.0
3786,74.0,0,60,0.0,51.0
3787,72.0,60,60,0.0,47.0
3788,53.0,80,120,0.0,48.0
3789,74.0,0,60,0.0,51.0
3790,72.0,60,60,0.0,47.0
3791,63.0,60,120,0.0,42.0
3792,74.0,0,60,0.0,51.0
3793,57.0,60,120,0.0,45.0
3794,72.0,60,60,0.0,47.0
3795,70.0,0,60,0.0,61.0
3796,72.0,60,60,0.0,56.0
3797,63.0,60,120,0.0,40.0
3798,58.0,0,240,0.0,51.0
3799,70.0,60,240,0.0,69.0
3800,82.0,240,240,0.0,54.0
3801,70.0,0,240,0.0,44.0
3802,69.0,240,240,0.0,44.0
3803,70.0,240,240,0.0,48.0
3804,82.0,0,240,0.0,58.0
3805,81.0,240,240,0.0,56.0
3806,72.0,0,240,0.0,49.0
3807,70.0,240,240,0.0,52.0
3808,82.0,0,240,0.0,61.0
3809,84.0,0,240,0.0,68.0
3810,69.0,240,240,0.0,56.0
3811,68.0,240,240,0.0,59.0
3812,86.0,0,240,0.0,72.0
3813,87.0,0,120,0.0,79.0
3814,86.0,120,120,0.0,73.0
3815,67.0,240,240,0.0,64.0
3816,87.0,120,120,0.0,76.0
3817,86.0,120,120,0.0,70.0
3818,58.0,0,240,0.0,49.0
3819,87.0,0,120,0.0,75.0
3820,85.0,120,120,0.0,67.0
3821,66.0,120,240,0.0,58.0
3822,84.0,0,120,0.0,69.0
3823,58.0,120,240,0.0,49.0
3824,82.0,120,120,0.0,65.0
3825,81.0,120,120,0.0,67.0
3826,82.0,120,120,0.0,70.0
3827,65.0,0,240,0.0,57.0
3828,84.0,120,120,0.0,72.0
3829,58.0,0,240,0.0,48.0
3830,82.0,120,120,0.0,67.0
3831,81.0,120,120,0.0,69.0
3832,69.0,0,240,0.0,55.0
3833,79.0,120,120,0.0,66.0
3834,77.0,120,120,0.0,66.0
3835,58.0,0,240,0.0,48.0
3836,75.0,120,120,0.0,65.0
3837,70.0,120,120,0.0,53.0
3838,74.0,0,120,0.0,63.0
3839,74.0,0,120,0.0,49.0
3840,58.0,240,240,0.0,41.0
3841,57.0,240,240,0.0,41.0
3842,58.0,0,240,0.0,37.0
3843,70.0,240,240,0.0,53.0
3844,69.0,0,240,0.0,49.0
3845,60.0,240,240,0.0,45.0
3846,70.0,0,240,0.0,49.0
3847,58.0,240,240,0.0,43.0
3848,57.0,0,240,0.0,43.0
3849,72.0,240,240,0.0,49.0
3850,56.0,240,240,0.0,38.0
3851,74.0,0,240,0.0,49.0
3852,75.0,0,120,0.0,52.0
3853,77.0,240,60,0.0,52.0
3854,75.0,60,60,0.0,49.0
3855,74.0,60,60,0.0,52.0
3856,55.0,240,480,0.0,45.0
3857,75.0,60,60,0.0,48.0
3858,77.0,0,240,0.0,54.0
3859,51.0,60,480,0.0,35.0
3860,79.0,240,240,0.0,61.0
3861,79.0,0,240,0.0,49.0
3862,75.0,0,240,0.0,49.0
3863,74.0,0,240,0.0,42.0
3864,53.0,240,0,0.0,35.0
3865,77.0,240,240,0.0,42.0
3866,69.0,0,240,0.0,30.0
3867,63.0,0,0,0.0,45.0
3868,58.0,0,480,0.0,37.0
3869,72.0,240,960,0.0,45.0
3870,53.0,480,480,0.0,28.0
3871,46.0,0,360,0.0,28.0
3872,70.0,480,360,0.0,32.0
3873,62.0,0,360,0.0,32.0
3874,74.0,480,120,0.0,47.0
3875,72.0,120,120,0.0,45.0
3876,70.0,120,120,0.0,47.0
3877,69.0,120,120,0.0,45.0
3878,67.0,120,240,0.0,52.0
3879,65.0,240,240,0.0,47.0
3880,41.0,0,240,0.0,33.0
3881,45.0,240,240,0.0,35.0
3882,48.0,240,240,0.0,33.0
3883,65.0,0,720,0.0,47.0
3884,45.0,240,240,0.0,38.0
3885,41.0,0,240,0.0,32.0
3886,77.0,240,240,0.0,52.0
3887,45.0,0,240,0.0,34.0
3888,79.0,240,240,0.0,57.0
3889,81.0,0,240,0.0,61.0
3890,76.0,180,60,0.0,55.0
3891,48.0,240,240,0.0,32.0
3892,82.0,60,360,0.0,69.0
3893,79.0,120,120,0.0,64.0
3894,55.0,240,240,0.0,32.0
3895,58.0,0,240,0.0,35.0
3896,64.0,240,240,0.0,33.0
3897,76.0,120,480,0.0,56.0
3898,58.0,240,240,0.0,34.0
3899,55.0,240,240,0.0,30.0
3900,72.0,0,120,0.0,48.0
3901,70.0,120,120,0.0,48.0
3902,58.0,240,240,0.0,34.0
3903,69.0,120,120,0.0,48.0
3904,67.0,120,120,0.0,46.0
3905,64.0,0,240,0.0,30.0
3906,65.0,120,240,0.0,53.0
3907,43.0,240,240,0.0,32.0
3908,64.0,0,240,0.0,47.0
3909,46.0,240,240,0.0,35.0
3910,52.0,240,240,0.0,32.0
3911,46.0,240,240,0.0,39.0
3912,64.0,0,720,0.0,47.0
3913,43.0,240,240,0.0,33.0
3914,79.0,0,240,0.0,53.0
3915,46.0,0,240,0.0,35.0
3916,81.0,240,240,0.0,58.0
3917,78.0,180,60,0.0,52.0
3918,82.0,0,240,0.0,63.0
3919,52.0,240,240,0.0,33.0
3920,84.0,60,360,0.0,68.0
3921,81.0,120,120,0.0,65.0
3922,57.0,240,240,0.0,33.0
3923,60.0,120,240,0.0,35.0
3924,63.0,240,240,0.0,34.0
3925,78.0,0,480,0.0,57.0
3926,60.0,240,240,0.0,37.0
3927,57.0,240,240,0.0,32.0
3928,81.0,0,240,0.0,60.0
3929,82.0,0,240,0.0,64.0
3930,60.0,240,240,0.0,34.0
3931,63.0,0,240,0.0,34.0
3932,84.0,240,240,0.0,69.0
3933,79.0,180,60,0.0,66.0
3934,86.0,60,360,0.0,84.0
3935,82.0,120,120,0.0,77.0
3936,46.0,240,240,0.0,41.0
3937,79.0,0,240,0.0,72.0
3938,50.0,120,240,0.0,47.0
3939,76.0,180,60,0.0,71.0
3940,55.0,240,240,0.0,44.0
3941,82.0,60,360,0.0,85.0
3942,79.0,120,120,0.0,76.0
3943,48.0,240,240,0.0,46.0
3944,55.0,0,240,0.0,49.0
3945,76.0,120,240,0.0,72.0
3946,58.0,240,240,0.0,46.0
3947,71.0,180,60,0.0,68.0
3948,77.0,60,360,0.0,79.0
3949,74.0,120,120,0.0,73.0
3950,50.0,240,240,0.0,48.0
3951,53.0,0,240,0.0,50.0
3952,56.0,240,240,0.0,45.0
3953,71.0,120,480,0.0,69.0
3954,53.0,240,240,0.0,52.0
3955,50.0,0,240,0.0,49.0
3956,71.0,240,0,0.0,69.0
3957,53.0,0,240,0.0,53.0
3958,56.0,240,240,0.0,50.0
3959,71.0,0,240,0.0,67.0
3960,72.0,0,120,0.0,76.0
3961,81.0,120,120,0.0,69.0
3962,77.0,120,120,0.0,72.0
3963,72.0,120,120,0.0,70.0
3964,69.0,120,120,0.0,76.0
3965,77.0,120,120,0.0,70.0
3966,72.0,120,120,0.0,72.0
3967,48.0,0,960,0.0,63.0
3968,69.0,120,120,0.0,67.0
3969,57.0,240,960,0.0,63.0
3970,72.0,0,240,0.0,72.0
3971,69.0,0,240,0.0,61.0
3972,67.0,240,240,0.0,53.0
3973,60.0,120,480,0.0,48.0
3974,70.0,0,240,0.0,63.0
3975,69.0,0,120,0.0,61.0
3976,65.0,0,120,0.0,51.0
3977,67.0,0,120,0.0,58.0
3978,64.0,240,120,0.0,49.0
3979,48.0,240,480,0.0,45.0
3980,53.0,240,120,0.0,41.0
3981,60.0,120,120,0.0,34.0
3982,56.0,120,120,0.0,37.0
3983,65.0,0,480,0.0,54.0
3984,60.0,120,120,0.0,34.0
3985,53.0,120,120,0.0,41.0
3986,60.0,120,120,0.0,34.0
3987,56.0,120,120,0.0,37.0
3988,60.0,120,120,0.0,34.0
3989,53.0,120,120,0.0,46.0
3990,60.0,120,120,0.0,36.0
3991,65.0,0,120,0.0,54.0
3992,67.0,120,120,0.0,58.0
3993,56.0,0,120,0.0,41.0
3994,60.0,0,120,0.0,37.0
3995,68.0,120,120,0.0,61.0
3996,70.0,0,120,0.0,63.0
3997,53.0,120,120,0.0,49.0
3998,72.0,0,120,0.0,65.0
3999,60.0,120,120,0.0,39.0
4000,74.0,120,120,0.0,68.0
4001,56.0,0,120,0.0,44.0
4002,76.0,120,120,0.0,71.0
4003,60.0,0,120,0.0,39.0
4004,53.0,120,120,0.0,49.0
4005,77.0,0,120,0.0,75.0
4006,72.0,0,120,0.0,71.0
4007,60.0,120,120,0.0,43.0
4008,80.0,0,120,0.0,75.0
4009,56.0,120,120,0.0,45.0
4010,79.0,0,120,0.0,72.0
4011,60.0,120,120,0.0,43.0
4012,53.0,0,120,0.0,49.0
4013,77.0,120,120,0.0,75.0
4014,60.0,120,120,0.0,43.0
4015,72.0,0,120,0.0,71.0
4016,56.0,120,120,0.0,45.0
4017,80.0,0,120,0.0,72.0
4018,79.0,0,120,0.0,70.0
4019,60.0,120,120,0.0,43.0
4020,53.0,120,120,0.0,48.0
4021,77.0,0,120,0.0,72.0
4022,62.0,120,120,0.0,42.0
4023,79.0,0,120,0.0,71.0
4024,56.0,0,120,0.0,45.0
4025,75.0,120,120,0.0,71.0
4026,77.0,120,120,0.0,68.0
4027,62.0,0,120,0.0,43.0
4028,53.0,0,120,0.0,47.0
4029,74.0,120,120,0.0,70.0
4030,75.0,120,120,0.0,67.0
4031,62.0,0,120,0.0,43.0
4032,72.0,120,120,0.0,68.0
4033,56.0,0,120,0.0,45.0
4034,74.0,120,120,0.0,68.0
4035,62.0,0,120,0.0,43.0
4036,55.0,120,120,0.0,54.0
4037,65.0,120,120,0.0,46.0
4038,71.0,0,240,0.0,67.0
4039,62.0,120,120,0.0,48.0
4040,65.0,120,120,0.0,45.0
4041,55.0,120,120,0.0,54.0
4042,65.0,120,120,0.0,45.0
4043,89.0,0,480,0.0,90.0
4044,62.0,120,120,0.0,48.0
4045,65.0,120,120,0.0,45.0
4046,55.0,120,120,0.0,54.0
4047,87.0,0,480,0.0,89.0
4048,65.0,120,120,0.0,46.0
4049,62.0,0,120,0.0,48.0
4050,65.0,120,120,0.0,45.0
4051,55.0,120,120,0.0,52.0
4052,65.0,120,120,0.0,45.0
4053,86.0,120,480,0.0,88.0
4054,62.0,120,120,0.0,48.0
4055,65.0,120,120,0.0,45.0
4056,55.0,120,120,0.0,53.0
4057,84.0,0,480,0.0,87.0
4058,65.0,120,120,0.0,45.0
4059,62.0,120,120,0.0,48.0
4060,65.0,120,120,0.0,45.0
4061,55.0,120,120,0.0,53.0
4062,65.0,120,120,0.0,45.0
4063,83.0,0,480,0.0,84.0
4064,62.0,120,120,0.0,48.0
4065,65.0,120,120,0.0,45.0
4066,55.0,120,120,0.0,53.0
4067,62.0,120,120,0.0,46.0
4068,80.0,0,480,0.0,78.0
4069,59.0,0,120,0.0,48.0
4070,62.0,120,120,0.0,45.0
4071,55.0,120,120,0.0,53.0
4072,79.0,120,480,0.0,83.0
4073,62.0,120,120,0.0,45.0
4074,59.0,0,120,0.0,48.0
4075,77.0,0,0,0.0,80.0
4076,62.0,120,120,0.0,45.0
4077,55.0,120,120,0.0,48.0
4078,64.0,120,120,0.0,39.0
4079,60.0,0,120,0.0,44.0
4080,64.0,120,120,0.0,39.0
4081,76.0,120,240,0.0,77.0
4082,55.0,0,120,0.0,48.0
4083,63.0,120,120,0.0,41.0
4084,60.0,120,120,0.0,44.0
4085,75.0,120,480,0.0,67.0
4086,63.0,120,120,0.0,41.0
4087,55.0,120,120,0.0,48.0
4088,63.0,0,120,0.0,40.0
4089,75.0,120,120,0.0,65.0
4090,74.0,0,120,0.0,68.0
4091,60.0,120,120,0.0,44.0
4092,75.0,120,120,0.0,66.0
4093,63.0,0,120,0.0,38.0
4094,55.0,120,120,0.0,48.0
4095,77.0,0,120,0.0,68.0
4096,63.0,120,120,0.0,40.0
4097,75.0,0,120,0.0,66.0
4098,74.0,0,120,0.0,68.0
4099,60.0,120,120,0.0,45.0
4100,63.0,0,120,0.0,40.0
4101,75.0,120,120,0.0,65.0
4102,54.0,120,120,0.0,54.0
4103,63.0,120,120,0.0,40.0
4104,78.0,0,360,0.0,77.0
4105,58.0,120,120,0.0,44.0
4106,75.0,0,120,0.0,69.0
4107,63.0,120,120,0.0,41.0
4108,77.0,120,60,0.0,65.0
4109,54.0,0,120,0.0,49.0
4110,75.0,60,60,0.0,62.0
4111,77.0,60,60,0.0,65.0
4112,75.0,60,60,0.0,63.0
4113,63.0,0,120,0.0,42.0
4114,77.0,60,60,0.0,66.0
4115,58.0,0,120,0.0,45.0
4116,75.0,60,60,0.0,64.0
4117,74.0,0,60,0.0,71.0
4118,63.0,60,120,0.0,40.0
4119,75.0,60,60,0.0,69.0
4120,54.0,0,120,0.0,54.0
4121,63.0,120,120,0.0,42.0
4122,58.0,120,120,0.0,45.0
4123,82.0,60,360,0.0,78.0
4124,75.0,0,120,0.0,68.0
4125,63.0,120,120,0.0,42.0
4126,77.0,120,60,0.0,64.0
4127,75.0,60,60,0.0,62.0
4128,54.0,0,120,0.0,48.0
4129,77.0,0,60,0.0,64.0
4130,63.0,60,120,0.0,40.0
4131,75.0,60,60,0.0,62.0
4132,77.0,0,60,0.0,64.0
4133,75.0,60,60,0.0,63.0
4134,58.0,60,120,0.0,45.0
4135,74.0,60,60,0.0,71.0
4136,63.0,0,120,0.0,40.0
4137,75.0,60,60,0.0,68.0
4138,53.0,60,120,0.0,49.0
4139,81.0,0,120,0.0,81.0
4140,63.0,120,120,0.0,40.0
4141,84.0,120,120,0.0,85.0
4142,60.0,0,120,0.0,45.0
4143,63.0,120,120,0.0,41.0
4144,53.0,0,120,0.0,50.0
4145,63.0,120,120,0.0,42.0
4146,60.0,120,120,0.0,45.0
4147,63.0,120,120,0.0,40.0
4148,87.0,120,600,0.0,89.0
4149,53.0,120,120,0.0,50.0
4150,63.0,0,120,0.0,43.0
4151,89.0,120,120,0.0,71.0
4152,86.0,120,120,0.0,77.0
4153,60.0,0,120,0.0,48.0
4154,63.0,0,120,0.0,43.0
4155,87.0,120,120,0.0,71.0
4156,84.0,0,120,0.0,77.0
4157,53.0,120,120,0.0,54.0
4158,86.0,0,120,0.0,71.0
4159,63.0,120,120,0.0,45.0
4160,60.0,120,120,0.0,48.0
4161,82.0,0,120,0.0,77.0
4162,63.0,120,120,0.0,45.0
4163,84.0,0,120,0.0,71.0
4164,81.0,0,120,0.0,72.0
4165,53.0,120,120,0.0,54.0
4166,82.0,120,120,0.0,73.0
4167,63.0,0,120,0.0,45.0
4168,60.0,0,120,0.0,48.0
4169,84.0,120,120,0.0,77.0
4170,63.0,120,120,0.0,44.0
4171,82.0,0,120,0.0,72.0
4172,53.0,120,120,0.0,54.0
4173,81.0,0,120,0.0,71.0
4174,82.0,120,120,0.0,72.0
4175,63.0,0,120,0.0,45.0
4176,84.0,0,120,0.0,73.0
4177,60.0,120,120,0.0,48.0
4178,63.0,0,120,0.0,44.0
4179,86.0,120,120,0.0,70.0
4180,87.0,0,120,0.0,75.0
4181,53.0,120,120,0.0,52.0
4182,86.0,120,120,0.0,70.0
4183,60.0,0,120,0.0,44.0
4184,57.0,0,120,0.0,48.0
4185,84.0,120,120,0.0,72.0
4186,60.0,120,120,0.0,44.0
4187,82.0,0,120,0.0,72.0
4188,53.0,120,120,0.0,53.0
4189,81.0,0,120,0.0,71.0
4190,79.0,0,120,0.0,70.0
4191,60.0,120,120,0.0,44.0
4192,57.0,120,120,0.0,47.0
4193,77.0,0,120,0.0,69.0
4194,75.0,120,120,0.0,68.0
4195,60.0,0,120,0.0,44.0
4196,75.0,120,60,0.0,65.0
4197,77.0,60,60,0.0,63.0
4198,54.0,0,120,0.0,44.0
4199,75.0,60,120,0.0,72.0
4200,60.0,0,120,0.0,39.0
4201,57.0,0,120,0.0,40.0
4202,74.0,120,240,0.0,68.0
4203,60.0,120,120,0.0,35.0
4204,54.0,120,120,0.0,44.0
4205,60.0,120,120,0.0,33.0
4206,57.0,120,120,0.0,39.0
4207,60.0,120,120,0.0,34.0
4208,54.0,120,120,0.0,44.0
4209,74.0,0,720,0.0,68.0
4210,60.0,120,120,0.0,33.0
4211,57.0,120,120,0.0,39.0
4212,60.0,120,120,0.0,33.0
4213,74.0,0,240,0.0,72.0
4214,54.0,120,120,0.0,44.0
4215,62.0,120,120,0.0,35.0
4216,86.0,0,240,0.0,81.0
4217,57.0,120,120,0.0,39.0
4218,62.0,120,120,0.0,34.0
4219,55.0,120,120,0.0,48.0
4220,62.0,120,120,0.0,39.0
4221,84.0,0,480,0.0,77.0
4222,58.0,120,120,0.0,44.0
4223,62.0,120,120,0.0,39.0
4224,53.0,120,120,0.0,48.0
4225,82.0,0,480,0.0,78.0
4226,62.0,120,120,0.0,38.0
4227,57.0,0,120,0.0,44.0
4228,62.0,120,120,0.0,38.0
4229,81.0,120,360,0.0,77.0
4230,52.0,120,120,0.0,48.0
4231,62.0,120,120,0.0,38.0
4232,79.0,0,120,0.0,70.0
4233,55.0,120,120,0.0,44.0
4234,82.0,0,120,0.0,73.0
4235,62.0,120,120,0.0,37.0
4236,81.0,0,120,0.0,70.0
4237,84.0,0,120,0.0,73.0
4238,51.0,120,120,0.0,48.0
4239,82.0,0,120,0.0,69.0
4240,61.0,120,120,0.0,38.0
4241,55.0,120,120,0.0,44.0
4242,81.0,0,120,0.0,73.0
4243,79.0,0,120,0.0,67.0
4244,61.0,120,120,0.0,39.0
4245,78.0,0,60,0.0,71.0
4246,74.0,120,120,0.0,58.0
4247,86.0,120,120,0.0,57.0
4248,85.0,120,120,0.0,57.0
4249,50.0,120,480,0.0,38.0
4250,62.0,0,480,0.0,38.0
4251,86.0,120,120,0.0,56.0
4252,85.0,120,120,0.0,56.0
4253,86.0,120,120,0.0,57.0
4254,85.0,120,120,0.0,58.0
4255,86.0,120,120,0.0,59.0
4256,87.0,120,120,0.0,59.0
4257,84.0,120,120,0.0,60.0
4258,86.0,120,120,0.0,58.0
4259,82.0,120,120,0.0,62.0
4260,84.0,120,120,0.0,60.0
4261,81.0,120,120,0.0,63.0
4262,62.0,0,480,0.0,45.0
4263,82.0,120,120,0.0,61.0
4264,66.0,0,480,0.0,45.0
4265,79.0,0,120,0.0,64.0
4266,81.0,120,120,0.0,63.0
4267,77.0,120,120,0.0,66.0
4268,79.0,120,120,0.0,63.0
4269,63.0,120,480,0.0,45.0
4270,67.0,0,480,0.0,45.0
4271,75.0,120,120,0.0,67.0
4272,77.0,120,120,0.0,64.0
4273,74.0,120,120,0.0,69.0
4274,75.0,120,120,0.0,66.0
4275,73.0,120,120,0.0,70.0
4276,82.0,240,240,0.0,69.0
4277,81.0,0,240,0.0,70.0
4278,61.0,0,480,0.0,54.0
4279,51.0,240,480,0.0,54.0
4280,79.0,240,240,0.0,68.0
4281,78.0,0,60,0.0,71.0
4282,73.0,120,120,0.0,52.0
4283,74.0,120,120,0.0,57.0
4284,62.0,0,480,0.0,49.0
4285,73.0,120,120,0.0,52.0
4286,50.0,240,480,0.0,49.0
4287,74.0,120,120,0.0,57.0
4288,73.0,120,120,0.0,53.0
4289,74.0,120,120,0.0,57.0
4290,73.0,120,120,0.0,53.0
4291,74.0,120,120,0.0,54.0
4292,75.0,120,120,0.0,51.0
4293,72.0,120,120,0.0,53.0
4294,74.0,120,120,0.0,49.0
4295,70.0,0,120,0.0,52.0
4296,72.0,120,120,0.0,49.0
4297,69.0,120,120,0.0,50.0
4298,60.0,0,480,0.0,45.0
4299,50.0,120,480,0.0,45.0
4300,70.0,120,120,0.0,46.0
4301,67.0,0,120,0.0,48.0
4302,69.0,120,120,0.0,46.0
4303,65.0,120,120,0.0,46.0
4304,67.0,120,120,0.0,45.0
4305,51.0,120,480,0.0,42.0
4306,58.0,0,480,0.0,42.0
4307,63.0,120,120,0.0,45.0
4308,65.0,120,120,0.0,44.0
4309,62.0,120,120,0.0,43.0
4310,63.0,120,120,0.0,42.0
4311,61.0,120,120,0.0,41.0
4312,67.0,240,240,0.0,41.0
4313,70.0,240,240,0.0,45.0
4314,51.0,0,480,0.0,32.0
4315,55.0,0,480,0.0,32.0
4316,61.0,240,240,0.0,42.0
4317,62.0,240,120,0.0,39.0
4318,50.0,0,240,0.0,24.0
4319,54.0,0,240,0.0,24.0
4320,74.0,240,120,0.0,46.0
4321,50.0,0,240,0.0,27.0
4322,55.0,0,240,0.0,27.0
4323,58.0,240,240,0.0,27.0
4324,74.0,240,240,0.0,49.0
4325,57.0,0,240,0.0,28.0
4326,54.0,0,240,0.0,28.0
4327,50.0,240,240,0.0,28.0
4328,74.0,240,240,0.0,46.0
4329,50.0,240,240,0.0,32.0
4330,58.0,0,240,0.0,32.0
4331,55.0,0,240,0.0,32.0
4332,74.0,240,240,0.0,48.0
4333,57.0,0,480,0.0,34.0
4334,74.0,240,240,0.0,43.0
4335,50.0,0,480,0.0,34.0
4336,54.0,240,480,0.0,34.0
4337,73.0,240,240,0.0,46.0
4338,74.0,240,240,0.0,49.0
4339,73.0,240,240,0.0,53.0
4340,74.0,240,240,0.0,56.0
4341,73.0,240,240,0.0,60.0
4342,74.0,240,240,0.0,63.0
4343,69.0,0,240,0.0,34.0
4344,65.0,240,240,0.0,30.0
4345,77.0,240,480,0.0,66.0
4346,60.0,240,0,0.0,33.0
4347,69.0,0,240,0.0,37.0
4348,65.0,0,240,0.0,33.0
4349,75.0,0,480,0.0,64.0
4350,65.0,0,240,0.0,36.0
4351,60.0,0,0,0.0,39.0
4352,69.0,0,240,0.0,40.0
4353,75.0,120,120,0.0,53.0
4354,74.0,120,120,0.0,56.0
4355,75.0,120,120,0.0,53.0
4356,65.0,240,480,0.0,39.0
4357,69.0,0,480,0.0,44.0
4358,74.0,120,120,0.0,56.0
4359,75.0,120,120,0.0,54.0
4360,74.0,120,120,0.0,56.0
4361,75.0,120,120,0.0,53.0
4362,75.0,0,240,0.0,36.0
4363,72.0,0,240,0.0,32.0
4364,65.0,240,240,0.0,32.0
4365,82.0,120,480,0.0,70.0
4366,72.0,0,240,0.0,36.0
4367,65.0,0,0,0.0,39.0
4368,75.0,240,0,0.0,44.0
4369,72.0,0,240,0.0,39.0
4370,81.0,0,480,0.0,66.0
4371,75.0,0,0,0.0,47.0
4372,65.0,240,0,0.0,42.0
4373,81.0,120,120,0.0,61.0
4374,79.0,120,120,0.0,63.0
4375,81.0,120,120,0.0,61.0
4376,72.0,0,480,0.0,42.0
4377,82.0,120,120,0.0,63.0
4378,81.0,120,120,0.0,61.0
4379,79.0,120,120,0.0,63.0
4380,81.0,120,120,0.0,61.0
4381,89.0,120,480,0.0,77.0
4382,65.0,240,240,0.0,47.0
4383,75.0,0,240,0.0,45.0
4384,79.0,240,240,0.0,45.0
4385,87.0,240,480,0.0,75.0
4386,87.0,120,120,0.0,66.0
4387,86.0,120,120,0.0,68.0
4388,87.0,120,120,0.0,65.0
4389,89.0,120,120,0.0,68.0
4390,87.0,120,120,0.0,65.0
4391,85.0,120,120,0.0,68.0
4392,84.0,120,120,0.0,65.0
4393,66.0,240,960,0.0,47.0
4394,65.0,240,240,0.0,38.0
4395,82.0,120,480,0.0,77.0
4396,72.0,240,240,0.0,41.0
4397,75.0,240,240,0.0,37.0
4398,81.0,0,480,0.0,69.0
4399,87.0,120,120,0.0,67.0
4400,86.0,120,120,0.0,69.0
4401,87.0,120,120,0.0,66.0
4402,89.0,120,120,0.0,70.0
4403,87.0,120,120,0.0,67.0
4404,85.0,120,120,0.0,68.0
4405,84.0,120,120,0.0,67.0
4406,66.0,240,960,0.0,49.0
4407,82.0,0,120,0.0,66.0
4408,81.0,120,120,0.0,65.0
4409,65.0,120,240,0.0,46.0
4410,87.0,120,120,0.0,69.0
4411,86.0,120,120,0.0,66.0
4412,89.0,0,120,0.0,71.0
4413,87.0,120,120,0.0,68.0
4414,85.0,120,120,0.0,69.0
4415,84.0,120,120,0.0,67.0
4416,66.0,120,480,0.0,52.0
4417,82.0,0,120,0.0,66.0
4418,81.0,120,120,0.0,65.0
4419,87.0,120,120,0.0,70.0
4420,72.0,0,0,0.0,53.0
4421,86.0,120,120,0.0,67.0
4422,75.0,0,0,0.0,53.0
4423,65.0,120,480,0.0,49.0
4424,89.0,0,120,0.0,71.0
4425,87.0,120,120,0.0,68.0
4426,85.0,120,120,0.0,70.0
4427,66.0,120,480,0.0,53.0
4428,84.0,120,120,0.0,69.0
4429,82.0,120,120,0.0,68.0
4430,81.0,120,120,0.0,67.0
4431,84.0,120,120,0.0,68.0
4432,65.0,0,480,0.0,50.0
4433,83.0,120,120,0.0,64.0
4434,86.0,120,120,0.0,68.0
4435,84.0,120,120,0.0,67.0
4436,82.0,120,120,0.0,65.0
4437,81.0,120,120,0.0,63.0
4438,79.0,120,120,0.0,63.0
4439,77.0,120,120,0.0,61.0
4440,79.0,120,120,0.0,59.0
4441,78.0,120,120,0.0,58.0
4442,81.0,120,120,0.0,59.0
4443,79.0,120,120,0.0,57.0
4444,77.0,120,120,0.0,56.0
4445,75.0,120,120,0.0,54.0
4446,74.0,120,240,0.0,52.0
4447,72.0,240,240,0.0,52.0
4448,74.0,240,120,0.0,54.0
4449,75.0,240,120,0.0,56.0
4450,76.0,240,120,0.0,58.0
4451,77.0,240,120,0.0,61.0
4452,79.0,240,120,0.0,62.0
4453,77.0,120,120,0.0,58.0
4454,75.0,120,120,0.0,61.0
4455,74.0,120,120,0.0,58.0
4456,72.0,120,240,0.0,67.0
4457,70.0,240,240,0.0,60.0
4458,58.0,0,240,0.0,39.0
4459,62.0,240,240,0.0,42.0
4460,65.0,240,240,0.0,39.0
4461,62.0,240,240,0.0,46.0
4462,70.0,0,720,0.0,59.0
4463,74.0,240,240,0.0,61.0
4464,58.0,0,240,0.0,39.0
4465,62.0,240,240,0.0,41.0
4466,79.0,0,240,0.0,63.0
4467,74.0,240,240,0.0,60.0
4468,67.0,0,240,0.0,38.0
4469,60.0,240,240,0.0,35.0
4470,77.0,240,480,0.0,68.0
4471,63.0,240,240,0.0,39.0
4472,67.0,240,240,0.0,36.0
4473,75.0,0,720,0.0,62.0
4474,63.0,240,240,0.0,44.0
4475,77.0,240,120,0.0,65.0
4476,79.0,120,120,0.0,62.0
4477,60.0,0,240,0.0,41.0
4478,77.0,120,120,0.0,65.0
4479,63.0,0,240,0.0,41.0
4480,75.0,120,120,0.0,62.0
4481,74.0,0,120,0.0,65.0
4482,67.0,120,240,0.0,38.0
4483,72.0,120,120,0.0,65.0
4484,70.0,120,480,0.0,71.0
4485,53.0,240,240,0.0,38.0
4486,60.0,0,240,0.0,41.0
4487,63.0,240,240,0.0,41.0
4488,60.0,240,240,0.0,49.0
4489,69.0,240,0,0.0,63.0
4490,53.0,0,240,0.0,41.0
4491,60.0,240,240,0.0,43.0
4492,70.0,0,240,0.0,65.0
4493,63.0,240,240,0.0,40.0
4494,72.0,0,0,0.0,61.0
4495,58.0,240,240,0.0,40.0
4496,69.0,240,480,0.0,61.0
4497,62.0,240,240,0.0,42.0
4498,65.0,240,240,0.0,39.0
4499,70.0,0,480,0.0,58.0
4500,74.0,0,480,0.0,58.0
4501,62.0,240,240,0.0,47.0
4502,77.0,240,120,0.0,64.0
4503,76.0,120,120,0.0,62.0
4504,58.0,0,240,0.0,40.0
4505,79.0,120,120,0.0,66.0
4506,77.0,120,120,0.0,62.0
4507,62.0,0,240,0.0,42.0
4508,75.0,0,120,0.0,63.0
4509,74.0,120,0,0.0,68.0
4510,65.0,120,240,0.0,39.0
4511,63.0,0,240,0.0,45.0
4512,67.0,0,240,0.0,31.0
4513,62.0,240,240,0.0,36.0
4514,72.0,240,480,0.0,62.0
4515,65.0,0,240,0.0,31.0
4516,70.0,240,240,0.0,63.0
4517,74.0,0,240,0.0,67.0
4518,63.0,240,240,0.0,45.0
4519,67.0,0,240,0.0,35.0
4520,60.0,240,240,0.0,39.0
4521,72.0,240,480,0.0,64.0
4522,63.0,240,240,0.0,33.0
4523,69.0,0,240,0.0,64.0
4524,70.0,0,120,0.0,68.0
4525,72.0,120,120,0.0,60.0
4526,70.0,120,120,0.0,63.0
4527,65.0,240,480,0.0,42.0
4528,62.0,0,480,0.0,42.0
4529,69.0,120,120,0.0,60.0
4530,70.0,120,120,0.0,68.0
4531,72.0,120,120,0.0,60.0
4532,74.0,120,120,0.0,63.0
4533,75.0,120,120,0.0,59.0
4534,76.0,120,120,0.0,72.0
4535,77.0,120,120,0.0,68.0
4536,76.0,120,120,0.0,72.0
4537,77.0,120,120,0.0,66.0
4538,79.0,120,120,0.0,74.0
4539,77.0,120,120,0.0,68.0
4540,75.0,120,120,0.0,67.0
4541,74.0,0,0,0.0,74.0
4542,63.0,120,240,0.0,47.0
4543,72.0,240,0,0.0,59.0
4544,67.0,0,240,0.0,34.0
4545,62.0,0,240,0.0,39.0
4546,70.0,0,240,0.0,54.0
4547,65.0,240,240,0.0,34.0
4548,74.0,0,240,0.0,68.0
4549,63.0,240,240,0.0,47.0
4550,67.0,240,240,0.0,34.0
4551,72.0,240,0,0.0,57.0
4552,60.0,0,240,0.0,38.0
4553,63.0,0,240,0.0,34.0
4554,69.0,240,240,0.0,53.0
4555,70.0,0,240,0.0,64.0
4556,72.0,240,120,0.0,61.0
4557,74.0,120,120,0.0,62.0
4558,62.0,0,480,0.0,44.0
4559,65.0,240,480,0.0,44.0
4560,75.0,120,120,0.0,64.0
4561,77.0,120,120,0.0,64.0
4562,79.0,120,120,0.0,67.0
4563,81.0,120,120,0.0,68.0
4564,82.0,120,120,0.0,70.0
4565,84.0,120,120,0.0,71.0
4566,86.0,120,120,0.0,72.0
4567,87.0,120,120,0.0,72.0
4568,89.0,120,120,0.0,74.0
4569,89.0,240,120,0.0,76.0
4570,89.0,0,240,0.0,80.0
4571,57.0,240,480,0.0,57.0
4572,87.0,240,480,0.0,76.0
4573,86.0,240,240,0.0,78.0
4574,58.0,240,480,0.0,52.0
4575,77.0,0,1200,0.0,80.0
4576,86.0,0,240,0.0,78.0
4577,84.0,0,120,0.0,67.0
4578,75.0,240,120,0.0,67.0
4579,51.0,240,480,0.0,59.0
4580,82.0,240,120,0.0,71.0
4581,74.0,0,120,0.0,71.0
4582,72.0,240,120,0.0,64.0
4583,81.0,0,120,0.0,64.0
4584,53.0,0,480,0.0,54.0
4585,82.0,240,240,0.0,73.0
4586,74.0,0,240,0.0,73.0
4587,46.0,240,120,0.0,54.0
4588,50.0,240,120,0.0,56.0
4589,70.0,0,240,0.0,72.0
4590,53.0,240,120,0.0,55.0
4591,58.0,240,480,0.0,58.0
4592,67.0,480,120,0.0,52.0
4593,65.0,120,120,0.0,48.0
4594,63.0,120,120,0.0,52.0
4595,62.0,120,120,0.0,48.0
4596,60.0,120,240,0.0,56.0
4597,58.0,240,240,0.0,53.0
4598,46.0,0,240,0.0,34.0
4599,50.0,0,240,0.0,37.0
4600,53.0,240,240,0.0,34.0
4601,58.0,240,720,0.0,53.0
4602,50.0,240,240,0.0,43.0
4603,70.0,0,120,0.0,54.0
4604,46.0,240,240,0.0,35.0
4605,50.0,0,240,0.0,39.0
4606,70.0,240,240,0.0,54.0
4607,72.0,0,240,0.0,51.0
4608,53.0,240,240,0.0,39.0
4609,70.0,240,240,0.0,61.0
4610,69.0,0,240,0.0,53.0
4611,46.0,240,240,0.0,37.0
4612,50.0,240,240,0.0,41.0
4613,53.0,240,240,0.0,37.0
4614,50.0,240,240,0.0,43.0
4615,68.0,0,720,0.0,51.0
4616,68.0,240,0,0.0,65.0
4617,46.0,240,240,0.0,38.0
4618,68.0,240,0,0.0,72.0
4619,50.0,0,240,0.0,38.0
4620,53.0,0,240,0.0,34.0
4621,80.0,240,120,0.0,78.0
4622,82.0,120,120,0.0,71.0
4623,79.0,120,120,0.0,78.0
4624,80.0,120,120,0.0,70.0
4625,46.0,0,240,0.0,47.0
4626,77.0,120,120,0.0,79.0
4627,50.0,0,240,0.0,47.0
4628,79.0,120,120,0.0,69.0
4629,75.0,0,120,0.0,77.0
4630,77.0,120,120,0.0,70.0
4631,53.0,120,240,0.0,45.0
4632,74.0,120,120,0.0,79.0
4633,75.0,120,120,0.0,70.0
4634,56.0,0,240,0.0,53.0
4635,72.0,120,120,0.0,75.0
4636,53.0,0,240,0.0,45.0
4637,74.0,120,120,0.0,69.0
4638,70.0,120,120,0.0,76.0
4639,50.0,0,240,0.0,48.0
4640,72.0,120,120,0.0,70.0
4641,68.0,0,120,0.0,72.0
4642,70.0,120,120,0.0,67.0
4643,46.0,120,240,0.0,45.0
4644,68.0,120,240,0.0,72.0
4645,47.0,0,240,0.0,36.0
4646,67.0,0,0,0.0,59.0
4647,50.0,240,240,0.0,36.0
4648,53.0,240,240,0.0,36.0
4649,55.0,240,240,0.0,41.0
4650,79.0,240,120,0.0,54.0
4651,53.0,0,240,0.0,33.0
4652,79.0,240,240,0.0,60.0
4653,50.0,0,240,0.0,34.0
4654,77.0,240,0,0.0,63.0
4655,47.0,0,240,0.0,32.0
4656,76.0,240,240,0.0,54.0
4657,58.0,0,240,0.0,33.0
4658,61.0,240,240,0.0,36.0
4659,64.0,240,240,0.0,32.0
4660,76.0,0,720,0.0,54.0
4661,85.0,240,120,0.0,59.0
4662,67.0,240,480,0.0,40.0
4663,85.0,240,240,0.0,61.0
4664,76.0,240,240,0.0,56.0
4665,79.0,240,240,0.0,61.0
4666,57.0,240,240,0.0,34.0
4667,77.0,0,240,0.0,54.0
4668,60.0,240,240,0.0,34.0
4669,65.0,240,240,0.0,32.0
4670,77.0,0,720,0.0,54.0
4671,69.0,240,480,0.0,39.0
4672,78.0,240,240,0.0,52.0
4673,79.0,240,240,0.0,54.0
4674,75.0,240,240,0.0,52.0
4675,73.0,240,240,0.0,57.0
4676,74.0,0,240,0.0,52.0
4677,58.0,240,240,0.0,32.0
4678,62.0,0,240,0.0,34.0
4679,74.0,240,480,0.0,52.0
4680,65.0,240,240,0.0,30.0
4681,70.0,240,480,0.0,38.0
4682,77.0,240,240,0.0,54.0
4683,79.0,240,120,0.0,61.0
4684,77.0,120,120,0.0,57.0
4685,75.0,120,120,0.0,61.0
4686,74.0,120,120,0.0,56.0
4687,63.0,0,240,0.0,42.0
4688,67.0,240,240,0.0,38.0
4689,72.0,120,720,0.0,61.0
4690,63.0,240,240,0.0,42.0
4691,65.0,0,240,0.0,38.0
4692,69.0,240,240,0.0,52.0
4693,70.0,240,60,0.0,52.0
4694,77.0,120,120,0.0,56.0
4695,62.0,0,240,0.0,41.0
4696,76.0,0,120,0.0,56.0
4697,65.0,120,240,0.0,38.0
4698,77.0,120,120,0.0,52.0
4699,79.0,0,120,0.0,63.0
4700,77.0,120,120,0.0,54.0
4701,62.0,120,240,0.0,41.0
4702,75.0,0,120,0.0,59.0
4703,65.0,120,240,0.0,38.0
4704,74.0,120,120,0.0,53.0
4705,72.0,0,120,0.0,63.0
4706,63.0,120,240,0.0,41.0
4707,65.0,0,240,0.0,38.0
4708,63.0,240,240,0.0,41.0
4709,72.0,240,480,0.0,63.0
4710,69.0,0,240,0.0,54.0
4711,65.0,240,240,0.0,38.0
4712,70.0,0,60,0.0,54.0
4713,77.0,120,120,0.0,51.0
4714,62.0,240,240,0.0,41.0
4715,76.0,0,120,0.0,56.0
4716,65.0,120,240,0.0,38.0
4717,77.0,120,120,0.0,53.0
4718,79.0,0,120,0.0,62.0
4719,77.0,120,120,0.0,53.0
4720,62.0,120,240,0.0,41.0
4721,75.0,0,120,0.0,57.0
4722,74.0,120,120,0.0,54.0
4723,65.0,120,240,0.0,38.0
4724,74.0,0,240,0.0,63.0
4725,63.0,120,240,0.0,41.0
4726,72.0,240,240,0.0,60.0
4727,67.0,0,240,0.0,38.0
4728,63.0,240,240,0.0,41.0
4729,72.0,0,240,0.0,59.0
4730,67.0,240,240,0.0,38.0
4731,64.0,0,240,0.0,41.0
4732,72.0,240,240,0.0,63.0
4733,70.0,0,240,0.0,59.0
4734,67.0,240,240,0.0,38.0
4735,64.0,240,240,0.0,41.0
4736,67.0,240,240,0.0,38.0
4737,70.0,0,240,0.0,52.0
4738,69.0,240,120,0.0,64.0
4739,70.0,120,120,0.0,58.0
4740,69.0,120,120,0.0,62.0
4741,65.0,120,120,0.0,58.0
4742,53.0,0,480,0.0,41.0
4743,70.0,0,120,0.0,69.0
4744,72.0,120,120,0.0,62.0
4745,70.0,120,120,0.0,67.0
4746,65.0,120,120,0.0,59.0
4747,55.0,120,480,0.0,47.0
4748,72.0,0,120,0.0,70.0
4749,74.0,120,120,0.0,64.0
4750,72.0,120,120,0.0,69.0
4751,65.0,120,120,0.0,63.0
4752,57.0,120,480,0.0,52.0
4753,74.0,120,120,0.0,77.0
4754,75.0,120,120,0.0,67.0
4755,74.0,120,120,0.0,72.0
4756,58.0,0,480,0.0,58.0
4757,65.0,120,120,0.0,67.0
4758,75.0,120,120,0.0,78.0
4759,60.0,0,240,0.0,64.0
4760,75.0,240,120,0.0,78.0
4761,65.0,0,240,0.0,45.0
4762,57.0,240,240,0.0,51.0
4763,72.0,240,120,0.0,73.0
4764,65.0,0,240,0.0,46.0
4765,75.0,240,240,0.0,79.0
4766,58.0,0,240,0.0,52.0
4767,74.0,240,120,0.0,72.0
4768,65.0,0,240,0.0,46.0
4769,72.0,240,120,0.0,74.0
4770,55.0,0,240,0.0,52.0
4771,70.0,240,120,0.0,71.0
4772,65.0,0,240,0.0,46.0
4773,69.0,240,120,0.0,67.0
4774,65.0,120,120,0.0,59.0
4775,76.0,120,120,0.0,61.0
4776,53.0,0,480,0.0,40.0
4777,77.0,120,120,0.0,59.0
4778,70.0,0,120,0.0,70.0
4779,65.0,120,120,0.0,59.0
4780,76.0,120,120,0.0,66.0
4781,55.0,120,480,0.0,46.0
4782,77.0,120,120,0.0,61.0
4783,72.0,0,120,0.0,74.0
4784,65.0,120,120,0.0,64.0
4785,76.0,120,120,0.0,69.0
4786,57.0,120,480,0.0,51.0
4787,77.0,120,120,0.0,62.0
4788,74.0,120,120,0.0,79.0
4789,65.0,120,120,0.0,69.0
4790,76.0,120,120,0.0,73.0
4791,58.0,0,480,0.0,58.0
4792,77.0,120,120,0.0,69.0
4793,60.0,0,120,0.0,64.0
4794,75.0,120,120,0.0,79.0
4795,65.0,120,120,0.0,45.0
4796,64.0,0,120,0.0,49.0
4797,75.0,120,120,0.0,79.0
4798,65.0,120,120,0.0,45.0
4799,57.0,120,120,0.0,56.0
4800,65.0,120,120,0.0,46.0
4801,74.0,0,60,0.0,57.0
4802,72.0,60,60,0.0,52.0
4803,64.0,120,120,0.0,49.0
4804,71.0,0,60,0.0,57.0
4805,72.0,60,60,0.0,52.0
4806,65.0,60,120,0.0,46.0
4807,58.0,0,120,0.0,56.0
4808,65.0,120,120,0.0,46.0
4809,75.0,60,240,0.0,72.0
4810,74.0,0,120,0.0,71.0
4811,64.0,120,120,0.0,49.0
4812,65.0,120,120,0.0,47.0
4813,72.0,120,120,0.0,71.0
4814,55.0,0,120,0.0,57.0
4815,64.0,120,120,0.0,45.0
4816,70.0,120,120,0.0,68.0
4817,62.0,0,120,0.0,49.0
4818,64.0,120,120,0.0,46.0
4819,69.0,0,120,0.0,78.0
4820,77.0,120,120,0.0,69.0
4821,72.0,120,120,0.0,73.0
4822,69.0,120,120,0.0,70.0
4823,53.0,120,480,0.0,59.0
4824,65.0,120,0,0.0,77.0
4825,60.0,120,120,0.0,69.0
4826,57.0,120,120,0.0,70.0
4827,53.0,120,120,0.0,67.0
4828,41.0,0,240,0.0,75.0
4829,29.0,120,240,0.0,75.0
4830,58.0,0,720,0.0,72.0
4831,62.0,0,720,0.0,72.0
4832,65.0,0,720,0.0,72.0
4833,53.0,0,720,0.0,72.0
4834,67.0,720,120,0.0,48.0
4835,34.0,960,960,0.0,58.0
4836,65.0,120,120,0.0,45.0
4837,46.0,0,960,0.0,58.0
4838,63.0,120,120,0.0,52.0
4839,62.0,240,120,0.0,48.0
4840,60.0,240,120,0.0,52.0
4841,58.0,240,120,0.0,48.0
4842,58.0,240,240,0.0,54.0
4843,67.0,240,240,0.0,49.0
4844,67.0,0,720,0.0,72.0
4845,58.0,0,720,0.0,72.0
4846,39.0,240,960,0.0,57.0
4847,51.0,0,960,0.0,57.0
4848,65.0,720,240,0.0,53.0
4849,69.0,0,240,0.0,53.0
4850,70.0,240,240,0.0,52.0
4851,50.0,240,480,0.0,44.0
4852,70.0,0,240,0.0,61.0
4853,52.0,0,480,0.0,38.0
4854,55.0,240,480,0.0,38.0
4855,60.0,240,480,0.0,53.0
4856,62.0,240,240,0.0,53.0
4857,53.0,240,480,0.0,38.0
4858,70.0,0,240,0.0,61.0
4859,52.0,240,480,0.0,38.0
4860,55.0,0,480,0.0,38.0
4861,60.0,240,480,0.0,51.0
4862,53.0,240,480,0.0,40.0
4863,62.0,240,240,0.0,53.0
4864,65.0,0,480,0.0,58.0
4865,55.0,240,480,0.0,39.0
4866,65.0,0,60,0.0,52.0
4867,63.0,60,60,0.0,47.0
4868,65.0,60,60,0.0,52.0
4869,63.0,60,60,0.0,49.0
4870,65.0,60,60,0.0,52.0
4871,63.0,60,60,0.0,49.0
4872,62.0,60,60,0.0,52.0
4873,63.0,60,60,0.0,48.0
4874,57.0,480,480,0.0,35.0
4875,62.0,0,120,0.0,57.0
4876,62.0,240,240,0.0,51.0
4877,58.0,60,480,0.0,35.0
4878,63.0,240,240,0.0,53.0
4879,65.0,240,240,0.0,51.0
4880,66.0,240,240,0.0,65.0
4881,39.0,0,240,0.0,46.0
4882,43.0,240,240,0.0,46.0
4883,67.0,240,480,0.0,54.0
4884,65.0,240,120,0.0,53.0
4885,63.0,120,120,0.0,50.0
4886,48.0,0,240,0.0,45.0
4887,62.0,120,240,0.0,54.0
4888,51.0,0,480,0.0,52.0
4889,60.0,240,240,0.0,51.0
4890,62.0,240,240,0.0,52.0
4891,63.0,240,240,0.0,51.0
4892,67.0,240,240,0.0,63.0
4893,38.0,240,240,0.0,44.0
4894,65.0,0,480,0.0,53.0
4895,41.0,240,240,0.0,44.0
4896,63.0,240,120,0.0,54.0
4897,46.0,0,240,0.0,43.0
4898,62.0,120,120,0.0,49.0
4899,60.0,0,240,0.0,56.0
4900,58.0,240,240,0.0,52.0
4901,50.0,120,480,0.0,52.0
4902,60.0,240,240,0.0,54.0
4903,62.0,240,240,0.0,50.0
4904,65.0,240,240,0.0,63.0
4905,48.0,0,480,0.0,44.0
4906,63.0,240,480,0.0,51.0
4907,60.0,240,240,0.0,51.0
4908,45.0,240,480,0.0,41.0
4909,63.0,240,240,0.0,62.0
4910,46.0,0,480,0.0,43.0
4911,62.0,240,480,0.0,52.0
4912,43.0,240,480,0.0,42.0
4913,58.0,240,240,0.0,52.0
4914,57.0,0,120,0.0,48.0
4915,58.0,120,120,0.0,49.0
4916,59.0,120,120,0.0,50.0
4917,41.0,240,480,0.0,44.0
4918,60.0,120,120,0.0,51.0
4919,61.0,120,120,0.0,52.0
4920,62.0,120,120,0.0,53.0
4921,63.0,120,120,0.0,54.0
4922,64.0,120,120,0.0,54.0
4923,53.0,120,120,0.0,53.0
4924,55.0,120,120,0.0,49.0
4925,51.0,120,120,0.0,54.0
4926,53.0,120,120,0.0,49.0
4927,65.0,0,480,0.0,56.0
4928,50.0,120,120,0.0,54.0
4929,51.0,120,120,0.0,49.0
4930,48.0,120,120,0.0,56.0
4931,50.0,120,120,0.0,49.0
4932,46.0,120,480,0.0,69.0
4933,77.0,0,720,0.0,73.0
4934,65.0,0,720,0.0,73.0
4935,70.0,0,720,0.0,73.0
4936,74.0,0,720,0.0,73.0
4937,79.0,240,120,0.0,51.0
4938,58.0,480,480,0.0,58.0
4939,77.0,120,120,0.0,49.0
4940,75.0,120,120,0.0,57.0
4941,74.0,240,120,0.0,50.0
4942,72.0,240,120,0.0,50.0
4943,70.0,240,120,0.0,47.0
4944,70.0,240,240,0.0,53.0
4945,79.0,0,0,0.0,71.0
4946,70.0,0,720,0.0,64.0
4947,77.0,720,240,0.0,53.0
4948,51.0,240,960,0.0,59.0
4949,63.0,0,960,0.0,59.0
4950,81.0,240,240,0.0,66.0
4951,62.0,0,480,0.0,43.0
4952,82.0,240,480,0.0,63.0
4953,67.0,240,480,0.0,43.0
4954,64.0,0,480,0.0,43.0
4955,72.0,240,240,0.0,53.0
4956,74.0,0,240,0.0,53.0
4957,65.0,240,480,0.0,43.0
4958,82.0,240,480,0.0,68.0
4959,67.0,0,480,0.0,43.0
4960,72.0,240,240,0.0,53.0
4961,64.0,240,480,0.0,43.0
4962,74.0,240,240,0.0,53.0
4963,82.0,240,120,0.0,67.0
4964,65.0,0,480,0.0,41.0
4965,67.0,0,480,0.0,43.0
4966,70.0,240,480,0.0,43.0
4967,77.0,0,480,0.0,54.0
4968,76.0,0,240,0.0,53.0
4969,69.0,0,480,0.0,43.0
4970,72.0,480,480,0.0,43.0
4971,75.0,240,240,0.0,53.0
4972,74.0,240,120,0.0,48.0
4973,74.0,240,240,0.0,54.0
4974,70.0,0,480,0.0,46.0
4975,75.0,240,240,0.0,60.0
4976,77.0,240,240,0.0,64.0
4977,78.0,240,240,0.0,74.0
4978,55.0,0,240,0.0,54.0
4979,67.0,240,120,0.0,61.0
4980,79.0,240,480,0.0,70.0
4981,65.0,0,120,0.0,53.0
4982,81.0,240,120,0.0,70.0
4983,83.0,120,120,0.0,67.0
4984,84.0,120,120,0.0,70.0
4985,63.0,0,120,0.0,60.0
4986,86.0,120,120,0.0,67.0
4987,87.0,120,120,0.0,70.0
4988,86.0,120,120,0.0,66.0
4989,51.0,0,240,0.0,53.0
4990,84.0,0,120,0.0,70.0
4991,63.0,120,120,0.0,61.0
4992,86.0,120,120,0.0,67.0
4993,62.0,120,120,0.0,53.0
4994,82.0,0,120,0.0,70.0
4995,84.0,120,120,0.0,67.0
4996,81.0,0,120,0.0,69.0
4997,82.0,120,120,0.0,66.0
4998,60.0,120,240,0.0,57.0
4999,79.0,120,120,0.0,69.0
5000,58.0,0,240,0.0,53.0
5001,81.0,120,120,0.0,64.0
5002,77.0,0,120,0.0,71.0
5003,79.0,120,120,0.0,67.0
5004,57.0,120,240,0.0,53.0
5005,75.0,0,120,0.0,71.0
5006,53.0,120,240,0.0,53.0
5007,77.0,120,120,0.0,67.0
5008,74.0,0,120,0.0,68.0
5009,75.0,120,120,0.0,64.0
5010,77.0,120,120,0.0,68.0
5011,58.0,120,480,0.0,60.0
5012,79.0,120,120,0.0,65.0
5013,81.0,120,120,0.0,70.0
5014,82.0,120,120,0.0,66.0
5015,81.0,120,120,0.0,69.0
5016,82.0,120,120,0.0,65.0
5017,50.0,0,480,0.0,54.0
5018,84.0,120,120,0.0,72.0
5019,82.0,120,120,0.0,70.0
5020,81.0,120,120,0.0,69.0
5021,79.0,120,120,0.0,67.0
5022,51.0,0,480,0.0,59.0
5023,81.0,120,120,0.0,72.0
5024,79.0,120,120,0.0,70.0
5025,77.0,120,120,0.0,69.0
5026,63.0,0,480,0.0,53.0
5027,75.0,120,120,0.0,67.0
5028,65.0,0,480,0.0,54.0
5029,74.0,0,0,0.0,58.0
5030,72.0,60,60,0.0,54.0
5031,74.0,60,60,0.0,58.0
5032,72.0,60,60,0.0,53.0
5033,74.0,60,60,0.0,58.0
5034,72.0,60,60,0.0,54.0
5035,70.0,60,60,0.0,66.0
5036,69.0,0,480,0.0,58.0
5037,72.0,60,60,0.0,62.0
5038,53.0,480,480,0.0,53.0
5039,58.0,0,120,0.0,53.0
5040,65.0,120,120,0.0,46.0
5041,64.0,120,120,0.0,49.0
5042,65.0,120,120,0.0,46.0
5043,70.0,60,480,0.0,75.0
5044,67.0,120,120,0.0,53.0
5045,65.0,120,120,0.0,47.0
5046,64.0,120,120,0.0,49.0
5047,65.0,120,120,0.0,46.0
5048,63.0,120,120,0.0,53.0
5049,65.0,120,120,0.0,51.0
5050,62.0,120,120,0.0,53.0
5051,63.0,120,120,0.0,49.0
5052,60.0,120,120,0.0,53.0
5053,65.0,120,120,0.0,50.0
5054,58.0,120,120,0.0,53.0
5055,65.0,120,120,0.0,50.0
5056,57.0,120,120,0.0,48.0
5057,75.0,0,240,0.0,85.0
5058,65.0,120,120,0.0,40.0
5059,72.0,0,120,0.0,56.0
5060,60.0,120,120,0.0,42.0
5061,65.0,120,120,0.0,38.0
5062,69.0,120,120,0.0,62.0
5063,63.0,0,120,0.0,48.0
5064,65.0,120,120,0.0,40.0
5065,69.0,120,120,0.0,56.0
5066,63.0,0,120,0.0,42.0
5067,65.0,120,120,0.0,39.0
5068,57.0,0,120,0.0,47.0
5069,65.0,120,120,0.0,40.0
5070,75.0,120,240,0.0,85.0
5071,63.0,120,120,0.0,43.0
5072,72.0,0,120,0.0,54.0
5073,65.0,120,120,0.0,40.0
5074,69.0,120,120,0.0,60.0
5075,63.0,0,120,0.0,48.0
5076,65.0,120,120,0.0,42.0
5077,63.0,120,120,0.0,42.0
5078,69.0,0,120,0.0,54.0
5079,65.0,120,120,0.0,42.0
5080,62.0,120,120,0.0,44.0
5081,70.0,0,120,0.0,62.0
5082,65.0,120,120,0.0,45.0
5083,72.0,0,120,0.0,63.0
5084,57.0,120,120,0.0,45.0
5085,65.0,120,120,0.0,45.0
5086,58.0,0,120,0.0,46.0
5087,74.0,120,120,0.0,64.0
5088,65.0,120,120,0.0,47.0
5089,60.0,0,120,0.0,48.0
5090,75.0,120,120,0.0,66.0
5091,65.0,120,120,0.0,49.0
5092,61.0,120,120,0.0,53.0
5093,65.0,120,120,0.0,48.0
5094,76.0,0,240,0.0,88.0
5095,62.0,120,120,0.0,53.0
5096,77.0,0,240,0.0,75.0
5097,65.0,120,120,0.0,46.0
5098,61.0,0,120,0.0,53.0
5099,65.0,120,120,0.0,46.0
5100,76.0,120,240,0.0,87.0
5101,62.0,120,120,0.0,53.0
5102,65.0,120,120,0.0,47.0
5103,77.0,0,240,0.0,75.0
5104,57.0,0,120,0.0,48.0
5105,75.0,120,240,0.0,82.0
5106,87.0,0,240,0.0,97.0
5107,65.0,120,120,0.0,39.0
5108,72.0,0,120,0.0,48.0
5109,84.0,120,120,0.0,57.0
5110,60.0,0,120,0.0,42.0
5111,65.0,120,120,0.0,39.0
5112,81.0,0,120,0.0,62.0
5113,69.0,120,120,0.0,52.0
5114,63.0,0,120,0.0,48.0
5115,65.0,120,120,0.0,40.0
5116,81.0,120,120,0.0,56.0
5117,69.0,0,120,0.0,47.0
5118,63.0,0,120,0.0,42.0
5119,65.0,120,120,0.0,39.0
5120,57.0,0,120,0.0,47.0
5121,75.0,120,240,0.0,82.0
5122,87.0,0,240,0.0,97.0
5123,65.0,120,120,0.0,39.0
5124,84.0,120,120,0.0,54.0
5125,72.0,0,120,0.0,45.0
5126,63.0,0,120,0.0,43.0
5127,65.0,120,120,0.0,39.0
5128,69.0,0,120,0.0,51.0
5129,63.0,0,120,0.0,48.0
5130,81.0,120,120,0.0,60.0
5131,65.0,120,120,0.0,42.0
5132,63.0,0,120,0.0,42.0
5133,69.0,0,120,0.0,45.0
5134,81.0,120,120,0.0,54.0
5135,65.0,120,120,0.0,42.0
5136,70.0,0,120,0.0,52.0
5137,82.0,120,120,0.0,62.0
5138,62.0,0,120,0.0,44.0
5139,65.0,120,120,0.0,45.0
5140,72.0,0,120,0.0,53.0
5141,84.0,120,120,0.0,63.0
5142,57.0,0,120,0.0,45.0
5143,65.0,120,120,0.0,45.0
5144,74.0,120,120,0.0,54.0
5145,86.0,0,120,0.0,64.0
5146,58.0,0,120,0.0,46.0
5147,65.0,120,120,0.0,47.0
5148,87.0,120,120,0.0,66.0
5149,60.0,0,120,0.0,48.0
5150,75.0,0,120,0.0,56.0
5151,65.0,120,120,0.0,49.0
5152,61.0,0,120,0.0,53.0
5153,88.0,120,240,0.0,90.0
5154,76.0,0,240,0.0,76.0
5155,65.0,120,120,0.0,48.0
5156,62.0,120,120,0.0,53.0
5157,77.0,0,240,0.0,63.0
5158,89.0,0,240,0.0,75.0
5159,65.0,120,120,0.0,46.0
5160,61.0,0,120,0.0,53.0
5161,65.0,120,120,0.0,46.0
5162,76.0,0,240,0.0,77.0
5163,88.0,120,240,0.0,91.0
5164,62.0,120,120,0.0,53.0
5165,65.0,120,120,0.0,47.0
5166,89.0,0,240,0.0,75.0
5167,77.0,0,240,0.0,63.0
5168,51.0,240,240,0.0,38.0
5169,50.0,240,240,0.0,40.0
5170,51.0,240,240,0.0,38.0
5171,67.0,120,960,0.0,56.0
5172,79.0,0,960,0.0,66.0
5173,53.0,240,240,0.0,38.0
5174,52.0,240,240,0.0,40.0
5175,57.0,0,960,0.0,45.0
5176,53.0,240,240,0.0,38.0
5177,69.0,240,960,0.0,54.0
5178,54.0,240,240,0.0,38.0
5179,52.0,240,240,0.0,42.0
5180,87.0,240,960,0.0,77.0
5181,75.0,0,960,0.0,65.0
5182,54.0,240,240,0.0,38.0
5183,55.0,240,240,0.0,40.0
5184,54.0,240,240,0.0,42.0
5185,74.0,240,960,0.0,57.0
5186,86.0,240,0,0.0,75.0
5187,55.0,240,240,0.0,39.0
5188,84.0,120,120,0.0,68.0
5189,87.0,120,120,0.0,72.0
5190,86.0,120,120,0.0,67.0
5191,89.0,0,120,0.0,75.0
5192,87.0,120,120,0.0,71.0
5193,86.0,120,120,0.0,72.0
5194,63.0,0,480,0.0,54.0
5195,72.0,120,480,0.0,54.0
5196,84.0,120,120,0.0,68.0
5197,74.0,120,480,0.0,54.0
5198,82.0,0,480,0.0,75.0
5199,75.0,480,480,0.0,45.0
5200,65.0,0,960,0.0,54.0
5201,81.0,0,480,0.0,63.0
5202,82.0,240,240,0.0,47.0
5203,81.0,240,240,0.0,50.0
5204,74.0,240,0,0.0,34.0
5205,82.0,240,240,0.0,47.0
5206,70.0,0,0,0.0,28.0
5207,80.0,240,240,0.0,46.0
5208,79.0,240,240,0.0,51.0
5209,80.0,240,240,0.0,46.0
5210,70.0,0,0,0.0,29.0
5211,79.0,240,240,0.0,44.0
5212,78.0,240,240,0.0,48.0
5213,74.0,0,960,0.0,29.0
5214,77.0,240,960,0.0,35.0
5215,79.0,240,240,0.0,45.0
5216,79.0,240,240,0.0,44.0
5217,91.0,240,0,0.0,48.0
5218,75.0,240,0,0.0,35.0
5219,72.0,0,0,0.0,29.0
5220,91.0,240,240,0.0,50.0
5221,77.0,240,240,0.0,44.0
5222,77.0,240,120,0.0,44.0
5223,69.0,0,960,0.0,29.0
5224,77.0,240,240,0.0,46.0
5225,86.0,240,240,0.0,51.0
5226,86.0,240,120,0.0,48.0
5227,74.0,240,0,0.0,35.0
5228,70.0,0,0,0.0,29.0
5229,86.0,240,240,0.0,49.0
5230,75.0,240,0,0.0,45.0
5231,67.0,0,960,0.0,29.0
5232,75.0,240,240,0.0,44.0
5233,84.0,240,0,0.0,47.0
5234,72.0,240,960,0.0,33.0
5235,69.0,240,0,0.0,28.0
5236,84.0,240,240,0.0,48.0
5237,74.0,240,240,0.0,44.0
5238,74.0,240,120,0.0,44.0
5239,66.0,0,960,0.0,28.0
5240,72.0,0,960,0.0,33.0
5241,74.0,240,240,0.0,44.0
5242,82.0,240,240,0.0,49.0
5243,82.0,240,120,0.0,46.0
5244,67.0,0,960,0.0,28.0
5245,70.0,240,960,0.0,34.0
5246,82.0,240,240,0.0,54.0
5247,72.0,0,120,0.0,44.0
5248,70.0,240,239,0.0,36.0
5249,64.0,0,239,0.0,30.0
5250,70.0,0,239,0.0,42.0
5251,64.0,240,240,0.0,35.0
5252,70.0,240,240,0.0,38.0
5253,64.0,0,240,0.0,32.0
5254,82.0,240,240,0.0,63.0
5255,74.0,240,120,0.0,52.0
5256,65.0,0,240,0.0,34.0
5257,70.0,0,0,0.0,46.0
5258,70.0,240,0,0.0,44.0
5259,65.0,240,240,0.0,39.0
5260,65.0,0,240,0.0,37.0
5261,82.0,240,240,0.0,69.0
5262,75.0,240,120,0.0,54.0
5263,70.0,0,240,0.0,46.0
5264,67.0,0,240,0.0,39.0
5265,70.0,0,240,0.0,53.0
5266,67.0,240,240,0.0,45.0
5267,67.0,0,240,0.0,42.0
5268,70.0,240,240,0.0,50.0
5269,82.0,240,240,0.0,81.0
5270,76.0,0,120,0.0,67.0
5271,70.0,0,240,0.0,63.0
5272,66.0,240,240,0.0,53.0
5273,66.0,240,0,0.0,54.0
5274,70.0,0,0,0.0,64.0
5275,70.0,240,0,0.0,63.0
5276,82.0,0,240,0.0,89.0
5277,77.0,240,120,0.0,83.0
5278,65.0,0,480,0.0,53.0
5279,82.0,0,240,0.0,89.0
5280,78.0,240,120,0.0,83.0
5281,62.0,0,480,0.0,53.0
5282,70.0,0,0,0.0,63.0
5283,82.0,0,240,0.0,89.0
5284,63.0,240,480,0.0,53.0
5285,79.0,240,240,0.0,85.0
5286,87.0,240,240,0.0,89.0
5287,81.0,240,240,0.0,85.0
5288,65.0,0,480,0.0,63.0
5289,60.0,0,480,0.0,53.0
5290,87.0,0,60,0.0,82.0
5291,86.0,60,60,0.0,81.0
5292,84.0,60,60,0.0,85.0
5293,86.0,60,60,0.0,78.0
5294,65.0,0,480,0.0,60.0
5295,58.0,240,480,0.0,51.0
5296,89.0,60,240,0.0,94.0
5297,84.0,0,60,0.0,81.0
5298,82.0,60,60,0.0,76.0
5299,81.0,60,60,0.0,81.0
5300,82.0,60,60,0.0,75.0
5301,50.0,240,480,0.0,43.0
5302,86.0,60,240,0.0,92.0
5303,53.0,0,480,0.0,51.0
5304,81.0,0,60,0.0,75.0
5305,79.0,60,60,0.0,69.0
5306,78.0,60,60,0.0,75.0
5307,79.0,60,60,0.0,71.0
5308,51.0,0,480,0.0,42.0
5309,82.0,60,240,0.0,88.0
5310,58.0,240,480,0.0,50.0
5311,74.0,0,60,0.0,71.0
5312,72.0,60,60,0.0,66.0
5313,71.0,60,60,0.0,71.0
5314,72.0,60,60,0.0,67.0
5315,55.0,0,480,0.0,46.0
5316,51.0,240,480,0.0,39.0
5317,74.0,60,240,0.0,79.0
5318,65.0,240,60,0.0,74.0
5319,77.0,120,120,0.0,76.0
5320,79.0,120,120,0.0,78.0
5321,77.0,120,120,0.0,76.0
5322,75.0,120,120,0.0,76.0
5323,74.0,120,120,0.0,71.0
5324,72.0,120,120,0.0,72.0
5325,70.0,120,120,0.0,70.0
5326,50.0,0,480,0.0,46.0
5327,74.0,120,60,0.0,54.0
5328,72.0,60,60,0.0,50.0
5329,74.0,60,60,0.0,54.0
5330,72.0,60,60,0.0,49.0
5331,74.0,60,60,0.0,54.0
5332,72.0,60,60,0.0,49.0
5333,74.0,60,60,0.0,54.0
5334,58.0,0,960,0.0,46.0
5335,72.0,60,60,0.0,49.0
5336,51.0,0,480,0.0,46.0
5337,74.0,60,60,0.0,54.0
5338,72.0,60,60,0.0,49.0
5339,74.0,60,60,0.0,54.0
5340,72.0,60,60,0.0,51.0
5341,74.0,60,60,0.0,54.0
5342,72.0,60,60,0.0,50.0
5343,70.0,60,60,0.0,66.0
5344,53.0,0,480,0.0,46.0
5345,57.0,0,480,0.0,46.0
5346,72.0,60,60,0.0,62.0
5347,70.0,0,120,0.0,70.0
5348,58.0,60,120,0.0,52.0
5349,46.0,0,120,0.0,52.0
5350,58.0,240,120,0.0,47.0
5351,62.0,120,120,0.0,45.0
5352,60.0,0,120,0.0,47.0
5353,57.0,120,240,0.0,35.0
5354,63.0,120,120,0.0,45.0
5355,62.0,0,120,0.0,47.0
5356,56.0,120,240,0.0,33.0
5357,65.0,120,120,0.0,45.0
5358,63.0,0,120,0.0,48.0
5359,55.0,120,120,0.0,43.0
5360,46.0,0,120,0.0,43.0
5361,58.0,240,120,0.0,52.0
5362,62.0,120,120,0.0,48.0
5363,60.0,0,120,0.0,52.0
5364,63.0,120,120,0.0,48.0
5365,57.0,120,240,0.0,35.0
5366,62.0,120,120,0.0,52.0
5367,65.0,120,120,0.0,48.0
5368,56.0,0,240,0.0,33.0
5369,63.0,120,120,0.0,52.0
5370,55.0,0,120,0.0,42.0
5371,46.0,0,120,0.0,42.0
5372,58.0,240,120,0.0,52.0
5373,62.0,120,120,0.0,55.0
5374,60.0,0,120,0.0,57.0
5375,57.0,120,240,0.0,47.0
5376,63.0,120,120,0.0,58.0
5377,62.0,120,120,0.0,59.0
5378,56.0,0,240,0.0,47.0
5379,65.0,120,120,0.0,62.0
5380,63.0,0,120,0.0,63.0
5381,55.0,120,240,0.0,51.0
5382,67.0,120,120,0.0,66.0
5383,65.0,0,120,0.0,67.0
5384,50.0,120,240,0.0,50.0
5385,68.0,120,120,0.0,69.0
5386,67.0,0,120,0.0,70.0
5387,70.0,120,120,0.0,71.0
5388,51.0,120,240,0.0,50.0
5389,69.0,120,120,0.0,73.0
5390,48.0,0,240,0.0,50.0
5391,72.0,120,120,0.0,75.0
5392,70.0,0,120,0.0,77.0
5393,72.0,120,120,0.0,79.0
5394,74.0,120,120,0.0,82.0
5395,50.0,120,480,0.0,57.0
5396,72.0,120,120,0.0,82.0
5397,70.0,120,120,0.0,80.0
5398,68.0,120,120,0.0,79.0
5399,67.0,120,120,0.0,78.0
5400,66.0,120,120,0.0,77.0
5401,67.0,0,120,0.0,78.0
5402,72.0,120,120,0.0,79.0
5403,75.0,120,120,0.0,80.0
5404,74.0,120,120,0.0,79.0
5405,51.0,120,480,0.0,53.0
5406,72.0,120,120,0.0,79.0
5407,70.0,120,120,0.0,78.0
5408,69.0,120,120,0.0,75.0
5409,67.0,120,120,0.0,74.0
5410,65.0,120,120,0.0,75.0
5411,70.0,120,120,0.0,79.0
5412,53.0,0,240,0.0,52.0
5413,74.0,120,120,0.0,82.0
5414,77.0,120,120,0.0,88.0
5415,58.0,0,240,0.0,48.0
5416,82.0,120,120,0.0,94.0
5417,62.0,0,240,0.0,48.0
5418,70.0,0,120,0.0,64.0
5419,74.0,0,120,0.0,64.0
5420,58.0,240,240,0.0,48.0
5421,53.0,240,240,0.0,53.0
5422,74.0,0,240,0.0,70.0
5423,77.0,0,240,0.0,70.0
5424,75.0,0,120,0.0,66.0
5425,72.0,0,120,0.0,66.0
5426,60.0,240,240,0.0,49.0
5427,74.0,0,120,0.0,67.0
5428,70.0,240,120,0.0,67.0
5429,63.0,0,240,0.0,49.0
5430,69.0,0,120,0.0,67.0
5431,72.0,0,120,0.0,67.0
5432,60.0,240,240,0.0,48.0
5433,70.0,0,120,0.0,67.0
5434,58.0,240,120,0.0,56.0
5435,62.0,0,120,0.0,56.0
5436,70.0,240,120,0.0,47.0
5437,74.0,120,120,0.0,45.0
5438,72.0,120,120,0.0,47.0
5439,69.0,0,240,0.0,35.0
5440,75.0,120,120,0.0,45.0
5441,74.0,120,120,0.0,47.0
5442,68.0,0,240,0.0,35.0
5443,77.0,120,120,0.0,45.0
5444,58.0,120,120,0.0,43.0
5445,75.0,0,120,0.0,48.0
5446,67.0,0,120,0.0,43.0
5447,82.0,0,120,0.0,62.0
5448,70.0,240,240,0.0,35.0
5449,86.0,120,120,0.0,58.0
5450,84.0,120,120,0.0,62.0
5451,69.0,0,240,0.0,35.0
5452,87.0,120,120,0.0,59.0
5453,86.0,0,120,0.0,62.0
5454,89.0,120,120,0.0,58.0
5455,68.0,120,240,0.0,35.0
5456,87.0,120,120,0.0,68.0
5457,67.0,0,120,0.0,46.0
5458,58.0,0,120,0.0,46.0
5459,70.0,0,120,0.0,38.0
5460,74.0,120,120,0.0,56.0
5461,72.0,120,120,0.0,58.0
5462,75.0,120,120,0.0,59.0
5463,69.0,0,240,0.0,47.0
5464,74.0,120,120,0.0,61.0
5465,77.0,120,120,0.0,63.0
5466,68.0,0,240,0.0,47.0
5467,75.0,120,120,0.0,64.0
5468,70.0,120,120,0.0,67.0
5469,67.0,0,240,0.0,51.0
5470,77.0,120,120,0.0,68.0
5471,62.0,0,240,0.0,49.0
5472,70.0,120,120,0.0,69.0
5473,79.0,0,120,0.0,70.0
5474,70.0,120,120,0.0,72.0
5475,63.0,120,240,0.0,50.0
5476,81.0,120,120,0.0,74.0
5477,60.0,0,240,0.0,50.0
5478,70.0,120,120,0.0,75.0
5479,82.0,0,120,0.0,78.0
5480,84.0,120,120,0.0,78.0
5481,86.0,120,120,0.0,77.0
5482,84.0,120,120,0.0,75.0
5483,62.0,0,480,0.0,68.0
5484,50.0,120,480,0.0,68.0
5485,82.0,120,120,0.0,74.0
5486,80.0,120,120,0.0,73.0
5487,79.0,120,120,0.0,72.0
5488,78.0,120,120,0.0,71.0
5489,79.0,0,120,0.0,79.0
5490,77.0,120,120,0.0,79.0
5491,75.0,120,120,0.0,78.0
5492,74.0,120,120,0.0,77.0
5493,51.0,0,480,0.0,69.0
5494,63.0,120,480,0.0,69.0
5495,72.0,120,120,0.0,75.0
5496,70.0,120,120,0.0,74.0
5497,69.0,120,120,0.0,73.0
5498,67.0,120,120,0.0,73.0
5499,53.0,120,120,0.0,48.0
5500,62.0,120,120,0.0,41.0
5501,65.0,0,240,0.0,82.0
5502,89.0,0,120,0.0,82.0
5503,58.0,120,120,0.0,44.0
5504,62.0,120,120,0.0,39.0
5505,89.0,0,120,0.0,82.0
5506,53.0,120,120,0.0,48.0
5507,62.0,120,120,0.0,40.0
5508,58.0,0,120,0.0,44.0
5509,89.0,120,120,0.0,82.0
5510,62.0,120,120,0.0,41.0
5511,53.0,120,120,0.0,48.0
5512,89.0,0,120,0.0,81.0
5513,86.0,0,120,0.0,76.0
5514,62.0,120,120,0.0,42.0
5515,82.0,120,120,0.0,71.0
5516,58.0,0,120,0.0,46.0
5517,77.0,120,120,0.0,69.0
5518,62.0,0,120,0.0,42.0
5519,82.0,120,120,0.0,81.0
5520,53.0,0,120,0.0,48.0
5521,77.0,120,120,0.0,75.0
5522,62.0,0,120,0.0,44.0
5523,58.0,0,120,0.0,46.0
5524,74.0,120,120,0.0,71.0
5525,62.0,120,120,0.0,43.0
5526,70.0,0,120,0.0,69.0
5527,74.0,0,80,0.0,51.0
5528,53.0,120,120,0.0,48.0
5529,72.0,80,80,0.0,47.0
5530,63.0,40,120,0.0,40.0
5531,74.0,40,80,0.0,51.0
5532,72.0,0,80,0.0,46.0
5533,57.0,80,120,0.0,43.0
5534,74.0,80,80,0.0,51.0
5535,72.0,40,80,0.0,47.0
5536,63.0,40,120,0.0,40.0
5537,74.0,80,80,0.0,51.0
5538,53.0,0,120,0.0,48.0
5539,72.0,80,80,0.0,47.0
5540,74.0,40,80,0.0,51.0
5541,63.0,40,120,0.0,39.0
5542,72.0,0,80,0.0,47.0
5543,57.0,80,120,0.0,43.0
5544,74.0,80,80,0.0,51.0
5545,63.0,40,120,0.0,39.0
5546,72.0,40,80,0.0,47.0
5547,74.0,0,80,0.0,51.0
5548,53.0,80,120,0.0,48.0
5549,72.0,80,80,0.0,48.0
5550,74.0,40,80,0.0,51.0
5551,63.0,40,120,0.0,39.0
5552,72.0,80,80,0.0,47.0
5553,57.0,0,120,0.0,43.0
5554,74.0,80,80,0.0,51.0
5555,72.0,40,80,0.0,46.0
5556,63.0,40,120,0.0,38.0
5557,74.0,80,60,0.0,51.0
5558,72.0,60,60,0.0,47.0
5559,53.0,0,120,0.0,48.0
5560,74.0,0,60,0.0,51.0
5561,63.0,60,120,0.0,42.0
5562,72.0,60,60,0.0,47.0
5563,74.0,60,60,0.0,51.0
5564,72.0,60,60,0.0,47.0
5565,57.0,0,120,0.0,45.0
5566,70.0,0,60,0.0,61.0
5567,63.0,60,120,0.0,40.0
5568,72.0,60,60,0.0,56.0
5569,70.0,0,240,0.0,69.0
5570,58.0,60,240,0.0,51.0
5571,82.0,240,240,0.0,54.0
5572,70.0,0,240,0.0,44.0
5573,69.0,240,240,0.0,44.0
5574,82.0,0,240,0.0,58.0
5575,70.0,240,240,0.0,48.0
5576,72.0,0,240,0.0,49.0
5577,81.0,240,240,0.0,56.0
5578,70.0,0,240,0.0,52.0
5579,82.0,240,240,0.0,61.0
5580,84.0,0,240,0.0,68.0
5581,69.0,240,240,0.0,56.0
5582,86.0,240,240,0.0,72.0
5583,68.0,0,240,0.0,59.0
5584,87.0,240,120,0.0,79.0
5585,67.0,0,240,0.0,64.0
5586,86.0,120,120,0.0,73.0
5587,87.0,0,120,0.0,76.0
5588,58.0,120,240,0.0,49.0
5589,86.0,120,120,0.0,70.0
5590,87.0,0,120,0.0,75.0
5591,85.0,120,120,0.0,67.0
5592,66.0,120,240,0.0,58.0
5593,84.0,120,120,0.0,69.0
5594,58.0,0,240,0.0,49.0
5595,82.0,120,120,0.0,65.0
5596,81.0,0,120,0.0,67.0
5597,65.0,120,240,0.0,57.0
5598,82.0,120,120,0.0,70.0
5599,84.0,120,120,0.0,72.0
5600,58.0,0,240,0.0,48.0
5601,82.0,120,120,0.0,67.0
5602,81.0,0,120,0.0,69.0
5603,79.0,120,120,0.0,66.0
5604,69.0,120,240,0.0,55.0
5605,77.0,120,120,0.0,66.0
5606,58.0,0,240,0.0,48.0
5607,75.0,120,120,0.0,65.0
5608,74.0,0,120,0.0,63.0
5609,70.0,120,120,0.0,53.0
5610,74.0,240,120,0.0,49.0
5611,58.0,0,240,0.0,41.0
5612,57.0,240,240,0.0,41.0
5613,58.0,0,240,0.0,37.0
5614,70.0,240,240,0.0,53.0
5615,69.0,0,240,0.0,49.0
5616,60.0,240,240,0.0,45.0
5617,58.0,240,240,0.0,43.0
5618,70.0,0,240,0.0,49.0
5619,57.0,0,240,0.0,43.0
5620,72.0,240,240,0.0,49.0
5621,74.0,240,240,0.0,49.0
5622,56.0,0,240,0.0,38.0
5623,75.0,240,120,0.0,52.0
5624,77.0,240,60,0.0,52.0
5625,75.0,60,60,0.0,49.0
5626,74.0,60,60,0.0,52.0
5627,75.0,60,60,0.0,48.0
5628,55.0,0,480,0.0,45.0
5629,77.0,60,240,0.0,54.0
5630,79.0,0,0,0.0,49.0
5631,51.0,0,480,0.0,35.0
5632,75.0,0,240,0.0,49.0
5633,74.0,0,240,0.0,42.0
5634,53.0,240,0,0.0,35.0
5635,77.0,240,240,0.0,42.0
5636,63.0,240,0,0.0,45.0
5637,69.0,240,240,0.0,30.0
5638,58.0,0,480,0.0,37.0
5639,72.0,0,960,0.0,45.0
5640,53.0,480,480,0.0,28.0
5641,70.0,0,360,0.0,32.0
5642,62.0,480,360,0.0,32.0
5643,46.0,0,360,0.0,28.0
