,note,step,duration,channel,velocity
0,57.0,60,60,2.0,80.0
1,41.0,0,120,8.0,80.0
2,60.0,60,60,2.0,80.0
3,65.0,60,60,2.0,80.0
4,60.0,60,60,2.0,80.0
5,57.0,60,60,2.0,80.0
6,65.0,0,119,10.0,72.0
7,69.0,60,119,10.0,72.0
8,57.0,60,60,2.0,80.0
9,65.0,0,480,1.0,80.0
10,40.0,0,120,8.0,80.0
11,60.0,60,60,2.0,80.0
12,67.0,0,120,1.0,80.0
13,65.0,60,60,2.0,80.0
14,60.0,0,60,2.0,80.0
15,69.0,60,120,1.0,80.0
16,57.0,60,60,2.0,80.0
17,70.0,0,119,10.0,72.0
18,38.0,60,120,8.0,80.0
19,58.0,60,60,2.0,80.0
20,62.0,60,60,2.0,80.0
21,65.0,60,60,2.0,80.0
22,62.0,60,60,2.0,80.0
23,58.0,60,60,2.0,80.0
24,65.0,60,119,10.0,72.0
25,70.0,0,480,1.0,80.0
26,31.0,0,120,8.0,80.0
27,58.0,60,60,2.0,80.0
28,62.0,0,60,2.0,80.0
29,72.0,60,120,1.0,80.0
30,65.0,60,60,2.0,80.0
31,62.0,0,60,2.0,80.0
32,74.0,60,120,1.0,80.0
33,58.0,60,60,2.0,80.0
34,67.0,0,119,10.0,72.0
35,65.0,0,119,10.0,72.0
36,55.0,60,60,2.0,80.0
37,36.0,0,120,8.0,80.0
38,60.0,60,60,2.0,80.0
39,65.0,60,60,2.0,80.0
40,60.0,60,60,2.0,80.0
41,53.0,0,1800,0.0,80.0
42,55.0,60,60,2.0,80.0
43,64.0,0,119,10.0,72.0
44,67.0,0,119,10.0,72.0
45,72.0,60,480,1.0,80.0
46,55.0,60,60,2.0,80.0
47,36.0,0,120,8.0,80.0
48,60.0,0,60,2.0,80.0
49,52.0,60,240,0.0,80.0
50,64.0,60,60,2.0,80.0
51,74.0,60,120,1.0,80.0
52,60.0,0,60,2.0,80.0
53,70.0,60,120,1.0,80.0
54,55.0,60,60,2.0,80.0
55,55.0,60,0,0.0,80.0
56,64.0,0,119,10.0,72.0
57,67.0,0,119,10.0,72.0
58,70.0,0,119,10.0,72.0
59,41.0,0,120,8.0,80.0
60,55.0,60,60,2.0,80.0
61,60.0,60,60,2.0,81.0
62,64.0,60,60,2.0,82.0
63,72.0,0,240,1.0,80.0
64,70.0,2,28,1.0,83.0
65,72.0,28,26,1.0,83.0
66,60.0,60,60,2.0,83.0
67,70.0,20,14,1.0,84.0
68,72.0,8,14,1.0,84.0
69,70.0,8,28,1.0,84.0
70,55.0,2,60,2.0,84.0
71,69.0,0,119,10.0,76.0
72,65.0,0,119,10.0,76.0
73,57.0,60,60,2.0,85.0
74,53.0,0,120,0.0,85.0
75,29.0,52,120,8.0,85.0
76,69.0,0,120,1.0,85.0
77,60.0,60,60,2.0,86.0
78,65.0,60,60,2.0,87.0
79,60.0,60,60,2.0,88.0
80,57.0,60,60,2.0,89.0
81,41.0,0,120,8.0,100.0
82,57.0,60,60,2.0,100.0
83,60.0,60,60,2.0,100.0
84,65.0,60,60,2.0,100.0
85,60.0,60,60,2.0,100.0
86,57.0,60,60,2.0,100.0
87,57.0,60,60,2.0,100.0
88,41.0,60,120,8.0,100.0
89,60.0,60,60,2.0,100.0
90,77.0,54,600,1.0,89.0
91,65.0,60,60,2.0,100.0
92,60.0,0,60,2.0,100.0
93,76.0,60,108,1.0,100.0
94,57.0,6,720,0.0,100.0
95,57.0,60,60,2.0,100.0
96,74.0,0,119,10.0,90.0
97,70.0,0,119,10.0,90.0
98,58.0,52,60,2.0,100.0
99,41.0,60,120,8.0,100.0
100,62.0,60,60,2.0,100.0
101,65.0,60,60,2.0,100.0
102,76.0,8,258,1.0,100.0
103,74.0,14,32,1.0,100.0
104,62.0,60,60,2.0,100.0
105,76.0,2,22,1.0,100.0
106,74.0,40,26,1.0,100.0
107,76.0,2,14,1.0,100.0
108,58.0,4,60,2.0,100.0
109,58.0,0,360,0.0,100.0
110,74.0,28,48,1.0,100.0
111,72.0,0,119,10.0,90.0
112,69.0,0,119,10.0,90.0
113,29.0,30,120,8.0,100.0
114,57.0,56,60,2.0,100.0
115,72.0,4,128,1.0,100.0
116,60.0,60,60,2.0,100.0
117,65.0,60,60,2.0,100.0
118,60.0,60,60,2.0,100.0
119,57.0,60,60,2.0,100.0
120,57.0,0,360,0.0,100.0
121,38.0,0,60,8.0,80.0
122,71.0,0,119,10.0,72.0
123,65.0,0,119,10.0,72.0
124,59.0,60,60,2.0,80.0
125,62.0,60,60,2.0,80.0
126,65.0,60,60,2.0,80.0
127,62.0,60,60,2.0,80.0
128,59.0,60,60,2.0,80.0
129,38.0,0,60,8.0,80.0
130,65.0,0,119,10.0,72.0
131,71.0,60,119,10.0,72.0
132,59.0,60,60,2.0,80.0
133,62.0,60,60,2.0,80.0
134,65.0,60,60,2.0,80.0
135,62.0,60,60,2.0,80.0
136,71.0,60,660,1.0,80.0
137,79.0,0,60,1.0,80.0
138,56.0,0,720,0.0,80.0
139,59.0,60,60,2.0,80.0
140,40.0,0,60,8.0,80.0
141,67.0,0,119,10.0,72.0
142,72.0,60,119,10.0,72.0
143,58.0,60,60,2.0,80.0
144,60.0,60,60,2.0,80.0
145,67.0,60,60,2.0,80.0
146,60.0,60,60,2.0,80.0
147,79.0,0,300,1.0,80.0
148,77.0,60,15,1.0,72.0
149,76.0,15,15,1.0,69.0
150,74.0,15,15,1.0,64.0
151,72.0,15,15,1.0,60.0
152,58.0,0,60,2.0,80.0
153,40.0,15,60,8.0,80.0
154,72.0,0,119,10.0,72.0
155,67.0,0,119,10.0,72.0
156,58.0,60,60,2.0,80.0
157,70.0,0,120,1.0,71.0
158,60.0,60,60,2.0,80.0
159,67.0,60,60,2.0,80.0
160,60.0,60,60,2.0,80.0
161,58.0,60,60,2.0,80.0
162,55.0,0,720,0.0,80.0
163,72.0,0,119,10.0,90.0
164,69.0,8,119,10.0,90.0
165,57.0,60,60,2.0,100.0
166,41.0,0,120,8.0,100.0
167,60.0,60,60,2.0,100.0
168,65.0,60,60,2.0,100.0
169,60.0,60,60,2.0,100.0
170,53.0,0,360,0.0,100.0
171,57.0,60,60,2.0,100.0
172,70.0,60,119,10.0,90.0
173,34.0,0,120,8.0,100.0
174,55.0,60,60,2.0,100.0
175,69.0,52,494,1.0,80.0
176,70.0,60,60,1.0,100.0
177,62.0,0,60,2.0,100.0
178,65.0,60,60,2.0,100.0
179,72.0,0,60,1.0,100.0
180,74.0,60,60,1.0,100.0
181,62.0,0,60,2.0,100.0
182,55.0,60,60,2.0,100.0
183,70.0,0,60,1.0,100.0
184,55.0,0,360,0.0,100.0
185,72.0,0,119,10.0,90.0
186,69.0,0,119,10.0,90.0
187,36.0,60,120,8.0,100.0
188,57.0,60,60,2.0,99.0
189,60.0,60,60,2.0,97.0
190,65.0,60,60,2.0,95.0
191,60.0,60,60,2.0,94.0
192,57.0,60,60,2.0,92.0
193,57.0,0,360,0.0,100.0
194,64.0,0,119,10.0,81.0
195,70.0,60,119,10.0,81.0
196,58.0,60,60,2.0,89.0
197,69.0,0,480,1.0,100.0
198,36.0,0,120,8.0,90.0
199,67.0,0,60,1.0,87.0
200,60.0,60,60,2.0,87.0
201,58.0,0,240,0.0,90.0
202,69.0,0,60,1.0,85.0
203,64.0,60,60,2.0,85.0
204,60.0,0,60,2.0,84.0
205,70.0,0,60,1.0,84.0
206,58.0,60,60,2.0,82.0
207,67.0,0,60,1.0,82.0
208,52.0,60,120,0.0,84.0
209,41.0,60,120,8.0,80.0
210,57.0,60,60,2.0,80.0
211,60.0,60,60,2.0,80.0
212,53.0,0,240,0.0,80.0
213,65.0,60,60,2.0,80.0
214,60.0,60,60,2.0,80.0
215,57.0,60,60,2.0,80.0
216,65.0,0,119,10.0,72.0
217,69.0,0,119,10.0,72.0
218,40.0,60,120,8.0,80.0
219,57.0,60,60,2.0,80.0
220,65.0,0,480,3.0,100.0
221,65.0,0,480,1.0,80.0
222,60.0,6,60,2.0,80.0
223,65.0,60,60,2.0,80.0
224,67.0,0,120,3.0,100.0
225,67.0,54,132,1.0,80.0
226,60.0,0,60,2.0,80.0
227,69.0,60,120,1.0,80.0
228,69.0,0,120,3.0,100.0
229,57.0,60,60,2.0,80.0
230,70.0,0,119,10.0,72.0
231,38.0,0,120,8.0,80.0
232,58.0,60,60,2.0,80.0
233,62.0,60,60,2.0,80.0
234,65.0,60,60,2.0,80.0
235,62.0,60,60,2.0,80.0
236,58.0,60,60,2.0,80.0
237,65.0,60,119,10.0,72.0
238,70.0,0,480,3.0,100.0
239,31.0,0,120,8.0,80.0
240,58.0,60,60,2.0,80.0
241,70.0,60,488,1.0,80.0
242,62.0,60,60,2.0,80.0
243,72.0,0,118,1.0,80.0
244,72.0,0,120,3.0,100.0
245,65.0,60,60,2.0,80.0
246,62.0,0,60,2.0,80.0
247,58.0,60,60,2.0,80.0
248,74.0,2,120,3.0,100.0
249,74.0,58,124,1.0,80.0
250,65.0,0,119,10.0,72.0
251,67.0,60,119,10.0,72.0
252,36.0,0,120,8.0,80.0
253,55.0,58,60,2.0,80.0
254,60.0,60,60,2.0,80.0
255,65.0,60,60,2.0,80.0
256,60.0,60,60,2.0,80.0
257,55.0,60,60,2.0,80.0
258,72.0,2,470,1.0,80.0
259,64.0,0,119,10.0,72.0
260,55.0,60,60,2.0,80.0
261,72.0,0,480,3.0,100.0
262,36.0,60,120,8.0,80.0
263,60.0,0,60,2.0,80.0
264,74.0,50,124,1.0,80.0
265,64.0,60,60,2.0,80.0
266,74.0,10,120,3.0,100.0
267,60.0,10,60,2.0,80.0
268,70.0,50,124,1.0,80.0
269,55.0,60,60,2.0,80.0
270,70.0,0,120,3.0,100.0
271,70.0,12,119,10.0,72.0
272,67.0,0,119,10.0,72.0
273,64.0,0,119,10.0,72.0
274,41.0,0,120,8.0,80.0
275,55.0,60,60,2.0,80.0
276,60.0,60,60,2.0,80.0
277,72.0,0,240,3.0,100.0
278,64.0,60,60,2.0,80.0
279,72.0,48,254,1.0,80.0
280,70.0,56,24,1.0,80.0
281,70.0,8,28,3.0,100.0
282,72.0,12,18,1.0,80.0
283,70.0,12,22,1.0,80.0
284,60.0,4,60,2.0,80.0
285,72.0,18,8,1.0,80.0
286,72.0,2,44,3.0,100.0
287,70.0,6,36,1.0,80.0
288,70.0,10,38,3.0,100.0
289,55.0,2,60,2.0,80.0
290,65.0,0,119,10.0,72.0
291,72.0,28,119,10.0,72.0
292,57.0,60,60,2.0,80.0
293,29.0,0,120,8.0,80.0
294,60.0,60,60,2.0,80.0
295,69.0,22,226,1.0,80.0
296,65.0,60,60,2.0,80.0
297,69.0,0,240,3.0,100.0
298,60.0,60,60,2.0,80.0
299,57.0,60,60,2.0,80.0
300,57.0,60,60,2.0,90.0
301,41.0,0,120,8.0,90.0
302,60.0,60,60,2.0,90.0
303,65.0,60,60,2.0,90.0
304,60.0,60,60,2.0,90.0
305,57.0,60,60,2.0,90.0
306,41.0,60,120,8.0,90.0
307,57.0,60,60,2.0,90.0
308,60.0,60,60,2.0,90.0
309,77.0,60,600,3.0,100.0
310,65.0,60,60,2.0,90.0
311,77.0,0,616,1.0,90.0
312,60.0,0,60,2.0,90.0
313,76.0,14,98,1.0,90.0
314,57.0,0,720,0.0,90.0
315,76.0,60,120,3.0,100.0
316,57.0,46,60,2.0,90.0
317,70.0,0,119,10.0,81.0
318,74.0,0,119,10.0,81.0
319,58.0,56,60,2.0,90.0
320,41.0,60,120,8.0,90.0
321,62.0,60,60,2.0,90.0
322,76.0,0,240,3.0,100.0
323,65.0,60,60,2.0,90.0
324,76.0,4,244,1.0,90.0
325,74.0,60,30,1.0,90.0
326,74.0,18,28,3.0,100.0
327,74.0,14,14,1.0,90.0
328,62.0,0,60,2.0,90.0
329,76.0,0,28,3.0,100.0
330,76.0,10,42,1.0,90.0
331,74.0,2,10,3.0,100.0
332,74.0,0,32,1.0,90.0
333,76.0,4,16,3.0,100.0
334,58.0,18,60,2.0,90.0
335,58.0,0,360,0.0,90.0
336,74.0,18,52,3.0,100.0
337,72.0,16,128,1.0,90.0
338,69.0,0,119,10.0,81.0
339,72.0,0,119,10.0,81.0
340,57.0,60,60,2.0,90.0
341,29.0,0,120,8.0,90.0
342,60.0,60,60,2.0,90.0
343,65.0,60,60,2.0,90.0
344,72.0,20,240,3.0,100.0
345,60.0,60,60,2.0,90.0
346,57.0,0,360,0.0,90.0
347,57.0,60,60,2.0,90.0
348,71.0,0,119,10.0,72.0
349,67.0,60,119,10.0,72.0
350,55.0,60,60,2.0,80.0
351,41.0,0,120,8.0,80.0
352,59.0,60,60,2.0,80.0
353,71.0,0,112,1.0,80.0
354,62.0,60,60,2.0,80.0
355,59.0,0,60,2.0,80.0
356,74.0,60,70,1.0,80.0
357,55.0,60,60,2.0,80.0
358,71.0,0,119,10.0,72.0
359,67.0,0,119,10.0,72.0
360,41.0,60,120,8.0,80.0
361,55.0,60,60,2.0,80.0
362,59.0,0,60,2.0,80.0
363,79.0,60,118,1.0,80.0
364,62.0,60,60,2.0,80.0
365,59.0,0,60,2.0,80.0
366,74.0,60,90,1.0,80.0
367,71.0,0,720,3.0,100.0
368,55.0,60,60,2.0,80.0
369,74.0,0,30,3.0,100.0
370,72.0,0,119,10.0,72.0
371,40.0,60,120,8.0,80.0
372,55.0,30,60,2.0,80.0
373,60.0,0,60,2.0,80.0
374,72.0,60,120,1.0,80.0
375,64.0,60,60,2.0,80.0
376,60.0,60,60,2.0,80.0
377,76.0,0,84,1.0,80.0
378,55.0,60,60,2.0,80.0
379,69.0,60,119,10.0,72.0
380,57.0,60,60,2.0,80.0
381,36.0,0,120,8.0,80.0
382,60.0,0,60,2.0,80.0
383,64.0,60,116,1.0,80.0
384,64.0,60,60,2.0,80.0
385,72.0,30,570,3.0,100.0
386,60.0,60,60,2.0,80.0
387,71.0,0,60,3.0,100.0
388,69.0,0,94,1.0,80.0
389,69.0,0,60,3.0,100.0
390,57.0,60,60,2.0,80.0
391,67.0,0,119,10.0,72.0
392,69.0,0,119,10.0,72.0
393,38.0,60,120,8.0,80.0
394,57.0,60,60,2.0,80.0
395,60.0,0,60,2.0,80.0
396,67.0,0,240,3.0,100.0
397,62.0,60,60,2.0,80.0
398,57.0,60,124,1.0,80.0
399,60.0,0,60,2.0,80.0
400,64.0,0,102,1.0,80.0
401,65.0,0,0,3.0,100.0
402,57.0,60,60,2.0,80.0
403,65.0,0,119,10.0,72.0
404,55.0,60,60,2.0,80.0
405,31.0,60,120,8.0,80.0
406,59.0,60,60,2.0,80.0
407,62.0,0,114,1.0,80.0
408,62.0,60,60,2.0,80.0
409,59.0,60,60,2.0,80.0
410,65.0,0,112,1.0,80.0
411,55.0,60,60,2.0,80.0
412,55.0,60,60,2.0,80.0
413,36.0,60,120,8.0,80.0
414,60.0,60,60,2.0,80.0
415,64.0,0,116,1.0,80.0
416,64.0,60,60,2.0,80.0
417,60.0,0,60,2.0,80.0
418,72.0,60,116,1.0,80.0
419,55.0,60,60,2.0,80.0
420,57.0,60,60,2.0,80.0
421,45.0,60,120,8.0,80.0
422,60.0,60,60,2.0,80.0
423,64.0,60,60,2.0,80.0
424,72.0,0,126,1.0,80.0
425,60.0,0,60,2.0,80.0
426,76.0,60,102,1.0,80.0
427,64.0,0,720,3.0,100.0
428,57.0,60,60,2.0,80.0
429,57.0,60,60,2.0,80.0
430,41.0,0,120,8.0,80.0
431,72.0,0,120,10.0,80.0
432,62.0,0,120,10.0,80.0
433,60.0,60,60,2.0,80.0
434,69.0,0,120,1.0,80.0
435,62.0,60,60,2.0,80.0
436,60.0,60,60,2.0,80.0
437,74.0,0,94,1.0,80.0
438,62.0,60,360,3.0,100.0
439,57.0,60,60,2.0,80.0
440,57.0,60,60,2.0,80.0
441,62.0,60,120,10.0,80.0
442,72.0,0,120,10.0,80.0
443,41.0,0,120,8.0,80.0
444,60.0,0,60,2.0,80.0
445,62.0,60,60,2.0,80.0
446,74.0,60,120,1.0,80.0
447,60.0,60,60,2.0,80.0
448,77.0,0,106,1.0,80.0
449,57.0,60,60,2.0,80.0
450,41.0,0,120,8.0,80.0
451,62.0,0,120,10.0,80.0
452,72.0,60,120,10.0,80.0
453,57.0,60,60,2.0,80.0
454,74.0,0,480,3.0,100.0
455,60.0,60,60,2.0,80.0
456,77.0,0,118,1.0,80.0
457,73.0,0,120,3.0,100.0
458,62.0,60,60,2.0,80.0
459,60.0,0,60,2.0,80.0
460,81.0,60,110,1.0,80.0
461,57.0,60,60,2.0,80.0
462,74.0,0,120,3.0,100.0
463,41.0,0,120,8.0,80.0
464,62.0,0,120,10.0,80.0
465,72.0,0,120,10.0,80.0
466,77.0,60,120,3.0,100.0
467,57.0,60,60,2.0,80.0
468,60.0,0,60,2.0,80.0
469,62.0,60,60,2.0,80.0
470,76.0,60,120,3.0,100.0
471,81.0,0,122,1.0,80.0
472,60.0,0,60,2.0,80.0
473,84.0,60,96,1.0,80.0
474,57.0,60,60,2.0,80.0
475,74.0,0,120,3.0,100.0
476,43.0,60,120,8.0,80.0
477,55.0,60,60,2.0,80.0
478,60.0,0,60,2.0,80.0
479,64.0,60,60,2.0,80.0
480,79.0,60,126,1.0,80.0
481,60.0,60,60,2.0,80.0
482,76.0,0,106,1.0,80.0
483,76.0,0,360,10.0,80.0
484,55.0,60,60,2.0,80.0
485,55.0,60,60,2.0,80.0
486,31.0,0,120,8.0,80.0
487,62.0,0,60,2.0,80.0
488,72.0,0,570,3.0,100.0
489,77.0,60,118,1.0,80.0
490,65.0,60,60,2.0,80.0
491,72.0,0,600,10.0,80.0
492,76.0,40,30,3.0,100.0
493,74.0,0,60,3.0,100.0
494,62.0,0,60,2.0,80.0
495,74.0,60,360,10.0,80.0
496,71.0,0,120,10.0,80.0
497,72.0,60,0,3.0,100.0
498,55.0,0,60,2.0,80.0
499,71.0,20,126,1.0,80.0
500,64.0,0,60,2.0,80.0
501,72.0,0,118,1.0,80.0
502,55.0,60,60,2.0,80.0
503,60.0,0,60,2.0,80.0
504,55.0,60,60,2.0,80.0
505,36.0,0,240,8.0,80.0
506,64.0,60,126,1.0,80.0
507,62.0,60,60,2.0,80.0
508,55.0,60,60,2.0,80.0
509,65.0,0,136,1.0,80.0
510,64.0,60,60,2.0,80.0
511,60.0,60,60,2.0,80.0
512,67.0,0,130,1.0,80.0
513,65.0,0,60,2.0,80.0
514,60.0,60,60,2.0,80.0
515,69.0,60,120,1.0,80.0
516,62.0,0,60,2.0,80.0
517,71.0,60,80,1.0,80.0
518,60.0,60,60,2.0,80.0
519,64.0,0,60,2.0,80.0
520,36.0,0,120,8.0,80.0
521,48.0,60,120,10.0,100.0
522,55.0,60,60,2.0,80.0
523,72.0,0,180,3.0,100.0
524,60.0,60,60,2.0,80.0
525,64.0,60,60,2.0,80.0
526,36.0,0,960,0.0,80.0
527,67.0,56,4,3.0,100.0
528,72.0,0,246,1.0,80.0
529,60.0,0,60,2.0,80.0
530,67.0,0,94,1.0,80.0
531,55.0,60,60,2.0,80.0
532,55.0,60,60,2.0,80.0
533,36.0,0,120,8.0,80.0
534,48.0,0,120,10.0,100.0
535,60.0,60,60,2.0,80.0
536,67.0,0,240,3.0,100.0
537,64.0,60,60,2.0,80.0
538,67.0,60,262,1.0,80.0
539,65.0,60,60,2.0,80.0
540,69.0,0,90,1.0,80.0
541,60.0,60,60,2.0,80.0
542,69.0,0,0,3.0,100.0
543,48.0,0,120,10.0,100.0
544,36.0,0,120,8.0,80.0
545,60.0,60,60,2.0,80.0
546,69.0,60,136,1.0,80.0
547,66.0,0,60,2.0,80.0
548,72.0,0,120,3.0,100.0
549,69.0,60,60,2.0,80.0
550,72.0,60,124,1.0,80.0
551,67.0,0,60,2.0,80.0
552,64.0,60,60,2.0,80.0
553,70.0,60,120,3.0,100.0
554,70.0,0,140,1.0,80.0
555,36.0,0,120,8.0,80.0
556,48.0,0,120,10.0,100.0
557,60.0,60,60,2.0,80.0
558,64.0,0,60,2.0,80.0
559,67.0,60,60,2.0,80.0
560,70.0,60,128,1.0,80.0
561,64.0,60,60,2.0,80.0
562,70.0,60,360,3.0,100.0
563,60.0,60,60,2.0,80.0
564,67.0,0,124,1.0,80.0
565,46.0,60,120,8.0,90.0
566,60.0,60,60,2.0,90.0
567,76.0,0,120,10.0,90.0
568,72.0,0,120,10.0,90.0
569,64.0,60,60,2.0,90.0
570,67.0,60,60,2.0,90.0
571,67.0,0,126,1.0,90.0
572,64.0,0,60,2.0,90.0
573,76.0,60,118,1.0,90.0
574,60.0,60,60,2.0,90.0
575,72.0,60,120,10.0,90.0
576,76.0,0,120,10.0,90.0
577,46.0,0,120,8.0,90.0
578,60.0,60,60,2.0,90.0
579,64.0,60,60,2.0,90.0
580,76.0,0,570,3.0,100.0
581,67.0,60,60,2.0,90.0
582,77.0,40,28,3.0,100.0
583,76.0,0,130,1.0,90.0
584,76.0,20,60,3.0,100.0
585,64.0,0,60,2.0,90.0
586,74.0,0,26,3.0,100.0
587,72.0,30,22,3.0,100.0
588,60.0,60,60,2.0,90.0
589,84.0,0,128,1.0,90.0
590,77.0,0,120,10.0,90.0
591,60.0,60,60,2.0,90.0
592,45.0,30,120,8.0,90.0
593,65.0,0,60,2.0,90.0
594,69.0,60,60,2.0,90.0
595,69.0,60,130,1.0,90.0
596,65.0,60,60,2.0,90.0
597,77.0,0,110,1.0,90.0
598,60.0,0,1080,0.0,90.0
599,60.0,60,60,2.0,90.0
600,77.0,60,120,10.0,90.0
601,75.0,0,120,10.0,90.0
602,65.0,60,60,2.0,90.0
603,45.0,0,120,8.0,90.0
604,69.0,60,60,2.0,90.0
605,72.0,60,60,2.0,90.0
606,84.0,0,120,1.0,90.0
607,69.0,0,60,2.0,90.0
608,63.0,0,360,0.0,90.0
609,65.0,60,60,2.0,90.0
610,75.0,60,142,1.0,90.0
611,74.0,60,22,1.0,80.0
612,46.0,0,120,8.0,80.0
613,77.0,0,840,3.0,100.0
614,65.0,60,60,2.0,80.0
615,62.0,0,120,0.0,80.0
616,74.0,0,60,2.0,80.0
617,77.0,60,120,3.0,100.0
618,65.0,60,60,2.0,80.0
619,77.0,0,124,1.0,80.0
620,72.0,0,60,2.0,80.0
621,65.0,60,60,2.0,80.0
622,76.0,0,120,3.0,100.0
623,76.0,60,128,1.0,80.0
624,46.0,60,120,8.0,80.0
625,74.0,0,120,3.0,100.0
626,62.0,60,60,2.0,80.0
627,70.0,0,60,2.0,80.0
628,62.0,60,60,2.0,80.0
629,74.0,0,120,3.0,100.0
630,74.0,60,128,1.0,80.0
631,69.0,0,60,2.0,80.0
632,72.0,54,120,3.0,100.0
633,62.0,60,60,2.0,80.0
634,72.0,6,138,1.0,80.0
635,72.0,10,26,3.0,100.0
636,34.0,0,120,8.0,80.0
637,58.0,30,60,2.0,80.0
638,67.0,60,120,10.0,80.0
639,62.0,0,60,2.0,80.0
640,67.0,60,60,2.0,80.0
641,79.0,60,134,1.0,80.0
642,62.0,60,60,2.0,80.0
643,58.0,60,60,2.0,80.0
644,70.0,0,0,3.0,100.0
645,70.0,0,138,1.0,80.0
646,69.0,0,120,10.0,80.0
647,35.0,60,120,8.0,80.0
648,57.0,30,60,2.0,80.0
649,62.0,0,60,2.0,80.0
650,65.0,60,60,2.0,80.0
651,77.0,60,128,1.0,80.0
652,62.0,60,60,2.0,80.0
653,69.0,30,330,3.0,100.0
654,57.0,60,60,2.0,80.0
655,69.0,0,140,1.0,80.0
656,65.0,0,120,10.0,80.0
657,36.0,0,120,8.0,80.0
658,69.0,60,120,10.0,80.0
659,57.0,60,60,2.0,80.0
660,60.0,0,60,2.0,80.0
661,72.0,60,94,1.0,80.0
662,65.0,60,60,2.0,80.0
663,60.0,0,60,2.0,80.0
664,57.0,60,60,2.0,80.0
665,72.0,60,130,1.0,80.0
666,36.0,0,120,8.0,80.0
667,65.0,60,120,10.0,80.0
668,57.0,60,60,2.0,80.0
669,72.0,0,480,3.0,100.0
670,69.0,0,120,10.0,80.0
671,60.0,60,60,2.0,80.0
672,70.0,4,70,3.0,100.0
673,60.0,0,96,1.0,80.0
674,69.0,56,54,3.0,100.0
675,65.0,0,60,2.0,80.0
676,60.0,8,60,2.0,80.0
677,67.0,52,70,3.0,100.0
678,57.0,6,60,2.0,80.0
679,69.0,54,70,3.0,100.0
680,60.0,0,130,1.0,80.0
681,64.0,0,120,10.0,80.0
682,67.0,60,120,10.0,80.0
683,60.0,60,60,2.0,80.0
684,36.0,0,120,8.0,80.0
685,64.0,0,60,2.0,80.0
686,67.0,0,240,3.0,100.0
687,60.0,60,60,2.0,80.0
688,55.0,0,120,0.0,80.0
689,67.0,60,124,1.0,80.0
690,65.0,60,60,2.0,80.0
691,57.0,0,120,0.0,80.0
692,60.0,60,60,2.0,80.0
693,69.0,0,138,1.0,80.0
694,67.0,0,60,2.0,80.0
695,58.0,0,120,0.0,80.0
696,60.0,60,60,2.0,80.0
697,70.0,60,134,1.0,80.0
698,65.0,0,60,2.0,80.0
699,57.0,60,120,0.0,80.0
700,60.0,60,60,2.0,80.0
701,69.0,0,124,1.0,80.0
702,64.0,60,60,2.0,80.0
703,55.0,0,120,0.0,80.0
704,60.0,60,60,2.0,80.0
705,67.0,0,124,1.0,80.0
706,65.0,0,120,10.0,80.0
707,60.0,60,60,2.0,80.0
708,33.0,0,120,8.0,80.0
709,65.0,60,60,2.0,80.0
710,65.0,0,114,1.0,80.0
711,69.0,60,60,2.0,80.0
712,65.0,0,60,2.0,80.0
713,60.0,60,60,2.0,80.0
714,69.0,60,134,1.0,80.0
715,60.0,60,60,2.0,80.0
716,65.0,60,480,3.0,100.0
717,33.0,0,120,8.0,80.0
718,65.0,60,120,10.0,80.0
719,65.0,0,60,2.0,80.0
720,72.0,60,120,3.0,100.0
721,69.0,60,60,2.0,80.0
722,72.0,0,128,1.0,80.0
723,65.0,0,60,2.0,80.0
724,60.0,60,60,2.0,80.0
725,69.0,0,0,3.0,100.0
726,53.0,0,720,0.0,80.0
727,69.0,60,128,1.0,80.0
728,57.0,56,30,0.0,80.0
729,60.0,30,60,2.0,80.0
730,34.0,0,120,8.0,80.0
731,64.0,4,120,10.0,80.0
732,72.0,0,120,10.0,80.0
733,64.0,0,60,2.0,80.0
734,67.0,60,118,1.0,80.0
735,67.0,60,60,2.0,80.0
736,67.0,18,270,3.0,100.0
737,64.0,60,60,2.0,80.0
738,65.0,0,60,3.0,100.0
739,60.0,60,60,2.0,80.0
740,55.0,12,354,0.0,80.0
741,64.0,0,128,1.0,80.0
742,33.0,0,120,8.0,80.0
743,65.0,0,120,10.0,80.0
744,60.0,60,60,2.0,80.0
745,65.0,0,60,2.0,80.0
746,65.0,60,118,1.0,80.0
747,69.0,60,60,2.0,80.0
748,53.0,58,278,0.0,80.0
749,65.0,60,60,2.0,80.0
750,60.0,60,60,2.0,80.0
751,65.0,2,360,3.0,100.0
752,60.0,0,128,1.0,80.0
753,45.0,0,120,8.0,80.0
754,65.0,60,120,10.0,80.0
755,60.0,56,60,2.0,80.0
756,65.0,0,60,2.0,80.0
757,69.0,60,60,2.0,80.0
758,69.0,60,132,1.0,80.0
759,65.0,60,60,2.0,80.0
760,60.0,60,60,2.0,80.0
761,72.0,0,126,1.0,80.0
762,60.0,60,60,2.0,80.0
763,65.0,0,120,10.0,80.0
764,45.0,60,120,8.0,80.0
765,65.0,0,60,2.0,80.0
766,77.0,0,540,3.0,100.0
767,76.0,0,60,3.0,100.0
768,69.0,60,60,2.0,80.0
769,77.0,60,122,1.0,80.0
770,65.0,0,60,2.0,80.0
771,74.0,0,60,3.0,100.0
772,53.0,4,712,0.0,80.0
773,72.0,0,60,3.0,100.0
774,60.0,60,60,2.0,80.0
775,60.0,2,12,0.0,80.0
776,72.0,60,156,1.0,80.0
777,55.0,60,60,2.0,80.0
778,70.0,0,120,10.0,80.0
779,40.0,0,120,8.0,80.0
780,72.0,8,120,10.0,80.0
781,60.0,60,60,2.0,80.0
782,67.0,60,60,2.0,80.0
783,79.0,0,128,1.0,80.0
784,72.0,0,300,3.0,100.0
785,60.0,0,60,2.0,80.0
786,58.0,50,362,0.0,80.0
787,70.0,54,62,3.0,100.0
788,55.0,6,60,2.0,80.0
789,70.0,60,124,1.0,80.0
790,57.0,60,60,2.0,80.0
791,41.0,0,120,8.0,80.0
792,60.0,60,60,2.0,80.0
793,69.0,14,240,3.0,100.0
794,65.0,60,60,2.0,80.0
795,69.0,0,122,1.0,80.0
796,60.0,60,60,2.0,80.0
797,57.0,60,60,2.0,80.0
798,57.0,46,376,0.0,80.0
799,77.0,0,124,1.0,80.0
800,60.0,60,60,2.0,90.0
801,65.0,0,120,10.0,90.0
802,63.0,0,120,10.0,90.0
803,33.0,60,120,8.0,90.0
804,63.0,60,60,2.0,90.0
805,65.0,60,60,2.0,90.0
806,75.0,0,138,1.0,90.0
807,63.0,60,60,2.0,90.0
808,60.0,60,60,2.0,90.0
809,72.0,0,146,1.0,90.0
810,60.0,60,60,2.0,90.0
811,65.0,0,120,10.0,90.0
812,63.0,60,120,10.0,90.0
813,33.0,0,120,8.0,90.0
814,63.0,60,60,2.0,90.0
815,65.0,60,60,2.0,90.0
816,69.0,0,128,1.0,90.0
817,63.0,60,60,2.0,90.0
818,60.0,60,60,2.0,90.0
819,63.0,0,720,3.0,100.0
820,63.0,0,140,1.0,90.0
821,58.0,60,60,2.0,90.0
822,34.0,60,120,8.0,90.0
823,62.0,0,60,2.0,90.0
824,65.0,60,60,2.0,90.0
825,62.0,60,132,1.0,90.0
826,62.0,60,60,2.0,90.0
827,62.0,0,360,3.0,100.0
828,58.0,60,60,2.0,90.0
829,65.0,0,136,1.0,90.0
830,58.0,60,60,2.0,80.0
831,34.0,60,120,8.0,80.0
832,62.0,0,60,2.0,80.0
833,65.0,60,60,2.0,80.0
834,70.0,60,128,1.0,80.0
835,62.0,0,60,2.0,80.0
836,58.0,60,60,2.0,80.0
837,74.0,60,144,1.0,80.0
838,35.0,60,120,8.0,80.0
839,74.0,0,120,10.0,80.0
840,67.0,0,120,10.0,80.0
841,55.0,60,60,2.0,80.0
842,77.0,0,480,3.0,100.0
843,62.0,0,60,2.0,80.0
844,65.0,60,60,2.0,80.0
845,73.0,60,120,3.0,100.0
846,77.0,0,138,1.0,80.0
847,62.0,0,60,2.0,80.0
848,55.0,60,60,2.0,80.0
849,74.0,60,120,3.0,100.0
850,86.0,0,142,1.0,80.0
851,77.0,0,120,3.0,100.0
852,67.0,0,120,10.0,80.0
853,74.0,0,120,10.0,80.0
854,35.0,60,120,8.0,80.0
855,55.0,60,60,2.0,80.0
856,62.0,0,60,2.0,80.0
857,65.0,60,60,2.0,80.0
858,76.0,60,120,3.0,100.0
859,67.0,0,132,1.0,80.0
860,62.0,0,60,2.0,80.0
861,55.0,60,60,2.0,80.0
862,74.0,60,120,3.0,100.0
863,77.0,0,134,1.0,80.0
864,36.0,0,120,8.0,80.0
865,57.0,60,60,2.0,80.0
866,60.0,0,60,2.0,80.0
867,65.0,60,60,2.0,80.0
868,69.0,60,124,1.0,80.0
869,60.0,0,60,2.0,80.0
870,57.0,60,60,2.0,80.0
871,77.0,60,144,1.0,80.0
872,57.0,60,60,2.0,80.0
873,36.0,60,120,8.0,80.0
874,60.0,0,60,2.0,80.0
875,65.0,60,60,2.0,80.0
876,72.0,60,600,3.0,100.0
877,65.0,60,128,1.0,80.0
878,60.0,0,60,2.0,80.0
879,69.0,0,720,10.0,80.0
880,65.0,0,720,10.0,80.0
881,57.0,60,60,2.0,80.0
882,65.0,0,0,3.0,100.0
883,69.0,0,134,1.0,80.0
884,36.0,60,120,8.0,80.0
885,58.0,60,60,2.0,80.0
886,60.0,60,60,2.0,80.0
887,65.0,60,60,2.0,80.0
888,70.0,0,122,1.0,80.0
889,60.0,0,60,2.0,80.0
890,79.0,60,116,1.0,80.0
891,58.0,60,60,2.0,80.0
892,58.0,60,60,2.0,80.0
893,36.0,60,120,8.0,80.0
894,60.0,60,60,2.0,80.0
895,64.0,60,60,2.0,80.0
896,65.0,0,600,10.0,80.0
897,69.0,30,30,3.0,100.0
898,55.0,0,120,1.0,80.0
899,60.0,30,60,2.0,80.0
900,67.0,0,60,3.0,100.0
901,67.0,0,720,10.0,80.0
902,64.0,0,120,10.0,80.0
903,64.0,0,120,1.0,80.0
904,58.0,60,60,2.0,80.0
905,65.0,0,0,3.0,100.0
906,41.0,0,60,8.0,80.0
907,57.0,56,60,2.0,80.0
908,60.0,60,60,2.0,80.0
909,65.0,60,60,2.0,80.0
910,60.0,60,60,2.0,80.0
911,57.0,60,60,2.0,80.0
912,53.0,0,360,7.0,80.0
913,40.0,0,60,8.0,80.0
914,57.0,60,60,2.0,80.0
915,57.0,0,480,6.0,80.0
916,60.0,0,480,5.0,80.0
917,65.0,60,480,4.0,80.0
918,65.0,0,484,1.0,80.0
919,60.0,4,60,2.0,80.0
920,65.0,60,60,2.0,80.0
921,67.0,0,120,4.0,80.0
922,58.0,0,120,5.0,80.0
923,55.0,0,120,6.0,80.0
924,67.0,56,132,1.0,80.0
925,60.0,0,60,2.0,80.0
926,57.0,0,120,5.0,80.0
927,57.0,60,60,2.0,80.0
928,69.0,2,120,4.0,80.0
929,52.0,60,360,7.0,80.0
930,69.0,58,122,1.0,80.0
931,53.0,0,0,6.0,80.0
932,38.0,0,60,8.0,80.0
933,58.0,60,60,2.0,80.0
934,62.0,60,60,2.0,80.0
935,55.0,0,120,6.0,80.0
936,65.0,60,60,2.0,80.0
937,50.0,60,0,7.0,80.0
938,62.0,60,60,2.0,80.0
939,57.0,0,120,6.0,80.0
940,65.0,0,360,5.0,80.0
941,58.0,0,60,2.0,80.0
942,31.0,0,60,8.0,80.0
943,70.0,0,468,1.0,80.0
944,58.0,60,60,2.0,80.0
945,70.0,60,480,4.0,80.0
946,62.0,0,60,2.0,80.0
947,72.0,8,120,4.0,80.0
948,65.0,60,60,2.0,80.0
949,72.0,52,128,1.0,80.0
950,62.0,0,60,2.0,80.0
951,74.0,56,122,1.0,80.0
952,74.0,4,120,4.0,80.0
953,43.0,0,360,7.0,80.0
954,58.0,0,360,6.0,80.0
955,58.0,60,60,2.0,80.0
956,36.0,4,120,8.0,80.0
957,65.0,60,480,5.0,80.0
958,55.0,60,60,2.0,80.0
959,60.0,0,60,2.0,80.0
960,64.0,60,120,5.0,80.0
961,65.0,60,60,2.0,80.0
962,60.0,60,60,2.0,80.0
963,48.0,60,0,7.0,80.0
964,62.0,0,120,5.0,80.0
965,55.0,60,60,2.0,80.0
966,55.0,0,360,6.0,80.0
967,72.0,0,360,4.0,80.0
968,53.0,4,1806,0.0,80.0
969,36.0,0,120,8.0,80.0
970,72.0,0,120,4.0,80.0
971,55.0,56,60,2.0,80.0
972,72.0,56,492,1.0,80.0
973,60.0,60,60,2.0,80.0
974,74.0,2,100,1.0,80.0
975,64.0,58,60,2.0,80.0
976,48.0,0,0,7.0,80.0
977,64.0,0,0,5.0,80.0
978,74.0,0,120,4.0,80.0
979,55.0,0,240,6.0,80.0
980,52.0,4,260,0.0,80.0
981,60.0,4,60,2.0,80.0
982,55.0,4,102,0.0,80.0
983,70.0,0,120,4.0,80.0
984,55.0,0,0,6.0,80.0
985,64.0,2,0,5.0,80.0
986,55.0,56,60,2.0,80.0
987,70.0,56,136,1.0,80.0
988,55.0,54,60,2.0,80.0
989,41.0,0,120,8.0,80.0
990,60.0,60,60,2.0,80.0
991,53.0,0,240,7.0,80.0
992,64.0,60,60,2.0,80.0
993,55.0,0,0,6.0,80.0
994,64.0,0,0,5.0,80.0
995,72.0,0,240,4.0,80.0
996,72.0,6,250,1.0,80.0
997,70.0,0,30,4.0,80.0
998,70.0,10,32,1.0,80.0
999,60.0,0,60,2.0,80.0
1000,72.0,22,30,4.0,80.0
1001,72.0,6,32,1.0,80.0
1002,70.0,8,22,1.0,80.0
1003,72.0,14,36,1.0,80.0
1004,55.0,22,60,2.0,80.0
1005,70.0,0,60,4.0,80.0
1006,41.0,60,120,7.0,80.0
1007,55.0,58,382,0.0,80.0
1008,29.0,0,120,8.0,80.0
1009,69.0,0,120,4.0,80.0
1010,65.0,4,120,5.0,80.0
1011,57.0,50,60,2.0,80.0
1012,41.0,0,120,7.0,80.0
1013,53.0,10,126,0.0,80.0
1014,60.0,60,60,2.0,80.0
1015,69.0,34,236,1.0,80.0
1016,53.0,0,240,6.0,80.0
1017,65.0,60,60,2.0,80.0
1018,60.0,60,60,2.0,80.0
1019,57.0,60,60,2.0,80.0
1020,57.0,60,60,2.0,100.0
1021,53.0,0,120,10.0,100.0
1022,41.0,0,120,8.0,100.0
1023,60.0,60,60,2.0,100.0
1024,69.0,0,240,5.0,100.0
1025,65.0,60,60,2.0,100.0
1026,60.0,0,240,6.0,100.0
1027,77.0,60,0,4.0,100.0
1028,53.0,10,240,7.0,100.0
1029,60.0,0,60,2.0,100.0
1030,57.0,60,60,2.0,100.0
1031,77.0,0,0,4.0,100.0
1032,69.0,60,0,5.0,100.0
1033,53.0,0,0,7.0,100.0
1034,60.0,0,0,6.0,100.0
1035,41.0,0,120,8.0,100.0
1036,53.0,0,120,10.0,100.0
1037,57.0,60,60,2.0,100.0
1038,60.0,60,60,2.0,100.0
1039,77.0,0,598,1.0,100.0
1040,65.0,60,60,2.0,100.0
1041,53.0,8,39,7.0,100.0
1042,76.0,6,52,1.0,100.0
1043,60.0,0,60,2.0,100.0
1044,60.0,0,60,6.0,100.0
1045,69.0,0,0,5.0,100.0
1046,76.0,0,60,4.0,100.0
1047,53.0,7,40,7.0,100.0
1048,57.0,0,60,2.0,100.0
1049,60.0,46,60,6.0,100.0
1050,77.0,0,60,4.0,100.0
1051,77.0,0,60,1.0,100.0
1052,57.0,50,746,0.0,80.0
1053,70.0,0,120,10.0,100.0
1054,58.0,52,60,2.0,100.0
1055,74.0,0,120,10.0,100.0
1056,53.0,0,120,10.0,100.0
1057,41.0,0,120,8.0,100.0
1058,62.0,60,60,2.0,100.0
1059,76.0,0,240,4.0,100.0
1060,65.0,60,60,2.0,100.0
1061,62.0,53,240,6.0,100.0
1062,76.0,4,252,1.0,100.0
1063,74.0,4,31,4.0,100.0
1064,74.0,10,22,1.0,100.0
1065,76.0,4,24,1.0,100.0
1066,62.0,60,60,2.0,100.0
1067,76.0,16,30,4.0,100.0
1068,76.0,4,22,1.0,100.0
1069,74.0,8,24,4.0,100.0
1070,74.0,2,34,1.0,100.0
1071,76.0,16,30,4.0,100.0
1072,64.0,0,120,6.0,100.0
1073,70.0,0,360,5.0,100.0
1074,53.0,0,0,7.0,100.0
1075,58.0,26,60,2.0,100.0
1076,58.0,4,366,0.0,100.0
1077,69.0,0,120,10.0,100.0
1078,72.0,0,120,10.0,100.0
1079,65.0,0,120,6.0,100.0
1080,29.0,0,120,8.0,100.0
1081,41.0,0,120,10.0,100.0
1082,72.0,12,120,4.0,100.0
1083,69.0,0,120,5.0,100.0
1084,57.0,52,60,2.0,100.0
1085,72.0,18,144,1.0,100.0
1086,60.0,60,60,2.0,100.0
1087,65.0,60,60,2.0,100.0
1088,60.0,60,60,2.0,100.0
1089,57.0,60,60,2.0,100.0
1090,57.0,8,360,0.0,100.0
1091,59.0,52,60,2.0,80.0
1092,38.0,0,120,8.0,80.0
1093,62.0,60,60,2.0,80.0
1094,65.0,60,60,2.0,80.0
1095,62.0,60,60,2.0,80.0
1096,59.0,60,60,2.0,80.0
1097,38.0,60,120,8.0,80.0
1098,59.0,60,60,2.0,80.0
1099,62.0,60,60,2.0,80.0
1100,65.0,60,60,2.0,80.0
1101,71.0,4,648,1.0,80.0
1102,62.0,60,60,2.0,80.0
1103,79.0,2,46,1.0,80.0
1104,53.0,0,720,6.0,80.0
1105,50.0,0,720,7.0,80.0
1106,59.0,60,60,2.0,80.0
1107,71.0,0,720,4.0,80.0
1108,68.0,60,720,5.0,80.0
1109,56.0,4,732,0.0,80.0
1110,58.0,56,60,2.0,80.0
1111,40.0,0,120,8.0,80.0
1112,60.0,60,60,2.0,80.0
1113,67.0,60,60,2.0,80.0
1114,60.0,60,60,2.0,80.0
1115,79.0,4,300,1.0,80.0
1116,77.0,60,15,1.0,80.0
1117,76.0,15,15,1.0,80.0
1118,74.0,15,22,1.0,80.0
1119,72.0,15,15,1.0,80.0
1120,58.0,0,60,2.0,80.0
1121,40.0,0,120,8.0,80.0
1122,70.0,15,120,1.0,80.0
1123,58.0,60,60,2.0,80.0
1124,60.0,60,60,2.0,80.0
1125,67.0,60,60,2.0,80.0
1126,60.0,60,60,2.0,80.0
1127,70.0,0,720,4.0,80.0
1128,58.0,60,60,2.0,80.0
1129,52.0,58,720,7.0,80.0
1130,60.0,0,720,6.0,80.0
1131,67.0,0,720,5.0,80.0
1132,55.0,0,722,0.0,80.0
1133,41.0,12,120,8.0,80.0
1134,57.0,60,60,2.0,80.0
1135,60.0,60,60,2.0,80.0
1136,65.0,60,60,2.0,80.0
1137,60.0,60,60,2.0,80.0
1138,57.0,60,60,2.0,80.0
1139,41.0,60,120,8.0,80.0
1140,57.0,60,60,2.0,80.0
1141,60.0,60,60,2.0,80.0
1142,65.0,60,60,2.0,80.0
1143,69.0,48,660,1.0,80.0
1144,60.0,60,60,2.0,80.0
1145,77.0,60,54,1.0,80.0
1146,65.0,0,720,5.0,80.0
1147,60.0,0,720,6.0,80.0
1148,57.0,0,60,2.0,80.0
1149,69.0,0,720,4.0,80.0
1150,53.0,0,720,7.0,80.0
1151,56.0,56,60,2.0,80.0
1152,35.0,0,120,8.0,80.0
1153,62.0,60,60,2.0,80.0
1154,65.0,60,60,2.0,80.0
1155,62.0,60,60,2.0,80.0
1156,77.0,4,325,1.0,80.0
1157,75.0,11,33,1.0,80.0
1158,74.0,8,32,1.0,80.0
1159,72.0,14,24,1.0,80.0
1160,62.0,22,0,6.0,80.0
1161,47.0,0,360,7.0,80.0
1162,56.0,60,60,2.0,80.0
1163,65.0,0,360,5.0,80.0
1164,68.0,0,0,4.0,80.0
1165,70.0,5,29,1.0,80.0
1166,35.0,0,120,8.0,80.0
1167,56.0,60,60,2.0,80.0
1168,68.0,0,129,1.0,80.0
1169,62.0,60,60,2.0,80.0
1170,47.0,0,240,7.0,80.0
1171,65.0,60,60,2.0,80.0
1172,62.0,0,0,6.0,80.0
1173,68.0,0,0,4.0,80.0
1174,65.0,0,0,5.0,80.0
1175,62.0,60,60,2.0,80.0
1176,47.0,0,120,7.0,80.0
1177,56.0,60,60,2.0,80.0
1178,53.0,0,1448,0.0,80.0
1179,56.0,52,60,2.0,80.0
1180,36.0,0,120,8.0,80.0
1181,60.0,60,60,2.0,80.0
1182,65.0,60,60,2.0,80.0
1183,60.0,60,60,2.0,80.0
1184,56.0,60,60,2.0,80.0
1185,68.0,0,480,5.0,80.0
1186,36.0,60,120,8.0,80.0
1187,72.0,0,480,4.0,80.0
1188,56.0,60,60,2.0,80.0
1189,72.0,6,486,1.0,80.0
1190,67.0,0,60,5.0,80.0
1191,70.0,60,60,4.0,80.0
1192,60.0,0,60,2.0,80.0
1193,70.0,1,74,1.0,80.0
1194,68.0,58,58,1.0,80.0
1195,65.0,0,60,5.0,80.0
1196,60.0,0,600,6.0,80.0
1197,65.0,0,60,2.0,80.0
1198,68.0,1,60,4.0,80.0
1199,48.0,60,600,7.0,80.0
1200,60.0,0,60,2.0,80.0
1201,64.0,6,60,5.0,80.0
1202,67.0,0,60,4.0,80.0
1203,67.0,54,68,1.0,80.0
1204,68.0,47,70,1.0,80.0
1205,56.0,13,60,2.0,80.0
1206,68.0,0,60,4.0,80.0
1207,48.0,0,0,7.0,80.0
1208,60.0,0,0,6.0,80.0
1209,65.0,0,60,5.0,80.0
1210,67.0,53,103,1.0,80.0
1211,36.0,0,120,8.0,80.0
1212,60.0,60,60,2.0,80.0
1213,48.0,2,856,0.0,80.0
1214,64.0,9,60,2.0,80.0
1215,67.0,0,240,4.0,80.0
1216,64.0,7,240,5.0,80.0
1217,60.0,50,60,2.0,80.0
1218,67.0,51,133,1.0,80.0
1219,55.0,10,116,0.0,80.0
1220,65.0,4,60,2.0,80.0
1221,60.0,58,60,2.0,80.0
1222,57.0,2,120,0.0,80.0
1223,69.0,56,131,1.0,80.0
1224,67.0,6,60,2.0,80.0
1225,60.0,60,60,2.0,80.0
1226,70.0,54,135,1.0,80.0
1227,58.0,0,136,0.0,80.0
1228,65.0,10,60,2.0,80.0
1229,60.0,58,60,2.0,80.0
1230,69.0,50,133,1.0,80.0
1231,57.0,2,132,0.0,80.0
1232,64.0,3,60,2.0,80.0
1233,60.0,58,60,2.0,80.0
1234,67.0,57,124,1.0,80.0
1235,55.0,2,122,0.0,80.0
1236,33.0,0,120,8.0,80.0
1237,60.0,55,60,2.0,80.0
1238,65.0,60,60,2.0,80.0
1239,69.0,60,60,2.0,80.0
1240,65.0,60,60,2.0,80.0
1241,60.0,60,60,2.0,80.0
1242,65.0,2,360,4.0,80.0
1243,60.0,0,0,6.0,80.0
1244,65.0,0,0,5.0,80.0
1245,45.0,0,360,7.0,80.0
1246,65.0,0,120,4.0,80.0
1247,33.0,60,120,8.0,80.0
1248,60.0,60,60,2.0,80.0
1249,65.0,5,477,1.0,80.0
1250,65.0,0,60,2.0,80.0
1251,72.0,56,120,1.0,80.0
1252,72.0,4,120,4.0,80.0
1253,65.0,0,0,5.0,80.0
1254,45.0,0,240,7.0,80.0
1255,69.0,60,60,2.0,80.0
1256,65.0,0,60,2.0,80.0
1257,69.0,51,105,1.0,80.0
1258,60.0,60,60,2.0,80.0
1259,69.0,9,120,4.0,80.0
1260,45.0,0,120,7.0,80.0
1261,60.0,0,120,6.0,80.0
1262,53.0,58,726,0.0,80.0
1263,69.0,0,25,1.0,80.0
1264,69.0,0,30,4.0,80.0
1265,34.0,0,120,8.0,80.0
1266,61.0,30,60,2.0,80.0
1267,64.0,60,60,2.0,80.0
1268,67.0,60,60,2.0,80.0
1269,64.0,60,60,2.0,80.0
1270,61.0,60,60,2.0,80.0
1271,61.0,0,360,6.0,80.0
1272,46.0,4,360,7.0,80.0
1273,64.0,0,360,5.0,80.0
1274,67.0,12,330,4.0,80.0
1275,67.0,18,344,1.0,80.0
1276,52.0,56,376,0.0,80.0
1277,60.0,48,60,2.0,80.0
1278,33.0,0,120,8.0,80.0
1279,65.0,60,60,2.0,80.0
1280,69.0,60,60,2.0,80.0
1281,65.0,60,60,2.0,80.0
1282,53.0,12,330,0.0,80.0
1283,60.0,0,360,6.0,80.0
1284,45.0,1,360,7.0,80.0
1285,65.0,0,360,5.0,80.0
1286,65.0,0,360,4.0,80.0
1287,60.0,60,60,2.0,80.0
1288,65.0,59,365,1.0,80.0
1289,45.0,0,120,8.0,80.0
1290,60.0,57,60,2.0,80.0
1291,65.0,60,60,2.0,80.0
1292,69.0,60,60,2.0,80.0
1293,65.0,60,60,2.0,80.0
1294,60.0,60,60,2.0,80.0
1295,45.0,60,120,8.0,80.0
1296,60.0,60,60,2.0,80.0
1297,53.0,2,492,0.0,80.0
1298,65.0,60,60,2.0,80.0
1299,77.0,0,540,4.0,80.0
1300,77.0,1,545,1.0,80.0
1301,60.0,0,600,6.0,80.0
1302,57.0,0,0,7.0,80.0
1303,65.0,0,0,5.0,80.0
1304,69.0,0,60,2.0,80.0
1305,76.0,1,60,4.0,80.0
1306,76.0,59,67,1.0,80.0
1307,57.0,0,132,0.0,80.0
1308,74.0,0,60,4.0,80.0
1309,65.0,0,60,2.0,80.0
1310,74.0,3,65,1.0,80.0
1311,72.0,58,39,1.0,80.0
1312,60.0,56,102,0.0,80.0
1313,72.0,2,60,4.0,80.0
1314,60.0,0,60,2.0,80.0
1315,60.0,0,0,6.0,80.0
1316,60.0,0,28,0.0,80.0
1317,72.0,2,29,1.0,80.0
1318,72.0,8,30,4.0,80.0
1319,40.0,60,120,8.0,80.0
1320,55.0,30,60,2.0,80.0
1321,60.0,60,60,2.0,80.0
1322,67.0,60,60,2.0,80.0
1323,60.0,60,60,2.0,80.0
1324,67.0,0,300,5.0,80.0
1325,60.0,60,0,6.0,80.0
1326,70.0,13,270,4.0,80.0
1327,52.0,0,0,7.0,80.0
1328,70.0,6,45,4.0,80.0
1329,70.0,3,340,1.0,80.0
1330,60.0,0,0,6.0,80.0
1331,67.0,0,60,5.0,80.0
1332,55.0,0,60,2.0,80.0
1333,58.0,4,354,0.0,80.0
1334,41.0,5,120,8.0,80.0
1335,57.0,58,60,2.0,80.0
1336,60.0,60,60,2.0,80.0
1337,65.0,60,60,2.0,80.0
1338,60.0,60,60,2.0,80.0
1339,69.0,0,300,4.0,80.0
1340,65.0,0,300,5.0,80.0
1341,53.0,0,300,7.0,80.0
1342,57.0,2,326,0.0,80.0
1343,69.0,49,355,1.0,80.0
1344,57.0,60,60,2.0,80.0
1345,33.0,0,120,8.0,100.0
1346,45.0,0,120,10.0,100.0
1347,75.0,0,120,10.0,100.0
1348,60.0,60,60,2.0,100.0
1349,65.0,0,120,10.0,100.0
1350,63.0,60,60,2.0,100.0
1351,65.0,60,60,2.0,100.0
1352,63.0,60,60,2.0,100.0
1353,75.0,51,352,1.0,80.0
1354,60.0,60,60,2.0,100.0
1355,75.0,0,120,10.0,100.0
1356,33.0,0,120,8.0,100.0
1357,60.0,60,60,2.0,100.0
1358,45.0,0,120,10.0,100.0
1359,65.0,0,120,10.0,100.0
1360,63.0,60,60,2.0,100.0
1361,65.0,60,60,2.0,100.0
1362,63.0,60,60,2.0,100.0
1363,51.0,5,708,0.0,80.0
1364,63.0,60,360,1.0,100.0
1365,65.0,0,720,5.0,100.0
1366,75.0,0,720,4.0,100.0
1367,60.0,60,60,2.0,100.0
1368,57.0,4,720,7.0,100.0
1369,60.0,0,720,6.0,100.0
1370,58.0,60,60,2.0,100.0
1371,46.0,0,120,10.0,100.0
1372,34.0,0,120,8.0,100.0
1373,62.0,60,60,2.0,100.0
1374,65.0,60,60,2.0,100.0
1375,62.0,60,60,2.0,100.0
1376,58.0,60,60,2.0,100.0
1377,62.0,18,369,1.0,100.0
1378,34.0,1,120,8.0,100.0
1379,58.0,60,60,2.0,100.0
1380,46.0,0,120,10.0,100.0
1381,62.0,60,60,2.0,100.0
1382,65.0,60,60,2.0,98.0
1383,62.0,60,60,2.0,95.0
1384,50.0,40,724,0.0,100.0
1385,58.0,0,720,6.0,100.0
1386,74.0,0,720,4.0,100.0
1387,58.0,2,720,7.0,100.0
1388,65.0,0,720,5.0,100.0
1389,58.0,60,60,2.0,93.0
1390,74.0,59,363,1.0,100.0
1391,35.0,0,120,8.0,80.0
1392,55.0,60,60,2.0,80.0
1393,62.0,60,60,2.0,80.0
1394,65.0,60,60,2.0,80.0
1395,62.0,60,60,2.0,80.0
1396,55.0,60,60,2.0,80.0
1397,77.0,57,480,1.0,91.0
1398,35.0,60,120,8.0,80.0
1399,55.0,60,60,2.0,80.0
1400,62.0,0,480,6.0,80.0
1401,77.0,3,480,4.0,80.0
1402,62.0,60,60,2.0,80.0
1403,65.0,59,60,2.0,80.0
1404,76.0,0,120,4.0,80.0
1405,64.0,0,120,6.0,80.0
1406,76.0,1,131,1.0,80.0
1407,62.0,1,60,2.0,80.0
1408,65.0,0,120,6.0,80.0
1409,74.0,0,120,4.0,80.0
1410,55.0,60,60,2.0,80.0
1411,67.0,0,720,5.0,80.0
1412,59.0,0,720,7.0,80.0
1413,74.0,59,124,1.0,80.0
1414,36.0,0,120,8.0,80.0
1415,57.0,56,60,2.0,80.0
1416,60.0,60,60,2.0,80.0
1417,65.0,60,60,2.0,80.0
1418,60.0,60,60,2.0,80.0
1419,69.0,0,360,5.0,80.0
1420,65.0,0,360,6.0,80.0
1421,57.0,60,60,2.0,80.0
1422,72.0,4,474,1.0,80.0
1423,72.0,60,480,4.0,80.0
1424,36.0,0,120,8.0,80.0
1425,57.0,60,60,2.0,80.0
1426,60.0,10,60,2.0,80.0
1427,70.0,0,60,4.0,80.0
1428,70.0,50,72,1.0,80.0
1429,69.0,0,60,4.0,80.0
1430,65.0,11,60,2.0,80.0
1431,69.0,49,75,1.0,80.0
1432,60.0,0,60,2.0,80.0
1433,67.0,10,60,4.0,80.0
1434,67.0,50,71,1.0,80.0
1435,65.0,53,57,1.0,80.0
1436,65.0,60,0,4.0,100.0
1437,60.0,0,720,7.0,80.0
1438,57.0,0,360,6.0,100.0
1439,57.0,0,60,2.0,80.0
1440,36.0,0,120,8.0,100.0
1441,55.0,57,60,2.0,100.0
1442,60.0,60,60,2.0,100.0
1443,65.0,60,60,2.0,100.0
1444,60.0,60,60,2.0,100.0
1445,55.0,60,60,2.0,100.0
1446,55.0,0,360,6.0,100.0
1447,55.0,60,60,2.0,100.0
1448,60.0,60,60,2.0,100.0
1449,48.0,0,240,10.0,100.0
1450,36.0,0,240,8.0,100.0
1451,60.0,60,960,5.0,100.0
1452,65.0,0,240,10.0,100.0
1453,65.0,60,60,2.0,100.0
1454,48.0,0,600,7.0,100.0
1455,69.0,31,30,4.0,100.0
1456,53.0,0,604,0.0,100.0
1457,65.0,3,603,1.0,100.0
1458,69.0,20,33,1.0,100.0
1459,57.0,1,32,0.0,100.0
1460,64.0,8,60,2.0,100.0
1461,67.0,0,60,4.0,100.0
1462,65.0,29,60,4.0,100.0
1463,70.0,0,360,10.0,100.0
1464,64.0,0,120,10.0,100.0
1465,49.0,0,120,10.0,100.0
1466,58.0,1,60,2.0,100.0
1467,67.0,60,360,10.0,100.0
1468,55.0,20,90,0.0,100.0
1469,64.0,0,120,5.0,100.0
1470,49.0,0,120,7.0,100.0
1471,67.0,10,110,1.0,100.0
1472,37.0,0,120,8.0,100.0
1473,58.0,0,360,6.0,100.0
1474,65.0,0,118,1.0,100.0
1475,65.0,0,120,4.0,100.0
1476,65.0,0,120,5.0,100.0
1477,57.0,0,120,6.0,100.0
1478,38.0,0,120,8.0,100.0
1479,50.0,0,120,7.0,100.0
1480,57.0,60,60,2.0,100.0
1481,50.0,10,120,10.0,100.0
1482,62.0,60,60,2.0,100.0
1483,53.0,50,236,0.0,100.0
1484,65.0,60,60,2.0,100.0
1485,65.0,0,127,1.0,100.0
1486,62.0,0,60,2.0,100.0
1487,69.0,60,110,1.0,100.0
1488,57.0,60,60,2.0,100.0
1489,38.0,60,120,8.0,80.0
1490,57.0,60,60,2.0,80.0
1491,62.0,0,60,2.0,80.0
1492,65.0,60,60,2.0,80.0
1493,74.0,60,124,1.0,80.0
1494,62.0,60,60,2.0,80.0
1495,77.0,0,116,1.0,80.0
1496,57.0,60,60,2.0,80.0
1497,36.0,0,120,8.0,80.0
1498,57.0,60,60,2.0,80.0
1499,60.0,60,60,2.0,80.0
1500,63.0,60,60,2.0,80.0
1501,65.0,0,133,1.0,80.0
1502,60.0,0,60,2.0,80.0
1503,57.0,60,60,2.0,80.0
1504,69.0,60,124,1.0,80.0
1505,57.0,60,60,2.0,80.0
1506,36.0,60,120,8.0,80.0
1507,60.0,60,60,2.0,80.0
1508,63.0,60,60,2.0,80.0
1509,72.0,0,132,1.0,80.0
1510,60.0,0,60,2.0,80.0
1511,57.0,0,720,5.0,80.0
1512,63.0,60,720,4.0,80.0
1513,48.0,0,720,7.0,80.0
1514,57.0,60,60,2.0,80.0
1515,77.0,60,133,1.0,80.0
1516,77.0,0,1560,3.0,100.0
1517,34.0,0,120,8.0,80.0
1518,58.0,60,60,2.0,80.0
1519,62.0,60,60,2.0,80.0
1520,77.0,0,116,1.0,80.0
1521,73.0,0,120,3.0,100.0
1522,65.0,60,60,2.0,80.0
1523,62.0,60,60,2.0,80.0
1524,58.0,60,60,2.0,80.0
1525,74.0,0,120,3.0,100.0
1526,86.0,0,130,1.0,80.0
1527,58.0,60,60,2.0,80.0
1528,77.0,60,120,3.0,100.0
1529,34.0,0,120,8.0,80.0
1530,62.0,60,60,2.0,80.0
1531,65.0,60,60,2.0,80.0
1532,73.0,0,120,3.0,100.0
1533,77.0,0,132,1.0,80.0
1534,62.0,0,60,2.0,80.0
1535,58.0,60,720,5.0,80.0
1536,74.0,60,120,3.0,100.0
1537,46.0,0,720,7.0,80.0
1538,53.0,0,1440,6.0,80.0
1539,58.0,60,60,2.0,80.0
1540,62.0,0,720,4.0,80.0
1541,86.0,0,122,1.0,80.0
1542,67.0,0,60,3.0,100.0
1543,69.0,60,60,3.0,100.0
1544,55.0,0,60,2.0,80.0
1545,35.0,0,120,8.0,80.0
1546,71.0,0,60,3.0,100.0
1547,62.0,0,60,2.0,80.0
1548,65.0,0,60,2.0,80.0
1549,72.0,60,60,3.0,100.0
1550,86.0,60,137,1.0,80.0
1551,62.0,60,60,2.0,80.0
1552,74.0,0,60,3.0,100.0
1553,77.0,0,116,1.0,80.0
1554,76.0,0,60,3.0,100.0
1555,55.0,60,60,2.0,80.0
1556,77.0,0,60,3.0,100.0
1557,35.0,60,120,8.0,80.0
1558,55.0,0,60,2.0,80.0
1559,76.0,60,60,3.0,100.0
1560,62.0,0,60,2.0,80.0
1561,79.0,0,60,3.0,100.0
1562,65.0,0,60,2.0,80.0
1563,77.0,60,60,3.0,100.0
1564,86.0,60,133,1.0,80.0
1565,62.0,0,60,2.0,80.0
1566,76.0,60,60,3.0,100.0
1567,74.0,60,60,3.0,100.0
1568,55.0,0,60,2.0,80.0
1569,65.0,60,0,4.0,80.0
1570,55.0,0,720,6.0,80.0
1571,62.0,60,720,5.0,80.0
1572,47.0,0,720,7.0,80.0
1573,77.0,0,123,1.0,80.0
1574,36.0,0,120,8.0,80.0
1575,57.0,60,60,2.0,80.0
1576,60.0,60,60,2.0,80.0
1577,65.0,60,60,2.0,80.0
1578,69.0,0,130,1.0,80.0
1579,60.0,0,60,2.0,80.0
1580,57.0,60,60,2.0,80.0
1581,84.0,60,127,1.0,80.0
1582,36.0,60,120,8.0,80.0
1583,57.0,60,60,2.0,80.0
1584,72.0,0,540,3.0,100.0
1585,60.0,0,60,2.0,80.0
1586,74.0,0,30,3.0,100.0
1587,72.0,21,30,3.0,100.0
1588,84.0,60,119,1.0,80.0
1589,65.0,60,60,2.0,80.0
1590,70.0,39,30,3.0,100.0
1591,60.0,0,60,2.0,80.0
1592,69.0,30,30,3.0,100.0
1593,67.0,0,30,3.0,100.0
1594,77.0,0,101,1.0,80.0
1595,65.0,30,30,3.0,100.0
1596,57.0,30,60,2.0,80.0
1597,57.0,0,720,6.0,80.0
1598,55.0,60,60,2.0,80.0
1599,36.0,0,120,8.0,80.0
1600,60.0,60,60,2.0,80.0
1601,72.0,0,116,1.0,80.0
1602,64.0,0,120,4.0,80.0
1603,65.0,60,60,2.0,80.0
1604,60.0,0,60,2.0,80.0
1605,55.0,60,60,2.0,80.0
1606,62.0,0,120,4.0,80.0
1607,82.0,60,120,1.0,80.0
1608,65.0,0,120,4.0,80.0
1609,58.0,60,60,2.0,80.0
1610,36.0,60,120,8.0,80.0
1611,65.0,0,30,4.0,80.0
1612,64.0,30,30,4.0,80.0
1613,60.0,0,60,2.0,80.0
1614,65.0,30,30,4.0,80.0
1615,82.0,60,119,1.0,80.0
1616,64.0,0,60,2.0,80.0
1617,64.0,30,30,4.0,80.0
1618,65.0,30,30,4.0,80.0
1619,64.0,30,30,4.0,80.0
1620,60.0,0,60,2.0,80.0
1621,67.0,30,670,3.0,100.0
1622,62.0,30,30,4.0,80.0
1623,65.0,19,23,3.0,100.0
1624,48.0,0,1440,7.0,80.0
1625,64.0,11,30,4.0,80.0
1626,60.0,0,1440,5.0,80.0
1627,58.0,0,720,6.0,80.0
1628,58.0,0,60,2.0,80.0
1629,67.0,14,21,3.0,100.0
1630,76.0,0,128,1.0,80.0
1631,77.0,0,107,1.0,80.0
1632,65.0,0,120,4.0,80.0
1633,53.0,0,120,7.0,80.0
1634,57.0,60,60,2.0,80.0
1635,41.0,0,120,8.0,80.0
1636,57.0,0,120,6.0,80.0
1637,60.0,0,120,5.0,80.0
1638,60.0,60,60,2.0,80.0
1639,65.0,60,60,2.0,80.0
1640,65.0,16,240,3.0,100.0
1641,60.0,60,60,2.0,80.0
1642,57.0,60,60,2.0,80.0
1643,48.0,60,120,8.0,65.0
1644,67.0,60,60,2.0,65.0
1645,70.0,60,60,2.0,65.0
1646,72.0,60,60,2.0,65.0
1647,82.0,0,253,1.0,65.0
1648,70.0,60,60,2.0,65.0
1649,67.0,60,60,2.0,65.0
1650,76.0,0,121,1.0,65.0
1651,65.0,60,60,2.0,65.0
1652,41.0,60,120,8.0,65.0
1653,77.0,0,121,1.0,65.0
1654,69.0,60,60,2.0,65.0
1655,72.0,60,60,2.0,65.0
1656,69.0,60,60,2.0,65.0
1657,65.0,60,60,2.0,65.0
1658,55.0,60,60,2.0,65.0
1659,36.0,0,120,8.0,65.0
1660,58.0,60,60,2.0,65.0
1661,60.0,60,60,2.0,65.0
1662,70.0,0,253,1.0,65.0
1663,58.0,0,60,2.0,65.0
1664,64.0,60,117,1.0,65.0
1665,60.0,60,0,5.0,65.0
1666,48.0,0,360,7.0,65.0
1667,55.0,60,60,2.0,65.0
1668,67.0,0,360,4.0,65.0
1669,58.0,0,360,6.0,65.0
1670,60.0,0,1500,0.0,65.0
1671,65.0,0,120,1.0,65.0
1672,65.0,0,120,4.0,65.0
1673,41.0,0,120,7.0,65.0
1674,29.0,0,120,8.0,65.0
1675,57.0,60,60,2.0,65.0
1676,57.0,0,120,6.0,65.0
1677,60.0,60,60,2.0,65.0
1678,65.0,60,60,2.0,65.0
1679,60.0,60,60,2.0,65.0
1680,57.0,60,60,2.0,65.0
1681,41.0,60,120,8.0,65.0
1682,57.0,60,60,2.0,65.0
1683,69.0,0,133,1.0,65.0
1684,60.0,0,139,1.0,65.0
1685,60.0,60,60,2.0,65.0
1686,65.0,60,60,2.0,65.0
1687,60.0,60,60,2.0,65.0
1688,57.0,0,0,2.0,50.0
1689,57.0,0,120,1.0,50.0
1690,65.0,0,120,1.0,50.0
1691,29.0,0,120,8.0,50.0
1692,65.0,60,120,2.0,50.0
