,note,step,duration,channel,velocity
0,46.0,48,40,1.0,0.0
1,70.0,15,180,0.0,0.0
2,58.0,48,40,1.0,0.0
3,62.0,33,40,1.0,0.0
4,58.0,96,40,1.0,0.0
5,72.0,15,180,0.0,0.0
6,53.0,48,40,1.0,0.0
7,57.0,33,40,1.0,0.0
8,53.0,96,40,1.0,0.0
9,74.0,15,180,0.0,0.0
10,58.0,48,40,1.0,0.0
11,57.0,33,40,1.0,0.0
12,58.0,48,40,1.0,0.0
13,75.0,5,90,0.0,0.0
14,55.0,43,40,1.0,0.0
15,58.0,48,40,1.0,0.0
16,50.0,43,40,1.0,0.0
17,77.0,5,90,0.0,0.0
18,58.0,48,40,1.0,0.0
19,79.0,12,150,0.0,0.0
20,51.0,48,40,1.0,0.0
21,51.0,48,40,1.0,0.0
22,51.0,5,40,1.0,0.0
23,77.0,12,15,0.0,0.0
24,51.0,3,40,1.0,0.0
25,75.0,12,15,0.0,0.0
26,74.0,7,15,0.0,0.0
27,72.0,8,15,0.0,0.0
28,70.0,37,15,0.0,0.0
29,51.0,0,40,1.0,0.0
30,69.0,48,40,0.0,0.0
31,70.0,48,40,0.0,0.0
32,50.0,0,40,1.0,0.0
33,72.0,18,60,0.0,0.0
34,51.0,21,40,1.0,0.0
35,53.0,3,40,1.0,0.0
36,74.0,9,15,0.0,0.0
37,75.0,8,15,0.0,0.0
38,75.0,37,15,0.0,0.0
39,46.0,48,40,1.0,0.0
40,74.0,43,90,0.0,0.0
41,58.0,5,40,1.0,0.0
42,53.0,48,40,1.0,0.0
43,50.0,11,40,1.0,0.0
44,46.0,5,40,1.0,0.0
45,72.0,6,15,0.0,0.0
46,70.0,6,15,0.0,0.0
47,72.0,6,15,0.0,0.0
48,70.0,6,15,0.0,0.0
49,72.0,6,15,0.0,0.0
50,70.0,6,15,0.0,0.0
51,72.0,1,15,0.0,0.0
52,70.0,6,15,0.0,0.0
53,58.0,5,40,1.0,0.0
54,72.0,6,15,0.0,0.0
55,70.0,6,15,0.0,0.0
56,72.0,6,15,0.0,0.0
57,70.0,6,15,0.0,0.0
58,72.0,6,15,0.0,0.0
59,70.0,6,15,0.0,0.0
60,72.0,1,15,0.0,0.0
61,70.0,6,15,0.0,0.0
62,62.0,5,40,1.0,0.0
63,72.0,6,15,0.0,0.0
64,70.0,6,15,0.0,0.0
65,72.0,6,15,0.0,0.0
66,70.0,6,15,0.0,0.0
67,72.0,6,15,0.0,0.0
68,70.0,6,15,0.0,0.0
69,72.0,1,15,0.0,0.0
70,70.0,21,15,0.0,0.0
71,58.0,2,40,1.0,0.0
72,69.0,22,20,0.0,0.0
73,70.0,9,20,0.0,0.0
74,74.0,6,15,0.0,0.0
75,72.0,6,15,0.0,0.0
76,74.0,6,15,0.0,0.0
77,72.0,6,15,0.0,0.0
78,74.0,6,15,0.0,0.0
79,72.0,6,15,0.0,0.0
80,74.0,6,15,0.0,0.0
81,72.0,6,15,0.0,0.0
82,74.0,6,15,0.0,0.0
83,53.0,5,40,1.0,0.0
84,72.0,6,15,0.0,0.0
85,74.0,6,15,0.0,0.0
86,72.0,6,15,0.0,0.0
87,74.0,6,15,0.0,0.0
88,72.0,6,15,0.0,0.0
89,74.0,1,15,0.0,0.0
90,72.0,6,15,0.0,0.0
91,57.0,5,40,1.0,0.0
92,74.0,6,15,0.0,0.0
93,72.0,6,15,0.0,0.0
94,74.0,6,15,0.0,0.0
95,72.0,6,15,0.0,0.0
96,74.0,6,15,0.0,0.0
97,72.0,6,15,0.0,0.0
98,74.0,1,15,0.0,0.0
99,72.0,21,15,0.0,0.0
100,53.0,2,40,1.0,0.0
101,70.0,22,20,0.0,0.0
102,72.0,9,20,0.0,0.0
103,75.0,6,15,0.0,0.0
104,74.0,6,15,0.0,0.0
105,75.0,6,15,0.0,0.0
106,74.0,6,15,0.0,0.0
107,75.0,6,15,0.0,0.0
108,74.0,6,15,0.0,0.0
109,75.0,6,15,0.0,0.0
110,74.0,6,15,0.0,0.0
111,75.0,6,15,0.0,0.0
112,58.0,5,40,1.0,0.0
113,74.0,6,15,0.0,0.0
114,75.0,6,15,0.0,0.0
115,74.0,6,15,0.0,0.0
116,75.0,6,15,0.0,0.0
117,74.0,6,15,0.0,0.0
118,75.0,1,15,0.0,0.0
119,74.0,6,15,0.0,0.0
120,57.0,5,40,1.0,0.0
121,75.0,6,15,0.0,0.0
122,74.0,6,15,0.0,0.0
123,75.0,6,15,0.0,0.0
124,74.0,6,15,0.0,0.0
125,75.0,6,15,0.0,0.0
126,74.0,6,15,0.0,0.0
127,75.0,1,15,0.0,0.0
128,74.0,21,15,0.0,0.0
129,58.0,2,40,1.0,0.0
130,72.0,22,20,0.0,0.0
131,74.0,9,20,0.0,0.0
132,55.0,5,40,1.0,0.0
133,77.0,6,15,0.0,0.0
134,75.0,6,15,0.0,0.0
135,77.0,6,15,0.0,0.0
136,75.0,6,15,0.0,0.0
137,77.0,6,15,0.0,0.0
138,75.0,6,15,0.0,0.0
139,77.0,1,15,0.0,0.0
140,75.0,6,15,0.0,0.0
141,58.0,3,40,1.0,0.0
142,77.0,6,15,0.0,0.0
143,75.0,6,15,0.0,0.0
144,77.0,6,15,0.0,0.0
145,75.0,10,15,0.0,0.0
146,74.0,9,15,0.0,0.0
147,75.0,8,15,0.0,0.0
148,79.0,6,15,0.0,0.0
149,50.0,5,40,1.0,0.0
150,77.0,6,15,0.0,0.0
151,79.0,6,15,0.0,0.0
152,77.0,6,15,0.0,0.0
153,79.0,6,15,0.0,0.0
154,77.0,6,15,0.0,0.0
155,79.0,1,15,0.0,0.0
156,77.0,6,15,0.0,0.0
157,58.0,3,40,1.0,0.0
158,79.0,6,15,0.0,0.0
159,77.0,6,15,0.0,0.0
160,79.0,6,15,0.0,0.0
161,77.0,10,15,0.0,0.0
162,75.0,9,15,0.0,0.0
163,77.0,45,15,0.0,0.0
164,79.0,12,150,0.0,0.0
165,51.0,48,40,1.0,0.0
166,51.0,48,40,1.0,0.0
167,51.0,5,40,1.0,0.0
168,77.0,12,15,0.0,0.0
169,51.0,3,40,1.0,0.0
170,75.0,12,15,0.0,0.0
171,74.0,7,15,0.0,0.0
172,72.0,45,15,0.0,0.0
173,51.0,43,40,1.0,0.0
174,81.0,5,90,0.0,0.0
175,48.0,29,40,1.0,0.0
176,84.0,19,20,0.0,0.0
177,50.0,5,40,1.0,0.0
178,82.0,24,20,0.0,0.0
179,51.0,5,40,1.0,0.0
180,81.0,19,20,0.0,0.0
181,79.0,43,20,0.0,0.0
182,77.0,6,150,0.0,0.0
183,53.0,48,40,1.0,0.0
184,53.0,48,40,1.0,0.0
185,53.0,5,40,1.0,0.0
186,53.0,5,40,1.0,0.0
187,77.0,6,15,0.0,0.0
188,75.0,6,15,0.0,0.0
189,77.0,6,15,0.0,0.0
190,75.0,6,15,0.0,0.0
191,77.0,6,15,0.0,0.0
192,75.0,6,15,0.0,0.0
193,77.0,1,15,0.0,0.0
194,75.0,43,15,0.0,0.0
195,74.0,5,90,0.0,0.0
196,46.0,43,40,1.0,0.0
197,58.0,48,40,1.0,0.0
198,53.0,48,40,1.0,0.0
199,50.0,48,40,1.0,0.0
200,46.0,5,40,1.0,0.0
201,77.0,43,40,0.0,0.0
202,74.0,43,40,0.0,0.0
203,58.0,5,40,1.0,0.0
204,62.0,48,40,1.0,0.0
205,74.0,0,40,0.0,0.0
206,58.0,53,40,1.0,0.0
207,77.0,43,40,0.0,0.0
208,57.0,5,40,1.0,0.0
209,75.0,43,40,0.0,0.0
210,60.0,48,40,1.0,0.0
211,72.0,29,40,0.0,0.0
212,57.0,0,40,1.0,0.0
213,74.0,19,20,0.0,0.0
214,58.0,5,40,1.0,0.0
215,77.0,24,20,0.0,0.0
216,46.0,5,40,1.0,0.0
217,82.0,19,20,0.0,0.0
218,81.0,24,20,0.0,0.0
219,79.0,19,20,0.0,0.0
220,50.0,5,40,1.0,0.0
221,77.0,24,20,0.0,0.0
222,75.0,19,20,0.0,0.0
223,55.0,5,40,1.0,0.0
224,74.0,43,20,0.0,0.0
225,53.0,29,40,1.0,0.0
226,77.0,19,60,0.0,0.0
227,53.0,5,40,1.0,0.0
228,74.0,24,20,0.0,0.0
229,72.0,19,20,0.0,0.0
230,41.0,5,40,1.0,0.0
231,74.0,24,20,0.0,0.0
232,75.0,24,20,0.0,0.0
233,76.0,48,20,0.0,0.0
234,77.0,43,40,0.0,0.0
235,58.0,5,40,1.0,0.0
236,74.0,36,40,0.0,0.0
237,62.0,17,40,1.0,0.0
238,74.0,7,15,0.0,0.0
239,75.0,12,15,0.0,0.0
240,58.0,3,40,1.0,0.0
241,74.0,12,15,0.0,0.0
242,72.0,7,15,0.0,0.0
243,74.0,26,15,0.0,0.0
244,77.0,24,20,0.0,0.0
245,76.0,43,20,0.0,0.0
246,75.0,36,40,0.0,0.0
247,57.0,5,40,1.0,0.0
248,60.0,17,40,1.0,0.0
249,72.0,7,15,0.0,0.0
250,57.0,5,40,1.0,0.0
251,74.0,12,15,0.0,0.0
252,72.0,12,15,0.0,0.0
253,71.0,7,15,0.0,0.0
254,72.0,24,15,0.0,0.0
255,74.0,19,20,0.0,0.0
256,58.0,5,40,1.0,0.0
257,77.0,24,20,0.0,0.0
258,46.0,5,40,1.0,0.0
259,82.0,19,20,0.0,0.0
260,81.0,24,20,0.0,0.0
261,50.0,5,40,1.0,0.0
262,79.0,19,20,0.0,0.0
263,77.0,24,20,0.0,0.0
264,75.0,19,20,0.0,0.0
265,55.0,5,40,1.0,0.0
266,74.0,129,20,0.0,0.0
267,53.0,10,660,1.0,0.0
268,77.0,27,120,0.0,0.0
269,79.0,12,15,0.0,0.0
270,77.0,12,15,0.0,0.0
271,75.0,12,15,0.0,0.0
272,74.0,12,15,0.0,0.0
273,75.0,12,15,0.0,0.0
274,77.0,12,15,0.0,0.0
275,79.0,12,15,0.0,0.0
276,81.0,12,15,0.0,0.0
277,82.0,12,15,0.0,0.0
278,81.0,12,15,0.0,0.0
279,79.0,12,15,0.0,0.0
280,77.0,12,15,0.0,0.0
281,79.0,12,15,0.0,0.0
282,81.0,12,15,0.0,0.0
283,82.0,12,15,0.0,0.0
284,84.0,48,15,0.0,0.0
285,86.0,96,40,0.0,0.0
286,74.0,24,20,0.0,0.0
287,75.0,21,20,0.0,0.0
288,76.0,9,20,0.0,0.0
289,79.0,65,15,0.0,0.0
290,77.0,9,60,0.0,0.0
291,75.0,8,15,0.0,0.0
292,74.0,8,15,0.0,0.0
293,72.0,6,15,0.0,0.0
294,75.0,32,15,0.0,0.0
295,74.0,43,40,0.0,0.0
296,72.0,5,90,0.0,0.0
297,53.0,43,40,1.0,0.0
298,41.0,48,40,1.0,0.0
299,45.0,48,40,1.0,0.0
300,48.0,48,40,1.0,0.0
301,72.0,5,90,0.0,0.0
302,53.0,43,40,1.0,0.0
303,53.0,48,40,1.0,0.0
304,65.0,5,90,0.0,0.0
305,57.0,43,40,1.0,0.0
306,53.0,48,40,1.0,0.0
307,55.0,48,40,1.0,0.0
308,64.0,15,180,0.0,0.0
309,60.0,48,40,1.0,0.0
310,55.0,33,40,1.0,0.0
311,52.0,48,40,1.0,0.0
312,82.0,48,40,0.0,0.0
313,48.0,15,180,1.0,0.0
314,79.0,48,40,0.0,0.0
315,76.0,33,40,0.0,0.0
316,70.0,29,40,0.0,0.0
317,70.0,24,20,0.0,0.0
318,69.0,24,20,0.0,0.0
319,74.0,19,20,0.0,0.0
320,57.0,5,40,1.0,0.0
321,72.0,43,15,0.0,0.0
322,53.0,43,40,1.0,0.0
323,48.0,41,40,1.0,0.0
324,45.0,5,40,1.0,0.0
325,72.0,6,40,0.0,0.0
326,74.0,1,15,0.0,0.0
327,72.0,43,15,0.0,0.0
328,77.0,43,90,0.0,0.0
329,57.0,48,40,1.0,0.0
330,57.0,5,40,1.0,0.0
331,75.0,29,40,0.0,0.0
332,57.0,0,40,1.0,0.0
333,58.0,48,40,1.0,0.0
334,75.0,19,20,0.0,0.0
335,74.0,46,120,0.0,0.0
336,58.0,48,40,1.0,0.0
337,58.0,2,40,1.0,0.0
338,74.0,0,40,0.0,0.0
339,58.0,41,40,1.0,0.0
340,74.0,6,40,0.0,0.0
341,46.0,5,40,1.0,0.0
342,75.0,1,15,0.0,0.0
343,74.0,43,15,0.0,0.0
344,79.0,43,90,0.0,0.0
345,58.0,48,40,1.0,0.0
346,58.0,5,40,1.0,0.0
347,77.0,0,40,0.0,0.0
348,59.0,11,40,1.0,0.0
349,60.0,5,40,1.0,0.0
350,79.0,6,15,0.0,0.0
351,77.0,6,15,0.0,0.0
352,79.0,6,15,0.0,0.0
353,77.0,6,15,0.0,0.0
354,79.0,6,15,0.0,0.0
355,77.0,6,15,0.0,0.0
356,79.0,1,15,0.0,0.0
357,77.0,6,15,0.0,0.0
358,48.0,5,40,1.0,0.0
359,79.0,6,15,0.0,0.0
360,77.0,6,15,0.0,0.0
361,79.0,6,15,0.0,0.0
362,77.0,6,15,0.0,0.0
363,79.0,6,15,0.0,0.0
364,77.0,6,15,0.0,0.0
365,79.0,1,15,0.0,0.0
366,77.0,43,15,0.0,0.0
367,60.0,43,40,1.0,0.0
368,76.0,5,90,0.0,0.0
369,58.0,48,40,1.0,0.0
370,57.0,48,40,1.0,0.0
371,53.0,48,40,1.0,0.0
372,52.0,48,40,1.0,0.0
373,72.0,0,40,0.0,0.0
374,48.0,29,40,1.0,0.0
375,72.0,0,40,0.0,0.0
376,57.0,10,90,1.0,0.0
377,72.0,24,20,0.0,0.0
378,77.0,24,20,0.0,0.0
379,81.0,14,20,0.0,0.0
380,79.0,24,20,0.0,0.0
381,77.0,24,20,0.0,0.0
382,76.0,24,20,0.0,0.0
383,53.0,2,40,1.0,0.0
384,74.0,19,20,0.0,0.0
385,72.0,27,20,0.0,0.0
386,70.0,24,20,0.0,0.0
387,55.0,10,90,1.0,0.0
388,76.0,24,20,0.0,0.0
389,79.0,14,20,0.0,0.0
390,77.0,24,20,0.0,0.0
391,76.0,24,20,0.0,0.0
392,48.0,7,90,1.0,0.0
393,74.0,24,20,0.0,0.0
394,72.0,14,20,0.0,0.0
395,70.0,24,20,0.0,0.0
396,53.0,10,90,1.0,0.0
397,69.0,15,20,0.0,0.0
398,77.0,12,15,0.0,0.0
399,79.0,24,15,0.0,0.0
400,81.0,12,20,0.0,0.0
401,81.0,2,15,0.0,0.0
402,79.0,24,15,0.0,0.0
403,77.0,12,20,0.0,0.0
404,77.0,12,15,0.0,0.0
405,76.0,24,15,0.0,0.0
406,53.0,5,40,1.0,0.0
407,74.0,12,20,0.0,0.0
408,74.0,7,15,0.0,0.0
409,72.0,24,15,0.0,0.0
410,55.0,10,90,1.0,0.0
411,70.0,12,20,0.0,0.0
412,76.0,12,15,0.0,0.0
413,77.0,24,15,0.0,0.0
414,79.0,12,20,0.0,0.0
415,79.0,2,15,0.0,0.0
416,77.0,24,15,0.0,0.0
417,76.0,12,20,0.0,0.0
418,48.0,10,90,1.0,0.0
419,76.0,12,15,0.0,0.0
420,74.0,24,15,0.0,0.0
421,72.0,12,15,0.0,0.0
422,70.0,24,15,0.0,0.0
423,69.0,12,20,0.0,0.0
424,53.0,10,90,1.0,0.0
425,77.0,12,15,0.0,0.0
426,79.0,12,15,0.0,0.0
427,81.0,12,15,0.0,0.0
428,82.0,12,15,0.0,0.0
429,79.0,2,15,0.0,0.0
430,81.0,12,15,0.0,0.0
431,77.0,12,15,0.0,0.0
432,79.0,12,15,0.0,0.0
433,76.0,12,15,0.0,0.0
434,77.0,12,15,0.0,0.0
435,74.0,12,15,0.0,0.0
436,53.0,5,40,1.0,0.0
437,76.0,12,15,0.0,0.0
438,72.0,7,15,0.0,0.0
439,74.0,24,15,0.0,0.0
440,70.0,12,20,0.0,0.0
441,55.0,10,90,1.0,0.0
442,76.0,12,15,0.0,0.0
443,77.0,12,15,0.0,0.0
444,79.0,12,15,0.0,0.0
445,81.0,12,15,0.0,0.0
446,77.0,2,15,0.0,0.0
447,79.0,12,15,0.0,0.0
448,76.0,12,15,0.0,0.0
449,77.0,12,15,0.0,0.0
450,74.0,12,15,0.0,0.0
451,76.0,12,15,0.0,0.0
452,72.0,12,15,0.0,0.0
453,52.0,5,40,1.0,0.0
454,74.0,12,15,0.0,0.0
455,70.0,7,15,0.0,0.0
456,72.0,43,15,0.0,0.0
457,53.0,5,40,1.0,0.0
458,69.0,43,40,0.0,0.0
459,77.0,43,90,0.0,0.0
460,41.0,48,40,1.0,0.0
461,45.0,5,40,1.0,0.0
462,75.0,48,40,0.0,0.0
463,41.0,5,40,1.0,0.0
464,73.0,43,40,0.0,0.0
465,74.0,43,40,0.0,0.0
466,46.0,5,40,1.0,0.0
467,50.0,48,40,1.0,0.0
468,46.0,0,40,1.0,0.0
469,74.0,48,40,0.0,0.0
470,72.0,11,40,0.0,0.0
471,45.0,2,60,1.0,0.0
472,74.0,6,15,0.0,0.0
473,72.0,4,15,0.0,0.0
474,71.0,6,15,0.0,0.0
475,72.0,10,15,0.0,0.0
476,74.0,11,15,0.0,0.0
477,46.0,1,20,1.0,0.0
478,70.0,45,15,0.0,0.0
479,48.0,0,40,1.0,0.0
480,69.0,48,40,0.0,0.0
481,48.0,48,40,1.0,0.0
482,67.0,0,40,0.0,0.0
483,77.0,15,420,0.0,0.0
484,45.0,48,40,1.0,0.0
485,41.0,48,40,1.0,0.0
486,51.0,48,40,1.0,0.0
487,48.0,48,40,1.0,0.0
488,50.0,48,40,1.0,0.0
489,46.0,48,40,1.0,0.0
490,62.0,48,40,1.0,0.0
491,58.0,26,40,1.0,0.0
492,57.0,17,40,1.0,0.0
493,77.0,7,15,0.0,0.0
494,52.0,17,40,1.0,0.0
495,79.0,24,15,0.0,0.0
496,79.0,7,15,0.0,0.0
497,53.0,17,40,1.0,0.0
498,81.0,24,15,0.0,0.0
499,81.0,7,15,0.0,0.0
500,50.0,29,40,1.0,0.0
501,82.0,24,15,0.0,0.0
502,82.0,7,15,0.0,0.0
503,84.0,19,20,0.0,0.0
504,45.0,5,40,1.0,0.0
505,81.0,24,20,0.0,0.0
506,48.0,5,40,1.0,0.0
507,77.0,19,20,0.0,0.0
508,72.0,24,20,0.0,0.0
509,53.0,5,40,1.0,0.0
510,81.0,19,20,0.0,0.0
511,77.0,24,20,0.0,0.0
512,72.0,19,20,0.0,0.0
513,57.0,5,40,1.0,0.0
514,69.0,6,20,0.0,0.0
515,69.0,6,15,0.0,0.0
516,60.0,5,40,1.0,0.0
517,67.0,6,15,0.0,0.0
518,69.0,6,15,0.0,0.0
519,67.0,6,15,0.0,0.0
520,69.0,6,15,0.0,0.0
521,67.0,6,15,0.0,0.0
522,69.0,1,15,0.0,0.0
523,67.0,6,15,0.0,0.0
524,69.0,6,15,0.0,0.0
525,48.0,5,40,1.0,0.0
526,67.0,6,15,0.0,0.0
527,69.0,6,15,0.0,0.0
528,67.0,6,15,0.0,0.0
529,69.0,6,15,0.0,0.0
530,67.0,6,15,0.0,0.0
531,69.0,1,15,0.0,0.0
532,67.0,6,15,0.0,0.0
533,48.0,5,40,1.0,0.0
534,69.0,6,15,0.0,0.0
535,67.0,6,15,0.0,0.0
536,69.0,6,15,0.0,0.0
537,67.0,6,15,0.0,0.0
538,69.0,6,15,0.0,0.0
539,67.0,6,15,0.0,0.0
540,69.0,1,15,0.0,0.0
541,67.0,21,15,0.0,0.0
542,65.0,22,20,0.0,0.0
543,48.0,2,40,1.0,0.0
544,67.0,89,20,0.0,0.0
545,53.0,0,90,1.0,0.0
546,65.0,149,90,0.0,0.0
547,41.0,48,40,1.0,0.0
548,72.0,10,120,0.0,0.0
549,53.0,38,40,1.0,0.0
550,57.0,48,40,1.0,0.0
551,53.0,0,40,1.0,0.0
552,77.0,26,40,0.0,0.0
553,46.0,2,40,1.0,0.0
554,75.0,22,20,0.0,0.0
555,73.0,46,20,0.0,0.0
556,58.0,48,40,1.0,0.0
557,73.0,0,40,0.0,0.0
558,53.0,48,40,1.0,0.0
559,49.0,48,40,1.0,0.0
560,79.0,43,150,0.0,0.0
561,46.0,48,40,1.0,0.0
562,58.0,48,40,1.0,0.0
563,61.0,5,40,1.0,0.0
564,58.0,5,40,1.0,0.0
565,52.0,0,40,1.0,0.0
566,73.0,43,15,0.0,0.0
567,55.0,0,40,1.0,0.0
568,72.0,48,40,0.0,0.0
569,60.0,2,40,1.0,0.0
570,76.0,24,20,0.0,0.0
571,77.0,22,20,0.0,0.0
572,48.0,2,40,1.0,0.0
573,79.0,89,20,0.0,0.0
574,81.0,38,150,0.0,0.0
575,53.0,58,90,1.0,0.0
576,49.0,10,90,1.0,0.0
577,71.0,86,40,0.0,0.0
578,72.0,48,90,0.0,0.0
579,48.0,10,90,1.0,0.0
580,73.0,48,40,0.0,0.0
581,74.0,43,40,0.0,0.0
582,75.0,43,150,0.0,0.0
583,44.0,48,40,1.0,0.0
584,56.0,48,40,1.0,0.0
585,60.0,5,40,1.0,0.0
586,56.0,5,40,1.0,0.0
587,77.0,91,40,0.0,0.0
588,75.0,43,90,0.0,0.0
589,53.0,5,40,1.0,0.0
590,73.0,43,40,0.0,0.0
591,58.0,5,40,1.0,0.0
592,56.0,29,40,1.0,0.0
593,73.0,19,20,0.0,0.0
594,55.0,5,40,1.0,0.0
595,75.0,24,20,0.0,0.0
596,51.0,5,40,1.0,0.0
597,77.0,19,20,0.0,0.0
598,75.0,24,20,0.0,0.0
599,58.0,5,40,1.0,0.0
600,79.0,19,20,0.0,0.0
601,77.0,24,20,0.0,0.0
602,55.0,5,40,1.0,0.0
603,75.0,19,20,0.0,0.0
604,73.0,72,20,0.0,0.0
605,71.0,19,60,0.0,0.0
606,51.0,5,40,1.0,0.0
607,72.0,43,20,0.0,0.0
608,72.0,5,90,0.0,0.0
609,56.0,43,40,1.0,0.0
610,53.0,48,40,1.0,0.0
611,70.0,15,180,0.0,0.0
612,50.0,48,40,1.0,0.0
613,46.0,48,40,1.0,0.0
614,56.0,33,40,1.0,0.0
615,53.0,48,40,1.0,0.0
616,55.0,48,40,1.0,0.0
617,70.0,16,120,0.0,0.0
618,58.0,19,40,1.0,0.0
619,55.0,3,40,1.0,0.0
620,72.0,13,15,0.0,0.0
621,74.0,16,15,0.0,0.0
622,51.0,3,40,1.0,0.0
623,75.0,16,15,0.0,0.0
624,77.0,13,15,0.0,0.0
625,79.0,45,15,0.0,0.0
626,80.0,48,40,0.0,0.0
627,46.0,15,180,1.0,0.0
628,77.0,48,40,0.0,0.0
629,74.0,33,40,0.0,0.0
630,68.0,29,40,0.0,0.0
631,68.0,24,20,0.0,0.0
632,67.0,24,20,0.0,0.0
633,51.0,5,40,1.0,0.0
634,72.0,19,20,0.0,0.0
635,70.0,43,20,0.0,0.0
636,55.0,43,40,1.0,0.0
637,70.0,5,90,0.0,0.0
638,51.0,48,40,1.0,0.0
639,58.0,15,180,0.0,0.0
640,50.0,48,40,1.0,0.0
641,46.0,48,40,1.0,0.0
642,56.0,33,40,1.0,0.0
643,53.0,48,40,1.0,0.0
644,55.0,48,40,1.0,0.0
645,82.0,15,180,0.0,0.0
646,58.0,48,40,1.0,0.0
647,55.0,33,40,1.0,0.0
648,51.0,29,40,1.0,0.0
649,46.0,20,180,1.0,0.0
650,80.0,24,20,0.0,0.0
651,79.0,6,15,0.0,0.0
652,77.0,6,15,0.0,0.0
653,79.0,6,15,0.0,0.0
654,77.0,21,15,0.0,0.0
655,75.0,9,20,0.0,0.0
656,75.0,6,15,0.0,0.0
657,74.0,6,15,0.0,0.0
658,75.0,6,15,0.0,0.0
659,74.0,24,15,0.0,0.0
660,72.0,6,15,0.0,0.0
661,70.0,6,15,0.0,0.0
662,72.0,6,15,0.0,0.0
663,70.0,4,15,0.0,0.0
664,68.0,48,20,0.0,0.0
665,67.0,43,40,0.0,0.0
666,79.0,6,90,0.0,0.0
667,51.0,48,40,1.0,0.0
668,51.0,5,40,1.0,0.0
669,51.0,5,40,1.0,0.0
670,77.0,37,15,0.0,0.0
671,75.0,6,40,0.0,0.0
672,51.0,15,180,1.0,0.0
673,74.0,42,15,0.0,0.0
674,73.0,86,40,0.0,0.0
675,73.0,38,90,0.0,0.0
676,73.0,48,40,0.0,0.0
677,50.0,5,40,1.0,0.0
678,74.0,43,40,0.0,0.0
679,75.0,43,40,0.0,0.0
680,48.0,5,40,1.0,0.0
681,54.0,48,40,1.0,0.0
682,75.0,0,40,0.0,0.0
683,45.0,48,40,1.0,0.0
684,74.0,11,40,0.0,0.0
685,46.0,2,60,1.0,0.0
686,75.0,6,15,0.0,0.0
687,74.0,4,15,0.0,0.0
688,72.0,6,15,0.0,0.0
689,74.0,10,15,0.0,0.0
690,75.0,11,15,0.0,0.0
691,48.0,1,20,1.0,0.0
692,74.0,45,15,0.0,0.0
693,50.0,48,40,1.0,0.0
694,70.0,0,40,0.0,0.0
695,50.0,0,40,1.0,0.0
696,69.0,48,40,0.0,0.0
697,43.0,43,40,1.0,0.0
698,67.0,5,90,0.0,0.0
699,55.0,48,40,1.0,0.0
700,58.0,48,40,1.0,0.0
701,55.0,149,40,1.0,0.0
702,51.0,20,180,1.0,0.0
703,79.0,28,150,0.0,0.0
704,73.0,48,40,0.0,0.0
705,73.0,43,40,0.0,0.0
706,74.0,43,40,0.0,0.0
707,50.0,5,40,1.0,0.0
708,54.0,48,40,1.0,0.0
709,50.0,149,40,1.0,0.0
710,82.0,28,150,0.0,0.0
711,51.0,20,180,1.0,0.0
712,73.0,117,40,0.0,0.0
713,74.0,9,120,0.0,0.0
714,50.0,3,120,1.0,0.0
715,75.0,3,15,0.0,0.0
716,74.0,6,15,0.0,0.0
717,73.0,6,15,0.0,0.0
718,74.0,36,15,0.0,0.0
719,77.0,12,40,0.0,0.0
720,45.0,15,120,1.0,0.0
721,75.0,96,15,0.0,0.0
722,76.0,29,40,0.0,0.0
723,77.0,6,30,0.0,0.0
724,74.0,6,15,0.0,0.0
725,75.0,6,15,0.0,0.0
726,72.0,44,15,0.0,0.0
727,70.0,15,180,0.0,0.0
728,46.0,48,40,1.0,0.0
729,58.0,48,40,1.0,0.0
730,62.0,33,40,1.0,0.0
731,58.0,96,40,1.0,0.0
732,72.0,15,180,0.0,0.0
733,53.0,48,40,1.0,0.0
734,57.0,33,40,1.0,0.0
735,53.0,96,40,1.0,0.0
736,74.0,15,180,0.0,0.0
737,58.0,48,40,1.0,0.0
738,57.0,33,40,1.0,0.0
739,58.0,48,40,1.0,0.0
740,55.0,43,40,1.0,0.0
741,75.0,5,90,0.0,0.0
742,58.0,48,40,1.0,0.0
743,50.0,43,40,1.0,0.0
744,77.0,5,90,0.0,0.0
745,58.0,48,40,1.0,0.0
746,51.0,48,40,1.0,0.0
747,79.0,12,150,0.0,0.0
748,51.0,48,40,1.0,0.0
749,51.0,5,40,1.0,0.0
750,51.0,3,40,1.0,0.0
751,77.0,12,15,0.0,0.0
752,75.0,12,15,0.0,0.0
753,74.0,7,15,0.0,0.0
754,72.0,8,15,0.0,0.0
755,70.0,37,15,0.0,0.0
756,51.0,48,40,1.0,0.0
757,69.0,0,40,0.0,0.0
758,70.0,48,40,0.0,0.0
759,50.0,0,40,1.0,0.0
760,72.0,18,60,0.0,0.0
761,51.0,21,40,1.0,0.0
762,53.0,3,40,1.0,0.0
763,74.0,9,15,0.0,0.0
764,75.0,8,15,0.0,0.0
765,46.0,48,40,1.0,0.0
766,75.0,37,15,0.0,0.0
767,74.0,43,90,0.0,0.0
768,58.0,5,40,1.0,0.0
769,53.0,48,40,1.0,0.0
770,50.0,11,40,1.0,0.0
771,46.0,5,40,1.0,0.0
772,72.0,6,15,0.0,0.0
773,70.0,6,15,0.0,0.0
774,72.0,6,15,0.0,0.0
775,70.0,6,15,0.0,0.0
776,72.0,6,15,0.0,0.0
777,70.0,6,15,0.0,0.0
778,72.0,1,15,0.0,0.0
779,70.0,6,15,0.0,0.0
780,58.0,5,40,1.0,0.0
781,72.0,6,15,0.0,0.0
782,70.0,6,15,0.0,0.0
783,72.0,6,15,0.0,0.0
784,70.0,6,15,0.0,0.0
785,72.0,6,15,0.0,0.0
786,70.0,6,15,0.0,0.0
787,72.0,1,15,0.0,0.0
788,70.0,6,15,0.0,0.0
789,72.0,6,15,0.0,0.0
790,62.0,5,40,1.0,0.0
791,70.0,6,15,0.0,0.0
792,72.0,6,15,0.0,0.0
793,70.0,6,15,0.0,0.0
794,72.0,6,15,0.0,0.0
795,70.0,6,15,0.0,0.0
796,72.0,1,15,0.0,0.0
797,70.0,21,15,0.0,0.0
798,69.0,22,20,0.0,0.0
799,58.0,2,40,1.0,0.0
800,70.0,9,20,0.0,0.0
801,74.0,6,15,0.0,0.0
802,72.0,6,15,0.0,0.0
803,74.0,6,15,0.0,0.0
804,72.0,6,15,0.0,0.0
805,74.0,6,15,0.0,0.0
806,72.0,6,15,0.0,0.0
807,74.0,6,15,0.0,0.0
808,72.0,6,15,0.0,0.0
809,74.0,6,15,0.0,0.0
810,53.0,5,40,1.0,0.0
811,72.0,6,15,0.0,0.0
812,74.0,6,15,0.0,0.0
813,72.0,6,15,0.0,0.0
814,74.0,6,15,0.0,0.0
815,72.0,6,15,0.0,0.0
816,74.0,1,15,0.0,0.0
817,72.0,6,15,0.0,0.0
818,57.0,5,40,1.0,0.0
819,74.0,6,15,0.0,0.0
820,72.0,6,15,0.0,0.0
821,74.0,6,15,0.0,0.0
822,72.0,6,15,0.0,0.0
823,74.0,6,15,0.0,0.0
824,72.0,6,15,0.0,0.0
825,74.0,1,15,0.0,0.0
826,72.0,21,15,0.0,0.0
827,70.0,22,20,0.0,0.0
828,53.0,2,40,1.0,0.0
829,72.0,9,20,0.0,0.0
830,75.0,6,15,0.0,0.0
831,74.0,6,15,0.0,0.0
832,75.0,6,15,0.0,0.0
833,74.0,6,15,0.0,0.0
834,75.0,6,15,0.0,0.0
835,74.0,6,15,0.0,0.0
836,75.0,6,15,0.0,0.0
837,74.0,6,15,0.0,0.0
838,58.0,5,40,1.0,0.0
839,75.0,6,15,0.0,0.0
840,74.0,6,15,0.0,0.0
841,75.0,6,15,0.0,0.0
842,74.0,6,15,0.0,0.0
843,75.0,6,15,0.0,0.0
844,74.0,6,15,0.0,0.0
845,75.0,1,15,0.0,0.0
846,74.0,6,15,0.0,0.0
847,57.0,5,40,1.0,0.0
848,75.0,6,15,0.0,0.0
849,74.0,6,15,0.0,0.0
850,75.0,6,15,0.0,0.0
851,74.0,6,15,0.0,0.0
852,75.0,6,15,0.0,0.0
853,74.0,6,15,0.0,0.0
854,75.0,1,15,0.0,0.0
855,74.0,21,15,0.0,0.0
856,58.0,2,40,1.0,0.0
857,72.0,22,20,0.0,0.0
858,74.0,9,20,0.0,0.0
859,77.0,6,15,0.0,0.0
860,55.0,5,40,1.0,0.0
861,75.0,6,15,0.0,0.0
862,77.0,6,15,0.0,0.0
863,75.0,6,15,0.0,0.0
864,77.0,6,15,0.0,0.0
865,75.0,6,15,0.0,0.0
866,77.0,1,15,0.0,0.0
867,75.0,6,15,0.0,0.0
868,77.0,6,15,0.0,0.0
869,58.0,3,40,1.0,0.0
870,75.0,6,15,0.0,0.0
871,77.0,6,15,0.0,0.0
872,75.0,10,15,0.0,0.0
873,74.0,9,15,0.0,0.0
874,75.0,8,15,0.0,0.0
875,50.0,5,40,1.0,0.0
876,79.0,6,15,0.0,0.0
877,77.0,6,15,0.0,0.0
878,79.0,6,15,0.0,0.0
879,77.0,6,15,0.0,0.0
880,79.0,6,15,0.0,0.0
881,77.0,6,15,0.0,0.0
882,79.0,1,15,0.0,0.0
883,77.0,6,15,0.0,0.0
884,79.0,6,15,0.0,0.0
885,58.0,3,40,1.0,0.0
886,77.0,6,15,0.0,0.0
887,79.0,6,15,0.0,0.0
888,77.0,10,15,0.0,0.0
889,75.0,9,15,0.0,0.0
890,77.0,45,15,0.0,0.0
891,79.0,12,150,0.0,0.0
892,51.0,48,40,1.0,0.0
893,51.0,48,40,1.0,0.0
894,51.0,5,40,1.0,0.0
895,77.0,12,15,0.0,0.0
896,51.0,3,40,1.0,0.0
897,75.0,12,15,0.0,0.0
898,74.0,7,15,0.0,0.0
899,72.0,45,15,0.0,0.0
900,51.0,43,40,1.0,0.0
901,81.0,5,90,0.0,0.0
902,48.0,29,40,1.0,0.0
903,84.0,19,20,0.0,0.0
904,50.0,5,40,1.0,0.0
905,82.0,24,20,0.0,0.0
906,51.0,5,40,1.0,0.0
907,81.0,19,20,0.0,0.0
908,79.0,43,20,0.0,0.0
909,53.0,48,40,1.0,0.0
910,77.0,6,150,0.0,0.0
911,53.0,48,40,1.0,0.0
912,53.0,5,40,1.0,0.0
913,53.0,5,40,1.0,0.0
914,77.0,6,15,0.0,0.0
915,75.0,6,15,0.0,0.0
916,77.0,6,15,0.0,0.0
917,75.0,6,15,0.0,0.0
918,77.0,6,15,0.0,0.0
919,75.0,6,15,0.0,0.0
920,77.0,1,15,0.0,0.0
921,75.0,43,15,0.0,0.0
922,46.0,43,40,1.0,0.0
923,74.0,5,90,0.0,0.0
924,58.0,48,40,1.0,0.0
925,53.0,48,40,1.0,0.0
926,50.0,48,40,1.0,0.0
927,77.0,43,40,0.0,0.0
928,46.0,5,40,1.0,0.0
929,58.0,5,40,1.0,0.0
930,74.0,43,40,0.0,0.0
931,62.0,48,40,1.0,0.0
932,58.0,53,40,1.0,0.0
933,74.0,0,40,0.0,0.0
934,77.0,43,40,0.0,0.0
935,57.0,5,40,1.0,0.0
936,75.0,43,40,0.0,0.0
937,60.0,48,40,1.0,0.0
938,72.0,0,40,0.0,0.0
939,57.0,29,40,1.0,0.0
940,58.0,5,40,1.0,0.0
941,74.0,19,20,0.0,0.0
942,77.0,24,20,0.0,0.0
943,46.0,5,40,1.0,0.0
944,82.0,19,20,0.0,0.0
945,81.0,24,20,0.0,0.0
946,79.0,19,20,0.0,0.0
947,50.0,5,40,1.0,0.0
948,77.0,24,20,0.0,0.0
949,75.0,19,20,0.0,0.0
950,55.0,5,40,1.0,0.0
951,74.0,43,20,0.0,0.0
952,77.0,19,60,0.0,0.0
953,53.0,29,40,1.0,0.0
954,53.0,5,40,1.0,0.0
955,74.0,24,20,0.0,0.0
956,41.0,5,40,1.0,0.0
957,72.0,19,20,0.0,0.0
958,74.0,24,20,0.0,0.0
959,75.0,24,20,0.0,0.0
960,76.0,48,20,0.0,0.0
961,77.0,43,40,0.0,0.0
962,74.0,36,40,0.0,0.0
963,58.0,5,40,1.0,0.0
964,62.0,17,40,1.0,0.0
965,74.0,7,15,0.0,0.0
966,58.0,3,40,1.0,0.0
967,75.0,12,15,0.0,0.0
968,74.0,12,15,0.0,0.0
969,72.0,7,15,0.0,0.0
970,74.0,26,15,0.0,0.0
971,77.0,24,20,0.0,0.0
972,76.0,43,20,0.0,0.0
973,57.0,5,40,1.0,0.0
974,75.0,36,40,0.0,0.0
975,60.0,17,40,1.0,0.0
976,72.0,7,15,0.0,0.0
977,74.0,12,15,0.0,0.0
978,57.0,5,40,1.0,0.0
979,72.0,12,15,0.0,0.0
980,71.0,7,15,0.0,0.0
981,72.0,24,15,0.0,0.0
982,58.0,5,40,1.0,0.0
983,74.0,19,20,0.0,0.0
984,77.0,24,20,0.0,0.0
985,46.0,5,40,1.0,0.0
986,82.0,19,20,0.0,0.0
987,81.0,24,20,0.0,0.0
988,79.0,19,20,0.0,0.0
989,50.0,5,40,1.0,0.0
990,77.0,24,20,0.0,0.0
991,55.0,5,40,1.0,0.0
992,75.0,19,20,0.0,0.0
993,74.0,129,20,0.0,0.0
994,77.0,27,120,0.0,0.0
995,53.0,10,660,1.0,0.0
996,79.0,12,15,0.0,0.0
997,77.0,12,15,0.0,0.0
998,75.0,12,15,0.0,0.0
999,74.0,12,15,0.0,0.0
1000,75.0,12,15,0.0,0.0
1001,77.0,12,15,0.0,0.0
1002,79.0,12,15,0.0,0.0
1003,81.0,12,15,0.0,0.0
1004,82.0,12,15,0.0,0.0
1005,81.0,12,15,0.0,0.0
1006,79.0,12,15,0.0,0.0
1007,77.0,12,15,0.0,0.0
1008,79.0,12,15,0.0,0.0
1009,81.0,12,15,0.0,0.0
1010,82.0,12,15,0.0,0.0
1011,84.0,48,15,0.0,0.0
1012,86.0,96,40,0.0,0.0
1013,74.0,24,20,0.0,0.0
1014,75.0,21,20,0.0,0.0
1015,76.0,9,20,0.0,0.0
1016,79.0,65,15,0.0,0.0
1017,77.0,9,60,0.0,0.0
1018,75.0,8,15,0.0,0.0
1019,74.0,8,15,0.0,0.0
1020,72.0,6,15,0.0,0.0
1021,75.0,32,15,0.0,0.0
1022,74.0,43,40,0.0,0.0
1023,72.0,5,90,0.0,0.0
1024,53.0,43,40,1.0,0.0
1025,41.0,48,40,1.0,0.0
1026,45.0,48,40,1.0,0.0
1027,48.0,48,40,1.0,0.0
1028,72.0,5,90,0.0,0.0
1029,53.0,43,40,1.0,0.0
1030,53.0,48,40,1.0,0.0
1031,57.0,43,40,1.0,0.0
1032,65.0,5,90,0.0,0.0
1033,53.0,48,40,1.0,0.0
1034,64.0,10,120,0.0,0.0
1035,55.0,48,40,1.0,0.0
1036,60.0,37,40,1.0,0.0
1037,55.0,5,40,1.0,0.0
1038,65.0,1,15,0.0,0.0
1039,67.0,6,15,0.0,0.0
1040,52.0,5,40,1.0,0.0
1041,69.0,6,15,0.0,0.0
1042,70.0,6,15,0.0,0.0
1043,72.0,6,15,0.0,0.0
1044,74.0,6,15,0.0,0.0
1045,76.0,6,15,0.0,0.0
1046,77.0,6,15,0.0,0.0
1047,79.0,1,15,0.0,0.0
1048,81.0,48,15,0.0,0.0
1049,48.0,20,180,1.0,0.0
1050,82.0,48,40,0.0,0.0
1051,79.0,48,40,0.0,0.0
1052,76.0,28,40,0.0,0.0
1053,70.0,24,15,0.0,0.0
1054,69.0,24,20,0.0,0.0
1055,74.0,19,20,0.0,0.0
1056,53.0,5,40,1.0,0.0
1057,72.0,24,20,0.0,0.0
1058,57.0,5,40,1.0,0.0
1059,72.0,19,20,0.0,0.0
1060,74.0,24,20,0.0,0.0
1061,53.0,5,40,1.0,0.0
1062,75.0,19,20,0.0,0.0
1063,76.0,43,20,0.0,0.0
1064,50.0,43,40,1.0,0.0
1065,77.0,5,90,0.0,0.0
1066,46.0,48,40,1.0,0.0
1067,50.0,43,40,1.0,0.0
1068,70.0,5,90,0.0,0.0
1069,46.0,48,40,1.0,0.0
1070,48.0,48,40,1.0,0.0
1071,69.0,10,120,0.0,0.0
1072,53.0,37,40,1.0,0.0
1073,48.0,5,40,1.0,0.0
1074,70.0,1,15,0.0,0.0
1075,72.0,6,15,0.0,0.0
1076,45.0,5,40,1.0,0.0
1077,74.0,6,15,0.0,0.0
1078,76.0,6,15,0.0,0.0
1079,77.0,6,15,0.0,0.0
1080,79.0,6,15,0.0,0.0
1081,81.0,6,15,0.0,0.0
1082,82.0,6,15,0.0,0.0
1083,84.0,1,15,0.0,0.0
1084,86.0,48,15,0.0,0.0
1085,84.0,48,40,0.0,0.0
1086,41.0,20,180,1.0,0.0
1087,81.0,48,40,0.0,0.0
1088,77.0,28,40,0.0,0.0
1089,75.0,24,15,0.0,0.0
1090,74.0,24,20,0.0,0.0
1091,62.0,5,40,1.0,0.0
1092,79.0,19,20,0.0,0.0
1093,77.0,43,15,0.0,0.0
1094,58.0,43,40,1.0,0.0
1095,53.0,17,40,1.0,0.0
1096,77.0,12,15,0.0,0.0
1097,50.0,5,40,1.0,0.0
1098,74.0,12,15,0.0,0.0
1099,75.0,7,15,0.0,0.0
1100,72.0,43,15,0.0,0.0
1101,70.0,5,90,0.0,0.0
1102,50.0,43,40,1.0,0.0
1103,50.0,48,40,1.0,0.0
1104,50.0,0,40,1.0,0.0
1105,70.0,48,40,0.0,0.0
1106,51.0,29,40,1.0,0.0
1107,70.0,19,60,0.0,0.0
1108,51.0,5,40,1.0,0.0
1109,72.0,43,20,0.0,0.0
1110,70.0,5,90,0.0,0.0
1111,51.0,43,40,1.0,0.0
1112,51.0,17,40,1.0,0.0
1113,52.0,5,40,1.0,0.0
1114,79.0,12,15,0.0,0.0
1115,76.0,12,15,0.0,0.0
1116,77.0,7,15,0.0,0.0
1117,74.0,43,15,0.0,0.0
1118,72.0,5,90,0.0,0.0
1119,52.0,43,40,1.0,0.0
1120,52.0,48,40,1.0,0.0
1121,72.0,0,40,0.0,0.0
1122,52.0,48,40,1.0,0.0
1123,53.0,29,40,1.0,0.0
1124,72.0,19,60,0.0,0.0
1125,53.0,5,40,1.0,0.0
1126,74.0,43,20,0.0,0.0
1127,72.0,5,90,0.0,0.0
1128,53.0,43,40,1.0,0.0
1129,53.0,48,40,1.0,0.0
1130,57.0,48,40,1.0,0.0
1131,53.0,48,40,1.0,0.0
1132,48.0,48,40,1.0,0.0
1133,77.0,0,40,0.0,0.0
1134,45.0,29,40,1.0,0.0
1135,77.0,0,40,0.0,0.0
1136,46.0,5,40,1.0,0.0
1137,77.0,19,20,0.0,0.0
1138,74.0,12,20,0.0,0.0
1139,58.0,48,40,1.0,0.0
1140,70.0,24,15,0.0,0.0
1141,70.0,7,15,0.0,0.0
1142,62.0,5,40,1.0,0.0
1143,70.0,24,20,0.0,0.0
1144,72.0,19,20,0.0,0.0
1145,58.0,5,40,1.0,0.0
1146,74.0,24,20,0.0,0.0
1147,75.0,24,20,0.0,0.0
1148,72.0,12,20,0.0,0.0
1149,53.0,48,40,1.0,0.0
1150,69.0,24,15,0.0,0.0
1151,69.0,7,15,0.0,0.0
1152,57.0,5,40,1.0,0.0
1153,72.0,24,20,0.0,0.0
1154,53.0,5,40,1.0,0.0
1155,74.0,19,20,0.0,0.0
1156,75.0,24,20,0.0,0.0
1157,50.0,5,40,1.0,0.0
1158,77.0,19,20,0.0,0.0
1159,74.0,12,20,0.0,0.0
1160,46.0,48,40,1.0,0.0
1161,82.0,24,15,0.0,0.0
1162,82.0,7,15,0.0,0.0
1163,50.0,5,40,1.0,0.0
1164,70.0,24,20,0.0,0.0
1165,46.0,5,40,1.0,0.0
1166,72.0,19,20,0.0,0.0
1167,74.0,24,20,0.0,0.0
1168,75.0,24,20,0.0,0.0
1169,72.0,12,20,0.0,0.0
1170,53.0,48,40,1.0,0.0
1171,84.0,24,15,0.0,0.0
1172,84.0,7,15,0.0,0.0
1173,57.0,5,40,1.0,0.0
1174,72.0,24,20,0.0,0.0
1175,74.0,19,20,0.0,0.0
1176,53.0,5,40,1.0,0.0
1177,75.0,43,20,0.0,0.0
1178,58.0,5,40,1.0,0.0
1179,74.0,43,40,0.0,0.0
1180,50.0,48,40,1.0,0.0
1181,82.0,43,90,0.0,0.0
1182,50.0,5,40,1.0,0.0
1183,80.0,43,40,0.0,0.0
1184,50.0,5,40,1.0,0.0
1185,51.0,5,40,1.0,0.0
1186,78.0,43,40,0.0,0.0
1187,79.0,43,40,0.0,0.0
1188,51.0,5,40,1.0,0.0
1189,51.0,48,40,1.0,0.0
1190,79.0,48,40,0.0,0.0
1191,51.0,0,40,1.0,0.0
1192,50.0,2,60,1.0,0.0
1193,77.0,11,40,0.0,0.0
1194,79.0,6,15,0.0,0.0
1195,77.0,4,15,0.0,0.0
1196,76.0,6,15,0.0,0.0
1197,77.0,10,15,0.0,0.0
1198,51.0,1,20,1.0,0.0
1199,79.0,11,15,0.0,0.0
1200,75.0,45,15,0.0,0.0
1201,53.0,0,40,1.0,0.0
1202,74.0,48,40,0.0,0.0
1203,53.0,0,40,1.0,0.0
1204,72.0,48,40,0.0,0.0
1205,46.0,48,40,1.0,0.0
1206,70.0,15,360,0.0,0.0
1207,58.0,48,40,1.0,0.0
1208,62.0,48,40,1.0,0.0
1209,58.0,48,40,1.0,0.0
1210,55.0,48,40,1.0,0.0
1211,51.0,48,40,1.0,0.0
1212,55.0,33,40,1.0,0.0
1213,51.0,48,40,1.0,0.0
1214,82.0,48,420,0.0,0.0
1215,50.0,48,40,1.0,0.0
1216,46.0,48,40,1.0,0.0
1217,56.0,48,40,1.0,0.0
1218,53.0,48,40,1.0,0.0
1219,55.0,48,40,1.0,0.0
1220,51.0,48,40,1.0,0.0
1221,55.0,48,40,1.0,0.0
1222,51.0,53,40,1.0,0.0
1223,46.0,20,180,1.0,0.0
1224,80.0,48,40,0.0,0.0
1225,79.0,28,40,0.0,0.0
1226,78.0,60,40,0.0,0.0
1227,79.0,12,60,0.0,0.0
1228,51.0,5,40,1.0,0.0
1229,81.0,12,15,0.0,0.0
1230,78.0,7,15,0.0,0.0
1231,81.0,43,15,0.0,0.0
1232,79.0,12,60,0.0,0.0
1233,51.0,17,40,1.0,0.0
1234,51.0,5,40,1.0,0.0
1235,81.0,12,15,0.0,0.0
1236,78.0,7,15,0.0,0.0
1237,81.0,12,15,0.0,0.0
1238,51.0,5,40,1.0,0.0
1239,79.0,12,15,0.0,0.0
1240,81.0,12,15,0.0,0.0
1241,78.0,7,15,0.0,0.0
1242,81.0,12,15,0.0,0.0
1243,51.0,5,40,1.0,0.0
1244,79.0,12,15,0.0,0.0
1245,81.0,12,15,0.0,0.0
1246,78.0,7,15,0.0,0.0
1247,81.0,12,15,0.0,0.0
1248,51.0,5,40,1.0,0.0
1249,79.0,12,15,0.0,0.0
1250,81.0,12,15,0.0,0.0
1251,78.0,7,15,0.0,0.0
1252,81.0,12,15,0.0,0.0
1253,79.0,12,15,0.0,0.0
1254,51.0,5,40,1.0,0.0
1255,81.0,12,15,0.0,0.0
1256,78.0,7,15,0.0,0.0
1257,81.0,12,15,0.0,0.0
1258,79.0,12,15,0.0,0.0
1259,51.0,10,90,1.0,0.0
1260,81.0,12,15,0.0,0.0
1261,82.0,12,15,0.0,0.0
1262,81.0,12,15,0.0,0.0
1263,79.0,12,15,0.0,0.0
1264,77.0,12,15,0.0,0.0
1265,75.0,2,15,0.0,0.0
1266,74.0,12,15,0.0,0.0
1267,72.0,12,15,0.0,0.0
1268,74.0,12,15,0.0,0.0
1269,75.0,12,15,0.0,0.0
1270,74.0,12,15,0.0,0.0
1271,51.0,5,40,1.0,0.0
1272,72.0,12,15,0.0,0.0
1273,70.0,12,15,0.0,0.0
1274,69.0,7,15,0.0,0.0
1275,67.0,24,15,0.0,0.0
1276,65.0,12,20,0.0,0.0
1277,53.0,27,420,1.0,0.0
1278,67.0,12,15,0.0,0.0
1279,69.0,12,15,0.0,0.0
1280,70.0,12,15,0.0,0.0
1281,72.0,12,15,0.0,0.0
1282,74.0,12,15,0.0,0.0
1283,76.0,12,15,0.0,0.0
1284,77.0,12,15,0.0,0.0
1285,76.0,12,15,0.0,0.0
1286,77.0,12,15,0.0,0.0
1287,76.0,12,15,0.0,0.0
1288,77.0,12,15,0.0,0.0
1289,76.0,12,15,0.0,0.0
1290,77.0,12,15,0.0,0.0
1291,76.0,10,15,0.0,0.0
1292,77.0,12,15,0.0,0.0
1293,70.0,12,15,0.0,0.0
1294,72.0,12,15,0.0,0.0
1295,74.0,12,15,0.0,0.0
1296,75.0,12,15,0.0,0.0
1297,77.0,12,15,0.0,0.0
1298,79.0,12,15,0.0,0.0
1299,81.0,12,15,0.0,0.0
1300,82.0,12,15,0.0,0.0
1301,81.0,12,15,0.0,0.0
1302,82.0,12,15,0.0,0.0
1303,81.0,12,15,0.0,0.0
1304,82.0,12,15,0.0,0.0
1305,81.0,12,15,0.0,0.0
1306,82.0,12,15,0.0,0.0
1307,81.0,45,15,0.0,0.0
1308,82.0,0,40,0.0,0.0
1309,53.0,3,40,1.0,0.0
1310,77.0,12,15,0.0,0.0
1311,79.0,9,15,0.0,0.0
1312,81.0,45,15,0.0,0.0
1313,82.0,27,40,0.0,0.0
1314,53.0,3,40,1.0,0.0
1315,77.0,12,15,0.0,0.0
1316,79.0,9,15,0.0,0.0
1317,81.0,26,15,0.0,0.0
1318,82.0,48,20,0.0,0.0
1319,77.0,19,40,0.0,0.0
1320,58.0,5,40,1.0,0.0
1321,74.0,24,20,0.0,0.0
1322,77.0,19,20,0.0,0.0
1323,62.0,29,40,1.0,0.0
1324,74.0,19,40,0.0,0.0
1325,58.0,5,40,1.0,0.0
1326,70.0,6,20,0.0,0.0
1327,74.0,6,15,0.0,0.0
1328,53.0,5,40,1.0,0.0
1329,72.0,6,15,0.0,0.0
1330,74.0,6,15,0.0,0.0
1331,72.0,6,15,0.0,0.0
1332,74.0,6,15,0.0,0.0
1333,72.0,6,15,0.0,0.0
1334,74.0,1,15,0.0,0.0
1335,72.0,6,15,0.0,0.0
1336,74.0,6,15,0.0,0.0
1337,53.0,5,40,1.0,0.0
1338,72.0,6,15,0.0,0.0
1339,74.0,6,15,0.0,0.0
1340,72.0,6,15,0.0,0.0
1341,74.0,6,15,0.0,0.0
1342,72.0,6,15,0.0,0.0
1343,74.0,1,15,0.0,0.0
1344,72.0,6,15,0.0,0.0
1345,53.0,5,40,1.0,0.0
1346,74.0,6,15,0.0,0.0
1347,72.0,6,15,0.0,0.0
1348,74.0,6,15,0.0,0.0
1349,72.0,6,15,0.0,0.0
1350,74.0,6,15,0.0,0.0
1351,72.0,6,15,0.0,0.0
1352,74.0,1,15,0.0,0.0
1353,72.0,6,15,0.0,0.0
1354,74.0,6,15,0.0,0.0
1355,53.0,3,40,1.0,0.0
1356,72.0,6,15,0.0,0.0
1357,74.0,6,15,0.0,0.0
1358,72.0,10,15,0.0,0.0
1359,70.0,9,15,0.0,0.0
1360,72.0,88,15,0.0,0.0
1361,70.0,0,90,0.0,0.0
1362,46.0,0,90,1.0,0.0
