tick,type,port,time,meta,track,data,numerator,denominator,clocks_per_click,notated_32nd_notes_per_beat,key,tempo,program,channel,control,value,note,velocity
0,midi_port,0,0,1,0,,,,,,,,,,,,,
0,track_name,,0,1,2,,,,,,,,,,,,,
0,program_change,,0,0,2,,,,,,,,0,1,,,,
0,control_change,,0,0,2,,,,,,,,,1,121,0,,
0,control_change,,0,0,2,,,,,,,,,1,7,127,,
0,control_change,,0,0,2,,,,,,,,,1,10,44,,
0,control_change,,0,0,2,,,,,,,,,1,91,101,,
0,midi_port,0,0,1,3,,,,,,,,,,,,,
0,end_of_track,,0,1,3,,,,,,,,,,,,,
0,midi_port,0,0,1,2,,,,,,,,,,,,,
0,midi_port,0,0,1,4,,,,,,,,,,,,,
0,end_of_track,,0,1,4,,,,,,,,,,,,,
0,midi_port,0,0,1,5,,,,,,,,,,,,,
0,track_name,,0,1,5,,,,,,,,,,,,,
0,end_of_track,,0,1,5,,,,,,,,,,,,,
0,midi_port,0,0,1,6,,,,,,,,,,,,,
0,track_name,,0,1,6,,,,,,,,,,,,,
0,end_of_track,,0,1,6,,,,,,,,,,,,,
0,midi_port,0,0,1,7,,,,,,,,,,,,,
0,track_name,,0,1,4,,,,,,,,,,,,,
0,track_name,,0,1,7,,,,,,,,,,,,,
0,end_of_track,,0,1,7,,,,,,,,,,,,,
0,midi_port,0,0,1,0,,,,,,,,,,,,,
0,control_change,,0,0,1,,,,,,,,,0,7,127,,
0,control_change,,0,0,1,,,,,,,,,0,121,0,,
0,control_change,,0,0,1,,,,,,,,,0,10,84,,
0,track_name,,0,1,1,,,,,,,,,,,,,
0,midi_port,0,0,1,1,,,,,,,,,,,,,
0,program_change,,0,0,1,,,,,,,,0,0,,,,
0,set_tempo,,0,1,0,,,,,,,500000,,,,,,
0,key_signature,,0,1,0,,,,,,Bb,,,,,,,
0,time_signature,,0,1,0,,4,4,24,8,,,,,,,,
0,sysex,,0,0,0,"(126, 127, 9, 1)",,,,,,,,,,,,
0,control_change,,0,0,1,,,,,,,,,0,91,101,,
480,marker,,480,1,0,,,,,,,,,,,,,
480,note_on,,480,0,1,,,,,,,,,0,,,74,85
480,end_of_track,,0,1,0,,,,,,,,,,,,,
712,note_on,,232,0,1,,,,,,,,,0,,,74,0
720,note_on,,8,0,1,,,,,,,,,0,,,70,80
900,note_on,,180,0,1,,,,,,,,,0,,,69,80
902,note_on,,2,0,1,,,,,,,,,0,,,70,0
930,note_on,,28,0,1,,,,,,,,,0,,,69,0
930,note_on,,0,0,1,,,,,,,,,0,,,67,76
960,note_on,,30,0,1,,,,,,,,,0,,,66,76
968,note_on,,8,0,1,,,,,,,,,0,,,67,0
1016,note_on,,48,0,1,,,,,,,,,0,,,66,0
1020,note_on,,4,0,1,,,,,,,,,0,,,67,89
1080,note_on,,60,0,1,,,,,,,,,0,,,69,89
1082,note_on,,2,0,1,,,,,,,,,0,,,67,0
1258,note_on,,176,0,1,,,,,,,,,0,,,69,0
1260,note_on,,2,0,1,,,,,,,,,0,,,75,68
1317,note_on,,57,0,1,,,,,,,,,0,,,75,0
1320,note_on,,3,0,1,,,,,,,,,0,,,74,85
1380,note_on,,60,0,1,,,,,,,,,0,,,72,80
1383,note_on,,3,0,1,,,,,,,,,0,,,74,0
1440,note_on,,57,0,1,,,,,,,,,0,,,70,68
1440,note_on,,0,0,1,,,,,,,,,0,,,67,93
1441,note_on,,1,0,1,,,,,,,,,0,,,72,0
1500,note_on,,59,0,1,,,,,,,,,0,,,69,76
1504,note_on,,4,0,1,,,,,,,,,0,,,70,0
1558,note_on,,54,0,1,,,,,,,,,0,,,69,0
1560,note_on,,2,0,1,,,,,,,,,0,,,70,76
1620,note_on,,60,0,1,,,,,,,,,0,,,72,72
1622,note_on,,2,0,1,,,,,,,,,0,,,70,0
1680,note_on,,0,0,1,,,,,,,,,0,,,74,85
1680,note_on,,0,0,1,,,,,,,,,0,,,65,89
1680,note_on,,58,0,1,,,,,,,,,0,,,67,0
1687,note_on,,7,0,1,,,,,,,,,0,,,72,0
1740,note_on,,53,0,1,,,,,,,,,0,,,69,76
1742,note_on,,2,0,1,,,,,,,,,0,,,74,0
1800,note_on,,58,0,1,,,,,,,,,0,,,69,0
1800,note_on,,0,0,1,,,,,,,,,0,,,74,85
1860,note_on,,60,0,1,,,,,,,,,0,,,64,89
1867,note_on,,7,0,1,,,,,,,,,0,,,65,0
1885,note_on,,18,0,1,,,,,,,,,0,,,64,0
1890,note_on,,5,0,1,,,,,,,,,0,,,62,76
1920,note_on,,30,0,1,,,,,,,,,0,,,62,0
1920,note_on,,0,0,1,,,,,,,,,0,,,76,93
1920,note_on,,0,0,1,,,,,,,,,0,,,61,64
1921,note_on,,1,0,1,,,,,,,,,0,,,74,0
1980,note_on,,59,0,1,,,,,,,,,0,,,62,80
1983,note_on,,3,0,1,,,,,,,,,0,,,61,0
2036,note_on,,53,0,1,,,,,,,,,0,,,62,0
2040,note_on,,4,0,1,,,,,,,,,0,,,64,93
2093,note_on,,53,0,1,,,,,,,,,0,,,76,0
2100,note_on,,7,0,1,,,,,,,,,0,,,74,76
2160,note_on,,60,0,1,,,,,,,,,0,,,73,89
2169,note_on,,9,0,1,,,,,,,,,0,,,74,0
2216,note_on,,47,0,1,,,,,,,,,0,,,64,0
2220,note_on,,4,0,1,,,,,,,,,0,,,70,80
2280,note_on,,60,0,1,,,,,,,,,0,,,69,76
2285,note_on,,5,0,1,,,,,,,,,0,,,70,0
2333,note_on,,48,0,1,,,,,,,,,0,,,69,0
2340,note_on,,7,0,1,,,,,,,,,0,,,67,85
2393,note_on,,53,0,1,,,,,,,,,0,,,73,0
2398,note_on,,5,0,1,,,,,,,,,0,,,67,0
2400,note_on,,2,0,1,,,,,,,,,0,,,74,89
2400,note_on,,0,0,1,,,,,,,,,0,,,66,64
2400,note_on,,2400,0,2,,,,,,,,,1,,,62,93
2460,note_on,,60,0,1,,,,,,,,,0,,,62,76
2464,note_on,,4,0,1,,,,,,,,,0,,,66,0
2519,note_on,,55,0,1,,,,,,,,,0,,,62,0
2520,note_on,,1,0,1,,,,,,,,,0,,,64,72
2580,note_on,,60,0,1,,,,,,,,,0,,,64,0
2580,note_on,,0,0,1,,,,,,,,,0,,,66,76
2638,note_on,,58,0,1,,,,,,,,,0,,,66,0
2640,note_on,,240,0,2,,,,,,,,,1,,,62,0
2640,note_on,,2,0,1,,,,,,,,,0,,,67,93
2640,note_on,,0,0,2,,,,,,,,,1,,,58,89
2678,note_on,,38,0,1,,,,,,,,,0,,,74,0
2700,note_on,,22,0,1,,,,,,,,,0,,,70,89
2756,note_on,,56,0,1,,,,,,,,,0,,,70,0
2760,note_on,,4,0,1,,,,,,,,,0,,,72,85
2760,note_on,,0,0,1,,,,,,,,,0,,,69,89
2765,note_on,,5,0,1,,,,,,,,,0,,,67,0
2819,note_on,,54,0,1,,,,,,,,,0,,,72,0
2820,note_on,,180,0,2,,,,,,,,,1,,,57,85
2820,note_on,,1,0,1,,,,,,,,,0,,,69,0
2820,note_on,,0,0,1,,,,,,,,,0,,,70,76
2820,note_on,,0,0,1,,,,,,,,,0,,,74,89
2822,note_on,,2,0,2,,,,,,,,,1,,,58,0
2843,note_on,,21,0,2,,,,,,,,,1,,,57,0
2850,note_on,,7,0,2,,,,,,,,,1,,,55,80
2880,note_on,,30,0,2,,,,,,,,,1,,,54,72
2880,note_on,,0,0,1,,,,,,,,,0,,,72,93
2880,note_on,,60,0,1,,,,,,,,,0,,,75,64
2883,note_on,,3,0,1,,,,,,,,,0,,,70,0
2883,note_on,,0,0,1,,,,,,,,,0,,,74,0
2885,note_on,,5,0,2,,,,,,,,,1,,,55,0
2938,note_on,,53,0,2,,,,,,,,,1,,,54,0
2940,note_on,,57,0,1,,,,,,,,,0,,,70,62
2940,note_on,,2,0,2,,,,,,,,,1,,,55,89
2954,note_on,,14,0,1,,,,,,,,,0,,,72,0
3000,note_on,,46,0,1,,,,,,,,,0,,,69,89
3000,note_on,,60,0,2,,,,,,,,,1,,,57,102
3001,note_on,,1,0,2,,,,,,,,,1,,,55,0
3007,note_on,,7,0,1,,,,,,,,,0,,,70,0
3054,note_on,,47,0,1,,,,,,,,,0,,,75,0
3055,note_on,,1,0,1,,,,,,,,,0,,,69,0
3060,note_on,,5,0,1,,,,,,,,,0,,,72,76
3060,note_on,,0,0,1,,,,,,,,,0,,,67,56
3090,note_on,,30,0,1,,,,,,,,,0,,,70,72
3093,note_on,,3,0,1,,,,,,,,,0,,,72,0
3119,note_on,,26,0,1,,,,,,,,,0,,,67,0
3120,note_on,,0,0,1,,,,,,,,,0,,,66,76
3120,note_on,,1,0,1,,,,,,,,,0,,,69,76
3122,note_on,,2,0,1,,,,,,,,,0,,,70,0
3180,note_on,,179,0,2,,,,,,,,,1,,,63,89
3182,note_on,,2,0,2,,,,,,,,,1,,,57,0
3239,note_on,,57,0,2,,,,,,,,,1,,,63,0
3240,note_on,,1,0,2,,,,,,,,,1,,,62,76
3300,note_on,,60,0,2,,,,,,,,,1,,,60,76
3305,note_on,,5,0,2,,,,,,,,,1,,,62,0
3360,note_on,,0,0,2,,,,,,,,,1,,,55,102
3360,note_on,,55,0,2,,,,,,,,,1,,,58,76
3360,note_on,,0,0,1,,,,,,,,,0,,,67,72
3360,note_on,,238,0,1,,,,,,,,,0,,,70,80
3364,note_on,,4,0,1,,,,,,,,,0,,,69,0
3367,note_on,,7,0,2,,,,,,,,,1,,,60,0
3368,note_on,,4,0,1,,,,,,,,,0,,,66,0
3417,note_on,,50,0,2,,,,,,,,,1,,,58,0
3420,note_on,,3,0,2,,,,,,,,,1,,,57,80
3420,note_on,,52,0,1,,,,,,,,,0,,,72,76
3426,note_on,,6,0,1,,,,,,,,,0,,,70,0
3480,note_on,,60,0,2,,,,,,,,,1,,,58,72
3480,note_on,,54,0,1,,,,,,,,,0,,,74,76
3481,note_on,,1,0,1,,,,,,,,,0,,,72,0
3482,note_on,,2,0,2,,,,,,,,,1,,,57,0
3540,note_on,,58,0,2,,,,,,,,,1,,,60,76
3543,note_on,,3,0,2,,,,,,,,,1,,,58,0
3570,note_on,,27,0,2,,,,,,,,,1,,,58,55
3572,note_on,,2,0,2,,,,,,,,,1,,,60,0
3591,note_on,,110,0,1,,,,,,,,,0,,,67,0
3599,note_on,,27,0,2,,,,,,,,,1,,,58,0
3600,note_on,,9,0,1,,,,,,,,,0,,,69,93
3600,note_on,,0,0,2,,,,,,,,,1,,,53,98
3600,note_on,,0,0,2,,,,,,,,,1,,,57,80
3600,note_on,,1,0,2,,,,,,,,,1,,,55,0
3660,note_on,,60,0,1,,,,,,,,,0,,,65,80
3666,note_on,,6,0,1,,,,,,,,,0,,,69,0
3719,note_on,,53,0,1,,,,,,,,,0,,,74,0
3720,note_on,,1,0,1,,,,,,,,,0,,,76,89
3720,note_on,,0,0,1,,,,,,,,,0,,,67,89
3723,note_on,,3,0,1,,,,,,,,,0,,,65,0
3771,note_on,,171,0,2,,,,,,,,,1,,,57,0
3776,note_on,,5,0,2,,,,,,,,,1,,,53,0
3780,note_on,,0,0,2,,,,,,,,,1,,,52,93
3780,note_on,,0,0,1,,,,,,,,,0,,,69,85
3780,note_on,,4,0,2,,,,,,,,,1,,,55,80
3780,note_on,,57,0,1,,,,,,,,,0,,,77,89
3783,note_on,,3,0,1,,,,,,,,,0,,,67,0
3783,note_on,,0,0,1,,,,,,,,,0,,,76,0
3810,note_on,,30,0,2,,,,,,,,,1,,,53,76
3810,note_on,,0,0,2,,,,,,,,,1,,,50,93
3814,note_on,,4,0,2,,,,,,,,,1,,,52,0
3816,note_on,,2,0,2,,,,,,,,,1,,,55,0
3839,note_on,,23,0,2,,,,,,,,,1,,,53,0
3840,note_on,,0,0,1,,,,,,,,,0,,,70,89
3840,note_on,,1,0,2,,,,,,,,,1,,,52,89
3840,note_on,,57,0,1,,,,,,,,,0,,,79,85
3840,note_on,,0,0,2,,,,,,,,,1,,,49,76
3841,note_on,,1,0,1,,,,,,,,,0,,,77,0
3846,note_on,,5,0,1,,,,,,,,,0,,,69,0
3849,note_on,,9,0,2,,,,,,,,,1,,,50,0
3900,note_on,,51,0,2,,,,,,,,,1,,,53,80
3900,note_on,,0,0,2,,,,,,,,,1,,,50,93
3901,note_on,,1,0,2,,,,,,,,,1,,,49,0
3904,note_on,,3,0,2,,,,,,,,,1,,,52,0
3955,note_on,,51,0,2,,,,,,,,,1,,,53,0
3960,note_on,,5,0,2,,,,,,,,,1,,,55,85
3960,note_on,,0,0,2,,,,,,,,,1,,,52,93
3964,note_on,,4,0,2,,,,,,,,,1,,,50,0
4020,note_on,,0,0,1,,,,,,,,,0,,,67,60
4020,note_on,,174,0,1,,,,,,,,,0,,,76,72
4033,note_on,,0,0,1,,,,,,,,,0,,,70,0
4033,note_on,,13,0,1,,,,,,,,,0,,,79,0
4050,note_on,,0,0,1,,,,,,,,,0,,,65,72
4050,note_on,,17,0,1,,,,,,,,,0,,,74,76
4051,note_on,,1,0,1,,,,,,,,,0,,,67,0
4054,note_on,,3,0,1,,,,,,,,,0,,,76,0
4080,note_on,,26,0,1,,,,,,,,,0,,,73,62
4080,note_on,,0,0,1,,,,,,,,,0,,,64,76
4087,note_on,,0,0,1,,,,,,,,,0,,,65,0
4087,note_on,,7,0,1,,,,,,,,,0,,,74,0
4092,note_on,,128,0,2,,,,,,,,,1,,,55,0
4140,note_on,,48,0,2,,,,,,,,,1,,,58,89
4142,note_on,,2,0,2,,,,,,,,,1,,,52,0
4200,note_on,,0,0,2,,,,,,,,,1,,,57,98
4200,note_on,,58,0,2,,,,,,,,,1,,,57,102
4208,note_on,,8,0,2,,,,,,,,,1,,,58,0
4260,note_on,,52,0,2,,,,,,,,,1,,,57,0
4260,note_on,,0,0,2,,,,,,,,,1,,,55,89
4307,note_on,,220,0,1,,,,,,,,,0,,,73,0
4320,note_on,,60,0,2,,,,,,,,,1,,,53,93
4320,note_on,,13,0,1,,,,,,,,,0,,,74,80
4320,note_on,,0,0,1,,,,,,,,,0,,,62,80
4325,note_on,,5,0,2,,,,,,,,,1,,,55,0
4327,note_on,,7,0,1,,,,,,,,,0,,,64,0
4380,note_on,,53,0,1,,,,,,,,,0,,,72,76
4386,note_on,,6,0,1,,,,,,,,,0,,,74,0
4408,note_on,,22,0,1,,,,,,,,,0,,,62,0
4422,note_on,,97,0,2,,,,,,,,,1,,,57,0
4440,note_on,,32,0,1,,,,,,,,,0,,,70,68
4440,note_on,,0,0,1,,,,,,,,,0,,,62,76
4440,note_on,,18,0,2,,,,,,,,,1,,,57,93
4441,note_on,,1,0,1,,,,,,,,,0,,,72,0
4497,note_on,,56,0,1,,,,,,,,,0,,,70,0
4500,note_on,,3,0,1,,,,,,,,,0,,,69,72
4555,note_on,,115,0,2,,,,,,,,,1,,,57,0
4560,note_on,,60,0,1,,,,,,,,,0,,,67,89
4560,note_on,,5,0,2,,,,,,,,,1,,,58,85
4560,note_on,,0,0,2,,,,,,,,,1,,,52,89
4564,note_on,,4,0,1,,,,,,,,,0,,,69,0
4565,note_on,,5,0,2,,,,,,,,,1,,,53,0
4597,note_on,,32,0,2,,,,,,,,,1,,,58,0
4620,note_on,,23,0,2,,,,,,,,,1,,,58,80
4679,note_on,,115,0,1,,,,,,,,,0,,,62,0
4680,note_on,,1,0,1,,,,,,,,,0,,,61,76
4680,note_on,,60,0,2,,,,,,,,,1,,,58,0
4680,note_on,,0,0,2,,,,,,,,,1,,,57,85
4737,note_on,,57,0,2,,,,,,,,,1,,,57,0
4740,note_on,,3,0,2,,,,,,,,,1,,,55,76
4795,note_on,,115,0,1,,,,,,,,,0,,,67,0
4796,note_on,,1,0,1,,,,,,,,,0,,,61,0
4796,note_on,,56,0,2,,,,,,,,,1,,,55,0
4800,note_on,,0,0,1,,,,,,,,,0,,,62,89
4800,note_on,,4,0,1,,,,,,,,,0,,,65,89
4800,note_on,,0,0,2,,,,,,,,,1,,,50,89
4800,note_on,,4,0,2,,,,,,,,,1,,,57,93
4801,note_on,,1,0,2,,,,,,,,,1,,,52,0
4860,note_on,,59,0,2,,,,,,,,,1,,,48,89
4861,note_on,,1,0,2,,,,,,,,,1,,,50,0
4914,note_on,,114,0,1,,,,,,,,,0,,,62,0
4919,note_on,,5,0,1,,,,,,,,,0,,,65,0
4920,note_on,,0,0,2,,,,,,,,,1,,,46,98
4920,note_on,,0,0,1,,,,,,,,,0,,,65,93
4920,note_on,,59,0,2,,,,,,,,,1,,,57,0
4920,note_on,,0,0,2,,,,,,,,,1,,,62,93
4920,note_on,,1,0,1,,,,,,,,,0,,,77,89
4929,note_on,,9,0,2,,,,,,,,,1,,,48,0
4977,note_on,,48,0,2,,,,,,,,,1,,,62,0
4980,note_on,,0,0,2,,,,,,,,,1,,,45,98
4980,note_on,,3,0,2,,,,,,,,,1,,,60,80
4985,note_on,,5,0,2,,,,,,,,,1,,,46,0
5040,note_on,,120,0,1,,,,,,,,,0,,,70,85
5040,note_on,,0,0,2,,,,,,,,,1,,,43,89
5040,note_on,,55,0,2,,,,,,,,,1,,,58,89
5041,note_on,,1,0,1,,,,,,,,,0,,,65,0
5042,note_on,,2,0,2,,,,,,,,,1,,,60,0
5045,note_on,,3,0,2,,,,,,,,,1,,,45,0
5160,note_on,,119,0,1,,,,,,,,,0,,,76,89
5160,note_on,,115,0,2,,,,,,,,,1,,,60,89
5165,note_on,,5,0,2,,,,,,,,,1,,,58,0
5167,note_on,,7,0,1,,,,,,,,,0,,,77,0
5207,note_on,,40,0,1,,,,,,,,,0,,,70,0
5220,note_on,,13,0,1,,,,,,,,,0,,,70,85
5264,note_on,,99,0,2,,,,,,,,,1,,,60,0
5271,note_on,,51,0,1,,,,,,,,,0,,,70,0
5274,note_on,,10,0,2,,,,,,,,,1,,,43,0
5278,note_on,,7,0,1,,,,,,,,,0,,,76,0
5280,note_on,,6,0,2,,,,,,,,,1,,,60,85
5280,note_on,,0,0,2,,,,,,,,,1,,,41,98
5280,note_on,,0,0,1,,,,,,,,,0,,,69,85
5280,note_on,,2,0,1,,,,,,,,,0,,,77,93
5400,note_on,,120,0,2,,,,,,,,,1,,,50,102
5400,note_on,,120,0,1,,,,,,,,,0,,,68,72
5402,note_on,,2,0,2,,,,,,,,,1,,,41,0
5407,note_on,,7,0,1,,,,,,,,,0,,,69,0
5460,note_on,,58,0,2,,,,,,,,,1,,,65,89
5463,note_on,,3,0,2,,,,,,,,,1,,,60,0
5510,note_on,,103,0,1,,,,,,,,,0,,,77,0
5519,note_on,,9,0,1,,,,,,,,,0,,,68,0
5520,note_on,,1,0,1,,,,,,,,,0,,,67,85
5520,note_on,,57,0,2,,,,,,,,,1,,,63,72
5520,note_on,,0,0,2,,,,,,,,,1,,,47,93
5529,note_on,,0,0,2,,,,,,,,,1,,,50,0
5529,note_on,,9,0,2,,,,,,,,,1,,,65,0
5580,note_on,,51,0,2,,,,,,,,,1,,,62,89
5583,note_on,,3,0,2,,,,,,,,,1,,,63,0
5637,note_on,,54,0,2,,,,,,,,,1,,,47,0
5640,note_on,,0,0,2,,,,,,,,,1,,,48,89
5640,note_on,,3,0,2,,,,,,,,,1,,,63,85
5646,note_on,,6,0,2,,,,,,,,,1,,,62,0
5700,note_on,,180,0,1,,,,,,,,,0,,,72,76
5708,note_on,,8,0,1,,,,,,,,,0,,,67,0
5760,note_on,,0,0,1,,,,,,,,,0,,,65,76
5760,note_on,,52,0,1,,,,,,,,,0,,,72,0
5760,note_on,,114,0,2,,,,,,,,,1,,,45,89
5769,note_on,,9,0,2,,,,,,,,,1,,,48,0
5820,note_on,,51,0,2,,,,,,,,,1,,,60,89
5821,note_on,,1,0,2,,,,,,,,,1,,,63,0
5880,note_on,,0,0,2,,,,,,,,,1,,,46,89
5880,note_on,,59,0,2,,,,,,,,,1,,,62,89
5881,note_on,,1,0,2,,,,,,,,,1,,,60,0
5885,note_on,,4,0,2,,,,,,,,,1,,,45,0
5940,note_on,,180,0,1,,,,,,,,,0,,,70,76
5950,note_on,,10,0,1,,,,,,,,,0,,,65,0
6000,note_on,,115,0,2,,,,,,,,,1,,,43,85
6000,note_on,,50,0,1,,,,,,,,,0,,,63,76
6004,note_on,,4,0,2,,,,,,,,,1,,,46,0
6004,note_on,,4,0,1,,,,,,,,,0,,,70,0
6060,note_on,,56,0,2,,,,,,,,,1,,,58,72
6069,note_on,,9,0,2,,,,,,,,,1,,,62,0
6120,note_on,,0,0,2,,,,,,,,,1,,,45,93
6120,note_on,,51,0,2,,,,,,,,,1,,,60,80
6122,note_on,,2,0,2,,,,,,,,,1,,,58,0
6124,note_on,,2,0,2,,,,,,,,,1,,,43,0
6180,note_on,,56,0,2,,,,,,,,,1,,,58,72
6180,note_on,,0,0,2,,,,,,,,,1,,,43,89
6181,note_on,,1,0,2,,,,,,,,,1,,,45,0
6186,note_on,,5,0,2,,,,,,,,,1,,,60,0
6240,note_on,,0,0,2,,,,,,,,,1,,,41,93
6240,note_on,,54,0,2,,,,,,,,,1,,,57,85
6245,note_on,,5,0,2,,,,,,,,,1,,,58,0
6245,note_on,,0,0,2,,,,,,,,,1,,,43,0
6350,note_on,,346,0,1,,,,,,,,,0,,,63,0
6360,note_on,,115,0,2,,,,,,,,,1,,,58,76
6360,note_on,,0,0,2,,,,,,,,,1,,,46,89
6360,note_on,,10,0,1,,,,,,,,,0,,,62,89
6365,note_on,,5,0,2,,,,,,,,,1,,,41,0
6367,note_on,,2,0,2,,,,,,,,,1,,,57,0
6480,note_on,,113,0,2,,,,,,,,,1,,,53,98
6480,note_on,,120,0,1,,,,,,,,,0,,,77,89
6480,note_on,,0,0,1,,,,,,,,,0,,,60,89
6482,note_on,,2,0,2,,,,,,,,,1,,,46,0
6485,note_on,,5,0,1,,,,,,,,,0,,,62,0
6587,note_on,,105,0,2,,,,,,,,,1,,,58,0
6600,note_on,,13,0,2,,,,,,,,,1,,,57,93
6720,note_on,,0,0,1,,,,,,,,,0,,,62,93
6720,note_on,,0,0,1,,,,,,,,,0,,,74,85
6720,note_on,,235,0,1,,,,,,,,,0,,,60,0
6720,note_on,,120,0,2,,,,,,,,,1,,,58,76
6722,note_on,,2,0,1,,,,,,,,,0,,,77,0
6723,note_on,,3,0,2,,,,,,,,,1,,,57,0
6732,note_on,,9,0,2,,,,,,,,,1,,,53,0
6780,note_on,,48,0,2,,,,,,,,,1,,,53,72
6786,note_on,,6,0,2,,,,,,,,,1,,,58,0
6840,note_on,,54,0,2,,,,,,,,,1,,,58,72
6846,note_on,,6,0,2,,,,,,,,,1,,,53,0
6898,note_on,,176,0,1,,,,,,,,,0,,,74,0
6900,note_on,,2,0,1,,,,,,,,,0,,,72,72
6900,note_on,,0,0,1,,,,,,,,,0,,,63,68
6906,note_on,,6,0,1,,,,,,,,,0,,,62,0
6930,note_on,,0,0,1,,,,,,,,,0,,,62,64
6930,note_on,,24,0,1,,,,,,,,,0,,,70,56
6931,note_on,,1,0,1,,,,,,,,,0,,,63,0
6933,note_on,,2,0,1,,,,,,,,,0,,,72,0
6957,note_on,,111,0,2,,,,,,,,,1,,,58,0
6958,note_on,,25,0,1,,,,,,,,,0,,,70,0
6960,note_on,,3,0,2,,,,,,,,,1,,,60,89
6960,note_on,,2,0,1,,,,,,,,,0,,,69,80
6960,note_on,,0,0,1,,,,,,,,,0,,,63,72
6962,note_on,,2,0,1,,,,,,,,,0,,,62,0
7019,note_on,,57,0,1,,,,,,,,,0,,,69,0
7020,note_on,,1,0,1,,,,,,,,,0,,,70,80
7080,note_on,,60,0,1,,,,,,,,,0,,,72,85
7083,note_on,,3,0,1,,,,,,,,,0,,,70,0
7140,note_on,,57,0,1,,,,,,,,,0,,,62,68
7140,note_on,,180,0,2,,,,,,,,,1,,,58,76
7141,note_on,,1,0,1,,,,,,,,,0,,,63,0
7146,note_on,,6,0,2,,,,,,,,,1,,,60,0
7200,note_on,,54,0,2,,,,,,,,,1,,,57,89
7200,note_on,,59,0,1,,,,,,,,,0,,,60,76
7203,note_on,,3,0,1,,,,,,,,,0,,,62,0
7205,note_on,,5,0,2,,,,,,,,,1,,,58,0
7260,note_on,,57,0,1,,,,,,,,,0,,,79,80
7266,note_on,,6,0,1,,,,,,,,,0,,,72,0
7319,note_on,,53,0,1,,,,,,,,,0,,,79,0
7320,note_on,,1,0,1,,,,,,,,,0,,,77,80
7380,note_on,,60,0,1,,,,,,,,,0,,,75,64
7389,note_on,,9,0,1,,,,,,,,,0,,,77,0
7440,note_on,,0,0,2,,,,,,,,,1,,,46,119
7440,note_on,,235,0,2,,,,,,,,,1,,,58,89
7440,note_on,,51,0,1,,,,,,,,,0,,,74,89
7440,note_on,,0,0,1,,,,,,,,,0,,,62,89
7442,note_on,,2,0,1,,,,,,,,,0,,,75,0
7443,note_on,,1,0,1,,,,,,,,,0,,,60,0
7445,note_on,,5,0,2,,,,,,,,,1,,,57,0
7498,note_on,,55,0,1,,,,,,,,,0,,,74,0
7500,note_on,,2,0,1,,,,,,,,,0,,,70,76
7558,note_on,,58,0,1,,,,,,,,,0,,,62,0
7560,note_on,,2,0,1,,,,,,,,,0,,,72,85
7560,note_on,,0,0,1,,,,,,,,,0,,,63,72
7561,note_on,,1,0,1,,,,,,,,,0,,,70,0
7619,note_on,,58,0,1,,,,,,,,,0,,,63,0
7620,note_on,,0,0,1,,,,,,,,,0,,,65,72
7620,note_on,,1,0,1,,,,,,,,,0,,,74,76
7623,note_on,,3,0,1,,,,,,,,,0,,,72,0
7678,note_on,,233,0,2,,,,,,,,,1,,,46,0
7679,note_on,,56,0,1,,,,,,,,,0,,,65,0
7680,note_on,,1,0,1,,,,,,,,,0,,,75,72
7680,note_on,,0,0,1,,,,,,,,,0,,,67,89
7680,note_on,,2,0,2,,,,,,,,,1,,,43,93
7683,note_on,,3,0,1,,,,,,,,,0,,,74,0
7740,note_on,,57,0,1,,,,,,,,,0,,,70,76
7743,note_on,,3,0,1,,,,,,,,,0,,,75,0
7800,note_on,,57,0,1,,,,,,,,,0,,,75,80
7803,note_on,,3,0,1,,,,,,,,,0,,,70,0
7851,note_on,,171,0,2,,,,,,,,,1,,,43,0
7857,note_on,,6,0,2,,,,,,,,,1,,,58,0
7860,note_on,,3,0,2,,,,,,,,,1,,,56,89
7860,note_on,,0,0,2,,,,,,,,,1,,,41,93
7890,note_on,,0,0,2,,,,,,,,,1,,,39,102
7890,note_on,,30,0,2,,,,,,,,,1,,,55,93
7895,note_on,,5,0,2,,,,,,,,,1,,,56,0
7900,note_on,,5,0,2,,,,,,,,,1,,,41,0
7917,note_on,,114,0,1,,,,,,,,,0,,,75,0
7919,note_on,,19,0,2,,,,,,,,,1,,,55,0
7920,note_on,,3,0,1,,,,,,,,,0,,,77,89
7920,note_on,,1,0,2,,,,,,,,,1,,,53,72
7920,note_on,,0,0,2,,,,,,,,,1,,,38,89
7927,note_on,,7,0,2,,,,,,,,,1,,,39,0
7942,note_on,,22,0,1,,,,,,,,,0,,,67,0
7980,note_on,,53,0,2,,,,,,,,,1,,,55,89
7980,note_on,,0,0,2,,,,,,,,,1,,,39,85
7983,note_on,,3,0,2,,,,,,,,,1,,,53,0
7984,note_on,,1,0,2,,,,,,,,,1,,,38,0
8036,note_on,,52,0,2,,,,,,,,,1,,,39,0
8040,note_on,,4,0,2,,,,,,,,,1,,,56,85
8040,note_on,,0,0,2,,,,,,,,,1,,,41,89
8045,note_on,,5,0,2,,,,,,,,,1,,,55,0
8100,note_on,,158,0,1,,,,,,,,,0,,,75,80
8102,note_on,,2,0,1,,,,,,,,,0,,,77,0
8151,note_on,,49,0,1,,,,,,,,,0,,,75,0
8160,note_on,,9,0,1,,,,,,,,,0,,,74,80
8220,note_on,,175,0,2,,,,,,,,,1,,,53,72
8220,note_on,,0,0,2,,,,,,,,,1,,,44,89
8220,note_on,,60,0,1,,,,,,,,,0,,,72,76
8222,note_on,,2,0,1,,,,,,,,,0,,,74,0
8226,note_on,,6,0,2,,,,,,,,,1,,,56,0
8234,note_on,,8,0,2,,,,,,,,,1,,,41,0
8280,note_on,,46,0,2,,,,,,,,,1,,,55,85
8280,note_on,,58,0,1,,,,,,,,,0,,,71,93
8280,note_on,,0,0,2,,,,,,,,,1,,,43,89
8283,note_on,,3,0,2,,,,,,,,,1,,,44,0
8285,note_on,,5,0,1,,,,,,,,,0,,,72,0
8285,note_on,,2,0,2,,,,,,,,,1,,,53,0
8336,note_on,,51,0,2,,,,,,,,,1,,,43,0
8340,note_on,,4,0,2,,,,,,,,,1,,,56,76
8340,note_on,,0,0,2,,,,,,,,,1,,,41,93
8348,note_on,,8,0,2,,,,,,,,,1,,,55,0
8398,note_on,,50,0,2,,,,,,,,,1,,,41,0
8400,note_on,,115,0,1,,,,,,,,,0,,,72,89
8400,note_on,,0,0,1,,,,,,,,,0,,,67,93
8400,note_on,,2,0,2,,,,,,,,,1,,,55,89
8400,note_on,,0,0,2,,,,,,,,,1,,,39,85
8405,note_on,,5,0,1,,,,,,,,,0,,,71,0
8406,note_on,,6,0,2,,,,,,,,,1,,,56,0
8458,note_on,,52,0,2,,,,,,,,,1,,,55,0
8460,note_on,,2,0,2,,,,,,,,,1,,,53,76
8460,note_on,,0,0,2,,,,,,,,,1,,,38,93
8468,note_on,,8,0,2,,,,,,,,,1,,,39,0
8520,note_on,,0,0,2,,,,,,,,,1,,,36,93
8520,note_on,,52,0,2,,,,,,,,,1,,,51,85
8522,note_on,,2,0,2,,,,,,,,,1,,,53,0
8523,note_on,,1,0,2,,,,,,,,,1,,,38,0
8579,note_on,,174,0,1,,,,,,,,,0,,,72,0
8580,note_on,,1,0,1,,,,,,,,,0,,,71,89
8630,note_on,,107,0,2,,,,,,,,,1,,,36,0
8640,note_on,,10,0,2,,,,,,,,,1,,,48,93
8640,note_on,,0,0,1,,,,,,,,,0,,,63,93
8640,note_on,,60,0,1,,,,,,,,,0,,,72,89
8644,note_on,,4,0,1,,,,,,,,,0,,,71,0
8647,note_on,,7,0,2,,,,,,,,,1,,,51,0
8654,note_on,,10,0,1,,,,,,,,,0,,,67,0
8700,note_on,,46,0,1,,,,,,,,,0,,,67,85
8701,note_on,,1,0,1,,,,,,,,,0,,,72,0
8760,note_on,,59,0,1,,,,,,,,,0,,,72,93
8764,note_on,,4,0,1,,,,,,,,,0,,,67,0
8812,note_on,,48,0,1,,,,,,,,,0,,,63,0
8820,note_on,,173,0,2,,,,,,,,,1,,,46,89
8820,note_on,,8,0,1,,,,,,,,,0,,,62,85
8827,note_on,,7,0,2,,,,,,,,,1,,,48,0
8850,note_on,,30,0,1,,,,,,,,,0,,,60,62
8850,note_on,,23,0,2,,,,,,,,,1,,,44,93
8851,note_on,,1,0,1,,,,,,,,,0,,,62,0
8855,note_on,,5,0,2,,,,,,,,,1,,,46,0
8880,note_on,,29,0,1,,,,,,,,,0,,,74,93
8880,note_on,,0,0,1,,,,,,,,,0,,,59,93
8880,note_on,,25,0,2,,,,,,,,,1,,,43,102
8882,note_on,,2,0,2,,,,,,,,,1,,,44,0
8882,note_on,,2,0,1,,,,,,,,,0,,,72,0
8886,note_on,,4,0,1,,,,,,,,,0,,,60,0
8939,note_on,,53,0,1,,,,,,,,,0,,,59,0
8940,note_on,,1,0,1,,,,,,,,,0,,,60,76
8998,note_on,,58,0,1,,,,,,,,,0,,,60,0
9000,note_on,,2,0,1,,,,,,,,,0,,,62,89
9059,note_on,,59,0,1,,,,,,,,,0,,,74,0
9060,note_on,,1,0,1,,,,,,,,,0,,,72,85
9118,note_on,,236,0,2,,,,,,,,,1,,,43,0
9120,note_on,,60,0,1,,,,,,,,,0,,,71,85
9120,note_on,,2,0,2,,,,,,,,,1,,,44,98
9127,note_on,,7,0,1,,,,,,,,,0,,,72,0
9180,note_on,,53,0,1,,,,,,,,,0,,,65,89
9184,note_on,,4,0,1,,,,,,,,,0,,,62,0
9240,note_on,,56,0,1,,,,,,,,,0,,,64,89
9246,note_on,,6,0,1,,,,,,,,,0,,,65,0
9300,note_on,,54,0,1,,,,,,,,,0,,,62,89
9305,note_on,,5,0,1,,,,,,,,,0,,,64,0
9360,note_on,,55,0,1,,,,,,,,,0,,,62,0
9360,note_on,,0,0,1,,,,,,,,,0,,,69,93
9360,note_on,,0,0,1,,,,,,,,,0,,,61,76
9360,note_on,,0,0,2,,,,,,,,,1,,,45,93
9360,note_on,,240,0,2,,,,,,,,,1,,,57,93
9362,note_on,,2,0,1,,,,,,,,,0,,,71,0
9370,note_on,,10,0,2,,,,,,,,,1,,,44,0
9420,note_on,,0,0,1,,,,,,,,,0,,,64,89
9420,note_on,,58,0,1,,,,,,,,,0,,,67,89
9421,note_on,,1,0,1,,,,,,,,,0,,,61,0
9425,note_on,,4,0,1,,,,,,,,,0,,,69,0
9480,note_on,,0,0,1,,,,,,,,,0,,,62,76
9480,note_on,,55,0,1,,,,,,,,,0,,,65,76
9481,note_on,,1,0,1,,,,,,,,,0,,,67,0
9485,note_on,,4,0,1,,,,,,,,,0,,,64,0
9535,note_on,,50,0,1,,,,,,,,,0,,,62,0
9537,note_on,,2,0,1,,,,,,,,,0,,,65,0
9540,note_on,,0,0,1,,,,,,,,,0,,,61,72
9540,note_on,,3,0,1,,,,,,,,,0,,,64,76
9599,note_on,,229,0,2,,,,,,,,,1,,,45,0
9600,note_on,,0,0,1,,,,,,,,,0,,,62,89
9600,note_on,,0,0,2,,,,,,,,,1,,,50,102
9600,note_on,,0,0,1,,,,,,,,,0,,,62,85
9600,note_on,,1,0,2,,,,,,,,,1,,,53,93
9600,note_on,,60,0,1,,,,,,,,,0,,,61,0
9601,note_on,,1,0,2,,,,,,,,,1,,,57,0
9603,note_on,,3,0,1,,,,,,,,,0,,,64,0
9720,note_on,,0,0,1,,,,,,,,,0,,,69,102
9720,note_on,,117,0,1,,,,,,,,,0,,,62,0
9780,note_on,,60,0,1,,,,,,,,,0,,,64,76
9780,note_on,,179,0,2,,,,,,,,,1,,,52,85
9781,note_on,,1,0,1,,,,,,,,,0,,,62,0
9781,note_on,,1,0,2,,,,,,,,,1,,,53,0
9806,note_on,,25,0,2,,,,,,,,,1,,,52,0
9807,note_on,,26,0,1,,,,,,,,,0,,,64,0
9810,note_on,,3,0,1,,,,,,,,,0,,,65,80
9810,note_on,,4,0,2,,,,,,,,,1,,,50,80
9837,note_on,,27,0,2,,,,,,,,,1,,,50,0
9840,note_on,,3,0,2,,,,,,,,,1,,,49,93
9840,note_on,,30,0,1,,,,,,,,,0,,,64,85
9840,note_on,,0,0,2,,,,,,,,,1,,,45,93
9841,note_on,,1,0,2,,,,,,,,,1,,,50,0
9844,note_on,,4,0,1,,,,,,,,,0,,,65,0
9900,note_on,,0,0,1,,,,,,,,,0,,,62,76
9900,note_on,,59,0,2,,,,,,,,,1,,,50,89
9900,note_on,,56,0,1,,,,,,,,,0,,,71,93
9901,note_on,,1,0,1,,,,,,,,,0,,,64,0
9904,note_on,,4,0,2,,,,,,,,,1,,,49,0
9905,note_on,,4,0,1,,,,,,,,,0,,,69,0
9957,note_on,,52,0,1,,,,,,,,,0,,,62,0
9958,note_on,,54,0,2,,,,,,,,,1,,,50,0
9960,note_on,,3,0,1,,,,,,,,,0,,,73,76
9960,note_on,,0,0,1,,,,,,,,,0,,,61,80
9960,note_on,,2,0,2,,,,,,,,,1,,,52,93
9962,note_on,,2,0,1,,,,,,,,,0,,,71,0
10018,note_on,,56,0,1,,,,,,,,,0,,,73,0
10020,note_on,,2,0,1,,,,,,,,,0,,,74,76
10077,note_on,,117,0,2,,,,,,,,,1,,,45,0
10080,note_on,,60,0,1,,,,,,,,,0,,,76,93
10080,note_on,,3,0,2,,,,,,,,,1,,,45,102
10083,note_on,,3,0,1,,,,,,,,,0,,,74,0
10135,note_on,,55,0,2,,,,,,,,,1,,,52,0
10140,note_on,,57,0,1,,,,,,,,,0,,,61,0
10140,note_on,,0,0,1,,,,,,,,,0,,,67,93
10140,note_on,,5,0,2,,,,,,,,,1,,,58,89
10200,note_on,,60,0,2,,,,,,,,,1,,,57,93
10200,note_on,,60,0,1,,,,,,,,,0,,,73,89
10200,note_on,,0,0,1,,,,,,,,,0,,,65,80
10203,note_on,,3,0,1,,,,,,,,,0,,,76,0
10203,note_on,,3,0,2,,,,,,,,,1,,,58,0
10205,note_on,,2,0,1,,,,,,,,,0,,,67,0
10260,note_on,,57,0,2,,,,,,,,,1,,,57,0
10260,note_on,,55,0,1,,,,,,,,,0,,,64,76
10260,note_on,,0,0,2,,,,,,,,,1,,,55,89
10270,note_on,,10,0,1,,,,,,,,,0,,,65,0
10305,note_on,,35,0,1,,,,,,,,,0,,,64,0
10314,note_on,,54,0,2,,,,,,,,,1,,,45,0
10320,note_on,,15,0,1,,,,,,,,,0,,,74,80
10320,note_on,,0,0,1,,,,,,,,,0,,,62,89
10320,note_on,,0,0,2,,,,,,,,,1,,,38,89
10320,note_on,,6,0,2,,,,,,,,,1,,,53,89
10321,note_on,,1,0,1,,,,,,,,,0,,,73,0
10324,note_on,,4,0,2,,,,,,,,,1,,,55,0
10368,note_on,,47,0,1,,,,,,,,,0,,,62,0
10380,note_on,,12,0,1,,,,,,,,,0,,,57,72
10436,note_on,,56,0,1,,,,,,,,,0,,,57,0
10440,note_on,,116,0,2,,,,,,,,,1,,,50,102
10440,note_on,,4,0,1,,,,,,,,,0,,,65,89
10442,note_on,,2,0,2,,,,,,,,,1,,,38,0
10455,note_on,,13,0,2,,,,,,,,,1,,,53,0
10500,note_on,,45,0,2,,,,,,,,,1,,,57,93
10557,note_on,,57,0,2,,,,,,,,,1,,,57,0
10560,note_on,,3,0,2,,,,,,,,,1,,,59,89
10560,note_on,,0,0,2,,,,,,,,,1,,,43,89
10565,note_on,,5,0,2,,,,,,,,,1,,,50,0
10574,note_on,,134,0,1,,,,,,,,,0,,,74,0
10620,note_on,,46,0,1,,,,,,,,,0,,,62,85
10621,note_on,,1,0,1,,,,,,,,,0,,,65,0
10676,note_on,,111,0,2,,,,,,,,,1,,,43,0
10680,note_on,,4,0,2,,,,,,,,,1,,,58,85
10680,note_on,,0,0,2,,,,,,,,,1,,,48,93
10680,note_on,,59,0,1,,,,,,,,,0,,,63,76
10686,note_on,,6,0,2,,,,,,,,,1,,,59,0
10688,note_on,,8,0,1,,,,,,,,,0,,,62,0
10737,note_on,,51,0,2,,,,,,,,,1,,,58,0
10740,note_on,,3,0,2,,,,,,,,,1,,,55,89
10800,note_on,,0,0,2,,,,,,,,,1,,,41,93
10800,note_on,,60,0,2,,,,,,,,,1,,,56,93
10801,note_on,,1,0,2,,,,,,,,,1,,,55,0
10805,note_on,,4,0,2,,,,,,,,,1,,,48,0
10918,note_on,,230,0,1,,,,,,,,,0,,,63,0
10920,note_on,,2,0,1,,,,,,,,,0,,,62,89
10980,note_on,,60,0,1,,,,,,,,,0,,,60,76
10983,note_on,,3,0,1,,,,,,,,,0,,,62,0
11037,note_on,,54,0,1,,,,,,,,,0,,,60,0
11040,note_on,,3,0,1,,,,,,,,,0,,,59,89
11040,note_on,,235,0,2,,,,,,,,,1,,,55,89
11040,note_on,,0,0,2,,,,,,,,,1,,,43,93
11041,note_on,,1,0,2,,,,,,,,,1,,,56,0
11041,note_on,,0,0,2,,,,,,,,,1,,,41,0
11094,note_on,,54,0,1,,,,,,,,,0,,,59,0
11100,note_on,,6,0,1,,,,,,,,,0,,,60,76
11100,note_on,,59,0,2,,,,,,,,,1,,,57,93
11103,note_on,,3,0,2,,,,,,,,,1,,,55,0
11160,note_on,,57,0,2,,,,,,,,,1,,,59,89
11160,note_on,,60,0,1,,,,,,,,,0,,,62,93
11162,note_on,,2,0,1,,,,,,,,,0,,,60,0
11163,note_on,,3,0,2,,,,,,,,,1,,,57,0
11220,note_on,,0,0,2,,,,,,,,,1,,,41,93
11220,note_on,,57,0,2,,,,,,,,,1,,,43,0
11278,note_on,,58,0,2,,,,,,,,,1,,,59,0
11280,note_on,,2,0,2,,,,,,,,,1,,,60,89
11280,note_on,,0,0,2,,,,,,,,,1,,,39,89
11280,note_on,,118,0,1,,,,,,,,,0,,,63,85
11282,note_on,,2,0,2,,,,,,,,,1,,,41,0
11282,note_on,,2,0,1,,,,,,,,,0,,,62,0
11336,note_on,,54,0,1,,,,,,,,,0,,,63,0
11340,note_on,,4,0,1,,,,,,,,,0,,,65,85
11340,note_on,,58,0,2,,,,,,,,,1,,,62,93
11341,note_on,,1,0,2,,,,,,,,,1,,,60,0
11400,note_on,,0,0,1,,,,,,,,,0,,,67,98
11400,note_on,,60,0,1,,,,,,,,,0,,,65,0
11400,note_on,,59,0,2,,,,,,,,,1,,,63,85
11404,note_on,,4,0,2,,,,,,,,,1,,,62,0
11458,note_on,,54,0,2,,,,,,,,,1,,,39,0
11460,note_on,,2,0,2,,,,,,,,,1,,,38,93
11516,note_on,,56,0,2,,,,,,,,,1,,,63,0
11520,note_on,,4,0,2,,,,,,,,,1,,,64,93
11520,note_on,,0,0,2,,,,,,,,,1,,,36,93
11520,note_on,,120,0,1,,,,,,,,,0,,,72,93
11530,note_on,,10,0,2,,,,,,,,,1,,,38,0
11580,note_on,,50,0,2,,,,,,,,,1,,,55,89
11580,note_on,,60,0,1,,,,,,,,,0,,,70,80
11581,note_on,,1,0,1,,,,,,,,,0,,,67,0
11583,note_on,,3,0,2,,,,,,,,,1,,,64,0
11634,note_on,,51,0,2,,,,,,,,,1,,,55,0
11640,note_on,,59,0,1,,,,,,,,,0,,,68,76
11640,note_on,,6,0,2,,,,,,,,,1,,,53,62
11651,note_on,,11,0,1,,,,,,,,,0,,,70,0
11700,note_on,,49,0,1,,,,,,,,,0,,,67,85
11700,note_on,,60,0,2,,,,,,,,,1,,,52,85
11704,note_on,,4,0,2,,,,,,,,,1,,,53,0
11705,note_on,,5,0,1,,,,,,,,,0,,,68,0
11756,note_on,,52,0,2,,,,,,,,,1,,,36,0
11758,note_on,,2,0,2,,,,,,,,,1,,,52,0
11759,note_on,,54,0,1,,,,,,,,,0,,,72,0
11760,note_on,,0,0,2,,,,,,,,,1,,,41,93
11760,note_on,,1,0,1,,,,,,,,,0,,,68,89
11760,note_on,,2,0,2,,,,,,,,,1,,,53,89
11760,note_on,,0,0,1,,,,,,,,,0,,,65,89
11761,note_on,,1,0,1,,,,,,,,,0,,,67,0
11820,note_on,,60,0,2,,,,,,,,,1,,,55,89
11821,note_on,,1,0,2,,,,,,,,,1,,,53,0
11878,note_on,,117,0,1,,,,,,,,,0,,,65,0
11880,note_on,,2,0,1,,,,,,,,,0,,,60,76
11880,note_on,,59,0,2,,,,,,,,,1,,,56,89
11887,note_on,,7,0,2,,,,,,,,,1,,,55,0
11930,note_on,,50,0,1,,,,,,,,,0,,,68,0
11940,note_on,,10,0,1,,,,,,,,,0,,,67,76
11967,note_on,,27,0,1,,,,,,,,,0,,,67,0
11970,note_on,,3,0,1,,,,,,,,,0,,,65,80
11978,note_on,,8,0,1,,,,,,,,,0,,,60,0
12000,note_on,,113,0,2,,,,,,,,,1,,,55,89
12000,note_on,,0,0,2,,,,,,,,,1,,,48,89
12000,note_on,,22,0,1,,,,,,,,,0,,,64,93
12000,note_on,,0,0,1,,,,,,,,,0,,,60,89
12002,note_on,,2,0,2,,,,,,,,,1,,,41,0
12003,note_on,,3,0,1,,,,,,,,,0,,,65,0
12012,note_on,,10,0,2,,,,,,,,,1,,,56,0
12052,note_on,,49,0,1,,,,,,,,,0,,,64,0
12057,note_on,,45,0,2,,,,,,,,,1,,,55,0
12060,note_on,,8,0,1,,,,,,,,,0,,,65,72
12060,note_on,,3,0,2,,,,,,,,,1,,,53,85
12118,note_on,,58,0,1,,,,,,,,,0,,,65,0
12120,note_on,,2,0,1,,,,,,,,,0,,,67,93
12120,note_on,,60,0,2,,,,,,,,,1,,,52,89
12124,note_on,,4,0,2,,,,,,,,,1,,,53,0
12180,note_on,,56,0,2,,,,,,,,,1,,,49,89
12181,note_on,,1,0,2,,,,,,,,,1,,,48,0
12240,note_on,,59,0,2,,,,,,,,,1,,,46,98
12250,note_on,,10,0,2,,,,,,,,,1,,,49,0
12250,note_on,,130,0,1,,,,,,,,,0,,,60,0
12300,note_on,,50,0,1,,,,,,,,,0,,,73,80
12308,note_on,,8,0,1,,,,,,,,,0,,,67,0
12360,note_on,,0,0,2,,,,,,,,,1,,,44,85
12360,note_on,,110,0,2,,,,,,,,,1,,,53,89
12360,note_on,,52,0,1,,,,,,,,,0,,,72,89
12361,note_on,,1,0,2,,,,,,,,,1,,,46,0
12365,note_on,,5,0,1,,,,,,,,,0,,,73,0
12367,note_on,,6,0,2,,,,,,,,,1,,,52,0
12419,note_on,,52,0,2,,,,,,,,,1,,,44,0
12420,note_on,,1,0,2,,,,,,,,,1,,,55,93
12420,note_on,,0,0,2,,,,,,,,,1,,,43,85
12420,note_on,,55,0,1,,,,,,,,,0,,,70,76
12425,note_on,,5,0,2,,,,,,,,,1,,,53,0
12425,note_on,,5,0,1,,,,,,,,,0,,,72,0
12478,note_on,,53,0,2,,,,,,,,,1,,,55,0
12480,note_on,,2,0,2,,,,,,,,,1,,,60,98
12480,note_on,,0,0,2,,,,,,,,,1,,,41,89
12480,note_on,,55,0,1,,,,,,,,,0,,,68,72
12484,note_on,,4,0,1,,,,,,,,,0,,,70,0
12486,note_on,,6,0,2,,,,,,,,,1,,,43,0
12540,note_on,,0,0,1,,,,,,,,,0,,,72,85
12540,note_on,,56,0,1,,,,,,,,,0,,,68,0
12600,note_on,,60,0,1,,,,,,,,,0,,,68,80
12608,note_on,,8,0,1,,,,,,,,,0,,,72,0
12659,note_on,,173,0,2,,,,,,,,,1,,,41,0
12659,note_on,,51,0,1,,,,,,,,,0,,,68,0
12660,note_on,,1,0,1,,,,,,,,,0,,,67,80
12660,note_on,,1,0,2,,,,,,,,,1,,,39,85
12719,note_on,,59,0,1,,,,,,,,,0,,,67,0
12720,note_on,,1,0,1,,,,,,,,,0,,,66,76
12720,note_on,,60,0,2,,,,,,,,,1,,,38,93
12728,note_on,,8,0,2,,,,,,,,,1,,,39,0
12779,note_on,,59,0,1,,,,,,,,,0,,,66,0
12780,note_on,,1,0,1,,,,,,,,,0,,,75,76
12838,note_on,,58,0,1,,,,,,,,,0,,,75,0
12840,note_on,,112,0,2,,,,,,,,,1,,,58,89
12840,note_on,,2,0,1,,,,,,,,,0,,,74,85
12843,note_on,,3,0,2,,,,,,,,,1,,,60,0
12900,note_on,,57,0,2,,,,,,,,,1,,,57,93
12900,note_on,,60,0,1,,,,,,,,,0,,,74,0
12900,note_on,,0,0,1,,,,,,,,,0,,,72,76
12910,note_on,,10,0,2,,,,,,,,,1,,,58,0
12953,note_on,,43,0,2,,,,,,,,,1,,,38,0
12960,note_on,,7,0,2,,,,,,,,,1,,,57,0
12960,note_on,,60,0,1,,,,,,,,,0,,,70,76
12960,note_on,,0,0,2,,,,,,,,,1,,,55,89
12960,note_on,,0,0,2,,,,,,,,,1,,,43,93
12966,note_on,,6,0,1,,,,,,,,,0,,,72,0
13019,note_on,,53,0,1,,,,,,,,,0,,,70,0
13020,note_on,,1,0,1,,,,,,,,,0,,,74,76
13020,note_on,,60,0,2,,,,,,,,,1,,,58,80
13025,note_on,,5,0,2,,,,,,,,,1,,,55,0
13080,note_on,,60,0,1,,,,,,,,,0,,,70,68
13080,note_on,,55,0,2,,,,,,,,,1,,,62,98
13086,note_on,,6,0,2,,,,,,,,,1,,,58,0
13087,note_on,,7,0,1,,,,,,,,,0,,,74,0
13139,note_on,,52,0,1,,,,,,,,,0,,,70,0
13140,note_on,,1,0,1,,,,,,,,,0,,,69,72
13140,note_on,,54,0,2,,,,,,,,,1,,,41,85
13149,note_on,,9,0,2,,,,,,,,,1,,,43,0
13200,note_on,,51,0,2,,,,,,,,,1,,,40,89
13200,note_on,,60,0,1,,,,,,,,,0,,,68,76
13203,note_on,,3,0,2,,,,,,,,,1,,,41,0
13203,note_on,,3,0,1,,,,,,,,,0,,,69,0
13256,note_on,,53,0,1,,,,,,,,,0,,,68,0
13260,note_on,,4,0,1,,,,,,,,,0,,,77,72
13319,note_on,,59,0,1,,,,,,,,,0,,,77,0
13320,note_on,,1,0,1,,,,,,,,,0,,,76,89
13320,note_on,,117,0,2,,,,,,,,,1,,,60,89
13328,note_on,,8,0,2,,,,,,,,,1,,,62,0
13380,note_on,,52,0,2,,,,,,,,,1,,,59,85
13380,note_on,,60,0,1,,,,,,,,,0,,,74,85
13381,note_on,,1,0,1,,,,,,,,,0,,,76,0
13384,note_on,,4,0,2,,,,,,,,,1,,,60,0
13412,note_on,,28,0,2,,,,,,,,,1,,,40,0
13440,note_on,,28,0,2,,,,,,,,,1,,,57,93
13440,note_on,,0,0,2,,,,,,,,,1,,,45,98
13440,note_on,,0,0,1,,,,,,,,,0,,,69,98
13440,note_on,,59,0,1,,,,,,,,,0,,,73,80
13445,note_on,,5,0,1,,,,,,,,,0,,,74,0
13447,note_on,,7,0,2,,,,,,,,,1,,,59,0
13475,note_on,,28,0,2,,,,,,,,,1,,,45,0
13500,note_on,,25,0,2,,,,,,,,,1,,,45,93
13555,note_on,,110,0,1,,,,,,,,,0,,,73,0
13560,note_on,,60,0,2,,,,,,,,,1,,,47,98
13560,note_on,,5,0,1,,,,,,,,,0,,,69,93
13568,note_on,,8,0,2,,,,,,,,,1,,,45,0
13618,note_on,,50,0,2,,,,,,,,,1,,,47,0
13620,note_on,,2,0,2,,,,,,,,,1,,,49,89
13674,note_on,,114,0,1,,,,,,,,,0,,,69,0
13679,note_on,,5,0,1,,,,,,,,,0,,,69,0
13680,note_on,,60,0,2,,,,,,,,,1,,,49,0
13680,note_on,,0,0,2,,,,,,,,,1,,,50,93
13680,note_on,,1,0,1,,,,,,,,,0,,,65,89
13683,note_on,,3,0,2,,,,,,,,,1,,,57,0
13740,note_on,,60,0,1,,,,,,,,,0,,,74,89
13800,note_on,,60,0,1,,,,,,,,,0,,,76,89
13803,note_on,,3,0,1,,,,,,,,,0,,,74,0
13860,note_on,,0,0,1,,,,,,,,,0,,,77,93
13860,note_on,,57,0,1,,,,,,,,,0,,,65,0
13860,note_on,,0,0,1,,,,,,,,,0,,,64,85
13861,note_on,,1,0,1,,,,,,,,,0,,,76,0
13887,note_on,,26,0,1,,,,,,,,,0,,,64,0
13890,note_on,,3,0,1,,,,,,,,,0,,,62,85
13912,note_on,,229,0,2,,,,,,,,,1,,,50,0
13920,note_on,,0,0,1,,,,,,,,,0,,,61,85
13920,note_on,,8,0,2,,,,,,,,,1,,,52,98
13920,note_on,,30,0,1,,,,,,,,,0,,,79,89
13923,note_on,,0,0,1,,,,,,,,,0,,,77,0
13923,note_on,,3,0,1,,,,,,,,,0,,,62,0
13975,note_on,,52,0,1,,,,,,,,,0,,,61,0
13980,note_on,,5,0,1,,,,,,,,,0,,,62,85
14033,note_on,,53,0,1,,,,,,,,,0,,,62,0
14040,note_on,,7,0,1,,,,,,,,,0,,,64,89
14099,note_on,,179,0,2,,,,,,,,,1,,,52,0
14100,note_on,,1,0,2,,,,,,,,,1,,,50,89
14100,note_on,,60,0,1,,,,,,,,,0,,,77,89
14105,note_on,,5,0,1,,,,,,,,,0,,,79,0
14160,note_on,,60,0,2,,,,,,,,,1,,,49,102
14160,note_on,,55,0,1,,,,,,,,,0,,,76,89
14166,note_on,,6,0,2,,,,,,,,,1,,,50,0
14173,note_on,,13,0,1,,,,,,,,,0,,,77,0
14220,note_on,,47,0,1,,,,,,,,,0,,,70,76
14225,note_on,,5,0,1,,,,,,,,,0,,,64,0
14280,note_on,,55,0,1,,,,,,,,,0,,,70,0
14280,note_on,,0,0,1,,,,,,,,,0,,,69,89
14335,note_on,,55,0,1,,,,,,,,,0,,,69,0
14340,note_on,,5,0,1,,,,,,,,,0,,,67,89
14398,note_on,,232,0,2,,,,,,,,,1,,,49,0
14399,note_on,,59,0,1,,,,,,,,,0,,,67,0
14400,note_on,,1,0,1,,,,,,,,,0,,,69,89
14400,note_on,,0,0,1,,,,,,,,,0,,,66,89
14400,note_on,,2,0,2,,,,,,,,,1,,,62,102
14400,note_on,,0,0,2,,,,,,,,,1,,,50,93
14401,note_on,,1,0,1,,,,,,,,,0,,,76,0
14514,note_on,,113,0,1,,,,,,,,,0,,,69,0
14520,note_on,,6,0,1,,,,,,,,,0,,,74,85
14578,note_on,,58,0,1,,,,,,,,,0,,,66,0
14580,note_on,,2,0,1,,,,,,,,,0,,,64,93
14610,note_on,,30,0,1,,,,,,,,,0,,,66,80
14611,note_on,,1,0,1,,,,,,,,,0,,,64,0
14636,note_on,,236,0,2,,,,,,,,,1,,,62,0
14640,note_on,,0,0,1,,,,,,,,,0,,,67,89
14640,note_on,,29,0,1,,,,,,,,,0,,,66,0
14640,note_on,,4,0,2,,,,,,,,,1,,,58,85
14654,note_on,,14,0,2,,,,,,,,,1,,,50,0
14700,note_on,,60,0,1,,,,,,,,,0,,,70,85
14717,note_on,,17,0,1,,,,,,,,,0,,,74,0
14728,note_on,,11,0,1,,,,,,,,,0,,,70,0
14730,note_on,,2,0,1,,,,,,,,,0,,,69,76
14755,note_on,,25,0,1,,,,,,,,,0,,,69,0
14760,note_on,,0,0,1,,,,,,,,,0,,,62,93
14760,note_on,,5,0,1,,,,,,,,,0,,,67,80
14765,note_on,,5,0,1,,,,,,,,,0,,,67,0
14820,note_on,,55,0,1,,,,,,,,,0,,,69,85
14820,note_on,,166,0,2,,,,,,,,,1,,,57,89
14826,note_on,,6,0,1,,,,,,,,,0,,,67,0
14828,note_on,,8,0,2,,,,,,,,,1,,,58,0
14848,note_on,,22,0,1,,,,,,,,,0,,,69,0
14849,note_on,,21,0,2,,,,,,,,,1,,,57,0
14850,note_on,,2,0,1,,,,,,,,,0,,,70,76
14850,note_on,,1,0,2,,,,,,,,,1,,,55,76
14873,note_on,,23,0,1,,,,,,,,,0,,,70,0
14880,note_on,,30,0,2,,,,,,,,,1,,,54,89
14880,note_on,,7,0,1,,,,,,,,,0,,,72,80
14884,note_on,,4,0,2,,,,,,,,,1,,,55,0
14936,note_on,,52,0,2,,,,,,,,,1,,,54,0
14940,note_on,,4,0,2,,,,,,,,,1,,,55,89
14940,note_on,,60,0,1,,,,,,,,,0,,,70,76
14946,note_on,,6,0,1,,,,,,,,,0,,,72,0
14994,note_on,,54,0,2,,,,,,,,,1,,,55,0
14995,note_on,,49,0,1,,,,,,,,,0,,,62,0
15000,note_on,,6,0,2,,,,,,,,,1,,,57,98
15000,note_on,,5,0,1,,,,,,,,,0,,,69,93
15000,note_on,,0,0,1,,,,,,,,,0,,,60,89
15010,note_on,,10,0,1,,,,,,,,,0,,,70,0
15059,note_on,,49,0,1,,,,,,,,,0,,,69,0
15060,note_on,,1,0,1,,,,,,,,,0,,,67,80
15113,note_on,,53,0,1,,,,,,,,,0,,,67,0
15120,note_on,,7,0,1,,,,,,,,,0,,,66,80
15151,note_on,,31,0,1,,,,,,,,,0,,,60,0
15180,note_on,,180,0,2,,,,,,,,,1,,,57,0
15180,note_on,,29,0,1,,,,,,,,,0,,,72,85
15180,note_on,,0,0,1,,,,,,,,,0,,,66,98
15180,note_on,,0,0,2,,,,,,,,,1,,,63,93
15185,note_on,,5,0,1,,,,,,,,,0,,,66,0
15239,note_on,,59,0,2,,,,,,,,,1,,,63,0
15240,note_on,,1,0,2,,,,,,,,,1,,,62,89
15240,note_on,,55,0,1,,,,,,,,,0,,,74,80
15243,note_on,,3,0,1,,,,,,,,,0,,,72,0
15286,note_on,,43,0,1,,,,,,,,,0,,,66,0
15296,note_on,,10,0,1,,,,,,,,,0,,,74,0
15300,note_on,,60,0,2,,,,,,,,,1,,,60,80
15300,note_on,,4,0,1,,,,,,,,,0,,,75,76
15300,note_on,,0,0,1,,,,,,,,,0,,,66,76
15302,note_on,,2,0,2,,,,,,,,,1,,,62,0
15345,note_on,,45,0,1,,,,,,,,,0,,,66,0
15360,note_on,,0,0,1,,,,,,,,,0,,,67,93
15360,note_on,,0,0,2,,,,,,,,,1,,,55,102
15360,note_on,,15,0,1,,,,,,,,,0,,,74,89
15360,note_on,,58,0,2,,,,,,,,,1,,,58,89
15364,note_on,,4,0,2,,,,,,,,,1,,,60,0
15365,note_on,,5,0,1,,,,,,,,,0,,,75,0
15476,note_on,,111,0,1,,,,,,,,,0,,,74,0
15480,note_on,,4,0,1,,,,,,,,,0,,,79,76
15540,note_on,,60,0,1,,,,,,,,,0,,,63,64
15543,note_on,,3,0,1,,,,,,,,,0,,,67,0
15567,note_on,,24,0,1,,,,,,,,,0,,,63,0
15570,note_on,,3,0,1,,,,,,,,,0,,,62,93
15597,note_on,,27,0,1,,,,,,,,,0,,,62,0
15599,note_on,,235,0,2,,,,,,,,,1,,,58,0
15600,note_on,,1,0,2,,,,,,,,,1,,,55,93
15600,note_on,,0,0,2,,,,,,,,,1,,,51,93
15600,note_on,,3,0,1,,,,,,,,,0,,,60,89
15604,note_on,,4,0,2,,,,,,,,,1,,,55,0
15660,note_on,,60,0,1,,,,,,,,,0,,,75,76
15662,note_on,,2,0,1,,,,,,,,,0,,,79,0
15690,note_on,,0,0,1,,,,,,,,,0,,,74,80
15690,note_on,,28,0,1,,,,,,,,,0,,,75,0
15716,note_on,,26,0,1,,,,,,,,,0,,,74,0
15720,note_on,,4,0,1,,,,,,,,,0,,,72,80
15773,note_on,,53,0,1,,,,,,,,,0,,,60,0
15780,note_on,,176,0,2,,,,,,,,,1,,,50,93
15780,note_on,,7,0,1,,,,,,,,,0,,,62,89
15783,note_on,,3,0,2,,,,,,,,,1,,,51,0
15810,note_on,,27,0,2,,,,,,,,,1,,,48,72
15810,note_on,,30,0,1,,,,,,,,,0,,,63,72
15811,note_on,,1,0,1,,,,,,,,,0,,,62,0
15814,note_on,,4,0,2,,,,,,,,,1,,,50,0
15835,note_on,,24,0,1,,,,,,,,,0,,,63,0
15837,note_on,,2,0,1,,,,,,,,,0,,,72,0
15840,note_on,,26,0,2,,,,,,,,,1,,,47,107
15840,note_on,,3,0,1,,,,,,,,,0,,,74,89
15840,note_on,,0,0,1,,,,,,,,,0,,,65,89
15849,note_on,,9,0,2,,,,,,,,,1,,,48,0
15894,note_on,,45,0,2,,,,,,,,,1,,,47,0
15900,note_on,,0,0,2,,,,,,,,,1,,,48,93
15900,note_on,,6,0,2,,,,,,,,,1,,,56,89
15921,note_on,,21,0,2,,,,,,,,,1,,,55,0
15953,note_on,,32,0,2,,,,,,,,,1,,,56,0
15956,note_on,,3,0,2,,,,,,,,,1,,,48,0
15960,note_on,,0,0,2,,,,,,,,,1,,,50,93
15960,note_on,,4,0,2,,,,,,,,,1,,,53,85
16020,note_on,,180,0,1,,,,,,,,,0,,,72,85
16020,note_on,,0,0,1,,,,,,,,,0,,,63,85
16029,note_on,,9,0,1,,,,,,,,,0,,,74,0
16035,note_on,,6,0,1,,,,,,,,,0,,,65,0
16078,note_on,,43,0,1,,,,,,,,,0,,,63,0
16080,note_on,,2,0,1,,,,,,,,,0,,,71,89
16080,note_on,,0,0,1,,,,,,,,,0,,,62,93
16087,note_on,,7,0,1,,,,,,,,,0,,,72,0
16088,note_on,,128,0,2,,,,,,,,,1,,,53,0
16136,note_on,,49,0,1,,,,,,,,,0,,,62,0
16137,note_on,,49,0,2,,,,,,,,,1,,,50,0
16140,note_on,,4,0,1,,,,,,,,,0,,,65,85
16140,note_on,,3,0,2,,,,,,,,,1,,,62,102
16140,note_on,,0,0,2,,,,,,,,,1,,,56,98
16199,note_on,,59,0,1,,,,,,,,,0,,,65,0
16200,note_on,,1,0,1,,,,,,,,,0,,,67,89
16200,note_on,,60,0,2,,,,,,,,,1,,,55,93
16210,note_on,,10,0,2,,,,,,,,,1,,,56,0
16238,note_on,,28,0,2,,,,,,,,,1,,,62,0
16260,note_on,,60,0,1,,,,,,,,,0,,,68,85
16260,note_on,,22,0,2,,,,,,,,,1,,,62,80
16260,note_on,,0,0,2,,,,,,,,,1,,,53,89
16264,note_on,,4,0,1,,,,,,,,,0,,,67,0
16269,note_on,,9,0,2,,,,,,,,,1,,,55,0
16304,note_on,,35,0,2,,,,,,,,,1,,,62,0
16320,note_on,,56,0,1,,,,,,,,,0,,,72,80
16320,note_on,,0,0,1,,,,,,,,,0,,,67,93
16320,note_on,,0,0,2,,,,,,,,,1,,,51,98
16320,note_on,,16,0,2,,,,,,,,,1,,,63,98
16322,note_on,,2,0,1,,,,,,,,,0,,,71,0
16323,note_on,,3,0,2,,,,,,,,,1,,,53,0
16329,note_on,,7,0,1,,,,,,,,,0,,,68,0
16379,note_on,,50,0,1,,,,,,,,,0,,,72,0
16380,note_on,,1,0,1,,,,,,,,,0,,,67,80
16440,note_on,,60,0,1,,,,,,,,,0,,,72,76
16441,note_on,,1,0,1,,,,,,,,,0,,,67,0
16462,note_on,,139,0,2,,,,,,,,,1,,,51,0
16483,note_on,,42,0,1,,,,,,,,,0,,,67,0
16483,note_on,,21,0,2,,,,,,,,,1,,,63,0
16500,note_on,,17,0,2,,,,,,,,,1,,,63,76
16500,note_on,,17,0,1,,,,,,,,,0,,,67,89
16552,note_on,,52,0,2,,,,,,,,,1,,,63,0
16559,note_on,,59,0,1,,,,,,,,,0,,,67,0
16560,note_on,,8,0,2,,,,,,,,,1,,,62,93
16560,note_on,,1,0,1,,,,,,,,,0,,,65,89
16614,note_on,,54,0,1,,,,,,,,,0,,,72,0
16620,note_on,,6,0,1,,,,,,,,,0,,,71,93
16680,note_on,,60,0,1,,,,,,,,,0,,,72,85
16683,note_on,,3,0,1,,,,,,,,,0,,,71,0
16737,note_on,,54,0,1,,,,,,,,,0,,,72,0
16740,note_on,,3,0,1,,,,,,,,,0,,,74,76
16794,note_on,,234,0,2,,,,,,,,,1,,,62,0
16797,note_on,,57,0,1,,,,,,,,,0,,,65,0
16800,note_on,,6,0,2,,,,,,,,,1,,,60,93
16800,note_on,,0,0,1,,,,,,,,,0,,,63,80
16800,note_on,,3,0,1,,,,,,,,,0,,,75,85
16804,note_on,,4,0,1,,,,,,,,,0,,,74,0
16860,note_on,,56,0,1,,,,,,,,,0,,,65,80
16864,note_on,,4,0,1,,,,,,,,,0,,,63,0
16920,note_on,,56,0,1,,,,,,,,,0,,,67,89
16922,note_on,,2,0,1,,,,,,,,,0,,,65,0
16980,note_on,,58,0,1,,,,,,,,,0,,,72,80
16984,note_on,,4,0,1,,,,,,,,,0,,,75,0
17040,note_on,,240,0,2,,,,,,,,,1,,,59,93
17040,note_on,,56,0,1,,,,,,,,,0,,,74,85
17041,note_on,,1,0,1,,,,,,,,,0,,,72,0
17050,note_on,,10,0,2,,,,,,,,,1,,,60,0
17100,note_on,,59,0,1,,,,,,,,,0,,,77,80
17101,note_on,,1,0,1,,,,,,,,,0,,,74,0
17153,note_on,,103,0,2,,,,,,,,,1,,,59,0
17157,note_on,,56,0,1,,,,,,,,,0,,,67,0
17160,note_on,,3,0,1,,,,,,,,,0,,,76,89
17160,note_on,,7,0,2,,,,,,,,,1,,,58,89
17160,note_on,,0,0,1,,,,,,,,,0,,,68,89
17169,note_on,,9,0,1,,,,,,,,,0,,,77,0
17220,note_on,,51,0,1,,,,,,,,,0,,,74,85
17221,note_on,,1,0,1,,,,,,,,,0,,,76,0
17275,note_on,,54,0,1,,,,,,,,,0,,,68,0
17280,note_on,,5,0,1,,,,,,,,,0,,,73,80
17280,note_on,,0,0,2,,,,,,,,,1,,,57,107
17280,note_on,,120,0,2,,,,,,,,,1,,,57,98
17280,note_on,,0,0,1,,,,,,,,,0,,,69,93
17285,note_on,,5,0,2,,,,,,,,,1,,,58,0
17285,note_on,,5,0,1,,,,,,,,,0,,,74,0
17387,note_on,,102,0,2,,,,,,,,,1,,,57,0
17400,note_on,,13,0,2,,,,,,,,,1,,,57,98
17460,note_on,,175,0,1,,,,,,,,,0,,,65,85
17466,note_on,,6,0,1,,,,,,,,,0,,,69,0
17490,note_on,,24,0,1,,,,,,,,,0,,,64,76
17492,note_on,,2,0,1,,,,,,,,,0,,,65,0
17516,note_on,,116,0,2,,,,,,,,,1,,,57,0
17520,note_on,,0,0,1,,,,,,,,,0,,,62,89
17520,note_on,,28,0,1,,,,,,,,,0,,,64,0
17520,note_on,,4,0,2,,,,,,,,,1,,,53,102
17535,note_on,,15,0,1,,,,,,,,,0,,,73,0
17623,note_on,,103,0,2,,,,,,,,,1,,,57,0
17640,note_on,,17,0,2,,,,,,,,,1,,,57,93
17640,note_on,,105,0,1,,,,,,,,,0,,,74,89
17698,note_on,,58,0,1,,,,,,,,,0,,,62,0
17700,note_on,,60,0,2,,,,,,,,,1,,,52,93
17700,note_on,,2,0,1,,,,,,,,,0,,,64,89
17701,note_on,,1,0,2,,,,,,,,,1,,,53,0
17729,note_on,,28,0,2,,,,,,,,,1,,,52,0
17730,note_on,,30,0,1,,,,,,,,,0,,,65,76
17730,note_on,,1,0,2,,,,,,,,,1,,,50,93
17734,note_on,,4,0,1,,,,,,,,,0,,,64,0
17760,note_on,,0,0,1,,,,,,,,,0,,,67,98
17760,note_on,,26,0,1,,,,,,,,,0,,,76,93
17760,note_on,,30,0,2,,,,,,,,,1,,,49,89
17762,note_on,,2,0,1,,,,,,,,,0,,,65,0
17763,note_on,,3,0,2,,,,,,,,,1,,,50,0
17765,note_on,,3,0,1,,,,,,,,,0,,,74,0
17817,note_on,,54,0,2,,,,,,,,,1,,,49,0
17820,note_on,,3,0,2,,,,,,,,,1,,,50,98
17843,note_on,,23,0,2,,,,,,,,,1,,,57,0
17850,note_on,,7,0,2,,,,,,,,,1,,,58,89
17878,note_on,,28,0,2,,,,,,,,,1,,,50,0
17880,note_on,,0,0,2,,,,,,,,,1,,,52,107
17880,note_on,,2,0,2,,,,,,,,,1,,,55,93
17899,note_on,,19,0,2,,,,,,,,,1,,,58,0
17940,note_on,,0,0,1,,,,,,,,,0,,,65,89
17940,note_on,,175,0,1,,,,,,,,,0,,,74,89
17944,note_on,,4,0,1,,,,,,,,,0,,,76,0
17956,note_on,,12,0,1,,,,,,,,,0,,,67,0
17995,note_on,,39,0,1,,,,,,,,,0,,,65,0
18000,note_on,,0,0,1,,,,,,,,,0,,,64,89
18000,note_on,,5,0,1,,,,,,,,,0,,,73,72
18012,note_on,,12,0,1,,,,,,,,,0,,,74,0
18015,note_on,,116,0,2,,,,,,,,,1,,,55,0
18060,note_on,,45,0,2,,,,,,,,,1,,,64,93
18060,note_on,,0,0,1,,,,,,,,,0,,,67,89
18060,note_on,,48,0,1,,,,,,,,,0,,,64,0
18060,note_on,,0,0,2,,,,,,,,,1,,,58,89
18063,note_on,,3,0,2,,,,,,,,,1,,,52,0
18120,note_on,,57,0,2,,,,,,,,,1,,,57,89
18120,note_on,,60,0,1,,,,,,,,,0,,,69,89
18123,note_on,,3,0,2,,,,,,,,,1,,,58,0
18124,note_on,,4,0,1,,,,,,,,,0,,,67,0
18174,note_on,,51,0,2,,,,,,,,,1,,,64,0
18178,note_on,,4,0,2,,,,,,,,,1,,,57,0
18180,note_on,,2,0,2,,,,,,,,,1,,,64,93
18180,note_on,,0,0,1,,,,,,,,,0,,,70,85
18180,note_on,,56,0,1,,,,,,,,,0,,,69,0
18180,note_on,,0,0,2,,,,,,,,,1,,,55,85
18235,note_on,,55,0,1,,,,,,,,,0,,,73,0
18235,note_on,,55,0,2,,,,,,,,,1,,,55,0
18238,note_on,,3,0,2,,,,,,,,,1,,,64,0
18240,note_on,,2,0,2,,,,,,,,,1,,,65,89
18240,note_on,,0,0,2,,,,,,,,,1,,,53,93
18240,note_on,,0,0,1,,,,,,,,,0,,,69,89
18240,note_on,,5,0,1,,,,,,,,,0,,,74,93
18250,note_on,,10,0,1,,,,,,,,,0,,,70,0
18300,note_on,,50,0,1,,,,,,,,,0,,,69,80
18303,note_on,,3,0,1,,,,,,,,,0,,,74,0
18360,note_on,,57,0,1,,,,,,,,,0,,,74,89
18362,note_on,,122,0,2,,,,,,,,,1,,,53,0
18362,note_on,,2,0,1,,,,,,,,,0,,,69,0
18399,note_on,,37,0,2,,,,,,,,,1,,,65,0
18406,note_on,,44,0,1,,,,,,,,,0,,,69,0
18420,note_on,,21,0,2,,,,,,,,,1,,,65,85
18420,note_on,,14,0,1,,,,,,,,,0,,,69,85
18480,note_on,,60,0,1,,,,,,,,,0,,,69,0
18480,note_on,,0,0,1,,,,,,,,,0,,,67,93
18480,note_on,,0,0,2,,,,,,,,,1,,,64,89
18480,note_on,,60,0,2,,,,,,,,,1,,,65,0
18535,note_on,,55,0,1,,,,,,,,,0,,,74,0
18540,note_on,,5,0,1,,,,,,,,,0,,,73,76
18598,note_on,,58,0,1,,,,,,,,,0,,,73,0
18600,note_on,,2,0,1,,,,,,,,,0,,,74,80
18659,note_on,,59,0,1,,,,,,,,,0,,,74,0
18660,note_on,,1,0,1,,,,,,,,,0,,,76,85
18712,note_on,,52,0,1,,,,,,,,,0,,,67,0
18720,note_on,,0,0,2,,,,,,,,,1,,,62,98
18720,note_on,,8,0,1,,,,,,,,,0,,,77,89
18720,note_on,,0,0,1,,,,,,,,,0,,,65,85
18720,note_on,,240,0,2,,,,,,,,,1,,,64,0
18725,note_on,,5,0,1,,,,,,,,,0,,,76,0
18780,note_on,,55,0,1,,,,,,,,,0,,,67,89
18788,note_on,,8,0,1,,,,,,,,,0,,,65,0
18840,note_on,,52,0,1,,,,,,,,,0,,,69,93
18851,note_on,,11,0,1,,,,,,,,,0,,,67,0
18894,note_on,,43,0,1,,,,,,,,,0,,,77,0
18900,note_on,,6,0,1,,,,,,,,,0,,,74,98
18960,note_on,,60,0,1,,,,,,,,,0,,,76,89
18960,note_on,,240,0,2,,,,,,,,,1,,,61,89
18961,note_on,,1,0,2,,,,,,,,,1,,,62,0
18964,note_on,,4,0,1,,,,,,,,,0,,,74,0
19020,note_on,,56,0,1,,,,,,,,,0,,,79,89
19024,note_on,,4,0,1,,,,,,,,,0,,,76,0
19080,note_on,,56,0,1,,,,,,,,,0,,,78,80
19080,note_on,,0,0,1,,,,,,,,,0,,,70,93
19080,note_on,,119,0,2,,,,,,,,,1,,,60,93
19081,note_on,,1,0,2,,,,,,,,,1,,,61,0
19087,note_on,,7,0,1,,,,,,,,,0,,,69,0
19090,note_on,,3,0,1,,,,,,,,,0,,,79,0
19140,note_on,,50,0,1,,,,,,,,,0,,,76,89
19146,note_on,,6,0,1,,,,,,,,,0,,,78,0
19193,note_on,,47,0,1,,,,,,,,,0,,,70,0
19200,note_on,,0,0,1,,,,,,,,,0,,,71,89
19200,note_on,,119,0,2,,,,,,,,,1,,,59,93
19200,note_on,,0,0,2,,,,,,,,,1,,,59,107
19200,note_on,,7,0,1,,,,,,,,,0,,,75,89
19206,note_on,,6,0,2,,,,,,,,,1,,,60,0
19208,note_on,,8,0,1,,,,,,,,,0,,,76,0
19320,note_on,,112,0,1,,,,,,,,,0,,,71,93
19326,note_on,,6,0,1,,,,,,,,,0,,,75,0
19380,note_on,,54,0,1,,,,,,,,,0,,,67,85
19396,note_on,,16,0,1,,,,,,,,,0,,,71,0
19410,note_on,,14,0,1,,,,,,,,,0,,,66,85
19414,note_on,,208,0,2,,,,,,,,,1,,,59,0
19417,note_on,,7,0,1,,,,,,,,,0,,,67,0
19439,note_on,,25,0,2,,,,,,,,,1,,,59,0
19440,note_on,,1,0,2,,,,,,,,,1,,,59,98
19440,note_on,,0,0,2,,,,,,,,,1,,,55,102
19440,note_on,,23,0,1,,,,,,,,,0,,,64,93
19441,note_on,,1,0,1,,,,,,,,,0,,,66,0
19494,note_on,,53,0,1,,,,,,,,,0,,,71,0
19500,note_on,,6,0,1,,,,,,,,,0,,,73,85
19530,note_on,,30,0,1,,,,,,,,,0,,,75,76
19531,note_on,,1,0,1,,,,,,,,,0,,,73,0
19557,note_on,,26,0,1,,,,,,,,,0,,,75,0
19560,note_on,,3,0,1,,,,,,,,,0,,,76,80
19560,note_on,,0,0,1,,,,,,,,,0,,,71,98
19563,note_on,,3,0,1,,,,,,,,,0,,,64,0
19615,note_on,,175,0,2,,,,,,,,,1,,,55,0
19620,note_on,,5,0,2,,,,,,,,,1,,,54,85
19620,note_on,,57,0,1,,,,,,,,,0,,,75,76
19627,note_on,,7,0,1,,,,,,,,,0,,,76,0
19647,note_on,,20,0,1,,,,,,,,,0,,,75,0
19650,note_on,,3,0,1,,,,,,,,,0,,,76,72
19650,note_on,,30,0,2,,,,,,,,,1,,,52,76
19653,note_on,,3,0,2,,,,,,,,,1,,,54,0
19679,note_on,,29,0,1,,,,,,,,,0,,,76,0
19680,note_on,,0,0,1,,,,,,,,,0,,,69,93
19680,note_on,,27,0,2,,,,,,,,,1,,,51,89
19680,note_on,,1,0,1,,,,,,,,,0,,,78,76
19684,note_on,,4,0,1,,,,,,,,,0,,,71,0
19684,note_on,,4,0,2,,,,,,,,,1,,,59,0
19688,note_on,,4,0,2,,,,,,,,,1,,,52,0
19736,note_on,,48,0,2,,,,,,,,,1,,,51,0
19740,note_on,,4,0,2,,,,,,,,,1,,,52,89
19795,note_on,,55,0,2,,,,,,,,,1,,,52,0
19800,note_on,,5,0,2,,,,,,,,,1,,,54,107
19858,note_on,,174,0,1,,,,,,,,,0,,,78,0
19860,note_on,,0,0,1,,,,,,,,,0,,,67,85
19860,note_on,,2,0,1,,,,,,,,,0,,,76,89
19866,note_on,,6,0,1,,,,,,,,,0,,,69,0
19920,note_on,,54,0,1,,,,,,,,,0,,,67,0
19920,note_on,,0,0,1,,,,,,,,,0,,,66,85
19920,note_on,,0,0,1,,,,,,,,,0,,,75,76
19927,note_on,,7,0,1,,,,,,,,,0,,,76,0
19980,note_on,,180,0,2,,,,,,,,,1,,,60,98
19984,note_on,,4,0,2,,,,,,,,,1,,,54,0
20040,note_on,,56,0,2,,,,,,,,,1,,,59,98
20045,note_on,,5,0,2,,,,,,,,,1,,,60,0
20100,note_on,,55,0,2,,,,,,,,,1,,,57,93
20112,note_on,,12,0,2,,,,,,,,,1,,,59,0
20154,note_on,,227,0,1,,,,,,,,,0,,,66,0
20157,note_on,,3,0,1,,,,,,,,,0,,,75,0
20160,note_on,,0,0,1,,,,,,,,,0,,,67,98
20160,note_on,,3,0,1,,,,,,,,,0,,,76,93
20160,note_on,,48,0,2,,,,,,,,,1,,,55,89
20164,note_on,,4,0,2,,,,,,,,,1,,,57,0
20220,note_on,,56,0,2,,,,,,,,,1,,,57,89
20230,note_on,,10,0,2,,,,,,,,,1,,,55,0
20279,note_on,,49,0,2,,,,,,,,,1,,,57,0
20280,note_on,,1,0,2,,,,,,,,,1,,,59,89
20340,note_on,,0,0,1,,,,,,,,,0,,,65,89
20340,note_on,,180,0,1,,,,,,,,,0,,,74,89
20346,note_on,,6,0,1,,,,,,,,,0,,,67,0
20352,note_on,,6,0,1,,,,,,,,,0,,,76,0
20400,note_on,,48,0,1,,,,,,,,,0,,,73,85
20400,note_on,,0,0,1,,,,,,,,,0,,,64,93
20410,note_on,,10,0,1,,,,,,,,,0,,,65,0
20412,note_on,,2,0,1,,,,,,,,,0,,,74,0
20460,note_on,,180,0,2,,,,,,,,,1,,,58,89
20463,note_on,,3,0,2,,,,,,,,,1,,,59,0
20520,note_on,,57,0,2,,,,,,,,,1,,,57,89
20533,note_on,,13,0,2,,,,,,,,,1,,,58,0
20580,note_on,,0,0,2,,,,,,,,,1,,,55,89
20580,note_on,,47,0,2,,,,,,,,,1,,,57,0
20631,note_on,,219,0,1,,,,,,,,,0,,,73,0
20640,note_on,,60,0,2,,,,,,,,,1,,,53,89
20640,note_on,,9,0,1,,,,,,,,,0,,,74,93
20640,note_on,,0,0,1,,,,,,,,,0,,,65,93
20641,note_on,,1,0,2,,,,,,,,,1,,,55,0
20645,note_on,,5,0,1,,,,,,,,,0,,,64,0
20700,note_on,,59,0,2,,,,,,,,,1,,,55,93
20709,note_on,,9,0,2,,,,,,,,,1,,,53,0
20760,note_on,,51,0,2,,,,,,,,,1,,,57,98
20762,note_on,,2,0,2,,,,,,,,,1,,,55,0
20820,note_on,,0,0,1,,,,,,,,,0,,,64,89
20820,note_on,,175,0,1,,,,,,,,,0,,,72,80
20825,note_on,,5,0,1,,,,,,,,,0,,,74,0
20833,note_on,,8,0,1,,,,,,,,,0,,,65,0
20880,note_on,,47,0,1,,,,,,,,,0,,,71,93
20880,note_on,,0,0,1,,,,,,,,,0,,,62,93
20885,note_on,,5,0,1,,,,,,,,,0,,,64,0
20887,note_on,,2,0,1,,,,,,,,,0,,,72,0
20936,note_on,,174,0,2,,,,,,,,,1,,,57,0
20940,note_on,,4,0,2,,,,,,,,,1,,,56,93
21000,note_on,,60,0,2,,,,,,,,,1,,,55,76
21011,note_on,,11,0,2,,,,,,,,,1,,,56,0
21060,note_on,,49,0,2,,,,,,,,,1,,,53,85
21062,note_on,,2,0,2,,,,,,,,,1,,,55,0
21120,note_on,,0,0,1,,,,,,,,,0,,,63,85
21120,note_on,,233,0,1,,,,,,,,,0,,,72,85
21120,note_on,,58,0,2,,,,,,,,,1,,,51,89
21123,note_on,,0,0,1,,,,,,,,,0,,,62,0
21123,note_on,,3,0,1,,,,,,,,,0,,,71,0
21124,note_on,,4,0,2,,,,,,,,,1,,,53,0
21179,note_on,,55,0,2,,,,,,,,,1,,,51,0
21180,note_on,,1,0,2,,,,,,,,,1,,,53,93
21240,note_on,,60,0,2,,,,,,,,,1,,,55,93
21244,note_on,,4,0,2,,,,,,,,,1,,,53,0
21298,note_on,,175,0,1,,,,,,,,,0,,,72,0
21300,note_on,,2,0,1,,,,,,,,,0,,,70,76
21300,note_on,,0,0,1,,,,,,,,,0,,,62,89
21307,note_on,,7,0,1,,,,,,,,,0,,,63,0
21360,note_on,,0,0,1,,,,,,,,,0,,,69,89
21360,note_on,,53,0,1,,,,,,,,,0,,,62,0
21360,note_on,,0,0,1,,,,,,,,,0,,,60,76
21365,note_on,,5,0,1,,,,,,,,,0,,,70,0
21417,note_on,,173,0,2,,,,,,,,,1,,,55,0
21420,note_on,,3,0,2,,,,,,,,,1,,,54,85
21480,note_on,,60,0,2,,,,,,,,,1,,,55,89
21480,note_on,,115,0,1,,,,,,,,,0,,,58,76
21489,note_on,,9,0,2,,,,,,,,,1,,,54,0
21490,note_on,,10,0,1,,,,,,,,,0,,,60,0
21537,note_on,,47,0,1,,,,,,,,,0,,,69,0
21540,note_on,,51,0,2,,,,,,,,,1,,,51,80
21540,note_on,,3,0,1,,,,,,,,,0,,,67,80
21541,note_on,,1,0,2,,,,,,,,,1,,,55,0
21570,note_on,,30,0,1,,,,,,,,,0,,,66,98
21580,note_on,,10,0,1,,,,,,,,,0,,,67,0
21598,note_on,,18,0,1,,,,,,,,,0,,,66,0
21600,note_on,,2,0,1,,,,,,,,,0,,,67,80
21600,note_on,,59,0,2,,,,,,,,,1,,,49,93
21608,note_on,,8,0,2,,,,,,,,,1,,,51,0
21648,note_on,,48,0,1,,,,,,,,,0,,,58,0
21660,note_on,,12,0,1,,,,,,,,,0,,,58,80
21703,note_on,,43,0,1,,,,,,,,,0,,,58,0
21720,note_on,,17,0,1,,,,,,,,,0,,,58,98
21768,note_on,,48,0,1,,,,,,,,,0,,,67,0
21780,note_on,,12,0,1,,,,,,,,,0,,,67,80
21835,note_on,,227,0,2,,,,,,,,,1,,,49,0
21839,note_on,,59,0,1,,,,,,,,,0,,,67,0
21840,note_on,,0,0,1,,,,,,,,,0,,,57,98
21840,note_on,,1,0,1,,,,,,,,,0,,,66,89
21840,note_on,,5,0,2,,,,,,,,,1,,,50,89
21842,note_on,,2,0,1,,,,,,,,,0,,,58,0
22020,note_on,,180,0,2,,,,,,,,,1,,,48,85
22028,note_on,,8,0,2,,,,,,,,,1,,,50,0
22075,note_on,,233,0,1,,,,,,,,,0,,,66,0
22076,note_on,,1,0,1,,,,,,,,,0,,,57,0
22080,note_on,,0,0,2,,,,,,,,,1,,,55,102
22080,note_on,,52,0,2,,,,,,,,,1,,,46,85
22085,note_on,,5,0,2,,,,,,,,,1,,,48,0
22137,note_on,,52,0,2,,,,,,,,,1,,,46,0
22140,note_on,,3,0,2,,,,,,,,,1,,,45,89
22190,note_on,,50,0,2,,,,,,,,,1,,,45,0
22200,note_on,,10,0,2,,,,,,,,,1,,,43,93
22314,note_on,,114,0,2,,,,,,,,,1,,,55,0
22320,note_on,,6,0,2,,,,,,,,,1,,,55,102
22320,note_on,,0,0,2,,,,,,,,,1,,,58,89
22327,note_on,,7,0,2,,,,,,,,,1,,,43,0
22380,note_on,,53,0,2,,,,,,,,,1,,,53,89
22390,note_on,,10,0,2,,,,,,,,,1,,,55,0
22440,note_on,,50,0,2,,,,,,,,,1,,,51,80
22453,note_on,,13,0,2,,,,,,,,,1,,,53,0
22500,note_on,,47,0,2,,,,,,,,,1,,,50,98
22500,note_on,,0,0,2,,,,,,,,,1,,,60,80
22502,note_on,,2,0,2,,,,,,,,,1,,,51,0
22505,note_on,,3,0,2,,,,,,,,,1,,,58,0
22530,note_on,,25,0,2,,,,,,,,,1,,,62,80
22537,note_on,,7,0,2,,,,,,,,,1,,,60,0
22560,note_on,,23,0,2,,,,,,,,,1,,,48,89
22560,note_on,,0,0,2,,,,,,,,,1,,,63,89
22562,note_on,,2,0,2,,,,,,,,,1,,,50,0
22563,note_on,,1,0,2,,,,,,,,,1,,,62,0
22620,note_on,,57,0,2,,,,,,,,,1,,,62,93
22628,note_on,,8,0,2,,,,,,,,,1,,,63,0
22680,note_on,,52,0,2,,,,,,,,,1,,,60,89
22687,note_on,,7,0,2,,,,,,,,,1,,,62,0
22728,note_on,,41,0,2,,,,,,,,,1,,,48,0
22740,note_on,,12,0,2,,,,,,,,,1,,,50,98
22770,note_on,,30,0,2,,,,,,,,,1,,,51,93
22774,note_on,,4,0,2,,,,,,,,,1,,,50,0
22800,note_on,,26,0,2,,,,,,,,,1,,,50,89
22807,note_on,,7,0,2,,,,,,,,,1,,,51,0
22856,note_on,,49,0,2,,,,,,,,,1,,,60,0
22860,note_on,,4,0,2,,,,,,,,,1,,,48,76
22860,note_on,,0,0,2,,,,,,,,,1,,,54,76
22862,note_on,,2,0,2,,,,,,,,,1,,,50,0
22920,note_on,,58,0,2,,,,,,,,,1,,,46,93
22920,note_on,,0,0,2,,,,,,,,,1,,,55,89
22927,note_on,,7,0,2,,,,,,,,,1,,,54,0
22931,note_on,,4,0,2,,,,,,,,,1,,,48,0
22980,note_on,,49,0,2,,,,,,,,,1,,,45,89
22980,note_on,,0,0,2,,,,,,,,,1,,,57,89
22983,note_on,,3,0,2,,,,,,,,,1,,,46,0
22984,note_on,,1,0,2,,,,,,,,,1,,,55,0
23040,note_on,,56,0,2,,,,,,,,,1,,,43,93
23040,note_on,,0,0,2,,,,,,,,,1,,,58,93
23040,note_on,,964,0,1,,,,,,,,,0,,,62,98
23042,note_on,,2,0,2,,,,,,,,,1,,,57,0
23049,note_on,,7,0,2,,,,,,,,,1,,,45,0
23160,note_on,,111,0,2,,,,,,,,,1,,,46,93
23168,note_on,,8,0,2,,,,,,,,,1,,,43,0
23216,note_on,,48,0,2,,,,,,,,,1,,,58,0
23220,note_on,,4,0,2,,,,,,,,,1,,,57,89
23250,note_on,,30,0,2,,,,,,,,,1,,,55,72
23254,note_on,,4,0,2,,,,,,,,,1,,,57,0
23279,note_on,,25,0,2,,,,,,,,,1,,,46,0
23280,note_on,,0,0,2,,,,,,,,,1,,,57,80
23280,note_on,,1,0,2,,,,,,,,,1,,,50,76
23280,note_on,,240,0,1,,,,,,,,,0,,,65,93
23283,note_on,,3,0,1,,,,,,,,,0,,,62,0
23285,note_on,,5,0,2,,,,,,,,,1,,,55,0
23340,note_on,,55,0,2,,,,,,,,,1,,,45,89
23350,note_on,,10,0,2,,,,,,,,,1,,,50,0
23400,note_on,,50,0,2,,,,,,,,,1,,,50,102
23409,note_on,,9,0,2,,,,,,,,,1,,,45,0
23460,note_on,,0,0,1,,,,,,,,,0,,,67,89
23460,note_on,,177,0,1,,,,,,,,,0,,,65,0
23460,note_on,,51,0,2,,,,,,,,,1,,,55,80
23467,note_on,,7,0,2,,,,,,,,,1,,,57,0
23490,note_on,,23,0,2,,,,,,,,,1,,,53,76
23490,note_on,,30,0,1,,,,,,,,,0,,,69,72
23495,note_on,,5,0,1,,,,,,,,,0,,,67,0
23496,note_on,,6,0,2,,,,,,,,,1,,,55,0
23520,note_on,,25,0,1,,,,,,,,,0,,,70,89
23520,note_on,,24,0,2,,,,,,,,,1,,,55,89
23525,note_on,,5,0,1,,,,,,,,,0,,,69,0
23533,note_on,,13,0,2,,,,,,,,,1,,,53,0
23576,note_on,,51,0,1,,,,,,,,,0,,,70,0
23580,note_on,,4,0,1,,,,,,,,,0,,,69,89
23580,note_on,,47,0,2,,,,,,,,,1,,,50,0
23580,note_on,,0,0,2,,,,,,,,,1,,,53,89
23580,note_on,,0,0,2,,,,,,,,,1,,,57,89
23583,note_on,,3,0,2,,,,,,,,,1,,,55,0
23640,note_on,,57,0,2,,,,,,,,,1,,,52,89
23640,note_on,,0,0,1,,,,,,,,,0,,,67,93
23640,note_on,,0,0,2,,,,,,,,,1,,,58,93
23640,note_on,,60,0,1,,,,,,,,,0,,,69,0
23650,note_on,,10,0,2,,,,,,,,,1,,,57,0
23651,note_on,,1,0,2,,,,,,,,,1,,,53,0
23699,note_on,,48,0,2,,,,,,,,,1,,,52,0
23700,note_on,,1,0,2,,,,,,,,,1,,,50,80
23760,note_on,,60,0,2,,,,,,,,,1,,,49,89
23764,note_on,,4,0,2,,,,,,,,,1,,,50,0
23816,note_on,,52,0,2,,,,,,,,,1,,,58,0
23820,note_on,,180,0,1,,,,,,,,,0,,,61,85
23820,note_on,,4,0,2,,,,,,,,,1,,,55,93
23820,note_on,,0,0,2,,,,,,,,,1,,,58,85
23822,note_on,,2,0,1,,,,,,,,,0,,,67,0
23826,note_on,,6,0,2,,,,,,,,,1,,,49,0
23879,note_on,,57,0,1,,,,,,,,,0,,,61,0
23880,note_on,,0,0,2,,,,,,,,,1,,,57,89
23880,note_on,,1,0,1,,,,,,,,,0,,,62,89
23880,note_on,,54,0,2,,,,,,,,,1,,,53,89
23887,note_on,,7,0,2,,,,,,,,,1,,,58,0
23895,note_on,,8,0,2,,,,,,,,,1,,,55,0
23940,note_on,,45,0,2,,,,,,,,,1,,,52,93
23940,note_on,,0,0,2,,,,,,,,,1,,,55,89
23940,note_on,,60,0,1,,,,,,,,,0,,,64,80
23941,note_on,,0,0,2,,,,,,,,,1,,,57,0
23941,note_on,,1,0,2,,,,,,,,,1,,,53,0
23945,note_on,,5,0,1,,,,,,,,,0,,,62,0
24000,note_on,,55,0,1,,,,,,,,,0,,,65,85
24000,note_on,,59,0,2,,,,,,,,,1,,,50,93
24000,note_on,,0,0,2,,,,,,,,,1,,,53,89
24002,note_on,,2,0,2,,,,,,,,,1,,,52,0
24004,note_on,,4,0,1,,,,,,,,,0,,,64,0
24006,note_on,,4,0,2,,,,,,,,,1,,,55,0
24116,note_on,,112,0,1,,,,,,,,,0,,,65,0
24120,note_on,,4,0,1,,,,,,,,,0,,,62,93
24135,note_on,,129,0,2,,,,,,,,,1,,,53,0
24180,note_on,,45,0,2,,,,,,,,,1,,,59,93
24236,note_on,,56,0,2,,,,,,,,,1,,,59,0
24240,note_on,,120,0,1,,,,,,,,,0,,,63,85
24240,note_on,,4,0,2,,,,,,,,,1,,,60,89
24241,note_on,,1,0,1,,,,,,,,,0,,,62,0
24251,note_on,,11,0,2,,,,,,,,,1,,,50,0
24299,note_on,,48,0,2,,,,,,,,,1,,,60,0
24300,note_on,,1,0,2,,,,,,,,,1,,,55,85
24360,note_on,,60,0,2,,,,,,,,,1,,,60,89
24360,note_on,,119,0,1,,,,,,,,,0,,,64,93
24364,note_on,,4,0,1,,,,,,,,,0,,,63,0
24369,note_on,,9,0,2,,,,,,,,,1,,,55,0
24420,note_on,,51,0,2,,,,,,,,,1,,,58,72
24431,note_on,,11,0,2,,,,,,,,,1,,,60,0
24476,note_on,,45,0,2,,,,,,,,,1,,,58,0
24480,note_on,,4,0,2,,,,,,,,,1,,,57,93
24480,note_on,,116,0,1,,,,,,,,,0,,,65,98
24486,note_on,,6,0,1,,,,,,,,,0,,,64,0
24540,note_on,,60,0,2,,,,,,,,,1,,,58,76
24547,note_on,,7,0,2,,,,,,,,,1,,,57,0
24570,note_on,,23,0,2,,,,,,,,,1,,,60,72
24571,note_on,,1,0,2,,,,,,,,,1,,,58,0
24599,note_on,,28,0,2,,,,,,,,,1,,,60,0
24600,note_on,,114,0,1,,,,,,,,,0,,,66,89
24600,note_on,,1,0,2,,,,,,,,,1,,,62,89
24601,note_on,,1,0,1,,,,,,,,,0,,,65,0
24655,note_on,,55,0,2,,,,,,,,,1,,,62,0
24660,note_on,,5,0,2,,,,,,,,,1,,,60,85
24714,note_on,,113,0,1,,,,,,,,,0,,,66,0
24720,note_on,,60,0,2,,,,,,,,,1,,,58,85
24720,note_on,,6,0,1,,,,,,,,,0,,,67,98
24720,note_on,,0,0,1,,,,,,,,,0,,,67,93
24727,note_on,,7,0,2,,,,,,,,,1,,,60,0
24780,note_on,,53,0,2,,,,,,,,,1,,,57,85
24785,note_on,,5,0,2,,,,,,,,,1,,,58,0
24840,note_on,,55,0,2,,,,,,,,,1,,,55,98
24845,note_on,,5,0,2,,,,,,,,,1,,,57,0
24900,note_on,,180,0,1,,,,,,,,,0,,,65,80
24908,note_on,,8,0,1,,,,,,,,,0,,,67,0
24930,note_on,,22,0,1,,,,,,,,,0,,,63,72
24938,note_on,,8,0,1,,,,,,,,,0,,,65,0
24950,note_on,,12,0,1,,,,,,,,,0,,,67,0
24960,note_on,,0,0,1,,,,,,,,,0,,,62,89
24960,note_on,,10,0,1,,,,,,,,,0,,,70,85
24963,note_on,,3,0,1,,,,,,,,,0,,,63,0
25019,note_on,,174,0,2,,,,,,,,,1,,,55,0
25020,note_on,,1,0,2,,,,,,,,,1,,,57,89
25050,note_on,,30,0,2,,,,,,,,,1,,,58,80
25052,note_on,,2,0,2,,,,,,,,,1,,,57,0
25076,note_on,,113,0,1,,,,,,,,,0,,,62,0
25080,note_on,,28,0,2,,,,,,,,,1,,,55,80
25080,note_on,,4,0,1,,,,,,,,,0,,,67,93
25085,note_on,,5,0,2,,,,,,,,,1,,,58,0
25139,note_on,,59,0,1,,,,,,,,,0,,,70,0
25140,note_on,,1,0,1,,,,,,,,,0,,,72,89
25170,note_on,,30,0,1,,,,,,,,,0,,,74,93
25174,note_on,,4,0,1,,,,,,,,,0,,,72,0
25200,note_on,,26,0,1,,,,,,,,,0,,,75,72
25200,note_on,,115,0,2,,,,,,,,,1,,,60,85
25203,note_on,,3,0,2,,,,,,,,,1,,,55,0
25207,note_on,,7,0,1,,,,,,,,,0,,,74,0
25256,note_on,,49,0,1,,,,,,,,,0,,,75,0
25260,note_on,,4,0,1,,,,,,,,,0,,,74,80
25260,note_on,,0,0,1,,,,,,,,,0,,,66,93
25260,note_on,,57,0,2,,,,,,,,,1,,,62,89
25263,note_on,,3,0,2,,,,,,,,,1,,,60,0
25266,note_on,,6,0,1,,,,,,,,,0,,,67,0
25319,note_on,,56,0,2,,,,,,,,,1,,,62,0
25320,note_on,,1,0,2,,,,,,,,,1,,,63,80
25320,note_on,,54,0,1,,,,,,,,,0,,,72,89
25320,note_on,,0,0,1,,,,,,,,,0,,,67,89
25323,note_on,,3,0,1,,,,,,,,,0,,,66,0
25323,note_on,,0,0,1,,,,,,,,,0,,,74,0
25380,note_on,,57,0,1,,,,,,,,,0,,,69,85
25385,note_on,,5,0,1,,,,,,,,,0,,,67,0
25410,note_on,,25,0,1,,,,,,,,,0,,,67,93
25415,note_on,,5,0,1,,,,,,,,,0,,,69,0
25440,note_on,,120,0,2,,,,,,,,,1,,,62,93
25440,note_on,,25,0,1,,,,,,,,,0,,,66,93
25441,note_on,,1,0,1,,,,,,,,,0,,,67,0
25459,note_on,,19,0,2,,,,,,,,,1,,,63,0
25499,note_on,,40,0,2,,,,,,,,,1,,,62,0
25500,note_on,,0,0,1,,,,,,,,,0,,,63,72
25500,note_on,,59,0,1,,,,,,,,,0,,,66,80
25500,note_on,,1,0,2,,,,,,,,,1,,,60,85
25505,note_on,,5,0,1,,,,,,,,,0,,,72,0
25513,note_on,,8,0,1,,,,,,,,,0,,,66,0
25558,note_on,,45,0,1,,,,,,,,,0,,,63,0
25560,note_on,,2,0,1,,,,,,,,,0,,,67,89
25560,note_on,,0,0,1,,,,,,,,,0,,,62,93
25560,note_on,,60,0,2,,,,,,,,,1,,,58,76
25562,note_on,,2,0,2,,,,,,,,,1,,,60,0
25567,note_on,,7,0,1,,,,,,,,,0,,,66,0
25615,note_on,,53,0,2,,,,,,,,,1,,,58,0
25617,note_on,,50,0,1,,,,,,,,,0,,,62,0
25620,note_on,,0,0,1,,,,,,,,,0,,,60,76
25620,note_on,,3,0,1,,,,,,,,,0,,,69,80
25620,note_on,,5,0,2,,,,,,,,,1,,,57,89
25631,note_on,,11,0,1,,,,,,,,,0,,,67,0
25680,note_on,,0,0,1,,,,,,,,,0,,,58,85
25680,note_on,,49,0,1,,,,,,,,,0,,,70,93
25680,note_on,,60,0,2,,,,,,,,,1,,,55,89
25680,note_on,,0,0,2,,,,,,,,,1,,,50,113
25681,note_on,,1,0,1,,,,,,,,,0,,,69,0
25684,note_on,,4,0,2,,,,,,,,,1,,,57,0
25689,note_on,,8,0,1,,,,,,,,,0,,,60,0
25740,note_on,,51,0,1,,,,,,,,,0,,,60,89
25741,note_on,,1,0,1,,,,,,,,,0,,,58,0
25800,note_on,,59,0,1,,,,,,,,,0,,,62,98
25804,note_on,,4,0,1,,,,,,,,,0,,,60,0
25894,note_on,,210,0,2,,,,,,,,,1,,,55,0
25906,note_on,,102,0,1,,,,,,,,,0,,,70,0
25912,note_on,,18,0,2,,,,,,,,,1,,,50,0
25913,note_on,,7,0,1,,,,,,,,,0,,,62,0
25920,note_on,,0,0,1,,,,,,,,,0,,,62,98
25920,note_on,,7,0,1,,,,,,,,,0,,,69,93
25920,note_on,,8,0,2,,,,,,,,,1,,,57,93
25920,note_on,,0,0,2,,,,,,,,,1,,,53,93
25980,note_on,,60,0,1,,,,,,,,,0,,,71,85
25987,note_on,,7,0,1,,,,,,,,,0,,,69,0
26010,note_on,,23,0,1,,,,,,,,,0,,,73,76
26015,note_on,,5,0,1,,,,,,,,,0,,,71,0
26040,note_on,,25,0,1,,,,,,,,,0,,,73,0
26040,note_on,,0,0,1,,,,,,,,,0,,,74,89
26091,note_on,,171,0,2,,,,,,,,,1,,,57,0
26091,note_on,,51,0,1,,,,,,,,,0,,,62,0
26092,note_on,,1,0,2,,,,,,,,,1,,,53,0
26100,note_on,,8,0,2,,,,,,,,,1,,,58,76
26100,note_on,,9,0,1,,,,,,,,,0,,,64,93
26100,note_on,,0,0,2,,,,,,,,,1,,,55,76
26130,note_on,,30,0,2,,,,,,,,,1,,,60,76
26130,note_on,,0,0,2,,,,,,,,,1,,,57,80
26130,note_on,,30,0,1,,,,,,,,,0,,,66,80
26137,note_on,,7,0,1,,,,,,,,,0,,,64,0
26138,note_on,,8,0,2,,,,,,,,,1,,,58,0
26139,note_on,,1,0,2,,,,,,,,,1,,,55,0
26157,note_on,,18,0,2,,,,,,,,,1,,,60,0
26160,note_on,,23,0,1,,,,,,,,,0,,,67,98
26160,note_on,,0,0,2,,,,,,,,,1,,,58,85
26160,note_on,,3,0,2,,,,,,,,,1,,,62,93
26163,note_on,,3,0,1,,,,,,,,,0,,,66,0
26163,note_on,,3,0,2,,,,,,,,,1,,,57,0
26220,note_on,,57,0,2,,,,,,,,,1,,,60,85
26220,note_on,,57,0,1,,,,,,,,,0,,,76,89
26220,note_on,,0,0,2,,,,,,,,,1,,,57,93
26224,note_on,,4,0,2,,,,,,,,,1,,,58,0
26229,note_on,,9,0,1,,,,,,,,,0,,,74,0
26231,note_on,,7,0,2,,,,,,,,,1,,,62,0
26248,note_on,,19,0,1,,,,,,,,,0,,,76,0
26250,note_on,,2,0,1,,,,,,,,,0,,,77,80
26280,note_on,,49,0,2,,,,,,,,,1,,,58,89
26280,note_on,,0,0,2,,,,,,,,,1,,,55,93
26280,note_on,,30,0,1,,,,,,,,,0,,,76,80
26283,note_on,,3,0,1,,,,,,,,,0,,,77,0
26284,note_on,,4,0,2,,,,,,,,,1,,,57,0
26285,note_on,,1,0,2,,,,,,,,,1,,,60,0
26340,note_on,,0,0,1,,,,,,,,,0,,,65,93
26340,note_on,,57,0,1,,,,,,,,,0,,,74,76
26343,note_on,,3,0,1,,,,,,,,,0,,,76,0
26343,note_on,,0,0,1,,,,,,,,,0,,,67,0
26400,note_on,,57,0,1,,,,,,,,,0,,,73,89
26400,note_on,,0,0,1,,,,,,,,,0,,,64,98
26401,note_on,,1,0,1,,,,,,,,,0,,,65,0
26404,note_on,,3,0,1,,,,,,,,,0,,,74,0
26453,note_on,,168,0,2,,,,,,,,,1,,,55,0
26455,note_on,,2,0,2,,,,,,,,,1,,,58,0
26460,note_on,,56,0,1,,,,,,,,,0,,,69,72
26460,note_on,,0,0,1,,,,,,,,,0,,,69,98
26460,note_on,,0,0,2,,,,,,,,,1,,,49,93
26460,note_on,,5,0,2,,,,,,,,,1,,,52,93
26464,note_on,,4,0,1,,,,,,,,,0,,,64,0
26470,note_on,,6,0,1,,,,,,,,,0,,,73,0
26520,note_on,,50,0,1,,,,,,,,,0,,,71,93
26520,note_on,,0,0,2,,,,,,,,,1,,,50,85
26520,note_on,,60,0,2,,,,,,,,,1,,,53,93
26523,note_on,,3,0,1,,,,,,,,,0,,,69,0
26526,note_on,,6,0,2,,,,,,,,,1,,,49,0
26528,note_on,,2,0,2,,,,,,,,,1,,,52,0
26557,note_on,,34,0,1,,,,,,,,,0,,,69,0
26578,note_on,,50,0,2,,,,,,,,,1,,,53,0
26579,note_on,,1,0,2,,,,,,,,,1,,,50,0
26580,note_on,,1,0,2,,,,,,,,,1,,,55,98
26580,note_on,,0,0,2,,,,,,,,,1,,,52,93
26580,note_on,,0,0,1,,,,,,,,,0,,,69,85
26580,note_on,,23,0,1,,,,,,,,,0,,,73,72
26583,note_on,,3,0,1,,,,,,,,,0,,,71,0
26627,note_on,,44,0,1,,,,,,,,,0,,,69,0
26640,note_on,,13,0,1,,,,,,,,,0,,,74,89
26640,note_on,,0,0,1,,,,,,,,,0,,,69,98
26640,note_on,,0,0,2,,,,,,,,,1,,,50,89
26640,note_on,,60,0,2,,,,,,,,,1,,,54,93
26644,note_on,,4,0,2,,,,,,,,,1,,,55,0
26645,note_on,,5,0,1,,,,,,,,,0,,,73,0
26645,note_on,,1,0,2,,,,,,,,,1,,,52,0
26700,note_on,,55,0,1,,,,,,,,,0,,,74,0
26700,note_on,,0,0,1,,,,,,,,,0,,,62,76
26760,note_on,,60,0,1,,,,,,,,,0,,,74,93
26761,note_on,,1,0,1,,,,,,,,,0,,,69,0
26766,note_on,,5,0,1,,,,,,,,,0,,,62,0
26768,note_on,,123,0,2,,,,,,,,,1,,,50,0
26820,note_on,,54,0,1,,,,,,,,,0,,,66,93
26820,note_on,,52,0,2,,,,,,,,,1,,,50,102
26872,note_on,,52,0,2,,,,,,,,,1,,,50,0
26874,note_on,,54,0,1,,,,,,,,,0,,,66,0
26880,note_on,,8,0,2,,,,,,,,,1,,,51,93
26880,note_on,,6,0,1,,,,,,,,,0,,,67,89
26900,note_on,,20,0,2,,,,,,,,,1,,,54,0
26938,note_on,,58,0,1,,,,,,,,,0,,,74,0
26940,note_on,,2,0,1,,,,,,,,,0,,,79,89
27000,note_on,,60,0,1,,,,,,,,,0,,,72,89
27006,note_on,,6,0,1,,,,,,,,,0,,,79,0
27049,note_on,,149,0,2,,,,,,,,,1,,,51,0
27057,note_on,,51,0,1,,,,,,,,,0,,,67,0
27060,note_on,,11,0,2,,,,,,,,,1,,,52,93
27060,note_on,,3,0,1,,,,,,,,,0,,,70,89
27119,note_on,,59,0,1,,,,,,,,,0,,,70,0
27120,note_on,,1,0,1,,,,,,,,,0,,,69,98
27120,note_on,,60,0,2,,,,,,,,,1,,,53,89
27121,note_on,,1,0,2,,,,,,,,,1,,,52,0
27179,note_on,,59,0,1,,,,,,,,,0,,,72,0
27180,note_on,,1,0,1,,,,,,,,,0,,,74,80
27180,note_on,,59,0,2,,,,,,,,,1,,,54,80
27181,note_on,,1,0,2,,,,,,,,,1,,,53,0
27239,note_on,,58,0,2,,,,,,,,,1,,,54,0
27240,note_on,,60,0,1,,,,,,,,,0,,,70,72
27240,note_on,,0,0,1,,,,,,,,,0,,,67,93
27240,note_on,,1,0,2,,,,,,,,,1,,,55,89
27249,note_on,,9,0,1,,,,,,,,,0,,,69,0
27255,note_on,,6,0,1,,,,,,,,,0,,,74,0
27300,note_on,,45,0,1,,,,,,,,,0,,,70,0
27300,note_on,,0,0,1,,,,,,,,,0,,,72,93
27360,note_on,,120,0,2,,,,,,,,,1,,,62,93
27360,note_on,,60,0,1,,,,,,,,,0,,,69,89
27360,note_on,,0,0,2,,,,,,,,,1,,,50,98
27363,note_on,,3,0,2,,,,,,,,,1,,,55,0
27366,note_on,,6,0,1,,,,,,,,,0,,,72,0
27469,note_on,,103,0,1,,,,,,,,,0,,,67,0
27480,note_on,,11,0,1,,,,,,,,,0,,,66,85
27600,note_on,,120,0,1,,,,,,,,,0,,,67,93
27600,note_on,,0,0,1,,,,,,,,,0,,,67,93
27600,note_on,,237,0,2,,,,,,,,,1,,,58,98
27600,note_on,,0,0,2,,,,,,,,,1,,,55,85
27602,note_on,,2,0,2,,,,,,,,,1,,,50,0
27603,note_on,,3,0,1,,,,,,,,,0,,,66,0
27603,note_on,,0,0,1,,,,,,,,,0,,,69,0
27604,note_on,,2,0,2,,,,,,,,,1,,,62,0
27660,note_on,,56,0,2,,,,,,,,,1,,,53,85
27665,note_on,,5,0,2,,,,,,,,,1,,,55,0
27720,note_on,,55,0,2,,,,,,,,,1,,,51,89
27727,note_on,,7,0,2,,,,,,,,,1,,,53,0
27780,note_on,,53,0,2,,,,,,,,,1,,,57,89
27781,note_on,,1,0,2,,,,,,,,,1,,,58,0
27798,note_on,,195,0,1,,,,,,,,,0,,,67,0
27806,note_on,,25,0,2,,,,,,,,,1,,,57,0
27810,note_on,,4,0,2,,,,,,,,,1,,,55,80
27840,note_on,,30,0,2,,,,,,,,,1,,,54,102
27840,note_on,,42,0,1,,,,,,,,,0,,,72,98
27847,note_on,,7,0,1,,,,,,,,,0,,,67,0
27848,note_on,,8,0,2,,,,,,,,,1,,,55,0
27896,note_on,,48,0,2,,,,,,,,,1,,,54,0
27900,note_on,,4,0,2,,,,,,,,,1,,,55,93
27900,note_on,,0,0,2,,,,,,,,,1,,,50,93
27903,note_on,,3,0,2,,,,,,,,,1,,,51,0
27960,note_on,,57,0,2,,,,,,,,,1,,,55,0
27960,note_on,,0,0,2,,,,,,,,,1,,,57,98
27960,note_on,,0,0,2,,,,,,,,,1,,,48,93
27961,note_on,,1,0,2,,,,,,,,,1,,,50,0
28015,note_on,,168,0,1,,,,,,,,,0,,,72,0
28020,note_on,,5,0,1,,,,,,,,,0,,,69,93
28050,note_on,,0,0,1,,,,,,,,,0,,,67,85
28050,note_on,,30,0,1,,,,,,,,,0,,,69,0
28080,note_on,,30,0,1,,,,,,,,,0,,,66,76
28085,note_on,,5,0,1,,,,,,,,,0,,,67,0
28133,note_on,,172,0,2,,,,,,,,,1,,,57,0
28140,note_on,,7,0,2,,,,,,,,,1,,,63,89
28200,note_on,,0,0,2,,,,,,,,,1,,,50,102
28200,note_on,,60,0,2,,,,,,,,,1,,,62,80
28202,note_on,,2,0,2,,,,,,,,,1,,,63,0
28203,note_on,,1,0,2,,,,,,,,,1,,,48,0
28260,note_on,,57,0,2,,,,,,,,,1,,,60,93
28262,note_on,,2,0,2,,,,,,,,,1,,,62,0
28320,note_on,,0,0,1,,,,,,,,,0,,,67,102
28320,note_on,,235,0,1,,,,,,,,,0,,,67,93
28320,note_on,,58,0,2,,,,,,,,,1,,,58,85
28320,note_on,,0,0,2,,,,,,,,,1,,,51,85
28324,note_on,,4,0,2,,,,,,,,,1,,,60,0
28326,note_on,,2,0,2,,,,,,,,,1,,,50,0
28327,note_on,,7,0,1,,,,,,,,,0,,,66,0
28376,note_on,,50,0,2,,,,,,,,,1,,,58,0
28380,note_on,,4,0,2,,,,,,,,,1,,,59,89
28440,note_on,,60,0,2,,,,,,,,,1,,,60,89
28442,note_on,,2,0,2,,,,,,,,,1,,,59,0
28453,note_on,,126,0,1,,,,,,,,,0,,,67,0
28500,note_on,,58,0,2,,,,,,,,,1,,,61,89
28504,note_on,,4,0,2,,,,,,,,,1,,,60,0
28556,note_on,,52,0,2,,,,,,,,,1,,,61,0
28560,note_on,,107,0,1,,,,,,,,,0,,,65,93
28560,note_on,,0,0,2,,,,,,,,,1,,,50,98
28560,note_on,,4,0,2,,,,,,,,,1,,,62,89
28561,note_on,,1,0,1,,,,,,,,,0,,,67,0
28562,note_on,,2,0,2,,,,,,,,,1,,,51,0
28669,note_on,,107,0,2,,,,,,,,,1,,,50,0
28679,note_on,,10,0,2,,,,,,,,,1,,,62,0
28680,note_on,,0,0,2,,,,,,,,,1,,,46,102
28680,note_on,,1,0,2,,,,,,,,,1,,,56,93
28740,note_on,,179,0,1,,,,,,,,,0,,,64,93
28743,note_on,,3,0,1,,,,,,,,,0,,,65,0
28770,note_on,,27,0,1,,,,,,,,,0,,,62,80
28773,note_on,,3,0,1,,,,,,,,,0,,,64,0
28793,note_on,,113,0,2,,,,,,,,,1,,,56,0
28795,note_on,,2,0,2,,,,,,,,,1,,,46,0
28800,note_on,,5,0,2,,,,,,,,,1,,,57,102
28800,note_on,,27,0,1,,,,,,,,,0,,,61,76
28800,note_on,,0,0,2,,,,,,,,,1,,,45,98
28808,note_on,,8,0,1,,,,,,,,,0,,,62,0
28855,note_on,,47,0,1,,,,,,,,,0,,,61,0
28860,note_on,,5,0,1,,,,,,,,,0,,,62,93
28920,note_on,,60,0,1,,,,,,,,,0,,,64,93
28923,note_on,,3,0,1,,,,,,,,,0,,,62,0
28980,note_on,,0,0,2,,,,,,,,,1,,,47,98
28980,note_on,,0,0,2,,,,,,,,,1,,,56,89
28980,note_on,,180,0,2,,,,,,,,,1,,,57,0
28985,note_on,,5,0,2,,,,,,,,,1,,,45,0
29038,note_on,,53,0,2,,,,,,,,,1,,,56,0
29040,note_on,,2,0,2,,,,,,,,,1,,,55,89
29040,note_on,,0,0,2,,,,,,,,,1,,,49,93
29043,note_on,,3,0,2,,,,,,,,,1,,,47,0
29100,note_on,,177,0,1,,,,,,,,,0,,,70,89
29105,note_on,,5,0,1,,,,,,,,,0,,,64,0
29160,note_on,,117,0,2,,,,,,,,,1,,,53,93
29160,note_on,,55,0,1,,,,,,,,,0,,,69,89
29161,note_on,,1,0,1,,,,,,,,,0,,,70,0
29161,note_on,,1,0,2,,,,,,,,,1,,,55,0
29220,note_on,,0,0,1,,,,,,,,,0,,,67,89
29220,note_on,,59,0,1,,,,,,,,,0,,,69,0
29220,note_on,,59,0,2,,,,,,,,,1,,,52,80
29227,note_on,,7,0,2,,,,,,,,,1,,,53,0
29280,note_on,,0,0,1,,,,,,,,,0,,,65,93
29280,note_on,,60,0,1,,,,,,,,,0,,,77,93
29280,note_on,,0,0,2,,,,,,,,,1,,,50,93
29280,note_on,,53,0,2,,,,,,,,,1,,,50,98
29283,note_on,,3,0,1,,,,,,,,,0,,,67,0
29284,note_on,,4,0,2,,,,,,,,,1,,,49,0
29285,note_on,,1,0,2,,,,,,,,,1,,,52,0
29395,note_on,,112,0,1,,,,,,,,,0,,,65,0
29400,note_on,,5,0,1,,,,,,,,,0,,,70,93
29508,note_on,,108,0,1,,,,,,,,,0,,,77,0
29518,note_on,,233,0,2,,,,,,,,,1,,,50,0
29520,note_on,,0,0,1,,,,,,,,,0,,,62,89
29520,note_on,,12,0,1,,,,,,,,,0,,,74,93
29520,note_on,,0,0,2,,,,,,,,,1,,,46,93
29520,note_on,,2,0,2,,,,,,,,,1,,,53,102
29521,note_on,,1,0,1,,,,,,,,,0,,,70,0
29523,note_on,,3,0,2,,,,,,,,,1,,,50,0
29580,note_on,,59,0,1,,,,,,,,,0,,,65,93
29582,note_on,,2,0,1,,,,,,,,,0,,,62,0
29700,note_on,,118,0,1,,,,,,,,,0,,,72,80
29712,note_on,,12,0,1,,,,,,,,,0,,,74,0
29730,note_on,,18,0,1,,,,,,,,,0,,,70,59
29733,note_on,,3,0,1,,,,,,,,,0,,,72,0
29750,note_on,,227,0,2,,,,,,,,,1,,,46,0
29760,note_on,,27,0,1,,,,,,,,,0,,,69,80
29760,note_on,,0,0,1,,,,,,,,,0,,,63,89
29760,note_on,,10,0,2,,,,,,,,,1,,,48,93
29761,note_on,,1,0,1,,,,,,,,,0,,,70,0
29763,note_on,,2,0,1,,,,,,,,,0,,,65,0
29820,note_on,,60,0,2,,,,,,,,,1,,,46,85
29820,note_on,,0,0,1,,,,,,,,,0,,,62,89
29820,note_on,,57,0,1,,,,,,,,,0,,,70,85
29822,note_on,,2,0,1,,,,,,,,,0,,,69,0
29823,note_on,,1,0,1,,,,,,,,,0,,,63,0
29832,note_on,,12,0,2,,,,,,,,,1,,,48,0
29880,note_on,,0,0,1,,,,,,,,,0,,,60,89
29880,note_on,,48,0,2,,,,,,,,,1,,,45,93
29880,note_on,,0,0,1,,,,,,,,,0,,,72,89
29880,note_on,,57,0,1,,,,,,,,,0,,,62,0
29884,note_on,,4,0,2,,,,,,,,,1,,,46,0
29887,note_on,,7,0,1,,,,,,,,,0,,,70,0
29940,note_on,,56,0,2,,,,,,,,,1,,,43,85
29940,note_on,,53,0,1,,,,,,,,,0,,,58,85
29942,note_on,,2,0,2,,,,,,,,,1,,,45,0
29943,note_on,,3,0,1,,,,,,,,,0,,,60,0
29993,note_on,,51,0,2,,,,,,,,,1,,,43,0
30000,note_on,,7,0,2,,,,,,,,,1,,,41,93
30000,note_on,,57,0,1,,,,,,,,,0,,,57,93
30001,note_on,,1,0,1,,,,,,,,,0,,,58,0
30058,note_on,,57,0,1,,,,,,,,,0,,,72,0
30060,note_on,,60,0,2,,,,,,,,,1,,,63,89
30060,note_on,,2,0,1,,,,,,,,,0,,,79,89
30072,note_on,,12,0,2,,,,,,,,,1,,,53,0
30120,note_on,,60,0,1,,,,,,,,,0,,,77,80
30120,note_on,,48,0,2,,,,,,,,,1,,,62,89
30124,note_on,,4,0,1,,,,,,,,,0,,,79,0
30125,note_on,,5,0,2,,,,,,,,,1,,,63,0
30180,note_on,,56,0,1,,,,,,,,,0,,,75,85
30180,note_on,,55,0,2,,,,,,,,,1,,,60,89
30188,note_on,,8,0,2,,,,,,,,,1,,,62,0
30193,note_on,,13,0,1,,,,,,,,,0,,,57,0
30194,note_on,,1,0,1,,,,,,,,,0,,,77,0
30240,note_on,,0,0,1,,,,,,,,,0,,,58,93
30240,note_on,,46,0,1,,,,,,,,,0,,,74,89
30240,note_on,,0,0,2,,,,,,,,,1,,,46,89
30240,note_on,,52,0,2,,,,,,,,,1,,,58,89
30242,note_on,,2,0,1,,,,,,,,,0,,,75,0
30242,note_on,,2,0,2,,,,,,,,,1,,,41,0
30244,note_on,,2,0,2,,,,,,,,,1,,,60,0
30300,note_on,,58,0,1,,,,,,,,,0,,,65,93
30302,note_on,,2,0,1,,,,,,,,,0,,,58,0
30355,note_on,,111,0,2,,,,,,,,,1,,,58,0
30360,note_on,,5,0,2,,,,,,,,,1,,,55,93
30360,note_on,,58,0,1,,,,,,,,,0,,,70,85
30363,note_on,,3,0,1,,,,,,,,,0,,,65,0
30378,note_on,,15,0,1,,,,,,,,,0,,,74,0
30420,note_on,,42,0,1,,,,,,,,,0,,,74,85
30480,note_on,,120,0,2,,,,,,,,,1,,,52,93
30480,note_on,,60,0,1,,,,,,,,,0,,,72,85
30484,note_on,,4,0,2,,,,,,,,,1,,,55,0
30485,note_on,,5,0,1,,,,,,,,,0,,,74,0
30507,note_on,,23,0,2,,,,,,,,,1,,,46,0
30536,note_on,,51,0,1,,,,,,,,,0,,,70,0
30540,note_on,,4,0,1,,,,,,,,,0,,,67,93
30597,note_on,,90,0,2,,,,,,,,,1,,,52,0
30600,note_on,,3,0,2,,,,,,,,,1,,,53,93
30600,note_on,,60,0,1,,,,,,,,,0,,,68,93
30612,note_on,,12,0,1,,,,,,,,,0,,,67,0
30660,note_on,,48,0,1,,,,,,,,,0,,,77,89
30665,note_on,,5,0,1,,,,,,,,,0,,,72,0
30720,note_on,,55,0,1,,,,,,,,,0,,,70,89
30720,note_on,,120,0,2,,,,,,,,,1,,,62,102
30727,note_on,,7,0,2,,,,,,,,,1,,,53,0
30728,note_on,,8,0,1,,,,,,,,,0,,,77,0
30776,note_on,,48,0,1,,,,,,,,,0,,,68,0
30780,note_on,,4,0,1,,,,,,,,,0,,,65,89
30839,note_on,,112,0,2,,,,,,,,,1,,,62,0
30840,note_on,,1,0,2,,,,,,,,,1,,,63,93
30840,note_on,,60,0,1,,,,,,,,,0,,,67,93
30843,note_on,,3,0,1,,,,,,,,,0,,,65,0
30900,note_on,,57,0,1,,,,,,,,,0,,,75,76
30902,note_on,,2,0,1,,,,,,,,,0,,,70,0
30960,note_on,,58,0,1,,,,,,,,,0,,,68,89
30960,note_on,,120,0,2,,,,,,,,,1,,,60,93
30964,note_on,,4,0,1,,,,,,,,,0,,,75,0
30970,note_on,,10,0,2,,,,,,,,,1,,,63,0
31017,note_on,,53,0,1,,,,,,,,,0,,,67,0
31020,note_on,,3,0,1,,,,,,,,,0,,,63,76
31080,note_on,,60,0,1,,,,,,,,,0,,,65,89
31080,note_on,,110,0,2,,,,,,,,,1,,,62,102
31086,note_on,,6,0,2,,,,,,,,,1,,,60,0
31092,note_on,,12,0,1,,,,,,,,,0,,,63,0
31130,note_on,,38,0,1,,,,,,,,,0,,,68,0
31140,note_on,,10,0,1,,,,,,,,,0,,,70,85
31140,note_on,,0,0,1,,,,,,,,,0,,,67,76
31141,note_on,,1,0,1,,,,,,,,,0,,,65,0
31170,note_on,,0,0,1,,,,,,,,,0,,,65,72
31170,note_on,,29,0,1,,,,,,,,,0,,,68,85
31174,note_on,,4,0,1,,,,,,,,,0,,,67,0
31176,note_on,,2,0,1,,,,,,,,,0,,,70,0
31200,note_on,,0,0,1,,,,,,,,,0,,,63,98
31200,note_on,,114,0,2,,,,,,,,,1,,,62,0
31200,note_on,,0,0,2,,,,,,,,,1,,,63,89
31200,note_on,,0,0,2,,,,,,,,,1,,,51,93
31200,note_on,,24,0,1,,,,,,,,,0,,,67,93
31203,note_on,,3,0,1,,,,,,,,,0,,,65,0
31204,note_on,,1,0,1,,,,,,,,,0,,,68,0
31320,note_on,,120,0,2,,,,,,,,,1,,,58,93
31320,note_on,,116,0,1,,,,,,,,,0,,,75,89
31320,note_on,,0,0,1,,,,,,,,,0,,,67,98
31321,note_on,,1,0,1,,,,,,,,,0,,,67,0
31322,note_on,,2,0,2,,,,,,,,,1,,,63,0
31324,note_on,,3,0,1,,,,,,,,,0,,,63,0
31436,note_on,,112,0,1,,,,,,,,,0,,,67,0
31440,note_on,,0,0,2,,,,,,,,,1,,,48,89
31440,note_on,,118,0,2,,,,,,,,,1,,,51,0
31440,note_on,,4,0,1,,,,,,,,,0,,,68,80
31440,note_on,,0,0,2,,,,,,,,,1,,,51,107
31452,note_on,,12,0,2,,,,,,,,,1,,,58,0
31500,note_on,,60,0,1,,,,,,,,,0,,,72,76
31500,note_on,,0,0,1,,,,,,,,,0,,,63,85
31504,note_on,,4,0,1,,,,,,,,,0,,,75,0
31505,note_on,,1,0,1,,,,,,,,,0,,,68,0
31530,note_on,,25,0,1,,,,,,,,,0,,,70,72
31530,note_on,,0,0,1,,,,,,,,,0,,,61,76
31535,note_on,,5,0,1,,,,,,,,,0,,,63,0
31539,note_on,,4,0,1,,,,,,,,,0,,,72,0
31560,note_on,,21,0,1,,,,,,,,,0,,,68,76
31560,note_on,,0,0,1,,,,,,,,,0,,,60,76
31562,note_on,,2,0,1,,,,,,,,,0,,,70,0
31562,note_on,,0,0,1,,,,,,,,,0,,,61,0
31619,note_on,,167,0,2,,,,,,,,,1,,,48,0
31620,note_on,,0,0,1,,,,,,,,,0,,,61,76
31620,note_on,,58,0,1,,,,,,,,,0,,,70,80
31620,note_on,,1,0,2,,,,,,,,,1,,,46,89
31624,note_on,,4,0,1,,,,,,,,,0,,,60,0
31633,note_on,,9,0,1,,,,,,,,,0,,,68,0
31650,note_on,,0,0,1,,,,,,,,,0,,,63,93
31650,note_on,,30,0,2,,,,,,,,,1,,,44,72
31650,note_on,,17,0,1,,,,,,,,,0,,,72,80
31652,note_on,,2,0,1,,,,,,,,,0,,,61,0
31654,note_on,,2,0,1,,,,,,,,,0,,,70,0
31659,note_on,,9,0,2,,,,,,,,,1,,,46,0
31676,note_on,,22,0,1,,,,,,,,,0,,,63,0
31680,note_on,,4,0,1,,,,,,,,,0,,,73,80
31680,note_on,,0,0,1,,,,,,,,,0,,,65,93
31680,note_on,,21,0,2,,,,,,,,,1,,,43,72
31683,note_on,,3,0,2,,,,,,,,,1,,,44,0
31685,note_on,,5,0,1,,,,,,,,,0,,,72,0
31700,note_on,,17,0,2,,,,,,,,,1,,,51,0
31737,note_on,,52,0,1,,,,,,,,,0,,,73,0
31740,note_on,,0,0,1,,,,,,,,,0,,,63,80
31740,note_on,,40,0,2,,,,,,,,,1,,,44,80
31740,note_on,,3,0,1,,,,,,,,,0,,,72,89
31741,note_on,,1,0,2,,,,,,,,,1,,,43,0
31749,note_on,,9,0,1,,,,,,,,,0,,,65,0
31800,note_on,,51,0,1,,,,,,,,,0,,,70,80
31800,note_on,,0,0,1,,,,,,,,,0,,,61,80
31800,note_on,,59,0,2,,,,,,,,,1,,,46,85
31801,note_on,,1,0,2,,,,,,,,,1,,,44,0
31803,note_on,,3,0,1,,,,,,,,,0,,,63,0
31806,note_on,,3,0,1,,,,,,,,,0,,,72,0
31859,note_on,,53,0,1,,,,,,,,,0,,,70,0
31859,note_on,,0,0,1,,,,,,,,,0,,,61,0
31860,note_on,,0,0,1,,,,,,,,,0,,,60,85
31860,note_on,,1,0,1,,,,,,,,,0,,,68,76
31920,note_on,,60,0,1,,,,,,,,,0,,,60,0
31920,note_on,,0,0,1,,,,,,,,,0,,,67,93
31920,note_on,,0,0,1,,,,,,,,,0,,,58,89
31926,note_on,,6,0,1,,,,,,,,,0,,,68,0
31980,note_on,,179,0,2,,,,,,,,,1,,,49,85
31989,note_on,,9,0,2,,,,,,,,,1,,,46,0
32020,note_on,,31,0,2,,,,,,,,,1,,,49,0
32040,note_on,,20,0,2,,,,,,,,,1,,,48,85
32100,note_on,,60,0,2,,,,,,,,,1,,,46,80
32112,note_on,,12,0,2,,,,,,,,,1,,,48,0
32156,note_on,,230,0,1,,,,,,,,,0,,,58,0
32159,note_on,,47,0,2,,,,,,,,,1,,,46,0
32160,note_on,,0,0,1,,,,,,,,,0,,,66,80
32160,note_on,,4,0,1,,,,,,,,,0,,,75,93
32160,note_on,,1,0,2,,,,,,,,,1,,,45,93
32164,note_on,,4,0,1,,,,,,,,,0,,,67,0
32217,note_on,,53,0,1,,,,,,,,,0,,,66,0
32220,note_on,,3,0,1,,,,,,,,,0,,,73,80
32220,note_on,,60,0,2,,,,,,,,,1,,,46,85
32220,note_on,,0,0,1,,,,,,,,,0,,,65,93
32223,note_on,,3,0,2,,,,,,,,,1,,,45,0
32231,note_on,,11,0,1,,,,,,,,,0,,,75,0
32277,note_on,,54,0,2,,,,,,,,,1,,,46,0
32280,note_on,,0,0,1,,,,,,,,,0,,,72,85
32280,note_on,,3,0,2,,,,,,,,,1,,,48,93
32280,note_on,,49,0,1,,,,,,,,,0,,,73,0
32280,note_on,,0,0,1,,,,,,,,,0,,,63,85
32289,note_on,,9,0,1,,,,,,,,,0,,,65,0
32340,note_on,,0,0,1,,,,,,,,,0,,,61,89
32340,note_on,,51,0,1,,,,,,,,,0,,,70,76
32346,note_on,,6,0,1,,,,,,,,,0,,,72,0
32349,note_on,,3,0,1,,,,,,,,,0,,,63,0
32400,note_on,,0,0,1,,,,,,,,,0,,,60,93
32400,note_on,,51,0,1,,,,,,,,,0,,,69,89
32404,note_on,,4,0,1,,,,,,,,,0,,,61,0
32409,note_on,,5,0,1,,,,,,,,,0,,,70,0
32460,note_on,,180,0,2,,,,,,,,,1,,,51,89
32467,note_on,,7,0,2,,,,,,,,,1,,,48,0
32520,note_on,,53,0,2,,,,,,,,,1,,,49,76
32521,note_on,,1,0,2,,,,,,,,,1,,,51,0
32580,note_on,,59,0,2,,,,,,,,,1,,,48,80
32594,note_on,,14,0,2,,,,,,,,,1,,,49,0
32616,note_on,,207,0,1,,,,,,,,,0,,,60,0
32626,note_on,,10,0,1,,,,,,,,,0,,,69,0
32637,note_on,,43,0,2,,,,,,,,,1,,,48,0
32640,note_on,,0,0,1,,,,,,,,,0,,,68,98
32640,note_on,,14,0,1,,,,,,,,,0,,,77,89
32640,note_on,,3,0,2,,,,,,,,,1,,,47,93
32700,note_on,,60,0,1,,,,,,,,,0,,,75,72
32700,note_on,,0,0,1,,,,,,,,,0,,,67,93
32700,note_on,,60,0,2,,,,,,,,,1,,,48,85
32703,note_on,,3,0,1,,,,,,,,,0,,,68,0
32704,note_on,,4,0,2,,,,,,,,,1,,,47,0
32710,note_on,,7,0,1,,,,,,,,,0,,,77,0
32760,note_on,,56,0,2,,,,,,,,,1,,,50,93
32760,note_on,,50,0,1,,,,,,,,,0,,,74,89
32760,note_on,,0,0,1,,,,,,,,,0,,,65,89
32762,note_on,,2,0,1,,,,,,,,,0,,,67,0
32763,note_on,,1,0,1,,,,,,,,,0,,,75,0
32764,note_on,,4,0,2,,,,,,,,,1,,,48,0
32820,note_on,,0,0,1,,,,,,,,,0,,,63,98
32820,note_on,,57,0,1,,,,,,,,,0,,,72,89
32822,note_on,,2,0,1,,,,,,,,,0,,,74,0
32830,note_on,,8,0,1,,,,,,,,,0,,,65,0
32880,note_on,,0,0,1,,,,,,,,,0,,,62,93
32880,note_on,,50,0,1,,,,,,,,,0,,,71,98
32881,note_on,,1,0,1,,,,,,,,,0,,,63,0
32893,note_on,,12,0,1,,,,,,,,,0,,,72,0
32935,note_on,,171,0,2,,,,,,,,,1,,,50,0
32940,note_on,,5,0,2,,,,,,,,,1,,,56,93
33000,note_on,,60,0,2,,,,,,,,,1,,,55,85
33008,note_on,,8,0,2,,,,,,,,,1,,,56,0
33057,note_on,,49,0,2,,,,,,,,,1,,,55,0
33060,note_on,,3,0,2,,,,,,,,,1,,,53,80
33111,note_on,,218,0,1,,,,,,,,,0,,,62,0
33120,note_on,,60,0,2,,,,,,,,,1,,,55,93
33120,note_on,,0,0,2,,,,,,,,,1,,,51,72
33120,note_on,,9,0,1,,,,,,,,,0,,,72,93
33120,note_on,,0,0,1,,,,,,,,,0,,,60,93
33124,note_on,,4,0,1,,,,,,,,,0,,,71,0
33124,note_on,,4,0,2,,,,,,,,,1,,,53,0
33176,note_on,,52,0,2,,,,,,,,,1,,,51,0
33180,note_on,,4,0,2,,,,,,,,,1,,,50,89
33240,note_on,,60,0,2,,,,,,,,,1,,,48,89
33247,note_on,,7,0,2,,,,,,,,,1,,,50,0
33300,note_on,,53,0,2,,,,,,,,,1,,,50,93
33306,note_on,,6,0,2,,,,,,,,,1,,,48,0
33347,note_on,,41,0,2,,,,,,,,,1,,,55,0
33360,note_on,,13,0,2,,,,,,,,,1,,,60,93
33360,note_on,,0,0,2,,,,,,,,,1,,,51,62
33364,note_on,,4,0,2,,,,,,,,,1,,,50,0
33371,note_on,,247,0,1,,,,,,,,,0,,,72,0
33376,note_on,,5,0,1,,,,,,,,,0,,,60,0
33420,note_on,,0,0,2,,,,,,,,,1,,,58,60
33420,note_on,,56,0,2,,,,,,,,,1,,,51,0
33480,note_on,,60,0,2,,,,,,,,,1,,,57,93
33482,note_on,,2,0,2,,,,,,,,,1,,,58,0
33540,note_on,,58,0,2,,,,,,,,,1,,,62,85
33540,note_on,,0,0,2,,,,,,,,,1,,,55,76
33546,note_on,,6,0,2,,,,,,,,,1,,,57,0
33550,note_on,,4,0,2,,,,,,,,,1,,,60,0
33568,note_on,,18,0,2,,,,,,,,,1,,,62,0
33570,note_on,,2,0,2,,,,,,,,,1,,,63,62
33599,note_on,,29,0,2,,,,,,,,,1,,,63,0
33600,note_on,,224,0,1,,,,,,,,,0,,,74,107
33600,note_on,,1,0,2,,,,,,,,,1,,,62,93
33600,note_on,,0,0,2,,,,,,,,,1,,,54,89
33603,note_on,,3,0,2,,,,,,,,,1,,,55,0
33660,note_on,,57,0,2,,,,,,,,,1,,,60,80
33663,note_on,,3,0,2,,,,,,,,,1,,,62,0
33720,note_on,,57,0,2,,,,,,,,,1,,,58,80
33720,note_on,,0,0,2,,,,,,,,,1,,,55,93
33723,note_on,,3,0,2,,,,,,,,,1,,,54,0
33726,note_on,,3,0,2,,,,,,,,,1,,,60,0
33780,note_on,,54,0,2,,,,,,,,,1,,,53,72
33782,note_on,,2,0,2,,,,,,,,,1,,,55,0
33840,note_on,,240,0,1,,,,,,,,,0,,,70,89
33840,note_on,,58,0,2,,,,,,,,,1,,,51,93
33842,note_on,,2,0,1,,,,,,,,,0,,,74,0
33846,note_on,,6,0,2,,,,,,,,,1,,,53,0
33900,note_on,,54,0,2,,,,,,,,,1,,,57,93
33903,note_on,,3,0,2,,,,,,,,,1,,,58,0
33960,note_on,,57,0,2,,,,,,,,,1,,,58,80
33963,note_on,,3,0,2,,,,,,,,,1,,,57,0
34020,note_on,,0,0,2,,,,,,,,,1,,,60,89
34020,note_on,,57,0,2,,,,,,,,,1,,,58,0
34020,note_on,,178,0,1,,,,,,,,,0,,,69,76
34021,note_on,,1,0,1,,,,,,,,,0,,,70,0
34047,note_on,,26,0,1,,,,,,,,,0,,,69,0
34050,note_on,,3,0,1,,,,,,,,,0,,,67,89
34078,note_on,,58,0,2,,,,,,,,,1,,,51,0
34080,note_on,,0,0,1,,,,,,,,,0,,,62,98
34080,note_on,,0,0,2,,,,,,,,,1,,,50,93
34080,note_on,,30,0,1,,,,,,,,,0,,,66,93
34080,note_on,,2,0,2,,,,,,,,,1,,,60,0
34080,note_on,,0,0,2,,,,,,,,,1,,,62,89
34087,note_on,,7,0,1,,,,,,,,,0,,,67,0
34136,note_on,,49,0,1,,,,,,,,,0,,,66,0
34140,note_on,,4,0,1,,,,,,,,,0,,,67,89
34200,note_on,,60,0,1,,,,,,,,,0,,,69,98
34201,note_on,,1,0,1,,,,,,,,,0,,,67,0
34259,note_on,,179,0,2,,,,,,,,,1,,,62,0
34260,note_on,,1,0,2,,,,,,,,,1,,,60,85
34317,note_on,,57,0,2,,,,,,,,,1,,,60,0
34318,note_on,,117,0,1,,,,,,,,,0,,,69,0
34320,note_on,,3,0,2,,,,,,,,,1,,,58,80
34320,note_on,,0,0,1,,,,,,,,,0,,,67,98
34320,note_on,,0,0,1,,,,,,,,,0,,,70,89
34320,note_on,,2,0,1,,,,,,,,,0,,,62,0
34326,note_on,,6,0,2,,,,,,,,,1,,,50,0
34376,note_on,,56,0,1,,,,,,,,,0,,,70,0
34380,note_on,,4,0,1,,,,,,,,,0,,,72,89
34440,note_on,,60,0,1,,,,,,,,,0,,,74,89
34452,note_on,,12,0,1,,,,,,,,,0,,,72,0
34494,note_on,,168,0,2,,,,,,,,,1,,,58,0
34500,note_on,,6,0,2,,,,,,,,,1,,,57,85
34500,note_on,,48,0,1,,,,,,,,,0,,,69,89
34505,note_on,,5,0,1,,,,,,,,,0,,,67,0
34530,note_on,,30,0,2,,,,,,,,,1,,,55,72
34530,note_on,,25,0,1,,,,,,,,,0,,,70,89
34532,note_on,,2,0,2,,,,,,,,,1,,,57,0
34539,note_on,,9,0,1,,,,,,,,,0,,,69,0
34559,note_on,,20,0,1,,,,,,,,,0,,,74,0
34560,note_on,,0,0,2,,,,,,,,,1,,,57,102
34560,note_on,,28,0,2,,,,,,,,,1,,,61,93
34560,note_on,,1,0,1,,,,,,,,,0,,,69,93
34570,note_on,,10,0,2,,,,,,,,,1,,,55,0
34572,note_on,,12,0,1,,,,,,,,,0,,,70,0
34620,note_on,,48,0,1,,,,,,,,,0,,,69,0
34620,note_on,,0,0,1,,,,,,,,,0,,,67,89
34680,note_on,,60,0,1,,,,,,,,,0,,,65,93
34680,note_on,,110,0,2,,,,,,,,,1,,,62,98
34683,note_on,,3,0,1,,,,,,,,,0,,,67,0
34683,note_on,,3,0,2,,,,,,,,,1,,,61,0
34740,note_on,,57,0,2,,,,,,,,,1,,,57,89
34743,note_on,,3,0,2,,,,,,,,,1,,,62,0
34797,note_on,,0,0,2,,,,,,,,,1,,,57,0
34797,note_on,,54,0,2,,,,,,,,,1,,,57,0
34800,note_on,,0,0,2,,,,,,,,,1,,,53,89
34800,note_on,,3,0,2,,,,,,,,,1,,,62,98
34859,note_on,,176,0,1,,,,,,,,,0,,,65,0
34860,note_on,,1,0,1,,,,,,,,,0,,,64,93
34920,note_on,,60,0,1,,,,,,,,,0,,,65,89
34929,note_on,,9,0,1,,,,,,,,,0,,,64,0
34978,note_on,,178,0,2,,,,,,,,,1,,,53,0
34980,note_on,,0,0,2,,,,,,,,,1,,,52,93
34980,note_on,,2,0,2,,,,,,,,,1,,,60,80
34980,note_on,,51,0,1,,,,,,,,,0,,,67,85
34985,note_on,,5,0,1,,,,,,,,,0,,,65,0
34986,note_on,,6,0,2,,,,,,,,,1,,,62,0
35010,note_on,,0,0,2,,,,,,,,,1,,,50,89
35010,note_on,,24,0,2,,,,,,,,,1,,,58,60
35011,note_on,,1,0,2,,,,,,,,,1,,,52,0
35013,note_on,,2,0,2,,,,,,,,,1,,,60,0
35040,note_on,,27,0,2,,,,,,,,,1,,,57,89
35040,note_on,,0,0,2,,,,,,,,,1,,,49,89
35040,note_on,,55,0,1,,,,,,,,,0,,,69,107
35040,note_on,,0,0,1,,,,,,,,,0,,,69,85
35041,note_on,,1,0,2,,,,,,,,,1,,,58,0
35041,note_on,,0,0,2,,,,,,,,,1,,,50,0
35045,note_on,,5,0,1,,,,,,,,,0,,,67,0
35100,note_on,,55,0,1,,,,,,,,,0,,,69,0
35100,note_on,,0,0,1,,,,,,,,,0,,,64,85
35160,note_on,,60,0,1,,,,,,,,,0,,,69,89
35167,note_on,,7,0,1,,,,,,,,,0,,,64,0
35242,note_on,,201,0,2,,,,,,,,,1,,,57,0
35266,note_on,,99,0,1,,,,,,,,,0,,,69,0
35280,note_on,,14,0,1,,,,,,,,,0,,,69,0
35280,note_on,,0,0,1,,,,,,,,,0,,,70,89
35280,note_on,,0,0,1,,,,,,,,,0,,,67,93
35289,note_on,,47,0,2,,,,,,,,,1,,,49,0
35400,note_on,,120,0,1,,,,,,,,,0,,,65,93
35404,note_on,,4,0,1,,,,,,,,,0,,,67,0
35460,note_on,,56,0,1,,,,,,,,,0,,,72,80
35466,note_on,,6,0,1,,,,,,,,,0,,,70,0
35490,note_on,,0,0,1,,,,,,,,,0,,,74,80
35490,note_on,,24,0,1,,,,,,,,,0,,,72,0
35520,note_on,,30,0,1,,,,,,,,,0,,,72,76
35520,note_on,,0,0,1,,,,,,,,,0,,,64,98
35520,note_on,,231,0,2,,,,,,,,,1,,,60,93
35523,note_on,,3,0,1,,,,,,,,,0,,,65,0
35533,note_on,,10,0,1,,,,,,,,,0,,,74,0
35579,note_on,,46,0,1,,,,,,,,,0,,,72,0
35580,note_on,,1,0,1,,,,,,,,,0,,,70,72
35640,note_on,,60,0,1,,,,,,,,,0,,,69,89
35642,note_on,,2,0,1,,,,,,,,,0,,,70,0
35700,note_on,,58,0,1,,,,,,,,,0,,,65,89
35706,note_on,,6,0,1,,,,,,,,,0,,,64,0
35730,note_on,,24,0,1,,,,,,,,,0,,,64,89
35735,note_on,,5,0,1,,,,,,,,,0,,,65,0
35757,note_on,,237,0,2,,,,,,,,,1,,,60,0
35760,note_on,,3,0,2,,,,,,,,,1,,,57,93
35760,note_on,,0,0,2,,,,,,,,,1,,,50,102
35760,note_on,,25,0,1,,,,,,,,,0,,,64,0
35760,note_on,,0,0,1,,,,,,,,,0,,,65,89
35820,note_on,,60,0,1,,,,,,,,,0,,,67,89
35826,note_on,,6,0,1,,,,,,,,,0,,,69,0
35880,note_on,,54,0,1,,,,,,,,,0,,,69,89
35883,note_on,,3,0,1,,,,,,,,,0,,,67,0
35937,note_on,,54,0,1,,,,,,,,,0,,,69,0
35937,note_on,,177,0,2,,,,,,,,,1,,,57,0
35940,note_on,,3,0,2,,,,,,,,,1,,,55,80
35940,note_on,,3,0,1,,,,,,,,,0,,,71,89
35970,note_on,,30,0,2,,,,,,,,,1,,,53,89
35974,note_on,,4,0,2,,,,,,,,,1,,,55,0
36000,note_on,,0,0,2,,,,,,,,,1,,,48,93
36000,note_on,,26,0,2,,,,,,,,,1,,,52,76
36000,note_on,,60,0,1,,,,,,,,,0,,,72,93
36000,note_on,,0,0,1,,,,,,,,,0,,,64,93
36001,note_on,,1,0,2,,,,,,,,,1,,,53,0
36003,note_on,,2,0,2,,,,,,,,,1,,,50,0
36003,note_on,,3,0,1,,,,,,,,,0,,,71,0
36007,note_on,,4,0,1,,,,,,,,,0,,,65,0
36058,note_on,,51,0,1,,,,,,,,,0,,,72,0
36060,note_on,,2,0,1,,,,,,,,,0,,,74,89
36120,note_on,,60,0,1,,,,,,,,,0,,,76,93
36121,note_on,,1,0,1,,,,,,,,,0,,,74,0
36179,note_on,,176,0,2,,,,,,,,,1,,,48,0
36180,note_on,,0,0,2,,,,,,,,,1,,,47,89
36180,note_on,,1,0,2,,,,,,,,,1,,,50,85
36187,note_on,,7,0,2,,,,,,,,,1,,,52,0
36208,note_on,,21,0,2,,,,,,,,,1,,,47,0
36210,note_on,,0,0,2,,,,,,,,,1,,,45,89
36210,note_on,,0,0,2,,,,,,,,,1,,,48,72
36210,note_on,,2,0,2,,,,,,,,,1,,,50,0
36239,note_on,,118,0,1,,,,,,,,,0,,,64,0
36240,note_on,,30,0,2,,,,,,,,,1,,,47,72
36240,note_on,,0,0,2,,,,,,,,,1,,,44,93
36247,note_on,,7,0,2,,,,,,,,,1,,,48,0
36248,note_on,,1,0,2,,,,,,,,,1,,,45,0
36290,note_on,,51,0,1,,,,,,,,,0,,,76,0
36300,note_on,,10,0,1,,,,,,,,,0,,,77,76
36300,note_on,,0,0,2,,,,,,,,,1,,,45,93
36300,note_on,,52,0,2,,,,,,,,,1,,,48,93
36308,note_on,,8,0,2,,,,,,,,,1,,,47,0
36312,note_on,,4,0,2,,,,,,,,,1,,,44,0
36330,note_on,,30,0,1,,,,,,,,,0,,,76,76
36349,note_on,,19,0,1,,,,,,,,,0,,,77,0
36358,note_on,,46,0,2,,,,,,,,,1,,,45,0
36360,note_on,,2,0,2,,,,,,,,,1,,,50,93
36360,note_on,,0,0,2,,,,,,,,,1,,,47,98
36360,note_on,,11,0,1,,,,,,,,,0,,,74,76
36361,note_on,,1,0,2,,,,,,,,,1,,,48,0
36366,note_on,,6,0,1,,,,,,,,,0,,,76,0
36389,note_on,,23,0,1,,,,,,,,,0,,,74,0
36390,note_on,,1,0,1,,,,,,,,,0,,,72,80
36420,note_on,,30,0,1,,,,,,,,,0,,,71,76
36427,note_on,,7,0,1,,,,,,,,,0,,,72,0
36450,note_on,,23,0,1,,,,,,,,,0,,,69,80
36455,note_on,,5,0,1,,,,,,,,,0,,,71,0
36480,note_on,,25,0,1,,,,,,,,,0,,,68,107
36482,note_on,,2,0,1,,,,,,,,,0,,,69,0
36537,note_on,,176,0,2,,,,,,,,,1,,,47,0
36538,note_on,,1,0,2,,,,,,,,,1,,,50,0
36540,note_on,,0,0,2,,,,,,,,,1,,,50,98
36540,note_on,,2,0,2,,,,,,,,,1,,,53,89
36591,note_on,,109,0,1,,,,,,,,,0,,,68,0
36600,note_on,,9,0,1,,,,,,,,,0,,,69,93
36600,note_on,,0,0,2,,,,,,,,,1,,,48,89
36600,note_on,,60,0,2,,,,,,,,,1,,,52,89
36603,note_on,,3,0,2,,,,,,,,,1,,,50,0
36612,note_on,,9,0,2,,,,,,,,,1,,,53,0
36657,note_on,,45,0,2,,,,,,,,,1,,,52,0
36660,note_on,,3,0,2,,,,,,,,,1,,,48,80
36660,note_on,,0,0,2,,,,,,,,,1,,,45,93
36663,note_on,,3,0,2,,,,,,,,,1,,,48,0
36720,note_on,,0,0,2,,,,,,,,,1,,,42,80
36720,note_on,,57,0,2,,,,,,,,,1,,,45,93
36721,note_on,,1,0,2,,,,,,,,,1,,,45,0
36725,note_on,,4,0,2,,,,,,,,,1,,,48,0
36739,note_on,,139,0,1,,,,,,,,,0,,,69,0
36780,note_on,,55,0,2,,,,,,,,,1,,,46,93
36780,note_on,,0,0,2,,,,,,,,,1,,,43,93
36780,note_on,,41,0,1,,,,,,,,,0,,,75,76
36782,note_on,,2,0,2,,,,,,,,,1,,,45,0
36787,note_on,,5,0,2,,,,,,,,,1,,,42,0
36810,note_on,,30,0,1,,,,,,,,,0,,,74,80
36823,note_on,,13,0,1,,,,,,,,,0,,,75,0
36839,note_on,,16,0,1,,,,,,,,,0,,,74,0
36840,note_on,,0,0,2,,,,,,,,,1,,,45,93
36840,note_on,,0,0,2,,,,,,,,,1,,,48,93
36840,note_on,,53,0,2,,,,,,,,,1,,,46,0
36840,note_on,,1,0,1,,,,,,,,,0,,,72,80
36851,note_on,,11,0,2,,,,,,,,,1,,,43,0
36870,note_on,,30,0,1,,,,,,,,,0,,,72,0
36870,note_on,,0,0,1,,,,,,,,,0,,,70,68
36900,note_on,,30,0,1,,,,,,,,,0,,,69,76
36902,note_on,,2,0,1,,,,,,,,,0,,,70,0
36928,note_on,,26,0,1,,,,,,,,,0,,,69,0
36930,note_on,,2,0,1,,,,,,,,,0,,,67,56
36960,note_on,,30,0,1,,,,,,,,,0,,,67,0
36960,note_on,,0,0,1,,,,,,,,,0,,,66,89
37018,note_on,,167,0,2,,,,,,,,,1,,,48,0
37020,note_on,,0,0,2,,,,,,,,,1,,,48,80
37020,note_on,,2,0,2,,,,,,,,,1,,,51,85
37035,note_on,,15,0,2,,,,,,,,,1,,,45,0
37079,note_on,,119,0,1,,,,,,,,,0,,,66,0
37080,note_on,,1,0,1,,,,,,,,,0,,,67,93
37080,note_on,,45,0,2,,,,,,,,,1,,,50,93
37080,note_on,,0,0,2,,,,,,,,,1,,,46,89
37086,note_on,,6,0,2,,,,,,,,,1,,,51,0
37087,note_on,,1,0,2,,,,,,,,,1,,,48,0
37140,note_on,,0,0,2,,,,,,,,,1,,,43,76
37140,note_on,,53,0,2,,,,,,,,,1,,,46,80
37142,note_on,,2,0,2,,,,,,,,,1,,,46,0
37148,note_on,,6,0,2,,,,,,,,,1,,,50,0
37199,note_on,,119,0,1,,,,,,,,,0,,,67,0
37200,note_on,,0,0,2,,,,,,,,,1,,,51,93
37200,note_on,,52,0,2,,,,,,,,,1,,,55,93
37200,note_on,,1,0,1,,,,,,,,,0,,,74,80
37200,note_on,,0,0,1,,,,,,,,,0,,,60,93
37202,note_on,,2,0,2,,,,,,,,,1,,,43,0
37207,note_on,,5,0,2,,,,,,,,,1,,,46,0
37214,note_on,,14,0,1,,,,,,,,,0,,,74,0
37215,note_on,,1,0,1,,,,,,,,,0,,,72,89
37229,note_on,,14,0,1,,,,,,,,,0,,,72,0
37230,note_on,,1,0,1,,,,,,,,,0,,,74,76
37244,note_on,,14,0,1,,,,,,,,,0,,,74,0
37245,note_on,,1,0,1,,,,,,,,,0,,,72,80
37259,note_on,,14,0,1,,,,,,,,,0,,,72,0
37260,note_on,,1,0,1,,,,,,,,,0,,,74,76
37274,note_on,,14,0,1,,,,,,,,,0,,,74,0
37275,note_on,,1,0,1,,,,,,,,,0,,,72,64
37289,note_on,,14,0,1,,,,,,,,,0,,,72,0
37290,note_on,,1,0,1,,,,,,,,,0,,,74,72
37304,note_on,,14,0,1,,,,,,,,,0,,,74,0
37305,note_on,,1,0,1,,,,,,,,,0,,,72,72
37319,note_on,,14,0,1,,,,,,,,,0,,,72,0
37320,note_on,,1,0,1,,,,,,,,,0,,,74,68
37334,note_on,,14,0,1,,,,,,,,,0,,,74,0
37335,note_on,,1,0,1,,,,,,,,,0,,,72,68
37349,note_on,,14,0,1,,,,,,,,,0,,,72,0
37350,note_on,,1,0,1,,,,,,,,,0,,,74,76
37364,note_on,,14,0,1,,,,,,,,,0,,,74,0
37365,note_on,,1,0,1,,,,,,,,,0,,,72,80
37379,note_on,,14,0,1,,,,,,,,,0,,,72,0
37380,note_on,,1,0,1,,,,,,,,,0,,,71,89
37409,note_on,,29,0,1,,,,,,,,,0,,,71,0
37410,note_on,,1,0,1,,,,,,,,,0,,,72,76
37431,note_on,,21,0,1,,,,,,,,,0,,,60,0
37435,note_on,,228,0,2,,,,,,,,,1,,,55,0
37438,note_on,,3,0,2,,,,,,,,,1,,,51,0
37439,note_on,,8,0,1,,,,,,,,,0,,,72,0
37440,note_on,,2,0,2,,,,,,,,,1,,,53,89
37440,note_on,,0,0,2,,,,,,,,,1,,,50,93
37440,note_on,,0,0,1,,,,,,,,,0,,,65,93
37440,note_on,,1,0,1,,,,,,,,,0,,,74,93
37495,note_on,,55,0,1,,,,,,,,,0,,,74,0
37500,note_on,,60,0,2,,,,,,,,,1,,,55,93
37500,note_on,,5,0,1,,,,,,,,,0,,,75,64
37506,note_on,,6,0,2,,,,,,,,,1,,,53,0
37560,note_on,,0,0,1,,,,,,,,,0,,,77,89
37560,note_on,,60,0,1,,,,,,,,,0,,,75,0
37560,note_on,,54,0,2,,,,,,,,,1,,,56,72
37568,note_on,,8,0,2,,,,,,,,,1,,,55,0
37620,note_on,,52,0,2,,,,,,,,,1,,,51,85
37620,note_on,,60,0,1,,,,,,,,,0,,,67,85
37620,note_on,,0,0,2,,,,,,,,,1,,,48,76
37623,note_on,,3,0,1,,,,,,,,,0,,,65,0
37623,note_on,,3,0,2,,,,,,,,,1,,,56,0
37631,note_on,,8,0,2,,,,,,,,,1,,,50,0
37650,note_on,,27,0,1,,,,,,,,,0,,,68,68
37655,note_on,,5,0,1,,,,,,,,,0,,,67,0
37665,note_on,,34,0,2,,,,,,,,,1,,,51,0
37678,note_on,,13,0,2,,,,,,,,,1,,,48,0
37680,note_on,,2,0,2,,,,,,,,,1,,,50,93
37680,note_on,,25,0,1,,,,,,,,,0,,,67,76
37680,note_on,,0,0,2,,,,,,,,,1,,,47,93
37684,note_on,,4,0,1,,,,,,,,,0,,,68,0
37729,note_on,,45,0,1,,,,,,,,,0,,,77,0
37740,note_on,,0,0,1,,,,,,,,,0,,,65,76
37740,note_on,,11,0,1,,,,,,,,,0,,,74,80
37740,note_on,,60,0,2,,,,,,,,,1,,,55,98
37743,note_on,,3,0,1,,,,,,,,,0,,,67,0
37745,note_on,,5,0,2,,,,,,,,,1,,,50,0
37800,note_on,,57,0,1,,,,,,,,,0,,,72,85
37800,note_on,,0,0,1,,,,,,,,,0,,,63,85
37800,note_on,,55,0,2,,,,,,,,,1,,,48,85
37803,note_on,,3,0,1,,,,,,,,,0,,,74,0
37804,note_on,,4,0,2,,,,,,,,,1,,,47,0
37805,note_on,,2,0,1,,,,,,,,,0,,,65,0
37856,note_on,,52,0,2,,,,,,,,,1,,,55,0
37860,note_on,,4,0,2,,,,,,,,,1,,,56,98
37920,note_on,,60,0,2,,,,,,,,,1,,,50,98
37920,note_on,,115,0,1,,,,,,,,,0,,,62,93
37922,note_on,,2,0,2,,,,,,,,,1,,,56,0
37922,note_on,,0,0,2,,,,,,,,,1,,,48,0
37922,note_on,,2,0,1,,,,,,,,,0,,,63,0
37980,note_on,,58,0,2,,,,,,,,,1,,,54,107
38040,note_on,,60,0,2,,,,,,,,,1,,,43,89
38040,note_on,,118,0,1,,,,,,,,,0,,,70,89
38044,note_on,,4,0,2,,,,,,,,,1,,,50,0
38049,note_on,,9,0,1,,,,,,,,,0,,,72,0
38083,note_on,,39,0,2,,,,,,,,,1,,,54,0
38100,note_on,,17,0,2,,,,,,,,,1,,,55,93
38144,note_on,,44,0,2,,,,,,,,,1,,,55,0
38160,note_on,,111,0,1,,,,,,,,,0,,,64,93
38160,note_on,,16,0,2,,,,,,,,,1,,,49,89
38164,note_on,,4,0,1,,,,,,,,,0,,,62,0
38165,note_on,,5,0,2,,,,,,,,,1,,,43,0
38220,note_on,,55,0,2,,,,,,,,,1,,,55,102
38277,note_on,,113,0,1,,,,,,,,,0,,,70,0
38280,note_on,,60,0,2,,,,,,,,,1,,,57,89
38280,note_on,,3,0,1,,,,,,,,,0,,,69,93
38284,note_on,,4,0,2,,,,,,,,,1,,,55,0
38338,note_on,,54,0,2,,,,,,,,,1,,,57,0
38340,note_on,,2,0,2,,,,,,,,,1,,,58,89
38340,note_on,,0,0,1,,,,,,,,,0,,,67,76
38340,note_on,,60,0,1,,,,,,,,,0,,,69,0
38381,note_on,,41,0,2,,,,,,,,,1,,,58,0
38387,note_on,,47,0,1,,,,,,,,,0,,,67,0
38390,note_on,,9,0,2,,,,,,,,,1,,,49,0
38400,note_on,,10,0,2,,,,,,,,,1,,,50,93
38400,note_on,,0,0,2,,,,,,,,,1,,,58,89
38400,note_on,,0,0,1,,,,,,,,,0,,,67,89
38400,note_on,,0,0,1,,,,,,,,,0,,,62,89
38400,note_on,,13,0,1,,,,,,,,,0,,,64,0
38513,note_on,,113,0,1,,,,,,,,,0,,,67,0
38520,note_on,,7,0,1,,,,,,,,,0,,,66,80
38520,note_on,,120,0,2,,,,,,,,,1,,,57,93
38530,note_on,,10,0,2,,,,,,,,,1,,,58,0
38575,note_on,,55,0,1,,,,,,,,,0,,,66,0
38579,note_on,,49,0,2,,,,,,,,,1,,,57,0
38580,note_on,,5,0,1,,,,,,,,,0,,,64,49
38580,note_on,,1,0,2,,,,,,,,,1,,,55,89
38632,note_on,,52,0,2,,,,,,,,,1,,,55,0
38640,note_on,,0,0,1,,,,,,,,,0,,,66,93
38640,note_on,,60,0,1,,,,,,,,,0,,,64,0
38640,note_on,,8,0,2,,,,,,,,,1,,,57,89
39360,note_on,,0,0,1,,,,,,,,,0,,,62,0
39360,note_on,,0,0,2,,,,,,,,,1,,,55,107
39360,note_on,,720,0,1,,,,,,,,,0,,,66,0
39360,note_on,,720,0,2,,,,,,,,,1,,,57,0
39360,note_on,,0,0,2,,,,,,,,,1,,,50,0
39598,note_on,,238,0,2,,,,,,,,,1,,,55,0
39600,note_on,,2,0,2,,,,,,,,,1,,,58,93
39780,note_on,,180,0,2,,,,,,,,,1,,,60,85
39784,note_on,,4,0,2,,,,,,,,,1,,,58,0
39810,note_on,,26,0,2,,,,,,,,,1,,,62,80
39813,note_on,,3,0,2,,,,,,,,,1,,,60,0
39840,note_on,,27,0,2,,,,,,,,,1,,,63,85
39845,note_on,,5,0,2,,,,,,,,,1,,,62,0
39900,note_on,,55,0,2,,,,,,,,,1,,,62,89
39901,note_on,,1,0,2,,,,,,,,,1,,,63,0
39960,note_on,,59,0,2,,,,,,,,,1,,,60,93
39964,note_on,,4,0,2,,,,,,,,,1,,,62,0
40080,note_on,,720,0,1,,,,,,,,,0,,,74,102
40135,note_on,,171,0,2,,,,,,,,,1,,,60,0
40140,note_on,,5,0,2,,,,,,,,,1,,,54,80
40200,note_on,,60,0,2,,,,,,,,,1,,,55,93
40206,note_on,,6,0,2,,,,,,,,,1,,,54,0
40260,note_on,,54,0,2,,,,,,,,,1,,,57,89
40262,note_on,,2,0,2,,,,,,,,,1,,,55,0
40315,note_on,,53,0,2,,,,,,,,,1,,,57,0
40317,note_on,,237,0,1,,,,,,,,,0,,,74,0
40320,note_on,,5,0,2,,,,,,,,,1,,,55,93
40320,note_on,,3,0,1,,,,,,,,,0,,,70,93
40379,note_on,,59,0,2,,,,,,,,,1,,,55,0
40380,note_on,,1,0,2,,,,,,,,,1,,,57,89
40440,note_on,,60,0,2,,,,,,,,,1,,,58,89
40442,note_on,,2,0,2,,,,,,,,,1,,,57,0
40500,note_on,,180,0,1,,,,,,,,,0,,,69,89
40509,note_on,,9,0,1,,,,,,,,,0,,,70,0
40529,note_on,,20,0,1,,,,,,,,,0,,,69,0
40530,note_on,,1,0,1,,,,,,,,,0,,,67,76
40560,note_on,,30,0,1,,,,,,,,,0,,,66,93
40560,note_on,,118,0,2,,,,,,,,,1,,,58,0
40560,note_on,,0,0,2,,,,,,,,,1,,,60,89
40567,note_on,,7,0,1,,,,,,,,,0,,,67,0
40617,note_on,,50,0,1,,,,,,,,,0,,,66,0
40620,note_on,,60,0,2,,,,,,,,,1,,,58,76
40620,note_on,,3,0,1,,,,,,,,,0,,,67,89
40630,note_on,,10,0,2,,,,,,,,,1,,,60,0
40674,note_on,,54,0,1,,,,,,,,,0,,,67,0
40680,note_on,,6,0,1,,,,,,,,,0,,,69,93
40680,note_on,,50,0,2,,,,,,,,,1,,,58,0
40680,note_on,,0,0,2,,,,,,,,,1,,,57,93
40732,note_on,,52,0,2,,,,,,,,,1,,,57,0
40740,note_on,,8,0,2,,,,,,,,,1,,,55,76
40796,note_on,,56,0,2,,,,,,,,,1,,,55,0
40800,note_on,,4,0,2,,,,,,,,,1,,,54,80
40860,note_on,,180,0,1,,,,,,,,,0,,,75,85
40864,note_on,,4,0,1,,,,,,,,,0,,,69,0
40920,note_on,,56,0,1,,,,,,,,,0,,,75,0
40920,note_on,,0,0,1,,,,,,,,,0,,,74,89
40980,note_on,,60,0,1,,,,,,,,,0,,,72,85
40988,note_on,,8,0,1,,,,,,,,,0,,,74,0
41040,note_on,,52,0,1,,,,,,,,,0,,,70,85
41040,note_on,,0,0,1,,,,,,,,,0,,,67,89
41040,note_on,,240,0,2,,,,,,,,,1,,,55,93
41043,note_on,,3,0,2,,,,,,,,,1,,,54,0
41044,note_on,,4,0,1,,,,,,,,,0,,,72,0
41100,note_on,,0,0,1,,,,,,,,,0,,,72,89
41100,note_on,,57,0,2,,,,,,,,,1,,,57,93
41100,note_on,,56,0,1,,,,,,,,,0,,,70,0
41101,note_on,,1,0,2,,,,,,,,,1,,,55,0
41158,note_on,,58,0,1,,,,,,,,,0,,,72,0
41160,note_on,,2,0,1,,,,,,,,,0,,,74,89
41160,note_on,,59,0,2,,,,,,,,,1,,,58,85
41168,note_on,,8,0,2,,,,,,,,,1,,,57,0
41220,note_on,,52,0,2,,,,,,,,,1,,,57,80
41220,note_on,,60,0,1,,,,,,,,,0,,,72,76
41229,note_on,,9,0,1,,,,,,,,,0,,,74,0
41232,note_on,,12,0,2,,,,,,,,,1,,,58,0
41242,note_on,,10,0,2,,,,,,,,,1,,,57,0
41250,note_on,,8,0,2,,,,,,,,,1,,,55,76
41250,note_on,,21,0,1,,,,,,,,,0,,,70,62
41255,note_on,,5,0,1,,,,,,,,,0,,,72,0
41274,note_on,,24,0,2,,,,,,,,,1,,,55,0
41279,note_on,,0,0,1,,,,,,,,,0,,,67,0
41279,note_on,,24,0,1,,,,,,,,,0,,,70,0
41280,note_on,,1,0,1,,,,,,,,,0,,,69,85
41280,note_on,,0,0,1,,,,,,,,,0,,,65,93
41280,note_on,,6,0,2,,,,,,,,,1,,,50,107
41340,note_on,,60,0,1,,,,,,,,,0,,,71,93
41344,note_on,,4,0,1,,,,,,,,,0,,,69,0
41370,note_on,,26,0,1,,,,,,,,,0,,,73,68
41373,note_on,,3,0,1,,,,,,,,,0,,,71,0
41397,note_on,,24,0,1,,,,,,,,,0,,,73,0
41400,note_on,,3,0,1,,,,,,,,,0,,,74,98
41454,note_on,,174,0,2,,,,,,,,,1,,,50,0
41457,note_on,,57,0,1,,,,,,,,,0,,,65,0
41460,note_on,,3,0,1,,,,,,,,,0,,,64,85
41460,note_on,,6,0,2,,,,,,,,,1,,,52,89
41490,note_on,,30,0,2,,,,,,,,,1,,,53,85
41490,note_on,,30,0,1,,,,,,,,,0,,,62,72
41493,note_on,,3,0,1,,,,,,,,,0,,,64,0
41497,note_on,,7,0,2,,,,,,,,,1,,,52,0
41517,note_on,,24,0,1,,,,,,,,,0,,,74,0
41520,note_on,,0,0,1,,,,,,,,,0,,,61,85
41520,note_on,,3,0,1,,,,,,,,,0,,,76,93
41520,note_on,,23,0,2,,,,,,,,,1,,,55,102
41523,note_on,,3,0,2,,,,,,,,,1,,,53,0
41525,note_on,,5,0,1,,,,,,,,,0,,,62,0
41573,note_on,,48,0,1,,,,,,,,,0,,,61,0
41580,note_on,,0,0,1,,,,,,,,,0,,,74,89
41580,note_on,,7,0,1,,,,,,,,,0,,,76,0
41580,note_on,,0,0,1,,,,,,,,,0,,,62,85
41580,note_on,,57,0,2,,,,,,,,,1,,,53,80
41589,note_on,,9,0,2,,,,,,,,,1,,,55,0
41639,note_on,,59,0,1,,,,,,,,,0,,,62,0
41640,note_on,,51,0,2,,,,,,,,,1,,,52,89
41640,note_on,,0,0,1,,,,,,,,,0,,,64,89
41640,note_on,,1,0,1,,,,,,,,,0,,,79,93
41644,note_on,,4,0,1,,,,,,,,,0,,,74,0
41647,note_on,,7,0,2,,,,,,,,,1,,,53,0
41700,note_on,,53,0,2,,,,,,,,,1,,,50,85
41700,note_on,,0,0,1,,,,,,,,,0,,,65,76
41700,note_on,,56,0,1,,,,,,,,,0,,,77,76
41705,note_on,,5,0,1,,,,,,,,,0,,,79,0
41705,note_on,,5,0,2,,,,,,,,,1,,,52,0
41712,note_on,,7,0,1,,,,,,,,,0,,,64,0
41730,note_on,,0,0,1,,,,,,,,,0,,,67,80
41730,note_on,,18,0,1,,,,,,,,,0,,,76,76
41730,note_on,,25,0,2,,,,,,,,,1,,,49,80
41731,note_on,,1,0,1,,,,,,,,,0,,,65,0
41736,note_on,,5,0,1,,,,,,,,,0,,,77,0
41738,note_on,,8,0,2,,,,,,,,,1,,,50,0
41757,note_on,,21,0,1,,,,,,,,,0,,,67,0
41760,note_on,,0,0,2,,,,,,,,,1,,,50,98
41760,note_on,,22,0,2,,,,,,,,,1,,,50,93
41760,note_on,,0,0,1,,,,,,,,,0,,,65,51
41760,note_on,,3,0,1,,,,,,,,,0,,,74,102
41761,note_on,,1,0,1,,,,,,,,,0,,,76,0
41762,note_on,,2,0,2,,,,,,,,,1,,,49,0
41820,note_on,,59,0,1,,,,,,,,,0,,,69,85
41827,note_on,,7,0,1,,,,,,,,,0,,,65,0
41850,note_on,,23,0,1,,,,,,,,,0,,,67,80
41851,note_on,,1,0,1,,,,,,,,,0,,,69,0
41862,note_on,,100,0,2,,,,,,,,,1,,,50,0
41880,note_on,,29,0,1,,,,,,,,,0,,,65,80
41880,note_on,,18,0,2,,,,,,,,,1,,,57,102
41884,note_on,,4,0,1,,,,,,,,,0,,,67,0
41940,note_on,,56,0,1,,,,,,,,,0,,,64,72
41952,note_on,,12,0,1,,,,,,,,,0,,,65,0
41970,note_on,,0,0,1,,,,,,,,,0,,,62,72
41970,note_on,,18,0,1,,,,,,,,,0,,,64,0
41994,note_on,,114,0,2,,,,,,,,,1,,,50,0
41999,note_on,,29,0,1,,,,,,,,,0,,,62,0
42000,note_on,,1,0,1,,,,,,,,,0,,,69,93
42000,note_on,,6,0,2,,,,,,,,,1,,,53,93
42006,note_on,,6,0,1,,,,,,,,,0,,,74,0
42060,note_on,,60,0,2,,,,,,,,,1,,,59,85
42071,note_on,,11,0,2,,,,,,,,,1,,,57,0
42087,note_on,,16,0,2,,,,,,,,,1,,,59,0
42090,note_on,,3,0,2,,,,,,,,,1,,,61,89
42120,note_on,,30,0,2,,,,,,,,,1,,,61,0
42120,note_on,,0,0,2,,,,,,,,,1,,,62,85
42180,note_on,,60,0,2,,,,,,,,,1,,,55,93
42188,note_on,,8,0,2,,,,,,,,,1,,,53,0
42210,note_on,,22,0,2,,,,,,,,,1,,,57,85
42218,note_on,,8,0,2,,,,,,,,,1,,,55,0
42229,note_on,,223,0,1,,,,,,,,,0,,,69,0
42240,note_on,,22,0,2,,,,,,,,,1,,,58,89
42240,note_on,,11,0,1,,,,,,,,,0,,,67,89
42246,note_on,,6,0,2,,,,,,,,,1,,,57,0
42300,note_on,,54,0,2,,,,,,,,,1,,,60,76
42300,note_on,,0,0,2,,,,,,,,,1,,,57,93
42300,note_on,,60,0,1,,,,,,,,,0,,,66,80
42303,note_on,,3,0,2,,,,,,,,,1,,,58,0
42305,note_on,,5,0,1,,,,,,,,,0,,,67,0
42315,note_on,,12,0,2,,,,,,,,,1,,,62,0
42358,note_on,,53,0,1,,,,,,,,,0,,,66,0
42360,note_on,,2,0,1,,,,,,,,,0,,,67,93
42360,note_on,,0,0,2,,,,,,,,,1,,,55,93
42360,note_on,,0,0,2,,,,,,,,,1,,,58,93
42360,note_on,,45,0,2,,,,,,,,,1,,,57,0
42365,note_on,,5,0,2,,,,,,,,,1,,,60,0
42418,note_on,,58,0,1,,,,,,,,,0,,,67,0
42420,note_on,,2,0,1,,,,,,,,,0,,,69,93
42480,note_on,,60,0,1,,,,,,,,,0,,,70,89
42489,note_on,,9,0,1,,,,,,,,,0,,,69,0
42531,note_on,,166,0,2,,,,,,,,,1,,,58,0
42537,note_on,,6,0,2,,,,,,,,,1,,,55,0
42540,note_on,,0,0,2,,,,,,,,,1,,,49,89
42540,note_on,,3,0,2,,,,,,,,,1,,,67,93
42599,note_on,,110,0,1,,,,,,,,,0,,,70,0
42600,note_on,,0,0,2,,,,,,,,,1,,,50,93
42600,note_on,,60,0,2,,,,,,,,,1,,,65,93
42600,note_on,,1,0,1,,,,,,,,,0,,,69,93
42601,note_on,,1,0,2,,,,,,,,,1,,,49,0
42602,note_on,,1,0,2,,,,,,,,,1,,,67,0
42660,note_on,,58,0,2,,,,,,,,,1,,,64,93
42660,note_on,,0,0,2,,,,,,,,,1,,,52,89
42660,note_on,,60,0,1,,,,,,,,,0,,,67,80
42662,note_on,,2,0,1,,,,,,,,,0,,,69,0
42664,note_on,,0,0,2,,,,,,,,,1,,,50,0
42664,note_on,,4,0,2,,,,,,,,,1,,,65,0
42718,note_on,,54,0,2,,,,,,,,,1,,,52,0
42718,note_on,,56,0,1,,,,,,,,,0,,,67,0
42720,note_on,,0,0,2,,,,,,,,,1,,,53,85
42720,note_on,,2,0,2,,,,,,,,,1,,,62,98
42720,note_on,,2,0,1,,,,,,,,,0,,,65,89
42726,note_on,,6,0,2,,,,,,,,,1,,,64,0
42780,note_on,,54,0,2,,,,,,,,,1,,,51,80
42793,note_on,,13,0,2,,,,,,,,,1,,,53,0
42840,note_on,,47,0,2,,,,,,,,,1,,,50,98
42850,note_on,,10,0,2,,,,,,,,,1,,,51,0
42900,note_on,,50,0,2,,,,,,,,,1,,,63,80
42900,note_on,,180,0,1,,,,,,,,,0,,,67,93
42901,note_on,,1,0,1,,,,,,,,,0,,,65,0
42902,note_on,,2,0,2,,,,,,,,,1,,,62,0
42960,note_on,,58,0,2,,,,,,,,,1,,,65,93
42960,note_on,,59,0,1,,,,,,,,,0,,,68,80
42961,note_on,,1,0,2,,,,,,,,,1,,,63,0
42969,note_on,,9,0,1,,,,,,,,,0,,,67,0
43003,note_on,,42,0,2,,,,,,,,,1,,,50,0
43020,note_on,,17,0,2,,,,,,,,,1,,,47,89
43080,note_on,,111,0,1,,,,,,,,,0,,,67,89
43080,note_on,,60,0,2,,,,,,,,,1,,,63,76
43080,note_on,,0,0,2,,,,,,,,,1,,,48,85
43084,note_on,,4,0,1,,,,,,,,,0,,,68,0
43087,note_on,,7,0,2,,,,,,,,,1,,,47,0
43092,note_on,,5,0,2,,,,,,,,,1,,,65,0
43140,note_on,,56,0,1,,,,,,,,,0,,,65,85
43140,note_on,,48,0,2,,,,,,,,,1,,,62,93
43140,note_on,,0,0,2,,,,,,,,,1,,,50,89
43141,note_on,,1,0,2,,,,,,,,,1,,,48,0
43144,note_on,,3,0,2,,,,,,,,,1,,,63,0
43144,note_on,,4,0,1,,,,,,,,,0,,,67,0
43196,note_on,,52,0,2,,,,,,,,,1,,,62,0
43200,note_on,,4,0,2,,,,,,,,,1,,,60,89
43200,note_on,,0,0,2,,,,,,,,,1,,,51,80
43200,note_on,,56,0,1,,,,,,,,,0,,,67,93
43200,note_on,,0,0,1,,,,,,,,,0,,,63,76
43207,note_on,,7,0,1,,,,,,,,,0,,,65,0
43208,note_on,,8,0,2,,,,,,,,,1,,,50,0
43318,note_on,,110,0,2,,,,,,,,,1,,,60,0
43320,note_on,,2,0,2,,,,,,,,,1,,,55,85
43380,note_on,,60,0,2,,,,,,,,,1,,,50,85
43383,note_on,,3,0,2,,,,,,,,,1,,,51,0
43435,note_on,,228,0,1,,,,,,,,,0,,,67,0
43439,note_on,,56,0,2,,,,,,,,,1,,,50,0
43440,note_on,,5,0,1,,,,,,,,,0,,,72,98
43440,note_on,,1,0,2,,,,,,,,,1,,,48,93
43449,note_on,,9,0,1,,,,,,,,,0,,,63,0
43500,note_on,,0,0,2,,,,,,,,,1,,,58,80
43500,note_on,,60,0,2,,,,,,,,,1,,,48,0
43560,note_on,,0,0,2,,,,,,,,,1,,,56,85
43560,note_on,,60,0,2,,,,,,,,,1,,,60,93
43563,note_on,,3,0,2,,,,,,,,,1,,,55,0
43579,note_on,,16,0,2,,,,,,,,,1,,,58,0
43620,note_on,,171,0,1,,,,,,,,,0,,,74,89
43620,note_on,,41,0,2,,,,,,,,,1,,,55,89
43622,note_on,,2,0,1,,,,,,,,,0,,,72,0
43623,note_on,,3,0,2,,,,,,,,,1,,,56,0
43650,note_on,,28,0,1,,,,,,,,,0,,,75,68
43651,note_on,,1,0,1,,,,,,,,,0,,,74,0
43673,note_on,,22,0,1,,,,,,,,,0,,,75,0
43680,note_on,,57,0,2,,,,,,,,,1,,,53,93
43680,note_on,,7,0,1,,,,,,,,,0,,,77,76
43685,note_on,,5,0,2,,,,,,,,,1,,,55,0
43740,note_on,,55,0,2,,,,,,,,,1,,,62,89
43740,note_on,,60,0,1,,,,,,,,,0,,,75,76
43743,note_on,,3,0,2,,,,,,,,,1,,,60,0
43755,note_on,,15,0,1,,,,,,,,,0,,,77,0
43770,note_on,,27,0,2,,,,,,,,,1,,,63,76
43772,note_on,,2,0,2,,,,,,,,,1,,,62,0
43800,note_on,,45,0,1,,,,,,,,,0,,,74,98
43800,note_on,,0,0,2,,,,,,,,,1,,,65,93
43800,note_on,,28,0,2,,,,,,,,,1,,,63,0
43807,note_on,,7,0,1,,,,,,,,,0,,,75,0
43860,note_on,,60,0,2,,,,,,,,,1,,,63,89
43874,note_on,,14,0,2,,,,,,,,,1,,,65,0
43920,note_on,,46,0,2,,,,,,,,,1,,,62,98
43920,note_on,,0,0,2,,,,,,,,,1,,,55,89
43926,note_on,,6,0,2,,,,,,,,,1,,,53,0
43929,note_on,,3,0,2,,,,,,,,,1,,,63,0
43980,note_on,,173,0,1,,,,,,,,,0,,,71,85
43981,note_on,,1,0,1,,,,,,,,,0,,,74,0
44040,note_on,,59,0,1,,,,,,,,,0,,,72,89
44047,note_on,,7,0,1,,,,,,,,,0,,,71,0
44092,note_on,,163,0,2,,,,,,,,,1,,,62,0
44100,note_on,,8,0,2,,,,,,,,,1,,,59,98
44100,note_on,,53,0,1,,,,,,,,,0,,,74,89
44106,note_on,,6,0,1,,,,,,,,,0,,,72,0
44154,note_on,,54,0,2,,,,,,,,,1,,,55,0
44160,note_on,,6,0,2,,,,,,,,,1,,,60,93
44160,note_on,,0,0,2,,,,,,,,,1,,,48,89
44160,note_on,,54,0,1,,,,,,,,,0,,,75,93
44160,note_on,,0,0,1,,,,,,,,,0,,,60,102
44162,note_on,,2,0,2,,,,,,,,,1,,,59,0
44167,note_on,,7,0,1,,,,,,,,,0,,,74,0
44220,note_on,,58,0,2,,,,,,,,,1,,,55,85
44225,note_on,,5,0,2,,,,,,,,,1,,,60,0
44280,note_on,,55,0,2,,,,,,,,,1,,,56,98
44282,note_on,,2,0,2,,,,,,,,,1,,,55,0
44340,note_on,,173,0,1,,,,,,,,,0,,,74,89
44347,note_on,,7,0,1,,,,,,,,,0,,,75,0
44397,note_on,,50,0,1,,,,,,,,,0,,,60,0
44397,note_on,,115,0,2,,,,,,,,,1,,,56,0
44400,note_on,,3,0,1,,,,,,,,,0,,,72,89
44400,note_on,,0,0,1,,,,,,,,,0,,,66,89
44400,note_on,,3,0,2,,,,,,,,,1,,,57,98
44400,note_on,,0,0,2,,,,,,,,,1,,,50,93
44404,note_on,,4,0,2,,,,,,,,,1,,,48,0
44411,note_on,,11,0,1,,,,,,,,,0,,,74,0
44520,note_on,,109,0,1,,,,,,,,,0,,,74,98
44524,note_on,,4,0,1,,,,,,,,,0,,,72,0
44565,note_on,,41,0,1,,,,,,,,,0,,,66,0
44580,note_on,,15,0,1,,,,,,,,,0,,,67,93
44580,note_on,,176,0,2,,,,,,,,,1,,,55,85
44588,note_on,,8,0,2,,,,,,,,,1,,,57,0
44610,note_on,,22,0,2,,,,,,,,,1,,,54,72
44610,note_on,,30,0,1,,,,,,,,,0,,,69,89
44614,note_on,,4,0,2,,,,,,,,,1,,,55,0
44617,note_on,,7,0,1,,,,,,,,,0,,,67,0
44640,note_on,,26,0,2,,,,,,,,,1,,,55,62
44640,note_on,,23,0,1,,,,,,,,,0,,,70,80
44642,note_on,,2,0,1,,,,,,,,,0,,,69,0
44645,note_on,,5,0,2,,,,,,,,,1,,,54,0
44659,note_on,,14,0,2,,,,,,,,,1,,,50,0
44700,note_on,,58,0,1,,,,,,,,,0,,,69,85
44700,note_on,,41,0,2,,,,,,,,,1,,,57,93
44708,note_on,,8,0,1,,,,,,,,,0,,,70,0
44708,note_on,,8,0,2,,,,,,,,,1,,,55,0
44742,note_on,,34,0,1,,,,,,,,,0,,,74,0
44759,note_on,,51,0,2,,,,,,,,,1,,,57,0
44760,note_on,,1,0,2,,,,,,,,,1,,,58,76
44760,note_on,,0,0,1,,,,,,,,,0,,,67,89
44760,note_on,,18,0,1,,,,,,,,,0,,,74,93
44762,note_on,,2,0,1,,,,,,,,,0,,,69,0
44820,note_on,,60,0,2,,,,,,,,,1,,,55,80
44831,note_on,,11,0,2,,,,,,,,,1,,,58,0
44880,note_on,,49,0,2,,,,,,,,,1,,,51,89
44882,note_on,,2,0,2,,,,,,,,,1,,,55,0
44936,note_on,,174,0,1,,,,,,,,,0,,,67,0
44940,note_on,,4,0,1,,,,,,,,,0,,,66,80
44985,note_on,,45,0,1,,,,,,,,,0,,,74,0
45000,note_on,,0,0,1,,,,,,,,,0,,,67,89
45000,note_on,,0,0,1,,,,,,,,,0,,,72,93
45000,note_on,,15,0,1,,,,,,,,,0,,,66,0
45060,note_on,,60,0,1,,,,,,,,,0,,,69,85
45063,note_on,,3,0,1,,,,,,,,,0,,,67,0
45117,note_on,,54,0,1,,,,,,,,,0,,,72,0
45119,note_on,,2,0,1,,,,,,,,,0,,,69,0
45120,note_on,,238,0,2,,,,,,,,,1,,,50,89
45120,note_on,,1,0,1,,,,,,,,,0,,,74,89
45120,note_on,,0,0,1,,,,,,,,,0,,,66,76
45120,note_on,,0,0,2,,,,,,,,,1,,,50,93
45124,note_on,,4,0,2,,,,,,,,,1,,,51,0
45220,note_on,,100,0,1,,,,,,,,,0,,,66,0
45240,note_on,,20,0,1,,,,,,,,,0,,,62,89
45246,note_on,,6,0,1,,,,,,,,,0,,,74,0
45360,note_on,,236,0,2,,,,,,,,,1,,,46,93
45360,note_on,,114,0,1,,,,,,,,,0,,,74,93
45366,note_on,,6,0,2,,,,,,,,,1,,,50,0
45375,note_on,,9,0,2,,,,,,,,,1,,,50,0
45420,note_on,,60,0,1,,,,,,,,,0,,,58,76
45436,note_on,,16,0,1,,,,,,,,,0,,,62,0
45450,note_on,,14,0,1,,,,,,,,,0,,,58,0
45450,note_on,,0,0,1,,,,,,,,,0,,,57,89
45480,note_on,,30,0,1,,,,,,,,,0,,,55,76
45481,note_on,,1,0,1,,,,,,,,,0,,,57,0
45532,note_on,,157,0,2,,,,,,,,,1,,,46,0
45540,note_on,,59,0,1,,,,,,,,,0,,,72,85
45540,note_on,,8,0,2,,,,,,,,,1,,,45,89
45552,note_on,,12,0,1,,,,,,,,,0,,,74,0
45570,note_on,,18,0,1,,,,,,,,,0,,,70,60
45570,note_on,,30,0,2,,,,,,,,,1,,,43,89
45572,note_on,,2,0,2,,,,,,,,,1,,,45,0
45573,note_on,,3,0,1,,,,,,,,,0,,,72,0
45577,note_on,,4,0,1,,,,,,,,,0,,,55,0
45599,note_on,,22,0,1,,,,,,,,,0,,,70,0
45600,note_on,,0,0,2,,,,,,,,,1,,,42,89
45600,note_on,,28,0,2,,,,,,,,,1,,,63,93
45600,note_on,,1,0,1,,,,,,,,,0,,,69,80
45605,note_on,,5,0,2,,,,,,,,,1,,,43,0
45658,note_on,,53,0,2,,,,,,,,,1,,,42,0
45660,note_on,,2,0,2,,,,,,,,,1,,,43,89
45720,note_on,,120,0,1,,,,,,,,,0,,,72,98
45720,note_on,,60,0,2,,,,,,,,,1,,,45,98
45722,note_on,,2,0,1,,,,,,,,,0,,,69,0
45723,note_on,,3,0,2,,,,,,,,,1,,,43,0
45840,note_on,,0,0,2,,,,,,,,,1,,,60,85
45840,note_on,,117,0,2,,,,,,,,,1,,,63,0
45900,note_on,,178,0,1,,,,,,,,,0,,,69,85
45900,note_on,,60,0,2,,,,,,,,,1,,,51,80
45906,note_on,,6,0,1,,,,,,,,,0,,,72,0
45907,note_on,,7,0,2,,,,,,,,,1,,,45,0
45929,note_on,,23,0,1,,,,,,,,,0,,,69,0
45930,note_on,,1,0,1,,,,,,,,,0,,,67,72
45960,note_on,,53,0,2,,,,,,,,,1,,,50,85
45960,note_on,,0,0,1,,,,,,,,,0,,,66,80
45960,note_on,,30,0,1,,,,,,,,,0,,,74,93
45961,note_on,,1,0,2,,,,,,,,,1,,,51,0
45963,note_on,,3,0,1,,,,,,,,,0,,,67,0
46020,note_on,,59,0,2,,,,,,,,,1,,,58,72
46020,note_on,,0,0,2,,,,,,,,,1,,,48,89
46021,note_on,,1,0,2,,,,,,,,,1,,,50,0
46031,note_on,,10,0,2,,,,,,,,,1,,,60,0
46050,note_on,,19,0,2,,,,,,,,,1,,,57,72
46055,note_on,,5,0,2,,,,,,,,,1,,,58,0
46076,note_on,,21,0,2,,,,,,,,,1,,,57,0
46079,note_on,,116,0,1,,,,,,,,,0,,,66,0
46080,note_on,,4,0,2,,,,,,,,,1,,,55,72
46080,note_on,,0,0,2,,,,,,,,,1,,,46,93
46084,note_on,,4,0,2,,,,,,,,,1,,,48,0
46140,note_on,,56,0,2,,,,,,,,,1,,,57,89
46140,note_on,,61,0,1,,,,,,,,,0,,,70,76
46142,note_on,,2,0,2,,,,,,,,,1,,,55,0
46159,note_on,,19,0,1,,,,,,,,,0,,,74,0
46167,note_on,,8,0,1,,,,,,,,,0,,,70,0
46170,note_on,,3,0,1,,,,,,,,,0,,,69,72
46196,note_on,,26,0,1,,,,,,,,,0,,,69,0
46200,note_on,,4,0,1,,,,,,,,,0,,,67,93
46200,note_on,,58,0,2,,,,,,,,,1,,,58,72
46200,note_on,,0,0,1,,,,,,,,,0,,,67,93
46209,note_on,,9,0,2,,,,,,,,,1,,,57,0
46260,note_on,,51,0,2,,,,,,,,,1,,,45,98
46273,note_on,,13,0,2,,,,,,,,,1,,,46,0
46317,note_on,,44,0,2,,,,,,,,,1,,,45,0
46317,note_on,,117,0,1,,,,,,,,,0,,,67,0
46320,note_on,,3,0,2,,,,,,,,,1,,,43,89
46379,note_on,,59,0,2,,,,,,,,,1,,,43,0
46380,note_on,,1,0,2,,,,,,,,,1,,,41,85
46380,note_on,,63,0,1,,,,,,,,,0,,,64,80
46381,note_on,,1,0,1,,,,,,,,,0,,,67,0
46410,note_on,,29,0,1,,,,,,,,,0,,,62,68
46413,note_on,,3,0,1,,,,,,,,,0,,,64,0
46440,note_on,,27,0,1,,,,,,,,,0,,,61,89
46440,note_on,,60,0,2,,,,,,,,,1,,,39,107
46444,note_on,,4,0,2,,,,,,,,,1,,,41,0
46449,note_on,,9,0,1,,,,,,,,,0,,,62,0
46500,note_on,,56,0,2,,,,,,,,,1,,,57,89
46514,note_on,,14,0,2,,,,,,,,,1,,,58,0
46526,note_on,,12,0,2,,,,,,,,,1,,,57,0
46530,note_on,,4,0,2,,,,,,,,,1,,,55,85
46544,note_on,,95,0,1,,,,,,,,,0,,,61,0
46559,note_on,,29,0,2,,,,,,,,,1,,,55,0
46560,note_on,,16,0,1,,,,,,,,,0,,,62,98
46560,note_on,,1,0,2,,,,,,,,,1,,,54,85
46560,note_on,,0,0,2,,,,,,,,,1,,,38,93
46576,note_on,,16,0,2,,,,,,,,,1,,,39,0
46680,note_on,,120,0,1,,,,,,,,,0,,,74,98
46740,note_on,,164,0,2,,,,,,,,,1,,,52,80
46744,note_on,,4,0,2,,,,,,,,,1,,,54,0
46770,note_on,,26,0,2,,,,,,,,,1,,,54,76
46775,note_on,,5,0,2,,,,,,,,,1,,,52,0
46800,note_on,,25,0,2,,,,,,,,,1,,,54,0
46800,note_on,,0,0,2,,,,,,,,,1,,,55,85
46800,note_on,,120,0,1,,,,,,,,,0,,,63,85
46804,note_on,,4,0,1,,,,,,,,,0,,,62,0
46860,note_on,,56,0,1,,,,,,,,,0,,,72,76
46861,note_on,,1,0,1,,,,,,,,,0,,,74,0
46890,note_on,,29,0,1,,,,,,,,,0,,,71,80
46895,note_on,,5,0,1,,,,,,,,,0,,,72,0
46918,note_on,,23,0,1,,,,,,,,,0,,,71,0
46920,note_on,,2,0,1,,,,,,,,,0,,,72,89
46980,note_on,,180,0,2,,,,,,,,,1,,,57,80
46983,note_on,,3,0,2,,,,,,,,,1,,,55,0
46996,note_on,,13,0,2,,,,,,,,,1,,,38,0
47010,note_on,,14,0,2,,,,,,,,,1,,,55,80
47017,note_on,,7,0,2,,,,,,,,,1,,,57,0
47032,note_on,,15,0,2,,,,,,,,,1,,,55,0
47040,note_on,,0,0,2,,,,,,,,,1,,,38,107
47040,note_on,,8,0,2,,,,,,,,,1,,,54,89
47040,note_on,,120,0,1,,,,,,,,,0,,,63,0
47040,note_on,,0,0,1,,,,,,,,,0,,,62,93
47100,note_on,,60,0,1,,,,,,,,,0,,,70,76
47107,note_on,,7,0,1,,,,,,,,,0,,,72,0
47130,note_on,,23,0,1,,,,,,,,,0,,,69,80
47135,note_on,,5,0,1,,,,,,,,,0,,,70,0
47160,note_on,,25,0,1,,,,,,,,,0,,,70,68
47165,note_on,,5,0,1,,,,,,,,,0,,,69,0
47220,note_on,,180,0,2,,,,,,,,,1,,,55,98
47236,note_on,,16,0,2,,,,,,,,,1,,,54,0
47279,note_on,,43,0,2,,,,,,,,,1,,,55,0
47280,note_on,,1,0,2,,,,,,,,,1,,,60,93
47280,note_on,,115,0,1,,,,,,,,,0,,,63,85
47293,note_on,,13,0,1,,,,,,,,,0,,,62,0
47340,note_on,,47,0,1,,,,,,,,,0,,,69,85
47355,note_on,,15,0,1,,,,,,,,,0,,,70,0
47370,note_on,,15,0,1,,,,,,,,,0,,,67,89
47371,note_on,,1,0,1,,,,,,,,,0,,,69,0
47400,note_on,,29,0,1,,,,,,,,,0,,,69,89
47403,note_on,,3,0,1,,,,,,,,,0,,,67,0
47460,note_on,,0,0,1,,,,,,,,,0,,,62,89
47460,note_on,,0,0,2,,,,,,,,,1,,,58,76
47460,note_on,,180,0,2,,,,,,,,,1,,,60,0
47460,note_on,,57,0,1,,,,,,,,,0,,,63,0
47490,note_on,,30,0,2,,,,,,,,,1,,,57,93
47490,note_on,,30,0,1,,,,,,,,,0,,,60,64
47493,note_on,,3,0,2,,,,,,,,,1,,,58,0
47496,note_on,,6,0,1,,,,,,,,,0,,,62,0
47507,note_on,,14,0,2,,,,,,,,,1,,,38,0
47520,note_on,,13,0,2,,,,,,,,,1,,,57,0
47520,note_on,,0,0,2,,,,,,,,,1,,,58,80
47520,note_on,,0,0,2,,,,,,,,,1,,,38,102
47520,note_on,,24,0,1,,,,,,,,,0,,,62,89
47527,note_on,,7,0,1,,,,,,,,,0,,,60,0
47580,note_on,,53,0,1,,,,,,,,,0,,,67,76
47583,note_on,,3,0,1,,,,,,,,,0,,,69,0
47610,note_on,,27,0,1,,,,,,,,,0,,,66,72
47611,note_on,,1,0,1,,,,,,,,,0,,,67,0
47640,note_on,,29,0,1,,,,,,,,,0,,,67,93
47643,note_on,,3,0,1,,,,,,,,,0,,,66,0
47700,note_on,,180,0,2,,,,,,,,,1,,,57,93
47719,note_on,,19,0,2,,,,,,,,,1,,,58,0
47729,note_on,,10,0,2,,,,,,,,,1,,,57,0
47730,note_on,,1,0,2,,,,,,,,,1,,,55,93
47760,note_on,,30,0,2,,,,,,,,,1,,,57,93
47765,note_on,,5,0,2,,,,,,,,,1,,,55,0
47820,note_on,,177,0,1,,,,,,,,,0,,,65,85
47826,note_on,,6,0,1,,,,,,,,,0,,,67,0
47849,note_on,,23,0,1,,,,,,,,,0,,,65,0
47850,note_on,,1,0,1,,,,,,,,,0,,,64,80
47880,note_on,,30,0,1,,,,,,,,,0,,,65,85
47881,note_on,,1,0,1,,,,,,,,,0,,,64,0
47940,note_on,,59,0,1,,,,,,,,,0,,,60,85
47946,note_on,,6,0,1,,,,,,,,,0,,,62,0
47991,note_on,,226,0,2,,,,,,,,,1,,,38,0
47999,note_on,,8,0,2,,,,,,,,,1,,,57,0
48000,note_on,,0,0,1,,,,,,,,,0,,,59,98
48000,note_on,,54,0,1,,,,,,,,,0,,,67,93
48000,note_on,,0,0,2,,,,,,,,,1,,,55,89
48000,note_on,,1,0,2,,,,,,,,,1,,,43,98
48008,note_on,,8,0,1,,,,,,,,,0,,,60,0
48012,note_on,,4,0,1,,,,,,,,,0,,,65,0
48110,note_on,,110,0,2,,,,,,,,,1,,,55,0
48116,note_on,,104,0,1,,,,,,,,,0,,,67,0
48120,note_on,,4,0,1,,,,,,,,,0,,,79,93
48120,note_on,,10,0,2,,,,,,,,,1,,,47,93
48136,note_on,,16,0,1,,,,,,,,,0,,,59,0
48180,note_on,,60,0,2,,,,,,,,,1,,,45,76
48201,note_on,,21,0,2,,,,,,,,,1,,,47,0
48210,note_on,,9,0,2,,,,,,,,,1,,,47,80
48217,note_on,,7,0,2,,,,,,,,,1,,,45,0
48240,note_on,,23,0,2,,,,,,,,,1,,,47,0
48240,note_on,,0,0,2,,,,,,,,,1,,,48,62
48240,note_on,,104,0,1,,,,,,,,,0,,,75,93
48240,note_on,,0,0,1,,,,,,,,,0,,,67,89
48251,note_on,,11,0,1,,,,,,,,,0,,,79,0
48297,note_on,,57,0,2,,,,,,,,,1,,,48,0
48300,note_on,,3,0,2,,,,,,,,,1,,,50,59
48357,note_on,,57,0,2,,,,,,,,,1,,,50,0
48360,note_on,,3,0,2,,,,,,,,,1,,,51,89
48417,note_on,,166,0,1,,,,,,,,,0,,,67,0
48419,note_on,,2,0,1,,,,,,,,,0,,,75,0
48420,note_on,,60,0,2,,,,,,,,,1,,,53,76
48420,note_on,,1,0,1,,,,,,,,,0,,,74,72
48420,note_on,,0,0,1,,,,,,,,,0,,,65,80
48425,note_on,,5,0,2,,,,,,,,,1,,,51,0
48450,note_on,,30,0,1,,,,,,,,,0,,,72,62
48450,note_on,,0,0,1,,,,,,,,,0,,,63,62
48451,note_on,,1,0,1,,,,,,,,,0,,,74,0
48455,note_on,,4,0,1,,,,,,,,,0,,,65,0
48480,note_on,,55,0,2,,,,,,,,,1,,,55,93
48480,note_on,,25,0,1,,,,,,,,,0,,,71,93
48480,note_on,,0,0,1,,,,,,,,,0,,,62,93
48481,note_on,,1,0,1,,,,,,,,,0,,,63,0
48484,note_on,,4,0,2,,,,,,,,,1,,,53,0
48492,note_on,,11,0,1,,,,,,,,,0,,,72,0
48540,note_on,,48,0,1,,,,,,,,,0,,,72,85
48540,note_on,,0,0,1,,,,,,,,,0,,,63,76
48545,note_on,,5,0,1,,,,,,,,,0,,,71,0
48551,note_on,,6,0,1,,,,,,,,,0,,,62,0
48597,note_on,,46,0,1,,,,,,,,,0,,,63,0
48600,note_on,,3,0,1,,,,,,,,,0,,,74,89
48600,note_on,,0,0,1,,,,,,,,,0,,,65,85
48602,note_on,,2,0,1,,,,,,,,,0,,,72,0
48660,note_on,,58,0,1,,,,,,,,,0,,,71,85
48660,note_on,,0,0,1,,,,,,,,,0,,,62,85
48662,note_on,,2,0,1,,,,,,,,,0,,,65,0
48666,note_on,,4,0,1,,,,,,,,,0,,,74,0
48714,note_on,,48,0,1,,,,,,,,,0,,,71,0
48720,note_on,,6,0,1,,,,,,,,,0,,,72,89
48720,note_on,,0,0,1,,,,,,,,,0,,,63,76
48720,note_on,,236,0,2,,,,,,,,,1,,,51,93
48722,note_on,,2,0,1,,,,,,,,,0,,,62,0
48727,note_on,,7,0,2,,,,,,,,,1,,,55,0
48780,note_on,,0,0,1,,,,,,,,,0,,,65,89
48780,note_on,,58,0,1,,,,,,,,,0,,,74,85
48783,note_on,,3,0,1,,,,,,,,,0,,,63,0
48786,note_on,,3,0,1,,,,,,,,,0,,,72,0
48839,note_on,,53,0,1,,,,,,,,,0,,,65,0
48840,note_on,,0,0,1,,,,,,,,,0,,,67,85
48840,note_on,,1,0,1,,,,,,,,,0,,,75,89
48845,note_on,,5,0,1,,,,,,,,,0,,,74,0
48900,note_on,,173,0,2,,,,,,,,,1,,,50,89
48904,note_on,,4,0,2,,,,,,,,,1,,,51,0
48926,note_on,,22,0,2,,,,,,,,,1,,,50,0
48930,note_on,,4,0,2,,,,,,,,,1,,,48,72
48960,note_on,,115,0,1,,,,,,,,,0,,,74,93
48960,note_on,,30,0,2,,,,,,,,,1,,,47,98
48966,note_on,,6,0,1,,,,,,,,,0,,,75,0
48967,note_on,,7,0,2,,,,,,,,,1,,,48,0
49019,note_on,,53,0,1,,,,,,,,,0,,,67,0
49020,note_on,,1,0,1,,,,,,,,,0,,,68,89
49080,note_on,,60,0,1,,,,,,,,,0,,,67,93
49084,note_on,,4,0,1,,,,,,,,,0,,,68,0
49138,note_on,,54,0,1,,,,,,,,,0,,,67,0
49140,note_on,,2,0,1,,,,,,,,,0,,,65,85
49197,note_on,,230,0,2,,,,,,,,,1,,,47,0
49200,note_on,,3,0,2,,,,,,,,,1,,,48,93
49200,note_on,,60,0,1,,,,,,,,,0,,,63,80
49207,note_on,,7,0,1,,,,,,,,,0,,,65,0
49256,note_on,,49,0,1,,,,,,,,,0,,,63,0
49260,note_on,,60,0,2,,,,,,,,,1,,,50,89
49260,note_on,,4,0,1,,,,,,,,,0,,,65,89
49265,note_on,,5,0,2,,,,,,,,,1,,,48,0
49320,note_on,,0,0,1,,,,,,,,,0,,,67,85
49320,note_on,,60,0,1,,,,,,,,,0,,,72,93
49320,note_on,,55,0,2,,,,,,,,,1,,,51,85
49321,note_on,,1,0,1,,,,,,,,,0,,,65,0
49326,note_on,,6,0,2,,,,,,,,,1,,,50,0
49333,note_on,,12,0,1,,,,,,,,,0,,,74,0
49380,note_on,,54,0,2,,,,,,,,,1,,,48,85
49380,note_on,,47,0,1,,,,,,,,,0,,,65,76
49385,note_on,,5,0,1,,,,,,,,,0,,,67,0
49386,note_on,,6,0,2,,,,,,,,,1,,,51,0
49410,note_on,,25,0,1,,,,,,,,,0,,,63,76
49413,note_on,,3,0,1,,,,,,,,,0,,,65,0
49439,note_on,,26,0,1,,,,,,,,,0,,,63,0
49440,note_on,,1,0,1,,,,,,,,,0,,,62,93
49440,note_on,,54,0,2,,,,,,,,,1,,,55,93
49444,note_on,,4,0,2,,,,,,,,,1,,,48,0
49676,note_on,,236,0,1,,,,,,,,,0,,,72,0
49680,note_on,,0,0,1,,,,,,,,,0,,,67,89
49680,note_on,,4,0,1,,,,,,,,,0,,,71,93
49792,note_on,,112,0,1,,,,,,,,,0,,,71,0
49794,note_on,,2,0,1,,,,,,,,,0,,,67,0
49796,note_on,,2,0,1,,,,,,,,,0,,,62,0
49800,note_on,,4,0,1,,,,,,,,,0,,,69,89
49800,note_on,,0,0,1,,,,,,,,,0,,,66,76
49800,note_on,,0,0,1,,,,,,,,,0,,,60,89
49800,note_on,,0,0,1,,,,,,,,,0,,,63,76
49894,note_on,,450,0,2,,,,,,,,,1,,,55,0
49905,note_on,,105,0,1,,,,,,,,,0,,,60,0
49919,note_on,,14,0,1,,,,,,,,,0,,,69,0
49920,note_on,,0,0,1,,,,,,,,,0,,,62,93
49920,note_on,,1,0,1,,,,,,,,,0,,,59,98
49920,note_on,,0,0,1,,,,,,,,,0,,,67,89
49920,note_on,,26,0,2,,,,,,,,,1,,,55,98
49921,note_on,,1,0,1,,,,,,,,,0,,,66,0
49922,note_on,,1,0,1,,,,,,,,,0,,,63,0
50399,note_on,,0,0,1,,,,,,,,,0,,,59,0
50399,note_on,,479,0,2,,,,,,,,,1,,,43,0
50399,note_on,,477,0,1,,,,,,,,,0,,,62,0
50400,note_on,,1,0,1,,,,,,,,,0,,,67,0
50402,note_on,,3,0,2,,,,,,,,,1,,,55,0
50402,control_change,,0,0,2,,,,,,,,,1,121,0,,
50402,end_of_track,,0,1,1,,,,,,,,,,,,,
50402,end_of_track,,0,1,2,,,,,,,,,,,,,
50402,control_change,,2,0,1,,,,,,,,,0,121,0,,
