,note,step,duration,channel,velocity
0,74.0,46,60,0.0,0.0
1,79.0,59,60,0.0,0.0
2,74.0,2,60,0.0,0.0
3,67.0,1,60,0.0,0.0
4,71.0,2,60,0.0,0.0
5,62.0,1,40,1.0,0.0
6,55.0,11,40,1.0,0.0
7,83.0,41,60,0.0,0.0
8,81.0,58,60,0.0,0.0
9,72.0,0,60,0.0,0.0
10,66.0,1,60,0.0,0.0
11,62.0,17,40,1.0,0.0
12,50.0,1,40,1.0,0.0
13,74.0,2,60,0.0,0.0
14,78.0,42,60,0.0,0.0
15,86.0,59,180,0.0,0.0
16,74.0,96,60,0.0,0.0
17,67.0,1,60,0.0,0.0
18,71.0,2,60,0.0,0.0
19,62.0,25,40,1.0,0.0
20,43.0,0,40,1.0,0.0
21,83.0,11,40,0.0,0.0
22,79.0,37,15,0.0,0.0
23,81.0,41,60,0.0,0.0
24,69.0,3,60,0.0,0.0
25,74.0,0,60,0.0,0.0
26,45.0,1,30,1.0,0.0
27,66.0,2,60,0.0,0.0
28,62.0,21,30,1.0,0.0
29,78.0,15,40,0.0,0.0
30,74.0,37,15,0.0,0.0
31,76.0,10,40,0.0,0.0
32,57.0,0,30,1.0,0.0
33,45.0,6,30,1.0,0.0
34,67.0,2,60,0.0,0.0
35,73.0,0,60,0.0,0.0
36,69.0,1,60,0.0,0.0
37,78.0,3,15,0.0,0.0
38,76.0,6,15,0.0,0.0
39,74.0,41,15,0.0,0.0
40,76.0,18,40,0.0,0.0
41,78.0,42,15,0.0,0.0
42,74.0,42,120,0.0,0.0
43,66.0,1,60,0.0,0.0
44,69.0,66,60,0.0,0.0
45,38.0,17,40,1.0,0.0
46,50.0,1,40,1.0,0.0
47,76.0,3,15,0.0,0.0
48,74.0,7,15,0.0,0.0
49,73.0,41,15,0.0,0.0
50,74.0,15,40,0.0,0.0
51,76.0,15,15,0.0,0.0
52,77.0,0,15,0.0,0.0
53,71.0,55,15,0.0,0.0
54,67.0,1,15,0.0,0.0
55,62.0,1,15,1.0,0.0
56,43.0,0,15,1.0,0.0
57,77.0,5,15,0.0,0.0
58,62.0,0,15,1.0,0.0
59,43.0,0,15,1.0,0.0
60,71.0,57,15,0.0,0.0
61,67.0,1,15,0.0,0.0
62,77.0,1,15,0.0,0.0
63,67.0,1,15,0.0,0.0
64,71.0,58,15,0.0,0.0
65,62.0,1,15,1.0,0.0
66,43.0,1,15,1.0,0.0
67,43.0,77,15,1.0,0.0
68,62.0,1,15,1.0,0.0
69,67.0,2,15,0.0,0.0
70,71.0,0,15,0.0,0.0
71,77.0,0,15,0.0,0.0
72,67.0,6,240,0.0,0.0
73,72.0,1,120,0.0,0.0
74,48.0,0,120,1.0,0.0
75,60.0,1,120,1.0,0.0
76,78.0,33,30,0.0,0.0
77,76.0,28,30,0.0,0.0
78,75.0,27,30,0.0,0.0
79,78.0,38,30,0.0,0.0
80,79.0,72,40,0.0,0.0
81,55.0,15,180,1.0,0.0
82,47.0,0,120,1.0,0.0
83,74.0,65,120,0.0,0.0
84,79.0,5,60,0.0,0.0
85,81.0,7,150,0.0,0.0
86,76.0,6,120,0.0,0.0
87,48.0,44,90,1.0,0.0
88,67.0,1,20,1.0,0.0
89,74.0,13,60,0.0,0.0
90,50.0,6,120,1.0,0.0
91,67.0,15,15,1.0,0.0
92,66.0,6,15,1.0,0.0
93,67.0,9,15,1.0,0.0
94,83.0,2,15,0.0,0.0
95,81.0,7,15,0.0,0.0
96,66.0,0,15,1.0,0.0
97,79.0,4,15,0.0,0.0
98,67.0,11,15,1.0,0.0
99,72.0,60,60,0.0,0.0
100,81.0,3,40,0.0,0.0
101,66.0,13,15,1.0,0.0
102,64.0,8,15,1.0,0.0
103,83.0,1,15,0.0,0.0
104,66.0,2,15,1.0,0.0
105,79.0,3,120,0.0,0.0
106,43.0,41,60,1.0,0.0
107,67.0,5,120,1.0,0.0
108,71.0,28,120,0.0,0.0
109,47.0,13,40,1.0,0.0
110,50.0,8,15,1.0,0.0
111,55.0,86,40,1.0,0.0
112,79.0,60,60,0.0,0.0
113,55.0,38,15,1.0,0.0
114,62.0,4,15,1.0,0.0
115,67.0,6,60,0.0,0.0
116,74.0,8,15,0.0,0.0
117,71.0,1,60,0.0,0.0
118,83.0,12,60,0.0,0.0
119,81.0,57,60,0.0,0.0
120,50.0,2,15,1.0,0.0
121,66.0,0,60,0.0,0.0
122,74.0,1,60,0.0,0.0
123,72.0,0,60,0.0,0.0
124,62.0,44,15,1.0,0.0
125,78.0,15,60,0.0,0.0
126,86.0,41,180,0.0,0.0
127,62.0,56,15,1.0,0.0
128,43.0,1,15,1.0,0.0
129,67.0,1,60,0.0,0.0
130,71.0,112,60,0.0,0.0
131,74.0,1,60,0.0,0.0
132,83.0,20,40,0.0,0.0
133,79.0,17,20,0.0,0.0
134,66.0,2,60,0.0,0.0
135,74.0,12,60,0.0,0.0
136,69.0,2,40,0.0,0.0
137,62.0,4,20,1.0,0.0
138,45.0,24,30,1.0,0.0
139,81.0,40,60,0.0,0.0
140,78.0,12,40,0.0,0.0
141,74.0,21,15,0.0,0.0
142,69.0,1,40,0.0,0.0
143,45.0,19,20,1.0,0.0
144,57.0,1,20,1.0,0.0
145,67.0,1,40,0.0,0.0
146,76.0,9,40,0.0,0.0
147,73.0,1,40,0.0,0.0
148,78.0,10,15,0.0,0.0
149,76.0,0,15,0.0,0.0
150,74.0,38,15,0.0,0.0
151,76.0,16,40,0.0,0.0
152,78.0,24,15,0.0,0.0
153,38.0,32,20,1.0,0.0
154,50.0,3,20,1.0,0.0
155,69.0,0,60,0.0,0.0
156,74.0,40,120,0.0,0.0
157,66.0,74,60,0.0,0.0
158,76.0,5,15,0.0,0.0
159,74.0,6,15,0.0,0.0
160,73.0,42,15,0.0,0.0
161,74.0,20,40,0.0,0.0
162,76.0,8,15,0.0,0.0
163,71.0,0,15,0.0,0.0
164,67.0,2,15,0.0,0.0
165,77.0,56,15,0.0,0.0
166,43.0,2,15,1.0,0.0
167,62.0,0,15,1.0,0.0
168,77.0,3,15,0.0,0.0
169,62.0,1,15,1.0,0.0
170,43.0,0,15,1.0,0.0
171,71.0,57,15,0.0,0.0
172,67.0,0,15,0.0,0.0
173,77.0,3,15,0.0,0.0
174,67.0,2,15,0.0,0.0
175,71.0,1,15,0.0,0.0
176,43.0,53,15,1.0,0.0
177,62.0,0,15,1.0,0.0
178,77.0,2,15,0.0,0.0
179,62.0,0,15,1.0,0.0
180,43.0,79,15,1.0,0.0
181,67.0,2,15,0.0,0.0
182,71.0,1,15,0.0,0.0
183,60.0,1,120,1.0,0.0
184,48.0,37,120,1.0,0.0
185,67.0,6,240,0.0,0.0
186,72.0,3,120,0.0,0.0
187,78.0,28,30,0.0,0.0
188,76.0,35,30,0.0,0.0
189,75.0,23,30,0.0,0.0
190,78.0,0,30,0.0,0.0
191,79.0,74,40,0.0,0.0
192,74.0,58,120,0.0,0.0
193,55.0,14,180,1.0,0.0
194,47.0,2,120,1.0,0.0
195,79.0,3,60,0.0,0.0
196,81.0,8,150,0.0,0.0
197,48.0,2,90,1.0,0.0
198,76.0,8,120,0.0,0.0
199,67.0,48,20,1.0,0.0
200,74.0,13,60,0.0,0.0
201,67.0,14,15,1.0,0.0
202,50.0,0,120,1.0,0.0
203,66.0,9,15,1.0,0.0
204,67.0,6,15,1.0,0.0
205,83.0,1,15,0.0,0.0
206,79.0,7,15,0.0,0.0
207,66.0,2,15,1.0,0.0
208,81.0,1,15,0.0,0.0
209,67.0,13,15,1.0,0.0
210,72.0,56,60,0.0,0.0
211,66.0,9,15,1.0,0.0
212,64.0,13,15,1.0,0.0
213,83.0,2,15,0.0,0.0
214,66.0,1,15,1.0,0.0
215,67.0,5,120,1.0,0.0
216,43.0,44,60,1.0,0.0
217,79.0,33,120,0.0,0.0
218,47.0,19,40,1.0,0.0
219,50.0,5,15,1.0,0.0
220,55.0,15,40,1.0,0.0
221,71.0,58,15,0.0,0.0
222,76.0,62,60,0.0,0.0
223,64.0,21,40,0.0,0.0
224,71.0,1,40,0.0,0.0
225,67.0,3,40,0.0,0.0
226,79.0,53,60,0.0,0.0
227,69.0,1,60,0.0,0.0
228,63.0,1,60,0.0,0.0
229,59.0,59,60,0.0,0.0
230,78.0,0,60,0.0,0.0
231,47.0,3,60,1.0,0.0
232,75.0,60,60,0.0,0.0
233,52.0,57,60,1.0,0.0
234,67.0,1,60,0.0,0.0
235,83.0,19,150,0.0,0.0
236,40.0,2,120,1.0,0.0
237,55.0,1,60,1.0,0.0
238,64.0,16,60,0.0,0.0
239,62.0,25,15,0.0,0.0
240,43.0,1,120,1.0,0.0
241,53.0,22,60,1.0,0.0
242,50.0,4,60,1.0,0.0
243,83.0,35,20,0.0,0.0
244,77.0,45,60,0.0,0.0
245,36.0,5,120,1.0,0.0
246,48.0,7,120,1.0,0.0
247,76.0,52,120,0.0,0.0
248,84.0,10,40,0.0,0.0
249,83.0,45,15,0.0,0.0
250,86.0,14,40,0.0,0.0
251,84.0,1,15,0.0,0.0
252,88.0,17,60,0.0,0.0
253,49.0,42,20,1.0,0.0
254,69.0,116,60,0.0,0.0
255,76.0,1,60,0.0,0.0
256,50.0,4,210,1.0,0.0
257,71.0,58,120,0.0,0.0
258,79.0,1,120,0.0,0.0
259,61.0,1,60,1.0,0.0
260,78.0,41,60,0.0,0.0
261,62.0,0,60,1.0,0.0
262,69.0,1,60,0.0,0.0
263,54.0,20,40,1.0,0.0
264,86.0,35,60,0.0,0.0
265,74.0,16,120,0.0,0.0
266,55.0,1,60,1.0,0.0
267,50.0,5,360,1.0,0.0
268,76.0,21,40,0.0,0.0
269,57.0,7,40,1.0,0.0
270,76.0,23,15,0.0,0.0
271,72.0,15,40,0.0,0.0
272,71.0,0,15,0.0,0.0
273,59.0,58,15,1.0,0.0
274,60.0,59,60,1.0,0.0
275,69.0,1,60,0.0,0.0
276,88.0,39,60,0.0,0.0
277,59.0,1,60,1.0,0.0
278,64.0,7,120,1.0,0.0
279,67.0,0,60,0.0,0.0
280,72.0,5,60,0.0,0.0
281,57.0,1,120,1.0,0.0
282,78.0,21,40,0.0,0.0
283,62.0,5,40,1.0,0.0
284,78.0,30,15,0.0,0.0
285,71.0,5,40,0.0,0.0
286,69.0,57,15,0.0,0.0
287,60.0,3,15,1.0,0.0
288,59.0,4,60,1.0,0.0
289,74.0,21,15,0.0,0.0
290,57.0,0,60,1.0,0.0
291,72.0,35,20,0.0,0.0
292,71.0,0,60,0.0,0.0
293,67.0,2,60,0.0,0.0
294,43.0,9,40,1.0,0.0
295,55.0,1,180,1.0,0.0
296,62.0,3,60,0.0,0.0
297,79.0,58,60,0.0,0.0
298,83.0,35,60,0.0,0.0
299,81.0,5,60,0.0,0.0
300,38.0,24,30,1.0,0.0
301,66.0,1,60,0.0,0.0
302,72.0,49,60,0.0,0.0
303,62.0,4,60,0.0,0.0
304,78.0,4,60,0.0,0.0
305,50.0,43,60,1.0,0.0
306,86.0,46,180,0.0,0.0
307,43.0,17,40,1.0,0.0
308,67.0,1,60,0.0,0.0
309,62.0,1,60,0.0,0.0
310,71.0,51,60,0.0,0.0
311,55.0,3,60,1.0,0.0
312,59.0,37,60,1.0,0.0
313,62.0,1,60,0.0,0.0
314,66.0,1,60,0.0,0.0
315,72.0,0,60,0.0,0.0
316,57.0,0,60,1.0,0.0
317,50.0,23,30,1.0,0.0
318,84.0,14,40,0.0,0.0
319,54.0,1,60,1.0,0.0
320,81.0,18,15,0.0,0.0
321,62.0,9,150,1.0,0.0
322,67.0,9,30,0.0,0.0
323,74.0,0,30,0.0,0.0
324,47.0,32,60,1.0,0.0
325,79.0,12,15,0.0,0.0
326,43.0,8,40,1.0,0.0
327,74.0,3,40,0.0,0.0
328,79.0,5,30,0.0,0.0
329,71.0,1,40,0.0,0.0
330,47.0,34,15,1.0,0.0
331,74.0,0,30,0.0,0.0
332,71.0,20,30,0.0,0.0
333,79.0,4,20,0.0,0.0
334,50.0,3,60,1.0,0.0
335,83.0,4,15,0.0,0.0
336,81.0,9,15,0.0,0.0
337,67.0,11,20,1.0,0.0
338,38.0,1,60,1.0,0.0
339,72.0,6,40,0.0,0.0
340,74.0,1,40,0.0,0.0
341,79.0,9,15,0.0,0.0
342,81.0,2,40,0.0,0.0
343,66.0,7,15,1.0,0.0
344,64.0,9,15,1.0,0.0
345,66.0,3,15,1.0,0.0
346,83.0,63,15,0.0,0.0
347,67.0,57,180,1.0,0.0
348,43.0,36,60,1.0,0.0
349,79.0,1,120,0.0,0.0
350,71.0,56,120,0.0,0.0
351,74.0,0,120,0.0,0.0
352,47.0,13,40,1.0,0.0
353,50.0,14,20,1.0,0.0
354,55.0,4,60,1.0,0.0
355,71.0,53,15,0.0,0.0
356,67.0,5,60,0.0,0.0
357,64.0,1,60,0.0,0.0
358,76.0,59,60,0.0,0.0
359,79.0,49,60,0.0,0.0
360,78.0,31,60,0.0,0.0
361,69.0,1,60,0.0,0.0
362,63.0,2,60,0.0,0.0
363,59.0,3,60,0.0,0.0
364,75.0,62,60,0.0,0.0
365,47.0,26,30,1.0,0.0
366,83.0,41,150,0.0,0.0
367,67.0,55,60,0.0,0.0
368,52.0,4,60,1.0,0.0
369,40.0,3,120,1.0,0.0
370,55.0,6,60,1.0,0.0
371,64.0,15,60,0.0,0.0
372,43.0,2,120,1.0,0.0
373,62.0,2,20,0.0,0.0
374,53.0,56,60,1.0,0.0
375,83.0,2,60,0.0,0.0
376,50.0,0,60,1.0,0.0
377,77.0,44,60,0.0,0.0
378,76.0,7,120,0.0,0.0
379,48.0,30,60,1.0,0.0
380,36.0,3,60,1.0,0.0
381,84.0,14,40,0.0,0.0
382,83.0,9,15,0.0,0.0
383,86.0,11,40,0.0,0.0
384,84.0,62,15,0.0,0.0
385,88.0,56,60,0.0,0.0
386,49.0,117,60,1.0,0.0
387,69.0,3,60,0.0,0.0
388,76.0,2,60,0.0,0.0
389,79.0,36,120,0.0,0.0
390,71.0,1,120,0.0,0.0
391,50.0,6,210,1.0,0.0
392,61.0,0,60,1.0,0.0
393,78.0,27,60,0.0,0.0
394,62.0,13,60,1.0,0.0
395,69.0,15,40,0.0,0.0
396,54.0,22,40,1.0,0.0
397,86.0,37,60,0.0,0.0
398,74.0,14,120,0.0,0.0
399,50.0,9,360,1.0,0.0
400,55.0,6,60,1.0,0.0
401,76.0,18,40,0.0,0.0
402,57.0,10,40,1.0,0.0
403,72.0,5,40,0.0,0.0
404,76.0,20,15,0.0,0.0
405,59.0,14,20,1.0,0.0
406,71.0,54,20,0.0,0.0
407,60.0,53,60,1.0,0.0
408,69.0,3,60,0.0,0.0
409,88.0,35,60,0.0,0.0
410,59.0,7,60,1.0,0.0
411,64.0,3,120,1.0,0.0
412,67.0,2,60,0.0,0.0
413,72.0,10,60,0.0,0.0
414,57.0,6,120,1.0,0.0
415,78.0,23,40,0.0,0.0
416,62.0,4,40,1.0,0.0
417,71.0,6,40,0.0,0.0
418,78.0,24,15,0.0,0.0
419,69.0,47,20,0.0,0.0
420,60.0,3,20,1.0,0.0
421,59.0,6,60,1.0,0.0
422,74.0,24,15,0.0,0.0
423,57.0,2,60,1.0,0.0
424,72.0,41,20,0.0,0.0
425,62.0,3,60,0.0,0.0
426,55.0,6,40,1.0,0.0
427,67.0,1,60,0.0,0.0
428,71.0,3,60,0.0,0.0
429,43.0,1,40,1.0,0.0
430,79.0,61,60,0.0,0.0
431,83.0,53,60,0.0,0.0
432,81.0,1,60,0.0,0.0
433,66.0,3,60,0.0,0.0
434,38.0,51,60,1.0,0.0
435,72.0,3,60,0.0,0.0
436,62.0,0,60,0.0,0.0
437,78.0,58,60,0.0,0.0
438,50.0,4,60,1.0,0.0
439,86.0,2,180,0.0,0.0
440,67.0,1,60,0.0,0.0
441,71.0,52,60,0.0,0.0
442,55.0,4,60,1.0,0.0
443,43.0,4,60,1.0,0.0
444,62.0,3,60,0.0,0.0
445,59.0,46,60,1.0,0.0
446,62.0,2,40,0.0,0.0
447,57.0,11,60,1.0,0.0
448,50.0,33,60,1.0,0.0
449,72.0,11,40,0.0,0.0
450,66.0,1,40,0.0,0.0
451,54.0,7,60,1.0,0.0
452,84.0,10,40,0.0,0.0
453,81.0,26,20,0.0,0.0
454,79.0,21,40,0.0,0.0
455,67.0,8,30,0.0,0.0
456,74.0,2,30,0.0,0.0
457,47.0,38,60,1.0,0.0
458,62.0,19,120,1.0,0.0
459,43.0,3,40,1.0,0.0
460,71.0,7,40,0.0,0.0
461,74.0,1,40,0.0,0.0
462,79.0,1,40,0.0,0.0
463,47.0,15,20,1.0,0.0
464,79.0,6,30,0.0,0.0
465,50.0,1,60,1.0,0.0
466,74.0,3,30,0.0,0.0
467,71.0,15,30,0.0,0.0
468,83.0,2,15,0.0,0.0
469,81.0,8,15,0.0,0.0
470,79.0,16,15,0.0,0.0
471,38.0,61,60,1.0,0.0
472,67.0,13,15,1.0,0.0
473,74.0,2,40,0.0,0.0
474,72.0,1,40,0.0,0.0
475,81.0,3,40,0.0,0.0
476,66.0,9,15,1.0,0.0
477,64.0,13,15,1.0,0.0
478,83.0,1,15,0.0,0.0
479,66.0,0,15,1.0,0.0
480,74.0,2,120,0.0,0.0
481,43.0,39,60,1.0,0.0
482,71.0,1,120,0.0,0.0
483,67.0,26,180,1.0,0.0
484,79.0,5,120,0.0,0.0
485,47.0,23,40,1.0,0.0
486,50.0,55,20,1.0,0.0
487,55.0,1,60,1.0,0.0
488,71.0,29,30,0.0,0.0
489,79.0,26,30,0.0,0.0
490,74.0,35,30,0.0,0.0
491,62.0,21,150,1.0,0.0
492,55.0,11,120,1.0,0.0
493,67.0,0,90,0.0,0.0
494,71.0,2,90,0.0,0.0
495,83.0,26,30,0.0,0.0
496,79.0,22,30,0.0,0.0
497,86.0,27,30,0.0,0.0
498,50.0,4,90,1.0,0.0
499,83.0,4,30,0.0,0.0
500,69.0,1,30,0.0,0.0
501,66.0,3,30,0.0,0.0
502,84.0,29,30,0.0,0.0
503,81.0,4,30,0.0,0.0
504,69.0,4,30,0.0,0.0
505,72.0,0,30,0.0,0.0
506,62.0,8,40,1.0,0.0
507,78.0,22,15,0.0,0.0
508,79.0,32,15,0.0,0.0
509,71.0,18,90,0.0,0.0
510,43.0,27,120,1.0,0.0
511,67.0,0,90,0.0,0.0
512,62.0,0,120,1.0,0.0
513,81.0,6,15,0.0,0.0
514,79.0,4,15,0.0,0.0
515,78.0,23,15,0.0,0.0
516,79.0,25,15,0.0,0.0
517,81.0,4,15,0.0,0.0
518,83.0,31,30,0.0,0.0
519,84.0,28,30,0.0,0.0
520,86.0,32,30,0.0,0.0
521,83.0,28,30,0.0,0.0
522,45.0,25,150,1.0,0.0
523,66.0,1,120,0.0,0.0
524,69.0,2,180,0.0,0.0
525,80.0,32,30,0.0,0.0
526,62.0,28,120,1.0,0.0
527,81.0,32,30,0.0,0.0
528,86.0,28,30,0.0,0.0
529,78.0,3,30,0.0,0.0
530,81.0,4,30,0.0,0.0
531,64.0,3,60,0.0,0.0
532,61.0,29,90,1.0,0.0
533,80.0,9,30,0.0,0.0
534,79.0,10,15,0.0,0.0
535,45.0,6,20,1.0,0.0
536,75.0,33,30,0.0,0.0
537,76.0,26,30,0.0,0.0
538,67.0,30,120,0.0,0.0
539,69.0,23,180,0.0,0.0
540,50.0,33,60,1.0,0.0
541,61.0,1,90,1.0,0.0
542,78.0,1,30,0.0,0.0
543,45.0,2,60,1.0,0.0
544,79.0,9,30,0.0,0.0
545,64.0,0,30,1.0,0.0
546,73.0,16,15,0.0,0.0
547,62.0,1,60,1.0,0.0
548,38.0,4,60,1.0,0.0
549,76.0,12,30,0.0,0.0
550,66.0,0,60,0.0,0.0
551,74.0,20,15,0.0,0.0
552,85.0,33,30,0.0,0.0
553,86.0,32,30,0.0,0.0
554,71.0,25,40,0.0,0.0
555,84.0,4,30,0.0,0.0
556,67.0,1,40,0.0,0.0
557,65.0,1,30,1.0,0.0
558,62.0,0,30,1.0,0.0
559,43.0,0,30,1.0,0.0
560,55.0,0,30,1.0,0.0
561,83.0,25,30,0.0,0.0
562,65.0,1,30,1.0,0.0
563,62.0,7,40,1.0,0.0
564,67.0,1,40,0.0,0.0
565,81.0,4,30,0.0,0.0
566,71.0,13,40,0.0,0.0
567,55.0,1,30,1.0,0.0
568,43.0,1,30,1.0,0.0
569,79.0,31,30,0.0,0.0
570,78.0,6,30,0.0,0.0
571,71.0,15,40,0.0,0.0
572,67.0,2,40,0.0,0.0
573,65.0,4,40,1.0,0.0
574,62.0,1,40,1.0,0.0
575,55.0,0,30,1.0,0.0
576,43.0,2,30,1.0,0.0
577,79.0,31,30,0.0,0.0
578,81.0,1,30,0.0,0.0
579,65.0,23,40,1.0,0.0
580,62.0,3,40,1.0,0.0
581,67.0,2,30,0.0,0.0
582,55.0,1,30,1.0,0.0
583,43.0,0,30,1.0,0.0
584,71.0,6,30,0.0,0.0
585,83.0,2,15,0.0,0.0
586,84.0,30,15,0.0,0.0
587,67.0,22,180,0.0,0.0
588,72.0,20,120,0.0,0.0
589,64.0,7,60,1.0,0.0
590,60.0,7,90,1.0,0.0
591,55.0,4,90,1.0,0.0
592,43.0,5,180,1.0,0.0
593,86.0,7,15,0.0,0.0
594,84.0,13,15,0.0,0.0
595,83.0,13,15,0.0,0.0
596,84.0,9,15,0.0,0.0
597,88.0,30,15,0.0,0.0
598,85.0,25,30,0.0,0.0
599,71.0,4,60,0.0,0.0
600,62.0,1,60,1.0,0.0
601,55.0,2,40,1.0,0.0
602,86.0,3,30,0.0,0.0
603,83.0,8,30,0.0,0.0
604,79.0,32,15,0.0,0.0
605,76.0,32,15,0.0,0.0
606,67.0,10,120,0.0,0.0
607,69.0,2,120,0.0,0.0
608,64.0,0,120,1.0,0.0
609,48.0,17,120,1.0,0.0
610,83.0,9,15,0.0,0.0
611,81.0,9,15,0.0,0.0
612,80.0,11,15,0.0,0.0
613,81.0,29,15,0.0,0.0
614,83.0,20,15,0.0,0.0
615,86.0,14,30,0.0,0.0
616,85.0,38,15,0.0,0.0
617,69.0,1,20,0.0,0.0
618,66.0,7,20,0.0,0.0
619,84.0,6,30,0.0,0.0
620,50.0,5,30,1.0,0.0
621,62.0,9,40,1.0,0.0
622,80.0,42,20,0.0,0.0
623,81.0,23,30,0.0,0.0
624,66.0,0,90,0.0,0.0
625,62.0,8,120,1.0,0.0
626,55.0,28,60,1.0,0.0
627,72.0,4,90,0.0,0.0
628,83.0,6,30,0.0,0.0
629,84.0,10,30,0.0,0.0
630,50.0,0,40,1.0,0.0
631,69.0,6,15,0.0,0.0
632,78.0,36,30,0.0,0.0
633,67.0,1,60,0.0,0.0
634,81.0,12,30,0.0,0.0
635,62.0,0,60,1.0,0.0
636,43.0,22,60,1.0,0.0
637,79.0,17,15,0.0,0.0
638,71.0,1,15,0.0,0.0
639,79.0,33,30,0.0,0.0
640,74.0,38,30,0.0,0.0
641,67.0,2,90,0.0,0.0
642,55.0,27,120,1.0,0.0
643,62.0,0,150,1.0,0.0
644,71.0,22,90,0.0,0.0
645,83.0,26,40,0.0,0.0
646,79.0,4,30,0.0,0.0
647,86.0,3,30,0.0,0.0
648,69.0,1,30,0.0,0.0
649,66.0,0,30,0.0,0.0
650,83.0,29,30,0.0,0.0
651,50.0,2,90,1.0,0.0
652,84.0,31,30,0.0,0.0
653,81.0,2,30,0.0,0.0
654,69.0,0,30,0.0,0.0
655,72.0,20,30,0.0,0.0
656,62.0,1,30,1.0,0.0
657,78.0,14,20,0.0,0.0
658,79.0,33,15,0.0,0.0
659,67.0,3,120,0.0,0.0
660,71.0,0,120,0.0,0.0
661,62.0,27,120,1.0,0.0
662,43.0,1,120,1.0,0.0
663,81.0,8,15,0.0,0.0
664,79.0,9,15,0.0,0.0
665,78.0,16,15,0.0,0.0
666,79.0,26,15,0.0,0.0
667,81.0,22,15,0.0,0.0
668,83.0,28,30,0.0,0.0
669,84.0,27,30,0.0,0.0
670,86.0,25,30,0.0,0.0
671,83.0,36,20,0.0,0.0
672,69.0,11,180,0.0,0.0
673,66.0,2,120,0.0,0.0
674,80.0,30,30,0.0,0.0
675,45.0,19,150,1.0,0.0
676,62.0,27,120,1.0,0.0
677,81.0,29,30,0.0,0.0
678,86.0,30,30,0.0,0.0
679,78.0,2,30,0.0,0.0
680,81.0,10,30,0.0,0.0
681,61.0,20,90,1.0,0.0
682,64.0,1,60,0.0,0.0
683,80.0,15,30,0.0,0.0
684,79.0,0,15,0.0,0.0
685,45.0,16,40,1.0,0.0
686,75.0,31,30,0.0,0.0
687,76.0,24,30,0.0,0.0
688,67.0,32,120,0.0,0.0
689,69.0,23,180,0.0,0.0
690,61.0,22,90,1.0,0.0
691,50.0,26,60,1.0,0.0
692,78.0,6,30,0.0,0.0
693,45.0,3,60,1.0,0.0
694,79.0,2,30,0.0,0.0
695,64.0,0,30,1.0,0.0
696,73.0,1,20,0.0,0.0
697,76.0,12,30,0.0,0.0
698,66.0,1,60,0.0,0.0
699,62.0,2,60,1.0,0.0
700,38.0,3,60,1.0,0.0
701,74.0,20,15,0.0,0.0
702,85.0,33,30,0.0,0.0
703,86.0,31,30,0.0,0.0
704,84.0,2,30,0.0,0.0
705,67.0,1,40,0.0,0.0
706,71.0,23,40,0.0,0.0
707,65.0,1,30,1.0,0.0
708,43.0,0,30,1.0,0.0
709,62.0,3,30,1.0,0.0
710,55.0,0,30,1.0,0.0
711,83.0,30,30,0.0,0.0
712,81.0,1,30,0.0,0.0
713,71.0,14,40,0.0,0.0
714,67.0,3,40,0.0,0.0
715,65.0,8,30,1.0,0.0
716,62.0,0,30,1.0,0.0
717,43.0,2,30,1.0,0.0
718,55.0,0,30,1.0,0.0
719,79.0,30,30,0.0,0.0
720,65.0,1,40,1.0,0.0
721,62.0,1,40,1.0,0.0
722,67.0,2,40,0.0,0.0
723,43.0,4,30,1.0,0.0
724,78.0,2,30,0.0,0.0
725,71.0,23,40,0.0,0.0
726,55.0,0,30,1.0,0.0
727,79.0,18,30,0.0,0.0
728,65.0,4,30,1.0,0.0
729,67.0,2,30,0.0,0.0
730,81.0,8,40,0.0,0.0
731,71.0,2,30,0.0,0.0
732,62.0,0,30,1.0,0.0
733,43.0,3,20,1.0,0.0
734,55.0,3,20,1.0,0.0
735,83.0,25,15,0.0,0.0
736,84.0,34,15,0.0,0.0
737,72.0,19,120,0.0,0.0
738,67.0,19,180,0.0,0.0
739,64.0,7,90,1.0,0.0
740,60.0,0,90,1.0,0.0
741,43.0,12,90,1.0,0.0
742,55.0,5,90,1.0,0.0
743,86.0,8,15,0.0,0.0
744,84.0,11,15,0.0,0.0
745,83.0,11,15,0.0,0.0
746,84.0,4,15,0.0,0.0
747,88.0,25,15,0.0,0.0
748,71.0,1,60,0.0,0.0
749,85.0,15,30,0.0,0.0
750,43.0,2,30,1.0,0.0
751,62.0,15,40,1.0,0.0
752,55.0,2,40,1.0,0.0
753,86.0,9,30,0.0,0.0
754,83.0,9,30,0.0,0.0
755,79.0,28,15,0.0,0.0
756,76.0,37,15,0.0,0.0
757,67.0,31,120,0.0,0.0
758,69.0,1,120,0.0,0.0
759,48.0,18,90,1.0,0.0
760,64.0,1,90,1.0,0.0
761,83.0,9,15,0.0,0.0
762,81.0,8,15,0.0,0.0
763,80.0,12,15,0.0,0.0
764,81.0,27,15,0.0,0.0
765,83.0,1,15,0.0,0.0
766,86.0,30,30,0.0,0.0
767,85.0,24,30,0.0,0.0
768,62.0,4,40,1.0,0.0
769,50.0,10,40,1.0,0.0
770,66.0,4,20,0.0,0.0
771,69.0,0,20,0.0,0.0
772,84.0,10,30,0.0,0.0
773,80.0,38,20,0.0,0.0
774,81.0,23,30,0.0,0.0
775,55.0,21,60,1.0,0.0
776,62.0,0,90,1.0,0.0
777,66.0,4,90,0.0,0.0
778,72.0,3,90,0.0,0.0
779,83.0,11,20,0.0,0.0
780,84.0,9,30,0.0,0.0
781,50.0,14,40,1.0,0.0
782,78.0,34,30,0.0,0.0
783,69.0,2,15,0.0,0.0
784,81.0,12,30,0.0,0.0
785,67.0,1,60,0.0,0.0
786,71.0,5,60,0.0,0.0
787,43.0,2,60,1.0,0.0
788,62.0,20,60,1.0,0.0
789,79.0,15,15,0.0,0.0
790,71.0,12,20,0.0,0.0
791,79.0,57,15,0.0,0.0
792,71.0,7,210,0.0,0.0
793,64.0,15,90,0.0,0.0
794,67.0,4,90,0.0,0.0
795,76.0,29,30,0.0,0.0
796,83.0,28,30,0.0,0.0
797,79.0,5,30,0.0,0.0
798,88.0,30,20,0.0,0.0
799,87.0,6,30,0.0,0.0
800,69.0,7,30,0.0,0.0
801,66.0,25,40,0.0,0.0
802,83.0,6,30,0.0,0.0
803,81.0,14,15,0.0,0.0
804,66.0,3,30,0.0,0.0
805,63.0,1,30,0.0,0.0
806,47.0,8,20,1.0,0.0
807,78.0,13,15,0.0,0.0
808,54.0,15,30,1.0,0.0
809,52.0,7,30,1.0,0.0
810,79.0,19,15,0.0,0.0
811,71.0,17,60,0.0,0.0
812,64.0,1,60,0.0,0.0
813,67.0,0,60,0.0,0.0
814,40.0,21,120,1.0,0.0
815,81.0,8,15,0.0,0.0
816,59.0,1,20,1.0,0.0
817,79.0,6,15,0.0,0.0
818,78.0,14,15,0.0,0.0
819,79.0,1,15,0.0,0.0
820,55.0,10,20,1.0,0.0
821,81.0,14,15,0.0,0.0
822,64.0,3,20,1.0,0.0
823,43.0,5,120,1.0,0.0
824,62.0,10,30,1.0,0.0
825,83.0,15,15,0.0,0.0
826,77.0,1,60,0.0,0.0
827,67.0,2,180,0.0,0.0
828,59.0,8,30,1.0,0.0
829,84.0,16,15,0.0,0.0
830,86.0,3,20,0.0,0.0
831,55.0,18,30,1.0,0.0
832,71.0,5,60,0.0,0.0
833,84.0,15,15,0.0,0.0
834,53.0,15,15,1.0,0.0
835,87.0,4,15,0.0,0.0
836,36.0,12,120,1.0,0.0
837,52.0,13,15,1.0,0.0
838,88.0,18,20,0.0,0.0
839,72.0,2,60,0.0,0.0
840,80.0,3,20,0.0,0.0
841,54.0,9,15,1.0,0.0
842,52.0,6,15,1.0,0.0
843,51.0,11,15,1.0,0.0
844,81.0,11,30,0.0,0.0
845,52.0,20,15,1.0,0.0
846,56.0,4,15,1.0,0.0
847,83.0,32,30,0.0,0.0
848,84.0,29,30,0.0,0.0
849,57.0,1,60,1.0,0.0
850,76.0,31,30,0.0,0.0
851,64.0,2,60,1.0,0.0
852,69.0,0,60,0.0,0.0
853,49.0,27,60,1.0,0.0
854,83.0,27,30,0.0,0.0
855,81.0,3,30,0.0,0.0
856,71.0,3,60,0.0,0.0
857,79.0,30,30,0.0,0.0
858,62.0,25,180,1.0,0.0
859,50.0,48,210,1.0,0.0
860,82.0,29,30,0.0,0.0
861,73.0,29,60,0.0,0.0
862,83.0,9,30,0.0,0.0
863,79.0,22,15,0.0,0.0
864,78.0,5,30,0.0,0.0
865,74.0,18,40,0.0,0.0
866,85.0,5,20,0.0,0.0
867,66.0,4,30,0.0,0.0
868,69.0,2,30,0.0,0.0
869,86.0,12,30,0.0,0.0
870,74.0,2,15,0.0,0.0
871,71.0,0,210,0.0,0.0
872,67.0,32,210,0.0,0.0
873,74.0,0,210,0.0,0.0
874,76.0,29,30,0.0,0.0
875,38.0,1,210,1.0,0.0
876,59.0,0,180,1.0,0.0
877,64.0,4,180,1.0,0.0
878,50.0,1,210,1.0,0.0
879,55.0,0,180,1.0,0.0
880,82.0,32,30,0.0,0.0
881,83.0,26,30,0.0,0.0
882,84.0,29,30,0.0,0.0
883,85.0,33,30,0.0,0.0
884,86.0,17,30,0.0,0.0
885,87.0,2,20,0.0,0.0
886,88.0,31,30,0.0,0.0
887,66.0,0,210,1.0,0.0
888,86.0,26,30,0.0,0.0
889,38.0,4,180,1.0,0.0
890,57.0,0,210,1.0,0.0
891,69.0,36,240,0.0,0.0
892,62.0,1,210,1.0,0.0
893,74.0,2,240,0.0,0.0
894,60.0,0,210,1.0,0.0
895,50.0,11,210,1.0,0.0
896,72.0,1,240,0.0,0.0
897,85.0,26,30,0.0,0.0
898,84.0,38,20,0.0,0.0
899,83.0,28,30,0.0,0.0
900,80.0,30,30,0.0,0.0
901,81.0,14,30,0.0,0.0
902,84.0,8,30,0.0,0.0
903,78.0,15,15,0.0,0.0
904,79.0,24,30,0.0,0.0
905,55.0,2,60,1.0,0.0
906,43.0,12,60,1.0,0.0
907,62.0,1,90,1.0,0.0
908,59.0,0,90,1.0,0.0
909,67.0,4,90,1.0,0.0
910,71.0,12,30,0.0,0.0
911,71.0,4,20,0.0,0.0
912,74.0,6,30,0.0,0.0
913,79.0,51,15,0.0,0.0
914,38.0,0,30,1.0,0.0
915,50.0,23,30,1.0,0.0
916,83.0,1,30,0.0,0.0
917,67.0,3,30,0.0,0.0
918,84.0,23,30,0.0,0.0
919,66.0,6,20,0.0,0.0
920,48.0,2,30,1.0,0.0
921,50.0,4,20,1.0,0.0
922,36.0,5,30,1.0,0.0
923,72.0,2,30,0.0,0.0
924,81.0,1,30,0.0,0.0
925,78.0,31,15,0.0,0.0
926,69.0,1,15,0.0,0.0
927,86.0,30,15,0.0,0.0
928,62.0,2,120,1.0,0.0
929,55.0,1,180,1.0,0.0
930,35.0,7,90,1.0,0.0
931,47.0,8,90,1.0,0.0
932,77.0,25,120,0.0,0.0
933,67.0,14,180,0.0,0.0
934,88.0,13,15,0.0,0.0
935,86.0,6,15,0.0,0.0
936,85.0,13,15,0.0,0.0
937,86.0,13,15,0.0,0.0
938,87.0,21,15,0.0,0.0
939,88.0,27,30,0.0,0.0
940,48.0,5,60,1.0,0.0
941,36.0,2,60,1.0,0.0
942,60.0,2,60,1.0,0.0
943,76.0,0,60,0.0,0.0
944,83.0,8,30,0.0,0.0
945,84.0,26,30,0.0,0.0
946,81.0,44,20,0.0,0.0
947,79.0,4,40,0.0,0.0
948,67.0,1,90,1.0,0.0
949,62.0,1,90,1.0,0.0
950,38.0,1,90,1.0,0.0
951,50.0,8,90,1.0,0.0
952,71.0,3,60,0.0,0.0
953,74.0,6,60,0.0,0.0
954,83.0,24,15,0.0,0.0
955,86.0,15,15,0.0,0.0
956,86.0,52,15,0.0,0.0
957,86.0,28,30,0.0,0.0
958,85.0,20,30,0.0,0.0
959,66.0,3,30,1.0,0.0
960,74.0,0,30,0.0,0.0
961,69.0,27,30,0.0,0.0
962,84.0,7,20,0.0,0.0
963,50.0,4,20,1.0,0.0
964,62.0,2,30,1.0,0.0
965,80.0,30,30,0.0,0.0
966,81.0,22,30,0.0,0.0
967,62.0,1,90,1.0,0.0
968,66.0,19,90,1.0,0.0
969,74.0,18,180,0.0,0.0
970,72.0,30,120,0.0,0.0
971,55.0,22,60,1.0,0.0
972,83.0,5,30,0.0,0.0
973,50.0,2,60,1.0,0.0
974,84.0,10,20,0.0,0.0
975,69.0,3,20,1.0,0.0
976,78.0,1,30,0.0,0.0
977,81.0,11,30,0.0,0.0
978,67.0,1,60,1.0,0.0
979,62.0,2,60,1.0,0.0
980,43.0,2,60,1.0,0.0
981,79.0,21,15,0.0,0.0
982,71.0,3,15,0.0,0.0
983,79.0,53,15,0.0,0.0
984,76.0,24,30,0.0,0.0
985,71.0,3,210,0.0,0.0
986,67.0,1,60,0.0,0.0
987,64.0,5,60,0.0,0.0
988,83.0,18,30,0.0,0.0
989,79.0,34,20,0.0,0.0
990,88.0,32,20,0.0,0.0
991,87.0,1,30,0.0,0.0
992,66.0,25,30,0.0,0.0
993,69.0,5,30,0.0,0.0
994,83.0,20,30,0.0,0.0
995,81.0,7,20,0.0,0.0
996,47.0,7,30,1.0,0.0
997,66.0,2,30,0.0,0.0
998,63.0,3,30,0.0,0.0
999,78.0,10,15,0.0,0.0
1000,54.0,18,20,1.0,0.0
1001,79.0,16,15,0.0,0.0
1002,52.0,8,30,1.0,0.0
1003,40.0,33,120,1.0,0.0
1004,64.0,1,60,0.0,0.0
1005,67.0,11,60,0.0,0.0
1006,71.0,0,60,0.0,0.0
1007,81.0,6,15,0.0,0.0
1008,59.0,6,15,1.0,0.0
1009,79.0,10,15,0.0,0.0
1010,78.0,4,15,0.0,0.0
1011,79.0,12,15,0.0,0.0
1012,55.0,11,20,1.0,0.0
1013,81.0,7,15,0.0,0.0
1014,64.0,8,15,1.0,0.0
1015,83.0,29,30,0.0,0.0
1016,62.0,1,30,1.0,0.0
1017,43.0,1,120,1.0,0.0
1018,67.0,15,180,0.0,0.0
1019,77.0,14,60,0.0,0.0
1020,84.0,12,30,0.0,0.0
1021,59.0,3,30,1.0,0.0
1022,86.0,28,30,0.0,0.0
1023,55.0,7,20,1.0,0.0
1024,71.0,6,60,0.0,0.0
1025,53.0,0,30,1.0,0.0
1026,87.0,8,30,0.0,0.0
1027,36.0,5,120,1.0,0.0
1028,52.0,17,15,1.0,0.0
1029,88.0,16,30,0.0,0.0
1030,72.0,1,60,0.0,0.0
1031,80.0,0,30,0.0,0.0
1032,54.0,10,15,1.0,0.0
1033,52.0,7,15,1.0,0.0
1034,51.0,0,15,1.0,0.0
1035,81.0,15,30,0.0,0.0
1036,52.0,10,15,1.0,0.0
1037,83.0,29,30,0.0,0.0
1038,56.0,9,15,1.0,0.0
1039,84.0,31,30,0.0,0.0
1040,57.0,0,60,1.0,0.0
1041,76.0,32,30,0.0,0.0
1042,64.0,9,60,1.0,0.0
1043,49.0,0,60,1.0,0.0
1044,83.0,28,30,0.0,0.0
1045,69.0,26,60,0.0,0.0
1046,81.0,1,30,0.0,0.0
1047,79.0,23,30,0.0,0.0
1048,62.0,26,180,1.0,0.0
1049,50.0,2,210,1.0,0.0
1050,71.0,25,60,0.0,0.0
1051,82.0,11,30,0.0,0.0
1052,83.0,27,30,0.0,0.0
1053,73.0,31,60,0.0,0.0
1054,80.0,6,30,0.0,0.0
1055,78.0,19,40,0.0,0.0
1056,74.0,4,60,0.0,0.0
1057,85.0,8,20,0.0,0.0
1058,66.0,0,30,0.0,0.0
1059,69.0,9,30,0.0,0.0
1060,86.0,0,30,0.0,0.0
1061,74.0,50,15,0.0,0.0
1062,67.0,0,210,0.0,0.0
1063,71.0,1,210,0.0,0.0
1064,74.0,2,210,0.0,0.0
1065,76.0,28,30,0.0,0.0
1066,50.0,1,210,1.0,0.0
1067,64.0,0,210,1.0,0.0
1068,59.0,2,210,1.0,0.0
1069,55.0,1,210,1.0,0.0
1070,38.0,28,210,1.0,0.0
1071,82.0,37,30,0.0,0.0
1072,83.0,27,30,0.0,0.0
1073,84.0,26,30,0.0,0.0
1074,85.0,36,30,0.0,0.0
1075,86.0,20,30,0.0,0.0
1076,87.0,0,30,0.0,0.0
1077,88.0,30,30,0.0,0.0
1078,86.0,27,30,0.0,0.0
1079,72.0,0,240,0.0,0.0
1080,74.0,3,240,0.0,0.0
1081,69.0,40,240,0.0,0.0
1082,50.0,18,180,1.0,0.0
1083,62.0,1,180,1.0,0.0
1084,57.0,1,180,1.0,0.0
1085,38.0,4,180,1.0,0.0
1086,66.0,0,180,1.0,0.0
1087,60.0,1,180,1.0,0.0
1088,85.0,31,30,0.0,0.0
1089,84.0,33,30,0.0,0.0
1090,83.0,26,30,0.0,0.0
1091,80.0,32,30,0.0,0.0
1092,81.0,3,30,0.0,0.0
1093,84.0,13,30,0.0,0.0
1094,78.0,9,15,0.0,0.0
1095,67.0,26,120,1.0,0.0
1096,62.0,1,120,1.0,0.0
1097,55.0,3,60,1.0,0.0
1098,59.0,1,120,1.0,0.0
1099,43.0,4,90,1.0,0.0
1100,79.0,25,30,0.0,0.0
1101,71.0,16,30,0.0,0.0
1102,74.0,12,30,0.0,0.0
1103,71.0,4,20,0.0,0.0
1104,79.0,21,15,0.0,0.0
1105,83.0,4,30,0.0,0.0
1106,67.0,3,30,0.0,0.0
1107,50.0,4,30,1.0,0.0
1108,38.0,20,40,1.0,0.0
1109,84.0,8,30,0.0,0.0
1110,66.0,10,30,0.0,0.0
1111,81.0,2,30,0.0,0.0
1112,36.0,0,40,1.0,0.0
1113,48.0,3,40,1.0,0.0
1114,72.0,8,30,0.0,0.0
1115,50.0,1,15,1.0,0.0
1116,52.0,10,15,1.0,0.0
1117,78.0,25,15,0.0,0.0
1118,69.0,6,15,0.0,0.0
1119,86.0,28,15,0.0,0.0
1120,67.0,1,180,0.0,0.0
1121,55.0,0,210,1.0,0.0
1122,62.0,2,120,1.0,0.0
1123,35.0,6,90,1.0,0.0
1124,47.0,5,90,1.0,0.0
1125,77.0,26,120,0.0,0.0
1126,88.0,9,15,0.0,0.0
1127,86.0,12,15,0.0,0.0
1128,85.0,10,15,0.0,0.0
1129,86.0,12,15,0.0,0.0
1130,87.0,28,15,0.0,0.0
1131,88.0,26,30,0.0,0.0
1132,60.0,3,90,1.0,0.0
1133,48.0,10,90,1.0,0.0
1134,36.0,1,90,1.0,0.0
1135,76.0,1,60,0.0,0.0
1136,83.0,20,30,0.0,0.0
1137,84.0,14,30,0.0,0.0
1138,81.0,42,15,0.0,0.0
1139,79.0,34,30,0.0,0.0
1140,62.0,0,120,1.0,0.0
1141,67.0,5,120,1.0,0.0
1142,74.0,6,120,0.0,0.0
1143,71.0,4,120,0.0,0.0
1144,50.0,14,150,1.0,0.0
1145,38.0,12,120,1.0,0.0
1146,83.0,17,30,0.0,0.0
1147,86.0,25,20,0.0,0.0
1148,86.0,19,15,0.0,0.0
1149,86.0,0,30,0.0,0.0
1150,85.0,46,15,0.0,0.0
1151,84.0,6,30,0.0,0.0
1152,74.0,0,30,0.0,0.0
1153,69.0,1,30,0.0,0.0
1154,66.0,6,30,1.0,0.0
1155,62.0,10,40,1.0,0.0
1156,50.0,1,30,1.0,0.0
1157,80.0,40,20,0.0,0.0
1158,81.0,27,30,0.0,0.0
1159,72.0,31,120,0.0,0.0
1160,74.0,16,180,0.0,0.0
1161,66.0,0,90,1.0,0.0
1162,62.0,4,90,1.0,0.0
1163,55.0,28,60,1.0,0.0
1164,83.0,2,30,0.0,0.0
1165,50.0,14,40,1.0,0.0
1166,84.0,5,30,0.0,0.0
1167,78.0,1,30,0.0,0.0
1168,69.0,6,20,1.0,0.0
1169,81.0,5,30,0.0,0.0
1170,71.0,0,60,0.0,0.0
1171,67.0,3,40,1.0,0.0
1172,62.0,17,40,1.0,0.0
1173,43.0,2,30,1.0,0.0
1174,79.0,7,20,0.0,0.0
1175,62.0,20,20,1.0,0.0
1176,61.0,20,20,1.0,0.0
1177,60.0,20,20,1.0,0.0
1178,71.0,0,120,0.0,0.0
1179,59.0,20,20,1.0,0.0
1180,43.0,14,120,1.0,0.0
1181,79.0,1,120,0.0,0.0
1182,62.0,20,20,1.0,0.0
1183,60.0,20,20,1.0,0.0
1184,59.0,20,20,1.0,0.0
1185,57.0,19,20,1.0,0.0
1186,55.0,1,20,1.0,0.0
1187,74.0,0,15,0.0,0.0
1188,72.0,19,120,0.0,0.0
1189,38.0,0,120,1.0,0.0
1190,54.0,20,20,1.0,0.0
1191,81.0,5,15,0.0,0.0
1192,60.0,5,20,1.0,0.0
1193,83.0,3,15,0.0,0.0
1194,59.0,20,20,1.0,0.0
1195,81.0,11,15,0.0,0.0
1196,79.0,1,15,0.0,0.0
1197,81.0,9,30,0.0,0.0
1198,57.0,8,20,1.0,0.0
1199,55.0,20,20,1.0,0.0
1200,83.0,3,15,0.0,0.0
1201,54.0,1,20,1.0,0.0
1202,43.0,0,120,1.0,0.0
1203,79.0,6,120,0.0,0.0
1204,71.0,0,120,0.0,0.0
1205,74.0,19,120,0.0,0.0
1206,55.0,20,20,1.0,0.0
1207,50.0,20,20,1.0,0.0
1208,55.0,20,20,1.0,0.0
1209,59.0,20,20,1.0,0.0
1210,55.0,14,20,1.0,0.0
1211,59.0,1,20,1.0,0.0
1212,62.0,20,20,1.0,0.0
1213,60.0,20,20,1.0,0.0
1214,59.0,20,20,1.0,0.0
1215,57.0,20,20,1.0,0.0
1216,59.0,16,20,1.0,0.0
1217,55.0,20,20,1.0,0.0
1218,86.0,4,15,0.0,0.0
1219,54.0,20,20,1.0,0.0
1220,69.0,0,60,0.0,0.0
1221,66.0,20,60,0.0,0.0
1222,33.0,0,240,1.0,0.0
1223,45.0,19,240,1.0,0.0
1224,74.0,11,90,0.0,0.0
1225,57.0,20,20,1.0,0.0
1226,55.0,0,20,1.0,0.0
1227,54.0,20,20,1.0,0.0
1228,52.0,9,20,1.0,0.0
1229,50.0,17,20,1.0,0.0
1230,69.0,3,60,0.0,0.0
1231,49.0,20,20,1.0,0.0
1232,67.0,0,60,0.0,0.0
1233,76.0,3,15,0.0,0.0
1234,55.0,7,20,1.0,0.0
1235,78.0,6,15,0.0,0.0
1236,54.0,0,20,1.0,0.0
1237,76.0,7,15,0.0,0.0
1238,74.0,17,15,0.0,0.0
1239,52.0,15,20,1.0,0.0
1240,76.0,5,30,0.0,0.0
1241,50.0,4,20,1.0,0.0
1242,78.0,16,15,0.0,0.0
1243,49.0,1,20,1.0,0.0
1244,66.0,19,120,0.0,0.0
1245,69.0,0,120,0.0,0.0
1246,38.0,0,60,1.0,0.0
1247,50.0,20,20,1.0,0.0
1248,74.0,15,90,0.0,0.0
1249,45.0,20,20,1.0,0.0
1250,47.0,20,20,1.0,0.0
1251,49.0,20,20,1.0,0.0
1252,50.0,5,20,1.0,0.0
1253,52.0,1,20,1.0,0.0
1254,54.0,20,20,1.0,0.0
1255,55.0,20,20,1.0,0.0
1256,57.0,20,20,1.0,0.0
1257,59.0,20,20,1.0,0.0
1258,60.0,20,20,1.0,0.0
1259,61.0,20,20,1.0,0.0
1260,89.0,0,60,0.0,0.0
1261,31.0,0,240,1.0,0.0
1262,43.0,19,240,1.0,0.0
1263,62.0,20,20,1.0,0.0
1264,71.0,20,60,0.0,0.0
1265,67.0,19,300,0.0,0.0
1266,61.0,20,20,1.0,0.0
1267,62.0,0,20,1.0,0.0
1268,59.0,20,20,1.0,0.0
1269,74.0,0,60,0.0,0.0
1270,86.0,1,60,0.0,0.0
1271,58.0,19,20,1.0,0.0
1272,59.0,20,20,1.0,0.0
1273,55.0,20,20,1.0,0.0
1274,77.0,2,60,0.0,0.0
1275,83.0,18,60,0.0,0.0
1276,54.0,20,20,1.0,0.0
1277,55.0,0,20,1.0,0.0
1278,50.0,20,20,1.0,0.0
1279,71.0,0,60,0.0,0.0
1280,77.0,14,40,0.0,0.0
1281,49.0,6,20,1.0,0.0
1282,50.0,1,20,1.0,0.0
1283,72.0,0,60,0.0,0.0
1284,48.0,20,20,1.0,0.0
1285,36.0,0,60,1.0,0.0
1286,76.0,4,60,0.0,0.0
1287,52.0,16,20,1.0,0.0
1288,55.0,1,20,1.0,0.0
1289,79.0,0,60,0.0,0.0
1290,60.0,20,20,1.0,0.0
1291,84.0,1,60,0.0,0.0
1292,88.0,0,60,0.0,0.0
1293,64.0,19,20,1.0,0.0
1294,67.0,20,20,1.0,0.0
1295,67.0,20,20,1.0,0.0
1296,43.0,6,60,1.0,0.0
1297,79.0,0,60,0.0,0.0
1298,83.0,0,60,0.0,0.0
1299,86.0,14,60,0.0,0.0
1300,62.0,20,20,1.0,0.0
1301,59.0,0,20,1.0,0.0
1302,62.0,20,20,1.0,0.0
1303,59.0,20,20,1.0,0.0
1304,55.0,20,20,1.0,0.0
1305,54.0,9,20,1.0,0.0
1306,38.0,0,240,1.0,0.0
1307,76.0,0,15,0.0,0.0
1308,74.0,11,15,0.0,0.0
1309,57.0,8,20,1.0,0.0
1310,76.0,12,15,0.0,0.0
1311,60.0,0,20,1.0,0.0
1312,74.0,18,15,0.0,0.0
1313,59.0,10,20,1.0,0.0
1314,76.0,2,15,0.0,0.0
1315,74.0,10,15,0.0,0.0
1316,57.0,6,20,1.0,0.0
1317,76.0,13,15,0.0,0.0
1318,55.0,16,20,1.0,0.0
1319,74.0,1,15,0.0,0.0
1320,60.0,19,120,0.0,0.0
1321,54.0,13,20,1.0,0.0
1322,76.0,4,15,0.0,0.0
1323,74.0,7,15,0.0,0.0
1324,52.0,6,20,1.0,0.0
1325,73.0,14,15,0.0,0.0
1326,50.0,3,20,1.0,0.0
1327,74.0,17,15,0.0,0.0
1328,48.0,20,20,1.0,0.0
1329,76.0,18,40,0.0,0.0
1330,47.0,1,20,1.0,0.0
1331,45.0,1,20,1.0,0.0
1332,78.0,1,15,0.0,0.0
1333,59.0,0,60,0.0,0.0
1334,43.0,20,20,1.0,0.0
1335,31.0,4,60,1.0,0.0
1336,79.0,16,60,0.0,0.0
1337,47.0,20,20,1.0,0.0
1338,48.0,0,20,1.0,0.0
1339,50.0,20,20,1.0,0.0
1340,52.0,20,20,1.0,0.0
1341,54.0,20,20,1.0,0.0
1342,55.0,20,20,1.0,0.0
1343,59.0,20,20,1.0,0.0
1344,60.0,20,20,1.0,0.0
1345,62.0,20,20,1.0,0.0
1346,61.0,20,20,1.0,0.0
1347,60.0,20,20,1.0,0.0
1348,59.0,20,20,1.0,0.0
1349,71.0,0,60,0.0,0.0
1350,74.0,20,60,0.0,0.0
1351,43.0,1,120,1.0,0.0
1352,79.0,13,120,0.0,0.0
1353,62.0,20,20,1.0,0.0
1354,60.0,0,20,1.0,0.0
1355,59.0,20,20,1.0,0.0
1356,57.0,20,20,1.0,0.0
1357,55.0,1,20,1.0,0.0
1358,38.0,19,120,1.0,0.0
1359,74.0,0,60,0.0,0.0
1360,54.0,20,20,1.0,0.0
1361,72.0,0,60,0.0,0.0
1362,81.0,5,15,0.0,0.0
1363,60.0,7,20,1.0,0.0
1364,83.0,3,15,0.0,0.0
1365,59.0,2,20,1.0,0.0
1366,81.0,10,15,0.0,0.0
1367,79.0,16,15,0.0,0.0
1368,81.0,2,20,0.0,0.0
1369,57.0,20,20,1.0,0.0
1370,55.0,1,20,1.0,0.0
1371,83.0,19,15,0.0,0.0
1372,54.0,1,20,1.0,0.0
1373,71.0,0,120,0.0,0.0
1374,43.0,19,120,1.0,0.0
1375,55.0,20,20,1.0,0.0
1376,74.0,0,120,0.0,0.0
1377,79.0,12,90,0.0,0.0
1378,50.0,20,20,1.0,0.0
1379,55.0,20,20,1.0,0.0
1380,59.0,20,20,1.0,0.0
1381,55.0,8,20,1.0,0.0
1382,59.0,1,20,1.0,0.0
1383,62.0,20,20,1.0,0.0
1384,60.0,20,20,1.0,0.0
1385,59.0,20,20,1.0,0.0
1386,57.0,20,20,1.0,0.0
1387,59.0,16,20,1.0,0.0
1388,55.0,20,20,1.0,0.0
1389,86.0,4,15,0.0,0.0
1390,54.0,20,20,1.0,0.0
1391,69.0,0,60,0.0,0.0
1392,45.0,19,240,1.0,0.0
1393,33.0,0,240,1.0,0.0
1394,66.0,20,60,0.0,0.0
1395,74.0,2,120,0.0,0.0
1396,57.0,20,20,1.0,0.0
1397,55.0,0,20,1.0,0.0
1398,54.0,20,20,1.0,0.0
1399,52.0,18,20,1.0,0.0
1400,50.0,13,20,1.0,0.0
1401,49.0,20,20,1.0,0.0
1402,69.0,0,60,0.0,0.0
1403,67.0,0,60,0.0,0.0
1404,76.0,7,15,0.0,0.0
1405,55.0,9,20,1.0,0.0
1406,78.0,6,15,0.0,0.0
1407,54.0,5,20,1.0,0.0
1408,76.0,5,15,0.0,0.0
1409,74.0,15,15,0.0,0.0
1410,52.0,3,20,1.0,0.0
1411,76.0,17,20,0.0,0.0
1412,50.0,1,20,1.0,0.0
1413,78.0,19,15,0.0,0.0
1414,49.0,1,20,1.0,0.0
1415,50.0,20,20,1.0,0.0
1416,66.0,0,120,0.0,0.0
1417,38.0,19,120,1.0,0.0
1418,69.0,0,120,0.0,0.0
1419,74.0,8,120,0.0,0.0
1420,45.0,20,20,1.0,0.0
1421,47.0,20,20,1.0,0.0
1422,49.0,20,20,1.0,0.0
1423,50.0,12,20,1.0,0.0
1424,52.0,1,20,1.0,0.0
1425,54.0,20,20,1.0,0.0
1426,55.0,20,20,1.0,0.0
1427,57.0,20,20,1.0,0.0
1428,59.0,20,20,1.0,0.0
1429,60.0,20,20,1.0,0.0
1430,61.0,20,20,1.0,0.0
1431,89.0,19,60,0.0,0.0
1432,67.0,19,300,0.0,0.0
1433,62.0,20,20,1.0,0.0
1434,71.0,1,60,0.0,0.0
1435,43.0,19,240,1.0,0.0
1436,31.0,0,240,1.0,0.0
1437,61.0,20,20,1.0,0.0
1438,62.0,0,20,1.0,0.0
1439,74.0,4,60,0.0,0.0
1440,59.0,20,20,1.0,0.0
1441,86.0,16,60,0.0,0.0
1442,58.0,20,20,1.0,0.0
1443,59.0,0,20,1.0,0.0
1444,55.0,20,20,1.0,0.0
1445,77.0,2,60,0.0,0.0
1446,83.0,18,60,0.0,0.0
1447,54.0,20,20,1.0,0.0
1448,55.0,0,20,1.0,0.0
1449,71.0,0,60,0.0,0.0
1450,50.0,20,20,1.0,0.0
1451,77.0,18,40,0.0,0.0
1452,49.0,2,20,1.0,0.0
1453,50.0,1,20,1.0,0.0
1454,36.0,0,60,1.0,0.0
1455,72.0,0,60,0.0,0.0
1456,48.0,20,20,1.0,0.0
1457,76.0,17,40,0.0,0.0
1458,52.0,3,20,1.0,0.0
1459,55.0,1,20,1.0,0.0
1460,79.0,0,60,0.0,0.0
1461,60.0,20,20,1.0,0.0
1462,84.0,0,40,0.0,0.0
1463,88.0,18,40,0.0,0.0
1464,64.0,2,20,1.0,0.0
1465,67.0,20,20,1.0,0.0
1466,67.0,13,20,1.0,0.0
1467,43.0,0,60,1.0,0.0
1468,79.0,18,120,0.0,0.0
1469,83.0,7,30,0.0,0.0
1470,86.0,0,30,0.0,0.0
1471,62.0,20,20,1.0,0.0
1472,59.0,20,20,1.0,0.0
1473,62.0,20,20,1.0,0.0
1474,59.0,20,20,1.0,0.0
1475,55.0,1,20,1.0,0.0
1476,38.0,19,240,1.0,0.0
1477,54.0,13,20,1.0,0.0
1478,76.0,1,15,0.0,0.0
1479,74.0,7,15,0.0,0.0
1480,57.0,10,20,1.0,0.0
1481,76.0,10,15,0.0,0.0
1482,60.0,1,20,1.0,0.0
1483,74.0,16,15,0.0,0.0
1484,59.0,11,20,1.0,0.0
1485,76.0,3,15,0.0,0.0
1486,74.0,9,15,0.0,0.0
1487,57.0,7,20,1.0,0.0
1488,76.0,13,15,0.0,0.0
1489,55.0,16,20,1.0,0.0
1490,74.0,0,15,0.0,0.0
1491,60.0,0,120,0.0,0.0
1492,54.0,12,20,1.0,0.0
1493,76.0,4,15,0.0,0.0
1494,74.0,8,15,0.0,0.0
1495,52.0,6,20,1.0,0.0
1496,73.0,14,15,0.0,0.0
1497,50.0,2,20,1.0,0.0
1498,74.0,18,15,0.0,0.0
1499,48.0,20,20,1.0,0.0
1500,76.0,16,40,0.0,0.0
1501,47.0,0,20,1.0,0.0
1502,45.0,1,20,1.0,0.0
1503,78.0,4,15,0.0,0.0
1504,31.0,0,60,1.0,0.0
1505,79.0,9,60,0.0,0.0
1506,59.0,11,60,0.0,0.0
1507,43.0,20,20,1.0,0.0
1508,47.0,20,20,1.0,0.0
1509,48.0,0,20,1.0,0.0
1510,50.0,20,20,1.0,0.0
1511,52.0,20,20,1.0,0.0
1512,54.0,20,20,1.0,0.0
1513,55.0,20,20,1.0,0.0
1514,57.0,20,20,1.0,0.0
1515,58.0,20,20,1.0,0.0
1516,59.0,20,20,1.0,0.0
1517,58.0,20,20,1.0,0.0
1518,57.0,20,20,1.0,0.0
1519,40.0,0,120,1.0,0.0
1520,55.0,20,20,1.0,0.0
1521,76.0,13,120,0.0,0.0
1522,67.0,0,120,0.0,0.0
1523,71.0,0,120,0.0,0.0
1524,59.0,20,20,1.0,0.0
1525,57.0,20,20,1.0,0.0
1526,55.0,20,20,1.0,0.0
1527,54.0,20,20,1.0,0.0
1528,52.0,1,20,1.0,0.0
1529,69.0,0,60,0.0,0.0
1530,71.0,0,60,0.0,0.0
1531,47.0,19,120,1.0,0.0
1532,51.0,20,20,1.0,0.0
1533,78.0,6,15,0.0,0.0
1534,57.0,5,20,1.0,0.0
1535,79.0,9,15,0.0,0.0
1536,55.0,2,20,1.0,0.0
1537,78.0,6,15,0.0,0.0
1538,76.0,18,15,0.0,0.0
1539,54.0,4,20,1.0,0.0
1540,78.0,13,20,0.0,0.0
1541,52.0,20,20,1.0,0.0
1542,79.0,3,15,0.0,0.0
1543,51.0,1,20,1.0,0.0
1544,52.0,20,20,1.0,0.0
1545,67.0,0,60,0.0,0.0
1546,71.0,20,60,0.0,0.0
1547,40.0,0,60,1.0,0.0
1548,76.0,0,60,0.0,0.0
1549,59.0,20,20,1.0,0.0
1550,57.0,0,20,1.0,0.0
1551,55.0,20,20,1.0,0.0
1552,54.0,20,20,1.0,0.0
1553,52.0,12,20,1.0,0.0
1554,50.0,20,20,1.0,0.0
1555,31.0,0,120,1.0,0.0
1556,43.0,0,120,1.0,0.0
1557,71.0,19,120,0.0,0.0
1558,67.0,19,180,0.0,0.0
1559,77.0,8,15,0.0,0.0
1560,62.0,1,20,1.0,0.0
1561,79.0,7,15,0.0,0.0
1562,60.0,20,20,1.0,0.0
1563,77.0,12,15,0.0,0.0
1564,76.0,0,15,0.0,0.0
1565,77.0,9,30,0.0,0.0
1566,59.0,7,20,1.0,0.0
1567,57.0,20,20,1.0,0.0
1568,79.0,4,15,0.0,0.0
1569,55.0,1,20,1.0,0.0
1570,76.0,4,60,0.0,0.0
1571,55.0,20,20,1.0,0.0
1572,48.0,1,60,1.0,0.0
1573,72.0,0,60,0.0,0.0
1574,60.0,16,20,1.0,0.0
1575,52.0,0,20,1.0,0.0
1576,78.0,20,20,0.0,0.0
1577,60.0,0,20,1.0,0.0
1578,72.0,0,60,0.0,0.0
1579,74.0,19,120,0.0,0.0
1580,45.0,0,60,1.0,0.0
1581,62.0,20,20,1.0,0.0
1582,50.0,9,20,1.0,0.0
1583,79.0,11,15,0.0,0.0
1584,71.0,0,60,0.0,0.0
1585,59.0,17,20,1.0,0.0
1586,47.0,0,60,1.0,0.0
1587,62.0,3,20,1.0,0.0
1588,81.0,3,15,0.0,0.0
1589,79.0,8,15,0.0,0.0
1590,78.0,9,15,0.0,0.0
1591,50.0,1,20,1.0,0.0
1592,79.0,10,30,0.0,0.0
1593,57.0,9,20,1.0,0.0
1594,69.0,0,60,0.0,0.0
1595,49.0,20,60,1.0,0.0
1596,76.0,0,60,0.0,0.0
1597,64.0,20,20,1.0,0.0
1598,81.0,1,15,0.0,0.0
1599,52.0,0,20,1.0,0.0
1600,55.0,20,20,1.0,0.0
1601,50.0,3,240,1.0,0.0
1602,74.0,19,180,0.0,0.0
1603,71.0,2,120,0.0,0.0
1604,79.0,17,120,0.0,0.0
1605,57.0,20,20,1.0,0.0
1606,58.0,20,20,1.0,0.0
1607,59.0,20,20,1.0,0.0
1608,60.0,20,20,1.0,0.0
1609,61.0,1,20,1.0,0.0
1610,62.0,20,20,1.0,0.0
1611,69.0,1,60,0.0,0.0
1612,78.0,16,40,0.0,0.0
1613,61.0,4,20,1.0,0.0
1614,60.0,0,20,1.0,0.0
1615,59.0,20,20,1.0,0.0
1616,86.0,16,60,0.0,0.0
1617,58.0,20,20,1.0,0.0
1618,57.0,1,20,1.0,0.0
1619,56.0,20,20,1.0,0.0
1620,38.0,1,240,1.0,0.0
1621,76.0,2,180,0.0,0.0
1622,53.0,20,20,1.0,0.0
1623,52.0,20,20,1.0,0.0
1624,50.0,20,20,1.0,0.0
1625,74.0,20,60,0.0,0.0
1626,68.0,0,60,0.0,0.0
1627,48.0,20,20,1.0,0.0
1628,47.0,0,20,1.0,0.0
1629,45.0,20,20,1.0,0.0
1630,69.0,0,60,0.0,0.0
1631,72.0,0,60,0.0,0.0
1632,48.0,18,20,1.0,0.0
1633,52.0,20,20,1.0,0.0
1634,56.0,20,20,1.0,0.0
1635,88.0,18,60,0.0,0.0
1636,59.0,20,20,1.0,0.0
1637,60.0,1,20,1.0,0.0
1638,63.0,20,20,1.0,0.0
1639,38.0,19,180,1.0,0.0
1640,78.0,10,150,0.0,0.0
1641,62.0,20,20,1.0,0.0
1642,60.0,20,20,1.0,0.0
1643,72.0,0,60,0.0,0.0
1644,58.0,20,20,1.0,0.0
1645,75.0,20,60,0.0,0.0
1646,57.0,20,20,1.0,0.0
1647,55.0,0,20,1.0,0.0
1648,74.0,0,60,0.0,0.0
1649,54.0,20,20,1.0,0.0
1650,72.0,0,60,0.0,0.0
1651,52.0,6,20,1.0,0.0
1652,50.0,1,20,1.0,0.0
1653,81.0,4,15,0.0,0.0
1654,84.0,9,40,0.0,0.0
1655,48.0,20,20,1.0,0.0
1656,47.0,8,20,1.0,0.0
1657,45.0,20,20,1.0,0.0
1658,78.0,3,15,0.0,0.0
1659,35.0,13,120,1.0,0.0
1660,74.0,3,180,0.0,0.0
1661,62.0,0,180,0.0,0.0
1662,43.0,20,20,1.0,0.0
1663,79.0,7,120,0.0,0.0
1664,47.0,20,20,1.0,0.0
1665,50.0,20,20,1.0,0.0
1666,55.0,20,20,1.0,0.0
1667,59.0,13,20,1.0,0.0
1668,55.0,1,20,1.0,0.0
1669,54.0,20,20,1.0,0.0
1670,36.0,1,120,1.0,0.0
1671,81.0,6,15,0.0,0.0
1672,57.0,7,20,1.0,0.0
1673,83.0,9,15,0.0,0.0
1674,54.0,1,20,1.0,0.0
1675,81.0,4,15,0.0,0.0
1676,80.0,16,15,0.0,0.0
1677,50.0,12,20,1.0,0.0
1678,81.0,8,30,0.0,0.0
1679,52.0,20,20,1.0,0.0
1680,74.0,18,30,0.0,0.0
1681,54.0,1,20,1.0,0.0
1682,55.0,20,20,1.0,0.0
1683,35.0,20,60,1.0,0.0
1684,86.0,11,150,0.0,0.0
1685,65.0,20,20,1.0,0.0
1686,62.0,0,20,1.0,0.0
1687,67.0,20,60,0.0,0.0
1688,59.0,20,20,1.0,0.0
1689,55.0,20,20,1.0,0.0
1690,53.0,0,20,1.0,0.0
1691,79.0,0,60,0.0,0.0
1692,52.0,9,20,1.0,0.0
1693,36.0,3,60,1.0,0.0
1694,56.0,20,20,1.0,0.0
1695,88.0,17,30,0.0,0.0
1696,57.0,0,20,1.0,0.0
1697,60.0,14,20,1.0,0.0
1698,84.0,6,30,0.0,0.0
1699,64.0,20,20,1.0,0.0
1700,81.0,20,30,0.0,0.0
1701,60.0,0,20,1.0,0.0
1702,59.0,20,20,1.0,0.0
1703,71.0,0,60,0.0,0.0
1704,74.0,0,60,0.0,0.0
1705,38.0,19,240,1.0,0.0
1706,79.0,2,120,0.0,0.0
1707,62.0,20,20,1.0,0.0
1708,60.0,20,20,1.0,0.0
1709,59.0,20,20,1.0,0.0
1710,57.0,18,20,1.0,0.0
1711,55.0,13,20,1.0,0.0
1712,72.0,20,60,0.0,0.0
1713,74.0,0,60,0.0,0.0
1714,54.0,20,20,1.0,0.0
1715,81.0,7,15,0.0,0.0
1716,60.0,2,20,1.0,0.0
1717,83.0,8,15,0.0,0.0
1718,59.0,0,20,1.0,0.0
1719,81.0,8,15,0.0,0.0
1720,79.0,2,15,0.0,0.0
1721,81.0,9,30,0.0,0.0
1722,57.0,6,20,1.0,0.0
1723,55.0,20,20,1.0,0.0
1724,83.0,5,15,0.0,0.0
1725,54.0,1,20,1.0,0.0
1726,79.0,12,120,0.0,0.0
1727,55.0,20,20,1.0,0.0
1728,31.0,7,120,1.0,0.0
1729,71.0,0,120,0.0,0.0
1730,74.0,0,120,0.0,0.0
1731,43.0,20,20,1.0,0.0
1732,47.0,20,20,1.0,0.0
1733,50.0,20,20,1.0,0.0
1734,47.0,20,20,1.0,0.0
1735,50.0,1,20,1.0,0.0
1736,55.0,20,20,1.0,0.0
1737,50.0,20,20,1.0,0.0
1738,55.0,20,20,1.0,0.0
1739,59.0,20,20,1.0,0.0
1740,58.0,20,20,1.0,0.0
1741,57.0,20,20,1.0,0.0
1742,71.0,0,120,0.0,0.0
1743,40.0,0,120,1.0,0.0
1744,55.0,20,20,1.0,0.0
1745,67.0,9,120,0.0,0.0
1746,76.0,2,120,0.0,0.0
1747,59.0,20,20,1.0,0.0
1748,57.0,20,20,1.0,0.0
1749,55.0,20,20,1.0,0.0
1750,54.0,18,20,1.0,0.0
1751,52.0,1,20,1.0,0.0
1752,51.0,20,20,1.0,0.0
1753,47.0,19,120,1.0,0.0
1754,71.0,0,60,0.0,0.0
1755,69.0,0,60,0.0,0.0
1756,78.0,10,15,0.0,0.0
1757,57.0,9,20,1.0,0.0
1758,79.0,6,15,0.0,0.0
1759,55.0,3,20,1.0,0.0
1760,78.0,5,15,0.0,0.0
1761,76.0,17,15,0.0,0.0
1762,54.0,11,20,1.0,0.0
1763,78.0,9,30,0.0,0.0
1764,52.0,0,20,1.0,0.0
1765,79.0,20,15,0.0,0.0
1766,51.0,1,20,1.0,0.0
1767,67.0,0,60,0.0,0.0
1768,40.0,0,60,1.0,0.0
1769,52.0,20,20,1.0,0.0
1770,71.0,20,60,0.0,0.0
1771,76.0,1,90,0.0,0.0
1772,59.0,20,20,1.0,0.0
1773,57.0,0,20,1.0,0.0
1774,55.0,19,20,1.0,0.0
1775,54.0,20,20,1.0,0.0
1776,52.0,17,20,1.0,0.0
1777,31.0,0,120,1.0,0.0
1778,43.0,19,120,1.0,0.0
1779,50.0,20,20,1.0,0.0
1780,67.0,19,180,0.0,0.0
1781,71.0,0,120,0.0,0.0
1782,77.0,3,15,0.0,0.0
1783,62.0,1,20,1.0,0.0
1784,79.0,7,15,0.0,0.0
1785,77.0,10,15,0.0,0.0
1786,60.0,20,20,1.0,0.0
1787,76.0,2,15,0.0,0.0
1788,77.0,10,30,0.0,0.0
1789,59.0,9,20,1.0,0.0
1790,57.0,20,20,1.0,0.0
1791,79.0,1,15,0.0,0.0
1792,55.0,1,20,1.0,0.0
1793,55.0,20,20,1.0,0.0
1794,48.0,0,60,1.0,0.0
1795,72.0,1,60,0.0,0.0
1796,76.0,1,60,0.0,0.0
1797,60.0,19,20,1.0,0.0
1798,52.0,0,20,1.0,0.0
1799,45.0,12,60,1.0,0.0
1800,74.0,19,120,0.0,0.0
1801,72.0,0,60,0.0,0.0
1802,60.0,3,20,1.0,0.0
1803,78.0,17,20,0.0,0.0
1804,62.0,20,20,1.0,0.0
1805,50.0,0,20,1.0,0.0
1806,47.0,1,60,1.0,0.0
1807,59.0,20,20,1.0,0.0
1808,71.0,0,60,0.0,0.0
1809,79.0,8,15,0.0,0.0
1810,62.0,3,20,1.0,0.0
1811,81.0,9,15,0.0,0.0
1812,50.0,0,20,1.0,0.0
1813,79.0,8,15,0.0,0.0
1814,78.0,0,15,0.0,0.0
1815,76.0,0,60,0.0,0.0
1816,69.0,0,60,0.0,0.0
1817,57.0,11,20,1.0,0.0
1818,49.0,20,60,1.0,0.0
1819,79.0,9,30,0.0,0.0
1820,64.0,1,20,1.0,0.0
1821,81.0,19,15,0.0,0.0
1822,52.0,0,20,1.0,0.0
1823,55.0,20,20,1.0,0.0
1824,50.0,5,240,1.0,0.0
1825,71.0,4,120,0.0,0.0
1826,74.0,3,180,0.0,0.0
1827,79.0,15,120,0.0,0.0
1828,57.0,20,20,1.0,0.0
1829,58.0,20,20,1.0,0.0
1830,59.0,20,20,1.0,0.0
1831,60.0,20,20,1.0,0.0
1832,61.0,1,20,1.0,0.0
1833,62.0,20,20,1.0,0.0
1834,69.0,0,60,0.0,0.0
1835,78.0,16,60,0.0,0.0
1836,61.0,20,20,1.0,0.0
1837,60.0,1,20,1.0,0.0
1838,59.0,20,20,1.0,0.0
1839,86.0,14,60,0.0,0.0
1840,58.0,20,20,1.0,0.0
1841,57.0,1,20,1.0,0.0
1842,38.0,3,240,1.0,0.0
1843,56.0,20,20,1.0,0.0
1844,76.0,17,150,0.0,0.0
1845,53.0,20,20,1.0,0.0
1846,52.0,20,20,1.0,0.0
1847,50.0,20,20,1.0,0.0
1848,74.0,0,60,0.0,0.0
1849,68.0,0,60,0.0,0.0
1850,48.0,20,20,1.0,0.0
1851,47.0,20,20,1.0,0.0
1852,72.0,20,60,0.0,0.0
1853,45.0,20,20,1.0,0.0
1854,69.0,0,60,0.0,0.0
1855,48.0,3,20,1.0,0.0
1856,52.0,0,20,1.0,0.0
1857,56.0,20,20,1.0,0.0
1858,88.0,16,60,0.0,0.0
1859,59.0,20,20,1.0,0.0
1860,60.0,1,20,1.0,0.0
1861,63.0,20,20,1.0,0.0
1862,38.0,0,180,1.0,0.0
1863,78.0,9,120,0.0,0.0
1864,62.0,20,20,1.0,0.0
1865,60.0,20,20,1.0,0.0
1866,75.0,11,60,0.0,0.0
1867,72.0,19,120,0.0,0.0
1868,58.0,20,20,1.0,0.0
1869,57.0,20,20,1.0,0.0
1870,55.0,0,20,1.0,0.0
1871,54.0,20,20,1.0,0.0
1872,74.0,0,60,0.0,0.0
1873,52.0,13,20,1.0,0.0
1874,50.0,1,20,1.0,0.0
1875,81.0,7,15,0.0,0.0
1876,48.0,20,20,1.0,0.0
1877,84.0,14,40,0.0,0.0
1878,47.0,6,20,1.0,0.0
1879,45.0,2,20,1.0,0.0
1880,78.0,18,15,0.0,0.0
1881,74.0,19,180,0.0,0.0
1882,43.0,20,20,1.0,0.0
1883,35.0,14,120,1.0,0.0
1884,62.0,0,180,0.0,0.0
1885,79.0,6,120,0.0,0.0
1886,47.0,20,20,1.0,0.0
1887,50.0,20,20,1.0,0.0
1888,55.0,20,20,1.0,0.0
1889,59.0,14,20,1.0,0.0
1890,55.0,1,20,1.0,0.0
1891,36.0,19,120,1.0,0.0
1892,54.0,20,20,1.0,0.0
1893,81.0,5,15,0.0,0.0
1894,57.0,4,20,1.0,0.0
1895,83.0,10,15,0.0,0.0
1896,54.0,0,20,1.0,0.0
1897,81.0,6,15,0.0,0.0
1898,80.0,1,15,0.0,0.0
1899,50.0,2,20,1.0,0.0
1900,81.0,18,20,0.0,0.0
1901,52.0,6,20,1.0,0.0
1902,74.0,14,15,0.0,0.0
1903,54.0,1,20,1.0,0.0
1904,55.0,20,20,1.0,0.0
1905,35.0,20,60,1.0,0.0
1906,86.0,4,150,0.0,0.0
1907,65.0,20,20,1.0,0.0
1908,62.0,0,20,1.0,0.0
1909,59.0,20,20,1.0,0.0
1910,67.0,20,60,0.0,0.0
1911,55.0,20,20,1.0,0.0
1912,53.0,0,20,1.0,0.0
1913,36.0,0,60,1.0,0.0
1914,79.0,0,60,0.0,0.0
1915,52.0,16,20,1.0,0.0
1916,56.0,20,20,1.0,0.0
1917,88.0,14,30,0.0,0.0
1918,57.0,6,20,1.0,0.0
1919,60.0,17,20,1.0,0.0
1920,84.0,3,30,0.0,0.0
1921,64.0,20,20,1.0,0.0
1922,81.0,15,30,0.0,0.0
1923,60.0,5,20,1.0,0.0
1924,59.0,20,20,1.0,0.0
1925,74.0,0,60,0.0,0.0
1926,71.0,20,60,0.0,0.0
1927,38.0,19,240,1.0,0.0
1928,79.0,12,120,0.0,0.0
1929,62.0,20,20,1.0,0.0
1930,60.0,0,20,1.0,0.0
1931,59.0,20,20,1.0,0.0
1932,57.0,20,20,1.0,0.0
1933,55.0,2,20,1.0,0.0
1934,54.0,20,20,1.0,0.0
1935,74.0,0,60,0.0,0.0
1936,72.0,0,60,0.0,0.0
1937,81.0,6,15,0.0,0.0
1938,60.0,7,20,1.0,0.0
1939,83.0,7,15,0.0,0.0
1940,59.0,3,20,1.0,0.0
1941,81.0,6,15,0.0,0.0
1942,79.0,17,15,0.0,0.0
1943,57.0,12,20,1.0,0.0
1944,81.0,8,30,0.0,0.0
1945,55.0,1,20,1.0,0.0
1946,83.0,19,15,0.0,0.0
1947,54.0,1,20,1.0,0.0
1948,74.0,0,120,0.0,0.0
1949,31.0,0,120,1.0,0.0
1950,55.0,20,20,1.0,0.0
1951,71.0,3,120,0.0,0.0
1952,79.0,11,120,0.0,0.0
1953,62.0,20,20,1.0,0.0
1954,59.0,20,20,1.0,0.0
1955,55.0,20,20,1.0,0.0
1956,50.0,20,20,1.0,0.0
1957,47.0,1,20,1.0,0.0
1958,43.0,15,15,1.0,0.0
1959,74.0,15,15,0.0,0.0
1960,73.0,15,15,0.0,0.0
1961,74.0,15,15,0.0,0.0
1962,72.0,15,15,0.0,0.0
1963,74.0,15,15,0.0,0.0
1964,69.0,15,15,0.0,0.0
1965,78.0,0,30,0.0,0.0
1966,74.0,15,15,0.0,0.0
1967,71.0,15,15,0.0,0.0
1968,86.0,15,30,0.0,0.0
1969,74.0,0,15,0.0,0.0
1970,70.0,15,15,0.0,0.0
1971,85.0,0,30,0.0,0.0
1972,74.0,15,15,0.0,0.0
1973,71.0,15,15,0.0,0.0
1974,86.0,14,30,0.0,0.0
1975,74.0,1,15,0.0,0.0
1976,83.0,13,30,0.0,0.0
1977,68.0,15,15,0.0,0.0
1978,74.0,2,15,0.0,0.0
1979,69.0,3,15,0.0,0.0
1980,86.0,12,15,0.0,0.0
1981,74.0,2,15,0.0,0.0
1982,84.0,13,15,0.0,0.0
1983,68.0,15,15,0.0,0.0
1984,83.0,14,30,0.0,0.0
1985,74.0,1,15,0.0,0.0
1986,69.0,14,15,0.0,0.0
1987,84.0,1,30,0.0,0.0
1988,74.0,15,15,0.0,0.0
1989,66.0,14,15,0.0,0.0
1990,81.0,1,30,0.0,0.0
1991,74.0,2,15,0.0,0.0
1992,38.0,15,210,1.0,0.0
1993,83.0,4,120,0.0,0.0
1994,67.0,15,15,0.0,0.0
1995,59.0,0,30,1.0,0.0
1996,50.0,13,15,1.0,0.0
1997,74.0,15,15,0.0,0.0
1998,58.0,1,30,1.0,0.0
1999,66.0,14,15,0.0,0.0
2000,74.0,15,15,0.0,0.0
2001,59.0,13,30,1.0,0.0
2002,67.0,15,15,0.0,0.0
2003,74.0,2,15,0.0,0.0
2004,64.0,11,15,0.0,0.0
2005,55.0,12,30,1.0,0.0
2006,74.0,3,15,0.0,0.0
2007,66.0,2,15,0.0,0.0
2008,59.0,12,15,1.0,0.0
2009,57.0,1,15,1.0,0.0
2010,74.0,15,15,0.0,0.0
2011,56.0,14,30,1.0,0.0
2012,64.0,15,15,0.0,0.0
2013,74.0,1,15,0.0,0.0
2014,57.0,2,30,1.0,0.0
2015,66.0,6,15,0.0,0.0
2016,74.0,0,15,0.0,0.0
2017,54.0,13,30,1.0,0.0
2018,62.0,15,15,0.0,0.0
2019,81.0,0,30,0.0,0.0
2020,74.0,2,15,0.0,0.0
2021,64.0,15,15,0.0,0.0
2022,79.0,14,30,0.0,0.0
2023,55.0,0,60,1.0,0.0
2024,45.0,1,120,1.0,0.0
2025,33.0,5,120,1.0,0.0
2026,74.0,1,15,0.0,0.0
2027,63.0,15,15,0.0,0.0
2028,78.0,14,30,0.0,0.0
2029,74.0,1,15,0.0,0.0
2030,52.0,8,60,1.0,0.0
2031,79.0,14,30,0.0,0.0
2032,64.0,15,15,0.0,0.0
2033,74.0,1,15,0.0,0.0
2034,78.0,1,30,0.0,0.0
2035,63.0,14,15,0.0,0.0
2036,74.0,1,15,0.0,0.0
2037,57.0,2,180,1.0,0.0
2038,79.0,3,30,0.0,0.0
2039,64.0,12,15,0.0,0.0
2040,73.0,15,15,0.0,0.0
2041,83.0,14,30,0.0,0.0
2042,67.0,15,15,0.0,0.0
2043,73.0,1,15,0.0,0.0
2044,81.0,12,30,0.0,0.0
2045,66.0,15,15,0.0,0.0
2046,73.0,3,15,0.0,0.0
2047,64.0,0,15,0.0,0.0
2048,79.0,13,30,0.0,0.0
2049,45.0,15,15,1.0,0.0
2050,73.0,2,15,0.0,0.0
2051,78.0,12,120,0.0,0.0
2052,62.0,15,15,0.0,0.0
2053,50.0,14,30,1.0,0.0
2054,74.0,1,15,0.0,0.0
2055,49.0,0,30,1.0,0.0
2056,64.0,13,15,0.0,0.0
2057,74.0,15,15,0.0,0.0
2058,50.0,12,30,1.0,0.0
2059,66.0,15,15,0.0,0.0
2060,74.0,3,15,0.0,0.0
2061,47.0,2,30,1.0,0.0
2062,67.0,15,15,0.0,0.0
2063,74.0,1,15,0.0,0.0
2064,69.0,3,15,0.0,0.0
2065,50.0,12,15,1.0,0.0
2066,48.0,13,15,1.0,0.0
2067,74.0,2,15,0.0,0.0
2068,68.0,14,15,0.0,0.0
2069,47.0,1,30,1.0,0.0
2070,74.0,15,15,0.0,0.0
2071,69.0,15,15,0.0,0.0
2072,48.0,14,30,1.0,0.0
2073,74.0,1,15,0.0,0.0
2074,45.0,1,30,1.0,0.0
2075,72.0,13,15,0.0,0.0
2076,78.0,1,30,0.0,0.0
2077,74.0,15,15,0.0,0.0
2078,77.0,15,15,0.0,0.0
2079,86.0,12,30,0.0,0.0
2080,43.0,2,180,1.0,0.0
2081,79.0,3,15,0.0,0.0
2082,85.0,1,30,0.0,0.0
2083,76.0,14,15,0.0,0.0
2084,79.0,15,15,0.0,0.0
2085,86.0,14,30,0.0,0.0
2086,77.0,15,15,0.0,0.0
2087,55.0,12,60,1.0,0.0
2088,79.0,1,15,0.0,0.0
2089,76.0,15,15,0.0,0.0
2090,85.0,3,30,0.0,0.0
2091,79.0,0,15,0.0,0.0
2092,77.0,15,15,0.0,0.0
2093,88.0,0,15,0.0,0.0
2094,67.0,1,180,1.0,0.0
2095,79.0,5,15,0.0,0.0
2096,86.0,10,20,0.0,0.0
2097,76.0,15,15,0.0,0.0
2098,85.0,13,30,0.0,0.0
2099,79.0,0,15,0.0,0.0
2100,55.0,12,60,1.0,0.0
2101,77.0,15,15,0.0,0.0
2102,86.0,12,30,0.0,0.0
2103,79.0,3,15,0.0,0.0
2104,74.0,13,15,0.0,0.0
2105,83.0,2,30,0.0,0.0
2106,79.0,3,15,0.0,0.0
2107,86.0,14,15,0.0,0.0
2108,76.0,1,15,0.0,0.0
2109,43.0,2,180,1.0,0.0
2110,84.0,12,15,0.0,0.0
2111,79.0,3,15,0.0,0.0
2112,83.0,13,30,0.0,0.0
2113,75.0,15,15,0.0,0.0
2114,79.0,1,15,0.0,0.0
2115,55.0,13,60,1.0,0.0
2116,84.0,1,30,0.0,0.0
2117,76.0,14,15,0.0,0.0
2118,79.0,15,15,0.0,0.0
2119,82.0,3,30,0.0,0.0
2120,73.0,12,15,0.0,0.0
2121,79.0,2,15,0.0,0.0
2122,74.0,3,15,0.0,0.0
2123,67.0,2,120,1.0,0.0
2124,84.0,12,15,0.0,0.0
2125,83.0,11,20,0.0,0.0
2126,79.0,4,15,0.0,0.0
2127,82.0,2,30,0.0,0.0
2128,73.0,11,15,0.0,0.0
2129,79.0,15,15,0.0,0.0
2130,55.0,10,40,1.0,0.0
2131,83.0,11,30,0.0,0.0
2132,74.0,15,15,0.0,0.0
2133,79.0,3,15,0.0,0.0
2134,79.0,1,15,0.0,0.0
2135,71.0,3,15,0.0,0.0
2136,74.0,7,15,0.0,0.0
2137,83.0,2,15,0.0,0.0
2138,50.0,4,15,1.0,0.0
2139,72.0,10,15,0.0,0.0
2140,66.0,2,15,1.0,0.0
2141,74.0,9,15,0.0,0.0
2142,81.0,5,15,0.0,0.0
2143,79.0,3,15,0.0,0.0
2144,71.0,15,15,0.0,0.0
2145,55.0,2,15,1.0,0.0
2146,67.0,1,15,1.0,0.0
2147,74.0,9,15,0.0,0.0
2148,50.0,2,15,1.0,0.0
2149,66.0,2,15,1.0,0.0
2150,72.0,11,15,0.0,0.0
2151,83.0,2,15,0.0,0.0
2152,74.0,8,15,0.0,0.0
2153,81.0,4,15,0.0,0.0
2154,79.0,3,15,0.0,0.0
2155,55.0,2,15,1.0,0.0
2156,67.0,2,15,1.0,0.0
2157,71.0,15,15,0.0,0.0
2158,74.0,9,15,0.0,0.0
2159,50.0,1,15,1.0,0.0
2160,66.0,3,15,1.0,0.0
2161,72.0,11,15,0.0,0.0
2162,83.0,2,15,0.0,0.0
2163,74.0,10,15,0.0,0.0
2164,81.0,4,15,0.0,0.0
2165,55.0,0,15,1.0,0.0
2166,67.0,0,15,1.0,0.0
2167,71.0,15,15,0.0,0.0
2168,79.0,5,15,0.0,0.0
2169,74.0,10,15,0.0,0.0
2170,66.0,3,15,1.0,0.0
2171,72.0,13,15,0.0,0.0
2172,83.0,1,15,0.0,0.0
2173,50.0,1,15,1.0,0.0
2174,81.0,2,15,0.0,0.0
2175,74.0,9,15,0.0,0.0
2176,38.0,2,15,1.0,0.0
2177,78.0,1,15,0.0,0.0
2178,60.0,3,15,1.0,0.0
2179,69.0,15,15,0.0,0.0
2180,74.0,11,15,0.0,0.0
2181,79.0,1,15,0.0,0.0
2182,67.0,1,15,0.0,0.0
2183,59.0,3,15,1.0,0.0
2184,43.0,14,15,1.0,0.0
2185,71.0,9,15,0.0,0.0
2186,55.0,2,15,1.0,0.0
2187,59.0,3,15,1.0,0.0
2188,62.0,0,15,1.0,0.0
2189,83.0,1,15,0.0,0.0
2190,74.0,15,15,0.0,0.0
2191,71.0,8,15,0.0,0.0
2192,67.0,15,15,0.0,0.0
2193,79.0,4,15,0.0,0.0
2194,62.0,2,15,1.0,0.0
2195,59.0,1,15,1.0,0.0
2196,47.0,0,15,1.0,0.0
2197,71.0,7,15,0.0,0.0
2198,74.0,15,15,0.0,0.0
2199,83.0,1,15,0.0,0.0
2200,50.0,6,15,1.0,0.0
2201,59.0,0,15,1.0,0.0
2202,62.0,1,15,1.0,0.0
2203,71.0,12,15,0.0,0.0
2204,59.0,0,15,1.0,0.0
2205,62.0,2,15,1.0,0.0
2206,79.0,1,15,0.0,0.0
2207,67.0,4,15,0.0,0.0
2208,43.0,11,20,1.0,0.0
2209,74.0,15,15,0.0,0.0
2210,73.0,15,15,0.0,0.0
2211,74.0,15,15,0.0,0.0
2212,72.0,15,15,0.0,0.0
2213,74.0,15,15,0.0,0.0
2214,69.0,15,15,0.0,0.0
2215,74.0,15,15,0.0,0.0
2216,86.0,14,30,0.0,0.0
2217,71.0,15,15,0.0,0.0
2218,74.0,1,15,0.0,0.0
2219,70.0,13,15,0.0,0.0
2220,85.0,2,30,0.0,0.0
2221,74.0,15,15,0.0,0.0
2222,71.0,15,15,0.0,0.0
2223,86.0,14,30,0.0,0.0
2224,74.0,1,15,0.0,0.0
2225,68.0,15,15,0.0,0.0
2226,83.0,14,30,0.0,0.0
2227,74.0,1,15,0.0,0.0
2228,69.0,3,15,0.0,0.0
2229,86.0,12,15,0.0,0.0
2230,84.0,12,15,0.0,0.0
2231,74.0,3,15,0.0,0.0
2232,83.0,13,30,0.0,0.0
2233,68.0,15,15,0.0,0.0
2234,74.0,2,15,0.0,0.0
2235,69.0,15,15,0.0,0.0
2236,84.0,15,30,0.0,0.0
2237,74.0,0,15,0.0,0.0
2238,81.0,0,30,0.0,0.0
2239,66.0,15,15,0.0,0.0
2240,74.0,5,15,0.0,0.0
2241,38.0,7,210,1.0,0.0
2242,83.0,7,120,0.0,0.0
2243,59.0,15,30,1.0,0.0
2244,67.0,15,15,0.0,0.0
2245,50.0,10,15,1.0,0.0
2246,74.0,0,15,0.0,0.0
2247,66.0,15,15,0.0,0.0
2248,58.0,0,30,1.0,0.0
2249,74.0,15,15,0.0,0.0
2250,67.0,15,15,0.0,0.0
2251,59.0,14,30,1.0,0.0
2252,74.0,1,15,0.0,0.0
2253,64.0,8,15,0.0,0.0
2254,55.0,14,30,1.0,0.0
2255,74.0,1,15,0.0,0.0
2256,59.0,12,15,1.0,0.0
2257,66.0,3,15,0.0,0.0
2258,57.0,14,15,1.0,0.0
2259,74.0,1,15,0.0,0.0
2260,64.0,15,15,0.0,0.0
2261,56.0,0,30,1.0,0.0
2262,74.0,13,15,0.0,0.0
2263,66.0,6,15,0.0,0.0
2264,57.0,2,30,1.0,0.0
2265,74.0,15,15,0.0,0.0
2266,62.0,15,15,0.0,0.0
2267,81.0,14,30,0.0,0.0
2268,54.0,0,30,1.0,0.0
2269,74.0,1,15,0.0,0.0
2270,45.0,6,180,1.0,0.0
2271,55.0,1,60,1.0,0.0
2272,79.0,13,30,0.0,0.0
2273,64.0,15,15,0.0,0.0
2274,33.0,2,180,1.0,0.0
2275,74.0,2,15,0.0,0.0
2276,78.0,14,30,0.0,0.0
2277,63.0,14,15,0.0,0.0
2278,74.0,1,15,0.0,0.0
2279,79.0,1,30,0.0,0.0
2280,52.0,2,60,1.0,0.0
2281,64.0,14,15,0.0,0.0
2282,74.0,15,15,0.0,0.0
2283,78.0,15,30,0.0,0.0
2284,63.0,13,15,0.0,0.0
2285,74.0,0,15,0.0,0.0
2286,79.0,1,30,0.0,0.0
2287,64.0,14,15,0.0,0.0
2288,57.0,3,180,1.0,0.0
2289,73.0,15,15,0.0,0.0
2290,83.0,12,30,0.0,0.0
2291,67.0,7,15,0.0,0.0
2292,73.0,3,15,0.0,0.0
2293,66.0,14,15,0.0,0.0
2294,81.0,1,30,0.0,0.0
2295,73.0,15,15,0.0,0.0
2296,45.0,0,30,1.0,0.0
2297,64.0,15,15,0.0,0.0
2298,79.0,14,30,0.0,0.0
2299,73.0,1,15,0.0,0.0
2300,62.0,15,15,0.0,0.0
2301,78.0,2,120,0.0,0.0
2302,50.0,14,30,1.0,0.0
2303,74.0,1,15,0.0,0.0
2304,64.0,15,15,0.0,0.0
2305,49.0,12,30,1.0,0.0
2306,74.0,0,15,0.0,0.0
2307,50.0,15,30,1.0,0.0
2308,66.0,15,15,0.0,0.0
2309,74.0,0,15,0.0,0.0
2310,67.0,13,15,0.0,0.0
2311,47.0,15,30,1.0,0.0
2312,74.0,0,15,0.0,0.0
2313,69.0,3,15,0.0,0.0
2314,50.0,12,15,1.0,0.0
2315,74.0,1,15,0.0,0.0
2316,48.0,14,15,1.0,0.0
2317,68.0,13,15,0.0,0.0
2318,47.0,2,30,1.0,0.0
2319,74.0,15,15,0.0,0.0
2320,48.0,13,30,1.0,0.0
2321,69.0,15,15,0.0,0.0
2322,74.0,2,15,0.0,0.0
2323,45.0,14,30,1.0,0.0
2324,72.0,14,15,0.0,0.0
2325,78.0,1,30,0.0,0.0
2326,74.0,1,15,0.0,0.0
2327,86.0,12,30,0.0,0.0
2328,77.0,15,15,0.0,0.0
2329,43.0,14,180,1.0,0.0
2330,79.0,3,15,0.0,0.0
2331,76.0,15,15,0.0,0.0
2332,85.0,0,30,0.0,0.0
2333,79.0,15,15,0.0,0.0
2334,86.0,12,30,0.0,0.0
2335,77.0,15,15,0.0,0.0
2336,55.0,7,60,1.0,0.0
2337,79.0,3,15,0.0,0.0
2338,76.0,13,15,0.0,0.0
2339,85.0,2,30,0.0,0.0
2340,79.0,6,15,0.0,0.0
2341,67.0,0,180,1.0,0.0
2342,88.0,2,15,0.0,0.0
2343,77.0,15,15,0.0,0.0
2344,79.0,4,15,0.0,0.0
2345,86.0,11,20,0.0,0.0
2346,76.0,13,15,0.0,0.0
2347,85.0,2,30,0.0,0.0
2348,79.0,1,15,0.0,0.0
2349,55.0,14,60,1.0,0.0
2350,77.0,15,15,0.0,0.0
2351,86.0,12,30,0.0,0.0
2352,79.0,3,15,0.0,0.0
2353,74.0,15,15,0.0,0.0
2354,83.0,0,30,0.0,0.0
2355,79.0,1,15,0.0,0.0
2356,76.0,3,15,0.0,0.0
2357,86.0,12,15,0.0,0.0
2358,43.0,15,180,1.0,0.0
2359,79.0,3,15,0.0,0.0
2360,84.0,12,15,0.0,0.0
2361,75.0,14,15,0.0,0.0
2362,83.0,1,30,0.0,0.0
2363,79.0,15,15,0.0,0.0
2364,55.0,12,60,1.0,0.0
2365,84.0,13,30,0.0,0.0
2366,76.0,15,15,0.0,0.0
2367,79.0,2,15,0.0,0.0
2368,73.0,15,15,0.0,0.0
2369,82.0,0,30,0.0,0.0
2370,79.0,3,15,0.0,0.0
2371,67.0,10,120,1.0,0.0
2372,74.0,5,15,0.0,0.0
2373,84.0,10,20,0.0,0.0
2374,79.0,2,15,0.0,0.0
2375,83.0,13,15,0.0,0.0
2376,73.0,14,15,0.0,0.0
2377,82.0,1,30,0.0,0.0
2378,79.0,0,15,0.0,0.0
2379,83.0,7,30,0.0,0.0
2380,74.0,15,15,0.0,0.0
2381,55.0,6,40,1.0,0.0
2382,79.0,2,15,0.0,0.0
2383,79.0,0,15,0.0,0.0
2384,71.0,5,15,0.0,0.0
2385,74.0,9,15,0.0,0.0
2386,50.0,0,15,1.0,0.0
2387,66.0,0,15,1.0,0.0
2388,72.0,8,15,0.0,0.0
2389,83.0,6,15,0.0,0.0
2390,81.0,7,15,0.0,0.0
2391,74.0,9,15,0.0,0.0
2392,67.0,1,15,1.0,0.0
2393,55.0,4,15,1.0,0.0
2394,71.0,15,15,0.0,0.0
2395,79.0,1,15,0.0,0.0
2396,74.0,10,15,0.0,0.0
2397,50.0,0,15,1.0,0.0
2398,66.0,5,15,1.0,0.0
2399,72.0,9,15,0.0,0.0
2400,83.0,0,15,0.0,0.0
2401,81.0,6,15,0.0,0.0
2402,74.0,9,15,0.0,0.0
2403,79.0,1,15,0.0,0.0
2404,55.0,4,15,1.0,0.0
2405,67.0,1,15,1.0,0.0
2406,71.0,15,15,0.0,0.0
2407,74.0,9,15,0.0,0.0
2408,50.0,1,15,1.0,0.0
2409,66.0,1,15,1.0,0.0
2410,72.0,10,15,0.0,0.0
2411,83.0,4,15,0.0,0.0
2412,74.0,9,15,0.0,0.0
2413,81.0,5,15,0.0,0.0
2414,67.0,1,15,1.0,0.0
2415,71.0,15,15,0.0,0.0
2416,79.0,2,15,0.0,0.0
2417,55.0,3,15,1.0,0.0
2418,74.0,8,15,0.0,0.0
2419,50.0,2,15,1.0,0.0
2420,66.0,1,15,1.0,0.0
2421,83.0,4,15,0.0,0.0
2422,72.0,4,15,0.0,0.0
2423,81.0,4,15,0.0,0.0
2424,50.0,7,15,1.0,0.0
2425,74.0,10,15,0.0,0.0
2426,69.0,15,15,0.0,0.0
2427,78.0,3,15,0.0,0.0
2428,38.0,1,15,1.0,0.0
2429,61.0,1,15,1.0,0.0
2430,74.0,9,15,0.0,0.0
2431,43.0,1,15,1.0,0.0
2432,59.0,1,15,1.0,0.0
2433,79.0,4,15,0.0,0.0
2434,67.0,15,15,0.0,0.0
2435,71.0,9,15,0.0,0.0
2436,74.0,15,15,0.0,0.0
2437,83.0,0,15,0.0,0.0
2438,55.0,3,15,1.0,0.0
2439,62.0,0,15,1.0,0.0
2440,59.0,3,15,1.0,0.0
2441,71.0,8,15,0.0,0.0
2442,59.0,0,15,1.0,0.0
2443,67.0,15,15,0.0,0.0
2444,79.0,2,15,0.0,0.0
2445,62.0,1,15,1.0,0.0
2446,47.0,4,15,1.0,0.0
2447,71.0,8,15,0.0,0.0
2448,74.0,15,15,0.0,0.0
2449,83.0,5,15,0.0,0.0
2450,62.0,1,15,1.0,0.0
2451,59.0,1,15,1.0,0.0
2452,50.0,0,15,1.0,0.0
2453,71.0,11,15,0.0,0.0
2454,79.0,3,15,0.0,0.0
2455,59.0,1,15,1.0,0.0
2456,62.0,0,15,1.0,0.0
2457,67.0,3,15,0.0,0.0
2458,43.0,12,15,1.0,0.0
2459,71.0,15,15,0.0,0.0
2460,70.0,15,15,0.0,0.0
2461,71.0,15,15,0.0,0.0
2462,69.0,15,15,0.0,0.0
2463,71.0,15,15,0.0,0.0
2464,66.0,12,15,0.0,0.0
2465,75.0,3,30,0.0,0.0
2466,71.0,15,15,0.0,0.0
2467,67.0,13,15,0.0,0.0
2468,83.0,2,30,0.0,0.0
2469,71.0,15,15,0.0,0.0
2470,82.0,4,30,0.0,0.0
2471,66.0,11,15,0.0,0.0
2472,71.0,15,15,0.0,0.0
2473,67.0,14,15,0.0,0.0
2474,83.0,1,30,0.0,0.0
2475,71.0,15,15,0.0,0.0
2476,80.0,3,30,0.0,0.0
2477,65.0,12,15,0.0,0.0
2478,71.0,14,15,0.0,0.0
2479,83.0,1,15,0.0,0.0
2480,66.0,15,15,0.0,0.0
2481,71.0,2,15,0.0,0.0
2482,81.0,13,15,0.0,0.0
2483,65.0,15,15,0.0,0.0
2484,80.0,14,30,0.0,0.0
2485,71.0,1,15,0.0,0.0
2486,66.0,14,15,0.0,0.0
2487,81.0,1,30,0.0,0.0
2488,71.0,15,15,0.0,0.0
2489,63.0,12,15,0.0,0.0
2490,78.0,3,30,0.0,0.0
2491,47.0,12,30,1.0,0.0
2492,71.0,3,15,0.0,0.0
2493,31.0,4,180,1.0,0.0
2494,64.0,13,15,0.0,0.0
2495,79.0,6,120,0.0,0.0
2496,43.0,1,210,1.0,0.0
2497,55.0,2,30,1.0,0.0
2498,67.0,15,15,0.0,0.0
2499,63.0,15,15,0.0,0.0
2500,54.0,14,30,1.0,0.0
2501,67.0,1,15,0.0,0.0
2502,55.0,13,30,1.0,0.0
2503,64.0,15,15,0.0,0.0
2504,67.0,2,15,0.0,0.0
2505,52.0,14,30,1.0,0.0
2506,61.0,9,15,0.0,0.0
2507,67.0,1,15,0.0,0.0
2508,62.0,5,15,0.0,0.0
2509,55.0,10,20,1.0,0.0
2510,53.0,14,15,1.0,0.0
2511,67.0,1,15,0.0,0.0
2512,61.0,15,15,0.0,0.0
2513,52.0,10,30,1.0,0.0
2514,67.0,1,15,0.0,0.0
2515,53.0,14,30,1.0,0.0
2516,62.0,14,15,0.0,0.0
2517,67.0,1,15,0.0,0.0
2518,50.0,1,30,1.0,0.0
2519,89.0,4,30,0.0,0.0
2520,59.0,14,15,0.0,0.0
2521,67.0,4,15,0.0,0.0
2522,60.0,15,15,0.0,0.0
2523,88.0,1,15,0.0,0.0
2524,36.0,4,15,1.0,0.0
2525,48.0,2,15,1.0,0.0
2526,67.0,8,15,0.0,0.0
2527,89.0,1,15,0.0,0.0
2528,50.0,2,15,1.0,0.0
2529,43.0,4,15,1.0,0.0
2530,59.0,15,15,0.0,0.0
2531,67.0,8,15,0.0,0.0
2532,60.0,15,15,0.0,0.0
2533,88.0,1,15,0.0,0.0
2534,36.0,1,15,1.0,0.0
2535,48.0,5,15,1.0,0.0
2536,67.0,10,15,0.0,0.0
2537,89.0,0,15,0.0,0.0
2538,59.0,15,15,0.0,0.0
2539,50.0,2,15,1.0,0.0
2540,43.0,3,15,1.0,0.0
2541,67.0,10,15,0.0,0.0
2542,48.0,3,30,1.0,0.0
2543,88.0,5,15,0.0,0.0
2544,60.0,12,15,0.0,0.0
2545,36.0,4,60,1.0,0.0
2546,67.0,9,15,0.0,0.0
2547,59.0,11,15,0.0,0.0
2548,87.0,6,15,0.0,0.0
2549,67.0,10,15,0.0,0.0
2550,60.0,4,15,0.0,0.0
2551,88.0,5,15,0.0,0.0
2552,57.0,11,20,1.0,0.0
2553,67.0,9,15,0.0,0.0
2554,64.0,15,15,0.0,0.0
2555,84.0,6,15,0.0,0.0
2556,69.0,15,15,0.0,0.0
2557,81.0,6,150,0.0,0.0
2558,66.0,15,15,0.0,0.0
2559,62.0,0,30,1.0,0.0
2560,69.0,15,15,0.0,0.0
2561,67.0,15,15,0.0,0.0
2562,61.0,0,30,1.0,0.0
2563,69.0,15,15,0.0,0.0
2564,66.0,13,15,0.0,0.0
2565,62.0,2,30,1.0,0.0
2566,69.0,15,15,0.0,0.0
2567,61.0,14,30,1.0,0.0
2568,67.0,15,15,0.0,0.0
2569,69.0,1,15,0.0,0.0
2570,66.0,9,15,0.0,0.0
2571,64.0,0,15,1.0,0.0
2572,62.0,10,20,1.0,0.0
2573,69.0,5,15,0.0,0.0
2574,61.0,14,30,1.0,0.0
2575,67.0,15,15,0.0,0.0
2576,69.0,1,15,0.0,0.0
2577,66.0,11,15,0.0,0.0
2578,62.0,4,30,1.0,0.0
2579,69.0,10,15,0.0,0.0
2580,62.0,14,15,1.0,0.0
2581,66.0,1,15,0.0,0.0
2582,86.0,5,15,0.0,0.0
2583,69.0,15,15,0.0,0.0
2584,67.0,7,15,0.0,0.0
2585,76.0,8,20,0.0,0.0
2586,71.0,15,15,0.0,0.0
2587,66.0,15,15,0.0,0.0
2588,75.0,14,30,0.0,0.0
2589,71.0,1,15,0.0,0.0
2590,67.0,15,15,0.0,0.0
2591,76.0,13,30,0.0,0.0
2592,71.0,2,15,0.0,0.0
2593,66.0,15,15,0.0,0.0
2594,75.0,13,30,0.0,0.0
2595,71.0,2,15,0.0,0.0
2596,67.0,1,15,0.0,0.0
2597,78.0,14,15,0.0,0.0
2598,76.0,11,20,0.0,0.0
2599,71.0,4,15,0.0,0.0
2600,66.0,15,15,0.0,0.0
2601,75.0,15,30,0.0,0.0
2602,71.0,0,15,0.0,0.0
2603,67.0,12,15,0.0,0.0
2604,76.0,3,30,0.0,0.0
2605,71.0,5,15,0.0,0.0
2606,67.0,9,15,0.0,0.0
2607,76.0,6,20,0.0,0.0
2608,38.0,0,30,1.0,0.0
2609,50.0,3,15,1.0,0.0
2610,71.0,15,15,0.0,0.0
2611,48.0,11,30,1.0,0.0
2612,69.0,15,15,0.0,0.0
2613,78.0,1,120,0.0,0.0
2614,62.0,6,180,1.0,0.0
2615,74.0,4,15,0.0,0.0
2616,68.0,15,15,0.0,0.0
2617,47.0,0,30,1.0,0.0
2618,74.0,15,15,0.0,0.0
2619,48.0,13,30,1.0,0.0
2620,69.0,15,15,0.0,0.0
2621,74.0,2,15,0.0,0.0
2622,68.0,13,15,0.0,0.0
2623,47.0,2,30,1.0,0.0
2624,74.0,14,15,0.0,0.0
2625,69.0,3,15,0.0,0.0
2626,50.0,12,15,1.0,0.0
2627,74.0,1,15,0.0,0.0
2628,48.0,14,15,1.0,0.0
2629,68.0,13,15,0.0,0.0
2630,47.0,2,30,1.0,0.0
2631,74.0,9,15,0.0,0.0
2632,69.0,15,15,0.0,0.0
2633,48.0,14,30,1.0,0.0
2634,74.0,1,15,0.0,0.0
2635,45.0,2,30,1.0,0.0
2636,54.0,0,30,1.0,0.0
2637,72.0,13,15,0.0,0.0
2638,81.0,15,30,0.0,0.0
2639,74.0,0,15,0.0,0.0
2640,55.0,7,120,1.0,0.0
2641,43.0,12,40,1.0,0.0
2642,86.0,0,30,0.0,0.0
2643,71.0,15,15,0.0,0.0
2644,74.0,15,15,0.0,0.0
2645,70.0,3,15,0.0,0.0
2646,85.0,0,30,0.0,0.0
2647,74.0,15,15,0.0,0.0
2648,71.0,15,15,0.0,0.0
2649,86.0,14,30,0.0,0.0
2650,74.0,1,15,0.0,0.0
2651,83.0,7,30,0.0,0.0
2652,68.0,15,15,0.0,0.0
2653,74.0,1,15,0.0,0.0
2654,38.0,5,60,1.0,0.0
2655,69.0,4,15,0.0,0.0
2656,86.0,11,20,0.0,0.0
2657,74.0,15,15,0.0,0.0
2658,84.0,0,15,0.0,0.0
2659,68.0,10,15,0.0,0.0
2660,83.0,15,30,0.0,0.0
2661,74.0,0,15,0.0,0.0
2662,69.0,15,15,0.0,0.0
2663,84.0,14,30,0.0,0.0
2664,74.0,1,15,0.0,0.0
2665,66.0,15,15,0.0,0.0
2666,81.0,2,30,0.0,0.0
2667,50.0,13,30,1.0,0.0
2668,74.0,0,15,0.0,0.0
2669,43.0,12,60,1.0,0.0
2670,62.0,11,30,1.0,0.0
2671,83.0,0,30,0.0,0.0
2672,67.0,15,15,0.0,0.0
2673,71.0,4,15,0.0,0.0
2674,82.0,3,30,0.0,0.0
2675,74.0,12,15,0.0,0.0
2676,61.0,3,30,1.0,0.0
2677,73.0,0,15,0.0,0.0
2678,74.0,15,15,0.0,0.0
2679,62.0,0,30,1.0,0.0
2680,83.0,14,30,0.0,0.0
2681,73.0,1,15,0.0,0.0
2682,80.0,2,30,0.0,0.0
2683,74.0,13,15,0.0,0.0
2684,59.0,15,30,1.0,0.0
2685,73.0,0,15,0.0,0.0
2686,83.0,1,15,0.0,0.0
2687,50.0,0,30,1.0,0.0
2688,62.0,11,20,1.0,0.0
2689,74.0,3,15,0.0,0.0
2690,60.0,0,15,1.0,0.0
2691,73.0,3,15,0.0,0.0
2692,81.0,12,15,0.0,0.0
2693,74.0,14,15,0.0,0.0
2694,80.0,1,30,0.0,0.0
2695,59.0,0,30,1.0,0.0
2696,73.0,15,15,0.0,0.0
2697,60.0,8,30,1.0,0.0
2698,74.0,15,15,0.0,0.0
2699,81.0,1,30,0.0,0.0
2700,73.0,1,15,0.0,0.0
2701,38.0,5,15,1.0,0.0
2702,78.0,4,30,0.0,0.0
2703,74.0,3,15,0.0,0.0
2704,57.0,8,15,1.0,0.0
2705,72.0,9,15,0.0,0.0
2706,55.0,15,15,1.0,0.0
2707,43.0,0,15,1.0,0.0
2708,79.0,6,15,0.0,0.0
2709,71.0,0,15,0.0,0.0
2710,74.0,9,15,0.0,0.0
2711,83.0,2,15,0.0,0.0
2712,50.0,4,15,1.0,0.0
2713,72.0,8,15,0.0,0.0
2714,66.0,0,15,1.0,0.0
2715,81.0,7,15,0.0,0.0
2716,74.0,9,15,0.0,0.0
2717,79.0,2,15,0.0,0.0
2718,71.0,15,15,0.0,0.0
2719,55.0,2,15,1.0,0.0
2720,67.0,2,15,1.0,0.0
2721,74.0,9,15,0.0,0.0
2722,66.0,0,15,1.0,0.0
2723,50.0,5,15,1.0,0.0
2724,83.0,1,15,0.0,0.0
2725,72.0,8,15,0.0,0.0
2726,74.0,9,15,0.0,0.0
2727,81.0,7,15,0.0,0.0
2728,79.0,1,15,0.0,0.0
2729,71.0,15,15,0.0,0.0
2730,55.0,3,15,1.0,0.0
2731,67.0,2,15,1.0,0.0
2732,74.0,9,15,0.0,0.0
2733,50.0,0,15,1.0,0.0
2734,66.0,1,15,1.0,0.0
2735,72.0,9,15,0.0,0.0
2736,83.0,5,15,0.0,0.0
2737,74.0,9,15,0.0,0.0
2738,81.0,6,15,0.0,0.0
2739,79.0,2,15,0.0,0.0
2740,71.0,15,15,0.0,0.0
2741,55.0,1,15,1.0,0.0
2742,67.0,3,15,1.0,0.0
2743,74.0,9,15,0.0,0.0
2744,50.0,5,15,1.0,0.0
2745,66.0,1,15,1.0,0.0
2746,72.0,9,15,0.0,0.0
2747,83.0,0,15,0.0,0.0
2748,74.0,10,15,0.0,0.0
2749,81.0,6,15,0.0,0.0
2750,43.0,0,15,1.0,0.0
2751,71.0,15,15,0.0,0.0
2752,67.0,3,15,1.0,0.0
2753,79.0,2,15,0.0,0.0
2754,67.0,7,15,0.0,0.0
2755,83.0,2,15,0.0,0.0
2756,62.0,2,15,1.0,0.0
2757,59.0,2,15,1.0,0.0
2758,55.0,2,15,1.0,0.0
2759,71.0,15,15,0.0,0.0
2760,74.0,8,15,0.0,0.0
2761,86.0,0,15,0.0,0.0
2762,62.0,3,15,1.0,0.0
2763,71.0,15,15,0.0,0.0
2764,59.0,0,15,1.0,0.0
2765,47.0,4,15,1.0,0.0
2766,67.0,7,15,0.0,0.0
2767,50.0,6,15,1.0,0.0
2768,59.0,0,15,1.0,0.0
2769,62.0,1,15,1.0,0.0
2770,71.0,15,15,0.0,0.0
2771,83.0,1,15,0.0,0.0
2772,74.0,9,15,0.0,0.0
2773,79.0,1,15,0.0,0.0
2774,71.0,5,15,0.0,0.0
2775,62.0,1,15,1.0,0.0
2776,59.0,4,15,1.0,0.0
2777,43.0,10,20,1.0,0.0
2778,71.0,15,15,0.0,0.0
2779,70.0,15,15,0.0,0.0
2780,71.0,15,15,0.0,0.0
2781,69.0,15,15,0.0,0.0
2782,71.0,15,15,0.0,0.0
2783,66.0,15,15,0.0,0.0
2784,75.0,13,30,0.0,0.0
2785,71.0,2,15,0.0,0.0
2786,67.0,13,15,0.0,0.0
2787,83.0,2,30,0.0,0.0
2788,71.0,15,15,0.0,0.0
2789,66.0,15,15,0.0,0.0
2790,82.0,15,30,0.0,0.0
2791,71.0,0,15,0.0,0.0
2792,67.0,15,15,0.0,0.0
2793,83.0,14,30,0.0,0.0
2794,71.0,1,15,0.0,0.0
2795,80.0,1,30,0.0,0.0
2796,65.0,14,15,0.0,0.0
2797,71.0,15,15,0.0,0.0
2798,66.0,1,15,0.0,0.0
2799,83.0,14,15,0.0,0.0
2800,71.0,5,15,0.0,0.0
2801,81.0,10,20,0.0,0.0
2802,80.0,0,30,0.0,0.0
2803,65.0,15,15,0.0,0.0
2804,71.0,15,15,0.0,0.0
2805,81.0,0,30,0.0,0.0
2806,66.0,15,15,0.0,0.0
2807,71.0,15,15,0.0,0.0
2808,47.0,13,30,1.0,0.0
2809,63.0,13,15,0.0,0.0
2810,78.0,2,30,0.0,0.0
2811,71.0,2,15,0.0,0.0
2812,64.0,13,15,0.0,0.0
2813,31.0,4,210,1.0,0.0
2814,43.0,4,210,1.0,0.0
2815,79.0,12,120,0.0,0.0
2816,55.0,2,30,1.0,0.0
2817,67.0,15,15,0.0,0.0
2818,63.0,15,15,0.0,0.0
2819,54.0,13,30,1.0,0.0
2820,67.0,2,15,0.0,0.0
2821,55.0,15,30,1.0,0.0
2822,64.0,15,15,0.0,0.0
2823,67.0,0,15,0.0,0.0
2824,52.0,1,30,1.0,0.0
2825,61.0,15,15,0.0,0.0
2826,67.0,2,15,0.0,0.0
2827,62.0,3,15,0.0,0.0
2828,55.0,12,15,1.0,0.0
2829,53.0,12,15,1.0,0.0
2830,67.0,3,15,0.0,0.0
2831,52.0,14,30,1.0,0.0
2832,61.0,15,15,0.0,0.0
2833,67.0,1,15,0.0,0.0
2834,53.0,6,30,1.0,0.0
2835,62.0,15,15,0.0,0.0
2836,67.0,1,15,0.0,0.0
2837,50.0,5,20,1.0,0.0
2838,89.0,7,30,0.0,0.0
2839,59.0,10,15,0.0,0.0
2840,67.0,0,15,0.0,0.0
2841,48.0,1,15,1.0,0.0
2842,36.0,4,15,1.0,0.0
2843,60.0,15,15,0.0,0.0
2844,88.0,3,15,0.0,0.0
2845,67.0,9,15,0.0,0.0
2846,89.0,0,15,0.0,0.0
2847,59.0,15,15,0.0,0.0
2848,43.0,3,15,1.0,0.0
2849,50.0,3,15,1.0,0.0
2850,67.0,8,15,0.0,0.0
2851,48.0,5,15,1.0,0.0
2852,88.0,2,15,0.0,0.0
2853,60.0,15,15,0.0,0.0
2854,36.0,0,15,1.0,0.0
2855,67.0,9,15,0.0,0.0
2856,89.0,2,15,0.0,0.0
2857,59.0,15,15,0.0,0.0
2858,50.0,4,15,1.0,0.0
2859,43.0,0,15,1.0,0.0
2860,67.0,10,15,0.0,0.0
2861,48.0,7,20,1.0,0.0
2862,60.0,8,15,0.0,0.0
2863,88.0,5,15,0.0,0.0
2864,36.0,3,60,1.0,0.0
2865,67.0,9,15,0.0,0.0
2866,87.0,6,15,0.0,0.0
2867,59.0,12,15,0.0,0.0
2868,67.0,10,15,0.0,0.0
2869,60.0,15,15,0.0,0.0
2870,88.0,5,15,0.0,0.0
2871,67.0,9,15,0.0,0.0
2872,64.0,15,15,0.0,0.0
2873,84.0,6,15,0.0,0.0
2874,57.0,14,30,1.0,0.0
2875,69.0,1,15,0.0,0.0
2876,81.0,2,120,0.0,0.0
2877,62.0,14,30,1.0,0.0
2878,66.0,15,15,0.0,0.0
2879,69.0,1,15,0.0,0.0
2880,61.0,1,30,1.0,0.0
2881,67.0,14,15,0.0,0.0
2882,69.0,15,15,0.0,0.0
2883,62.0,14,30,1.0,0.0
2884,66.0,15,15,0.0,0.0
2885,69.0,1,15,0.0,0.0
2886,61.0,0,30,1.0,0.0
2887,67.0,15,15,0.0,0.0
2888,69.0,13,15,0.0,0.0
2889,66.0,4,15,0.0,0.0
2890,64.0,11,20,1.0,0.0
2891,62.0,12,15,1.0,0.0
2892,69.0,3,15,0.0,0.0
2893,61.0,14,30,1.0,0.0
2894,67.0,15,15,0.0,0.0
2895,69.0,1,15,0.0,0.0
2896,62.0,6,20,1.0,0.0
2897,66.0,9,15,0.0,0.0
2898,69.0,8,15,0.0,0.0
2899,67.0,15,15,0.0,0.0
2900,86.0,4,15,0.0,0.0
2901,62.0,3,15,1.0,0.0
2902,69.0,15,15,0.0,0.0
2903,67.0,14,15,0.0,0.0
2904,76.0,1,30,0.0,0.0
2905,50.0,1,210,1.0,0.0
2906,71.0,15,15,0.0,0.0
2907,66.0,15,15,0.0,0.0
2908,75.0,14,30,0.0,0.0
2909,71.0,1,15,0.0,0.0
2910,67.0,15,15,0.0,0.0
2911,76.0,13,30,0.0,0.0
2912,71.0,2,15,0.0,0.0
2913,75.0,12,30,0.0,0.0
2914,66.0,15,15,0.0,0.0
2915,71.0,2,15,0.0,0.0
2916,67.0,15,15,0.0,0.0
2917,78.0,1,15,0.0,0.0
2918,71.0,2,15,0.0,0.0
2919,76.0,13,15,0.0,0.0
2920,66.0,15,15,0.0,0.0
2921,75.0,0,30,0.0,0.0
2922,71.0,15,15,0.0,0.0
2923,76.0,4,30,0.0,0.0
2924,67.0,10,15,0.0,0.0
2925,71.0,15,15,0.0,0.0
2926,76.0,2,30,0.0,0.0
2927,38.0,14,30,1.0,0.0
2928,67.0,11,15,0.0,0.0
2929,50.0,2,15,1.0,0.0
2930,71.0,1,15,0.0,0.0
2931,48.0,13,30,1.0,0.0
2932,69.0,15,15,0.0,0.0
2933,62.0,6,180,1.0,0.0
2934,78.0,10,180,0.0,0.0
2935,74.0,2,15,0.0,0.0
2936,47.0,14,30,1.0,0.0
2937,68.0,15,15,0.0,0.0
2938,74.0,1,15,0.0,0.0
2939,69.0,15,15,0.0,0.0
2940,48.0,13,30,1.0,0.0
2941,74.0,2,15,0.0,0.0
2942,47.0,14,30,1.0,0.0
2943,68.0,15,15,0.0,0.0
2944,74.0,1,15,0.0,0.0
2945,69.0,3,15,0.0,0.0
2946,50.0,12,15,1.0,0.0
2947,74.0,2,15,0.0,0.0
2948,48.0,13,15,1.0,0.0
2949,68.0,3,15,0.0,0.0
2950,47.0,2,30,1.0,0.0
2951,74.0,9,15,0.0,0.0
2952,69.0,13,15,0.0,0.0
2953,48.0,2,30,1.0,0.0
2954,74.0,15,15,0.0,0.0
2955,45.0,0,30,1.0,0.0
2956,54.0,2,30,1.0,0.0
2957,81.0,15,30,0.0,0.0
2958,72.0,13,15,0.0,0.0
2959,74.0,0,15,0.0,0.0
2960,43.0,3,60,1.0,0.0
2961,55.0,4,120,1.0,0.0
2962,86.0,0,30,0.0,0.0
2963,71.0,15,15,0.0,0.0
2964,74.0,15,15,0.0,0.0
2965,85.0,0,30,0.0,0.0
2966,70.0,12,15,0.0,0.0
2967,74.0,15,15,0.0,0.0
2968,86.0,13,30,0.0,0.0
2969,71.0,15,15,0.0,0.0
2970,74.0,2,15,0.0,0.0
2971,68.0,11,15,0.0,0.0
2972,83.0,14,30,0.0,0.0
2973,74.0,1,15,0.0,0.0
2974,69.0,5,15,0.0,0.0
2975,86.0,10,20,0.0,0.0
2976,38.0,11,60,1.0,0.0
2977,74.0,2,15,0.0,0.0
2978,84.0,13,15,0.0,0.0
2979,68.0,15,15,0.0,0.0
2980,83.0,2,30,0.0,0.0
2981,74.0,2,15,0.0,0.0
2982,84.0,14,30,0.0,0.0
2983,69.0,15,15,0.0,0.0
2984,74.0,1,15,0.0,0.0
2985,81.0,2,30,0.0,0.0
2986,66.0,15,15,0.0,0.0
2987,50.0,10,30,1.0,0.0
2988,74.0,3,15,0.0,0.0
2989,83.0,0,30,0.0,0.0
2990,67.0,15,15,0.0,0.0
2991,43.0,1,60,1.0,0.0
2992,62.0,15,30,1.0,0.0
2993,71.0,0,15,0.0,0.0
2994,61.0,14,30,1.0,0.0
2995,74.0,14,15,0.0,0.0
2996,82.0,0,30,0.0,0.0
2997,73.0,1,15,0.0,0.0
2998,62.0,0,30,1.0,0.0
2999,74.0,15,15,0.0,0.0
3000,83.0,15,30,0.0,0.0
3001,73.0,0,15,0.0,0.0
3002,74.0,15,15,0.0,0.0
3003,59.0,14,30,1.0,0.0
3004,80.0,1,30,0.0,0.0
3005,73.0,0,15,0.0,0.0
3006,83.0,11,20,0.0,0.0
3007,74.0,1,15,0.0,0.0
3008,50.0,12,60,1.0,0.0
3009,62.0,3,15,1.0,0.0
3010,60.0,1,15,1.0,0.0
3011,73.0,1,15,0.0,0.0
3012,81.0,13,15,0.0,0.0
3013,80.0,1,30,0.0,0.0
3014,74.0,14,15,0.0,0.0
3015,59.0,0,30,1.0,0.0
3016,73.0,3,15,0.0,0.0
3017,81.0,2,30,0.0,0.0
3018,74.0,15,15,0.0,0.0
3019,60.0,7,30,1.0,0.0
3020,73.0,2,15,0.0,0.0
3021,74.0,0,15,0.0,0.0
3022,57.0,1,15,1.0,0.0
3023,78.0,14,15,0.0,0.0
3024,38.0,4,15,1.0,0.0
3025,72.0,11,15,0.0,0.0
3026,79.0,2,15,0.0,0.0
3027,71.0,15,15,0.0,0.0
3028,55.0,0,15,1.0,0.0
3029,43.0,2,15,1.0,0.0
3030,74.0,9,15,0.0,0.0
3031,72.0,8,15,0.0,0.0
3032,66.0,3,15,1.0,0.0
3033,50.0,0,15,1.0,0.0
3034,83.0,3,15,0.0,0.0
3035,74.0,10,15,0.0,0.0
3036,81.0,7,15,0.0,0.0
3037,71.0,15,15,0.0,0.0
3038,67.0,2,15,1.0,0.0
3039,55.0,2,15,1.0,0.0
3040,79.0,1,15,0.0,0.0
3041,74.0,9,15,0.0,0.0
3042,66.0,1,15,1.0,0.0
3043,50.0,4,15,1.0,0.0
3044,72.0,10,15,0.0,0.0
3045,83.0,1,15,0.0,0.0
3046,74.0,10,15,0.0,0.0
3047,81.0,5,15,0.0,0.0
3048,71.0,15,15,0.0,0.0
3049,79.0,4,15,0.0,0.0
3050,55.0,1,15,1.0,0.0
3051,67.0,0,15,1.0,0.0
3052,74.0,10,15,0.0,0.0
3053,72.0,10,15,0.0,0.0
3054,66.0,0,15,1.0,0.0
3055,50.0,5,15,1.0,0.0
3056,83.0,0,15,0.0,0.0
3057,74.0,10,15,0.0,0.0
3058,81.0,5,15,0.0,0.0
3059,67.0,3,15,1.0,0.0
3060,71.0,15,15,0.0,0.0
3061,79.0,1,15,0.0,0.0
3062,55.0,1,15,1.0,0.0
3063,74.0,9,15,0.0,0.0
3064,50.0,2,15,1.0,0.0
3065,72.0,8,15,0.0,0.0
3066,83.0,4,15,0.0,0.0
3067,66.0,0,15,1.0,0.0
3068,81.0,7,15,0.0,0.0
3069,74.0,9,15,0.0,0.0
3070,79.0,2,15,0.0,0.0
3071,71.0,15,15,0.0,0.0
3072,67.0,3,15,1.0,0.0
3073,43.0,1,15,1.0,0.0
3074,67.0,8,15,0.0,0.0
3075,62.0,3,15,1.0,0.0
3076,59.0,0,15,1.0,0.0
3077,55.0,2,15,1.0,0.0
3078,83.0,2,15,0.0,0.0
3079,71.0,15,15,0.0,0.0
3080,74.0,8,15,0.0,0.0
3081,86.0,2,15,0.0,0.0
3082,71.0,15,15,0.0,0.0
3083,47.0,4,15,1.0,0.0
3084,59.0,0,15,1.0,0.0
3085,62.0,1,15,1.0,0.0
3086,67.0,7,15,0.0,0.0
3087,50.0,5,15,1.0,0.0
3088,59.0,1,15,1.0,0.0
3089,62.0,2,15,1.0,0.0
3090,71.0,15,15,0.0,0.0
3091,83.0,0,15,0.0,0.0
3092,74.0,14,15,0.0,0.0
3093,79.0,39,15,0.0,0.0
3094,71.0,63,60,0.0,0.0
3095,43.0,5,60,1.0,0.0
3096,59.0,1,60,1.0,0.0
3097,62.0,1,60,1.0,0.0
3098,74.0,57,60,0.0,0.0
3099,82.0,64,60,0.0,0.0
3100,81.0,57,60,0.0,0.0
3101,80.0,60,60,0.0,0.0
3102,78.0,2,60,0.0,0.0
3103,75.0,29,60,0.0,0.0
3104,72.0,1,120,0.0,0.0
3105,81.0,32,30,0.0,0.0
3106,74.0,1,180,0.0,0.0
3107,79.0,29,30,0.0,0.0
3108,78.0,6,30,0.0,0.0
3109,70.0,15,40,0.0,0.0
3110,81.0,61,40,0.0,0.0
3111,69.0,11,15,0.0,0.0
3112,82.0,4,60,0.0,0.0
3113,67.0,51,60,0.0,0.0
3114,57.0,60,60,1.0,0.0
3115,65.0,62,60,1.0,0.0
3116,64.0,61,60,1.0,0.0
3117,63.0,40,60,1.0,0.0
3118,61.0,34,60,1.0,0.0
3119,55.0,2,40,1.0,0.0
3120,58.0,11,40,1.0,0.0
3121,57.0,2,180,1.0,0.0
3122,55.0,8,60,1.0,0.0
3123,62.0,24,30,1.0,0.0
3124,61.0,30,30,1.0,0.0
3125,59.0,7,30,1.0,0.0
3126,53.0,17,40,1.0,0.0
3127,64.0,52,30,1.0,0.0
3128,52.0,6,15,1.0,0.0
3129,65.0,2,60,1.0,0.0
3130,50.0,58,60,1.0,0.0
3131,79.0,3,60,0.0,0.0
3132,67.0,55,60,0.0,0.0
3133,62.0,1,60,1.0,0.0
3134,47.0,2,60,1.0,0.0
3135,35.0,1,60,1.0,0.0
3136,87.0,51,60,0.0,0.0
3137,75.0,1,60,0.0,0.0
3138,55.0,2,60,1.0,0.0
3139,48.0,1,60,1.0,0.0
3140,36.0,1,60,1.0,0.0
3141,74.0,3,60,0.0,0.0
3142,86.0,49,60,0.0,0.0
3143,53.0,2,60,1.0,0.0
3144,56.0,2,60,1.0,0.0
3145,41.0,2,60,1.0,0.0
3146,44.0,4,60,1.0,0.0
3147,65.0,54,60,1.0,0.0
3148,56.0,2,60,1.0,0.0
3149,85.0,2,60,0.0,0.0
3150,73.0,2,60,0.0,0.0
3151,43.0,27,60,1.0,0.0
3152,55.0,1,60,1.0,0.0
3153,62.0,3,60,1.0,0.0
3154,83.0,3,60,0.0,0.0
3155,71.0,0,60,0.0,0.0
3156,67.0,1,90,1.0,0.0
3157,51.0,3,90,1.0,0.0
3158,39.0,1,90,1.0,0.0
3159,86.0,25,40,0.0,0.0
3160,74.0,6,30,0.0,0.0
3161,84.0,0,30,0.0,0.0
3162,72.0,25,30,0.0,0.0
3163,83.0,1,30,0.0,0.0
3164,71.0,27,30,0.0,0.0
3165,86.0,44,40,0.0,0.0
3166,59.0,0,30,1.0,0.0
3167,38.0,2,30,1.0,0.0
3168,50.0,2,30,1.0,0.0
3169,74.0,0,30,0.0,0.0
3170,87.0,0,40,0.0,0.0
3171,75.0,15,40,0.0,0.0
3172,36.0,1,60,1.0,0.0
3173,48.0,23,60,1.0,0.0
3174,60.0,5,60,1.0,0.0
3175,79.0,34,60,0.0,0.0
3176,72.0,6,30,0.0,0.0
3177,63.0,20,40,0.0,0.0
3178,81.0,27,30,0.0,0.0
3179,72.0,2,180,0.0,0.0
3180,62.0,1,180,0.0,0.0
3181,79.0,33,30,0.0,0.0
3182,78.0,27,30,0.0,0.0
3183,79.0,63,30,0.0,0.0
3184,81.0,56,60,0.0,0.0
3185,38.0,3,60,1.0,0.0
3186,54.0,20,60,1.0,0.0
3187,48.0,3,60,1.0,0.0
3188,57.0,36,30,1.0,0.0
3189,46.0,2,120,1.0,0.0
3190,43.0,53,120,1.0,0.0
3191,55.0,29,30,1.0,0.0
3192,54.0,28,30,1.0,0.0
3193,57.0,4,30,1.0,0.0
3194,58.0,57,60,1.0,0.0
3195,74.0,69,60,0.0,0.0
3196,82.0,56,60,0.0,0.0
3197,81.0,56,60,0.0,0.0
3198,80.0,62,60,0.0,0.0
3199,72.0,28,120,0.0,0.0
3200,75.0,1,60,0.0,0.0
3201,78.0,28,60,0.0,0.0
3202,81.0,30,30,0.0,0.0
3203,74.0,34,210,0.0,0.0
3204,79.0,3,30,0.0,0.0
3205,78.0,16,30,0.0,0.0
3206,70.0,8,40,0.0,0.0
3207,81.0,71,30,0.0,0.0
3208,69.0,5,15,0.0,0.0
3209,82.0,9,60,0.0,0.0
3210,67.0,7,90,0.0,0.0
3211,57.0,59,60,1.0,0.0
3212,65.0,66,60,1.0,0.0
3213,64.0,56,60,1.0,0.0
3214,63.0,56,60,1.0,0.0
3215,61.0,32,60,1.0,0.0
3216,58.0,4,60,1.0,0.0
3217,55.0,7,120,1.0,0.0
3218,62.0,20,30,1.0,0.0
3219,57.0,10,180,1.0,0.0
3220,61.0,33,30,1.0,0.0
3221,59.0,7,30,1.0,0.0
3222,53.0,15,40,1.0,0.0
3223,64.0,47,30,1.0,0.0
3224,52.0,7,15,1.0,0.0
3225,65.0,56,60,1.0,0.0
3226,50.0,2,60,1.0,0.0
3227,67.0,2,60,0.0,0.0
3228,79.0,51,60,0.0,0.0
3229,47.0,0,60,1.0,0.0
3230,35.0,4,60,1.0,0.0
3231,62.0,2,60,1.0,0.0
3232,87.0,56,60,0.0,0.0
3233,55.0,0,60,1.0,0.0
3234,36.0,2,60,1.0,0.0
3235,48.0,3,60,1.0,0.0
3236,75.0,2,60,0.0,0.0
3237,74.0,1,60,0.0,0.0
3238,86.0,1,60,0.0,0.0
3239,41.0,2,60,1.0,0.0
3240,53.0,55,60,1.0,0.0
3241,65.0,0,60,1.0,0.0
3242,44.0,1,60,1.0,0.0
3243,85.0,1,60,0.0,0.0
3244,73.0,1,60,0.0,0.0
3245,56.0,1,15,1.0,0.0
3246,71.0,4,60,0.0,0.0
3247,83.0,27,60,0.0,0.0
3248,62.0,1,60,1.0,0.0
3249,43.0,0,60,1.0,0.0
3250,55.0,1,60,1.0,0.0
3251,74.0,28,40,0.0,0.0
3252,86.0,2,30,0.0,0.0
3253,67.0,4,90,1.0,0.0
3254,39.0,3,90,1.0,0.0
3255,51.0,2,90,1.0,0.0
3256,84.0,1,30,0.0,0.0
3257,72.0,19,40,0.0,0.0
3258,71.0,1,30,0.0,0.0
3259,83.0,27,30,0.0,0.0
3260,86.0,0,40,0.0,0.0
3261,59.0,0,30,1.0,0.0
3262,50.0,4,30,1.0,0.0
3263,74.0,34,40,0.0,0.0
3264,38.0,3,40,1.0,0.0
3265,48.0,4,60,1.0,0.0
3266,87.0,4,40,0.0,0.0
3267,60.0,21,60,1.0,0.0
3268,36.0,2,60,1.0,0.0
3269,75.0,14,40,0.0,0.0
3270,72.0,10,30,0.0,0.0
3271,63.0,23,40,0.0,0.0
3272,79.0,31,60,0.0,0.0
3273,62.0,32,180,0.0,0.0
3274,81.0,29,30,0.0,0.0
3275,72.0,0,180,0.0,0.0
3276,79.0,31,30,0.0,0.0
3277,78.0,31,30,0.0,0.0
3278,79.0,60,30,0.0,0.0
3279,81.0,1,60,0.0,0.0
3280,48.0,0,40,1.0,0.0
3281,54.0,23,60,1.0,0.0
3282,38.0,28,40,1.0,0.0
3283,57.0,33,30,1.0,0.0
3284,43.0,54,120,1.0,0.0
3285,46.0,2,120,1.0,0.0
3286,55.0,32,30,1.0,0.0
3287,54.0,28,30,1.0,0.0
3288,57.0,5,30,1.0,0.0
3289,58.0,63,60,1.0,0.0
3290,70.0,62,60,0.0,0.0
3291,82.0,56,60,0.0,0.0
3292,42.0,3,60,1.0,0.0
3293,72.0,57,60,0.0,0.0
3294,81.0,0,60,0.0,0.0
3295,41.0,52,60,1.0,0.0
3296,80.0,0,60,0.0,0.0
3297,73.0,4,60,0.0,0.0
3298,78.0,5,60,0.0,0.0
3299,74.0,2,60,0.0,0.0
3300,46.0,1,60,1.0,0.0
3301,58.0,55,60,1.0,0.0
3302,67.0,3,60,1.0,0.0
3303,79.0,32,150,0.0,0.0
3304,75.0,56,60,0.0,0.0
3305,66.0,16,60,1.0,0.0
3306,39.0,1,60,1.0,0.0
3307,69.0,5,60,0.0,0.0
3308,70.0,4,60,0.0,0.0
3309,65.0,7,60,1.0,0.0
3310,38.0,53,60,1.0,0.0
3311,79.0,0,60,0.0,0.0
3312,71.0,55,60,0.0,0.0
3313,43.0,5,60,1.0,0.0
3314,62.0,1,60,1.0,0.0
3315,60.0,3,60,1.0,0.0
3316,48.0,41,180,1.0,0.0
3317,36.0,10,180,1.0,0.0
3318,87.0,3,60,0.0,0.0
3319,72.0,52,60,0.0,0.0
3320,59.0,4,60,1.0,0.0
3321,74.0,54,60,0.0,0.0
3322,79.0,4,60,0.0,0.0
3323,75.0,2,60,0.0,0.0
3324,80.0,2,60,0.0,0.0
3325,60.0,3,60,1.0,0.0
3326,84.0,1,60,0.0,0.0
3327,68.0,5,60,0.0,0.0
3328,63.0,61,60,1.0,0.0
3329,70.0,54,60,0.0,0.0
3330,79.0,36,120,0.0,0.0
3331,62.0,1,60,1.0,0.0
3332,50.0,0,180,1.0,0.0
3333,38.0,6,180,1.0,0.0
3334,73.0,2,60,0.0,0.0
3335,70.0,11,60,1.0,0.0
3336,74.0,50,60,0.0,0.0
3337,78.0,2,60,0.0,0.0
3338,69.0,3,40,1.0,0.0
3339,69.0,111,60,0.0,0.0
3340,66.0,10,40,1.0,0.0
3341,74.0,4,60,0.0,0.0
3342,62.0,6,60,1.0,0.0
3343,67.0,7,120,1.0,0.0
3344,72.0,1,120,0.0,0.0
3345,75.0,1,120,0.0,0.0
3346,60.0,29,120,1.0,0.0
3347,69.0,5,40,0.0,0.0
3348,66.0,4,40,1.0,0.0
3349,62.0,2,40,1.0,0.0
3350,74.0,75,40,0.0,0.0
3351,69.0,3,60,0.0,0.0
3352,74.0,0,60,0.0,0.0
3353,62.0,55,60,1.0,0.0
3354,66.0,0,60,1.0,0.0
3355,72.0,40,120,0.0,0.0
3356,77.0,53,60,0.0,0.0
3357,60.0,3,120,1.0,0.0
3358,67.0,3,120,1.0,0.0
3359,75.0,5,60,0.0,0.0
3360,62.0,3,60,1.0,0.0
3361,74.0,7,40,0.0,0.0
3362,69.0,2,60,0.0,0.0
3363,66.0,66,60,1.0,0.0
3364,74.0,60,60,0.0,0.0
3365,82.0,60,60,0.0,0.0
3366,63.0,1,60,0.0,0.0
3367,60.0,56,60,0.0,0.0
3368,81.0,2,60,0.0,0.0
3369,80.0,3,60,0.0,0.0
3370,72.0,47,60,0.0,0.0
3371,75.0,3,60,0.0,0.0
3372,78.0,30,60,0.0,0.0
3373,74.0,5,150,0.0,0.0
3374,38.0,5,60,1.0,0.0
3375,69.0,7,60,1.0,0.0
3376,71.0,7,60,0.0,0.0
3377,53.0,0,60,1.0,0.0
3378,67.0,27,180,1.0,0.0
3379,81.0,24,40,0.0,0.0
3380,79.0,25,40,0.0,0.0
3381,52.0,4,60,1.0,0.0
3382,72.0,15,40,0.0,0.0
3383,78.0,7,30,0.0,0.0
3384,81.0,40,30,0.0,0.0
3385,51.0,4,60,1.0,0.0
3386,82.0,9,40,0.0,0.0
3387,49.0,29,60,1.0,0.0
3388,70.0,13,40,1.0,0.0
3389,79.0,5,90,0.0,0.0
3390,76.0,2,60,0.0,0.0
3391,82.0,23,20,0.0,0.0
3392,67.0,3,15,1.0,0.0
3393,50.0,24,120,1.0,0.0
3394,62.0,0,150,1.0,0.0
3395,84.0,1,30,0.0,0.0
3396,74.0,23,40,0.0,0.0
3397,82.0,18,30,0.0,0.0
3398,74.0,7,20,0.0,0.0
3399,70.0,5,30,0.0,0.0
3400,81.0,31,30,0.0,0.0
3401,84.0,0,30,0.0,0.0
3402,67.0,5,30,0.0,0.0
3403,70.0,16,30,0.0,0.0
3404,86.0,41,40,0.0,0.0
3405,86.0,46,60,0.0,0.0
3406,66.0,13,30,0.0,0.0
3407,69.0,3,30,0.0,0.0
3408,60.0,9,40,1.0,0.0
3409,50.0,4,60,1.0,0.0
3410,58.0,15,60,1.0,0.0
3411,55.0,53,60,1.0,0.0
3412,67.0,10,40,0.0,0.0
3413,79.0,4,120,0.0,0.0
3414,50.0,52,60,1.0,0.0
3415,43.0,64,60,1.0,0.0
3416,70.0,60,60,0.0,0.0
3417,82.0,60,60,0.0,0.0
3418,81.0,53,60,0.0,0.0
3419,72.0,0,60,0.0,0.0
3420,42.0,4,60,1.0,0.0
3421,80.0,1,60,0.0,0.0
3422,73.0,3,60,0.0,0.0
3423,41.0,54,60,1.0,0.0
3424,46.0,59,60,1.0,0.0
3425,58.0,1,60,1.0,0.0
3426,74.0,2,60,0.0,0.0
3427,78.0,1,60,0.0,0.0
3428,67.0,59,60,1.0,0.0
3429,75.0,0,60,0.0,0.0
3430,79.0,2,120,0.0,0.0
3431,69.0,57,60,0.0,0.0
3432,39.0,2,60,1.0,0.0
3433,66.0,0,60,1.0,0.0
3434,38.0,54,60,1.0,0.0
3435,65.0,3,60,1.0,0.0
3436,70.0,1,60,0.0,0.0
3437,62.0,2,60,1.0,0.0
3438,43.0,4,60,1.0,0.0
3439,71.0,1,60,0.0,0.0
3440,79.0,53,60,0.0,0.0
3441,36.0,7,180,1.0,0.0
3442,60.0,4,60,1.0,0.0
3443,87.0,2,60,0.0,0.0
3444,72.0,56,60,0.0,0.0
3445,48.0,46,180,1.0,0.0
3446,79.0,51,60,0.0,0.0
3447,74.0,1,60,0.0,0.0
3448,59.0,4,60,1.0,0.0
3449,75.0,0,60,0.0,0.0
3450,60.0,2,60,1.0,0.0
3451,80.0,6,60,0.0,0.0
3452,63.0,4,60,1.0,0.0
3453,84.0,56,60,0.0,0.0
3454,68.0,1,60,0.0,0.0
3455,50.0,1,150,1.0,0.0
3456,38.0,9,150,1.0,0.0
3457,79.0,25,120,0.0,0.0
3458,70.0,52,60,0.0,0.0
3459,62.0,6,60,1.0,0.0
3460,73.0,7,60,0.0,0.0
3461,70.0,3,60,1.0,0.0
3462,69.0,7,40,1.0,0.0
3463,78.0,2,40,0.0,0.0
3464,74.0,66,60,0.0,0.0
3465,66.0,2,60,1.0,0.0
3466,62.0,109,60,1.0,0.0
3467,74.0,2,60,0.0,0.0
3468,69.0,4,60,0.0,0.0
3469,75.0,1,120,0.0,0.0
3470,72.0,13,120,0.0,0.0
3471,60.0,21,120,1.0,0.0
3472,67.0,6,120,1.0,0.0
3473,62.0,3,40,1.0,0.0
3474,69.0,6,40,0.0,0.0
3475,74.0,75,40,0.0,0.0
3476,66.0,1,40,1.0,0.0
3477,69.0,2,60,0.0,0.0
3478,74.0,2,60,0.0,0.0
3479,62.0,54,60,1.0,0.0
3480,66.0,1,60,1.0,0.0
3481,72.0,4,120,0.0,0.0
3482,77.0,58,60,0.0,0.0
3483,67.0,1,120,1.0,0.0
3484,60.0,0,120,1.0,0.0
3485,75.0,53,60,0.0,0.0
3486,66.0,2,60,1.0,0.0
3487,69.0,3,60,0.0,0.0
3488,62.0,57,60,1.0,0.0
3489,74.0,3,60,0.0,0.0
3490,74.0,64,60,0.0,0.0
3491,82.0,57,60,0.0,0.0
3492,63.0,0,60,0.0,0.0
3493,60.0,2,60,0.0,0.0
3494,81.0,57,60,0.0,0.0
3495,72.0,10,60,0.0,0.0
3496,75.0,2,60,0.0,0.0
3497,80.0,2,60,0.0,0.0
3498,78.0,32,60,0.0,0.0
3499,38.0,44,15,1.0,0.0
3500,69.0,4,60,1.0,0.0
3501,74.0,2,180,0.0,0.0
3502,67.0,4,180,1.0,0.0
3503,81.0,22,30,0.0,0.0
3504,71.0,7,60,0.0,0.0
3505,53.0,1,60,1.0,0.0
3506,79.0,28,30,0.0,0.0
3507,72.0,8,60,0.0,0.0
3508,78.0,17,30,0.0,0.0
3509,52.0,2,60,1.0,0.0
3510,81.0,45,30,0.0,0.0
3511,82.0,10,40,0.0,0.0
3512,51.0,30,60,1.0,0.0
3513,49.0,1,60,1.0,0.0
3514,70.0,17,40,1.0,0.0
3515,82.0,6,30,0.0,0.0
3516,76.0,4,40,0.0,0.0
3517,79.0,6,40,0.0,0.0
3518,67.0,21,20,1.0,0.0
3519,79.0,5,30,0.0,0.0
3520,50.0,28,90,1.0,0.0
3521,62.0,21,120,1.0,0.0
3522,84.0,1,30,0.0,0.0
3523,74.0,33,30,0.0,0.0
3524,82.0,17,30,0.0,0.0
3525,81.0,5,30,0.0,0.0
3526,70.0,4,30,0.0,0.0
3527,74.0,6,20,0.0,0.0
3528,84.0,1,30,0.0,0.0
3529,70.0,9,30,0.0,0.0
3530,67.0,6,30,0.0,0.0
3531,86.0,48,40,0.0,0.0
3532,60.0,31,60,1.0,0.0
3533,50.0,2,60,1.0,0.0
3534,69.0,6,30,0.0,0.0
3535,86.0,7,60,0.0,0.0
3536,66.0,19,40,0.0,0.0
3537,79.0,10,120,0.0,0.0
3538,67.0,29,30,0.0,0.0
3539,55.0,1,60,1.0,0.0
3540,58.0,49,60,1.0,0.0
3541,50.0,44,60,1.0,0.0
3542,43.0,79,40,1.0,0.0
3543,62.0,2,60,0.0,0.0
3544,83.0,0,60,0.0,0.0
3545,79.0,0,60,0.0,0.0
3546,74.0,13,15,0.0,0.0
3547,86.0,1,60,0.0,0.0
3548,67.0,1,60,0.0,0.0
3549,59.0,11,40,1.0,0.0
3550,55.0,1,40,1.0,0.0
3551,50.0,1,40,1.0,0.0
3552,71.0,1,60,0.0,0.0
3553,43.0,20,20,1.0,0.0
3554,47.0,2,20,1.0,0.0
3555,45.0,2,20,1.0,0.0
3556,47.0,20,20,1.0,0.0
3557,45.0,20,20,1.0,0.0
3558,43.0,20,20,1.0,0.0
3559,60.0,0,40,1.0,0.0
3560,54.0,8,40,1.0,0.0
3561,45.0,20,20,1.0,0.0
3562,57.0,1,40,1.0,0.0
3563,50.0,1,40,1.0,0.0
3564,66.0,0,60,0.0,0.0
3565,69.0,0,60,0.0,0.0
3566,74.0,2,60,0.0,0.0
3567,72.0,0,60,0.0,0.0
3568,62.0,0,60,0.0,0.0
3569,78.0,1,60,0.0,0.0
3570,48.0,7,20,1.0,0.0
3571,47.0,20,20,1.0,0.0
3572,48.0,20,20,1.0,0.0
3573,47.0,20,20,1.0,0.0
3574,45.0,20,20,1.0,0.0
3575,47.0,20,20,1.0,0.0
3576,79.0,0,120,0.0,0.0
3577,62.0,0,120,0.0,0.0
3578,67.0,16,120,0.0,0.0
3579,74.0,3,120,0.0,0.0
3580,59.0,9,60,1.0,0.0
3581,55.0,2,40,1.0,0.0
3582,71.0,0,120,0.0,0.0
3583,50.0,8,20,1.0,0.0
3584,48.0,20,20,1.0,0.0
3585,47.0,20,20,1.0,0.0
3586,48.0,20,20,1.0,0.0
3587,45.0,1,20,1.0,0.0
3588,43.0,20,20,1.0,0.0
3589,50.0,20,20,1.0,0.0
3590,48.0,20,20,1.0,0.0
3591,67.0,1,30,0.0,0.0
3592,79.0,0,30,0.0,0.0
3593,62.0,8,30,0.0,0.0
3594,74.0,2,30,0.0,0.0
3595,83.0,0,30,0.0,0.0
3596,59.0,2,30,1.0,0.0
3597,55.0,3,20,1.0,0.0
3598,50.0,0,20,1.0,0.0
3599,47.0,3,20,1.0,0.0
3600,71.0,1,30,0.0,0.0
3601,45.0,20,20,1.0,0.0
3602,43.0,20,20,1.0,0.0
3603,50.0,1,40,1.0,0.0
3604,57.0,1,40,1.0,0.0
3605,54.0,2,40,1.0,0.0
3606,38.0,20,20,1.0,0.0
3607,62.0,10,40,1.0,0.0
3608,81.0,1,60,0.0,0.0
3609,78.0,1,60,0.0,0.0
3610,69.0,1,60,0.0,0.0
3611,66.0,1,60,0.0,0.0
3612,74.0,1,60,0.0,0.0
3613,86.0,1,60,0.0,0.0
3614,42.0,0,20,1.0,0.0
3615,40.0,20,20,1.0,0.0
3616,42.0,20,20,1.0,0.0
3617,40.0,20,20,1.0,0.0
3618,38.0,20,20,1.0,0.0
3619,67.0,0,60,0.0,0.0
3620,61.0,0,40,1.0,0.0
3621,52.0,16,40,1.0,0.0
3622,57.0,1,40,1.0,0.0
3623,55.0,1,40,1.0,0.0
3624,40.0,20,20,1.0,0.0
3625,73.0,0,60,0.0,0.0
3626,79.0,0,60,0.0,0.0
3627,69.0,1,60,0.0,0.0
3628,64.0,1,60,0.0,0.0
3629,85.0,5,60,0.0,0.0
3630,76.0,2,60,0.0,0.0
3631,81.0,2,60,0.0,0.0
3632,43.0,2,20,1.0,0.0
3633,42.0,9,20,1.0,0.0
3634,43.0,20,20,1.0,0.0
3635,42.0,20,20,1.0,0.0
3636,40.0,20,20,1.0,0.0
3637,66.0,0,120,0.0,0.0
3638,81.0,1,120,0.0,0.0
3639,78.0,0,120,0.0,0.0
3640,69.0,2,120,0.0,0.0
3641,86.0,1,120,0.0,0.0
3642,62.0,10,120,1.0,0.0
3643,54.0,4,120,1.0,0.0
3644,57.0,1,120,1.0,0.0
3645,50.0,2,120,1.0,0.0
3646,42.0,20,20,1.0,0.0
3647,74.0,1,120,0.0,0.0
3648,45.0,20,20,1.0,0.0
3649,43.0,20,20,1.0,0.0
3650,42.0,20,20,1.0,0.0
3651,43.0,15,20,1.0,0.0
3652,40.0,3,20,1.0,0.0
3653,38.0,20,20,1.0,0.0
3654,42.0,20,20,1.0,0.0
3655,45.0,20,20,1.0,0.0
3656,49.0,20,20,1.0,0.0
3657,50.0,20,20,1.0,0.0
3658,52.0,20,20,1.0,0.0
3659,62.0,3,20,1.0,0.0
3660,55.0,8,20,1.0,0.0
3661,59.0,0,20,1.0,0.0
3662,74.0,1,30,0.0,0.0
3663,71.0,1,30,0.0,0.0
3664,79.0,5,30,0.0,0.0
3665,67.0,1,30,0.0,0.0
3666,83.0,0,30,0.0,0.0
3667,53.0,1,20,1.0,0.0
3668,52.0,20,20,1.0,0.0
3669,50.0,15,20,1.0,0.0
3670,55.0,2,30,1.0,0.0
3671,59.0,11,30,1.0,0.0
3672,62.0,1,30,1.0,0.0
3673,48.0,6,20,1.0,0.0
3674,74.0,1,15,0.0,0.0
3675,71.0,1,15,0.0,0.0
3676,67.0,0,15,0.0,0.0
3677,83.0,2,15,0.0,0.0
3678,79.0,1,15,0.0,0.0
3679,47.0,13,20,1.0,0.0
3680,45.0,19,20,1.0,0.0
3681,79.0,2,15,0.0,0.0
3682,83.0,0,15,0.0,0.0
3683,55.0,3,15,1.0,0.0
3684,62.0,1,15,1.0,0.0
3685,74.0,0,15,0.0,0.0
3686,67.0,1,15,0.0,0.0
3687,71.0,0,15,0.0,0.0
3688,59.0,0,15,1.0,0.0
3689,62.0,1,20,1.0,0.0
3690,59.0,1,20,1.0,0.0
3691,55.0,10,20,1.0,0.0
3692,67.0,2,30,0.0,0.0
3693,74.0,4,40,0.0,0.0
3694,71.0,1,30,0.0,0.0
3695,83.0,1,30,0.0,0.0
3696,79.0,0,30,0.0,0.0
3697,43.0,1,20,1.0,0.0
3698,45.0,20,20,1.0,0.0
3699,43.0,17,20,1.0,0.0
3700,71.0,2,20,0.0,0.0
3701,67.0,1,20,0.0,0.0
3702,74.0,2,20,0.0,0.0
3703,83.0,1,20,0.0,0.0
3704,79.0,2,15,0.0,0.0
3705,62.0,7,30,1.0,0.0
3706,55.0,0,30,1.0,0.0
3707,53.0,3,30,1.0,0.0
3708,41.0,2,20,1.0,0.0
3709,59.0,3,30,1.0,0.0
3710,43.0,20,20,1.0,0.0
3711,41.0,20,20,1.0,0.0
3712,62.0,3,30,1.0,0.0
3713,86.0,2,30,0.0,0.0
3714,40.0,3,20,1.0,0.0
3715,52.0,3,20,1.0,0.0
3716,55.0,1,20,1.0,0.0
3717,59.0,1,20,1.0,0.0
3718,79.0,1,30,0.0,0.0
3719,67.0,5,30,0.0,0.0
3720,74.0,1,30,0.0,0.0
3721,38.0,20,20,1.0,0.0
3722,40.0,20,20,1.0,0.0
3723,81.0,1,20,0.0,0.0
3724,84.0,3,30,0.0,0.0
3725,72.0,9,30,0.0,0.0
3726,69.0,0,30,0.0,0.0
3727,57.0,1,30,1.0,0.0
3728,60.0,1,30,1.0,0.0
3729,42.0,5,20,1.0,0.0
3730,54.0,0,30,1.0,0.0
3731,40.0,20,20,1.0,0.0
3732,42.0,12,20,1.0,0.0
3733,55.0,9,30,1.0,0.0
3734,59.0,3,30,1.0,0.0
3735,43.0,8,20,1.0,0.0
3736,83.0,0,15,0.0,0.0
3737,71.0,4,15,0.0,0.0
3738,79.0,1,15,0.0,0.0
3739,67.0,3,15,0.0,0.0
3740,42.0,20,20,1.0,0.0
3741,43.0,20,20,1.0,0.0
3742,59.0,1,30,1.0,0.0
3743,71.0,1,20,0.0,0.0
3744,67.0,4,20,0.0,0.0
3745,64.0,0,20,0.0,0.0
3746,79.0,1,20,0.0,0.0
3747,52.0,0,20,1.0,0.0
3748,55.0,10,30,1.0,0.0
3749,40.0,2,20,1.0,0.0
3750,76.0,1,20,0.0,0.0
3751,38.0,20,20,1.0,0.0
3752,40.0,20,20,1.0,0.0
3753,67.0,1,60,0.0,0.0
3754,72.0,1,60,0.0,0.0
3755,81.0,3,60,0.0,0.0
3756,69.0,0,60,0.0,0.0
3757,64.0,11,60,0.0,0.0
3758,36.0,20,20,1.0,0.0
3759,60.0,1,60,1.0,0.0
3760,52.0,4,60,1.0,0.0
3761,57.0,0,60,1.0,0.0
3762,76.0,1,60,0.0,0.0
3763,40.0,15,20,1.0,0.0
3764,45.0,3,20,1.0,0.0
3765,48.0,20,20,1.0,0.0
3766,47.0,20,20,1.0,0.0
3767,48.0,20,20,1.0,0.0
3768,62.0,2,60,0.0,0.0
3769,74.0,18,60,0.0,0.0
3770,66.0,0,60,0.0,0.0
3771,86.0,1,60,0.0,0.0
3772,81.0,1,60,0.0,0.0
3773,78.0,1,60,0.0,0.0
3774,54.0,0,40,1.0,0.0
3775,69.0,0,60,0.0,0.0
3776,57.0,1,40,1.0,0.0
3777,50.0,7,40,1.0,0.0
3778,38.0,20,20,1.0,0.0
3779,60.0,3,40,1.0,0.0
3780,42.0,6,20,1.0,0.0
3781,45.0,0,20,1.0,0.0
3782,50.0,20,20,1.0,0.0
3783,49.0,20,20,1.0,0.0
3784,50.0,20,20,1.0,0.0
3785,31.0,20,20,1.0,0.0
3786,50.0,0,120,1.0,0.0
3787,55.0,28,120,1.0,0.0
3788,47.0,3,120,1.0,0.0
3789,59.0,0,120,0.0,0.0
3790,79.0,0,120,0.0,0.0
3791,71.0,0,120,0.0,0.0
3792,62.0,1,120,0.0,0.0
3793,74.0,0,120,0.0,0.0
3794,67.0,0,120,0.0,0.0
3795,35.0,20,20,1.0,0.0
3796,38.0,20,20,1.0,0.0
3797,43.0,20,20,1.0,0.0
3798,38.0,17,20,1.0,0.0
3799,35.0,1,20,1.0,0.0
3800,31.0,15,60,1.0,0.0
3801,74.0,15,15,0.0,0.0
3802,76.0,15,15,0.0,0.0
3803,78.0,0,15,0.0,0.0
3804,79.0,15,15,0.0,0.0
3805,81.0,15,15,0.0,0.0
3806,83.0,15,15,0.0,0.0
3807,84.0,15,15,0.0,0.0
3808,71.0,15,90,0.0,0.0
3809,85.0,15,15,0.0,0.0
3810,67.0,5,90,0.0,0.0
3811,62.0,8,90,1.0,0.0
3812,55.0,15,120,1.0,0.0
3813,86.0,15,15,0.0,0.0
3814,88.0,15,15,0.0,0.0
3815,86.0,15,15,0.0,0.0
3816,84.0,15,15,0.0,0.0
3817,83.0,2,15,0.0,0.0
3818,81.0,0,15,0.0,0.0
3819,79.0,0,15,0.0,0.0
3820,86.0,15,15,0.0,0.0
3821,66.0,2,30,0.0,0.0
3822,50.0,15,120,1.0,0.0
3823,62.0,2,90,1.0,0.0
3824,69.0,12,30,0.0,0.0
3825,84.0,1,15,0.0,0.0
3826,83.0,15,15,0.0,0.0
3827,84.0,15,15,0.0,0.0
3828,69.0,3,40,0.0,0.0
3829,72.0,1,40,0.0,0.0
3830,83.0,13,15,0.0,0.0
3831,81.0,11,15,0.0,0.0
3832,79.0,15,15,0.0,0.0
3833,78.0,0,15,0.0,0.0
3834,67.0,0,120,0.0,0.0
3835,71.0,2,120,0.0,0.0
3836,79.0,15,15,0.0,0.0
3837,62.0,11,120,1.0,0.0
3838,43.0,2,120,1.0,0.0
3839,81.0,15,15,0.0,0.0
3840,79.0,15,15,0.0,0.0
3841,78.0,15,15,0.0,0.0
3842,79.0,15,15,0.0,0.0
3843,74.0,15,15,0.0,0.0
3844,76.0,15,15,0.0,0.0
3845,78.0,0,15,0.0,0.0
3846,79.0,15,15,0.0,0.0
3847,81.0,15,15,0.0,0.0
3848,83.0,15,15,0.0,0.0
3849,84.0,15,15,0.0,0.0
3850,86.0,15,15,0.0,0.0
3851,83.0,15,15,0.0,0.0
3852,86.0,15,15,0.0,0.0
3853,83.0,15,15,0.0,0.0
3854,62.0,12,120,1.0,0.0
3855,57.0,3,120,1.0,0.0
3856,69.0,2,210,0.0,0.0
3857,80.0,15,15,0.0,0.0
3858,66.0,0,120,0.0,0.0
3859,81.0,15,15,0.0,0.0
3860,83.0,15,15,0.0,0.0
3861,81.0,15,15,0.0,0.0
3862,79.0,15,15,0.0,0.0
3863,78.0,15,15,0.0,0.0
3864,76.0,15,15,0.0,0.0
3865,74.0,0,15,0.0,0.0
3866,64.0,6,60,0.0,0.0
3867,81.0,15,15,0.0,0.0
3868,45.0,7,120,1.0,0.0
3869,61.0,9,60,1.0,0.0
3870,79.0,15,15,0.0,0.0
3871,78.0,15,15,0.0,0.0
3872,79.0,0,15,0.0,0.0
3873,64.0,8,60,1.0,0.0
3874,78.0,15,15,0.0,0.0
3875,67.0,11,30,0.0,0.0
3876,76.0,2,15,0.0,0.0
3877,74.0,15,15,0.0,0.0
3878,73.0,0,15,0.0,0.0
3879,62.0,3,120,1.0,0.0
3880,50.0,1,120,1.0,0.0
3881,74.0,15,15,0.0,0.0
3882,66.0,13,120,0.0,0.0
3883,76.0,15,15,0.0,0.0
3884,74.0,15,15,0.0,0.0
3885,73.0,15,15,0.0,0.0
3886,74.0,15,15,0.0,0.0
3887,69.0,15,15,0.0,0.0
3888,71.0,12,15,0.0,0.0
3889,73.0,0,15,0.0,0.0
3890,74.0,15,15,0.0,0.0
3891,76.0,15,15,0.0,0.0
3892,78.0,15,15,0.0,0.0
3893,79.0,15,15,0.0,0.0
3894,81.0,15,15,0.0,0.0
3895,83.0,15,15,0.0,0.0
3896,85.0,15,15,0.0,0.0
3897,86.0,15,15,0.0,0.0
3898,43.0,0,60,1.0,0.0
3899,67.0,12,210,0.0,0.0
3900,84.0,15,15,0.0,0.0
3901,55.0,2,210,1.0,0.0
3902,62.0,1,210,0.0,0.0
3903,65.0,0,210,0.0,0.0
3904,83.0,15,15,0.0,0.0
3905,86.0,15,15,0.0,0.0
3906,84.0,15,15,0.0,0.0
3907,88.0,15,15,0.0,0.0
3908,47.0,15,60,1.0,0.0
3909,86.0,15,15,0.0,0.0
3910,89.0,15,15,0.0,0.0
3911,88.0,0,15,0.0,0.0
3912,86.0,15,15,0.0,0.0
3913,50.0,0,60,1.0,0.0
3914,84.0,15,15,0.0,0.0
3915,83.0,15,15,0.0,0.0
3916,81.0,15,15,0.0,0.0
3917,47.0,0,60,1.0,0.0
3918,79.0,13,15,0.0,0.0
3919,77.0,2,15,0.0,0.0
3920,76.0,15,15,0.0,0.0
3921,77.0,15,15,0.0,0.0
3922,75.0,15,15,0.0,0.0
3923,55.0,10,150,1.0,0.0
3924,64.0,4,120,0.0,0.0
3925,48.0,0,120,1.0,0.0
3926,60.0,1,120,0.0,0.0
3927,67.0,4,120,0.0,0.0
3928,76.0,15,15,0.0,0.0
3929,78.0,15,15,0.0,0.0
3930,80.0,15,15,0.0,0.0
3931,81.0,15,15,0.0,0.0
3932,83.0,15,15,0.0,0.0
3933,84.0,15,15,0.0,0.0
3934,86.0,10,15,0.0,0.0
3935,87.0,1,15,0.0,0.0
3936,88.0,15,15,0.0,0.0
3937,86.0,15,15,0.0,0.0
3938,84.0,15,15,0.0,0.0
3939,83.0,15,15,0.0,0.0
3940,81.0,15,15,0.0,0.0
3941,83.0,15,15,0.0,0.0
3942,84.0,15,15,0.0,0.0
3943,85.0,15,15,0.0,0.0
3944,67.0,0,120,0.0,0.0
3945,62.0,1,210,1.0,0.0
3946,59.0,11,120,1.0,0.0
3947,50.0,4,120,1.0,0.0
3948,86.0,15,15,0.0,0.0
3949,88.0,15,15,0.0,0.0
3950,86.0,15,15,0.0,0.0
3951,84.0,15,15,0.0,0.0
3952,83.0,15,15,0.0,0.0
3953,81.0,15,15,0.0,0.0
3954,79.0,0,15,0.0,0.0
3955,57.0,2,60,1.0,0.0
3956,86.0,15,15,0.0,0.0
3957,66.0,11,60,0.0,0.0
3958,38.0,4,120,1.0,0.0
3959,84.0,15,15,0.0,0.0
3960,83.0,15,15,0.0,0.0
3961,84.0,2,15,0.0,0.0
3962,60.0,5,40,1.0,0.0
3963,69.0,11,60,0.0,0.0
3964,83.0,15,15,0.0,0.0
3965,81.0,9,15,0.0,0.0
3966,79.0,15,15,0.0,0.0
3967,78.0,0,15,0.0,0.0
3968,67.0,54,120,0.0,0.0
3969,79.0,15,15,0.0,0.0
3970,59.0,1,120,1.0,0.0
3971,62.0,3,120,1.0,0.0
3972,43.0,2,120,1.0,0.0
3973,81.0,15,15,0.0,0.0
3974,83.0,15,15,0.0,0.0
3975,84.0,15,15,0.0,0.0
3976,86.0,15,15,0.0,0.0
3977,83.0,15,15,0.0,0.0
3978,86.0,15,15,0.0,0.0
3979,83.0,0,15,0.0,0.0
3980,79.0,60,60,0.0,0.0
3981,71.0,20,60,0.0,0.0
3982,52.0,2,60,1.0,0.0
3983,79.0,1,60,0.0,0.0
3984,76.0,4,60,0.0,0.0
3985,67.0,0,40,0.0,0.0
3986,55.0,0,60,1.0,0.0
3987,59.0,19,60,1.0,0.0
3988,40.0,20,20,1.0,0.0
3989,71.0,1,40,0.0,0.0
3990,64.0,2,60,0.0,0.0
3991,83.0,2,40,0.0,0.0
3992,43.0,8,20,1.0,0.0
3993,42.0,1,20,1.0,0.0
3994,43.0,20,20,1.0,0.0
3995,42.0,20,20,1.0,0.0
3996,40.0,20,20,1.0,0.0
3997,69.0,0,60,0.0,0.0
3998,71.0,1,60,0.0,0.0
3999,75.0,0,60,0.0,0.0
4000,63.0,0,60,0.0,0.0
4001,66.0,1,60,0.0,0.0
4002,54.0,1,60,1.0,0.0
4003,57.0,0,60,1.0,0.0
4004,59.0,1,60,1.0,0.0
4005,42.0,20,20,1.0,0.0
4006,45.0,16,20,1.0,0.0
4007,43.0,20,20,1.0,0.0
4008,45.0,20,20,1.0,0.0
4009,43.0,20,20,1.0,0.0
4010,42.0,15,20,1.0,0.0
4011,64.0,2,15,0.0,0.0
4012,71.0,0,15,0.0,0.0
4013,76.0,3,15,0.0,0.0
4014,67.0,0,15,0.0,0.0
4015,55.0,4,30,1.0,0.0
4016,52.0,2,20,1.0,0.0
4017,59.0,10,30,1.0,0.0
4018,43.0,4,20,1.0,0.0
4019,47.0,20,20,1.0,0.0
4020,43.0,20,20,1.0,0.0
4021,52.0,3,30,1.0,0.0
4022,60.0,1,20,1.0,0.0
4023,55.0,3,20,1.0,0.0
4024,40.0,4,20,1.0,0.0
4025,76.0,0,30,0.0,0.0
4026,79.0,1,30,0.0,0.0
4027,67.0,0,30,0.0,0.0
4028,64.0,1,30,0.0,0.0
4029,84.0,5,30,0.0,0.0
4030,72.0,2,30,0.0,0.0
4031,43.0,20,20,1.0,0.0
4032,48.0,15,20,1.0,0.0
4033,38.0,0,20,1.0,0.0
4034,53.0,4,20,1.0,0.0
4035,59.0,1,20,1.0,0.0
4036,71.0,0,20,0.0,0.0
4037,83.0,1,15,0.0,0.0
4038,65.0,1,15,0.0,0.0
4039,77.0,0,15,0.0,0.0
4040,79.0,2,15,0.0,0.0
4041,50.0,16,20,1.0,0.0
4042,67.0,0,15,0.0,0.0
4043,43.0,20,20,1.0,0.0
4044,47.0,19,20,1.0,0.0
4045,35.0,2,20,1.0,0.0
4046,47.0,1,30,1.0,0.0
4047,50.0,10,30,1.0,0.0
4048,55.0,0,30,1.0,0.0
4049,77.0,1,20,0.0,0.0
4050,86.0,3,30,0.0,0.0
4051,79.0,0,20,0.0,0.0
4052,89.0,1,20,0.0,0.0
4053,67.0,2,20,0.0,0.0
4054,74.0,1,20,0.0,0.0
4055,43.0,20,20,1.0,0.0
4056,47.0,11,20,1.0,0.0
4057,48.0,15,20,1.0,0.0
4058,88.0,0,15,0.0,0.0
4059,67.0,0,15,0.0,0.0
4060,72.0,1,15,0.0,0.0
4061,36.0,1,20,1.0,0.0
4062,76.0,2,15,0.0,0.0
4063,79.0,4,15,0.0,0.0
4064,52.0,1,20,1.0,0.0
4065,55.0,3,20,1.0,0.0
4066,84.0,2,15,0.0,0.0
4067,43.0,20,20,1.0,0.0
4068,48.0,20,20,1.0,0.0
4069,50.0,2,20,1.0,0.0
4070,83.0,1,30,0.0,0.0
4071,32.0,2,20,1.0,0.0
4072,52.0,1,20,1.0,0.0
4073,59.0,0,20,1.0,0.0
4074,64.0,7,30,0.0,0.0
4075,71.0,1,30,0.0,0.0
4076,76.0,4,30,0.0,0.0
4077,74.0,2,20,0.0,0.0
4078,40.0,20,20,1.0,0.0
4079,44.0,20,20,1.0,0.0
4080,52.0,1,40,1.0,0.0
4081,48.0,1,30,1.0,0.0
4082,60.0,9,20,1.0,0.0
4083,33.0,1,20,1.0,0.0
4084,81.0,1,30,0.0,0.0
4085,64.0,1,30,0.0,0.0
4086,72.0,2,30,0.0,0.0
4087,84.0,2,30,0.0,0.0
4088,76.0,2,40,0.0,0.0
4089,40.0,20,20,1.0,0.0
4090,45.0,20,20,1.0,0.0
4091,36.0,4,20,1.0,0.0
4092,52.0,1,30,1.0,0.0
4093,48.0,1,30,1.0,0.0
4094,57.0,2,30,1.0,0.0
4095,81.0,4,30,0.0,0.0
4096,72.0,6,30,0.0,0.0
4097,76.0,0,30,0.0,0.0
4098,64.0,1,20,0.0,0.0
4099,69.0,1,20,0.0,0.0
4100,40.0,20,20,1.0,0.0
4101,45.0,20,20,1.0,0.0
4102,38.0,20,20,1.0,0.0
4103,59.0,1,120,1.0,0.0
4104,67.0,1,120,0.0,0.0
4105,62.0,2,150,0.0,0.0
4106,55.0,5,120,1.0,0.0
4107,79.0,2,120,0.0,0.0
4108,74.0,1,120,0.0,0.0
4109,71.0,2,120,0.0,0.0
4110,43.0,20,20,1.0,0.0
4111,47.0,20,20,1.0,0.0
4112,50.0,20,20,1.0,0.0
4113,47.0,8,20,1.0,0.0
4114,43.0,20,20,1.0,0.0
4115,66.0,18,40,0.0,0.0
4116,54.0,1,20,1.0,0.0
4117,57.0,13,20,1.0,0.0
4118,38.0,4,20,1.0,0.0
4119,78.0,0,40,0.0,0.0
4120,74.0,1,40,0.0,0.0
4121,69.0,1,40,0.0,0.0
4122,42.0,0,20,1.0,0.0
4123,45.0,20,20,1.0,0.0
4124,50.0,4,20,1.0,0.0
4125,54.0,0,20,1.0,0.0
4126,62.0,1,20,1.0,0.0
4127,69.0,2,30,0.0,0.0
4128,66.0,2,30,0.0,0.0
4129,74.0,4,40,0.0,0.0
4130,57.0,7,20,1.0,0.0
4131,45.0,20,20,1.0,0.0
4132,42.0,20,20,1.0,0.0
4133,62.0,14,60,1.0,0.0
4134,59.0,1,60,1.0,0.0
4135,67.0,0,60,0.0,0.0
4136,55.0,0,60,1.0,0.0
4137,64.0,4,60,0.0,0.0
4138,76.0,0,60,0.0,0.0
4139,71.0,1,60,0.0,0.0
4140,38.0,20,20,1.0,0.0
4141,43.0,15,20,1.0,0.0
4142,47.0,5,20,1.0,0.0
4143,50.0,20,20,1.0,0.0
4144,49.0,20,20,1.0,0.0
4145,50.0,20,20,1.0,0.0
4146,62.0,1,40,1.0,0.0
4147,55.0,6,40,1.0,0.0
4148,79.0,2,60,0.0,0.0
4149,83.0,0,60,0.0,0.0
4150,76.0,0,60,0.0,0.0
4151,88.0,2,60,0.0,0.0
4152,67.0,0,60,0.0,0.0
4153,71.0,1,60,0.0,0.0
4154,59.0,6,40,1.0,0.0
4155,38.0,20,20,1.0,0.0
4156,43.0,2,20,1.0,0.0
4157,47.0,20,20,1.0,0.0
4158,50.0,20,20,1.0,0.0
4159,49.0,20,20,1.0,0.0
4160,50.0,20,20,1.0,0.0
4161,66.0,0,120,0.0,0.0
4162,54.0,0,120,1.0,0.0
4163,72.0,1,120,0.0,0.0
4164,78.0,1,120,0.0,0.0
4165,62.0,1,120,0.0,0.0
4166,74.0,1,120,0.0,0.0
4167,69.0,3,120,0.0,0.0
4168,50.0,0,120,1.0,0.0
4169,38.0,20,20,1.0,0.0
4170,60.0,5,120,1.0,0.0
4171,57.0,3,120,1.0,0.0
4172,42.0,20,20,1.0,0.0
4173,45.0,20,20,1.0,0.0
4174,48.0,20,20,1.0,0.0
4175,45.0,20,20,1.0,0.0
4176,43.0,5,20,1.0,0.0
4177,42.0,20,20,1.0,0.0
4178,40.0,20,20,1.0,0.0
4179,38.0,20,20,1.0,0.0
4180,54.0,2,30,1.0,0.0
4181,81.0,0,30,0.0,0.0
4182,78.0,1,20,0.0,0.0
4183,36.0,5,20,1.0,0.0
4184,74.0,2,30,0.0,0.0
4185,66.0,1,30,0.0,0.0
4186,72.0,1,30,0.0,0.0
4187,69.0,8,30,0.0,0.0
4188,60.0,0,20,1.0,0.0
4189,57.0,0,30,1.0,0.0
4190,35.0,20,20,1.0,0.0
4191,33.0,20,20,1.0,0.0
4192,31.0,20,20,1.0,0.0
4193,50.0,1,40,1.0,0.0
4194,55.0,1,40,1.0,0.0
4195,59.0,12,40,1.0,0.0
4196,74.0,0,40,0.0,0.0
4197,83.0,1,40,0.0,0.0
4198,86.0,0,40,0.0,0.0
4199,67.0,2,40,0.0,0.0
4200,71.0,1,40,0.0,0.0
4201,79.0,1,40,0.0,0.0
4202,35.0,1,20,1.0,0.0
4203,33.0,20,20,1.0,0.0
4204,35.0,20,20,1.0,0.0
4205,33.0,20,20,1.0,0.0
4206,31.0,20,20,1.0,0.0
4207,33.0,20,20,1.0,0.0
4208,50.0,1,40,1.0,0.0
4209,54.0,2,40,1.0,0.0
4210,57.0,0,40,1.0,0.0
4211,78.0,1,60,0.0,0.0
4212,66.0,13,60,0.0,0.0
4213,72.0,0,60,0.0,0.0
4214,62.0,0,60,0.0,0.0
4215,74.0,2,60,0.0,0.0
4216,69.0,1,60,0.0,0.0
4217,60.0,9,60,1.0,0.0
4218,36.0,8,20,1.0,0.0
4219,35.0,3,20,1.0,0.0
4220,36.0,20,20,1.0,0.0
4221,35.0,20,20,1.0,0.0
4222,33.0,20,20,1.0,0.0
4223,67.0,7,60,0.0,0.0
4224,35.0,20,20,1.0,0.0
4225,59.0,1,60,1.0,0.0
4226,74.0,1,40,0.0,0.0
4227,55.0,2,40,1.0,0.0
4228,50.0,0,40,1.0,0.0
4229,71.0,0,40,0.0,0.0
4230,79.0,0,60,0.0,0.0
4231,62.0,0,40,0.0,0.0
4232,38.0,9,20,1.0,0.0
4233,36.0,20,20,1.0,0.0
4234,38.0,20,20,1.0,0.0
4235,36.0,20,20,1.0,0.0
4236,35.0,20,20,1.0,0.0
4237,84.0,1,60,0.0,0.0
4238,60.0,3,40,1.0,0.0
4239,52.0,4,40,1.0,0.0
4240,36.0,20,20,1.0,0.0
4241,79.0,1,60,0.0,0.0
4242,55.0,1,40,1.0,0.0
4243,72.0,1,60,0.0,0.0
4244,67.0,2,60,0.0,0.0
4245,76.0,1,60,0.0,0.0
4246,88.0,2,60,0.0,0.0
4247,64.0,0,60,0.0,0.0
4248,40.0,4,20,1.0,0.0
4249,38.0,20,20,1.0,0.0
4250,40.0,20,20,1.0,0.0
4251,38.0,20,20,1.0,0.0
4252,36.0,20,20,1.0,0.0
4253,54.0,3,20,1.0,0.0
4254,50.0,0,20,1.0,0.0
4255,60.0,1,30,1.0,0.0
4256,57.0,0,30,1.0,0.0
4257,38.0,4,20,1.0,0.0
4258,69.0,0,30,0.0,0.0
4259,78.0,1,30,0.0,0.0
4260,72.0,5,30,0.0,0.0
4261,66.0,6,30,0.0,0.0
4262,36.0,20,20,1.0,0.0
4263,38.0,20,20,1.0,0.0
4264,67.0,0,20,0.0,0.0
4265,79.0,4,20,0.0,0.0
4266,71.0,0,20,0.0,0.0
4267,40.0,1,20,1.0,0.0
4268,52.0,3,20,1.0,0.0
4269,55.0,11,30,1.0,0.0
4270,59.0,1,30,1.0,0.0
4271,38.0,20,20,1.0,0.0
4272,40.0,14,20,1.0,0.0
4273,72.0,1,15,0.0,0.0
4274,64.0,0,15,0.0,0.0
4275,84.0,0,15,0.0,0.0
4276,76.0,1,20,0.0,0.0
4277,69.0,1,15,0.0,0.0
4278,81.0,4,15,0.0,0.0
4279,57.0,0,15,1.0,0.0
4280,52.0,18,20,1.0,0.0
4281,36.0,1,20,1.0,0.0
4282,60.0,0,15,1.0,0.0
4283,35.0,20,20,1.0,0.0
4284,36.0,20,20,1.0,0.0
4285,69.0,1,20,0.0,0.0
4286,57.0,0,30,1.0,0.0
4287,66.0,1,30,0.0,0.0
4288,81.0,0,30,0.0,0.0
4289,62.0,1,30,0.0,0.0
4290,74.0,1,30,0.0,0.0
4291,48.0,0,20,1.0,0.0
4292,60.0,1,30,0.0,0.0
4293,38.0,2,20,1.0,0.0
4294,50.0,2,20,1.0,0.0
4295,54.0,1,20,1.0,0.0
4296,72.0,10,30,0.0,0.0
4297,78.0,0,30,0.0,0.0
4298,36.0,20,20,1.0,0.0
4299,38.0,20,20,1.0,0.0
4300,79.0,0,30,0.0,0.0
4301,62.0,1,30,0.0,0.0
4302,71.0,1,30,0.0,0.0
4303,50.0,1,120,1.0,0.0
4304,31.0,6,20,1.0,0.0
4305,55.0,0,120,1.0,0.0
4306,47.0,11,120,1.0,0.0
4307,74.0,1,30,0.0,0.0
4308,67.0,0,30,0.0,0.0
4309,59.0,11,30,0.0,0.0
4310,35.0,20,20,1.0,0.0
4311,38.0,20,20,1.0,0.0
4312,43.0,20,20,1.0,0.0
4313,38.0,8,20,1.0,0.0
4314,35.0,60,20,1.0,0.0
4315,31.0,15,60,1.0,0.0
4316,71.0,0,15,0.0,0.0
4317,73.0,15,15,0.0,0.0
4318,75.0,15,15,0.0,0.0
4319,76.0,15,15,0.0,0.0
4320,78.0,15,15,0.0,0.0
4321,71.0,0,240,0.0,0.0
4322,67.0,14,120,0.0,0.0
4323,64.0,0,120,1.0,0.0
4324,52.0,0,120,1.0,0.0
4325,79.0,15,15,0.0,0.0
4326,81.0,15,15,0.0,0.0
4327,82.0,15,15,0.0,0.0
4328,83.0,15,15,0.0,0.0
4329,84.0,15,15,0.0,0.0
4330,83.0,15,15,0.0,0.0
4331,81.0,15,15,0.0,0.0
4332,79.0,1,15,0.0,0.0
4333,63.0,14,60,1.0,0.0
4334,47.0,14,90,1.0,0.0
4335,66.0,0,60,0.0,0.0
4336,78.0,15,15,0.0,0.0
4337,76.0,15,15,0.0,0.0
4338,83.0,15,15,0.0,0.0
4339,81.0,1,15,0.0,0.0
4340,69.0,14,60,0.0,0.0
4341,80.0,0,15,0.0,0.0
4342,66.0,15,15,1.0,0.0
4343,81.0,1,15,0.0,0.0
4344,79.0,15,15,0.0,0.0
4345,78.0,1,15,0.0,0.0
4346,76.0,15,15,0.0,0.0
4347,67.0,14,240,0.0,0.0
4348,64.0,14,60,1.0,0.0
4349,48.0,14,120,1.0,0.0
4350,75.0,15,15,0.0,0.0
4351,78.0,15,15,0.0,0.0
4352,79.0,1,15,0.0,0.0
4353,81.0,15,15,0.0,0.0
4354,64.0,14,40,0.0,0.0
4355,60.0,0,60,1.0,0.0
4356,79.0,15,15,0.0,0.0
4357,77.0,1,15,0.0,0.0
4358,76.0,1,15,0.0,0.0
4359,43.0,14,120,1.0,0.0
4360,59.0,14,60,1.0,0.0
4361,74.0,15,15,0.0,0.0
4362,62.0,14,40,0.0,0.0
4363,72.0,15,15,0.0,0.0
4364,79.0,1,15,0.0,0.0
4365,78.0,1,15,0.0,0.0
4366,65.0,0,40,0.0,0.0
4367,76.0,15,15,0.0,0.0
4368,62.0,0,60,1.0,0.0
4369,78.0,15,15,0.0,0.0
4370,76.0,1,15,0.0,0.0
4371,74.0,1,15,0.0,0.0
4372,48.0,14,120,1.0,0.0
4373,60.0,0,120,1.0,0.0
4374,72.0,15,15,0.0,0.0
4375,64.0,14,120,0.0,0.0
4376,67.0,0,120,0.0,0.0
4377,71.0,15,15,0.0,0.0
4378,75.0,15,15,0.0,0.0
4379,76.0,15,15,0.0,0.0
4380,74.0,15,15,0.0,0.0
4381,72.0,15,15,0.0,0.0
4382,71.0,15,15,0.0,0.0
4383,69.0,1,15,0.0,0.0
4384,71.0,1,15,0.0,0.0
4385,72.0,15,15,0.0,0.0
4386,74.0,15,15,0.0,0.0
4387,76.0,15,15,0.0,0.0
4388,78.0,15,15,0.0,0.0
4389,69.0,14,40,0.0,0.0
4390,48.0,0,60,1.0,0.0
4391,72.0,0,40,0.0,0.0
4392,64.0,14,60,1.0,0.0
4393,80.0,15,15,0.0,0.0
4394,81.0,1,15,0.0,0.0
4395,83.0,1,15,0.0,0.0
4396,71.0,14,120,0.0,0.0
4397,67.0,0,120,0.0,0.0
4398,84.0,15,15,0.0,0.0
4399,62.0,14,180,1.0,0.0
4400,50.0,14,180,1.0,0.0
4401,81.0,15,15,0.0,0.0
4402,79.0,15,15,0.0,0.0
4403,82.0,15,15,0.0,0.0
4404,83.0,15,15,0.0,0.0
4405,82.0,15,15,0.0,0.0
4406,83.0,1,15,0.0,0.0
4407,82.0,15,15,0.0,0.0
4408,69.0,0,40,0.0,0.0
4409,66.0,14,40,0.0,0.0
4410,83.0,15,15,0.0,0.0
4411,79.0,15,15,0.0,0.0
4412,78.0,1,15,0.0,0.0
4413,81.0,1,15,0.0,0.0
4414,80.0,1,15,0.0,0.0
4415,81.0,15,15,0.0,0.0
4416,79.0,15,15,0.0,0.0
4417,78.0,15,15,0.0,0.0
4418,76.0,15,15,0.0,0.0
4419,55.0,14,30,1.0,0.0
4420,38.0,14,210,1.0,0.0
4421,50.0,0,210,1.0,0.0
4422,74.0,1,15,0.0,0.0
4423,57.0,14,30,1.0,0.0
4424,75.0,15,15,0.0,0.0
4425,76.0,1,15,0.0,0.0
4426,78.0,15,15,0.0,0.0
4427,59.0,14,30,1.0,0.0
4428,76.0,1,15,0.0,0.0
4429,60.0,14,30,1.0,0.0
4430,79.0,15,15,0.0,0.0
4431,76.0,1,15,0.0,0.0
4432,81.0,15,15,0.0,0.0
4433,62.0,14,30,1.0,0.0
4434,76.0,1,15,0.0,0.0
4435,64.0,14,30,1.0,0.0
4436,83.0,15,15,0.0,0.0
4437,76.0,1,15,0.0,0.0
4438,84.0,15,15,0.0,0.0
4439,66.0,0,30,1.0,0.0
4440,76.0,1,15,0.0,0.0
4441,86.0,0,15,0.0,0.0
4442,67.0,15,15,1.0,0.0
4443,76.0,15,15,0.0,0.0
4444,88.0,15,15,0.0,0.0
4445,38.0,0,240,1.0,0.0
4446,69.0,14,30,1.0,0.0
4447,50.0,14,240,1.0,0.0
4448,76.0,1,15,0.0,0.0
4449,67.0,14,30,1.0,0.0
4450,86.0,15,15,0.0,0.0
4451,84.0,1,15,0.0,0.0
4452,66.0,14,30,1.0,0.0
4453,83.0,15,15,0.0,0.0
4454,84.0,1,15,0.0,0.0
4455,64.0,14,30,1.0,0.0
4456,81.0,15,15,0.0,0.0
4457,84.0,1,15,0.0,0.0
4458,62.0,14,30,1.0,0.0
4459,79.0,15,15,0.0,0.0
4460,84.0,1,15,0.0,0.0
4461,78.0,15,15,0.0,0.0
4462,60.0,14,30,1.0,0.0
4463,84.0,1,15,0.0,0.0
4464,59.0,14,30,1.0,0.0
4465,76.0,0,15,0.0,0.0
4466,66.0,15,15,0.0,0.0
4467,84.0,1,15,0.0,0.0
4468,74.0,15,15,0.0,0.0
4469,57.0,0,30,1.0,0.0
4470,84.0,1,15,0.0,0.0
4471,72.0,15,15,0.0,0.0
4472,55.0,14,60,1.0,0.0
4473,43.0,14,90,1.0,0.0
4474,67.0,14,30,0.0,0.0
4475,84.0,1,15,0.0,0.0
4476,71.0,15,15,0.0,0.0
4477,74.0,1,15,0.0,0.0
4478,74.0,14,120,0.0,0.0
4479,71.0,14,60,0.0,0.0
4480,79.0,15,15,0.0,0.0
4481,67.0,14,40,1.0,0.0
4482,83.0,1,15,0.0,0.0
4483,86.0,1,15,0.0,0.0
4484,83.0,1,15,0.0,0.0
4485,69.0,14,60,1.0,0.0
4486,50.0,0,60,1.0,0.0
4487,72.0,0,40,0.0,0.0
4488,81.0,15,15,0.0,0.0
4489,79.0,15,15,0.0,0.0
4490,78.0,1,15,0.0,0.0
4491,79.0,1,15,0.0,0.0
4492,74.0,0,30,0.0,0.0
4493,48.0,0,60,1.0,0.0
4494,66.0,14,60,1.0,0.0
4495,81.0,15,15,0.0,0.0
4496,69.0,14,30,0.0,0.0
4497,83.0,1,15,0.0,0.0
4498,84.0,15,15,0.0,0.0
4499,81.0,1,15,0.0,0.0
4500,47.0,0,120,1.0,0.0
4501,79.0,15,15,0.0,0.0
4502,67.0,14,180,0.0,0.0
4503,65.0,14,120,1.0,0.0
4504,78.0,15,15,0.0,0.0
4505,86.0,15,15,0.0,0.0
4506,84.0,15,15,0.0,0.0
4507,83.0,15,15,0.0,0.0
4508,81.0,15,15,0.0,0.0
4509,79.0,15,15,0.0,0.0
4510,77.0,1,15,0.0,0.0
4511,64.0,14,60,1.0,0.0
4512,48.0,0,60,1.0,0.0
4513,76.0,15,15,0.0,0.0
4514,75.0,15,15,0.0,0.0
4515,76.0,1,15,0.0,0.0
4516,78.0,15,15,0.0,0.0
4517,80.0,1,15,0.0,0.0
4518,81.0,15,15,0.0,0.0
4519,83.0,15,15,0.0,0.0
4520,84.0,15,15,0.0,0.0
4521,86.0,15,15,0.0,0.0
4522,71.0,14,60,0.0,0.0
4523,50.0,14,90,1.0,0.0
4524,62.0,0,90,1.0,0.0
4525,67.0,14,60,0.0,0.0
4526,88.0,15,15,0.0,0.0
4527,85.0,15,15,0.0,0.0
4528,86.0,1,15,0.0,0.0
4529,88.0,1,15,0.0,0.0
4530,86.0,1,15,0.0,0.0
4531,84.0,15,15,0.0,0.0
4532,83.0,15,15,0.0,0.0
4533,38.0,14,90,1.0,0.0
4534,62.0,14,120,1.0,0.0
4535,66.0,15,15,0.0,0.0
4536,69.0,14,30,0.0,0.0
4537,81.0,0,15,0.0,0.0
4538,79.0,1,15,0.0,0.0
4539,86.0,15,15,0.0,0.0
4540,84.0,15,15,0.0,0.0
4541,83.0,15,15,0.0,0.0
4542,69.0,0,30,0.0,0.0
4543,72.0,0,30,0.0,0.0
4544,84.0,1,15,0.0,0.0
4545,83.0,1,15,0.0,0.0
4546,81.0,15,15,0.0,0.0
4547,43.0,0,120,1.0,0.0
4548,62.0,14,120,1.0,0.0
4549,71.0,14,60,0.0,0.0
4550,67.0,14,90,0.0,0.0
4551,79.0,15,15,0.0,0.0
4552,78.0,15,15,0.0,0.0
4553,79.0,15,15,0.0,0.0
4554,74.0,15,15,0.0,0.0
4555,79.0,1,15,0.0,0.0
4556,83.0,1,15,0.0,0.0
4557,86.0,15,15,0.0,0.0
4558,83.0,1,15,0.0,0.0
4559,86.0,15,15,0.0,0.0
4560,83.0,15,15,0.0,0.0
4561,79.0,14,60,0.0,0.0
4562,62.0,0,15,0.0,0.0
4563,71.0,0,15,0.0,0.0
4564,67.0,16,15,0.0,0.0
4565,55.0,14,30,1.0,0.0
4566,62.0,0,15,0.0,0.0
4567,71.0,0,15,0.0,0.0
4568,67.0,16,15,0.0,0.0
4569,71.0,0,15,0.0,0.0
4570,55.0,0,15,1.0,0.0
4571,67.0,0,15,0.0,0.0
4572,62.0,0,15,0.0,0.0
4573,62.0,12,60,0.0,0.0
4574,55.0,44,120,1.0,0.0
4575,67.0,0,60,0.0,0.0
4576,70.0,0,60,0.0,0.0
4577,79.0,15,15,0.0,0.0
4578,74.0,14,15,0.0,0.0
4579,79.0,13,15,0.0,0.0
4580,82.0,15,15,0.0,0.0
4581,86.0,1,15,0.0,0.0
4582,82.0,17,15,0.0,0.0
4583,86.0,12,15,0.0,0.0
4584,82.0,4,15,0.0,0.0
4585,79.0,14,60,0.0,0.0
4586,55.0,0,30,1.0,0.0
4587,62.0,16,15,0.0,0.0
4588,70.0,0,15,0.0,0.0
4589,67.0,0,15,0.0,0.0
4590,67.0,30,15,0.0,0.0
4591,55.0,0,15,1.0,0.0
4592,62.0,0,15,0.0,0.0
4593,70.0,0,15,0.0,0.0
4594,70.0,91,15,0.0,0.0
4595,67.0,0,15,0.0,0.0
4596,55.0,0,15,1.0,0.0
4597,62.0,0,15,0.0,0.0
4598,63.0,45,60,0.0,0.0
4599,70.0,0,60,0.0,0.0
4600,39.0,45,120,1.0,0.0
4601,55.0,15,180,1.0,0.0
4602,67.0,0,60,0.0,0.0
4603,43.0,60,60,1.0,0.0
4604,46.0,53,60,1.0,0.0
4605,63.0,120,60,0.0,0.0
4606,58.0,0,480,1.0,0.0
4607,55.0,0,480,1.0,0.0
4608,39.0,8,480,1.0,0.0
4609,51.0,0,480,1.0,0.0
4610,67.0,19,60,0.0,0.0
4611,70.0,84,15,0.0,0.0
4612,67.0,54,240,0.0,0.0
4613,63.0,0,240,0.0,0.0
4614,75.0,82,30,0.0,0.0
4615,79.0,51,60,0.0,0.0
4616,82.0,10,40,0.0,0.0
4617,81.0,12,15,0.0,0.0
4618,79.0,18,15,0.0,0.0
4619,77.0,9,15,0.0,0.0
4620,75.0,16,15,0.0,0.0
4621,74.0,6,15,0.0,0.0
4622,63.0,0,240,1.0,0.0
4623,73.0,7,15,0.0,0.0
4624,70.0,9,60,0.0,0.0
4625,73.0,51,15,0.0,0.0
4626,68.0,12,60,0.0,0.0
4627,73.0,51,15,0.0,0.0
4628,67.0,45,60,0.0,0.0
4629,73.0,48,15,0.0,0.0
4630,74.0,35,60,0.0,0.0
4631,50.0,5,60,1.0,0.0
4632,66.0,8,120,0.0,0.0
4633,62.0,15,40,1.0,0.0
4634,62.0,12,120,1.0,0.0
4635,48.0,0,60,1.0,0.0
4636,74.0,20,15,0.0,0.0
4637,47.0,0,60,1.0,0.0
4638,67.0,0,60,0.0,0.0
4639,75.0,34,15,0.0,0.0
4640,76.0,18,15,0.0,0.0
4641,72.0,60,40,0.0,0.0
4642,45.0,0,40,1.0,0.0
4643,62.0,0,40,1.0,0.0
4644,77.0,27,15,0.0,0.0
4645,78.0,6,15,0.0,0.0
4646,71.0,15,40,0.0,0.0
4647,43.0,5,60,1.0,0.0
4648,62.0,0,60,1.0,0.0
4649,79.0,59,60,0.0,0.0
4650,83.0,41,60,0.0,0.0
4651,74.0,0,40,0.0,0.0
4652,66.0,15,40,0.0,0.0
4653,50.0,0,60,1.0,0.0
4654,62.0,1,60,1.0,0.0
4655,72.0,0,40,0.0,0.0
4656,81.0,61,60,0.0,0.0
4657,78.0,43,60,0.0,0.0
4658,62.0,110,60,1.0,0.0
4659,55.0,0,60,1.0,0.0
4660,71.0,0,40,0.0,0.0
4661,67.0,0,40,0.0,0.0
4662,74.0,30,40,0.0,0.0
4663,86.0,44,180,0.0,0.0
4664,83.0,11,40,0.0,0.0
4665,79.0,30,15,0.0,0.0
4666,62.0,0,40,1.0,0.0
4667,66.0,0,30,0.0,0.0
4668,74.0,0,30,0.0,0.0
4669,69.0,15,30,0.0,0.0
4670,57.0,17,40,1.0,0.0
4671,81.0,41,60,0.0,0.0
4672,78.0,11,40,0.0,0.0
4673,74.0,36,15,0.0,0.0
4674,45.0,0,40,1.0,0.0
4675,57.0,6,30,1.0,0.0
4676,76.0,9,40,0.0,0.0
4677,69.0,0,40,0.0,0.0
4678,73.0,0,30,0.0,0.0
4679,67.0,4,40,0.0,0.0
4680,78.0,6,15,0.0,0.0
4681,76.0,8,15,0.0,0.0
4682,74.0,38,15,0.0,0.0
4683,76.0,17,40,0.0,0.0
4684,78.0,47,15,0.0,0.0
4685,74.0,31,150,0.0,0.0
4686,66.0,15,40,0.0,0.0
4687,38.0,79,60,1.0,0.0
4688,50.0,0,60,1.0,0.0
4689,69.0,0,40,0.0,0.0
4690,76.0,6,15,0.0,0.0
4691,74.0,7,15,0.0,0.0
4692,73.0,39,15,0.0,0.0
4693,74.0,15,40,0.0,0.0
4694,76.0,16,15,0.0,0.0
4695,62.0,0,15,1.0,0.0
4696,43.0,0,15,1.0,0.0
4697,67.0,0,15,0.0,0.0
4698,71.0,52,15,0.0,0.0
4699,77.0,1,15,0.0,0.0
4700,77.0,8,15,0.0,0.0
4701,71.0,0,15,0.0,0.0
4702,62.0,53,15,1.0,0.0
4703,43.0,0,15,1.0,0.0
4704,67.0,0,15,0.0,0.0
4705,77.0,7,15,0.0,0.0
4706,62.0,55,15,1.0,0.0
4707,67.0,0,15,0.0,0.0
4708,71.0,0,15,0.0,0.0
4709,43.0,0,15,1.0,0.0
4710,77.0,5,15,0.0,0.0
4711,43.0,75,15,1.0,0.0
4712,71.0,0,15,0.0,0.0
4713,67.0,0,15,0.0,0.0
4714,62.0,0,15,1.0,0.0
4715,79.0,30,30,0.0,0.0
4716,60.0,0,120,1.0,0.0
4717,48.0,0,120,1.0,0.0
4718,72.0,46,120,0.0,0.0
4719,67.0,60,240,0.0,0.0
4720,78.0,31,30,0.0,0.0
4721,76.0,29,30,0.0,0.0
4722,78.0,1,30,0.0,0.0
4723,47.0,0,120,1.0,0.0
4724,55.0,14,180,1.0,0.0
4725,74.0,10,120,0.0,0.0
4726,79.0,59,40,0.0,0.0
4727,79.0,5,60,0.0,0.0
4728,48.0,30,90,1.0,0.0
4729,76.0,14,120,0.0,0.0
4730,81.0,9,150,0.0,0.0
4731,67.0,16,15,1.0,0.0
4732,67.0,6,15,1.0,0.0
4733,50.0,23,120,1.0,0.0
4734,74.0,3,60,0.0,0.0
4735,66.0,15,15,1.0,0.0
4736,67.0,6,15,1.0,0.0
4737,83.0,4,15,0.0,0.0
4738,66.0,1,15,1.0,0.0
4739,81.0,5,15,0.0,0.0
4740,79.0,11,15,0.0,0.0
4741,72.0,0,60,0.0,0.0
4742,67.0,15,15,1.0,0.0
4743,81.0,2,40,0.0,0.0
4744,66.0,13,15,1.0,0.0
4745,64.0,10,15,1.0,0.0
4746,83.0,5,15,0.0,0.0
4747,66.0,1,15,1.0,0.0
4748,81.0,32,30,0.0,0.0
4749,71.0,9,120,0.0,0.0
4750,64.0,20,120,1.0,0.0
4751,52.0,2,120,1.0,0.0
4752,79.0,33,30,0.0,0.0
4753,78.0,25,30,0.0,0.0
4754,81.0,7,30,0.0,0.0
4755,84.0,14,30,0.0,0.0
4756,83.0,3,30,0.0,0.0
4757,64.0,8,15,1.0,0.0
4758,62.0,7,15,1.0,0.0
4759,61.0,27,15,1.0,0.0
4760,81.0,14,30,0.0,0.0
4761,62.0,12,40,1.0,0.0
4762,84.0,10,40,0.0,0.0
4763,64.0,9,15,1.0,0.0
4764,47.0,41,20,1.0,0.0
4765,65.0,3,15,1.0,0.0
4766,86.0,1,15,0.0,0.0
4767,67.0,11,30,0.0,0.0
4768,65.0,1,15,1.0,0.0
4769,47.0,1,15,1.0,0.0
4770,79.0,30,30,0.0,0.0
4771,86.0,17,15,0.0,0.0
4772,67.0,11,30,0.0,0.0
4773,65.0,0,15,1.0,0.0
4774,47.0,16,15,1.0,0.0
4775,79.0,30,30,0.0,0.0
4776,86.0,3,15,0.0,0.0
4777,67.0,9,30,0.0,0.0
4778,65.0,2,15,1.0,0.0
4779,47.0,16,15,1.0,0.0
4780,86.0,3,15,0.0,0.0
4781,79.0,14,30,0.0,0.0
4782,67.0,46,15,0.0,0.0
4783,67.0,27,30,1.0,0.0
4784,48.0,9,90,1.0,0.0
4785,79.0,1,90,0.0,0.0
4786,86.0,10,60,0.0,0.0
4787,66.0,5,30,1.0,0.0
4788,64.0,4,30,1.0,0.0
4789,84.0,18,15,0.0,0.0
4790,66.0,6,20,1.0,0.0
4791,78.0,9,15,0.0,0.0
4792,76.0,51,15,0.0,0.0
4793,67.0,11,60,1.0,0.0
4794,74.0,14,90,0.0,0.0
4795,84.0,10,60,0.0,0.0
4796,55.0,13,120,1.0,0.0
4797,67.0,9,20,1.0,0.0
4798,83.0,10,15,0.0,0.0
4799,72.0,2,15,0.0,0.0
4800,71.0,32,15,0.0,0.0
4801,69.0,19,120,1.0,0.0
4802,48.0,10,120,1.0,0.0
4803,81.0,31,30,0.0,0.0
4804,72.0,34,240,0.0,0.0
4805,88.0,32,30,0.0,0.0
4806,86.0,19,30,0.0,0.0
4807,84.0,7,30,0.0,0.0
4808,50.0,0,120,1.0,0.0
4809,83.0,14,30,0.0,0.0
4810,81.0,1,30,0.0,0.0
4811,71.0,6,15,1.0,0.0
4812,69.0,11,15,1.0,0.0
4813,67.0,30,15,1.0,0.0
4814,79.0,9,30,0.0,0.0
4815,69.0,14,40,1.0,0.0
4816,78.0,3,30,0.0,0.0
4817,71.0,3,15,1.0,0.0
4818,67.0,10,120,1.0,0.0
4819,71.0,3,90,0.0,0.0
4820,43.0,10,450,1.0,0.0
4821,79.0,31,30,0.0,0.0
4822,81.0,25,30,0.0,0.0
4823,79.0,17,30,0.0,0.0
4824,74.0,2,30,0.0,0.0
4825,77.0,30,30,0.0,0.0
4826,65.0,35,120,0.0,0.0
4827,76.0,29,30,0.0,0.0
4828,74.0,23,30,0.0,0.0
4829,72.0,14,20,0.0,0.0
4830,55.0,4,60,1.0,0.0
4831,71.0,18,15,0.0,0.0
4832,64.0,1,60,0.0,0.0
4833,72.0,25,30,0.0,0.0
4834,60.0,30,60,1.0,0.0
4835,76.0,0,30,0.0,0.0
4836,64.0,36,60,1.0,0.0
4837,79.0,12,30,0.0,0.0
4838,84.0,16,15,0.0,0.0
4839,62.0,1,60,1.0,0.0
4840,77.0,23,30,0.0,0.0
4841,83.0,31,30,0.0,0.0
4842,59.0,39,60,1.0,0.0
4843,86.0,5,30,0.0,0.0
4844,89.0,9,15,0.0,0.0
4845,67.0,4,180,1.0,0.0
4846,89.0,28,30,0.0,0.0
4847,43.0,30,480,1.0,0.0
4848,72.0,3,120,0.0,0.0
4849,88.0,28,30,0.0,0.0
4850,87.0,31,30,0.0,0.0
4851,88.0,29,30,0.0,0.0
4852,76.0,1,60,0.0,0.0
4853,86.0,24,30,0.0,0.0
4854,84.0,29,30,0.0,0.0
4855,64.0,6,40,1.0,0.0
4856,79.0,7,40,0.0,0.0
4857,83.0,9,30,0.0,0.0
4858,81.0,30,30,0.0,0.0
4859,60.0,6,15,1.0,0.0
4860,82.0,29,30,0.0,0.0
4861,62.0,26,60,1.0,0.0
4862,79.0,25,120,0.0,0.0
4863,83.0,3,30,0.0,0.0
4864,59.0,16,40,1.0,0.0
4865,86.0,12,30,0.0,0.0
4866,83.0,5,30,0.0,0.0
4867,55.0,1,15,1.0,0.0
4868,86.0,11,30,0.0,0.0
4869,57.0,15,40,1.0,0.0
4870,78.0,5,60,0.0,0.0
4871,84.0,3,30,0.0,0.0
4872,59.0,6,15,1.0,0.0
4873,57.0,0,15,1.0,0.0
4874,55.0,20,15,1.0,0.0
4875,81.0,21,30,0.0,0.0
4876,72.0,5,60,0.0,0.0
4877,57.0,10,40,1.0,0.0
4878,78.0,4,30,0.0,0.0
4879,59.0,0,15,1.0,0.0
4880,79.0,28,180,0.0,0.0
4881,71.0,16,120,0.0,0.0
4882,55.0,30,30,1.0,0.0
4883,43.0,0,480,1.0,0.0
4884,31.0,3,480,1.0,0.0
4885,59.0,29,30,1.0,0.0
4886,62.0,29,30,1.0,0.0
4887,60.0,12,30,1.0,0.0
4888,59.0,28,30,1.0,0.0
4889,57.0,4,30,1.0,0.0
4890,55.0,18,30,1.0,0.0
4891,54.0,14,20,1.0,0.0
4892,52.0,29,30,1.0,0.0
4893,67.0,27,15,0.0,0.0
4894,72.0,28,60,0.0,0.0
4895,55.0,3,30,1.0,0.0
4896,60.0,18,30,1.0,0.0
4897,76.0,25,60,0.0,0.0
4898,64.0,17,20,1.0,0.0
4899,65.0,27,30,1.0,0.0
4900,74.0,27,60,0.0,0.0
4901,62.0,3,30,1.0,0.0
4902,59.0,18,30,1.0,0.0
4903,71.0,29,60,0.0,0.0
4904,53.0,14,15,1.0,0.0
4905,67.0,1,240,0.0,0.0
4906,52.0,24,30,1.0,0.0
4907,79.0,29,180,0.0,0.0
4908,43.0,0,480,1.0,0.0
4909,31.0,2,450,1.0,0.0
4910,48.0,34,30,1.0,0.0
4911,52.0,26,30,1.0,0.0
4912,55.0,33,20,1.0,0.0
4913,60.0,21,30,1.0,0.0
4914,55.0,10,15,1.0,0.0
4915,60.0,11,30,1.0,0.0
4916,76.0,9,40,0.0,0.0
4917,64.0,12,15,1.0,0.0
4918,72.0,27,15,0.0,0.0
4919,59.0,33,30,1.0,0.0
4920,62.0,0,240,0.0,0.0
4921,74.0,0,60,0.0,0.0
4922,55.0,12,30,1.0,0.0
4923,71.0,11,40,0.0,0.0
4924,50.0,31,15,1.0,0.0
4925,47.0,1,15,1.0,0.0
4926,67.0,33,15,0.0,0.0
4927,69.0,13,40,0.0,0.0
4928,48.0,12,30,1.0,0.0
4929,50.0,1,30,1.0,0.0
4930,71.0,3,15,0.0,0.0
4931,69.0,7,15,0.0,0.0
4932,67.0,28,15,0.0,0.0
4933,60.0,3,40,0.0,0.0
4934,54.0,12,30,1.0,0.0
4935,69.0,0,40,0.0,0.0
4936,48.0,14,15,1.0,0.0
4937,71.0,63,15,0.0,0.0
4938,62.0,5,60,0.0,0.0
4939,59.0,0,60,0.0,0.0
4940,43.0,70,90,1.0,0.0
4941,31.0,3,60,1.0,0.0
4942,55.0,4,60,1.0,0.0
4943,67.0,1,60,0.0,0.0
4944,60.0,3,30,0.0,0.0
4945,62.0,0,30,0.0,0.0
4946,54.0,1,30,1.0,0.0
4947,69.0,12,40,0.0,0.0
4948,50.0,8,30,1.0,0.0
4949,71.0,3,15,0.0,0.0
4950,69.0,10,15,0.0,0.0
4951,54.0,4,40,1.0,0.0
4952,67.0,23,15,0.0,0.0
4953,50.0,8,40,1.0,0.0
4954,60.0,3,30,0.0,0.0
4955,62.0,0,30,0.0,0.0
4956,69.0,10,40,0.0,0.0
4957,71.0,23,15,0.0,0.0
4958,55.0,4,30,1.0,0.0
4959,59.0,0,40,0.0,0.0
4960,62.0,2,40,0.0,0.0
4961,43.0,11,30,1.0,0.0
4962,67.0,11,15,0.0,0.0
4963,69.0,1,15,0.0,0.0
4964,71.0,15,15,0.0,0.0
4965,72.0,18,15,0.0,0.0
4966,74.0,13,15,0.0,0.0
4967,76.0,15,15,0.0,0.0
4968,78.0,15,15,0.0,0.0
4969,79.0,24,15,0.0,0.0
4970,72.0,0,30,0.0,0.0
4971,74.0,9,30,0.0,0.0
4972,62.0,2,20,1.0,0.0
4973,66.0,1,20,1.0,0.0
4974,81.0,13,30,0.0,0.0
4975,83.0,3,15,0.0,0.0
4976,79.0,10,15,0.0,0.0
4977,81.0,9,15,0.0,0.0
4978,66.0,17,20,1.0,0.0
4979,72.0,0,15,0.0,0.0
4980,74.0,6,15,0.0,0.0
4981,62.0,1,20,1.0,0.0
4982,81.0,18,40,0.0,0.0
4983,83.0,15,15,0.0,0.0
4984,79.0,19,15,0.0,0.0
4985,71.0,0,30,0.0,0.0
4986,74.0,19,30,0.0,0.0
4987,67.0,3,40,1.0,0.0
4988,55.0,18,60,1.0,0.0
4989,83.0,62,15,0.0,0.0
4990,74.0,23,30,0.0,0.0
4991,67.0,0,60,1.0,0.0
4992,55.0,18,60,1.0,0.0
4993,71.0,16,15,0.0,0.0
4994,86.0,2,15,0.0,0.0
4995,83.0,63,15,0.0,0.0
4996,67.0,4,60,1.0,0.0
4997,55.0,171,60,1.0,0.0
4998,71.0,0,15,0.0,0.0
4999,74.0,51,15,0.0,0.0
5000,79.0,0,60,0.0,0.0
