,note,step,duration,channel,velocity
0,38.0,60,30,6.0,0.0
1,62.0,0,30,3.0,0.0
2,53.0,60,30,4.0,0.0
3,62.0,30,240,1.0,0.0
4,41.0,60,30,6.0,0.0
5,57.0,60,30,4.0,0.0
6,62.0,0,30,3.0,0.0
7,40.0,60,30,6.0,0.0
8,62.0,30,30,3.0,0.0
9,55.0,0,30,4.0,0.0
10,61.0,30,120,1.0,0.0
11,43.0,45,30,6.0,0.0
12,58.0,15,30,4.0,0.0
13,61.0,30,30,3.0,0.0
14,62.0,30,120,1.0,0.0
15,41.0,60,30,6.0,0.0
16,57.0,0,30,4.0,0.0
17,62.0,0,30,3.0,0.0
18,69.0,30,30,2.0,0.0
19,69.0,30,240,0.0,0.0
20,64.0,30,120,1.0,0.0
21,37.0,60,30,6.0,0.0
22,64.0,30,30,3.0,0.0
23,57.0,0,30,4.0,0.0
24,69.0,0,30,2.0,0.0
25,38.0,60,30,6.0,0.0
26,65.0,60,240,1.0,0.0
27,65.0,0,30,3.0,0.0
28,69.0,30,30,2.0,0.0
29,57.0,0,30,4.0,0.0
30,68.0,0,120,0.0,0.0
31,38.0,60,30,6.0,0.0
32,68.0,0,30,2.0,0.0
33,65.0,0,30,3.0,0.0
34,59.0,30,30,4.0,0.0
35,69.0,0,120,0.0,0.0
36,64.0,0,360,1.0,0.0
37,36.0,60,60,6.0,0.0
38,64.0,60,60,3.0,0.0
39,69.0,0,60,2.0,0.0
40,60.0,0,60,4.0,0.0
41,32.0,60,60,6.0,0.0
42,71.0,60,120,0.0,0.0
43,62.0,0,60,4.0,0.0
44,71.0,0,60,2.0,0.0
45,64.0,0,60,3.0,0.0
46,72.0,0,120,0.0,0.0
47,33.0,60,60,6.0,0.0
48,60.0,60,60,4.0,0.0
49,72.0,0,60,2.0,0.0
50,64.0,0,60,3.0,0.0
51,74.0,0,240,0.0,0.0
52,70.0,0,60,0.0,0.0
53,38.0,60,60,6.0,0.0
54,66.0,0,120,1.0,0.0
55,72.0,0,60,2.0,0.0
56,62.0,0,60,4.0,0.0
57,69.0,0,60,0.0,0.0
58,66.0,60,60,3.0,0.0
59,70.0,0,120,0.0,0.0
60,67.0,60,120,1.0,0.0
61,31.0,60,60,6.0,0.0
62,67.0,0,60,3.0,0.0
63,70.0,0,60,2.0,0.0
64,62.0,0,60,4.0,0.0
65,69.0,0,60,0.0,0.0
66,33.0,0,60,6.0,0.0
67,57.0,0,240,1.0,0.0
68,65.0,60,60,1.0,0.0
69,73.0,0,120,0.0,0.0
70,64.0,0,60,1.0,0.0
71,64.0,0,60,2.0,0.0
72,61.0,60,60,3.0,0.0
73,57.0,0,60,4.0,0.0
74,67.0,0,60,0.0,0.0
75,41.0,60,60,6.0,0.0
76,65.0,0,120,1.0,0.0
77,74.0,0,120,0.0,0.0
78,69.0,0,120,0.0,0.0
79,62.0,60,60,3.0,0.0
80,57.0,0,60,4.0,0.0
81,69.0,0,60,2.0,0.0
82,56.0,0,120,1.0,0.0
83,71.0,0,120,0.0,0.0
84,76.0,0,120,0.0,0.0
85,59.0,60,60,1.0,0.0
86,40.0,0,60,6.0,0.0
87,68.0,0,60,2.0,0.0
88,64.0,0,120,1.0,0.0
89,59.0,60,60,4.0,0.0
90,64.0,0,60,3.0,0.0
91,57.0,0,120,1.0,0.0
92,72.0,0,60,0.0,0.0
93,38.0,30,60,6.0,0.0
94,77.0,0,240,0.0,0.0
95,65.0,0,60,4.0,0.0
96,71.0,0,30,0.0,0.0
97,62.0,30,30,1.0,0.0
98,69.0,0,60,3.0,0.0
99,72.0,60,60,2.0,0.0
100,69.0,0,30,0.0,0.0
101,60.0,0,30,1.0,0.0
102,59.0,60,120,1.0,0.0
103,62.0,0,120,1.0,0.0
104,43.0,60,60,6.0,0.0
105,67.0,0,240,0.0,0.0
106,65.0,0,60,4.0,0.0
107,67.0,0,60,3.0,0.0
108,71.0,0,60,2.0,0.0
109,76.0,0,120,0.0,0.0
110,36.0,60,60,6.0,0.0
111,60.0,0,240,1.0,0.0
112,64.0,0,360,1.0,0.0
113,72.0,60,60,2.0,0.0
114,64.0,0,60,4.0,0.0
115,67.0,0,60,3.0,0.0
116,33.0,0,60,6.0,0.0
117,72.0,0,240,0.0,0.0
118,69.0,60,60,0.0,0.0
119,69.0,0,60,4.0,0.0
120,67.0,0,60,0.0,0.0
121,72.0,60,60,3.0,0.0
122,76.0,0,60,2.0,0.0
123,57.0,0,120,1.0,0.0
124,65.0,0,240,0.0,0.0
125,38.0,60,60,6.0,0.0
126,65.0,0,60,4.0,0.0
127,72.0,0,60,3.0,0.0
128,74.0,60,60,2.0,0.0
129,50.0,60,120,1.0,0.0
130,62.0,0,180,1.0,0.0
131,70.0,0,60,0.0,0.0
132,38.0,60,60,6.0,0.0
133,74.0,0,60,2.0,0.0
134,69.0,0,60,3.0,0.0
135,69.0,0,60,0.0,0.0
136,65.0,0,60,4.0,0.0
137,40.0,0,60,6.0,0.0
138,64.0,60,120,0.0,0.0
139,52.0,0,240,1.0,0.0
140,68.0,60,60,0.0,0.0
141,64.0,0,60,4.0,0.0
142,69.0,0,60,3.0,0.0
143,72.0,0,60,2.0,0.0
144,60.0,0,60,1.0,0.0
145,69.0,60,120,0.0,0.0
146,40.0,0,60,6.0,0.0
147,62.0,0,120,0.0,0.0
148,59.0,0,120,1.0,0.0
149,62.0,60,60,4.0,0.0
150,71.0,0,60,2.0,0.0
151,68.0,0,60,3.0,0.0
152,68.0,0,60,0.0,0.0
153,57.0,0,120,1.0,0.0
154,60.0,0,120,0.0,0.0
155,69.0,0,120,0.0,0.0
156,45.0,60,60,6.0,0.0
157,69.0,0,60,2.0,0.0
158,60.0,60,60,4.0,0.0
159,69.0,0,60,3.0,0.0
160,43.0,60,60,6.0,0.0
161,55.0,0,120,10.0,0.0
162,61.0,0,120,10.0,0.0
163,70.0,0,120,10.0,0.0
164,82.0,0,60,2.0,0.0
165,76.0,60,60,3.0,0.0
166,73.0,0,60,3.0,0.0
167,67.0,0,60,4.0,0.0
168,53.0,0,120,10.0,0.0
169,69.0,0,120,10.0,0.0
170,41.0,60,60,6.0,0.0
171,62.0,0,120,10.0,0.0
172,81.0,60,60,2.0,0.0
173,77.0,0,60,3.0,0.0
174,65.0,0,60,4.0,0.0
175,74.0,0,60,3.0,0.0
176,67.0,0,120,10.0,0.0
177,69.0,0,60,7.0,0.0
178,61.0,0,120,10.0,0.0
179,52.0,0,120,10.0,0.0
180,57.0,0,60,7.0,0.0
181,40.0,60,60,6.0,0.0
182,45.0,0,60,8.0,0.0
183,79.0,0,60,3.0,0.0
184,69.0,60,60,3.0,0.0
185,69.0,0,60,7.0,0.0
186,57.0,0,60,7.0,0.0
187,85.0,0,60,2.0,0.0
188,45.0,0,60,8.0,0.0
189,64.0,0,60,4.0,0.0
190,62.0,30,60,4.0,0.0
191,65.0,0,120,10.0,0.0
192,38.0,0,60,6.0,0.0
193,50.0,0,120,8.0,0.0
194,50.0,0,120,10.0,0.0
195,62.0,0,120,10.0,0.0
196,69.0,0,120,7.0,0.0
197,62.0,0,120,7.0,0.0
198,86.0,0,60,2.0,0.0
199,86.0,30,60,3.0,0.0
200,74.0,0,30,2.0,0.0
201,74.0,60,30,3.0,0.0
202,50.0,60,240,1.0,0.0
203,62.0,0,60,4.0,0.0
204,69.0,0,240,15.0,0.0
205,38.0,30,60,6.0,0.0
206,65.0,0,240,15.0,0.0
207,50.0,0,240,15.0,0.0
208,50.0,0,240,5.0,0.0
209,50.0,0,180,14.0,0.0
210,74.0,0,240,15.0,0.0
211,50.0,0,180,10.0,0.0
212,74.0,30,60,2.0,0.0
213,74.0,0,60,3.0,0.0
214,62.0,0,30,2.0,0.0
215,62.0,60,30,3.0,0.0
216,38.0,0,60,6.0,0.0
217,62.0,30,60,4.0,0.0
218,70.0,0,60,3.0,0.0
219,70.0,30,60,2.0,0.0
220,50.0,0,60,14.0,0.0
221,50.0,0,60,10.0,0.0
222,58.0,0,30,3.0,0.0
223,58.0,0,30,2.0,0.0
224,57.0,0,180,13.0,0.0
225,61.0,0,60,4.0,0.0
226,57.0,0,240,1.0,0.0
227,57.0,0,240,15.0,0.0
228,73.0,0,240,15.0,0.0
229,76.0,60,240,15.0,0.0
230,49.0,30,60,14.0,0.0
231,37.0,0,60,6.0,0.0
232,49.0,0,120,1.0,0.0
233,57.0,0,240,5.0,0.0
234,69.0,0,240,15.0,0.0
235,57.0,0,180,10.0,0.0
236,49.0,0,60,10.0,0.0
237,76.0,0,60,3.0,0.0
238,76.0,30,60,2.0,0.0
239,49.0,0,60,10.0,0.0
240,49.0,0,60,14.0,0.0
241,64.0,0,30,2.0,0.0
242,64.0,60,30,3.0,0.0
243,50.0,0,120,1.0,0.0
244,50.0,0,120,14.0,0.0
245,38.0,30,60,6.0,0.0
246,50.0,0,120,10.0,0.0
247,62.0,0,60,4.0,0.0
248,77.0,30,60,2.0,0.0
249,77.0,0,60,3.0,0.0
250,57.0,0,60,13.0,0.0
251,57.0,0,60,10.0,0.0
252,65.0,0,30,3.0,0.0
253,65.0,0,30,2.0,0.0
254,52.0,0,120,10.0,0.0
255,62.0,0,240,0.0,0.0
256,62.0,30,180,10.0,0.0
257,52.0,0,120,14.0,0.0
258,62.0,0,180,12.0,0.0
259,56.0,0,60,13.0,0.0
260,62.0,0,240,5.0,0.0
261,40.0,0,60,6.0,0.0
262,64.0,30,60,4.0,0.0
263,62.0,0,240,15.0,0.0
264,56.0,0,120,15.0,0.0
265,52.0,0,120,1.0,0.0
266,56.0,0,60,10.0,0.0
267,56.0,0,120,1.0,0.0
268,56.0,60,120,5.0,0.0
269,71.0,30,60,3.0,0.0
270,71.0,0,60,2.0,0.0
271,56.0,0,60,10.0,0.0
272,56.0,0,60,13.0,0.0
273,59.0,0,30,2.0,0.0
274,59.0,0,30,3.0,0.0
275,53.0,0,120,10.0,0.0
276,53.0,0,120,14.0,0.0
277,57.0,0,120,15.0,0.0
278,41.0,0,60,6.0,0.0
279,57.0,0,120,1.0,0.0
280,65.0,0,60,4.0,0.0
281,57.0,0,120,5.0,0.0
282,57.0,0,120,13.0,0.0
283,57.0,0,120,10.0,0.0
284,53.0,0,120,1.0,0.0
285,69.0,0,60,3.0,0.0
286,69.0,30,60,2.0,0.0
287,62.0,0,60,12.0,0.0
288,62.0,60,60,10.0,0.0
289,57.0,0,30,2.0,0.0
290,57.0,0,30,3.0,0.0
291,55.0,0,120,13.0,0.0
292,61.0,0,60,12.0,0.0
293,52.0,0,120,14.0,0.0
294,52.0,0,120,10.0,0.0
295,40.0,0,60,6.0,0.0
296,55.0,0,120,10.0,0.0
297,69.0,0,240,0.0,0.0
298,61.0,60,120,0.0,0.0
299,55.0,0,120,1.0,0.0
300,52.0,0,120,1.0,0.0
301,67.0,0,60,15.0,0.0
302,52.0,30,60,15.0,0.0
303,64.0,0,60,4.0,0.0
304,73.0,0,60,15.0,0.0
305,61.0,0,60,10.0,0.0
306,69.0,0,60,15.0,0.0
307,69.0,0,180,11.0,0.0
308,79.0,30,60,2.0,0.0
309,79.0,0,60,3.0,0.0
310,61.0,0,60,12.0,0.0
311,61.0,0,60,10.0,0.0
312,67.0,0,30,2.0,0.0
313,67.0,0,30,3.0,0.0
314,50.0,0,120,14.0,0.0
315,62.0,30,60,10.0,0.0
316,62.0,0,60,12.0,0.0
317,74.0,0,60,15.0,0.0
318,65.0,0,60,15.0,0.0
319,62.0,0,60,4.0,0.0
320,50.0,0,120,1.0,0.0
321,53.0,0,120,1.0,0.0
322,53.0,0,120,10.0,0.0
323,38.0,0,60,6.0,0.0
324,62.0,0,60,0.0,0.0
325,50.0,0,60,15.0,0.0
326,53.0,0,120,13.0,0.0
327,69.0,0,60,15.0,0.0
328,50.0,0,120,10.0,0.0
329,77.0,30,60,2.0,0.0
330,77.0,0,60,3.0,0.0
331,60.0,0,60,10.0,0.0
332,69.0,60,60,11.0,0.0
333,60.0,0,60,12.0,0.0
334,60.0,0,60,0.0,0.0
335,65.0,0,30,3.0,0.0
336,65.0,0,30,2.0,0.0
337,71.0,0,60,15.0,0.0
338,68.0,0,60,15.0,0.0
339,52.0,0,60,15.0,0.0
340,62.0,0,120,13.0,0.0
341,59.0,0,60,12.0,0.0
342,52.0,0,120,14.0,0.0
343,40.0,0,60,6.0,0.0
344,68.0,0,60,11.0,0.0
345,52.0,0,120,10.0,0.0
346,52.0,0,120,1.0,0.0
347,64.0,0,60,4.0,0.0
348,59.0,0,60,0.0,0.0
349,68.0,0,120,0.0,0.0
350,62.0,0,120,10.0,0.0
351,62.0,0,120,1.0,0.0
352,59.0,30,60,10.0,0.0
353,74.0,0,60,15.0,0.0
354,74.0,30,60,2.0,0.0
355,74.0,0,60,3.0,0.0
356,64.0,0,60,0.0,0.0
357,64.0,60,60,10.0,0.0
358,68.0,0,60,11.0,0.0
359,64.0,0,60,12.0,0.0
360,62.0,0,30,2.0,0.0
361,62.0,0,30,3.0,0.0
362,69.0,0,120,0.0,0.0
363,60.0,0,120,13.0,0.0
364,53.0,0,60,15.0,0.0
365,57.0,0,120,0.0,0.0
366,69.0,0,120,11.0,0.0
367,69.0,0,120,15.0,0.0
368,72.0,0,120,15.0,0.0
369,57.0,0,120,12.0,0.0
370,53.0,0,60,10.0,0.0
371,41.0,0,60,6.0,0.0
372,60.0,0,120,10.0,0.0
373,60.0,0,120,1.0,0.0
374,53.0,0,60,1.0,0.0
375,53.0,30,60,14.0,0.0
376,65.0,0,60,4.0,0.0
377,57.0,0,120,10.0,0.0
378,72.0,30,60,3.0,0.0
379,72.0,0,60,2.0,0.0
380,52.0,0,60,10.0,0.0
381,52.0,0,60,1.0,0.0
382,40.0,0,60,6.0,0.0
383,52.0,0,60,15.0,0.0
384,64.0,0,60,4.0,0.0
385,52.0,0,60,14.0,0.0
386,60.0,60,30,3.0,0.0
387,60.0,0,30,2.0,0.0
388,62.0,0,120,13.0,0.0
389,62.0,0,120,1.0,0.0
390,65.0,0,120,0.0,0.0
391,50.0,0,60,14.0,0.0
392,65.0,0,120,10.0,0.0
393,71.0,0,120,15.0,0.0
394,38.0,0,60,6.0,0.0
395,50.0,0,60,1.0,0.0
396,62.0,0,120,10.0,0.0
397,62.0,0,60,4.0,0.0
398,50.0,0,60,10.0,0.0
399,50.0,30,60,15.0,0.0
400,65.0,60,120,15.0,0.0
401,67.0,0,120,15.0,0.0
402,71.0,0,120,11.0,0.0
403,65.0,0,120,12.0,0.0
404,71.0,0,120,0.0,0.0
405,77.0,0,60,2.0,0.0
406,77.0,30,60,3.0,0.0
407,55.0,0,60,10.0,0.0
408,67.0,0,60,4.0,0.0
409,55.0,0,60,1.0,0.0
410,55.0,0,60,14.0,0.0
411,43.0,0,60,6.0,0.0
412,55.0,0,60,15.0,0.0
413,65.0,0,30,3.0,0.0
414,65.0,0,30,2.0,0.0
415,48.0,0,120,14.0,0.0
416,72.0,0,120,11.0,0.0
417,72.0,0,120,0.0,0.0
418,48.0,0,120,15.0,0.0
419,64.0,0,120,15.0,0.0
420,48.0,0,120,10.0,0.0
421,67.0,0,120,15.0,0.0
422,72.0,0,120,15.0,0.0
423,64.0,60,120,12.0,0.0
424,48.0,0,120,1.0,0.0
425,36.0,0,120,6.0,0.0
426,64.0,30,60,13.0,0.0
427,64.0,0,60,1.0,0.0
428,64.0,0,120,0.0,0.0
429,64.0,0,60,10.0,0.0
430,60.0,0,120,4.0,0.0
431,76.0,30,60,2.0,0.0
432,76.0,0,60,3.0,0.0
433,57.0,0,60,1.0,0.0
434,57.0,0,60,13.0,0.0
435,57.0,0,60,10.0,0.0
436,64.0,0,30,3.0,0.0
437,64.0,0,30,2.0,0.0
438,72.0,0,120,15.0,0.0
439,50.0,0,120,15.0,0.0
440,66.0,0,120,15.0,0.0
441,38.0,0,120,6.0,0.0
442,69.0,0,120,15.0,0.0
443,62.0,0,60,10.0,0.0
444,62.0,0,120,4.0,0.0
445,66.0,0,120,12.0,0.0
446,50.0,0,120,1.0,0.0
447,50.0,0,120,10.0,0.0
448,62.0,0,60,1.0,0.0
449,50.0,0,120,14.0,0.0
450,70.0,0,60,11.0,0.0
451,62.0,30,60,13.0,0.0
452,70.0,0,60,0.0,0.0
453,66.0,0,120,10.0,0.0
454,66.0,0,120,0.0,0.0
455,78.0,30,60,3.0,0.0
456,78.0,0,60,2.0,0.0
457,69.0,0,60,0.0,0.0
458,69.0,0,60,11.0,0.0
459,60.0,0,60,10.0,0.0
460,60.0,0,60,13.0,0.0
461,60.0,0,60,1.0,0.0
462,66.0,60,30,3.0,0.0
463,66.0,0,30,2.0,0.0
464,55.0,0,120,14.0,0.0
465,43.0,0,120,15.0,0.0
466,58.0,0,180,13.0,0.0
467,70.0,0,120,11.0,0.0
468,58.0,30,180,1.0,0.0
469,67.0,0,60,12.0,0.0
470,55.0,0,120,1.0,0.0
471,55.0,0,120,15.0,0.0
472,58.0,0,120,15.0,0.0
473,67.0,30,60,0.0,0.0
474,67.0,0,60,10.0,0.0
475,55.0,0,120,4.0,0.0
476,55.0,60,120,10.0,0.0
477,58.0,0,180,10.0,0.0
478,31.0,0,120,6.0,0.0
479,70.0,0,120,0.0,0.0
480,79.0,30,60,2.0,0.0
481,79.0,0,60,3.0,0.0
482,65.0,0,60,0.0,0.0
483,65.0,0,60,10.0,0.0
484,65.0,0,60,12.0,0.0
485,67.0,0,30,2.0,0.0
486,67.0,0,30,3.0,0.0
487,48.0,0,120,10.0,0.0
488,36.0,0,120,6.0,0.0
489,69.0,0,60,11.0,0.0
490,69.0,0,60,0.0,0.0
491,64.0,0,180,0.0,0.0
492,48.0,0,120,14.0,0.0
493,60.0,0,120,4.0,0.0
494,64.0,0,180,10.0,0.0
495,48.0,0,120,1.0,0.0
496,67.0,0,120,15.0,0.0
497,64.0,30,180,12.0,0.0
498,64.0,0,120,15.0,0.0
499,48.0,0,120,15.0,0.0
500,70.0,0,120,15.0,0.0
501,82.0,30,60,2.0,0.0
502,82.0,0,60,3.0,0.0
503,60.0,0,30,1.0,0.0
504,67.0,0,60,11.0,0.0
505,60.0,0,30,13.0,0.0
506,60.0,0,30,10.0,0.0
507,67.0,0,60,0.0,0.0
508,70.0,60,30,2.0,0.0
509,58.0,0,30,1.0,0.0
510,70.0,0,30,3.0,0.0
511,58.0,0,30,10.0,0.0
512,58.0,0,30,13.0,0.0
513,53.0,0,120,15.0,0.0
514,41.0,0,120,6.0,0.0
515,53.0,0,120,1.0,0.0
516,76.0,0,60,15.0,0.0
517,69.0,0,60,11.0,0.0
518,72.0,0,60,15.0,0.0
519,69.0,60,120,15.0,0.0
520,57.0,0,120,1.0,0.0
521,53.0,0,60,14.0,0.0
522,53.0,0,60,10.0,0.0
523,57.0,0,90,13.0,0.0
524,57.0,0,90,10.0,0.0
525,65.0,0,120,4.0,0.0
526,69.0,0,120,0.0,0.0
527,81.0,0,60,3.0,0.0
528,81.0,0,60,2.0,0.0
529,62.0,0,30,10.0,0.0
530,53.0,0,60,10.0,0.0
531,65.0,0,60,15.0,0.0
532,62.0,0,30,12.0,0.0
533,53.0,0,60,14.0,0.0
534,74.0,0,60,15.0,0.0
535,62.0,30,30,0.0,0.0
536,69.0,0,30,11.0,0.0
537,69.0,0,30,11.0,0.0
538,69.0,0,30,2.0,0.0
539,61.0,0,30,10.0,0.0
540,61.0,0,30,12.0,0.0
541,57.0,0,30,10.0,0.0
542,69.0,0,30,3.0,0.0
543,61.0,0,30,0.0,0.0
544,57.0,0,30,13.0,0.0
545,62.0,0,60,15.0,0.0
546,65.0,0,60,15.0,0.0
547,58.0,0,60,1.0,0.0
548,65.0,0,120,1.0,0.0
549,74.0,0,60,15.0,0.0
550,65.0,0,60,13.0,0.0
551,62.0,0,60,0.0,0.0
552,70.0,0,60,4.0,0.0
553,46.0,0,60,6.0,0.0
554,62.0,0,60,10.0,0.0
555,58.0,0,60,15.0,0.0
556,62.0,30,60,12.0,0.0
557,74.0,0,180,11.0,0.0
558,58.0,0,60,14.0,0.0
559,65.0,0,60,10.0,0.0
560,58.0,0,60,10.0,0.0
561,86.0,30,60,2.0,0.0
562,86.0,0,60,3.0,0.0
563,57.0,0,60,10.0,0.0
564,57.0,0,60,14.0,0.0
565,69.0,60,60,12.0,0.0
566,65.0,0,60,13.0,0.0
567,69.0,0,60,15.0,0.0
568,65.0,0,60,10.0,0.0
569,45.0,0,60,6.0,0.0
570,69.0,0,60,0.0,0.0
571,65.0,0,60,15.0,0.0
572,74.0,0,60,15.0,0.0
573,57.0,0,60,1.0,0.0
574,57.0,0,60,15.0,0.0
575,69.0,0,60,10.0,0.0
576,69.0,0,60,4.0,0.0
577,74.0,0,30,2.0,0.0
578,74.0,0,30,3.0,0.0
579,64.0,0,240,1.0,0.0
580,55.0,0,60,1.0,0.0
581,74.0,0,120,15.0,0.0
582,70.0,0,120,15.0,0.0
583,55.0,0,60,15.0,0.0
584,64.0,0,120,10.0,0.0
585,70.0,0,120,10.0,0.0
586,64.0,0,120,13.0,0.0
587,67.0,0,60,4.0,0.0
588,55.0,0,60,10.0,0.0
589,64.0,0,120,15.0,0.0
590,55.0,0,60,14.0,0.0
591,70.0,0,120,0.0,0.0
592,70.0,0,120,12.0,0.0
593,43.0,30,60,6.0,0.0
594,88.0,0,60,2.0,0.0
595,88.0,0,60,3.0,0.0
596,53.0,30,30,1.0,0.0
597,41.0,0,30,6.0,0.0
598,53.0,0,30,15.0,0.0
599,53.0,0,30,10.0,0.0
600,65.0,0,30,4.0,0.0
601,53.0,0,30,14.0,0.0
602,74.0,60,60,11.0,0.0
603,52.0,0,30,14.0,0.0
604,52.0,0,30,10.0,0.0
605,64.0,0,30,4.0,0.0
606,76.0,0,30,3.0,0.0
607,52.0,0,30,1.0,0.0
608,52.0,0,30,15.0,0.0
609,40.0,0,30,6.0,0.0
610,76.0,0,30,2.0,0.0
611,57.0,30,60,10.0,0.0
612,69.0,0,300,0.0,0.0
613,69.0,0,60,15.0,0.0
614,57.0,0,60,1.0,0.0
615,69.0,0,60,4.0,0.0
616,45.0,0,60,6.0,0.0
617,69.0,0,300,10.0,0.0
618,64.0,0,60,15.0,0.0
619,73.0,0,60,11.0,0.0
620,73.0,0,60,15.0,0.0
621,57.0,0,60,15.0,0.0
622,57.0,0,60,14.0,0.0
623,69.0,0,300,12.0,0.0
624,64.0,0,120,10.0,0.0
625,73.0,0,120,0.0,0.0
626,64.0,0,120,13.0,0.0
627,76.0,0,60,3.0,0.0
628,76.0,30,60,2.0,0.0
629,43.0,0,60,6.0,0.0
630,73.0,60,60,11.0,0.0
631,55.0,0,60,15.0,0.0
632,73.0,0,60,15.0,0.0
633,55.0,0,60,14.0,0.0
634,69.0,0,60,15.0,0.0
635,55.0,0,60,10.0,0.0
636,67.0,0,60,4.0,0.0
637,55.0,0,60,1.0,0.0
638,64.0,0,30,3.0,0.0
639,64.0,0,30,2.0,0.0
640,53.0,0,60,1.0,0.0
641,65.0,0,60,4.0,0.0
642,57.0,0,180,13.0,0.0
643,57.0,30,420,1.0,0.0
644,74.0,0,120,11.0,0.0
645,53.0,30,60,15.0,0.0
646,57.0,0,120,15.0,0.0
647,41.0,0,60,6.0,0.0
648,69.0,0,120,15.0,0.0
649,74.0,0,120,15.0,0.0
650,53.0,0,60,14.0,0.0
651,53.0,0,60,10.0,0.0
652,74.0,0,120,0.0,0.0
653,57.0,0,180,10.0,0.0
654,81.0,0,60,3.0,0.0
655,81.0,30,60,2.0,0.0
656,52.0,0,60,10.0,0.0
657,40.0,0,60,6.0,0.0
658,64.0,0,60,4.0,0.0
659,52.0,60,60,15.0,0.0
660,52.0,0,60,1.0,0.0
661,52.0,0,60,14.0,0.0
662,69.0,0,30,2.0,0.0
663,69.0,0,30,3.0,0.0
664,76.0,0,60,15.0,0.0
665,50.0,0,60,15.0,0.0
666,50.0,0,60,14.0,0.0
667,62.0,0,60,4.0,0.0
668,67.0,0,60,15.0,0.0
669,70.0,30,60,15.0,0.0
670,76.0,0,120,11.0,0.0
671,76.0,0,120,0.0,0.0
672,50.0,0,60,1.0,0.0
673,50.0,0,60,10.0,0.0
674,38.0,0,60,6.0,0.0
675,79.0,0,60,2.0,0.0
676,79.0,30,60,3.0,0.0
677,57.0,0,60,10.0,0.0
678,37.0,0,60,6.0,0.0
679,67.0,0,60,0.0,0.0
680,49.0,0,60,10.0,0.0
681,67.0,0,60,10.0,0.0
682,61.0,0,60,4.0,0.0
683,76.0,0,60,15.0,0.0
684,67.0,60,60,15.0,0.0
685,69.0,0,60,15.0,0.0
686,49.0,0,60,1.0,0.0
687,57.0,0,60,13.0,0.0
688,49.0,0,60,15.0,0.0
689,67.0,0,60,12.0,0.0
690,49.0,0,60,14.0,0.0
691,67.0,0,30,2.0,0.0
692,67.0,0,30,3.0,0.0
693,38.0,0,120,6.0,0.0
694,77.0,0,120,11.0,0.0
695,50.0,60,120,1.0,0.0
696,50.0,0,60,10.0,0.0
697,62.0,0,120,4.0,0.0
698,65.0,0,60,12.0,0.0
699,57.0,0,60,13.0,0.0
700,69.0,0,120,15.0,0.0
701,50.0,0,120,15.0,0.0
702,65.0,0,120,15.0,0.0
703,57.0,0,60,10.0,0.0
704,65.0,0,60,10.0,0.0
705,74.0,0,120,15.0,0.0
706,50.0,0,60,14.0,0.0
707,77.0,0,120,0.0,0.0
708,65.0,30,60,0.0,0.0
709,77.0,0,60,3.0,0.0
710,77.0,0,60,2.0,0.0
711,57.0,0,60,13.0,0.0
712,64.0,0,30,12.0,0.0
713,57.0,0,60,10.0,0.0
714,50.0,0,60,14.0,0.0
715,64.0,0,30,10.0,0.0
716,50.0,0,60,10.0,0.0
717,64.0,30,30,0.0,0.0
718,62.0,0,30,0.0,0.0
719,62.0,0,30,10.0,0.0
720,62.0,0,30,12.0,0.0
721,65.0,0,30,3.0,0.0
722,65.0,0,30,2.0,0.0
723,69.0,0,120,15.0,0.0
724,65.0,0,60,12.0,0.0
725,76.0,0,120,0.0,0.0
726,69.0,0,180,0.0,0.0
727,48.0,0,60,10.0,0.0
728,76.0,0,60,11.0,0.0
729,48.0,0,60,14.0,0.0
730,60.0,0,120,4.0,0.0
731,48.0,0,120,15.0,0.0
732,65.0,0,60,10.0,0.0
733,36.0,0,120,6.0,0.0
734,48.0,60,120,1.0,0.0
735,76.0,0,120,15.0,0.0
736,57.0,0,120,15.0,0.0
737,57.0,0,60,10.0,0.0
738,57.0,0,60,13.0,0.0
739,81.0,30,60,3.0,0.0
740,81.0,0,60,2.0,0.0
741,65.0,0,60,12.0,0.0
742,76.0,0,60,11.0,0.0
743,60.0,0,30,13.0,0.0
744,48.0,0,60,14.0,0.0
745,60.0,0,30,1.0,0.0
746,48.0,0,60,10.0,0.0
747,65.0,0,60,10.0,0.0
748,60.0,0,30,10.0,0.0
749,57.0,0,30,1.0,0.0
750,57.0,0,30,10.0,0.0
751,57.0,0,30,13.0,0.0
752,69.0,0,30,2.0,0.0
753,69.0,0,30,3.0,0.0
754,58.0,0,120,4.0,0.0
755,46.0,0,60,10.0,0.0
756,69.0,0,60,12.0,0.0
757,65.0,0,60,13.0,0.0
758,69.0,0,60,15.0,0.0
759,34.0,0,120,6.0,0.0
760,65.0,0,60,10.0,0.0
761,62.0,0,120,15.0,0.0
762,74.0,30,60,11.0,0.0
763,46.0,0,120,15.0,0.0
764,69.0,0,60,10.0,0.0
765,65.0,0,120,1.0,0.0
766,46.0,0,120,1.0,0.0
767,46.0,0,60,14.0,0.0
768,74.0,0,240,0.0,0.0
769,65.0,0,120,15.0,0.0
770,86.0,0,60,3.0,0.0
771,86.0,30,60,2.0,0.0
772,65.0,0,60,13.0,0.0
773,70.0,90,60,10.0,0.0
774,70.0,0,60,0.0,0.0
775,65.0,0,60,10.0,0.0
776,74.0,0,60,11.0,0.0
777,46.0,0,60,14.0,0.0
778,70.0,0,60,15.0,0.0
779,70.0,0,60,12.0,0.0
780,46.0,0,60,10.0,0.0
781,74.0,0,30,2.0,0.0
782,74.0,0,30,3.0,0.0
783,46.0,0,120,6.0,0.0
784,70.0,0,120,4.0,0.0
785,58.0,0,90,14.0,0.0
786,62.0,0,120,15.0,0.0
787,67.0,60,120,15.0,0.0
788,74.0,0,90,11.0,0.0
789,62.0,0,90,10.0,0.0
790,62.0,0,120,1.0,0.0
791,58.0,0,120,1.0,0.0
792,67.0,0,90,10.0,0.0
793,74.0,0,120,15.0,0.0
794,58.0,0,120,15.0,0.0
795,67.0,0,120,0.0,0.0
796,58.0,30,90,10.0,0.0
797,62.0,0,90,13.0,0.0
798,67.0,0,90,12.0,0.0
799,86.0,0,60,3.0,0.0
800,86.0,0,60,2.0,0.0
801,67.0,0,30,10.0,0.0
802,74.0,0,30,2.0,0.0
803,58.0,0,30,10.0,0.0
804,62.0,0,30,13.0,0.0
805,74.0,0,30,3.0,0.0
806,67.0,0,30,12.0,0.0
807,74.0,0,30,11.0,0.0
808,62.0,0,30,10.0,0.0
809,58.0,0,30,14.0,0.0
810,69.0,0,120,10.0,0.0
811,69.0,0,60,0.0,0.0
812,73.0,0,60,0.0,0.0
813,69.0,30,60,4.0,0.0
814,57.0,0,60,1.0,0.0
815,73.0,0,120,11.0,0.0
816,64.0,0,60,15.0,0.0
817,57.0,0,120,10.0,0.0
818,73.0,0,60,15.0,0.0
819,69.0,0,60,15.0,0.0
820,64.0,0,120,10.0,0.0
821,57.0,0,120,14.0,0.0
822,45.0,0,60,6.0,0.0
823,69.0,60,120,12.0,0.0
824,64.0,0,120,13.0,0.0
825,57.0,0,60,15.0,0.0
826,64.0,0,60,1.0,0.0
827,81.0,0,60,2.0,0.0
828,81.0,30,60,3.0,0.0
829,69.0,0,30,2.0,0.0
830,69.0,0,30,3.0,0.0
831,58.0,0,60,1.0,0.0
832,64.0,0,60,1.0,0.0
833,67.0,0,60,4.0,0.0
834,70.0,0,60,15.0,0.0
835,55.0,30,60,15.0,0.0
836,72.0,0,60,15.0,0.0
837,64.0,0,60,15.0,0.0
838,70.0,0,60,0.0,0.0
839,76.0,0,60,0.0,0.0
840,43.0,0,60,6.0,0.0
841,82.0,30,60,3.0,0.0
842,82.0,0,60,2.0,0.0
843,76.0,0,30,2.0,0.0
844,76.0,120,30,3.0,0.0
845,69.0,0,120,0.0,0.0
846,65.0,0,120,4.0,0.0
847,74.0,0,120,0.0,0.0
848,41.0,0,120,6.0,0.0
849,77.0,0,120,15.0,0.0
850,77.0,0,120,2.0,0.0
851,69.0,0,120,3.0,0.0
852,72.0,0,120,15.0,0.0
853,69.0,0,120,15.0,0.0
854,53.0,0,120,15.0,0.0
855,65.0,0,120,1.0,0.0
856,57.0,0,120,1.0,0.0
857,72.0,0,120,2.0,0.0
858,77.0,0,120,3.0,0.0
859,65.0,0,120,2.0,0.0
860,57.0,0,60,13.0,0.0
861,53.0,0,60,14.0,0.0
862,72.0,0,60,11.0,0.0
863,69.0,0,60,10.0,0.0
864,53.0,60,60,10.0,0.0
865,69.0,0,60,12.0,0.0
866,57.0,0,60,10.0,0.0
867,53.0,0,60,14.0,0.0
868,57.0,0,60,10.0,0.0
869,69.0,0,60,12.0,0.0
870,72.0,60,60,11.0,0.0
871,53.0,0,60,10.0,0.0
872,57.0,0,60,13.0,0.0
873,69.0,0,60,10.0,0.0
874,72.0,0,60,11.0,0.0
875,69.0,0,60,12.0,0.0
876,53.0,0,60,10.0,0.0
877,57.0,0,60,10.0,0.0
878,57.0,15,60,13.0,0.0
879,53.0,0,60,14.0,0.0
880,69.0,0,60,10.0,0.0
881,67.0,0,15,3.0,0.0
882,67.0,0,15,2.0,0.0
883,57.0,0,90,10.0,0.0
884,65.0,0,15,3.0,0.0
885,65.0,15,15,2.0,0.0
886,53.0,0,90,14.0,0.0
887,69.0,15,90,10.0,0.0
888,53.0,0,90,10.0,0.0
889,72.0,0,120,15.0,0.0
890,57.0,0,90,13.0,0.0
891,69.0,0,90,12.0,0.0
892,69.0,0,120,15.0,0.0
893,72.0,0,90,11.0,0.0
894,64.0,30,15,3.0,0.0
895,64.0,0,15,2.0,0.0
896,65.0,0,30,3.0,0.0
897,41.0,30,30,6.0,0.0
898,65.0,0,30,2.0,0.0
899,65.0,0,30,4.0,0.0
900,53.0,0,30,15.0,0.0
901,45.0,0,30,6.0,0.0
902,60.0,0,60,1.0,0.0
903,69.0,0,30,4.0,0.0
904,57.0,0,60,1.0,0.0
905,69.0,0,60,0.0,0.0
906,69.0,0,30,2.0,0.0
907,72.0,0,60,0.0,0.0
908,69.0,0,30,3.0,0.0
909,57.0,0,30,15.0,0.0
910,65.0,0,15,2.0,0.0
911,53.0,0,30,10.0,0.0
912,70.0,0,30,11.0,0.0
913,67.0,0,30,10.0,0.0
914,67.0,0,30,12.0,0.0
915,41.0,0,15,6.0,0.0
916,65.0,0,15,3.0,0.0
917,53.0,0,30,14.0,0.0
918,58.0,15,30,13.0,0.0
919,58.0,0,30,10.0,0.0
920,53.0,0,15,15.0,0.0
921,65.0,15,15,4.0,0.0
922,60.0,0,120,10.0,0.0
923,60.0,30,15,2.0,0.0
924,60.0,0,15,4.0,0.0
925,65.0,0,120,12.0,0.0
926,60.0,0,60,1.0,0.0
927,69.0,0,60,0.0,0.0
928,60.0,0,15,3.0,0.0
929,57.0,0,60,1.0,0.0
930,69.0,0,120,11.0,0.0
931,65.0,0,120,10.0,0.0
932,36.0,0,15,6.0,0.0
933,53.0,0,120,10.0,0.0
934,60.0,0,120,13.0,0.0
935,72.0,15,60,0.0,0.0
936,53.0,0,120,14.0,0.0
937,65.0,0,15,3.0,0.0
938,65.0,0,15,2.0,0.0
939,41.0,15,15,6.0,0.0
940,65.0,0,15,4.0,0.0
941,57.0,0,15,3.0,0.0
942,33.0,0,15,6.0,0.0
943,57.0,30,15,4.0,0.0
944,57.0,0,15,2.0,0.0
945,72.0,120,60,0.0,0.0
946,60.0,0,60,1.0,0.0
947,57.0,0,60,1.0,0.0
948,69.0,0,60,0.0,0.0
949,36.0,0,15,6.0,0.0
950,60.0,15,15,3.0,0.0
951,60.0,0,15,4.0,0.0
952,60.0,0,15,2.0,0.0
953,41.0,60,120,15.0,0.0
954,57.0,0,120,15.0,0.0
955,53.0,0,120,4.0,0.0
956,60.0,0,120,15.0,0.0
957,65.0,0,120,15.0,0.0
958,69.0,0,120,0.0,0.0
959,65.0,0,120,3.0,0.0
960,65.0,0,120,2.0,0.0
961,29.0,0,120,6.0,0.0
962,72.0,0,120,0.0,0.0
963,57.0,0,120,1.0,0.0
964,60.0,0,120,1.0,0.0
965,53.0,0,60,14.0,0.0
966,60.0,0,60,13.0,0.0
967,69.0,0,60,10.0,0.0
968,69.0,0,60,12.0,0.0
969,75.0,0,60,11.0,0.0
970,53.0,0,60,10.0,0.0
971,60.0,0,60,10.0,0.0
972,53.0,0,60,10.0,0.0
973,53.0,0,60,14.0,0.0
974,75.0,0,60,11.0,0.0
975,60.0,0,60,13.0,0.0
976,60.0,0,60,10.0,0.0
977,69.0,0,60,10.0,0.0
978,69.0,60,60,12.0,0.0
979,53.0,0,60,14.0,0.0
980,60.0,0,60,13.0,0.0
981,75.0,0,60,11.0,0.0
982,53.0,0,60,10.0,0.0
983,60.0,15,60,10.0,0.0
984,69.0,0,60,12.0,0.0
985,69.0,0,60,10.0,0.0
986,67.0,0,15,2.0,0.0
987,67.0,0,15,3.0,0.0
988,69.0,15,90,10.0,0.0
989,65.0,15,15,3.0,0.0
990,53.0,0,90,10.0,0.0
991,53.0,0,90,14.0,0.0
992,69.0,0,90,12.0,0.0
993,65.0,0,15,2.0,0.0
994,75.0,0,90,11.0,0.0
995,60.0,0,90,13.0,0.0
996,72.0,0,120,15.0,0.0
997,69.0,0,120,15.0,0.0
998,60.0,0,90,10.0,0.0
999,64.0,0,15,2.0,0.0
1000,64.0,30,15,3.0,0.0
1001,41.0,30,30,6.0,0.0
1002,65.0,0,30,4.0,0.0
1003,65.0,0,30,3.0,0.0
1004,65.0,0,30,2.0,0.0
1005,53.0,0,30,15.0,0.0
1006,45.0,0,30,6.0,0.0
1007,69.0,0,30,3.0,0.0
1008,69.0,0,30,4.0,0.0
1009,57.0,0,30,15.0,0.0
1010,72.0,0,60,0.0,0.0
1011,63.0,0,60,1.0,0.0
1012,75.0,0,60,0.0,0.0
1013,60.0,0,60,1.0,0.0
1014,69.0,0,30,2.0,0.0
1015,53.0,0,30,14.0,0.0
1016,53.0,0,30,10.0,0.0
1017,53.0,0,15,15.0,0.0
1018,41.0,0,15,6.0,0.0
1019,62.0,0,30,13.0,0.0
1020,65.0,0,15,4.0,0.0
1021,62.0,0,30,10.0,0.0
1022,65.0,15,15,2.0,0.0
1023,65.0,0,15,3.0,0.0
1024,70.0,0,30,12.0,0.0
1025,74.0,0,30,11.0,0.0
1026,70.0,15,30,10.0,0.0
1027,53.0,0,120,14.0,0.0
1028,69.0,0,120,10.0,0.0
1029,63.0,0,120,13.0,0.0
1030,60.0,0,15,3.0,0.0
1031,63.0,0,120,10.0,0.0
1032,72.0,0,60,0.0,0.0
1033,63.0,0,60,1.0,0.0
1034,72.0,0,120,11.0,0.0
1035,60.0,0,15,2.0,0.0
1036,69.0,0,120,12.0,0.0
1037,53.0,0,120,10.0,0.0
1038,60.0,0,15,4.0,0.0
1039,75.0,0,60,0.0,0.0
1040,60.0,15,60,1.0,0.0
1041,36.0,30,15,6.0,0.0
1042,65.0,0,15,3.0,0.0
1043,65.0,0,15,2.0,0.0
1044,41.0,0,15,6.0,0.0
1045,65.0,15,15,4.0,0.0
1046,60.0,0,60,1.0,0.0
1047,63.0,60,60,1.0,0.0
1048,57.0,0,15,4.0,0.0
1049,57.0,0,15,3.0,0.0
1050,75.0,0,60,0.0,0.0
1051,72.0,0,60,0.0,0.0
1052,57.0,0,15,2.0,0.0
1053,33.0,30,15,6.0,0.0
1054,60.0,15,15,2.0,0.0
1055,36.0,0,15,6.0,0.0
1056,60.0,0,15,3.0,0.0
1057,60.0,0,15,4.0,0.0
1058,69.0,0,90,12.0,0.0
1059,69.0,0,60,0.0,0.0
1060,51.0,0,90,14.0,0.0
1061,39.0,0,60,6.0,0.0
1062,79.0,0,60,0.0,0.0
1063,60.0,0,90,13.0,0.0
1064,63.0,30,60,4.0,0.0
1065,69.0,0,90,10.0,0.0
1066,67.0,0,60,1.0,0.0
1067,60.0,0,60,15.0,0.0
1068,69.0,0,60,15.0,0.0
1069,67.0,0,60,15.0,0.0
1070,60.0,0,90,10.0,0.0
1071,51.0,30,90,10.0,0.0
1072,79.0,0,90,11.0,0.0
1073,57.0,0,60,1.0,0.0
1074,51.0,0,60,15.0,0.0
1075,69.0,0,60,2.0,0.0
1076,79.0,0,60,2.0,0.0
1077,69.0,0,60,3.0,0.0
1078,79.0,0,60,3.0,0.0
1079,69.0,0,30,10.0,0.0
1080,51.0,0,30,10.0,0.0
1081,60.0,0,30,10.0,0.0
1082,51.0,60,30,14.0,0.0
1083,69.0,0,30,12.0,0.0
1084,79.0,0,30,11.0,0.0
1085,60.0,0,30,13.0,0.0
1086,62.0,0,120,13.0,0.0
1087,62.0,0,120,10.0,0.0
1088,38.0,60,60,6.0,0.0
1089,50.0,60,120,10.0,0.0
1090,58.0,0,60,1.0,0.0
1091,77.0,0,120,11.0,0.0
1092,70.0,0,120,12.0,0.0
1093,50.0,0,60,15.0,0.0
1094,65.0,0,60,15.0,0.0
1095,70.0,0,60,15.0,0.0
1096,62.0,0,60,15.0,0.0
1097,50.0,0,120,14.0,0.0
1098,77.0,0,60,0.0,0.0
1099,70.0,0,60,0.0,0.0
1100,70.0,0,120,10.0,0.0
1101,62.0,0,60,4.0,0.0
1102,65.0,0,60,1.0,0.0
1103,77.0,0,60,3.0,0.0
1104,70.0,0,60,3.0,0.0
1105,62.0,0,60,3.0,0.0
1106,70.0,0,60,2.0,0.0
1107,62.0,0,60,2.0,0.0
1108,77.0,0,60,2.0,0.0
1109,69.0,60,120,0.0,0.0
1110,75.0,0,120,0.0,0.0
1111,66.0,60,60,5.0,0.0
1112,66.0,0,120,1.0,0.0
1113,75.0,0,60,3.0,0.0
1114,72.0,0,60,4.0,0.0
1115,81.0,0,60,2.0,0.0
1116,67.0,60,60,5.0,0.0
1117,69.0,0,120,1.0,0.0
1118,70.0,0,120,0.0,0.0
1119,74.0,0,120,0.0,0.0
1120,82.0,0,60,2.0,0.0
1121,70.0,60,60,4.0,0.0
1122,74.0,0,60,3.0,0.0
1123,72.0,0,60,15.0,0.0
1124,70.0,0,60,15.0,0.0
1125,67.0,0,60,15.0,0.0
1126,51.0,0,60,15.0,0.0
1127,51.0,0,120,14.0,0.0
1128,58.0,60,120,13.0,0.0
1129,51.0,0,120,10.0,0.0
1130,58.0,0,120,10.0,0.0
1131,67.0,0,120,12.0,0.0
1132,58.0,60,360,1.0,0.0
1133,60.0,0,120,1.0,0.0
1134,39.0,60,60,6.0,0.0
1135,72.0,0,120,11.0,0.0
1136,67.0,0,120,10.0,0.0
1137,55.0,0,60,4.0,0.0
1138,58.0,0,60,3.0,0.0
1139,60.0,0,60,2.0,0.0
1140,55.0,0,60,10.0,0.0
1141,67.0,0,60,15.0,0.0
1142,67.0,0,60,12.0,0.0
1143,70.0,0,60,15.0,0.0
1144,73.0,0,60,15.0,0.0
1145,52.0,0,60,14.0,0.0
1146,52.0,0,60,15.0,0.0
1147,55.0,60,60,13.0,0.0
1148,73.0,0,60,11.0,0.0
1149,52.0,0,60,10.0,0.0
1150,61.0,0,120,1.0,0.0
1151,40.0,0,60,6.0,0.0
1152,67.0,0,60,10.0,0.0
1153,61.0,0,60,2.0,0.0
1154,70.0,0,60,11.0,0.0
1155,67.0,0,60,12.0,0.0
1156,58.0,0,60,3.0,0.0
1157,52.0,0,60,10.0,0.0
1158,61.0,0,60,10.0,0.0
1159,52.0,0,60,14.0,0.0
1160,67.0,0,60,10.0,0.0
1161,61.0,0,60,13.0,0.0
1162,55.0,60,60,4.0,0.0
1163,53.0,0,240,14.0,0.0
1164,65.0,0,60,15.0,0.0
1165,65.0,0,240,12.0,0.0
1166,60.0,0,60,15.0,0.0
1167,70.0,30,60,15.0,0.0
1168,65.0,0,240,10.0,0.0
1169,60.0,0,240,1.0,0.0
1170,70.0,0,120,11.0,0.0
1171,60.0,0,240,13.0,0.0
1172,60.0,0,240,10.0,0.0
1173,53.0,0,240,10.0,0.0
1174,53.0,0,60,15.0,0.0
1175,41.0,0,60,6.0,0.0
1176,72.0,0,30,2.0,0.0
1177,60.0,0,60,3.0,0.0
1178,58.0,0,60,4.0,0.0
1179,77.0,15,30,2.0,0.0
1180,77.0,15,15,2.0,0.0
1181,29.0,0,60,6.0,0.0
1182,60.0,30,60,15.0,0.0
1183,41.0,0,60,15.0,0.0
1184,69.0,0,60,15.0,0.0
1185,65.0,0,60,15.0,0.0
1186,69.0,0,120,11.0,0.0
1187,57.0,0,120,1.0,0.0
1188,72.0,0,30,2.0,0.0
1189,57.0,60,60,4.0,0.0
1190,60.0,0,60,3.0,0.0
1191,77.0,15,30,2.0,0.0
1192,77.0,15,15,2.0,0.0
1193,62.0,0,120,13.0,0.0
1194,65.0,0,60,15.0,0.0
1195,62.0,0,60,15.0,0.0
1196,46.0,60,60,15.0,0.0
1197,65.0,0,120,10.0,0.0
1198,65.0,0,120,12.0,0.0
1199,46.0,0,120,14.0,0.0
1200,74.0,0,60,2.0,0.0
1201,62.0,0,60,3.0,0.0
1202,34.0,0,60,6.0,0.0
1203,46.0,0,120,10.0,0.0
1204,70.0,0,120,11.0,0.0
1205,58.0,0,60,4.0,0.0
1206,70.0,0,60,15.0,0.0
1207,58.0,60,120,1.0,0.0
1208,62.0,0,120,10.0,0.0
1209,58.0,0,60,4.0,0.0
1210,62.0,0,60,3.0,0.0
1211,65.0,0,60,2.0,0.0
1212,70.0,60,240,0.0,0.0
1213,50.0,45,60,6.0,0.0
1214,70.0,15,60,2.0,0.0
1215,65.0,60,60,3.0,0.0
1216,58.0,0,60,4.0,0.0
1217,48.0,60,60,6.0,0.0
1218,70.0,0,60,2.0,0.0
1219,60.0,0,60,4.0,0.0
1220,63.0,0,60,3.0,0.0
1221,41.0,60,60,6.0,0.0
1222,75.0,0,300,0.0,0.0
1223,69.0,0,120,0.0,0.0
1224,63.0,0,60,3.0,0.0
1225,60.0,0,60,4.0,0.0
1226,69.0,60,60,2.0,0.0
1227,77.0,30,150,2.0,0.0
1228,65.0,0,150,1.0,0.0
1229,70.0,0,120,0.0,0.0
1230,58.0,30,120,4.0,0.0
1231,46.0,60,60,6.0,0.0
1232,60.0,0,180,1.0,0.0
1233,72.0,0,180,3.0,0.0
1234,57.0,0,120,4.0,0.0
1235,45.0,0,60,6.0,0.0
1236,79.0,0,30,2.0,0.0
1237,67.0,30,30,1.0,0.0
1238,74.0,0,60,0.0,0.0
1239,77.0,30,30,2.0,0.0
1240,65.0,0,30,1.0,0.0
1241,63.0,0,30,1.0,0.0
1242,75.0,30,30,2.0,0.0
1243,62.0,0,30,1.0,0.0
1244,58.0,0,60,4.0,0.0
1245,74.0,30,30,2.0,0.0
1246,46.0,0,60,6.0,0.0
1247,77.0,30,30,2.0,0.0
1248,65.0,0,30,1.0,0.0
1249,43.0,0,60,6.0,0.0
1250,70.0,0,120,3.0,0.0
1251,55.0,0,60,4.0,0.0
1252,58.0,0,120,1.0,0.0
1253,63.0,0,30,1.0,0.0
1254,75.0,30,30,2.0,0.0
1255,62.0,30,30,1.0,0.0
1256,74.0,0,30,2.0,0.0
1257,60.0,30,30,1.0,0.0
1258,72.0,0,30,2.0,0.0
1259,51.0,0,60,4.0,0.0
1260,39.0,30,60,6.0,0.0
1261,63.0,0,30,1.0,0.0
1262,75.0,0,30,2.0,0.0
1263,53.0,0,60,4.0,0.0
1264,69.0,0,60,3.0,0.0
1265,57.0,0,60,1.0,0.0
1266,62.0,0,30,1.0,0.0
1267,74.0,30,30,2.0,0.0
1268,41.0,120,60,6.0,0.0
1269,72.0,0,30,2.0,0.0
1270,60.0,0,30,1.0,0.0
1271,58.0,0,120,1.0,0.0
1272,70.0,0,120,2.0,0.0
1273,58.0,0,120,4.0,0.0
1274,74.0,30,120,11.0,0.0
1275,34.0,0,120,6.0,0.0
1276,58.0,30,90,3.0,0.0
1277,77.0,30,120,11.0,0.0
1278,57.0,30,30,3.0,0.0
1279,58.0,30,30,3.0,0.0
1280,60.0,0,30,3.0,0.0
1281,62.0,30,30,3.0,0.0
1282,74.0,0,60,11.0,0.0
1283,60.0,30,30,3.0,0.0
1284,58.0,0,90,5.0,0.0
1285,74.0,30,60,11.0,0.0
1286,62.0,30,30,3.0,0.0
1287,62.0,30,90,4.0,0.0
1288,64.0,0,30,3.0,0.0
1289,65.0,0,60,3.0,0.0
1290,74.0,0,180,11.0,0.0
1291,60.0,0,30,5.0,0.0
1292,63.0,30,30,4.0,0.0
1293,66.0,30,60,3.0,0.0
1294,58.0,0,30,5.0,0.0
1295,62.0,30,30,4.0,0.0
1296,57.0,0,30,5.0,0.0
1297,60.0,0,30,4.0,0.0
1298,58.0,0,30,4.0,0.0
1299,67.0,0,120,3.0,0.0
1300,55.0,30,30,5.0,0.0
1301,53.0,30,30,5.0,0.0
1302,57.0,0,30,4.0,0.0
1303,74.0,0,60,11.0,0.0
1304,51.0,30,30,5.0,0.0
1305,55.0,0,30,4.0,0.0
1306,67.0,30,90,2.0,0.0
1307,53.0,0,30,4.0,0.0
1308,50.0,30,30,5.0,0.0
1309,51.0,0,120,4.0,0.0
1310,75.0,0,120,11.0,0.0
1311,48.0,30,120,5.0,0.0
1312,65.0,30,30,2.0,0.0
1313,67.0,30,30,2.0,0.0
1314,69.0,0,30,2.0,0.0
1315,74.0,30,60,11.0,0.0
1316,70.0,30,30,2.0,0.0
1317,53.0,30,120,4.0,0.0
1318,50.0,30,90,5.0,0.0
1319,65.0,0,30,2.0,0.0
1320,70.0,0,120,2.0,0.0
1321,65.0,30,90,3.0,0.0
1322,74.0,0,60,11.0,0.0
1323,52.0,0,30,5.0,0.0
1324,53.0,0,120,5.0,0.0
1325,72.0,0,120,11.0,0.0
1326,67.0,30,30,3.0,0.0
1327,65.0,0,90,4.0,0.0
1328,69.0,0,60,2.0,0.0
1329,65.0,30,30,3.0,0.0
1330,63.0,30,30,3.0,0.0
1331,70.0,30,60,2.0,0.0
1332,70.0,0,120,11.0,0.0
1333,46.0,30,120,5.0,0.0
1334,62.0,30,30,3.0,0.0
1335,67.0,0,30,4.0,0.0
1336,63.0,0,30,3.0,0.0
1337,62.0,0,30,3.0,0.0
1338,82.0,0,90,2.0,0.0
1339,65.0,30,30,4.0,0.0
1340,63.0,0,30,4.0,0.0
1341,60.0,0,30,3.0,0.0
1342,58.0,0,60,3.0,0.0
1343,62.0,30,30,4.0,0.0
1344,84.0,30,30,2.0,0.0
1345,63.0,0,30,4.0,0.0
1346,74.0,30,90,3.0,0.0
1347,82.0,30,30,2.0,0.0
1348,62.0,0,30,4.0,0.0
1349,81.0,30,30,2.0,0.0
1350,60.0,0,30,4.0,0.0
1351,58.0,0,30,4.0,0.0
1352,79.0,0,30,2.0,0.0
1353,72.0,0,30,4.0,0.0
1354,75.0,30,30,3.0,0.0
1355,81.0,0,30,2.0,0.0
1356,74.0,0,30,3.0,0.0
1357,70.0,30,30,4.0,0.0
1358,79.0,0,30,2.0,0.0
1359,77.0,30,30,2.0,0.0
1360,72.0,0,30,3.0,0.0
1361,69.0,0,30,4.0,0.0
1362,67.0,0,30,4.0,0.0
1363,70.0,0,30,3.0,0.0
1364,76.0,30,30,2.0,0.0
1365,72.0,0,30,3.0,0.0
1366,69.0,30,30,4.0,0.0
1367,77.0,0,30,2.0,0.0
1368,76.0,0,30,2.0,0.0
1369,67.0,30,30,4.0,0.0
1370,60.0,30,90,5.0,0.0
1371,70.0,0,30,3.0,0.0
1372,74.0,0,30,2.0,0.0
1373,65.0,0,30,4.0,0.0
1374,69.0,30,30,3.0,0.0
1375,64.0,30,120,4.0,0.0
1376,72.0,0,120,11.0,0.0
1377,72.0,0,120,2.0,0.0
1378,67.0,0,60,3.0,0.0
1379,62.0,30,30,5.0,0.0
1380,72.0,30,90,3.0,0.0
1381,60.0,30,30,5.0,0.0
1382,58.0,0,30,5.0,0.0
1383,65.0,0,120,4.0,0.0
1384,72.0,0,120,11.0,0.0
1385,57.0,0,30,5.0,0.0
1386,58.0,0,30,5.0,0.0
1387,74.0,30,30,3.0,0.0
1388,84.0,0,90,2.0,0.0
1389,57.0,0,30,5.0,0.0
1390,72.0,30,30,3.0,0.0
1391,55.0,30,30,5.0,0.0
1392,70.0,0,30,3.0,0.0
1393,53.0,0,180,5.0,0.0
1394,69.0,30,30,3.0,0.0
1395,72.0,0,60,11.0,0.0
1396,70.0,0,30,3.0,0.0
1397,86.0,30,30,2.0,0.0
1398,69.0,0,30,3.0,0.0
1399,72.0,0,60,11.0,0.0
1400,84.0,30,30,2.0,0.0
1401,82.0,0,30,2.0,0.0
1402,67.0,30,30,3.0,0.0
1403,65.0,0,30,3.0,0.0
1404,72.0,0,90,11.0,0.0
1405,81.0,30,30,2.0,0.0
1406,82.0,30,30,2.0,0.0
1407,64.0,0,30,3.0,0.0
1408,81.0,30,30,2.0,0.0
1409,51.0,0,60,5.0,0.0
1410,65.0,0,30,3.0,0.0
1411,72.0,0,30,11.0,0.0
1412,67.0,0,30,3.0,0.0
1413,79.0,30,30,2.0,0.0
1414,74.0,0,60,11.0,0.0
1415,50.0,30,30,5.0,0.0
1416,78.0,0,120,2.0,0.0
1417,69.0,0,120,3.0,0.0
1418,51.0,30,30,5.0,0.0
1419,74.0,0,60,11.0,0.0
1420,50.0,30,30,5.0,0.0
1421,62.0,0,90,4.0,0.0
1422,48.0,30,30,5.0,0.0
1423,67.0,30,120,3.0,0.0
1424,67.0,30,60,11.0,0.0
1425,46.0,30,30,5.0,0.0
1426,79.0,0,240,2.0,0.0
1427,45.0,0,30,5.0,0.0
1428,63.0,0,30,4.0,0.0
1429,62.0,0,30,4.0,0.0
1430,67.0,0,60,11.0,0.0
1431,46.0,30,30,5.0,0.0
1432,48.0,0,30,5.0,0.0
1433,60.0,0,30,4.0,0.0
1434,58.0,30,30,4.0,0.0
1435,70.0,30,120,11.0,0.0
1436,50.0,0,240,5.0,0.0
1437,57.0,30,30,4.0,0.0
1438,58.0,30,30,4.0,0.0
1439,74.0,30,90,3.0,0.0
1440,60.0,0,30,4.0,0.0
1441,62.0,0,240,4.0,0.0
1442,78.0,0,120,2.0,0.0
1443,69.0,0,90,11.0,0.0
1444,75.0,30,30,3.0,0.0
1445,74.0,30,30,3.0,0.0
1446,72.0,0,30,3.0,0.0
1447,69.0,45,30,11.0,0.0
1448,55.0,0,120,5.0,0.0
1449,79.0,0,40,2.0,0.0
1450,67.0,60,120,11.0,0.0
1451,70.0,15,40,3.0,0.0
1452,58.0,45,15,3.0,0.0
1453,67.0,0,15,2.0,0.0
1454,67.0,15,40,3.0,0.0
1455,70.0,0,60,0.0,0.0
1456,74.0,0,40,2.0,0.0
1457,70.0,0,15,2.0,0.0
1458,62.0,0,15,3.0,0.0
1459,70.0,0,120,3.0,0.0
1460,75.0,0,180,0.0,0.0
1461,75.0,0,120,2.0,0.0
1462,67.0,0,60,15.0,0.0
1463,70.0,0,60,15.0,0.0
1464,63.0,0,60,15.0,0.0
1465,55.0,0,15,1.0,0.0
1466,55.0,0,15,15.0,0.0
1467,60.0,45,15,4.0,0.0
1468,43.0,0,15,6.0,0.0
1469,46.0,15,40,6.0,0.0
1470,67.0,0,40,4.0,0.0
1471,55.0,0,60,14.0,0.0
1472,63.0,0,60,13.0,0.0
1473,58.0,0,40,15.0,0.0
1474,55.0,0,60,10.0,0.0
1475,58.0,0,40,1.0,0.0
1476,63.0,0,60,10.0,0.0
1477,55.0,0,15,15.0,0.0
1478,63.0,60,15,4.0,0.0
1479,43.0,0,15,6.0,0.0
1480,55.0,0,15,1.0,0.0
1481,65.0,60,120,4.0,0.0
1482,60.0,45,60,10.0,0.0
1483,60.0,0,60,13.0,0.0
1484,57.0,0,120,1.0,0.0
1485,45.0,0,120,6.0,0.0
1486,57.0,0,60,10.0,0.0
1487,57.0,0,120,15.0,0.0
1488,57.0,0,60,14.0,0.0
1489,60.0,0,120,15.0,0.0
1490,65.0,0,120,15.0,0.0
1491,65.0,0,15,2.0,0.0
1492,60.0,0,15,3.0,0.0
1493,72.0,0,60,12.0,0.0
1494,69.0,15,40,3.0,0.0
1495,65.0,0,60,13.0,0.0
1496,72.0,0,60,0.0,0.0
1497,65.0,0,60,10.0,0.0
1498,57.0,0,60,10.0,0.0
1499,72.0,0,60,10.0,0.0
1500,72.0,0,40,2.0,0.0
1501,57.0,0,60,14.0,0.0
1502,65.0,0,15,3.0,0.0
1503,69.0,0,15,2.0,0.0
1504,69.0,45,60,12.0,0.0
1505,77.0,0,120,0.0,0.0
1506,72.0,0,120,3.0,0.0
1507,69.0,0,60,10.0,0.0
1508,77.0,0,120,2.0,0.0
1509,53.0,0,15,1.0,0.0
1510,53.0,0,15,15.0,0.0
1511,69.0,0,60,15.0,0.0
1512,72.0,0,60,15.0,0.0
1513,65.0,60,60,15.0,0.0
1514,69.0,0,15,4.0,0.0
1515,41.0,0,15,6.0,0.0
1516,57.0,0,60,14.0,0.0
1517,45.0,15,40,6.0,0.0
1518,57.0,0,60,10.0,0.0
1519,65.0,0,60,12.0,0.0
1520,65.0,0,60,13.0,0.0
1521,72.0,0,40,4.0,0.0
1522,57.0,0,40,1.0,0.0
1523,57.0,0,40,15.0,0.0
1524,65.0,0,60,10.0,0.0
1525,41.0,0,15,6.0,0.0
1526,53.0,0,15,15.0,0.0
1527,69.0,0,15,4.0,0.0
1528,53.0,0,15,1.0,0.0
1529,58.0,0,120,1.0,0.0
1530,46.0,0,120,6.0,0.0
1531,65.0,0,120,4.0,0.0
1532,62.0,0,60,10.0,0.0
1533,58.0,0,120,15.0,0.0
1534,62.0,0,60,13.0,0.0
1535,74.0,0,120,11.0,0.0
1536,58.0,0,60,10.0,0.0
1537,58.0,0,60,14.0,0.0
1538,74.0,0,120,0.0,0.0
1539,70.0,0,15,3.0,0.0
1540,74.0,45,15,2.0,0.0
1541,65.0,60,60,12.0,0.0
1542,77.0,15,40,2.0,0.0
1543,46.0,0,60,14.0,0.0
1544,58.0,0,60,10.0,0.0
1545,65.0,0,60,10.0,0.0
1546,74.0,0,40,3.0,0.0
1547,58.0,0,60,13.0,0.0
1548,46.0,0,60,10.0,0.0
1549,70.0,0,15,3.0,0.0
1550,74.0,0,15,2.0,0.0
1551,62.0,45,60,10.0,0.0
1552,74.0,0,120,3.0,0.0
1553,82.0,0,120,2.0,0.0
1554,77.0,0,120,0.0,0.0
1555,77.0,0,120,11.0,0.0
1556,62.0,0,60,12.0,0.0
1557,46.0,0,15,6.0,0.0
1558,62.0,0,15,4.0,0.0
1559,58.0,0,15,15.0,0.0
1560,70.0,0,60,15.0,0.0
1561,74.0,0,60,15.0,0.0
1562,77.0,0,60,15.0,0.0
1563,58.0,0,15,1.0,0.0
1564,58.0,0,60,10.0,0.0
1565,50.0,0,40,6.0,0.0
1566,70.0,0,60,12.0,0.0
1567,65.0,0,40,4.0,0.0
1568,62.0,0,60,10.0,0.0
1569,62.0,0,60,13.0,0.0
1570,58.0,60,60,14.0,0.0
1571,62.0,0,40,15.0,0.0
1572,62.0,15,40,1.0,0.0
1573,70.0,0,60,10.0,0.0
1574,62.0,0,15,4.0,0.0
1575,58.0,0,15,15.0,0.0
1576,58.0,0,15,1.0,0.0
1577,46.0,0,15,6.0,0.0
1578,74.0,0,120,11.0,0.0
1579,54.0,0,120,14.0,0.0
1580,54.0,0,120,1.0,0.0
1581,57.0,0,120,10.0,0.0
1582,57.0,0,120,13.0,0.0
1583,42.0,0,120,6.0,0.0
1584,69.0,60,120,4.0,0.0
1585,54.0,0,120,10.0,0.0
1586,74.0,0,120,0.0,0.0
1587,74.0,0,120,15.0,0.0
1588,69.0,0,120,15.0,0.0
1589,54.0,0,120,15.0,0.0
1590,69.0,45,15,2.0,0.0
1591,62.0,0,15,3.0,0.0
1592,69.0,0,60,12.0,0.0
1593,69.0,0,60,10.0,0.0
1594,74.0,15,40,2.0,0.0
1595,69.0,0,40,3.0,0.0
1596,69.0,0,15,2.0,0.0
1597,66.0,0,15,3.0,0.0
1598,81.0,0,120,2.0,0.0
1599,54.0,0,60,10.0,0.0
1600,74.0,0,120,0.0,0.0
1601,54.0,0,60,14.0,0.0
1602,57.0,0,60,10.0,0.0
1603,74.0,0,180,11.0,0.0
1604,66.0,0,60,12.0,0.0
1605,57.0,30,60,13.0,0.0
1606,66.0,0,60,10.0,0.0
1607,78.0,0,120,3.0,0.0
1608,66.0,0,60,15.0,0.0
1609,66.0,0,15,4.0,0.0
1610,69.0,0,60,15.0,0.0
1611,50.0,0,15,15.0,0.0
1612,50.0,0,15,1.0,0.0
1613,38.0,0,15,6.0,0.0
1614,74.0,0,60,15.0,0.0
1615,62.0,0,30,10.0,0.0
1616,41.0,0,40,6.0,0.0
1617,53.0,0,40,1.0,0.0
1618,62.0,15,30,12.0,0.0
1619,57.0,0,60,10.0,0.0
1620,54.0,60,60,14.0,0.0
1621,69.0,0,40,4.0,0.0
1622,54.0,0,60,10.0,0.0
1623,57.0,0,60,13.0,0.0
1624,53.0,15,40,15.0,0.0
1625,62.0,0,30,10.0,0.0
1626,62.0,0,30,12.0,0.0
1627,38.0,0,15,6.0,0.0
1628,50.0,0,15,15.0,0.0
1629,66.0,0,15,4.0,0.0
1630,50.0,0,15,1.0,0.0
1631,55.0,0,60,10.0,0.0
1632,70.0,0,120,4.0,0.0
1633,58.0,30,60,10.0,0.0
1634,70.0,0,180,10.0,0.0
1635,43.0,0,120,6.0,0.0
1636,70.0,0,120,15.0,0.0
1637,67.0,0,120,15.0,0.0
1638,74.0,60,240,0.0,0.0
1639,58.0,0,60,13.0,0.0
1640,74.0,0,120,15.0,0.0
1641,70.0,0,180,12.0,0.0
1642,55.0,60,120,15.0,0.0
1643,55.0,0,60,14.0,0.0
1644,55.0,0,120,1.0,0.0
1645,70.0,0,15,2.0,0.0
1646,62.0,0,15,3.0,0.0
1647,70.0,15,40,3.0,0.0
1648,62.0,0,60,10.0,0.0
1649,55.0,0,30,10.0,0.0
1650,62.0,0,60,13.0,0.0
1651,74.0,0,60,11.0,0.0
1652,74.0,0,40,2.0,0.0
1653,55.0,15,30,14.0,0.0
1654,55.0,0,30,10.0,0.0
1655,55.0,0,30,14.0,0.0
1656,70.0,0,15,2.0,0.0
1657,67.0,0,15,3.0,0.0
1658,79.0,0,120,3.0,0.0
1659,67.0,0,60,10.0,0.0
1660,74.0,0,60,11.0,0.0
1661,55.0,0,60,14.0,0.0
1662,55.0,0,60,10.0,0.0
1663,67.0,0,60,13.0,0.0
1664,82.0,0,120,2.0,0.0
1665,70.0,0,60,15.0,0.0
1666,65.0,0,60,15.0,0.0
1667,55.0,0,15,15.0,0.0
1668,74.0,0,60,15.0,0.0
1669,55.0,45,15,1.0,0.0
1670,58.0,0,15,4.0,0.0
1671,43.0,0,15,6.0,0.0
1672,70.0,0,60,10.0,0.0
1673,55.0,0,60,14.0,0.0
1674,55.0,0,60,10.0,0.0
1675,46.0,0,40,6.0,0.0
1676,70.0,0,60,12.0,0.0
1677,58.0,15,40,1.0,0.0
1678,74.0,0,60,11.0,0.0
1679,65.0,0,60,10.0,0.0
1680,58.0,0,40,15.0,0.0
1681,62.0,0,40,4.0,0.0
1682,65.0,0,60,13.0,0.0
1683,58.0,0,15,4.0,0.0
1684,55.0,0,15,15.0,0.0
1685,55.0,0,15,1.0,0.0
1686,43.0,0,15,6.0,0.0
1687,75.0,0,60,11.0,0.0
1688,63.0,0,60,15.0,0.0
1689,48.0,0,60,1.0,0.0
1690,75.0,0,60,15.0,0.0
1691,63.0,0,60,10.0,0.0
1692,63.0,45,60,4.0,0.0
1693,69.0,0,60,15.0,0.0
1694,63.0,0,60,13.0,0.0
1695,48.0,0,60,15.0,0.0
1696,48.0,0,60,10.0,0.0
1697,48.0,0,60,14.0,0.0
1698,75.0,0,60,0.0,0.0
1699,36.0,0,60,6.0,0.0
1700,69.0,0,60,10.0,0.0
1701,69.0,0,60,12.0,0.0
1702,75.0,0,15,3.0,0.0
1703,81.0,0,15,2.0,0.0
1704,65.0,0,120,4.0,0.0
1705,82.0,0,40,2.0,0.0
1706,65.0,45,120,10.0,0.0
1707,70.0,0,60,10.0,0.0
1708,65.0,0,120,13.0,0.0
1709,50.0,15,40,1.0,0.0
1710,50.0,0,40,15.0,0.0
1711,74.0,0,40,3.0,0.0
1712,65.0,0,40,15.0,0.0
1713,70.0,0,60,15.0,0.0
1714,38.0,0,40,6.0,0.0
1715,74.0,0,40,15.0,0.0
1716,50.0,0,40,14.0,0.0
1717,74.0,45,60,0.0,0.0
1718,50.0,0,40,10.0,0.0
1719,70.0,0,60,12.0,0.0
1720,74.0,0,60,11.0,0.0
1721,51.0,0,15,10.0,0.0
1722,39.0,0,15,6.0,0.0
1723,51.0,0,15,14.0,0.0
1724,70.0,0,15,3.0,0.0
1725,67.0,0,15,15.0,0.0
1726,51.0,0,15,15.0,0.0
1727,74.0,0,15,2.0,0.0
1728,51.0,0,15,1.0,0.0
1729,72.0,15,40,2.0,0.0
1730,72.0,0,120,0.0,0.0
1731,53.0,0,60,1.0,0.0
1732,70.0,0,60,12.0,0.0
1733,70.0,0,60,10.0,0.0
1734,41.0,0,60,6.0,0.0
1735,70.0,0,60,15.0,0.0
1736,72.0,45,120,15.0,0.0
1737,65.0,0,120,15.0,0.0
1738,70.0,0,40,3.0,0.0
1739,53.0,0,60,15.0,0.0
1740,53.0,0,120,10.0,0.0
1741,53.0,0,120,14.0,0.0
1742,72.0,0,120,11.0,0.0
1743,72.0,0,15,3.0,0.0
1744,82.0,0,15,2.0,0.0
1745,69.0,15,40,3.0,0.0
1746,41.0,0,60,15.0,0.0
1747,41.0,0,60,1.0,0.0
1748,69.0,0,60,12.0,0.0
1749,63.0,0,60,10.0,0.0
1750,63.0,0,60,4.0,0.0
1751,69.0,0,60,10.0,0.0
1752,72.0,0,40,2.0,0.0
1753,29.0,0,60,6.0,0.0
1754,63.0,0,60,13.0,0.0
1755,69.0,0,60,15.0,0.0
1756,72.0,0,15,3.0,0.0
1757,81.0,0,15,2.0,0.0
1758,70.0,0,120,11.0,0.0
1759,46.0,0,120,10.0,0.0
1760,62.0,0,120,13.0,0.0
1761,70.0,0,120,0.0,0.0
1762,70.0,0,120,12.0,0.0
1763,46.0,0,120,1.0,0.0
1764,46.0,0,120,14.0,0.0
1765,70.0,0,120,15.0,0.0
1766,65.0,60,120,15.0,0.0
1767,34.0,0,120,6.0,0.0
1768,70.0,0,120,10.0,0.0
1769,62.0,0,120,10.0,0.0
1770,62.0,0,120,15.0,0.0
1771,74.0,15,40,3.0,0.0
1772,46.0,0,120,15.0,0.0
1773,82.0,0,40,2.0,0.0
1774,62.0,0,120,4.0,0.0
1775,70.0,45,15,2.0,0.0
1776,62.0,0,15,3.0,0.0
1777,74.0,0,40,2.0,0.0
1778,65.0,15,40,3.0,0.0
1779,70.0,0,15,2.0,0.0
1780,62.0,0,15,3.0,0.0
1781,74.0,0,120,3.0,0.0
1782,82.0,0,120,2.0,0.0
1783,65.0,0,60,15.0,0.0
1784,58.0,0,15,1.0,0.0
1785,58.0,0,15,15.0,0.0
1786,70.0,0,60,15.0,0.0
1787,74.0,0,60,15.0,0.0
1788,62.0,0,15,4.0,0.0
1789,46.0,45,15,6.0,0.0
1790,62.0,0,60,13.0,0.0
1791,62.0,0,40,1.0,0.0
1792,65.0,0,40,4.0,0.0
1793,62.0,0,60,10.0,0.0
1794,62.0,15,40,15.0,0.0
1795,58.0,0,60,10.0,0.0
1796,50.0,0,40,6.0,0.0
1797,58.0,0,60,14.0,0.0
1798,62.0,0,15,4.0,0.0
1799,58.0,60,15,15.0,0.0
1800,46.0,0,15,6.0,0.0
1801,58.0,0,15,1.0,0.0
1802,55.0,0,120,10.0,0.0
1803,55.0,0,120,14.0,0.0
1804,55.0,0,120,1.0,0.0
1805,67.0,0,120,15.0,0.0
1806,74.0,0,120,15.0,0.0
1807,58.0,0,120,10.0,0.0
1808,58.0,0,120,4.0,0.0
1809,70.0,0,120,15.0,0.0
1810,58.0,0,120,13.0,0.0
1811,55.0,0,120,15.0,0.0
1812,43.0,60,120,6.0,0.0
1813,74.0,0,15,2.0,0.0
1814,70.0,45,15,3.0,0.0
1815,74.0,15,40,3.0,0.0
1816,62.0,0,60,10.0,0.0
1817,62.0,0,60,12.0,0.0
1818,79.0,0,40,2.0,0.0
1819,70.0,0,15,3.0,0.0
1820,74.0,0,15,2.0,0.0
1821,86.0,0,120,2.0,0.0
1822,82.0,0,120,3.0,0.0
1823,67.0,60,120,10.0,0.0
1824,67.0,0,120,12.0,0.0
1825,67.0,0,60,15.0,0.0
1826,55.0,0,15,1.0,0.0
1827,43.0,0,15,6.0,0.0
1828,55.0,0,15,15.0,0.0
1829,70.0,0,60,15.0,0.0
1830,58.0,45,15,4.0,0.0
1831,74.0,0,60,15.0,0.0
1832,58.0,0,40,1.0,0.0
1833,62.0,0,40,4.0,0.0
1834,55.0,0,60,14.0,0.0
1835,55.0,0,60,10.0,0.0
1836,58.0,0,60,13.0,0.0
1837,58.0,0,60,10.0,0.0
1838,58.0,0,40,15.0,0.0
1839,46.0,15,40,6.0,0.0
1840,43.0,0,15,6.0,0.0
1841,58.0,0,15,4.0,0.0
1842,55.0,0,15,15.0,0.0
1843,55.0,0,15,1.0,0.0
1844,55.0,0,120,10.0,0.0
1845,52.0,0,120,15.0,0.0
1846,55.0,0,120,13.0,0.0
1847,55.0,0,120,4.0,0.0
1848,52.0,0,120,1.0,0.0
1849,67.0,0,120,15.0,0.0
1850,40.0,0,120,6.0,0.0
1851,72.0,0,120,15.0,0.0
1852,72.0,60,120,11.0,0.0
1853,70.0,0,120,15.0,0.0
1854,52.0,0,120,14.0,0.0
1855,52.0,0,120,10.0,0.0
1856,72.0,0,120,0.0,0.0
1857,72.0,0,15,2.0,0.0
1858,67.0,45,15,3.0,0.0
1859,67.0,0,60,12.0,0.0
1860,79.0,15,40,2.0,0.0
1861,72.0,0,40,3.0,0.0
1862,67.0,0,60,10.0,0.0
1863,67.0,0,15,3.0,0.0
1864,72.0,0,15,2.0,0.0
1865,52.0,0,60,14.0,0.0
1866,52.0,45,60,10.0,0.0
1867,55.0,0,240,13.0,0.0
1868,84.0,0,120,2.0,0.0
1869,72.0,0,120,11.0,0.0
1870,55.0,0,240,10.0,0.0
1871,82.0,0,120,3.0,0.0
1872,70.0,0,180,12.0,0.0
1873,70.0,45,180,10.0,0.0
1874,72.0,0,120,0.0,0.0
1875,52.0,0,15,15.0,0.0
1876,72.0,0,180,15.0,0.0
1877,67.0,0,180,15.0,0.0
1878,67.0,0,15,4.0,0.0
1879,52.0,0,15,1.0,0.0
1880,70.0,0,180,15.0,0.0
1881,40.0,0,15,6.0,0.0
1882,52.0,0,60,14.0,0.0
1883,70.0,0,40,4.0,0.0
1884,55.0,0,40,15.0,0.0
1885,55.0,0,40,1.0,0.0
1886,43.0,15,40,6.0,0.0
1887,52.0,0,60,10.0,0.0
1888,67.0,0,15,4.0,0.0
1889,60.0,60,15,1.0,0.0
1890,48.0,0,15,6.0,0.0
1891,60.0,0,15,15.0,0.0
1892,39.0,0,120,6.0,0.0
1893,51.0,0,60,10.0,0.0
1894,72.0,0,180,11.0,0.0
1895,72.0,0,240,0.0,0.0
1896,51.0,0,120,1.0,0.0
1897,55.0,0,120,4.0,0.0
1898,51.0,0,120,15.0,0.0
1899,51.0,0,60,14.0,0.0
1900,67.0,0,15,3.0,0.0
1901,72.0,0,15,2.0,0.0
1902,70.0,0,60,10.0,0.0
1903,51.0,0,60,10.0,0.0
1904,70.0,0,60,12.0,0.0
1905,72.0,0,40,3.0,0.0
1906,51.0,0,60,14.0,0.0
1907,79.0,15,40,2.0,0.0
1908,72.0,0,15,2.0,0.0
1909,67.0,60,15,3.0,0.0
1910,81.0,60,120,3.0,0.0
1911,84.0,0,120,2.0,0.0
1912,54.0,0,60,13.0,0.0
1913,51.0,0,60,10.0,0.0
1914,54.0,0,60,10.0,0.0
1915,69.0,0,60,10.0,0.0
1916,51.0,0,60,14.0,0.0
1917,69.0,0,60,12.0,0.0
1918,69.0,0,15,15.0,0.0
1919,72.0,0,60,15.0,0.0
1920,66.0,0,15,15.0,0.0
1921,51.0,0,15,1.0,0.0
1922,39.0,0,15,6.0,0.0
1923,63.0,0,15,4.0,0.0
1924,51.0,45,15,15.0,0.0
1925,55.0,0,40,15.0,0.0
1926,63.0,0,60,15.0,0.0
1927,67.0,0,60,15.0,0.0
1928,55.0,15,40,4.0,0.0
1929,55.0,0,60,10.0,0.0
1930,72.0,0,60,11.0,0.0
1931,55.0,0,40,1.0,0.0
1932,55.0,0,60,13.0,0.0
1933,51.0,0,60,14.0,0.0
1934,67.0,0,60,10.0,0.0
1935,43.0,0,40,6.0,0.0
1936,67.0,0,60,12.0,0.0
1937,51.0,0,60,10.0,0.0
1938,67.0,0,15,4.0,0.0
1939,48.0,0,15,6.0,0.0
1940,60.0,0,15,15.0,0.0
1941,60.0,0,15,1.0,0.0
1942,66.0,0,120,12.0,0.0
1943,50.0,0,120,14.0,0.0
1944,74.0,0,120,11.0,0.0
1945,74.0,0,120,0.0,0.0
1946,69.0,0,60,15.0,0.0
1947,50.0,0,60,15.0,0.0
1948,66.0,0,60,15.0,0.0
1949,72.0,0,60,15.0,0.0
1950,57.0,0,60,10.0,0.0
1951,50.0,0,120,10.0,0.0
1952,38.0,0,60,6.0,0.0
1953,66.0,60,120,10.0,0.0
1954,50.0,0,60,1.0,0.0
1955,57.0,0,60,13.0,0.0
1956,66.0,0,60,4.0,0.0
1957,72.0,0,15,2.0,0.0
1958,69.0,60,15,3.0,0.0
1959,84.0,0,60,2.0,0.0
1960,57.0,0,60,13.0,0.0
1961,81.0,0,60,3.0,0.0
1962,57.0,0,60,10.0,0.0
1963,72.0,0,15,15.0,0.0
1964,66.0,0,15,15.0,0.0
1965,69.0,0,15,15.0,0.0
1966,50.0,0,15,6.0,0.0
1967,62.0,0,15,15.0,0.0
1968,62.0,0,15,1.0,0.0
1969,66.0,0,15,4.0,0.0
1970,64.0,0,60,4.0,0.0
1971,49.0,0,120,10.0,0.0
1972,58.0,0,60,13.0,0.0
1973,64.0,0,60,15.0,0.0
1974,67.0,0,60,15.0,0.0
1975,49.0,0,60,6.0,0.0
1976,70.0,0,60,15.0,0.0
1977,49.0,0,120,14.0,0.0
1978,64.0,0,120,12.0,0.0
1979,61.0,0,60,1.0,0.0
1980,67.0,0,120,11.0,0.0
1981,58.0,60,60,10.0,0.0
1982,67.0,60,120,0.0,0.0
1983,61.0,0,60,15.0,0.0
1984,64.0,0,120,10.0,0.0
1985,67.0,0,15,3.0,0.0
1986,70.0,0,15,2.0,0.0
1987,79.0,0,60,3.0,0.0
1988,55.0,0,60,13.0,0.0
1989,55.0,0,60,10.0,0.0
1990,82.0,0,60,2.0,0.0
1991,70.0,0,15,15.0,0.0
1992,49.0,0,15,1.0,0.0
1993,48.0,0,15,15.0,0.0
1994,36.0,0,15,6.0,0.0
1995,64.0,0,15,4.0,0.0
1996,67.0,0,15,15.0,0.0
1997,64.0,0,15,15.0,0.0
1998,70.0,0,120,11.0,0.0
1999,62.0,0,60,4.0,0.0
2000,70.0,0,120,0.0,0.0
2001,62.0,0,180,10.0,0.0
2002,50.0,0,180,14.0,0.0
2003,50.0,0,60,1.0,0.0
2004,67.0,0,60,10.0,0.0
2005,62.0,0,60,15.0,0.0
2006,62.0,0,180,13.0,0.0
2007,50.0,0,60,15.0,0.0
2008,67.0,0,60,15.0,0.0
2009,70.0,0,60,15.0,0.0
2010,50.0,30,180,10.0,0.0
2011,38.0,0,60,6.0,0.0
2012,67.0,45,60,12.0,0.0
2013,70.0,0,15,3.0,0.0
2014,70.0,0,15,2.0,0.0
2015,74.0,15,40,2.0,0.0
2016,74.0,0,40,3.0,0.0
2017,67.0,0,60,12.0,0.0
2018,50.0,0,60,1.0,0.0
2019,62.0,0,60,15.0,0.0
2020,67.0,0,60,10.0,0.0
2021,38.0,0,60,6.0,0.0
2022,69.0,0,60,15.0,0.0
2023,66.0,45,60,15.0,0.0
2024,62.0,0,60,4.0,0.0
2025,50.0,0,60,15.0,0.0
2026,79.0,0,15,3.0,0.0
2027,79.0,0,15,2.0,0.0
2028,69.0,0,120,0.0,0.0
2029,62.0,0,60,4.0,0.0
2030,69.0,15,90,11.0,0.0
2031,62.0,15,40,2.0,0.0
2032,38.0,0,60,6.0,0.0
2033,50.0,0,60,1.0,0.0
2034,65.0,0,90,12.0,0.0
2035,50.0,0,60,15.0,0.0
2036,66.0,0,60,15.0,0.0
2037,62.0,0,40,3.0,0.0
2038,62.0,0,60,15.0,0.0
2039,65.0,0,90,10.0,0.0
2040,69.0,0,60,15.0,0.0
2041,69.0,0,15,3.0,0.0
2042,69.0,0,15,2.0,0.0
2043,62.0,60,60,4.0,0.0
2044,72.0,0,40,3.0,0.0
2045,62.0,0,60,15.0,0.0
2046,50.0,0,60,15.0,0.0
2047,69.0,0,60,15.0,0.0
2048,38.0,0,60,6.0,0.0
2049,50.0,0,60,14.0,0.0
2050,66.0,0,60,15.0,0.0
2051,72.0,15,40,2.0,0.0
2052,60.0,0,60,13.0,0.0
2053,50.0,0,60,1.0,0.0
2054,50.0,0,60,10.0,0.0
2055,60.0,0,60,10.0,0.0
2056,65.0,0,30,12.0,0.0
2057,65.0,0,30,10.0,0.0
2058,69.0,0,30,11.0,0.0
2059,78.0,0,15,3.0,0.0
2060,78.0,0,15,2.0,0.0
2061,43.0,0,60,15.0,0.0
2062,58.0,0,60,15.0,0.0
2063,62.0,0,60,15.0,0.0
2064,67.0,0,60,15.0,0.0
2065,43.0,0,120,1.0,0.0
2066,55.0,0,60,4.0,0.0
2067,79.0,0,60,2.0,0.0
2068,67.0,0,120,10.0,0.0
2069,58.0,0,120,13.0,0.0
2070,67.0,0,120,0.0,0.0
2071,67.0,0,120,11.0,0.0
2072,50.0,0,120,14.0,0.0
2073,67.0,0,120,12.0,0.0
2074,50.0,0,120,10.0,0.0
2075,31.0,60,60,6.0,0.0
2076,79.0,0,60,3.0,0.0
2077,58.0,0,120,10.0,0.0
2078,58.0,60,60,3.0,0.0
2079,67.0,0,60,2.0,0.0
2080,55.0,0,60,4.0,0.0
2081,67.0,0,240,0.0,0.0
2082,46.0,60,60,6.0,0.0
2083,67.0,60,60,2.0,0.0
2084,58.0,0,60,4.0,0.0
2085,62.0,0,60,3.0,0.0
2086,45.0,60,60,6.0,0.0
2087,63.0,0,120,1.0,0.0
2088,72.0,60,300,0.0,0.0
2089,60.0,60,60,3.0,0.0
2090,57.0,0,60,4.0,0.0
2091,67.0,0,60,2.0,0.0
2092,66.0,0,120,0.0,0.0
2093,62.0,0,270,1.0,0.0
2094,38.0,60,60,6.0,0.0
2095,66.0,60,60,2.0,0.0
2096,57.0,0,60,4.0,0.0
2097,60.0,0,60,3.0,0.0
2098,43.0,0,60,6.0,0.0
2099,55.0,0,120,4.0,0.0
2100,74.0,30,150,2.0,0.0
2101,70.0,30,60,0.0,0.0
2102,69.0,0,180,3.0,0.0
2103,54.0,30,120,4.0,0.0
2104,42.0,0,60,6.0,0.0
2105,57.0,0,180,1.0,0.0
2106,75.0,0,30,2.0,0.0
2107,63.0,30,30,1.0,0.0
2108,74.0,0,30,2.0,0.0
2109,62.0,30,30,1.0,0.0
2110,60.0,0,30,1.0,0.0
2111,72.0,0,30,2.0,0.0
2112,55.0,0,60,4.0,0.0
2113,70.0,0,30,2.0,0.0
2114,43.0,0,60,6.0,0.0
2115,58.0,30,30,1.0,0.0
2116,74.0,30,30,2.0,0.0
2117,62.0,0,30,1.0,0.0
2118,67.0,0,120,3.0,0.0
2119,72.0,0,30,2.0,0.0
2120,55.0,0,120,1.0,0.0
2121,60.0,30,30,1.0,0.0
2122,39.0,0,60,6.0,0.0
2123,51.0,0,60,4.0,0.0
2124,70.0,30,30,2.0,0.0
2125,58.0,0,30,1.0,0.0
2126,57.0,0,30,1.0,0.0
2127,36.0,0,60,6.0,0.0
2128,48.0,0,60,4.0,0.0
2129,69.0,30,30,2.0,0.0
2130,72.0,30,30,2.0,0.0
2131,60.0,0,30,1.0,0.0
2132,54.0,0,60,1.0,0.0
2133,58.0,30,30,1.0,0.0
2134,70.0,0,30,2.0,0.0
2135,38.0,0,60,6.0,0.0
2136,66.0,0,60,3.0,0.0
2137,50.0,0,60,4.0,0.0
2138,57.0,0,30,1.0,0.0
2139,69.0,30,30,2.0,0.0
2140,31.0,30,60,6.0,0.0
2141,67.0,0,30,2.0,0.0
2142,55.0,0,60,4.0,0.0
2143,67.0,30,30,3.0,0.0
2144,55.0,0,60,1.0,0.0
2145,70.0,30,60,3.0,0.0
2146,70.0,0,60,2.0,0.0
2147,82.0,60,30,3.0,0.0
2148,82.0,0,30,2.0,0.0
2149,58.0,30,60,4.0,0.0
2150,70.0,0,60,15.0,0.0
2151,62.0,0,60,15.0,0.0
2152,67.0,0,60,15.0,0.0
2153,58.0,0,60,15.0,0.0
2154,50.0,0,180,14.0,0.0
2155,46.0,0,60,6.0,0.0
2156,50.0,0,180,10.0,0.0
2157,50.0,0,240,1.0,0.0
2158,67.0,30,60,2.0,0.0
2159,67.0,0,60,3.0,0.0
2160,79.0,0,30,3.0,0.0
2161,79.0,60,30,2.0,0.0
2162,45.0,0,60,6.0,0.0
2163,69.0,0,60,15.0,0.0
2164,57.0,0,60,4.0,0.0
2165,64.0,0,60,15.0,0.0
2166,62.0,0,60,15.0,0.0
2167,57.0,30,60,15.0,0.0
2168,64.0,30,60,2.0,0.0
2169,64.0,0,60,3.0,0.0
2170,50.0,0,60,10.0,0.0
2171,69.0,0,90,0.0,0.0
2172,69.0,30,90,12.0,0.0
2173,69.0,0,90,10.0,0.0
2174,50.0,30,60,14.0,0.0
2175,76.0,0,30,2.0,0.0
2176,76.0,0,30,3.0,0.0
2177,33.0,0,60,6.0,0.0
2178,57.0,0,60,4.0,0.0
2179,49.0,0,120,1.0,0.0
2180,64.0,0,60,15.0,0.0
2181,45.0,0,60,15.0,0.0
2182,49.0,30,60,14.0,0.0
2183,49.0,0,60,10.0,0.0
2184,69.0,0,60,15.0,0.0
2185,61.0,0,60,15.0,0.0
2186,70.0,0,30,12.0,0.0
2187,69.0,0,60,3.0,0.0
2188,70.0,0,30,0.0,0.0
2189,70.0,0,30,10.0,0.0
2190,69.0,0,60,2.0,0.0
2191,49.0,0,60,10.0,0.0
2192,69.0,30,30,10.0,0.0
2193,49.0,0,60,14.0,0.0
2194,69.0,0,30,0.0,0.0
2195,69.0,0,30,12.0,0.0
2196,81.0,0,30,3.0,0.0
2197,67.0,0,30,12.0,0.0
2198,81.0,0,30,2.0,0.0
2199,67.0,0,30,0.0,0.0
2200,67.0,30,30,10.0,0.0
2201,65.0,30,30,10.0,0.0
2202,69.0,30,60,15.0,0.0
2203,62.0,0,60,15.0,0.0
2204,62.0,0,60,4.0,0.0
2205,65.0,0,60,15.0,0.0
2206,50.0,0,60,15.0,0.0
2207,38.0,0,60,6.0,0.0
2208,65.0,0,30,0.0,0.0
2209,50.0,0,120,1.0,0.0
2210,65.0,0,30,12.0,0.0
2211,50.0,0,120,14.0,0.0
2212,50.0,0,120,10.0,0.0
2213,69.0,0,60,2.0,0.0
2214,69.0,0,60,3.0,0.0
2215,69.0,0,30,12.0,0.0
2216,69.0,0,30,0.0,0.0
2217,69.0,0,30,10.0,0.0
2218,67.0,30,30,10.0,0.0
2219,67.0,0,30,12.0,0.0
2220,67.0,0,30,0.0,0.0
2221,65.0,30,30,0.0,0.0
2222,65.0,0,30,12.0,0.0
2223,81.0,0,30,3.0,0.0
2224,81.0,0,30,2.0,0.0
2225,65.0,0,30,10.0,0.0
2226,64.0,0,30,10.0,0.0
2227,40.0,30,60,6.0,0.0
2228,64.0,0,60,15.0,0.0
2229,64.0,30,30,12.0,0.0
2230,64.0,0,60,4.0,0.0
2231,67.0,0,60,15.0,0.0
2232,52.0,0,60,15.0,0.0
2233,52.0,0,120,14.0,0.0
2234,52.0,0,120,10.0,0.0
2235,52.0,0,120,1.0,0.0
2236,73.0,0,60,15.0,0.0
2237,64.0,0,30,0.0,0.0
2238,67.0,0,30,12.0,0.0
2239,73.0,0,60,3.0,0.0
2240,67.0,0,30,10.0,0.0
2241,73.0,0,60,2.0,0.0
2242,67.0,0,30,0.0,0.0
2243,65.0,30,30,0.0,0.0
2244,65.0,0,30,12.0,0.0
2245,65.0,0,30,10.0,0.0
2246,85.0,0,30,2.0,0.0
2247,64.0,30,30,10.0,0.0
2248,64.0,0,30,12.0,0.0
2249,64.0,0,30,0.0,0.0
2250,85.0,0,30,3.0,0.0
2251,53.0,0,120,14.0,0.0
2252,53.0,0,120,10.0,0.0
2253,65.0,0,60,4.0,0.0
2254,65.0,0,60,15.0,0.0
2255,74.0,0,60,15.0,0.0
2256,69.0,0,60,15.0,0.0
2257,53.0,0,60,15.0,0.0
2258,62.0,0,30,10.0,0.0
2259,41.0,0,60,6.0,0.0
2260,53.0,0,120,1.0,0.0
2261,62.0,0,30,0.0,0.0
2262,62.0,30,30,12.0,0.0
2263,61.0,0,30,0.0,0.0
2264,74.0,0,60,2.0,0.0
2265,61.0,0,30,10.0,0.0
2266,74.0,0,60,3.0,0.0
2267,61.0,30,30,12.0,0.0
2268,62.0,0,30,10.0,0.0
2269,62.0,0,30,0.0,0.0
2270,62.0,30,30,12.0,0.0
2271,86.0,0,30,3.0,0.0
2272,86.0,0,30,2.0,0.0
2273,64.0,30,30,0.0,0.0
2274,64.0,0,30,12.0,0.0
2275,64.0,0,30,10.0,0.0
2276,65.0,0,30,10.0,0.0
2277,62.0,0,60,4.0,0.0
2278,38.0,30,60,6.0,0.0
2279,57.0,0,180,10.0,0.0
2280,65.0,0,30,0.0,0.0
2281,50.0,0,120,1.0,0.0
2282,57.0,0,240,1.0,0.0
2283,50.0,0,120,10.0,0.0
2284,50.0,0,60,15.0,0.0
2285,65.0,30,30,12.0,0.0
2286,65.0,0,60,15.0,0.0
2287,69.0,0,60,15.0,0.0
2288,74.0,0,60,15.0,0.0
2289,57.0,0,180,13.0,0.0
2290,50.0,0,120,14.0,0.0
2291,64.0,0,30,0.0,0.0
2292,65.0,0,60,2.0,0.0
2293,64.0,0,30,10.0,0.0
2294,64.0,0,30,12.0,0.0
2295,65.0,0,60,3.0,0.0
2296,62.0,0,30,0.0,0.0
2297,62.0,0,30,12.0,0.0
2298,62.0,30,30,10.0,0.0
2299,77.0,0,30,3.0,0.0
2300,60.0,0,30,0.0,0.0
2301,77.0,60,30,2.0,0.0
2302,60.0,0,30,12.0,0.0
2303,60.0,0,30,10.0,0.0
2304,59.0,0,60,15.0,0.0
2305,59.0,0,240,0.0,0.0
2306,52.0,0,120,1.0,0.0
2307,52.0,0,120,14.0,0.0
2308,59.0,0,90,12.0,0.0
2309,59.0,0,90,10.0,0.0
2310,69.0,30,60,15.0,0.0
2311,52.0,0,60,15.0,0.0
2312,64.0,0,60,15.0,0.0
2313,52.0,0,120,10.0,0.0
2314,40.0,0,60,6.0,0.0
2315,52.0,0,60,4.0,0.0
2316,64.0,30,60,3.0,0.0
2317,64.0,0,60,2.0,0.0
2318,76.0,0,90,0.0,0.0
2319,57.0,0,60,10.0,0.0
2320,76.0,30,90,11.0,0.0
2321,57.0,0,60,13.0,0.0
2322,76.0,0,30,3.0,0.0
2323,76.0,0,30,2.0,0.0
2324,59.0,0,30,10.0,0.0
2325,59.0,30,30,12.0,0.0
2326,52.0,0,60,4.0,0.0
2327,56.0,0,120,1.0,0.0
2328,40.0,0,60,6.0,0.0
2329,59.0,0,120,12.0,0.0
2330,59.0,0,120,10.0,0.0
2331,68.0,30,60,15.0,0.0
2332,56.0,0,60,10.0,0.0
2333,52.0,0,60,15.0,0.0
2334,56.0,0,60,13.0,0.0
2335,59.0,0,60,15.0,0.0
2336,64.0,0,60,15.0,0.0
2337,77.0,0,30,11.0,0.0
2338,77.0,0,30,0.0,0.0
2339,71.0,0,60,2.0,0.0
2340,71.0,30,60,3.0,0.0
2341,56.0,0,60,13.0,0.0
2342,76.0,0,30,0.0,0.0
2343,56.0,0,60,10.0,0.0
2344,76.0,0,30,11.0,0.0
2345,74.0,0,30,0.0,0.0
2346,83.0,30,30,3.0,0.0
2347,83.0,0,30,2.0,0.0
2348,74.0,0,30,11.0,0.0
2349,64.0,0,120,15.0,0.0
2350,69.0,0,120,15.0,0.0
2351,57.0,0,120,13.0,0.0
2352,72.0,0,30,11.0,0.0
2353,57.0,0,120,4.0,0.0
2354,57.0,0,120,5.0,0.0
2355,57.0,0,120,1.0,0.0
2356,60.0,0,120,15.0,0.0
2357,57.0,30,120,10.0,0.0
2358,72.0,30,30,0.0,0.0
2359,57.0,0,120,15.0,0.0
2360,60.0,0,120,10.0,0.0
2361,60.0,0,120,0.0,0.0
2362,60.0,0,120,12.0,0.0
2363,76.0,0,30,0.0,0.0
2364,76.0,30,30,11.0,0.0
2365,72.0,0,60,2.0,0.0
2366,72.0,0,60,3.0,0.0
2367,74.0,0,30,11.0,0.0
2368,74.0,30,30,0.0,0.0
2369,72.0,0,30,11.0,0.0
2370,72.0,0,30,0.0,0.0
2371,84.0,0,30,3.0,0.0
2372,84.0,0,30,2.0,0.0
2373,59.0,0,120,10.0,0.0
2374,62.0,0,120,15.0,0.0
2375,59.0,0,120,15.0,0.0
2376,62.0,0,120,10.0,0.0
2377,62.0,0,120,0.0,0.0
2378,59.0,0,120,1.0,0.0
2379,62.0,0,120,12.0,0.0
2380,59.0,0,120,13.0,0.0
2381,68.0,30,120,15.0,0.0
2382,71.0,30,30,11.0,0.0
2383,71.0,0,30,0.0,0.0
2384,59.0,0,120,5.0,0.0
2385,59.0,0,120,4.0,0.0
2386,74.0,30,30,0.0,0.0
2387,68.0,0,60,3.0,0.0
2388,74.0,0,30,11.0,0.0
2389,68.0,30,60,2.0,0.0
2390,72.0,0,30,11.0,0.0
2391,72.0,0,30,0.0,0.0
2392,80.0,0,30,2.0,0.0
2393,80.0,0,30,3.0,0.0
2394,71.0,0,30,11.0,0.0
2395,71.0,0,30,0.0,0.0
2396,64.0,0,120,0.0,0.0
2397,60.0,0,120,13.0,0.0
2398,60.0,0,60,1.0,0.0
2399,60.0,0,120,4.0,0.0
2400,69.0,30,30,0.0,0.0
2401,60.0,60,60,5.0,0.0
2402,64.0,0,60,12.0,0.0
2403,60.0,0,120,10.0,0.0
2404,64.0,0,60,10.0,0.0
2405,69.0,0,60,15.0,0.0
2406,64.0,0,60,15.0,0.0
2407,81.0,0,60,3.0,0.0
2408,60.0,0,60,15.0,0.0
2409,81.0,0,60,2.0,0.0
2410,69.0,0,30,11.0,0.0
2411,71.0,0,30,0.0,0.0
2412,71.0,0,30,11.0,0.0
2413,45.0,0,60,6.0,0.0
2414,57.0,0,60,10.0,0.0
2415,64.0,30,60,10.0,0.0
2416,64.0,0,60,12.0,0.0
2417,69.0,0,60,15.0,0.0
2418,57.0,0,60,14.0,0.0
2419,64.0,0,60,15.0,0.0
2420,72.0,0,90,11.0,0.0
2421,72.0,0,90,0.0,0.0
2422,64.0,0,60,3.0,0.0
2423,60.0,0,60,15.0,0.0
2424,57.0,0,60,15.0,0.0
2425,72.0,30,90,2.0,0.0
2426,57.0,0,60,1.0,0.0
2427,42.0,0,60,6.0,0.0
2428,62.0,30,60,15.0,0.0
2429,54.0,0,60,14.0,0.0
2430,69.0,0,150,3.0,0.0
2431,69.0,0,150,0.0,0.0
2432,69.0,30,150,12.0,0.0
2433,54.0,0,60,1.0,0.0
2434,54.0,0,60,10.0,0.0
2435,69.0,0,60,15.0,0.0
2436,62.0,30,180,4.0,0.0
2437,54.0,0,60,15.0,0.0
2438,69.0,0,150,10.0,0.0
2439,72.0,0,60,15.0,0.0
2440,70.0,0,30,11.0,0.0
2441,70.0,0,30,0.0,0.0
2442,70.0,0,30,2.0,0.0
2443,70.0,0,60,15.0,0.0
2444,65.0,0,60,15.0,0.0
2445,72.0,0,30,11.0,0.0
2446,50.0,0,60,10.0,0.0
2447,62.0,0,60,15.0,0.0
2448,72.0,0,30,0.0,0.0
2449,34.0,30,60,6.0,0.0
2450,46.0,0,60,15.0,0.0
2451,50.0,0,60,1.0,0.0
2452,50.0,0,60,14.0,0.0
2453,72.0,30,30,2.0,0.0
2454,74.0,0,30,2.0,0.0
2455,74.0,0,30,11.0,0.0
2456,74.0,0,30,0.0,0.0
2457,55.0,0,90,14.0,0.0
2458,55.0,30,90,10.0,0.0
2459,43.0,0,90,6.0,0.0
2460,70.0,0,120,15.0,0.0
2461,55.0,0,90,1.0,0.0
2462,55.0,0,90,15.0,0.0
2463,70.0,30,150,0.0,0.0
2464,70.0,0,150,2.0,0.0
2465,69.0,0,120,15.0,0.0
2466,70.0,0,150,11.0,0.0
2467,62.0,0,30,12.0,0.0
2468,62.0,0,30,0.0,0.0
2469,62.0,0,30,10.0,0.0
2470,62.0,0,30,3.0,0.0
2471,64.0,0,30,0.0,0.0
2472,64.0,0,30,3.0,0.0
2473,64.0,0,30,10.0,0.0
2474,64.0,0,30,12.0,0.0
2475,62.0,0,120,4.0,0.0
2476,57.0,0,30,14.0,0.0
2477,66.0,0,30,12.0,0.0
2478,66.0,30,30,0.0,0.0
2479,57.0,0,30,15.0,0.0
2480,45.0,0,30,6.0,0.0
2481,66.0,0,30,3.0,0.0
2482,57.0,0,30,10.0,0.0
2483,66.0,0,30,10.0,0.0
2484,57.0,0,30,1.0,0.0
2485,67.0,0,120,15.0,0.0
2486,70.0,0,120,15.0,0.0
2487,67.0,0,240,0.0,0.0
2488,46.0,0,60,6.0,0.0
2489,58.0,0,60,10.0,0.0
2490,62.0,0,120,15.0,0.0
2491,58.0,0,60,15.0,0.0
2492,67.0,0,180,12.0,0.0
2493,67.0,0,180,3.0,0.0
2494,67.0,30,180,10.0,0.0
2495,58.0,30,60,14.0,0.0
2496,58.0,0,60,1.0,0.0
2497,69.0,0,30,0.0,0.0
2498,69.0,0,30,2.0,0.0
2499,69.0,0,30,11.0,0.0
2500,55.0,0,60,1.0,0.0
2501,70.0,30,30,0.0,0.0
2502,43.0,0,60,6.0,0.0
2503,55.0,0,60,10.0,0.0
2504,62.0,0,120,4.0,0.0
2505,70.0,0,30,11.0,0.0
2506,55.0,0,60,15.0,0.0
2507,70.0,0,30,2.0,0.0
2508,55.0,0,60,14.0,0.0
2509,72.0,0,30,11.0,0.0
2510,72.0,0,30,2.0,0.0
2511,72.0,60,30,0.0,0.0
2512,69.0,0,60,15.0,0.0
2513,62.0,0,60,15.0,0.0
2514,72.0,0,90,11.0,0.0
2515,62.0,0,60,14.0,0.0
2516,62.0,0,60,10.0,0.0
2517,50.0,0,120,1.0,0.0
2518,69.0,0,240,0.0,0.0
2519,38.0,0,60,6.0,0.0
2520,50.0,0,60,15.0,0.0
2521,69.0,30,90,2.0,0.0
2522,67.0,0,60,15.0,0.0
2523,62.0,0,90,10.0,0.0
2524,50.0,0,60,10.0,0.0
2525,67.0,30,60,10.0,0.0
2526,67.0,0,60,12.0,0.0
2527,69.0,0,60,15.0,0.0
2528,62.0,0,90,5.0,0.0
2529,65.0,0,60,15.0,0.0
2530,62.0,0,90,15.0,0.0
2531,67.0,0,60,3.0,0.0
2532,50.0,0,60,14.0,0.0
2533,62.0,0,90,4.0,0.0
2534,62.0,0,90,1.0,0.0
2535,62.0,30,90,13.0,0.0
2536,72.0,0,30,11.0,0.0
2537,69.0,0,30,2.0,0.0
2538,66.0,0,120,0.0,0.0
2539,66.0,0,60,10.0,0.0
2540,66.0,0,60,3.0,0.0
2541,69.0,0,120,15.0,0.0
2542,66.0,0,60,12.0,0.0
2543,74.0,0,120,15.0,0.0
2544,69.0,0,60,2.0,0.0
2545,66.0,0,120,15.0,0.0
2546,72.0,0,120,11.0,0.0
2547,63.0,0,30,13.0,0.0
2548,63.0,0,30,15.0,0.0
2549,63.0,30,30,5.0,0.0
2550,63.0,0,30,10.0,0.0
2551,63.0,0,30,4.0,0.0
2552,63.0,0,30,1.0,0.0
2553,62.0,0,30,4.0,0.0
2554,62.0,0,30,15.0,0.0
2555,66.0,0,60,12.0,0.0
2556,62.0,0,30,13.0,0.0
2557,62.0,30,30,5.0,0.0
2558,62.0,0,30,10.0,0.0
2559,69.0,0,60,2.0,0.0
2560,66.0,0,60,3.0,0.0
2561,66.0,0,60,10.0,0.0
2562,62.0,0,30,1.0,0.0
2563,60.0,0,30,4.0,0.0
2564,60.0,0,30,15.0,0.0
2565,60.0,0,30,1.0,0.0
2566,60.0,30,30,13.0,0.0
2567,60.0,0,30,5.0,0.0
2568,60.0,0,30,10.0,0.0
2569,58.0,0,30,13.0,0.0
2570,58.0,0,30,4.0,0.0
2571,67.0,0,60,15.0,0.0
2572,58.0,0,60,15.0,0.0
2573,67.0,0,120,10.0,0.0
2574,74.0,0,180,11.0,0.0
2575,67.0,0,120,0.0,0.0
2576,74.0,0,60,15.0,0.0
2577,67.0,0,120,12.0,0.0
2578,58.0,0,60,5.0,0.0
2579,74.0,0,270,0.0,0.0
2580,74.0,0,60,2.0,0.0
2581,58.0,0,30,1.0,0.0
2582,58.0,30,30,10.0,0.0
2583,67.0,30,120,3.0,0.0
2584,62.0,0,30,1.0,0.0
2585,62.0,0,30,10.0,0.0
2586,62.0,30,30,4.0,0.0
2587,62.0,0,30,13.0,0.0
2588,60.0,0,30,13.0,0.0
2589,60.0,30,30,10.0,0.0
2590,55.0,0,120,1.0,0.0
2591,74.0,0,120,2.0,0.0
2592,55.0,0,120,10.0,0.0
2593,43.0,0,120,6.0,0.0
2594,60.0,0,30,1.0,0.0
2595,55.0,0,120,14.0,0.0
2596,55.0,0,120,15.0,0.0
2597,60.0,0,30,4.0,0.0
2598,70.0,0,60,15.0,0.0
2599,74.0,0,120,15.0,0.0
2600,58.0,0,30,13.0,0.0
2601,58.0,0,30,10.0,0.0
2602,58.0,0,30,1.0,0.0
2603,58.0,0,30,4.0,0.0
2604,69.0,0,120,0.0,0.0
2605,57.0,0,30,13.0,0.0
2606,57.0,0,30,1.0,0.0
2607,57.0,0,30,10.0,0.0
2608,69.0,0,120,3.0,0.0
2609,69.0,0,120,10.0,0.0
2610,69.0,0,120,12.0,0.0
2611,69.0,0,120,15.0,0.0
2612,57.0,30,30,4.0,0.0
2613,60.0,0,30,13.0,0.0
2614,60.0,0,30,10.0,0.0
2615,60.0,30,30,1.0,0.0
2616,60.0,0,30,4.0,0.0
2617,54.0,0,60,10.0,0.0
2618,54.0,30,60,14.0,0.0
2619,54.0,0,60,15.0,0.0
2620,74.0,0,60,15.0,0.0
2621,58.0,0,30,4.0,0.0
2622,58.0,30,30,10.0,0.0
2623,74.0,0,60,11.0,0.0
2624,42.0,0,60,6.0,0.0
2625,74.0,0,60,2.0,0.0
2626,54.0,0,60,1.0,0.0
2627,58.0,0,30,1.0,0.0
2628,58.0,0,30,13.0,0.0
2629,57.0,0,30,13.0,0.0
2630,57.0,0,30,1.0,0.0
2631,57.0,0,30,4.0,0.0
2632,57.0,0,30,10.0,0.0
2633,74.0,0,120,15.0,0.0
2634,67.0,0,120,15.0,0.0
2635,55.0,30,90,4.0,0.0
2636,43.0,0,120,6.0,0.0
2637,55.0,0,90,1.0,0.0
2638,70.0,30,30,12.0,0.0
2639,70.0,30,120,15.0,0.0
2640,55.0,0,90,10.0,0.0
2641,70.0,0,30,10.0,0.0
2642,55.0,0,90,13.0,0.0
2643,55.0,0,90,14.0,0.0
2644,74.0,0,30,2.0,0.0
2645,70.0,0,30,0.0,0.0
2646,70.0,0,30,3.0,0.0
2647,74.0,0,30,11.0,0.0
2648,55.0,0,120,15.0,0.0
2649,72.0,0,30,2.0,0.0
2650,69.0,0,30,10.0,0.0
2651,69.0,30,30,12.0,0.0
2652,69.0,0,30,3.0,0.0
2653,69.0,0,30,0.0,0.0
2654,72.0,0,30,11.0,0.0
2655,72.0,0,30,0.0,0.0
2656,67.0,0,90,10.0,0.0
2657,67.0,0,90,12.0,0.0
2658,70.0,0,30,11.0,0.0
2659,70.0,0,30,0.0,0.0
2660,70.0,0,30,2.0,0.0
2661,67.0,0,90,3.0,0.0
2662,67.0,0,90,0.0,0.0
2663,57.0,0,30,4.0,0.0
2664,72.0,0,30,11.0,0.0
2665,43.0,0,30,10.0,0.0
2666,57.0,0,30,13.0,0.0
2667,72.0,0,30,0.0,0.0
2668,57.0,0,30,1.0,0.0
2669,43.0,0,30,14.0,0.0
2670,57.0,0,30,10.0,0.0
2671,72.0,0,30,2.0,0.0
2672,31.0,0,60,6.0,0.0
2673,58.0,0,30,10.0,0.0
2674,74.0,0,30,11.0,0.0
2675,70.0,0,60,15.0,0.0
2676,67.0,0,60,15.0,0.0
2677,43.0,0,120,10.0,0.0
2678,43.0,0,60,15.0,0.0
2679,58.0,0,30,1.0,0.0
2680,58.0,30,30,13.0,0.0
2681,43.0,0,60,1.0,0.0
2682,74.0,0,60,15.0,0.0
2683,43.0,0,120,14.0,0.0
2684,58.0,0,30,4.0,0.0
2685,74.0,0,30,0.0,0.0
2686,74.0,0,30,2.0,0.0
2687,57.0,0,30,1.0,0.0
2688,69.0,0,30,0.0,0.0
2689,57.0,0,30,10.0,0.0
2690,72.0,30,30,11.0,0.0
2691,57.0,0,30,13.0,0.0
2692,69.0,0,30,3.0,0.0
2693,69.0,0,30,10.0,0.0
2694,57.0,0,30,4.0,0.0
2695,72.0,0,30,2.0,0.0
2696,69.0,0,30,12.0,0.0
2697,72.0,0,30,0.0,0.0
2698,55.0,0,60,15.0,0.0
2699,43.0,30,60,6.0,0.0
2700,70.0,0,30,10.0,0.0
2701,74.0,0,30,2.0,0.0
2702,55.0,0,30,4.0,0.0
2703,70.0,0,30,12.0,0.0
2704,70.0,30,30,3.0,0.0
2705,76.0,0,60,15.0,0.0
2706,70.0,0,60,15.0,0.0
2707,70.0,0,30,0.0,0.0
2708,74.0,0,30,0.0,0.0
2709,55.0,0,30,1.0,0.0
2710,55.0,0,30,13.0,0.0
2711,55.0,0,30,10.0,0.0
2712,74.0,0,30,11.0,0.0
2713,76.0,0,30,11.0,0.0
2714,58.0,0,30,1.0,0.0
2715,67.0,0,30,12.0,0.0
2716,58.0,0,30,10.0,0.0
2717,67.0,0,30,0.0,0.0
2718,67.0,0,30,3.0,0.0
2719,76.0,0,30,0.0,0.0
2720,58.0,0,30,13.0,0.0
2721,76.0,0,30,2.0,0.0
2722,67.0,0,30,10.0,0.0
2723,58.0,0,30,4.0,0.0
2724,72.0,0,30,12.0,0.0
2725,72.0,0,30,0.0,0.0
2726,57.0,0,30,13.0,0.0
2727,57.0,0,30,1.0,0.0
2728,72.0,0,30,3.0,0.0
2729,45.0,0,30,6.0,0.0
2730,57.0,0,30,10.0,0.0
2731,77.0,0,60,0.0,0.0
2732,77.0,0,60,11.0,0.0
2733,72.0,0,30,10.0,0.0
2734,57.0,0,30,15.0,0.0
2735,77.0,0,60,2.0,0.0
2736,72.0,0,240,15.0,0.0
2737,77.0,0,240,15.0,0.0
2738,57.0,30,30,4.0,0.0
2739,55.0,0,30,4.0,0.0
2740,70.0,0,30,12.0,0.0
2741,55.0,0,30,15.0,0.0
2742,55.0,0,30,10.0,0.0
2743,43.0,0,30,6.0,0.0
2744,70.0,0,30,3.0,0.0
2745,55.0,0,30,1.0,0.0
2746,55.0,0,30,13.0,0.0
2747,70.0,0,30,10.0,0.0
2748,70.0,30,30,0.0,0.0
2749,41.0,0,30,6.0,0.0
2750,53.0,0,30,10.0,0.0
2751,69.0,0,30,10.0,0.0
2752,72.0,0,60,2.0,0.0
2753,53.0,0,30,15.0,0.0
2754,72.0,0,60,11.0,0.0
2755,69.0,0,30,12.0,0.0
2756,53.0,0,30,4.0,0.0
2757,53.0,30,30,1.0,0.0
2758,72.0,0,60,0.0,0.0
2759,69.0,0,30,3.0,0.0
2760,53.0,0,30,13.0,0.0
2761,69.0,0,30,0.0,0.0
2762,43.0,0,30,6.0,0.0
2763,70.0,0,30,0.0,0.0
2764,70.0,0,30,3.0,0.0
2765,70.0,30,30,10.0,0.0
2766,55.0,0,30,10.0,0.0
2767,70.0,0,30,12.0,0.0
2768,55.0,0,30,4.0,0.0
2769,55.0,0,30,13.0,0.0
2770,55.0,0,30,15.0,0.0
2771,55.0,0,30,1.0,0.0
2772,57.0,0,30,10.0,0.0
2773,57.0,0,30,13.0,0.0
2774,72.0,30,30,12.0,0.0
2775,72.0,0,30,10.0,0.0
2776,57.0,0,30,4.0,0.0
2777,77.0,0,180,11.0,0.0
2778,77.0,0,180,2.0,0.0
2779,72.0,0,30,3.0,0.0
2780,72.0,0,30,0.0,0.0
2781,57.0,0,30,1.0,0.0
2782,57.0,0,30,15.0,0.0
2783,77.0,0,240,0.0,0.0
2784,45.0,0,30,6.0,0.0
2785,43.0,0,30,6.0,0.0
2786,70.0,0,30,3.0,0.0
2787,70.0,0,30,10.0,0.0
2788,55.0,0,30,15.0,0.0
2789,55.0,0,30,13.0,0.0
2790,55.0,0,30,1.0,0.0
2791,70.0,30,30,0.0,0.0
2792,55.0,0,30,4.0,0.0
2793,55.0,0,30,10.0,0.0
2794,70.0,0,30,12.0,0.0
2795,69.0,0,30,3.0,0.0
2796,69.0,0,30,12.0,0.0
2797,57.0,0,30,1.0,0.0
2798,57.0,0,30,15.0,0.0
2799,57.0,0,30,4.0,0.0
2800,57.0,30,30,13.0,0.0
2801,57.0,0,30,10.0,0.0
2802,69.0,0,30,0.0,0.0
2803,69.0,0,30,10.0,0.0
2804,45.0,0,30,6.0,0.0
2805,53.0,0,30,15.0,0.0
2806,53.0,0,30,10.0,0.0
2807,53.0,0,30,1.0,0.0
2808,41.0,0,30,6.0,0.0
2809,70.0,0,30,12.0,0.0
2810,70.0,0,30,3.0,0.0
2811,70.0,0,30,10.0,0.0
2812,53.0,0,30,13.0,0.0
2813,53.0,0,30,4.0,0.0
2814,70.0,60,30,0.0,0.0
2815,48.0,0,60,15.0,0.0
2816,77.0,0,120,15.0,0.0
2817,60.0,0,60,13.0,0.0
2818,36.0,0,60,6.0,0.0
2819,60.0,0,150,1.0,0.0
2820,67.0,0,120,15.0,0.0
2821,67.0,0,240,0.0,0.0
2822,67.0,0,90,3.0,0.0
2823,60.0,30,60,4.0,0.0
2824,67.0,30,90,10.0,0.0
2825,67.0,0,90,12.0,0.0
2826,60.0,0,60,10.0,0.0
2827,60.0,0,60,15.0,0.0
2828,60.0,30,90,15.0,0.0
2829,48.0,0,60,10.0,0.0
2830,77.0,0,60,11.0,0.0
2831,60.0,0,90,10.0,0.0
2832,48.0,0,90,6.0,0.0
2833,48.0,30,60,4.0,0.0
2834,48.0,0,60,13.0,0.0
2835,60.0,0,90,14.0,0.0
2836,77.0,0,60,2.0,0.0
2837,67.0,0,30,10.0,0.0
2838,67.0,0,30,12.0,0.0
2839,67.0,0,30,3.0,0.0
2840,67.0,30,120,10.0,0.0
2841,67.0,30,60,3.0,0.0
2842,76.0,0,60,2.0,0.0
2843,67.0,0,120,12.0,0.0
2844,76.0,0,120,0.0,0.0
2845,76.0,0,60,11.0,0.0
2846,76.0,0,120,15.0,0.0
2847,60.0,0,240,4.0,0.0
2848,67.0,0,120,15.0,0.0
2849,50.0,0,30,6.0,0.0
2850,62.0,0,30,10.0,0.0
2851,62.0,0,30,1.0,0.0
2852,62.0,0,30,15.0,0.0
2853,62.0,0,30,14.0,0.0
2854,48.0,0,30,6.0,0.0
2855,76.0,0,60,11.0,0.0
2856,60.0,30,30,1.0,0.0
2857,76.0,0,60,2.0,0.0
2858,67.0,0,60,3.0,0.0
2859,60.0,0,30,15.0,0.0
2860,60.0,0,30,10.0,0.0
2861,60.0,0,30,14.0,0.0
2862,58.0,0,30,15.0,0.0
2863,58.0,0,30,1.0,0.0
2864,46.0,0,30,6.0,0.0
2865,58.0,0,30,10.0,0.0
2866,58.0,0,30,14.0,0.0
2867,77.0,0,120,11.0,0.0
2868,60.0,30,60,3.0,0.0
2869,57.0,0,30,14.0,0.0
2870,57.0,0,30,10.0,0.0
2871,45.0,0,30,6.0,0.0
2872,77.0,0,60,0.0,0.0
2873,60.0,0,120,13.0,0.0
2874,72.0,0,120,15.0,0.0
2875,77.0,0,120,15.0,0.0
2876,69.0,0,120,15.0,0.0
2877,77.0,0,120,2.0,0.0
2878,57.0,30,30,1.0,0.0
2879,57.0,0,30,15.0,0.0
2880,48.0,0,30,6.0,0.0
2881,60.0,0,30,15.0,0.0
2882,60.0,0,30,1.0,0.0
2883,60.0,0,30,14.0,0.0
2884,60.0,0,30,10.0,0.0
2885,72.0,0,120,3.0,0.0
2886,58.0,0,30,15.0,0.0
2887,58.0,0,30,14.0,0.0
2888,58.0,30,30,10.0,0.0
2889,72.0,0,120,10.0,0.0
2890,72.0,0,120,12.0,0.0
2891,58.0,0,30,1.0,0.0
2892,46.0,0,30,6.0,0.0
2893,72.0,0,60,0.0,0.0
2894,45.0,0,30,6.0,0.0
2895,57.0,0,30,1.0,0.0
2896,57.0,0,30,14.0,0.0
2897,57.0,0,30,10.0,0.0
2898,57.0,30,30,15.0,0.0
2899,55.0,0,30,1.0,0.0
2900,55.0,0,30,14.0,0.0
2901,79.0,0,120,2.0,0.0
2902,64.0,0,120,1.0,0.0
2903,64.0,0,120,4.0,0.0
2904,43.0,0,30,6.0,0.0
2905,64.0,0,120,13.0,0.0
2906,55.0,30,30,10.0,0.0
2907,64.0,0,120,0.0,0.0
2908,79.0,0,120,11.0,0.0
2909,76.0,0,120,15.0,0.0
2910,70.0,0,120,15.0,0.0
2911,64.0,0,120,10.0,0.0
2912,55.0,0,30,15.0,0.0
2913,67.0,0,120,15.0,0.0
2914,46.0,0,30,6.0,0.0
2915,58.0,0,30,14.0,0.0
2916,58.0,0,30,1.0,0.0
2917,58.0,30,30,10.0,0.0
2918,58.0,0,30,15.0,0.0
2919,70.0,0,60,3.0,0.0
2920,70.0,0,60,0.0,0.0
2921,45.0,30,30,6.0,0.0
2922,70.0,0,60,12.0,0.0
2923,57.0,0,30,10.0,0.0
2924,57.0,0,30,1.0,0.0
2925,70.0,30,60,10.0,0.0
2926,57.0,0,30,15.0,0.0
2927,57.0,0,30,14.0,0.0
2928,55.0,0,30,14.0,0.0
2929,55.0,0,30,10.0,0.0
2930,43.0,0,30,6.0,0.0
2931,55.0,0,30,15.0,0.0
2932,55.0,0,30,1.0,0.0
2933,62.0,0,30,15.0,0.0
2934,41.0,0,30,6.0,0.0
2935,53.0,0,30,10.0,0.0
2936,69.0,0,60,10.0,0.0
2937,81.0,0,120,11.0,0.0
2938,53.0,0,30,15.0,0.0
2939,65.0,0,120,13.0,0.0
2940,65.0,0,120,4.0,0.0
2941,69.0,0,30,15.0,0.0
2942,69.0,0,60,12.0,0.0
2943,69.0,0,60,3.0,0.0
2944,65.0,0,120,1.0,0.0
2945,53.0,0,30,1.0,0.0
2946,69.0,0,120,0.0,0.0
2947,53.0,30,30,14.0,0.0
2948,65.0,0,120,0.0,0.0
2949,81.0,0,120,2.0,0.0
2950,43.0,0,30,6.0,0.0
2951,64.0,0,30,15.0,0.0
2952,55.0,0,30,15.0,0.0
2953,70.0,0,30,15.0,0.0
2954,55.0,30,30,10.0,0.0
2955,55.0,0,30,14.0,0.0
2956,55.0,0,30,1.0,0.0
2957,57.0,0,90,10.0,0.0
2958,57.0,0,90,1.0,0.0
2959,57.0,0,90,15.0,0.0
2960,72.0,0,60,15.0,0.0
2961,65.0,0,60,15.0,0.0
2962,67.0,30,30,3.0,0.0
2963,67.0,0,30,10.0,0.0
2964,57.0,0,90,14.0,0.0
2965,45.0,30,90,6.0,0.0
2966,67.0,0,30,12.0,0.0
2967,65.0,0,30,10.0,0.0
2968,65.0,0,30,12.0,0.0
2969,65.0,0,30,3.0,0.0
2970,57.0,0,60,4.0,0.0
2971,64.0,0,120,12.0,0.0
2972,73.0,0,60,11.0,0.0
2973,64.0,0,120,3.0,0.0
2974,64.0,0,120,0.0,0.0
2975,73.0,0,60,2.0,0.0
2976,64.0,0,120,10.0,0.0
2977,73.0,0,120,0.0,0.0
2978,73.0,0,120,15.0,0.0
2979,64.0,0,120,15.0,0.0
2980,58.0,0,30,1.0,0.0
2981,58.0,30,30,10.0,0.0
2982,58.0,0,30,15.0,0.0
2983,58.0,0,30,14.0,0.0
2984,46.0,0,30,6.0,0.0
2985,57.0,0,30,14.0,0.0
2986,57.0,0,30,1.0,0.0
2987,57.0,0,60,4.0,0.0
2988,73.0,0,60,11.0,0.0
2989,57.0,30,30,15.0,0.0
2990,57.0,0,30,10.0,0.0
2991,45.0,0,30,6.0,0.0
2992,73.0,30,60,2.0,0.0
2993,55.0,0,30,1.0,0.0
2994,55.0,0,30,15.0,0.0
2995,55.0,0,30,14.0,0.0
2996,55.0,0,30,10.0,0.0
2997,43.0,0,30,6.0,0.0
2998,53.0,0,30,1.0,0.0
2999,74.0,0,120,2.0,0.0
3000,74.0,30,120,15.0,0.0
3001,53.0,0,30,15.0,0.0
3002,53.0,0,30,14.0,0.0
3003,53.0,30,30,10.0,0.0
3004,69.0,0,180,0.0,0.0
3005,69.0,0,120,15.0,0.0
3006,74.0,0,120,0.0,0.0
3007,57.0,0,120,4.0,0.0
3008,57.0,0,120,13.0,0.0
3009,74.0,0,120,11.0,0.0
3010,41.0,0,30,6.0,0.0
3011,57.0,0,30,15.0,0.0
3012,57.0,0,30,1.0,0.0
3013,57.0,30,30,10.0,0.0
3014,45.0,0,30,6.0,0.0
3015,57.0,0,30,14.0,0.0
3016,55.0,30,30,10.0,0.0
3017,69.0,0,120,3.0,0.0
3018,55.0,0,30,14.0,0.0
3019,43.0,0,30,6.0,0.0
3020,69.0,0,120,10.0,0.0
3021,69.0,30,120,12.0,0.0
3022,55.0,0,30,1.0,0.0
3023,55.0,0,30,15.0,0.0
3024,53.0,0,30,15.0,0.0
3025,41.0,0,30,6.0,0.0
3026,53.0,0,30,14.0,0.0
3027,53.0,0,30,10.0,0.0
3028,53.0,0,30,1.0,0.0
3029,61.0,0,120,15.0,0.0
3030,67.0,0,120,15.0,0.0
3031,52.0,0,30,15.0,0.0
3032,61.0,0,120,4.0,0.0
3033,52.0,0,30,10.0,0.0
3034,61.0,0,120,10.0,0.0
3035,76.0,0,120,11.0,0.0
3036,40.0,0,30,6.0,0.0
3037,61.0,0,120,1.0,0.0
3038,52.0,30,30,1.0,0.0
3039,61.0,0,120,13.0,0.0
3040,52.0,0,30,14.0,0.0
3041,76.0,0,120,2.0,0.0
3042,76.0,0,120,0.0,0.0
3043,55.0,0,30,10.0,0.0
3044,55.0,0,30,1.0,0.0
3045,43.0,0,30,6.0,0.0
3046,55.0,0,30,14.0,0.0
3047,55.0,0,30,15.0,0.0
3048,67.0,0,60,0.0,0.0
3049,67.0,30,60,12.0,0.0
3050,53.0,0,30,14.0,0.0
3051,53.0,0,30,15.0,0.0
3052,53.0,0,30,1.0,0.0
3053,67.0,0,60,3.0,0.0
3054,53.0,30,30,10.0,0.0
3055,41.0,0,30,6.0,0.0
3056,67.0,0,60,10.0,0.0
3057,40.0,0,30,6.0,0.0
3058,52.0,0,30,14.0,0.0
3059,52.0,0,30,15.0,0.0
3060,52.0,0,30,10.0,0.0
3061,52.0,0,30,1.0,0.0
3062,38.0,30,30,6.0,0.0
3063,77.0,0,120,11.0,0.0
3064,77.0,0,120,2.0,0.0
3065,50.0,0,30,10.0,0.0
3066,77.0,30,120,0.0,0.0
3067,65.0,0,120,0.0,0.0
3068,62.0,0,120,1.0,0.0
3069,50.0,0,30,1.0,0.0
3070,65.0,0,60,10.0,0.0
3071,65.0,0,60,12.0,0.0
3072,62.0,0,120,15.0,0.0
3073,69.0,30,60,15.0,0.0
3074,65.0,0,120,15.0,0.0
3075,50.0,0,30,15.0,0.0
3076,65.0,0,60,3.0,0.0
3077,62.0,0,120,4.0,0.0
3078,50.0,0,30,14.0,0.0
3079,62.0,0,120,13.0,0.0
3080,39.0,0,30,6.0,0.0
3081,51.0,0,30,15.0,0.0
3082,51.0,0,30,14.0,0.0
3083,51.0,0,30,10.0,0.0
3084,51.0,0,30,1.0,0.0
3085,53.0,30,90,14.0,0.0
3086,63.0,0,30,3.0,0.0
3087,63.0,0,30,10.0,0.0
3088,41.0,0,90,6.0,0.0
3089,63.0,30,30,12.0,0.0
3090,53.0,0,90,15.0,0.0
3091,53.0,0,90,1.0,0.0
3092,53.0,0,90,10.0,0.0
3093,69.0,0,60,15.0,0.0
3094,62.0,0,30,12.0,0.0
3095,62.0,0,30,10.0,0.0
3096,62.0,0,30,3.0,0.0
3097,69.0,0,60,2.0,0.0
3098,69.0,0,60,11.0,0.0
3099,53.0,0,60,4.0,0.0
3100,60.0,0,120,15.0,0.0
3101,69.0,30,120,15.0,0.0
3102,60.0,0,120,12.0,0.0
3103,65.0,0,120,15.0,0.0
3104,60.0,0,120,0.0,0.0
3105,69.0,0,120,0.0,0.0
3106,60.0,0,120,3.0,0.0
3107,60.0,0,120,10.0,0.0
3108,55.0,0,30,15.0,0.0
3109,55.0,0,30,1.0,0.0
3110,55.0,0,30,10.0,0.0
3111,43.0,0,30,6.0,0.0
3112,55.0,30,30,14.0,0.0
3113,53.0,0,60,4.0,0.0
3114,53.0,0,30,10.0,0.0
3115,53.0,0,30,14.0,0.0
3116,53.0,0,30,1.0,0.0
3117,53.0,0,30,15.0,0.0
3118,41.0,30,30,6.0,0.0
3119,69.0,0,60,2.0,0.0
3120,69.0,0,60,11.0,0.0
3121,52.0,0,30,15.0,0.0
3122,52.0,0,30,14.0,0.0
3123,52.0,0,30,10.0,0.0
3124,51.0,0,30,1.0,0.0
3125,40.0,0,30,6.0,0.0
3126,38.0,0,30,6.0,0.0
3127,53.0,0,120,13.0,0.0
3128,50.0,0,30,14.0,0.0
3129,53.0,0,120,4.0,0.0
3130,65.0,0,180,0.0,0.0
3131,70.0,0,120,0.0,0.0
3132,50.0,0,30,15.0,0.0
3133,65.0,0,120,15.0,0.0
3134,70.0,0,120,15.0,0.0
3135,50.0,30,30,10.0,0.0
3136,70.0,0,120,2.0,0.0
3137,50.0,0,30,1.0,0.0
3138,70.0,0,120,11.0,0.0
3139,53.0,30,30,14.0,0.0
3140,41.0,0,30,6.0,0.0
3141,53.0,0,30,10.0,0.0
3142,53.0,0,30,1.0,0.0
3143,53.0,0,30,15.0,0.0
3144,65.0,0,120,10.0,0.0
3145,52.0,0,30,15.0,0.0
3146,52.0,0,30,14.0,0.0
3147,40.0,0,30,6.0,0.0
3148,65.0,0,120,3.0,0.0
3149,51.0,30,30,1.0,0.0
3150,65.0,0,120,12.0,0.0
3151,52.0,0,30,10.0,0.0
3152,38.0,0,30,6.0,0.0
3153,50.0,0,30,1.0,0.0
3154,50.0,0,30,10.0,0.0
3155,50.0,0,30,15.0,0.0
3156,50.0,0,30,14.0,0.0
3157,63.0,0,120,15.0,0.0
3158,48.0,0,30,15.0,0.0
3159,69.0,0,120,15.0,0.0
3160,48.0,0,30,10.0,0.0
3161,57.0,0,120,10.0,0.0
3162,72.0,0,120,11.0,0.0
3163,72.0,0,120,0.0,0.0
3164,57.0,60,120,4.0,0.0
3165,36.0,0,30,6.0,0.0
3166,72.0,0,120,2.0,0.0
3167,57.0,0,120,13.0,0.0
3168,48.0,0,30,14.0,0.0
3169,48.0,30,30,1.0,0.0
3170,57.0,0,120,1.0,0.0
3171,52.0,0,30,15.0,0.0
3172,52.0,0,30,10.0,0.0
3173,52.0,0,30,14.0,0.0
3174,51.0,30,30,1.0,0.0
3175,40.0,0,30,6.0,0.0
3176,64.0,0,60,12.0,0.0
3177,63.0,0,60,0.0,0.0
3178,50.0,0,30,14.0,0.0
3179,50.0,0,30,1.0,0.0
3180,64.0,0,60,3.0,0.0
3181,50.0,0,30,15.0,0.0
3182,38.0,0,30,6.0,0.0
3183,64.0,0,60,10.0,0.0
3184,50.0,30,30,10.0,0.0
3185,48.0,0,30,15.0,0.0
3186,48.0,0,30,1.0,0.0
3187,36.0,0,30,6.0,0.0
3188,48.0,0,30,14.0,0.0
3189,48.0,0,30,10.0,0.0
3190,62.0,0,120,12.0,0.0
3191,74.0,0,120,2.0,0.0
3192,34.0,0,120,6.0,0.0
3193,74.0,0,60,0.0,0.0
3194,62.0,0,60,0.0,0.0
3195,74.0,0,60,11.0,0.0
3196,58.0,0,120,13.0,0.0
3197,46.0,60,120,14.0,0.0
3198,46.0,0,120,15.0,0.0
3199,58.0,0,120,10.0,0.0
3200,46.0,0,120,10.0,0.0
3201,58.0,0,120,15.0,0.0
3202,62.0,0,120,10.0,0.0
3203,62.0,0,120,15.0,0.0
3204,65.0,0,120,15.0,0.0
3205,62.0,0,120,3.0,0.0
3206,58.0,0,60,1.0,0.0
3207,46.0,60,60,1.0,0.0
3208,58.0,0,120,4.0,0.0
3209,74.0,0,60,11.0,0.0
3210,58.0,0,60,1.0,0.0
3211,65.0,0,60,1.0,0.0
3212,50.0,0,60,8.0,0.0
3213,62.0,0,60,7.0,0.0
3214,74.0,0,60,7.0,0.0
3215,70.0,0,60,0.0,0.0
3216,77.0,0,60,0.0,0.0
3217,58.0,0,60,1.0,0.0
3218,50.0,0,60,8.0,0.0
3219,62.0,0,60,7.0,0.0
3220,74.0,60,60,7.0,0.0
3221,70.0,0,60,0.0,0.0
3222,77.0,0,60,0.0,0.0
3223,65.0,0,60,1.0,0.0
3224,74.0,0,60,11.0,0.0
3225,50.0,0,60,8.0,0.0
3226,70.0,0,60,0.0,0.0
3227,62.0,15,60,7.0,0.0
3228,58.0,0,60,1.0,0.0
3229,74.0,0,60,11.0,0.0
3230,77.0,0,60,0.0,0.0
3231,74.0,0,60,7.0,0.0
3232,65.0,0,60,1.0,0.0
3233,72.0,0,15,3.0,0.0
3234,72.0,0,15,2.0,0.0
3235,50.0,0,120,8.0,0.0
3236,77.0,0,120,0.0,0.0
3237,77.0,0,90,11.0,0.0
3238,70.0,15,15,3.0,0.0
3239,58.0,0,120,1.0,0.0
3240,65.0,0,120,1.0,0.0
3241,74.0,0,120,7.0,0.0
3242,70.0,0,15,2.0,0.0
3243,62.0,0,120,7.0,0.0
3244,70.0,15,120,0.0,0.0
3245,69.0,0,15,2.0,0.0
3246,69.0,30,15,3.0,0.0
3247,70.0,0,30,4.0,0.0
3248,46.0,0,30,6.0,0.0
3249,70.0,0,30,2.0,0.0
3250,70.0,30,30,3.0,0.0
3251,62.0,0,60,10.0,0.0
3252,58.0,0,60,14.0,0.0
3253,65.0,0,60,12.0,0.0
3254,74.0,0,30,2.0,0.0
3255,58.0,0,60,10.0,0.0
3256,65.0,0,60,10.0,0.0
3257,50.0,15,30,6.0,0.0
3258,74.0,0,30,3.0,0.0
3259,62.0,0,60,13.0,0.0
3260,74.0,0,30,4.0,0.0
3261,70.0,0,15,4.0,0.0
3262,70.0,0,15,3.0,0.0
3263,46.0,0,15,6.0,0.0
3264,76.0,0,30,11.0,0.0
3265,70.0,15,15,2.0,0.0
3266,58.0,0,60,14.0,0.0
3267,62.0,0,60,13.0,0.0
3268,65.0,0,15,4.0,0.0
3269,58.0,0,60,10.0,0.0
3270,65.0,0,15,2.0,0.0
3271,65.0,0,60,12.0,0.0
3272,62.0,15,60,10.0,0.0
3273,65.0,0,60,10.0,0.0
3274,74.0,0,120,11.0,0.0
3275,65.0,0,15,3.0,0.0
3276,41.0,30,15,6.0,0.0
3277,62.0,0,15,4.0,0.0
3278,38.0,0,15,6.0,0.0
3279,62.0,15,15,2.0,0.0
3280,62.0,0,15,3.0,0.0
3281,58.0,0,60,14.0,0.0
3282,58.0,0,60,10.0,0.0
3283,62.0,0,60,13.0,0.0
3284,65.0,0,60,10.0,0.0
3285,65.0,0,60,12.0,0.0
3286,58.0,0,15,3.0,0.0
3287,34.0,0,15,6.0,0.0
3288,58.0,0,15,4.0,0.0
3289,58.0,30,15,2.0,0.0
3290,62.0,90,60,10.0,0.0
3291,41.0,0,15,6.0,0.0
3292,65.0,15,15,4.0,0.0
3293,65.0,0,15,2.0,0.0
3294,65.0,0,15,3.0,0.0
3295,65.0,0,90,13.0,0.0
3296,57.0,0,90,14.0,0.0
3297,57.0,0,120,2.0,0.0
3298,65.0,0,90,10.0,0.0
3299,69.0,0,90,10.0,0.0
3300,69.0,0,90,12.0,0.0
3301,57.0,30,90,10.0,0.0
3302,57.0,0,120,3.0,0.0
3303,45.0,0,120,15.0,0.0
3304,62.0,0,120,15.0,0.0
3305,65.0,0,120,15.0,0.0
3306,69.0,0,120,15.0,0.0
3307,57.0,0,120,4.0,0.0
3308,33.0,0,120,6.0,0.0
3309,74.0,0,60,0.0,0.0
3310,74.0,0,60,11.0,0.0
3311,77.0,0,60,0.0,0.0
3312,62.0,0,60,1.0,0.0
3313,69.0,0,60,7.0,0.0
3314,65.0,60,60,1.0,0.0
3315,50.0,0,60,8.0,0.0
3316,57.0,0,60,7.0,0.0
3317,57.0,0,30,10.0,0.0
3318,64.0,0,30,10.0,0.0
3319,67.0,0,30,10.0,0.0
3320,64.0,0,30,13.0,0.0
3321,57.0,0,30,14.0,0.0
3322,67.0,0,30,12.0,0.0
3323,62.0,0,60,1.0,0.0
3324,62.0,0,120,13.0,0.0
3325,74.0,0,60,0.0,0.0
3326,65.0,0,120,12.0,0.0
3327,77.0,0,60,0.0,0.0
3328,69.0,0,60,7.0,0.0
3329,50.0,60,60,8.0,0.0
3330,62.0,0,120,10.0,0.0
3331,65.0,0,120,10.0,0.0
3332,57.0,0,120,10.0,0.0
3333,74.0,0,60,11.0,0.0
3334,65.0,0,60,1.0,0.0
3335,57.0,0,60,7.0,0.0
3336,57.0,0,120,14.0,0.0
3337,74.0,0,60,0.0,0.0
3338,74.0,15,60,11.0,0.0
3339,65.0,0,60,1.0,0.0
3340,62.0,0,60,1.0,0.0
3341,69.0,0,60,7.0,0.0
3342,77.0,0,60,0.0,0.0
3343,57.0,0,60,7.0,0.0
3344,50.0,0,60,8.0,0.0
3345,76.0,0,15,2.0,0.0
3346,76.0,0,15,3.0,0.0
3347,74.0,15,15,2.0,0.0
3348,74.0,0,15,3.0,0.0
3349,69.0,0,120,7.0,0.0
3350,57.0,0,120,7.0,0.0
3351,77.0,0,120,0.0,0.0
3352,77.0,0,90,11.0,0.0
3353,74.0,0,120,0.0,0.0
3354,65.0,0,120,1.0,0.0
3355,62.0,0,120,1.0,0.0
3356,50.0,0,120,8.0,0.0
3357,73.0,0,15,3.0,0.0
3358,73.0,30,15,2.0,0.0
3359,74.0,0,30,2.0,0.0
3360,74.0,0,30,4.0,0.0
3361,50.0,30,30,6.0,0.0
3362,74.0,0,30,3.0,0.0
3363,65.0,0,60,10.0,0.0
3364,77.0,15,30,4.0,0.0
3365,62.0,0,60,13.0,0.0
3366,77.0,0,30,3.0,0.0
3367,57.0,0,60,10.0,0.0
3368,65.0,0,60,12.0,0.0
3369,62.0,0,60,10.0,0.0
3370,53.0,0,30,6.0,0.0
3371,57.0,15,60,14.0,0.0
3372,77.0,0,30,2.0,0.0
3373,74.0,0,15,4.0,0.0
3374,50.0,15,15,6.0,0.0
3375,74.0,0,15,2.0,0.0
3376,76.0,0,30,11.0,0.0
3377,74.0,0,15,3.0,0.0
3378,74.0,0,120,11.0,0.0
3379,57.0,0,60,10.0,0.0
3380,65.0,0,60,12.0,0.0
3381,69.0,0,15,4.0,0.0
3382,62.0,0,60,13.0,0.0
3383,57.0,0,60,14.0,0.0
3384,65.0,15,60,10.0,0.0
3385,69.0,0,15,3.0,0.0
3386,45.0,30,15,6.0,0.0
3387,62.0,0,60,10.0,0.0
3388,69.0,0,15,2.0,0.0
3389,65.0,15,15,3.0,0.0
3390,41.0,0,15,6.0,0.0
3391,65.0,0,15,2.0,0.0
3392,65.0,0,15,4.0,0.0
3393,65.0,0,60,12.0,0.0
3394,65.0,0,60,10.0,0.0
3395,62.0,30,15,4.0,0.0
3396,57.0,0,60,14.0,0.0
3397,62.0,0,60,13.0,0.0
3398,57.0,60,60,10.0,0.0
3399,38.0,0,15,6.0,0.0
3400,62.0,0,15,3.0,0.0
3401,62.0,0,60,10.0,0.0
3402,62.0,0,15,2.0,0.0
3403,41.0,0,15,6.0,0.0
3404,65.0,0,15,4.0,0.0
3405,65.0,15,15,2.0,0.0
3406,65.0,0,15,3.0,0.0
3407,56.0,0,90,10.0,0.0
3408,65.0,0,90,12.0,0.0
3409,56.0,0,90,14.0,0.0
3410,32.0,30,60,6.0,0.0
3411,56.0,0,60,3.0,0.0
3412,56.0,0,60,4.0,0.0
3413,56.0,0,60,2.0,0.0
3414,65.0,0,90,10.0,0.0
3415,77.0,0,360,0.0,0.0
3416,71.0,0,480,0.0,0.0
3417,56.0,0,480,1.0,0.0
3418,74.0,0,120,7.0,0.0
3419,50.0,0,120,8.0,0.0
3420,62.0,60,360,1.0,0.0
3421,62.0,0,90,10.0,0.0
3422,62.0,30,90,13.0,0.0
3423,44.0,0,60,15.0,0.0
3424,71.0,60,240,15.0,0.0
3425,77.0,0,240,15.0,0.0
3426,65.0,0,240,15.0,0.0
3427,62.0,0,120,7.0,0.0
3428,56.0,0,60,15.0,0.0
3429,77.0,60,60,2.0,0.0
3430,62.0,0,60,3.0,0.0
3431,71.0,0,60,4.0,0.0
3432,44.0,0,60,6.0,0.0
3433,64.0,0,30,10.0,0.0
3434,64.0,0,30,12.0,0.0
3435,56.0,0,30,14.0,0.0
3436,60.0,0,30,10.0,0.0
3437,56.0,0,30,10.0,0.0
3438,60.0,0,30,13.0,0.0
3439,56.0,0,120,10.0,0.0
3440,62.0,0,120,10.0,0.0
3441,62.0,0,120,12.0,0.0
3442,62.0,30,90,7.0,0.0
3443,59.0,0,120,13.0,0.0
3444,77.0,0,60,2.0,0.0
3445,62.0,0,60,3.0,0.0
3446,74.0,0,90,7.0,0.0
3447,56.0,0,120,14.0,0.0
3448,56.0,0,60,15.0,0.0
3449,59.0,0,120,10.0,0.0
3450,50.0,0,90,8.0,0.0
3451,77.0,0,240,11.0,0.0
3452,44.0,30,60,6.0,0.0
3453,71.0,0,60,4.0,0.0
3454,71.0,0,60,4.0,0.0
3455,62.0,0,60,3.0,0.0
3456,77.0,0,60,2.0,0.0
3457,44.0,0,60,6.0,0.0
3458,56.0,0,60,15.0,0.0
3459,74.0,0,30,7.0,0.0
3460,50.0,0,30,8.0,0.0
3461,62.0,0,30,7.0,0.0
3462,62.0,0,120,10.0,0.0
3463,50.0,0,120,8.0,0.0
3464,44.0,0,60,6.0,0.0
3465,77.0,0,60,2.0,0.0
3466,71.0,0,120,12.0,0.0
3467,62.0,0,120,7.0,0.0
3468,74.0,0,120,7.0,0.0
3469,56.0,0,120,10.0,0.0
3470,71.0,0,120,10.0,0.0
3471,71.0,0,60,4.0,0.0
3472,56.0,0,60,15.0,0.0
3473,56.0,0,120,14.0,0.0
3474,71.0,0,120,15.0,0.0
3475,62.0,0,120,13.0,0.0
3476,77.0,0,120,15.0,0.0
3477,62.0,60,60,3.0,0.0
3478,77.0,0,60,2.0,0.0
3479,62.0,0,60,3.0,0.0
3480,71.0,0,60,4.0,0.0
3481,56.0,0,60,15.0,0.0
3482,44.0,0,60,6.0,0.0
3483,76.0,60,60,11.0,0.0
3484,44.0,0,60,6.0,0.0
3485,71.0,0,60,12.0,0.0
3486,76.0,0,60,15.0,0.0
3487,71.0,0,60,15.0,0.0
3488,56.0,0,60,15.0,0.0
3489,64.0,0,60,10.0,0.0
3490,56.0,0,60,14.0,0.0
3491,64.0,0,60,3.0,0.0
3492,56.0,0,60,10.0,0.0
3493,71.0,0,60,4.0,0.0
3494,64.0,0,60,13.0,0.0
3495,76.0,0,60,0.0,0.0
3496,64.0,0,60,1.0,0.0
3497,76.0,0,60,2.0,0.0
3498,71.0,0,60,10.0,0.0
3499,74.0,0,60,2.0,0.0
3500,56.0,0,60,14.0,0.0
3501,71.0,0,60,4.0,0.0
3502,62.0,0,60,7.0,0.0
3503,65.0,0,60,1.0,0.0
3504,50.0,0,60,8.0,0.0
3505,74.0,0,60,11.0,0.0
3506,71.0,0,60,10.0,0.0
3507,56.0,0,60,15.0,0.0
3508,74.0,0,60,15.0,0.0
3509,71.0,0,60,12.0,0.0
3510,65.0,0,60,13.0,0.0
3511,74.0,0,60,7.0,0.0
3512,56.0,0,60,10.0,0.0
3513,65.0,0,60,3.0,0.0
3514,74.0,0,60,0.0,0.0
3515,44.0,60,60,6.0,0.0
3516,71.0,0,60,15.0,0.0
3517,65.0,0,60,10.0,0.0
3518,65.0,0,60,10.0,0.0
3519,65.0,0,60,3.0,0.0
3520,74.0,0,60,2.0,0.0
3521,69.0,0,60,4.0,0.0
3522,74.0,0,60,11.0,0.0
3523,45.0,60,60,6.0,0.0
3524,45.0,0,60,8.0,0.0
3525,69.0,0,60,15.0,0.0
3526,57.0,0,60,7.0,0.0
3527,69.0,0,60,7.0,0.0
3528,65.0,0,60,15.0,0.0
3529,74.0,0,60,15.0,0.0
3530,57.0,0,60,15.0,0.0
3531,57.0,0,60,10.0,0.0
3532,69.0,0,60,12.0,0.0
3533,65.0,0,60,1.0,0.0
3534,57.0,0,120,1.0,0.0
3535,74.0,0,60,0.0,0.0
3536,57.0,0,60,14.0,0.0
3537,69.0,0,60,10.0,0.0
3538,65.0,0,60,13.0,0.0
3539,64.0,0,60,3.0,0.0
3540,64.0,0,60,13.0,0.0
3541,73.0,0,60,11.0,0.0
3542,69.0,0,60,10.0,0.0
3543,73.0,0,60,2.0,0.0
3544,64.0,0,60,1.0,0.0
3545,57.0,120,60,14.0,0.0
3546,64.0,0,60,15.0,0.0
3547,69.0,0,60,15.0,0.0
3548,73.0,0,60,15.0,0.0
3549,45.0,0,60,15.0,0.0
3550,33.0,0,60,6.0,0.0
3551,69.0,0,60,7.0,0.0
3552,57.0,0,60,7.0,0.0
3553,45.0,0,60,8.0,0.0
3554,64.0,0,60,10.0,0.0
3555,73.0,0,60,0.0,0.0
3556,57.0,0,60,4.0,0.0
3557,69.0,0,60,12.0,0.0
3558,57.0,0,60,10.0,0.0
3559,61.0,120,60,13.0,0.0
3560,64.0,0,60,3.0,0.0
3561,64.0,0,60,10.0,0.0
3562,57.0,0,60,14.0,0.0
3563,69.0,0,60,11.0,0.0
3564,60.0,0,60,4.0,0.0
3565,33.0,0,60,6.0,0.0
3566,69.0,0,60,2.0,0.0
3567,57.0,0,60,10.0,0.0
3568,61.0,0,60,10.0,0.0
3569,64.0,0,60,12.0,0.0
3570,45.0,0,60,15.0,0.0
3571,61.0,0,60,15.0,0.0
3572,64.0,0,60,15.0,0.0
3573,50.0,0,120,10.0,0.0
3574,50.0,0,120,15.0,0.0
3575,65.0,0,120,15.0,0.0
3576,69.0,0,120,15.0,0.0
3577,62.0,0,120,15.0,0.0
3578,62.0,0,120,4.0,0.0
3579,62.0,0,120,10.0,0.0
3580,69.0,120,120,2.0,0.0
3581,65.0,0,120,12.0,0.0
3582,38.0,0,120,6.0,0.0
3583,65.0,0,120,10.0,0.0
3584,62.0,0,120,13.0,0.0
3585,65.0,0,120,3.0,0.0
3586,69.0,0,120,11.0,0.0
3587,50.0,0,120,14.0,0.0
3588,64.0,0,120,10.0,0.0
3589,49.0,0,120,14.0,0.0
3590,64.0,0,120,15.0,0.0
3591,69.0,0,120,15.0,0.0
3592,49.0,0,120,15.0,0.0
3593,64.0,0,120,4.0,0.0
3594,67.0,0,120,15.0,0.0
3595,67.0,0,120,3.0,0.0
3596,64.0,0,120,13.0,0.0
3597,37.0,0,120,6.0,0.0
3598,69.0,0,120,11.0,0.0
3599,67.0,0,120,12.0,0.0
3600,49.0,0,120,10.0,0.0
3601,69.0,0,120,2.0,0.0
3602,67.0,60,120,10.0,0.0
3603,69.0,0,90,11.0,0.0
3604,62.0,0,90,10.0,0.0
3605,50.0,0,90,14.0,0.0
3606,38.0,0,120,6.0,0.0
3607,45.0,30,60,8.0,0.0
3608,69.0,0,120,15.0,0.0
3609,65.0,0,120,15.0,0.0
3610,65.0,0,90,12.0,0.0
3611,65.0,0,120,3.0,0.0
3612,50.0,0,120,15.0,0.0
3613,50.0,0,90,10.0,0.0
3614,62.0,0,120,4.0,0.0
3615,62.0,30,90,13.0,0.0
3616,69.0,0,120,2.0,0.0
3617,65.0,0,90,10.0,0.0
3618,62.0,0,120,15.0,0.0
3619,45.0,0,30,8.0,0.0
3620,65.0,0,30,10.0,0.0
3621,45.0,0,30,8.0,0.0
3622,50.0,0,30,10.0,0.0
3623,65.0,60,30,12.0,0.0
3624,50.0,0,30,14.0,0.0
3625,69.0,0,30,11.0,0.0
3626,62.0,0,30,13.0,0.0
3627,62.0,0,30,10.0,0.0
3628,48.0,0,120,14.0,0.0
3629,57.0,0,120,15.0,0.0
3630,48.0,0,120,15.0,0.0
3631,64.0,0,120,15.0,0.0
3632,64.0,0,120,10.0,0.0
3633,57.0,0,120,13.0,0.0
3634,57.0,0,120,10.0,0.0
3635,69.0,0,120,15.0,0.0
3636,69.0,0,120,2.0,0.0
3637,69.0,0,120,11.0,0.0
3638,57.0,0,120,4.0,0.0
3639,64.0,120,120,3.0,0.0
3640,36.0,0,120,6.0,0.0
3641,64.0,0,120,12.0,0.0
3642,45.0,60,60,8.0,0.0
3643,48.0,0,120,10.0,0.0
3644,45.0,0,60,8.0,0.0
3645,62.0,0,120,15.0,0.0
3646,45.0,0,240,8.0,0.0
3647,47.0,0,120,14.0,0.0
3648,62.0,60,120,12.0,0.0
3649,47.0,0,120,10.0,0.0
3650,62.0,0,120,10.0,0.0
3651,35.0,0,120,6.0,0.0
3652,53.0,0,120,10.0,0.0
3653,53.0,0,120,4.0,0.0
3654,47.0,0,120,15.0,0.0
3655,69.0,0,120,11.0,0.0
3656,53.0,0,120,13.0,0.0
3657,65.0,0,120,15.0,0.0
3658,69.0,0,120,15.0,0.0
3659,69.0,0,120,2.0,0.0
3660,62.0,0,120,3.0,0.0
3661,46.0,0,60,10.0,0.0
3662,62.0,0,60,10.0,0.0
3663,68.0,0,60,2.0,0.0
3664,62.0,0,60,12.0,0.0
3665,62.0,0,120,3.0,0.0
3666,52.0,0,60,10.0,0.0
3667,46.0,0,120,15.0,0.0
3668,52.0,0,60,13.0,0.0
3669,46.0,0,60,14.0,0.0
3670,52.0,0,60,4.0,0.0
3671,62.0,0,120,15.0,0.0
3672,34.0,0,120,6.0,0.0
3673,68.0,60,60,11.0,0.0
3674,68.0,0,120,15.0,0.0
3675,46.0,0,60,10.0,0.0
3676,62.0,0,60,10.0,0.0
3677,50.0,0,60,10.0,0.0
3678,69.0,0,60,11.0,0.0
3679,50.0,0,60,4.0,0.0
3680,69.0,0,60,2.0,0.0
3681,46.0,120,60,14.0,0.0
3682,50.0,0,60,13.0,0.0
3683,62.0,0,60,12.0,0.0
3684,62.0,0,120,12.0,0.0
3685,65.0,0,120,11.0,0.0
3686,65.0,60,120,15.0,0.0
3687,62.0,0,120,15.0,0.0
3688,45.0,0,240,15.0,0.0
3689,57.0,0,240,15.0,0.0
3690,62.0,0,120,10.0,0.0
3691,65.0,0,120,2.0,0.0
3692,69.0,0,240,7.0,0.0
3693,45.0,0,240,10.0,0.0
3694,57.0,0,240,10.0,0.0
3695,33.0,0,240,6.0,0.0
3696,57.0,0,240,7.0,0.0
3697,57.0,0,240,4.0,0.0
3698,45.0,0,240,14.0,0.0
3699,57.0,0,240,13.0,0.0
3700,62.0,0,120,3.0,0.0
3701,64.0,0,60,15.0,0.0
3702,61.0,60,60,12.0,0.0
3703,64.0,0,60,2.0,0.0
3704,61.0,0,60,15.0,0.0
3705,61.0,0,60,10.0,0.0
3706,61.0,0,60,3.0,0.0
3707,64.0,0,60,11.0,0.0
3708,59.0,240,60,15.0,0.0
3709,59.0,0,60,10.0,0.0
3710,62.0,0,60,11.0,0.0
3711,59.0,0,60,3.0,0.0
3712,59.0,0,60,12.0,0.0
3713,62.0,0,60,15.0,0.0
3714,62.0,0,60,2.0,0.0
3715,57.0,0,240,4.0,0.0
3716,61.0,0,240,12.0,0.0
3717,45.0,180,240,14.0,0.0
3718,69.0,0,240,7.0,0.0
3719,57.0,0,240,7.0,0.0
3720,64.0,0,240,11.0,0.0
3721,64.0,0,240,2.0,0.0
3722,57.0,0,240,10.0,0.0
3723,60.0,0,240,3.0,0.0
3724,45.0,0,240,10.0,0.0
3725,57.0,0,240,15.0,0.0
3726,61.0,0,240,15.0,0.0
3727,64.0,0,240,15.0,0.0
3728,61.0,0,240,10.0,0.0
3729,57.0,0,240,13.0,0.0
3730,45.0,0,240,15.0,0.0
3731,33.0,0,240,6.0,0.0
3732,57.0,0,180,10.0,0.0
3733,57.0,0,180,1.0,0.0
3734,45.0,0,180,6.0,0.0
3735,57.0,0,180,15.0,0.0
3736,57.0,60,180,14.0,0.0
3737,57.0,0,60,1.0,0.0
3738,45.0,120,60,6.0,0.0
3739,57.0,0,60,14.0,0.0
3740,57.0,0,60,10.0,0.0
3741,57.0,0,60,15.0,0.0
3742,53.0,0,120,1.0,0.0
3743,53.0,0,120,10.0,0.0
3744,53.0,0,120,14.0,0.0
3745,53.0,120,120,15.0,0.0
3746,41.0,0,120,6.0,0.0
3747,46.0,0,120,6.0,0.0
3748,58.0,0,120,1.0,0.0
3749,58.0,0,120,10.0,0.0
3750,58.0,120,120,14.0,0.0
3751,58.0,0,120,15.0,0.0
3752,37.0,0,180,6.0,0.0
3753,49.0,0,180,14.0,0.0
3754,49.0,60,180,15.0,0.0
3755,49.0,0,180,1.0,0.0
3756,49.0,0,180,10.0,0.0
3757,64.0,60,60,12.0,0.0
3758,64.0,0,60,0.0,0.0
3759,64.0,0,60,15.0,0.0
3760,64.0,0,60,3.0,0.0
3761,64.0,0,60,5.0,0.0
3762,64.0,0,60,10.0,0.0
3763,64.0,0,60,15.0,0.0
3764,64.0,0,60,0.0,0.0
3765,64.0,0,60,12.0,0.0
3766,64.0,0,60,5.0,0.0
3767,64.0,0,60,3.0,0.0
3768,64.0,0,60,10.0,0.0
3769,64.0,0,60,3.0,0.0
3770,64.0,30,60,12.0,0.0
3771,64.0,0,60,10.0,0.0
3772,64.0,0,60,5.0,0.0
3773,49.0,0,60,10.0,0.0
3774,64.0,0,60,0.0,0.0
3775,64.0,0,60,15.0,0.0
3776,49.0,0,60,14.0,0.0
3777,49.0,0,60,15.0,0.0
3778,37.0,0,60,6.0,0.0
3779,49.0,0,60,1.0,0.0
3780,65.0,0,30,3.0,0.0
3781,50.0,0,120,10.0,0.0
3782,65.0,0,30,12.0,0.0
3783,50.0,0,120,14.0,0.0
3784,50.0,30,120,15.0,0.0
3785,50.0,0,120,1.0,0.0
3786,65.0,0,30,5.0,0.0
3787,65.0,0,30,10.0,0.0
3788,65.0,0,30,0.0,0.0
3789,38.0,0,120,6.0,0.0
3790,65.0,30,30,15.0,0.0
3791,67.0,0,30,10.0,0.0
3792,67.0,0,30,5.0,0.0
3793,67.0,0,30,12.0,0.0
3794,67.0,0,30,3.0,0.0
3795,67.0,30,30,0.0,0.0
3796,67.0,0,30,15.0,0.0
3797,65.0,0,30,3.0,0.0
3798,65.0,0,30,10.0,0.0
3799,65.0,30,30,0.0,0.0
3800,65.0,0,30,5.0,0.0
3801,65.0,0,30,12.0,0.0
3802,65.0,0,30,15.0,0.0
3803,64.0,0,30,12.0,0.0
3804,64.0,0,30,3.0,0.0
3805,64.0,0,30,5.0,0.0
3806,64.0,0,30,0.0,0.0
3807,64.0,0,30,15.0,0.0
3808,64.0,0,30,10.0,0.0
3809,65.0,0,30,15.0,0.0
3810,65.0,0,30,3.0,0.0
3811,65.0,0,30,12.0,0.0
3812,65.0,0,30,0.0,0.0
3813,65.0,0,30,5.0,0.0
3814,65.0,30,30,10.0,0.0
3815,67.0,0,30,12.0,0.0
3816,67.0,0,30,0.0,0.0
3817,67.0,0,30,3.0,0.0
3818,67.0,0,30,15.0,0.0
3819,67.0,0,30,10.0,0.0
3820,67.0,30,30,5.0,0.0
3821,64.0,0,30,12.0,0.0
3822,38.0,0,60,6.0,0.0
3823,64.0,0,30,5.0,0.0
3824,64.0,0,30,15.0,0.0
3825,64.0,0,30,10.0,0.0
3826,50.0,0,60,15.0,0.0
3827,50.0,30,60,1.0,0.0
3828,50.0,0,60,10.0,0.0
3829,50.0,0,60,14.0,0.0
3830,64.0,0,30,0.0,0.0
3831,64.0,30,30,3.0,0.0
3832,65.0,0,30,3.0,0.0
3833,65.0,0,30,15.0,0.0
3834,65.0,0,30,12.0,0.0
3835,65.0,0,30,5.0,0.0
3836,65.0,0,30,10.0,0.0
3837,65.0,0,30,0.0,0.0
3838,52.0,0,180,15.0,0.0
3839,67.0,30,30,10.0,0.0
3840,67.0,0,30,5.0,0.0
3841,67.0,0,30,12.0,0.0
3842,52.0,0,180,10.0,0.0
3843,67.0,0,30,15.0,0.0
3844,52.0,0,180,14.0,0.0
3845,52.0,0,180,1.0,0.0
3846,67.0,0,30,3.0,0.0
3847,67.0,0,30,0.0,0.0
3848,40.0,30,180,6.0,0.0
3849,69.0,0,30,5.0,0.0
3850,69.0,0,30,10.0,0.0
3851,69.0,0,30,15.0,0.0
3852,69.0,30,30,0.0,0.0
3853,69.0,0,30,3.0,0.0
3854,69.0,0,30,12.0,0.0
3855,67.0,0,30,0.0,0.0
3856,67.0,0,30,3.0,0.0
3857,67.0,0,30,10.0,0.0
3858,67.0,30,30,5.0,0.0
3859,67.0,0,30,12.0,0.0
3860,67.0,0,30,15.0,0.0
3861,65.0,0,30,3.0,0.0
3862,65.0,0,30,5.0,0.0
3863,65.0,0,30,15.0,0.0
3864,65.0,0,30,0.0,0.0
3865,65.0,0,30,10.0,0.0
3866,65.0,30,30,12.0,0.0
3867,67.0,0,30,10.0,0.0
3868,67.0,0,30,12.0,0.0
3869,67.0,0,30,3.0,0.0
3870,67.0,0,30,5.0,0.0
3871,67.0,30,30,15.0,0.0
3872,67.0,0,30,0.0,0.0
3873,69.0,0,30,0.0,0.0
3874,69.0,0,30,12.0,0.0
3875,69.0,0,30,15.0,0.0
3876,69.0,0,30,3.0,0.0
3877,69.0,0,30,10.0,0.0
3878,69.0,0,30,5.0,0.0
3879,65.0,0,30,12.0,0.0
3880,65.0,0,30,15.0,0.0
3881,50.0,0,30,15.0,0.0
3882,65.0,0,30,10.0,0.0
3883,38.0,0,30,6.0,0.0
3884,65.0,0,30,0.0,0.0
3885,50.0,0,30,14.0,0.0
3886,65.0,0,30,3.0,0.0
3887,50.0,30,30,1.0,0.0
3888,65.0,0,30,5.0,0.0
3889,50.0,0,30,10.0,0.0
3890,52.0,0,30,1.0,0.0
3891,67.0,0,30,0.0,0.0
3892,67.0,0,30,5.0,0.0
3893,67.0,0,30,10.0,0.0
3894,52.0,0,30,15.0,0.0
3895,67.0,0,30,15.0,0.0
3896,67.0,60,30,3.0,0.0
3897,52.0,0,30,14.0,0.0
3898,52.0,0,30,10.0,0.0
3899,40.0,0,30,6.0,0.0
3900,67.0,0,30,12.0,0.0
3901,53.0,0,60,10.0,0.0
3902,53.0,0,60,15.0,0.0
3903,69.0,0,60,0.0,0.0
3904,69.0,0,60,10.0,0.0
3905,53.0,0,60,14.0,0.0
3906,69.0,30,60,12.0,0.0
3907,69.0,0,60,15.0,0.0
3908,53.0,0,60,1.0,0.0
3909,69.0,0,60,3.0,0.0
3910,69.0,0,60,5.0,0.0
3911,41.0,0,60,6.0,0.0
3912,70.0,0,30,12.0,0.0
3913,52.0,30,30,10.0,0.0
3914,70.0,0,30,5.0,0.0
3915,70.0,0,30,0.0,0.0
3916,52.0,0,30,15.0,0.0
3917,70.0,0,30,3.0,0.0
3918,70.0,0,30,15.0,0.0
3919,40.0,0,30,6.0,0.0
3920,52.0,0,30,1.0,0.0
3921,70.0,0,30,10.0,0.0
3922,52.0,0,30,14.0,0.0
3923,41.0,0,30,6.0,0.0
3924,53.0,30,30,14.0,0.0
3925,69.0,0,30,12.0,0.0
3926,53.0,0,30,15.0,0.0
3927,69.0,0,30,15.0,0.0
3928,53.0,0,30,1.0,0.0
3929,69.0,0,30,3.0,0.0
3930,69.0,0,30,10.0,0.0
3931,69.0,0,30,5.0,0.0
3932,69.0,0,30,0.0,0.0
3933,53.0,0,30,10.0,0.0
3934,67.0,0,30,10.0,0.0
3935,67.0,0,30,5.0,0.0
3936,55.0,0,60,1.0,0.0
3937,43.0,0,60,6.0,0.0
3938,55.0,0,60,14.0,0.0
3939,67.0,30,30,0.0,0.0
3940,67.0,0,30,15.0,0.0
3941,55.0,0,60,10.0,0.0
3942,67.0,0,30,12.0,0.0
3943,55.0,0,60,15.0,0.0
3944,67.0,0,30,3.0,0.0
3945,65.0,0,30,3.0,0.0
3946,65.0,30,30,5.0,0.0
3947,65.0,0,30,0.0,0.0
3948,65.0,0,30,15.0,0.0
3949,65.0,0,30,12.0,0.0
3950,65.0,0,30,10.0,0.0
3951,64.0,0,30,3.0,0.0
3952,53.0,30,30,15.0,0.0
3953,53.0,0,30,1.0,0.0
3954,64.0,0,30,0.0,0.0
3955,41.0,0,30,6.0,0.0
3956,53.0,0,30,10.0,0.0
3957,64.0,0,30,5.0,0.0
3958,64.0,0,30,12.0,0.0
3959,64.0,0,30,10.0,0.0
3960,53.0,0,30,14.0,0.0
3961,64.0,0,30,15.0,0.0
3962,43.0,0,30,6.0,0.0
3963,55.0,0,30,14.0,0.0
3964,62.0,0,30,12.0,0.0
3965,55.0,0,30,1.0,0.0
3966,62.0,0,30,15.0,0.0
3967,62.0,60,30,5.0,0.0
3968,55.0,0,30,10.0,0.0
3969,62.0,0,30,10.0,0.0
3970,62.0,0,30,3.0,0.0
3971,62.0,0,30,0.0,0.0
3972,55.0,0,30,15.0,0.0
3973,61.0,60,60,5.0,0.0
3974,57.0,0,60,15.0,0.0
3975,61.0,0,60,3.0,0.0
3976,61.0,0,60,10.0,0.0
3977,45.0,0,60,6.0,0.0
3978,61.0,0,60,15.0,0.0
3979,57.0,0,60,1.0,0.0
3980,57.0,0,60,10.0,0.0
3981,57.0,0,60,14.0,0.0
3982,61.0,0,60,0.0,0.0
3983,61.0,0,60,12.0,0.0
3984,55.0,0,60,1.0,0.0
3985,64.0,0,60,10.0,0.0
3986,64.0,0,60,12.0,0.0
3987,64.0,0,60,3.0,0.0
3988,64.0,0,60,5.0,0.0
3989,64.0,0,60,0.0,0.0
3990,55.0,0,60,15.0,0.0
3991,43.0,0,60,6.0,0.0
3992,55.0,0,60,10.0,0.0
3993,55.0,0,60,14.0,0.0
3994,64.0,60,60,15.0,0.0
3995,65.0,0,60,5.0,0.0
3996,53.0,60,60,15.0,0.0
3997,53.0,0,60,14.0,0.0
3998,65.0,0,60,15.0,0.0
3999,69.0,0,60,3.0,0.0
4000,69.0,0,60,12.0,0.0
4001,53.0,0,60,10.0,0.0
4002,41.0,0,60,6.0,0.0
4003,53.0,0,60,1.0,0.0
4004,69.0,0,60,10.0,0.0
4005,69.0,0,60,0.0,0.0
4006,67.0,0,60,0.0,0.0
4007,67.0,0,60,12.0,0.0
4008,52.0,0,60,15.0,0.0
4009,52.0,60,60,14.0,0.0
4010,52.0,0,60,10.0,0.0
4011,40.0,0,60,6.0,0.0
4012,64.0,0,60,5.0,0.0
4013,52.0,0,60,1.0,0.0
4014,67.0,0,60,3.0,0.0
4015,64.0,0,60,15.0,0.0
4016,67.0,0,60,10.0,0.0
4017,38.0,0,60,6.0,0.0
4018,50.0,0,60,10.0,0.0
4019,74.0,0,180,11.0,0.0
4020,50.0,0,60,14.0,0.0
4021,50.0,0,60,15.0,0.0
4022,50.0,0,60,1.0,0.0
4023,74.0,0,180,2.0,0.0
4024,65.0,0,60,10.0,0.0
4025,74.0,0,180,0.0,0.0
4026,65.0,0,60,12.0,0.0
4027,65.0,0,60,0.0,0.0
4028,65.0,30,60,3.0,0.0
4029,70.0,0,60,15.0,0.0
4030,74.0,0,60,15.0,0.0
4031,48.0,0,60,15.0,0.0
4032,64.0,0,60,15.0,0.0
4033,36.0,0,60,6.0,0.0
4034,48.0,0,60,1.0,0.0
4035,64.0,30,30,3.0,0.0
4036,64.0,0,30,10.0,0.0
4037,48.0,0,60,10.0,0.0
4038,64.0,0,30,12.0,0.0
4039,64.0,0,30,0.0,0.0
4040,67.0,30,60,15.0,0.0
4041,48.0,0,60,14.0,0.0
4042,65.0,0,30,12.0,0.0
4043,65.0,0,30,10.0,0.0
4044,65.0,0,30,3.0,0.0
4045,65.0,0,30,0.0,0.0
4046,62.0,0,30,12.0,0.0
4047,47.0,0,60,1.0,0.0
4048,35.0,0,60,6.0,0.0
4049,47.0,0,60,10.0,0.0
4050,66.0,0,60,15.0,0.0
4051,62.0,0,30,3.0,0.0
4052,62.0,30,30,10.0,0.0
4053,47.0,0,60,15.0,0.0
4054,62.0,0,30,0.0,0.0
4055,74.0,0,60,15.0,0.0
4056,47.0,0,60,14.0,0.0
4057,64.0,30,30,0.0,0.0
4058,64.0,0,30,10.0,0.0
4059,64.0,0,30,12.0,0.0
4060,64.0,0,30,3.0,0.0
4061,66.0,0,30,0.0,0.0
4062,40.0,0,60,6.0,0.0
4063,74.0,0,60,0.0,0.0
4064,66.0,30,30,3.0,0.0
4065,66.0,0,30,12.0,0.0
4066,52.0,0,60,15.0,0.0
4067,68.0,0,60,15.0,0.0
4068,71.0,0,60,15.0,0.0
4069,74.0,0,60,15.0,0.0
4070,74.0,0,60,11.0,0.0
4071,52.0,0,60,14.0,0.0
4072,52.0,0,60,10.0,0.0
4073,74.0,0,60,2.0,0.0
4074,66.0,0,30,10.0,0.0
4075,52.0,0,60,1.0,0.0
4076,68.0,0,30,12.0,0.0
4077,68.0,0,30,0.0,0.0
4078,68.0,0,30,3.0,0.0
4079,68.0,60,30,10.0,0.0
4080,45.0,0,60,10.0,0.0
4081,69.0,0,120,12.0,0.0
4082,69.0,30,120,0.0,0.0
4083,69.0,0,120,15.0,0.0
4084,69.0,0,120,10.0,0.0
4085,72.0,0,120,0.0,0.0
4086,69.0,0,120,3.0,0.0
4087,72.0,0,120,11.0,0.0
4088,45.0,0,60,1.0,0.0
4089,45.0,0,60,15.0,0.0
4090,72.0,0,120,15.0,0.0
4091,64.0,0,120,15.0,0.0
4092,45.0,0,60,14.0,0.0
4093,33.0,30,60,6.0,0.0
4094,72.0,0,120,2.0,0.0
4095,53.0,0,30,15.0,0.0
4096,53.0,30,30,1.0,0.0
4097,41.0,0,30,6.0,0.0
4098,53.0,0,30,10.0,0.0
4099,53.0,0,30,14.0,0.0
4100,52.0,0,30,1.0,0.0
4101,52.0,0,30,14.0,0.0
4102,40.0,0,30,6.0,0.0
4103,52.0,0,30,10.0,0.0
4104,52.0,0,30,15.0,0.0
4105,50.0,0,30,10.0,0.0
4106,77.0,0,120,2.0,0.0
4107,77.0,60,120,0.0,0.0
4108,77.0,0,120,11.0,0.0
4109,50.0,0,30,14.0,0.0
4110,74.0,0,120,15.0,0.0
4111,77.0,0,120,15.0,0.0
4112,50.0,30,30,15.0,0.0
4113,50.0,0,30,1.0,0.0
4114,38.0,0,30,6.0,0.0
4115,69.0,0,120,15.0,0.0
4116,47.0,0,30,14.0,0.0
4117,35.0,0,30,6.0,0.0
4118,47.0,0,30,10.0,0.0
4119,47.0,0,30,15.0,0.0
4120,47.0,30,30,1.0,0.0
4121,48.0,30,30,14.0,0.0
4122,36.0,0,30,6.0,0.0
4123,48.0,0,30,10.0,0.0
4124,48.0,0,30,15.0,0.0
4125,48.0,0,30,1.0,0.0
4126,38.0,0,30,6.0,0.0
4127,50.0,0,30,15.0,0.0
4128,50.0,0,30,1.0,0.0
4129,50.0,0,30,14.0,0.0
4130,50.0,0,30,10.0,0.0
4131,68.0,0,120,15.0,0.0
4132,52.0,0,120,10.0,0.0
4133,40.0,0,120,6.0,0.0
4134,52.0,0,120,14.0,0.0
4135,52.0,60,120,15.0,0.0
4136,68.0,0,180,0.0,0.0
4137,68.0,0,180,11.0,0.0
4138,68.0,60,180,2.0,0.0
4139,52.0,60,60,1.0,0.0
4140,71.0,0,120,15.0,0.0
4141,59.0,0,60,1.0,0.0
4142,59.0,0,60,10.0,0.0
4143,59.0,0,60,13.0,0.0
4144,59.0,0,60,4.0,0.0
4145,59.0,0,60,13.0,0.0
4146,59.0,0,60,4.0,0.0
4147,59.0,0,60,1.0,0.0
4148,59.0,0,60,10.0,0.0
4149,71.0,0,60,15.0,0.0
4150,59.0,0,60,4.0,0.0
4151,59.0,0,60,1.0,0.0
4152,52.0,0,60,10.0,0.0
4153,40.0,0,60,6.0,0.0
4154,59.0,30,60,10.0,0.0
4155,68.0,0,60,11.0,0.0
4156,68.0,0,60,0.0,0.0
4157,52.0,0,60,15.0,0.0
4158,68.0,0,60,15.0,0.0
4159,59.0,0,60,13.0,0.0
4160,68.0,0,60,2.0,0.0
4161,52.0,0,60,14.0,0.0
4162,60.0,30,30,4.0,0.0
4163,60.0,0,30,13.0,0.0
4164,57.0,0,60,14.0,0.0
4165,45.0,0,60,6.0,0.0
4166,69.0,0,120,0.0,0.0
4167,60.0,0,30,10.0,0.0
4168,69.0,0,120,2.0,0.0
4169,57.0,0,60,15.0,0.0
4170,60.0,0,120,15.0,0.0
4171,64.0,0,120,15.0,0.0
4172,57.0,0,60,10.0,0.0
4173,69.0,0,120,11.0,0.0
4174,60.0,0,30,1.0,0.0
4175,62.0,0,30,4.0,0.0
4176,62.0,0,30,13.0,0.0
4177,62.0,0,30,1.0,0.0
4178,62.0,30,30,10.0,0.0
4179,45.0,0,60,15.0,0.0
4180,60.0,30,30,1.0,0.0
4181,60.0,0,30,10.0,0.0
4182,45.0,0,60,14.0,0.0
4183,60.0,0,30,4.0,0.0
4184,60.0,0,30,13.0,0.0
4185,33.0,30,60,6.0,0.0
4186,45.0,0,60,10.0,0.0
4187,59.0,0,30,10.0,0.0
4188,59.0,0,30,4.0,0.0
4189,59.0,0,30,1.0,0.0
4190,59.0,0,30,13.0,0.0
4191,60.0,0,30,4.0,0.0
4192,45.0,0,240,6.0,0.0
4193,57.0,0,240,10.0,0.0
4194,60.0,30,30,13.0,0.0
4195,60.0,0,120,15.0,0.0
4196,57.0,0,240,1.0,0.0
4197,64.0,0,120,15.0,0.0
4198,60.0,0,30,10.0,0.0
4199,57.0,0,240,15.0,0.0
4200,57.0,0,240,14.0,0.0
4201,60.0,0,30,1.0,0.0
4202,62.0,0,30,10.0,0.0
4203,62.0,0,30,4.0,0.0
4204,62.0,0,30,1.0,0.0
4205,62.0,30,30,13.0,0.0
4206,59.0,0,30,13.0,0.0
4207,69.0,30,60,11.0,0.0
4208,69.0,0,60,2.0,0.0
4209,59.0,0,30,10.0,0.0
4210,59.0,30,30,4.0,0.0
4211,69.0,0,60,0.0,0.0
4212,59.0,0,30,1.0,0.0
4213,60.0,0,30,10.0,0.0
4214,60.0,0,30,4.0,0.0
4215,60.0,0,30,1.0,0.0
4216,60.0,0,30,13.0,0.0
4217,71.0,0,180,11.0,0.0
4218,62.0,0,30,1.0,0.0
4219,62.0,0,120,15.0,0.0
4220,71.0,0,120,15.0,0.0
4221,62.0,0,30,13.0,0.0
4222,65.0,30,120,15.0,0.0
4223,71.0,0,180,0.0,0.0
4224,71.0,0,180,2.0,0.0
4225,62.0,0,30,4.0,0.0
4226,62.0,30,30,10.0,0.0
4227,64.0,0,30,1.0,0.0
4228,64.0,30,30,10.0,0.0
4229,64.0,0,30,13.0,0.0
4230,64.0,0,30,4.0,0.0
4231,62.0,30,30,13.0,0.0
4232,62.0,0,30,1.0,0.0
4233,62.0,0,30,4.0,0.0
4234,62.0,0,30,10.0,0.0
4235,60.0,0,30,4.0,0.0
4236,60.0,0,30,1.0,0.0
4237,60.0,0,30,13.0,0.0
4238,60.0,0,30,10.0,0.0
4239,43.0,0,30,6.0,0.0
4240,55.0,0,30,10.0,0.0
4241,55.0,0,30,14.0,0.0
4242,55.0,0,30,1.0,0.0
4243,62.0,30,30,1.0,0.0
4244,62.0,0,30,10.0,0.0
4245,65.0,0,120,15.0,0.0
4246,62.0,0,120,15.0,0.0
4247,71.0,0,120,15.0,0.0
4248,55.0,0,30,15.0,0.0
4249,62.0,0,30,13.0,0.0
4250,62.0,0,30,4.0,0.0
4251,53.0,0,30,10.0,0.0
4252,64.0,0,30,10.0,0.0
4253,53.0,0,30,14.0,0.0
4254,64.0,30,30,4.0,0.0
4255,53.0,0,30,15.0,0.0
4256,41.0,0,30,6.0,0.0
4257,64.0,0,30,1.0,0.0
4258,53.0,0,30,1.0,0.0
4259,64.0,0,30,13.0,0.0
4260,60.0,0,30,10.0,0.0
4261,52.0,0,30,10.0,0.0
4262,69.0,0,30,0.0,0.0
4263,60.0,0,30,13.0,0.0
4264,40.0,0,30,6.0,0.0
4265,69.0,0,30,11.0,0.0
4266,60.0,0,30,1.0,0.0
4267,52.0,0,30,1.0,0.0
4268,52.0,0,30,15.0,0.0
4269,69.0,30,30,2.0,0.0
4270,60.0,0,30,4.0,0.0
4271,52.0,0,30,14.0,0.0
4272,71.0,0,30,2.0,0.0
4273,50.0,0,30,10.0,0.0
4274,50.0,0,30,15.0,0.0
4275,71.0,0,30,11.0,0.0
4276,62.0,0,30,4.0,0.0
4277,62.0,0,30,10.0,0.0
4278,71.0,0,30,0.0,0.0
4279,62.0,60,30,13.0,0.0
4280,62.0,0,30,1.0,0.0
4281,50.0,0,30,14.0,0.0
4282,50.0,0,30,1.0,0.0
4283,38.0,0,30,6.0,0.0
4284,72.0,0,60,11.0,0.0
4285,48.0,0,120,14.0,0.0
4286,72.0,30,60,2.0,0.0
4287,48.0,0,120,15.0,0.0
4288,64.0,0,120,15.0,0.0
4289,67.0,0,120,15.0,0.0
4290,64.0,0,60,4.0,0.0
4291,64.0,0,60,10.0,0.0
4292,48.0,0,120,10.0,0.0
4293,72.0,0,60,0.0,0.0
4294,64.0,0,60,13.0,0.0
4295,64.0,0,60,1.0,0.0
4296,36.0,0,120,6.0,0.0
4297,48.0,30,120,1.0,0.0
4298,71.0,0,30,2.0,0.0
4299,65.0,0,30,1.0,0.0
4300,71.0,30,30,0.0,0.0
4301,65.0,0,30,4.0,0.0
4302,71.0,0,30,11.0,0.0
4303,65.0,0,30,13.0,0.0
4304,65.0,0,30,10.0,0.0
4305,72.0,0,30,2.0,0.0
4306,64.0,0,30,4.0,0.0
4307,72.0,0,30,0.0,0.0
4308,64.0,0,30,1.0,0.0
4309,64.0,0,30,10.0,0.0
4310,64.0,0,30,13.0,0.0
4311,72.0,0,30,11.0,0.0
4312,47.0,0,60,10.0,0.0
4313,62.0,0,30,13.0,0.0
4314,62.0,0,30,10.0,0.0
4315,47.0,0,60,1.0,0.0
4316,74.0,0,60,2.0,0.0
4317,74.0,0,60,0.0,0.0
4318,62.0,30,30,4.0,0.0
4319,74.0,0,60,11.0,0.0
4320,62.0,0,30,1.0,0.0
4321,35.0,0,60,6.0,0.0
4322,47.0,0,60,15.0,0.0
4323,62.0,0,120,15.0,0.0
4324,65.0,0,120,15.0,0.0
4325,69.0,60,120,15.0,0.0
4326,47.0,0,60,14.0,0.0
4327,60.0,0,30,4.0,0.0
4328,60.0,0,30,1.0,0.0
4329,60.0,30,30,10.0,0.0
4330,60.0,0,30,13.0,0.0
4331,59.0,0,30,1.0,0.0
4332,53.0,0,60,1.0,0.0
4333,53.0,0,60,14.0,0.0
4334,59.0,0,30,10.0,0.0
4335,41.0,0,60,6.0,0.0
4336,72.0,0,30,2.0,0.0
4337,72.0,0,30,11.0,0.0
4338,53.0,0,60,10.0,0.0
4339,59.0,0,30,13.0,0.0
4340,53.0,0,60,15.0,0.0
4341,59.0,0,30,4.0,0.0
4342,72.0,30,30,0.0,0.0
4343,74.0,0,30,0.0,0.0
4344,74.0,0,30,2.0,0.0
4345,57.0,0,30,4.0,0.0
4346,57.0,0,30,10.0,0.0
4347,74.0,0,30,11.0,0.0
4348,57.0,0,30,13.0,0.0
4349,57.0,0,30,1.0,0.0
4350,68.0,30,60,15.0,0.0
4351,52.0,0,90,15.0,0.0
4352,76.0,0,60,15.0,0.0
4353,52.0,0,90,1.0,0.0
4354,71.0,0,60,15.0,0.0
4355,40.0,0,90,6.0,0.0
4356,76.0,0,60,11.0,0.0
4357,56.0,0,60,1.0,0.0
4358,76.0,0,60,2.0,0.0
4359,56.0,0,60,4.0,0.0
4360,52.0,0,90,10.0,0.0
4361,76.0,0,60,0.0,0.0
4362,52.0,30,90,14.0,0.0
4363,56.0,0,60,13.0,0.0
4364,56.0,0,60,10.0,0.0
4365,59.0,0,60,10.0,0.0
4366,74.0,0,60,11.0,0.0
4367,74.0,0,60,2.0,0.0
4368,74.0,0,60,15.0,0.0
4369,71.0,0,60,15.0,0.0
4370,68.0,30,60,15.0,0.0
4371,74.0,0,60,0.0,0.0
4372,59.0,0,60,1.0,0.0
4373,59.0,0,60,4.0,0.0
4374,59.0,0,60,13.0,0.0
4375,54.0,0,30,15.0,0.0
4376,42.0,0,30,6.0,0.0
4377,54.0,0,30,14.0,0.0
4378,54.0,0,30,10.0,0.0
4379,54.0,0,30,1.0,0.0
4380,44.0,30,30,6.0,0.0
4381,56.0,0,30,15.0,0.0
4382,72.0,0,60,11.0,0.0
4383,64.0,0,60,15.0,0.0
4384,64.0,0,60,4.0,0.0
4385,56.0,0,30,1.0,0.0
4386,64.0,30,60,13.0,0.0
4387,64.0,0,60,10.0,0.0
4388,72.0,0,60,0.0,0.0
4389,56.0,0,30,10.0,0.0
4390,56.0,0,30,14.0,0.0
4391,72.0,0,60,2.0,0.0
4392,72.0,0,60,15.0,0.0
4393,64.0,0,60,1.0,0.0
4394,57.0,0,30,1.0,0.0
4395,57.0,0,30,15.0,0.0
4396,57.0,0,30,14.0,0.0
4397,57.0,0,30,10.0,0.0
4398,45.0,0,30,6.0,0.0
4399,54.0,0,30,10.0,0.0
4400,54.0,0,30,15.0,0.0
4401,62.0,0,60,15.0,0.0
4402,54.0,0,30,14.0,0.0
4403,71.0,0,60,15.0,0.0
4404,42.0,30,30,6.0,0.0
4405,71.0,0,60,11.0,0.0
4406,62.0,0,60,10.0,0.0
4407,71.0,0,60,0.0,0.0
4408,62.0,0,60,13.0,0.0
4409,62.0,60,60,4.0,0.0
4410,62.0,0,60,1.0,0.0
4411,54.0,0,30,1.0,0.0
4412,71.0,0,60,2.0,0.0
4413,56.0,0,30,10.0,0.0
4414,44.0,0,30,6.0,0.0
4415,56.0,0,30,15.0,0.0
4416,56.0,0,30,14.0,0.0
4417,56.0,0,30,1.0,0.0
4418,69.0,0,60,2.0,0.0
4419,69.0,0,60,15.0,0.0
4420,57.0,0,120,7.0,0.0
4421,64.0,0,60,15.0,0.0
4422,60.0,30,60,15.0,0.0
4423,69.0,0,120,7.0,0.0
4424,57.0,0,60,15.0,0.0
4425,57.0,0,60,10.0,0.0
4426,69.0,0,180,0.0,0.0
4427,69.0,0,60,11.0,0.0
4428,57.0,0,60,14.0,0.0
4429,69.0,0,180,10.0,0.0
4430,60.0,0,60,1.0,0.0
4431,45.0,0,60,6.0,0.0
4432,60.0,0,60,13.0,0.0
4433,69.0,0,180,3.0,0.0
4434,45.0,0,60,8.0,0.0
4435,60.0,0,60,10.0,0.0
4436,69.0,0,180,12.0,0.0
4437,60.0,0,60,4.0,0.0
4438,57.0,0,60,1.0,0.0
4439,61.0,0,60,15.0,0.0
4440,79.0,0,60,11.0,0.0
4441,64.0,0,60,15.0,0.0
4442,69.0,0,60,15.0,0.0
4443,45.0,60,60,1.0,0.0
4444,61.0,0,60,1.0,0.0
4445,33.0,0,60,6.0,0.0
4446,61.0,0,60,13.0,0.0
4447,45.0,30,30,8.0,0.0
4448,45.0,0,60,14.0,0.0
4449,61.0,0,60,10.0,0.0
4450,45.0,0,60,15.0,0.0
4451,79.0,0,60,0.0,0.0
4452,61.0,0,60,4.0,0.0
4453,79.0,0,60,2.0,0.0
4454,45.0,0,60,10.0,0.0
4455,45.0,0,30,8.0,0.0
4456,47.0,0,60,15.0,0.0
4457,62.0,0,60,10.0,0.0
4458,77.0,0,60,15.0,0.0
4459,69.0,0,60,15.0,0.0
4460,57.0,0,60,7.0,0.0
4461,69.0,0,60,7.0,0.0
4462,62.0,0,60,15.0,0.0
4463,62.0,0,60,1.0,0.0
4464,77.0,60,60,2.0,0.0
4465,47.0,0,60,14.0,0.0
4466,77.0,0,60,11.0,0.0
4467,62.0,0,60,4.0,0.0
4468,45.0,0,60,8.0,0.0
4469,77.0,0,60,0.0,0.0
4470,47.0,0,60,10.0,0.0
4471,47.0,0,60,1.0,0.0
4472,62.0,0,60,13.0,0.0
4473,35.0,0,60,6.0,0.0
4474,76.0,0,60,2.0,0.0
4475,69.0,0,60,3.0,0.0
4476,76.0,0,60,11.0,0.0
4477,64.0,0,60,4.0,0.0
4478,49.0,60,60,14.0,0.0
4479,49.0,0,60,10.0,0.0
4480,69.0,0,60,12.0,0.0
4481,49.0,0,60,1.0,0.0
4482,64.0,0,60,1.0,0.0
4483,37.0,0,60,6.0,0.0
4484,69.0,0,60,10.0,0.0
4485,69.0,0,60,15.0,0.0
4486,67.0,0,60,15.0,0.0
4487,49.0,0,60,15.0,0.0
4488,57.0,0,60,7.0,0.0
4489,45.0,0,60,8.0,0.0
4490,76.0,0,60,15.0,0.0
4491,69.0,0,60,7.0,0.0
4492,76.0,0,60,0.0,0.0
4493,69.0,0,60,0.0,0.0
4494,64.0,0,60,10.0,0.0
4495,64.0,0,60,13.0,0.0
4496,62.0,0,120,7.0,0.0
4497,50.0,0,60,15.0,0.0
4498,57.0,60,60,4.0,0.0
4499,74.0,0,120,2.0,0.0
4500,65.0,0,120,3.0,0.0
4501,50.0,0,120,14.0,0.0
4502,65.0,0,120,12.0,0.0
4503,57.0,0,60,1.0,0.0
4504,50.0,0,120,8.0,0.0
4505,65.0,0,120,10.0,0.0
4506,69.0,0,120,7.0,0.0
4507,65.0,0,120,15.0,0.0
4508,69.0,0,120,15.0,0.0
4509,57.0,0,60,13.0,0.0
4510,74.0,60,120,11.0,0.0
4511,57.0,0,60,10.0,0.0
4512,74.0,0,120,0.0,0.0
4513,65.0,0,120,0.0,0.0
4514,38.0,0,60,6.0,0.0
4515,50.0,0,60,15.0,0.0
4516,50.0,0,60,13.0,0.0
4517,38.0,0,60,6.0,0.0
4518,50.0,0,60,1.0,0.0
4519,50.0,0,60,10.0,0.0
4520,50.0,0,60,4.0,0.0
4521,55.0,0,60,13.0,0.0
4522,55.0,0,60,15.0,0.0
4523,55.0,0,60,10.0,0.0
4524,58.0,0,120,15.0,0.0
4525,55.0,0,60,1.0,0.0
4526,70.0,0,120,10.0,0.0
4527,70.0,0,120,0.0,0.0
4528,43.0,0,60,6.0,0.0
4529,70.0,0,120,12.0,0.0
4530,70.0,0,120,3.0,0.0
4531,62.0,60,60,15.0,0.0
4532,55.0,0,60,4.0,0.0
4533,67.0,0,60,15.0,0.0
4534,62.0,0,60,0.0,0.0
4535,62.0,0,60,2.0,0.0
4536,53.0,0,60,15.0,0.0
4537,41.0,0,60,6.0,0.0
4538,53.0,0,60,13.0,0.0
4539,53.0,0,60,1.0,0.0
4540,53.0,0,60,4.0,0.0
4541,53.0,0,60,10.0,0.0
4542,62.0,60,60,11.0,0.0
4543,52.0,0,60,10.0,0.0
4544,61.0,0,180,10.0,0.0
4545,52.0,0,60,1.0,0.0
4546,58.0,0,240,15.0,0.0
4547,67.0,0,240,15.0,0.0
4548,61.0,0,240,15.0,0.0
4549,52.0,0,60,4.0,0.0
4550,52.0,0,60,15.0,0.0
4551,67.0,0,180,11.0,0.0
4552,61.0,0,180,3.0,0.0
4553,61.0,0,180,0.0,0.0
4554,67.0,0,180,2.0,0.0
4555,67.0,0,180,0.0,0.0
4556,40.0,60,60,6.0,0.0
4557,52.0,0,60,13.0,0.0
4558,61.0,0,180,12.0,0.0
4559,55.0,60,60,4.0,0.0
4560,53.0,0,60,13.0,0.0
4561,52.0,0,60,14.0,0.0
4562,52.0,0,60,1.0,0.0
4563,55.0,0,60,1.0,0.0
4564,52.0,0,60,15.0,0.0
4565,40.0,0,60,6.0,0.0
4566,52.0,0,60,10.0,0.0
4567,53.0,0,60,10.0,0.0
4568,52.0,0,60,15.0,0.0
4569,40.0,0,60,6.0,0.0
4570,58.0,0,120,1.0,0.0
4571,52.0,0,60,14.0,0.0
4572,58.0,0,120,13.0,0.0
4573,58.0,0,120,10.0,0.0
4574,52.0,0,60,1.0,0.0
4575,58.0,0,120,4.0,0.0
4576,52.0,30,60,10.0,0.0
4577,65.0,30,30,11.0,0.0
4578,40.0,0,60,6.0,0.0
4579,65.0,0,30,0.0,0.0
4580,52.0,0,60,1.0,0.0
4581,52.0,0,60,15.0,0.0
4582,61.0,0,60,0.0,0.0
4583,61.0,0,60,12.0,0.0
4584,61.0,0,60,10.0,0.0
4585,65.0,0,30,2.0,0.0
4586,61.0,30,60,3.0,0.0
4587,52.0,0,60,14.0,0.0
4588,52.0,0,60,10.0,0.0
4589,64.0,0,30,0.0,0.0
4590,64.0,0,30,2.0,0.0
4591,64.0,0,30,11.0,0.0
4592,62.0,0,120,3.0,0.0
4593,53.0,0,30,14.0,0.0
4594,69.0,0,60,0.0,0.0
4595,62.0,0,120,12.0,0.0
4596,69.0,0,60,2.0,0.0
4597,41.0,0,30,6.0,0.0
4598,69.0,30,240,15.0,0.0
4599,62.0,0,240,15.0,0.0
4600,53.0,30,30,10.0,0.0
4601,69.0,0,60,11.0,0.0
4602,53.0,0,30,1.0,0.0
4603,57.0,0,120,1.0,0.0
4604,57.0,0,120,13.0,0.0
4605,57.0,0,120,10.0,0.0
4606,62.0,0,120,10.0,0.0
4607,53.0,0,30,15.0,0.0
4608,57.0,0,120,4.0,0.0
4609,55.0,0,30,10.0,0.0
4610,43.0,0,30,6.0,0.0
4611,55.0,0,30,1.0,0.0
4612,55.0,30,30,15.0,0.0
4613,55.0,0,30,14.0,0.0
4614,41.0,0,30,6.0,0.0
4615,53.0,0,30,1.0,0.0
4616,62.0,0,60,0.0,0.0
4617,53.0,0,30,10.0,0.0
4618,53.0,30,30,14.0,0.0
4619,62.0,0,60,2.0,0.0
4620,62.0,0,60,11.0,0.0
4621,53.0,0,30,15.0,0.0
4622,52.0,0,30,10.0,0.0
4623,52.0,0,30,1.0,0.0
4624,52.0,0,30,14.0,0.0
4625,40.0,30,30,6.0,0.0
4626,52.0,0,30,15.0,0.0
4627,53.0,0,30,1.0,0.0
4628,53.0,0,30,10.0,0.0
4629,74.0,0,240,2.0,0.0
4630,53.0,30,30,14.0,0.0
4631,53.0,0,30,15.0,0.0
4632,41.0,0,30,6.0,0.0
4633,74.0,0,240,0.0,0.0
4634,74.0,0,240,11.0,0.0
4635,55.0,0,30,1.0,0.0
4636,55.0,30,30,14.0,0.0
4637,55.0,0,30,10.0,0.0
4638,55.0,0,30,15.0,0.0
4639,43.0,0,30,6.0,0.0
4640,62.0,0,60,0.0,0.0
4641,52.0,0,30,15.0,0.0
4642,62.0,0,60,10.0,0.0
4643,52.0,0,30,14.0,0.0
4644,62.0,0,60,12.0,0.0
4645,52.0,30,30,1.0,0.0
4646,40.0,0,30,6.0,0.0
4647,52.0,0,30,10.0,0.0
4648,62.0,0,60,3.0,0.0
4649,53.0,0,30,1.0,0.0
4650,53.0,0,30,10.0,0.0
4651,53.0,0,30,14.0,0.0
4652,41.0,0,30,6.0,0.0
4653,53.0,0,30,15.0,0.0
4654,64.0,0,180,12.0,0.0
4655,55.0,0,30,10.0,0.0
4656,55.0,0,30,1.0,0.0
4657,55.0,0,30,15.0,0.0
4658,43.0,30,30,6.0,0.0
4659,64.0,30,180,3.0,0.0
4660,74.0,0,240,15.0,0.0
4661,64.0,0,180,10.0,0.0
4662,70.0,0,240,15.0,0.0
4663,64.0,0,180,0.0,0.0
4664,55.0,0,30,14.0,0.0
4665,65.0,0,240,15.0,0.0
4666,45.0,0,30,6.0,0.0
4667,57.0,0,30,1.0,0.0
4668,57.0,0,30,15.0,0.0
4669,57.0,30,30,14.0,0.0
4670,57.0,0,30,10.0,0.0
4671,55.0,30,30,10.0,0.0
4672,55.0,0,30,15.0,0.0
4673,43.0,0,30,6.0,0.0
4674,55.0,0,30,1.0,0.0
4675,55.0,0,30,14.0,0.0
4676,53.0,0,30,1.0,0.0
4677,53.0,30,30,15.0,0.0
4678,41.0,0,30,6.0,0.0
4679,53.0,0,30,10.0,0.0
4680,53.0,0,30,14.0,0.0
4681,43.0,0,30,6.0,0.0
4682,55.0,0,30,14.0,0.0
4683,74.0,0,120,11.0,0.0
4684,74.0,0,120,2.0,0.0
4685,55.0,0,30,15.0,0.0
4686,55.0,0,30,1.0,0.0
4687,74.0,0,120,0.0,0.0
4688,55.0,30,30,10.0,0.0
4689,57.0,0,30,15.0,0.0
4690,57.0,0,30,1.0,0.0
4691,45.0,0,30,6.0,0.0
4692,57.0,0,30,14.0,0.0
4693,57.0,0,30,10.0,0.0
4694,53.0,0,30,15.0,0.0
4695,62.0,0,30,10.0,0.0
4696,41.0,30,30,6.0,0.0
4697,53.0,0,30,1.0,0.0
4698,62.0,0,30,12.0,0.0
4699,53.0,0,30,14.0,0.0
4700,62.0,0,30,3.0,0.0
4701,62.0,0,30,0.0,0.0
4702,53.0,0,30,10.0,0.0
4703,64.0,0,30,3.0,0.0
4704,55.0,60,30,15.0,0.0
4705,43.0,0,30,6.0,0.0
4706,55.0,0,30,1.0,0.0
4707,64.0,0,30,0.0,0.0
4708,55.0,0,30,10.0,0.0
4709,55.0,0,30,14.0,0.0
4710,64.0,0,30,10.0,0.0
4711,64.0,0,30,12.0,0.0
4712,74.0,0,60,2.0,0.0
4713,65.0,0,60,12.0,0.0
4714,57.0,30,60,10.0,0.0
4715,57.0,0,60,1.0,0.0
4716,65.0,0,60,10.0,0.0
4717,69.0,0,60,15.0,0.0
4718,65.0,0,60,15.0,0.0
4719,74.0,0,60,0.0,0.0
4720,65.0,0,60,0.0,0.0
4721,65.0,0,60,3.0,0.0
4722,74.0,0,60,15.0,0.0
4723,57.0,0,60,14.0,0.0
4724,57.0,0,60,15.0,0.0
4725,74.0,0,60,11.0,0.0
4726,45.0,0,60,6.0,0.0
4727,58.0,0,30,15.0,0.0
4728,73.0,0,60,15.0,0.0
4729,65.0,0,60,15.0,0.0
4730,69.0,0,60,15.0,0.0
4731,73.0,0,30,0.0,0.0
4732,64.0,0,30,0.0,0.0
4733,64.0,0,30,3.0,0.0
4734,73.0,0,30,2.0,0.0
4735,58.0,0,30,1.0,0.0
4736,58.0,0,30,14.0,0.0
4737,73.0,0,30,11.0,0.0
4738,64.0,0,30,10.0,0.0
4739,46.0,0,30,6.0,0.0
4740,64.0,0,30,12.0,0.0
4741,58.0,30,30,10.0,0.0
4742,45.0,0,30,6.0,0.0
4743,57.0,0,30,15.0,0.0
4744,65.0,0,30,10.0,0.0
4745,74.0,0,30,0.0,0.0
4746,65.0,0,30,3.0,0.0
4747,57.0,0,30,10.0,0.0
4748,57.0,0,30,14.0,0.0
4749,74.0,0,30,11.0,0.0
4750,65.0,0,30,0.0,0.0
4751,65.0,30,30,12.0,0.0
4752,57.0,0,30,1.0,0.0
4753,74.0,0,30,2.0,0.0
4754,67.0,0,60,0.0,0.0
4755,67.0,0,120,15.0,0.0
4756,55.0,0,30,15.0,0.0
4757,70.0,0,120,15.0,0.0
4758,76.0,0,120,15.0,0.0
4759,55.0,0,30,10.0,0.0
4760,67.0,0,60,12.0,0.0
4761,55.0,0,30,14.0,0.0
4762,67.0,0,60,10.0,0.0
4763,76.0,0,240,2.0,0.0
4764,76.0,0,240,11.0,0.0
4765,67.0,30,60,3.0,0.0
4766,77.0,0,240,0.0,0.0
4767,43.0,0,30,6.0,0.0
4768,55.0,30,30,1.0,0.0
4769,53.0,0,30,10.0,0.0
4770,53.0,0,30,14.0,0.0
4771,53.0,0,30,15.0,0.0
4772,53.0,0,30,1.0,0.0
4773,41.0,0,30,6.0,0.0
4774,65.0,15,30,0.0,0.0
4775,65.0,0,30,12.0,0.0
4776,52.0,0,30,10.0,0.0
4777,52.0,0,30,14.0,0.0
4778,65.0,0,30,3.0,0.0
4779,52.0,0,30,1.0,0.0
4780,65.0,0,30,10.0,0.0
4781,52.0,0,30,15.0,0.0
4782,40.0,0,30,6.0,0.0
4783,67.0,0,30,10.0,0.0
4784,67.0,15,30,12.0,0.0
4785,50.0,60,30,10.0,0.0
4786,50.0,0,30,15.0,0.0
4787,67.0,0,30,3.0,0.0
4788,50.0,0,30,1.0,0.0
4789,50.0,0,30,14.0,0.0
4790,67.0,0,30,0.0,0.0
4791,38.0,0,30,6.0,0.0
4792,76.0,0,120,15.0,0.0
4793,69.0,0,60,12.0,0.0
4794,37.0,0,60,6.0,0.0
4795,67.0,0,120,15.0,0.0
4796,49.0,0,60,15.0,0.0
4797,69.0,0,120,15.0,0.0
4798,49.0,60,60,10.0,0.0
4799,49.0,0,60,1.0,0.0
4800,69.0,0,60,10.0,0.0
4801,69.0,0,60,3.0,0.0
4802,49.0,0,60,14.0,0.0
4803,69.0,0,60,0.0,0.0
4804,52.0,0,60,15.0,0.0
4805,40.0,0,60,6.0,0.0
4806,69.0,60,60,7.0,0.0
4807,57.0,0,60,7.0,0.0
4808,67.0,0,60,10.0,0.0
4809,67.0,0,60,12.0,0.0
4810,67.0,0,60,3.0,0.0
4811,45.0,0,60,8.0,0.0
4812,52.0,0,60,1.0,0.0
4813,52.0,0,60,10.0,0.0
4814,67.0,0,60,0.0,0.0
4815,52.0,0,60,14.0,0.0
4816,65.0,0,60,3.0,0.0
4817,65.0,0,60,15.0,0.0
4818,57.0,0,60,14.0,0.0
4819,45.0,0,60,8.0,0.0
4820,74.0,0,60,11.0,0.0
4821,65.0,0,60,12.0,0.0
4822,65.0,0,60,0.0,0.0
4823,74.0,0,60,2.0,0.0
4824,57.0,60,60,1.0,0.0
4825,57.0,0,60,10.0,0.0
4826,45.0,0,60,6.0,0.0
4827,65.0,0,60,10.0,0.0
4828,57.0,0,60,15.0,0.0
4829,74.0,0,60,15.0,0.0
4830,57.0,0,60,7.0,0.0
4831,74.0,0,60,0.0,0.0
4832,69.0,0,60,7.0,0.0
4833,73.0,0,60,11.0,0.0
4834,73.0,0,60,0.0,0.0
4835,73.0,0,60,2.0,0.0
4836,43.0,0,60,6.0,0.0
4837,55.0,0,60,14.0,0.0
4838,73.0,0,60,15.0,0.0
4839,64.0,0,60,3.0,0.0
4840,69.0,0,60,7.0,0.0
4841,69.0,0,60,15.0,0.0
4842,55.0,0,60,15.0,0.0
4843,57.0,0,60,7.0,0.0
4844,55.0,0,60,10.0,0.0
4845,64.0,30,60,0.0,0.0
4846,64.0,0,60,10.0,0.0
4847,64.0,0,60,12.0,0.0
4848,55.0,0,60,1.0,0.0
4849,45.0,0,60,8.0,0.0
4850,74.0,0,120,2.0,0.0
4851,74.0,0,120,15.0,0.0
4852,69.0,0,120,15.0,0.0
4853,53.0,0,30,15.0,0.0
4854,53.0,0,30,14.0,0.0
4855,53.0,0,30,1.0,0.0
4856,62.0,0,180,1.0,0.0
4857,62.0,0,90,10.0,0.0
4858,62.0,0,120,7.0,0.0
4859,69.0,0,120,7.0,0.0
4860,62.0,0,180,4.0,0.0
4861,62.0,0,90,12.0,0.0
4862,74.0,0,120,11.0,0.0
4863,62.0,0,90,3.0,0.0
4864,74.0,60,120,0.0,0.0
4865,62.0,0,90,0.0,0.0
4866,62.0,0,180,13.0,0.0
4867,53.0,0,30,10.0,0.0
4868,50.0,0,120,8.0,0.0
4869,41.0,30,30,6.0,0.0
4870,52.0,30,30,15.0,0.0
4871,40.0,0,30,6.0,0.0
4872,52.0,0,30,14.0,0.0
4873,52.0,0,30,10.0,0.0
4874,52.0,0,30,1.0,0.0
4875,50.0,0,30,10.0,0.0
4876,50.0,0,30,1.0,0.0
4877,50.0,30,30,15.0,0.0
4878,50.0,0,30,14.0,0.0
4879,38.0,0,30,6.0,0.0
4880,36.0,0,30,6.0,0.0
4881,48.0,0,30,14.0,0.0
4882,48.0,0,30,15.0,0.0
4883,64.0,0,30,12.0,0.0
4884,64.0,0,30,0.0,0.0
4885,64.0,0,30,10.0,0.0
4886,48.0,0,30,10.0,0.0
4887,64.0,0,30,3.0,0.0
4888,48.0,0,30,1.0,0.0
4889,66.0,0,60,12.0,0.0
4890,47.0,0,120,14.0,0.0
4891,66.0,0,60,10.0,0.0
4892,62.0,0,60,15.0,0.0
4893,66.0,0,60,15.0,0.0
4894,35.0,0,120,6.0,0.0
4895,47.0,0,120,10.0,0.0
4896,66.0,0,60,0.0,0.0
4897,47.0,0,120,15.0,0.0
4898,66.0,60,60,3.0,0.0
4899,47.0,0,120,1.0,0.0
4900,68.0,60,60,10.0,0.0
4901,62.0,0,60,4.0,0.0
4902,68.0,0,60,3.0,0.0
4903,68.0,0,60,12.0,0.0
4904,62.0,0,60,1.0,0.0
4905,62.0,0,60,15.0,0.0
4906,68.0,0,60,0.0,0.0
4907,62.0,0,60,10.0,0.0
4908,68.0,0,60,15.0,0.0
4909,62.0,0,60,13.0,0.0
4910,60.0,0,120,4.0,0.0
4911,48.0,0,120,10.0,0.0
4912,36.0,0,120,6.0,0.0
4913,69.0,0,60,10.0,0.0
4914,64.0,0,120,15.0,0.0
4915,69.0,0,120,15.0,0.0
4916,60.0,0,120,10.0,0.0
4917,48.0,60,120,15.0,0.0
4918,69.0,0,60,0.0,0.0
4919,60.0,0,120,1.0,0.0
4920,48.0,0,120,1.0,0.0
4921,60.0,0,120,13.0,0.0
4922,69.0,0,60,12.0,0.0
4923,48.0,0,120,14.0,0.0
4924,60.0,0,120,15.0,0.0
4925,69.0,60,60,3.0,0.0
4926,64.0,0,120,12.0,0.0
4927,64.0,0,120,3.0,0.0
4928,64.0,0,120,10.0,0.0
4929,64.0,0,120,0.0,0.0
4930,65.0,0,120,1.0,0.0
4931,50.0,0,120,14.0,0.0
4932,65.0,0,120,13.0,0.0
4933,50.0,0,120,1.0,0.0
4934,65.0,0,120,4.0,0.0
4935,50.0,0,120,10.0,0.0
4936,50.0,0,120,15.0,0.0
4937,69.0,0,60,15.0,0.0
4938,72.0,30,60,15.0,0.0
4939,64.0,0,60,15.0,0.0
4940,38.0,120,120,6.0,0.0
4941,65.0,0,120,15.0,0.0
4942,65.0,0,120,10.0,0.0
4943,62.0,0,30,3.0,0.0
4944,62.0,0,30,12.0,0.0
4945,62.0,0,30,0.0,0.0
4946,71.0,0,30,15.0,0.0
4947,62.0,0,30,10.0,0.0
4948,62.0,30,30,15.0,0.0
4949,60.0,0,30,10.0,0.0
4950,60.0,0,30,12.0,0.0
4951,60.0,0,30,0.0,0.0
4952,60.0,0,30,3.0,0.0
4953,69.0,0,30,15.0,0.0
4954,60.0,0,30,15.0,0.0
4955,56.0,0,180,13.0,0.0
4956,56.0,0,180,10.0,0.0
4957,56.0,60,180,4.0,0.0
4958,59.0,0,120,0.0,0.0
4959,52.0,0,120,1.0,0.0
4960,56.0,0,120,1.0,0.0
4961,59.0,0,120,10.0,0.0
4962,52.0,0,120,14.0,0.0
4963,52.0,0,120,15.0,0.0
4964,68.0,0,120,15.0,0.0
4965,52.0,0,120,10.0,0.0
4966,40.0,0,120,6.0,0.0
4967,71.0,0,120,15.0,0.0
4968,59.0,0,120,12.0,0.0
4969,59.0,60,120,3.0,0.0
4970,71.0,0,60,2.0,0.0
4971,71.0,0,60,11.0,0.0
4972,71.0,0,60,0.0,0.0
4973,71.0,0,60,0.0,0.0
4974,71.0,0,60,11.0,0.0
4975,71.0,0,60,2.0,0.0
4976,52.0,0,60,15.0,0.0
4977,68.0,0,60,15.0,0.0
4978,52.0,0,60,10.0,0.0
4979,56.0,0,60,10.0,0.0
4980,71.0,0,60,11.0,0.0
4981,52.0,0,60,1.0,0.0
4982,55.0,0,60,1.0,0.0
4983,71.0,0,60,0.0,0.0
4984,56.0,0,60,4.0,0.0
4985,71.0,0,60,2.0,0.0
4986,40.0,0,60,6.0,0.0
4987,71.0,0,60,15.0,0.0
4988,56.0,30,60,13.0,0.0
4989,52.0,0,60,14.0,0.0
4990,72.0,30,30,2.0,0.0
4991,72.0,30,240,15.0,0.0
4992,64.0,0,240,15.0,0.0
4993,57.0,0,120,13.0,0.0
4994,45.0,0,150,6.0,0.0
4995,57.0,0,150,15.0,0.0
4996,57.0,0,120,10.0,0.0
4997,57.0,0,120,4.0,0.0
4998,57.0,0,150,1.0,0.0
4999,72.0,0,30,11.0,0.0
5000,72.0,0,30,0.0,0.0
5001,57.0,0,150,14.0,0.0
5002,74.0,0,30,11.0,0.0
5003,74.0,0,30,2.0,0.0
5004,74.0,30,30,0.0,0.0
5005,64.0,0,60,10.0,0.0
5006,64.0,0,60,3.0,0.0
5007,64.0,30,60,0.0,0.0
5008,72.0,0,30,0.0,0.0
5009,72.0,30,30,2.0,0.0
5010,72.0,0,30,11.0,0.0
5011,64.0,0,60,12.0,0.0
5012,70.0,0,30,2.0,0.0
5013,71.0,0,30,11.0,0.0
5014,71.0,0,30,0.0,0.0
5015,72.0,30,30,11.0,0.0
5016,72.0,0,30,2.0,0.0
5017,69.0,0,150,10.0,0.0
5018,69.0,0,150,3.0,0.0
5019,69.0,0,150,12.0,0.0
5020,69.0,0,150,0.0,0.0
5021,72.0,0,30,0.0,0.0
5022,55.0,0,30,10.0,0.0
5023,74.0,0,30,2.0,0.0
5024,74.0,0,30,11.0,0.0
5025,74.0,30,30,0.0,0.0
5026,43.0,0,30,6.0,0.0
5027,55.0,0,30,14.0,0.0
5028,55.0,0,30,1.0,0.0
5029,55.0,0,30,15.0,0.0
5030,57.0,0,60,10.0,0.0
5031,57.0,0,60,4.0,0.0
5032,71.0,0,30,11.0,0.0
5033,53.0,0,30,14.0,0.0
5034,70.0,0,30,2.0,0.0
5035,57.0,0,60,13.0,0.0
5036,53.0,30,30,1.0,0.0
5037,57.0,0,60,1.0,0.0
5038,71.0,0,30,0.0,0.0
5039,53.0,0,30,10.0,0.0
5040,53.0,0,30,15.0,0.0
5041,41.0,0,30,6.0,0.0
5042,40.0,0,30,6.0,0.0
5043,52.0,0,30,1.0,0.0
5044,72.0,0,30,2.0,0.0
5045,52.0,0,30,15.0,0.0
5046,52.0,0,30,10.0,0.0
5047,52.0,0,30,14.0,0.0
5048,72.0,0,30,0.0,0.0
5049,72.0,0,30,11.0,0.0
5050,59.0,0,180,13.0,0.0
5051,53.0,0,60,10.0,0.0
5052,62.0,0,120,15.0,0.0
5053,59.0,0,120,15.0,0.0
5054,69.0,0,120,15.0,0.0
5055,53.0,0,60,14.0,0.0
5056,59.0,0,180,10.0,0.0
5057,41.0,0,60,6.0,0.0
5058,74.0,0,30,2.0,0.0
5059,59.0,0,180,4.0,0.0
5060,74.0,30,30,11.0,0.0
5061,74.0,0,30,0.0,0.0
5062,53.0,0,60,1.0,0.0
5063,59.0,0,180,1.0,0.0
5064,53.0,0,60,15.0,0.0
5065,67.0,0,30,10.0,0.0
5066,67.0,0,30,0.0,0.0
5067,76.0,0,30,0.0,0.0
5068,76.0,30,30,11.0,0.0
5069,67.0,0,30,12.0,0.0
5070,76.0,0,30,2.0,0.0
5071,67.0,0,30,3.0,0.0
5072,65.0,0,30,3.0,0.0
5073,74.0,0,30,0.0,0.0
5074,65.0,0,30,0.0,0.0
5075,50.0,0,60,14.0,0.0
5076,65.0,0,30,12.0,0.0
5077,74.0,0,30,11.0,0.0
5078,38.0,0,60,6.0,0.0
5079,74.0,30,30,2.0,0.0
5080,65.0,0,30,10.0,0.0
5081,50.0,0,60,15.0,0.0
5082,50.0,0,60,10.0,0.0
5083,50.0,0,60,1.0,0.0
5084,64.0,0,30,10.0,0.0
5085,64.0,0,30,12.0,0.0
5086,72.0,30,30,11.0,0.0
5087,72.0,0,30,2.0,0.0
5088,64.0,0,30,0.0,0.0
5089,64.0,0,30,3.0,0.0
5090,72.0,0,30,0.0,0.0
5091,55.0,0,120,1.0,0.0
5092,55.0,0,120,15.0,0.0
5093,74.0,0,120,15.0,0.0
5094,67.0,0,60,15.0,0.0
5095,55.0,0,120,14.0,0.0
5096,65.0,0,60,10.0,0.0
5097,74.0,0,30,11.0,0.0
5098,59.0,60,120,15.0,0.0
5099,43.0,0,120,6.0,0.0
5100,65.0,0,60,0.0,0.0
5101,55.0,0,120,10.0,0.0
5102,74.0,30,30,2.0,0.0
5103,74.0,0,30,0.0,0.0
5104,65.0,0,60,3.0,0.0
5105,65.0,30,60,12.0,0.0
5106,76.0,0,30,11.0,0.0
5107,76.0,0,30,0.0,0.0
5108,76.0,0,30,2.0,0.0
5109,72.0,0,30,11.0,0.0
5110,57.0,30,30,4.0,0.0
5111,65.0,0,60,15.0,0.0
5112,57.0,0,30,10.0,0.0
5113,57.0,0,30,1.0,0.0
5114,67.0,0,30,12.0,0.0
5115,67.0,0,30,0.0,0.0
5116,72.0,0,30,0.0,0.0
5117,67.0,0,30,3.0,0.0
5118,57.0,0,30,13.0,0.0
5119,72.0,0,30,2.0,0.0
5120,67.0,0,30,10.0,0.0
5121,59.0,0,30,10.0,0.0
5122,65.0,0,30,3.0,0.0
5123,65.0,0,30,12.0,0.0
5124,65.0,0,30,10.0,0.0
5125,74.0,0,30,0.0,0.0
5126,65.0,0,30,0.0,0.0
5127,59.0,0,30,13.0,0.0
5128,74.0,0,30,11.0,0.0
5129,59.0,0,30,1.0,0.0
5130,59.0,0,30,4.0,0.0
5131,74.0,0,30,2.0,0.0
5132,64.0,0,120,12.0,0.0
5133,69.0,30,120,15.0,0.0
5134,64.0,0,120,10.0,0.0
5135,76.0,0,60,11.0,0.0
5136,60.0,0,60,10.0,0.0
5137,60.0,0,60,1.0,0.0
5138,76.0,0,60,2.0,0.0
5139,48.0,0,60,14.0,0.0
5140,48.0,0,60,15.0,0.0
5141,64.0,0,120,15.0,0.0
5142,48.0,0,60,10.0,0.0
5143,36.0,0,60,6.0,0.0
5144,48.0,0,60,1.0,0.0
5145,64.0,0,120,3.0,0.0
5146,60.0,0,60,4.0,0.0
5147,64.0,0,120,0.0,0.0
5148,76.0,0,60,0.0,0.0
5149,60.0,30,60,13.0,0.0
5150,77.0,0,30,2.0,0.0
5151,77.0,0,30,11.0,0.0
5152,59.0,0,30,1.0,0.0
5153,45.0,0,60,1.0,0.0
5154,77.0,0,30,0.0,0.0
5155,59.0,0,30,13.0,0.0
5156,33.0,0,60,6.0,0.0
5157,45.0,0,60,14.0,0.0
5158,45.0,0,60,15.0,0.0
5159,59.0,0,30,4.0,0.0
5160,45.0,0,60,10.0,0.0
5161,59.0,30,30,10.0,0.0
5162,76.0,0,30,0.0,0.0
5163,76.0,0,30,11.0,0.0
5164,60.0,0,30,13.0,0.0
5165,60.0,0,30,10.0,0.0
5166,60.0,0,30,4.0,0.0
5167,76.0,0,30,2.0,0.0
5168,60.0,0,30,1.0,0.0
5169,62.0,0,120,15.0,0.0
5170,53.0,0,90,14.0,0.0
5171,53.0,0,120,1.0,0.0
5172,62.0,0,60,1.0,0.0
5173,53.0,0,120,15.0,0.0
5174,69.0,0,120,15.0,0.0
5175,62.0,0,60,10.0,0.0
5176,53.0,0,90,10.0,0.0
5177,41.0,0,120,6.0,0.0
5178,74.0,30,30,0.0,0.0
5179,74.0,0,30,2.0,0.0
5180,62.0,0,60,4.0,0.0
5181,62.0,0,60,13.0,0.0
5182,74.0,0,30,11.0,0.0
5183,72.0,30,30,0.0,0.0
5184,72.0,0,30,11.0,0.0
5185,72.0,0,30,2.0,0.0
5186,60.0,0,30,13.0,0.0
5187,60.0,0,30,4.0,0.0
5188,60.0,30,30,10.0,0.0
5189,71.0,0,30,11.0,0.0
5190,60.0,0,30,1.0,0.0
5191,71.0,0,30,0.0,0.0
5192,71.0,0,30,2.0,0.0
5193,69.0,60,30,0.0,0.0
5194,62.0,0,30,1.0,0.0
5195,53.0,0,30,14.0,0.0
5196,62.0,0,30,4.0,0.0
5197,62.0,0,30,13.0,0.0
5198,69.0,0,30,11.0,0.0
5199,62.0,0,30,10.0,0.0
5200,53.0,0,30,10.0,0.0
5201,69.0,0,30,2.0,0.0
5202,64.0,0,60,10.0,0.0
5203,64.0,0,60,4.0,0.0
5204,68.0,0,60,11.0,0.0
5205,52.0,0,120,14.0,0.0
5206,68.0,0,60,2.0,0.0
5207,64.0,60,60,1.0,0.0
5208,52.0,0,120,1.0,0.0
5209,52.0,0,60,15.0,0.0
5210,71.0,0,60,15.0,0.0
5211,40.0,0,60,6.0,0.0
5212,68.0,0,60,15.0,0.0
5213,68.0,0,60,0.0,0.0
5214,64.0,0,60,13.0,0.0
5215,52.0,0,120,10.0,0.0
5216,62.0,0,60,15.0,0.0
5217,64.0,0,60,3.0,0.0
5218,62.0,0,60,10.0,0.0
5219,71.0,0,60,15.0,0.0
5220,68.0,0,60,15.0,0.0
5221,62.0,60,60,5.0,0.0
5222,62.0,0,60,13.0,0.0
5223,62.0,0,60,4.0,0.0
5224,69.0,0,60,0.0,0.0
5225,64.0,0,60,10.0,0.0
5226,64.0,0,60,15.0,0.0
5227,64.0,0,60,0.0,0.0
5228,64.0,0,60,12.0,0.0
5229,71.0,0,60,2.0,0.0
5230,71.0,0,60,11.0,0.0
5231,62.0,0,60,1.0,0.0
5232,76.0,0,60,11.0,0.0
5233,69.0,0,60,15.0,0.0
5234,60.0,0,60,5.0,0.0
5235,60.0,0,60,13.0,0.0
5236,66.0,0,60,3.0,0.0
5237,76.0,60,60,2.0,0.0
5238,66.0,0,60,12.0,0.0
5239,60.0,0,60,1.0,0.0
5240,66.0,0,60,15.0,0.0
5241,66.0,0,60,0.0,0.0
5242,60.0,0,60,15.0,0.0
5243,60.0,0,60,10.0,0.0
5244,76.0,0,60,15.0,0.0
5245,60.0,0,60,4.0,0.0
5246,76.0,0,60,0.0,0.0
5247,66.0,0,60,10.0,0.0
5248,59.0,0,60,5.0,0.0
5249,68.0,0,60,12.0,0.0
5250,59.0,0,60,4.0,0.0
5251,59.0,0,60,15.0,0.0
5252,68.0,0,60,15.0,0.0
5253,59.0,0,60,13.0,0.0
5254,74.0,0,60,11.0,0.0
5255,74.0,0,60,2.0,0.0
5256,59.0,0,60,10.0,0.0
5257,74.0,0,60,15.0,0.0
5258,74.0,30,60,0.0,0.0
5259,68.0,0,60,0.0,0.0
5260,68.0,0,60,10.0,0.0
5261,59.0,0,60,1.0,0.0
5262,68.0,0,60,3.0,0.0
5263,57.0,0,60,15.0,0.0
5264,69.0,0,120,15.0,0.0
5265,65.0,0,120,15.0,0.0
5266,72.0,0,30,11.0,0.0
5267,72.0,0,30,2.0,0.0
5268,69.0,0,120,10.0,0.0
5269,57.0,0,30,10.0,0.0
5270,72.0,30,120,15.0,0.0
5271,57.0,0,30,1.0,0.0
5272,69.0,0,120,12.0,0.0
5273,57.0,0,30,4.0,0.0
5274,69.0,0,120,3.0,0.0
5275,57.0,30,30,13.0,0.0
5276,72.0,0,30,0.0,0.0
5277,57.0,0,60,5.0,0.0
5278,59.0,0,30,4.0,0.0
5279,71.0,0,30,2.0,0.0
5280,71.0,0,30,0.0,0.0
5281,59.0,0,30,1.0,0.0
5282,59.0,0,30,13.0,0.0
5283,59.0,30,30,10.0,0.0
5284,71.0,0,30,11.0,0.0
5285,60.0,0,120,1.0,0.0
5286,57.0,0,30,1.0,0.0
5287,57.0,0,30,10.0,0.0
5288,57.0,30,30,15.0,0.0
5289,60.0,0,120,4.0,0.0
5290,60.0,0,120,13.0,0.0
5291,57.0,0,30,14.0,0.0
5292,45.0,0,30,6.0,0.0
5293,60.0,30,120,10.0,0.0
5294,69.0,0,90,11.0,0.0
5295,69.0,0,60,0.0,0.0
5296,69.0,0,90,2.0,0.0
5297,55.0,0,30,10.0,0.0
5298,43.0,0,30,6.0,0.0
5299,55.0,0,30,1.0,0.0
5300,55.0,0,30,14.0,0.0
5301,55.0,0,30,15.0,0.0
5302,41.0,0,60,6.0,0.0
5303,53.0,0,60,1.0,0.0
5304,72.0,0,60,15.0,0.0
5305,53.0,0,60,14.0,0.0
5306,69.0,0,60,15.0,0.0
5307,53.0,0,60,10.0,0.0
5308,53.0,0,60,15.0,0.0
5309,70.0,0,30,0.0,0.0
5310,70.0,0,30,2.0,0.0
5311,70.0,0,30,11.0,0.0
5312,61.0,0,60,1.0,0.0
5313,67.0,0,30,2.0,0.0
5314,39.0,60,60,6.0,0.0
5315,51.0,0,60,10.0,0.0
5316,51.0,0,60,15.0,0.0
5317,67.0,0,60,15.0,0.0
5318,61.0,0,60,4.0,0.0
5319,73.0,0,60,15.0,0.0
5320,67.0,30,30,11.0,0.0
5321,61.0,0,60,13.0,0.0
5322,67.0,0,30,0.0,0.0
5323,61.0,0,60,10.0,0.0
5324,51.0,0,60,14.0,0.0
5325,51.0,0,60,1.0,0.0
5326,69.0,0,30,11.0,0.0
5327,69.0,0,30,2.0,0.0
5328,69.0,0,30,0.0,0.0
5329,50.0,0,120,14.0,0.0
5330,66.0,0,120,0.0,0.0
5331,38.0,0,60,6.0,0.0
5332,62.0,0,60,4.0,0.0
5333,62.0,0,60,13.0,0.0
5334,69.0,0,60,15.0,0.0
5335,62.0,0,60,1.0,0.0
5336,50.0,0,60,15.0,0.0
5337,62.0,0,60,10.0,0.0
5338,65.0,0,120,2.0,0.0
5339,66.0,0,120,11.0,0.0
5340,66.0,60,60,15.0,0.0
5341,69.0,60,60,3.0,0.0
5342,69.0,0,60,0.0,0.0
5343,50.0,0,60,5.0,0.0
5344,69.0,0,60,12.0,0.0
5345,69.0,0,60,15.0,0.0
5346,50.0,0,60,1.0,0.0
5347,50.0,0,60,13.0,0.0
5348,50.0,0,60,15.0,0.0
5349,66.0,0,60,15.0,0.0
5350,50.0,0,60,4.0,0.0
5351,50.0,0,60,10.0,0.0
5352,69.0,0,60,10.0,0.0
5353,52.0,0,60,15.0,0.0
5354,70.0,0,60,15.0,0.0
5355,67.0,0,60,15.0,0.0
5356,74.0,0,60,15.0,0.0
5357,52.0,0,60,5.0,0.0
5358,67.0,0,60,0.0,0.0
5359,74.0,0,60,3.0,0.0
5360,52.0,0,60,4.0,0.0
5361,52.0,0,60,10.0,0.0
5362,74.0,0,60,0.0,0.0
5363,67.0,0,60,2.0,0.0
5364,74.0,0,60,10.0,0.0
5365,67.0,0,60,11.0,0.0
5366,52.0,60,60,13.0,0.0
5367,74.0,0,60,12.0,0.0
5368,52.0,0,60,1.0,0.0
5369,54.0,0,60,5.0,0.0
5370,69.0,0,60,0.0,0.0
5371,72.0,0,60,0.0,0.0
5372,72.0,0,60,15.0,0.0
5373,54.0,0,60,4.0,0.0
5374,54.0,0,60,15.0,0.0
5375,72.0,0,60,12.0,0.0
5376,69.0,0,60,11.0,0.0
5377,54.0,0,60,1.0,0.0
5378,54.0,0,60,10.0,0.0
5379,72.0,30,60,10.0,0.0
5380,69.0,0,60,2.0,0.0
5381,69.0,0,60,15.0,0.0
5382,72.0,0,60,3.0,0.0
5383,54.0,0,60,13.0,0.0
5384,64.0,0,60,15.0,0.0
5385,70.0,0,30,3.0,0.0
5386,55.0,0,30,13.0,0.0
5387,62.0,0,120,2.0,0.0
5388,70.0,0,30,12.0,0.0
5389,70.0,0,30,10.0,0.0
5390,55.0,30,30,1.0,0.0
5391,62.0,0,120,11.0,0.0
5392,62.0,30,120,15.0,0.0
5393,70.0,0,120,15.0,0.0
5394,55.0,0,60,15.0,0.0
5395,70.0,0,30,0.0,0.0
5396,55.0,0,30,10.0,0.0
5397,55.0,0,30,4.0,0.0
5398,62.0,0,120,0.0,0.0
5399,55.0,0,60,5.0,0.0
5400,57.0,0,30,10.0,0.0
5401,69.0,0,30,10.0,0.0
5402,57.0,30,30,13.0,0.0
5403,69.0,0,30,12.0,0.0
5404,69.0,0,30,0.0,0.0
5405,69.0,0,30,3.0,0.0
5406,57.0,0,30,4.0,0.0
5407,57.0,0,30,1.0,0.0
5408,58.0,0,120,13.0,0.0
5409,58.0,0,120,1.0,0.0
5410,67.0,0,90,12.0,0.0
5411,55.0,0,30,10.0,0.0
5412,58.0,0,120,4.0,0.0
5413,67.0,0,90,0.0,0.0
5414,58.0,0,120,10.0,0.0
5415,55.0,30,30,15.0,0.0
5416,55.0,0,30,14.0,0.0
5417,67.0,30,90,3.0,0.0
5418,67.0,0,90,10.0,0.0
5419,55.0,0,30,1.0,0.0
5420,43.0,0,30,6.0,0.0
5421,41.0,0,30,6.0,0.0
5422,53.0,0,30,14.0,0.0
5423,53.0,0,30,15.0,0.0
5424,53.0,0,30,1.0,0.0
5425,53.0,0,30,10.0,0.0
5426,52.0,0,60,1.0,0.0
5427,52.0,0,60,14.0,0.0
5428,52.0,0,60,15.0,0.0
5429,52.0,0,60,10.0,0.0
5430,70.0,0,60,15.0,0.0
5431,67.0,0,60,15.0,0.0
5432,40.0,0,60,6.0,0.0
5433,69.0,0,30,3.0,0.0
5434,69.0,30,30,10.0,0.0
5435,69.0,0,30,12.0,0.0
5436,69.0,0,30,0.0,0.0
5437,65.0,0,30,0.0,0.0
5438,38.0,0,60,6.0,0.0
5439,50.0,0,60,15.0,0.0
5440,65.0,0,60,15.0,0.0
5441,71.0,0,60,15.0,0.0
5442,65.0,30,30,10.0,0.0
5443,50.0,0,60,10.0,0.0
5444,59.0,0,60,1.0,0.0
5445,50.0,0,60,1.0,0.0
5446,59.0,0,60,10.0,0.0
5447,65.0,0,30,12.0,0.0
5448,65.0,0,30,3.0,0.0
5449,59.0,0,60,13.0,0.0
5450,50.0,0,60,14.0,0.0
5451,59.0,0,60,4.0,0.0
5452,67.0,0,30,0.0,0.0
5453,67.0,0,30,12.0,0.0
5454,67.0,60,30,10.0,0.0
5455,67.0,0,30,3.0,0.0
5456,60.0,0,60,10.0,0.0
5457,72.0,0,180,2.0,0.0
5458,64.0,0,120,0.0,0.0
5459,72.0,0,180,0.0,0.0
5460,48.0,0,120,15.0,0.0
5461,64.0,0,120,3.0,0.0
5462,48.0,0,120,14.0,0.0
5463,60.0,60,60,4.0,0.0
5464,64.0,0,120,15.0,0.0
5465,64.0,0,120,10.0,0.0
5466,48.0,0,120,10.0,0.0
5467,64.0,0,120,12.0,0.0
5468,36.0,0,120,6.0,0.0
5469,48.0,0,120,1.0,0.0
5470,60.0,0,60,1.0,0.0
5471,72.0,0,60,15.0,0.0
5472,60.0,0,60,13.0,0.0
5473,72.0,0,180,11.0,0.0
5474,67.0,60,120,15.0,0.0
5475,70.0,0,60,15.0,0.0
5476,58.0,0,60,10.0,0.0
5477,58.0,0,60,13.0,0.0
5478,58.0,0,60,4.0,0.0
5479,58.0,0,60,1.0,0.0
5480,50.0,0,60,10.0,0.0
5481,38.0,0,60,6.0,0.0
5482,57.0,0,60,13.0,0.0
5483,65.0,0,60,12.0,0.0
5484,57.0,0,60,1.0,0.0
5485,65.0,60,60,3.0,0.0
5486,50.0,0,60,1.0,0.0
5487,57.0,0,60,10.0,0.0
5488,65.0,0,60,0.0,0.0
5489,65.0,0,60,10.0,0.0
5490,57.0,0,60,4.0,0.0
5491,50.0,0,60,15.0,0.0
5492,65.0,0,60,15.0,0.0
5493,69.0,0,60,15.0,0.0
5494,50.0,0,60,14.0,0.0
5495,72.0,0,60,15.0,0.0
5496,52.0,0,60,14.0,0.0
5497,40.0,0,60,6.0,0.0
5498,55.0,0,60,10.0,0.0
5499,67.0,0,60,3.0,0.0
5500,55.0,0,60,4.0,0.0
5501,67.0,0,60,0.0,0.0
5502,70.0,0,60,15.0,0.0
5503,52.0,0,60,15.0,0.0
5504,67.0,0,60,15.0,0.0
5505,72.0,0,60,15.0,0.0
5506,55.0,0,60,13.0,0.0
5507,72.0,0,60,0.0,0.0
5508,52.0,30,60,10.0,0.0
5509,72.0,0,60,2.0,0.0
5510,72.0,0,60,11.0,0.0
5511,67.0,0,60,12.0,0.0
5512,52.0,0,60,1.0,0.0
5513,55.0,0,60,1.0,0.0
5514,67.0,0,60,10.0,0.0
5515,57.0,0,30,10.0,0.0
5516,57.0,0,30,4.0,0.0
5517,60.0,0,120,3.0,0.0
5518,53.0,0,60,15.0,0.0
5519,69.0,0,60,15.0,0.0
5520,65.0,0,60,15.0,0.0
5521,60.0,0,120,10.0,0.0
5522,60.0,0,120,12.0,0.0
5523,72.0,0,60,15.0,0.0
5524,60.0,0,120,0.0,0.0
5525,57.0,30,30,13.0,0.0
5526,69.0,0,120,11.0,0.0
5527,53.0,0,120,14.0,0.0
5528,57.0,0,30,1.0,0.0
5529,69.0,30,120,2.0,0.0
5530,41.0,30,60,6.0,0.0
5531,69.0,0,120,0.0,0.0
5532,53.0,0,30,10.0,0.0
5533,53.0,0,30,13.0,0.0
5534,53.0,0,30,4.0,0.0
5535,53.0,0,30,1.0,0.0
5536,55.0,30,30,10.0,0.0
5537,55.0,0,30,13.0,0.0
5538,55.0,0,30,15.0,0.0
5539,55.0,0,30,4.0,0.0
5540,70.0,0,60,15.0,0.0
5541,62.0,0,60,15.0,0.0
5542,55.0,0,30,5.0,0.0
5543,67.0,0,60,15.0,0.0
5544,55.0,0,30,1.0,0.0
5545,57.0,0,30,4.0,0.0
5546,57.0,0,30,13.0,0.0
5547,57.0,0,30,1.0,0.0
5548,57.0,0,30,5.0,0.0
5549,57.0,0,30,15.0,0.0
5550,57.0,0,30,10.0,0.0
5551,58.0,0,30,5.0,0.0
5552,74.0,0,120,2.0,0.0
5553,58.0,0,30,1.0,0.0
5554,67.0,0,120,15.0,0.0
5555,72.0,0,120,0.0,0.0
5556,74.0,0,120,11.0,0.0
5557,74.0,0,120,15.0,0.0
5558,65.0,0,120,15.0,0.0
5559,58.0,0,30,15.0,0.0
5560,58.0,30,30,10.0,0.0
5561,58.0,0,30,13.0,0.0
5562,58.0,0,30,4.0,0.0
5563,55.0,0,30,13.0,0.0
5564,55.0,0,30,4.0,0.0
5565,55.0,0,30,15.0,0.0
5566,55.0,30,30,1.0,0.0
5567,55.0,0,30,10.0,0.0
5568,55.0,0,30,5.0,0.0
5569,57.0,0,30,5.0,0.0
5570,57.0,0,30,1.0,0.0
5571,57.0,0,30,4.0,0.0
5572,57.0,0,30,15.0,0.0
5573,57.0,30,30,10.0,0.0
5574,57.0,0,30,13.0,0.0
5575,58.0,0,30,4.0,0.0
5576,58.0,0,30,1.0,0.0
5577,58.0,0,30,5.0,0.0
5578,58.0,0,30,10.0,0.0
5579,58.0,60,30,13.0,0.0
5580,58.0,0,30,15.0,0.0
5581,60.0,0,60,4.0,0.0
5582,64.0,0,180,11.0,0.0
5583,72.0,0,60,15.0,0.0
5584,67.0,0,60,15.0,0.0
5585,64.0,0,60,15.0,0.0
5586,64.0,0,180,2.0,0.0
5587,60.0,30,60,5.0,0.0
5588,60.0,0,60,13.0,0.0
5589,60.0,0,60,15.0,0.0
5590,60.0,0,60,10.0,0.0
5591,60.0,0,60,1.0,0.0
5592,64.0,0,180,0.0,0.0
5593,36.0,30,30,6.0,0.0
5594,48.0,0,60,14.0,0.0
5595,64.0,0,120,15.0,0.0
5596,55.0,30,60,10.0,0.0
5597,48.0,0,30,15.0,0.0
5598,48.0,0,60,10.0,0.0
5599,60.0,0,120,12.0,0.0
5600,55.0,0,60,1.0,0.0
5601,48.0,0,60,1.0,0.0
5602,67.0,0,120,15.0,0.0
5603,60.0,30,120,15.0,0.0
5604,55.0,0,60,13.0,0.0
5605,60.0,0,120,0.0,0.0
5606,60.0,0,120,3.0,0.0
5607,55.0,0,60,4.0,0.0
5608,48.0,0,60,10.0,0.0
5609,48.0,30,30,15.0,0.0
5610,60.0,0,180,13.0,0.0
5611,36.0,0,30,6.0,0.0
5612,48.0,0,60,1.0,0.0
5613,60.0,0,180,1.0,0.0
5614,60.0,0,60,10.0,0.0
5615,60.0,0,180,4.0,0.0
5616,48.0,0,60,14.0,0.0
5617,48.0,30,30,15.0,0.0
5618,48.0,0,60,14.0,0.0
5619,64.0,0,60,11.0,0.0
5620,58.0,0,60,3.0,0.0
5621,48.0,0,60,1.0,0.0
5622,67.0,0,60,15.0,0.0
5623,64.0,0,60,15.0,0.0
5624,48.0,0,60,10.0,0.0
5625,64.0,0,60,0.0,0.0
5626,58.0,30,60,0.0,0.0
5627,36.0,0,30,6.0,0.0
5628,64.0,0,60,2.0,0.0
5629,58.0,0,60,15.0,0.0
5630,58.0,0,60,12.0,0.0
5631,58.0,0,60,10.0,0.0
5632,65.0,0,120,2.0,0.0
5633,50.0,0,30,10.0,0.0
5634,50.0,0,30,1.0,0.0
5635,57.0,0,60,12.0,0.0
5636,65.0,0,120,11.0,0.0
5637,57.0,0,60,10.0,0.0
5638,57.0,0,60,3.0,0.0
5639,57.0,0,60,15.0,0.0
5640,65.0,0,60,15.0,0.0
5641,69.0,30,60,15.0,0.0
5642,50.0,0,30,15.0,0.0
5643,57.0,0,60,0.0,0.0
5644,38.0,30,30,6.0,0.0
5645,50.0,0,30,14.0,0.0
5646,52.0,0,30,14.0,0.0
5647,40.0,0,30,6.0,0.0
5648,52.0,0,30,1.0,0.0
5649,52.0,0,30,10.0,0.0
5650,52.0,0,30,15.0,0.0
5651,70.0,0,180,15.0,0.0
5652,65.0,0,180,15.0,0.0
5653,58.0,0,30,13.0,0.0
5654,65.0,0,60,3.0,0.0
5655,50.0,0,30,10.0,0.0
5656,58.0,30,30,1.0,0.0
5657,65.0,0,60,10.0,0.0
5658,65.0,0,60,0.0,0.0
5659,50.0,0,30,1.0,0.0
5660,58.0,0,30,10.0,0.0
5661,65.0,0,60,12.0,0.0
5662,50.0,0,30,14.0,0.0
5663,38.0,0,30,6.0,0.0
5664,50.0,0,30,15.0,0.0
5665,58.0,0,30,4.0,0.0
5666,57.0,0,30,10.0,0.0
5667,48.0,0,30,14.0,0.0
5668,36.0,0,30,6.0,0.0
5669,57.0,0,30,1.0,0.0
5670,48.0,0,30,1.0,0.0
5671,48.0,30,30,10.0,0.0
5672,57.0,0,30,4.0,0.0
5673,48.0,0,30,15.0,0.0
5674,57.0,0,30,13.0,0.0
5675,50.0,0,30,15.0,0.0
5676,58.0,0,30,13.0,0.0
5677,58.0,0,30,10.0,0.0
5678,62.0,0,60,0.0,0.0
5679,38.0,0,30,6.0,0.0
5680,58.0,0,30,4.0,0.0
5681,50.0,0,30,10.0,0.0
5682,62.0,0,60,12.0,0.0
5683,50.0,30,30,1.0,0.0
5684,62.0,0,60,3.0,0.0
5685,58.0,0,30,1.0,0.0
5686,62.0,0,60,10.0,0.0
5687,50.0,0,30,14.0,0.0
5688,60.0,30,30,13.0,0.0
5689,40.0,0,30,6.0,0.0
5690,60.0,0,30,1.0,0.0
5691,52.0,0,30,10.0,0.0
5692,52.0,0,30,14.0,0.0
5693,60.0,0,30,4.0,0.0
5694,52.0,0,30,15.0,0.0
5695,60.0,0,30,10.0,0.0
5696,52.0,0,30,1.0,0.0
5697,57.0,0,30,10.0,0.0
5698,65.0,0,60,0.0,0.0
5699,48.0,0,30,14.0,0.0
5700,58.0,0,60,0.0,0.0
5701,48.0,0,30,1.0,0.0
5702,57.0,0,30,4.0,0.0
5703,36.0,0,30,6.0,0.0
5704,57.0,30,30,13.0,0.0
5705,57.0,0,30,1.0,0.0
5706,58.0,0,60,12.0,0.0
5707,48.0,0,30,15.0,0.0
5708,48.0,0,30,10.0,0.0
5709,65.0,0,60,2.0,0.0
5710,65.0,0,60,11.0,0.0
5711,58.0,15,60,3.0,0.0
5712,58.0,0,30,13.0,0.0
5713,50.0,0,30,14.0,0.0
5714,58.0,0,30,1.0,0.0
5715,50.0,0,30,1.0,0.0
5716,58.0,0,30,4.0,0.0
5717,38.0,0,30,6.0,0.0
5718,50.0,0,30,15.0,0.0
5719,58.0,0,30,10.0,0.0
5720,50.0,15,30,10.0,0.0
5721,52.0,30,30,14.0,0.0
5722,55.0,0,60,13.0,0.0
5723,60.0,0,240,15.0,0.0
5724,70.0,0,240,15.0,0.0
5725,67.0,0,240,15.0,0.0
5726,52.0,0,30,15.0,0.0
5727,67.0,0,180,11.0,0.0
5728,52.0,0,30,1.0,0.0
5729,52.0,0,30,10.0,0.0
5730,55.0,0,60,10.0,0.0
5731,55.0,30,60,4.0,0.0
5732,55.0,0,60,1.0,0.0
5733,40.0,0,30,6.0,0.0
5734,67.0,0,180,2.0,0.0
5735,53.0,0,30,15.0,0.0
5736,53.0,0,30,14.0,0.0
5737,53.0,0,30,10.0,0.0
5738,41.0,0,30,6.0,0.0
5739,53.0,0,30,1.0,0.0
5740,57.0,0,30,4.0,0.0
5741,52.0,0,30,15.0,0.0
5742,57.0,30,30,10.0,0.0
5743,67.0,0,60,3.0,0.0
5744,40.0,0,30,6.0,0.0
5745,57.0,0,30,1.0,0.0
5746,67.0,0,60,10.0,0.0
5747,67.0,0,60,0.0,0.0
5748,67.0,0,60,12.0,0.0
5749,52.0,0,30,10.0,0.0
5750,57.0,0,30,13.0,0.0
5751,52.0,0,30,1.0,0.0
5752,52.0,0,30,14.0,0.0
5753,50.0,0,30,14.0,0.0
5754,50.0,0,30,10.0,0.0
5755,58.0,0,30,1.0,0.0
5756,50.0,0,30,1.0,0.0
5757,58.0,0,30,10.0,0.0
5758,58.0,0,30,4.0,0.0
5759,50.0,0,30,15.0,0.0
5760,38.0,0,30,6.0,0.0
5761,58.0,30,30,13.0,0.0
5762,52.0,30,30,14.0,0.0
5763,52.0,0,30,15.0,0.0
5764,52.0,0,30,1.0,0.0
5765,52.0,0,30,10.0,0.0
5766,60.0,0,120,13.0,0.0
5767,40.0,0,30,6.0,0.0
5768,64.0,0,60,10.0,0.0
5769,64.0,0,60,0.0,0.0
5770,60.0,0,120,4.0,0.0
5771,64.0,0,60,3.0,0.0
5772,60.0,0,120,1.0,0.0
5773,64.0,30,60,12.0,0.0
5774,41.0,0,30,6.0,0.0
5775,53.0,0,30,14.0,0.0
5776,53.0,0,30,1.0,0.0
5777,53.0,0,30,10.0,0.0
5778,53.0,0,30,15.0,0.0
5779,65.0,0,30,0.0,0.0
5780,50.0,30,30,15.0,0.0
5781,65.0,0,30,11.0,0.0
5782,50.0,0,30,10.0,0.0
5783,60.0,0,60,10.0,0.0
5784,60.0,0,60,0.0,0.0
5785,60.0,0,60,12.0,0.0
5786,50.0,0,30,1.0,0.0
5787,50.0,0,30,14.0,0.0
5788,38.0,0,30,6.0,0.0
5789,60.0,0,60,3.0,0.0
5790,65.0,0,30,2.0,0.0
5791,52.0,0,30,15.0,0.0
5792,52.0,0,30,14.0,0.0
5793,52.0,0,30,10.0,0.0
5794,67.0,0,30,2.0,0.0
5795,52.0,0,30,1.0,0.0
5796,40.0,0,30,6.0,0.0
5797,67.0,0,30,0.0,0.0
5798,67.0,60,30,11.0,0.0
5799,69.0,0,60,15.0,0.0
5800,69.0,0,60,0.0,0.0
5801,65.0,0,60,15.0,0.0
5802,53.0,0,60,10.0,0.0
5803,72.0,0,60,15.0,0.0
5804,53.0,0,60,15.0,0.0
5805,69.0,0,60,11.0,0.0
5806,41.0,0,60,6.0,0.0
5807,69.0,30,60,2.0,0.0
5808,53.0,0,60,14.0,0.0
5809,53.0,0,60,1.0,0.0
5810,55.0,0,30,1.0,0.0
5811,64.0,0,30,12.0,0.0
5812,55.0,0,30,15.0,0.0
5813,55.0,0,30,10.0,0.0
5814,67.0,0,30,0.0,0.0
5815,67.0,0,30,2.0,0.0
5816,70.0,0,30,15.0,0.0
5817,64.0,0,30,3.0,0.0
5818,64.0,0,30,15.0,0.0
5819,67.0,0,30,11.0,0.0
5820,55.0,0,30,14.0,0.0
5821,64.0,30,30,10.0,0.0
5822,43.0,0,30,6.0,0.0
5823,64.0,0,30,0.0,0.0
5824,69.0,0,30,11.0,0.0
5825,69.0,0,30,15.0,0.0
5826,53.0,0,30,15.0,0.0
5827,72.0,0,30,15.0,0.0
5828,65.0,0,30,10.0,0.0
5829,53.0,0,30,14.0,0.0
5830,69.0,0,30,0.0,0.0
5831,65.0,0,30,3.0,0.0
5832,53.0,0,30,10.0,0.0
5833,53.0,0,30,1.0,0.0
5834,65.0,0,30,12.0,0.0
5835,69.0,0,30,2.0,0.0
5836,41.0,0,30,6.0,0.0
5837,65.0,30,30,0.0,0.0
5838,67.0,0,60,3.0,0.0
5839,70.0,0,120,15.0,0.0
5840,52.0,0,30,1.0,0.0
5841,70.0,0,60,2.0,0.0
5842,70.0,0,60,11.0,0.0
5843,67.0,0,60,10.0,0.0
5844,67.0,0,60,12.0,0.0
5845,40.0,0,30,6.0,0.0
5846,52.0,0,30,14.0,0.0
5847,52.0,30,30,15.0,0.0
5848,67.0,0,60,0.0,0.0
5849,70.0,0,60,0.0,0.0
5850,67.0,0,120,15.0,0.0
5851,72.0,0,120,15.0,0.0
5852,52.0,0,30,10.0,0.0
5853,50.0,0,30,10.0,0.0
5854,50.0,0,30,1.0,0.0
5855,50.0,30,30,15.0,0.0
5856,38.0,0,30,6.0,0.0
5857,50.0,0,30,14.0,0.0
5858,65.0,0,30,10.0,0.0
5859,36.0,0,30,6.0,0.0
5860,65.0,0,30,0.0,0.0
5861,69.0,0,30,0.0,0.0
5862,48.0,0,30,1.0,0.0
5863,48.0,30,30,15.0,0.0
5864,48.0,0,30,14.0,0.0
5865,69.0,0,30,2.0,0.0
5866,65.0,0,30,3.0,0.0
5867,48.0,0,30,10.0,0.0
5868,65.0,0,30,12.0,0.0
5869,69.0,0,30,11.0,0.0
5870,67.0,0,30,10.0,0.0
5871,46.0,0,30,1.0,0.0
5872,46.0,0,30,14.0,0.0
5873,70.0,60,30,2.0,0.0
5874,67.0,0,30,12.0,0.0
5875,70.0,0,30,11.0,0.0
5876,67.0,0,30,0.0,0.0
5877,34.0,0,30,6.0,0.0
5878,67.0,0,30,3.0,0.0
5879,46.0,0,30,10.0,0.0
5880,70.0,0,30,0.0,0.0
5881,46.0,0,30,15.0,0.0
5882,65.0,0,60,15.0,0.0
5883,69.0,0,60,3.0,0.0
5884,72.0,0,60,15.0,0.0
5885,45.0,0,60,15.0,0.0
5886,69.0,0,60,10.0,0.0
5887,69.0,0,60,12.0,0.0
5888,33.0,0,60,6.0,0.0
5889,45.0,0,60,10.0,0.0
5890,45.0,0,60,14.0,0.0
5891,72.0,0,60,2.0,0.0
5892,45.0,0,60,1.0,0.0
5893,72.0,0,60,11.0,0.0
5894,72.0,0,60,0.0,0.0
5895,69.0,60,60,0.0,0.0
5896,70.0,0,60,11.0,0.0
5897,70.0,60,60,2.0,0.0
5898,70.0,0,60,0.0,0.0
5899,64.0,0,60,3.0,0.0
5900,48.0,0,60,1.0,0.0
5901,36.0,0,60,6.0,0.0
5902,48.0,0,60,15.0,0.0
5903,64.0,0,60,15.0,0.0
5904,64.0,0,60,12.0,0.0
5905,67.0,0,60,15.0,0.0
5906,48.0,0,60,14.0,0.0
5907,70.0,0,60,15.0,0.0
5908,48.0,0,60,10.0,0.0
5909,64.0,0,60,0.0,0.0
5910,64.0,0,60,10.0,0.0
5911,72.0,0,60,15.0,0.0
5912,69.0,0,60,15.0,0.0
5913,53.0,0,60,15.0,0.0
5914,53.0,0,60,14.0,0.0
5915,53.0,0,60,10.0,0.0
5916,65.0,0,60,12.0,0.0
5917,53.0,0,60,1.0,0.0
5918,65.0,0,60,10.0,0.0
5919,65.0,0,60,3.0,0.0
5920,41.0,0,60,6.0,0.0
5921,69.0,0,60,2.0,0.0
5922,65.0,0,60,0.0,0.0
5923,69.0,0,60,0.0,0.0
5924,69.0,60,60,11.0,0.0
5925,51.0,0,60,10.0,0.0
5926,61.0,0,60,0.0,0.0
5927,67.0,0,60,11.0,0.0
5928,67.0,0,60,0.0,0.0
5929,51.0,0,60,14.0,0.0
5930,61.0,60,60,10.0,0.0
5931,61.0,0,60,12.0,0.0
5932,51.0,0,60,1.0,0.0
5933,39.0,0,60,6.0,0.0
5934,51.0,0,60,15.0,0.0
5935,67.0,0,60,15.0,0.0
5936,61.0,0,60,15.0,0.0
5937,67.0,0,60,2.0,0.0
5938,61.0,0,60,3.0,0.0
5939,62.0,0,120,3.0,0.0
5940,50.0,0,60,10.0,0.0
5941,66.0,0,120,0.0,0.0
5942,62.0,0,120,0.0,0.0
5943,62.0,0,180,13.0,0.0
5944,62.0,0,120,7.0,0.0
5945,50.0,0,60,1.0,0.0
5946,62.0,0,180,1.0,0.0
5947,62.0,0,180,4.0,0.0
5948,66.0,0,120,11.0,0.0
5949,62.0,0,120,12.0,0.0
5950,50.0,0,60,14.0,0.0
5951,50.0,0,120,8.0,0.0
5952,50.0,0,60,15.0,0.0
5953,66.0,60,60,15.0,0.0
5954,62.0,0,120,10.0,0.0
5955,69.0,0,60,15.0,0.0
5956,66.0,0,120,2.0,0.0
5957,38.0,0,60,6.0,0.0
5958,48.0,0,120,6.0,0.0
5959,60.0,0,120,15.0,0.0
5960,60.0,0,120,14.0,0.0
5961,60.0,30,120,1.0,0.0
5962,65.0,60,60,15.0,0.0
5963,62.0,0,60,15.0,0.0
5964,60.0,0,120,10.0,0.0
5965,67.0,0,60,2.0,0.0
5966,64.0,0,60,15.0,0.0
5967,67.0,0,60,11.0,0.0
5968,64.0,0,60,0.0,0.0
5969,64.0,0,60,12.0,0.0
5970,62.0,0,60,7.0,0.0
5971,64.0,0,60,3.0,0.0
5972,67.0,0,60,0.0,0.0
5973,67.0,0,60,15.0,0.0
5974,64.0,0,60,10.0,0.0
5975,62.0,0,60,1.0,0.0
5976,66.0,0,60,3.0,0.0
5977,58.0,0,30,15.0,0.0
5978,46.0,30,30,6.0,0.0
5979,66.0,0,60,0.0,0.0
5980,69.0,30,60,0.0,0.0
5981,62.0,0,60,13.0,0.0
5982,62.0,0,60,4.0,0.0
5983,58.0,0,30,14.0,0.0
5984,62.0,0,60,7.0,0.0
5985,66.0,0,60,10.0,0.0
5986,68.0,0,60,15.0,0.0
5987,58.0,0,30,10.0,0.0
5988,62.0,0,60,10.0,0.0
5989,69.0,0,60,11.0,0.0
5990,66.0,0,60,12.0,0.0
5991,58.0,0,30,1.0,0.0
5992,69.0,0,60,2.0,0.0
5993,64.0,0,60,15.0,0.0
5994,57.0,0,30,14.0,0.0
5995,57.0,0,30,15.0,0.0
5996,57.0,0,30,10.0,0.0
5997,45.0,0,30,6.0,0.0
5998,57.0,0,30,1.0,0.0
5999,70.0,0,120,15.0,0.0
6000,70.0,0,120,11.0,0.0
6001,62.0,0,120,7.0,0.0
6002,43.0,0,30,6.0,0.0
6003,67.0,0,120,12.0,0.0
6004,55.0,0,30,10.0,0.0
6005,58.0,0,120,10.0,0.0
6006,62.0,0,120,15.0,0.0
6007,67.0,0,120,0.0,0.0
6008,70.0,0,120,2.0,0.0
6009,55.0,0,30,15.0,0.0
6010,58.0,0,120,4.0,0.0
6011,70.0,0,120,0.0,0.0
6012,67.0,0,120,10.0,0.0
6013,55.0,0,30,1.0,0.0
6014,58.0,0,120,1.0,0.0
6015,55.0,30,30,14.0,0.0
6016,67.0,0,120,3.0,0.0
6017,58.0,0,120,13.0,0.0
6018,53.0,30,30,15.0,0.0
6019,53.0,0,30,1.0,0.0
6020,53.0,0,30,10.0,0.0
6021,41.0,0,30,6.0,0.0
6022,53.0,0,30,14.0,0.0
6023,51.0,0,30,1.0,0.0
6024,51.0,0,30,15.0,0.0
6025,39.0,0,30,6.0,0.0
6026,51.0,0,30,14.0,0.0
6027,51.0,30,30,10.0,0.0
6028,50.0,0,30,1.0,0.0
6029,50.0,0,30,14.0,0.0
6030,38.0,0,30,6.0,0.0
6031,50.0,0,30,15.0,0.0
6032,50.0,30,30,10.0,0.0
6033,63.0,0,120,13.0,0.0
6034,63.0,0,120,10.0,0.0
6035,63.0,0,120,4.0,0.0
6036,48.0,0,30,10.0,0.0
6037,36.0,30,30,6.0,0.0
6038,48.0,0,30,15.0,0.0
6039,63.0,0,120,15.0,0.0
6040,67.0,0,120,15.0,0.0
6041,48.0,0,30,1.0,0.0
6042,63.0,0,120,1.0,0.0
6043,48.0,0,30,14.0,0.0
6044,38.0,30,30,6.0,0.0
6045,50.0,0,30,1.0,0.0
6046,50.0,0,30,15.0,0.0
6047,50.0,0,30,14.0,0.0
6048,50.0,0,30,10.0,0.0
6049,34.0,0,30,6.0,0.0
6050,46.0,0,30,1.0,0.0
6051,46.0,0,30,14.0,0.0
6052,46.0,0,30,15.0,0.0
6053,46.0,30,30,10.0,0.0
6054,48.0,0,30,14.0,0.0
6055,36.0,0,30,6.0,0.0
6056,48.0,0,30,10.0,0.0
6057,48.0,0,30,1.0,0.0
6058,48.0,60,30,15.0,0.0
6059,38.0,0,180,6.0,0.0
6060,50.0,0,180,10.0,0.0
6061,69.0,60,60,15.0,0.0
6062,54.0,0,180,13.0,0.0
6063,54.0,0,180,4.0,0.0
6064,66.0,0,240,15.0,0.0
6065,54.0,0,180,1.0,0.0
6066,50.0,0,180,1.0,0.0
6067,50.0,0,180,14.0,0.0
6068,50.0,0,180,15.0,0.0
6069,54.0,0,180,10.0,0.0
6070,63.0,0,60,12.0,0.0
6071,69.0,0,60,11.0,0.0
6072,63.0,0,60,3.0,0.0
6073,63.0,0,60,15.0,0.0
6074,63.0,0,60,10.0,0.0
6075,69.0,0,60,15.0,0.0
6076,69.0,0,60,0.0,0.0
6077,63.0,60,60,0.0,0.0
6078,69.0,0,60,2.0,0.0
6079,69.0,0,60,2.0,0.0
6080,69.0,0,60,15.0,0.0
6081,69.0,0,60,11.0,0.0
6082,62.0,0,60,0.0,0.0
6083,62.0,0,60,10.0,0.0
6084,62.0,0,60,12.0,0.0
6085,69.0,0,60,0.0,0.0
6086,62.0,0,60,15.0,0.0
6087,62.0,60,60,3.0,0.0
6088,50.0,0,60,15.0,0.0
6089,54.0,0,60,13.0,0.0
6090,54.0,0,60,10.0,0.0
6091,69.0,0,60,15.0,0.0
6092,60.0,0,60,15.0,0.0
6093,60.0,0,60,12.0,0.0
6094,60.0,0,60,0.0,0.0
6095,69.0,0,60,0.0,0.0
6096,60.0,0,60,3.0,0.0
6097,60.0,0,60,10.0,0.0
6098,50.0,0,60,14.0,0.0
6099,54.0,0,60,1.0,0.0
6100,38.0,0,60,6.0,0.0
6101,50.0,0,60,1.0,0.0
6102,50.0,0,60,10.0,0.0
6103,69.0,30,60,2.0,0.0
6104,54.0,0,60,4.0,0.0
6105,69.0,0,60,11.0,0.0
6106,58.0,0,60,3.0,0.0
6107,58.0,30,60,0.0,0.0
6108,43.0,0,120,10.0,0.0
6109,70.0,0,30,11.0,0.0
6110,70.0,0,30,0.0,0.0
6111,31.0,0,120,6.0,0.0
6112,55.0,0,120,13.0,0.0
6113,55.0,0,120,1.0,0.0
6114,43.0,0,120,1.0,0.0
6115,55.0,0,120,4.0,0.0
6116,43.0,0,120,15.0,0.0
6117,67.0,0,120,15.0,0.0
6118,43.0,0,120,14.0,0.0
6119,58.0,0,60,10.0,0.0
6120,58.0,0,60,12.0,0.0
6121,62.0,0,120,15.0,0.0
6122,70.0,0,120,15.0,0.0
6123,70.0,30,30,2.0,0.0
6124,72.0,0,30,2.0,0.0
6125,72.0,0,30,0.0,0.0
6126,72.0,0,30,11.0,0.0
6127,70.0,30,30,0.0,0.0
6128,70.0,0,30,11.0,0.0
6129,55.0,0,60,3.0,0.0
6130,70.0,0,30,2.0,0.0
6131,55.0,0,60,0.0,0.0
6132,55.0,0,60,12.0,0.0
6133,55.0,0,60,10.0,0.0
6134,69.0,0,30,2.0,0.0
6135,69.0,30,30,0.0,0.0
6136,69.0,0,30,11.0,0.0
6137,63.0,0,180,0.0,0.0
6138,63.0,0,180,12.0,0.0
6139,70.0,0,30,11.0,0.0
6140,70.0,30,30,0.0,0.0
6141,70.0,0,30,2.0,0.0
6142,63.0,0,180,3.0,0.0
6143,63.0,0,180,10.0,0.0
6144,72.0,0,30,11.0,0.0
6145,72.0,0,30,2.0,0.0
6146,72.0,30,30,0.0,0.0
6147,70.0,0,60,15.0,0.0
6148,55.0,0,60,13.0,0.0
6149,55.0,30,60,15.0,0.0
6150,55.0,0,60,4.0,0.0
6151,69.0,30,30,2.0,0.0
6152,69.0,0,30,0.0,0.0
6153,55.0,0,60,10.0,0.0
6154,69.0,0,30,11.0,0.0
6155,64.0,0,60,15.0,0.0
6156,55.0,0,60,1.0,0.0
6157,55.0,0,60,5.0,0.0
6158,70.0,0,30,0.0,0.0
6159,70.0,0,30,11.0,0.0
6160,70.0,0,30,2.0,0.0
6161,57.0,0,180,5.0,0.0
6162,65.0,0,180,15.0,0.0
6163,72.0,0,30,11.0,0.0
6164,57.0,0,180,15.0,0.0
6165,72.0,0,180,15.0,0.0
6166,57.0,0,180,4.0,0.0
6167,72.0,30,30,0.0,0.0
6168,57.0,0,180,1.0,0.0
6169,57.0,0,180,13.0,0.0
6170,57.0,0,180,10.0,0.0
6171,72.0,0,30,2.0,0.0
6172,74.0,30,30,2.0,0.0
6173,74.0,0,30,0.0,0.0
6174,74.0,0,30,11.0,0.0
6175,72.0,30,30,11.0,0.0
6176,72.0,0,30,2.0,0.0
6177,60.0,0,60,0.0,0.0
6178,60.0,0,60,10.0,0.0
6179,72.0,0,30,0.0,0.0
6180,60.0,0,60,3.0,0.0
6181,60.0,30,60,12.0,0.0
6182,70.0,0,30,0.0,0.0
6183,70.0,0,30,2.0,0.0
6184,70.0,0,30,11.0,0.0
6185,65.0,0,240,12.0,0.0
6186,65.0,0,240,3.0,0.0
6187,65.0,0,240,0.0,0.0
6188,72.0,0,30,0.0,0.0
6189,65.0,0,240,10.0,0.0
6190,72.0,0,30,2.0,0.0
6191,72.0,30,30,11.0,0.0
6192,74.0,30,30,2.0,0.0
6193,74.0,0,30,11.0,0.0
6194,74.0,0,30,0.0,0.0
6195,55.0,0,30,4.0,0.0
6196,70.0,0,30,11.0,0.0
6197,70.0,0,30,2.0,0.0
6198,74.0,0,60,15.0,0.0
6199,55.0,0,30,1.0,0.0
6200,55.0,0,30,5.0,0.0
6201,55.0,0,30,10.0,0.0
6202,70.0,0,60,15.0,0.0
6203,70.0,30,30,0.0,0.0
6204,55.0,0,30,15.0,0.0
6205,55.0,0,30,13.0,0.0
6206,72.0,0,30,2.0,0.0
6207,57.0,60,30,4.0,0.0
6208,57.0,0,30,10.0,0.0
6209,57.0,0,30,15.0,0.0
6210,57.0,0,30,13.0,0.0
6211,57.0,0,30,1.0,0.0
6212,72.0,0,30,0.0,0.0
6213,72.0,0,30,11.0,0.0
6214,57.0,0,30,5.0,0.0
6215,74.0,0,60,11.0,0.0
6216,58.0,0,60,4.0,0.0
6217,58.0,0,60,15.0,0.0
6218,74.0,0,120,15.0,0.0
6219,65.0,0,120,15.0,0.0
6220,74.0,0,60,2.0,0.0
6221,58.0,0,60,10.0,0.0
6222,58.0,0,60,5.0,0.0
6223,58.0,0,60,1.0,0.0
6224,74.0,0,60,0.0,0.0
6225,58.0,30,60,13.0,0.0
6226,75.0,0,30,0.0,0.0
6227,57.0,30,30,10.0,0.0
6228,75.0,0,30,11.0,0.0
6229,57.0,0,30,4.0,0.0
6230,57.0,0,30,13.0,0.0
6231,75.0,0,30,2.0,0.0
6232,57.0,0,30,5.0,0.0
6233,57.0,0,30,1.0,0.0
6234,57.0,0,30,15.0,0.0
6235,74.0,0,30,11.0,0.0
6236,58.0,0,30,15.0,0.0
6237,74.0,30,30,2.0,0.0
6238,58.0,0,30,10.0,0.0
6239,58.0,0,30,5.0,0.0
6240,58.0,0,30,4.0,0.0
6241,58.0,0,30,1.0,0.0
6242,74.0,0,30,0.0,0.0
6243,58.0,0,30,13.0,0.0
6244,72.0,0,30,2.0,0.0
6245,60.0,0,60,13.0,0.0
6246,60.0,0,60,1.0,0.0
6247,63.0,0,120,15.0,0.0
6248,63.0,0,120,3.0,0.0
6249,60.0,30,60,15.0,0.0
6250,67.0,0,120,15.0,0.0
6251,60.0,0,60,4.0,0.0
6252,64.0,0,120,12.0,0.0
6253,72.0,0,30,0.0,0.0
6254,63.0,0,120,0.0,0.0
6255,64.0,0,120,10.0,0.0
6256,60.0,0,60,5.0,0.0
6257,72.0,30,30,11.0,0.0
6258,60.0,0,60,10.0,0.0
6259,70.0,0,30,2.0,0.0
6260,70.0,0,30,0.0,0.0
6261,70.0,0,30,11.0,0.0
6262,69.0,0,30,0.0,0.0
6263,58.0,30,30,5.0,0.0
6264,58.0,0,30,1.0,0.0
6265,58.0,0,30,13.0,0.0
6266,69.0,0,30,11.0,0.0
6267,58.0,0,30,15.0,0.0
6268,69.0,0,30,2.0,0.0
6269,58.0,0,30,4.0,0.0
6270,58.0,0,30,10.0,0.0
6271,67.0,0,30,2.0,0.0
6272,60.0,60,30,1.0,0.0
6273,67.0,0,30,0.0,0.0
6274,60.0,0,30,15.0,0.0
6275,60.0,0,30,4.0,0.0
6276,60.0,0,30,10.0,0.0
6277,67.0,0,30,11.0,0.0
6278,60.0,0,30,5.0,0.0
6279,60.0,0,30,13.0,0.0
6280,66.0,0,60,15.0,0.0
6281,69.0,0,60,15.0,0.0
6282,62.0,0,60,15.0,0.0
6283,66.0,0,60,0.0,0.0
6284,62.0,60,60,0.0,0.0
6285,62.0,0,60,13.0,0.0
6286,66.0,0,60,2.0,0.0
6287,62.0,0,60,10.0,0.0
6288,62.0,0,60,3.0,0.0
6289,66.0,0,60,11.0,0.0
6290,62.0,0,60,4.0,0.0
6291,62.0,0,60,12.0,0.0
6292,62.0,0,60,1.0,0.0
6293,62.0,0,60,5.0,0.0
6294,66.0,0,60,10.0,0.0
6295,66.0,0,60,3.0,0.0
6296,62.0,0,60,15.0,0.0
6297,60.0,0,60,15.0,0.0
6298,60.0,0,60,10.0,0.0
6299,69.0,0,60,2.0,0.0
6300,66.0,60,60,15.0,0.0
6301,60.0,0,60,13.0,0.0
6302,69.0,0,60,0.0,0.0
6303,66.0,0,60,12.0,0.0
6304,60.0,0,60,5.0,0.0
6305,60.0,0,60,1.0,0.0
6306,60.0,0,60,4.0,0.0
6307,69.0,0,60,11.0,0.0
6308,66.0,0,60,0.0,0.0
6309,74.0,0,60,11.0,0.0
6310,74.0,0,60,2.0,0.0
6311,58.0,0,60,5.0,0.0
6312,67.0,60,60,3.0,0.0
6313,67.0,0,60,12.0,0.0
6314,58.0,0,60,10.0,0.0
6315,58.0,0,60,15.0,0.0
6316,74.0,0,60,15.0,0.0
6317,58.0,0,60,1.0,0.0
6318,67.0,0,60,10.0,0.0
6319,67.0,0,60,15.0,0.0
6320,74.0,0,60,0.0,0.0
6321,58.0,0,60,4.0,0.0
6322,58.0,0,60,13.0,0.0
6323,67.0,0,60,0.0,0.0
6324,72.0,0,60,15.0,0.0
6325,66.0,0,60,15.0,0.0
6326,57.0,0,60,13.0,0.0
6327,69.0,60,60,12.0,0.0
6328,69.0,0,60,3.0,0.0
6329,57.0,0,60,4.0,0.0
6330,57.0,0,60,15.0,0.0
6331,72.0,0,60,11.0,0.0
6332,57.0,0,60,10.0,0.0
6333,69.0,0,60,10.0,0.0
6334,72.0,0,60,0.0,0.0
6335,69.0,0,60,0.0,0.0
6336,57.0,0,60,5.0,0.0
6337,72.0,0,60,2.0,0.0
6338,57.0,0,60,1.0,0.0
6339,62.0,0,60,10.0,0.0
6340,70.0,60,60,2.0,0.0
6341,43.0,0,180,6.0,0.0
6342,55.0,0,60,10.0,0.0
6343,55.0,0,180,14.0,0.0
6344,70.0,0,60,11.0,0.0
6345,62.0,0,60,3.0,0.0
6346,55.0,0,60,4.0,0.0
6347,55.0,0,180,15.0,0.0
6348,70.0,0,60,15.0,0.0
6349,62.0,0,60,15.0,0.0
6350,62.0,0,60,0.0,0.0
6351,55.0,0,60,13.0,0.0
6352,62.0,0,60,12.0,0.0
6353,70.0,0,60,0.0,0.0
6354,55.0,0,60,1.0,0.0
6355,68.0,0,60,3.0,0.0
6356,71.0,0,60,11.0,0.0
6357,65.0,0,60,1.0,0.0
6358,65.0,0,60,10.0,0.0
6359,71.0,0,60,2.0,0.0
6360,65.0,0,60,13.0,0.0
6361,71.0,0,60,0.0,0.0
6362,68.0,0,60,0.0,0.0
6363,60.0,0,60,15.0,0.0
6364,71.0,60,60,15.0,0.0
6365,68.0,0,60,10.0,0.0
6366,65.0,0,60,4.0,0.0
6367,68.0,0,60,12.0,0.0
6368,68.0,0,60,15.0,0.0
6369,67.0,0,120,10.0,0.0
6370,67.0,0,120,0.0,0.0
6371,72.0,0,60,0.0,0.0
6372,67.0,0,120,3.0,0.0
6373,67.0,0,120,12.0,0.0
6374,63.0,0,60,13.0,0.0
6375,63.0,0,60,15.0,0.0
6376,72.0,0,60,15.0,0.0
6377,72.0,0,60,11.0,0.0
6378,63.0,0,60,10.0,0.0
6379,72.0,0,60,2.0,0.0
6380,63.0,0,60,1.0,0.0
6381,63.0,0,60,4.0,0.0
6382,67.0,0,60,15.0,0.0
6383,59.0,0,60,13.0,0.0
6384,59.0,0,60,4.0,0.0
6385,59.0,0,60,10.0,0.0
6386,55.0,0,60,14.0,0.0
6387,74.0,0,60,15.0,0.0
6388,55.0,0,60,15.0,0.0
6389,67.0,30,60,15.0,0.0
6390,43.0,0,60,6.0,0.0
6391,74.0,0,60,11.0,0.0
6392,74.0,0,60,2.0,0.0
6393,55.0,0,60,1.0,0.0
6394,59.0,0,60,1.0,0.0
6395,55.0,0,60,10.0,0.0
6396,59.0,0,60,15.0,0.0
6397,74.0,0,60,0.0,0.0
6398,51.0,0,120,1.0,0.0
6399,60.0,0,60,1.0,0.0
6400,60.0,0,60,13.0,0.0
6401,51.0,0,120,10.0,0.0
6402,75.0,30,30,0.0,0.0
6403,51.0,0,120,14.0,0.0
6404,72.0,0,120,15.0,0.0
6405,51.0,0,120,15.0,0.0
6406,67.0,0,120,15.0,0.0
6407,60.0,0,60,10.0,0.0
6408,60.0,0,60,4.0,0.0
6409,39.0,0,120,6.0,0.0
6410,75.0,0,30,11.0,0.0
6411,75.0,0,30,2.0,0.0
6412,74.0,45,30,11.0,0.0
6413,74.0,0,30,0.0,0.0
6414,74.0,0,30,2.0,0.0
6415,67.0,15,60,1.0,0.0
6416,72.0,30,60,11.0,0.0
6417,67.0,0,60,4.0,0.0
6418,67.0,0,60,10.0,0.0
6419,67.0,0,60,13.0,0.0
6420,72.0,0,60,0.0,0.0
6421,72.0,0,60,2.0,0.0
6422,72.0,0,120,15.0,0.0
6423,56.0,0,120,15.0,0.0
6424,65.0,0,120,15.0,0.0
6425,65.0,0,30,10.0,0.0
6426,56.0,0,120,14.0,0.0
6427,56.0,0,120,1.0,0.0
6428,65.0,30,30,1.0,0.0
6429,65.0,0,30,4.0,0.0
6430,56.0,0,120,10.0,0.0
6431,65.0,0,30,13.0,0.0
6432,44.0,30,120,6.0,0.0
6433,63.0,30,30,10.0,0.0
6434,63.0,0,30,1.0,0.0
6435,63.0,0,30,4.0,0.0
6436,63.0,0,30,13.0,0.0
6437,62.0,0,30,13.0,0.0
6438,62.0,0,30,1.0,0.0
6439,62.0,30,30,4.0,0.0
6440,62.0,0,30,10.0,0.0
6441,60.0,0,30,13.0,0.0
6442,60.0,0,30,1.0,0.0
6443,60.0,0,30,4.0,0.0
6444,60.0,0,30,10.0,0.0
6445,47.0,0,180,1.0,0.0
6446,62.0,0,30,1.0,0.0
6447,35.0,0,180,6.0,0.0
6448,62.0,30,30,10.0,0.0
6449,47.0,0,180,14.0,0.0
6450,47.0,0,180,10.0,0.0
6451,71.0,30,120,15.0,0.0
6452,62.0,0,120,15.0,0.0
6453,47.0,0,180,15.0,0.0
6454,62.0,0,30,13.0,0.0
6455,65.0,0,120,15.0,0.0
6456,62.0,0,30,4.0,0.0
6457,60.0,0,30,1.0,0.0
6458,60.0,0,30,13.0,0.0
6459,60.0,0,30,10.0,0.0
6460,60.0,30,30,4.0,0.0
6461,62.0,0,60,12.0,0.0
6462,62.0,0,60,0.0,0.0
6463,59.0,0,30,1.0,0.0
6464,59.0,0,30,10.0,0.0
6465,62.0,0,60,10.0,0.0
6466,59.0,30,30,4.0,0.0
6467,62.0,0,60,3.0,0.0
6468,59.0,0,30,13.0,0.0
6469,57.0,0,30,13.0,0.0
6470,57.0,0,30,10.0,0.0
6471,57.0,0,30,1.0,0.0
6472,57.0,0,30,4.0,0.0
6473,62.0,0,120,15.0,0.0
6474,67.0,0,60,15.0,0.0
6475,71.0,0,120,15.0,0.0
6476,55.0,0,30,13.0,0.0
6477,55.0,0,30,10.0,0.0
6478,55.0,30,30,1.0,0.0
6479,62.0,0,60,0.0,0.0
6480,55.0,0,30,4.0,0.0
6481,62.0,0,60,10.0,0.0
6482,62.0,0,60,3.0,0.0
6483,62.0,0,60,12.0,0.0
6484,56.0,30,30,10.0,0.0
6485,56.0,0,30,4.0,0.0
6486,56.0,0,30,1.0,0.0
6487,56.0,0,30,13.0,0.0
6488,62.0,0,60,0.0,0.0
6489,47.0,0,60,1.0,0.0
6490,47.0,30,60,15.0,0.0
6491,53.0,0,30,13.0,0.0
6492,62.0,0,60,3.0,0.0
6493,65.0,0,60,15.0,0.0
6494,53.0,30,30,1.0,0.0
6495,47.0,0,60,14.0,0.0
6496,53.0,0,30,10.0,0.0
6497,62.0,0,60,10.0,0.0
6498,35.0,0,60,6.0,0.0
6499,53.0,0,30,4.0,0.0
6500,47.0,0,60,10.0,0.0
6501,62.0,0,60,12.0,0.0
6502,55.0,0,30,10.0,0.0
6503,55.0,0,30,13.0,0.0
6504,55.0,0,30,1.0,0.0
6505,55.0,0,30,4.0,0.0
6506,51.0,0,60,4.0,0.0
6507,63.0,0,30,3.0,0.0
6508,51.0,0,60,13.0,0.0
6509,51.0,0,60,1.0,0.0
6510,51.0,0,60,10.0,0.0
6511,63.0,30,30,12.0,0.0
6512,63.0,0,120,15.0,0.0
6513,67.0,0,120,15.0,0.0
6514,63.0,0,30,10.0,0.0
6515,63.0,0,30,0.0,0.0
6516,48.0,0,120,14.0,0.0
6517,36.0,0,120,6.0,0.0
6518,48.0,0,120,15.0,0.0
6519,65.0,0,30,10.0,0.0
6520,65.0,0,30,12.0,0.0
6521,65.0,0,30,0.0,0.0
6522,65.0,30,30,3.0,0.0
6523,48.0,0,60,10.0,0.0
6524,48.0,0,60,13.0,0.0
6525,63.0,30,30,10.0,0.0
6526,63.0,0,30,12.0,0.0
6527,63.0,0,30,0.0,0.0
6528,63.0,0,30,3.0,0.0
6529,48.0,0,60,4.0,0.0
6530,48.0,0,60,1.0,0.0
6531,62.0,0,30,12.0,0.0
6532,62.0,30,30,10.0,0.0
6533,62.0,0,30,3.0,0.0
6534,62.0,0,30,0.0,0.0
6535,63.0,30,30,10.0,0.0
6536,56.0,0,180,10.0,0.0
6537,56.0,0,180,4.0,0.0
6538,56.0,0,180,13.0,0.0
6539,56.0,0,180,1.0,0.0
6540,63.0,0,30,0.0,0.0
6541,63.0,0,30,12.0,0.0
6542,63.0,0,30,3.0,0.0
6543,65.0,0,30,0.0,0.0
6544,65.0,0,30,12.0,0.0
6545,65.0,0,30,10.0,0.0
6546,65.0,30,30,3.0,0.0
6547,48.0,30,60,1.0,0.0
6548,62.0,0,30,0.0,0.0
6549,62.0,0,30,3.0,0.0
6550,48.0,0,60,14.0,0.0
6551,63.0,0,60,15.0,0.0
6552,48.0,0,60,10.0,0.0
6553,62.0,0,30,10.0,0.0
6554,36.0,0,60,6.0,0.0
6555,62.0,30,30,12.0,0.0
6556,68.0,0,60,15.0,0.0
6557,48.0,0,60,15.0,0.0
6558,63.0,0,30,3.0,0.0
6559,63.0,0,30,0.0,0.0
6560,63.0,0,30,12.0,0.0
6561,63.0,0,30,10.0,0.0
6562,65.0,0,30,10.0,0.0
6563,65.0,0,30,0.0,0.0
6564,50.0,0,180,10.0,0.0
6565,50.0,0,180,1.0,0.0
6566,50.0,0,180,14.0,0.0
6567,65.0,0,120,15.0,0.0
6568,65.0,0,30,3.0,0.0
6569,65.0,30,30,12.0,0.0
6570,50.0,0,180,15.0,0.0
6571,38.0,0,180,6.0,0.0
6572,68.0,0,120,15.0,0.0
6573,67.0,0,30,0.0,0.0
6574,67.0,0,30,12.0,0.0
6575,67.0,0,30,10.0,0.0
6576,67.0,30,30,3.0,0.0
6577,53.0,0,60,13.0,0.0
6578,65.0,0,30,10.0,0.0
6579,53.0,0,60,10.0,0.0
6580,53.0,0,60,1.0,0.0
6581,65.0,0,30,0.0,0.0
6582,53.0,0,60,4.0,0.0
6583,65.0,30,30,12.0,0.0
6584,65.0,0,30,3.0,0.0
6585,63.0,0,30,10.0,0.0
6586,63.0,0,30,12.0,0.0
6587,63.0,30,30,0.0,0.0
6588,63.0,0,30,3.0,0.0
6589,65.0,0,30,12.0,0.0
6590,58.0,0,240,4.0,0.0
6591,65.0,30,30,10.0,0.0
6592,58.0,0,240,1.0,0.0
6593,65.0,0,60,15.0,0.0
6594,65.0,0,30,3.0,0.0
6595,58.0,0,240,13.0,0.0
6596,65.0,0,30,0.0,0.0
6597,58.0,0,240,10.0,0.0
6598,70.0,0,60,15.0,0.0
6599,67.0,0,30,10.0,0.0
6600,67.0,30,30,0.0,0.0
6601,67.0,0,30,12.0,0.0
6602,67.0,0,30,3.0,0.0
6603,63.0,0,60,15.0,0.0
6604,48.0,0,30,10.0,0.0
6605,36.0,0,30,6.0,0.0
6606,63.0,30,30,12.0,0.0
6607,48.0,0,30,15.0,0.0
6608,67.0,0,60,15.0,0.0
6609,63.0,0,30,10.0,0.0
6610,48.0,0,30,14.0,0.0
6611,48.0,0,30,1.0,0.0
6612,63.0,0,30,0.0,0.0
6613,63.0,0,30,3.0,0.0
6614,65.0,60,30,10.0,0.0
6615,65.0,0,30,3.0,0.0
6616,50.0,0,30,1.0,0.0
6617,50.0,0,30,10.0,0.0
6618,65.0,0,30,0.0,0.0
6619,50.0,0,30,15.0,0.0
6620,65.0,0,30,12.0,0.0
6621,38.0,0,30,6.0,0.0
6622,50.0,0,30,14.0,0.0
6623,51.0,0,60,15.0,0.0
6624,67.0,0,120,15.0,0.0
6625,58.0,0,120,15.0,0.0
6626,51.0,0,60,1.0,0.0
6627,39.0,0,60,6.0,0.0
6628,67.0,0,60,12.0,0.0
6629,51.0,0,60,10.0,0.0
6630,51.0,0,60,14.0,0.0
6631,67.0,0,60,10.0,0.0
6632,67.0,0,60,0.0,0.0
6633,67.0,30,60,3.0,0.0
6634,50.0,0,30,10.0,0.0
6635,68.0,0,30,10.0,0.0
6636,50.0,30,30,1.0,0.0
6637,50.0,0,30,14.0,0.0
6638,38.0,0,30,6.0,0.0
6639,68.0,0,30,0.0,0.0
6640,68.0,0,30,12.0,0.0
6641,50.0,0,30,15.0,0.0
6642,68.0,0,30,3.0,0.0
6643,67.0,0,30,3.0,0.0
6644,51.0,0,30,10.0,0.0
6645,51.0,30,30,1.0,0.0
6646,51.0,0,30,14.0,0.0
6647,67.0,0,30,12.0,0.0
6648,39.0,0,30,6.0,0.0
6649,67.0,0,30,10.0,0.0
6650,51.0,0,30,15.0,0.0
6651,67.0,0,30,0.0,0.0
6652,56.0,0,120,4.0,0.0
6653,53.0,0,60,15.0,0.0
6654,65.0,0,30,0.0,0.0
6655,53.0,0,60,14.0,0.0
6656,60.0,0,120,15.0,0.0
6657,56.0,0,120,10.0,0.0
6658,65.0,30,30,12.0,0.0
6659,56.0,0,120,15.0,0.0
6660,56.0,0,120,13.0,0.0
6661,41.0,0,60,6.0,0.0
6662,65.0,0,30,10.0,0.0
6663,53.0,0,60,1.0,0.0
6664,56.0,0,120,1.0,0.0
6665,53.0,0,60,10.0,0.0
6666,65.0,0,30,3.0,0.0
6667,63.0,0,30,0.0,0.0
6668,63.0,0,30,10.0,0.0
6669,63.0,30,30,3.0,0.0
6670,63.0,0,30,12.0,0.0
6671,62.0,0,30,12.0,0.0
6672,62.0,0,30,10.0,0.0
6673,51.0,0,30,15.0,0.0
6674,62.0,0,30,0.0,0.0
6675,51.0,0,30,1.0,0.0
6676,62.0,0,30,3.0,0.0
6677,51.0,30,30,14.0,0.0
6678,51.0,0,30,10.0,0.0
6679,39.0,0,30,6.0,0.0
6680,60.0,0,30,0.0,0.0
6681,41.0,0,30,6.0,0.0
6682,53.0,0,30,14.0,0.0
6683,60.0,0,30,3.0,0.0
6684,53.0,0,30,1.0,0.0
6685,60.0,0,30,10.0,0.0
6686,60.0,0,30,12.0,0.0
6687,53.0,0,30,15.0,0.0
6688,53.0,60,30,10.0,0.0
6689,55.0,0,60,1.0,0.0
6690,55.0,0,60,13.0,0.0
6691,59.0,0,60,3.0,0.0
6692,43.0,0,60,6.0,0.0
6693,55.0,0,60,15.0,0.0
6694,62.0,0,60,15.0,0.0
6695,55.0,0,60,10.0,0.0
6696,59.0,30,60,0.0,0.0
6697,59.0,0,60,15.0,0.0
6698,55.0,0,60,14.0,0.0
6699,55.0,0,60,4.0,0.0
6700,59.0,0,60,12.0,0.0
6701,59.0,0,60,10.0,0.0
6702,62.0,60,60,3.0,0.0
6703,57.0,30,30,4.0,0.0
6704,53.0,0,60,10.0,0.0
6705,53.0,0,60,14.0,0.0
6706,62.0,0,60,10.0,0.0
6707,57.0,0,30,13.0,0.0
6708,57.0,0,30,10.0,0.0
6709,62.0,0,60,12.0,0.0
6710,60.0,0,60,0.0,0.0
6711,41.0,0,60,6.0,0.0
6712,67.0,0,60,15.0,0.0
6713,59.0,0,60,15.0,0.0
6714,57.0,0,30,1.0,0.0
6715,53.0,0,60,1.0,0.0
6716,53.0,0,60,15.0,0.0
6717,59.0,0,30,10.0,0.0
6718,59.0,0,30,1.0,0.0
6719,59.0,0,30,13.0,0.0
6720,59.0,0,30,4.0,0.0
6721,67.0,0,60,3.0,0.0
6722,51.0,0,60,1.0,0.0
6723,67.0,0,60,12.0,0.0
6724,60.0,0,60,15.0,0.0
6725,67.0,0,60,15.0,0.0
6726,51.0,0,60,15.0,0.0
6727,51.0,0,60,14.0,0.0
6728,60.0,0,60,1.0,0.0
6729,67.0,0,60,10.0,0.0
6730,60.0,0,60,13.0,0.0
6731,51.0,0,60,10.0,0.0
6732,39.0,0,60,6.0,0.0
6733,60.0,0,60,4.0,0.0
6734,60.0,0,60,10.0,0.0
6735,67.0,60,60,0.0,0.0
6736,62.0,0,60,4.0,0.0
6737,65.0,0,60,0.0,0.0
6738,38.0,0,60,6.0,0.0
6739,65.0,0,60,3.0,0.0
6740,65.0,0,60,15.0,0.0
6741,62.0,30,60,13.0,0.0
6742,59.0,0,60,15.0,0.0
6743,65.0,0,60,10.0,0.0
6744,50.0,0,60,1.0,0.0
6745,62.0,0,60,1.0,0.0
6746,65.0,0,60,12.0,0.0
6747,62.0,0,60,10.0,0.0
6748,50.0,0,60,10.0,0.0
6749,50.0,0,60,15.0,0.0
6750,50.0,0,60,14.0,0.0
6751,63.0,0,180,3.0,0.0
6752,48.0,0,60,14.0,0.0
6753,63.0,60,180,0.0,0.0
6754,36.0,0,60,6.0,0.0
6755,63.0,0,30,4.0,0.0
6756,63.0,30,30,1.0,0.0
6757,48.0,0,60,1.0,0.0
6758,48.0,30,60,15.0,0.0
6759,63.0,0,120,15.0,0.0
6760,63.0,0,180,12.0,0.0
6761,63.0,0,30,10.0,0.0
6762,67.0,0,120,15.0,0.0
6763,63.0,0,30,13.0,0.0
6764,48.0,0,60,10.0,0.0
6765,62.0,0,30,1.0,0.0
6766,62.0,0,30,4.0,0.0
6767,62.0,0,30,13.0,0.0
6768,62.0,0,30,10.0,0.0
6769,60.0,0,30,1.0,0.0
6770,50.0,30,30,1.0,0.0
6771,60.0,0,30,4.0,0.0
6772,60.0,0,30,10.0,0.0
6773,38.0,0,30,6.0,0.0
6774,50.0,0,30,10.0,0.0
6775,50.0,0,30,15.0,0.0
6776,50.0,0,30,14.0,0.0
6777,60.0,0,30,13.0,0.0
6778,51.0,0,30,10.0,0.0
6779,58.0,0,30,4.0,0.0
6780,39.0,0,30,6.0,0.0
6781,51.0,0,30,1.0,0.0
6782,58.0,0,30,10.0,0.0
6783,51.0,0,30,14.0,0.0
6784,58.0,0,30,1.0,0.0
6785,58.0,0,30,13.0,0.0
6786,51.0,60,30,15.0,0.0
6787,60.0,0,60,15.0,0.0
6788,57.0,0,60,1.0,0.0
6789,41.0,0,180,6.0,0.0
6790,63.0,0,60,15.0,0.0
6791,53.0,0,180,1.0,0.0
6792,53.0,60,180,10.0,0.0
6793,57.0,0,60,4.0,0.0
6794,57.0,0,60,13.0,0.0
6795,53.0,0,180,15.0,0.0
6796,57.0,0,60,15.0,0.0
6797,53.0,0,180,14.0,0.0
6798,57.0,0,60,10.0,0.0
6799,58.0,0,120,4.0,0.0
6800,58.0,0,120,10.0,0.0
6801,62.0,0,60,3.0,0.0
6802,62.0,0,60,10.0,0.0
6803,58.0,0,120,1.0,0.0
6804,62.0,0,60,12.0,0.0
6805,58.0,60,60,15.0,0.0
6806,62.0,0,60,0.0,0.0
6807,62.0,0,60,15.0,0.0
6808,58.0,0,120,13.0,0.0
6809,60.0,0,60,15.0,0.0
6810,57.0,0,60,15.0,0.0
6811,77.0,0,180,0.0,0.0
6812,77.0,0,180,2.0,0.0
6813,60.0,0,60,12.0,0.0
6814,77.0,0,180,11.0,0.0
6815,60.0,0,60,10.0,0.0
6816,60.0,0,60,0.0,0.0
6817,60.0,0,60,3.0,0.0
6818,39.0,0,60,6.0,0.0
6819,57.0,0,60,4.0,0.0
6820,65.0,0,60,0.0,0.0
6821,57.0,0,60,1.0,0.0
6822,51.0,0,60,1.0,0.0
6823,57.0,0,60,10.0,0.0
6824,51.0,0,60,10.0,0.0
6825,65.0,60,60,12.0,0.0
6826,51.0,0,60,15.0,0.0
6827,65.0,0,60,15.0,0.0
6828,65.0,0,60,10.0,0.0
6829,51.0,0,60,14.0,0.0
6830,57.0,0,60,13.0,0.0
6831,65.0,0,60,3.0,0.0
6832,69.0,0,60,15.0,0.0
6833,60.0,0,60,15.0,0.0
6834,67.0,0,60,3.0,0.0
6835,50.0,0,60,1.0,0.0
6836,58.0,0,60,1.0,0.0
6837,67.0,0,60,12.0,0.0
6838,67.0,0,60,0.0,0.0
6839,58.0,0,60,10.0,0.0
6840,38.0,0,60,6.0,0.0
6841,50.0,0,60,14.0,0.0
6842,67.0,0,60,10.0,0.0
6843,58.0,0,60,13.0,0.0
6844,50.0,0,60,15.0,0.0
6845,58.0,0,60,4.0,0.0
6846,65.0,0,60,15.0,0.0
6847,58.0,0,60,15.0,0.0
6848,50.0,60,60,10.0,0.0
6849,69.0,0,60,3.0,0.0
6850,48.0,0,60,15.0,0.0
6851,60.0,0,60,4.0,0.0
6852,65.0,0,60,15.0,0.0
6853,69.0,0,60,15.0,0.0
6854,69.0,0,60,10.0,0.0
6855,60.0,0,60,15.0,0.0
6856,48.0,0,60,10.0,0.0
6857,60.0,0,60,13.0,0.0
6858,77.0,0,60,11.0,0.0
6859,36.0,0,60,6.0,0.0
6860,69.0,0,60,12.0,0.0
6861,77.0,0,60,0.0,0.0
6862,60.0,0,60,1.0,0.0
6863,69.0,0,60,0.0,0.0
6864,48.0,0,60,14.0,0.0
6865,77.0,0,60,2.0,0.0
6866,48.0,0,60,1.0,0.0
6867,60.0,60,60,10.0,0.0
6868,70.0,0,60,12.0,0.0
6869,70.0,0,60,3.0,0.0
6870,34.0,30,60,6.0,0.0
6871,65.0,30,120,15.0,0.0
6872,46.0,0,60,1.0,0.0
6873,74.0,0,120,2.0,0.0
6874,62.0,0,120,1.0,0.0
6875,62.0,0,120,4.0,0.0
6876,74.0,0,120,11.0,0.0
6877,70.0,0,60,0.0,0.0
6878,74.0,0,120,0.0,0.0
6879,62.0,0,120,13.0,0.0
6880,70.0,0,60,10.0,0.0
6881,46.0,0,60,10.0,0.0
6882,62.0,0,120,10.0,0.0
6883,70.0,0,120,15.0,0.0
6884,46.0,0,60,15.0,0.0
6885,74.0,0,120,15.0,0.0
6886,46.0,0,60,14.0,0.0
6887,58.0,0,60,3.0,0.0
6888,55.0,0,30,15.0,0.0
6889,58.0,0,60,10.0,0.0
6890,58.0,0,60,12.0,0.0
6891,58.0,0,60,0.0,0.0
6892,55.0,30,30,10.0,0.0
6893,55.0,0,30,14.0,0.0
6894,43.0,0,30,6.0,0.0
6895,55.0,0,30,1.0,0.0
6896,53.0,0,30,1.0,0.0
6897,53.0,0,30,15.0,0.0
6898,53.0,0,30,10.0,0.0
6899,53.0,0,30,14.0,0.0
6900,41.0,0,30,6.0,0.0
6901,70.0,0,90,15.0,0.0
6902,79.0,0,120,11.0,0.0
6903,51.0,0,30,10.0,0.0
6904,51.0,0,30,15.0,0.0
6905,51.0,30,30,14.0,0.0
6906,51.0,0,30,1.0,0.0
6907,63.0,0,90,0.0,0.0
6908,67.0,0,90,15.0,0.0
6909,79.0,0,120,0.0,0.0
6910,63.0,0,90,3.0,0.0
6911,39.0,0,30,6.0,0.0
6912,63.0,0,90,12.0,0.0
6913,79.0,0,120,2.0,0.0
6914,63.0,0,90,10.0,0.0
6915,48.0,0,30,1.0,0.0
6916,48.0,0,30,10.0,0.0
6917,48.0,0,30,15.0,0.0
6918,36.0,30,30,6.0,0.0
6919,48.0,0,30,14.0,0.0
6920,50.0,0,30,1.0,0.0
6921,50.0,0,30,15.0,0.0
6922,50.0,0,30,14.0,0.0
6923,38.0,0,30,6.0,0.0
6924,50.0,30,30,10.0,0.0
6925,62.0,0,30,10.0,0.0
6926,62.0,0,30,15.0,0.0
6927,51.0,0,30,10.0,0.0
6928,51.0,0,30,1.0,0.0
6929,62.0,0,30,12.0,0.0
6930,67.0,0,30,15.0,0.0
6931,51.0,60,30,15.0,0.0
6932,70.0,0,30,15.0,0.0
6933,51.0,0,30,14.0,0.0
6934,62.0,0,30,3.0,0.0
6935,39.0,0,30,6.0,0.0
6936,62.0,0,30,0.0,0.0
6937,53.0,0,120,14.0,0.0
6938,60.0,0,60,12.0,0.0
6939,53.0,0,60,15.0,0.0
6940,69.0,0,180,11.0,0.0
6941,65.0,0,60,15.0,0.0
6942,69.0,0,180,2.0,0.0
6943,69.0,0,180,0.0,0.0
6944,60.0,60,60,0.0,0.0
6945,60.0,0,60,15.0,0.0
6946,69.0,0,60,15.0,0.0
6947,60.0,0,60,10.0,0.0
6948,60.0,0,60,3.0,0.0
6949,41.0,0,60,6.0,0.0
6950,53.0,0,60,5.0,0.0
6951,53.0,0,60,1.0,0.0
6952,60.0,0,60,12.0,0.0
6953,60.0,0,60,3.0,0.0
6954,53.0,0,60,4.0,0.0
6955,53.0,0,60,13.0,0.0
6956,60.0,0,180,15.0,0.0
6957,69.0,0,180,15.0,0.0
6958,53.0,0,60,15.0,0.0
6959,60.0,0,60,10.0,0.0
6960,65.0,0,180,15.0,0.0
6961,53.0,0,60,10.0,0.0
6962,60.0,0,60,0.0,0.0
6963,65.0,0,180,10.0,0.0
6964,53.0,0,60,15.0,0.0
6965,53.0,0,60,4.0,0.0
6966,65.0,0,180,3.0,0.0
6967,53.0,0,60,10.0,0.0
6968,53.0,60,60,1.0,0.0
6969,53.0,0,60,5.0,0.0
6970,53.0,0,60,13.0,0.0
6971,65.0,0,180,12.0,0.0
6972,65.0,0,180,0.0,0.0
6973,53.0,0,60,5.0,0.0
6974,53.0,0,60,10.0,0.0
6975,53.0,0,60,13.0,0.0
6976,69.0,30,60,0.0,0.0
6977,53.0,0,60,1.0,0.0
6978,69.0,0,60,2.0,0.0
6979,53.0,0,60,15.0,0.0
6980,69.0,0,60,11.0,0.0
6981,53.0,0,60,4.0,0.0
6982,70.0,0,60,15.0,0.0
6983,55.0,0,30,15.0,0.0
6984,55.0,0,30,4.0,0.0
6985,55.0,0,30,1.0,0.0
6986,55.0,0,30,13.0,0.0
6987,55.0,30,30,10.0,0.0
6988,74.0,0,60,15.0,0.0
6989,55.0,0,30,5.0,0.0
6990,70.0,30,120,2.0,0.0
6991,70.0,0,120,0.0,0.0
6992,70.0,0,120,11.0,0.0
6993,65.0,0,60,15.0,0.0
6994,57.0,0,30,10.0,0.0
6995,57.0,0,30,4.0,0.0
6996,57.0,0,30,1.0,0.0
6997,57.0,0,30,15.0,0.0
6998,57.0,0,30,5.0,0.0
6999,57.0,30,30,13.0,0.0
7000,70.0,0,180,15.0,0.0
7001,63.0,0,180,15.0,0.0
7002,55.0,0,30,1.0,0.0
7003,55.0,0,30,10.0,0.0
7004,63.0,0,30,10.0,0.0
7005,63.0,0,30,12.0,0.0
7006,55.0,30,30,15.0,0.0
7007,55.0,0,30,13.0,0.0
7008,55.0,0,30,4.0,0.0
7009,63.0,0,30,0.0,0.0
7010,55.0,0,30,5.0,0.0
7011,63.0,0,30,3.0,0.0
7012,53.0,0,30,13.0,0.0
7013,53.0,0,30,1.0,0.0
7014,53.0,0,30,4.0,0.0
7015,53.0,0,30,15.0,0.0
7016,53.0,0,30,10.0,0.0
7017,62.0,0,30,10.0,0.0
7018,62.0,0,30,3.0,0.0
7019,62.0,0,30,12.0,0.0
7020,53.0,0,30,5.0,0.0
7021,62.0,0,30,0.0,0.0
7022,63.0,0,30,10.0,0.0
7023,63.0,0,30,3.0,0.0
7024,55.0,30,30,4.0,0.0
7025,55.0,0,30,13.0,0.0
7026,55.0,0,30,5.0,0.0
7027,55.0,0,30,15.0,0.0
7028,55.0,0,30,1.0,0.0
7029,63.0,0,30,0.0,0.0
7030,55.0,0,30,10.0,0.0
7031,63.0,0,30,12.0,0.0
7032,57.0,0,30,1.0,0.0
7033,65.0,0,30,0.0,0.0
7034,57.0,0,30,15.0,0.0
7035,57.0,0,30,5.0,0.0
7036,57.0,0,30,13.0,0.0
7037,65.0,0,30,10.0,0.0
7038,65.0,0,30,12.0,0.0
7039,65.0,0,30,3.0,0.0
7040,57.0,30,30,10.0,0.0
7041,57.0,0,30,4.0,0.0
7042,53.0,0,30,5.0,0.0
7043,70.0,0,60,0.0,0.0
7044,53.0,30,30,10.0,0.0
7045,53.0,0,30,15.0,0.0
7046,70.0,0,60,11.0,0.0
7047,62.0,0,30,3.0,0.0
7048,62.0,0,30,12.0,0.0
7049,53.0,0,30,13.0,0.0
7050,62.0,0,30,10.0,0.0
7051,62.0,0,30,0.0,0.0
7052,53.0,0,30,1.0,0.0
7053,70.0,0,60,2.0,0.0
7054,53.0,0,30,4.0,0.0
7055,63.0,0,30,3.0,0.0
7056,55.0,0,30,10.0,0.0
7057,55.0,0,30,5.0,0.0
7058,55.0,0,30,1.0,0.0
7059,63.0,0,30,0.0,0.0
7060,55.0,0,30,13.0,0.0
7061,55.0,0,30,4.0,0.0
7062,63.0,0,30,10.0,0.0
7063,55.0,0,30,15.0,0.0
7064,63.0,30,30,12.0,0.0
7065,57.0,0,30,10.0,0.0
7066,72.0,0,180,11.0,0.0
7067,53.0,0,180,10.0,0.0
7068,60.0,0,60,12.0,0.0
7069,69.0,0,240,15.0,0.0
7070,57.0,0,30,4.0,0.0
7071,41.0,0,180,6.0,0.0
7072,53.0,0,180,15.0,0.0
7073,60.0,0,60,10.0,0.0
7074,72.0,0,240,15.0,0.0
7075,72.0,0,180,0.0,0.0
7076,72.0,0,180,2.0,0.0
7077,53.0,0,180,1.0,0.0
7078,60.0,0,60,3.0,0.0
7079,53.0,30,180,14.0,0.0
7080,57.0,0,30,1.0,0.0
7081,57.0,30,30,13.0,0.0
7082,60.0,0,60,0.0,0.0
7083,65.0,0,240,15.0,0.0
7084,58.0,0,30,10.0,0.0
7085,58.0,0,30,13.0,0.0
7086,58.0,30,30,4.0,0.0
7087,58.0,0,30,1.0,0.0
7088,62.0,0,30,0.0,0.0
7089,62.0,0,30,10.0,0.0
7090,57.0,0,30,10.0,0.0
7091,57.0,30,30,4.0,0.0
7092,57.0,0,30,13.0,0.0
7093,62.0,0,30,12.0,0.0
7094,57.0,0,30,1.0,0.0
7095,62.0,0,30,3.0,0.0
7096,55.0,0,30,4.0,0.0
7097,63.0,0,30,0.0,0.0
7098,63.0,30,30,3.0,0.0
7099,63.0,0,30,12.0,0.0
7100,55.0,0,30,1.0,0.0
7101,55.0,0,30,10.0,0.0
7102,63.0,0,30,10.0,0.0
7103,55.0,0,30,13.0,0.0
7104,57.0,30,30,13.0,0.0
7105,65.0,0,180,12.0,0.0
7106,65.0,0,180,0.0,0.0
7107,65.0,0,180,10.0,0.0
7108,57.0,0,30,10.0,0.0
7109,57.0,0,30,1.0,0.0
7110,65.0,0,180,3.0,0.0
7111,57.0,0,30,4.0,0.0
7112,58.0,0,30,13.0,0.0
7113,58.0,0,30,10.0,0.0
7114,58.0,0,30,1.0,0.0
7115,58.0,0,30,4.0,0.0
7116,55.0,0,30,10.0,0.0
7117,70.0,0,30,2.0,0.0
7118,55.0,0,30,13.0,0.0
7119,53.0,0,60,14.0,0.0
7120,53.0,0,60,15.0,0.0
7121,70.0,0,30,0.0,0.0
7122,55.0,0,30,1.0,0.0
7123,70.0,30,30,11.0,0.0
7124,53.0,0,60,1.0,0.0
7125,41.0,60,60,6.0,0.0
7126,55.0,0,30,4.0,0.0
7127,53.0,0,60,10.0,0.0
7128,57.0,0,30,13.0,0.0
7129,57.0,0,30,10.0,0.0
7130,72.0,0,30,2.0,0.0
7131,72.0,0,30,11.0,0.0
7132,72.0,0,30,0.0,0.0
7133,57.0,0,30,4.0,0.0
7134,57.0,0,30,1.0,0.0
7135,74.0,30,60,11.0,0.0
7136,50.0,0,120,14.0,0.0
7137,58.0,60,120,1.0,0.0
7138,50.0,0,120,1.0,0.0
7139,74.0,0,60,2.0,0.0
7140,38.0,0,120,6.0,0.0
7141,58.0,0,120,4.0,0.0
7142,74.0,0,120,15.0,0.0
7143,50.0,0,120,10.0,0.0
7144,58.0,0,120,13.0,0.0
7145,74.0,0,60,0.0,0.0
7146,70.0,0,120,15.0,0.0
7147,65.0,0,120,15.0,0.0
7148,50.0,0,120,15.0,0.0
7149,58.0,0,120,0.0,0.0
7150,72.0,0,30,11.0,0.0
7151,72.0,30,30,2.0,0.0
7152,58.0,0,120,12.0,0.0
7153,72.0,0,30,0.0,0.0
7154,58.0,0,120,3.0,0.0
7155,58.0,0,60,10.0,0.0
7156,74.0,0,30,0.0,0.0
7157,74.0,0,30,11.0,0.0
7158,74.0,0,30,2.0,0.0
7159,75.0,0,60,0.0,0.0
7160,70.0,0,120,15.0,0.0
7161,55.0,60,120,15.0,0.0
7162,55.0,0,120,14.0,0.0
7163,43.0,0,120,6.0,0.0
7164,55.0,0,120,10.0,0.0
7165,75.0,0,60,2.0,0.0
7166,75.0,30,60,11.0,0.0
7167,55.0,0,120,1.0,0.0
7168,75.0,0,120,15.0,0.0
7169,67.0,0,60,0.0,0.0
7170,67.0,0,60,10.0,0.0
7171,74.0,30,30,11.0,0.0
7172,74.0,0,30,0.0,0.0
7173,74.0,0,30,2.0,0.0
7174,67.0,0,60,3.0,0.0
7175,67.0,0,60,12.0,0.0
7176,75.0,0,30,0.0,0.0
7177,75.0,0,30,2.0,0.0
7178,75.0,0,30,11.0,0.0
7179,65.0,0,120,12.0,0.0
7180,77.0,0,60,2.0,0.0
7181,65.0,0,120,0.0,0.0
7182,77.0,60,60,0.0,0.0
7183,45.0,0,180,1.0,0.0
7184,45.0,0,180,14.0,0.0
7185,33.0,0,180,6.0,0.0
7186,45.0,0,180,10.0,0.0
7187,45.0,0,180,15.0,0.0
7188,77.0,0,60,11.0,0.0
7189,60.0,0,180,15.0,0.0
7190,65.0,0,120,3.0,0.0
7191,65.0,60,120,10.0,0.0
7192,77.0,0,180,15.0,0.0
7193,72.0,0,60,11.0,0.0
7194,72.0,0,60,0.0,0.0
7195,60.0,0,60,4.0,0.0
7196,60.0,0,60,13.0,0.0
7197,60.0,0,60,1.0,0.0
7198,60.0,0,60,10.0,0.0
7199,72.0,0,60,2.0,0.0
7200,60.0,60,60,10.0,0.0
7201,77.0,0,60,2.0,0.0
7202,60.0,0,60,1.0,0.0
7203,60.0,0,60,13.0,0.0
7204,77.0,0,60,0.0,0.0
7205,60.0,0,60,4.0,0.0
7206,77.0,0,60,11.0,0.0
7207,60.0,30,60,10.0,0.0
7208,60.0,0,60,13.0,0.0
7209,60.0,0,60,4.0,0.0
7210,45.0,0,60,1.0,0.0
7211,76.0,0,60,0.0,0.0
7212,45.0,0,60,15.0,0.0
7213,75.0,0,60,15.0,0.0
7214,76.0,0,60,2.0,0.0
7215,60.0,0,60,1.0,0.0
7216,45.0,0,60,14.0,0.0
7217,45.0,0,60,10.0,0.0
7218,75.0,0,60,11.0,0.0
7219,33.0,0,60,6.0,0.0
7220,60.0,0,60,15.0,0.0
7221,62.0,30,30,13.0,0.0
7222,62.0,0,30,4.0,0.0
7223,58.0,0,120,15.0,0.0
7224,62.0,0,30,1.0,0.0
7225,74.0,0,60,0.0,0.0
7226,65.0,0,120,15.0,0.0
7227,46.0,0,120,1.0,0.0
7228,46.0,0,120,10.0,0.0
7229,62.0,0,30,10.0,0.0
7230,46.0,30,120,15.0,0.0
7231,74.0,0,60,11.0,0.0
7232,34.0,0,120,6.0,0.0
7233,46.0,0,120,14.0,0.0
7234,74.0,0,120,15.0,0.0
7235,74.0,0,60,2.0,0.0
7236,63.0,0,30,1.0,0.0
7237,63.0,0,30,4.0,0.0
7238,63.0,0,30,13.0,0.0
7239,63.0,30,30,10.0,0.0
7240,62.0,30,30,10.0,0.0
7241,65.0,0,60,11.0,0.0
7242,65.0,0,60,2.0,0.0
7243,65.0,0,60,0.0,0.0
7244,62.0,0,30,1.0,0.0
7245,62.0,0,30,4.0,0.0
7246,62.0,0,30,13.0,0.0
7247,60.0,0,30,4.0,0.0
7248,60.0,0,30,1.0,0.0
7249,60.0,0,30,13.0,0.0
7250,60.0,0,30,10.0,0.0
7251,70.0,0,240,2.0,0.0
7252,62.0,0,30,10.0,0.0
7253,70.0,0,240,0.0,0.0
7254,62.0,0,30,13.0,0.0
7255,70.0,0,240,11.0,0.0
7256,62.0,30,30,4.0,0.0
7257,62.0,0,30,1.0,0.0
7258,63.0,30,30,13.0,0.0
7259,63.0,0,30,4.0,0.0
7260,63.0,0,30,1.0,0.0
7261,63.0,0,30,10.0,0.0
7262,65.0,0,60,15.0,0.0
7263,74.0,0,60,15.0,0.0
7264,58.0,0,60,15.0,0.0
7265,46.0,0,60,15.0,0.0
7266,46.0,0,60,10.0,0.0
7267,46.0,0,60,14.0,0.0
7268,46.0,0,60,1.0,0.0
7269,60.0,30,30,1.0,0.0
7270,60.0,0,30,4.0,0.0
7271,60.0,0,30,13.0,0.0
7272,34.0,0,60,6.0,0.0
7273,60.0,0,30,10.0,0.0
7274,62.0,30,30,13.0,0.0
7275,62.0,0,30,10.0,0.0
7276,62.0,0,30,1.0,0.0
7277,62.0,0,30,4.0,0.0
7278,36.0,0,180,6.0,0.0
7279,63.0,0,30,10.0,0.0
7280,67.0,0,120,15.0,0.0
7281,64.0,0,120,15.0,0.0
7282,48.0,0,180,15.0,0.0
7283,48.0,0,180,10.0,0.0
7284,48.0,0,180,1.0,0.0
7285,63.0,0,30,13.0,0.0
7286,48.0,0,180,14.0,0.0
7287,70.0,0,120,15.0,0.0
7288,63.0,30,30,1.0,0.0
7289,63.0,0,30,4.0,0.0
7290,65.0,0,30,4.0,0.0
7291,65.0,0,30,10.0,0.0
7292,65.0,0,30,1.0,0.0
7293,65.0,30,30,13.0,0.0
7294,63.0,30,30,10.0,0.0
7295,63.0,0,30,4.0,0.0
7296,63.0,0,30,13.0,0.0
7297,63.0,0,30,1.0,0.0
7298,62.0,0,30,13.0,0.0
7299,62.0,0,30,4.0,0.0
7300,62.0,0,30,1.0,0.0
7301,62.0,30,30,10.0,0.0
7302,69.0,60,120,15.0,0.0
7303,63.0,0,30,1.0,0.0
7304,63.0,0,30,13.0,0.0
7305,63.0,30,30,10.0,0.0
7306,63.0,0,30,4.0,0.0
7307,64.0,0,120,15.0,0.0
7308,69.0,0,120,11.0,0.0
7309,69.0,0,120,0.0,0.0
7310,69.0,0,120,2.0,0.0
7311,65.0,30,30,1.0,0.0
7312,65.0,0,30,13.0,0.0
7313,65.0,0,30,4.0,0.0
7314,65.0,0,30,10.0,0.0
7315,46.0,0,30,14.0,0.0
7316,62.0,0,30,10.0,0.0
7317,62.0,0,30,1.0,0.0
7318,46.0,0,30,1.0,0.0
7319,62.0,0,30,13.0,0.0
7320,46.0,0,30,15.0,0.0
7321,34.0,0,30,6.0,0.0
7322,46.0,0,30,10.0,0.0
7323,62.0,30,30,4.0,0.0
7324,36.0,0,30,6.0,0.0
7325,48.0,0,30,1.0,0.0
7326,63.0,0,30,1.0,0.0
7327,48.0,0,30,15.0,0.0
7328,48.0,0,30,14.0,0.0
7329,63.0,0,30,10.0,0.0
7330,48.0,0,30,10.0,0.0
7331,63.0,0,30,13.0,0.0
7332,63.0,0,30,4.0,0.0
7333,70.0,0,120,15.0,0.0
7334,65.0,0,120,15.0,0.0
7335,50.0,0,60,15.0,0.0
7336,70.0,0,60,0.0,0.0
7337,65.0,0,60,10.0,0.0
7338,50.0,0,60,14.0,0.0
7339,65.0,0,60,4.0,0.0
7340,70.0,0,60,2.0,0.0
7341,65.0,0,60,1.0,0.0
7342,50.0,0,60,1.0,0.0
7343,38.0,0,60,6.0,0.0
7344,50.0,0,60,10.0,0.0
7345,65.0,0,60,13.0,0.0
7346,70.0,30,60,11.0,0.0
7347,58.0,0,30,10.0,0.0
7348,70.0,0,60,11.0,0.0
7349,70.0,0,60,2.0,0.0
7350,58.0,0,30,15.0,0.0
7351,62.0,0,60,4.0,0.0
7352,62.0,0,60,10.0,0.0
7353,58.0,0,30,14.0,0.0
7354,62.0,0,60,1.0,0.0
7355,58.0,0,30,1.0,0.0
7356,62.0,0,60,13.0,0.0
7357,46.0,30,30,6.0,0.0
7358,70.0,0,60,0.0,0.0
7359,57.0,0,30,10.0,0.0
7360,57.0,0,30,15.0,0.0
7361,45.0,0,30,6.0,0.0
7362,57.0,0,30,1.0,0.0
7363,57.0,60,30,14.0,0.0
7364,64.0,0,60,13.0,0.0
7365,55.0,0,60,15.0,0.0
7366,70.0,60,240,2.0,0.0
7367,70.0,0,60,15.0,0.0
7368,64.0,60,60,1.0,0.0
7369,55.0,0,60,1.0,0.0
7370,64.0,0,60,10.0,0.0
7371,55.0,0,60,14.0,0.0
7372,43.0,0,60,6.0,0.0
7373,55.0,0,60,10.0,0.0
7374,64.0,0,60,4.0,0.0
7375,70.0,0,240,0.0,0.0
7376,64.0,0,60,15.0,0.0
7377,70.0,0,240,11.0,0.0
7378,41.0,0,60,6.0,0.0
7379,53.0,0,60,14.0,0.0
7380,65.0,0,60,4.0,0.0
7381,53.0,60,60,15.0,0.0
7382,53.0,0,60,1.0,0.0
7383,65.0,0,60,10.0,0.0
7384,65.0,0,60,13.0,0.0
7385,53.0,0,60,10.0,0.0
7386,65.0,0,60,1.0,0.0
7387,70.0,0,60,15.0,0.0
7388,65.0,0,60,15.0,0.0
7389,52.0,0,60,1.0,0.0
7390,52.0,0,60,10.0,0.0
7391,67.0,0,120,4.0,0.0
7392,52.0,60,60,14.0,0.0
7393,72.0,0,180,12.0,0.0
7394,67.0,0,120,10.0,0.0
7395,67.0,0,120,13.0,0.0
7396,72.0,0,180,3.0,0.0
7397,40.0,0,60,6.0,0.0
7398,72.0,0,180,10.0,0.0
7399,72.0,0,180,0.0,0.0
7400,52.0,0,60,15.0,0.0
7401,72.0,0,120,15.0,0.0
7402,70.0,0,120,15.0,0.0
7403,67.0,0,120,1.0,0.0
7404,67.0,0,120,15.0,0.0
7405,55.0,0,60,15.0,0.0
7406,55.0,0,60,14.0,0.0
7407,43.0,0,60,6.0,0.0
7408,55.0,0,60,10.0,0.0
7409,55.0,0,60,1.0,0.0
7410,68.0,0,60,15.0,0.0
7411,65.0,0,60,15.0,0.0
7412,48.0,0,120,15.0,0.0
7413,72.0,0,60,15.0,0.0
7414,36.0,0,120,6.0,0.0
7415,48.0,0,120,10.0,0.0
7416,48.0,0,120,1.0,0.0
7417,65.0,0,60,1.0,0.0
7418,68.0,0,60,0.0,0.0
7419,48.0,60,120,14.0,0.0
7420,65.0,60,60,10.0,0.0
7421,68.0,0,60,11.0,0.0
7422,65.0,0,60,4.0,0.0
7423,68.0,0,60,2.0,0.0
7424,65.0,0,60,13.0,0.0
7425,64.0,0,60,10.0,0.0
7426,67.0,0,60,0.0,0.0
7427,72.0,0,60,0.0,0.0
7428,64.0,0,60,13.0,0.0
7429,64.0,0,60,4.0,0.0
7430,64.0,0,60,1.0,0.0
7431,72.0,0,60,10.0,0.0
7432,67.0,0,60,11.0,0.0
7433,67.0,0,60,2.0,0.0
7434,67.0,0,60,15.0,0.0
7435,64.0,0,60,15.0,0.0
7436,72.0,0,60,3.0,0.0
7437,72.0,0,60,15.0,0.0
7438,72.0,0,60,12.0,0.0
7439,68.0,0,120,2.0,0.0
7440,65.0,0,60,4.0,0.0
7441,68.0,0,120,11.0,0.0
7442,68.0,0,120,3.0,0.0
7443,68.0,0,120,0.0,0.0
7444,65.0,0,60,13.0,0.0
7445,68.0,0,120,12.0,0.0
7446,65.0,60,60,1.0,0.0
7447,65.0,0,60,10.0,0.0
7448,68.0,0,120,10.0,0.0
7449,53.0,0,60,4.0,0.0
7450,53.0,0,60,5.0,0.0
7451,53.0,0,60,13.0,0.0
7452,53.0,60,60,1.0,0.0
7453,72.0,0,60,15.0,0.0
7454,68.0,0,60,15.0,0.0
7455,53.0,0,60,10.0,0.0
7456,53.0,0,60,15.0,0.0
7457,73.0,0,120,3.0,0.0
7458,73.0,0,120,10.0,0.0
7459,58.0,0,60,15.0,0.0
7460,73.0,0,120,15.0,0.0
7461,65.0,0,120,15.0,0.0
7462,58.0,0,60,13.0,0.0
7463,58.0,0,60,1.0,0.0
7464,73.0,0,120,0.0,0.0
7465,73.0,0,120,12.0,0.0
7466,58.0,60,60,10.0,0.0
7467,58.0,0,60,5.0,0.0
7468,58.0,0,60,4.0,0.0
7469,55.0,0,60,4.0,0.0
7470,55.0,0,60,1.0,0.0
7471,55.0,0,60,15.0,0.0
7472,55.0,0,60,5.0,0.0
7473,55.0,0,60,10.0,0.0
7474,55.0,60,60,13.0,0.0
7475,60.0,0,120,1.0,0.0
7476,60.0,0,120,4.0,0.0
7477,64.0,0,180,12.0,0.0
7478,60.0,0,60,5.0,0.0
7479,60.0,0,120,10.0,0.0
7480,60.0,0,120,13.0,0.0
7481,64.0,60,180,3.0,0.0
7482,64.0,0,180,10.0,0.0
7483,64.0,0,180,0.0,0.0
7484,60.0,60,60,15.0,0.0
7485,64.0,0,240,15.0,0.0
7486,67.0,0,240,15.0,0.0
7487,48.0,0,60,14.0,0.0
7488,48.0,0,60,15.0,0.0
7489,60.0,0,180,15.0,0.0
7490,36.0,0,60,6.0,0.0
7491,48.0,0,60,1.0,0.0
7492,48.0,60,60,10.0,0.0
7493,48.0,0,60,15.0,0.0
7494,36.0,0,60,6.0,0.0
7495,48.0,0,60,1.0,0.0
7496,48.0,0,60,14.0,0.0
7497,48.0,0,60,10.0,0.0
7498,64.0,0,60,10.0,0.0
7499,48.0,0,60,10.0,0.0
7500,48.0,0,60,15.0,0.0
7501,64.0,0,60,3.0,0.0
7502,36.0,0,60,6.0,0.0
7503,48.0,0,60,14.0,0.0
7504,48.0,0,60,1.0,0.0
7505,64.0,0,60,12.0,0.0
7506,64.0,30,60,0.0,0.0
7507,65.0,0,120,12.0,0.0
7508,65.0,0,120,3.0,0.0
7509,69.0,0,120,15.0,0.0
7510,65.0,0,120,10.0,0.0
7511,49.0,0,30,10.0,0.0
7512,65.0,30,120,15.0,0.0
7513,49.0,0,30,1.0,0.0
7514,37.0,30,30,6.0,0.0
7515,49.0,0,30,15.0,0.0
7516,49.0,0,30,14.0,0.0
7517,39.0,0,30,6.0,0.0
7518,51.0,30,30,10.0,0.0
7519,51.0,0,30,14.0,0.0
7520,51.0,0,30,15.0,0.0
7521,51.0,0,30,1.0,0.0
7522,49.0,0,30,10.0,0.0
7523,49.0,0,30,14.0,0.0
7524,49.0,0,30,1.0,0.0
7525,65.0,0,60,2.0,0.0
7526,65.0,0,60,11.0,0.0
7527,37.0,30,30,6.0,0.0
7528,49.0,0,30,15.0,0.0
7529,65.0,0,60,0.0,0.0
7530,36.0,0,30,6.0,0.0
7531,48.0,0,30,10.0,0.0
7532,48.0,0,30,1.0,0.0
7533,48.0,0,30,14.0,0.0
7534,48.0,0,30,15.0,0.0
7535,50.0,0,30,15.0,0.0
7536,65.0,0,60,15.0,0.0
7537,70.0,0,60,15.0,0.0
7538,50.0,0,30,14.0,0.0
7539,38.0,0,30,6.0,0.0
7540,50.0,30,30,10.0,0.0
7541,70.0,30,60,11.0,0.0
7542,70.0,0,60,2.0,0.0
7543,70.0,0,60,0.0,0.0
7544,50.0,0,30,1.0,0.0
7545,39.0,0,30,6.0,0.0
7546,51.0,0,30,10.0,0.0
7547,51.0,0,30,15.0,0.0
7548,51.0,0,30,14.0,0.0
7549,51.0,0,30,1.0,0.0
7550,48.0,30,30,10.0,0.0
7551,65.0,0,60,15.0,0.0
7552,48.0,0,30,15.0,0.0
7553,48.0,0,30,1.0,0.0
7554,68.0,0,60,2.0,0.0
7555,48.0,0,30,14.0,0.0
7556,68.0,0,60,0.0,0.0
7557,36.0,0,30,6.0,0.0
7558,68.0,0,60,15.0,0.0
7559,68.0,0,60,11.0,0.0
7560,50.0,0,30,1.0,0.0
7561,50.0,30,30,15.0,0.0
7562,50.0,0,30,14.0,0.0
7563,38.0,0,30,6.0,0.0
7564,50.0,0,30,10.0,0.0
7565,51.0,30,30,10.0,0.0
7566,51.0,0,30,1.0,0.0
7567,70.0,0,60,15.0,0.0
7568,67.0,0,60,15.0,0.0
7569,51.0,0,30,14.0,0.0
7570,67.0,0,60,2.0,0.0
7571,67.0,0,60,0.0,0.0
7572,67.0,0,60,11.0,0.0
7573,39.0,0,30,6.0,0.0
7574,51.0,0,30,15.0,0.0
7575,53.0,0,30,15.0,0.0
7576,53.0,0,30,14.0,0.0
7577,53.0,0,30,1.0,0.0
7578,53.0,0,30,10.0,0.0
7579,41.0,30,30,6.0,0.0
7580,55.0,0,60,1.0,0.0
7581,60.0,0,60,0.0,0.0
7582,39.0,0,30,6.0,0.0
7583,67.0,0,60,15.0,0.0
7584,51.0,0,30,10.0,0.0
7585,51.0,30,30,1.0,0.0
7586,72.0,0,60,15.0,0.0
7587,51.0,0,30,15.0,0.0
7588,60.0,0,60,11.0,0.0
7589,55.0,30,60,13.0,0.0
7590,55.0,0,60,4.0,0.0
7591,60.0,0,60,2.0,0.0
7592,55.0,0,60,10.0,0.0
7593,51.0,0,30,14.0,0.0
7594,50.0,0,30,10.0,0.0
7595,50.0,0,30,14.0,0.0
7596,50.0,0,30,1.0,0.0
7597,38.0,0,30,6.0,0.0
7598,50.0,0,30,15.0,0.0
7599,72.0,0,60,2.0,0.0
7600,55.0,0,60,4.0,0.0
7601,55.0,0,60,1.0,0.0
7602,52.0,30,30,1.0,0.0
7603,72.0,0,60,0.0,0.0
7604,52.0,0,30,10.0,0.0
7605,55.0,0,60,13.0,0.0
7606,67.0,0,60,15.0,0.0
7607,72.0,0,60,11.0,0.0
7608,72.0,0,60,15.0,0.0
7609,40.0,0,30,6.0,0.0
7610,52.0,0,30,15.0,0.0
7611,55.0,0,60,10.0,0.0
7612,52.0,0,30,14.0,0.0
7613,41.0,0,30,6.0,0.0
7614,53.0,0,30,10.0,0.0
7615,53.0,30,30,1.0,0.0
7616,53.0,0,30,15.0,0.0
7617,53.0,0,30,14.0,0.0
7618,38.0,0,30,6.0,0.0
7619,50.0,0,30,1.0,0.0
7620,55.0,0,60,1.0,0.0
7621,55.0,0,60,4.0,0.0
7622,50.0,30,30,14.0,0.0
7623,55.0,0,60,10.0,0.0
7624,70.0,30,60,15.0,0.0
7625,70.0,0,60,0.0,0.0
7626,50.0,0,30,10.0,0.0
7627,67.0,0,60,15.0,0.0
7628,50.0,0,30,15.0,0.0
7629,55.0,0,60,13.0,0.0
7630,70.0,0,60,11.0,0.0
7631,70.0,0,60,2.0,0.0
7632,52.0,0,30,15.0,0.0
7633,52.0,0,30,10.0,0.0
7634,52.0,0,30,14.0,0.0
7635,52.0,0,30,1.0,0.0
7636,40.0,0,30,6.0,0.0
7637,53.0,0,60,15.0,0.0
7638,65.0,0,120,15.0,0.0
7639,56.0,0,30,13.0,0.0
7640,56.0,0,30,10.0,0.0
7641,56.0,0,30,1.0,0.0
7642,68.0,0,120,2.0,0.0
7643,53.0,0,60,1.0,0.0
7644,41.0,0,60,6.0,0.0
7645,53.0,0,60,14.0,0.0
7646,68.0,0,120,11.0,0.0
7647,72.0,0,120,15.0,0.0
7648,68.0,0,120,0.0,0.0
7649,56.0,30,30,4.0,0.0
7650,53.0,0,60,10.0,0.0
7651,68.0,0,120,15.0,0.0
7652,58.0,0,30,1.0,0.0
7653,58.0,0,30,13.0,0.0
7654,58.0,30,30,10.0,0.0
7655,58.0,0,30,4.0,0.0
7656,48.0,0,60,15.0,0.0
7657,48.0,30,60,1.0,0.0
7658,48.0,0,60,10.0,0.0
7659,48.0,0,60,14.0,0.0
7660,36.0,0,60,6.0,0.0
7661,56.0,30,30,1.0,0.0
7662,56.0,0,30,13.0,0.0
7663,56.0,0,30,4.0,0.0
7664,56.0,0,30,10.0,0.0
7665,55.0,0,30,4.0,0.0
7666,55.0,0,30,10.0,0.0
7667,55.0,0,30,13.0,0.0
7668,55.0,0,30,1.0,0.0
7669,53.0,0,60,10.0,0.0
7670,57.0,30,30,13.0,0.0
7671,53.0,0,60,15.0,0.0
7672,69.0,0,120,15.0,0.0
7673,72.0,0,120,15.0,0.0
7674,65.0,0,120,15.0,0.0
7675,57.0,0,30,1.0,0.0
7676,57.0,0,30,10.0,0.0
7677,57.0,0,30,4.0,0.0
7678,41.0,0,60,6.0,0.0
7679,53.0,30,60,14.0,0.0
7680,53.0,0,60,1.0,0.0
7681,58.0,0,30,10.0,0.0
7682,58.0,0,30,1.0,0.0
7683,58.0,0,30,13.0,0.0
7684,58.0,0,30,4.0,0.0
7685,55.0,0,30,4.0,0.0
7686,55.0,0,30,1.0,0.0
7687,55.0,30,30,10.0,0.0
7688,51.0,0,60,1.0,0.0
7689,55.0,0,30,13.0,0.0
7690,51.0,0,60,15.0,0.0
7691,51.0,0,60,10.0,0.0
7692,51.0,30,60,14.0,0.0
7693,39.0,0,60,6.0,0.0
7694,57.0,0,30,10.0,0.0
7695,57.0,0,30,4.0,0.0
7696,57.0,0,30,13.0,0.0
7697,57.0,0,30,1.0,0.0
7698,38.0,0,60,6.0,0.0
7699,58.0,0,30,1.0,0.0
7700,50.0,0,60,1.0,0.0
7701,50.0,0,60,10.0,0.0
7702,65.0,0,120,15.0,0.0
7703,70.0,0,120,15.0,0.0
7704,58.0,0,30,4.0,0.0
7705,50.0,0,60,14.0,0.0
7706,58.0,30,30,10.0,0.0
7707,58.0,0,30,13.0,0.0
7708,50.0,0,60,15.0,0.0
7709,60.0,0,30,13.0,0.0
7710,60.0,30,30,1.0,0.0
7711,60.0,0,30,10.0,0.0
7712,60.0,0,30,4.0,0.0
7713,62.0,0,60,12.0,0.0
7714,62.0,0,60,0.0,0.0
7715,58.0,0,30,1.0,0.0
7716,43.0,30,60,1.0,0.0
7717,43.0,0,60,14.0,0.0
7718,58.0,0,30,10.0,0.0
7719,31.0,0,60,6.0,0.0
7720,58.0,0,30,13.0,0.0
7721,62.0,0,60,10.0,0.0
7722,62.0,0,60,3.0,0.0
7723,43.0,0,60,15.0,0.0
7724,43.0,0,60,10.0,0.0
7725,58.0,30,30,4.0,0.0
7726,57.0,0,30,1.0,0.0
7727,57.0,0,30,13.0,0.0
7728,57.0,0,30,10.0,0.0
7729,57.0,0,30,4.0,0.0
7730,55.0,0,60,10.0,0.0
7731,59.0,0,30,4.0,0.0
7732,55.0,30,60,15.0,0.0
7733,62.0,0,60,10.0,0.0
7734,71.0,0,120,15.0,0.0
7735,62.0,0,120,15.0,0.0
7736,62.0,0,60,12.0,0.0
7737,59.0,30,30,1.0,0.0
7738,43.0,0,60,6.0,0.0
7739,55.0,0,60,14.0,0.0
7740,62.0,0,60,0.0,0.0
7741,59.0,0,30,10.0,0.0
7742,55.0,0,60,1.0,0.0
7743,59.0,0,30,13.0,0.0
7744,62.0,0,60,3.0,0.0
7745,60.0,0,30,10.0,0.0
7746,60.0,0,30,1.0,0.0
7747,60.0,0,30,13.0,0.0
7748,60.0,0,30,4.0,0.0
7749,53.0,0,60,1.0,0.0
7750,57.0,0,30,10.0,0.0
7751,57.0,0,30,13.0,0.0
7752,53.0,0,60,14.0,0.0
7753,53.0,0,60,15.0,0.0
7754,57.0,0,30,1.0,0.0
7755,62.0,0,60,0.0,0.0
7756,62.0,0,60,3.0,0.0
7757,41.0,0,60,6.0,0.0
7758,62.0,30,60,12.0,0.0
7759,53.0,0,60,10.0,0.0
7760,62.0,0,60,10.0,0.0
7761,57.0,30,30,4.0,0.0
7762,59.0,0,30,10.0,0.0
7763,59.0,0,30,4.0,0.0
7764,59.0,0,30,1.0,0.0
7765,59.0,0,30,13.0,0.0
7766,63.0,0,30,12.0,0.0
7767,51.0,0,120,1.0,0.0
7768,60.0,30,60,1.0,0.0
7769,63.0,0,30,0.0,0.0
7770,51.0,0,120,14.0,0.0
7771,60.0,0,60,10.0,0.0
7772,51.0,0,120,10.0,0.0
7773,60.0,0,60,15.0,0.0
7774,39.0,0,60,6.0,0.0
7775,63.0,0,30,3.0,0.0
7776,63.0,30,30,10.0,0.0
7777,51.0,0,60,15.0,0.0
7778,67.0,0,60,15.0,0.0
7779,60.0,0,60,13.0,0.0
7780,60.0,0,60,4.0,0.0
7781,65.0,0,30,10.0,0.0
7782,65.0,0,30,0.0,0.0
7783,65.0,0,30,3.0,0.0
7784,65.0,0,30,12.0,0.0
7785,70.0,0,60,15.0,0.0
7786,55.0,0,60,5.0,0.0
7787,55.0,0,60,13.0,0.0
7788,63.0,0,30,10.0,0.0
7789,55.0,0,60,4.0,0.0
7790,62.0,0,60,15.0,0.0
7791,55.0,0,60,1.0,0.0
7792,63.0,0,30,12.0,0.0
7793,55.0,0,60,15.0,0.0
7794,63.0,30,30,3.0,0.0
7795,55.0,0,60,10.0,0.0
7796,63.0,0,30,0.0,0.0
7797,62.0,0,30,12.0,0.0
7798,62.0,0,30,0.0,0.0
7799,62.0,0,30,10.0,0.0
7800,62.0,30,30,3.0,0.0
7801,60.0,30,60,5.0,0.0
7802,60.0,0,60,13.0,0.0
7803,64.0,0,30,0.0,0.0
7804,60.0,0,60,1.0,0.0
7805,64.0,0,30,10.0,0.0
7806,60.0,0,60,15.0,0.0
7807,64.0,0,120,15.0,0.0
7808,67.0,0,120,15.0,0.0
7809,60.0,0,60,10.0,0.0
7810,64.0,30,30,12.0,0.0
7811,64.0,0,30,3.0,0.0
7812,60.0,0,60,4.0,0.0
7813,65.0,0,30,12.0,0.0
7814,65.0,0,30,0.0,0.0
7815,65.0,0,30,10.0,0.0
7816,65.0,0,30,3.0,0.0
7817,58.0,0,60,1.0,0.0
7818,62.0,0,30,12.0,0.0
7819,62.0,0,30,10.0,0.0
7820,62.0,0,30,0.0,0.0
7821,62.0,30,30,3.0,0.0
7822,58.0,0,60,10.0,0.0
7823,58.0,0,60,4.0,0.0
7824,58.0,30,60,15.0,0.0
7825,58.0,0,60,13.0,0.0
7826,58.0,0,60,5.0,0.0
7827,64.0,0,30,10.0,0.0
7828,64.0,0,30,12.0,0.0
7829,64.0,0,30,3.0,0.0
7830,64.0,0,30,0.0,0.0
7831,57.0,0,60,4.0,0.0
7832,60.0,0,120,15.0,0.0
7833,57.0,0,60,1.0,0.0
7834,65.0,30,30,3.0,0.0
7835,65.0,0,30,12.0,0.0
7836,57.0,0,60,15.0,0.0
7837,65.0,0,120,15.0,0.0
7838,57.0,0,60,10.0,0.0
7839,65.0,0,30,10.0,0.0
7840,57.0,0,60,13.0,0.0
7841,57.0,0,60,5.0,0.0
7842,65.0,0,30,0.0,0.0
7843,67.0,0,30,3.0,0.0
7844,67.0,30,30,10.0,0.0
7845,67.0,0,30,0.0,0.0
7846,67.0,0,30,12.0,0.0
7847,65.0,0,30,12.0,0.0
7848,50.0,0,60,4.0,0.0
7849,50.0,0,60,5.0,0.0
7850,65.0,0,30,0.0,0.0
7851,69.0,0,60,0.0,0.0
7852,50.0,0,60,13.0,0.0
7853,69.0,0,60,2.0,0.0
7854,50.0,0,60,10.0,0.0
7855,50.0,0,60,1.0,0.0
7856,50.0,0,60,15.0,0.0
7857,65.0,30,30,10.0,0.0
7858,69.0,0,60,11.0,0.0
7859,65.0,0,30,3.0,0.0
7860,64.0,30,30,3.0,0.0
7861,64.0,0,30,10.0,0.0
7862,64.0,0,30,0.0,0.0
7863,64.0,0,30,12.0,0.0
7864,66.0,0,30,0.0,0.0
7865,69.0,30,60,0.0,0.0
7866,66.0,0,120,15.0,0.0
7867,69.0,0,120,15.0,0.0
7868,62.0,0,60,15.0,0.0
7869,62.0,0,60,1.0,0.0
7870,62.0,0,60,13.0,0.0
7871,62.0,0,60,4.0,0.0
7872,62.0,0,60,5.0,0.0
7873,69.0,0,60,11.0,0.0
7874,66.0,0,30,12.0,0.0
7875,62.0,0,60,10.0,0.0
7876,69.0,0,60,2.0,0.0
7877,66.0,0,30,3.0,0.0
7878,66.0,30,30,10.0,0.0
7879,67.0,0,30,10.0,0.0
7880,67.0,0,30,12.0,0.0
7881,67.0,0,30,0.0,0.0
7882,67.0,0,30,3.0,0.0
7883,64.0,0,30,12.0,0.0
7884,60.0,0,60,5.0,0.0
7885,60.0,0,60,10.0,0.0
7886,69.0,0,60,0.0,0.0
7887,60.0,0,60,13.0,0.0
7888,60.0,0,60,4.0,0.0
7889,64.0,30,30,3.0,0.0
7890,69.0,0,60,11.0,0.0
7891,69.0,0,60,2.0,0.0
7892,64.0,0,30,10.0,0.0
7893,60.0,30,60,1.0,0.0
7894,60.0,0,60,15.0,0.0
7895,64.0,0,30,0.0,0.0
7896,66.0,0,30,12.0,0.0
7897,66.0,0,30,10.0,0.0
7898,66.0,0,30,3.0,0.0
7899,66.0,0,30,0.0,0.0
7900,58.0,0,60,15.0,0.0
7901,67.0,0,60,3.0,0.0
7902,58.0,0,120,13.0,0.0
7903,67.0,0,60,12.0,0.0
7904,74.0,0,120,15.0,0.0
7905,67.0,0,120,15.0,0.0
7906,58.0,0,120,4.0,0.0
7907,58.0,0,120,10.0,0.0
7908,58.0,0,60,5.0,0.0
7909,58.0,0,120,1.0,0.0
7910,70.0,30,30,11.0,0.0
7911,67.0,0,60,0.0,0.0
7912,70.0,0,30,2.0,0.0
7913,70.0,0,30,0.0,0.0
7914,67.0,0,60,10.0,0.0
7915,72.0,0,30,2.0,0.0
7916,72.0,0,30,0.0,0.0
7917,72.0,30,30,11.0,0.0
7918,62.0,0,60,10.0,0.0
7919,62.0,0,60,15.0,0.0
7920,62.0,0,60,5.0,0.0
7921,62.0,0,60,12.0,0.0
7922,62.0,0,60,0.0,0.0
7923,70.0,30,30,0.0,0.0
7924,70.0,0,30,2.0,0.0
7925,62.0,30,60,3.0,0.0
7926,70.0,0,30,11.0,0.0
7927,69.0,0,30,0.0,0.0
7928,69.0,0,30,11.0,0.0
7929,69.0,0,30,2.0,0.0
7930,67.0,0,60,15.0,0.0
7931,71.0,0,120,15.0,0.0
7932,74.0,0,120,15.0,0.0
7933,67.0,0,60,10.0,0.0
7934,71.0,30,30,11.0,0.0
7935,71.0,0,30,2.0,0.0
7936,67.0,0,60,5.0,0.0
7937,71.0,0,30,0.0,0.0
7938,67.0,0,60,12.0,0.0
7939,67.0,0,60,0.0,0.0
7940,67.0,30,60,3.0,0.0
7941,72.0,0,30,0.0,0.0
7942,72.0,0,30,2.0,0.0
7943,72.0,0,30,11.0,0.0
7944,65.0,0,60,12.0,0.0
7945,69.0,0,30,11.0,0.0
7946,65.0,0,60,5.0,0.0
7947,65.0,0,60,15.0,0.0
7948,65.0,0,60,0.0,0.0
7949,65.0,0,60,3.0,0.0
7950,69.0,0,30,0.0,0.0
7951,65.0,0,60,10.0,0.0
7952,69.0,30,30,2.0,0.0
7953,71.0,0,30,0.0,0.0
7954,71.0,30,30,2.0,0.0
7955,71.0,0,30,11.0,0.0
7956,64.0,0,60,3.0,0.0
7957,64.0,0,60,12.0,0.0
7958,72.0,0,30,11.0,0.0
7959,64.0,0,60,5.0,0.0
7960,64.0,0,60,10.0,0.0
7961,72.0,0,60,15.0,0.0
7962,67.0,0,60,15.0,0.0
7963,64.0,0,60,15.0,0.0
7964,72.0,0,30,0.0,0.0
7965,64.0,0,60,0.0,0.0
7966,72.0,30,30,2.0,0.0
7967,74.0,0,30,0.0,0.0
7968,74.0,0,30,2.0,0.0
7969,74.0,30,30,11.0,0.0
7970,57.0,0,60,12.0,0.0
7971,72.0,0,30,11.0,0.0
7972,57.0,0,60,0.0,0.0
7973,57.0,0,60,10.0,0.0
7974,55.0,0,60,1.0,0.0
7975,72.0,30,30,2.0,0.0
7976,55.0,0,60,4.0,0.0
7977,55.0,0,60,13.0,0.0
7978,72.0,0,30,0.0,0.0
7979,52.0,0,60,10.0,0.0
7980,72.0,0,60,15.0,0.0
7981,69.0,0,120,15.0,0.0
7982,52.0,0,60,15.0,0.0
7983,55.0,30,60,10.0,0.0
7984,52.0,0,60,14.0,0.0
7985,57.0,0,60,3.0,0.0
7986,52.0,0,60,1.0,0.0
7987,40.0,0,60,6.0,0.0
7988,71.0,0,30,11.0,0.0
7989,71.0,0,30,2.0,0.0
7990,71.0,0,30,0.0,0.0
7991,73.0,30,30,11.0,0.0
7992,69.0,0,60,10.0,0.0
7993,73.0,0,30,2.0,0.0
7994,55.0,0,60,4.0,0.0
7995,55.0,30,60,10.0,0.0
7996,69.0,0,60,3.0,0.0
7997,73.0,30,120,15.0,0.0
7998,52.0,0,60,14.0,0.0
7999,69.0,0,60,12.0,0.0
8000,73.0,0,30,0.0,0.0
8001,69.0,0,60,0.0,0.0
8002,52.0,0,60,15.0,0.0
8003,52.0,0,60,10.0,0.0
8004,40.0,0,60,6.0,0.0
8005,55.0,0,60,13.0,0.0
8006,55.0,0,60,1.0,0.0
8007,52.0,0,60,1.0,0.0
8008,74.0,0,30,0.0,0.0
8009,74.0,0,30,11.0,0.0
8010,74.0,0,30,2.0,0.0
8011,57.0,0,60,10.0,0.0
8012,71.0,0,30,0.0,0.0
8013,67.0,0,60,0.0,0.0
8014,71.0,30,30,2.0,0.0
8015,67.0,0,60,10.0,0.0
8016,71.0,0,30,11.0,0.0
8017,52.0,0,60,1.0,0.0
8018,52.0,0,60,14.0,0.0
8019,52.0,0,60,10.0,0.0
8020,67.0,0,60,12.0,0.0
8021,67.0,0,60,15.0,0.0
8022,52.0,0,60,15.0,0.0
8023,57.0,0,60,1.0,0.0
8024,57.0,0,60,13.0,0.0
8025,57.0,0,60,4.0,0.0
8026,67.0,0,60,3.0,0.0
8027,40.0,0,60,6.0,0.0
8028,73.0,0,30,11.0,0.0
8029,72.0,0,30,0.0,0.0
8030,73.0,0,30,2.0,0.0
8031,53.0,0,30,1.0,0.0
8032,57.0,0,120,4.0,0.0
8033,53.0,0,30,14.0,0.0
8034,74.0,0,60,2.0,0.0
8035,57.0,0,120,10.0,0.0
8036,53.0,0,30,15.0,0.0
8037,57.0,0,120,15.0,0.0
8038,62.0,0,120,7.0,0.0
8039,57.0,30,120,1.0,0.0
8040,65.0,0,120,15.0,0.0
8041,74.0,0,60,11.0,0.0
8042,65.0,0,120,3.0,0.0
8043,74.0,0,120,7.0,0.0
8044,65.0,0,120,12.0,0.0
8045,50.0,0,60,8.0,0.0
8046,65.0,0,120,0.0,0.0
8047,74.0,30,60,0.0,0.0
8048,57.0,0,120,13.0,0.0
8049,53.0,30,30,10.0,0.0
8050,74.0,0,120,15.0,0.0
8051,41.0,0,30,6.0,0.0
8052,65.0,0,120,10.0,0.0
8053,55.0,0,30,14.0,0.0
8054,43.0,0,30,6.0,0.0
8055,55.0,0,30,1.0,0.0
8056,55.0,0,30,10.0,0.0
8057,55.0,0,30,15.0,0.0
8058,53.0,0,30,15.0,0.0
8059,53.0,0,30,10.0,0.0
8060,53.0,30,30,1.0,0.0
8061,41.0,0,30,6.0,0.0
8062,69.0,0,60,2.0,0.0
8063,50.0,0,30,8.0,0.0
8064,69.0,0,60,0.0,0.0
8065,69.0,0,60,11.0,0.0
8066,53.0,0,30,14.0,0.0
8067,52.0,0,30,15.0,0.0
8068,52.0,0,30,14.0,0.0
8069,40.0,0,30,6.0,0.0
8070,52.0,0,30,1.0,0.0
8071,52.0,0,30,10.0,0.0
8072,50.0,0,30,8.0,0.0
8073,57.0,0,90,4.0,0.0
8074,74.0,0,60,2.0,0.0
8075,57.0,0,90,10.0,0.0
8076,54.0,0,30,15.0,0.0
8077,57.0,0,60,15.0,0.0
8078,74.0,0,120,7.0,0.0
8079,69.0,0,60,15.0,0.0
8080,69.0,0,90,10.0,0.0
8081,54.0,0,30,10.0,0.0
8082,54.0,0,30,14.0,0.0
8083,57.0,0,90,13.0,0.0
8084,74.0,0,60,11.0,0.0
8085,74.0,0,60,0.0,0.0
8086,69.0,0,90,0.0,0.0
8087,74.0,0,60,15.0,0.0
8088,54.0,0,30,1.0,0.0
8089,57.0,0,90,1.0,0.0
8090,69.0,0,90,3.0,0.0
8091,50.0,0,60,8.0,0.0
8092,69.0,0,90,12.0,0.0
8093,62.0,0,120,7.0,0.0
8094,42.0,30,30,6.0,0.0
8095,55.0,0,30,1.0,0.0
8096,55.0,0,30,15.0,0.0
8097,43.0,0,30,6.0,0.0
8098,55.0,30,30,10.0,0.0
8099,55.0,0,30,14.0,0.0
8100,52.0,0,30,15.0,0.0
8101,72.0,0,60,15.0,0.0
8102,52.0,0,30,14.0,0.0
8103,50.0,0,30,8.0,0.0
8104,64.0,0,60,15.0,0.0
8105,40.0,0,30,6.0,0.0
8106,52.0,30,30,10.0,0.0
8107,69.0,0,60,15.0,0.0
8108,52.0,0,30,1.0,0.0
8109,72.0,0,60,0.0,0.0
8110,72.0,0,60,11.0,0.0
8111,72.0,0,60,2.0,0.0
8112,54.0,0,30,15.0,0.0
8113,54.0,0,30,10.0,0.0
8114,57.0,0,30,13.0,0.0
8115,69.0,0,30,0.0,0.0
8116,50.0,0,30,8.0,0.0
8117,69.0,0,30,12.0,0.0
8118,69.0,0,30,10.0,0.0
8119,57.0,0,30,4.0,0.0
8120,69.0,0,30,3.0,0.0
8121,42.0,0,30,6.0,0.0
8122,54.0,30,30,1.0,0.0
8123,54.0,0,30,14.0,0.0
8124,57.0,0,30,1.0,0.0
8125,57.0,0,30,10.0,0.0
8126,59.0,0,120,13.0,0.0
8127,62.0,0,60,0.0,0.0
8128,70.0,0,60,2.0,0.0
8129,59.0,0,120,10.0,0.0
8130,43.0,30,30,6.0,0.0
8131,55.0,0,30,10.0,0.0
8132,50.0,0,120,8.0,0.0
8133,55.0,0,30,14.0,0.0
8134,62.0,0,60,10.0,0.0
8135,59.0,0,120,4.0,0.0
8136,62.0,0,60,3.0,0.0
8137,71.0,0,60,0.0,0.0
8138,59.0,0,120,1.0,0.0
8139,71.0,0,60,11.0,0.0
8140,55.0,0,30,15.0,0.0
8141,59.0,0,60,15.0,0.0
8142,62.0,0,60,12.0,0.0
8143,62.0,0,60,15.0,0.0
8144,71.0,0,60,15.0,0.0
8145,74.0,0,120,7.0,0.0
8146,62.0,0,120,7.0,0.0
8147,55.0,0,30,1.0,0.0
8148,57.0,0,30,14.0,0.0
8149,57.0,0,30,15.0,0.0
8150,57.0,30,30,10.0,0.0
8151,57.0,0,30,1.0,0.0
8152,45.0,0,30,6.0,0.0
8153,64.0,0,60,11.0,0.0
8154,55.0,0,30,1.0,0.0
8155,55.0,0,30,15.0,0.0
8156,64.0,0,60,2.0,0.0
8157,59.0,0,60,15.0,0.0
8158,71.0,0,60,15.0,0.0
8159,55.0,0,30,10.0,0.0
8160,64.0,0,60,15.0,0.0
8161,43.0,0,30,6.0,0.0
8162,71.0,0,60,12.0,0.0
8163,71.0,0,60,3.0,0.0
8164,55.0,30,30,14.0,0.0
8165,64.0,0,60,0.0,0.0
8166,71.0,0,60,0.0,0.0
8167,71.0,0,60,10.0,0.0
8168,54.0,0,30,10.0,0.0
8169,54.0,0,30,15.0,0.0
8170,54.0,0,30,1.0,0.0
8171,54.0,30,30,14.0,0.0
8172,42.0,0,30,6.0,0.0
8173,56.0,0,30,15.0,0.0
8174,71.0,0,120,0.0,0.0
8175,59.0,0,90,10.0,0.0
8176,59.0,0,90,4.0,0.0
8177,76.0,0,60,2.0,0.0
8178,71.0,0,120,3.0,0.0
8179,71.0,0,120,10.0,0.0
8180,71.0,0,120,15.0,0.0
8181,76.0,0,60,0.0,0.0
8182,56.0,0,30,14.0,0.0
8183,59.0,0,60,1.0,0.0
8184,56.0,30,30,1.0,0.0
8185,76.0,0,60,11.0,0.0
8186,59.0,30,90,13.0,0.0
8187,74.0,0,60,15.0,0.0
8188,44.0,0,30,6.0,0.0
8189,68.0,0,60,15.0,0.0
8190,56.0,0,30,10.0,0.0
8191,71.0,0,120,12.0,0.0
8192,57.0,0,30,15.0,0.0
8193,57.0,30,30,14.0,0.0
8194,57.0,0,30,10.0,0.0
8195,45.0,0,30,6.0,0.0
8196,57.0,0,30,1.0,0.0
8197,74.0,0,60,11.0,0.0
8198,74.0,0,60,2.0,0.0
8199,54.0,0,30,10.0,0.0
8200,53.0,0,30,1.0,0.0
8201,66.0,0,60,15.0,0.0
8202,42.0,0,30,6.0,0.0
8203,74.0,0,60,0.0,0.0
8204,54.0,0,30,14.0,0.0
8205,54.0,0,30,15.0,0.0
8206,74.0,0,60,15.0,0.0
8207,55.0,0,30,15.0,0.0
8208,56.0,0,30,1.0,0.0
8209,56.0,0,30,10.0,0.0
8210,59.0,0,30,10.0,0.0
8211,59.0,0,30,4.0,0.0
8212,43.0,60,30,6.0,0.0
8213,59.0,0,30,13.0,0.0
8214,59.0,0,30,1.0,0.0
8215,56.0,0,30,14.0,0.0
8216,45.0,0,180,6.0,0.0
8217,57.0,0,60,10.0,0.0
8218,57.0,60,60,14.0,0.0
8219,64.0,0,60,12.0,0.0
8220,61.0,0,120,15.0,0.0
8221,61.0,0,60,1.0,0.0
8222,57.0,0,60,1.0,0.0
8223,61.0,0,60,13.0,0.0
8224,64.0,0,120,15.0,0.0
8225,73.0,0,120,2.0,0.0
8226,64.0,0,60,10.0,0.0
8227,64.0,0,60,3.0,0.0
8228,73.0,0,120,11.0,0.0
8229,61.0,0,60,10.0,0.0
8230,57.0,0,180,15.0,0.0
8231,73.0,0,120,15.0,0.0
8232,73.0,0,120,0.0,0.0
8233,64.0,0,60,0.0,0.0
8234,61.0,0,60,4.0,0.0
8235,57.0,0,60,13.0,0.0
8236,61.0,60,60,0.0,0.0
8237,57.0,0,120,14.0,0.0
8238,61.0,0,60,12.0,0.0
8239,57.0,0,60,1.0,0.0
8240,57.0,0,60,7.0,0.0
8241,61.0,0,60,3.0,0.0
8242,57.0,0,60,10.0,0.0
8243,45.0,0,60,8.0,0.0
8244,57.0,0,60,4.0,0.0
8245,69.0,0,60,7.0,0.0
8246,61.0,0,60,10.0,0.0
8247,62.0,0,60,0.0,0.0
8248,62.0,0,60,3.0,0.0
8249,59.0,0,60,13.0,0.0
8250,62.0,0,60,10.0,0.0
8251,59.0,0,60,15.0,0.0
8252,62.0,0,60,12.0,0.0
8253,59.0,0,60,1.0,0.0
8254,62.0,0,60,15.0,0.0
8255,45.0,0,60,8.0,0.0
8256,69.0,0,60,7.0,0.0
8257,59.0,0,60,4.0,0.0
8258,57.0,0,60,7.0,0.0
8259,59.0,0,60,10.0,0.0
8260,61.0,0,60,1.0,0.0
8261,64.0,0,60,3.0,0.0
8262,64.0,0,60,0.0,0.0
8263,57.0,0,60,1.0,0.0
8264,45.0,0,60,8.0,0.0
8265,61.0,0,60,15.0,0.0
8266,61.0,0,60,10.0,0.0
8267,57.0,0,60,15.0,0.0
8268,64.0,0,60,15.0,0.0
8269,64.0,0,60,10.0,0.0
8270,57.0,0,60,14.0,0.0
8271,61.0,0,60,4.0,0.0
8272,57.0,0,60,7.0,0.0
8273,45.0,0,60,6.0,0.0
8274,69.0,0,60,7.0,0.0
8275,64.0,0,60,12.0,0.0
8276,57.0,60,60,10.0,0.0
8277,61.0,0,60,13.0,0.0
8278,65.0,0,60,12.0,0.0
8279,62.0,0,180,4.0,0.0
8280,41.0,0,120,6.0,0.0
8281,62.0,0,120,15.0,0.0
8282,69.0,0,120,15.0,0.0
8283,62.0,0,180,10.0,0.0
8284,50.0,0,120,8.0,0.0
8285,53.0,0,120,14.0,0.0
8286,65.0,0,60,10.0,0.0
8287,62.0,30,180,13.0,0.0
8288,53.0,60,120,10.0,0.0
8289,62.0,0,120,7.0,0.0
8290,53.0,0,120,1.0,0.0
8291,62.0,0,180,1.0,0.0
8292,69.0,0,120,7.0,0.0
8293,65.0,0,60,3.0,0.0
8294,53.0,0,120,15.0,0.0
8295,65.0,30,60,0.0,0.0
8296,64.0,30,30,0.0,0.0
8297,64.0,0,30,3.0,0.0
8298,64.0,0,30,12.0,0.0
8299,64.0,0,30,10.0,0.0
8300,65.0,0,30,0.0,0.0
8301,65.0,0,30,12.0,0.0
8302,65.0,0,30,10.0,0.0
8303,65.0,0,30,3.0,0.0
8304,67.0,0,60,0.0,0.0
8305,58.0,0,120,15.0,0.0
8306,62.0,0,120,15.0,0.0
8307,67.0,0,120,15.0,0.0
8308,58.0,0,120,10.0,0.0
8309,67.0,0,60,3.0,0.0
8310,67.0,0,60,10.0,0.0
8311,50.0,0,120,8.0,0.0
8312,58.0,0,120,14.0,0.0
8313,58.0,0,120,1.0,0.0
8314,74.0,0,120,7.0,0.0
8315,62.0,0,120,7.0,0.0
8316,67.0,0,60,12.0,0.0
8317,46.0,0,120,6.0,0.0
8318,65.0,30,30,12.0,0.0
8319,65.0,0,30,0.0,0.0
8320,62.0,0,60,13.0,0.0
8321,62.0,0,60,4.0,0.0
8322,65.0,0,30,10.0,0.0
8323,65.0,0,30,3.0,0.0
8324,62.0,0,60,10.0,0.0
8325,62.0,0,60,1.0,0.0
8326,67.0,0,30,0.0,0.0
8327,67.0,0,30,10.0,0.0
8328,67.0,0,30,12.0,0.0
8329,67.0,60,30,3.0,0.0
8330,69.0,0,60,10.0,0.0
8331,69.0,60,60,15.0,0.0
8332,64.0,0,240,15.0,0.0
8333,49.0,0,180,15.0,0.0
8334,49.0,0,180,10.0,0.0
8335,64.0,0,120,13.0,0.0
8336,69.0,0,60,12.0,0.0
8337,64.0,0,120,4.0,0.0
8338,69.0,0,60,3.0,0.0
8339,37.0,0,180,6.0,0.0
8340,49.0,0,180,14.0,0.0
8341,69.0,0,120,7.0,0.0
8342,64.0,0,120,10.0,0.0
8343,64.0,0,120,1.0,0.0
8344,69.0,0,60,0.0,0.0
8345,49.0,0,180,1.0,0.0
8346,45.0,0,120,8.0,0.0
8347,57.0,0,120,7.0,0.0
8348,76.0,0,60,2.0,0.0
8349,70.0,0,60,10.0,0.0
8350,76.0,0,60,0.0,0.0
8351,70.0,0,60,12.0,0.0
8352,70.0,0,60,0.0,0.0
8353,76.0,0,60,11.0,0.0
8354,76.0,60,60,15.0,0.0
8355,70.0,0,60,15.0,0.0
8356,70.0,0,60,3.0,0.0
8357,57.0,0,180,1.0,0.0
8358,76.0,0,60,0.0,0.0
8359,69.0,0,60,0.0,0.0
8360,57.0,0,180,4.0,0.0
8361,76.0,0,60,2.0,0.0
8362,57.0,0,180,13.0,0.0
8363,69.0,0,60,12.0,0.0
8364,76.0,60,60,11.0,0.0
8365,76.0,0,60,15.0,0.0
8366,69.0,0,60,15.0,0.0
8367,57.0,0,180,10.0,0.0
8368,69.0,0,60,10.0,0.0
8369,69.0,0,60,3.0,0.0
8370,76.0,0,60,0.0,0.0
8371,37.0,0,60,6.0,0.0
8372,67.0,0,60,12.0,0.0
8373,67.0,0,60,10.0,0.0
8374,76.0,0,60,11.0,0.0
8375,49.0,0,60,1.0,0.0
8376,76.0,0,60,2.0,0.0
8377,67.0,0,60,3.0,0.0
8378,76.0,30,60,15.0,0.0
8379,67.0,0,60,15.0,0.0
8380,49.0,0,60,15.0,0.0
8381,49.0,0,60,10.0,0.0
8382,49.0,0,60,14.0,0.0
8383,67.0,0,60,0.0,0.0
8384,77.0,0,30,11.0,0.0
8385,50.0,0,120,10.0,0.0
8386,77.0,0,120,15.0,0.0
8387,69.0,0,120,15.0,0.0
8388,65.0,30,120,15.0,0.0
8389,50.0,0,120,15.0,0.0
8390,50.0,0,120,14.0,0.0
8391,65.0,30,60,3.0,0.0
8392,38.0,0,120,6.0,0.0
8393,50.0,0,120,1.0,0.0
8394,65.0,0,60,0.0,0.0
8395,77.0,0,30,0.0,0.0
8396,65.0,0,60,10.0,0.0
8397,65.0,0,60,12.0,0.0
8398,77.0,30,30,2.0,0.0
8399,79.0,0,30,0.0,0.0
8400,79.0,0,30,2.0,0.0
8401,79.0,0,30,11.0,0.0
8402,69.0,0,60,12.0,0.0
8403,77.0,30,30,0.0,0.0
8404,69.0,0,60,0.0,0.0
8405,69.0,0,60,3.0,0.0
8406,69.0,0,60,10.0,0.0
8407,53.0,0,60,1.0,0.0
8408,77.0,0,30,2.0,0.0
8409,53.0,0,60,10.0,0.0
8410,77.0,0,30,11.0,0.0
8411,53.0,0,60,13.0,0.0
8412,53.0,0,60,4.0,0.0
8413,76.0,0,30,11.0,0.0
8414,76.0,0,30,2.0,0.0
8415,76.0,0,30,0.0,0.0
8416,58.0,0,180,1.0,0.0
8417,77.0,30,30,2.0,0.0
8418,58.0,0,180,10.0,0.0
8419,74.0,0,120,10.0,0.0
8420,74.0,0,240,0.0,0.0
8421,74.0,0,240,3.0,0.0
8422,58.0,0,180,13.0,0.0
8423,74.0,30,120,12.0,0.0
8424,58.0,0,120,4.0,0.0
8425,65.0,0,120,15.0,0.0
8426,70.0,0,60,15.0,0.0
8427,77.0,0,30,11.0,0.0
8428,77.0,0,30,0.0,0.0
8429,79.0,30,30,11.0,0.0
8430,79.0,0,30,0.0,0.0
8431,79.0,0,30,2.0,0.0
8432,50.0,0,60,1.0,0.0
8433,50.0,0,60,14.0,0.0
8434,50.0,0,60,10.0,0.0
8435,50.0,0,60,15.0,0.0
8436,76.0,30,30,2.0,0.0
8437,69.0,0,60,15.0,0.0
8438,76.0,0,30,0.0,0.0
8439,38.0,0,60,6.0,0.0
8440,76.0,0,30,11.0,0.0
8441,77.0,0,30,0.0,0.0
8442,77.0,0,30,2.0,0.0
8443,77.0,0,30,11.0,0.0
8444,58.0,0,60,4.0,0.0
8445,79.0,30,30,2.0,0.0
8446,74.0,0,120,10.0,0.0
8447,79.0,0,30,11.0,0.0
8448,52.0,0,180,10.0,0.0
8449,40.0,0,180,6.0,0.0
8450,52.0,0,180,14.0,0.0
8451,74.0,30,120,15.0,0.0
8452,52.0,0,180,1.0,0.0
8453,67.0,0,240,15.0,0.0
8454,52.0,0,180,15.0,0.0
8455,79.0,0,180,0.0,0.0
8456,74.0,0,120,12.0,0.0
8457,58.0,0,120,15.0,0.0
8458,81.0,0,30,2.0,0.0
8459,81.0,30,30,11.0,0.0
8460,55.0,0,60,10.0,0.0
8461,79.0,30,30,2.0,0.0
8462,55.0,0,60,4.0,0.0
8463,55.0,0,60,1.0,0.0
8464,55.0,0,60,13.0,0.0
8465,79.0,0,30,11.0,0.0
8466,77.0,0,30,11.0,0.0
8467,77.0,0,30,2.0,0.0
8468,64.0,0,60,13.0,0.0
8469,64.0,0,60,4.0,0.0
8470,73.0,0,120,3.0,0.0
8471,73.0,0,120,12.0,0.0
8472,64.0,30,60,10.0,0.0
8473,73.0,0,120,10.0,0.0
8474,64.0,0,60,1.0,0.0
8475,79.0,30,30,2.0,0.0
8476,73.0,0,120,0.0,0.0
8477,79.0,0,30,11.0,0.0
8478,73.0,0,120,15.0,0.0
8479,81.0,0,30,2.0,0.0
8480,81.0,0,30,11.0,0.0
8481,64.0,0,60,10.0,0.0
8482,50.0,0,30,15.0,0.0
8483,50.0,0,30,14.0,0.0
8484,77.0,0,30,11.0,0.0
8485,50.0,0,30,10.0,0.0
8486,77.0,0,30,0.0,0.0
8487,64.0,0,60,4.0,0.0
8488,64.0,0,60,1.0,0.0
8489,50.0,0,30,1.0,0.0
8490,38.0,30,30,6.0,0.0
8491,64.0,0,60,13.0,0.0
8492,77.0,0,30,2.0,0.0
8493,79.0,0,30,11.0,0.0
8494,52.0,60,30,10.0,0.0
8495,40.0,0,30,6.0,0.0
8496,52.0,0,30,15.0,0.0
8497,76.0,0,30,0.0,0.0
8498,79.0,0,30,2.0,0.0
8499,52.0,0,30,14.0,0.0
8500,52.0,0,30,1.0,0.0
8501,41.0,0,60,6.0,0.0
8502,62.0,0,60,10.0,0.0
8503,81.0,0,60,11.0,0.0
8504,53.0,0,60,14.0,0.0
8505,65.0,30,120,15.0,0.0
8506,69.0,0,120,15.0,0.0
8507,53.0,30,60,15.0,0.0
8508,62.0,0,60,13.0,0.0
8509,74.0,0,120,0.0,0.0
8510,81.0,0,60,2.0,0.0
8511,62.0,0,60,4.0,0.0
8512,53.0,0,60,10.0,0.0
8513,62.0,0,60,1.0,0.0
8514,62.0,0,120,15.0,0.0
8515,53.0,0,60,1.0,0.0
8516,52.0,0,30,14.0,0.0
8517,61.0,0,30,1.0,0.0
8518,52.0,30,30,1.0,0.0
8519,82.0,0,30,11.0,0.0
8520,61.0,0,30,10.0,0.0
8521,52.0,0,30,15.0,0.0
8522,82.0,0,30,2.0,0.0
8523,61.0,0,30,4.0,0.0
8524,40.0,0,30,6.0,0.0
8525,52.0,0,30,10.0,0.0
8526,61.0,0,30,13.0,0.0
8527,62.0,0,30,1.0,0.0
8528,81.0,0,30,2.0,0.0
8529,62.0,0,30,4.0,0.0
8530,41.0,0,30,6.0,0.0
8531,53.0,0,30,14.0,0.0
8532,53.0,0,30,15.0,0.0
8533,62.0,0,30,10.0,0.0
8534,53.0,0,30,1.0,0.0
8535,62.0,0,30,13.0,0.0
8536,53.0,0,30,10.0,0.0
8537,81.0,0,30,11.0,0.0
8538,64.0,0,30,4.0,0.0
8539,64.0,0,30,13.0,0.0
8540,79.0,0,30,2.0,0.0
8541,43.0,0,60,6.0,0.0
8542,79.0,0,30,0.0,0.0
8543,79.0,0,30,11.0,0.0
8544,55.0,0,60,1.0,0.0
8545,64.0,0,30,1.0,0.0
8546,55.0,0,60,14.0,0.0
8547,70.0,0,120,15.0,0.0
8548,67.0,0,120,15.0,0.0
8549,55.0,30,60,10.0,0.0
8550,64.0,60,120,15.0,0.0
8551,55.0,0,60,15.0,0.0
8552,64.0,30,30,10.0,0.0
8553,65.0,0,30,10.0,0.0
8554,77.0,0,30,0.0,0.0
8555,77.0,0,30,2.0,0.0
8556,65.0,0,30,1.0,0.0
8557,77.0,0,30,11.0,0.0
8558,65.0,0,30,4.0,0.0
8559,65.0,0,30,13.0,0.0
8560,76.0,0,30,0.0,0.0
8561,67.0,0,30,1.0,0.0
8562,53.0,0,30,15.0,0.0
8563,53.0,0,30,10.0,0.0
8564,53.0,0,30,14.0,0.0
8565,67.0,0,30,10.0,0.0
8566,41.0,0,30,6.0,0.0
8567,76.0,30,30,11.0,0.0
8568,53.0,0,30,1.0,0.0
8569,67.0,0,30,13.0,0.0
8570,67.0,0,30,4.0,0.0
8571,76.0,0,30,2.0,0.0
8572,74.0,0,30,11.0,0.0
8573,65.0,0,30,4.0,0.0
8574,55.0,0,30,10.0,0.0
8575,55.0,0,30,14.0,0.0
8576,74.0,0,30,0.0,0.0
8577,55.0,0,30,1.0,0.0
8578,65.0,0,30,1.0,0.0
8579,43.0,0,30,6.0,0.0
8580,65.0,0,30,13.0,0.0
8581,74.0,0,30,2.0,0.0
8582,55.0,0,30,15.0,0.0
8583,65.0,0,30,10.0,0.0
8584,64.0,0,60,13.0,0.0
8585,57.0,0,60,15.0,0.0
8586,73.0,0,60,15.0,0.0
8587,64.0,0,60,15.0,0.0
8588,57.0,0,60,14.0,0.0
8589,57.0,0,60,10.0,0.0
8590,64.0,30,60,4.0,0.0
8591,73.0,0,60,0.0,0.0
8592,64.0,0,60,10.0,0.0
8593,45.0,0,60,6.0,0.0
8594,57.0,0,60,1.0,0.0
8595,73.0,0,60,11.0,0.0
8596,64.0,0,60,1.0,0.0
8597,73.0,0,60,2.0,0.0
8598,62.0,30,60,13.0,0.0
8599,62.0,0,60,1.0,0.0
8600,74.0,0,60,2.0,0.0
8601,58.0,0,30,1.0,0.0
8602,58.0,0,30,14.0,0.0
8603,58.0,0,30,10.0,0.0
8604,62.0,0,60,15.0,0.0
8605,58.0,30,30,15.0,0.0
8606,65.0,0,60,15.0,0.0
8607,74.0,0,60,11.0,0.0
8608,62.0,0,60,10.0,0.0
8609,74.0,0,60,0.0,0.0
8610,46.0,0,30,6.0,0.0
8611,62.0,0,60,4.0,0.0
8612,57.0,0,30,15.0,0.0
8613,57.0,0,30,1.0,0.0
8614,57.0,0,30,14.0,0.0
8615,57.0,0,30,10.0,0.0
8616,45.0,0,30,6.0,0.0
8617,70.0,0,120,15.0,0.0
8618,55.0,0,30,15.0,0.0
8619,76.0,0,120,15.0,0.0
8620,61.0,0,90,4.0,0.0
8621,76.0,0,180,0.0,0.0
8622,61.0,0,120,15.0,0.0
8623,55.0,30,30,10.0,0.0
8624,70.0,0,180,0.0,0.0
8625,70.0,0,180,3.0,0.0
8626,70.0,0,180,10.0,0.0
8627,76.0,0,180,2.0,0.0
8628,70.0,60,180,12.0,0.0
8629,55.0,0,30,1.0,0.0
8630,76.0,0,180,11.0,0.0
8631,61.0,0,90,10.0,0.0
8632,61.0,0,90,1.0,0.0
8633,43.0,0,30,6.0,0.0
8634,61.0,0,90,13.0,0.0
8635,55.0,0,30,14.0,0.0
8636,53.0,30,30,10.0,0.0
8637,53.0,0,30,1.0,0.0
8638,53.0,0,30,15.0,0.0
8639,41.0,0,30,6.0,0.0
8640,53.0,0,30,14.0,0.0
8641,40.0,0,30,6.0,0.0
8642,52.0,0,30,14.0,0.0
8643,52.0,0,30,15.0,0.0
8644,52.0,30,30,10.0,0.0
8645,52.0,0,30,1.0,0.0
8646,62.0,0,30,10.0,0.0
8647,38.0,0,30,6.0,0.0
8648,50.0,0,30,14.0,0.0
8649,62.0,60,30,4.0,0.0
8650,50.0,0,30,10.0,0.0
8651,50.0,0,30,1.0,0.0
8652,62.0,0,30,1.0,0.0
8653,62.0,0,30,13.0,0.0
8654,50.0,0,30,15.0,0.0
8655,37.0,0,120,6.0,0.0
8656,49.0,0,120,14.0,0.0
8657,64.0,0,120,4.0,0.0
8658,64.0,0,120,13.0,0.0
8659,49.0,0,120,10.0,0.0
8660,49.0,0,120,15.0,0.0
8661,64.0,0,120,10.0,0.0
8662,76.0,60,120,15.0,0.0
8663,67.0,0,120,15.0,0.0
8664,70.0,0,120,15.0,0.0
8665,64.0,0,120,1.0,0.0
8666,49.0,0,120,1.0,0.0
8667,79.0,0,60,11.0,0.0
8668,70.0,0,60,12.0,0.0
8669,70.0,0,60,0.0,0.0
8670,45.0,0,60,8.0,0.0
8671,70.0,0,60,10.0,0.0
8672,70.0,0,60,3.0,0.0
8673,57.0,0,60,7.0,0.0
8674,79.0,0,60,0.0,0.0
8675,69.0,0,60,7.0,0.0
8676,79.0,0,60,2.0,0.0
8677,69.0,0,60,12.0,0.0
8678,69.0,0,60,3.0,0.0
8679,50.0,0,60,14.0,0.0
8680,69.0,0,60,10.0,0.0
8681,77.0,0,60,0.0,0.0
8682,69.0,0,60,0.0,0.0
8683,50.0,0,60,8.0,0.0
8684,38.0,0,60,6.0,0.0
8685,77.0,0,60,11.0,0.0
8686,77.0,0,60,2.0,0.0
8687,50.0,0,60,1.0,0.0
8688,65.0,0,60,15.0,0.0
8689,57.0,0,60,1.0,0.0
8690,69.0,0,60,7.0,0.0
8691,57.0,0,60,4.0,0.0
8692,57.0,0,60,7.0,0.0
8693,69.0,0,60,15.0,0.0
8694,57.0,0,60,10.0,0.0
8695,57.0,0,60,15.0,0.0
8696,50.0,0,60,10.0,0.0
8697,50.0,60,60,15.0,0.0
8698,57.0,0,60,13.0,0.0
8699,57.0,0,60,7.0,0.0
8700,69.0,0,60,7.0,0.0
8701,69.0,0,60,12.0,0.0
8702,61.0,0,60,1.0,0.0
8703,76.0,0,60,2.0,0.0
8704,60.0,0,60,13.0,0.0
8705,60.0,60,60,10.0,0.0
8706,61.0,0,60,4.0,0.0
8707,61.0,0,60,15.0,0.0
8708,57.0,0,60,14.0,0.0
8709,45.0,0,60,8.0,0.0
8710,57.0,0,60,1.0,0.0
8711,45.0,0,60,6.0,0.0
8712,57.0,0,60,15.0,0.0
8713,69.0,0,60,3.0,0.0
8714,76.0,0,60,11.0,0.0
8715,69.0,0,60,0.0,0.0
8716,57.0,0,60,10.0,0.0
8717,76.0,0,60,15.0,0.0
8718,76.0,0,60,0.0,0.0
8719,69.0,0,60,10.0,0.0
8720,62.0,0,60,1.0,0.0
8721,74.0,0,240,7.0,0.0
8722,62.0,0,240,7.0,0.0
8723,62.0,0,60,10.0,0.0
8724,62.0,0,60,13.0,0.0
8725,74.0,0,180,0.0,0.0
8726,69.0,0,120,0.0,0.0
8727,58.0,0,120,15.0,0.0
8728,58.0,0,180,1.0,0.0
8729,69.0,0,120,10.0,0.0
8730,74.0,0,180,15.0,0.0
8731,62.0,0,60,4.0,0.0
8732,58.0,60,180,10.0,0.0
8733,46.0,0,120,6.0,0.0
8734,74.0,0,180,2.0,0.0
8735,69.0,0,120,3.0,0.0
8736,74.0,0,180,11.0,0.0
8737,50.0,30,60,8.0,0.0
8738,58.0,0,180,14.0,0.0
8739,69.0,0,120,12.0,0.0
8740,69.0,0,120,15.0,0.0
8741,65.0,0,120,15.0,0.0
8742,65.0,0,60,4.0,0.0
8743,65.0,0,60,13.0,0.0
8744,50.0,30,30,8.0,0.0
8745,65.0,0,60,10.0,0.0
8746,65.0,0,60,1.0,0.0
8747,50.0,60,30,8.0,0.0
8748,68.0,0,120,0.0,0.0
8749,64.0,0,60,4.0,0.0
8750,46.0,0,120,15.0,0.0
8751,68.0,0,120,15.0,0.0
8752,64.0,0,60,15.0,0.0
8753,64.0,0,60,10.0,0.0
8754,34.0,0,120,6.0,0.0
8755,68.0,0,120,10.0,0.0
8756,68.0,0,120,3.0,0.0
8757,50.0,0,60,8.0,0.0
8758,68.0,0,120,12.0,0.0
8759,64.0,0,60,1.0,0.0
8760,64.0,0,60,13.0,0.0
8761,62.0,0,60,1.0,0.0
8762,50.0,0,60,8.0,0.0
8763,74.0,0,60,15.0,0.0
8764,74.0,0,60,11.0,0.0
8765,62.0,60,60,10.0,0.0
8766,58.0,0,60,14.0,0.0
8767,62.0,0,60,13.0,0.0
8768,58.0,0,60,1.0,0.0
8769,74.0,0,60,2.0,0.0
8770,74.0,0,60,0.0,0.0
8771,62.0,0,60,4.0,0.0
8772,58.0,0,60,10.0,0.0
8773,45.0,0,60,15.0,0.0
8774,64.0,0,60,10.0,0.0
8775,69.0,0,60,0.0,0.0
8776,69.0,0,60,3.0,0.0
8777,73.0,0,60,2.0,0.0
8778,73.0,0,60,0.0,0.0
8779,69.0,0,120,7.0,0.0
8780,57.0,0,120,7.0,0.0
8781,69.0,0,60,12.0,0.0
8782,45.0,0,120,8.0,0.0
8783,73.0,0,120,15.0,0.0
8784,64.0,0,120,15.0,0.0
8785,69.0,0,120,15.0,0.0
8786,57.0,0,120,14.0,0.0
8787,69.0,0,60,10.0,0.0
8788,73.0,60,60,11.0,0.0
8789,64.0,0,60,13.0,0.0
8790,64.0,0,60,4.0,0.0
8791,64.0,0,60,1.0,0.0
8792,33.0,0,60,6.0,0.0
8793,69.0,0,120,0.0,0.0
8794,73.0,0,60,11.0,0.0
8795,57.0,0,60,1.0,0.0
8796,73.0,0,60,0.0,0.0
8797,57.0,0,60,10.0,0.0
8798,57.0,0,60,4.0,0.0
8799,57.0,0,60,15.0,0.0
8800,69.0,0,120,3.0,0.0
8801,69.0,60,120,10.0,0.0
8802,57.0,0,60,13.0,0.0
8803,69.0,0,120,12.0,0.0
8804,57.0,0,60,5.0,0.0
8805,73.0,0,60,2.0,0.0
8806,69.0,0,60,15.0,0.0
8807,74.0,0,60,11.0,0.0
8808,59.0,0,60,15.0,0.0
8809,59.0,0,60,1.0,0.0
8810,59.0,0,60,10.0,0.0
8811,65.0,0,60,15.0,0.0
8812,74.0,0,60,2.0,0.0
8813,59.0,0,60,4.0,0.0
8814,59.0,0,60,5.0,0.0
8815,59.0,0,60,13.0,0.0
8816,74.0,0,60,0.0,0.0
8817,74.0,0,60,15.0,0.0
8818,69.0,0,60,0.0,0.0
8819,76.0,0,60,0.0,0.0
8820,69.0,0,60,10.0,0.0
8821,69.0,0,60,12.0,0.0
8822,61.0,0,60,1.0,0.0
8823,69.0,0,60,3.0,0.0
8824,76.0,0,60,2.0,0.0
8825,61.0,0,60,4.0,0.0
8826,61.0,0,60,10.0,0.0
8827,76.0,0,60,11.0,0.0
8828,61.0,0,60,5.0,0.0
8829,61.0,0,60,15.0,0.0
8830,76.0,60,60,15.0,0.0
8831,69.0,0,60,15.0,0.0
8832,61.0,0,60,13.0,0.0
8833,69.0,0,120,2.0,0.0
8834,69.0,0,120,0.0,0.0
8835,65.0,0,120,0.0,0.0
8836,62.0,0,60,15.0,0.0
8837,65.0,0,120,10.0,0.0
8838,69.0,0,120,15.0,0.0
8839,65.0,0,120,15.0,0.0
8840,62.0,0,60,13.0,0.0
8841,62.0,0,60,1.0,0.0
8842,69.0,0,120,11.0,0.0
8843,62.0,0,60,10.0,0.0
8844,62.0,60,60,4.0,0.0
8845,62.0,0,60,5.0,0.0
8846,65.0,0,120,3.0,0.0
8847,65.0,60,120,12.0,0.0
8848,50.0,0,60,15.0,0.0
8849,50.0,0,60,1.0,0.0
8850,50.0,0,60,13.0,0.0
8851,50.0,0,60,10.0,0.0
8852,50.0,0,60,4.0,0.0
8853,50.0,0,60,5.0,0.0
8854,55.0,60,60,4.0,0.0
8855,55.0,0,60,10.0,0.0
8856,62.0,0,120,15.0,0.0
8857,55.0,0,60,1.0,0.0
8858,70.0,0,120,12.0,0.0
8859,70.0,0,120,10.0,0.0
8860,70.0,0,120,3.0,0.0
8861,55.0,0,60,5.0,0.0
8862,70.0,60,120,15.0,0.0
8863,55.0,0,60,13.0,0.0
8864,70.0,0,120,0.0,0.0
8865,55.0,0,60,15.0,0.0
8866,52.0,0,60,4.0,0.0
8867,52.0,0,60,5.0,0.0
8868,52.0,0,60,10.0,0.0
8869,52.0,0,60,1.0,0.0
8870,52.0,0,60,15.0,0.0
8871,52.0,0,60,13.0,0.0
8872,57.0,0,60,4.0,0.0
8873,61.0,0,180,3.0,0.0
8874,57.0,60,60,10.0,0.0
8875,61.0,0,180,12.0,0.0
8876,57.0,0,60,15.0,0.0
8877,61.0,0,240,15.0,0.0
8878,64.0,0,240,15.0,0.0
8879,61.0,0,180,0.0,0.0
8880,57.0,0,60,13.0,0.0
8881,57.0,0,60,5.0,0.0
8882,61.0,0,180,10.0,0.0
8883,57.0,0,60,1.0,0.0
8884,70.0,0,60,15.0,0.0
8885,45.0,60,60,14.0,0.0
8886,58.0,0,60,4.0,0.0
8887,45.0,0,60,10.0,0.0
8888,58.0,0,60,1.0,0.0
8889,45.0,0,60,1.0,0.0
8890,33.0,0,60,6.0,0.0
8891,45.0,0,60,15.0,0.0
8892,58.0,0,60,10.0,0.0
8893,58.0,0,60,13.0,0.0
8894,45.0,0,60,1.0,0.0
8895,57.0,0,60,10.0,0.0
8896,69.0,0,60,15.0,0.0
8897,57.0,0,60,4.0,0.0
8898,45.0,0,60,15.0,0.0
8899,45.0,0,60,14.0,0.0
8900,45.0,0,60,10.0,0.0
8901,57.0,0,60,1.0,0.0
8902,33.0,60,60,6.0,0.0
8903,57.0,0,60,13.0,0.0
8904,61.0,0,60,12.0,0.0
8905,45.0,0,60,14.0,0.0
8906,61.0,0,60,0.0,0.0
8907,45.0,0,60,15.0,0.0
8908,33.0,0,60,6.0,0.0
8909,55.0,0,60,4.0,0.0
8910,61.0,0,60,10.0,0.0
8911,45.0,0,60,10.0,0.0
8912,61.0,0,60,3.0,0.0
8913,55.0,0,60,1.0,0.0
8914,45.0,30,60,1.0,0.0
8915,55.0,0,60,13.0,0.0
8916,55.0,0,60,10.0,0.0
8917,67.0,0,60,15.0,0.0
8918,62.0,0,120,0.0,0.0
8919,53.0,0,60,13.0,0.0
8920,46.0,0,30,10.0,0.0
8921,46.0,0,30,15.0,0.0
8922,62.0,0,120,15.0,0.0
8923,53.0,0,60,10.0,0.0
8924,53.0,0,60,1.0,0.0
8925,46.0,30,30,14.0,0.0
8926,53.0,30,60,4.0,0.0
8927,53.0,0,120,15.0,0.0
8928,46.0,0,30,1.0,0.0
8929,62.0,0,120,12.0,0.0
8930,62.0,0,120,3.0,0.0
8931,62.0,30,120,10.0,0.0
8932,34.0,0,30,6.0,0.0
8933,48.0,0,30,15.0,0.0
8934,36.0,0,30,6.0,0.0
8935,48.0,0,30,1.0,0.0
8936,48.0,0,30,14.0,0.0
8937,48.0,0,30,10.0,0.0
8938,34.0,0,30,6.0,0.0
8939,46.0,0,30,10.0,0.0
8940,46.0,30,30,15.0,0.0
8941,50.0,0,60,4.0,0.0
8942,50.0,0,60,10.0,0.0
8943,50.0,0,60,13.0,0.0
8944,46.0,0,30,14.0,0.0
8945,46.0,0,30,1.0,0.0
8946,50.0,0,60,1.0,0.0
8947,33.0,0,30,6.0,0.0
8948,45.0,0,30,1.0,0.0
8949,45.0,0,30,10.0,0.0
8950,45.0,0,30,14.0,0.0
8951,45.0,0,30,15.0,0.0
8952,47.0,0,30,14.0,0.0
8953,55.0,0,60,13.0,0.0
8954,55.0,0,60,1.0,0.0
8955,35.0,30,30,6.0,0.0
8956,47.0,0,30,10.0,0.0
8957,62.0,0,60,15.0,0.0
8958,47.0,0,30,15.0,0.0
8959,55.0,0,60,10.0,0.0
8960,55.0,0,60,4.0,0.0
8961,47.0,0,30,1.0,0.0
8962,55.0,0,60,15.0,0.0
8963,48.0,30,30,14.0,0.0
8964,48.0,0,30,1.0,0.0
8965,48.0,0,30,15.0,0.0
8966,48.0,0,30,10.0,0.0
8967,36.0,0,30,6.0,0.0
8968,62.0,0,60,15.0,0.0
8969,62.0,0,60,3.0,0.0
8970,53.0,0,60,1.0,0.0
8971,45.0,0,30,1.0,0.0
8972,62.0,0,60,12.0,0.0
8973,53.0,0,60,13.0,0.0
8974,53.0,0,60,10.0,0.0
8975,62.0,0,60,0.0,0.0
8976,45.0,0,30,15.0,0.0
8977,53.0,0,60,4.0,0.0
8978,53.0,0,60,15.0,0.0
8979,33.0,30,30,6.0,0.0
8980,45.0,0,30,10.0,0.0
8981,45.0,0,30,14.0,0.0
8982,62.0,0,60,10.0,0.0
8983,47.0,0,30,15.0,0.0
8984,35.0,0,30,6.0,0.0
8985,47.0,0,30,14.0,0.0
8986,47.0,30,30,1.0,0.0
8987,47.0,0,30,10.0,0.0
8988,48.0,30,30,10.0,0.0
8989,36.0,0,30,6.0,0.0
8990,64.0,0,180,0.0,0.0
8991,52.0,0,60,13.0,0.0
8992,48.0,0,30,1.0,0.0
8993,52.0,0,60,10.0,0.0
8994,52.0,0,60,1.0,0.0
8995,48.0,0,30,15.0,0.0
8996,48.0,0,30,14.0,0.0
8997,67.0,0,60,15.0,0.0
8998,64.0,0,180,3.0,0.0
8999,64.0,0,60,15.0,0.0
9000,64.0,0,180,10.0,0.0
9001,52.0,30,60,4.0,0.0
9002,64.0,0,180,12.0,0.0
9003,38.0,0,30,6.0,0.0
9004,50.0,0,30,15.0,0.0
9005,50.0,0,30,1.0,0.0
9006,50.0,0,30,14.0,0.0
9007,50.0,0,30,10.0,0.0
9008,48.0,0,60,4.0,0.0
9009,48.0,30,30,1.0,0.0
9010,69.0,0,180,15.0,0.0
9011,69.0,0,60,11.0,0.0
9012,64.0,0,180,15.0,0.0
9013,48.0,0,30,15.0,0.0
9014,48.0,0,30,10.0,0.0
9015,48.0,0,60,13.0,0.0
9016,69.0,30,60,0.0,0.0
9017,48.0,0,30,14.0,0.0
9018,69.0,0,60,2.0,0.0
9019,36.0,0,30,6.0,0.0
9020,47.0,0,30,15.0,0.0
9021,47.0,0,30,14.0,0.0
9022,35.0,0,30,6.0,0.0
9023,47.0,0,30,10.0,0.0
9024,47.0,0,30,1.0,0.0
9025,69.0,0,60,11.0,0.0
9026,57.0,0,60,1.0,0.0
9027,49.0,0,30,15.0,0.0
9028,49.0,0,30,1.0,0.0
9029,57.0,0,60,13.0,0.0
9030,57.0,0,60,10.0,0.0
9031,49.0,0,30,10.0,0.0
9032,37.0,0,30,6.0,0.0
9033,49.0,30,30,14.0,0.0
9034,69.0,0,60,0.0,0.0
9035,69.0,0,60,2.0,0.0
9036,57.0,0,60,4.0,0.0
9037,50.0,0,30,1.0,0.0
9038,38.0,0,30,6.0,0.0
9039,50.0,30,30,15.0,0.0
9040,50.0,0,30,14.0,0.0
9041,50.0,0,30,10.0,0.0
9042,62.0,0,30,12.0,0.0
9043,47.0,30,30,10.0,0.0
9044,62.0,0,30,3.0,0.0
9045,62.0,0,30,10.0,0.0
9046,47.0,0,30,14.0,0.0
9047,57.0,30,60,4.0,0.0
9048,47.0,0,30,1.0,0.0
9049,47.0,0,30,15.0,0.0
9050,69.0,0,60,0.0,0.0
9051,62.0,0,30,0.0,0.0
9052,69.0,0,60,2.0,0.0
9053,57.0,0,60,10.0,0.0
9054,35.0,0,30,6.0,0.0
9055,57.0,0,60,13.0,0.0
9056,57.0,0,60,1.0,0.0
9057,69.0,0,60,11.0,0.0
9058,49.0,0,30,10.0,0.0
9059,49.0,0,30,15.0,0.0
9060,64.0,0,30,12.0,0.0
9061,64.0,0,30,10.0,0.0
9062,64.0,0,30,0.0,0.0
9063,49.0,0,30,14.0,0.0
9064,64.0,0,30,3.0,0.0
9065,37.0,0,30,6.0,0.0
9066,49.0,0,30,1.0,0.0
9067,53.0,0,120,1.0,0.0
9068,70.0,30,30,11.0,0.0
9069,53.0,0,120,13.0,0.0
9070,53.0,0,120,4.0,0.0
9071,65.0,0,120,12.0,0.0
9072,65.0,0,120,3.0,0.0
9073,50.0,0,60,14.0,0.0
9074,53.0,0,120,15.0,0.0
9075,70.0,0,120,15.0,0.0
9076,50.0,0,60,15.0,0.0
9077,65.0,0,120,15.0,0.0
9078,53.0,0,120,10.0,0.0
9079,50.0,0,60,1.0,0.0
9080,70.0,0,30,2.0,0.0
9081,50.0,0,60,10.0,0.0
9082,65.0,0,120,10.0,0.0
9083,70.0,0,30,0.0,0.0
9084,65.0,0,120,0.0,0.0
9085,38.0,0,60,6.0,0.0
9086,72.0,0,30,2.0,0.0
9087,72.0,30,30,11.0,0.0
9088,72.0,0,30,0.0,0.0
9089,70.0,30,30,2.0,0.0
9090,50.0,0,60,1.0,0.0
9091,70.0,0,30,0.0,0.0
9092,50.0,0,60,10.0,0.0
9093,38.0,0,60,6.0,0.0
9094,70.0,0,30,11.0,0.0
9095,50.0,0,60,14.0,0.0
9096,50.0,0,60,15.0,0.0
9097,69.0,0,30,2.0,0.0
9098,69.0,30,30,11.0,0.0
9099,69.0,0,30,0.0,0.0
9100,55.0,0,60,15.0,0.0
9101,71.0,0,120,15.0,0.0
9102,55.0,0,60,10.0,0.0
9103,55.0,0,60,1.0,0.0
9104,43.0,0,60,6.0,0.0
9105,71.0,30,30,11.0,0.0
9106,71.0,0,30,0.0,0.0
9107,62.0,0,120,1.0,0.0
9108,62.0,30,120,4.0,0.0
9109,55.0,0,60,14.0,0.0
9110,62.0,0,120,15.0,0.0
9111,71.0,0,30,2.0,0.0
9112,62.0,0,120,10.0,0.0
9113,62.0,0,120,13.0,0.0
9114,72.0,0,30,0.0,0.0
9115,72.0,0,30,11.0,0.0
9116,72.0,30,30,2.0,0.0
9117,53.0,0,60,10.0,0.0
9118,41.0,0,60,6.0,0.0
9119,69.0,0,30,11.0,0.0
9120,53.0,0,60,15.0,0.0
9121,53.0,0,60,14.0,0.0
9122,69.0,30,30,0.0,0.0
9123,53.0,0,60,1.0,0.0
9124,69.0,0,30,2.0,0.0
9125,71.0,0,30,2.0,0.0
9126,71.0,0,30,11.0,0.0
9127,71.0,0,30,0.0,0.0
9128,52.0,0,60,1.0,0.0
9129,72.0,0,30,0.0,0.0
9130,55.0,0,120,10.0,0.0
9131,72.0,30,30,11.0,0.0
9132,52.0,0,60,14.0,0.0
9133,55.0,0,120,4.0,0.0
9134,55.0,0,120,15.0,0.0
9135,72.0,0,30,2.0,0.0
9136,52.0,0,60,15.0,0.0
9137,52.0,30,60,10.0,0.0
9138,55.0,0,120,1.0,0.0
9139,40.0,0,60,6.0,0.0
9140,72.0,30,120,15.0,0.0
9141,55.0,0,120,13.0,0.0
9142,74.0,0,30,0.0,0.0
9143,74.0,0,30,2.0,0.0
9144,74.0,0,30,11.0,0.0
9145,64.0,0,60,12.0,0.0
9146,64.0,0,60,3.0,0.0
9147,52.0,0,60,15.0,0.0
9148,64.0,0,60,10.0,0.0
9149,72.0,0,30,11.0,0.0
9150,72.0,30,30,2.0,0.0
9151,72.0,0,30,0.0,0.0
9152,64.0,0,60,0.0,0.0
9153,52.0,0,60,14.0,0.0
9154,40.0,0,60,6.0,0.0
9155,52.0,0,60,10.0,0.0
9156,52.0,0,60,1.0,0.0
9157,71.0,0,30,11.0,0.0
9158,71.0,0,30,2.0,0.0
9159,71.0,0,30,0.0,0.0
9160,73.0,0,30,11.0,0.0
9161,64.0,0,60,10.0,0.0
9162,73.0,0,30,0.0,0.0
9163,64.0,0,60,0.0,0.0
9164,45.0,0,60,6.0,0.0
9165,57.0,0,60,10.0,0.0
9166,57.0,0,60,14.0,0.0
9167,64.0,30,60,3.0,0.0
9168,64.0,0,60,12.0,0.0
9169,64.0,0,120,15.0,0.0
9170,73.0,0,120,15.0,0.0
9171,57.0,0,60,15.0,0.0
9172,57.0,0,60,1.0,0.0
9173,73.0,30,30,2.0,0.0
9174,74.0,0,30,11.0,0.0
9175,74.0,0,30,2.0,0.0
9176,74.0,0,30,0.0,0.0
9177,64.0,0,60,0.0,0.0
9178,71.0,0,30,0.0,0.0
9179,64.0,0,60,10.0,0.0
9180,55.0,30,60,14.0,0.0
9181,71.0,30,30,2.0,0.0
9182,55.0,0,60,15.0,0.0
9183,64.0,0,60,3.0,0.0
9184,55.0,0,60,10.0,0.0
9185,43.0,0,60,6.0,0.0
9186,55.0,0,60,1.0,0.0
9187,71.0,0,30,11.0,0.0
9188,64.0,0,60,12.0,0.0
9189,73.0,0,30,2.0,0.0
9190,73.0,0,30,11.0,0.0
9191,73.0,0,30,0.0,0.0
9192,53.0,0,120,10.0,0.0
9193,74.0,0,120,15.0,0.0
9194,69.0,0,120,15.0,0.0
9195,53.0,0,120,14.0,0.0
9196,65.0,0,30,10.0,0.0
9197,41.0,0,60,6.0,0.0
9198,74.0,0,120,11.0,0.0
9199,65.0,0,30,12.0,0.0
9200,53.0,0,60,15.0,0.0
9201,74.0,0,120,2.0,0.0
9202,53.0,0,120,1.0,0.0
9203,74.0,0,120,0.0,0.0
9204,65.0,30,30,0.0,0.0
9205,65.0,0,30,3.0,0.0
9206,67.0,0,30,10.0,0.0
9207,67.0,0,30,12.0,0.0
9208,67.0,30,30,3.0,0.0
9209,67.0,0,30,0.0,0.0
9210,57.0,30,60,15.0,0.0
9211,65.0,0,30,0.0,0.0
9212,57.0,0,60,5.0,0.0
9213,57.0,0,60,4.0,0.0
9214,57.0,0,60,13.0,0.0
9215,57.0,0,60,1.0,0.0
9216,65.0,30,30,10.0,0.0
9217,65.0,0,30,3.0,0.0
9218,65.0,0,30,12.0,0.0
9219,57.0,0,60,10.0,0.0
9220,64.0,0,30,10.0,0.0
9221,64.0,0,30,12.0,0.0
9222,64.0,0,30,3.0,0.0
9223,64.0,0,30,0.0,0.0
9224,62.0,0,60,10.0,0.0
9225,62.0,0,60,1.0,0.0
9226,62.0,0,60,5.0,0.0
9227,66.0,0,60,15.0,0.0
9228,62.0,0,60,15.0,0.0
9229,66.0,0,30,3.0,0.0
9230,70.0,0,60,15.0,0.0
9231,62.0,0,60,4.0,0.0
9232,66.0,30,30,0.0,0.0
9233,66.0,0,30,12.0,0.0
9234,66.0,0,30,10.0,0.0
9235,62.0,0,60,13.0,0.0
9236,67.0,0,30,3.0,0.0
9237,67.0,0,30,12.0,0.0
9238,67.0,0,30,10.0,0.0
9239,67.0,30,30,0.0,0.0
9240,64.0,0,30,0.0,0.0
9241,64.0,0,30,3.0,0.0
9242,64.0,30,30,10.0,0.0
9243,64.0,0,30,12.0,0.0
9244,60.0,0,60,4.0,0.0
9245,60.0,0,60,1.0,0.0
9246,60.0,0,60,13.0,0.0
9247,60.0,0,60,10.0,0.0
9248,67.0,30,60,15.0,0.0
9249,60.0,0,60,15.0,0.0
9250,64.0,0,60,15.0,0.0
9251,60.0,0,60,5.0,0.0
9252,66.0,0,30,12.0,0.0
9253,66.0,0,30,3.0,0.0
9254,66.0,0,30,0.0,0.0
9255,66.0,0,30,10.0,0.0
9256,67.0,0,30,10.0,0.0
9257,59.0,0,60,13.0,0.0
9258,62.0,0,60,15.0,0.0
9259,59.0,0,60,10.0,0.0
9260,59.0,0,60,4.0,0.0
9261,59.0,0,60,15.0,0.0
9262,67.0,0,30,3.0,0.0
9263,59.0,0,60,1.0,0.0
9264,67.0,0,30,0.0,0.0
9265,67.0,0,120,15.0,0.0
9266,67.0,30,30,12.0,0.0
9267,59.0,0,60,5.0,0.0
9268,69.0,30,30,3.0,0.0
9269,69.0,0,30,0.0,0.0
9270,69.0,0,30,10.0,0.0
9271,69.0,0,30,12.0,0.0
9272,67.0,0,30,0.0,0.0
9273,59.0,0,60,5.0,0.0
9274,76.0,0,60,0.0,0.0
9275,76.0,0,60,2.0,0.0
9276,59.0,0,60,13.0,0.0
9277,59.0,0,60,15.0,0.0
9278,76.0,0,60,15.0,0.0
9279,67.0,0,30,12.0,0.0
9280,76.0,0,60,11.0,0.0
9281,67.0,30,30,10.0,0.0
9282,59.0,0,60,4.0,0.0
9283,59.0,0,60,10.0,0.0
9284,67.0,0,30,3.0,0.0
9285,59.0,30,60,1.0,0.0
9286,66.0,0,30,3.0,0.0
9287,66.0,0,30,12.0,0.0
9288,66.0,0,30,0.0,0.0
9289,66.0,0,30,10.0,0.0
9290,68.0,0,30,3.0,0.0
9291,76.0,0,60,0.0,0.0
9292,68.0,0,30,0.0,0.0
9293,64.0,0,60,5.0,0.0
9294,64.0,30,60,4.0,0.0
9295,64.0,0,60,13.0,0.0
9296,64.0,0,60,1.0,0.0
9297,64.0,0,60,15.0,0.0
9298,68.0,0,120,15.0,0.0
9299,76.0,0,60,11.0,0.0
9300,70.0,0,120,15.0,0.0
9301,64.0,0,60,10.0,0.0
9302,76.0,0,60,2.0,0.0
9303,68.0,30,30,10.0,0.0
9304,68.0,0,30,12.0,0.0
9305,69.0,0,30,3.0,0.0
9306,69.0,0,30,10.0,0.0
9307,69.0,0,30,12.0,0.0
9308,69.0,0,30,0.0,0.0
9309,66.0,30,30,10.0,0.0
9310,76.0,0,60,11.0,0.0
9311,62.0,0,60,4.0,0.0
9312,40.0,0,60,6.0,0.0
9313,52.0,0,60,15.0,0.0
9314,62.0,0,60,10.0,0.0
9315,52.0,0,60,10.0,0.0
9316,66.0,0,30,12.0,0.0
9317,62.0,0,60,15.0,0.0
9318,65.0,0,30,0.0,0.0
9319,76.0,0,60,0.0,0.0
9320,76.0,0,60,2.0,0.0
9321,52.0,0,60,14.0,0.0
9322,66.0,0,30,3.0,0.0
9323,62.0,0,60,13.0,0.0
9324,55.0,0,60,1.0,0.0
9325,62.0,0,60,1.0,0.0
9326,68.0,30,30,12.0,0.0
9327,68.0,0,30,10.0,0.0
9328,68.0,0,30,0.0,0.0
9329,68.0,0,30,3.0,0.0
9330,77.0,30,30,11.0,0.0
9331,60.0,0,120,13.0,0.0
9332,60.0,0,120,10.0,0.0
9333,60.0,0,120,15.0,0.0
9334,57.0,0,60,1.0,0.0
9335,60.0,0,120,1.0,0.0
9336,77.0,0,120,15.0,0.0
9337,57.0,30,60,15.0,0.0
9338,57.0,0,60,10.0,0.0
9339,57.0,0,60,14.0,0.0
9340,60.0,30,120,4.0,0.0
9341,77.0,0,30,0.0,0.0
9342,69.0,0,120,12.0,0.0
9343,69.0,0,120,0.0,0.0
9344,45.0,0,60,6.0,0.0
9345,69.0,0,120,10.0,0.0
9346,77.0,0,30,2.0,0.0
9347,69.0,0,120,3.0,0.0
9348,79.0,0,30,0.0,0.0
9349,79.0,0,30,2.0,0.0
9350,79.0,0,30,11.0,0.0
9351,45.0,0,60,14.0,0.0
9352,45.0,0,60,15.0,0.0
9353,45.0,0,60,1.0,0.0
9354,33.0,0,60,6.0,0.0
9355,77.0,0,30,11.0,0.0
9356,77.0,30,30,2.0,0.0
9357,45.0,0,60,10.0,0.0
9358,77.0,0,30,0.0,0.0
9359,76.0,0,30,0.0,0.0
9360,76.0,0,30,2.0,0.0
9361,76.0,0,30,11.0,0.0
9362,69.0,0,90,10.0,0.0
9363,69.0,0,90,0.0,0.0
9364,50.0,0,60,10.0,0.0
9365,69.0,0,90,3.0,0.0
9366,78.0,30,30,0.0,0.0
9367,62.0,0,90,1.0,0.0
9368,78.0,0,30,2.0,0.0
9369,78.0,0,30,11.0,0.0
9370,50.0,0,60,1.0,0.0
9371,62.0,0,120,15.0,0.0
9372,69.0,0,120,15.0,0.0
9373,78.0,0,120,15.0,0.0
9374,50.0,0,60,15.0,0.0
9375,38.0,0,60,6.0,0.0
9376,62.0,0,90,13.0,0.0
9377,62.0,0,90,10.0,0.0
9378,50.0,0,60,14.0,0.0
9379,62.0,0,90,4.0,0.0
9380,69.0,0,90,12.0,0.0
9381,79.0,0,30,11.0,0.0
9382,79.0,30,30,0.0,0.0
9383,79.0,0,30,2.0,0.0
9384,76.0,30,30,0.0,0.0
9385,48.0,0,60,15.0,0.0
9386,76.0,0,30,2.0,0.0
9387,76.0,0,30,11.0,0.0
9388,48.0,0,60,10.0,0.0
9389,36.0,0,60,6.0,0.0
9390,48.0,0,60,14.0,0.0
9391,48.0,0,60,1.0,0.0
9392,69.0,0,30,3.0,0.0
9393,78.0,0,30,11.0,0.0
9394,62.0,0,30,1.0,0.0
9395,62.0,0,30,10.0,0.0
9396,62.0,0,30,4.0,0.0
9397,78.0,0,30,2.0,0.0
9398,69.0,0,30,12.0,0.0
9399,62.0,0,30,13.0,0.0
9400,69.0,0,30,0.0,0.0
9401,77.0,0,30,0.0,0.0
9402,69.0,30,30,10.0,0.0
9403,47.0,0,60,15.0,0.0
9404,47.0,0,60,1.0,0.0
9405,67.0,0,120,0.0,0.0
9406,62.0,0,120,13.0,0.0
9407,47.0,0,60,10.0,0.0
9408,67.0,30,120,12.0,0.0
9409,67.0,0,120,3.0,0.0
9410,79.0,30,30,2.0,0.0
9411,79.0,0,30,11.0,0.0
9412,62.0,0,120,1.0,0.0
9413,47.0,0,60,14.0,0.0
9414,67.0,0,120,10.0,0.0
9415,62.0,0,120,10.0,0.0
9416,35.0,0,60,6.0,0.0
9417,79.0,0,60,0.0,0.0
9418,79.0,0,120,15.0,0.0
9419,67.0,0,120,15.0,0.0
9420,62.0,0,120,4.0,0.0
9421,62.0,0,120,15.0,0.0
9422,81.0,0,30,2.0,0.0
9423,81.0,30,30,11.0,0.0
9424,35.0,0,60,6.0,0.0
9425,74.0,0,60,0.0,0.0
9426,47.0,0,60,14.0,0.0
9427,79.0,30,30,2.0,0.0
9428,79.0,0,30,11.0,0.0
9429,47.0,0,60,10.0,0.0
9430,47.0,0,60,1.0,0.0
9431,47.0,0,60,15.0,0.0
9432,78.0,0,30,2.0,0.0
9433,78.0,0,30,11.0,0.0
9434,80.0,0,120,15.0,0.0
9435,52.0,0,60,14.0,0.0
9436,64.0,30,90,13.0,0.0
9437,71.0,0,90,3.0,0.0
9438,71.0,0,90,10.0,0.0
9439,71.0,0,90,12.0,0.0
9440,52.0,0,60,15.0,0.0
9441,52.0,0,60,10.0,0.0
9442,64.0,0,90,4.0,0.0
9443,64.0,0,90,10.0,0.0
9444,80.0,30,30,2.0,0.0
9445,80.0,0,30,11.0,0.0
9446,52.0,0,60,1.0,0.0
9447,64.0,0,90,1.0,0.0
9448,71.0,0,90,0.0,0.0
9449,40.0,0,60,6.0,0.0
9450,81.0,30,30,11.0,0.0
9451,81.0,0,30,2.0,0.0
9452,78.0,0,30,11.0,0.0
9453,50.0,0,60,14.0,0.0
9454,50.0,0,60,10.0,0.0
9455,50.0,60,60,1.0,0.0
9456,38.0,0,60,6.0,0.0
9457,50.0,0,60,15.0,0.0
9458,78.0,0,30,2.0,0.0
9459,71.0,0,30,0.0,0.0
9460,64.0,0,30,13.0,0.0
9461,64.0,0,30,4.0,0.0
9462,80.0,0,30,11.0,0.0
9463,71.0,0,30,10.0,0.0
9464,64.0,0,30,1.0,0.0
9465,71.0,0,30,12.0,0.0
9466,64.0,0,30,10.0,0.0
9467,71.0,0,30,3.0,0.0
9468,80.0,0,30,2.0,0.0
9469,64.0,0,120,10.0,0.0
9470,69.0,0,60,15.0,0.0
9471,69.0,0,60,3.0,0.0
9472,76.0,0,120,0.0,0.0
9473,69.0,0,60,0.0,0.0
9474,64.0,0,120,4.0,0.0
9475,49.0,60,60,10.0,0.0
9476,57.0,0,120,7.0,0.0
9477,69.0,0,60,12.0,0.0
9478,49.0,0,60,14.0,0.0
9479,69.0,0,60,10.0,0.0
9480,49.0,0,60,1.0,0.0
9481,64.0,0,120,1.0,0.0
9482,64.0,0,120,13.0,0.0
9483,64.0,0,60,15.0,0.0
9484,45.0,0,120,8.0,0.0
9485,49.0,0,60,15.0,0.0
9486,37.0,0,60,6.0,0.0
9487,81.0,0,60,2.0,0.0
9488,69.0,0,120,7.0,0.0
9489,81.0,0,60,11.0,0.0
9490,67.0,0,60,12.0,0.0
9491,57.0,0,60,15.0,0.0
9492,67.0,0,60,3.0,0.0
9493,57.0,0,60,14.0,0.0
9494,73.0,0,60,15.0,0.0
9495,67.0,0,60,10.0,0.0
9496,73.0,0,60,11.0,0.0
9497,64.0,0,60,15.0,0.0
9498,67.0,0,60,15.0,0.0
9499,73.0,0,60,2.0,0.0
9500,67.0,60,60,0.0,0.0
9501,57.0,0,60,1.0,0.0
9502,45.0,0,60,6.0,0.0
9503,57.0,0,60,10.0,0.0
9504,65.0,0,60,3.0,0.0
9505,62.0,0,60,4.0,0.0
9506,50.0,0,60,8.0,0.0
9507,65.0,0,60,15.0,0.0
9508,58.0,0,60,14.0,0.0
9509,62.0,0,60,1.0,0.0
9510,58.0,0,60,1.0,0.0
9511,65.0,0,60,12.0,0.0
9512,62.0,0,60,13.0,0.0
9513,62.0,0,60,7.0,0.0
9514,65.0,0,60,0.0,0.0
9515,46.0,0,60,6.0,0.0
9516,58.0,0,60,10.0,0.0
9517,58.0,0,60,15.0,0.0
9518,74.0,0,60,15.0,0.0
9519,62.0,0,60,10.0,0.0
9520,65.0,0,60,10.0,0.0
9521,74.0,60,60,11.0,0.0
9522,74.0,0,60,0.0,0.0
9523,74.0,0,60,2.0,0.0
9524,65.0,0,60,1.0,0.0
9525,55.0,0,60,1.0,0.0
9526,65.0,0,60,10.0,0.0
9527,55.0,0,60,15.0,0.0
9528,62.0,0,60,7.0,0.0
9529,55.0,0,60,14.0,0.0
9530,70.0,0,60,0.0,0.0
9531,70.0,0,60,15.0,0.0
9532,74.0,0,60,15.0,0.0
9533,65.0,0,60,13.0,0.0
9534,65.0,0,60,15.0,0.0
9535,55.0,0,60,10.0,0.0
9536,65.0,0,60,4.0,0.0
9537,70.0,60,60,10.0,0.0
9538,74.0,0,60,2.0,0.0
9539,74.0,0,60,11.0,0.0
9540,43.0,0,60,6.0,0.0
9541,70.0,0,60,12.0,0.0
9542,70.0,0,60,3.0,0.0
9543,50.0,0,60,8.0,0.0
9544,74.0,0,60,0.0,0.0
9545,64.0,60,180,13.0,0.0
9546,69.0,0,180,3.0,0.0
9547,74.0,0,120,11.0,0.0
9548,45.0,30,60,8.0,0.0
9549,74.0,0,120,2.0,0.0
9550,64.0,0,180,4.0,0.0
9551,57.0,0,180,10.0,0.0
9552,57.0,0,60,7.0,0.0
9553,64.0,0,180,10.0,0.0
9554,57.0,0,180,14.0,0.0
9555,69.0,0,180,10.0,0.0
9556,57.0,0,240,1.0,0.0
9557,64.0,0,240,1.0,0.0
9558,57.0,0,120,15.0,0.0
9559,74.0,60,120,15.0,0.0
9560,64.0,0,120,15.0,0.0
9561,69.0,0,120,15.0,0.0
9562,69.0,0,180,0.0,0.0
9563,74.0,0,120,0.0,0.0
9564,45.0,0,120,6.0,0.0
9565,69.0,0,180,12.0,0.0
9566,69.0,0,60,7.0,0.0
9567,69.0,0,30,7.0,0.0
9568,57.0,30,30,7.0,0.0
9569,45.0,0,30,8.0,0.0
9570,57.0,0,30,7.0,0.0
9571,69.0,0,30,7.0,0.0
9572,45.0,0,30,8.0,0.0
9573,45.0,0,120,15.0,0.0
9574,73.0,0,120,15.0,0.0
9575,64.0,0,120,15.0,0.0
9576,73.0,0,120,0.0,0.0
9577,57.0,0,120,15.0,0.0
9578,33.0,0,120,6.0,0.0
9579,45.0,0,60,8.0,0.0
9580,69.0,0,60,7.0,0.0
9581,57.0,0,60,7.0,0.0
9582,72.0,0,120,11.0,0.0
9583,73.0,240,120,2.0,0.0
9584,69.0,0,60,0.0,0.0
9585,64.0,0,60,10.0,0.0
9586,45.0,0,60,8.0,0.0
9587,57.0,0,60,7.0,0.0
9588,69.0,0,60,7.0,0.0
9589,69.0,0,60,12.0,0.0
9590,69.0,0,60,3.0,0.0
9591,57.0,0,60,14.0,0.0
9592,57.0,0,60,10.0,0.0
9593,64.0,0,60,4.0,0.0
9594,64.0,0,60,13.0,0.0
9595,69.0,0,60,10.0,0.0
9596,65.0,0,240,4.0,0.0
9597,65.0,0,240,1.0,0.0
9598,71.0,0,240,10.0,0.0
9599,56.0,0,240,1.0,0.0
9600,71.0,0,240,0.0,0.0
9601,65.0,0,240,13.0,0.0
9602,65.0,0,240,10.0,0.0
9603,56.0,0,240,14.0,0.0
9604,74.0,0,240,2.0,0.0
9605,56.0,0,240,10.0,0.0
9606,74.0,0,240,11.0,0.0
9607,74.0,0,240,7.0,0.0
9608,44.0,210,240,15.0,0.0
9609,71.0,0,240,15.0,0.0
9610,74.0,0,240,15.0,0.0
9611,65.0,0,240,15.0,0.0
9612,62.0,0,240,7.0,0.0
9613,71.0,0,240,3.0,0.0
9614,32.0,0,240,6.0,0.0
9615,74.0,0,240,0.0,0.0
9616,50.0,0,240,8.0,0.0
9617,71.0,0,240,12.0,0.0
9618,74.0,0,90,0.0,0.0
9619,65.0,0,90,0.0,0.0
9620,65.0,0,90,1.0,0.0
9621,56.0,0,90,1.0,0.0
9622,74.0,0,90,2.0,0.0
9623,44.0,0,120,6.0,0.0
9624,71.0,0,90,10.0,0.0
9625,56.0,0,90,10.0,0.0
9626,74.0,0,90,11.0,0.0
9627,74.0,0,120,15.0,0.0
9628,56.0,0,90,14.0,0.0
9629,71.0,0,120,15.0,0.0
9630,56.0,0,120,15.0,0.0
9631,71.0,30,90,3.0,0.0
9632,65.0,0,90,13.0,0.0
9633,65.0,0,90,10.0,0.0
9634,65.0,0,90,4.0,0.0
9635,71.0,0,90,12.0,0.0
9636,65.0,0,120,15.0,0.0
9637,65.0,0,30,4.0,0.0
9638,71.0,0,30,10.0,0.0
9639,74.0,0,30,0.0,0.0
9640,65.0,0,30,10.0,0.0
9641,74.0,120,30,2.0,0.0
9642,65.0,0,30,0.0,0.0
9643,71.0,0,30,3.0,0.0
9644,56.0,0,30,14.0,0.0
9645,56.0,0,30,1.0,0.0
9646,65.0,0,30,1.0,0.0
9647,74.0,0,30,11.0,0.0
9648,65.0,0,30,13.0,0.0
9649,56.0,0,30,10.0,0.0
9650,71.0,0,30,12.0,0.0
9651,69.0,0,120,10.0,0.0
9652,69.0,0,120,15.0,0.0
9653,64.0,0,120,13.0,0.0
9654,64.0,0,120,15.0,0.0
9655,73.0,0,120,15.0,0.0
9656,57.0,0,120,15.0,0.0
9657,69.0,0,120,12.0,0.0
9658,64.0,0,120,4.0,0.0
9659,57.0,0,120,7.0,0.0
9660,69.0,0,120,3.0,0.0
9661,73.0,0,120,11.0,0.0
9662,73.0,0,120,2.0,0.0
9663,57.0,0,120,10.0,0.0
9664,69.0,0,120,7.0,0.0
9665,57.0,0,120,14.0,0.0
9666,45.0,0,120,8.0,0.0
9667,57.0,60,120,1.0,0.0
9668,64.0,0,120,10.0,0.0
9669,73.0,0,120,0.0,0.0
9670,64.0,0,120,1.0,0.0
9671,45.0,0,120,6.0,0.0
9672,64.0,0,120,0.0,0.0
9673,53.0,0,60,10.0,0.0
9674,74.0,0,240,11.0,0.0
9675,41.0,60,60,6.0,0.0
9676,62.0,0,60,7.0,0.0
9677,69.0,0,60,7.0,0.0
9678,65.0,0,120,13.0,0.0
9679,53.0,0,60,14.0,0.0
9680,53.0,0,60,1.0,0.0
9681,65.0,0,240,1.0,0.0
9682,74.0,0,240,0.0,0.0
9683,69.0,0,120,10.0,0.0
9684,65.0,0,120,10.0,0.0
9685,50.0,0,60,8.0,0.0
9686,69.0,0,120,12.0,0.0
9687,65.0,0,240,0.0,0.0
9688,69.0,60,120,3.0,0.0
9689,74.0,0,120,15.0,0.0
9690,69.0,0,120,15.0,0.0
9691,65.0,0,240,4.0,0.0
9692,74.0,0,240,2.0,0.0
9693,53.0,0,60,15.0,0.0
9694,50.0,0,60,8.0,0.0
9695,69.0,0,60,7.0,0.0
9696,50.0,0,60,15.0,0.0
9697,38.0,0,60,6.0,0.0
9698,50.0,0,60,1.0,0.0
9699,62.0,0,60,7.0,0.0
9700,50.0,0,60,14.0,0.0
9701,50.0,0,60,10.0,0.0
9702,33.0,0,120,6.0,0.0
9703,57.0,0,120,1.0,0.0
9704,69.0,0,180,12.0,0.0
9705,45.0,0,120,15.0,0.0
9706,57.0,0,180,10.0,0.0
9707,69.0,30,180,3.0,0.0
9708,65.0,0,120,10.0,0.0
9709,74.0,30,120,15.0,0.0
9710,65.0,0,120,15.0,0.0
9711,69.0,0,180,10.0,0.0
9712,69.0,0,120,7.0,0.0
9713,57.0,0,120,7.0,0.0
9714,45.0,30,60,8.0,0.0
9715,65.0,0,120,13.0,0.0
9716,57.0,0,180,14.0,0.0
9717,69.0,0,120,15.0,0.0
9718,45.0,30,30,8.0,0.0
9719,45.0,0,30,8.0,0.0
9720,45.0,0,120,1.0,0.0
9721,45.0,30,30,8.0,0.0
9722,64.0,0,120,10.0,0.0
9723,64.0,0,120,0.0,0.0
9724,73.0,0,120,0.0,0.0
9725,64.0,0,120,1.0,0.0
9726,73.0,0,120,2.0,0.0
9727,64.0,0,120,4.0,0.0
9728,69.0,0,120,15.0,0.0
9729,69.0,0,60,7.0,0.0
9730,64.0,0,120,15.0,0.0
9731,73.0,0,120,15.0,0.0
9732,57.0,0,60,7.0,0.0
9733,45.0,0,120,15.0,0.0
9734,73.0,0,120,11.0,0.0
9735,33.0,0,120,6.0,0.0
9736,64.0,0,120,13.0,0.0
9737,45.0,0,30,8.0,0.0
9738,69.0,0,60,12.0,0.0
9739,57.0,0,60,14.0,0.0
9740,69.0,0,60,7.0,0.0
9741,45.0,30,30,8.0,0.0
9742,69.0,0,60,3.0,0.0
9743,57.0,480,60,10.0,0.0
9744,69.0,0,60,10.0,0.0
9745,57.0,0,60,7.0,0.0
9746,45.0,0,30,8.0,0.0
9747,62.0,0,480,15.0,0.0
9748,65.0,0,480,15.0,0.0
9749,50.0,0,480,15.0,0.0
9750,69.0,0,480,15.0,0.0
9751,74.0,0,480,15.0,0.0
9752,62.0,0,480,0.0,0.0
9753,74.0,0,480,0.0,0.0
9754,62.0,0,480,4.0,0.0
9755,74.0,0,480,11.0,0.0
9756,50.0,481,480,10.0,0.0
9757,62.0,0,480,7.0,0.0
9758,69.0,0,480,3.0,0.0
9759,69.0,0,480,7.0,0.0
9760,50.0,0,480,14.0,0.0
9761,62.0,0,480,1.0,0.0
9762,50.0,0,480,1.0,0.0
9763,50.0,0,480,8.0,0.0
9764,74.0,0,480,2.0,0.0
9765,62.0,0,480,13.0,0.0
9766,38.0,0,480,6.0,0.0
9767,69.0,0,480,12.0,0.0
9768,69.0,0,480,10.0,0.0
9769,62.0,0,480,10.0,0.0
