,note,step,duration,channel,velocity
0,58.0,0,120,3.0,0.0
1,79.0,0,60,4.0,0.0
2,67.0,0,60,6.0,0.0
3,55.0,0,60,15.0,0.0
4,70.0,0,60,4.0,0.0
5,79.0,0,60,5.0,0.0
6,70.0,0,60,5.0,0.0
7,62.0,0,60,5.0,0.0
8,62.0,60,60,4.0,0.0
9,55.0,0,60,6.0,0.0
10,67.0,0,60,5.0,0.0
11,43.0,0,60,15.0,0.0
12,67.0,60,60,4.0,0.0
13,67.0,0,120,3.0,0.0
14,55.0,0,120,3.0,0.0
15,58.0,45,120,1.0,0.0
16,62.0,0,120,1.0,0.0
17,70.0,0,120,0.0,0.0
18,67.0,0,120,0.0,0.0
19,79.0,0,15,5.0,0.0
20,67.0,0,15,15.0,0.0
21,67.0,45,15,6.0,0.0
22,79.0,0,15,4.0,0.0
23,77.0,0,40,5.0,0.0
24,65.0,0,40,6.0,0.0
25,77.0,0,40,4.0,0.0
26,65.0,15,40,15.0,0.0
27,75.0,0,15,5.0,0.0
28,63.0,0,15,6.0,0.0
29,75.0,0,15,4.0,0.0
30,63.0,0,15,15.0,0.0
31,74.0,0,40,4.0,0.0
32,62.0,0,40,15.0,0.0
33,74.0,0,40,5.0,0.0
34,62.0,15,40,6.0,0.0
35,60.0,0,15,15.0,0.0
36,60.0,0,15,6.0,0.0
37,72.0,0,15,4.0,0.0
38,72.0,45,15,5.0,0.0
39,58.0,0,40,6.0,0.0
40,70.0,0,40,4.0,0.0
41,58.0,0,40,15.0,0.0
42,70.0,15,40,5.0,0.0
43,69.0,45,15,4.0,0.0
44,57.0,0,15,6.0,0.0
45,57.0,0,15,15.0,0.0
46,69.0,0,15,5.0,0.0
47,67.0,15,40,5.0,0.0
48,55.0,0,40,15.0,0.0
49,55.0,0,40,6.0,0.0
50,67.0,0,40,4.0,0.0
51,53.0,45,15,6.0,0.0
52,53.0,0,15,15.0,0.0
53,65.0,0,15,5.0,0.0
54,65.0,0,15,4.0,0.0
55,51.0,0,40,6.0,0.0
56,63.0,0,40,4.0,0.0
57,51.0,15,40,15.0,0.0
58,63.0,0,40,5.0,0.0
59,62.0,0,15,5.0,0.0
60,50.0,0,15,15.0,0.0
61,50.0,60,15,6.0,0.0
62,62.0,0,15,4.0,0.0
63,60.0,0,60,5.0,0.0
64,48.0,0,60,15.0,0.0
65,48.0,0,60,6.0,0.0
66,60.0,60,60,4.0,0.0
67,60.0,60,60,6.0,0.0
68,75.0,0,60,4.0,0.0
69,84.0,0,60,4.0,0.0
70,84.0,0,60,5.0,0.0
71,75.0,0,60,5.0,0.0
72,48.0,0,60,3.0,0.0
73,63.0,0,60,1.0,0.0
74,48.0,0,60,1.0,0.0
75,69.0,0,60,0.0,0.0
76,72.0,0,60,0.0,0.0
77,60.0,0,60,15.0,0.0
78,63.0,60,60,3.0,0.0
79,63.0,0,60,15.0,0.0
80,69.0,0,60,15.0,0.0
81,72.0,0,60,15.0,0.0
82,67.0,0,60,3.0,0.0
83,63.0,0,60,4.0,0.0
84,81.0,0,60,4.0,0.0
85,72.0,0,60,4.0,0.0
86,81.0,0,60,5.0,0.0
87,63.0,0,60,5.0,0.0
88,72.0,0,60,5.0,0.0
89,60.0,60,60,6.0,0.0
90,70.0,0,60,3.0,0.0
91,50.0,0,60,1.0,0.0
92,62.0,0,60,3.0,0.0
93,50.0,0,60,3.0,0.0
94,70.0,0,60,15.0,0.0
95,67.0,0,60,15.0,0.0
96,62.0,60,60,15.0,0.0
97,70.0,0,60,0.0,0.0
98,67.0,0,60,0.0,0.0
99,62.0,0,60,1.0,0.0
100,74.0,0,60,15.0,0.0
101,79.0,0,60,4.0,0.0
102,79.0,0,60,5.0,0.0
103,62.0,0,60,5.0,0.0
104,62.0,0,60,6.0,0.0
105,62.0,60,60,4.0,0.0
106,70.0,0,60,4.0,0.0
107,70.0,0,60,5.0,0.0
108,60.0,0,60,1.0,0.0
109,50.0,60,60,1.0,0.0
110,50.0,0,60,15.0,0.0
111,62.0,0,60,3.0,0.0
112,78.0,0,60,15.0,0.0
113,62.0,0,60,15.0,0.0
114,69.0,0,60,0.0,0.0
115,66.0,0,60,0.0,0.0
116,50.0,0,60,3.0,0.0
117,69.0,0,60,3.0,0.0
118,69.0,0,60,15.0,0.0
119,50.0,0,60,6.0,0.0
120,69.0,0,60,4.0,0.0
121,62.0,0,60,4.0,0.0
122,78.0,0,60,4.0,0.0
123,78.0,0,60,5.0,0.0
124,69.0,0,60,5.0,0.0
125,62.0,60,60,5.0,0.0
126,62.0,0,60,15.0,0.0
127,70.0,0,60,15.0,0.0
128,70.0,0,60,4.0,0.0
129,79.0,0,60,4.0,0.0
130,62.0,0,60,4.0,0.0
131,67.0,0,60,6.0,0.0
132,79.0,0,60,5.0,0.0
133,55.0,0,60,7.0,0.0
134,62.0,0,60,5.0,0.0
135,70.0,0,60,5.0,0.0
136,55.0,0,60,15.0,0.0
137,43.0,60,60,8.0,0.0
138,31.0,0,60,8.0,0.0
139,67.0,0,60,5.0,0.0
140,67.0,60,60,4.0,0.0
141,55.0,0,60,6.0,0.0
142,43.0,0,60,7.0,0.0
143,43.0,0,60,15.0,0.0
144,58.0,0,120,3.0,0.0
145,70.0,0,120,11.0,0.0
146,62.0,0,120,1.0,0.0
147,58.0,0,120,1.0,0.0
148,55.0,0,120,13.0,0.0
149,55.0,0,120,3.0,0.0
150,67.0,0,120,3.0,0.0
151,70.0,0,120,0.0,0.0
152,67.0,45,120,0.0,0.0
153,79.0,0,120,10.0,0.0
154,62.0,0,120,12.0,0.0
155,79.0,0,15,4.0,0.0
156,55.0,0,15,8.0,0.0
157,79.0,0,15,5.0,0.0
158,67.0,0,15,15.0,0.0
159,67.0,0,15,6.0,0.0
160,67.0,45,15,7.0,0.0
161,77.0,0,40,4.0,0.0
162,77.0,0,40,5.0,0.0
163,65.0,0,40,6.0,0.0
164,65.0,15,40,15.0,0.0
165,53.0,0,40,8.0,0.0
166,65.0,0,40,7.0,0.0
167,63.0,0,15,7.0,0.0
168,51.0,0,15,8.0,0.0
169,75.0,0,15,4.0,0.0
170,75.0,0,15,5.0,0.0
171,63.0,0,15,6.0,0.0
172,63.0,0,15,15.0,0.0
173,74.0,15,40,4.0,0.0
174,62.0,0,40,15.0,0.0
175,62.0,0,40,7.0,0.0
176,62.0,0,40,6.0,0.0
177,50.0,0,40,8.0,0.0
178,74.0,0,40,5.0,0.0
179,60.0,45,15,7.0,0.0
180,72.0,0,15,5.0,0.0
181,72.0,0,15,4.0,0.0
182,48.0,0,15,8.0,0.0
183,60.0,0,15,15.0,0.0
184,60.0,0,15,6.0,0.0
185,58.0,0,40,15.0,0.0
186,46.0,0,40,8.0,0.0
187,70.0,0,40,4.0,0.0
188,58.0,15,40,6.0,0.0
189,70.0,0,40,5.0,0.0
190,58.0,0,40,7.0,0.0
191,45.0,45,15,8.0,0.0
192,57.0,0,15,15.0,0.0
193,69.0,0,15,5.0,0.0
194,69.0,0,15,4.0,0.0
195,57.0,0,15,7.0,0.0
196,57.0,0,15,6.0,0.0
197,55.0,15,40,6.0,0.0
198,55.0,0,40,15.0,0.0
199,67.0,0,40,5.0,0.0
200,43.0,0,40,8.0,0.0
201,67.0,0,40,4.0,0.0
202,55.0,0,40,7.0,0.0
203,58.0,0,15,7.0,0.0
204,70.0,0,15,4.0,0.0
205,58.0,0,15,15.0,0.0
206,58.0,0,15,6.0,0.0
207,70.0,45,15,5.0,0.0
208,46.0,0,15,8.0,0.0
209,53.0,0,40,7.0,0.0
210,65.0,0,40,5.0,0.0
211,41.0,0,40,8.0,0.0
212,53.0,0,40,6.0,0.0
213,53.0,0,40,15.0,0.0
214,65.0,15,40,4.0,0.0
215,70.0,0,15,5.0,0.0
216,58.0,0,15,6.0,0.0
217,46.0,0,15,8.0,0.0
218,58.0,0,15,7.0,0.0
219,70.0,0,15,4.0,0.0
220,58.0,60,15,15.0,0.0
221,51.0,0,60,7.0,0.0
222,63.0,0,60,4.0,0.0
223,51.0,60,60,15.0,0.0
224,39.0,0,60,8.0,0.0
225,51.0,0,60,6.0,0.0
226,63.0,0,60,5.0,0.0
227,75.0,0,60,5.0,0.0
228,75.0,0,60,4.0,0.0
229,63.0,60,60,7.0,0.0
230,63.0,0,60,15.0,0.0
231,51.0,0,60,8.0,0.0
232,63.0,0,60,6.0,0.0
233,58.0,45,120,3.0,0.0
234,70.0,0,120,11.0,0.0
235,79.0,0,120,10.0,0.0
236,63.0,0,120,13.0,0.0
237,67.0,0,120,3.0,0.0
238,55.0,0,120,1.0,0.0
239,67.0,0,120,12.0,0.0
240,51.0,0,120,3.0,0.0
241,63.0,0,120,1.0,0.0
242,67.0,0,120,0.0,0.0
243,70.0,0,120,0.0,0.0
244,63.0,0,15,15.0,0.0
245,75.0,0,15,4.0,0.0
246,75.0,0,15,5.0,0.0
247,63.0,0,15,7.0,0.0
248,51.0,0,15,8.0,0.0
249,63.0,45,15,6.0,0.0
250,62.0,0,40,7.0,0.0
251,50.0,15,40,8.0,0.0
252,74.0,0,40,4.0,0.0
253,62.0,0,40,6.0,0.0
254,62.0,0,40,15.0,0.0
255,74.0,0,40,5.0,0.0
256,48.0,0,15,8.0,0.0
257,72.0,0,15,4.0,0.0
258,60.0,0,15,6.0,0.0
259,60.0,0,15,15.0,0.0
260,60.0,0,15,7.0,0.0
261,72.0,0,15,5.0,0.0
262,58.0,0,40,15.0,0.0
263,70.0,0,40,5.0,0.0
264,58.0,15,40,7.0,0.0
265,46.0,0,40,8.0,0.0
266,70.0,0,40,4.0,0.0
267,58.0,0,40,6.0,0.0
268,56.0,0,15,6.0,0.0
269,68.0,0,15,5.0,0.0
270,56.0,0,15,7.0,0.0
271,68.0,0,15,4.0,0.0
272,44.0,0,15,8.0,0.0
273,56.0,45,15,15.0,0.0
274,43.0,0,40,8.0,0.0
275,67.0,0,40,4.0,0.0
276,55.0,0,40,6.0,0.0
277,55.0,0,40,15.0,0.0
278,67.0,0,40,5.0,0.0
279,55.0,15,40,7.0,0.0
280,65.0,0,15,5.0,0.0
281,53.0,0,15,15.0,0.0
282,41.0,0,15,8.0,0.0
283,53.0,45,15,7.0,0.0
284,53.0,0,15,6.0,0.0
285,65.0,0,15,4.0,0.0
286,51.0,0,40,7.0,0.0
287,51.0,0,40,15.0,0.0
288,39.0,0,40,8.0,0.0
289,63.0,0,40,4.0,0.0
290,51.0,15,40,6.0,0.0
291,63.0,0,40,5.0,0.0
292,55.0,0,15,15.0,0.0
293,67.0,0,15,5.0,0.0
294,67.0,0,15,4.0,0.0
295,55.0,0,15,6.0,0.0
296,43.0,45,15,8.0,0.0
297,55.0,0,15,7.0,0.0
298,50.0,0,40,15.0,0.0
299,62.0,15,40,5.0,0.0
300,62.0,0,40,4.0,0.0
301,50.0,0,40,6.0,0.0
302,50.0,0,40,7.0,0.0
303,38.0,0,40,8.0,0.0
304,55.0,0,15,15.0,0.0
305,55.0,0,15,7.0,0.0
306,67.0,0,15,5.0,0.0
307,55.0,0,15,6.0,0.0
308,43.0,0,15,8.0,0.0
309,67.0,60,15,4.0,0.0
310,48.0,0,60,15.0,0.0
311,48.0,0,60,6.0,0.0
312,60.0,0,60,5.0,0.0
313,36.0,0,60,8.0,0.0
314,48.0,0,60,7.0,0.0
315,60.0,60,60,4.0,0.0
316,60.0,0,60,6.0,0.0
317,72.0,0,60,4.0,0.0
318,48.0,0,60,8.0,0.0
319,60.0,60,60,7.0,0.0
320,72.0,0,60,5.0,0.0
321,60.0,0,60,15.0,0.0
322,75.0,0,120,10.0,0.0
323,60.0,0,120,1.0,0.0
324,63.0,0,120,3.0,0.0
325,69.0,0,120,11.0,0.0
326,63.0,0,120,1.0,0.0
327,67.0,0,120,3.0,0.0
328,67.0,0,120,0.0,0.0
329,67.0,0,120,12.0,0.0
330,48.0,0,120,3.0,0.0
331,60.0,0,120,13.0,0.0
332,75.0,0,120,0.0,0.0
333,48.0,45,15,6.0,0.0
334,48.0,0,15,7.0,0.0
335,36.0,0,15,8.0,0.0
336,48.0,0,15,15.0,0.0
337,75.0,0,15,5.0,0.0
338,75.0,0,15,4.0,0.0
339,60.0,0,40,6.0,0.0
340,48.0,0,40,8.0,0.0
341,75.0,0,40,5.0,0.0
342,87.0,0,40,4.0,0.0
343,60.0,15,40,15.0,0.0
344,60.0,0,40,7.0,0.0
345,86.0,45,15,4.0,0.0
346,62.0,0,15,6.0,0.0
347,62.0,0,15,15.0,0.0
348,62.0,0,15,7.0,0.0
349,50.0,0,15,8.0,0.0
350,74.0,0,15,5.0,0.0
351,84.0,0,40,4.0,0.0
352,63.0,0,40,6.0,0.0
353,51.0,0,40,8.0,0.0
354,63.0,0,40,15.0,0.0
355,63.0,0,40,7.0,0.0
356,72.0,15,40,5.0,0.0
357,72.0,0,15,4.0,0.0
358,39.0,0,15,8.0,0.0
359,51.0,0,15,7.0,0.0
360,51.0,0,15,6.0,0.0
361,51.0,0,15,15.0,0.0
362,60.0,45,15,5.0,0.0
363,72.0,0,40,5.0,0.0
364,51.0,0,40,8.0,0.0
365,84.0,0,40,4.0,0.0
366,63.0,0,40,15.0,0.0
367,63.0,0,40,7.0,0.0
368,63.0,15,40,6.0,0.0
369,82.0,0,15,4.0,0.0
370,62.0,0,15,7.0,0.0
371,62.0,0,15,6.0,0.0
372,62.0,45,15,15.0,0.0
373,70.0,0,15,5.0,0.0
374,50.0,0,15,8.0,0.0
375,81.0,0,40,4.0,0.0
376,69.0,0,40,5.0,0.0
377,48.0,0,40,8.0,0.0
378,60.0,15,40,7.0,0.0
379,60.0,0,40,15.0,0.0
380,60.0,0,40,6.0,0.0
381,48.0,0,15,15.0,0.0
382,69.0,0,15,4.0,0.0
383,57.0,45,15,5.0,0.0
384,48.0,0,15,6.0,0.0
385,36.0,0,15,8.0,0.0
386,48.0,0,15,7.0,0.0
387,60.0,0,40,6.0,0.0
388,60.0,0,40,7.0,0.0
389,48.0,15,40,8.0,0.0
390,69.0,0,40,5.0,0.0
391,60.0,0,40,15.0,0.0
392,81.0,0,40,4.0,0.0
393,63.0,120,15,6.0,0.0
394,51.0,0,15,8.0,0.0
395,79.0,0,15,4.0,0.0
396,63.0,0,15,15.0,0.0
397,67.0,0,15,5.0,0.0
398,63.0,0,15,7.0,0.0
399,78.0,0,120,4.0,0.0
400,50.0,0,120,8.0,0.0
401,62.0,0,120,15.0,0.0
402,62.0,0,120,7.0,0.0
403,62.0,0,120,6.0,0.0
404,66.0,90,120,5.0,0.0
405,69.0,0,90,0.0,0.0
406,69.0,0,90,3.0,0.0
407,62.0,0,90,13.0,0.0
408,50.0,0,90,14.0,0.0
409,74.0,0,90,2.0,0.0
410,69.0,0,90,11.0,0.0
411,74.0,30,90,0.0,0.0
412,62.0,0,90,3.0,0.0
413,66.0,0,90,3.0,0.0
414,62.0,0,90,2.0,0.0
415,74.0,0,90,10.0,0.0
416,66.0,0,90,12.0,0.0
417,66.0,0,90,1.0,0.0
418,62.0,0,90,1.0,0.0
419,69.0,0,30,0.0,0.0
420,50.0,0,30,14.0,0.0
421,74.0,0,30,0.0,0.0
422,62.0,0,30,13.0,0.0
423,62.0,0,30,2.0,0.0
424,69.0,90,30,3.0,0.0
425,62.0,0,30,3.0,0.0
426,66.0,0,30,12.0,0.0
427,66.0,0,30,1.0,0.0
428,62.0,0,30,1.0,0.0
429,74.0,0,30,10.0,0.0
430,66.0,0,30,3.0,0.0
431,74.0,0,30,2.0,0.0
432,69.0,0,30,11.0,0.0
433,70.0,30,90,11.0,0.0
434,58.0,0,90,1.0,0.0
435,67.0,0,90,3.0,0.0
436,67.0,0,90,1.0,0.0
437,74.0,0,90,10.0,0.0
438,70.0,0,90,3.0,0.0
439,67.0,0,90,12.0,0.0
440,74.0,0,90,0.0,0.0
441,58.0,0,90,3.0,0.0
442,62.0,0,90,2.0,0.0
443,70.0,0,90,0.0,0.0
444,58.0,0,90,13.0,0.0
445,50.0,0,90,14.0,0.0
446,74.0,0,90,2.0,0.0
447,70.0,0,30,11.0,0.0
448,67.0,0,30,1.0,0.0
449,70.0,0,30,3.0,0.0
450,62.0,0,30,2.0,0.0
451,74.0,0,30,2.0,0.0
452,58.0,0,30,1.0,0.0
453,50.0,0,30,14.0,0.0
454,67.0,0,30,3.0,0.0
455,67.0,0,30,12.0,0.0
456,58.0,90,30,3.0,0.0
457,58.0,0,30,13.0,0.0
458,70.0,0,30,0.0,0.0
459,74.0,0,30,0.0,0.0
460,74.0,0,30,10.0,0.0
461,70.0,0,90,0.0,0.0
462,62.0,0,90,2.0,0.0
463,74.0,0,90,2.0,0.0
464,55.0,0,90,13.0,0.0
465,50.0,0,90,14.0,0.0
466,62.0,0,90,3.0,0.0
467,74.0,0,90,0.0,0.0
468,62.0,0,90,12.0,0.0
469,55.0,0,90,3.0,0.0
470,70.0,0,90,3.0,0.0
471,70.0,30,90,11.0,0.0
472,55.0,0,90,1.0,0.0
473,79.0,0,90,10.0,0.0
474,67.0,0,90,1.0,0.0
475,62.0,60,30,2.0,0.0
476,74.0,0,30,2.0,0.0
477,70.0,0,30,3.0,0.0
478,74.0,0,30,0.0,0.0
479,70.0,0,30,0.0,0.0
480,62.0,0,30,12.0,0.0
481,70.0,0,30,11.0,0.0
482,55.0,0,30,3.0,0.0
483,50.0,0,30,14.0,0.0
484,79.0,0,30,10.0,0.0
485,62.0,0,30,3.0,0.0
486,55.0,0,30,13.0,0.0
487,67.0,0,30,1.0,0.0
488,55.0,0,30,1.0,0.0
489,38.0,15,120,8.0,0.0
490,50.0,0,120,7.0,0.0
491,50.0,0,120,15.0,0.0
492,50.0,0,120,3.0,0.0
493,74.0,0,120,0.0,0.0
494,69.0,0,120,0.0,0.0
495,66.0,0,120,6.0,0.0
496,62.0,0,120,2.0,0.0
497,78.0,0,60,10.0,0.0
498,62.0,45,120,3.0,0.0
499,69.0,0,120,3.0,0.0
500,74.0,0,120,2.0,0.0
501,69.0,45,60,11.0,0.0
502,62.0,0,60,13.0,0.0
503,50.0,0,120,1.0,0.0
504,66.0,0,120,1.0,0.0
505,62.0,0,60,12.0,0.0
506,57.0,0,120,6.0,0.0
507,50.0,0,120,14.0,0.0
508,70.0,0,15,5.0,0.0
509,74.0,0,15,4.0,0.0
510,62.0,0,60,12.0,0.0
511,69.0,0,60,11.0,0.0
512,50.0,0,60,13.0,0.0
513,81.0,0,40,4.0,0.0
514,78.0,0,40,5.0,0.0
515,74.0,0,60,10.0,0.0
516,75.0,0,15,5.0,0.0
517,79.0,0,15,4.0,0.0
518,78.0,15,40,4.0,0.0
519,62.0,15,90,3.0,0.0
520,62.0,0,90,11.0,0.0
521,74.0,0,40,5.0,0.0
522,62.0,0,90,0.0,0.0
523,72.0,0,15,5.0,0.0
524,75.0,0,15,4.0,0.0
525,50.0,0,15,7.0,0.0
526,38.0,0,15,8.0,0.0
527,50.0,0,15,15.0,0.0
528,54.0,30,15,6.0,0.0
529,55.0,0,40,6.0,0.0
530,74.0,0,40,4.0,0.0
531,70.0,0,40,5.0,0.0
532,52.0,0,40,7.0,0.0
533,40.0,15,40,8.0,0.0
534,52.0,0,40,15.0,0.0
535,62.0,0,30,3.0,0.0
536,62.0,0,30,0.0,0.0
537,62.0,45,30,11.0,0.0
538,54.0,0,15,15.0,0.0
539,69.0,0,15,5.0,0.0
540,72.0,0,15,4.0,0.0
541,54.0,0,15,7.0,0.0
542,42.0,0,15,8.0,0.0
543,57.0,0,15,6.0,0.0
544,70.0,0,330,11.0,0.0
545,70.0,0,60,4.0,0.0
546,55.0,0,40,7.0,0.0
547,70.0,15,330,0.0,0.0
548,62.0,0,120,12.0,0.0
549,62.0,0,180,1.0,0.0
550,67.0,45,60,5.0,0.0
551,70.0,0,330,3.0,0.0
552,55.0,15,40,15.0,0.0
553,43.0,0,40,8.0,0.0
554,62.0,0,120,3.0,0.0
555,58.0,0,40,6.0,0.0
556,45.0,0,15,8.0,0.0
557,60.0,0,15,6.0,0.0
558,57.0,0,15,7.0,0.0
559,57.0,0,15,15.0,0.0
560,46.0,15,40,8.0,0.0
561,58.0,0,40,15.0,0.0
562,82.0,0,60,5.0,0.0
563,86.0,0,60,4.0,0.0
564,58.0,0,40,7.0,0.0
565,62.0,0,40,6.0,0.0
566,57.0,0,15,15.0,0.0
567,57.0,45,15,7.0,0.0
568,60.0,0,15,6.0,0.0
569,45.0,0,15,8.0,0.0
570,43.0,0,40,8.0,0.0
571,55.0,0,40,15.0,0.0
572,67.0,0,90,0.0,0.0
573,58.0,15,40,6.0,0.0
574,55.0,0,40,7.0,0.0
575,67.0,15,90,10.0,0.0
576,53.0,0,15,15.0,0.0
577,67.0,0,15,5.0,0.0
578,41.0,30,15,8.0,0.0
579,57.0,0,15,6.0,0.0
580,53.0,0,15,7.0,0.0
581,70.0,0,15,4.0,0.0
582,69.0,0,40,5.0,0.0
583,51.0,0,40,7.0,0.0
584,67.0,0,60,3.0,0.0
585,51.0,0,40,15.0,0.0
586,55.0,0,40,6.0,0.0
587,67.0,0,60,1.0,0.0
588,67.0,0,60,12.0,0.0
589,39.0,15,40,8.0,0.0
590,72.0,0,40,4.0,0.0
591,67.0,0,30,10.0,0.0
592,67.0,45,30,0.0,0.0
593,50.0,0,15,15.0,0.0
594,50.0,0,15,7.0,0.0
595,38.0,0,15,8.0,0.0
596,53.0,0,15,6.0,0.0
597,74.0,0,15,4.0,0.0
598,70.0,0,15,5.0,0.0
599,72.0,0,40,5.0,0.0
600,67.0,0,60,3.0,0.0
601,55.0,0,120,3.0,0.0
602,67.0,0,60,12.0,0.0
603,55.0,0,180,1.0,0.0
604,67.0,0,60,1.0,0.0
605,75.0,0,330,10.0,0.0
606,75.0,15,40,4.0,0.0
607,36.0,0,60,8.0,0.0
608,75.0,15,330,0.0,0.0
609,48.0,0,60,7.0,0.0
610,48.0,0,60,15.0,0.0
611,51.0,0,60,6.0,0.0
612,55.0,0,120,13.0,0.0
613,77.0,30,15,4.0,0.0
614,74.0,0,15,5.0,0.0
615,67.0,0,60,6.0,0.0
616,75.0,15,40,5.0,0.0
617,63.0,0,60,15.0,0.0
618,63.0,0,60,7.0,0.0
619,79.0,0,40,4.0,0.0
620,60.0,0,60,1.0,0.0
621,51.0,0,60,8.0,0.0
622,60.0,0,60,12.0,0.0
623,60.0,0,60,3.0,0.0
624,67.0,0,30,11.0,0.0
625,67.0,0,30,3.0,0.0
626,67.0,0,30,0.0,0.0
627,77.0,45,15,4.0,0.0
628,74.0,0,15,5.0,0.0
629,72.0,15,90,3.0,0.0
630,72.0,0,90,11.0,0.0
631,72.0,0,90,0.0,0.0
632,75.0,0,40,4.0,0.0
633,72.0,15,40,5.0,0.0
634,74.0,0,15,4.0,0.0
635,48.0,0,15,15.0,0.0
636,51.0,0,15,6.0,0.0
637,36.0,0,15,8.0,0.0
638,48.0,0,15,7.0,0.0
639,70.0,30,15,5.0,0.0
640,72.0,0,40,4.0,0.0
641,53.0,0,40,6.0,0.0
642,69.0,0,40,5.0,0.0
643,50.0,0,40,15.0,0.0
644,60.0,0,60,13.0,0.0
645,38.0,0,40,8.0,0.0
646,50.0,15,40,7.0,0.0
647,60.0,0,60,1.0,0.0
648,60.0,0,60,3.0,0.0
649,70.0,0,30,11.0,0.0
650,70.0,0,30,0.0,0.0
651,70.0,0,30,3.0,0.0
652,39.0,0,15,8.0,0.0
653,51.0,0,15,15.0,0.0
654,51.0,45,15,7.0,0.0
655,70.0,0,15,4.0,0.0
656,67.0,0,15,5.0,0.0
657,55.0,0,15,6.0,0.0
658,69.0,0,330,0.0,0.0
659,57.0,15,40,6.0,0.0
660,60.0,0,60,3.0,0.0
661,65.0,0,60,5.0,0.0
662,69.0,0,60,4.0,0.0
663,60.0,0,60,13.0,0.0
664,69.0,0,330,3.0,0.0
665,53.0,0,40,15.0,0.0
666,53.0,0,40,7.0,0.0
667,69.0,15,330,11.0,0.0
668,41.0,0,40,8.0,0.0
669,60.0,30,60,1.0,0.0
670,58.0,0,15,6.0,0.0
671,43.0,0,15,8.0,0.0
672,55.0,0,15,15.0,0.0
673,55.0,0,15,7.0,0.0
674,53.0,0,60,3.0,0.0
675,60.0,0,40,6.0,0.0
676,84.0,0,60,4.0,0.0
677,81.0,0,60,5.0,0.0
678,57.0,0,40,7.0,0.0
679,45.0,0,40,8.0,0.0
680,57.0,15,40,15.0,0.0
681,53.0,0,60,1.0,0.0
682,53.0,0,60,13.0,0.0
683,72.0,45,30,10.0,0.0
684,72.0,0,30,0.0,0.0
685,43.0,0,15,8.0,0.0
686,55.0,0,15,15.0,0.0
687,58.0,0,15,6.0,0.0
688,55.0,0,15,7.0,0.0
689,60.0,15,90,3.0,0.0
690,57.0,0,40,6.0,0.0
691,53.0,0,40,7.0,0.0
692,41.0,15,40,8.0,0.0
693,53.0,0,40,15.0,0.0
694,77.0,0,90,10.0,0.0
695,60.0,0,90,1.0,0.0
696,60.0,0,90,12.0,0.0
697,77.0,0,90,0.0,0.0
698,65.0,0,15,5.0,0.0
699,69.0,0,15,4.0,0.0
700,55.0,0,15,6.0,0.0
701,39.0,0,15,8.0,0.0
702,51.0,30,15,15.0,0.0
703,51.0,0,15,7.0,0.0
704,67.0,0,40,5.0,0.0
705,38.0,0,40,8.0,0.0
706,53.0,0,40,6.0,0.0
707,50.0,15,40,15.0,0.0
708,50.0,0,40,7.0,0.0
709,70.0,0,40,4.0,0.0
710,65.0,0,30,12.0,0.0
711,65.0,0,30,3.0,0.0
712,75.0,0,30,0.0,0.0
713,75.0,0,30,10.0,0.0
714,65.0,0,30,1.0,0.0
715,72.0,0,15,4.0,0.0
716,48.0,0,15,15.0,0.0
717,36.0,0,15,8.0,0.0
718,51.0,45,15,6.0,0.0
719,48.0,0,15,7.0,0.0
720,69.0,0,15,5.0,0.0
721,74.0,15,330,0.0,0.0
722,74.0,0,40,4.0,0.0
723,65.0,0,60,1.0,0.0
724,34.0,0,60,8.0,0.0
725,70.0,15,40,5.0,0.0
726,65.0,0,60,12.0,0.0
727,46.0,0,60,7.0,0.0
728,46.0,30,60,15.0,0.0
729,74.0,0,330,10.0,0.0
730,65.0,0,60,3.0,0.0
731,50.0,0,60,6.0,0.0
732,75.0,0,15,4.0,0.0
733,72.0,0,15,5.0,0.0
734,58.0,0,60,1.0,0.0
735,58.0,0,60,12.0,0.0
736,62.0,0,60,7.0,0.0
737,77.0,0,40,4.0,0.0
738,58.0,0,60,3.0,0.0
739,62.0,0,60,15.0,0.0
740,65.0,0,60,6.0,0.0
741,74.0,15,40,5.0,0.0
742,50.0,45,60,8.0,0.0
743,65.0,0,30,11.0,0.0
744,65.0,0,30,3.0,0.0
745,65.0,0,30,0.0,0.0
746,75.0,0,15,4.0,0.0
747,72.0,0,15,5.0,0.0
748,74.0,0,40,4.0,0.0
749,53.0,0,90,3.0,0.0
750,70.0,0,90,11.0,0.0
751,53.0,0,90,13.0,0.0
752,53.0,15,90,1.0,0.0
753,70.0,0,90,3.0,0.0
754,70.0,0,90,0.0,0.0
755,70.0,15,40,5.0,0.0
756,46.0,0,15,7.0,0.0
757,50.0,30,15,6.0,0.0
758,34.0,0,15,8.0,0.0
759,72.0,0,15,4.0,0.0
760,69.0,0,15,5.0,0.0
761,46.0,0,15,15.0,0.0
762,51.0,15,40,6.0,0.0
763,36.0,0,40,8.0,0.0
764,48.0,0,40,15.0,0.0
765,67.0,0,40,5.0,0.0
766,48.0,0,40,7.0,0.0
767,70.0,0,40,4.0,0.0
768,58.0,0,30,13.0,0.0
769,58.0,0,30,1.0,0.0
770,69.0,0,30,3.0,0.0
771,58.0,0,30,3.0,0.0
772,69.0,0,30,11.0,0.0
773,69.0,0,30,0.0,0.0
774,53.0,0,15,6.0,0.0
775,69.0,45,15,4.0,0.0
776,38.0,0,15,8.0,0.0
777,50.0,0,15,7.0,0.0
778,50.0,0,15,15.0,0.0
779,65.0,0,15,5.0,0.0
780,58.0,0,60,13.0,0.0
781,67.0,0,330,0.0,0.0
782,63.0,0,60,5.0,0.0
783,39.0,0,40,8.0,0.0
784,58.0,0,60,1.0,0.0
785,67.0,0,330,3.0,0.0
786,67.0,0,60,4.0,0.0
787,55.0,0,40,6.0,0.0
788,51.0,0,40,15.0,0.0
789,51.0,15,40,7.0,0.0
790,58.0,0,60,3.0,0.0
791,67.0,15,330,11.0,0.0
792,57.0,0,15,6.0,0.0
793,41.0,0,15,8.0,0.0
794,53.0,30,15,15.0,0.0
795,53.0,0,15,7.0,0.0
796,55.0,0,40,15.0,0.0
797,51.0,0,60,13.0,0.0
798,55.0,0,40,7.0,0.0
799,82.0,0,60,4.0,0.0
800,51.0,45,60,3.0,0.0
801,79.0,0,60,5.0,0.0
802,51.0,0,60,1.0,0.0
803,43.0,0,40,8.0,0.0
804,58.0,15,40,6.0,0.0
805,70.0,0,30,0.0,0.0
806,70.0,0,30,10.0,0.0
807,53.0,0,15,15.0,0.0
808,57.0,0,15,6.0,0.0
809,53.0,0,15,7.0,0.0
810,41.0,0,15,8.0,0.0
811,58.0,0,90,1.0,0.0
812,75.0,0,90,10.0,0.0
813,75.0,15,90,0.0,0.0
814,58.0,0,90,3.0,0.0
815,51.0,0,40,15.0,0.0
816,58.0,0,90,12.0,0.0
817,39.0,15,40,8.0,0.0
818,55.0,0,40,6.0,0.0
819,51.0,0,40,7.0,0.0
820,63.0,0,15,5.0,0.0
821,67.0,30,15,4.0,0.0
822,53.0,0,15,6.0,0.0
823,38.0,0,15,8.0,0.0
824,50.0,0,15,15.0,0.0
825,50.0,0,15,7.0,0.0
826,69.0,15,40,4.0,0.0
827,48.0,0,40,15.0,0.0
828,65.0,0,40,5.0,0.0
829,36.0,0,40,8.0,0.0
830,51.0,0,40,6.0,0.0
831,48.0,0,40,7.0,0.0
832,63.0,0,30,12.0,0.0
833,74.0,45,30,0.0,0.0
834,74.0,0,30,10.0,0.0
835,63.0,0,30,1.0,0.0
836,63.0,0,30,3.0,0.0
837,70.0,0,15,4.0,0.0
838,46.0,0,15,15.0,0.0
839,50.0,0,15,6.0,0.0
840,34.0,0,15,8.0,0.0
841,67.0,0,15,5.0,0.0
842,46.0,0,15,7.0,0.0
843,45.0,0,60,15.0,0.0
844,63.0,0,60,12.0,0.0
845,69.0,15,40,5.0,0.0
846,72.0,15,330,0.0,0.0
847,72.0,0,40,4.0,0.0
848,48.0,0,60,6.0,0.0
849,57.0,0,120,2.0,0.0
850,69.0,0,120,2.0,0.0
851,45.0,0,120,14.0,0.0
852,72.0,0,330,10.0,0.0
853,45.0,0,60,7.0,0.0
854,33.0,0,60,8.0,0.0
855,63.0,30,60,1.0,0.0
856,63.0,0,60,3.0,0.0
857,70.0,0,15,5.0,0.0
858,74.0,0,15,4.0,0.0
859,48.0,0,60,8.0,0.0
860,75.0,15,40,4.0,0.0
861,63.0,0,60,6.0,0.0
862,57.0,0,60,12.0,0.0
863,60.0,0,60,15.0,0.0
864,57.0,0,60,1.0,0.0
865,57.0,0,60,3.0,0.0
866,72.0,0,40,5.0,0.0
867,60.0,0,60,7.0,0.0
868,70.0,0,30,0.0,0.0
869,70.0,0,30,3.0,0.0
870,70.0,45,30,11.0,0.0
871,77.0,0,15,4.0,0.0
872,74.0,0,15,5.0,0.0
873,57.0,0,90,13.0,0.0
874,75.0,15,40,5.0,0.0
875,69.0,0,90,0.0,0.0
876,57.0,15,90,1.0,0.0
877,79.0,0,40,4.0,0.0
878,69.0,0,90,3.0,0.0
879,57.0,0,90,3.0,0.0
880,69.0,0,90,11.0,0.0
881,72.0,0,15,5.0,0.0
882,33.0,0,15,8.0,0.0
883,45.0,0,15,15.0,0.0
884,72.0,0,15,4.0,0.0
885,45.0,0,15,7.0,0.0
886,57.0,30,15,6.0,0.0
887,46.0,15,40,15.0,0.0
888,58.0,0,40,6.0,0.0
889,46.0,0,40,7.0,0.0
890,34.0,0,40,8.0,0.0
891,69.0,0,40,5.0,0.0
892,74.0,0,40,4.0,0.0
893,67.0,0,30,11.0,0.0
894,67.0,0,30,0.0,0.0
895,57.0,0,30,3.0,0.0
896,67.0,0,30,3.0,0.0
897,57.0,0,30,1.0,0.0
898,57.0,45,30,13.0,0.0
899,75.0,0,15,4.0,0.0
900,48.0,0,15,7.0,0.0
901,67.0,0,15,5.0,0.0
902,48.0,0,15,15.0,0.0
903,36.0,0,15,8.0,0.0
904,60.0,0,15,6.0,0.0
905,62.0,0,40,6.0,0.0
906,50.0,0,40,7.0,0.0
907,66.0,15,40,5.0,0.0
908,50.0,0,180,1.0,0.0
909,50.0,0,40,15.0,0.0
910,57.0,0,90,1.0,0.0
911,50.0,0,180,3.0,0.0
912,66.0,0,180,3.0,0.0
913,50.0,0,120,14.0,0.0
914,69.0,45,120,2.0,0.0
915,62.0,0,120,2.0,0.0
916,66.0,30,60,4.0,0.0
917,50.0,0,180,13.0,0.0
918,66.0,0,180,0.0,0.0
919,66.0,0,180,11.0,0.0
920,38.0,0,40,8.0,0.0
921,57.0,0,90,12.0,0.0
922,57.0,0,90,3.0,0.0
923,67.0,0,15,5.0,0.0
924,52.0,0,15,7.0,0.0
925,64.0,0,15,6.0,0.0
926,40.0,0,15,8.0,0.0
927,52.0,0,15,15.0,0.0
928,54.0,0,40,7.0,0.0
929,54.0,0,40,15.0,0.0
930,66.0,0,40,6.0,0.0
931,42.0,0,40,8.0,0.0
932,69.0,15,40,5.0,0.0
933,81.0,0,60,4.0,0.0
934,57.0,0,30,1.0,0.0
935,57.0,0,30,12.0,0.0
936,75.0,0,30,0.0,0.0
937,57.0,0,30,3.0,0.0
938,75.0,0,30,10.0,0.0
939,67.0,0,15,6.0,0.0
940,70.0,0,15,5.0,0.0
941,43.0,0,15,8.0,0.0
942,55.0,0,15,15.0,0.0
943,55.0,0,15,7.0,0.0
944,62.0,0,180,12.0,0.0
945,45.0,0,40,8.0,0.0
946,69.0,0,40,6.0,0.0
947,57.0,0,40,15.0,0.0
948,74.0,15,90,10.0,0.0
949,62.0,60,180,3.0,0.0
950,72.0,0,40,5.0,0.0
951,62.0,0,180,1.0,0.0
952,74.0,0,90,0.0,0.0
953,57.0,15,40,7.0,0.0
954,50.0,0,15,7.0,0.0
955,62.0,0,15,6.0,0.0
956,50.0,30,15,15.0,0.0
957,38.0,0,15,8.0,0.0
958,65.0,0,15,4.0,0.0
959,69.0,0,15,5.0,0.0
960,52.0,0,40,3.0,0.0
961,52.0,0,40,1.0,0.0
962,67.0,0,40,3.0,0.0
963,64.0,0,40,6.0,0.0
964,39.0,0,40,8.0,0.0
965,67.0,0,40,4.0,0.0
966,51.0,0,40,15.0,0.0
967,74.0,0,40,5.0,0.0
968,51.0,0,40,7.0,0.0
969,67.0,15,40,0.0,0.0
970,67.0,0,40,11.0,0.0
971,52.0,0,40,13.0,0.0
972,72.0,0,30,10.0,0.0
973,72.0,60,30,0.0,0.0
974,72.0,0,15,5.0,0.0
975,54.0,0,15,3.0,0.0
976,54.0,0,15,1.0,0.0
977,53.0,0,15,15.0,0.0
978,53.0,0,15,7.0,0.0
979,69.0,0,15,4.0,0.0
980,69.0,0,15,3.0,0.0
981,41.0,0,15,8.0,0.0
982,69.0,0,15,0.0,0.0
983,69.0,0,15,11.0,0.0
984,66.0,0,15,6.0,0.0
985,54.0,0,15,13.0,0.0
986,55.0,0,120,1.0,0.0
987,70.0,0,120,5.0,0.0
988,67.0,0,120,11.0,0.0
989,70.0,0,60,0.0,0.0
990,70.0,0,60,10.0,0.0
991,62.0,0,120,4.0,0.0
992,67.0,0,120,6.0,0.0
993,55.0,0,120,15.0,0.0
994,43.0,0,120,8.0,0.0
995,55.0,0,120,7.0,0.0
996,55.0,0,120,3.0,0.0
997,67.0,0,120,3.0,0.0
998,55.0,0,120,13.0,0.0
999,58.0,0,60,12.0,0.0
1000,58.0,0,60,3.0,0.0
1001,67.0,0,60,0.0,0.0
1002,58.0,90,60,1.0,0.0
1003,67.0,0,60,10.0,0.0
1004,79.0,30,90,0.0,0.0
1005,62.0,0,90,1.0,0.0
1006,62.0,0,90,12.0,0.0
1007,46.0,0,90,8.0,0.0
1008,58.0,0,90,13.0,0.0
1009,58.0,0,90,7.0,0.0
1010,67.0,0,90,11.0,0.0
1011,58.0,0,90,1.0,0.0
1012,79.0,0,90,10.0,0.0
1013,67.0,0,90,0.0,0.0
1014,67.0,0,90,3.0,0.0
1015,58.0,0,90,15.0,0.0
1016,58.0,0,90,3.0,0.0
1017,62.0,0,90,3.0,0.0
1018,57.0,0,30,13.0,0.0
1019,60.0,90,30,3.0,0.0
1020,57.0,0,30,15.0,0.0
1021,57.0,0,30,7.0,0.0
1022,69.0,0,30,11.0,0.0
1023,45.0,0,30,8.0,0.0
1024,60.0,0,30,12.0,0.0
1025,69.0,0,30,3.0,0.0
1026,60.0,0,30,1.0,0.0
1027,77.0,0,30,10.0,0.0
1028,57.0,0,30,3.0,0.0
1029,57.0,0,30,1.0,0.0
1030,77.0,0,30,0.0,0.0
1031,69.0,0,30,0.0,0.0
1032,55.0,0,90,15.0,0.0
1033,55.0,0,90,7.0,0.0
1034,55.0,0,90,13.0,0.0
1035,58.0,0,90,12.0,0.0
1036,58.0,30,90,1.0,0.0
1037,55.0,0,90,1.0,0.0
1038,43.0,0,90,8.0,0.0
1039,70.0,0,90,0.0,0.0
1040,76.0,0,90,10.0,0.0
1041,70.0,0,90,11.0,0.0
1042,76.0,0,90,0.0,0.0
1043,55.0,0,90,3.0,0.0
1044,58.0,0,90,3.0,0.0
1045,70.0,0,90,3.0,0.0
1046,53.0,0,30,7.0,0.0
1047,62.0,0,30,3.0,0.0
1048,53.0,0,30,13.0,0.0
1049,69.0,0,30,0.0,0.0
1050,41.0,0,30,8.0,0.0
1051,69.0,0,30,11.0,0.0
1052,74.0,0,30,10.0,0.0
1053,54.0,0,30,1.0,0.0
1054,53.0,0,30,3.0,0.0
1055,69.0,0,30,3.0,0.0
1056,53.0,0,30,15.0,0.0
1057,62.0,0,30,12.0,0.0
1058,74.0,0,30,0.0,0.0
1059,62.0,60,30,1.0,0.0
1060,55.0,0,90,3.0,0.0
1061,72.0,0,90,10.0,0.0
1062,72.0,0,90,0.0,0.0
1063,52.0,0,90,15.0,0.0
1064,52.0,0,90,13.0,0.0
1065,55.0,0,90,12.0,0.0
1066,67.0,15,90,11.0,0.0
1067,52.0,0,90,7.0,0.0
1068,55.0,0,90,1.0,0.0
1069,52.0,0,90,3.0,0.0
1070,40.0,0,90,8.0,0.0
1071,67.0,0,90,0.0,0.0
1072,67.0,0,90,3.0,0.0
1073,52.0,0,90,1.0,0.0
1074,72.0,30,15,4.0,0.0
1075,84.0,15,40,4.0,0.0
1076,70.0,0,30,0.0,0.0
1077,36.0,0,30,8.0,0.0
1078,48.0,0,30,7.0,0.0
1079,64.0,0,30,0.0,0.0
1080,60.0,0,30,1.0,0.0
1081,48.0,0,30,1.0,0.0
1082,48.0,0,30,15.0,0.0
1083,60.0,0,30,12.0,0.0
1084,48.0,45,30,13.0,0.0
1085,60.0,0,30,3.0,0.0
1086,48.0,0,30,3.0,0.0
1087,64.0,0,30,11.0,0.0
1088,64.0,0,30,3.0,0.0
1089,70.0,0,30,10.0,0.0
1090,82.0,0,15,4.0,0.0
1091,53.0,0,120,15.0,0.0
1092,53.0,0,60,3.0,0.0
1093,60.0,0,60,1.0,0.0
1094,41.0,0,120,8.0,0.0
1095,65.0,45,60,0.0,0.0
1096,69.0,0,60,0.0,0.0
1097,53.0,0,60,13.0,0.0
1098,53.0,0,60,1.0,0.0
1099,69.0,0,60,10.0,0.0
1100,60.0,0,60,12.0,0.0
1101,65.0,0,60,11.0,0.0
1102,65.0,0,60,3.0,0.0
1103,81.0,15,40,4.0,0.0
1104,60.0,0,60,3.0,0.0
1105,53.0,0,120,7.0,0.0
1106,69.0,0,15,4.0,0.0
1107,60.0,0,15,5.0,0.0
1108,65.0,0,60,10.0,0.0
1109,57.0,0,60,1.0,0.0
1110,53.0,0,60,1.0,0.0
1111,65.0,0,60,11.0,0.0
1112,53.0,45,60,13.0,0.0
1113,57.0,0,60,3.0,0.0
1114,81.0,15,40,4.0,0.0
1115,57.0,0,60,12.0,0.0
1116,60.0,0,60,0.0,0.0
1117,65.0,0,60,3.0,0.0
1118,72.0,0,40,5.0,0.0
1119,65.0,0,60,0.0,0.0
1120,53.0,0,60,3.0,0.0
1121,70.0,0,15,5.0,0.0
1122,79.0,0,15,4.0,0.0
1123,57.0,0,90,3.0,0.0
1124,77.0,15,40,4.0,0.0
1125,57.0,15,90,12.0,0.0
1126,69.0,0,40,5.0,0.0
1127,57.0,0,90,1.0,0.0
1128,61.0,0,15,6.0,0.0
1129,57.0,0,15,5.0,0.0
1130,57.0,0,15,15.0,0.0
1131,57.0,30,15,7.0,0.0
1132,65.0,0,15,4.0,0.0
1133,45.0,0,15,8.0,0.0
1134,59.0,0,40,15.0,0.0
1135,62.0,0,40,6.0,0.0
1136,69.0,15,40,5.0,0.0
1137,59.0,0,40,7.0,0.0
1138,77.0,0,40,4.0,0.0
1139,47.0,0,40,8.0,0.0
1140,57.0,0,30,3.0,0.0
1141,57.0,0,30,1.0,0.0
1142,57.0,0,30,12.0,0.0
1143,61.0,45,15,15.0,0.0
1144,61.0,0,15,7.0,0.0
1145,67.0,0,15,5.0,0.0
1146,76.0,0,15,4.0,0.0
1147,49.0,0,15,8.0,0.0
1148,64.0,0,15,6.0,0.0
1149,65.0,0,60,5.0,0.0
1150,65.0,15,40,6.0,0.0
1151,62.0,0,40,7.0,0.0
1152,74.0,0,60,4.0,0.0
1153,65.0,0,330,3.0,0.0
1154,69.0,45,120,10.0,0.0
1155,69.0,0,180,0.0,0.0
1156,62.0,0,40,15.0,0.0
1157,65.0,15,330,12.0,0.0
1158,65.0,0,330,1.0,0.0
1159,50.0,0,40,8.0,0.0
1160,52.0,0,15,8.0,0.0
1161,67.0,0,15,6.0,0.0
1162,64.0,0,15,15.0,0.0
1163,64.0,45,15,7.0,0.0
1164,65.0,0,60,5.0,0.0
1165,65.0,0,40,7.0,0.0
1166,65.0,0,40,15.0,0.0
1167,53.0,15,40,8.0,0.0
1168,62.0,0,60,4.0,0.0
1169,69.0,0,40,6.0,0.0
1170,64.0,0,15,15.0,0.0
1171,67.0,0,15,6.0,0.0
1172,64.0,0,15,7.0,0.0
1173,52.0,0,15,8.0,0.0
1174,62.0,0,40,15.0,0.0
1175,62.0,15,40,7.0,0.0
1176,50.0,0,90,1.0,0.0
1177,65.0,0,40,6.0,0.0
1178,50.0,15,90,3.0,0.0
1179,50.0,0,40,8.0,0.0
1180,53.0,0,90,13.0,0.0
1181,74.0,0,15,5.0,0.0
1182,60.0,0,15,7.0,0.0
1183,60.0,30,15,15.0,0.0
1184,64.0,0,15,6.0,0.0
1185,48.0,0,15,8.0,0.0
1186,77.0,0,15,4.0,0.0
1187,74.0,45,60,0.0,0.0
1188,46.0,0,40,8.0,0.0
1189,58.0,0,40,15.0,0.0
1190,76.0,15,40,5.0,0.0
1191,79.0,0,40,4.0,0.0
1192,74.0,0,60,10.0,0.0
1193,58.0,0,40,7.0,0.0
1194,62.0,0,40,6.0,0.0
1195,50.0,0,30,3.0,0.0
1196,53.0,0,30,13.0,0.0
1197,50.0,0,30,1.0,0.0
1198,60.0,0,15,6.0,0.0
1199,45.0,0,15,8.0,0.0
1200,77.0,0,15,5.0,0.0
1201,81.0,0,15,4.0,0.0
1202,57.0,0,15,7.0,0.0
1203,57.0,0,15,15.0,0.0
1204,62.0,0,120,11.0,0.0
1205,79.0,0,40,5.0,0.0
1206,55.0,0,60,15.0,0.0
1207,58.0,15,330,13.0,0.0
1208,58.0,0,330,1.0,0.0
1209,58.0,0,60,6.0,0.0
1210,43.0,0,60,8.0,0.0
1211,58.0,0,330,3.0,0.0
1212,55.0,0,60,7.0,0.0
1213,74.0,0,60,10.0,0.0
1214,74.0,0,60,0.0,0.0
1215,62.0,0,180,0.0,0.0
1216,82.0,15,40,4.0,0.0
1217,81.0,30,15,5.0,0.0
1218,84.0,0,15,4.0,0.0
1219,67.0,0,60,0.0,0.0
1220,31.0,45,60,8.0,0.0
1221,86.0,0,40,4.0,0.0
1222,82.0,15,40,5.0,0.0
1223,67.0,0,60,10.0,0.0
1224,55.0,0,60,6.0,0.0
1225,43.0,0,60,15.0,0.0
1226,43.0,0,60,7.0,0.0
1227,62.0,0,30,3.0,0.0
1228,62.0,0,30,12.0,0.0
1229,62.0,0,30,1.0,0.0
1230,84.0,0,15,4.0,0.0
1231,81.0,0,15,5.0,0.0
1232,82.0,0,40,4.0,0.0
1233,67.0,0,90,1.0,0.0
1234,67.0,0,90,12.0,0.0
1235,79.0,15,40,5.0,0.0
1236,55.0,0,15,7.0,0.0
1237,43.0,0,15,8.0,0.0
1238,55.0,0,15,15.0,0.0
1239,58.0,0,15,6.0,0.0
1240,77.0,30,15,5.0,0.0
1241,81.0,0,15,4.0,0.0
1242,45.0,0,40,8.0,0.0
1243,67.0,0,60,11.0,0.0
1244,60.0,0,40,6.0,0.0
1245,79.0,0,40,4.0,0.0
1246,57.0,15,40,15.0,0.0
1247,76.0,0,40,5.0,0.0
1248,67.0,0,60,0.0,0.0
1249,57.0,0,40,7.0,0.0
1250,67.0,15,30,3.0,0.0
1251,65.0,0,30,3.0,0.0
1252,65.0,0,30,12.0,0.0
1253,65.0,0,30,1.0,0.0
1254,62.0,0,15,6.0,0.0
1255,58.0,0,15,15.0,0.0
1256,77.0,0,15,4.0,0.0
1257,46.0,45,15,8.0,0.0
1258,74.0,0,15,5.0,0.0
1259,58.0,0,15,7.0,0.0
1260,64.0,15,330,3.0,0.0
1261,67.0,0,60,0.0,0.0
1262,67.0,0,60,11.0,0.0
1263,64.0,0,330,1.0,0.0
1264,64.0,0,330,12.0,0.0
1265,67.0,0,60,3.0,0.0
1266,64.0,0,40,6.0,0.0
1267,60.0,0,40,7.0,0.0
1268,72.0,0,60,5.0,0.0
1269,76.0,0,60,4.0,0.0
1270,60.0,15,40,15.0,0.0
1271,48.0,0,40,8.0,0.0
1272,50.0,0,15,8.0,0.0
1273,62.0,0,15,7.0,0.0
1274,62.0,0,15,15.0,0.0
1275,65.0,30,15,6.0,0.0
1276,60.0,0,60,11.0,0.0
1277,60.0,45,60,5.0,0.0
1278,52.0,0,40,8.0,0.0
1279,60.0,0,60,4.0,0.0
1280,60.0,0,60,3.0,0.0
1281,64.0,15,40,7.0,0.0
1282,67.0,0,40,6.0,0.0
1283,60.0,0,60,0.0,0.0
1284,64.0,0,40,15.0,0.0
1285,55.0,0,30,3.0,0.0
1286,55.0,0,30,1.0,0.0
1287,55.0,0,30,13.0,0.0
1288,65.0,0,15,6.0,0.0
1289,50.0,0,15,8.0,0.0
1290,62.0,0,15,7.0,0.0
1291,62.0,0,15,15.0,0.0
1292,60.0,0,40,15.0,0.0
1293,69.0,0,90,0.0,0.0
1294,60.0,15,40,7.0,0.0
1295,60.0,0,90,3.0,0.0
1296,60.0,0,90,1.0,0.0
1297,64.0,0,40,6.0,0.0
1298,67.0,0,90,10.0,0.0
1299,60.0,15,90,13.0,0.0
1300,48.0,0,40,8.0,0.0
1301,46.0,30,15,8.0,0.0
1302,76.0,0,15,4.0,0.0
1303,58.0,0,15,15.0,0.0
1304,58.0,0,15,7.0,0.0
1305,62.0,0,15,6.0,0.0
1306,72.0,0,15,5.0,0.0
1307,74.0,15,40,5.0,0.0
1308,60.0,0,40,6.0,0.0
1309,45.0,0,40,8.0,0.0
1310,57.0,0,40,15.0,0.0
1311,57.0,0,40,7.0,0.0
1312,77.0,0,40,4.0,0.0
1313,72.0,0,30,10.0,0.0
1314,58.0,0,30,3.0,0.0
1315,72.0,0,30,0.0,0.0
1316,58.0,0,30,1.0,0.0
1317,58.0,45,30,13.0,0.0
1318,58.0,0,15,6.0,0.0
1319,55.0,0,15,15.0,0.0
1320,79.0,0,15,4.0,0.0
1321,76.0,0,15,5.0,0.0
1322,43.0,0,15,8.0,0.0
1323,55.0,0,15,7.0,0.0
1324,77.0,15,40,5.0,0.0
1325,81.0,0,40,4.0,0.0
1326,57.0,0,330,3.0,0.0
1327,72.0,0,60,10.0,0.0
1328,72.0,0,60,0.0,0.0
1329,57.0,0,330,13.0,0.0
1330,57.0,0,330,1.0,0.0
1331,53.0,0,60,15.0,0.0
1332,53.0,0,60,7.0,0.0
1333,57.0,0,60,6.0,0.0
1334,41.0,0,60,8.0,0.0
1335,79.0,0,15,5.0,0.0
1336,82.0,30,15,4.0,0.0
1337,81.0,15,40,5.0,0.0
1338,84.0,0,40,4.0,0.0
1339,41.0,0,60,15.0,0.0
1340,41.0,0,60,7.0,0.0
1341,53.0,0,60,6.0,0.0
1342,65.0,0,60,0.0,0.0
1343,29.0,0,60,8.0,0.0
1344,65.0,0,60,10.0,0.0
1345,60.0,0,30,1.0,0.0
1346,60.0,0,30,3.0,0.0
1347,60.0,0,30,12.0,0.0
1348,79.0,45,15,5.0,0.0
1349,82.0,0,15,4.0,0.0
1350,65.0,0,90,3.0,0.0
1351,60.0,0,90,3.0,0.0
1352,65.0,0,90,12.0,0.0
1353,60.0,0,90,11.0,0.0
1354,77.0,0,40,5.0,0.0
1355,60.0,0,90,0.0,0.0
1356,65.0,15,90,1.0,0.0
1357,81.0,15,40,4.0,0.0
1358,76.0,0,15,5.0,0.0
1359,53.0,0,15,7.0,0.0
1360,79.0,0,15,4.0,0.0
1361,57.0,30,15,6.0,0.0
1362,53.0,0,15,15.0,0.0
1363,41.0,0,15,8.0,0.0
1364,58.0,0,40,6.0,0.0
1365,55.0,0,40,15.0,0.0
1366,74.0,0,40,5.0,0.0
1367,43.0,0,40,8.0,0.0
1368,55.0,0,40,7.0,0.0
1369,77.0,15,40,4.0,0.0
1370,65.0,0,30,11.0,0.0
1371,64.0,0,30,3.0,0.0
1372,65.0,0,30,0.0,0.0
1373,64.0,45,30,12.0,0.0
1374,64.0,0,30,1.0,0.0
1375,65.0,0,30,3.0,0.0
1376,45.0,0,15,8.0,0.0
1377,57.0,0,15,15.0,0.0
1378,57.0,0,15,7.0,0.0
1379,72.0,0,15,5.0,0.0
1380,76.0,0,15,4.0,0.0
1381,60.0,0,15,6.0,0.0
1382,46.0,0,40,8.0,0.0
1383,74.0,30,60,4.0,0.0
1384,58.0,0,40,7.0,0.0
1385,62.0,0,330,12.0,0.0
1386,70.0,0,60,5.0,0.0
1387,62.0,15,40,6.0,0.0
1388,65.0,0,60,11.0,0.0
1389,58.0,0,40,15.0,0.0
1390,65.0,0,60,3.0,0.0
1391,65.0,0,90,10.0,0.0
1392,62.0,0,330,1.0,0.0
1393,65.0,15,90,0.0,0.0
1394,62.0,0,330,3.0,0.0
1395,60.0,0,15,7.0,0.0
1396,60.0,0,15,15.0,0.0
1397,48.0,0,15,8.0,0.0
1398,64.0,0,15,6.0,0.0
1399,65.0,15,40,6.0,0.0
1400,50.0,0,40,8.0,0.0
1401,58.0,0,60,0.0,0.0
1402,62.0,0,40,7.0,0.0
1403,58.0,0,60,4.0,0.0
1404,58.0,0,60,11.0,0.0
1405,62.0,0,40,15.0,0.0
1406,58.0,0,60,5.0,0.0
1407,58.0,0,60,3.0,0.0
1408,53.0,0,30,13.0,0.0
1409,53.0,0,30,1.0,0.0
1410,53.0,0,30,3.0,0.0
1411,65.0,0,30,10.0,0.0
1412,65.0,0,30,0.0,0.0
1413,64.0,0,15,6.0,0.0
1414,48.0,45,15,8.0,0.0
1415,60.0,0,15,7.0,0.0
1416,60.0,0,15,15.0,0.0
1417,58.0,0,90,1.0,0.0
1418,46.0,0,40,8.0,0.0
1419,58.0,0,40,7.0,0.0
1420,58.0,15,90,13.0,0.0
1421,58.0,0,90,3.0,0.0
1422,58.0,0,40,15.0,0.0
1423,62.0,15,40,6.0,0.0
1424,77.0,0,210,10.0,0.0
1425,77.0,0,210,0.0,0.0
1426,60.0,0,15,6.0,0.0
1427,57.0,0,15,7.0,0.0
1428,62.0,0,15,5.0,0.0
1429,57.0,30,15,15.0,0.0
1430,74.0,0,15,4.0,0.0
1431,45.0,0,15,8.0,0.0
1432,55.0,0,40,15.0,0.0
1433,75.0,0,40,4.0,0.0
1434,64.0,0,40,5.0,0.0
1435,58.0,0,40,6.0,0.0
1436,55.0,0,40,7.0,0.0
1437,43.0,15,40,8.0,0.0
1438,57.0,0,30,1.0,0.0
1439,57.0,0,30,3.0,0.0
1440,57.0,0,30,13.0,0.0
1441,77.0,0,15,4.0,0.0
1442,53.0,45,15,7.0,0.0
1443,65.0,0,15,5.0,0.0
1444,57.0,0,15,6.0,0.0
1445,41.0,0,15,8.0,0.0
1446,53.0,0,15,15.0,0.0
1447,55.0,15,90,3.0,0.0
1448,55.0,0,120,6.0,0.0
1449,40.0,0,120,8.0,0.0
1450,52.0,0,120,7.0,0.0
1451,70.0,0,180,11.0,0.0
1452,55.0,0,90,1.0,0.0
1453,52.0,0,120,15.0,0.0
1454,70.0,0,180,3.0,0.0
1455,55.0,0,90,13.0,0.0
1456,67.0,0,40,5.0,0.0
1457,79.0,15,40,4.0,0.0
1458,70.0,0,180,0.0,0.0
1459,69.0,30,15,5.0,0.0
1460,81.0,0,15,4.0,0.0
1461,82.0,15,40,4.0,0.0
1462,70.0,0,40,5.0,0.0
1463,77.0,0,30,0.0,0.0
1464,62.0,0,30,12.0,0.0
1465,58.0,0,30,13.0,0.0
1466,58.0,0,30,1.0,0.0
1467,77.0,0,30,10.0,0.0
1468,62.0,0,30,1.0,0.0
1469,58.0,0,30,3.0,0.0
1470,62.0,0,30,3.0,0.0
1471,81.0,0,15,4.0,0.0
1472,69.0,45,15,5.0,0.0
1473,76.0,15,90,10.0,0.0
1474,67.0,15,40,5.0,0.0
1475,52.0,0,60,3.0,0.0
1476,79.0,0,40,4.0,0.0
1477,67.0,0,90,12.0,0.0
1478,67.0,0,90,3.0,0.0
1479,52.0,0,60,1.0,0.0
1480,67.0,0,90,1.0,0.0
1481,52.0,0,60,13.0,0.0
1482,76.0,0,90,0.0,0.0
1483,77.0,0,15,4.0,0.0
1484,40.0,0,15,8.0,0.0
1485,52.0,0,15,15.0,0.0
1486,65.0,0,15,5.0,0.0
1487,52.0,30,15,7.0,0.0
1488,67.0,0,15,6.0,0.0
1489,70.0,0,60,0.0,0.0
1490,69.0,0,40,6.0,0.0
1491,53.0,0,40,3.0,0.0
1492,53.0,0,40,13.0,0.0
1493,76.0,0,40,4.0,0.0
1494,53.0,15,40,15.0,0.0
1495,70.0,0,60,3.0,0.0
1496,41.0,0,40,8.0,0.0
1497,64.0,0,40,5.0,0.0
1498,53.0,0,40,7.0,0.0
1499,70.0,0,60,11.0,0.0
1500,53.0,0,40,1.0,0.0
1501,74.0,45,30,10.0,0.0
1502,74.0,0,30,0.0,0.0
1503,65.0,0,30,1.0,0.0
1504,65.0,0,30,3.0,0.0
1505,65.0,0,30,12.0,0.0
1506,70.0,0,15,6.0,0.0
1507,74.0,0,15,4.0,0.0
1508,62.0,0,15,5.0,0.0
1509,43.0,0,15,8.0,0.0
1510,55.0,0,15,1.0,0.0
1511,55.0,0,15,7.0,0.0
1512,55.0,0,15,13.0,0.0
1513,55.0,0,15,3.0,0.0
1514,55.0,0,15,15.0,0.0
1515,69.0,30,60,5.0,0.0
1516,57.0,0,90,1.0,0.0
1517,69.0,0,90,3.0,0.0
1518,64.0,0,90,3.0,0.0
1519,73.0,0,90,10.0,0.0
1520,57.0,0,90,13.0,0.0
1521,73.0,0,60,4.0,0.0
1522,57.0,0,40,7.0,0.0
1523,64.0,0,120,6.0,0.0
1524,45.0,0,40,8.0,0.0
1525,64.0,15,90,12.0,0.0
1526,45.0,0,90,14.0,0.0
1527,69.0,0,90,11.0,0.0
1528,69.0,0,90,0.0,0.0
1529,57.0,0,90,3.0,0.0
1530,69.0,0,90,2.0,0.0
1531,57.0,15,40,15.0,0.0
1532,57.0,0,90,2.0,0.0
1533,73.0,0,90,0.0,0.0
1534,64.0,0,90,1.0,0.0
1535,45.0,0,15,8.0,0.0
1536,57.0,0,15,15.0,0.0
1537,57.0,0,15,7.0,0.0
1538,57.0,0,60,4.0,0.0
1539,45.0,0,40,7.0,0.0
1540,45.0,0,40,15.0,0.0
1541,33.0,15,40,8.0,0.0
1542,57.0,0,60,5.0,0.0
1543,64.0,0,30,3.0,0.0
1544,57.0,0,30,13.0,0.0
1545,45.0,0,30,14.0,0.0
1546,73.0,0,30,0.0,0.0
1547,69.0,0,30,0.0,0.0
1548,64.0,0,30,1.0,0.0
1549,57.0,45,30,1.0,0.0
1550,69.0,0,30,3.0,0.0
1551,69.0,0,30,11.0,0.0
1552,69.0,0,30,2.0,0.0
1553,57.0,0,30,2.0,0.0
1554,64.0,0,30,12.0,0.0
1555,57.0,0,30,3.0,0.0
1556,73.0,0,30,10.0,0.0
1557,57.0,0,15,7.0,0.0
1558,45.0,0,15,8.0,0.0
1559,57.0,0,15,15.0,0.0
1560,53.0,0,90,3.0,0.0
1561,53.0,0,90,13.0,0.0
1562,53.0,0,40,7.0,0.0
1563,65.0,0,90,3.0,0.0
1564,69.0,0,90,2.0,0.0
1565,65.0,0,90,12.0,0.0
1566,65.0,15,90,1.0,0.0
1567,74.0,0,90,0.0,0.0
1568,53.0,0,90,1.0,0.0
1569,62.0,0,90,2.0,0.0
1570,69.0,0,90,11.0,0.0
1571,50.0,0,90,14.0,0.0
1572,74.0,0,90,10.0,0.0
1573,41.0,15,40,8.0,0.0
1574,53.0,0,40,15.0,0.0
1575,69.0,0,90,0.0,0.0
1576,69.0,0,90,3.0,0.0
1577,57.0,0,15,15.0,0.0
1578,57.0,0,15,7.0,0.0
1579,45.0,30,15,8.0,0.0
1580,41.0,0,40,8.0,0.0
1581,53.0,0,40,7.0,0.0
1582,53.0,15,40,15.0,0.0
1583,50.0,0,30,13.0,0.0
1584,50.0,0,30,14.0,0.0
1585,65.0,0,30,12.0,0.0
1586,74.0,0,30,10.0,0.0
1587,69.0,0,30,11.0,0.0
1588,74.0,0,30,0.0,0.0
1589,69.0,0,30,2.0,0.0
1590,69.0,0,30,0.0,0.0
1591,65.0,0,30,1.0,0.0
1592,50.0,60,30,1.0,0.0
1593,50.0,0,30,3.0,0.0
1594,65.0,0,30,3.0,0.0
1595,69.0,0,30,3.0,0.0
1596,62.0,0,30,2.0,0.0
1597,38.0,0,15,8.0,0.0
1598,50.0,0,15,7.0,0.0
1599,50.0,0,15,15.0,0.0
1600,57.0,0,60,7.0,0.0
1601,57.0,0,60,3.0,0.0
1602,74.0,0,60,0.0,0.0
1603,69.0,0,60,0.0,0.0
1604,65.0,0,60,3.0,0.0
1605,57.0,0,60,15.0,0.0
1606,74.0,0,60,10.0,0.0
1607,45.0,0,60,14.0,0.0
1608,69.0,0,60,3.0,0.0
1609,69.0,0,60,11.0,0.0
1610,69.0,0,60,2.0,0.0
1611,57.0,0,60,1.0,0.0
1612,57.0,45,60,13.0,0.0
1613,65.0,0,60,12.0,0.0
1614,45.0,0,60,8.0,0.0
1615,65.0,0,60,1.0,0.0
1616,57.0,0,60,2.0,0.0
1617,69.0,0,15,4.0,0.0
1618,69.0,0,15,5.0,0.0
1619,61.0,0,15,6.0,0.0
1620,45.0,0,60,7.0,0.0
1621,64.0,0,40,6.0,0.0
1622,57.0,15,40,2.0,0.0
1623,69.0,0,40,2.0,0.0
1624,64.0,60,60,1.0,0.0
1625,33.0,0,60,8.0,0.0
1626,45.0,0,40,14.0,0.0
1627,69.0,0,60,3.0,0.0
1628,45.0,0,60,1.0,0.0
1629,45.0,0,60,3.0,0.0
1630,73.0,0,40,4.0,0.0
1631,73.0,0,60,10.0,0.0
1632,64.0,0,60,12.0,0.0
1633,45.0,0,60,15.0,0.0
1634,45.0,0,60,13.0,0.0
1635,64.0,0,40,5.0,0.0
1636,69.0,0,60,0.0,0.0
1637,73.0,0,60,0.0,0.0
1638,69.0,0,60,11.0,0.0
1639,64.0,0,60,3.0,0.0
1640,61.0,0,15,5.0,0.0
1641,69.0,0,15,2.0,0.0
1642,57.0,0,15,2.0,0.0
1643,69.0,0,15,6.0,0.0
1644,45.0,0,15,14.0,0.0
1645,76.0,0,15,4.0,0.0
1646,57.0,0,120,5.0,0.0
1647,81.0,0,120,4.0,0.0
1648,45.0,0,120,14.0,0.0
1649,57.0,0,120,2.0,0.0
1650,69.0,0,120,2.0,0.0
1651,73.0,0,120,6.0,0.0
1652,57.0,0,15,7.0,0.0
1653,45.0,0,15,8.0,0.0
1654,57.0,45,15,15.0,0.0
1655,69.0,0,60,3.0,0.0
1656,45.0,0,40,15.0,0.0
1657,33.0,0,40,8.0,0.0
1658,73.0,0,40,10.0,0.0
1659,69.0,0,40,11.0,0.0
1660,64.0,15,40,12.0,0.0
1661,64.0,0,60,3.0,0.0
1662,64.0,0,60,1.0,0.0
1663,57.0,0,60,3.0,0.0
1664,57.0,0,60,1.0,0.0
1665,69.0,0,60,0.0,0.0
1666,57.0,0,40,13.0,0.0
1667,45.0,0,40,7.0,0.0
1668,73.0,60,60,0.0,0.0
1669,57.0,0,15,15.0,0.0
1670,69.0,0,15,11.0,0.0
1671,64.0,0,15,12.0,0.0
1672,73.0,0,15,10.0,0.0
1673,57.0,0,15,13.0,0.0
1674,45.0,0,15,8.0,0.0
1675,57.0,0,15,7.0,0.0
1676,74.0,0,60,0.0,0.0
1677,69.0,0,60,0.0,0.0
1678,50.0,0,60,14.0,0.0
1679,62.0,0,60,3.0,0.0
1680,69.0,0,60,11.0,0.0
1681,57.0,0,60,2.0,0.0
1682,69.0,0,60,2.0,0.0
1683,62.0,0,60,1.0,0.0
1684,62.0,0,60,13.0,0.0
1685,65.0,0,60,1.0,0.0
1686,62.0,45,60,7.0,0.0
1687,50.0,0,60,8.0,0.0
1688,69.0,0,60,3.0,0.0
1689,65.0,0,60,12.0,0.0
1690,74.0,0,60,10.0,0.0
1691,65.0,0,60,3.0,0.0
1692,62.0,0,60,15.0,0.0
1693,61.0,0,15,6.0,0.0
1694,69.0,0,15,4.0,0.0
1695,69.0,0,15,5.0,0.0
1696,57.0,0,60,13.0,0.0
1697,45.0,15,40,14.0,0.0
1698,57.0,0,60,1.0,0.0
1699,73.0,0,60,0.0,0.0
1700,64.0,0,40,6.0,0.0
1701,45.0,0,60,8.0,0.0
1702,64.0,0,40,5.0,0.0
1703,64.0,0,60,3.0,0.0
1704,69.0,0,60,0.0,0.0
1705,57.0,0,60,15.0,0.0
1706,64.0,0,60,1.0,0.0
1707,64.0,60,60,12.0,0.0
1708,57.0,0,60,7.0,0.0
1709,73.0,0,40,4.0,0.0
1710,57.0,0,60,3.0,0.0
1711,73.0,0,60,10.0,0.0
1712,57.0,0,40,2.0,0.0
1713,69.0,0,40,2.0,0.0
1714,69.0,0,60,11.0,0.0
1715,69.0,0,60,3.0,0.0
1716,69.0,0,15,6.0,0.0
1717,69.0,0,15,2.0,0.0
1718,57.0,0,15,2.0,0.0
1719,76.0,0,15,4.0,0.0
1720,45.0,0,15,14.0,0.0
1721,61.0,0,15,5.0,0.0
1722,69.0,0,60,2.0,0.0
1723,45.0,0,120,14.0,0.0
1724,73.0,60,120,6.0,0.0
1725,81.0,0,120,4.0,0.0
1726,57.0,0,120,5.0,0.0
1727,62.0,0,60,2.0,0.0
1728,57.0,0,15,7.0,0.0
1729,45.0,45,15,8.0,0.0
1730,57.0,0,15,15.0,0.0
1731,57.0,15,40,13.0,0.0
1732,69.0,0,60,2.0,0.0
1733,57.0,0,60,2.0,0.0
1734,76.0,0,60,0.0,0.0
1735,69.0,0,40,11.0,0.0
1736,69.0,0,60,0.0,0.0
1737,57.0,0,60,3.0,0.0
1738,61.0,0,60,1.0,0.0
1739,57.0,0,60,1.0,0.0
1740,61.0,0,40,12.0,0.0
1741,33.0,0,40,8.0,0.0
1742,76.0,0,40,10.0,0.0
1743,45.0,0,40,15.0,0.0
1744,45.0,0,40,7.0,0.0
1745,69.0,0,60,3.0,0.0
1746,61.0,0,60,3.0,0.0
1747,61.0,0,15,12.0,0.0
1748,57.0,0,15,15.0,0.0
1749,45.0,0,15,8.0,0.0
1750,57.0,0,15,13.0,0.0
1751,76.0,0,15,10.0,0.0
1752,69.0,0,15,11.0,0.0
1753,57.0,0,15,7.0,0.0
1754,62.0,0,60,7.0,0.0
1755,50.0,0,60,8.0,0.0
1756,69.0,0,60,0.0,0.0
1757,62.0,0,60,12.0,0.0
1758,62.0,0,60,15.0,0.0
1759,77.0,0,60,15.0,0.0
1760,77.0,0,60,0.0,0.0
1761,69.0,0,60,15.0,0.0
1762,69.0,0,60,3.0,0.0
1763,50.0,45,60,14.0,0.0
1764,69.0,0,60,11.0,0.0
1765,62.0,0,60,1.0,0.0
1766,62.0,0,60,3.0,0.0
1767,77.0,0,60,10.0,0.0
1768,62.0,0,60,13.0,0.0
1769,69.0,0,15,4.0,0.0
1770,69.0,0,15,5.0,0.0
1771,69.0,0,15,6.0,0.0
1772,57.0,0,60,3.0,0.0
1773,61.0,0,60,12.0,0.0
1774,73.0,0,40,4.0,0.0
1775,45.0,0,60,14.0,0.0
1776,57.0,0,60,1.0,0.0
1777,69.0,0,60,11.0,0.0
1778,69.0,0,60,0.0,0.0
1779,57.0,0,60,13.0,0.0
1780,76.0,0,60,0.0,0.0
1781,73.0,15,40,5.0,0.0
1782,69.0,0,60,3.0,0.0
1783,76.0,0,60,10.0,0.0
1784,61.0,0,60,3.0,0.0
1785,64.0,0,40,6.0,0.0
1786,69.0,0,60,15.0,0.0
1787,76.0,0,60,15.0,0.0
1788,61.0,0,60,15.0,0.0
1789,61.0,45,60,1.0,0.0
1790,45.0,0,60,8.0,0.0
1791,57.0,0,60,7.0,0.0
1792,57.0,0,60,15.0,0.0
1793,61.0,0,15,6.0,0.0
1794,76.0,0,15,5.0,0.0
1795,76.0,0,15,4.0,0.0
1796,81.0,0,40,4.0,0.0
1797,81.0,15,40,5.0,0.0
1798,57.0,0,40,6.0,0.0
1799,57.0,45,15,6.0,0.0
1800,69.0,0,15,5.0,0.0
1801,69.0,0,15,4.0,0.0
1802,57.0,0,15,15.0,0.0
1803,57.0,0,40,6.0,0.0
1804,69.0,15,40,4.0,0.0
1805,69.0,0,40,5.0,0.0
1806,57.0,0,40,15.0,0.0
1807,69.0,0,15,4.0,0.0
1808,57.0,0,15,15.0,0.0
1809,57.0,0,15,6.0,0.0
1810,69.0,45,15,5.0,0.0
1811,57.0,15,40,6.0,0.0
1812,69.0,0,40,5.0,0.0
1813,57.0,0,60,15.0,0.0
1814,69.0,0,40,4.0,0.0
1815,70.0,0,15,5.0,0.0
1816,58.0,45,15,6.0,0.0
1817,70.0,0,15,4.0,0.0
1818,55.0,0,60,15.0,0.0
1819,67.0,0,40,5.0,0.0
1820,67.0,15,40,4.0,0.0
1821,55.0,0,40,6.0,0.0
1822,69.0,45,15,5.0,0.0
1823,57.0,0,15,6.0,0.0
1824,69.0,0,15,4.0,0.0
1825,65.0,0,40,5.0,0.0
1826,65.0,15,40,4.0,0.0
1827,53.0,0,40,6.0,0.0
1828,53.0,0,60,15.0,0.0
1829,67.0,0,15,5.0,0.0
1830,55.0,0,15,6.0,0.0
1831,67.0,45,15,4.0,0.0
1832,52.0,15,40,6.0,0.0
1833,64.0,0,40,5.0,0.0
1834,52.0,0,60,15.0,0.0
1835,64.0,0,40,4.0,0.0
1836,65.0,0,15,5.0,0.0
1837,53.0,90,15,6.0,0.0
1838,65.0,0,15,4.0,0.0
1839,62.0,60,120,5.0,0.0
1840,69.0,0,90,11.0,0.0
1841,62.0,0,120,4.0,0.0
1842,69.0,0,90,0.0,0.0
1843,77.0,0,90,0.0,0.0
1844,77.0,30,90,10.0,0.0
1845,50.0,0,120,15.0,0.0
1846,50.0,0,120,6.0,0.0
1847,76.0,0,30,10.0,0.0
1848,67.0,0,30,11.0,0.0
1849,67.0,0,30,0.0,0.0
1850,76.0,0,30,0.0,0.0
1851,74.0,0,120,0.0,0.0
1852,65.0,0,120,0.0,0.0
1853,65.0,0,120,11.0,0.0
1854,74.0,0,120,10.0,0.0
1855,69.0,45,15,4.0,0.0
1856,64.0,45,60,5.0,0.0
1857,81.0,15,40,4.0,0.0
1858,61.0,0,60,6.0,0.0
1859,79.0,0,15,4.0,0.0
1860,65.0,0,60,5.0,0.0
1861,77.0,15,40,4.0,0.0
1862,62.0,30,60,6.0,0.0
1863,79.0,0,15,4.0,0.0
1864,67.0,0,60,6.0,0.0
1865,70.0,0,60,5.0,0.0
1866,76.0,15,40,4.0,0.0
1867,55.0,15,30,15.0,0.0
1868,77.0,30,15,4.0,0.0
1869,57.0,15,30,15.0,0.0
1870,65.0,30,60,6.0,0.0
1871,69.0,0,60,5.0,0.0
1872,74.0,15,40,4.0,0.0
1873,75.0,0,15,4.0,0.0
1874,72.0,15,40,4.0,0.0
1875,45.0,15,30,15.0,0.0
1876,63.0,0,60,6.0,0.0
1877,65.0,0,60,5.0,0.0
1878,74.0,90,15,4.0,0.0
1879,46.0,0,120,15.0,0.0
1880,53.0,0,90,13.0,0.0
1881,62.0,30,90,12.0,0.0
1882,70.0,0,120,4.0,0.0
1883,62.0,0,90,1.0,0.0
1884,53.0,0,90,1.0,0.0
1885,65.0,0,120,5.0,0.0
1886,62.0,0,120,6.0,0.0
1887,51.0,0,30,1.0,0.0
1888,60.0,0,30,12.0,0.0
1889,60.0,0,30,1.0,0.0
1890,51.0,60,30,13.0,0.0
1891,58.0,0,120,1.0,0.0
1892,58.0,0,120,12.0,0.0
1893,50.0,0,120,1.0,0.0
1894,50.0,0,120,13.0,0.0
1895,65.0,45,15,4.0,0.0
1896,77.0,15,40,4.0,0.0
1897,60.0,0,60,5.0,0.0
1898,57.0,0,60,6.0,0.0
1899,75.0,45,15,4.0,0.0
1900,58.0,0,60,6.0,0.0
1901,62.0,0,60,5.0,0.0
1902,74.0,15,40,4.0,0.0
1903,75.0,45,15,4.0,0.0
1904,48.0,0,60,15.0,0.0
1905,72.0,15,40,4.0,0.0
1906,63.0,45,60,6.0,0.0
1907,69.0,0,60,5.0,0.0
1908,74.0,0,15,4.0,0.0
1909,62.0,45,60,6.0,0.0
1910,70.0,15,40,4.0,0.0
1911,50.0,0,60,15.0,0.0
1912,67.0,0,60,5.0,0.0
1913,72.0,0,15,4.0,0.0
1914,50.0,0,60,15.0,0.0
1915,66.0,0,60,5.0,0.0
1916,69.0,15,40,4.0,0.0
1917,60.0,0,60,6.0,0.0
1918,70.0,60,15,4.0,0.0
1919,63.0,0,180,12.0,0.0
1920,70.0,0,180,11.0,0.0
1921,55.0,0,180,13.0,0.0
1922,58.0,0,60,6.0,0.0
1923,70.0,0,240,15.0,0.0
1924,43.0,0,60,15.0,0.0
1925,79.0,60,180,10.0,0.0
1926,63.0,0,240,15.0,0.0
1927,67.0,0,240,15.0,0.0
1928,67.0,0,60,4.0,0.0
1929,67.0,60,60,5.0,0.0
1930,55.0,60,60,15.0,0.0
1931,79.0,0,180,4.0,0.0
1932,55.0,0,60,15.0,0.0
1933,70.0,0,180,5.0,0.0
1934,55.0,0,60,15.0,0.0
1935,79.0,0,60,10.0,0.0
1936,55.0,0,60,13.0,0.0
1937,63.0,0,60,12.0,0.0
1938,70.0,60,60,11.0,0.0
1939,62.0,0,240,15.0,0.0
1940,63.0,0,60,12.0,0.0
1941,70.0,0,60,11.0,0.0
1942,55.0,60,60,15.0,0.0
1943,70.0,0,240,15.0,0.0
1944,67.0,0,240,15.0,0.0
1945,79.0,0,60,10.0,0.0
1946,55.0,0,60,13.0,0.0
1947,77.0,0,60,4.0,0.0
1948,55.0,0,60,13.0,0.0
1949,62.0,0,60,12.0,0.0
1950,70.0,0,60,11.0,0.0
1951,77.0,0,60,10.0,0.0
1952,55.0,60,60,15.0,0.0
1953,70.0,0,60,5.0,0.0
1954,55.0,0,60,13.0,0.0
1955,75.0,0,60,4.0,0.0
1956,67.0,0,60,12.0,0.0
1957,55.0,0,60,15.0,0.0
1958,70.0,0,60,11.0,0.0
1959,70.0,0,60,5.0,0.0
1960,75.0,60,60,10.0,0.0
1961,74.0,60,60,10.0,0.0
1962,55.0,0,60,15.0,0.0
1963,55.0,0,60,13.0,0.0
1964,74.0,0,60,4.0,0.0
1965,70.0,0,60,5.0,0.0
1966,66.0,0,60,12.0,0.0
1967,70.0,0,60,11.0,0.0
1968,70.0,0,60,5.0,0.0
1969,70.0,0,120,11.0,0.0
1970,70.0,0,120,15.0,0.0
1971,73.0,60,60,4.0,0.0
1972,64.0,0,120,12.0,0.0
1973,73.0,0,120,10.0,0.0
1974,67.0,0,120,15.0,0.0
1975,55.0,0,60,15.0,0.0
1976,73.0,0,120,15.0,0.0
1977,55.0,60,120,13.0,0.0
1978,73.0,0,60,4.0,0.0
1979,55.0,0,60,15.0,0.0
1980,70.0,0,60,5.0,0.0
1981,53.0,60,60,15.0,0.0
1982,69.0,0,60,5.0,0.0
1983,74.0,0,120,15.0,0.0
1984,69.0,0,120,15.0,0.0
1985,65.0,0,120,15.0,0.0
1986,53.0,0,60,13.0,0.0
1987,65.0,0,120,12.0,0.0
1988,69.0,60,360,11.0,0.0
1989,74.0,0,240,10.0,0.0
1990,74.0,0,60,4.0,0.0
1991,69.0,0,60,5.0,0.0
1992,55.0,0,60,13.0,0.0
1993,74.0,60,60,4.0,0.0
1994,55.0,0,60,15.0,0.0
1995,74.0,60,60,4.0,0.0
1996,57.0,0,240,13.0,0.0
1997,64.0,0,240,12.0,0.0
1998,69.0,0,60,5.0,0.0
1999,57.0,0,60,15.0,0.0
2000,74.0,0,120,15.0,0.0
2001,63.0,0,120,15.0,0.0
2002,69.0,0,120,15.0,0.0
2003,74.0,0,60,4.0,0.0
2004,57.0,0,60,15.0,0.0
2005,69.0,60,60,5.0,0.0
2006,73.0,0,120,10.0,0.0
2007,69.0,0,120,15.0,0.0
2008,73.0,0,120,15.0,0.0
2009,67.0,0,60,5.0,0.0
2010,45.0,0,60,15.0,0.0
2011,73.0,60,60,4.0,0.0
2012,63.0,0,120,15.0,0.0
2013,67.0,0,60,5.0,0.0
2014,73.0,0,60,4.0,0.0
2015,45.0,0,60,15.0,0.0
2016,69.0,0,120,11.0,0.0
2017,65.0,0,60,15.0,0.0
2018,50.0,0,60,15.0,0.0
2019,74.0,0,120,10.0,0.0
2020,69.0,0,60,15.0,0.0
2021,65.0,0,120,12.0,0.0
2022,74.0,60,60,15.0,0.0
2023,50.0,0,120,13.0,0.0
2024,74.0,0,60,4.0,0.0
2025,65.0,60,60,5.0,0.0
2026,74.0,60,60,15.0,0.0
2027,65.0,0,60,15.0,0.0
2028,50.0,0,60,15.0,0.0
2029,69.0,0,60,15.0,0.0
2030,69.0,120,60,4.0,0.0
2031,65.0,0,60,5.0,0.0
2032,65.0,0,120,4.0,0.0
2033,62.0,0,120,5.0,0.0
2034,74.0,481,120,15.0,0.0
2035,69.0,0,120,15.0,0.0
2036,65.0,0,120,15.0,0.0
2037,50.0,0,120,15.0,0.0
