,note,step,duration,channel,velocity
0,57.0,0,29,4.0,0.0
1,57.0,0,29,5.0,0.0
2,69.0,30,239,2.0,0.0
3,57.0,0,239,2.0,0.0
4,57.0,0,29,6.0,0.0
5,45.0,0,29,15.0,0.0
6,45.0,0,239,14.0,0.0
7,45.0,30,29,7.0,0.0
8,33.0,0,29,8.0,0.0
9,58.0,0,29,6.0,0.0
10,34.0,0,29,8.0,0.0
11,46.0,60,29,15.0,0.0
12,58.0,0,29,4.0,0.0
13,58.0,0,29,5.0,0.0
14,46.0,0,29,7.0,0.0
15,48.0,0,59,7.0,0.0
16,60.0,30,59,4.0,0.0
17,36.0,0,59,8.0,0.0
18,48.0,0,59,15.0,0.0
19,60.0,0,59,6.0,0.0
20,60.0,0,59,5.0,0.0
21,36.0,0,29,8.0,0.0
22,60.0,0,29,5.0,0.0
23,48.0,0,29,7.0,0.0
24,60.0,0,29,6.0,0.0
25,48.0,0,29,15.0,0.0
26,60.0,60,29,4.0,0.0
27,48.0,0,29,15.0,0.0
28,60.0,0,29,5.0,0.0
29,60.0,0,29,6.0,0.0
30,60.0,0,29,4.0,0.0
31,48.0,0,29,7.0,0.0
32,36.0,30,29,8.0,0.0
33,57.0,0,179,3.0,0.0
34,57.0,0,179,1.0,0.0
35,60.0,0,29,6.0,0.0
36,60.0,0,29,5.0,0.0
37,57.0,30,179,13.0,0.0
38,48.0,0,29,15.0,0.0
39,60.0,0,29,4.0,0.0
40,36.0,30,29,8.0,0.0
41,48.0,0,29,7.0,0.0
42,58.0,0,29,6.0,0.0
43,46.0,0,29,7.0,0.0
44,34.0,60,29,8.0,0.0
45,58.0,0,29,4.0,0.0
46,58.0,0,29,5.0,0.0
47,46.0,0,29,15.0,0.0
48,57.0,0,59,4.0,0.0
49,33.0,30,59,8.0,0.0
50,45.0,0,59,15.0,0.0
51,57.0,0,59,5.0,0.0
52,45.0,0,59,7.0,0.0
53,57.0,0,59,6.0,0.0
54,45.0,30,29,15.0,0.0
55,45.0,0,29,7.0,0.0
56,33.0,0,29,8.0,0.0
57,57.0,0,29,5.0,0.0
58,57.0,0,29,6.0,0.0
59,57.0,0,29,4.0,0.0
60,57.0,0,29,6.0,0.0
61,52.0,0,59,1.0,0.0
62,33.0,30,29,8.0,0.0
63,52.0,0,59,3.0,0.0
64,57.0,0,29,4.0,0.0
65,45.0,0,29,15.0,0.0
66,52.0,30,59,13.0,0.0
67,45.0,0,29,7.0,0.0
68,57.0,0,29,5.0,0.0
69,60.0,0,239,13.0,0.0
70,45.0,30,239,14.0,0.0
71,60.0,0,239,3.0,0.0
72,69.0,0,239,2.0,0.0
73,57.0,0,239,2.0,0.0
74,60.0,0,239,1.0,0.0
75,57.0,0,29,6.0,0.0
76,57.0,30,29,4.0,0.0
77,57.0,0,29,5.0,0.0
78,45.0,0,29,15.0,0.0
79,33.0,0,29,8.0,0.0
80,45.0,0,29,7.0,0.0
81,58.0,0,29,4.0,0.0
82,46.0,0,29,15.0,0.0
83,34.0,0,29,8.0,0.0
84,58.0,0,29,5.0,0.0
85,58.0,0,29,6.0,0.0
86,46.0,60,29,7.0,0.0
87,60.0,30,59,4.0,0.0
88,48.0,0,59,7.0,0.0
89,36.0,0,59,8.0,0.0
90,60.0,0,59,5.0,0.0
91,48.0,0,59,15.0,0.0
92,60.0,0,59,6.0,0.0
93,60.0,0,29,4.0,0.0
94,60.0,0,29,6.0,0.0
95,48.0,0,29,15.0,0.0
96,48.0,0,29,7.0,0.0
97,36.0,60,29,8.0,0.0
98,60.0,0,29,5.0,0.0
99,60.0,0,29,4.0,0.0
100,36.0,0,29,8.0,0.0
101,60.0,0,29,5.0,0.0
102,48.0,0,29,15.0,0.0
103,60.0,0,29,6.0,0.0
104,48.0,30,29,7.0,0.0
105,60.0,0,179,3.0,0.0
106,60.0,0,179,1.0,0.0
107,60.0,30,179,12.0,0.0
108,57.0,0,239,13.0,0.0
109,60.0,0,29,6.0,0.0
110,60.0,0,29,4.0,0.0
111,36.0,30,29,8.0,0.0
112,48.0,0,29,15.0,0.0
113,48.0,0,29,7.0,0.0
114,60.0,0,29,5.0,0.0
115,34.0,0,29,8.0,0.0
116,46.0,0,29,15.0,0.0
117,58.0,0,29,6.0,0.0
118,58.0,0,29,5.0,0.0
119,46.0,0,29,7.0,0.0
120,58.0,60,29,4.0,0.0
121,33.0,0,59,8.0,0.0
122,45.0,0,59,7.0,0.0
123,45.0,0,59,15.0,0.0
124,57.0,30,59,6.0,0.0
125,57.0,0,59,4.0,0.0
126,57.0,0,59,5.0,0.0
127,45.0,0,29,7.0,0.0
128,45.0,30,29,15.0,0.0
129,57.0,0,29,5.0,0.0
130,33.0,0,29,8.0,0.0
131,57.0,0,29,4.0,0.0
132,57.0,0,29,6.0,0.0
133,45.0,0,29,7.0,0.0
134,57.0,0,59,1.0,0.0
135,33.0,0,29,8.0,0.0
136,57.0,0,29,4.0,0.0
137,57.0,0,59,12.0,0.0
138,57.0,0,59,3.0,0.0
139,57.0,0,29,6.0,0.0
140,45.0,0,29,15.0,0.0
141,57.0,30,29,5.0,0.0
142,47.0,30,29,7.0,0.0
143,59.0,0,29,4.0,0.0
144,59.0,0,29,5.0,0.0
145,47.0,0,29,15.0,0.0
146,74.0,0,239,2.0,0.0
147,59.0,0,29,6.0,0.0
148,50.0,0,239,14.0,0.0
149,62.0,30,239,2.0,0.0
150,62.0,0,239,3.0,0.0
151,62.0,0,239,1.0,0.0
152,35.0,0,29,8.0,0.0
153,62.0,0,239,12.0,0.0
154,48.0,0,29,15.0,0.0
155,60.0,0,29,6.0,0.0
156,60.0,60,29,4.0,0.0
157,48.0,0,29,7.0,0.0
158,36.0,0,29,8.0,0.0
159,60.0,0,29,5.0,0.0
160,62.0,0,59,5.0,0.0
161,38.0,0,59,8.0,0.0
162,50.0,0,59,15.0,0.0
163,50.0,0,59,7.0,0.0
164,62.0,30,59,4.0,0.0
165,62.0,0,59,6.0,0.0
166,38.0,0,29,8.0,0.0
167,62.0,0,29,6.0,0.0
168,62.0,0,29,4.0,0.0
169,50.0,0,29,7.0,0.0
170,50.0,60,29,15.0,0.0
171,62.0,0,29,5.0,0.0
172,50.0,30,29,7.0,0.0
173,38.0,0,29,8.0,0.0
174,62.0,0,29,4.0,0.0
175,50.0,0,29,15.0,0.0
176,62.0,0,29,6.0,0.0
177,62.0,0,29,5.0,0.0
178,38.0,0,29,8.0,0.0
179,50.0,0,29,15.0,0.0
180,62.0,0,29,5.0,0.0
181,62.0,0,29,6.0,0.0
182,59.0,0,179,3.0,0.0
183,62.0,0,29,4.0,0.0
184,59.0,30,179,1.0,0.0
185,56.0,30,239,1.0,0.0
186,56.0,0,239,3.0,0.0
187,56.0,0,239,12.0,0.0
188,50.0,30,29,7.0,0.0
189,59.0,0,179,13.0,0.0
190,36.0,0,29,8.0,0.0
191,60.0,0,29,5.0,0.0
192,60.0,0,29,4.0,0.0
193,60.0,0,29,6.0,0.0
194,48.0,0,29,7.0,0.0
195,48.0,60,29,15.0,0.0
196,35.0,0,59,8.0,0.0
197,47.0,30,59,7.0,0.0
198,59.0,0,59,6.0,0.0
199,59.0,0,59,5.0,0.0
200,59.0,0,59,4.0,0.0
201,47.0,0,59,15.0,0.0
202,59.0,0,29,5.0,0.0
203,47.0,30,29,15.0,0.0
204,35.0,0,29,8.0,0.0
205,47.0,0,29,7.0,0.0
206,59.0,0,29,4.0,0.0
207,59.0,0,29,6.0,0.0
208,59.0,30,29,4.0,0.0
209,35.0,0,29,8.0,0.0
210,52.0,0,59,13.0,0.0
211,59.0,0,29,5.0,0.0
212,47.0,0,29,15.0,0.0
213,52.0,0,59,1.0,0.0
214,47.0,0,29,7.0,0.0
215,59.0,0,29,6.0,0.0
216,52.0,0,59,3.0,0.0
217,74.0,0,239,2.0,0.0
218,59.0,0,29,5.0,0.0
219,62.0,30,239,13.0,0.0
220,62.0,0,239,2.0,0.0
221,62.0,0,239,3.0,0.0
222,35.0,0,29,8.0,0.0
223,47.0,0,29,15.0,0.0
224,50.0,0,239,14.0,0.0
225,59.0,0,29,4.0,0.0
226,47.0,0,29,7.0,0.0
227,59.0,30,29,6.0,0.0
228,62.0,0,239,1.0,0.0
229,36.0,0,29,8.0,0.0
230,60.0,60,29,6.0,0.0
231,60.0,0,29,5.0,0.0
232,48.0,0,29,7.0,0.0
233,48.0,0,29,15.0,0.0
234,60.0,0,29,4.0,0.0
235,38.0,0,59,8.0,0.0
236,62.0,0,59,6.0,0.0
237,62.0,0,59,4.0,0.0
238,62.0,30,59,5.0,0.0
239,50.0,0,59,15.0,0.0
240,50.0,0,59,7.0,0.0
241,62.0,0,29,6.0,0.0
242,50.0,0,29,15.0,0.0
243,50.0,0,29,7.0,0.0
244,62.0,0,29,5.0,0.0
245,62.0,60,29,4.0,0.0
246,38.0,0,29,8.0,0.0
247,62.0,0,29,6.0,0.0
248,38.0,0,29,8.0,0.0
249,50.0,0,29,7.0,0.0
250,62.0,0,29,5.0,0.0
251,62.0,30,29,4.0,0.0
252,50.0,0,29,15.0,0.0
253,38.0,0,29,8.0,0.0
254,62.0,0,29,6.0,0.0
255,50.0,0,29,15.0,0.0
256,62.0,0,29,5.0,0.0
257,56.0,30,239,13.0,0.0
258,50.0,0,29,7.0,0.0
259,62.0,30,29,4.0,0.0
260,62.0,0,179,3.0,0.0
261,62.0,0,179,12.0,0.0
262,56.0,0,239,3.0,0.0
263,62.0,30,179,1.0,0.0
264,56.0,0,239,1.0,0.0
265,48.0,0,29,15.0,0.0
266,48.0,0,29,7.0,0.0
267,60.0,0,29,4.0,0.0
268,36.0,0,29,8.0,0.0
269,60.0,60,29,6.0,0.0
270,60.0,0,29,5.0,0.0
271,59.0,0,59,4.0,0.0
272,47.0,0,59,7.0,0.0
273,59.0,0,59,6.0,0.0
274,35.0,0,59,8.0,0.0
275,47.0,30,59,15.0,0.0
276,59.0,0,59,5.0,0.0
277,47.0,30,29,7.0,0.0
278,59.0,0,29,4.0,0.0
279,59.0,0,29,6.0,0.0
280,35.0,0,29,8.0,0.0
281,59.0,0,29,5.0,0.0
282,47.0,0,29,15.0,0.0
283,59.0,0,59,1.0,0.0
284,59.0,0,29,5.0,0.0
285,59.0,0,29,6.0,0.0
286,59.0,0,59,12.0,0.0
287,59.0,0,29,4.0,0.0
288,47.0,0,29,15.0,0.0
289,47.0,30,29,7.0,0.0
290,35.0,0,29,8.0,0.0
291,59.0,0,59,3.0,0.0
292,45.0,0,239,14.0,0.0
293,60.0,0,29,4.0,0.0
294,64.0,0,239,12.0,0.0
295,48.0,0,29,7.0,0.0
296,64.0,0,239,1.0,0.0
297,69.0,0,239,2.0,0.0
298,76.0,30,239,2.0,0.0
299,36.0,0,29,8.0,0.0
300,64.0,0,239,3.0,0.0
301,60.0,30,29,5.0,0.0
302,60.0,0,29,6.0,0.0
303,48.0,0,29,15.0,0.0
304,61.0,0,29,5.0,0.0
305,61.0,0,29,4.0,0.0
306,37.0,0,29,8.0,0.0
307,49.0,0,29,15.0,0.0
308,49.0,0,29,7.0,0.0
309,61.0,60,29,6.0,0.0
310,64.0,0,59,6.0,0.0
311,64.0,0,59,5.0,0.0
312,40.0,0,59,8.0,0.0
313,64.0,0,59,4.0,0.0
314,52.0,0,59,15.0,0.0
315,52.0,30,59,7.0,0.0
316,52.0,0,29,7.0,0.0
317,64.0,0,29,6.0,0.0
318,40.0,0,29,8.0,0.0
319,64.0,0,29,4.0,0.0
320,64.0,0,29,5.0,0.0
321,52.0,60,29,15.0,0.0
322,52.0,0,29,15.0,0.0
323,40.0,30,29,8.0,0.0
324,64.0,0,29,4.0,0.0
325,52.0,0,29,7.0,0.0
326,64.0,0,29,5.0,0.0
327,64.0,0,29,6.0,0.0
328,64.0,0,29,6.0,0.0
329,64.0,0,29,5.0,0.0
330,64.0,30,179,3.0,0.0
331,52.0,0,29,7.0,0.0
332,64.0,0,29,4.0,0.0
333,57.0,0,239,3.0,0.0
334,64.0,0,179,13.0,0.0
335,57.0,0,239,12.0,0.0
336,64.0,0,179,1.0,0.0
337,52.0,30,29,15.0,0.0
338,57.0,0,239,1.0,0.0
339,40.0,0,29,8.0,0.0
340,61.0,0,29,6.0,0.0
341,49.0,0,29,15.0,0.0
342,61.0,0,29,5.0,0.0
343,37.0,0,29,8.0,0.0
344,49.0,0,29,7.0,0.0
345,61.0,60,29,4.0,0.0
346,60.0,0,59,4.0,0.0
347,60.0,0,59,5.0,0.0
348,36.0,0,59,8.0,0.0
349,48.0,0,59,15.0,0.0
350,48.0,0,59,7.0,0.0
351,60.0,30,59,6.0,0.0
352,60.0,0,29,4.0,0.0
353,48.0,30,29,15.0,0.0
354,60.0,0,29,6.0,0.0
355,48.0,0,29,7.0,0.0
356,60.0,0,29,5.0,0.0
357,36.0,0,29,8.0,0.0
358,60.0,0,29,4.0,0.0
359,48.0,0,29,7.0,0.0
360,60.0,0,29,5.0,0.0
361,62.0,30,59,3.0,0.0
362,48.0,30,29,15.0,0.0
363,60.0,0,29,6.0,0.0
364,62.0,0,59,1.0,0.0
365,62.0,0,59,13.0,0.0
366,36.0,0,29,8.0,0.0
367,48.0,0,29,7.0,0.0
368,76.0,30,239,2.0,0.0
369,69.0,0,239,2.0,0.0
370,60.0,0,29,5.0,0.0
371,60.0,30,29,6.0,0.0
372,60.0,0,179,3.0,0.0
373,60.0,0,179,13.0,0.0
374,45.0,0,239,14.0,0.0
375,36.0,0,29,8.0,0.0
376,48.0,0,29,15.0,0.0
377,60.0,30,179,1.0,0.0
378,60.0,0,29,4.0,0.0
379,61.0,0,29,4.0,0.0
380,61.0,0,29,5.0,0.0
381,49.0,0,29,7.0,0.0
382,49.0,0,29,15.0,0.0
383,61.0,60,29,6.0,0.0
384,37.0,0,29,8.0,0.0
385,40.0,0,59,8.0,0.0
386,64.0,0,59,4.0,0.0
387,64.0,0,59,5.0,0.0
388,64.0,0,59,6.0,0.0
389,52.0,30,59,7.0,0.0
390,52.0,0,59,15.0,0.0
391,64.0,0,29,4.0,0.0
392,64.0,0,29,6.0,0.0
393,40.0,30,29,8.0,0.0
394,64.0,0,29,5.0,0.0
395,52.0,0,29,7.0,0.0
396,52.0,0,29,15.0,0.0
397,52.0,0,29,7.0,0.0
398,40.0,30,29,8.0,0.0
399,64.0,0,29,4.0,0.0
400,64.0,0,29,6.0,0.0
401,59.0,0,59,3.0,0.0
402,52.0,0,29,15.0,0.0
403,64.0,0,29,5.0,0.0
404,59.0,0,59,1.0,0.0
405,59.0,0,59,13.0,0.0
406,40.0,30,29,8.0,0.0
407,64.0,0,29,6.0,0.0
408,64.0,0,29,4.0,0.0
409,57.0,0,179,13.0,0.0
410,52.0,0,29,15.0,0.0
411,57.0,30,179,3.0,0.0
412,64.0,0,29,5.0,0.0
413,57.0,0,179,1.0,0.0
414,52.0,0,29,7.0,0.0
415,61.0,0,29,4.0,0.0
416,37.0,0,29,8.0,0.0
417,49.0,0,29,7.0,0.0
418,61.0,0,29,5.0,0.0
419,61.0,60,29,6.0,0.0
420,49.0,0,29,15.0,0.0
421,36.0,0,59,8.0,0.0
422,48.0,0,59,15.0,0.0
423,60.0,30,59,5.0,0.0
424,48.0,0,59,7.0,0.0
425,60.0,0,59,4.0,0.0
426,60.0,0,59,6.0,0.0
427,60.0,30,29,4.0,0.0
428,60.0,0,29,5.0,0.0
429,48.0,0,29,15.0,0.0
430,48.0,0,29,7.0,0.0
431,36.0,0,29,8.0,0.0
432,60.0,0,29,6.0,0.0
433,60.0,0,29,6.0,0.0
434,36.0,0,29,8.0,0.0
435,60.0,0,29,5.0,0.0
436,55.0,0,59,3.0,0.0
437,60.0,0,29,4.0,0.0
438,55.0,0,59,13.0,0.0
439,48.0,0,29,7.0,0.0
440,55.0,30,59,1.0,0.0
441,48.0,30,29,15.0,0.0
442,50.0,0,29,15.0,0.0
443,53.0,0,239,1.0,0.0
444,50.0,0,29,6.0,0.0
445,74.0,0,239,2.0,0.0
446,50.0,0,239,14.0,0.0
447,62.0,0,29,4.0,0.0
448,62.0,30,239,2.0,0.0
449,38.0,30,29,8.0,0.0
450,50.0,0,29,7.0,0.0
451,53.0,0,239,13.0,0.0
452,62.0,0,29,5.0,0.0
453,53.0,0,239,3.0,0.0
454,63.0,0,29,4.0,0.0
455,51.0,60,29,15.0,0.0
456,39.0,0,29,8.0,0.0
457,51.0,0,29,6.0,0.0
458,51.0,0,29,7.0,0.0
459,63.0,0,29,5.0,0.0
460,53.0,0,59,15.0,0.0
461,65.0,0,59,5.0,0.0
462,41.0,0,59,8.0,0.0
463,65.0,30,59,4.0,0.0
464,53.0,0,59,6.0,0.0
465,53.0,0,59,7.0,0.0
466,53.0,60,29,15.0,0.0
467,53.0,0,29,7.0,0.0
468,65.0,0,29,5.0,0.0
469,53.0,0,29,6.0,0.0
470,65.0,0,29,4.0,0.0
471,41.0,0,29,8.0,0.0
472,53.0,0,29,6.0,0.0
473,65.0,0,29,4.0,0.0
474,53.0,0,29,15.0,0.0
475,65.0,0,29,5.0,0.0
476,41.0,0,29,8.0,0.0
477,53.0,30,29,7.0,0.0
478,65.0,0,179,1.0,0.0
479,53.0,0,29,7.0,0.0
480,65.0,0,29,4.0,0.0
481,53.0,30,29,6.0,0.0
482,65.0,30,179,3.0,0.0
483,65.0,0,29,5.0,0.0
484,41.0,0,29,8.0,0.0
485,65.0,0,179,12.0,0.0
486,50.0,30,239,1.0,0.0
487,53.0,0,29,15.0,0.0
488,50.0,0,239,3.0,0.0
489,50.0,0,239,13.0,0.0
490,63.0,0,29,5.0,0.0
491,63.0,0,29,4.0,0.0
492,51.0,0,29,6.0,0.0
493,39.0,60,29,8.0,0.0
494,51.0,0,29,15.0,0.0
495,51.0,0,29,7.0,0.0
496,50.0,0,59,15.0,0.0
497,50.0,0,59,6.0,0.0
498,62.0,0,59,4.0,0.0
499,62.0,0,59,5.0,0.0
500,38.0,30,59,8.0,0.0
501,50.0,0,59,7.0,0.0
502,50.0,30,29,15.0,0.0
503,50.0,0,29,6.0,0.0
504,50.0,0,29,7.0,0.0
505,38.0,0,29,8.0,0.0
506,62.0,0,29,4.0,0.0
507,62.0,0,29,5.0,0.0
508,50.0,0,29,15.0,0.0
509,50.0,0,29,6.0,0.0
510,50.0,0,29,7.0,0.0
511,64.0,0,59,1.0,0.0
512,64.0,0,59,12.0,0.0
513,38.0,0,29,8.0,0.0
514,64.0,0,59,3.0,0.0
515,62.0,0,29,5.0,0.0
516,62.0,30,29,4.0,0.0
517,62.0,0,29,4.0,0.0
518,50.0,30,29,6.0,0.0
519,50.0,0,29,15.0,0.0
520,50.0,30,239,14.0,0.0
521,62.0,0,239,2.0,0.0
522,69.0,0,239,2.0,0.0
523,62.0,0,29,5.0,0.0
524,50.0,0,29,7.0,0.0
525,38.0,0,29,8.0,0.0
526,62.0,0,179,3.0,0.0
527,62.0,30,179,1.0,0.0
528,62.0,0,179,12.0,0.0
529,51.0,0,29,15.0,0.0
530,51.0,0,29,6.0,0.0
531,63.0,0,29,4.0,0.0
532,51.0,0,29,7.0,0.0
533,63.0,0,29,5.0,0.0
534,39.0,60,29,8.0,0.0
535,41.0,0,59,8.0,0.0
536,53.0,0,59,15.0,0.0
537,65.0,0,59,4.0,0.0
538,53.0,30,59,6.0,0.0
539,65.0,0,59,5.0,0.0
540,53.0,0,59,7.0,0.0
541,53.0,0,29,6.0,0.0
542,53.0,0,29,15.0,0.0
543,65.0,0,29,5.0,0.0
544,41.0,30,29,8.0,0.0
545,65.0,0,29,4.0,0.0
546,53.0,0,29,7.0,0.0
547,60.0,0,59,12.0,0.0
548,53.0,0,29,6.0,0.0
549,60.0,0,59,3.0,0.0
550,53.0,30,29,15.0,0.0
551,65.0,0,29,5.0,0.0
552,53.0,0,29,7.0,0.0
553,41.0,0,29,8.0,0.0
554,60.0,0,59,1.0,0.0
555,65.0,0,29,4.0,0.0
556,59.0,0,179,12.0,0.0
557,65.0,0,29,5.0,0.0
558,53.0,0,29,15.0,0.0
559,53.0,0,29,6.0,0.0
560,62.0,0,179,13.0,0.0
561,62.0,0,179,3.0,0.0
562,62.0,0,179,1.0,0.0
563,53.0,30,29,7.0,0.0
564,41.0,0,29,8.0,0.0
565,65.0,0,29,4.0,0.0
566,59.0,30,179,3.0,0.0
567,59.0,0,179,1.0,0.0
568,51.0,0,29,15.0,0.0
569,63.0,0,29,4.0,0.0
570,51.0,0,29,7.0,0.0
571,63.0,0,29,5.0,0.0
572,39.0,0,29,8.0,0.0
573,51.0,60,29,6.0,0.0
574,62.0,0,59,5.0,0.0
575,50.0,0,59,6.0,0.0
576,38.0,0,59,8.0,0.0
577,50.0,0,59,7.0,0.0
578,50.0,0,59,15.0,0.0
579,62.0,30,59,4.0,0.0
580,50.0,30,29,7.0,0.0
581,50.0,0,29,6.0,0.0
582,50.0,0,29,15.0,0.0
583,62.0,0,29,5.0,0.0
584,62.0,0,29,4.0,0.0
585,38.0,0,29,8.0,0.0
586,50.0,0,29,6.0,0.0
587,57.0,0,59,3.0,0.0
588,62.0,0,29,5.0,0.0
589,50.0,0,29,7.0,0.0
590,57.0,0,59,12.0,0.0
591,38.0,0,29,8.0,0.0
592,62.0,0,29,4.0,0.0
593,62.0,0,59,13.0,0.0
594,57.0,0,59,1.0,0.0
595,62.0,30,59,1.0,0.0
596,62.0,0,59,3.0,0.0
597,50.0,30,29,15.0,0.0
598,52.0,0,29,7.0,0.0
599,52.0,30,29,15.0,0.0
600,64.0,0,29,4.0,0.0
601,62.0,0,179,1.0,0.0
602,56.0,0,179,3.0,0.0
603,62.0,30,179,3.0,0.0
604,76.0,30,239,2.0,0.0
605,56.0,0,179,1.0,0.0
606,52.0,0,29,6.0,0.0
607,64.0,0,29,5.0,0.0
608,62.0,0,179,13.0,0.0
609,40.0,0,29,8.0,0.0
610,56.0,0,179,12.0,0.0
611,56.0,0,29,7.0,0.0
612,68.0,0,29,4.0,0.0
613,68.0,0,29,5.0,0.0
614,56.0,0,29,15.0,0.0
615,56.0,0,29,6.0,0.0
616,44.0,60,29,8.0,0.0
617,59.0,0,59,15.0,0.0
618,47.0,0,59,8.0,0.0
619,59.0,0,59,6.0,0.0
620,71.0,30,59,4.0,0.0
621,71.0,0,59,5.0,0.0
622,59.0,0,59,7.0,0.0
623,59.0,0,29,6.0,0.0
624,59.0,0,29,15.0,0.0
625,71.0,0,29,4.0,0.0
626,47.0,0,29,8.0,0.0
627,59.0,0,29,7.0,0.0
628,71.0,30,29,5.0,0.0
629,71.0,0,29,4.0,0.0
630,52.0,0,59,13.0,0.0
631,59.0,0,29,7.0,0.0
632,52.0,0,59,12.0,0.0
633,59.0,30,29,6.0,0.0
634,59.0,0,29,15.0,0.0
635,47.0,0,29,8.0,0.0
636,52.0,0,59,1.0,0.0
637,71.0,0,29,5.0,0.0
638,52.0,0,59,3.0,0.0
639,62.0,0,179,3.0,0.0
640,56.0,0,179,3.0,0.0
641,71.0,0,29,5.0,0.0
642,47.0,0,29,8.0,0.0
643,59.0,0,29,15.0,0.0
644,71.0,30,29,4.0,0.0
645,56.0,30,179,13.0,0.0
646,62.0,0,179,1.0,0.0
647,56.0,0,179,1.0,0.0
648,62.0,0,179,12.0,0.0
649,59.0,0,29,7.0,0.0
650,59.0,0,29,6.0,0.0
651,56.0,60,29,7.0,0.0
652,44.0,0,29,8.0,0.0
653,68.0,0,29,5.0,0.0
654,68.0,0,29,4.0,0.0
655,56.0,0,29,15.0,0.0
656,56.0,0,29,6.0,0.0
657,40.0,30,59,8.0,0.0
658,52.0,0,59,15.0,0.0
659,64.0,0,59,5.0,0.0
660,64.0,0,59,4.0,0.0
661,52.0,0,59,7.0,0.0
662,52.0,0,59,6.0,0.0
663,40.0,0,29,8.0,0.0
664,64.0,0,29,4.0,0.0
665,52.0,0,29,7.0,0.0
666,52.0,0,29,15.0,0.0
667,64.0,0,29,5.0,0.0
668,52.0,30,29,6.0,0.0
669,64.0,30,29,5.0,0.0
670,40.0,0,29,8.0,0.0
671,62.0,0,59,3.0,0.0
672,64.0,0,29,4.0,0.0
673,52.0,0,29,6.0,0.0
674,62.0,0,59,12.0,0.0
675,52.0,0,59,3.0,0.0
676,52.0,0,29,7.0,0.0
677,52.0,0,29,15.0,0.0
678,52.0,0,59,13.0,0.0
679,62.0,0,59,1.0,0.0
680,52.0,30,59,1.0,0.0
681,60.0,0,179,13.0,0.0
682,45.0,0,239,14.0,0.0
683,60.0,0,179,3.0,0.0
684,69.0,0,239,2.0,0.0
685,52.0,30,29,7.0,0.0
686,64.0,0,29,5.0,0.0
687,64.0,0,29,4.0,0.0
688,63.0,0,179,12.0,0.0
689,63.0,0,179,3.0,0.0
690,52.0,0,29,6.0,0.0
691,52.0,0,29,15.0,0.0
692,60.0,30,179,1.0,0.0
693,40.0,0,29,8.0,0.0
694,63.0,0,179,1.0,0.0
695,69.0,0,29,5.0,0.0
696,57.0,0,29,6.0,0.0
697,57.0,0,29,7.0,0.0
698,69.0,0,29,4.0,0.0
699,45.0,0,29,8.0,0.0
700,57.0,60,29,15.0,0.0
701,60.0,0,59,6.0,0.0
702,48.0,0,59,8.0,0.0
703,60.0,0,59,15.0,0.0
704,72.0,0,59,4.0,0.0
705,60.0,30,59,7.0,0.0
706,72.0,0,59,5.0,0.0
707,60.0,0,29,6.0,0.0
708,72.0,0,29,4.0,0.0
709,72.0,0,29,5.0,0.0
710,48.0,0,29,8.0,0.0
711,60.0,0,29,15.0,0.0
712,60.0,30,29,7.0,0.0
713,60.0,0,29,15.0,0.0
714,60.0,0,29,6.0,0.0
715,72.0,0,29,4.0,0.0
716,57.0,0,59,3.0,0.0
717,48.0,30,29,8.0,0.0
718,63.0,0,59,3.0,0.0
719,63.0,0,59,1.0,0.0
720,57.0,30,59,1.0,0.0
721,60.0,0,29,7.0,0.0
722,57.0,0,59,13.0,0.0
723,72.0,0,29,5.0,0.0
724,63.0,0,59,12.0,0.0
725,63.0,0,179,12.0,0.0
726,60.0,0,29,15.0,0.0
727,63.0,0,179,3.0,0.0
728,72.0,0,29,5.0,0.0
729,60.0,30,179,13.0,0.0
730,60.0,0,29,6.0,0.0
731,72.0,0,29,4.0,0.0
732,48.0,30,29,8.0,0.0
733,60.0,0,179,3.0,0.0
734,63.0,0,179,1.0,0.0
735,60.0,0,179,1.0,0.0
736,60.0,0,29,7.0,0.0
737,57.0,0,29,15.0,0.0
738,57.0,60,29,6.0,0.0
739,69.0,0,29,5.0,0.0
740,45.0,0,29,8.0,0.0
741,69.0,0,29,4.0,0.0
742,57.0,0,29,7.0,0.0
743,52.0,30,59,6.0,0.0
744,52.0,0,59,15.0,0.0
745,40.0,0,59,8.0,0.0
746,52.0,0,59,7.0,0.0
747,64.0,0,59,4.0,0.0
748,64.0,0,59,5.0,0.0
749,40.0,30,29,8.0,0.0
750,64.0,0,29,4.0,0.0
751,52.0,0,29,7.0,0.0
752,52.0,0,29,15.0,0.0
753,64.0,0,29,5.0,0.0
754,52.0,0,29,6.0,0.0
755,52.0,0,29,6.0,0.0
756,57.0,0,59,3.0,0.0
757,64.0,0,29,5.0,0.0
758,64.0,0,29,4.0,0.0
759,63.0,120,59,12.0,0.0
760,57.0,0,59,1.0,0.0
761,52.0,0,29,15.0,0.0
762,40.0,0,29,8.0,0.0
763,63.0,0,59,1.0,0.0
764,52.0,30,29,7.0,0.0
765,57.0,0,59,13.0,0.0
766,63.0,0,59,3.0,0.0
767,56.0,0,239,3.0,0.0
768,76.0,0,239,2.0,0.0
769,71.0,0,119,4.0,0.0
770,40.0,0,119,8.0,0.0
771,64.0,0,119,4.0,0.0
772,71.0,0,119,5.0,0.0
773,56.0,0,119,6.0,0.0
774,76.0,0,119,4.0,0.0
775,56.0,120,239,1.0,0.0
776,64.0,0,239,1.0,0.0
777,76.0,0,119,5.0,0.0
778,64.0,120,119,5.0,0.0
779,56.0,0,239,13.0,0.0
780,52.0,0,119,7.0,0.0
781,64.0,0,239,3.0,0.0
782,52.0,0,119,15.0,0.0
783,64.0,0,239,12.0,0.0
784,64.0,0,119,6.0,0.0
785,64.0,0,119,5.0,0.0
786,64.0,0,119,4.0,0.0
787,40.0,120,119,8.0,0.0
788,52.0,0,119,15.0,0.0
789,52.0,0,119,7.0,0.0
790,67.0,0,239,0.0,0.0
791,52.0,120,239,13.0,0.0
792,67.0,0,239,1.0,0.0
793,52.0,0,239,12.0,0.0
794,64.0,0,239,1.0,0.0
795,64.0,0,119,4.0,0.0
796,64.0,0,119,5.0,0.0
797,52.0,0,119,6.0,0.0
798,39.0,120,119,8.0,0.0
799,51.0,0,119,7.0,0.0
800,66.0,0,239,1.0,0.0
801,51.0,0,119,15.0,0.0
802,69.0,0,239,0.0,0.0
803,63.0,0,239,1.0,0.0
804,66.0,0,239,0.0,0.0
805,51.0,0,119,6.0,0.0
806,63.0,120,119,4.0,0.0
807,63.0,0,119,5.0,0.0
808,38.0,0,119,8.0,0.0
809,71.0,0,239,0.0,0.0
810,65.0,0,239,1.0,0.0
811,50.0,120,119,7.0,0.0
812,62.0,0,239,1.0,0.0
813,65.0,0,239,0.0,0.0
814,50.0,0,119,15.0,0.0
815,62.0,0,119,5.0,0.0
816,50.0,120,119,6.0,0.0
817,62.0,0,119,4.0,0.0
818,72.0,0,239,0.0,0.0
819,48.0,0,239,7.0,0.0
820,48.0,0,239,15.0,0.0
821,76.0,120,839,10.0,0.0
822,72.0,0,839,11.0,0.0
823,60.0,120,239,1.0,0.0
824,64.0,0,239,0.0,0.0
825,64.0,0,239,1.0,0.0
826,60.0,0,119,4.0,0.0
827,36.0,0,239,8.0,0.0
828,48.0,0,239,6.0,0.0
829,60.0,60,119,5.0,0.0
830,64.0,60,59,4.0,0.0
831,64.0,0,59,5.0,0.0
832,67.0,0,59,4.0,0.0
833,67.0,0,59,5.0,0.0
834,72.0,120,119,4.0,0.0
835,72.0,0,119,5.0,0.0
836,71.0,0,119,4.0,0.0
837,71.0,120,119,5.0,0.0
838,69.0,120,119,5.0,0.0
839,69.0,0,119,4.0,0.0
840,67.0,0,119,5.0,0.0
841,67.0,120,119,4.0,0.0
842,65.0,0,119,5.0,0.0
843,65.0,0,119,4.0,0.0
844,76.0,120,119,10.0,0.0
845,72.0,0,119,11.0,0.0
846,64.0,0,119,4.0,0.0
847,64.0,0,119,5.0,0.0
848,62.0,60,119,5.0,0.0
849,62.0,0,119,4.0,0.0
850,77.0,0,359,10.0,0.0
851,72.0,120,239,11.0,0.0
852,64.0,60,59,4.0,0.0
853,64.0,0,59,5.0,0.0
854,65.0,0,59,4.0,0.0
855,65.0,0,59,5.0,0.0
856,71.0,0,119,11.0,0.0
857,67.0,0,119,5.0,0.0
858,67.0,120,119,4.0,0.0
859,77.0,0,119,10.0,0.0
860,71.0,0,119,11.0,0.0
861,55.0,120,119,5.0,0.0
862,55.0,0,119,4.0,0.0
863,60.0,60,119,4.0,0.0
864,72.0,0,239,11.0,0.0
865,76.0,0,239,10.0,0.0
866,60.0,0,119,5.0,0.0
867,64.0,0,59,4.0,0.0
868,64.0,60,59,5.0,0.0
869,67.0,120,59,5.0,0.0
870,67.0,0,59,4.0,0.0
871,72.0,60,119,5.0,0.0
872,72.0,0,119,4.0,0.0
873,67.0,60,59,5.0,0.0
874,67.0,0,59,4.0,0.0
875,64.0,0,59,5.0,0.0
876,64.0,120,59,4.0,0.0
877,60.0,0,119,5.0,0.0
878,72.0,0,359,11.0,0.0
879,60.0,60,119,4.0,0.0
880,76.0,0,359,10.0,0.0
881,64.0,60,59,5.0,0.0
882,64.0,0,59,4.0,0.0
883,67.0,120,59,4.0,0.0
884,67.0,0,59,5.0,0.0
885,72.0,0,119,5.0,0.0
886,72.0,120,119,4.0,0.0
887,72.0,0,119,11.0,0.0
888,71.0,0,119,5.0,0.0
889,71.0,0,119,4.0,0.0
890,76.0,120,119,10.0,0.0
891,76.0,120,119,10.0,0.0
892,69.0,0,119,5.0,0.0
893,72.0,0,119,11.0,0.0
894,69.0,0,119,4.0,0.0
895,67.0,0,119,4.0,0.0
896,72.0,120,119,11.0,0.0
897,67.0,0,119,5.0,0.0
898,76.0,0,119,10.0,0.0
899,76.0,0,119,10.0,0.0
900,65.0,120,119,4.0,0.0
901,65.0,0,119,5.0,0.0
902,72.0,0,119,11.0,0.0
903,72.0,0,119,11.0,0.0
904,64.0,120,119,4.0,0.0
905,76.0,0,119,10.0,0.0
906,64.0,0,119,5.0,0.0
907,62.0,60,119,5.0,0.0
908,77.0,30,479,10.0,0.0
909,72.0,0,239,11.0,0.0
910,62.0,0,119,4.0,0.0
911,64.0,60,59,5.0,0.0
912,64.0,0,59,4.0,0.0
913,65.0,0,59,5.0,0.0
914,65.0,120,59,4.0,0.0
915,67.0,0,119,5.0,0.0
916,67.0,120,119,4.0,0.0
917,71.0,0,239,11.0,0.0
918,55.0,0,119,4.0,0.0
919,55.0,0,119,5.0,0.0
920,55.0,0,359,3.0,0.0
921,60.0,30,29,5.0,0.0
922,48.0,0,29,15.0,0.0
923,76.0,0,239,10.0,0.0
924,48.0,0,29,7.0,0.0
925,36.0,0,29,8.0,0.0
926,48.0,0,479,3.0,0.0
927,60.0,0,29,4.0,0.0
928,60.0,30,239,3.0,0.0
929,48.0,0,29,6.0,0.0
930,72.0,0,239,11.0,0.0
931,50.0,0,29,6.0,0.0
932,38.0,0,29,8.0,0.0
933,50.0,0,29,15.0,0.0
934,62.0,60,29,5.0,0.0
935,62.0,0,29,4.0,0.0
936,50.0,0,29,7.0,0.0
937,40.0,0,59,8.0,0.0
938,52.0,0,59,6.0,0.0
939,52.0,0,59,7.0,0.0
940,64.0,0,59,4.0,0.0
941,52.0,30,59,15.0,0.0
942,64.0,0,59,5.0,0.0
943,52.0,0,29,6.0,0.0
944,52.0,0,29,7.0,0.0
945,64.0,0,29,5.0,0.0
946,64.0,0,29,4.0,0.0
947,52.0,0,29,15.0,0.0
948,40.0,60,29,8.0,0.0
949,52.0,0,29,7.0,0.0
950,64.0,0,29,5.0,0.0
951,40.0,0,29,8.0,0.0
952,64.0,0,29,4.0,0.0
953,52.0,30,29,6.0,0.0
954,52.0,0,29,15.0,0.0
955,51.0,30,29,7.0,0.0
956,51.0,0,29,15.0,0.0
957,51.0,0,29,6.0,0.0
958,39.0,0,29,8.0,0.0
959,63.0,0,239,3.0,0.0
960,63.0,0,29,4.0,0.0
961,55.0,0,179,13.0,0.0
962,55.0,30,179,1.0,0.0
963,63.0,0,29,5.0,0.0
964,50.0,0,29,7.0,0.0
965,50.0,0,29,15.0,0.0
966,62.0,0,29,4.0,0.0
967,38.0,0,29,8.0,0.0
968,62.0,0,29,5.0,0.0
969,50.0,60,29,6.0,0.0
970,60.0,0,59,4.0,0.0
971,48.0,0,59,7.0,0.0
972,48.0,0,59,15.0,0.0
973,60.0,0,59,5.0,0.0
974,48.0,0,59,6.0,0.0
975,36.0,30,59,8.0,0.0
976,36.0,0,29,8.0,0.0
977,48.0,0,29,7.0,0.0
978,48.0,0,29,15.0,0.0
979,60.0,0,29,5.0,0.0
980,48.0,0,29,6.0,0.0
981,60.0,30,29,4.0,0.0
982,60.0,30,119,3.0,0.0
983,60.0,0,29,5.0,0.0
984,60.0,0,29,4.0,0.0
985,48.0,0,29,7.0,0.0
986,60.0,0,59,13.0,0.0
987,48.0,0,29,6.0,0.0
988,36.0,30,29,8.0,0.0
989,48.0,0,29,15.0,0.0
990,60.0,0,59,1.0,0.0
991,55.0,0,29,7.0,0.0
992,55.0,30,29,15.0,0.0
993,59.0,30,239,13.0,0.0
994,62.0,30,359,3.0,0.0
995,59.0,0,239,1.0,0.0
996,59.0,0,239,3.0,0.0
997,55.0,0,29,4.0,0.0
998,55.0,0,29,6.0,0.0
999,43.0,0,29,8.0,0.0
1000,55.0,0,479,3.0,0.0
1001,55.0,0,29,5.0,0.0
1002,57.0,0,29,7.0,0.0
1003,57.0,60,29,15.0,0.0
1004,45.0,0,29,8.0,0.0
1005,57.0,0,29,5.0,0.0
1006,57.0,0,29,4.0,0.0
1007,57.0,0,29,6.0,0.0
1008,59.0,0,59,5.0,0.0
1009,59.0,30,59,6.0,0.0
1010,59.0,0,59,15.0,0.0
1011,59.0,0,59,4.0,0.0
1012,47.0,0,59,8.0,0.0
1013,59.0,0,59,7.0,0.0
1014,59.0,0,29,4.0,0.0
1015,47.0,0,29,8.0,0.0
1016,59.0,0,29,5.0,0.0
1017,59.0,0,29,15.0,0.0
1018,59.0,0,29,7.0,0.0
1019,59.0,60,29,6.0,0.0
1020,59.0,0,29,6.0,0.0
1021,59.0,30,29,15.0,0.0
1022,59.0,0,29,5.0,0.0
1023,59.0,0,29,7.0,0.0
1024,47.0,0,29,8.0,0.0
1025,59.0,0,29,4.0,0.0
1026,58.0,0,239,3.0,0.0
1027,55.0,0,239,13.0,0.0
1028,58.0,0,29,4.0,0.0
1029,55.0,30,239,1.0,0.0
1030,46.0,0,29,8.0,0.0
1031,58.0,0,29,6.0,0.0
1032,58.0,30,29,5.0,0.0
1033,62.0,30,179,12.0,0.0
1034,62.0,0,179,1.0,0.0
1035,58.0,0,29,7.0,0.0
1036,58.0,0,29,15.0,0.0
1037,45.0,0,29,8.0,0.0
1038,57.0,0,29,5.0,0.0
1039,57.0,60,29,4.0,0.0
1040,57.0,0,29,6.0,0.0
1041,57.0,0,29,15.0,0.0
1042,57.0,0,29,7.0,0.0
1043,55.0,0,59,7.0,0.0
1044,43.0,0,59,8.0,0.0
1045,55.0,0,59,15.0,0.0
1046,55.0,0,59,5.0,0.0
1047,55.0,0,59,6.0,0.0
1048,55.0,0,59,4.0,0.0
1049,55.0,0,29,15.0,0.0
1050,55.0,0,29,4.0,0.0
1051,55.0,30,29,7.0,0.0
1052,55.0,0,29,5.0,0.0
1053,55.0,0,29,6.0,0.0
1054,43.0,0,29,8.0,0.0
1055,67.0,0,119,3.0,0.0
1056,55.0,0,29,6.0,0.0
1057,55.0,0,29,5.0,0.0
1058,55.0,0,29,4.0,0.0
1059,67.0,0,59,1.0,0.0
1060,43.0,0,29,8.0,0.0
1061,67.0,0,59,12.0,0.0
1062,55.0,0,29,15.0,0.0
1063,55.0,30,29,7.0,0.0
1064,66.0,0,239,1.0,0.0
1065,62.0,30,29,4.0,0.0
1066,57.0,0,359,3.0,0.0
1067,74.0,0,239,2.0,0.0
1068,62.0,30,239,2.0,0.0
1069,66.0,0,239,3.0,0.0
1070,66.0,0,239,12.0,0.0
1071,62.0,0,29,7.0,0.0
1072,62.0,0,29,15.0,0.0
1073,62.0,0,29,5.0,0.0
1074,50.0,0,479,3.0,0.0
1075,50.0,0,29,8.0,0.0
1076,50.0,0,239,14.0,0.0
1077,62.0,0,29,6.0,0.0
1078,64.0,0,29,4.0,0.0
1079,64.0,0,29,7.0,0.0
1080,64.0,0,29,5.0,0.0
1081,64.0,0,29,6.0,0.0
1082,52.0,60,29,8.0,0.0
1083,64.0,0,29,15.0,0.0
1084,54.0,0,59,8.0,0.0
1085,66.0,0,59,4.0,0.0
1086,66.0,30,59,5.0,0.0
1087,66.0,0,59,6.0,0.0
1088,66.0,0,59,7.0,0.0
1089,66.0,0,59,15.0,0.0
1090,66.0,0,29,4.0,0.0
1091,66.0,60,29,15.0,0.0
1092,54.0,0,29,8.0,0.0
1093,66.0,0,29,5.0,0.0
1094,66.0,0,29,6.0,0.0
1095,66.0,0,29,7.0,0.0
1096,66.0,0,29,4.0,0.0
1097,54.0,30,29,8.0,0.0
1098,66.0,0,29,7.0,0.0
1099,66.0,0,29,15.0,0.0
1100,66.0,0,29,5.0,0.0
1101,66.0,0,29,6.0,0.0
1102,62.0,30,239,12.0,0.0
1103,65.0,0,29,7.0,0.0
1104,57.0,30,179,1.0,0.0
1105,65.0,30,29,4.0,0.0
1106,65.0,0,29,6.0,0.0
1107,57.0,0,179,13.0,0.0
1108,53.0,0,29,8.0,0.0
1109,65.0,0,29,15.0,0.0
1110,65.0,0,29,5.0,0.0
1111,64.0,0,29,15.0,0.0
1112,64.0,60,29,5.0,0.0
1113,64.0,0,29,7.0,0.0
1114,64.0,0,29,4.0,0.0
1115,52.0,0,29,8.0,0.0
1116,64.0,0,29,6.0,0.0
1117,50.0,0,59,8.0,0.0
1118,62.0,0,59,15.0,0.0
1119,62.0,0,59,6.0,0.0
1120,62.0,0,59,7.0,0.0
1121,62.0,30,59,4.0,0.0
1122,62.0,0,59,5.0,0.0
1123,62.0,30,29,5.0,0.0
1124,50.0,0,29,8.0,0.0
1125,62.0,0,29,15.0,0.0
1126,62.0,0,119,3.0,0.0
1127,62.0,0,29,4.0,0.0
1128,62.0,0,29,7.0,0.0
1129,62.0,0,29,6.0,0.0
1130,62.0,0,29,15.0,0.0
1131,62.0,0,29,6.0,0.0
1132,62.0,0,59,1.0,0.0
1133,62.0,30,29,7.0,0.0
1134,62.0,0,59,13.0,0.0
1135,62.0,0,29,5.0,0.0
1136,62.0,0,29,4.0,0.0
1137,50.0,0,29,8.0,0.0
1138,57.0,0,479,3.0,0.0
1139,69.0,0,239,2.0,0.0
1140,61.0,0,239,3.0,0.0
1141,57.0,0,29,7.0,0.0
1142,61.0,0,239,1.0,0.0
1143,45.0,30,239,14.0,0.0
1144,57.0,0,29,15.0,0.0
1145,65.0,0,359,3.0,0.0
1146,61.0,0,239,13.0,0.0
1147,45.0,0,29,8.0,0.0
1148,57.0,0,29,4.0,0.0
1149,57.0,30,29,5.0,0.0
1150,57.0,0,29,6.0,0.0
1151,57.0,0,239,2.0,0.0
1152,47.0,0,29,8.0,0.0
1153,59.0,0,29,7.0,0.0
1154,59.0,60,29,15.0,0.0
1155,59.0,0,29,4.0,0.0
1156,59.0,0,29,5.0,0.0
1157,59.0,0,29,6.0,0.0
1158,61.0,0,59,7.0,0.0
1159,61.0,0,59,4.0,0.0
1160,61.0,0,59,15.0,0.0
1161,61.0,30,59,6.0,0.0
1162,49.0,0,59,8.0,0.0
1163,61.0,0,59,5.0,0.0
1164,61.0,0,29,15.0,0.0
1165,49.0,0,29,8.0,0.0
1166,61.0,0,29,5.0,0.0
1167,61.0,0,29,6.0,0.0
1168,61.0,60,29,7.0,0.0
1169,61.0,0,29,4.0,0.0
1170,61.0,0,29,7.0,0.0
1171,61.0,30,29,15.0,0.0
1172,61.0,0,29,6.0,0.0
1173,61.0,0,29,5.0,0.0
1174,49.0,0,29,8.0,0.0
1175,61.0,0,29,4.0,0.0
1176,60.0,0,29,4.0,0.0
1177,60.0,0,29,15.0,0.0
1178,60.0,0,29,5.0,0.0
1179,64.0,30,179,1.0,0.0
1180,57.0,0,239,1.0,0.0
1181,48.0,0,29,8.0,0.0
1182,60.0,30,29,6.0,0.0
1183,60.0,0,29,7.0,0.0
1184,64.0,0,179,12.0,0.0
1185,57.0,0,239,13.0,0.0
1186,60.0,30,239,3.0,0.0
1187,47.0,0,29,8.0,0.0
1188,59.0,0,29,4.0,0.0
1189,59.0,0,29,15.0,0.0
1190,59.0,0,29,5.0,0.0
1191,59.0,60,29,6.0,0.0
1192,59.0,0,29,7.0,0.0
1193,45.0,0,59,8.0,0.0
1194,57.0,0,59,4.0,0.0
1195,57.0,0,59,7.0,0.0
1196,57.0,30,59,6.0,0.0
1197,57.0,0,59,15.0,0.0
1198,57.0,0,59,5.0,0.0
1199,57.0,0,29,4.0,0.0
1200,57.0,30,29,15.0,0.0
1201,57.0,0,29,5.0,0.0
1202,69.0,0,119,3.0,0.0
1203,57.0,0,29,6.0,0.0
1204,45.0,0,29,8.0,0.0
1205,57.0,0,29,7.0,0.0
1206,69.0,0,59,12.0,0.0
1207,57.0,0,29,7.0,0.0
1208,57.0,0,29,15.0,0.0
1209,69.0,0,59,1.0,0.0
1210,57.0,0,29,5.0,0.0
1211,57.0,30,29,6.0,0.0
1212,57.0,0,29,4.0,0.0
1213,45.0,0,29,8.0,0.0
1214,64.0,0,29,6.0,0.0
1215,64.0,0,29,5.0,0.0
1216,59.0,30,359,3.0,0.0
1217,64.0,0,29,15.0,0.0
1218,52.0,0,479,3.0,0.0
1219,64.0,0,29,7.0,0.0
1220,52.0,30,29,8.0,0.0
1221,76.0,0,239,2.0,0.0
1222,64.0,0,29,4.0,0.0
1223,68.0,0,239,3.0,0.0
1224,68.0,30,239,1.0,0.0
1225,68.0,0,239,12.0,0.0
1226,66.0,0,29,15.0,0.0
1227,66.0,0,29,4.0,0.0
1228,66.0,0,29,5.0,0.0
1229,54.0,0,29,8.0,0.0
1230,66.0,0,29,7.0,0.0
1231,66.0,60,29,6.0,0.0
1232,68.0,0,59,7.0,0.0
1233,56.0,0,59,8.0,0.0
1234,68.0,0,59,6.0,0.0
1235,68.0,0,59,15.0,0.0
1236,68.0,0,59,4.0,0.0
1237,68.0,30,59,5.0,0.0
1238,68.0,0,29,7.0,0.0
1239,68.0,60,29,15.0,0.0
1240,68.0,0,29,4.0,0.0
1241,56.0,0,29,8.0,0.0
1242,68.0,0,29,6.0,0.0
1243,68.0,0,29,5.0,0.0
1244,56.0,30,29,8.0,0.0
1245,68.0,0,29,7.0,0.0
1246,68.0,0,29,5.0,0.0
1247,68.0,0,29,4.0,0.0
1248,68.0,0,29,6.0,0.0
1249,68.0,0,29,15.0,0.0
1250,59.0,0,179,1.0,0.0
1251,67.0,30,29,7.0,0.0
1252,64.0,0,239,12.0,0.0
1253,67.0,0,29,6.0,0.0
1254,55.0,0,29,8.0,0.0
1255,59.0,30,179,13.0,0.0
1256,67.0,0,29,15.0,0.0
1257,67.0,0,29,4.0,0.0
1258,67.0,0,29,5.0,0.0
1259,66.0,0,29,15.0,0.0
1260,54.0,0,29,8.0,0.0
1261,66.0,0,29,4.0,0.0
1262,66.0,0,29,6.0,0.0
1263,66.0,0,29,7.0,0.0
1264,66.0,60,29,5.0,0.0
1265,64.0,0,59,15.0,0.0
1266,64.0,0,59,4.0,0.0
1267,64.0,0,59,5.0,0.0
1268,64.0,0,59,6.0,0.0
1269,64.0,0,59,7.0,0.0
1270,52.0,0,59,8.0,0.0
1271,64.0,30,29,4.0,0.0
1272,64.0,0,29,7.0,0.0
1273,64.0,0,29,6.0,0.0
1274,64.0,0,29,5.0,0.0
1275,52.0,0,29,8.0,0.0
1276,64.0,0,29,15.0,0.0
1277,64.0,0,119,3.0,0.0
1278,64.0,0,29,6.0,0.0
1279,64.0,0,29,15.0,0.0
1280,64.0,0,29,4.0,0.0
1281,52.0,30,29,8.0,0.0
1282,64.0,0,29,5.0,0.0
1283,64.0,0,29,7.0,0.0
1284,64.0,0,59,13.0,0.0
1285,64.0,0,59,1.0,0.0
1286,57.0,0,239,2.0,0.0
1287,57.0,0,29,7.0,0.0
1288,57.0,0,29,6.0,0.0
1289,64.0,30,179,1.0,0.0
1290,69.0,30,239,2.0,0.0
1291,65.0,30,359,12.0,0.0
1292,65.0,0,239,1.0,0.0
1293,45.0,0,239,14.0,0.0
1294,64.0,0,179,13.0,0.0
1295,64.0,0,239,3.0,0.0
1296,57.0,0,29,15.0,0.0
1297,57.0,0,29,4.0,0.0
1298,45.0,30,29,8.0,0.0
1299,57.0,0,239,3.0,0.0
1300,65.0,0,359,3.0,0.0
1301,57.0,0,29,5.0,0.0
1302,59.0,60,29,6.0,0.0
1303,59.0,0,29,7.0,0.0
1304,59.0,0,29,5.0,0.0
1305,47.0,0,29,8.0,0.0
1306,59.0,0,29,4.0,0.0
1307,59.0,0,29,15.0,0.0
1308,60.0,0,59,5.0,0.0
1309,60.0,30,59,7.0,0.0
1310,60.0,0,59,15.0,0.0
1311,60.0,0,59,6.0,0.0
1312,48.0,0,59,8.0,0.0
1313,60.0,0,59,4.0,0.0
1314,48.0,0,29,8.0,0.0
1315,60.0,0,29,7.0,0.0
1316,60.0,0,29,15.0,0.0
1317,60.0,0,29,6.0,0.0
1318,60.0,30,29,4.0,0.0
1319,60.0,0,29,5.0,0.0
1320,57.0,0,59,13.0,0.0
1321,60.0,0,29,6.0,0.0
1322,48.0,30,29,8.0,0.0
1323,60.0,0,29,15.0,0.0
1324,57.0,0,59,1.0,0.0
1325,60.0,0,29,5.0,0.0
1326,60.0,0,29,4.0,0.0
1327,60.0,0,29,7.0,0.0
1328,59.0,30,29,4.0,0.0
1329,47.0,0,29,8.0,0.0
1330,59.0,0,29,15.0,0.0
1331,59.0,0,29,7.0,0.0
1332,59.0,0,29,6.0,0.0
1333,59.0,0,239,3.0,0.0
1334,62.0,30,179,13.0,0.0
1335,62.0,0,479,3.0,0.0
1336,62.0,0,179,1.0,0.0
1337,59.0,0,29,5.0,0.0
1338,60.0,60,29,4.0,0.0
1339,48.0,0,29,8.0,0.0
1340,60.0,0,29,7.0,0.0
1341,60.0,0,29,5.0,0.0
1342,60.0,0,29,6.0,0.0
1343,60.0,0,29,15.0,0.0
1344,62.0,0,59,5.0,0.0
1345,62.0,0,59,7.0,0.0
1346,62.0,0,59,6.0,0.0
1347,62.0,0,59,4.0,0.0
1348,62.0,0,59,15.0,0.0
1349,50.0,0,59,8.0,0.0
1350,67.0,0,119,3.0,0.0
1351,50.0,0,29,8.0,0.0
1352,62.0,0,29,4.0,0.0
1353,62.0,30,29,5.0,0.0
1354,62.0,0,29,7.0,0.0
1355,67.0,0,119,1.0,0.0
1356,62.0,0,29,6.0,0.0
1357,62.0,0,29,15.0,0.0
1358,67.0,0,119,12.0,0.0
1359,62.0,0,29,15.0,0.0
1360,62.0,0,29,4.0,0.0
1361,62.0,0,59,13.0,0.0
1362,50.0,0,29,8.0,0.0
1363,62.0,30,29,7.0,0.0
1364,62.0,30,59,1.0,0.0
1365,62.0,0,29,6.0,0.0
1366,62.0,0,29,5.0,0.0
1367,60.0,0,29,5.0,0.0
1368,60.0,0,29,4.0,0.0
1369,60.0,0,239,3.0,0.0
1370,62.0,0,179,13.0,0.0
1371,60.0,0,29,15.0,0.0
1372,64.0,0,359,3.0,0.0
1373,60.0,30,29,7.0,0.0
1374,60.0,0,29,6.0,0.0
1375,48.0,0,29,8.0,0.0
1376,64.0,0,179,1.0,0.0
1377,64.0,30,179,12.0,0.0
1378,62.0,0,179,1.0,0.0
1379,62.0,0,29,5.0,0.0
1380,62.0,0,29,15.0,0.0
1381,62.0,60,29,7.0,0.0
1382,50.0,0,29,8.0,0.0
1383,62.0,0,29,4.0,0.0
1384,62.0,0,29,6.0,0.0
1385,52.0,30,59,8.0,0.0
1386,64.0,0,59,5.0,0.0
1387,64.0,0,59,4.0,0.0
1388,64.0,0,59,7.0,0.0
1389,64.0,0,59,6.0,0.0
1390,64.0,0,59,15.0,0.0
1391,64.0,0,29,4.0,0.0
1392,64.0,0,29,7.0,0.0
1393,64.0,0,29,15.0,0.0
1394,52.0,0,29,8.0,0.0
1395,64.0,30,29,5.0,0.0
1396,64.0,0,29,6.0,0.0
1397,64.0,0,29,5.0,0.0
1398,52.0,0,29,8.0,0.0
1399,64.0,0,59,12.0,0.0
1400,64.0,0,59,1.0,0.0
1401,64.0,0,29,4.0,0.0
1402,64.0,30,29,15.0,0.0
1403,64.0,0,29,6.0,0.0
1404,55.0,30,59,13.0,0.0
1405,55.0,0,59,1.0,0.0
1406,64.0,0,29,7.0,0.0
1407,64.0,0,29,7.0,0.0
1408,60.0,0,179,1.0,0.0
1409,64.0,30,179,1.0,0.0
1410,64.0,0,29,5.0,0.0
1411,64.0,0,179,12.0,0.0
1412,64.0,0,29,15.0,0.0
1413,52.0,30,239,3.0,0.0
1414,64.0,0,29,4.0,0.0
1415,52.0,30,29,8.0,0.0
1416,60.0,0,479,3.0,0.0
1417,60.0,0,179,13.0,0.0
1418,64.0,0,29,6.0,0.0
1419,65.0,0,29,4.0,0.0
1420,65.0,0,29,15.0,0.0
1421,65.0,0,29,7.0,0.0
1422,65.0,60,29,5.0,0.0
1423,53.0,0,29,8.0,0.0
1424,65.0,0,29,6.0,0.0
1425,67.0,0,59,4.0,0.0
1426,67.0,0,59,15.0,0.0
1427,67.0,30,59,6.0,0.0
1428,55.0,0,59,8.0,0.0
1429,67.0,0,59,5.0,0.0
1430,67.0,0,59,7.0,0.0
1431,67.0,0,29,6.0,0.0
1432,55.0,0,29,8.0,0.0
1433,67.0,0,29,4.0,0.0
1434,67.0,0,29,7.0,0.0
1435,65.0,0,119,3.0,0.0
1436,67.0,0,29,15.0,0.0
1437,67.0,30,29,5.0,0.0
1438,67.0,0,29,7.0,0.0
1439,67.0,0,29,4.0,0.0
1440,55.0,0,29,8.0,0.0
1441,60.0,0,59,1.0,0.0
1442,67.0,30,29,6.0,0.0
1443,65.0,0,59,12.0,0.0
1444,60.0,0,59,13.0,0.0
1445,67.0,0,29,15.0,0.0
1446,65.0,0,59,1.0,0.0
1447,67.0,0,29,5.0,0.0
1448,62.0,0,179,12.0,0.0
1449,74.0,0,239,2.0,0.0
1450,62.0,30,239,2.0,0.0
1451,54.0,30,29,15.0,0.0
1452,66.0,0,29,5.0,0.0
1453,54.0,0,239,3.0,0.0
1454,50.0,0,239,14.0,0.0
1455,60.0,30,179,13.0,0.0
1456,42.0,0,29,8.0,0.0
1457,66.0,0,29,4.0,0.0
1458,62.0,0,359,3.0,0.0
1459,54.0,0,29,7.0,0.0
1460,54.0,0,29,6.0,0.0
1461,60.0,0,179,1.0,0.0
1462,62.0,0,179,1.0,0.0
1463,67.0,0,29,4.0,0.0
1464,55.0,0,29,7.0,0.0
1465,67.0,0,29,5.0,0.0
1466,43.0,0,29,8.0,0.0
1467,55.0,0,29,6.0,0.0
1468,55.0,60,29,15.0,0.0
1469,45.0,0,59,8.0,0.0
1470,69.0,0,59,5.0,0.0
1471,57.0,0,59,15.0,0.0
1472,69.0,30,59,4.0,0.0
1473,57.0,0,59,7.0,0.0
1474,57.0,0,59,6.0,0.0
1475,57.0,30,29,15.0,0.0
1476,69.0,0,29,5.0,0.0
1477,45.0,0,29,8.0,0.0
1478,69.0,0,29,4.0,0.0
1479,57.0,0,29,7.0,0.0
1480,57.0,0,29,6.0,0.0
1481,54.0,0,59,1.0,0.0
1482,54.0,0,59,13.0,0.0
1483,57.0,30,29,7.0,0.0
1484,62.0,0,59,1.0,0.0
1485,69.0,0,29,5.0,0.0
1486,45.0,0,29,8.0,0.0
1487,57.0,0,29,15.0,0.0
1488,62.0,0,59,12.0,0.0
1489,57.0,0,29,6.0,0.0
1490,69.0,0,29,4.0,0.0
1491,68.0,0,29,4.0,0.0
1492,59.0,0,179,13.0,0.0
1493,56.0,0,29,15.0,0.0
1494,68.0,0,29,5.0,0.0
1495,62.0,0,179,12.0,0.0
1496,56.0,30,29,7.0,0.0
1497,59.0,0,239,3.0,0.0
1498,62.0,30,179,1.0,0.0
1499,56.0,0,239,3.0,0.0
1500,59.0,0,179,1.0,0.0
1501,44.0,0,29,8.0,0.0
1502,56.0,0,29,6.0,0.0
1503,69.0,0,29,5.0,0.0
1504,69.0,0,29,4.0,0.0
1505,57.0,0,29,6.0,0.0
1506,57.0,60,29,15.0,0.0
1507,45.0,0,29,8.0,0.0
1508,57.0,0,29,7.0,0.0
1509,59.0,0,59,6.0,0.0
1510,71.0,0,59,5.0,0.0
1511,59.0,0,59,15.0,0.0
1512,59.0,0,59,7.0,0.0
1513,47.0,30,59,8.0,0.0
1514,71.0,0,59,4.0,0.0
1515,47.0,0,29,8.0,0.0
1516,71.0,0,29,5.0,0.0
1517,71.0,30,29,4.0,0.0
1518,59.0,0,29,6.0,0.0
1519,59.0,0,29,15.0,0.0
1520,64.0,30,119,3.0,0.0
1521,59.0,0,29,7.0,0.0
1522,59.0,0,29,15.0,0.0
1523,64.0,0,59,1.0,0.0
1524,59.0,0,59,13.0,0.0
1525,59.0,0,29,6.0,0.0
1526,71.0,30,29,4.0,0.0
1527,47.0,0,29,8.0,0.0
1528,59.0,0,29,7.0,0.0
1529,59.0,0,59,1.0,0.0
1530,64.0,0,59,12.0,0.0
1531,71.0,0,29,5.0,0.0
1532,69.0,0,29,4.0,0.0
1533,60.0,0,179,12.0,0.0
1534,45.0,0,239,14.0,0.0
1535,57.0,0,179,1.0,0.0
1536,60.0,0,239,3.0,0.0
1537,57.0,30,179,13.0,0.0
1538,57.0,0,29,6.0,0.0
1539,57.0,0,29,15.0,0.0
1540,60.0,0,179,1.0,0.0
1541,57.0,0,29,7.0,0.0
1542,69.0,30,29,5.0,0.0
1543,69.0,0,239,2.0,0.0
1544,57.0,0,239,3.0,0.0
1545,57.0,0,239,2.0,0.0
1546,45.0,0,29,8.0,0.0
1547,59.0,0,29,15.0,0.0
1548,47.0,0,29,8.0,0.0
1549,59.0,0,29,6.0,0.0
1550,71.0,0,29,4.0,0.0
1551,71.0,0,29,5.0,0.0
1552,59.0,60,29,7.0,0.0
1553,60.0,0,59,7.0,0.0
1554,72.0,0,59,5.0,0.0
1555,60.0,0,59,15.0,0.0
1556,48.0,0,59,8.0,0.0
1557,60.0,30,59,6.0,0.0
1558,72.0,0,59,4.0,0.0
1559,60.0,0,29,15.0,0.0
1560,72.0,0,29,5.0,0.0
1561,48.0,0,29,8.0,0.0
1562,72.0,30,29,4.0,0.0
1563,60.0,0,29,6.0,0.0
1564,60.0,0,29,7.0,0.0
1565,72.0,0,29,5.0,0.0
1566,48.0,30,29,8.0,0.0
1567,60.0,0,59,1.0,0.0
1568,57.0,0,59,1.0,0.0
1569,60.0,30,59,12.0,0.0
1570,60.0,0,29,6.0,0.0
1571,72.0,0,29,4.0,0.0
1572,60.0,0,29,7.0,0.0
1573,57.0,0,59,13.0,0.0
1574,60.0,0,29,15.0,0.0
1575,55.0,0,239,3.0,0.0
1576,61.0,30,179,13.0,0.0
1577,58.0,0,179,1.0,0.0
1578,55.0,0,29,6.0,0.0
1579,43.0,0,29,8.0,0.0
1580,55.0,0,29,15.0,0.0
1581,61.0,0,239,3.0,0.0
1582,58.0,0,179,12.0,0.0
1583,60.0,0,179,1.0,0.0
1584,58.0,30,239,3.0,0.0
1585,67.0,0,29,5.0,0.0
1586,67.0,0,29,4.0,0.0
1587,55.0,30,29,7.0,0.0
1588,45.0,0,29,8.0,0.0
1589,57.0,0,29,6.0,0.0
1590,57.0,0,29,7.0,0.0
1591,69.0,0,29,4.0,0.0
1592,57.0,60,29,15.0,0.0
1593,69.0,0,29,5.0,0.0
1594,58.0,0,59,6.0,0.0
1595,46.0,30,59,8.0,0.0
1596,70.0,0,59,5.0,0.0
1597,58.0,0,59,15.0,0.0
1598,58.0,0,59,7.0,0.0
1599,70.0,0,59,4.0,0.0
1600,58.0,0,29,6.0,0.0
1601,70.0,0,29,5.0,0.0
1602,46.0,0,29,8.0,0.0
1603,58.0,0,29,15.0,0.0
1604,58.0,30,29,7.0,0.0
1605,70.0,0,29,4.0,0.0
1606,61.0,0,59,13.0,0.0
1607,46.0,30,29,8.0,0.0
1608,70.0,0,29,4.0,0.0
1609,58.0,0,29,7.0,0.0
1610,58.0,0,29,15.0,0.0
1611,58.0,0,59,12.0,0.0
1612,58.0,0,59,1.0,0.0
1613,60.0,0,59,1.0,0.0
1614,70.0,0,29,5.0,0.0
1615,58.0,0,29,6.0,0.0
1616,74.0,0,239,2.0,0.0
1617,66.0,0,29,4.0,0.0
1618,62.0,30,179,13.0,0.0
1619,66.0,0,29,5.0,0.0
1620,62.0,0,239,2.0,0.0
1621,54.0,0,29,7.0,0.0
1622,62.0,0,179,1.0,0.0
1623,62.0,30,239,3.0,0.0
1624,57.0,0,179,12.0,0.0
1625,57.0,0,239,3.0,0.0
1626,54.0,0,29,15.0,0.0
1627,54.0,30,29,6.0,0.0
1628,50.0,0,239,14.0,0.0
1629,42.0,0,29,8.0,0.0
1630,54.0,0,479,3.0,0.0
1631,57.0,0,179,1.0,0.0
1632,67.0,60,29,5.0,0.0
1633,67.0,0,29,4.0,0.0
1634,55.0,0,29,7.0,0.0
1635,43.0,0,29,8.0,0.0
1636,55.0,0,29,6.0,0.0
1637,55.0,0,29,15.0,0.0
1638,45.0,0,59,8.0,0.0
1639,57.0,0,59,7.0,0.0
1640,57.0,0,59,15.0,0.0
1641,69.0,0,59,5.0,0.0
1642,69.0,30,59,4.0,0.0
1643,57.0,0,59,6.0,0.0
1644,57.0,0,29,6.0,0.0
1645,57.0,0,29,7.0,0.0
1646,69.0,0,29,5.0,0.0
1647,45.0,0,29,8.0,0.0
1648,57.0,0,29,15.0,0.0
1649,69.0,30,29,4.0,0.0
1650,62.0,0,59,1.0,0.0
1651,57.0,0,29,7.0,0.0
1652,57.0,0,59,12.0,0.0
1653,45.0,0,29,8.0,0.0
1654,69.0,30,29,5.0,0.0
1655,57.0,0,59,1.0,0.0
1656,62.0,0,59,13.0,0.0
1657,69.0,0,29,4.0,0.0
1658,57.0,0,29,6.0,0.0
1659,57.0,0,29,15.0,0.0
1660,57.0,0,179,3.0,0.0
1661,57.0,0,29,15.0,0.0
1662,57.0,0,29,6.0,0.0
1663,62.0,0,179,12.0,0.0
1664,62.0,0,179,1.0,0.0
1665,57.0,30,179,13.0,0.0
1666,45.0,30,29,8.0,0.0
1667,57.0,0,179,1.0,0.0
1668,69.0,0,29,4.0,0.0
1669,62.0,0,239,3.0,0.0
1670,57.0,0,29,7.0,0.0
1671,69.0,0,29,5.0,0.0
1672,67.0,0,29,4.0,0.0
1673,67.0,0,29,5.0,0.0
1674,55.0,0,29,15.0,0.0
1675,55.0,0,29,7.0,0.0
1676,55.0,60,29,6.0,0.0
1677,43.0,0,29,8.0,0.0
1678,42.0,0,59,8.0,0.0
1679,54.0,0,59,7.0,0.0
1680,54.0,0,59,15.0,0.0
1681,54.0,0,59,6.0,0.0
1682,66.0,30,59,4.0,0.0
1683,66.0,0,59,5.0,0.0
1684,66.0,0,29,4.0,0.0
1685,66.0,30,29,5.0,0.0
1686,54.0,0,29,15.0,0.0
1687,54.0,0,29,6.0,0.0
1688,54.0,0,29,7.0,0.0
1689,42.0,0,29,8.0,0.0
1690,66.0,0,29,5.0,0.0
1691,59.0,0,59,13.0,0.0
1692,54.0,0,29,7.0,0.0
1693,42.0,0,29,8.0,0.0
1694,54.0,0,29,6.0,0.0
1695,62.0,0,59,12.0,0.0
1696,62.0,0,59,1.0,0.0
1697,57.0,30,59,1.0,0.0
1698,66.0,0,29,4.0,0.0
1699,59.0,0,59,3.0,0.0
1700,54.0,30,29,15.0,0.0
1701,63.0,0,179,12.0,0.0
1702,60.0,0,179,13.0,0.0
1703,60.0,0,179,1.0,0.0
1704,63.0,30,179,1.0,0.0
1705,69.0,0,239,2.0,0.0
1706,60.0,0,239,3.0,0.0
1707,63.0,0,479,3.0,0.0
1708,53.0,30,29,15.0,0.0
1709,65.0,0,29,4.0,0.0
1710,53.0,0,29,6.0,0.0
1711,53.0,0,479,3.0,0.0
1712,41.0,0,29,8.0,0.0
1713,45.0,0,239,14.0,0.0
1714,57.0,0,239,2.0,0.0
1715,65.0,0,29,5.0,0.0
1716,53.0,0,29,7.0,0.0
1717,55.0,0,29,7.0,0.0
1718,67.0,60,29,5.0,0.0
1719,43.0,0,29,8.0,0.0
1720,55.0,0,29,6.0,0.0
1721,67.0,0,29,4.0,0.0
1722,55.0,0,29,15.0,0.0
1723,69.0,30,59,5.0,0.0
1724,57.0,0,59,15.0,0.0
1725,69.0,0,59,4.0,0.0
1726,45.0,0,59,8.0,0.0
1727,57.0,0,59,7.0,0.0
1728,57.0,0,59,6.0,0.0
1729,45.0,0,29,8.0,0.0
1730,57.0,30,29,7.0,0.0
1731,57.0,0,29,6.0,0.0
1732,57.0,0,29,15.0,0.0
1733,69.0,0,29,5.0,0.0
1734,69.0,0,29,4.0,0.0
1735,69.0,0,29,5.0,0.0
1736,57.0,30,29,7.0,0.0
1737,60.0,0,59,1.0,0.0
1738,60.0,0,59,13.0,0.0
1739,69.0,0,29,4.0,0.0
1740,63.0,30,59,1.0,0.0
1741,57.0,0,29,15.0,0.0
1742,63.0,0,59,12.0,0.0
1743,57.0,0,29,6.0,0.0
1744,45.0,0,29,8.0,0.0
1745,45.0,0,29,8.0,0.0
1746,69.0,30,29,5.0,0.0
1747,59.0,0,179,13.0,0.0
1748,57.0,0,29,15.0,0.0
1749,57.0,0,29,7.0,0.0
1750,69.0,0,29,4.0,0.0
1751,63.0,30,179,12.0,0.0
1752,63.0,0,179,1.0,0.0
1753,57.0,0,29,6.0,0.0
1754,59.0,0,179,3.0,0.0
1755,59.0,0,179,1.0,0.0
1756,55.0,0,29,7.0,0.0
1757,43.0,0,29,8.0,0.0
1758,55.0,60,29,6.0,0.0
1759,55.0,0,29,15.0,0.0
1760,67.0,0,29,5.0,0.0
1761,67.0,0,29,4.0,0.0
1762,65.0,0,59,4.0,0.0
1763,41.0,0,59,8.0,0.0
1764,53.0,0,59,15.0,0.0
1765,53.0,0,59,7.0,0.0
1766,53.0,0,59,6.0,0.0
1767,65.0,30,59,5.0,0.0
1768,53.0,0,29,6.0,0.0
1769,65.0,30,29,4.0,0.0
1770,41.0,0,29,8.0,0.0
1771,53.0,0,29,7.0,0.0
1772,53.0,0,29,15.0,0.0
1773,65.0,0,29,5.0,0.0
1774,63.0,0,59,1.0,0.0
1775,53.0,0,29,7.0,0.0
1776,53.0,30,29,6.0,0.0
1777,57.0,120,59,1.0,0.0
1778,65.0,0,29,4.0,0.0
1779,63.0,0,59,12.0,0.0
1780,41.0,0,29,8.0,0.0
1781,53.0,0,29,15.0,0.0
1782,57.0,0,59,3.0,0.0
1783,57.0,0,59,13.0,0.0
1784,65.0,0,29,5.0,0.0
1785,64.0,0,239,1.0,0.0
1786,52.0,0,239,3.0,0.0
1787,56.0,0,239,13.0,0.0
1788,52.0,0,119,7.0,0.0
1789,56.0,120,239,1.0,0.0
1790,52.0,0,119,6.0,0.0
1791,71.0,90,119,4.0,0.0
1792,76.0,0,119,4.0,0.0
1793,52.0,0,119,15.0,0.0
1794,40.0,0,119,8.0,0.0
1795,64.0,0,239,12.0,0.0
1796,56.0,0,239,3.0,0.0
1797,76.0,0,119,5.0,0.0
1798,71.0,0,119,5.0,0.0
1799,64.0,0,239,3.0,0.0
1800,64.0,0,29,5.0,0.0
1801,64.0,0,29,4.0,0.0
1802,64.0,0,119,6.0,0.0
1803,64.0,0,239,0.0,0.0
1804,56.0,0,239,1.0,0.0
1805,59.0,0,239,1.0,0.0
1806,38.0,0,119,8.0,0.0
1807,50.0,0,119,15.0,0.0
1808,52.0,0,239,12.0,0.0
1809,50.0,120,119,7.0,0.0
1810,52.0,0,239,13.0,0.0
1811,62.0,0,119,4.0,0.0
1812,62.0,120,119,5.0,0.0
1813,62.0,0,119,6.0,0.0
1814,63.0,0,239,0.0,0.0
1815,48.0,120,119,7.0,0.0
1816,66.0,120,239,0.0,0.0
1817,57.0,0,239,1.0,0.0
1818,60.0,0,239,1.0,0.0
1819,36.0,0,119,8.0,0.0
1820,48.0,0,119,15.0,0.0
1821,60.0,0,119,4.0,0.0
1822,60.0,0,119,6.0,0.0
1823,60.0,0,119,5.0,0.0
1824,47.0,0,119,7.0,0.0
1825,47.0,0,119,15.0,0.0
1826,68.0,0,239,0.0,0.0
1827,35.0,120,119,8.0,0.0
1828,62.0,0,239,1.0,0.0
1829,59.0,0,239,1.0,0.0
1830,62.0,0,239,0.0,0.0
1831,59.0,0,119,6.0,0.0
1832,59.0,0,119,4.0,0.0
1833,59.0,120,119,5.0,0.0
1834,57.0,0,239,1.0,0.0
1835,64.0,0,239,1.0,0.0
1836,33.0,0,239,8.0,0.0
1837,57.0,120,239,6.0,0.0
1838,69.0,120,839,11.0,0.0
1839,45.0,0,239,15.0,0.0
1840,45.0,0,239,7.0,0.0
1841,69.0,0,239,0.0,0.0
1842,60.0,0,239,0.0,0.0
1843,57.0,0,119,4.0,0.0
1844,57.0,60,119,5.0,0.0
1845,72.0,0,839,10.0,0.0
1846,60.0,60,59,5.0,0.0
1847,60.0,0,59,4.0,0.0
1848,64.0,0,59,5.0,0.0
1849,64.0,0,59,4.0,0.0
1850,69.0,120,119,5.0,0.0
1851,69.0,0,119,4.0,0.0
1852,67.0,120,119,4.0,0.0
1853,67.0,0,119,5.0,0.0
1854,65.0,0,119,4.0,0.0
1855,65.0,120,119,5.0,0.0
1856,64.0,120,119,5.0,0.0
1857,64.0,0,119,4.0,0.0
1858,62.0,0,119,5.0,0.0
1859,62.0,0,119,4.0,0.0
1860,60.0,0,119,5.0,0.0
1861,72.0,0,119,10.0,0.0
1862,69.0,0,119,11.0,0.0
1863,60.0,120,119,4.0,0.0
1864,59.0,0,119,4.0,0.0
1865,69.0,0,239,11.0,0.0
1866,59.0,60,119,5.0,0.0
1867,74.0,0,359,10.0,0.0
1868,60.0,60,59,4.0,0.0
1869,60.0,0,59,5.0,0.0
1870,62.0,0,59,5.0,0.0
1871,62.0,60,59,4.0,0.0
1872,64.0,0,59,5.0,0.0
1873,68.0,120,119,11.0,0.0
1874,64.0,60,59,4.0,0.0
1875,62.0,0,59,5.0,0.0
1876,62.0,0,59,4.0,0.0
1877,74.0,0,119,10.0,0.0
1878,64.0,0,119,4.0,0.0
1879,68.0,0,119,11.0,0.0
1880,64.0,120,119,5.0,0.0
1881,72.0,0,119,10.0,0.0
1882,57.0,0,119,4.0,0.0
1883,57.0,120,119,5.0,0.0
1884,69.0,120,239,11.0,0.0
1885,67.0,0,119,4.0,0.0
1886,73.0,0,119,10.0,0.0
1887,67.0,0,119,5.0,0.0
1888,74.0,120,119,10.0,0.0
1889,65.0,0,119,4.0,0.0
1890,65.0,0,119,5.0,0.0
1891,64.0,120,119,5.0,0.0
1892,64.0,0,119,4.0,0.0
1893,76.0,0,119,10.0,0.0
1894,62.0,60,119,5.0,0.0
1895,77.0,120,239,10.0,0.0
1896,69.0,0,359,11.0,0.0
1897,62.0,0,119,4.0,0.0
1898,65.0,0,59,4.0,0.0
1899,65.0,60,59,5.0,0.0
1900,69.0,0,59,4.0,0.0
1901,69.0,0,59,5.0,0.0
1902,74.0,0,119,5.0,0.0
1903,77.0,120,119,10.0,0.0
1904,74.0,0,119,4.0,0.0
1905,72.0,0,119,5.0,0.0
1906,77.0,0,119,10.0,0.0
1907,69.0,120,119,11.0,0.0
1908,72.0,0,119,4.0,0.0
1909,70.0,0,119,5.0,0.0
1910,70.0,0,119,4.0,0.0
1911,77.0,0,239,10.0,0.0
1912,74.0,120,119,11.0,0.0
1913,69.0,120,119,5.0,0.0
1914,74.0,0,119,11.0,0.0
1915,69.0,0,119,4.0,0.0
1916,67.0,120,119,4.0,0.0
1917,67.0,0,119,5.0,0.0
1918,77.0,120,239,10.0,0.0
1919,74.0,0,119,11.0,0.0
1920,74.0,0,119,11.0,0.0
1921,65.0,0,119,5.0,0.0
1922,65.0,0,119,4.0,0.0
1923,74.0,120,239,11.0,0.0
1924,64.0,0,119,5.0,0.0
1925,64.0,60,119,4.0,0.0
1926,79.0,120,479,10.0,0.0
1927,65.0,60,59,5.0,0.0
1928,65.0,0,59,4.0,0.0
1929,67.0,0,59,5.0,0.0
1930,67.0,0,59,4.0,0.0
1931,73.0,0,239,11.0,0.0
1932,69.0,120,119,5.0,0.0
1933,69.0,0,119,4.0,0.0
1934,57.0,0,119,4.0,0.0
1935,57.0,0,119,5.0,0.0
1936,77.0,120,239,10.0,0.0
1937,62.0,0,119,4.0,0.0
1938,62.0,60,119,5.0,0.0
1939,74.0,0,239,11.0,0.0
1940,65.0,0,59,5.0,0.0
1941,65.0,60,59,4.0,0.0
1942,64.0,0,59,5.0,0.0
1943,64.0,0,59,4.0,0.0
1944,62.0,60,119,4.0,0.0
1945,77.0,0,599,10.0,0.0
1946,62.0,0,119,5.0,0.0
1947,64.0,0,59,5.0,0.0
1948,64.0,60,59,4.0,0.0
1949,65.0,0,59,4.0,0.0
1950,65.0,120,59,5.0,0.0
1951,67.0,60,119,4.0,0.0
1952,67.0,0,119,5.0,0.0
1953,65.0,0,59,5.0,0.0
1954,65.0,60,59,4.0,0.0
1955,67.0,0,59,5.0,0.0
1956,67.0,120,59,4.0,0.0
1957,55.0,0,119,4.0,0.0
1958,55.0,120,119,5.0,0.0
1959,71.0,0,599,11.0,0.0
1960,67.0,0,119,5.0,0.0
1961,77.0,0,119,10.0,0.0
1962,67.0,120,119,4.0,0.0
1963,60.0,0,119,4.0,0.0
1964,76.0,0,239,10.0,0.0
1965,60.0,60,119,5.0,0.0
1966,64.0,0,59,4.0,0.0
1967,64.0,60,59,5.0,0.0
1968,62.0,0,59,5.0,0.0
1969,62.0,120,59,4.0,0.0
1970,60.0,0,119,5.0,0.0
1971,60.0,60,119,4.0,0.0
1972,62.0,60,59,4.0,0.0
1973,62.0,0,59,5.0,0.0
1974,71.0,0,119,11.0,0.0
1975,64.0,120,59,4.0,0.0
1976,64.0,0,59,5.0,0.0
1977,65.0,0,119,5.0,0.0
1978,69.0,0,239,11.0,0.0
1979,76.0,60,359,10.0,0.0
1980,65.0,60,119,4.0,0.0
1981,60.0,60,59,4.0,0.0
1982,60.0,0,59,5.0,0.0
1983,57.0,60,59,5.0,0.0
1984,57.0,0,59,4.0,0.0
1985,65.0,0,59,4.0,0.0
1986,65.0,60,59,5.0,0.0
1987,65.0,0,59,4.0,0.0
1988,65.0,60,59,5.0,0.0
1989,76.0,120,119,10.0,0.0
1990,59.0,0,119,4.0,0.0
1991,74.0,0,239,10.0,0.0
1992,69.0,0,359,11.0,0.0
1993,59.0,60,119,5.0,0.0
1994,62.0,0,59,4.0,0.0
1995,62.0,60,59,5.0,0.0
1996,60.0,0,59,4.0,0.0
1997,60.0,120,59,5.0,0.0
1998,59.0,0,119,4.0,0.0
1999,59.0,60,119,5.0,0.0
2000,69.0,0,119,11.0,0.0
2001,60.0,0,59,5.0,0.0
2002,60.0,60,59,4.0,0.0
2003,62.0,120,59,4.0,0.0
2004,62.0,0,59,5.0,0.0
2005,64.0,0,119,4.0,0.0
2006,64.0,120,119,5.0,0.0
2007,74.0,0,359,10.0,0.0
2008,68.0,120,239,11.0,0.0
2009,62.0,0,119,5.0,0.0
2010,62.0,0,119,4.0,0.0
2011,60.0,0,119,4.0,0.0
2012,60.0,120,119,5.0,0.0
2013,68.0,0,239,11.0,0.0
2014,59.0,0,119,5.0,0.0
2015,59.0,0,119,4.0,0.0
2016,74.0,120,119,10.0,0.0
2017,57.0,0,119,4.0,0.0
2018,57.0,120,119,5.0,0.0
2019,72.0,0,119,10.0,0.0
2020,69.0,120,239,11.0,0.0
2021,72.0,0,119,10.0,0.0
2022,67.0,0,119,4.0,0.0
2023,67.0,0,119,5.0,0.0
2024,74.0,0,119,10.0,0.0
2025,66.0,120,119,5.0,0.0
2026,69.0,120,239,11.0,0.0
2027,66.0,0,119,4.0,0.0
2028,65.0,0,119,5.0,0.0
2029,65.0,0,119,4.0,0.0
2030,74.0,0,119,10.0,0.0
2031,64.0,60,119,4.0,0.0
2032,64.0,0,119,5.0,0.0
2033,74.0,0,239,10.0,0.0
2034,68.0,0,239,11.0,0.0
2035,62.0,0,59,5.0,0.0
2036,62.0,60,59,4.0,0.0
2037,64.0,120,59,4.0,0.0
2038,64.0,0,59,5.0,0.0
2039,65.0,0,119,5.0,0.0
2040,69.0,0,479,11.0,0.0
2041,72.0,0,239,10.0,0.0
2042,65.0,60,119,4.0,0.0
2043,64.0,60,59,5.0,0.0
2044,64.0,0,59,4.0,0.0
2045,65.0,0,59,5.0,0.0
2046,65.0,120,59,4.0,0.0
2047,71.0,0,479,10.0,0.0
2048,62.0,60,119,5.0,0.0
2049,62.0,0,119,4.0,0.0
2050,60.0,60,59,4.0,0.0
2051,60.0,0,59,5.0,0.0
2052,62.0,120,59,4.0,0.0
2053,62.0,0,59,5.0,0.0
2054,68.0,0,239,11.0,0.0
2055,64.0,0,119,4.0,0.0
2056,64.0,60,119,5.0,0.0
2057,62.0,0,59,4.0,0.0
2058,62.0,60,59,5.0,0.0
2059,64.0,60,59,4.0,0.0
2060,64.0,0,59,5.0,0.0
2061,57.0,0,119,7.0,0.0
2062,57.0,0,959,3.0,0.0
2063,57.0,60,119,15.0,0.0
2064,57.0,0,59,4.0,0.0
2065,45.0,0,119,8.0,0.0
2066,60.0,0,959,3.0,0.0
2067,72.0,120,239,10.0,0.0
2068,69.0,0,239,11.0,0.0
2069,64.0,0,959,0.0,0.0
2070,57.0,60,59,5.0,0.0
2071,64.0,0,959,3.0,0.0
2072,69.0,0,959,0.0,0.0
2073,60.0,0,959,1.0,0.0
2074,57.0,0,959,1.0,0.0
2075,69.0,0,59,4.0,0.0
2076,60.0,0,59,6.0,0.0
2077,64.0,0,59,5.0,0.0
2078,64.0,0,59,5.0,0.0
2079,60.0,60,59,6.0,0.0
2080,69.0,0,59,4.0,0.0
2081,69.0,0,59,4.0,0.0
2082,64.0,0,59,5.0,0.0
2083,60.0,0,59,6.0,0.0
2084,45.0,0,119,8.0,0.0
2085,57.0,0,119,15.0,0.0
2086,57.0,60,119,7.0,0.0
2087,64.0,0,59,6.0,0.0
2088,72.0,0,59,4.0,0.0
2089,69.0,0,59,5.0,0.0
2090,69.0,0,59,5.0,0.0
2091,64.0,0,59,6.0,0.0
2092,72.0,60,59,4.0,0.0
2093,72.0,0,59,4.0,0.0
2094,64.0,120,59,6.0,0.0
2095,69.0,0,59,5.0,0.0
2096,57.0,0,119,15.0,0.0
2097,57.0,0,119,7.0,0.0
2098,45.0,60,119,8.0,0.0
2099,69.0,0,59,6.0,0.0
2100,76.0,0,59,4.0,0.0
2101,72.0,0,59,5.0,0.0
2102,76.0,0,59,4.0,0.0
2103,69.0,0,59,6.0,0.0
2104,72.0,60,59,5.0,0.0
2105,69.0,0,59,6.0,0.0
2106,76.0,0,59,4.0,0.0
2107,72.0,120,59,5.0,0.0
2108,57.0,0,119,15.0,0.0
2109,57.0,60,119,7.0,0.0
2110,45.0,0,119,8.0,0.0
2111,81.0,0,59,4.0,0.0
2112,72.0,0,59,6.0,0.0
2113,76.0,0,59,5.0,0.0
2114,81.0,0,59,4.0,0.0
2115,76.0,0,59,5.0,0.0
2116,72.0,60,59,6.0,0.0
2117,72.0,120,59,6.0,0.0
2118,76.0,0,59,5.0,0.0
2119,81.0,0,59,4.0,0.0
2120,39.0,0,119,8.0,0.0
2121,51.0,0,719,13.0,0.0
2122,66.0,0,959,15.0,0.0
2123,51.0,0,959,3.0,0.0
2124,69.0,0,959,15.0,0.0
2125,60.0,0,959,15.0,0.0
2126,51.0,0,119,7.0,0.0
2127,60.0,0,959,3.0,0.0
2128,60.0,0,959,1.0,0.0
2129,51.0,0,1919,1.0,0.0
2130,66.0,0,959,3.0,0.0
2131,75.0,120,959,15.0,0.0
2132,66.0,0,959,0.0,0.0
2133,69.0,0,959,0.0,0.0
2134,51.0,0,119,15.0,0.0
2135,78.0,0,59,5.0,0.0
2136,84.0,0,59,4.0,0.0
2137,69.0,60,59,6.0,0.0
2138,78.0,60,59,5.0,0.0
2139,69.0,0,59,6.0,0.0
2140,84.0,0,59,4.0,0.0
2141,84.0,120,59,4.0,0.0
2142,69.0,0,59,6.0,0.0
2143,78.0,0,59,5.0,0.0
2144,39.0,0,119,8.0,0.0
2145,51.0,60,119,15.0,0.0
2146,51.0,0,119,7.0,0.0
2147,81.0,0,59,4.0,0.0
2148,78.0,0,59,5.0,0.0
2149,72.0,0,59,6.0,0.0
2150,81.0,0,59,4.0,0.0
2151,72.0,60,59,6.0,0.0
2152,78.0,0,59,5.0,0.0
2153,81.0,0,59,4.0,0.0
2154,78.0,0,59,5.0,0.0
2155,72.0,120,59,6.0,0.0
2156,60.0,0,239,12.0,0.0
2157,51.0,60,119,15.0,0.0
2158,51.0,0,119,7.0,0.0
2159,69.0,120,239,10.0,0.0
2160,66.0,0,239,11.0,0.0
2161,39.0,0,119,8.0,0.0
2162,72.0,0,59,5.0,0.0
2163,78.0,0,59,4.0,0.0
2164,69.0,0,59,6.0,0.0
2165,78.0,0,59,4.0,0.0
2166,72.0,60,59,5.0,0.0
2167,69.0,0,59,6.0,0.0
2168,78.0,0,59,4.0,0.0
2169,69.0,0,59,6.0,0.0
2170,72.0,0,59,5.0,0.0
2171,51.0,0,239,13.0,0.0
2172,51.0,0,119,7.0,0.0
2173,51.0,0,119,15.0,0.0
2174,39.0,0,119,8.0,0.0
2175,60.0,0,239,12.0,0.0
2176,69.0,0,239,10.0,0.0
2177,66.0,0,239,11.0,0.0
2178,69.0,0,59,5.0,0.0
2179,66.0,60,59,6.0,0.0
2180,72.0,0,59,4.0,0.0
2181,69.0,60,59,5.0,0.0
2182,66.0,0,59,6.0,0.0
2183,72.0,0,59,4.0,0.0
2184,66.0,0,59,6.0,0.0
2185,69.0,0,59,5.0,0.0
2186,72.0,0,59,4.0,0.0
2187,51.0,0,959,3.0,0.0
2188,61.0,120,239,12.0,0.0
2189,51.0,0,119,15.0,0.0
2190,67.0,0,959,15.0,0.0
2191,70.0,0,239,10.0,0.0
2192,51.0,60,119,7.0,0.0
2193,70.0,0,1199,0.0,0.0
2194,70.0,0,959,15.0,0.0
2195,51.0,0,239,13.0,0.0
2196,67.0,0,1199,3.0,0.0
2197,61.0,0,959,1.0,0.0
2198,67.0,0,239,11.0,0.0
2199,39.0,0,119,8.0,0.0
2200,58.0,0,959,3.0,0.0
2201,67.0,0,959,0.0,0.0
2202,73.0,0,959,15.0,0.0
2203,63.0,0,59,6.0,0.0
2204,73.0,0,59,4.0,0.0
2205,67.0,0,59,5.0,0.0
2206,63.0,0,59,6.0,0.0
2207,73.0,0,59,4.0,0.0
2208,67.0,60,59,5.0,0.0
2209,67.0,0,59,5.0,0.0
2210,73.0,0,59,4.0,0.0
2211,63.0,0,59,6.0,0.0
2212,67.0,0,239,11.0,0.0
2213,51.0,120,239,13.0,0.0
2214,39.0,0,119,8.0,0.0
2215,51.0,60,119,15.0,0.0
2216,51.0,0,119,7.0,0.0
2217,61.0,0,239,12.0,0.0
2218,70.0,0,239,10.0,0.0
2219,67.0,0,59,5.0,0.0
2220,61.0,0,59,6.0,0.0
2221,70.0,0,59,4.0,0.0
2222,70.0,0,59,4.0,0.0
2223,61.0,60,59,6.0,0.0
2224,67.0,0,59,5.0,0.0
2225,61.0,0,59,6.0,0.0
2226,70.0,0,59,4.0,0.0
2227,67.0,0,59,5.0,0.0
2228,61.0,120,239,12.0,0.0
2229,70.0,0,239,10.0,0.0
2230,51.0,0,119,7.0,0.0
2231,51.0,0,119,15.0,0.0
2232,39.0,60,119,8.0,0.0
2233,67.0,0,239,11.0,0.0
2234,51.0,0,239,13.0,0.0
2235,67.0,0,59,4.0,0.0
2236,58.0,0,59,6.0,0.0
2237,61.0,0,59,5.0,0.0
2238,61.0,0,59,5.0,0.0
2239,58.0,0,59,6.0,0.0
2240,67.0,60,59,4.0,0.0
2241,67.0,0,59,4.0,0.0
2242,58.0,0,59,6.0,0.0
2243,61.0,0,59,5.0,0.0
2244,51.0,0,119,15.0,0.0
2245,61.0,120,239,12.0,0.0
2246,39.0,0,119,8.0,0.0
2247,51.0,0,119,7.0,0.0
2248,51.0,0,239,13.0,0.0
2249,67.0,0,239,11.0,0.0
2250,70.0,0,239,10.0,0.0
2251,58.0,0,59,5.0,0.0
2252,55.0,60,59,6.0,0.0
2253,61.0,0,59,4.0,0.0
2254,58.0,60,59,5.0,0.0
2255,55.0,0,59,6.0,0.0
2256,61.0,0,59,4.0,0.0
2257,55.0,0,59,6.0,0.0
2258,61.0,0,59,4.0,0.0
2259,58.0,0,59,5.0,0.0
2260,63.0,0,959,11.0,0.0
2261,39.0,0,119,8.0,0.0
2262,51.0,0,959,1.0,0.0
2263,59.0,120,479,1.0,0.0
2264,59.0,0,479,3.0,0.0
2265,59.0,0,239,15.0,0.0
2266,51.0,0,119,7.0,0.0
2267,70.0,0,239,10.0,0.0
2268,51.0,0,959,13.0,0.0
2269,63.0,0,959,15.0,0.0
2270,70.0,0,479,15.0,0.0
2271,67.0,0,239,15.0,0.0
2272,51.0,0,119,15.0,0.0
2273,63.0,0,479,0.0,0.0
2274,59.0,0,479,12.0,0.0
2275,51.0,60,959,3.0,0.0
2276,58.0,0,59,5.0,0.0
2277,59.0,60,59,4.0,0.0
2278,51.0,0,59,6.0,0.0
2279,58.0,60,59,5.0,0.0
2280,51.0,0,59,6.0,0.0
2281,59.0,0,59,4.0,0.0
2282,51.0,120,59,6.0,0.0
2283,59.0,0,59,4.0,0.0
2284,58.0,0,59,5.0,0.0
2285,39.0,0,119,8.0,0.0
2286,68.0,0,479,0.0,0.0
2287,68.0,0,479,3.0,0.0
2288,51.0,60,119,15.0,0.0
2289,68.0,0,239,15.0,0.0
2290,68.0,0,479,10.0,0.0
2291,51.0,0,119,7.0,0.0
2292,56.0,0,59,5.0,0.0
2293,59.0,0,59,4.0,0.0
2294,51.0,0,59,6.0,0.0
2295,56.0,0,59,5.0,0.0
2296,59.0,60,59,4.0,0.0
2297,51.0,0,59,6.0,0.0
2298,56.0,0,59,5.0,0.0
2299,51.0,0,59,6.0,0.0
2300,59.0,0,59,4.0,0.0
2301,51.0,0,119,7.0,0.0
2302,58.0,0,479,3.0,0.0
2303,51.0,60,119,15.0,0.0
2304,61.0,0,479,0.0,0.0
2305,58.0,0,479,1.0,0.0
2306,39.0,0,119,8.0,0.0
2307,58.0,0,479,12.0,0.0
2308,68.0,0,479,15.0,0.0
2309,70.0,0,479,15.0,0.0
2310,58.0,0,59,4.0,0.0
2311,56.0,0,59,5.0,0.0
2312,51.0,0,59,6.0,0.0
2313,58.0,0,59,4.0,0.0
2314,56.0,60,59,5.0,0.0
2315,51.0,0,59,6.0,0.0
2316,58.0,0,59,4.0,0.0
2317,56.0,120,59,5.0,0.0
2318,51.0,0,59,6.0,0.0
2319,67.0,0,239,10.0,0.0
2320,73.0,0,239,15.0,0.0
2321,39.0,0,119,8.0,0.0
2322,67.0,0,239,3.0,0.0
2323,51.0,0,119,15.0,0.0
2324,67.0,0,239,0.0,0.0
2325,51.0,0,119,7.0,0.0
2326,55.0,60,59,5.0,0.0
2327,51.0,0,59,6.0,0.0
2328,58.0,0,59,4.0,0.0
2329,55.0,60,59,5.0,0.0
2330,51.0,0,59,6.0,0.0
2331,58.0,0,59,4.0,0.0
2332,51.0,0,59,6.0,0.0
2333,55.0,0,59,5.0,0.0
2334,58.0,0,59,4.0,0.0
2335,68.0,0,959,0.0,0.0
2336,63.0,0,959,0.0,0.0
2337,68.0,0,239,10.0,0.0
2338,32.0,0,119,8.0,0.0
2339,56.0,60,59,4.0,0.0
2340,51.0,0,59,6.0,0.0
2341,68.0,0,959,3.0,0.0
2342,56.0,0,239,12.0,0.0
2343,63.0,0,959,15.0,0.0
2344,44.0,0,119,15.0,0.0
2345,71.0,0,959,15.0,0.0
2346,68.0,0,959,15.0,0.0
2347,63.0,0,239,11.0,0.0
2348,44.0,0,239,13.0,0.0
2349,44.0,0,959,3.0,0.0
2350,56.0,0,959,3.0,0.0
2351,59.0,0,959,1.0,0.0
2352,56.0,120,959,1.0,0.0
2353,56.0,0,59,5.0,0.0
2354,44.0,0,119,7.0,0.0
2355,59.0,0,59,6.0,0.0
2356,63.0,60,59,5.0,0.0
2357,68.0,0,59,4.0,0.0
2358,59.0,60,59,6.0,0.0
2359,68.0,0,59,4.0,0.0
2360,63.0,0,59,5.0,0.0
2361,63.0,0,59,5.0,0.0
2362,68.0,0,59,4.0,0.0
2363,59.0,120,59,6.0,0.0
2364,44.0,0,119,8.0,0.0
2365,56.0,0,119,15.0,0.0
2366,56.0,0,119,7.0,0.0
2367,71.0,0,59,4.0,0.0
2368,63.0,0,59,6.0,0.0
2369,68.0,60,59,5.0,0.0
2370,68.0,0,59,5.0,0.0
2371,63.0,0,59,6.0,0.0
2372,71.0,60,59,4.0,0.0
2373,71.0,0,59,4.0,0.0
2374,68.0,120,59,5.0,0.0
2375,63.0,0,59,6.0,0.0
2376,56.0,0,119,7.0,0.0
2377,56.0,0,119,15.0,0.0
2378,44.0,0,119,8.0,0.0
2379,71.0,60,59,5.0,0.0
2380,75.0,0,59,4.0,0.0
2381,68.0,0,59,6.0,0.0
2382,68.0,0,59,6.0,0.0
2383,71.0,0,59,5.0,0.0
2384,75.0,60,59,4.0,0.0
2385,75.0,120,59,4.0,0.0
2386,68.0,0,59,6.0,0.0
2387,71.0,0,59,5.0,0.0
2388,56.0,0,119,7.0,0.0
2389,56.0,0,119,15.0,0.0
2390,44.0,0,119,8.0,0.0
2391,80.0,0,59,4.0,0.0
2392,75.0,60,59,5.0,0.0
2393,71.0,0,59,6.0,0.0
2394,71.0,0,59,6.0,0.0
2395,80.0,60,59,4.0,0.0
2396,75.0,0,59,5.0,0.0
2397,71.0,0,59,6.0,0.0
2398,80.0,0,59,4.0,0.0
2399,75.0,0,59,5.0,0.0
2400,38.0,60,119,8.0,0.0
2401,50.0,0,959,3.0,0.0
2402,50.0,0,119,7.0,0.0
2403,50.0,0,119,15.0,0.0
2404,65.0,0,959,15.0,0.0
2405,68.0,0,959,15.0,0.0
2406,71.0,0,959,15.0,0.0
2407,62.0,0,959,15.0,0.0
2408,50.0,0,719,13.0,0.0
2409,65.0,0,959,3.0,0.0
2410,68.0,0,959,0.0,0.0
2411,65.0,0,959,0.0,0.0
2412,59.0,0,959,3.0,0.0
2413,59.0,0,959,1.0,0.0
2414,50.0,0,959,1.0,0.0
2415,68.0,0,59,6.0,0.0
2416,77.0,0,59,5.0,0.0
2417,83.0,0,59,4.0,0.0
2418,83.0,0,59,4.0,0.0
2419,77.0,60,59,5.0,0.0
2420,68.0,0,59,6.0,0.0
2421,83.0,0,59,4.0,0.0
2422,68.0,0,59,6.0,0.0
2423,77.0,120,59,5.0,0.0
2424,38.0,0,119,8.0,0.0
2425,50.0,0,119,15.0,0.0
2426,50.0,60,119,7.0,0.0
2427,80.0,0,59,4.0,0.0
2428,71.0,0,59,6.0,0.0
2429,77.0,0,59,5.0,0.0
2430,71.0,60,59,6.0,0.0
2431,77.0,0,59,5.0,0.0
2432,80.0,0,59,4.0,0.0
2433,77.0,0,59,5.0,0.0
2434,71.0,120,59,6.0,0.0
2435,80.0,0,59,4.0,0.0
2436,68.0,0,239,10.0,0.0
2437,38.0,0,119,8.0,0.0
2438,65.0,0,239,11.0,0.0
2439,50.0,60,119,7.0,0.0
2440,59.0,0,239,12.0,0.0
2441,50.0,0,119,15.0,0.0
2442,67.0,0,59,6.0,0.0
2443,71.0,0,59,5.0,0.0
2444,77.0,0,59,4.0,0.0
2445,67.0,0,59,6.0,0.0
2446,77.0,0,59,4.0,0.0
2447,71.0,60,59,5.0,0.0
2448,77.0,120,59,4.0,0.0
2449,71.0,0,59,5.0,0.0
2450,67.0,0,59,6.0,0.0
2451,50.0,0,119,15.0,0.0
2452,68.0,120,239,10.0,0.0
2453,50.0,0,239,13.0,0.0
2454,59.0,0,239,12.0,0.0
2455,65.0,0,239,11.0,0.0
2456,50.0,0,119,7.0,0.0
2457,38.0,60,119,8.0,0.0
2458,71.0,0,59,4.0,0.0
2459,65.0,0,59,6.0,0.0
2460,68.0,0,59,5.0,0.0
2461,68.0,0,59,5.0,0.0
2462,71.0,60,59,4.0,0.0
2463,65.0,0,59,6.0,0.0
2464,65.0,0,59,6.0,0.0
2465,68.0,0,59,5.0,0.0
2466,71.0,0,59,4.0,0.0
2467,50.0,0,239,13.0,0.0
2468,60.0,0,239,12.0,0.0
2469,60.0,0,959,1.0,0.0
2470,50.0,0,959,1.0,0.0
2471,66.0,0,1199,3.0,0.0
2472,66.0,0,239,11.0,0.0
2473,69.0,0,1199,0.0,0.0
2474,60.0,0,959,15.0,0.0
2475,38.0,0,119,8.0,0.0
2476,69.0,120,239,10.0,0.0
2477,66.0,0,959,0.0,0.0
2478,69.0,0,959,15.0,0.0
2479,66.0,0,959,15.0,0.0
2480,50.0,0,119,15.0,0.0
2481,60.0,0,959,3.0,0.0
2482,50.0,120,959,3.0,0.0
2483,50.0,60,119,7.0,0.0
2484,72.0,0,59,4.0,0.0
2485,69.0,0,59,5.0,0.0
2486,66.0,0,59,6.0,0.0
2487,72.0,0,59,4.0,0.0
2488,66.0,0,59,6.0,0.0
2489,69.0,60,59,5.0,0.0
2490,69.0,0,59,5.0,0.0
2491,72.0,0,59,4.0,0.0
2492,66.0,0,59,6.0,0.0
2493,50.0,0,119,15.0,0.0
2494,60.0,0,239,12.0,0.0
2495,50.0,120,239,13.0,0.0
2496,69.0,0,239,10.0,0.0
2497,66.0,0,239,11.0,0.0
2498,38.0,0,119,8.0,0.0
2499,50.0,0,119,7.0,0.0
2500,60.0,0,59,6.0,0.0
2501,69.0,60,59,4.0,0.0
2502,66.0,0,59,5.0,0.0
2503,66.0,60,59,5.0,0.0
2504,69.0,0,59,4.0,0.0
2505,60.0,0,59,6.0,0.0
2506,69.0,0,59,4.0,0.0
2507,60.0,0,59,6.0,0.0
2508,66.0,0,59,5.0,0.0
2509,38.0,0,119,8.0,0.0
2510,66.0,0,239,11.0,0.0
2511,60.0,0,239,12.0,0.0
2512,50.0,0,119,15.0,0.0
2513,50.0,0,239,13.0,0.0
2514,69.0,0,239,10.0,0.0
2515,50.0,0,119,7.0,0.0
2516,57.0,0,59,6.0,0.0
2517,60.0,60,59,5.0,0.0
2518,66.0,0,59,4.0,0.0
2519,60.0,0,59,5.0,0.0
2520,57.0,0,59,6.0,0.0
2521,66.0,60,59,4.0,0.0
2522,66.0,0,59,4.0,0.0
2523,60.0,120,59,5.0,0.0
2524,57.0,0,59,6.0,0.0
2525,50.0,0,119,7.0,0.0
2526,50.0,0,119,15.0,0.0
2527,38.0,60,119,8.0,0.0
2528,60.0,0,239,12.0,0.0
2529,50.0,0,239,13.0,0.0
2530,69.0,0,239,10.0,0.0
2531,66.0,0,239,11.0,0.0
2532,54.0,0,59,6.0,0.0
2533,60.0,0,59,4.0,0.0
2534,57.0,0,59,5.0,0.0
2535,54.0,60,59,6.0,0.0
2536,57.0,0,59,5.0,0.0
2537,60.0,0,59,4.0,0.0
2538,60.0,0,59,4.0,0.0
2539,54.0,0,59,6.0,0.0
2540,57.0,0,59,5.0,0.0
2541,65.0,0,239,15.0,0.0
2542,50.0,0,119,15.0,0.0
2543,58.0,0,479,15.0,0.0
2544,62.0,0,959,11.0,0.0
2545,50.0,60,119,7.0,0.0
2546,50.0,0,959,3.0,0.0
2547,62.0,0,959,15.0,0.0
2548,69.0,0,239,15.0,0.0
2549,38.0,0,119,8.0,0.0
2550,58.0,120,479,1.0,0.0
2551,50.0,0,959,1.0,0.0
2552,50.0,0,959,13.0,0.0
2553,69.0,120,239,10.0,0.0
2554,58.0,0,479,12.0,0.0
2555,58.0,0,479,3.0,0.0
2556,62.0,0,959,0.0,0.0
2557,57.0,0,59,5.0,0.0
2558,50.0,0,59,6.0,0.0
2559,58.0,0,59,4.0,0.0
2560,58.0,0,59,4.0,0.0
2561,57.0,60,59,5.0,0.0
2562,50.0,0,59,6.0,0.0
2563,50.0,0,59,6.0,0.0
2564,57.0,0,59,5.0,0.0
2565,58.0,0,59,4.0,0.0
2566,67.0,0,479,3.0,0.0
2567,50.0,60,119,7.0,0.0
2568,67.0,0,719,15.0,0.0
2569,67.0,0,479,10.0,0.0
2570,50.0,0,119,15.0,0.0
2571,67.0,0,479,0.0,0.0
2572,38.0,0,119,8.0,0.0
2573,50.0,0,59,6.0,0.0
2574,58.0,0,59,4.0,0.0
2575,55.0,0,59,5.0,0.0
2576,50.0,60,59,6.0,0.0
2577,55.0,0,59,5.0,0.0
2578,58.0,0,59,4.0,0.0
2579,55.0,0,59,5.0,0.0
2580,58.0,0,59,4.0,0.0
2581,50.0,0,59,6.0,0.0
2582,50.0,60,119,15.0,0.0
2583,57.0,0,479,12.0,0.0
2584,57.0,120,479,3.0,0.0
2585,38.0,0,119,8.0,0.0
2586,57.0,0,479,1.0,0.0
2587,50.0,0,119,7.0,0.0
2588,62.0,0,59,5.0,0.0
2589,60.0,0,59,4.0,0.0
2590,57.0,0,59,6.0,0.0
2591,60.0,0,59,4.0,0.0
2592,57.0,60,59,6.0,0.0
2593,62.0,0,59,5.0,0.0
2594,60.0,0,59,4.0,0.0
2595,57.0,120,59,6.0,0.0
2596,62.0,0,59,5.0,0.0
2597,72.0,0,239,15.0,0.0
2598,50.0,0,119,7.0,0.0
2599,66.0,0,239,15.0,0.0
2600,38.0,0,119,8.0,0.0
2601,66.0,0,239,0.0,0.0
2602,50.0,60,119,15.0,0.0
2603,66.0,0,239,10.0,0.0
2604,66.0,0,239,3.0,0.0
2605,60.0,0,59,5.0,0.0
2606,66.0,0,59,4.0,0.0
2607,57.0,0,59,6.0,0.0
2608,60.0,0,59,5.0,0.0
2609,66.0,60,59,4.0,0.0
2610,57.0,0,59,6.0,0.0
2611,57.0,0,59,6.0,0.0
2612,66.0,0,59,4.0,0.0
2613,60.0,0,59,5.0,0.0
2614,43.0,0,239,13.0,0.0
2615,62.0,0,239,11.0,0.0
2616,43.0,0,959,3.0,0.0
2617,64.0,0,959,15.0,0.0
2618,67.0,0,959,15.0,0.0
2619,62.0,0,959,0.0,0.0
2620,43.0,0,119,15.0,0.0
2621,43.0,0,119,7.0,0.0
2622,58.0,120,959,3.0,0.0
2623,31.0,0,119,8.0,0.0
2624,55.0,0,239,12.0,0.0
2625,67.0,0,959,3.0,0.0
2626,58.0,0,959,1.0,0.0
2627,55.0,0,959,1.0,0.0
2628,59.0,0,959,15.0,0.0
2629,67.0,0,959,0.0,0.0
2630,67.0,0,59,4.0,0.0
2631,58.0,0,59,5.0,0.0
2632,55.0,60,59,6.0,0.0
2633,58.0,0,59,5.0,0.0
2634,67.0,60,59,4.0,0.0
2635,55.0,0,59,6.0,0.0
2636,58.0,120,59,5.0,0.0
2637,55.0,0,59,6.0,0.0
2638,67.0,0,59,4.0,0.0
2639,55.0,0,119,7.0,0.0
2640,55.0,0,119,15.0,0.0
2641,43.0,60,119,8.0,0.0
2642,70.0,0,59,4.0,0.0
2643,62.0,0,59,6.0,0.0
2644,67.0,0,59,5.0,0.0
2645,62.0,0,59,6.0,0.0
2646,70.0,60,59,4.0,0.0
2647,67.0,0,59,5.0,0.0
2648,62.0,0,59,6.0,0.0
2649,67.0,0,59,5.0,0.0
2650,70.0,120,59,4.0,0.0
2651,55.0,0,119,7.0,0.0
2652,43.0,0,119,8.0,0.0
2653,55.0,0,119,15.0,0.0
2654,70.0,0,59,5.0,0.0
2655,67.0,0,59,6.0,0.0
2656,74.0,60,59,4.0,0.0
2657,67.0,0,59,6.0,0.0
2658,70.0,0,59,5.0,0.0
2659,74.0,60,59,4.0,0.0
2660,74.0,0,59,4.0,0.0
2661,67.0,120,59,6.0,0.0
2662,70.0,0,59,5.0,0.0
2663,43.0,0,119,8.0,0.0
2664,55.0,0,119,7.0,0.0
2665,55.0,0,119,15.0,0.0
2666,70.0,0,59,6.0,0.0
2667,79.0,0,59,4.0,0.0
2668,74.0,60,59,5.0,0.0
2669,74.0,0,59,5.0,0.0
2670,70.0,0,59,6.0,0.0
2671,79.0,60,59,4.0,0.0
2672,70.0,0,59,6.0,0.0
2673,74.0,0,59,5.0,0.0
2674,79.0,0,59,4.0,0.0
2675,49.0,0,959,1.0,0.0
2676,37.0,0,119,8.0,0.0
2677,67.0,0,959,15.0,0.0
2678,64.0,0,959,15.0,0.0
2679,58.0,0,959,1.0,0.0
2680,49.0,0,719,13.0,0.0
2681,49.0,60,119,7.0,0.0
2682,49.0,0,959,3.0,0.0
2683,49.0,0,119,15.0,0.0
2684,67.0,0,959,0.0,0.0
2685,64.0,0,959,0.0,0.0
2686,64.0,0,959,3.0,0.0
2687,58.0,0,959,15.0,0.0
2688,61.0,0,959,15.0,0.0
2689,58.0,0,959,3.0,0.0
2690,64.0,0,59,6.0,0.0
2691,82.0,0,59,4.0,0.0
2692,79.0,0,59,5.0,0.0
2693,82.0,0,59,4.0,0.0
2694,64.0,0,59,6.0,0.0
2695,79.0,60,59,5.0,0.0
2696,64.0,120,59,6.0,0.0
2697,79.0,0,59,5.0,0.0
2698,82.0,0,59,4.0,0.0
2699,37.0,0,119,8.0,0.0
2700,49.0,0,119,15.0,0.0
2701,49.0,0,119,7.0,0.0
2702,76.0,60,59,5.0,0.0
2703,79.0,0,59,4.0,0.0
2704,70.0,0,59,6.0,0.0
2705,70.0,60,59,6.0,0.0
2706,79.0,0,59,4.0,0.0
2707,76.0,0,59,5.0,0.0
2708,79.0,120,59,4.0,0.0
2709,76.0,0,59,5.0,0.0
2710,70.0,0,59,6.0,0.0
2711,67.0,120,239,10.0,0.0
2712,37.0,60,119,8.0,0.0
2713,64.0,0,239,11.0,0.0
2714,58.0,0,239,12.0,0.0
2715,49.0,0,119,7.0,0.0
2716,49.0,0,119,15.0,0.0
2717,76.0,0,59,4.0,0.0
2718,67.0,0,59,6.0,0.0
2719,70.0,0,59,5.0,0.0
2720,76.0,0,59,4.0,0.0
2721,67.0,60,59,6.0,0.0
2722,70.0,0,59,5.0,0.0
2723,70.0,0,59,5.0,0.0
2724,67.0,0,59,6.0,0.0
2725,76.0,0,59,4.0,0.0
2726,58.0,0,239,12.0,0.0
2727,49.0,0,239,13.0,0.0
2728,49.0,0,119,15.0,0.0
2729,37.0,0,119,8.0,0.0
2730,64.0,120,239,11.0,0.0
2731,49.0,0,119,7.0,0.0
2732,67.0,0,239,10.0,0.0
2733,70.0,0,59,4.0,0.0
2734,67.0,60,59,5.0,0.0
2735,64.0,0,59,6.0,0.0
2736,67.0,60,59,5.0,0.0
2737,70.0,0,59,4.0,0.0
2738,64.0,0,59,6.0,0.0
2739,67.0,0,59,5.0,0.0
2740,70.0,0,59,4.0,0.0
2741,64.0,0,59,6.0,0.0
2742,65.0,0,479,3.0,0.0
2743,59.0,0,479,1.0,0.0
2744,49.0,0,119,15.0,0.0
2745,65.0,0,479,11.0,0.0
2746,65.0,0,479,15.0,0.0
2747,37.0,60,119,8.0,0.0
2748,49.0,0,959,3.0,0.0
2749,68.0,0,479,15.0,0.0
2750,59.0,0,479,15.0,0.0
2751,61.0,120,959,15.0,0.0
2752,68.0,0,479,10.0,0.0
2753,59.0,0,479,3.0,0.0
2754,68.0,0,479,0.0,0.0
2755,65.0,120,479,0.0,0.0
2756,49.0,0,119,7.0,0.0
2757,49.0,0,959,1.0,0.0
2758,59.0,0,479,12.0,0.0
2759,49.0,0,719,13.0,0.0
2760,56.0,0,59,6.0,0.0
2761,65.0,0,59,5.0,0.0
2762,71.0,0,59,4.0,0.0
2763,56.0,0,59,6.0,0.0
2764,65.0,60,59,5.0,0.0
2765,71.0,0,59,4.0,0.0
2766,71.0,0,59,4.0,0.0
2767,56.0,120,59,6.0,0.0
2768,65.0,0,59,5.0,0.0
2769,49.0,0,119,15.0,0.0
2770,49.0,0,119,7.0,0.0
2771,37.0,60,119,8.0,0.0
2772,59.0,0,59,5.0,0.0
2773,56.0,0,59,6.0,0.0
2774,65.0,0,59,4.0,0.0
2775,56.0,0,59,6.0,0.0
2776,65.0,0,59,4.0,0.0
2777,59.0,60,59,5.0,0.0
2778,65.0,0,59,4.0,0.0
2779,56.0,0,59,6.0,0.0
2780,59.0,0,59,5.0,0.0
2781,49.0,0,119,15.0,0.0
2782,57.0,0,479,3.0,0.0
2783,66.0,0,239,10.0,0.0
2784,66.0,0,479,15.0,0.0
2785,61.0,0,479,0.0,0.0
2786,57.0,0,479,1.0,0.0
2787,57.0,0,239,12.0,0.0
2788,49.0,0,119,7.0,0.0
2789,66.0,0,479,0.0,0.0
2790,57.0,0,479,15.0,0.0
2791,66.0,0,479,3.0,0.0
2792,37.0,0,119,8.0,0.0
2793,66.0,0,239,11.0,0.0
2794,54.0,60,59,6.0,0.0
2795,66.0,0,59,4.0,0.0
2796,57.0,0,59,5.0,0.0
2797,54.0,0,59,6.0,0.0
2798,66.0,0,59,4.0,0.0
2799,57.0,60,59,5.0,0.0
2800,57.0,120,59,5.0,0.0
2801,66.0,0,59,4.0,0.0
2802,54.0,0,59,6.0,0.0
2803,49.0,0,119,15.0,0.0
2804,37.0,0,119,8.0,0.0
2805,49.0,0,119,7.0,0.0
2806,49.0,0,239,13.0,0.0
2807,73.0,0,59,5.0,0.0
2808,78.0,0,59,4.0,0.0
2809,69.0,60,59,6.0,0.0
2810,69.0,0,59,6.0,0.0
2811,78.0,0,59,4.0,0.0
2812,73.0,60,59,5.0,0.0
2813,69.0,0,59,6.0,0.0
2814,78.0,0,59,4.0,0.0
2815,73.0,0,59,5.0,0.0
2816,57.0,0,959,1.0,0.0
2817,48.0,0,959,1.0,0.0
2818,48.0,0,719,13.0,0.0
2819,63.0,0,959,0.0,0.0
2820,63.0,120,959,3.0,0.0
2821,66.0,0,959,0.0,0.0
2822,48.0,0,959,3.0,0.0
2823,48.0,60,119,7.0,0.0
2824,57.0,0,959,3.0,0.0
2825,63.0,0,959,15.0,0.0
2826,66.0,0,959,15.0,0.0
2827,57.0,0,959,15.0,0.0
2828,60.0,0,959,15.0,0.0
2829,48.0,0,119,15.0,0.0
2830,36.0,0,119,8.0,0.0
2831,75.0,0,59,6.0,0.0
2832,78.0,0,59,5.0,0.0
2833,81.0,0,59,4.0,0.0
2834,78.0,60,59,5.0,0.0
2835,75.0,0,59,6.0,0.0
2836,81.0,0,59,4.0,0.0
2837,81.0,120,59,4.0,0.0
2838,78.0,0,59,5.0,0.0
2839,75.0,0,59,6.0,0.0
2840,36.0,0,119,8.0,0.0
2841,48.0,60,119,7.0,0.0
2842,48.0,0,119,15.0,0.0
2843,75.0,0,59,5.0,0.0
2844,69.0,0,59,6.0,0.0
2845,78.0,0,59,4.0,0.0
2846,75.0,0,59,5.0,0.0
2847,69.0,0,59,6.0,0.0
2848,78.0,60,59,4.0,0.0
2849,75.0,0,59,5.0,0.0
2850,69.0,0,59,6.0,0.0
2851,78.0,120,59,4.0,0.0
2852,63.0,0,239,11.0,0.0
2853,66.0,0,239,10.0,0.0
2854,36.0,0,119,8.0,0.0
2855,48.0,0,119,7.0,0.0
2856,57.0,120,239,12.0,0.0
2857,48.0,0,119,15.0,0.0
2858,66.0,0,59,6.0,0.0
2859,69.0,0,59,5.0,0.0
2860,75.0,60,59,4.0,0.0
2861,75.0,0,59,4.0,0.0
2862,66.0,60,59,6.0,0.0
2863,69.0,0,59,5.0,0.0
2864,69.0,0,59,5.0,0.0
2865,66.0,0,59,6.0,0.0
2866,75.0,0,59,4.0,0.0
2867,66.0,0,239,10.0,0.0
2868,48.0,0,119,7.0,0.0
2869,36.0,0,119,8.0,0.0
2870,48.0,60,119,15.0,0.0
2871,57.0,0,239,12.0,0.0
2872,63.0,0,239,11.0,0.0
2873,48.0,0,239,13.0,0.0
2874,66.0,0,59,5.0,0.0
2875,69.0,0,59,4.0,0.0
2876,63.0,0,59,6.0,0.0
2877,66.0,60,59,5.0,0.0
2878,69.0,0,59,4.0,0.0
2879,63.0,0,59,6.0,0.0
2880,69.0,0,59,4.0,0.0
2881,66.0,0,59,5.0,0.0
2882,63.0,0,59,6.0,0.0
2883,48.0,0,119,7.0,0.0
2884,58.0,0,239,12.0,0.0
2885,48.0,0,119,15.0,0.0
2886,64.0,0,479,15.0,0.0
2887,67.0,0,479,15.0,0.0
2888,58.0,0,479,15.0,0.0
2889,60.0,0,479,15.0,0.0
2890,36.0,0,119,8.0,0.0
2891,67.0,0,479,0.0,0.0
2892,67.0,0,239,10.0,0.0
2893,48.0,0,479,13.0,0.0
2894,64.0,0,239,11.0,0.0
2895,64.0,0,479,0.0,0.0
2896,58.0,0,479,3.0,0.0
2897,58.0,0,479,1.0,0.0
2898,48.0,0,479,1.0,0.0
2899,64.0,0,479,3.0,0.0
2900,48.0,0,959,3.0,0.0
2901,67.0,0,59,5.0,0.0
2902,70.0,0,59,4.0,0.0
2903,64.0,60,59,6.0,0.0
2904,70.0,0,59,4.0,0.0
2905,64.0,60,59,6.0,0.0
2906,67.0,0,59,5.0,0.0
2907,70.0,0,59,4.0,0.0
2908,64.0,120,59,6.0,0.0
2909,67.0,0,59,5.0,0.0
2910,58.0,0,239,12.0,0.0
2911,48.0,60,119,15.0,0.0
2912,36.0,0,119,8.0,0.0
2913,48.0,0,119,7.0,0.0
2914,67.0,120,239,10.0,0.0
2915,64.0,0,239,11.0,0.0
2916,64.0,0,59,4.0,0.0
2917,55.0,0,59,6.0,0.0
2918,58.0,0,59,5.0,0.0
2919,58.0,0,59,5.0,0.0
2920,55.0,0,59,6.0,0.0
2921,64.0,60,59,4.0,0.0
2922,58.0,0,59,5.0,0.0
2923,64.0,0,59,4.0,0.0
2924,55.0,0,59,6.0,0.0
2925,48.0,0,479,1.0,0.0
2926,60.0,0,479,15.0,0.0
2927,56.0,0,479,15.0,0.0
2928,36.0,60,119,8.0,0.0
2929,56.0,0,479,1.0,0.0
2930,56.0,0,479,3.0,0.0
2931,65.0,0,239,0.0,0.0
2932,48.0,0,119,15.0,0.0
2933,65.0,0,479,15.0,0.0
2934,48.0,0,119,7.0,0.0
2935,65.0,0,959,3.0,0.0
2936,48.0,0,479,13.0,0.0
2937,56.0,120,239,12.0,0.0
2938,65.0,0,239,10.0,0.0
2939,65.0,0,239,11.0,0.0
2940,65.0,0,59,4.0,0.0
2941,56.0,0,59,5.0,0.0
2942,60.0,0,59,6.0,0.0
2943,65.0,0,59,4.0,0.0
2944,60.0,0,59,6.0,0.0
2945,56.0,60,59,5.0,0.0
2946,60.0,0,59,6.0,0.0
2947,65.0,0,59,4.0,0.0
2948,56.0,0,59,5.0,0.0
2949,65.0,0,239,10.0,0.0
2950,48.0,0,119,15.0,0.0
2951,60.0,0,239,11.0,0.0
2952,60.0,0,239,0.0,0.0
2953,48.0,0,119,7.0,0.0
2954,36.0,0,119,8.0,0.0
2955,56.0,0,239,12.0,0.0
2956,60.0,0,59,5.0,0.0
2957,53.0,60,59,6.0,0.0
2958,68.0,0,59,4.0,0.0
2959,68.0,0,59,4.0,0.0
2960,60.0,0,59,5.0,0.0
2961,53.0,60,59,6.0,0.0
2962,53.0,0,59,6.0,0.0
2963,60.0,0,59,5.0,0.0
2964,68.0,120,59,4.0,0.0
2965,36.0,60,119,8.0,0.0
2966,60.0,0,959,11.0,0.0
2967,55.0,0,959,3.0,0.0
2968,60.0,0,959,0.0,0.0
2969,48.0,0,119,7.0,0.0
2970,62.0,0,959,15.0,0.0
2971,55.0,0,959,15.0,0.0
2972,65.0,0,479,10.0,0.0
2973,48.0,0,119,15.0,0.0
2974,55.0,0,959,1.0,0.0
2975,48.0,0,959,1.0,0.0
2976,48.0,0,959,13.0,0.0
2977,48.0,0,959,3.0,0.0
2978,55.0,0,959,12.0,0.0
2979,65.0,0,479,15.0,0.0
2980,60.0,0,59,5.0,0.0
2981,55.0,0,59,6.0,0.0
2982,65.0,0,59,4.0,0.0
2983,55.0,0,59,6.0,0.0
2984,60.0,60,59,5.0,0.0
2985,65.0,0,59,4.0,0.0
2986,65.0,0,59,4.0,0.0
2987,55.0,0,59,6.0,0.0
2988,60.0,120,59,5.0,0.0
2989,48.0,0,119,7.0,0.0
2990,36.0,0,119,8.0,0.0
2991,48.0,60,119,15.0,0.0
2992,67.0,0,59,4.0,0.0
2993,58.0,0,59,6.0,0.0
2994,60.0,0,59,5.0,0.0
2995,60.0,0,59,5.0,0.0
2996,67.0,60,59,4.0,0.0
2997,58.0,0,59,6.0,0.0
2998,58.0,0,59,6.0,0.0
2999,60.0,0,59,5.0,0.0
3000,67.0,120,59,4.0,0.0
3001,64.0,0,479,15.0,0.0
3002,48.0,0,119,15.0,0.0
3003,48.0,60,119,7.0,0.0
3004,64.0,0,479,10.0,0.0
3005,64.0,0,479,0.0,0.0
3006,64.0,0,479,3.0,0.0
3007,36.0,0,119,8.0,0.0
3008,55.0,0,59,6.0,0.0
3009,64.0,0,59,4.0,0.0
3010,60.0,0,59,5.0,0.0
3011,64.0,0,59,4.0,0.0
3012,55.0,0,59,6.0,0.0
3013,60.0,60,59,5.0,0.0
3014,60.0,0,59,5.0,0.0
3015,55.0,120,59,6.0,0.0
3016,64.0,0,59,4.0,0.0
3017,48.0,0,119,7.0,0.0
3018,58.0,120,239,15.0,0.0
3019,36.0,0,119,8.0,0.0
3020,48.0,60,119,15.0,0.0
3021,52.0,0,59,6.0,0.0
3022,58.0,0,59,5.0,0.0
3023,67.0,0,59,4.0,0.0
3024,67.0,60,59,4.0,0.0
3025,52.0,0,59,6.0,0.0
3026,58.0,0,59,5.0,0.0
3027,58.0,0,59,5.0,0.0
3028,67.0,0,59,4.0,0.0
3029,52.0,0,59,6.0,0.0
3030,41.0,0,119,15.0,0.0
3031,41.0,0,239,13.0,0.0
3032,57.0,0,1199,1.0,0.0
3033,53.0,0,1199,1.0,0.0
3034,41.0,0,1199,3.0,0.0
3035,57.0,0,239,15.0,0.0
3036,65.0,0,239,15.0,0.0
3037,65.0,0,1199,3.0,0.0
3038,41.0,60,119,7.0,0.0
3039,65.0,0,1199,0.0,0.0
3040,60.0,120,239,11.0,0.0
3041,29.0,0,119,8.0,0.0
3042,57.0,0,1199,3.0,0.0
3043,60.0,0,1199,0.0,0.0
3044,60.0,0,239,15.0,0.0
3045,53.0,0,239,12.0,0.0
3046,65.0,0,239,10.0,0.0
3047,57.0,0,59,5.0,0.0
3048,53.0,0,59,6.0,0.0
3049,65.0,0,59,4.0,0.0
3050,57.0,60,59,5.0,0.0
3051,53.0,0,59,6.0,0.0
3052,65.0,0,59,4.0,0.0
3053,53.0,0,59,6.0,0.0
3054,57.0,0,59,5.0,0.0
3055,65.0,0,59,4.0,0.0
3056,41.0,0,119,7.0,0.0
3057,41.0,0,119,15.0,0.0
3058,29.0,60,119,8.0,0.0
3059,57.0,0,59,5.0,0.0
3060,53.0,0,59,6.0,0.0
3061,60.0,0,59,4.0,0.0
3062,60.0,60,59,4.0,0.0
3063,57.0,0,59,5.0,0.0
3064,53.0,0,59,6.0,0.0
3065,57.0,120,59,5.0,0.0
3066,53.0,0,59,6.0,0.0
3067,60.0,0,59,4.0,0.0
3068,41.0,0,119,15.0,0.0
3069,29.0,0,119,8.0,0.0
3070,41.0,0,119,7.0,0.0
3071,53.0,0,59,6.0,0.0
3072,65.0,0,59,4.0,0.0
3073,57.0,60,59,5.0,0.0
3074,57.0,0,59,5.0,0.0
3075,65.0,60,59,4.0,0.0
3076,53.0,0,59,6.0,0.0
3077,53.0,0,59,6.0,0.0
3078,57.0,0,59,5.0,0.0
3079,65.0,120,59,4.0,0.0
3080,41.0,0,119,15.0,0.0
3081,41.0,0,119,7.0,0.0
3082,29.0,60,119,8.0,0.0
3083,53.0,0,59,6.0,0.0
3084,60.0,0,59,4.0,0.0
3085,57.0,0,59,5.0,0.0
3086,60.0,0,59,4.0,0.0
3087,57.0,0,59,5.0,0.0
3088,53.0,60,59,6.0,0.0
3089,53.0,240,59,6.0,0.0
3090,60.0,0,59,4.0,0.0
3091,57.0,0,59,5.0,0.0
3092,41.0,0,239,7.0,0.0
3093,65.0,0,239,4.0,0.0
3094,41.0,0,239,15.0,0.0
3095,53.0,0,239,6.0,0.0
3096,29.0,0,239,8.0,0.0
3097,57.0,480,239,5.0,0.0
3098,57.0,0,239,6.0,0.0
3099,52.0,0,239,7.0,0.0
3100,55.0,0,239,5.0,0.0
3101,52.0,0,239,15.0,0.0
3102,61.0,0,239,4.0,0.0
3103,40.0,241,239,8.0,0.0
