tick,type,time,meta,track,numerator,denominator,clocks_per_click,notated_32nd_notes_per_beat,key,tempo,control,value,channel,program,pitch,note,velocity
0,track_name,0,1,0,,,,,,,,,,,,,
0,control_change,0,0,1,,,,,,,64,0,1,,,,
0,control_change,0,0,1,,,,,,,32,0,1,,,,
0,control_change,0,0,1,,,,,,,0,0,1,,,,
0,track_name,0,1,1,,,,,,,,,,,,,
0,track_name,0,1,4,,,,,,,,,,,,,
0,control_change,0,0,4,,,,,,,0,0,4,,,,
0,control_change,0,0,4,,,,,,,32,0,4,,,,
0,program_change,0,0,4,,,,,,,,,4,0,,,
0,control_change,0,0,4,,,,,,,7,120,4,,,,
0,pitchwheel,0,0,4,,,,,,,,,4,,0,,
0,control_change,0,0,4,,,,,,,1,0,4,,,,
0,control_change,0,0,1,,,,,,,10,73,1,,,,
0,control_change,0,0,4,,,,,,,93,19,4,,,,
0,control_change,0,0,4,,,,,,,10,55,4,,,,
0,control_change,0,0,4,,,,,,,64,0,4,,,,
0,track_name,0,1,5,,,,,,,,,,,,,
0,control_change,0,0,5,,,,,,,0,0,5,,,,
0,control_change,0,0,5,,,,,,,32,0,5,,,,
0,program_change,0,0,5,,,,,,,,,5,0,,,
0,control_change,0,0,5,,,,,,,64,0,5,,,,
0,control_change,0,0,5,,,,,,,10,55,5,,,,
0,control_change,0,0,5,,,,,,,91,100,5,,,,
0,control_change,0,0,5,,,,,,,93,19,5,,,,
0,control_change,0,0,5,,,,,,,1,0,5,,,,
0,control_change,0,0,4,,,,,,,91,100,4,,,,
0,pitchwheel,0,0,5,,,,,,,,,5,,0,,
0,control_change,0,0,1,,,,,,,91,100,1,,,,
0,control_change,0,0,1,,,,,,,1,0,1,,,,
0,control_change,0,0,2,,,,,,,32,0,2,,,,
0,program_change,0,0,2,,,,,,,,,2,0,,,
0,control_change,0,0,2,,,,,,,7,122,2,,,,
0,pitchwheel,0,0,2,,,,,,,,,2,,0,,
0,control_change,0,0,2,,,,,,,1,0,2,,,,
0,control_change,0,0,2,,,,,,,93,19,2,,,,
0,control_change,0,0,2,,,,,,,91,100,2,,,,
0,control_change,0,0,2,,,,,,,10,73,2,,,,
0,control_change,0,0,2,,,,,,,64,0,2,,,,
0,track_name,0,1,3,,,,,,,,,,,,,
0,control_change,0,0,3,,,,,,,0,0,3,,,,
0,control_change,0,0,1,,,,,,,93,19,1,,,,
0,control_change,0,0,3,,,,,,,32,0,3,,,,
0,control_change,0,0,3,,,,,,,7,112,3,,,,
0,pitchwheel,0,0,3,,,,,,,,,3,,0,,
0,control_change,0,0,3,,,,,,,1,0,3,,,,
0,control_change,0,0,3,,,,,,,93,19,3,,,,
0,control_change,0,0,3,,,,,,,91,100,3,,,,
0,control_change,0,0,3,,,,,,,10,64,3,,,,
0,control_change,0,0,3,,,,,,,64,0,3,,,,
0,control_change,0,0,2,,,,,,,0,0,2,,,,
0,pitchwheel,0,0,1,,,,,,,,,1,,0,,
0,program_change,0,0,1,,,,,,,,,1,0,,,
0,control_change,0,0,1,,,,,,,7,127,1,,,,
0,program_change,0,0,3,,,,,,,,,3,0,,,
0,control_change,0,0,5,,,,,,,7,125,5,,,,
0,track_name,0,1,2,,,,,,,,,,,,,
0,time_signature,0,1,0,4,4,24,8,,,,,,,,,
0,key_signature,0,1,0,,,,,C,,,,,,,,
0,set_tempo,0,1,0,,,,,,500000,,,,,,,
0,set_tempo,0,1,0,,,,,,500000,,,,,,,
0,set_tempo,0,1,0,,,,,,500000,,,,,,,
0,marker,0,1,0,,,,,,,,,,,,,
1440,control_change,1440,0,1,,,,,,,64,0,1,,,,
1440,set_tempo,1440,1,0,,,,,,461538,,,,,,,
1440,marker,0,1,0,,,,,,,,,,,,,
1440,note_on,0,0,1,,,,,,,,,1,,,79,67
1560,note_on,0,0,1,,,,,,,,,1,,,77,68
1560,note_off,120,0,1,,,,,,,,,1,,,79,0
1680,note_on,0,0,1,,,,,,,,,1,,,75,69
1680,note_off,120,0,1,,,,,,,,,1,,,77,0
1800,note_off,120,0,1,,,,,,,,,1,,,75,0
1800,note_on,0,0,1,,,,,,,,,1,,,74,71
1895,note_off,95,0,1,,,,,,,,,1,,,74,0
1920,note_on,25,0,1,,,,,,,,,1,,,72,73
2160,note_on,2160,0,5,,,,,,,,,5,,,58,71
2160,note_on,0,0,1,,,,,,,,,1,,,70,71
2160,note_off,240,0,1,,,,,,,,,1,,,72,0
2350,note_off,190,0,1,,,,,,,,,1,,,70,0
2400,note_on,2400,0,4,,,,,,,,,4,,,62,68
2400,note_off,240,0,5,,,,,,,,,5,,,58,0
2400,note_on,50,0,1,,,,,,,,,1,,,70,68
2640,note_off,240,0,4,,,,,,,,,4,,,62,0
2640,note_on,0,0,4,,,,,,,,,4,,,65,66
2880,note_off,240,0,4,,,,,,,,,4,,,65,0
2880,note_on,0,0,4,,,,,,,,,4,,,62,66
2975,note_off,575,0,1,,,,,,,,,1,,,70,0
3120,note_on,145,0,1,,,,,,,,,1,,,74,67
3120,note_on,720,0,5,,,,,,,,,5,,,58,67
3120,note_off,240,0,4,,,,,,,,,4,,,62,0
3360,note_off,240,0,5,,,,,,,,,5,,,58,0
3360,note_off,240,0,1,,,,,,,,,1,,,74,0
3360,note_on,0,0,1,,,,,,,,,1,,,79,68
3360,note_on,240,0,4,,,,,,,,,4,,,62,68
3600,note_off,240,0,4,,,,,,,,,4,,,62,0
3600,note_off,240,0,1,,,,,,,,,1,,,79,0
3600,note_on,0,0,1,,,,,,,,,1,,,74,70
3600,note_on,0,0,4,,,,,,,,,4,,,67,70
3790,note_off,190,0,1,,,,,,,,,1,,,74,0
3790,note_off,190,0,4,,,,,,,,,4,,,67,0
3840,marker,2400,1,0,,,,,,,,,,,,,
3840,note_on,50,0,1,,,,,,,,,1,,,77,73
4080,note_on,720,0,5,,,,,,,,,5,,,60,69
4320,note_off,480,0,1,,,,,,,,,1,,,77,0
4320,note_on,0,0,1,,,,,,,,,1,,,75,66
4320,note_on,530,0,4,,,,,,,,,4,,,63,66
4320,note_off,240,0,5,,,,,,,,,5,,,60,0
4560,note_on,0,0,4,,,,,,,,,4,,,67,62
4560,note_off,240,0,4,,,,,,,,,4,,,63,0
4800,note_off,240,0,4,,,,,,,,,4,,,67,0
4800,note_on,0,0,4,,,,,,,,,4,,,63,58
4895,note_off,575,0,1,,,,,,,,,1,,,75,0
5040,note_on,720,0,5,,,,,,,,,5,,,60,61
5040,note_off,240,0,4,,,,,,,,,4,,,63,0
5040,note_on,145,0,1,,,,,,,,,1,,,77,61
5160,note_on,0,0,1,,,,,,,,,1,,,79,62
5160,note_off,120,0,1,,,,,,,,,1,,,77,0
5280,note_on,0,0,1,,,,,,,,,1,,,77,63
5280,note_off,120,0,1,,,,,,,,,1,,,79,0
5280,note_off,240,0,5,,,,,,,,,5,,,60,0
5280,note_on,240,0,4,,,,,,,,,4,,,63,63
5400,note_on,0,0,1,,,,,,,,,1,,,75,64
5400,note_off,120,0,1,,,,,,,,,1,,,77,0
5520,note_off,120,0,1,,,,,,,,,1,,,75,0
5520,note_on,0,0,1,,,,,,,,,1,,,74,65
5520,note_on,0,0,4,,,,,,,,,4,,,67,65
5520,note_off,240,0,4,,,,,,,,,4,,,63,0
5640,note_off,120,0,1,,,,,,,,,1,,,74,0
5640,note_on,0,0,1,,,,,,,,,1,,,72,67
5710,note_off,190,0,4,,,,,,,,,4,,,67,0
5735,note_off,95,0,1,,,,,,,,,1,,,72,0
5760,note_on,25,0,1,,,,,,,,,1,,,70,68
5760,marker,1920,1,0,,,,,,,,,,,,,
6000,note_on,720,0,5,,,,,,,,,5,,,53,65
6240,note_on,530,0,4,,,,,,,,,4,,,60,62
6240,note_off,480,0,1,,,,,,,,,1,,,70,0
6240,note_off,240,0,5,,,,,,,,,5,,,53,0
6240,note_on,0,0,1,,,,,,,,,1,,,69,62
6480,note_on,0,0,4,,,,,,,,,4,,,63,59
6480,note_off,240,0,4,,,,,,,,,4,,,60,0
6720,note_off,240,0,4,,,,,,,,,4,,,63,0
6720,note_on,0,0,4,,,,,,,,,4,,,60,59
6815,note_off,575,0,1,,,,,,,,,1,,,69,0
6960,note_on,145,0,1,,,,,,,,,1,,,69,61
6960,note_off,240,0,4,,,,,,,,,4,,,60,0
6960,note_on,720,0,5,,,,,,,,,5,,,53,61
7200,note_off,240,0,5,,,,,,,,,5,,,53,0
7200,note_off,240,0,1,,,,,,,,,1,,,69,0
7200,note_on,240,0,4,,,,,,,,,4,,,60,63
7200,note_on,0,0,1,,,,,,,,,1,,,70,63
7440,note_off,240,0,1,,,,,,,,,1,,,70,0
7440,note_on,0,0,1,,,,,,,,,1,,,72,65
7440,note_on,0,0,4,,,,,,,,,4,,,63,65
7440,note_off,240,0,4,,,,,,,,,4,,,60,0
7630,note_off,190,0,4,,,,,,,,,4,,,63,0
7630,note_off,190,0,1,,,,,,,,,1,,,72,0
7680,note_on,50,0,1,,,,,,,,,1,,,72,67
7680,note_on,7680,0,2,,,,,,,,,2,,,69,67
7920,note_on,720,0,5,,,,,,,,,5,,,58,63
8160,note_on,530,0,4,,,,,,,,,4,,,62,60
8160,note_on,0,0,2,,,,,,,,,2,,,70,60
8160,note_on,0,0,1,,,,,,,,,1,,,74,60
8160,note_off,480,0,1,,,,,,,,,1,,,72,0
8160,note_off,240,0,5,,,,,,,,,5,,,58,0
8160,note_off,480,0,2,,,,,,,,,2,,,69,0
8400,note_on,0,0,4,,,,,,,,,4,,,65,57
8400,note_off,240,0,4,,,,,,,,,4,,,62,0
8545,note_off,385,0,2,,,,,,,,,2,,,70,0
8545,note_off,385,0,1,,,,,,,,,1,,,74,0
8640,note_on,0,0,4,,,,,,,,,4,,,62,54
8640,note_off,240,0,4,,,,,,,,,4,,,65,0
8880,note_on,335,0,1,,,,,,,,,1,,,77,57
8880,note_on,720,0,5,,,,,,,,,5,,,58,57
8880,note_off,240,0,4,,,,,,,,,4,,,62,0
9000,note_on,0,0,1,,,,,,,,,1,,,76,58
9000,note_off,120,0,1,,,,,,,,,1,,,77,0
9120,note_off,240,0,5,,,,,,,,,5,,,58,0
9120,note_on,0,0,1,,,,,,,,,1,,,79,59
9120,note_off,120,0,1,,,,,,,,,1,,,76,0
9120,note_on,240,0,4,,,,,,,,,4,,,62,59
9240,note_on,0,0,1,,,,,,,,,1,,,77,61
9240,note_off,120,0,1,,,,,,,,,1,,,79,0
9360,note_off,120,0,1,,,,,,,,,1,,,77,0
9360,note_on,0,0,1,,,,,,,,,1,,,75,62
9360,note_on,0,0,4,,,,,,,,,4,,,65,62
9360,note_off,240,0,4,,,,,,,,,4,,,62,0
9480,note_on,0,0,1,,,,,,,,,1,,,74,63
9480,note_off,120,0,1,,,,,,,,,1,,,75,0
9550,note_off,190,0,4,,,,,,,,,4,,,65,0
9560,set_tempo,3800,1,0,,,,,,465116,,,,,,,
9575,note_off,95,0,1,,,,,,,,,1,,,74,0
9600,note_on,25,0,1,,,,,,,,,1,,,74,67
9600,note_on,480,0,5,,,,,,,,,5,,,63,67
9840,note_on,290,0,4,,,,,,,,,4,,,67,65
9840,note_off,240,0,1,,,,,,,,,1,,,74,0
9840,note_off,240,0,5,,,,,,,,,5,,,63,0
9840,note_on,0,0,1,,,,,,,,,1,,,72,65
10080,note_off,240,0,4,,,,,,,,,4,,,67,0
10080,note_on,240,0,5,,,,,,,,,5,,,62,64
10225,note_off,385,0,1,,,,,,,,,1,,,72,0
10320,note_on,240,0,4,,,,,,,,,4,,,65,62
10320,note_off,240,0,5,,,,,,,,,5,,,62,0
10320,note_on,95,0,1,,,,,,,,,1,,,70,62
10560,note_off,240,0,4,,,,,,,,,4,,,65,0
10560,note_off,240,0,1,,,,,,,,,1,,,70,0
10560,note_on,0,0,1,,,,,,,,,1,,,74,60
10560,note_on,240,0,5,,,,,,,,,5,,,63,60
10800,note_on,240,0,4,,,,,,,,,4,,,67,58
10800,note_off,240,0,1,,,,,,,,,1,,,74,0
10800,note_on,0,0,1,,,,,,,,,1,,,72,58
10800,note_off,240,0,5,,,,,,,,,5,,,63,0
11040,note_off,240,0,4,,,,,,,,,4,,,67,0
11040,note_on,240,0,5,,,,,,,,,5,,,60,56
11185,note_off,385,0,1,,,,,,,,,1,,,72,0
11280,note_off,240,0,5,,,,,,,,,5,,,60,0
11280,note_on,95,0,1,,,,,,,,,1,,,69,55
11280,note_on,240,0,4,,,,,,,,,4,,,63,55
11470,note_off,190,0,1,,,,,,,,,1,,,69,0
11470,note_off,190,0,4,,,,,,,,,4,,,63,0
11480,set_tempo,1920,1,0,,,,,,472440,,,,,,,
11520,note_on,240,0,5,,,,,,,,,5,,,62,57
11520,note_on,50,0,1,,,,,,,,,1,,,70,57
11520,note_on,50,0,4,,,,,,,,,4,,,65,57
11520,set_tempo,40,1,0,,,,,,461538,,,,,,,
11640,note_off,120,0,1,,,,,,,,,1,,,70,0
11640,note_on,0,0,1,,,,,,,,,1,,,72,58
11760,note_on,0,0,1,,,,,,,,,1,,,70,59
11760,note_off,120,0,1,,,,,,,,,1,,,72,0
11880,note_off,120,0,1,,,,,,,,,1,,,70,0
11880,note_on,0,0,1,,,,,,,,,1,,,69,60
11905,note_off,385,0,5,,,,,,,,,5,,,62,0
11905,note_off,385,0,4,,,,,,,,,4,,,65,0
12000,note_off,120,0,1,,,,,,,,,1,,,69,0
12000,note_on,0,0,1,,,,,,,,,1,,,70,61
12120,note_on,0,0,1,,,,,,,,,1,,,72,62
12120,note_off,120,0,1,,,,,,,,,1,,,70,0
12240,note_on,0,0,1,,,,,,,,,1,,,74,64
12240,note_off,120,0,1,,,,,,,,,1,,,72,0
12360,note_on,0,0,1,,,,,,,,,1,,,75,65
12360,note_off,120,0,1,,,,,,,,,1,,,74,0
12480,note_on,0,0,1,,,,,,,,,1,,,76,66
12480,note_off,120,0,1,,,,,,,,,1,,,75,0
12600,note_on,0,0,1,,,,,,,,,1,,,77,67
12600,note_off,120,0,1,,,,,,,,,1,,,76,0
12720,note_on,0,0,1,,,,,,,,,1,,,76,68
12720,note_off,120,0,1,,,,,,,,,1,,,77,0
12840,note_on,0,0,1,,,,,,,,,1,,,77,69
12840,note_off,120,0,1,,,,,,,,,1,,,76,0
12960,note_off,120,0,1,,,,,,,,,1,,,77,0
12960,note_on,0,0,1,,,,,,,,,1,,,79,70
13080,note_off,120,0,1,,,,,,,,,1,,,79,0
13080,note_on,0,0,1,,,,,,,,,1,,,77,71
13200,note_off,120,0,1,,,,,,,,,1,,,77,0
13200,note_on,0,0,1,,,,,,,,,1,,,75,72
13320,note_off,120,0,1,,,,,,,,,1,,,75,0
13320,note_on,0,0,1,,,,,,,,,1,,,74,73
13400,set_tempo,1880,1,0,,,,,,465116,,,,,,,
13415,note_off,95,0,1,,,,,,,,,1,,,74,0
13440,note_on,25,0,1,,,,,,,,,1,,,74,74
13440,note_on,1535,0,5,,,,,,,,,5,,,63,74
13680,note_off,240,0,1,,,,,,,,,1,,,74,0
13680,note_on,0,0,1,,,,,,,,,1,,,72,72
13680,note_on,1775,0,4,,,,,,,,,4,,,67,72
13680,note_off,240,0,5,,,,,,,,,5,,,63,0
13870,note_off,190,0,1,,,,,,,,,1,,,72,0
13920,note_on,240,0,5,,,,,,,,,5,,,62,70
13920,note_on,50,0,1,,,,,,,,,1,,,72,70
13920,note_off,240,0,4,,,,,,,,,4,,,67,0
14160,note_off,240,0,1,,,,,,,,,1,,,72,0
14160,note_off,240,0,5,,,,,,,,,5,,,62,0
14160,note_on,240,0,4,,,,,,,,,4,,,65,69
14160,note_on,0,0,1,,,,,,,,,1,,,70,69
14350,note_off,190,0,1,,,,,,,,,1,,,70,0
14400,note_on,240,0,5,,,,,,,,,5,,,63,68
14400,note_off,240,0,4,,,,,,,,,4,,,65,0
14400,note_on,50,0,1,,,,,,,,,1,,,74,68
14640,note_off,240,0,1,,,,,,,,,1,,,74,0
14640,note_on,0,0,1,,,,,,,,,1,,,72,66
14640,note_off,240,0,5,,,,,,,,,5,,,63,0
14640,note_on,240,0,4,,,,,,,,,4,,,67,66
14830,note_off,190,0,1,,,,,,,,,1,,,72,0
14880,note_on,50,0,1,,,,,,,,,1,,,72,65
14880,note_on,240,0,5,,,,,,,,,5,,,60,65
14880,note_off,240,0,4,,,,,,,,,4,,,67,0
15120,note_off,240,0,1,,,,,,,,,1,,,72,0
15120,note_off,240,0,5,,,,,,,,,5,,,60,0
15120,note_on,240,0,4,,,,,,,,,4,,,63,63
15120,note_on,0,0,1,,,,,,,,,1,,,69,63
15310,note_off,190,0,4,,,,,,,,,4,,,63,0
15310,note_off,190,0,1,,,,,,,,,1,,,69,0
15320,set_tempo,1920,1,0,,,,,,472440,,,,,,,
15360,note_on,50,0,1,,,,,,,,,1,,,70,65
15360,note_on,240,0,5,,,,,,,,,5,,,62,65
15360,set_tempo,40,1,0,,,,,,461538,,,,,,,
15360,note_on,50,0,4,,,,,,,,,4,,,65,65
15600,note_off,240,0,1,,,,,,,,,1,,,70,0
15600,note_on,0,0,1,,,,,,,,,1,,,72,67
15720,note_off,120,0,1,,,,,,,,,1,,,72,0
15720,note_on,0,0,1,,,,,,,,,1,,,74,68
15745,note_off,385,0,5,,,,,,,,,5,,,62,0
15745,note_off,385,0,4,,,,,,,,,4,,,65,0
15840,note_off,120,0,1,,,,,,,,,1,,,74,0
15840,note_on,0,0,1,,,,,,,,,1,,,75,69
15960,note_on,0,0,1,,,,,,,,,1,,,77,70
15960,note_off,120,0,1,,,,,,,,,1,,,75,0
16080,note_off,120,0,1,,,,,,,,,1,,,77,0
16080,note_on,0,0,1,,,,,,,,,1,,,79,72
16200,note_off,120,0,1,,,,,,,,,1,,,79,0
16200,note_on,0,0,1,,,,,,,,,1,,,81,73
16320,note_on,0,0,1,,,,,,,,,1,,,82,74
16320,note_off,120,0,1,,,,,,,,,1,,,81,0
16440,note_off,120,0,1,,,,,,,,,1,,,82,0
16440,note_on,0,0,1,,,,,,,,,1,,,84,75
16560,note_off,120,0,1,,,,,,,,,1,,,84,0
16560,note_on,0,0,1,,,,,,,,,1,,,86,76
16680,note_on,0,0,1,,,,,,,,,1,,,87,77
16680,note_off,120,0,1,,,,,,,,,1,,,86,0
16800,note_on,0,0,1,,,,,,,,,1,,,89,78
16800,note_off,120,0,1,,,,,,,,,1,,,87,0
16955,note_off,155,0,1,,,,,,,,,1,,,89,0
17040,note_on,85,0,1,,,,,,,,,1,,,89,82
17195,note_off,155,0,1,,,,,,,,,1,,,89,0
17240,set_tempo,1880,1,0,,,,,,465116,,,,,,,
17280,set_tempo,40,1,0,,,,,,461538,,,,,,,
17280,note_on,85,0,1,,,,,,,,,1,,,89,85
17280,note_on,1535,0,5,,,,,,,,,5,,,57,85
17280,note_on,8735,0,2,,,,,,,,,2,,,77,85
17520,note_off,240,0,1,,,,,,,,,1,,,89,0
17520,note_on,0,0,1,,,,,,,,,1,,,87,83
17665,note_off,385,0,5,,,,,,,,,5,,,57,0
17760,note_on,95,0,5,,,,,,,,,5,,,58,82
18000,note_on,0,0,1,,,,,,,,,1,,,86,80
18000,note_off,480,0,1,,,,,,,,,1,,,87,0
18145,note_off,385,0,5,,,,,,,,,5,,,58,0
18190,note_off,190,0,1,,,,,,,,,1,,,86,0
18240,note_on,95,0,5,,,,,,,,,5,,,51,79
18240,note_on,50,0,1,,,,,,,,,1,,,86,79
18472,note_off,1192,0,2,,,,,,,,,2,,,77,0
18480,note_on,8,0,2,,,,,,,,,2,,,75,77
18480,note_on,0,0,1,,,,,,,,,1,,,84,77
18480,note_off,240,0,1,,,,,,,,,1,,,86,0
18600,note_off,120,0,2,,,,,,,,,2,,,75,0
18605,note_off,125,0,1,,,,,,,,,1,,,84,0
18625,note_off,385,0,5,,,,,,,,,5,,,51,0
18720,note_on,95,0,5,,,,,,,,,5,,,53,75
18720,note_on,120,0,2,,,,,,,,,2,,,74,75
18720,note_on,115,0,1,,,,,,,,,1,,,82,75
18845,note_off,125,0,1,,,,,,,,,1,,,82,0
18845,note_off,125,0,2,,,,,,,,,2,,,74,0
18960,note_on,115,0,2,,,,,,,,,2,,,72,74
18960,note_on,115,0,1,,,,,,,,,1,,,81,74
19080,note_off,120,0,1,,,,,,,,,1,,,81,0
19085,note_off,125,0,2,,,,,,,,,2,,,72,0
19105,note_off,385,0,5,,,,,,,,,5,,,53,0
19160,set_tempo,1880,1,0,,,,,,465116,,,,,,,
19200,note_on,120,0,1,,,,,,,,,1,,,82,73
19440,note_on,335,0,5,,,,,,,,,5,,,46,67
19510,note_off,310,0,1,,,,,,,,,1,,,82,0
19560,note_off,120,0,5,,,,,,,,,5,,,46,0
19680,note_on,120,0,5,,,,,,,,,5,,,50,60
19680,note_on,170,0,1,,,,,,,,,1,,,70,60
19800,note_off,120,0,5,,,,,,,,,5,,,50,0
19920,note_on,120,0,5,,,,,,,,,5,,,53,54
19990,note_off,310,0,1,,,,,,,,,1,,,70,0
20040,note_off,120,0,5,,,,,,,,,5,,,53,0
20160,note_on,120,0,5,,,,,,,,,5,,,58,47
20510,set_tempo,1350,1,0,,,,,,472440,,,,,,,
20580,note_off,420,0,5,,,,,,,,,5,,,58,0
20640,note_on,650,0,1,,,,,,,,,1,,,67,41
20640,set_tempo,130,1,0,,,,,,461538,,,,,,,
20760,note_on,0,0,1,,,,,,,,,1,,,65,42
20760,note_off,120,0,1,,,,,,,,,1,,,67,0
20880,note_off,120,0,1,,,,,,,,,1,,,65,0
20880,note_on,0,0,1,,,,,,,,,1,,,63,43
21000,note_off,120,0,1,,,,,,,,,1,,,63,0
21000,note_on,0,0,1,,,,,,,,,1,,,62,44
21095,note_off,95,0,1,,,,,,,,,1,,,62,0
21120,note_on,25,0,1,,,,,,,,,1,,,60,45
21360,note_on,780,0,5,,,,,,,,,5,,,46,43
21360,note_on,0,0,1,,,,,,,,,1,,,58,43
21360,note_off,240,0,1,,,,,,,,,1,,,60,0
21550,note_off,190,0,1,,,,,,,,,1,,,58,0
21600,note_off,240,0,5,,,,,,,,,5,,,46,0
21600,note_on,50,0,1,,,,,,,,,1,,,58,41
21600,note_on,5855,0,4,,,,,,,,,4,,,50,41
21840,note_on,0,0,4,,,,,,,,,4,,,53,39
21840,note_off,240,0,4,,,,,,,,,4,,,50,0
22080,note_on,0,0,4,,,,,,,,,4,,,50,38
22080,note_off,240,0,4,,,,,,,,,4,,,53,0
22175,note_off,575,0,1,,,,,,,,,1,,,58,0
22320,note_on,720,0,5,,,,,,,,,5,,,46,40
22320,note_off,240,0,4,,,,,,,,,4,,,50,0
22320,note_on,145,0,1,,,,,,,,,1,,,70,39
22560,note_off,240,0,5,,,,,,,,,5,,,46,0
22560,note_on,0,0,1,,,,,,,,,1,,,69,42
22560,note_on,240,0,4,,,,,,,,,4,,,50,41
22560,note_off,240,0,1,,,,,,,,,1,,,70,0
22800,note_off,240,0,4,,,,,,,,,4,,,50,0
22800,note_on,0,0,4,,,,,,,,,4,,,55,43
22800,note_on,0,0,1,,,,,,,,,1,,,67,44
22800,note_off,240,0,1,,,,,,,,,1,,,69,0
22990,note_off,190,0,1,,,,,,,,,1,,,67,0
22990,note_off,190,0,4,,,,,,,,,4,,,55,0
23040,note_on,50,0,1,,,,,,,,,1,,,65,47
23280,note_on,720,0,5,,,,,,,,,5,,,48,43
23520,note_on,530,0,4,,,,,,,,,4,,,55,42
23520,note_on,0,0,1,,,,,,,,,1,,,64,42
23520,note_off,480,0,1,,,,,,,,,1,,,65,0
23520,note_off,240,0,5,,,,,,,,,5,,,48,0
23760,note_off,240,0,4,,,,,,,,,4,,,55,0
23760,note_on,0,0,4,,,,,,,,,4,,,58,41
23905,note_off,385,0,1,,,,,,,,,1,,,64,0
24000,note_on,0,0,4,,,,,,,,,4,,,55,41
24000,note_off,240,0,4,,,,,,,,,4,,,58,0
24120,note_on,215,0,1,,,,,,,,,1,,,67,42
24240,note_on,0,0,1,,,,,,,,,1,,,65,43
24240,note_on,720,0,5,,,,,,,,,5,,,48,43
24240,note_off,240,0,4,,,,,,,,,4,,,55,0
24240,note_off,120,0,1,,,,,,,,,1,,,67,0
24360,note_off,120,0,1,,,,,,,,,1,,,65,0
24360,note_on,0,0,1,,,,,,,,,1,,,69,44
24480,note_on,240,0,4,,,,,,,,,4,,,55,45
24480,note_off,240,0,5,,,,,,,,,5,,,48,0
24480,note_on,0,0,1,,,,,,,,,1,,,67,45
24480,note_off,120,0,1,,,,,,,,,1,,,69,0
24600,note_on,0,0,1,,,,,,,,,1,,,70,45
24600,note_off,120,0,1,,,,,,,,,1,,,67,0
24720,note_on,0,0,1,,,,,,,,,1,,,69,46
24720,note_off,120,0,1,,,,,,,,,1,,,70,0
24720,note_off,240,0,4,,,,,,,,,4,,,55,0
24720,note_on,0,0,4,,,,,,,,,4,,,58,46
24840,note_on,0,0,1,,,,,,,,,1,,,72,47
24840,note_off,120,0,1,,,,,,,,,1,,,69,0
24910,note_off,190,0,4,,,,,,,,,4,,,58,0
24960,note_on,0,0,1,,,,,,,,,1,,,70,48
24960,note_off,120,0,1,,,,,,,,,1,,,72,0
25080,note_off,120,0,1,,,,,,,,,1,,,70,0
25080,note_on,0,0,1,,,,,,,,,1,,,67,49
25200,note_off,120,0,1,,,,,,,,,1,,,67,0
25200,note_on,0,0,1,,,,,,,,,1,,,76,50
25200,note_on,720,0,5,,,,,,,,,5,,,52,50
25320,note_off,120,0,1,,,,,,,,,1,,,76,0
25320,note_on,0,0,1,,,,,,,,,1,,,72,51
25440,note_on,25440,0,3,,,,,,,,,3,,,55,52
25440,note_off,240,0,5,,,,,,,,,5,,,52,0
25440,note_on,0,0,1,,,,,,,,,1,,,79,52
25440,note_off,120,0,1,,,,,,,,,1,,,72,0
25560,note_on,0,0,1,,,,,,,,,1,,,76,53
25560,note_off,120,0,1,,,,,,,,,1,,,79,0
25680,note_on,0,0,1,,,,,,,,,1,,,82,54
25680,note_on,0,0,3,,,,,,,,,3,,,60,54
25680,note_off,240,0,3,,,,,,,,,3,,,55,0
25680,note_off,120,0,1,,,,,,,,,1,,,76,0
25800,note_off,120,0,1,,,,,,,,,1,,,82,0
25800,note_on,0,0,1,,,,,,,,,1,,,81,55
25920,note_off,240,0,3,,,,,,,,,3,,,60,0
25920,note_off,120,0,1,,,,,,,,,1,,,81,0
25920,note_on,0,0,1,,,,,,,,,1,,,82,56
25920,note_on,0,0,3,,,,,,,,,3,,,55,56
26040,note_on,0,0,1,,,,,,,,,1,,,81,57
26040,note_off,120,0,1,,,,,,,,,1,,,82,0
26160,note_on,720,0,5,,,,,,,,,5,,,52,58
26160,note_off,120,0,1,,,,,,,,,1,,,81,0
26160,note_on,0,0,1,,,,,,,,,1,,,79,58
26160,note_off,240,0,3,,,,,,,,,3,,,55,0
26280,note_on,0,0,1,,,,,,,,,1,,,77,58
26280,note_off,120,0,1,,,,,,,,,1,,,79,0
26400,note_on,240,0,3,,,,,,,,,3,,,55,59
26400,note_on,0,0,1,,,,,,,,,1,,,76,59
26400,note_off,120,0,1,,,,,,,,,1,,,77,0
26400,note_off,240,0,5,,,,,,,,,5,,,52,0
26520,note_on,0,0,1,,,,,,,,,1,,,74,60
26520,note_off,120,0,1,,,,,,,,,1,,,76,0
26640,note_off,240,0,3,,,,,,,,,3,,,55,0
26640,note_on,0,0,1,,,,,,,,,1,,,72,61
26640,note_off,120,0,1,,,,,,,,,1,,,74,0
26640,note_on,0,0,3,,,,,,,,,3,,,60,61
26760,note_on,0,0,1,,,,,,,,,1,,,70,62
26760,note_off,120,0,1,,,,,,,,,1,,,72,0
26830,note_off,190,0,3,,,,,,,,,3,,,60,0
26840,set_tempo,6200,1,0,,,,,,465116,,,,,,,
26855,note_off,95,0,1,,,,,,,,,1,,,70,0
26880,note_on,25,0,1,,,,,,,,,1,,,70,67
26880,set_tempo,40,1,0,,,,,,461538,,,,,,,
27000,note_off,120,0,1,,,,,,,,,1,,,70,0
27000,note_on,0,0,1,,,,,,,,,1,,,69,63
27120,note_off,120,0,1,,,,,,,,,1,,,69,0
27120,note_on,0,0,1,,,,,,,,,1,,,74,61
27120,note_on,720,0,5,,,,,,,,,5,,,53,61
27240,note_off,120,0,1,,,,,,,,,1,,,74,0
27240,note_on,0,0,1,,,,,,,,,1,,,72,59
27335,note_off,95,0,1,,,,,,,,,1,,,72,0
27360,note_off,240,0,5,,,,,,,,,5,,,53,0
27360,note_on,530,0,3,,,,,,,,,3,,,57,58
27360,note_on,25,0,1,,,,,,,,,1,,,72,56
27600,note_on,0,0,3,,,,,,,,,3,,,60,55
27600,note_off,240,0,3,,,,,,,,,3,,,57,0
27840,note_on,0,0,3,,,,,,,,,3,,,57,51
27840,note_off,240,0,3,,,,,,,,,3,,,60,0
27840,note_off,480,0,1,,,,,,,,,1,,,72,0
28080,note_off,240,0,3,,,,,,,,,3,,,57,0
28080,note_on,720,0,5,,,,,,,,,5,,,53,47
28320,note_off,240,0,5,,,,,,,,,5,,,53,0
28320,note_on,240,0,3,,,,,,,,,3,,,57,43
28320,note_on,480,0,1,,,,,,,,,1,,,86,43
28440,note_off,120,0,1,,,,,,,,,1,,,86,0
28440,note_on,0,0,1,,,,,,,,,1,,,84,45
28560,note_off,120,0,1,,,,,,,,,1,,,84,0
28560,note_on,0,0,1,,,,,,,,,1,,,82,46
28560,note_off,240,0,3,,,,,,,,,3,,,57,0
28560,note_on,0,0,3,,,,,,,,,3,,,60,46
28680,note_on,0,0,1,,,,,,,,,1,,,81,48
28680,note_off,120,0,1,,,,,,,,,1,,,82,0
28750,note_off,190,0,3,,,,,,,,,3,,,60,0
28775,note_off,95,0,1,,,,,,,,,1,,,81,0
28800,note_on,25,0,1,,,,,,,,,1,,,79,50
28800,note_on,480,0,5,,,,,,,,,5,,,58,50
29040,note_on,290,0,3,,,,,,,,,3,,,60,45
29160,note_off,360,0,5,,,,,,,,,5,,,58,0
29280,note_off,240,0,3,,,,,,,,,3,,,60,0
29280,note_on,120,0,5,,,,,,,,,5,,,58,44
29520,note_on,240,0,3,,,,,,,,,3,,,60,42
29520,note_on,0,0,1,,,,,,,,,1,,,76,42
29520,note_off,720,0,1,,,,,,,,,1,,,79,0
29640,note_off,360,0,5,,,,,,,,,5,,,58,0
29760,note_on,120,0,5,,,,,,,,,5,,,57,43
29760,note_off,240,0,1,,,,,,,,,1,,,76,0
29760,note_off,240,0,3,,,,,,,,,3,,,60,0
29760,note_on,0,0,1,,,,,,,,,1,,,77,43
29855,note_off,95,0,1,,,,,,,,,1,,,77,0
29880,note_on,25,0,1,,,,,,,,,1,,,84,44
30000,note_on,240,0,3,,,,,,,,,3,,,60,45
30000,note_off,120,0,1,,,,,,,,,1,,,84,0
30000,note_on,0,0,1,,,,,,,,,1,,,83,45
30120,note_off,360,0,5,,,,,,,,,5,,,57,0
30120,note_on,0,0,1,,,,,,,,,1,,,84,46
30120,note_off,120,0,1,,,,,,,,,1,,,83,0
30240,note_on,120,0,5,,,,,,,,,5,,,57,48
30240,note_on,0,0,1,,,,,,,,,1,,,86,48
30240,note_off,120,0,1,,,,,,,,,1,,,84,0
30240,note_off,240,0,3,,,,,,,,,3,,,60,0
30360,note_off,120,0,1,,,,,,,,,1,,,86,0
30360,note_on,0,0,1,,,,,,,,,1,,,84,49
30480,note_on,240,0,3,,,,,,,,,3,,,60,50
30480,note_off,120,0,1,,,,,,,,,1,,,84,0
30480,note_on,0,0,1,,,,,,,,,1,,,82,50
30600,note_off,120,0,1,,,,,,,,,1,,,82,0
30600,note_on,0,0,1,,,,,,,,,1,,,81,51
30600,note_off,360,0,5,,,,,,,,,5,,,57,0
30670,note_off,190,0,3,,,,,,,,,3,,,60,0
30695,note_off,95,0,1,,,,,,,,,1,,,81,0
30720,note_on,120,0,5,,,,,,,,,5,,,58,53
30720,note_on,25,0,1,,,,,,,,,1,,,79,53
30875,note_off,155,0,1,,,,,,,,,1,,,79,0
30960,note_on,85,0,1,,,,,,,,,1,,,79,50
30960,note_on,290,0,3,,,,,,,,,3,,,60,52
31080,note_off,360,0,5,,,,,,,,,5,,,58,0
31200,note_off,240,0,3,,,,,,,,,3,,,60,0
31200,note_on,120,0,5,,,,,,,,,5,,,58,50
31440,note_on,0,0,1,,,,,,,,,1,,,76,49
31440,note_off,480,0,1,,,,,,,,,1,,,79,0
31440,note_on,240,0,3,,,,,,,,,3,,,60,49
31560,note_off,360,0,5,,,,,,,,,5,,,58,0
31680,note_off,240,0,1,,,,,,,,,1,,,76,0
31680,note_off,240,0,3,,,,,,,,,3,,,60,0
31680,note_on,0,0,1,,,,,,,,,1,,,77,48
31680,note_on,120,0,5,,,,,,,,,5,,,57,48
31775,note_off,95,0,1,,,,,,,,,1,,,77,0
31800,note_on,25,0,1,,,,,,,,,1,,,84,49
31920,note_on,240,0,3,,,,,,,,,3,,,60,50
31920,note_on,0,0,1,,,,,,,,,1,,,83,50
31920,note_off,120,0,1,,,,,,,,,1,,,84,0
32040,note_off,360,0,5,,,,,,,,,5,,,57,0
32040,note_off,120,0,1,,,,,,,,,1,,,83,0
32040,note_on,0,0,1,,,,,,,,,1,,,84,52
32160,note_on,120,0,5,,,,,,,,,5,,,57,53
32160,note_off,240,0,3,,,,,,,,,3,,,60,0
32160,note_on,0,0,1,,,,,,,,,1,,,86,53
32160,note_off,120,0,1,,,,,,,,,1,,,84,0
32280,note_on,0,0,1,,,,,,,,,1,,,84,54
32280,note_off,120,0,1,,,,,,,,,1,,,86,0
32400,note_on,0,0,1,,,,,,,,,1,,,82,55
32400,note_on,240,0,3,,,,,,,,,3,,,60,55
32400,note_off,120,0,1,,,,,,,,,1,,,84,0
32520,note_on,0,0,1,,,,,,,,,1,,,81,57
32520,note_off,120,0,1,,,,,,,,,1,,,82,0
32520,note_off,360,0,5,,,,,,,,,5,,,57,0
32590,note_off,190,0,3,,,,,,,,,3,,,60,0
32600,set_tempo,5720,1,0,,,,,,465116,,,,,,,
32615,note_off,95,0,1,,,,,,,,,1,,,81,0
32640,note_on,25,0,1,,,,,,,,,1,,,81,59
32640,note_on,120,0,5,,,,,,,,,5,,,58,58
32880,note_on,0,0,1,,,,,,,,,1,,,79,58
32880,note_off,240,0,1,,,,,,,,,1,,,81,0
32880,note_on,290,0,3,,,,,,,,,3,,,62,58
33000,note_off,360,0,5,,,,,,,,,5,,,58,0
33070,note_off,190,0,1,,,,,,,,,1,,,79,0
33120,note_on,120,0,5,,,,,,,,,5,,,58,55
33120,note_off,240,0,3,,,,,,,,,3,,,62,0
33360,note_on,240,0,3,,,,,,,,,3,,,62,53
33360,note_on,290,0,1,,,,,,,,,1,,,79,54
33480,note_off,360,0,5,,,,,,,,,5,,,58,0
33480,note_off,120,0,1,,,,,,,,,1,,,79,0
33600,note_on,120,0,1,,,,,,,,,1,,,79,52
33600,note_on,120,0,5,,,,,,,,,5,,,59,51
33600,note_off,240,0,3,,,,,,,,,3,,,62,0
33840,note_off,240,0,1,,,,,,,,,1,,,79,0
33840,note_on,0,0,1,,,,,,,,,1,,,77,50
33840,note_on,240,0,3,,,,,,,,,3,,,62,49
33960,note_off,360,0,5,,,,,,,,,5,,,59,0
34030,note_off,190,0,1,,,,,,,,,1,,,77,0
34080,note_on,120,0,5,,,,,,,,,5,,,59,47
34080,note_off,240,0,3,,,,,,,,,3,,,62,0
34320,note_on,290,0,1,,,,,,,,,1,,,77,47
34320,note_on,240,0,3,,,,,,,,,3,,,62,44
34440,note_off,120,0,1,,,,,,,,,1,,,77,0
34440,note_off,360,0,5,,,,,,,,,5,,,59,0
34500,set_tempo,1900,1,0,,,,,,472440,,,,,,,
34510,note_off,190,0,3,,,,,,,,,3,,,62,0
34560,note_on,120,0,5,,,,,,,,,5,,,60,46
34560,set_tempo,60,1,0,,,,,,461538,,,,,,,
34560,note_on,120,0,1,,,,,,,,,1,,,76,46
34655,note_off,95,0,1,,,,,,,,,1,,,76,0
34680,note_on,25,0,1,,,,,,,,,1,,,77,47
34775,note_off,95,0,1,,,,,,,,,1,,,77,0
34800,note_on,25,0,1,,,,,,,,,1,,,76,48
34895,note_off,95,0,1,,,,,,,,,1,,,76,0
34920,note_on,25,0,1,,,,,,,,,1,,,72,50
35015,note_off,95,0,1,,,,,,,,,1,,,72,0
35040,note_on,25,0,1,,,,,,,,,1,,,77,51
35040,note_off,480,0,5,,,,,,,,,5,,,60,0
35040,note_on,0,0,5,,,,,,,,,5,,,62,51
35135,note_off,95,0,1,,,,,,,,,1,,,77,0
35160,note_on,25,0,1,,,,,,,,,1,,,79,52
35255,note_off,95,0,1,,,,,,,,,1,,,79,0
35280,note_on,25,0,1,,,,,,,,,1,,,77,54
35375,note_off,95,0,1,,,,,,,,,1,,,77,0
35400,note_on,25,0,1,,,,,,,,,1,,,72,55
35495,note_off,95,0,1,,,,,,,,,1,,,72,0
35520,note_on,25,0,1,,,,,,,,,1,,,79,57
35520,note_on,0,0,5,,,,,,,,,5,,,64,57
35520,note_off,480,0,5,,,,,,,,,5,,,62,0
35615,note_off,95,0,1,,,,,,,,,1,,,79,0
35640,note_on,25,0,1,,,,,,,,,1,,,81,58
35735,note_off,95,0,1,,,,,,,,,1,,,81,0
35760,note_on,25,0,1,,,,,,,,,1,,,79,59
35855,note_off,95,0,1,,,,,,,,,1,,,79,0
35880,note_on,25,0,1,,,,,,,,,1,,,72,61
35975,note_off,95,0,1,,,,,,,,,1,,,72,0
36000,note_on,25,0,1,,,,,,,,,1,,,81,62
36000,note_on,0,0,5,,,,,,,,,5,,,65,62
36000,note_off,480,0,5,,,,,,,,,5,,,64,0
36095,note_off,95,0,1,,,,,,,,,1,,,81,0
36120,note_on,25,0,1,,,,,,,,,1,,,82,63
36215,note_off,95,0,1,,,,,,,,,1,,,82,0
36240,note_on,25,0,1,,,,,,,,,1,,,81,65
36335,note_off,95,0,1,,,,,,,,,1,,,81,0
36360,note_on,25,0,1,,,,,,,,,1,,,72,66
36385,note_off,385,0,5,,,,,,,,,5,,,65,0
36440,set_tempo,1880,1,0,,,,,,465116,,,,,,,
36455,note_off,95,0,1,,,,,,,,,1,,,72,0
36480,note_on,25,0,1,,,,,,,,,1,,,82,69
36480,note_on,95,0,5,,,,,,,,,5,,,67,69
36600,note_off,120,0,1,,,,,,,,,1,,,82,0
36720,note_on,120,0,1,,,,,,,,,1,,,82,67
36720,note_on,2210,0,3,,,,,,,,,3,,,72,67
36840,note_off,360,0,5,,,,,,,,,5,,,67,0
36840,note_off,120,0,1,,,,,,,,,1,,,82,0
36960,note_off,240,0,3,,,,,,,,,3,,,72,0
36960,note_on,120,0,5,,,,,,,,,5,,,64,66
37200,note_on,240,0,3,,,,,,,,,3,,,72,64
37200,note_on,360,0,1,,,,,,,,,1,,,79,64
37320,note_off,360,0,5,,,,,,,,,5,,,64,0
37390,note_off,190,0,1,,,,,,,,,1,,,79,0
37440,note_on,50,0,1,,,,,,,,,1,,,82,62
37440,note_off,240,0,3,,,,,,,,,3,,,72,0
37440,note_on,120,0,5,,,,,,,,,5,,,65,62
37680,note_off,240,0,1,,,,,,,,,1,,,82,0
37680,note_on,240,0,3,,,,,,,,,3,,,72,60
37680,note_on,0,0,1,,,,,,,,,1,,,81,60
37800,note_off,360,0,5,,,,,,,,,5,,,65,0
37920,note_off,240,0,1,,,,,,,,,1,,,81,0
37920,note_on,0,0,1,,,,,,,,,1,,,79,58
37920,note_off,240,0,3,,,,,,,,,3,,,72,0
37920,note_on,120,0,5,,,,,,,,,5,,,62,58
38160,note_on,240,0,3,,,,,,,,,3,,,72,57
38160,note_on,0,0,1,,,,,,,,,1,,,77,57
38160,note_off,240,0,1,,,,,,,,,1,,,79,0
38280,note_off,360,0,5,,,,,,,,,5,,,62,0
38350,note_off,190,0,1,,,,,,,,,1,,,77,0
38350,note_off,190,0,3,,,,,,,,,3,,,72,0
38360,set_tempo,1920,1,0,,,,,,472440,,,,,,,
38400,note_on,120,0,5,,,,,,,,,5,,,60,60
38400,set_tempo,40,1,0,,,,,,461538,,,,,,,
38400,note_on,50,0,1,,,,,,,,,1,,,76,60
38495,note_off,95,0,1,,,,,,,,,1,,,76,0
38520,note_on,25,0,1,,,,,,,,,1,,,72,62
38615,note_off,95,0,1,,,,,,,,,1,,,72,0
38640,note_on,25,0,1,,,,,,,,,1,,,83,64
38735,note_off,95,0,1,,,,,,,,,1,,,83,0
38760,note_on,25,0,1,,,,,,,,,1,,,84,65
38855,note_off,95,0,1,,,,,,,,,1,,,84,0
38880,note_off,480,0,5,,,,,,,,,5,,,60,0
38880,note_on,0,0,5,,,,,,,,,5,,,62,67
38880,note_on,25,0,1,,,,,,,,,1,,,77,67
38975,note_off,95,0,1,,,,,,,,,1,,,77,0
39000,note_on,25,0,1,,,,,,,,,1,,,72,69
39095,note_off,95,0,1,,,,,,,,,1,,,72,0
39120,note_on,25,0,1,,,,,,,,,1,,,83,70
39215,note_off,95,0,1,,,,,,,,,1,,,83,0
39240,note_on,25,0,1,,,,,,,,,1,,,84,72
39335,note_off,95,0,1,,,,,,,,,1,,,84,0
39360,note_on,0,0,5,,,,,,,,,5,,,64,74
39360,note_off,480,0,5,,,,,,,,,5,,,62,0
39360,note_on,25,0,1,,,,,,,,,1,,,79,74
39455,note_off,95,0,1,,,,,,,,,1,,,79,0
39480,note_on,25,0,1,,,,,,,,,1,,,72,75
39575,note_off,95,0,1,,,,,,,,,1,,,72,0
39600,note_on,25,0,1,,,,,,,,,1,,,83,77
39695,note_off,95,0,1,,,,,,,,,1,,,83,0
39720,note_on,25,0,1,,,,,,,,,1,,,84,79
39815,note_off,95,0,1,,,,,,,,,1,,,84,0
39840,note_on,25,0,1,,,,,,,,,1,,,81,80
39840,note_on,0,0,5,,,,,,,,,5,,,65,80
39840,note_off,480,0,5,,,,,,,,,5,,,64,0
39935,note_off,95,0,1,,,,,,,,,1,,,81,0
39960,note_on,25,0,1,,,,,,,,,1,,,72,82
40055,note_off,95,0,1,,,,,,,,,1,,,72,0
40080,note_on,25,0,1,,,,,,,,,1,,,83,84
40175,note_off,95,0,1,,,,,,,,,1,,,83,0
40200,note_on,25,0,1,,,,,,,,,1,,,84,85
40225,note_off,385,0,5,,,,,,,,,5,,,65,0
40280,set_tempo,1880,1,0,,,,,,465116,,,,,,,
40295,note_off,95,0,1,,,,,,,,,1,,,84,0
40320,note_on,25,0,1,,,,,,,,,1,,,82,87
40320,note_on,95,0,5,,,,,,,,,5,,,67,87
40440,note_on,2090,0,3,,,,,,,,,3,,,72,87
40475,note_off,155,0,1,,,,,,,,,1,,,82,0
40535,note_off,95,0,3,,,,,,,,,3,,,72,0
40560,note_on,85,0,1,,,,,,,,,1,,,82,86
40560,note_on,25,0,3,,,,,,,,,3,,,71,86
40655,note_off,95,0,3,,,,,,,,,3,,,71,0
40680,note_on,25,0,3,,,,,,,,,3,,,72,85
40680,note_off,360,0,5,,,,,,,,,5,,,67,0
40715,note_off,155,0,1,,,,,,,,,1,,,82,0
40775,note_off,95,0,3,,,,,,,,,3,,,72,0
40800,note_on,120,0,5,,,,,,,,,5,,,64,85
40920,note_on,145,0,3,,,,,,,,,3,,,72,84
41015,note_off,95,0,3,,,,,,,,,3,,,72,0
41040,note_on,325,0,1,,,,,,,,,1,,,79,84
41040,note_on,25,0,3,,,,,,,,,3,,,71,84
41080,note_on,0,0,1,,,,,,,,,1,,,81,83
41080,note_off,40,0,1,,,,,,,,,1,,,79,0
41120,note_off,40,0,1,,,,,,,,,1,,,81,0
41120,note_on,0,0,1,,,,,,,,,1,,,79,83
41135,note_off,95,0,3,,,,,,,,,3,,,71,0
41160,note_off,40,0,1,,,,,,,,,1,,,79,0
41160,note_on,25,0,3,,,,,,,,,3,,,72,83
41160,note_off,360,0,5,,,,,,,,,5,,,64,0
41160,note_on,0,0,1,,,,,,,,,1,,,78,83
41220,note_off,60,0,1,,,,,,,,,1,,,78,0
41220,note_on,0,0,1,,,,,,,,,1,,,79,83
41255,note_off,95,0,3,,,,,,,,,3,,,72,0
41280,note_off,60,0,1,,,,,,,,,1,,,79,0
41280,note_on,0,0,1,,,,,,,,,1,,,82,82
41280,note_on,120,0,5,,,,,,,,,5,,,65,82
41400,note_on,145,0,3,,,,,,,,,3,,,72,82
41495,note_off,95,0,3,,,,,,,,,3,,,72,0
41520,note_off,240,0,1,,,,,,,,,1,,,82,0
41520,note_on,0,0,1,,,,,,,,,1,,,81,81
41520,note_on,25,0,3,,,,,,,,,3,,,71,81
41615,note_off,95,0,3,,,,,,,,,3,,,71,0
41640,note_on,25,0,3,,,,,,,,,3,,,72,81
41640,note_off,360,0,5,,,,,,,,,5,,,65,0
41640,note_off,120,0,1,,,,,,,,,1,,,81,0
41735,note_off,95,0,3,,,,,,,,,3,,,72,0
41760,note_on,120,0,1,,,,,,,,,1,,,79,80
41760,note_on,120,0,5,,,,,,,,,5,,,62,80
41880,note_on,145,0,3,,,,,,,,,3,,,71,79
41880,note_off,120,0,1,,,,,,,,,1,,,79,0
41975,note_off,95,0,3,,,,,,,,,3,,,71,0
42000,note_on,25,0,3,,,,,,,,,3,,,69,79
42000,note_on,120,0,1,,,,,,,,,1,,,77,79
42095,note_off,95,0,3,,,,,,,,,3,,,69,0
42120,note_on,25,0,3,,,,,,,,,3,,,71,78
42120,note_off,360,0,5,,,,,,,,,5,,,62,0
42120,note_off,120,0,1,,,,,,,,,1,,,77,0
42200,set_tempo,1920,1,0,,,,,,472440,,,,,,,
42215,note_off,95,0,3,,,,,,,,,3,,,71,0
42240,note_on,120,0,5,,,,,,,,,5,,,60,76
42240,note_on,120,0,1,,,,,,,,,1,,,76,76
42240,note_on,25,0,3,,,,,,,,,3,,,72,76
42335,note_off,95,0,1,,,,,,,,,1,,,76,0
42360,note_on,25,0,1,,,,,,,,,1,,,84,74
42455,note_off,95,0,1,,,,,,,,,1,,,84,0
42480,note_on,25,0,1,,,,,,,,,1,,,79,72
42575,note_off,95,0,1,,,,,,,,,1,,,79,0
42600,note_on,25,0,1,,,,,,,,,1,,,76,71
42625,note_off,385,0,3,,,,,,,,,3,,,72,0
42625,note_off,385,0,5,,,,,,,,,5,,,60,0
42695,note_off,95,0,1,,,,,,,,,1,,,76,0
42720,note_on,25,0,1,,,,,,,,,1,,,72,69
42840,note_on,0,0,1,,,,,,,,,1,,,67,67
42840,note_off,120,0,1,,,,,,,,,1,,,72,0
42960,note_on,0,0,1,,,,,,,,,1,,,64,66
42960,note_off,120,0,1,,,,,,,,,1,,,67,0
43080,note_off,120,0,1,,,,,,,,,1,,,64,0
43080,note_on,0,0,1,,,,,,,,,1,,,60,64
43200,note_off,120,0,1,,,,,,,,,1,,,60,0
43200,note_on,575,0,5,,,,,,,,,5,,,48,61
43200,note_on,0,0,5,,,,,,,,,5,,,36,61
43585,note_off,385,0,5,,,,,,,,,5,,,36,0
43585,note_off,0,0,5,,,,,,,,,5,,,48,0
43920,set_tempo,1720,1,0,,,,,,600000,,,,,,,
44160,note_on,575,0,5,,,,,,,,,5,,,53,68
44160,note_on,0,0,5,,,,,,,,,5,,,41,68
44160,note_on,25075,0,2,,,,,,,,,2,,,60,68
44160,note_on,0,0,2,,,,,,,,,2,,,65,68
44160,note_on,0,0,2,,,,,,,,,2,,,69,68
44160,note_on,960,0,1,,,,,,,,,1,,,72,68
44160,set_tempo,240,1,0,,,,,,461538,,,,,,,
44820,note_off,660,0,1,,,,,,,,,1,,,72,0
44825,note_off,665,0,2,,,,,,,,,2,,,69,0
44825,note_off,0,0,2,,,,,,,,,2,,,65,0
44825,note_off,0,0,2,,,,,,,,,2,,,60,0
44880,note_on,60,0,1,,,,,,,,,1,,,74,62
44930,note_off,0,0,5,,,,,,,,,5,,,53,0
44930,note_off,770,0,5,,,,,,,,,5,,,41,0
45000,note_on,0,0,1,,,,,,,,,1,,,72,61
45000,note_off,120,0,1,,,,,,,,,1,,,74,0
45095,note_off,95,0,1,,,,,,,,,1,,,72,0
45120,note_on,25,0,1,,,,,,,,,1,,,70,61
45240,note_off,120,0,1,,,,,,,,,1,,,70,0
45360,note_on,120,0,1,,,,,,,,,1,,,69,59
45480,note_off,120,0,1,,,,,,,,,1,,,69,0
45600,note_on,120,0,1,,,,,,,,,1,,,67,57
45720,note_off,120,0,1,,,,,,,,,1,,,67,0
45840,note_on,120,0,1,,,,,,,,,1,,,65,55
45960,note_off,120,0,1,,,,,,,,,1,,,65,0
46080,note_on,120,0,1,,,,,,,,,1,,,65,54
46320,note_off,240,0,1,,,,,,,,,1,,,65,0
46320,note_on,0,0,1,,,,,,,,,1,,,74,56
46440,note_off,120,0,1,,,,,,,,,1,,,74,0
46520,set_tempo,2360,1,0,,,,,,465116,,,,,,,
46560,note_on,1630,0,5,,,,,,,,,5,,,46,59
46560,note_on,0,0,5,,,,,,,,,5,,,58,59
46560,note_on,120,0,1,,,,,,,,,1,,,74,59
46560,set_tempo,40,1,0,,,,,,461538,,,,,,,
46560,note_on,1735,0,2,,,,,,,,,2,,,65,59
47280,note_off,720,0,2,,,,,,,,,2,,,65,0
47280,note_off,720,0,1,,,,,,,,,1,,,74,0
47280,note_on,0,0,1,,,,,,,,,1,,,72,54
47330,note_off,770,0,5,,,,,,,,,5,,,58,0
47330,note_off,0,0,5,,,,,,,,,5,,,46,0
47470,note_off,190,0,1,,,,,,,,,1,,,72,0
47520,note_on,190,0,5,,,,,,,,,5,,,57,56
47520,note_on,50,0,1,,,,,,,,,1,,,76,56
47760,note_on,0,0,1,,,,,,,,,1,,,77,58
47760,note_off,240,0,1,,,,,,,,,1,,,76,0
47905,note_off,385,0,5,,,,,,,,,5,,,57,0
47950,note_off,190,0,1,,,,,,,,,1,,,77,0
47960,set_tempo,1400,1,0,,,,,,465116,,,,,,,
48000,note_on,50,0,1,,,,,,,,,1,,,77,62
48000,set_tempo,40,1,0,,,,,,461538,,,,,,,
48000,note_on,95,0,5,,,,,,,,,5,,,59,61
48000,note_on,23090,0,4,,,,,,,,,4,,,62,61
48240,note_on,0,0,1,,,,,,,,,1,,,67,58
48240,note_off,240,0,1,,,,,,,,,1,,,77,0
48480,note_on,0,0,5,,,,,,,,,5,,,60,53
48480,note_off,480,0,5,,,,,,,,,5,,,59,0
48480,note_off,480,0,4,,,,,,,,,4,,,62,0
48720,note_off,480,0,1,,,,,,,,,1,,,67,0
48720,note_on,0,0,1,,,,,,,,,1,,,69,53
48865,note_off,385,0,5,,,,,,,,,5,,,60,0
48910,note_off,190,0,1,,,,,,,,,1,,,69,0
48960,note_on,50,0,1,,,,,,,,,1,,,77,59
48960,note_on,95,0,5,,,,,,,,,5,,,59,55
48960,note_on,480,0,4,,,,,,,,,4,,,62,55
49200,note_off,240,0,1,,,,,,,,,1,,,77,0
49200,note_on,0,0,1,,,,,,,,,1,,,67,56
49440,note_off,480,0,5,,,,,,,,,5,,,59,0
49440,note_on,0,0,5,,,,,,,,,5,,,60,50
49440,note_off,480,0,4,,,,,,,,,4,,,62,0
49680,note_on,0,0,1,,,,,,,,,1,,,69,49
49680,note_off,480,0,1,,,,,,,,,1,,,67,0
49825,note_off,385,0,5,,,,,,,,,5,,,60,0
49870,note_off,190,0,1,,,,,,,,,1,,,69,0
49880,set_tempo,1880,1,0,,,,,,465116,,,,,,,
49920,note_on,95,0,5,,,,,,,,,5,,,62,54
49920,note_on,50,0,1,,,,,,,,,1,,,72,54
50400,note_on,0,0,5,,,,,,,,,5,,,64,52
50400,note_off,480,0,5,,,,,,,,,5,,,62,0
50400,note_on,0,0,1,,,,,,,,,1,,,70,52
50400,note_off,480,0,1,,,,,,,,,1,,,72,0
50480,note_on,80,0,1,,,,,,,,,1,,,72,50
50520,note_off,40,0,1,,,,,,,,,1,,,70,0
50560,note_on,40,0,1,,,,,,,,,1,,,70,49
50600,note_off,40,0,1,,,,,,,,,1,,,72,0
50640,note_on,40,0,1,,,,,,,,,1,,,72,47
50680,note_off,40,0,1,,,,,,,,,1,,,70,0
50700,note_off,20,0,1,,,,,,,,,1,,,72,0
50700,note_on,0,0,1,,,,,,,,,1,,,70,46
50760,note_on,0,0,1,,,,,,,,,1,,,69,45
50760,note_off,60,0,1,,,,,,,,,1,,,70,0
50820,note_on,0,0,1,,,,,,,,,1,,,70,44
50820,note_off,60,0,1,,,,,,,,,1,,,69,0
50880,note_off,60,0,1,,,,,,,,,1,,,70,0
50880,note_off,480,0,5,,,,,,,,,5,,,64,0
50880,note_on,0,0,1,,,,,,,,,1,,,69,43
50880,note_on,0,0,5,,,,,,,,,5,,,65,43
51070,note_off,190,0,1,,,,,,,,,1,,,69,0
51120,note_on,50,0,1,,,,,,,,,1,,,69,49
51265,note_off,385,0,5,,,,,,,,,5,,,65,0
51360,note_on,0,0,1,,,,,,,,,1,,,70,51
51360,note_off,240,0,1,,,,,,,,,1,,,69,0
51600,note_off,240,0,1,,,,,,,,,1,,,70,0
51600,note_on,0,0,1,,,,,,,,,1,,,72,53
51790,note_off,190,0,1,,,,,,,,,1,,,72,0
51800,set_tempo,1920,1,0,,,,,,472440,,,,,,,
51840,set_tempo,40,1,0,,,,,,461538,,,,,,,
51840,note_on,50,0,1,,,,,,,,,1,,,73,55
52080,note_on,240,0,1,,,,,,,,,1,,,74,58
52080,note_on,815,0,5,,,,,,,,,5,,,46,58
52095,note_off,15,0,1,,,,,,,,,1,,,73,0
52320,note_off,240,0,5,,,,,,,,,5,,,46,0
52320,note_on,0,0,5,,,,,,,,,5,,,50,54
52560,note_off,240,0,5,,,,,,,,,5,,,50,0
52560,note_on,0,0,1,,,,,,,,,1,,,72,49
52560,note_off,465,0,1,,,,,,,,,1,,,74,0
52560,note_on,0,0,5,,,,,,,,,5,,,55,49
52680,note_off,120,0,1,,,,,,,,,1,,,72,0
52680,note_on,0,0,1,,,,,,,,,1,,,70,47
52800,note_off,120,0,1,,,,,,,,,1,,,70,0
52800,note_on,0,0,1,,,,,,,,,1,,,69,45
52800,note_on,0,0,5,,,,,,,,,5,,,58,45
52800,note_off,240,0,5,,,,,,,,,5,,,55,0
53040,note_off,240,0,1,,,,,,,,,1,,,69,0
53040,note_on,0,0,1,,,,,,,,,1,,,67,43
53185,note_off,385,0,5,,,,,,,,,5,,,58,0
53280,note_off,240,0,1,,,,,,,,,1,,,67,0
53280,note_on,0,0,1,,,,,,,,,1,,,69,47
53520,note_off,240,0,1,,,,,,,,,1,,,69,0
53520,note_on,0,0,1,,,,,,,,,1,,,70,50
53710,note_off,190,0,1,,,,,,,,,1,,,70,0
53720,set_tempo,1880,1,0,,,,,,465116,,,,,,,
53760,note_on,50,0,1,,,,,,,,,1,,,74,52
53760,set_tempo,40,1,0,,,,,,461538,,,,,,,
54000,note_on,240,0,1,,,,,,,,,1,,,72,56
54000,note_on,815,0,5,,,,,,,,,5,,,45,56
54005,note_off,5,0,1,,,,,,,,,1,,,74,0
54240,note_on,0,0,5,,,,,,,,,5,,,48,54
54240,note_off,240,0,5,,,,,,,,,5,,,45,0
54480,note_off,240,0,5,,,,,,,,,5,,,48,0
54480,note_on,475,0,1,,,,,,,,,1,,,70,53
54480,note_on,0,0,5,,,,,,,,,5,,,53,53
54485,note_off,5,0,1,,,,,,,,,1,,,72,0
54600,note_on,0,0,1,,,,,,,,,1,,,69,53
54600,note_off,115,0,1,,,,,,,,,1,,,70,0
54720,note_on,0,0,1,,,,,,,,,1,,,67,52
54720,note_on,0,0,5,,,,,,,,,5,,,57,52
54720,note_off,240,0,5,,,,,,,,,5,,,53,0
54720,note_off,120,0,1,,,,,,,,,1,,,69,0
54960,note_off,240,0,1,,,,,,,,,1,,,67,0
54960,note_on,0,0,1,,,,,,,,,1,,,65,51
55105,note_off,385,0,5,,,,,,,,,5,,,57,0
55200,note_on,0,0,1,,,,,,,,,1,,,67,50
55200,note_off,240,0,1,,,,,,,,,1,,,65,0
55440,note_off,240,0,1,,,,,,,,,1,,,67,0
55440,note_on,0,0,1,,,,,,,,,1,,,69,48
55630,note_off,190,0,1,,,,,,,,,1,,,69,0
55640,set_tempo,1880,1,0,,,,,,465116,,,,,,,
55680,note_on,50,0,1,,,,,,,,,1,,,72,56
55680,note_on,575,0,5,,,,,,,,,5,,,55,55
55920,note_on,0,0,1,,,,,,,,,1,,,70,54
55920,note_off,240,0,1,,,,,,,,,1,,,72,0
56065,note_off,385,0,5,,,,,,,,,5,,,55,0
56160,note_on,95,0,5,,,,,,,,,5,,,52,49
56305,note_off,385,0,1,,,,,,,,,1,,,70,0
56400,note_on,95,0,1,,,,,,,,,1,,,67,48
56545,note_off,385,0,5,,,,,,,,,5,,,52,0
56640,note_off,240,0,1,,,,,,,,,1,,,67,0
56640,note_on,95,0,5,,,,,,,,,5,,,53,53
56640,note_on,0,0,1,,,,,,,,,1,,,70,53
56880,note_off,240,0,1,,,,,,,,,1,,,70,0
56880,note_on,0,0,1,,,,,,,,,1,,,69,50
57025,note_off,385,0,5,,,,,,,,,5,,,53,0
57120,note_on,95,0,5,,,,,,,,,5,,,50,48
57260,note_off,380,0,1,,,,,,,,,1,,,69,0
57360,note_on,100,0,1,,,,,,,,,1,,,65,45
57505,note_off,385,0,5,,,,,,,,,5,,,50,0
57560,set_tempo,1920,1,0,,,,,,472440,,,,,,,
57600,note_on,95,0,5,,,,,,,,,5,,,48,48
57600,note_off,240,0,1,,,,,,,,,1,,,65,0
57600,note_on,0,0,1,,,,,,,,,1,,,64,51
57720,note_on,0,0,1,,,,,,,,,1,,,65,50
57720,note_off,120,0,1,,,,,,,,,1,,,64,0
57840,note_off,120,0,1,,,,,,,,,1,,,65,0
57840,note_on,0,0,1,,,,,,,,,1,,,67,49
57960,note_off,120,0,1,,,,,,,,,1,,,67,0
57960,note_on,0,0,1,,,,,,,,,1,,,69,49
57985,note_off,385,0,5,,,,,,,,,5,,,48,0
58080,note_off,120,0,1,,,,,,,,,1,,,69,0
58080,note_on,0,0,1,,,,,,,,,1,,,71,48
58200,note_on,0,0,1,,,,,,,,,1,,,72,47
58200,note_off,120,0,1,,,,,,,,,1,,,71,0
58320,note_off,120,0,1,,,,,,,,,1,,,72,0
58320,note_on,0,0,1,,,,,,,,,1,,,71,46
58440,note_off,120,0,1,,,,,,,,,1,,,71,0
58440,note_on,0,0,1,,,,,,,,,1,,,72,45
58560,note_off,120,0,1,,,,,,,,,1,,,72,0
58560,note_on,0,0,1,,,,,,,,,1,,,60,45
58560,note_on,575,0,5,,,,,,,,,5,,,48,43
58680,note_on,9240,0,4,,,,,,,,,4,,,50,42
58740,note_off,180,0,5,,,,,,,,,5,,,48,0
58800,note_off,120,0,4,,,,,,,,,4,,,50,0
58800,note_on,60,0,5,,,,,,,,,5,,,46,41
58920,note_on,120,0,4,,,,,,,,,4,,,48,41
58980,note_off,180,0,5,,,,,,,,,5,,,46,0
59040,note_off,480,0,1,,,,,,,,,1,,,60,0
59040,note_on,60,0,5,,,,,,,,,5,,,45,40
59040,note_off,120,0,4,,,,,,,,,4,,,48,0
59160,note_on,120,0,4,,,,,,,,,4,,,46,39
59220,note_off,180,0,5,,,,,,,,,5,,,45,0
59280,note_on,60,0,5,,,,,,,,,5,,,43,39
59280,note_off,120,0,4,,,,,,,,,4,,,46,0
59400,set_tempo,1840,1,0,,,,,,500000,,,,,,,
59400,note_on,120,0,4,,,,,,,,,4,,,45,38
59460,note_off,180,0,5,,,,,,,,,5,,,43,0
59520,note_on,60,0,5,,,,,,,,,5,,,41,73
59520,set_tempo,120,1,0,,,,,,461538,,,,,,,
59520,note_off,120,0,4,,,,,,,,,4,,,45,0
59520,note_on,12240,0,2,,,,,,,,,2,,,69,73
59520,note_on,480,0,1,,,,,,,,,1,,,72,73
59905,note_off,385,0,5,,,,,,,,,5,,,41,0
60000,note_on,95,0,5,,,,,,,,,5,,,53,65
60180,note_off,660,0,2,,,,,,,,,2,,,69,0
60185,note_off,665,0,1,,,,,,,,,1,,,72,0
60240,note_on,55,0,1,,,,,,,,,1,,,74,63
60360,note_off,120,0,1,,,,,,,,,1,,,74,0
60360,note_on,0,0,1,,,,,,,,,1,,,72,62
60385,note_off,385,0,5,,,,,,,,,5,,,53,0
60455,note_off,95,0,1,,,,,,,,,1,,,72,0
60480,note_on,25,0,1,,,,,,,,,1,,,70,61
60635,note_off,155,0,1,,,,,,,,,1,,,70,0
60720,note_on,85,0,1,,,,,,,,,1,,,69,58
60875,note_off,155,0,1,,,,,,,,,1,,,69,0
60960,note_on,85,0,1,,,,,,,,,1,,,67,56
61115,note_off,155,0,1,,,,,,,,,1,,,67,0
61200,note_on,85,0,1,,,,,,,,,1,,,65,54
61355,note_off,155,0,1,,,,,,,,,1,,,65,0
61440,note_on,85,0,1,,,,,,,,,1,,,65,54
61680,note_off,240,0,1,,,,,,,,,1,,,65,0
61680,note_on,0,0,1,,,,,,,,,1,,,74,56
61870,note_off,190,0,1,,,,,,,,,1,,,74,0
61880,set_tempo,2360,1,0,,,,,,465116,,,,,,,
61920,note_on,50,0,1,,,,,,,,,1,,,74,59
61920,set_tempo,40,1,0,,,,,,461538,,,,,,,
61920,note_on,1740,0,2,,,,,,,,,2,,,65,59
61920,note_on,0,0,5,,,,,,,,,5,,,46,59
61920,note_on,1535,0,5,,,,,,,,,5,,,58,59
62640,note_off,720,0,1,,,,,,,,,1,,,74,0
62640,note_on,0,0,1,,,,,,,,,1,,,72,52
62640,note_off,720,0,2,,,,,,,,,2,,,65,0
62830,note_off,190,0,1,,,,,,,,,1,,,72,0
62880,note_on,0,0,5,,,,,,,,,5,,,57,54
62880,note_off,0,0,5,,,,,,,,,5,,,58,0
62880,note_off,960,0,5,,,,,,,,,5,,,46,0
62880,note_on,50,0,1,,,,,,,,,1,,,76,54
63120,note_on,0,0,1,,,,,,,,,1,,,77,56
63120,note_off,240,0,1,,,,,,,,,1,,,76,0
63265,note_off,385,0,5,,,,,,,,,5,,,57,0
63320,set_tempo,1400,1,0,,,,,,465116,,,,,,,
63360,set_tempo,40,1,0,,,,,,461538,,,,,,,
63360,note_on,3840,0,4,,,,,,,,,4,,,62,60
63360,note_on,95,0,5,,,,,,,,,5,,,59,60
63540,note_off,420,0,1,,,,,,,,,1,,,77,0
63600,note_on,60,0,1,,,,,,,,,1,,,67,58
63840,note_on,0,0,5,,,,,,,,,5,,,60,57
63840,note_off,480,0,4,,,,,,,,,4,,,62,0
63840,note_off,480,0,5,,,,,,,,,5,,,59,0
63840,note_on,240,0,1,,,,,,,,,1,,,69,57
63855,note_off,15,0,1,,,,,,,,,1,,,67,0
64025,note_off,170,0,1,,,,,,,,,1,,,69,0
64080,note_on,55,0,1,,,,,,,,,1,,,77,53
64225,note_off,385,0,5,,,,,,,,,5,,,60,0
64320,note_on,95,0,5,,,,,,,,,5,,,59,58
64320,note_on,480,0,4,,,,,,,,,4,,,62,58
64500,note_off,420,0,1,,,,,,,,,1,,,77,0
64560,note_on,60,0,1,,,,,,,,,1,,,67,56
64800,note_on,240,0,1,,,,,,,,,1,,,69,53
64800,note_off,480,0,5,,,,,,,,,5,,,59,0
64800,note_on,0,0,5,,,,,,,,,5,,,60,53
64800,note_off,480,0,4,,,,,,,,,4,,,62,0
64815,note_off,15,0,1,,,,,,,,,1,,,67,0
64990,note_off,175,0,1,,,,,,,,,1,,,69,0
65040,note_on,50,0,1,,,,,,,,,1,,,77,49
65185,note_off,385,0,5,,,,,,,,,5,,,60,0
65230,note_off,190,0,1,,,,,,,,,1,,,77,0
65240,set_tempo,1880,1,0,,,,,,465116,,,,,,,
65280,note_on,95,0,5,,,,,,,,,5,,,62,51
65280,note_on,50,0,1,,,,,,,,,1,,,72,51
65280,note_on,480,0,4,,,,,,,,,4,,,65,51
65760,note_on,0,0,1,,,,,,,,,1,,,71,47
65760,note_off,480,0,4,,,,,,,,,4,,,65,0
65760,note_on,0,0,5,,,,,,,,,5,,,64,47
65760,note_off,480,0,5,,,,,,,,,5,,,62,0
65760,note_off,480,0,1,,,,,,,,,1,,,72,0
65760,note_on,0,0,4,,,,,,,,,4,,,67,47
66000,note_on,0,0,1,,,,,,,,,1,,,70,46
66000,note_off,240,0,1,,,,,,,,,1,,,71,0
66240,note_on,0,0,5,,,,,,,,,5,,,65,44
66240,note_off,480,0,4,,,,,,,,,4,,,67,0
66240,note_off,480,0,5,,,,,,,,,5,,,64,0
66240,note_on,0,0,1,,,,,,,,,1,,,69,44
66240,note_off,240,0,1,,,,,,,,,1,,,70,0
66430,note_off,190,0,1,,,,,,,,,1,,,69,0
66480,note_on,50,0,1,,,,,,,,,1,,,69,49
66665,note_off,425,0,5,,,,,,,,,5,,,65,0
66720,note_on,0,0,1,,,,,,,,,1,,,70,51
66720,note_off,240,0,1,,,,,,,,,1,,,69,0
66960,note_off,240,0,1,,,,,,,,,1,,,70,0
66960,note_on,0,0,1,,,,,,,,,1,,,72,53
67160,set_tempo,1920,1,0,,,,,,472440,,,,,,,
67200,note_on,0,0,1,,,,,,,,,1,,,73,55
67200,note_off,240,0,1,,,,,,,,,1,,,72,0
67200,set_tempo,40,1,0,,,,,,461538,,,,,,,
67320,note_on,120,0,1,,,,,,,,,1,,,74,56
67340,note_off,20,0,1,,,,,,,,,1,,,73,0
67440,note_on,775,0,5,,,,,,,,,5,,,50,60
67680,note_on,0,0,5,,,,,,,,,5,,,62,62
67680,note_off,240,0,5,,,,,,,,,5,,,50,0
67835,note_off,155,0,5,,,,,,,,,5,,,62,0
67920,note_on,85,0,5,,,,,,,,,5,,,60,64
67920,note_on,580,0,1,,,,,,,,,1,,,76,61
67925,note_off,5,0,1,,,,,,,,,1,,,74,0
68040,note_on,0,0,1,,,,,,,,,1,,,78,62
68040,note_off,115,0,1,,,,,,,,,1,,,76,0
68075,note_off,155,0,5,,,,,,,,,5,,,60,0
68160,note_on,85,0,5,,,,,,,,,5,,,58,65
68160,note_off,120,0,1,,,,,,,,,1,,,78,0
68160,note_on,0,0,1,,,,,,,,,1,,,79,63
68280,note_on,0,0,1,,,,,,,,,1,,,81,64
68280,note_off,120,0,1,,,,,,,,,1,,,79,0
68315,note_off,155,0,5,,,,,,,,,5,,,58,0
68400,note_on,85,0,5,,,,,,,,,5,,,46,67
68400,note_off,120,0,1,,,,,,,,,1,,,81,0
68400,note_on,0,0,1,,,,,,,,,1,,,82,65
68520,note_on,0,0,1,,,,,,,,,1,,,81,66
68520,note_off,120,0,1,,,,,,,,,1,,,82,0
68555,note_off,155,0,5,,,,,,,,,5,,,46,0
68640,note_off,120,0,1,,,,,,,,,1,,,81,0
68640,note_on,0,0,1,,,,,,,,,1,,,79,67
68640,note_on,85,0,5,,,,,,,,,5,,,58,69
68760,note_off,120,0,1,,,,,,,,,1,,,79,0
68760,note_on,0,0,1,,,,,,,,,1,,,81,68
68880,note_on,0,0,1,,,,,,,,,1,,,77,69
68880,note_off,240,0,5,,,,,,,,,5,,,58,0
68880,note_off,120,0,1,,,,,,,,,1,,,81,0
68880,note_on,0,0,5,,,,,,,,,5,,,57,71
69000,note_off,120,0,1,,,,,,,,,1,,,77,0
69000,note_on,0,0,1,,,,,,,,,1,,,79,70
69035,note_off,155,0,5,,,,,,,,,5,,,57,0
69120,note_on,0,0,1,,,,,,,,,1,,,76,71
69120,note_on,85,0,5,,,,,,,,,5,,,55,73
69120,note_off,120,0,1,,,,,,,,,1,,,79,0
69240,note_off,120,0,1,,,,,,,,,1,,,76,0
69240,note_on,0,0,1,,,,,,,,,1,,,77,72
69275,note_off,155,0,5,,,,,,,,,5,,,55,0
69360,note_off,120,0,1,,,,,,,,,1,,,77,0
69360,note_on,0,0,1,,,,,,,,,1,,,74,73
69360,note_on,85,0,5,,,,,,,,,5,,,53,75
69480,note_on,0,0,1,,,,,,,,,1,,,76,74
69480,note_off,120,0,1,,,,,,,,,1,,,74,0
69515,note_off,155,0,5,,,,,,,,,5,,,53,0
69600,note_off,120,0,1,,,,,,,,,1,,,76,0
69600,note_on,85,0,5,,,,,,,,,5,,,52,76
69600,note_on,0,0,1,,,,,,,,,1,,,72,75
69720,note_on,0,0,1,,,,,,,,,1,,,74,76
69720,note_off,120,0,1,,,,,,,,,1,,,72,0
69755,note_off,155,0,5,,,,,,,,,5,,,52,0
69840,note_on,85,0,5,,,,,,,,,5,,,48,78
69840,note_on,0,0,1,,,,,,,,,1,,,70,77
69840,note_off,120,0,1,,,,,,,,,1,,,74,0
69960,note_off,120,0,1,,,,,,,,,1,,,70,0
69960,note_on,0,0,1,,,,,,,,,1,,,72,78
69995,note_off,155,0,5,,,,,,,,,5,,,48,0
70080,note_on,85,0,5,,,,,,,,,5,,,53,80
70080,note_off,120,0,1,,,,,,,,,1,,,72,0
70080,note_on,0,0,1,,,,,,,,,1,,,69,79
70200,note_off,120,0,1,,,,,,,,,1,,,69,0
70200,note_on,0,0,1,,,,,,,,,1,,,70,80
70320,note_on,0,0,1,,,,,,,,,1,,,72,81
70320,note_off,120,0,1,,,,,,,,,1,,,70,0
70440,note_on,0,0,1,,,,,,,,,1,,,74,82
70440,note_off,120,0,1,,,,,,,,,1,,,72,0
70465,note_off,385,0,5,,,,,,,,,5,,,53,0
70560,note_off,120,0,1,,,,,,,,,1,,,74,0
70560,note_on,95,0,5,,,,,,,,,5,,,45,84
70560,note_on,0,0,1,,,,,,,,,1,,,76,83
70680,note_off,120,0,1,,,,,,,,,1,,,76,0
70680,note_on,0,0,1,,,,,,,,,1,,,77,84
70800,note_off,120,0,1,,,,,,,,,1,,,77,0
70800,note_on,0,0,1,,,,,,,,,1,,,76,85
70920,note_off,120,0,1,,,,,,,,,1,,,76,0
70920,note_on,0,0,1,,,,,,,,,1,,,77,86
70945,note_off,385,0,5,,,,,,,,,5,,,45,0
71015,note_off,95,0,1,,,,,,,,,1,,,77,0
71040,note_on,25,0,1,,,,,,,,,1,,,79,88
71040,note_on,95,0,5,,,,,,,,,5,,,46,88
71160,note_on,0,0,1,,,,,,,,,1,,,77,87
71160,note_off,120,0,1,,,,,,,,,1,,,79,0
71280,note_off,120,0,1,,,,,,,,,1,,,77,0
71280,note_on,0,0,1,,,,,,,,,1,,,76,85
71400,note_off,120,0,1,,,,,,,,,1,,,76,0
71400,note_on,0,0,1,,,,,,,,,1,,,74,84
71425,note_off,385,0,5,,,,,,,,,5,,,46,0
71495,note_off,95,0,1,,,,,,,,,1,,,74,0
71520,note_on,25,0,1,,,,,,,,,1,,,76,82
71520,note_on,95,0,5,,,,,,,,,5,,,58,82
71640,note_off,120,0,1,,,,,,,,,1,,,76,0
71640,note_on,0,0,1,,,,,,,,,1,,,74,81
71760,note_off,120,0,1,,,,,,,,,1,,,74,0
71760,note_on,0,0,1,,,,,,,,,1,,,72,79
71880,note_on,0,0,1,,,,,,,,,1,,,70,78
71880,note_off,120,0,1,,,,,,,,,1,,,72,0
71905,note_off,385,0,5,,,,,,,,,5,,,58,0
71975,note_off,95,0,1,,,,,,,,,1,,,70,0
72000,note_on,95,0,5,,,,,,,,,5,,,60,76
72000,note_on,25,0,1,,,,,,,,,1,,,69,76
72385,note_off,385,0,5,,,,,,,,,5,,,60,0
72440,set_tempo,5240,1,0,,,,,,465116,,,,,,,
72480,note_on,95,0,5,,,,,,,,,5,,,48,70
72480,note_on,0,0,1,,,,,,,,,1,,,67,70
72480,note_off,480,0,1,,,,,,,,,1,,,69,0
72560,note_on,0,0,1,,,,,,,,,1,,,69,69
72560,note_off,80,0,1,,,,,,,,,1,,,67,0
72640,note_on,0,0,1,,,,,,,,,1,,,67,68
72640,note_off,80,0,1,,,,,,,,,1,,,69,0
72720,note_on,0,0,1,,,,,,,,,1,,,69,67
72720,note_off,80,0,1,,,,,,,,,1,,,67,0
72780,note_off,60,0,1,,,,,,,,,1,,,69,0
72780,note_on,0,0,1,,,,,,,,,1,,,67,67
72840,note_on,0,0,1,,,,,,,,,1,,,65,66
72840,note_off,60,0,1,,,,,,,,,1,,,67,0
72865,note_off,385,0,5,,,,,,,,,5,,,48,0
72900,note_on,0,0,1,,,,,,,,,1,,,67,65
72900,note_off,60,0,1,,,,,,,,,1,,,65,0
72920,set_tempo,480,1,0,,,,,,472440,,,,,,,
72960,note_on,0,0,1,,,,,,,,,1,,,65,64
72960,note_off,60,0,1,,,,,,,,,1,,,67,0
72960,note_on,95,0,5,,,,,,,,,5,,,53,64
73080,note_on,30455,0,3,,,,,,,,,3,,,60,63
73140,note_off,180,0,5,,,,,,,,,5,,,53,0
73200,note_on,60,0,5,,,,,,,,,5,,,59,61
73200,note_off,120,0,3,,,,,,,,,3,,,60,0
73320,note_on,120,0,3,,,,,,,,,3,,,60,60
73380,note_off,180,0,5,,,,,,,,,5,,,59,0
73440,note_off,480,0,1,,,,,,,,,1,,,65,0
73440,note_off,120,0,3,,,,,,,,,3,,,60,0
73440,note_on,60,0,5,,,,,,,,,5,,,62,58
73560,note_on,120,0,3,,,,,,,,,3,,,60,57
73620,note_off,180,0,5,,,,,,,,,5,,,62,0
73680,note_off,120,0,3,,,,,,,,,3,,,60,0
73680,note_on,60,0,5,,,,,,,,,5,,,59,55
73800,note_on,120,0,3,,,,,,,,,3,,,60,54
73860,note_off,180,0,5,,,,,,,,,5,,,59,0
73920,note_off,120,0,3,,,,,,,,,3,,,60,0
73920,note_on,60,0,5,,,,,,,,,5,,,58,52
74040,note_on,120,0,3,,,,,,,,,3,,,60,51
74100,note_off,180,0,5,,,,,,,,,5,,,58,0
74160,note_off,120,0,3,,,,,,,,,3,,,60,0
74160,note_on,60,0,5,,,,,,,,,5,,,57,49
74280,note_on,120,0,3,,,,,,,,,3,,,60,48
74340,note_off,180,0,5,,,,,,,,,5,,,57,0
74400,note_on,60,0,5,,,,,,,,,5,,,55,46
74400,note_off,120,0,3,,,,,,,,,3,,,60,0
74520,note_on,120,0,3,,,,,,,,,3,,,60,45
74580,note_off,180,0,5,,,,,,,,,5,,,55,0
74640,note_on,60,0,5,,,,,,,,,5,,,53,44
74640,note_off,120,0,3,,,,,,,,,3,,,60,0
74760,note_on,120,0,3,,,,,,,,,3,,,60,42
74820,note_off,180,0,5,,,,,,,,,5,,,53,0
74840,set_tempo,1920,1,0,,,,,,480000,,,,,,,
74855,note_off,95,0,3,,,,,,,,,3,,,60,0
74880,note_on,1440,0,1,,,,,,,,,1,,,82,51
74880,note_on,60,0,5,,,,,,,,,5,,,52,48
74880,set_tempo,40,1,0,,,,,,465116,,,,,,,
75000,note_on,145,0,3,,,,,,,,,3,,,60,43
75095,note_off,95,0,3,,,,,,,,,3,,,60,0
75120,note_off,240,0,1,,,,,,,,,1,,,82,0
75120,note_on,0,0,1,,,,,,,,,1,,,79,46
75120,note_off,240,0,5,,,,,,,,,5,,,52,0
75120,note_on,0,0,5,,,,,,,,,5,,,55,43
75240,note_off,120,0,1,,,,,,,,,1,,,79,0
75240,note_on,145,0,3,,,,,,,,,3,,,60,44
75275,note_off,155,0,5,,,,,,,,,5,,,55,0
75335,note_off,95,0,3,,,,,,,,,3,,,60,0
75360,note_on,120,0,1,,,,,,,,,1,,,76,45
75360,note_on,85,0,5,,,,,,,,,5,,,58,45
75480,note_off,120,0,1,,,,,,,,,1,,,76,0
75480,note_on,145,0,3,,,,,,,,,3,,,60,45
75515,note_off,155,0,5,,,,,,,,,5,,,58,0
75575,note_off,95,0,3,,,,,,,,,3,,,60,0
75600,note_on,85,0,5,,,,,,,,,5,,,58,46
75600,note_on,120,0,1,,,,,,,,,1,,,76,46
75720,note_on,145,0,3,,,,,,,,,3,,,60,47
75720,note_off,120,0,1,,,,,,,,,1,,,76,0
75755,note_off,155,0,5,,,,,,,,,5,,,58,0
75815,note_off,95,0,3,,,,,,,,,3,,,60,0
75840,note_on,120,0,1,,,,,,,,,1,,,82,56
75840,note_on,85,0,5,,,,,,,,,5,,,52,53
75960,note_on,145,0,3,,,,,,,,,3,,,60,48
76030,note_off,190,0,5,,,,,,,,,5,,,52,0
76055,note_off,95,0,3,,,,,,,,,3,,,60,0
76080,note_on,50,0,5,,,,,,,,,5,,,55,48
76080,note_on,0,0,1,,,,,,,,,1,,,79,52
76080,note_off,240,0,1,,,,,,,,,1,,,82,0
76200,note_on,145,0,3,,,,,,,,,3,,,60,49
76200,note_off,120,0,1,,,,,,,,,1,,,79,0
76235,note_off,155,0,5,,,,,,,,,5,,,55,0
76295,note_off,95,0,3,,,,,,,,,3,,,60,0
76320,note_on,120,0,1,,,,,,,,,1,,,76,50
76320,note_on,85,0,5,,,,,,,,,5,,,58,50
76440,note_on,145,0,3,,,,,,,,,3,,,60,50
76440,note_off,120,0,1,,,,,,,,,1,,,76,0
76475,note_off,155,0,5,,,,,,,,,5,,,58,0
76535,note_off,95,0,3,,,,,,,,,3,,,60,0
76560,note_on,120,0,1,,,,,,,,,1,,,76,51
76560,note_on,85,0,5,,,,,,,,,5,,,58,51
76680,note_off,120,0,1,,,,,,,,,1,,,76,0
76680,note_on,145,0,3,,,,,,,,,3,,,60,51
76715,note_off,155,0,5,,,,,,,,,5,,,58,0
76775,note_off,95,0,3,,,,,,,,,3,,,60,0
76800,note_on,120,0,1,,,,,,,,,1,,,77,52
76800,note_on,85,0,5,,,,,,,,,5,,,57,52
76920,note_off,120,0,1,,,,,,,,,1,,,77,0
76920,note_on,145,0,3,,,,,,,,,3,,,60,53
76955,note_off,155,0,5,,,,,,,,,5,,,57,0
77015,note_off,95,0,3,,,,,,,,,3,,,60,0
77040,note_on,85,0,5,,,,,,,,,5,,,52,53
77040,note_on,120,0,1,,,,,,,,,1,,,79,54
77160,note_on,145,0,3,,,,,,,,,3,,,60,54
77160,note_off,120,0,1,,,,,,,,,1,,,79,0
77195,note_off,155,0,5,,,,,,,,,5,,,52,0
77255,note_off,95,0,3,,,,,,,,,3,,,60,0
77280,note_on,85,0,5,,,,,,,,,5,,,53,55
77280,note_on,120,0,1,,,,,,,,,1,,,81,55
77400,note_on,145,0,3,,,,,,,,,3,,,60,55
77400,note_off,120,0,1,,,,,,,,,1,,,81,0
77435,note_off,155,0,5,,,,,,,,,5,,,53,0
77495,note_off,95,0,3,,,,,,,,,3,,,60,0
77520,note_on,85,0,5,,,,,,,,,5,,,55,56
77520,note_on,120,0,1,,,,,,,,,1,,,82,56
77640,note_on,145,0,3,,,,,,,,,3,,,60,56
77640,note_off,120,0,1,,,,,,,,,1,,,82,0
77675,note_off,155,0,5,,,,,,,,,5,,,55,0
77735,note_off,95,0,3,,,,,,,,,3,,,60,0
77760,note_on,85,0,5,,,,,,,,,5,,,56,64
77760,note_on,120,0,1,,,,,,,,,1,,,83,63
77880,note_on,145,0,3,,,,,,,,,3,,,60,58
77975,note_off,95,0,3,,,,,,,,,3,,,60,0
78000,note_on,0,0,5,,,,,,,,,5,,,57,58
78000,note_off,240,0,5,,,,,,,,,5,,,56,0
78000,note_off,240,0,1,,,,,,,,,1,,,83,0
78000,note_on,0,0,1,,,,,,,,,1,,,84,58
78120,note_on,145,0,3,,,,,,,,,3,,,60,59
78155,note_off,155,0,5,,,,,,,,,5,,,57,0
78190,note_off,190,0,1,,,,,,,,,1,,,84,0
78215,note_off,95,0,3,,,,,,,,,3,,,60,0
78240,note_on,50,0,1,,,,,,,,,1,,,83,68
78240,note_on,85,0,5,,,,,,,,,5,,,56,68
78360,note_on,145,0,3,,,,,,,,,3,,,60,60
78455,note_off,95,0,3,,,,,,,,,3,,,60,0
78480,note_on,0,0,1,,,,,,,,,1,,,84,61
78480,note_off,240,0,1,,,,,,,,,1,,,83,0
78480,note_off,240,0,5,,,,,,,,,5,,,56,0
78480,note_on,0,0,5,,,,,,,,,5,,,57,61
78600,note_on,145,0,3,,,,,,,,,3,,,60,72
78635,note_off,155,0,5,,,,,,,,,5,,,57,0
78670,note_off,190,0,1,,,,,,,,,1,,,84,0
78680,set_tempo,3800,1,0,,,,,,472440,,,,,,,
78695,note_off,95,0,3,,,,,,,,,3,,,60,0
78720,note_on,85,0,5,,,,,,,,,5,,,52,65
78720,set_tempo,40,1,0,,,,,,461538,,,,,,,
78720,note_on,50,0,1,,,,,,,,,1,,,82,74
78840,note_on,145,0,3,,,,,,,,,3,,,60,63
78935,note_off,95,0,3,,,,,,,,,3,,,60,0
78960,note_off,240,0,5,,,,,,,,,5,,,52,0
78960,note_on,0,0,5,,,,,,,,,5,,,55,63
78960,note_on,0,0,1,,,,,,,,,1,,,79,68
78960,note_off,240,0,1,,,,,,,,,1,,,82,0
79080,note_on,145,0,3,,,,,,,,,3,,,60,64
79115,note_off,155,0,5,,,,,,,,,5,,,55,0
79115,note_off,155,0,1,,,,,,,,,1,,,79,0
79175,note_off,95,0,3,,,,,,,,,3,,,60,0
79200,note_on,85,0,5,,,,,,,,,5,,,58,64
79200,note_on,85,0,1,,,,,,,,,1,,,76,64
79320,note_on,145,0,3,,,,,,,,,3,,,60,65
79355,note_off,155,0,1,,,,,,,,,1,,,76,0
79355,note_off,155,0,5,,,,,,,,,5,,,58,0
79415,note_off,95,0,3,,,,,,,,,3,,,60,0
79440,note_on,85,0,1,,,,,,,,,1,,,76,66
79440,note_on,85,0,5,,,,,,,,,5,,,58,66
79560,note_on,145,0,3,,,,,,,,,3,,,60,66
79595,note_off,155,0,5,,,,,,,,,5,,,58,0
79595,note_off,155,0,1,,,,,,,,,1,,,76,0
79655,note_off,95,0,3,,,,,,,,,3,,,60,0
79680,note_on,85,0,1,,,,,,,,,1,,,82,77
79680,note_on,85,0,5,,,,,,,,,5,,,52,76
79800,note_on,145,0,3,,,,,,,,,3,,,60,68
79895,note_off,95,0,3,,,,,,,,,3,,,60,0
79920,note_off,240,0,1,,,,,,,,,1,,,82,0
79920,note_on,0,0,1,,,,,,,,,1,,,79,72
79920,note_off,240,0,5,,,,,,,,,5,,,52,0
79920,note_on,0,0,5,,,,,,,,,5,,,55,68
80040,note_on,145,0,3,,,,,,,,,3,,,60,69
80075,note_off,155,0,5,,,,,,,,,5,,,55,0
80075,note_off,155,0,1,,,,,,,,,1,,,79,0
80135,note_off,95,0,3,,,,,,,,,3,,,60,0
80160,note_on,85,0,1,,,,,,,,,1,,,76,69
80160,note_on,85,0,5,,,,,,,,,5,,,58,69
80280,note_on,145,0,3,,,,,,,,,3,,,60,70
80315,note_off,155,0,5,,,,,,,,,5,,,58,0
80315,note_off,155,0,1,,,,,,,,,1,,,76,0
80375,note_off,95,0,3,,,,,,,,,3,,,60,0
80400,note_on,85,0,5,,,,,,,,,5,,,58,71
80400,note_on,85,0,1,,,,,,,,,1,,,76,70
80520,note_on,145,0,3,,,,,,,,,3,,,60,71
80555,note_off,155,0,1,,,,,,,,,1,,,76,0
80555,note_off,155,0,5,,,,,,,,,5,,,58,0
80615,note_off,95,0,3,,,,,,,,,3,,,60,0
80640,note_on,85,0,1,,,,,,,,,1,,,77,72
80640,note_on,85,0,5,,,,,,,,,5,,,57,72
80760,note_on,145,0,3,,,,,,,,,3,,,60,73
80760,note_off,120,0,1,,,,,,,,,1,,,77,0
80795,note_off,155,0,5,,,,,,,,,5,,,57,0
80855,note_off,95,0,3,,,,,,,,,3,,,60,0
80880,note_on,85,0,5,,,,,,,,,5,,,52,73
80880,note_on,120,0,1,,,,,,,,,1,,,79,73
81000,note_off,120,0,1,,,,,,,,,1,,,79,0
81000,note_on,145,0,3,,,,,,,,,3,,,60,74
81035,note_off,155,0,5,,,,,,,,,5,,,52,0
81095,note_off,95,0,3,,,,,,,,,3,,,60,0
81120,note_on,85,0,5,,,,,,,,,5,,,53,74
81120,note_on,120,0,1,,,,,,,,,1,,,81,74
81240,note_on,145,0,3,,,,,,,,,3,,,60,75
81240,note_off,120,0,1,,,,,,,,,1,,,81,0
81275,note_off,155,0,5,,,,,,,,,5,,,53,0
81335,note_off,95,0,3,,,,,,,,,3,,,60,0
81360,note_on,85,0,5,,,,,,,,,5,,,55,76
81360,note_on,120,0,1,,,,,,,,,1,,,82,75
81480,note_on,145,0,3,,,,,,,,,3,,,60,76
81480,note_off,120,0,1,,,,,,,,,1,,,82,0
81515,note_off,155,0,5,,,,,,,,,5,,,55,0
81575,note_off,95,0,3,,,,,,,,,3,,,60,0
81600,note_on,85,0,5,,,,,,,,,5,,,56,82
81600,note_on,120,0,1,,,,,,,,,1,,,83,82
81720,note_on,145,0,3,,,,,,,,,3,,,60,77
81815,note_off,95,0,3,,,,,,,,,3,,,60,0
81840,note_on,0,0,1,,,,,,,,,1,,,84,78
81840,note_off,240,0,1,,,,,,,,,1,,,83,0
81840,note_on,240,0,5,,,,,,,,,5,,,57,78
81855,note_off,15,0,5,,,,,,,,,5,,,56,0
81960,note_on,145,0,3,,,,,,,,,3,,,60,79
81995,note_off,140,0,5,,,,,,,,,5,,,57,0
82030,note_off,190,0,1,,,,,,,,,1,,,84,0
82055,note_off,95,0,3,,,,,,,,,3,,,60,0
82080,note_on,85,0,5,,,,,,,,,5,,,56,84
82080,note_on,50,0,1,,,,,,,,,1,,,83,86
82200,note_on,145,0,3,,,,,,,,,3,,,60,80
82320,note_off,240,0,1,,,,,,,,,1,,,83,0
82320,note_on,0,0,1,,,,,,,,,1,,,84,81
82320,note_on,240,0,5,,,,,,,,,5,,,57,81
82320,note_off,120,0,3,,,,,,,,,3,,,60,0
82350,note_off,30,0,5,,,,,,,,,5,,,56,0
82440,note_on,120,0,3,,,,,,,,,3,,,60,81
82475,note_off,125,0,5,,,,,,,,,5,,,57,0
82510,note_off,190,0,1,,,,,,,,,1,,,84,0
82520,set_tempo,3800,1,0,,,,,,472440,,,,,,,
82560,note_on,19920,0,2,,,,,,,,,2,,,74,77
82560,set_tempo,40,1,0,,,,,,465116,,,,,,,
82560,note_on,50,0,1,,,,,,,,,1,,,86,77
82560,note_off,120,0,3,,,,,,,,,3,,,60,0
82800,note_on,325,0,5,,,,,,,,,5,,,58,75
83040,note_off,240,0,5,,,,,,,,,5,,,58,0
83040,note_on,0,0,5,,,,,,,,,5,,,57,73
83280,note_off,240,0,5,,,,,,,,,5,,,57,0
83280,note_on,0,0,5,,,,,,,,,5,,,58,71
83330,note_off,770,0,2,,,,,,,,,2,,,74,0
83330,note_off,770,0,1,,,,,,,,,1,,,86,0
83470,note_off,190,0,5,,,,,,,,,5,,,58,0
83520,note_on,190,0,1,,,,,,,,,1,,,76,70
83520,note_on,190,0,2,,,,,,,,,2,,,64,70
83760,note_on,290,0,5,,,,,,,,,5,,,60,66
84000,note_on,0,0,5,,,,,,,,,5,,,59,64
84000,note_off,240,0,5,,,,,,,,,5,,,60,0
84240,note_off,240,0,5,,,,,,,,,5,,,59,0
84240,note_on,0,0,5,,,,,,,,,5,,,60,62
84290,note_off,770,0,2,,,,,,,,,2,,,64,0
84290,note_off,770,0,1,,,,,,,,,1,,,76,0
84430,note_off,190,0,5,,,,,,,,,5,,,60,0
84440,set_tempo,1880,1,0,,,,,,472440,,,,,,,
84480,note_on,190,0,2,,,,,,,,,2,,,70,63
84480,note_on,190,0,1,,,,,,,,,1,,,82,63
84720,note_on,290,0,5,,,,,,,,,5,,,61,58
84960,note_off,240,0,5,,,,,,,,,5,,,61,0
84960,note_on,0,0,5,,,,,,,,,5,,,59,56
85200,note_on,0,0,5,,,,,,,,,5,,,61,54
85200,note_off,240,0,5,,,,,,,,,5,,,59,0
85250,note_off,770,0,2,,,,,,,,,2,,,70,0
85250,note_off,770,0,1,,,,,,,,,1,,,82,0
85390,note_off,190,0,5,,,,,,,,,5,,,61,0
85440,note_on,190,0,1,,,,,,,,,1,,,81,55
85440,note_on,190,0,2,,,,,,,,,2,,,69,55
85680,note_on,290,0,5,,,,,,,,,5,,,62,50
85920,note_off,240,0,5,,,,,,,,,5,,,62,0
85920,note_on,0,0,5,,,,,,,,,5,,,61,48
86160,note_on,0,0,5,,,,,,,,,5,,,62,46
86160,note_off,240,0,5,,,,,,,,,5,,,61,0
86210,note_off,770,0,2,,,,,,,,,2,,,69,0
86210,note_off,770,0,1,,,,,,,,,1,,,81,0
86350,note_off,190,0,5,,,,,,,,,5,,,62,0
86360,set_tempo,1920,1,0,,,,,,480000,,,,,,,
86400,set_tempo,40,1,0,,,,,,465116,,,,,,,
86400,note_on,190,0,1,,,,,,,,,1,,,81,73
86520,note_on,0,0,1,,,,,,,,,1,,,79,72
86520,note_off,120,0,1,,,,,,,,,1,,,81,0
86640,note_on,0,0,1,,,,,,,,,1,,,82,70
86640,note_off,120,0,1,,,,,,,,,1,,,79,0
86760,note_on,0,0,1,,,,,,,,,1,,,81,69
86760,note_off,120,0,1,,,,,,,,,1,,,82,0
86880,note_on,20640,0,4,,,,,,,,,4,,,67,68
86880,note_on,0,0,1,,,,,,,,,1,,,84,68
86880,note_off,120,0,1,,,,,,,,,1,,,81,0
86880,note_on,530,0,5,,,,,,,,,5,,,58,68
87000,note_on,0,0,1,,,,,,,,,1,,,82,66
87000,note_off,120,0,1,,,,,,,,,1,,,84,0
87120,note_on,0,0,1,,,,,,,,,1,,,81,65
87120,note_off,120,0,1,,,,,,,,,1,,,82,0
87240,note_on,0,0,1,,,,,,,,,1,,,79,64
87240,note_off,120,0,1,,,,,,,,,1,,,81,0
87360,note_on,0,0,5,,,,,,,,,5,,,60,62
87360,note_on,0,0,1,,,,,,,,,1,,,77,62
87360,note_off,120,0,1,,,,,,,,,1,,,79,0
87360,note_off,480,0,5,,,,,,,,,5,,,58,0
87360,note_off,480,0,4,,,,,,,,,4,,,67,0
87360,note_on,0,0,4,,,,,,,,,4,,,69,62
87840,note_on,0,0,1,,,,,,,,,1,,,76,57
87840,note_on,0,0,4,,,,,,,,,4,,,70,57
87840,note_off,480,0,4,,,,,,,,,4,,,69,0
87840,note_off,480,0,1,,,,,,,,,1,,,77,0
88225,note_off,385,0,4,,,,,,,,,4,,,70,0
88225,note_off,385,0,1,,,,,,,,,1,,,76,0
88230,note_off,870,0,5,,,,,,,,,5,,,60,0
88280,set_tempo,1880,1,0,,,,,,480000,,,,,,,
88320,set_tempo,40,1,0,,,,,,465116,,,,,,,
88320,note_on,95,0,4,,,,,,,,,4,,,69,53
88320,note_on,90,0,5,,,,,,,,,5,,,65,53
88560,note_on,335,0,1,,,,,,,,,1,,,77,52
88800,note_on,0,0,1,,,,,,,,,1,,,76,52
88800,note_off,240,0,1,,,,,,,,,1,,,77,0
89040,note_on,0,0,1,,,,,,,,,1,,,77,51
89040,note_off,240,0,1,,,,,,,,,1,,,76,0
89080,note_off,760,0,5,,,,,,,,,5,,,65,0
89080,note_off,760,0,4,,,,,,,,,4,,,69,0
89230,note_off,190,0,1,,,,,,,,,1,,,77,0
89280,note_on,200,0,4,,,,,,,,,4,,,69,51
89280,note_on,200,0,5,,,,,,,,,5,,,65,51
89520,note_on,290,0,1,,,,,,,,,1,,,75,50
89760,note_on,0,0,1,,,,,,,,,1,,,74,49
89760,note_off,240,0,1,,,,,,,,,1,,,75,0
90000,note_off,240,0,1,,,,,,,,,1,,,74,0
90000,note_on,0,0,1,,,,,,,,,1,,,75,49
90050,note_off,770,0,4,,,,,,,,,4,,,69,0
90050,note_off,770,0,5,,,,,,,,,5,,,65,0
90190,note_off,190,0,1,,,,,,,,,1,,,75,0
90240,note_on,190,0,5,,,,,,,,,5,,,54,48
90240,note_on,190,0,4,,,,,,,,,4,,,60,48
90240,note_on,0,0,4,,,,,,,,,4,,,57,48
90480,note_on,290,0,1,,,,,,,,,1,,,74,47
90720,note_on,0,0,1,,,,,,,,,1,,,86,45
90720,note_off,240,0,1,,,,,,,,,1,,,74,0
90840,note_off,120,0,1,,,,,,,,,1,,,86,0
90960,note_on,120,0,1,,,,,,,,,1,,,86,44
91080,note_off,120,0,1,,,,,,,,,1,,,86,0
91200,note_on,0,0,4,,,,,,,,,4,,,58,42
91200,note_off,960,0,5,,,,,,,,,5,,,54,0
91200,note_on,0,0,5,,,,,,,,,5,,,55,42
91200,note_off,960,0,4,,,,,,,,,4,,,57,0
91200,note_off,0,0,4,,,,,,,,,4,,,60,0
91440,note_on,360,0,1,,,,,,,,,1,,,86,41
91680,note_on,0,0,1,,,,,,,,,1,,,74,40
91680,note_off,240,0,1,,,,,,,,,1,,,86,0
91795,note_off,115,0,1,,,,,,,,,1,,,74,0
91920,note_on,125,0,1,,,,,,,,,1,,,74,44
91970,note_off,770,0,5,,,,,,,,,5,,,55,0
91970,note_off,770,0,4,,,,,,,,,4,,,58,0
92035,note_off,115,0,1,,,,,,,,,1,,,74,0
92160,note_on,0,0,4,,,,,,,,,4,,,58,43
92160,note_on,190,0,5,,,,,,,,,5,,,52,43
92160,note_on,190,0,4,,,,,,,,,4,,,55,43
92400,note_on,365,0,1,,,,,,,,,1,,,72,41
92640,note_on,0,0,1,,,,,,,,,1,,,84,40
92640,note_off,240,0,1,,,,,,,,,1,,,72,0
92760,note_off,120,0,1,,,,,,,,,1,,,84,0
92880,note_on,120,0,1,,,,,,,,,1,,,84,39
93000,note_off,120,0,1,,,,,,,,,1,,,84,0
93120,note_on,0,0,5,,,,,,,,,5,,,53,37
93120,note_off,960,0,4,,,,,,,,,4,,,58,0
93120,note_off,0,0,4,,,,,,,,,4,,,55,0
93120,note_on,0,0,4,,,,,,,,,4,,,57,37
93120,note_off,960,0,5,,,,,,,,,5,,,52,0
93360,note_on,360,0,1,,,,,,,,,1,,,84,36
93600,note_on,0,0,1,,,,,,,,,1,,,72,35
93600,note_off,240,0,1,,,,,,,,,1,,,84,0
93720,note_off,120,0,1,,,,,,,,,1,,,72,0
93840,note_on,120,0,1,,,,,,,,,1,,,72,34
93890,note_off,770,0,5,,,,,,,,,5,,,53,0
93890,note_off,770,0,4,,,,,,,,,4,,,57,0
93960,note_off,120,0,1,,,,,,,,,1,,,72,0
94040,set_tempo,5720,1,0,,,,,,472440,,,,,,,
94080,note_on,120,0,1,,,,,,,,,1,,,73,38
94320,note_on,0,0,1,,,,,,,,,1,,,74,38
94320,note_off,240,0,1,,,,,,,,,1,,,73,0
94560,note_on,670,0,5,,,,,,,,,5,,,47,37
94560,note_on,0,0,1,,,,,,,,,1,,,76,37
94560,note_off,240,0,1,,,,,,,,,1,,,74,0
94560,note_on,670,0,4,,,,,,,,,4,,,55,37
94800,note_off,240,0,1,,,,,,,,,1,,,76,0
94800,note_on,0,0,1,,,,,,,,,1,,,77,36
94990,note_off,190,0,1,,,,,,,,,1,,,77,0
95040,note_off,480,0,4,,,,,,,,,4,,,55,0
95040,note_on,0,0,4,,,,,,,,,4,,,57,36
95040,note_on,0,0,5,,,,,,,,,5,,,48,36
95040,note_off,480,0,5,,,,,,,,,5,,,47,0
95040,note_on,50,0,1,,,,,,,,,1,,,65,36
95520,note_off,480,0,4,,,,,,,,,4,,,57,0
95520,note_on,0,0,4,,,,,,,,,4,,,58,34
95520,note_off,480,0,1,,,,,,,,,1,,,65,0
95520,note_on,0,0,1,,,,,,,,,1,,,69,34
95760,note_on,0,0,1,,,,,,,,,1,,,67,34
95760,note_off,240,0,1,,,,,,,,,1,,,69,0
95960,set_tempo,1920,1,0,,,,,,480000,,,,,,,
96000,note_off,960,0,5,,,,,,,,,5,,,48,0
96000,note_off,240,0,1,,,,,,,,,1,,,67,0
96000,note_on,0,0,1,,,,,,,,,1,,,65,35
96000,note_on,0,0,5,,,,,,,,,5,,,53,35
96000,note_on,0,0,4,,,,,,,,,4,,,57,35
96000,note_off,480,0,4,,,,,,,,,4,,,58,0
96000,set_tempo,40,1,0,,,,,,461538,,,,,,,
96190,note_off,190,0,1,,,,,,,,,1,,,65,0
96190,note_off,190,0,5,,,,,,,,,5,,,53,0
96190,note_off,190,0,4,,,,,,,,,4,,,57,0
96240,note_on,50,0,1,,,,,,,,,1,,,65,37
96360,note_off,120,0,1,,,,,,,,,1,,,65,0
96360,note_on,0,0,1,,,,,,,,,1,,,69,38
96480,note_on,0,0,1,,,,,,,,,1,,,67,39
96480,note_off,120,0,1,,,,,,,,,1,,,69,0
96480,note_on,290,0,5,,,,,,,,,5,,,64,39
96600,note_on,0,0,1,,,,,,,,,1,,,70,40
96600,note_off,120,0,1,,,,,,,,,1,,,67,0
96720,note_on,0,0,1,,,,,,,,,1,,,69,41
96720,note_off,120,0,1,,,,,,,,,1,,,70,0
96720,note_off,240,0,5,,,,,,,,,5,,,64,0
96720,note_on,0,0,5,,,,,,,,,5,,,63,41
96840,note_on,0,0,1,,,,,,,,,1,,,72,42
96840,note_off,120,0,1,,,,,,,,,1,,,69,0
96960,note_off,240,0,5,,,,,,,,,5,,,63,0
96960,note_on,0,0,5,,,,,,,,,5,,,62,43
96960,note_on,0,0,5,,,,,,,,,5,,,53,43
96960,note_off,120,0,1,,,,,,,,,1,,,72,0
96960,note_on,0,0,1,,,,,,,,,1,,,70,43
97150,note_off,190,0,1,,,,,,,,,1,,,70,0
97150,note_off,190,0,5,,,,,,,,,5,,,53,0
97150,note_off,0,0,5,,,,,,,,,5,,,62,0
97200,note_on,50,0,1,,,,,,,,,1,,,65,46
97320,note_off,120,0,1,,,,,,,,,1,,,65,0
97320,note_on,0,0,1,,,,,,,,,1,,,69,47
97440,note_on,290,0,5,,,,,,,,,5,,,64,48
97440,note_off,120,0,1,,,,,,,,,1,,,69,0
97440,note_on,0,0,1,,,,,,,,,1,,,67,48
97560,note_on,0,0,1,,,,,,,,,1,,,70,49
97560,note_off,120,0,1,,,,,,,,,1,,,67,0
97680,note_off,120,0,1,,,,,,,,,1,,,70,0
97680,note_on,0,0,5,,,,,,,,,5,,,63,50
97680,note_off,240,0,5,,,,,,,,,5,,,64,0
97680,note_on,0,0,1,,,,,,,,,1,,,69,50
97800,note_off,120,0,1,,,,,,,,,1,,,69,0
97800,note_on,0,0,1,,,,,,,,,1,,,72,51
97880,set_tempo,1880,1,0,,,,,,465116,,,,,,,
97920,note_on,0,0,5,,,,,,,,,5,,,62,52
97920,note_off,240,0,5,,,,,,,,,5,,,63,0
97920,set_tempo,40,1,0,,,,,,461538,,,,,,,
97920,note_on,0,0,5,,,,,,,,,5,,,53,52
97920,note_off,120,0,1,,,,,,,,,1,,,72,0
97920,note_on,0,0,1,,,,,,,,,1,,,70,52
98110,note_off,0,0,5,,,,,,,,,5,,,62,0
98110,note_off,190,0,5,,,,,,,,,5,,,53,0
98110,note_off,190,0,1,,,,,,,,,1,,,70,0
98160,note_on,50,0,1,,,,,,,,,1,,,65,54
98280,note_off,120,0,1,,,,,,,,,1,,,65,0
98280,note_on,0,0,1,,,,,,,,,1,,,69,55
98400,note_on,290,0,5,,,,,,,,,5,,,64,56
98400,note_off,120,0,1,,,,,,,,,1,,,69,0
98400,note_on,0,0,1,,,,,,,,,1,,,67,56
98520,note_off,120,0,1,,,,,,,,,1,,,67,0
98520,note_on,0,0,1,,,,,,,,,1,,,70,57
98640,note_on,0,0,5,,,,,,,,,5,,,63,58
98640,note_off,240,0,5,,,,,,,,,5,,,64,0
98640,note_on,0,0,1,,,,,,,,,1,,,69,58
98640,note_off,120,0,1,,,,,,,,,1,,,70,0
98760,note_on,0,0,1,,,,,,,,,1,,,72,59
98760,note_off,120,0,1,,,,,,,,,1,,,69,0
98880,note_off,240,0,5,,,,,,,,,5,,,63,0
98880,note_on,0,0,5,,,,,,,,,5,,,62,61
98880,note_on,0,0,1,,,,,,,,,1,,,70,61
98880,note_off,120,0,1,,,,,,,,,1,,,72,0
99000,note_on,0,0,1,,,,,,,,,1,,,74,62
99000,note_off,120,0,1,,,,,,,,,1,,,70,0
99070,note_off,190,0,5,,,,,,,,,5,,,62,0
99120,note_off,120,0,1,,,,,,,,,1,,,74,0
99120,note_on,0,0,1,,,,,,,,,1,,,72,63
99120,note_on,50,0,5,,,,,,,,,5,,,57,63
99240,note_off,120,0,1,,,,,,,,,1,,,72,0
99240,note_on,0,0,1,,,,,,,,,1,,,75,64
99310,note_off,190,0,5,,,,,,,,,5,,,57,0
99360,note_on,0,0,1,,,,,,,,,1,,,74,65
99360,note_off,120,0,1,,,,,,,,,1,,,75,0
99360,note_on,50,0,5,,,,,,,,,5,,,58,65
99480,note_on,0,0,1,,,,,,,,,1,,,77,66
99480,note_off,120,0,1,,,,,,,,,1,,,74,0
99550,note_off,190,0,5,,,,,,,,,5,,,58,0
99600,note_on,50,0,5,,,,,,,,,5,,,55,67
99600,note_on,0,0,1,,,,,,,,,1,,,76,67
99600,note_off,120,0,1,,,,,,,,,1,,,77,0
99720,note_on,0,0,1,,,,,,,,,1,,,79,68
99720,note_off,120,0,1,,,,,,,,,1,,,76,0
99790,note_off,190,0,5,,,,,,,,,5,,,55,0
99800,set_tempo,1880,1,0,,,,,,465116,,,,,,,
99840,note_on,50,0,5,,,,,,,,,5,,,57,71
99840,note_off,120,0,1,,,,,,,,,1,,,79,0
99840,note_on,0,0,1,,,,,,,,,1,,,77,71
99840,set_tempo,40,1,0,,,,,,461538,,,,,,,
99960,note_off,120,0,1,,,,,,,,,1,,,77,0
99960,note_on,0,0,1,,,,,,,,,1,,,79,69
100080,note_off,120,0,1,,,,,,,,,1,,,79,0
100080,note_on,0,0,1,,,,,,,,,1,,,81,67
100200,note_off,120,0,1,,,,,,,,,1,,,81,0
100200,note_on,0,0,1,,,,,,,,,1,,,79,66
100200,note_off,360,0,5,,,,,,,,,5,,,57,0
100320,note_off,120,0,1,,,,,,,,,1,,,79,0
100320,note_on,0,0,1,,,,,,,,,1,,,77,65
100440,note_on,0,0,1,,,,,,,,,1,,,75,64
100440,note_off,120,0,1,,,,,,,,,1,,,77,0
100560,note_on,0,0,1,,,,,,,,,1,,,74,62
100560,note_off,120,0,1,,,,,,,,,1,,,75,0
100680,note_on,0,0,1,,,,,,,,,1,,,73,61
100680,note_off,120,0,1,,,,,,,,,1,,,74,0
100800,note_on,0,0,1,,,,,,,,,1,,,74,60
100800,note_off,120,0,1,,,,,,,,,1,,,73,0
100800,note_on,600,0,5,,,,,,,,,5,,,58,60
100920,note_off,120,0,1,,,,,,,,,1,,,74,0
100920,note_on,0,0,1,,,,,,,,,1,,,72,59
101040,note_on,0,0,1,,,,,,,,,1,,,70,57
101040,note_off,120,0,1,,,,,,,,,1,,,72,0
101160,note_off,360,0,5,,,,,,,,,5,,,58,0
101160,note_on,0,0,1,,,,,,,,,1,,,69,56
101160,note_off,120,0,1,,,,,,,,,1,,,70,0
101280,note_on,0,0,1,,,,,,,,,1,,,67,55
101280,note_off,120,0,1,,,,,,,,,1,,,69,0
101400,note_on,0,0,1,,,,,,,,,1,,,65,54
101400,note_off,120,0,1,,,,,,,,,1,,,67,0
101520,note_off,120,0,1,,,,,,,,,1,,,65,0
101520,note_on,0,0,1,,,,,,,,,1,,,64,52
101640,note_off,120,0,1,,,,,,,,,1,,,64,0
101640,note_on,0,0,1,,,,,,,,,1,,,62,51
101760,note_on,0,0,1,,,,,,,,,1,,,60,48
101760,note_on,600,0,5,,,,,,,,,5,,,48,48
101760,note_off,120,0,1,,,,,,,,,1,,,62,0
101880,note_off,120,0,1,,,,,,,,,1,,,60,0
101880,note_on,0,0,1,,,,,,,,,1,,,65,48
102000,note_off,120,0,1,,,,,,,,,1,,,65,0
102000,note_on,0,0,1,,,,,,,,,1,,,69,49
102000,note_on,5810,0,4,,,,,,,,,4,,,53,49
102120,note_off,120,0,1,,,,,,,,,1,,,69,0
102120,note_on,0,0,1,,,,,,,,,1,,,72,50
102240,note_off,120,0,1,,,,,,,,,1,,,72,0
102240,note_on,0,0,1,,,,,,,,,1,,,77,51
102240,set_tempo,2400,1,0,,,,,,465116,,,,,,,
102240,note_off,480,0,5,,,,,,,,,5,,,48,0
102240,note_on,0,0,4,,,,,,,,,4,,,57,51
102240,note_off,240,0,4,,,,,,,,,4,,,53,0
102360,note_off,120,0,1,,,,,,,,,1,,,77,0
102480,note_off,240,0,4,,,,,,,,,4,,,57,0
102480,note_on,16270,0,2,,,,,,,,,2,,,65,53
102480,note_on,0,0,4,,,,,,,,,4,,,53,53
102480,note_on,120,0,1,,,,,,,,,1,,,69,53
102600,note_off,120,0,2,,,,,,,,,2,,,65,0
102600,note_off,120,0,1,,,,,,,,,1,,,69,0
102670,note_off,190,0,4,,,,,,,,,4,,,53,0
102720,note_on,120,0,2,,,,,,,,,2,,,69,56
102720,note_on,480,0,5,,,,,,,,,5,,,48,56
102720,note_on,120,0,1,,,,,,,,,1,,,72,56
102960,note_off,240,0,1,,,,,,,,,1,,,72,0
102960,note_on,0,0,1,,,,,,,,,1,,,70,52
102960,note_off,240,0,2,,,,,,,,,2,,,69,0
102960,note_on,0,0,2,,,,,,,,,2,,,67,52
102960,note_on,290,0,4,,,,,,,,,4,,,55,52
103080,note_off,120,0,1,,,,,,,,,1,,,70,0
103080,note_off,120,0,2,,,,,,,,,2,,,67,0
103200,note_on,120,0,2,,,,,,,,,2,,,65,47
103200,note_off,480,0,5,,,,,,,,,5,,,48,0
103200,note_on,120,0,1,,,,,,,,,1,,,69,47
103200,note_off,240,0,4,,,,,,,,,4,,,55,0
103200,note_on,0,0,4,,,,,,,,,4,,,58,47
103320,note_off,120,0,2,,,,,,,,,2,,,65,0
103320,note_off,120,0,1,,,,,,,,,1,,,69,0
103440,note_on,120,0,1,,,,,,,,,1,,,67,43
103440,note_on,120,0,2,,,,,,,,,2,,,64,43
103440,note_on,0,0,4,,,,,,,,,4,,,55,43
103440,note_off,240,0,4,,,,,,,,,4,,,58,0
103560,note_off,120,0,2,,,,,,,,,2,,,64,0
103560,note_off,120,0,1,,,,,,,,,1,,,67,0
103630,note_off,190,0,4,,,,,,,,,4,,,55,0
103640,set_tempo,1400,1,0,,,,,,472440,,,,,,,
103680,note_on,50,0,4,,,,,,,,,4,,,57,39
103680,note_on,480,0,5,,,,,,,,,5,,,53,39
103680,set_tempo,40,1,0,,,,,,461538,,,,,,,
103680,note_on,120,0,1,,,,,,,,,1,,,65,39
103870,note_off,190,0,4,,,,,,,,,4,,,57,0
103870,note_off,190,0,5,,,,,,,,,5,,,53,0
103870,note_off,190,0,1,,,,,,,,,1,,,65,0
103920,note_on,50,0,1,,,,,,,,,1,,,77,41
103920,note_on,50,0,5,,,,,,,,,5,,,65,41
104040,note_on,0,0,1,,,,,,,,,1,,,81,42
104040,note_off,120,0,1,,,,,,,,,1,,,77,0
104160,note_off,120,0,1,,,,,,,,,1,,,81,0
104160,note_on,0,0,1,,,,,,,,,1,,,79,43
104160,note_off,240,0,5,,,,,,,,,5,,,65,0
104160,note_on,0,0,5,,,,,,,,,5,,,64,43
104280,note_off,120,0,1,,,,,,,,,1,,,79,0
104280,note_on,0,0,1,,,,,,,,,1,,,82,43
104400,note_on,0,0,5,,,,,,,,,5,,,63,44
104400,note_off,240,0,5,,,,,,,,,5,,,64,0
104400,note_off,120,0,1,,,,,,,,,1,,,82,0
104400,note_on,0,0,1,,,,,,,,,1,,,81,44
104520,note_off,120,0,1,,,,,,,,,1,,,81,0
104520,note_on,0,0,1,,,,,,,,,1,,,84,45
104640,note_off,240,0,5,,,,,,,,,5,,,63,0
104640,note_on,0,0,5,,,,,,,,,5,,,53,45
104640,note_on,0,0,5,,,,,,,,,5,,,62,45
104640,note_off,120,0,1,,,,,,,,,1,,,84,0
104640,note_on,0,0,1,,,,,,,,,1,,,82,45
104830,note_off,0,0,5,,,,,,,,,5,,,53,0
104830,note_off,190,0,5,,,,,,,,,5,,,62,0
104830,note_off,190,0,1,,,,,,,,,1,,,82,0
104880,note_on,50,0,5,,,,,,,,,5,,,65,47
104880,note_on,50,0,1,,,,,,,,,1,,,77,47
105000,note_off,120,0,1,,,,,,,,,1,,,77,0
105000,note_on,0,0,1,,,,,,,,,1,,,81,48
105120,note_off,120,0,1,,,,,,,,,1,,,81,0
105120,note_on,0,0,5,,,,,,,,,5,,,64,48
105120,note_off,240,0,5,,,,,,,,,5,,,65,0
105120,note_on,0,0,1,,,,,,,,,1,,,79,48
105240,note_off,120,0,1,,,,,,,,,1,,,79,0
105240,note_on,0,0,1,,,,,,,,,1,,,82,49
105360,note_off,120,0,1,,,,,,,,,1,,,82,0
105360,note_on,0,0,5,,,,,,,,,5,,,63,50
105360,note_off,240,0,5,,,,,,,,,5,,,64,0
105360,note_on,0,0,1,,,,,,,,,1,,,81,50
105480,note_on,0,0,1,,,,,,,,,1,,,84,50
105480,note_off,120,0,1,,,,,,,,,1,,,81,0
105560,set_tempo,1880,1,0,,,,,,465116,,,,,,,
105600,note_on,0,0,5,,,,,,,,,5,,,62,51
105600,note_on,0,0,5,,,,,,,,,5,,,53,51
105600,note_off,120,0,1,,,,,,,,,1,,,84,0
105600,note_on,0,0,1,,,,,,,,,1,,,82,51
105600,set_tempo,40,1,0,,,,,,461538,,,,,,,
105600,note_off,240,0,5,,,,,,,,,5,,,63,0
105790,note_off,0,0,5,,,,,,,,,5,,,53,0
105790,note_off,190,0,1,,,,,,,,,1,,,82,0
105790,note_off,190,0,5,,,,,,,,,5,,,62,0
105840,note_on,50,0,1,,,,,,,,,1,,,77,53
105840,note_on,50,0,5,,,,,,,,,5,,,65,53
105960,note_on,0,0,1,,,,,,,,,1,,,81,53
105960,note_off,120,0,1,,,,,,,,,1,,,77,0
106080,note_on,0,0,1,,,,,,,,,1,,,79,54
106080,note_off,120,0,1,,,,,,,,,1,,,81,0
106080,note_off,240,0,5,,,,,,,,,5,,,65,0
106080,note_on,0,0,5,,,,,,,,,5,,,64,54
106200,note_off,120,0,1,,,,,,,,,1,,,79,0
106200,note_on,0,0,1,,,,,,,,,1,,,82,55
106320,note_off,120,0,1,,,,,,,,,1,,,82,0
106320,note_on,0,0,1,,,,,,,,,1,,,81,55
106320,note_on,0,0,5,,,,,,,,,5,,,63,55
106320,note_off,240,0,5,,,,,,,,,5,,,64,0
106440,note_on,0,0,1,,,,,,,,,1,,,84,56
106440,note_off,120,0,1,,,,,,,,,1,,,81,0
106560,note_off,240,0,5,,,,,,,,,5,,,63,0
106560,note_on,0,0,5,,,,,,,,,5,,,62,57
106560,note_off,120,0,1,,,,,,,,,1,,,84,0
106560,note_on,0,0,1,,,,,,,,,1,,,82,57
106680,note_on,3120,0,2,,,,,,,,,2,,,77,57
106680,note_off,120,0,1,,,,,,,,,1,,,82,0
106750,note_off,190,0,5,,,,,,,,,5,,,62,0
106800,note_on,120,0,1,,,,,,,,,1,,,84,58
106800,note_on,50,0,5,,,,,,,,,5,,,57,58
106800,note_off,120,0,2,,,,,,,,,2,,,77,0
106920,note_on,120,0,2,,,,,,,,,2,,,77,59
106920,note_off,120,0,1,,,,,,,,,1,,,84,0
106990,note_off,190,0,5,,,,,,,,,5,,,57,0
107040,note_off,120,0,2,,,,,,,,,2,,,77,0
107040,note_on,50,0,5,,,,,,,,,5,,,58,60
107040,note_on,120,0,1,,,,,,,,,1,,,86,60
107160,note_off,120,0,1,,,,,,,,,1,,,86,0
107160,note_on,120,0,2,,,,,,,,,2,,,77,60
107230,note_off,190,0,5,,,,,,,,,5,,,58,0
107280,note_on,50,0,5,,,,,,,,,5,,,55,61
107280,note_on,120,0,1,,,,,,,,,1,,,88,61
107280,note_off,120,0,2,,,,,,,,,2,,,77,0
107400,note_off,120,0,1,,,,,,,,,1,,,88,0
107400,note_on,120,0,2,,,,,,,,,2,,,77,62
107470,note_off,190,0,5,,,,,,,,,5,,,55,0
107480,set_tempo,1880,1,0,,,,,,465116,,,,,,,
107520,note_on,0,0,5,,,,,,,,,5,,,45,62
107520,set_tempo,40,1,0,,,,,,461538,,,,,,,
107520,note_on,50,0,5,,,,,,,,,5,,,57,62
107520,note_on,120,0,1,,,,,,,,,1,,,89,62
107520,note_off,120,0,2,,,,,,,,,2,,,77,0
107640,note_on,0,0,1,,,,,,,,,1,,,88,63
107640,note_off,120,0,1,,,,,,,,,1,,,89,0
107760,note_off,120,0,1,,,,,,,,,1,,,88,0
107760,note_on,0,0,1,,,,,,,,,1,,,86,64
107880,note_off,0,0,5,,,,,,,,,5,,,57,0
107880,note_off,360,0,5,,,,,,,,,5,,,45,0
107880,note_on,0,0,1,,,,,,,,,1,,,84,65
107880,note_off,120,0,1,,,,,,,,,1,,,86,0
108000,note_on,0,0,1,,,,,,,,,1,,,82,65
108000,note_off,120,0,1,,,,,,,,,1,,,84,0
108120,note_off,120,0,1,,,,,,,,,1,,,82,0
108120,note_on,0,0,1,,,,,,,,,1,,,81,66
108240,note_off,120,0,1,,,,,,,,,1,,,81,0
108240,note_on,0,0,1,,,,,,,,,1,,,79,67
108360,note_off,120,0,1,,,,,,,,,1,,,79,0
108360,note_on,0,0,1,,,,,,,,,1,,,77,67
108480,note_on,600,0,5,,,,,,,,,5,,,46,68
108480,note_on,0,0,1,,,,,,,,,1,,,86,68
108480,note_on,0,0,5,,,,,,,,,5,,,58,68
108480,note_off,120,0,1,,,,,,,,,1,,,77,0
108600,note_off,120,0,1,,,,,,,,,1,,,86,0
108600,note_on,0,0,1,,,,,,,,,1,,,84,69
108720,note_off,120,0,1,,,,,,,,,1,,,84,0
108720,note_on,0,0,1,,,,,,,,,1,,,82,70
108840,note_off,360,0,5,,,,,,,,,5,,,58,0
108840,note_off,120,0,1,,,,,,,,,1,,,82,0
108840,note_off,0,0,5,,,,,,,,,5,,,46,0
108840,note_on,0,0,1,,,,,,,,,1,,,81,70
108960,note_on,0,0,1,,,,,,,,,1,,,79,71
108960,note_off,120,0,1,,,,,,,,,1,,,81,0
109080,note_on,0,0,1,,,,,,,,,1,,,77,72
109080,note_off,120,0,1,,,,,,,,,1,,,79,0
109200,note_on,0,0,1,,,,,,,,,1,,,76,72
109200,note_off,120,0,1,,,,,,,,,1,,,77,0
109320,note_on,0,0,1,,,,,,,,,1,,,74,73
109320,note_off,120,0,1,,,,,,,,,1,,,76,0
109400,set_tempo,1880,1,0,,,,,,465116,,,,,,,
109440,note_on,0,0,1,,,,,,,,,1,,,72,74
109440,note_off,120,0,1,,,,,,,,,1,,,74,0
109440,note_on,600,0,5,,,,,,,,,5,,,48,74
109440,set_tempo,40,1,0,,,,,,461538,,,,,,,
109560,note_on,27000,0,3,,,,,,,,,3,,,57,74
109595,note_off,155,0,1,,,,,,,,,1,,,72,0
109655,note_off,95,0,3,,,,,,,,,3,,,57,0
109680,note_on,25,0,3,,,,,,,,,3,,,53,75
109680,note_on,85,0,1,,,,,,,,,1,,,84,75
109775,note_off,95,0,3,,,,,,,,,3,,,53,0
109800,note_on,25,0,3,,,,,,,,,3,,,57,76
109800,note_off,360,0,5,,,,,,,,,5,,,48,0
109835,note_off,155,0,1,,,,,,,,,1,,,84,0
109895,note_off,95,0,3,,,,,,,,,3,,,57,0
109920,note_on,120,0,5,,,,,,,,,5,,,48,77
109920,note_on,85,0,1,,,,,,,,,1,,,84,77
110040,note_on,145,0,3,,,,,,,,,3,,,57,77
110075,note_off,155,0,1,,,,,,,,,1,,,84,0
110135,note_off,95,0,3,,,,,,,,,3,,,57,0
110160,note_on,85,0,1,,,,,,,,,1,,,84,78
110160,note_on,25,0,3,,,,,,,,,3,,,53,78
110255,note_off,95,0,3,,,,,,,,,3,,,53,0
110255,note_off,95,0,1,,,,,,,,,1,,,84,0
110280,note_on,25,0,3,,,,,,,,,3,,,57,79
110280,note_off,360,0,5,,,,,,,,,5,,,48,0
110375,note_off,95,0,3,,,,,,,,,3,,,57,0
110400,note_on,145,0,1,,,,,,,,,1,,,84,79
110400,note_on,120,0,5,,,,,,,,,5,,,48,79
110495,note_off,95,0,1,,,,,,,,,1,,,84,0
110520,note_on,145,0,3,,,,,,,,,3,,,57,80
110520,note_on,25,0,1,,,,,,,,,1,,,81,80
110615,note_off,95,0,3,,,,,,,,,3,,,57,0
110615,note_off,95,0,1,,,,,,,,,1,,,81,0
110640,note_on,25,0,3,,,,,,,,,3,,,53,81
110640,note_on,25,0,1,,,,,,,,,1,,,77,81
110735,note_off,95,0,3,,,,,,,,,3,,,53,0
110735,note_off,95,0,1,,,,,,,,,1,,,77,0
110760,note_on,25,0,3,,,,,,,,,3,,,57,82
110760,note_off,360,0,5,,,,,,,,,5,,,48,0
110760,note_on,25,0,1,,,,,,,,,1,,,72,82
110855,note_off,95,0,1,,,,,,,,,1,,,72,0
110855,note_off,95,0,3,,,,,,,,,3,,,57,0
110880,note_on,120,0,5,,,,,,,,,5,,,48,82
110880,note_on,25,0,1,,,,,,,,,1,,,77,82
110975,note_off,95,0,1,,,,,,,,,1,,,77,0
111000,note_on,25,0,1,,,,,,,,,1,,,72,83
111000,note_on,145,0,3,,,,,,,,,3,,,57,83
111095,note_off,95,0,3,,,,,,,,,3,,,57,0
111095,note_off,95,0,1,,,,,,,,,1,,,72,0
111120,note_on,25,0,3,,,,,,,,,3,,,53,84
111120,note_on,25,0,1,,,,,,,,,1,,,69,84
111215,note_off,95,0,3,,,,,,,,,3,,,53,0
111215,note_off,95,0,1,,,,,,,,,1,,,69,0
111240,note_on,25,0,1,,,,,,,,,1,,,65,84
111240,note_off,360,0,5,,,,,,,,,5,,,48,0
111240,note_on,25,0,3,,,,,,,,,3,,,57,84
111320,set_tempo,1880,1,0,,,,,,465116,,,,,,,
111320,note_off,80,0,1,,,,,,,,,1,,,65,0
111335,note_off,95,0,3,,,,,,,,,3,,,57,0
111360,note_on,40,0,1,,,,,,,,,1,,,67,87
111360,note_on,120,0,5,,,,,,,,,5,,,48,87
111440,note_off,80,0,1,,,,,,,,,1,,,67,0
111440,note_on,3920,0,2,,,,,,,,,2,,,69,85
111480,note_on,145,0,3,,,,,,,,,3,,,58,85
111520,note_off,80,0,2,,,,,,,,,2,,,69,0
111520,note_on,0,0,2,,,,,,,,,2,,,67,84
111575,note_off,95,0,3,,,,,,,,,3,,,58,0
111600,note_on,0,0,2,,,,,,,,,2,,,69,84
111600,note_on,25,0,3,,,,,,,,,3,,,52,84
111600,note_off,80,0,2,,,,,,,,,2,,,67,0
111680,note_off,80,0,2,,,,,,,,,2,,,69,0
111680,note_on,0,0,2,,,,,,,,,2,,,67,83
111695,note_off,95,0,3,,,,,,,,,3,,,52,0
111720,note_off,360,0,5,,,,,,,,,5,,,48,0
111720,note_on,25,0,3,,,,,,,,,3,,,58,83
111760,note_off,80,0,2,,,,,,,,,2,,,67,0
111760,note_on,0,0,2,,,,,,,,,2,,,69,82
111815,note_off,95,0,3,,,,,,,,,3,,,58,0
111840,note_on,0,0,2,,,,,,,,,2,,,67,82
111840,note_off,80,0,2,,,,,,,,,2,,,69,0
111840,note_on,120,0,5,,,,,,,,,5,,,48,82
111920,note_on,0,0,2,,,,,,,,,2,,,69,81
111920,note_off,80,0,2,,,,,,,,,2,,,67,0
111960,note_on,145,0,3,,,,,,,,,3,,,58,81
112000,note_on,0,0,2,,,,,,,,,2,,,67,80
112000,note_off,80,0,2,,,,,,,,,2,,,69,0
112055,note_off,95,0,3,,,,,,,,,3,,,58,0
112080,note_on,25,0,3,,,,,,,,,3,,,52,80
112080,note_off,80,0,2,,,,,,,,,2,,,67,0
112080,note_on,0,0,2,,,,,,,,,2,,,69,80
112160,note_on,0,0,2,,,,,,,,,2,,,67,79
112160,note_off,80,0,2,,,,,,,,,2,,,69,0
112175,note_off,95,0,3,,,,,,,,,3,,,52,0
112200,note_off,360,0,5,,,,,,,,,5,,,48,0
112200,note_on,25,0,3,,,,,,,,,3,,,58,79
112240,note_on,0,0,2,,,,,,,,,2,,,69,79
112240,note_off,80,0,2,,,,,,,,,2,,,67,0
112295,note_off,95,0,3,,,,,,,,,3,,,58,0
112320,note_on,120,0,5,,,,,,,,,5,,,48,78
112320,note_off,80,0,2,,,,,,,,,2,,,69,0
112320,note_on,0,0,2,,,,,,,,,2,,,67,78
112400,note_off,80,0,2,,,,,,,,,2,,,67,0
112400,note_on,0,0,2,,,,,,,,,2,,,69,77
112440,note_on,145,0,3,,,,,,,,,3,,,58,77
112480,note_on,0,0,2,,,,,,,,,2,,,67,77
112480,note_off,80,0,2,,,,,,,,,2,,,69,0
112535,note_off,95,0,3,,,,,,,,,3,,,58,0
112560,note_on,25,0,3,,,,,,,,,3,,,52,76
112560,note_on,0,0,2,,,,,,,,,2,,,69,76
112560,note_off,80,0,2,,,,,,,,,2,,,67,0
112640,note_off,80,0,2,,,,,,,,,2,,,69,0
112640,note_on,0,0,2,,,,,,,,,2,,,67,75
112655,note_off,95,0,3,,,,,,,,,3,,,52,0
112680,note_off,360,0,5,,,,,,,,,5,,,48,0
112680,note_on,25,0,3,,,,,,,,,3,,,58,75
112720,note_on,0,0,2,,,,,,,,,2,,,69,75
112720,note_off,80,0,2,,,,,,,,,2,,,67,0
112775,note_off,95,0,3,,,,,,,,,3,,,58,0
112800,note_on,120,0,5,,,,,,,,,5,,,48,74
112800,note_off,80,0,2,,,,,,,,,2,,,69,0
112800,note_on,0,0,2,,,,,,,,,2,,,67,74
112880,note_on,0,0,2,,,,,,,,,2,,,69,73
112880,note_off,80,0,2,,,,,,,,,2,,,67,0
112920,note_on,145,0,3,,,,,,,,,3,,,58,73
112960,note_off,80,0,2,,,,,,,,,2,,,69,0
112960,note_on,0,0,2,,,,,,,,,2,,,67,73
113015,note_off,95,0,3,,,,,,,,,3,,,58,0
113040,note_on,25,0,3,,,,,,,,,3,,,52,72
113040,note_off,80,0,2,,,,,,,,,2,,,67,0
113040,note_on,0,0,2,,,,,,,,,2,,,65,72
113135,note_off,95,0,2,,,,,,,,,2,,,65,0
113135,note_off,95,0,3,,,,,,,,,3,,,52,0
113160,note_on,25,0,2,,,,,,,,,2,,,67,71
113160,note_off,360,0,5,,,,,,,,,5,,,48,0
113160,note_on,25,0,3,,,,,,,,,3,,,58,71
113240,set_tempo,1920,1,0,,,,,,472440,,,,,,,
113255,note_off,95,0,3,,,,,,,,,3,,,58,0
113255,note_off,95,0,2,,,,,,,,,2,,,67,0
113280,note_on,120,0,5,,,,,,,,,5,,,53,70
113280,set_tempo,40,1,0,,,,,,465116,,,,,,,
113280,note_on,1840,0,1,,,,,,,,,1,,,65,70
113470,note_off,190,0,5,,,,,,,,,5,,,53,0
113520,note_on,50,0,5,,,,,,,,,5,,,65,60
113520,note_on,0,0,1,,,,,,,,,1,,,77,60
113520,note_off,240,0,1,,,,,,,,,1,,,65,0
113675,note_off,155,0,1,,,,,,,,,1,,,77,0
113760,note_off,240,0,5,,,,,,,,,5,,,65,0
113760,note_on,0,0,5,,,,,,,,,5,,,64,49
114000,note_on,325,0,1,,,,,,,,,1,,,77,52
114000,note_on,0,0,5,,,,,,,,,5,,,65,52
114000,note_off,240,0,5,,,,,,,,,5,,,64,0
114240,note_on,0,0,5,,,,,,,,,5,,,67,55
114240,note_off,240,0,5,,,,,,,,,5,,,65,0
114240,note_on,0,0,1,,,,,,,,,1,,,76,55
114240,note_off,240,0,1,,,,,,,,,1,,,77,0
114480,note_on,0,0,1,,,,,,,,,1,,,77,58
114480,note_off,240,0,1,,,,,,,,,1,,,76,0
114480,note_off,240,0,5,,,,,,,,,5,,,67,0
114480,note_on,0,0,5,,,,,,,,,5,,,65,58
114720,note_off,240,0,1,,,,,,,,,1,,,77,0
114720,note_off,240,0,5,,,,,,,,,5,,,65,0
114720,note_on,0,0,1,,,,,,,,,1,,,79,61
114720,note_on,0,0,5,,,,,,,,,5,,,64,61
114960,note_on,0,0,5,,,,,,,,,5,,,63,64
114960,note_on,0,0,1,,,,,,,,,1,,,81,64
114960,note_off,240,0,5,,,,,,,,,5,,,64,0
114960,note_off,240,0,1,,,,,,,,,1,,,79,0
115150,note_off,190,0,1,,,,,,,,,1,,,81,0
115150,note_off,190,0,5,,,,,,,,,5,,,63,0
115200,note_on,50,0,5,,,,,,,,,5,,,62,71
115200,note_on,50,0,1,,,,,,,,,1,,,82,71
115320,note_on,0,0,1,,,,,,,,,1,,,84,70
115320,note_off,120,0,1,,,,,,,,,1,,,82,0
115440,note_on,11570,0,4,,,,,,,,,4,,,53,68
115440,note_off,120,0,1,,,,,,,,,1,,,84,0
115440,note_on,0,0,1,,,,,,,,,1,,,86,68
115560,note_off,360,0,5,,,,,,,,,5,,,62,0
115560,note_off,120,0,1,,,,,,,,,1,,,86,0
115560,note_on,0,0,1,,,,,,,,,1,,,84,67
115680,note_off,240,0,4,,,,,,,,,4,,,53,0
115680,note_on,120,0,5,,,,,,,,,5,,,61,65
115680,note_on,0,0,1,,,,,,,,,1,,,82,65
115680,note_off,120,0,1,,,,,,,,,1,,,84,0
115800,note_off,120,0,1,,,,,,,,,1,,,82,0
115800,note_on,0,0,1,,,,,,,,,1,,,80,64
115920,note_off,120,0,1,,,,,,,,,1,,,80,0
115920,note_on,0,0,1,,,,,,,,,1,,,79,62
115920,note_on,240,0,4,,,,,,,,,4,,,53,62
116040,note_off,360,0,5,,,,,,,,,5,,,61,0
116040,note_off,120,0,1,,,,,,,,,1,,,79,0
116040,note_on,0,0,1,,,,,,,,,1,,,77,61
116160,note_off,120,0,1,,,,,,,,,1,,,77,0
116160,note_off,240,0,4,,,,,,,,,4,,,53,0
116160,note_on,120,0,5,,,,,,,,,5,,,60,59
116160,note_on,0,0,1,,,,,,,,,1,,,76,59
116280,note_off,120,0,1,,,,,,,,,1,,,76,0
116280,note_on,0,0,1,,,,,,,,,1,,,77,58
116400,note_on,240,0,4,,,,,,,,,4,,,53,56
116400,note_off,120,0,1,,,,,,,,,1,,,77,0
116400,note_on,0,0,1,,,,,,,,,1,,,79,56
116520,note_off,120,0,1,,,,,,,,,1,,,79,0
116520,note_on,0,0,1,,,,,,,,,1,,,77,55
116520,note_off,360,0,5,,,,,,,,,5,,,60,0
116640,note_off,120,0,1,,,,,,,,,1,,,77,0
116640,note_off,240,0,4,,,,,,,,,4,,,53,0
116640,note_on,0,0,1,,,,,,,,,1,,,76,53
116640,note_on,120,0,5,,,,,,,,,5,,,64,53
116760,note_on,0,0,1,,,,,,,,,1,,,74,52
116760,note_off,120,0,1,,,,,,,,,1,,,76,0
116880,note_on,240,0,4,,,,,,,,,4,,,53,50
116880,note_on,0,0,1,,,,,,,,,1,,,72,50
116880,note_off,120,0,1,,,,,,,,,1,,,74,0
117000,note_off,360,0,5,,,,,,,,,5,,,64,0
117000,note_on,0,0,1,,,,,,,,,1,,,70,49
117000,note_off,120,0,1,,,,,,,,,1,,,72,0
117080,set_tempo,3800,1,0,,,,,,472440,,,,,,,
117095,note_off,95,0,1,,,,,,,,,1,,,70,0
117120,note_on,25,0,1,,,,,,,,,1,,,69,47
117120,set_tempo,40,1,0,,,,,,465116,,,,,,,
117120,note_off,240,0,4,,,,,,,,,4,,,53,0
117120,note_on,120,0,5,,,,,,,,,5,,,65,47
117275,note_off,155,0,1,,,,,,,,,1,,,69,0
117310,note_off,190,0,5,,,,,,,,,5,,,65,0
117360,note_on,85,0,1,,,,,,,,,1,,,69,40
117360,note_on,50,0,5,,,,,,,,,5,,,53,40
117515,note_off,155,0,1,,,,,,,,,1,,,69,0
117600,note_on,0,0,5,,,,,,,,,5,,,52,32
117600,note_off,240,0,5,,,,,,,,,5,,,53,0
117840,note_on,325,0,1,,,,,,,,,1,,,65,34
117840,note_on,0,0,5,,,,,,,,,5,,,53,34
117840,note_off,240,0,5,,,,,,,,,5,,,52,0
118080,note_off,240,0,5,,,,,,,,,5,,,53,0
118080,note_off,240,0,1,,,,,,,,,1,,,65,0
118080,note_on,0,0,1,,,,,,,,,1,,,64,35
118080,note_on,0,0,5,,,,,,,,,5,,,55,35
118320,note_on,0,0,1,,,,,,,,,1,,,65,36
118320,note_off,240,0,1,,,,,,,,,1,,,64,0
118320,note_off,240,0,5,,,,,,,,,5,,,55,0
118320,note_on,0,0,5,,,,,,,,,5,,,53,36
118560,note_on,0,0,1,,,,,,,,,1,,,67,38
118560,note_off,240,0,1,,,,,,,,,1,,,65,0
118560,note_off,240,0,5,,,,,,,,,5,,,53,0
118560,note_on,0,0,5,,,,,,,,,5,,,52,38
118800,note_on,0,0,1,,,,,,,,,1,,,69,39
118800,note_off,240,0,1,,,,,,,,,1,,,67,0
118800,note_on,0,0,5,,,,,,,,,5,,,51,39
118800,note_off,240,0,5,,,,,,,,,5,,,52,0
118990,note_off,190,0,1,,,,,,,,,1,,,69,0
118990,note_off,190,0,5,,,,,,,,,5,,,51,0
119000,set_tempo,1880,1,0,,,,,,480000,,,,,,,
119040,set_tempo,40,1,0,,,,,,472440,,,,,,,
119040,note_on,50,0,1,,,,,,,,,1,,,70,41
119040,note_on,50,0,5,,,,,,,,,5,,,50,39
119230,note_off,190,0,1,,,,,,,,,1,,,70,0
119280,note_on,50,0,1,,,,,,,,,1,,,70,43
119320,note_on,0,0,1,,,,,,,,,1,,,72,44
119320,note_off,40,0,1,,,,,,,,,1,,,70,0
119360,note_on,0,0,1,,,,,,,,,1,,,70,44
119360,note_off,40,0,1,,,,,,,,,1,,,72,0
119400,note_on,0,0,1,,,,,,,,,1,,,69,44
119400,note_off,40,0,1,,,,,,,,,1,,,70,0
119425,note_off,385,0,5,,,,,,,,,5,,,50,0
119460,note_on,0,0,1,,,,,,,,,1,,,70,45
119460,note_off,60,0,1,,,,,,,,,1,,,69,0
119520,note_on,0,0,1,,,,,,,,,1,,,72,46
119520,note_off,60,0,1,,,,,,,,,1,,,70,0
119520,note_on,95,0,5,,,,,,,,,5,,,46,44
119760,note_on,0,0,1,,,,,,,,,1,,,74,48
119760,note_off,240,0,1,,,,,,,,,1,,,72,0
119905,note_off,385,0,5,,,,,,,,,5,,,46,0
119950,note_off,190,0,1,,,,,,,,,1,,,74,0
120000,note_on,50,0,1,,,,,,,,,1,,,74,51
120000,note_on,95,0,5,,,,,,,,,5,,,48,51
120000,note_on,6745,0,2,,,,,,,,,2,,,70,51
120240,note_on,0,0,1,,,,,,,,,1,,,72,49
120240,note_on,0,0,2,,,,,,,,,2,,,69,49
120240,note_off,240,0,2,,,,,,,,,2,,,70,0
120240,note_off,240,0,1,,,,,,,,,1,,,74,0
120385,note_off,385,0,5,,,,,,,,,5,,,48,0
120430,note_off,190,0,2,,,,,,,,,2,,,69,0
120430,note_off,190,0,1,,,,,,,,,1,,,72,0
120480,set_tempo,1440,1,0,,,,,,480000,,,,,,,
120480,note_on,95,0,5,,,,,,,,,5,,,48,48
120720,set_tempo,240,1,0,,,,,,500000,,,,,,,
120720,note_on,290,0,1,,,,,,,,,1,,,64,44
120720,note_on,290,0,2,,,,,,,,,2,,,58,44
120865,note_off,385,0,5,,,,,,,,,5,,,48,0
120910,note_off,190,0,2,,,,,,,,,2,,,58,0
120910,note_off,190,0,1,,,,,,,,,1,,,64,0
120960,set_tempo,240,1,0,,,,,,487804,,,,,,,
120960,note_on,50,0,2,,,,,,,,,2,,,58,50
120960,note_on,50,0,1,,,,,,,,,1,,,67,50
120960,note_on,95,0,5,,,,,,,,,5,,,53,50
121345,note_off,385,0,5,,,,,,,,,5,,,53,0
121440,note_on,95,0,5,,,,,,,,,5,,,48,43
121825,note_off,385,0,5,,,,,,,,,5,,,48,0
121920,note_off,960,0,2,,,,,,,,,2,,,58,0
121920,note_off,960,0,1,,,,,,,,,1,,,67,0
121920,note_on,0,0,1,,,,,,,,,1,,,65,37
121920,note_on,95,0,5,,,,,,,,,5,,,41,37
121920,note_on,0,0,2,,,,,,,,,2,,,57,37
121920,set_tempo,960,1,0,,,,,,500000,,,,,,,
122230,note_off,310,0,2,,,,,,,,,2,,,57,0
122230,note_off,310,0,5,,,,,,,,,5,,,41,0
122230,note_off,310,0,1,,,,,,,,,1,,,65,0
122280,set_tempo,360,1,0,,,,,,1578947,,,,,,,
122400,note_on,0,0,1,,,,,,,,,1,,,74,39
122400,control_change,170,0,1,,,,,,,64,0,1,,,,
122400,set_tempo,120,1,0,,,,,,461538,,,,,,,
122520,note_on,0,0,1,,,,,,,,,1,,,72,40
122520,note_off,120,0,1,,,,,,,,,1,,,74,0
122640,note_off,120,0,1,,,,,,,,,1,,,72,0
122640,note_on,0,0,1,,,,,,,,,1,,,70,41
122760,note_off,120,0,1,,,,,,,,,1,,,70,0
122760,note_on,0,0,1,,,,,,,,,1,,,69,42
122855,note_off,95,0,1,,,,,,,,,1,,,69,0
122880,note_on,25,0,1,,,,,,,,,1,,,67,44
123120,note_off,240,0,1,,,,,,,,,1,,,67,0
123120,note_on,890,0,5,,,,,,,,,5,,,41,41
123120,note_on,0,0,1,,,,,,,,,1,,,65,41
123310,note_off,190,0,1,,,,,,,,,1,,,65,0
123360,note_on,6240,0,4,,,,,,,,,4,,,45,40
123360,note_on,50,0,1,,,,,,,,,1,,,65,40
123360,note_off,240,0,5,,,,,,,,,5,,,41,0
123600,note_off,240,0,4,,,,,,,,,4,,,45,0
123600,note_on,0,0,4,,,,,,,,,4,,,48,39
123840,note_off,240,0,4,,,,,,,,,4,,,48,0
123840,note_on,0,0,4,,,,,,,,,4,,,45,39
123935,note_off,575,0,1,,,,,,,,,1,,,65,0
124080,note_off,240,0,4,,,,,,,,,4,,,45,0
124080,note_on,145,0,1,,,,,,,,,1,,,77,42
124080,note_on,720,0,5,,,,,,,,,5,,,41,42
124320,note_off,240,0,5,,,,,,,,,5,,,41,0
124320,note_on,240,0,4,,,,,,,,,4,,,45,44
124320,note_off,240,0,1,,,,,,,,,1,,,77,0
124320,note_on,0,0,1,,,,,,,,,1,,,79,44
124560,note_off,240,0,4,,,,,,,,,4,,,45,0
124560,note_off,240,0,1,,,,,,,,,1,,,79,0
124560,note_on,0,0,4,,,,,,,,,4,,,48,47
124560,note_on,0,0,1,,,,,,,,,1,,,81,47
124750,note_off,190,0,4,,,,,,,,,4,,,48,0
124750,note_off,190,0,1,,,,,,,,,1,,,81,0
124760,set_tempo,2360,1,0,,,,,,465116,,,,,,,
124800,set_tempo,40,1,0,,,,,,461538,,,,,,,
124800,note_on,50,0,1,,,,,,,,,1,,,76,53
124860,note_on,60,0,1,,,,,,,,,1,,,82,52
124925,note_off,65,0,1,,,,,,,,,1,,,76,0
125040,note_on,720,0,5,,,,,,,,,5,,,55,50
125160,note_on,235,0,1,,,,,,,,,1,,,79,49
125165,note_off,5,0,1,,,,,,,,,1,,,82,0
125280,note_on,0,0,1,,,,,,,,,1,,,76,48
125280,note_on,530,0,4,,,,,,,,,4,,,58,48
125280,note_off,240,0,5,,,,,,,,,5,,,55,0
125280,note_off,115,0,1,,,,,,,,,1,,,79,0
125520,note_on,0,0,4,,,,,,,,,4,,,64,45
125520,note_off,240,0,4,,,,,,,,,4,,,58,0
125760,note_off,480,0,1,,,,,,,,,1,,,76,0
125760,note_on,0,0,4,,,,,,,,,4,,,58,43
125760,note_off,240,0,4,,,,,,,,,4,,,64,0
126000,note_off,240,0,4,,,,,,,,,4,,,58,0
126000,note_on,720,0,5,,,,,,,,,5,,,55,40
126240,note_on,240,0,4,,,,,,,,,4,,,58,40
126240,note_on,480,0,1,,,,,,,,,1,,,72,40
126240,note_off,240,0,5,,,,,,,,,5,,,55,0
126360,note_on,0,0,1,,,,,,,,,1,,,70,42
126360,note_off,120,0,1,,,,,,,,,1,,,72,0
126480,note_on,0,0,1,,,,,,,,,1,,,69,43
126480,note_off,120,0,1,,,,,,,,,1,,,70,0
126480,note_off,240,0,4,,,,,,,,,4,,,58,0
126480,note_on,0,0,4,,,,,,,,,4,,,64,43
126600,note_on,0,0,1,,,,,,,,,1,,,67,45
126600,note_off,120,0,1,,,,,,,,,1,,,69,0
126670,note_off,190,0,4,,,,,,,,,4,,,64,0
126695,note_off,95,0,1,,,,,,,,,1,,,67,0
126720,note_on,25,0,1,,,,,,,,,1,,,65,47
126960,note_off,240,0,1,,,,,,,,,1,,,65,0
126960,note_on,0,0,1,,,,,,,,,1,,,64,45
126960,note_on,720,0,5,,,,,,,,,5,,,43,43
127150,note_off,190,0,1,,,,,,,,,1,,,64,0
127200,note_on,530,0,4,,,,,,,,,4,,,46,42
127200,note_off,240,0,5,,,,,,,,,5,,,43,0
127200,note_on,50,0,1,,,,,,,,,1,,,64,43
127440,note_off,240,0,4,,,,,,,,,4,,,46,0
127440,note_on,0,0,4,,,,,,,,,4,,,52,41
127680,note_off,240,0,4,,,,,,,,,4,,,52,0
127680,note_on,0,0,4,,,,,,,,,4,,,46,40
127775,note_off,575,0,1,,,,,,,,,1,,,64,0
127920,note_on,145,0,1,,,,,,,,,1,,,79,43
127920,note_on,720,0,5,,,,,,,,,5,,,43,43
127920,note_off,240,0,4,,,,,,,,,4,,,46,0
128160,note_off,240,0,5,,,,,,,,,5,,,43,0
128160,note_off,240,0,1,,,,,,,,,1,,,79,0
128160,note_on,0,0,1,,,,,,,,,1,,,81,46
128160,note_on,240,0,4,,,,,,,,,4,,,46,46
128400,note_on,0,0,4,,,,,,,,,4,,,52,49
128400,note_off,240,0,4,,,,,,,,,4,,,46,0
128400,note_off,240,0,1,,,,,,,,,1,,,81,0
128400,note_on,0,0,1,,,,,,,,,1,,,82,49
128590,note_off,190,0,4,,,,,,,,,4,,,52,0
128590,note_off,190,0,1,,,,,,,,,1,,,82,0
128600,set_tempo,3800,1,0,,,,,,465116,,,,,,,
128640,set_tempo,40,1,0,,,,,,461538,,,,,,,
128640,note_on,50,0,1,,,,,,,,,1,,,78,55
128700,note_on,60,0,1,,,,,,,,,1,,,84,54
128760,note_off,60,0,1,,,,,,,,,1,,,78,0
128880,note_on,720,0,5,,,,,,,,,5,,,57,52
129000,note_off,240,0,1,,,,,,,,,1,,,84,0
129000,note_on,0,0,1,,,,,,,,,1,,,81,51
129120,note_off,240,0,5,,,,,,,,,5,,,57,0
129120,note_on,530,0,4,,,,,,,,,4,,,60,50
129120,note_on,0,0,1,,,,,,,,,1,,,78,50
129120,note_off,120,0,1,,,,,,,,,1,,,81,0
129360,note_on,0,0,4,,,,,,,,,4,,,63,47
129360,note_off,240,0,4,,,,,,,,,4,,,60,0
129505,note_off,385,0,1,,,,,,,,,1,,,78,0
129600,note_off,240,0,4,,,,,,,,,4,,,63,0
129600,note_on,0,0,4,,,,,,,,,4,,,60,45
129840,note_on,720,0,5,,,,,,,,,5,,,57,48
129840,note_on,335,0,1,,,,,,,,,1,,,81,48
129840,note_off,240,0,4,,,,,,,,,4,,,60,0
130080,note_off,240,0,1,,,,,,,,,1,,,81,0
130080,note_on,240,0,4,,,,,,,,,4,,,60,52
130080,note_off,240,0,5,,,,,,,,,5,,,57,0
130080,note_on,0,0,1,,,,,,,,,1,,,82,52
130320,note_on,0,0,1,,,,,,,,,1,,,84,55
130320,note_off,240,0,1,,,,,,,,,1,,,82,0
130320,note_off,240,0,4,,,,,,,,,4,,,60,0
130320,note_on,0,0,4,,,,,,,,,4,,,63,55
130510,note_off,190,0,4,,,,,,,,,4,,,63,0
130510,note_off,190,0,1,,,,,,,,,1,,,84,0
130520,set_tempo,1880,1,0,,,,,,465116,,,,,,,
130560,note_on,50,0,1,,,,,,,,,1,,,79,67
130560,set_tempo,40,1,0,,,,,,461538,,,,,,,
130620,note_on,60,0,1,,,,,,,,,1,,,86,66
130680,note_off,60,0,1,,,,,,,,,1,,,79,0
130800,note_on,720,0,5,,,,,,,,,5,,,46,64
130920,note_off,240,0,1,,,,,,,,,1,,,86,0
130920,note_on,0,0,1,,,,,,,,,1,,,82,62
131040,note_on,530,0,4,,,,,,,,,4,,,50,60
131040,note_off,240,0,5,,,,,,,,,5,,,46,0
131040,note_off,120,0,1,,,,,,,,,1,,,82,0
131040,note_on,0,0,1,,,,,,,,,1,,,79,60
131280,note_on,0,0,4,,,,,,,,,4,,,55,57
131280,note_off,240,0,4,,,,,,,,,4,,,50,0
131280,note_off,240,0,1,,,,,,,,,1,,,79,0
131470,note_off,190,0,4,,,,,,,,,4,,,55,0
131480,set_tempo,920,1,0,,,,,,465116,,,,,,,
131520,set_tempo,40,1,0,,,,,,461538,,,,,,,
131520,note_on,240,0,1,,,,,,,,,1,,,76,72
131580,note_on,60,0,1,,,,,,,,,1,,,82,72
131640,note_off,60,0,1,,,,,,,,,1,,,76,0
131760,note_on,720,0,5,,,,,,,,,5,,,48,70
131880,note_off,240,0,1,,,,,,,,,1,,,82,0
131880,note_on,0,0,1,,,,,,,,,1,,,79,68
132000,note_off,240,0,5,,,,,,,,,5,,,48,0
132000,note_on,0,0,1,,,,,,,,,1,,,76,67
132000,note_off,120,0,1,,,,,,,,,1,,,79,0
132000,note_on,530,0,4,,,,,,,,,4,,,55,67
132240,note_off,240,0,1,,,,,,,,,1,,,76,0
132240,note_on,0,0,4,,,,,,,,,4,,,58,64
132240,note_off,240,0,4,,,,,,,,,4,,,55,0
132430,note_off,190,0,4,,,,,,,,,4,,,58,0
132440,set_tempo,920,1,0,,,,,,465116,,,,,,,
132480,note_on,240,0,1,,,,,,,,,1,,,71,81
132480,set_tempo,40,1,0,,,,,,461538,,,,,,,
132540,note_on,60,0,1,,,,,,,,,1,,,77,80
132600,note_off,60,0,1,,,,,,,,,1,,,71,0
132720,note_on,720,0,5,,,,,,,,,5,,,50,77
132840,note_off,240,0,1,,,,,,,,,1,,,77,0
132840,note_on,0,0,1,,,,,,,,,1,,,74,76
132960,note_off,240,0,5,,,,,,,,,5,,,50,0
132960,note_on,0,0,1,,,,,,,,,1,,,71,74
132960,note_on,530,0,4,,,,,,,,,4,,,53,74
132960,note_off,120,0,1,,,,,,,,,1,,,74,0
133200,note_on,0,0,4,,,,,,,,,4,,,56,70
133200,note_off,240,0,4,,,,,,,,,4,,,53,0
133440,note_on,0,0,4,,,,,,,,,4,,,53,68
133440,note_off,240,0,4,,,,,,,,,4,,,56,0
133440,note_off,480,0,1,,,,,,,,,1,,,71,0
133640,set_tempo,1160,1,0,,,,,,465116,,,,,,,
133680,note_off,240,0,4,,,,,,,,,4,,,53,0
133680,note_on,720,0,5,,,,,,,,,5,,,50,71
133680,note_on,240,0,1,,,,,,,,,1,,,71,71
133870,note_off,190,0,1,,,,,,,,,1,,,71,0
133920,note_off,240,0,5,,,,,,,,,5,,,50,0
133920,note_on,240,0,4,,,,,,,,,4,,,53,74
133920,note_on,50,0,1,,,,,,,,,1,,,71,74
134110,note_off,190,0,1,,,,,,,,,1,,,71,0
134160,note_off,240,0,4,,,,,,,,,4,,,53,0
134160,note_on,0,0,4,,,,,,,,,4,,,56,76
134160,note_on,50,0,1,,,,,,,,,1,,,71,76
134350,note_off,190,0,4,,,,,,,,,4,,,56,0
134350,note_off,190,0,1,,,,,,,,,1,,,71,0
134360,set_tempo,720,1,0,,,,,,472440,,,,,,,
134400,note_on,480,0,5,,,,,,,,,5,,,48,78
134400,note_on,50,0,4,,,,,,,,,4,,,57,78
134400,note_on,50,0,1,,,,,,,,,1,,,72,78
134400,set_tempo,40,1,0,,,,,,465116,,,,,,,
134495,note_off,95,0,1,,,,,,,,,1,,,72,0
134520,note_on,25,0,1,,,,,,,,,1,,,81,79
134615,note_off,95,0,1,,,,,,,,,1,,,81,0
134640,note_on,25,0,1,,,,,,,,,1,,,77,80
134735,note_off,95,0,1,,,,,,,,,1,,,77,0
134760,note_on,25,0,1,,,,,,,,,1,,,72,81
134855,note_off,95,0,1,,,,,,,,,1,,,72,0
134880,note_on,25,0,1,,,,,,,,,1,,,69,82
134975,note_off,95,0,1,,,,,,,,,1,,,69,0
135000,note_on,25,0,1,,,,,,,,,1,,,77,83
135095,note_off,95,0,1,,,,,,,,,1,,,77,0
135120,note_on,25,0,1,,,,,,,,,1,,,72,84
135170,note_off,770,0,4,,,,,,,,,4,,,57,0
135170,note_off,770,0,5,,,,,,,,,5,,,48,0
135215,note_off,95,0,1,,,,,,,,,1,,,72,0
135240,note_on,25,0,1,,,,,,,,,1,,,69,86
135320,set_tempo,920,1,0,,,,,,472440,,,,,,,
135335,note_off,95,0,1,,,,,,,,,1,,,69,0
135360,note_on,25,0,1,,,,,,,,,1,,,72,86
135360,note_on,190,0,5,,,,,,,,,5,,,60,86
135360,note_on,13130,0,2,,,,,,,,,2,,,69,86
135600,note_off,240,0,1,,,,,,,,,1,,,72,0
135600,note_off,240,0,2,,,,,,,,,2,,,69,0
135600,note_on,0,0,1,,,,,,,,,1,,,70,75
135600,note_on,0,0,2,,,,,,,,,2,,,67,75
135670,note_off,310,0,5,,,,,,,,,5,,,60,0
135720,note_off,120,0,2,,,,,,,,,2,,,67,0
135720,note_off,120,0,1,,,,,,,,,1,,,70,0
135840,note_on,120,0,1,,,,,,,,,1,,,69,65
135840,note_on,120,0,2,,,,,,,,,2,,,65,65
135840,note_on,170,0,5,,,,,,,,,5,,,48,65
135960,note_off,120,0,1,,,,,,,,,1,,,69,0
135960,note_off,120,0,2,,,,,,,,,2,,,65,0
136080,note_on,120,0,1,,,,,,,,,1,,,67,55
136080,note_on,120,0,2,,,,,,,,,2,,,64,55
136150,note_off,310,0,5,,,,,,,,,5,,,48,0
136200,note_off,120,0,2,,,,,,,,,2,,,64,0
136200,note_off,120,0,1,,,,,,,,,1,,,67,0
136280,set_tempo,960,1,0,,,,,,487804,,,,,,,
136320,note_on,170,0,5,,,,,,,,,5,,,53,44
136320,set_tempo,40,1,0,,,,,,461538,,,,,,,
136320,note_on,120,0,1,,,,,,,,,1,,,65,44
136440,note_on,23185,0,3,,,,,,,,,3,,,60,38
136535,note_off,95,0,3,,,,,,,,,3,,,60,0
136560,note_on,25,0,3,,,,,,,,,3,,,56,38
136655,note_off,95,0,3,,,,,,,,,3,,,56,0
136680,note_off,360,0,5,,,,,,,,,5,,,53,0
136680,note_on,25,0,3,,,,,,,,,3,,,60,38
136775,note_off,95,0,3,,,,,,,,,3,,,60,0
136800,note_off,480,0,1,,,,,,,,,1,,,65,0
136800,note_on,120,0,5,,,,,,,,,5,,,53,39
136920,note_on,145,0,3,,,,,,,,,3,,,60,39
137015,note_off,95,0,3,,,,,,,,,3,,,60,0
137040,note_on,25,0,3,,,,,,,,,3,,,56,39
137135,note_off,95,0,3,,,,,,,,,3,,,56,0
137160,note_on,25,0,3,,,,,,,,,3,,,60,39
137160,note_off,360,0,5,,,,,,,,,5,,,53,0
137255,note_off,95,0,3,,,,,,,,,3,,,60,0
137280,note_on,120,0,5,,,,,,,,,5,,,53,39
137400,note_on,145,0,3,,,,,,,,,3,,,60,40
137400,note_on,600,0,1,,,,,,,,,1,,,65,40
137495,note_off,95,0,3,,,,,,,,,3,,,60,0
137520,note_off,120,0,1,,,,,,,,,1,,,65,0
137520,note_on,0,0,1,,,,,,,,,1,,,67,40
137520,note_on,25,0,3,,,,,,,,,3,,,56,40
137615,note_off,95,0,3,,,,,,,,,3,,,56,0
137640,note_off,360,0,5,,,,,,,,,5,,,53,0
137640,note_on,25,0,3,,,,,,,,,3,,,60,40
137640,note_off,120,0,1,,,,,,,,,1,,,67,0
137640,note_on,0,0,1,,,,,,,,,1,,,68,40
137735,note_off,95,0,3,,,,,,,,,3,,,60,0
137760,note_on,120,0,5,,,,,,,,,5,,,53,40
137760,note_off,120,0,1,,,,,,,,,1,,,68,0
137760,note_on,0,0,1,,,,,,,,,1,,,70,40
137880,note_on,145,0,3,,,,,,,,,3,,,60,41
137880,note_off,120,0,1,,,,,,,,,1,,,70,0
137880,note_on,0,0,1,,,,,,,,,1,,,72,41
137975,note_off,95,0,3,,,,,,,,,3,,,60,0
138000,note_off,120,0,1,,,,,,,,,1,,,72,0
138000,note_on,25,0,3,,,,,,,,,3,,,56,41
138000,note_on,0,0,1,,,,,,,,,1,,,74,41
138095,note_off,95,0,3,,,,,,,,,3,,,56,0
138120,note_on,25,0,3,,,,,,,,,3,,,60,41
138120,note_off,120,0,1,,,,,,,,,1,,,74,0
138120,note_off,360,0,5,,,,,,,,,5,,,53,0
138120,note_on,0,0,1,,,,,,,,,1,,,76,41
138215,note_off,95,0,3,,,,,,,,,3,,,60,0
138240,note_on,120,0,5,,,,,,,,,5,,,53,41
138240,note_off,120,0,1,,,,,,,,,1,,,76,0
138240,note_on,0,0,1,,,,,,,,,1,,,77,41
138360,note_off,120,0,1,,,,,,,,,1,,,77,0
138360,note_on,0,0,1,,,,,,,,,1,,,72,42
138360,note_on,145,0,3,,,,,,,,,3,,,60,42
138455,note_off,95,0,3,,,,,,,,,3,,,60,0
138480,note_on,25,0,3,,,,,,,,,3,,,56,42
138480,note_off,120,0,1,,,,,,,,,1,,,72,0
138480,note_on,0,0,1,,,,,,,,,1,,,80,42
138575,note_off,95,0,3,,,,,,,,,3,,,56,0
138600,note_off,120,0,1,,,,,,,,,1,,,80,0
138600,note_off,360,0,5,,,,,,,,,5,,,53,0
138600,note_on,0,0,1,,,,,,,,,1,,,79,42
138600,note_on,25,0,3,,,,,,,,,3,,,60,42
138695,note_off,95,0,3,,,,,,,,,3,,,60,0
138720,note_on,120,0,5,,,,,,,,,5,,,53,42
138720,note_on,0,0,1,,,,,,,,,1,,,77,42
138720,note_off,120,0,1,,,,,,,,,1,,,79,0
138840,note_on,145,0,3,,,,,,,,,3,,,60,42
138840,note_off,120,0,1,,,,,,,,,1,,,77,0
138840,note_on,0,0,1,,,,,,,,,1,,,72,42
138935,note_off,95,0,3,,,,,,,,,3,,,60,0
138960,note_off,120,0,1,,,,,,,,,1,,,72,0
138960,note_on,0,0,1,,,,,,,,,1,,,80,43
138960,note_on,25,0,3,,,,,,,,,3,,,56,43
139055,note_off,95,0,3,,,,,,,,,3,,,56,0
139080,note_off,120,0,1,,,,,,,,,1,,,80,0
139080,note_on,0,0,1,,,,,,,,,1,,,79,43
139080,note_off,360,0,5,,,,,,,,,5,,,53,0
139080,note_on,25,0,3,,,,,,,,,3,,,60,43
139175,note_off,95,0,3,,,,,,,,,3,,,60,0
139200,note_on,120,0,5,,,,,,,,,5,,,53,43
139200,note_off,120,0,1,,,,,,,,,1,,,79,0
139200,note_on,0,0,1,,,,,,,,,1,,,77,43
139320,note_on,145,0,3,,,,,,,,,3,,,62,43
139320,note_off,120,0,1,,,,,,,,,1,,,77,0
139320,note_on,0,0,1,,,,,,,,,1,,,79,43
139415,note_off,95,0,3,,,,,,,,,3,,,62,0
139440,note_on,0,0,1,,,,,,,,,1,,,75,44
139440,note_off,120,0,1,,,,,,,,,1,,,79,0
139440,note_on,25,0,3,,,,,,,,,3,,,56,44
139535,note_off,95,0,3,,,,,,,,,3,,,56,0
139560,note_on,0,0,1,,,,,,,,,1,,,77,44
139560,note_off,120,0,1,,,,,,,,,1,,,75,0
139560,note_off,360,0,5,,,,,,,,,5,,,53,0
139560,note_on,25,0,3,,,,,,,,,3,,,62,44
139655,note_off,95,0,3,,,,,,,,,3,,,62,0
139680,note_off,120,0,1,,,,,,,,,1,,,77,0
139680,note_on,0,0,1,,,,,,,,,1,,,74,44
139680,note_on,120,0,5,,,,,,,,,5,,,53,44
139800,note_on,145,0,3,,,,,,,,,3,,,62,44
139800,note_on,0,0,1,,,,,,,,,1,,,75,44
139800,note_off,120,0,1,,,,,,,,,1,,,74,0
139895,note_off,95,0,3,,,,,,,,,3,,,62,0
139920,note_on,0,0,1,,,,,,,,,1,,,72,45
139920,note_off,120,0,1,,,,,,,,,1,,,75,0
139920,note_on,25,0,3,,,,,,,,,3,,,56,45
140015,note_off,95,0,3,,,,,,,,,3,,,56,0
140040,note_on,25,0,3,,,,,,,,,3,,,62,45
140040,note_off,360,0,5,,,,,,,,,5,,,53,0
140040,note_off,120,0,1,,,,,,,,,1,,,72,0
140040,note_on,0,0,1,,,,,,,,,1,,,74,45
140120,set_tempo,3800,1,0,,,,,,465116,,,,,,,
140135,note_off,95,0,3,,,,,,,,,3,,,62,0
140160,note_on,0,0,1,,,,,,,,,1,,,71,45
140160,set_tempo,40,1,0,,,,,,461538,,,,,,,
140160,note_on,120,0,5,,,,,,,,,5,,,55,45
140160,note_off,120,0,1,,,,,,,,,1,,,74,0
140280,note_on,145,0,3,,,,,,,,,3,,,65,45
140350,note_off,190,0,1,,,,,,,,,1,,,71,0
140375,note_off,95,0,3,,,,,,,,,3,,,65,0
140400,note_on,25,0,3,,,,,,,,,3,,,62,45
140400,note_on,50,0,1,,,,,,,,,1,,,89,48
140495,note_off,95,0,3,,,,,,,,,3,,,62,0
140520,note_off,360,0,5,,,,,,,,,5,,,55,0
140520,note_on,25,0,3,,,,,,,,,3,,,65,46
140615,note_off,95,0,3,,,,,,,,,3,,,65,0
140640,note_on,120,0,5,,,,,,,,,5,,,55,46
140760,note_on,145,0,3,,,,,,,,,3,,,65,46
140780,note_off,380,0,1,,,,,,,,,1,,,89,0
140855,note_off,95,0,3,,,,,,,,,3,,,65,0
140880,note_on,25,0,3,,,,,,,,,3,,,62,46
140880,note_on,100,0,1,,,,,,,,,1,,,87,49
140975,note_off,95,0,3,,,,,,,,,3,,,62,0
141000,note_on,25,0,3,,,,,,,,,3,,,65,47
141000,note_off,360,0,5,,,,,,,,,5,,,55,0
141095,note_off,95,0,3,,,,,,,,,3,,,65,0
141120,note_on,120,0,5,,,,,,,,,5,,,55,47
141240,note_on,145,0,3,,,,,,,,,3,,,65,47
141260,note_off,380,0,1,,,,,,,,,1,,,87,0
141335,note_off,95,0,3,,,,,,,,,3,,,65,0
141360,note_on,25,0,3,,,,,,,,,3,,,62,47
141360,note_on,100,0,1,,,,,,,,,1,,,86,50
141455,note_off,95,0,3,,,,,,,,,3,,,62,0
141480,note_on,25,0,3,,,,,,,,,3,,,65,48
141480,note_off,360,0,5,,,,,,,,,5,,,55,0
141575,note_off,95,0,3,,,,,,,,,3,,,65,0
141600,note_on,120,0,5,,,,,,,,,5,,,55,48
141720,note_on,145,0,3,,,,,,,,,3,,,65,48
141740,note_off,380,0,1,,,,,,,,,1,,,86,0
141815,note_off,95,0,3,,,,,,,,,3,,,65,0
141840,note_on,25,0,3,,,,,,,,,3,,,62,48
141840,note_on,100,0,1,,,,,,,,,1,,,84,52
141935,note_off,95,0,3,,,,,,,,,3,,,62,0
141960,note_on,25,0,3,,,,,,,,,3,,,65,48
141960,note_off,360,0,5,,,,,,,,,5,,,55,0
142055,note_off,95,0,3,,,,,,,,,3,,,65,0
142080,note_on,120,0,5,,,,,,,,,5,,,55,49
142200,note_on,145,0,3,,,,,,,,,3,,,65,49
142220,note_off,380,0,1,,,,,,,,,1,,,84,0
142295,note_off,95,0,3,,,,,,,,,3,,,65,0
142320,note_on,100,0,1,,,,,,,,,1,,,83,53
142320,note_on,25,0,3,,,,,,,,,3,,,62,49
142415,note_off,95,0,3,,,,,,,,,3,,,62,0
142440,note_on,25,0,3,,,,,,,,,3,,,65,49
142440,note_off,360,0,5,,,,,,,,,5,,,55,0
142535,note_off,95,0,3,,,,,,,,,3,,,65,0
142560,note_on,120,0,5,,,,,,,,,5,,,55,50
142680,note_on,145,0,3,,,,,,,,,3,,,65,50
142700,note_off,380,0,1,,,,,,,,,1,,,83,0
142775,note_off,95,0,3,,,,,,,,,3,,,65,0
142800,note_on,100,0,1,,,,,,,,,1,,,80,54
142800,note_on,25,0,3,,,,,,,,,3,,,62,50
142895,note_off,95,0,3,,,,,,,,,3,,,62,0
142920,note_on,25,0,3,,,,,,,,,3,,,65,50
142920,note_off,360,0,5,,,,,,,,,5,,,55,0
143015,note_off,95,0,3,,,,,,,,,3,,,65,0
143040,note_on,120,0,5,,,,,,,,,5,,,55,51
143160,note_on,145,0,3,,,,,,,,,3,,,62,51
143180,note_off,380,0,1,,,,,,,,,1,,,80,0
143255,note_off,95,0,3,,,,,,,,,3,,,62,0
143280,note_on,100,0,1,,,,,,,,,1,,,79,55
143280,note_on,25,0,3,,,,,,,,,3,,,59,51
143375,note_off,95,0,3,,,,,,,,,3,,,59,0
143400,note_on,25,0,3,,,,,,,,,3,,,62,51
143400,note_off,360,0,5,,,,,,,,,5,,,55,0
143495,note_off,95,0,3,,,,,,,,,3,,,62,0
143520,note_on,120,0,5,,,,,,,,,5,,,55,51
143640,note_on,145,0,3,,,,,,,,,3,,,62,52
143660,note_off,380,0,1,,,,,,,,,1,,,79,0
143735,note_off,95,0,3,,,,,,,,,3,,,62,0
143760,note_on,100,0,1,,,,,,,,,1,,,77,57
143760,note_on,25,0,3,,,,,,,,,3,,,59,52
143855,note_off,95,0,3,,,,,,,,,3,,,59,0
143880,note_on,25,0,3,,,,,,,,,3,,,62,52
143880,note_off,360,0,5,,,,,,,,,5,,,55,0
143950,note_off,190,0,1,,,,,,,,,1,,,77,0
143975,note_off,95,0,3,,,,,,,,,3,,,62,0
144000,note_on,50,0,1,,,,,,,,,1,,,77,61
144000,note_on,120,0,5,,,,,,,,,5,,,55,52
144120,note_on,145,0,3,,,,,,,,,3,,,64,53
144215,note_off,95,0,3,,,,,,,,,3,,,64,0
144240,note_on,0,0,1,,,,,,,,,1,,,76,59
144240,note_off,240,0,1,,,,,,,,,1,,,77,0
144240,note_on,25,0,3,,,,,,,,,3,,,60,53
144335,note_off,95,0,3,,,,,,,,,3,,,60,0
144360,note_on,25,0,3,,,,,,,,,3,,,64,53
144360,note_off,360,0,5,,,,,,,,,5,,,55,0
144430,note_off,190,0,1,,,,,,,,,1,,,76,0
144455,note_off,95,0,3,,,,,,,,,3,,,64,0
144480,note_on,50,0,1,,,,,,,,,1,,,75,58
144480,note_on,120,0,5,,,,,,,,,5,,,55,53
144600,note_on,145,0,3,,,,,,,,,3,,,63,54
144695,note_off,95,0,3,,,,,,,,,3,,,63,0
144720,note_on,25,0,3,,,,,,,,,3,,,60,54
144815,note_off,95,0,3,,,,,,,,,3,,,60,0
144840,note_off,360,0,5,,,,,,,,,5,,,55,0
144840,note_on,25,0,3,,,,,,,,,3,,,63,54
144865,note_off,385,0,1,,,,,,,,,1,,,75,0
144935,note_off,95,0,3,,,,,,,,,3,,,63,0
144960,note_on,120,0,5,,,,,,,,,5,,,55,54
145080,note_on,215,0,1,,,,,,,,,1,,,75,53
145080,note_on,145,0,3,,,,,,,,,3,,,63,54
145175,note_off,95,0,3,,,,,,,,,3,,,63,0
145200,note_off,120,0,1,,,,,,,,,1,,,75,0
145200,note_on,0,0,1,,,,,,,,,1,,,74,54
145200,note_on,25,0,3,,,,,,,,,3,,,60,55
145295,note_off,95,0,3,,,,,,,,,3,,,60,0
145320,note_on,25,0,3,,,,,,,,,3,,,63,55
145320,note_off,360,0,5,,,,,,,,,5,,,55,0
145320,note_off,120,0,1,,,,,,,,,1,,,74,0
145320,note_on,0,0,1,,,,,,,,,1,,,75,55
145415,note_off,95,0,3,,,,,,,,,3,,,63,0
145440,note_on,120,0,5,,,,,,,,,5,,,55,55
145440,note_on,0,0,1,,,,,,,,,1,,,77,56
145440,note_off,120,0,1,,,,,,,,,1,,,75,0
145560,note_on,0,0,1,,,,,,,,,1,,,75,57
145560,note_on,145,0,3,,,,,,,,,3,,,63,55
145560,note_off,120,0,1,,,,,,,,,1,,,77,0
145655,note_off,95,0,3,,,,,,,,,3,,,63,0
145680,note_on,0,0,1,,,,,,,,,1,,,74,59
145680,note_off,120,0,1,,,,,,,,,1,,,75,0
145680,note_on,25,0,3,,,,,,,,,3,,,60,56
145775,note_off,95,0,3,,,,,,,,,3,,,60,0
145800,note_off,120,0,1,,,,,,,,,1,,,74,0
145800,note_on,0,0,1,,,,,,,,,1,,,75,60
145800,note_off,360,0,5,,,,,,,,,5,,,55,0
145800,note_on,25,0,3,,,,,,,,,3,,,63,56
145880,set_tempo,5720,1,0,,,,,,465116,,,,,,,
145895,note_off,95,0,3,,,,,,,,,3,,,63,0
145895,note_off,95,0,1,,,,,,,,,1,,,75,0
145920,note_on,25,0,1,,,,,,,,,1,,,78,61
145920,note_on,120,0,5,,,,,,,,,5,,,54,56
145920,set_tempo,40,1,0,,,,,,461538,,,,,,,
146040,note_on,145,0,3,,,,,,,,,3,,,63,56
146135,note_off,95,0,3,,,,,,,,,3,,,63,0
146160,note_on,25,0,3,,,,,,,,,3,,,58,56
146210,note_off,290,0,1,,,,,,,,,1,,,78,0
146255,note_off,95,0,3,,,,,,,,,3,,,58,0
146280,note_on,25,0,3,,,,,,,,,3,,,63,57
146280,note_on,70,0,1,,,,,,,,,1,,,75,53
146280,note_off,360,0,5,,,,,,,,,5,,,54,0
146375,note_off,95,0,1,,,,,,,,,1,,,75,0
146375,note_off,95,0,3,,,,,,,,,3,,,63,0
146400,note_on,25,0,1,,,,,,,,,1,,,77,54
146400,note_on,120,0,5,,,,,,,,,5,,,54,57
146480,note_off,80,0,1,,,,,,,,,1,,,77,0
146480,note_on,0,0,1,,,,,,,,,1,,,75,55
146520,note_on,145,0,3,,,,,,,,,3,,,63,57
146560,note_on,0,0,1,,,,,,,,,1,,,77,56
146560,note_off,80,0,1,,,,,,,,,1,,,75,0
146615,note_off,95,0,3,,,,,,,,,3,,,63,0
146640,note_on,25,0,3,,,,,,,,,3,,,58,57
146640,note_off,80,0,1,,,,,,,,,1,,,77,0
146640,note_on,0,0,1,,,,,,,,,1,,,75,57
146720,note_off,80,0,1,,,,,,,,,1,,,75,0
146720,note_on,0,0,1,,,,,,,,,1,,,74,58
146735,note_off,95,0,3,,,,,,,,,3,,,58,0
146760,note_off,360,0,5,,,,,,,,,5,,,54,0
146760,note_on,25,0,3,,,,,,,,,3,,,63,58
146800,note_off,80,0,1,,,,,,,,,1,,,74,0
146800,note_on,0,0,1,,,,,,,,,1,,,75,59
146855,note_off,95,0,3,,,,,,,,,3,,,63,0
146880,note_on,80,0,1,,,,,,,,,1,,,82,60
146880,note_on,120,0,5,,,,,,,,,5,,,54,58
146895,note_off,15,0,1,,,,,,,,,1,,,75,0
147000,note_on,145,0,3,,,,,,,,,3,,,63,58
147095,note_off,95,0,3,,,,,,,,,3,,,63,0
147120,note_on,25,0,3,,,,,,,,,3,,,58,58
147170,note_off,275,0,1,,,,,,,,,1,,,82,0
147215,note_off,95,0,3,,,,,,,,,3,,,58,0
147240,note_off,360,0,5,,,,,,,,,5,,,54,0
147240,note_on,25,0,3,,,,,,,,,3,,,63,59
147240,note_on,70,0,1,,,,,,,,,1,,,75,55
147335,note_off,95,0,1,,,,,,,,,1,,,75,0
147335,note_off,95,0,3,,,,,,,,,3,,,63,0
147360,note_on,120,0,5,,,,,,,,,5,,,54,59
147360,note_on,25,0,1,,,,,,,,,1,,,77,56
147440,note_off,80,0,1,,,,,,,,,1,,,77,0
147440,note_on,0,0,1,,,,,,,,,1,,,75,57
147480,note_on,145,0,3,,,,,,,,,3,,,63,59
147520,note_off,80,0,1,,,,,,,,,1,,,75,0
147520,note_on,0,0,1,,,,,,,,,1,,,77,58
147575,note_off,95,0,3,,,,,,,,,3,,,63,0
147600,note_on,25,0,3,,,,,,,,,3,,,58,59
147600,note_off,80,0,1,,,,,,,,,1,,,77,0
147600,note_on,0,0,1,,,,,,,,,1,,,75,59
147680,note_off,80,0,1,,,,,,,,,1,,,75,0
147680,note_on,0,0,1,,,,,,,,,1,,,74,60
147695,note_off,95,0,3,,,,,,,,,3,,,58,0
147720,note_on,25,0,3,,,,,,,,,3,,,63,59
147720,note_off,360,0,5,,,,,,,,,5,,,54,0
147760,note_off,80,0,1,,,,,,,,,1,,,74,0
147760,note_on,0,0,1,,,,,,,,,1,,,75,60
147815,note_off,95,0,3,,,,,,,,,3,,,63,0
147825,note_off,65,0,1,,,,,,,,,1,,,75,0
147840,note_on,15,0,1,,,,,,,,,1,,,81,61
147840,note_on,120,0,5,,,,,,,,,5,,,53,60
147960,note_on,145,0,3,,,,,,,,,3,,,63,60
147995,note_off,155,0,1,,,,,,,,,1,,,81,0
148055,note_off,95,0,3,,,,,,,,,3,,,63,0
148080,note_on,85,0,1,,,,,,,,,1,,,84,63
148080,note_on,25,0,3,,,,,,,,,3,,,60,60
148175,note_off,95,0,3,,,,,,,,,3,,,60,0
148200,note_on,25,0,3,,,,,,,,,3,,,63,60
148200,note_off,360,0,5,,,,,,,,,5,,,53,0
148235,note_off,155,0,1,,,,,,,,,1,,,84,0
148295,note_off,95,0,3,,,,,,,,,3,,,63,0
148320,note_on,85,0,1,,,,,,,,,1,,,87,66
148320,note_on,120,0,5,,,,,,,,,5,,,53,61
148440,note_on,145,0,3,,,,,,,,,3,,,63,61
148535,note_off,95,0,3,,,,,,,,,3,,,63,0
148560,note_on,25,0,3,,,,,,,,,3,,,60,61
148655,note_off,95,0,3,,,,,,,,,3,,,60,0
148680,note_off,360,0,5,,,,,,,,,5,,,53,0
148680,note_on,25,0,3,,,,,,,,,3,,,63,61
148775,note_off,95,0,3,,,,,,,,,3,,,63,0
148800,note_on,120,0,5,,,,,,,,,5,,,53,62
148905,note_off,585,0,1,,,,,,,,,1,,,87,0
148920,note_on,145,0,3,,,,,,,,,3,,,63,62
148920,note_on,15,0,1,,,,,,,,,1,,,89,69
149015,note_off,95,0,3,,,,,,,,,3,,,63,0
149040,note_off,120,0,1,,,,,,,,,1,,,89,0
149040,note_on,0,0,1,,,,,,,,,1,,,86,68
149040,note_on,25,0,3,,,,,,,,,3,,,60,62
149135,note_off,95,0,3,,,,,,,,,3,,,60,0
149160,note_on,25,0,3,,,,,,,,,3,,,63,62
149160,note_on,0,0,1,,,,,,,,,1,,,87,67
149160,note_off,360,0,5,,,,,,,,,5,,,53,0
149160,note_off,120,0,1,,,,,,,,,1,,,86,0
149255,note_off,95,0,3,,,,,,,,,3,,,63,0
149280,note_off,120,0,1,,,,,,,,,1,,,87,0
149280,note_on,120,0,5,,,,,,,,,5,,,53,62
149280,note_on,0,0,1,,,,,,,,,1,,,84,66
149400,note_on,145,0,3,,,,,,,,,3,,,63,63
149400,note_on,0,0,1,,,,,,,,,1,,,86,66
149400,note_off,120,0,1,,,,,,,,,1,,,84,0
149495,note_off,95,0,3,,,,,,,,,3,,,63,0
149520,note_on,25,0,3,,,,,,,,,3,,,60,63
149520,note_on,0,0,1,,,,,,,,,1,,,82,65
149520,note_off,120,0,1,,,,,,,,,1,,,86,0
149615,note_off,95,0,3,,,,,,,,,3,,,60,0
149640,note_off,360,0,5,,,,,,,,,5,,,53,0
149640,note_on,25,0,3,,,,,,,,,3,,,63,63
149640,note_on,0,0,1,,,,,,,,,1,,,84,64
149640,note_off,120,0,1,,,,,,,,,1,,,82,0
149735,note_off,95,0,3,,,,,,,,,3,,,63,0
149760,note_on,120,0,5,,,,,,,,,5,,,53,63
149760,note_off,120,0,1,,,,,,,,,1,,,84,0
149760,note_on,0,0,1,,,,,,,,,1,,,81,63
149880,note_off,120,0,1,,,,,,,,,1,,,81,0
149880,note_on,0,0,1,,,,,,,,,1,,,82,64
149880,note_on,145,0,3,,,,,,,,,3,,,63,64
149975,note_off,95,0,3,,,,,,,,,3,,,63,0
150000,note_off,120,0,1,,,,,,,,,1,,,82,0
150000,note_on,0,0,1,,,,,,,,,1,,,84,64
150000,note_on,25,0,3,,,,,,,,,3,,,60,64
150095,note_off,95,0,3,,,,,,,,,3,,,60,0
150120,note_on,25,0,3,,,,,,,,,3,,,63,64
150120,note_off,360,0,5,,,,,,,,,5,,,53,0
150120,note_on,0,0,1,,,,,,,,,1,,,82,64
150120,note_off,120,0,1,,,,,,,,,1,,,84,0
150215,note_off,95,0,3,,,,,,,,,3,,,63,0
150240,note_on,0,0,1,,,,,,,,,1,,,81,64
150240,note_off,120,0,1,,,,,,,,,1,,,82,0
150240,note_on,120,0,5,,,,,,,,,5,,,53,64
150360,note_off,120,0,1,,,,,,,,,1,,,81,0
150360,note_on,145,0,3,,,,,,,,,3,,,63,65
150360,note_on,0,0,1,,,,,,,,,1,,,82,65
150455,note_off,95,0,3,,,,,,,,,3,,,63,0
150480,note_on,0,0,1,,,,,,,,,1,,,84,65
150480,note_on,25,0,3,,,,,,,,,3,,,60,65
150480,note_off,120,0,1,,,,,,,,,1,,,82,0
150575,note_off,95,0,3,,,,,,,,,3,,,60,0
150600,note_on,25,0,3,,,,,,,,,3,,,63,65
150600,note_off,360,0,5,,,,,,,,,5,,,53,0
150600,note_on,0,0,1,,,,,,,,,1,,,86,65
150600,note_off,120,0,1,,,,,,,,,1,,,84,0
150695,note_off,95,0,3,,,,,,,,,3,,,63,0
150720,note_on,120,0,5,,,,,,,,,5,,,53,65
150720,note_on,0,0,1,,,,,,,,,1,,,87,62
150720,note_off,120,0,1,,,,,,,,,1,,,86,0
150840,note_on,145,0,3,,,,,,,,,3,,,60,65
150840,note_on,0,0,1,,,,,,,,,1,,,86,63
150840,note_off,120,0,1,,,,,,,,,1,,,87,0
150935,note_off,95,0,3,,,,,,,,,3,,,60,0
150960,note_off,120,0,1,,,,,,,,,1,,,86,0
150960,note_on,0,0,1,,,,,,,,,1,,,84,64
150960,note_on,25,0,3,,,,,,,,,3,,,57,66
151055,note_off,95,0,3,,,,,,,,,3,,,57,0
151080,note_on,25,0,3,,,,,,,,,3,,,60,66
151080,note_on,0,0,1,,,,,,,,,1,,,82,64
151080,note_off,120,0,1,,,,,,,,,1,,,84,0
151080,note_off,360,0,5,,,,,,,,,5,,,53,0
151175,note_off,95,0,3,,,,,,,,,3,,,60,0
151200,note_off,120,0,1,,,,,,,,,1,,,82,0
151200,note_on,120,0,5,,,,,,,,,5,,,53,66
151200,note_on,0,0,1,,,,,,,,,1,,,81,65
151320,note_on,0,0,1,,,,,,,,,1,,,79,66
151320,note_off,120,0,1,,,,,,,,,1,,,81,0
151320,note_on,145,0,3,,,,,,,,,3,,,60,66
151415,note_off,95,0,3,,,,,,,,,3,,,60,0
151440,note_on,25,0,3,,,,,,,,,3,,,57,67
151440,note_on,0,0,1,,,,,,,,,1,,,77,67
151440,note_off,120,0,1,,,,,,,,,1,,,79,0
151535,note_off,95,0,3,,,,,,,,,3,,,57,0
151560,note_on,25,0,3,,,,,,,,,3,,,60,67
151560,note_off,120,0,1,,,,,,,,,1,,,77,0
151560,note_on,0,0,1,,,,,,,,,1,,,75,68
151560,note_off,360,0,5,,,,,,,,,5,,,53,0
151640,set_tempo,5720,1,0,,,,,,465116,,,,,,,
151655,note_off,95,0,1,,,,,,,,,1,,,75,0
151655,note_off,95,0,3,,,,,,,,,3,,,60,0
151680,note_on,120,0,5,,,,,,,,,5,,,54,67
151680,note_on,25,0,1,,,,,,,,,1,,,75,69
151680,set_tempo,40,1,0,,,,,,461538,,,,,,,
151720,note_on,40,0,1,,,,,,,,,1,,,77,69
151740,note_off,20,0,1,,,,,,,,,1,,,75,0
151760,note_on,20,0,1,,,,,,,,,1,,,75,69
151780,note_off,20,0,1,,,,,,,,,1,,,77,0
151800,note_on,145,0,3,,,,,,,,,3,,,60,67
151895,note_off,95,0,3,,,,,,,,,3,,,60,0
151920,note_on,25,0,3,,,,,,,,,3,,,57,68
151920,note_on,0,0,1,,,,,,,,,1,,,74,65
151920,note_off,140,0,1,,,,,,,,,1,,,75,0
152015,note_off,95,0,3,,,,,,,,,3,,,57,0
152040,note_on,25,0,3,,,,,,,,,3,,,60,68
152040,note_off,360,0,5,,,,,,,,,5,,,54,0
152130,note_off,210,0,1,,,,,,,,,1,,,74,0
152135,note_off,95,0,3,,,,,,,,,3,,,60,0
152160,note_on,30,0,1,,,,,,,,,1,,,74,62
152160,note_on,120,0,5,,,,,,,,,5,,,54,68
152280,note_on,145,0,3,,,,,,,,,3,,,60,68
152375,note_off,95,0,3,,,,,,,,,3,,,60,0
152400,note_on,25,0,3,,,,,,,,,3,,,57,68
152495,note_off,95,0,3,,,,,,,,,3,,,57,0
152520,note_off,360,0,5,,,,,,,,,5,,,54,0
152520,note_on,25,0,3,,,,,,,,,3,,,60,69
152615,note_off,95,0,3,,,,,,,,,3,,,60,0
152640,note_on,120,0,5,,,,,,,,,5,,,54,69
152735,note_off,575,0,1,,,,,,,,,1,,,74,0
152760,note_on,145,0,3,,,,,,,,,3,,,60,69
152855,note_off,95,0,3,,,,,,,,,3,,,60,0
152880,note_on,25,0,3,,,,,,,,,3,,,57,69
152880,note_on,145,0,1,,,,,,,,,1,,,74,68
152975,note_off,95,0,3,,,,,,,,,3,,,57,0
153000,note_on,25,0,3,,,,,,,,,3,,,60,70
153000,note_off,360,0,5,,,,,,,,,5,,,54,0
153095,note_off,95,0,3,,,,,,,,,3,,,60,0
153120,note_on,0,0,1,,,,,,,,,1,,,86,70
153120,note_off,240,0,1,,,,,,,,,1,,,74,0
153120,note_on,120,0,5,,,,,,,,,5,,,54,70
153240,note_on,145,0,3,,,,,,,,,3,,,62,70
153310,note_off,190,0,1,,,,,,,,,1,,,86,0
153335,note_off,95,0,3,,,,,,,,,3,,,62,0
153360,note_on,50,0,1,,,,,,,,,1,,,84,72
153360,note_on,25,0,3,,,,,,,,,3,,,57,70
153455,note_off,95,0,3,,,,,,,,,3,,,57,0
153480,note_on,25,0,3,,,,,,,,,3,,,62,71
153480,note_off,360,0,5,,,,,,,,,5,,,54,0
153560,set_tempo,1880,1,0,,,,,,465116,,,,,,,
153575,note_off,95,0,3,,,,,,,,,3,,,62,0
153600,set_tempo,40,1,0,,,,,,461538,,,,,,,
153600,note_on,120,0,5,,,,,,,,,5,,,55,71
153720,note_on,145,0,3,,,,,,,,,3,,,62,71
153745,note_off,385,0,1,,,,,,,,,1,,,84,0
153815,note_off,95,0,3,,,,,,,,,3,,,62,0
153840,note_on,25,0,3,,,,,,,,,3,,,58,71
153840,note_on,95,0,1,,,,,,,,,1,,,82,75
153935,note_off,95,0,3,,,,,,,,,3,,,58,0
153960,note_on,25,0,3,,,,,,,,,3,,,62,71
153960,note_off,360,0,5,,,,,,,,,5,,,55,0
154055,note_off,95,0,3,,,,,,,,,3,,,62,0
154080,note_on,120,0,5,,,,,,,,,5,,,53,72
154200,note_on,145,0,3,,,,,,,,,3,,,62,72
154225,note_off,385,0,1,,,,,,,,,1,,,82,0
154295,note_off,95,0,3,,,,,,,,,3,,,62,0
154320,note_on,25,0,3,,,,,,,,,3,,,57,72
154320,note_on,95,0,1,,,,,,,,,1,,,81,74
154415,note_off,95,0,3,,,,,,,,,3,,,57,0
154440,note_off,360,0,5,,,,,,,,,5,,,53,0
154440,note_on,25,0,3,,,,,,,,,3,,,62,72
154535,note_off,95,0,3,,,,,,,,,3,,,62,0
154560,note_on,120,0,5,,,,,,,,,5,,,52,73
154670,note_off,350,0,1,,,,,,,,,1,,,81,0
154680,note_on,10,0,1,,,,,,,,,1,,,79,73
154680,note_on,145,0,3,,,,,,,,,3,,,62,73
154775,note_off,95,0,3,,,,,,,,,3,,,62,0
154800,note_off,120,0,1,,,,,,,,,1,,,79,0
154800,note_on,0,0,1,,,,,,,,,1,,,82,73
154800,note_on,25,0,3,,,,,,,,,3,,,55,73
154895,note_off,95,0,3,,,,,,,,,3,,,55,0
154920,note_off,120,0,1,,,,,,,,,1,,,82,0
154920,note_on,0,0,1,,,,,,,,,1,,,81,73
154920,note_on,25,0,3,,,,,,,,,3,,,62,73
154920,note_off,360,0,5,,,,,,,,,5,,,52,0
155015,note_off,95,0,1,,,,,,,,,1,,,81,0
155015,note_off,95,0,3,,,,,,,,,3,,,62,0
155040,note_on,25,0,1,,,,,,,,,1,,,84,73
155040,note_on,120,0,5,,,,,,,,,5,,,51,74
155160,note_on,0,0,1,,,,,,,,,1,,,82,72
155160,note_off,120,0,1,,,,,,,,,1,,,84,0
155160,note_on,145,0,3,,,,,,,,,3,,,61,74
155255,note_off,95,0,3,,,,,,,,,3,,,61,0
155280,note_on,25,0,3,,,,,,,,,3,,,55,74
155280,note_on,0,0,1,,,,,,,,,1,,,81,72
155280,note_off,120,0,1,,,,,,,,,1,,,82,0
155375,note_off,95,0,3,,,,,,,,,3,,,55,0
155400,note_on,25,0,3,,,,,,,,,3,,,61,74
155400,note_off,120,0,1,,,,,,,,,1,,,81,0
155400,note_on,0,0,1,,,,,,,,,1,,,79,72
155400,note_off,360,0,5,,,,,,,,,5,,,51,0
155480,set_tempo,1880,1,0,,,,,,465116,,,,,,,
155495,note_off,95,0,3,,,,,,,,,3,,,61,0
155495,note_off,95,0,1,,,,,,,,,1,,,79,0
155520,note_on,25,0,3,,,,,,,,,3,,,62,74
155520,note_on,25,0,1,,,,,,,,,1,,,78,72
155520,note_on,120,0,5,,,,,,,,,5,,,50,74
155520,set_tempo,40,1,0,,,,,,461538,,,,,,,
155615,note_off,95,0,1,,,,,,,,,1,,,78,0
155640,note_on,25,0,1,,,,,,,,,1,,,74,75
155760,note_on,0,0,1,,,,,,,,,1,,,86,75
155760,note_off,120,0,1,,,,,,,,,1,,,74,0
155880,note_on,0,0,1,,,,,,,,,1,,,85,75
155880,note_off,120,0,1,,,,,,,,,1,,,86,0
155905,note_off,385,0,3,,,,,,,,,3,,,62,0
155905,note_off,385,0,5,,,,,,,,,5,,,50,0
156000,note_off,120,0,1,,,,,,,,,1,,,85,0
156000,note_on,0,0,1,,,,,,,,,1,,,86,75
156120,note_off,120,0,1,,,,,,,,,1,,,86,0
156120,note_on,0,0,1,,,,,,,,,1,,,85,76
156240,note_off,120,0,1,,,,,,,,,1,,,85,0
156240,note_on,0,0,1,,,,,,,,,1,,,86,76
156360,note_off,120,0,1,,,,,,,,,1,,,86,0
156360,note_on,0,0,1,,,,,,,,,1,,,85,76
156480,note_off,120,0,1,,,,,,,,,1,,,85,0
156480,note_on,0,0,1,,,,,,,,,1,,,86,76
156600,note_off,120,0,1,,,,,,,,,1,,,86,0
156600,note_on,0,0,1,,,,,,,,,1,,,87,76
156720,note_off,120,0,1,,,,,,,,,1,,,87,0
156720,note_on,0,0,1,,,,,,,,,1,,,84,77
156840,note_off,120,0,1,,,,,,,,,1,,,84,0
156840,note_on,0,0,1,,,,,,,,,1,,,86,77
156960,note_on,21790,0,4,,,,,,,,,4,,,66,78
156960,note_on,1055,0,5,,,,,,,,,5,,,62,78
156960,note_on,0,0,1,,,,,,,,,1,,,82,77
156960,note_off,120,0,1,,,,,,,,,1,,,86,0
157080,note_on,0,0,1,,,,,,,,,1,,,84,77
157080,note_off,120,0,1,,,,,,,,,1,,,82,0
157200,note_on,0,0,1,,,,,,,,,1,,,81,78
157200,note_off,120,0,1,,,,,,,,,1,,,84,0
157320,note_off,120,0,1,,,,,,,,,1,,,81,0
157320,note_on,0,0,1,,,,,,,,,1,,,82,78
157400,set_tempo,1880,1,0,,,,,,465116,,,,,,,
157440,note_on,0,0,4,,,,,,,,,4,,,67,74
157440,set_tempo,40,1,0,,,,,,461538,,,,,,,
157440,note_off,120,0,1,,,,,,,,,1,,,82,0
157440,note_off,480,0,5,,,,,,,,,5,,,62,0
157440,note_on,0,0,5,,,,,,,,,5,,,63,74
157440,note_on,0,0,1,,,,,,,,,1,,,79,78
157440,note_off,480,0,4,,,,,,,,,4,,,66,0
157560,note_off,120,0,1,,,,,,,,,1,,,79,0
157560,note_on,0,0,1,,,,,,,,,1,,,81,78
157680,note_off,120,0,1,,,,,,,,,1,,,81,0
157680,note_on,0,0,1,,,,,,,,,1,,,77,78
157800,note_off,120,0,1,,,,,,,,,1,,,77,0
157800,note_on,0,0,1,,,,,,,,,1,,,79,78
157825,note_off,385,0,5,,,,,,,,,5,,,63,0
157825,note_off,385,0,4,,,,,,,,,4,,,67,0
157920,note_on,0,0,1,,,,,,,,,1,,,75,79
157920,note_off,120,0,1,,,,,,,,,1,,,79,0
158040,note_off,120,0,1,,,,,,,,,1,,,75,0
158040,note_on,0,0,1,,,,,,,,,1,,,77,79
158160,note_on,0,0,1,,,,,,,,,1,,,74,79
158160,note_off,120,0,1,,,,,,,,,1,,,77,0
158280,note_off,120,0,1,,,,,,,,,1,,,74,0
158280,note_on,0,0,1,,,,,,,,,1,,,75,79
158360,set_tempo,920,1,0,,,,,,465116,,,,,,,
158400,note_off,120,0,1,,,,,,,,,1,,,75,0
158400,note_on,0,0,1,,,,,,,,,1,,,73,80
158590,note_off,190,0,1,,,,,,,,,1,,,73,0
158640,note_on,50,0,1,,,,,,,,,1,,,82,80
158880,note_off,240,0,1,,,,,,,,,1,,,82,0
158880,note_on,0,0,1,,,,,,,,,1,,,81,81
158880,note_on,1055,0,5,,,,,,,,,5,,,51,82
158880,note_on,1055,0,4,,,,,,,,,4,,,61,82
159120,note_on,0,0,1,,,,,,,,,1,,,79,81
159120,note_off,240,0,1,,,,,,,,,1,,,81,0
159320,set_tempo,960,1,0,,,,,,472440,,,,,,,
159360,note_off,240,0,1,,,,,,,,,1,,,79,0
159360,note_off,480,0,4,,,,,,,,,4,,,61,0
159360,note_on,0,0,4,,,,,,,,,4,,,62,76
159360,set_tempo,40,1,0,,,,,,461538,,,,,,,
159360,note_on,0,0,5,,,,,,,,,5,,,50,76
159360,note_off,480,0,5,,,,,,,,,5,,,51,0
159360,note_on,0,0,1,,,,,,,,,1,,,78,82
159455,note_off,95,0,1,,,,,,,,,1,,,78,0
159480,note_on,25,0,1,,,,,,,,,1,,,73,82
159600,note_on,0,0,1,,,,,,,,,1,,,74,82
159600,note_off,120,0,1,,,,,,,,,1,,,73,0
159720,note_on,0,0,1,,,,,,,,,1,,,73,82
159720,note_off,120,0,1,,,,,,,,,1,,,74,0
159745,note_off,385,0,4,,,,,,,,,4,,,62,0
159745,note_off,385,0,5,,,,,,,,,5,,,50,0
159840,note_off,120,0,1,,,,,,,,,1,,,73,0
159840,note_on,0,0,1,,,,,,,,,1,,,74,83
159960,note_off,120,0,1,,,,,,,,,1,,,74,0
159960,note_on,0,0,1,,,,,,,,,1,,,73,83
160080,note_off,120,0,1,,,,,,,,,1,,,73,0
160080,note_on,0,0,1,,,,,,,,,1,,,74,83
160200,note_off,120,0,1,,,,,,,,,1,,,74,0
160200,note_on,0,0,1,,,,,,,,,1,,,73,83
160320,note_on,0,0,1,,,,,,,,,1,,,74,81
160320,note_off,120,0,1,,,,,,,,,1,,,73,0
160440,note_on,0,0,1,,,,,,,,,1,,,75,81
160440,note_off,120,0,1,,,,,,,,,1,,,74,0
160560,note_off,120,0,1,,,,,,,,,1,,,75,0
160560,note_on,0,0,1,,,,,,,,,1,,,72,80
160680,note_off,120,0,1,,,,,,,,,1,,,72,0
160680,note_on,0,0,1,,,,,,,,,1,,,74,79
160800,note_off,120,0,1,,,,,,,,,1,,,74,0
160800,note_on,1055,0,5,,,,,,,,,5,,,50,79
160800,note_on,1055,0,4,,,,,,,,,4,,,60,79
160800,note_on,0,0,1,,,,,,,,,1,,,70,79
160920,note_on,0,0,1,,,,,,,,,1,,,72,78
160920,note_off,120,0,1,,,,,,,,,1,,,70,0
161040,note_off,120,0,1,,,,,,,,,1,,,72,0
161040,note_on,0,0,1,,,,,,,,,1,,,69,78
161160,note_off,120,0,1,,,,,,,,,1,,,69,0
161160,note_on,0,0,1,,,,,,,,,1,,,70,77
161240,set_tempo,1880,1,0,,,,,,465116,,,,,,,
161280,note_off,120,0,1,,,,,,,,,1,,,70,0
161280,note_on,0,0,4,,,,,,,,,4,,,58,74
161280,note_on,0,0,1,,,,,,,,,1,,,67,76
161280,set_tempo,40,1,0,,,,,,461538,,,,,,,
161280,note_off,480,0,4,,,,,,,,,4,,,60,0
161280,note_off,480,0,5,,,,,,,,,5,,,50,0
161280,note_on,0,0,5,,,,,,,,,5,,,51,74
161400,note_off,120,0,1,,,,,,,,,1,,,67,0
161400,note_on,0,0,1,,,,,,,,,1,,,69,76
161520,note_on,0,0,1,,,,,,,,,1,,,65,75
161520,note_off,120,0,1,,,,,,,,,1,,,69,0
161640,note_on,0,0,1,,,,,,,,,1,,,67,75
161640,note_off,120,0,1,,,,,,,,,1,,,65,0
161665,note_off,385,0,4,,,,,,,,,4,,,58,0
161665,note_off,385,0,5,,,,,,,,,5,,,51,0
161760,note_on,0,0,1,,,,,,,,,1,,,63,74
161760,note_off,120,0,1,,,,,,,,,1,,,67,0
161880,note_on,0,0,1,,,,,,,,,1,,,65,73
161880,note_off,120,0,1,,,,,,,,,1,,,63,0
162000,note_off,120,0,1,,,,,,,,,1,,,65,0
162000,note_on,0,0,1,,,,,,,,,1,,,62,73
162120,note_on,0,0,1,,,,,,,,,1,,,63,72
162120,note_off,120,0,1,,,,,,,,,1,,,62,0
162200,set_tempo,920,1,0,,,,,,465116,,,,,,,
162240,note_on,0,0,1,,,,,,,,,1,,,61,71
162240,note_off,120,0,1,,,,,,,,,1,,,63,0
162430,note_off,190,0,1,,,,,,,,,1,,,61,0
162480,note_on,50,0,1,,,,,,,,,1,,,67,70
162720,note_on,1055,0,4,,,,,,,,,4,,,55,69
162720,note_on,0,0,1,,,,,,,,,1,,,70,69
162720,note_on,1055,0,5,,,,,,,,,5,,,51,69
162720,note_off,240,0,1,,,,,,,,,1,,,67,0
162960,note_off,240,0,1,,,,,,,,,1,,,70,0
162960,note_on,0,0,1,,,,,,,,,1,,,61,68
163160,set_tempo,960,1,0,,,,,,472440,,,,,,,
163200,note_on,0,0,5,,,,,,,,,5,,,50,67
163200,note_off,480,0,5,,,,,,,,,5,,,51,0
163200,set_tempo,40,1,0,,,,,,465116,,,,,,,
163200,note_on,0,0,1,,,,,,,,,1,,,62,67
163200,note_off,240,0,1,,,,,,,,,1,,,61,0
163200,note_on,0,0,4,,,,,,,,,4,,,54,67
163200,note_off,480,0,4,,,,,,,,,4,,,55,0
163355,note_off,155,0,1,,,,,,,,,1,,,62,0
163390,note_off,190,0,5,,,,,,,,,5,,,50,0
163390,note_off,190,0,4,,,,,,,,,4,,,54,0
163440,note_on,85,0,1,,,,,,,,,1,,,74,65
163595,note_off,155,0,1,,,,,,,,,1,,,74,0
163680,note_on,290,0,5,,,,,,,,,5,,,50,64
163680,note_on,290,0,4,,,,,,,,,4,,,55,64
163680,note_on,0,0,4,,,,,,,,,4,,,58,64
163870,note_off,190,0,5,,,,,,,,,5,,,50,0
163870,note_off,190,0,4,,,,,,,,,4,,,58,0
163870,note_off,0,0,4,,,,,,,,,4,,,55,0
163920,note_on,325,0,1,,,,,,,,,1,,,74,63
164075,note_off,155,0,1,,,,,,,,,1,,,74,0
164160,note_on,290,0,5,,,,,,,,,5,,,50,62
164160,note_on,0,0,4,,,,,,,,,4,,,57,62
164160,note_on,290,0,4,,,,,,,,,4,,,54,62
164350,note_off,190,0,4,,,,,,,,,4,,,57,0
164350,note_off,0,0,4,,,,,,,,,4,,,54,0
164350,note_off,190,0,5,,,,,,,,,5,,,50,0
164400,note_on,325,0,1,,,,,,,,,1,,,74,60
164555,note_off,155,0,1,,,,,,,,,1,,,74,0
164640,note_on,290,0,4,,,,,,,,,4,,,55,59
164640,note_on,0,0,4,,,,,,,,,4,,,58,59
164640,note_on,290,0,5,,,,,,,,,5,,,50,59
164830,note_off,190,0,4,,,,,,,,,4,,,58,0
164830,note_off,190,0,5,,,,,,,,,5,,,50,0
164830,note_off,0,0,4,,,,,,,,,4,,,55,0
164880,note_on,325,0,1,,,,,,,,,1,,,74,58
165035,note_off,155,0,1,,,,,,,,,1,,,74,0
165080,set_tempo,1880,1,0,,,,,,472440,,,,,,,
165120,set_tempo,40,1,0,,,,,,465116,,,,,,,
165120,note_on,290,0,5,,,,,,,,,5,,,50,54
165120,note_on,290,0,4,,,,,,,,,4,,,54,54
165120,note_on,0,0,4,,,,,,,,,4,,,57,54
165360,note_on,325,0,1,,,,,,,,,1,,,74,53
165505,note_off,0,0,4,,,,,,,,,4,,,54,0
165505,note_off,385,0,5,,,,,,,,,5,,,50,0
165505,note_off,385,0,4,,,,,,,,,4,,,57,0
165600,note_off,240,0,1,,,,,,,,,1,,,74,0
165600,note_on,0,0,1,,,,,,,,,1,,,73,55
165840,note_on,0,0,1,,,,,,,,,1,,,74,57
165840,note_off,240,0,1,,,,,,,,,1,,,73,0
166080,note_off,240,0,1,,,,,,,,,1,,,74,0
166080,note_on,0,0,1,,,,,,,,,1,,,73,59
166320,note_off,240,0,1,,,,,,,,,1,,,73,0
166320,note_on,0,0,1,,,,,,,,,1,,,74,61
166560,note_off,240,0,1,,,,,,,,,1,,,74,0
166560,note_on,0,0,1,,,,,,,,,1,,,73,62
166800,note_on,0,0,1,,,,,,,,,1,,,74,64
166800,note_off,240,0,1,,,,,,,,,1,,,73,0
166990,note_off,190,0,1,,,,,,,,,1,,,74,0
167000,set_tempo,1880,1,0,,,,,,495867,,,,,,,
167040,note_on,50,0,1,,,,,,,,,1,,,77,66
167040,set_tempo,40,1,0,,,,,,465116,,,,,,,
167280,note_on,1775,0,5,,,,,,,,,5,,,60,61
167280,note_on,1775,0,4,,,,,,,,,4,,,69,61
167280,note_on,0,0,4,,,,,,,,,4,,,65,61
167470,note_off,190,0,5,,,,,,,,,5,,,60,0
167470,note_off,190,0,4,,,,,,,,,4,,,65,0
167470,note_off,0,0,4,,,,,,,,,4,,,69,0
167520,note_on,50,0,5,,,,,,,,,5,,,60,58
167520,note_on,50,0,4,,,,,,,,,4,,,65,58
167520,note_on,0,0,4,,,,,,,,,4,,,69,58
167520,note_off,480,0,1,,,,,,,,,1,,,77,0
167520,note_on,0,0,1,,,,,,,,,1,,,75,58
167710,note_off,190,0,5,,,,,,,,,5,,,60,0
167710,note_off,190,0,4,,,,,,,,,4,,,69,0
167710,note_off,0,0,4,,,,,,,,,4,,,65,0
167760,note_on,0,0,4,,,,,,,,,4,,,69,55
167760,note_on,50,0,4,,,,,,,,,4,,,65,55
167760,note_on,50,0,5,,,,,,,,,5,,,60,55
167905,note_off,385,0,1,,,,,,,,,1,,,75,0
167950,note_off,190,0,5,,,,,,,,,5,,,60,0
167950,note_off,190,0,4,,,,,,,,,4,,,69,0
167950,note_off,0,0,4,,,,,,,,,4,,,65,0
168000,note_on,50,0,5,,,,,,,,,5,,,60,53
168000,note_on,0,0,4,,,,,,,,,4,,,69,53
168000,note_on,50,0,4,,,,,,,,,4,,,65,53
168120,note_on,215,0,1,,,,,,,,,1,,,75,54
168240,note_off,120,0,1,,,,,,,,,1,,,75,0
168240,note_on,0,0,1,,,,,,,,,1,,,74,56
168360,note_off,120,0,1,,,,,,,,,1,,,74,0
168360,note_on,0,0,1,,,,,,,,,1,,,75,57
168385,note_off,385,0,4,,,,,,,,,4,,,69,0
168385,note_off,385,0,5,,,,,,,,,5,,,60,0
168385,note_off,0,0,4,,,,,,,,,4,,,65,0
168480,note_on,0,0,1,,,,,,,,,1,,,77,59
168480,note_off,120,0,1,,,,,,,,,1,,,75,0
168600,note_off,120,0,1,,,,,,,,,1,,,77,0
168600,note_on,0,0,1,,,,,,,,,1,,,75,60
168720,note_off,120,0,1,,,,,,,,,1,,,75,0
168720,note_on,0,0,1,,,,,,,,,1,,,74,62
168840,note_off,120,0,1,,,,,,,,,1,,,74,0
168840,note_on,0,0,1,,,,,,,,,1,,,75,63
168920,set_tempo,1880,1,0,,,,,,472440,,,,,,,
168935,note_off,95,0,1,,,,,,,,,1,,,75,0
168960,set_tempo,40,1,0,,,,,,465116,,,,,,,
168960,note_on,25,0,1,,,,,,,,,1,,,82,67
169200,note_on,0,0,4,,,,,,,,,4,,,75,59
169200,note_on,815,0,4,,,,,,,,,4,,,72,59
169200,note_on,815,0,5,,,,,,,,,5,,,65,59
169390,note_off,0,0,4,,,,,,,,,4,,,72,0
169390,note_off,190,0,4,,,,,,,,,4,,,75,0
169390,note_off,190,0,5,,,,,,,,,5,,,65,0
169440,note_on,0,0,4,,,,,,,,,4,,,75,56
169440,note_on,50,0,4,,,,,,,,,4,,,72,56
169440,note_on,50,0,5,,,,,,,,,5,,,65,56
169440,note_off,480,0,1,,,,,,,,,1,,,82,0
169440,note_on,0,0,1,,,,,,,,,1,,,81,56
169630,note_off,190,0,5,,,,,,,,,5,,,65,0
169630,note_off,0,0,4,,,,,,,,,4,,,72,0
169630,note_off,190,0,4,,,,,,,,,4,,,75,0
169680,note_on,50,0,4,,,,,,,,,4,,,72,53
169680,note_on,50,0,5,,,,,,,,,5,,,65,53
169680,note_on,0,0,4,,,,,,,,,4,,,75,53
169825,note_off,385,0,1,,,,,,,,,1,,,81,0
169870,note_off,0,0,4,,,,,,,,,4,,,72,0
169870,note_off,190,0,4,,,,,,,,,4,,,75,0
169870,note_off,190,0,5,,,,,,,,,5,,,65,0
169920,note_on,50,0,5,,,,,,,,,5,,,65,50
169920,note_on,50,0,4,,,,,,,,,4,,,72,50
169920,note_on,0,0,4,,,,,,,,,4,,,75,50
170040,note_on,215,0,1,,,,,,,,,1,,,81,52
170160,note_off,120,0,1,,,,,,,,,1,,,81,0
170160,note_on,0,0,1,,,,,,,,,1,,,79,53
170280,note_on,0,0,1,,,,,,,,,1,,,81,54
170280,note_off,120,0,1,,,,,,,,,1,,,79,0
170305,note_off,0,0,4,,,,,,,,,4,,,72,0
170305,note_off,385,0,4,,,,,,,,,4,,,75,0
170305,note_off,385,0,5,,,,,,,,,5,,,65,0
170400,note_off,120,0,1,,,,,,,,,1,,,81,0
170400,note_on,0,0,1,,,,,,,,,1,,,82,55
170520,note_off,120,0,1,,,,,,,,,1,,,82,0
170520,note_on,0,0,1,,,,,,,,,1,,,81,56
170640,note_on,0,0,1,,,,,,,,,1,,,79,57
170640,note_off,120,0,1,,,,,,,,,1,,,81,0
170760,note_off,120,0,1,,,,,,,,,1,,,79,0
170760,note_on,0,0,1,,,,,,,,,1,,,81,58
170840,set_tempo,1880,1,0,,,,,,472440,,,,,,,
170855,note_off,95,0,1,,,,,,,,,1,,,81,0
170880,note_on,25,0,1,,,,,,,,,1,,,89,60
170880,set_tempo,40,1,0,,,,,,465116,,,,,,,
171120,note_on,815,0,5,,,,,,,,,5,,,65,56
171360,note_off,480,0,1,,,,,,,,,1,,,89,0
171360,note_on,0,0,1,,,,,,,,,1,,,87,53
171360,note_off,240,0,5,,,,,,,,,5,,,65,0
171360,note_on,0,0,5,,,,,,,,,5,,,72,53
171600,note_off,240,0,5,,,,,,,,,5,,,72,0
171600,note_on,0,0,5,,,,,,,,,5,,,75,50
171745,note_off,385,0,1,,,,,,,,,1,,,87,0
171790,note_off,190,0,5,,,,,,,,,5,,,75,0
171840,note_on,50,0,5,,,,,,,,,5,,,66,46
171960,note_on,215,0,1,,,,,,,,,1,,,87,47
172080,note_on,0,0,1,,,,,,,,,1,,,86,48
172080,note_off,120,0,1,,,,,,,,,1,,,87,0
172200,note_on,0,0,1,,,,,,,,,1,,,87,49
172200,note_off,120,0,1,,,,,,,,,1,,,86,0
172320,note_off,120,0,1,,,,,,,,,1,,,87,0
172320,note_on,0,0,1,,,,,,,,,1,,,89,49
172440,note_off,120,0,1,,,,,,,,,1,,,89,0
172440,note_on,0,0,1,,,,,,,,,1,,,87,50
172560,note_on,0,0,1,,,,,,,,,1,,,85,51
172560,note_off,120,0,1,,,,,,,,,1,,,87,0
172610,note_off,770,0,5,,,,,,,,,5,,,66,0
172680,note_on,0,0,1,,,,,,,,,1,,,84,52
172680,note_off,120,0,1,,,,,,,,,1,,,85,0
172760,set_tempo,1880,1,0,,,,,,472440,,,,,,,
172775,note_off,95,0,1,,,,,,,,,1,,,84,0
172800,set_tempo,40,1,0,,,,,,465116,,,,,,,
172800,note_on,25,0,1,,,,,,,,,1,,,82,54
173040,note_on,430,0,5,,,,,,,,,5,,,65,50
173280,note_off,240,0,5,,,,,,,,,5,,,65,0
173280,note_on,0,0,1,,,,,,,,,1,,,81,48
173280,note_on,0,0,5,,,,,,,,,5,,,72,48
173280,note_off,480,0,1,,,,,,,,,1,,,82,0
173520,note_off,240,0,5,,,,,,,,,5,,,72,0
173520,note_on,0,0,5,,,,,,,,,5,,,75,46
173665,note_off,385,0,1,,,,,,,,,1,,,81,0
173710,note_off,190,0,5,,,,,,,,,5,,,75,0
173760,note_on,50,0,5,,,,,,,,,5,,,66,44
173880,note_on,215,0,1,,,,,,,,,1,,,87,45
174000,note_off,120,0,1,,,,,,,,,1,,,87,0
174000,note_on,0,0,1,,,,,,,,,1,,,86,47
174120,note_off,120,0,1,,,,,,,,,1,,,86,0
174120,note_on,0,0,1,,,,,,,,,1,,,87,48
174240,note_on,0,0,1,,,,,,,,,1,,,89,50
174240,note_off,120,0,1,,,,,,,,,1,,,87,0
174360,note_on,0,0,1,,,,,,,,,1,,,87,51
174360,note_off,120,0,1,,,,,,,,,1,,,89,0
174480,note_off,120,0,1,,,,,,,,,1,,,87,0
174480,note_on,0,0,1,,,,,,,,,1,,,85,53
174530,note_off,770,0,5,,,,,,,,,5,,,66,0
174600,note_off,120,0,1,,,,,,,,,1,,,85,0
174600,note_on,0,0,1,,,,,,,,,1,,,84,54
174680,set_tempo,1880,1,0,,,,,,465116,,,,,,,
174695,note_off,95,0,1,,,,,,,,,1,,,84,0
174720,note_on,25,0,1,,,,,,,,,1,,,82,56
174720,note_on,190,0,5,,,,,,,,,5,,,65,56
174720,set_tempo,40,1,0,,,,,,461538,,,,,,,
174815,note_off,95,0,1,,,,,,,,,1,,,82,0
174840,note_on,25,0,1,,,,,,,,,1,,,81,57
174910,note_off,190,0,5,,,,,,,,,5,,,65,0
174960,note_off,120,0,1,,,,,,,,,1,,,81,0
174960,note_on,0,0,1,,,,,,,,,1,,,87,59
175080,note_off,120,0,1,,,,,,,,,1,,,87,0
175080,note_on,0,0,1,,,,,,,,,1,,,86,60
175200,note_off,120,0,1,,,,,,,,,1,,,86,0
175200,note_on,0,0,1,,,,,,,,,1,,,89,61
175200,note_on,0,0,4,,,,,,,,,4,,,75,63
175200,note_on,4895,0,4,,,,,,,,,4,,,72,63
175200,note_on,290,0,5,,,,,,,,,5,,,66,63
175320,note_on,0,0,1,,,,,,,,,1,,,87,63
175320,note_off,120,0,1,,,,,,,,,1,,,89,0
175440,note_on,0,0,1,,,,,,,,,1,,,85,64
175440,note_off,120,0,1,,,,,,,,,1,,,87,0
175560,note_on,0,0,1,,,,,,,,,1,,,84,66
175560,note_off,120,0,1,,,,,,,,,1,,,85,0
175680,note_off,480,0,5,,,,,,,,,5,,,66,0
175680,note_on,0,0,5,,,,,,,,,5,,,65,60
175680,note_on,0,0,1,,,,,,,,,1,,,82,67
175680,note_off,120,0,1,,,,,,,,,1,,,84,0
175800,note_on,0,0,1,,,,,,,,,1,,,81,69
175800,note_off,120,0,1,,,,,,,,,1,,,82,0
175920,note_off,120,0,1,,,,,,,,,1,,,81,0
175920,note_on,0,0,1,,,,,,,,,1,,,87,70
175985,note_off,305,0,5,,,,,,,,,5,,,65,0
175985,note_off,0,0,4,,,,,,,,,4,,,72,0
175985,note_off,785,0,4,,,,,,,,,4,,,75,0
176040,note_off,120,0,1,,,,,,,,,1,,,87,0
176040,note_on,0,0,1,,,,,,,,,1,,,86,72
176160,note_on,175,0,5,,,,,,,,,5,,,66,73
176160,note_on,175,0,4,,,,,,,,,4,,,72,73
176160,note_off,120,0,1,,,,,,,,,1,,,86,0
176160,note_on,0,0,1,,,,,,,,,1,,,89,73
176160,note_on,0,0,4,,,,,,,,,4,,,75,73
176280,note_off,120,0,1,,,,,,,,,1,,,89,0
176280,note_on,0,0,1,,,,,,,,,1,,,87,75
176400,note_on,0,0,1,,,,,,,,,1,,,85,76
176400,note_off,120,0,1,,,,,,,,,1,,,87,0
176520,note_on,0,0,1,,,,,,,,,1,,,84,78
176520,note_off,120,0,1,,,,,,,,,1,,,85,0
176600,set_tempo,1880,1,0,,,,,,465116,,,,,,,
176615,note_off,95,0,1,,,,,,,,,1,,,84,0
176640,note_on,25,0,1,,,,,,,,,1,,,82,81
176640,note_off,480,0,5,,,,,,,,,5,,,66,0
176640,note_on,0,0,5,,,,,,,,,5,,,65,70
176760,note_off,120,0,1,,,,,,,,,1,,,82,0
176760,note_on,0,0,1,,,,,,,,,1,,,81,79
176880,note_off,120,0,1,,,,,,,,,1,,,81,0
176880,note_on,0,0,1,,,,,,,,,1,,,84,78
176940,note_off,300,0,5,,,,,,,,,5,,,65,0
176940,note_off,0,0,4,,,,,,,,,4,,,72,0
176940,note_off,780,0,4,,,,,,,,,4,,,75,0
177000,note_off,120,0,1,,,,,,,,,1,,,84,0
177000,note_on,0,0,1,,,,,,,,,1,,,83,76
177120,note_off,120,0,1,,,,,,,,,1,,,83,0
177120,note_on,0,0,1,,,,,,,,,1,,,86,74
177240,note_off,120,0,1,,,,,,,,,1,,,86,0
177240,note_on,0,0,1,,,,,,,,,1,,,84,73
177360,note_off,120,0,1,,,,,,,,,1,,,84,0
177360,note_on,0,0,1,,,,,,,,,1,,,82,71
177480,note_off,120,0,1,,,,,,,,,1,,,82,0
177480,note_on,0,0,1,,,,,,,,,1,,,81,69
177600,note_off,120,0,1,,,,,,,,,1,,,81,0
177600,note_on,0,0,1,,,,,,,,,1,,,79,68
177720,note_on,0,0,1,,,,,,,,,1,,,77,66
177720,note_off,120,0,1,,,,,,,,,1,,,79,0
177840,note_on,0,0,1,,,,,,,,,1,,,79,64
177840,note_off,120,0,1,,,,,,,,,1,,,77,0
177960,note_on,0,0,1,,,,,,,,,1,,,78,63
177960,note_off,120,0,1,,,,,,,,,1,,,79,0
178080,note_on,0,0,1,,,,,,,,,1,,,81,61
178080,note_off,120,0,1,,,,,,,,,1,,,78,0
178200,note_on,0,0,1,,,,,,,,,1,,,79,60
178200,note_off,120,0,1,,,,,,,,,1,,,81,0
178320,note_on,0,0,1,,,,,,,,,1,,,77,58
178320,note_off,120,0,1,,,,,,,,,1,,,79,0
178440,note_on,0,0,1,,,,,,,,,1,,,75,56
178440,note_off,120,0,1,,,,,,,,,1,,,77,0
178520,set_tempo,1920,1,0,,,,,,487804,,,,,,,
178560,note_on,0,0,1,,,,,,,,,1,,,74,56
178560,set_tempo,40,1,0,,,,,,472440,,,,,,,
178560,note_off,120,0,1,,,,,,,,,1,,,75,0
178715,note_off,155,0,1,,,,,,,,,1,,,74,0
178800,note_on,85,0,1,,,,,,,,,1,,,72,57
178955,note_off,155,0,1,,,,,,,,,1,,,72,0
179040,note_on,85,0,1,,,,,,,,,1,,,74,59
179195,note_off,155,0,1,,,,,,,,,1,,,74,0
179280,note_on,85,0,1,,,,,,,,,1,,,75,61
179435,note_off,155,0,1,,,,,,,,,1,,,75,0
179520,note_on,85,0,1,,,,,,,,,1,,,76,63
179675,note_off,155,0,1,,,,,,,,,1,,,76,0
179760,note_on,85,0,1,,,,,,,,,1,,,77,65
179790,set_tempo,1230,1,0,,,,,,550458,,,,,,,
179915,note_off,155,0,1,,,,,,,,,1,,,77,0
180000,set_tempo,210,1,0,,,,,,461538,,,,,,,
180000,note_on,85,0,1,,,,,,,,,1,,,79,67
180120,note_on,0,0,1,,,,,,,,,1,,,77,68
180120,note_off,120,0,1,,,,,,,,,1,,,79,0
180240,note_off,120,0,1,,,,,,,,,1,,,77,0
180240,note_on,0,0,1,,,,,,,,,1,,,75,69
180360,note_off,120,0,1,,,,,,,,,1,,,75,0
180360,note_on,0,0,1,,,,,,,,,1,,,74,70
180455,note_off,95,0,1,,,,,,,,,1,,,74,0
180480,note_on,25,0,1,,,,,,,,,1,,,72,72
180720,note_off,240,0,1,,,,,,,,,1,,,72,0
180720,note_on,0,0,1,,,,,,,,,1,,,70,70
180720,note_on,3780,0,5,,,,,,,,,5,,,58,70
180910,note_off,190,0,1,,,,,,,,,1,,,70,0
180960,note_on,50,0,1,,,,,,,,,1,,,70,69
180960,note_off,240,0,5,,,,,,,,,5,,,58,0
180960,note_on,4020,0,4,,,,,,,,,4,,,62,69
181200,note_off,240,0,4,,,,,,,,,4,,,62,0
181200,note_on,0,0,4,,,,,,,,,4,,,65,67
181440,note_off,240,0,4,,,,,,,,,4,,,65,0
181440,note_on,0,0,4,,,,,,,,,4,,,62,63
181535,note_off,575,0,1,,,,,,,,,1,,,70,0
181680,note_on,720,0,5,,,,,,,,,5,,,58,65
181680,note_on,145,0,1,,,,,,,,,1,,,74,65
181680,note_off,240,0,4,,,,,,,,,4,,,62,0
181920,note_on,240,0,4,,,,,,,,,4,,,62,67
181920,note_on,0,0,1,,,,,,,,,1,,,79,67
181920,note_off,240,0,1,,,,,,,,,1,,,74,0
181920,note_off,240,0,5,,,,,,,,,5,,,58,0
182160,note_off,240,0,1,,,,,,,,,1,,,79,0
182160,note_on,0,0,4,,,,,,,,,4,,,67,69
182160,note_off,240,0,4,,,,,,,,,4,,,62,0
182160,note_on,0,0,1,,,,,,,,,1,,,74,69
182350,note_off,190,0,1,,,,,,,,,1,,,74,0
182350,note_off,190,0,4,,,,,,,,,4,,,67,0
182400,note_on,50,0,1,,,,,,,,,1,,,77,71
182640,note_on,720,0,5,,,,,,,,,5,,,60,67
182880,note_off,240,0,5,,,,,,,,,5,,,60,0
182880,note_off,480,0,1,,,,,,,,,1,,,77,0
182880,note_on,530,0,4,,,,,,,,,4,,,63,63
182880,note_on,0,0,1,,,,,,,,,1,,,75,63
183120,note_on,0,0,4,,,,,,,,,4,,,67,60
183120,note_off,240,0,4,,,,,,,,,4,,,63,0
183360,note_on,0,0,4,,,,,,,,,4,,,63,58
183360,note_off,240,0,4,,,,,,,,,4,,,67,0
183455,note_off,575,0,1,,,,,,,,,1,,,75,0
183600,note_on,145,0,1,,,,,,,,,1,,,77,59
183600,note_on,720,0,5,,,,,,,,,5,,,60,59
183600,note_off,240,0,4,,,,,,,,,4,,,63,0
183720,note_off,120,0,1,,,,,,,,,1,,,77,0
183720,note_on,0,0,1,,,,,,,,,1,,,79,61
183840,note_on,240,0,4,,,,,,,,,4,,,63,62
183840,note_off,120,0,1,,,,,,,,,1,,,79,0
183840,note_on,0,0,1,,,,,,,,,1,,,77,62
183840,note_off,240,0,5,,,,,,,,,5,,,60,0
183960,note_off,120,0,1,,,,,,,,,1,,,77,0
183960,note_on,0,0,1,,,,,,,,,1,,,75,63
184080,note_off,240,0,4,,,,,,,,,4,,,63,0
184080,note_on,0,0,4,,,,,,,,,4,,,67,65
184080,note_off,120,0,1,,,,,,,,,1,,,75,0
184080,note_on,0,0,1,,,,,,,,,1,,,74,65
184200,note_off,120,0,1,,,,,,,,,1,,,74,0
184200,note_on,0,0,1,,,,,,,,,1,,,72,66
184270,note_off,190,0,4,,,,,,,,,4,,,67,0
184295,note_off,95,0,1,,,,,,,,,1,,,72,0
184320,note_on,25,0,1,,,,,,,,,1,,,70,68
184560,note_on,720,0,5,,,,,,,,,5,,,53,62
184800,note_on,0,0,1,,,,,,,,,1,,,69,61
184800,note_off,240,0,5,,,,,,,,,5,,,53,0
184800,note_off,480,0,1,,,,,,,,,1,,,70,0
184800,note_on,530,0,4,,,,,,,,,4,,,60,61
185040,note_on,0,0,4,,,,,,,,,4,,,63,59
185040,note_off,240,0,4,,,,,,,,,4,,,60,0
185280,note_off,240,0,4,,,,,,,,,4,,,63,0
185280,note_on,0,0,4,,,,,,,,,4,,,60,58
185375,note_off,575,0,1,,,,,,,,,1,,,69,0
185520,note_on,145,0,1,,,,,,,,,1,,,69,60
185520,note_on,720,0,5,,,,,,,,,5,,,53,60
185520,note_off,240,0,4,,,,,,,,,4,,,60,0
185760,note_off,240,0,1,,,,,,,,,1,,,69,0
185760,note_on,240,0,4,,,,,,,,,4,,,60,62
185760,note_on,0,0,1,,,,,,,,,1,,,70,62
185760,note_off,240,0,5,,,,,,,,,5,,,53,0
186000,note_off,240,0,1,,,,,,,,,1,,,70,0
186000,note_on,0,0,4,,,,,,,,,4,,,63,65
186000,note_off,240,0,4,,,,,,,,,4,,,60,0
186000,note_on,0,0,1,,,,,,,,,1,,,72,65
186190,note_off,190,0,1,,,,,,,,,1,,,72,0
186190,note_off,190,0,4,,,,,,,,,4,,,63,0
186240,note_on,50,0,1,,,,,,,,,1,,,72,69
186240,note_on,50040,0,2,,,,,,,,,2,,,69,69
186480,note_on,720,0,5,,,,,,,,,5,,,58,65
186720,note_off,480,0,1,,,,,,,,,1,,,72,0
186720,note_on,0,0,2,,,,,,,,,2,,,70,61
186720,note_off,480,0,2,,,,,,,,,2,,,69,0
186720,note_off,240,0,5,,,,,,,,,5,,,58,0
186720,note_on,530,0,4,,,,,,,,,4,,,62,61
186720,note_on,0,0,1,,,,,,,,,1,,,74,61
186960,note_off,240,0,4,,,,,,,,,4,,,62,0
186960,note_on,0,0,4,,,,,,,,,4,,,65,57
187105,note_off,385,0,1,,,,,,,,,1,,,74,0
187105,note_off,385,0,2,,,,,,,,,2,,,70,0
187200,note_on,0,0,4,,,,,,,,,4,,,62,57
187200,note_off,240,0,4,,,,,,,,,4,,,65,0
187440,note_on,335,0,1,,,,,,,,,1,,,77,58
187440,note_off,240,0,4,,,,,,,,,4,,,62,0
187440,note_on,720,0,5,,,,,,,,,5,,,58,58
187560,note_on,0,0,1,,,,,,,,,1,,,76,59
187560,note_off,120,0,1,,,,,,,,,1,,,77,0
187680,note_on,0,0,1,,,,,,,,,1,,,79,60
187680,note_on,240,0,4,,,,,,,,,4,,,62,60
187680,note_off,240,0,5,,,,,,,,,5,,,58,0
187680,note_off,120,0,1,,,,,,,,,1,,,76,0
187800,note_on,0,0,1,,,,,,,,,1,,,77,61
187800,note_off,120,0,1,,,,,,,,,1,,,79,0
187920,note_on,0,0,1,,,,,,,,,1,,,75,62
187920,note_off,120,0,1,,,,,,,,,1,,,77,0
187920,note_off,240,0,4,,,,,,,,,4,,,62,0
187920,note_on,0,0,4,,,,,,,,,4,,,65,62
188040,note_on,0,0,1,,,,,,,,,1,,,74,63
188040,note_off,120,0,1,,,,,,,,,1,,,75,0
188110,note_off,190,0,4,,,,,,,,,4,,,65,0
188120,set_tempo,8120,1,0,,,,,,465116,,,,,,,
188135,note_off,95,0,1,,,,,,,,,1,,,74,0
188160,note_on,480,0,5,,,,,,,,,5,,,63,67
188160,note_on,25,0,1,,,,,,,,,1,,,74,67
188400,note_on,290,0,4,,,,,,,,,4,,,67,65
188400,note_on,0,0,1,,,,,,,,,1,,,72,65
188400,note_off,240,0,1,,,,,,,,,1,,,74,0
188400,note_off,240,0,5,,,,,,,,,5,,,63,0
188640,note_off,240,0,4,,,,,,,,,4,,,67,0
188640,note_on,240,0,5,,,,,,,,,5,,,62,63
188785,note_off,385,0,1,,,,,,,,,1,,,72,0
188880,note_on,95,0,1,,,,,,,,,1,,,70,61
188880,note_off,240,0,5,,,,,,,,,5,,,62,0
188880,note_on,240,0,4,,,,,,,,,4,,,65,61
189070,note_off,190,0,1,,,,,,,,,1,,,70,0
189070,note_off,190,0,4,,,,,,,,,4,,,65,0
189120,note_on,240,0,5,,,,,,,,,5,,,63,59
189120,note_on,50,0,1,,,,,,,,,1,,,74,59
189360,note_on,290,0,4,,,,,,,,,4,,,67,57
189360,note_off,240,0,5,,,,,,,,,5,,,63,0
189360,note_on,0,0,1,,,,,,,,,1,,,72,57
189360,note_off,240,0,1,,,,,,,,,1,,,74,0
189600,note_on,240,0,5,,,,,,,,,5,,,60,55
189600,note_off,240,0,4,,,,,,,,,4,,,67,0
189745,note_off,385,0,1,,,,,,,,,1,,,72,0
189840,note_off,240,0,5,,,,,,,,,5,,,60,0
189840,note_on,240,0,4,,,,,,,,,4,,,63,53
189840,note_on,95,0,1,,,,,,,,,1,,,69,53
190030,note_off,190,0,4,,,,,,,,,4,,,63,0
190030,note_off,190,0,1,,,,,,,,,1,,,69,0
190040,set_tempo,1920,1,0,,,,,,472440,,,,,,,
190080,note_on,50,0,4,,,,,,,,,4,,,65,53
190080,set_tempo,40,1,0,,,,,,461538,,,,,,,
190080,note_on,240,0,5,,,,,,,,,5,,,62,53
190080,note_on,50,0,1,,,,,,,,,1,,,70,53
190200,note_off,120,0,1,,,,,,,,,1,,,70,0
190200,note_on,0,0,1,,,,,,,,,1,,,72,55
190320,note_off,120,0,1,,,,,,,,,1,,,72,0
190320,note_on,0,0,1,,,,,,,,,1,,,70,56
190440,note_on,0,0,1,,,,,,,,,1,,,69,57
190440,note_off,120,0,1,,,,,,,,,1,,,70,0
190465,note_off,385,0,4,,,,,,,,,4,,,65,0
190465,note_off,385,0,5,,,,,,,,,5,,,62,0
190560,note_off,120,0,1,,,,,,,,,1,,,69,0
190560,note_on,0,0,1,,,,,,,,,1,,,70,58
190680,note_on,0,0,1,,,,,,,,,1,,,72,59
190680,note_off,120,0,1,,,,,,,,,1,,,70,0
190800,note_off,120,0,1,,,,,,,,,1,,,72,0
190800,note_on,0,0,1,,,,,,,,,1,,,74,61
190920,note_on,0,0,1,,,,,,,,,1,,,75,62
190920,note_off,120,0,1,,,,,,,,,1,,,74,0
191040,note_on,0,0,1,,,,,,,,,1,,,76,63
191040,note_off,120,0,1,,,,,,,,,1,,,75,0
191160,note_on,0,0,1,,,,,,,,,1,,,77,64
191160,note_off,120,0,1,,,,,,,,,1,,,76,0
191280,note_on,0,0,1,,,,,,,,,1,,,76,65
191280,note_off,120,0,1,,,,,,,,,1,,,77,0
191400,note_on,0,0,1,,,,,,,,,1,,,77,67
191400,note_off,120,0,1,,,,,,,,,1,,,76,0
191520,note_on,0,0,1,,,,,,,,,1,,,79,68
191520,note_off,120,0,1,,,,,,,,,1,,,77,0
191640,note_on,0,0,1,,,,,,,,,1,,,77,69
191640,note_off,120,0,1,,,,,,,,,1,,,79,0
191760,note_off,120,0,1,,,,,,,,,1,,,77,0
191760,note_on,0,0,1,,,,,,,,,1,,,75,70
191880,note_on,0,0,1,,,,,,,,,1,,,74,72
191880,note_off,120,0,1,,,,,,,,,1,,,75,0
191960,set_tempo,1880,1,0,,,,,,465116,,,,,,,
191975,note_off,95,0,1,,,,,,,,,1,,,74,0
192000,note_on,1535,0,5,,,,,,,,,5,,,63,75
192000,note_on,25,0,1,,,,,,,,,1,,,74,75
192240,note_off,240,0,1,,,,,,,,,1,,,74,0
192240,note_off,240,0,5,,,,,,,,,5,,,63,0
192240,note_on,0,0,1,,,,,,,,,1,,,72,72
192240,note_on,1775,0,4,,,,,,,,,4,,,67,72
192430,note_off,190,0,1,,,,,,,,,1,,,72,0
192480,note_off,240,0,4,,,,,,,,,4,,,67,0
192480,note_on,50,0,1,,,,,,,,,1,,,72,68
192480,note_on,240,0,5,,,,,,,,,5,,,62,68
192720,note_on,240,0,4,,,,,,,,,4,,,65,65
192720,note_off,240,0,5,,,,,,,,,5,,,62,0
192720,note_off,240,0,1,,,,,,,,,1,,,72,0
192720,note_on,0,0,1,,,,,,,,,1,,,70,65
192910,note_off,190,0,1,,,,,,,,,1,,,70,0
192910,note_off,190,0,4,,,,,,,,,4,,,65,0
192960,note_on,240,0,5,,,,,,,,,5,,,63,62
192960,note_on,50,0,1,,,,,,,,,1,,,74,62
193200,note_on,0,0,1,,,,,,,,,1,,,72,59
193200,note_off,240,0,1,,,,,,,,,1,,,74,0
193200,note_on,290,0,4,,,,,,,,,4,,,67,59
193200,note_off,240,0,5,,,,,,,,,5,,,63,0
193390,note_off,190,0,1,,,,,,,,,1,,,72,0
193440,note_on,240,0,5,,,,,,,,,5,,,60,55
193440,note_off,240,0,4,,,,,,,,,4,,,67,0
193440,note_on,50,0,1,,,,,,,,,1,,,72,55
193680,note_off,240,0,5,,,,,,,,,5,,,60,0
193680,note_on,240,0,4,,,,,,,,,4,,,63,53
193680,note_off,240,0,1,,,,,,,,,1,,,72,0
193680,note_on,0,0,1,,,,,,,,,1,,,69,53
193870,note_off,190,0,4,,,,,,,,,4,,,63,0
193870,note_off,190,0,1,,,,,,,,,1,,,69,0
193880,set_tempo,1920,1,0,,,,,,472440,,,,,,,
193920,set_tempo,40,1,0,,,,,,461538,,,,,,,
193920,note_on,50,0,4,,,,,,,,,4,,,65,54
193920,note_on,240,0,5,,,,,,,,,5,,,62,54
193920,note_on,50,0,1,,,,,,,,,1,,,70,54
194160,note_off,240,0,1,,,,,,,,,1,,,70,0
194160,note_on,0,0,1,,,,,,,,,1,,,72,58
194280,note_off,120,0,1,,,,,,,,,1,,,72,0
194280,note_on,0,0,1,,,,,,,,,1,,,74,60
194305,note_off,385,0,4,,,,,,,,,4,,,65,0
194305,note_off,385,0,5,,,,,,,,,5,,,62,0
194400,note_off,120,0,1,,,,,,,,,1,,,74,0
194400,note_on,0,0,1,,,,,,,,,1,,,75,62
194520,note_on,0,0,1,,,,,,,,,1,,,77,64
194520,note_off,120,0,1,,,,,,,,,1,,,75,0
194640,note_on,0,0,1,,,,,,,,,1,,,79,66
194640,note_off,120,0,1,,,,,,,,,1,,,77,0
194760,note_off,120,0,1,,,,,,,,,1,,,79,0
194760,note_on,0,0,1,,,,,,,,,1,,,81,68
194880,note_on,0,0,1,,,,,,,,,1,,,82,70
194880,note_off,120,0,1,,,,,,,,,1,,,81,0
195000,note_off,120,0,1,,,,,,,,,1,,,82,0
195000,note_on,0,0,1,,,,,,,,,1,,,84,72
195120,note_off,120,0,1,,,,,,,,,1,,,84,0
195120,note_on,0,0,1,,,,,,,,,1,,,86,74
195240,note_off,120,0,1,,,,,,,,,1,,,86,0
195240,note_on,0,0,1,,,,,,,,,1,,,87,76
195360,note_on,0,0,1,,,,,,,,,1,,,89,78
195360,note_off,120,0,1,,,,,,,,,1,,,87,0
195515,note_off,155,0,1,,,,,,,,,1,,,89,0
195600,note_on,85,0,1,,,,,,,,,1,,,89,82
195755,note_off,155,0,1,,,,,,,,,1,,,89,0
195800,set_tempo,1880,1,0,,,,,,472440,,,,,,,
195840,set_tempo,40,1,0,,,,,,461538,,,,,,,
195840,note_on,85,0,1,,,,,,,,,1,,,89,87
195840,note_on,8735,0,2,,,,,,,,,2,,,77,87
195840,note_on,1535,0,5,,,,,,,,,5,,,57,87
196080,note_off,240,0,1,,,,,,,,,1,,,89,0
196080,note_on,0,0,1,,,,,,,,,1,,,87,84
196225,note_off,385,0,5,,,,,,,,,5,,,57,0
196320,note_on,95,0,5,,,,,,,,,5,,,58,82
196560,note_on,0,0,1,,,,,,,,,1,,,86,80
196560,note_off,480,0,1,,,,,,,,,1,,,87,0
196610,note_off,770,0,2,,,,,,,,,2,,,77,0
196705,note_off,385,0,5,,,,,,,,,5,,,58,0
196750,note_off,190,0,1,,,,,,,,,1,,,86,0
196800,note_on,50,0,1,,,,,,,,,1,,,86,77
196800,note_on,95,0,5,,,,,,,,,5,,,51,77
197040,note_on,430,0,2,,,,,,,,,2,,,75,75
197040,note_on,0,0,1,,,,,,,,,1,,,84,75
197040,note_off,240,0,1,,,,,,,,,1,,,86,0
197160,note_off,120,0,2,,,,,,,,,2,,,75,0
197165,note_off,125,0,1,,,,,,,,,1,,,84,0
197185,note_off,385,0,5,,,,,,,,,5,,,51,0
197280,note_on,95,0,5,,,,,,,,,5,,,53,72
197280,note_on,120,0,2,,,,,,,,,2,,,74,72
197280,note_on,115,0,1,,,,,,,,,1,,,82,72
197400,note_off,120,0,1,,,,,,,,,1,,,82,0
197405,note_off,125,0,2,,,,,,,,,2,,,74,0
197520,note_on,115,0,2,,,,,,,,,2,,,72,70
197520,note_on,120,0,1,,,,,,,,,1,,,81,70
197645,note_off,125,0,2,,,,,,,,,2,,,72,0
197655,note_off,135,0,1,,,,,,,,,1,,,81,0
197665,note_off,385,0,5,,,,,,,,,5,,,53,0
197720,set_tempo,1880,1,0,,,,,,465116,,,,,,,
197760,note_on,105,0,1,,,,,,,,,1,,,82,69
198000,note_on,335,0,5,,,,,,,,,5,,,46,63
198070,note_off,310,0,1,,,,,,,,,1,,,82,0
198155,note_off,155,0,5,,,,,,,,,5,,,46,0
198240,note_on,170,0,1,,,,,,,,,1,,,70,58
198240,note_on,85,0,5,,,,,,,,,5,,,50,58
198395,note_off,155,0,5,,,,,,,,,5,,,50,0
198480,note_on,85,0,5,,,,,,,,,5,,,53,52
198550,note_off,310,0,1,,,,,,,,,1,,,70,0
198635,note_off,155,0,5,,,,,,,,,5,,,53,0
198720,note_on,85,0,5,,,,,,,,,5,,,58,47
199080,set_tempo,1360,1,0,,,,,,480000,,,,,,,
199105,note_off,385,0,5,,,,,,,,,5,,,58,0
199200,set_tempo,120,1,0,,,,,,461538,,,,,,,
199200,note_on,650,0,1,,,,,,,,,1,,,67,35
199320,note_on,0,0,1,,,,,,,,,1,,,65,37
199320,note_off,120,0,1,,,,,,,,,1,,,67,0
199440,note_off,120,0,1,,,,,,,,,1,,,65,0
199440,note_on,0,0,1,,,,,,,,,1,,,63,38
199560,note_on,0,0,1,,,,,,,,,1,,,62,40
199560,note_off,120,0,1,,,,,,,,,1,,,63,0
199655,note_off,95,0,1,,,,,,,,,1,,,62,0
199680,note_on,25,0,1,,,,,,,,,1,,,60,42
199920,note_off,240,0,1,,,,,,,,,1,,,60,0
199920,note_on,815,0,5,,,,,,,,,5,,,46,38
199920,note_on,0,0,1,,,,,,,,,1,,,58,38
200110,note_off,190,0,1,,,,,,,,,1,,,58,0
200160,note_off,240,0,5,,,,,,,,,5,,,46,0
200160,note_on,5855,0,4,,,,,,,,,4,,,50,36
200160,note_on,50,0,1,,,,,,,,,1,,,58,36
200400,note_off,240,0,4,,,,,,,,,4,,,50,0
200400,note_on,0,0,4,,,,,,,,,4,,,53,33
200640,note_off,240,0,4,,,,,,,,,4,,,53,0
200640,note_on,0,0,4,,,,,,,,,4,,,50,33
200735,note_off,575,0,1,,,,,,,,,1,,,58,0
200880,note_on,145,0,1,,,,,,,,,1,,,70,36
200880,note_on,720,0,5,,,,,,,,,5,,,46,36
200880,note_off,240,0,4,,,,,,,,,4,,,50,0
201035,note_off,155,0,1,,,,,,,,,1,,,70,0
201120,note_on,85,0,1,,,,,,,,,1,,,70,40
201120,note_off,240,0,5,,,,,,,,,5,,,46,0
201120,note_on,240,0,4,,,,,,,,,4,,,50,40
201360,note_on,0,0,4,,,,,,,,,4,,,53,44
201360,note_off,240,0,4,,,,,,,,,4,,,50,0
201360,note_off,240,0,1,,,,,,,,,1,,,70,0
201360,note_on,0,0,1,,,,,,,,,1,,,72,44
201550,note_off,190,0,1,,,,,,,,,1,,,72,0
201550,note_off,190,0,4,,,,,,,,,4,,,53,0
201600,note_on,50,0,1,,,,,,,,,1,,,70,48
201840,note_on,0,0,1,,,,,,,,,1,,,69,45
201840,note_on,720,0,5,,,,,,,,,5,,,46,45
201840,note_off,240,0,1,,,,,,,,,1,,,70,0
202030,note_off,190,0,1,,,,,,,,,1,,,69,0
202080,note_off,240,0,5,,,,,,,,,5,,,46,0
202080,note_on,530,0,4,,,,,,,,,4,,,50,43
202080,note_on,50,0,1,,,,,,,,,1,,,68,43
202320,note_off,240,0,4,,,,,,,,,4,,,50,0
202320,note_on,0,0,4,,,,,,,,,4,,,53,40
202560,note_off,240,0,4,,,,,,,,,4,,,53,0
202560,note_on,0,0,4,,,,,,,,,4,,,50,40
202770,note_off,690,0,1,,,,,,,,,1,,,68,0
202800,note_on,720,0,5,,,,,,,,,5,,,46,47
202800,note_on,30,0,1,,,,,,,,,1,,,68,47
202800,note_off,240,0,4,,,,,,,,,4,,,50,0
202990,note_off,190,0,1,,,,,,,,,1,,,68,0
203040,note_on,240,0,4,,,,,,,,,4,,,50,52
203040,note_off,240,0,5,,,,,,,,,5,,,46,0
203040,note_on,50,0,1,,,,,,,,,1,,,68,52
203230,note_off,190,0,1,,,,,,,,,1,,,68,0
203280,note_off,240,0,4,,,,,,,,,4,,,50,0
203280,note_on,0,0,4,,,,,,,,,4,,,53,58
203280,note_on,50,0,1,,,,,,,,,1,,,68,58
203470,note_off,190,0,1,,,,,,,,,1,,,68,0
203470,note_off,190,0,4,,,,,,,,,4,,,53,0
203480,set_tempo,4280,1,0,,,,,,465116,,,,,,,
203520,set_tempo,40,1,0,,,,,,461538,,,,,,,
203520,note_on,50,0,1,,,,,,,,,1,,,80,68
203640,note_off,120,0,1,,,,,,,,,1,,,80,0
203640,note_on,0,0,1,,,,,,,,,1,,,82,67
203760,note_on,720,0,5,,,,,,,,,5,,,46,65
203760,note_on,0,0,1,,,,,,,,,1,,,79,65
203760,note_off,120,0,1,,,,,,,,,1,,,82,0
203880,note_on,0,0,1,,,,,,,,,1,,,80,64
203880,note_off,120,0,1,,,,,,,,,1,,,79,0
204000,note_on,0,0,1,,,,,,,,,1,,,77,62
204000,note_off,120,0,1,,,,,,,,,1,,,80,0
204000,note_on,530,0,4,,,,,,,,,4,,,50,62
204000,note_off,240,0,5,,,,,,,,,5,,,46,0
204120,note_off,120,0,1,,,,,,,,,1,,,77,0
204120,note_on,0,0,1,,,,,,,,,1,,,79,61
204240,note_off,120,0,1,,,,,,,,,1,,,79,0
204240,note_on,0,0,1,,,,,,,,,1,,,75,59
204240,note_off,240,0,4,,,,,,,,,4,,,50,0
204240,note_on,0,0,4,,,,,,,,,4,,,53,59
204360,note_on,0,0,1,,,,,,,,,1,,,77,58
204360,note_off,120,0,1,,,,,,,,,1,,,75,0
204480,note_off,120,0,1,,,,,,,,,1,,,77,0
204480,note_on,0,0,1,,,,,,,,,1,,,74,57
204480,note_off,240,0,4,,,,,,,,,4,,,53,0
204480,note_on,0,0,4,,,,,,,,,4,,,56,57
204600,note_off,120,0,1,,,,,,,,,1,,,74,0
204600,note_on,0,0,1,,,,,,,,,1,,,75,55
204720,note_on,0,0,4,,,,,,,,,4,,,53,54
204720,note_on,0,0,1,,,,,,,,,1,,,72,54
204720,note_off,240,0,4,,,,,,,,,4,,,56,0
204720,note_off,120,0,1,,,,,,,,,1,,,75,0
204840,note_off,120,0,1,,,,,,,,,1,,,72,0
204840,note_on,0,0,1,,,,,,,,,1,,,74,52
204960,note_off,120,0,1,,,,,,,,,1,,,74,0
204960,note_on,0,0,1,,,,,,,,,1,,,70,51
204960,note_on,0,0,4,,,,,,,,,4,,,50,51
204960,note_off,240,0,4,,,,,,,,,4,,,53,0
205080,note_off,120,0,1,,,,,,,,,1,,,70,0
205080,note_on,0,0,1,,,,,,,,,1,,,72,49
205200,note_on,1200,0,5,,,,,,,,,5,,,46,48
205200,note_off,240,0,4,,,,,,,,,4,,,50,0
205200,note_off,120,0,1,,,,,,,,,1,,,72,0
205200,note_on,0,0,1,,,,,,,,,1,,,68,48
205320,note_off,120,0,1,,,,,,,,,1,,,68,0
205320,note_on,0,0,1,,,,,,,,,1,,,70,46
205390,note_off,190,0,5,,,,,,,,,5,,,46,0
205415,note_off,95,0,1,,,,,,,,,1,,,70,0
205440,note_on,25,0,1,,,,,,,,,1,,,68,45
205680,note_off,240,0,1,,,,,,,,,1,,,68,0
205680,note_on,0,0,1,,,,,,,,,1,,,67,42
205680,note_on,290,0,5,,,,,,,,,5,,,47,42
205870,note_off,190,0,1,,,,,,,,,1,,,67,0
205920,note_on,50,0,1,,,,,,,,,1,,,67,39
205920,note_on,720,0,4,,,,,,,,,4,,,50,39
205920,note_off,240,0,5,,,,,,,,,5,,,47,0
206160,note_off,240,0,4,,,,,,,,,4,,,50,0
206160,note_on,0,0,4,,,,,,,,,4,,,53,36
206400,note_off,240,0,4,,,,,,,,,4,,,53,0
206400,note_on,0,0,4,,,,,,,,,4,,,55,36
206495,note_off,575,0,1,,,,,,,,,1,,,67,0
206640,note_off,240,0,4,,,,,,,,,4,,,55,0
206640,note_on,0,0,4,,,,,,,,,4,,,53,38
206640,note_on,145,0,1,,,,,,,,,1,,,79,38
206795,note_off,155,0,1,,,,,,,,,1,,,79,0
206880,note_on,0,0,4,,,,,,,,,4,,,50,40
206880,note_off,240,0,4,,,,,,,,,4,,,53,0
206880,note_on,85,0,1,,,,,,,,,1,,,79,40
207120,note_on,0,0,4,,,,,,,,,4,,,47,42
207120,note_off,240,0,4,,,,,,,,,4,,,50,0
207120,note_on,0,0,1,,,,,,,,,1,,,77,42
207120,note_off,240,0,1,,,,,,,,,1,,,79,0
207310,note_off,190,0,4,,,,,,,,,4,,,47,0
207310,note_off,190,0,1,,,,,,,,,1,,,77,0
207360,note_on,50,0,1,,,,,,,,,1,,,77,47
207600,note_off,240,0,1,,,,,,,,,1,,,77,0
207600,note_on,0,0,1,,,,,,,,,1,,,76,44
207600,note_on,1680,0,5,,,,,,,,,5,,,58,44
207790,note_off,190,0,1,,,,,,,,,1,,,76,0
207840,note_on,0,0,5,,,,,,,,,5,,,61,42
207840,note_off,240,0,5,,,,,,,,,5,,,58,0
207840,note_on,50,0,1,,,,,,,,,1,,,76,42
208080,note_on,0,0,5,,,,,,,,,5,,,64,40
208080,note_off,240,0,5,,,,,,,,,5,,,61,0
208320,note_on,0,0,5,,,,,,,,,5,,,67,40
208320,note_off,240,0,5,,,,,,,,,5,,,64,0
208415,note_off,575,0,1,,,,,,,,,1,,,76,0
208560,note_on,145,0,1,,,,,,,,,1,,,85,43
208705,note_off,385,0,5,,,,,,,,,5,,,67,0
208715,note_off,155,0,1,,,,,,,,,1,,,85,0
208800,note_on,85,0,1,,,,,,,,,1,,,85,46
209040,note_off,240,0,1,,,,,,,,,1,,,85,0
209040,note_on,0,0,1,,,,,,,,,1,,,76,49
209230,note_off,190,0,1,,,,,,,,,1,,,76,0
209280,note_on,50,0,1,,,,,,,,,1,,,79,53
209520,note_off,240,0,1,,,,,,,,,1,,,79,0
209520,note_on,0,0,1,,,,,,,,,1,,,77,51
209520,note_on,815,0,5,,,,,,,,,5,,,57,51
209710,note_off,190,0,1,,,,,,,,,1,,,77,0
209760,note_on,0,0,5,,,,,,,,,5,,,60,49
209760,note_off,240,0,5,,,,,,,,,5,,,57,0
209760,note_on,50,0,1,,,,,,,,,1,,,77,49
210000,note_off,240,0,5,,,,,,,,,5,,,60,0
210000,note_on,0,0,5,,,,,,,,,5,,,65,48
210240,note_off,240,0,5,,,,,,,,,5,,,65,0
210240,note_on,0,0,5,,,,,,,,,5,,,69,46
210335,note_off,575,0,1,,,,,,,,,1,,,77,0
210480,note_on,145,0,1,,,,,,,,,1,,,78,49
210625,note_off,385,0,5,,,,,,,,,5,,,69,0
210720,note_off,240,0,1,,,,,,,,,1,,,78,0
210720,note_on,0,0,1,,,,,,,,,1,,,79,52
210960,note_on,0,0,1,,,,,,,,,1,,,75,55
210960,note_off,240,0,1,,,,,,,,,1,,,79,0
211150,note_off,190,0,1,,,,,,,,,1,,,75,0
211160,set_tempo,7640,1,0,,,,,,465116,,,,,,,
211200,note_on,50,0,1,,,,,,,,,1,,,73,58
211440,note_on,815,0,5,,,,,,,,,5,,,58,56
211440,note_on,0,0,1,,,,,,,,,1,,,74,56
211440,note_off,240,0,1,,,,,,,,,1,,,73,0
211630,note_off,190,0,1,,,,,,,,,1,,,74,0
211680,note_on,50,0,1,,,,,,,,,1,,,74,54
211680,note_on,0,0,5,,,,,,,,,5,,,62,54
211680,note_off,240,0,5,,,,,,,,,5,,,58,0
211920,note_on,0,0,5,,,,,,,,,5,,,65,51
211920,note_off,240,0,5,,,,,,,,,5,,,62,0
212065,note_off,385,0,1,,,,,,,,,1,,,74,0
212160,note_off,240,0,5,,,,,,,,,5,,,65,0
212160,note_on,0,0,5,,,,,,,,,5,,,70,48
212400,note_on,335,0,1,,,,,,,,,1,,,77,50
212545,note_off,385,0,5,,,,,,,,,5,,,70,0
212590,note_off,190,0,1,,,,,,,,,1,,,77,0
212600,set_tempo,1440,1,0,,,,,,465116,,,,,,,
212640,set_tempo,40,1,0,,,,,,461538,,,,,,,
212640,note_on,50,0,1,,,,,,,,,1,,,79,52
212760,note_on,0,0,1,,,,,,,,,1,,,77,53
212760,note_off,120,0,1,,,,,,,,,1,,,79,0
212880,note_on,0,0,1,,,,,,,,,1,,,75,54
212880,note_off,120,0,1,,,,,,,,,1,,,77,0
213000,note_off,120,0,1,,,,,,,,,1,,,75,0
213000,note_on,0,0,1,,,,,,,,,1,,,74,56
213095,note_off,95,0,1,,,,,,,,,1,,,74,0
213120,note_on,575,0,5,,,,,,,,,5,,,63,59
213120,note_on,25,0,1,,,,,,,,,1,,,72,59
213360,note_on,57455,0,3,,,,,,,,,3,,,65,57
213480,note_off,360,0,5,,,,,,,,,5,,,63,0
213600,note_off,240,0,3,,,,,,,,,3,,,65,0
213600,note_on,120,0,5,,,,,,,,,5,,,63,55
213840,note_on,240,0,3,,,,,,,,,3,,,65,53
213840,note_off,720,0,1,,,,,,,,,1,,,72,0
213840,note_on,0,0,1,,,,,,,,,1,,,69,53
213960,note_off,360,0,5,,,,,,,,,5,,,63,0
214080,note_off,240,0,1,,,,,,,,,1,,,69,0
214080,note_on,120,0,5,,,,,,,,,5,,,62,53
214080,note_on,0,0,1,,,,,,,,,1,,,70,53
214080,note_off,240,0,3,,,,,,,,,3,,,65,0
214175,note_off,95,0,1,,,,,,,,,1,,,70,0
214200,note_on,25,0,1,,,,,,,,,1,,,77,54
214320,note_on,240,0,3,,,,,,,,,3,,,65,55
214320,note_on,0,0,1,,,,,,,,,1,,,76,55
214320,note_off,120,0,1,,,,,,,,,1,,,77,0
214440,note_off,360,0,5,,,,,,,,,5,,,62,0
214440,note_on,0,0,1,,,,,,,,,1,,,77,57
214440,note_off,120,0,1,,,,,,,,,1,,,76,0
214560,note_on,120,0,5,,,,,,,,,5,,,62,58
214560,note_off,120,0,1,,,,,,,,,1,,,77,0
214560,note_on,0,0,1,,,,,,,,,1,,,79,58
214560,note_off,240,0,3,,,,,,,,,3,,,65,0
214680,note_off,120,0,1,,,,,,,,,1,,,79,0
214680,note_on,0,0,1,,,,,,,,,1,,,77,59
214800,note_off,120,0,1,,,,,,,,,1,,,77,0
214800,note_on,0,0,1,,,,,,,,,1,,,75,60
214800,note_on,240,0,3,,,,,,,,,3,,,65,60
214920,note_off,360,0,5,,,,,,,,,5,,,62,0
214920,note_off,120,0,1,,,,,,,,,1,,,75,0
214920,note_on,0,0,1,,,,,,,,,1,,,74,62
214990,note_off,190,0,3,,,,,,,,,3,,,65,0
215015,note_off,95,0,1,,,,,,,,,1,,,74,0
215040,note_on,25,0,1,,,,,,,,,1,,,72,66
215040,note_on,120,0,5,,,,,,,,,5,,,63,65
215230,note_off,190,0,1,,,,,,,,,1,,,72,0
215280,note_on,50,0,1,,,,,,,,,1,,,72,63
215280,note_on,290,0,3,,,,,,,,,3,,,65,63
215400,note_off,360,0,5,,,,,,,,,5,,,63,0
215520,note_on,120,0,5,,,,,,,,,5,,,63,61
215520,note_off,240,0,3,,,,,,,,,3,,,65,0
215520,note_off,240,0,1,,,,,,,,,1,,,72,0
215760,note_on,240,0,1,,,,,,,,,1,,,69,59
215760,note_on,240,0,3,,,,,,,,,3,,,65,59
215880,note_off,360,0,5,,,,,,,,,5,,,63,0
216000,note_off,240,0,1,,,,,,,,,1,,,69,0
216000,note_on,120,0,5,,,,,,,,,5,,,62,61
216000,note_off,240,0,3,,,,,,,,,3,,,65,0
216000,note_on,0,0,1,,,,,,,,,1,,,70,61
216095,note_off,95,0,1,,,,,,,,,1,,,70,0
216120,note_on,25,0,1,,,,,,,,,1,,,77,62
216240,note_on,240,0,3,,,,,,,,,3,,,65,64
216240,note_on,0,0,1,,,,,,,,,1,,,76,64
216240,note_off,120,0,1,,,,,,,,,1,,,77,0
216360,note_off,120,0,1,,,,,,,,,1,,,76,0
216360,note_on,0,0,1,,,,,,,,,1,,,77,65
216360,note_off,360,0,5,,,,,,,,,5,,,62,0
216480,note_off,120,0,1,,,,,,,,,1,,,77,0
216480,note_on,0,0,1,,,,,,,,,1,,,79,67
216480,note_off,240,0,3,,,,,,,,,3,,,65,0
216480,note_on,120,0,5,,,,,,,,,5,,,62,67
216600,note_off,120,0,1,,,,,,,,,1,,,79,0
216600,note_on,0,0,1,,,,,,,,,1,,,77,68
216720,note_on,240,0,3,,,,,,,,,3,,,65,70
216720,note_on,0,0,1,,,,,,,,,1,,,75,70
216720,note_off,120,0,1,,,,,,,,,1,,,77,0
216840,note_on,0,0,1,,,,,,,,,1,,,74,71
216840,note_off,120,0,1,,,,,,,,,1,,,75,0
216840,note_off,360,0,5,,,,,,,,,5,,,62,0
216910,note_off,190,0,3,,,,,,,,,3,,,65,0
216920,set_tempo,4280,1,0,,,,,,465116,,,,,,,
216935,note_off,95,0,1,,,,,,,,,1,,,74,0
216960,note_on,120,0,5,,,,,,,,,5,,,63,73
216960,note_on,25,0,1,,,,,,,,,1,,,74,73
217200,note_on,290,0,3,,,,,,,,,3,,,67,71
217200,note_off,240,0,1,,,,,,,,,1,,,74,0
217200,note_on,0,0,1,,,,,,,,,1,,,72,71
217320,note_off,360,0,5,,,,,,,,,5,,,63,0
217390,note_off,190,0,1,,,,,,,,,1,,,72,0
217440,note_off,240,0,3,,,,,,,,,3,,,67,0
217440,note_on,120,0,5,,,,,,,,,5,,,63,70
217680,note_on,240,0,3,,,,,,,,,3,,,67,69
217680,note_on,290,0,1,,,,,,,,,1,,,72,69
217800,note_off,360,0,5,,,,,,,,,5,,,63,0
217835,note_off,155,0,1,,,,,,,,,1,,,72,0
217870,note_off,190,0,3,,,,,,,,,3,,,67,0
217920,note_on,120,0,5,,,,,,,,,5,,,64,68
217920,note_on,85,0,1,,,,,,,,,1,,,72,68
218160,note_off,240,0,1,,,,,,,,,1,,,72,0
218160,note_on,0,0,1,,,,,,,,,1,,,70,68
218160,note_on,290,0,3,,,,,,,,,3,,,67,68
218280,note_off,360,0,5,,,,,,,,,5,,,64,0
218350,note_off,190,0,1,,,,,,,,,1,,,70,0
218400,note_on,120,0,5,,,,,,,,,5,,,64,67
218400,note_off,240,0,3,,,,,,,,,3,,,67,0
218640,note_on,240,0,3,,,,,,,,,3,,,67,66
218640,note_on,290,0,1,,,,,,,,,1,,,70,66
218760,note_off,360,0,5,,,,,,,,,5,,,64,0
218795,note_off,155,0,1,,,,,,,,,1,,,70,0
218830,note_off,190,0,3,,,,,,,,,3,,,67,0
218840,set_tempo,1920,1,0,,,,,,472440,,,,,,,
218880,note_on,85,0,1,,,,,,,,,1,,,69,65
218880,set_tempo,40,1,0,,,,,,461538,,,,,,,
218880,note_on,120,0,5,,,,,,,,,5,,,53,65
219000,note_on,0,0,1,,,,,,,,,1,,,70,66
219000,note_off,120,0,1,,,,,,,,,1,,,69,0
219120,note_off,120,0,1,,,,,,,,,1,,,70,0
219120,note_on,0,0,1,,,,,,,,,1,,,69,68
219240,note_off,120,0,1,,,,,,,,,1,,,69,0
219240,note_on,0,0,1,,,,,,,,,1,,,65,69
219360,note_on,0,0,5,,,,,,,,,5,,,55,70
219360,note_off,120,0,1,,,,,,,,,1,,,65,0
219360,note_on,0,0,1,,,,,,,,,1,,,70,70
219360,note_off,480,0,5,,,,,,,,,5,,,53,0
219480,note_off,120,0,1,,,,,,,,,1,,,70,0
219480,note_on,0,0,1,,,,,,,,,1,,,72,71
219600,note_on,0,0,1,,,,,,,,,1,,,70,72
219600,note_off,120,0,1,,,,,,,,,1,,,72,0
219720,note_on,0,0,1,,,,,,,,,1,,,65,73
219720,note_off,120,0,1,,,,,,,,,1,,,70,0
219840,note_off,480,0,5,,,,,,,,,5,,,55,0
219840,note_on,0,0,5,,,,,,,,,5,,,57,75
219840,note_on,0,0,1,,,,,,,,,1,,,72,75
219840,note_off,120,0,1,,,,,,,,,1,,,65,0
219960,note_off,120,0,1,,,,,,,,,1,,,72,0
219960,note_on,0,0,1,,,,,,,,,1,,,74,76
220080,note_off,120,0,1,,,,,,,,,1,,,74,0
220080,note_on,0,0,1,,,,,,,,,1,,,72,77
220200,note_on,0,0,1,,,,,,,,,1,,,65,78
220200,note_off,120,0,1,,,,,,,,,1,,,72,0
220320,note_on,0,0,5,,,,,,,,,5,,,58,79
220320,note_off,480,0,5,,,,,,,,,5,,,57,0
220320,note_off,120,0,1,,,,,,,,,1,,,65,0
220320,note_on,0,0,1,,,,,,,,,1,,,74,79
220440,note_on,0,0,1,,,,,,,,,1,,,75,81
220440,note_off,120,0,1,,,,,,,,,1,,,74,0
220560,note_on,0,0,1,,,,,,,,,1,,,74,82
220560,note_off,120,0,1,,,,,,,,,1,,,75,0
220680,note_off,120,0,1,,,,,,,,,1,,,74,0
220680,note_on,0,0,1,,,,,,,,,1,,,65,83
220705,note_off,385,0,5,,,,,,,,,5,,,58,0
220760,set_tempo,1880,1,0,,,,,,465116,,,,,,,
220775,note_off,95,0,1,,,,,,,,,1,,,65,0
220800,note_on,25,0,1,,,,,,,,,1,,,75,84
220800,note_on,95,0,5,,,,,,,,,5,,,60,84
220920,note_off,120,0,1,,,,,,,,,1,,,75,0
221040,note_on,2210,0,3,,,,,,,,,3,,,65,83
221040,note_on,120,0,1,,,,,,,,,1,,,75,83
221160,note_off,360,0,5,,,,,,,,,5,,,60,0
221160,note_off,120,0,1,,,,,,,,,1,,,75,0
221280,note_off,240,0,3,,,,,,,,,3,,,65,0
221280,note_on,120,0,5,,,,,,,,,5,,,57,80
221520,note_on,240,0,3,,,,,,,,,3,,,65,78
221520,note_on,360,0,1,,,,,,,,,1,,,72,78
221640,note_off,360,0,5,,,,,,,,,5,,,57,0
221675,note_off,155,0,1,,,,,,,,,1,,,72,0
221710,note_off,190,0,3,,,,,,,,,3,,,65,0
221760,note_on,85,0,1,,,,,,,,,1,,,75,76
221760,note_on,120,0,5,,,,,,,,,5,,,58,76
222000,note_on,290,0,3,,,,,,,,,3,,,65,74
222000,note_off,240,0,1,,,,,,,,,1,,,75,0
222000,note_on,0,0,1,,,,,,,,,1,,,74,74
222120,note_off,360,0,5,,,,,,,,,5,,,58,0
222240,note_off,240,0,3,,,,,,,,,3,,,65,0
222240,note_on,120,0,5,,,,,,,,,5,,,55,71
222240,note_on,0,0,1,,,,,,,,,1,,,72,71
222240,note_off,240,0,1,,,,,,,,,1,,,74,0
222480,note_on,240,0,3,,,,,,,,,3,,,65,69
222480,note_on,0,0,1,,,,,,,,,1,,,70,69
222480,note_off,240,0,1,,,,,,,,,1,,,72,0
222600,note_off,360,0,5,,,,,,,,,5,,,55,0
222670,note_off,190,0,3,,,,,,,,,3,,,65,0
222670,note_off,190,0,1,,,,,,,,,1,,,70,0
222680,set_tempo,1920,1,0,,,,,,472440,,,,,,,
222720,note_on,50,0,1,,,,,,,,,1,,,69,69
222720,set_tempo,40,1,0,,,,,,461538,,,,,,,
222720,note_on,120,0,5,,,,,,,,,5,,,53,69
222815,note_off,95,0,1,,,,,,,,,1,,,69,0
222840,note_on,25,0,1,,,,,,,,,1,,,65,71
222935,note_off,95,0,1,,,,,,,,,1,,,65,0
222960,note_on,25,0,1,,,,,,,,,1,,,76,72
223055,note_off,95,0,1,,,,,,,,,1,,,76,0
223080,note_on,25,0,1,,,,,,,,,1,,,77,73
223175,note_off,95,0,1,,,,,,,,,1,,,77,0
223200,note_off,480,0,5,,,,,,,,,5,,,53,0
223200,note_on,25,0,1,,,,,,,,,1,,,70,75
223200,note_on,0,0,5,,,,,,,,,5,,,55,75
223295,note_off,95,0,1,,,,,,,,,1,,,70,0
223320,note_on,25,0,1,,,,,,,,,1,,,65,76
223415,note_off,95,0,1,,,,,,,,,1,,,65,0
223440,note_on,25,0,1,,,,,,,,,1,,,76,78
223535,note_off,95,0,1,,,,,,,,,1,,,76,0
223560,note_on,25,0,1,,,,,,,,,1,,,77,79
223655,note_off,95,0,1,,,,,,,,,1,,,77,0
223680,note_on,25,0,1,,,,,,,,,1,,,72,81
223680,note_on,0,0,5,,,,,,,,,5,,,57,81
223680,note_off,480,0,5,,,,,,,,,5,,,55,0
223775,note_off,95,0,1,,,,,,,,,1,,,72,0
223800,note_on,25,0,1,,,,,,,,,1,,,65,82
223895,note_off,95,0,1,,,,,,,,,1,,,65,0
223920,note_on,25,0,1,,,,,,,,,1,,,76,84
224015,note_off,95,0,1,,,,,,,,,1,,,76,0
224040,note_on,25,0,1,,,,,,,,,1,,,77,85
224135,note_off,95,0,1,,,,,,,,,1,,,77,0
224160,note_on,0,0,5,,,,,,,,,5,,,58,87
224160,note_on,25,0,1,,,,,,,,,1,,,74,87
224160,note_off,480,0,5,,,,,,,,,5,,,57,0
224255,note_off,95,0,1,,,,,,,,,1,,,74,0
224280,note_on,25,0,1,,,,,,,,,1,,,65,88
224375,note_off,95,0,1,,,,,,,,,1,,,65,0
224400,note_on,25,0,1,,,,,,,,,1,,,76,90
224495,note_off,95,0,1,,,,,,,,,1,,,76,0
224520,note_on,25,0,1,,,,,,,,,1,,,77,91
224545,note_off,385,0,5,,,,,,,,,5,,,58,0
224600,set_tempo,1880,1,0,,,,,,465116,,,,,,,
224640,note_on,95,0,5,,,,,,,,,5,,,60,93
224640,note_off,120,0,1,,,,,,,,,1,,,77,0
224640,note_on,0,0,1,,,,,,,,,1,,,75,93
224760,note_on,2090,0,3,,,,,,,,,3,,,65,93
224795,note_off,155,0,1,,,,,,,,,1,,,75,0
224855,note_off,95,0,3,,,,,,,,,3,,,65,0
224880,note_on,25,0,3,,,,,,,,,3,,,64,92
224880,note_on,85,0,1,,,,,,,,,1,,,75,92
224975,note_off,95,0,3,,,,,,,,,3,,,64,0
225000,note_on,25,0,3,,,,,,,,,3,,,65,91
225000,note_off,360,0,5,,,,,,,,,5,,,60,0
225035,note_off,155,0,1,,,,,,,,,1,,,75,0
225095,note_off,95,0,3,,,,,,,,,3,,,65,0
225120,note_on,120,0,5,,,,,,,,,5,,,57,90
225240,note_on,145,0,3,,,,,,,,,3,,,65,90
225335,note_off,95,0,3,,,,,,,,,3,,,65,0
225360,note_on,325,0,1,,,,,,,,,1,,,72,89
225360,note_on,25,0,3,,,,,,,,,3,,,64,89
225400,note_off,40,0,1,,,,,,,,,1,,,72,0
225400,note_on,0,0,1,,,,,,,,,1,,,74,89
225440,note_on,0,0,1,,,,,,,,,1,,,72,88
225440,note_off,40,0,1,,,,,,,,,1,,,74,0
225455,note_off,95,0,3,,,,,,,,,3,,,64,0
225480,note_on,25,0,3,,,,,,,,,3,,,65,88
225480,note_on,0,0,1,,,,,,,,,1,,,71,88
225480,note_off,360,0,5,,,,,,,,,5,,,57,0
225480,note_off,40,0,1,,,,,,,,,1,,,72,0
225540,note_off,60,0,1,,,,,,,,,1,,,71,0
225540,note_on,0,0,1,,,,,,,,,1,,,72,88
225575,note_off,95,0,3,,,,,,,,,3,,,65,0
225600,note_on,0,0,1,,,,,,,,,1,,,75,87
225600,note_off,60,0,1,,,,,,,,,1,,,72,0
225600,note_on,120,0,5,,,,,,,,,5,,,58,87
225720,note_on,145,0,3,,,,,,,,,3,,,65,86
225815,note_off,95,0,3,,,,,,,,,3,,,65,0
225840,note_off,240,0,1,,,,,,,,,1,,,75,0
225840,note_on,0,0,1,,,,,,,,,1,,,74,85
225840,note_on,25,0,3,,,,,,,,,3,,,64,85
225935,note_off,95,0,3,,,,,,,,,3,,,64,0
225960,note_off,360,0,5,,,,,,,,,5,,,58,0
225960,note_on,25,0,3,,,,,,,,,3,,,65,85
225995,note_off,155,0,1,,,,,,,,,1,,,74,0
226055,note_off,95,0,3,,,,,,,,,3,,,65,0
226080,note_on,85,0,1,,,,,,,,,1,,,72,84
226080,note_on,120,0,5,,,,,,,,,5,,,55,84
226200,note_on,145,0,3,,,,,,,,,3,,,64,83
226235,note_off,155,0,1,,,,,,,,,1,,,72,0
226295,note_off,95,0,3,,,,,,,,,3,,,64,0
226320,note_on,25,0,3,,,,,,,,,3,,,62,82
226320,note_on,85,0,1,,,,,,,,,1,,,70,82
226415,note_off,95,0,3,,,,,,,,,3,,,62,0
226440,note_on,25,0,3,,,,,,,,,3,,,64,81
226440,note_off,360,0,5,,,,,,,,,5,,,55,0
226475,note_off,155,0,1,,,,,,,,,1,,,70,0
226520,set_tempo,1920,1,0,,,,,,472440,,,,,,,
226535,note_off,95,0,3,,,,,,,,,3,,,64,0
226560,note_on,120,0,5,,,,,,,,,5,,,53,81
226560,note_on,0,0,5,,,,,,,,,5,,,65,81
226560,note_on,85,0,1,,,,,,,,,1,,,69,81
226655,note_off,95,0,1,,,,,,,,,1,,,69,0
226680,note_on,25,0,1,,,,,,,,,1,,,77,78
226775,note_off,95,0,1,,,,,,,,,1,,,77,0
226800,note_on,25,0,1,,,,,,,,,1,,,72,76
226895,note_off,95,0,1,,,,,,,,,1,,,72,0
226920,note_on,25,0,1,,,,,,,,,1,,,69,74
226945,note_off,385,0,5,,,,,,,,,5,,,65,0
226945,note_off,0,0,5,,,,,,,,,5,,,53,0
227015,note_off,95,0,1,,,,,,,,,1,,,69,0
227040,note_on,25,0,1,,,,,,,,,1,,,65,72
227135,note_off,95,0,1,,,,,,,,,1,,,65,0
227160,note_on,25,0,1,,,,,,,,,1,,,60,70
227255,note_off,95,0,1,,,,,,,,,1,,,60,0
227280,note_on,25,0,1,,,,,,,,,1,,,57,67
227375,note_off,95,0,1,,,,,,,,,1,,,57,0
227400,note_on,25,0,1,,,,,,,,,1,,,53,65
227495,note_off,95,0,1,,,,,,,,,1,,,53,0
227520,note_on,0,0,5,,,,,,,,,5,,,41,63
227520,note_on,575,0,5,,,,,,,,,5,,,29,63
227905,note_off,385,0,5,,,,,,,,,5,,,41,0
227905,note_off,0,0,5,,,,,,,,,5,,,29,0
227985,set_tempo,1465,1,0,,,,,,600000,,,,,,,
228480,note_on,0,0,2,,,,,,,,,2,,,53,68
228480,note_on,0,0,2,,,,,,,,,2,,,62,68
228480,note_on,30835,0,2,,,,,,,,,2,,,58,68
228480,set_tempo,495,1,0,,,,,,461538,,,,,,,
228480,note_on,985,0,1,,,,,,,,,1,,,65,68
228480,note_on,575,0,5,,,,,,,,,5,,,34,68
228480,note_on,0,0,5,,,,,,,,,5,,,46,68
229055,note_off,575,0,2,,,,,,,,,2,,,53,0
229055,note_off,0,0,2,,,,,,,,,2,,,58,0
229055,note_off,0,0,2,,,,,,,,,2,,,62,0
229055,note_off,575,0,1,,,,,,,,,1,,,65,0
229200,set_tempo,720,1,0,,,,,,461538,,,,,,,
229200,note_on,145,0,1,,,,,,,,,1,,,67,61
229250,note_off,0,0,5,,,,,,,,,5,,,34,0
229250,note_off,770,0,5,,,,,,,,,5,,,46,0
229320,note_on,0,0,1,,,,,,,,,1,,,65,60
229320,note_off,120,0,1,,,,,,,,,1,,,67,0
229415,note_off,95,0,1,,,,,,,,,1,,,65,0
229440,note_on,25,0,1,,,,,,,,,1,,,63,59
229595,note_off,155,0,1,,,,,,,,,1,,,63,0
229680,note_on,85,0,1,,,,,,,,,1,,,62,57
229835,note_off,155,0,1,,,,,,,,,1,,,62,0
229920,note_on,85,0,1,,,,,,,,,1,,,60,55
230075,note_off,155,0,1,,,,,,,,,1,,,60,0
230160,note_on,85,0,1,,,,,,,,,1,,,58,53
230315,note_off,155,0,1,,,,,,,,,1,,,58,0
230400,note_on,85,0,1,,,,,,,,,1,,,58,53
230640,note_on,0,0,1,,,,,,,,,1,,,67,55
230640,note_off,240,0,1,,,,,,,,,1,,,58,0
230830,note_off,190,0,1,,,,,,,,,1,,,67,0
230840,set_tempo,1640,1,0,,,,,,465116,,,,,,,
230880,note_on,1630,0,5,,,,,,,,,5,,,51,58
230880,set_tempo,40,1,0,,,,,,461538,,,,,,,
230880,note_on,0,0,5,,,,,,,,,5,,,39,58
230880,note_on,1825,0,2,,,,,,,,,2,,,58,58
230880,note_on,50,0,1,,,,,,,,,1,,,67,58
231600,note_off,720,0,2,,,,,,,,,2,,,58,0
231600,note_off,720,0,1,,,,,,,,,1,,,67,0
231600,note_on,0,0,1,,,,,,,,,1,,,65,54
231790,note_off,190,0,1,,,,,,,,,1,,,65,0
231840,note_on,0,0,5,,,,,,,,,5,,,50,57
231840,note_on,50,0,1,,,,,,,,,1,,,69,57
231840,note_off,960,0,5,,,,,,,,,5,,,39,0
231840,note_off,0,0,5,,,,,,,,,5,,,51,0
232080,note_on,0,0,1,,,,,,,,,1,,,70,59
232080,note_off,240,0,1,,,,,,,,,1,,,69,0
232225,note_off,385,0,5,,,,,,,,,5,,,50,0
232270,note_off,190,0,1,,,,,,,,,1,,,70,0
232280,set_tempo,1400,1,0,,,,,,465116,,,,,,,
232320,note_on,50,0,1,,,,,,,,,1,,,70,63
232320,note_on,25010,0,4,,,,,,,,,4,,,55,61
232320,set_tempo,40,1,0,,,,,,461538,,,,,,,
232320,note_on,95,0,5,,,,,,,,,5,,,52,61
232560,note_off,240,0,1,,,,,,,,,1,,,70,0
232560,note_on,0,0,1,,,,,,,,,1,,,60,59
232800,note_off,480,0,5,,,,,,,,,5,,,52,0
232800,note_on,0,0,5,,,,,,,,,5,,,53,57
232800,note_off,480,0,4,,,,,,,,,4,,,55,0
233040,note_on,0,0,1,,,,,,,,,1,,,62,55
233040,note_off,480,0,1,,,,,,,,,1,,,60,0
233185,note_off,385,0,5,,,,,,,,,5,,,53,0
233230,note_off,190,0,1,,,,,,,,,1,,,62,0
233280,note_on,95,0,5,,,,,,,,,5,,,52,59
233280,note_on,50,0,1,,,,,,,,,1,,,70,59
233280,note_on,480,0,4,,,,,,,,,4,,,55,59
233520,note_on,0,0,1,,,,,,,,,1,,,60,58
233520,note_off,240,0,1,,,,,,,,,1,,,70,0
233760,note_off,480,0,4,,,,,,,,,4,,,55,0
233760,note_off,480,0,5,,,,,,,,,5,,,52,0
233760,note_on,0,0,5,,,,,,,,,5,,,53,54
234000,note_on,0,0,1,,,,,,,,,1,,,62,55
234000,note_off,480,0,1,,,,,,,,,1,,,60,0
234145,note_off,385,0,5,,,,,,,,,5,,,53,0
234190,note_off,190,0,1,,,,,,,,,1,,,62,0
234200,set_tempo,1880,1,0,,,,,,465116,,,,,,,
234240,note_on,95,0,5,,,,,,,,,5,,,55,57
234240,note_on,50,0,1,,,,,,,,,1,,,65,56
234720,note_on,0,0,5,,,,,,,,,5,,,57,50
234720,note_off,480,0,5,,,,,,,,,5,,,55,0
234720,note_off,480,0,1,,,,,,,,,1,,,65,0
234720,note_on,0,0,1,,,,,,,,,1,,,63,50
234800,note_off,80,0,1,,,,,,,,,1,,,63,0
234800,note_on,0,0,1,,,,,,,,,1,,,65,49
234880,note_off,80,0,1,,,,,,,,,1,,,65,0
234880,note_on,0,0,1,,,,,,,,,1,,,63,48
234960,note_on,0,0,1,,,,,,,,,1,,,65,47
234960,note_off,80,0,1,,,,,,,,,1,,,63,0
235020,note_off,60,0,1,,,,,,,,,1,,,65,0
235020,note_on,0,0,1,,,,,,,,,1,,,63,46
235080,note_on,0,0,1,,,,,,,,,1,,,62,46
235080,note_off,60,0,1,,,,,,,,,1,,,63,0
235140,note_on,0,0,1,,,,,,,,,1,,,63,45
235140,note_off,60,0,1,,,,,,,,,1,,,62,0
235200,note_on,0,0,1,,,,,,,,,1,,,62,44
235200,note_on,0,0,5,,,,,,,,,5,,,58,44
235200,note_off,60,0,1,,,,,,,,,1,,,63,0
235200,note_off,480,0,5,,,,,,,,,5,,,57,0
235390,note_off,190,0,1,,,,,,,,,1,,,62,0
235440,note_on,50,0,1,,,,,,,,,1,,,62,46
235585,note_off,385,0,5,,,,,,,,,5,,,58,0
235680,note_off,240,0,1,,,,,,,,,1,,,62,0
235680,note_on,0,0,1,,,,,,,,,1,,,63,49
235920,note_off,240,0,1,,,,,,,,,1,,,63,0
235920,note_on,0,0,1,,,,,,,,,1,,,65,52
236110,note_off,190,0,1,,,,,,,,,1,,,65,0
236120,set_tempo,1920,1,0,,,,,,472440,,,,,,,
236160,set_tempo,40,1,0,,,,,,461538,,,,,,,
236160,note_on,50,0,1,,,,,,,,,1,,,66,56
236400,note_on,240,0,1,,,,,,,,,1,,,67,60
236400,note_on,815,0,5,,,,,,,,,5,,,39,60
236415,note_off,15,0,1,,,,,,,,,1,,,66,0
236640,note_on,0,0,5,,,,,,,,,5,,,43,56
236640,note_off,240,0,5,,,,,,,,,5,,,39,0
236880,note_on,0,0,5,,,,,,,,,5,,,48,52
236880,note_off,240,0,5,,,,,,,,,5,,,43,0
236880,note_on,0,0,1,,,,,,,,,1,,,65,52
236880,note_off,465,0,1,,,,,,,,,1,,,67,0
237000,note_on,0,0,1,,,,,,,,,1,,,63,51
237000,note_off,120,0,1,,,,,,,,,1,,,65,0
237120,note_off,120,0,1,,,,,,,,,1,,,63,0
237120,note_on,0,0,1,,,,,,,,,1,,,62,51
237120,note_off,240,0,5,,,,,,,,,5,,,48,0
237120,note_on,0,0,5,,,,,,,,,5,,,51,51
237360,note_off,240,0,1,,,,,,,,,1,,,62,0
237360,note_on,0,0,1,,,,,,,,,1,,,60,52
237505,note_off,385,0,5,,,,,,,,,5,,,51,0
237600,note_off,240,0,1,,,,,,,,,1,,,60,0
237600,note_on,0,0,1,,,,,,,,,1,,,62,55
237840,note_on,0,0,1,,,,,,,,,1,,,63,57
237840,note_off,240,0,1,,,,,,,,,1,,,62,0
238030,note_off,190,0,1,,,,,,,,,1,,,63,0
238040,set_tempo,1880,1,0,,,,,,465116,,,,,,,
238080,set_tempo,40,1,0,,,,,,461538,,,,,,,
238080,note_on,50,0,1,,,,,,,,,1,,,67,60
238320,note_on,0,0,1,,,,,,,,,1,,,65,64
238320,note_on,815,0,5,,,,,,,,,5,,,38,64
238320,note_off,240,0,1,,,,,,,,,1,,,67,0
238560,note_on,0,0,5,,,,,,,,,5,,,41,61
238560,note_off,240,0,5,,,,,,,,,5,,,38,0
238800,note_on,480,0,1,,,,,,,,,1,,,63,57
238800,note_on,0,0,5,,,,,,,,,5,,,46,57
238800,note_off,240,0,5,,,,,,,,,5,,,41,0
238820,note_off,20,0,1,,,,,,,,,1,,,65,0
238920,note_on,0,0,1,,,,,,,,,1,,,62,55
238920,note_off,100,0,1,,,,,,,,,1,,,63,0
239040,note_off,120,0,1,,,,,,,,,1,,,62,0
239040,note_on,0,0,1,,,,,,,,,1,,,60,54
239040,note_off,240,0,5,,,,,,,,,5,,,46,0
239040,note_on,0,0,5,,,,,,,,,5,,,50,54
239280,note_on,0,0,1,,,,,,,,,1,,,58,55
239280,note_off,240,0,1,,,,,,,,,1,,,60,0
239425,note_off,385,0,5,,,,,,,,,5,,,50,0
239520,note_off,240,0,1,,,,,,,,,1,,,58,0
239520,note_on,0,0,1,,,,,,,,,1,,,60,58
239760,note_on,0,0,1,,,,,,,,,1,,,62,62
239760,note_off,240,0,1,,,,,,,,,1,,,60,0
239950,note_off,190,0,1,,,,,,,,,1,,,62,0
239960,set_tempo,1880,1,0,,,,,,465116,,,,,,,
240000,note_on,50,0,1,,,,,,,,,1,,,65,69
240000,note_on,575,0,5,,,,,,,,,5,,,48,69
240000,set_tempo,40,1,0,,,,,,461538,,,,,,,
240240,note_off,240,0,1,,,,,,,,,1,,,65,0
240240,note_on,0,0,1,,,,,,,,,1,,,63,68
240385,note_off,385,0,5,,,,,,,,,5,,,48,0
240480,note_on,95,0,5,,,,,,,,,5,,,45,66
240695,note_off,455,0,1,,,,,,,,,1,,,63,0
240720,note_on,25,0,1,,,,,,,,,1,,,60,65
240865,note_off,385,0,5,,,,,,,,,5,,,45,0
240910,note_off,190,0,1,,,,,,,,,1,,,60,0
240960,note_on,50,0,1,,,,,,,,,1,,,63,63
240960,note_on,95,0,5,,,,,,,,,5,,,46,63
241200,note_on,0,0,1,,,,,,,,,1,,,62,62
241200,note_off,240,0,1,,,,,,,,,1,,,63,0
241345,note_off,385,0,5,,,,,,,,,5,,,46,0
241440,note_on,95,0,5,,,,,,,,,5,,,43,60
241585,note_off,385,0,1,,,,,,,,,1,,,62,0
241680,note_on,95,0,1,,,,,,,,,1,,,58,59
241825,note_off,385,0,5,,,,,,,,,5,,,43,0
241870,note_off,190,0,1,,,,,,,,,1,,,58,0
241880,set_tempo,1880,1,0,,,,,,465116,,,,,,,
241920,note_on,95,0,5,,,,,,,,,5,,,41,57
241920,note_on,50,0,1,,,,,,,,,1,,,57,57
242040,note_off,120,0,1,,,,,,,,,1,,,57,0
242040,note_on,0,0,1,,,,,,,,,1,,,58,56
242160,note_off,120,0,1,,,,,,,,,1,,,58,0
242160,note_on,0,0,1,,,,,,,,,1,,,59,56
242280,note_off,120,0,1,,,,,,,,,1,,,59,0
242280,note_on,0,0,1,,,,,,,,,1,,,60,55
242305,note_off,385,0,5,,,,,,,,,5,,,41,0
242400,note_on,0,0,1,,,,,,,,,1,,,61,54
242400,note_off,120,0,1,,,,,,,,,1,,,60,0
242520,note_on,0,0,1,,,,,,,,,1,,,62,53
242520,note_off,120,0,1,,,,,,,,,1,,,61,0
242640,note_off,120,0,1,,,,,,,,,1,,,62,0
242640,note_on,0,0,1,,,,,,,,,1,,,63,53
242760,note_off,120,0,1,,,,,,,,,1,,,63,0
242760,note_on,0,0,1,,,,,,,,,1,,,64,52
242880,note_on,575,0,5,,,,,,,,,5,,,53,51
242880,note_off,120,0,1,,,,,,,,,1,,,64,0
242880,note_on,0,0,1,,,,,,,,,1,,,65,51
243000,note_on,9240,0,4,,,,,,,,,4,,,55,50
243060,note_off,180,0,5,,,,,,,,,5,,,53,0
243120,note_on,60,0,5,,,,,,,,,5,,,51,50
243120,note_off,120,0,4,,,,,,,,,4,,,55,0
243240,note_on,120,0,4,,,,,,,,,4,,,53,49
243300,note_off,180,0,5,,,,,,,,,5,,,51,0
243360,note_off,480,0,1,,,,,,,,,1,,,65,0
243360,note_off,120,0,4,,,,,,,,,4,,,53,0
243360,note_on,60,0,5,,,,,,,,,5,,,50,48
243480,note_on,120,0,4,,,,,,,,,4,,,51,47
243540,note_off,180,0,5,,,,,,,,,5,,,50,0
243600,note_off,120,0,4,,,,,,,,,4,,,51,0
243600,note_on,60,0,5,,,,,,,,,5,,,48,47
243720,set_tempo,1840,1,0,,,,,,472440,,,,,,,
243720,note_on,120,0,4,,,,,,,,,4,,,50,46
243780,note_off,180,0,5,,,,,,,,,5,,,48,0
243815,note_off,95,0,4,,,,,,,,,4,,,50,0
243840,note_on,480,0,1,,,,,,,,,1,,,77,68
243840,note_on,60,0,5,,,,,,,,,5,,,46,68
243840,set_tempo,120,1,0,,,,,,461538,,,,,,,
243840,note_on,12240,0,2,,,,,,,,,2,,,70,68
243840,note_on,0,0,2,,,,,,,,,2,,,65,68
243840,note_on,0,0,2,,,,,,,,,2,,,74,68
244225,note_off,385,0,5,,,,,,,,,5,,,46,0
244320,note_on,95,0,5,,,,,,,,,5,,,58,61
244415,note_off,0,0,2,,,,,,,,,2,,,70,0
244415,note_off,0,0,2,,,,,,,,,2,,,65,0
244415,note_off,575,0,2,,,,,,,,,2,,,74,0
244415,note_off,575,0,1,,,,,,,,,1,,,77,0
244560,note_on,145,0,1,,,,,,,,,1,,,79,60
244680,note_off,120,0,1,,,,,,,,,1,,,79,0
244680,note_on,0,0,1,,,,,,,,,1,,,77,60
244705,note_off,385,0,5,,,,,,,,,5,,,58,0
244775,note_off,95,0,1,,,,,,,,,1,,,77,0
244800,note_on,25,0,1,,,,,,,,,1,,,75,59
244955,note_off,155,0,1,,,,,,,,,1,,,75,0
245040,note_on,85,0,1,,,,,,,,,1,,,74,58
245195,note_off,155,0,1,,,,,,,,,1,,,74,0
245280,note_on,85,0,1,,,,,,,,,1,,,72,57
245435,note_off,155,0,1,,,,,,,,,1,,,72,0
245520,note_on,85,0,1,,,,,,,,,1,,,70,56
245675,note_off,155,0,1,,,,,,,,,1,,,70,0
245760,note_on,85,0,1,,,,,,,,,1,,,70,53
246000,note_off,240,0,1,,,,,,,,,1,,,70,0
246000,note_on,0,0,1,,,,,,,,,1,,,79,55
246190,note_off,190,0,1,,,,,,,,,1,,,79,0
246200,set_tempo,2360,1,0,,,,,,465116,,,,,,,
246240,note_on,50,0,1,,,,,,,,,1,,,79,58
246240,note_on,1825,0,2,,,,,,,,,2,,,70,58
246240,set_tempo,40,1,0,,,,,,461538,,,,,,,
246240,note_on,1535,0,5,,,,,,,,,5,,,51,58
246240,note_on,0,0,5,,,,,,,,,5,,,63,58
246960,note_on,0,0,1,,,,,,,,,1,,,77,53
246960,note_off,720,0,1,,,,,,,,,1,,,79,0
246960,note_off,720,0,2,,,,,,,,,2,,,70,0
247150,note_off,190,0,1,,,,,,,,,1,,,77,0
247200,note_on,0,0,5,,,,,,,,,5,,,62,57
247200,note_on,50,0,1,,,,,,,,,1,,,81,57
247200,note_off,960,0,5,,,,,,,,,5,,,63,0
247200,note_off,0,0,5,,,,,,,,,5,,,51,0
247440,note_off,240,0,1,,,,,,,,,1,,,81,0
247440,note_on,0,0,1,,,,,,,,,1,,,82,61
247585,note_off,385,0,5,,,,,,,,,5,,,62,0
247640,set_tempo,1400,1,0,,,,,,465116,,,,,,,
247680,set_tempo,40,1,0,,,,,,461538,,,,,,,
247680,note_on,95,0,5,,,,,,,,,5,,,64,69
247680,note_on,3865,0,4,,,,,,,,,4,,,67,69
247820,note_off,380,0,1,,,,,,,,,1,,,82,0
247920,note_on,100,0,1,,,,,,,,,1,,,72,67
248160,note_on,0,0,5,,,,,,,,,5,,,65,63
248160,note_off,480,0,5,,,,,,,,,5,,,64,0
248160,note_off,480,0,4,,,,,,,,,4,,,67,0
248160,note_on,0,0,1,,,,,,,,,1,,,74,65
248160,note_off,240,0,1,,,,,,,,,1,,,72,0
248350,note_off,190,0,1,,,,,,,,,1,,,74,0
248400,note_on,50,0,1,,,,,,,,,1,,,82,63
248545,note_off,385,0,5,,,,,,,,,5,,,65,0
248640,note_on,480,0,4,,,,,,,,,4,,,67,62
248640,note_on,95,0,5,,,,,,,,,5,,,64,62
248780,note_off,380,0,1,,,,,,,,,1,,,82,0
248880,note_on,100,0,1,,,,,,,,,1,,,72,60
249120,note_off,480,0,4,,,,,,,,,4,,,67,0
249120,note_on,0,0,5,,,,,,,,,5,,,65,58
249120,note_off,480,0,5,,,,,,,,,5,,,64,0
249120,note_on,0,0,1,,,,,,,,,1,,,74,58
249120,note_off,240,0,1,,,,,,,,,1,,,72,0
249310,note_off,190,0,1,,,,,,,,,1,,,74,0
249360,note_on,50,0,1,,,,,,,,,1,,,82,56
249505,note_off,385,0,5,,,,,,,,,5,,,65,0
249515,note_off,155,0,1,,,,,,,,,1,,,82,0
249560,set_tempo,1880,1,0,,,,,,465116,,,,,,,
249600,note_on,95,0,5,,,,,,,,,5,,,67,63
249600,note_on,85,0,1,,,,,,,,,1,,,77,63
249600,note_on,480,0,4,,,,,,,,,4,,,70,63
250080,note_on,0,0,1,,,,,,,,,1,,,76,60
250080,note_off,480,0,1,,,,,,,,,1,,,77,0
250080,note_on,0,0,5,,,,,,,,,5,,,69,60
250080,note_off,480,0,4,,,,,,,,,4,,,70,0
250080,note_off,480,0,5,,,,,,,,,5,,,67,0
250080,note_on,0,0,4,,,,,,,,,4,,,72,60
250320,note_off,240,0,1,,,,,,,,,1,,,76,0
250320,note_on,0,0,1,,,,,,,,,1,,,75,59
250560,note_off,240,0,1,,,,,,,,,1,,,75,0
250560,note_off,480,0,5,,,,,,,,,5,,,69,0
250560,note_on,0,0,1,,,,,,,,,1,,,74,58
250560,note_on,0,0,5,,,,,,,,,5,,,70,58
250560,note_off,480,0,4,,,,,,,,,4,,,72,0
250750,note_off,190,0,1,,,,,,,,,1,,,74,0
250800,note_on,50,0,1,,,,,,,,,1,,,74,57
250945,note_off,385,0,5,,,,,,,,,5,,,70,0
251040,note_on,0,0,1,,,,,,,,,1,,,75,55
251040,note_off,240,0,1,,,,,,,,,1,,,74,0
251280,note_off,240,0,1,,,,,,,,,1,,,75,0
251280,note_on,0,0,1,,,,,,,,,1,,,77,54
251470,note_off,190,0,1,,,,,,,,,1,,,77,0
251480,set_tempo,1920,1,0,,,,,,472440,,,,,,,
251520,set_tempo,40,1,0,,,,,,461538,,,,,,,
251520,note_on,50,0,1,,,,,,,,,1,,,78,56
251640,note_on,120,0,1,,,,,,,,,1,,,79,57
251660,note_off,20,0,1,,,,,,,,,1,,,78,0
251760,note_on,815,0,5,,,,,,,,,5,,,55,58
252000,note_off,240,0,5,,,,,,,,,5,,,55,0
252000,note_on,0,0,5,,,,,,,,,5,,,67,59
252155,note_off,155,0,5,,,,,,,,,5,,,67,0
252240,note_on,580,0,1,,,,,,,,,1,,,81,61
252240,note_on,85,0,5,,,,,,,,,5,,,65,61
252245,note_off,5,0,1,,,,,,,,,1,,,79,0
252360,note_on,0,0,1,,,,,,,,,1,,,83,61
252360,note_off,115,0,1,,,,,,,,,1,,,81,0
252395,note_off,155,0,5,,,,,,,,,5,,,65,0
252480,note_on,0,0,1,,,,,,,,,1,,,84,62
252480,note_off,120,0,1,,,,,,,,,1,,,83,0
252480,note_on,85,0,5,,,,,,,,,5,,,63,62
252600,note_off,120,0,1,,,,,,,,,1,,,84,0
252600,note_on,0,0,1,,,,,,,,,1,,,86,63
252635,note_off,155,0,5,,,,,,,,,5,,,63,0
252720,note_on,85,0,5,,,,,,,,,5,,,51,63
252720,note_on,0,0,1,,,,,,,,,1,,,87,63
252720,note_off,120,0,1,,,,,,,,,1,,,86,0
252840,note_on,0,0,1,,,,,,,,,1,,,86,64
252840,note_off,120,0,1,,,,,,,,,1,,,87,0
252875,note_off,155,0,5,,,,,,,,,5,,,51,0
252960,note_on,85,0,5,,,,,,,,,5,,,63,65
252960,note_off,120,0,1,,,,,,,,,1,,,86,0
252960,note_on,0,0,1,,,,,,,,,1,,,84,65
253080,note_off,120,0,1,,,,,,,,,1,,,84,0
253080,note_on,0,0,1,,,,,,,,,1,,,86,65
253200,note_on,0,0,5,,,,,,,,,5,,,62,66
253200,note_off,240,0,5,,,,,,,,,5,,,63,0
253200,note_off,120,0,1,,,,,,,,,1,,,86,0
253200,note_on,0,0,1,,,,,,,,,1,,,82,66
253320,note_off,120,0,1,,,,,,,,,1,,,82,0
253320,note_on,0,0,1,,,,,,,,,1,,,84,67
253355,note_off,155,0,5,,,,,,,,,5,,,62,0
253440,note_on,85,0,5,,,,,,,,,5,,,60,68
253440,note_off,120,0,1,,,,,,,,,1,,,84,0
253440,note_on,0,0,1,,,,,,,,,1,,,81,68
253560,note_on,0,0,1,,,,,,,,,1,,,82,68
253560,note_off,120,0,1,,,,,,,,,1,,,81,0
253595,note_off,155,0,5,,,,,,,,,5,,,60,0
253680,note_on,0,0,1,,,,,,,,,1,,,79,69
253680,note_on,85,0,5,,,,,,,,,5,,,58,69
253680,note_off,120,0,1,,,,,,,,,1,,,82,0
253800,note_off,120,0,1,,,,,,,,,1,,,79,0
253800,note_on,0,0,1,,,,,,,,,1,,,81,70
253835,note_off,155,0,5,,,,,,,,,5,,,58,0
253920,note_on,85,0,5,,,,,,,,,5,,,57,70
253920,note_off,120,0,1,,,,,,,,,1,,,81,0
253920,note_on,0,0,1,,,,,,,,,1,,,77,70
254040,note_off,120,0,1,,,,,,,,,1,,,77,0
254040,note_on,0,0,1,,,,,,,,,1,,,79,71
254075,note_off,155,0,5,,,,,,,,,5,,,57,0
254160,note_on,0,0,1,,,,,,,,,1,,,75,72
254160,note_on,85,0,5,,,,,,,,,5,,,53,72
254160,note_off,120,0,1,,,,,,,,,1,,,79,0
254280,note_off,120,0,1,,,,,,,,,1,,,75,0
254280,note_on,0,0,1,,,,,,,,,1,,,77,72
254315,note_off,155,0,5,,,,,,,,,5,,,53,0
254400,note_off,120,0,1,,,,,,,,,1,,,77,0
254400,note_on,85,0,5,,,,,,,,,5,,,58,73
254400,note_on,0,0,1,,,,,,,,,1,,,74,73
254520,note_on,0,0,1,,,,,,,,,1,,,75,74
254520,note_off,120,0,1,,,,,,,,,1,,,74,0
254640,note_on,0,0,1,,,,,,,,,1,,,77,75
254640,note_off,120,0,1,,,,,,,,,1,,,75,0
254760,note_off,120,0,1,,,,,,,,,1,,,77,0
254760,note_on,0,0,1,,,,,,,,,1,,,79,75
254785,note_off,385,0,5,,,,,,,,,5,,,58,0
254880,note_off,120,0,1,,,,,,,,,1,,,79,0
254880,note_on,0,0,1,,,,,,,,,1,,,81,76
254880,note_on,95,0,5,,,,,,,,,5,,,50,76
255000,note_off,120,0,1,,,,,,,,,1,,,81,0
255000,note_on,0,0,1,,,,,,,,,1,,,82,77
255120,note_off,120,0,1,,,,,,,,,1,,,82,0
255120,note_on,0,0,1,,,,,,,,,1,,,81,77
255240,note_on,0,0,1,,,,,,,,,1,,,82,78
255240,note_off,120,0,1,,,,,,,,,1,,,81,0
255265,note_off,385,0,5,,,,,,,,,5,,,50,0
255335,note_off,95,0,1,,,,,,,,,1,,,82,0
255360,note_on,25,0,1,,,,,,,,,1,,,84,79
255360,note_on,95,0,5,,,,,,,,,5,,,51,79
255480,note_on,0,0,1,,,,,,,,,1,,,82,80
255480,note_off,120,0,1,,,,,,,,,1,,,84,0
255600,note_off,120,0,1,,,,,,,,,1,,,82,0
255600,note_on,0,0,1,,,,,,,,,1,,,81,80
255720,note_off,120,0,1,,,,,,,,,1,,,81,0
255720,note_on,0,0,1,,,,,,,,,1,,,79,81
255745,note_off,385,0,5,,,,,,,,,5,,,51,0
255815,note_off,95,0,1,,,,,,,,,1,,,79,0
255840,note_on,95,0,5,,,,,,,,,5,,,63,82
255840,note_on,25,0,1,,,,,,,,,1,,,81,82
255960,note_on,0,0,1,,,,,,,,,1,,,79,82
255960,note_off,120,0,1,,,,,,,,,1,,,81,0
256080,note_off,120,0,1,,,,,,,,,1,,,79,0
256080,note_on,0,0,1,,,,,,,,,1,,,77,83
256200,note_on,0,0,1,,,,,,,,,1,,,75,84
256200,note_off,120,0,1,,,,,,,,,1,,,77,0
256225,note_off,385,0,5,,,,,,,,,5,,,63,0
256295,note_off,95,0,1,,,,,,,,,1,,,75,0
256320,note_on,95,0,5,,,,,,,,,5,,,65,85
256320,note_on,25,0,1,,,,,,,,,1,,,74,85
256705,note_off,385,0,5,,,,,,,,,5,,,65,0
256705,note_off,385,0,1,,,,,,,,,1,,,74,0
256760,set_tempo,5240,1,0,,,,,,465116,,,,,,,
256800,note_on,6240,0,4,,,,,,,,,4,,,69,77
256800,note_on,95,0,1,,,,,,,,,1,,,72,77
256800,note_on,95,0,5,,,,,,,,,5,,,53,77
256880,note_off,80,0,1,,,,,,,,,1,,,72,0
256880,note_on,0,0,1,,,,,,,,,1,,,74,74
256960,note_off,80,0,1,,,,,,,,,1,,,74,0
256960,note_on,0,0,1,,,,,,,,,1,,,72,71
257040,note_on,0,0,1,,,,,,,,,1,,,74,68
257040,note_off,80,0,1,,,,,,,,,1,,,72,0
257100,note_on,0,0,1,,,,,,,,,1,,,72,66
257100,note_off,60,0,1,,,,,,,,,1,,,74,0
257160,note_on,0,0,1,,,,,,,,,1,,,70,64
257160,note_off,60,0,1,,,,,,,,,1,,,72,0
257185,note_off,385,0,5,,,,,,,,,5,,,53,0
257185,note_off,385,0,4,,,,,,,,,4,,,69,0
257220,note_on,0,0,1,,,,,,,,,1,,,72,62
257220,note_off,60,0,1,,,,,,,,,1,,,70,0
257240,set_tempo,480,1,0,,,,,,472440,,,,,,,
257280,set_tempo,40,1,0,,,,,,465116,,,,,,,
257280,note_on,0,0,1,,,,,,,,,1,,,70,60
257280,note_off,60,0,1,,,,,,,,,1,,,72,0
257280,note_on,95,0,5,,,,,,,,,5,,,58,60
257400,note_off,120,0,5,,,,,,,,,5,,,58,0
257400,note_on,0,0,5,,,,,,,,,5,,,65,55
257520,note_off,120,0,5,,,,,,,,,5,,,65,0
257520,note_on,0,0,5,,,,,,,,,5,,,64,54
257640,note_off,120,0,5,,,,,,,,,5,,,64,0
257640,note_on,0,0,5,,,,,,,,,5,,,65,53
257760,note_off,120,0,5,,,,,,,,,5,,,65,0
257760,note_on,0,0,5,,,,,,,,,5,,,67,52
257760,note_off,480,0,1,,,,,,,,,1,,,70,0
257880,note_on,0,0,5,,,,,,,,,5,,,65,51
257880,note_off,120,0,5,,,,,,,,,5,,,67,0
258000,note_on,0,0,5,,,,,,,,,5,,,64,50
258000,note_off,120,0,5,,,,,,,,,5,,,65,0
258120,note_off,120,0,5,,,,,,,,,5,,,64,0
258120,note_on,31585,0,3,,,,,,,,,3,,,65,50
258240,note_off,120,0,3,,,,,,,,,3,,,65,0
258240,note_on,120,0,5,,,,,,,,,5,,,63,49
258360,note_off,120,0,5,,,,,,,,,5,,,63,0
258360,note_on,120,0,3,,,,,,,,,3,,,65,48
258480,note_off,120,0,3,,,,,,,,,3,,,65,0
258480,note_on,120,0,5,,,,,,,,,5,,,62,47
258600,note_off,120,0,5,,,,,,,,,5,,,62,0
258600,note_on,120,0,3,,,,,,,,,3,,,65,46
258720,note_on,120,0,5,,,,,,,,,5,,,60,45
258720,note_off,120,0,3,,,,,,,,,3,,,65,0
258840,note_off,120,0,5,,,,,,,,,5,,,60,0
258840,note_on,120,0,3,,,,,,,,,3,,,65,44
258960,note_off,120,0,3,,,,,,,,,3,,,65,0
258960,note_on,120,0,5,,,,,,,,,5,,,58,43
259080,note_on,120,0,3,,,,,,,,,3,,,65,42
259080,note_off,120,0,5,,,,,,,,,5,,,58,0
259160,set_tempo,1880,1,0,,,,,,472440,,,,,,,
259200,note_on,120,0,5,,,,,,,,,5,,,57,48
259200,note_on,1440,0,1,,,,,,,,,1,,,75,50
259200,set_tempo,40,1,0,,,,,,465116,,,,,,,
259200,note_off,120,0,3,,,,,,,,,3,,,65,0
259320,note_on,120,0,3,,,,,,,,,3,,,65,41
259415,note_off,95,0,3,,,,,,,,,3,,,65,0
259440,note_on,0,0,1,,,,,,,,,1,,,72,46
259440,note_off,240,0,1,,,,,,,,,1,,,75,0
259440,note_off,240,0,5,,,,,,,,,5,,,57,0
259440,note_on,0,0,5,,,,,,,,,5,,,60,42
259560,note_on,145,0,3,,,,,,,,,3,,,65,43
259595,note_off,155,0,1,,,,,,,,,1,,,72,0
259595,note_off,155,0,5,,,,,,,,,5,,,60,0
259655,note_off,95,0,3,,,,,,,,,3,,,65,0
259680,note_on,85,0,5,,,,,,,,,5,,,63,43
259680,note_on,85,0,1,,,,,,,,,1,,,69,42
259800,note_on,145,0,3,,,,,,,,,3,,,65,44
259835,note_off,155,0,5,,,,,,,,,5,,,63,0
259835,note_off,155,0,1,,,,,,,,,1,,,69,0
259895,note_off,95,0,3,,,,,,,,,3,,,65,0
259920,note_on,85,0,1,,,,,,,,,1,,,69,45
259920,note_on,85,0,5,,,,,,,,,5,,,63,45
260040,note_on,145,0,3,,,,,,,,,3,,,65,46
260075,note_off,155,0,1,,,,,,,,,1,,,69,0
260075,note_off,155,0,5,,,,,,,,,5,,,63,0
260135,note_off,95,0,3,,,,,,,,,3,,,65,0
260160,note_on,85,0,1,,,,,,,,,1,,,75,53
260160,note_on,85,0,5,,,,,,,,,5,,,57,54
260280,note_on,145,0,3,,,,,,,,,3,,,65,47
260375,note_off,95,0,3,,,,,,,,,3,,,65,0
260400,note_on,0,0,5,,,,,,,,,5,,,60,48
260400,note_off,240,0,1,,,,,,,,,1,,,75,0
260400,note_on,0,0,1,,,,,,,,,1,,,72,51
260400,note_off,240,0,5,,,,,,,,,5,,,57,0
260520,note_on,145,0,3,,,,,,,,,3,,,65,49
260555,note_off,155,0,5,,,,,,,,,5,,,60,0
260555,note_off,155,0,1,,,,,,,,,1,,,72,0
260615,note_off,95,0,3,,,,,,,,,3,,,65,0
260640,note_on,85,0,5,,,,,,,,,5,,,63,49
260640,note_on,85,0,1,,,,,,,,,1,,,69,48
260760,note_on,145,0,3,,,,,,,,,3,,,65,50
260795,note_off,155,0,5,,,,,,,,,5,,,63,0
260795,note_off,155,0,1,,,,,,,,,1,,,69,0
260855,note_off,95,0,3,,,,,,,,,3,,,65,0
260880,note_on,85,0,1,,,,,,,,,1,,,69,51
260880,note_on,85,0,5,,,,,,,,,5,,,63,51
261000,note_on,145,0,3,,,,,,,,,3,,,65,52
261035,note_off,155,0,5,,,,,,,,,5,,,63,0
261035,note_off,155,0,1,,,,,,,,,1,,,69,0
261095,note_off,95,0,3,,,,,,,,,3,,,65,0
261120,note_on,85,0,5,,,,,,,,,5,,,62,52
261120,note_on,85,0,1,,,,,,,,,1,,,70,52
261240,note_on,145,0,3,,,,,,,,,3,,,65,53
261275,note_off,155,0,5,,,,,,,,,5,,,62,0
261275,note_off,155,0,1,,,,,,,,,1,,,70,0
261335,note_off,95,0,3,,,,,,,,,3,,,65,0
261360,note_on,85,0,5,,,,,,,,,5,,,57,54
261360,note_on,85,0,1,,,,,,,,,1,,,72,54
261480,note_on,145,0,3,,,,,,,,,3,,,65,55
261515,note_off,155,0,1,,,,,,,,,1,,,72,0
261515,note_off,155,0,5,,,,,,,,,5,,,57,0
261575,note_off,95,0,3,,,,,,,,,3,,,65,0
261600,note_on,85,0,5,,,,,,,,,5,,,58,55
261600,note_on,85,0,1,,,,,,,,,1,,,74,55
261720,note_on,145,0,3,,,,,,,,,3,,,65,56
261755,note_off,155,0,1,,,,,,,,,1,,,74,0
261755,note_off,155,0,5,,,,,,,,,5,,,58,0
261815,note_off,95,0,3,,,,,,,,,3,,,65,0
261840,note_on,85,0,1,,,,,,,,,1,,,75,57
261840,note_on,85,0,5,,,,,,,,,5,,,60,57
261960,note_on,145,0,3,,,,,,,,,3,,,65,58
261995,note_off,155,0,1,,,,,,,,,1,,,75,0
262030,note_off,190,0,5,,,,,,,,,5,,,60,0
262055,note_off,95,0,3,,,,,,,,,3,,,65,0
262080,note_on,85,0,1,,,,,,,,,1,,,76,65
262080,note_on,50,0,5,,,,,,,,,5,,,61,68
262200,note_on,145,0,3,,,,,,,,,3,,,65,59
262295,note_off,95,0,3,,,,,,,,,3,,,65,0
262320,note_on,0,0,1,,,,,,,,,1,,,77,60
262320,note_off,240,0,1,,,,,,,,,1,,,76,0
262320,note_off,240,0,5,,,,,,,,,5,,,61,0
262320,note_on,0,0,5,,,,,,,,,5,,,62,60
262440,note_on,145,0,3,,,,,,,,,3,,,65,61
262475,note_off,155,0,5,,,,,,,,,5,,,62,0
262510,note_off,190,0,1,,,,,,,,,1,,,77,0
262535,note_off,95,0,3,,,,,,,,,3,,,65,0
262560,note_on,50,0,1,,,,,,,,,1,,,76,68
262560,note_on,85,0,5,,,,,,,,,5,,,61,70
262680,note_on,145,0,3,,,,,,,,,3,,,65,62
262775,note_off,95,0,3,,,,,,,,,3,,,65,0
262800,note_on,0,0,1,,,,,,,,,1,,,77,63
262800,note_on,0,0,5,,,,,,,,,5,,,62,63
262800,note_off,240,0,5,,,,,,,,,5,,,61,0
262800,note_off,240,0,1,,,,,,,,,1,,,76,0
262920,note_on,145,0,3,,,,,,,,,3,,,65,64
262955,note_off,155,0,5,,,,,,,,,5,,,62,0
262990,note_off,190,0,1,,,,,,,,,1,,,77,0
263000,set_tempo,3800,1,0,,,,,,472440,,,,,,,
263015,note_off,95,0,3,,,,,,,,,3,,,65,0
263040,note_on,50,0,1,,,,,,,,,1,,,87,74
263040,note_on,16080,0,2,,,,,,,,,2,,,75,74
263040,set_tempo,40,1,0,,,,,,461538,,,,,,,
263040,note_on,85,0,5,,,,,,,,,5,,,57,73
263160,note_on,145,0,3,,,,,,,,,3,,,65,65
263255,note_off,95,0,3,,,,,,,,,3,,,65,0
263280,note_off,240,0,5,,,,,,,,,5,,,57,0
263280,note_off,240,0,1,,,,,,,,,1,,,87,0
263280,note_on,0,0,5,,,,,,,,,5,,,60,66
263280,note_off,240,0,2,,,,,,,,,2,,,75,0
263280,note_on,0,0,2,,,,,,,,,2,,,72,69
263280,note_on,0,0,1,,,,,,,,,1,,,84,69
263400,note_on,145,0,3,,,,,,,,,3,,,65,67
263435,note_off,155,0,1,,,,,,,,,1,,,84,0
263435,note_off,155,0,2,,,,,,,,,2,,,72,0
263435,note_off,155,0,5,,,,,,,,,5,,,60,0
263495,note_off,95,0,3,,,,,,,,,3,,,65,0
263520,note_on,85,0,2,,,,,,,,,2,,,69,65
263520,note_on,85,0,5,,,,,,,,,5,,,63,67
263520,note_on,85,0,1,,,,,,,,,1,,,81,65
263640,note_on,145,0,3,,,,,,,,,3,,,65,68
263675,note_off,155,0,2,,,,,,,,,2,,,69,0
263675,note_off,155,0,5,,,,,,,,,5,,,63,0
263675,note_off,155,0,1,,,,,,,,,1,,,81,0
263735,note_off,95,0,3,,,,,,,,,3,,,65,0
263760,note_on,85,0,1,,,,,,,,,1,,,81,69
263760,note_on,85,0,2,,,,,,,,,2,,,69,69
263760,note_on,85,0,5,,,,,,,,,5,,,63,69
263880,note_on,145,0,3,,,,,,,,,3,,,65,69
263915,note_off,155,0,1,,,,,,,,,1,,,81,0
263915,note_off,155,0,2,,,,,,,,,2,,,69,0
263915,note_off,155,0,5,,,,,,,,,5,,,63,0
263975,note_off,95,0,3,,,,,,,,,3,,,65,0
264000,note_on,85,0,1,,,,,,,,,1,,,87,77
264000,note_on,85,0,2,,,,,,,,,2,,,75,77
264000,note_on,85,0,5,,,,,,,,,5,,,57,80
264120,note_on,145,0,3,,,,,,,,,3,,,65,71
264215,note_off,95,0,3,,,,,,,,,3,,,65,0
264240,note_off,240,0,2,,,,,,,,,2,,,75,0
264240,note_on,0,0,1,,,,,,,,,1,,,84,73
264240,note_on,0,0,2,,,,,,,,,2,,,72,73
264240,note_off,240,0,5,,,,,,,,,5,,,57,0
264240,note_off,240,0,1,,,,,,,,,1,,,87,0
264240,note_on,0,0,5,,,,,,,,,5,,,60,72
264360,note_on,145,0,3,,,,,,,,,3,,,65,72
264395,note_off,155,0,2,,,,,,,,,2,,,72,0
264395,note_off,155,0,1,,,,,,,,,1,,,84,0
264395,note_off,155,0,5,,,,,,,,,5,,,60,0
264455,note_off,95,0,3,,,,,,,,,3,,,65,0
264480,note_on,85,0,1,,,,,,,,,1,,,81,70
264480,note_on,85,0,5,,,,,,,,,5,,,63,73
264480,note_on,85,0,2,,,,,,,,,2,,,69,70
264600,note_on,145,0,3,,,,,,,,,3,,,65,74
264635,note_off,155,0,2,,,,,,,,,2,,,69,0
264635,note_off,155,0,5,,,,,,,,,5,,,63,0
264635,note_off,155,0,1,,,,,,,,,1,,,81,0
264695,note_off,95,0,3,,,,,,,,,3,,,65,0
264720,note_on,85,0,2,,,,,,,,,2,,,69,75
264720,note_on,85,0,5,,,,,,,,,5,,,63,75
264720,note_on,85,0,1,,,,,,,,,1,,,81,75
264840,note_on,145,0,3,,,,,,,,,3,,,65,75
264875,note_off,155,0,1,,,,,,,,,1,,,81,0
264875,note_off,155,0,5,,,,,,,,,5,,,63,0
264875,note_off,155,0,2,,,,,,,,,2,,,69,0
264935,note_off,95,0,3,,,,,,,,,3,,,65,0
264960,note_on,85,0,1,,,,,,,,,1,,,82,76
264960,note_on,85,0,2,,,,,,,,,2,,,70,76
264960,note_on,85,0,5,,,,,,,,,5,,,62,76
265080,note_on,145,0,3,,,,,,,,,3,,,65,77
265115,note_off,155,0,1,,,,,,,,,1,,,82,0
265115,note_off,155,0,2,,,,,,,,,2,,,70,0
265115,note_off,155,0,5,,,,,,,,,5,,,62,0
265175,note_off,95,0,3,,,,,,,,,3,,,65,0
265200,note_on,85,0,1,,,,,,,,,1,,,84,78
265200,note_on,85,0,5,,,,,,,,,5,,,57,78
265200,note_on,85,0,2,,,,,,,,,2,,,72,78
265320,note_on,145,0,3,,,,,,,,,3,,,65,78
265355,note_off,155,0,5,,,,,,,,,5,,,57,0
265355,note_off,155,0,1,,,,,,,,,1,,,84,0
265355,note_off,155,0,2,,,,,,,,,2,,,72,0
265415,note_off,95,0,3,,,,,,,,,3,,,65,0
265440,note_on,85,0,1,,,,,,,,,1,,,86,79
265440,note_on,85,0,5,,,,,,,,,5,,,58,79
265440,note_on,85,0,2,,,,,,,,,2,,,74,79
265560,note_on,145,0,3,,,,,,,,,3,,,65,80
265595,note_off,155,0,1,,,,,,,,,1,,,86,0
265595,note_off,155,0,5,,,,,,,,,5,,,58,0
265595,note_off,155,0,2,,,,,,,,,2,,,74,0
265655,note_off,95,0,3,,,,,,,,,3,,,65,0
265680,note_on,85,0,5,,,,,,,,,5,,,60,81
265680,note_on,85,0,2,,,,,,,,,2,,,75,81
265680,note_on,85,0,1,,,,,,,,,1,,,87,81
265800,note_on,145,0,3,,,,,,,,,3,,,65,81
265835,note_off,155,0,2,,,,,,,,,2,,,75,0
265835,note_off,155,0,1,,,,,,,,,1,,,87,0
265835,note_off,155,0,5,,,,,,,,,5,,,60,0
265895,note_off,95,0,3,,,,,,,,,3,,,65,0
265920,note_on,85,0,2,,,,,,,,,2,,,76,89
265920,note_on,85,0,1,,,,,,,,,1,,,88,89
265920,note_on,85,0,5,,,,,,,,,5,,,61,89
266040,note_on,145,0,3,,,,,,,,,3,,,65,83
266135,note_off,95,0,3,,,,,,,,,3,,,65,0
266160,note_on,0,0,5,,,,,,,,,5,,,62,84
266160,note_off,240,0,1,,,,,,,,,1,,,88,0
266160,note_off,240,0,2,,,,,,,,,2,,,76,0
266160,note_on,0,0,2,,,,,,,,,2,,,77,84
266160,note_on,0,0,1,,,,,,,,,1,,,89,84
266160,note_off,240,0,5,,,,,,,,,5,,,61,0
266280,note_on,145,0,3,,,,,,,,,3,,,65,84
266315,note_off,155,0,5,,,,,,,,,5,,,62,0
266350,note_off,190,0,2,,,,,,,,,2,,,77,0
266350,note_off,190,0,1,,,,,,,,,1,,,89,0
266375,note_off,95,0,3,,,,,,,,,3,,,65,0
266400,note_on,50,0,1,,,,,,,,,1,,,88,90
266400,note_on,85,0,5,,,,,,,,,5,,,61,92
266400,note_on,50,0,2,,,,,,,,,2,,,76,90
266520,note_on,145,0,3,,,,,,,,,3,,,65,86
266615,note_off,95,0,3,,,,,,,,,3,,,65,0
266640,note_on,0,0,5,,,,,,,,,5,,,62,87
266640,note_off,240,0,1,,,,,,,,,1,,,88,0
266640,note_on,0,0,1,,,,,,,,,1,,,89,87
266640,note_off,240,0,5,,,,,,,,,5,,,61,0
266640,note_on,0,0,2,,,,,,,,,2,,,77,87
266640,note_off,240,0,2,,,,,,,,,2,,,76,0
266760,note_on,145,0,3,,,,,,,,,3,,,65,87
266795,note_off,155,0,5,,,,,,,,,5,,,62,0
266830,note_off,190,0,2,,,,,,,,,2,,,77,0
266830,note_off,190,0,1,,,,,,,,,1,,,89,0
266840,set_tempo,3800,1,0,,,,,,465116,,,,,,,
266855,note_off,95,0,3,,,,,,,,,3,,,65,0
266880,note_on,50,0,1,,,,,,,,,1,,,79,81
266880,note_on,50,0,2,,,,,,,,,2,,,67,81
267120,note_on,325,0,5,,,,,,,,,5,,,51,79
267360,note_on,0,0,5,,,,,,,,,5,,,50,77
267360,note_off,240,0,5,,,,,,,,,5,,,51,0
267600,note_on,0,0,5,,,,,,,,,5,,,51,75
267600,note_off,240,0,5,,,,,,,,,5,,,50,0
267650,note_off,770,0,1,,,,,,,,,1,,,79,0
267650,note_off,770,0,2,,,,,,,,,2,,,67,0
267790,note_off,190,0,5,,,,,,,,,5,,,51,0
267840,note_on,190,0,2,,,,,,,,,2,,,57,72
267840,note_on,190,0,1,,,,,,,,,1,,,69,72
268080,note_on,290,0,5,,,,,,,,,5,,,53,70
268320,note_off,240,0,5,,,,,,,,,5,,,53,0
268320,note_on,0,0,5,,,,,,,,,5,,,52,68
268560,note_off,240,0,5,,,,,,,,,5,,,52,0
268560,note_on,0,0,5,,,,,,,,,5,,,53,66
268610,note_off,770,0,1,,,,,,,,,1,,,69,0
268610,note_off,770,0,2,,,,,,,,,2,,,57,0
268750,note_off,190,0,5,,,,,,,,,5,,,53,0
268760,set_tempo,1920,1,0,,,,,,472440,,,,,,,
268800,note_on,190,0,2,,,,,,,,,2,,,75,64
268800,note_on,190,0,1,,,,,,,,,1,,,87,64
269040,note_on,290,0,5,,,,,,,,,5,,,54,61
269280,note_off,240,0,5,,,,,,,,,5,,,54,0
269280,note_on,0,0,5,,,,,,,,,5,,,52,59
269520,note_on,0,0,5,,,,,,,,,5,,,54,57
269520,note_off,240,0,5,,,,,,,,,5,,,52,0
269570,note_off,770,0,1,,,,,,,,,1,,,87,0
269570,note_off,770,0,2,,,,,,,,,2,,,75,0
269710,note_off,190,0,5,,,,,,,,,5,,,54,0
269760,note_on,190,0,1,,,,,,,,,1,,,86,55
269760,note_on,190,0,2,,,,,,,,,2,,,74,55
270000,note_on,290,0,5,,,,,,,,,5,,,55,53
270240,note_off,240,0,5,,,,,,,,,5,,,55,0
270240,note_on,0,0,5,,,,,,,,,5,,,54,50
270480,note_off,240,0,5,,,,,,,,,5,,,54,0
270480,note_on,0,0,5,,,,,,,,,5,,,55,48
270530,note_off,770,0,1,,,,,,,,,1,,,86,0
270530,note_off,770,0,2,,,,,,,,,2,,,74,0
270670,note_off,190,0,5,,,,,,,,,5,,,55,0
270680,set_tempo,1920,1,0,,,,,,480000,,,,,,,
270720,set_tempo,40,1,0,,,,,,465116,,,,,,,
270720,note_on,190,0,1,,,,,,,,,1,,,86,68
270840,note_on,0,0,1,,,,,,,,,1,,,84,66
270840,note_off,120,0,1,,,,,,,,,1,,,86,0
270960,note_on,0,0,1,,,,,,,,,1,,,87,65
270960,note_off,120,0,1,,,,,,,,,1,,,84,0
271080,note_on,0,0,1,,,,,,,,,1,,,86,63
271080,note_off,120,0,1,,,,,,,,,1,,,87,0
271200,note_on,14015,0,4,,,,,,,,,4,,,72,62
271200,note_on,0,0,1,,,,,,,,,1,,,89,62
271200,note_off,120,0,1,,,,,,,,,1,,,86,0
271200,note_on,530,0,5,,,,,,,,,5,,,63,62
271320,note_on,0,0,1,,,,,,,,,1,,,87,60
271320,note_off,120,0,1,,,,,,,,,1,,,89,0
271440,note_on,0,0,1,,,,,,,,,1,,,86,59
271440,note_off,120,0,1,,,,,,,,,1,,,87,0
271560,note_on,0,0,1,,,,,,,,,1,,,84,57
271560,note_off,120,0,1,,,,,,,,,1,,,86,0
271680,note_on,0,0,5,,,,,,,,,5,,,65,55
271680,note_on,0,0,4,,,,,,,,,4,,,74,55
271680,note_off,480,0,5,,,,,,,,,5,,,63,0
271680,note_off,120,0,1,,,,,,,,,1,,,84,0
271680,note_on,0,0,1,,,,,,,,,1,,,82,55
271680,note_off,480,0,4,,,,,,,,,4,,,72,0
272160,note_off,480,0,4,,,,,,,,,4,,,74,0
272160,note_off,480,0,1,,,,,,,,,1,,,82,0
272160,note_on,0,0,1,,,,,,,,,1,,,81,49
272160,note_on,0,0,4,,,,,,,,,4,,,75,49
272450,note_off,770,0,5,,,,,,,,,5,,,65,0
272545,note_off,385,0,1,,,,,,,,,1,,,81,0
272545,note_off,385,0,4,,,,,,,,,4,,,75,0
272600,set_tempo,1880,1,0,,,,,,472440,,,,,,,
272640,set_tempo,40,1,0,,,,,,465116,,,,,,,
272640,note_on,190,0,5,,,,,,,,,5,,,70,59
272640,note_on,95,0,4,,,,,,,,,4,,,74,59
272880,note_on,335,0,1,,,,,,,,,1,,,82,59
273120,note_off,240,0,1,,,,,,,,,1,,,82,0
273120,note_on,0,0,1,,,,,,,,,1,,,81,58
273360,note_on,0,0,1,,,,,,,,,1,,,82,58
273360,note_off,240,0,1,,,,,,,,,1,,,81,0
273410,note_off,770,0,4,,,,,,,,,4,,,74,0
273410,note_off,770,0,5,,,,,,,,,5,,,70,0
273550,note_off,190,0,1,,,,,,,,,1,,,82,0
273600,note_on,190,0,4,,,,,,,,,4,,,74,57
273600,note_on,190,0,5,,,,,,,,,5,,,70,57
273840,note_on,290,0,1,,,,,,,,,1,,,80,57
274080,note_off,240,0,1,,,,,,,,,1,,,80,0
274080,note_on,0,0,1,,,,,,,,,1,,,79,56
274320,note_off,240,0,1,,,,,,,,,1,,,79,0
274320,note_on,0,0,1,,,,,,,,,1,,,80,56
274370,note_off,770,0,4,,,,,,,,,4,,,74,0
274370,note_off,770,0,5,,,,,,,,,5,,,70,0
274510,note_off,190,0,1,,,,,,,,,1,,,80,0
274560,note_on,190,0,4,,,,,,,,,4,,,74,55
274560,note_on,190,0,5,,,,,,,,,5,,,71,55
274560,note_on,0,0,4,,,,,,,,,4,,,77,55
274800,note_on,290,0,1,,,,,,,,,1,,,79,55
275040,note_on,0,0,1,,,,,,,,,1,,,78,54
275040,note_off,240,0,1,,,,,,,,,1,,,79,0
275280,note_on,0,0,1,,,,,,,,,1,,,79,53
275280,note_off,240,0,1,,,,,,,,,1,,,78,0
275470,note_off,190,0,1,,,,,,,,,1,,,79,0
275520,note_off,0,0,4,,,,,,,,,4,,,74,0
275520,note_off,960,0,4,,,,,,,,,4,,,77,0
275520,note_off,960,0,5,,,,,,,,,5,,,71,0
275520,note_on,0,0,5,,,,,,,,,5,,,72,49
275520,note_on,0,0,4,,,,,,,,,4,,,75,49
275760,note_on,290,0,1,,,,,,,,,1,,,79,51
276000,note_on,0,0,1,,,,,,,,,1,,,87,50
276000,note_off,240,0,1,,,,,,,,,1,,,79,0
276155,note_off,155,0,1,,,,,,,,,1,,,87,0
276240,note_on,85,0,1,,,,,,,,,1,,,87,49
276290,note_off,770,0,4,,,,,,,,,4,,,75,0
276290,note_off,770,0,5,,,,,,,,,5,,,72,0
276395,note_off,155,0,1,,,,,,,,,1,,,87,0
276480,note_on,190,0,5,,,,,,,,,5,,,69,51
276480,note_on,0,0,4,,,,,,,,,4,,,75,51
276480,note_on,190,0,4,,,,,,,,,4,,,72,51
276720,note_on,325,0,1,,,,,,,,,1,,,87,51
276960,note_on,0,0,1,,,,,,,,,1,,,77,50
276960,note_off,240,0,1,,,,,,,,,1,,,87,0
277115,note_off,155,0,1,,,,,,,,,1,,,77,0
277200,note_on,85,0,1,,,,,,,,,1,,,77,49
277355,note_off,155,0,1,,,,,,,,,1,,,77,0
277440,note_off,0,0,4,,,,,,,,,4,,,72,0
277440,note_off,960,0,4,,,,,,,,,4,,,75,0
277440,note_off,960,0,5,,,,,,,,,5,,,69,0
277440,note_on,0,0,5,,,,,,,,,5,,,70,47
277440,note_on,0,0,4,,,,,,,,,4,,,74,47
277680,note_on,325,0,1,,,,,,,,,1,,,77,46
277920,note_on,0,0,1,,,,,,,,,1,,,86,45
277920,note_off,240,0,1,,,,,,,,,1,,,77,0
278075,note_off,155,0,1,,,,,,,,,1,,,86,0
278160,note_on,85,0,1,,,,,,,,,1,,,86,44
278210,note_off,770,0,4,,,,,,,,,4,,,74,0
278210,note_off,770,0,5,,,,,,,,,5,,,70,0
278315,note_off,155,0,1,,,,,,,,,1,,,86,0
278400,note_on,0,0,5,,,,,,,,,5,,,67,47
278400,note_on,190,0,4,,,,,,,,,4,,,74,47
278400,note_on,190,0,5,,,,,,,,,5,,,70,47
278640,note_on,325,0,1,,,,,,,,,1,,,86,47
278880,note_off,240,0,1,,,,,,,,,1,,,86,0
278880,note_on,0,0,1,,,,,,,,,1,,,75,46
279035,note_off,155,0,1,,,,,,,,,1,,,75,0
279120,note_on,85,0,1,,,,,,,,,1,,,75,45
279275,note_off,155,0,1,,,,,,,,,1,,,75,0
279360,note_off,960,0,4,,,,,,,,,4,,,74,0
279360,note_on,0,0,4,,,,,,,,,4,,,72,40
279360,note_off,0,0,5,,,,,,,,,5,,,70,0
279360,note_off,960,0,5,,,,,,,,,5,,,67,0
279360,note_on,0,0,5,,,,,,,,,5,,,69,40
279600,note_on,325,0,1,,,,,,,,,1,,,75,42
279840,note_off,240,0,1,,,,,,,,,1,,,75,0
279840,note_on,0,0,1,,,,,,,,,1,,,84,41
279995,note_off,155,0,1,,,,,,,,,1,,,84,0
280080,note_on,85,0,1,,,,,,,,,1,,,84,40
280130,note_off,770,0,5,,,,,,,,,5,,,69,0
280130,note_off,770,0,4,,,,,,,,,4,,,72,0
280235,note_off,155,0,1,,,,,,,,,1,,,84,0
280320,note_on,190,0,5,,,,,,,,,5,,,66,43
280320,note_on,0,0,4,,,,,,,,,4,,,72,43
280320,note_on,190,0,4,,,,,,,,,4,,,69,43
280560,note_on,325,0,1,,,,,,,,,1,,,84,43
280800,note_off,240,0,1,,,,,,,,,1,,,84,0
280800,note_on,0,0,1,,,,,,,,,1,,,74,42
280955,note_off,155,0,1,,,,,,,,,1,,,74,0
281040,note_on,85,0,1,,,,,,,,,1,,,74,42
281195,note_off,155,0,1,,,,,,,,,1,,,74,0
281280,note_off,960,0,5,,,,,,,,,5,,,66,0
281280,note_on,0,0,5,,,,,,,,,5,,,67,39
281280,note_off,960,0,4,,,,,,,,,4,,,72,0
281280,note_on,0,0,4,,,,,,,,,4,,,70,39
281280,note_off,0,0,4,,,,,,,,,4,,,69,0
281520,note_on,325,0,1,,,,,,,,,1,,,74,40
281760,note_on,0,0,1,,,,,,,,,1,,,82,39
281760,note_off,240,0,1,,,,,,,,,1,,,74,0
281915,note_off,155,0,1,,,,,,,,,1,,,82,0
282000,note_on,85,0,1,,,,,,,,,1,,,82,38
282050,note_off,770,0,4,,,,,,,,,4,,,70,0
282050,note_off,770,0,5,,,,,,,,,5,,,67,0
282155,note_off,155,0,1,,,,,,,,,1,,,82,0
282200,set_tempo,9560,1,0,,,,,,465116,,,,,,,
282240,set_tempo,40,1,0,,,,,,461538,,,,,,,
282240,note_on,85,0,1,,,,,,,,,1,,,82,38
282480,note_on,0,0,1,,,,,,,,,1,,,72,37
282480,note_off,240,0,1,,,,,,,,,1,,,82,0
282480,note_on,430,0,4,,,,,,,,,4,,,70,39
282480,note_on,430,0,5,,,,,,,,,5,,,64,39
282635,note_off,155,0,1,,,,,,,,,1,,,72,0
282670,note_off,190,0,5,,,,,,,,,5,,,64,0
282670,note_off,190,0,4,,,,,,,,,4,,,70,0
282720,note_on,50,0,5,,,,,,,,,5,,,64,38
282720,note_on,50,0,4,,,,,,,,,4,,,70,38
282910,note_off,190,0,5,,,,,,,,,5,,,64,0
282910,note_off,190,0,4,,,,,,,,,4,,,70,0
282960,note_on,50,0,4,,,,,,,,,4,,,70,38
282960,note_on,50,0,5,,,,,,,,,5,,,64,38
283150,note_off,190,0,5,,,,,,,,,5,,,64,0
283150,note_off,190,0,4,,,,,,,,,4,,,70,0
283200,note_on,565,0,1,,,,,,,,,1,,,82,35
283440,note_on,290,0,5,,,,,,,,,5,,,65,37
283440,note_on,290,0,4,,,,,,,,,4,,,70,37
283440,note_on,0,0,1,,,,,,,,,1,,,74,34
283440,note_off,240,0,1,,,,,,,,,1,,,82,0
283595,note_off,155,0,1,,,,,,,,,1,,,74,0
283630,note_off,190,0,4,,,,,,,,,4,,,70,0
283630,note_off,190,0,5,,,,,,,,,5,,,65,0
283680,note_on,50,0,5,,,,,,,,,5,,,65,36
283680,note_on,50,0,4,,,,,,,,,4,,,70,36
283870,note_off,190,0,4,,,,,,,,,4,,,70,0
283870,note_off,190,0,5,,,,,,,,,5,,,65,0
283920,note_on,50,0,4,,,,,,,,,4,,,70,36
283920,note_on,50,0,5,,,,,,,,,5,,,65,36
284110,note_off,190,0,4,,,,,,,,,4,,,70,0
284110,note_off,190,0,5,,,,,,,,,5,,,65,0
284160,note_on,565,0,1,,,,,,,,,1,,,82,35
284400,note_on,0,0,1,,,,,,,,,1,,,75,37
284400,note_on,290,0,4,,,,,,,,,4,,,70,37
284400,note_on,290,0,5,,,,,,,,,5,,,67,37
284400,note_off,240,0,1,,,,,,,,,1,,,82,0
284555,note_off,155,0,1,,,,,,,,,1,,,75,0
284590,note_off,190,0,4,,,,,,,,,4,,,70,0
284590,note_off,190,0,5,,,,,,,,,5,,,67,0
284640,note_on,50,0,4,,,,,,,,,4,,,70,39
284640,note_on,50,0,5,,,,,,,,,5,,,67,39
284830,note_off,190,0,4,,,,,,,,,4,,,70,0
284830,note_off,190,0,5,,,,,,,,,5,,,67,0
284880,note_on,50,0,5,,,,,,,,,5,,,67,40
284880,note_on,50,0,4,,,,,,,,,4,,,70,40
285070,note_off,190,0,5,,,,,,,,,5,,,67,0
285070,note_off,190,0,4,,,,,,,,,4,,,70,0
285120,note_on,565,0,1,,,,,,,,,1,,,82,42
285360,note_on,290,0,5,,,,,,,,,5,,,66,44
285360,note_on,290,0,4,,,,,,,,,4,,,70,44
285360,note_off,240,0,1,,,,,,,,,1,,,82,0
285360,note_on,0,0,1,,,,,,,,,1,,,76,44
285515,note_off,155,0,1,,,,,,,,,1,,,76,0
285550,note_off,190,0,5,,,,,,,,,5,,,66,0
285550,note_off,190,0,4,,,,,,,,,4,,,70,0
285600,note_on,50,0,4,,,,,,,,,4,,,70,46
285600,note_on,50,0,5,,,,,,,,,5,,,66,46
285790,note_off,190,0,4,,,,,,,,,4,,,70,0
285790,note_off,190,0,5,,,,,,,,,5,,,66,0
285840,note_on,50,0,5,,,,,,,,,5,,,66,48
285840,note_on,50,0,4,,,,,,,,,4,,,70,48
286030,note_off,190,0,5,,,,,,,,,5,,,66,0
286030,note_off,190,0,4,,,,,,,,,4,,,70,0
286040,set_tempo,3800,1,0,,,,,,465116,,,,,,,
286080,note_on,50,0,5,,,,,,,,,5,,,65,50
286080,note_on,50,0,4,,,,,,,,,4,,,70,50
286080,note_on,565,0,1,,,,,,,,,1,,,82,50
286080,set_tempo,40,1,0,,,,,,461538,,,,,,,
286320,note_on,0,0,1,,,,,,,,,1,,,77,51
286320,note_off,240,0,1,,,,,,,,,1,,,82,0
286465,note_off,385,0,5,,,,,,,,,5,,,65,0
286465,note_off,385,0,4,,,,,,,,,4,,,70,0
286475,note_off,155,0,1,,,,,,,,,1,,,77,0
286560,note_on,85,0,1,,,,,,,,,1,,,82,53
286560,note_on,95,0,5,,,,,,,,,5,,,62,53
286560,note_on,95,0,4,,,,,,,,,4,,,70,53
286800,note_on,0,0,1,,,,,,,,,1,,,78,55
286800,note_off,240,0,1,,,,,,,,,1,,,82,0
286945,note_off,385,0,5,,,,,,,,,5,,,62,0
286945,note_off,385,0,4,,,,,,,,,4,,,70,0
286955,note_off,155,0,1,,,,,,,,,1,,,78,0
287040,note_on,95,0,5,,,,,,,,,5,,,63,57
287040,note_on,85,0,1,,,,,,,,,1,,,82,57
287040,note_on,95,0,4,,,,,,,,,4,,,70,57
287280,note_off,240,0,1,,,,,,,,,1,,,82,0
287280,note_on,0,0,1,,,,,,,,,1,,,79,59
287425,note_off,385,0,4,,,,,,,,,4,,,70,0
287425,note_off,385,0,5,,,,,,,,,5,,,63,0
287435,note_off,155,0,1,,,,,,,,,1,,,79,0
287520,note_on,95,0,5,,,,,,,,,5,,,60,61
287520,note_on,95,0,4,,,,,,,,,4,,,65,61
287520,note_on,85,0,1,,,,,,,,,1,,,87,61
287760,note_off,240,0,1,,,,,,,,,1,,,87,0
287760,note_on,0,0,1,,,,,,,,,1,,,81,62
287905,note_off,385,0,5,,,,,,,,,5,,,60,0
287905,note_off,385,0,4,,,,,,,,,4,,,65,0
287915,note_off,155,0,1,,,,,,,,,1,,,81,0
287960,set_tempo,1880,1,0,,,,,,465116,,,,,,,
288000,note_on,95,0,4,,,,,,,,,4,,,65,64
288000,note_on,85,0,1,,,,,,,,,1,,,86,59
288000,note_on,95,0,5,,,,,,,,,5,,,58,64
288040,note_off,40,0,1,,,,,,,,,1,,,86,0
288040,note_on,0,0,1,,,,,,,,,1,,,87,60
288080,note_off,40,0,1,,,,,,,,,1,,,87,0
288080,note_on,0,0,1,,,,,,,,,1,,,86,62
288120,note_off,40,0,1,,,,,,,,,1,,,86,0
288120,note_on,0,0,1,,,,,,,,,1,,,84,63
288180,note_off,60,0,1,,,,,,,,,1,,,84,0
288180,note_on,0,0,1,,,,,,,,,1,,,86,65
288240,note_on,0,0,1,,,,,,,,,1,,,89,67
288240,note_off,60,0,1,,,,,,,,,1,,,86,0
288385,note_off,385,0,5,,,,,,,,,5,,,58,0
288385,note_off,385,0,4,,,,,,,,,4,,,65,0
288430,note_off,190,0,1,,,,,,,,,1,,,89,0
288480,note_on,95,0,4,,,,,,,,,4,,,53,68
288480,note_on,50,0,1,,,,,,,,,1,,,82,62
288480,note_on,95,0,5,,,,,,,,,5,,,50,68
288520,note_off,40,0,1,,,,,,,,,1,,,82,0
288520,note_on,0,0,1,,,,,,,,,1,,,84,63
288560,note_off,40,0,1,,,,,,,,,1,,,84,0
288560,note_on,0,0,1,,,,,,,,,1,,,82,64
288600,note_on,0,0,1,,,,,,,,,1,,,81,65
288600,note_off,40,0,1,,,,,,,,,1,,,82,0
288660,note_off,60,0,1,,,,,,,,,1,,,81,0
288660,note_on,0,0,1,,,,,,,,,1,,,82,66
288720,note_off,60,0,1,,,,,,,,,1,,,82,0
288720,note_on,0,0,1,,,,,,,,,1,,,86,68
288865,note_off,385,0,5,,,,,,,,,5,,,50,0
288865,note_off,385,0,4,,,,,,,,,4,,,53,0
288910,note_off,190,0,1,,,,,,,,,1,,,86,0
288960,note_on,95,0,5,,,,,,,,,5,,,51,72
288960,note_on,50,0,1,,,,,,,,,1,,,79,65
288960,note_on,95,0,4,,,,,,,,,4,,,58,72
289000,note_on,0,0,1,,,,,,,,,1,,,81,66
289000,note_off,40,0,1,,,,,,,,,1,,,79,0
289040,note_on,0,0,1,,,,,,,,,1,,,79,68
289040,note_off,40,0,1,,,,,,,,,1,,,81,0
289080,note_off,40,0,1,,,,,,,,,1,,,79,0
289080,note_on,0,0,1,,,,,,,,,1,,,78,70
289140,note_off,60,0,1,,,,,,,,,1,,,78,0
289140,note_on,0,0,1,,,,,,,,,1,,,79,72
289200,note_on,0,0,1,,,,,,,,,1,,,82,75
289200,note_off,60,0,1,,,,,,,,,1,,,79,0
289345,note_off,385,0,4,,,,,,,,,4,,,58,0
289345,note_off,385,0,5,,,,,,,,,5,,,51,0
289390,note_off,190,0,1,,,,,,,,,1,,,82,0
289440,note_on,95,0,5,,,,,,,,,5,,,51,75
289440,note_on,50,0,1,,,,,,,,,1,,,72,68
289440,note_on,95,0,4,,,,,,,,,4,,,55,75
289480,note_off,40,0,1,,,,,,,,,1,,,72,0
289480,note_on,0,0,1,,,,,,,,,1,,,74,70
289520,note_off,40,0,1,,,,,,,,,1,,,74,0
289520,note_on,0,0,1,,,,,,,,,1,,,72,71
289560,note_off,40,0,1,,,,,,,,,1,,,72,0
289560,note_on,0,0,1,,,,,,,,,1,,,71,73
289620,note_off,60,0,1,,,,,,,,,1,,,71,0
289620,note_on,0,0,1,,,,,,,,,1,,,72,75
289680,note_off,60,0,1,,,,,,,,,1,,,72,0
289680,note_on,0,0,1,,,,,,,,,1,,,75,77
289825,note_off,385,0,5,,,,,,,,,5,,,51,0
289825,note_off,385,0,4,,,,,,,,,4,,,55,0
289870,note_off,190,0,1,,,,,,,,,1,,,75,0
289880,set_tempo,1920,1,0,,,,,,472440,,,,,,,
289920,note_on,50,0,1,,,,,,,,,1,,,65,77
289920,set_tempo,40,1,0,,,,,,465116,,,,,,,
290015,note_off,95,0,1,,,,,,,,,1,,,65,0
290040,note_on,25,0,1,,,,,,,,,1,,,77,75
290160,note_on,0,0,1,,,,,,,,,1,,,79,73
290160,note_off,120,0,1,,,,,,,,,1,,,77,0
290280,note_off,120,0,1,,,,,,,,,1,,,79,0
290280,note_on,0,0,1,,,,,,,,,1,,,77,71
290400,note_on,575,0,5,,,,,,,,,5,,,50,69
290400,note_off,120,0,1,,,,,,,,,1,,,77,0
290400,note_on,0,0,1,,,,,,,,,1,,,75,69
290400,note_on,575,0,4,,,,,,,,,4,,,58,69
290520,note_off,120,0,1,,,,,,,,,1,,,75,0
290520,note_on,0,0,1,,,,,,,,,1,,,74,67
290640,note_on,0,0,1,,,,,,,,,1,,,72,65
290640,note_off,120,0,1,,,,,,,,,1,,,74,0
290760,note_off,120,0,1,,,,,,,,,1,,,72,0
290760,note_on,0,0,1,,,,,,,,,1,,,70,63
290855,note_off,95,0,1,,,,,,,,,1,,,70,0
290880,note_off,480,0,5,,,,,,,,,5,,,50,0
290880,note_on,0,0,5,,,,,,,,,5,,,51,62
290880,note_on,25,0,1,,,,,,,,,1,,,72,65
290960,note_on,0,0,1,,,,,,,,,1,,,74,63
290960,note_off,80,0,1,,,,,,,,,1,,,72,0
291040,note_on,0,0,1,,,,,,,,,1,,,72,61
291040,note_off,80,0,1,,,,,,,,,1,,,74,0
291120,note_off,80,0,1,,,,,,,,,1,,,72,0
291120,note_on,0,0,1,,,,,,,,,1,,,74,59
291200,note_off,80,0,1,,,,,,,,,1,,,74,0
291200,note_on,0,0,1,,,,,,,,,1,,,72,57
291280,note_off,80,0,1,,,,,,,,,1,,,72,0
291280,note_on,0,0,1,,,,,,,,,1,,,74,55
291360,note_on,0,0,5,,,,,,,,,5,,,53,50
291360,note_off,480,0,5,,,,,,,,,5,,,51,0
291360,note_on,0,0,4,,,,,,,,,4,,,57,50
291360,note_off,960,0,4,,,,,,,,,4,,,58,0
291360,note_on,0,0,1,,,,,,,,,1,,,72,53
291360,note_off,80,0,1,,,,,,,,,1,,,74,0
291440,note_on,0,0,1,,,,,,,,,1,,,74,51
291440,note_off,80,0,1,,,,,,,,,1,,,72,0
291520,note_on,0,0,1,,,,,,,,,1,,,72,49
291520,note_off,80,0,1,,,,,,,,,1,,,74,0
291600,note_off,80,0,1,,,,,,,,,1,,,72,0
291600,note_on,0,0,1,,,,,,,,,1,,,70,46
291720,note_off,120,0,1,,,,,,,,,1,,,70,0
291720,note_on,0,0,1,,,,,,,,,1,,,72,43
291745,note_off,385,0,4,,,,,,,,,4,,,57,0
291745,note_off,385,0,5,,,,,,,,,5,,,53,0
291800,set_tempo,1880,1,0,,,,,,472440,,,,,,,
291815,note_off,95,0,1,,,,,,,,,1,,,72,0
291840,note_on,95,0,4,,,,,,,,,4,,,58,36
291840,note_on,25,0,1,,,,,,,,,1,,,70,36
291840,note_on,95,0,5,,,,,,,,,5,,,46,36
291840,set_tempo,40,1,0,,,,,,461538,,,,,,,
292030,note_off,190,0,4,,,,,,,,,4,,,58,0
292030,note_off,190,0,1,,,,,,,,,1,,,70,0
292030,note_off,190,0,5,,,,,,,,,5,,,46,0
292080,note_on,50,0,5,,,,,,,,,5,,,58,39
292200,note_on,170,0,1,,,,,,,,,1,,,62,40
292200,note_off,120,0,5,,,,,,,,,5,,,58,0
292320,note_off,120,0,1,,,,,,,,,1,,,62,0
292320,note_on,0,0,1,,,,,,,,,1,,,60,40
292320,note_on,120,0,5,,,,,,,,,5,,,57,40
292440,note_off,120,0,1,,,,,,,,,1,,,60,0
292440,note_on,0,0,1,,,,,,,,,1,,,63,41
292560,note_on,0,0,5,,,,,,,,,5,,,56,42
292560,note_off,120,0,1,,,,,,,,,1,,,63,0
292560,note_on,0,0,1,,,,,,,,,1,,,62,42
292560,note_off,240,0,5,,,,,,,,,5,,,57,0
292680,note_on,0,0,1,,,,,,,,,1,,,65,42
292680,note_off,120,0,1,,,,,,,,,1,,,62,0
292800,note_off,120,0,1,,,,,,,,,1,,,65,0
292800,note_on,0,0,1,,,,,,,,,1,,,63,43
292800,note_on,0,0,5,,,,,,,,,5,,,55,43
292800,note_on,0,0,5,,,,,,,,,5,,,46,43
292800,note_off,240,0,5,,,,,,,,,5,,,56,0
292990,note_off,190,0,5,,,,,,,,,5,,,55,0
292990,note_off,0,0,5,,,,,,,,,5,,,46,0
292990,note_off,190,0,1,,,,,,,,,1,,,63,0
293040,note_on,50,0,1,,,,,,,,,1,,,58,44
293160,note_off,120,0,1,,,,,,,,,1,,,58,0
293160,note_on,0,0,1,,,,,,,,,1,,,62,45
293280,note_off,120,0,1,,,,,,,,,1,,,62,0
293280,note_on,0,0,1,,,,,,,,,1,,,60,46
293280,note_on,290,0,5,,,,,,,,,5,,,57,46
293400,note_on,0,0,1,,,,,,,,,1,,,63,46
293400,note_off,120,0,1,,,,,,,,,1,,,60,0
293520,note_off,240,0,5,,,,,,,,,5,,,57,0
293520,note_on,0,0,5,,,,,,,,,5,,,56,47
293520,note_on,0,0,1,,,,,,,,,1,,,62,47
293520,note_off,120,0,1,,,,,,,,,1,,,63,0
293640,note_on,0,0,1,,,,,,,,,1,,,65,48
293640,note_off,120,0,1,,,,,,,,,1,,,62,0
293720,set_tempo,1880,1,0,,,,,,465116,,,,,,,
293760,set_tempo,40,1,0,,,,,,461538,,,,,,,
293760,note_on,0,0,1,,,,,,,,,1,,,63,48
293760,note_on,0,0,5,,,,,,,,,5,,,55,48
293760,note_on,0,0,5,,,,,,,,,5,,,46,48
293760,note_off,240,0,5,,,,,,,,,5,,,56,0
293760,note_off,120,0,1,,,,,,,,,1,,,65,0
293950,note_off,0,0,5,,,,,,,,,5,,,46,0
293950,note_off,190,0,5,,,,,,,,,5,,,55,0
293950,note_off,190,0,1,,,,,,,,,1,,,63,0
294000,note_on,50,0,1,,,,,,,,,1,,,58,50
294120,note_on,0,0,1,,,,,,,,,1,,,62,50
294120,note_off,120,0,1,,,,,,,,,1,,,58,0
294240,note_on,290,0,5,,,,,,,,,5,,,57,51
294240,note_on,0,0,1,,,,,,,,,1,,,60,51
294240,note_off,120,0,1,,,,,,,,,1,,,62,0
294360,note_off,120,0,1,,,,,,,,,1,,,60,0
294360,note_on,0,0,1,,,,,,,,,1,,,63,52
294480,note_on,0,0,1,,,,,,,,,1,,,62,52
294480,note_off,120,0,1,,,,,,,,,1,,,63,0
294480,note_on,0,0,5,,,,,,,,,5,,,56,52
294480,note_off,240,0,5,,,,,,,,,5,,,57,0
294600,note_on,0,0,1,,,,,,,,,1,,,65,53
294600,note_off,120,0,1,,,,,,,,,1,,,62,0
294720,note_on,0,0,1,,,,,,,,,1,,,63,54
294720,note_off,120,0,1,,,,,,,,,1,,,65,0
294720,note_on,0,0,5,,,,,,,,,5,,,55,54
294720,note_off,240,0,5,,,,,,,,,5,,,56,0
294840,note_on,0,0,1,,,,,,,,,1,,,67,54
294840,note_off,120,0,1,,,,,,,,,1,,,63,0
294910,note_off,190,0,5,,,,,,,,,5,,,55,0
294960,note_on,0,0,1,,,,,,,,,1,,,65,55
294960,note_off,120,0,1,,,,,,,,,1,,,67,0
294960,note_on,50,0,5,,,,,,,,,5,,,50,55
295080,note_on,0,0,1,,,,,,,,,1,,,68,56
295080,note_off,120,0,1,,,,,,,,,1,,,65,0
295150,note_off,190,0,5,,,,,,,,,5,,,50,0
295200,note_on,0,0,1,,,,,,,,,1,,,67,56
295200,note_off,120,0,1,,,,,,,,,1,,,68,0
295200,note_on,50,0,5,,,,,,,,,5,,,51,56
295320,note_on,0,0,1,,,,,,,,,1,,,70,57
295320,note_off,120,0,1,,,,,,,,,1,,,67,0
295390,note_off,190,0,5,,,,,,,,,5,,,51,0
295440,note_on,0,0,1,,,,,,,,,1,,,69,58
295440,note_on,50,0,5,,,,,,,,,5,,,48,58
295440,note_off,120,0,1,,,,,,,,,1,,,70,0
295560,note_off,120,0,1,,,,,,,,,1,,,69,0
295560,note_on,0,0,1,,,,,,,,,1,,,72,58
295630,note_off,190,0,5,,,,,,,,,5,,,48,0
295640,set_tempo,1880,1,0,,,,,,465116,,,,,,,
295680,set_tempo,40,1,0,,,,,,461538,,,,,,,
295680,note_off,120,0,1,,,,,,,,,1,,,72,0
295680,note_on,0,0,1,,,,,,,,,1,,,70,59
295680,note_on,50,0,5,,,,,,,,,5,,,50,59
295800,note_on,0,0,1,,,,,,,,,1,,,72,60
295800,note_off,120,0,1,,,,,,,,,1,,,70,0
295920,note_off,120,0,1,,,,,,,,,1,,,72,0
295920,note_on,0,0,1,,,,,,,,,1,,,74,60
296040,note_off,120,0,1,,,,,,,,,1,,,74,0
296040,note_on,0,0,1,,,,,,,,,1,,,72,61
296065,note_off,385,0,5,,,,,,,,,5,,,50,0
296160,note_on,0,0,1,,,,,,,,,1,,,70,62
296160,note_off,120,0,1,,,,,,,,,1,,,72,0
296280,note_off,120,0,1,,,,,,,,,1,,,70,0
296280,note_on,0,0,1,,,,,,,,,1,,,68,62
296400,note_off,120,0,1,,,,,,,,,1,,,68,0
296400,note_on,0,0,1,,,,,,,,,1,,,67,63
296520,note_on,0,0,1,,,,,,,,,1,,,66,64
296520,note_off,120,0,1,,,,,,,,,1,,,67,0
296640,note_on,575,0,5,,,,,,,,,5,,,51,64
296640,note_off,120,0,1,,,,,,,,,1,,,66,0
296640,note_on,0,0,1,,,,,,,,,1,,,67,64
296760,note_on,0,0,1,,,,,,,,,1,,,72,65
296760,note_off,120,0,1,,,,,,,,,1,,,67,0
296880,note_off,120,0,1,,,,,,,,,1,,,72,0
296880,note_on,0,0,1,,,,,,,,,1,,,75,66
297000,note_on,0,0,1,,,,,,,,,1,,,74,66
297000,note_off,120,0,1,,,,,,,,,1,,,75,0
297025,note_off,385,0,5,,,,,,,,,5,,,51,0
297120,note_off,120,0,1,,,,,,,,,1,,,74,0
297120,note_on,0,0,1,,,,,,,,,1,,,72,67
297240,note_off,120,0,1,,,,,,,,,1,,,72,0
297240,note_on,0,0,1,,,,,,,,,1,,,70,68
297360,note_on,0,0,1,,,,,,,,,1,,,69,68
297360,note_off,120,0,1,,,,,,,,,1,,,70,0
297480,note_off,120,0,1,,,,,,,,,1,,,69,0
297480,note_on,0,0,1,,,,,,,,,1,,,67,69
297600,note_on,575,0,5,,,,,,,,,5,,,53,70
297600,note_off,120,0,1,,,,,,,,,1,,,67,0
297600,note_on,0,0,1,,,,,,,,,1,,,65,70
297720,note_off,120,0,1,,,,,,,,,1,,,65,0
297720,note_on,0,0,1,,,,,,,,,1,,,70,70
297840,note_on,0,0,1,,,,,,,,,1,,,74,71
297840,note_off,120,0,1,,,,,,,,,1,,,70,0
297840,note_on,5810,0,4,,,,,,,,,4,,,58,71
297960,note_off,120,0,1,,,,,,,,,1,,,74,0
297960,note_on,0,0,1,,,,,,,,,1,,,77,72
298080,note_on,0,0,4,,,,,,,,,4,,,62,72
298080,note_off,480,0,5,,,,,,,,,5,,,53,0
298080,note_off,240,0,4,,,,,,,,,4,,,58,0
298080,note_off,120,0,1,,,,,,,,,1,,,77,0
298080,note_on,0,0,1,,,,,,,,,1,,,82,72
298235,note_off,155,0,1,,,,,,,,,1,,,82,0
298320,note_on,85,0,1,,,,,,,,,1,,,74,74
298320,note_on,0,0,4,,,,,,,,,4,,,58,74
298320,note_on,27790,0,2,,,,,,,,,2,,,70,74
298320,note_off,240,0,4,,,,,,,,,4,,,62,0
298475,note_off,155,0,2,,,,,,,,,2,,,70,0
298475,note_off,155,0,1,,,,,,,,,1,,,74,0
298510,note_off,190,0,4,,,,,,,,,4,,,58,0
298520,set_tempo,2840,1,0,,,,,,465116,,,,,,,
298560,note_on,85,0,2,,,,,,,,,2,,,74,76
298560,note_on,480,0,5,,,,,,,,,5,,,53,75
298560,note_on,85,0,1,,,,,,,,,1,,,77,76
298800,note_off,240,0,1,,,,,,,,,1,,,77,0
298800,note_on,0,0,1,,,,,,,,,1,,,75,73
298800,note_off,240,0,2,,,,,,,,,2,,,74,0
298800,note_on,290,0,4,,,,,,,,,4,,,60,73
298800,note_on,0,0,2,,,,,,,,,2,,,72,73
298920,note_off,120,0,1,,,,,,,,,1,,,75,0
298925,note_off,125,0,2,,,,,,,,,2,,,72,0
299040,note_on,120,0,1,,,,,,,,,1,,,74,69
299040,note_off,240,0,4,,,,,,,,,4,,,60,0
299040,note_on,0,0,4,,,,,,,,,4,,,63,69
299040,note_off,480,0,5,,,,,,,,,5,,,53,0
299040,note_on,115,0,2,,,,,,,,,2,,,70,69
299165,note_off,125,0,2,,,,,,,,,2,,,70,0
299175,note_off,135,0,1,,,,,,,,,1,,,74,0
299280,note_on,105,0,1,,,,,,,,,1,,,72,64
299280,note_on,0,0,4,,,,,,,,,4,,,60,64
299280,note_off,240,0,4,,,,,,,,,4,,,63,0
299280,note_on,115,0,2,,,,,,,,,2,,,69,64
299400,note_off,120,0,2,,,,,,,,,2,,,69,0
299400,note_off,120,0,1,,,,,,,,,1,,,72,0
299470,note_off,190,0,4,,,,,,,,,4,,,60,0
299480,set_tempo,960,1,0,,,,,,472440,,,,,,,
299520,set_tempo,40,1,0,,,,,,461538,,,,,,,
299520,note_on,480,0,5,,,,,,,,,5,,,58,60
299520,note_on,50,0,4,,,,,,,,,4,,,62,60
299520,note_on,120,0,1,,,,,,,,,1,,,70,60
299710,note_off,190,0,5,,,,,,,,,5,,,58,0
299710,note_off,190,0,1,,,,,,,,,1,,,70,0
299710,note_off,190,0,4,,,,,,,,,4,,,62,0
299760,note_on,50,0,1,,,,,,,,,1,,,70,62
299880,note_on,0,0,1,,,,,,,,,1,,,74,63
299880,note_off,120,0,1,,,,,,,,,1,,,70,0
300000,note_off,120,0,1,,,,,,,,,1,,,74,0
300000,note_on,290,0,5,,,,,,,,,5,,,69,64
300000,note_on,0,0,1,,,,,,,,,1,,,72,64
300120,note_off,120,0,1,,,,,,,,,1,,,72,0
300120,note_on,0,0,1,,,,,,,,,1,,,75,65
300240,note_on,0,0,5,,,,,,,,,5,,,68,66
300240,note_off,240,0,5,,,,,,,,,5,,,69,0
300240,note_off,120,0,1,,,,,,,,,1,,,75,0
300240,note_on,0,0,1,,,,,,,,,1,,,74,66
300360,note_on,0,0,1,,,,,,,,,1,,,77,67
300360,note_off,120,0,1,,,,,,,,,1,,,74,0
300480,note_on,0,0,5,,,,,,,,,5,,,67,68
300480,note_off,240,0,5,,,,,,,,,5,,,68,0
300480,note_on,0,0,1,,,,,,,,,1,,,75,68
300480,note_on,0,0,5,,,,,,,,,5,,,58,68
300480,note_off,120,0,1,,,,,,,,,1,,,77,0
300670,note_off,190,0,1,,,,,,,,,1,,,75,0
300670,note_off,190,0,5,,,,,,,,,5,,,58,0
300670,note_off,0,0,5,,,,,,,,,5,,,67,0
300720,note_on,50,0,1,,,,,,,,,1,,,82,69
300720,note_on,50,0,5,,,,,,,,,5,,,70,69
300840,note_off,120,0,1,,,,,,,,,1,,,82,0
300840,note_on,0,0,1,,,,,,,,,1,,,86,70
300960,note_on,0,0,1,,,,,,,,,1,,,84,71
300960,note_off,240,0,5,,,,,,,,,5,,,70,0
300960,note_off,120,0,1,,,,,,,,,1,,,86,0
300960,note_on,0,0,5,,,,,,,,,5,,,69,71
301080,note_on,0,0,1,,,,,,,,,1,,,87,72
301080,note_off,120,0,1,,,,,,,,,1,,,84,0
301200,note_off,120,0,1,,,,,,,,,1,,,87,0
301200,note_on,0,0,1,,,,,,,,,1,,,86,73
301200,note_off,240,0,5,,,,,,,,,5,,,69,0
301200,note_on,0,0,5,,,,,,,,,5,,,68,73
301320,note_off,120,0,1,,,,,,,,,1,,,86,0
301320,note_on,0,0,1,,,,,,,,,1,,,89,74
301400,set_tempo,1880,1,0,,,,,,465116,,,,,,,
301440,note_on,0,0,5,,,,,,,,,5,,,58,75
301440,note_on,0,0,5,,,,,,,,,5,,,67,75
301440,note_off,240,0,5,,,,,,,,,5,,,68,0
301440,note_off,120,0,1,,,,,,,,,1,,,89,0
301440,note_on,0,0,1,,,,,,,,,1,,,87,75
301440,set_tempo,40,1,0,,,,,,461538,,,,,,,
301595,note_off,155,0,1,,,,,,,,,1,,,87,0
301630,note_off,190,0,5,,,,,,,,,5,,,67,0
301630,note_off,0,0,5,,,,,,,,,5,,,58,0
301680,note_on,85,0,1,,,,,,,,,1,,,70,77
301800,note_on,0,0,1,,,,,,,,,1,,,74,78
301800,note_off,120,0,1,,,,,,,,,1,,,70,0
301920,note_on,0,0,1,,,,,,,,,1,,,72,78
301920,note_off,120,0,1,,,,,,,,,1,,,74,0
301920,note_on,290,0,5,,,,,,,,,5,,,69,78
302040,note_on,0,0,1,,,,,,,,,1,,,75,79
302040,note_off,120,0,1,,,,,,,,,1,,,72,0
302160,note_on,0,0,1,,,,,,,,,1,,,74,80
302160,note_off,240,0,5,,,,,,,,,5,,,69,0
302160,note_on,0,0,5,,,,,,,,,5,,,68,80
302160,note_off,120,0,1,,,,,,,,,1,,,75,0
302280,note_off,120,0,1,,,,,,,,,1,,,74,0
302280,note_on,0,0,1,,,,,,,,,1,,,77,81
302400,note_on,0,0,5,,,,,,,,,5,,,67,82
302400,note_off,240,0,5,,,,,,,,,5,,,68,0
302400,note_on,0,0,1,,,,,,,,,1,,,75,82
302400,note_off,120,0,1,,,,,,,,,1,,,77,0
302520,note_off,120,0,1,,,,,,,,,1,,,75,0
302520,note_on,3120,0,2,,,,,,,,,2,,,70,83
302590,note_off,190,0,5,,,,,,,,,5,,,67,0
302640,note_off,120,0,2,,,,,,,,,2,,,70,0
302640,note_on,50,0,5,,,,,,,,,5,,,62,84
302640,note_on,120,0,1,,,,,,,,,1,,,77,84
302760,note_off,120,0,1,,,,,,,,,1,,,77,0
302760,note_on,120,0,2,,,,,,,,,2,,,70,85
302830,note_off,190,0,5,,,,,,,,,5,,,62,0
302880,note_off,120,0,2,,,,,,,,,2,,,70,0
302880,note_on,50,0,5,,,,,,,,,5,,,63,86
302880,note_on,120,0,1,,,,,,,,,1,,,79,86
303000,note_on,120,0,2,,,,,,,,,2,,,70,87
303000,note_off,120,0,1,,,,,,,,,1,,,79,0
303070,note_off,190,0,5,,,,,,,,,5,,,63,0
303120,note_on,50,0,5,,,,,,,,,5,,,60,87
303120,note_off,120,0,2,,,,,,,,,2,,,70,0
303120,note_on,120,0,1,,,,,,,,,1,,,81,87
303240,note_on,120,0,2,,,,,,,,,2,,,70,88
303240,note_off,120,0,1,,,,,,,,,1,,,81,0
303310,note_off,190,0,5,,,,,,,,,5,,,60,0
303320,set_tempo,1880,1,0,,,,,,465116,,,,,,,
303360,note_on,3650,0,4,,,,,,,,,4,,,62,89
303360,set_tempo,40,1,0,,,,,,461538,,,,,,,
303360,note_on,50,0,5,,,,,,,,,5,,,50,89
303360,note_off,120,0,2,,,,,,,,,2,,,70,0
303360,note_on,120,0,1,,,,,,,,,1,,,82,89
303480,note_off,120,0,1,,,,,,,,,1,,,82,0
303480,note_on,0,0,1,,,,,,,,,1,,,84,88
303600,note_off,120,0,1,,,,,,,,,1,,,84,0
303600,note_on,0,0,1,,,,,,,,,1,,,86,87
303720,note_off,120,0,1,,,,,,,,,1,,,86,0
303720,note_on,0,0,1,,,,,,,,,1,,,84,87
303745,note_off,385,0,5,,,,,,,,,5,,,50,0
303745,note_off,385,0,4,,,,,,,,,4,,,62,0
303840,note_on,0,0,1,,,,,,,,,1,,,82,86
303840,note_off,120,0,1,,,,,,,,,1,,,84,0
303960,note_off,120,0,1,,,,,,,,,1,,,82,0
303960,note_on,0,0,1,,,,,,,,,1,,,80,85
304080,note_on,0,0,1,,,,,,,,,1,,,79,85
304080,note_off,120,0,1,,,,,,,,,1,,,80,0
304200,note_on,0,0,1,,,,,,,,,1,,,78,84
304200,note_off,120,0,1,,,,,,,,,1,,,79,0
304320,note_on,0,0,1,,,,,,,,,1,,,79,83
304320,note_off,120,0,1,,,,,,,,,1,,,78,0
304320,note_on,575,0,4,,,,,,,,,4,,,63,83
304320,note_on,575,0,5,,,,,,,,,5,,,51,83
304440,note_on,0,0,1,,,,,,,,,1,,,77,82
304440,note_off,120,0,1,,,,,,,,,1,,,79,0
304560,note_on,0,0,1,,,,,,,,,1,,,75,82
304560,note_off,120,0,1,,,,,,,,,1,,,77,0
304680,note_off,120,0,1,,,,,,,,,1,,,75,0
304680,note_on,0,0,1,,,,,,,,,1,,,74,81
304705,note_off,385,0,5,,,,,,,,,5,,,51,0
304705,note_off,385,0,4,,,,,,,,,4,,,63,0
304800,note_on,0,0,1,,,,,,,,,1,,,72,80
304800,note_off,120,0,1,,,,,,,,,1,,,74,0
304920,note_on,0,0,1,,,,,,,,,1,,,70,80
304920,note_off,120,0,1,,,,,,,,,1,,,72,0
305040,note_on,0,0,1,,,,,,,,,1,,,69,79
305040,note_off,120,0,1,,,,,,,,,1,,,70,0
305160,note_on,0,0,1,,,,,,,,,1,,,67,78
305160,note_off,120,0,1,,,,,,,,,1,,,69,0
305240,set_tempo,1880,1,0,,,,,,465116,,,,,,,
305280,set_tempo,40,1,0,,,,,,461538,,,,,,,
305280,note_off,120,0,1,,,,,,,,,1,,,67,0
305280,note_on,0,0,1,,,,,,,,,1,,,65,78
305280,note_on,575,0,5,,,,,,,,,5,,,53,76
305400,note_on,38545,0,3,,,,,,,,,3,,,62,77
305435,note_off,155,0,1,,,,,,,,,1,,,65,0
305520,note_on,0,0,3,,,,,,,,,3,,,58,77
305520,note_off,120,0,3,,,,,,,,,3,,,62,0
305520,note_on,85,0,1,,,,,,,,,1,,,86,80
305640,note_off,120,0,3,,,,,,,,,3,,,58,0
305640,note_off,360,0,5,,,,,,,,,5,,,53,0
305640,note_on,0,0,3,,,,,,,,,3,,,62,78
305675,note_off,155,0,1,,,,,,,,,1,,,86,0
305760,note_off,120,0,3,,,,,,,,,3,,,62,0
305760,note_on,120,0,5,,,,,,,,,5,,,53,78
305760,note_on,85,0,1,,,,,,,,,1,,,86,81
305880,note_on,120,0,3,,,,,,,,,3,,,62,79
305915,note_off,155,0,1,,,,,,,,,1,,,86,0
306000,note_on,85,0,1,,,,,,,,,1,,,86,83
306000,note_off,120,0,3,,,,,,,,,3,,,62,0
306000,note_on,0,0,3,,,,,,,,,3,,,58,79
306120,note_off,360,0,5,,,,,,,,,5,,,53,0
306120,note_off,120,0,3,,,,,,,,,3,,,58,0
306120,note_on,0,0,3,,,,,,,,,3,,,62,80
306155,note_off,155,0,1,,,,,,,,,1,,,86,0
306240,note_on,85,0,1,,,,,,,,,1,,,86,84
306240,note_on,120,0,5,,,,,,,,,5,,,53,81
306240,note_off,120,0,3,,,,,,,,,3,,,62,0
306335,note_off,95,0,1,,,,,,,,,1,,,86,0
306360,note_on,25,0,1,,,,,,,,,1,,,82,85
306360,note_on,120,0,3,,,,,,,,,3,,,62,81
306455,note_off,95,0,1,,,,,,,,,1,,,82,0
306480,note_on,25,0,1,,,,,,,,,1,,,77,86
306480,note_on,0,0,3,,,,,,,,,3,,,58,82
306480,note_off,120,0,3,,,,,,,,,3,,,62,0
306575,note_off,95,0,1,,,,,,,,,1,,,77,0
306600,note_on,25,0,1,,,,,,,,,1,,,74,87
306600,note_on,0,0,3,,,,,,,,,3,,,62,82
306600,note_off,120,0,3,,,,,,,,,3,,,58,0
306600,note_off,360,0,5,,,,,,,,,5,,,53,0
306695,note_off,95,0,1,,,,,,,,,1,,,74,0
306720,note_on,25,0,1,,,,,,,,,1,,,82,88
306720,note_on,120,0,5,,,,,,,,,5,,,53,83
306720,note_off,120,0,3,,,,,,,,,3,,,62,0
306815,note_off,95,0,1,,,,,,,,,1,,,82,0
306840,note_on,25,0,1,,,,,,,,,1,,,77,88
306840,note_on,120,0,3,,,,,,,,,3,,,62,83
306935,note_off,95,0,1,,,,,,,,,1,,,77,0
306960,note_on,25,0,1,,,,,,,,,1,,,74,89
306960,note_off,120,0,3,,,,,,,,,3,,,62,0
306960,note_on,0,0,3,,,,,,,,,3,,,58,84
307055,note_off,95,0,1,,,,,,,,,1,,,74,0
307080,note_on,25,0,1,,,,,,,,,1,,,70,90
307080,note_off,120,0,3,,,,,,,,,3,,,58,0
307080,note_on,0,0,3,,,,,,,,,3,,,62,84
307080,note_off,360,0,5,,,,,,,,,5,,,53,0
307160,set_tempo,1880,1,0,,,,,,465116,,,,,,,
307175,note_off,95,0,1,,,,,,,,,1,,,70,0
307200,note_on,25,0,1,,,,,,,,,1,,,72,93
307200,note_on,120,0,5,,,,,,,,,5,,,53,84
307200,note_off,120,0,3,,,,,,,,,3,,,62,0
307280,note_on,0,0,1,,,,,,,,,1,,,74,91
307280,note_off,80,0,1,,,,,,,,,1,,,72,0
307320,note_on,120,0,3,,,,,,,,,3,,,63,83
307360,note_off,80,0,1,,,,,,,,,1,,,74,0
307360,note_on,0,0,1,,,,,,,,,1,,,72,90
307440,note_off,120,0,3,,,,,,,,,3,,,63,0
307440,note_on,0,0,3,,,,,,,,,3,,,57,81
307440,note_on,0,0,1,,,,,,,,,1,,,74,89
307440,note_off,80,0,1,,,,,,,,,1,,,72,0
307520,note_off,80,0,1,,,,,,,,,1,,,74,0
307520,note_on,0,0,1,,,,,,,,,1,,,72,88
307560,note_off,360,0,5,,,,,,,,,5,,,53,0
307560,note_on,0,0,3,,,,,,,,,3,,,63,80
307560,note_off,120,0,3,,,,,,,,,3,,,57,0
307600,note_on,0,0,1,,,,,,,,,1,,,74,87
307600,note_off,80,0,1,,,,,,,,,1,,,72,0
307680,note_on,120,0,5,,,,,,,,,5,,,53,79
307680,note_off,80,0,1,,,,,,,,,1,,,74,0
307680,note_off,120,0,3,,,,,,,,,3,,,63,0
307680,note_on,0,0,1,,,,,,,,,1,,,72,86
307760,note_off,80,0,1,,,,,,,,,1,,,72,0
307760,note_on,0,0,1,,,,,,,,,1,,,74,85
307800,note_on,120,0,3,,,,,,,,,3,,,63,77
307840,note_off,80,0,1,,,,,,,,,1,,,74,0
307840,note_on,0,0,1,,,,,,,,,1,,,72,83
307920,note_off,80,0,1,,,,,,,,,1,,,72,0
307920,note_on,0,0,1,,,,,,,,,1,,,74,82
307920,note_off,120,0,3,,,,,,,,,3,,,63,0
307920,note_on,0,0,3,,,,,,,,,3,,,57,76
308000,note_off,80,0,1,,,,,,,,,1,,,74,0
308000,note_on,0,0,1,,,,,,,,,1,,,72,81
308040,note_off,120,0,3,,,,,,,,,3,,,57,0
308040,note_off,360,0,5,,,,,,,,,5,,,53,0
308040,note_on,0,0,3,,,,,,,,,3,,,63,75
308080,note_on,0,0,1,,,,,,,,,1,,,74,80
308080,note_off,80,0,1,,,,,,,,,1,,,72,0
308160,note_on,120,0,5,,,,,,,,,5,,,53,73
308160,note_on,0,0,1,,,,,,,,,1,,,72,79
308160,note_off,80,0,1,,,,,,,,,1,,,74,0
308160,note_off,120,0,3,,,,,,,,,3,,,63,0
308240,note_on,0,0,1,,,,,,,,,1,,,74,78
308240,note_off,80,0,1,,,,,,,,,1,,,72,0
308280,note_on,120,0,3,,,,,,,,,3,,,63,72
308320,note_on,0,0,1,,,,,,,,,1,,,72,77
308320,note_off,80,0,1,,,,,,,,,1,,,74,0
308400,note_on,0,0,3,,,,,,,,,3,,,57,71
308400,note_on,0,0,1,,,,,,,,,1,,,74,75
308400,note_off,80,0,1,,,,,,,,,1,,,72,0
308400,note_off,120,0,3,,,,,,,,,3,,,63,0
308480,note_on,0,0,1,,,,,,,,,1,,,72,74
308480,note_off,80,0,1,,,,,,,,,1,,,74,0
308520,note_off,120,0,3,,,,,,,,,3,,,57,0
308520,note_on,0,0,3,,,,,,,,,3,,,63,69
308520,note_off,360,0,5,,,,,,,,,5,,,53,0
308560,note_on,0,0,1,,,,,,,,,1,,,74,73
308560,note_off,80,0,1,,,,,,,,,1,,,72,0
308640,note_off,120,0,3,,,,,,,,,3,,,63,0
308640,note_on,0,0,1,,,,,,,,,1,,,72,72
308640,note_on,120,0,5,,,,,,,,,5,,,53,68
308640,note_off,80,0,1,,,,,,,,,1,,,74,0
308720,note_off,80,0,1,,,,,,,,,1,,,72,0
308720,note_on,0,0,1,,,,,,,,,1,,,74,71
308760,note_on,120,0,3,,,,,,,,,3,,,63,66
308800,note_off,80,0,1,,,,,,,,,1,,,74,0
308800,note_on,0,0,1,,,,,,,,,1,,,72,70
308880,note_on,0,0,3,,,,,,,,,3,,,57,65
308880,note_off,120,0,3,,,,,,,,,3,,,63,0
308880,note_off,80,0,1,,,,,,,,,1,,,72,0
308880,note_on,0,0,1,,,,,,,,,1,,,70,69
309000,note_off,360,0,5,,,,,,,,,5,,,53,0
309000,note_on,0,0,3,,,,,,,,,3,,,63,64
309000,note_on,0,0,1,,,,,,,,,1,,,72,67
309000,note_off,120,0,3,,,,,,,,,3,,,57,0
309000,note_off,120,0,1,,,,,,,,,1,,,70,0
309080,set_tempo,1920,1,0,,,,,,472440,,,,,,,
309120,note_off,120,0,1,,,,,,,,,1,,,72,0
309120,set_tempo,40,1,0,,,,,,465116,,,,,,,
309120,note_on,120,0,5,,,,,,,,,5,,,58,62
309120,note_off,120,0,3,,,,,,,,,3,,,63,0
309120,note_on,0,0,1,,,,,,,,,1,,,70,63
309310,note_off,190,0,5,,,,,,,,,5,,,58,0
309360,note_on,50,0,5,,,,,,,,,5,,,70,53
309360,note_off,240,0,1,,,,,,,,,1,,,70,0
309360,note_on,0,0,1,,,,,,,,,1,,,82,53
309515,note_off,155,0,1,,,,,,,,,1,,,82,0
309600,note_on,0,0,5,,,,,,,,,5,,,69,46
309600,note_off,240,0,5,,,,,,,,,5,,,70,0
309840,note_on,0,0,5,,,,,,,,,5,,,70,48
309840,note_off,240,0,5,,,,,,,,,5,,,69,0
309840,note_on,325,0,1,,,,,,,,,1,,,82,48
310080,note_off,240,0,1,,,,,,,,,1,,,82,0
310080,note_on,0,0,1,,,,,,,,,1,,,81,50
310080,note_off,240,0,5,,,,,,,,,5,,,70,0
310080,note_on,0,0,5,,,,,,,,,5,,,72,50
310320,note_on,0,0,5,,,,,,,,,5,,,70,52
310320,note_off,240,0,1,,,,,,,,,1,,,81,0
310320,note_on,0,0,1,,,,,,,,,1,,,82,52
310320,note_off,240,0,5,,,,,,,,,5,,,72,0
310560,note_on,0,0,5,,,,,,,,,5,,,69,53
310560,note_on,0,0,1,,,,,,,,,1,,,84,53
310560,note_off,240,0,1,,,,,,,,,1,,,82,0
310560,note_off,240,0,5,,,,,,,,,5,,,70,0
310800,note_off,240,0,1,,,,,,,,,1,,,84,0
310800,note_on,0,0,1,,,,,,,,,1,,,86,55
310800,note_off,240,0,5,,,,,,,,,5,,,69,0
310800,note_on,0,0,5,,,,,,,,,5,,,68,55
310990,note_off,190,0,5,,,,,,,,,5,,,68,0
310990,note_off,190,0,1,,,,,,,,,1,,,86,0
311040,note_on,50,0,5,,,,,,,,,5,,,67,57
311040,note_on,50,0,1,,,,,,,,,1,,,87,58
311160,note_on,0,0,1,,,,,,,,,1,,,86,57
311160,note_off,120,0,1,,,,,,,,,1,,,87,0
311280,note_on,6575,0,4,,,,,,,,,4,,,58,56
311280,note_on,0,0,1,,,,,,,,,1,,,87,56
311280,note_off,120,0,1,,,,,,,,,1,,,86,0
311400,note_off,360,0,5,,,,,,,,,5,,,67,0
311400,note_on,0,0,1,,,,,,,,,1,,,86,55
311400,note_off,120,0,1,,,,,,,,,1,,,87,0
311520,note_on,120,0,5,,,,,,,,,5,,,66,55
311520,note_on,0,0,1,,,,,,,,,1,,,87,55
311520,note_off,120,0,1,,,,,,,,,1,,,86,0
311520,note_off,240,0,4,,,,,,,,,4,,,58,0
311640,note_on,0,0,1,,,,,,,,,1,,,85,54
311640,note_off,120,0,1,,,,,,,,,1,,,87,0
311760,note_on,240,0,4,,,,,,,,,4,,,58,54
311760,note_on,0,0,1,,,,,,,,,1,,,84,54
311760,note_off,120,0,1,,,,,,,,,1,,,85,0
311880,note_off,360,0,5,,,,,,,,,5,,,66,0
311880,note_on,0,0,1,,,,,,,,,1,,,82,53
311880,note_off,120,0,1,,,,,,,,,1,,,84,0
312000,note_off,240,0,4,,,,,,,,,4,,,58,0
312000,note_on,120,0,5,,,,,,,,,5,,,65,53
312000,note_on,0,0,1,,,,,,,,,1,,,81,53
312000,note_off,120,0,1,,,,,,,,,1,,,82,0
312120,note_off,120,0,1,,,,,,,,,1,,,81,0
312120,note_on,0,0,1,,,,,,,,,1,,,82,52
312240,note_on,240,0,4,,,,,,,,,4,,,58,51
312240,note_on,0,0,1,,,,,,,,,1,,,84,51
312240,note_off,120,0,1,,,,,,,,,1,,,82,0
312360,note_off,120,0,1,,,,,,,,,1,,,84,0
312360,note_off,360,0,5,,,,,,,,,5,,,65,0
312360,note_on,0,0,1,,,,,,,,,1,,,82,51
312480,note_off,240,0,4,,,,,,,,,4,,,58,0
312480,note_off,120,0,1,,,,,,,,,1,,,82,0
312480,note_on,120,0,5,,,,,,,,,5,,,69,50
312480,note_on,0,0,1,,,,,,,,,1,,,81,50
312600,note_on,0,0,1,,,,,,,,,1,,,79,50
312600,note_off,120,0,1,,,,,,,,,1,,,81,0
312720,note_on,0,0,1,,,,,,,,,1,,,77,49
312720,note_off,120,0,1,,,,,,,,,1,,,79,0
312720,note_on,240,0,4,,,,,,,,,4,,,58,49
312840,note_on,0,0,1,,,,,,,,,1,,,75,48
312840,note_off,120,0,1,,,,,,,,,1,,,77,0
312840,note_off,360,0,5,,,,,,,,,5,,,69,0
312920,set_tempo,3800,1,0,,,,,,465116,,,,,,,
312935,note_off,95,0,1,,,,,,,,,1,,,75,0
312960,note_on,25,0,1,,,,,,,,,1,,,74,48
312960,note_off,240,0,4,,,,,,,,,4,,,58,0
312960,note_on,120,0,5,,,,,,,,,5,,,70,48
312960,set_tempo,40,1,0,,,,,,461538,,,,,,,
313115,note_off,155,0,1,,,,,,,,,1,,,74,0
313150,note_off,190,0,5,,,,,,,,,5,,,70,0
313200,note_on,50,0,5,,,,,,,,,5,,,58,42
313200,note_on,85,0,1,,,,,,,,,1,,,74,42
313355,note_off,155,0,1,,,,,,,,,1,,,74,0
313440,note_on,0,0,5,,,,,,,,,5,,,57,38
313440,note_off,240,0,5,,,,,,,,,5,,,58,0
313680,note_on,325,0,1,,,,,,,,,1,,,70,39
313680,note_on,0,0,5,,,,,,,,,5,,,58,39
313680,note_off,240,0,5,,,,,,,,,5,,,57,0
313920,note_on,0,0,5,,,,,,,,,5,,,60,40
313920,note_on,0,0,1,,,,,,,,,1,,,69,40
313920,note_off,240,0,1,,,,,,,,,1,,,70,0
313920,note_off,240,0,5,,,,,,,,,5,,,58,0
314160,note_off,240,0,1,,,,,,,,,1,,,69,0
314160,note_on,0,0,1,,,,,,,,,1,,,70,41
314160,note_off,240,0,5,,,,,,,,,5,,,60,0
314160,note_on,0,0,5,,,,,,,,,5,,,58,41
314400,note_on,0,0,5,,,,,,,,,5,,,57,43
314400,note_off,240,0,1,,,,,,,,,1,,,70,0
314400,note_off,240,0,5,,,,,,,,,5,,,58,0
314400,note_on,0,0,1,,,,,,,,,1,,,72,43
314640,note_off,240,0,5,,,,,,,,,5,,,57,0
314640,note_on,0,0,1,,,,,,,,,1,,,74,44
314640,note_on,0,0,5,,,,,,,,,5,,,56,44
314640,note_off,240,0,1,,,,,,,,,1,,,72,0
314840,set_tempo,1880,1,0,,,,,,472440,,,,,,,
314880,note_off,240,0,5,,,,,,,,,5,,,56,0
314880,note_off,240,0,1,,,,,,,,,1,,,74,0
314880,note_on,0,0,1,,,,,,,,,1,,,75,45
314880,note_on,0,0,5,,,,,,,,,5,,,55,45
314880,set_tempo,40,1,0,,,,,,472440,,,,,,,
315035,note_off,155,0,1,,,,,,,,,1,,,75,0
315120,note_on,85,0,1,,,,,,,,,1,,,75,42
315160,note_off,40,0,1,,,,,,,,,1,,,75,0
315160,note_on,0,0,1,,,,,,,,,1,,,77,43
315200,note_off,40,0,1,,,,,,,,,1,,,77,0
315200,note_on,0,0,1,,,,,,,,,1,,,75,44
315240,note_off,40,0,1,,,,,,,,,1,,,75,0
315240,note_on,0,0,1,,,,,,,,,1,,,74,45
315265,note_off,385,0,5,,,,,,,,,5,,,55,0
315300,note_off,60,0,1,,,,,,,,,1,,,74,0
315300,note_on,0,0,1,,,,,,,,,1,,,75,46
315360,note_off,60,0,1,,,,,,,,,1,,,75,0
315360,note_on,0,0,1,,,,,,,,,1,,,77,48
315360,note_on,95,0,5,,,,,,,,,5,,,51,48
315600,note_off,240,0,1,,,,,,,,,1,,,77,0
315600,note_on,0,0,1,,,,,,,,,1,,,79,53
315745,note_off,385,0,5,,,,,,,,,5,,,51,0
315760,set_tempo,880,1,0,,,,,,480000,,,,,,,
315790,note_off,190,0,1,,,,,,,,,1,,,79,0
315840,note_on,12480,0,2,,,,,,,,,2,,,75,55
315840,note_on,50,0,1,,,,,,,,,1,,,79,55
315840,note_on,95,0,5,,,,,,,,,5,,,53,54
316080,note_off,240,0,1,,,,,,,,,1,,,79,0
316080,note_on,0,0,2,,,,,,,,,2,,,74,50
316080,note_off,240,0,2,,,,,,,,,2,,,75,0
316080,note_on,0,0,1,,,,,,,,,1,,,77,50
316225,note_off,385,0,5,,,,,,,,,5,,,53,0
316270,note_off,190,0,1,,,,,,,,,1,,,77,0
316270,note_off,190,0,2,,,,,,,,,2,,,74,0
316320,note_on,95,0,5,,,,,,,,,5,,,53,46
316560,note_on,290,0,2,,,,,,,,,2,,,63,42
316560,set_tempo,800,1,0,,,,,,560747,,,,,,,
316560,note_on,290,0,1,,,,,,,,,1,,,69,42
316705,note_off,385,0,5,,,,,,,,,5,,,53,0
316750,note_off,190,0,2,,,,,,,,,2,,,63,0
316750,note_off,190,0,1,,,,,,,,,1,,,69,0
316800,note_on,95,0,5,,,,,,,,,5,,,58,44
316800,note_on,50,0,1,,,,,,,,,1,,,72,44
316800,note_on,50,0,2,,,,,,,,,2,,,63,44
316800,set_tempo,240,1,0,,,,,,526315,,,,,,,
317185,note_off,385,0,5,,,,,,,,,5,,,58,0
317280,note_on,95,0,5,,,,,,,,,5,,,53,36
317380,set_tempo,580,1,0,,,,,,550458,,,,,,,
317665,note_off,385,0,5,,,,,,,,,5,,,53,0
317760,note_on,95,0,5,,,,,,,,,5,,,46,29
317760,note_on,0,0,2,,,,,,,,,2,,,62,29
317760,note_on,0,0,1,,,,,,,,,1,,,70,29
317760,note_off,960,0,1,,,,,,,,,1,,,72,0
317760,set_tempo,380,1,0,,,,,,659340,,,,,,,
317760,note_off,960,0,2,,,,,,,,,2,,,63,0
318140,set_tempo,380,1,0,,,,,,2727272,,,,,,,
318145,note_off,385,0,5,,,,,,,,,5,,,46,0
318145,note_off,385,0,1,,,,,,,,,1,,,70,0
318145,note_off,385,0,2,,,,,,,,,2,,,62,0
318720,note_on,0,0,1,,,,,,,,,1,,,70,38
318720,time_signature,580,1,0,3,4,24,8,,,,,,,,,
318720,set_tempo,0,1,0,,,,,,1500000,,,,,,,
318720,marker,0,1,0,,,,,,,,,,,,,
318720,control_change,575,0,1,,,,,,,64,0,1,,,,
318720,control_change,9600,0,3,,,,,,,64,0,3,,,,
318720,control_change,5760,0,4,,,,,,,64,0,4,,,,
318720,note_on,0,0,2,,,,,,,,,2,,,67,38
318720,control_change,575,0,2,,,,,,,64,0,2,,,,
318720,control_change,575,0,5,,,,,,,64,0,5,,,,
318720,note_on,0,0,5,,,,,,,,,5,,,51,38
319160,set_tempo,440,1,0,,,,,,1578947,,,,,,,
319200,note_on,0,0,1,,,,,,,,,1,,,68,41
319200,note_on,0,0,2,,,,,,,,,2,,,65,41
319200,note_off,480,0,2,,,,,,,,,2,,,67,0
319200,note_off,480,0,1,,,,,,,,,1,,,70,0
319200,set_tempo,40,1,0,,,,,,1500000,,,,,,,
319440,note_off,240,0,1,,,,,,,,,1,,,68,0
319440,note_on,0,0,2,,,,,,,,,2,,,63,40
319440,note_off,240,0,2,,,,,,,,,2,,,65,0
319440,note_on,0,0,1,,,,,,,,,1,,,67,40
319680,note_off,960,0,5,,,,,,,,,5,,,51,0
319680,note_on,0,0,2,,,,,,,,,2,,,68,44
319680,note_off,240,0,2,,,,,,,,,2,,,63,0
319680,note_on,0,0,1,,,,,,,,,1,,,72,44
319680,note_off,240,0,1,,,,,,,,,1,,,67,0
319920,note_off,240,0,1,,,,,,,,,1,,,72,0
319920,note_off,240,0,2,,,,,,,,,2,,,68,0
319920,note_on,0,0,2,,,,,,,,,2,,,67,44
319920,note_on,0,0,1,,,,,,,,,1,,,70,44
320110,note_off,190,0,2,,,,,,,,,2,,,67,0
320110,note_off,190,0,1,,,,,,,,,1,,,70,0
320120,set_tempo,920,1,0,,,,,,1578947,,,,,,,
320160,note_on,50,0,1,,,,,,,,,1,,,70,47
320160,set_tempo,40,1,0,,,,,,1500000,,,,,,,
320160,note_on,50,0,2,,,,,,,,,2,,,67,47
320160,note_on,480,0,5,,,,,,,,,5,,,51,47
320640,note_on,0,0,2,,,,,,,,,2,,,65,43
320640,note_on,0,0,1,,,,,,,,,1,,,68,43
320640,note_off,480,0,1,,,,,,,,,1,,,70,0
320640,note_off,480,0,2,,,,,,,,,2,,,67,0
320640,note_off,480,0,5,,,,,,,,,5,,,51,0
320640,note_on,0,0,5,,,,,,,,,5,,,53,43
321120,note_on,0,0,1,,,,,,,,,1,,,67,39
321120,note_off,480,0,1,,,,,,,,,1,,,68,0
321120,note_on,0,0,2,,,,,,,,,2,,,63,39
321120,note_on,0,0,5,,,,,,,,,5,,,55,39
321120,note_off,480,0,2,,,,,,,,,2,,,65,0
321120,note_off,480,0,5,,,,,,,,,5,,,53,0
321540,note_off,420,0,1,,,,,,,,,1,,,67,0
321540,note_off,420,0,2,,,,,,,,,2,,,63,0
321555,note_off,435,0,5,,,,,,,,,5,,,55,0
321560,set_tempo,1400,1,0,,,,,,1666666,,,,,,,
321600,note_on,45,0,5,,,,,,,,,5,,,58,38
321600,note_on,60,0,1,,,,,,,,,1,,,64,38
321600,note_on,2880,0,4,,,,,,,,,4,,,61,38
321600,set_tempo,40,1,0,,,,,,1500000,,,,,,,
322080,note_on,0,0,5,,,,,,,,,5,,,56,32
322080,note_off,480,0,1,,,,,,,,,1,,,64,0
322080,note_off,480,0,5,,,,,,,,,5,,,58,0
322080,note_off,480,0,4,,,,,,,,,4,,,61,0
322080,note_on,0,0,4,,,,,,,,,4,,,60,32
322080,note_on,0,0,1,,,,,,,,,1,,,65,32
322270,note_off,190,0,1,,,,,,,,,1,,,65,0
322280,set_tempo,680,1,0,,,,,,1578947,,,,,,,
322320,note_on,50,0,1,,,,,,,,,1,,,72,33
322320,set_tempo,40,1,0,,,,,,1500000,,,,,,,
322465,note_off,385,0,5,,,,,,,,,5,,,56,0
322465,note_off,385,0,4,,,,,,,,,4,,,60,0
322510,note_off,190,0,1,,,,,,,,,1,,,72,0
322560,note_on,50,0,1,,,,,,,,,1,,,70,34
322680,note_on,0,0,1,,,,,,,,,1,,,68,35
322680,note_off,120,0,1,,,,,,,,,1,,,70,0
322800,note_on,0,0,1,,,,,,,,,1,,,67,36
322800,note_off,120,0,1,,,,,,,,,1,,,68,0
322920,note_on,0,0,1,,,,,,,,,1,,,65,37
322920,note_off,120,0,1,,,,,,,,,1,,,67,0
323000,set_tempo,680,1,0,,,,,,1578947,,,,,,,
323015,note_off,95,0,1,,,,,,,,,1,,,65,0
323040,note_on,1500,0,2,,,,,,,,,2,,,55,39
323040,note_on,575,0,5,,,,,,,,,5,,,45,39
323040,note_on,25,0,1,,,,,,,,,1,,,63,39
323160,note_off,120,0,5,,,,,,,,,5,,,45,0
323160,note_on,0,0,5,,,,,,,,,5,,,46,37
323280,note_off,120,0,5,,,,,,,,,5,,,46,0
323280,note_on,0,0,5,,,,,,,,,5,,,48,35
323400,note_off,120,0,5,,,,,,,,,5,,,48,0
323400,note_on,0,0,5,,,,,,,,,5,,,46,33
323480,set_tempo,480,1,0,,,,,,1666666,,,,,,,
323520,note_off,480,0,2,,,,,,,,,2,,,55,0
323520,note_off,480,0,1,,,,,,,,,1,,,63,0
323520,note_on,0,0,1,,,,,,,,,1,,,62,31
323520,note_on,0,0,2,,,,,,,,,2,,,53,31
323520,set_tempo,40,1,0,,,,,,2727272,,,,,,,
323520,note_off,120,0,5,,,,,,,,,5,,,46,0
323520,note_on,0,0,5,,,,,,,,,5,,,46,31
323640,note_off,120,0,2,,,,,,,,,2,,,53,0
323640,note_off,120,0,1,,,,,,,,,1,,,62,0
323680,set_tempo,160,1,0,,,,,,1935483,,,,,,,
323685,note_off,165,0,5,,,,,,,,,5,,,46,0
323700,note_on,60,0,1,,,,,,,,,1,,,58,28
323745,note_off,45,0,1,,,,,,,,,1,,,58,0
323760,note_on,15,0,1,,,,,,,,,1,,,62,29
323760,set_tempo,80,1,0,,,,,,1578947,,,,,,,
323820,note_on,0,0,1,,,,,,,,,1,,,60,29
323820,note_off,60,0,1,,,,,,,,,1,,,62,0
323880,note_off,60,0,1,,,,,,,,,1,,,60,0
323880,note_on,0,0,1,,,,,,,,,1,,,63,30
323940,note_off,60,0,1,,,,,,,,,1,,,63,0
323940,note_on,0,0,1,,,,,,,,,1,,,62,31
324000,note_off,60,0,1,,,,,,,,,1,,,62,0
324000,note_on,0,0,1,,,,,,,,,1,,,65,32
324060,note_off,60,0,1,,,,,,,,,1,,,65,0
324060,note_on,0,0,1,,,,,,,,,1,,,63,32
324120,note_off,60,0,1,,,,,,,,,1,,,63,0
324120,note_on,0,0,1,,,,,,,,,1,,,67,33
324180,note_on,0,0,1,,,,,,,,,1,,,65,34
324180,note_off,60,0,1,,,,,,,,,1,,,67,0
324240,note_off,60,0,1,,,,,,,,,1,,,65,0
324240,note_on,0,0,1,,,,,,,,,1,,,68,35
324300,note_off,60,0,1,,,,,,,,,1,,,68,0
324300,note_on,0,0,1,,,,,,,,,1,,,67,36
324360,note_off,60,0,1,,,,,,,,,1,,,67,0
324360,note_on,0,0,1,,,,,,,,,1,,,70,36
324400,set_tempo,640,1,0,,,,,,1666666,,,,,,,
324420,note_off,60,0,1,,,,,,,,,1,,,70,0
324420,note_on,0,0,1,,,,,,,,,1,,,68,37
324440,set_tempo,40,1,0,,,,,,1818181,,,,,,,
324470,note_off,50,0,1,,,,,,,,,1,,,68,0
324480,note_on,10,0,1,,,,,,,,,1,,,72,41
324480,note_on,795,0,5,,,,,,,,,5,,,39,41
324480,set_tempo,40,1,0,,,,,,1666666,,,,,,,
324480,note_on,2015,0,4,,,,,,,,,4,,,51,41
324520,set_tempo,40,1,0,,,,,,1500000,,,,,,,
324600,note_on,0,0,1,,,,,,,,,1,,,70,39
324600,note_off,120,0,1,,,,,,,,,1,,,72,0
324800,set_tempo,280,1,0,,,,,,1578947,,,,,,,
324840,set_tempo,40,1,0,,,,,,1500000,,,,,,,
324840,note_on,240,0,1,,,,,,,,,1,,,72,40
324845,note_off,5,0,1,,,,,,,,,1,,,70,0
324865,note_off,385,0,4,,,,,,,,,4,,,51,0
324865,note_off,385,0,5,,,,,,,,,5,,,39,0
324900,note_off,55,0,1,,,,,,,,,1,,,72,0
324900,note_on,0,0,1,,,,,,,,,1,,,70,40
324960,note_off,60,0,1,,,,,,,,,1,,,70,0
324960,note_on,0,0,1,,,,,,,,,1,,,68,41
325080,note_off,120,0,1,,,,,,,,,1,,,68,0
325080,note_on,0,0,1,,,,,,,,,1,,,67,41
325200,note_off,120,0,1,,,,,,,,,1,,,67,0
325200,note_on,0,0,1,,,,,,,,,1,,,65,42
325320,note_off,120,0,1,,,,,,,,,1,,,65,0
325320,note_on,0,0,1,,,,,,,,,1,,,63,43
325400,set_tempo,560,1,0,,,,,,1578947,,,,,,,
325415,note_off,95,0,1,,,,,,,,,1,,,63,0
325440,set_tempo,40,1,0,,,,,,1500000,,,,,,,
325440,note_on,575,0,4,,,,,,,,,4,,,60,44
325440,note_on,25,0,1,,,,,,,,,1,,,79,44
325440,note_on,575,0,5,,,,,,,,,5,,,51,44
325560,note_off,120,0,1,,,,,,,,,1,,,79,0
325560,note_on,0,0,1,,,,,,,,,1,,,74,45
325680,note_off,120,0,1,,,,,,,,,1,,,74,0
325680,note_on,0,0,1,,,,,,,,,1,,,75,45
325800,note_off,120,0,1,,,,,,,,,1,,,75,0
325800,note_on,0,0,1,,,,,,,,,1,,,72,46
325825,note_off,385,0,5,,,,,,,,,5,,,51,0
325825,note_off,385,0,4,,,,,,,,,4,,,60,0
325880,set_tempo,440,1,0,,,,,,1578947,,,,,,,
325895,note_off,95,0,1,,,,,,,,,1,,,72,0
325920,set_tempo,40,1,0,,,,,,1500000,,,,,,,
325920,note_on,25,0,1,,,,,,,,,1,,,70,49
325920,note_on,95,0,5,,,,,,,,,5,,,53,49
325920,note_on,95,0,4,,,,,,,,,4,,,60,49
326400,note_off,480,0,4,,,,,,,,,4,,,60,0
326400,note_on,0,0,4,,,,,,,,,4,,,62,45
326400,note_on,0,0,1,,,,,,,,,1,,,68,45
326400,note_off,480,0,1,,,,,,,,,1,,,70,0
326400,note_off,480,0,5,,,,,,,,,5,,,53,0
326400,note_on,0,0,5,,,,,,,,,5,,,58,45
326440,note_on,0,0,1,,,,,,,,,1,,,70,45
326440,note_off,40,0,1,,,,,,,,,1,,,68,0
326480,note_on,0,0,1,,,,,,,,,1,,,68,44
326480,note_off,40,0,1,,,,,,,,,1,,,70,0
326520,note_on,0,0,1,,,,,,,,,1,,,70,44
326520,note_off,40,0,1,,,,,,,,,1,,,68,0
326560,note_off,40,0,1,,,,,,,,,1,,,70,0
326560,note_on,0,0,1,,,,,,,,,1,,,68,44
326600,note_on,0,0,1,,,,,,,,,1,,,70,44
326600,note_off,40,0,1,,,,,,,,,1,,,68,0
326640,note_off,40,0,1,,,,,,,,,1,,,70,0
326640,note_on,0,0,1,,,,,,,,,1,,,68,43
326680,note_on,0,0,1,,,,,,,,,1,,,70,43
326680,note_off,40,0,1,,,,,,,,,1,,,68,0
326720,note_off,40,0,1,,,,,,,,,1,,,70,0
326720,note_on,0,0,1,,,,,,,,,1,,,68,43
326760,note_off,40,0,1,,,,,,,,,1,,,68,0
326760,note_on,0,0,1,,,,,,,,,1,,,67,43
326820,note_off,60,0,1,,,,,,,,,1,,,67,0
326820,note_on,0,0,1,,,,,,,,,1,,,68,42
326880,note_off,60,0,1,,,,,,,,,1,,,68,0
326880,note_off,480,0,5,,,,,,,,,5,,,58,0
326880,note_on,0,0,5,,,,,,,,,5,,,60,42
326880,note_off,480,0,4,,,,,,,,,4,,,62,0
326880,note_on,0,0,4,,,,,,,,,4,,,63,42
326880,note_on,0,0,1,,,,,,,,,1,,,67,42
326960,set_tempo,1040,1,0,,,,,,1578947,,,,,,,
326975,note_off,95,0,1,,,,,,,,,1,,,67,0
327000,set_tempo,40,1,0,,,,,,1500000,,,,,,,
327000,note_on,25,0,1,,,,,,,,,1,,,75,41
327070,note_off,190,0,5,,,,,,,,,5,,,60,0
327070,note_off,190,0,4,,,,,,,,,4,,,63,0
327120,note_on,0,0,1,,,,,,,,,1,,,74,40
327120,note_off,120,0,1,,,,,,,,,1,,,75,0
327240,note_on,0,0,1,,,,,,,,,1,,,73,40
327240,note_off,120,0,1,,,,,,,,,1,,,74,0
327320,set_tempo,320,1,0,,,,,,1578947,,,,,,,
327360,note_on,290,0,4,,,,,,,,,4,,,56,42
327360,note_on,290,0,5,,,,,,,,,5,,,44,42
327360,set_tempo,40,1,0,,,,,,1578947,,,,,,,
327360,note_off,120,0,1,,,,,,,,,1,,,73,0
327360,note_on,0,0,1,,,,,,,,,1,,,71,42
327410,set_tempo,50,1,0,,,,,,1500000,,,,,,,
327455,note_off,95,0,1,,,,,,,,,1,,,71,0
327480,note_on,25,0,1,,,,,,,,,1,,,74,41
327540,note_on,0,0,1,,,,,,,,,1,,,72,38
327540,note_off,60,0,1,,,,,,,,,1,,,74,0
327590,note_off,50,0,1,,,,,,,,,1,,,72,0
327600,note_on,10,0,1,,,,,,,,,1,,,70,40
327660,note_off,60,0,1,,,,,,,,,1,,,70,0
327660,note_on,0,0,1,,,,,,,,,1,,,68,36
327710,note_off,50,0,1,,,,,,,,,1,,,68,0
327720,note_on,10,0,1,,,,,,,,,1,,,67,39
327745,note_off,385,0,5,,,,,,,,,5,,,44,0
327745,note_off,385,0,4,,,,,,,,,4,,,56,0
327780,note_off,60,0,1,,,,,,,,,1,,,67,0
327780,note_on,0,0,1,,,,,,,,,1,,,65,37
327800,set_tempo,390,1,0,,,,,,1578947,,,,,,,
327830,note_off,50,0,1,,,,,,,,,1,,,65,0
327840,note_on,95,0,4,,,,,,,,,4,,,55,38
327840,note_on,95,0,5,,,,,,,,,5,,,46,38
327840,note_on,10,0,1,,,,,,,,,1,,,63,39
328320,note_off,480,0,4,,,,,,,,,4,,,55,0
328320,note_on,0,0,4,,,,,,,,,4,,,56,34
328560,note_on,4920,0,2,,,,,,,,,2,,,62,34
328560,note_on,0,0,1,,,,,,,,,1,,,67,34
328560,note_off,720,0,1,,,,,,,,,1,,,63,0
328680,note_off,840,0,5,,,,,,,,,5,,,46,0
328680,note_off,120,0,1,,,,,,,,,1,,,67,0
328680,note_on,0,0,1,,,,,,,,,1,,,65,33
328705,note_off,385,0,4,,,,,,,,,4,,,56,0
328760,set_tempo,960,1,0,,,,,,1578947,,,,,,,
328800,note_on,0,0,5,,,,,,,,,5,,,51,34
328800,note_off,120,0,1,,,,,,,,,1,,,65,0
328800,note_on,0,0,1,,,,,,,,,1,,,63,32
328800,note_off,240,0,2,,,,,,,,,2,,,62,0
328800,control_change,120,0,5,,,,,,,64,127,5,,,,
328800,control_change,95,0,4,,,,,,,64,127,4,,,,
328800,control_change,10080,0,3,,,,,,,64,127,3,,,,
328830,set_tempo,70,1,0,,,,,,1500000,,,,,,,
328920,note_on,120,0,3,,,,,,,,,3,,,55,34
329040,note_on,0,0,3,,,,,,,,,3,,,58,33
329040,note_off,120,0,3,,,,,,,,,3,,,55,0
329160,note_on,0,0,3,,,,,,,,,3,,,55,32
329160,note_off,120,0,3,,,,,,,,,3,,,58,0
329160,note_off,360,0,5,,,,,,,,,5,,,51,0
329185,note_off,385,0,1,,,,,,,,,1,,,63,0
329220,control_change,420,0,4,,,,,,,64,0,4,,,,
329220,control_change,60,0,5,,,,,,,64,0,5,,,,
329220,control_change,60,0,3,,,,,,,64,0,3,,,,
329280,control_change,60,0,4,,,,,,,64,127,4,,,,
329280,note_off,0,0,3,,,,,,,,,3,,,55,0
329280,control_change,60,0,3,,,,,,,64,127,3,,,,
329280,note_on,0,0,5,,,,,,,,,5,,,51,32
329280,control_change,60,0,5,,,,,,,64,127,5,,,,
329400,note_on,120,0,3,,,,,,,,,3,,,55,32
329520,note_on,0,0,3,,,,,,,,,3,,,58,33
329520,note_off,120,0,3,,,,,,,,,3,,,55,0
329520,note_on,720,0,2,,,,,,,,,2,,,67,33
329520,note_on,335,0,1,,,,,,,,,1,,,70,33
329640,note_off,360,0,5,,,,,,,,,5,,,51,0
329640,note_off,120,0,3,,,,,,,,,3,,,58,0
329640,note_on,0,0,3,,,,,,,,,3,,,55,35
329700,control_change,60,0,3,,,,,,,64,0,3,,,,
329700,control_change,420,0,4,,,,,,,64,0,4,,,,
329700,control_change,60,0,5,,,,,,,64,0,5,,,,
329710,note_off,190,0,1,,,,,,,,,1,,,70,0
329710,note_off,190,0,2,,,,,,,,,2,,,67,0
329760,note_on,50,0,2,,,,,,,,,2,,,67,38
329760,control_change,60,0,3,,,,,,,64,127,3,,,,
329760,note_off,0,0,3,,,,,,,,,3,,,55,0
329760,control_change,60,0,5,,,,,,,64,127,5,,,,
329760,control_change,60,0,4,,,,,,,64,127,4,,,,
329760,note_on,50,0,1,,,,,,,,,1,,,70,38
329760,note_on,0,0,5,,,,,,,,,5,,,51,38
329880,note_on,120,0,3,,,,,,,,,3,,,55,40
329950,note_off,190,0,1,,,,,,,,,1,,,70,0
329950,note_off,190,0,2,,,,,,,,,2,,,67,0
330000,note_off,120,0,3,,,,,,,,,3,,,55,0
330000,note_on,50,0,2,,,,,,,,,2,,,67,42
330000,note_on,50,0,1,,,,,,,,,1,,,70,42
330000,note_on,0,0,3,,,,,,,,,3,,,58,42
330120,note_on,0,0,3,,,,,,,,,3,,,55,44
330120,note_off,360,0,5,,,,,,,,,5,,,51,0
330120,note_off,120,0,3,,,,,,,,,3,,,58,0
330180,control_change,60,0,5,,,,,,,64,0,5,,,,
330180,control_change,60,0,3,,,,,,,64,0,3,,,,
330180,control_change,420,0,4,,,,,,,64,0,4,,,,
330190,note_off,190,0,1,,,,,,,,,1,,,70,0
330190,note_off,190,0,2,,,,,,,,,2,,,67,0
330200,set_tempo,1370,1,0,,,,,,1578947,,,,,,,
330215,note_off,35,0,3,,,,,,,,,3,,,55,0
330240,note_on,50,0,2,,,,,,,,,2,,,68,54
330240,control_change,60,0,4,,,,,,,64,127,4,,,,
330240,control_change,25,0,3,,,,,,,64,127,3,,,,
330240,note_on,50,0,1,,,,,,,,,1,,,75,54
330240,control_change,60,0,5,,,,,,,64,127,5,,,,
330240,note_on,0,0,5,,,,,,,,,5,,,51,50
330260,set_tempo,60,1,0,,,,,,1500000,,,,,,,
330360,note_on,120,0,3,,,,,,,,,3,,,53,49
330480,note_off,240,0,1,,,,,,,,,1,,,75,0
330480,note_off,120,0,3,,,,,,,,,3,,,53,0
330480,note_on,0,0,3,,,,,,,,,3,,,56,48
330480,note_on,0,0,1,,,,,,,,,1,,,74,48
330600,note_off,120,0,3,,,,,,,,,3,,,56,0
330600,note_on,0,0,3,,,,,,,,,3,,,53,47
330600,note_off,360,0,5,,,,,,,,,5,,,51,0
330660,control_change,60,0,3,,,,,,,64,0,3,,,,
330660,control_change,420,0,4,,,,,,,64,0,4,,,,
330660,control_change,60,0,5,,,,,,,64,0,5,,,,
330720,note_off,0,0,3,,,,,,,,,3,,,53,0
330720,control_change,60,0,3,,,,,,,64,127,3,,,,
330720,note_on,0,0,5,,,,,,,,,5,,,51,46
330720,control_change,60,0,5,,,,,,,64,127,5,,,,
330720,control_change,60,0,4,,,,,,,64,127,4,,,,
330840,note_on,120,0,3,,,,,,,,,3,,,53,45
330865,note_off,385,0,1,,,,,,,,,1,,,74,0
330870,note_off,630,0,2,,,,,,,,,2,,,68,0
330960,note_off,120,0,3,,,,,,,,,3,,,53,0
330960,note_on,95,0,1,,,,,,,,,1,,,82,44
330960,note_on,0,0,3,,,,,,,,,3,,,56,44
331080,note_off,360,0,5,,,,,,,,,5,,,51,0
331080,note_on,0,0,1,,,,,,,,,1,,,80,40
331080,note_off,120,0,1,,,,,,,,,1,,,82,0
331080,note_on,0,0,3,,,,,,,,,3,,,53,43
331080,note_off,120,0,3,,,,,,,,,3,,,56,0
331140,control_change,420,0,4,,,,,,,64,0,4,,,,
331140,control_change,60,0,5,,,,,,,64,0,5,,,,
331140,control_change,60,0,3,,,,,,,64,0,3,,,,
331175,note_off,95,0,1,,,,,,,,,1,,,80,0
331200,control_change,60,0,4,,,,,,,64,127,4,,,,
331200,note_on,0,0,5,,,,,,,,,5,,,51,42
331200,note_off,0,0,3,,,,,,,,,3,,,53,0
331200,control_change,60,0,5,,,,,,,64,127,5,,,,
331200,note_on,25,0,1,,,,,,,,,1,,,79,42
331200,control_change,60,0,3,,,,,,,64,127,3,,,,
331320,note_off,120,0,1,,,,,,,,,1,,,79,0
331320,note_on,120,0,3,,,,,,,,,3,,,53,41
331320,note_on,0,0,1,,,,,,,,,1,,,77,39
331415,note_off,95,0,1,,,,,,,,,1,,,77,0
331440,note_on,25,0,1,,,,,,,,,1,,,75,40
331440,note_on,0,0,3,,,,,,,,,3,,,56,40
331440,note_off,120,0,3,,,,,,,,,3,,,53,0
331560,note_off,120,0,3,,,,,,,,,3,,,56,0
331560,note_off,120,0,1,,,,,,,,,1,,,75,0
331560,note_on,0,0,3,,,,,,,,,3,,,53,39
331560,note_off,360,0,5,,,,,,,,,5,,,51,0
331560,note_on,0,0,1,,,,,,,,,1,,,74,36
331620,control_change,60,0,3,,,,,,,64,0,3,,,,
331620,control_change,420,0,4,,,,,,,64,0,4,,,,
331620,control_change,60,0,5,,,,,,,64,0,5,,,,
331640,set_tempo,1380,1,0,,,,,,1578947,,,,,,,
331655,note_off,95,0,1,,,,,,,,,1,,,74,0
331655,note_off,35,0,3,,,,,,,,,3,,,53,0
331680,control_change,60,0,4,,,,,,,64,127,4,,,,
331680,control_change,25,0,3,,,,,,,64,127,3,,,,
331680,control_change,60,0,5,,,,,,,64,127,5,,,,
331680,set_tempo,40,1,0,,,,,,1500000,,,,,,,
331680,note_on,0,0,5,,,,,,,,,5,,,51,39
331680,note_on,25,0,1,,,,,,,,,1,,,77,39
331720,note_on,40,0,1,,,,,,,,,1,,,75,38
331740,note_off,20,0,1,,,,,,,,,1,,,77,0
331760,note_on,0,0,1,,,,,,,,,1,,,77,38
331760,note_off,20,0,1,,,,,,,,,1,,,75,0
331800,note_on,120,0,3,,,,,,,,,3,,,55,38
331800,note_on,0,0,1,,,,,,,,,1,,,75,38
331800,note_off,40,0,1,,,,,,,,,1,,,77,0
331840,note_on,0,0,1,,,,,,,,,1,,,77,37
331840,note_off,40,0,1,,,,,,,,,1,,,75,0
331880,note_off,40,0,1,,,,,,,,,1,,,77,0
331880,note_on,0,0,1,,,,,,,,,1,,,75,37
331920,note_on,0,0,1,,,,,,,,,1,,,77,37
331920,note_on,0,0,3,,,,,,,,,3,,,58,37
331920,note_off,120,0,3,,,,,,,,,3,,,55,0
331920,note_off,40,0,1,,,,,,,,,1,,,75,0
331980,note_off,60,0,1,,,,,,,,,1,,,77,0
331980,note_on,0,0,1,,,,,,,,,1,,,75,36
332040,note_off,120,0,3,,,,,,,,,3,,,58,0
332040,note_on,0,0,3,,,,,,,,,3,,,55,36
332040,note_off,360,0,5,,,,,,,,,5,,,51,0
332040,note_off,60,0,1,,,,,,,,,1,,,75,0
332040,note_on,0,0,1,,,,,,,,,1,,,74,36
332100,note_off,60,0,1,,,,,,,,,1,,,74,0
332100,note_on,0,0,1,,,,,,,,,1,,,72,35
332100,control_change,420,0,4,,,,,,,64,0,4,,,,
332100,control_change,60,0,5,,,,,,,64,0,5,,,,
332100,control_change,60,0,3,,,,,,,64,0,3,,,,
332160,control_change,60,0,5,,,,,,,64,127,5,,,,
332160,note_off,60,0,1,,,,,,,,,1,,,72,0
332160,note_on,0,0,1,,,,,,,,,1,,,70,35
332160,note_on,0,0,5,,,,,,,,,5,,,51,35
332160,control_change,60,0,4,,,,,,,64,127,4,,,,
332160,control_change,60,0,3,,,,,,,64,127,3,,,,
332160,note_off,0,0,3,,,,,,,,,3,,,55,0
332280,note_on,120,0,3,,,,,,,,,3,,,55,34
332350,note_off,190,0,1,,,,,,,,,1,,,70,0
332400,note_off,120,0,3,,,,,,,,,3,,,55,0
332400,note_on,50,0,1,,,,,,,,,1,,,70,36
332400,note_on,1530,0,2,,,,,,,,,2,,,67,36
332400,note_on,0,0,3,,,,,,,,,3,,,58,36
332520,note_off,360,0,5,,,,,,,,,5,,,51,0
332520,note_on,0,0,3,,,,,,,,,3,,,55,38
332520,note_off,120,0,3,,,,,,,,,3,,,58,0
332580,control_change,60,0,3,,,,,,,64,0,3,,,,
332580,control_change,420,0,4,,,,,,,64,0,4,,,,
332580,control_change,60,0,5,,,,,,,64,0,5,,,,
332590,note_off,190,0,1,,,,,,,,,1,,,70,0
332590,note_off,190,0,2,,,,,,,,,2,,,67,0
332640,control_change,60,0,4,,,,,,,64,127,4,,,,
332640,control_change,60,0,5,,,,,,,64,127,5,,,,
332640,note_on,0,0,5,,,,,,,,,5,,,51,41
332640,note_on,50,0,2,,,,,,,,,2,,,67,41
332640,note_on,50,0,1,,,,,,,,,1,,,70,41
332640,note_off,0,0,3,,,,,,,,,3,,,55,0
332640,control_change,60,0,3,,,,,,,64,127,3,,,,
332760,note_on,120,0,3,,,,,,,,,3,,,55,44
332830,note_off,190,0,2,,,,,,,,,2,,,67,0
332830,note_off,190,0,1,,,,,,,,,1,,,70,0
332880,note_on,50,0,1,,,,,,,,,1,,,70,47
332880,note_on,0,0,3,,,,,,,,,3,,,58,47
332880,note_off,120,0,3,,,,,,,,,3,,,55,0
332880,note_on,50,0,2,,,,,,,,,2,,,67,47
333000,note_on,0,0,3,,,,,,,,,3,,,55,50
333000,note_off,120,0,3,,,,,,,,,3,,,58,0
333000,note_off,360,0,5,,,,,,,,,5,,,51,0
333060,control_change,60,0,5,,,,,,,64,0,5,,,,
333060,control_change,420,0,4,,,,,,,64,0,4,,,,
333060,control_change,60,0,3,,,,,,,64,0,3,,,,
333070,note_off,190,0,1,,,,,,,,,1,,,70,0
333070,note_off,190,0,2,,,,,,,,,2,,,67,0
333080,set_tempo,1400,1,0,,,,,,1578947,,,,,,,
333095,note_off,35,0,3,,,,,,,,,3,,,55,0
333120,note_on,50,0,2,,,,,,,,,2,,,68,60
333120,control_change,60,0,4,,,,,,,64,127,4,,,,
333120,control_change,25,0,3,,,,,,,64,127,3,,,,
333120,note_on,0,0,5,,,,,,,,,5,,,51,56
333120,control_change,60,0,5,,,,,,,64,127,5,,,,
333120,note_on,50,0,1,,,,,,,,,1,,,75,60
333140,set_tempo,60,1,0,,,,,,1500000,,,,,,,
333240,note_on,120,0,3,,,,,,,,,3,,,53,54
333360,note_off,240,0,1,,,,,,,,,1,,,75,0
333360,note_off,120,0,3,,,,,,,,,3,,,53,0
333360,note_on,0,0,3,,,,,,,,,3,,,56,53
333360,note_on,0,0,1,,,,,,,,,1,,,74,53
333480,note_off,120,0,3,,,,,,,,,3,,,56,0
333480,note_off,360,0,5,,,,,,,,,5,,,51,0
333480,note_on,0,0,3,,,,,,,,,3,,,53,52
333540,control_change,60,0,3,,,,,,,64,0,3,,,,
333540,control_change,420,0,4,,,,,,,64,0,4,,,,
333540,control_change,60,0,5,,,,,,,64,0,5,,,,
333600,control_change,60,0,5,,,,,,,64,127,5,,,,
333600,note_on,0,0,5,,,,,,,,,5,,,51,51
333600,note_off,0,0,3,,,,,,,,,3,,,53,0
333600,control_change,60,0,4,,,,,,,64,127,4,,,,
333600,control_change,60,0,3,,,,,,,64,127,3,,,,
333720,note_on,120,0,3,,,,,,,,,3,,,53,50
333735,note_off,615,0,2,,,,,,,,,2,,,68,0
333745,note_off,385,0,1,,,,,,,,,1,,,74,0
333840,note_off,120,0,3,,,,,,,,,3,,,53,0
333840,note_on,0,0,3,,,,,,,,,3,,,56,49
333840,note_on,95,0,1,,,,,,,,,1,,,82,49
333960,note_off,360,0,5,,,,,,,,,5,,,51,0
333960,note_off,120,0,1,,,,,,,,,1,,,82,0
333960,note_on,0,0,1,,,,,,,,,1,,,80,47
333960,note_on,0,0,3,,,,,,,,,3,,,53,49
333960,note_off,120,0,3,,,,,,,,,3,,,56,0
334020,control_change,60,0,3,,,,,,,64,0,3,,,,
334020,control_change,60,0,5,,,,,,,64,0,5,,,,
334020,control_change,420,0,4,,,,,,,64,0,4,,,,
334055,note_off,95,0,1,,,,,,,,,1,,,80,0
334080,control_change,60,0,3,,,,,,,64,127,3,,,,
334080,control_change,60,0,5,,,,,,,64,127,5,,,,
334080,note_on,25,0,1,,,,,,,,,1,,,79,48
334080,control_change,60,0,4,,,,,,,64,127,4,,,,
334080,note_on,0,0,5,,,,,,,,,5,,,51,48
334080,note_off,0,0,3,,,,,,,,,3,,,53,0
334200,note_off,120,0,1,,,,,,,,,1,,,79,0
334200,note_on,0,0,1,,,,,,,,,1,,,77,44
334200,note_on,120,0,3,,,,,,,,,3,,,53,47
334295,note_off,95,0,1,,,,,,,,,1,,,77,0
334320,note_on,25,0,1,,,,,,,,,1,,,75,46
334320,note_on,0,0,3,,,,,,,,,3,,,56,46
334320,note_off,120,0,3,,,,,,,,,3,,,53,0
334440,note_off,120,0,3,,,,,,,,,3,,,56,0
334440,note_on,0,0,3,,,,,,,,,3,,,53,45
334440,note_off,360,0,5,,,,,,,,,5,,,51,0
334440,note_off,120,0,1,,,,,,,,,1,,,75,0
334440,note_on,0,0,1,,,,,,,,,1,,,74,42
334500,control_change,60,0,5,,,,,,,64,0,5,,,,
334500,control_change,420,0,4,,,,,,,64,0,4,,,,
334500,control_change,60,0,3,,,,,,,64,0,3,,,,
334520,set_tempo,1380,1,0,,,,,,1578947,,,,,,,
334535,note_off,35,0,3,,,,,,,,,3,,,53,0
334535,note_off,95,0,1,,,,,,,,,1,,,74,0
334560,note_on,60,0,5,,,,,,,,,5,,,51,43
334560,note_on,25,0,1,,,,,,,,,1,,,75,44
334560,set_tempo,40,1,0,,,,,,1500000,,,,,,,
334560,note_on,60,0,4,,,,,,,,,4,,,55,43
334680,note_on,0,0,1,,,,,,,,,1,,,77,41
334680,note_off,120,0,1,,,,,,,,,1,,,75,0
334720,note_on,0,0,1,,,,,,,,,1,,,75,40
334720,note_off,40,0,1,,,,,,,,,1,,,77,0
334760,note_off,40,0,1,,,,,,,,,1,,,75,0
334760,note_on,0,0,1,,,,,,,,,1,,,74,40
334800,note_on,0,0,1,,,,,,,,,1,,,75,39
334800,note_off,40,0,1,,,,,,,,,1,,,74,0
334860,note_on,0,0,1,,,,,,,,,1,,,77,38
334860,note_off,60,0,1,,,,,,,,,1,,,75,0
334920,note_on,0,0,1,,,,,,,,,1,,,79,37
334920,note_off,60,0,1,,,,,,,,,1,,,77,0
334945,note_off,385,0,5,,,,,,,,,5,,,51,0
334945,note_off,385,0,4,,,,,,,,,4,,,55,0
334980,note_on,0,0,1,,,,,,,,,1,,,75,36
334980,note_off,60,0,1,,,,,,,,,1,,,79,0
335040,note_off,60,0,1,,,,,,,,,1,,,75,0
335040,note_on,0,0,1,,,,,,,,,1,,,70,35
335230,note_off,190,0,1,,,,,,,,,1,,,70,0
335280,note_on,1545,0,2,,,,,,,,,2,,,67,36
335280,note_on,335,0,5,,,,,,,,,5,,,55,36
335280,note_on,50,0,1,,,,,,,,,1,,,70,36
335280,note_on,335,0,4,,,,,,,,,4,,,58,36
335520,note_on,0,0,1,,,,,,,,,1,,,68,39
335520,note_off,240,0,5,,,,,,,,,5,,,55,0
335520,note_on,0,0,5,,,,,,,,,5,,,56,39
335520,note_off,240,0,1,,,,,,,,,1,,,70,0
335520,note_on,0,0,4,,,,,,,,,4,,,60,39
335520,note_off,240,0,4,,,,,,,,,4,,,58,0
335520,note_on,0,0,2,,,,,,,,,2,,,65,39
335520,note_off,240,0,2,,,,,,,,,2,,,67,0
335760,note_off,240,0,5,,,,,,,,,5,,,56,0
335760,note_on,0,0,4,,,,,,,,,4,,,60,41
335760,note_off,240,0,4,,,,,,,,,4,,,60,0
335760,note_off,240,0,2,,,,,,,,,2,,,65,0
335760,note_on,0,0,5,,,,,,,,,5,,,57,41
335760,note_off,240,0,1,,,,,,,,,1,,,68,0
335760,note_on,0,0,2,,,,,,,,,2,,,63,41
335760,note_on,0,0,1,,,,,,,,,1,,,67,41
335950,note_off,190,0,1,,,,,,,,,1,,,67,0
335950,note_off,190,0,4,,,,,,,,,4,,,60,0
335950,note_off,190,0,5,,,,,,,,,5,,,57,0
335950,note_off,190,0,2,,,,,,,,,2,,,63,0
335960,set_tempo,1400,1,0,,,,,,1578947,,,,,,,
336000,note_on,50,0,5,,,,,,,,,5,,,58,44
336000,set_tempo,40,1,0,,,,,,1578947,,,,,,,
336000,note_on,50,0,1,,,,,,,,,1,,,70,44
336000,note_on,50,0,2,,,,,,,,,2,,,63,44
336290,note_off,290,0,1,,,,,,,,,1,,,70,0
336360,note_on,70,0,1,,,,,,,,,1,,,67,40
336385,note_off,385,0,5,,,,,,,,,5,,,58,0
336385,note_off,385,0,2,,,,,,,,,2,,,63,0
336455,note_off,95,0,1,,,,,,,,,1,,,67,0
336480,note_on,25,0,1,,,,,,,,,1,,,65,38
336480,note_on,95,0,2,,,,,,,,,2,,,62,38
336680,set_tempo,680,1,0,,,,,,1666666,,,,,,,
336720,note_on,335,0,5,,,,,,,,,5,,,58,34
336720,set_tempo,40,1,0,,,,,,1500000,,,,,,,
336865,note_off,385,0,2,,,,,,,,,2,,,62,0
336865,note_off,385,0,1,,,,,,,,,1,,,65,0
336960,note_on,0,0,5,,,,,,,,,5,,,53,33
336960,note_off,240,0,5,,,,,,,,,5,,,58,0
337200,note_on,0,0,5,,,,,,,,,5,,,50,35
337200,note_off,240,0,5,,,,,,,,,5,,,53,0
337400,set_tempo,680,1,0,,,,,,1666666,,,,,,,
337440,note_on,575,0,1,,,,,,,,,1,,,65,37
337440,note_on,0,0,5,,,,,,,,,5,,,46,37
337440,note_off,240,0,5,,,,,,,,,5,,,50,0
337480,set_tempo,80,1,0,,,,,,1500000,,,,,,,
337500,note_on,60,0,1,,,,,,,,,1,,,77,38
337560,note_off,60,0,1,,,,,,,,,1,,,65,0
337680,note_on,0,0,5,,,,,,,,,5,,,50,38
337680,note_off,240,0,5,,,,,,,,,5,,,46,0
337920,note_on,0,0,5,,,,,,,,,5,,,53,40
337920,note_off,240,0,5,,,,,,,,,5,,,50,0
337940,note_off,380,0,1,,,,,,,,,1,,,77,0
338160,note_on,220,0,1,,,,,,,,,1,,,75,42
338160,note_off,240,0,5,,,,,,,,,5,,,53,0
338160,note_on,0,0,5,,,,,,,,,5,,,58,42
338220,note_on,0,0,1,,,,,,,,,1,,,74,43
338220,note_off,60,0,1,,,,,,,,,1,,,75,0
338280,note_on,0,0,1,,,,,,,,,1,,,72,43
338280,note_off,60,0,1,,,,,,,,,1,,,74,0
338340,note_on,0,0,1,,,,,,,,,1,,,70,44
338340,note_off,60,0,1,,,,,,,,,1,,,72,0
338350,note_off,190,0,5,,,,,,,,,5,,,58,0
338400,note_on,0,0,1,,,,,,,,,1,,,69,44
338400,note_off,60,0,1,,,,,,,,,1,,,70,0
338400,note_on,2450,0,4,,,,,,,,,4,,,65,44
338400,note_on,50,0,5,,,,,,,,,5,,,63,44
338590,note_off,190,0,1,,,,,,,,,1,,,69,0
338640,note_off,240,0,5,,,,,,,,,5,,,63,0
338640,note_on,0,0,5,,,,,,,,,5,,,62,46
338640,note_on,50,0,1,,,,,,,,,1,,,70,46
338785,note_off,385,0,4,,,,,,,,,4,,,65,0
338830,note_off,190,0,1,,,,,,,,,1,,,70,0
338840,set_tempo,1360,1,0,,,,,,1578947,,,,,,,
338880,note_on,50,0,1,,,,,,,,,1,,,72,48
338880,note_on,95,0,4,,,,,,,,,4,,,63,48
338880,note_off,240,0,5,,,,,,,,,5,,,62,0
338880,note_on,0,0,5,,,,,,,,,5,,,60,48
339120,note_on,0,0,1,,,,,,,,,1,,,75,45
339120,note_on,0,0,5,,,,,,,,,5,,,58,45
339120,note_off,240,0,5,,,,,,,,,5,,,60,0
339120,note_on,0,0,4,,,,,,,,,4,,,62,45
339120,note_off,240,0,4,,,,,,,,,4,,,63,0
339120,note_off,240,0,1,,,,,,,,,1,,,72,0
339180,note_off,60,0,1,,,,,,,,,1,,,75,0
339180,note_on,0,0,1,,,,,,,,,1,,,74,44
339240,note_off,60,0,1,,,,,,,,,1,,,74,0
339240,note_on,0,0,1,,,,,,,,,1,,,72,42
339300,note_off,60,0,1,,,,,,,,,1,,,72,0
339300,note_on,0,0,1,,,,,,,,,1,,,74,41
339320,set_tempo,480,1,0,,,,,,1578947,,,,,,,
339360,set_tempo,40,1,0,,,,,,1500000,,,,,,,
339360,note_on,0,0,5,,,,,,,,,5,,,57,39
339360,note_off,240,0,4,,,,,,,,,4,,,62,0
339360,note_off,240,0,5,,,,,,,,,5,,,58,0
339360,note_on,0,0,1,,,,,,,,,1,,,75,39
339360,note_on,0,0,4,,,,,,,,,4,,,60,39
339360,note_off,60,0,1,,,,,,,,,1,,,74,0
339550,note_off,190,0,1,,,,,,,,,1,,,75,0
339550,note_off,190,0,5,,,,,,,,,5,,,57,0
339550,note_off,190,0,4,,,,,,,,,4,,,60,0
339560,set_tempo,200,1,0,,,,,,1666666,,,,,,,
339600,note_on,50,0,1,,,,,,,,,1,,,65,36
339600,set_tempo,40,1,0,,,,,,1500000,,,,,,,
339790,note_off,190,0,1,,,,,,,,,1,,,65,0
339840,note_on,50,0,1,,,,,,,,,1,,,65,39
340030,note_off,190,0,1,,,,,,,,,1,,,65,0
340080,note_on,50,0,1,,,,,,,,,1,,,65,41
340270,note_off,190,0,1,,,,,,,,,1,,,65,0
340280,set_tempo,680,1,0,,,,,,1578947,,,,,,,
340320,note_on,50,0,1,,,,,,,,,1,,,75,44
340340,set_tempo,60,1,0,,,,,,1500000,,,,,,,
340560,note_on,1010,0,5,,,,,,,,,5,,,53,45
340800,note_off,240,0,5,,,,,,,,,5,,,53,0
340800,note_on,0,0,5,,,,,,,,,5,,,57,47
341040,note_on,0,0,5,,,,,,,,,5,,,60,49
341040,note_off,720,0,1,,,,,,,,,1,,,75,0
341040,note_off,240,0,5,,,,,,,,,5,,,57,0
341040,note_on,0,0,1,,,,,,,,,1,,,77,49
341100,note_on,0,0,1,,,,,,,,,1,,,75,50
341100,note_off,60,0,1,,,,,,,,,1,,,77,0
341160,note_on,0,0,1,,,,,,,,,1,,,74,50
341160,note_off,60,0,1,,,,,,,,,1,,,75,0
341220,note_off,60,0,1,,,,,,,,,1,,,74,0
341220,note_on,0,0,1,,,,,,,,,1,,,72,51
341280,note_on,0,0,5,,,,,,,,,5,,,62,52
341280,note_off,240,0,5,,,,,,,,,5,,,60,0
341280,note_off,60,0,1,,,,,,,,,1,,,72,0
341280,note_on,0,0,1,,,,,,,,,1,,,70,52
341470,note_off,190,0,5,,,,,,,,,5,,,62,0
341470,note_off,190,0,1,,,,,,,,,1,,,70,0
341520,note_on,1970,0,4,,,,,,,,,4,,,65,54
341520,note_on,50,0,1,,,,,,,,,1,,,72,54
341520,note_on,4655,0,2,,,,,,,,,2,,,69,54
341520,note_on,50,0,5,,,,,,,,,5,,,63,54
341710,note_off,190,0,1,,,,,,,,,1,,,72,0
341710,note_off,190,0,2,,,,,,,,,2,,,69,0
341720,set_tempo,1380,1,0,,,,,,1578947,,,,,,,
341760,note_on,50,0,2,,,,,,,,,2,,,70,57
341760,note_on,0,0,5,,,,,,,,,5,,,62,57
341760,note_off,240,0,5,,,,,,,,,5,,,63,0
341760,note_on,50,0,1,,,,,,,,,1,,,74,57
341950,note_off,190,0,2,,,,,,,,,2,,,70,0
341960,note_off,200,0,1,,,,,,,,,1,,,74,0
342000,note_off,240,0,5,,,,,,,,,5,,,62,0
342000,note_on,40,0,1,,,,,,,,,1,,,77,49
342000,note_on,50,0,2,,,,,,,,,2,,,72,49
342000,note_on,0,0,5,,,,,,,,,5,,,60,49
342000,note_on,0,0,4,,,,,,,,,4,,,63,49
342000,note_off,480,0,4,,,,,,,,,4,,,65,0
342060,note_off,60,0,1,,,,,,,,,1,,,77,0
342060,note_on,0,0,1,,,,,,,,,1,,,75,47
342120,note_off,60,0,1,,,,,,,,,1,,,75,0
342120,note_on,0,0,1,,,,,,,,,1,,,74,45
342180,note_on,0,0,1,,,,,,,,,1,,,75,42
342180,note_off,60,0,1,,,,,,,,,1,,,74,0
342200,set_tempo,480,1,0,,,,,,1578947,,,,,,,
342240,note_off,240,0,5,,,,,,,,,5,,,60,0
342240,note_on,0,0,5,,,,,,,,,5,,,58,40
342240,note_off,60,0,1,,,,,,,,,1,,,75,0
342240,set_tempo,40,1,0,,,,,,1500000,,,,,,,
342240,note_off,240,0,2,,,,,,,,,2,,,72,0
342240,note_on,0,0,2,,,,,,,,,2,,,74,40
342240,note_on,0,0,1,,,,,,,,,1,,,77,40
342240,note_on,0,0,4,,,,,,,,,4,,,62,40
342240,note_off,240,0,4,,,,,,,,,4,,,63,0
342430,note_off,190,0,5,,,,,,,,,5,,,58,0
342430,note_off,190,0,2,,,,,,,,,2,,,74,0
342430,note_off,190,0,4,,,,,,,,,4,,,62,0
342430,note_off,190,0,1,,,,,,,,,1,,,77,0
342440,set_tempo,200,1,0,,,,,,1818181,,,,,,,
342480,set_tempo,40,1,0,,,,,,1500000,,,,,,,
342480,note_on,50,0,5,,,,,,,,,5,,,46,38
342670,note_off,190,0,5,,,,,,,,,5,,,46,0
342720,note_on,50,0,5,,,,,,,,,5,,,46,39
342910,note_off,190,0,5,,,,,,,,,5,,,46,0
342960,note_on,50,0,5,,,,,,,,,5,,,46,41
343150,note_off,190,0,5,,,,,,,,,5,,,46,0
343160,set_tempo,680,1,0,,,,,,1578947,,,,,,,
343200,note_on,770,0,1,,,,,,,,,1,,,80,46
343240,set_tempo,80,1,0,,,,,,1500000,,,,,,,
343440,note_on,290,0,5,,,,,,,,,5,,,50,44
343680,note_off,240,0,5,,,,,,,,,5,,,50,0
343680,note_on,0,0,5,,,,,,,,,5,,,53,46
343920,note_on,0,0,1,,,,,,,,,1,,,79,47
343920,note_off,720,0,1,,,,,,,,,1,,,80,0
343920,note_off,240,0,5,,,,,,,,,5,,,53,0
343920,note_on,0,0,5,,,,,,,,,5,,,56,47
343980,note_on,0,0,1,,,,,,,,,1,,,77,48
343980,note_off,60,0,1,,,,,,,,,1,,,79,0
344040,note_off,60,0,1,,,,,,,,,1,,,77,0
344040,note_on,0,0,1,,,,,,,,,1,,,75,48
344100,note_on,0,0,1,,,,,,,,,1,,,74,49
344100,note_off,60,0,1,,,,,,,,,1,,,75,0
344160,note_on,0,0,1,,,,,,,,,1,,,75,49
344160,note_on,0,0,5,,,,,,,,,5,,,55,49
344160,note_off,240,0,5,,,,,,,,,5,,,56,0
344160,note_off,60,0,1,,,,,,,,,1,,,74,0
344315,note_off,155,0,5,,,,,,,,,5,,,55,0
344350,note_off,190,0,1,,,,,,,,,1,,,75,0
344400,note_on,85,0,5,,,,,,,,,5,,,50,51
344400,note_on,50,0,1,,,,,,,,,1,,,77,51
344555,note_off,155,0,5,,,,,,,,,5,,,50,0
344555,note_off,155,0,1,,,,,,,,,1,,,77,0
344600,set_tempo,1360,1,0,,,,,,1578947,,,,,,,
344640,note_on,85,0,1,,,,,,,,,1,,,78,55
344680,set_tempo,80,1,0,,,,,,1500000,,,,,,,
344880,note_on,325,0,5,,,,,,,,,5,,,51,54
344880,note_on,2450,0,4,,,,,,,,,4,,,58,54
345070,note_off,190,0,5,,,,,,,,,5,,,51,0
345070,note_off,190,0,4,,,,,,,,,4,,,58,0
345120,note_on,50,0,5,,,,,,,,,5,,,51,55
345120,note_on,50,0,4,,,,,,,,,4,,,58,55
345360,note_on,0,0,1,,,,,,,,,1,,,80,57
345360,note_off,240,0,4,,,,,,,,,4,,,58,0
345360,note_off,720,0,1,,,,,,,,,1,,,78,0
345360,note_on,0,0,4,,,,,,,,,4,,,59,57
345360,note_off,240,0,5,,,,,,,,,5,,,51,0
345360,note_on,0,0,5,,,,,,,,,5,,,51,57
345480,note_off,120,0,1,,,,,,,,,1,,,80,0
345480,note_on,0,0,1,,,,,,,,,1,,,79,58
345550,note_off,190,0,4,,,,,,,,,4,,,59,0
345550,note_off,190,0,5,,,,,,,,,5,,,51,0
345600,note_on,50,0,5,,,,,,,,,5,,,51,59
345600,note_off,120,0,1,,,,,,,,,1,,,79,0
345600,note_on,0,0,1,,,,,,,,,1,,,77,59
345600,note_on,50,0,4,,,,,,,,,4,,,60,59
345720,note_off,120,0,1,,,,,,,,,1,,,77,0
345720,note_on,0,0,1,,,,,,,,,1,,,75,59
345790,note_off,190,0,5,,,,,,,,,5,,,51,0
345790,note_off,190,0,4,,,,,,,,,4,,,60,0
345840,note_on,50,0,4,,,,,,,,,4,,,57,60
345840,note_on,0,0,1,,,,,,,,,1,,,74,60
345840,note_on,50,0,5,,,,,,,,,5,,,51,60
345840,note_off,120,0,1,,,,,,,,,1,,,75,0
345960,note_on,0,0,1,,,,,,,,,1,,,72,61
345960,note_off,120,0,1,,,,,,,,,1,,,74,0
346030,note_off,190,0,5,,,,,,,,,5,,,51,0
346030,note_off,190,0,4,,,,,,,,,4,,,57,0
346040,set_tempo,1360,1,0,,,,,,1578947,,,,,,,
346055,note_off,95,0,1,,,,,,,,,1,,,72,0
346080,note_on,25,0,1,,,,,,,,,1,,,77,62
346080,note_on,50,0,4,,,,,,,,,4,,,58,62
346080,note_on,50,0,5,,,,,,,,,5,,,50,62
346160,note_on,0,0,1,,,,,,,,,1,,,76,60
346160,note_off,80,0,1,,,,,,,,,1,,,77,0
346240,note_on,0,0,1,,,,,,,,,1,,,77,60
346240,note_off,80,0,1,,,,,,,,,1,,,76,0
346270,note_off,190,0,4,,,,,,,,,4,,,58,0
346270,note_off,190,0,5,,,,,,,,,5,,,50,0
346320,note_on,0,0,1,,,,,,,,,1,,,79,59
346320,note_off,80,0,1,,,,,,,,,1,,,77,0
346320,note_on,50,0,5,,,,,,,,,5,,,51,59
346320,note_on,50,0,4,,,,,,,,,4,,,58,59
346400,note_on,0,0,1,,,,,,,,,1,,,67,58
346400,note_off,80,0,1,,,,,,,,,1,,,79,0
346480,note_off,80,0,1,,,,,,,,,1,,,67,0
346480,note_on,0,0,1,,,,,,,,,1,,,75,58
346560,note_off,240,0,4,,,,,,,,,4,,,58,0
346560,note_on,0,0,5,,,,,,,,,5,,,53,57
346560,note_off,80,0,1,,,,,,,,,1,,,75,0
346560,note_on,0,0,1,,,,,,,,,1,,,70,57
346560,note_on,0,0,4,,,,,,,,,4,,,62,57
346560,note_off,240,0,5,,,,,,,,,5,,,51,0
346750,note_off,190,0,4,,,,,,,,,4,,,62,0
346750,note_off,190,0,5,,,,,,,,,5,,,53,0
346800,note_on,50,0,5,,,,,,,,,5,,,53,55
346800,note_on,50,0,4,,,,,,,,,4,,,62,55
346990,note_off,190,0,5,,,,,,,,,5,,,53,0
346990,note_off,190,0,4,,,,,,,,,4,,,62,0
347000,set_tempo,960,1,0,,,,,,1666666,,,,,,,
347040,note_on,50,0,5,,,,,,,,,5,,,53,53
347040,note_on,50,0,4,,,,,,,,,4,,,63,53
347040,note_on,0,0,1,,,,,,,,,1,,,74,53
347040,note_on,4610,0,2,,,,,,,,,2,,,69,53
347040,note_off,480,0,1,,,,,,,,,1,,,70,0
347160,note_on,0,0,1,,,,,,,,,1,,,72,52
347160,note_off,120,0,1,,,,,,,,,1,,,74,0
347230,note_off,190,0,4,,,,,,,,,4,,,63,0
347230,note_off,190,0,5,,,,,,,,,5,,,53,0
347280,note_on,50,0,4,,,,,,,,,4,,,63,51
347280,note_on,0,0,1,,,,,,,,,1,,,70,51
347280,note_off,120,0,1,,,,,,,,,1,,,72,0
347280,note_on,50,0,5,,,,,,,,,5,,,53,51
347400,note_off,120,0,1,,,,,,,,,1,,,70,0
347400,note_on,0,0,1,,,,,,,,,1,,,72,49
347470,note_off,190,0,4,,,,,,,,,4,,,63,0
347470,note_off,190,0,5,,,,,,,,,5,,,53,0
347480,set_tempo,480,1,0,,,,,,1764705,,,,,,,
347520,note_on,50,0,5,,,,,,,,,5,,,58,48
347520,note_off,480,0,2,,,,,,,,,2,,,69,0
347520,note_on,0,0,1,,,,,,,,,1,,,70,48
347520,note_on,50,0,4,,,,,,,,,4,,,62,48
347520,set_tempo,40,1,0,,,,,,1500000,,,,,,,
347520,note_off,120,0,1,,,,,,,,,1,,,72,0
347615,note_off,95,0,5,,,,,,,,,5,,,58,0
347615,note_off,95,0,4,,,,,,,,,4,,,62,0
347640,note_on,25,0,5,,,,,,,,,5,,,58,46
347760,note_off,120,0,5,,,,,,,,,5,,,58,0
347760,note_on,0,0,5,,,,,,,,,5,,,62,47
347880,note_off,120,0,5,,,,,,,,,5,,,62,0
347880,note_on,0,0,5,,,,,,,,,5,,,65,48
348000,note_off,120,0,5,,,,,,,,,5,,,65,0
348000,note_on,0,0,5,,,,,,,,,5,,,63,49
348000,note_off,480,0,1,,,,,,,,,1,,,70,0
348120,note_off,120,0,5,,,,,,,,,5,,,63,0
348120,note_on,505,0,4,,,,,,,,,4,,,65,51
348240,note_on,240,0,1,,,,,,,,,1,,,77,51
348240,note_on,120,0,5,,,,,,,,,5,,,62,52
348240,note_off,120,0,4,,,,,,,,,4,,,65,0
348240,note_on,720,0,2,,,,,,,,,2,,,70,51
348360,note_on,120,0,4,,,,,,,,,4,,,65,53
348360,note_off,120,0,5,,,,,,,,,5,,,62,0
348430,note_off,190,0,2,,,,,,,,,2,,,70,0
348430,note_off,190,0,1,,,,,,,,,1,,,77,0
348480,note_on,120,0,5,,,,,,,,,5,,,60,54
348480,note_off,120,0,4,,,,,,,,,4,,,65,0
348480,note_on,50,0,2,,,,,,,,,2,,,72,53
348480,note_on,50,0,1,,,,,,,,,1,,,77,53
348600,note_off,120,0,5,,,,,,,,,5,,,60,0
348600,note_on,120,0,4,,,,,,,,,4,,,65,55
348670,note_off,190,0,2,,,,,,,,,2,,,72,0
348670,note_off,190,0,1,,,,,,,,,1,,,77,0
348720,note_on,50,0,2,,,,,,,,,2,,,74,55
348720,note_on,120,0,5,,,,,,,,,5,,,58,56
348720,note_off,120,0,4,,,,,,,,,4,,,65,0
348720,note_on,50,0,1,,,,,,,,,1,,,77,55
348840,note_off,120,0,5,,,,,,,,,5,,,58,0
348840,note_on,120,0,4,,,,,,,,,4,,,65,57
348910,note_off,190,0,1,,,,,,,,,1,,,77,0
348910,note_off,190,0,2,,,,,,,,,2,,,74,0
348920,set_tempo,1400,1,0,,,,,,1666666,,,,,,,
348935,note_off,95,0,4,,,,,,,,,4,,,65,0
348960,set_tempo,40,1,0,,,,,,1500000,,,,,,,
348960,note_on,50,0,2,,,,,,,,,2,,,75,57
348960,note_on,120,0,5,,,,,,,,,5,,,57,58
348960,note_on,50,0,1,,,,,,,,,1,,,77,57
349080,note_on,0,0,5,,,,,,,,,5,,,60,59
349080,note_off,120,0,5,,,,,,,,,5,,,57,0
349200,note_on,0,0,5,,,,,,,,,5,,,63,60
349200,note_off,120,0,5,,,,,,,,,5,,,60,0
349260,note_off,300,0,1,,,,,,,,,1,,,77,0
349260,note_on,0,0,1,,,,,,,,,1,,,79,60
349320,note_off,60,0,1,,,,,,,,,1,,,79,0
349320,note_on,0,0,1,,,,,,,,,1,,,77,60
349320,note_off,120,0,5,,,,,,,,,5,,,63,0
349320,note_on,0,0,5,,,,,,,,,5,,,62,61
349380,note_on,0,0,1,,,,,,,,,1,,,76,61
349380,note_off,60,0,1,,,,,,,,,1,,,77,0
349440,note_on,0,0,5,,,,,,,,,5,,,60,62
349440,note_off,60,0,1,,,,,,,,,1,,,76,0
349440,note_on,0,0,1,,,,,,,,,1,,,77,61
349440,note_off,120,0,5,,,,,,,,,5,,,62,0
349560,note_off,120,0,5,,,,,,,,,5,,,60,0
349560,note_on,0,0,5,,,,,,,,,5,,,58,64
349625,note_off,665,0,2,,,,,,,,,2,,,75,0
349630,note_off,190,0,1,,,,,,,,,1,,,77,0
349680,note_on,0,0,5,,,,,,,,,5,,,57,65
349680,note_on,50,0,1,,,,,,,,,1,,,77,63
349680,note_on,55,0,2,,,,,,,,,2,,,69,63
349680,note_off,120,0,5,,,,,,,,,5,,,58,0
349800,note_off,120,0,5,,,,,,,,,5,,,57,0
349800,note_on,0,0,5,,,,,,,,,5,,,55,66
349920,note_on,0,0,5,,,,,,,,,5,,,53,67
349920,note_on,0,0,2,,,,,,,,,2,,,70,65
349920,note_off,120,0,5,,,,,,,,,5,,,55,0
349920,note_off,240,0,2,,,,,,,,,2,,,69,0
349920,note_off,240,0,1,,,,,,,,,1,,,77,0
349920,note_on,0,0,1,,,,,,,,,1,,,79,65
350040,note_off,120,0,5,,,,,,,,,5,,,53,0
350040,note_on,0,0,5,,,,,,,,,5,,,55,68
350160,note_off,240,0,1,,,,,,,,,1,,,79,0
350160,note_on,0,0,1,,,,,,,,,1,,,81,67
350160,note_on,0,0,2,,,,,,,,,2,,,72,67
350160,note_off,240,0,2,,,,,,,,,2,,,70,0
350160,note_off,120,0,5,,,,,,,,,5,,,55,0
350160,note_on,0,0,5,,,,,,,,,5,,,51,69
350280,note_on,0,0,5,,,,,,,,,5,,,53,70
350280,note_off,120,0,5,,,,,,,,,5,,,51,0
350350,note_off,190,0,1,,,,,,,,,1,,,81,0
350360,set_tempo,1400,1,0,,,,,,1578947,,,,,,,
350375,note_off,95,0,5,,,,,,,,,5,,,53,0
350400,note_on,0,0,2,,,,,,,,,2,,,70,69
350400,set_tempo,40,1,0,,,,,,1500000,,,,,,,
350400,note_on,50,0,1,,,,,,,,,1,,,82,69
350400,note_on,25,0,5,,,,,,,,,5,,,50,71
350400,note_off,240,0,2,,,,,,,,,2,,,72,0
350520,note_on,0,0,5,,,,,,,,,5,,,53,68
350520,note_off,120,0,5,,,,,,,,,5,,,50,0
350640,note_on,0,0,5,,,,,,,,,5,,,58,66
350640,note_off,120,0,5,,,,,,,,,5,,,53,0
350700,note_on,0,0,1,,,,,,,,,1,,,84,64
350700,note_off,300,0,1,,,,,,,,,1,,,82,0
350760,note_on,0,0,1,,,,,,,,,1,,,86,63
350760,note_off,60,0,1,,,,,,,,,1,,,84,0
350760,note_off,120,0,5,,,,,,,,,5,,,58,0
350760,note_on,0,0,5,,,,,,,,,5,,,53,65
350820,note_on,0,0,1,,,,,,,,,1,,,82,62
350820,note_off,60,0,1,,,,,,,,,1,,,86,0
350840,set_tempo,440,1,0,,,,,,1578947,,,,,,,
350880,note_off,60,0,1,,,,,,,,,1,,,82,0
350880,note_on,0,0,1,,,,,,,,,1,,,77,61
350880,set_tempo,40,1,0,,,,,,1500000,,,,,,,
350880,note_off,120,0,5,,,,,,,,,5,,,53,0
350880,note_off,480,0,2,,,,,,,,,2,,,70,0
350880,note_on,0,0,5,,,,,,,,,5,,,62,63
351070,note_off,190,0,5,,,,,,,,,5,,,62,0
351070,note_off,190,0,1,,,,,,,,,1,,,77,0
351080,set_tempo,200,1,0,,,,,,1666666,,,,,,,
351120,note_on,240,0,2,,,,,,,,,2,,,74,57
351120,note_on,50,0,1,,,,,,,,,1,,,77,57
351120,note_on,50,0,5,,,,,,,,,5,,,58,60
351120,set_tempo,40,1,0,,,,,,1500000,,,,,,,
351120,note_on,2185,0,4,,,,,,,,,4,,,62,60
351360,note_on,0,0,1,,,,,,,,,1,,,75,54
351360,note_off,240,0,1,,,,,,,,,1,,,77,0
351360,note_off,240,0,4,,,,,,,,,4,,,62,0
351360,note_on,0,0,2,,,,,,,,,2,,,72,54
351360,note_on,0,0,5,,,,,,,,,5,,,60,57
351360,note_off,240,0,2,,,,,,,,,2,,,74,0
351360,note_on,0,0,4,,,,,,,,,4,,,63,57
351360,note_off,240,0,5,,,,,,,,,5,,,58,0
351600,note_off,240,0,2,,,,,,,,,2,,,72,0
351600,note_on,0,0,5,,,,,,,,,5,,,62,53
351600,note_off,240,0,5,,,,,,,,,5,,,60,0
351600,note_on,0,0,4,,,,,,,,,4,,,65,53
351600,note_off,240,0,4,,,,,,,,,4,,,63,0
351600,note_off,240,0,1,,,,,,,,,1,,,75,0
351600,note_on,0,0,1,,,,,,,,,1,,,74,50
351600,note_on,0,0,2,,,,,,,,,2,,,70,50
351790,note_off,190,0,4,,,,,,,,,4,,,65,0
351790,note_off,190,0,1,,,,,,,,,1,,,74,0
351790,note_off,190,0,5,,,,,,,,,5,,,62,0
351790,note_off,190,0,2,,,,,,,,,2,,,70,0
351800,set_tempo,680,1,0,,,,,,1666666,,,,,,,
351840,note_on,50,0,4,,,,,,,,,4,,,67,54
351840,note_on,50,0,5,,,,,,,,,5,,,63,54
351840,note_on,50,0,1,,,,,,,,,1,,,72,52
351840,set_tempo,40,1,0,,,,,,1500000,,,,,,,
352140,note_on,300,0,1,,,,,,,,,1,,,74,49
352145,note_off,5,0,1,,,,,,,,,1,,,72,0
352200,note_on,0,0,1,,,,,,,,,1,,,75,48
352200,note_off,55,0,1,,,,,,,,,1,,,74,0
352225,note_off,385,0,4,,,,,,,,,4,,,67,0
352225,note_off,385,0,5,,,,,,,,,5,,,63,0
352260,note_on,0,0,1,,,,,,,,,1,,,72,47
352260,note_off,60,0,1,,,,,,,,,1,,,75,0
352280,set_tempo,440,1,0,,,,,,1578947,,,,,,,
352320,note_on,0,0,1,,,,,,,,,1,,,79,46
352320,note_off,60,0,1,,,,,,,,,1,,,72,0
352320,set_tempo,40,1,0,,,,,,1500000,,,,,,,
352510,note_off,190,0,1,,,,,,,,,1,,,79,0
352560,note_on,335,0,5,,,,,,,,,5,,,51,45
352560,note_on,50,0,1,,,,,,,,,1,,,75,44
352560,note_on,770,0,2,,,,,,,,,2,,,67,44
352560,note_on,335,0,4,,,,,,,,,4,,,60,45
352800,note_off,240,0,5,,,,,,,,,5,,,51,0
352800,note_on,0,0,1,,,,,,,,,1,,,70,41
352800,note_off,240,0,1,,,,,,,,,1,,,75,0
352800,note_on,0,0,5,,,,,,,,,5,,,53,42
352800,note_on,0,0,4,,,,,,,,,4,,,62,42
352800,note_off,240,0,4,,,,,,,,,4,,,60,0
352800,note_on,0,0,2,,,,,,,,,2,,,65,41
352800,note_off,240,0,2,,,,,,,,,2,,,67,0
353040,note_on,0,0,4,,,,,,,,,4,,,63,39
353040,note_on,0,0,1,,,,,,,,,1,,,72,38
353040,note_off,240,0,4,,,,,,,,,4,,,62,0
353040,note_on,0,0,2,,,,,,,,,2,,,69,38
353040,note_off,240,0,2,,,,,,,,,2,,,65,0
353040,note_off,240,0,1,,,,,,,,,1,,,70,0
353220,note_off,420,0,5,,,,,,,,,5,,,53,0
353230,note_off,190,0,2,,,,,,,,,2,,,69,0
353230,note_off,190,0,1,,,,,,,,,1,,,72,0
353230,note_off,190,0,4,,,,,,,,,4,,,63,0
353240,set_tempo,920,1,0,,,,,,1578947,,,,,,,
353280,note_on,50,0,1,,,,,,,,,1,,,72,43
353280,note_on,60,0,5,,,,,,,,,5,,,58,43
353280,note_on,50,0,2,,,,,,,,,2,,,69,43
353280,note_on,50,0,4,,,,,,,,,4,,,63,43
353640,note_off,360,0,1,,,,,,,,,1,,,72,0
353640,note_on,0,0,1,,,,,,,,,1,,,73,39
353665,note_off,385,0,2,,,,,,,,,2,,,69,0
353720,set_tempo,480,1,0,,,,,,1578947,,,,,,,
353760,note_off,120,0,1,,,,,,,,,1,,,73,0
353760,note_on,95,0,2,,,,,,,,,2,,,70,38
353760,note_off,480,0,4,,,,,,,,,4,,,63,0
353760,note_on,0,0,4,,,,,,,,,4,,,62,38
353760,note_on,0,0,5,,,,,,,,,5,,,58,38
353760,set_tempo,40,1,0,,,,,,1500000,,,,,,,
353760,note_off,480,0,5,,,,,,,,,5,,,58,0
353760,note_on,0,0,1,,,,,,,,,1,,,74,38
353840,set_tempo,80,1,0,,,,,,1666666,,,,,,,
353855,note_off,95,0,4,,,,,,,,,4,,,62,0
353855,note_off,95,0,5,,,,,,,,,5,,,58,0
353880,note_on,25,0,5,,,,,,,,,5,,,58,44
353880,set_tempo,40,1,0,,,,,,1500000,,,,,,,
353950,note_off,190,0,2,,,,,,,,,2,,,70,0
353950,note_off,190,0,1,,,,,,,,,1,,,74,0
354000,note_on,50,0,2,,,,,,,,,2,,,70,45
354000,note_off,120,0,5,,,,,,,,,5,,,58,0
354000,note_on,0,0,5,,,,,,,,,5,,,62,45
354000,note_on,50,0,1,,,,,,,,,1,,,77,45
354120,note_off,120,0,5,,,,,,,,,5,,,62,0
354120,note_on,0,0,5,,,,,,,,,5,,,65,46
354190,note_off,190,0,1,,,,,,,,,1,,,77,0
354190,note_off,190,0,2,,,,,,,,,2,,,70,0
354240,note_on,0,0,5,,,,,,,,,5,,,63,47
354240,note_on,50,0,1,,,,,,,,,1,,,77,47
354240,note_on,50,0,2,,,,,,,,,2,,,72,47
354240,note_off,120,0,5,,,,,,,,,5,,,65,0
354360,note_off,120,0,5,,,,,,,,,5,,,63,0
354360,note_on,0,0,5,,,,,,,,,5,,,62,48
354430,note_off,190,0,1,,,,,,,,,1,,,77,0
354430,note_off,190,0,2,,,,,,,,,2,,,72,0
354480,note_on,50,0,2,,,,,,,,,2,,,74,49
354480,note_off,120,0,5,,,,,,,,,5,,,62,0
354480,note_on,0,0,5,,,,,,,,,5,,,60,49
354480,note_on,50,0,1,,,,,,,,,1,,,77,49
354600,note_off,120,0,5,,,,,,,,,5,,,60,0
354600,note_on,0,0,5,,,,,,,,,5,,,58,50
354670,note_off,190,0,2,,,,,,,,,2,,,74,0
354670,note_off,190,0,1,,,,,,,,,1,,,77,0
354680,set_tempo,800,1,0,,,,,,1666666,,,,,,,
354695,note_off,95,0,5,,,,,,,,,5,,,58,0
354720,note_on,50,0,1,,,,,,,,,1,,,77,52
354720,note_on,25,0,5,,,,,,,,,5,,,57,52
354720,note_on,50,0,2,,,,,,,,,2,,,75,52
354720,set_tempo,40,1,0,,,,,,1500000,,,,,,,
354840,note_off,120,0,5,,,,,,,,,5,,,57,0
354840,note_on,0,0,5,,,,,,,,,5,,,60,53
354960,note_on,0,0,5,,,,,,,,,5,,,63,54
354960,note_off,120,0,5,,,,,,,,,5,,,60,0
355020,note_off,300,0,1,,,,,,,,,1,,,77,0
355020,note_on,0,0,1,,,,,,,,,1,,,79,54
355080,note_on,0,0,1,,,,,,,,,1,,,77,55
355080,note_on,0,0,5,,,,,,,,,5,,,62,55
355080,note_off,120,0,5,,,,,,,,,5,,,63,0
355080,note_off,60,0,1,,,,,,,,,1,,,79,0
355140,note_off,60,0,1,,,,,,,,,1,,,77,0
355140,note_on,0,0,1,,,,,,,,,1,,,76,55
355200,note_on,0,0,5,,,,,,,,,5,,,60,56
355200,note_off,120,0,5,,,,,,,,,5,,,62,0
355200,note_on,0,0,1,,,,,,,,,1,,,77,56
355200,note_off,60,0,1,,,,,,,,,1,,,76,0
355320,note_on,0,0,5,,,,,,,,,5,,,58,57
355320,note_off,120,0,5,,,,,,,,,5,,,60,0
355390,note_off,190,0,1,,,,,,,,,1,,,77,0
355400,note_off,680,0,2,,,,,,,,,2,,,75,0
355440,note_on,50,0,1,,,,,,,,,1,,,77,58
355440,note_on,0,0,5,,,,,,,,,5,,,57,58
355440,note_on,40,0,2,,,,,,,,,2,,,69,58
355440,note_off,120,0,5,,,,,,,,,5,,,58,0
355560,note_off,120,0,5,,,,,,,,,5,,,57,0
355560,note_on,0,0,5,,,,,,,,,5,,,55,59
355680,note_off,240,0,1,,,,,,,,,1,,,77,0
355680,note_on,0,0,2,,,,,,,,,2,,,70,60
355680,note_off,240,0,2,,,,,,,,,2,,,69,0
355680,note_on,0,0,1,,,,,,,,,1,,,79,60
355680,note_off,120,0,5,,,,,,,,,5,,,55,0
355680,note_on,0,0,5,,,,,,,,,5,,,53,60
355800,note_on,0,0,5,,,,,,,,,5,,,55,61
355800,note_off,120,0,5,,,,,,,,,5,,,53,0
355920,note_off,120,0,5,,,,,,,,,5,,,55,0
355920,note_off,240,0,1,,,,,,,,,1,,,79,0
355920,note_on,0,0,1,,,,,,,,,1,,,81,62
355920,note_on,0,0,2,,,,,,,,,2,,,72,62
355920,note_off,240,0,2,,,,,,,,,2,,,70,0
355920,note_on,0,0,5,,,,,,,,,5,,,51,62
356040,note_off,120,0,5,,,,,,,,,5,,,51,0
356040,note_on,0,0,5,,,,,,,,,5,,,53,63
356110,note_off,190,0,1,,,,,,,,,1,,,81,0
356120,set_tempo,1400,1,0,,,,,,1578947,,,,,,,
356135,note_off,95,0,5,,,,,,,,,5,,,53,0
356160,note_on,50,0,1,,,,,,,,,1,,,82,66
356160,set_tempo,40,1,0,,,,,,1500000,,,,,,,
356160,note_off,240,0,2,,,,,,,,,2,,,72,0
356160,note_on,25,0,5,,,,,,,,,5,,,50,66
356160,note_on,0,0,2,,,,,,,,,2,,,70,66
356280,note_on,0,0,5,,,,,,,,,5,,,53,64
356280,note_off,120,0,5,,,,,,,,,5,,,50,0
356400,note_on,0,0,5,,,,,,,,,5,,,58,62
356400,note_off,120,0,5,,,,,,,,,5,,,53,0
356460,note_on,0,0,1,,,,,,,,,1,,,84,60
356460,note_off,300,0,1,,,,,,,,,1,,,82,0
356520,note_on,0,0,5,,,,,,,,,5,,,53,60
356520,note_on,0,0,1,,,,,,,,,1,,,86,59
356520,note_off,60,0,1,,,,,,,,,1,,,84,0
356520,note_off,120,0,5,,,,,,,,,5,,,58,0
356580,note_on,0,0,1,,,,,,,,,1,,,82,58
356580,note_off,60,0,1,,,,,,,,,1,,,86,0
356600,set_tempo,440,1,0,,,,,,1578947,,,,,,,
356640,note_on,0,0,1,,,,,,,,,1,,,77,57
356640,note_off,60,0,1,,,,,,,,,1,,,82,0
356640,note_off,120,0,5,,,,,,,,,5,,,53,0
356640,note_on,0,0,5,,,,,,,,,5,,,62,58
356640,set_tempo,40,1,0,,,,,,1500000,,,,,,,
356640,note_off,480,0,2,,,,,,,,,2,,,70,0
356830,note_off,190,0,1,,,,,,,,,1,,,77,0
356830,note_off,190,0,5,,,,,,,,,5,,,62,0
356840,set_tempo,200,1,0,,,,,,1578947,,,,,,,
356880,note_on,50,0,5,,,,,,,,,5,,,58,55
356880,set_tempo,40,1,0,,,,,,1500000,,,,,,,
356880,note_on,240,0,2,,,,,,,,,2,,,74,54
356880,note_on,50,0,1,,,,,,,,,1,,,77,54
356880,note_on,3025,0,4,,,,,,,,,4,,,62,55
357120,note_on,0,0,5,,,,,,,,,5,,,60,51
357120,note_off,240,0,5,,,,,,,,,5,,,58,0
357120,note_on,0,0,2,,,,,,,,,2,,,72,51
357120,note_off,240,0,2,,,,,,,,,2,,,74,0
357120,note_off,240,0,1,,,,,,,,,1,,,77,0
357120,note_on,0,0,1,,,,,,,,,1,,,75,51
357120,note_on,0,0,4,,,,,,,,,4,,,63,51
357120,note_off,240,0,4,,,,,,,,,4,,,62,0
357360,note_off,240,0,2,,,,,,,,,2,,,72,0
357360,note_on,0,0,1,,,,,,,,,1,,,74,47
357360,note_on,0,0,4,,,,,,,,,4,,,65,47
357360,note_off,240,0,4,,,,,,,,,4,,,63,0
357360,note_off,240,0,1,,,,,,,,,1,,,75,0
357360,note_on,0,0,5,,,,,,,,,5,,,62,47
357360,note_off,240,0,5,,,,,,,,,5,,,60,0
357360,note_on,0,0,2,,,,,,,,,2,,,70,47
357550,note_off,190,0,5,,,,,,,,,5,,,62,0
357550,note_off,190,0,4,,,,,,,,,4,,,65,0
357550,note_off,190,0,1,,,,,,,,,1,,,74,0
357550,note_off,190,0,2,,,,,,,,,2,,,70,0
357560,set_tempo,680,1,0,,,,,,1578947,,,,,,,
357600,note_on,50,0,5,,,,,,,,,5,,,63,49
357600,note_on,50,0,4,,,,,,,,,4,,,67,49
357600,note_on,50,0,1,,,,,,,,,1,,,71,49
357600,set_tempo,40,1,0,,,,,,1500000,,,,,,,
357660,note_on,0,0,1,,,,,,,,,1,,,72,48
357660,note_off,60,0,1,,,,,,,,,1,,,71,0
357720,note_off,60,0,1,,,,,,,,,1,,,72,0
357720,note_on,0,0,1,,,,,,,,,1,,,74,47
357780,note_off,60,0,1,,,,,,,,,1,,,74,0
357780,note_on,0,0,1,,,,,,,,,1,,,72,46
357840,note_off,60,0,1,,,,,,,,,1,,,72,0
357840,note_on,0,0,1,,,,,,,,,1,,,75,46
357900,note_off,60,0,1,,,,,,,,,1,,,75,0
357900,note_on,0,0,1,,,,,,,,,1,,,74,45
357960,note_off,60,0,1,,,,,,,,,1,,,74,0
357960,note_on,0,0,1,,,,,,,,,1,,,77,44
357985,note_off,385,0,4,,,,,,,,,4,,,67,0
357985,note_off,385,0,5,,,,,,,,,5,,,63,0
358020,note_off,60,0,1,,,,,,,,,1,,,77,0
358020,note_on,0,0,1,,,,,,,,,1,,,75,43
358040,set_tempo,440,1,0,,,,,,1578947,,,,,,,
358080,note_off,60,0,1,,,,,,,,,1,,,75,0
358080,note_on,0,0,1,,,,,,,,,1,,,79,43
358560,note_on,575,0,5,,,,,,,,,5,,,53,37
358560,note_on,0,0,4,,,,,,,,,4,,,57,37
358560,note_on,575,0,4,,,,,,,,,4,,,63,37
358560,note_off,480,0,1,,,,,,,,,1,,,79,0
358560,note_on,0,0,1,,,,,,,,,1,,,77,37
358750,note_off,190,0,4,,,,,,,,,4,,,57,0
358750,note_off,190,0,1,,,,,,,,,1,,,77,0
358800,note_on,50,0,4,,,,,,,,,4,,,60,34
358945,note_off,385,0,5,,,,,,,,,5,,,53,0
358945,note_off,145,0,4,,,,,,,,,4,,,63,0
358980,note_on,230,0,1,,,,,,,,,1,,,69,32
358990,note_off,45,0,4,,,,,,,,,4,,,60,0
359000,set_tempo,960,1,0,,,,,,1818181,,,,,,,
359040,control_change,95,0,5,,,,,,,64,127,5,,,,
359040,note_on,0,0,5,,,,,,,,,5,,,58,33
359040,control_change,24505,0,3,,,,,,,64,127,3,,,,
359040,note_on,0,0,1,,,,,,,,,1,,,70,33
359040,note_off,60,0,1,,,,,,,,,1,,,69,0
359040,set_tempo,40,1,0,,,,,,1500000,,,,,,,
359160,note_off,120,0,5,,,,,,,,,5,,,58,0
359160,note_on,120,0,3,,,,,,,,,3,,,62,34
359280,note_off,120,0,3,,,,,,,,,3,,,62,0
359280,note_on,0,0,3,,,,,,,,,3,,,65,35
359400,note_off,120,0,3,,,,,,,,,3,,,65,0
359400,note_on,0,0,3,,,,,,,,,3,,,62,36
359425,note_off,385,0,1,,,,,,,,,1,,,70,0
359460,control_change,300,0,5,,,,,,,64,0,5,,,,
359460,control_change,60,0,3,,,,,,,64,0,3,,,,
359520,control_change,60,0,5,,,,,,,64,127,5,,,,
359520,note_on,0,0,5,,,,,,,,,5,,,58,38
359520,note_off,0,0,3,,,,,,,,,3,,,62,0
359520,control_change,60,0,3,,,,,,,64,127,3,,,,
359640,note_off,120,0,5,,,,,,,,,5,,,58,0
359640,note_on,120,0,3,,,,,,,,,3,,,62,39
359760,note_on,0,0,3,,,,,,,,,3,,,65,40
359760,note_on,335,0,1,,,,,,,,,1,,,80,41
359760,note_off,120,0,3,,,,,,,,,3,,,62,0
359880,note_off,120,0,3,,,,,,,,,3,,,65,0
359880,note_on,0,0,3,,,,,,,,,3,,,62,41
359940,control_change,60,0,3,,,,,,,64,0,3,,,,
359940,control_change,300,0,5,,,,,,,64,0,5,,,,
360000,control_change,60,0,5,,,,,,,64,127,5,,,,
360000,note_on,0,0,5,,,,,,,,,5,,,63,42
360000,note_on,0,0,1,,,,,,,,,1,,,79,44
360000,note_off,0,0,3,,,,,,,,,3,,,62,0
360000,control_change,60,0,3,,,,,,,64,127,3,,,,
360000,note_off,240,0,1,,,,,,,,,1,,,80,0
360120,note_off,120,0,5,,,,,,,,,5,,,63,0
360120,note_on,0,0,5,,,,,,,,,5,,,60,43
360180,control_change,180,0,3,,,,,,,64,127,3,,,,
360180,control_change,60,0,5,,,,,,,64,127,5,,,,
360240,control_change,60,0,3,,,,,,,64,127,3,,,,
360240,note_off,240,0,1,,,,,,,,,1,,,79,0
360240,note_on,0,0,1,,,,,,,,,1,,,81,47
360240,control_change,60,0,5,,,,,,,64,127,5,,,,
360240,note_off,0,0,5,,,,,,,,,5,,,60,0
360240,note_on,0,0,5,,,,,,,,,5,,,65,44
360360,note_off,120,0,5,,,,,,,,,5,,,65,0
360360,note_on,0,0,5,,,,,,,,,5,,,63,46
360420,control_change,180,0,3,,,,,,,64,0,3,,,,
360420,control_change,60,0,5,,,,,,,64,0,5,,,,
360430,note_off,190,0,1,,,,,,,,,1,,,81,0
360440,set_tempo,1400,1,0,,,,,,1578947,,,,,,,
360455,note_off,35,0,5,,,,,,,,,5,,,63,0
360480,note_on,50,0,1,,,,,,,,,1,,,84,51
360480,set_tempo,40,1,0,,,,,,1500000,,,,,,,
360480,note_on,25,0,5,,,,,,,,,5,,,62,47
360600,note_on,0,0,5,,,,,,,,,5,,,65,48
360600,note_off,120,0,5,,,,,,,,,5,,,62,0
360720,note_on,0,0,5,,,,,,,,,5,,,62,49
360720,note_off,120,0,5,,,,,,,,,5,,,65,0
360720,note_off,240,0,1,,,,,,,,,1,,,84,0
360720,note_on,0,0,1,,,,,,,,,1,,,82,46
360840,note_off,120,0,5,,,,,,,,,5,,,62,0
360840,note_on,0,0,5,,,,,,,,,5,,,60,50
360910,note_off,190,0,1,,,,,,,,,1,,,82,0
360960,note_off,120,0,5,,,,,,,,,5,,,60,0
360960,note_on,0,0,5,,,,,,,,,5,,,58,51
361080,note_off,120,0,5,,,,,,,,,5,,,58,0
361080,note_on,0,0,5,,,,,,,,,5,,,56,52
361200,note_off,120,0,5,,,,,,,,,5,,,56,0
361200,note_on,290,0,1,,,,,,,,,1,,,68,54
361200,note_on,0,0,5,,,,,,,,,5,,,53,54
361320,note_off,120,0,5,,,,,,,,,5,,,53,0
361320,note_on,0,0,5,,,,,,,,,5,,,50,55
361440,note_off,240,0,1,,,,,,,,,1,,,68,0
361440,note_off,120,0,5,,,,,,,,,5,,,50,0
361440,note_on,0,0,5,,,,,,,,,5,,,51,56
361440,note_on,0,0,1,,,,,,,,,1,,,67,56
361560,note_off,120,0,5,,,,,,,,,5,,,51,0
361560,note_on,0,0,5,,,,,,,,,5,,,48,57
361630,note_off,190,0,1,,,,,,,,,1,,,67,0
361680,note_off,120,0,5,,,,,,,,,5,,,48,0
361680,note_on,0,0,5,,,,,,,,,5,,,53,58
361680,note_on,4130,0,2,,,,,,,,,2,,,63,58
361680,note_on,50,0,1,,,,,,,,,1,,,69,58
361800,note_on,0,0,5,,,,,,,,,5,,,41,59
361800,note_off,120,0,5,,,,,,,,,5,,,53,0
361870,note_off,190,0,2,,,,,,,,,2,,,63,0
361870,note_off,190,0,1,,,,,,,,,1,,,69,0
361880,set_tempo,1400,1,0,,,,,,1935483,,,,,,,
361895,note_off,95,0,5,,,,,,,,,5,,,41,0
361920,note_on,50,0,2,,,,,,,,,2,,,63,60
361920,note_on,50,0,1,,,,,,,,,1,,,72,60
361920,note_on,25,0,5,,,,,,,,,5,,,46,60
361920,set_tempo,40,1,0,,,,,,1666666,,,,,,,
362400,note_on,0,0,2,,,,,,,,,2,,,62,50
362400,note_off,480,0,2,,,,,,,,,2,,,63,0
362400,note_on,0,0,1,,,,,,,,,1,,,70,50
362400,note_off,480,0,1,,,,,,,,,1,,,72,0
362580,note_off,180,0,1,,,,,,,,,1,,,70,0
362585,note_off,665,0,5,,,,,,,,,5,,,46,0
362590,note_off,190,0,2,,,,,,,,,2,,,62,0
362600,set_tempo,680,1,0,,,,,,1935483,,,,,,,
362640,set_tempo,40,1,0,,,,,,1578947,,,,,,,
362640,note_on,55,0,5,,,,,,,,,5,,,56,46
362640,note_on,50,0,2,,,,,,,,,2,,,62,46
362640,note_on,60,0,1,,,,,,,,,1,,,65,46
362870,note_off,230,0,2,,,,,,,,,2,,,62,0
362880,note_on,10,0,2,,,,,,,,,2,,,63,49
362880,note_on,0,0,1,,,,,,,,,1,,,67,49
362880,note_off,240,0,5,,,,,,,,,5,,,56,0
362880,note_off,240,0,1,,,,,,,,,1,,,65,0
362880,note_on,0,0,5,,,,,,,,,5,,,55,49
363120,note_on,0,0,5,,,,,,,,,5,,,53,53
363120,note_on,0,0,2,,,,,,,,,2,,,65,53
363120,note_off,240,0,1,,,,,,,,,1,,,67,0
363120,note_on,0,0,1,,,,,,,,,1,,,68,53
363120,note_off,240,0,5,,,,,,,,,5,,,55,0
363120,note_off,240,0,2,,,,,,,,,2,,,63,0
363320,set_tempo,680,1,0,,,,,,1935483,,,,,,,
363360,set_tempo,40,1,0,,,,,,1500000,,,,,,,
363360,note_on,0,0,2,,,,,,,,,2,,,66,57
363360,note_off,240,0,2,,,,,,,,,2,,,65,0
363360,note_on,0,0,5,,,,,,,,,5,,,52,57
363360,note_on,0,0,1,,,,,,,,,1,,,69,57
363360,note_off,240,0,1,,,,,,,,,1,,,68,0
363360,note_off,240,0,5,,,,,,,,,5,,,53,0
363840,note_off,480,0,2,,,,,,,,,2,,,66,0
363840,note_on,0,0,1,,,,,,,,,1,,,70,52
363840,note_on,0,0,2,,,,,,,,,2,,,67,52
363840,note_off,480,0,1,,,,,,,,,1,,,69,0
364030,note_off,190,0,2,,,,,,,,,2,,,67,0
364030,note_off,190,0,1,,,,,,,,,1,,,70,0
364080,note_on,50,0,2,,,,,,,,,2,,,70,51
364080,note_on,50,0,1,,,,,,,,,1,,,73,51
364320,note_off,240,0,1,,,,,,,,,1,,,73,0
364320,note_on,0,0,1,,,,,,,,,1,,,67,54
364320,note_on,0,0,2,,,,,,,,,2,,,64,54
364320,note_off,240,0,2,,,,,,,,,2,,,70,0
364320,note_off,960,0,5,,,,,,,,,5,,,52,0
364320,note_on,0,0,5,,,,,,,,,5,,,48,54
364560,note_on,0,0,1,,,,,,,,,1,,,72,55
364560,note_off,240,0,1,,,,,,,,,1,,,67,0
364560,note_off,240,0,2,,,,,,,,,2,,,64,0
364560,note_on,0,0,2,,,,,,,,,2,,,68,55
364750,note_off,190,0,1,,,,,,,,,1,,,72,0
364750,note_off,190,0,2,,,,,,,,,2,,,68,0
364760,set_tempo,1400,1,0,,,,,,1666666,,,,,,,
364800,note_on,50,0,1,,,,,,,,,1,,,70,60
364800,set_tempo,40,1,0,,,,,,1500000,,,,,,,
364800,note_off,480,0,5,,,,,,,,,5,,,48,0
364800,note_on,0,0,5,,,,,,,,,5,,,49,60
364800,note_on,50,0,2,,,,,,,,,2,,,67,60
365280,note_off,480,0,1,,,,,,,,,1,,,70,0
365280,note_off,480,0,2,,,,,,,,,2,,,67,0
365280,note_on,0,0,2,,,,,,,,,2,,,65,49
365280,note_on,0,0,1,,,,,,,,,1,,,68,49
365470,note_off,190,0,1,,,,,,,,,1,,,68,0
365472,note_off,192,0,2,,,,,,,,,2,,,65,0
365480,set_tempo,680,1,0,,,,,,1578947,,,,,,,
365520,set_tempo,40,1,0,,,,,,1500000,,,,,,,
365520,note_on,50,0,1,,,,,,,,,1,,,77,48
365710,note_off,190,0,1,,,,,,,,,1,,,77,0
365760,note_on,50,0,1,,,,,,,,,1,,,77,51
365760,note_on,6770,0,4,,,,,,,,,4,,,60,51
365760,note_off,960,0,5,,,,,,,,,5,,,49,0
365760,note_on,0,0,5,,,,,,,,,5,,,56,51
365950,note_off,190,0,1,,,,,,,,,1,,,77,0
366000,note_on,50,0,1,,,,,,,,,1,,,77,54
366190,note_off,190,0,1,,,,,,,,,1,,,77,0
366200,set_tempo,680,1,0,,,,,,1578947,,,,,,,
366240,note_on,0,0,4,,,,,,,,,4,,,61,57
366240,note_off,480,0,4,,,,,,,,,4,,,60,0
366240,note_off,480,0,5,,,,,,,,,5,,,56,0
366240,note_on,0,0,5,,,,,,,,,5,,,58,57
366240,set_tempo,40,1,0,,,,,,1500000,,,,,,,
366240,note_on,50,0,1,,,,,,,,,1,,,78,57
366625,note_off,385,0,4,,,,,,,,,4,,,61,0
366625,note_off,385,0,5,,,,,,,,,5,,,58,0
366720,note_on,0,0,1,,,,,,,,,1,,,79,53
366720,note_off,480,0,1,,,,,,,,,1,,,78,0
366910,note_off,190,0,1,,,,,,,,,1,,,79,0
366960,note_on,50,0,1,,,,,,,,,1,,,82,55
367200,note_on,575,0,4,,,,,,,,,4,,,70,57
367200,note_on,575,0,5,,,,,,,,,5,,,60,57
367440,note_on,0,0,1,,,,,,,,,1,,,76,55
367440,note_off,480,0,1,,,,,,,,,1,,,82,0
367585,note_off,385,0,4,,,,,,,,,4,,,70,0
367585,note_off,385,0,5,,,,,,,,,5,,,60,0
367630,note_off,190,0,1,,,,,,,,,1,,,76,0
367640,set_tempo,1400,1,0,,,,,,1578947,,,,,,,
367680,note_on,95,0,4,,,,,,,,,4,,,70,61
367680,note_on,50,0,1,,,,,,,,,1,,,79,61
367680,note_on,95,0,5,,,,,,,,,5,,,65,61
368160,note_on,0,0,4,,,,,,,,,4,,,68,51
368160,note_off,480,0,4,,,,,,,,,4,,,70,0
368160,note_on,0,0,1,,,,,,,,,1,,,77,51
368160,note_off,480,0,1,,,,,,,,,1,,,79,0
368340,note_off,660,0,5,,,,,,,,,5,,,65,0
368345,note_off,185,0,1,,,,,,,,,1,,,77,0
368350,note_off,190,0,4,,,,,,,,,4,,,68,0
368360,set_tempo,720,1,0,,,,,,1764705,,,,,,,
368400,note_on,60,0,5,,,,,,,,,5,,,41,46
368400,set_tempo,40,1,0,,,,,,1500000,,,,,,,
368590,note_off,190,0,5,,,,,,,,,5,,,41,0
368640,note_on,50,0,5,,,,,,,,,5,,,41,49
368830,note_off,190,0,5,,,,,,,,,5,,,41,0
368880,note_on,50,0,5,,,,,,,,,5,,,41,52
369070,note_off,190,0,5,,,,,,,,,5,,,41,0
369080,set_tempo,680,1,0,,,,,,1578947,,,,,,,
369120,set_tempo,40,1,0,,,,,,1500000,,,,,,,
369120,note_on,50,0,5,,,,,,,,,5,,,41,56
369360,note_on,1015,0,1,,,,,,,,,1,,,80,48
369600,note_on,0,0,1,,,,,,,,,1,,,79,50
369600,note_off,240,0,1,,,,,,,,,1,,,80,0
369720,note_off,120,0,1,,,,,,,,,1,,,79,0
369720,note_on,0,0,1,,,,,,,,,1,,,77,51
369840,note_on,0,0,1,,,,,,,,,1,,,75,52
369840,note_off,120,0,1,,,,,,,,,1,,,77,0
369960,note_on,0,0,1,,,,,,,,,1,,,73,53
369960,note_off,120,0,1,,,,,,,,,1,,,75,0
370080,note_off,120,0,1,,,,,,,,,1,,,73,0
370080,note_on,0,0,1,,,,,,,,,1,,,72,54
370200,note_off,120,0,1,,,,,,,,,1,,,72,0
370200,note_on,0,0,1,,,,,,,,,1,,,73,55
370270,note_off,1150,0,5,,,,,,,,,5,,,41,0
370320,note_off,120,0,1,,,,,,,,,1,,,73,0
370320,note_on,0,0,1,,,,,,,,,1,,,77,56
370440,note_off,120,0,1,,,,,,,,,1,,,77,0
370440,note_on,0,0,1,,,,,,,,,1,,,73,57
370520,set_tempo,1400,1,0,,,,,,1666666,,,,,,,
370535,note_off,95,0,1,,,,,,,,,1,,,73,0
370560,note_on,25,0,1,,,,,,,,,1,,,72,60
370560,note_on,290,0,5,,,,,,,,,5,,,41,60
370560,note_on,0,0,2,,,,,,,,,2,,,69,60
370560,note_on,5088,0,2,,,,,,,,,2,,,62,60
370560,set_tempo,40,1,0,,,,,,1500000,,,,,,,
371040,note_on,0,0,1,,,,,,,,,1,,,71,51
371040,note_off,480,0,1,,,,,,,,,1,,,72,0
371135,note_off,575,0,5,,,,,,,,,5,,,41,0
371280,note_on,145,0,5,,,,,,,,,5,,,41,50
371470,note_off,190,0,5,,,,,,,,,5,,,41,0
371520,note_on,50,0,5,,,,,,,,,5,,,41,53
371710,note_off,190,0,5,,,,,,,,,5,,,41,0
371760,note_on,50,0,5,,,,,,,,,5,,,41,57
371795,note_off,1235,0,2,,,,,,,,,2,,,62,0
371810,note_off,15,0,2,,,,,,,,,2,,,69,0
371810,note_off,770,0,1,,,,,,,,,1,,,71,0
371950,note_off,190,0,5,,,,,,,,,5,,,41,0
371960,set_tempo,1400,1,0,,,,,,1578947,,,,,,,
372000,note_on,50,0,5,,,,,,,,,5,,,42,60
372000,set_tempo,40,1,0,,,,,,1500000,,,,,,,
372240,note_on,430,0,1,,,,,,,,,1,,,72,50
372240,note_on,430,0,2,,,,,,,,,2,,,63,50
372430,note_off,190,0,1,,,,,,,,,1,,,72,0
372480,note_on,50,0,1,,,,,,,,,1,,,71,53
372600,note_off,120,0,1,,,,,,,,,1,,,71,0
372600,note_on,0,0,1,,,,,,,,,1,,,72,54
372625,note_off,385,0,2,,,,,,,,,2,,,63,0
372720,note_on,0,0,1,,,,,,,,,1,,,74,56
372720,note_off,120,0,1,,,,,,,,,1,,,72,0
372720,note_on,95,0,2,,,,,,,,,2,,,63,56
372840,note_off,120,0,1,,,,,,,,,1,,,74,0
372840,note_on,0,0,1,,,,,,,,,1,,,72,57
372960,note_on,0,0,1,,,,,,,,,1,,,71,58
372960,note_off,120,0,1,,,,,,,,,1,,,72,0
373080,note_on,0,0,1,,,,,,,,,1,,,72,60
373080,note_off,120,0,1,,,,,,,,,1,,,71,0
373105,note_off,385,0,2,,,,,,,,,2,,,63,0
373150,note_off,1150,0,5,,,,,,,,,5,,,42,0
373200,note_on,95,0,2,,,,,,,,,2,,,63,61
373200,note_on,0,0,1,,,,,,,,,1,,,75,61
373200,note_off,120,0,1,,,,,,,,,1,,,72,0
373320,note_on,0,0,1,,,,,,,,,1,,,74,63
373320,note_off,120,0,1,,,,,,,,,1,,,75,0
373400,set_tempo,1400,1,0,,,,,,1666666,,,,,,,
373415,note_off,95,0,1,,,,,,,,,1,,,74,0
373440,set_tempo,40,1,0,,,,,,1500000,,,,,,,
373440,note_on,25,0,1,,,,,,,,,1,,,71,66
373440,note_on,290,0,5,,,,,,,,,5,,,43,66
373920,note_on,0,0,1,,,,,,,,,1,,,72,56
373920,note_off,480,0,1,,,,,,,,,1,,,71,0
373920,note_off,720,0,2,,,,,,,,,2,,,63,0
373920,note_on,0,0,2,,,,,,,,,2,,,63,56
374015,note_off,575,0,5,,,,,,,,,5,,,43,0
374160,note_on,145,0,5,,,,,,,,,5,,,43,56
374350,note_off,190,0,5,,,,,,,,,5,,,43,0
374400,note_on,50,0,5,,,,,,,,,5,,,43,59
374590,note_off,190,0,5,,,,,,,,,5,,,43,0
374640,note_on,50,0,5,,,,,,,,,5,,,43,63
374690,note_off,770,0,1,,,,,,,,,1,,,72,0
374690,note_off,770,0,2,,,,,,,,,2,,,63,0
374830,note_off,190,0,5,,,,,,,,,5,,,43,0
374840,set_tempo,1400,1,0,,,,,,1578947,,,,,,,
374880,set_tempo,40,1,0,,,,,,1500000,,,,,,,
374880,note_on,50,0,5,,,,,,,,,5,,,44,66
375120,note_on,430,0,2,,,,,,,,,2,,,63,59
375120,note_on,430,0,1,,,,,,,,,1,,,72,59
375310,note_off,190,0,2,,,,,,,,,2,,,63,0
375310,note_off,190,0,1,,,,,,,,,1,,,72,0
375360,note_on,50,0,2,,,,,,,,,2,,,63,61
375360,note_on,50,0,1,,,,,,,,,1,,,72,61
375550,note_off,190,0,2,,,,,,,,,2,,,63,0
375550,note_off,190,0,1,,,,,,,,,1,,,72,0
375600,note_on,50,0,2,,,,,,,,,2,,,63,63
375600,note_on,50,0,1,,,,,,,,,1,,,72,63
375790,note_off,190,0,2,,,,,,,,,2,,,63,0
375790,note_off,190,0,1,,,,,,,,,1,,,72,0
375840,note_on,50,0,2,,,,,,,,,2,,,63,65
375840,note_on,50,0,1,,,,,,,,,1,,,72,65
375840,note_off,960,0,5,,,,,,,,,5,,,44,0
375840,note_on,0,0,5,,,,,,,,,5,,,45,65
376030,note_off,190,0,1,,,,,,,,,1,,,72,0
376030,note_off,190,0,2,,,,,,,,,2,,,63,0
376080,note_on,50,0,1,,,,,,,,,1,,,72,68
376080,note_on,50,0,2,,,,,,,,,2,,,63,68
376225,note_off,385,0,5,,,,,,,,,5,,,45,0
376270,note_off,190,0,2,,,,,,,,,2,,,63,0
376270,note_off,190,0,1,,,,,,,,,1,,,72,0
376280,set_tempo,1400,1,0,,,,,,1578947,,,,,,,
376320,note_on,50,0,1,,,,,,,,,1,,,73,72
376320,note_on,95,0,5,,,,,,,,,5,,,46,72
376320,note_on,50,0,2,,,,,,,,,2,,,63,72
376320,set_tempo,40,1,0,,,,,,1500000,,,,,,,
376620,note_on,0,0,1,,,,,,,,,1,,,72,67
376620,note_off,300,0,1,,,,,,,,,1,,,73,0
376680,note_off,60,0,1,,,,,,,,,1,,,72,0
376680,note_on,0,0,1,,,,,,,,,1,,,70,66
376740,note_off,60,0,1,,,,,,,,,1,,,70,0
376740,note_on,0,0,1,,,,,,,,,1,,,68,65
376760,set_tempo,440,1,0,,,,,,1578947,,,,,,,
376800,set_tempo,40,1,0,,,,,,1500000,,,,,,,
376800,note_off,480,0,5,,,,,,,,,5,,,46,0
376800,note_on,0,0,5,,,,,,,,,5,,,49,64
376800,note_off,60,0,1,,,,,,,,,1,,,68,0
376800,note_on,0,0,1,,,,,,,,,1,,,67,64
376980,note_off,660,0,2,,,,,,,,,2,,,63,0
376990,note_off,190,0,1,,,,,,,,,1,,,67,0
377000,set_tempo,200,1,0,,,,,,1578947,,,,,,,
377040,note_on,50,0,1,,,,,,,,,1,,,79,67
377040,set_tempo,40,1,0,,,,,,1500000,,,,,,,
377185,note_off,385,0,5,,,,,,,,,5,,,49,0
377280,note_on,95,0,5,,,,,,,,,5,,,48,70
377280,note_on,0,0,1,,,,,,,,,1,,,80,70
377280,note_off,240,0,1,,,,,,,,,1,,,79,0
377520,note_off,240,0,1,,,,,,,,,1,,,80,0
377520,note_on,0,0,1,,,,,,,,,1,,,72,73
377665,note_off,385,0,5,,,,,,,,,5,,,48,0
377760,note_on,95,0,5,,,,,,,,,5,,,49,76
377880,note_on,360,0,1,,,,,,,,,1,,,70,67
377895,note_off,15,0,1,,,,,,,,,1,,,72,0
378000,note_off,105,0,1,,,,,,,,,1,,,70,0
378000,note_on,0,0,1,,,,,,,,,1,,,73,64
378120,note_on,0,0,1,,,,,,,,,1,,,77,61
378120,note_off,120,0,1,,,,,,,,,1,,,73,0
378145,note_off,385,0,5,,,,,,,,,5,,,49,0
378215,note_off,95,0,1,,,,,,,,,1,,,77,0
378240,note_on,9890,0,4,,,,,,,,,4,,,60,64
378240,note_on,25,0,1,,,,,,,,,1,,,68,58
378240,note_on,95,0,5,,,,,,,,,5,,,51,64
378720,note_off,480,0,4,,,,,,,,,4,,,60,0
378720,note_on,0,0,4,,,,,,,,,4,,,61,53
378920,set_tempo,1880,1,0,,,,,,1578947,,,,,,,
378945,note_off,705,0,1,,,,,,,,,1,,,68,0
378960,note_on,1980,0,2,,,,,,,,,2,,,67,46
378960,note_on,15,0,1,,,,,,,,,1,,,72,46
379080,note_on,0,0,1,,,,,,,,,1,,,70,43
379080,note_off,120,0,1,,,,,,,,,1,,,72,0
379095,note_off,855,0,5,,,,,,,,,5,,,51,0
379105,note_off,385,0,4,,,,,,,,,4,,,61,0
379160,set_tempo,240,1,0,,,,,,1666666,,,,,,,
379200,set_tempo,40,1,0,,,,,,1578947,,,,,,,
379200,note_off,240,0,2,,,,,,,,,2,,,67,0
379200,control_change,105,0,5,,,,,,,64,127,5,,,,
379200,note_on,0,0,5,,,,,,,,,5,,,56,44
379200,note_off,120,0,1,,,,,,,,,1,,,70,0
379200,note_on,0,0,1,,,,,,,,,1,,,68,44
379200,control_change,18780,0,3,,,,,,,64,127,3,,,,
379240,set_tempo,40,1,0,,,,,,1500000,,,,,,,
379320,note_on,120,0,3,,,,,,,,,3,,,60,44
379440,note_on,0,0,3,,,,,,,,,3,,,63,45
379440,note_off,120,0,3,,,,,,,,,3,,,60,0
379560,note_off,120,0,3,,,,,,,,,3,,,63,0
379560,note_on,0,0,3,,,,,,,,,3,,,60,45
379620,control_change,420,0,5,,,,,,,64,0,5,,,,
379620,control_change,60,0,3,,,,,,,64,0,3,,,,
379680,control_change,60,0,5,,,,,,,64,127,5,,,,
379680,note_off,480,0,1,,,,,,,,,1,,,68,0
379680,note_off,0,0,5,,,,,,,,,5,,,56,0
379680,control_change,60,0,3,,,,,,,64,127,3,,,,
379680,note_off,0,0,3,,,,,,,,,3,,,60,0
379680,note_on,0,0,5,,,,,,,,,5,,,56,46
379800,note_on,120,0,3,,,,,,,,,3,,,60,47
379920,note_on,240,0,1,,,,,,,,,1,,,72,47
379920,note_on,720,0,2,,,,,,,,,2,,,68,47
379920,note_off,120,0,3,,,,,,,,,3,,,60,0
379920,note_on,0,0,3,,,,,,,,,3,,,63,47
380040,note_on,0,0,3,,,,,,,,,3,,,60,48
380040,note_off,120,0,3,,,,,,,,,3,,,63,0
380100,control_change,420,0,5,,,,,,,64,0,5,,,,
380100,control_change,60,0,3,,,,,,,64,0,3,,,,
380110,note_off,190,0,1,,,,,,,,,1,,,72,0
380110,note_off,190,0,2,,,,,,,,,2,,,68,0
380160,control_change,60,0,3,,,,,,,64,127,3,,,,
380160,note_on,50,0,1,,,,,,,,,1,,,72,50
380160,note_off,0,0,3,,,,,,,,,3,,,60,0
380160,note_on,50,0,2,,,,,,,,,2,,,68,50
380160,note_on,0,0,5,,,,,,,,,5,,,56,50
380160,note_off,0,0,5,,,,,,,,,5,,,56,0
380160,control_change,60,0,5,,,,,,,64,127,5,,,,
380280,note_on,120,0,3,,,,,,,,,3,,,60,51
380350,note_off,190,0,2,,,,,,,,,2,,,68,0
380350,note_off,190,0,1,,,,,,,,,1,,,72,0
380400,note_on,50,0,2,,,,,,,,,2,,,68,53
380400,note_on,50,0,1,,,,,,,,,1,,,72,53
380400,note_off,120,0,3,,,,,,,,,3,,,60,0
380400,note_on,0,0,3,,,,,,,,,3,,,63,53
380520,note_off,120,0,3,,,,,,,,,3,,,63,0
380520,note_on,0,0,3,,,,,,,,,3,,,60,54
380580,control_change,60,0,3,,,,,,,64,0,3,,,,
380580,control_change,420,0,5,,,,,,,64,0,5,,,,
380590,note_off,190,0,2,,,,,,,,,2,,,68,0
380590,note_off,190,0,1,,,,,,,,,1,,,72,0
380600,set_tempo,1360,1,0,,,,,,1666666,,,,,,,
380610,note_off,30,0,5,,,,,,,,,5,,,56,0
380615,note_off,35,0,3,,,,,,,,,3,,,60,0
380640,note_on,50,0,1,,,,,,,,,1,,,77,70
380640,control_change,30,0,5,,,,,,,64,127,5,,,,
380640,note_on,0,0,5,,,,,,,,,5,,,55,63
380640,set_tempo,40,1,0,,,,,,1500000,,,,,,,
380640,note_on,0,0,2,,,,,,,,,2,,,72,70
380640,note_on,50,0,2,,,,,,,,,2,,,70,70
380640,control_change,25,0,3,,,,,,,64,127,3,,,,
380760,note_on,120,0,3,,,,,,,,,3,,,58,60
380880,note_off,120,0,3,,,,,,,,,3,,,58,0
380880,note_on,0,0,3,,,,,,,,,3,,,60,57
380880,note_off,240,0,1,,,,,,,,,1,,,77,0
380880,note_on,0,0,1,,,,,,,,,1,,,76,57
381000,note_on,0,0,3,,,,,,,,,3,,,58,55
381000,note_off,120,0,3,,,,,,,,,3,,,60,0
381060,control_change,60,0,3,,,,,,,64,0,3,,,,
381060,control_change,420,0,5,,,,,,,64,0,5,,,,
381120,control_change,60,0,3,,,,,,,64,127,3,,,,
381120,note_on,0,0,5,,,,,,,,,5,,,55,52
381120,note_off,0,0,5,,,,,,,,,5,,,55,0
381120,control_change,60,0,5,,,,,,,64,127,5,,,,
381120,note_off,0,0,3,,,,,,,,,3,,,58,0
381215,note_off,575,0,2,,,,,,,,,2,,,72,0
381215,note_off,0,0,2,,,,,,,,,2,,,70,0
381240,note_on,120,0,3,,,,,,,,,3,,,58,54
381265,note_off,385,0,1,,,,,,,,,1,,,76,0
381360,note_on,95,0,1,,,,,,,,,1,,,72,55
381360,note_on,145,0,2,,,,,,,,,2,,,70,55
381360,note_on,0,0,3,,,,,,,,,3,,,60,55
381360,note_off,120,0,3,,,,,,,,,3,,,58,0
381480,note_off,120,0,3,,,,,,,,,3,,,60,0
381480,note_on,0,0,3,,,,,,,,,3,,,58,56
381540,control_change,420,0,5,,,,,,,64,0,5,,,,
381540,control_change,60,0,3,,,,,,,64,0,3,,,,
381550,note_off,190,0,2,,,,,,,,,2,,,70,0
381550,note_off,190,0,1,,,,,,,,,1,,,72,0
381600,note_on,50,0,2,,,,,,,,,2,,,70,58
381600,note_on,0,0,5,,,,,,,,,5,,,55,58
381600,note_off,0,0,5,,,,,,,,,5,,,55,0
381600,control_change,60,0,5,,,,,,,64,127,5,,,,
381600,note_on,50,0,1,,,,,,,,,1,,,72,58
381600,note_off,0,0,3,,,,,,,,,3,,,58,0
381600,control_change,60,0,3,,,,,,,64,127,3,,,,
381720,note_on,120,0,3,,,,,,,,,3,,,58,59
381790,note_off,190,0,2,,,,,,,,,2,,,70,0
381790,note_off,190,0,1,,,,,,,,,1,,,72,0
381840,note_on,50,0,1,,,,,,,,,1,,,72,61
381840,note_on,50,0,2,,,,,,,,,2,,,70,61
381840,note_on,0,0,3,,,,,,,,,3,,,60,61
381840,note_off,120,0,3,,,,,,,,,3,,,58,0
381960,note_off,120,0,3,,,,,,,,,3,,,60,0
381960,note_on,0,0,3,,,,,,,,,3,,,58,62
382020,control_change,420,0,5,,,,,,,64,0,5,,,,
382020,control_change,60,0,3,,,,,,,64,0,3,,,,
382030,note_off,190,0,2,,,,,,,,,2,,,70,0
382030,note_off,190,0,1,,,,,,,,,1,,,72,0
382040,set_tempo,1400,1,0,,,,,,1666666,,,,,,,
382050,note_off,30,0,5,,,,,,,,,5,,,55,0
382055,note_off,35,0,3,,,,,,,,,3,,,58,0
382080,note_on,0,0,5,,,,,,,,,5,,,53,71
382080,set_tempo,40,1,0,,,,,,1500000,,,,,,,
382080,note_on,0,0,2,,,,,,,,,2,,,72,76
382080,note_on,50,0,1,,,,,,,,,1,,,79,76
382080,note_on,50,0,2,,,,,,,,,2,,,68,76
382080,control_change,25,0,3,,,,,,,64,127,3,,,,
382080,control_change,30,0,5,,,,,,,64,127,5,,,,
382200,note_on,120,0,3,,,,,,,,,3,,,56,68
382320,note_on,0,0,3,,,,,,,,,3,,,60,65
382320,note_off,240,0,1,,,,,,,,,1,,,79,0
382320,note_on,0,0,1,,,,,,,,,1,,,77,65
382320,note_off,120,0,3,,,,,,,,,3,,,56,0
382440,note_off,120,0,3,,,,,,,,,3,,,60,0
382440,note_on,0,0,3,,,,,,,,,3,,,56,62
382500,control_change,420,0,5,,,,,,,64,0,5,,,,
382500,control_change,60,0,3,,,,,,,64,0,3,,,,
382560,note_off,0,0,5,,,,,,,,,5,,,53,0
382560,note_off,0,0,3,,,,,,,,,3,,,56,0
382560,control_change,60,0,3,,,,,,,64,127,3,,,,
382560,note_on,0,0,5,,,,,,,,,5,,,53,60
382560,control_change,60,0,5,,,,,,,64,127,5,,,,
382655,note_off,575,0,2,,,,,,,,,2,,,72,0
382655,note_off,0,0,2,,,,,,,,,2,,,68,0
382680,note_on,120,0,3,,,,,,,,,3,,,56,61
382705,note_off,385,0,1,,,,,,,,,1,,,77,0
382800,note_on,145,0,2,,,,,,,,,2,,,68,63
382800,note_on,0,0,3,,,,,,,,,3,,,60,63
382800,note_off,120,0,3,,,,,,,,,3,,,56,0
382800,note_on,95,0,1,,,,,,,,,1,,,72,63
382920,note_off,120,0,3,,,,,,,,,3,,,60,0
382920,note_on,0,0,3,,,,,,,,,3,,,56,64
382980,control_change,60,0,3,,,,,,,64,0,3,,,,
382980,control_change,420,0,5,,,,,,,64,0,5,,,,
382990,note_off,190,0,1,,,,,,,,,1,,,72,0
382990,note_off,190,0,2,,,,,,,,,2,,,68,0
383040,note_on,0,0,5,,,,,,,,,5,,,53,65
383040,note_on,50,0,1,,,,,,,,,1,,,72,65
383040,note_on,50,0,2,,,,,,,,,2,,,68,65
383040,note_off,0,0,3,,,,,,,,,3,,,56,0
383040,control_change,60,0,3,,,,,,,64,127,3,,,,
383040,control_change,60,0,5,,,,,,,64,127,5,,,,
383040,note_off,0,0,5,,,,,,,,,5,,,53,0
383160,note_on,120,0,3,,,,,,,,,3,,,56,66
383230,note_off,190,0,1,,,,,,,,,1,,,72,0
383230,note_off,190,0,2,,,,,,,,,2,,,68,0
383280,note_off,120,0,3,,,,,,,,,3,,,56,0
383280,note_on,0,0,3,,,,,,,,,3,,,60,68
383280,note_on,50,0,2,,,,,,,,,2,,,68,68
383280,note_on,50,0,1,,,,,,,,,1,,,72,68
383400,note_off,120,0,3,,,,,,,,,3,,,60,0
383400,note_on,0,0,3,,,,,,,,,3,,,56,69
383460,control_change,420,0,5,,,,,,,64,0,5,,,,
383460,control_change,60,0,3,,,,,,,64,0,3,,,,
383470,note_off,190,0,2,,,,,,,,,2,,,68,0
383470,note_off,190,0,1,,,,,,,,,1,,,72,0
383480,set_tempo,1400,1,0,,,,,,1666666,,,,,,,
383490,note_off,30,0,5,,,,,,,,,5,,,53,0
383495,note_off,35,0,3,,,,,,,,,3,,,56,0
383520,control_change,30,0,5,,,,,,,64,127,5,,,,
383520,note_on,0,0,5,,,,,,,,,5,,,51,76
383520,note_on,50,0,1,,,,,,,,,1,,,80,82
383520,note_on,50,0,2,,,,,,,,,2,,,68,82
383520,note_on,0,0,2,,,,,,,,,2,,,72,82
383520,control_change,25,0,3,,,,,,,64,127,3,,,,
383520,set_tempo,40,1,0,,,,,,1500000,,,,,,,
383640,note_on,120,0,3,,,,,,,,,3,,,54,73
383760,note_on,0,0,3,,,,,,,,,3,,,56,71
383760,note_off,120,0,3,,,,,,,,,3,,,54,0
383760,note_on,0,0,1,,,,,,,,,1,,,78,71
383760,note_off,240,0,1,,,,,,,,,1,,,80,0
383880,note_off,120,0,3,,,,,,,,,3,,,56,0
383880,note_on,0,0,3,,,,,,,,,3,,,54,68
383940,control_change,60,0,3,,,,,,,64,0,3,,,,
383940,control_change,420,0,5,,,,,,,64,0,5,,,,
383990,note_off,50,0,5,,,,,,,,,5,,,51,0
384000,note_off,0,0,3,,,,,,,,,3,,,54,0
384000,control_change,60,0,3,,,,,,,64,127,3,,,,
384000,note_on,0,0,5,,,,,,,,,5,,,51,66
384000,control_change,10,0,5,,,,,,,64,127,5,,,,
384095,note_off,0,0,2,,,,,,,,,2,,,68,0
384095,note_off,575,0,2,,,,,,,,,2,,,72,0
384120,note_on,120,0,3,,,,,,,,,3,,,54,69
384145,note_off,385,0,1,,,,,,,,,1,,,78,0
384240,note_on,145,0,2,,,,,,,,,2,,,68,68
384240,note_off,120,0,3,,,,,,,,,3,,,54,0
384240,note_on,95,0,1,,,,,,,,,1,,,72,68
384240,note_on,0,0,3,,,,,,,,,3,,,56,68
384360,note_off,120,0,3,,,,,,,,,3,,,56,0
384360,note_on,0,0,3,,,,,,,,,3,,,54,69
384420,control_change,60,0,3,,,,,,,64,0,3,,,,
384420,control_change,420,0,5,,,,,,,64,0,5,,,,
384430,note_off,190,0,1,,,,,,,,,1,,,72,0
384430,note_off,190,0,2,,,,,,,,,2,,,68,0
384480,note_on,50,0,2,,,,,,,,,2,,,68,71
384480,note_off,0,0,3,,,,,,,,,3,,,54,0
384480,control_change,60,0,3,,,,,,,64,127,3,,,,
384480,control_change,60,0,5,,,,,,,64,127,5,,,,
384480,note_off,0,0,5,,,,,,,,,5,,,51,0
384480,note_on,0,0,5,,,,,,,,,5,,,51,71
384480,note_on,50,0,1,,,,,,,,,1,,,72,71
384600,note_on,120,0,3,,,,,,,,,3,,,54,72
384670,note_off,190,0,1,,,,,,,,,1,,,72,0
384670,note_off,190,0,2,,,,,,,,,2,,,68,0
384720,note_on,50,0,1,,,,,,,,,1,,,72,73
384720,note_on,0,0,3,,,,,,,,,3,,,56,73
384720,note_off,120,0,3,,,,,,,,,3,,,54,0
384720,note_on,50,0,2,,,,,,,,,2,,,68,73
384840,note_off,120,0,3,,,,,,,,,3,,,56,0
384840,note_on,0,0,3,,,,,,,,,3,,,54,75
384900,control_change,420,0,5,,,,,,,64,0,5,,,,
384900,control_change,60,0,3,,,,,,,64,0,3,,,,
384910,note_off,190,0,2,,,,,,,,,2,,,68,0
384910,note_off,190,0,1,,,,,,,,,1,,,72,0
384920,set_tempo,1400,1,0,,,,,,1666666,,,,,,,
384930,note_off,30,0,5,,,,,,,,,5,,,51,0
384935,note_off,35,0,3,,,,,,,,,3,,,54,0
384960,note_on,50,0,2,,,,,,,,,2,,,68,84
384960,note_on,0,0,2,,,,,,,,,2,,,73,84
384960,control_change,30,0,5,,,,,,,64,127,5,,,,
384960,note_on,0,0,5,,,,,,,,,5,,,49,80
384960,set_tempo,40,1,0,,,,,,1500000,,,,,,,
384960,note_on,50,0,1,,,,,,,,,1,,,78,84
384960,control_change,25,0,3,,,,,,,64,127,3,,,,
385080,note_on,120,0,3,,,,,,,,,3,,,52,77
385200,note_on,0,0,3,,,,,,,,,3,,,56,74
385200,note_off,120,0,3,,,,,,,,,3,,,52,0
385200,note_off,240,0,1,,,,,,,,,1,,,78,0
385200,note_on,0,0,1,,,,,,,,,1,,,76,74
385320,note_off,120,0,3,,,,,,,,,3,,,56,0
385320,note_on,0,0,3,,,,,,,,,3,,,52,72
385380,control_change,420,0,5,,,,,,,64,0,5,,,,
385380,control_change,60,0,3,,,,,,,64,0,3,,,,
385410,note_off,30,0,5,,,,,,,,,5,,,49,0
385440,control_change,60,0,3,,,,,,,64,127,3,,,,
385440,note_off,0,0,3,,,,,,,,,3,,,52,0
385440,control_change,30,0,5,,,,,,,64,127,5,,,,
385440,note_on,0,0,5,,,,,,,,,5,,,49,69
385535,note_off,0,0,2,,,,,,,,,2,,,68,0
385535,note_off,575,0,2,,,,,,,,,2,,,73,0
385560,note_on,120,0,3,,,,,,,,,3,,,52,69
385585,note_off,385,0,1,,,,,,,,,1,,,76,0
385680,note_off,120,0,3,,,,,,,,,3,,,52,0
385680,note_on,0,0,3,,,,,,,,,3,,,56,67
385680,note_on,95,0,1,,,,,,,,,1,,,76,67
385680,note_on,145,0,2,,,,,,,,,2,,,68,67
385800,note_off,120,0,3,,,,,,,,,3,,,56,0
385800,note_on,0,0,3,,,,,,,,,3,,,52,66
385835,note_off,155,0,1,,,,,,,,,1,,,76,0
385835,note_off,155,0,2,,,,,,,,,2,,,68,0
385860,control_change,60,0,3,,,,,,,64,0,3,,,,
385860,control_change,420,0,5,,,,,,,64,0,5,,,,
385920,control_change,60,0,5,,,,,,,64,127,5,,,,
385920,control_change,60,0,3,,,,,,,64,127,3,,,,
385920,note_off,0,0,3,,,,,,,,,3,,,52,0
385920,note_on,0,0,5,,,,,,,,,5,,,47,65
385920,note_on,85,0,1,,,,,,,,,1,,,76,65
385920,note_on,85,0,2,,,,,,,,,2,,,68,65
385920,note_off,0,0,5,,,,,,,,,5,,,49,0
386040,note_on,120,0,3,,,,,,,,,3,,,52,64
386160,note_off,240,0,2,,,,,,,,,2,,,68,0
386160,note_off,240,0,1,,,,,,,,,1,,,76,0
386160,note_on,0,0,2,,,,,,,,,2,,,68,63
386160,note_on,0,0,3,,,,,,,,,3,,,56,63
386160,note_off,120,0,3,,,,,,,,,3,,,52,0
386160,note_on,0,0,1,,,,,,,,,1,,,75,63
386280,note_on,0,0,3,,,,,,,,,3,,,52,62
386280,note_off,120,0,3,,,,,,,,,3,,,56,0
386340,control_change,60,0,3,,,,,,,64,0,3,,,,
386340,control_change,420,0,5,,,,,,,64,0,5,,,,
386350,note_off,190,0,1,,,,,,,,,1,,,75,0
386350,note_off,190,0,2,,,,,,,,,2,,,68,0
386360,set_tempo,1400,1,0,,,,,,1764705,,,,,,,
386370,note_off,30,0,5,,,,,,,,,5,,,47,0
386375,note_off,35,0,3,,,,,,,,,3,,,52,0
386400,note_on,50,0,1,,,,,,,,,1,,,75,65
386400,set_tempo,40,1,0,,,,,,1578947,,,,,,,
386400,note_on,7295,0,4,,,,,,,,,4,,,53,65
386400,note_on,30,0,5,,,,,,,,,5,,,46,65
386400,note_on,50,0,2,,,,,,,,,2,,,68,65
386760,note_on,0,0,1,,,,,,,,,1,,,77,57
386760,note_off,360,0,1,,,,,,,,,1,,,75,0
386820,note_off,60,0,1,,,,,,,,,1,,,77,0
386820,note_on,0,0,1,,,,,,,,,1,,,75,55
386840,set_tempo,440,1,0,,,,,,1666666,,,,,,,
386880,set_tempo,40,1,0,,,,,,1578947,,,,,,,
386880,note_on,0,0,1,,,,,,,,,1,,,74,54
386880,note_off,60,0,1,,,,,,,,,1,,,75,0
386975,note_off,575,0,2,,,,,,,,,2,,,68,0
386975,note_off,575,0,5,,,,,,,,,5,,,46,0
386975,note_off,575,0,4,,,,,,,,,4,,,53,0
387070,note_off,190,0,1,,,,,,,,,1,,,74,0
387080,set_tempo,200,1,0,,,,,,1666666,,,,,,,
387120,note_on,145,0,5,,,,,,,,,5,,,46,49
387120,note_on,145,0,4,,,,,,,,,4,,,53,49
387120,set_tempo,40,1,0,,,,,,1500000,,,,,,,
387120,note_on,145,0,2,,,,,,,,,2,,,62,49
387120,note_on,50,0,1,,,,,,,,,1,,,68,49
387300,note_off,180,0,5,,,,,,,,,5,,,46,0
387300,note_off,180,0,4,,,,,,,,,4,,,53,0
387300,note_off,180,0,2,,,,,,,,,2,,,62,0
387300,note_off,180,0,1,,,,,,,,,1,,,68,0
387360,note_on,60,0,2,,,,,,,,,2,,,62,48
387360,note_on,60,0,4,,,,,,,,,4,,,53,48
387360,note_on,60,0,5,,,,,,,,,5,,,46,48
387360,note_on,60,0,1,,,,,,,,,1,,,68,48
387540,note_off,180,0,1,,,,,,,,,1,,,68,0
387540,note_off,180,0,4,,,,,,,,,4,,,53,0
387540,note_off,180,0,2,,,,,,,,,2,,,62,0
387540,note_off,180,0,5,,,,,,,,,5,,,46,0
387600,note_on,60,0,2,,,,,,,,,2,,,62,51
387600,note_on,60,0,5,,,,,,,,,5,,,46,51
387600,note_on,60,0,4,,,,,,,,,4,,,53,51
387600,note_on,60,0,1,,,,,,,,,1,,,68,51
387780,note_off,180,0,4,,,,,,,,,4,,,53,0
387780,note_off,180,0,1,,,,,,,,,1,,,68,0
387780,note_off,180,0,5,,,,,,,,,5,,,46,0
387780,note_off,180,0,2,,,,,,,,,2,,,62,0
387800,set_tempo,680,1,0,,,,,,1578947,,,,,,,
387840,note_on,60,0,2,,,,,,,,,2,,,62,55
387840,note_on,60,0,5,,,,,,,,,5,,,46,55
387840,note_on,60,0,1,,,,,,,,,1,,,68,55
387840,set_tempo,40,1,0,,,,,,1500000,,,,,,,
387840,note_on,60,0,4,,,,,,,,,4,,,53,55
388320,note_off,480,0,1,,,,,,,,,1,,,68,0
388320,note_off,480,0,2,,,,,,,,,2,,,62,0
388415,note_off,575,0,5,,,,,,,,,5,,,46,0
388415,note_off,575,0,4,,,,,,,,,4,,,53,0
388440,set_tempo,600,1,0,,,,,,2222222,,,,,,,
388560,note_on,145,0,5,,,,,,,,,5,,,58,41
388560,note_on,240,0,1,,,,,,,,,1,,,80,41
388560,set_tempo,120,1,0,,,,,,1578947,,,,,,,
388560,note_on,145,0,4,,,,,,,,,4,,,65,41
388560,note_on,240,0,2,,,,,,,,,2,,,74,41
388740,note_off,180,0,5,,,,,,,,,5,,,58,0
388740,note_off,180,0,1,,,,,,,,,1,,,80,0
388740,note_off,180,0,4,,,,,,,,,4,,,65,0
388740,note_off,180,0,2,,,,,,,,,2,,,74,0
388800,note_on,60,0,5,,,,,,,,,5,,,58,42
388800,note_on,60,0,1,,,,,,,,,1,,,80,42
388800,note_on,60,0,4,,,,,,,,,4,,,65,42
388800,note_on,60,0,2,,,,,,,,,2,,,74,42
388980,note_off,180,0,4,,,,,,,,,4,,,65,0
388980,note_off,180,0,1,,,,,,,,,1,,,80,0
388980,note_off,180,0,2,,,,,,,,,2,,,74,0
388980,note_off,180,0,5,,,,,,,,,5,,,58,0
389040,note_on,60,0,2,,,,,,,,,2,,,74,44
389040,note_on,60,0,4,,,,,,,,,4,,,65,44
389040,note_on,60,0,1,,,,,,,,,1,,,80,44
389040,note_on,60,0,5,,,,,,,,,5,,,58,44
389220,note_off,180,0,4,,,,,,,,,4,,,65,0
389220,note_off,180,0,5,,,,,,,,,5,,,58,0
389220,note_off,180,0,1,,,,,,,,,1,,,80,0
389220,note_off,180,0,2,,,,,,,,,2,,,74,0
389240,set_tempo,680,1,0,,,,,,1764705,,,,,,,
389280,note_on,60,0,5,,,,,,,,,5,,,58,47
389280,note_on,60,0,2,,,,,,,,,2,,,74,48
389280,set_tempo,40,1,0,,,,,,845070,,,,,,,
389280,note_on,60,0,4,,,,,,,,,4,,,65,47
389280,note_on,60,0,1,,,,,,,,,1,,,80,48
390230,note_off,950,0,5,,,,,,,,,5,,,58,0
390240,set_tempo,960,1,0,,,,,,352941,,,,,,,
390240,note_on,960,0,1,,,,,,,,,1,,,82,35
390240,note_off,960,0,4,,,,,,,,,4,,,65,0
390245,note_off,5,0,1,,,,,,,,,1,,,80,0
390360,note_on,115,0,1,,,,,,,,,1,,,80,37
390365,note_off,5,0,1,,,,,,,,,1,,,82,0
390480,note_on,115,0,1,,,,,,,,,1,,,79,38
390485,note_off,5,0,1,,,,,,,,,1,,,80,0
390600,note_on,115,0,1,,,,,,,,,1,,,80,40
390605,note_off,5,0,1,,,,,,,,,1,,,79,0
390720,note_off,115,0,1,,,,,,,,,1,,,80,0
390720,note_on,0,0,1,,,,,,,,,1,,,82,41
390720,set_tempo,480,1,0,,,,,,377358,,,,,,,
390960,note_on,240,0,1,,,,,,,,,1,,,84,38
390960,set_tempo,240,1,0,,,,,,413793,,,,,,,
390965,note_off,5,0,1,,,,,,,,,1,,,82,0
391200,note_off,1920,0,2,,,,,,,,,2,,,74,0
391200,note_on,235,0,1,,,,,,,,,1,,,82,37
391200,set_tempo,240,1,0,,,,,,1578947,,,,,,,
391205,note_off,5,0,1,,,,,,,,,1,,,84,0
391320,note_on,0,0,1,,,,,,,,,1,,,80,35
391320,note_off,115,0,1,,,,,,,,,1,,,82,0
391380,note_off,60,0,1,,,,,,,,,1,,,80,0
391440,note_on,60,0,1,,,,,,,,,1,,,79,36
391560,note_on,120,0,1,,,,,,,,,1,,,77,34
391565,note_off,5,0,1,,,,,,,,,1,,,79,0
391625,note_off,60,0,1,,,,,,,,,1,,,77,0
391680,note_on,55,0,1,,,,,,,,,1,,,75,35
391800,note_on,0,0,1,,,,,,,,,1,,,74,32
391800,note_off,120,0,1,,,,,,,,,1,,,75,0
391860,note_off,60,0,1,,,,,,,,,1,,,74,0
391920,set_tempo,720,1,0,,,,,,1764705,,,,,,,
391920,note_on,60,0,1,,,,,,,,,1,,,72,34
392040,note_on,120,0,1,,,,,,,,,1,,,70,31
392045,note_off,5,0,1,,,,,,,,,1,,,72,0
392050,set_tempo,130,1,0,,,,,,2727272,,,,,,,
392095,note_off,50,0,1,,,,,,,,,1,,,70,0
392160,set_tempo,110,1,0,,,,,,1500000,,,,,,,
392160,note_on,1930,0,5,,,,,,,,,5,,,51,38
392160,note_on,960,0,2,,,,,,,,,2,,,67,38
392160,note_on,65,0,1,,,,,,,,,1,,,70,38
392480,set_tempo,320,1,0,,,,,,1578947,,,,,,,
392520,note_on,360,0,1,,,,,,,,,1,,,72,40
392520,set_tempo,40,1,0,,,,,,1500000,,,,,,,
392540,note_off,20,0,1,,,,,,,,,1,,,70,0
392580,note_off,40,0,1,,,,,,,,,1,,,72,0
392580,note_on,0,0,1,,,,,,,,,1,,,70,41
392640,note_off,60,0,1,,,,,,,,,1,,,70,0
392640,note_off,480,0,2,,,,,,,,,2,,,67,0
392640,note_on,0,0,2,,,,,,,,,2,,,65,41
392640,note_on,0,0,1,,,,,,,,,1,,,68,41
392880,note_off,240,0,2,,,,,,,,,2,,,65,0
392880,note_on,0,0,2,,,,,,,,,2,,,63,39
392880,note_on,0,0,1,,,,,,,,,1,,,67,39
392880,note_off,240,0,1,,,,,,,,,1,,,68,0
393120,note_off,240,0,2,,,,,,,,,2,,,63,0
393120,note_on,0,0,1,,,,,,,,,1,,,72,44
393120,note_off,960,0,5,,,,,,,,,5,,,51,0
393120,note_on,0,0,2,,,,,,,,,2,,,68,44
393120,note_off,240,0,1,,,,,,,,,1,,,67,0
393360,note_off,240,0,1,,,,,,,,,1,,,72,0
393360,note_on,0,0,1,,,,,,,,,1,,,70,42
393360,note_on,0,0,2,,,,,,,,,2,,,67,42
393360,note_off,240,0,2,,,,,,,,,2,,,68,0
393550,note_off,190,0,1,,,,,,,,,1,,,70,0
393550,note_off,190,0,2,,,,,,,,,2,,,67,0
393560,set_tempo,1040,1,0,,,,,,1578947,,,,,,,
393600,note_on,0,0,5,,,,,,,,,5,,,51,49
393600,control_change,480,0,5,,,,,,,64,127,5,,,,
393600,control_change,7225,0,3,,,,,,,64,127,3,,,,
393600,set_tempo,40,1,0,,,,,,1500000,,,,,,,
393600,note_on,50,0,1,,,,,,,,,1,,,70,49
393600,note_on,50,0,2,,,,,,,,,2,,,67,49
393720,note_on,120,0,3,,,,,,,,,3,,,55,49
393840,note_off,120,0,3,,,,,,,,,3,,,55,0
393840,note_on,0,0,3,,,,,,,,,3,,,58,48
393960,note_off,120,0,3,,,,,,,,,3,,,58,0
393960,note_on,0,0,3,,,,,,,,,3,,,51,48
393960,note_on,0,0,1,,,,,,,,,1,,,72,48
393960,note_off,360,0,5,,,,,,,,,5,,,51,0
393960,note_off,360,0,1,,,,,,,,,1,,,70,0
394020,note_on,0,0,1,,,,,,,,,1,,,70,48
394020,control_change,60,0,5,,,,,,,64,0,5,,,,
394020,note_off,60,0,1,,,,,,,,,1,,,72,0
394020,control_change,60,0,3,,,,,,,64,0,3,,,,
394080,note_off,0,0,3,,,,,,,,,3,,,51,0
394080,note_off,60,0,1,,,,,,,,,1,,,70,0
394080,note_on,0,0,1,,,,,,,,,1,,,68,47
394080,note_off,480,0,2,,,,,,,,,2,,,67,0
394080,note_on,0,0,5,,,,,,,,,5,,,53,47
394080,control_change,60,0,3,,,,,,,64,127,3,,,,
394080,control_change,60,0,5,,,,,,,64,127,5,,,,
394200,note_on,120,0,3,,,,,,,,,3,,,56,47
394320,note_on,0,0,3,,,,,,,,,3,,,62,46
394320,note_off,120,0,3,,,,,,,,,3,,,56,0
394440,note_off,360,0,5,,,,,,,,,5,,,53,0
394440,note_on,0,0,3,,,,,,,,,3,,,53,46
394440,note_off,120,0,3,,,,,,,,,3,,,62,0
394500,control_change,60,0,5,,,,,,,64,0,5,,,,
394500,control_change,60,0,3,,,,,,,64,0,3,,,,
394560,control_change,60,0,3,,,,,,,64,127,3,,,,
394560,note_off,480,0,1,,,,,,,,,1,,,68,0
394560,note_on,0,0,1,,,,,,,,,1,,,67,45
394560,note_on,0,0,5,,,,,,,,,5,,,55,45
394560,control_change,60,0,5,,,,,,,64,127,5,,,,
394560,note_off,0,0,3,,,,,,,,,3,,,53,0
394680,note_on,120,0,3,,,,,,,,,3,,,58,45
394800,note_on,0,0,3,,,,,,,,,3,,,63,44
394800,note_off,120,0,3,,,,,,,,,3,,,58,0
394920,note_on,0,0,3,,,,,,,,,3,,,55,43
394920,note_off,120,0,3,,,,,,,,,3,,,63,0
394920,note_off,360,0,5,,,,,,,,,5,,,55,0
394980,control_change,60,0,5,,,,,,,64,0,5,,,,
394980,control_change,60,0,3,,,,,,,64,0,3,,,,
395000,set_tempo,1400,1,0,,,,,,1578947,,,,,,,
395015,note_off,35,0,3,,,,,,,,,3,,,55,0
395040,note_on,60,0,5,,,,,,,,,5,,,56,43
395040,note_on,4800,0,4,,,,,,,,,4,,,60,43
395040,set_tempo,40,1,0,,,,,,1500000,,,,,,,
395160,note_off,600,0,1,,,,,,,,,1,,,67,0
395160,note_on,0,0,1,,,,,,,,,1,,,64,42
395280,note_on,0,0,1,,,,,,,,,1,,,65,42
395280,note_off,120,0,1,,,,,,,,,1,,,64,0
395400,note_on,0,0,1,,,,,,,,,1,,,67,41
395400,note_off,120,0,1,,,,,,,,,1,,,65,0
395520,note_on,0,0,1,,,,,,,,,1,,,68,41
395520,note_off,120,0,1,,,,,,,,,1,,,67,0
395640,note_off,120,0,1,,,,,,,,,1,,,68,0
395640,note_on,0,0,1,,,,,,,,,1,,,69,40
395760,note_on,0,0,1,,,,,,,,,1,,,70,39
395760,note_off,120,0,1,,,,,,,,,1,,,69,0
395880,note_off,120,0,1,,,,,,,,,1,,,70,0
395880,note_on,0,0,1,,,,,,,,,1,,,71,39
395960,set_tempo,920,1,0,,,,,,1578947,,,,,,,
396000,note_off,120,0,1,,,,,,,,,1,,,71,0
396000,note_on,0,0,1,,,,,,,,,1,,,74,38
396060,note_off,60,0,1,,,,,,,,,1,,,74,0
396060,note_on,0,0,1,,,,,,,,,1,,,72,38
396120,note_off,60,0,1,,,,,,,,,1,,,72,0
396120,note_on,0,0,1,,,,,,,,,1,,,71,38
396180,note_on,0,0,1,,,,,,,,,1,,,72,38
396180,note_off,60,0,1,,,,,,,,,1,,,71,0
396190,note_off,1150,0,5,,,,,,,,,5,,,56,0
396190,note_off,1150,0,4,,,,,,,,,4,,,60,0
396240,note_off,60,0,1,,,,,,,,,1,,,72,0
396240,note_on,0,0,1,,,,,,,,,1,,,70,37
396300,note_on,0,0,1,,,,,,,,,1,,,68,37
396300,note_off,60,0,1,,,,,,,,,1,,,70,0
396360,note_on,0,0,1,,,,,,,,,1,,,67,37
396360,note_off,60,0,1,,,,,,,,,1,,,68,0
396420,note_on,0,0,1,,,,,,,,,1,,,65,36
396420,note_off,60,0,1,,,,,,,,,1,,,67,0
396440,set_tempo,480,1,0,,,,,,1764705,,,,,,,
396470,note_off,50,0,1,,,,,,,,,1,,,65,0
396480,set_tempo,40,1,0,,,,,,1666666,,,,,,,
396480,note_on,10,0,1,,,,,,,,,1,,,63,36
396480,note_on,290,0,5,,,,,,,,,5,,,45,36
396480,note_on,2400,0,2,,,,,,,,,2,,,55,36
396600,note_off,120,0,5,,,,,,,,,5,,,45,0
396600,note_on,0,0,5,,,,,,,,,5,,,46,36
396720,note_off,120,0,5,,,,,,,,,5,,,46,0
396720,note_on,0,0,5,,,,,,,,,5,,,48,35
396840,note_off,120,0,5,,,,,,,,,5,,,48,0
396840,note_on,0,0,5,,,,,,,,,5,,,46,34
396935,note_off,95,0,5,,,,,,,,,5,,,46,0
396960,note_on,0,0,2,,,,,,,,,2,,,53,34
396960,note_on,0,0,1,,,,,,,,,1,,,62,34
396960,note_on,25,0,5,,,,,,,,,5,,,46,34
396960,note_off,480,0,1,,,,,,,,,1,,,63,0
396960,set_tempo,480,1,0,,,,,,1818181,,,,,,,
396960,note_off,480,0,2,,,,,,,,,2,,,55,0
397010,note_off,50,0,1,,,,,,,,,1,,,62,0
397020,set_tempo,60,1,0,,,,,,1666666,,,,,,,
397020,note_on,10,0,1,,,,,,,,,1,,,58,34
397080,note_off,60,0,1,,,,,,,,,1,,,58,0
397080,note_on,0,0,1,,,,,,,,,1,,,57,35
397140,note_off,60,0,1,,,,,,,,,1,,,57,0
397140,note_on,0,0,1,,,,,,,,,1,,,58,36
397200,note_off,60,0,1,,,,,,,,,1,,,58,0
397200,note_on,0,0,1,,,,,,,,,1,,,59,37
397260,note_off,60,0,1,,,,,,,,,1,,,59,0
397260,note_on,0,0,1,,,,,,,,,1,,,60,38
397320,note_off,360,0,5,,,,,,,,,5,,,46,0
397320,note_off,60,0,1,,,,,,,,,1,,,60,0
397320,note_on,0,0,1,,,,,,,,,1,,,61,39
397380,note_off,60,0,1,,,,,,,,,1,,,61,0
397380,note_on,0,0,1,,,,,,,,,1,,,62,40
397440,note_on,0,0,1,,,,,,,,,1,,,63,41
397440,note_off,480,0,2,,,,,,,,,2,,,53,0
397440,note_off,60,0,1,,,,,,,,,1,,,62,0
397500,note_on,0,0,1,,,,,,,,,1,,,64,43
397500,note_off,60,0,1,,,,,,,,,1,,,63,0
397560,note_off,60,0,1,,,,,,,,,1,,,64,0
397560,note_on,0,0,1,,,,,,,,,1,,,65,44
397620,note_off,60,0,1,,,,,,,,,1,,,65,0
397620,note_on,0,0,1,,,,,,,,,1,,,66,45
397680,note_off,60,0,1,,,,,,,,,1,,,66,0
397680,note_on,0,0,1,,,,,,,,,1,,,67,46
397740,note_off,60,0,1,,,,,,,,,1,,,67,0
397740,note_on,0,0,1,,,,,,,,,1,,,68,47
397800,note_off,60,0,1,,,,,,,,,1,,,68,0
397800,note_on,0,0,1,,,,,,,,,1,,,69,48
397840,set_tempo,820,1,0,,,,,,1764705,,,,,,,
397860,note_off,60,0,1,,,,,,,,,1,,,69,0
397860,note_on,0,0,1,,,,,,,,,1,,,70,49
397880,set_tempo,40,1,0,,,,,,2222222,,,,,,,
397910,note_off,50,0,1,,,,,,,,,1,,,70,0
397920,note_on,10,0,1,,,,,,,,,1,,,70,50
397920,note_on,0,0,1,,,,,,,,,1,,,67,50
397920,note_on,1730,0,4,,,,,,,,,4,,,51,50
397920,note_on,600,0,5,,,,,,,,,5,,,39,50
397920,set_tempo,40,1,0,,,,,,1500000,,,,,,,
398280,note_off,360,0,1,,,,,,,,,1,,,70,0
398280,note_on,0,0,1,,,,,,,,,1,,,72,46
398305,note_off,385,0,4,,,,,,,,,4,,,51,0
398305,note_off,385,0,5,,,,,,,,,5,,,39,0
398340,note_off,60,0,1,,,,,,,,,1,,,72,0
398340,note_on,0,0,1,,,,,,,,,1,,,70,46
398400,note_off,60,0,1,,,,,,,,,1,,,70,0
398400,note_off,0,0,1,,,,,,,,,1,,,67,0
398400,note_on,0,0,1,,,,,,,,,1,,,68,44
398460,note_off,60,0,1,,,,,,,,,1,,,68,0
398460,note_on,0,0,1,,,,,,,,,1,,,67,44
398520,note_off,60,0,1,,,,,,,,,1,,,67,0
398520,note_on,0,0,1,,,,,,,,,1,,,72,46
398580,note_off,60,0,1,,,,,,,,,1,,,72,0
398580,note_on,0,0,1,,,,,,,,,1,,,70,47
398640,note_off,60,0,1,,,,,,,,,1,,,70,0
398640,note_on,0,0,1,,,,,,,,,1,,,75,48
398700,note_on,0,0,1,,,,,,,,,1,,,74,50
398700,note_off,60,0,1,,,,,,,,,1,,,75,0
398760,note_off,60,0,1,,,,,,,,,1,,,74,0
398760,note_on,0,0,1,,,,,,,,,1,,,77,51
398820,note_on,0,0,1,,,,,,,,,1,,,75,52
398820,note_off,60,0,1,,,,,,,,,1,,,77,0
398880,note_off,60,0,1,,,,,,,,,1,,,75,0
398880,note_on,0,0,1,,,,,,,,,1,,,80,53
398880,note_on,575,0,5,,,,,,,,,5,,,51,53
398880,note_on,575,0,4,,,,,,,,,4,,,60,53
398940,note_off,60,0,1,,,,,,,,,1,,,80,0
398940,note_on,0,0,1,,,,,,,,,1,,,79,55
399000,note_off,60,0,1,,,,,,,,,1,,,79,0
399000,note_on,0,0,1,,,,,,,,,1,,,78,56
399060,note_off,60,0,1,,,,,,,,,1,,,78,0
399060,note_on,0,0,1,,,,,,,,,1,,,79,57
399120,note_on,0,0,1,,,,,,,,,1,,,77,59
399120,note_off,60,0,1,,,,,,,,,1,,,79,0
399180,note_on,0,0,1,,,,,,,,,1,,,75,60
399180,note_off,60,0,1,,,,,,,,,1,,,77,0
399240,note_on,0,0,1,,,,,,,,,1,,,74,61
399240,note_off,60,0,1,,,,,,,,,1,,,75,0
399265,note_off,385,0,5,,,,,,,,,5,,,51,0
399265,note_off,385,0,4,,,,,,,,,4,,,60,0
399300,note_on,0,0,1,,,,,,,,,1,,,72,62
399300,note_off,60,0,1,,,,,,,,,1,,,74,0
399320,set_tempo,1400,1,0,,,,,,1578947,,,,,,,
399350,note_off,50,0,1,,,,,,,,,1,,,72,0
399360,note_on,10,0,1,,,,,,,,,1,,,70,64
399360,set_tempo,40,1,0,,,,,,1500000,,,,,,,
399360,note_on,95,0,4,,,,,,,,,4,,,60,64
399360,note_on,95,0,5,,,,,,,,,5,,,53,64
399600,note_off,240,0,1,,,,,,,,,1,,,70,0
399600,note_on,0,0,1,,,,,,,,,1,,,69,59
399745,note_off,385,0,4,,,,,,,,,4,,,60,0
399745,note_off,385,0,5,,,,,,,,,5,,,53,0
399840,note_on,95,0,4,,,,,,,,,4,,,62,57
399840,note_on,95,0,5,,,,,,,,,5,,,58,57
400080,note_on,480,0,1,,,,,,,,,1,,,68,55
400080,note_off,240,0,5,,,,,,,,,5,,,58,0
400080,note_on,0,0,5,,,,,,,,,5,,,59,55
400085,note_off,5,0,1,,,,,,,,,1,,,69,0
400225,note_off,385,0,4,,,,,,,,,4,,,62,0
400320,note_on,0,0,5,,,,,,,,,5,,,60,53
400320,note_off,240,0,5,,,,,,,,,5,,,59,0
400320,note_on,95,0,4,,,,,,,,,4,,,63,53
400440,note_off,355,0,1,,,,,,,,,1,,,68,0
400440,note_on,0,0,1,,,,,,,,,1,,,67,52
400560,note_on,0,0,1,,,,,,,,,1,,,75,51
400560,note_off,120,0,1,,,,,,,,,1,,,67,0
400560,note_off,240,0,5,,,,,,,,,5,,,60,0
400560,note_on,0,0,5,,,,,,,,,5,,,55,51
400680,note_on,0,0,1,,,,,,,,,1,,,73,50
400680,note_off,120,0,1,,,,,,,,,1,,,75,0
400760,set_tempo,1400,1,0,,,,,,1578947,,,,,,,
400775,note_off,95,0,1,,,,,,,,,1,,,73,0
400800,set_tempo,40,1,0,,,,,,1500000,,,,,,,
400800,note_on,25,0,1,,,,,,,,,1,,,71,51
400800,note_on,0,0,5,,,,,,,,,5,,,56,51
400800,note_off,240,0,5,,,,,,,,,5,,,55,0
400920,note_on,0,0,1,,,,,,,,,1,,,72,50
400920,note_off,120,0,1,,,,,,,,,1,,,71,0
401025,note_off,705,0,4,,,,,,,,,4,,,63,0
401040,note_off,120,0,1,,,,,,,,,1,,,72,0
401040,note_off,240,0,5,,,,,,,,,5,,,56,0
401040,note_on,0,0,1,,,,,,,,,1,,,74,49
401160,note_off,120,0,1,,,,,,,,,1,,,74,0
401160,note_on,0,0,1,,,,,,,,,1,,,75,48
401255,note_off,95,0,1,,,,,,,,,1,,,75,0
401280,note_on,255,0,4,,,,,,,,,4,,,55,47
401280,note_on,240,0,5,,,,,,,,,5,,,46,47
401280,note_on,25,0,1,,,,,,,,,1,,,75,47
401520,note_off,240,0,1,,,,,,,,,1,,,75,0
401520,note_on,0,0,1,,,,,,,,,1,,,70,45
401760,note_on,0,0,4,,,,,,,,,4,,,56,44
401760,note_off,480,0,4,,,,,,,,,4,,,55,0
401840,set_tempo,1040,1,0,,,,,,1578947,,,,,,,
401880,note_on,360,0,1,,,,,,,,,1,,,72,43
401885,note_off,5,0,1,,,,,,,,,1,,,70,0
401940,note_on,0,0,1,,,,,,,,,1,,,70,42
401940,note_off,55,0,1,,,,,,,,,1,,,72,0
402000,note_off,60,0,1,,,,,,,,,1,,,70,0
402000,note_on,0,0,1,,,,,,,,,1,,,70,42
402050,note_off,770,0,5,,,,,,,,,5,,,46,0
402060,note_on,0,0,1,,,,,,,,,1,,,68,41
402060,note_off,60,0,1,,,,,,,,,1,,,70,0
402120,note_on,0,0,1,,,,,,,,,1,,,67,41
402120,note_off,60,0,1,,,,,,,,,1,,,68,0
402145,note_off,385,0,4,,,,,,,,,4,,,56,0
402180,note_on,0,0,1,,,,,,,,,1,,,65,40
402180,note_off,60,0,1,,,,,,,,,1,,,67,0
402200,set_tempo,360,1,0,,,,,,1666666,,,,,,,
402240,note_on,0,0,1,,,,,,,,,1,,,63,40
402240,note_off,60,0,1,,,,,,,,,1,,,65,0
402240,set_tempo,40,1,0,,,,,,1578947,,,,,,,
402240,control_change,7225,0,3,,,,,,,64,127,3,,,,
402240,note_on,0,0,5,,,,,,,,,5,,,51,40
402240,control_change,190,0,5,,,,,,,64,127,5,,,,
402280,set_tempo,40,1,0,,,,,,1500000,,,,,,,
402360,note_on,120,0,3,,,,,,,,,3,,,55,39
402480,note_off,120,0,3,,,,,,,,,3,,,55,0
402480,note_on,0,0,3,,,,,,,,,3,,,58,38
402600,note_on,0,0,3,,,,,,,,,3,,,55,37
402600,note_off,120,0,3,,,,,,,,,3,,,58,0
402660,control_change,420,0,5,,,,,,,64,0,5,,,,
402660,control_change,60,0,3,,,,,,,64,0,3,,,,
402720,note_off,480,0,1,,,,,,,,,1,,,63,0
402720,control_change,60,0,5,,,,,,,64,127,5,,,,
402720,note_off,0,0,5,,,,,,,,,5,,,51,0
402720,note_on,0,0,5,,,,,,,,,5,,,51,36
402720,note_off,0,0,3,,,,,,,,,3,,,55,0
402720,control_change,60,0,3,,,,,,,64,127,3,,,,
402840,note_on,120,0,3,,,,,,,,,3,,,55,37
402920,set_tempo,640,1,0,,,,,,1578947,,,,,,,
402960,set_tempo,40,1,0,,,,,,1500000,,,,,,,
402960,note_on,0,0,3,,,,,,,,,3,,,58,40
402960,note_off,120,0,3,,,,,,,,,3,,,55,0
402960,note_on,5520,0,2,,,,,,,,,2,,,67,40
402960,note_on,240,0,1,,,,,,,,,1,,,70,40
403080,note_on,0,0,3,,,,,,,,,3,,,55,43
403080,note_off,120,0,3,,,,,,,,,3,,,58,0
403140,control_change,420,0,5,,,,,,,64,0,5,,,,
403140,control_change,60,0,3,,,,,,,64,0,3,,,,
403150,note_off,190,0,1,,,,,,,,,1,,,70,0
403150,note_off,190,0,2,,,,,,,,,2,,,67,0
403200,note_on,50,0,1,,,,,,,,,1,,,70,45
403200,control_change,60,0,3,,,,,,,64,127,3,,,,
403200,note_off,0,0,3,,,,,,,,,3,,,55,0
403200,control_change,60,0,5,,,,,,,64,127,5,,,,
403200,note_off,0,0,5,,,,,,,,,5,,,51,0
403200,note_on,0,0,5,,,,,,,,,5,,,51,45
403200,note_on,50,0,2,,,,,,,,,2,,,67,45
403320,note_on,120,0,3,,,,,,,,,3,,,55,48
403390,note_off,190,0,1,,,,,,,,,1,,,70,0
403390,note_off,190,0,2,,,,,,,,,2,,,67,0
403440,note_on,50,0,2,,,,,,,,,2,,,67,50
403440,note_on,0,0,3,,,,,,,,,3,,,58,50
403440,note_off,120,0,3,,,,,,,,,3,,,55,0
403440,note_on,50,0,1,,,,,,,,,1,,,70,50
403560,note_on,0,0,3,,,,,,,,,3,,,55,52
403560,note_off,120,0,3,,,,,,,,,3,,,58,0
403620,control_change,420,0,5,,,,,,,64,0,5,,,,
403620,control_change,60,0,3,,,,,,,64,0,3,,,,
403630,note_off,190,0,1,,,,,,,,,1,,,70,0
403630,note_off,190,0,2,,,,,,,,,2,,,67,0
403640,set_tempo,680,1,0,,,,,,1578947,,,,,,,
403655,note_off,35,0,5,,,,,,,,,5,,,51,0
403655,note_off,35,0,3,,,,,,,,,3,,,55,0
403680,note_on,50,0,2,,,,,,,,,2,,,68,64
403680,note_on,0,0,5,,,,,,,,,5,,,51,60
403680,control_change,25,0,5,,,,,,,64,127,5,,,,
403680,note_on,50,0,1,,,,,,,,,1,,,75,64
403680,set_tempo,40,1,0,,,,,,1500000,,,,,,,
403680,control_change,25,0,3,,,,,,,64,127,3,,,,
403800,note_on,120,0,3,,,,,,,,,3,,,53,56
403920,note_off,120,0,3,,,,,,,,,3,,,53,0
403920,note_on,0,0,3,,,,,,,,,3,,,56,54
403920,note_on,0,0,1,,,,,,,,,1,,,74,54
403920,note_off,240,0,1,,,,,,,,,1,,,75,0
404040,note_off,120,0,3,,,,,,,,,3,,,56,0
404040,note_on,0,0,3,,,,,,,,,3,,,53,51
404100,control_change,60,0,3,,,,,,,64,0,3,,,,
404100,control_change,420,0,5,,,,,,,64,0,5,,,,
404160,control_change,60,0,3,,,,,,,64,127,3,,,,
404160,note_off,0,0,3,,,,,,,,,3,,,53,0
404160,note_off,0,0,5,,,,,,,,,5,,,51,0
404160,note_on,0,0,5,,,,,,,,,5,,,51,48
404160,control_change,60,0,5,,,,,,,64,127,5,,,,
404255,note_off,575,0,2,,,,,,,,,2,,,68,0
404280,note_on,120,0,3,,,,,,,,,3,,,53,47
404305,note_off,385,0,1,,,,,,,,,1,,,74,0
404400,note_on,0,0,3,,,,,,,,,3,,,56,50
404400,note_off,120,0,3,,,,,,,,,3,,,53,0
404400,note_on,95,0,1,,,,,,,,,1,,,82,50
404520,note_on,0,0,1,,,,,,,,,1,,,80,52
404520,note_on,0,0,3,,,,,,,,,3,,,53,52
404520,note_off,120,0,3,,,,,,,,,3,,,56,0
404520,note_off,120,0,1,,,,,,,,,1,,,82,0
404580,control_change,60,0,3,,,,,,,64,0,3,,,,
404580,control_change,420,0,5,,,,,,,64,0,5,,,,
404615,note_off,95,0,1,,,,,,,,,1,,,80,0
404640,note_on,25,0,1,,,,,,,,,1,,,79,55
404640,control_change,60,0,5,,,,,,,64,127,5,,,,
404640,note_off,0,0,3,,,,,,,,,3,,,53,0
404640,control_change,60,0,3,,,,,,,64,127,3,,,,
404640,note_off,0,0,5,,,,,,,,,5,,,51,0
404640,note_on,0,0,5,,,,,,,,,5,,,51,55
404760,note_on,0,0,1,,,,,,,,,1,,,77,57
404760,note_off,120,0,1,,,,,,,,,1,,,79,0
404760,note_on,120,0,3,,,,,,,,,3,,,53,57
404855,note_off,95,0,1,,,,,,,,,1,,,77,0
404880,note_on,0,0,3,,,,,,,,,3,,,56,60
404880,note_on,25,0,1,,,,,,,,,1,,,75,60
404880,note_off,120,0,3,,,,,,,,,3,,,53,0
405000,note_on,0,0,3,,,,,,,,,3,,,53,62
405000,note_on,0,0,1,,,,,,,,,1,,,74,62
405000,note_off,120,0,1,,,,,,,,,1,,,75,0
405000,note_off,120,0,3,,,,,,,,,3,,,56,0
405060,control_change,420,0,5,,,,,,,64,0,5,,,,
405060,control_change,60,0,3,,,,,,,64,0,3,,,,
405080,set_tempo,1400,1,0,,,,,,1666666,,,,,,,
405080,note_off,20,0,5,,,,,,,,,5,,,51,0
405095,note_off,95,0,1,,,,,,,,,1,,,74,0
405095,note_off,35,0,3,,,,,,,,,3,,,53,0
405120,note_on,0,0,5,,,,,,,,,5,,,51,68
405120,control_change,25,0,3,,,,,,,64,127,3,,,,
405120,control_change,40,0,5,,,,,,,64,127,5,,,,
405120,set_tempo,40,1,0,,,,,,1500000,,,,,,,
405120,note_on,25,0,1,,,,,,,,,1,,,77,68
405160,note_off,40,0,1,,,,,,,,,1,,,77,0
405160,note_on,0,0,1,,,,,,,,,1,,,75,66
405200,note_on,0,0,1,,,,,,,,,1,,,77,66
405200,note_off,40,0,1,,,,,,,,,1,,,75,0
405240,note_on,0,0,1,,,,,,,,,1,,,75,65
405240,note_off,40,0,1,,,,,,,,,1,,,77,0
405240,note_on,120,0,3,,,,,,,,,3,,,55,65
405280,note_off,40,0,1,,,,,,,,,1,,,75,0
405280,note_on,0,0,1,,,,,,,,,1,,,77,64
405320,note_off,40,0,1,,,,,,,,,1,,,77,0
405320,note_on,0,0,1,,,,,,,,,1,,,75,64
405360,note_off,120,0,3,,,,,,,,,3,,,55,0
405360,note_off,40,0,1,,,,,,,,,1,,,75,0
405360,note_on,0,0,1,,,,,,,,,1,,,77,63
405360,note_on,0,0,3,,,,,,,,,3,,,58,63
405420,note_off,60,0,1,,,,,,,,,1,,,77,0
405420,note_on,0,0,1,,,,,,,,,1,,,75,62
405480,note_on,0,0,1,,,,,,,,,1,,,74,61
405480,note_off,60,0,1,,,,,,,,,1,,,75,0
405480,note_on,0,0,3,,,,,,,,,3,,,55,61
405480,note_off,120,0,3,,,,,,,,,3,,,58,0
405540,control_change,60,0,3,,,,,,,64,0,3,,,,
405540,note_on,0,0,1,,,,,,,,,1,,,72,60
405540,note_off,60,0,1,,,,,,,,,1,,,74,0
405540,control_change,420,0,5,,,,,,,64,0,5,,,,
405600,note_off,0,0,3,,,,,,,,,3,,,55,0
405600,note_on,0,0,1,,,,,,,,,1,,,70,60
405600,note_off,60,0,1,,,,,,,,,1,,,72,0
405600,control_change,60,0,3,,,,,,,64,127,3,,,,
405600,note_on,0,0,5,,,,,,,,,5,,,51,60
405600,note_off,0,0,5,,,,,,,,,5,,,51,0
405600,control_change,60,0,5,,,,,,,64,127,5,,,,
405720,note_on,120,0,3,,,,,,,,,3,,,55,57
405790,note_off,190,0,1,,,,,,,,,1,,,70,0
405800,set_tempo,680,1,0,,,,,,1578947,,,,,,,
405840,note_on,1585,0,2,,,,,,,,,2,,,67,60
405840,set_tempo,40,1,0,,,,,,1500000,,,,,,,
405840,note_on,50,0,1,,,,,,,,,1,,,70,60
405840,note_on,0,0,3,,,,,,,,,3,,,58,60
405840,note_off,120,0,3,,,,,,,,,3,,,55,0
405960,note_off,120,0,3,,,,,,,,,3,,,58,0
405960,note_on,0,0,3,,,,,,,,,3,,,55,63
406020,control_change,60,0,3,,,,,,,64,0,3,,,,
406020,control_change,420,0,5,,,,,,,64,0,5,,,,
406030,note_off,190,0,1,,,,,,,,,1,,,70,0
406030,note_off,190,0,2,,,,,,,,,2,,,67,0
406080,note_off,0,0,3,,,,,,,,,3,,,55,0
406080,control_change,60,0,5,,,,,,,64,127,5,,,,
406080,control_change,60,0,3,,,,,,,64,127,3,,,,
406080,note_on,0,0,5,,,,,,,,,5,,,51,65
406080,note_on,50,0,2,,,,,,,,,2,,,67,65
406080,note_on,50,0,1,,,,,,,,,1,,,70,65
406080,note_off,0,0,5,,,,,,,,,5,,,51,0
406200,note_on,120,0,3,,,,,,,,,3,,,55,68
406270,note_off,190,0,1,,,,,,,,,1,,,70,0
406270,note_off,190,0,2,,,,,,,,,2,,,67,0
406320,note_on,0,0,3,,,,,,,,,3,,,58,71
406320,note_on,50,0,1,,,,,,,,,1,,,70,71
406320,note_on,50,0,2,,,,,,,,,2,,,67,71
406320,note_off,120,0,3,,,,,,,,,3,,,55,0
406440,note_off,120,0,3,,,,,,,,,3,,,58,0
406440,note_on,0,0,3,,,,,,,,,3,,,55,74
406500,control_change,420,0,5,,,,,,,64,0,5,,,,
406500,control_change,60,0,3,,,,,,,64,0,3,,,,
406510,note_off,190,0,1,,,,,,,,,1,,,70,0
406510,note_off,190,0,2,,,,,,,,,2,,,67,0
406520,set_tempo,680,1,0,,,,,,1578947,,,,,,,
406530,note_off,30,0,5,,,,,,,,,5,,,51,0
406535,note_off,35,0,3,,,,,,,,,3,,,55,0
406560,control_change,30,0,5,,,,,,,64,127,5,,,,
406560,note_on,0,0,5,,,,,,,,,5,,,51,79
406560,note_on,50,0,1,,,,,,,,,1,,,75,77
406560,note_on,50,0,2,,,,,,,,,2,,,68,77
406560,set_tempo,40,1,0,,,,,,1500000,,,,,,,
406560,control_change,25,0,3,,,,,,,64,127,3,,,,
406680,note_off,120,0,1,,,,,,,,,1,,,75,0
406680,note_on,0,0,1,,,,,,,,,1,,,74,74
406680,note_on,120,0,3,,,,,,,,,3,,,53,75
406750,note_off,190,0,2,,,,,,,,,2,,,68,0
406775,note_off,95,0,1,,,,,,,,,1,,,74,0
406800,note_on,0,0,3,,,,,,,,,3,,,56,73
406800,note_on,25,0,1,,,,,,,,,1,,,84,71
406800,note_off,120,0,3,,,,,,,,,3,,,53,0
406920,note_off,120,0,3,,,,,,,,,3,,,56,0
406920,note_on,0,0,3,,,,,,,,,3,,,53,71
406980,control_change,60,0,3,,,,,,,64,0,3,,,,
406980,control_change,420,0,5,,,,,,,64,0,5,,,,
407040,control_change,60,0,3,,,,,,,64,127,3,,,,
407040,note_off,0,0,3,,,,,,,,,3,,,53,0
407040,note_on,0,0,5,,,,,,,,,5,,,51,68
407040,note_off,0,0,5,,,,,,,,,5,,,51,0
407040,control_change,60,0,5,,,,,,,64,127,5,,,,
407160,note_on,120,0,3,,,,,,,,,3,,,53,66
407180,note_off,380,0,1,,,,,,,,,1,,,84,0
407280,note_off,120,0,3,,,,,,,,,3,,,53,0
407280,note_on,0,0,3,,,,,,,,,3,,,56,63
407280,note_on,100,0,1,,,,,,,,,1,,,82,63
407340,note_off,60,0,1,,,,,,,,,1,,,82,0
407340,note_on,0,0,1,,,,,,,,,1,,,80,62
407400,note_on,0,0,3,,,,,,,,,3,,,53,61
407400,note_off,120,0,3,,,,,,,,,3,,,56,0
407400,note_on,0,0,1,,,,,,,,,1,,,84,61
407400,note_off,60,0,1,,,,,,,,,1,,,80,0
407460,note_on,0,0,1,,,,,,,,,1,,,80,60
407460,note_off,60,0,1,,,,,,,,,1,,,84,0
407460,control_change,60,0,3,,,,,,,64,0,3,,,,
407460,control_change,420,0,5,,,,,,,64,0,5,,,,
407520,note_on,0,0,1,,,,,,,,,1,,,79,58
407520,note_off,60,0,1,,,,,,,,,1,,,80,0
407520,control_change,60,0,3,,,,,,,64,127,3,,,,
407520,note_off,0,0,3,,,,,,,,,3,,,53,0
407520,note_on,0,0,5,,,,,,,,,5,,,51,58
407520,note_off,0,0,5,,,,,,,,,5,,,51,0
407520,control_change,60,0,5,,,,,,,64,127,5,,,,
407580,note_on,0,0,1,,,,,,,,,1,,,77,57
407580,note_off,60,0,1,,,,,,,,,1,,,79,0
407640,note_on,120,0,3,,,,,,,,,3,,,53,56
407640,note_off,60,0,1,,,,,,,,,1,,,77,0
407640,note_on,0,0,1,,,,,,,,,1,,,80,56
407700,note_off,60,0,1,,,,,,,,,1,,,80,0
407700,note_on,0,0,1,,,,,,,,,1,,,77,55
407760,note_on,0,0,3,,,,,,,,,3,,,56,54
407760,note_off,120,0,3,,,,,,,,,3,,,53,0
407760,note_off,60,0,1,,,,,,,,,1,,,77,0
407760,note_on,0,0,1,,,,,,,,,1,,,75,54
407820,note_off,60,0,1,,,,,,,,,1,,,75,0
407820,note_on,0,0,1,,,,,,,,,1,,,74,52
407880,note_off,120,0,3,,,,,,,,,3,,,56,0
407880,note_on,0,0,3,,,,,,,,,3,,,53,51
407880,note_off,60,0,1,,,,,,,,,1,,,74,0
407880,note_on,0,0,1,,,,,,,,,1,,,77,51
407940,control_change,420,0,5,,,,,,,64,0,5,,,,
407940,control_change,60,0,3,,,,,,,64,0,3,,,,
407940,note_off,60,0,1,,,,,,,,,1,,,77,0
407940,note_on,0,0,1,,,,,,,,,1,,,74,50
407960,set_tempo,1400,1,0,,,,,,1578947,,,,,,,
407975,note_off,35,0,5,,,,,,,,,5,,,51,0
407975,note_off,35,0,3,,,,,,,,,3,,,53,0
407990,note_off,50,0,1,,,,,,,,,1,,,74,0
408000,note_on,10,0,1,,,,,,,,,1,,,75,53
408000,note_on,25,0,3,,,,,,,,,3,,,55,53
408000,note_on,25,0,5,,,,,,,,,5,,,51,53
408060,note_off,60,0,1,,,,,,,,,1,,,75,0
408060,note_on,0,0,1,,,,,,,,,1,,,77,52
408120,note_off,60,0,1,,,,,,,,,1,,,77,0
408120,note_on,0,0,1,,,,,,,,,1,,,75,51
408180,note_off,60,0,1,,,,,,,,,1,,,75,0
408180,note_on,0,0,1,,,,,,,,,1,,,74,50
408240,note_on,0,0,1,,,,,,,,,1,,,75,49
408240,note_off,60,0,1,,,,,,,,,1,,,74,0
408280,note_off,40,0,1,,,,,,,,,1,,,75,0
408280,note_on,0,0,1,,,,,,,,,1,,,76,49
408320,note_off,40,0,1,,,,,,,,,1,,,76,0
408320,note_on,0,0,1,,,,,,,,,1,,,77,48
408360,note_off,40,0,1,,,,,,,,,1,,,77,0
408360,note_on,0,0,1,,,,,,,,,1,,,78,47
408385,note_off,385,0,3,,,,,,,,,3,,,55,0
408385,note_off,385,0,5,,,,,,,,,5,,,51,0
408420,note_on,60,0,1,,,,,,,,,1,,,79,47
408425,note_off,5,0,1,,,,,,,,,1,,,78,0
408440,set_tempo,480,1,0,,,,,,1666666,,,,,,,
408480,set_tempo,40,1,0,,,,,,1578947,,,,,,,
408480,note_off,55,0,1,,,,,,,,,1,,,79,0
408480,note_on,0,0,1,,,,,,,,,1,,,70,45
408670,note_off,190,0,1,,,,,,,,,1,,,70,0
408680,set_tempo,200,1,0,,,,,,1666666,,,,,,,
408720,note_on,335,0,5,,,,,,,,,5,,,55,42
408720,set_tempo,40,1,0,,,,,,1578947,,,,,,,
408720,note_on,50,0,1,,,,,,,,,1,,,70,43
408720,note_on,1970,0,2,,,,,,,,,2,,,67,43
408960,note_on,0,0,1,,,,,,,,,1,,,68,41
408960,note_off,240,0,1,,,,,,,,,1,,,70,0
408960,note_off,240,0,2,,,,,,,,,2,,,67,0
408960,note_on,0,0,2,,,,,,,,,2,,,65,41
408960,note_on,0,0,5,,,,,,,,,5,,,56,38
408960,note_off,240,0,5,,,,,,,,,5,,,55,0
409200,note_off,240,0,5,,,,,,,,,5,,,56,0
409200,note_on,0,0,1,,,,,,,,,1,,,67,39
409200,note_off,240,0,1,,,,,,,,,1,,,68,0
409200,note_on,0,0,2,,,,,,,,,2,,,63,39
409200,note_off,240,0,2,,,,,,,,,2,,,65,0
409200,note_on,0,0,5,,,,,,,,,5,,,57,35
409390,note_off,190,0,1,,,,,,,,,1,,,67,0
409390,note_off,190,0,5,,,,,,,,,5,,,57,0
409390,note_off,190,0,2,,,,,,,,,2,,,63,0
409400,set_tempo,680,1,0,,,,,,1764705,,,,,,,
409440,note_on,50,0,5,,,,,,,,,5,,,58,49
409440,set_tempo,40,1,0,,,,,,1578947,,,,,,,
409440,note_on,0,0,1,,,,,,,,,1,,,70,48
409440,control_change,50,0,1,,,,,,,64,0,1,,,,
409440,note_on,50,0,2,,,,,,,,,2,,,63,48
409560,note_off,120,0,1,,,,,,,,,1,,,70,0
409560,note_on,0,0,1,,,,,,,,,1,,,69,46
409680,note_off,120,0,1,,,,,,,,,1,,,69,0
409680,note_on,0,0,1,,,,,,,,,1,,,70,43
409800,note_off,120,0,1,,,,,,,,,1,,,70,0
409800,note_on,0,0,1,,,,,,,,,1,,,67,41
409880,set_tempo,440,1,0,,,,,,1666666,,,,,,,
409920,note_off,120,0,1,,,,,,,,,1,,,67,0
409920,note_on,0,0,1,,,,,,,,,1,,,65,39
409920,note_off,480,0,2,,,,,,,,,2,,,63,0
409920,note_on,0,0,2,,,,,,,,,2,,,62,39
409930,set_tempo,50,1,0,,,,,,1818181,,,,,,,
409960,set_tempo,30,1,0,,,,,,1578947,,,,,,,
410040,note_on,600,0,5,,,,,,,,,5,,,59,40
410045,note_off,5,0,5,,,,,,,,,5,,,58,0
410160,note_off,115,0,5,,,,,,,,,5,,,59,0
410160,note_on,0,0,5,,,,,,,,,5,,,60,44
410280,note_on,0,0,5,,,,,,,,,5,,,59,43
410280,note_off,120,0,5,,,,,,,,,5,,,60,0
410305,note_off,385,0,1,,,,,,,,,1,,,65,0
410305,note_off,385,0,2,,,,,,,,,2,,,62,0
410360,set_tempo,400,1,0,,,,,,1666666,,,,,,,
410375,note_off,95,0,5,,,,,,,,,5,,,59,0
410400,set_tempo,40,1,0,,,,,,1578947,,,,,,,
410400,note_on,25,0,5,,,,,,,,,5,,,58,42
410520,note_off,120,0,5,,,,,,,,,5,,,58,0
410520,note_on,0,0,5,,,,,,,,,5,,,56,41
410640,note_off,120,0,5,,,,,,,,,5,,,56,0
410640,note_on,0,0,5,,,,,,,,,5,,,55,40
410760,note_on,0,0,5,,,,,,,,,5,,,53,42
410760,note_off,120,0,5,,,,,,,,,5,,,55,0
410840,set_tempo,440,1,0,,,,,,1935483,,,,,,,
410880,note_off,120,0,5,,,,,,,,,5,,,53,0
410880,note_on,0,0,5,,,,,,,,,5,,,51,44
410880,note_on,575,0,1,,,,,,,,,1,,,70,44
410880,set_tempo,40,1,0,,,,,,1578947,,,,,,,
410920,set_tempo,40,1,0,,,,,,1500000,,,,,,,
410920,note_on,40,0,1,,,,,,,,,1,,,82,49
411000,note_off,80,0,1,,,,,,,,,1,,,70,0
411120,note_off,240,0,5,,,,,,,,,5,,,51,0
411120,note_on,0,0,5,,,,,,,,,5,,,55,46
411360,note_on,0,0,5,,,,,,,,,5,,,58,49
411360,note_off,240,0,5,,,,,,,,,5,,,55,0
411585,note_off,585,0,1,,,,,,,,,1,,,82,0
411600,note_off,240,0,5,,,,,,,,,5,,,58,0
411600,note_on,15,0,1,,,,,,,,,1,,,80,51
411600,note_on,0,0,5,,,,,,,,,5,,,63,51
411660,note_on,0,0,1,,,,,,,,,1,,,79,51
411660,note_off,60,0,1,,,,,,,,,1,,,80,0
411720,note_on,0,0,1,,,,,,,,,1,,,77,52
411720,note_off,60,0,1,,,,,,,,,1,,,79,0
411780,note_on,0,0,1,,,,,,,,,1,,,75,52
411780,note_off,60,0,1,,,,,,,,,1,,,77,0
411790,note_off,190,0,5,,,,,,,,,5,,,63,0
411840,note_off,60,0,1,,,,,,,,,1,,,75,0
411840,note_on,0,0,1,,,,,,,,,1,,,74,53
411840,note_on,50,0,5,,,,,,,,,5,,,68,53
412030,note_off,190,0,1,,,,,,,,,1,,,74,0
412080,note_on,0,0,5,,,,,,,,,5,,,67,55
412080,note_off,240,0,5,,,,,,,,,5,,,68,0
412080,note_on,50,0,1,,,,,,,,,1,,,75,55
412270,note_off,190,0,1,,,,,,,,,1,,,75,0
412280,set_tempo,1360,1,0,,,,,,1666666,,,,,,,
412320,note_on,10175,0,4,,,,,,,,,4,,,68,57
412320,set_tempo,40,1,0,,,,,,1500000,,,,,,,
412320,note_on,50,0,1,,,,,,,,,1,,,77,57
412320,note_on,2015,0,2,,,,,,,,,2,,,74,57
412320,note_off,240,0,5,,,,,,,,,5,,,67,0
412320,note_on,0,0,5,,,,,,,,,5,,,65,57
412560,note_on,0,0,2,,,,,,,,,2,,,75,51
412560,note_on,0,0,4,,,,,,,,,4,,,67,51
412560,note_off,240,0,1,,,,,,,,,1,,,77,0
412560,note_on,0,0,1,,,,,,,,,1,,,80,51
412560,note_off,240,0,4,,,,,,,,,4,,,68,0
412560,note_on,0,0,5,,,,,,,,,5,,,63,51
412560,note_off,240,0,5,,,,,,,,,5,,,65,0
412560,note_off,240,0,2,,,,,,,,,2,,,74,0
412620,note_off,60,0,1,,,,,,,,,1,,,80,0
412620,note_on,0,0,1,,,,,,,,,1,,,79,49
412680,note_off,60,0,1,,,,,,,,,1,,,79,0
412680,note_on,0,0,1,,,,,,,,,1,,,77,48
412740,note_off,60,0,1,,,,,,,,,1,,,77,0
412740,note_on,0,0,1,,,,,,,,,1,,,79,46
412760,set_tempo,440,1,0,,,,,,1578947,,,,,,,
412800,note_off,240,0,5,,,,,,,,,5,,,63,0
412800,note_on,0,0,2,,,,,,,,,2,,,77,45
412800,note_on,0,0,1,,,,,,,,,1,,,80,45
412800,set_tempo,40,1,0,,,,,,1500000,,,,,,,
412800,note_off,240,0,4,,,,,,,,,4,,,67,0
412800,note_off,60,0,1,,,,,,,,,1,,,79,0
412800,note_off,240,0,2,,,,,,,,,2,,,75,0
412800,note_on,0,0,5,,,,,,,,,5,,,62,45
412800,note_on,0,0,4,,,,,,,,,4,,,65,45
412990,note_off,190,0,2,,,,,,,,,2,,,77,0
413000,note_off,200,0,1,,,,,,,,,1,,,80,0
413000,set_tempo,200,1,0,,,,,,1578947,,,,,,,
413040,set_tempo,40,1,0,,,,,,1500000,,,,,,,
413040,note_on,40,0,1,,,,,,,,,1,,,70,42
413040,note_off,240,0,4,,,,,,,,,4,,,65,0
413040,note_off,240,0,5,,,,,,,,,5,,,62,0
413230,note_off,190,0,1,,,,,,,,,1,,,70,0
413280,note_on,50,0,1,,,,,,,,,1,,,70,41
413470,note_off,190,0,1,,,,,,,,,1,,,70,0
413520,note_on,50,0,1,,,,,,,,,1,,,70,42
413710,note_off,190,0,1,,,,,,,,,1,,,70,0
413720,set_tempo,680,1,0,,,,,,1578947,,,,,,,
413760,note_on,50,0,1,,,,,,,,,1,,,80,47
413800,set_tempo,80,1,0,,,,,,1500000,,,,,,,
414000,note_on,960,0,5,,,,,,,,,5,,,58,45
414240,note_off,240,0,5,,,,,,,,,5,,,58,0
414240,note_on,0,0,5,,,,,,,,,5,,,62,46
414480,note_on,0,0,1,,,,,,,,,1,,,82,48
414480,note_off,240,0,5,,,,,,,,,5,,,62,0
414480,note_off,720,0,1,,,,,,,,,1,,,80,0
414480,note_on,0,0,5,,,,,,,,,5,,,65,48
414540,note_off,60,0,1,,,,,,,,,1,,,82,0
414540,note_on,0,0,1,,,,,,,,,1,,,80,48
414600,note_off,60,0,1,,,,,,,,,1,,,80,0
414600,note_on,0,0,1,,,,,,,,,1,,,79,48
414660,note_off,60,0,1,,,,,,,,,1,,,79,0
414660,note_on,0,0,1,,,,,,,,,1,,,77,49
414720,note_on,0,0,5,,,,,,,,,5,,,67,49
414720,note_off,240,0,5,,,,,,,,,5,,,65,0
414720,note_on,0,0,1,,,,,,,,,1,,,75,49
414720,note_off,60,0,1,,,,,,,,,1,,,77,0
414910,note_off,190,0,5,,,,,,,,,5,,,67,0
414910,note_off,190,0,1,,,,,,,,,1,,,75,0
414960,note_on,50,0,5,,,,,,,,,5,,,68,51
414960,note_on,1970,0,2,,,,,,,,,2,,,74,51
414960,note_on,50,0,1,,,,,,,,,1,,,77,51
414960,note_on,1920,0,4,,,,,,,,,4,,,70,51
415150,note_off,190,0,2,,,,,,,,,2,,,74,0
415150,note_off,190,0,1,,,,,,,,,1,,,77,0
415160,set_tempo,1360,1,0,,,,,,1666666,,,,,,,
415200,set_tempo,40,1,0,,,,,,1500000,,,,,,,
415200,note_on,50,0,1,,,,,,,,,1,,,79,52
415200,note_on,50,0,2,,,,,,,,,2,,,75,52
415200,note_on,0,0,5,,,,,,,,,5,,,67,52
415200,note_off,240,0,5,,,,,,,,,5,,,68,0
415440,note_on,0,0,4,,,,,,,,,4,,,68,47
415440,note_on,0,0,5,,,,,,,,,5,,,65,47
415440,note_off,240,0,5,,,,,,,,,5,,,67,0
415440,note_off,480,0,4,,,,,,,,,4,,,70,0
415440,note_off,240,0,1,,,,,,,,,1,,,79,0
415440,note_on,0,0,1,,,,,,,,,1,,,82,47
415440,note_off,240,0,2,,,,,,,,,2,,,75,0
415440,note_on,0,0,2,,,,,,,,,2,,,77,47
415500,note_on,0,0,1,,,,,,,,,1,,,80,46
415500,note_off,60,0,1,,,,,,,,,1,,,82,0
415560,note_on,0,0,1,,,,,,,,,1,,,79,44
415560,note_off,60,0,1,,,,,,,,,1,,,80,0
415620,note_on,0,0,1,,,,,,,,,1,,,80,43
415620,note_off,60,0,1,,,,,,,,,1,,,79,0
415640,set_tempo,440,1,0,,,,,,1578947,,,,,,,
415680,note_off,240,0,5,,,,,,,,,5,,,65,0
415680,note_on,0,0,4,,,,,,,,,4,,,67,42
415680,note_off,240,0,4,,,,,,,,,4,,,68,0
415680,note_on,0,0,5,,,,,,,,,5,,,63,42
415680,note_on,0,0,2,,,,,,,,,2,,,79,42
415680,set_tempo,40,1,0,,,,,,1500000,,,,,,,
415680,note_off,240,0,2,,,,,,,,,2,,,77,0
415680,note_off,60,0,1,,,,,,,,,1,,,80,0
415680,note_on,0,0,1,,,,,,,,,1,,,82,42
415865,note_off,185,0,1,,,,,,,,,1,,,82,0
415870,note_off,190,0,2,,,,,,,,,2,,,79,0
415870,note_off,190,0,4,,,,,,,,,4,,,67,0
415870,note_off,190,0,5,,,,,,,,,5,,,63,0
415880,set_tempo,200,1,0,,,,,,1666666,,,,,,,
415920,note_on,50,0,5,,,,,,,,,5,,,39,38
415920,set_tempo,40,1,0,,,,,,1500000,,,,,,,
415920,note_on,0,0,5,,,,,,,,,5,,,51,38
416110,note_off,0,0,5,,,,,,,,,5,,,39,0
416110,note_off,190,0,5,,,,,,,,,5,,,51,0
416160,note_on,50,0,5,,,,,,,,,5,,,39,40
416160,note_on,0,0,5,,,,,,,,,5,,,51,40
416350,note_off,190,0,5,,,,,,,,,5,,,51,0
416350,note_off,0,0,5,,,,,,,,,5,,,39,0
416400,note_on,50,0,5,,,,,,,,,5,,,51,41
416400,note_on,0,0,5,,,,,,,,,5,,,39,41
416590,note_off,0,0,5,,,,,,,,,5,,,51,0
416590,note_off,190,0,5,,,,,,,,,5,,,39,0
416600,set_tempo,680,1,0,,,,,,1578947,,,,,,,
416640,set_tempo,40,1,0,,,,,,1500000,,,,,,,
416640,note_on,775,0,1,,,,,,,,,1,,,73,46
416880,note_on,1010,0,4,,,,,,,,,4,,,63,45
416880,note_on,290,0,5,,,,,,,,,5,,,55,45
417070,note_off,190,0,5,,,,,,,,,5,,,55,0
417070,note_off,190,0,4,,,,,,,,,4,,,63,0
417120,note_on,50,0,5,,,,,,,,,5,,,55,46
417120,note_on,50,0,4,,,,,,,,,4,,,63,46
417160,note_on,520,0,1,,,,,,,,,1,,,75,47
417165,note_off,5,0,1,,,,,,,,,1,,,73,0
417200,note_off,35,0,1,,,,,,,,,1,,,75,0
417200,note_on,0,0,1,,,,,,,,,1,,,73,47
417240,note_on,0,0,1,,,,,,,,,1,,,72,47
417240,note_off,40,0,1,,,,,,,,,1,,,73,0
417300,note_on,0,0,1,,,,,,,,,1,,,73,48
417300,note_off,60,0,1,,,,,,,,,1,,,72,0
417310,note_off,190,0,5,,,,,,,,,5,,,55,0
417310,note_off,190,0,4,,,,,,,,,4,,,63,0
417360,note_on,50,0,5,,,,,,,,,5,,,55,48
417360,note_off,60,0,1,,,,,,,,,1,,,73,0
417360,note_on,0,0,1,,,,,,,,,1,,,75,48
417360,note_on,50,0,4,,,,,,,,,4,,,63,48
417480,note_off,120,0,1,,,,,,,,,1,,,75,0
417480,note_on,0,0,1,,,,,,,,,1,,,77,49
417550,note_off,190,0,5,,,,,,,,,5,,,55,0
417550,note_off,190,0,4,,,,,,,,,4,,,63,0
417600,note_on,50,0,4,,,,,,,,,4,,,63,50
417600,note_on,0,0,1,,,,,,,,,1,,,75,50
417600,note_on,50,0,5,,,,,,,,,5,,,55,50
417600,note_off,120,0,1,,,,,,,,,1,,,77,0
417720,note_off,120,0,1,,,,,,,,,1,,,75,0
417720,note_on,0,0,1,,,,,,,,,1,,,73,51
417790,note_off,190,0,4,,,,,,,,,4,,,63,0
417790,note_off,190,0,5,,,,,,,,,5,,,55,0
417840,note_on,0,0,1,,,,,,,,,1,,,72,51
417840,note_on,50,0,4,,,,,,,,,4,,,63,51
417840,note_on,50,0,5,,,,,,,,,5,,,55,51
417840,note_off,120,0,1,,,,,,,,,1,,,73,0
417960,note_off,120,0,1,,,,,,,,,1,,,72,0
417960,note_on,0,0,1,,,,,,,,,1,,,71,52
418030,note_off,190,0,5,,,,,,,,,5,,,55,0
418030,note_off,190,0,4,,,,,,,,,4,,,63,0
418040,set_tempo,1400,1,0,,,,,,1578947,,,,,,,
418055,note_off,95,0,1,,,,,,,,,1,,,71,0
418080,note_on,25,0,1,,,,,,,,,1,,,71,56
418080,set_tempo,40,1,0,,,,,,1500000,,,,,,,
418320,note_on,290,0,4,,,,,,,,,4,,,63,55
418320,note_on,290,0,5,,,,,,,,,5,,,55,55
418560,note_off,240,0,5,,,,,,,,,5,,,55,0
418560,note_on,0,0,5,,,,,,,,,5,,,56,56
418680,note_on,600,0,1,,,,,,,,,1,,,72,57
418685,note_off,5,0,1,,,,,,,,,1,,,71,0
418740,note_off,420,0,4,,,,,,,,,4,,,63,0
418750,note_off,190,0,5,,,,,,,,,5,,,56,0
418800,note_on,50,0,5,,,,,,,,,5,,,56,58
418800,note_off,115,0,1,,,,,,,,,1,,,72,0
418800,note_on,0,0,1,,,,,,,,,1,,,75,58
418800,note_on,60,0,4,,,,,,,,,4,,,63,58
418920,note_on,0,0,1,,,,,,,,,1,,,74,59
418920,note_off,120,0,1,,,,,,,,,1,,,75,0
418990,note_off,190,0,4,,,,,,,,,4,,,63,0
418990,note_off,190,0,5,,,,,,,,,5,,,56,0
419040,note_on,0,0,1,,,,,,,,,1,,,77,60
419040,note_on,50,0,5,,,,,,,,,5,,,56,60
419040,note_off,120,0,1,,,,,,,,,1,,,74,0
419040,note_on,50,0,4,,,,,,,,,4,,,63,60
419160,note_off,120,0,1,,,,,,,,,1,,,77,0
419160,note_on,0,0,1,,,,,,,,,1,,,75,61
419230,note_off,190,0,5,,,,,,,,,5,,,56,0
419230,note_off,190,0,4,,,,,,,,,4,,,63,0
419280,note_on,0,0,1,,,,,,,,,1,,,74,61
419280,note_on,50,0,4,,,,,,,,,4,,,63,61
419280,note_on,50,0,5,,,,,,,,,5,,,56,61
419280,note_off,120,0,1,,,,,,,,,1,,,75,0
419400,note_off,120,0,1,,,,,,,,,1,,,74,0
419400,note_on,0,0,1,,,,,,,,,1,,,72,62
419470,note_off,190,0,4,,,,,,,,,4,,,63,0
419470,note_off,190,0,5,,,,,,,,,5,,,56,0
419480,set_tempo,1400,1,0,,,,,,1578947,,,,,,,
419495,note_off,95,0,1,,,,,,,,,1,,,72,0
419520,note_on,50,0,4,,,,,,,,,4,,,63,67
419520,note_on,50,0,5,,,,,,,,,5,,,55,67
419520,note_on,25,0,1,,,,,,,,,1,,,70,67
419600,note_off,80,0,1,,,,,,,,,1,,,70,0
419600,note_on,0,0,1,,,,,,,,,1,,,71,67
419680,note_off,80,0,1,,,,,,,,,1,,,71,0
419680,note_on,0,0,1,,,,,,,,,1,,,72,66
419710,note_off,190,0,5,,,,,,,,,5,,,55,0
419710,note_off,190,0,4,,,,,,,,,4,,,63,0
419760,note_on,50,0,5,,,,,,,,,5,,,56,66
419760,note_on,0,0,1,,,,,,,,,1,,,73,66
419760,note_on,50,0,4,,,,,,,,,4,,,63,66
419760,note_off,80,0,1,,,,,,,,,1,,,72,0
419840,note_on,0,0,1,,,,,,,,,1,,,74,65
419840,note_off,80,0,1,,,,,,,,,1,,,73,0
419920,note_off,80,0,1,,,,,,,,,1,,,74,0
419920,note_on,0,0,1,,,,,,,,,1,,,75,65
419950,note_off,190,0,5,,,,,,,,,5,,,56,0
419950,note_off,190,0,4,,,,,,,,,4,,,63,0
419960,set_tempo,480,1,0,,,,,,1666666,,,,,,,
419985,note_off,65,0,1,,,,,,,,,1,,,75,0
420000,note_on,15,0,1,,,,,,,,,1,,,75,64
420000,note_on,50,0,5,,,,,,,,,5,,,46,64
420000,note_on,50,0,4,,,,,,,,,4,,,55,64
420000,set_tempo,40,1,0,,,,,,1578947,,,,,,,
420060,note_on,60,0,1,,,,,,,,,1,,,63,64
420120,note_off,60,0,1,,,,,,,,,1,,,75,0
420190,note_off,190,0,5,,,,,,,,,5,,,46,0
420190,note_off,190,0,4,,,,,,,,,4,,,55,0
420240,note_on,50,0,5,,,,,,,,,5,,,46,62
420240,note_on,50,0,4,,,,,,,,,4,,,55,62
420430,note_off,190,0,4,,,,,,,,,4,,,55,0
420430,note_off,190,0,5,,,,,,,,,5,,,46,0
420440,set_tempo,440,1,0,,,,,,1666666,,,,,,,
420480,note_on,50,0,4,,,,,,,,,4,,,56,61
420480,note_off,360,0,1,,,,,,,,,1,,,63,0
420480,note_on,0,0,1,,,,,,,,,1,,,67,61
420480,note_on,50,0,5,,,,,,,,,5,,,46,61
420480,note_on,4610,0,2,,,,,,,,,2,,,62,61
420600,note_off,120,0,1,,,,,,,,,1,,,67,0
420600,note_on,0,0,1,,,,,,,,,1,,,65,60
420670,note_off,190,0,4,,,,,,,,,4,,,56,0
420670,note_off,190,0,5,,,,,,,,,5,,,46,0
420720,note_on,50,0,5,,,,,,,,,5,,,46,59
420720,note_off,120,0,1,,,,,,,,,1,,,65,0
420720,note_on,0,0,1,,,,,,,,,1,,,63,59
420720,note_on,50,0,4,,,,,,,,,4,,,56,59
420840,note_off,120,0,1,,,,,,,,,1,,,63,0
420840,note_on,0,0,1,,,,,,,,,1,,,65,58
420910,note_off,190,0,4,,,,,,,,,4,,,56,0
420910,note_off,190,0,5,,,,,,,,,5,,,46,0
420920,set_tempo,480,1,0,,,,,,1764705,,,,,,,
420960,set_tempo,40,1,0,,,,,,1666666,,,,,,,
420960,note_off,480,0,2,,,,,,,,,2,,,62,0
420960,note_on,50,0,4,,,,,,,,,4,,,55,57
420960,note_on,0,0,1,,,,,,,,,1,,,63,57
420960,note_off,120,0,1,,,,,,,,,1,,,65,0
420960,note_on,50,0,5,,,,,,,,,5,,,51,57
421000,set_tempo,40,1,0,,,,,,1500000,,,,,,,
421055,note_off,95,0,5,,,,,,,,,5,,,51,0
421055,note_off,95,0,4,,,,,,,,,4,,,55,0
421080,note_on,25,0,5,,,,,,,,,5,,,51,50
421200,note_off,120,0,5,,,,,,,,,5,,,51,0
421200,note_on,0,0,5,,,,,,,,,5,,,55,52
421320,note_off,120,0,5,,,,,,,,,5,,,55,0
421320,note_on,0,0,5,,,,,,,,,5,,,58,53
421345,note_off,385,0,1,,,,,,,,,1,,,63,0
421440,note_on,0,0,5,,,,,,,,,5,,,56,54
421440,note_off,120,0,5,,,,,,,,,5,,,58,0
421560,note_on,505,0,4,,,,,,,,,4,,,58,55
421560,note_off,120,0,5,,,,,,,,,5,,,56,0
421680,note_off,120,0,4,,,,,,,,,4,,,58,0
421680,note_on,335,0,1,,,,,,,,,1,,,70,56
421680,note_on,120,0,5,,,,,,,,,5,,,55,56
421680,note_on,720,0,2,,,,,,,,,2,,,63,56
421800,note_off,120,0,5,,,,,,,,,5,,,55,0
421800,note_on,120,0,4,,,,,,,,,4,,,58,57
421870,note_off,190,0,1,,,,,,,,,1,,,70,0
421870,note_off,190,0,2,,,,,,,,,2,,,63,0
421920,note_on,50,0,2,,,,,,,,,2,,,65,58
421920,note_on,120,0,5,,,,,,,,,5,,,53,58
421920,note_off,120,0,4,,,,,,,,,4,,,58,0
421920,note_on,50,0,1,,,,,,,,,1,,,70,58
422040,note_off,120,0,5,,,,,,,,,5,,,53,0
422040,note_on,120,0,4,,,,,,,,,4,,,58,59
422110,note_off,190,0,1,,,,,,,,,1,,,70,0
422110,note_off,190,0,2,,,,,,,,,2,,,65,0
422160,note_on,50,0,1,,,,,,,,,1,,,70,60
422160,note_on,120,0,5,,,,,,,,,5,,,51,60
422160,note_on,50,0,2,,,,,,,,,2,,,67,60
422160,note_off,120,0,4,,,,,,,,,4,,,58,0
422280,note_on,120,0,4,,,,,,,,,4,,,58,62
422280,note_off,120,0,5,,,,,,,,,5,,,51,0
422350,note_off,190,0,2,,,,,,,,,2,,,67,0
422350,note_off,190,0,1,,,,,,,,,1,,,70,0
422360,set_tempo,1360,1,0,,,,,,1666666,,,,,,,
422375,note_off,95,0,4,,,,,,,,,4,,,58,0
422400,note_on,120,0,5,,,,,,,,,5,,,50,63
422400,note_on,50,0,2,,,,,,,,,2,,,68,63
422400,set_tempo,40,1,0,,,,,,1500000,,,,,,,
422400,note_on,50,0,1,,,,,,,,,1,,,70,63
422520,note_off,120,0,5,,,,,,,,,5,,,50,0
422520,note_on,0,0,5,,,,,,,,,5,,,53,64
422640,note_off,120,0,5,,,,,,,,,5,,,53,0
422640,note_on,0,0,5,,,,,,,,,5,,,56,65
422700,note_on,300,0,1,,,,,,,,,1,,,72,65
422705,note_off,5,0,1,,,,,,,,,1,,,70,0
422760,note_off,120,0,5,,,,,,,,,5,,,56,0
422760,note_on,0,0,5,,,,,,,,,5,,,55,66
422760,note_on,0,0,1,,,,,,,,,1,,,70,66
422760,note_off,55,0,1,,,,,,,,,1,,,72,0
422820,note_off,60,0,1,,,,,,,,,1,,,70,0
422820,note_on,0,0,1,,,,,,,,,1,,,69,67
422880,note_on,0,0,1,,,,,,,,,1,,,70,67
422880,note_off,480,0,2,,,,,,,,,2,,,68,0
422880,note_off,120,0,5,,,,,,,,,5,,,55,0
422880,note_on,0,0,5,,,,,,,,,5,,,53,67
422880,note_off,60,0,1,,,,,,,,,1,,,69,0
423000,note_off,120,0,5,,,,,,,,,5,,,53,0
423000,note_on,0,0,5,,,,,,,,,5,,,51,68
423070,note_off,190,0,1,,,,,,,,,1,,,70,0
423120,note_on,240,0,2,,,,,,,,,2,,,62,69
423120,note_on,50,0,1,,,,,,,,,1,,,70,69
423120,note_on,0,0,5,,,,,,,,,5,,,50,69
423120,note_off,120,0,5,,,,,,,,,5,,,51,0
423240,note_off,120,0,5,,,,,,,,,5,,,50,0
423240,note_on,0,0,5,,,,,,,,,5,,,48,70
423360,note_off,120,0,5,,,,,,,,,5,,,48,0
423360,note_on,0,0,5,,,,,,,,,5,,,46,71
423360,note_off,240,0,2,,,,,,,,,2,,,62,0
423360,note_on,0,0,2,,,,,,,,,2,,,63,71
423360,note_on,0,0,1,,,,,,,,,1,,,72,71
423360,note_off,240,0,1,,,,,,,,,1,,,70,0
423480,note_on,0,0,5,,,,,,,,,5,,,48,73
423480,note_off,120,0,5,,,,,,,,,5,,,46,0
423600,note_off,120,0,5,,,,,,,,,5,,,48,0
423600,note_on,0,0,1,,,,,,,,,1,,,74,74
423600,note_off,240,0,1,,,,,,,,,1,,,72,0
423600,note_on,0,0,5,,,,,,,,,5,,,44,74
423600,note_off,240,0,2,,,,,,,,,2,,,63,0
423600,note_on,0,0,2,,,,,,,,,2,,,65,74
423720,note_off,120,0,5,,,,,,,,,5,,,44,0
423720,note_on,0,0,5,,,,,,,,,5,,,46,75
423790,note_off,190,0,1,,,,,,,,,1,,,74,0
423790,note_off,190,0,2,,,,,,,,,2,,,65,0
423800,set_tempo,1400,1,0,,,,,,1578947,,,,,,,
423815,note_off,95,0,5,,,,,,,,,5,,,46,0
423840,note_on,50,0,1,,,,,,,,,1,,,75,78
423840,note_on,50,0,2,,,,,,,,,2,,,63,78
423840,set_tempo,40,1,0,,,,,,1500000,,,,,,,
423840,note_on,25,0,5,,,,,,,,,5,,,43,76
423960,note_off,120,0,5,,,,,,,,,5,,,43,0
423960,note_on,0,0,5,,,,,,,,,5,,,46,74
424080,note_on,0,0,5,,,,,,,,,5,,,51,73
424080,note_off,120,0,5,,,,,,,,,5,,,46,0
424140,note_on,300,0,1,,,,,,,,,1,,,77,72
424145,note_off,5,0,1,,,,,,,,,1,,,75,0
424200,note_off,120,0,5,,,,,,,,,5,,,51,0
424200,note_on,0,0,1,,,,,,,,,1,,,79,72
424200,note_off,55,0,1,,,,,,,,,1,,,77,0
424200,note_on,0,0,5,,,,,,,,,5,,,43,72
424260,note_on,0,0,1,,,,,,,,,1,,,75,71
424260,note_off,60,0,1,,,,,,,,,1,,,79,0
424280,set_tempo,440,1,0,,,,,,1578947,,,,,,,
424320,set_tempo,40,1,0,,,,,,1500000,,,,,,,
424320,note_on,0,0,5,,,,,,,,,5,,,55,70
424320,note_off,60,0,1,,,,,,,,,1,,,75,0
424320,note_on,0,0,1,,,,,,,,,1,,,70,70
424320,note_off,120,0,5,,,,,,,,,5,,,43,0
424415,note_off,575,0,2,,,,,,,,,2,,,63,0
424510,note_off,190,0,1,,,,,,,,,1,,,70,0
424510,note_off,190,0,5,,,,,,,,,5,,,55,0
424520,set_tempo,200,1,0,,,,,,1578947,,,,,,,
424560,note_on,145,0,2,,,,,,,,,2,,,67,65
424560,set_tempo,40,1,0,,,,,,1500000,,,,,,,
424560,note_on,50,0,1,,,,,,,,,1,,,70,65
424560,note_on,50,0,5,,,,,,,,,5,,,51,67
424560,note_on,2185,0,4,,,,,,,,,4,,,55,67
424800,note_off,240,0,4,,,,,,,,,4,,,55,0
424800,note_off,240,0,1,,,,,,,,,1,,,70,0
424800,note_on,0,0,1,,,,,,,,,1,,,68,63
424800,note_on,0,0,2,,,,,,,,,2,,,65,63
424800,note_off,240,0,5,,,,,,,,,5,,,51,0
424800,note_on,0,0,5,,,,,,,,,5,,,53,64
424800,note_off,240,0,2,,,,,,,,,2,,,67,0
424800,note_on,0,0,4,,,,,,,,,4,,,56,64
425040,note_on,0,0,1,,,,,,,,,1,,,67,60
425040,note_off,240,0,5,,,,,,,,,5,,,53,0
425040,note_on,0,0,5,,,,,,,,,5,,,55,61
425040,note_on,0,0,2,,,,,,,,,2,,,63,60
425040,note_off,240,0,1,,,,,,,,,1,,,68,0
425040,note_off,240,0,2,,,,,,,,,2,,,65,0
425040,note_off,240,0,4,,,,,,,,,4,,,56,0
425040,note_on,0,0,4,,,,,,,,,4,,,58,61
425230,note_off,190,0,4,,,,,,,,,4,,,58,0
425230,note_off,190,0,1,,,,,,,,,1,,,67,0
425230,note_off,190,0,2,,,,,,,,,2,,,63,0
425230,note_off,190,0,5,,,,,,,,,5,,,55,0
425240,set_tempo,680,1,0,,,,,,1578947,,,,,,,
425280,note_on,50,0,5,,,,,,,,,5,,,56,65
425280,note_on,50,0,4,,,,,,,,,4,,,60,65
425280,note_on,50,0,1,,,,,,,,,1,,,65,65
425580,note_on,0,0,1,,,,,,,,,1,,,67,61
425580,note_off,300,0,1,,,,,,,,,1,,,65,0
425640,note_off,60,0,1,,,,,,,,,1,,,67,0
425640,note_on,0,0,1,,,,,,,,,1,,,68,60
425665,note_off,385,0,4,,,,,,,,,4,,,60,0
425665,note_off,385,0,5,,,,,,,,,5,,,56,0
425700,note_on,0,0,1,,,,,,,,,1,,,65,59
425700,note_off,60,0,1,,,,,,,,,1,,,68,0
425760,note_on,0,0,1,,,,,,,,,1,,,72,58
425760,note_off,60,0,1,,,,,,,,,1,,,65,0
425950,note_off,190,0,1,,,,,,,,,1,,,72,0
425960,set_tempo,720,1,0,,,,,,1578947,,,,,,,
426000,set_tempo,40,1,0,,,,,,1500000,,,,,,,
426000,note_on,50,0,1,,,,,,,,,1,,,68,55
426000,note_on,335,0,4,,,,,,,,,4,,,53,55
426000,note_on,770,0,2,,,,,,,,,2,,,60,55
426000,note_on,335,0,5,,,,,,,,,5,,,44,55
426240,note_on,0,0,2,,,,,,,,,2,,,58,52
426240,note_off,240,0,2,,,,,,,,,2,,,60,0
426240,note_off,240,0,5,,,,,,,,,5,,,44,0
426240,note_on,0,0,5,,,,,,,,,5,,,46,52
426240,note_on,0,0,1,,,,,,,,,1,,,63,52
426240,note_on,0,0,4,,,,,,,,,4,,,55,52
426240,note_off,240,0,4,,,,,,,,,4,,,53,0
426240,note_off,240,0,1,,,,,,,,,1,,,68,0
426480,note_off,240,0,1,,,,,,,,,1,,,63,0
426480,note_on,0,0,2,,,,,,,,,2,,,62,48
426480,note_on,0,0,1,,,,,,,,,1,,,65,48
426480,note_on,0,0,4,,,,,,,,,4,,,56,48
426480,note_off,240,0,4,,,,,,,,,4,,,55,0
426480,note_off,240,0,2,,,,,,,,,2,,,58,0
426670,note_off,190,0,1,,,,,,,,,1,,,65,0
426670,note_off,190,0,2,,,,,,,,,2,,,62,0
426670,note_off,190,0,4,,,,,,,,,4,,,56,0
426680,set_tempo,680,1,0,,,,,,1578947,,,,,,,
426680,note_off,440,0,5,,,,,,,,,5,,,46,0
426720,note_on,50,0,4,,,,,,,,,4,,,56,51
426720,note_on,50,0,1,,,,,,,,,1,,,65,51
426720,note_on,50,0,2,,,,,,,,,2,,,62,51
426720,note_on,40,0,5,,,,,,,,,5,,,51,51
427010,note_off,290,0,1,,,,,,,,,1,,,65,0
427080,note_on,70,0,1,,,,,,,,,1,,,66,46
427175,note_off,95,0,1,,,,,,,,,1,,,66,0
427200,note_on,0,0,5,,,,,,,,,5,,,51,44
427200,note_off,480,0,5,,,,,,,,,5,,,51,0
427200,note_off,480,0,2,,,,,,,,,2,,,62,0
427200,note_on,0,0,2,,,,,,,,,2,,,63,44
427200,note_on,0,0,4,,,,,,,,,4,,,55,44
427200,note_off,480,0,4,,,,,,,,,4,,,56,0
427200,note_on,25,0,1,,,,,,,,,1,,,67,44
427295,note_off,95,0,5,,,,,,,,,5,,,51,0
427295,note_off,95,0,4,,,,,,,,,4,,,55,0
427320,set_tempo,640,1,0,,,,,,1500000,,,,,,,
427320,note_off,120,0,2,,,,,,,,,2,,,63,0
427320,note_on,25,0,5,,,,,,,,,5,,,63,47
427390,note_off,190,0,1,,,,,,,,,1,,,67,0
427440,note_off,120,0,5,,,,,,,,,5,,,63,0
427440,note_on,120,0,2,,,,,,,,,2,,,75,49
427440,note_on,50,0,1,,,,,,,,,1,,,82,49
427440,note_on,0,0,5,,,,,,,,,5,,,67,49
427560,note_off,120,0,5,,,,,,,,,5,,,67,0
427560,note_on,0,0,5,,,,,,,,,5,,,70,51
427630,note_off,190,0,1,,,,,,,,,1,,,82,0
427630,note_off,190,0,2,,,,,,,,,2,,,75,0
427680,note_on,50,0,1,,,,,,,,,1,,,82,53
427680,note_on,50,0,2,,,,,,,,,2,,,77,53
427680,note_on,0,0,5,,,,,,,,,5,,,68,53
427680,note_off,120,0,5,,,,,,,,,5,,,70,0
427800,note_on,0,0,5,,,,,,,,,5,,,67,55
427800,note_off,120,0,5,,,,,,,,,5,,,68,0
427870,note_off,190,0,1,,,,,,,,,1,,,82,0
427870,note_off,190,0,2,,,,,,,,,2,,,77,0
427920,note_on,50,0,1,,,,,,,,,1,,,82,57
427920,note_on,50,0,2,,,,,,,,,2,,,79,57
427920,note_off,120,0,5,,,,,,,,,5,,,67,0
427920,note_on,0,0,5,,,,,,,,,5,,,65,57
428040,note_off,120,0,5,,,,,,,,,5,,,65,0
428040,note_on,0,0,5,,,,,,,,,5,,,63,59
428110,note_off,190,0,1,,,,,,,,,1,,,82,0
428110,note_off,190,0,2,,,,,,,,,2,,,79,0
428120,set_tempo,800,1,0,,,,,,1666666,,,,,,,
428135,note_off,95,0,5,,,,,,,,,5,,,63,0
428160,note_on,50,0,2,,,,,,,,,2,,,80,60
428160,set_tempo,40,1,0,,,,,,1500000,,,,,,,
428160,note_on,25,0,5,,,,,,,,,5,,,62,60
428160,note_on,50,0,1,,,,,,,,,1,,,82,60
428280,note_off,120,0,5,,,,,,,,,5,,,62,0
428280,note_on,0,0,5,,,,,,,,,5,,,65,58
428400,note_on,0,0,5,,,,,,,,,5,,,68,57
428400,note_off,120,0,5,,,,,,,,,5,,,65,0
428460,note_off,300,0,1,,,,,,,,,1,,,82,0
428460,note_on,0,0,1,,,,,,,,,1,,,84,56
428520,note_off,60,0,1,,,,,,,,,1,,,84,0
428520,note_on,0,0,5,,,,,,,,,5,,,67,56
428520,note_on,0,0,1,,,,,,,,,1,,,82,56
428520,note_off,120,0,5,,,,,,,,,5,,,68,0
428545,note_off,385,0,2,,,,,,,,,2,,,80,0
428580,note_off,60,0,1,,,,,,,,,1,,,82,0
428580,note_on,0,0,1,,,,,,,,,1,,,81,55
428640,note_off,60,0,1,,,,,,,,,1,,,81,0
428640,note_on,0,0,1,,,,,,,,,1,,,82,55
428640,note_off,120,0,5,,,,,,,,,5,,,67,0
428640,note_on,0,0,5,,,,,,,,,5,,,65,55
428760,note_off,120,0,5,,,,,,,,,5,,,65,0
428760,note_on,0,0,5,,,,,,,,,5,,,63,54
428830,note_off,190,0,1,,,,,,,,,1,,,82,0
428880,note_on,50,0,1,,,,,,,,,1,,,82,56
428880,note_on,335,0,2,,,,,,,,,2,,,74,56
428880,note_on,0,0,5,,,,,,,,,5,,,62,56
428880,note_off,120,0,5,,,,,,,,,5,,,63,0
429000,note_on,0,0,5,,,,,,,,,5,,,60,58
429000,note_off,120,0,5,,,,,,,,,5,,,62,0
429120,note_off,240,0,1,,,,,,,,,1,,,82,0
429120,note_on,0,0,1,,,,,,,,,1,,,84,60
429120,note_on,0,0,2,,,,,,,,,2,,,75,60
429120,note_off,240,0,2,,,,,,,,,2,,,74,0
429120,note_off,120,0,5,,,,,,,,,5,,,60,0
429120,note_on,0,0,5,,,,,,,,,5,,,58,60
429240,note_on,0,0,5,,,,,,,,,5,,,60,62
429240,note_off,120,0,5,,,,,,,,,5,,,58,0
429360,note_off,240,0,1,,,,,,,,,1,,,84,0
429360,note_on,0,0,5,,,,,,,,,5,,,56,64
429360,note_off,120,0,5,,,,,,,,,5,,,60,0
429360,note_off,240,0,2,,,,,,,,,2,,,75,0
429360,note_on,0,0,2,,,,,,,,,2,,,77,64
429360,note_on,0,0,1,,,,,,,,,1,,,86,64
429480,note_on,0,0,5,,,,,,,,,5,,,58,66
429480,note_off,120,0,5,,,,,,,,,5,,,56,0
429560,set_tempo,1400,1,0,,,,,,1666666,,,,,,,
429575,note_off,95,0,5,,,,,,,,,5,,,58,0
429595,note_off,235,0,2,,,,,,,,,2,,,77,0
429595,note_off,235,0,1,,,,,,,,,1,,,86,0
429600,note_on,25,0,5,,,,,,,,,5,,,55,69
429600,set_tempo,40,1,0,,,,,,1500000,,,,,,,
429600,note_on,5,0,2,,,,,,,,,2,,,75,69
429600,note_on,5,0,1,,,,,,,,,1,,,87,69
429720,note_off,120,0,5,,,,,,,,,5,,,55,0
429720,note_on,0,0,5,,,,,,,,,5,,,58,67
429840,note_off,120,0,5,,,,,,,,,5,,,58,0
429840,note_on,0,0,5,,,,,,,,,5,,,60,66
429900,note_on,300,0,1,,,,,,,,,1,,,86,65
429905,note_off,5,0,1,,,,,,,,,1,,,87,0
429960,note_off,120,0,5,,,,,,,,,5,,,60,0
429960,note_on,0,0,5,,,,,,,,,5,,,62,64
429960,note_off,55,0,1,,,,,,,,,1,,,86,0
429960,note_on,0,0,1,,,,,,,,,1,,,87,64
429985,note_off,385,0,2,,,,,,,,,2,,,75,0
430020,note_on,0,0,1,,,,,,,,,1,,,82,63
430020,note_off,60,0,1,,,,,,,,,1,,,87,0
430040,set_tempo,440,1,0,,,,,,1578947,,,,,,,
430080,set_tempo,40,1,0,,,,,,1500000,,,,,,,
430080,note_on,0,0,1,,,,,,,,,1,,,79,62
430080,note_off,60,0,1,,,,,,,,,1,,,82,0
430080,note_off,120,0,5,,,,,,,,,5,,,62,0
430080,note_on,0,0,5,,,,,,,,,5,,,63,62
430240,set_tempo,160,1,0,,,,,,1578947,,,,,,,
430270,note_off,190,0,1,,,,,,,,,1,,,79,0
430270,note_off,190,0,5,,,,,,,,,5,,,63,0
430280,set_tempo,40,1,0,,,,,,1500000,,,,,,,
430320,note_on,50,0,1,,,,,,,,,1,,,82,59
430320,note_on,335,0,2,,,,,,,,,2,,,79,59
430320,note_on,50,0,5,,,,,,,,,5,,,63,59
430320,note_on,3025,0,4,,,,,,,,,4,,,67,59
430560,note_on,0,0,5,,,,,,,,,5,,,65,56
430560,note_off,240,0,1,,,,,,,,,1,,,82,0
430560,note_off,240,0,4,,,,,,,,,4,,,67,0
430560,note_off,240,0,2,,,,,,,,,2,,,79,0
430560,note_on,0,0,2,,,,,,,,,2,,,77,56
430560,note_off,240,0,5,,,,,,,,,5,,,63,0
430560,note_on,0,0,1,,,,,,,,,1,,,80,56
430560,note_on,0,0,4,,,,,,,,,4,,,68,56
430800,note_on,0,0,1,,,,,,,,,1,,,79,52
430800,note_on,0,0,5,,,,,,,,,5,,,67,52
430800,note_off,240,0,1,,,,,,,,,1,,,80,0
430800,note_off,240,0,5,,,,,,,,,5,,,65,0
430800,note_on,0,0,4,,,,,,,,,4,,,70,52
430800,note_off,240,0,2,,,,,,,,,2,,,77,0
430800,note_on,0,0,2,,,,,,,,,2,,,75,52
430800,note_off,240,0,4,,,,,,,,,4,,,68,0
431000,set_tempo,720,1,0,,,,,,1666666,,,,,,,
431035,note_off,235,0,1,,,,,,,,,1,,,79,0
431035,note_off,235,0,2,,,,,,,,,2,,,75,0
431040,note_on,5,0,1,,,,,,,,,1,,,76,56
431040,note_off,240,0,5,,,,,,,,,5,,,67,0
431040,set_tempo,40,1,0,,,,,,1500000,,,,,,,
431040,note_on,0,0,4,,,,,,,,,4,,,72,56
431040,note_off,240,0,4,,,,,,,,,4,,,70,0
431040,note_on,0,0,5,,,,,,,,,5,,,68,56
431100,note_on,0,0,1,,,,,,,,,1,,,77,55
431100,note_off,60,0,1,,,,,,,,,1,,,76,0
431160,note_on,0,0,1,,,,,,,,,1,,,79,55
431160,note_off,60,0,1,,,,,,,,,1,,,77,0
431220,note_on,0,0,1,,,,,,,,,1,,,77,54
431220,note_off,60,0,1,,,,,,,,,1,,,79,0
431280,note_on,0,0,1,,,,,,,,,1,,,80,53
431280,note_off,60,0,1,,,,,,,,,1,,,77,0
431340,note_off,60,0,1,,,,,,,,,1,,,80,0
431340,note_on,0,0,1,,,,,,,,,1,,,79,52
431400,note_off,60,0,1,,,,,,,,,1,,,79,0
431400,note_on,0,0,1,,,,,,,,,1,,,82,52
431425,note_off,385,0,4,,,,,,,,,4,,,72,0
431425,note_off,385,0,5,,,,,,,,,5,,,68,0
431460,note_off,60,0,1,,,,,,,,,1,,,82,0
431460,note_on,0,0,1,,,,,,,,,1,,,80,51
431480,set_tempo,440,1,0,,,,,,1578947,,,,,,,
431520,note_off,60,0,1,,,,,,,,,1,,,80,0
431520,note_on,0,0,1,,,,,,,,,1,,,84,50
432000,note_off,480,0,1,,,,,,,,,1,,,84,0
432000,note_on,0,0,1,,,,,,,,,1,,,82,44
432000,note_on,575,0,5,,,,,,,,,5,,,58,44
432000,note_on,575,0,4,,,,,,,,,4,,,62,44
432000,note_on,0,0,4,,,,,,,,,4,,,68,44
432240,note_on,0,0,4,,,,,,,,,4,,,65,41
432240,note_off,240,0,1,,,,,,,,,1,,,82,0
432240,note_off,240,0,4,,,,,,,,,4,,,62,0
432385,note_off,145,0,4,,,,,,,,,4,,,68,0
432385,note_off,385,0,5,,,,,,,,,5,,,58,0
432420,note_on,180,0,1,,,,,,,,,1,,,74,44
432430,note_off,45,0,4,,,,,,,,,4,,,65,0
432440,set_tempo,960,1,0,,,,,,1764705,,,,,,,
432480,set_tempo,40,1,0,,,,,,1500000,,,,,,,
432480,control_change,95,0,5,,,,,,,64,127,5,,,,
432480,note_on,0,0,5,,,,,,,,,5,,,63,42
432480,control_change,24095,0,3,,,,,,,64,127,3,,,,
432480,note_on,0,0,1,,,,,,,,,1,,,75,42
432480,note_off,60,0,1,,,,,,,,,1,,,74,0
432600,note_on,120,0,3,,,,,,,,,3,,,67,43
432720,note_off,120,0,3,,,,,,,,,3,,,67,0
432720,note_on,0,0,3,,,,,,,,,3,,,70,45
432840,note_off,360,0,5,,,,,,,,,5,,,63,0
432840,note_off,120,0,3,,,,,,,,,3,,,70,0
432840,note_on,0,0,3,,,,,,,,,3,,,67,46
432900,control_change,60,0,5,,,,,,,64,0,5,,,,
432900,control_change,60,0,3,,,,,,,64,0,3,,,,
432960,control_change,60,0,5,,,,,,,64,127,5,,,,
432960,note_off,480,0,1,,,,,,,,,1,,,75,0
432960,note_on,0,0,5,,,,,,,,,5,,,63,47
432960,note_off,0,0,3,,,,,,,,,3,,,67,0
432960,control_change,60,0,3,,,,,,,64,127,3,,,,
433080,note_on,120,0,3,,,,,,,,,3,,,67,49
433200,note_on,0,0,3,,,,,,,,,3,,,70,50
433200,note_off,120,0,3,,,,,,,,,3,,,67,0
433200,note_on,240,0,1,,,,,,,,,1,,,85,50
433320,note_off,360,0,5,,,,,,,,,5,,,63,0
433320,note_on,0,0,3,,,,,,,,,3,,,67,52
433320,note_off,120,0,3,,,,,,,,,3,,,70,0
433380,control_change,60,0,3,,,,,,,64,0,3,,,,
433380,control_change,60,0,5,,,,,,,64,0,5,,,,
433440,note_on,0,0,1,,,,,,,,,1,,,84,53
433440,note_off,0,0,3,,,,,,,,,3,,,67,0
433440,control_change,60,0,3,,,,,,,64,127,3,,,,
433440,note_off,240,0,1,,,,,,,,,1,,,85,0
433440,note_on,0,0,5,,,,,,,,,5,,,68,53
433440,control_change,60,0,5,,,,,,,64,127,5,,,,
433560,note_on,0,0,5,,,,,,,,,5,,,65,55
433560,note_off,120,0,5,,,,,,,,,5,,,68,0
433620,control_change,180,0,3,,,,,,,64,0,3,,,,
433620,control_change,60,0,5,,,,,,,64,0,5,,,,
433680,note_on,0,0,1,,,,,,,,,1,,,86,56
433680,note_off,0,0,5,,,,,,,,,5,,,65,0
433680,control_change,60,0,5,,,,,,,64,127,5,,,,
433680,control_change,60,0,3,,,,,,,64,127,3,,,,
433680,note_on,0,0,5,,,,,,,,,5,,,70,56
433680,note_off,240,0,1,,,,,,,,,1,,,84,0
433800,note_off,120,0,5,,,,,,,,,5,,,70,0
433800,note_on,0,0,5,,,,,,,,,5,,,68,58
433860,control_change,60,0,5,,,,,,,64,0,5,,,,
433860,control_change,180,0,3,,,,,,,64,0,3,,,,
433870,note_off,190,0,1,,,,,,,,,1,,,86,0
433880,set_tempo,1400,1,0,,,,,,1578947,,,,,,,
433895,note_off,35,0,5,,,,,,,,,5,,,68,0
433920,set_tempo,40,1,0,,,,,,1500000,,,,,,,
433920,note_on,25,0,5,,,,,,,,,5,,,67,61
433920,note_on,50,0,1,,,,,,,,,1,,,89,61
434040,note_off,120,0,5,,,,,,,,,5,,,67,0
434040,note_on,0,0,5,,,,,,,,,5,,,70,56
434160,note_on,0,0,1,,,,,,,,,1,,,87,54
434160,note_off,120,0,5,,,,,,,,,5,,,70,0
434160,note_on,0,0,5,,,,,,,,,5,,,67,54
434160,note_off,240,0,1,,,,,,,,,1,,,89,0
434280,note_off,120,0,5,,,,,,,,,5,,,67,0
434280,note_on,0,0,5,,,,,,,,,5,,,65,53
434350,note_off,190,0,1,,,,,,,,,1,,,87,0
434400,note_off,120,0,5,,,,,,,,,5,,,65,0
434400,note_on,0,0,5,,,,,,,,,5,,,63,52
434520,note_on,0,0,5,,,,,,,,,5,,,61,50
434520,note_off,120,0,5,,,,,,,,,5,,,63,0
434640,note_on,290,0,1,,,,,,,,,1,,,73,52
434640,note_on,0,0,5,,,,,,,,,5,,,58,52
434640,note_off,120,0,5,,,,,,,,,5,,,61,0
434760,note_on,0,0,5,,,,,,,,,5,,,55,55
434760,note_off,120,0,5,,,,,,,,,5,,,58,0
434880,note_on,0,0,1,,,,,,,,,1,,,72,57
434880,note_on,0,0,5,,,,,,,,,5,,,56,57
434880,note_off,120,0,5,,,,,,,,,5,,,55,0
434880,note_off,240,0,1,,,,,,,,,1,,,73,0
435000,note_on,0,0,5,,,,,,,,,5,,,53,60
435000,note_off,120,0,5,,,,,,,,,5,,,56,0
435070,note_off,190,0,1,,,,,,,,,1,,,72,0
435120,note_on,50,0,1,,,,,,,,,1,,,74,62
435120,note_off,120,0,5,,,,,,,,,5,,,53,0
435120,note_on,0,0,5,,,,,,,,,5,,,58,62
435120,note_on,4085,0,2,,,,,,,,,2,,,68,62
435240,note_on,0,0,5,,,,,,,,,5,,,46,65
435240,note_off,120,0,5,,,,,,,,,5,,,58,0
435310,note_off,190,0,1,,,,,,,,,1,,,74,0
435310,note_off,190,0,2,,,,,,,,,2,,,68,0
435335,note_off,95,0,5,,,,,,,,,5,,,46,0
435340,set_tempo,1420,1,0,,,,,,1764705,,,,,,,
435360,note_on,50,0,2,,,,,,,,,2,,,68,66
435360,note_on,50,0,1,,,,,,,,,1,,,77,66
435360,note_on,25,0,5,,,,,,,,,5,,,51,66
435360,set_tempo,20,1,0,,,,,,1666666,,,,,,,
435840,set_tempo,480,1,0,,,,,,1935483,,,,,,,
435840,note_on,0,0,1,,,,,,,,,1,,,75,47
435840,note_off,480,0,1,,,,,,,,,1,,,77,0
435840,note_on,0,0,2,,,,,,,,,2,,,67,47
435840,note_off,480,0,2,,,,,,,,,2,,,68,0
436020,note_off,660,0,5,,,,,,,,,5,,,51,0
436030,note_off,190,0,2,,,,,,,,,2,,,67,0
436030,note_off,190,0,1,,,,,,,,,1,,,75,0
436080,set_tempo,240,1,0,,,,,,1764705,,,,,,,
436080,note_on,50,0,1,,,,,,,,,1,,,65,38
436080,note_on,50,0,2,,,,,,,,,2,,,62,38
436320,note_off,240,0,1,,,,,,,,,1,,,65,0
436320,note_off,240,0,2,,,,,,,,,2,,,62,0
436320,note_on,0,0,2,,,,,,,,,2,,,63,41
436320,note_on,0,0,1,,,,,,,,,1,,,67,41
436560,note_on,540,0,5,,,,,,,,,5,,,46,45
436560,note_off,240,0,2,,,,,,,,,2,,,63,0
436560,note_on,0,0,2,,,,,,,,,2,,,65,45
436560,note_off,240,0,1,,,,,,,,,1,,,67,0
436560,note_on,0,0,1,,,,,,,,,1,,,68,45
436640,set_tempo,560,1,0,,,,,,2222222,,,,,,,
436750,note_off,190,0,1,,,,,,,,,1,,,68,0
436750,note_off,190,0,5,,,,,,,,,5,,,46,0
436750,note_off,190,0,2,,,,,,,,,2,,,65,0
436800,note_on,50,0,2,,,,,,,,,2,,,62,49
436800,note_on,0,0,2,,,,,,,,,2,,,65,49
436800,set_tempo,160,1,0,,,,,,1818181,,,,,,,
436800,note_on,4370,0,4,,,,,,,,,4,,,51,49
436800,note_on,50,0,1,,,,,,,,,1,,,68,49
436800,note_on,50,0,5,,,,,,,,,5,,,39,49
437760,set_tempo,960,1,0,,,,,,2500000,,,,,,,
437760,note_on,0,0,1,,,,,,,,,1,,,67,33
437760,note_off,960,0,1,,,,,,,,,1,,,68,0
437760,note_on,0,0,2,,,,,,,,,2,,,63,33
437760,note_off,0,0,2,,,,,,,,,2,,,62,0
437760,note_off,960,0,2,,,,,,,,,2,,,65,0
438000,note_off,1200,0,4,,,,,,,,,4,,,51,0
438000,note_off,240,0,1,,,,,,,,,1,,,67,0
438000,note_off,240,0,2,,,,,,,,,2,,,63,0
438000,note_off,1200,0,5,,,,,,,,,5,,,39,0
438240,set_tempo,480,1,0,,,,,,1034482,,,,,,,
439680,control_change,1680,0,1,,,,,,,64,0,1,,,,
439680,note_on,0,0,1,,,,,,,,,1,,,77,47
439680,control_change,1680,0,5,,,,,,,64,0,5,,,,
439680,control_change,1680,0,4,,,,,,,64,0,4,,,,
439680,marker,0,1,0,,,,,,,,,,,,,
439680,time_signature,1440,1,0,2,2,24,8,,,,,,,,,
439680,control_change,1680,0,2,,,,,,,64,0,2,,,,
439680,control_change,5820,0,3,,,,,,,64,0,3,,,,
439680,set_tempo,0,1,0,,,,,,355029,,,,,,,
440160,note_on,480,0,5,,,,,,,,,5,,,58,44
440400,note_off,720,0,1,,,,,,,,,1,,,77,0
440400,note_on,0,0,1,,,,,,,,,1,,,74,43
440545,note_off,385,0,5,,,,,,,,,5,,,58,0
440640,note_off,240,0,1,,,,,,,,,1,,,74,0
440640,note_on,0,0,1,,,,,,,,,1,,,70,42
440640,note_on,95,0,5,,,,,,,,,5,,,62,42
440870,note_off,230,0,1,,,,,,,,,1,,,70,0
441025,note_off,385,0,5,,,,,,,,,5,,,62,0
441120,note_on,250,0,1,,,,,,,,,1,,,70,39
441120,note_on,95,0,5,,,,,,,,,5,,,67,39
441360,note_off,240,0,1,,,,,,,,,1,,,70,0
441505,note_off,385,0,5,,,,,,,,,5,,,67,0
441600,note_on,240,0,1,,,,,,,,,1,,,75,41
441600,note_on,95,0,5,,,,,,,,,5,,,60,41
441985,note_off,385,0,5,,,,,,,,,5,,,60,0
442080,note_off,480,0,1,,,,,,,,,1,,,75,0
442080,note_on,0,0,1,,,,,,,,,1,,,79,39
442080,note_on,95,0,5,,,,,,,,,5,,,63,39
442465,note_off,385,0,1,,,,,,,,,1,,,79,0
442465,note_off,385,0,5,,,,,,,,,5,,,63,0
442560,note_on,95,0,5,,,,,,,,,5,,,65,37
442560,note_on,95,0,1,,,,,,,,,1,,,69,37
442945,note_off,385,0,5,,,,,,,,,5,,,65,0
442945,note_off,385,0,1,,,,,,,,,1,,,69,0
443040,note_on,95,0,5,,,,,,,,,5,,,63,35
443425,note_off,385,0,5,,,,,,,,,5,,,63,0
443520,note_on,575,0,1,,,,,,,,,1,,,72,36
443520,note_on,95,0,5,,,,,,,,,5,,,62,36
443760,note_on,0,0,1,,,,,,,,,1,,,70,34
443760,note_off,240,0,1,,,,,,,,,1,,,72,0
443905,note_off,385,0,5,,,,,,,,,5,,,62,0
443950,note_off,190,0,1,,,,,,,,,1,,,70,0
444000,note_on,95,0,5,,,,,,,,,5,,,57,39
444000,note_on,50,0,1,,,,,,,,,1,,,74,39
444240,note_on,0,0,1,,,,,,,,,1,,,72,37
444240,note_off,240,0,1,,,,,,,,,1,,,74,0
444385,note_off,385,0,5,,,,,,,,,5,,,57,0
444430,note_off,190,0,1,,,,,,,,,1,,,72,0
444480,note_on,50,0,1,,,,,,,,,1,,,75,43
444480,note_on,95,0,5,,,,,,,,,5,,,58,43
444720,note_off,240,0,1,,,,,,,,,1,,,75,0
444720,note_on,0,0,1,,,,,,,,,1,,,74,41
444865,note_off,385,0,5,,,,,,,,,5,,,58,0
444910,note_off,190,0,1,,,,,,,,,1,,,74,0
444960,note_on,5280,0,4,,,,,,,,,4,,,60,47
444960,note_on,95,0,5,,,,,,,,,5,,,51,47
444960,note_on,50,0,1,,,,,,,,,1,,,77,47
445200,note_on,0,0,1,,,,,,,,,1,,,75,44
445200,note_off,240,0,1,,,,,,,,,1,,,77,0
445345,note_off,385,0,5,,,,,,,,,5,,,51,0
445345,note_off,385,0,4,,,,,,,,,4,,,60,0
445380,set_tempo,5700,1,0,,,,,,357142,,,,,,,
445390,note_off,190,0,1,,,,,,,,,1,,,75,0
445440,note_on,50,0,1,,,,,,,,,1,,,74,52
445440,note_on,95,0,4,,,,,,,,,4,,,58,52
445440,note_on,95,0,5,,,,,,,,,5,,,53,52
446160,note_on,0,0,1,,,,,,,,,1,,,75,43
446160,note_off,720,0,1,,,,,,,,,1,,,74,0
446280,note_on,0,0,1,,,,,,,,,1,,,74,42
446280,note_off,120,0,1,,,,,,,,,1,,,75,0
446400,note_on,0,0,4,,,,,,,,,4,,,57,40
446400,note_off,120,0,1,,,,,,,,,1,,,74,0
446400,note_on,0,0,1,,,,,,,,,1,,,72,40
446400,note_off,960,0,4,,,,,,,,,4,,,58,0
446590,note_off,190,0,1,,,,,,,,,1,,,72,0
446640,note_on,50,0,1,,,,,,,,,1,,,74,38
446785,note_off,385,0,4,,,,,,,,,4,,,57,0
446785,note_off,1345,0,5,,,,,,,,,5,,,53,0
446880,note_off,240,0,1,,,,,,,,,1,,,74,0
446880,note_on,0,0,1,,,,,,,,,1,,,75,41
447120,note_off,240,0,1,,,,,,,,,1,,,75,0
447120,note_on,0,0,1,,,,,,,,,1,,,76,45
447310,note_off,190,0,1,,,,,,,,,1,,,76,0
447320,set_tempo,1940,1,0,,,,,,359281,,,,,,,
447360,note_on,50,0,1,,,,,,,,,1,,,77,53
447360,set_tempo,40,1,0,,,,,,355029,,,,,,,
447840,note_on,1055,0,5,,,,,,,,,5,,,58,50
448080,note_off,720,0,1,,,,,,,,,1,,,77,0
448080,note_on,0,0,1,,,,,,,,,1,,,75,49
448160,note_off,80,0,1,,,,,,,,,1,,,75,0
448160,note_on,0,0,1,,,,,,,,,1,,,74,48
448225,note_off,385,0,5,,,,,,,,,5,,,58,0
448240,note_off,80,0,1,,,,,,,,,1,,,74,0
448240,note_on,0,0,1,,,,,,,,,1,,,72,48
448305,note_off,65,0,1,,,,,,,,,1,,,72,0
448320,note_on,15,0,1,,,,,,,,,1,,,70,47
448320,note_on,95,0,5,,,,,,,,,5,,,62,47
448560,note_off,240,0,1,,,,,,,,,1,,,70,0
448705,note_off,385,0,5,,,,,,,,,5,,,62,0
448800,note_on,95,0,5,,,,,,,,,5,,,67,44
448800,note_on,240,0,1,,,,,,,,,1,,,70,44
449040,note_off,240,0,1,,,,,,,,,1,,,70,0
449185,note_off,385,0,5,,,,,,,,,5,,,67,0
449280,note_on,240,0,1,,,,,,,,,1,,,75,49
449280,note_on,95,0,5,,,,,,,,,5,,,60,49
449665,note_off,385,0,5,,,,,,,,,5,,,60,0
449760,note_off,480,0,1,,,,,,,,,1,,,75,0
449760,note_on,0,0,1,,,,,,,,,1,,,79,46
449760,note_on,95,0,5,,,,,,,,,5,,,63,46
450145,note_off,385,0,5,,,,,,,,,5,,,63,0
450145,note_off,385,0,1,,,,,,,,,1,,,79,0
450240,note_on,95,0,5,,,,,,,,,5,,,65,44
450240,note_on,95,0,1,,,,,,,,,1,,,69,44
450625,note_off,385,0,1,,,,,,,,,1,,,69,0
450625,note_off,385,0,5,,,,,,,,,5,,,65,0
450720,note_on,95,0,5,,,,,,,,,5,,,63,41
450960,note_on,335,0,1,,,,,,,,,1,,,69,40
451105,note_off,385,0,5,,,,,,,,,5,,,63,0
451150,note_off,190,0,1,,,,,,,,,1,,,69,0
451200,note_on,95,0,5,,,,,,,,,5,,,62,43
451200,note_on,50,0,1,,,,,,,,,1,,,70,43
451440,note_off,240,0,1,,,,,,,,,1,,,70,0
451440,note_on,0,0,1,,,,,,,,,1,,,74,40
451580,note_off,140,0,1,,,,,,,,,1,,,74,0
451585,note_off,385,0,5,,,,,,,,,5,,,62,0
451680,note_on,100,0,1,,,,,,,,,1,,,67,40
451680,note_on,4895,0,4,,,,,,,,,4,,,63,40
451680,note_on,95,0,5,,,,,,,,,5,,,51,40
451920,note_on,0,0,1,,,,,,,,,1,,,72,37
451920,note_off,240,0,1,,,,,,,,,1,,,67,0
452065,note_off,385,0,4,,,,,,,,,4,,,63,0
452065,note_off,385,0,5,,,,,,,,,5,,,51,0
452110,note_off,190,0,1,,,,,,,,,1,,,72,0
452160,note_on,50,0,1,,,,,,,,,1,,,70,38
452160,note_on,95,0,4,,,,,,,,,4,,,62,38
452160,note_on,95,0,5,,,,,,,,,5,,,53,38
452640,note_off,480,0,4,,,,,,,,,4,,,62,0
452640,note_on,0,0,4,,,,,,,,,4,,,60,35
452640,note_on,0,0,1,,,,,,,,,1,,,69,35
452640,note_off,480,0,1,,,,,,,,,1,,,70,0
453060,set_tempo,5700,1,0,,,,,,357142,,,,,,,
453120,note_off,480,0,1,,,,,,,,,1,,,69,0
453120,note_on,0,0,5,,,,,,,,,5,,,58,42
453120,note_off,960,0,5,,,,,,,,,5,,,53,0
453120,note_on,0,0,1,,,,,,,,,1,,,70,42
453120,note_off,480,0,4,,,,,,,,,4,,,60,0
453275,note_off,155,0,1,,,,,,,,,1,,,70,0
453360,note_on,85,0,1,,,,,,,,,1,,,65,45
453480,note_off,120,0,1,,,,,,,,,1,,,65,0
453505,note_off,385,0,5,,,,,,,,,5,,,58,0
453600,note_on,120,0,1,,,,,,,,,1,,,67,48
453720,note_off,120,0,1,,,,,,,,,1,,,67,0
453840,note_on,120,0,1,,,,,,,,,1,,,69,50
453960,note_off,120,0,1,,,,,,,,,1,,,69,0
454080,note_on,120,0,1,,,,,,,,,1,,,70,53
454200,note_off,120,0,1,,,,,,,,,1,,,70,0
454320,note_on,120,0,1,,,,,,,,,1,,,72,55
454440,note_off,120,0,1,,,,,,,,,1,,,72,0
454560,note_on,120,0,1,,,,,,,,,1,,,74,58
454680,note_off,120,0,1,,,,,,,,,1,,,74,0
454800,note_on,120,0,1,,,,,,,,,1,,,75,60
454920,note_off,120,0,1,,,,,,,,,1,,,75,0
455000,set_tempo,1940,1,0,,,,,,359281,,,,,,,
455040,set_tempo,40,1,0,,,,,,355029,,,,,,,
455040,control_change,1920,0,4,,,,,,,64,127,4,,,,
455040,control_change,15360,0,3,,,,,,,64,127,3,,,,
455040,note_on,0,0,5,,,,,,,,,5,,,58,67
455040,note_on,120,0,1,,,,,,,,,1,,,77,67
455040,control_change,1535,0,5,,,,,,,64,127,5,,,,
455280,note_on,240,0,3,,,,,,,,,3,,,65,65
455280,note_off,240,0,5,,,,,,,,,5,,,58,0
455520,note_on,0,0,3,,,,,,,,,3,,,62,64
455520,note_off,240,0,3,,,,,,,,,3,,,65,0
455760,note_off,720,0,1,,,,,,,,,1,,,77,0
455760,note_on,0,0,1,,,,,,,,,1,,,74,62
455760,note_on,0,0,3,,,,,,,,,3,,,65,62
455760,note_off,240,0,3,,,,,,,,,3,,,62,0
455940,control_change,180,0,3,,,,,,,64,0,3,,,,
455940,control_change,900,0,4,,,,,,,64,0,4,,,,
455940,control_change,660,0,5,,,,,,,64,0,5,,,,
456000,note_off,0,0,3,,,,,,,,,3,,,65,0
456000,control_change,60,0,3,,,,,,,64,127,3,,,,
456000,note_on,0,0,5,,,,,,,,,5,,,55,61
456000,control_change,60,0,5,,,,,,,64,127,5,,,,
456000,control_change,60,0,4,,,,,,,64,127,4,,,,
456000,note_on,0,0,1,,,,,,,,,1,,,70,61
456000,note_off,240,0,1,,,,,,,,,1,,,74,0
456240,note_off,240,0,5,,,,,,,,,5,,,55,0
456240,note_on,240,0,3,,,,,,,,,3,,,62,59
456240,note_off,240,0,1,,,,,,,,,1,,,70,0
456480,note_on,240,0,1,,,,,,,,,1,,,70,58
456480,note_off,240,0,3,,,,,,,,,3,,,62,0
456480,note_on,0,0,3,,,,,,,,,3,,,58,58
456720,note_off,240,0,1,,,,,,,,,1,,,70,0
456720,note_on,0,0,3,,,,,,,,,3,,,62,56
456720,note_off,240,0,3,,,,,,,,,3,,,58,0
456900,control_change,180,0,3,,,,,,,64,0,3,,,,
456900,control_change,900,0,4,,,,,,,64,0,4,,,,
456900,control_change,660,0,5,,,,,,,64,0,5,,,,
456910,note_off,10,0,3,,,,,,,,,3,,,62,0
456960,note_on,0,0,5,,,,,,,,,5,,,51,61
456960,control_change,60,0,5,,,,,,,64,127,5,,,,
456960,control_change,60,0,4,,,,,,,64,127,4,,,,
456960,note_on,240,0,1,,,,,,,,,1,,,75,61
456960,control_change,50,0,3,,,,,,,64,127,3,,,,
457040,note_on,0,0,1,,,,,,,,,1,,,77,61
457040,note_off,80,0,1,,,,,,,,,1,,,75,0
457120,note_on,0,0,1,,,,,,,,,1,,,75,60
457120,note_off,80,0,1,,,,,,,,,1,,,77,0
457200,note_on,240,0,3,,,,,,,,,3,,,60,60
457200,note_on,0,0,1,,,,,,,,,1,,,74,60
457200,note_off,80,0,1,,,,,,,,,1,,,75,0
457200,note_off,240,0,5,,,,,,,,,5,,,51,0
457320,note_on,120,0,1,,,,,,,,,1,,,75,59
457335,note_off,15,0,1,,,,,,,,,1,,,74,0
457440,note_off,240,0,3,,,,,,,,,3,,,60,0
457440,note_on,0,0,1,,,,,,,,,1,,,79,59
457440,note_off,105,0,1,,,,,,,,,1,,,75,0
457440,note_on,0,0,3,,,,,,,,,3,,,55,59
457680,note_on,0,0,3,,,,,,,,,3,,,60,58
457680,note_off,240,0,3,,,,,,,,,3,,,55,0
457825,note_off,385,0,1,,,,,,,,,1,,,79,0
457860,control_change,660,0,5,,,,,,,64,0,5,,,,
457860,control_change,180,0,3,,,,,,,64,0,3,,,,
457860,control_change,900,0,4,,,,,,,64,0,4,,,,
457920,note_on,95,0,1,,,,,,,,,1,,,69,57
457920,control_change,60,0,5,,,,,,,64,127,5,,,,
457920,note_on,0,0,5,,,,,,,,,5,,,53,57
457920,control_change,60,0,4,,,,,,,64,127,4,,,,
457920,note_off,0,0,3,,,,,,,,,3,,,60,0
457920,control_change,60,0,3,,,,,,,64,127,3,,,,
458160,note_off,240,0,5,,,,,,,,,5,,,53,0
458160,note_on,240,0,3,,,,,,,,,3,,,63,56
458305,note_off,385,0,1,,,,,,,,,1,,,69,0
458400,note_on,0,0,3,,,,,,,,,3,,,60,55
458400,note_off,240,0,3,,,,,,,,,3,,,63,0
458640,note_off,240,0,3,,,,,,,,,3,,,60,0
458640,note_on,0,0,3,,,,,,,,,3,,,63,54
458820,control_change,180,0,3,,,,,,,64,0,3,,,,
458820,control_change,900,0,4,,,,,,,64,0,4,,,,
458820,control_change,660,0,5,,,,,,,64,0,5,,,,
458830,note_off,10,0,3,,,,,,,,,3,,,63,0
458880,note_on,575,0,1,,,,,,,,,1,,,72,56
458880,note_on,60,0,5,,,,,,,,,5,,,62,56
459120,note_off,240,0,1,,,,,,,,,1,,,72,0
459120,note_on,0,0,1,,,,,,,,,1,,,70,54
459260,note_off,140,0,1,,,,,,,,,1,,,70,0
459265,note_off,385,0,5,,,,,,,,,5,,,62,0
459360,note_on,95,0,5,,,,,,,,,5,,,57,59
459360,note_on,540,0,4,,,,,,,,,4,,,65,59
459360,note_on,100,0,1,,,,,,,,,1,,,74,59
459600,note_off,240,0,1,,,,,,,,,1,,,74,0
459600,note_on,0,0,1,,,,,,,,,1,,,72,58
459745,note_off,385,0,5,,,,,,,,,5,,,57,0
459790,note_off,190,0,1,,,,,,,,,1,,,72,0
459840,note_on,50,0,1,,,,,,,,,1,,,75,62
459840,note_on,95,0,5,,,,,,,,,5,,,58,62
460080,note_on,0,0,1,,,,,,,,,1,,,74,61
460080,note_off,240,0,1,,,,,,,,,1,,,75,0
460225,note_off,385,0,5,,,,,,,,,5,,,58,0
460235,note_off,875,0,4,,,,,,,,,4,,,65,0
460270,note_off,190,0,1,,,,,,,,,1,,,74,0
460320,note_on,95,0,5,,,,,,,,,5,,,51,65
460320,note_on,50,0,1,,,,,,,,,1,,,77,65
460320,note_on,85,0,4,,,,,,,,,4,,,60,65
460560,note_on,0,0,1,,,,,,,,,1,,,75,62
460560,note_off,240,0,1,,,,,,,,,1,,,77,0
460705,note_off,385,0,4,,,,,,,,,4,,,60,0
460705,note_off,385,0,5,,,,,,,,,5,,,51,0
460740,set_tempo,5700,1,0,,,,,,357142,,,,,,,
460750,note_off,190,0,1,,,,,,,,,1,,,75,0
460800,note_on,50,0,1,,,,,,,,,1,,,74,70
460800,note_on,95,0,4,,,,,,,,,4,,,58,70
460800,note_on,95,0,5,,,,,,,,,5,,,53,70
461520,note_on,0,0,1,,,,,,,,,1,,,75,62
461520,note_off,720,0,1,,,,,,,,,1,,,74,0
461640,note_on,0,0,1,,,,,,,,,1,,,74,60
461640,note_off,120,0,1,,,,,,,,,1,,,75,0
461760,note_on,0,0,1,,,,,,,,,1,,,72,58
461760,note_off,120,0,1,,,,,,,,,1,,,74,0
461760,note_on,0,0,4,,,,,,,,,4,,,57,58
461760,note_off,960,0,4,,,,,,,,,4,,,58,0
461950,note_off,190,0,1,,,,,,,,,1,,,72,0
462000,note_on,50,0,1,,,,,,,,,1,,,74,59
462125,note_off,1325,0,5,,,,,,,,,5,,,53,0
462145,note_off,385,0,4,,,,,,,,,4,,,57,0
462240,note_on,0,0,1,,,,,,,,,1,,,75,60
462240,note_off,240,0,1,,,,,,,,,1,,,74,0
462480,note_off,240,0,1,,,,,,,,,1,,,75,0
462480,note_on,0,0,1,,,,,,,,,1,,,76,61
462670,note_off,190,0,1,,,,,,,,,1,,,76,0
462680,set_tempo,1940,1,0,,,,,,359281,,,,,,,
462720,control_change,3890,0,3,,,,,,,64,127,3,,,,
462720,control_change,575,0,4,,,,,,,64,127,4,,,,
462720,control_change,595,0,5,,,,,,,64,127,5,,,,
462720,set_tempo,40,1,0,,,,,,355029,,,,,,,
462720,note_on,50,0,1,,,,,,,,,1,,,77,69
462720,note_on,0,0,5,,,,,,,,,5,,,58,69
462960,note_on,240,0,3,,,,,,,,,3,,,65,68
462960,note_off,240,0,5,,,,,,,,,5,,,58,0
463200,note_off,240,0,3,,,,,,,,,3,,,65,0
463200,note_on,0,0,3,,,,,,,,,3,,,62,66
463440,note_off,720,0,1,,,,,,,,,1,,,77,0
463440,note_off,240,0,3,,,,,,,,,3,,,62,0
463440,note_on,0,0,3,,,,,,,,,3,,,65,65
463440,note_on,0,0,1,,,,,,,,,1,,,75,65
463520,note_off,80,0,1,,,,,,,,,1,,,75,0
463520,note_on,0,0,1,,,,,,,,,1,,,74,64
463600,note_on,0,0,1,,,,,,,,,1,,,72,64
463600,note_off,80,0,1,,,,,,,,,1,,,74,0
463620,control_change,660,0,5,,,,,,,64,0,5,,,,
463620,control_change,900,0,4,,,,,,,64,0,4,,,,
463620,control_change,180,0,3,,,,,,,64,0,3,,,,
463665,note_off,65,0,1,,,,,,,,,1,,,72,0
463680,control_change,60,0,3,,,,,,,64,127,3,,,,
463680,note_off,0,0,3,,,,,,,,,3,,,65,0
463680,control_change,60,0,4,,,,,,,64,127,4,,,,
463680,note_on,0,0,5,,,,,,,,,5,,,55,63
463680,control_change,60,0,5,,,,,,,64,127,5,,,,
463680,note_on,15,0,1,,,,,,,,,1,,,70,63
463835,note_off,155,0,1,,,,,,,,,1,,,70,0
463920,note_on,240,0,3,,,,,,,,,3,,,62,61
463920,note_off,240,0,5,,,,,,,,,5,,,55,0
463920,note_on,85,0,1,,,,,,,,,1,,,70,61
464075,note_off,155,0,1,,,,,,,,,1,,,70,0
464160,note_on,0,0,3,,,,,,,,,3,,,58,60
464160,note_on,85,0,1,,,,,,,,,1,,,70,60
464160,note_off,240,0,3,,,,,,,,,3,,,62,0
464315,note_off,155,0,1,,,,,,,,,1,,,70,0
464400,note_off,240,0,3,,,,,,,,,3,,,58,0
464400,note_on,0,0,3,,,,,,,,,3,,,62,58
464400,note_on,85,0,1,,,,,,,,,1,,,70,58
464555,note_off,155,0,1,,,,,,,,,1,,,70,0
464580,control_change,180,0,3,,,,,,,64,0,3,,,,
464580,control_change,900,0,4,,,,,,,64,0,4,,,,
464580,control_change,660,0,5,,,,,,,64,0,5,,,,
464590,note_off,10,0,3,,,,,,,,,3,,,62,0
464640,note_on,0,0,5,,,,,,,,,5,,,51,63
464640,control_change,60,0,5,,,,,,,64,127,5,,,,
464640,control_change,60,0,4,,,,,,,64,127,4,,,,
464640,note_on,85,0,1,,,,,,,,,1,,,75,63
464640,control_change,50,0,3,,,,,,,64,127,3,,,,
464720,note_off,80,0,1,,,,,,,,,1,,,75,0
464720,note_on,0,0,1,,,,,,,,,1,,,77,62
464800,note_on,0,0,1,,,,,,,,,1,,,75,62
464800,note_off,80,0,1,,,,,,,,,1,,,77,0
464880,note_on,240,0,3,,,,,,,,,3,,,60,62
464880,note_off,240,0,5,,,,,,,,,5,,,51,0
464880,note_on,0,0,1,,,,,,,,,1,,,74,62
464880,note_off,80,0,1,,,,,,,,,1,,,75,0
465000,note_on,0,0,1,,,,,,,,,1,,,75,61
465000,note_off,120,0,1,,,,,,,,,1,,,74,0
465120,note_off,120,0,1,,,,,,,,,1,,,75,0
465120,note_on,0,0,3,,,,,,,,,3,,,55,60
465120,note_off,240,0,3,,,,,,,,,3,,,60,0
465120,note_on,0,0,1,,,,,,,,,1,,,79,60
465360,note_off,240,0,3,,,,,,,,,3,,,55,0
465360,note_on,0,0,3,,,,,,,,,3,,,60,59
465505,note_off,385,0,1,,,,,,,,,1,,,79,0
465540,control_change,180,0,3,,,,,,,64,0,3,,,,
465540,control_change,660,0,5,,,,,,,64,0,5,,,,
465540,control_change,900,0,4,,,,,,,64,0,4,,,,
465600,control_change,60,0,3,,,,,,,64,127,3,,,,
465600,note_on,95,0,1,,,,,,,,,1,,,69,58
465600,note_on,0,0,5,,,,,,,,,5,,,53,58
465600,control_change,60,0,5,,,,,,,64,127,5,,,,
465600,note_off,0,0,3,,,,,,,,,3,,,60,0
465600,control_change,60,0,4,,,,,,,64,127,4,,,,
465840,note_off,240,0,5,,,,,,,,,5,,,53,0
465840,note_on,240,0,3,,,,,,,,,3,,,63,57
465985,note_off,385,0,1,,,,,,,,,1,,,69,0
466080,note_off,240,0,3,,,,,,,,,3,,,63,0
466080,note_on,0,0,3,,,,,,,,,3,,,60,55
466320,note_on,335,0,1,,,,,,,,,1,,,81,54
466320,note_off,240,0,3,,,,,,,,,3,,,60,0
466320,note_on,0,0,3,,,,,,,,,3,,,63,54
466500,set_tempo,3780,1,0,,,,,,357142,,,,,,,
466500,control_change,900,0,4,,,,,,,64,0,4,,,,
466500,control_change,660,0,5,,,,,,,64,0,5,,,,
466500,control_change,180,0,3,,,,,,,64,0,3,,,,
466510,note_off,190,0,1,,,,,,,,,1,,,81,0
466510,note_off,10,0,3,,,,,,,,,3,,,63,0
466560,note_on,50,0,1,,,,,,,,,1,,,82,59
466560,note_on,60,0,4,,,,,,,,,4,,,58,59
466560,note_on,60,0,5,,,,,,,,,5,,,50,59
466680,note_off,120,0,1,,,,,,,,,1,,,82,0
466720,note_on,27040,0,2,,,,,,,,,2,,,77,58
466845,note_off,125,0,2,,,,,,,,,2,,,77,0
466880,note_on,35,0,2,,,,,,,,,2,,,74,58
466945,note_off,385,0,5,,,,,,,,,5,,,50,0
467005,note_off,125,0,2,,,,,,,,,2,,,74,0
467040,note_on,360,0,1,,,,,,,,,1,,,79,57
467040,note_on,95,0,5,,,,,,,,,5,,,51,57
467160,note_off,120,0,1,,,,,,,,,1,,,79,0
467200,note_on,195,0,2,,,,,,,,,2,,,75,56
467325,note_off,125,0,2,,,,,,,,,2,,,75,0
467360,note_on,35,0,2,,,,,,,,,2,,,72,55
467400,note_off,840,0,4,,,,,,,,,4,,,58,0
467425,note_off,385,0,5,,,,,,,,,5,,,51,0
467485,note_off,125,0,2,,,,,,,,,2,,,72,0
467520,note_on,95,0,5,,,,,,,,,5,,,53,55
467520,note_on,120,0,4,,,,,,,,,4,,,62,55
467520,note_on,360,0,1,,,,,,,,,1,,,77,55
467640,note_off,120,0,1,,,,,,,,,1,,,77,0
467680,note_on,195,0,2,,,,,,,,,2,,,74,54
467805,note_off,125,0,2,,,,,,,,,2,,,74,0
467840,note_on,35,0,2,,,,,,,,,2,,,70,53
467905,note_off,385,0,4,,,,,,,,,4,,,62,0
467965,note_off,125,0,2,,,,,,,,,2,,,70,0
468000,note_on,95,0,4,,,,,,,,,4,,,63,53
468000,note_on,360,0,1,,,,,,,,,1,,,75,53
468120,note_off,120,0,1,,,,,,,,,1,,,75,0
468160,note_on,195,0,2,,,,,,,,,2,,,72,52
468285,note_off,125,0,2,,,,,,,,,2,,,72,0
468320,note_on,35,0,2,,,,,,,,,2,,,69,51
468375,note_off,855,0,5,,,,,,,,,5,,,53,0
468385,note_off,385,0,4,,,,,,,,,4,,,63,0
468420,set_tempo,1920,1,0,,,,,,359281,,,,,,,
468460,note_off,140,0,2,,,,,,,,,2,,,69,0
468480,note_on,360,0,1,,,,,,,,,1,,,70,51
468480,note_on,105,0,5,,,,,,,,,5,,,58,51
468480,note_on,95,0,4,,,,,,,,,4,,,62,51
468790,note_off,310,0,4,,,,,,,,,4,,,62,0
468790,note_off,310,0,5,,,,,,,,,5,,,58,0
468865,note_off,385,0,1,,,,,,,,,1,,,70,0
468960,note_on,170,0,5,,,,,,,,,5,,,46,46
469140,set_tempo,720,1,0,,,,,,344827,,,,,,,
469200,set_tempo,60,1,0,,,,,,359281,,,,,,,
469200,note_on,335,0,1,,,,,,,,,1,,,65,39
469340,note_off,380,0,5,,,,,,,,,5,,,46,0
469355,note_off,155,0,1,,,,,,,,,1,,,65,0
469440,note_on,85,0,1,,,,,,,,,1,,,70,40
469565,note_off,125,0,1,,,,,,,,,1,,,70,0
469680,note_on,115,0,1,,,,,,,,,1,,,69,41
469805,note_off,125,0,1,,,,,,,,,1,,,69,0
469920,note_on,115,0,1,,,,,,,,,1,,,70,42
470045,note_off,125,0,1,,,,,,,,,1,,,70,0
470160,note_on,115,0,1,,,,,,,,,1,,,72,43
470300,note_off,140,0,1,,,,,,,,,1,,,72,0
470400,note_on,100,0,1,,,,,,,,,1,,,74,45
470720,note_off,320,0,1,,,,,,,,,1,,,74,0
470880,note_on,160,0,1,,,,,,,,,1,,,74,47
470880,note_on,2420,0,2,,,,,,,,,2,,,70,47
470880,note_on,1540,0,5,,,,,,,,,5,,,58,47
471190,note_off,310,0,2,,,,,,,,,2,,,70,0
471190,note_off,310,0,1,,,,,,,,,1,,,74,0
471360,note_on,170,0,2,,,,,,,,,2,,,70,51
471360,note_on,0,0,5,,,,,,,,,5,,,55,51
471360,note_off,480,0,5,,,,,,,,,5,,,58,0
471360,note_on,170,0,1,,,,,,,,,1,,,74,51
471840,note_off,480,0,1,,,,,,,,,1,,,74,0
471840,note_on,0,0,1,,,,,,,,,1,,,75,48
471840,note_on,0,0,2,,,,,,,,,2,,,72,48
471840,note_off,480,0,5,,,,,,,,,5,,,55,0
471840,note_on,0,0,5,,,,,,,,,5,,,51,48
471840,note_off,480,0,2,,,,,,,,,2,,,70,0
472200,note_off,360,0,2,,,,,,,,,2,,,72,0
472205,note_off,365,0,1,,,,,,,,,1,,,75,0
472225,note_off,385,0,5,,,,,,,,,5,,,51,0
472280,set_tempo,3080,1,0,,,,,,340909,,,,,,,
472320,note_on,115,0,1,,,,,,,,,1,,,72,45
472320,note_on,95,0,5,,,,,,,,,5,,,53,45
472320,note_on,120,0,2,,,,,,,,,2,,,69,45
472680,note_off,360,0,5,,,,,,,,,5,,,53,0
472705,note_off,385,0,1,,,,,,,,,1,,,72,0
472705,note_off,385,0,2,,,,,,,,,2,,,69,0
472800,note_on,120,0,5,,,,,,,,,5,,,41,43
472980,set_tempo,700,1,0,,,,,,344827,,,,,,,
473040,note_on,335,0,1,,,,,,,,,1,,,65,44
473040,set_tempo,60,1,0,,,,,,359281,,,,,,,
473165,note_off,365,0,5,,,,,,,,,5,,,41,0
473195,note_off,155,0,1,,,,,,,,,1,,,65,0
473280,note_on,85,0,1,,,,,,,,,1,,,72,46
473435,note_off,155,0,1,,,,,,,,,1,,,72,0
473520,note_on,85,0,1,,,,,,,,,1,,,70,47
473675,note_off,155,0,1,,,,,,,,,1,,,70,0
473760,note_on,85,0,1,,,,,,,,,1,,,72,48
473915,note_off,155,0,1,,,,,,,,,1,,,72,0
474000,note_on,85,0,1,,,,,,,,,1,,,74,50
474155,note_off,155,0,1,,,,,,,,,1,,,74,0
474240,note_on,85,0,1,,,,,,,,,1,,,75,51
474575,note_off,335,0,1,,,,,,,,,1,,,75,0
474720,note_on,145,0,1,,,,,,,,,1,,,75,54
474720,note_on,1555,0,5,,,,,,,,,5,,,60,54
474720,note_on,2015,0,2,,,,,,,,,2,,,67,54
475030,note_off,310,0,1,,,,,,,,,1,,,75,0
475030,note_off,310,0,2,,,,,,,,,2,,,67,0
475200,note_on,0,0,5,,,,,,,,,5,,,57,57
475200,note_off,480,0,5,,,,,,,,,5,,,60,0
475200,note_on,170,0,1,,,,,,,,,1,,,75,57
475200,note_on,170,0,2,,,,,,,,,2,,,72,57
475680,note_off,480,0,1,,,,,,,,,1,,,75,0
475680,note_on,0,0,5,,,,,,,,,5,,,53,55
475680,note_off,480,0,5,,,,,,,,,5,,,57,0
475680,note_on,0,0,1,,,,,,,,,1,,,77,55
475680,note_on,0,0,2,,,,,,,,,2,,,74,55
475680,note_off,480,0,2,,,,,,,,,2,,,72,0
476045,note_off,365,0,1,,,,,,,,,1,,,77,0
476045,note_off,365,0,2,,,,,,,,,2,,,74,0
476065,note_off,385,0,5,,,,,,,,,5,,,53,0
476110,set_tempo,3070,1,0,,,,,,340909,,,,,,,
476160,note_on,115,0,1,,,,,,,,,1,,,74,51
476160,note_on,95,0,5,,,,,,,,,5,,,58,51
476160,note_on,115,0,2,,,,,,,,,2,,,70,51
476520,note_off,360,0,5,,,,,,,,,5,,,58,0
476545,note_off,385,0,1,,,,,,,,,1,,,74,0
476545,note_off,385,0,2,,,,,,,,,2,,,70,0
476640,note_on,120,0,5,,,,,,,,,5,,,46,48
476820,set_tempo,710,1,0,,,,,,344827,,,,,,,
476880,note_on,335,0,1,,,,,,,,,1,,,70,52
476880,set_tempo,60,1,0,,,,,,359281,,,,,,,
477000,note_off,360,0,5,,,,,,,,,5,,,46,0
477035,note_off,155,0,1,,,,,,,,,1,,,70,0
477120,note_on,85,0,1,,,,,,,,,1,,,74,54
477275,note_off,155,0,1,,,,,,,,,1,,,74,0
477360,note_on,85,0,1,,,,,,,,,1,,,72,55
477515,note_off,155,0,1,,,,,,,,,1,,,72,0
477600,note_on,85,0,1,,,,,,,,,1,,,74,57
477755,note_off,155,0,1,,,,,,,,,1,,,74,0
477840,note_on,85,0,1,,,,,,,,,1,,,76,58
477995,note_off,155,0,1,,,,,,,,,1,,,76,0
478040,set_tempo,1160,1,0,,,,,,363636,,,,,,,
478080,set_tempo,40,1,0,,,,,,359281,,,,,,,
478080,note_on,85,0,1,,,,,,,,,1,,,77,60
478320,note_on,1320,0,5,,,,,,,,,5,,,57,60
478560,note_on,0,0,5,,,,,,,,,5,,,60,61
478560,note_off,240,0,5,,,,,,,,,5,,,57,0
478675,note_off,595,0,1,,,,,,,,,1,,,77,0
478720,note_on,45,0,1,,,,,,,,,1,,,77,62
478800,note_on,0,0,5,,,,,,,,,5,,,57,62
478800,note_off,240,0,5,,,,,,,,,5,,,60,0
478880,note_off,160,0,1,,,,,,,,,1,,,77,0
478880,note_on,0,0,1,,,,,,,,,1,,,79,62
479040,note_on,0,0,1,,,,,,,,,1,,,81,62
479040,note_on,0,0,5,,,,,,,,,5,,,65,62
479040,note_off,240,0,5,,,,,,,,,5,,,57,0
479040,note_off,160,0,1,,,,,,,,,1,,,79,0
479200,note_off,160,0,1,,,,,,,,,1,,,81,0
479200,note_on,0,0,1,,,,,,,,,1,,,79,63
479360,note_on,0,0,1,,,,,,,,,1,,,77,63
479360,note_off,160,0,1,,,,,,,,,1,,,79,0
479425,note_off,385,0,5,,,,,,,,,5,,,65,0
479520,note_off,160,0,1,,,,,,,,,1,,,77,0
479520,note_on,0,0,1,,,,,,,,,1,,,76,64
479680,note_off,160,0,1,,,,,,,,,1,,,76,0
479680,note_on,0,0,1,,,,,,,,,1,,,74,64
479840,note_off,160,0,1,,,,,,,,,1,,,74,0
479840,note_on,0,0,1,,,,,,,,,1,,,72,65
480000,note_off,160,0,1,,,,,,,,,1,,,72,0
480000,note_on,0,0,1,,,,,,,,,1,,,70,65
480240,note_on,815,0,5,,,,,,,,,5,,,55,66
480365,note_off,365,0,1,,,,,,,,,1,,,70,0
480480,note_off,240,0,5,,,,,,,,,5,,,55,0
480480,note_on,0,0,5,,,,,,,,,5,,,58,67
480640,note_on,275,0,1,,,,,,,,,1,,,76,67
480720,note_off,240,0,5,,,,,,,,,5,,,58,0
480720,note_on,0,0,5,,,,,,,,,5,,,55,68
480800,note_off,160,0,1,,,,,,,,,1,,,76,0
480800,note_on,0,0,1,,,,,,,,,1,,,77,68
480960,note_off,240,0,5,,,,,,,,,5,,,55,0
480960,note_on,0,0,1,,,,,,,,,1,,,79,68
480960,note_off,160,0,1,,,,,,,,,1,,,77,0
480960,note_on,0,0,5,,,,,,,,,5,,,64,68
481120,note_on,0,0,1,,,,,,,,,1,,,77,69
481120,note_off,160,0,1,,,,,,,,,1,,,79,0
481280,note_on,0,0,1,,,,,,,,,1,,,76,69
481280,note_off,160,0,1,,,,,,,,,1,,,77,0
481320,note_off,360,0,5,,,,,,,,,5,,,64,0
481440,note_off,160,0,1,,,,,,,,,1,,,76,0
481440,note_on,0,0,1,,,,,,,,,1,,,74,70
481600,note_on,0,0,1,,,,,,,,,1,,,72,70
481600,note_off,160,0,1,,,,,,,,,1,,,74,0
481760,note_off,160,0,1,,,,,,,,,1,,,72,0
481760,note_on,0,0,1,,,,,,,,,1,,,70,71
481920,note_on,0,0,1,,,,,,,,,1,,,69,71
481920,note_off,160,0,1,,,,,,,,,1,,,70,0
481920,note_on,600,0,5,,,,,,,,,5,,,65,71
482015,note_off,95,0,1,,,,,,,,,1,,,69,0
482040,note_on,25,0,1,,,,,,,,,1,,,72,72
482160,note_off,120,0,1,,,,,,,,,1,,,72,0
482160,note_on,0,0,1,,,,,,,,,1,,,70,72
482280,note_off,120,0,1,,,,,,,,,1,,,70,0
482280,note_on,0,0,1,,,,,,,,,1,,,69,72
482305,note_off,385,0,5,,,,,,,,,5,,,65,0
482400,note_off,120,0,1,,,,,,,,,1,,,69,0
482400,note_on,0,0,1,,,,,,,,,1,,,70,73
482520,note_on,0,0,1,,,,,,,,,1,,,72,73
482520,note_off,120,0,1,,,,,,,,,1,,,70,0
482640,note_on,0,0,1,,,,,,,,,1,,,74,74
482640,note_off,120,0,1,,,,,,,,,1,,,72,0
482760,note_on,0,0,1,,,,,,,,,1,,,76,74
482760,note_off,120,0,1,,,,,,,,,1,,,74,0
482880,note_off,120,0,1,,,,,,,,,1,,,76,0
482880,note_on,0,0,1,,,,,,,,,1,,,77,74
483000,note_off,120,0,1,,,,,,,,,1,,,77,0
483000,note_on,0,0,1,,,,,,,,,1,,,79,75
483120,note_on,0,0,1,,,,,,,,,1,,,81,75
483120,note_off,120,0,1,,,,,,,,,1,,,79,0
483240,note_off,120,0,1,,,,,,,,,1,,,81,0
483240,note_on,0,0,1,,,,,,,,,1,,,82,75
483360,note_on,1055,0,5,,,,,,,,,5,,,53,76
483360,note_on,0,0,1,,,,,,,,,1,,,84,76
483360,note_off,120,0,1,,,,,,,,,1,,,82,0
483550,note_off,190,0,1,,,,,,,,,1,,,84,0
483600,note_on,50,0,1,,,,,,,,,1,,,69,76
483600,note_on,7055,0,2,,,,,,,,,2,,,65,76
483745,note_off,385,0,5,,,,,,,,,5,,,53,0
483780,control_change,14990,0,4,,,,,,,64,0,4,,,,
483780,control_change,35,0,5,,,,,,,64,0,5,,,,
483780,set_tempo,5700,1,0,,,,,,363636,,,,,,,
483780,control_change,17270,0,3,,,,,,,64,0,3,,,,
483790,note_off,190,0,2,,,,,,,,,2,,,65,0
483790,note_off,190,0,1,,,,,,,,,1,,,69,0
483840,control_change,60,0,4,,,,,,,64,127,4,,,,
483840,control_change,60,0,3,,,,,,,64,127,3,,,,
483840,note_on,50,0,2,,,,,,,,,2,,,65,77
483840,note_on,50,0,1,,,,,,,,,1,,,69,77
483840,control_change,60,0,5,,,,,,,64,127,5,,,,
483840,note_on,0,0,5,,,,,,,,,5,,,48,77
484030,note_off,190,0,5,,,,,,,,,5,,,48,0
484080,note_on,240,0,3,,,,,,,,,3,,,60,66
484260,control_change,420,0,4,,,,,,,64,0,4,,,,
484260,control_change,230,0,5,,,,,,,64,0,5,,,,
484260,control_change,180,0,3,,,,,,,64,0,3,,,,
484320,note_on,0,0,5,,,,,,,,,5,,,59,57
484320,control_change,60,0,5,,,,,,,64,127,5,,,,
484320,control_change,60,0,4,,,,,,,64,127,4,,,,
484320,note_on,0,0,2,,,,,,,,,2,,,64,57
484320,note_off,480,0,1,,,,,,,,,1,,,69,0
484320,note_on,0,0,1,,,,,,,,,1,,,67,57
484320,note_off,480,0,2,,,,,,,,,2,,,65,0
484320,control_change,60,0,3,,,,,,,64,127,3,,,,
484320,note_off,0,0,3,,,,,,,,,3,,,60,0
484560,note_off,240,0,5,,,,,,,,,5,,,59,0
484560,note_on,240,0,3,,,,,,,,,3,,,60,48
484690,set_tempo,910,1,0,,,,,,368098,,,,,,,
484705,note_off,385,0,2,,,,,,,,,2,,,64,0
484705,note_off,385,0,1,,,,,,,,,1,,,67,0
484740,control_change,180,0,5,,,,,,,64,0,5,,,,
484740,control_change,420,0,4,,,,,,,64,0,4,,,,
484740,control_change,180,0,3,,,,,,,64,0,3,,,,
484800,note_on,95,0,1,,,,,,,,,1,,,79,40
484800,set_tempo,110,1,0,,,,,,359281,,,,,,,
484800,note_off,0,0,3,,,,,,,,,3,,,60,0
484800,control_change,60,0,3,,,,,,,64,127,3,,,,
484800,note_on,0,0,5,,,,,,,,,5,,,58,40
484800,control_change,60,0,5,,,,,,,64,127,5,,,,
484800,control_change,60,0,4,,,,,,,64,127,4,,,,
485040,note_off,240,0,5,,,,,,,,,5,,,58,0
485040,note_on,240,0,3,,,,,,,,,3,,,60,41
485220,control_change,180,0,3,,,,,,,64,0,3,,,,
485220,control_change,180,0,5,,,,,,,64,0,5,,,,
485220,control_change,420,0,4,,,,,,,64,0,4,,,,
485280,control_change,60,0,4,,,,,,,64,127,4,,,,
485280,note_on,0,0,5,,,,,,,,,5,,,58,41
485280,note_off,0,0,3,,,,,,,,,3,,,60,0
485280,control_change,60,0,5,,,,,,,64,127,5,,,,
485280,control_change,60,0,3,,,,,,,64,127,3,,,,
485520,note_on,240,0,3,,,,,,,,,3,,,60,42
485520,note_off,240,0,5,,,,,,,,,5,,,58,0
485520,note_off,720,0,1,,,,,,,,,1,,,79,0
485520,note_on,0,0,1,,,,,,,,,1,,,76,42
485640,note_on,0,0,1,,,,,,,,,1,,,72,42
485640,note_off,120,0,1,,,,,,,,,1,,,76,0
485700,control_change,180,0,3,,,,,,,64,0,3,,,,
485700,control_change,180,0,5,,,,,,,64,0,5,,,,
485700,control_change,420,0,4,,,,,,,64,0,4,,,,
485710,note_off,10,0,3,,,,,,,,,3,,,60,0
485760,note_off,120,0,1,,,,,,,,,1,,,72,0
485760,control_change,60,0,5,,,,,,,64,127,5,,,,
485760,control_change,50,0,3,,,,,,,64,127,3,,,,
485760,control_change,60,0,4,,,,,,,64,127,4,,,,
485760,note_on,0,0,5,,,,,,,,,5,,,57,43
485760,note_on,0,0,1,,,,,,,,,1,,,77,43
486000,note_on,240,0,3,,,,,,,,,3,,,60,43
486000,note_off,240,0,5,,,,,,,,,5,,,57,0
486180,control_change,420,0,4,,,,,,,64,0,4,,,,
486180,control_change,180,0,5,,,,,,,64,0,5,,,,
486180,control_change,180,0,3,,,,,,,64,0,3,,,,
486240,note_on,0,0,5,,,,,,,,,5,,,57,44
486240,control_change,60,0,4,,,,,,,64,127,4,,,,
486240,note_on,0,0,1,,,,,,,,,1,,,78,44
486240,note_off,0,0,3,,,,,,,,,3,,,60,0
486240,control_change,60,0,3,,,,,,,64,127,3,,,,
486240,control_change,60,0,5,,,,,,,64,127,5,,,,
486240,note_off,480,0,1,,,,,,,,,1,,,77,0
486480,note_on,240,0,3,,,,,,,,,3,,,60,45
486480,note_off,240,0,5,,,,,,,,,5,,,57,0
486625,note_off,385,0,1,,,,,,,,,1,,,78,0
486660,control_change,420,0,4,,,,,,,64,0,4,,,,
486660,control_change,180,0,3,,,,,,,64,0,3,,,,
486660,control_change,180,0,5,,,,,,,64,0,5,,,,
486720,note_on,95,0,1,,,,,,,,,1,,,79,45
486720,note_on,0,0,5,,,,,,,,,5,,,58,45
486720,control_change,60,0,4,,,,,,,64,127,4,,,,
486720,control_change,60,0,3,,,,,,,64,127,3,,,,
486720,note_off,0,0,3,,,,,,,,,3,,,60,0
486720,control_change,60,0,5,,,,,,,64,127,5,,,,
486960,note_off,240,0,5,,,,,,,,,5,,,58,0
486960,note_on,240,0,3,,,,,,,,,3,,,60,46
487140,control_change,420,0,4,,,,,,,64,0,4,,,,
487140,control_change,180,0,5,,,,,,,64,0,5,,,,
487140,control_change,180,0,3,,,,,,,64,0,3,,,,
487200,control_change,60,0,4,,,,,,,64,127,4,,,,
487200,note_off,0,0,3,,,,,,,,,3,,,60,0
487200,note_on,0,0,5,,,,,,,,,5,,,58,47
487200,control_change,60,0,3,,,,,,,64,127,3,,,,
487200,control_change,60,0,5,,,,,,,64,127,5,,,,
487440,note_on,0,0,1,,,,,,,,,1,,,76,47
487440,note_off,720,0,1,,,,,,,,,1,,,79,0
487440,note_off,240,0,5,,,,,,,,,5,,,58,0
487440,note_on,240,0,3,,,,,,,,,3,,,60,47
487560,note_on,0,0,1,,,,,,,,,1,,,72,48
487560,note_off,120,0,1,,,,,,,,,1,,,76,0
487620,control_change,420,0,4,,,,,,,64,0,4,,,,
487620,control_change,180,0,3,,,,,,,64,0,3,,,,
487620,control_change,180,0,5,,,,,,,64,0,5,,,,
487630,note_off,10,0,3,,,,,,,,,3,,,60,0
487680,control_change,60,0,4,,,,,,,64,127,4,,,,
487680,control_change,50,0,3,,,,,,,64,127,3,,,,
487680,control_change,60,0,5,,,,,,,64,127,5,,,,
487680,note_on,0,0,1,,,,,,,,,1,,,77,48
487680,note_on,0,0,5,,,,,,,,,5,,,57,48
487680,note_off,120,0,1,,,,,,,,,1,,,72,0
487920,note_off,240,0,5,,,,,,,,,5,,,57,0
487920,note_on,240,0,3,,,,,,,,,3,,,60,49
488065,note_off,385,0,1,,,,,,,,,1,,,77,0
488100,control_change,420,0,4,,,,,,,64,0,4,,,,
488100,control_change,180,0,5,,,,,,,64,0,5,,,,
488100,control_change,180,0,3,,,,,,,64,0,3,,,,
488160,control_change,60,0,3,,,,,,,64,127,3,,,,
488160,note_off,0,0,3,,,,,,,,,3,,,60,0
488160,note_on,0,0,5,,,,,,,,,5,,,57,49
488160,control_change,60,0,5,,,,,,,64,127,5,,,,
488160,control_change,60,0,4,,,,,,,64,127,4,,,,
488400,note_off,240,0,5,,,,,,,,,5,,,57,0
488400,note_on,240,0,3,,,,,,,,,3,,,60,50
488580,control_change,180,0,5,,,,,,,64,0,5,,,,
488580,control_change,420,0,4,,,,,,,64,0,4,,,,
488580,control_change,180,0,3,,,,,,,64,0,3,,,,
488640,note_off,0,0,3,,,,,,,,,3,,,60,0
488640,control_change,60,0,5,,,,,,,64,127,5,,,,
488640,note_on,0,0,5,,,,,,,,,5,,,58,51
488640,note_on,575,0,1,,,,,,,,,1,,,79,51
488640,control_change,60,0,4,,,,,,,64,127,4,,,,
488640,control_change,60,0,3,,,,,,,64,127,3,,,,
488795,note_off,155,0,1,,,,,,,,,1,,,79,0
488880,note_on,85,0,1,,,,,,,,,1,,,79,51
488880,note_off,240,0,5,,,,,,,,,5,,,58,0
488880,note_on,240,0,3,,,,,,,,,3,,,60,51
489060,control_change,180,0,3,,,,,,,64,0,3,,,,
489060,control_change,420,0,4,,,,,,,64,0,4,,,,
489060,control_change,180,0,5,,,,,,,64,0,5,,,,
489120,control_change,60,0,3,,,,,,,64,127,3,,,,
489120,note_off,0,0,3,,,,,,,,,3,,,60,0
489120,control_change,60,0,4,,,,,,,64,127,4,,,,
489120,note_on,0,0,5,,,,,,,,,5,,,58,52
489120,control_change,60,0,5,,,,,,,64,127,5,,,,
489360,note_off,240,0,5,,,,,,,,,5,,,58,0
489360,note_on,240,0,3,,,,,,,,,3,,,60,53
489360,note_on,0,0,1,,,,,,,,,1,,,76,53
489360,note_off,480,0,1,,,,,,,,,1,,,79,0
489480,note_on,0,0,1,,,,,,,,,1,,,72,53
489480,note_off,120,0,1,,,,,,,,,1,,,76,0
489540,control_change,180,0,5,,,,,,,64,0,5,,,,
489540,control_change,420,0,4,,,,,,,64,0,4,,,,
489540,control_change,180,0,3,,,,,,,64,0,3,,,,
489550,note_off,10,0,3,,,,,,,,,3,,,60,0
489600,control_change,50,0,3,,,,,,,64,127,3,,,,
489600,note_on,0,0,1,,,,,,,,,1,,,77,53
489600,control_change,60,0,4,,,,,,,64,127,4,,,,
489600,note_on,0,0,5,,,,,,,,,5,,,57,53
489600,control_change,60,0,5,,,,,,,64,127,5,,,,
489600,note_off,120,0,1,,,,,,,,,1,,,72,0
489725,note_off,125,0,1,,,,,,,,,1,,,77,0
489840,note_on,115,0,1,,,,,,,,,1,,,77,54
489840,note_on,240,0,3,,,,,,,,,3,,,60,54
489840,note_off,240,0,5,,,,,,,,,5,,,57,0
489960,note_off,120,0,1,,,,,,,,,1,,,77,0
490020,control_change,180,0,3,,,,,,,64,0,3,,,,
490020,control_change,180,0,5,,,,,,,64,0,5,,,,
490020,control_change,420,0,4,,,,,,,64,0,4,,,,
490080,control_change,60,0,4,,,,,,,64,127,4,,,,
490080,note_on,120,0,1,,,,,,,,,1,,,78,55
490080,note_on,0,0,5,,,,,,,,,5,,,57,55
490080,control_change,60,0,5,,,,,,,64,127,5,,,,
490080,control_change,60,0,3,,,,,,,64,127,3,,,,
490080,note_off,0,0,3,,,,,,,,,3,,,60,0
490205,note_off,125,0,1,,,,,,,,,1,,,78,0
490320,note_on,240,0,3,,,,,,,,,3,,,60,55
490320,note_off,240,0,5,,,,,,,,,5,,,57,0
490320,note_on,115,0,1,,,,,,,,,1,,,78,55
490445,note_off,125,0,1,,,,,,,,,1,,,78,0
490500,control_change,180,0,3,,,,,,,64,0,3,,,,
490500,control_change,420,0,4,,,,,,,64,0,4,,,,
490500,control_change,180,0,5,,,,,,,64,0,5,,,,
490560,note_off,0,0,3,,,,,,,,,3,,,60,0
490560,control_change,60,0,3,,,,,,,64,127,3,,,,
490560,control_change,60,0,5,,,,,,,64,127,5,,,,
490560,note_on,0,0,5,,,,,,,,,5,,,58,56
490560,control_change,60,0,4,,,,,,,64,127,4,,,,
490560,note_on,115,0,1,,,,,,,,,1,,,79,56
490800,note_off,240,0,5,,,,,,,,,5,,,58,0
490800,note_on,240,0,3,,,,,,,,,3,,,60,57
490980,control_change,180,0,5,,,,,,,64,0,5,,,,
490980,control_change,180,0,3,,,,,,,64,0,3,,,,
490980,control_change,420,0,4,,,,,,,64,0,4,,,,
491040,control_change,60,0,3,,,,,,,64,127,3,,,,
491040,control_change,60,0,4,,,,,,,64,127,4,,,,
491040,note_on,0,0,5,,,,,,,,,5,,,58,57
491040,control_change,60,0,5,,,,,,,64,127,5,,,,
491040,note_off,0,0,3,,,,,,,,,3,,,60,0
491280,note_on,0,0,1,,,,,,,,,1,,,76,58
491280,note_off,240,0,5,,,,,,,,,5,,,58,0
491280,note_off,720,0,1,,,,,,,,,1,,,79,0
491280,note_on,240,0,3,,,,,,,,,3,,,60,58
491400,note_off,120,0,1,,,,,,,,,1,,,76,0
491400,note_on,0,0,1,,,,,,,,,1,,,72,58
491460,control_change,180,0,5,,,,,,,64,0,5,,,,
491460,control_change,180,0,3,,,,,,,64,0,3,,,,
491460,control_change,420,0,4,,,,,,,64,0,4,,,,
491470,note_off,10,0,3,,,,,,,,,3,,,60,0
491520,note_on,0,0,5,,,,,,,,,5,,,57,59
491520,note_on,0,0,1,,,,,,,,,1,,,77,59
491520,control_change,60,0,4,,,,,,,64,127,4,,,,
491520,note_off,120,0,1,,,,,,,,,1,,,72,0
491520,control_change,60,0,5,,,,,,,64,127,5,,,,
491520,control_change,50,0,3,,,,,,,64,127,3,,,,
491760,note_on,240,0,3,,,,,,,,,3,,,60,59
491760,note_off,240,0,5,,,,,,,,,5,,,57,0
491905,note_off,385,0,1,,,,,,,,,1,,,77,0
491940,control_change,420,0,4,,,,,,,64,0,4,,,,
491940,control_change,180,0,3,,,,,,,64,0,3,,,,
491940,control_change,180,0,5,,,,,,,64,0,5,,,,
492000,control_change,60,0,3,,,,,,,64,127,3,,,,
492000,note_on,0,0,5,,,,,,,,,5,,,57,60
492000,control_change,60,0,5,,,,,,,64,127,5,,,,
492000,note_off,0,0,3,,,,,,,,,3,,,60,0
492000,control_change,60,0,4,,,,,,,64,127,4,,,,
492240,note_on,240,0,3,,,,,,,,,3,,,60,61
492240,note_off,240,0,5,,,,,,,,,5,,,57,0
492420,control_change,180,0,3,,,,,,,64,0,3,,,,
492420,control_change,180,0,5,,,,,,,64,0,5,,,,
492420,control_change,420,0,4,,,,,,,64,0,4,,,,
492480,control_change,60,0,5,,,,,,,64,127,5,,,,
492480,note_on,0,0,5,,,,,,,,,5,,,58,61
492480,note_off,0,0,3,,,,,,,,,3,,,60,0
492480,control_change,60,0,4,,,,,,,64,127,4,,,,
492480,note_on,575,0,1,,,,,,,,,1,,,78,61
492480,control_change,60,0,3,,,,,,,64,127,3,,,,
492600,note_off,120,0,1,,,,,,,,,1,,,78,0
492600,note_on,0,0,1,,,,,,,,,1,,,79,62
492720,note_off,120,0,1,,,,,,,,,1,,,79,0
492720,note_on,0,0,1,,,,,,,,,1,,,81,62
492720,note_off,240,0,5,,,,,,,,,5,,,58,0
492720,note_on,240,0,3,,,,,,,,,3,,,60,62
492840,note_off,120,0,1,,,,,,,,,1,,,81,0
492840,note_on,0,0,1,,,,,,,,,1,,,79,62
492900,control_change,420,0,4,,,,,,,64,0,4,,,,
492900,control_change,180,0,5,,,,,,,64,0,5,,,,
492900,control_change,180,0,3,,,,,,,64,0,3,,,,
492960,note_on,0,0,1,,,,,,,,,1,,,77,63
492960,note_off,120,0,1,,,,,,,,,1,,,79,0
492960,note_on,0,0,5,,,,,,,,,5,,,58,63
492960,control_change,60,0,5,,,,,,,64,127,5,,,,
492960,control_change,60,0,3,,,,,,,64,127,3,,,,
492960,note_off,0,0,3,,,,,,,,,3,,,60,0
492960,control_change,60,0,4,,,,,,,64,127,4,,,,
493080,note_off,120,0,1,,,,,,,,,1,,,77,0
493080,note_on,0,0,1,,,,,,,,,1,,,76,63
493200,note_on,0,0,1,,,,,,,,,1,,,74,63
493200,note_on,240,0,3,,,,,,,,,3,,,60,63
493200,note_off,240,0,5,,,,,,,,,5,,,58,0
493200,note_off,120,0,1,,,,,,,,,1,,,76,0
493320,note_off,120,0,1,,,,,,,,,1,,,74,0
493320,note_on,0,0,1,,,,,,,,,1,,,72,64
493380,control_change,420,0,4,,,,,,,64,0,4,,,,
493380,set_tempo,8580,1,0,,,,,,340909,,,,,,,
493380,control_change,180,0,3,,,,,,,64,0,3,,,,
493380,control_change,180,0,5,,,,,,,64,0,5,,,,
493390,note_off,10,0,3,,,,,,,,,3,,,60,0
493415,note_off,95,0,1,,,,,,,,,1,,,72,0
493440,note_on,25,0,1,,,,,,,,,1,,,77,64
493440,set_tempo,60,1,0,,,,,,359281,,,,,,,
493440,note_on,60,0,5,,,,,,,,,5,,,57,64
493535,note_off,95,0,1,,,,,,,,,1,,,77,0
493560,note_on,8855,0,2,,,,,,,,,2,,,72,64
493655,note_off,95,0,2,,,,,,,,,2,,,72,0
493680,note_on,145,0,1,,,,,,,,,1,,,81,65
493775,note_off,95,0,1,,,,,,,,,1,,,81,0
493800,note_on,145,0,2,,,,,,,,,2,,,77,65
493825,note_off,385,0,5,,,,,,,,,5,,,57,0
493895,note_off,95,0,2,,,,,,,,,2,,,77,0
493920,note_on,145,0,1,,,,,,,,,1,,,84,65
494015,note_off,95,0,1,,,,,,,,,1,,,84,0
494040,note_on,145,0,2,,,,,,,,,2,,,81,66
494135,note_off,95,0,2,,,,,,,,,2,,,81,0
494160,note_on,145,0,1,,,,,,,,,1,,,84,66
494255,note_off,95,0,1,,,,,,,,,1,,,84,0
494280,note_on,145,0,2,,,,,,,,,2,,,81,66
494375,note_off,95,0,2,,,,,,,,,2,,,81,0
494400,note_on,145,0,1,,,,,,,,,1,,,84,67
494495,note_off,95,0,1,,,,,,,,,1,,,84,0
494520,note_on,25,0,1,,,,,,,,,1,,,82,67
494615,note_off,95,0,1,,,,,,,,,1,,,82,0
494640,note_on,25,0,1,,,,,,,,,1,,,81,67
494735,note_off,95,0,1,,,,,,,,,1,,,81,0
494760,note_on,25,0,1,,,,,,,,,1,,,79,68
494855,note_off,95,0,1,,,,,,,,,1,,,79,0
494880,note_on,25,0,1,,,,,,,,,1,,,77,68
494880,note_on,1500,0,4,,,,,,,,,4,,,65,68
494880,note_on,1055,0,5,,,,,,,,,5,,,57,68
494975,note_off,95,0,1,,,,,,,,,1,,,77,0
495000,note_on,25,0,1,,,,,,,,,1,,,75,68
495095,note_off,95,0,1,,,,,,,,,1,,,75,0
495120,note_on,25,0,1,,,,,,,,,1,,,74,69
495215,note_off,95,0,1,,,,,,,,,1,,,74,0
495240,note_on,25,0,1,,,,,,,,,1,,,72,69
495265,note_off,385,0,4,,,,,,,,,4,,,65,0
495265,note_off,385,0,5,,,,,,,,,5,,,57,0
495335,note_off,95,0,1,,,,,,,,,1,,,72,0
495360,note_on,95,0,4,,,,,,,,,4,,,65,69
495360,note_on,25,0,1,,,,,,,,,1,,,74,69
495360,note_on,95,0,5,,,,,,,,,5,,,58,69
495455,note_off,95,0,1,,,,,,,,,1,,,74,0
495480,note_on,1105,0,2,,,,,,,,,2,,,70,70
495575,note_off,95,0,2,,,,,,,,,2,,,70,0
495600,note_on,145,0,1,,,,,,,,,1,,,77,70
495695,note_off,95,0,1,,,,,,,,,1,,,77,0
495720,note_on,145,0,2,,,,,,,,,2,,,74,70
495745,note_off,385,0,5,,,,,,,,,5,,,58,0
495745,note_off,385,0,4,,,,,,,,,4,,,65,0
495815,note_off,95,0,2,,,,,,,,,2,,,74,0
495840,note_on,145,0,1,,,,,,,,,1,,,82,71
495935,note_off,95,0,1,,,,,,,,,1,,,82,0
495960,note_on,145,0,2,,,,,,,,,2,,,77,71
496055,note_off,95,0,2,,,,,,,,,2,,,77,0
496080,note_on,145,0,1,,,,,,,,,1,,,86,71
496175,note_off,95,0,1,,,,,,,,,1,,,86,0
496200,note_on,145,0,2,,,,,,,,,2,,,82,72
496295,note_off,95,0,2,,,,,,,,,2,,,82,0
496320,note_on,145,0,1,,,,,,,,,1,,,86,72
496415,note_off,95,0,1,,,,,,,,,1,,,86,0
496440,note_on,25,0,1,,,,,,,,,1,,,84,72
496535,note_off,95,0,1,,,,,,,,,1,,,84,0
496560,note_on,25,0,1,,,,,,,,,1,,,82,73
496655,note_off,95,0,1,,,,,,,,,1,,,82,0
496680,note_on,25,0,1,,,,,,,,,1,,,81,73
496775,note_off,95,0,1,,,,,,,,,1,,,81,0
496800,note_on,1055,0,4,,,,,,,,,4,,,65,73
496800,note_on,25,0,1,,,,,,,,,1,,,79,73
496800,note_on,1055,0,5,,,,,,,,,5,,,58,73
496800,note_on,0,0,4,,,,,,,,,4,,,67,73
496895,note_off,95,0,1,,,,,,,,,1,,,79,0
496920,note_on,25,0,1,,,,,,,,,1,,,77,74
497015,note_off,95,0,1,,,,,,,,,1,,,77,0
497040,note_on,25,0,1,,,,,,,,,1,,,76,74
497135,note_off,95,0,1,,,,,,,,,1,,,76,0
497160,note_on,25,0,1,,,,,,,,,1,,,74,74
497185,note_off,385,0,4,,,,,,,,,4,,,67,0
497185,note_off,385,0,5,,,,,,,,,5,,,58,0
497185,note_off,0,0,4,,,,,,,,,4,,,65,0
497255,note_off,95,0,1,,,,,,,,,1,,,74,0
497280,note_on,25,0,1,,,,,,,,,1,,,72,75
497280,control_change,3890,0,3,,,,,,,64,127,3,,,,
497280,note_on,0,0,5,,,,,,,,,5,,,60,75
497280,control_change,95,0,4,,,,,,,64,127,4,,,,
497280,control_change,95,0,5,,,,,,,64,127,5,,,,
497520,note_off,240,0,5,,,,,,,,,5,,,60,0
497520,note_on,240,0,3,,,,,,,,,3,,,69,75
497760,note_on,0,0,3,,,,,,,,,3,,,65,76
497760,note_off,240,0,3,,,,,,,,,3,,,69,0
498000,note_on,0,0,3,,,,,,,,,3,,,69,77
498000,note_off,240,0,3,,,,,,,,,3,,,65,0
498180,control_change,900,0,4,,,,,,,64,0,4,,,,
498180,control_change,180,0,3,,,,,,,64,0,3,,,,
498180,control_change,660,0,5,,,,,,,64,0,5,,,,
498180,set_tempo,4740,1,0,,,,,,344827,,,,,,,
498240,note_on,0,0,5,,,,,,,,,5,,,60,79
498240,note_off,960,0,1,,,,,,,,,1,,,72,0
498240,control_change,60,0,5,,,,,,,64,127,5,,,,
498240,control_change,60,0,3,,,,,,,64,127,3,,,,
498240,note_off,0,0,3,,,,,,,,,3,,,69,0
498240,control_change,60,0,4,,,,,,,64,127,4,,,,
498240,note_on,0,0,1,,,,,,,,,1,,,79,79
498320,note_on,2025,0,2,,,,,,,,,2,,,81,79
498320,note_off,80,0,1,,,,,,,,,1,,,79,0
498400,note_on,0,0,2,,,,,,,,,2,,,79,78
498400,note_off,80,0,2,,,,,,,,,2,,,81,0
498480,note_on,240,0,3,,,,,,,,,3,,,70,78
498480,note_on,0,0,2,,,,,,,,,2,,,81,78
498480,note_off,80,0,2,,,,,,,,,2,,,79,0
498480,note_off,240,0,5,,,,,,,,,5,,,60,0
498560,note_on,0,0,2,,,,,,,,,2,,,79,77
498560,note_off,80,0,2,,,,,,,,,2,,,81,0
498640,note_off,80,0,2,,,,,,,,,2,,,79,0
498640,note_on,0,0,2,,,,,,,,,2,,,81,77
498720,note_off,240,0,3,,,,,,,,,3,,,70,0
498720,note_off,80,0,2,,,,,,,,,2,,,81,0
498720,note_on,0,0,2,,,,,,,,,2,,,79,76
498720,note_on,0,0,3,,,,,,,,,3,,,64,76
498800,note_on,0,0,2,,,,,,,,,2,,,81,76
498800,note_off,80,0,2,,,,,,,,,2,,,79,0
498880,note_off,80,0,2,,,,,,,,,2,,,81,0
498880,note_on,0,0,2,,,,,,,,,2,,,79,75
498960,note_off,240,0,3,,,,,,,,,3,,,64,0
498960,note_on,0,0,2,,,,,,,,,2,,,77,75
498960,note_off,80,0,2,,,,,,,,,2,,,79,0
498960,note_on,0,0,3,,,,,,,,,3,,,70,75
499080,note_on,0,0,2,,,,,,,,,2,,,79,74
499080,note_off,120,0,2,,,,,,,,,2,,,77,0
499140,set_tempo,960,1,0,,,,,,348837,,,,,,,
499140,control_change,660,0,5,,,,,,,64,0,5,,,,
499140,control_change,900,0,4,,,,,,,64,0,4,,,,
499140,control_change,180,0,3,,,,,,,64,0,3,,,,
499150,note_off,10,0,3,,,,,,,,,3,,,70,0
499200,note_on,60,0,5,,,,,,,,,5,,,65,79
499200,note_off,120,0,2,,,,,,,,,2,,,79,0
499200,note_on,880,0,1,,,,,,,,,1,,,81,79
499200,set_tempo,60,1,0,,,,,,359281,,,,,,,
499320,note_off,120,0,1,,,,,,,,,1,,,81,0
499320,note_on,0,0,1,,,,,,,,,1,,,82,79
499440,note_off,120,0,1,,,,,,,,,1,,,82,0
499440,note_on,0,0,1,,,,,,,,,1,,,84,78
499560,note_off,120,0,1,,,,,,,,,1,,,84,0
499560,note_on,0,0,1,,,,,,,,,1,,,82,77
499585,note_off,385,0,5,,,,,,,,,5,,,65,0
499680,note_off,120,0,1,,,,,,,,,1,,,82,0
499680,note_on,0,0,1,,,,,,,,,1,,,81,77
499800,note_off,120,0,1,,,,,,,,,1,,,81,0
499800,note_on,0,0,1,,,,,,,,,1,,,79,76
499920,note_off,120,0,1,,,,,,,,,1,,,79,0
499920,note_on,0,0,1,,,,,,,,,1,,,77,75
499920,note_on,335,0,5,,,,,,,,,5,,,67,75
500040,note_off,120,0,1,,,,,,,,,1,,,77,0
500040,note_on,0,0,1,,,,,,,,,1,,,76,75
500110,note_off,190,0,5,,,,,,,,,5,,,67,0
500160,note_on,50,0,5,,,,,,,,,5,,,69,74
500160,note_on,0,0,1,,,,,,,,,1,,,77,74
500160,note_off,120,0,1,,,,,,,,,1,,,76,0
500280,note_on,0,0,1,,,,,,,,,1,,,79,74
500280,note_off,120,0,1,,,,,,,,,1,,,77,0
500400,note_on,0,0,1,,,,,,,,,1,,,81,73
500400,note_off,120,0,1,,,,,,,,,1,,,79,0
500520,note_on,0,0,1,,,,,,,,,1,,,79,72
500520,note_off,120,0,1,,,,,,,,,1,,,81,0
500545,note_off,385,0,5,,,,,,,,,5,,,69,0
500640,note_off,120,0,1,,,,,,,,,1,,,79,0
500640,note_on,0,0,1,,,,,,,,,1,,,77,72
500760,note_off,120,0,1,,,,,,,,,1,,,77,0
500760,note_on,0,0,1,,,,,,,,,1,,,75,71
500880,note_off,120,0,1,,,,,,,,,1,,,75,0
500880,note_on,0,0,1,,,,,,,,,1,,,74,71
500880,note_on,335,0,5,,,,,,,,,5,,,57,71
501000,note_on,0,0,1,,,,,,,,,1,,,73,70
501000,note_off,120,0,1,,,,,,,,,1,,,74,0
501070,note_off,190,0,5,,,,,,,,,5,,,57,0
501120,note_off,120,0,1,,,,,,,,,1,,,73,0
501120,note_on,50,0,5,,,,,,,,,5,,,58,69
501120,note_on,0,0,1,,,,,,,,,1,,,74,69
501240,note_on,0,0,1,,,,,,,,,1,,,76,69
501240,note_off,120,0,1,,,,,,,,,1,,,74,0
501360,note_off,120,0,1,,,,,,,,,1,,,76,0
501360,note_on,0,0,1,,,,,,,,,1,,,77,68
501480,note_off,120,0,1,,,,,,,,,1,,,77,0
501480,note_on,0,0,1,,,,,,,,,1,,,76,68
501505,note_off,385,0,5,,,,,,,,,5,,,58,0
501600,note_off,120,0,1,,,,,,,,,1,,,76,0
501600,note_on,0,0,1,,,,,,,,,1,,,74,67
501720,note_off,120,0,1,,,,,,,,,1,,,74,0
501720,note_on,0,0,1,,,,,,,,,1,,,72,66
501840,note_off,120,0,1,,,,,,,,,1,,,72,0
501840,note_on,0,0,1,,,,,,,,,1,,,70,66
501960,note_off,120,0,1,,,,,,,,,1,,,70,0
501960,note_on,0,0,1,,,,,,,,,1,,,69,65
502080,note_on,0,0,1,,,,,,,,,1,,,67,65
502080,note_on,0,0,5,,,,,,,,,5,,,46,65
502080,note_on,575,0,5,,,,,,,,,5,,,34,65
502080,note_off,120,0,1,,,,,,,,,1,,,69,0
502200,note_on,0,0,1,,,,,,,,,1,,,69,64
502200,note_off,120,0,1,,,,,,,,,1,,,67,0
502320,note_on,0,0,1,,,,,,,,,1,,,70,63
502320,note_off,120,0,1,,,,,,,,,1,,,69,0
502440,note_on,0,0,1,,,,,,,,,1,,,69,63
502440,note_off,120,0,1,,,,,,,,,1,,,70,0
502560,note_off,120,0,1,,,,,,,,,1,,,69,0
502560,note_off,0,0,5,,,,,,,,,5,,,34,0
502560,note_on,0,0,1,,,,,,,,,1,,,67,62
502560,note_off,480,0,5,,,,,,,,,5,,,46,0
502680,note_on,0,0,1,,,,,,,,,1,,,65,62
502680,note_off,120,0,1,,,,,,,,,1,,,67,0
502800,note_off,120,0,1,,,,,,,,,1,,,65,0
502800,note_on,0,0,1,,,,,,,,,1,,,64,61
502920,note_off,120,0,1,,,,,,,,,1,,,64,0
502920,note_on,0,0,1,,,,,,,,,1,,,62,60
502980,set_tempo,3780,1,0,,,,,,340909,,,,,,,
503040,control_change,3890,0,3,,,,,,,64,127,3,,,,
503040,note_on,0,0,1,,,,,,,,,1,,,60,62
503040,note_on,0,0,5,,,,,,,,,5,,,48,62
503040,set_tempo,60,1,0,,,,,,359281,,,,,,,
503040,note_off,120,0,1,,,,,,,,,1,,,62,0
503040,control_change,480,0,5,,,,,,,64,127,5,,,,
503040,control_change,3900,0,4,,,,,,,64,127,4,,,,
503280,note_off,240,0,5,,,,,,,,,5,,,48,0
503280,note_on,0,0,1,,,,,,,,,1,,,62,64
503280,note_off,240,0,1,,,,,,,,,1,,,60,0
503280,note_on,240,0,3,,,,,,,,,3,,,57,64
503400,note_on,0,0,1,,,,,,,,,1,,,64,65
503400,note_off,120,0,1,,,,,,,,,1,,,62,0
503520,note_on,0,0,3,,,,,,,,,3,,,53,65
503520,note_on,0,0,1,,,,,,,,,1,,,65,65
503520,note_off,120,0,1,,,,,,,,,1,,,64,0
503520,note_off,240,0,3,,,,,,,,,3,,,57,0
503640,note_on,0,0,1,,,,,,,,,1,,,67,66
503640,note_off,120,0,1,,,,,,,,,1,,,65,0
503760,note_off,240,0,3,,,,,,,,,3,,,53,0
503760,note_off,120,0,1,,,,,,,,,1,,,67,0
503760,note_on,0,0,3,,,,,,,,,3,,,57,67
503760,note_on,0,0,1,,,,,,,,,1,,,69,67
503880,note_on,0,0,1,,,,,,,,,1,,,70,68
503880,note_off,120,0,1,,,,,,,,,1,,,69,0
503940,control_change,900,0,4,,,,,,,64,0,4,,,,
503940,control_change,180,0,3,,,,,,,64,0,3,,,,
503940,control_change,660,0,5,,,,,,,64,0,5,,,,
504000,control_change,60,0,4,,,,,,,64,127,4,,,,
504000,note_off,0,0,3,,,,,,,,,3,,,57,0
504000,control_change,60,0,3,,,,,,,64,127,3,,,,
504000,note_on,0,0,5,,,,,,,,,5,,,48,69
504000,control_change,60,0,5,,,,,,,64,127,5,,,,
504000,note_off,120,0,1,,,,,,,,,1,,,70,0
504000,note_on,0,0,1,,,,,,,,,1,,,72,69
504120,note_off,120,0,1,,,,,,,,,1,,,72,0
504120,note_on,0,0,1,,,,,,,,,1,,,74,69
504240,note_off,240,0,5,,,,,,,,,5,,,48,0
504240,note_off,120,0,1,,,,,,,,,1,,,74,0
504240,note_on,0,0,1,,,,,,,,,1,,,76,70
504240,note_on,240,0,3,,,,,,,,,3,,,57,70
504360,note_off,120,0,1,,,,,,,,,1,,,76,0
504360,note_on,0,0,1,,,,,,,,,1,,,77,71
504480,note_on,0,0,3,,,,,,,,,3,,,53,72
504480,note_off,120,0,1,,,,,,,,,1,,,77,0
504480,note_on,0,0,1,,,,,,,,,1,,,79,72
504480,note_off,240,0,3,,,,,,,,,3,,,57,0
504600,note_on,0,0,1,,,,,,,,,1,,,81,73
504600,note_off,120,0,1,,,,,,,,,1,,,79,0
504720,note_off,240,0,3,,,,,,,,,3,,,53,0
504720,note_on,0,0,3,,,,,,,,,3,,,57,74
504720,note_off,120,0,1,,,,,,,,,1,,,81,0
504720,note_on,0,0,1,,,,,,,,,1,,,82,74
504840,note_off,120,0,1,,,,,,,,,1,,,82,0
504840,note_on,0,0,1,,,,,,,,,1,,,84,74
504900,control_change,180,0,3,,,,,,,64,0,3,,,,
504900,control_change,660,0,5,,,,,,,64,0,5,,,,
504900,control_change,900,0,4,,,,,,,64,0,4,,,,
504910,note_off,10,0,3,,,,,,,,,3,,,57,0
504920,set_tempo,1880,1,0,,,,,,363636,,,,,,,
504935,note_off,95,0,1,,,,,,,,,1,,,84,0
504960,note_on,25,0,1,,,,,,,,,1,,,77,77
504960,note_on,0,0,5,,,,,,,,,5,,,48,77
504960,control_change,60,0,5,,,,,,,64,127,5,,,,
504960,control_change,60,0,4,,,,,,,64,127,4,,,,
504960,control_change,50,0,3,,,,,,,64,127,3,,,,
505040,note_off,80,0,1,,,,,,,,,1,,,77,0
505040,note_on,5840,0,2,,,,,,,,,2,,,79,77
505120,note_on,0,0,2,,,,,,,,,2,,,81,77
505120,note_off,80,0,2,,,,,,,,,2,,,79,0
505200,note_off,240,0,5,,,,,,,,,5,,,48,0
505200,note_on,240,0,3,,,,,,,,,3,,,58,77
505200,note_on,0,0,2,,,,,,,,,2,,,79,77
505200,note_off,80,0,2,,,,,,,,,2,,,81,0
505280,note_on,0,0,2,,,,,,,,,2,,,81,77
505280,note_off,80,0,2,,,,,,,,,2,,,79,0
505360,note_on,0,0,2,,,,,,,,,2,,,79,76
505360,note_off,80,0,2,,,,,,,,,2,,,81,0
505440,note_on,0,0,2,,,,,,,,,2,,,81,76
505440,note_off,80,0,2,,,,,,,,,2,,,79,0
505440,note_off,240,0,3,,,,,,,,,3,,,58,0
505440,note_on,0,0,3,,,,,,,,,3,,,52,76
505520,note_off,80,0,2,,,,,,,,,2,,,81,0
505520,note_on,0,0,2,,,,,,,,,2,,,79,76
505600,note_off,80,0,2,,,,,,,,,2,,,79,0
505600,note_on,0,0,2,,,,,,,,,2,,,81,76
505680,note_off,80,0,2,,,,,,,,,2,,,81,0
505680,note_on,0,0,2,,,,,,,,,2,,,79,75
505680,note_off,240,0,3,,,,,,,,,3,,,52,0
505680,note_on,0,0,3,,,,,,,,,3,,,58,75
505760,note_on,0,0,2,,,,,,,,,2,,,81,75
505760,note_off,80,0,2,,,,,,,,,2,,,79,0
505840,note_on,0,0,2,,,,,,,,,2,,,79,75
505840,note_off,80,0,2,,,,,,,,,2,,,81,0
505860,control_change,180,0,3,,,,,,,64,0,3,,,,
505860,control_change,660,0,5,,,,,,,64,0,5,,,,
505860,control_change,900,0,4,,,,,,,64,0,4,,,,
505920,control_change,60,0,3,,,,,,,64,127,3,,,,
505920,control_change,60,0,4,,,,,,,64,127,4,,,,
505920,control_change,60,0,5,,,,,,,64,127,5,,,,
505920,note_off,0,0,3,,,,,,,,,3,,,58,0
505920,note_off,80,0,2,,,,,,,,,2,,,79,0
505920,note_on,0,0,2,,,,,,,,,2,,,81,75
505920,note_on,0,0,5,,,,,,,,,5,,,48,75
506000,note_on,0,0,2,,,,,,,,,2,,,79,74
506000,note_off,80,0,2,,,,,,,,,2,,,81,0
506080,note_off,80,0,2,,,,,,,,,2,,,79,0
506080,note_on,0,0,2,,,,,,,,,2,,,81,74
506160,note_off,240,0,5,,,,,,,,,5,,,48,0
506160,note_on,0,0,2,,,,,,,,,2,,,79,74
506160,note_off,80,0,2,,,,,,,,,2,,,81,0
506160,note_on,240,0,3,,,,,,,,,3,,,58,74
506240,note_on,0,0,2,,,,,,,,,2,,,81,74
506240,note_off,80,0,2,,,,,,,,,2,,,79,0
506320,note_on,0,0,2,,,,,,,,,2,,,79,73
506320,note_off,80,0,2,,,,,,,,,2,,,81,0
506400,note_on,0,0,2,,,,,,,,,2,,,81,73
506400,note_off,80,0,2,,,,,,,,,2,,,79,0
506400,note_on,0,0,3,,,,,,,,,3,,,52,73
506400,note_off,240,0,3,,,,,,,,,3,,,58,0
506520,note_off,120,0,2,,,,,,,,,2,,,81,0
506520,note_on,0,0,2,,,,,,,,,2,,,79,72
506640,note_on,0,0,2,,,,,,,,,2,,,77,70
506640,note_on,0,0,3,,,,,,,,,3,,,58,70
506640,note_off,240,0,3,,,,,,,,,3,,,52,0
506640,note_off,120,0,2,,,,,,,,,2,,,79,0
506760,note_off,120,0,2,,,,,,,,,2,,,77,0
506760,note_on,0,0,2,,,,,,,,,2,,,79,68
506820,control_change,180,0,3,,,,,,,64,0,3,,,,
506820,control_change,660,0,5,,,,,,,64,0,5,,,,
506820,control_change,900,0,4,,,,,,,64,0,4,,,,
506830,note_off,10,0,3,,,,,,,,,3,,,58,0
506840,set_tempo,1920,1,0,,,,,,368098,,,,,,,
506855,note_off,95,0,2,,,,,,,,,2,,,79,0
506880,note_on,1840,0,1,,,,,,,,,1,,,77,42
506880,note_on,60,0,5,,,,,,,,,5,,,53,42
506880,set_tempo,40,1,0,,,,,,355029,,,,,,,
506880,note_on,60,0,4,,,,,,,,,4,,,57,42
507070,note_off,190,0,1,,,,,,,,,1,,,77,0
507120,note_on,50,0,1,,,,,,,,,1,,,77,43
507190,note_off,310,0,4,,,,,,,,,4,,,57,0
507190,note_off,310,0,5,,,,,,,,,5,,,53,0
507310,note_off,190,0,1,,,,,,,,,1,,,77,0
507360,note_on,170,0,4,,,,,,,,,4,,,57,44
507360,note_on,170,0,5,,,,,,,,,5,,,53,44
507600,note_on,290,0,1,,,,,,,,,1,,,77,45
507670,note_off,310,0,5,,,,,,,,,5,,,53,0
507670,note_off,310,0,4,,,,,,,,,4,,,57,0
507790,note_off,190,0,1,,,,,,,,,1,,,77,0
507840,note_on,50,0,1,,,,,,,,,1,,,77,46
508030,note_off,190,0,1,,,,,,,,,1,,,77,0
508080,note_on,50,0,1,,,,,,,,,1,,,77,48
508270,note_off,190,0,1,,,,,,,,,1,,,77,0
508320,note_on,650,0,5,,,,,,,,,5,,,53,49
508320,note_on,650,0,4,,,,,,,,,4,,,57,49
508560,note_on,290,0,1,,,,,,,,,1,,,77,50
508750,note_off,190,0,1,,,,,,,,,1,,,77,0
508800,note_off,480,0,4,,,,,,,,,4,,,57,0
508800,note_on,0,0,4,,,,,,,,,4,,,55,51
508800,note_on,0,0,4,,,,,,,,,4,,,58,51
508800,note_on,50,0,1,,,,,,,,,1,,,77,51
508800,note_on,0,0,5,,,,,,,,,5,,,53,51
508800,note_off,480,0,5,,,,,,,,,5,,,53,0
508990,note_off,190,0,1,,,,,,,,,1,,,77,0
509040,note_on,50,0,1,,,,,,,,,1,,,77,52
509110,note_off,0,0,4,,,,,,,,,4,,,55,0
509110,note_off,310,0,5,,,,,,,,,5,,,53,0
509110,note_off,310,0,4,,,,,,,,,4,,,58,0
509230,note_off,190,0,1,,,,,,,,,1,,,77,0
509280,note_on,170,0,5,,,,,,,,,5,,,53,53
509280,note_on,0,0,4,,,,,,,,,4,,,58,53
509280,note_on,170,0,4,,,,,,,,,4,,,55,53
509520,note_on,290,0,1,,,,,,,,,1,,,77,55
509590,note_off,0,0,4,,,,,,,,,4,,,55,0
509590,note_off,310,0,4,,,,,,,,,4,,,58,0
509590,note_off,310,0,5,,,,,,,,,5,,,53,0
509710,note_off,190,0,1,,,,,,,,,1,,,77,0
509760,note_on,50,0,1,,,,,,,,,1,,,77,56
509950,note_off,190,0,1,,,,,,,,,1,,,77,0
510000,note_on,50,0,1,,,,,,,,,1,,,77,57
510190,note_off,190,0,1,,,,,,,,,1,,,77,0
510240,note_on,650,0,5,,,,,,,,,5,,,53,58
510240,note_on,650,0,4,,,,,,,,,4,,,56,58
510240,note_on,0,0,4,,,,,,,,,4,,,59,58
510480,note_on,290,0,1,,,,,,,,,1,,,77,59
510670,note_off,190,0,1,,,,,,,,,1,,,77,0
510720,note_off,480,0,5,,,,,,,,,5,,,53,0
510720,note_on,0,0,5,,,,,,,,,5,,,53,61
510720,note_on,50,0,1,,,,,,,,,1,,,77,61
510720,note_on,0,0,4,,,,,,,,,4,,,57,61
510720,note_on,0,0,4,,,,,,,,,4,,,60,61
510720,note_off,0,0,4,,,,,,,,,4,,,56,0
510720,note_off,480,0,4,,,,,,,,,4,,,59,0
510910,note_off,190,0,1,,,,,,,,,1,,,77,0
510960,note_on,50,0,1,,,,,,,,,1,,,77,62
511150,note_off,190,0,1,,,,,,,,,1,,,77,0
511200,note_on,0,0,4,,,,,,,,,4,,,61,64
511200,note_on,0,0,4,,,,,,,,,4,,,57,64
511200,note_off,0,0,4,,,,,,,,,4,,,57,0
511200,note_off,480,0,4,,,,,,,,,4,,,60,0
511440,note_on,290,0,1,,,,,,,,,1,,,77,66
511630,note_off,190,0,1,,,,,,,,,1,,,77,0
511680,note_on,0,0,5,,,,,,,,,5,,,53,68
511680,note_off,960,0,5,,,,,,,,,5,,,53,0
511680,note_on,50,0,1,,,,,,,,,1,,,77,68
511680,note_off,480,0,4,,,,,,,,,4,,,61,0
511680,note_on,0,0,4,,,,,,,,,4,,,62,68
511680,note_on,0,0,4,,,,,,,,,4,,,58,68
511680,note_off,0,0,4,,,,,,,,,4,,,57,0
511870,note_off,190,0,1,,,,,,,,,1,,,77,0
511920,note_on,50,0,1,,,,,,,,,1,,,77,69
512110,note_off,190,0,1,,,,,,,,,1,,,77,0
512160,note_on,0,0,4,,,,,,,,,4,,,59,71
512160,note_off,0,0,4,,,,,,,,,4,,,58,0
512160,note_off,480,0,4,,,,,,,,,4,,,62,0
512160,note_on,0,0,4,,,,,,,,,4,,,62,71
512400,note_on,290,0,1,,,,,,,,,1,,,77,73
512545,note_off,0,0,4,,,,,,,,,4,,,62,0
512545,note_off,385,0,4,,,,,,,,,4,,,59,0
512555,note_off,875,0,5,,,,,,,,,5,,,53,0
512590,note_off,190,0,1,,,,,,,,,1,,,77,0
512640,note_on,0,0,4,,,,,,,,,4,,,63,74
512640,note_on,85,0,5,,,,,,,,,5,,,53,74
512640,note_on,95,0,4,,,,,,,,,4,,,60,74
512640,note_on,50,0,1,,,,,,,,,1,,,77,74
512880,note_off,240,0,1,,,,,,,,,1,,,77,0
512880,note_on,0,0,1,,,,,,,,,1,,,81,76
513070,note_off,190,0,1,,,,,,,,,1,,,81,0
513120,note_on,50,0,1,,,,,,,,,1,,,81,78
513360,note_on,0,0,1,,,,,,,,,1,,,84,79
513360,note_off,240,0,1,,,,,,,,,1,,,81,0
513550,note_off,190,0,1,,,,,,,,,1,,,84,0
513600,note_on,50,0,1,,,,,,,,,1,,,84,81
513840,note_on,0,0,1,,,,,,,,,1,,,87,83
513840,note_off,240,0,1,,,,,,,,,1,,,84,0
514030,note_off,190,0,1,,,,,,,,,1,,,87,0
514080,note_on,50,0,1,,,,,,,,,1,,,87,85
514320,note_off,240,0,1,,,,,,,,,1,,,87,0
514320,note_on,0,0,1,,,,,,,,,1,,,84,86
514510,note_off,190,0,1,,,,,,,,,1,,,84,0
514560,note_on,50,0,1,,,,,,,,,1,,,84,84
514560,note_off,0,0,4,,,,,,,,,4,,,60,0
514560,note_off,1920,0,4,,,,,,,,,4,,,63,0
514560,note_off,1920,0,5,,,,,,,,,5,,,53,0
514800,note_off,240,0,1,,,,,,,,,1,,,84,0
514800,note_on,0,0,1,,,,,,,,,1,,,81,78
514990,note_off,190,0,1,,,,,,,,,1,,,81,0
515040,note_on,50,0,1,,,,,,,,,1,,,81,73
515280,note_off,240,0,1,,,,,,,,,1,,,81,0
515280,note_on,0,0,1,,,,,,,,,1,,,77,67
515470,note_off,190,0,1,,,,,,,,,1,,,77,0
515520,note_on,50,0,1,,,,,,,,,1,,,77,62
515760,note_off,240,0,1,,,,,,,,,1,,,77,0
515760,note_on,0,0,1,,,,,,,,,1,,,76,57
515950,note_off,190,0,1,,,,,,,,,1,,,76,0
516000,set_tempo,9120,1,0,,,,,,359281,,,,,,,
516000,note_on,50,0,1,,,,,,,,,1,,,76,51
516240,note_on,0,0,1,,,,,,,,,1,,,77,46
516240,note_off,240,0,1,,,,,,,,,1,,,76,0
516280,set_tempo,280,1,0,,,,,,560747,,,,,,,
516335,note_off,95,0,1,,,,,,,,,1,,,77,0
516480,note_on,145,0,1,,,,,,,,,1,,,77,47
516480,set_tempo,200,1,0,,,,,,355029,,,,,,,
516960,note_on,2400,0,5,,,,,,,,,5,,,58,45
517200,note_off,720,0,1,,,,,,,,,1,,,77,0
517200,note_on,0,0,1,,,,,,,,,1,,,74,44
517345,note_off,385,0,5,,,,,,,,,5,,,58,0
517440,note_on,0,0,1,,,,,,,,,1,,,70,43
517440,note_off,240,0,1,,,,,,,,,1,,,74,0
517440,note_on,95,0,5,,,,,,,,,5,,,62,43
517670,note_off,230,0,1,,,,,,,,,1,,,70,0
517825,note_off,385,0,5,,,,,,,,,5,,,62,0
517920,note_on,95,0,5,,,,,,,,,5,,,67,40
517920,note_on,250,0,1,,,,,,,,,1,,,70,40
518160,note_off,240,0,1,,,,,,,,,1,,,70,0
518305,note_off,385,0,5,,,,,,,,,5,,,67,0
518400,note_on,95,0,5,,,,,,,,,5,,,60,43
518400,note_on,240,0,1,,,,,,,,,1,,,75,43
518785,note_off,385,0,5,,,,,,,,,5,,,60,0
518880,note_off,480,0,1,,,,,,,,,1,,,75,0
518880,note_on,95,0,5,,,,,,,,,5,,,63,40
518880,note_on,0,0,1,,,,,,,,,1,,,79,40
519265,note_off,385,0,5,,,,,,,,,5,,,63,0
519265,note_off,385,0,1,,,,,,,,,1,,,79,0
519360,note_on,95,0,1,,,,,,,,,1,,,69,37
519360,note_on,95,0,5,,,,,,,,,5,,,65,37
519745,note_off,385,0,1,,,,,,,,,1,,,69,0
519745,note_off,385,0,5,,,,,,,,,5,,,65,0
519840,note_on,95,0,5,,,,,,,,,5,,,63,34
520225,note_off,385,0,5,,,,,,,,,5,,,63,0
520320,note_on,575,0,1,,,,,,,,,1,,,72,38
520320,note_on,95,0,5,,,,,,,,,5,,,62,38
520560,note_off,240,0,1,,,,,,,,,1,,,72,0
520560,note_on,13705,0,2,,,,,,,,,2,,,70,35
520700,note_off,140,0,2,,,,,,,,,2,,,70,0
520705,note_off,385,0,5,,,,,,,,,5,,,62,0
520800,note_on,240,0,1,,,,,,,,,1,,,74,41
520800,note_on,95,0,5,,,,,,,,,5,,,57,41
521040,note_off,240,0,1,,,,,,,,,1,,,74,0
521040,note_on,340,0,2,,,,,,,,,2,,,72,38
521185,note_off,385,0,5,,,,,,,,,5,,,57,0
521230,note_off,190,0,2,,,,,,,,,2,,,72,0
521280,note_on,95,0,5,,,,,,,,,5,,,58,44
521280,note_on,240,0,1,,,,,,,,,1,,,75,44
521520,note_off,240,0,1,,,,,,,,,1,,,75,0
521520,note_on,290,0,2,,,,,,,,,2,,,74,44
521665,note_off,385,0,5,,,,,,,,,5,,,58,0
521710,note_off,190,0,2,,,,,,,,,2,,,74,0
521760,note_on,95,0,5,,,,,,,,,5,,,51,48
521760,note_on,7200,0,4,,,,,,,,,4,,,60,48
521760,note_on,240,0,1,,,,,,,,,1,,,77,48
522000,note_off,240,0,1,,,,,,,,,1,,,77,0
522000,note_on,290,0,2,,,,,,,,,2,,,75,45
522145,note_off,385,0,5,,,,,,,,,5,,,51,0
522145,note_off,385,0,4,,,,,,,,,4,,,60,0
522180,set_tempo,5700,1,0,,,,,,357142,,,,,,,
522190,note_off,190,0,2,,,,,,,,,2,,,75,0
522240,note_on,240,0,1,,,,,,,,,1,,,74,53
522240,note_on,95,0,5,,,,,,,,,5,,,53,53
522240,note_on,95,0,4,,,,,,,,,4,,,58,53
522960,note_off,720,0,1,,,,,,,,,1,,,74,0
522960,note_on,0,0,1,,,,,,,,,1,,,75,45
523080,note_off,120,0,1,,,,,,,,,1,,,75,0
523080,note_on,0,0,1,,,,,,,,,1,,,74,44
523200,note_off,120,0,1,,,,,,,,,1,,,74,0
523200,note_on,0,0,1,,,,,,,,,1,,,72,43
523200,note_on,0,0,4,,,,,,,,,4,,,57,43
523200,note_off,960,0,4,,,,,,,,,4,,,58,0
523390,note_off,190,0,1,,,,,,,,,1,,,72,0
523440,note_on,50,0,1,,,,,,,,,1,,,74,43
523585,note_off,385,0,4,,,,,,,,,4,,,57,0
523585,note_off,1345,0,5,,,,,,,,,5,,,53,0
523680,note_on,0,0,1,,,,,,,,,1,,,75,45
523680,note_off,240,0,1,,,,,,,,,1,,,74,0
523920,note_on,0,0,1,,,,,,,,,1,,,76,47
523920,note_off,240,0,1,,,,,,,,,1,,,75,0
524110,note_off,190,0,1,,,,,,,,,1,,,76,0
524120,set_tempo,1940,1,0,,,,,,359281,,,,,,,
524160,set_tempo,40,1,0,,,,,,355029,,,,,,,
524160,note_on,50,0,1,,,,,,,,,1,,,77,51
524640,note_on,1055,0,5,,,,,,,,,5,,,58,48
524880,note_off,720,0,1,,,,,,,,,1,,,77,0
524880,note_on,0,0,1,,,,,,,,,1,,,75,47
524960,note_off,80,0,1,,,,,,,,,1,,,75,0
524960,note_on,0,0,1,,,,,,,,,1,,,74,47
525025,note_off,385,0,5,,,,,,,,,5,,,58,0
525040,note_on,0,0,1,,,,,,,,,1,,,72,46
525040,note_off,80,0,1,,,,,,,,,1,,,74,0
525105,note_off,65,0,1,,,,,,,,,1,,,72,0
525120,note_on,15,0,1,,,,,,,,,1,,,70,46
525120,note_on,95,0,5,,,,,,,,,5,,,62,46
525360,note_off,240,0,1,,,,,,,,,1,,,70,0
525505,note_off,385,0,5,,,,,,,,,5,,,62,0
525600,note_on,240,0,1,,,,,,,,,1,,,70,44
525600,note_on,95,0,5,,,,,,,,,5,,,67,44
525840,note_off,240,0,1,,,,,,,,,1,,,70,0
525985,note_off,385,0,5,,,,,,,,,5,,,67,0
526080,note_on,240,0,1,,,,,,,,,1,,,75,49
526080,note_on,95,0,5,,,,,,,,,5,,,60,49
526465,note_off,385,0,5,,,,,,,,,5,,,60,0
526560,note_on,95,0,5,,,,,,,,,5,,,63,46
526560,note_on,0,0,1,,,,,,,,,1,,,79,46
526560,note_off,480,0,1,,,,,,,,,1,,,75,0
526945,note_off,385,0,5,,,,,,,,,5,,,63,0
526945,note_off,385,0,1,,,,,,,,,1,,,79,0
527040,note_on,95,0,5,,,,,,,,,5,,,65,43
527040,note_on,95,0,1,,,,,,,,,1,,,69,43
527425,note_off,385,0,1,,,,,,,,,1,,,69,0
527425,note_off,385,0,5,,,,,,,,,5,,,65,0
527520,note_on,95,0,5,,,,,,,,,5,,,63,40
527760,note_on,335,0,1,,,,,,,,,1,,,69,38
527905,note_off,385,0,5,,,,,,,,,5,,,63,0
527950,note_off,190,0,1,,,,,,,,,1,,,69,0
528000,note_on,50,0,1,,,,,,,,,1,,,70,42
528000,note_on,95,0,5,,,,,,,,,5,,,62,42
528240,note_off,240,0,1,,,,,,,,,1,,,70,0
528240,note_on,0,0,1,,,,,,,,,1,,,74,42
528380,note_off,140,0,1,,,,,,,,,1,,,74,0
528385,note_off,385,0,5,,,,,,,,,5,,,62,0
528480,note_on,100,0,1,,,,,,,,,1,,,67,41
528480,note_on,4895,0,4,,,,,,,,,4,,,63,41
528480,note_on,95,0,5,,,,,,,,,5,,,51,41
528720,note_on,0,0,1,,,,,,,,,1,,,72,41
528720,note_off,240,0,1,,,,,,,,,1,,,67,0
528865,note_off,385,0,4,,,,,,,,,4,,,63,0
528865,note_off,385,0,5,,,,,,,,,5,,,51,0
528910,note_off,190,0,1,,,,,,,,,1,,,72,0
528960,note_on,95,0,4,,,,,,,,,4,,,62,40
528960,note_on,50,0,1,,,,,,,,,1,,,70,40
528960,note_on,95,0,5,,,,,,,,,5,,,53,40
529440,note_off,480,0,1,,,,,,,,,1,,,70,0
529440,note_on,0,0,4,,,,,,,,,4,,,60,39
529440,note_off,480,0,4,,,,,,,,,4,,,62,0
529440,note_on,0,0,1,,,,,,,,,1,,,69,39
529860,set_tempo,5700,1,0,,,,,,357142,,,,,,,
529920,note_off,480,0,4,,,,,,,,,4,,,60,0
529920,note_off,480,0,1,,,,,,,,,1,,,69,0
529920,note_on,0,0,1,,,,,,,,,1,,,70,38
529920,note_on,0,0,5,,,,,,,,,5,,,58,38
529920,note_off,960,0,5,,,,,,,,,5,,,53,0
530075,note_off,155,0,1,,,,,,,,,1,,,70,0
530160,note_on,85,0,1,,,,,,,,,1,,,65,43
530280,note_off,120,0,1,,,,,,,,,1,,,65,0
530305,note_off,385,0,5,,,,,,,,,5,,,58,0
530400,note_on,120,0,1,,,,,,,,,1,,,67,46
530520,note_off,120,0,1,,,,,,,,,1,,,67,0
530640,note_on,120,0,1,,,,,,,,,1,,,69,48
530760,note_off,120,0,1,,,,,,,,,1,,,69,0
530880,note_on,120,0,1,,,,,,,,,1,,,70,51
531000,note_off,120,0,1,,,,,,,,,1,,,70,0
531120,note_on,120,0,1,,,,,,,,,1,,,72,53
531240,note_off,120,0,1,,,,,,,,,1,,,72,0
531360,note_on,120,0,1,,,,,,,,,1,,,74,56
531480,note_off,120,0,1,,,,,,,,,1,,,74,0
531600,note_on,120,0,1,,,,,,,,,1,,,75,58
531720,note_off,120,0,1,,,,,,,,,1,,,75,0
531800,set_tempo,1940,1,0,,,,,,359281,,,,,,,
531840,note_on,120,0,1,,,,,,,,,1,,,77,65
531840,set_tempo,40,1,0,,,,,,355029,,,,,,,
531840,control_change,1920,0,4,,,,,,,64,127,4,,,,
531840,control_change,25010,0,3,,,,,,,64,127,3,,,,
531840,control_change,1535,0,5,,,,,,,64,127,5,,,,
531840,note_on,0,0,5,,,,,,,,,5,,,58,65
532080,note_off,240,0,5,,,,,,,,,5,,,58,0
532080,note_on,240,0,3,,,,,,,,,3,,,65,64
532320,note_off,240,0,3,,,,,,,,,3,,,65,0
532320,note_on,0,0,3,,,,,,,,,3,,,62,63
532560,note_on,0,0,3,,,,,,,,,3,,,65,62
532560,note_on,0,0,1,,,,,,,,,1,,,74,62
532560,note_off,720,0,1,,,,,,,,,1,,,77,0
532560,note_off,240,0,3,,,,,,,,,3,,,62,0
532740,control_change,900,0,4,,,,,,,64,0,4,,,,
532740,control_change,180,0,3,,,,,,,64,0,3,,,,
532740,control_change,660,0,5,,,,,,,64,0,5,,,,
532800,control_change,60,0,4,,,,,,,64,127,4,,,,
532800,note_on,0,0,1,,,,,,,,,1,,,70,60
532800,control_change,60,0,5,,,,,,,64,127,5,,,,
532800,note_on,0,0,5,,,,,,,,,5,,,55,60
532800,control_change,60,0,3,,,,,,,64,127,3,,,,
532800,note_off,240,0,1,,,,,,,,,1,,,74,0
532800,note_off,0,0,3,,,,,,,,,3,,,65,0
533040,note_on,240,0,3,,,,,,,,,3,,,62,59
533040,note_off,240,0,1,,,,,,,,,1,,,70,0
533040,note_off,240,0,5,,,,,,,,,5,,,55,0
533280,note_on,240,0,1,,,,,,,,,1,,,70,58
533280,note_off,240,0,3,,,,,,,,,3,,,62,0
533280,note_on,0,0,3,,,,,,,,,3,,,58,58
533520,note_off,240,0,1,,,,,,,,,1,,,70,0
533520,note_off,240,0,3,,,,,,,,,3,,,58,0
533520,note_on,0,0,3,,,,,,,,,3,,,62,57
533700,control_change,180,0,3,,,,,,,64,0,3,,,,
533700,control_change,900,0,4,,,,,,,64,0,4,,,,
533700,control_change,660,0,5,,,,,,,64,0,5,,,,
533710,note_off,10,0,3,,,,,,,,,3,,,62,0
533760,control_change,50,0,3,,,,,,,64,127,3,,,,
533760,note_on,0,0,5,,,,,,,,,5,,,51,59
533760,note_on,240,0,1,,,,,,,,,1,,,75,59
533760,control_change,60,0,4,,,,,,,64,127,4,,,,
533760,control_change,60,0,5,,,,,,,64,127,5,,,,
533920,note_on,160,0,1,,,,,,,,,1,,,77,58
533925,note_off,5,0,1,,,,,,,,,1,,,75,0
534000,note_on,240,0,3,,,,,,,,,3,,,60,57
534000,note_off,240,0,5,,,,,,,,,5,,,51,0
534000,note_off,75,0,1,,,,,,,,,1,,,77,0
534000,note_on,0,0,1,,,,,,,,,1,,,75,57
534080,note_off,80,0,1,,,,,,,,,1,,,75,0
534080,note_on,0,0,1,,,,,,,,,1,,,74,56
534160,note_on,80,0,1,,,,,,,,,1,,,75,56
534165,note_off,5,0,1,,,,,,,,,1,,,74,0
534240,note_on,0,0,1,,,,,,,,,1,,,79,55
534240,note_on,0,0,3,,,,,,,,,3,,,55,55
534240,note_off,240,0,3,,,,,,,,,3,,,60,0
534240,note_off,75,0,1,,,,,,,,,1,,,75,0
534480,note_on,0,0,3,,,,,,,,,3,,,60,53
534480,note_off,240,0,3,,,,,,,,,3,,,55,0
534625,note_off,385,0,1,,,,,,,,,1,,,79,0
534660,control_change,180,0,3,,,,,,,64,0,3,,,,
534660,control_change,900,0,4,,,,,,,64,0,4,,,,
534660,control_change,660,0,5,,,,,,,64,0,5,,,,
534720,control_change,60,0,4,,,,,,,64,127,4,,,,
534720,note_off,0,0,3,,,,,,,,,3,,,60,0
534720,note_on,95,0,1,,,,,,,,,1,,,69,52
534720,control_change,60,0,3,,,,,,,64,127,3,,,,
534720,control_change,60,0,5,,,,,,,64,127,5,,,,
534720,note_on,0,0,5,,,,,,,,,5,,,53,52
534960,note_on,240,0,3,,,,,,,,,3,,,63,50
534960,note_off,240,0,5,,,,,,,,,5,,,53,0
535105,note_off,385,0,1,,,,,,,,,1,,,69,0
535200,note_off,240,0,3,,,,,,,,,3,,,63,0
535200,note_on,0,0,3,,,,,,,,,3,,,60,48
535440,note_off,240,0,3,,,,,,,,,3,,,60,0
535440,note_on,0,0,3,,,,,,,,,3,,,63,46
535620,control_change,180,0,3,,,,,,,64,0,3,,,,
535620,control_change,660,0,5,,,,,,,64,0,5,,,,
535620,control_change,900,0,4,,,,,,,64,0,4,,,,
535630,note_off,10,0,3,,,,,,,,,3,,,63,0
535680,note_on,575,0,1,,,,,,,,,1,,,72,52
535680,note_on,60,0,5,,,,,,,,,5,,,62,52
535920,note_on,0,0,1,,,,,,,,,1,,,70,51
535920,note_off,240,0,1,,,,,,,,,1,,,72,0
536060,note_off,140,0,1,,,,,,,,,1,,,70,0
536065,note_off,385,0,5,,,,,,,,,5,,,62,0
536160,note_on,100,0,1,,,,,,,,,1,,,74,54
536160,note_on,95,0,5,,,,,,,,,5,,,57,54
536160,note_on,540,0,4,,,,,,,,,4,,,65,54
536400,note_on,0,0,1,,,,,,,,,1,,,72,54
536400,note_off,240,0,1,,,,,,,,,1,,,74,0
536545,note_off,385,0,5,,,,,,,,,5,,,57,0
536590,note_off,190,0,1,,,,,,,,,1,,,72,0
536640,note_on,95,0,5,,,,,,,,,5,,,58,57
536640,note_on,50,0,1,,,,,,,,,1,,,75,57
536880,note_on,0,0,1,,,,,,,,,1,,,74,54
536880,note_off,240,0,1,,,,,,,,,1,,,75,0
537025,note_off,385,0,5,,,,,,,,,5,,,58,0
537070,note_off,190,0,1,,,,,,,,,1,,,74,0
537120,note_on,0,0,4,,,,,,,,,4,,,60,59
537120,note_on,50,0,1,,,,,,,,,1,,,77,59
537120,note_on,95,0,5,,,,,,,,,5,,,51,59
537120,note_off,960,0,4,,,,,,,,,4,,,65,0
537360,note_off,240,0,1,,,,,,,,,1,,,77,0
537360,note_on,0,0,1,,,,,,,,,1,,,75,57
537505,note_off,385,0,5,,,,,,,,,5,,,51,0
537505,note_off,385,0,4,,,,,,,,,4,,,60,0
537540,set_tempo,5700,1,0,,,,,,357142,,,,,,,
537550,note_off,190,0,1,,,,,,,,,1,,,75,0
537600,note_on,95,0,5,,,,,,,,,5,,,53,66
537600,note_on,50,0,1,,,,,,,,,1,,,74,66
537600,note_on,95,0,4,,,,,,,,,4,,,58,66
538320,note_off,720,0,1,,,,,,,,,1,,,74,0
538320,note_on,0,0,1,,,,,,,,,1,,,75,63
538440,note_off,120,0,1,,,,,,,,,1,,,75,0
538440,note_on,0,0,1,,,,,,,,,1,,,74,62
538560,note_off,960,0,4,,,,,,,,,4,,,58,0
538560,note_on,0,0,4,,,,,,,,,4,,,57,61
538560,note_off,120,0,1,,,,,,,,,1,,,74,0
538560,note_on,0,0,1,,,,,,,,,1,,,72,61
538750,note_off,190,0,1,,,,,,,,,1,,,72,0
538800,note_on,50,0,1,,,,,,,,,1,,,74,59
538945,note_off,385,0,4,,,,,,,,,4,,,57,0
538950,note_off,1350,0,5,,,,,,,,,5,,,53,0
539040,note_off,240,0,1,,,,,,,,,1,,,74,0
539040,note_on,0,0,1,,,,,,,,,1,,,75,61
539280,note_on,0,0,1,,,,,,,,,1,,,76,62
539280,note_off,240,0,1,,,,,,,,,1,,,75,0
539470,note_off,190,0,1,,,,,,,,,1,,,76,0
539480,set_tempo,1940,1,0,,,,,,359281,,,,,,,
539520,control_change,575,0,4,,,,,,,64,127,4,,,,
539520,note_on,0,0,5,,,,,,,,,5,,,58,69
539520,control_change,570,0,5,,,,,,,64,127,5,,,,
539520,control_change,3890,0,3,,,,,,,64,127,3,,,,
539520,set_tempo,40,1,0,,,,,,355029,,,,,,,
539520,note_on,50,0,1,,,,,,,,,1,,,77,69
539760,note_off,240,0,5,,,,,,,,,5,,,58,0
539760,note_on,240,0,3,,,,,,,,,3,,,65,67
540000,note_off,240,0,3,,,,,,,,,3,,,65,0
540000,note_on,0,0,3,,,,,,,,,3,,,62,65
540240,note_on,0,0,1,,,,,,,,,1,,,75,64
540240,note_off,720,0,1,,,,,,,,,1,,,77,0
540240,note_off,240,0,3,,,,,,,,,3,,,62,0
540240,note_on,0,0,3,,,,,,,,,3,,,65,64
540320,note_on,0,0,1,,,,,,,,,1,,,74,64
540320,note_off,80,0,1,,,,,,,,,1,,,75,0
540400,note_on,0,0,1,,,,,,,,,1,,,72,64
540400,note_off,80,0,1,,,,,,,,,1,,,74,0
540420,control_change,900,0,4,,,,,,,64,0,4,,,,
540420,control_change,180,0,3,,,,,,,64,0,3,,,,
540420,control_change,660,0,5,,,,,,,64,0,5,,,,
540465,note_off,65,0,1,,,,,,,,,1,,,72,0
540480,note_on,0,0,5,,,,,,,,,5,,,55,63
540480,control_change,60,0,5,,,,,,,64,127,5,,,,
540480,control_change,60,0,3,,,,,,,64,127,3,,,,
540480,note_on,15,0,1,,,,,,,,,1,,,70,63
540480,note_off,0,0,3,,,,,,,,,3,,,65,0
540480,control_change,60,0,4,,,,,,,64,127,4,,,,
540635,note_off,155,0,1,,,,,,,,,1,,,70,0
540720,note_on,240,0,3,,,,,,,,,3,,,62,62
540720,note_on,85,0,1,,,,,,,,,1,,,70,62
540720,note_off,240,0,5,,,,,,,,,5,,,55,0
540875,note_off,155,0,1,,,,,,,,,1,,,70,0
540960,note_on,0,0,3,,,,,,,,,3,,,58,61
540960,note_off,240,0,3,,,,,,,,,3,,,62,0
540960,note_on,85,0,1,,,,,,,,,1,,,70,61
541115,note_off,155,0,1,,,,,,,,,1,,,70,0
541200,note_on,0,0,3,,,,,,,,,3,,,62,60
541200,note_on,85,0,1,,,,,,,,,1,,,70,60
541200,note_off,240,0,3,,,,,,,,,3,,,58,0
541355,note_off,155,0,1,,,,,,,,,1,,,70,0
541380,control_change,180,0,3,,,,,,,64,0,3,,,,
541380,control_change,900,0,4,,,,,,,64,0,4,,,,
541380,control_change,660,0,5,,,,,,,64,0,5,,,,
541390,note_off,10,0,3,,,,,,,,,3,,,62,0
541440,note_on,85,0,1,,,,,,,,,1,,,75,64
541440,control_change,50,0,3,,,,,,,64,127,3,,,,
541440,control_change,60,0,5,,,,,,,64,127,5,,,,
541440,note_on,0,0,5,,,,,,,,,5,,,51,64
541440,control_change,60,0,4,,,,,,,64,127,4,,,,
541605,note_off,165,0,1,,,,,,,,,1,,,75,0
541620,note_on,15,0,1,,,,,,,,,1,,,77,63
541680,note_off,240,0,5,,,,,,,,,5,,,51,0
541680,note_on,240,0,3,,,,,,,,,3,,,60,63
541680,note_on,60,0,1,,,,,,,,,1,,,75,63
541705,note_off,25,0,1,,,,,,,,,1,,,77,0
541755,note_off,50,0,1,,,,,,,,,1,,,75,0
541760,note_on,5,0,1,,,,,,,,,1,,,74,62
541840,note_on,80,0,1,,,,,,,,,1,,,75,62
541845,note_off,5,0,1,,,,,,,,,1,,,74,0
541920,note_on,0,0,3,,,,,,,,,3,,,55,61
541920,note_off,240,0,3,,,,,,,,,3,,,60,0
541920,note_on,75,0,1,,,,,,,,,1,,,79,61
541925,note_off,5,0,1,,,,,,,,,1,,,75,0
542160,note_off,240,0,3,,,,,,,,,3,,,55,0
542160,note_on,0,0,3,,,,,,,,,3,,,60,60
542305,note_off,380,0,1,,,,,,,,,1,,,79,0
542340,control_change,180,0,3,,,,,,,64,0,3,,,,
542340,control_change,660,0,5,,,,,,,64,0,5,,,,
542340,control_change,900,0,4,,,,,,,64,0,4,,,,
542400,note_off,0,0,3,,,,,,,,,3,,,60,0
542400,note_on,95,0,1,,,,,,,,,1,,,69,59
542400,control_change,60,0,3,,,,,,,64,127,3,,,,
542400,note_on,0,0,5,,,,,,,,,5,,,53,59
542400,control_change,60,0,4,,,,,,,64,127,4,,,,
542400,control_change,60,0,5,,,,,,,64,127,5,,,,
542640,note_off,240,0,5,,,,,,,,,5,,,53,0
542640,note_on,240,0,3,,,,,,,,,3,,,63,58
542785,note_off,385,0,1,,,,,,,,,1,,,69,0
542880,note_off,240,0,3,,,,,,,,,3,,,63,0
542880,note_on,0,0,3,,,,,,,,,3,,,60,57
543120,note_on,0,0,3,,,,,,,,,3,,,63,56
543120,note_off,240,0,3,,,,,,,,,3,,,60,0
543120,note_on,335,0,1,,,,,,,,,1,,,81,56
543300,control_change,900,0,4,,,,,,,64,0,4,,,,
543300,set_tempo,3780,1,0,,,,,,357142,,,,,,,
543300,control_change,180,0,3,,,,,,,64,0,3,,,,
543300,control_change,660,0,5,,,,,,,64,0,5,,,,
543310,note_off,10,0,3,,,,,,,,,3,,,63,0
543320,note_off,200,0,1,,,,,,,,,1,,,81,0
543360,note_on,60,0,5,,,,,,,,,5,,,50,61
543360,note_on,40,0,1,,,,,,,,,1,,,82,61
543360,note_on,60,0,4,,,,,,,,,4,,,58,61
543520,note_on,21330,0,2,,,,,,,,,2,,,77,60
543552,note_off,192,0,1,,,,,,,,,1,,,82,0
543645,note_off,125,0,2,,,,,,,,,2,,,77,0
543680,note_on,35,0,2,,,,,,,,,2,,,74,59
543745,note_off,385,0,5,,,,,,,,,5,,,50,0
543805,note_off,125,0,2,,,,,,,,,2,,,74,0
543840,note_on,95,0,5,,,,,,,,,5,,,51,58
543840,note_on,288,0,1,,,,,,,,,1,,,79,58
544000,note_on,195,0,2,,,,,,,,,2,,,75,57
544032,note_off,192,0,1,,,,,,,,,1,,,79,0
544125,note_off,125,0,2,,,,,,,,,2,,,75,0
544160,note_on,35,0,2,,,,,,,,,2,,,72,56
544205,note_off,845,0,4,,,,,,,,,4,,,58,0
544225,note_off,385,0,5,,,,,,,,,5,,,51,0
544285,note_off,125,0,2,,,,,,,,,2,,,72,0
544320,note_on,115,0,4,,,,,,,,,4,,,62,55
544320,note_on,95,0,5,,,,,,,,,5,,,53,55
544320,note_on,288,0,1,,,,,,,,,1,,,77,55
544480,note_on,195,0,2,,,,,,,,,2,,,74,54
544512,note_off,192,0,1,,,,,,,,,1,,,77,0
544605,note_off,125,0,2,,,,,,,,,2,,,74,0
544640,note_on,35,0,2,,,,,,,,,2,,,70,54
544705,note_off,385,0,4,,,,,,,,,4,,,62,0
544765,note_off,125,0,2,,,,,,,,,2,,,70,0
544800,note_on,95,0,4,,,,,,,,,4,,,63,53
544800,note_on,288,0,1,,,,,,,,,1,,,75,53
544960,note_on,195,0,2,,,,,,,,,2,,,72,52
544992,note_off,192,0,1,,,,,,,,,1,,,75,0
545085,note_off,125,0,2,,,,,,,,,2,,,72,0
545120,note_on,35,0,2,,,,,,,,,2,,,69,51
545160,note_off,840,0,5,,,,,,,,,5,,,53,0
545185,note_off,385,0,4,,,,,,,,,4,,,63,0
545240,set_tempo,1940,1,0,,,,,,359281,,,,,,,
545245,note_off,125,0,2,,,,,,,,,2,,,69,0
545280,note_on,288,0,1,,,,,,,,,1,,,70,50
545280,note_on,120,0,5,,,,,,,,,5,,,58,50
545280,note_on,95,0,4,,,,,,,,,4,,,62,50
545640,note_off,360,0,4,,,,,,,,,4,,,62,0
545640,note_off,360,0,5,,,,,,,,,5,,,58,0
545665,note_off,385,0,1,,,,,,,,,1,,,70,0
545760,note_on,120,0,5,,,,,,,,,5,,,46,41
545940,set_tempo,700,1,0,,,,,,344827,,,,,,,
546000,set_tempo,60,1,0,,,,,,359281,,,,,,,
546000,note_on,335,0,1,,,,,,,,,1,,,65,38
546125,note_off,365,0,5,,,,,,,,,5,,,46,0
546155,note_off,155,0,1,,,,,,,,,1,,,65,0
546240,note_on,85,0,1,,,,,,,,,1,,,70,39
546365,note_off,125,0,1,,,,,,,,,1,,,70,0
546480,note_on,115,0,1,,,,,,,,,1,,,69,40
546605,note_off,125,0,1,,,,,,,,,1,,,69,0
546720,note_on,115,0,1,,,,,,,,,1,,,70,41
546845,note_off,125,0,1,,,,,,,,,1,,,70,0
546960,note_on,115,0,1,,,,,,,,,1,,,72,43
547100,note_off,140,0,1,,,,,,,,,1,,,72,0
547200,note_on,100,0,1,,,,,,,,,1,,,74,44
547520,note_off,320,0,1,,,,,,,,,1,,,74,0
547680,note_on,2435,0,2,,,,,,,,,2,,,70,47
547680,note_on,1555,0,5,,,,,,,,,5,,,58,47
547680,note_on,160,0,1,,,,,,,,,1,,,74,47
547990,note_off,310,0,2,,,,,,,,,2,,,70,0
547990,note_off,310,0,1,,,,,,,,,1,,,74,0
548160,note_on,170,0,1,,,,,,,,,1,,,74,49
548160,note_on,170,0,2,,,,,,,,,2,,,70,49
548160,note_on,0,0,5,,,,,,,,,5,,,55,49
548160,note_off,480,0,5,,,,,,,,,5,,,58,0
548640,note_off,480,0,1,,,,,,,,,1,,,74,0
548640,note_on,0,0,1,,,,,,,,,1,,,75,46
548640,note_off,480,0,5,,,,,,,,,5,,,55,0
548640,note_off,480,0,2,,,,,,,,,2,,,70,0
548640,note_on,0,0,5,,,,,,,,,5,,,51,46
548640,note_on,0,0,2,,,,,,,,,2,,,72,46
548830,note_off,190,0,1,,,,,,,,,1,,,75,0
548830,note_off,190,0,2,,,,,,,,,2,,,72,0
549025,note_off,385,0,5,,,,,,,,,5,,,51,0
549060,set_tempo,3060,1,0,,,,,,363636,,,,,,,
549120,note_on,290,0,2,,,,,,,,,2,,,69,42
549120,note_on,95,0,5,,,,,,,,,5,,,53,42
549120,note_on,290,0,1,,,,,,,,,1,,,72,42
549480,note_off,360,0,5,,,,,,,,,5,,,53,0
549505,note_off,385,0,1,,,,,,,,,1,,,72,0
549505,note_off,385,0,2,,,,,,,,,2,,,69,0
549600,note_on,120,0,5,,,,,,,,,5,,,41,38
549780,set_tempo,720,1,0,,,,,,344827,,,,,,,
549840,note_on,335,0,1,,,,,,,,,1,,,65,42
549840,set_tempo,60,1,0,,,,,,359281,,,,,,,
549965,note_off,365,0,5,,,,,,,,,5,,,41,0
549995,note_off,155,0,1,,,,,,,,,1,,,65,0
550080,note_on,85,0,1,,,,,,,,,1,,,72,43
550235,note_off,155,0,1,,,,,,,,,1,,,72,0
550320,note_on,85,0,1,,,,,,,,,1,,,70,45
550475,note_off,155,0,1,,,,,,,,,1,,,70,0
550560,note_on,85,0,1,,,,,,,,,1,,,72,46
550715,note_off,155,0,1,,,,,,,,,1,,,72,0
550800,note_on,85,0,1,,,,,,,,,1,,,74,47
550955,note_off,155,0,1,,,,,,,,,1,,,74,0
551040,note_on,85,0,1,,,,,,,,,1,,,75,49
551375,note_off,335,0,1,,,,,,,,,1,,,75,0
551520,note_on,1555,0,5,,,,,,,,,5,,,60,52
551520,note_on,2015,0,2,,,,,,,,,2,,,67,52
551520,note_on,145,0,1,,,,,,,,,1,,,75,52
551830,note_off,310,0,1,,,,,,,,,1,,,75,0
551830,note_off,310,0,2,,,,,,,,,2,,,67,0
552000,note_off,480,0,5,,,,,,,,,5,,,60,0
552000,note_on,0,0,5,,,,,,,,,5,,,57,57
552000,note_on,170,0,2,,,,,,,,,2,,,72,57
552000,note_on,170,0,1,,,,,,,,,1,,,75,57
552480,note_on,0,0,2,,,,,,,,,2,,,69,54
552480,note_off,480,0,5,,,,,,,,,5,,,57,0
552480,note_on,0,0,1,,,,,,,,,1,,,77,54
552480,note_off,480,0,1,,,,,,,,,1,,,75,0
552480,note_off,480,0,2,,,,,,,,,2,,,72,0
552480,note_on,0,0,5,,,,,,,,,5,,,53,54
552860,note_off,380,0,2,,,,,,,,,2,,,69,0
552860,note_off,380,0,1,,,,,,,,,1,,,77,0
552865,note_off,385,0,5,,,,,,,,,5,,,53,0
552900,set_tempo,3060,1,0,,,,,,363636,,,,,,,
552960,note_on,95,0,5,,,,,,,,,5,,,58,50
552960,note_on,100,0,1,,,,,,,,,1,,,74,50
552960,note_on,100,0,2,,,,,,,,,2,,,70,50
553320,note_off,360,0,5,,,,,,,,,5,,,58,0
553345,note_off,385,0,1,,,,,,,,,1,,,74,0
553345,note_off,385,0,2,,,,,,,,,2,,,70,0
553440,note_on,120,0,5,,,,,,,,,5,,,46,47
553620,set_tempo,720,1,0,,,,,,344827,,,,,,,
553680,set_tempo,60,1,0,,,,,,359281,,,,,,,
553680,note_on,335,0,1,,,,,,,,,1,,,70,47
553805,note_off,365,0,5,,,,,,,,,5,,,46,0
553835,note_off,155,0,1,,,,,,,,,1,,,70,0
553920,note_on,85,0,1,,,,,,,,,1,,,74,48
554075,note_off,155,0,1,,,,,,,,,1,,,74,0
554160,note_on,85,0,1,,,,,,,,,1,,,72,49
554315,note_off,155,0,1,,,,,,,,,1,,,72,0
554400,note_on,85,0,1,,,,,,,,,1,,,74,50
554555,note_off,155,0,1,,,,,,,,,1,,,74,0
554640,note_on,85,0,1,,,,,,,,,1,,,75,52
554795,note_off,155,0,1,,,,,,,,,1,,,75,0
554840,set_tempo,1160,1,0,,,,,,363636,,,,,,,
554880,set_tempo,40,1,0,,,,,,359281,,,,,,,
554880,note_on,85,0,1,,,,,,,,,1,,,77,53
555240,note_off,360,0,1,,,,,,,,,1,,,77,0
555360,note_on,1555,0,5,,,,,,,,,5,,,58,55
555360,note_on,120,0,1,,,,,,,,,1,,,77,55
555360,note_on,9720,0,4,,,,,,,,,4,,,62,55
555720,note_off,360,0,1,,,,,,,,,1,,,77,0
555745,note_off,385,0,4,,,,,,,,,4,,,62,0
555745,note_off,385,0,5,,,,,,,,,5,,,58,0
555840,note_on,120,0,1,,,,,,,,,1,,,77,58
555840,note_on,95,0,4,,,,,,,,,4,,,62,58
555840,note_on,95,0,5,,,,,,,,,5,,,58,58
556200,note_off,360,0,1,,,,,,,,,1,,,77,0
556225,note_off,385,0,4,,,,,,,,,4,,,62,0
556225,note_off,385,0,5,,,,,,,,,5,,,58,0
556320,note_on,95,0,4,,,,,,,,,4,,,62,60
556320,note_on,120,0,1,,,,,,,,,1,,,77,60
556320,note_on,95,0,5,,,,,,,,,5,,,58,60
556335,set_tempo,1455,1,0,,,,,,363636,,,,,,,
556680,note_off,360,0,1,,,,,,,,,1,,,77,0
556705,note_off,385,0,4,,,,,,,,,4,,,62,0
556705,note_off,385,0,5,,,,,,,,,5,,,58,0
556800,note_on,95,0,5,,,,,,,,,5,,,57,62
556800,set_tempo,465,1,0,,,,,,359281,,,,,,,
556800,note_on,120,0,1,,,,,,,,,1,,,78,62
556800,note_on,95,0,4,,,,,,,,,4,,,60,62
557040,note_on,3695,0,2,,,,,,,,,2,,,72,64
557280,note_on,0,0,2,,,,,,,,,2,,,74,65
557280,note_off,240,0,2,,,,,,,,,2,,,72,0
557520,note_on,0,0,2,,,,,,,,,2,,,75,66
557520,note_off,240,0,2,,,,,,,,,2,,,74,0
557570,note_off,770,0,5,,,,,,,,,5,,,57,0
557570,note_off,770,0,4,,,,,,,,,4,,,60,0
557710,note_off,190,0,2,,,,,,,,,2,,,75,0
557760,note_on,190,0,5,,,,,,,,,5,,,50,67
557760,note_on,50,0,2,,,,,,,,,2,,,75,67
557760,note_on,190,0,4,,,,,,,,,4,,,57,67
558000,note_on,0,0,2,,,,,,,,,2,,,74,69
558000,note_off,240,0,2,,,,,,,,,2,,,75,0
558190,note_off,190,0,2,,,,,,,,,2,,,74,0
558240,note_on,50,0,2,,,,,,,,,2,,,74,70
558480,note_off,240,0,2,,,,,,,,,2,,,74,0
558480,note_on,0,0,2,,,,,,,,,2,,,72,71
558530,note_off,770,0,4,,,,,,,,,4,,,57,0
558530,note_off,770,0,5,,,,,,,,,5,,,50,0
558670,note_off,190,0,2,,,,,,,,,2,,,72,0
558680,set_tempo,1880,1,0,,,,,,363636,,,,,,,
558720,note_on,190,0,5,,,,,,,,,5,,,51,71
558720,set_tempo,40,1,0,,,,,,359281,,,,,,,
558720,note_on,0,0,1,,,,,,,,,1,,,79,71
558720,note_off,1920,0,1,,,,,,,,,1,,,78,0
558720,note_on,50,0,2,,,,,,,,,2,,,70,71
558960,note_on,430,0,4,,,,,,,,,4,,,55,69
559200,note_off,240,0,4,,,,,,,,,4,,,55,0
559200,note_on,0,0,4,,,,,,,,,4,,,57,67
559440,note_off,240,0,4,,,,,,,,,4,,,57,0
559440,note_on,0,0,4,,,,,,,,,4,,,58,65
559620,set_tempo,900,1,0,,,,,,363636,,,,,,,
559630,note_off,190,0,4,,,,,,,,,4,,,58,0
559680,note_on,50,0,4,,,,,,,,,4,,,58,63
559680,note_off,960,0,2,,,,,,,,,2,,,70,0
559680,note_on,0,0,1,,,,,,,,,1,,,73,63
559680,note_off,960,0,1,,,,,,,,,1,,,79,0
559920,note_on,0,0,4,,,,,,,,,4,,,57,61
559920,note_off,240,0,4,,,,,,,,,4,,,58,0
560110,note_off,190,0,4,,,,,,,,,4,,,57,0
560160,note_on,50,0,4,,,,,,,,,4,,,57,58
560400,note_off,240,0,4,,,,,,,,,4,,,57,0
560400,note_on,0,0,4,,,,,,,,,4,,,55,55
560590,note_off,190,0,4,,,,,,,,,4,,,55,0
560600,note_off,1880,0,5,,,,,,,,,5,,,51,0
560600,set_tempo,980,1,0,,,,,,368098,,,,,,,
560600,note_off,920,0,1,,,,,,,,,1,,,73,0
560640,note_on,40,0,1,,,,,,,,,1,,,74,52
560640,note_on,40,0,5,,,,,,,,,5,,,50,52
560640,note_on,50,0,4,,,,,,,,,4,,,54,52
561005,note_off,365,0,1,,,,,,,,,1,,,74,0
561025,note_off,385,0,5,,,,,,,,,5,,,50,0
561025,note_off,385,0,4,,,,,,,,,4,,,54,0
561120,set_tempo,520,1,0,,,,,,500000,,,,,,,
561480,set_tempo,360,1,0,,,,,,363636,,,,,,,
561480,note_on,475,0,1,,,,,,,,,1,,,62,63
561600,note_on,120,0,1,,,,,,,,,1,,,74,63
561605,note_off,5,0,1,,,,,,,,,1,,,62,0
561985,note_off,380,0,1,,,,,,,,,1,,,74,0
562080,note_on,95,0,1,,,,,,,,,1,,,74,60
562465,note_off,385,0,1,,,,,,,,,1,,,74,0
562520,set_tempo,1040,1,0,,,,,,368098,,,,,,,
562560,note_on,95,0,1,,,,,,,,,1,,,82,61
562560,control_change,1535,0,4,,,,,,,64,127,4,,,,
562560,set_tempo,40,1,0,,,,,,355029,,,,,,,
562560,note_on,0,0,5,,,,,,,,,5,,,55,61
562560,control_change,1535,0,5,,,,,,,64,127,5,,,,
562560,control_change,19250,0,3,,,,,,,64,127,3,,,,
562800,note_off,240,0,5,,,,,,,,,5,,,55,0
562800,note_on,240,0,3,,,,,,,,,3,,,58,62
563040,note_on,0,0,3,,,,,,,,,3,,,62,62
563040,note_off,240,0,3,,,,,,,,,3,,,58,0
563280,note_on,0,0,1,,,,,,,,,1,,,81,63
563280,note_off,720,0,1,,,,,,,,,1,,,82,0
563280,note_on,0,0,3,,,,,,,,,3,,,58,63
563280,note_off,240,0,3,,,,,,,,,3,,,62,0
563360,note_on,0,0,1,,,,,,,,,1,,,79,63
563360,note_off,80,0,1,,,,,,,,,1,,,81,0
563440,note_off,80,0,1,,,,,,,,,1,,,79,0
563440,note_on,0,0,1,,,,,,,,,1,,,78,63
563460,control_change,900,0,4,,,,,,,64,0,4,,,,
563460,control_change,660,0,5,,,,,,,64,0,5,,,,
563460,control_change,180,0,3,,,,,,,64,0,3,,,,
563520,control_change,60,0,3,,,,,,,64,127,3,,,,
563520,note_off,0,0,3,,,,,,,,,3,,,58,0
563520,control_change,60,0,4,,,,,,,64,127,4,,,,
563520,control_change,60,0,5,,,,,,,64,127,5,,,,
563520,note_off,80,0,1,,,,,,,,,1,,,78,0
563520,note_on,0,0,1,,,,,,,,,1,,,79,63
563520,note_on,0,0,5,,,,,,,,,5,,,55,63
563760,note_off,240,0,5,,,,,,,,,5,,,55,0
563760,note_on,240,0,3,,,,,,,,,3,,,58,64
563905,note_off,385,0,1,,,,,,,,,1,,,79,0
564000,note_on,0,0,3,,,,,,,,,3,,,62,64
564000,note_off,240,0,3,,,,,,,,,3,,,58,0
564000,note_on,95,0,1,,,,,,,,,1,,,74,64
564240,note_on,0,0,3,,,,,,,,,3,,,58,65
564240,note_off,240,0,3,,,,,,,,,3,,,62,0
564420,control_change,900,0,4,,,,,,,64,0,4,,,,
564420,control_change,660,0,5,,,,,,,64,0,5,,,,
564420,control_change,180,0,3,,,,,,,64,0,3,,,,
564430,note_off,10,0,3,,,,,,,,,3,,,58,0
564480,note_on,0,0,1,,,,,,,,,1,,,75,65
564480,note_off,480,0,1,,,,,,,,,1,,,74,0
564480,set_tempo,1920,1,0,,,,,,359281,,,,,,,
564480,note_on,0,0,5,,,,,,,,,5,,,55,65
564480,control_change,50,0,3,,,,,,,64,127,3,,,,
564480,control_change,60,0,4,,,,,,,64,127,4,,,,
564480,control_change,60,0,5,,,,,,,64,127,5,,,,
564720,note_off,240,0,5,,,,,,,,,5,,,55,0
564720,note_on,240,0,3,,,,,,,,,3,,,60,66
564865,note_off,385,0,1,,,,,,,,,1,,,75,0
564960,note_off,240,0,3,,,,,,,,,3,,,60,0
564960,note_on,0,0,3,,,,,,,,,3,,,63,66
565200,note_off,240,0,3,,,,,,,,,3,,,63,0
565200,note_on,0,0,3,,,,,,,,,3,,,60,67
565320,set_tempo,840,1,0,,,,,,363636,,,,,,,
565320,note_on,120,0,3,,,,,,,,,3,,,67,67
565380,control_change,60,0,3,,,,,,,64,0,3,,,,
565380,control_change,660,0,5,,,,,,,64,0,5,,,,
565380,control_change,900,0,4,,,,,,,64,0,4,,,,
565440,note_on,575,0,1,,,,,,,,,1,,,79,68
565440,control_change,60,0,4,,,,,,,64,127,4,,,,
565440,note_off,0,0,3,,,,,,,,,3,,,60,0
565440,control_change,60,0,3,,,,,,,64,127,3,,,,
565440,note_on,0,0,5,,,,,,,,,5,,,55,68
565440,control_change,60,0,5,,,,,,,64,127,5,,,,
565455,note_off,15,0,3,,,,,,,,,3,,,67,0
565680,note_on,225,0,3,,,,,,,,,3,,,60,68
565680,note_off,240,0,5,,,,,,,,,5,,,55,0
565825,note_off,385,0,1,,,,,,,,,1,,,79,0
565920,note_on,0,0,3,,,,,,,,,3,,,63,69
565920,note_on,95,0,1,,,,,,,,,1,,,79,69
565920,note_off,240,0,3,,,,,,,,,3,,,60,0
566160,note_on,0,0,3,,,,,,,,,3,,,60,69
566160,note_off,240,0,3,,,,,,,,,3,,,63,0
566305,note_off,385,0,1,,,,,,,,,1,,,79,0
566340,control_change,660,0,5,,,,,,,64,0,5,,,,
566340,control_change,180,0,3,,,,,,,64,0,3,,,,
566340,control_change,900,0,4,,,,,,,64,0,4,,,,
566350,note_off,10,0,3,,,,,,,,,3,,,60,0
566360,set_tempo,1040,1,0,,,,,,368098,,,,,,,
566400,note_on,0,0,5,,,,,,,,,5,,,55,70
566400,control_change,60,0,5,,,,,,,64,127,5,,,,
566400,set_tempo,40,1,0,,,,,,355029,,,,,,,
566400,control_change,60,0,4,,,,,,,64,127,4,,,,
566400,control_change,50,0,3,,,,,,,64,127,3,,,,
566400,note_on,95,0,1,,,,,,,,,1,,,87,70
566640,note_on,240,0,3,,,,,,,,,3,,,60,70
566640,note_off,240,0,5,,,,,,,,,5,,,55,0
566880,note_off,240,0,3,,,,,,,,,3,,,60,0
566880,note_on,0,0,3,,,,,,,,,3,,,63,71
567120,note_off,720,0,1,,,,,,,,,1,,,87,0
567120,note_on,0,0,1,,,,,,,,,1,,,86,71
567120,note_on,0,0,3,,,,,,,,,3,,,60,71
567120,note_off,240,0,3,,,,,,,,,3,,,63,0
567200,note_on,0,0,1,,,,,,,,,1,,,84,72
567200,note_off,80,0,1,,,,,,,,,1,,,86,0
567280,note_on,0,0,1,,,,,,,,,1,,,83,72
567280,note_off,80,0,1,,,,,,,,,1,,,84,0
567300,control_change,180,0,3,,,,,,,64,0,3,,,,
567300,control_change,660,0,5,,,,,,,64,0,5,,,,
567300,control_change,900,0,4,,,,,,,64,0,4,,,,
567360,note_on,0,0,5,,,,,,,,,5,,,55,72
567360,control_change,60,0,5,,,,,,,64,127,5,,,,
567360,control_change,60,0,3,,,,,,,64,127,3,,,,
567360,note_off,0,0,3,,,,,,,,,3,,,60,0
567360,note_on,0,0,1,,,,,,,,,1,,,84,72
567360,control_change,60,0,4,,,,,,,64,127,4,,,,
567360,note_off,80,0,1,,,,,,,,,1,,,83,0
567600,note_on,240,0,3,,,,,,,,,3,,,60,72
567600,note_off,240,0,5,,,,,,,,,5,,,55,0
567745,note_off,385,0,1,,,,,,,,,1,,,84,0
567840,note_on,95,0,1,,,,,,,,,1,,,75,73
567840,note_off,240,0,3,,,,,,,,,3,,,60,0
567840,note_on,0,0,3,,,,,,,,,3,,,63,73
568080,note_off,240,0,3,,,,,,,,,3,,,63,0
568080,note_on,0,0,3,,,,,,,,,3,,,60,74
568260,control_change,180,0,3,,,,,,,64,0,3,,,,
568260,control_change,900,0,4,,,,,,,64,0,4,,,,
568260,control_change,660,0,5,,,,,,,64,0,5,,,,
568270,note_off,10,0,3,,,,,,,,,3,,,60,0
568320,note_on,0,0,5,,,,,,,,,5,,,55,74
568320,control_change,60,0,5,,,,,,,64,127,5,,,,
568320,set_tempo,1920,1,0,,,,,,359281,,,,,,,
568320,control_change,50,0,3,,,,,,,64,127,3,,,,
568320,note_off,480,0,1,,,,,,,,,1,,,75,0
568320,note_on,0,0,1,,,,,,,,,1,,,74,74
568320,control_change,60,0,4,,,,,,,64,127,4,,,,
568560,note_on,240,0,3,,,,,,,,,3,,,58,75
568560,note_off,240,0,5,,,,,,,,,5,,,55,0
568745,note_off,425,0,1,,,,,,,,,1,,,74,0
568800,note_on,0,0,3,,,,,,,,,3,,,62,75
568800,note_off,240,0,3,,,,,,,,,3,,,58,0
568990,note_off,190,0,3,,,,,,,,,3,,,62,0
569040,control_change,50,0,3,,,,,,,64,0,3,,,,
569040,set_tempo,720,1,0,,,,,,355029,,,,,,,
569040,control_change,480,0,5,,,,,,,64,0,5,,,,
569040,control_change,720,0,4,,,,,,,64,0,4,,,,
569040,note_on,295,0,1,,,,,,,,,1,,,73,76
569280,note_off,240,0,1,,,,,,,,,1,,,73,0
569280,note_on,0,0,1,,,,,,,,,1,,,74,76
569400,note_off,120,0,1,,,,,,,,,1,,,74,0
569520,note_on,120,0,1,,,,,,,,,1,,,82,77
569640,note_off,120,0,1,,,,,,,,,1,,,82,0
569760,note_on,120,0,1,,,,,,,,,1,,,81,77
569880,note_off,120,0,1,,,,,,,,,1,,,81,0
570000,note_on,120,0,1,,,,,,,,,1,,,79,78
570120,note_off,120,0,1,,,,,,,,,1,,,79,0
570180,control_change,1140,0,4,,,,,,,64,0,4,,,,
570180,set_tempo,1140,1,0,,,,,,359281,,,,,,,
570180,control_change,1140,0,5,,,,,,,64,0,5,,,,
570180,control_change,1140,0,3,,,,,,,64,0,3,,,,
570240,note_on,120,0,1,,,,,,,,,1,,,78,78
570240,note_on,60,0,4,,,,,,,,,4,,,60,78
570240,note_on,0,0,4,,,,,,,,,4,,,63,78
570240,note_on,60,0,5,,,,,,,,,5,,,57,78
570600,note_on,360,0,1,,,,,,,,,1,,,79,79
570615,note_off,15,0,1,,,,,,,,,1,,,78,0
570660,note_off,45,0,1,,,,,,,,,1,,,79,0
570660,note_on,0,0,1,,,,,,,,,1,,,81,79
570720,note_on,0,0,4,,,,,,,,,4,,,62,80
570720,note_off,480,0,4,,,,,,,,,4,,,63,0
570720,note_off,0,0,4,,,,,,,,,4,,,60,0
570720,note_on,0,0,5,,,,,,,,,5,,,58,80
570720,note_off,480,0,5,,,,,,,,,5,,,57,0
570720,note_off,60,0,1,,,,,,,,,1,,,81,0
570720,note_on,0,0,1,,,,,,,,,1,,,79,80
570840,note_off,120,0,1,,,,,,,,,1,,,79,0
570960,set_tempo,780,1,0,,,,,,355029,,,,,,,
570960,note_off,240,0,5,,,,,,,,,5,,,58,0
570960,note_on,120,0,1,,,,,,,,,1,,,79,80
570960,note_off,240,0,4,,,,,,,,,4,,,62,0
571080,note_off,120,0,1,,,,,,,,,1,,,79,0
571200,note_on,120,0,1,,,,,,,,,1,,,85,81
571440,note_off,240,0,1,,,,,,,,,1,,,85,0
571440,note_on,0,0,1,,,,,,,,,1,,,86,81
571560,note_off,120,0,1,,,,,,,,,1,,,86,0
571680,note_on,120,0,1,,,,,,,,,1,,,82,82
571800,note_off,120,0,1,,,,,,,,,1,,,82,0
571920,note_on,120,0,1,,,,,,,,,1,,,79,82
572040,note_off,120,0,1,,,,,,,,,1,,,79,0
572100,set_tempo,1140,1,0,,,,,,359281,,,,,,,
572160,note_on,1200,0,4,,,,,,,,,4,,,60,83
572160,note_on,0,0,4,,,,,,,,,4,,,63,83
572160,note_on,1200,0,5,,,,,,,,,5,,,57,83
572160,note_on,120,0,1,,,,,,,,,1,,,78,83
572520,note_off,360,0,1,,,,,,,,,1,,,78,0
572520,note_on,0,0,1,,,,,,,,,1,,,79,84
572580,note_off,60,0,1,,,,,,,,,1,,,79,0
572580,note_on,0,0,1,,,,,,,,,1,,,81,84
572640,note_off,480,0,5,,,,,,,,,5,,,57,0
572640,note_on,0,0,4,,,,,,,,,4,,,62,84
572640,note_off,0,0,4,,,,,,,,,4,,,60,0
572640,note_off,480,0,4,,,,,,,,,4,,,63,0
572640,note_on,0,0,5,,,,,,,,,5,,,58,84
572640,note_off,60,0,1,,,,,,,,,1,,,81,0
572640,note_on,0,0,1,,,,,,,,,1,,,79,84
572820,note_off,180,0,1,,,,,,,,,1,,,79,0
572880,set_tempo,780,1,0,,,,,,355029,,,,,,,
572880,note_off,240,0,4,,,,,,,,,4,,,62,0
572880,note_off,240,0,5,,,,,,,,,5,,,58,0
572880,note_on,60,0,1,,,,,,,,,1,,,74,84
573120,note_on,0,0,1,,,,,,,,,1,,,79,85
573120,note_off,240,0,1,,,,,,,,,1,,,74,0
573240,note_off,120,0,1,,,,,,,,,1,,,79,0
573360,note_on,120,0,1,,,,,,,,,1,,,79,86
573480,note_off,120,0,1,,,,,,,,,1,,,79,0
573600,note_on,120,0,1,,,,,,,,,1,,,79,86
573720,note_off,120,0,1,,,,,,,,,1,,,79,0
573840,note_on,120,0,1,,,,,,,,,1,,,79,87
573960,note_off,120,0,1,,,,,,,,,1,,,79,0
574040,set_tempo,1160,1,0,,,,,,359281,,,,,,,
574080,set_tempo,40,1,0,,,,,,355029,,,,,,,
574080,note_on,1200,0,4,,,,,,,,,4,,,58,91
574080,note_on,1200,0,5,,,,,,,,,5,,,51,91
574080,note_on,120,0,1,,,,,,,,,1,,,79,91
574440,note_off,360,0,1,,,,,,,,,1,,,79,0
574440,note_on,0,0,1,,,,,,,,,1,,,81,88
574500,note_on,0,0,1,,,,,,,,,1,,,82,87
574500,note_off,60,0,1,,,,,,,,,1,,,81,0
574560,note_on,0,0,1,,,,,,,,,1,,,81,87
574560,note_off,60,0,1,,,,,,,,,1,,,82,0
574800,note_on,0,0,1,,,,,,,,,1,,,79,85
574800,note_off,240,0,1,,,,,,,,,1,,,81,0
574920,set_tempo,840,1,0,,,,,,359281,,,,,,,
574925,note_off,845,0,4,,,,,,,,,4,,,58,0
575040,note_on,115,0,4,,,,,,,,,4,,,55,83
575040,note_on,0,0,1,,,,,,,,,1,,,77,83
575040,note_off,240,0,1,,,,,,,,,1,,,79,0
575280,note_off,240,0,1,,,,,,,,,1,,,77,0
575280,note_on,0,0,1,,,,,,,,,1,,,75,82
575520,note_off,240,0,1,,,,,,,,,1,,,75,0
575520,note_on,0,0,1,,,,,,,,,1,,,74,80
575760,note_off,240,0,1,,,,,,,,,1,,,74,0
575760,note_on,0,0,1,,,,,,,,,1,,,73,78
575880,note_off,1800,0,5,,,,,,,,,5,,,51,0
575885,note_off,845,0,4,,,,,,,,,4,,,55,0
575950,note_off,190,0,1,,,,,,,,,1,,,73,0
576000,note_on,115,0,4,,,,,,,,,4,,,54,79
576000,note_on,120,0,5,,,,,,,,,5,,,50,79
576000,note_on,50,0,1,,,,,,,,,1,,,73,79
576240,note_off,240,0,1,,,,,,,,,1,,,73,0
576240,note_on,0,0,1,,,,,,,,,1,,,74,76
576385,note_off,385,0,5,,,,,,,,,5,,,50,0
576385,note_off,385,0,4,,,,,,,,,4,,,54,0
576430,note_off,190,0,1,,,,,,,,,1,,,74,0
576480,note_on,95,0,4,,,,,,,,,4,,,57,72
576480,note_on,95,0,5,,,,,,,,,5,,,50,72
576480,note_on,0,0,4,,,,,,,,,4,,,54,72
576480,note_on,50,0,1,,,,,,,,,1,,,74,72
576840,note_off,360,0,1,,,,,,,,,1,,,74,0
576865,note_off,0,0,4,,,,,,,,,4,,,57,0
576865,note_off,385,0,4,,,,,,,,,4,,,54,0
576865,note_off,385,0,5,,,,,,,,,5,,,50,0
576960,note_on,0,0,4,,,,,,,,,4,,,57,66
576960,note_on,95,0,4,,,,,,,,,4,,,54,66
576960,note_on,95,0,5,,,,,,,,,5,,,50,66
576960,note_on,120,0,1,,,,,,,,,1,,,74,66
577320,note_off,360,0,1,,,,,,,,,1,,,74,0
577345,note_off,0,0,4,,,,,,,,,4,,,54,0
577345,note_off,385,0,4,,,,,,,,,4,,,57,0
577345,note_off,385,0,5,,,,,,,,,5,,,50,0
577380,set_tempo,2460,1,0,,,,,,363636,,,,,,,
577440,note_on,95,0,5,,,,,,,,,5,,,50,59
577440,set_tempo,60,1,0,,,,,,363636,,,,,,,
577440,note_on,0,0,4,,,,,,,,,4,,,57,59
577440,note_on,95,0,4,,,,,,,,,4,,,54,59
577440,note_on,120,0,1,,,,,,,,,1,,,74,59
577800,note_off,360,0,1,,,,,,,,,1,,,74,0
577825,note_off,385,0,4,,,,,,,,,4,,,57,0
577825,note_off,385,0,5,,,,,,,,,5,,,50,0
577825,note_off,0,0,4,,,,,,,,,4,,,54,0
577920,set_tempo,480,1,0,,,,,,363636,,,,,,,
577920,note_on,120,0,1,,,,,,,,,1,,,73,61
577980,note_on,0,0,1,,,,,,,,,1,,,74,60
577980,note_off,60,0,1,,,,,,,,,1,,,73,0
578040,note_on,0,0,1,,,,,,,,,1,,,76,59
578040,note_off,60,0,1,,,,,,,,,1,,,74,0
578100,note_on,0,0,1,,,,,,,,,1,,,74,59
578100,note_off,60,0,1,,,,,,,,,1,,,76,0
578100,set_tempo,180,1,0,,,,,,495867,,,,,,,
578160,set_tempo,60,1,0,,,,,,359281,,,,,,,
578400,note_on,575,0,4,,,,,,,,,4,,,53,54
578400,note_on,0,0,4,,,,,,,,,4,,,57,54
578400,note_on,575,0,5,,,,,,,,,5,,,50,54
578785,note_off,385,0,5,,,,,,,,,5,,,50,0
578785,note_off,0,0,4,,,,,,,,,4,,,53,0
578785,note_off,385,0,4,,,,,,,,,4,,,57,0
578880,note_on,95,0,5,,,,,,,,,5,,,50,48
578880,note_on,95,0,4,,,,,,,,,4,,,53,48
578880,note_on,0,0,4,,,,,,,,,4,,,57,48
579265,note_off,385,0,4,,,,,,,,,4,,,57,0
579265,note_off,385,0,5,,,,,,,,,5,,,50,0
579265,note_off,0,0,4,,,,,,,,,4,,,53,0
579360,note_on,95,0,5,,,,,,,,,5,,,50,42
579360,note_on,95,0,4,,,,,,,,,4,,,53,42
579360,note_on,0,0,4,,,,,,,,,4,,,57,42
579720,note_off,1620,0,1,,,,,,,,,1,,,74,0
579745,note_off,385,0,4,,,,,,,,,4,,,57,0
579745,note_off,385,0,5,,,,,,,,,5,,,50,0
579745,note_off,0,0,4,,,,,,,,,4,,,53,0
579800,set_tempo,1640,1,0,,,,,,368098,,,,,,,
579840,note_on,120,0,1,,,,,,,,,1,,,77,46
579840,set_tempo,40,1,0,,,,,,363636,,,,,,,
580320,note_on,575,0,5,,,,,,,,,5,,,50,40
580320,note_on,575,0,4,,,,,,,,,4,,,53,40
580320,note_on,0,0,4,,,,,,,,,4,,,58,40
580705,note_off,0,0,4,,,,,,,,,4,,,53,0
580705,note_off,385,0,4,,,,,,,,,4,,,58,0
580705,note_off,385,0,5,,,,,,,,,5,,,50,0
580800,note_on,0,0,4,,,,,,,,,4,,,58,35
580800,note_on,95,0,4,,,,,,,,,4,,,53,35
580800,note_on,95,0,5,,,,,,,,,5,,,50,35
581185,note_off,385,0,5,,,,,,,,,5,,,50,0
581185,note_off,385,0,4,,,,,,,,,4,,,58,0
581185,note_off,0,0,4,,,,,,,,,4,,,53,0
581280,note_on,95,0,5,,,,,,,,,5,,,50,29
581280,note_on,95,0,4,,,,,,,,,4,,,53,29
581280,note_on,0,0,4,,,,,,,,,4,,,58,29
581645,note_off,1805,0,1,,,,,,,,,1,,,77,0
581665,note_off,385,0,5,,,,,,,,,5,,,50,0
581665,note_off,385,0,4,,,,,,,,,4,,,58,0
581665,note_off,0,0,4,,,,,,,,,4,,,53,0
581720,set_tempo,1880,1,0,,,,,,413793,,,,,,,
581760,note_on,115,0,1,,,,,,,,,1,,,62,75
581760,set_tempo,40,1,0,,,,,,368098,,,,,,,
581760,note_on,22080,0,2,,,,,,,,,2,,,56,75
582240,note_on,575,0,4,,,,,,,,,4,,,53,61
582240,note_on,575,0,5,,,,,,,,,5,,,46,61
582625,note_off,385,0,4,,,,,,,,,4,,,53,0
582625,note_off,385,0,5,,,,,,,,,5,,,46,0
582720,note_on,95,0,4,,,,,,,,,4,,,53,52
582720,note_on,95,0,5,,,,,,,,,5,,,46,52
583105,note_off,385,0,4,,,,,,,,,4,,,53,0
583105,note_off,385,0,5,,,,,,,,,5,,,46,0
583200,note_on,95,0,5,,,,,,,,,5,,,46,42
583200,note_on,95,0,4,,,,,,,,,4,,,53,42
583440,set_tempo,1680,1,0,,,,,,447761,,,,,,,
583560,note_off,1800,0,1,,,,,,,,,1,,,62,0
583565,note_off,1805,0,2,,,,,,,,,2,,,56,0
583585,note_off,385,0,4,,,,,,,,,4,,,53,0
583585,note_off,385,0,5,,,,,,,,,5,,,46,0
583680,note_on,95,0,5,,,,,,,,,5,,,39,38
583680,note_on,120,0,1,,,,,,,,,1,,,63,38
583680,note_on,115,0,2,,,,,,,,,2,,,55,38
583680,note_on,95,0,4,,,,,,,,,4,,,51,38
583680,set_tempo,240,1,0,,,,,,359281,,,,,,,
583720,set_tempo,40,1,0,,,,,,355029,,,,,,,
584040,note_off,360,0,2,,,,,,,,,2,,,55,0
584065,note_off,385,0,5,,,,,,,,,5,,,39,0
584065,note_off,385,0,4,,,,,,,,,4,,,51,0
584160,note_on,95,0,5,,,,,,,,,5,,,51,40
584640,note_off,480,0,5,,,,,,,,,5,,,51,0
584640,note_on,0,0,5,,,,,,,,,5,,,55,41
585000,note_on,1320,0,1,,,,,,,,,1,,,58,43
585015,note_off,15,0,1,,,,,,,,,1,,,63,0
585095,note_off,80,0,1,,,,,,,,,1,,,58,0
585120,note_on,25,0,1,,,,,,,,,1,,,62,43
585120,note_on,0,0,5,,,,,,,,,5,,,56,43
585120,note_off,480,0,5,,,,,,,,,5,,,55,0
585480,note_off,360,0,1,,,,,,,,,1,,,62,0
585480,note_on,0,0,1,,,,,,,,,1,,,58,45
585575,note_off,95,0,1,,,,,,,,,1,,,58,0
585600,note_on,25,0,1,,,,,,,,,1,,,63,45
585600,note_off,480,0,5,,,,,,,,,5,,,56,0
585600,note_on,0,0,5,,,,,,,,,5,,,55,45
585960,note_off,360,0,1,,,,,,,,,1,,,63,0
585960,note_on,0,0,1,,,,,,,,,1,,,58,46
586055,note_off,95,0,1,,,,,,,,,1,,,58,0
586080,note_on,0,0,5,,,,,,,,,5,,,50,47
586080,note_on,25,0,1,,,,,,,,,1,,,65,47
586080,note_off,480,0,5,,,,,,,,,5,,,55,0
586440,note_on,0,0,1,,,,,,,,,1,,,58,48
586440,note_off,360,0,1,,,,,,,,,1,,,65,0
586535,note_off,95,0,1,,,,,,,,,1,,,58,0
586560,note_off,480,0,5,,,,,,,,,5,,,50,0
586560,note_on,0,0,5,,,,,,,,,5,,,51,49
586560,note_on,25,0,1,,,,,,,,,1,,,67,49
586920,note_on,0,0,1,,,,,,,,,1,,,58,50
586920,note_off,360,0,1,,,,,,,,,1,,,67,0
587015,note_off,95,0,1,,,,,,,,,1,,,58,0
587040,note_on,25,0,1,,,,,,,,,1,,,68,51
587040,note_off,480,0,5,,,,,,,,,5,,,51,0
587040,note_on,0,0,5,,,,,,,,,5,,,53,51
587400,note_on,0,0,1,,,,,,,,,1,,,58,52
587400,note_off,360,0,1,,,,,,,,,1,,,68,0
587425,note_off,385,0,5,,,,,,,,,5,,,53,0
587460,set_tempo,3740,1,0,,,,,,337078,,,,,,,
587495,note_off,95,0,1,,,,,,,,,1,,,58,0
587520,note_on,25,0,1,,,,,,,,,1,,,65,52
587520,set_tempo,60,1,0,,,,,,355029,,,,,,,
588000,note_on,575,0,5,,,,,,,,,5,,,46,43
588480,note_on,0,0,5,,,,,,,,,5,,,50,45
588480,note_off,480,0,5,,,,,,,,,5,,,46,0
588840,note_on,1320,0,1,,,,,,,,,1,,,58,47
588860,note_off,20,0,1,,,,,,,,,1,,,65,0
588935,note_off,75,0,1,,,,,,,,,1,,,58,0
588960,note_on,25,0,1,,,,,,,,,1,,,64,47
588960,note_off,480,0,5,,,,,,,,,5,,,50,0
588960,note_on,0,0,5,,,,,,,,,5,,,49,47
589320,note_off,360,0,1,,,,,,,,,1,,,64,0
589320,note_on,0,0,1,,,,,,,,,1,,,58,49
589415,note_off,95,0,1,,,,,,,,,1,,,58,0
589440,note_on,25,0,1,,,,,,,,,1,,,65,49
589440,note_on,0,0,5,,,,,,,,,5,,,50,49
589440,note_off,480,0,5,,,,,,,,,5,,,49,0
589800,note_off,360,0,1,,,,,,,,,1,,,65,0
589800,note_on,0,0,1,,,,,,,,,1,,,58,51
589895,note_off,95,0,1,,,,,,,,,1,,,58,0
589920,note_on,0,0,5,,,,,,,,,5,,,52,52
589920,note_off,480,0,5,,,,,,,,,5,,,50,0
589920,note_on,25,0,1,,,,,,,,,1,,,67,52
590280,note_off,360,0,1,,,,,,,,,1,,,67,0
590280,note_on,0,0,1,,,,,,,,,1,,,58,54
590375,note_off,95,0,1,,,,,,,,,1,,,58,0
590400,note_on,25,0,1,,,,,,,,,1,,,68,54
590400,note_off,480,0,5,,,,,,,,,5,,,52,0
590400,note_on,0,0,5,,,,,,,,,5,,,53,54
590760,note_off,360,0,1,,,,,,,,,1,,,68,0
590760,note_on,0,0,1,,,,,,,,,1,,,58,56
590855,note_off,95,0,1,,,,,,,,,1,,,58,0
590880,note_off,480,0,5,,,,,,,,,5,,,53,0
590880,note_on,25,0,1,,,,,,,,,1,,,70,56
590880,note_on,0,0,5,,,,,,,,,5,,,50,56
591240,note_on,0,0,1,,,,,,,,,1,,,58,58
591240,note_off,360,0,1,,,,,,,,,1,,,70,0
591265,note_off,385,0,5,,,,,,,,,5,,,50,0
591320,set_tempo,3800,1,0,,,,,,359281,,,,,,,
591335,note_off,95,0,1,,,,,,,,,1,,,58,0
591360,note_on,25,0,1,,,,,,,,,1,,,67,59
591360,set_tempo,40,1,0,,,,,,355029,,,,,,,
591360,note_on,95,0,5,,,,,,,,,5,,,51,59
591670,note_off,310,0,5,,,,,,,,,5,,,51,0
591720,note_off,360,0,1,,,,,,,,,1,,,67,0
591840,note_on,170,0,5,,,,,,,,,5,,,39,55
592080,note_on,360,0,1,,,,,,,,,1,,,70,61
592150,note_off,310,0,5,,,,,,,,,5,,,39,0
592265,note_off,185,0,1,,,,,,,,,1,,,70,0
592320,note_on,55,0,1,,,,,,,,,1,,,75,66
592680,note_on,0,0,1,,,,,,,,,1,,,77,63
592680,note_off,360,0,1,,,,,,,,,1,,,75,0
592800,note_on,650,0,5,,,,,,,,,5,,,55,63
592800,note_on,8735,0,4,,,,,,,,,4,,,63,63
592800,note_off,120,0,1,,,,,,,,,1,,,77,0
592800,note_on,0,0,1,,,,,,,,,1,,,79,63
593160,note_on,0,0,1,,,,,,,,,1,,,70,61
593160,note_off,360,0,1,,,,,,,,,1,,,79,0
593185,note_off,385,0,4,,,,,,,,,4,,,63,0
593185,note_off,385,0,5,,,,,,,,,5,,,55,0
593255,note_off,95,0,1,,,,,,,,,1,,,70,0
593280,note_on,25,0,1,,,,,,,,,1,,,72,61
593640,note_off,360,0,1,,,,,,,,,1,,,72,0
593640,note_on,0,0,1,,,,,,,,,1,,,74,59
593760,note_on,575,0,4,,,,,,,,,4,,,63,59
593760,note_on,575,0,5,,,,,,,,,5,,,56,59
593760,note_on,0,0,1,,,,,,,,,1,,,75,59
593760,note_off,120,0,1,,,,,,,,,1,,,74,0
594120,note_off,360,0,1,,,,,,,,,1,,,75,0
594120,note_on,0,0,1,,,,,,,,,1,,,67,58
594145,note_off,385,0,4,,,,,,,,,4,,,63,0
594145,note_off,385,0,5,,,,,,,,,5,,,56,0
594215,note_off,95,0,1,,,,,,,,,1,,,67,0
594240,note_on,25,0,1,,,,,,,,,1,,,68,57
594600,note_on,0,0,1,,,,,,,,,1,,,70,56
594600,note_off,360,0,1,,,,,,,,,1,,,68,0
594720,note_on,0,0,1,,,,,,,,,1,,,72,55
594720,note_off,120,0,1,,,,,,,,,1,,,70,0
594720,note_on,575,0,4,,,,,,,,,4,,,63,55
594720,note_on,575,0,5,,,,,,,,,5,,,60,55
595080,note_on,0,0,1,,,,,,,,,1,,,68,54
595080,note_off,360,0,1,,,,,,,,,1,,,72,0
595105,note_off,385,0,4,,,,,,,,,4,,,63,0
595105,note_off,385,0,5,,,,,,,,,5,,,60,0
595175,note_off,95,0,1,,,,,,,,,1,,,68,0
595200,note_on,95,0,5,,,,,,,,,5,,,58,54
595200,note_on,25,0,1,,,,,,,,,1,,,67,54
595200,note_on,95,0,4,,,,,,,,,4,,,63,54
595585,note_off,385,0,5,,,,,,,,,5,,,58,0
595585,note_off,385,0,1,,,,,,,,,1,,,67,0
595585,note_off,385,0,4,,,,,,,,,4,,,63,0
595680,note_on,95,0,5,,,,,,,,,5,,,46,58
595920,note_on,335,0,1,,,,,,,,,1,,,70,63
596065,note_off,385,0,5,,,,,,,,,5,,,46,0
596105,note_off,185,0,1,,,,,,,,,1,,,70,0
596160,note_on,55,0,1,,,,,,,,,1,,,75,66
596520,note_off,360,0,1,,,,,,,,,1,,,75,0
596520,note_on,0,0,1,,,,,,,,,1,,,77,60
596640,note_on,0,0,1,,,,,,,,,1,,,79,60
596640,note_on,1055,0,4,,,,,,,,,4,,,63,60
596640,note_off,120,0,1,,,,,,,,,1,,,77,0
596640,note_on,575,0,5,,,,,,,,,5,,,55,60
597000,note_on,0,0,1,,,,,,,,,1,,,71,58
597000,note_off,360,0,1,,,,,,,,,1,,,79,0
597025,note_off,385,0,5,,,,,,,,,5,,,55,0
597025,note_off,385,0,4,,,,,,,,,4,,,63,0
597095,note_off,95,0,1,,,,,,,,,1,,,71,0
597120,note_on,25,0,1,,,,,,,,,1,,,72,57
597480,note_on,0,0,1,,,,,,,,,1,,,74,56
597480,note_off,360,0,1,,,,,,,,,1,,,72,0
597600,note_off,120,0,1,,,,,,,,,1,,,74,0
597600,note_on,575,0,5,,,,,,,,,5,,,56,55
597600,note_on,0,0,1,,,,,,,,,1,,,75,55
597600,note_on,575,0,4,,,,,,,,,4,,,63,55
597960,note_on,0,0,1,,,,,,,,,1,,,67,53
597960,note_off,360,0,1,,,,,,,,,1,,,75,0
597985,note_off,385,0,4,,,,,,,,,4,,,63,0
597985,note_off,385,0,5,,,,,,,,,5,,,56,0
598055,note_off,95,0,1,,,,,,,,,1,,,67,0
598080,note_on,25,0,1,,,,,,,,,1,,,68,53
598440,note_on,0,0,1,,,,,,,,,1,,,70,51
598440,note_off,360,0,1,,,,,,,,,1,,,68,0
598560,note_off,120,0,1,,,,,,,,,1,,,70,0
598560,note_on,575,0,5,,,,,,,,,5,,,60,51
598560,note_on,0,0,1,,,,,,,,,1,,,72,51
598560,note_on,575,0,4,,,,,,,,,4,,,63,51
598920,note_off,360,0,1,,,,,,,,,1,,,72,0
598920,note_on,0,0,1,,,,,,,,,1,,,68,49
598945,note_off,385,0,5,,,,,,,,,5,,,60,0
598945,note_off,385,0,4,,,,,,,,,4,,,63,0
599015,note_off,95,0,1,,,,,,,,,1,,,68,0
599040,note_on,95,0,4,,,,,,,,,4,,,63,48
599040,note_on,95,0,5,,,,,,,,,5,,,58,48
599040,note_on,25,0,1,,,,,,,,,1,,,67,48
599425,note_off,385,0,5,,,,,,,,,5,,,58,0
599425,note_off,385,0,1,,,,,,,,,1,,,67,0
599425,note_off,385,0,4,,,,,,,,,4,,,63,0
599520,note_on,95,0,5,,,,,,,,,5,,,46,50
599720,set_tempo,8360,1,0,,,,,,359281,,,,,,,
599760,set_tempo,40,1,0,,,,,,355029,,,,,,,
599760,note_on,335,0,1,,,,,,,,,1,,,67,52
599905,note_off,385,0,5,,,,,,,,,5,,,46,0
599950,note_off,190,0,1,,,,,,,,,1,,,67,0
600000,note_on,50,0,1,,,,,,,,,1,,,70,57
600240,note_on,0,0,1,,,,,,,,,1,,,69,54
600240,note_off,240,0,1,,,,,,,,,1,,,70,0
600430,note_off,190,0,1,,,,,,,,,1,,,69,0
600480,note_on,1055,0,4,,,,,,,,,4,,,63,56
600480,note_on,575,0,5,,,,,,,,,5,,,60,56
600720,note_on,290,0,1,,,,,,,,,1,,,69,57
600865,note_off,385,0,5,,,,,,,,,5,,,60,0
600865,note_off,385,0,4,,,,,,,,,4,,,63,0
600910,note_off,190,0,1,,,,,,,,,1,,,69,0
600960,note_on,50,0,1,,,,,,,,,1,,,72,61
601200,note_off,240,0,1,,,,,,,,,1,,,72,0
601200,note_on,0,0,1,,,,,,,,,1,,,70,60
601390,note_off,190,0,1,,,,,,,,,1,,,70,0
601440,note_on,575,0,5,,,,,,,,,5,,,55,61
601440,note_on,575,0,4,,,,,,,,,4,,,63,61
601680,note_on,290,0,1,,,,,,,,,1,,,71,62
601825,note_off,385,0,5,,,,,,,,,5,,,55,0
601825,note_off,385,0,4,,,,,,,,,4,,,63,0
601870,note_off,190,0,1,,,,,,,,,1,,,71,0
601920,note_on,50,0,1,,,,,,,,,1,,,74,63
601920,note_on,95,0,5,,,,,,,,,5,,,56,63
601920,note_on,95,0,4,,,,,,,,,4,,,63,63
602160,note_off,240,0,1,,,,,,,,,1,,,74,0
602160,note_on,0,0,1,,,,,,,,,1,,,72,65
602305,note_off,385,0,5,,,,,,,,,5,,,56,0
602305,note_off,385,0,4,,,,,,,,,4,,,63,0
602350,note_off,190,0,1,,,,,,,,,1,,,72,0
602400,note_on,95,0,5,,,,,,,,,5,,,53,66
602400,note_on,95,0,4,,,,,,,,,4,,,56,66
602400,note_on,50,0,1,,,,,,,,,1,,,75,66
602640,note_off,240,0,1,,,,,,,,,1,,,75,0
602640,note_on,0,0,1,,,,,,,,,1,,,74,67
602785,note_off,385,0,4,,,,,,,,,4,,,56,0
602785,note_off,385,0,5,,,,,,,,,5,,,53,0
602830,note_off,190,0,1,,,,,,,,,1,,,74,0
602880,note_on,95,0,4,,,,,,,,,4,,,58,69
602880,note_on,95,0,5,,,,,,,,,5,,,55,69
602880,note_on,50,0,1,,,,,,,,,1,,,77,69
603120,note_off,240,0,1,,,,,,,,,1,,,77,0
603120,note_on,0,0,1,,,,,,,,,1,,,75,70
603265,note_off,385,0,4,,,,,,,,,4,,,58,0
603265,note_off,385,0,5,,,,,,,,,5,,,55,0
603310,note_off,190,0,1,,,,,,,,,1,,,75,0
603360,note_on,50,0,1,,,,,,,,,1,,,77,71
603360,note_on,95,0,4,,,,,,,,,4,,,58,71
603360,note_on,95,0,5,,,,,,,,,5,,,55,71
603600,note_on,0,0,1,,,,,,,,,1,,,76,73
603600,note_off,240,0,1,,,,,,,,,1,,,77,0
603745,note_off,385,0,5,,,,,,,,,5,,,55,0
603745,note_off,385,0,4,,,,,,,,,4,,,58,0
603790,note_off,190,0,1,,,,,,,,,1,,,76,0
603840,note_on,0,0,4,,,,,,,,,4,,,56,74
603840,note_on,50,0,1,,,,,,,,,1,,,79,74
603840,note_on,95,0,5,,,,,,,,,5,,,53,74
603840,note_on,95,0,4,,,,,,,,,4,,,58,74
604080,note_on,0,0,1,,,,,,,,,1,,,77,75
604080,note_off,240,0,1,,,,,,,,,1,,,79,0
604225,note_off,0,0,4,,,,,,,,,4,,,58,0
604225,note_off,385,0,5,,,,,,,,,5,,,53,0
604225,note_off,385,0,4,,,,,,,,,4,,,56,0
604270,note_off,190,0,1,,,,,,,,,1,,,77,0
604320,note_on,0,0,4,,,,,,,,,4,,,58,76
604320,note_on,95,0,4,,,,,,,,,4,,,55,76
604320,note_on,50,0,1,,,,,,,,,1,,,80,76
604320,note_on,95,0,5,,,,,,,,,5,,,51,76
604560,note_on,0,0,1,,,,,,,,,1,,,79,78
604560,note_off,240,0,1,,,,,,,,,1,,,80,0
604705,note_off,385,0,4,,,,,,,,,4,,,58,0
604705,note_off,385,0,5,,,,,,,,,5,,,51,0
604705,note_off,0,0,4,,,,,,,,,4,,,55,0
604750,note_off,190,0,1,,,,,,,,,1,,,79,0
604760,set_tempo,5000,1,0,,,,,,359281,,,,,,,
604800,note_on,95,0,5,,,,,,,,,5,,,50,81
604800,note_on,0,0,4,,,,,,,,,4,,,58,81
604800,note_on,95,0,4,,,,,,,,,4,,,53,81
604800,note_on,50,0,1,,,,,,,,,1,,,82,81
605040,note_on,0,0,1,,,,,,,,,1,,,80,75
605040,note_off,240,0,1,,,,,,,,,1,,,82,0
605185,note_off,0,0,4,,,,,,,,,4,,,53,0
605185,note_off,385,0,5,,,,,,,,,5,,,50,0
605185,note_off,385,0,4,,,,,,,,,4,,,58,0
605230,note_off,190,0,1,,,,,,,,,1,,,80,0
606480,set_tempo,1720,1,0,,,,,,355029,,,,,,,
606480,note_on,1250,0,1,,,,,,,,,1,,,77,56
606670,note_off,190,0,1,,,,,,,,,1,,,77,0
606720,note_on,1535,0,5,,,,,,,,,5,,,63,56
606720,note_on,1535,0,4,,,,,,,,,4,,,70,56
606720,note_on,50,0,1,,,,,,,,,1,,,79,56
607080,note_off,360,0,1,,,,,,,,,1,,,79,0
607080,note_on,0,0,1,,,,,,,,,1,,,75,58
607105,note_off,385,0,5,,,,,,,,,5,,,63,0
607105,note_off,385,0,4,,,,,,,,,4,,,70,0
607175,note_off,95,0,1,,,,,,,,,1,,,75,0
607200,note_on,95,0,5,,,,,,,,,5,,,56,58
607200,note_on,95,0,4,,,,,,,,,4,,,68,58
607200,note_on,25,0,1,,,,,,,,,1,,,72,58
607560,note_on,0,0,1,,,,,,,,,1,,,77,59
607560,note_off,360,0,1,,,,,,,,,1,,,72,0
607585,note_off,385,0,5,,,,,,,,,5,,,56,0
607585,note_off,385,0,4,,,,,,,,,4,,,68,0
607655,note_off,95,0,1,,,,,,,,,1,,,77,0
607680,note_on,95,0,5,,,,,,,,,5,,,58,59
607680,note_on,95,0,4,,,,,,,,,4,,,67,59
607680,note_on,25,0,1,,,,,,,,,1,,,75,59
608160,note_off,480,0,4,,,,,,,,,4,,,67,0
608160,note_on,0,0,4,,,,,,,,,4,,,65,61
608160,note_on,0,0,1,,,,,,,,,1,,,74,61
608160,note_off,480,0,1,,,,,,,,,1,,,75,0
608525,note_off,845,0,5,,,,,,,,,5,,,58,0
608545,note_off,385,0,1,,,,,,,,,1,,,74,0
608545,note_off,385,0,4,,,,,,,,,4,,,65,0
608560,set_tempo,2080,1,0,,,,,,359281,,,,,,,
608640,note_on,95,0,1,,,,,,,,,1,,,82,73
608640,note_on,115,0,5,,,,,,,,,5,,,50,73
608640,note_on,95,0,4,,,,,,,,,4,,,53,73
608640,note_on,0,0,4,,,,,,,,,4,,,58,73
608880,note_on,0,0,1,,,,,,,,,1,,,80,68
608880,note_off,240,0,1,,,,,,,,,1,,,82,0
609025,note_off,385,0,5,,,,,,,,,5,,,50,0
609025,note_off,385,0,4,,,,,,,,,4,,,58,0
609025,note_off,0,0,4,,,,,,,,,4,,,53,0
609070,note_off,190,0,1,,,,,,,,,1,,,80,0
610320,note_on,1250,0,1,,,,,,,,,1,,,77,52
610320,set_tempo,1760,1,0,,,,,,355029,,,,,,,
610510,note_off,190,0,1,,,,,,,,,1,,,77,0
610560,note_on,1535,0,5,,,,,,,,,5,,,63,54
610560,note_on,1535,0,4,,,,,,,,,4,,,70,54
610560,note_on,50,0,1,,,,,,,,,1,,,79,54
610920,note_off,360,0,1,,,,,,,,,1,,,79,0
610920,note_on,0,0,1,,,,,,,,,1,,,75,55
610945,note_off,385,0,5,,,,,,,,,5,,,63,0
610945,note_off,385,0,4,,,,,,,,,4,,,70,0
611015,note_off,95,0,1,,,,,,,,,1,,,75,0
611040,note_on,95,0,5,,,,,,,,,5,,,56,56
611040,note_on,25,0,1,,,,,,,,,1,,,72,56
611040,note_on,95,0,4,,,,,,,,,4,,,68,56
611400,note_on,0,0,1,,,,,,,,,1,,,77,58
611400,note_off,360,0,1,,,,,,,,,1,,,72,0
611425,note_off,385,0,4,,,,,,,,,4,,,68,0
611425,note_off,385,0,5,,,,,,,,,5,,,56,0
611495,note_off,95,0,1,,,,,,,,,1,,,77,0
611520,note_on,25,0,1,,,,,,,,,1,,,75,58
611520,note_on,95,0,5,,,,,,,,,5,,,58,58
611520,note_on,95,0,4,,,,,,,,,4,,,67,58
612000,note_off,480,0,4,,,,,,,,,4,,,67,0
612000,note_on,0,0,4,,,,,,,,,4,,,65,61
612000,note_on,0,0,1,,,,,,,,,1,,,74,61
612000,note_off,480,0,1,,,,,,,,,1,,,75,0
612365,note_off,845,0,5,,,,,,,,,5,,,58,0
612385,note_off,385,0,4,,,,,,,,,4,,,65,0
612385,note_off,385,0,1,,,,,,,,,1,,,74,0
612405,set_tempo,2085,1,0,,,,,,495867,,,,,,,
612480,set_tempo,75,1,0,,,,,,355029,,,,,,,
612480,note_on,95,0,1,,,,,,,,,1,,,67,70
612600,note_on,120,0,1,,,,,,,,,1,,,79,72
612720,note_off,120,0,1,,,,,,,,,1,,,67,0
613200,note_on,480,0,1,,,,,,,,,1,,,75,61
613215,note_off,15,0,1,,,,,,,,,1,,,79,0
613440,note_on,0,0,1,,,,,,,,,1,,,72,60
613440,note_off,225,0,1,,,,,,,,,1,,,75,0
613440,note_on,1055,0,4,,,,,,,,,4,,,67,60
613440,note_on,1075,0,5,,,,,,,,,5,,,63,60
613680,note_off,240,0,1,,,,,,,,,1,,,72,0
613920,note_on,240,0,1,,,,,,,,,1,,,72,57
614160,note_off,240,0,1,,,,,,,,,1,,,72,0
614210,note_off,770,0,4,,,,,,,,,4,,,67,0
614210,note_off,770,0,5,,,,,,,,,5,,,63,0
614340,set_tempo,1860,1,0,,,,,,359281,,,,,,,
614400,note_on,190,0,5,,,,,,,,,5,,,62,61
614400,note_on,190,0,4,,,,,,,,,4,,,71,61
614400,note_on,240,0,1,,,,,,,,,1,,,77,61
614880,note_off,480,0,1,,,,,,,,,1,,,77,0
614880,note_on,0,0,1,,,,,,,,,1,,,80,57
615265,note_off,385,0,1,,,,,,,,,1,,,80,0
615360,note_off,960,0,5,,,,,,,,,5,,,62,0
615360,note_off,960,0,4,,,,,,,,,4,,,71,0
615360,note_on,0,0,4,,,,,,,,,4,,,68,53
615360,note_on,0,0,5,,,,,,,,,5,,,65,53
615360,note_on,95,0,1,,,,,,,,,1,,,71,53
615745,note_off,385,0,1,,,,,,,,,1,,,71,0
615745,note_off,385,0,4,,,,,,,,,4,,,68,0
615745,note_off,385,0,5,,,,,,,,,5,,,65,0
616040,set_tempo,1700,1,0,,,,,,363636,,,,,,,
616080,set_tempo,40,1,0,,,,,,355029,,,,,,,
616080,note_on,335,0,1,,,,,,,,,1,,,71,46
616270,note_off,190,0,1,,,,,,,,,1,,,71,0
616320,note_on,575,0,5,,,,,,,,,5,,,63,44
616320,note_on,50,0,1,,,,,,,,,1,,,74,44
616320,note_on,575,0,4,,,,,,,,,4,,,67,44
616560,note_off,240,0,1,,,,,,,,,1,,,74,0
616560,note_on,0,0,1,,,,,,,,,1,,,72,40
616750,note_off,190,0,1,,,,,,,,,1,,,72,0
616800,note_off,480,0,5,,,,,,,,,5,,,63,0
616800,note_on,50,0,1,,,,,,,,,1,,,75,46
616800,note_on,0,0,5,,,,,,,,,5,,,59,46
617040,note_off,240,0,1,,,,,,,,,1,,,75,0
617040,note_on,0,0,1,,,,,,,,,1,,,74,45
617230,note_off,190,0,1,,,,,,,,,1,,,74,0
617280,note_off,480,0,5,,,,,,,,,5,,,59,0
617280,note_on,0,0,5,,,,,,,,,5,,,60,47
617280,note_on,50,0,1,,,,,,,,,1,,,77,47
617520,note_off,240,0,1,,,,,,,,,1,,,77,0
617520,note_on,0,0,1,,,,,,,,,1,,,75,44
617710,note_off,190,0,1,,,,,,,,,1,,,75,0
617760,note_off,480,0,5,,,,,,,,,5,,,60,0
617760,note_on,0,0,5,,,,,,,,,5,,,62,49
618000,note_on,290,0,1,,,,,,,,,1,,,71,50
618125,note_off,1805,0,4,,,,,,,,,4,,,67,0
618125,note_off,365,0,5,,,,,,,,,5,,,62,0
618190,note_off,190,0,1,,,,,,,,,1,,,71,0
618240,note_on,50,0,1,,,,,,,,,1,,,74,54
618240,note_on,115,0,4,,,,,,,,,4,,,67,54
618240,note_on,115,0,5,,,,,,,,,5,,,63,54
618480,note_on,0,0,1,,,,,,,,,1,,,72,50
618480,note_off,240,0,1,,,,,,,,,1,,,74,0
618670,note_off,190,0,1,,,,,,,,,1,,,72,0
618720,note_on,0,0,5,,,,,,,,,5,,,59,53
618720,note_off,480,0,5,,,,,,,,,5,,,63,0
618720,note_on,50,0,1,,,,,,,,,1,,,75,53
618960,note_off,240,0,1,,,,,,,,,1,,,75,0
618960,note_on,0,0,1,,,,,,,,,1,,,74,50
619150,note_off,190,0,1,,,,,,,,,1,,,74,0
619200,note_off,480,0,5,,,,,,,,,5,,,59,0
619200,note_on,0,0,5,,,,,,,,,5,,,60,54
619200,note_on,50,0,1,,,,,,,,,1,,,77,54
619440,note_on,0,0,1,,,,,,,,,1,,,75,52
619440,note_off,240,0,1,,,,,,,,,1,,,77,0
619565,note_off,365,0,5,,,,,,,,,5,,,60,0
619565,note_off,1325,0,4,,,,,,,,,4,,,67,0
619630,note_off,190,0,1,,,,,,,,,1,,,75,0
619680,note_on,50,0,1,,,,,,,,,1,,,77,56
619920,note_on,0,0,1,,,,,,,,,1,,,76,53
619920,note_off,240,0,1,,,,,,,,,1,,,77,0
620110,note_off,190,0,1,,,,,,,,,1,,,76,0
620120,set_tempo,4040,1,0,,,,,,372670,,,,,,,
620160,note_on,50,0,1,,,,,,,,,1,,,77,62
620160,set_tempo,40,1,0,,,,,,355029,,,,,,,
620880,note_off,720,0,1,,,,,,,,,1,,,77,0
620880,note_on,0,0,1,,,,,,,,,1,,,74,52
621120,note_on,1555,0,5,,,,,,,,,5,,,62,51
621120,note_off,240,0,1,,,,,,,,,1,,,74,0
621120,note_on,0,0,1,,,,,,,,,1,,,70,51
621120,note_on,1555,0,4,,,,,,,,,4,,,65,51
621360,note_off,240,0,1,,,,,,,,,1,,,70,0
621600,note_on,240,0,1,,,,,,,,,1,,,70,48
621840,note_off,240,0,1,,,,,,,,,1,,,70,0
621890,note_off,770,0,5,,,,,,,,,5,,,62,0
621890,note_off,770,0,4,,,,,,,,,4,,,65,0
622020,set_tempo,1860,1,0,,,,,,359281,,,,,,,
622080,note_on,190,0,4,,,,,,,,,4,,,69,49
622080,note_on,190,0,5,,,,,,,,,5,,,60,49
622080,note_on,240,0,1,,,,,,,,,1,,,75,49
622560,note_on,0,0,1,,,,,,,,,1,,,78,45
622560,note_off,480,0,1,,,,,,,,,1,,,75,0
622945,note_off,385,0,1,,,,,,,,,1,,,78,0
623040,note_on,95,0,1,,,,,,,,,1,,,69,40
623040,note_off,960,0,4,,,,,,,,,4,,,69,0
623040,note_on,0,0,4,,,,,,,,,4,,,66,40
623040,note_on,0,0,5,,,,,,,,,5,,,63,40
623040,note_off,960,0,5,,,,,,,,,5,,,60,0
623425,note_off,385,0,1,,,,,,,,,1,,,69,0
623425,note_off,385,0,4,,,,,,,,,4,,,66,0
623425,note_off,385,0,5,,,,,,,,,5,,,63,0
623720,set_tempo,1700,1,0,,,,,,363636,,,,,,,
623760,set_tempo,40,1,0,,,,,,355029,,,,,,,
623760,note_on,335,0,1,,,,,,,,,1,,,69,43
623950,note_off,190,0,1,,,,,,,,,1,,,69,0
624000,note_on,50,0,1,,,,,,,,,1,,,72,44
624000,note_on,575,0,5,,,,,,,,,5,,,61,44
624000,note_on,575,0,4,,,,,,,,,4,,,65,44
624240,note_on,0,0,1,,,,,,,,,1,,,70,42
624240,note_off,240,0,1,,,,,,,,,1,,,72,0
624430,note_off,190,0,1,,,,,,,,,1,,,70,0
624480,note_on,50,0,1,,,,,,,,,1,,,73,45
624480,note_on,0,0,5,,,,,,,,,5,,,57,45
624480,note_off,480,0,5,,,,,,,,,5,,,61,0
624720,note_off,240,0,1,,,,,,,,,1,,,73,0
624720,note_on,0,0,1,,,,,,,,,1,,,72,44
624910,note_off,190,0,1,,,,,,,,,1,,,72,0
624960,note_on,0,0,5,,,,,,,,,5,,,58,47
624960,note_on,50,0,1,,,,,,,,,1,,,75,47
624960,note_off,480,0,5,,,,,,,,,5,,,57,0
625200,note_off,240,0,1,,,,,,,,,1,,,75,0
625200,note_on,0,0,1,,,,,,,,,1,,,73,46
625390,note_off,190,0,1,,,,,,,,,1,,,73,0
625440,note_off,480,0,5,,,,,,,,,5,,,58,0
625440,note_on,0,0,5,,,,,,,,,5,,,60,48
625680,note_on,290,0,1,,,,,,,,,1,,,69,50
625800,note_off,1800,0,4,,,,,,,,,4,,,65,0
625805,note_off,365,0,5,,,,,,,,,5,,,60,0
625870,note_off,190,0,1,,,,,,,,,1,,,69,0
625920,note_on,120,0,4,,,,,,,,,4,,,65,54
625920,note_on,50,0,1,,,,,,,,,1,,,72,54
625920,note_on,115,0,5,,,,,,,,,5,,,61,54
626160,note_off,240,0,1,,,,,,,,,1,,,72,0
626160,note_on,0,0,1,,,,,,,,,1,,,70,48
626350,note_off,190,0,1,,,,,,,,,1,,,70,0
626400,note_off,480,0,5,,,,,,,,,5,,,61,0
626400,note_on,0,0,5,,,,,,,,,5,,,57,51
626400,note_on,50,0,1,,,,,,,,,1,,,73,51
626640,note_off,240,0,1,,,,,,,,,1,,,73,0
626640,note_on,0,0,1,,,,,,,,,1,,,72,49
626830,note_off,190,0,1,,,,,,,,,1,,,72,0
626880,note_off,480,0,5,,,,,,,,,5,,,57,0
626880,note_on,0,0,5,,,,,,,,,5,,,58,52
626880,note_on,50,0,1,,,,,,,,,1,,,75,52
627120,note_off,240,0,1,,,,,,,,,1,,,75,0
627120,note_on,0,0,1,,,,,,,,,1,,,73,48
627240,note_off,1320,0,4,,,,,,,,,4,,,65,0
627255,note_off,375,0,5,,,,,,,,,5,,,58,0
627310,note_off,190,0,1,,,,,,,,,1,,,73,0
627360,note_on,105,0,5,,,,,,,,,5,,,58,54
627360,note_on,120,0,4,,,,,,,,,4,,,65,54
627600,note_on,290,0,1,,,,,,,,,1,,,73,55
627745,note_off,385,0,4,,,,,,,,,4,,,65,0
627745,note_off,385,0,5,,,,,,,,,5,,,58,0
627790,note_off,190,0,1,,,,,,,,,1,,,73,0
627840,note_on,50,0,1,,,,,,,,,1,,,73,58
628080,note_off,240,0,1,,,,,,,,,1,,,73,0
628080,note_on,0,0,1,,,,,,,,,1,,,71,53
628270,note_off,190,0,1,,,,,,,,,1,,,71,0
628320,note_on,575,0,5,,,,,,,,,5,,,56,57
628320,note_on,575,0,4,,,,,,,,,4,,,65,57
628560,note_on,290,0,1,,,,,,,,,1,,,71,57
628705,note_off,385,0,4,,,,,,,,,4,,,65,0
628705,note_off,385,0,5,,,,,,,,,5,,,56,0
628750,note_off,190,0,1,,,,,,,,,1,,,71,0
628800,note_on,50,0,1,,,,,,,,,1,,,71,58
629040,note_on,0,0,1,,,,,,,,,1,,,70,55
629040,note_off,240,0,1,,,,,,,,,1,,,71,0
629230,note_off,190,0,1,,,,,,,,,1,,,70,0
629280,note_on,575,0,4,,,,,,,,,4,,,61,59
629280,note_on,575,0,5,,,,,,,,,5,,,54,59
629520,note_on,290,0,1,,,,,,,,,1,,,70,60
629665,note_off,385,0,5,,,,,,,,,5,,,54,0
629665,note_off,385,0,4,,,,,,,,,4,,,61,0
629710,note_off,190,0,1,,,,,,,,,1,,,70,0
629760,note_on,50,0,1,,,,,,,,,1,,,70,62
630000,note_on,0,0,1,,,,,,,,,1,,,80,61
630000,note_off,240,0,1,,,,,,,,,1,,,70,0
630190,note_off,190,0,1,,,,,,,,,1,,,80,0
630240,note_on,575,0,4,,,,,,,,,4,,,62,62
630240,note_on,575,0,5,,,,,,,,,5,,,53,62
630480,note_on,290,0,1,,,,,,,,,1,,,80,63
630625,note_off,385,0,5,,,,,,,,,5,,,53,0
630625,note_off,385,0,4,,,,,,,,,4,,,62,0
630670,note_off,190,0,1,,,,,,,,,1,,,80,0
630720,note_on,50,0,1,,,,,,,,,1,,,80,66
630960,note_on,0,0,1,,,,,,,,,1,,,78,61
630960,note_off,240,0,1,,,,,,,,,1,,,80,0
631150,note_off,190,0,1,,,,,,,,,1,,,78,0
631200,note_on,575,0,4,,,,,,,,,4,,,63,65
631200,note_on,575,0,5,,,,,,,,,5,,,51,65
631440,note_on,290,0,1,,,,,,,,,1,,,78,66
631585,note_off,385,0,4,,,,,,,,,4,,,63,0
631585,note_off,385,0,5,,,,,,,,,5,,,51,0
631630,note_off,190,0,1,,,,,,,,,1,,,78,0
631680,note_on,50,0,1,,,,,,,,,1,,,78,68
631920,note_on,0,0,1,,,,,,,,,1,,,77,61
631920,note_off,240,0,1,,,,,,,,,1,,,78,0
632110,note_off,190,0,1,,,,,,,,,1,,,77,0
632160,note_on,575,0,5,,,,,,,,,5,,,53,68
632160,note_on,575,0,4,,,,,,,,,4,,,61,68
632400,note_on,290,0,1,,,,,,,,,1,,,77,69
632545,note_off,385,0,5,,,,,,,,,5,,,53,0
632545,note_off,385,0,4,,,,,,,,,4,,,61,0
632590,note_off,190,0,1,,,,,,,,,1,,,77,0
632640,note_on,50,0,1,,,,,,,,,1,,,77,71
632880,note_off,240,0,1,,,,,,,,,1,,,77,0
632880,note_on,0,0,1,,,,,,,,,1,,,76,64
633070,note_off,190,0,1,,,,,,,,,1,,,76,0
633120,note_on,575,0,4,,,,,,,,,4,,,61,71
633120,note_on,575,0,5,,,,,,,,,5,,,54,71
633360,note_on,290,0,1,,,,,,,,,1,,,76,71
633505,note_off,385,0,4,,,,,,,,,4,,,61,0
633505,note_off,385,0,5,,,,,,,,,5,,,54,0
633550,note_off,190,0,1,,,,,,,,,1,,,76,0
633560,set_tempo,9800,1,0,,,,,,359281,,,,,,,
633600,note_on,50,0,1,,,,,,,,,1,,,82,72
633600,note_on,95,0,4,,,,,,,,,4,,,64,72
633600,set_tempo,40,1,0,,,,,,355029,,,,,,,
633600,note_on,95,0,5,,,,,,,,,5,,,54,72
633760,note_off,160,0,1,,,,,,,,,1,,,82,0
633840,note_on,80,0,1,,,,,,,,,1,,,84,73
633920,note_on,0,0,1,,,,,,,,,1,,,82,73
633920,note_off,80,0,1,,,,,,,,,1,,,84,0
634000,note_on,0,0,1,,,,,,,,,1,,,81,73
634000,note_off,80,0,1,,,,,,,,,1,,,82,0
634080,note_on,0,0,1,,,,,,,,,1,,,82,74
634080,note_off,80,0,1,,,,,,,,,1,,,81,0
634320,note_off,240,0,1,,,,,,,,,1,,,82,0
634320,note_on,0,0,1,,,,,,,,,1,,,84,74
634560,note_off,240,0,1,,,,,,,,,1,,,84,0
634560,note_on,0,0,1,,,,,,,,,1,,,85,75
634560,note_on,0,0,4,,,,,,,,,4,,,58,75
634560,note_off,960,0,4,,,,,,,,,4,,,64,0
635040,note_off,480,0,1,,,,,,,,,1,,,85,0
635040,note_on,0,0,1,,,,,,,,,1,,,76,76
635400,note_off,1800,0,5,,,,,,,,,5,,,54,0
635405,note_off,845,0,4,,,,,,,,,4,,,58,0
635425,note_off,385,0,1,,,,,,,,,1,,,76,0
635480,set_tempo,1880,1,0,,,,,,359281,,,,,,,
635520,set_tempo,40,1,0,,,,,,355029,,,,,,,
635520,note_on,115,0,4,,,,,,,,,4,,,57,77
635520,note_on,95,0,1,,,,,,,,,1,,,77,77
635520,note_on,120,0,5,,,,,,,,,5,,,53,77
635760,note_on,0,0,1,,,,,,,,,1,,,76,76
635760,note_off,240,0,1,,,,,,,,,1,,,77,0
636000,note_on,0,0,1,,,,,,,,,1,,,77,74
636000,note_off,240,0,1,,,,,,,,,1,,,76,0
636240,note_on,0,0,1,,,,,,,,,1,,,72,72
636240,note_off,240,0,1,,,,,,,,,1,,,77,0
636480,note_on,0,0,1,,,,,,,,,1,,,75,71
636480,note_off,240,0,1,,,,,,,,,1,,,72,0
636480,note_off,960,0,4,,,,,,,,,4,,,57,0
636480,note_on,0,0,4,,,,,,,,,4,,,58,71
636720,note_on,0,0,1,,,,,,,,,1,,,73,69
636720,note_off,240,0,1,,,,,,,,,1,,,75,0
636960,note_on,0,0,1,,,,,,,,,1,,,72,68
636960,note_off,240,0,1,,,,,,,,,1,,,73,0
637200,note_on,0,0,1,,,,,,,,,1,,,70,66
637200,note_off,240,0,1,,,,,,,,,1,,,72,0
637325,note_off,1805,0,5,,,,,,,,,5,,,53,0
637325,note_off,845,0,4,,,,,,,,,4,,,58,0
637380,set_tempo,1860,1,0,,,,,,357142,,,,,,,
637390,note_off,190,0,1,,,,,,,,,1,,,70,0
637440,note_on,50,0,1,,,,,,,,,1,,,78,71
637440,note_on,115,0,5,,,,,,,,,5,,,53,71
637440,note_on,115,0,4,,,,,,,,,4,,,57,71
637680,note_off,240,0,1,,,,,,,,,1,,,78,0
637680,note_on,0,0,1,,,,,,,,,1,,,77,69
637920,note_off,240,0,1,,,,,,,,,1,,,77,0
637920,note_on,0,0,1,,,,,,,,,1,,,76,68
638160,note_on,0,0,1,,,,,,,,,1,,,77,66
638160,note_off,240,0,1,,,,,,,,,1,,,76,0
638400,note_on,0,0,4,,,,,,,,,4,,,58,65
638400,note_off,960,0,4,,,,,,,,,4,,,57,0
638400,note_off,240,0,1,,,,,,,,,1,,,77,0
638400,note_on,0,0,1,,,,,,,,,1,,,75,65
638640,note_off,240,0,1,,,,,,,,,1,,,75,0
638640,note_on,0,0,1,,,,,,,,,1,,,73,63
638880,note_on,0,0,1,,,,,,,,,1,,,72,62
638880,note_off,240,0,1,,,,,,,,,1,,,73,0
639120,note_off,240,0,1,,,,,,,,,1,,,72,0
639120,note_on,0,0,1,,,,,,,,,1,,,70,60
639245,note_off,1805,0,5,,,,,,,,,5,,,53,0
639245,note_off,845,0,4,,,,,,,,,4,,,58,0
639310,note_off,190,0,1,,,,,,,,,1,,,70,0
639320,set_tempo,1940,1,0,,,,,,359281,,,,,,,
639360,note_on,55320,0,2,,,,,,,,,2,,,69,61
639360,note_on,50,0,1,,,,,,,,,1,,,72,61
639360,note_on,115,0,5,,,,,,,,,5,,,65,61
639550,note_off,190,0,5,,,,,,,,,5,,,65,0
639600,note_on,50,0,5,,,,,,,,,5,,,65,60
639745,note_off,385,0,1,,,,,,,,,1,,,72,0
639745,note_off,385,0,2,,,,,,,,,2,,,69,0
639790,note_off,190,0,5,,,,,,,,,5,,,65,0
639840,note_on,95,0,1,,,,,,,,,1,,,73,59
639840,note_on,95,0,2,,,,,,,,,2,,,70,59
640080,note_on,290,0,5,,,,,,,,,5,,,65,59
640270,note_off,190,0,5,,,,,,,,,5,,,65,0
640320,note_on,0,0,1,,,,,,,,,1,,,72,58
640320,note_off,480,0,2,,,,,,,,,2,,,70,0
640320,note_on,50,0,5,,,,,,,,,5,,,65,58
640320,note_off,480,0,1,,,,,,,,,1,,,73,0
640320,note_on,0,0,2,,,,,,,,,2,,,69,58
640510,note_off,190,0,5,,,,,,,,,5,,,65,0
640560,note_on,50,0,5,,,,,,,,,5,,,65,57
640750,note_off,190,0,5,,,,,,,,,5,,,65,0
640800,note_off,480,0,2,,,,,,,,,2,,,69,0
640800,note_on,0,0,2,,,,,,,,,2,,,70,56
640800,note_off,480,0,1,,,,,,,,,1,,,72,0
640800,note_on,0,0,1,,,,,,,,,1,,,76,56
641040,note_on,290,0,5,,,,,,,,,5,,,65,55
641230,note_off,190,0,5,,,,,,,,,5,,,65,0
641280,note_off,480,0,2,,,,,,,,,2,,,70,0
641280,note_on,0,0,1,,,,,,,,,1,,,77,55
641280,note_off,480,0,1,,,,,,,,,1,,,76,0
641280,note_on,50,0,5,,,,,,,,,5,,,65,55
641280,note_on,0,0,2,,,,,,,,,2,,,69,55
641470,note_off,190,0,5,,,,,,,,,5,,,65,0
641520,note_on,50,0,5,,,,,,,,,5,,,65,54
641665,note_off,385,0,2,,,,,,,,,2,,,69,0
641665,note_off,385,0,1,,,,,,,,,1,,,77,0
641710,note_off,190,0,5,,,,,,,,,5,,,65,0
641760,note_on,95,0,1,,,,,,,,,1,,,73,53
641760,note_on,95,0,2,,,,,,,,,2,,,70,53
642000,note_on,290,0,5,,,,,,,,,5,,,65,52
642190,note_off,190,0,5,,,,,,,,,5,,,65,0
642240,note_on,0,0,2,,,,,,,,,2,,,69,51
642240,note_on,0,0,1,,,,,,,,,1,,,72,51
642240,note_on,50,0,5,,,,,,,,,5,,,65,51
642240,note_off,480,0,2,,,,,,,,,2,,,70,0
642240,note_off,480,0,1,,,,,,,,,1,,,73,0
642430,note_off,190,0,5,,,,,,,,,5,,,65,0
642480,note_on,50,0,5,,,,,,,,,5,,,65,51
642670,note_off,190,0,5,,,,,,,,,5,,,65,0
642720,note_off,480,0,1,,,,,,,,,1,,,72,0
642720,note_on,0,0,1,,,,,,,,,1,,,76,50
642720,note_off,480,0,2,,,,,,,,,2,,,69,0
642720,note_on,0,0,2,,,,,,,,,2,,,70,50
642960,note_on,290,0,5,,,,,,,,,5,,,65,49
643150,note_off,190,0,5,,,,,,,,,5,,,65,0
643160,set_tempo,3840,1,0,,,,,,372670,,,,,,,
643200,note_on,3955,0,4,,,,,,,,,4,,,65,48
643200,note_on,0,0,1,,,,,,,,,1,,,77,48
643200,note_off,480,0,1,,,,,,,,,1,,,76,0
643200,note_off,480,0,2,,,,,,,,,2,,,70,0
643200,note_on,0,0,2,,,,,,,,,2,,,69,48
643200,set_tempo,40,1,0,,,,,,359281,,,,,,,
643200,note_on,50,0,5,,,,,,,,,5,,,53,48
643390,note_off,190,0,1,,,,,,,,,1,,,77,0
643440,note_on,50,0,1,,,,,,,,,1,,,77,47
643585,note_off,385,0,2,,,,,,,,,2,,,69,0
643585,note_off,385,0,5,,,,,,,,,5,,,53,0
643585,note_off,385,0,4,,,,,,,,,4,,,65,0
643630,note_off,190,0,1,,,,,,,,,1,,,77,0
643680,note_on,95,0,5,,,,,,,,,5,,,53,47
643680,note_on,95,0,4,,,,,,,,,4,,,57,47
643920,note_on,290,0,1,,,,,,,,,1,,,77,46
644065,note_off,385,0,5,,,,,,,,,5,,,53,0
644065,note_off,385,0,4,,,,,,,,,4,,,57,0
644110,note_off,190,0,1,,,,,,,,,1,,,77,0
644160,note_on,50,0,1,,,,,,,,,1,,,77,45
644350,note_off,190,0,1,,,,,,,,,1,,,77,0
644400,note_on,50,0,1,,,,,,,,,1,,,77,44
644590,note_off,190,0,1,,,,,,,,,1,,,77,0
644640,note_on,575,0,4,,,,,,,,,4,,,57,43
644640,note_on,575,0,5,,,,,,,,,5,,,53,43
644880,note_on,290,0,1,,,,,,,,,1,,,77,42
645070,note_off,190,0,1,,,,,,,,,1,,,77,0
645120,note_on,50,0,1,,,,,,,,,1,,,77,42
645120,note_on,0,0,4,,,,,,,,,4,,,55,42
645120,note_on,0,0,4,,,,,,,,,4,,,58,42
645120,note_off,480,0,4,,,,,,,,,4,,,57,0
645120,note_off,480,0,5,,,,,,,,,5,,,53,0
645120,note_on,0,0,5,,,,,,,,,5,,,53,42
645310,note_off,190,0,1,,,,,,,,,1,,,77,0
645360,note_on,50,0,1,,,,,,,,,1,,,77,41
645505,note_off,0,0,4,,,,,,,,,4,,,58,0
645505,note_off,385,0,4,,,,,,,,,4,,,55,0
645505,note_off,385,0,5,,,,,,,,,5,,,53,0
645550,note_off,190,0,1,,,,,,,,,1,,,77,0
645600,note_on,95,0,5,,,,,,,,,5,,,53,40
645600,note_on,95,0,4,,,,,,,,,4,,,58,40
645600,note_on,0,0,4,,,,,,,,,4,,,55,40
645840,note_on,290,0,1,,,,,,,,,1,,,77,39
645985,note_off,385,0,5,,,,,,,,,5,,,53,0
645985,note_off,0,0,4,,,,,,,,,4,,,58,0
645985,note_off,385,0,4,,,,,,,,,4,,,55,0
646030,note_off,190,0,1,,,,,,,,,1,,,77,0
646080,note_on,50,0,1,,,,,,,,,1,,,77,40
646270,note_off,190,0,1,,,,,,,,,1,,,77,0
646320,note_on,50,0,1,,,,,,,,,1,,,77,41
646510,note_off,190,0,1,,,,,,,,,1,,,77,0
646560,note_on,0,0,4,,,,,,,,,4,,,59,42
646560,note_on,575,0,4,,,,,,,,,4,,,56,42
646560,note_on,575,0,5,,,,,,,,,5,,,53,42
646800,note_on,290,0,1,,,,,,,,,1,,,77,44
646990,note_off,190,0,1,,,,,,,,,1,,,77,0
647040,note_on,0,0,4,,,,,,,,,4,,,57,45
647040,note_on,0,0,4,,,,,,,,,4,,,60,45
647040,note_off,480,0,4,,,,,,,,,4,,,59,0
647040,note_off,0,0,4,,,,,,,,,4,,,56,0
647040,note_on,0,0,5,,,,,,,,,5,,,53,45
647040,note_off,480,0,5,,,,,,,,,5,,,53,0
647040,note_on,50,0,1,,,,,,,,,1,,,77,45
647230,note_off,190,0,1,,,,,,,,,1,,,77,0
647280,note_on,50,0,1,,,,,,,,,1,,,77,46
647470,note_off,190,0,1,,,,,,,,,1,,,77,0
647520,note_off,480,0,4,,,,,,,,,4,,,57,0
647520,note_off,0,0,4,,,,,,,,,4,,,60,0
647520,note_on,0,0,4,,,,,,,,,4,,,61,47
647520,note_on,0,0,4,,,,,,,,,4,,,57,47
647760,note_on,290,0,1,,,,,,,,,1,,,77,48
647950,note_off,190,0,1,,,,,,,,,1,,,77,0
647985,note_off,945,0,5,,,,,,,,,5,,,53,0
648000,note_on,50,0,1,,,,,,,,,1,,,77,49
648000,note_off,480,0,4,,,,,,,,,4,,,57,0
648000,note_off,0,0,4,,,,,,,,,4,,,61,0
648000,note_on,0,0,4,,,,,,,,,4,,,62,49
648000,note_on,0,0,4,,,,,,,,,4,,,58,49
648000,note_on,15,0,5,,,,,,,,,5,,,53,49
648190,note_off,190,0,1,,,,,,,,,1,,,77,0
648240,note_on,50,0,1,,,,,,,,,1,,,77,51
648430,note_off,190,0,1,,,,,,,,,1,,,77,0
648480,note_off,480,0,4,,,,,,,,,4,,,58,0
648480,note_off,0,0,4,,,,,,,,,4,,,62,0
648480,note_on,0,0,4,,,,,,,,,4,,,59,52
648480,note_on,0,0,4,,,,,,,,,4,,,62,52
648720,note_on,290,0,1,,,,,,,,,1,,,77,53
648840,note_off,840,0,5,,,,,,,,,5,,,53,0
648845,note_off,365,0,4,,,,,,,,,4,,,62,0
648845,note_off,0,0,4,,,,,,,,,4,,,59,0
648910,note_off,190,0,1,,,,,,,,,1,,,77,0
648920,set_tempo,5720,1,0,,,,,,363636,,,,,,,
648960,note_on,0,0,4,,,,,,,,,4,,,63,55
648960,note_on,50,0,1,,,,,,,,,1,,,77,55
648960,note_on,120,0,5,,,,,,,,,5,,,53,55
648960,set_tempo,40,1,0,,,,,,357142,,,,,,,
648960,note_on,115,0,4,,,,,,,,,4,,,60,55
649150,note_off,190,0,1,,,,,,,,,1,,,77,0
649200,note_on,50,0,1,,,,,,,,,1,,,65,57
649440,note_on,0,0,1,,,,,,,,,1,,,64,59
649440,note_off,240,0,1,,,,,,,,,1,,,65,0
649680,note_off,240,0,1,,,,,,,,,1,,,64,0
649680,note_on,0,0,1,,,,,,,,,1,,,65,61
649920,note_on,0,0,1,,,,,,,,,1,,,66,63
649920,note_off,240,0,1,,,,,,,,,1,,,65,0
650160,note_on,0,0,1,,,,,,,,,1,,,67,65
650160,note_off,240,0,1,,,,,,,,,1,,,66,0
650400,note_off,240,0,1,,,,,,,,,1,,,67,0
650400,note_on,0,0,1,,,,,,,,,1,,,68,67
650640,note_off,240,0,1,,,,,,,,,1,,,68,0
650640,note_on,0,0,1,,,,,,,,,1,,,69,68
650880,note_off,0,0,4,,,,,,,,,4,,,60,0
650880,note_off,1920,0,4,,,,,,,,,4,,,63,0
650880,note_on,0,0,1,,,,,,,,,1,,,70,71
650880,note_off,240,0,1,,,,,,,,,1,,,69,0
650880,note_off,1920,0,5,,,,,,,,,5,,,53,0
651120,note_off,240,0,1,,,,,,,,,1,,,70,0
651120,note_on,0,0,1,,,,,,,,,1,,,71,66
651360,note_off,240,0,1,,,,,,,,,1,,,71,0
651360,note_on,0,0,1,,,,,,,,,1,,,72,61
651600,note_on,0,0,1,,,,,,,,,1,,,73,57
651600,note_off,240,0,1,,,,,,,,,1,,,72,0
651840,note_on,0,0,1,,,,,,,,,1,,,74,52
651840,note_off,240,0,1,,,,,,,,,1,,,73,0
652080,note_off,240,0,1,,,,,,,,,1,,,74,0
652080,note_on,0,0,1,,,,,,,,,1,,,75,48
652320,note_on,0,0,1,,,,,,,,,1,,,76,43
652320,note_off,240,0,1,,,,,,,,,1,,,75,0
652520,set_tempo,3560,1,0,,,,,,359281,,,,,,,
652560,note_off,240,0,1,,,,,,,,,1,,,76,0
652560,note_on,0,0,1,,,,,,,,,1,,,77,39
652680,set_tempo,160,1,0,,,,,,428571,,,,,,,
652740,set_tempo,60,1,0,,,,,,508474,,,,,,,
652750,note_off,190,0,1,,,,,,,,,1,,,77,0
652800,set_tempo,60,1,0,,,,,,355029,,,,,,,
652800,note_on,0,0,1,,,,,,,,,1,,,77,47
652800,control_change,50,0,1,,,,,,,64,0,1,,,,
653280,note_on,2400,0,5,,,,,,,,,5,,,58,44
653520,note_on,0,0,1,,,,,,,,,1,,,74,43
653520,note_off,720,0,1,,,,,,,,,1,,,77,0
653665,note_off,385,0,5,,,,,,,,,5,,,58,0
653760,note_off,240,0,1,,,,,,,,,1,,,74,0
653760,note_on,0,0,1,,,,,,,,,1,,,70,42
653760,note_on,95,0,5,,,,,,,,,5,,,62,42
653990,note_off,230,0,1,,,,,,,,,1,,,70,0
654145,note_off,385,0,5,,,,,,,,,5,,,62,0
654240,note_on,95,0,5,,,,,,,,,5,,,67,40
654240,note_on,250,0,1,,,,,,,,,1,,,70,40
654480,note_off,240,0,1,,,,,,,,,1,,,70,0
654625,note_off,385,0,5,,,,,,,,,5,,,67,0
654720,note_on,95,0,5,,,,,,,,,5,,,60,43
654720,note_on,240,0,1,,,,,,,,,1,,,75,43
655105,note_off,385,0,5,,,,,,,,,5,,,60,0
655200,note_on,0,0,1,,,,,,,,,1,,,79,41
655200,note_on,95,0,5,,,,,,,,,5,,,63,41
655200,note_off,480,0,1,,,,,,,,,1,,,75,0
655585,note_off,385,0,5,,,,,,,,,5,,,63,0
655585,note_off,385,0,1,,,,,,,,,1,,,79,0
655680,note_on,95,0,1,,,,,,,,,1,,,69,39
655680,note_on,95,0,5,,,,,,,,,5,,,65,39
656065,note_off,385,0,1,,,,,,,,,1,,,69,0
656065,note_off,385,0,5,,,,,,,,,5,,,65,0
656160,note_on,95,0,5,,,,,,,,,5,,,63,36
656545,note_off,385,0,5,,,,,,,,,5,,,63,0
656640,note_on,575,0,1,,,,,,,,,1,,,72,36
656640,note_on,95,0,5,,,,,,,,,5,,,62,36
656880,note_on,0,0,1,,,,,,,,,1,,,70,35
656880,note_off,240,0,1,,,,,,,,,1,,,72,0
657020,note_off,140,0,1,,,,,,,,,1,,,70,0
657025,note_off,385,0,5,,,,,,,,,5,,,62,0
657120,note_on,100,0,1,,,,,,,,,1,,,74,39
657120,note_on,95,0,5,,,,,,,,,5,,,57,39
657360,note_off,240,0,1,,,,,,,,,1,,,74,0
657360,note_on,0,0,1,,,,,,,,,1,,,72,37
657505,note_off,385,0,5,,,,,,,,,5,,,57,0
657550,note_off,190,0,1,,,,,,,,,1,,,72,0
657600,note_on,50,0,1,,,,,,,,,1,,,75,42
657600,note_on,95,0,5,,,,,,,,,5,,,58,42
657840,note_off,240,0,1,,,,,,,,,1,,,75,0
657840,note_on,0,0,1,,,,,,,,,1,,,74,41
657985,note_off,385,0,5,,,,,,,,,5,,,58,0
658030,note_off,190,0,1,,,,,,,,,1,,,74,0
658080,note_on,50,0,1,,,,,,,,,1,,,77,45
658080,note_on,95,0,5,,,,,,,,,5,,,51,45
658080,note_on,7200,0,4,,,,,,,,,4,,,60,45
658320,note_off,240,0,1,,,,,,,,,1,,,77,0
658320,note_on,0,0,1,,,,,,,,,1,,,75,43
658465,note_off,385,0,4,,,,,,,,,4,,,60,0
658465,note_off,385,0,5,,,,,,,,,5,,,51,0
658500,set_tempo,5700,1,0,,,,,,357142,,,,,,,
658510,note_off,190,0,1,,,,,,,,,1,,,75,0
658560,note_on,95,0,4,,,,,,,,,4,,,58,51
658560,note_on,95,0,5,,,,,,,,,5,,,53,51
658560,note_on,50,0,1,,,,,,,,,1,,,74,51
659280,note_off,720,0,1,,,,,,,,,1,,,74,0
659280,note_on,0,0,1,,,,,,,,,1,,,75,44
659400,note_off,120,0,1,,,,,,,,,1,,,75,0
659400,note_on,0,0,1,,,,,,,,,1,,,74,43
659520,note_on,0,0,4,,,,,,,,,4,,,57,42
659520,note_off,960,0,4,,,,,,,,,4,,,58,0
659520,note_off,120,0,1,,,,,,,,,1,,,74,0
659520,note_on,0,0,1,,,,,,,,,1,,,72,42
659710,note_off,190,0,1,,,,,,,,,1,,,72,0
659760,note_on,50,0,1,,,,,,,,,1,,,74,42
659905,note_off,385,0,4,,,,,,,,,4,,,57,0
659905,note_off,1345,0,5,,,,,,,,,5,,,53,0
660000,note_off,240,0,1,,,,,,,,,1,,,74,0
660000,note_on,0,0,1,,,,,,,,,1,,,75,45
660240,note_off,240,0,1,,,,,,,,,1,,,75,0
660240,note_on,0,0,1,,,,,,,,,1,,,76,48
660430,note_off,190,0,1,,,,,,,,,1,,,76,0
660440,set_tempo,1940,1,0,,,,,,359281,,,,,,,
660480,note_on,50,0,1,,,,,,,,,1,,,77,53
660480,set_tempo,40,1,0,,,,,,355029,,,,,,,
660960,note_on,1055,0,5,,,,,,,,,5,,,58,51
661200,note_off,720,0,1,,,,,,,,,1,,,77,0
661200,note_on,0,0,1,,,,,,,,,1,,,75,50
661280,note_on,0,0,1,,,,,,,,,1,,,74,50
661280,note_off,80,0,1,,,,,,,,,1,,,75,0
661345,note_off,385,0,5,,,,,,,,,5,,,58,0
661360,note_on,0,0,1,,,,,,,,,1,,,72,49
661360,note_off,80,0,1,,,,,,,,,1,,,74,0
661425,note_off,65,0,1,,,,,,,,,1,,,72,0
661440,note_on,15,0,1,,,,,,,,,1,,,70,49
661440,note_on,95,0,5,,,,,,,,,5,,,62,49
661680,note_off,240,0,1,,,,,,,,,1,,,70,0
661825,note_off,385,0,5,,,,,,,,,5,,,62,0
661920,note_on,95,0,5,,,,,,,,,5,,,67,46
661920,note_on,240,0,1,,,,,,,,,1,,,70,46
662160,note_off,240,0,1,,,,,,,,,1,,,70,0
662305,note_off,385,0,5,,,,,,,,,5,,,67,0
662400,note_on,240,0,1,,,,,,,,,1,,,75,49
662400,note_on,95,0,5,,,,,,,,,5,,,60,49
662785,note_off,385,0,5,,,,,,,,,5,,,60,0
662880,note_on,0,0,1,,,,,,,,,1,,,79,47
662880,note_off,480,0,1,,,,,,,,,1,,,75,0
662880,note_on,95,0,5,,,,,,,,,5,,,63,47
663265,note_off,385,0,1,,,,,,,,,1,,,79,0
663265,note_off,385,0,5,,,,,,,,,5,,,63,0
663360,note_on,95,0,1,,,,,,,,,1,,,69,44
663360,note_on,95,0,5,,,,,,,,,5,,,65,44
663745,note_off,385,0,1,,,,,,,,,1,,,69,0
663745,note_off,385,0,5,,,,,,,,,5,,,65,0
663840,note_on,95,0,5,,,,,,,,,5,,,63,41
664080,note_on,335,0,1,,,,,,,,,1,,,69,40
664225,note_off,385,0,5,,,,,,,,,5,,,63,0
664270,note_off,190,0,1,,,,,,,,,1,,,69,0
664320,note_on,50,0,1,,,,,,,,,1,,,70,45
664320,note_on,95,0,5,,,,,,,,,5,,,62,45
664560,note_off,240,0,1,,,,,,,,,1,,,70,0
664560,note_on,0,0,1,,,,,,,,,1,,,74,44
664700,note_off,140,0,1,,,,,,,,,1,,,74,0
664705,note_off,385,0,5,,,,,,,,,5,,,62,0
664800,note_on,100,0,1,,,,,,,,,1,,,67,43
664800,note_on,95,0,5,,,,,,,,,5,,,51,43
664800,note_on,4895,0,4,,,,,,,,,4,,,63,43
665040,note_on,0,0,1,,,,,,,,,1,,,72,43
665040,note_off,240,0,1,,,,,,,,,1,,,67,0
665185,note_off,385,0,5,,,,,,,,,5,,,51,0
665185,note_off,385,0,4,,,,,,,,,4,,,63,0
665230,note_off,190,0,1,,,,,,,,,1,,,72,0
665280,note_on,95,0,5,,,,,,,,,5,,,53,42
665280,note_on,50,0,1,,,,,,,,,1,,,70,42
665280,note_on,95,0,4,,,,,,,,,4,,,62,42
665760,note_on,0,0,1,,,,,,,,,1,,,69,40
665760,note_off,480,0,1,,,,,,,,,1,,,70,0
665760,note_on,0,0,4,,,,,,,,,4,,,60,40
665760,note_off,480,0,4,,,,,,,,,4,,,62,0
666180,set_tempo,5700,1,0,,,,,,357142,,,,,,,
666240,note_on,0,0,5,,,,,,,,,5,,,58,38
666240,note_off,480,0,4,,,,,,,,,4,,,60,0
666240,note_on,0,0,1,,,,,,,,,1,,,70,38
666240,note_off,480,0,1,,,,,,,,,1,,,69,0
666240,note_off,960,0,5,,,,,,,,,5,,,53,0
666395,note_off,155,0,1,,,,,,,,,1,,,70,0
666480,note_on,85,0,1,,,,,,,,,1,,,65,41
666600,note_off,120,0,1,,,,,,,,,1,,,65,0
666625,note_off,385,0,5,,,,,,,,,5,,,58,0
666720,note_on,120,0,1,,,,,,,,,1,,,67,44
666840,note_off,120,0,1,,,,,,,,,1,,,67,0
666960,note_on,120,0,1,,,,,,,,,1,,,69,46
667080,note_off,120,0,1,,,,,,,,,1,,,69,0
667200,note_on,120,0,1,,,,,,,,,1,,,70,48
667320,note_off,120,0,1,,,,,,,,,1,,,70,0
667440,note_on,120,0,1,,,,,,,,,1,,,72,50
667560,note_off,120,0,1,,,,,,,,,1,,,72,0
667680,note_on,120,0,1,,,,,,,,,1,,,74,52
667800,note_off,120,0,1,,,,,,,,,1,,,74,0
667920,note_on,120,0,1,,,,,,,,,1,,,75,54
668040,note_off,120,0,1,,,,,,,,,1,,,75,0
668120,set_tempo,1940,1,0,,,,,,359281,,,,,,,
668160,set_tempo,40,1,0,,,,,,355029,,,,,,,
668160,control_change,1535,0,5,,,,,,,64,127,5,,,,
668160,control_change,97980,0,3,,,,,,,64,127,3,,,,
668160,note_on,120,0,1,,,,,,,,,1,,,77,59
668160,control_change,1920,0,4,,,,,,,64,127,4,,,,
668160,note_on,0,0,5,,,,,,,,,5,,,58,59
668400,note_on,240,0,3,,,,,,,,,3,,,65,59
668400,note_off,240,0,5,,,,,,,,,5,,,58,0
668640,note_on,0,0,3,,,,,,,,,3,,,62,58
668640,note_off,240,0,3,,,,,,,,,3,,,65,0
668880,note_on,0,0,1,,,,,,,,,1,,,74,57
668880,note_off,720,0,1,,,,,,,,,1,,,77,0
668880,note_off,240,0,3,,,,,,,,,3,,,62,0
668880,note_on,0,0,3,,,,,,,,,3,,,65,57
669060,control_change,900,0,4,,,,,,,64,0,4,,,,
669060,control_change,660,0,5,,,,,,,64,0,5,,,,
669060,control_change,180,0,3,,,,,,,64,0,3,,,,
669120,note_on,0,0,5,,,,,,,,,5,,,55,56
669120,control_change,60,0,5,,,,,,,64,127,5,,,,
669120,control_change,60,0,3,,,,,,,64,127,3,,,,
669120,note_off,0,0,3,,,,,,,,,3,,,65,0
669120,note_off,240,0,1,,,,,,,,,1,,,74,0
669120,control_change,60,0,4,,,,,,,64,127,4,,,,
669120,note_on,0,0,1,,,,,,,,,1,,,70,56
669360,note_off,240,0,5,,,,,,,,,5,,,55,0
669360,note_on,240,0,3,,,,,,,,,3,,,62,56
669360,note_off,240,0,1,,,,,,,,,1,,,70,0
669600,note_on,0,0,3,,,,,,,,,3,,,58,55
669600,note_off,240,0,3,,,,,,,,,3,,,62,0
669600,note_on,240,0,1,,,,,,,,,1,,,70,55
669840,note_off,240,0,3,,,,,,,,,3,,,58,0
669840,note_off,240,0,1,,,,,,,,,1,,,70,0
669840,note_on,0,0,3,,,,,,,,,3,,,62,54
670020,control_change,180,0,3,,,,,,,64,0,3,,,,
670020,control_change,660,0,5,,,,,,,64,0,5,,,,
670020,control_change,900,0,4,,,,,,,64,0,4,,,,
670030,note_off,10,0,3,,,,,,,,,3,,,62,0
670080,control_change,60,0,5,,,,,,,64,127,5,,,,
670080,control_change,50,0,3,,,,,,,64,127,3,,,,
670080,note_on,240,0,1,,,,,,,,,1,,,75,55
670080,note_on,0,0,5,,,,,,,,,5,,,51,55
670080,control_change,60,0,4,,,,,,,64,127,4,,,,
670240,note_on,160,0,1,,,,,,,,,1,,,77,55
670245,note_off,5,0,1,,,,,,,,,1,,,75,0
670320,note_off,240,0,5,,,,,,,,,5,,,51,0
670320,note_on,240,0,3,,,,,,,,,3,,,60,54
670320,note_off,75,0,1,,,,,,,,,1,,,77,0
670320,note_on,0,0,1,,,,,,,,,1,,,75,54
670400,note_on,0,0,1,,,,,,,,,1,,,74,54
670400,note_off,80,0,1,,,,,,,,,1,,,75,0
670480,note_on,80,0,1,,,,,,,,,1,,,75,54
670485,note_off,5,0,1,,,,,,,,,1,,,74,0
670560,note_on,0,0,1,,,,,,,,,1,,,79,54
670560,note_on,0,0,3,,,,,,,,,3,,,55,54
670560,note_off,240,0,3,,,,,,,,,3,,,60,0
670560,note_off,75,0,1,,,,,,,,,1,,,75,0
670800,note_on,0,0,3,,,,,,,,,3,,,60,53
670800,note_off,240,0,3,,,,,,,,,3,,,55,0
670945,note_off,385,0,1,,,,,,,,,1,,,79,0
670980,control_change,660,0,5,,,,,,,64,0,5,,,,
670980,control_change,180,0,3,,,,,,,64,0,3,,,,
670980,control_change,900,0,4,,,,,,,64,0,4,,,,
671040,control_change,60,0,3,,,,,,,64,127,3,,,,
671040,note_off,0,0,3,,,,,,,,,3,,,60,0
671040,control_change,60,0,5,,,,,,,64,127,5,,,,
671040,control_change,60,0,4,,,,,,,64,127,4,,,,
671040,note_on,95,0,1,,,,,,,,,1,,,69,52
671040,note_on,0,0,5,,,,,,,,,5,,,53,52
671280,note_off,240,0,5,,,,,,,,,5,,,53,0
671280,note_on,240,0,3,,,,,,,,,3,,,63,51
671425,note_off,385,0,1,,,,,,,,,1,,,69,0
671520,note_on,0,0,3,,,,,,,,,3,,,60,51
671520,note_off,240,0,3,,,,,,,,,3,,,63,0
671760,note_on,0,0,3,,,,,,,,,3,,,63,50
671760,note_off,240,0,3,,,,,,,,,3,,,60,0
671940,control_change,660,0,5,,,,,,,64,0,5,,,,
671940,control_change,900,0,4,,,,,,,64,0,4,,,,
671940,control_change,180,0,3,,,,,,,64,0,3,,,,
671950,note_off,10,0,3,,,,,,,,,3,,,63,0
672000,note_on,575,0,1,,,,,,,,,1,,,72,51
672000,note_on,60,0,5,,,,,,,,,5,,,62,51
672240,note_on,0,0,1,,,,,,,,,1,,,70,50
672240,note_off,240,0,1,,,,,,,,,1,,,72,0
672380,note_off,140,0,1,,,,,,,,,1,,,70,0
672385,note_off,385,0,5,,,,,,,,,5,,,62,0
672480,note_on,95,0,5,,,,,,,,,5,,,57,54
672480,note_on,100,0,1,,,,,,,,,1,,,74,54
672480,note_on,540,0,4,,,,,,,,,4,,,65,54
672720,note_off,240,0,1,,,,,,,,,1,,,74,0
672720,note_on,0,0,1,,,,,,,,,1,,,72,52
672865,note_off,385,0,5,,,,,,,,,5,,,57,0
672910,note_off,190,0,1,,,,,,,,,1,,,72,0
672960,note_on,95,0,5,,,,,,,,,5,,,58,56
672960,note_on,50,0,1,,,,,,,,,1,,,75,56
673200,note_off,240,0,1,,,,,,,,,1,,,75,0
673200,note_on,0,0,1,,,,,,,,,1,,,74,56
673320,note_off,840,0,4,,,,,,,,,4,,,65,0
673345,note_off,385,0,5,,,,,,,,,5,,,58,0
673390,note_off,190,0,1,,,,,,,,,1,,,74,0
673440,note_on,50,0,1,,,,,,,,,1,,,77,59
673440,note_on,120,0,4,,,,,,,,,4,,,60,59
673440,note_on,95,0,5,,,,,,,,,5,,,51,59
673680,note_off,240,0,1,,,,,,,,,1,,,77,0
673680,note_on,0,0,1,,,,,,,,,1,,,75,59
673825,note_off,385,0,4,,,,,,,,,4,,,60,0
673825,note_off,385,0,5,,,,,,,,,5,,,51,0
673860,set_tempo,5700,1,0,,,,,,357142,,,,,,,
673870,note_off,190,0,1,,,,,,,,,1,,,75,0
673920,note_on,95,0,4,,,,,,,,,4,,,58,65
673920,note_on,50,0,1,,,,,,,,,1,,,74,65
673920,note_on,95,0,5,,,,,,,,,5,,,53,65
674640,note_off,720,0,1,,,,,,,,,1,,,74,0
674640,note_on,0,0,1,,,,,,,,,1,,,75,58
674760,note_on,0,0,1,,,,,,,,,1,,,74,57
674760,note_off,120,0,1,,,,,,,,,1,,,75,0
674880,note_off,120,0,1,,,,,,,,,1,,,74,0
674880,note_off,960,0,4,,,,,,,,,4,,,58,0
674880,note_on,0,0,1,,,,,,,,,1,,,72,56
674880,note_on,0,0,4,,,,,,,,,4,,,57,56
675070,note_off,190,0,1,,,,,,,,,1,,,72,0
675120,note_on,50,0,1,,,,,,,,,1,,,74,57
675245,note_off,1325,0,5,,,,,,,,,5,,,53,0
675265,note_off,385,0,4,,,,,,,,,4,,,57,0
675360,note_off,240,0,1,,,,,,,,,1,,,74,0
675360,note_on,0,0,1,,,,,,,,,1,,,75,58
675600,note_off,240,0,1,,,,,,,,,1,,,75,0
675600,note_on,0,0,1,,,,,,,,,1,,,76,59
675790,note_off,190,0,1,,,,,,,,,1,,,76,0
675800,set_tempo,1940,1,0,,,,,,359281,,,,,,,
675840,control_change,595,0,5,,,,,,,64,127,5,,,,
675840,control_change,575,0,4,,,,,,,64,127,4,,,,
675840,note_on,50,0,1,,,,,,,,,1,,,77,69
675840,note_on,0,0,5,,,,,,,,,5,,,58,69
675840,set_tempo,40,1,0,,,,,,355029,,,,,,,
675840,control_change,3890,0,3,,,,,,,64,127,3,,,,
676080,note_on,240,0,3,,,,,,,,,3,,,65,67
676080,note_off,240,0,5,,,,,,,,,5,,,58,0
676320,note_on,0,0,3,,,,,,,,,3,,,62,66
676320,note_off,240,0,3,,,,,,,,,3,,,65,0
676560,note_off,240,0,3,,,,,,,,,3,,,62,0
676560,note_off,720,0,1,,,,,,,,,1,,,77,0
676560,note_on,0,0,3,,,,,,,,,3,,,65,65
676560,note_on,0,0,1,,,,,,,,,1,,,75,65
676640,note_off,80,0,1,,,,,,,,,1,,,75,0
676640,note_on,0,0,1,,,,,,,,,1,,,74,65
676720,note_on,0,0,1,,,,,,,,,1,,,72,65
676720,note_off,80,0,1,,,,,,,,,1,,,74,0
676740,control_change,900,0,4,,,,,,,64,0,4,,,,
676740,control_change,660,0,5,,,,,,,64,0,5,,,,
676740,control_change,180,0,3,,,,,,,64,0,3,,,,
676785,note_off,65,0,1,,,,,,,,,1,,,72,0
676800,note_off,0,0,3,,,,,,,,,3,,,65,0
676800,control_change,60,0,5,,,,,,,64,127,5,,,,
676800,control_change,60,0,3,,,,,,,64,127,3,,,,
676800,note_on,15,0,1,,,,,,,,,1,,,70,64
676800,control_change,60,0,4,,,,,,,64,127,4,,,,
676800,note_on,0,0,5,,,,,,,,,5,,,55,64
676955,note_off,155,0,1,,,,,,,,,1,,,70,0
677040,note_on,85,0,1,,,,,,,,,1,,,70,64
677040,note_off,240,0,5,,,,,,,,,5,,,55,0
677040,note_on,240,0,3,,,,,,,,,3,,,62,64
677195,note_off,155,0,1,,,,,,,,,1,,,70,0
677280,note_off,240,0,3,,,,,,,,,3,,,62,0
677280,note_on,0,0,3,,,,,,,,,3,,,58,63
677280,note_on,85,0,1,,,,,,,,,1,,,70,63
677435,note_off,155,0,1,,,,,,,,,1,,,70,0
677520,note_on,0,0,3,,,,,,,,,3,,,62,62
677520,note_on,85,0,1,,,,,,,,,1,,,70,62
677520,note_off,240,0,3,,,,,,,,,3,,,58,0
677675,note_off,155,0,1,,,,,,,,,1,,,70,0
677700,control_change,660,0,5,,,,,,,64,0,5,,,,
677700,control_change,900,0,4,,,,,,,64,0,4,,,,
677700,control_change,180,0,3,,,,,,,64,0,3,,,,
677710,note_off,10,0,3,,,,,,,,,3,,,62,0
677760,control_change,50,0,3,,,,,,,64,127,3,,,,
677760,note_on,85,0,1,,,,,,,,,1,,,75,66
677760,control_change,60,0,4,,,,,,,64,127,4,,,,
677760,note_on,0,0,5,,,,,,,,,5,,,51,66
677760,control_change,60,0,5,,,,,,,64,127,5,,,,
677925,note_off,165,0,1,,,,,,,,,1,,,75,0
677940,note_on,15,0,1,,,,,,,,,1,,,77,65
678000,note_off,240,0,5,,,,,,,,,5,,,51,0
678000,note_on,60,0,1,,,,,,,,,1,,,75,65
678000,note_on,240,0,3,,,,,,,,,3,,,60,65
678025,note_off,25,0,1,,,,,,,,,1,,,77,0
678075,note_off,50,0,1,,,,,,,,,1,,,75,0
678080,note_on,5,0,1,,,,,,,,,1,,,74,65
678120,note_on,40,0,1,,,,,,,,,1,,,75,64
678165,note_off,45,0,1,,,,,,,,,1,,,74,0
678205,note_off,40,0,1,,,,,,,,,1,,,75,0
678240,note_on,35,0,1,,,,,,,,,1,,,79,64
678240,note_on,0,0,3,,,,,,,,,3,,,55,64
678240,note_off,240,0,3,,,,,,,,,3,,,60,0
678480,note_on,0,0,3,,,,,,,,,3,,,60,63
678480,note_off,240,0,3,,,,,,,,,3,,,55,0
678625,note_off,385,0,1,,,,,,,,,1,,,79,0
678660,control_change,180,0,3,,,,,,,64,0,3,,,,
678660,control_change,900,0,4,,,,,,,64,0,4,,,,
678660,control_change,660,0,5,,,,,,,64,0,5,,,,
678720,control_change,60,0,4,,,,,,,64,127,4,,,,
678720,control_change,60,0,3,,,,,,,64,127,3,,,,
678720,note_off,0,0,3,,,,,,,,,3,,,60,0
678720,note_on,0,0,5,,,,,,,,,5,,,53,62
678720,control_change,60,0,5,,,,,,,64,127,5,,,,
678720,note_on,95,0,1,,,,,,,,,1,,,69,62
678960,note_off,240,0,5,,,,,,,,,5,,,53,0
678960,note_on,240,0,3,,,,,,,,,3,,,63,61
679105,note_off,385,0,1,,,,,,,,,1,,,69,0
679200,note_off,240,0,3,,,,,,,,,3,,,63,0
679200,note_on,0,0,3,,,,,,,,,3,,,60,61
679440,note_on,335,0,1,,,,,,,,,1,,,81,60
679440,note_off,240,0,3,,,,,,,,,3,,,60,0
679440,note_on,0,0,3,,,,,,,,,3,,,63,60
679620,control_change,900,0,4,,,,,,,64,0,4,,,,
679620,control_change,660,0,5,,,,,,,64,0,5,,,,
679620,set_tempo,3780,1,0,,,,,,357142,,,,,,,
679620,control_change,180,0,3,,,,,,,64,0,3,,,,
679630,note_off,10,0,3,,,,,,,,,3,,,63,0
679680,note_on,60,0,5,,,,,,,,,5,,,50,63
679680,note_on,0,0,1,,,,,,,,,1,,,82,63
679680,note_off,240,0,1,,,,,,,,,1,,,81,0
679680,note_on,60,0,4,,,,,,,,,4,,,58,63
679840,note_on,36255,0,2,,,,,,,,,2,,,77,63
679872,note_off,192,0,1,,,,,,,,,1,,,82,0
679965,note_off,125,0,2,,,,,,,,,2,,,77,0
680000,note_on,35,0,2,,,,,,,,,2,,,74,63
680065,note_off,385,0,5,,,,,,,,,5,,,50,0
680125,note_off,125,0,2,,,,,,,,,2,,,74,0
680160,note_on,288,0,1,,,,,,,,,1,,,79,62
680160,note_on,95,0,5,,,,,,,,,5,,,51,62
680320,note_on,195,0,2,,,,,,,,,2,,,75,62
680352,note_off,192,0,1,,,,,,,,,1,,,79,0
680445,note_off,125,0,2,,,,,,,,,2,,,75,0
680480,note_on,35,0,2,,,,,,,,,2,,,72,61
680525,note_off,845,0,4,,,,,,,,,4,,,58,0
680545,note_off,385,0,5,,,,,,,,,5,,,51,0
680605,note_off,125,0,2,,,,,,,,,2,,,72,0
680640,note_on,288,0,1,,,,,,,,,1,,,77,61
680640,note_on,115,0,4,,,,,,,,,4,,,62,61
680640,note_on,95,0,5,,,,,,,,,5,,,53,61
680800,note_on,195,0,2,,,,,,,,,2,,,74,60
680832,note_off,192,0,1,,,,,,,,,1,,,77,0
680925,note_off,125,0,2,,,,,,,,,2,,,74,0
680960,note_on,35,0,2,,,,,,,,,2,,,70,60
681025,note_off,385,0,4,,,,,,,,,4,,,62,0
681085,note_off,125,0,2,,,,,,,,,2,,,70,0
681120,note_on,288,0,1,,,,,,,,,1,,,75,59
681120,note_on,95,0,4,,,,,,,,,4,,,63,59
681280,note_on,195,0,2,,,,,,,,,2,,,72,59
681312,note_off,192,0,1,,,,,,,,,1,,,75,0
681405,note_off,125,0,2,,,,,,,,,2,,,72,0
681440,note_on,35,0,2,,,,,,,,,2,,,69,58
681480,note_off,840,0,5,,,,,,,,,5,,,53,0
681505,note_off,385,0,4,,,,,,,,,4,,,63,0
681560,set_tempo,1940,1,0,,,,,,359281,,,,,,,
681580,note_off,140,0,2,,,,,,,,,2,,,69,0
681600,note_on,120,0,5,,,,,,,,,5,,,58,58
681600,note_on,288,0,1,,,,,,,,,1,,,70,58
681600,note_on,95,0,4,,,,,,,,,4,,,62,58
681960,note_off,360,0,4,,,,,,,,,4,,,62,0
681965,note_off,365,0,5,,,,,,,,,5,,,58,0
681985,note_off,385,0,1,,,,,,,,,1,,,70,0
682080,note_on,115,0,5,,,,,,,,,5,,,46,49
682260,set_tempo,700,1,0,,,,,,344827,,,,,,,
682320,note_on,335,0,1,,,,,,,,,1,,,65,46
682320,set_tempo,60,1,0,,,,,,359281,,,,,,,
682440,note_off,360,0,5,,,,,,,,,5,,,46,0
682475,note_off,155,0,1,,,,,,,,,1,,,65,0
682560,note_on,85,0,1,,,,,,,,,1,,,70,45
682685,note_off,125,0,1,,,,,,,,,1,,,70,0
682800,note_on,115,0,1,,,,,,,,,1,,,69,46
682925,note_off,125,0,1,,,,,,,,,1,,,69,0
683040,note_on,115,0,1,,,,,,,,,1,,,70,48
683165,note_off,125,0,1,,,,,,,,,1,,,70,0
683280,note_on,115,0,1,,,,,,,,,1,,,72,49
683420,note_off,140,0,1,,,,,,,,,1,,,72,0
683520,note_on,100,0,1,,,,,,,,,1,,,74,51
683840,note_off,320,0,1,,,,,,,,,1,,,74,0
684000,note_on,2420,0,2,,,,,,,,,2,,,70,53
684000,note_on,1560,0,5,,,,,,,,,5,,,58,53
684000,note_on,160,0,1,,,,,,,,,1,,,74,53
684310,note_off,310,0,2,,,,,,,,,2,,,70,0
684310,note_off,310,0,1,,,,,,,,,1,,,74,0
684480,note_on,170,0,2,,,,,,,,,2,,,70,56
684480,note_on,0,0,5,,,,,,,,,5,,,55,56
684480,note_off,480,0,5,,,,,,,,,5,,,58,0
684480,note_on,170,0,1,,,,,,,,,1,,,74,56
684960,note_off,480,0,2,,,,,,,,,2,,,70,0
684960,note_on,0,0,2,,,,,,,,,2,,,72,53
684960,note_off,480,0,1,,,,,,,,,1,,,74,0
684960,note_on,0,0,1,,,,,,,,,1,,,75,53
684960,note_on,0,0,5,,,,,,,,,5,,,51,53
684960,note_off,480,0,5,,,,,,,,,5,,,55,0
685320,note_off,360,0,1,,,,,,,,,1,,,75,0
685320,note_off,360,0,2,,,,,,,,,2,,,72,0
685345,note_off,385,0,5,,,,,,,,,5,,,51,0
685400,set_tempo,3080,1,0,,,,,,363636,,,,,,,
685440,note_on,120,0,1,,,,,,,,,1,,,72,51
685440,note_on,95,0,5,,,,,,,,,5,,,53,51
685440,note_on,120,0,2,,,,,,,,,2,,,69,51
685800,note_off,360,0,5,,,,,,,,,5,,,53,0
685825,note_off,385,0,1,,,,,,,,,1,,,72,0
685825,note_off,385,0,2,,,,,,,,,2,,,69,0
685920,note_on,120,0,5,,,,,,,,,5,,,41,48
686100,set_tempo,700,1,0,,,,,,344827,,,,,,,
686160,set_tempo,60,1,0,,,,,,359281,,,,,,,
686160,note_on,335,0,1,,,,,,,,,1,,,65,52
686285,note_off,365,0,5,,,,,,,,,5,,,41,0
686315,note_off,155,0,1,,,,,,,,,1,,,65,0
686400,note_on,85,0,1,,,,,,,,,1,,,72,53
686555,note_off,155,0,1,,,,,,,,,1,,,72,0
686640,note_on,85,0,1,,,,,,,,,1,,,70,54
686795,note_off,155,0,1,,,,,,,,,1,,,70,0
686880,note_on,85,0,1,,,,,,,,,1,,,72,56
687035,note_off,155,0,1,,,,,,,,,1,,,72,0
687120,note_on,85,0,1,,,,,,,,,1,,,74,57
687275,note_off,155,0,1,,,,,,,,,1,,,74,0
687360,note_on,85,0,1,,,,,,,,,1,,,75,59
687695,note_off,335,0,1,,,,,,,,,1,,,75,0
687840,note_on,1555,0,5,,,,,,,,,5,,,60,62
687840,note_on,2015,0,2,,,,,,,,,2,,,67,62
687840,note_on,145,0,1,,,,,,,,,1,,,75,62
688150,note_off,310,0,2,,,,,,,,,2,,,67,0
688150,note_off,310,0,1,,,,,,,,,1,,,75,0
688320,note_off,480,0,5,,,,,,,,,5,,,60,0
688320,note_on,170,0,1,,,,,,,,,1,,,75,66
688320,note_on,0,0,5,,,,,,,,,5,,,57,66
688320,note_on,170,0,2,,,,,,,,,2,,,72,66
688800,note_on,0,0,1,,,,,,,,,1,,,77,62
688800,note_on,0,0,2,,,,,,,,,2,,,74,62
688800,note_off,480,0,2,,,,,,,,,2,,,72,0
688800,note_off,480,0,1,,,,,,,,,1,,,75,0
688800,note_on,0,0,5,,,,,,,,,5,,,53,62
688800,note_off,480,0,5,,,,,,,,,5,,,57,0
689160,note_off,360,0,1,,,,,,,,,1,,,77,0
689165,note_off,365,0,2,,,,,,,,,2,,,74,0
689185,note_off,385,0,5,,,,,,,,,5,,,53,0
689240,set_tempo,3080,1,0,,,,,,363636,,,,,,,
689280,note_on,95,0,5,,,,,,,,,5,,,58,60
689280,note_on,115,0,2,,,,,,,,,2,,,70,60
689280,note_on,120,0,1,,,,,,,,,1,,,74,60
689640,note_off,360,0,5,,,,,,,,,5,,,58,0
689665,note_off,385,0,2,,,,,,,,,2,,,70,0
689665,note_off,385,0,1,,,,,,,,,1,,,74,0
689760,note_on,120,0,5,,,,,,,,,5,,,46,58
689940,set_tempo,700,1,0,,,,,,344827,,,,,,,
690000,set_tempo,60,1,0,,,,,,359281,,,,,,,
690000,note_on,335,0,1,,,,,,,,,1,,,70,58
690120,note_off,360,0,5,,,,,,,,,5,,,46,0
690155,note_off,155,0,1,,,,,,,,,1,,,70,0
690240,note_on,85,0,1,,,,,,,,,1,,,74,59
690395,note_off,155,0,1,,,,,,,,,1,,,74,0
690480,note_on,85,0,1,,,,,,,,,1,,,75,60
690635,note_off,155,0,1,,,,,,,,,1,,,75,0
690720,note_on,85,0,1,,,,,,,,,1,,,77,61
690875,note_off,155,0,1,,,,,,,,,1,,,77,0
690960,note_on,85,0,1,,,,,,,,,1,,,79,62
691115,note_off,155,0,1,,,,,,,,,1,,,79,0
691200,note_on,85,0,1,,,,,,,,,1,,,80,63
691585,note_off,385,0,1,,,,,,,,,1,,,80,0
691640,set_tempo,1640,1,0,,,,,,400000,,,,,,,
691680,set_tempo,40,1,0,,,,,,359281,,,,,,,
691680,note_on,1560,0,5,,,,,,,,,5,,,38,65
691680,note_on,0,0,5,,,,,,,,,5,,,50,65
691680,note_on,2015,0,2,,,,,,,,,2,,,65,65
691680,note_on,0,0,2,,,,,,,,,2,,,58,65
691680,note_on,95,0,1,,,,,,,,,1,,,68,65
692065,note_off,385,0,1,,,,,,,,,1,,,68,0
692065,note_off,0,0,5,,,,,,,,,5,,,38,0
692065,note_off,385,0,2,,,,,,,,,2,,,58,0
692065,note_off,385,0,5,,,,,,,,,5,,,50,0
692065,note_off,0,0,2,,,,,,,,,2,,,65,0
692160,note_on,95,0,2,,,,,,,,,2,,,65,67
692160,note_on,95,0,1,,,,,,,,,1,,,68,67
692160,note_on,0,0,5,,,,,,,,,5,,,50,67
692160,note_on,95,0,5,,,,,,,,,5,,,38,67
692160,note_on,0,0,2,,,,,,,,,2,,,58,67
692545,note_off,385,0,1,,,,,,,,,1,,,68,0
692545,note_off,385,0,2,,,,,,,,,2,,,58,0
692545,note_off,0,0,2,,,,,,,,,2,,,65,0
692545,note_off,0,0,5,,,,,,,,,5,,,38,0
692545,note_off,385,0,5,,,,,,,,,5,,,50,0
692640,note_on,95,0,1,,,,,,,,,1,,,68,69
692640,note_on,95,0,2,,,,,,,,,2,,,65,69
692640,note_on,0,0,2,,,,,,,,,2,,,60,69
692640,note_on,95,0,5,,,,,,,,,5,,,36,69
692640,note_on,0,0,5,,,,,,,,,5,,,48,69
693025,note_off,385,0,5,,,,,,,,,5,,,48,0
693025,note_off,385,0,2,,,,,,,,,2,,,60,0
693025,note_off,0,0,2,,,,,,,,,2,,,65,0
693025,note_off,385,0,1,,,,,,,,,1,,,68,0
693025,note_off,0,0,5,,,,,,,,,5,,,36,0
693060,set_tempo,1380,1,0,,,,,,363636,,,,,,,
693120,note_on,95,0,2,,,,,,,,,2,,,65,66
693120,note_on,0,0,2,,,,,,,,,2,,,62,66
693120,note_on,0,0,5,,,,,,,,,5,,,35,66
693120,note_on,95,0,1,,,,,,,,,1,,,67,66
693120,note_on,95,0,5,,,,,,,,,5,,,47,66
693480,note_off,0,0,5,,,,,,,,,5,,,47,0
693480,note_off,360,0,5,,,,,,,,,5,,,35,0
693505,note_off,385,0,1,,,,,,,,,1,,,67,0
693505,note_off,0,0,2,,,,,,,,,2,,,65,0
693505,note_off,385,0,2,,,,,,,,,2,,,62,0
693600,note_on,120,0,5,,,,,,,,,5,,,59,63
693720,set_tempo,660,1,0,,,,,,368098,,,,,,,
693840,set_tempo,120,1,0,,,,,,359281,,,,,,,
693840,note_on,335,0,1,,,,,,,,,1,,,74,66
693910,note_off,310,0,5,,,,,,,,,5,,,59,0
693995,note_off,155,0,1,,,,,,,,,1,,,74,0
694080,note_on,85,0,1,,,,,,,,,1,,,79,68
694235,note_off,155,0,1,,,,,,,,,1,,,79,0
694320,note_on,85,0,1,,,,,,,,,1,,,78,70
694475,note_off,155,0,1,,,,,,,,,1,,,78,0
694560,note_on,12600,0,4,,,,,,,,,4,,,67,71
694560,note_on,650,0,5,,,,,,,,,5,,,58,71
694560,note_on,85,0,1,,,,,,,,,1,,,79,71
694715,note_off,155,0,1,,,,,,,,,1,,,79,0
694800,note_on,85,0,1,,,,,,,,,1,,,74,73
694945,note_off,385,0,4,,,,,,,,,4,,,67,0
694945,note_off,385,0,5,,,,,,,,,5,,,58,0
694955,note_off,155,0,1,,,,,,,,,1,,,74,0
694995,set_tempo,1155,1,0,,,,,,363636,,,,,,,
695040,note_on,95,0,4,,,,,,,,,4,,,67,75
695040,note_on,85,0,1,,,,,,,,,1,,,77,75
695040,note_on,95,0,5,,,,,,,,,5,,,60,75
695280,note_off,240,0,1,,,,,,,,,1,,,77,0
695280,note_on,0,0,1,,,,,,,,,1,,,75,70
695425,note_off,385,0,5,,,,,,,,,5,,,60,0
695425,note_off,385,0,4,,,,,,,,,4,,,67,0
695470,note_off,190,0,1,,,,,,,,,1,,,75,0
695520,set_tempo,525,1,0,,,,,,359281,,,,,,,
695880,note_on,410,0,1,,,,,,,,,1,,,67,67
696000,note_on,0,0,1,,,,,,,,,1,,,72,68
696000,note_off,120,0,1,,,,,,,,,1,,,67,0
696120,note_off,120,0,1,,,,,,,,,1,,,72,0
696120,note_on,0,0,1,,,,,,,,,1,,,71,68
696240,note_on,0,0,1,,,,,,,,,1,,,74,69
696240,note_off,120,0,1,,,,,,,,,1,,,71,0
696360,note_off,120,0,1,,,,,,,,,1,,,74,0
696360,note_on,0,0,1,,,,,,,,,1,,,72,70
696480,note_off,120,0,1,,,,,,,,,1,,,72,0
696480,note_on,0,0,1,,,,,,,,,1,,,75,70
696600,note_on,0,0,1,,,,,,,,,1,,,74,71
696600,note_off,120,0,1,,,,,,,,,1,,,75,0
696720,note_on,0,0,1,,,,,,,,,1,,,77,72
696720,note_off,120,0,1,,,,,,,,,1,,,74,0
696840,note_on,0,0,1,,,,,,,,,1,,,75,72
696840,note_off,120,0,1,,,,,,,,,1,,,77,0
696960,note_off,120,0,1,,,,,,,,,1,,,75,0
696960,note_on,0,0,1,,,,,,,,,1,,,79,73
697345,note_off,385,0,1,,,,,,,,,1,,,79,0
697400,set_tempo,1880,1,0,,,,,,400000,,,,,,,
697440,note_on,3935,0,2,,,,,,,,,2,,,63,75
697440,note_on,2015,0,5,,,,,,,,,5,,,36,75
697440,note_on,0,0,5,,,,,,,,,5,,,48,75
697440,note_on,0,0,2,,,,,,,,,2,,,60,75
697440,note_on,95,0,1,,,,,,,,,1,,,67,75
697440,set_tempo,40,1,0,,,,,,359281,,,,,,,
697825,note_off,385,0,2,,,,,,,,,2,,,60,0
697825,note_off,0,0,2,,,,,,,,,2,,,63,0
697825,note_off,385,0,5,,,,,,,,,5,,,48,0
697825,note_off,0,0,5,,,,,,,,,5,,,36,0
697825,note_off,385,0,1,,,,,,,,,1,,,67,0
697920,note_on,95,0,1,,,,,,,,,1,,,67,78
697920,note_on,0,0,2,,,,,,,,,2,,,60,78
697920,note_on,95,0,2,,,,,,,,,2,,,63,78
697920,note_on,0,0,5,,,,,,,,,5,,,48,78
697920,note_on,95,0,5,,,,,,,,,5,,,36,78
698305,note_off,385,0,1,,,,,,,,,1,,,67,0
698305,note_off,0,0,5,,,,,,,,,5,,,36,0
698305,note_off,0,0,2,,,,,,,,,2,,,63,0
698305,note_off,385,0,2,,,,,,,,,2,,,60,0
698305,note_off,385,0,5,,,,,,,,,5,,,48,0
698400,note_on,0,0,5,,,,,,,,,5,,,46,81
698400,note_on,95,0,5,,,,,,,,,5,,,34,81
698400,note_on,0,0,2,,,,,,,,,2,,,60,81
698400,note_on,95,0,2,,,,,,,,,2,,,63,81
698400,note_on,95,0,1,,,,,,,,,1,,,66,81
698785,note_off,385,0,1,,,,,,,,,1,,,66,0
698785,note_off,385,0,2,,,,,,,,,2,,,60,0
698785,note_off,0,0,2,,,,,,,,,2,,,63,0
698785,note_off,385,0,5,,,,,,,,,5,,,46,0
698785,note_off,0,0,5,,,,,,,,,5,,,34,0
698820,set_tempo,1380,1,0,,,,,,363636,,,,,,,
698880,note_on,95,0,1,,,,,,,,,1,,,65,77
698880,note_on,95,0,2,,,,,,,,,2,,,63,77
698880,note_on,0,0,2,,,,,,,,,2,,,60,77
698880,note_on,0,0,5,,,,,,,,,5,,,33,77
698880,note_on,95,0,5,,,,,,,,,5,,,45,77
699240,note_off,0,0,5,,,,,,,,,5,,,45,0
699240,note_off,360,0,5,,,,,,,,,5,,,33,0
699265,note_off,385,0,2,,,,,,,,,2,,,60,0
699265,note_off,0,0,2,,,,,,,,,2,,,63,0
699265,note_off,385,0,1,,,,,,,,,1,,,65,0
699360,note_on,120,0,5,,,,,,,,,5,,,57,74
699480,set_tempo,660,1,0,,,,,,368098,,,,,,,
699600,set_tempo,120,1,0,,,,,,359281,,,,,,,
699600,note_on,335,0,1,,,,,,,,,1,,,72,74
699670,note_off,310,0,5,,,,,,,,,5,,,57,0
699755,note_off,155,0,1,,,,,,,,,1,,,72,0
699840,note_on,85,0,1,,,,,,,,,1,,,77,76
699995,note_off,155,0,1,,,,,,,,,1,,,77,0
700080,note_on,85,0,1,,,,,,,,,1,,,76,77
700235,note_off,155,0,1,,,,,,,,,1,,,76,0
700320,note_on,4895,0,4,,,,,,,,,4,,,65,78
700320,note_on,650,0,5,,,,,,,,,5,,,57,78
700320,note_on,85,0,1,,,,,,,,,1,,,77,78
700475,note_off,155,0,1,,,,,,,,,1,,,77,0
700560,note_on,85,0,1,,,,,,,,,1,,,72,80
700705,note_off,385,0,5,,,,,,,,,5,,,57,0
700705,note_off,385,0,4,,,,,,,,,4,,,65,0
700715,note_off,155,0,1,,,,,,,,,1,,,72,0
700760,set_tempo,1160,1,0,,,,,,363636,,,,,,,
700800,note_on,95,0,4,,,,,,,,,4,,,65,81
700800,note_on,95,0,5,,,,,,,,,5,,,58,81
700800,note_on,85,0,1,,,,,,,,,1,,,75,81
701040,note_off,240,0,1,,,,,,,,,1,,,75,0
701040,note_on,0,0,1,,,,,,,,,1,,,74,77
701160,note_off,360,0,5,,,,,,,,,5,,,58,0
701160,note_off,360,0,4,,,,,,,,,4,,,65,0
701230,note_off,190,0,1,,,,,,,,,1,,,74,0
701280,note_on,120,0,5,,,,,,,,,5,,,46,74
701295,set_tempo,535,1,0,,,,,,359281,,,,,,,
701440,note_on,210,0,1,,,,,,,,,1,,,82,74
701570,note_off,130,0,1,,,,,,,,,1,,,82,0
701600,note_on,30,0,1,,,,,,,,,1,,,81,74
701645,note_off,365,0,5,,,,,,,,,5,,,46,0
701730,note_off,130,0,1,,,,,,,,,1,,,81,0
701760,note_on,30,0,1,,,,,,,,,1,,,82,74
701890,note_off,130,0,1,,,,,,,,,1,,,82,0
701920,note_on,30,0,1,,,,,,,,,1,,,81,75
702050,note_off,130,0,1,,,,,,,,,1,,,81,0
702080,note_on,30,0,1,,,,,,,,,1,,,79,75
702210,note_off,130,0,1,,,,,,,,,1,,,79,0
702240,note_on,30,0,1,,,,,,,,,1,,,77,75
702370,note_off,130,0,1,,,,,,,,,1,,,77,0
702400,note_on,30,0,1,,,,,,,,,1,,,75,75
702530,note_off,130,0,1,,,,,,,,,1,,,75,0
702560,note_on,30,0,1,,,,,,,,,1,,,74,76
702690,note_off,130,0,1,,,,,,,,,1,,,74,0
702720,note_on,30,0,1,,,,,,,,,1,,,72,76
702960,note_on,1315,0,5,,,,,,,,,5,,,51,76
703105,note_off,385,0,1,,,,,,,,,1,,,72,0
703200,note_off,240,0,5,,,,,,,,,5,,,51,0
703200,note_on,0,0,5,,,,,,,,,5,,,58,77
703360,note_on,255,0,1,,,,,,,,,1,,,72,77
703440,note_off,240,0,5,,,,,,,,,5,,,58,0
703440,note_on,0,0,5,,,,,,,,,5,,,55,77
703520,note_off,160,0,1,,,,,,,,,1,,,72,0
703520,note_on,0,0,1,,,,,,,,,1,,,74,77
703680,note_on,0,0,1,,,,,,,,,1,,,75,77
703680,note_off,160,0,1,,,,,,,,,1,,,74,0
703680,note_off,240,0,5,,,,,,,,,5,,,55,0
703680,note_on,0,0,5,,,,,,,,,5,,,60,77
703840,note_off,160,0,1,,,,,,,,,1,,,75,0
703840,note_on,0,0,1,,,,,,,,,1,,,74,78
704000,note_off,160,0,1,,,,,,,,,1,,,74,0
704000,note_on,0,0,1,,,,,,,,,1,,,72,78
704065,note_off,385,0,5,,,,,,,,,5,,,60,0
704160,note_off,160,0,1,,,,,,,,,1,,,72,0
704160,note_on,0,0,1,,,,,,,,,1,,,79,78
704320,note_off,160,0,1,,,,,,,,,1,,,79,0
704320,note_on,0,0,1,,,,,,,,,1,,,77,78
704480,note_off,160,0,1,,,,,,,,,1,,,77,0
704480,note_on,0,0,1,,,,,,,,,1,,,75,78
704640,note_on,0,0,1,,,,,,,,,1,,,74,79
704640,note_off,160,0,1,,,,,,,,,1,,,75,0
704880,note_on,815,0,5,,,,,,,,,5,,,50,79
705025,note_off,385,0,1,,,,,,,,,1,,,74,0
705120,note_off,240,0,5,,,,,,,,,5,,,50,0
705120,note_on,0,0,5,,,,,,,,,5,,,58,79
705280,note_on,255,0,1,,,,,,,,,1,,,82,80
705360,note_off,240,0,5,,,,,,,,,5,,,58,0
705360,note_on,0,0,5,,,,,,,,,5,,,56,80
705440,note_on,0,0,1,,,,,,,,,1,,,81,80
705440,note_off,160,0,1,,,,,,,,,1,,,82,0
705600,note_on,0,0,1,,,,,,,,,1,,,82,80
705600,note_off,160,0,1,,,,,,,,,1,,,81,0
705600,note_off,240,0,5,,,,,,,,,5,,,56,0
705600,note_on,0,0,5,,,,,,,,,5,,,62,80
705760,note_on,0,0,1,,,,,,,,,1,,,80,80
705760,note_off,160,0,1,,,,,,,,,1,,,82,0
705920,note_on,0,0,1,,,,,,,,,1,,,79,81
705920,note_off,160,0,1,,,,,,,,,1,,,80,0
705985,note_off,385,0,5,,,,,,,,,5,,,62,0
706080,note_off,160,0,1,,,,,,,,,1,,,79,0
706080,note_on,0,0,1,,,,,,,,,1,,,77,81
706240,note_off,160,0,1,,,,,,,,,1,,,77,0
706240,note_on,0,0,1,,,,,,,,,1,,,75,81
706400,note_off,160,0,1,,,,,,,,,1,,,75,0
706400,note_on,0,0,1,,,,,,,,,1,,,74,81
706560,note_on,0,0,1,,,,,,,,,1,,,75,82
706560,note_off,160,0,1,,,,,,,,,1,,,74,0
706800,note_on,815,0,5,,,,,,,,,5,,,55,82
706945,note_off,385,0,1,,,,,,,,,1,,,75,0
707040,note_on,0,0,5,,,,,,,,,5,,,63,82
707040,note_off,240,0,5,,,,,,,,,5,,,55,0
707200,note_on,255,0,1,,,,,,,,,1,,,75,83
707280,note_off,240,0,5,,,,,,,,,5,,,63,0
707280,note_on,0,0,5,,,,,,,,,5,,,58,83
707360,note_on,0,0,1,,,,,,,,,1,,,77,83
707360,note_off,160,0,1,,,,,,,,,1,,,75,0
707520,note_on,0,0,5,,,,,,,,,5,,,67,83
707520,note_on,0,0,1,,,,,,,,,1,,,79,83
707520,note_off,160,0,1,,,,,,,,,1,,,77,0
707520,note_off,240,0,5,,,,,,,,,5,,,58,0
707680,note_off,160,0,1,,,,,,,,,1,,,79,0
707680,note_on,0,0,1,,,,,,,,,1,,,77,83
707840,note_on,0,0,1,,,,,,,,,1,,,75,84
707840,note_off,160,0,1,,,,,,,,,1,,,77,0
707905,note_off,385,0,5,,,,,,,,,5,,,67,0
708000,note_off,160,0,1,,,,,,,,,1,,,75,0
708000,note_on,0,0,1,,,,,,,,,1,,,82,84
708160,note_on,0,0,1,,,,,,,,,1,,,80,84
708160,note_off,160,0,1,,,,,,,,,1,,,82,0
708320,note_off,160,0,1,,,,,,,,,1,,,80,0
708320,note_on,0,0,1,,,,,,,,,1,,,79,84
708480,note_on,0,0,1,,,,,,,,,1,,,77,84
708480,note_off,160,0,1,,,,,,,,,1,,,79,0
708720,note_on,815,0,5,,,,,,,,,5,,,50,85
708865,note_off,385,0,1,,,,,,,,,1,,,77,0
708960,note_on,0,0,5,,,,,,,,,5,,,58,85
708960,note_off,240,0,5,,,,,,,,,5,,,50,0
709120,note_on,255,0,1,,,,,,,,,1,,,82,85
709200,note_off,240,0,5,,,,,,,,,5,,,58,0
709200,note_on,0,0,5,,,,,,,,,5,,,53,86
709280,note_off,160,0,1,,,,,,,,,1,,,82,0
709280,note_on,0,0,1,,,,,,,,,1,,,81,86
709440,note_on,0,0,1,,,,,,,,,1,,,82,86
709440,note_off,160,0,1,,,,,,,,,1,,,81,0
709440,note_off,240,0,5,,,,,,,,,5,,,53,0
709440,note_on,0,0,5,,,,,,,,,5,,,62,86
709600,note_on,0,0,1,,,,,,,,,1,,,80,86
709600,note_off,160,0,1,,,,,,,,,1,,,82,0
709760,note_off,160,0,1,,,,,,,,,1,,,80,0
709760,note_on,0,0,1,,,,,,,,,1,,,79,86
709825,note_off,385,0,5,,,,,,,,,5,,,62,0
709920,note_on,0,0,1,,,,,,,,,1,,,77,87
709920,note_off,160,0,1,,,,,,,,,1,,,79,0
710080,note_off,160,0,1,,,,,,,,,1,,,77,0
710080,note_on,0,0,1,,,,,,,,,1,,,79,87
710240,note_off,160,0,1,,,,,,,,,1,,,79,0
710240,note_on,0,0,1,,,,,,,,,1,,,80,87
710360,set_tempo,9065,1,0,,,,,,363636,,,,,,,
710400,set_tempo,40,1,0,,,,,,359281,,,,,,,
710400,note_on,575,0,5,,,,,,,,,5,,,51,87
710400,note_off,160,0,1,,,,,,,,,1,,,80,0
710400,note_on,0,0,1,,,,,,,,,1,,,79,87
710560,note_on,0,0,1,,,,,,,,,1,,,82,87
710560,note_off,160,0,1,,,,,,,,,1,,,79,0
710720,note_off,160,0,1,,,,,,,,,1,,,82,0
710720,note_on,0,0,1,,,,,,,,,1,,,81,86
710880,note_off,160,0,1,,,,,,,,,1,,,81,0
710880,note_on,0,0,1,,,,,,,,,1,,,79,85
711040,note_off,160,0,1,,,,,,,,,1,,,79,0
711040,note_on,0,0,1,,,,,,,,,1,,,81,85
711200,note_off,160,0,1,,,,,,,,,1,,,81,0
711200,note_on,0,0,1,,,,,,,,,1,,,82,84
711360,note_on,10200,0,4,,,,,,,,,4,,,55,84
711360,note_on,0,0,1,,,,,,,,,1,,,75,84
711360,note_off,160,0,1,,,,,,,,,1,,,82,0
711520,note_on,0,0,1,,,,,,,,,1,,,79,83
711520,note_off,160,0,1,,,,,,,,,1,,,75,0
711680,note_off,160,0,1,,,,,,,,,1,,,79,0
711680,note_on,0,0,1,,,,,,,,,1,,,77,83
711840,note_off,160,0,1,,,,,,,,,1,,,77,0
711840,note_on,0,0,1,,,,,,,,,1,,,75,82
712000,note_off,160,0,1,,,,,,,,,1,,,75,0
712000,note_on,0,0,1,,,,,,,,,1,,,77,82
712160,note_off,160,0,1,,,,,,,,,1,,,77,0
712160,note_on,0,0,1,,,,,,,,,1,,,79,81
712320,note_off,160,0,1,,,,,,,,,1,,,79,0
712320,note_on,0,0,1,,,,,,,,,1,,,72,80
712320,note_on,0,0,4,,,,,,,,,4,,,60,80
712320,note_off,960,0,4,,,,,,,,,4,,,55,0
712480,note_off,160,0,1,,,,,,,,,1,,,72,0
712480,note_on,0,0,1,,,,,,,,,1,,,75,80
712640,note_on,0,0,1,,,,,,,,,1,,,74,79
712640,note_off,160,0,1,,,,,,,,,1,,,75,0
712800,note_off,160,0,1,,,,,,,,,1,,,74,0
712800,note_on,0,0,1,,,,,,,,,1,,,72,79
712960,note_off,160,0,1,,,,,,,,,1,,,72,0
712960,note_on,0,0,1,,,,,,,,,1,,,74,78
713120,note_on,0,0,1,,,,,,,,,1,,,75,78
713120,note_off,160,0,1,,,,,,,,,1,,,74,0
713160,note_off,840,0,4,,,,,,,,,4,,,60,0
713160,note_off,2760,0,5,,,,,,,,,5,,,51,0
713280,note_on,120,0,4,,,,,,,,,4,,,60,77
713280,note_on,0,0,1,,,,,,,,,1,,,67,77
713280,note_on,120,0,5,,,,,,,,,5,,,52,77
713280,note_off,160,0,1,,,,,,,,,1,,,75,0
713440,note_off,160,0,1,,,,,,,,,1,,,67,0
713440,note_on,0,0,1,,,,,,,,,1,,,70,76
713600,note_off,160,0,1,,,,,,,,,1,,,70,0
713600,note_on,0,0,1,,,,,,,,,1,,,69,76
713760,note_off,160,0,1,,,,,,,,,1,,,69,0
713760,note_on,0,0,1,,,,,,,,,1,,,67,75
713920,note_on,0,0,1,,,,,,,,,1,,,69,75
713920,note_off,160,0,1,,,,,,,,,1,,,67,0
714080,note_on,0,0,1,,,,,,,,,1,,,70,74
714080,note_off,160,0,1,,,,,,,,,1,,,69,0
714120,note_off,840,0,4,,,,,,,,,4,,,60,0
714120,note_off,840,0,5,,,,,,,,,5,,,52,0
714175,note_off,95,0,1,,,,,,,,,1,,,70,0
714200,set_tempo,3800,1,0,,,,,,363636,,,,,,,
714240,note_on,65,0,1,,,,,,,,,1,,,69,74
714240,control_change,120,0,5,,,,,,,64,127,5,,,,
714240,note_on,0,0,5,,,,,,,,,5,,,53,74
714240,set_tempo,40,1,0,,,,,,355029,,,,,,,
714240,control_change,34610,0,3,,,,,,,64,127,3,,,,
714240,control_change,120,0,4,,,,,,,64,127,4,,,,
714360,note_on,0,0,1,,,,,,,,,1,,,65,74
714360,note_off,120,0,1,,,,,,,,,1,,,69,0
714480,note_on,0,0,1,,,,,,,,,1,,,67,74
714480,note_off,120,0,1,,,,,,,,,1,,,65,0
714480,note_on,240,0,3,,,,,,,,,3,,,60,74
714480,note_off,240,0,5,,,,,,,,,5,,,53,0
714600,note_off,120,0,1,,,,,,,,,1,,,67,0
714600,note_on,0,0,1,,,,,,,,,1,,,69,74
714720,note_off,120,0,1,,,,,,,,,1,,,69,0
714720,note_on,0,0,3,,,,,,,,,3,,,57,74
714720,note_on,0,0,1,,,,,,,,,1,,,70,74
714720,note_off,240,0,3,,,,,,,,,3,,,60,0
714840,note_off,120,0,1,,,,,,,,,1,,,70,0
714840,note_on,0,0,1,,,,,,,,,1,,,72,74
714960,note_off,240,0,3,,,,,,,,,3,,,57,0
714960,note_on,0,0,1,,,,,,,,,1,,,74,74
714960,note_off,120,0,1,,,,,,,,,1,,,72,0
714960,note_on,0,0,3,,,,,,,,,3,,,60,74
715080,note_on,0,0,1,,,,,,,,,1,,,76,74
715080,note_off,120,0,1,,,,,,,,,1,,,74,0
715140,control_change,900,0,4,,,,,,,64,0,4,,,,
715140,control_change,660,0,5,,,,,,,64,0,5,,,,
715140,control_change,180,0,3,,,,,,,64,0,3,,,,
715200,note_off,0,0,3,,,,,,,,,3,,,60,0
715200,control_change,60,0,4,,,,,,,64,127,4,,,,
715200,note_on,0,0,5,,,,,,,,,5,,,53,75
715200,note_on,0,0,1,,,,,,,,,1,,,77,75
715200,note_off,120,0,1,,,,,,,,,1,,,76,0
715200,control_change,60,0,3,,,,,,,64,127,3,,,,
715200,control_change,60,0,5,,,,,,,64,127,5,,,,
715320,note_off,120,0,1,,,,,,,,,1,,,77,0
715320,note_on,0,0,1,,,,,,,,,1,,,79,75
715440,note_off,120,0,1,,,,,,,,,1,,,79,0
715440,note_on,0,0,1,,,,,,,,,1,,,81,75
715440,note_off,240,0,5,,,,,,,,,5,,,53,0
715440,note_on,240,0,3,,,,,,,,,3,,,60,75
715560,note_off,120,0,1,,,,,,,,,1,,,81,0
715560,note_on,0,0,1,,,,,,,,,1,,,82,75
715680,note_on,0,0,3,,,,,,,,,3,,,57,75
715680,note_off,240,0,3,,,,,,,,,3,,,60,0
715680,note_on,0,0,1,,,,,,,,,1,,,84,75
715680,note_off,120,0,1,,,,,,,,,1,,,82,0
715835,note_off,155,0,1,,,,,,,,,1,,,84,0
715920,note_on,85,0,1,,,,,,,,,1,,,75,75
715920,note_off,240,0,3,,,,,,,,,3,,,57,0
715920,note_on,0,0,3,,,,,,,,,3,,,60,75
716075,note_off,155,0,1,,,,,,,,,1,,,75,0
716100,control_change,900,0,4,,,,,,,64,0,4,,,,
716100,control_change,180,0,3,,,,,,,64,0,3,,,,
716100,control_change,660,0,5,,,,,,,64,0,5,,,,
716110,note_off,10,0,3,,,,,,,,,3,,,60,0
716160,note_on,85,0,1,,,,,,,,,1,,,74,76
716160,control_change,60,0,4,,,,,,,64,127,4,,,,
716160,control_change,60,0,5,,,,,,,64,127,5,,,,
716160,note_on,0,0,5,,,,,,,,,5,,,53,76
716160,control_change,50,0,3,,,,,,,64,127,3,,,,
716280,note_off,120,0,1,,,,,,,,,1,,,74,0
716280,note_on,0,0,1,,,,,,,,,1,,,70,76
716400,note_off,240,0,5,,,,,,,,,5,,,53,0
716400,note_off,120,0,1,,,,,,,,,1,,,70,0
716400,note_on,0,0,1,,,,,,,,,1,,,72,76
716400,note_on,240,0,3,,,,,,,,,3,,,62,76
716520,note_off,120,0,1,,,,,,,,,1,,,72,0
716520,note_on,0,0,1,,,,,,,,,1,,,74,76
716640,note_off,240,0,3,,,,,,,,,3,,,62,0
716640,note_on,0,0,1,,,,,,,,,1,,,75,76
716640,note_off,120,0,1,,,,,,,,,1,,,74,0
716640,note_on,0,0,3,,,,,,,,,3,,,58,76
716760,note_on,0,0,1,,,,,,,,,1,,,77,76
716760,note_off,120,0,1,,,,,,,,,1,,,75,0
716880,note_off,120,0,1,,,,,,,,,1,,,77,0
716880,note_off,240,0,3,,,,,,,,,3,,,58,0
716880,note_on,0,0,1,,,,,,,,,1,,,79,76
716880,note_on,0,0,3,,,,,,,,,3,,,62,76
717000,note_on,0,0,1,,,,,,,,,1,,,81,76
717000,note_off,120,0,1,,,,,,,,,1,,,79,0
717060,control_change,180,0,3,,,,,,,64,0,3,,,,
717060,control_change,660,0,5,,,,,,,64,0,5,,,,
717060,control_change,900,0,4,,,,,,,64,0,4,,,,
717120,control_change,60,0,5,,,,,,,64,127,5,,,,
717120,note_on,0,0,5,,,,,,,,,5,,,53,76
717120,note_off,0,0,3,,,,,,,,,3,,,62,0
717120,note_on,0,0,1,,,,,,,,,1,,,82,76
717120,note_off,120,0,1,,,,,,,,,1,,,81,0
717120,control_change,60,0,3,,,,,,,64,127,3,,,,
717120,control_change,60,0,4,,,,,,,64,127,4,,,,
717240,note_on,0,0,1,,,,,,,,,1,,,84,77
717240,note_off,120,0,1,,,,,,,,,1,,,82,0
717360,note_on,240,0,3,,,,,,,,,3,,,62,77
717360,note_off,240,0,5,,,,,,,,,5,,,53,0
717360,note_on,0,0,1,,,,,,,,,1,,,86,77
717360,note_off,120,0,1,,,,,,,,,1,,,84,0
717480,note_on,0,0,1,,,,,,,,,1,,,87,77
717480,note_off,120,0,1,,,,,,,,,1,,,86,0
717600,note_on,0,0,3,,,,,,,,,3,,,58,77
717600,note_on,0,0,1,,,,,,,,,1,,,89,77
717600,note_off,240,0,3,,,,,,,,,3,,,62,0
717600,note_off,120,0,1,,,,,,,,,1,,,87,0
717755,note_off,155,0,1,,,,,,,,,1,,,89,0
717840,note_on,85,0,1,,,,,,,,,1,,,82,77
717840,note_on,0,0,3,,,,,,,,,3,,,62,77
717840,note_off,240,0,3,,,,,,,,,3,,,58,0
717995,note_off,155,0,1,,,,,,,,,1,,,82,0
718020,control_change,180,0,3,,,,,,,64,0,3,,,,
718020,control_change,900,0,4,,,,,,,64,0,4,,,,
718020,control_change,660,0,5,,,,,,,64,0,5,,,,
718030,note_off,10,0,3,,,,,,,,,3,,,62,0
718080,note_on,85,0,1,,,,,,,,,1,,,81,77
718080,note_on,0,0,5,,,,,,,,,5,,,53,77
718080,control_change,50,0,3,,,,,,,64,127,3,,,,
718080,control_change,60,0,5,,,,,,,64,127,5,,,,
718080,control_change,60,0,4,,,,,,,64,127,4,,,,
718200,note_off,120,0,1,,,,,,,,,1,,,81,0
718200,note_on,0,0,1,,,,,,,,,1,,,82,78
718320,note_off,120,0,1,,,,,,,,,1,,,82,0
718320,note_off,240,0,5,,,,,,,,,5,,,53,0
718320,note_on,240,0,3,,,,,,,,,3,,,63,78
718320,note_on,0,0,1,,,,,,,,,1,,,84,78
718440,note_off,120,0,1,,,,,,,,,1,,,84,0
718440,note_on,0,0,1,,,,,,,,,1,,,82,78
718560,note_off,240,0,3,,,,,,,,,3,,,63,0
718560,note_on,0,0,3,,,,,,,,,3,,,60,78
718560,note_off,120,0,1,,,,,,,,,1,,,82,0
718560,note_on,0,0,1,,,,,,,,,1,,,81,78
718680,note_on,0,0,1,,,,,,,,,1,,,82,78
718680,note_off,120,0,1,,,,,,,,,1,,,81,0
718800,note_on,0,0,3,,,,,,,,,3,,,63,78
718800,note_off,240,0,3,,,,,,,,,3,,,60,0
718800,note_off,120,0,1,,,,,,,,,1,,,82,0
718800,note_on,0,0,1,,,,,,,,,1,,,84,78
718920,note_on,0,0,1,,,,,,,,,1,,,86,78
718920,note_off,120,0,1,,,,,,,,,1,,,84,0
718980,control_change,900,0,4,,,,,,,64,0,4,,,,
718980,control_change,180,0,3,,,,,,,64,0,3,,,,
718980,control_change,660,0,5,,,,,,,64,0,5,,,,
719040,control_change,60,0,4,,,,,,,64,127,4,,,,
719040,note_on,0,0,1,,,,,,,,,1,,,87,78
719040,note_off,120,0,1,,,,,,,,,1,,,86,0
719040,note_on,0,0,5,,,,,,,,,5,,,53,78
719040,control_change,60,0,3,,,,,,,64,127,3,,,,
719040,control_change,60,0,5,,,,,,,64,127,5,,,,
719040,note_off,0,0,3,,,,,,,,,3,,,63,0
719160,note_off,120,0,1,,,,,,,,,1,,,87,0
719160,note_on,0,0,1,,,,,,,,,1,,,86,79
719280,note_on,240,0,3,,,,,,,,,3,,,60,79
719280,note_off,240,0,5,,,,,,,,,5,,,53,0
719280,note_off,120,0,1,,,,,,,,,1,,,86,0
719280,note_on,0,0,1,,,,,,,,,1,,,84,79
719400,note_off,120,0,1,,,,,,,,,1,,,84,0
719400,note_on,0,0,1,,,,,,,,,1,,,82,79
719520,note_on,0,0,1,,,,,,,,,1,,,81,79
719520,note_on,0,0,3,,,,,,,,,3,,,57,79
719520,note_off,120,0,1,,,,,,,,,1,,,82,0
719520,note_off,240,0,3,,,,,,,,,3,,,60,0
719640,note_on,0,0,1,,,,,,,,,1,,,79,79
719640,note_off,120,0,1,,,,,,,,,1,,,81,0
719760,note_off,240,0,3,,,,,,,,,3,,,57,0
719760,note_on,0,0,3,,,,,,,,,3,,,60,79
719760,note_on,0,0,1,,,,,,,,,1,,,77,79
719760,note_off,120,0,1,,,,,,,,,1,,,79,0
719880,note_on,0,0,1,,,,,,,,,1,,,75,79
719880,note_off,120,0,1,,,,,,,,,1,,,77,0
719940,control_change,900,0,4,,,,,,,64,0,4,,,,
719940,control_change,180,0,3,,,,,,,64,0,3,,,,
719940,control_change,660,0,5,,,,,,,64,0,5,,,,
719950,note_off,10,0,3,,,,,,,,,3,,,60,0
720000,note_on,0,0,5,,,,,,,,,5,,,53,79
720000,control_change,60,0,5,,,,,,,64,127,5,,,,
720000,note_off,120,0,1,,,,,,,,,1,,,75,0
720000,control_change,60,0,4,,,,,,,64,127,4,,,,
720000,note_on,0,0,1,,,,,,,,,1,,,74,79
720000,control_change,50,0,3,,,,,,,64,127,3,,,,
720120,note_off,120,0,1,,,,,,,,,1,,,74,0
720120,note_on,0,0,1,,,,,,,,,1,,,77,79
720240,note_off,120,0,1,,,,,,,,,1,,,77,0
720240,note_off,240,0,5,,,,,,,,,5,,,53,0
720240,note_on,240,0,3,,,,,,,,,3,,,62,80
720240,note_on,0,0,1,,,,,,,,,1,,,75,80
720360,note_on,0,0,1,,,,,,,,,1,,,74,80
720360,note_off,120,0,1,,,,,,,,,1,,,75,0
720480,note_off,120,0,1,,,,,,,,,1,,,74,0
720480,note_on,0,0,1,,,,,,,,,1,,,75,80
720480,note_off,240,0,3,,,,,,,,,3,,,62,0
720480,note_on,0,0,3,,,,,,,,,3,,,58,80
720600,note_off,120,0,1,,,,,,,,,1,,,75,0
720600,note_on,0,0,1,,,,,,,,,1,,,77,80
720720,note_off,120,0,1,,,,,,,,,1,,,77,0
720720,note_on,0,0,3,,,,,,,,,3,,,62,80
720720,note_off,240,0,3,,,,,,,,,3,,,58,0
720720,note_on,0,0,1,,,,,,,,,1,,,79,80
720840,note_off,120,0,1,,,,,,,,,1,,,79,0
720840,note_on,0,0,1,,,,,,,,,1,,,81,80
720900,control_change,660,0,5,,,,,,,64,0,5,,,,
720900,control_change,900,0,4,,,,,,,64,0,4,,,,
720900,control_change,180,0,3,,,,,,,64,0,3,,,,
720960,control_change,60,0,3,,,,,,,64,127,3,,,,
720960,note_off,0,0,3,,,,,,,,,3,,,62,0
720960,note_off,120,0,1,,,,,,,,,1,,,81,0
720960,note_on,0,0,1,,,,,,,,,1,,,82,80
720960,control_change,60,0,5,,,,,,,64,127,5,,,,
720960,note_on,0,0,5,,,,,,,,,5,,,53,80
720960,control_change,60,0,4,,,,,,,64,127,4,,,,
721080,note_off,120,0,1,,,,,,,,,1,,,82,0
721080,note_on,0,0,1,,,,,,,,,1,,,81,80
721200,note_on,0,0,1,,,,,,,,,1,,,79,81
721200,note_on,240,0,3,,,,,,,,,3,,,62,81
721200,note_off,120,0,1,,,,,,,,,1,,,81,0
721200,note_off,240,0,5,,,,,,,,,5,,,53,0
721320,note_on,0,0,1,,,,,,,,,1,,,77,81
721320,note_off,120,0,1,,,,,,,,,1,,,79,0
721440,note_on,0,0,3,,,,,,,,,3,,,58,81
721440,note_off,240,0,3,,,,,,,,,3,,,62,0
721440,note_off,120,0,1,,,,,,,,,1,,,77,0
721440,note_on,0,0,1,,,,,,,,,1,,,75,81
721560,note_off,120,0,1,,,,,,,,,1,,,75,0
721560,note_on,0,0,1,,,,,,,,,1,,,74,81
721680,note_on,0,0,3,,,,,,,,,3,,,62,81
721680,note_off,240,0,3,,,,,,,,,3,,,58,0
721680,note_on,0,0,1,,,,,,,,,1,,,72,81
721680,note_off,120,0,1,,,,,,,,,1,,,74,0
721800,note_on,0,0,1,,,,,,,,,1,,,70,81
721800,note_off,120,0,1,,,,,,,,,1,,,72,0
721860,control_change,180,0,3,,,,,,,64,0,3,,,,
721860,control_change,900,0,4,,,,,,,64,0,4,,,,
721860,control_change,660,0,5,,,,,,,64,0,5,,,,
721870,note_off,10,0,3,,,,,,,,,3,,,62,0
721880,set_tempo,7640,1,0,,,,,,359281,,,,,,,
721920,note_on,0,0,1,,,,,,,,,1,,,77,81
721920,note_on,60,0,4,,,,,,,,,4,,,57,81
721920,note_on,60,0,5,,,,,,,,,5,,,53,81
721920,note_on,0,0,4,,,,,,,,,4,,,60,81
721920,note_off,120,0,1,,,,,,,,,1,,,70,0
722230,note_off,310,0,1,,,,,,,,,1,,,77,0
722305,note_off,385,0,5,,,,,,,,,5,,,53,0
722305,note_off,385,0,4,,,,,,,,,4,,,60,0
722305,note_off,0,0,4,,,,,,,,,4,,,57,0
722400,note_on,170,0,1,,,,,,,,,1,,,65,64
722710,note_off,310,0,1,,,,,,,,,1,,,65,0
722840,set_tempo,960,1,0,,,,,,363636,,,,,,,
722880,control_change,1010,0,3,,,,,,,64,127,3,,,,
722880,control_change,575,0,5,,,,,,,64,127,5,,,,
722880,note_on,0,0,5,,,,,,,,,5,,,51,44
722880,control_change,575,0,4,,,,,,,64,127,4,,,,
722880,note_on,170,0,1,,,,,,,,,1,,,72,44
722880,set_tempo,40,1,0,,,,,,355029,,,,,,,
723120,note_off,240,0,5,,,,,,,,,5,,,51,0
723120,note_on,240,0,3,,,,,,,,,3,,,53,45
723300,control_change,180,0,5,,,,,,,64,0,5,,,,
723300,control_change,420,0,4,,,,,,,64,0,4,,,,
723300,control_change,180,0,3,,,,,,,64,0,3,,,,
723360,control_change,60,0,3,,,,,,,64,127,3,,,,
723360,control_change,60,0,5,,,,,,,64,127,5,,,,
723360,note_on,0,0,5,,,,,,,,,5,,,51,45
723360,control_change,60,0,4,,,,,,,64,127,4,,,,
723360,note_off,0,0,3,,,,,,,,,3,,,53,0
723600,note_off,720,0,1,,,,,,,,,1,,,72,0
723600,note_on,240,0,3,,,,,,,,,3,,,53,46
723600,note_on,0,0,1,,,,,,,,,1,,,69,46
723600,note_off,240,0,5,,,,,,,,,5,,,51,0
723720,note_off,120,0,1,,,,,,,,,1,,,69,0
723720,note_on,0,0,1,,,,,,,,,1,,,65,46
723780,control_change,180,0,5,,,,,,,64,0,5,,,,
723780,control_change,420,0,4,,,,,,,64,0,4,,,,
723780,control_change,180,0,3,,,,,,,64,0,3,,,,
723790,note_off,10,0,3,,,,,,,,,3,,,53,0
723840,control_change,50,0,3,,,,,,,64,127,3,,,,
723840,note_on,0,0,1,,,,,,,,,1,,,70,47
723840,note_off,120,0,1,,,,,,,,,1,,,65,0
723840,control_change,60,0,4,,,,,,,64,127,4,,,,
723840,note_on,0,0,5,,,,,,,,,5,,,50,47
723840,control_change,60,0,5,,,,,,,64,127,5,,,,
724080,note_on,240,0,3,,,,,,,,,3,,,53,47
724080,note_off,240,0,5,,,,,,,,,5,,,50,0
724260,control_change,420,0,4,,,,,,,64,0,4,,,,
724260,control_change,180,0,3,,,,,,,64,0,3,,,,
724260,control_change,180,0,5,,,,,,,64,0,5,,,,
724320,control_change,60,0,3,,,,,,,64,127,3,,,,
724320,note_off,480,0,1,,,,,,,,,1,,,70,0
724320,note_on,0,0,1,,,,,,,,,1,,,71,48
724320,control_change,60,0,5,,,,,,,64,127,5,,,,
724320,control_change,60,0,4,,,,,,,64,127,4,,,,
724320,note_on,0,0,5,,,,,,,,,5,,,50,48
724320,note_off,0,0,3,,,,,,,,,3,,,53,0
724560,note_off,240,0,5,,,,,,,,,5,,,50,0
724560,note_on,240,0,3,,,,,,,,,3,,,53,49
724705,note_off,385,0,1,,,,,,,,,1,,,71,0
724740,control_change,420,0,4,,,,,,,64,0,4,,,,
724740,control_change,180,0,3,,,,,,,64,0,3,,,,
724740,control_change,180,0,5,,,,,,,64,0,5,,,,
724800,control_change,60,0,4,,,,,,,64,127,4,,,,
724800,note_on,0,0,5,,,,,,,,,5,,,51,49
724800,note_on,95,0,1,,,,,,,,,1,,,72,49
724800,control_change,60,0,5,,,,,,,64,127,5,,,,
724800,control_change,60,0,3,,,,,,,64,127,3,,,,
724800,note_off,0,0,3,,,,,,,,,3,,,53,0
725040,note_on,240,0,3,,,,,,,,,3,,,53,50
725040,note_off,240,0,5,,,,,,,,,5,,,51,0
725220,control_change,180,0,3,,,,,,,64,0,3,,,,
725220,control_change,180,0,5,,,,,,,64,0,5,,,,
725220,control_change,420,0,4,,,,,,,64,0,4,,,,
725280,control_change,60,0,5,,,,,,,64,127,5,,,,
725280,note_on,0,0,5,,,,,,,,,5,,,51,50
725280,control_change,60,0,3,,,,,,,64,127,3,,,,
725280,note_off,0,0,3,,,,,,,,,3,,,53,0
725280,control_change,60,0,4,,,,,,,64,127,4,,,,
725520,note_on,240,0,3,,,,,,,,,3,,,53,51
725520,note_on,0,0,1,,,,,,,,,1,,,69,51
725520,note_off,720,0,1,,,,,,,,,1,,,72,0
725520,note_off,240,0,5,,,,,,,,,5,,,51,0
725640,note_on,0,0,1,,,,,,,,,1,,,65,51
725640,note_off,120,0,1,,,,,,,,,1,,,69,0
725700,control_change,420,0,4,,,,,,,64,0,4,,,,
725700,control_change,180,0,3,,,,,,,64,0,3,,,,
725700,control_change,180,0,5,,,,,,,64,0,5,,,,
725710,note_off,10,0,3,,,,,,,,,3,,,53,0
725760,note_off,120,0,1,,,,,,,,,1,,,65,0
725760,note_on,0,0,1,,,,,,,,,1,,,70,52
725760,control_change,60,0,5,,,,,,,64,127,5,,,,
725760,control_change,60,0,4,,,,,,,64,127,4,,,,
725760,note_on,0,0,5,,,,,,,,,5,,,50,52
725760,control_change,50,0,3,,,,,,,64,127,3,,,,
726000,note_on,240,0,3,,,,,,,,,3,,,53,52
726000,note_off,240,0,5,,,,,,,,,5,,,50,0
726145,note_off,385,0,1,,,,,,,,,1,,,70,0
726180,control_change,420,0,4,,,,,,,64,0,4,,,,
726180,control_change,0,0,3,,,,,,,64,0,3,,,,
726180,control_change,180,0,3,,,,,,,64,0,3,,,,
726180,control_change,0,0,5,,,,,,,64,0,5,,,,
726180,control_change,180,0,5,,,,,,,64,0,5,,,,
726180,control_change,0,0,4,,,,,,,64,0,4,,,,
726240,note_on,0,0,5,,,,,,,,,5,,,50,53
726240,control_change,60,0,4,,,,,,,64,127,4,,,,
726240,note_off,0,0,3,,,,,,,,,3,,,53,0
726240,control_change,60,0,5,,,,,,,64,127,5,,,,
726240,control_change,60,0,3,,,,,,,64,127,3,,,,
726480,note_on,240,0,3,,,,,,,,,3,,,53,54
726480,note_off,240,0,5,,,,,,,,,5,,,50,0
726660,control_change,420,0,4,,,,,,,64,0,4,,,,
726660,control_change,180,0,5,,,,,,,64,0,5,,,,
726660,control_change,180,0,3,,,,,,,64,0,3,,,,
726720,control_change,60,0,4,,,,,,,64,127,4,,,,
726720,note_on,0,0,5,,,,,,,,,5,,,51,54
726720,control_change,60,0,3,,,,,,,64,127,3,,,,
726720,note_off,0,0,3,,,,,,,,,3,,,53,0
726720,control_change,60,0,5,,,,,,,64,127,5,,,,
726720,note_on,575,0,1,,,,,,,,,1,,,72,54
726875,note_off,155,0,1,,,,,,,,,1,,,72,0
726960,note_off,240,0,5,,,,,,,,,5,,,51,0
726960,note_on,85,0,1,,,,,,,,,1,,,72,55
726960,note_on,240,0,3,,,,,,,,,3,,,53,55
727140,control_change,180,0,5,,,,,,,64,0,5,,,,
727140,control_change,420,0,4,,,,,,,64,0,4,,,,
727140,control_change,180,0,3,,,,,,,64,0,3,,,,
727200,control_change,60,0,4,,,,,,,64,127,4,,,,
727200,control_change,60,0,3,,,,,,,64,127,3,,,,
727200,note_off,0,0,3,,,,,,,,,3,,,53,0
727200,note_on,0,0,5,,,,,,,,,5,,,51,56
727200,control_change,60,0,5,,,,,,,64,127,5,,,,
727440,note_on,0,0,1,,,,,,,,,1,,,69,56
727440,note_on,240,0,3,,,,,,,,,3,,,53,56
727440,note_off,240,0,5,,,,,,,,,5,,,51,0
727440,note_off,480,0,1,,,,,,,,,1,,,72,0
727560,note_on,0,0,1,,,,,,,,,1,,,65,57
727560,note_off,120,0,1,,,,,,,,,1,,,69,0
727620,control_change,420,0,4,,,,,,,64,0,4,,,,
727620,control_change,180,0,3,,,,,,,64,0,3,,,,
727620,control_change,180,0,5,,,,,,,64,0,5,,,,
727630,note_off,10,0,3,,,,,,,,,3,,,53,0
727680,control_change,60,0,4,,,,,,,64,127,4,,,,
727680,control_change,50,0,3,,,,,,,64,127,3,,,,
727680,control_change,60,0,5,,,,,,,64,127,5,,,,
727680,note_on,0,0,5,,,,,,,,,5,,,50,57
727680,note_on,0,0,1,,,,,,,,,1,,,70,57
727680,note_off,120,0,1,,,,,,,,,1,,,65,0
727835,note_off,155,0,1,,,,,,,,,1,,,70,0
727920,note_off,240,0,5,,,,,,,,,5,,,50,0
727920,note_on,240,0,3,,,,,,,,,3,,,53,58
727920,note_on,85,0,1,,,,,,,,,1,,,70,58
728075,note_off,155,0,1,,,,,,,,,1,,,70,0
728100,control_change,180,0,3,,,,,,,64,0,3,,,,
728100,control_change,180,0,5,,,,,,,64,0,5,,,,
728100,control_change,420,0,4,,,,,,,64,0,4,,,,
728160,control_change,60,0,3,,,,,,,64,127,3,,,,
728160,note_off,0,0,3,,,,,,,,,3,,,53,0
728160,note_on,0,0,5,,,,,,,,,5,,,50,58
728160,control_change,60,0,5,,,,,,,64,127,5,,,,
728160,control_change,60,0,4,,,,,,,64,127,4,,,,
728160,note_on,85,0,1,,,,,,,,,1,,,71,58
728315,note_off,155,0,1,,,,,,,,,1,,,71,0
728400,note_off,240,0,5,,,,,,,,,5,,,50,0
728400,note_on,240,0,3,,,,,,,,,3,,,53,59
728400,note_on,85,0,1,,,,,,,,,1,,,71,59
728555,note_off,155,0,1,,,,,,,,,1,,,71,0
728580,control_change,180,0,5,,,,,,,64,0,5,,,,
728580,control_change,180,0,3,,,,,,,64,0,3,,,,
728580,control_change,420,0,4,,,,,,,64,0,4,,,,
728640,control_change,60,0,4,,,,,,,64,127,4,,,,
728640,control_change,60,0,5,,,,,,,64,127,5,,,,
728640,note_on,85,0,1,,,,,,,,,1,,,72,59
728640,control_change,60,0,3,,,,,,,64,127,3,,,,
728640,note_off,0,0,3,,,,,,,,,3,,,53,0
728640,note_on,0,0,5,,,,,,,,,5,,,51,59
728795,note_off,155,0,1,,,,,,,,,1,,,72,0
728880,note_on,240,0,3,,,,,,,,,3,,,53,60
728880,note_off,240,0,5,,,,,,,,,5,,,51,0
728880,note_on,85,0,1,,,,,,,,,1,,,72,60
729060,control_change,420,0,4,,,,,,,64,0,4,,,,
729060,control_change,180,0,5,,,,,,,64,0,5,,,,
729060,control_change,180,0,3,,,,,,,64,0,3,,,,
729120,note_off,0,0,3,,,,,,,,,3,,,53,0
729120,control_change,60,0,5,,,,,,,64,127,5,,,,
729120,control_change,60,0,4,,,,,,,64,127,4,,,,
729120,note_on,0,0,5,,,,,,,,,5,,,51,61
729120,control_change,60,0,3,,,,,,,64,127,3,,,,
729360,note_on,240,0,3,,,,,,,,,3,,,53,61
729360,note_off,240,0,5,,,,,,,,,5,,,51,0
729360,note_on,480,0,1,,,,,,,,,1,,,69,61
729365,note_off,5,0,1,,,,,,,,,1,,,72,0
729480,note_off,115,0,1,,,,,,,,,1,,,69,0
729480,note_on,0,0,1,,,,,,,,,1,,,65,62
729540,control_change,180,0,5,,,,,,,64,0,5,,,,
729540,control_change,180,0,3,,,,,,,64,0,3,,,,
729540,control_change,420,0,4,,,,,,,64,0,4,,,,
729600,note_on,0,0,1,,,,,,,,,1,,,70,62
729600,note_off,120,0,1,,,,,,,,,1,,,65,0
729600,control_change,60,0,4,,,,,,,64,127,4,,,,
729600,note_on,0,0,5,,,,,,,,,5,,,50,62
729600,control_change,60,0,5,,,,,,,64,127,5,,,,
729600,control_change,60,0,3,,,,,,,64,127,3,,,,
729600,note_off,0,0,3,,,,,,,,,3,,,53,0
729790,note_off,190,0,5,,,,,,,,,5,,,50,0
729840,note_on,240,0,3,,,,,,,,,3,,,65,63
729985,note_off,385,0,1,,,,,,,,,1,,,70,0
730020,control_change,180,0,3,,,,,,,64,0,3,,,,
730020,control_change,420,0,4,,,,,,,64,0,4,,,,
730020,control_change,230,0,5,,,,,,,64,0,5,,,,
730080,note_off,0,0,3,,,,,,,,,3,,,65,0
730080,control_change,60,0,3,,,,,,,64,127,3,,,,
730080,note_on,0,0,5,,,,,,,,,5,,,62,63
730080,control_change,60,0,4,,,,,,,64,127,4,,,,
730080,control_change,60,0,5,,,,,,,64,127,5,,,,
730320,note_on,240,0,3,,,,,,,,,3,,,65,64
730320,note_off,240,0,5,,,,,,,,,5,,,62,0
730500,control_change,180,0,3,,,,,,,64,0,3,,,,
730500,control_change,180,0,5,,,,,,,64,0,5,,,,
730500,control_change,420,0,4,,,,,,,64,0,4,,,,
730560,note_on,575,0,1,,,,,,,,,1,,,83,65
730560,control_change,60,0,3,,,,,,,64,127,3,,,,
730560,note_off,0,0,3,,,,,,,,,3,,,65,0
730560,control_change,60,0,4,,,,,,,64,127,4,,,,
730560,control_change,60,0,5,,,,,,,64,127,5,,,,
730560,note_on,0,0,5,,,,,,,,,5,,,63,65
730680,note_off,120,0,1,,,,,,,,,1,,,83,0
730680,note_on,0,0,1,,,,,,,,,1,,,84,65
730800,note_on,0,0,1,,,,,,,,,1,,,86,65
730800,note_off,120,0,1,,,,,,,,,1,,,84,0
730800,note_off,240,0,5,,,,,,,,,5,,,63,0
730800,note_on,240,0,3,,,,,,,,,3,,,65,65
730920,note_on,0,0,1,,,,,,,,,1,,,84,66
730920,note_off,120,0,1,,,,,,,,,1,,,86,0
730980,control_change,180,0,5,,,,,,,64,0,5,,,,
730980,control_change,180,0,3,,,,,,,64,0,3,,,,
730980,control_change,420,0,4,,,,,,,64,0,4,,,,
731040,note_on,0,0,1,,,,,,,,,1,,,82,66
731040,control_change,60,0,5,,,,,,,64,127,5,,,,
731040,note_on,0,0,5,,,,,,,,,5,,,63,66
731040,note_off,120,0,1,,,,,,,,,1,,,84,0
731040,control_change,60,0,3,,,,,,,64,127,3,,,,
731040,note_off,0,0,3,,,,,,,,,3,,,65,0
731040,control_change,60,0,4,,,,,,,64,127,4,,,,
731160,note_on,0,0,1,,,,,,,,,1,,,81,66
731160,note_off,120,0,1,,,,,,,,,1,,,82,0
731280,note_on,240,0,3,,,,,,,,,3,,,65,67
731280,note_off,120,0,1,,,,,,,,,1,,,81,0
731280,note_off,240,0,5,,,,,,,,,5,,,63,0
731280,note_on,0,0,1,,,,,,,,,1,,,79,67
731400,note_off,120,0,1,,,,,,,,,1,,,79,0
731400,note_on,0,0,1,,,,,,,,,1,,,77,67
731460,control_change,180,0,3,,,,,,,64,0,3,,,,
731460,control_change,180,0,5,,,,,,,64,0,5,,,,
731460,control_change,420,0,4,,,,,,,64,0,4,,,,
731470,note_off,10,0,3,,,,,,,,,3,,,65,0
731480,set_tempo,8600,1,0,,,,,,359281,,,,,,,
731520,note_on,0,0,1,,,,,,,,,1,,,82,67
731520,set_tempo,40,1,0,,,,,,355029,,,,,,,
731520,note_off,120,0,1,,,,,,,,,1,,,77,0
731520,note_on,60,0,5,,,,,,,,,5,,,62,67
731615,note_off,95,0,1,,,,,,,,,1,,,82,0
731640,note_on,32375,0,2,,,,,,,,,2,,,77,68
731735,note_off,95,0,2,,,,,,,,,2,,,77,0
731760,note_on,145,0,1,,,,,,,,,1,,,86,68
731855,note_off,95,0,1,,,,,,,,,1,,,86,0
731880,note_on,145,0,2,,,,,,,,,2,,,82,68
731905,note_off,385,0,5,,,,,,,,,5,,,62,0
731975,note_off,95,0,2,,,,,,,,,2,,,82,0
732000,note_on,145,0,1,,,,,,,,,1,,,89,69
732095,note_off,95,0,1,,,,,,,,,1,,,89,0
732120,note_on,145,0,2,,,,,,,,,2,,,86,69
732215,note_off,95,0,2,,,,,,,,,2,,,86,0
732240,note_on,145,0,1,,,,,,,,,1,,,89,69
732335,note_off,95,0,1,,,,,,,,,1,,,89,0
732360,note_on,145,0,2,,,,,,,,,2,,,86,69
732455,note_off,95,0,2,,,,,,,,,2,,,86,0
732480,note_on,145,0,1,,,,,,,,,1,,,89,70
732575,note_off,95,0,1,,,,,,,,,1,,,89,0
732600,note_on,25,0,1,,,,,,,,,1,,,87,70
732695,note_off,95,0,1,,,,,,,,,1,,,87,0
732720,note_on,25,0,1,,,,,,,,,1,,,86,70
732815,note_off,95,0,1,,,,,,,,,1,,,86,0
732840,note_on,25,0,1,,,,,,,,,1,,,84,71
732935,note_off,95,0,1,,,,,,,,,1,,,84,0
732960,note_on,1055,0,5,,,,,,,,,5,,,50,71
732960,note_on,1500,0,4,,,,,,,,,4,,,58,71
732960,note_on,25,0,1,,,,,,,,,1,,,82,71
733055,note_off,95,0,1,,,,,,,,,1,,,82,0
733080,note_on,25,0,1,,,,,,,,,1,,,81,71
733175,note_off,95,0,1,,,,,,,,,1,,,81,0
733200,note_on,25,0,1,,,,,,,,,1,,,79,72
733295,note_off,95,0,1,,,,,,,,,1,,,79,0
733320,note_on,25,0,1,,,,,,,,,1,,,77,72
733345,note_off,385,0,4,,,,,,,,,4,,,58,0
733345,note_off,385,0,5,,,,,,,,,5,,,50,0
733400,set_tempo,1880,1,0,,,,,,359281,,,,,,,
733415,note_off,95,0,1,,,,,,,,,1,,,77,0
733440,note_on,95,0,5,,,,,,,,,5,,,51,72
733440,set_tempo,40,1,0,,,,,,355029,,,,,,,
733440,note_on,95,0,4,,,,,,,,,4,,,58,72
733440,note_on,25,0,1,,,,,,,,,1,,,79,72
733535,note_off,95,0,1,,,,,,,,,1,,,79,0
733560,note_on,25,0,1,,,,,,,,,1,,,75,73
733655,note_off,95,0,1,,,,,,,,,1,,,75,0
733680,note_on,25,0,1,,,,,,,,,1,,,82,73
733775,note_off,95,0,1,,,,,,,,,1,,,82,0
733800,note_on,25,0,1,,,,,,,,,1,,,81,73
733825,note_off,385,0,4,,,,,,,,,4,,,58,0
733825,note_off,385,0,5,,,,,,,,,5,,,51,0
733895,note_off,95,0,1,,,,,,,,,1,,,81,0
733920,note_on,25,0,1,,,,,,,,,1,,,82,74
734015,note_off,95,0,1,,,,,,,,,1,,,82,0
734040,note_on,25,0,1,,,,,,,,,1,,,81,74
734135,note_off,95,0,1,,,,,,,,,1,,,81,0
734160,note_on,25,0,1,,,,,,,,,1,,,82,74
734255,note_off,95,0,1,,,,,,,,,1,,,82,0
734280,note_on,25,0,1,,,,,,,,,1,,,81,75
734375,note_off,95,0,1,,,,,,,,,1,,,81,0
734400,note_on,25,0,1,,,,,,,,,1,,,82,75
734495,note_off,95,0,1,,,,,,,,,1,,,82,0
734520,note_on,25,0,1,,,,,,,,,1,,,81,75
734615,note_off,95,0,1,,,,,,,,,1,,,81,0
734640,note_on,25,0,1,,,,,,,,,1,,,79,76
734735,note_off,95,0,1,,,,,,,,,1,,,79,0
734760,note_on,25,0,1,,,,,,,,,1,,,77,76
734855,note_off,95,0,1,,,,,,,,,1,,,77,0
734880,note_on,25,0,1,,,,,,,,,1,,,75,76
734880,note_on,1055,0,5,,,,,,,,,5,,,51,76
734880,note_on,0,0,4,,,,,,,,,4,,,60,76
734880,note_on,1055,0,4,,,,,,,,,4,,,58,76
734975,note_off,95,0,1,,,,,,,,,1,,,75,0
735000,note_on,25,0,1,,,,,,,,,1,,,74,77
735095,note_off,95,0,1,,,,,,,,,1,,,74,0
735120,note_on,25,0,1,,,,,,,,,1,,,72,77
735215,note_off,95,0,1,,,,,,,,,1,,,72,0
735240,note_on,25,0,1,,,,,,,,,1,,,70,77
735265,note_off,385,0,5,,,,,,,,,5,,,51,0
735265,note_off,385,0,4,,,,,,,,,4,,,60,0
735265,note_off,0,0,4,,,,,,,,,4,,,58,0
735320,set_tempo,1880,1,0,,,,,,359281,,,,,,,
735335,note_off,95,0,1,,,,,,,,,1,,,70,0
735360,note_on,25,0,1,,,,,,,,,1,,,65,78
735360,control_change,95,0,4,,,,,,,64,127,4,,,,
735360,note_on,0,0,5,,,,,,,,,5,,,53,78
735360,control_change,95,0,5,,,,,,,64,127,5,,,,
735360,set_tempo,40,1,0,,,,,,355029,,,,,,,
735360,control_change,3890,0,3,,,,,,,64,127,3,,,,
735455,note_off,95,0,1,,,,,,,,,1,,,65,0
735480,note_on,25,0,1,,,,,,,,,1,,,77,78
735600,note_off,240,0,5,,,,,,,,,5,,,53,0
735600,note_on,240,0,3,,,,,,,,,3,,,62,78
735600,note_off,120,0,1,,,,,,,,,1,,,77,0
735600,note_on,0,0,1,,,,,,,,,1,,,79,78
735720,note_off,120,0,1,,,,,,,,,1,,,79,0
735720,note_on,0,0,1,,,,,,,,,1,,,77,79
735840,note_on,0,0,1,,,,,,,,,1,,,75,79
735840,note_off,120,0,1,,,,,,,,,1,,,77,0
735840,note_off,240,0,3,,,,,,,,,3,,,62,0
735840,note_on,0,0,3,,,,,,,,,3,,,58,79
735960,note_on,0,0,1,,,,,,,,,1,,,74,79
735960,note_off,120,0,1,,,,,,,,,1,,,75,0
736080,note_on,0,0,1,,,,,,,,,1,,,72,79
736080,note_off,120,0,1,,,,,,,,,1,,,74,0
736080,note_off,240,0,3,,,,,,,,,3,,,58,0
736080,note_on,0,0,3,,,,,,,,,3,,,62,79
736200,note_on,0,0,1,,,,,,,,,1,,,70,80
736200,note_off,120,0,1,,,,,,,,,1,,,72,0
736260,control_change,180,0,3,,,,,,,64,0,3,,,,
736260,control_change,900,0,4,,,,,,,64,0,4,,,,
736260,control_change,660,0,5,,,,,,,64,0,5,,,,
736270,note_off,10,0,3,,,,,,,,,3,,,62,0
736280,set_tempo,920,1,0,,,,,,359281,,,,,,,
736295,note_off,95,0,1,,,,,,,,,1,,,70,0
736320,control_change,60,0,5,,,,,,,64,127,5,,,,
736320,note_on,0,0,5,,,,,,,,,5,,,53,81
736320,control_change,50,0,3,,,,,,,64,127,3,,,,
736320,control_change,60,0,4,,,,,,,64,127,4,,,,
736320,note_on,25,0,1,,,,,,,,,1,,,72,81
736400,note_off,80,0,1,,,,,,,,,1,,,72,0
736400,note_on,0,0,1,,,,,,,,,1,,,74,81
736480,note_off,80,0,1,,,,,,,,,1,,,74,0
736480,note_on,0,0,1,,,,,,,,,1,,,72,80
736560,note_off,80,0,1,,,,,,,,,1,,,72,0
736560,note_on,0,0,1,,,,,,,,,1,,,74,80
736560,note_on,240,0,3,,,,,,,,,3,,,63,80
736560,note_off,240,0,5,,,,,,,,,5,,,53,0
736640,note_on,0,0,1,,,,,,,,,1,,,72,79
736640,note_off,80,0,1,,,,,,,,,1,,,74,0
736720,note_on,0,0,1,,,,,,,,,1,,,74,79
736720,note_off,80,0,1,,,,,,,,,1,,,72,0
736800,note_off,80,0,1,,,,,,,,,1,,,74,0
736800,note_on,0,0,1,,,,,,,,,1,,,72,78
736800,note_off,240,0,3,,,,,,,,,3,,,63,0
736800,note_on,0,0,3,,,,,,,,,3,,,57,78
736880,note_on,0,0,1,,,,,,,,,1,,,74,78
736880,note_off,80,0,1,,,,,,,,,1,,,72,0
736960,note_off,80,0,1,,,,,,,,,1,,,74,0
736960,note_on,0,0,1,,,,,,,,,1,,,72,77
737040,note_on,0,0,3,,,,,,,,,3,,,63,77
737040,note_off,240,0,3,,,,,,,,,3,,,57,0
737040,note_on,0,0,1,,,,,,,,,1,,,70,77
737040,note_off,80,0,1,,,,,,,,,1,,,72,0
737160,note_on,0,0,1,,,,,,,,,1,,,72,76
737160,note_off,120,0,1,,,,,,,,,1,,,70,0
737220,control_change,180,0,3,,,,,,,64,0,3,,,,
737220,control_change,900,0,4,,,,,,,64,0,4,,,,
737220,control_change,660,0,5,,,,,,,64,0,5,,,,
737230,note_off,10,0,3,,,,,,,,,3,,,63,0
737240,set_tempo,960,1,0,,,,,,363636,,,,,,,
737255,note_off,95,0,1,,,,,,,,,1,,,72,0
737280,note_on,60,0,5,,,,,,,,,5,,,58,83
737280,set_tempo,40,1,0,,,,,,355029,,,,,,,
737280,note_on,25,0,1,,,,,,,,,1,,,74,83
737400,note_on,0,0,1,,,,,,,,,1,,,75,83
737400,note_off,120,0,1,,,,,,,,,1,,,74,0
737520,note_on,0,0,1,,,,,,,,,1,,,77,82
737520,note_off,120,0,1,,,,,,,,,1,,,75,0
737640,note_on,0,0,1,,,,,,,,,1,,,75,82
737640,note_off,120,0,1,,,,,,,,,1,,,77,0
737665,note_off,385,0,5,,,,,,,,,5,,,58,0
737760,note_on,0,0,1,,,,,,,,,1,,,74,81
737760,note_off,120,0,1,,,,,,,,,1,,,75,0
737880,note_off,120,0,1,,,,,,,,,1,,,74,0
737880,note_on,0,0,1,,,,,,,,,1,,,72,81
738000,note_on,335,0,5,,,,,,,,,5,,,60,80
738000,note_off,120,0,1,,,,,,,,,1,,,72,0
738000,note_on,0,0,1,,,,,,,,,1,,,70,80
738120,note_on,0,0,1,,,,,,,,,1,,,69,80
738120,note_off,120,0,1,,,,,,,,,1,,,70,0
738190,note_off,190,0,5,,,,,,,,,5,,,60,0
738240,note_on,0,0,1,,,,,,,,,1,,,70,79
738240,note_off,120,0,1,,,,,,,,,1,,,69,0
738240,note_on,50,0,5,,,,,,,,,5,,,62,79
738360,note_off,120,0,1,,,,,,,,,1,,,70,0
738360,note_on,0,0,1,,,,,,,,,1,,,72,79
738480,note_off,120,0,1,,,,,,,,,1,,,72,0
738480,note_on,0,0,1,,,,,,,,,1,,,74,79
738600,note_off,120,0,1,,,,,,,,,1,,,74,0
738600,note_on,0,0,1,,,,,,,,,1,,,72,78
738625,note_off,385,0,5,,,,,,,,,5,,,62,0
738720,note_off,120,0,1,,,,,,,,,1,,,72,0
738720,note_on,0,0,1,,,,,,,,,1,,,70,78
738840,note_off,120,0,1,,,,,,,,,1,,,70,0
738840,note_on,0,0,1,,,,,,,,,1,,,68,77
738960,note_on,335,0,5,,,,,,,,,5,,,38,77
738960,note_off,120,0,1,,,,,,,,,1,,,68,0
738960,note_on,0,0,1,,,,,,,,,1,,,67,77
738960,note_on,0,0,5,,,,,,,,,5,,,50,77
739080,note_off,120,0,1,,,,,,,,,1,,,67,0
739080,note_on,0,0,1,,,,,,,,,1,,,66,76
739150,note_off,190,0,5,,,,,,,,,5,,,50,0
739150,note_off,0,0,5,,,,,,,,,5,,,38,0
739160,set_tempo,1880,1,0,,,,,,359281,,,,,,,
739200,set_tempo,40,1,0,,,,,,355029,,,,,,,
739200,note_off,120,0,1,,,,,,,,,1,,,66,0
739200,note_on,0,0,1,,,,,,,,,1,,,67,76
739200,note_on,50,0,5,,,,,,,,,5,,,39,76
739200,note_on,0,0,5,,,,,,,,,5,,,51,76
739320,note_off,120,0,1,,,,,,,,,1,,,67,0
739320,note_on,0,0,1,,,,,,,,,1,,,69,75
739440,note_off,120,0,1,,,,,,,,,1,,,69,0
739440,note_on,0,0,1,,,,,,,,,1,,,70,75
739560,note_off,120,0,1,,,,,,,,,1,,,70,0
739560,note_on,0,0,1,,,,,,,,,1,,,69,74
739585,note_off,385,0,5,,,,,,,,,5,,,51,0
739585,note_off,0,0,5,,,,,,,,,5,,,39,0
739680,note_off,120,0,1,,,,,,,,,1,,,69,0
739680,note_on,0,0,1,,,,,,,,,1,,,67,74
739800,note_on,0,0,1,,,,,,,,,1,,,65,73
739800,note_off,120,0,1,,,,,,,,,1,,,67,0
739920,note_off,120,0,1,,,,,,,,,1,,,65,0
739920,note_on,0,0,1,,,,,,,,,1,,,63,73
740040,note_on,0,0,1,,,,,,,,,1,,,62,72
740040,note_off,120,0,1,,,,,,,,,1,,,63,0
740160,note_off,120,0,1,,,,,,,,,1,,,62,0
740160,note_on,0,0,1,,,,,,,,,1,,,60,72
740280,note_on,0,0,1,,,,,,,,,1,,,62,71
740280,note_off,120,0,1,,,,,,,,,1,,,60,0
740400,note_off,120,0,1,,,,,,,,,1,,,62,0
740400,note_on,0,0,1,,,,,,,,,1,,,63,71
740520,note_off,120,0,1,,,,,,,,,1,,,63,0
740520,note_on,0,0,1,,,,,,,,,1,,,62,70
740640,note_on,0,0,1,,,,,,,,,1,,,60,70
740640,note_off,120,0,1,,,,,,,,,1,,,62,0
740760,note_off,120,0,1,,,,,,,,,1,,,60,0
740760,note_on,0,0,1,,,,,,,,,1,,,58,69
740880,note_off,120,0,1,,,,,,,,,1,,,58,0
740880,note_on,0,0,1,,,,,,,,,1,,,57,69
741000,note_off,120,0,1,,,,,,,,,1,,,57,0
741000,note_on,0,0,1,,,,,,,,,1,,,55,68
741080,set_tempo,1880,1,0,,,,,,359281,,,,,,,
741120,note_on,1535,0,5,,,,,,,,,5,,,41,64
741120,note_on,0,0,1,,,,,,,,,1,,,53,64
741120,set_tempo,40,1,0,,,,,,355029,,,,,,,
741120,note_off,120,0,1,,,,,,,,,1,,,55,0
741120,note_on,0,0,5,,,,,,,,,5,,,29,64
741360,note_off,240,0,1,,,,,,,,,1,,,53,0
741360,note_on,0,0,1,,,,,,,,,1,,,55,62
741480,note_off,120,0,1,,,,,,,,,1,,,55,0
741480,note_on,0,0,1,,,,,,,,,1,,,57,63
741600,note_off,120,0,1,,,,,,,,,1,,,57,0
741600,note_on,0,0,1,,,,,,,,,1,,,58,63
741720,note_off,120,0,1,,,,,,,,,1,,,58,0
741720,note_on,0,0,1,,,,,,,,,1,,,60,64
741840,note_on,0,0,1,,,,,,,,,1,,,62,64
741840,note_off,120,0,1,,,,,,,,,1,,,60,0
741960,note_off,120,0,1,,,,,,,,,1,,,62,0
741960,note_on,0,0,1,,,,,,,,,1,,,63,65
742080,note_on,0,0,1,,,,,,,,,1,,,67,65
742080,note_off,120,0,1,,,,,,,,,1,,,63,0
742200,note_on,0,0,1,,,,,,,,,1,,,65,66
742200,note_off,120,0,1,,,,,,,,,1,,,67,0
742320,note_on,0,0,1,,,,,,,,,1,,,63,66
742320,note_off,120,0,1,,,,,,,,,1,,,65,0
742440,note_on,0,0,1,,,,,,,,,1,,,62,66
742440,note_off,120,0,1,,,,,,,,,1,,,63,0
742560,note_on,0,0,1,,,,,,,,,1,,,63,67
742560,note_off,120,0,1,,,,,,,,,1,,,62,0
742680,note_on,0,0,1,,,,,,,,,1,,,65,67
742680,note_off,120,0,1,,,,,,,,,1,,,63,0
742800,note_off,120,0,1,,,,,,,,,1,,,65,0
742800,note_on,0,0,1,,,,,,,,,1,,,67,68
742920,note_on,0,0,1,,,,,,,,,1,,,69,68
742920,note_off,1800,0,5,,,,,,,,,5,,,29,0
742920,note_off,120,0,1,,,,,,,,,1,,,67,0
742935,note_off,15,0,5,,,,,,,,,5,,,41,0
743040,note_on,105,0,5,,,,,,,,,5,,,41,69
743040,note_on,0,0,1,,,,,,,,,1,,,70,69
743040,note_on,5820,0,4,,,,,,,,,4,,,46,69
743040,note_on,0,0,4,,,,,,,,,4,,,50,69
743040,note_off,120,0,1,,,,,,,,,1,,,69,0
743160,note_off,120,0,1,,,,,,,,,1,,,70,0
743160,note_on,0,0,1,,,,,,,,,1,,,69,69
743280,note_off,120,0,1,,,,,,,,,1,,,69,0
743280,note_on,0,0,1,,,,,,,,,1,,,67,70
743400,note_off,120,0,1,,,,,,,,,1,,,67,0
743400,note_on,0,0,1,,,,,,,,,1,,,65,70
743425,note_off,385,0,5,,,,,,,,,5,,,41,0
743425,note_off,0,0,4,,,,,,,,,4,,,46,0
743425,note_off,385,0,4,,,,,,,,,4,,,50,0
743520,note_off,120,0,1,,,,,,,,,1,,,65,0
743520,note_on,0,0,1,,,,,,,,,1,,,67,71
743640,note_off,120,0,1,,,,,,,,,1,,,67,0
743640,note_on,0,0,1,,,,,,,,,1,,,69,71
743760,note_off,120,0,1,,,,,,,,,1,,,69,0
743760,note_on,0,0,1,,,,,,,,,1,,,70,72
743880,note_on,0,0,1,,,,,,,,,1,,,72,72
743880,note_off,120,0,1,,,,,,,,,1,,,70,0
744000,note_on,575,0,4,,,,,,,,,4,,,46,72
744000,note_on,0,0,4,,,,,,,,,4,,,50,72
744000,note_off,120,0,1,,,,,,,,,1,,,72,0
744000,note_on,0,0,1,,,,,,,,,1,,,74,72
744000,note_on,575,0,5,,,,,,,,,5,,,41,72
744120,note_off,120,0,1,,,,,,,,,1,,,74,0
744120,note_on,0,0,1,,,,,,,,,1,,,72,73
744240,note_off,120,0,1,,,,,,,,,1,,,72,0
744240,note_on,0,0,1,,,,,,,,,1,,,70,73
744360,note_off,120,0,1,,,,,,,,,1,,,70,0
744360,note_on,0,0,1,,,,,,,,,1,,,69,74
744385,note_off,385,0,4,,,,,,,,,4,,,50,0
744385,note_off,0,0,4,,,,,,,,,4,,,46,0
744385,note_off,385,0,5,,,,,,,,,5,,,41,0
744480,note_on,0,0,1,,,,,,,,,1,,,70,74
744480,note_off,120,0,1,,,,,,,,,1,,,69,0
744600,note_on,0,0,1,,,,,,,,,1,,,72,75
744600,note_off,120,0,1,,,,,,,,,1,,,70,0
744720,note_on,0,0,1,,,,,,,,,1,,,74,75
744720,note_off,120,0,1,,,,,,,,,1,,,72,0
744840,note_off,120,0,1,,,,,,,,,1,,,74,0
744840,note_on,0,0,1,,,,,,,,,1,,,75,76
744920,set_tempo,3800,1,0,,,,,,359281,,,,,,,
744960,note_on,575,0,5,,,,,,,,,5,,,53,76
744960,note_on,0,0,4,,,,,,,,,4,,,58,76
744960,note_on,575,0,4,,,,,,,,,4,,,62,76
744960,note_off,120,0,1,,,,,,,,,1,,,75,0
744960,note_on,0,0,1,,,,,,,,,1,,,77,76
744960,set_tempo,40,1,0,,,,,,355029,,,,,,,
745080,note_on,12625,0,2,,,,,,,,,2,,,74,77
745175,note_off,95,0,2,,,,,,,,,2,,,74,0
745200,note_on,25,0,2,,,,,,,,,2,,,77,77
745200,note_off,240,0,1,,,,,,,,,1,,,77,0
745295,note_off,95,0,2,,,,,,,,,2,,,77,0
745320,note_on,25,0,2,,,,,,,,,2,,,74,78
745345,note_off,385,0,5,,,,,,,,,5,,,53,0
745345,note_off,385,0,4,,,,,,,,,4,,,58,0
745345,note_off,0,0,4,,,,,,,,,4,,,62,0
745415,note_off,95,0,2,,,,,,,,,2,,,74,0
745440,note_on,240,0,1,,,,,,,,,1,,,82,78
745560,note_on,145,0,2,,,,,,,,,2,,,77,79
745655,note_off,95,0,2,,,,,,,,,2,,,77,0
745680,note_off,240,0,1,,,,,,,,,1,,,82,0
745680,note_on,25,0,2,,,,,,,,,2,,,82,79
745775,note_off,95,0,2,,,,,,,,,2,,,82,0
745800,note_on,25,0,2,,,,,,,,,2,,,77,79
745895,note_off,95,0,2,,,,,,,,,2,,,77,0
745920,note_on,240,0,1,,,,,,,,,1,,,86,80
746040,note_on,145,0,2,,,,,,,,,2,,,82,80
746135,note_off,95,0,2,,,,,,,,,2,,,82,0
746160,note_on,25,0,2,,,,,,,,,2,,,86,81
746160,note_off,240,0,1,,,,,,,,,1,,,86,0
746255,note_off,95,0,2,,,,,,,,,2,,,86,0
746280,note_on,25,0,2,,,,,,,,,2,,,82,81
746375,note_off,95,0,2,,,,,,,,,2,,,82,0
746400,note_on,240,0,1,,,,,,,,,1,,,89,82
746520,note_on,145,0,2,,,,,,,,,2,,,86,82
746615,note_off,95,0,2,,,,,,,,,2,,,86,0
746640,note_off,240,0,1,,,,,,,,,1,,,89,0
746640,note_on,25,0,2,,,,,,,,,2,,,89,83
746735,note_off,95,0,2,,,,,,,,,2,,,89,0
746760,note_on,25,0,2,,,,,,,,,2,,,86,83
746855,note_off,95,0,2,,,,,,,,,2,,,86,0
746880,note_on,240,0,1,,,,,,,,,1,,,82,83
747000,note_on,145,0,2,,,,,,,,,2,,,86,83
747095,note_off,95,0,2,,,,,,,,,2,,,86,0
747120,note_on,25,0,2,,,,,,,,,2,,,82,83
747120,note_off,240,0,1,,,,,,,,,1,,,82,0
747215,note_off,95,0,2,,,,,,,,,2,,,82,0
747240,note_on,25,0,2,,,,,,,,,2,,,86,82
747335,note_off,95,0,2,,,,,,,,,2,,,86,0
747360,note_on,240,0,1,,,,,,,,,1,,,77,82
747480,note_on,145,0,2,,,,,,,,,2,,,82,82
747575,note_off,95,0,2,,,,,,,,,2,,,82,0
747600,note_on,25,0,2,,,,,,,,,2,,,77,81
747600,note_off,240,0,1,,,,,,,,,1,,,77,0
747695,note_off,95,0,2,,,,,,,,,2,,,77,0
747720,note_on,25,0,2,,,,,,,,,2,,,82,81
747815,note_off,95,0,2,,,,,,,,,2,,,82,0
747840,note_on,240,0,1,,,,,,,,,1,,,74,80
747960,note_on,145,0,2,,,,,,,,,2,,,77,80
748055,note_off,95,0,2,,,,,,,,,2,,,77,0
748080,note_off,240,0,1,,,,,,,,,1,,,74,0
748080,note_on,25,0,2,,,,,,,,,2,,,74,80
748175,note_off,95,0,2,,,,,,,,,2,,,74,0
748200,note_on,25,0,2,,,,,,,,,2,,,77,79
748295,note_off,95,0,2,,,,,,,,,2,,,77,0
748320,note_on,240,0,1,,,,,,,,,1,,,70,79
748440,note_on,145,0,2,,,,,,,,,2,,,74,79
748535,note_off,95,0,2,,,,,,,,,2,,,74,0
748560,note_on,25,0,2,,,,,,,,,2,,,70,78
748560,note_off,240,0,1,,,,,,,,,1,,,70,0
748655,note_off,95,0,2,,,,,,,,,2,,,70,0
748680,note_on,25,0,2,,,,,,,,,2,,,74,78
748760,set_tempo,3800,1,0,,,,,,359281,,,,,,,
748775,note_off,95,0,2,,,,,,,,,2,,,74,0
748800,note_on,240,0,1,,,,,,,,,1,,,65,78
748800,control_change,11570,0,3,,,,,,,64,127,3,,,,
748800,set_tempo,40,1,0,,,,,,355029,,,,,,,
748800,note_on,0,0,5,,,,,,,,,5,,,53,78
748800,control_change,3455,0,4,,,,,,,64,127,4,,,,
748800,control_change,3455,0,5,,,,,,,64,127,5,,,,
749040,note_off,240,0,5,,,,,,,,,5,,,53,0
749040,note_on,240,0,3,,,,,,,,,3,,,62,76
749185,note_off,385,0,1,,,,,,,,,1,,,65,0
749280,note_on,95,0,1,,,,,,,,,1,,,77,77
749280,note_off,240,0,3,,,,,,,,,3,,,62,0
749280,note_on,0,0,3,,,,,,,,,3,,,58,77
749520,note_off,240,0,3,,,,,,,,,3,,,58,0
749520,note_on,0,0,3,,,,,,,,,3,,,62,78
749700,control_change,180,0,3,,,,,,,64,0,3,,,,
749700,control_change,660,0,5,,,,,,,64,0,5,,,,
749700,control_change,900,0,4,,,,,,,64,0,4,,,,
749760,control_change,60,0,4,,,,,,,64,127,4,,,,
749760,note_off,0,0,3,,,,,,,,,3,,,62,0
749760,control_change,60,0,5,,,,,,,64,127,5,,,,
749760,control_change,60,0,3,,,,,,,64,127,3,,,,
749760,note_on,0,0,5,,,,,,,,,5,,,53,80
750000,note_on,0,0,1,,,,,,,,,1,,,79,81
750000,note_off,720,0,1,,,,,,,,,1,,,77,0
750000,note_on,240,0,3,,,,,,,,,3,,,62,81
750000,note_off,240,0,5,,,,,,,,,5,,,53,0
750120,note_on,0,0,1,,,,,,,,,1,,,77,81
750120,note_off,120,0,1,,,,,,,,,1,,,79,0
750240,note_off,120,0,1,,,,,,,,,1,,,77,0
750240,note_on,0,0,1,,,,,,,,,1,,,75,82
750240,note_on,0,0,3,,,,,,,,,3,,,58,82
750240,note_off,240,0,3,,,,,,,,,3,,,62,0
750360,note_off,120,0,1,,,,,,,,,1,,,75,0
750360,note_on,0,0,1,,,,,,,,,1,,,74,82
750480,note_off,120,0,1,,,,,,,,,1,,,74,0
750480,note_on,0,0,1,,,,,,,,,1,,,72,83
750480,note_off,240,0,3,,,,,,,,,3,,,58,0
750480,note_on,0,0,3,,,,,,,,,3,,,62,83
750600,note_on,0,0,1,,,,,,,,,1,,,70,83
750600,note_off,120,0,1,,,,,,,,,1,,,72,0
750660,control_change,660,0,5,,,,,,,64,0,5,,,,
750660,control_change,180,0,3,,,,,,,64,0,3,,,,
750660,control_change,900,0,4,,,,,,,64,0,4,,,,
750670,note_off,10,0,3,,,,,,,,,3,,,62,0
750680,set_tempo,1880,1,0,,,,,,359281,,,,,,,
750695,note_off,95,0,1,,,,,,,,,1,,,70,0
750720,control_change,50,0,3,,,,,,,64,127,3,,,,
750720,note_on,25,0,1,,,,,,,,,1,,,70,83
750720,control_change,60,0,5,,,,,,,64,127,5,,,,
750720,note_on,0,0,5,,,,,,,,,5,,,53,83
750720,control_change,60,0,4,,,,,,,64,127,4,,,,
750800,note_off,80,0,1,,,,,,,,,1,,,70,0
750800,note_on,2025,0,2,,,,,,,,,2,,,72,83
750880,note_off,80,0,2,,,,,,,,,2,,,72,0
750880,note_on,0,0,2,,,,,,,,,2,,,74,83
750960,note_off,240,0,5,,,,,,,,,5,,,53,0
750960,note_on,240,0,3,,,,,,,,,3,,,63,83
750960,note_off,80,0,2,,,,,,,,,2,,,74,0
750960,note_on,0,0,2,,,,,,,,,2,,,72,83
751040,note_off,80,0,2,,,,,,,,,2,,,72,0
751040,note_on,0,0,2,,,,,,,,,2,,,74,82
751120,note_off,80,0,2,,,,,,,,,2,,,74,0
751120,note_on,0,0,2,,,,,,,,,2,,,72,82
751200,note_on,0,0,2,,,,,,,,,2,,,74,82
751200,note_off,240,0,3,,,,,,,,,3,,,63,0
751200,note_on,0,0,3,,,,,,,,,3,,,57,82
751200,note_off,80,0,2,,,,,,,,,2,,,72,0
751280,note_off,80,0,2,,,,,,,,,2,,,74,0
751280,note_on,0,0,2,,,,,,,,,2,,,72,82
751360,note_off,80,0,2,,,,,,,,,2,,,72,0
751360,note_on,0,0,2,,,,,,,,,2,,,74,81
751440,note_on,0,0,3,,,,,,,,,3,,,63,81
751440,note_on,0,0,2,,,,,,,,,2,,,72,81
751440,note_off,240,0,3,,,,,,,,,3,,,57,0
751440,note_off,80,0,2,,,,,,,,,2,,,74,0
751520,note_off,80,0,2,,,,,,,,,2,,,72,0
751520,note_on,0,0,2,,,,,,,,,2,,,74,81
751600,note_off,80,0,2,,,,,,,,,2,,,74,0
751600,note_on,0,0,2,,,,,,,,,2,,,72,81
751620,control_change,660,0,5,,,,,,,64,0,5,,,,
751620,control_change,900,0,4,,,,,,,64,0,4,,,,
751620,control_change,180,0,3,,,,,,,64,0,3,,,,
751680,note_off,0,0,3,,,,,,,,,3,,,63,0
751680,control_change,60,0,3,,,,,,,64,127,3,,,,
751680,note_off,80,0,2,,,,,,,,,2,,,72,0
751680,control_change,60,0,4,,,,,,,64,127,4,,,,
751680,control_change,60,0,5,,,,,,,64,127,5,,,,
751680,note_on,0,0,5,,,,,,,,,5,,,53,80
751680,note_on,0,0,2,,,,,,,,,2,,,74,80
751760,note_off,80,0,2,,,,,,,,,2,,,74,0
751760,note_on,0,0,2,,,,,,,,,2,,,72,80
751840,note_off,80,0,2,,,,,,,,,2,,,72,0
751840,note_on,0,0,2,,,,,,,,,2,,,74,80
751920,note_on,0,0,2,,,,,,,,,2,,,72,80
751920,note_on,240,0,3,,,,,,,,,3,,,63,80
751920,note_off,80,0,2,,,,,,,,,2,,,74,0
751920,note_off,240,0,5,,,,,,,,,5,,,53,0
752000,note_on,0,0,2,,,,,,,,,2,,,74,79
752000,note_off,80,0,2,,,,,,,,,2,,,72,0
752080,note_on,0,0,2,,,,,,,,,2,,,72,79
752080,note_off,80,0,2,,,,,,,,,2,,,74,0
752160,note_on,0,0,3,,,,,,,,,3,,,57,79
752160,note_off,240,0,3,,,,,,,,,3,,,63,0
752160,note_off,80,0,2,,,,,,,,,2,,,72,0
752160,note_on,0,0,2,,,,,,,,,2,,,74,79
752280,note_off,120,0,2,,,,,,,,,2,,,74,0
752280,note_on,0,0,2,,,,,,,,,2,,,72,76
752400,note_on,0,0,2,,,,,,,,,2,,,70,74
752400,note_off,120,0,2,,,,,,,,,2,,,72,0
752400,note_off,240,0,3,,,,,,,,,3,,,57,0
752400,note_on,0,0,3,,,,,,,,,3,,,63,74
752520,note_on,0,0,2,,,,,,,,,2,,,72,72
752520,note_off,120,0,2,,,,,,,,,2,,,70,0
752580,control_change,900,0,4,,,,,,,64,0,4,,,,
752580,control_change,180,0,3,,,,,,,64,0,3,,,,
752580,control_change,660,0,5,,,,,,,64,0,5,,,,
752590,note_off,10,0,3,,,,,,,,,3,,,63,0
752600,set_tempo,1920,1,0,,,,,,363636,,,,,,,
752615,note_off,95,0,2,,,,,,,,,2,,,72,0
752640,note_on,60,0,4,,,,,,,,,4,,,62,46
752640,note_on,60,0,5,,,,,,,,,5,,,58,46
752640,note_on,1840,0,1,,,,,,,,,1,,,70,46
752640,set_tempo,40,1,0,,,,,,355029,,,,,,,
752830,note_off,190,0,1,,,,,,,,,1,,,70,0
752880,note_on,50,0,1,,,,,,,,,1,,,70,47
753025,note_off,385,0,4,,,,,,,,,4,,,62,0
753025,note_off,385,0,5,,,,,,,,,5,,,58,0
753070,note_off,190,0,1,,,,,,,,,1,,,70,0
753120,note_on,95,0,4,,,,,,,,,4,,,62,48
753120,note_on,95,0,5,,,,,,,,,5,,,58,48
753360,note_on,290,0,1,,,,,,,,,1,,,70,48
753505,note_off,385,0,4,,,,,,,,,4,,,62,0
753505,note_off,385,0,5,,,,,,,,,5,,,58,0
753550,note_off,190,0,1,,,,,,,,,1,,,70,0
753600,note_on,50,0,1,,,,,,,,,1,,,70,49
753790,note_off,190,0,1,,,,,,,,,1,,,70,0
753840,note_on,50,0,1,,,,,,,,,1,,,70,50
754030,note_off,190,0,1,,,,,,,,,1,,,70,0
754080,note_on,575,0,4,,,,,,,,,4,,,62,51
754080,note_on,575,0,5,,,,,,,,,5,,,58,51
754320,note_on,290,0,1,,,,,,,,,1,,,70,52
754560,note_off,240,0,1,,,,,,,,,1,,,70,0
754560,note_off,480,0,4,,,,,,,,,4,,,62,0
754560,note_on,0,0,4,,,,,,,,,4,,,69,53
754560,note_on,0,0,1,,,,,,,,,1,,,72,53
754560,note_off,480,0,5,,,,,,,,,5,,,58,0
754560,note_on,0,0,5,,,,,,,,,5,,,58,53
754750,note_off,190,0,1,,,,,,,,,1,,,72,0
754800,note_on,50,0,1,,,,,,,,,1,,,72,54
754945,note_off,385,0,4,,,,,,,,,4,,,69,0
754945,note_off,385,0,5,,,,,,,,,5,,,58,0
754990,note_off,190,0,1,,,,,,,,,1,,,72,0
755040,note_on,95,0,5,,,,,,,,,5,,,58,55
755040,note_on,95,0,4,,,,,,,,,4,,,69,55
755280,note_on,290,0,1,,,,,,,,,1,,,72,56
755425,note_off,385,0,4,,,,,,,,,4,,,69,0
755425,note_off,385,0,5,,,,,,,,,5,,,58,0
755470,note_off,190,0,1,,,,,,,,,1,,,72,0
755520,note_on,50,0,1,,,,,,,,,1,,,72,57
755710,note_off,190,0,1,,,,,,,,,1,,,72,0
755760,note_on,50,0,1,,,,,,,,,1,,,72,58
755950,note_off,190,0,1,,,,,,,,,1,,,72,0
756000,note_on,575,0,4,,,,,,,,,4,,,69,59
756000,note_on,575,0,5,,,,,,,,,5,,,58,59
756240,note_on,290,0,1,,,,,,,,,1,,,72,60
756480,note_off,480,0,5,,,,,,,,,5,,,58,0
756480,note_on,0,0,1,,,,,,,,,1,,,74,61
756480,note_off,240,0,1,,,,,,,,,1,,,72,0
756480,note_on,0,0,5,,,,,,,,,5,,,58,61
756480,note_on,0,0,4,,,,,,,,,4,,,68,61
756480,note_off,480,0,4,,,,,,,,,4,,,69,0
756670,note_off,190,0,1,,,,,,,,,1,,,74,0
756720,note_on,50,0,1,,,,,,,,,1,,,74,62
756865,note_off,385,0,4,,,,,,,,,4,,,68,0
756865,note_off,385,0,5,,,,,,,,,5,,,58,0
756910,note_off,190,0,1,,,,,,,,,1,,,74,0
756960,note_on,95,0,4,,,,,,,,,4,,,68,63
756960,note_on,95,0,5,,,,,,,,,5,,,58,63
757200,note_on,290,0,1,,,,,,,,,1,,,74,64
757440,note_on,0,0,5,,,,,,,,,5,,,58,65
757440,note_off,240,0,1,,,,,,,,,1,,,74,0
757440,note_on,0,0,1,,,,,,,,,1,,,75,65
757440,note_on,0,0,4,,,,,,,,,4,,,67,65
757440,note_off,480,0,4,,,,,,,,,4,,,68,0
757440,note_off,480,0,5,,,,,,,,,5,,,58,0
757630,note_off,190,0,1,,,,,,,,,1,,,75,0
757680,note_on,50,0,1,,,,,,,,,1,,,75,66
757825,note_off,385,0,5,,,,,,,,,5,,,58,0
757825,note_off,385,0,4,,,,,,,,,4,,,67,0
757870,note_off,190,0,1,,,,,,,,,1,,,75,0
757920,note_on,95,0,5,,,,,,,,,5,,,58,67
757920,note_on,95,0,4,,,,,,,,,4,,,67,67
758160,note_on,290,0,1,,,,,,,,,1,,,76,68
758305,note_off,385,0,5,,,,,,,,,5,,,58,0
758305,note_off,385,0,4,,,,,,,,,4,,,67,0
758400,note_on,95,0,5,,,,,,,,,5,,,58,68
758400,note_off,240,0,1,,,,,,,,,1,,,76,0
758400,note_on,0,0,1,,,,,,,,,1,,,77,68
758400,note_on,95,0,4,,,,,,,,,4,,,62,68
758590,note_off,190,0,1,,,,,,,,,1,,,77,0
758640,note_on,50,0,1,,,,,,,,,1,,,77,69
758785,note_off,385,0,5,,,,,,,,,5,,,58,0
758785,note_off,385,0,4,,,,,,,,,4,,,62,0
758830,note_off,190,0,1,,,,,,,,,1,,,77,0
758880,note_on,95,0,4,,,,,,,,,4,,,62,70
758880,note_on,95,0,5,,,,,,,,,5,,,58,70
759120,note_on,290,0,1,,,,,,,,,1,,,78,71
759265,note_off,385,0,5,,,,,,,,,5,,,58,0
759265,note_off,385,0,4,,,,,,,,,4,,,62,0
759360,note_off,240,0,1,,,,,,,,,1,,,78,0
759360,note_on,0,0,1,,,,,,,,,1,,,79,72
759360,note_on,95,0,4,,,,,,,,,4,,,63,72
759360,note_on,95,0,5,,,,,,,,,5,,,58,72
759550,note_off,190,0,1,,,,,,,,,1,,,79,0
759600,note_on,50,0,1,,,,,,,,,1,,,79,73
759745,note_off,385,0,4,,,,,,,,,4,,,63,0
759745,note_off,385,0,5,,,,,,,,,5,,,58,0
759790,note_off,190,0,1,,,,,,,,,1,,,79,0
759840,note_on,95,0,4,,,,,,,,,4,,,60,74
759840,note_on,95,0,5,,,,,,,,,5,,,58,74
759840,note_on,50,0,1,,,,,,,,,1,,,81,74
760030,note_off,190,0,1,,,,,,,,,1,,,81,0
760080,note_on,50,0,1,,,,,,,,,1,,,81,75
760225,note_off,385,0,4,,,,,,,,,4,,,60,0
760225,note_off,385,0,5,,,,,,,,,5,,,58,0
760270,note_off,190,0,1,,,,,,,,,1,,,81,0
760280,set_tempo,7640,1,0,,,,,,363636,,,,,,,
760320,note_on,95,0,5,,,,,,,,,5,,,46,76
760320,set_tempo,40,1,0,,,,,,355029,,,,,,,
760320,note_on,0,0,5,,,,,,,,,5,,,58,76
760320,note_on,50,0,1,,,,,,,,,1,,,74,76
760440,note_on,7825,0,2,,,,,,,,,2,,,82,77
760510,note_off,190,0,5,,,,,,,,,5,,,58,0
760510,note_off,0,0,5,,,,,,,,,5,,,46,0
760535,note_off,95,0,2,,,,,,,,,2,,,82,0
760560,note_on,25,0,2,,,,,,,,,2,,,86,77
760560,note_on,0,0,5,,,,,,,,,5,,,58,77
760560,note_on,50,0,5,,,,,,,,,5,,,46,77
760655,note_off,95,0,2,,,,,,,,,2,,,86,0
760680,note_on,25,0,2,,,,,,,,,2,,,82,78
760750,note_off,0,0,5,,,,,,,,,5,,,46,0
760750,note_off,190,0,5,,,,,,,,,5,,,58,0
760775,note_off,95,0,2,,,,,,,,,2,,,82,0
760800,note_off,480,0,1,,,,,,,,,1,,,74,0
760800,note_on,25,0,2,,,,,,,,,2,,,86,78
760895,note_off,95,0,2,,,,,,,,,2,,,86,0
760920,note_on,25,0,2,,,,,,,,,2,,,82,78
761015,note_off,95,0,2,,,,,,,,,2,,,82,0
761040,note_on,0,0,5,,,,,,,,,5,,,58,79
761040,note_on,290,0,5,,,,,,,,,5,,,46,79
761040,note_on,25,0,2,,,,,,,,,2,,,86,79
761135,note_off,95,0,2,,,,,,,,,2,,,86,0
761160,note_on,25,0,2,,,,,,,,,2,,,82,79
761255,note_off,95,0,2,,,,,,,,,2,,,82,0
761280,note_on,480,0,1,,,,,,,,,1,,,74,80
761280,note_off,240,0,5,,,,,,,,,5,,,58,0
761280,note_off,0,0,5,,,,,,,,,5,,,46,0
761280,note_on,0,0,5,,,,,,,,,5,,,50,80
761280,note_on,0,0,5,,,,,,,,,5,,,62,80
761400,note_on,145,0,2,,,,,,,,,2,,,82,80
761470,note_off,190,0,5,,,,,,,,,5,,,62,0
761470,note_off,0,0,5,,,,,,,,,5,,,50,0
761495,note_off,95,0,2,,,,,,,,,2,,,82,0
761520,note_on,50,0,5,,,,,,,,,5,,,62,81
761520,note_on,0,0,5,,,,,,,,,5,,,50,81
761520,note_on,25,0,2,,,,,,,,,2,,,86,81
761615,note_off,95,0,2,,,,,,,,,2,,,86,0
761640,note_on,25,0,2,,,,,,,,,2,,,82,81
761710,note_off,190,0,5,,,,,,,,,5,,,50,0
761710,note_off,0,0,5,,,,,,,,,5,,,62,0
761735,note_off,95,0,2,,,,,,,,,2,,,82,0
761760,note_on,25,0,2,,,,,,,,,2,,,86,82
761760,note_off,480,0,1,,,,,,,,,1,,,74,0
761855,note_off,95,0,2,,,,,,,,,2,,,86,0
761880,note_on,25,0,2,,,,,,,,,2,,,82,82
761975,note_off,95,0,2,,,,,,,,,2,,,82,0
762000,note_on,25,0,2,,,,,,,,,2,,,86,83
762000,note_on,0,0,5,,,,,,,,,5,,,58,83
762000,note_on,290,0,5,,,,,,,,,5,,,46,83
762095,note_off,95,0,2,,,,,,,,,2,,,86,0
762120,note_on,25,0,2,,,,,,,,,2,,,82,83
762215,note_off,95,0,2,,,,,,,,,2,,,82,0
762240,note_on,480,0,1,,,,,,,,,1,,,74,84
762240,note_on,0,0,5,,,,,,,,,5,,,55,84
762240,note_on,0,0,5,,,,,,,,,5,,,43,84
762240,note_off,0,0,5,,,,,,,,,5,,,46,0
762240,note_off,240,0,5,,,,,,,,,5,,,58,0
762360,note_on,145,0,2,,,,,,,,,2,,,82,84
762430,note_off,190,0,5,,,,,,,,,5,,,55,0
762430,note_off,0,0,5,,,,,,,,,5,,,43,0
762455,note_off,95,0,2,,,,,,,,,2,,,82,0
762480,note_on,50,0,5,,,,,,,,,5,,,43,85
762480,note_on,0,0,5,,,,,,,,,5,,,55,85
762480,note_on,25,0,2,,,,,,,,,2,,,86,85
762575,note_off,95,0,2,,,,,,,,,2,,,86,0
762600,note_on,25,0,2,,,,,,,,,2,,,82,85
762670,note_off,0,0,5,,,,,,,,,5,,,43,0
762670,note_off,190,0,5,,,,,,,,,5,,,55,0
762695,note_off,95,0,2,,,,,,,,,2,,,82,0
762720,note_off,480,0,1,,,,,,,,,1,,,74,0
762720,note_on,25,0,2,,,,,,,,,2,,,86,86
762815,note_off,95,0,2,,,,,,,,,2,,,86,0
762840,note_on,25,0,2,,,,,,,,,2,,,82,86
762935,note_off,95,0,2,,,,,,,,,2,,,82,0
762960,note_on,290,0,5,,,,,,,,,5,,,43,87
762960,note_on,25,0,2,,,,,,,,,2,,,86,87
762960,note_on,0,0,5,,,,,,,,,5,,,55,87
763055,note_off,95,0,2,,,,,,,,,2,,,86,0
763080,note_on,25,0,2,,,,,,,,,2,,,82,87
763175,note_off,95,0,2,,,,,,,,,2,,,82,0
763200,note_on,480,0,1,,,,,,,,,1,,,74,88
763200,note_on,0,0,5,,,,,,,,,5,,,46,88
763200,note_off,0,0,5,,,,,,,,,5,,,43,0
763200,note_on,0,0,5,,,,,,,,,5,,,58,88
763200,note_off,240,0,5,,,,,,,,,5,,,55,0
763320,note_on,145,0,2,,,,,,,,,2,,,82,88
763390,note_off,190,0,5,,,,,,,,,5,,,58,0
763390,note_off,0,0,5,,,,,,,,,5,,,46,0
763415,note_off,95,0,2,,,,,,,,,2,,,82,0
763440,note_on,50,0,5,,,,,,,,,5,,,46,88
763440,note_on,25,0,2,,,,,,,,,2,,,86,88
763440,note_on,0,0,5,,,,,,,,,5,,,58,88
763535,note_off,95,0,2,,,,,,,,,2,,,86,0
763560,note_on,25,0,2,,,,,,,,,2,,,82,89
763630,note_off,190,0,5,,,,,,,,,5,,,58,0
763630,note_off,0,0,5,,,,,,,,,5,,,46,0
763655,note_off,95,0,2,,,,,,,,,2,,,82,0
763680,note_on,25,0,2,,,,,,,,,2,,,86,89
763680,note_off,480,0,1,,,,,,,,,1,,,74,0
763775,note_off,95,0,2,,,,,,,,,2,,,86,0
763800,note_on,25,0,2,,,,,,,,,2,,,82,90
763895,note_off,95,0,2,,,,,,,,,2,,,82,0
763920,note_on,25,0,2,,,,,,,,,2,,,86,90
763920,note_on,290,0,5,,,,,,,,,5,,,43,90
763920,note_on,0,0,5,,,,,,,,,5,,,55,90
764015,note_off,95,0,2,,,,,,,,,2,,,86,0
764040,note_on,25,0,2,,,,,,,,,2,,,82,91
764135,note_off,95,0,2,,,,,,,,,2,,,82,0
764160,note_off,240,0,5,,,,,,,,,5,,,55,0
764160,note_off,0,0,5,,,,,,,,,5,,,43,0
764160,note_on,0,0,5,,,,,,,,,5,,,50,91
764160,note_on,0,0,5,,,,,,,,,5,,,38,91
764160,note_on,480,0,1,,,,,,,,,1,,,74,91
764280,note_on,145,0,2,,,,,,,,,2,,,82,92
764350,note_off,190,0,5,,,,,,,,,5,,,38,0
764350,note_off,0,0,5,,,,,,,,,5,,,50,0
764375,note_off,95,0,2,,,,,,,,,2,,,82,0
764400,note_on,25,0,2,,,,,,,,,2,,,86,92
764400,note_on,0,0,5,,,,,,,,,5,,,50,92
764400,note_on,50,0,5,,,,,,,,,5,,,38,92
764495,note_off,95,0,2,,,,,,,,,2,,,86,0
764520,note_on,25,0,2,,,,,,,,,2,,,82,93
764590,note_off,190,0,5,,,,,,,,,5,,,50,0
764590,note_off,0,0,5,,,,,,,,,5,,,38,0
764615,note_off,95,0,2,,,,,,,,,2,,,82,0
764640,note_off,480,0,1,,,,,,,,,1,,,74,0
764640,note_on,25,0,2,,,,,,,,,2,,,86,93
764735,note_off,95,0,2,,,,,,,,,2,,,86,0
764760,note_on,25,0,2,,,,,,,,,2,,,82,94
764855,note_off,95,0,2,,,,,,,,,2,,,82,0
764880,note_on,290,0,5,,,,,,,,,5,,,50,94
764880,note_on,0,0,5,,,,,,,,,5,,,38,94
764880,note_on,25,0,2,,,,,,,,,2,,,86,94
764975,note_off,95,0,2,,,,,,,,,2,,,86,0
765000,note_on,25,0,2,,,,,,,,,2,,,82,95
765095,note_off,95,0,2,,,,,,,,,2,,,82,0
765120,note_off,0,0,5,,,,,,,,,5,,,50,0
765120,note_on,0,0,5,,,,,,,,,5,,,51,95
765120,note_on,0,0,5,,,,,,,,,5,,,39,95
765120,note_off,240,0,5,,,,,,,,,5,,,38,0
765120,note_on,480,0,1,,,,,,,,,1,,,74,95
765240,note_on,145,0,2,,,,,,,,,2,,,82,96
765310,note_off,0,0,5,,,,,,,,,5,,,39,0
765310,note_off,190,0,5,,,,,,,,,5,,,51,0
765335,note_off,95,0,2,,,,,,,,,2,,,82,0
765360,note_on,25,0,2,,,,,,,,,2,,,86,96
765360,note_on,0,0,5,,,,,,,,,5,,,51,96
765360,note_on,50,0,5,,,,,,,,,5,,,39,96
765455,note_off,95,0,2,,,,,,,,,2,,,86,0
765480,note_on,25,0,2,,,,,,,,,2,,,82,97
765550,note_off,0,0,5,,,,,,,,,5,,,39,0
765550,note_off,190,0,5,,,,,,,,,5,,,51,0
765575,note_off,95,0,2,,,,,,,,,2,,,82,0
765600,note_on,25,0,2,,,,,,,,,2,,,86,97
765600,note_on,0,0,5,,,,,,,,,5,,,52,97
765600,note_on,50,0,5,,,,,,,,,5,,,40,97
765600,note_off,480,0,1,,,,,,,,,1,,,74,0
765695,note_off,95,0,2,,,,,,,,,2,,,86,0
765720,note_on,25,0,2,,,,,,,,,2,,,82,97
765790,note_off,0,0,5,,,,,,,,,5,,,40,0
765790,note_off,190,0,5,,,,,,,,,5,,,52,0
765815,note_off,95,0,2,,,,,,,,,2,,,82,0
765840,note_on,0,0,5,,,,,,,,,5,,,40,98
765840,note_on,50,0,5,,,,,,,,,5,,,52,98
765840,note_on,25,0,2,,,,,,,,,2,,,86,98
765935,note_off,95,0,2,,,,,,,,,2,,,86,0
765960,note_on,25,0,2,,,,,,,,,2,,,82,98
766020,set_tempo,5700,1,0,,,,,,500000,,,,,,,
766030,note_off,0,0,5,,,,,,,,,5,,,52,0
766030,note_off,190,0,5,,,,,,,,,5,,,40,0
766055,note_off,95,0,2,,,,,,,,,2,,,82,0
766080,note_on,0,0,2,,,,,,,,,2,,,77,95
766080,note_on,0,0,2,,,,,,,,,2,,,82,95
766080,note_on,25,0,2,,,,,,,,,2,,,86,95
766080,set_tempo,60,1,0,,,,,,967741,,,,,,,
766080,note_on,50,0,5,,,,,,,,,5,,,53,95
766080,note_on,0,0,5,,,,,,,,,5,,,41,95
766080,note_on,480,0,1,,,,,,,,,1,,,74,95
767040,note_off,960,0,1,,,,,,,,,1,,,74,0
767040,note_off,960,0,5,,,,,,,,,5,,,41,0
767040,note_off,960,0,2,,,,,,,,,2,,,77,0
767040,note_off,0,0,2,,,,,,,,,2,,,86,0
767040,note_off,0,0,5,,,,,,,,,5,,,53,0
767045,note_off,5,0,2,,,,,,,,,2,,,82,0
767280,set_tempo,1200,1,0,,,,,,359281,,,,,,,
767280,note_on,240,0,1,,,,,,,,,1,,,65,37
767400,note_off,120,0,1,,,,,,,,,1,,,65,0
767400,note_on,0,0,1,,,,,,,,,1,,,69,37
767520,note_on,0,0,1,,,,,,,,,1,,,67,38
767520,note_off,120,0,1,,,,,,,,,1,,,69,0
767640,note_on,0,0,1,,,,,,,,,1,,,70,39
767640,note_off,120,0,1,,,,,,,,,1,,,67,0
767760,note_on,0,0,1,,,,,,,,,1,,,69,39
767760,note_off,120,0,1,,,,,,,,,1,,,70,0
767880,note_off,120,0,1,,,,,,,,,1,,,69,0
767880,note_on,0,0,1,,,,,,,,,1,,,72,40
768000,set_tempo,720,1,0,,,,,,600000,,,,,,,
768000,note_off,120,0,1,,,,,,,,,1,,,72,0
768000,note_on,0,0,1,,,,,,,,,1,,,70,41
768155,note_off,155,0,1,,,,,,,,,1,,,70,0
768240,note_on,85,0,1,,,,,,,,,1,,,69,42
768240,set_tempo,240,1,0,,,,,,359281,,,,,,,
768360,note_off,120,0,1,,,,,,,,,1,,,69,0
768360,note_on,0,0,1,,,,,,,,,1,,,72,43
768480,note_on,0,0,1,,,,,,,,,1,,,70,44
768480,note_off,120,0,1,,,,,,,,,1,,,72,0
768600,note_on,0,0,1,,,,,,,,,1,,,74,44
768600,note_off,120,0,1,,,,,,,,,1,,,70,0
768720,note_off,120,0,1,,,,,,,,,1,,,74,0
768720,note_on,0,0,1,,,,,,,,,1,,,72,45
768840,note_off,120,0,1,,,,,,,,,1,,,72,0
768840,note_on,0,0,1,,,,,,,,,1,,,75,46
768960,set_tempo,720,1,0,,,,,,659340,,,,,,,
768960,note_on,0,0,1,,,,,,,,,1,,,74,46
768960,note_off,120,0,1,,,,,,,,,1,,,75,0
769115,note_off,155,0,1,,,,,,,,,1,,,74,0
769200,set_tempo,240,1,0,,,,,,368098,,,,,,,
769200,note_on,85,0,1,,,,,,,,,1,,,72,48
769320,note_off,120,0,1,,,,,,,,,1,,,72,0
769320,note_on,0,0,1,,,,,,,,,1,,,75,48
769440,note_off,120,0,1,,,,,,,,,1,,,75,0
769440,note_on,0,0,1,,,,,,,,,1,,,74,49
769560,note_on,0,0,1,,,,,,,,,1,,,77,50
769560,note_off,120,0,1,,,,,,,,,1,,,74,0
769680,note_on,0,0,1,,,,,,,,,1,,,75,50
769680,note_off,120,0,1,,,,,,,,,1,,,77,0
769800,note_off,120,0,1,,,,,,,,,1,,,75,0
769800,note_on,0,0,1,,,,,,,,,1,,,79,51
769880,set_tempo,680,1,0,,,,,,461538,,,,,,,
769895,note_off,95,0,1,,,,,,,,,1,,,79,0
769920,note_on,25,0,1,,,,,,,,,1,,,77,53
769920,control_change,2880,0,5,,,,,,,64,127,5,,,,
769920,control_change,9695,0,4,,,,,,,64,127,4,,,,
769920,set_tempo,40,1,0,,,,,,355029,,,,,,,
769920,control_change,17330,0,3,,,,,,,64,127,3,,,,
769920,note_on,0,0,5,,,,,,,,,5,,,53,53
770160,note_on,240,0,3,,,,,,,,,3,,,62,52
770160,note_off,240,0,5,,,,,,,,,5,,,53,0
770400,note_off,240,0,3,,,,,,,,,3,,,62,0
770400,note_on,0,0,3,,,,,,,,,3,,,58,51
770640,note_off,240,0,3,,,,,,,,,3,,,58,0
770640,note_on,0,0,3,,,,,,,,,3,,,62,50
770640,note_on,0,0,1,,,,,,,,,1,,,74,50
770640,note_off,720,0,1,,,,,,,,,1,,,77,0
770820,control_change,900,0,4,,,,,,,64,0,4,,,,
770820,control_change,180,0,3,,,,,,,64,0,3,,,,
770820,control_change,660,0,5,,,,,,,64,0,5,,,,
770880,note_off,0,0,3,,,,,,,,,3,,,62,0
770880,control_change,60,0,3,,,,,,,64,127,3,,,,
770880,control_change,60,0,4,,,,,,,64,127,4,,,,
770880,note_off,240,0,1,,,,,,,,,1,,,74,0
770880,control_change,60,0,5,,,,,,,64,127,5,,,,
770880,note_on,0,0,5,,,,,,,,,5,,,53,48
770880,note_on,0,0,1,,,,,,,,,1,,,70,48
771120,note_off,240,0,5,,,,,,,,,5,,,53,0
771120,note_on,240,0,3,,,,,,,,,3,,,62,47
771190,note_off,310,0,1,,,,,,,,,1,,,70,0
771360,note_on,170,0,1,,,,,,,,,1,,,70,45
771360,note_off,240,0,3,,,,,,,,,3,,,62,0
771360,note_on,0,0,3,,,,,,,,,3,,,58,45
771600,note_off,240,0,3,,,,,,,,,3,,,58,0
771600,note_on,0,0,3,,,,,,,,,3,,,62,44
771670,note_off,310,0,1,,,,,,,,,1,,,70,0
771780,control_change,900,0,4,,,,,,,64,0,4,,,,
771780,control_change,660,0,5,,,,,,,64,0,5,,,,
771780,set_tempo,1860,1,0,,,,,,357142,,,,,,,
771780,control_change,180,0,3,,,,,,,64,0,3,,,,
771790,note_off,10,0,3,,,,,,,,,3,,,62,0
771840,control_change,60,0,4,,,,,,,64,127,4,,,,
771840,control_change,60,0,5,,,,,,,64,127,5,,,,
771840,note_on,170,0,1,,,,,,,,,1,,,75,45
771840,control_change,50,0,3,,,,,,,64,127,3,,,,
771840,note_on,0,0,5,,,,,,,,,5,,,53,45
772080,note_on,240,0,3,,,,,,,,,3,,,63,42
772080,note_on,0,0,1,,,,,,,,,1,,,77,42
772080,note_off,240,0,5,,,,,,,,,5,,,53,0
772080,note_off,240,0,1,,,,,,,,,1,,,75,0
772160,note_on,0,0,1,,,,,,,,,1,,,75,42
772160,note_off,80,0,1,,,,,,,,,1,,,77,0
772240,note_on,0,0,1,,,,,,,,,1,,,74,41
772240,note_off,80,0,1,,,,,,,,,1,,,75,0
772320,note_on,0,0,1,,,,,,,,,1,,,75,40
772320,note_off,80,0,1,,,,,,,,,1,,,74,0
772320,note_on,0,0,3,,,,,,,,,3,,,57,40
772320,note_off,240,0,3,,,,,,,,,3,,,63,0
772560,note_on,0,0,3,,,,,,,,,3,,,63,39
772560,note_off,240,0,3,,,,,,,,,3,,,57,0
772560,note_off,240,0,1,,,,,,,,,1,,,75,0
772560,note_on,0,0,1,,,,,,,,,1,,,79,39
772740,control_change,660,0,5,,,,,,,64,0,5,,,,
772740,control_change,900,0,4,,,,,,,64,0,4,,,,
772740,control_change,180,0,3,,,,,,,64,0,3,,,,
772800,note_off,0,0,3,,,,,,,,,3,,,63,0
772800,control_change,60,0,3,,,,,,,64,127,3,,,,
772800,note_off,240,0,1,,,,,,,,,1,,,79,0
772800,control_change,60,0,5,,,,,,,64,127,5,,,,
772800,note_on,0,0,1,,,,,,,,,1,,,69,37
772800,note_on,0,0,5,,,,,,,,,5,,,53,37
772800,control_change,60,0,4,,,,,,,64,127,4,,,,
773040,note_off,240,0,5,,,,,,,,,5,,,53,0
773040,note_on,240,0,3,,,,,,,,,3,,,63,36
773185,note_off,385,0,1,,,,,,,,,1,,,69,0
773280,note_off,240,0,3,,,,,,,,,3,,,63,0
773280,note_on,0,0,3,,,,,,,,,3,,,57,34
773520,note_off,240,0,3,,,,,,,,,3,,,57,0
773520,note_on,0,0,3,,,,,,,,,3,,,63,33
773700,control_change,900,0,4,,,,,,,64,0,4,,,,
773700,control_change,180,0,3,,,,,,,64,0,3,,,,
773700,control_change,660,0,5,,,,,,,64,0,5,,,,
773710,note_off,10,0,3,,,,,,,,,3,,,63,0
773720,set_tempo,1940,1,0,,,,,,377358,,,,,,,
773760,note_on,0,0,5,,,,,,,,,5,,,53,47
773760,control_change,60,0,4,,,,,,,64,127,4,,,,
773760,note_on,575,0,1,,,,,,,,,1,,,77,47
773760,control_change,50,0,3,,,,,,,64,127,3,,,,
773760,control_change,60,0,5,,,,,,,64,127,5,,,,
773760,set_tempo,40,1,0,,,,,,355029,,,,,,,
774000,note_on,240,0,3,,,,,,,,,3,,,61,45
774000,note_off,240,0,5,,,,,,,,,5,,,53,0
774240,note_on,0,0,3,,,,,,,,,3,,,58,44
774240,note_off,240,0,3,,,,,,,,,3,,,61,0
774480,note_off,240,0,3,,,,,,,,,3,,,58,0
774480,note_on,0,0,3,,,,,,,,,3,,,61,43
774480,note_on,0,0,1,,,,,,,,,1,,,73,43
774480,note_off,720,0,1,,,,,,,,,1,,,77,0
774660,control_change,180,0,3,,,,,,,64,0,3,,,,
774660,control_change,660,0,5,,,,,,,64,0,5,,,,
774660,control_change,900,0,4,,,,,,,64,0,4,,,,
774720,note_off,240,0,1,,,,,,,,,1,,,73,0
774720,note_on,0,0,1,,,,,,,,,1,,,70,42
774720,control_change,60,0,5,,,,,,,64,127,5,,,,
774720,note_on,0,0,5,,,,,,,,,5,,,53,42
774720,note_off,0,0,3,,,,,,,,,3,,,61,0
774720,control_change,60,0,4,,,,,,,64,127,4,,,,
774720,control_change,60,0,3,,,,,,,64,127,3,,,,
774875,note_off,155,0,1,,,,,,,,,1,,,70,0
774960,note_off,240,0,5,,,,,,,,,5,,,53,0
774960,note_on,240,0,3,,,,,,,,,3,,,61,42
774960,note_on,85,0,1,,,,,,,,,1,,,70,42
775115,note_off,155,0,1,,,,,,,,,1,,,70,0
775200,note_on,85,0,1,,,,,,,,,1,,,70,41
775200,note_off,240,0,3,,,,,,,,,3,,,61,0
775200,note_on,0,0,3,,,,,,,,,3,,,58,41
775355,note_off,155,0,1,,,,,,,,,1,,,70,0
775440,note_off,240,0,3,,,,,,,,,3,,,58,0
775440,note_on,0,0,3,,,,,,,,,3,,,61,40
775440,note_on,85,0,1,,,,,,,,,1,,,70,40
775595,note_off,155,0,1,,,,,,,,,1,,,70,0
775620,set_tempo,1860,1,0,,,,,,357142,,,,,,,
775620,control_change,900,0,4,,,,,,,64,0,4,,,,
775620,control_change,180,0,3,,,,,,,64,0,3,,,,
775620,control_change,660,0,5,,,,,,,64,0,5,,,,
775630,note_off,10,0,3,,,,,,,,,3,,,61,0
775680,note_on,85,0,1,,,,,,,,,1,,,75,43
775680,control_change,50,0,3,,,,,,,64,127,3,,,,
775680,control_change,60,0,5,,,,,,,64,127,5,,,,
775680,note_on,0,0,5,,,,,,,,,5,,,53,43
775680,control_change,60,0,4,,,,,,,64,127,4,,,,
775920,note_off,240,0,1,,,,,,,,,1,,,75,0
775920,note_on,0,0,1,,,,,,,,,1,,,77,42
775920,note_off,240,0,5,,,,,,,,,5,,,53,0
775920,note_on,240,0,3,,,,,,,,,3,,,63,42
776000,note_on,0,0,1,,,,,,,,,1,,,75,42
776000,note_off,80,0,1,,,,,,,,,1,,,77,0
776080,note_off,80,0,1,,,,,,,,,1,,,75,0
776080,note_on,0,0,1,,,,,,,,,1,,,74,42
776160,note_off,240,0,3,,,,,,,,,3,,,63,0
776160,note_off,80,0,1,,,,,,,,,1,,,74,0
776160,note_on,0,0,1,,,,,,,,,1,,,75,41
776160,note_on,0,0,3,,,,,,,,,3,,,60,41
776400,note_on,0,0,3,,,,,,,,,3,,,63,40
776400,note_off,240,0,1,,,,,,,,,1,,,75,0
776400,note_on,0,0,1,,,,,,,,,1,,,78,40
776400,note_off,240,0,3,,,,,,,,,3,,,60,0
776580,control_change,180,0,3,,,,,,,64,0,3,,,,
776580,control_change,660,0,5,,,,,,,64,0,5,,,,
776580,control_change,900,0,4,,,,,,,64,0,4,,,,
776640,control_change,60,0,5,,,,,,,64,127,5,,,,
776640,note_on,0,0,5,,,,,,,,,5,,,53,39
776640,control_change,60,0,3,,,,,,,64,127,3,,,,
776640,note_off,240,0,1,,,,,,,,,1,,,78,0
776640,control_change,60,0,4,,,,,,,64,127,4,,,,
776640,note_on,0,0,1,,,,,,,,,1,,,69,39
776640,note_off,0,0,3,,,,,,,,,3,,,63,0
776880,note_on,240,0,3,,,,,,,,,3,,,63,37
776880,note_off,240,0,5,,,,,,,,,5,,,53,0
777025,note_off,385,0,1,,,,,,,,,1,,,69,0
777120,note_off,240,0,3,,,,,,,,,3,,,63,0
777120,note_on,0,0,3,,,,,,,,,3,,,60,36
777360,note_off,240,0,3,,,,,,,,,3,,,60,0
777360,note_on,0,0,3,,,,,,,,,3,,,63,35
777540,control_change,660,0,5,,,,,,,64,0,5,,,,
777540,control_change,180,0,3,,,,,,,64,0,3,,,,
777540,control_change,900,0,4,,,,,,,64,0,4,,,,
777550,note_off,10,0,3,,,,,,,,,3,,,63,0
777560,set_tempo,1940,1,0,,,,,,400000,,,,,,,
777600,note_on,575,0,1,,,,,,,,,1,,,70,34
777600,note_on,60,0,4,,,,,,,,,4,,,61,34
777600,note_on,60,0,5,,,,,,,,,5,,,54,34
777600,set_tempo,40,1,0,,,,,,359281,,,,,,,
777660,set_tempo,60,1,0,,,,,,355029,,,,,,,
777790,note_off,190,0,1,,,,,,,,,1,,,70,0
777840,note_on,50,0,1,,,,,,,,,1,,,82,60
777985,note_off,385,0,4,,,,,,,,,4,,,61,0
777985,note_off,385,0,5,,,,,,,,,5,,,54,0
778080,note_on,0,0,1,,,,,,,,,1,,,84,61
778080,note_off,240,0,1,,,,,,,,,1,,,82,0
778320,note_off,240,0,1,,,,,,,,,1,,,84,0
778320,note_on,0,0,1,,,,,,,,,1,,,85,62
778560,note_off,240,0,1,,,,,,,,,1,,,85,0
778560,note_on,0,0,1,,,,,,,,,1,,,84,63
778800,note_off,240,0,1,,,,,,,,,1,,,84,0
778800,note_on,0,0,1,,,,,,,,,1,,,82,64
779040,note_off,240,0,1,,,,,,,,,1,,,82,0
779040,note_on,0,0,1,,,,,,,,,1,,,80,65
779280,note_off,240,0,1,,,,,,,,,1,,,80,0
779280,note_on,0,0,1,,,,,,,,,1,,,78,66
779460,set_tempo,1800,1,0,,,,,,357142,,,,,,,
779470,note_off,190,0,1,,,,,,,,,1,,,78,0
779520,note_on,1535,0,5,,,,,,,,,5,,,54,67
779520,set_tempo,60,1,0,,,,,,355029,,,,,,,
779520,note_on,50,0,1,,,,,,,,,1,,,77,67
779760,note_on,1775,0,4,,,,,,,,,4,,,58,63
780000,note_off,240,0,4,,,,,,,,,4,,,58,0
780000,note_on,0,0,4,,,,,,,,,4,,,60,59
780240,note_off,240,0,4,,,,,,,,,4,,,60,0
780240,note_on,0,0,4,,,,,,,,,4,,,61,56
780420,set_tempo,900,1,0,,,,,,357142,,,,,,,
780430,note_off,190,0,4,,,,,,,,,4,,,61,0
780480,note_off,960,0,1,,,,,,,,,1,,,77,0
780480,note_on,50,0,4,,,,,,,,,4,,,61,52
780480,note_on,0,0,1,,,,,,,,,1,,,76,52
780720,note_on,0,0,4,,,,,,,,,4,,,60,48
780720,note_off,240,0,4,,,,,,,,,4,,,61,0
780910,note_off,190,0,4,,,,,,,,,4,,,60,0
780960,note_on,50,0,4,,,,,,,,,4,,,60,45
781200,note_on,0,0,4,,,,,,,,,4,,,58,41
781200,note_off,240,0,4,,,,,,,,,4,,,60,0
781250,note_off,770,0,1,,,,,,,,,1,,,76,0
781380,note_off,1860,0,5,,,,,,,,,5,,,54,0
781390,note_off,190,0,4,,,,,,,,,4,,,58,0
781400,set_tempo,980,1,0,,,,,,368098,,,,,,,
781440,set_tempo,40,1,0,,,,,,355029,,,,,,,
781440,note_on,190,0,1,,,,,,,,,1,,,77,40
781440,note_on,50,0,4,,,,,,,,,4,,,57,40
781440,note_on,60,0,5,,,,,,,,,5,,,53,40
781630,note_off,190,0,1,,,,,,,,,1,,,77,0
781680,note_on,50,0,1,,,,,,,,,1,,,77,41
781825,note_off,385,0,5,,,,,,,,,5,,,53,0
781825,note_off,385,0,4,,,,,,,,,4,,,57,0
781870,note_off,190,0,1,,,,,,,,,1,,,77,0
781920,note_on,95,0,5,,,,,,,,,5,,,53,42
781920,note_on,95,0,4,,,,,,,,,4,,,57,42
782160,note_on,290,0,1,,,,,,,,,1,,,77,43
782305,note_off,385,0,5,,,,,,,,,5,,,53,0
782305,note_off,385,0,4,,,,,,,,,4,,,57,0
782350,note_off,190,0,1,,,,,,,,,1,,,77,0
782400,note_on,50,0,1,,,,,,,,,1,,,77,44
782590,note_off,190,0,1,,,,,,,,,1,,,77,0
782640,note_on,50,0,1,,,,,,,,,1,,,77,45
782830,note_off,190,0,1,,,,,,,,,1,,,77,0
782880,note_on,575,0,4,,,,,,,,,4,,,57,46
782880,note_on,575,0,5,,,,,,,,,5,,,53,46
783120,note_on,290,0,1,,,,,,,,,1,,,77,47
783310,note_off,190,0,1,,,,,,,,,1,,,77,0
783360,note_off,480,0,4,,,,,,,,,4,,,57,0
783360,note_on,0,0,4,,,,,,,,,4,,,55,48
783360,note_on,0,0,4,,,,,,,,,4,,,58,48
783360,note_on,50,0,1,,,,,,,,,1,,,77,48
783360,note_off,480,0,5,,,,,,,,,5,,,53,0
783360,note_on,0,0,5,,,,,,,,,5,,,53,48
783550,note_off,190,0,1,,,,,,,,,1,,,77,0
783600,note_on,50,0,1,,,,,,,,,1,,,77,49
783745,note_off,385,0,4,,,,,,,,,4,,,58,0
783745,note_off,385,0,5,,,,,,,,,5,,,53,0
783745,note_off,0,0,4,,,,,,,,,4,,,55,0
783790,note_off,190,0,1,,,,,,,,,1,,,77,0
783840,note_on,95,0,4,,,,,,,,,4,,,55,50
783840,note_on,95,0,5,,,,,,,,,5,,,53,50
783840,note_on,0,0,4,,,,,,,,,4,,,58,50
784080,note_on,290,0,1,,,,,,,,,1,,,77,51
784225,note_off,385,0,4,,,,,,,,,4,,,58,0
784225,note_off,0,0,4,,,,,,,,,4,,,55,0
784225,note_off,385,0,5,,,,,,,,,5,,,53,0
784270,note_off,190,0,1,,,,,,,,,1,,,77,0
784320,note_on,50,0,1,,,,,,,,,1,,,77,52
784510,note_off,190,0,1,,,,,,,,,1,,,77,0
784560,note_on,50,0,1,,,,,,,,,1,,,77,53
784750,note_off,190,0,1,,,,,,,,,1,,,77,0
784800,note_on,575,0,4,,,,,,,,,4,,,55,54
784800,note_on,0,0,4,,,,,,,,,4,,,58,54
784800,note_on,575,0,5,,,,,,,,,5,,,53,54
785040,note_on,290,0,1,,,,,,,,,1,,,77,55
785230,note_off,190,0,1,,,,,,,,,1,,,77,0
785280,note_off,0,0,4,,,,,,,,,4,,,55,0
785280,note_on,0,0,4,,,,,,,,,4,,,60,56
785280,note_on,0,0,5,,,,,,,,,5,,,53,56
785280,note_on,0,0,4,,,,,,,,,4,,,57,56
785280,note_on,50,0,1,,,,,,,,,1,,,77,56
785280,note_off,480,0,4,,,,,,,,,4,,,58,0
785280,note_off,480,0,5,,,,,,,,,5,,,53,0
785470,note_off,190,0,1,,,,,,,,,1,,,77,0
785520,note_on,50,0,1,,,,,,,,,1,,,77,57
785710,note_off,190,0,1,,,,,,,,,1,,,77,0
785760,note_off,480,0,4,,,,,,,,,4,,,57,0
785760,note_off,0,0,4,,,,,,,,,4,,,60,0
785760,note_on,0,0,4,,,,,,,,,4,,,61,58
785760,note_on,0,0,4,,,,,,,,,4,,,57,58
786000,note_on,290,0,1,,,,,,,,,1,,,77,59
786190,note_off,190,0,1,,,,,,,,,1,,,77,0
786240,note_off,960,0,5,,,,,,,,,5,,,53,0
786240,note_on,0,0,5,,,,,,,,,5,,,53,60
786240,note_on,50,0,1,,,,,,,,,1,,,77,60
786240,note_off,480,0,4,,,,,,,,,4,,,57,0
786240,note_off,0,0,4,,,,,,,,,4,,,61,0
786240,note_on,0,0,4,,,,,,,,,4,,,62,60
786240,note_on,0,0,4,,,,,,,,,4,,,58,60
786430,note_off,190,0,1,,,,,,,,,1,,,77,0
786480,note_on,50,0,1,,,,,,,,,1,,,77,61
786670,note_off,190,0,1,,,,,,,,,1,,,77,0
786720,note_off,0,0,4,,,,,,,,,4,,,62,0
786720,note_off,480,0,4,,,,,,,,,4,,,58,0
786720,note_on,0,0,4,,,,,,,,,4,,,62,62
786720,note_on,0,0,4,,,,,,,,,4,,,59,62
786960,note_on,290,0,1,,,,,,,,,1,,,77,63
787140,set_tempo,5700,1,0,,,,,,357142,,,,,,,
787150,note_off,190,0,1,,,,,,,,,1,,,77,0
787200,note_on,0,0,4,,,,,,,,,4,,,63,64
787200,note_on,0,0,5,,,,,,,,,5,,,53,64
787200,note_off,960,0,5,,,,,,,,,5,,,53,0
787200,note_on,0,0,4,,,,,,,,,4,,,60,64
787200,note_off,0,0,4,,,,,,,,,4,,,59,0
787200,note_on,50,0,1,,,,,,,,,1,,,77,64
787200,note_off,480,0,4,,,,,,,,,4,,,62,0
787440,note_off,240,0,1,,,,,,,,,1,,,77,0
787440,note_on,0,0,1,,,,,,,,,1,,,81,65
787630,note_off,190,0,1,,,,,,,,,1,,,81,0
787680,note_on,50,0,1,,,,,,,,,1,,,81,66
787920,note_off,240,0,1,,,,,,,,,1,,,81,0
787920,note_on,0,0,1,,,,,,,,,1,,,84,67
788110,note_off,190,0,1,,,,,,,,,1,,,84,0
788160,note_on,50,0,1,,,,,,,,,1,,,84,68
788400,note_off,240,0,1,,,,,,,,,1,,,84,0
788400,note_on,0,0,1,,,,,,,,,1,,,87,69
788590,note_off,190,0,1,,,,,,,,,1,,,87,0
788640,note_on,50,0,1,,,,,,,,,1,,,87,70
788880,note_off,240,0,1,,,,,,,,,1,,,87,0
788880,note_on,0,0,1,,,,,,,,,1,,,84,71
789070,note_off,190,0,1,,,,,,,,,1,,,84,0
789120,note_off,0,0,4,,,,,,,,,4,,,60,0
789120,note_on,50,0,1,,,,,,,,,1,,,84,73
789120,note_off,1920,0,4,,,,,,,,,4,,,63,0
789120,note_off,1920,0,5,,,,,,,,,5,,,53,0
789360,note_off,240,0,1,,,,,,,,,1,,,84,0
789360,note_on,0,0,1,,,,,,,,,1,,,81,71
789550,note_off,190,0,1,,,,,,,,,1,,,81,0
789600,note_on,50,0,1,,,,,,,,,1,,,81,70
789840,note_off,240,0,1,,,,,,,,,1,,,81,0
789840,note_on,0,0,1,,,,,,,,,1,,,77,68
790020,set_tempo,2880,1,0,,,,,,359281,,,,,,,
790030,note_off,190,0,1,,,,,,,,,1,,,77,0
790080,note_on,50,0,1,,,,,,,,,1,,,77,67
790320,note_on,0,0,1,,,,,,,,,1,,,76,65
790320,note_off,240,0,1,,,,,,,,,1,,,77,0
790510,note_off,190,0,1,,,,,,,,,1,,,76,0
790560,note_on,50,0,1,,,,,,,,,1,,,76,64
790800,note_on,0,0,1,,,,,,,,,1,,,77,62
790800,note_off,240,0,1,,,,,,,,,1,,,76,0
790990,note_off,190,0,1,,,,,,,,,1,,,77,0
791000,set_tempo,980,1,0,,,,,,363636,,,,,,,
791040,set_tempo,40,1,0,,,,,,355029,,,,,,,
791040,note_on,50,0,1,,,,,,,,,1,,,77,60
791040,note_on,1920,0,5,,,,,,,,,5,,,53,60
791280,note_on,0,0,5,,,,,,,,,5,,,57,61
791280,note_off,240,0,5,,,,,,,,,5,,,53,0
791280,note_on,0,0,1,,,,,,,,,1,,,76,61
791280,note_off,240,0,1,,,,,,,,,1,,,77,0
791470,note_off,190,0,5,,,,,,,,,5,,,57,0
791470,note_off,190,0,1,,,,,,,,,1,,,76,0
791520,note_on,50,0,1,,,,,,,,,1,,,75,62
791520,note_on,50,0,5,,,,,,,,,5,,,57,62
791760,note_off,240,0,5,,,,,,,,,5,,,57,0
791760,note_on,0,0,5,,,,,,,,,5,,,60,63
791950,note_off,190,0,5,,,,,,,,,5,,,60,0
792000,note_on,50,0,5,,,,,,,,,5,,,60,64
792240,note_on,0,0,5,,,,,,,,,5,,,63,65
792240,note_off,240,0,5,,,,,,,,,5,,,60,0
792290,note_off,770,0,1,,,,,,,,,1,,,75,0
792430,note_off,190,0,5,,,,,,,,,5,,,63,0
792480,note_on,190,0,1,,,,,,,,,1,,,75,66
792480,note_on,50,0,5,,,,,,,,,5,,,63,66
792720,note_on,0,0,5,,,,,,,,,5,,,60,67
792720,note_off,240,0,5,,,,,,,,,5,,,63,0
792910,note_off,190,0,5,,,,,,,,,5,,,60,0
792960,note_on,50,0,5,,,,,,,,,5,,,60,65
793200,note_off,240,0,5,,,,,,,,,5,,,60,0
793200,note_on,0,0,5,,,,,,,,,5,,,57,62
793250,note_off,770,0,1,,,,,,,,,1,,,75,0
793390,note_off,190,0,5,,,,,,,,,5,,,57,0
793440,note_on,190,0,1,,,,,,,,,1,,,75,58
793440,note_on,50,0,5,,,,,,,,,5,,,57,58
793680,note_off,240,0,5,,,,,,,,,5,,,57,0
793680,note_on,0,0,5,,,,,,,,,5,,,53,54
793825,note_off,385,0,1,,,,,,,,,1,,,75,0
793870,note_off,190,0,5,,,,,,,,,5,,,53,0
793920,note_on,50,0,5,,,,,,,,,5,,,54,55
793920,note_on,95,0,1,,,,,,,,,1,,,75,55
794160,note_off,240,0,5,,,,,,,,,5,,,54,0
794160,note_on,0,0,5,,,,,,,,,5,,,55,58
794305,note_off,385,0,1,,,,,,,,,1,,,75,0
794400,note_on,95,0,1,,,,,,,,,1,,,75,61
794400,note_off,240,0,5,,,,,,,,,5,,,55,0
794400,note_on,0,0,5,,,,,,,,,5,,,56,61
794640,note_on,0,0,5,,,,,,,,,5,,,57,64
794640,note_off,240,0,5,,,,,,,,,5,,,56,0
794785,note_off,385,0,1,,,,,,,,,1,,,75,0
794830,note_off,190,0,5,,,,,,,,,5,,,57,0
794840,set_tempo,3800,1,0,,,,,,359281,,,,,,,
794880,note_on,50,0,5,,,,,,,,,5,,,58,66
794880,set_tempo,40,1,0,,,,,,355029,,,,,,,
794880,note_on,95,0,1,,,,,,,,,1,,,74,66
795070,note_off,190,0,5,,,,,,,,,5,,,58,0
795120,note_on,50,0,5,,,,,,,,,5,,,58,66
795265,note_off,385,0,1,,,,,,,,,1,,,74,0
795310,note_off,190,0,5,,,,,,,,,5,,,58,0
795360,note_on,28315,0,2,,,,,,,,,2,,,68,66
795360,note_on,95,0,1,,,,,,,,,1,,,77,66
795600,note_on,290,0,5,,,,,,,,,5,,,58,67
795790,note_off,190,0,5,,,,,,,,,5,,,58,0
795840,note_on,0,0,1,,,,,,,,,1,,,75,67
795840,note_on,0,0,2,,,,,,,,,2,,,67,67
795840,note_off,480,0,2,,,,,,,,,2,,,68,0
795840,note_off,480,0,1,,,,,,,,,1,,,77,0
795840,note_on,50,0,5,,,,,,,,,5,,,58,67
796030,note_off,190,0,5,,,,,,,,,5,,,58,0
796080,note_on,50,0,5,,,,,,,,,5,,,58,68
796270,note_off,190,0,5,,,,,,,,,5,,,58,0
796320,note_off,480,0,2,,,,,,,,,2,,,67,0
796320,note_on,0,0,2,,,,,,,,,2,,,66,68
796320,note_on,0,0,1,,,,,,,,,1,,,74,68
796320,note_off,480,0,1,,,,,,,,,1,,,75,0
796560,note_on,290,0,5,,,,,,,,,5,,,58,68
796750,note_off,190,0,5,,,,,,,,,5,,,58,0
796800,note_off,480,0,1,,,,,,,,,1,,,74,0
796800,note_on,0,0,1,,,,,,,,,1,,,75,69
796800,note_on,0,0,2,,,,,,,,,2,,,67,69
796800,note_on,50,0,5,,,,,,,,,5,,,58,69
796800,note_off,480,0,2,,,,,,,,,2,,,66,0
796990,note_off,190,0,5,,,,,,,,,5,,,58,0
797040,note_on,50,0,5,,,,,,,,,5,,,58,69
797185,note_off,385,0,1,,,,,,,,,1,,,75,0
797185,note_off,385,0,2,,,,,,,,,2,,,67,0
797230,note_off,190,0,5,,,,,,,,,5,,,58,0
797280,note_on,95,0,1,,,,,,,,,1,,,79,69
797280,note_on,95,0,2,,,,,,,,,2,,,70,69
797520,note_on,290,0,5,,,,,,,,,5,,,58,70
797710,note_off,190,0,5,,,,,,,,,5,,,58,0
797760,note_on,0,0,1,,,,,,,,,1,,,77,70
797760,note_off,480,0,1,,,,,,,,,1,,,79,0
797760,note_on,50,0,5,,,,,,,,,5,,,58,70
797760,note_off,480,0,2,,,,,,,,,2,,,70,0
797760,note_on,0,0,2,,,,,,,,,2,,,68,70
797950,note_off,190,0,5,,,,,,,,,5,,,58,0
798000,note_on,50,0,5,,,,,,,,,5,,,58,70
798190,note_off,190,0,5,,,,,,,,,5,,,58,0
798240,note_off,480,0,2,,,,,,,,,2,,,68,0
798240,note_on,0,0,2,,,,,,,,,2,,,67,71
798240,note_on,0,0,1,,,,,,,,,1,,,76,71
798240,note_off,480,0,1,,,,,,,,,1,,,77,0
798480,note_on,290,0,5,,,,,,,,,5,,,58,71
798670,note_off,190,0,5,,,,,,,,,5,,,58,0
798720,note_off,480,0,2,,,,,,,,,2,,,67,0
798720,note_on,0,0,2,,,,,,,,,2,,,68,71
798720,note_on,0,0,1,,,,,,,,,1,,,77,71
798720,note_off,480,0,1,,,,,,,,,1,,,76,0
798720,note_on,50,0,5,,,,,,,,,5,,,58,71
798910,note_off,190,0,5,,,,,,,,,5,,,58,0
798960,note_on,50,0,5,,,,,,,,,5,,,58,72
799105,note_off,385,0,2,,,,,,,,,2,,,68,0
799105,note_off,385,0,1,,,,,,,,,1,,,77,0
799150,note_off,190,0,5,,,,,,,,,5,,,58,0
799200,note_on,95,0,2,,,,,,,,,2,,,77,72
799200,note_on,95,0,1,,,,,,,,,1,,,80,72
799440,note_on,290,0,5,,,,,,,,,5,,,58,73
799630,note_off,190,0,5,,,,,,,,,5,,,58,0
799680,note_on,50,0,5,,,,,,,,,5,,,58,73
799680,note_off,480,0,1,,,,,,,,,1,,,80,0
799680,note_on,0,0,2,,,,,,,,,2,,,75,73
799680,note_off,480,0,2,,,,,,,,,2,,,77,0
799680,note_on,0,0,1,,,,,,,,,1,,,79,73
799870,note_off,190,0,5,,,,,,,,,5,,,58,0
799920,note_on,50,0,5,,,,,,,,,5,,,58,73
800110,note_off,190,0,5,,,,,,,,,5,,,58,0
800160,note_off,480,0,2,,,,,,,,,2,,,75,0
800160,note_on,0,0,2,,,,,,,,,2,,,74,74
800160,note_off,480,0,1,,,,,,,,,1,,,79,0
800160,note_on,0,0,1,,,,,,,,,1,,,78,74
800400,note_on,290,0,5,,,,,,,,,5,,,58,74
800545,note_off,385,0,1,,,,,,,,,1,,,78,0
800545,note_off,385,0,2,,,,,,,,,2,,,74,0
800590,note_off,190,0,5,,,,,,,,,5,,,58,0
800600,set_tempo,5720,1,0,,,,,,377358,,,,,,,
800640,set_tempo,40,1,0,,,,,,355029,,,,,,,
800640,note_on,95,0,1,,,,,,,,,1,,,79,74
800640,note_on,95,0,2,,,,,,,,,2,,,77,74
800640,note_on,0,0,2,,,,,,,,,2,,,74,74
800640,note_on,50,0,5,,,,,,,,,5,,,59,74
800830,note_off,190,0,1,,,,,,,,,1,,,79,0
800830,note_off,0,0,2,,,,,,,,,2,,,77,0
800830,note_off,190,0,2,,,,,,,,,2,,,74,0
800880,note_on,0,0,2,,,,,,,,,2,,,74,75
800880,note_on,50,0,1,,,,,,,,,1,,,79,75
800880,note_on,50,0,2,,,,,,,,,2,,,77,75
801020,note_off,380,0,5,,,,,,,,,5,,,59,0
801070,note_off,0,0,2,,,,,,,,,2,,,77,0
801070,note_off,190,0,2,,,,,,,,,2,,,74,0
801070,note_off,190,0,1,,,,,,,,,1,,,79,0
801120,note_on,100,0,5,,,,,,,,,5,,,47,75
801120,note_on,0,0,5,,,,,,,,,5,,,59,75
801360,note_on,0,0,2,,,,,,,,,2,,,74,75
801360,note_on,290,0,2,,,,,,,,,2,,,77,75
801360,note_on,290,0,1,,,,,,,,,1,,,79,75
801500,note_off,0,0,5,,,,,,,,,5,,,47,0
801500,note_off,380,0,5,,,,,,,,,5,,,59,0
801550,note_off,0,0,2,,,,,,,,,2,,,77,0
801550,note_off,190,0,1,,,,,,,,,1,,,79,0
801550,note_off,190,0,2,,,,,,,,,2,,,74,0
801600,note_on,0,0,5,,,,,,,,,5,,,60,76
801600,note_on,100,0,5,,,,,,,,,5,,,48,76
801600,note_on,0,0,2,,,,,,,,,2,,,75,76
801600,note_on,50,0,2,,,,,,,,,2,,,79,76
801600,note_on,50,0,1,,,,,,,,,1,,,87,76
801790,note_off,190,0,1,,,,,,,,,1,,,87,0
801790,note_off,190,0,2,,,,,,,,,2,,,75,0
801790,note_off,0,0,2,,,,,,,,,2,,,79,0
801840,note_on,0,0,2,,,,,,,,,2,,,75,76
801840,note_on,50,0,2,,,,,,,,,2,,,79,76
801840,note_on,50,0,1,,,,,,,,,1,,,87,76
801980,note_off,0,0,5,,,,,,,,,5,,,48,0
801980,note_off,380,0,5,,,,,,,,,5,,,60,0
802030,note_off,190,0,1,,,,,,,,,1,,,87,0
802030,note_off,0,0,2,,,,,,,,,2,,,79,0
802030,note_off,190,0,2,,,,,,,,,2,,,75,0
802080,note_on,0,0,5,,,,,,,,,5,,,58,77
802080,note_on,100,0,5,,,,,,,,,5,,,46,77
802320,note_on,290,0,1,,,,,,,,,1,,,79,77
802320,note_on,0,0,2,,,,,,,,,2,,,72,77
802320,note_on,290,0,2,,,,,,,,,2,,,75,77
802460,note_off,0,0,5,,,,,,,,,5,,,46,0
802460,note_off,380,0,5,,,,,,,,,5,,,58,0
802510,note_off,190,0,1,,,,,,,,,1,,,79,0
802510,note_off,190,0,2,,,,,,,,,2,,,72,0
802510,note_off,0,0,2,,,,,,,,,2,,,75,0
802560,note_on,50,0,2,,,,,,,,,2,,,75,77
802560,note_on,0,0,2,,,,,,,,,2,,,72,77
802560,note_on,100,0,5,,,,,,,,,5,,,57,77
802560,note_on,0,0,5,,,,,,,,,5,,,45,77
802560,note_on,50,0,1,,,,,,,,,1,,,77,77
802750,note_off,190,0,2,,,,,,,,,2,,,72,0
802750,note_off,0,0,2,,,,,,,,,2,,,75,0
802750,note_off,190,0,1,,,,,,,,,1,,,77,0
802800,note_on,50,0,2,,,,,,,,,2,,,75,78
802800,note_on,0,0,2,,,,,,,,,2,,,72,78
802800,note_on,50,0,1,,,,,,,,,1,,,77,78
802940,note_off,0,0,5,,,,,,,,,5,,,57,0
802940,note_off,380,0,5,,,,,,,,,5,,,45,0
802990,note_off,0,0,2,,,,,,,,,2,,,75,0
802990,note_off,190,0,2,,,,,,,,,2,,,72,0
802990,note_off,190,0,1,,,,,,,,,1,,,77,0
803040,note_on,0,0,5,,,,,,,,,5,,,57,78
803040,note_on,100,0,5,,,,,,,,,5,,,45,78
803280,note_on,0,0,2,,,,,,,,,2,,,72,78
803280,note_on,290,0,2,,,,,,,,,2,,,75,78
803280,note_on,290,0,1,,,,,,,,,1,,,77,78
803420,note_off,0,0,5,,,,,,,,,5,,,45,0
803420,note_off,380,0,5,,,,,,,,,5,,,57,0
803470,note_off,190,0,2,,,,,,,,,2,,,72,0
803470,note_off,190,0,1,,,,,,,,,1,,,77,0
803470,note_off,0,0,2,,,,,,,,,2,,,75,0
803520,note_on,0,0,2,,,,,,,,,2,,,74,79
803520,note_on,50,0,1,,,,,,,,,1,,,86,79
803520,note_on,100,0,5,,,,,,,,,5,,,46,79
803520,note_on,0,0,5,,,,,,,,,5,,,58,79
803520,note_on,50,0,2,,,,,,,,,2,,,77,79
803710,note_off,190,0,1,,,,,,,,,1,,,86,0
803710,note_off,190,0,2,,,,,,,,,2,,,74,0
803710,note_off,0,0,2,,,,,,,,,2,,,77,0
803760,note_on,50,0,2,,,,,,,,,2,,,77,79
803760,note_on,0,0,2,,,,,,,,,2,,,74,79
803760,note_on,50,0,1,,,,,,,,,1,,,86,79
803900,note_off,0,0,5,,,,,,,,,5,,,46,0
803900,note_off,380,0,5,,,,,,,,,5,,,58,0
803950,note_off,190,0,1,,,,,,,,,1,,,86,0
803950,note_off,190,0,2,,,,,,,,,2,,,74,0
803950,note_off,0,0,2,,,,,,,,,2,,,77,0
804000,note_on,0,0,5,,,,,,,,,5,,,57,79
804000,note_on,100,0,5,,,,,,,,,5,,,45,79
804240,note_on,290,0,1,,,,,,,,,1,,,77,80
804240,note_on,290,0,2,,,,,,,,,2,,,74,80
804240,note_on,0,0,2,,,,,,,,,2,,,70,80
804380,note_off,380,0,5,,,,,,,,,5,,,57,0
804380,note_off,0,0,5,,,,,,,,,5,,,45,0
804430,note_off,0,0,2,,,,,,,,,2,,,74,0
804430,note_off,190,0,2,,,,,,,,,2,,,70,0
804430,note_off,190,0,1,,,,,,,,,1,,,77,0
804480,note_on,50,0,2,,,,,,,,,2,,,74,80
804480,note_on,0,0,2,,,,,,,,,2,,,70,80
804480,note_on,50,0,1,,,,,,,,,1,,,75,80
804480,note_on,0,0,5,,,,,,,,,5,,,55,80
804480,note_on,100,0,5,,,,,,,,,5,,,43,80
804670,note_off,190,0,2,,,,,,,,,2,,,70,0
804670,note_off,190,0,1,,,,,,,,,1,,,75,0
804670,note_off,0,0,2,,,,,,,,,2,,,74,0
804720,note_on,0,0,2,,,,,,,,,2,,,70,80
804720,note_on,50,0,1,,,,,,,,,1,,,75,80
804720,note_on,50,0,2,,,,,,,,,2,,,74,80
804860,note_off,0,0,5,,,,,,,,,5,,,43,0
804860,note_off,380,0,5,,,,,,,,,5,,,55,0
804910,note_off,0,0,2,,,,,,,,,2,,,74,0
804910,note_off,190,0,2,,,,,,,,,2,,,70,0
804910,note_off,190,0,1,,,,,,,,,1,,,75,0
804960,note_on,100,0,5,,,,,,,,,5,,,43,81
804960,note_on,0,0,5,,,,,,,,,5,,,55,81
805200,note_on,290,0,2,,,,,,,,,2,,,74,81
805200,note_on,290,0,1,,,,,,,,,1,,,75,81
805200,note_on,0,0,2,,,,,,,,,2,,,70,81
805340,note_off,380,0,5,,,,,,,,,5,,,55,0
805340,note_off,0,0,5,,,,,,,,,5,,,43,0
805390,note_off,0,0,2,,,,,,,,,2,,,74,0
805390,note_off,190,0,2,,,,,,,,,2,,,70,0
805390,note_off,190,0,1,,,,,,,,,1,,,75,0
805440,note_on,50,0,1,,,,,,,,,1,,,84,82
805440,note_on,0,0,2,,,,,,,,,2,,,72,82
805440,note_on,50,0,2,,,,,,,,,2,,,75,82
805440,note_on,0,0,5,,,,,,,,,5,,,57,82
805440,note_on,100,0,5,,,,,,,,,5,,,45,82
805630,note_off,190,0,1,,,,,,,,,1,,,84,0
805630,note_off,0,0,2,,,,,,,,,2,,,75,0
805630,note_off,190,0,2,,,,,,,,,2,,,72,0
805680,note_on,50,0,1,,,,,,,,,1,,,84,82
805680,note_on,0,0,2,,,,,,,,,2,,,72,82
805680,note_on,50,0,2,,,,,,,,,2,,,75,82
805820,note_off,380,0,5,,,,,,,,,5,,,57,0
805820,note_off,0,0,5,,,,,,,,,5,,,45,0
805870,note_off,0,0,2,,,,,,,,,2,,,75,0
805870,note_off,190,0,2,,,,,,,,,2,,,72,0
805870,note_off,190,0,1,,,,,,,,,1,,,84,0
805920,note_on,100,0,5,,,,,,,,,5,,,43,82
805920,note_on,0,0,5,,,,,,,,,5,,,55,82
806160,note_on,290,0,1,,,,,,,,,1,,,75,83
806160,note_on,290,0,2,,,,,,,,,2,,,72,83
806160,note_on,0,0,2,,,,,,,,,2,,,69,83
806300,note_off,380,0,5,,,,,,,,,5,,,55,0
806300,note_off,0,0,5,,,,,,,,,5,,,43,0
806350,note_off,190,0,2,,,,,,,,,2,,,69,0
806350,note_off,0,0,2,,,,,,,,,2,,,72,0
806350,note_off,190,0,1,,,,,,,,,1,,,75,0
806400,note_on,50,0,1,,,,,,,,,1,,,74,83
806400,note_on,0,0,2,,,,,,,,,2,,,69,83
806400,note_on,0,0,5,,,,,,,,,5,,,54,83
806400,note_on,100,0,5,,,,,,,,,5,,,42,83
806400,note_on,50,0,2,,,,,,,,,2,,,72,83
806590,note_off,0,0,2,,,,,,,,,2,,,72,0
806590,note_off,190,0,2,,,,,,,,,2,,,69,0
806590,note_off,190,0,1,,,,,,,,,1,,,74,0
806640,note_on,50,0,2,,,,,,,,,2,,,72,83
806640,note_on,0,0,2,,,,,,,,,2,,,69,83
806640,note_on,50,0,1,,,,,,,,,1,,,74,83
806780,note_off,0,0,5,,,,,,,,,5,,,42,0
806780,note_off,380,0,5,,,,,,,,,5,,,54,0
806830,note_off,190,0,1,,,,,,,,,1,,,74,0
806830,note_off,190,0,2,,,,,,,,,2,,,69,0
806830,note_off,0,0,2,,,,,,,,,2,,,72,0
806880,note_on,100,0,5,,,,,,,,,5,,,42,84
806880,note_on,0,0,5,,,,,,,,,5,,,54,84
807120,note_on,290,0,1,,,,,,,,,1,,,74,84
807120,note_on,0,0,2,,,,,,,,,2,,,69,84
807120,note_on,290,0,2,,,,,,,,,2,,,72,84
807260,note_off,380,0,5,,,,,,,,,5,,,54,0
807260,note_off,0,0,5,,,,,,,,,5,,,42,0
807310,note_off,190,0,1,,,,,,,,,1,,,74,0
807310,note_off,190,0,2,,,,,,,,,2,,,69,0
807310,note_off,0,0,2,,,,,,,,,2,,,72,0
807360,note_on,0,0,5,,,,,,,,,5,,,55,84
807360,note_on,100,0,5,,,,,,,,,5,,,43,84
807360,note_on,50,0,1,,,,,,,,,1,,,82,84
807360,note_on,50,0,2,,,,,,,,,2,,,74,84
807360,note_on,0,0,2,,,,,,,,,2,,,70,84
807550,note_off,190,0,1,,,,,,,,,1,,,82,0
807550,note_off,190,0,2,,,,,,,,,2,,,70,0
807550,note_off,0,0,2,,,,,,,,,2,,,74,0
807600,note_on,50,0,1,,,,,,,,,1,,,82,85
807600,note_on,0,0,2,,,,,,,,,2,,,70,85
807600,note_on,50,0,2,,,,,,,,,2,,,74,85
807740,note_off,0,0,5,,,,,,,,,5,,,43,0
807740,note_off,380,0,5,,,,,,,,,5,,,55,0
807790,note_off,0,0,2,,,,,,,,,2,,,74,0
807790,note_off,190,0,1,,,,,,,,,1,,,82,0
807790,note_off,190,0,2,,,,,,,,,2,,,70,0
807840,note_on,0,0,5,,,,,,,,,5,,,53,85
807840,note_on,100,0,5,,,,,,,,,5,,,41,85
808080,note_on,290,0,1,,,,,,,,,1,,,74,85
808080,note_on,290,0,2,,,,,,,,,2,,,67,85
808080,note_on,0,0,2,,,,,,,,,2,,,70,85
808220,note_off,0,0,5,,,,,,,,,5,,,41,0
808220,note_off,380,0,5,,,,,,,,,5,,,53,0
808260,set_tempo,7620,1,0,,,,,,357142,,,,,,,
808270,note_off,190,0,1,,,,,,,,,1,,,74,0
808270,note_off,190,0,2,,,,,,,,,2,,,70,0
808270,note_off,0,0,2,,,,,,,,,2,,,67,0
808320,note_on,0,0,5,,,,,,,,,5,,,51,86
808320,note_on,0,0,5,,,,,,,,,5,,,39,86
808320,control_change,19200,0,4,,,,,,,64,127,4,,,,
808320,note_on,50,0,2,,,,,,,,,2,,,67,86
808320,control_change,100,0,5,,,,,,,64,127,5,,,,
808320,note_on,0,0,2,,,,,,,,,2,,,70,86
808320,control_change,30770,0,3,,,,,,,64,127,3,,,,
808320,note_on,50,0,1,,,,,,,,,1,,,72,86
808320,set_tempo,60,1,0,,,,,,355029,,,,,,,
808510,note_off,0,0,2,,,,,,,,,2,,,67,0
808510,note_off,190,0,1,,,,,,,,,1,,,72,0
808510,note_off,0,0,5,,,,,,,,,5,,,39,0
808510,note_off,190,0,5,,,,,,,,,5,,,51,0
808510,note_off,190,0,2,,,,,,,,,2,,,70,0
808560,note_on,50,0,2,,,,,,,,,2,,,70,86
808560,note_on,0,0,2,,,,,,,,,2,,,67,86
808560,note_on,50,0,1,,,,,,,,,1,,,72,86
808560,note_on,240,0,3,,,,,,,,,3,,,55,86
808750,note_off,190,0,2,,,,,,,,,2,,,67,0
808750,note_off,0,0,2,,,,,,,,,2,,,70,0
808750,note_off,190,0,1,,,,,,,,,1,,,72,0
808750,note_off,190,0,3,,,,,,,,,3,,,55,0
808800,note_on,50,0,3,,,,,,,,,3,,,58,87
808990,note_off,190,0,3,,,,,,,,,3,,,58,0
809040,note_on,290,0,1,,,,,,,,,1,,,72,87
809040,note_on,50,0,3,,,,,,,,,3,,,55,87
809220,control_change,180,0,3,,,,,,,64,0,3,,,,
809220,control_change,710,0,5,,,,,,,64,0,5,,,,
809220,control_change,900,0,4,,,,,,,64,0,4,,,,
809230,note_off,10,0,3,,,,,,,,,3,,,55,0
809280,control_change,60,0,4,,,,,,,64,127,4,,,,
809280,control_change,50,0,3,,,,,,,64,127,3,,,,
809280,control_change,60,0,5,,,,,,,64,127,5,,,,
809280,note_off,240,0,1,,,,,,,,,1,,,72,0
809280,note_on,0,0,1,,,,,,,,,1,,,82,87
809280,note_on,0,0,5,,,,,,,,,5,,,51,87
809435,note_off,155,0,1,,,,,,,,,1,,,82,0
809470,note_off,190,0,5,,,,,,,,,5,,,51,0
809520,note_on,240,0,3,,,,,,,,,3,,,55,88
809520,note_on,85,0,1,,,,,,,,,1,,,82,88
809675,note_off,155,0,1,,,,,,,,,1,,,82,0
809710,note_off,190,0,3,,,,,,,,,3,,,55,0
809760,note_on,85,0,1,,,,,,,,,1,,,82,88
809760,note_on,50,0,3,,,,,,,,,3,,,58,88
809950,note_off,190,0,3,,,,,,,,,3,,,58,0
810000,note_off,240,0,1,,,,,,,,,1,,,82,0
810000,note_on,0,0,1,,,,,,,,,1,,,72,88
810000,note_on,50,0,3,,,,,,,,,3,,,55,88
810155,note_off,155,0,1,,,,,,,,,1,,,72,0
810180,control_change,710,0,5,,,,,,,64,0,5,,,,
810180,control_change,900,0,4,,,,,,,64,0,4,,,,
810180,control_change,180,0,3,,,,,,,64,0,3,,,,
810190,note_off,10,0,3,,,,,,,,,3,,,55,0
810240,control_change,50,0,3,,,,,,,64,127,3,,,,
810240,control_change,60,0,5,,,,,,,64,127,5,,,,
810240,note_on,0,0,5,,,,,,,,,5,,,53,89
810240,note_on,85,0,1,,,,,,,,,1,,,74,89
810240,control_change,60,0,4,,,,,,,64,127,4,,,,
810395,note_off,155,0,1,,,,,,,,,1,,,74,0
810430,note_off,190,0,5,,,,,,,,,5,,,53,0
810480,note_on,85,0,1,,,,,,,,,1,,,74,89
810480,note_on,240,0,3,,,,,,,,,3,,,56,89
810635,note_off,155,0,1,,,,,,,,,1,,,74,0
810670,note_off,190,0,3,,,,,,,,,3,,,56,0
810720,note_on,50,0,3,,,,,,,,,3,,,58,89
810910,note_off,190,0,3,,,,,,,,,3,,,58,0
810960,note_on,325,0,1,,,,,,,,,1,,,74,90
810960,note_on,50,0,3,,,,,,,,,3,,,56,90
811140,control_change,180,0,3,,,,,,,64,0,3,,,,
811140,control_change,900,0,4,,,,,,,64,0,4,,,,
811140,control_change,710,0,5,,,,,,,64,0,5,,,,
811150,note_off,10,0,3,,,,,,,,,3,,,56,0
811200,note_off,240,0,1,,,,,,,,,1,,,74,0
811200,control_change,60,0,4,,,,,,,64,127,4,,,,
811200,note_on,0,0,5,,,,,,,,,5,,,53,90
811200,note_on,0,0,1,,,,,,,,,1,,,82,90
811200,control_change,50,0,3,,,,,,,64,127,3,,,,
811200,control_change,60,0,5,,,,,,,64,127,5,,,,
811355,note_off,155,0,1,,,,,,,,,1,,,82,0
811390,note_off,190,0,5,,,,,,,,,5,,,53,0
811440,note_on,85,0,1,,,,,,,,,1,,,82,90
811440,note_on,240,0,3,,,,,,,,,3,,,56,90
811595,note_off,155,0,1,,,,,,,,,1,,,82,0
811630,note_off,190,0,3,,,,,,,,,3,,,56,0
811680,note_on,50,0,3,,,,,,,,,3,,,58,91
811680,note_on,85,0,1,,,,,,,,,1,,,82,91
811870,note_off,190,0,3,,,,,,,,,3,,,58,0
811920,note_on,50,0,3,,,,,,,,,3,,,56,91
811920,note_on,0,0,1,,,,,,,,,1,,,74,91
811920,note_off,240,0,1,,,,,,,,,1,,,82,0
812075,note_off,155,0,1,,,,,,,,,1,,,74,0
812100,control_change,180,0,3,,,,,,,64,0,3,,,,
812100,control_change,710,0,5,,,,,,,64,0,5,,,,
812100,control_change,900,0,4,,,,,,,64,0,4,,,,
812110,note_off,10,0,3,,,,,,,,,3,,,56,0
812160,control_change,50,0,3,,,,,,,64,127,3,,,,
812160,control_change,60,0,4,,,,,,,64,127,4,,,,
812160,note_on,0,0,5,,,,,,,,,5,,,55,92
812160,control_change,60,0,5,,,,,,,64,127,5,,,,
812160,note_on,85,0,1,,,,,,,,,1,,,75,92
812315,note_off,155,0,1,,,,,,,,,1,,,75,0
812350,note_off,190,0,5,,,,,,,,,5,,,55,0
812400,note_on,85,0,1,,,,,,,,,1,,,75,92
812400,note_on,240,0,3,,,,,,,,,3,,,58,92
812555,note_off,155,0,1,,,,,,,,,1,,,75,0
812590,note_off,190,0,3,,,,,,,,,3,,,58,0
812640,note_on,50,0,3,,,,,,,,,3,,,63,92
812830,note_off,190,0,3,,,,,,,,,3,,,63,0
812880,note_on,325,0,1,,,,,,,,,1,,,76,93
812880,note_on,50,0,3,,,,,,,,,3,,,58,93
813060,control_change,180,0,3,,,,,,,64,0,3,,,,
813060,control_change,900,0,4,,,,,,,64,0,4,,,,
813060,control_change,710,0,5,,,,,,,64,0,5,,,,
813070,note_off,10,0,3,,,,,,,,,3,,,58,0
813120,control_change,60,0,5,,,,,,,64,127,5,,,,
813120,note_on,0,0,5,,,,,,,,,5,,,50,93
813120,control_change,60,0,4,,,,,,,64,127,4,,,,
813120,note_off,240,0,1,,,,,,,,,1,,,76,0
813120,note_on,0,0,1,,,,,,,,,1,,,77,93
813120,control_change,50,0,3,,,,,,,64,127,3,,,,
813275,note_off,155,0,1,,,,,,,,,1,,,77,0
813310,note_off,190,0,5,,,,,,,,,5,,,50,0
813360,note_on,240,0,3,,,,,,,,,3,,,56,93
813360,note_on,85,0,1,,,,,,,,,1,,,77,93
813515,note_off,155,0,1,,,,,,,,,1,,,77,0
813550,note_off,190,0,3,,,,,,,,,3,,,56,0
813600,note_on,50,0,3,,,,,,,,,3,,,58,94
813790,note_off,190,0,3,,,,,,,,,3,,,58,0
813840,note_on,50,0,3,,,,,,,,,3,,,56,94
813840,note_on,325,0,1,,,,,,,,,1,,,78,94
814020,control_change,710,0,5,,,,,,,64,0,5,,,,
814020,control_change,900,0,4,,,,,,,64,0,4,,,,
814020,control_change,180,0,3,,,,,,,64,0,3,,,,
814030,note_off,10,0,3,,,,,,,,,3,,,56,0
814080,control_change,60,0,4,,,,,,,64,127,4,,,,
814080,note_on,0,0,1,,,,,,,,,1,,,79,94
814080,note_off,240,0,1,,,,,,,,,1,,,78,0
814080,control_change,50,0,3,,,,,,,64,127,3,,,,
814080,note_on,0,0,5,,,,,,,,,5,,,51,94
814080,control_change,60,0,5,,,,,,,64,127,5,,,,
814235,note_off,155,0,1,,,,,,,,,1,,,79,0
814270,note_off,190,0,5,,,,,,,,,5,,,51,0
814320,note_on,240,0,4,,,,,,,,,4,,,63,95
814320,note_on,85,0,1,,,,,,,,,1,,,79,95
814475,note_off,155,0,1,,,,,,,,,1,,,79,0
814500,control_change,180,0,4,,,,,,,64,0,4,,,,
814500,control_change,420,0,3,,,,,,,64,0,3,,,,
814500,control_change,230,0,5,,,,,,,64,0,5,,,,
814510,note_off,10,0,4,,,,,,,,,4,,,63,0
814560,control_change,50,0,4,,,,,,,64,127,4,,,,
814560,control_change,60,0,5,,,,,,,64,127,5,,,,
814560,note_on,0,0,5,,,,,,,,,5,,,48,95
814560,note_on,85,0,1,,,,,,,,,1,,,81,95
814560,control_change,60,0,3,,,,,,,64,127,3,,,,
814715,note_off,155,0,1,,,,,,,,,1,,,81,0
814750,note_off,190,0,5,,,,,,,,,5,,,48,0
814800,note_on,85,0,1,,,,,,,,,1,,,81,95
814800,note_on,240,0,4,,,,,,,,,4,,,60,95
814955,note_off,155,0,1,,,,,,,,,1,,,81,0
814980,control_change,180,0,4,,,,,,,64,0,4,,,,
814980,control_change,230,0,5,,,,,,,64,0,5,,,,
814980,control_change,420,0,3,,,,,,,64,0,3,,,,
814990,note_off,10,0,4,,,,,,,,,4,,,60,0
815040,control_change,50,0,4,,,,,,,64,127,4,,,,
815040,control_change,60,0,3,,,,,,,64,127,3,,,,
815040,note_on,0,0,5,,,,,,,,,5,,,50,96
815040,control_change,60,0,5,,,,,,,64,127,5,,,,
815040,note_on,85,0,1,,,,,,,,,1,,,82,96
815195,note_off,155,0,1,,,,,,,,,1,,,82,0
815230,note_off,190,0,5,,,,,,,,,5,,,50,0
815280,note_on,240,0,4,,,,,,,,,4,,,62,96
815280,note_on,85,0,1,,,,,,,,,1,,,82,96
815435,note_off,155,0,1,,,,,,,,,1,,,82,0
815460,control_change,420,0,3,,,,,,,64,0,3,,,,
815460,control_change,180,0,4,,,,,,,64,0,4,,,,
815460,control_change,230,0,5,,,,,,,64,0,5,,,,
815470,note_off,10,0,4,,,,,,,,,4,,,62,0
815520,note_on,0,0,5,,,,,,,,,5,,,45,97
815520,control_change,60,0,5,,,,,,,64,127,5,,,,
815520,control_change,60,0,3,,,,,,,64,127,3,,,,
815520,control_change,50,0,4,,,,,,,64,127,4,,,,
815520,note_on,85,0,1,,,,,,,,,1,,,84,97
815675,note_off,155,0,1,,,,,,,,,1,,,84,0
815710,note_off,190,0,5,,,,,,,,,5,,,45,0
815760,note_on,85,0,1,,,,,,,,,1,,,84,97
815760,set_tempo,7440,1,0,,,,,,359281,,,,,,,
815760,note_on,240,0,4,,,,,,,,,4,,,57,97
815915,note_off,155,0,1,,,,,,,,,1,,,84,0
815940,control_change,180,0,4,,,,,,,64,0,4,,,,
815940,control_change,420,0,3,,,,,,,64,0,3,,,,
815940,control_change,230,0,5,,,,,,,64,0,5,,,,
815950,note_off,10,0,4,,,,,,,,,4,,,57,0
816000,note_on,0,0,5,,,,,,,,,5,,,46,103
816000,note_on,60,0,5,,,,,,,,,5,,,58,103
816000,note_on,85,0,1,,,,,,,,,1,,,85,103
816000,set_tempo,240,1,0,,,,,,244897,,,,,,,
817440,note_off,1440,0,1,,,,,,,,,1,,,85,0
817440,note_on,8690,0,2,,,,,,,,,2,,,82,85
817515,note_off,1515,0,5,,,,,,,,,5,,,46,0
817515,note_off,0,0,5,,,,,,,,,5,,,58,0
817520,note_on,0,0,2,,,,,,,,,2,,,84,87
817520,note_off,80,0,2,,,,,,,,,2,,,82,0
817600,note_on,0,0,2,,,,,,,,,2,,,82,89
817600,note_off,80,0,2,,,,,,,,,2,,,84,0
817680,note_off,80,0,2,,,,,,,,,2,,,82,0
817680,note_on,0,0,2,,,,,,,,,2,,,84,92
817740,note_off,60,0,2,,,,,,,,,2,,,84,0
817740,note_on,0,0,2,,,,,,,,,2,,,82,93
817800,note_on,0,0,2,,,,,,,,,2,,,81,95
817800,note_off,60,0,2,,,,,,,,,2,,,82,0
817860,note_off,60,0,2,,,,,,,,,2,,,81,0
817860,note_on,0,0,2,,,,,,,,,2,,,82,97
817880,set_tempo,1880,1,0,,,,,,246913,,,,,,,
817920,note_on,480,0,1,,,,,,,,,1,,,85,105
817920,note_on,0,0,5,,,,,,,,,5,,,42,105
817920,set_tempo,40,1,0,,,,,,244897,,,,,,,
817920,note_on,405,0,5,,,,,,,,,5,,,54,105
817920,note_off,60,0,2,,,,,,,,,2,,,82,0
819360,note_off,1440,0,1,,,,,,,,,1,,,85,0
819360,note_on,1440,0,2,,,,,,,,,2,,,82,89
819435,note_off,0,0,5,,,,,,,,,5,,,54,0
819435,note_off,1515,0,5,,,,,,,,,5,,,42,0
819440,note_off,80,0,2,,,,,,,,,2,,,82,0
819440,note_on,0,0,2,,,,,,,,,2,,,84,91
819520,note_on,0,0,2,,,,,,,,,2,,,82,93
819520,note_off,80,0,2,,,,,,,,,2,,,84,0
819600,note_on,0,0,2,,,,,,,,,2,,,84,95
819600,note_off,80,0,2,,,,,,,,,2,,,82,0
819660,note_off,60,0,2,,,,,,,,,2,,,84,0
819660,note_on,0,0,2,,,,,,,,,2,,,82,96
819720,note_off,60,0,2,,,,,,,,,2,,,82,0
819720,note_on,0,0,2,,,,,,,,,2,,,81,98
819780,note_off,60,0,2,,,,,,,,,2,,,81,0
819780,note_on,0,0,2,,,,,,,,,2,,,82,99
819800,set_tempo,1880,1,0,,,,,,246913,,,,,,,
819840,note_on,480,0,1,,,,,,,,,1,,,85,107
819840,note_off,60,0,2,,,,,,,,,2,,,82,0
819840,note_on,0,0,5,,,,,,,,,5,,,40,107
819840,note_on,405,0,5,,,,,,,,,5,,,52,107
819840,set_tempo,40,1,0,,,,,,600000,,,,,,,
820880,set_tempo,1040,1,0,,,,,,363636,,,,,,,
820920,note_on,1080,0,1,,,,,,,,,1,,,82,98
821040,note_off,120,0,1,,,,,,,,,1,,,85,0
821040,note_on,0,0,1,,,,,,,,,1,,,79,97
821041,note_off,1,0,1,,,,,,,,,1,,,82,0
821160,note_on,119,0,1,,,,,,,,,1,,,76,96
821163,note_off,3,0,1,,,,,,,,,1,,,79,0
821280,note_on,117,0,1,,,,,,,,,1,,,73,95
821285,note_off,5,0,1,,,,,,,,,1,,,76,0
821355,note_off,1515,0,5,,,,,,,,,5,,,40,0
821355,note_off,0,0,5,,,,,,,,,5,,,52,0
821400,note_on,115,0,1,,,,,,,,,1,,,70,94
821407,note_off,7,0,1,,,,,,,,,1,,,73,0
821520,note_on,113,0,1,,,,,,,,,1,,,67,93
821529,note_off,9,0,1,,,,,,,,,1,,,70,0
821640,note_on,111,0,1,,,,,,,,,1,,,64,92
821651,note_off,11,0,1,,,,,,,,,1,,,67,0
821760,note_on,109,0,1,,,,,,,,,1,,,61,91
821773,note_off,13,0,1,,,,,,,,,1,,,64,0
821880,note_on,107,0,1,,,,,,,,,1,,,58,90
821895,note_off,15,0,1,,,,,,,,,1,,,61,0
822000,note_on,105,0,1,,,,,,,,,1,,,55,89
822017,note_off,17,0,1,,,,,,,,,1,,,58,0
822120,note_on,103,0,1,,,,,,,,,1,,,52,88
822139,note_off,19,0,1,,,,,,,,,1,,,55,0
822240,note_on,101,0,1,,,,,,,,,1,,,49,87
822261,note_off,21,0,1,,,,,,,,,1,,,52,0
822360,note_on,99,0,1,,,,,,,,,1,,,46,86
822383,note_off,23,0,1,,,,,,,,,1,,,49,0
822480,note_on,97,0,1,,,,,,,,,1,,,43,85
822505,note_off,25,0,1,,,,,,,,,1,,,46,0
822600,note_on,95,0,1,,,,,,,,,1,,,40,84
822627,note_off,27,0,1,,,,,,,,,1,,,43,0
822660,set_tempo,1780,1,0,,,,,,600000,,,,,,,
822720,note_on,93,0,1,,,,,,,,,1,,,53,83
822720,set_tempo,60,1,0,,,,,,560747,,,,,,,
822720,note_on,1365,0,5,,,,,,,,,5,,,41,95
822720,note_on,0,0,5,,,,,,,,,5,,,29,95
822749,note_off,29,0,1,,,,,,,,,1,,,40,0
823800,set_tempo,1080,1,0,,,,,,372670,,,,,,,
823800,note_off,1051,0,1,,,,,,,,,1,,,53,0
823800,note_on,0,0,1,,,,,,,,,1,,,57,53
823920,note_off,120,0,1,,,,,,,,,1,,,57,0
823920,note_on,0,0,1,,,,,,,,,1,,,55,53
823920,set_tempo,120,1,0,,,,,,363636,,,,,,,
824040,note_off,120,0,1,,,,,,,,,1,,,55,0
824040,note_on,0,0,1,,,,,,,,,1,,,53,54
824160,note_off,120,0,1,,,,,,,,,1,,,53,0
824160,note_on,0,0,1,,,,,,,,,1,,,55,54
824280,note_on,0,0,1,,,,,,,,,1,,,57,55
824280,note_off,120,0,1,,,,,,,,,1,,,55,0
824400,note_on,0,0,1,,,,,,,,,1,,,58,55
824400,note_off,120,0,1,,,,,,,,,1,,,57,0
824520,note_off,120,0,1,,,,,,,,,1,,,58,0
824520,note_on,0,0,1,,,,,,,,,1,,,60,56
824640,note_off,120,0,1,,,,,,,,,1,,,60,0
824640,note_on,0,0,1,,,,,,,,,1,,,62,56
824760,note_on,0,0,1,,,,,,,,,1,,,63,56
824760,note_off,120,0,1,,,,,,,,,1,,,62,0
824880,note_on,0,0,1,,,,,,,,,1,,,65,57
824880,note_off,120,0,1,,,,,,,,,1,,,63,0
825000,note_off,120,0,1,,,,,,,,,1,,,65,0
825000,note_on,0,0,1,,,,,,,,,1,,,67,57
825120,note_off,120,0,1,,,,,,,,,1,,,67,0
825120,note_on,0,0,1,,,,,,,,,1,,,69,58
825240,note_off,120,0,1,,,,,,,,,1,,,69,0
825240,note_on,0,0,1,,,,,,,,,1,,,70,58
825360,note_off,120,0,1,,,,,,,,,1,,,70,0
825360,note_on,0,0,1,,,,,,,,,1,,,72,59
825480,note_on,0,0,1,,,,,,,,,1,,,74,59
825480,note_off,120,0,1,,,,,,,,,1,,,72,0
825600,note_on,0,0,1,,,,,,,,,1,,,75,60
825600,note_off,0,0,5,,,,,,,,,5,,,41,0
825600,note_off,2880,0,5,,,,,,,,,5,,,29,0
825600,note_off,120,0,1,,,,,,,,,1,,,74,0
825720,note_off,120,0,1,,,,,,,,,1,,,75,0
825720,note_on,0,0,1,,,,,,,,,1,,,77,60
825840,note_off,120,0,1,,,,,,,,,1,,,77,0
825840,note_on,0,0,1,,,,,,,,,1,,,79,61
825960,note_off,120,0,1,,,,,,,,,1,,,79,0
825960,note_on,0,0,1,,,,,,,,,1,,,81,61
826080,note_off,120,0,1,,,,,,,,,1,,,81,0
826080,note_on,0,0,1,,,,,,,,,1,,,82,62
826200,note_off,120,0,1,,,,,,,,,1,,,82,0
826200,note_on,0,0,1,,,,,,,,,1,,,84,62
826320,note_off,120,0,1,,,,,,,,,1,,,84,0
826320,note_on,0,0,1,,,,,,,,,1,,,86,63
826440,note_off,120,0,1,,,,,,,,,1,,,86,0
826440,note_on,0,0,1,,,,,,,,,1,,,87,63
826520,set_tempo,2600,1,0,,,,,,769230,,,,,,,
826560,note_off,120,0,1,,,,,,,,,1,,,87,0
826560,note_on,0,0,1,,,,,,,,,1,,,89,64
826560,set_tempo,40,1,0,,,,,,750000,,,,,,,
827040,note_off,480,0,1,,,,,,,,,1,,,89,0
827280,set_tempo,720,1,0,,,,,,363636,,,,,,,
827400,note_on,360,0,1,,,,,,,,,1,,,70,59
827495,note_off,95,0,1,,,,,,,,,1,,,70,0
827520,set_tempo,240,1,0,,,,,,368098,,,,,,,
827520,note_on,25,0,1,,,,,,,,,1,,,70,59
827580,set_tempo,60,1,0,,,,,,363636,,,,,,,
827600,note_on,7760,0,2,,,,,,,,,2,,,72,60
827600,note_off,80,0,1,,,,,,,,,1,,,70,0
827680,note_off,80,0,2,,,,,,,,,2,,,72,0
827680,note_on,0,0,2,,,,,,,,,2,,,74,61
827760,note_off,80,0,2,,,,,,,,,2,,,74,0
827760,note_on,0,0,2,,,,,,,,,2,,,72,61
827840,note_off,80,0,2,,,,,,,,,2,,,72,0
827840,note_on,0,0,2,,,,,,,,,2,,,74,62
827920,note_on,0,0,2,,,,,,,,,2,,,72,62
827920,note_off,80,0,2,,,,,,,,,2,,,74,0
828000,note_on,0,0,2,,,,,,,,,2,,,74,63
828000,note_off,80,0,2,,,,,,,,,2,,,72,0
828080,note_off,80,0,2,,,,,,,,,2,,,74,0
828080,note_on,0,0,2,,,,,,,,,2,,,72,63
828160,note_on,0,0,2,,,,,,,,,2,,,74,64
828160,note_off,80,0,2,,,,,,,,,2,,,72,0
828240,note_off,80,0,2,,,,,,,,,2,,,74,0
828240,note_on,0,0,2,,,,,,,,,2,,,72,64
828320,note_off,80,0,2,,,,,,,,,2,,,72,0
828320,note_on,0,0,2,,,,,,,,,2,,,74,65
828400,note_off,80,0,2,,,,,,,,,2,,,74,0
828400,note_on,0,0,2,,,,,,,,,2,,,72,66
828480,note_on,2880,0,5,,,,,,,,,5,,,53,66
828480,note_on,0,0,2,,,,,,,,,2,,,74,66
828480,note_off,80,0,2,,,,,,,,,2,,,72,0
828480,note_on,0,0,4,,,,,,,,,4,,,57,66
828480,note_on,0,0,4,,,,,,,,,4,,,63,66
828480,note_on,12530,0,4,,,,,,,,,4,,,60,66
828560,note_off,80,0,2,,,,,,,,,2,,,74,0
828560,note_on,0,0,2,,,,,,,,,2,,,72,67
828640,note_off,80,0,2,,,,,,,,,2,,,72,0
828640,note_on,0,0,2,,,,,,,,,2,,,74,67
828720,note_off,80,0,2,,,,,,,,,2,,,74,0
828720,note_on,0,0,2,,,,,,,,,2,,,72,68
828800,note_off,80,0,2,,,,,,,,,2,,,72,0
828800,note_on,0,0,2,,,,,,,,,2,,,74,68
828880,note_off,80,0,2,,,,,,,,,2,,,74,0
828880,note_on,0,0,2,,,,,,,,,2,,,72,69
828960,note_off,80,0,2,,,,,,,,,2,,,72,0
828960,note_on,0,0,2,,,,,,,,,2,,,74,69
829040,note_off,80,0,2,,,,,,,,,2,,,74,0
829040,note_on,0,0,2,,,,,,,,,2,,,72,70
829120,note_on,0,0,2,,,,,,,,,2,,,74,71
829120,note_off,80,0,2,,,,,,,,,2,,,72,0
829200,note_off,80,0,2,,,,,,,,,2,,,74,0
829200,note_on,0,0,2,,,,,,,,,2,,,72,71
829280,note_off,80,0,2,,,,,,,,,2,,,72,0
829280,note_on,0,0,2,,,,,,,,,2,,,74,72
829360,note_off,80,0,2,,,,,,,,,2,,,74,0
829360,note_on,0,0,2,,,,,,,,,2,,,72,72
829400,set_tempo,1820,1,0,,,,,,368098,,,,,,,
829440,note_off,80,0,2,,,,,,,,,2,,,72,0
829440,set_tempo,40,1,0,,,,,,355029,,,,,,,
829440,note_on,1840,0,1,,,,,,,,,1,,,71,73
829560,note_off,120,0,1,,,,,,,,,1,,,71,0
829560,note_on,0,0,1,,,,,,,,,1,,,72,75
829680,note_off,120,0,1,,,,,,,,,1,,,72,0
829680,note_on,0,0,1,,,,,,,,,1,,,74,76
829800,note_off,120,0,1,,,,,,,,,1,,,74,0
829800,note_on,0,0,1,,,,,,,,,1,,,75,76
829920,note_off,120,0,1,,,,,,,,,1,,,75,0
829920,note_on,0,0,1,,,,,,,,,1,,,77,77
830040,note_off,120,0,1,,,,,,,,,1,,,77,0
830040,note_on,0,0,1,,,,,,,,,1,,,79,77
830160,note_on,0,0,1,,,,,,,,,1,,,81,78
830160,note_off,120,0,1,,,,,,,,,1,,,79,0
830280,note_off,120,0,1,,,,,,,,,1,,,81,0
830280,note_on,0,0,1,,,,,,,,,1,,,82,78
830400,note_on,0,0,1,,,,,,,,,1,,,84,79
830400,note_off,120,0,1,,,,,,,,,1,,,82,0
830400,note_off,1920,0,5,,,,,,,,,5,,,53,0
830400,note_off,1920,0,4,,,,,,,,,4,,,63,0
830400,note_off,0,0,4,,,,,,,,,4,,,57,0
830400,note_off,0,0,4,,,,,,,,,4,,,60,0
830520,note_on,0,0,1,,,,,,,,,1,,,86,79
830520,note_off,120,0,1,,,,,,,,,1,,,84,0
830640,note_off,120,0,1,,,,,,,,,1,,,86,0
830640,note_on,0,0,1,,,,,,,,,1,,,87,80
830760,note_off,120,0,1,,,,,,,,,1,,,87,0
830760,note_on,0,0,1,,,,,,,,,1,,,86,80
830880,set_tempo,1440,1,0,,,,,,500000,,,,,,,
830880,note_off,120,0,1,,,,,,,,,1,,,86,0
830880,note_on,0,0,1,,,,,,,,,1,,,89,81
831000,note_on,0,0,1,,,,,,,,,1,,,87,80
831000,note_off,120,0,1,,,,,,,,,1,,,89,0
831000,set_tempo,120,1,0,,,,,,359281,,,,,,,
831080,note_off,80,0,1,,,,,,,,,1,,,87,0
831120,note_on,40,0,1,,,,,,,,,1,,,86,79
831200,note_off,80,0,1,,,,,,,,,1,,,86,0
831240,note_on,40,0,1,,,,,,,,,1,,,84,78
831320,note_off,80,0,1,,,,,,,,,1,,,84,0
831360,note_on,40,0,1,,,,,,,,,1,,,87,78
831480,note_on,0,0,1,,,,,,,,,1,,,86,77
831480,note_off,120,0,1,,,,,,,,,1,,,87,0
831560,note_off,80,0,1,,,,,,,,,1,,,86,0
831600,note_on,40,0,1,,,,,,,,,1,,,84,76
831680,note_off,80,0,1,,,,,,,,,1,,,84,0
831720,note_on,40,0,1,,,,,,,,,1,,,82,75
831800,note_off,80,0,1,,,,,,,,,1,,,82,0
831840,note_on,40,0,1,,,,,,,,,1,,,86,74
831960,note_on,0,0,1,,,,,,,,,1,,,84,73
831960,note_off,120,0,1,,,,,,,,,1,,,86,0
832040,note_off,80,0,1,,,,,,,,,1,,,84,0
832080,note_on,40,0,1,,,,,,,,,1,,,82,72
832160,note_off,80,0,1,,,,,,,,,1,,,82,0
832200,note_on,40,0,1,,,,,,,,,1,,,81,71
832280,note_off,80,0,1,,,,,,,,,1,,,81,0
832320,note_on,40,0,1,,,,,,,,,1,,,84,70
832440,note_on,0,0,1,,,,,,,,,1,,,82,69
832440,note_off,120,0,1,,,,,,,,,1,,,84,0
832520,note_off,80,0,1,,,,,,,,,1,,,82,0
832560,note_on,40,0,1,,,,,,,,,1,,,81,69
832640,note_off,80,0,1,,,,,,,,,1,,,81,0
832680,note_on,40,0,1,,,,,,,,,1,,,79,68
832760,note_off,80,0,1,,,,,,,,,1,,,79,0
832800,note_on,40,0,1,,,,,,,,,1,,,82,67
833040,note_off,240,0,1,,,,,,,,,1,,,82,0
833040,note_on,0,0,1,,,,,,,,,1,,,81,65
833195,note_off,155,0,1,,,,,,,,,1,,,81,0
833280,note_on,85,0,1,,,,,,,,,1,,,79,63
833435,note_off,155,0,1,,,,,,,,,1,,,79,0
833520,note_on,85,0,1,,,,,,,,,1,,,77,61
833675,note_off,155,0,1,,,,,,,,,1,,,77,0
833760,note_on,85,0,1,,,,,,,,,1,,,81,59
834000,note_off,240,0,1,,,,,,,,,1,,,81,0
834000,note_on,0,0,1,,,,,,,,,1,,,79,58
834155,note_off,155,0,1,,,,,,,,,1,,,79,0
834240,note_on,85,0,1,,,,,,,,,1,,,77,56
834395,note_off,155,0,1,,,,,,,,,1,,,77,0
834480,note_on,85,0,1,,,,,,,,,1,,,75,54
834635,note_off,155,0,1,,,,,,,,,1,,,75,0
834720,note_on,85,0,1,,,,,,,,,1,,,79,52
834960,note_off,240,0,1,,,,,,,,,1,,,79,0
834960,note_on,0,0,1,,,,,,,,,1,,,77,50
835115,note_off,155,0,1,,,,,,,,,1,,,77,0
835200,note_on,85,0,1,,,,,,,,,1,,,75,49
835355,note_off,155,0,1,,,,,,,,,1,,,75,0
835440,note_on,85,0,1,,,,,,,,,1,,,74,47
835595,note_off,155,0,1,,,,,,,,,1,,,74,0
835680,note_on,85,0,1,,,,,,,,,1,,,77,45
836160,note_off,480,0,1,,,,,,,,,1,,,77,0
836160,note_on,0,0,1,,,,,,,,,1,,,75,41
836470,note_off,310,0,1,,,,,,,,,1,,,75,0
836640,note_on,170,0,1,,,,,,,,,1,,,74,39
836950,note_off,310,0,1,,,,,,,,,1,,,74,0
837120,note_on,170,0,1,,,,,,,,,1,,,72,35
837120,set_tempo,6120,1,0,,,,,,425531,,,,,,,
837430,note_off,310,0,1,,,,,,,,,1,,,72,0
837600,set_tempo,480,1,0,,,,,,372670,,,,,,,
837600,note_on,170,0,1,,,,,,,,,1,,,71,37
837755,note_off,155,0,1,,,,,,,,,1,,,71,0
837840,note_on,85,0,1,,,,,,,,,1,,,72,37
837995,note_off,155,0,1,,,,,,,,,1,,,72,0
838080,note_on,85,0,1,,,,,,,,,1,,,73,38
838235,note_off,155,0,1,,,,,,,,,1,,,73,0
838320,note_on,85,0,1,,,,,,,,,1,,,74,38
838320,set_tempo,720,1,0,,,,,,377358,,,,,,,
838475,note_off,155,0,1,,,,,,,,,1,,,74,0
838560,note_on,85,0,1,,,,,,,,,1,,,75,39
838560,set_tempo,240,1,0,,,,,,425531,,,,,,,
838750,note_off,190,0,1,,,,,,,,,1,,,75,0
838800,note_on,50,0,1,,,,,,,,,1,,,76,40
838800,set_tempo,240,1,0,,,,,,2222222,,,,,,,
838895,note_off,95,0,1,,,,,,,,,1,,,76,0
839040,control_change,145,0,1,,,,,,,64,0,1,,,,
839040,note_on,0,0,1,,,,,,,,,1,,,77,47
839040,set_tempo,240,1,0,,,,,,355029,,,,,,,
839520,note_on,9120,0,5,,,,,,,,,5,,,58,45
839760,note_off,720,0,1,,,,,,,,,1,,,77,0
839760,note_on,0,0,1,,,,,,,,,1,,,74,43
839905,note_off,385,0,5,,,,,,,,,5,,,58,0
840000,note_on,0,0,1,,,,,,,,,1,,,70,41
840000,note_off,240,0,1,,,,,,,,,1,,,74,0
840000,note_on,95,0,5,,,,,,,,,5,,,62,41
840230,note_off,230,0,1,,,,,,,,,1,,,70,0
840385,note_off,385,0,5,,,,,,,,,5,,,62,0
840480,note_on,95,0,5,,,,,,,,,5,,,67,38
840480,note_on,250,0,1,,,,,,,,,1,,,70,38
840720,note_off,240,0,1,,,,,,,,,1,,,70,0
840865,note_off,385,0,5,,,,,,,,,5,,,67,0
840960,note_on,95,0,5,,,,,,,,,5,,,60,43
840960,note_on,240,0,1,,,,,,,,,1,,,75,43
841345,note_off,385,0,5,,,,,,,,,5,,,60,0
841440,note_on,95,0,5,,,,,,,,,5,,,63,41
841440,note_on,0,0,1,,,,,,,,,1,,,79,41
841440,note_off,480,0,1,,,,,,,,,1,,,75,0
841825,note_off,385,0,5,,,,,,,,,5,,,63,0
841825,note_off,385,0,1,,,,,,,,,1,,,79,0
841920,note_on,95,0,5,,,,,,,,,5,,,65,39
841920,note_on,95,0,1,,,,,,,,,1,,,69,39
842305,note_off,385,0,5,,,,,,,,,5,,,65,0
842305,note_off,385,0,1,,,,,,,,,1,,,69,0
842400,note_on,95,0,5,,,,,,,,,5,,,63,37
842640,note_on,335,0,1,,,,,,,,,1,,,69,36
842785,note_off,385,0,5,,,,,,,,,5,,,63,0
842830,note_off,190,0,1,,,,,,,,,1,,,69,0
842880,note_on,95,0,5,,,,,,,,,5,,,62,38
842880,note_on,50,0,1,,,,,,,,,1,,,72,38
843120,note_off,240,0,1,,,,,,,,,1,,,72,0
843120,note_on,0,0,1,,,,,,,,,1,,,70,39
843260,note_off,140,0,1,,,,,,,,,1,,,70,0
843265,note_off,385,0,5,,,,,,,,,5,,,62,0
843360,note_on,95,0,5,,,,,,,,,5,,,57,41
843360,note_on,100,0,1,,,,,,,,,1,,,74,41
843360,note_on,12960,0,4,,,,,,,,,4,,,65,41
843600,note_on,0,0,1,,,,,,,,,1,,,72,42
843600,note_off,240,0,1,,,,,,,,,1,,,74,0
843745,note_off,385,0,5,,,,,,,,,5,,,57,0
843790,note_off,190,0,1,,,,,,,,,1,,,72,0
843840,note_on,50,0,1,,,,,,,,,1,,,75,43
843840,note_on,95,0,5,,,,,,,,,5,,,58,43
844080,note_off,240,0,1,,,,,,,,,1,,,75,0
844080,note_on,0,0,1,,,,,,,,,1,,,74,44
844215,note_off,855,0,4,,,,,,,,,4,,,65,0
844225,note_off,385,0,5,,,,,,,,,5,,,58,0
844270,note_off,190,0,1,,,,,,,,,1,,,74,0
844320,note_on,105,0,4,,,,,,,,,4,,,60,45
844320,note_on,50,0,1,,,,,,,,,1,,,77,45
844320,note_on,95,0,5,,,,,,,,,5,,,51,45
844560,note_off,240,0,1,,,,,,,,,1,,,77,0
844560,note_on,0,0,1,,,,,,,,,1,,,75,47
844705,note_off,385,0,4,,,,,,,,,4,,,60,0
844705,note_off,385,0,5,,,,,,,,,5,,,51,0
844740,set_tempo,5700,1,0,,,,,,357142,,,,,,,
844750,note_off,190,0,1,,,,,,,,,1,,,75,0
844800,note_on,95,0,4,,,,,,,,,4,,,58,51
844800,note_on,50,0,1,,,,,,,,,1,,,74,51
844800,note_on,95,0,5,,,,,,,,,5,,,53,51
845520,note_on,0,0,1,,,,,,,,,1,,,75,46
845520,note_off,720,0,1,,,,,,,,,1,,,74,0
845640,note_on,0,0,1,,,,,,,,,1,,,74,45
845640,note_off,120,0,1,,,,,,,,,1,,,75,0
845760,note_on,0,0,1,,,,,,,,,1,,,72,46
845760,note_off,120,0,1,,,,,,,,,1,,,74,0
845760,note_off,960,0,4,,,,,,,,,4,,,58,0
845760,note_on,0,0,4,,,,,,,,,4,,,57,46
845950,note_off,190,0,1,,,,,,,,,1,,,72,0
846000,note_on,50,0,1,,,,,,,,,1,,,74,51
846145,note_off,1345,0,5,,,,,,,,,5,,,53,0
846145,note_off,385,0,4,,,,,,,,,4,,,57,0
846240,note_off,240,0,1,,,,,,,,,1,,,74,0
846240,note_on,0,0,1,,,,,,,,,1,,,75,57
846480,note_off,240,0,1,,,,,,,,,1,,,75,0
846480,note_on,0,0,1,,,,,,,,,1,,,76,62
846670,note_off,190,0,1,,,,,,,,,1,,,76,0
846680,set_tempo,1940,1,0,,,,,,359281,,,,,,,
846720,control_change,30780,0,3,,,,,,,64,127,3,,,,
846720,note_on,50,0,1,,,,,,,,,1,,,77,69
846720,set_tempo,40,1,0,,,,,,355029,,,,,,,
846720,note_on,0,0,5,,,,,,,,,5,,,46,69
846720,control_change,575,0,5,,,,,,,64,127,5,,,,
846720,control_change,575,0,4,,,,,,,64,127,4,,,,
846960,note_off,240,0,5,,,,,,,,,5,,,46,0
846960,note_on,240,0,3,,,,,,,,,3,,,58,67
847200,note_on,0,0,3,,,,,,,,,3,,,62,66
847200,note_off,240,0,3,,,,,,,,,3,,,58,0
847440,note_off,240,0,3,,,,,,,,,3,,,62,0
847440,note_on,0,0,3,,,,,,,,,3,,,58,65
847440,note_on,0,0,1,,,,,,,,,1,,,75,65
847440,note_off,720,0,1,,,,,,,,,1,,,77,0
847520,note_off,80,0,1,,,,,,,,,1,,,75,0
847520,note_on,0,0,1,,,,,,,,,1,,,74,65
847600,note_off,80,0,1,,,,,,,,,1,,,74,0
847600,note_on,0,0,1,,,,,,,,,1,,,72,65
847620,control_change,900,0,4,,,,,,,64,0,4,,,,
847620,control_change,660,0,5,,,,,,,64,0,5,,,,
847620,control_change,180,0,3,,,,,,,64,0,3,,,,
847665,note_off,65,0,1,,,,,,,,,1,,,72,0
847680,note_off,0,0,3,,,,,,,,,3,,,58,0
847680,control_change,60,0,4,,,,,,,64,127,4,,,,
847680,control_change,60,0,3,,,,,,,64,127,3,,,,
847680,control_change,60,0,5,,,,,,,64,127,5,,,,
847680,note_on,0,0,5,,,,,,,,,5,,,43,64
847680,note_on,15,0,1,,,,,,,,,1,,,70,64
847835,note_off,155,0,1,,,,,,,,,1,,,70,0
847920,note_on,240,0,3,,,,,,,,,3,,,55,64
847920,note_off,240,0,5,,,,,,,,,5,,,43,0
847920,note_on,85,0,1,,,,,,,,,1,,,70,64
848075,note_off,155,0,1,,,,,,,,,1,,,70,0
848160,note_off,240,0,3,,,,,,,,,3,,,55,0
848160,note_on,85,0,1,,,,,,,,,1,,,70,63
848160,note_on,0,0,3,,,,,,,,,3,,,58,63
848315,note_off,155,0,1,,,,,,,,,1,,,70,0
848400,note_on,85,0,1,,,,,,,,,1,,,70,62
848400,note_on,0,0,3,,,,,,,,,3,,,55,62
848400,note_off,240,0,3,,,,,,,,,3,,,58,0
848555,note_off,155,0,1,,,,,,,,,1,,,70,0
848580,control_change,660,0,5,,,,,,,64,0,5,,,,
848580,control_change,180,0,3,,,,,,,64,0,3,,,,
848580,control_change,900,0,4,,,,,,,64,0,4,,,,
848590,note_off,10,0,3,,,,,,,,,3,,,55,0
848640,control_change,60,0,5,,,,,,,64,127,5,,,,
848640,note_on,0,0,5,,,,,,,,,5,,,39,65
848640,control_change,60,0,4,,,,,,,64,127,4,,,,
848640,note_on,85,0,1,,,,,,,,,1,,,75,65
848640,control_change,50,0,3,,,,,,,64,127,3,,,,
848805,note_off,165,0,1,,,,,,,,,1,,,75,0
848820,note_on,15,0,1,,,,,,,,,1,,,77,65
848880,note_on,240,0,3,,,,,,,,,3,,,48,65
848880,note_on,60,0,1,,,,,,,,,1,,,75,65
848880,note_off,240,0,5,,,,,,,,,5,,,39,0
848905,note_off,25,0,1,,,,,,,,,1,,,77,0
848955,note_off,50,0,1,,,,,,,,,1,,,75,0
848960,note_on,5,0,1,,,,,,,,,1,,,74,64
849040,note_on,80,0,1,,,,,,,,,1,,,75,64
849045,note_off,5,0,1,,,,,,,,,1,,,74,0
849120,note_on,75,0,1,,,,,,,,,1,,,79,64
849120,note_off,240,0,3,,,,,,,,,3,,,48,0
849120,note_on,0,0,3,,,,,,,,,3,,,51,64
849125,note_off,5,0,1,,,,,,,,,1,,,75,0
849360,note_off,240,0,3,,,,,,,,,3,,,51,0
849360,note_on,0,0,3,,,,,,,,,3,,,48,63
849505,note_off,380,0,1,,,,,,,,,1,,,79,0
849540,control_change,900,0,4,,,,,,,64,0,4,,,,
849540,control_change,660,0,5,,,,,,,64,0,5,,,,
849540,control_change,180,0,3,,,,,,,64,0,3,,,,
849600,note_off,0,0,3,,,,,,,,,3,,,48,0
849600,control_change,60,0,4,,,,,,,64,127,4,,,,
849600,control_change,60,0,3,,,,,,,64,127,3,,,,
849600,note_on,95,0,1,,,,,,,,,1,,,69,62
849600,control_change,60,0,5,,,,,,,64,127,5,,,,
849600,note_on,0,0,5,,,,,,,,,5,,,41,62
849840,note_off,240,0,5,,,,,,,,,5,,,41,0
849840,note_on,240,0,3,,,,,,,,,3,,,53,61
849985,note_off,385,0,1,,,,,,,,,1,,,69,0
850080,note_off,240,0,3,,,,,,,,,3,,,53,0
850080,note_on,0,0,3,,,,,,,,,3,,,57,60
850320,note_on,335,0,1,,,,,,,,,1,,,75,60
850320,note_off,240,0,3,,,,,,,,,3,,,57,0
850320,note_on,0,0,3,,,,,,,,,3,,,53,60
850500,control_change,180,0,3,,,,,,,64,0,3,,,,
850500,control_change,660,0,5,,,,,,,64,0,5,,,,
850500,control_change,900,0,4,,,,,,,64,0,4,,,,
850500,set_tempo,3780,1,0,,,,,,357142,,,,,,,
850510,note_off,10,0,3,,,,,,,,,3,,,53,0
850510,note_off,190,0,1,,,,,,,,,1,,,75,0
850560,note_on,60,0,5,,,,,,,,,5,,,58,65
850560,note_on,50,0,1,,,,,,,,,1,,,74,65
850720,note_on,21280,0,2,,,,,,,,,2,,,77,65
850752,note_off,192,0,1,,,,,,,,,1,,,74,0
850845,note_off,125,0,2,,,,,,,,,2,,,77,0
850880,note_on,35,0,2,,,,,,,,,2,,,82,64
850940,note_off,380,0,5,,,,,,,,,5,,,58,0
851005,note_off,125,0,2,,,,,,,,,2,,,82,0
851040,note_on,288,0,1,,,,,,,,,1,,,79,64
851040,note_on,100,0,5,,,,,,,,,5,,,51,64
851200,note_on,195,0,2,,,,,,,,,2,,,75,63
851232,note_off,192,0,1,,,,,,,,,1,,,79,0
851325,note_off,125,0,2,,,,,,,,,2,,,75,0
851360,note_on,35,0,2,,,,,,,,,2,,,72,63
851420,note_off,380,0,5,,,,,,,,,5,,,51,0
851485,note_off,125,0,2,,,,,,,,,2,,,72,0
851520,note_on,100,0,5,,,,,,,,,5,,,53,62
851520,note_on,288,0,1,,,,,,,,,1,,,77,62
851680,note_on,195,0,2,,,,,,,,,2,,,74,62
851712,note_off,192,0,1,,,,,,,,,1,,,77,0
851805,note_off,125,0,2,,,,,,,,,2,,,74,0
851840,note_on,35,0,2,,,,,,,,,2,,,70,61
851900,note_off,380,0,5,,,,,,,,,5,,,53,0
851965,note_off,125,0,2,,,,,,,,,2,,,70,0
852000,note_on,288,0,1,,,,,,,,,1,,,75,61
852000,note_on,100,0,5,,,,,,,,,5,,,41,61
852160,note_on,195,0,2,,,,,,,,,2,,,72,61
852192,note_off,192,0,1,,,,,,,,,1,,,75,0
852285,note_off,125,0,2,,,,,,,,,2,,,72,0
852320,note_on,35,0,2,,,,,,,,,2,,,69,60
852380,note_off,380,0,5,,,,,,,,,5,,,41,0
852445,note_off,125,0,2,,,,,,,,,2,,,69,0
852480,note_on,288,0,1,,,,,,,,,1,,,74,60
852480,note_on,100,0,5,,,,,,,,,5,,,50,60
852480,note_on,1980,0,4,,,,,,,,,4,,,58,60
852605,note_off,125,0,1,,,,,,,,,1,,,74,0
852640,note_on,35,0,1,,,,,,,,,1,,,82,75
852765,note_off,125,0,1,,,,,,,,,1,,,82,0
852800,note_on,35,0,1,,,,,,,,,1,,,82,75
852860,note_off,380,0,4,,,,,,,,,4,,,58,0
852860,note_off,380,0,5,,,,,,,,,5,,,50,0
852925,note_off,125,0,1,,,,,,,,,1,,,82,0
852960,note_on,35,0,1,,,,,,,,,1,,,82,75
853085,note_off,125,0,1,,,,,,,,,1,,,82,0
853120,note_on,35,0,1,,,,,,,,,1,,,82,75
853245,note_off,125,0,1,,,,,,,,,1,,,82,0
853280,note_on,35,0,1,,,,,,,,,1,,,82,74
853405,note_off,125,0,1,,,,,,,,,1,,,82,0
853440,note_on,35,0,1,,,,,,,,,1,,,82,74
853565,note_off,125,0,1,,,,,,,,,1,,,82,0
853600,note_on,35,0,1,,,,,,,,,1,,,81,74
853725,note_off,125,0,1,,,,,,,,,1,,,81,0
853760,note_on,35,0,1,,,,,,,,,1,,,79,73
853885,note_off,125,0,1,,,,,,,,,1,,,79,0
853920,note_on,1060,0,4,,,,,,,,,4,,,58,73
853920,note_on,1060,0,5,,,,,,,,,5,,,50,73
853920,note_on,35,0,1,,,,,,,,,1,,,77,73
854045,note_off,125,0,1,,,,,,,,,1,,,77,0
854080,note_on,35,0,1,,,,,,,,,1,,,75,73
854205,note_off,125,0,1,,,,,,,,,1,,,75,0
854240,note_on,35,0,1,,,,,,,,,1,,,74,73
854300,note_off,380,0,4,,,,,,,,,4,,,58,0
854300,note_off,380,0,5,,,,,,,,,5,,,50,0
854365,note_off,125,0,1,,,,,,,,,1,,,74,0
854400,note_on,100,0,5,,,,,,,,,5,,,51,72
854400,note_on,35,0,1,,,,,,,,,1,,,72,72
854400,note_on,100,0,4,,,,,,,,,4,,,58,72
854525,note_off,125,0,1,,,,,,,,,1,,,72,0
854560,note_on,35,0,1,,,,,,,,,1,,,79,72
854685,note_off,125,0,1,,,,,,,,,1,,,79,0
854720,note_on,35,0,1,,,,,,,,,1,,,79,72
854780,note_off,380,0,4,,,,,,,,,4,,,58,0
854780,note_off,380,0,5,,,,,,,,,5,,,51,0
854845,note_off,125,0,1,,,,,,,,,1,,,79,0
854880,note_on,35,0,1,,,,,,,,,1,,,79,72
855005,note_off,125,0,1,,,,,,,,,1,,,79,0
855040,note_on,35,0,1,,,,,,,,,1,,,79,71
855165,note_off,125,0,1,,,,,,,,,1,,,79,0
855200,note_on,35,0,1,,,,,,,,,1,,,79,71
855325,note_off,125,0,1,,,,,,,,,1,,,79,0
855360,note_on,35,0,1,,,,,,,,,1,,,79,71
855485,note_off,125,0,1,,,,,,,,,1,,,79,0
855520,note_on,35,0,1,,,,,,,,,1,,,77,71
855645,note_off,125,0,1,,,,,,,,,1,,,77,0
855680,note_on,35,0,1,,,,,,,,,1,,,75,70
855805,note_off,125,0,1,,,,,,,,,1,,,75,0
855840,note_on,1060,0,5,,,,,,,,,5,,,51,70
855840,note_on,1060,0,4,,,,,,,,,4,,,57,70
855840,note_on,35,0,1,,,,,,,,,1,,,74,70
855965,note_off,125,0,1,,,,,,,,,1,,,74,0
856000,note_on,35,0,1,,,,,,,,,1,,,75,70
856125,note_off,125,0,1,,,,,,,,,1,,,75,0
856160,note_on,35,0,1,,,,,,,,,1,,,72,69
856220,note_off,380,0,4,,,,,,,,,4,,,57,0
856220,note_off,380,0,5,,,,,,,,,5,,,51,0
856285,note_off,125,0,1,,,,,,,,,1,,,72,0
856320,note_on,100,0,4,,,,,,,,,4,,,58,69
856320,note_on,100,0,5,,,,,,,,,5,,,50,69
856320,note_on,35,0,1,,,,,,,,,1,,,76,69
856440,note_off,120,0,1,,,,,,,,,1,,,76,0
856440,note_on,0,0,1,,,,,,,,,1,,,77,69
856560,note_on,0,0,1,,,,,,,,,1,,,79,69
856560,note_off,120,0,1,,,,,,,,,1,,,77,0
856680,note_off,120,0,1,,,,,,,,,1,,,79,0
856680,note_on,0,0,1,,,,,,,,,1,,,77,69
856700,note_off,380,0,5,,,,,,,,,5,,,50,0
856800,note_on,100,0,5,,,,,,,,,5,,,55,68
856800,note_off,120,0,1,,,,,,,,,1,,,77,0
856800,note_on,0,0,1,,,,,,,,,1,,,75,68
856920,note_off,120,0,1,,,,,,,,,1,,,75,0
856920,note_on,0,0,1,,,,,,,,,1,,,74,68
857040,note_on,0,0,1,,,,,,,,,1,,,72,68
857040,note_off,120,0,1,,,,,,,,,1,,,74,0
857160,note_on,0,0,1,,,,,,,,,1,,,70,68
857160,note_off,120,0,1,,,,,,,,,1,,,72,0
857180,note_off,380,0,5,,,,,,,,,5,,,55,0
857240,set_tempo,6740,1,0,,,,,,359281,,,,,,,
857280,note_off,120,0,1,,,,,,,,,1,,,70,0
857280,note_on,0,0,1,,,,,,,,,1,,,72,71
857280,note_on,100,0,5,,,,,,,,,5,,,51,71
857360,note_off,80,0,1,,,,,,,,,1,,,72,0
857360,note_on,4915,0,2,,,,,,,,,2,,,74,70
857440,note_off,80,0,2,,,,,,,,,2,,,74,0
857440,note_on,0,0,2,,,,,,,,,2,,,72,70
857520,note_on,0,0,2,,,,,,,,,2,,,74,69
857520,note_off,80,0,2,,,,,,,,,2,,,72,0
857600,note_on,0,0,2,,,,,,,,,2,,,72,69
857600,note_off,80,0,2,,,,,,,,,2,,,74,0
857655,note_off,1335,0,4,,,,,,,,,4,,,58,0
857660,note_off,380,0,5,,,,,,,,,5,,,51,0
857680,note_on,0,0,2,,,,,,,,,2,,,74,68
857680,note_off,80,0,2,,,,,,,,,2,,,72,0
857760,note_on,0,0,2,,,,,,,,,2,,,72,68
857760,note_off,80,0,2,,,,,,,,,2,,,74,0
857760,note_on,105,0,4,,,,,,,,,4,,,57,68
857760,note_on,100,0,5,,,,,,,,,5,,,53,68
857840,note_off,80,0,2,,,,,,,,,2,,,72,0
857840,note_on,0,0,2,,,,,,,,,2,,,74,67
857920,note_off,80,0,2,,,,,,,,,2,,,74,0
857920,note_on,0,0,2,,,,,,,,,2,,,72,67
858000,note_off,80,0,2,,,,,,,,,2,,,72,0
858000,note_on,0,0,2,,,,,,,,,2,,,70,66
858120,note_on,0,0,2,,,,,,,,,2,,,72,65
858120,note_off,120,0,2,,,,,,,,,2,,,70,0
858140,note_off,380,0,4,,,,,,,,,4,,,57,0
858140,note_off,380,0,5,,,,,,,,,5,,,53,0
858200,set_tempo,960,1,0,,,,,,363636,,,,,,,
858240,note_on,100,0,5,,,,,,,,,5,,,50,65
858240,set_tempo,40,1,0,,,,,,355029,,,,,,,
858240,note_on,880,0,1,,,,,,,,,1,,,70,65
858240,note_on,100,0,4,,,,,,,,,4,,,58,65
858240,note_off,120,0,2,,,,,,,,,2,,,72,0
858430,note_off,190,0,1,,,,,,,,,1,,,70,0
858480,note_on,50,0,1,,,,,,,,,1,,,82,81
858575,note_off,95,0,1,,,,,,,,,1,,,82,0
858600,note_on,25,0,1,,,,,,,,,1,,,81,81
858620,note_off,380,0,4,,,,,,,,,4,,,58,0
858620,note_off,380,0,5,,,,,,,,,5,,,50,0
858695,note_off,95,0,1,,,,,,,,,1,,,81,0
858720,note_on,25,0,1,,,,,,,,,1,,,82,81
858815,note_off,95,0,1,,,,,,,,,1,,,82,0
858840,note_on,25,0,1,,,,,,,,,1,,,81,81
858935,note_off,95,0,1,,,,,,,,,1,,,81,0
858960,note_on,25,0,1,,,,,,,,,1,,,82,81
859055,note_off,95,0,1,,,,,,,,,1,,,82,0
859080,note_on,25,0,1,,,,,,,,,1,,,81,80
859175,note_off,95,0,1,,,,,,,,,1,,,81,0
859200,note_on,25,0,1,,,,,,,,,1,,,82,80
859295,note_off,95,0,1,,,,,,,,,1,,,82,0
859320,note_on,25,0,1,,,,,,,,,1,,,81,80
859415,note_off,95,0,1,,,,,,,,,1,,,81,0
859440,note_on,25,0,1,,,,,,,,,1,,,79,80
859535,note_off,95,0,1,,,,,,,,,1,,,79,0
859560,note_on,25,0,1,,,,,,,,,1,,,77,80
859655,note_off,95,0,1,,,,,,,,,1,,,77,0
859680,note_on,25,0,1,,,,,,,,,1,,,75,80
859680,note_on,1060,0,5,,,,,,,,,5,,,50,80
859680,note_on,1060,0,4,,,,,,,,,4,,,58,80
859775,note_off,95,0,1,,,,,,,,,1,,,75,0
859800,note_on,25,0,1,,,,,,,,,1,,,74,79
859895,note_off,95,0,1,,,,,,,,,1,,,74,0
859920,note_on,25,0,1,,,,,,,,,1,,,72,79
860015,note_off,95,0,1,,,,,,,,,1,,,72,0
860040,note_on,25,0,1,,,,,,,,,1,,,70,79
860060,note_off,380,0,4,,,,,,,,,4,,,58,0
860060,note_off,380,0,5,,,,,,,,,5,,,50,0
860120,set_tempo,1880,1,0,,,,,,359281,,,,,,,
860135,note_off,95,0,1,,,,,,,,,1,,,70,0
860160,note_on,100,0,4,,,,,,,,,4,,,58,79
860160,note_on,25,0,1,,,,,,,,,1,,,67,79
860160,set_tempo,40,1,0,,,,,,355029,,,,,,,
860160,note_on,100,0,5,,,,,,,,,5,,,51,79
860350,note_off,190,0,1,,,,,,,,,1,,,67,0
860400,note_on,50,0,1,,,,,,,,,1,,,79,78
860495,note_off,95,0,1,,,,,,,,,1,,,79,0
860520,note_on,25,0,1,,,,,,,,,1,,,78,78
860540,note_off,380,0,4,,,,,,,,,4,,,58,0
860540,note_off,380,0,5,,,,,,,,,5,,,51,0
860615,note_off,95,0,1,,,,,,,,,1,,,78,0
860640,note_on,25,0,1,,,,,,,,,1,,,79,78
860735,note_off,95,0,1,,,,,,,,,1,,,79,0
860760,note_on,25,0,1,,,,,,,,,1,,,78,78
860855,note_off,95,0,1,,,,,,,,,1,,,78,0
860880,note_on,25,0,1,,,,,,,,,1,,,79,78
860975,note_off,95,0,1,,,,,,,,,1,,,79,0
861000,note_on,25,0,1,,,,,,,,,1,,,78,77
861095,note_off,95,0,1,,,,,,,,,1,,,78,0
861120,note_on,25,0,1,,,,,,,,,1,,,79,77
861215,note_off,95,0,1,,,,,,,,,1,,,79,0
861240,note_on,25,0,1,,,,,,,,,1,,,77,77
861335,note_off,95,0,1,,,,,,,,,1,,,77,0
861360,note_on,25,0,1,,,,,,,,,1,,,75,77
861455,note_off,95,0,1,,,,,,,,,1,,,75,0
861480,note_on,25,0,1,,,,,,,,,1,,,74,77
861575,note_off,95,0,1,,,,,,,,,1,,,74,0
861600,note_on,1060,0,5,,,,,,,,,5,,,51,77
861600,note_on,1060,0,4,,,,,,,,,4,,,60,77
861600,note_on,25,0,1,,,,,,,,,1,,,72,77
861695,note_off,95,0,1,,,,,,,,,1,,,72,0
861720,note_on,25,0,1,,,,,,,,,1,,,70,76
861815,note_off,95,0,1,,,,,,,,,1,,,70,0
861840,note_on,25,0,1,,,,,,,,,1,,,69,76
861935,note_off,95,0,1,,,,,,,,,1,,,69,0
861960,note_on,25,0,1,,,,,,,,,1,,,67,76
861980,note_off,380,0,4,,,,,,,,,4,,,60,0
861980,note_off,380,0,5,,,,,,,,,5,,,51,0
862040,set_tempo,1880,1,0,,,,,,359281,,,,,,,
862055,note_off,95,0,1,,,,,,,,,1,,,67,0
862080,note_on,0,0,5,,,,,,,,,5,,,53,76
862080,control_change,100,0,5,,,,,,,64,127,5,,,,
862080,control_change,100,0,4,,,,,,,64,127,4,,,,
862080,note_on,25,0,1,,,,,,,,,1,,,65,76
862080,control_change,11570,0,3,,,,,,,64,127,3,,,,
862080,set_tempo,40,1,0,,,,,,355029,,,,,,,
862320,note_on,240,0,3,,,,,,,,,3,,,62,76
862320,note_on,0,0,1,,,,,,,,,1,,,67,76
862320,note_off,240,0,5,,,,,,,,,5,,,53,0
862320,note_off,240,0,1,,,,,,,,,1,,,65,0
862440,note_on,0,0,1,,,,,,,,,1,,,69,77
862440,note_off,120,0,1,,,,,,,,,1,,,67,0
862560,note_on,0,0,3,,,,,,,,,3,,,58,77
862560,note_off,240,0,3,,,,,,,,,3,,,62,0
862560,note_on,0,0,1,,,,,,,,,1,,,70,77
862560,note_off,120,0,1,,,,,,,,,1,,,69,0
862680,note_off,120,0,1,,,,,,,,,1,,,70,0
862680,note_on,0,0,1,,,,,,,,,1,,,72,77
862800,note_off,120,0,1,,,,,,,,,1,,,72,0
862800,note_on,0,0,1,,,,,,,,,1,,,74,78
862800,note_off,240,0,3,,,,,,,,,3,,,58,0
862800,note_on,0,0,3,,,,,,,,,3,,,62,78
862920,note_on,0,0,1,,,,,,,,,1,,,75,78
862920,note_off,120,0,1,,,,,,,,,1,,,74,0
862980,control_change,180,0,3,,,,,,,64,0,3,,,,
862980,control_change,900,0,4,,,,,,,64,0,4,,,,
862980,control_change,660,0,5,,,,,,,64,0,5,,,,
863040,note_off,120,0,1,,,,,,,,,1,,,75,0
863040,control_change,60,0,4,,,,,,,64,127,4,,,,
863040,note_on,0,0,1,,,,,,,,,1,,,77,78
863040,control_change,60,0,5,,,,,,,64,127,5,,,,
863040,note_off,0,0,3,,,,,,,,,3,,,62,0
863040,control_change,60,0,3,,,,,,,64,127,3,,,,
863040,note_on,0,0,5,,,,,,,,,5,,,53,78
863160,note_on,0,0,1,,,,,,,,,1,,,79,79
863160,note_off,120,0,1,,,,,,,,,1,,,77,0
863280,note_on,0,0,1,,,,,,,,,1,,,81,79
863280,note_off,120,0,1,,,,,,,,,1,,,79,0
863280,note_off,240,0,5,,,,,,,,,5,,,53,0
863280,note_on,240,0,3,,,,,,,,,3,,,62,79
863400,note_on,0,0,1,,,,,,,,,1,,,82,80
863400,note_off,120,0,1,,,,,,,,,1,,,81,0
863520,note_off,240,0,3,,,,,,,,,3,,,62,0
863520,note_on,0,0,3,,,,,,,,,3,,,58,80
863520,note_off,120,0,1,,,,,,,,,1,,,82,0
863520,note_on,0,0,1,,,,,,,,,1,,,84,80
863640,note_off,120,0,1,,,,,,,,,1,,,84,0
863640,note_on,0,0,1,,,,,,,,,1,,,86,80
863760,note_on,0,0,1,,,,,,,,,1,,,87,81
863760,note_on,0,0,3,,,,,,,,,3,,,62,81
863760,note_off,240,0,3,,,,,,,,,3,,,58,0
863760,note_off,120,0,1,,,,,,,,,1,,,86,0
863880,note_off,120,0,1,,,,,,,,,1,,,87,0
863880,note_on,0,0,1,,,,,,,,,1,,,89,81
863940,control_change,660,0,5,,,,,,,64,0,5,,,,
863940,control_change,900,0,4,,,,,,,64,0,4,,,,
863940,control_change,180,0,3,,,,,,,64,0,3,,,,
863950,note_off,10,0,3,,,,,,,,,3,,,62,0
863960,set_tempo,1880,1,0,,,,,,368098,,,,,,,
863975,note_off,95,0,1,,,,,,,,,1,,,89,0
864000,control_change,60,0,5,,,,,,,64,127,5,,,,
864000,control_change,60,0,4,,,,,,,64,127,4,,,,
864000,note_on,0,0,5,,,,,,,,,5,,,53,81
864000,control_change,50,0,3,,,,,,,64,127,3,,,,
864000,set_tempo,40,1,0,,,,,,359281,,,,,,,
864000,note_on,25,0,1,,,,,,,,,1,,,84,81
864080,note_off,80,0,1,,,,,,,,,1,,,84,0
864080,note_on,5840,0,2,,,,,,,,,2,,,86,81
864160,note_off,80,0,2,,,,,,,,,2,,,86,0
864160,note_on,0,0,2,,,,,,,,,2,,,84,81
864240,note_on,240,0,3,,,,,,,,,3,,,63,80
864240,note_off,240,0,5,,,,,,,,,5,,,53,0
864240,note_off,80,0,2,,,,,,,,,2,,,84,0
864240,note_on,0,0,2,,,,,,,,,2,,,86,80
864320,note_off,80,0,2,,,,,,,,,2,,,86,0
864320,note_on,0,0,2,,,,,,,,,2,,,84,80
864400,note_on,0,0,2,,,,,,,,,2,,,86,80
864400,note_off,80,0,2,,,,,,,,,2,,,84,0
864480,note_off,240,0,3,,,,,,,,,3,,,63,0
864480,note_on,0,0,2,,,,,,,,,2,,,84,80
864480,note_off,80,0,2,,,,,,,,,2,,,86,0
864480,note_on,0,0,3,,,,,,,,,3,,,57,80
864560,note_off,80,0,2,,,,,,,,,2,,,84,0
864560,note_on,0,0,2,,,,,,,,,2,,,86,79
864640,note_on,0,0,2,,,,,,,,,2,,,84,79
864640,note_off,80,0,2,,,,,,,,,2,,,86,0
864720,note_on,0,0,2,,,,,,,,,2,,,86,79
864720,note_off,240,0,3,,,,,,,,,3,,,57,0
864720,note_on,0,0,3,,,,,,,,,3,,,63,79
864720,note_off,80,0,2,,,,,,,,,2,,,84,0
864800,note_on,0,0,2,,,,,,,,,2,,,84,79
864800,note_off,80,0,2,,,,,,,,,2,,,86,0
864880,note_on,0,0,2,,,,,,,,,2,,,86,78
864880,note_off,80,0,2,,,,,,,,,2,,,84,0
864900,control_change,660,0,5,,,,,,,64,0,5,,,,
864900,control_change,180,0,3,,,,,,,64,0,3,,,,
864900,control_change,900,0,4,,,,,,,64,0,4,,,,
864960,control_change,60,0,4,,,,,,,64,127,4,,,,
864960,control_change,60,0,3,,,,,,,64,127,3,,,,
864960,note_on,0,0,5,,,,,,,,,5,,,53,78
864960,note_on,0,0,2,,,,,,,,,2,,,84,78
864960,note_off,0,0,3,,,,,,,,,3,,,63,0
864960,control_change,60,0,5,,,,,,,64,127,5,,,,
864960,note_off,80,0,2,,,,,,,,,2,,,86,0
865040,note_off,80,0,2,,,,,,,,,2,,,84,0
865040,note_on,0,0,2,,,,,,,,,2,,,86,78
865120,note_off,80,0,2,,,,,,,,,2,,,86,0
865120,note_on,0,0,2,,,,,,,,,2,,,84,77
865200,note_on,240,0,3,,,,,,,,,3,,,63,77
865200,note_on,0,0,2,,,,,,,,,2,,,86,77
865200,note_off,240,0,5,,,,,,,,,5,,,53,0
865200,note_off,80,0,2,,,,,,,,,2,,,84,0
865280,note_off,80,0,2,,,,,,,,,2,,,86,0
865280,note_on,0,0,2,,,,,,,,,2,,,84,77
865360,note_off,80,0,2,,,,,,,,,2,,,84,0
865360,note_on,0,0,2,,,,,,,,,2,,,86,77
865440,note_on,0,0,2,,,,,,,,,2,,,84,76
865440,note_off,240,0,3,,,,,,,,,3,,,63,0
865440,note_on,0,0,3,,,,,,,,,3,,,57,76
865440,note_off,80,0,2,,,,,,,,,2,,,86,0
865520,note_off,80,0,2,,,,,,,,,2,,,84,0
865520,note_on,0,0,2,,,,,,,,,2,,,86,76
865600,note_on,0,0,2,,,,,,,,,2,,,84,76
865600,note_off,80,0,2,,,,,,,,,2,,,86,0
865680,note_off,240,0,3,,,,,,,,,3,,,57,0
865680,note_on,0,0,2,,,,,,,,,2,,,82,77
865680,note_off,80,0,2,,,,,,,,,2,,,84,0
865680,note_on,0,0,3,,,,,,,,,3,,,63,77
865800,note_off,120,0,2,,,,,,,,,2,,,82,0
865800,note_on,0,0,2,,,,,,,,,2,,,84,74
865860,control_change,180,0,3,,,,,,,64,0,3,,,,
865860,control_change,900,0,4,,,,,,,64,0,4,,,,
865860,control_change,660,0,5,,,,,,,64,0,5,,,,
865870,note_off,10,0,3,,,,,,,,,3,,,63,0
865880,set_tempo,1880,1,0,,,,,,359281,,,,,,,
865920,set_tempo,40,1,0,,,,,,357142,,,,,,,
865920,control_change,50,0,3,,,,,,,64,127,3,,,,
865920,note_on,1840,0,1,,,,,,,,,1,,,82,71
865920,note_off,120,0,2,,,,,,,,,2,,,84,0
865920,note_on,0,0,5,,,,,,,,,5,,,62,71
865920,control_change,60,0,5,,,,,,,64,127,5,,,,
865920,control_change,60,0,4,,,,,,,64,127,4,,,,
866160,note_on,240,0,4,,,,,,,,,4,,,58,47
866160,note_off,240,0,5,,,,,,,,,5,,,62,0
866400,note_on,240,0,5,,,,,,,,,5,,,62,47
866400,note_off,240,0,4,,,,,,,,,4,,,58,0
866400,note_off,480,0,1,,,,,,,,,1,,,82,0
866640,note_on,240,0,4,,,,,,,,,4,,,58,46
866640,note_off,240,0,5,,,,,,,,,5,,,62,0
866820,control_change,180,0,4,,,,,,,64,0,4,,,,
866820,control_change,900,0,3,,,,,,,64,0,3,,,,
866820,control_change,180,0,5,,,,,,,64,0,5,,,,
866880,control_change,60,0,5,,,,,,,64,127,5,,,,
866880,note_on,0,0,5,,,,,,,,,5,,,62,46
866880,control_change,60,0,4,,,,,,,64,127,4,,,,
866880,control_change,60,0,3,,,,,,,64,127,3,,,,
866880,note_off,0,0,4,,,,,,,,,4,,,58,0
867120,note_on,240,0,4,,,,,,,,,4,,,58,46
867120,note_off,240,0,5,,,,,,,,,5,,,62,0
867360,note_off,240,0,4,,,,,,,,,4,,,58,0
867360,note_on,240,0,5,,,,,,,,,5,,,62,45
867600,note_on,240,0,4,,,,,,,,,4,,,58,45
867600,note_on,1200,0,1,,,,,,,,,1,,,70,45
867600,note_off,240,0,5,,,,,,,,,5,,,62,0
867780,control_change,900,0,3,,,,,,,64,0,3,,,,
867780,control_change,180,0,4,,,,,,,64,0,4,,,,
867780,control_change,180,0,5,,,,,,,64,0,5,,,,
867790,note_off,10,0,4,,,,,,,,,4,,,58,0
867790,note_off,190,0,1,,,,,,,,,1,,,70,0
867800,set_tempo,1880,1,0,,,,,,359281,,,,,,,
867840,control_change,60,0,5,,,,,,,64,127,5,,,,
867840,note_on,0,0,5,,,,,,,,,5,,,65,44
867840,control_change,60,0,3,,,,,,,64,127,3,,,,
867840,set_tempo,40,1,0,,,,,,357142,,,,,,,
867840,control_change,50,0,4,,,,,,,64,127,4,,,,
867840,note_on,50,0,1,,,,,,,,,1,,,80,45
868080,note_off,240,0,5,,,,,,,,,5,,,65,0
868080,note_on,240,0,4,,,,,,,,,4,,,58,44
868320,note_off,240,0,4,,,,,,,,,4,,,58,0
868320,note_on,240,0,5,,,,,,,,,5,,,65,43
868560,note_off,240,0,5,,,,,,,,,5,,,65,0
868560,note_off,720,0,1,,,,,,,,,1,,,80,0
868560,note_on,240,0,4,,,,,,,,,4,,,58,43
868560,note_on,0,0,1,,,,,,,,,1,,,77,43
868740,control_change,900,0,3,,,,,,,64,0,3,,,,
868740,control_change,180,0,4,,,,,,,64,0,4,,,,
868740,control_change,180,0,5,,,,,,,64,0,5,,,,
868800,control_change,60,0,4,,,,,,,64,127,4,,,,
868800,note_off,240,0,1,,,,,,,,,1,,,77,0
868800,control_change,60,0,5,,,,,,,64,127,5,,,,
868800,note_on,0,0,5,,,,,,,,,5,,,68,42
868800,note_on,0,0,1,,,,,,,,,1,,,74,43
868800,control_change,60,0,3,,,,,,,64,127,3,,,,
868800,note_off,0,0,4,,,,,,,,,4,,,58,0
869040,note_off,240,0,5,,,,,,,,,5,,,68,0
869040,note_on,240,0,4,,,,,,,,,4,,,58,43
869110,note_off,310,0,1,,,,,,,,,1,,,74,0
869280,note_off,240,0,4,,,,,,,,,4,,,58,0
869280,note_on,170,0,1,,,,,,,,,1,,,74,42
869280,note_on,240,0,5,,,,,,,,,5,,,68,41
869520,note_on,240,0,4,,,,,,,,,4,,,58,42
869520,note_off,240,0,5,,,,,,,,,5,,,68,0
869700,control_change,180,0,4,,,,,,,64,0,4,,,,
869700,set_tempo,1860,1,0,,,,,,359281,,,,,,,
869700,control_change,900,0,3,,,,,,,64,0,3,,,,
869700,control_change,180,0,5,,,,,,,64,0,5,,,,
869710,note_off,10,0,4,,,,,,,,,4,,,58,0
869760,note_on,0,0,1,,,,,,,,,1,,,75,41
869760,control_change,60,0,3,,,,,,,64,127,3,,,,
869760,note_on,0,0,5,,,,,,,,,5,,,67,41
869760,control_change,60,0,5,,,,,,,64,127,5,,,,
869760,control_change,50,0,4,,,,,,,64,127,4,,,,
869760,note_off,480,0,1,,,,,,,,,1,,,74,0
870000,note_off,240,0,5,,,,,,,,,5,,,67,0
870000,note_on,240,0,4,,,,,,,,,4,,,58,41
870145,note_off,385,0,1,,,,,,,,,1,,,75,0
870240,note_off,240,0,4,,,,,,,,,4,,,58,0
870240,note_on,240,0,5,,,,,,,,,5,,,62,41
870240,note_on,95,0,1,,,,,,,,,1,,,77,41
870480,note_on,240,0,4,,,,,,,,,4,,,58,40
870480,note_off,240,0,5,,,,,,,,,5,,,62,0
870625,note_off,385,0,1,,,,,,,,,1,,,77,0
870660,control_change,180,0,4,,,,,,,64,0,4,,,,
870660,control_change,900,0,3,,,,,,,64,0,3,,,,
870660,control_change,180,0,5,,,,,,,64,0,5,,,,
870720,note_off,0,0,4,,,,,,,,,4,,,58,0
870720,note_on,0,0,5,,,,,,,,,5,,,63,40
870720,control_change,60,0,3,,,,,,,64,127,3,,,,
870720,control_change,60,0,4,,,,,,,64,127,4,,,,
870720,note_on,95,0,1,,,,,,,,,1,,,79,40
870720,control_change,60,0,5,,,,,,,64,127,5,,,,
870960,note_off,240,0,5,,,,,,,,,5,,,63,0
870960,note_on,240,0,4,,,,,,,,,4,,,58,40
871105,note_off,385,0,1,,,,,,,,,1,,,79,0
871200,note_on,240,0,5,,,,,,,,,5,,,63,39
871200,note_off,240,0,4,,,,,,,,,4,,,58,0
871440,note_on,335,0,1,,,,,,,,,1,,,79,39
871440,note_on,240,0,4,,,,,,,,,4,,,58,39
871440,note_off,240,0,5,,,,,,,,,5,,,63,0
871620,control_change,900,0,3,,,,,,,64,0,3,,,,
871620,control_change,180,0,4,,,,,,,64,0,4,,,,
871620,set_tempo,1920,1,0,,,,,,363636,,,,,,,
871620,control_change,180,0,5,,,,,,,64,0,5,,,,
871630,note_off,190,0,1,,,,,,,,,1,,,79,0
871630,note_off,10,0,4,,,,,,,,,4,,,58,0
871680,note_on,50,0,1,,,,,,,,,1,,,77,38
871680,control_change,60,0,3,,,,,,,64,127,3,,,,
871680,note_on,0,0,5,,,,,,,,,5,,,60,38
871680,control_change,60,0,5,,,,,,,64,127,5,,,,
871680,control_change,50,0,4,,,,,,,64,127,4,,,,
871920,note_on,240,0,4,,,,,,,,,4,,,58,38
871920,note_off,240,0,5,,,,,,,,,5,,,60,0
871920,note_off,240,0,1,,,,,,,,,1,,,77,0
871920,note_on,0,0,1,,,,,,,,,1,,,75,38
872160,note_on,240,0,5,,,,,,,,,5,,,60,38
872160,note_off,240,0,4,,,,,,,,,4,,,58,0
872160,note_on,0,0,1,,,,,,,,,1,,,74,38
872160,note_off,240,0,1,,,,,,,,,1,,,75,0
872400,note_off,240,0,5,,,,,,,,,5,,,60,0
872400,note_on,240,0,4,,,,,,,,,4,,,58,37
872400,note_off,240,0,1,,,,,,,,,1,,,74,0
872400,note_on,0,0,1,,,,,,,,,1,,,72,37
872580,control_change,180,0,5,,,,,,,64,0,5,,,,
872580,control_change,900,0,3,,,,,,,64,0,3,,,,
872580,control_change,180,0,4,,,,,,,64,0,4,,,,
872640,note_on,0,0,1,,,,,,,,,1,,,70,37
872640,control_change,60,0,3,,,,,,,64,127,3,,,,
872640,control_change,60,0,4,,,,,,,64,127,4,,,,
872640,note_off,0,0,4,,,,,,,,,4,,,58,0
872640,control_change,60,0,5,,,,,,,64,127,5,,,,
872640,note_on,0,0,5,,,,,,,,,5,,,60,37
872640,note_off,240,0,1,,,,,,,,,1,,,72,0
872880,note_off,240,0,1,,,,,,,,,1,,,70,0
872880,note_on,0,0,1,,,,,,,,,1,,,69,36
872880,note_on,240,0,4,,,,,,,,,4,,,58,36
872880,note_off,240,0,5,,,,,,,,,5,,,60,0
873120,note_on,240,0,5,,,,,,,,,5,,,60,36
873120,note_off,240,0,4,,,,,,,,,4,,,58,0
873120,note_off,240,0,1,,,,,,,,,1,,,69,0
873120,note_on,0,0,1,,,,,,,,,1,,,75,36
873360,note_on,0,0,1,,,,,,,,,1,,,69,36
873360,note_off,240,0,1,,,,,,,,,1,,,75,0
873360,note_on,240,0,4,,,,,,,,,4,,,58,36
873360,note_off,240,0,5,,,,,,,,,5,,,60,0
873540,control_change,900,0,3,,,,,,,64,0,3,,,,
873540,control_change,180,0,4,,,,,,,64,0,4,,,,
873540,set_tempo,1920,1,0,,,,,,368098,,,,,,,
873540,control_change,180,0,5,,,,,,,64,0,5,,,,
873550,note_off,10,0,4,,,,,,,,,4,,,58,0
873600,note_on,0,0,1,,,,,,,,,1,,,70,35
873600,note_off,240,0,1,,,,,,,,,1,,,69,0
873600,note_on,50,0,4,,,,,,,,,4,,,58,35
873600,set_tempo,60,1,0,,,,,,363636,,,,,,,
873600,note_on,60,0,5,,,,,,,,,5,,,62,35
873755,note_off,155,0,1,,,,,,,,,1,,,70,0
873840,note_on,85,0,1,,,,,,,,,1,,,72,37
873995,note_off,155,0,1,,,,,,,,,1,,,72,0
874080,note_off,480,0,4,,,,,,,,,4,,,58,0
874080,note_on,85,0,1,,,,,,,,,1,,,74,38
874080,note_off,480,0,5,,,,,,,,,5,,,62,0
874235,note_off,155,0,1,,,,,,,,,1,,,74,0
874320,note_on,85,0,1,,,,,,,,,1,,,75,40
874475,note_off,155,0,1,,,,,,,,,1,,,75,0
874560,note_on,85,0,1,,,,,,,,,1,,,76,42
874715,note_off,155,0,1,,,,,,,,,1,,,76,0
874800,note_on,85,0,1,,,,,,,,,1,,,77,43
874955,note_off,155,0,1,,,,,,,,,1,,,77,0
875040,note_on,85,0,1,,,,,,,,,1,,,78,45
875195,note_off,155,0,1,,,,,,,,,1,,,78,0
875280,note_on,85,0,1,,,,,,,,,1,,,79,47
875435,note_off,155,0,1,,,,,,,,,1,,,79,0
875480,set_tempo,1880,1,0,,,,,,368098,,,,,,,
875520,control_change,1980,0,3,,,,,,,64,127,3,,,,
875520,set_tempo,40,1,0,,,,,,357142,,,,,,,
875520,note_on,85,0,1,,,,,,,,,1,,,80,53
875520,note_on,0,0,5,,,,,,,,,5,,,65,53
875520,control_change,1440,0,4,,,,,,,64,127,4,,,,
875520,control_change,1440,0,5,,,,,,,64,127,5,,,,
875760,note_off,240,0,5,,,,,,,,,5,,,65,0
875760,note_on,240,0,4,,,,,,,,,4,,,58,53
876000,note_off,240,0,4,,,,,,,,,4,,,58,0
876000,note_on,240,0,5,,,,,,,,,5,,,65,52
876240,note_off,720,0,1,,,,,,,,,1,,,80,0
876240,note_off,240,0,5,,,,,,,,,5,,,65,0
876240,note_on,0,0,1,,,,,,,,,1,,,79,52
876240,note_on,240,0,4,,,,,,,,,4,,,58,52
876320,note_on,0,0,1,,,,,,,,,1,,,77,52
876320,note_off,80,0,1,,,,,,,,,1,,,79,0
876400,note_on,0,0,1,,,,,,,,,1,,,75,52
876400,note_off,80,0,1,,,,,,,,,1,,,77,0
876420,control_change,180,0,4,,,,,,,64,0,4,,,,
876420,control_change,180,0,5,,,,,,,64,0,5,,,,
876420,control_change,900,0,3,,,,,,,64,0,3,,,,
876480,note_off,80,0,1,,,,,,,,,1,,,75,0
876480,control_change,60,0,5,,,,,,,64,127,5,,,,
876480,note_off,0,0,4,,,,,,,,,4,,,58,0
876480,control_change,60,0,3,,,,,,,64,127,3,,,,
876480,note_on,0,0,5,,,,,,,,,5,,,68,52
876480,control_change,60,0,4,,,,,,,64,127,4,,,,
876480,note_on,0,0,1,,,,,,,,,1,,,74,52
876635,note_off,155,0,1,,,,,,,,,1,,,74,0
876720,note_on,240,0,4,,,,,,,,,4,,,58,51
876720,note_off,240,0,5,,,,,,,,,5,,,68,0
876720,note_on,85,0,1,,,,,,,,,1,,,74,51
876875,note_off,155,0,1,,,,,,,,,1,,,74,0
876960,note_on,240,0,5,,,,,,,,,5,,,68,51
876960,note_off,240,0,4,,,,,,,,,4,,,58,0
876960,note_on,85,0,1,,,,,,,,,1,,,74,51
877115,note_off,155,0,1,,,,,,,,,1,,,74,0
877200,note_on,240,0,4,,,,,,,,,4,,,58,50
877200,note_on,85,0,1,,,,,,,,,1,,,74,50
877200,note_off,240,0,5,,,,,,,,,5,,,68,0
877355,note_off,155,0,1,,,,,,,,,1,,,74,0
877380,control_change,180,0,4,,,,,,,64,0,4,,,,
877380,control_change,180,0,5,,,,,,,64,0,5,,,,
877380,set_tempo,1860,1,0,,,,,,359281,,,,,,,
877380,control_change,900,0,3,,,,,,,64,0,3,,,,
877390,note_off,10,0,4,,,,,,,,,4,,,58,0
877440,control_change,60,0,5,,,,,,,64,127,5,,,,
877440,note_on,0,0,5,,,,,,,,,5,,,67,50
877440,note_on,85,0,1,,,,,,,,,1,,,75,50
877440,control_change,50,0,4,,,,,,,64,127,4,,,,
877440,control_change,60,0,3,,,,,,,64,127,3,,,,
877680,note_on,240,0,4,,,,,,,,,4,,,58,49
877680,note_off,240,0,5,,,,,,,,,5,,,67,0
877920,note_off,480,0,1,,,,,,,,,1,,,75,0
877920,note_on,0,0,1,,,,,,,,,1,,,77,49
877920,note_off,240,0,4,,,,,,,,,4,,,58,0
877920,note_on,240,0,5,,,,,,,,,5,,,62,49
878000,note_off,80,0,1,,,,,,,,,1,,,77,0
878000,note_on,0,0,1,,,,,,,,,1,,,79,49
878080,note_off,80,0,1,,,,,,,,,1,,,79,0
878080,note_on,0,0,1,,,,,,,,,1,,,77,49
878160,note_on,0,0,1,,,,,,,,,1,,,75,49
878160,note_off,240,0,5,,,,,,,,,5,,,62,0
878160,note_on,240,0,4,,,,,,,,,4,,,58,49
878160,note_off,80,0,1,,,,,,,,,1,,,77,0
878280,note_off,120,0,1,,,,,,,,,1,,,75,0
878280,note_on,0,0,1,,,,,,,,,1,,,77,48
878340,control_change,900,0,3,,,,,,,64,0,3,,,,
878340,control_change,180,0,4,,,,,,,64,0,4,,,,
878340,control_change,180,0,5,,,,,,,64,0,5,,,,
878400,note_on,0,0,5,,,,,,,,,5,,,63,48
878400,control_change,60,0,5,,,,,,,64,127,5,,,,
878400,note_off,0,0,4,,,,,,,,,4,,,58,0
878400,control_change,60,0,4,,,,,,,64,127,4,,,,
878400,control_change,60,0,3,,,,,,,64,127,3,,,,
878400,note_off,120,0,1,,,,,,,,,1,,,77,0
878400,note_on,0,0,1,,,,,,,,,1,,,79,48
878640,note_off,240,0,5,,,,,,,,,5,,,63,0
878640,note_on,240,0,4,,,,,,,,,4,,,58,48
878785,note_off,385,0,1,,,,,,,,,1,,,79,0
878830,note_off,190,0,4,,,,,,,,,4,,,58,0
878880,note_on,240,0,5,,,,,,,,,5,,,63,47
879120,note_on,335,0,1,,,,,,,,,1,,,79,47
879120,note_on,290,0,4,,,,,,,,,4,,,58,47
879120,note_off,240,0,5,,,,,,,,,5,,,63,0
879300,control_change,900,0,3,,,,,,,64,0,3,,,,
879300,control_change,180,0,4,,,,,,,64,0,4,,,,
879300,control_change,180,0,5,,,,,,,64,0,5,,,,
879300,set_tempo,1920,1,0,,,,,,363636,,,,,,,
879310,note_off,190,0,1,,,,,,,,,1,,,79,0
879360,note_on,50,0,1,,,,,,,,,1,,,77,46
879360,control_change,60,0,5,,,,,,,64,127,5,,,,
879360,note_on,0,0,5,,,,,,,,,5,,,60,46
879360,control_change,60,0,4,,,,,,,64,127,4,,,,
879360,note_off,0,0,4,,,,,,,,,4,,,58,0
879360,control_change,60,0,3,,,,,,,64,127,3,,,,
879600,note_off,240,0,1,,,,,,,,,1,,,77,0
879600,note_on,0,0,1,,,,,,,,,1,,,75,46
879600,note_off,240,0,5,,,,,,,,,5,,,60,0
879600,note_on,240,0,4,,,,,,,,,4,,,58,46
879840,note_off,240,0,1,,,,,,,,,1,,,75,0
879840,note_on,0,0,1,,,,,,,,,1,,,74,45
879840,note_on,240,0,5,,,,,,,,,5,,,60,45
879840,note_off,240,0,4,,,,,,,,,4,,,58,0
880080,note_on,0,0,1,,,,,,,,,1,,,72,45
880080,note_off,240,0,1,,,,,,,,,1,,,74,0
880080,note_on,240,0,4,,,,,,,,,4,,,58,45
880080,note_off,240,0,5,,,,,,,,,5,,,60,0
880260,control_change,900,0,3,,,,,,,64,0,3,,,,
880260,control_change,180,0,5,,,,,,,64,0,5,,,,
880260,control_change,180,0,4,,,,,,,64,0,4,,,,
880320,note_on,0,0,1,,,,,,,,,1,,,70,45
880320,note_off,240,0,1,,,,,,,,,1,,,72,0
880320,control_change,60,0,5,,,,,,,64,127,5,,,,
880320,note_on,0,0,5,,,,,,,,,5,,,60,45
880320,control_change,60,0,4,,,,,,,64,127,4,,,,
880320,control_change,60,0,3,,,,,,,64,127,3,,,,
880320,note_off,0,0,4,,,,,,,,,4,,,58,0
880560,note_off,240,0,1,,,,,,,,,1,,,70,0
880560,note_on,240,0,4,,,,,,,,,4,,,58,44
880560,note_off,240,0,5,,,,,,,,,5,,,60,0
880560,note_on,0,0,1,,,,,,,,,1,,,69,44
880800,note_on,240,0,5,,,,,,,,,5,,,60,44
880800,note_off,240,0,1,,,,,,,,,1,,,69,0
880800,note_on,0,0,1,,,,,,,,,1,,,75,44
880800,note_off,240,0,4,,,,,,,,,4,,,58,0
881040,note_off,240,0,1,,,,,,,,,1,,,75,0
881040,note_on,240,0,4,,,,,,,,,4,,,58,43
881040,note_off,240,0,5,,,,,,,,,5,,,60,0
881040,note_on,0,0,1,,,,,,,,,1,,,69,43
881220,control_change,900,0,3,,,,,,,64,0,3,,,,
881220,end_of_track,0,1,3,,,,,,,,,,,,,
881220,control_change,180,0,4,,,,,,,64,0,4,,,,
881220,control_change,180,0,5,,,,,,,64,0,5,,,,
881220,set_tempo,1920,1,0,,,,,,368098,,,,,,,
881280,note_off,60,0,4,,,,,,,,,4,,,58,0
881280,note_on,0,0,4,,,,,,,,,4,,,58,43
881280,note_on,60,0,5,,,,,,,,,5,,,62,43
881280,note_on,0,0,1,,,,,,,,,1,,,70,43
881280,note_off,240,0,1,,,,,,,,,1,,,69,0
881665,note_off,385,0,4,,,,,,,,,4,,,58,0
881665,note_off,385,0,5,,,,,,,,,5,,,62,0
881670,note_off,390,0,1,,,,,,,,,1,,,70,0
882000,note_on,330,0,1,,,,,,,,,1,,,74,42
882240,note_on,0,0,1,,,,,,,,,1,,,77,41
882240,note_off,240,0,1,,,,,,,,,1,,,74,0
882240,note_on,575,0,4,,,,,,,,,4,,,60,41
882240,note_on,575,0,5,,,,,,,,,5,,,53,41
882480,note_on,0,0,1,,,,,,,,,1,,,75,41
882480,note_off,240,0,1,,,,,,,,,1,,,77,0
882720,note_off,480,0,4,,,,,,,,,4,,,60,0
882720,note_on,0,0,4,,,,,,,,,4,,,63,40
882720,note_on,0,0,1,,,,,,,,,1,,,72,40
882720,note_off,240,0,1,,,,,,,,,1,,,75,0
882960,note_off,240,0,1,,,,,,,,,1,,,72,0
882960,note_on,0,0,1,,,,,,,,,1,,,69,40
883140,set_tempo,1920,1,0,,,,,,372670,,,,,,,
883200,note_on,0,0,5,,,,,,,,,5,,,58,39
883200,note_off,240,0,1,,,,,,,,,1,,,69,0
883200,note_on,0,0,1,,,,,,,,,1,,,70,39
883200,note_on,0,0,4,,,,,,,,,4,,,62,39
883200,note_off,480,0,4,,,,,,,,,4,,,63,0
883200,note_off,960,0,5,,,,,,,,,5,,,53,0
883560,note_off,360,0,1,,,,,,,,,1,,,70,0
883585,note_off,385,0,4,,,,,,,,,4,,,62,0
883585,note_off,385,0,5,,,,,,,,,5,,,58,0
883920,note_on,360,0,1,,,,,,,,,1,,,74,38
884040,note_off,120,0,1,,,,,,,,,1,,,74,0
884040,note_on,0,0,1,,,,,,,,,1,,,70,38
884135,note_off,95,0,1,,,,,,,,,1,,,70,0
884160,note_on,25,0,1,,,,,,,,,1,,,77,38
884160,note_on,575,0,5,,,,,,,,,5,,,53,38
884160,note_on,575,0,4,,,,,,,,,4,,,60,38
884400,note_off,240,0,1,,,,,,,,,1,,,77,0
884400,note_on,0,0,1,,,,,,,,,1,,,75,37
884640,note_off,480,0,4,,,,,,,,,4,,,60,0
884640,note_on,0,0,1,,,,,,,,,1,,,72,37
884640,note_off,240,0,1,,,,,,,,,1,,,75,0
884640,note_on,0,0,4,,,,,,,,,4,,,63,37
884880,note_on,0,0,1,,,,,,,,,1,,,69,36
884880,note_off,240,0,1,,,,,,,,,1,,,72,0
885060,set_tempo,1920,1,0,,,,,,377358,,,,,,,
885120,note_off,240,0,1,,,,,,,,,1,,,69,0
885120,note_on,0,0,4,,,,,,,,,4,,,62,36
885120,note_off,960,0,5,,,,,,,,,5,,,53,0
885120,note_on,0,0,5,,,,,,,,,5,,,58,36
885120,note_off,480,0,4,,,,,,,,,4,,,63,0
885120,note_on,0,0,1,,,,,,,,,1,,,70,36
885505,note_off,385,0,5,,,,,,,,,5,,,58,0
885505,note_off,385,0,4,,,,,,,,,4,,,62,0
885505,note_off,385,0,1,,,,,,,,,1,,,70,0
885505,end_of_track,0,1,4,,,,,,,,,,,,,
885600,set_tempo,540,1,0,,,,,,372670,,,,,,,
885840,note_on,335,0,1,,,,,,,,,1,,,77,82
885840,set_tempo,240,1,0,,,,,,372670,,,,,,,
886030,note_off,190,0,1,,,,,,,,,1,,,77,0
886080,note_on,0,0,2,,,,,,,,,2,,,77,90
886080,note_on,20160,0,2,,,,,,,,,2,,,72,90
886080,note_on,50,0,1,,,,,,,,,1,,,81,90
886080,note_on,575,0,5,,,,,,,,,5,,,53,90
886080,set_tempo,240,1,0,,,,,,394736,,,,,,,
886080,note_on,0,0,5,,,,,,,,,5,,,41,90
886080,note_on,0,0,2,,,,,,,,,2,,,75,90
886465,note_off,385,0,5,,,,,,,,,5,,,41,0
886465,note_off,0,0,5,,,,,,,,,5,,,53,0
886465,note_off,385,0,2,,,,,,,,,2,,,77,0
886465,note_off,0,0,2,,,,,,,,,2,,,75,0
886465,note_off,0,0,2,,,,,,,,,2,,,72,0
886465,note_off,385,0,1,,,,,,,,,1,,,81,0
886560,note_on,0,0,5,,,,,,,,,5,,,53,94
886560,set_tempo,480,1,0,,,,,,461538,,,,,,,
886560,note_on,95,0,5,,,,,,,,,5,,,41,94
886560,note_on,0,0,2,,,,,,,,,2,,,77,94
886560,note_on,0,0,2,,,,,,,,,2,,,75,94
886560,note_on,95,0,1,,,,,,,,,1,,,81,94
886560,note_on,95,0,2,,,,,,,,,2,,,72,94
886800,set_tempo,240,1,0,,,,,,540540,,,,,,,
886945,note_off,0,0,2,,,,,,,,,2,,,77,0
886945,note_off,385,0,2,,,,,,,,,2,,,75,0
886945,note_off,385,0,5,,,,,,,,,5,,,53,0
886945,note_off,0,0,5,,,,,,,,,5,,,41,0
886945,note_off,385,0,1,,,,,,,,,1,,,81,0
886945,note_off,0,0,2,,,,,,,,,2,,,72,0
887040,note_on,95,0,5,,,,,,,,,5,,,46,96
887040,note_on,0,0,5,,,,,,,,,5,,,34,96
887040,note_on,95,0,2,,,,,,,,,2,,,74,96
887040,end_of_track,0,1,0,,,,,,,,,,,,,
887040,note_on,0,0,2,,,,,,,,,2,,,77,96
887040,note_on,95,0,1,,,,,,,,,1,,,82,96
887040,set_tempo,240,1,0,,,,,,652173,,,,,,,
887425,end_of_track,0,1,2,,,,,,,,,,,,,
887425,note_off,0,0,2,,,,,,,,,2,,,74,0
887425,note_off,385,0,2,,,,,,,,,2,,,77,0
887425,note_off,0,0,5,,,,,,,,,5,,,46,0
887425,end_of_track,0,1,1,,,,,,,,,,,,,
887425,note_off,385,0,1,,,,,,,,,1,,,82,0
887425,note_off,385,0,5,,,,,,,,,5,,,34,0
887425,end_of_track,0,1,5,,,,,,,,,,,,,
