,note,step,duration,channel,velocity
0,79.0,0,240,1.0,73.0
1,64.0,0,240,4.0,73.0
2,60.0,240,240,3.0,73.0
3,64.0,240,240,4.0,72.0
4,60.0,240,240,3.0,71.0
5,64.0,240,240,4.0,70.0
6,79.0,0,735,1.0,76.0
7,77.0,240,120,1.0,70.0
8,76.0,120,95,1.0,69.0
9,60.0,0,240,3.0,70.0
10,76.0,120,120,1.0,69.0
11,65.0,0,240,4.0,69.0
12,74.0,120,120,1.0,68.0
13,72.0,0,120,1.0,68.0
14,71.0,120,95,1.0,68.0
15,60.0,120,240,3.0,68.0
16,72.0,0,80,1.0,68.0
17,74.0,80,80,1.0,68.0
18,64.0,120,240,4.0,68.0
19,72.0,80,80,1.0,67.0
20,74.0,0,80,1.0,66.0
21,72.0,80,80,1.0,66.0
22,60.0,80,240,3.0,66.0
23,74.0,80,80,1.0,65.0
24,72.0,80,80,1.0,64.0
25,74.0,80,80,1.0,63.0
26,64.0,0,240,4.0,64.0
27,72.0,80,80,1.0,62.0
28,74.0,80,120,1.0,61.0
29,76.0,120,120,1.0,60.0
30,60.0,0,240,3.0,61.0
31,64.0,120,240,4.0,58.0
32,60.0,240,240,3.0,55.0
33,67.0,0,480,1.0,58.0
34,64.0,240,240,4.0,53.0
35,60.0,240,190,3.0,50.0
36,79.0,240,120,1.0,67.0
37,64.0,0,240,4.0,67.0
38,79.0,0,120,1.0,68.0
39,60.0,240,240,3.0,66.0
40,64.0,0,240,4.0,66.0
41,60.0,240,240,3.0,65.0
42,64.0,240,240,4.0,64.0
43,79.0,240,720,1.0,70.0
44,77.0,0,120,1.0,63.0
45,76.0,120,95,1.0,63.0
46,60.0,240,240,3.0,63.0
47,76.0,0,120,1.0,63.0
48,65.0,120,240,4.0,63.0
49,74.0,120,120,1.0,62.0
50,72.0,0,120,1.0,62.0
51,71.0,120,95,1.0,62.0
52,60.0,120,240,3.0,62.0
53,72.0,0,80,1.0,64.0
54,74.0,80,80,1.0,65.0
55,64.0,120,240,4.0,64.0
56,72.0,80,80,1.0,62.0
57,74.0,80,80,1.0,61.0
58,72.0,80,80,1.0,60.0
59,60.0,0,240,3.0,61.0
60,74.0,80,80,1.0,59.0
61,72.0,80,80,1.0,58.0
62,74.0,80,80,1.0,57.0
63,64.0,0,240,4.0,58.0
64,72.0,80,80,1.0,57.0
65,74.0,0,120,1.0,56.0
66,60.0,80,240,3.0,56.0
67,76.0,120,120,1.0,54.0
68,64.0,120,240,4.0,53.0
69,60.0,240,240,3.0,51.0
70,67.0,0,480,1.0,53.0
71,64.0,240,240,4.0,48.0
72,60.0,240,190,3.0,46.0
73,69.0,240,120,1.0,49.0
74,65.0,0,240,4.0,47.0
75,72.0,240,120,1.0,47.0
76,60.0,0,240,3.0,47.0
77,77.0,240,120,1.0,45.0
78,65.0,0,240,4.0,46.0
79,81.0,0,120,1.0,43.0
80,60.0,240,240,3.0,45.0
81,84.0,240,240,1.0,41.0
82,65.0,0,240,4.0,44.0
83,60.0,240,240,3.0,44.0
84,65.0,240,240,4.0,43.0
85,60.0,240,190,3.0,42.0
86,67.0,0,120,1.0,43.0
87,64.0,240,240,4.0,41.0
88,72.0,0,120,1.0,41.0
89,60.0,240,240,3.0,40.0
90,76.0,240,120,1.0,39.0
91,64.0,0,240,4.0,40.0
92,79.0,240,120,1.0,37.0
93,60.0,0,240,3.0,39.0
94,84.0,0,240,1.0,35.0
95,64.0,240,240,4.0,38.0
96,60.0,240,240,3.0,37.0
97,64.0,240,240,4.0,37.0
98,60.0,240,190,3.0,36.0
99,67.0,0,110,1.0,67.0
100,60.0,240,240,4.0,67.0
101,55.0,120,240,3.0,66.0
102,64.0,240,0,5.0,65.0
103,60.0,0,240,4.0,65.0
104,55.0,240,240,3.0,64.0
105,59.0,0,240,4.0,63.0
106,79.0,120,1265,1.0,75.0
107,62.0,240,480,5.0,63.0
108,55.0,240,240,3.0,62.0
109,77.0,0,80,1.0,61.0
110,79.0,80,80,1.0,61.0
111,77.0,80,80,1.0,60.0
112,59.0,0,240,4.0,61.0
113,76.0,80,120,1.0,60.0
114,77.0,120,95,1.0,60.0
115,55.0,0,240,3.0,60.0
116,62.0,240,480,5.0,61.0
117,60.0,0,190,5.0,63.0
118,48.0,240,240,5.0,60.0
119,75.0,120,480,1.0,63.0
120,52.0,0,240,5.0,57.0
121,76.0,240,385,1.0,55.0
122,55.0,240,240,5.0,54.0
123,60.0,240,240,5.0,51.0
124,64.0,240,240,5.0,48.0
125,67.0,240,240,5.0,46.0
126,64.0,240,190,5.0,43.0
127,69.0,0,240,1.0,47.0
128,65.0,240,240,4.0,45.0
129,72.0,240,120,1.0,45.0
130,60.0,0,240,3.0,44.0
131,69.0,120,120,1.0,44.0
132,77.0,120,120,1.0,43.0
133,65.0,0,240,4.0,44.0
134,72.0,120,120,1.0,42.0
135,81.0,0,120,1.0,41.0
136,60.0,120,240,3.0,43.0
137,77.0,120,120,1.0,40.0
138,65.0,0,240,4.0,43.0
139,84.0,120,385,1.0,39.0
140,60.0,240,240,3.0,42.0
141,65.0,240,240,4.0,41.0
142,60.0,240,190,3.0,41.0
143,67.0,0,240,1.0,43.0
144,64.0,240,240,4.0,40.0
145,72.0,0,120,1.0,41.0
146,67.0,120,120,1.0,41.0
147,60.0,240,240,3.0,39.0
148,76.0,0,120,1.0,40.0
149,64.0,120,240,4.0,39.0
150,72.0,120,120,1.0,39.0
151,79.0,0,120,1.0,38.0
152,60.0,120,240,3.0,38.0
153,76.0,120,120,1.0,37.0
154,64.0,0,240,4.0,38.0
155,84.0,120,385,1.0,36.0
156,60.0,240,240,3.0,37.0
157,64.0,240,240,4.0,36.0
158,60.0,240,190,3.0,36.0
159,81.0,0,240,1.0,69.0
160,60.0,0,240,4.0,67.0
161,79.0,0,120,1.0,67.0
162,64.0,0,0,5.0,65.0
163,55.0,240,240,3.0,66.0
164,77.0,0,120,1.0,65.0
165,60.0,240,240,4.0,65.0
166,76.0,240,120,1.0,63.0
167,55.0,0,240,3.0,64.0
168,62.0,0,240,4.0,63.0
169,76.0,240,240,1.0,67.0
170,74.0,0,120,1.0,65.0
171,65.0,0,480,5.0,63.0
172,55.0,240,240,3.0,62.0
173,72.0,0,120,1.0,63.0
174,62.0,0,240,4.0,61.0
175,71.0,240,120,1.0,61.0
176,65.0,240,480,5.0,61.0
177,55.0,0,240,3.0,60.0
178,72.0,240,120,1.0,61.0
179,67.0,120,120,1.0,60.0
180,69.0,120,120,1.0,59.0
181,64.0,0,385,5.0,61.0
182,60.0,0,395,4.0,61.0
183,71.0,120,120,1.0,57.0
184,72.0,120,120,1.0,56.0
185,74.0,120,120,1.0,55.0
186,76.0,120,120,1.0,54.0
187,77.0,120,120,1.0,52.0
188,79.0,120,120,1.0,51.0
189,81.0,120,120,1.0,50.0
190,83.0,120,120,1.0,49.0
191,84.0,120,120,1.0,47.0
192,79.0,120,120,1.0,46.0
193,79.0,240,120,1.0,43.0
194,55.0,0,190,5.0,43.0
195,64.0,240,190,4.0,43.0
196,79.0,120,120,1.0,42.0
197,81.0,120,120,1.0,42.0
198,79.0,120,95,1.0,41.0
199,62.0,120,190,4.0,40.0
200,55.0,0,190,5.0,40.0
201,77.0,120,120,1.0,40.0
202,79.0,120,120,1.0,39.0
203,77.0,120,95,1.0,39.0
204,60.0,0,190,4.0,38.0
205,55.0,120,190,5.0,38.0
206,76.0,120,120,1.0,37.0
207,77.0,120,120,1.0,37.0
208,76.0,120,95,1.0,36.0
209,55.0,0,190,5.0,36.0
210,59.0,120,190,4.0,36.0
211,74.0,120,120,1.0,35.0
212,76.0,120,120,1.0,34.0
213,74.0,120,95,1.0,34.0
214,72.0,120,120,1.0,59.0
215,67.0,120,120,1.0,57.0
216,69.0,120,120,1.0,56.0
217,71.0,120,120,1.0,55.0
218,72.0,120,120,1.0,54.0
219,74.0,120,120,1.0,53.0
220,76.0,120,120,1.0,52.0
221,60.0,0,840,5.0,59.0
222,77.0,120,120,1.0,51.0
223,79.0,120,120,1.0,50.0
224,81.0,120,120,1.0,49.0
225,83.0,120,120,1.0,48.0
226,84.0,120,120,1.0,47.0
227,79.0,120,120,1.0,46.0
228,79.0,240,120,1.0,44.0
229,55.0,240,190,5.0,41.0
230,64.0,0,190,4.0,41.0
231,79.0,120,120,1.0,41.0
232,81.0,120,120,1.0,40.0
233,79.0,120,95,1.0,40.0
234,62.0,0,190,4.0,39.0
235,55.0,120,190,5.0,39.0
236,77.0,120,120,1.0,39.0
237,79.0,120,120,1.0,38.0
238,77.0,120,95,1.0,38.0
239,60.0,120,190,4.0,37.0
240,55.0,0,190,5.0,37.0
241,76.0,120,120,1.0,37.0
242,77.0,120,120,1.0,36.0
243,76.0,120,95,1.0,36.0
244,59.0,0,190,4.0,35.0
245,55.0,120,190,5.0,35.0
246,74.0,120,120,1.0,35.0
247,76.0,120,120,1.0,34.0
248,74.0,120,95,1.0,34.0
249,48.0,0,185,5.0,64.0
250,60.0,240,240,5.0,66.0
251,72.0,120,720,1.0,68.0
252,59.0,240,240,5.0,68.0
253,74.0,240,120,1.0,70.0
254,76.0,120,120,1.0,72.0
255,58.0,0,240,5.0,70.0
256,77.0,120,120,1.0,73.0
257,57.0,0,120,5.0,73.0
258,57.0,0,240,5.0,75.0
259,77.0,240,480,1.0,79.0
260,55.0,240,240,5.0,77.0
261,79.0,240,120,1.0,80.0
262,81.0,120,120,1.0,81.0
263,53.0,0,240,5.0,80.0
264,52.0,0,240,5.0,82.0
265,79.0,120,240,1.0,82.0
266,76.0,240,120,1.0,84.0
267,84.0,0,120,1.0,86.0
268,48.0,240,240,5.0,86.0
269,84.0,240,120,1.0,89.0
270,86.0,240,120,1.0,87.0
271,84.0,120,120,1.0,84.0
272,83.0,120,120,1.0,80.0
273,81.0,120,95,1.0,77.0
274,81.0,0,120,1.0,74.0
275,79.0,120,120,1.0,71.0
276,77.0,120,120,1.0,67.0
277,60.0,0,385,5.0,74.0
278,48.0,120,385,5.0,74.0
279,76.0,120,95,1.0,64.0
280,79.0,0,720,1.0,61.0
281,64.0,120,720,5.0,61.0
282,55.0,0,960,5.0,61.0
283,60.0,0,240,5.0,41.0
284,76.0,720,240,1.0,41.0
285,43.0,240,120,5.0,35.0
286,59.0,0,365,5.0,36.0
287,74.0,240,385,1.0,36.0
288,47.0,240,120,5.0,36.0
289,50.0,240,120,5.0,36.0
290,73.0,240,135,1.0,37.0
291,55.0,0,240,4.0,37.0
292,74.0,120,305,1.0,41.0
293,59.0,120,240,3.0,37.0
294,72.0,0,120,1.0,39.0
295,71.0,120,120,1.0,39.0
296,62.0,240,240,3.0,38.0
297,69.0,120,120,1.0,38.0
298,67.0,120,95,1.0,37.0
299,73.0,0,240,1.0,40.0
300,55.0,120,240,4.0,39.0
301,74.0,0,190,1.0,43.0
302,59.0,240,240,3.0,39.0
303,72.0,0,120,1.0,42.0
304,71.0,120,120,1.0,41.0
305,62.0,240,240,3.0,40.0
306,69.0,120,120,1.0,41.0
307,67.0,120,95,1.0,40.0
308,75.0,120,240,1.0,45.0
309,55.0,0,240,4.0,41.0
310,76.0,0,120,1.0,43.0
311,60.0,240,240,3.0,41.0
312,76.0,240,120,1.0,41.0
313,64.0,0,240,3.0,42.0
314,76.0,0,120,1.0,39.0
315,60.0,240,240,3.0,42.0
316,55.0,0,240,4.0,43.0
317,76.0,240,480,1.0,38.0
318,60.0,240,240,3.0,43.0
319,64.0,240,240,3.0,44.0
320,60.0,240,190,3.0,44.0
321,69.0,0,240,1.0,48.0
322,54.0,240,240,4.0,44.0
323,57.0,120,240,3.0,45.0
324,81.0,120,600,1.0,51.0
325,60.0,240,240,3.0,45.0
326,79.0,240,80,1.0,46.0
327,78.0,80,80,1.0,46.0
328,76.0,80,80,1.0,45.0
329,74.0,0,120,1.0,44.0
330,54.0,80,240,4.0,46.0
331,86.0,0,120,1.0,45.0
332,57.0,240,240,3.0,47.0
333,86.0,240,120,1.0,48.0
334,60.0,0,240,3.0,47.0
335,86.0,240,120,1.0,50.0
336,55.0,240,240,4.0,48.0
337,59.0,240,120,3.0,49.0
338,86.0,0,605,1.0,55.0
339,62.0,240,145,3.0,49.0
340,83.0,120,120,1.0,50.0
341,86.0,120,120,1.0,49.0
342,62.0,0,145,3.0,50.0
343,83.0,120,120,1.0,48.0
344,55.0,0,240,4.0,50.0
345,59.0,240,120,3.0,51.0
346,79.0,120,385,1.0,46.0
347,62.0,240,145,3.0,51.0
348,62.0,240,145,3.0,52.0
349,55.0,0,240,4.0,52.0
350,73.0,240,240,1.0,52.0
351,59.0,0,240,3.0,53.0
352,74.0,240,240,1.0,57.0
353,72.0,240,120,1.0,54.0
354,71.0,120,120,1.0,53.0
355,62.0,0,240,3.0,53.0
356,69.0,120,120,1.0,52.0
357,67.0,120,95,1.0,50.0
358,73.0,0,120,1.0,59.0
359,74.0,120,120,1.0,58.0
360,55.0,120,240,4.0,54.0
361,76.0,120,120,1.0,58.0
362,74.0,120,120,1.0,57.0
363,59.0,0,240,3.0,55.0
364,72.0,0,120,1.0,56.0
365,71.0,120,120,1.0,55.0
366,62.0,120,240,3.0,55.0
367,69.0,120,120,1.0,55.0
368,67.0,120,95,1.0,54.0
369,75.0,120,240,1.0,61.0
370,55.0,0,240,4.0,56.0
371,76.0,240,120,1.0,59.0
372,60.0,0,240,3.0,57.0
373,76.0,240,120,1.0,56.0
374,64.0,0,240,3.0,57.0
375,76.0,0,120,1.0,54.0
376,60.0,240,240,3.0,58.0
377,55.0,0,240,4.0,58.0
378,76.0,240,385,1.0,52.0
379,60.0,240,240,3.0,59.0
380,64.0,240,240,3.0,59.0
381,60.0,240,190,3.0,60.0
382,81.0,0,120,1.0,66.0
383,83.0,120,120,1.0,66.0
384,84.0,120,120,1.0,66.0
385,83.0,120,120,1.0,67.0
386,81.0,120,120,1.0,67.0
387,79.0,120,120,1.0,67.0
388,78.0,120,120,1.0,68.0
389,76.0,120,120,1.0,68.0
390,74.0,120,120,1.0,68.0
391,78.0,120,120,1.0,69.0
392,81.0,120,120,1.0,69.0
393,79.0,120,120,1.0,69.0
394,78.0,120,120,1.0,70.0
395,76.0,120,120,1.0,70.0
396,74.0,120,120,1.0,70.0
397,54.0,0,1865,5.0,66.0
398,62.0,0,1865,4.0,66.0
399,57.0,0,1865,4.0,66.0
400,60.0,240,1865,4.0,66.0
401,72.0,120,95,1.0,70.0
402,55.0,0,160,4.0,71.0
403,59.0,160,160,3.0,71.0
404,71.0,120,360,1.0,73.0
405,67.0,160,155,3.0,72.0
406,72.0,0,80,1.0,69.0
407,74.0,80,80,1.0,69.0
408,57.0,160,160,4.0,72.0
409,72.0,0,80,1.0,68.0
410,60.0,80,160,3.0,72.0
411,71.0,80,120,1.0,68.0
412,67.0,80,155,3.0,73.0
413,72.0,40,120,1.0,67.0
414,59.0,120,160,4.0,73.0
415,62.0,160,160,3.0,74.0
416,74.0,0,385,1.0,66.0
417,67.0,160,155,3.0,74.0
418,55.0,160,160,4.0,75.0
419,59.0,160,160,3.0,75.0
420,67.0,160,155,3.0,75.0
421,76.0,160,80,1.0,54.0
422,60.0,0,160,4.0,52.0
423,78.0,80,80,1.0,54.0
424,64.0,80,160,3.0,52.0
425,79.0,0,275,1.0,55.0
426,67.0,160,155,3.0,53.0
427,60.0,0,160,4.0,53.0
428,64.0,160,160,3.0,54.0
429,79.0,160,335,1.0,56.0
430,79.0,40,95,1.0,57.0
431,67.0,160,155,3.0,54.0
432,60.0,120,160,4.0,55.0
433,64.0,160,160,3.0,55.0
434,79.0,0,385,1.0,58.0
435,67.0,160,155,3.0,56.0
436,78.0,160,120,1.0,60.0
437,60.0,0,160,4.0,56.0
438,76.0,120,120,1.0,60.0
439,64.0,40,160,3.0,57.0
440,74.0,80,120,1.0,61.0
441,72.0,40,95,1.0,62.0
442,67.0,80,155,3.0,57.0
443,55.0,120,160,4.0,74.0
444,59.0,160,160,3.0,74.0
445,71.0,0,360,1.0,79.0
446,67.0,160,155,3.0,75.0
447,72.0,160,80,1.0,75.0
448,74.0,80,80,1.0,74.0
449,57.0,0,160,4.0,76.0
450,72.0,80,80,1.0,73.0
451,60.0,0,160,3.0,76.0
452,71.0,80,120,1.0,73.0
453,67.0,80,155,3.0,77.0
454,72.0,40,120,1.0,71.0
455,59.0,0,160,4.0,78.0
456,62.0,160,160,3.0,78.0
457,74.0,120,385,1.0,70.0
458,67.0,160,155,3.0,79.0
459,55.0,160,160,4.0,80.0
460,59.0,160,160,3.0,80.0
461,67.0,160,155,3.0,81.0
462,76.0,0,80,1.0,60.0
463,60.0,160,160,4.0,62.0
464,78.0,80,80,1.0,61.0
465,64.0,0,160,3.0,62.0
466,79.0,80,295,1.0,61.0
467,67.0,160,155,3.0,63.0
468,60.0,160,160,4.0,64.0
469,64.0,160,160,3.0,64.0
470,79.0,0,335,1.0,64.0
471,79.0,40,105,1.0,66.0
472,67.0,160,155,3.0,65.0
473,60.0,0,160,4.0,66.0
474,64.0,160,160,3.0,66.0
475,79.0,120,465,1.0,67.0
476,67.0,160,155,3.0,67.0
477,78.0,160,120,1.0,70.0
478,60.0,0,160,4.0,68.0
479,76.0,120,120,1.0,71.0
480,64.0,40,160,3.0,68.0
481,74.0,80,120,1.0,72.0
482,72.0,40,95,1.0,73.0
483,67.0,80,155,3.0,69.0
484,71.0,120,190,1.0,82.0
485,79.0,240,120,1.0,83.0
486,55.0,0,385,5.0,82.0
487,81.0,120,120,1.0,84.0
488,83.0,120,120,1.0,85.0
489,81.0,120,120,1.0,85.0
490,79.0,120,120,1.0,86.0
491,78.0,120,120,1.0,87.0
492,76.0,0,120,1.0,87.0
493,74.0,120,120,1.0,88.0
494,72.0,120,120,1.0,89.0
495,48.0,120,385,5.0,87.0
496,71.0,120,120,1.0,90.0
497,69.0,120,120,1.0,90.0
498,67.0,120,120,1.0,91.0
499,66.0,120,120,1.0,92.0
500,64.0,120,120,1.0,93.0
501,50.0,120,240,5.0,95.0
502,62.0,0,240,1.0,95.0
503,51.0,0,960,5.0,101.0
504,54.0,0,960,4.0,101.0
505,57.0,480,960,4.0,101.0
506,60.0,0,960,1.0,101.0
507,55.0,0,385,4.0,75.0
508,59.0,0,385,1.0,72.0
509,52.0,960,385,5.0,75.0
510,57.0,240,120,1.0,65.0
511,52.0,480,385,4.0,66.0
512,48.0,0,385,5.0,66.0
513,60.0,240,120,1.0,64.0
514,64.0,240,120,1.0,63.0
515,68.0,240,240,1.0,61.0
516,69.0,240,240,1.0,60.0
517,72.0,240,240,1.0,59.0
518,76.0,240,190,1.0,57.0
519,76.0,240,240,1.0,56.0
520,67.0,240,190,1.0,55.0
521,59.0,0,480,4.0,54.0
522,67.0,0,960,1.0,59.0
523,71.0,480,240,1.0,50.0
524,66.0,0,425,2.0,49.0
525,50.0,240,1385,5.0,54.0
526,60.0,480,905,4.0,51.0
527,69.0,240,190,1.0,47.0
528,55.0,240,385,5.0,46.0
529,67.0,0,385,1.0,45.0
530,59.0,0,385,4.0,46.0
531,43.0,480,385,5.0,40.0
532,74.0,480,240,1.0,68.0
533,71.0,240,240,1.0,54.0
534,79.0,240,120,1.0,51.0
535,78.0,240,120,1.0,47.0
536,76.0,240,120,1.0,44.0
537,74.0,240,120,1.0,42.0
538,72.0,240,120,1.0,39.0
539,71.0,240,120,1.0,39.0
540,69.0,240,240,1.0,42.0
541,71.0,480,240,1.0,43.0
542,74.0,480,240,1.0,44.0
543,73.0,240,240,1.0,44.0
544,72.0,0,190,1.0,45.0
545,54.0,0,480,5.0,45.0
546,71.0,0,240,1.0,46.0
547,62.0,240,845,4.0,45.0
548,55.0,480,385,5.0,46.0
549,72.0,240,240,1.0,46.0
550,74.0,240,120,1.0,47.0
551,75.0,240,120,1.0,47.0
552,76.0,0,80,1.0,44.0
553,78.0,80,80,1.0,45.0
554,76.0,80,80,1.0,45.0
555,75.0,80,80,1.0,46.0
556,76.0,80,80,1.0,46.0
557,78.0,80,80,1.0,46.0
558,79.0,80,120,1.0,47.0
559,78.0,240,120,1.0,48.0
560,55.0,240,840,4.0,50.0
561,48.0,0,845,5.0,50.0
562,76.0,240,120,1.0,49.0
563,74.0,240,120,1.0,51.0
564,72.0,0,120,1.0,52.0
565,71.0,240,120,1.0,53.0
566,52.0,240,385,4.0,50.0
567,49.0,0,385,5.0,50.0
568,74.0,0,360,1.0,55.0
569,71.0,360,120,1.0,46.0
570,55.0,0,480,4.0,52.0
571,50.0,240,855,5.0,52.0
572,69.0,120,385,1.0,44.0
573,54.0,0,385,4.0,44.0
574,62.0,0,360,5.0,87.0
575,74.0,480,360,1.0,87.0
576,64.0,0,60,5.0,69.0
577,76.0,360,60,1.0,69.0
578,78.0,0,60,1.0,68.0
579,66.0,60,60,5.0,68.0
580,79.0,0,120,1.0,68.0
581,67.0,60,120,5.0,68.0
582,66.0,240,120,5.0,65.0
583,78.0,0,120,1.0,65.0
584,64.0,240,120,5.0,63.0
585,76.0,0,120,1.0,63.0
586,62.0,0,120,5.0,61.0
587,74.0,240,120,1.0,61.0
588,60.0,240,120,5.0,59.0
589,72.0,0,120,1.0,59.0
590,59.0,0,120,5.0,57.0
591,71.0,240,120,1.0,57.0
592,57.0,240,240,5.0,55.0
593,69.0,0,240,1.0,55.0
594,59.0,480,240,5.0,59.0
595,71.0,0,240,1.0,59.0
596,72.0,480,240,1.0,63.0
597,60.0,0,240,5.0,63.0
598,61.0,0,240,5.0,68.0
599,73.0,480,240,1.0,68.0
600,74.0,480,240,1.0,72.0
601,62.0,0,240,5.0,72.0
602,75.0,480,240,1.0,76.0
603,63.0,0,240,5.0,76.0
604,64.0,0,360,5.0,81.0
605,76.0,480,360,1.0,82.0
606,64.0,360,96,1.0,75.0
607,72.0,120,360,1.0,75.0
608,57.0,0,385,4.0,75.0
609,48.0,0,385,5.0,75.0
610,69.0,360,95,1.0,72.0
611,59.0,120,385,4.0,71.0
612,67.0,0,385,1.0,71.0
613,71.0,480,260,1.0,67.0
614,60.0,0,365,4.0,67.0
615,50.0,0,845,5.0,71.0
616,66.0,0,375,2.0,67.0
617,69.0,240,190,1.0,65.0
618,55.0,0,240,4.0,64.0
619,67.0,240,385,1.0,64.0
620,59.0,240,240,3.0,65.0
621,79.0,120,120,1.0,66.0
622,62.0,240,240,3.0,65.0
623,81.0,0,120,1.0,66.0
624,59.0,120,240,3.0,66.0
625,79.0,120,120,1.0,66.0
626,76.0,0,120,1.0,67.0
627,55.0,120,240,4.0,67.0
628,79.0,120,120,1.0,67.0
629,81.0,0,120,1.0,67.0
630,60.0,120,240,3.0,67.0
631,79.0,120,120,1.0,68.0
632,84.0,120,120,1.0,68.0
633,64.0,0,240,3.0,68.0
634,79.0,120,120,1.0,69.0
635,76.0,0,120,1.0,69.0
636,60.0,120,190,3.0,69.0
637,72.0,120,95,1.0,69.0
638,79.0,120,120,1.0,70.0
639,55.0,0,240,4.0,70.0
640,79.0,240,120,1.0,68.0
641,59.0,0,240,3.0,70.0
642,79.0,120,120,1.0,71.0
643,62.0,240,240,3.0,71.0
644,81.0,0,120,1.0,72.0
645,59.0,120,240,3.0,72.0
646,79.0,120,120,1.0,72.0
647,76.0,120,120,1.0,72.0
648,55.0,0,240,4.0,72.0
649,79.0,120,120,1.0,73.0
650,81.0,0,120,1.0,73.0
651,79.0,120,120,1.0,74.0
652,60.0,120,240,3.0,73.0
653,84.0,120,120,1.0,74.0
654,79.0,120,120,1.0,74.0
655,64.0,0,240,3.0,74.0
656,76.0,120,120,1.0,75.0
657,60.0,0,190,3.0,75.0
658,72.0,120,95,1.0,75.0
659,79.0,120,120,1.0,75.0
660,79.0,240,120,1.0,71.0
661,59.0,0,385,4.0,75.0
662,62.0,0,385,4.0,75.0
663,55.0,0,385,5.0,75.0
664,74.0,120,120,1.0,46.0
665,78.0,120,120,1.0,46.0
666,72.0,240,480,5.0,46.0
667,74.0,120,120,1.0,47.0
668,79.0,120,120,1.0,47.0
669,79.0,240,120,1.0,47.0
670,71.0,0,385,5.0,47.0
671,74.0,120,120,1.0,48.0
672,78.0,120,120,1.0,48.0
673,74.0,120,120,1.0,48.0
674,72.0,240,480,5.0,48.0
675,79.0,120,120,1.0,49.0
676,79.0,240,120,1.0,46.0
677,71.0,0,385,5.0,49.0
678,66.0,240,95,5.0,51.0
679,74.0,120,120,2.0,54.0
680,66.0,0,95,5.0,57.0
681,81.0,120,120,1.0,57.0
682,74.0,120,120,2.0,59.0
683,67.0,120,95,5.0,62.0
684,83.0,0,120,1.0,62.0
685,74.0,120,120,2.0,64.0
686,67.0,120,95,5.0,67.0
687,83.0,0,120,1.0,67.0
688,74.0,120,120,2.0,70.0
689,69.0,120,95,5.0,72.0
690,84.0,0,120,1.0,72.0
691,74.0,120,120,2.0,75.0
692,69.0,0,95,5.0,78.0
693,84.0,120,120,1.0,78.0
694,74.0,120,120,2.0,80.0
695,86.0,120,240,1.0,85.0
696,71.0,0,385,5.0,85.0
697,83.0,240,190,1.0,84.0
698,79.0,240,240,1.0,82.0
699,83.0,240,190,1.0,81.0
700,74.0,240,240,1.0,80.0
701,79.0,240,190,1.0,78.0
702,71.0,240,240,1.0,77.0
703,74.0,240,190,1.0,75.0
704,69.0,240,240,1.0,69.0
705,76.0,240,190,1.0,66.0
706,74.0,240,120,1.0,63.0
707,72.0,120,120,1.0,61.0
708,71.0,120,120,1.0,60.0
709,48.0,0,385,5.0,63.0
710,52.0,0,385,4.0,63.0
711,57.0,0,385,4.0,63.0
712,69.0,120,95,1.0,58.0
713,55.0,0,385,4.0,57.0
714,59.0,120,385,4.0,57.0
715,67.0,0,480,1.0,57.0
716,66.0,0,80,1.0,51.0
717,67.0,80,80,1.0,50.0
718,66.0,80,80,1.0,48.0
719,64.0,80,120,1.0,47.0
720,50.0,0,860,5.0,57.0
721,57.0,0,385,4.0,51.0
722,60.0,480,385,4.0,51.0
723,66.0,120,95,1.0,44.0
724,55.0,120,240,4.0,74.0
725,67.0,0,385,1.0,74.0
726,59.0,240,240,3.0,74.0
727,62.0,240,240,3.0,75.0
728,79.0,120,120,1.0,75.0
729,81.0,120,120,1.0,76.0
730,59.0,0,240,3.0,76.0
731,79.0,120,120,1.0,76.0
732,76.0,0,120,1.0,77.0
733,55.0,120,240,4.0,77.0
734,79.0,120,120,1.0,77.0
735,81.0,0,120,1.0,77.0
736,60.0,120,240,3.0,77.0
737,79.0,120,120,1.0,78.0
738,84.0,120,120,1.0,78.0
739,79.0,120,120,1.0,78.0
740,64.0,0,240,3.0,78.0
741,76.0,120,120,1.0,79.0
742,60.0,0,190,3.0,79.0
743,72.0,120,95,1.0,79.0
744,79.0,0,120,1.0,79.0
745,55.0,120,240,4.0,79.0
746,79.0,0,120,1.0,79.0
747,59.0,240,240,3.0,80.0
748,79.0,120,120,1.0,81.0
749,62.0,240,240,3.0,81.0
750,81.0,0,120,1.0,82.0
751,59.0,120,240,3.0,82.0
752,79.0,120,120,1.0,82.0
753,76.0,0,120,1.0,82.0
754,79.0,120,120,1.0,83.0
755,55.0,120,240,4.0,82.0
756,81.0,120,120,1.0,83.0
757,60.0,0,240,3.0,83.0
758,79.0,120,120,1.0,83.0
759,84.0,0,120,1.0,84.0
760,79.0,120,120,1.0,84.0
761,64.0,120,240,3.0,84.0
762,76.0,120,120,1.0,84.0
763,60.0,0,190,3.0,84.0
764,72.0,120,95,1.0,85.0
765,79.0,120,120,1.0,85.0
766,79.0,240,120,1.0,80.0
767,55.0,0,385,5.0,85.0
768,59.0,0,385,4.0,85.0
769,62.0,0,385,4.0,85.0
770,74.0,120,120,1.0,56.0
771,78.0,120,120,1.0,57.0
772,72.0,240,480,5.0,60.0
773,74.0,120,120,1.0,57.0
774,79.0,0,120,1.0,57.0
775,79.0,240,120,1.0,56.0
776,71.0,120,385,5.0,57.0
777,74.0,120,120,1.0,59.0
778,78.0,120,120,1.0,60.0
779,72.0,240,480,5.0,62.0
780,74.0,120,120,1.0,60.0
781,79.0,0,120,1.0,60.0
782,79.0,240,120,1.0,61.0
783,71.0,120,385,5.0,60.0
784,66.0,240,95,5.0,68.0
785,74.0,120,120,2.0,71.0
786,66.0,0,95,5.0,73.0
787,81.0,120,120,1.0,73.0
788,74.0,120,120,2.0,76.0
789,67.0,120,95,5.0,78.0
790,83.0,0,120,1.0,78.0
791,74.0,120,120,2.0,80.0
792,67.0,120,95,5.0,83.0
793,83.0,0,120,1.0,83.0
794,74.0,120,120,2.0,85.0
795,69.0,120,95,5.0,88.0
796,84.0,0,120,1.0,88.0
797,74.0,120,120,2.0,90.0
798,69.0,120,95,5.0,93.0
799,84.0,0,120,1.0,93.0
800,74.0,120,120,2.0,95.0
801,86.0,0,120,1.0,98.0
802,83.0,120,120,2.0,97.0
803,86.0,120,120,1.0,96.0
804,71.0,120,385,5.0,98.0
805,83.0,120,120,2.0,94.0
806,79.0,120,120,1.0,92.0
807,83.0,120,120,2.0,90.0
808,79.0,120,120,1.0,89.0
809,83.0,120,120,2.0,87.0
810,74.0,120,120,1.0,85.0
811,79.0,120,120,2.0,84.0
812,74.0,120,120,1.0,82.0
813,79.0,120,120,2.0,80.0
814,71.0,120,120,1.0,79.0
815,74.0,120,120,2.0,77.0
816,71.0,120,120,1.0,75.0
817,74.0,120,95,2.0,73.0
818,69.0,120,120,1.0,72.0
819,76.0,120,120,1.0,70.0
820,75.0,120,120,1.0,68.0
821,76.0,120,120,1.0,67.0
822,74.0,0,120,1.0,65.0
823,72.0,120,120,1.0,63.0
824,71.0,120,120,1.0,62.0
825,48.0,0,385,5.0,65.0
826,57.0,120,385,4.0,65.0
827,52.0,0,385,4.0,65.0
828,69.0,120,95,1.0,60.0
829,55.0,0,385,4.0,58.0
830,59.0,0,385,4.0,58.0
831,67.0,0,480,1.0,58.0
832,66.0,0,80,1.0,51.0
833,67.0,80,80,1.0,50.0
834,66.0,80,80,1.0,49.0
835,64.0,80,120,1.0,48.0
836,50.0,120,855,5.0,58.0
837,57.0,0,385,4.0,51.0
838,60.0,480,385,4.0,51.0
839,66.0,120,120,1.0,46.0
840,67.0,120,360,1.0,68.0
841,55.0,0,360,5.0,68.0
842,62.0,360,95,1.0,72.0
843,50.0,0,95,5.0,72.0
844,71.0,0,360,1.0,73.0
845,59.0,120,385,5.0,73.0
846,55.0,0,95,5.0,77.0
847,67.0,360,95,1.0,77.0
848,74.0,120,360,1.0,79.0
849,62.0,0,360,5.0,79.0
850,81.0,480,120,1.0,64.0
851,79.0,120,120,1.0,63.0
852,78.0,120,120,1.0,62.0
853,76.0,120,95,1.0,61.0
854,55.0,0,385,4.0,60.0
855,59.0,0,385,4.0,60.0
856,74.0,120,385,1.0,60.0
857,50.0,0,385,5.0,60.0
858,76.0,480,120,1.0,56.0
859,74.0,120,120,1.0,55.0
860,72.0,120,120,1.0,54.0
861,71.0,120,95,1.0,53.0
862,69.0,120,385,1.0,52.0
863,50.0,0,385,5.0,52.0
864,54.0,0,385,4.0,52.0
865,60.0,0,385,4.0,52.0
866,74.0,480,120,1.0,48.0
867,72.0,120,120,1.0,46.0
868,71.0,120,120,1.0,45.0
869,69.0,120,95,1.0,44.0
870,55.0,120,120,5.0,80.0
871,67.0,0,120,1.0,80.0
872,50.0,120,120,5.0,82.0
873,62.0,0,120,1.0,82.0
874,55.0,0,120,5.0,83.0
875,67.0,120,120,1.0,83.0
876,62.0,0,120,1.0,85.0
877,50.0,120,120,5.0,85.0
878,71.0,0,120,1.0,86.0
879,59.0,120,120,5.0,86.0
880,55.0,0,120,5.0,88.0
881,67.0,120,120,1.0,88.0
882,71.0,0,120,1.0,89.0
883,59.0,120,120,5.0,89.0
884,55.0,0,95,5.0,91.0
885,67.0,120,95,1.0,91.0
886,62.0,0,360,5.0,92.0
887,74.0,120,385,1.0,92.0
888,81.0,480,120,1.0,71.0
889,79.0,120,120,1.0,70.0
890,78.0,120,120,1.0,69.0
891,76.0,120,95,1.0,68.0
892,74.0,0,120,1.0,67.0
893,74.0,240,120,1.0,65.0
894,55.0,120,385,4.0,67.0
895,59.0,0,385,4.0,67.0
896,50.0,0,385,5.0,67.0
897,76.0,240,120,1.0,63.0
898,74.0,120,120,1.0,62.0
899,72.0,120,120,1.0,61.0
900,71.0,120,95,1.0,60.0
901,69.0,120,120,1.0,60.0
902,69.0,240,120,1.0,58.0
903,60.0,0,385,4.0,60.0
904,50.0,0,385,5.0,60.0
905,54.0,0,385,4.0,60.0
906,74.0,240,120,1.0,56.0
907,72.0,120,120,1.0,55.0
908,71.0,120,120,1.0,54.0
909,69.0,120,95,1.0,53.0
910,55.0,120,310,5.0,52.0
911,59.0,0,310,4.0,52.0
912,67.0,0,310,1.0,52.0
913,71.0,0,310,1.0,47.0
914,55.0,480,310,5.0,47.0
915,62.0,0,310,4.0,47.0
916,43.0,480,310,5.0,40.0
917,59.0,0,310,4.0,40.0
918,67.0,0,310,1.0,40.0
919,67.0,960,240,4.0,59.0
920,71.0,240,240,3.0,59.0
921,67.0,240,240,4.0,58.0
922,74.0,0,720,1.0,56.0
923,75.0,0,240,1.0,58.0
924,71.0,240,240,3.0,58.0
925,76.0,0,240,1.0,58.0
926,67.0,240,240,4.0,57.0
927,71.0,0,240,3.0,57.0
928,78.0,240,240,1.0,59.0
929,65.0,0,240,4.0,56.0
930,79.0,240,240,1.0,60.0
931,68.0,0,190,3.0,56.0
932,71.0,240,190,1.0,61.0
933,64.0,0,240,4.0,55.0
934,74.0,240,240,1.0,64.0
935,72.0,240,190,1.0,59.0
936,67.0,0,190,3.0,55.0
937,64.0,240,240,4.0,55.0
938,71.0,0,240,1.0,54.0
939,67.0,240,240,3.0,54.0
940,72.0,240,240,1.0,53.0
941,64.0,0,240,4.0,54.0
942,74.0,0,240,1.0,55.0
943,67.0,240,240,3.0,53.0
944,76.0,240,240,1.0,56.0
945,62.0,0,240,4.0,53.0
946,68.0,0,190,1.0,58.0
947,65.0,240,190,3.0,52.0
948,60.0,0,240,4.0,52.0
949,71.0,240,240,1.0,60.0
950,69.0,240,190,1.0,56.0
951,64.0,0,190,3.0,51.0
952,60.0,240,240,4.0,51.0
953,64.0,0,240,3.0,51.0
954,68.0,240,240,1.0,51.0
955,60.0,240,240,4.0,50.0
956,69.0,0,240,1.0,48.0
957,64.0,240,240,3.0,50.0
958,71.0,0,240,1.0,49.0
959,72.0,0,240,1.0,50.0
960,60.0,240,240,4.0,49.0
961,66.0,0,190,1.0,50.0
962,63.0,240,190,3.0,49.0
963,59.0,0,240,4.0,49.0
964,69.0,240,240,1.0,51.0
965,67.0,240,240,1.0,52.0
966,62.0,0,240,3.0,52.0
967,60.0,240,240,4.0,56.0
968,76.0,0,240,1.0,56.0
969,66.0,0,190,1.0,50.0
970,62.0,240,240,3.0,50.0
971,69.0,0,240,1.0,46.0
972,59.0,240,240,4.0,46.0
973,62.0,240,240,3.0,50.0
974,67.0,0,240,1.0,50.0
975,76.0,240,240,1.0,54.0
976,60.0,0,240,4.0,54.0
977,62.0,240,190,3.0,50.0
978,66.0,0,190,1.0,50.0
979,59.0,0,240,4.0,43.0
980,69.0,240,240,1.0,43.0
981,62.0,240,240,3.0,46.0
982,67.0,0,240,1.0,46.0
983,75.0,0,240,1.0,51.0
984,60.0,240,240,4.0,51.0
985,63.0,0,185,3.0,45.0
986,66.0,240,190,1.0,45.0
987,59.0,0,240,4.0,40.0
988,69.0,240,240,1.0,40.0
989,62.0,240,240,3.0,45.0
990,67.0,0,240,1.0,45.0
991,60.0,0,240,4.0,49.0
992,75.0,240,240,1.0,49.0
993,63.0,240,180,3.0,44.0
994,66.0,0,190,1.0,44.0
995,67.0,0,240,1.0,65.0
996,69.0,240,120,1.0,67.0
997,71.0,120,120,1.0,68.0
998,72.0,120,120,1.0,69.0
999,74.0,120,120,1.0,70.0
1000,76.0,120,120,1.0,71.0
1001,59.0,0,960,5.0,65.0
1002,78.0,120,120,1.0,72.0
1003,62.0,240,960,5.0,65.0
1004,79.0,120,120,1.0,73.0
1005,81.0,120,120,1.0,74.0
1006,83.0,120,120,1.0,75.0
1007,78.0,120,120,1.0,76.0
1008,79.0,120,120,1.0,77.0
1009,74.0,120,120,1.0,78.0
1010,76.0,120,120,1.0,79.0
1011,71.0,120,95,1.0,80.0
1012,50.0,120,240,4.0,81.0
1013,59.0,240,240,3.0,80.0
1014,55.0,240,240,3.0,79.0
1015,74.0,0,945,1.0,81.0
1016,59.0,240,240,3.0,77.0
1017,72.0,0,80,1.0,77.0
1018,74.0,80,80,1.0,75.0
1019,50.0,240,240,4.0,77.0
1020,72.0,80,80,1.0,74.0
1021,74.0,80,80,1.0,72.0
1022,72.0,80,80,1.0,71.0
1023,74.0,80,80,1.0,69.0
1024,57.0,0,245,3.0,72.0
1025,72.0,80,80,1.0,67.0
1026,74.0,80,80,1.0,66.0
1027,72.0,80,80,1.0,64.0
1028,54.0,0,240,3.0,67.0
1029,71.0,80,120,1.0,62.0
1030,57.0,0,185,3.0,62.0
1031,72.0,120,95,1.0,60.0
1032,55.0,0,240,4.0,58.0
1033,59.0,240,240,3.0,53.0
1034,62.0,240,240,3.0,48.0
1035,71.0,120,770,1.0,58.0
1036,59.0,240,240,3.0,43.0
1037,69.0,240,60,1.0,39.0
1038,67.0,60,80,1.0,40.0
1039,55.0,240,385,4.0,40.0
1040,66.0,60,120,1.0,40.0
1041,67.0,120,120,1.0,41.0
1042,71.0,240,120,1.0,44.0
1043,55.0,0,240,4.0,42.0
1044,76.0,240,480,1.0,46.0
1045,59.0,240,240,3.0,43.0
1046,62.0,0,240,3.0,43.0
1047,74.0,240,385,1.0,43.0
1048,59.0,240,240,3.0,44.0
1049,72.0,240,60,1.0,43.0
1050,71.0,60,75,1.0,44.0
1051,55.0,240,385,4.0,44.0
1052,69.0,60,120,1.0,44.0
1053,71.0,120,120,1.0,45.0
1054,74.0,240,120,1.0,48.0
1055,55.0,0,240,4.0,47.0
1056,59.0,240,240,3.0,47.0
1057,79.0,240,480,1.0,50.0
1058,62.0,0,240,3.0,48.0
1059,77.0,240,385,1.0,48.0
1060,59.0,240,240,3.0,48.0
1061,76.0,240,60,1.0,46.0
1062,74.0,60,80,1.0,47.0
1063,55.0,240,385,4.0,49.0
1064,73.0,60,120,1.0,48.0
1065,74.0,120,120,1.0,49.0
1066,77.0,240,120,1.0,52.0
1067,84.0,0,240,1.0,55.0
1068,56.0,240,480,5.0,51.0
1069,83.0,240,480,1.0,51.0
1070,59.0,240,480,5.0,53.0
1071,86.0,240,480,1.0,55.0
1072,62.0,240,480,5.0,57.0
1073,80.0,240,480,1.0,58.0
1074,65.0,240,385,5.0,60.0
1075,83.0,240,480,1.0,62.0
1076,59.0,240,480,5.0,64.0
1077,74.0,240,480,1.0,66.0
1078,57.0,240,480,5.0,67.0
1079,77.0,240,480,1.0,69.0
1080,56.0,240,480,5.0,71.0
1081,76.0,240,480,1.0,73.0
1082,64.0,240,385,5.0,75.0
1083,74.0,240,190,1.0,77.0
1084,57.0,0,240,4.0,50.0
1085,60.0,240,240,3.0,51.0
1086,64.0,240,240,3.0,51.0
1087,60.0,240,240,3.0,52.0
1088,72.0,240,1085,1.0,50.0
1089,57.0,240,240,4.0,53.0
1090,74.0,240,60,1.0,50.0
1091,72.0,60,80,1.0,50.0
1092,71.0,60,120,1.0,51.0
1093,60.0,0,240,3.0,54.0
1094,72.0,120,155,1.0,52.0
1095,65.0,0,240,3.0,54.0
1096,74.0,240,155,1.0,54.0
1097,60.0,0,190,3.0,55.0
1098,55.0,240,240,4.0,56.0
1099,62.0,240,240,3.0,56.0
1100,65.0,240,240,3.0,57.0
1101,62.0,240,240,3.0,58.0
1102,72.0,0,960,1.0,56.0
1103,70.0,0,120,1.0,59.0
1104,72.0,80,120,1.0,59.0
1105,55.0,240,240,4.0,59.0
1106,70.0,80,120,1.0,59.0
1107,72.0,0,120,1.0,59.0
1108,70.0,80,120,1.0,60.0
1109,60.0,80,240,3.0,59.0
1110,72.0,80,120,1.0,60.0
1111,70.0,80,120,1.0,60.0
1112,72.0,80,120,1.0,60.0
1113,64.0,0,240,3.0,60.0
1114,70.0,80,120,1.0,61.0
1115,69.0,80,120,1.0,61.0
1116,60.0,0,190,3.0,61.0
1117,70.0,120,120,1.0,61.0
1118,69.0,120,240,1.0,64.0
1119,53.0,0,240,4.0,64.0
1120,60.0,0,240,3.0,68.0
1121,65.0,240,240,3.0,71.0
1122,72.0,240,480,1.0,68.0
1123,60.0,0,240,3.0,74.0
1124,53.0,240,240,4.0,77.0
1125,77.0,240,480,1.0,74.0
1126,57.0,0,240,3.0,81.0
1127,81.0,240,480,1.0,81.0
1128,62.0,240,240,3.0,84.0
1129,82.0,0,185,1.0,87.0
1130,57.0,240,190,3.0,87.0
1131,52.0,0,240,4.0,93.0
1132,57.0,240,240,3.0,89.0
1133,61.0,240,240,3.0,85.0
1134,57.0,240,240,3.0,81.0
1135,81.0,240,960,1.0,93.0
1136,52.0,240,240,4.0,77.0
1137,79.0,0,385,1.0,73.0
1138,57.0,240,240,3.0,73.0
1139,61.0,240,240,3.0,69.0
1140,57.0,240,190,3.0,65.0
1141,50.0,240,240,4.0,73.0
1142,57.0,240,240,3.0,69.0
1143,79.0,0,720,1.0,73.0
1144,60.0,240,240,3.0,66.0
1145,78.0,0,240,1.0,58.0
1146,57.0,240,240,3.0,62.0
1147,50.0,240,240,4.0,59.0
1148,77.0,0,360,1.0,54.0
1149,55.0,240,240,3.0,55.0
1150,59.0,240,240,3.0,52.0
1151,55.0,240,190,3.0,48.0
1152,48.0,0,240,4.0,58.0
1153,55.0,240,240,3.0,55.0
1154,60.0,240,240,3.0,52.0
1155,77.0,240,720,1.0,58.0
1156,55.0,240,240,3.0,48.0
1157,76.0,0,240,1.0,45.0
1158,48.0,240,240,4.0,45.0
1159,75.0,0,360,1.0,40.0
1160,55.0,240,240,3.0,42.0
1161,60.0,240,240,3.0,39.0
1162,55.0,240,190,3.0,35.0
1163,53.0,0,240,4.0,34.0
1164,75.0,240,240,1.0,34.0
1165,74.0,0,120,1.0,36.0
1166,56.0,240,240,3.0,36.0
1167,74.0,240,120,1.0,38.0
1168,60.0,0,240,3.0,38.0
1169,74.0,240,120,1.0,40.0
1170,56.0,0,240,3.0,40.0
1171,74.0,0,240,1.0,42.0
1172,53.0,240,240,4.0,42.0
1173,56.0,240,240,3.0,44.0
1174,74.0,0,240,1.0,46.0
1175,60.0,240,240,3.0,46.0
1176,56.0,240,190,3.0,48.0
1177,54.0,0,240,4.0,50.0
1178,74.0,240,425,1.0,50.0
1179,57.0,240,240,3.0,52.0
1180,77.0,240,120,1.0,57.0
1181,60.0,0,240,3.0,54.0
1182,57.0,120,240,3.0,55.0
1183,54.0,240,240,4.0,52.0
1184,57.0,240,240,3.0,49.0
1185,75.0,120,845,1.0,60.0
1186,60.0,240,240,3.0,45.0
1187,74.0,0,245,1.0,49.0
1188,57.0,240,190,3.0,42.0
1189,72.0,0,190,1.0,45.0
1190,71.0,0,240,1.0,41.0
1191,55.0,240,385,5.0,40.0
1192,79.0,240,190,1.0,41.0
1193,55.0,240,385,5.0,42.0
1194,79.0,240,190,1.0,45.0
1195,55.0,0,385,5.0,44.0
1196,57.0,240,385,4.0,44.0
1197,78.0,240,190,1.0,49.0
1198,55.0,240,385,5.0,47.0
1199,59.0,0,385,4.0,47.0
1200,77.0,240,190,1.0,53.0
1201,77.0,240,240,1.0,55.0
1202,60.0,0,385,4.0,49.0
1203,55.0,0,385,5.0,49.0
1204,76.0,240,190,1.0,50.0
1205,55.0,240,385,5.0,51.0
1206,67.0,0,385,4.0,51.0
1207,75.0,240,190,1.0,50.0
1208,55.0,240,385,5.0,53.0
1209,65.0,0,385,4.0,53.0
1210,74.0,240,190,1.0,54.0
1211,55.0,240,385,5.0,56.0
1212,63.0,0,385,4.0,56.0
1213,72.0,240,190,1.0,59.0
1214,72.0,0,240,1.0,62.0
1215,62.0,240,385,4.0,58.0
1216,55.0,0,385,5.0,58.0
1217,71.0,240,190,1.0,57.0
1218,79.0,120,120,1.0,60.0
1219,81.0,120,120,1.0,61.0
1220,55.0,0,385,5.0,59.0
1221,59.0,240,385,4.0,59.0
1222,79.0,120,95,1.0,62.0
1223,78.0,120,120,1.0,64.0
1224,79.0,120,120,1.0,65.0
1225,57.0,120,385,4.0,63.0
1226,55.0,0,385,5.0,63.0
1227,78.0,120,95,1.0,66.0
1228,77.0,120,120,1.0,68.0
1229,79.0,120,120,1.0,69.0
1230,59.0,120,385,4.0,67.0
1231,55.0,0,385,5.0,67.0
1232,77.0,120,95,1.0,70.0
1233,76.0,120,120,1.0,72.0
1234,77.0,120,120,1.0,73.0
1235,60.0,0,385,4.0,71.0
1236,55.0,120,385,5.0,71.0
1237,76.0,120,95,1.0,74.0
1238,75.0,120,120,1.0,75.0
1239,77.0,120,120,1.0,76.0
1240,55.0,0,385,5.0,75.0
1241,67.0,120,385,4.0,75.0
1242,75.0,120,95,1.0,77.0
1243,74.0,120,120,1.0,79.0
1244,75.0,120,120,1.0,80.0
1245,55.0,120,385,5.0,78.0
1246,65.0,0,385,4.0,78.0
1247,74.0,120,95,1.0,81.0
1248,72.0,120,120,1.0,83.0
1249,74.0,120,120,1.0,84.0
1250,54.0,120,385,5.0,82.0
1251,63.0,0,385,4.0,82.0
1252,72.0,120,95,1.0,85.0
1253,71.0,120,185,1.0,88.0
1254,72.0,240,60,1.0,86.0
1255,71.0,60,75,1.0,85.0
1256,55.0,0,480,5.0,88.0
1257,69.0,60,120,1.0,84.0
1258,62.0,0,480,4.0,88.0
1259,71.0,120,120,1.0,83.0
1260,72.0,240,120,1.0,81.0
1261,74.0,240,185,1.0,78.0
1262,76.0,240,60,1.0,75.0
1263,74.0,60,80,1.0,75.0
1264,73.0,60,120,1.0,74.0
1265,74.0,120,120,1.0,73.0
1266,76.0,240,120,1.0,70.0
1267,55.0,240,385,5.0,67.0
1268,77.0,0,385,1.0,67.0
1269,62.0,0,385,4.0,67.0
1270,79.0,600,120,1.0,62.0
1271,76.0,0,120,1.0,61.0
1272,79.0,120,120,1.0,60.0
1273,61.0,120,240,4.0,61.0
1274,62.0,0,385,4.0,59.0
1275,55.0,0,385,5.0,59.0
1276,77.0,120,385,1.0,59.0
1277,79.0,600,120,1.0,53.0
1278,76.0,0,120,1.0,52.0
1279,61.0,120,240,4.0,52.0
1280,79.0,120,120,1.0,51.0
1281,62.0,120,385,4.0,50.0
1282,77.0,0,385,1.0,50.0
1283,55.0,0,385,5.0,50.0
1284,79.0,600,120,1.0,45.0
1285,76.0,0,120,1.0,44.0
1286,61.0,120,240,4.0,44.0
1287,79.0,120,120,1.0,43.0
1288,77.0,0,120,1.0,41.0
1289,62.0,0,240,4.0,41.0
1290,79.0,120,120,1.0,40.0
1291,76.0,120,120,1.0,39.0
1292,79.0,120,120,1.0,38.0
1293,61.0,0,240,4.0,39.0
1294,55.0,0,0,5.0,37.0
1295,77.0,120,120,1.0,37.0
1296,62.0,0,240,4.0,37.0
1297,79.0,120,120,1.0,36.0
1298,76.0,0,120,1.0,35.0
1299,61.0,120,240,4.0,35.0
1300,79.0,120,120,1.0,34.0
1301,77.0,0,240,1.0,34.0
1302,76.0,240,120,1.0,36.0
1303,74.0,240,120,1.0,38.0
1304,72.0,240,120,1.0,41.0
1305,55.0,120,960,5.0,34.0
1306,62.0,0,960,4.0,34.0
1307,71.0,240,120,1.0,44.0
1308,57.0,0,120,5.0,46.0
1309,72.0,240,120,1.0,46.0
1310,59.0,240,120,5.0,49.0
1311,74.0,0,120,1.0,49.0
1312,60.0,240,120,5.0,52.0
1313,76.0,0,120,1.0,52.0
1314,62.0,240,120,5.0,54.0
1315,77.0,0,120,1.0,54.0
1316,60.0,240,120,5.0,57.0
1317,76.0,0,120,1.0,57.0
1318,59.0,240,120,5.0,60.0
1319,74.0,0,120,1.0,60.0
1320,60.0,240,120,5.0,62.0
1321,76.0,0,120,1.0,62.0
1322,77.0,240,120,1.0,65.0
1323,62.0,0,120,5.0,65.0
1324,76.0,240,120,1.0,68.0
1325,61.0,0,120,5.0,68.0
1326,77.0,0,120,1.0,70.0
1327,62.0,240,120,5.0,70.0
1328,63.0,240,120,5.0,73.0
1329,78.0,0,120,1.0,73.0
1330,79.0,240,240,1.0,77.0
1331,64.0,0,240,4.0,77.0
1332,60.0,240,240,3.0,76.0
1333,64.0,240,240,4.0,76.0
1334,60.0,240,240,3.0,75.0
1335,79.0,0,590,1.0,82.0
1336,64.0,240,240,4.0,74.0
1337,77.0,240,120,1.0,73.0
1338,76.0,120,95,1.0,73.0
1339,60.0,0,240,3.0,73.0
1340,76.0,0,120,1.0,73.0
1341,74.0,120,120,1.0,72.0
1342,65.0,120,240,4.0,73.0
1343,72.0,120,120,1.0,72.0
1344,71.0,120,95,1.0,72.0
1345,60.0,0,240,3.0,72.0
1346,72.0,0,80,1.0,73.0
1347,74.0,80,80,1.0,72.0
1348,64.0,120,240,4.0,73.0
1349,72.0,80,80,1.0,71.0
1350,74.0,80,80,1.0,70.0
1351,72.0,80,80,1.0,69.0
1352,74.0,80,80,1.0,69.0
1353,60.0,0,240,3.0,70.0
1354,72.0,80,80,1.0,68.0
1355,74.0,80,80,1.0,67.0
1356,64.0,0,240,4.0,68.0
1357,72.0,80,80,1.0,66.0
1358,74.0,80,120,1.0,65.0
1359,60.0,0,240,3.0,65.0
1360,76.0,120,135,1.0,64.0
1361,64.0,0,240,4.0,62.0
1362,67.0,120,385,1.0,62.0
1363,60.0,240,240,3.0,60.0
1364,64.0,240,240,4.0,57.0
1365,60.0,240,190,3.0,55.0
1366,79.0,0,120,1.0,73.0
1367,64.0,240,240,4.0,73.0
1368,79.0,240,120,1.0,73.0
1369,60.0,0,240,3.0,73.0
1370,64.0,240,240,4.0,72.0
1371,60.0,240,240,3.0,71.0
1372,79.0,0,605,1.0,77.0
1373,64.0,240,240,4.0,70.0
1374,77.0,240,120,1.0,70.0
1375,76.0,120,95,1.0,69.0
1376,60.0,0,240,3.0,70.0
1377,76.0,120,120,1.0,69.0
1378,65.0,0,240,4.0,69.0
1379,74.0,120,120,1.0,69.0
1380,72.0,120,120,1.0,68.0
1381,71.0,120,95,1.0,68.0
1382,60.0,0,240,3.0,68.0
1383,72.0,120,80,1.0,71.0
1384,74.0,80,80,1.0,70.0
1385,64.0,0,240,4.0,71.0
1386,72.0,80,80,1.0,69.0
1387,74.0,80,80,1.0,68.0
1388,72.0,80,80,1.0,67.0
1389,74.0,80,80,1.0,67.0
1390,60.0,0,240,3.0,68.0
1391,72.0,80,80,1.0,66.0
1392,74.0,80,80,1.0,65.0
1393,72.0,80,80,1.0,64.0
1394,64.0,0,240,4.0,66.0
1395,74.0,0,120,1.0,63.0
1396,60.0,80,240,3.0,63.0
1397,76.0,120,120,1.0,62.0
1398,64.0,120,240,4.0,60.0
1399,67.0,0,385,1.0,60.0
1400,60.0,240,240,3.0,58.0
1401,64.0,240,240,4.0,55.0
1402,60.0,240,190,3.0,52.0
1403,69.0,0,120,1.0,53.0
1404,65.0,240,240,4.0,51.0
1405,72.0,240,120,1.0,51.0
1406,60.0,0,240,3.0,51.0
1407,77.0,240,120,1.0,50.0
1408,65.0,0,240,4.0,50.0
1409,81.0,0,120,1.0,48.0
1410,60.0,240,240,3.0,49.0
1411,84.0,0,120,1.0,47.0
1412,65.0,240,240,4.0,49.0
1413,89.0,0,120,1.0,45.0
1414,60.0,240,240,3.0,48.0
1415,65.0,240,240,4.0,47.0
1416,60.0,240,190,3.0,47.0
1417,67.0,0,120,1.0,49.0
1418,64.0,240,240,4.0,46.0
1419,72.0,0,120,1.0,47.0
1420,60.0,240,240,3.0,46.0
1421,76.0,240,120,1.0,45.0
1422,64.0,0,240,4.0,45.0
1423,79.0,240,120,1.0,43.0
1424,60.0,0,240,3.0,44.0
1425,84.0,240,120,1.0,41.0
1426,64.0,0,240,4.0,44.0
1427,88.0,0,120,1.0,39.0
1428,60.0,240,240,3.0,43.0
1429,64.0,240,240,4.0,42.0
1430,60.0,240,190,3.0,42.0
1431,67.0,0,135,1.0,69.0
1432,60.0,0,240,5.0,69.0
1433,64.0,240,480,4.0,69.0
1434,55.0,120,240,3.0,69.0
1435,60.0,240,240,5.0,69.0
1436,55.0,240,240,3.0,69.0
1437,64.0,0,480,4.0,69.0
1438,59.0,0,240,5.0,69.0
1439,79.0,120,1260,1.0,81.0
1440,55.0,240,240,3.0,69.0
1441,62.0,240,0,4.0,69.0
1442,77.0,0,80,1.0,69.0
1443,79.0,80,80,1.0,69.0
1444,59.0,0,240,5.0,69.0
1445,77.0,80,80,1.0,69.0
1446,76.0,0,120,1.0,69.0
1447,77.0,120,95,1.0,69.0
1448,55.0,80,240,3.0,69.0
1449,60.0,120,190,4.0,69.0
1450,75.0,0,480,1.0,69.0
1451,48.0,240,240,5.0,66.0
1452,52.0,0,240,5.0,63.0
1453,76.0,240,385,1.0,63.0
1454,55.0,240,240,5.0,60.0
1455,60.0,240,240,5.0,57.0
1456,64.0,240,240,5.0,54.0
1457,67.0,240,240,5.0,51.0
1458,64.0,240,190,5.0,48.0
1459,69.0,0,120,1.0,50.0
1460,72.0,120,120,1.0,49.0
1461,65.0,240,240,4.0,49.0
1462,74.0,0,120,1.0,48.0
1463,76.0,120,120,1.0,47.0
1464,60.0,120,240,3.0,49.0
1465,77.0,0,120,1.0,46.0
1466,65.0,120,240,4.0,48.0
1467,79.0,120,120,1.0,46.0
1468,81.0,0,120,1.0,45.0
1469,83.0,120,120,1.0,44.0
1470,60.0,120,240,3.0,47.0
1471,65.0,0,240,4.0,47.0
1472,84.0,120,385,1.0,43.0
1473,60.0,240,240,3.0,46.0
1474,65.0,240,240,4.0,45.0
1475,60.0,240,190,3.0,45.0
1476,67.0,0,120,1.0,45.0
1477,72.0,120,120,1.0,44.0
1478,64.0,240,240,4.0,44.0
1479,74.0,120,120,1.0,43.0
1480,76.0,120,120,1.0,42.0
1481,60.0,0,240,3.0,44.0
1482,77.0,120,120,1.0,41.0
1483,79.0,120,120,1.0,40.0
1484,64.0,0,240,4.0,43.0
1485,81.0,120,120,1.0,39.0
1486,83.0,120,120,1.0,38.0
1487,60.0,0,240,3.0,42.0
1488,64.0,120,240,4.0,42.0
1489,84.0,0,385,1.0,37.0
1490,60.0,240,240,3.0,41.0
1491,64.0,240,240,4.0,40.0
1492,60.0,240,190,3.0,40.0
1493,60.0,0,240,5.0,69.0
1494,81.0,0,240,1.0,71.0
1495,79.0,0,120,1.0,69.0
1496,64.0,240,480,4.0,69.0
1497,55.0,240,240,3.0,69.0
1498,77.0,0,120,1.0,67.0
1499,60.0,240,240,5.0,68.0
1500,76.0,0,120,1.0,64.0
1501,55.0,240,240,3.0,68.0
1502,64.0,0,480,4.0,68.0
1503,62.0,0,240,5.0,67.0
1504,76.0,0,240,1.0,67.0
1505,74.0,240,120,1.0,65.0
1506,65.0,0,0,4.0,66.0
1507,55.0,0,240,3.0,67.0
1508,72.0,240,120,1.0,63.0
1509,62.0,0,240,5.0,66.0
1510,71.0,240,120,1.0,61.0
1511,55.0,0,240,3.0,66.0
1512,72.0,0,120,1.0,67.0
1513,67.0,120,120,1.0,65.0
1514,69.0,120,120,1.0,64.0
1515,60.0,240,385,5.0,67.0
1516,64.0,0,385,4.0,67.0
1517,71.0,120,120,1.0,62.0
1518,72.0,120,120,1.0,61.0
1519,74.0,120,120,1.0,59.0
1520,76.0,120,120,1.0,58.0
1521,77.0,120,120,1.0,56.0
1522,79.0,120,120,1.0,55.0
1523,81.0,120,120,1.0,53.0
1524,83.0,120,120,1.0,52.0
1525,84.0,120,95,1.0,50.0
1526,79.0,120,120,1.0,49.0
1527,79.0,240,120,1.0,46.0
1528,79.0,120,120,1.0,45.0
1529,55.0,240,240,5.0,45.0
1530,64.0,0,240,4.0,45.0
1531,81.0,120,120,1.0,44.0
1532,79.0,120,95,1.0,44.0
1533,55.0,0,240,5.0,44.0
1534,77.0,120,120,1.0,43.0
1535,62.0,120,240,4.0,44.0
1536,79.0,120,120,1.0,43.0
1537,77.0,120,95,1.0,43.0
1538,55.0,0,240,5.0,42.0
1539,60.0,120,240,4.0,42.0
1540,76.0,120,120,1.0,42.0
1541,77.0,120,120,1.0,42.0
1542,76.0,120,95,1.0,41.0
1543,55.0,0,240,5.0,41.0
1544,74.0,120,120,1.0,40.0
1545,59.0,120,240,4.0,41.0
1546,76.0,120,120,1.0,40.0
1547,74.0,120,95,1.0,40.0
1548,72.0,0,120,1.0,59.0
1549,67.0,120,120,1.0,58.0
1550,69.0,120,120,1.0,57.0
1551,71.0,120,120,1.0,56.0
1552,72.0,120,120,1.0,55.0
1553,74.0,120,120,1.0,54.0
1554,76.0,120,120,1.0,53.0
1555,60.0,120,840,5.0,59.0
1556,77.0,120,120,1.0,52.0
1557,79.0,120,120,1.0,51.0
1558,81.0,120,120,1.0,50.0
1559,83.0,120,120,1.0,49.0
1560,84.0,120,95,1.0,48.0
1561,79.0,120,120,1.0,47.0
1562,79.0,240,120,1.0,45.0
1563,55.0,240,240,5.0,43.0
1564,64.0,0,240,4.0,43.0
1565,79.0,120,120,1.0,43.0
1566,81.0,120,120,1.0,42.0
1567,79.0,120,120,1.0,42.0
1568,77.0,120,120,1.0,41.0
1569,62.0,120,240,4.0,41.0
1570,55.0,0,240,5.0,41.0
1571,79.0,120,120,1.0,40.0
1572,77.0,120,120,1.0,40.0
1573,76.0,120,120,1.0,39.0
1574,55.0,0,240,5.0,39.0
1575,60.0,120,240,4.0,39.0
1576,77.0,120,120,1.0,38.0
1577,76.0,120,120,1.0,38.0
1578,74.0,120,120,1.0,37.0
1579,55.0,0,240,5.0,37.0
1580,59.0,120,240,4.0,37.0
1581,76.0,120,120,1.0,36.0
1582,74.0,120,120,1.0,36.0
1583,48.0,0,185,5.0,70.0
1584,60.0,240,240,5.0,73.0
1585,59.0,240,240,5.0,76.0
1586,72.0,120,720,1.0,70.0
1587,74.0,0,120,1.0,78.0
1588,58.0,240,240,5.0,78.0
1589,76.0,120,120,1.0,80.0
1590,77.0,0,120,1.0,81.0
1591,57.0,120,170,5.0,81.0
1592,57.0,240,240,5.0,84.0
1593,77.0,0,480,1.0,84.0
1594,55.0,240,240,5.0,87.0
1595,79.0,240,120,1.0,89.0
1596,81.0,120,120,1.0,91.0
1597,53.0,0,240,5.0,89.0
1598,79.0,120,240,1.0,92.0
1599,52.0,0,240,5.0,92.0
1600,76.0,240,120,1.0,95.0
1601,84.0,0,120,1.0,98.0
1602,48.0,240,240,5.0,98.0
1603,84.0,240,120,1.0,100.0
1604,86.0,240,120,1.0,101.0
1605,84.0,120,120,1.0,97.0
1606,83.0,120,120,1.0,94.0
1607,81.0,120,95,1.0,90.0
1608,81.0,0,120,1.0,87.0
1609,79.0,120,120,1.0,84.0
1610,77.0,120,120,1.0,81.0
1611,48.0,120,385,5.0,87.0
1612,60.0,0,385,4.0,87.0
1613,76.0,120,95,1.0,77.0
1614,79.0,0,720,1.0,74.0
1615,64.0,0,720,4.0,74.0
1616,76.0,720,240,1.0,55.0
1617,60.0,0,240,4.0,55.0
1618,55.0,120,960,5.0,74.0
1619,43.0,240,120,5.0,40.0
1620,59.0,0,385,4.0,48.0
1621,74.0,240,385,1.0,48.0
1622,47.0,240,120,5.0,41.0
1623,50.0,240,120,5.0,41.0
1624,73.0,240,135,1.0,42.0
1625,55.0,0,240,4.0,42.0
1626,74.0,120,305,1.0,47.0
1627,59.0,120,240,3.0,43.0
1628,72.0,0,120,1.0,43.0
1629,71.0,120,120,1.0,42.0
1630,62.0,240,240,3.0,44.0
1631,69.0,120,120,1.0,41.0
1632,67.0,120,95,1.0,40.0
1633,73.0,0,240,1.0,46.0
1634,55.0,120,240,4.0,46.0
1635,74.0,0,180,1.0,51.0
1636,59.0,240,240,3.0,46.0
1637,72.0,0,120,1.0,49.0
1638,62.0,240,240,3.0,47.0
1639,71.0,120,120,1.0,48.0
1640,69.0,120,120,1.0,47.0
1641,67.0,120,95,1.0,46.0
1642,55.0,120,240,4.0,49.0
1643,75.0,0,240,1.0,53.0
1644,76.0,240,120,1.0,52.0
1645,60.0,0,240,3.0,50.0
1646,76.0,0,120,1.0,50.0
1647,64.0,240,240,3.0,50.0
1648,76.0,0,120,1.0,48.0
1649,60.0,240,240,3.0,51.0
1650,55.0,240,240,4.0,52.0
1651,76.0,0,385,1.0,47.0
1652,60.0,240,240,3.0,53.0
1653,64.0,240,240,3.0,54.0
1654,60.0,240,190,3.0,54.0
1655,54.0,240,240,4.0,54.0
1656,69.0,0,240,1.0,54.0
1657,57.0,120,240,3.0,55.0
1658,81.0,120,600,1.0,59.0
1659,60.0,240,240,3.0,56.0
1660,79.0,240,80,1.0,55.0
1661,78.0,80,80,1.0,54.0
1662,76.0,80,80,1.0,54.0
1663,74.0,80,240,1.0,59.0
1664,54.0,0,240,4.0,59.0
1665,86.0,0,120,1.0,60.0
1666,57.0,240,240,3.0,60.0
1667,86.0,240,120,1.0,63.0
1668,60.0,0,240,3.0,61.0
1669,86.0,240,120,1.0,65.0
1670,53.0,0,240,4.0,64.0
1671,55.0,240,240,4.0,65.0
1672,86.0,240,605,1.0,71.0
1673,59.0,240,240,4.0,67.0
1674,83.0,120,120,1.0,66.0
1675,86.0,0,120,1.0,65.0
1676,62.0,120,240,4.0,68.0
1677,83.0,120,120,1.0,64.0
1678,79.0,0,180,1.0,63.0
1679,74.0,240,240,1.0,67.0
1680,71.0,0,240,2.0,67.0
1681,65.0,120,480,4.0,69.0
1682,64.0,0,240,4.0,58.0
1683,72.0,0,240,2.0,58.0
1684,76.0,240,240,1.0,58.0
1685,77.0,0,240,1.0,50.0
1686,74.0,0,240,2.0,50.0
1687,62.0,240,240,4.0,50.0
1688,60.0,0,240,4.0,52.0
1689,78.0,240,240,1.0,52.0
1690,79.0,240,190,1.0,53.0
1691,64.0,0,240,3.0,53.0
1692,77.0,0,120,1.0,54.0
1693,76.0,120,120,1.0,54.0
1694,67.0,240,240,3.0,54.0
1695,74.0,120,120,1.0,55.0
1696,72.0,120,95,1.0,55.0
1697,78.0,120,120,1.0,56.0
1698,60.0,0,240,4.0,56.0
1699,79.0,120,120,1.0,56.0
1700,81.0,0,120,1.0,57.0
1701,64.0,120,240,3.0,57.0
1702,79.0,120,120,1.0,57.0
1703,77.0,120,120,1.0,58.0
1704,67.0,0,240,3.0,58.0
1705,76.0,120,120,1.0,58.0
1706,74.0,120,120,1.0,59.0
1707,72.0,120,95,1.0,59.0
1708,60.0,120,240,4.0,60.0
1709,80.0,0,240,1.0,67.0
1710,81.0,240,120,1.0,66.0
1711,65.0,0,240,3.0,61.0
1712,81.0,0,120,1.0,64.0
1713,69.0,240,240,3.0,62.0
1714,81.0,240,120,1.0,63.0
1715,65.0,0,240,3.0,63.0
1716,60.0,0,240,4.0,64.0
1717,81.0,240,385,1.0,61.0
1718,65.0,240,240,3.0,65.0
1719,69.0,240,240,3.0,66.0
1720,65.0,240,190,3.0,67.0
1721,86.0,0,120,1.0,68.0
1722,88.0,120,120,1.0,68.0
1723,89.0,120,120,1.0,69.0
1724,88.0,120,120,1.0,69.0
1725,86.0,120,120,1.0,70.0
1726,84.0,120,120,1.0,70.0
1727,83.0,120,120,1.0,71.0
1728,81.0,120,120,1.0,71.0
1729,79.0,120,120,1.0,71.0
1730,83.0,120,120,1.0,72.0
1731,86.0,120,120,1.0,72.0
1732,84.0,120,120,1.0,73.0
1733,83.0,120,120,1.0,73.0
1734,81.0,120,120,1.0,74.0
1735,79.0,120,120,1.0,74.0
1736,59.0,240,1850,5.0,68.0
1737,65.0,0,1860,4.0,68.0
1738,62.0,0,1865,4.0,68.0
1739,67.0,0,1865,4.0,68.0
1740,77.0,120,95,1.0,74.0
1741,60.0,120,160,4.0,75.0
1742,76.0,0,240,1.0,75.0
1743,64.0,160,160,3.0,75.0
1744,72.0,160,155,3.0,76.0
1745,77.0,0,80,1.0,71.0
1746,79.0,80,80,1.0,73.0
1747,62.0,160,160,4.0,77.0
1748,77.0,80,80,1.0,74.0
1749,65.0,0,160,3.0,77.0
1750,76.0,80,120,1.0,75.0
1751,72.0,80,155,3.0,78.0
1752,77.0,40,120,1.0,77.0
1753,64.0,0,160,4.0,78.0
1754,67.0,160,160,3.0,79.0
1755,79.0,120,385,1.0,79.0
1756,72.0,160,155,3.0,80.0
1757,60.0,160,160,4.0,80.0
1758,64.0,160,160,3.0,81.0
1759,72.0,160,155,3.0,81.0
1760,81.0,0,80,1.0,52.0
1761,83.0,80,80,1.0,53.0
1762,65.0,160,160,4.0,52.0
1763,69.0,0,160,3.0,52.0
1764,84.0,80,260,1.0,53.0
1765,72.0,160,155,3.0,53.0
1766,65.0,0,160,4.0,53.0
1767,84.0,160,290,1.0,55.0
1768,69.0,160,160,3.0,54.0
1769,84.0,40,95,1.0,57.0
1770,72.0,160,155,3.0,54.0
1771,65.0,0,160,4.0,55.0
1772,69.0,160,160,3.0,55.0
1773,84.0,120,435,1.0,58.0
1774,72.0,160,155,3.0,56.0
1775,83.0,0,120,1.0,60.0
1776,65.0,160,160,4.0,56.0
1777,81.0,120,120,1.0,61.0
1778,69.0,40,160,3.0,57.0
1779,79.0,80,120,1.0,62.0
1780,77.0,40,95,1.0,62.0
1781,72.0,80,155,3.0,57.0
1782,60.0,120,160,4.0,58.0
1783,76.0,0,240,1.0,65.0
1784,64.0,160,160,3.0,58.0
1785,72.0,160,155,3.0,59.0
1786,77.0,0,80,1.0,63.0
1787,62.0,160,160,4.0,59.0
1788,79.0,80,80,1.0,62.0
1789,77.0,80,80,1.0,62.0
1790,65.0,0,160,3.0,60.0
1791,76.0,80,120,1.0,61.0
1792,72.0,80,155,3.0,60.0
1793,77.0,40,120,1.0,60.0
1794,64.0,0,160,4.0,61.0
1795,67.0,160,160,3.0,61.0
1796,79.0,120,360,1.0,60.0
1797,72.0,160,160,3.0,62.0
1798,60.0,160,160,4.0,62.0
1799,64.0,160,160,3.0,63.0
1800,72.0,160,160,3.0,63.0
1801,81.0,0,80,1.0,76.0
1802,83.0,80,80,1.0,77.0
1803,65.0,160,160,4.0,78.0
1804,69.0,80,160,3.0,78.0
1805,84.0,0,250,1.0,77.0
1806,72.0,160,160,3.0,79.0
1807,65.0,160,160,4.0,79.0
1808,84.0,0,290,1.0,79.0
1809,69.0,160,160,3.0,80.0
1810,84.0,40,95,1.0,81.0
1811,72.0,160,160,3.0,80.0
1812,65.0,120,160,4.0,81.0
1813,69.0,160,160,3.0,81.0
1814,84.0,0,420,1.0,81.0
1815,72.0,160,160,3.0,81.0
1816,83.0,0,120,1.0,84.0
1817,65.0,160,160,4.0,82.0
1818,81.0,120,120,1.0,85.0
1819,69.0,40,160,3.0,82.0
1820,79.0,80,120,1.0,85.0
1821,77.0,40,95,1.0,86.0
1822,72.0,80,160,3.0,83.0
1823,76.0,0,240,1.0,86.0
1824,84.0,240,120,1.0,83.0
1825,60.0,120,385,5.0,83.0
1826,86.0,120,120,1.0,84.0
1827,88.0,120,120,1.0,84.0
1828,86.0,120,120,1.0,85.0
1829,84.0,120,120,1.0,86.0
1830,83.0,120,120,1.0,86.0
1831,81.0,0,120,1.0,87.0
1832,79.0,120,120,1.0,88.0
1833,77.0,120,120,1.0,89.0
1834,53.0,120,480,5.0,87.0
1835,76.0,120,120,1.0,89.0
1836,74.0,120,120,1.0,90.0
1837,72.0,120,120,1.0,91.0
1838,71.0,120,120,1.0,91.0
1839,69.0,120,120,1.0,92.0
1840,55.0,120,240,5.0,93.0
1841,67.0,0,240,1.0,93.0
1842,56.0,0,960,5.0,100.0
1843,65.0,0,960,1.0,100.0
1844,62.0,0,960,4.0,100.0
1845,59.0,480,960,4.0,100.0
1846,57.0,960,385,5.0,66.0
1847,60.0,0,385,4.0,66.0
1848,64.0,0,385,1.0,66.0
1849,62.0,240,120,1.0,54.0
1850,53.0,480,385,5.0,55.0
1851,57.0,0,385,4.0,55.0
1852,65.0,240,120,1.0,53.0
1853,69.0,240,120,1.0,52.0
1854,73.0,240,240,1.0,51.0
1855,74.0,240,240,1.0,50.0
1856,77.0,240,240,1.0,49.0
1857,81.0,240,190,1.0,48.0
1858,81.0,240,240,1.0,47.0
1859,72.0,240,190,1.0,46.0
1860,64.0,0,385,4.0,45.0
1861,72.0,0,960,1.0,45.0
1862,76.0,480,240,1.0,41.0
1863,65.0,480,855,4.0,43.0
1864,55.0,240,1335,5.0,45.0
1865,71.0,0,385,4.0,41.0
1866,74.0,240,190,1.0,40.0
1867,64.0,0,385,4.0,39.0
1868,72.0,240,385,1.0,39.0
1869,60.0,0,385,5.0,39.0
1870,48.0,480,385,5.0,34.0
1871,79.0,480,240,1.0,62.0
1872,76.0,240,240,1.0,50.0
1873,84.0,240,120,1.0,47.0
1874,83.0,240,120,1.0,45.0
1875,81.0,240,120,1.0,42.0
1876,79.0,240,120,1.0,40.0
1877,77.0,240,120,1.0,37.0
1878,76.0,240,120,1.0,36.0
1879,74.0,240,240,1.0,36.0
1880,76.0,480,240,1.0,38.0
1881,79.0,480,240,1.0,46.0
1882,78.0,240,240,1.0,43.0
1883,77.0,240,190,1.0,40.0
1884,59.0,0,480,5.0,40.0
1885,76.0,480,240,1.0,42.0
1886,67.0,0,840,4.0,40.0
1887,60.0,0,385,5.0,42.0
1888,77.0,240,240,1.0,43.0
1889,78.0,240,120,1.0,43.0
1890,79.0,240,120,1.0,44.0
1891,81.0,240,80,1.0,45.0
1892,83.0,80,80,1.0,45.0
1893,81.0,80,80,1.0,45.0
1894,80.0,80,120,1.0,46.0
1895,81.0,120,120,1.0,46.0
1896,84.0,120,120,1.0,46.0
1897,83.0,240,120,1.0,47.0
1898,60.0,0,845,4.0,45.0
1899,53.0,0,855,5.0,45.0
1900,81.0,240,120,1.0,47.0
1901,79.0,240,120,1.0,50.0
1902,77.0,0,120,1.0,54.0
1903,76.0,240,120,1.0,58.0
1904,57.0,240,385,4.0,52.0
1905,54.0,0,385,5.0,52.0
1906,79.0,0,360,1.0,62.0
1907,60.0,240,385,4.0,59.0
1908,76.0,360,120,1.0,50.0
1909,74.0,0,240,1.0,46.0
1910,55.0,0,860,5.0,59.0
1911,59.0,120,385,4.0,43.0
1912,79.0,480,360,1.0,76.0
1913,67.0,0,360,5.0,76.0
1914,81.0,0,60,1.0,64.0
1915,69.0,360,60,5.0,64.0
1916,83.0,60,60,1.0,63.0
1917,71.0,0,60,5.0,63.0
1918,84.0,60,120,1.0,62.0
1919,72.0,0,120,5.0,62.0
1920,71.0,240,120,5.0,59.0
1921,83.0,0,120,1.0,59.0
1922,81.0,0,120,1.0,54.0
1923,69.0,240,120,5.0,54.0
1924,79.0,240,120,1.0,50.0
1925,67.0,0,120,5.0,50.0
1926,77.0,240,120,1.0,46.0
1927,65.0,0,120,5.0,46.0
1928,76.0,240,120,1.0,45.0
1929,64.0,0,120,5.0,45.0
1930,62.0,240,240,5.0,45.0
1931,74.0,0,240,1.0,45.0
1932,64.0,0,240,5.0,50.0
1933,76.0,480,240,1.0,50.0
1934,77.0,0,240,1.0,55.0
1935,65.0,480,240,5.0,55.0
1936,66.0,0,240,5.0,60.0
1937,78.0,480,240,1.0,60.0
1938,79.0,0,240,1.0,64.0
1939,67.0,480,240,5.0,64.0
1940,68.0,480,240,5.0,69.0
1941,80.0,0,240,1.0,69.0
1942,69.0,480,350,5.0,74.0
1943,81.0,0,360,1.0,74.0
1944,69.0,360,95,1.0,70.0
1945,77.0,0,360,1.0,69.0
1946,53.0,0,385,5.0,69.0
1947,62.0,120,385,4.0,69.0
1948,74.0,360,95,1.0,65.0
1949,64.0,0,385,4.0,63.0
1950,72.0,120,480,1.0,63.0
1951,76.0,0,240,1.0,58.0
1952,65.0,480,385,4.0,58.0
1953,71.0,0,385,4.0,58.0
1954,55.0,0,885,5.0,63.0
1955,74.0,240,190,1.0,55.0
1956,60.0,0,240,4.0,60.0
1957,72.0,240,480,1.0,60.0
1958,64.0,240,240,3.0,61.0
1959,67.0,240,240,3.0,62.0
1960,72.0,120,120,1.0,62.0
1961,74.0,120,120,1.0,63.0
1962,76.0,120,120,1.0,63.0
1963,64.0,0,240,3.0,63.0
1964,77.0,0,60,1.0,64.0
1965,79.0,60,60,1.0,64.0
1966,77.0,60,60,1.0,64.0
1967,60.0,120,240,4.0,64.0
1968,76.0,60,60,1.0,64.0
1969,77.0,0,120,1.0,65.0
1970,79.0,120,120,1.0,65.0
1971,65.0,60,240,3.0,65.0
1972,81.0,120,60,1.0,65.0
1973,83.0,60,60,1.0,66.0
1974,81.0,60,60,1.0,66.0
1975,79.0,60,60,1.0,66.0
1976,69.0,0,240,3.0,65.0
1977,81.0,0,120,1.0,66.0
1978,65.0,60,190,3.0,66.0
1979,83.0,120,95,1.0,67.0
1980,84.0,0,120,1.0,67.0
1981,60.0,120,240,4.0,67.0
1982,84.0,0,120,1.0,68.0
1983,64.0,240,240,3.0,68.0
1984,67.0,240,240,3.0,69.0
1985,72.0,120,120,1.0,69.0
1986,74.0,0,120,1.0,70.0
1987,64.0,120,240,3.0,70.0
1988,76.0,120,120,1.0,70.0
1989,77.0,0,60,1.0,71.0
1990,79.0,60,60,1.0,71.0
1991,77.0,60,60,1.0,71.0
1992,60.0,120,240,4.0,71.0
1993,76.0,60,60,1.0,72.0
1994,77.0,0,120,1.0,72.0
1995,65.0,60,240,3.0,72.0
1996,79.0,120,120,1.0,72.0
1997,81.0,0,60,1.0,73.0
1998,83.0,60,60,1.0,73.0
1999,81.0,60,60,1.0,73.0
2000,79.0,60,60,1.0,73.0
2001,69.0,120,240,3.0,73.0
2002,81.0,0,120,1.0,74.0
2003,65.0,60,190,3.0,74.0
2004,83.0,120,95,1.0,74.0
2005,84.0,0,120,1.0,77.0
2006,84.0,240,120,1.0,72.0
2007,67.0,0,385,4.0,77.0
2008,60.0,0,385,5.0,77.0
2009,64.0,120,385,4.0,77.0
2010,79.0,120,120,1.0,45.0
2011,83.0,120,120,1.0,45.0
2012,79.0,120,120,1.0,46.0
2013,65.0,240,485,5.0,48.0
2014,84.0,120,120,1.0,47.0
2015,84.0,240,120,1.0,45.0
2016,67.0,0,860,4.0,48.0
2017,64.0,0,385,5.0,47.0
2018,79.0,120,120,1.0,50.0
2019,83.0,120,120,1.0,50.0
2020,65.0,240,480,5.0,52.0
2021,79.0,120,120,1.0,51.0
2022,84.0,120,120,1.0,51.0
2023,84.0,240,120,1.0,49.0
2024,67.0,0,855,4.0,52.0
2025,64.0,0,385,5.0,51.0
2026,67.0,240,120,4.0,55.0
2027,65.0,0,120,5.0,55.0
2028,79.0,120,120,2.0,58.0
2029,65.0,0,120,5.0,61.0
2030,67.0,120,120,4.0,61.0
2031,83.0,0,120,1.0,61.0
2032,79.0,120,120,2.0,64.0
2033,84.0,0,120,1.0,67.0
2034,67.0,0,120,4.0,67.0
2035,64.0,120,120,5.0,67.0
2036,79.0,120,120,2.0,70.0
2037,84.0,0,120,1.0,73.0
2038,67.0,0,120,4.0,73.0
2039,64.0,120,120,5.0,73.0
2040,79.0,120,120,2.0,76.0
2041,86.0,120,120,1.0,79.0
2042,59.0,0,120,5.0,79.0
2043,67.0,0,120,4.0,79.0
2044,79.0,120,120,2.0,82.0
2045,59.0,120,120,5.0,85.0
2046,67.0,0,120,4.0,85.0
2047,86.0,0,120,1.0,85.0
2048,79.0,120,95,2.0,88.0
2049,88.0,0,240,1.0,91.0
2050,84.0,240,120,1.0,88.0
2051,67.0,0,480,4.0,91.0
2052,60.0,120,480,5.0,91.0
2053,79.0,240,240,1.0,85.0
2054,84.0,240,120,1.0,82.0
2055,76.0,240,240,1.0,79.0
2056,79.0,240,120,1.0,76.0
2057,72.0,240,240,1.0,73.0
2058,76.0,240,120,1.0,70.0
2059,69.0,240,240,1.0,68.0
2060,81.0,240,190,1.0,65.0
2061,79.0,0,120,1.0,62.0
2062,77.0,120,120,1.0,60.0
2063,76.0,120,120,1.0,59.0
2064,53.0,0,385,5.0,62.0
2065,62.0,240,385,4.0,62.0
2066,57.0,0,385,4.0,62.0
2067,74.0,120,95,1.0,57.0
2068,64.0,0,385,4.0,56.0
2069,60.0,0,385,4.0,56.0
2070,72.0,120,435,1.0,56.0
2071,71.0,0,80,1.0,50.0
2072,72.0,80,80,1.0,49.0
2073,71.0,80,80,1.0,48.0
2074,72.0,80,60,1.0,47.0
2075,71.0,60,60,1.0,47.0
2076,55.0,0,860,5.0,56.0
2077,62.0,0,385,4.0,50.0
2078,65.0,480,385,4.0,50.0
2079,69.0,60,60,1.0,46.0
2080,71.0,60,60,1.0,45.0
2081,60.0,0,240,4.0,45.0
2082,72.0,60,360,1.0,45.0
2083,64.0,240,240,3.0,68.0
2084,67.0,240,240,3.0,68.0
2085,72.0,120,120,1.0,69.0
2086,74.0,120,120,1.0,69.0
2087,76.0,120,120,1.0,69.0
2088,64.0,0,240,3.0,69.0
2089,77.0,0,60,1.0,70.0
2090,79.0,60,60,1.0,70.0
2091,77.0,60,60,1.0,70.0
2092,60.0,120,240,4.0,70.0
2093,76.0,60,60,1.0,70.0
2094,77.0,60,120,1.0,71.0
2095,65.0,0,240,3.0,71.0
2096,79.0,120,120,1.0,71.0
2097,81.0,0,60,1.0,71.0
2098,83.0,60,60,1.0,72.0
2099,81.0,60,60,1.0,72.0
2100,79.0,60,60,1.0,72.0
2101,69.0,120,240,3.0,71.0
2102,81.0,60,120,1.0,72.0
2103,65.0,0,190,3.0,72.0
2104,83.0,120,95,1.0,73.0
2105,84.0,0,120,1.0,73.0
2106,60.0,120,240,4.0,73.0
2107,84.0,240,120,1.0,73.0
2108,64.0,0,240,3.0,74.0
2109,72.0,120,120,1.0,75.0
2110,67.0,240,240,3.0,74.0
2111,74.0,120,120,1.0,75.0
2112,76.0,120,120,1.0,76.0
2113,64.0,0,240,3.0,75.0
2114,77.0,120,60,1.0,76.0
2115,79.0,60,60,1.0,76.0
2116,77.0,60,60,1.0,76.0
2117,60.0,0,240,4.0,76.0
2118,76.0,60,60,1.0,77.0
2119,77.0,0,120,1.0,77.0
2120,79.0,120,120,1.0,77.0
2121,65.0,60,240,3.0,77.0
2122,81.0,120,60,1.0,78.0
2123,83.0,60,60,1.0,78.0
2124,81.0,60,60,1.0,78.0
2125,69.0,0,240,3.0,78.0
2126,79.0,60,60,1.0,78.0
2127,81.0,60,120,1.0,78.0
2128,65.0,0,190,3.0,78.0
2129,83.0,120,95,1.0,79.0
2130,84.0,0,120,1.0,79.0
2131,84.0,240,120,1.0,76.0
2132,60.0,120,385,5.0,79.0
2133,64.0,0,385,4.0,79.0
2134,67.0,0,385,4.0,79.0
2135,79.0,120,120,1.0,48.0
2136,83.0,120,120,1.0,48.0
2137,65.0,0,385,5.0,52.0
2138,79.0,120,120,1.0,49.0
2139,84.0,120,120,1.0,49.0
2140,84.0,240,120,1.0,47.0
2141,67.0,240,860,4.0,52.0
2142,64.0,0,385,5.0,49.0
2143,79.0,120,120,1.0,52.0
2144,83.0,120,120,1.0,53.0
2145,65.0,240,385,5.0,52.0
2146,79.0,120,120,1.0,53.0
2147,84.0,0,120,1.0,54.0
2148,84.0,240,120,1.0,52.0
2149,64.0,120,385,5.0,54.0
2150,67.0,0,870,4.0,52.0
2151,65.0,240,120,5.0,59.0
2152,67.0,0,120,4.0,59.0
2153,79.0,120,120,2.0,62.0
2154,83.0,0,120,1.0,66.0
2155,65.0,0,120,5.0,66.0
2156,67.0,120,120,4.0,66.0
2157,79.0,120,120,2.0,69.0
2158,64.0,120,120,5.0,72.0
2159,67.0,0,120,4.0,72.0
2160,84.0,0,120,1.0,72.0
2161,79.0,120,120,2.0,75.0
2162,67.0,120,120,4.0,79.0
2163,84.0,0,120,1.0,79.0
2164,64.0,0,120,5.0,79.0
2165,79.0,120,120,2.0,82.0
2166,86.0,0,120,1.0,85.0
2167,59.0,120,120,5.0,85.0
2168,67.0,0,120,4.0,85.0
2169,79.0,120,120,2.0,88.0
2170,67.0,120,120,4.0,91.0
2171,86.0,0,120,1.0,91.0
2172,59.0,0,120,5.0,91.0
2173,79.0,120,120,2.0,95.0
2174,88.0,120,120,1.0,98.0
2175,84.0,120,120,2.0,94.0
2176,88.0,120,120,1.0,93.0
2177,60.0,0,385,5.0,98.0
2178,67.0,0,385,4.0,98.0
2179,84.0,120,120,2.0,92.0
2180,79.0,120,120,1.0,90.0
2181,84.0,120,120,2.0,89.0
2182,79.0,120,120,1.0,88.0
2183,84.0,120,120,2.0,86.0
2184,76.0,120,120,1.0,85.0
2185,79.0,120,120,2.0,84.0
2186,76.0,120,120,1.0,82.0
2187,79.0,120,120,2.0,81.0
2188,72.0,120,120,1.0,80.0
2189,76.0,120,120,2.0,78.0
2190,72.0,120,120,1.0,77.0
2191,76.0,120,95,2.0,76.0
2192,69.0,120,240,1.0,75.0
2193,81.0,240,190,1.0,72.0
2194,79.0,0,120,1.0,69.0
2195,77.0,120,120,1.0,68.0
2196,76.0,120,120,1.0,67.0
2197,62.0,0,385,4.0,69.0
2198,57.0,0,385,4.0,69.0
2199,53.0,240,385,5.0,69.0
2200,74.0,120,95,1.0,65.0
2201,64.0,120,385,4.0,64.0
2202,60.0,0,385,4.0,64.0
2203,72.0,0,435,1.0,64.0
2204,71.0,0,80,1.0,59.0
2205,72.0,80,80,1.0,58.0
2206,71.0,80,80,1.0,57.0
2207,72.0,80,60,1.0,56.0
2208,71.0,60,60,1.0,56.0
2209,55.0,0,860,5.0,64.0
2210,65.0,480,385,4.0,59.0
2211,62.0,0,385,4.0,59.0
2212,69.0,60,60,1.0,55.0
2213,71.0,60,60,1.0,54.0
2214,60.0,0,385,5.0,72.0
2215,72.0,60,385,1.0,72.0
2216,55.0,0,95,5.0,76.0
2217,67.0,360,95,1.0,76.0
2218,76.0,120,385,1.0,78.0
2219,64.0,0,385,5.0,78.0
2220,72.0,360,95,1.0,82.0
2221,60.0,0,95,5.0,82.0
2222,67.0,0,240,5.0,84.0
2223,79.0,120,240,1.0,84.0
2224,86.0,480,120,1.0,70.0
2225,84.0,120,120,1.0,69.0
2226,83.0,120,120,1.0,68.0
2227,81.0,120,95,1.0,67.0
2228,79.0,0,240,1.0,66.0
2229,60.0,0,385,4.0,66.0
2230,64.0,0,385,4.0,66.0
2231,55.0,120,385,5.0,66.0
2232,81.0,480,120,1.0,62.0
2233,79.0,120,120,1.0,61.0
2234,77.0,120,120,1.0,59.0
2235,76.0,120,95,1.0,58.0
2236,74.0,0,240,1.0,57.0
2237,59.0,0,385,4.0,57.0
2238,65.0,0,385,4.0,57.0
2239,55.0,120,385,5.0,57.0
2240,79.0,480,120,1.0,53.0
2241,77.0,120,120,1.0,52.0
2242,76.0,120,120,1.0,51.0
2243,74.0,120,95,1.0,50.0
2244,72.0,120,120,1.0,78.0
2245,60.0,0,120,5.0,78.0
2246,67.0,120,120,1.0,80.0
2247,55.0,0,120,5.0,80.0
2248,72.0,0,120,1.0,82.0
2249,60.0,120,120,5.0,82.0
2250,67.0,120,120,1.0,83.0
2251,55.0,0,120,5.0,83.0
2252,76.0,0,120,1.0,85.0
2253,64.0,120,120,5.0,85.0
2254,72.0,120,120,1.0,87.0
2255,60.0,0,120,5.0,87.0
2256,64.0,0,120,5.0,89.0
2257,76.0,120,120,1.0,89.0
2258,60.0,120,95,5.0,91.0
2259,72.0,0,95,1.0,91.0
2260,67.0,120,240,5.0,93.0
2261,79.0,0,240,1.0,93.0
2262,86.0,480,120,1.0,81.0
2263,84.0,120,120,1.0,79.0
2264,83.0,120,120,1.0,78.0
2265,81.0,120,95,1.0,76.0
2266,79.0,0,120,1.0,74.0
2267,79.0,240,120,1.0,70.0
2268,60.0,0,385,4.0,74.0
2269,64.0,0,385,4.0,74.0
2270,55.0,120,385,5.0,74.0
2271,81.0,240,120,1.0,67.0
2272,79.0,120,120,1.0,65.0
2273,77.0,120,120,1.0,63.0
2274,76.0,120,95,1.0,61.0
2275,74.0,0,120,1.0,60.0
2276,74.0,240,120,1.0,56.0
2277,55.0,0,385,5.0,60.0
2278,59.0,120,385,4.0,60.0
2279,65.0,0,385,4.0,60.0
2280,79.0,240,120,1.0,52.0
2281,77.0,120,120,1.0,51.0
2282,76.0,120,120,1.0,49.0
2283,74.0,120,95,1.0,47.0
2284,64.0,0,240,4.0,47.0
2285,72.0,120,385,1.0,47.0
2286,60.0,240,240,3.0,47.0
2287,64.0,240,240,4.0,46.0
2288,80.0,0,240,1.0,41.0
2289,60.0,240,240,3.0,46.0
2290,81.0,0,240,1.0,42.0
2291,65.0,240,240,4.0,45.0
2292,60.0,0,240,3.0,45.0
2293,83.0,240,240,1.0,43.0
2294,84.0,240,240,1.0,45.0
2295,67.0,0,240,4.0,44.0
2296,76.0,240,185,1.0,46.0
2297,60.0,0,190,3.0,44.0
2298,69.0,240,240,4.0,43.0
2299,79.0,0,240,1.0,48.0
2300,77.0,0,190,1.0,43.0
2301,60.0,240,240,3.0,43.0
2302,70.0,240,240,4.0,42.0
2303,76.0,240,240,1.0,37.0
2304,60.0,0,240,3.0,42.0
2305,77.0,240,240,1.0,38.0
2306,69.0,0,240,4.0,41.0
2307,79.0,240,240,1.0,40.0
2308,60.0,0,240,3.0,41.0
2309,81.0,240,240,1.0,42.0
2310,67.0,0,240,4.0,40.0
2311,60.0,240,190,3.0,40.0
2312,73.0,0,190,1.0,43.0
2313,76.0,240,240,1.0,45.0
2314,65.0,0,240,4.0,39.0
2315,74.0,240,190,1.0,39.0
2316,60.0,0,240,3.0,39.0
2317,64.0,240,240,4.0,38.0
2318,60.0,0,240,3.0,38.0
2319,73.0,240,240,1.0,34.0
2320,65.0,240,240,4.0,37.0
2321,74.0,0,240,1.0,35.0
2322,60.0,0,240,3.0,37.0
2323,76.0,240,240,1.0,36.0
2324,77.0,0,240,1.0,37.0
2325,62.0,240,240,3.0,36.0
2326,60.0,240,190,3.0,36.0
2327,71.0,0,190,1.0,38.0
2328,74.0,0,240,1.0,39.0
2329,64.0,240,240,4.0,35.0
2330,60.0,0,240,3.0,37.0
2331,72.0,240,240,1.0,37.0
2332,65.0,240,240,4.0,42.0
2333,81.0,0,240,1.0,42.0
2334,71.0,0,190,1.0,37.0
2335,60.0,240,240,3.0,37.0
2336,74.0,240,240,1.0,32.0
2337,64.0,0,240,4.0,32.0
2338,72.0,240,240,1.0,36.0
2339,60.0,0,240,3.0,36.0
2340,81.0,0,240,1.0,38.0
2341,65.0,240,240,4.0,38.0
2342,71.0,240,190,1.0,33.0
2343,60.0,0,190,3.0,33.0
2344,64.0,240,240,4.0,29.0
2345,74.0,0,120,1.0,35.0
2346,72.0,120,95,1.0,31.0
2347,60.0,240,240,3.0,35.0
2348,65.0,120,240,4.0,30.0
2349,80.0,0,120,1.0,36.0
2350,71.0,120,95,1.0,30.0
2351,60.0,240,240,3.0,36.0
2352,64.0,120,240,4.0,29.0
2353,74.0,0,120,1.0,33.0
2354,72.0,120,95,1.0,29.0
2355,60.0,240,240,3.0,33.0
2356,65.0,120,240,4.0,28.0
2357,80.0,240,120,1.0,35.0
2358,60.0,0,190,3.0,35.0
2359,71.0,120,95,1.0,28.0
2360,65.0,0,960,2.0,37.0
2361,67.0,0,0,2.0,26.0
2362,74.0,0,960,1.0,37.0
2363,71.0,0,960,2.0,37.0
2364,72.0,0,480,1.0,26.0
2365,48.0,0,1440,5.0,37.0
2366,64.0,960,480,2.0,26.0
2367,60.0,120,1440,4.0,37.0
2368,72.0,1680,190,1.0,45.0
2369,72.0,240,190,1.0,47.0
2370,72.0,240,190,1.0,50.0
2371,72.0,240,120,1.0,53.0
2372,74.0,120,40,1.0,52.0
2373,72.0,40,40,1.0,51.0
2374,71.0,40,40,1.0,51.0
2375,72.0,40,120,1.0,51.0
2376,77.0,120,120,1.0,50.0
2377,72.0,120,190,1.0,48.0
2378,57.0,0,900,4.0,53.0
2379,60.0,0,900,4.0,53.0
2380,53.0,0,900,5.0,53.0
2381,69.0,240,240,1.0,46.0
2382,72.0,240,240,1.0,44.0
2383,55.0,0,425,4.0,44.0
2384,48.0,0,425,5.0,44.0
2385,58.0,0,425,4.0,44.0
2386,64.0,240,190,1.0,41.0
2387,58.0,0,480,4.0,42.0
2388,67.0,0,480,1.0,40.0
2389,50.0,240,665,5.0,42.0
2390,57.0,480,190,4.0,35.0
2391,65.0,0,190,1.0,32.0
2392,45.0,0,240,5.0,53.0
2393,57.0,0,240,5.0,53.0
2394,65.0,240,240,1.0,53.0
2395,60.0,0,480,2.0,53.0
2396,64.0,0,240,2.0,56.0
2397,67.0,0,240,1.0,56.0
2398,43.0,240,240,5.0,56.0
2399,55.0,0,240,5.0,56.0
2400,65.0,0,190,2.0,61.0
2401,69.0,0,190,1.0,61.0
2402,53.0,0,190,5.0,61.0
2403,41.0,0,190,5.0,61.0
2404,60.0,240,190,2.0,61.0
2405,50.0,240,240,5.0,67.0
2406,62.0,0,240,5.0,67.0
2407,70.0,0,360,1.0,67.0
2408,72.0,120,60,1.0,57.0
2409,74.0,60,60,1.0,54.0
2410,46.0,0,240,5.0,60.0
2411,58.0,240,240,5.0,60.0
2412,65.0,0,665,2.0,67.0
2413,45.0,0,190,5.0,53.0
2414,57.0,0,190,5.0,53.0
2415,72.0,60,190,1.0,51.0
2416,65.0,240,240,1.0,42.0
2417,64.0,0,240,1.0,45.0
2418,65.0,240,180,1.0,48.0
2419,59.0,0,420,2.0,45.0
2420,50.0,240,420,5.0,45.0
2421,65.0,240,480,2.0,52.0
2422,69.0,0,480,1.0,52.0
2423,64.0,480,190,2.0,42.0
2424,67.0,0,190,1.0,42.0
2425,48.0,0,900,5.0,52.0
2426,60.0,0,900,2.0,52.0
2427,67.0,240,190,1.0,54.0
2428,67.0,0,190,1.0,58.0
2429,60.0,240,410,5.0,58.0
2430,64.0,0,425,4.0,58.0
2431,67.0,240,190,1.0,62.0
2432,67.0,0,120,1.0,69.0
2433,79.0,60,305,1.0,73.0
2434,74.0,300,60,1.0,63.0
2435,71.0,60,60,1.0,62.0
2436,67.0,60,190,1.0,61.0
2437,65.0,240,900,4.0,69.0
2438,59.0,0,900,5.0,69.0
2439,62.0,0,905,4.0,69.0
2440,67.0,240,190,1.0,55.0
2441,67.0,240,190,1.0,61.0
2442,64.0,0,420,4.0,61.0
2443,60.0,0,425,5.0,61.0
2444,67.0,240,190,1.0,66.0
2445,67.0,0,120,1.0,71.0
2446,50.0,240,420,5.0,71.0
2447,53.0,0,425,4.0,71.0
2448,59.0,0,425,4.0,71.0
2449,79.0,60,545,1.0,72.0
2450,81.0,120,60,1.0,59.0
2451,83.0,60,60,1.0,58.0
2452,84.0,60,60,1.0,57.0
2453,52.0,420,360,5.0,54.0
2454,55.0,0,360,4.0,54.0
2455,60.0,0,360,4.0,54.0
2456,83.0,120,60,1.0,55.0
2457,81.0,120,60,1.0,53.0
2458,79.0,120,60,1.0,51.0
2459,77.0,120,60,1.0,49.0
2460,76.0,120,60,1.0,47.0
2461,73.0,120,120,1.0,46.0
2462,74.0,120,120,1.0,48.0
2463,77.0,0,120,1.0,49.0
2464,62.0,0,190,4.0,49.0
2465,53.0,0,190,5.0,49.0
2466,57.0,120,190,4.0,49.0
2467,81.0,120,95,1.0,51.0
2468,64.0,0,480,4.0,52.0
2469,60.0,0,480,4.0,52.0
2470,72.0,0,720,1.0,52.0
2471,76.0,0,120,1.0,46.0
2472,65.0,0,420,4.0,49.0
2473,62.0,480,420,4.0,49.0
2474,55.0,120,900,5.0,52.0
2475,71.0,240,190,2.0,46.0
2476,74.0,120,95,1.0,45.0
2477,64.0,0,385,4.0,44.0
2478,72.0,0,385,1.0,44.0
2479,60.0,120,385,5.0,44.0
2480,48.0,480,144,5.0,36.0
2481,72.0,240,240,1.0,42.0
2482,74.0,240,120,1.0,44.0
2483,72.0,120,95,1.0,46.0
2484,70.0,120,120,1.0,47.0
2485,69.0,120,95,1.0,49.0
2486,67.0,0,480,1.0,50.0
2487,63.0,0,660,4.0,50.0
2488,60.0,120,660,5.0,50.0
2489,66.0,480,190,1.0,39.0
2490,60.0,0,240,5.0,40.0
2491,63.0,240,240,4.0,40.0
2492,66.0,0,240,1.0,40.0
2493,62.0,0,240,4.0,44.0
2494,67.0,0,240,1.0,44.0
2495,58.0,240,240,5.0,44.0
2496,66.0,0,190,2.0,48.0
2497,62.0,0,190,2.0,48.0
2498,60.0,240,190,4.0,48.0
2499,57.0,0,190,5.0,48.0
2500,69.0,0,190,1.0,48.0
2501,66.0,0,480,2.0,52.0
2502,60.0,0,480,4.0,52.0
2503,69.0,0,480,1.0,52.0
2504,55.0,0,660,5.0,52.0
2505,62.0,240,667,2.0,52.0
2506,70.0,480,190,1.0,37.0
2507,58.0,0,190,4.0,37.0
2508,67.0,0,190,2.0,37.0
2509,61.0,0,240,2.0,40.0
2510,58.0,240,240,5.0,40.0
2511,64.0,0,240,1.0,40.0
2512,57.0,0,240,5.0,44.0
2513,65.0,240,240,1.0,44.0
2514,60.0,0,0,2.0,49.0
2515,58.0,0,240,4.0,49.0
2516,55.0,240,240,5.0,49.0
2517,60.0,0,0,2.0,53.0
2518,67.0,0,240,1.0,49.0
2519,64.0,0,240,2.0,49.0
2520,57.0,0,240,4.0,53.0
2521,69.0,240,240,1.0,53.0
2522,53.0,0,240,5.0,53.0
2523,70.0,240,240,1.0,57.0
2524,50.0,0,240,5.0,57.0
2525,72.0,0,240,1.0,62.0
2526,45.0,240,480,5.0,62.0
2527,73.0,240,240,1.0,66.0
2528,76.0,0,120,1.0,72.0
2529,46.0,240,240,5.0,72.0
2530,74.0,120,120,1.0,69.0
2531,65.0,0,1205,2.0,53.0
2532,72.0,0,120,1.0,65.0
2533,43.0,0,200,5.0,65.0
2534,67.0,120,210,2.0,65.0
2535,70.0,120,95,1.0,62.0
2536,65.0,0,480,2.0,58.0
2537,69.0,120,480,1.0,58.0
2538,64.0,480,190,2.0,45.0
2539,67.0,0,190,1.0,45.0
2540,48.0,0,680,5.0,58.0
2541,72.0,240,190,1.0,59.0
2542,72.0,240,190,1.0,63.0
2543,72.0,240,190,1.0,68.0
2544,48.0,0,290,5.0,79.0
2545,36.0,0,290,5.0,79.0
2546,38.0,0,95,5.0,76.0
2547,50.0,360,95,5.0,76.0
2548,40.0,120,190,5.0,74.0
2549,52.0,0,190,5.0,74.0
2550,82.0,240,720,1.0,81.0
2551,41.0,0,190,5.0,72.0
2552,53.0,0,190,5.0,72.0
2553,72.0,0,960,2.0,81.0
2554,81.0,240,240,1.0,72.0
2555,43.0,0,190,5.0,69.0
2556,55.0,240,190,5.0,69.0
2557,79.0,0,240,1.0,70.0
2558,70.0,0,240,2.0,70.0
2559,69.0,0,190,2.0,67.0
2560,57.0,0,190,5.0,67.0
2561,45.0,0,190,5.0,67.0
2562,77.0,240,190,1.0,67.0
2563,77.0,0,480,1.0,64.0
2564,58.0,0,665,5.0,64.0
2565,72.0,240,665,2.0,64.0
2566,67.0,0,665,2.0,64.0
2567,46.0,0,665,5.0,64.0
2568,76.0,480,190,1.0,47.0
2569,75.0,240,190,1.0,47.0
2570,75.0,240,190,1.0,50.0
2571,75.0,240,190,1.0,53.0
2572,75.0,240,60,1.0,55.0
2573,77.0,40,60,1.0,55.0
2574,75.0,40,60,1.0,55.0
2575,77.0,40,60,1.0,54.0
2576,75.0,40,60,1.0,54.0
2577,77.0,40,60,1.0,54.0
2578,75.0,40,60,1.0,53.0
2579,77.0,40,60,1.0,53.0
2580,75.0,40,60,1.0,53.0
2581,74.0,40,60,1.0,53.0
2582,57.0,0,430,5.0,55.0
2583,65.0,0,430,4.0,55.0
2584,60.0,0,430,4.0,55.0
2585,75.0,40,60,1.0,52.0
2586,77.0,40,60,1.0,52.0
2587,79.0,40,240,1.0,52.0
2588,77.0,240,120,1.0,50.0
2589,60.0,0,430,4.0,52.0
2590,65.0,0,430,4.0,52.0
2591,57.0,0,430,5.0,52.0
2592,75.0,120,95,1.0,49.0
2593,75.0,0,120,1.0,48.0
2594,74.0,120,95,1.0,47.0
2595,74.0,120,120,1.0,47.0
2596,65.0,0,430,4.0,48.0
2597,63.0,0,430,4.0,48.0
2598,57.0,120,430,5.0,48.0
2599,73.0,120,95,1.0,46.0
2600,73.0,0,480,1.0,49.0
2601,74.0,480,190,1.0,39.0
2602,77.0,240,120,1.0,53.0
2603,62.0,0,840,4.0,49.0
2604,58.0,0,845,5.0,49.0
2605,65.0,120,845,4.0,49.0
2606,76.0,120,120,1.0,58.0
2607,79.0,120,120,1.0,70.0
2608,77.0,120,120,1.0,61.0
2609,76.0,120,120,1.0,58.0
2610,74.0,120,95,1.0,55.0
2611,74.0,0,480,1.0,53.0
2612,58.0,0,480,4.0,53.0
2613,62.0,120,480,4.0,53.0
2614,72.0,480,190,1.0,43.0
2615,53.0,0,900,5.0,53.0
2616,77.0,240,180,1.0,49.0
2617,60.0,0,420,4.0,43.0
2618,57.0,0,425,4.0,43.0
2619,72.0,180,60,1.0,54.0
2620,81.0,60,180,1.0,55.0
2621,77.0,180,60,1.0,60.0
2622,72.0,60,180,1.0,61.0
2623,69.0,180,60,1.0,66.0
2624,72.0,0,360,1.0,68.0
2625,71.0,360,120,1.0,61.0
2626,60.0,0,660,4.0,69.0
2627,55.0,60,665,4.0,69.0
2628,52.0,0,665,5.0,69.0
2629,70.0,120,190,1.0,56.0
2630,64.0,0,190,2.0,66.0
2631,67.0,0,190,1.0,66.0
2632,58.0,0,190,5.0,66.0
2633,46.0,240,190,5.0,66.0
2634,60.0,180,60,2.0,72.0
2635,65.0,0,190,2.0,74.0
2636,69.0,0,190,1.0,74.0
2637,57.0,0,190,5.0,74.0
2638,45.0,60,190,5.0,74.0
2639,60.0,180,60,2.0,80.0
2640,70.0,60,190,1.0,82.0
2641,67.0,0,190,2.0,82.0
2642,55.0,0,190,5.0,82.0
2643,43.0,0,190,5.0,82.0
2644,60.0,180,60,2.0,88.0
2645,72.0,0,80,1.0,90.0
2646,69.0,60,190,2.0,90.0
2647,53.0,0,190,5.0,90.0
2648,41.0,0,190,5.0,90.0
2649,74.0,120,80,1.0,82.0
2650,76.0,120,80,1.0,78.0
2651,77.0,120,80,1.0,74.0
2652,57.0,0,480,4.0,70.0
2653,60.0,120,720,2.0,70.0
2654,65.0,0,720,1.0,70.0
2655,69.0,240,120,1.0,61.0
2656,64.0,0,240,2.0,61.0
2657,67.0,120,120,1.0,60.0
2658,48.0,0,960,5.0,70.0
2659,58.0,480,480,4.0,60.0
2660,65.0,120,380,1.0,56.0
2661,57.0,0,385,4.0,56.0
2662,53.0,0,385,5.0,56.0
2663,41.0,480,144,5.0,45.0
2664,68.0,0,190,1.0,33.0
2665,60.0,240,190,2.0,33.0
2666,60.0,0,190,2.0,36.0
2667,68.0,240,190,1.0,36.0
2668,60.0,0,190,2.0,39.0
2669,68.0,240,190,1.0,39.0
2670,53.0,120,0,3.0,42.0
2671,53.0,120,0,3.0,42.0
2672,53.0,120,0,3.0,41.0
2673,53.0,120,0,3.0,41.0
2674,60.0,0,720,2.0,45.0
2675,53.0,120,0,3.0,40.0
2676,68.0,240,720,1.0,45.0
2677,58.0,0,240,2.0,41.0
2678,67.0,0,240,1.0,41.0
2679,53.0,120,120,3.0,40.0
2680,53.0,120,0,3.0,39.0
2681,61.0,120,240,2.0,39.0
2682,70.0,0,240,1.0,39.0
2683,53.0,120,0,3.0,38.0
2684,55.0,120,190,2.0,38.0
2685,64.0,0,190,1.0,38.0
2686,41.0,0,1415,5.0,43.0
2687,53.0,120,120,3.0,37.0
2688,53.0,120,0,3.0,36.0
2689,53.0,120,0,3.0,35.0
2690,56.0,120,720,2.0,37.0
2691,65.0,0,720,1.0,37.0
2692,53.0,0,0,3.0,34.0
2693,53.0,120,0,3.0,37.0
2694,68.0,120,190,2.0,36.0
2695,72.0,0,190,1.0,36.0
2696,53.0,0,120,3.0,40.0
2697,68.0,120,190,2.0,40.0
2698,72.0,0,190,1.0,40.0
2699,53.0,120,120,3.0,43.0
2700,53.0,0,120,3.0,45.0
2701,72.0,120,190,1.0,44.0
2702,68.0,0,190,2.0,44.0
2703,41.0,0,1410,5.0,37.0
2704,53.0,120,95,3.0,48.0
2705,52.0,120,0,3.0,52.0
2706,52.0,120,0,3.0,51.0
2707,52.0,120,0,3.0,50.0
2708,52.0,0,0,3.0,48.0
2709,72.0,120,720,1.0,51.0
2710,73.0,120,240,1.0,46.0
2711,52.0,0,0,3.0,47.0
2712,72.0,120,240,1.0,45.0
2713,52.0,120,0,3.0,45.0
2714,67.0,0,1385,2.0,51.0
2715,70.0,0,190,1.0,44.0
2716,40.0,0,1410,5.0,53.0
2717,52.0,120,95,3.0,44.0
2718,72.0,120,120,1.0,44.0
2719,53.0,120,0,3.0,42.0
2720,70.0,120,120,1.0,42.0
2721,67.0,0,240,2.0,44.0
2722,65.0,0,190,2.0,39.0
2723,68.0,0,190,1.0,39.0
2724,53.0,120,0,3.0,40.0
2725,41.0,0,860,5.0,44.0
2726,68.0,240,240,1.0,45.0
2727,70.0,240,240,1.0,49.0
2728,72.0,240,190,1.0,53.0
2729,75.0,240,240,1.0,59.0
2730,73.0,240,190,1.0,55.0
2731,53.0,240,0,5.0,53.0
2732,56.0,0,240,4.0,48.0
2733,61.0,0,240,4.0,48.0
2734,61.0,0,240,4.0,53.0
2735,56.0,0,240,4.0,53.0
2736,72.0,240,60,1.0,59.0
2737,73.0,60,150,1.0,60.0
2738,56.0,180,0,4.0,65.0
2739,61.0,0,0,4.0,65.0
2740,53.0,0,0,5.0,65.0
2741,72.0,0,60,1.0,66.0
2742,73.0,60,155,1.0,67.0
2743,53.0,180,0,5.0,71.0
2744,61.0,0,0,4.0,71.0
2745,56.0,0,0,4.0,71.0
2746,72.0,0,65,1.0,72.0
2747,73.0,60,155,1.0,74.0
2748,61.0,0,0,4.0,83.0
2749,73.0,180,120,1.0,83.0
2750,75.0,120,40,1.0,77.0
2751,73.0,40,40,1.0,76.0
2752,72.0,40,40,1.0,74.0
2753,73.0,40,120,1.0,73.0
2754,75.0,120,120,1.0,69.0
2755,55.0,0,840,5.0,83.0
2756,63.0,0,840,4.0,83.0
2757,58.0,0,845,4.0,83.0
2758,77.0,120,665,1.0,66.0
2759,75.0,720,120,1.0,54.0
2760,73.0,120,120,1.0,54.0
2761,72.0,0,120,1.0,54.0
2762,56.0,120,190,5.0,54.0
2763,75.0,120,120,1.0,53.0
2764,73.0,0,120,1.0,53.0
2765,49.0,0,190,5.0,53.0
2766,58.0,120,190,4.0,53.0
2767,70.0,120,95,1.0,52.0
2768,60.0,0,480,4.0,52.0
2769,68.0,0,720,1.0,52.0
2770,72.0,240,120,1.0,49.0
2771,61.0,480,480,4.0,50.0
2772,51.0,120,960,5.0,52.0
2773,70.0,120,120,1.0,48.0
2774,67.0,0,240,2.0,49.0
2775,60.0,0,385,4.0,45.0
2776,56.0,0,385,5.0,45.0
2777,68.0,120,385,1.0,45.0
2778,44.0,480,144,5.0,40.0
2779,68.0,0,190,1.0,33.0
2780,60.0,240,190,2.0,33.0
2781,68.0,0,190,1.0,36.0
2782,60.0,240,190,2.0,36.0
2783,68.0,240,190,1.0,39.0
2784,60.0,0,190,2.0,39.0
2785,53.0,120,0,3.0,42.0
2786,53.0,120,0,3.0,42.0
2787,53.0,120,0,3.0,41.0
2788,68.0,240,720,1.0,45.0
2789,53.0,0,0,3.0,40.0
2790,60.0,0,720,2.0,45.0
2791,53.0,120,0,3.0,40.0
2792,53.0,120,0,3.0,39.0
2793,67.0,120,240,1.0,41.0
2794,58.0,0,240,2.0,41.0
2795,70.0,0,240,1.0,39.0
2796,53.0,0,0,3.0,38.0
2797,61.0,0,240,2.0,39.0
2798,53.0,120,0,3.0,38.0
2799,64.0,120,190,1.0,38.0
2800,55.0,0,190,2.0,38.0
2801,41.0,0,1415,5.0,43.0
2802,53.0,120,120,3.0,37.0
2803,53.0,120,0,3.0,36.0
2804,53.0,120,0,3.0,35.0
2805,53.0,120,0,3.0,35.0
2806,56.0,0,720,2.0,37.0
2807,65.0,0,720,1.0,37.0
2808,53.0,120,0,3.0,37.0
2809,68.0,120,190,2.0,36.0
2810,72.0,0,190,1.0,36.0
2811,53.0,0,120,3.0,40.0
2812,72.0,0,190,1.0,40.0
2813,68.0,120,190,2.0,40.0
2814,53.0,0,0,3.0,45.0
2815,53.0,120,0,3.0,48.0
2816,68.0,0,190,2.0,44.0
2817,72.0,120,190,1.0,44.0
2818,41.0,120,1410,5.0,37.0
2819,52.0,120,120,3.0,52.0
2820,52.0,120,120,3.0,52.0
2821,52.0,120,120,3.0,51.0
2822,52.0,120,120,3.0,50.0
2823,72.0,0,720,1.0,51.0
2824,52.0,0,0,3.0,48.0
2825,52.0,120,0,3.0,48.0
2826,73.0,120,240,1.0,46.0
2827,52.0,120,0,3.0,47.0
2828,52.0,120,0,3.0,46.0
2829,72.0,0,240,1.0,45.0
2830,52.0,120,0,3.0,44.0
2831,67.0,120,1385,2.0,51.0
2832,70.0,120,190,1.0,44.0
2833,40.0,0,1410,5.0,53.0
2834,72.0,0,120,1.0,44.0
2835,70.0,0,120,1.0,42.0
2836,67.0,0,240,2.0,44.0
2837,53.0,0,0,3.0,42.0
2838,65.0,0,190,2.0,39.0
2839,68.0,120,190,1.0,39.0
2840,53.0,120,120,3.0,41.0
2841,53.0,120,360,3.0,40.0
2842,41.0,120,860,5.0,44.0
2843,68.0,240,240,1.0,45.0
2844,70.0,240,240,1.0,49.0
2845,72.0,240,190,1.0,53.0
2846,75.0,240,240,1.0,59.0
2847,73.0,0,190,1.0,55.0
2848,53.0,240,0,5.0,53.0
2849,61.0,240,240,4.0,48.0
2850,56.0,0,240,4.0,48.0
2851,61.0,240,0,4.0,59.0
2852,56.0,0,0,4.0,59.0
2853,72.0,0,60,1.0,59.0
2854,73.0,60,150,1.0,60.0
2855,56.0,180,0,4.0,65.0
2856,61.0,0,0,4.0,65.0
2857,53.0,0,0,5.0,65.0
2858,72.0,0,60,1.0,66.0
2859,73.0,60,155,1.0,67.0
2860,56.0,180,0,4.0,71.0
2861,61.0,0,0,4.0,71.0
2862,53.0,0,0,5.0,71.0
2863,72.0,0,65,1.0,72.0
2864,73.0,60,155,1.0,74.0
2865,73.0,0,120,1.0,83.0
2866,75.0,120,40,1.0,77.0
2867,73.0,40,40,1.0,76.0
2868,72.0,40,40,1.0,74.0
2869,73.0,40,120,1.0,73.0
2870,75.0,120,120,1.0,69.0
2871,55.0,0,840,5.0,83.0
2872,63.0,0,840,4.0,83.0
2873,61.0,0,845,4.0,83.0
2874,58.0,180,845,4.0,83.0
2875,77.0,120,665,1.0,66.0
2876,75.0,720,120,1.0,54.0
2877,73.0,120,120,1.0,54.0
2878,72.0,120,120,1.0,54.0
2879,56.0,0,190,5.0,54.0
2880,75.0,120,120,1.0,53.0
2881,73.0,0,120,1.0,53.0
2882,58.0,0,190,4.0,53.0
2883,49.0,120,190,5.0,53.0
2884,70.0,120,95,1.0,52.0
2885,60.0,120,480,4.0,52.0
2886,68.0,0,720,1.0,52.0
2887,72.0,0,120,1.0,49.0
2888,70.0,120,120,1.0,48.0
2889,51.0,0,960,5.0,52.0
2890,67.0,240,240,2.0,49.0
2891,61.0,480,480,4.0,50.0
2892,68.0,0,385,1.0,45.0
2893,56.0,120,385,5.0,45.0
2894,60.0,0,385,4.0,45.0
2895,44.0,480,144,5.0,40.0
2896,63.0,240,240,1.0,34.0
2897,68.0,240,240,1.0,36.0
2898,72.0,240,190,1.0,39.0
2899,56.0,240,240,5.0,36.0
2900,60.0,240,240,5.0,40.0
2901,75.0,240,720,1.0,42.0
2902,73.0,0,120,1.0,43.0
2903,72.0,120,120,1.0,45.0
2904,63.0,240,240,5.0,43.0
2905,70.0,120,190,1.0,46.0
2906,53.0,0,240,5.0,46.0
2907,68.0,240,190,1.0,48.0
2908,62.0,0,190,5.0,49.0
2909,51.0,240,240,5.0,40.0
2910,72.0,240,480,1.0,52.0
2911,70.0,0,190,1.0,42.0
2912,55.0,240,240,5.0,44.0
2913,52.0,0,240,5.0,47.0
2914,58.0,240,240,4.0,47.0
2915,60.0,0,240,1.0,46.0
2916,65.0,0,240,1.0,49.0
2917,53.0,240,410,5.0,50.0
2918,56.0,0,420,4.0,50.0
2919,68.0,240,190,1.0,53.0
2920,53.0,240,240,4.0,53.0
2921,72.0,240,720,1.0,57.0
2922,70.0,240,120,1.0,56.0
2923,68.0,120,120,1.0,57.0
2924,56.0,0,240,4.0,56.0
2925,67.0,120,190,1.0,59.0
2926,58.0,0,240,4.0,59.0
2927,59.0,240,185,4.0,62.0
2928,49.0,240,1145,5.0,50.0
2929,65.0,0,190,1.0,62.0
2930,68.0,0,480,1.0,64.0
2931,65.0,0,485,2.0,64.0
2932,48.0,240,660,5.0,64.0
2933,60.0,0,665,4.0,64.0
2934,64.0,0,190,2.0,48.0
2935,67.0,480,190,1.0,48.0
2936,72.0,240,240,1.0,45.0
2937,77.0,240,240,1.0,50.0
2938,44.0,0,190,5.0,54.0
2939,80.0,240,190,1.0,55.0
2940,79.0,0,240,1.0,60.0
2941,46.0,240,240,5.0,59.0
2942,77.0,240,190,1.0,54.0
2943,58.0,0,190,5.0,54.0
2944,59.0,240,240,5.0,58.0
2945,60.0,0,190,5.0,63.0
2946,72.0,240,190,1.0,63.0
2947,77.0,240,240,1.0,67.0
2948,48.0,240,190,5.0,71.0
2949,80.0,0,240,1.0,71.0
2950,49.0,0,240,5.0,75.0
2951,79.0,240,240,1.0,75.0
2952,77.0,240,190,1.0,68.0
2953,61.0,0,240,5.0,68.0
2954,63.0,240,190,5.0,71.0
2955,48.0,0,190,5.0,75.0
2956,60.0,240,190,5.0,75.0
2957,77.0,0,190,1.0,75.0
2958,75.0,0,190,2.0,75.0
2959,69.0,0,190,2.0,75.0
2960,72.0,0,190,2.0,75.0
2961,57.0,0,190,5.0,79.0
2962,45.0,240,190,5.0,79.0
2963,72.0,0,190,2.0,79.0
2964,77.0,0,190,1.0,79.0
2965,75.0,0,190,2.0,79.0
2966,69.0,0,190,2.0,79.0
2967,69.0,0,190,2.0,82.0
2968,77.0,0,190,1.0,82.0
2969,53.0,240,190,5.0,82.0
2970,41.0,0,190,5.0,82.0
2971,72.0,0,190,2.0,82.0
2972,75.0,0,190,2.0,82.0
2973,73.0,0,120,2.0,89.0
2974,77.0,0,120,1.0,89.0
2975,73.0,0,95,1.0,85.0
2976,70.0,120,95,2.0,85.0
2977,70.0,0,120,2.0,83.0
2978,73.0,120,120,1.0,83.0
2979,46.0,0,430,5.0,89.0
2980,58.0,240,430,5.0,89.0
2981,70.0,0,95,1.0,81.0
2982,67.0,120,95,2.0,81.0
2983,68.0,0,425,1.0,78.0
2984,48.0,0,430,5.0,78.0
2985,60.0,0,430,5.0,78.0
2986,65.0,120,430,2.0,78.0
2987,68.0,0,120,1.0,73.0
2988,67.0,120,120,1.0,71.0
2989,65.0,120,125,1.0,69.0
2990,58.0,0,430,5.0,73.0
2991,46.0,480,430,5.0,73.0
2992,64.0,0,430,2.0,73.0
2993,67.0,120,120,1.0,67.0
2994,65.0,0,430,1.0,65.0
2995,56.0,0,430,4.0,69.0
2996,53.0,120,430,5.0,69.0
2997,41.0,480,144,5.0,53.0
2998,63.0,240,240,1.0,34.0
2999,68.0,240,240,1.0,36.0
3000,72.0,240,190,1.0,39.0
3001,56.0,240,240,5.0,36.0
3002,60.0,240,240,5.0,40.0
3003,75.0,240,720,1.0,42.0
3004,73.0,0,120,1.0,43.0
3005,72.0,120,120,1.0,45.0
3006,63.0,240,240,5.0,43.0
3007,70.0,120,190,1.0,46.0
3008,53.0,0,240,5.0,46.0
3009,68.0,240,190,1.0,48.0
3010,62.0,0,190,5.0,49.0
3011,72.0,240,480,1.0,52.0
3012,51.0,240,240,5.0,40.0
3013,70.0,0,190,1.0,42.0
3014,55.0,240,240,5.0,44.0
3015,60.0,240,240,1.0,46.0
3016,52.0,0,240,5.0,47.0
3017,58.0,0,240,4.0,47.0
3018,65.0,240,240,1.0,49.0
3019,53.0,0,410,5.0,50.0
3020,56.0,0,420,4.0,50.0
3021,68.0,240,190,1.0,53.0
3022,72.0,240,720,1.0,57.0
3023,53.0,240,240,4.0,53.0
3024,70.0,240,120,1.0,56.0
3025,68.0,120,120,1.0,57.0
3026,56.0,0,240,4.0,56.0
3027,67.0,0,190,1.0,59.0
3028,58.0,120,240,4.0,59.0
3029,49.0,240,1145,5.0,50.0
3030,59.0,0,185,4.0,62.0
3031,65.0,240,190,1.0,62.0
3032,68.0,0,480,1.0,64.0
3033,65.0,0,485,2.0,64.0
3034,48.0,0,660,5.0,64.0
3035,60.0,240,665,4.0,64.0
3036,64.0,480,190,2.0,48.0
3037,67.0,0,190,1.0,48.0
3038,72.0,240,240,1.0,45.0
3039,77.0,240,240,1.0,50.0
3040,80.0,240,190,1.0,55.0
3041,44.0,0,190,5.0,54.0
3042,79.0,240,240,1.0,60.0
3043,46.0,0,240,5.0,59.0
3044,77.0,240,190,1.0,54.0
3045,58.0,0,190,5.0,54.0
3046,59.0,240,240,5.0,58.0
3047,72.0,0,190,1.0,63.0
3048,60.0,240,190,5.0,63.0
3049,77.0,240,240,1.0,67.0
3050,48.0,0,190,5.0,71.0
3051,80.0,240,240,1.0,71.0
3052,49.0,0,240,5.0,75.0
3053,79.0,240,240,1.0,75.0
3054,77.0,0,190,1.0,68.0
3055,61.0,240,240,5.0,68.0
3056,63.0,240,190,5.0,71.0
3057,60.0,0,190,5.0,75.0
3058,48.0,0,190,5.0,75.0
3059,72.0,0,190,2.0,75.0
3060,69.0,0,190,2.0,75.0
3061,75.0,240,190,2.0,75.0
3062,77.0,0,190,1.0,75.0
3063,77.0,0,190,1.0,79.0
3064,75.0,0,190,2.0,79.0
3065,72.0,240,190,2.0,79.0
3066,45.0,0,190,5.0,79.0
3067,57.0,0,190,5.0,79.0
3068,69.0,0,190,2.0,79.0
3069,53.0,0,190,5.0,82.0
3070,41.0,0,190,5.0,82.0
3071,75.0,0,190,2.0,82.0
3072,72.0,0,190,2.0,82.0
3073,69.0,0,190,2.0,82.0
3074,77.0,240,190,1.0,82.0
3075,73.0,0,120,2.0,89.0
3076,77.0,0,120,1.0,89.0
3077,70.0,120,95,2.0,85.0
3078,73.0,0,95,1.0,85.0
3079,70.0,120,120,2.0,83.0
3080,73.0,0,120,1.0,83.0
3081,58.0,0,430,5.0,89.0
3082,46.0,240,430,5.0,89.0
3083,67.0,0,95,2.0,81.0
3084,70.0,120,95,1.0,81.0
3085,68.0,120,425,1.0,78.0
3086,60.0,0,430,5.0,78.0
3087,48.0,0,430,5.0,78.0
3088,65.0,0,430,2.0,78.0
3089,68.0,0,120,1.0,73.0
3090,67.0,120,120,1.0,71.0
3091,65.0,120,125,1.0,69.0
3092,64.0,480,430,2.0,73.0
3093,58.0,0,430,5.0,73.0
3094,46.0,0,430,5.0,73.0
3095,67.0,120,120,1.0,67.0
3096,53.0,0,430,5.0,69.0
3097,65.0,120,430,1.0,65.0
3098,56.0,0,430,4.0,69.0
3099,41.0,480,144,5.0,53.0
3100,68.0,240,190,1.0,33.0
3101,60.0,0,190,2.0,33.0
3102,68.0,0,190,1.0,36.0
3103,60.0,240,190,2.0,36.0
3104,68.0,240,190,1.0,39.0
3105,60.0,0,190,2.0,39.0
3106,53.0,120,120,3.0,43.0
3107,53.0,120,120,3.0,42.0
3108,53.0,120,120,3.0,42.0
3109,53.0,120,120,3.0,41.0
3110,60.0,0,720,2.0,45.0
3111,68.0,240,720,1.0,45.0
3112,53.0,120,120,3.0,41.0
3113,53.0,120,0,3.0,40.0
3114,67.0,0,240,1.0,41.0
3115,58.0,120,240,2.0,41.0
3116,53.0,0,120,3.0,39.0
3117,53.0,120,120,3.0,39.0
3118,61.0,120,240,2.0,39.0
3119,70.0,0,240,1.0,39.0
3120,53.0,120,120,3.0,38.0
3121,64.0,0,190,1.0,38.0
3122,55.0,0,190,2.0,38.0
3123,53.0,120,95,3.0,38.0
3124,41.0,0,1415,5.0,43.0
3125,53.0,120,0,3.0,36.0
3126,53.0,120,0,3.0,35.0
3127,65.0,120,720,1.0,37.0
3128,56.0,0,720,2.0,37.0
3129,53.0,120,120,3.0,35.0
3130,53.0,0,120,3.0,34.0
3131,68.0,0,190,2.0,36.0
3132,72.0,120,190,1.0,36.0
3133,53.0,120,120,3.0,37.0
3134,53.0,120,120,3.0,40.0
3135,68.0,0,190,2.0,40.0
3136,72.0,0,190,1.0,40.0
3137,53.0,120,120,3.0,43.0
3138,53.0,0,120,3.0,45.0
3139,68.0,0,190,2.0,44.0
3140,72.0,120,190,1.0,44.0
3141,41.0,0,1410,5.0,37.0
3142,53.0,120,95,3.0,48.0
3143,53.0,120,0,3.0,52.0
3144,53.0,120,0,3.0,50.0
3145,53.0,120,0,3.0,49.0
3146,72.0,120,720,1.0,51.0
3147,68.0,0,720,2.0,51.0
3148,53.0,0,0,3.0,48.0
3149,53.0,120,0,3.0,48.0
3150,53.0,120,0,3.0,47.0
3151,70.0,0,240,1.0,46.0
3152,67.0,120,240,2.0,46.0
3153,53.0,120,0,3.0,46.0
3154,64.0,0,1190,2.0,51.0
3155,73.0,0,240,1.0,45.0
3156,53.0,0,0,3.0,45.0
3157,70.0,0,240,2.0,45.0
3158,58.0,120,190,2.0,44.0
3159,64.0,0,190,1.0,44.0
3160,60.0,0,190,2.0,44.0
3161,41.0,0,1410,5.0,53.0
3162,53.0,120,95,3.0,44.0
3163,53.0,0,360,3.0,44.0
3164,60.0,0,360,2.0,44.0
3165,56.0,0,360,2.0,44.0
3166,65.0,120,360,1.0,44.0
3167,72.0,720,190,1.0,45.0
3168,72.0,240,190,1.0,47.0
3169,72.0,240,190,1.0,50.0
3170,72.0,0,120,1.0,53.0
3171,74.0,120,40,1.0,52.0
3172,72.0,40,40,1.0,51.0
3173,71.0,40,40,1.0,51.0
3174,72.0,40,120,1.0,51.0
3175,77.0,120,120,1.0,50.0
3176,72.0,120,190,1.0,48.0
3177,60.0,0,900,4.0,53.0
3178,57.0,0,900,4.0,53.0
3179,53.0,240,900,5.0,53.0
3180,69.0,240,240,1.0,46.0
3181,72.0,0,240,1.0,44.0
3182,48.0,240,425,5.0,44.0
3183,58.0,0,425,4.0,44.0
3184,55.0,0,425,4.0,44.0
3185,64.0,240,190,1.0,41.0
3186,67.0,0,480,1.0,40.0
3187,58.0,0,480,4.0,42.0
3188,50.0,240,665,5.0,42.0
3189,57.0,480,190,4.0,35.0
3190,65.0,0,190,1.0,32.0
3191,57.0,240,240,5.0,53.0
3192,65.0,0,240,1.0,53.0
3193,45.0,0,240,5.0,53.0
3194,55.0,240,240,5.0,56.0
3195,64.0,0,240,2.0,56.0
3196,60.0,0,480,2.0,53.0
3197,67.0,0,240,1.0,56.0
3198,43.0,0,240,5.0,56.0
3199,41.0,0,190,5.0,61.0
3200,53.0,240,190,5.0,61.0
3201,69.0,0,190,1.0,61.0
3202,65.0,0,190,2.0,61.0
3203,60.0,0,190,2.0,61.0
3204,50.0,0,240,5.0,67.0
3205,62.0,0,240,5.0,67.0
3206,70.0,240,360,1.0,67.0
3207,72.0,120,60,1.0,57.0
3208,58.0,240,240,5.0,60.0
3209,46.0,0,240,5.0,60.0
3210,74.0,60,60,1.0,54.0
3211,65.0,0,665,2.0,67.0
3212,57.0,60,190,5.0,53.0
3213,72.0,0,190,1.0,51.0
3214,45.0,0,190,5.0,53.0
3215,65.0,240,240,1.0,42.0
3216,64.0,0,240,1.0,45.0
3217,65.0,240,180,1.0,48.0
3218,59.0,240,420,2.0,45.0
3219,50.0,0,420,5.0,45.0
3220,65.0,0,480,2.0,52.0
3221,69.0,0,480,1.0,52.0
3222,64.0,480,190,2.0,42.0
3223,67.0,0,190,1.0,42.0
3224,48.0,240,900,5.0,52.0
3225,60.0,0,900,2.0,52.0
3226,67.0,240,190,1.0,54.0
3227,67.0,0,190,1.0,58.0
3228,60.0,240,410,5.0,58.0
3229,64.0,0,425,4.0,58.0
3230,67.0,240,190,1.0,62.0
3231,67.0,0,120,1.0,69.0
3232,79.0,60,305,1.0,73.0
3233,74.0,300,60,1.0,63.0
3234,71.0,60,60,1.0,62.0
3235,67.0,60,190,1.0,61.0
3236,65.0,0,900,4.0,69.0
3237,59.0,240,900,5.0,69.0
3238,62.0,0,905,4.0,69.0
3239,67.0,240,190,1.0,55.0
3240,67.0,0,190,1.0,61.0
3241,64.0,240,420,4.0,61.0
3242,60.0,0,425,5.0,61.0
3243,67.0,240,190,1.0,66.0
3244,67.0,0,120,1.0,71.0
3245,50.0,0,420,5.0,71.0
3246,59.0,240,425,4.0,71.0
3247,53.0,0,425,4.0,71.0
3248,79.0,60,545,1.0,72.0
3249,81.0,120,60,1.0,59.0
3250,83.0,60,60,1.0,58.0
3251,84.0,60,60,1.0,57.0
3252,52.0,420,360,5.0,54.0
3253,55.0,0,360,4.0,54.0
3254,60.0,0,360,4.0,54.0
3255,83.0,120,60,1.0,55.0
3256,81.0,120,60,1.0,53.0
3257,79.0,120,60,1.0,51.0
3258,77.0,120,60,1.0,49.0
3259,76.0,120,60,1.0,47.0
3260,73.0,120,120,1.0,46.0
3261,74.0,120,120,1.0,48.0
3262,77.0,0,120,1.0,49.0
3263,57.0,0,190,4.0,49.0
3264,53.0,120,190,5.0,49.0
3265,62.0,0,190,4.0,49.0
3266,81.0,120,95,1.0,51.0
3267,60.0,0,480,4.0,52.0
3268,64.0,0,480,4.0,52.0
3269,72.0,0,720,1.0,52.0
3270,76.0,0,120,1.0,46.0
3271,62.0,0,420,4.0,49.0
3272,55.0,120,900,5.0,52.0
3273,65.0,480,420,4.0,49.0
3274,71.0,240,190,2.0,46.0
3275,74.0,120,95,1.0,45.0
3276,72.0,0,385,1.0,44.0
3277,60.0,0,385,5.0,44.0
3278,64.0,120,385,4.0,44.0
3279,48.0,480,144,5.0,36.0
3280,72.0,240,240,1.0,42.0
3281,74.0,240,120,1.0,44.0
3282,72.0,120,95,1.0,46.0
3283,70.0,120,120,1.0,47.0
3284,69.0,120,95,1.0,49.0
3285,67.0,0,480,1.0,50.0
3286,63.0,0,660,4.0,50.0
3287,60.0,120,660,5.0,50.0
3288,66.0,480,190,1.0,39.0
3289,60.0,0,240,5.0,40.0
3290,66.0,240,240,1.0,40.0
3291,63.0,0,240,4.0,40.0
3292,67.0,0,240,1.0,44.0
3293,58.0,0,240,5.0,44.0
3294,62.0,240,240,4.0,44.0
3295,57.0,0,190,5.0,48.0
3296,69.0,240,190,1.0,48.0
3297,66.0,0,190,2.0,48.0
3298,62.0,0,190,2.0,48.0
3299,60.0,0,190,4.0,48.0
3300,69.0,240,480,1.0,52.0
3301,60.0,0,480,4.0,52.0
3302,66.0,0,480,2.0,52.0
3303,55.0,0,660,5.0,52.0
3304,62.0,0,667,2.0,52.0
3305,58.0,480,190,4.0,37.0
3306,70.0,0,190,1.0,37.0
3307,67.0,0,190,2.0,37.0
3308,61.0,0,240,2.0,40.0
3309,64.0,240,240,1.0,40.0
3310,58.0,0,240,5.0,40.0
3311,57.0,0,240,5.0,44.0
3312,65.0,0,240,1.0,44.0
3313,60.0,240,0,2.0,49.0
3314,67.0,0,240,1.0,49.0
3315,55.0,0,240,5.0,49.0
3316,60.0,240,0,2.0,53.0
3317,64.0,0,240,2.0,49.0
3318,58.0,0,240,4.0,49.0
3319,53.0,0,240,5.0,53.0
3320,57.0,0,240,4.0,53.0
3321,69.0,0,240,1.0,53.0
3322,70.0,0,240,1.0,57.0
3323,50.0,240,240,5.0,57.0
3324,72.0,240,240,1.0,62.0
3325,73.0,240,240,1.0,66.0
3326,45.0,0,480,5.0,62.0
3327,76.0,240,120,1.0,72.0
3328,46.0,0,240,5.0,72.0
3329,74.0,120,120,1.0,69.0
3330,65.0,0,1205,2.0,53.0
3331,72.0,0,120,1.0,65.0
3332,43.0,120,200,5.0,65.0
3333,67.0,0,210,2.0,65.0
3334,70.0,120,95,1.0,62.0
3335,65.0,0,480,2.0,58.0
3336,69.0,120,480,1.0,58.0
3337,64.0,480,190,2.0,45.0
3338,67.0,0,190,1.0,45.0
3339,48.0,0,680,5.0,58.0
3340,72.0,240,190,1.0,59.0
3341,72.0,240,190,1.0,63.0
3342,72.0,240,190,1.0,68.0
3343,48.0,0,290,5.0,79.0
3344,36.0,0,290,5.0,79.0
3345,38.0,0,95,5.0,76.0
3346,50.0,360,95,5.0,76.0
3347,52.0,0,190,5.0,74.0
3348,40.0,120,190,5.0,74.0
3349,82.0,240,720,1.0,81.0
3350,53.0,0,190,5.0,72.0
3351,41.0,0,190,5.0,72.0
3352,81.0,240,240,1.0,72.0
3353,72.0,0,960,2.0,81.0
3354,55.0,0,190,5.0,69.0
3355,43.0,0,190,5.0,69.0
3356,79.0,0,240,1.0,70.0
3357,70.0,240,240,2.0,70.0
3358,69.0,240,190,2.0,67.0
3359,57.0,0,190,5.0,67.0
3360,77.0,0,190,1.0,67.0
3361,45.0,0,190,5.0,67.0
3362,77.0,0,480,1.0,64.0
3363,58.0,0,665,5.0,64.0
3364,72.0,240,665,2.0,64.0
3365,67.0,0,665,2.0,64.0
3366,46.0,0,665,5.0,64.0
3367,76.0,480,190,1.0,47.0
3368,75.0,240,190,1.0,47.0
3369,75.0,240,190,1.0,50.0
3370,75.0,240,190,1.0,53.0
3371,75.0,0,60,1.0,55.0
3372,77.0,40,60,1.0,55.0
3373,75.0,40,60,1.0,55.0
3374,77.0,40,60,1.0,54.0
3375,75.0,40,60,1.0,54.0
3376,77.0,40,60,1.0,54.0
3377,75.0,40,60,1.0,53.0
3378,77.0,40,60,1.0,53.0
3379,75.0,40,60,1.0,53.0
3380,74.0,40,60,1.0,53.0
3381,65.0,0,430,4.0,55.0
3382,57.0,240,430,5.0,55.0
3383,60.0,0,430,4.0,55.0
3384,75.0,40,60,1.0,52.0
3385,77.0,40,60,1.0,52.0
3386,79.0,40,240,1.0,52.0
3387,77.0,240,120,1.0,50.0
3388,57.0,0,430,5.0,52.0
3389,60.0,0,430,4.0,52.0
3390,65.0,0,430,4.0,52.0
3391,75.0,120,95,1.0,49.0
3392,75.0,0,120,1.0,48.0
3393,74.0,120,95,1.0,47.0
3394,74.0,120,120,1.0,47.0
3395,57.0,0,430,5.0,48.0
3396,63.0,0,430,4.0,48.0
3397,65.0,120,430,4.0,48.0
3398,73.0,120,95,1.0,46.0
3399,73.0,120,480,1.0,49.0
3400,74.0,480,190,1.0,39.0
3401,77.0,240,120,1.0,53.0
3402,62.0,0,840,4.0,49.0
3403,58.0,0,845,5.0,49.0
3404,65.0,0,845,4.0,49.0
3405,76.0,120,120,1.0,58.0
3406,79.0,120,120,1.0,70.0
3407,77.0,120,120,1.0,61.0
3408,76.0,120,120,1.0,58.0
3409,74.0,120,95,1.0,55.0
3410,62.0,0,480,4.0,53.0
3411,58.0,0,480,4.0,53.0
3412,74.0,0,480,1.0,53.0
3413,72.0,480,190,1.0,43.0
3414,60.0,0,420,4.0,43.0
3415,77.0,240,180,1.0,49.0
3416,53.0,120,900,5.0,53.0
3417,57.0,0,425,4.0,43.0
3418,72.0,180,60,1.0,54.0
3419,81.0,60,180,1.0,55.0
3420,77.0,180,60,1.0,60.0
3421,72.0,60,180,1.0,61.0
3422,69.0,180,60,1.0,66.0
3423,72.0,0,360,1.0,68.0
3424,71.0,360,120,1.0,61.0
3425,60.0,60,660,4.0,69.0
3426,52.0,0,665,5.0,69.0
3427,55.0,0,665,4.0,69.0
3428,70.0,120,190,1.0,56.0
3429,58.0,240,190,5.0,66.0
3430,67.0,0,190,1.0,66.0
3431,46.0,0,190,5.0,66.0
3432,64.0,0,190,2.0,66.0
3433,60.0,180,60,2.0,72.0
3434,65.0,60,190,2.0,74.0
3435,57.0,0,190,5.0,74.0
3436,69.0,0,190,1.0,74.0
3437,45.0,0,190,5.0,74.0
3438,60.0,180,60,2.0,80.0
3439,70.0,0,190,1.0,82.0
3440,43.0,60,190,5.0,82.0
3441,55.0,0,190,5.0,82.0
3442,67.0,0,190,2.0,82.0
3443,60.0,180,60,2.0,88.0
3444,72.0,60,80,1.0,90.0
3445,69.0,0,190,2.0,90.0
3446,41.0,0,190,5.0,90.0
3447,53.0,0,190,5.0,90.0
3448,74.0,120,80,1.0,82.0
3449,76.0,120,80,1.0,78.0
3450,77.0,120,80,1.0,74.0
3451,57.0,0,480,4.0,70.0
3452,60.0,0,720,2.0,70.0
3453,65.0,0,720,1.0,70.0
3454,69.0,0,120,1.0,61.0
3455,64.0,240,240,2.0,61.0
3456,67.0,120,120,1.0,60.0
3457,58.0,480,480,4.0,60.0
3458,48.0,120,960,5.0,70.0
3459,65.0,120,380,1.0,56.0
3460,57.0,0,385,4.0,56.0
3461,53.0,0,385,5.0,56.0
3462,41.0,480,144,5.0,45.0
3463,60.0,0,190,2.0,30.0
3464,69.0,240,190,1.0,30.0
3465,60.0,240,190,2.0,33.0
3466,69.0,0,190,1.0,33.0
3467,60.0,240,190,2.0,36.0
3468,69.0,0,190,1.0,36.0
3469,53.0,120,0,3.0,38.0
3470,53.0,120,0,3.0,38.0
3471,53.0,120,0,3.0,37.0
3472,69.0,0,720,1.0,40.0
3473,60.0,0,720,2.0,40.0
3474,53.0,0,120,3.0,36.0
3475,53.0,120,120,3.0,36.0
3476,65.0,0,240,1.0,36.0
3477,57.0,120,240,2.0,36.0
3478,53.0,120,0,3.0,41.0
3479,53.0,0,0,3.0,43.0
3480,70.0,0,240,1.0,39.0
3481,67.0,0,240,2.0,39.0
3482,53.0,120,0,3.0,45.0
3483,67.0,0,190,1.0,43.0
3484,64.0,120,190,2.0,43.0
3485,41.0,240,1417,5.0,39.0
3486,53.0,120,120,3.0,48.0
3487,53.0,120,120,3.0,48.0
3488,53.0,120,95,3.0,47.0
3489,41.0,0,465,5.0,49.0
3490,69.0,0,720,2.0,49.0
3491,50.0,120,120,3.0,47.0
3492,72.0,120,720,1.0,49.0
3493,50.0,120,0,3.0,50.0
3494,69.0,120,190,2.0,49.0
3495,77.0,0,190,1.0,49.0
3496,38.0,120,455,5.0,46.0
3497,77.0,120,190,1.0,52.0
3498,69.0,0,190,2.0,52.0
3499,47.0,120,0,3.0,54.0
3500,47.0,120,0,3.0,56.0
3501,69.0,0,190,2.0,54.0
3502,77.0,0,190,1.0,54.0
3503,35.0,0,460,5.0,52.0
3504,48.0,120,120,3.0,58.0
3505,48.0,120,120,3.0,56.0
3506,48.0,120,120,3.0,53.0
3507,48.0,120,120,3.0,51.0
3508,48.0,0,0,3.0,46.0
3509,65.0,0,720,2.0,60.0
3510,69.0,120,720,1.0,60.0
3511,48.0,120,0,3.0,44.0
3512,72.0,0,240,1.0,48.0
3513,69.0,120,240,2.0,48.0
3514,48.0,0,120,3.0,42.0
3515,67.0,120,240,2.0,44.0
3516,48.0,0,0,3.0,37.0
3517,70.0,0,240,1.0,44.0
3518,58.0,0,190,2.0,41.0
3519,67.0,120,190,1.0,41.0
3520,48.0,120,95,3.0,34.0
3521,36.0,0,1420,5.0,60.0
3522,41.0,0,480,5.0,32.0
3523,57.0,120,480,2.0,37.0
3524,65.0,0,480,1.0,37.0
3525,76.0,1440,360,1.0,42.0
3526,77.0,120,60,1.0,43.0
3527,48.0,240,240,5.0,43.0
3528,79.0,60,60,1.0,43.0
3529,72.0,0,155,1.0,43.0
3530,52.0,60,240,5.0,43.0
3531,74.0,0,155,1.0,44.0
3532,71.0,0,155,2.0,44.0
3533,55.0,240,155,5.0,44.0
3534,74.0,240,155,1.0,47.0
3535,60.0,0,155,5.0,44.0
3536,71.0,0,155,2.0,47.0
3537,77.0,240,120,1.0,44.0
3538,48.0,0,155,5.0,44.0
3539,72.0,0,155,2.0,44.0
3540,76.0,120,120,1.0,42.0
3541,55.0,0,155,5.0,42.0
3542,74.0,0,385,1.0,41.0
3543,71.0,120,385,2.0,41.0
3544,43.0,240,155,5.0,40.0
3545,76.0,240,360,1.0,46.0
3546,77.0,120,60,1.0,47.0
3547,48.0,240,240,5.0,47.0
3548,79.0,60,60,1.0,47.0
3549,72.0,60,155,1.0,47.0
3550,52.0,0,240,5.0,47.0
3551,55.0,0,155,5.0,47.0
3552,74.0,0,155,1.0,47.0
3553,71.0,240,155,2.0,47.0
3554,74.0,0,155,2.0,49.0
3555,77.0,240,155,1.0,49.0
3556,60.0,0,155,5.0,48.0
3557,76.0,0,25,1.0,47.0
3558,77.0,40,25,1.0,46.0
3559,76.0,40,25,1.0,46.0
3560,48.0,0,155,5.0,48.0
3561,72.0,240,155,2.0,47.0
3562,74.0,40,40,1.0,45.0
3563,76.0,60,40,1.0,44.0
3564,55.0,0,155,5.0,46.0
3565,74.0,0,385,1.0,43.0
3566,71.0,60,385,2.0,43.0
3567,43.0,240,155,5.0,44.0
3568,77.0,240,360,1.0,50.0
3569,57.0,0,360,5.0,50.0
3570,79.0,120,60,1.0,51.0
3571,60.0,240,240,2.0,51.0
3572,77.0,60,60,1.0,52.0
3573,76.0,60,155,1.0,52.0
3574,55.0,0,360,5.0,52.0
3575,76.0,240,155,1.0,53.0
3576,60.0,0,240,2.0,53.0
3577,53.0,0,360,5.0,54.0
3578,81.0,240,360,1.0,54.0
3579,83.0,120,60,1.0,56.0
3580,84.0,60,60,1.0,56.0
3581,60.0,240,240,2.0,55.0
3582,79.0,60,155,1.0,57.0
3583,52.0,0,360,5.0,57.0
3584,79.0,0,155,1.0,58.0
3585,60.0,240,190,2.0,58.0
3586,79.0,240,120,1.0,61.0
3587,77.0,120,95,1.0,60.0
3588,77.0,120,120,1.0,58.0
3589,59.0,0,190,5.0,54.0
3590,67.0,0,190,2.0,54.0
3591,74.0,120,95,1.0,57.0
3592,77.0,120,120,1.0,56.0
3593,76.0,120,95,1.0,54.0
3594,76.0,0,120,1.0,53.0
3595,67.0,0,190,2.0,51.0
3596,60.0,120,190,5.0,51.0
3597,72.0,120,95,1.0,52.0
3598,73.0,120,120,1.0,50.0
3599,74.0,120,120,1.0,49.0
3600,76.0,120,120,1.0,48.0
3601,55.0,0,385,5.0,51.0
3602,59.0,0,385,4.0,51.0
3603,74.0,120,120,1.0,46.0
3604,72.0,120,120,1.0,45.0
3605,71.0,120,120,1.0,43.0
3606,69.0,120,120,1.0,42.0
3607,67.0,120,95,1.0,40.0
3608,40.0,120,80,3.0,61.0
3609,36.0,120,240,5.0,60.0
3610,43.0,120,80,3.0,61.0
3611,76.0,0,360,1.0,64.0
3612,77.0,120,60,1.0,66.0
3613,48.0,0,80,3.0,62.0
3614,79.0,60,60,1.0,66.0
3615,40.0,0,120,5.0,63.0
3616,72.0,60,155,1.0,66.0
3617,52.0,120,80,3.0,63.0
3618,43.0,120,120,5.0,64.0
3619,71.0,0,155,2.0,68.0
3620,74.0,0,155,1.0,68.0
3621,55.0,120,80,3.0,65.0
3622,74.0,120,155,1.0,71.0
3623,71.0,0,155,2.0,71.0
3624,52.0,120,80,3.0,65.0
3625,48.0,0,240,5.0,65.0
3626,55.0,0,80,3.0,64.0
3627,77.0,120,120,1.0,68.0
3628,72.0,0,155,2.0,68.0
3629,60.0,120,80,3.0,63.0
3630,76.0,0,120,1.0,66.0
3631,47.0,120,80,3.0,62.0
3632,43.0,0,240,5.0,63.0
3633,50.0,120,80,3.0,61.0
3634,71.0,120,385,2.0,65.0
3635,74.0,0,385,1.0,65.0
3636,55.0,120,80,3.0,61.0
3637,40.0,120,80,3.0,59.0
3638,36.0,120,240,5.0,58.0
3639,43.0,120,80,3.0,60.0
3640,76.0,0,360,1.0,67.0
3641,77.0,0,60,1.0,68.0
3642,48.0,120,80,3.0,62.0
3643,79.0,60,60,1.0,69.0
3644,40.0,60,120,5.0,63.0
3645,72.0,0,155,1.0,69.0
3646,52.0,120,80,3.0,65.0
3647,43.0,0,120,5.0,66.0
3648,74.0,0,155,1.0,71.0
3649,71.0,120,155,2.0,71.0
3650,55.0,120,80,3.0,68.0
3651,77.0,0,155,1.0,73.0
3652,74.0,0,155,2.0,73.0
3653,52.0,120,80,3.0,69.0
3654,48.0,120,240,5.0,69.0
3655,76.0,0,25,1.0,70.0
3656,77.0,40,25,1.0,69.0
3657,55.0,120,80,3.0,68.0
3658,76.0,40,25,1.0,68.0
3659,72.0,0,155,2.0,70.0
3660,74.0,40,40,1.0,68.0
3661,60.0,0,80,3.0,68.0
3662,76.0,60,40,1.0,67.0
3663,47.0,120,80,3.0,67.0
3664,43.0,60,240,5.0,68.0
3665,50.0,120,80,3.0,67.0
3666,71.0,0,385,2.0,66.0
3667,74.0,0,385,1.0,66.0
3668,55.0,120,80,3.0,66.0
3669,57.0,120,180,5.0,64.0
3670,60.0,120,120,3.0,64.0
3671,77.0,0,360,1.0,70.0
3672,57.0,120,180,5.0,65.0
3673,79.0,120,60,1.0,69.0
3674,60.0,0,120,3.0,66.0
3675,77.0,60,60,1.0,70.0
3676,76.0,0,155,1.0,70.0
3677,55.0,60,180,5.0,67.0
3678,60.0,120,120,3.0,68.0
3679,76.0,0,155,1.0,71.0
3680,55.0,120,180,5.0,69.0
3681,60.0,120,120,3.0,69.0
3682,53.0,0,180,5.0,70.0
3683,60.0,120,120,3.0,71.0
3684,81.0,120,360,1.0,72.0
3685,53.0,120,180,5.0,72.0
3686,83.0,120,60,1.0,74.0
3687,84.0,60,60,1.0,74.0
3688,60.0,0,120,3.0,73.0
3689,79.0,0,155,1.0,75.0
3690,52.0,60,180,5.0,74.0
3691,60.0,120,120,3.0,75.0
3692,79.0,0,155,1.0,76.0
3693,52.0,120,180,5.0,75.0
3694,60.0,120,95,3.0,76.0
3695,80.0,120,120,1.0,79.0
3696,81.0,120,120,1.0,77.0
3697,77.0,0,120,1.0,76.0
3698,53.0,120,190,5.0,76.0
3699,62.0,0,190,4.0,76.0
3700,74.0,120,95,1.0,74.0
3701,72.0,0,240,1.0,73.0
3702,64.0,0,240,4.0,75.0
3703,71.0,240,190,1.0,70.0
3704,62.0,0,190,4.0,73.0
3705,55.0,120,435,5.0,75.0
3706,72.0,240,65,1.0,70.0
3707,67.0,80,65,1.0,70.0
3708,76.0,80,65,1.0,70.0
3709,72.0,80,65,1.0,69.0
3710,64.0,0,385,4.0,72.0
3711,60.0,0,385,5.0,72.0
3712,79.0,80,65,1.0,69.0
3713,76.0,80,65,1.0,69.0
3714,84.0,80,65,1.0,69.0
3715,83.0,80,65,1.0,68.0
3716,81.0,80,65,1.0,68.0
3717,79.0,80,65,1.0,68.0
3718,77.0,80,65,1.0,67.0
3719,76.0,80,65,1.0,67.0
3720,72.0,80,65,1.0,67.0
3721,74.0,80,65,1.0,67.0
3722,77.0,80,65,1.0,66.0
3723,81.0,0,65,1.0,66.0
3724,77.0,80,65,1.0,66.0
3725,62.0,0,190,4.0,66.0
3726,57.0,80,190,4.0,66.0
3727,53.0,0,190,5.0,66.0
3728,74.0,80,65,1.0,66.0
3729,79.0,0,65,1.0,65.0
3730,76.0,80,65,1.0,65.0
3731,72.0,80,65,1.0,65.0
3732,64.0,0,240,4.0,65.0
3733,60.0,0,240,4.0,65.0
3734,77.0,0,65,1.0,65.0
3735,74.0,80,65,1.0,64.0
3736,55.0,80,425,5.0,65.0
3737,62.0,0,190,4.0,65.0
3738,65.0,80,190,4.0,65.0
3739,71.0,80,65,1.0,64.0
3740,72.0,80,65,1.0,57.0
3741,67.0,80,65,1.0,57.0
3742,76.0,80,65,1.0,57.0
3743,72.0,80,65,1.0,57.0
3744,79.0,80,65,1.0,57.0
3745,60.0,0,385,5.0,57.0
3746,64.0,0,385,4.0,57.0
3747,76.0,80,65,1.0,56.0
3748,84.0,80,65,1.0,56.0
3749,83.0,80,65,1.0,56.0
3750,81.0,80,65,1.0,56.0
3751,79.0,80,65,1.0,55.0
3752,77.0,80,65,1.0,55.0
3753,76.0,80,65,1.0,55.0
3754,72.0,80,65,1.0,55.0
3755,74.0,80,65,1.0,54.0
3756,77.0,80,65,1.0,54.0
3757,81.0,0,65,1.0,54.0
3758,77.0,80,65,1.0,54.0
3759,53.0,80,190,5.0,54.0
3760,57.0,0,190,4.0,54.0
3761,62.0,0,190,4.0,54.0
3762,74.0,80,65,1.0,53.0
3763,79.0,0,65,1.0,53.0
3764,76.0,80,65,1.0,53.0
3765,72.0,80,65,1.0,53.0
3766,64.0,0,240,4.0,53.0
3767,60.0,0,240,4.0,53.0
3768,77.0,0,65,1.0,53.0
3769,74.0,80,65,1.0,52.0
3770,62.0,80,190,4.0,53.0
3771,65.0,0,190,4.0,53.0
3772,55.0,80,435,5.0,53.0
3773,71.0,80,65,1.0,52.0
3774,64.0,0,155,4.0,52.0
3775,60.0,80,155,5.0,52.0
3776,72.0,0,155,1.0,52.0
3777,55.0,240,155,5.0,47.0
3778,67.0,0,155,1.0,47.0
3779,60.0,0,190,1.0,41.0
3780,36.0,0,190,5.0,41.0
3781,48.0,240,190,5.0,41.0
3782,67.0,120,120,3.0,36.0
3783,66.0,120,120,3.0,37.0
3784,60.0,0,360,5.0,36.0
3785,67.0,120,120,3.0,37.0
3786,76.0,480,480,1.0,36.0
3787,77.0,0,60,1.0,38.0
3788,76.0,60,60,1.0,38.0
3789,60.0,120,180,5.0,38.0
3790,74.0,0,60,1.0,38.0
3791,76.0,60,60,1.0,38.0
3792,67.0,60,120,3.0,38.0
3793,79.0,0,120,1.0,39.0
3794,62.0,60,180,5.0,39.0
3795,77.0,120,120,1.0,39.0
3796,67.0,0,120,3.0,39.0
3797,76.0,0,120,1.0,40.0
3798,64.0,120,180,5.0,40.0
3799,74.0,120,120,1.0,40.0
3800,67.0,0,120,3.0,40.0
3801,72.0,120,120,1.0,41.0
3802,65.0,0,180,5.0,41.0
3803,67.0,0,120,3.0,41.0
3804,71.0,120,120,1.0,41.0
3805,72.0,0,155,1.0,41.0
3806,64.0,120,180,5.0,41.0
3807,67.0,120,120,3.0,42.0
3808,73.0,0,155,1.0,42.0
3809,58.0,120,180,5.0,42.0
3810,67.0,120,95,3.0,43.0
3811,74.0,120,155,1.0,44.0
3812,59.0,0,180,5.0,44.0
3813,67.0,120,120,3.0,45.0
3814,75.0,0,155,1.0,47.0
3815,59.0,120,180,5.0,46.0
3816,67.0,120,120,3.0,47.0
3817,76.0,120,155,1.0,50.0
3818,60.0,0,180,5.0,49.0
3819,67.0,120,120,3.0,50.0
3820,79.0,120,120,1.0,53.0
3821,62.0,0,180,5.0,51.0
3822,77.0,0,95,1.0,55.0
3823,67.0,120,120,3.0,52.0
3824,67.0,120,120,3.0,52.0
3825,76.0,0,360,1.0,59.0
3826,66.0,120,120,3.0,50.0
3827,60.0,120,360,5.0,54.0
3828,77.0,0,60,1.0,48.0
3829,67.0,120,120,3.0,47.0
3830,76.0,60,60,1.0,46.0
3831,67.0,120,120,3.0,43.0
3832,74.0,60,240,1.0,45.0
3833,66.0,120,120,3.0,41.0
3834,59.0,0,360,5.0,45.0
3835,67.0,120,95,3.0,39.0
3836,67.0,120,120,3.0,38.0
3837,59.0,0,360,5.0,38.0
3838,66.0,120,120,3.0,39.0
3839,77.0,120,480,1.0,38.0
3840,67.0,120,120,3.0,39.0
3841,79.0,120,60,1.0,40.0
3842,77.0,60,60,1.0,40.0
3843,76.0,0,60,1.0,41.0
3844,59.0,0,180,5.0,40.0
3845,67.0,60,120,3.0,41.0
3846,77.0,60,60,1.0,41.0
3847,81.0,0,120,1.0,41.0
3848,60.0,60,180,5.0,41.0
3849,67.0,120,120,3.0,42.0
3850,79.0,0,120,1.0,42.0
3851,77.0,120,120,1.0,42.0
3852,62.0,0,180,5.0,42.0
3853,67.0,120,120,3.0,43.0
3854,76.0,0,120,1.0,43.0
3855,74.0,0,120,1.0,44.0
3856,64.0,120,180,5.0,44.0
3857,67.0,0,120,3.0,44.0
3858,72.0,120,120,1.0,44.0
3859,71.0,0,80,1.0,45.0
3860,65.0,120,180,5.0,45.0
3861,72.0,120,80,1.0,45.0
3862,67.0,0,120,3.0,45.0
3863,74.0,0,80,1.0,46.0
3864,62.0,120,180,5.0,46.0
3865,76.0,0,80,1.0,47.0
3866,67.0,120,120,3.0,47.0
3867,77.0,0,80,1.0,46.0
3868,59.0,120,180,5.0,46.0
3869,79.0,120,80,1.0,48.0
3870,67.0,0,120,3.0,48.0
3871,81.0,0,80,1.0,51.0
3872,62.0,120,180,5.0,50.0
3873,83.0,120,80,1.0,53.0
3874,67.0,0,120,3.0,51.0
3875,84.0,120,80,1.0,56.0
3876,59.0,0,180,5.0,53.0
3877,86.0,0,80,1.0,58.0
3878,67.0,120,120,3.0,54.0
3879,88.0,120,80,1.0,61.0
3880,55.0,0,180,5.0,56.0
3881,89.0,0,80,1.0,63.0
3882,67.0,120,95,3.0,60.0
3883,67.0,120,120,3.0,60.0
3884,64.0,120,120,3.0,56.0
3885,60.0,0,360,5.0,63.0
3886,67.0,120,120,3.0,53.0
3887,87.0,120,480,1.0,66.0
3888,67.0,120,120,3.0,46.0
3889,88.0,0,240,1.0,50.0
3890,60.0,120,360,5.0,50.0
3891,64.0,120,120,3.0,43.0
3892,67.0,120,95,3.0,39.0
3893,60.0,120,105,5.0,71.0
3894,64.0,80,105,4.0,71.0
3895,67.0,80,105,4.0,71.0
3896,76.0,0,315,1.0,71.0
3897,81.0,80,80,1.0,70.0
3898,72.0,80,190,4.0,70.0
3899,84.0,80,80,1.0,70.0
3900,88.0,80,80,1.0,69.0
3901,84.0,80,80,1.0,69.0
3902,81.0,80,80,1.0,69.0
3903,84.0,80,80,1.0,68.0
3904,81.0,80,80,1.0,68.0
3905,76.0,80,65,1.0,68.0
3906,59.0,0,105,5.0,67.0
3907,62.0,80,105,4.0,67.0
3908,67.0,80,105,4.0,67.0
3909,74.0,80,320,1.0,67.0
3910,79.0,80,80,1.0,66.0
3911,71.0,80,190,4.0,67.0
3912,83.0,80,80,1.0,66.0
3913,86.0,80,80,1.0,66.0
3914,83.0,80,80,1.0,65.0
3915,79.0,80,80,1.0,65.0
3916,83.0,80,80,1.0,65.0
3917,79.0,80,80,1.0,64.0
3918,74.0,80,65,1.0,64.0
3919,74.0,80,80,1.0,63.0
3920,54.0,0,190,5.0,64.0
3921,57.0,0,190,4.0,64.0
3922,62.0,80,190,4.0,64.0
3923,81.0,80,80,1.0,63.0
3924,84.0,80,80,1.0,63.0
3925,81.0,80,80,1.0,62.0
3926,74.0,80,80,1.0,62.0
3927,74.0,80,80,1.0,61.0
3928,62.0,80,190,4.0,62.0
3929,55.0,0,190,5.0,62.0
3930,59.0,0,190,4.0,62.0
3931,79.0,80,80,1.0,61.0
3932,83.0,80,80,1.0,61.0
3933,79.0,80,80,1.0,60.0
3934,74.0,80,65,1.0,60.0
3935,81.0,0,195,1.0,61.0
3936,62.0,120,120,5.0,57.0
3937,50.0,80,240,5.0,61.0
3938,78.0,60,60,1.0,56.0
3939,61.0,0,120,5.0,54.0
3940,74.0,60,180,1.0,54.0
3941,62.0,120,120,5.0,51.0
3942,61.0,120,120,5.0,48.0
3943,62.0,120,120,5.0,44.0
3944,60.0,120,120,5.0,41.0
3945,62.0,120,95,5.0,38.0
3946,67.0,0,120,1.0,38.0
3947,59.0,120,180,5.0,38.0
3948,62.0,120,120,3.0,39.0
3949,55.0,120,180,5.0,39.0
3950,62.0,120,120,3.0,40.0
3951,79.0,0,480,1.0,45.0
3952,59.0,120,180,5.0,41.0
3953,78.0,120,120,1.0,41.0
3954,62.0,0,120,3.0,41.0
3955,76.0,120,120,1.0,42.0
3956,55.0,0,180,5.0,42.0
3957,74.0,120,95,1.0,43.0
3958,62.0,0,120,3.0,43.0
3959,74.0,0,120,1.0,43.0
3960,57.0,120,180,5.0,43.0
3961,72.0,120,120,1.0,44.0
3962,62.0,0,120,3.0,44.0
3963,71.0,120,120,1.0,45.0
3964,55.0,0,180,5.0,45.0
3965,69.0,0,95,1.0,46.0
3966,62.0,120,120,3.0,46.0
3967,74.0,120,155,1.0,46.0
3968,54.0,0,180,5.0,46.0
3969,62.0,120,120,3.0,47.0
3970,72.0,0,155,1.0,50.0
3971,50.0,120,180,5.0,48.0
3972,62.0,120,95,3.0,48.0
3973,55.0,0,180,5.0,48.0
3974,70.0,120,240,1.0,55.0
3975,62.0,120,120,5.0,51.0
3976,61.0,120,120,5.0,54.0
3977,71.0,0,190,1.0,51.0
3978,62.0,120,120,5.0,57.0
3979,61.0,120,120,5.0,61.0
3980,62.0,120,120,5.0,64.0
3981,64.0,120,120,5.0,69.0
3982,62.0,120,120,5.0,65.0
3983,60.0,120,180,5.0,61.0
3984,62.0,120,120,3.0,58.0
3985,59.0,120,180,5.0,54.0
3986,62.0,120,120,3.0,51.0
3987,60.0,120,180,5.0,47.0
3988,62.0,120,120,3.0,43.0
3989,57.0,120,180,5.0,40.0
3990,62.0,120,95,3.0,40.0
3991,67.0,120,120,1.0,40.0
3992,59.0,0,180,5.0,40.0
3993,62.0,0,120,3.0,41.0
3994,55.0,120,180,5.0,41.0
3995,62.0,120,120,3.0,42.0
3996,79.0,120,495,1.0,48.0
3997,59.0,120,187,5.0,42.0
3998,78.0,120,120,1.0,43.0
3999,62.0,0,120,3.0,43.0
4000,76.0,0,120,1.0,44.0
4001,55.0,120,180,5.0,44.0
4002,74.0,0,95,1.0,44.0
4003,62.0,120,120,3.0,44.0
4004,74.0,120,120,1.0,45.0
4005,57.0,0,180,5.0,45.0
4006,62.0,120,120,3.0,45.0
4007,72.0,0,120,1.0,45.0
4008,71.0,0,120,1.0,46.0
4009,55.0,120,180,5.0,46.0
4010,69.0,0,95,1.0,47.0
4011,62.0,120,120,3.0,47.0
4012,74.0,0,155,1.0,46.0
4013,54.0,120,180,5.0,47.0
4014,62.0,120,120,3.0,48.0
4015,72.0,120,155,1.0,49.0
4016,50.0,0,180,5.0,48.0
4017,62.0,120,120,3.0,49.0
4018,55.0,120,180,5.0,50.0
4019,71.0,0,240,1.0,52.0
4020,62.0,120,120,3.0,50.0
4021,59.0,120,180,5.0,51.0
4022,62.0,120,95,3.0,51.0
4023,76.0,0,40,1.0,49.0
4024,78.0,40,40,1.0,49.0
4025,76.0,40,40,1.0,50.0
4026,75.0,40,40,1.0,51.0
4027,55.0,120,180,5.0,52.0
4028,76.0,40,40,1.0,51.0
4029,78.0,40,40,1.0,52.0
4030,64.0,0,120,3.0,53.0
4031,79.0,0,80,1.0,52.0
4032,60.0,40,180,5.0,53.0
4033,79.0,0,80,1.0,54.0
4034,64.0,120,120,3.0,54.0
4035,55.0,120,180,5.0,54.0
4036,79.0,0,190,1.0,56.0
4037,62.0,120,120,3.0,55.0
4038,59.0,120,180,5.0,56.0
4039,62.0,120,95,3.0,56.0
4040,81.0,0,40,1.0,52.0
4041,83.0,40,40,1.0,53.0
4042,81.0,40,40,1.0,53.0
4043,80.0,0,40,1.0,54.0
4044,53.0,120,180,5.0,57.0
4045,81.0,40,40,1.0,54.0
4046,60.0,40,120,3.0,58.0
4047,83.0,40,40,1.0,55.0
4048,84.0,0,80,1.0,55.0
4049,57.0,40,180,5.0,58.0
4050,84.0,0,80,1.0,57.0
4051,60.0,120,120,3.0,59.0
4052,52.0,120,180,5.0,59.0
4053,84.0,0,190,1.0,59.0
4054,60.0,120,120,3.0,60.0
4055,55.0,120,180,5.0,61.0
4056,60.0,120,95,3.0,61.0
4057,84.0,0,40,1.0,57.0
4058,86.0,40,40,1.0,57.0
4059,84.0,40,40,1.0,57.0
4060,83.0,0,40,1.0,58.0
4061,48.0,120,180,5.0,62.0
4062,84.0,40,40,1.0,58.0
4063,86.0,40,40,1.0,59.0
4064,55.0,40,120,3.0,62.0
4065,88.0,40,80,1.0,59.0
4066,52.0,0,187,5.0,63.0
4067,88.0,120,80,1.0,61.0
4068,55.0,0,120,3.0,64.0
4069,88.0,120,120,1.0,62.0
4070,50.0,0,180,5.0,64.0
4071,86.0,120,80,1.0,63.0
4072,59.0,0,120,3.0,65.0
4073,84.0,0,80,1.0,65.0
4074,55.0,120,180,5.0,65.0
4075,83.0,120,80,1.0,66.0
4076,59.0,0,120,3.0,66.0
4077,81.0,0,155,1.0,67.0
4078,50.0,120,180,5.0,67.0
4079,60.0,120,120,3.0,67.0
4080,86.0,120,155,1.0,70.0
4081,54.0,0,180,5.0,68.0
4082,60.0,120,120,3.0,68.0
4083,55.0,0,180,5.0,70.0
4084,62.0,120,120,3.0,67.0
4085,84.0,120,240,1.0,73.0
4086,59.0,0,180,5.0,64.0
4087,83.0,120,190,1.0,64.0
4088,62.0,120,95,3.0,61.0
4089,76.0,120,40,1.0,55.0
4090,78.0,40,40,1.0,55.0
4091,76.0,40,40,1.0,56.0
4092,75.0,0,40,1.0,57.0
4093,55.0,0,180,5.0,60.0
4094,76.0,40,40,1.0,57.0
4095,64.0,40,120,3.0,61.0
4096,78.0,40,40,1.0,58.0
4097,79.0,0,80,1.0,59.0
4098,60.0,40,180,5.0,61.0
4099,79.0,0,80,1.0,61.0
4100,64.0,120,120,3.0,62.0
4101,55.0,120,180,5.0,63.0
4102,79.0,0,190,1.0,63.0
4103,62.0,120,120,3.0,63.0
4104,59.0,120,180,5.0,64.0
4105,62.0,120,95,3.0,65.0
4106,81.0,0,40,1.0,59.0
4107,83.0,40,40,1.0,59.0
4108,81.0,40,40,1.0,60.0
4109,80.0,0,40,1.0,61.0
4110,53.0,120,180,5.0,65.0
4111,81.0,40,40,1.0,62.0
4112,83.0,40,40,1.0,63.0
4113,60.0,40,120,3.0,66.0
4114,84.0,40,80,1.0,63.0
4115,57.0,0,180,5.0,67.0
4116,84.0,120,80,1.0,66.0
4117,60.0,0,120,3.0,67.0
4118,52.0,0,180,5.0,68.0
4119,84.0,120,190,1.0,68.0
4120,60.0,120,120,3.0,69.0
4121,55.0,120,180,5.0,69.0
4122,60.0,120,95,3.0,70.0
4123,84.0,0,40,1.0,63.0
4124,86.0,40,40,1.0,63.0
4125,84.0,40,40,1.0,64.0
4126,83.0,40,40,1.0,64.0
4127,48.0,120,180,5.0,71.0
4128,84.0,40,40,1.0,65.0
4129,55.0,0,120,3.0,71.0
4130,86.0,40,40,1.0,65.0
4131,88.0,40,80,1.0,66.0
4132,52.0,0,180,5.0,72.0
4133,88.0,0,80,1.0,67.0
4134,55.0,120,120,3.0,73.0
4135,88.0,120,120,1.0,69.0
4136,50.0,0,180,5.0,73.0
4137,86.0,120,80,1.0,71.0
4138,59.0,0,120,3.0,74.0
4139,84.0,120,80,1.0,72.0
4140,55.0,0,180,5.0,75.0
4141,83.0,120,80,1.0,74.0
4142,59.0,0,120,3.0,75.0
4143,83.0,120,120,1.0,76.0
4144,50.0,0,180,5.0,76.0
4145,81.0,0,80,1.0,77.0
4146,60.0,120,120,3.0,77.0
4147,79.0,0,80,1.0,79.0
4148,57.0,120,180,5.0,77.0
4149,78.0,0,80,1.0,81.0
4150,60.0,120,95,3.0,78.0
4151,86.0,120,320,1.0,82.0
4152,83.0,80,85,1.0,80.0
4153,55.0,240,240,5.0,80.0
4154,59.0,0,240,4.0,80.0
4155,79.0,80,85,1.0,80.0
4156,78.0,0,80,1.0,79.0
4157,81.0,80,80,1.0,79.0
4158,60.0,0,240,4.0,79.0
4159,74.0,80,80,1.0,79.0
4160,57.0,80,240,5.0,79.0
4161,79.0,0,80,1.0,78.0
4162,83.0,80,80,1.0,78.0
4163,59.0,80,190,5.0,78.0
4164,62.0,0,190,4.0,78.0
4165,74.0,80,70,1.0,78.0
4166,81.0,80,320,1.0,77.0
4167,78.0,80,85,1.0,76.0
4168,50.0,0,240,5.0,76.0
4169,74.0,80,80,1.0,76.0
4170,54.0,240,240,4.0,76.0
4171,73.0,0,80,1.0,75.0
4172,74.0,80,80,1.0,75.0
4173,52.0,80,240,5.0,75.0
4174,55.0,0,240,4.0,75.0
4175,69.0,80,80,1.0,75.0
4176,72.0,0,80,1.0,74.0
4177,74.0,80,80,1.0,74.0
4178,54.0,0,190,5.0,74.0
4179,57.0,80,190,4.0,74.0
4180,69.0,80,70,1.0,74.0
4181,86.0,80,320,1.0,62.0
4182,83.0,80,75,1.0,61.0
4183,79.0,80,80,1.0,60.0
4184,59.0,0,240,4.0,61.0
4185,55.0,240,240,5.0,61.0
4186,78.0,80,80,1.0,60.0
4187,81.0,80,80,1.0,60.0
4188,60.0,0,240,4.0,60.0
4189,74.0,80,80,1.0,60.0
4190,57.0,0,240,5.0,60.0
4191,79.0,0,80,1.0,60.0
4192,83.0,80,80,1.0,59.0
4193,59.0,0,190,5.0,60.0
4194,62.0,80,190,4.0,60.0
4195,74.0,80,70,1.0,59.0
4196,81.0,80,320,1.0,59.0
4197,78.0,80,80,1.0,58.0
4198,54.0,0,240,4.0,58.0
4199,74.0,80,80,1.0,58.0
4200,50.0,240,240,5.0,58.0
4201,73.0,0,80,1.0,58.0
4202,74.0,80,80,1.0,58.0
4203,55.0,80,240,4.0,58.0
4204,52.0,0,240,5.0,58.0
4205,69.0,80,80,1.0,57.0
4206,72.0,0,80,1.0,57.0
4207,74.0,80,80,1.0,57.0
4208,57.0,80,190,4.0,57.0
4209,54.0,0,190,5.0,57.0
4210,69.0,80,65,1.0,57.0
4211,71.0,0,130,1.0,71.0
4212,67.0,80,130,1.0,71.0
4213,71.0,80,130,1.0,70.0
4214,74.0,80,130,1.0,70.0
4215,55.0,80,385,5.0,71.0
4216,71.0,80,130,1.0,69.0
4217,74.0,80,130,1.0,69.0
4218,79.0,80,130,1.0,68.0
4219,74.0,80,130,1.0,68.0
4220,79.0,80,130,1.0,67.0
4221,83.0,80,130,1.0,67.0
4222,79.0,80,130,1.0,66.0
4223,83.0,80,130,1.0,66.0
4224,86.0,0,130,1.0,65.0
4225,83.0,80,130,1.0,65.0
4226,86.0,80,130,1.0,65.0
4227,89.0,80,130,1.0,64.0
4228,86.0,80,130,1.0,64.0
4229,83.0,80,130,1.0,63.0
4230,79.0,80,130,1.0,63.0
4231,77.0,80,130,1.0,62.0
4232,74.0,80,130,1.0,62.0
4233,71.0,80,130,1.0,61.0
4234,67.0,80,130,1.0,61.0
4235,65.0,80,80,1.0,60.0
4236,43.0,80,960,5.0,65.0
4237,50.0,0,960,4.0,65.0
4238,47.0,0,960,4.0,65.0
4239,55.0,0,960,4.0,65.0
4240,64.0,80,120,1.0,60.0
4241,76.0,120,120,1.0,58.0
4242,75.0,120,120,1.0,57.0
4243,48.0,0,385,5.0,57.0
4244,55.0,0,385,4.0,57.0
4245,76.0,120,120,1.0,55.0
4246,75.0,120,120,1.0,54.0
4247,76.0,120,120,1.0,52.0
4248,75.0,120,120,1.0,51.0
4249,76.0,120,95,1.0,49.0
4250,58.0,0,240,4.0,48.0
4251,49.0,240,240,5.0,48.0
4252,59.0,0,240,4.0,46.0
4253,67.0,120,720,1.0,49.0
4254,71.0,240,120,1.0,44.0
4255,66.0,0,240,2.0,44.0
4256,50.0,240,480,5.0,46.0
4257,69.0,120,120,1.0,44.0
4258,60.0,0,240,4.0,44.0
4259,67.0,80,105,1.0,65.0
4260,71.0,80,105,1.0,65.0
4261,74.0,80,105,1.0,64.0
4262,59.0,0,385,4.0,65.0
4263,55.0,120,385,5.0,65.0
4264,71.0,80,105,1.0,64.0
4265,74.0,80,105,1.0,63.0
4266,79.0,80,105,1.0,63.0
4267,74.0,80,105,1.0,63.0
4268,79.0,80,105,1.0,62.0
4269,83.0,80,105,1.0,62.0
4270,79.0,80,105,1.0,61.0
4271,83.0,80,105,1.0,61.0
4272,86.0,0,105,1.0,61.0
4273,83.0,80,105,1.0,60.0
4274,86.0,80,105,1.0,60.0
4275,89.0,80,105,1.0,59.0
4276,86.0,80,105,1.0,59.0
4277,83.0,80,105,1.0,59.0
4278,79.0,80,105,1.0,58.0
4279,77.0,80,105,1.0,58.0
4280,74.0,80,105,1.0,57.0
4281,71.0,80,105,1.0,57.0
4282,67.0,80,105,1.0,57.0
4283,65.0,80,80,1.0,56.0
4284,43.0,0,960,5.0,61.0
4285,47.0,0,960,4.0,61.0
4286,50.0,0,960,4.0,61.0
4287,55.0,0,0,4.0,54.0
4288,64.0,80,120,1.0,56.0
4289,76.0,120,120,1.0,54.0
4290,75.0,120,120,1.0,53.0
4291,48.0,0,385,5.0,54.0
4292,76.0,120,120,1.0,51.0
4293,75.0,120,120,1.0,50.0
4294,76.0,120,120,1.0,48.0
4295,75.0,120,120,1.0,47.0
4296,76.0,120,95,1.0,45.0
4297,79.0,120,120,1.0,44.0
4298,78.0,120,120,1.0,42.0
4299,49.0,120,385,5.0,45.0
4300,58.0,0,385,4.0,45.0
4301,79.0,120,120,1.0,41.0
4302,78.0,120,120,1.0,40.0
4303,79.0,120,120,1.0,39.0
4304,78.0,120,120,1.0,37.0
4305,79.0,120,95,1.0,36.0
4306,79.0,120,120,1.0,56.0
4307,50.0,0,120,5.0,56.0
4308,74.0,0,80,1.0,56.0
4309,59.0,120,120,3.0,56.0
4310,74.0,0,80,1.0,57.0
4311,55.0,120,120,3.0,57.0
4312,74.0,120,80,1.0,58.0
4313,59.0,0,120,3.0,58.0
4314,76.0,0,120,1.0,58.0
4315,50.0,120,120,5.0,58.0
4316,74.0,120,80,1.0,59.0
4317,59.0,0,120,3.0,59.0
4318,72.0,120,80,1.0,59.0
4319,55.0,0,120,3.0,59.0
4320,71.0,120,80,1.0,60.0
4321,59.0,0,120,3.0,60.0
4322,50.0,120,120,5.0,60.0
4323,62.0,120,120,3.0,61.0
4324,55.0,120,120,3.0,62.0
4325,71.0,0,450,1.0,60.0
4326,62.0,120,120,3.0,62.0
4327,71.0,120,60,1.0,59.0
4328,50.0,0,120,5.0,63.0
4329,69.0,60,60,1.0,59.0
4330,71.0,0,60,1.0,60.0
4331,69.0,60,60,1.0,60.0
4332,60.0,60,120,3.0,63.0
4333,71.0,0,60,1.0,60.0
4334,54.0,60,120,3.0,64.0
4335,69.0,60,60,1.0,61.0
4336,67.0,0,60,1.0,61.0
4337,60.0,60,95,3.0,65.0
4338,69.0,60,60,1.0,61.0
4339,55.0,0,120,5.0,65.0
4340,67.0,60,215,1.0,62.0
4341,59.0,120,120,3.0,48.0
4342,67.0,120,120,3.0,48.0
4343,59.0,120,120,3.0,49.0
4344,55.0,120,120,5.0,50.0
4345,59.0,120,120,3.0,50.0
4346,74.0,0,305,1.0,50.0
4347,67.0,120,120,3.0,51.0
4348,78.0,60,60,1.0,51.0
4349,76.0,60,60,1.0,52.0
4350,59.0,0,95,3.0,51.0
4351,74.0,60,60,1.0,52.0
4352,55.0,60,120,5.0,52.0
4353,86.0,0,155,1.0,52.0
4354,57.0,120,120,3.0,53.0
4355,66.0,120,120,3.0,53.0
4356,84.0,0,155,1.0,54.0
4357,57.0,120,120,3.0,54.0
4358,55.0,0,120,5.0,55.0
4359,83.0,120,155,1.0,55.0
4360,60.0,120,120,3.0,55.0
4361,66.0,120,120,3.0,56.0
4362,81.0,0,155,1.0,56.0
4363,60.0,120,95,3.0,56.0
4364,55.0,120,120,5.0,57.0
4365,59.0,120,120,3.0,58.0
4366,67.0,120,120,3.0,58.0
4367,79.0,0,480,1.0,58.0
4368,59.0,120,120,3.0,59.0
4369,55.0,120,120,5.0,60.0
4370,59.0,120,120,3.0,60.0
4371,74.0,0,305,1.0,60.0
4372,78.0,60,60,1.0,62.0
4373,67.0,120,120,3.0,61.0
4374,76.0,60,60,1.0,62.0
4375,59.0,0,95,3.0,61.0
4376,74.0,60,60,1.0,63.0
4377,55.0,0,120,5.0,62.0
4378,86.0,60,155,1.0,63.0
4379,57.0,120,120,3.0,63.0
4380,66.0,0,120,3.0,63.0
4381,84.0,120,155,1.0,64.0
4382,57.0,120,120,3.0,64.0
4383,55.0,120,120,5.0,65.0
4384,83.0,0,155,1.0,66.0
4385,60.0,120,120,3.0,65.0
4386,66.0,0,120,3.0,66.0
4387,81.0,120,155,1.0,67.0
4388,60.0,120,95,3.0,66.0
4389,55.0,120,120,5.0,67.0
4390,79.0,0,190,1.0,68.0
4391,59.0,120,120,3.0,68.0
4392,67.0,120,120,3.0,68.0
4393,59.0,120,120,3.0,69.0
4394,74.0,0,120,1.0,71.0
4395,55.0,120,120,5.0,70.0
4396,60.0,120,120,3.0,70.0
4397,66.0,120,120,3.0,71.0
4398,86.0,0,255,1.0,72.0
4399,84.0,0,40,1.0,73.0
4400,83.0,40,40,1.0,73.0
4401,60.0,120,95,3.0,72.0
4402,81.0,40,40,1.0,74.0
4403,55.0,0,120,5.0,72.0
4404,79.0,40,190,1.0,74.0
4405,59.0,120,120,3.0,73.0
4406,67.0,120,120,3.0,73.0
4407,59.0,120,120,3.0,74.0
4408,55.0,120,120,5.0,75.0
4409,74.0,0,120,1.0,76.0
4410,60.0,120,120,3.0,75.0
4411,66.0,120,120,3.0,76.0
4412,86.0,0,255,1.0,77.0
4413,84.0,120,40,1.0,78.0
4414,83.0,40,40,1.0,79.0
4415,60.0,0,95,3.0,77.0
4416,81.0,40,40,1.0,79.0
4417,79.0,0,190,1.0,79.0
4418,67.0,40,240,4.0,77.0
4419,55.0,0,240,5.0,77.0
4420,59.0,0,240,4.0,77.0
4421,62.0,240,180,1.0,43.0
4422,67.0,160,60,1.0,46.0
4423,71.0,80,155,1.0,47.0
4424,50.0,0,155,5.0,51.0
4425,60.0,240,155,2.0,53.0
4426,69.0,0,155,1.0,53.0
4427,55.0,0,155,5.0,58.0
4428,50.0,240,155,5.0,49.0
4429,60.0,240,480,2.0,58.0
4430,69.0,0,480,1.0,58.0
4431,43.0,0,155,5.0,41.0
4432,67.0,240,190,1.0,41.0
4433,59.0,0,190,4.0,41.0
4434,59.0,480,240,5.0,39.0
4435,74.0,0,240,1.0,41.0
4436,55.0,240,155,5.0,36.0
4437,71.0,0,155,1.0,39.0
4438,62.0,0,405,4.0,39.0
4439,55.0,0,155,5.0,38.0
4440,71.0,0,155,1.0,36.0
4441,62.0,240,155,4.0,38.0
4442,71.0,240,40,1.0,36.0
4443,72.0,40,40,1.0,37.0
4444,71.0,40,40,1.0,37.0
4445,55.0,0,155,5.0,40.0
4446,62.0,0,155,4.0,40.0
4447,69.0,40,60,1.0,38.0
4448,71.0,60,60,1.0,40.0
4449,74.0,60,240,1.0,42.0
4450,59.0,0,240,5.0,44.0
4451,57.0,0,120,5.0,38.0
4452,72.0,240,120,1.0,38.0
4453,62.0,0,375,4.0,44.0
4454,62.0,240,385,4.0,34.0
4455,54.0,0,385,5.0,34.0
4456,69.0,0,385,1.0,34.0
4457,57.0,0,240,5.0,42.0
4458,72.0,0,240,1.0,40.0
4459,71.0,0,120,1.0,38.0
4460,55.0,240,120,5.0,38.0
4461,62.0,480,360,4.0,42.0
4462,59.0,240,240,5.0,45.0
4463,74.0,0,240,1.0,43.0
4464,72.0,240,120,1.0,41.0
4465,57.0,0,120,5.0,41.0
4466,62.0,0,365,4.0,45.0
4467,60.0,0,480,5.0,48.0
4468,76.0,0,480,1.0,48.0
4469,62.0,240,720,4.0,48.0
4470,59.0,480,240,5.0,37.0
4471,74.0,0,240,1.0,37.0
4472,74.0,480,240,1.0,41.0
4473,67.0,240,155,1.0,39.0
4474,67.0,0,240,1.0,36.0
4475,67.0,240,40,1.0,33.0
4476,69.0,40,40,1.0,33.0
4477,67.0,40,40,1.0,34.0
4478,66.0,40,60,1.0,34.0
4479,47.0,0,480,5.0,38.0
4480,50.0,240,480,4.0,38.0
4481,67.0,60,60,1.0,35.0
4482,69.0,60,240,1.0,36.0
4483,72.0,240,120,1.0,39.0
4484,52.0,0,480,4.0,38.0
4485,48.0,0,480,5.0,38.0
4486,49.0,0,385,5.0,43.0
4487,55.0,0,385,4.0,43.0
4488,76.0,240,385,1.0,43.0
4489,74.0,0,240,1.0,44.0
4490,67.0,240,120,1.0,42.0
4491,59.0,0,480,4.0,44.0
4492,72.0,0,240,1.0,40.0
4493,66.0,240,120,1.0,39.0
4494,57.0,240,360,4.0,40.0
4495,50.0,480,840,5.0,44.0
4496,60.0,240,480,4.0,37.0
4497,69.0,0,480,1.0,37.0
4498,67.0,0,240,1.0,32.0
4499,55.0,0,720,5.0,37.0
4500,59.0,480,240,4.0,32.0
4501,59.0,0,180,5.0,42.0
4502,62.0,120,120,3.0,43.0
4503,74.0,480,240,1.0,47.0
4504,71.0,0,155,1.0,44.0
4505,55.0,120,180,5.0,44.0
4506,62.0,120,120,3.0,45.0
4507,71.0,120,155,1.0,44.0
4508,55.0,0,180,5.0,46.0
4509,62.0,120,120,3.0,48.0
4510,71.0,120,40,1.0,45.0
4511,72.0,40,40,1.0,46.0
4512,71.0,40,40,1.0,47.0
4513,69.0,0,60,1.0,48.0
4514,56.0,0,180,5.0,49.0
4515,71.0,60,60,1.0,49.0
4516,62.0,40,120,3.0,50.0
4517,57.0,60,180,5.0,53.0
4518,74.0,0,240,1.0,51.0
4519,62.0,120,120,3.0,50.0
4520,72.0,0,120,1.0,49.0
4521,55.0,120,180,5.0,49.0
4522,62.0,120,120,3.0,48.0
4523,54.0,0,180,5.0,47.0
4524,62.0,120,120,3.0,46.0
4525,69.0,120,385,1.0,47.0
4526,50.0,120,180,5.0,45.0
4527,62.0,120,95,3.0,43.0
4528,55.0,0,180,5.0,45.0
4529,72.0,120,240,1.0,52.0
4530,67.0,120,120,3.0,46.0
4531,71.0,120,120,1.0,48.0
4532,59.0,0,180,5.0,48.0
4533,67.0,120,120,3.0,49.0
4534,57.0,120,180,5.0,51.0
4535,67.0,120,120,3.0,52.0
4536,74.0,0,240,1.0,58.0
4537,72.0,0,120,1.0,54.0
4538,60.0,120,180,5.0,54.0
4539,67.0,120,120,3.0,56.0
4540,60.0,120,180,5.0,66.0
4541,67.0,120,120,3.0,58.0
4542,64.0,120,180,5.0,57.0
4543,76.0,0,480,1.0,70.0
4544,67.0,120,120,3.0,55.0
4545,59.0,0,180,5.0,54.0
4546,74.0,120,190,1.0,54.0
4547,67.0,120,120,3.0,53.0
4548,62.0,120,180,5.0,52.0
4549,67.0,120,95,3.0,50.0
4550,57.0,120,180,5.0,51.0
4551,67.0,120,120,3.0,51.0
4552,74.0,0,240,1.0,58.0
4553,72.0,120,120,1.0,52.0
4554,60.0,0,180,5.0,52.0
4555,67.0,120,120,3.0,53.0
4556,59.0,0,180,5.0,55.0
4557,67.0,120,120,3.0,56.0
4558,76.0,120,240,1.0,62.0
4559,74.0,0,120,1.0,58.0
4560,62.0,120,180,5.0,58.0
4561,67.0,120,120,3.0,61.0
4562,62.0,0,180,5.0,70.0
4563,67.0,120,120,3.0,64.0
4564,65.0,120,187,5.0,63.0
4565,77.0,120,480,1.0,76.0
4566,67.0,120,120,3.0,62.0
4567,60.0,120,180,5.0,61.0
4568,76.0,0,190,1.0,61.0
4569,67.0,120,120,3.0,60.0
4570,64.0,120,180,5.0,59.0
4571,67.0,120,95,3.0,58.0
4572,59.0,120,180,5.0,56.0
4573,67.0,120,120,3.0,57.0
4574,76.0,0,240,1.0,62.0
4575,74.0,120,120,1.0,58.0
4576,62.0,0,180,5.0,58.0
4577,67.0,120,120,3.0,59.0
4578,60.0,0,180,5.0,60.0
4579,67.0,120,120,3.0,61.0
4580,77.0,120,240,1.0,68.0
4581,76.0,120,120,1.0,63.0
4582,64.0,0,180,5.0,63.0
4583,67.0,120,120,3.0,67.0
4584,64.0,0,180,5.0,74.0
4585,67.0,120,120,3.0,68.0
4586,66.0,120,180,5.0,66.0
4587,79.0,120,480,1.0,80.0
4588,67.0,120,120,3.0,65.0
4589,62.0,120,180,5.0,64.0
4590,77.0,0,190,1.0,64.0
4591,67.0,120,120,3.0,63.0
4592,65.0,120,180,5.0,62.0
4593,67.0,120,95,3.0,60.0
4594,60.0,0,180,5.0,73.0
4595,67.0,120,120,3.0,71.0
4596,76.0,120,360,1.0,73.0
4597,77.0,0,60,1.0,68.0
4598,66.0,120,180,5.0,70.0
4599,67.0,120,120,3.0,68.0
4600,79.0,60,60,1.0,67.0
4601,77.0,0,155,1.0,67.0
4602,59.0,60,180,5.0,67.0
4603,67.0,120,120,3.0,65.0
4604,76.0,0,155,1.0,63.0
4605,60.0,120,180,5.0,63.0
4606,67.0,120,95,3.0,62.0
4607,55.0,0,180,5.0,60.0
4608,67.0,120,120,3.0,60.0
4609,74.0,120,385,1.0,60.0
4610,59.0,120,180,4.0,59.0
4611,67.0,120,120,3.0,58.0
4612,55.0,120,180,5.0,57.0
4613,67.0,120,120,3.0,56.0
4614,79.0,0,155,1.0,55.0
4615,59.0,120,180,4.0,55.0
4616,67.0,120,120,3.0,54.0
4617,55.0,0,180,5.0,55.0
4618,67.0,120,120,3.0,55.0
4619,77.0,120,240,1.0,60.0
4620,60.0,0,180,4.0,54.0
4621,75.0,120,190,1.0,54.0
4622,67.0,120,120,3.0,54.0
4623,55.0,120,180,5.0,53.0
4624,67.0,120,120,3.0,53.0
4625,72.0,120,155,1.0,53.0
4626,63.0,0,180,4.0,53.0
4627,67.0,120,95,3.0,52.0
4628,55.0,120,180,5.0,52.0
4629,71.0,0,240,1.0,58.0
4630,67.0,120,120,3.0,51.0
4631,62.0,120,180,4.0,51.0
4632,74.0,0,190,1.0,51.0
4633,67.0,120,120,3.0,51.0
4634,55.0,120,180,5.0,50.0
4635,67.0,120,120,3.0,50.0
4636,79.0,0,155,1.0,49.0
4637,59.0,120,180,4.0,49.0
4638,67.0,120,120,3.0,49.0
4639,55.0,120,180,5.0,49.0
4640,67.0,120,120,3.0,48.0
4641,77.0,0,120,1.0,53.0
4642,60.0,120,180,4.0,48.0
4643,75.0,0,95,1.0,47.0
4644,67.0,120,120,3.0,47.0
4645,55.0,120,180,5.0,47.0
4646,67.0,120,120,3.0,47.0
4647,74.0,0,120,1.0,52.0
4648,63.0,120,180,4.0,46.0
4649,72.0,0,95,1.0,46.0
4650,67.0,120,95,3.0,46.0
4651,55.0,120,180,5.0,45.0
4652,67.0,120,120,3.0,45.0
4653,71.0,0,240,1.0,55.0
4654,62.0,120,180,4.0,45.0
4655,74.0,0,190,1.0,45.0
4656,67.0,120,120,3.0,44.0
4657,55.0,120,180,5.0,44.0
4658,79.0,0,120,1.0,45.0
4659,67.0,120,120,3.0,43.0
4660,78.0,0,120,1.0,42.0
4661,59.0,120,180,4.0,43.0
4662,79.0,120,95,1.0,40.0
4663,67.0,0,120,3.0,43.0
4664,56.0,120,180,5.0,42.0
4665,67.0,120,120,3.0,42.0
4666,75.0,0,120,1.0,45.0
4667,74.0,120,120,1.0,42.0
4668,60.0,0,180,4.0,41.0
4669,75.0,0,95,1.0,39.0
4670,67.0,120,120,3.0,41.0
4671,56.0,120,180,5.0,41.0
4672,72.0,120,120,1.0,43.0
4673,66.0,0,120,3.0,40.0
4674,71.0,120,120,1.0,41.0
4675,60.0,0,180,4.0,40.0
4676,66.0,0,95,3.0,39.0
4677,72.0,120,95,1.0,39.0
4678,71.0,120,240,1.0,44.0
4679,67.0,0,240,4.0,39.0
4680,55.0,0,240,5.0,39.0
4681,74.0,240,120,1.0,35.0
4682,55.0,240,240,5.0,37.0
4683,67.0,0,240,4.0,37.0
4684,71.0,0,240,1.0,40.0
4685,74.0,240,120,1.0,34.0
4686,55.0,240,240,5.0,36.0
4687,71.0,0,240,1.0,36.0
4688,67.0,0,240,4.0,36.0
4689,74.0,240,120,1.0,32.0
4690,65.0,0,240,4.0,32.0
4691,74.0,720,240,1.0,32.0
4692,62.0,0,240,4.0,32.0
4693,59.0,0,240,4.0,32.0
4694,55.0,0,240,5.0,32.0
4695,77.0,240,120,1.0,29.0
4696,74.0,0,240,1.0,31.0
4697,55.0,0,240,5.0,31.0
4698,59.0,0,240,4.0,31.0
4699,65.0,240,240,4.0,31.0
4700,62.0,0,240,4.0,31.0
4701,77.0,240,120,1.0,26.0
4702,65.0,0,240,4.0,29.0
4703,74.0,0,240,1.0,29.0
4704,55.0,240,240,5.0,29.0
4705,59.0,0,240,4.0,29.0
4706,62.0,0,240,4.0,29.0
4707,77.0,240,120,1.0,25.0
4708,76.0,720,360,1.0,42.0
4709,77.0,120,60,1.0,43.0
4710,79.0,60,60,1.0,43.0
4711,48.0,240,240,5.0,43.0
4712,72.0,0,155,1.0,43.0
4713,52.0,60,240,5.0,43.0
4714,55.0,240,155,5.0,44.0
4715,74.0,0,155,1.0,44.0
4716,71.0,0,155,2.0,44.0
4717,74.0,0,155,1.0,47.0
4718,71.0,240,155,2.0,47.0
4719,60.0,0,155,5.0,44.0
4720,77.0,0,120,1.0,44.0
4721,48.0,240,155,5.0,44.0
4722,72.0,0,155,2.0,44.0
4723,76.0,120,120,1.0,42.0
4724,55.0,0,155,5.0,42.0
4725,71.0,120,385,2.0,41.0
4726,74.0,0,385,1.0,41.0
4727,43.0,240,155,5.0,40.0
4728,76.0,240,360,1.0,46.0
4729,77.0,120,60,1.0,47.0
4730,48.0,240,240,5.0,47.0
4731,79.0,60,60,1.0,47.0
4732,72.0,0,155,1.0,47.0
4733,52.0,60,240,5.0,47.0
4734,71.0,240,155,2.0,47.0
4735,55.0,0,155,5.0,47.0
4736,74.0,0,155,1.0,47.0
4737,74.0,240,155,2.0,49.0
4738,77.0,0,155,1.0,49.0
4739,60.0,0,155,5.0,48.0
4740,76.0,0,25,1.0,47.0
4741,77.0,40,25,1.0,46.0
4742,76.0,40,25,1.0,46.0
4743,48.0,240,155,5.0,48.0
4744,72.0,0,155,2.0,47.0
4745,74.0,40,40,1.0,45.0
4746,76.0,60,40,1.0,44.0
4747,55.0,60,155,5.0,46.0
4748,74.0,0,385,1.0,43.0
4749,71.0,0,385,2.0,43.0
4750,43.0,240,155,5.0,44.0
4751,57.0,0,360,5.0,50.0
4752,77.0,240,360,1.0,50.0
4753,79.0,120,60,1.0,51.0
4754,60.0,240,240,2.0,51.0
4755,77.0,60,60,1.0,52.0
4756,76.0,0,155,1.0,52.0
4757,55.0,60,360,5.0,52.0
4758,76.0,240,155,1.0,53.0
4759,60.0,0,240,2.0,53.0
4760,81.0,240,360,1.0,54.0
4761,53.0,0,360,5.0,54.0
4762,83.0,120,60,1.0,56.0
4763,84.0,60,60,1.0,56.0
4764,60.0,240,240,2.0,55.0
4765,79.0,0,155,1.0,57.0
4766,52.0,60,360,5.0,57.0
4767,79.0,240,155,1.0,58.0
4768,60.0,0,190,2.0,58.0
4769,79.0,240,120,1.0,61.0
4770,77.0,120,95,1.0,60.0
4771,77.0,0,120,1.0,58.0
4772,59.0,0,190,5.0,54.0
4773,67.0,120,190,2.0,54.0
4774,74.0,120,95,1.0,57.0
4775,77.0,120,120,1.0,56.0
4776,76.0,120,95,1.0,54.0
4777,76.0,120,120,1.0,53.0
4778,60.0,0,190,5.0,51.0
4779,67.0,0,190,2.0,51.0
4780,72.0,120,95,1.0,52.0
4781,73.0,0,120,1.0,50.0
4782,74.0,120,120,1.0,49.0
4783,76.0,120,120,1.0,48.0
4784,55.0,120,385,5.0,51.0
4785,59.0,0,385,4.0,51.0
4786,74.0,120,120,1.0,46.0
4787,72.0,120,120,1.0,45.0
4788,71.0,120,120,1.0,43.0
4789,69.0,120,120,1.0,42.0
4790,67.0,120,95,1.0,40.0
4791,40.0,120,80,3.0,61.0
4792,36.0,120,240,5.0,60.0
4793,43.0,120,80,3.0,61.0
4794,76.0,0,360,1.0,64.0
4795,77.0,0,60,1.0,66.0
4796,48.0,120,80,3.0,62.0
4797,79.0,60,60,1.0,66.0
4798,40.0,60,120,5.0,63.0
4799,72.0,0,155,1.0,66.0
4800,52.0,120,80,3.0,63.0
4801,43.0,120,120,5.0,64.0
4802,71.0,0,155,2.0,68.0
4803,74.0,0,155,1.0,68.0
4804,55.0,120,80,3.0,65.0
4805,74.0,0,155,1.0,71.0
4806,71.0,0,155,2.0,71.0
4807,52.0,120,80,3.0,65.0
4808,48.0,120,240,5.0,65.0
4809,55.0,0,80,3.0,64.0
4810,77.0,0,120,1.0,68.0
4811,72.0,120,155,2.0,68.0
4812,60.0,0,80,3.0,63.0
4813,76.0,120,120,1.0,66.0
4814,47.0,120,80,3.0,62.0
4815,43.0,0,240,5.0,63.0
4816,50.0,120,80,3.0,61.0
4817,74.0,120,385,1.0,65.0
4818,71.0,0,385,2.0,65.0
4819,55.0,120,80,3.0,61.0
4820,40.0,120,80,3.0,59.0
4821,36.0,0,240,5.0,58.0
4822,43.0,120,80,3.0,60.0
4823,76.0,120,360,1.0,67.0
4824,77.0,0,60,1.0,68.0
4825,48.0,120,80,3.0,62.0
4826,79.0,60,60,1.0,69.0
4827,40.0,0,120,5.0,63.0
4828,72.0,60,155,1.0,69.0
4829,52.0,120,80,3.0,65.0
4830,43.0,0,120,5.0,66.0
4831,71.0,0,155,2.0,71.0
4832,74.0,120,155,1.0,71.0
4833,55.0,120,80,3.0,68.0
4834,74.0,120,155,2.0,73.0
4835,77.0,0,155,1.0,73.0
4836,52.0,120,80,3.0,69.0
4837,48.0,0,240,5.0,69.0
4838,76.0,120,25,1.0,70.0
4839,77.0,40,25,1.0,69.0
4840,55.0,0,80,3.0,68.0
4841,76.0,40,25,1.0,68.0
4842,72.0,0,155,2.0,70.0
4843,74.0,0,40,1.0,68.0
4844,60.0,40,80,3.0,68.0
4845,76.0,60,40,1.0,67.0
4846,47.0,120,80,3.0,67.0
4847,43.0,0,240,5.0,68.0
4848,50.0,120,80,3.0,67.0
4849,74.0,0,385,1.0,66.0
4850,71.0,60,385,2.0,66.0
4851,55.0,120,80,3.0,66.0
4852,57.0,0,180,5.0,64.0
4853,60.0,120,120,3.0,64.0
4854,77.0,120,360,1.0,70.0
4855,79.0,120,60,1.0,69.0
4856,57.0,120,180,5.0,65.0
4857,77.0,60,60,1.0,70.0
4858,60.0,0,120,3.0,66.0
4859,76.0,0,155,1.0,70.0
4860,55.0,60,180,5.0,67.0
4861,60.0,120,120,3.0,68.0
4862,76.0,0,155,1.0,71.0
4863,55.0,120,180,5.0,69.0
4864,60.0,120,120,3.0,69.0
4865,53.0,120,180,5.0,70.0
4866,60.0,120,120,3.0,71.0
4867,81.0,0,360,1.0,72.0
4868,83.0,0,60,1.0,74.0
4869,53.0,120,180,5.0,72.0
4870,84.0,60,60,1.0,74.0
4871,60.0,120,120,3.0,73.0
4872,79.0,0,155,1.0,75.0
4873,52.0,60,180,5.0,74.0
4874,60.0,120,120,3.0,75.0
4875,79.0,0,155,1.0,76.0
4876,52.0,120,180,5.0,75.0
4877,60.0,120,95,3.0,76.0
4878,80.0,120,120,1.0,79.0
4879,81.0,120,120,1.0,77.0
4880,77.0,0,120,1.0,76.0
4881,53.0,0,190,5.0,76.0
4882,62.0,120,190,4.0,76.0
4883,74.0,120,95,1.0,74.0
4884,72.0,0,240,1.0,73.0
4885,64.0,120,240,4.0,75.0
4886,71.0,0,190,1.0,70.0
4887,62.0,240,190,4.0,73.0
4888,55.0,0,435,5.0,75.0
4889,72.0,240,65,1.0,70.0
4890,67.0,80,65,1.0,70.0
4891,76.0,80,65,1.0,70.0
4892,72.0,80,65,1.0,69.0
4893,64.0,0,385,4.0,72.0
4894,60.0,0,385,5.0,72.0
4895,79.0,80,65,1.0,69.0
4896,76.0,80,65,1.0,69.0
4897,84.0,80,65,1.0,69.0
4898,83.0,80,65,1.0,68.0
4899,81.0,80,65,1.0,68.0
4900,79.0,80,65,1.0,68.0
4901,77.0,80,65,1.0,67.0
4902,76.0,80,65,1.0,67.0
4903,72.0,80,65,1.0,67.0
4904,74.0,80,65,1.0,67.0
4905,77.0,80,65,1.0,66.0
4906,81.0,0,65,1.0,66.0
4907,77.0,80,65,1.0,66.0
4908,57.0,0,190,4.0,66.0
4909,62.0,0,190,4.0,66.0
4910,53.0,80,190,5.0,66.0
4911,74.0,80,65,1.0,66.0
4912,79.0,0,65,1.0,65.0
4913,76.0,80,65,1.0,65.0
4914,72.0,80,65,1.0,65.0
4915,64.0,80,240,4.0,65.0
4916,60.0,0,240,4.0,65.0
4917,77.0,0,65,1.0,65.0
4918,74.0,80,65,1.0,64.0
4919,55.0,0,425,5.0,65.0
4920,65.0,0,190,4.0,65.0
4921,62.0,80,190,4.0,65.0
4922,71.0,80,65,1.0,64.0
4923,72.0,80,65,1.0,57.0
4924,67.0,80,65,1.0,57.0
4925,76.0,80,65,1.0,57.0
4926,72.0,80,65,1.0,57.0
4927,60.0,0,385,5.0,57.0
4928,79.0,80,65,1.0,57.0
4929,64.0,0,385,4.0,57.0
4930,76.0,80,65,1.0,56.0
4931,84.0,80,65,1.0,56.0
4932,83.0,80,65,1.0,56.0
4933,81.0,80,65,1.0,56.0
4934,79.0,80,65,1.0,55.0
4935,77.0,80,65,1.0,55.0
4936,76.0,80,65,1.0,55.0
4937,72.0,80,65,1.0,55.0
4938,74.0,80,65,1.0,54.0
4939,77.0,80,65,1.0,54.0
4940,81.0,80,65,1.0,54.0
4941,77.0,80,65,1.0,54.0
4942,53.0,0,190,5.0,54.0
4943,57.0,0,190,4.0,54.0
4944,62.0,0,190,4.0,54.0
4945,74.0,80,65,1.0,53.0
4946,79.0,0,65,1.0,53.0
4947,76.0,80,65,1.0,53.0
4948,72.0,80,65,1.0,53.0
4949,64.0,0,240,4.0,53.0
4950,60.0,0,240,4.0,53.0
4951,77.0,0,65,1.0,53.0
4952,74.0,80,65,1.0,52.0
4953,62.0,80,190,4.0,53.0
4954,65.0,0,190,4.0,53.0
4955,55.0,80,435,5.0,53.0
4956,71.0,80,65,1.0,52.0
4957,60.0,0,155,5.0,52.0
4958,64.0,80,155,4.0,52.0
4959,72.0,0,155,1.0,52.0
4960,67.0,0,155,1.0,47.0
4961,55.0,240,155,5.0,47.0
4962,48.0,240,190,5.0,41.0
4963,36.0,0,190,5.0,41.0
4964,60.0,0,190,1.0,41.0
4965,67.0,120,120,3.0,36.0
4966,66.0,120,120,3.0,37.0
4967,60.0,0,360,5.0,36.0
4968,67.0,120,120,3.0,37.0
4969,76.0,480,480,1.0,36.0
4970,77.0,0,60,1.0,38.0
4971,76.0,60,60,1.0,38.0
4972,74.0,0,60,1.0,38.0
4973,60.0,120,180,5.0,38.0
4974,67.0,60,120,3.0,38.0
4975,76.0,60,60,1.0,38.0
4976,79.0,0,120,1.0,39.0
4977,62.0,60,180,5.0,39.0
4978,67.0,120,120,3.0,39.0
4979,77.0,0,120,1.0,39.0
4980,76.0,0,120,1.0,40.0
4981,64.0,120,180,5.0,40.0
4982,74.0,0,120,1.0,40.0
4983,67.0,120,120,3.0,40.0
4984,72.0,0,120,1.0,41.0
4985,65.0,120,180,5.0,41.0
4986,71.0,0,120,1.0,41.0
4987,67.0,120,120,3.0,41.0
4988,72.0,0,155,1.0,41.0
4989,64.0,120,180,5.0,41.0
4990,67.0,120,120,3.0,42.0
4991,73.0,120,155,1.0,42.0
4992,58.0,0,180,5.0,42.0
4993,67.0,120,95,3.0,43.0
4994,74.0,0,155,1.0,44.0
4995,59.0,120,180,5.0,44.0
4996,67.0,120,120,3.0,45.0
4997,75.0,0,155,1.0,47.0
4998,59.0,120,180,5.0,46.0
4999,67.0,120,120,3.0,47.0
5000,76.0,0,155,1.0,50.0
5001,60.0,120,180,5.0,49.0
5002,67.0,120,120,3.0,50.0
5003,79.0,120,120,1.0,53.0
5004,62.0,0,180,5.0,51.0
5005,77.0,120,95,1.0,55.0
5006,67.0,0,120,3.0,52.0
5007,67.0,120,120,3.0,52.0
5008,66.0,120,120,3.0,50.0
5009,76.0,120,360,1.0,59.0
5010,60.0,0,360,5.0,54.0
5011,77.0,0,60,1.0,48.0
5012,76.0,60,60,1.0,46.0
5013,67.0,120,120,3.0,47.0
5014,67.0,120,120,3.0,43.0
5015,74.0,60,240,1.0,45.0
5016,66.0,120,120,3.0,41.0
5017,59.0,0,360,5.0,45.0
5018,67.0,120,95,3.0,39.0
5019,67.0,120,120,3.0,38.0
5020,66.0,120,120,3.0,39.0
5021,59.0,0,360,5.0,38.0
5022,77.0,120,480,1.0,38.0
5023,67.0,120,120,3.0,39.0
5024,79.0,120,60,1.0,40.0
5025,77.0,60,60,1.0,40.0
5026,59.0,0,180,5.0,40.0
5027,76.0,0,60,1.0,41.0
5028,67.0,60,120,3.0,41.0
5029,77.0,60,60,1.0,41.0
5030,81.0,0,120,1.0,41.0
5031,60.0,60,180,5.0,41.0
5032,67.0,0,120,3.0,42.0
5033,79.0,120,120,1.0,42.0
5034,77.0,0,120,1.0,42.0
5035,62.0,120,180,5.0,42.0
5036,76.0,0,120,1.0,43.0
5037,67.0,120,120,3.0,43.0
5038,74.0,120,120,1.0,44.0
5039,64.0,0,180,5.0,44.0
5040,67.0,120,120,3.0,44.0
5041,72.0,0,120,1.0,44.0
5042,71.0,120,80,1.0,45.0
5043,65.0,0,180,5.0,45.0
5044,72.0,0,80,1.0,45.0
5045,67.0,120,120,3.0,45.0
5046,74.0,120,80,1.0,46.0
5047,62.0,0,180,5.0,46.0
5048,76.0,120,80,1.0,47.0
5049,67.0,0,120,3.0,47.0
5050,77.0,120,80,1.0,46.0
5051,59.0,0,180,5.0,46.0
5052,79.0,0,80,1.0,48.0
5053,67.0,120,120,3.0,48.0
5054,81.0,120,80,1.0,51.0
5055,62.0,0,180,5.0,50.0
5056,83.0,120,80,1.0,53.0
5057,67.0,0,120,3.0,51.0
5058,84.0,120,80,1.0,56.0
5059,59.0,0,180,5.0,53.0
5060,86.0,120,80,1.0,58.0
5061,67.0,0,120,3.0,54.0
5062,88.0,120,80,1.0,61.0
5063,55.0,0,180,5.0,56.0
5064,89.0,0,80,1.0,63.0
5065,67.0,120,95,3.0,60.0
5066,67.0,120,120,3.0,60.0
5067,64.0,120,120,3.0,56.0
5068,60.0,120,360,5.0,63.0
5069,67.0,120,120,3.0,53.0
5070,87.0,0,480,1.0,66.0
5071,67.0,120,120,3.0,46.0
5072,88.0,0,240,1.0,50.0
5073,64.0,120,120,3.0,43.0
5074,60.0,120,360,5.0,50.0
5075,67.0,120,95,3.0,39.0
5076,48.0,0,105,5.0,75.0
5077,52.0,80,105,4.0,75.0
5078,55.0,80,105,4.0,75.0
5079,70.0,120,315,1.0,75.0
5080,76.0,80,80,1.0,74.0
5081,60.0,80,190,4.0,75.0
5082,79.0,80,80,1.0,74.0
5083,82.0,80,80,1.0,74.0
5084,79.0,80,80,1.0,73.0
5085,76.0,80,80,1.0,73.0
5086,79.0,80,80,1.0,73.0
5087,76.0,80,80,1.0,73.0
5088,69.0,80,65,1.0,72.0
5089,41.0,0,105,5.0,72.0
5090,45.0,80,105,4.0,72.0
5091,48.0,80,105,4.0,72.0
5092,69.0,80,320,1.0,72.0
5093,72.0,80,80,1.0,71.0
5094,53.0,80,190,4.0,71.0
5095,77.0,80,80,1.0,71.0
5096,81.0,80,80,1.0,70.0
5097,77.0,80,80,1.0,70.0
5098,72.0,80,80,1.0,70.0
5099,77.0,80,80,1.0,70.0
5100,72.0,80,80,1.0,69.0
5101,69.0,80,65,1.0,69.0
5102,45.0,80,105,5.0,69.0
5103,49.0,80,105,4.0,69.0
5104,52.0,80,105,4.0,68.0
5105,67.0,0,320,1.0,69.0
5106,73.0,80,80,1.0,68.0
5107,57.0,80,190,4.0,68.0
5108,76.0,80,80,1.0,68.0
5109,79.0,80,80,1.0,67.0
5110,76.0,80,80,1.0,67.0
5111,73.0,80,80,1.0,67.0
5112,76.0,80,80,1.0,66.0
5113,73.0,80,80,1.0,66.0
5114,67.0,80,65,1.0,66.0
5115,50.0,80,105,5.0,66.0
5116,54.0,80,105,4.0,65.0
5117,57.0,80,105,4.0,65.0
5118,66.0,0,315,1.0,66.0
5119,69.0,80,80,1.0,65.0
5120,62.0,80,190,4.0,65.0
5121,74.0,80,80,1.0,64.0
5122,77.0,80,80,1.0,64.0
5123,74.0,80,80,1.0,64.0
5124,69.0,80,80,1.0,63.0
5125,74.0,80,80,1.0,63.0
5126,69.0,80,80,1.0,63.0
5127,66.0,80,65,1.0,63.0
5128,47.0,0,105,5.0,62.0
5129,50.0,80,105,4.0,62.0
5130,55.0,80,105,4.0,62.0
5131,65.0,80,320,1.0,62.0
5132,71.0,80,80,1.0,61.0
5133,59.0,80,190,4.0,62.0
5134,74.0,80,80,1.0,61.0
5135,77.0,80,80,1.0,61.0
5136,74.0,80,80,1.0,61.0
5137,71.0,80,80,1.0,60.0
5138,74.0,80,80,1.0,60.0
5139,71.0,80,80,1.0,60.0
5140,65.0,80,65,1.0,59.0
5141,48.0,0,80,5.0,59.0
5142,52.0,80,80,4.0,59.0
5143,55.0,80,80,4.0,59.0
5144,64.0,80,320,1.0,59.0
5145,67.0,80,80,1.0,58.0
5146,60.0,80,190,4.0,58.0
5147,72.0,80,80,1.0,58.0
5148,76.0,80,80,1.0,58.0
5149,72.0,80,80,1.0,57.0
5150,67.0,80,80,1.0,57.0
5151,72.0,80,80,1.0,57.0
5152,67.0,80,80,1.0,57.0
5153,64.0,80,65,1.0,56.0
5154,62.0,80,80,1.0,57.0
5155,57.0,80,240,4.0,57.0
5156,53.0,0,240,5.0,57.0
5157,69.0,80,80,1.0,56.0
5158,74.0,80,80,1.0,55.0
5159,69.0,80,80,1.0,54.0
5160,62.0,80,80,1.0,54.0
5161,62.0,80,80,1.0,52.0
5162,69.0,80,80,1.0,51.0
5163,54.0,80,240,5.0,53.0
5164,57.0,0,240,4.0,53.0
5165,72.0,80,80,1.0,51.0
5166,69.0,80,80,1.0,50.0
5167,62.0,80,65,1.0,49.0
5168,67.0,120,120,5.0,47.0
5169,55.0,0,240,5.0,49.0
5170,66.0,120,120,5.0,45.0
5171,71.0,80,480,1.0,49.0
5172,67.0,120,120,5.0,42.0
5173,66.0,120,120,5.0,40.0
5174,79.0,120,80,1.0,43.0
5175,67.0,0,120,5.0,40.0
5176,81.0,0,80,1.0,45.0
5177,65.0,120,180,5.0,40.0
5178,83.0,120,80,1.0,47.0
5179,67.0,0,120,5.0,41.0
5180,64.0,120,180,5.0,41.0
5181,67.0,120,120,3.0,41.0
5182,60.0,120,180,5.0,42.0
5183,67.0,120,120,3.0,42.0
5184,84.0,0,600,1.0,49.0
5185,64.0,120,180,5.0,43.0
5186,83.0,0,120,1.0,43.0
5187,67.0,120,120,3.0,43.0
5188,81.0,0,120,1.0,42.0
5189,60.0,120,180,5.0,43.0
5190,79.0,0,95,1.0,41.0
5191,67.0,120,120,3.0,44.0
5192,79.0,0,120,1.0,40.0
5193,62.0,120,180,5.0,44.0
5194,67.0,120,120,3.0,44.0
5195,77.0,0,120,1.0,41.0
5196,76.0,0,120,1.0,42.0
5197,60.0,120,180,5.0,45.0
5198,74.0,0,95,1.0,44.0
5199,67.0,120,120,3.0,45.0
5200,79.0,0,155,1.0,46.0
5201,59.0,120,180,5.0,46.0
5202,67.0,120,120,3.0,46.0
5203,77.0,120,155,1.0,49.0
5204,55.0,0,180,5.0,46.0
5205,67.0,120,95,3.0,47.0
5206,60.0,0,180,5.0,47.0
5207,75.0,120,240,1.0,52.0
5208,67.0,120,120,5.0,48.0
5209,66.0,120,120,5.0,50.0
5210,76.0,0,190,1.0,50.0
5211,67.0,120,120,5.0,53.0
5212,66.0,120,120,5.0,55.0
5213,67.0,120,120,5.0,58.0
5214,69.0,120,120,5.0,62.0
5215,67.0,120,120,5.0,60.0
5216,65.0,120,180,5.0,57.0
5217,67.0,120,120,3.0,55.0
5218,64.0,120,180,5.0,52.0
5219,79.0,120,80,1.0,49.0
5220,67.0,0,120,3.0,50.0
5221,80.0,0,80,1.0,51.0
5222,65.0,120,180,5.0,50.0
5223,81.0,120,80,1.0,54.0
5224,67.0,0,120,3.0,50.0
5225,82.0,0,80,1.0,56.0
5226,62.0,120,180,5.0,51.0
5227,83.0,120,80,1.0,58.0
5228,67.0,0,95,3.0,51.0
5229,64.0,0,180,5.0,51.0
5230,67.0,120,120,3.0,52.0
5231,60.0,120,180,5.0,52.0
5232,67.0,120,120,3.0,53.0
5233,84.0,120,600,1.0,63.0
5234,64.0,120,180,5.0,53.0
5235,83.0,0,120,1.0,57.0
5236,67.0,120,120,3.0,54.0
5237,81.0,0,120,1.0,56.0
5238,60.0,120,180,5.0,54.0
5239,79.0,120,95,1.0,55.0
5240,67.0,0,120,3.0,54.0
5241,79.0,0,120,1.0,54.0
5242,62.0,120,180,5.0,55.0
5243,77.0,0,120,1.0,55.0
5244,67.0,120,120,3.0,55.0
5245,76.0,120,120,1.0,57.0
5246,60.0,0,180,5.0,56.0
5247,74.0,120,95,1.0,58.0
5248,67.0,0,120,3.0,56.0
5249,79.0,0,155,1.0,60.0
5250,59.0,120,180,5.0,57.0
5251,67.0,120,120,3.0,57.0
5252,77.0,120,155,1.0,63.0
5253,55.0,0,180,5.0,57.0
5254,67.0,120,120,3.0,58.0
5255,60.0,0,180,5.0,58.0
5256,76.0,120,190,1.0,66.0
5257,67.0,120,120,3.0,59.0
5258,64.0,120,180,5.0,59.0
5259,67.0,120,95,3.0,60.0
5260,81.0,0,40,1.0,56.0
5261,83.0,40,40,1.0,57.0
5262,81.0,40,40,1.0,57.0
5263,80.0,0,40,1.0,58.0
5264,60.0,120,180,5.0,60.0
5265,81.0,40,40,1.0,59.0
5266,83.0,40,40,1.0,59.0
5267,69.0,40,120,3.0,60.0
5268,84.0,0,80,1.0,60.0
5269,65.0,40,180,5.0,61.0
5270,84.0,120,80,1.0,61.0
5271,69.0,0,120,3.0,61.0
5272,60.0,120,180,5.0,62.0
5273,84.0,0,190,1.0,63.0
5274,67.0,120,120,3.0,62.0
5275,64.0,120,180,5.0,63.0
5276,67.0,120,95,3.0,63.0
5277,86.0,120,40,1.0,57.0
5278,88.0,40,40,1.0,57.0
5279,86.0,40,40,1.0,58.0
5280,85.0,0,40,1.0,58.0
5281,58.0,0,180,5.0,63.0
5282,86.0,40,40,1.0,59.0
5283,88.0,40,40,1.0,60.0
5284,65.0,40,120,3.0,64.0
5285,89.0,0,80,1.0,60.0
5286,62.0,40,180,5.0,64.0
5287,89.0,120,80,1.0,62.0
5288,65.0,0,120,3.0,65.0
5289,57.0,120,180,5.0,65.0
5290,89.0,0,190,1.0,64.0
5291,65.0,120,120,3.0,66.0
5292,60.0,120,180,5.0,66.0
5293,65.0,120,95,3.0,66.0
5294,77.0,0,40,1.0,60.0
5295,79.0,40,40,1.0,60.0
5296,77.0,40,40,1.0,61.0
5297,76.0,40,40,1.0,61.0
5298,53.0,120,180,5.0,67.0
5299,77.0,40,40,1.0,62.0
5300,79.0,40,40,1.0,62.0
5301,62.0,0,120,3.0,67.0
5302,81.0,0,80,1.0,63.0
5303,57.0,40,180,5.0,68.0
5304,81.0,120,80,1.0,64.0
5305,62.0,0,120,3.0,68.0
5306,81.0,120,120,1.0,66.0
5307,55.0,0,180,5.0,69.0
5308,79.0,0,80,1.0,67.0
5309,64.0,120,120,3.0,69.0
5310,77.0,120,80,1.0,69.0
5311,60.0,0,180,5.0,69.0
5312,76.0,0,80,1.0,70.0
5313,64.0,120,120,3.0,70.0
5314,74.0,120,155,1.0,72.0
5315,55.0,0,180,5.0,70.0
5316,65.0,120,120,3.0,71.0
5317,79.0,120,155,1.0,75.0
5318,59.0,0,180,5.0,71.0
5319,65.0,120,120,3.0,72.0
5320,48.0,120,180,5.0,72.0
5321,55.0,120,120,3.0,72.0
5322,77.0,0,240,1.0,78.0
5323,52.0,120,180,3.0,73.0
5324,76.0,0,190,1.0,73.0
5325,55.0,120,95,3.0,73.0
5326,69.0,120,40,1.0,67.0
5327,71.0,40,40,1.0,68.0
5328,69.0,40,40,1.0,69.0
5329,68.0,40,40,1.0,69.0
5330,48.0,0,180,5.0,74.0
5331,69.0,40,40,1.0,70.0
5332,57.0,0,120,3.0,74.0
5333,71.0,40,40,1.0,70.0
5334,72.0,40,80,1.0,71.0
5335,53.0,0,180,3.0,75.0
5336,72.0,0,80,1.0,73.0
5337,57.0,120,120,3.0,75.0
5338,48.0,120,180,5.0,75.0
5339,72.0,0,190,1.0,75.0
5340,55.0,120,120,3.0,75.0
5341,52.0,120,180,3.0,75.0
5342,55.0,120,95,3.0,76.0
5343,74.0,0,40,1.0,70.0
5344,76.0,40,40,1.0,70.0
5345,74.0,40,40,1.0,71.0
5346,73.0,40,40,1.0,71.0
5347,46.0,120,180,5.0,76.0
5348,74.0,40,40,1.0,72.0
5349,76.0,40,40,1.0,72.0
5350,53.0,0,120,3.0,77.0
5351,77.0,40,80,1.0,73.0
5352,50.0,0,180,3.0,77.0
5353,77.0,120,80,1.0,75.0
5354,53.0,0,120,3.0,77.0
5355,45.0,120,180,5.0,78.0
5356,77.0,0,190,1.0,76.0
5357,53.0,120,120,3.0,78.0
5358,48.0,120,180,3.0,79.0
5359,53.0,120,95,3.0,79.0
5360,77.0,0,40,1.0,74.0
5361,79.0,40,40,1.0,75.0
5362,77.0,40,40,1.0,75.0
5363,76.0,0,40,1.0,75.0
5364,41.0,120,180,5.0,79.0
5365,77.0,40,40,1.0,75.0
5366,79.0,40,40,1.0,76.0
5367,50.0,40,120,3.0,80.0
5368,81.0,0,80,1.0,76.0
5369,45.0,40,180,3.0,80.0
5370,81.0,0,80,1.0,77.0
5371,50.0,120,120,3.0,81.0
5372,81.0,0,120,1.0,79.0
5373,43.0,120,180,5.0,81.0
5374,79.0,0,80,1.0,79.0
5375,52.0,120,120,3.0,81.0
5376,77.0,0,80,1.0,78.0
5377,48.0,120,180,3.0,81.0
5378,76.0,120,80,1.0,77.0
5379,52.0,0,120,3.0,80.0
5380,76.0,0,120,1.0,77.0
5381,43.0,120,180,5.0,80.0
5382,74.0,0,80,1.0,76.0
5383,53.0,120,120,3.0,80.0
5384,72.0,120,80,1.0,75.0
5385,50.0,0,180,3.0,79.0
5386,71.0,120,80,1.0,75.0
5387,53.0,0,95,3.0,79.0
5388,79.0,120,315,1.0,74.0
5389,76.0,80,75,1.0,78.0
5390,48.0,240,240,5.0,78.0
5391,52.0,0,240,4.0,78.0
5392,72.0,80,85,1.0,77.0
5393,71.0,80,80,1.0,77.0
5394,74.0,80,80,1.0,77.0
5395,67.0,80,80,1.0,77.0
5396,53.0,0,240,4.0,77.0
5397,50.0,0,240,5.0,77.0
5398,72.0,80,80,1.0,77.0
5399,76.0,80,80,1.0,76.0
5400,52.0,0,190,5.0,77.0
5401,55.0,0,190,4.0,77.0
5402,67.0,80,65,1.0,76.0
5403,74.0,80,320,1.0,76.0
5404,71.0,80,70,1.0,75.0
5405,67.0,80,80,1.0,75.0
5406,47.0,0,240,4.0,75.0
5407,43.0,240,240,5.0,75.0
5408,66.0,80,80,1.0,74.0
5409,67.0,80,80,1.0,74.0
5410,48.0,0,240,4.0,74.0
5411,62.0,80,80,1.0,74.0
5412,45.0,0,240,5.0,74.0
5413,65.0,0,80,1.0,74.0
5414,67.0,80,80,1.0,74.0
5415,47.0,0,190,5.0,74.0
5416,50.0,80,190,4.0,74.0
5417,62.0,80,65,1.0,73.0
5418,79.0,80,315,1.0,73.0
5419,76.0,80,85,1.0,73.0
5420,48.0,0,240,5.0,73.0
5421,52.0,240,240,4.0,73.0
5422,72.0,80,80,1.0,72.0
5423,71.0,0,80,1.0,72.0
5424,74.0,80,80,1.0,72.0
5425,50.0,0,240,5.0,72.0
5426,53.0,80,240,4.0,72.0
5427,67.0,80,80,1.0,72.0
5428,72.0,80,80,1.0,72.0
5429,76.0,80,80,1.0,71.0
5430,52.0,0,190,5.0,72.0
5431,55.0,0,190,4.0,72.0
5432,67.0,80,65,1.0,71.0
5433,74.0,80,320,1.0,71.0
5434,71.0,80,75,1.0,70.0
5435,43.0,0,240,5.0,70.0
5436,47.0,240,240,4.0,70.0
5437,67.0,80,85,1.0,70.0
5438,66.0,80,80,1.0,70.0
5439,67.0,80,80,1.0,70.0
5440,62.0,80,80,1.0,69.0
5441,48.0,0,240,4.0,70.0
5442,45.0,0,240,5.0,70.0
5443,65.0,0,80,1.0,69.0
5444,67.0,80,80,1.0,69.0
5445,50.0,80,190,4.0,69.0
5446,47.0,0,190,5.0,69.0
5447,62.0,80,70,1.0,69.0
5448,64.0,0,80,1.0,69.0
5449,60.0,80,80,1.0,68.0
5450,64.0,80,80,1.0,68.0
5451,67.0,80,80,1.0,68.0
5452,64.0,80,80,1.0,68.0
5453,48.0,80,480,5.0,69.0
5454,67.0,80,80,1.0,68.0
5455,72.0,80,80,1.0,67.0
5456,67.0,80,80,1.0,67.0
5457,72.0,80,80,1.0,67.0
5458,76.0,80,80,1.0,67.0
5459,72.0,80,80,1.0,67.0
5460,76.0,80,80,1.0,66.0
5461,79.0,0,80,1.0,66.0
5462,76.0,80,80,1.0,66.0
5463,79.0,80,80,1.0,66.0
5464,82.0,80,80,1.0,66.0
5465,79.0,80,80,1.0,65.0
5466,76.0,80,80,1.0,65.0
5467,72.0,80,80,1.0,65.0
5468,70.0,80,80,1.0,65.0
5469,67.0,80,80,1.0,65.0
5470,55.0,0,720,4.0,66.0
5471,72.0,0,80,1.0,64.0
5472,70.0,80,80,1.0,64.0
5473,58.0,80,240,4.0,64.0
5474,60.0,0,960,4.0,66.0
5475,68.0,80,80,1.0,64.0
5476,52.0,80,960,5.0,66.0
5477,69.0,0,120,1.0,63.0
5478,81.0,120,120,1.0,60.0
5479,80.0,120,120,1.0,58.0
5480,60.0,0,385,4.0,63.0
5481,57.0,80,385,4.0,63.0
5482,53.0,0,385,5.0,63.0
5483,81.0,120,120,1.0,56.0
5484,80.0,120,120,1.0,53.0
5485,81.0,120,120,1.0,51.0
5486,80.0,120,120,1.0,48.0
5487,81.0,120,95,1.0,46.0
5488,54.0,240,190,5.0,43.0
5489,63.0,0,190,4.0,43.0
5490,72.0,120,720,1.0,45.0
5491,64.0,0,240,4.0,41.0
5492,76.0,0,120,1.0,39.0
5493,71.0,240,190,2.0,39.0
5494,65.0,0,190,4.0,39.0
5495,74.0,120,95,1.0,38.0
5496,55.0,240,480,5.0,41.0
5497,72.0,0,80,1.0,64.0
5498,67.0,80,80,1.0,63.0
5499,72.0,80,80,1.0,63.0
5500,76.0,80,80,1.0,63.0
5501,64.0,0,385,4.0,64.0
5502,60.0,120,385,5.0,64.0
5503,72.0,80,80,1.0,63.0
5504,76.0,80,80,1.0,62.0
5505,79.0,80,80,1.0,62.0
5506,76.0,80,80,1.0,62.0
5507,79.0,80,80,1.0,62.0
5508,84.0,80,80,1.0,61.0
5509,86.0,80,80,1.0,61.0
5510,84.0,80,80,1.0,61.0
5511,82.0,80,80,1.0,61.0
5512,81.0,80,80,1.0,60.0
5513,79.0,80,80,1.0,60.0
5514,77.0,80,80,1.0,60.0
5515,76.0,80,80,1.0,60.0
5516,74.0,80,80,1.0,59.0
5517,72.0,80,80,1.0,59.0
5518,74.0,80,80,1.0,59.0
5519,72.0,80,80,1.0,59.0
5520,55.0,0,720,4.0,61.0
5521,70.0,80,80,1.0,58.0
5522,69.0,80,80,1.0,58.0
5523,58.0,0,190,4.0,58.0
5524,60.0,0,915,4.0,61.0
5525,52.0,0,915,5.0,61.0
5526,68.0,80,80,1.0,58.0
5527,69.0,0,120,1.0,58.0
5528,81.0,120,120,1.0,55.0
5529,80.0,120,120,1.0,53.0
5530,53.0,80,385,5.0,58.0
5531,57.0,0,385,4.0,58.0
5532,60.0,0,385,4.0,58.0
5533,81.0,120,120,1.0,52.0
5534,80.0,120,120,1.0,50.0
5535,81.0,120,120,1.0,49.0
5536,80.0,120,120,1.0,47.0
5537,81.0,120,95,1.0,46.0
5538,84.0,120,120,1.0,43.0
5539,83.0,120,120,1.0,42.0
5540,54.0,0,385,5.0,45.0
5541,63.0,120,385,4.0,45.0
5542,84.0,120,120,1.0,40.0
5543,83.0,120,120,1.0,39.0
5544,84.0,120,120,1.0,37.0
5545,83.0,120,120,1.0,36.0
5546,84.0,120,95,1.0,34.0
5547,84.0,120,120,1.0,64.0
5548,55.0,0,120,5.0,64.0
5549,79.0,0,80,1.0,64.0
5550,64.0,120,120,3.0,64.0
5551,79.0,120,80,1.0,65.0
5552,60.0,0,120,3.0,65.0
5553,79.0,120,80,1.0,65.0
5554,64.0,0,120,3.0,65.0
5555,55.0,0,120,5.0,66.0
5556,81.0,120,120,1.0,66.0
5557,79.0,120,80,1.0,66.0
5558,64.0,0,120,3.0,66.0
5559,77.0,0,80,1.0,67.0
5560,60.0,120,120,3.0,67.0
5561,76.0,120,80,1.0,67.0
5562,64.0,0,120,3.0,67.0
5563,55.0,120,120,5.0,68.0
5564,67.0,120,120,3.0,68.0
5565,60.0,120,120,3.0,68.0
5566,76.0,0,480,1.0,68.0
5567,67.0,120,120,3.0,69.0
5568,76.0,120,60,1.0,69.0
5569,74.0,60,60,1.0,70.0
5570,55.0,0,120,5.0,69.0
5571,76.0,0,60,1.0,70.0
5572,74.0,60,60,1.0,70.0
5573,65.0,60,120,3.0,70.0
5574,76.0,60,60,1.0,70.0
5575,74.0,60,60,1.0,71.0
5576,59.0,0,120,3.0,70.0
5577,72.0,0,60,1.0,71.0
5578,65.0,60,95,3.0,71.0
5579,74.0,60,60,1.0,71.0
5580,48.0,0,120,5.0,71.0
5581,52.0,120,120,3.0,44.0
5582,72.0,60,240,1.0,71.0
5583,60.0,120,120,3.0,44.0
5584,52.0,120,120,3.0,45.0
5585,48.0,0,120,5.0,46.0
5586,52.0,120,120,3.0,46.0
5587,67.0,120,320,1.0,46.0
5588,71.0,60,60,1.0,50.0
5589,60.0,120,120,3.0,47.0
5590,69.0,0,60,1.0,51.0
5591,52.0,60,95,3.0,48.0
5592,67.0,60,60,1.0,51.0
5593,48.0,60,120,5.0,49.0
5594,79.0,0,155,1.0,52.0
5595,50.0,120,120,3.0,49.0
5596,59.0,0,120,3.0,50.0
5597,77.0,120,155,1.0,50.0
5598,50.0,120,120,3.0,51.0
5599,48.0,120,120,5.0,51.0
5600,76.0,0,155,1.0,51.0
5601,53.0,120,120,3.0,52.0
5602,59.0,0,120,3.0,53.0
5603,74.0,120,155,1.0,53.0
5604,53.0,120,95,3.0,53.0
5605,48.0,120,120,5.0,54.0
5606,52.0,120,120,3.0,55.0
5607,60.0,120,120,3.0,55.0
5608,52.0,120,120,3.0,56.0
5609,72.0,0,480,1.0,54.0
5610,48.0,120,120,5.0,57.0
5611,52.0,120,120,3.0,58.0
5612,67.0,0,320,1.0,57.0
5613,60.0,120,120,3.0,58.0
5614,71.0,60,60,1.0,56.0
5615,69.0,0,60,1.0,57.0
5616,52.0,60,95,3.0,59.0
5617,67.0,60,60,1.0,59.0
5618,48.0,60,120,5.0,60.0
5619,79.0,0,155,1.0,61.0
5620,50.0,120,120,3.0,60.0
5621,59.0,0,120,3.0,61.0
5622,77.0,120,155,1.0,61.0
5623,50.0,120,120,3.0,62.0
5624,48.0,120,120,5.0,62.0
5625,76.0,0,155,1.0,62.0
5626,53.0,120,120,3.0,63.0
5627,59.0,0,120,3.0,64.0
5628,74.0,120,155,1.0,64.0
5629,53.0,120,95,3.0,64.0
5630,48.0,0,120,5.0,65.0
5631,72.0,120,190,1.0,65.0
5632,52.0,120,120,3.0,66.0
5633,60.0,120,120,3.0,66.0
5634,52.0,120,120,3.0,67.0
5635,48.0,120,120,5.0,68.0
5636,67.0,0,120,1.0,68.0
5637,53.0,0,120,3.0,69.0
5638,59.0,120,120,3.0,69.0
5639,79.0,120,255,1.0,69.0
5640,77.0,0,40,1.0,70.0
5641,76.0,40,40,1.0,70.0
5642,53.0,120,95,3.0,70.0
5643,74.0,40,40,1.0,70.0
5644,48.0,0,120,5.0,71.0
5645,72.0,40,190,1.0,71.0
5646,52.0,120,120,3.0,71.0
5647,60.0,120,120,3.0,72.0
5648,52.0,120,120,3.0,73.0
5649,67.0,120,120,1.0,73.0
5650,48.0,0,120,5.0,73.0
5651,53.0,0,120,3.0,74.0
5652,59.0,120,120,3.0,75.0
5653,79.0,120,255,1.0,74.0
5654,81.0,120,60,1.0,75.0
5655,53.0,0,95,3.0,75.0
5656,83.0,60,60,1.0,76.0
5657,48.0,60,120,5.0,76.0
5658,84.0,0,190,1.0,76.0
5659,52.0,120,120,3.0,77.0
5660,60.0,120,120,3.0,78.0
5661,52.0,120,120,3.0,78.0
5662,79.0,0,80,1.0,79.0
5663,48.0,120,120,5.0,79.0
5664,81.0,80,80,1.0,79.0
5665,53.0,40,120,3.0,80.0
5666,79.0,40,80,1.0,80.0
5667,77.0,0,80,1.0,80.0
5668,59.0,80,120,3.0,80.0
5669,76.0,80,80,1.0,81.0
5670,53.0,40,95,3.0,81.0
5671,74.0,40,80,1.0,81.0
5672,48.0,0,120,5.0,82.0
5673,72.0,80,190,1.0,82.0
5674,52.0,120,120,3.0,82.0
5675,60.0,120,120,3.0,83.0
5676,52.0,120,120,3.0,84.0
5677,78.0,120,80,1.0,84.0
5678,48.0,0,120,5.0,84.0
5679,79.0,80,80,1.0,85.0
5680,53.0,40,120,3.0,85.0
5681,80.0,40,80,1.0,85.0
5682,81.0,0,80,1.0,86.0
5683,59.0,80,120,3.0,86.0
5684,82.0,80,80,1.0,86.0
5685,53.0,40,95,3.0,87.0
5686,83.0,40,80,1.0,87.0
5687,84.0,0,190,1.0,87.0
5688,52.0,80,385,4.0,87.0
5689,48.0,0,385,5.0,87.0
5690,67.0,240,180,1.0,49.0
5691,72.0,160,60,1.0,52.0
5692,76.0,80,185,1.0,54.0
5693,56.0,0,155,5.0,59.0
5694,65.0,0,155,2.0,59.0
5695,74.0,240,155,1.0,59.0
5696,65.0,0,480,2.0,68.0
5697,74.0,240,485,1.0,68.0
5698,64.0,480,240,2.0,52.0
5699,72.0,0,240,1.0,52.0
5700,57.0,0,720,5.0,68.0
5701,53.0,0,240,4.0,94.0
5702,69.0,0,240,2.0,94.0
5703,77.0,0,240,2.0,94.0
5704,81.0,480,240,1.0,94.0
5705,41.0,0,240,5.0,94.0
5706,74.0,0,240,2.0,94.0
5707,43.0,0,240,5.0,96.0
5708,62.0,0,240,2.0,96.0
5709,67.0,0,240,2.0,96.0
5710,71.0,0,240,1.0,96.0
5711,65.0,480,240,2.0,96.0
5712,55.0,0,240,4.0,96.0
5713,48.0,0,240,5.0,99.0
5714,67.0,480,240,2.0,99.0
5715,43.0,0,240,3.0,99.0
5716,40.0,0,240,3.0,99.0
5717,72.0,0,240,1.0,99.0
5718,36.0,0,240,5.0,99.0
5719,64.0,0,240,2.0,99.0
5720,60.0,0,240,2.0,99.0
