,note,step,duration,channel,velocity
0,73.0,0,360,1.0,0.0
1,57.0,120,360,5.0,0.0
2,74.0,0,120,1.0,0.0
3,59.0,240,120,5.0,0.0
4,64.0,0,15,4.0,0.0
5,73.0,0,240,1.0,0.0
6,57.0,0,240,5.0,0.0
7,61.0,285,390,5.0,0.0
8,76.0,0,390,1.0,0.0
9,64.0,0,390,4.0,0.0
10,76.0,410,180,1.0,0.0
11,61.0,0,180,5.0,0.0
12,64.0,0,180,4.0,0.0
13,56.0,120,360,5.0,0.0
14,71.0,0,360,1.0,0.0
15,73.0,0,120,1.0,0.0
16,57.0,0,120,5.0,0.0
17,56.0,385,240,5.0,0.0
18,64.0,240,15,4.0,0.0
19,71.0,0,240,1.0,0.0
20,64.0,0,390,4.0,0.0
21,74.0,335,390,1.0,0.0
22,59.0,0,390,5.0,0.0
23,74.0,0,240,1.0,0.0
24,59.0,385,240,5.0,0.0
25,64.0,0,15,4.0,0.0
26,69.0,335,390,1.0,0.0
27,54.0,0,390,5.0,0.0
28,69.0,0,240,1.0,0.0
29,54.0,0,240,5.0,0.0
30,56.0,0,390,5.0,0.0
31,64.0,385,15,4.0,0.0
32,71.0,0,390,1.0,0.0
33,71.0,0,240,1.0,0.0
34,56.0,380,240,5.0,0.0
35,73.0,5,390,1.0,0.0
36,64.0,0,15,4.0,0.0
37,57.0,215,390,5.0,0.0
38,50.0,0,180,5.0,0.0
39,71.0,25,180,2.0,0.0
40,76.0,70,120,1.0,0.0
41,74.0,505,90,1.0,0.0
42,73.0,190,480,1.0,0.0
43,52.0,0,660,5.0,0.0
44,69.0,0,480,2.0,0.0
45,68.0,0,180,2.0,0.0
46,71.0,410,180,1.0,0.0
47,57.0,120,360,5.0,0.0
48,64.0,240,480,4.0,0.0
49,73.0,0,360,1.0,0.0
50,59.0,0,120,5.0,0.0
51,74.0,0,120,1.0,0.0
52,73.0,0,240,1.0,0.0
53,57.0,0,240,5.0,0.0
54,76.0,285,390,1.0,0.0
55,61.0,0,390,5.0,0.0
56,64.0,385,15,4.0,0.0
57,64.0,0,180,4.0,0.0
58,76.0,0,180,1.0,0.0
59,61.0,410,180,5.0,0.0
60,71.0,120,360,1.0,0.0
61,56.0,0,360,5.0,0.0
62,73.0,0,120,1.0,0.0
63,57.0,0,120,5.0,0.0
64,56.0,0,240,5.0,0.0
65,71.0,0,240,1.0,0.0
66,64.0,240,15,4.0,0.0
67,59.0,0,390,5.0,0.0
68,74.0,335,390,1.0,0.0
69,64.0,385,15,4.0,0.0
70,59.0,385,240,5.0,0.0
71,74.0,0,240,1.0,0.0
72,54.0,0,390,5.0,0.0
73,64.0,0,15,4.0,0.0
74,69.0,335,390,1.0,0.0
75,56.0,385,240,5.0,0.0
76,71.0,0,240,1.0,0.0
77,64.0,0,15,4.0,0.0
78,73.0,285,390,1.0,0.0
79,57.0,0,390,5.0,0.0
80,50.0,385,240,5.0,0.0
81,66.0,0,180,2.0,0.0
82,71.0,0,180,2.0,0.0
83,74.0,50,180,1.0,0.0
84,73.0,240,480,1.0,0.0
85,52.0,95,390,5.0,0.0
86,69.0,0,480,2.0,0.0
87,64.0,0,15,2.0,0.0
88,40.0,0,240,5.0,0.0
89,62.0,0,240,2.0,0.0
90,68.0,0,240,2.0,0.0
91,71.0,480,240,1.0,0.0
92,61.0,0,480,2.0,0.0
93,64.0,0,15,2.0,0.0
94,69.0,600,480,1.0,0.0
95,45.0,0,480,5.0,0.0
96,57.0,0,360,5.0,0.0
97,73.0,120,360,1.0,0.0
98,59.0,0,120,5.0,0.0
99,74.0,0,120,1.0,0.0
100,64.0,240,15,4.0,0.0
101,73.0,385,240,1.0,0.0
102,57.0,0,240,5.0,0.0
103,61.0,285,390,5.0,0.0
104,76.0,0,390,1.0,0.0
105,64.0,0,390,4.0,0.0
106,61.0,0,180,5.0,0.0
107,64.0,0,180,4.0,0.0
108,76.0,410,180,1.0,0.0
109,56.0,120,360,5.0,0.0
110,71.0,0,360,1.0,0.0
111,73.0,240,120,1.0,0.0
112,57.0,0,120,5.0,0.0
113,64.0,0,15,4.0,0.0
114,71.0,0,240,1.0,0.0
115,56.0,0,240,5.0,0.0
116,74.0,0,390,1.0,0.0
117,64.0,385,15,4.0,0.0
118,59.0,335,390,5.0,0.0
119,74.0,0,240,1.0,0.0
120,64.0,385,240,4.0,0.0
121,59.0,0,240,5.0,0.0
122,69.0,335,390,1.0,0.0
123,54.0,0,390,5.0,0.0
124,64.0,0,390,4.0,0.0
125,54.0,385,240,5.0,0.0
126,69.0,0,240,1.0,0.0
127,64.0,0,15,4.0,0.0
128,71.0,0,390,1.0,0.0
129,56.0,335,390,5.0,0.0
130,56.0,0,240,5.0,0.0
131,71.0,0,240,1.0,0.0
132,64.0,380,15,4.0,0.0
133,73.0,5,390,1.0,0.0
134,57.0,215,390,5.0,0.0
135,71.0,25,180,2.0,0.0
136,76.0,70,120,1.0,0.0
137,50.0,0,180,5.0,0.0
138,74.0,505,90,1.0,0.0
139,73.0,0,480,1.0,0.0
140,52.0,0,660,5.0,0.0
141,69.0,190,480,2.0,0.0
142,71.0,410,180,1.0,0.0
143,68.0,0,180,2.0,0.0
144,73.0,0,360,1.0,0.0
145,64.0,0,480,4.0,0.0
146,57.0,120,360,5.0,0.0
147,59.0,240,120,5.0,0.0
148,74.0,0,120,1.0,0.0
149,57.0,0,240,5.0,0.0
150,73.0,0,240,1.0,0.0
151,61.0,285,390,5.0,0.0
152,64.0,385,15,4.0,0.0
153,76.0,0,390,1.0,0.0
154,64.0,0,180,4.0,0.0
155,61.0,0,180,5.0,0.0
156,76.0,410,180,1.0,0.0
157,71.0,120,360,1.0,0.0
158,56.0,0,360,5.0,0.0
159,73.0,240,120,1.0,0.0
160,57.0,0,120,5.0,0.0
161,56.0,385,240,5.0,0.0
162,64.0,0,15,4.0,0.0
163,71.0,0,240,1.0,0.0
164,74.0,335,390,1.0,0.0
165,64.0,0,15,4.0,0.0
166,59.0,0,390,5.0,0.0
167,74.0,0,240,1.0,0.0
168,59.0,0,240,5.0,0.0
169,69.0,0,390,1.0,0.0
170,54.0,335,390,5.0,0.0
171,64.0,385,15,4.0,0.0
172,71.0,385,240,1.0,0.0
173,56.0,0,240,5.0,0.0
174,64.0,0,15,4.0,0.0
175,73.0,285,390,1.0,0.0
176,57.0,0,390,5.0,0.0
177,71.0,50,180,2.0,0.0
178,50.0,385,240,5.0,0.0
179,74.0,0,180,1.0,0.0
180,66.0,0,180,2.0,0.0
181,64.0,0,480,2.0,0.0
182,69.0,240,480,2.0,0.0
183,52.0,95,390,5.0,0.0
184,73.0,0,480,1.0,0.0
185,71.0,480,240,1.0,0.0
186,40.0,0,240,5.0,0.0
187,64.0,0,240,2.0,0.0
188,62.0,0,240,2.0,0.0
189,68.0,0,240,2.0,0.0
190,61.0,480,480,2.0,0.0
191,64.0,0,480,2.0,0.0
192,45.0,0,480,5.0,0.0
193,69.0,0,480,1.0,0.0
194,76.0,120,360,1.0,0.0
195,57.0,120,240,5.0,0.0
196,61.0,190,240,3.0,0.0
197,78.0,0,120,1.0,0.0
198,64.0,50,180,3.0,0.0
199,76.0,240,240,1.0,0.0
200,57.0,145,240,5.0,0.0
201,78.0,95,390,1.0,0.0
202,62.0,190,240,3.0,0.0
203,66.0,0,180,3.0,0.0
204,78.0,90,180,1.0,0.0
205,78.0,40,30,1.0,0.0
206,57.0,120,240,5.0,0.0
207,80.0,160,30,1.0,0.0
208,81.0,120,270,1.0,0.0
209,62.0,190,240,3.0,0.0
210,80.0,0,120,1.0,0.0
211,78.0,0,180,1.0,0.0
212,66.0,290,180,3.0,0.0
213,57.0,170,240,5.0,0.0
214,78.0,0,240,1.0,0.0
215,76.0,70,180,1.0,0.0
216,61.0,170,240,3.0,0.0
217,64.0,290,180,3.0,0.0
218,76.0,20,180,1.0,0.0
219,61.0,0,390,4.0,0.0
220,57.0,45,390,5.0,0.0
221,76.0,145,240,1.0,0.0
222,73.0,240,180,1.0,0.0
223,69.0,290,180,1.0,0.0
224,56.0,45,390,5.0,0.0
225,62.0,0,390,4.0,0.0
226,76.0,145,240,1.0,0.0
227,74.0,240,180,1.0,0.0
228,71.0,290,180,1.0,0.0
229,57.0,0,390,5.0,0.0
230,61.0,45,390,4.0,0.0
231,76.0,145,240,1.0,0.0
232,73.0,240,180,1.0,0.0
233,69.0,50,180,1.0,0.0
234,63.0,0,240,4.0,0.0
235,54.0,480,240,5.0,0.0
236,69.0,190,480,2.0,0.0
237,52.0,400,690,5.0,0.0
238,73.0,0,480,1.0,0.0
239,64.0,5,660,4.0,0.0
240,68.0,5,180,2.0,0.0
241,71.0,0,180,1.0,0.0
242,73.0,120,360,1.0,0.0
243,64.0,0,480,4.0,0.0
244,57.0,0,360,5.0,0.0
245,59.0,0,120,5.0,0.0
246,74.0,240,120,1.0,0.0
247,57.0,385,240,5.0,0.0
248,73.0,0,240,1.0,0.0
249,64.0,0,15,4.0,0.0
250,61.0,0,390,5.0,0.0
251,76.0,285,390,1.0,0.0
252,64.0,410,180,4.0,0.0
253,76.0,0,180,1.0,0.0
254,61.0,0,180,5.0,0.0
255,71.0,0,360,1.0,0.0
256,56.0,120,360,5.0,0.0
257,57.0,0,120,5.0,0.0
258,73.0,0,120,1.0,0.0
259,71.0,0,240,1.0,0.0
260,56.0,385,240,5.0,0.0
261,64.0,240,15,4.0,0.0
262,59.0,0,390,5.0,0.0
263,64.0,335,390,4.0,0.0
264,74.0,0,390,1.0,0.0
265,59.0,0,240,5.0,0.0
266,74.0,385,240,1.0,0.0
267,54.0,0,390,5.0,0.0
268,64.0,0,15,4.0,0.0
269,69.0,335,390,1.0,0.0
270,64.0,385,240,4.0,0.0
271,71.0,0,240,1.0,0.0
272,56.0,0,240,5.0,0.0
273,73.0,0,390,1.0,0.0
274,57.0,285,390,5.0,0.0
275,64.0,0,390,4.0,0.0
276,66.0,0,180,2.0,0.0
277,74.0,0,180,1.0,0.0
278,71.0,0,180,2.0,0.0
279,50.0,530,180,5.0,0.0
280,73.0,0,480,1.0,0.0
281,69.0,0,480,2.0,0.0
282,64.0,190,480,2.0,0.0
283,52.0,0,480,5.0,0.0
284,71.0,0,180,1.0,0.0
285,68.0,0,180,2.0,0.0
286,40.0,530,180,5.0,0.0
287,62.0,0,180,2.0,0.0
288,68.0,185,480,2.0,0.0
289,64.0,5,660,2.0,0.0
290,45.0,435,660,5.0,0.0
291,71.0,0,480,1.0,0.0
292,73.0,0,180,1.0,0.0
293,69.0,0,180,2.0,0.0
294,64.0,0,390,2.0,0.0
295,73.0,285,390,1.0,0.0
296,69.0,0,390,2.0,0.0
297,57.0,0,390,5.0,0.0
298,45.0,0,390,5.0,0.0
299,64.0,0,180,2.0,0.0
300,47.0,0,180,5.0,0.0
301,74.0,0,180,1.0,0.0
302,68.0,0,180,2.0,0.0
303,59.0,430,180,5.0,0.0
304,61.0,5,390,5.0,0.0
305,69.0,215,390,2.0,0.0
306,64.0,0,390,2.0,0.0
307,76.0,0,390,1.0,0.0
308,49.0,0,390,5.0,0.0
309,62.0,0,180,5.0,0.0
310,50.0,40,180,5.0,0.0
311,78.0,60,120,1.0,0.0
312,80.0,10,60,1.0,0.0
313,81.0,395,60,1.0,0.0
314,69.0,95,390,1.0,0.0
315,61.0,120,480,4.0,0.0
316,52.0,0,15,5.0,0.0
317,62.0,0,240,4.0,0.0
318,73.0,120,120,1.0,0.0
319,68.0,0,240,2.0,0.0
320,71.0,480,120,1.0,0.0
321,57.0,0,480,5.0,0.0
322,61.0,360,480,4.0,0.0
323,69.0,0,480,1.0,0.0
324,72.0,95,120,1.0,0.0
325,73.0,180,90,1.0,0.0
326,64.0,0,150,4.0,0.0
327,57.0,85,150,5.0,0.0
328,73.0,120,120,1.0,0.0
329,72.0,95,120,1.0,0.0
330,73.0,145,90,1.0,0.0
331,75.0,95,120,1.0,0.0
332,76.0,180,90,1.0,0.0
333,61.0,85,150,5.0,0.0
334,64.0,0,150,4.0,0.0
335,76.0,120,120,1.0,0.0
336,78.0,95,120,1.0,0.0
337,76.0,145,90,1.0,0.0
338,76.0,95,120,1.0,0.0
339,71.0,180,90,1.0,0.0
340,56.0,0,150,5.0,0.0
341,64.0,85,150,4.0,0.0
342,71.0,120,120,1.0,0.0
343,70.0,95,120,1.0,0.0
344,71.0,145,90,1.0,0.0
345,73.0,95,120,1.0,0.0
346,74.0,180,90,1.0,0.0
347,64.0,0,150,4.0,0.0
348,59.0,85,150,5.0,0.0
349,74.0,120,120,1.0,0.0
350,76.0,95,120,1.0,0.0
351,74.0,145,90,1.0,0.0
352,74.0,95,120,1.0,0.0
353,69.0,180,90,1.0,0.0
354,54.0,0,150,5.0,0.0
355,64.0,85,150,4.0,0.0
356,69.0,120,120,1.0,0.0
357,68.0,95,120,1.0,0.0
358,69.0,145,90,1.0,0.0
359,70.0,95,120,1.0,0.0
360,71.0,180,90,1.0,0.0
361,64.0,0,150,4.0,0.0
362,56.0,85,150,5.0,0.0
363,71.0,120,120,1.0,0.0
364,70.0,95,120,1.0,0.0
365,71.0,145,90,1.0,0.0
366,72.0,120,120,1.0,0.0
367,57.0,0,300,5.0,0.0
368,64.0,50,300,4.0,0.0
369,73.0,70,120,1.0,0.0
370,72.0,120,120,1.0,0.0
371,73.0,120,120,1.0,0.0
372,76.0,35,120,1.0,0.0
373,54.0,0,150,4.0,0.0
374,50.0,60,150,5.0,0.0
375,74.0,145,90,1.0,0.0
376,56.0,0,300,4.0,0.0
377,73.0,120,120,1.0,0.0
378,52.0,50,300,5.0,0.0
379,71.0,70,120,1.0,0.0
380,69.0,120,120,1.0,0.0
381,68.0,120,120,1.0,0.0
382,66.0,95,120,1.0,0.0
383,64.0,240,90,1.0,0.0
384,45.0,63,600,5.0,0.0
385,73.0,0,390,1.0,0.0
386,64.0,70,390,2.0,0.0
387,69.0,0,390,2.0,0.0
388,57.0,120,90,3.0,0.0
389,57.0,50,90,3.0,0.0
390,57.0,120,90,3.0,0.0
391,71.0,25,180,2.0,0.0
392,74.0,0,180,1.0,0.0
393,57.0,32,90,3.0,0.0
394,57.0,240,90,3.0,0.0
395,45.0,95,600,5.0,0.0
396,72.0,95,240,2.0,0.0
397,75.0,0,240,1.0,0.0
398,57.0,25,90,3.0,0.0
399,73.0,0,180,2.0,0.0
400,76.0,25,180,1.0,0.0
401,57.0,95,90,3.0,0.0
402,57.0,120,90,3.0,0.0
403,57.0,25,90,3.0,0.0
404,73.0,215,90,1.0,0.0
405,57.0,0,90,3.0,0.0
406,69.0,0,90,2.0,0.0
407,71.0,0,180,1.0,0.0
408,64.0,0,180,2.0,0.0
409,68.0,25,180,2.0,0.0
410,40.0,63,600,5.0,0.0
411,52.0,120,90,3.0,0.0
412,71.0,0,180,1.0,0.0
413,68.0,0,180,2.0,0.0
414,52.0,95,90,3.0,0.0
415,64.0,25,180,2.0,0.0
416,52.0,120,90,3.0,0.0
417,52.0,32,90,3.0,0.0
418,73.0,25,180,1.0,0.0
419,69.0,0,180,2.0,0.0
420,64.0,0,180,2.0,0.0
421,52.0,240,90,3.0,0.0
422,40.0,95,600,5.0,0.0
423,70.0,0,240,2.0,0.0
424,64.0,45,390,2.0,0.0
425,73.0,95,240,1.0,0.0
426,52.0,25,90,3.0,0.0
427,71.0,0,180,2.0,0.0
428,52.0,50,90,3.0,0.0
429,74.0,25,180,1.0,0.0
430,52.0,120,90,3.0,0.0
431,52.0,25,90,3.0,0.0
432,71.0,215,90,1.0,0.0
433,68.0,0,90,2.0,0.0
434,52.0,0,90,3.0,0.0
435,69.0,25,180,1.0,0.0
436,42.0,70,360,5.0,0.0
437,54.0,120,90,3.0,0.0
438,69.0,25,180,1.0,0.0
439,54.0,25,90,3.0,0.0
440,54.0,65,90,3.0,0.0
441,71.0,40,30,1.0,0.0
442,44.0,0,180,5.0,0.0
443,73.0,40,30,1.0,0.0
444,71.0,60,30,1.0,0.0
445,69.0,35,60,1.0,0.0
446,56.0,20,90,3.0,0.0
447,71.0,195,60,1.0,0.0
448,73.0,25,180,1.0,0.0
449,45.0,70,360,5.0,0.0
450,57.0,120,90,3.0,0.0
451,57.0,25,90,3.0,0.0
452,73.0,25,180,1.0,0.0
453,57.0,205,90,3.0,0.0
454,74.0,0,180,1.0,0.0
455,38.0,10,180,5.0,0.0
456,71.0,25,180,2.0,0.0
457,66.0,0,180,2.0,0.0
458,50.0,215,90,3.0,0.0
459,73.0,25,180,1.0,0.0
460,40.0,70,600,5.0,0.0
461,64.0,0,180,2.0,0.0
462,69.0,0,180,2.0,0.0
463,52.0,120,90,3.0,0.0
464,73.0,0,180,1.0,0.0
465,52.0,95,90,3.0,0.0
466,69.0,0,180,2.0,0.0
467,64.0,25,180,2.0,0.0
468,52.0,120,90,3.0,0.0
469,64.0,0,180,2.0,0.0
470,68.0,0,180,2.0,0.0
471,62.0,0,180,2.0,0.0
472,71.0,25,180,1.0,0.0
473,52.0,25,90,3.0,0.0
474,52.0,215,90,3.0,0.0
475,64.0,0,180,2.0,0.0
476,61.0,0,180,2.0,0.0
477,33.0,190,240,5.0,0.0
478,69.0,50,180,1.0,0.0
479,45.0,410,180,5.0,0.0
480,72.0,95,120,1.0,0.0
481,73.0,180,90,1.0,0.0
482,57.0,0,150,5.0,0.0
483,64.0,85,150,4.0,0.0
484,73.0,120,120,1.0,0.0
485,72.0,95,120,1.0,0.0
486,73.0,145,90,1.0,0.0
487,75.0,95,120,1.0,0.0
488,76.0,180,90,1.0,0.0
489,64.0,0,150,4.0,0.0
490,61.0,85,150,5.0,0.0
491,76.0,120,120,1.0,0.0
492,78.0,95,120,1.0,0.0
493,76.0,145,90,1.0,0.0
494,76.0,95,120,1.0,0.0
495,71.0,180,90,1.0,0.0
496,56.0,85,150,5.0,0.0
497,64.0,0,150,4.0,0.0
498,71.0,120,120,1.0,0.0
499,70.0,95,120,1.0,0.0
500,71.0,145,90,1.0,0.0
501,73.0,95,120,1.0,0.0
502,74.0,180,90,1.0,0.0
503,59.0,0,150,5.0,0.0
504,64.0,85,150,4.0,0.0
505,74.0,120,120,1.0,0.0
506,76.0,95,120,1.0,0.0
507,74.0,145,90,1.0,0.0
508,74.0,95,120,1.0,0.0
509,69.0,180,90,1.0,0.0
510,54.0,0,150,5.0,0.0
511,64.0,85,150,4.0,0.0
512,69.0,120,120,1.0,0.0
513,68.0,95,120,1.0,0.0
514,69.0,145,90,1.0,0.0
515,70.0,95,120,1.0,0.0
516,71.0,180,90,1.0,0.0
517,64.0,85,150,4.0,0.0
518,56.0,0,150,5.0,0.0
519,71.0,120,120,1.0,0.0
520,70.0,95,120,1.0,0.0
521,71.0,145,90,1.0,0.0
522,64.0,0,300,4.0,0.0
523,57.0,50,300,5.0,0.0
524,72.0,120,120,1.0,0.0
525,73.0,70,120,1.0,0.0
526,72.0,120,120,1.0,0.0
527,73.0,120,120,1.0,0.0
528,76.0,35,120,1.0,0.0
529,50.0,60,150,5.0,0.0
530,54.0,0,150,4.0,0.0
531,74.0,145,90,1.0,0.0
532,56.0,0,300,4.0,0.0
533,52.0,50,300,5.0,0.0
534,73.0,120,120,1.0,0.0
535,71.0,70,120,1.0,0.0
536,69.0,120,120,1.0,0.0
537,68.0,120,120,1.0,0.0
538,66.0,95,120,1.0,0.0
539,64.0,240,90,1.0,0.0
540,73.0,0,390,1.0,0.0
541,69.0,0,390,2.0,0.0
542,64.0,70,390,2.0,0.0
543,45.0,63,600,5.0,0.0
544,57.0,120,90,3.0,0.0
545,57.0,50,90,3.0,0.0
546,57.0,120,90,3.0,0.0
547,71.0,25,180,2.0,0.0
548,74.0,0,180,1.0,0.0
549,57.0,32,90,3.0,0.0
550,57.0,240,90,3.0,0.0
551,45.0,95,600,5.0,0.0
552,75.0,0,240,1.0,0.0
553,72.0,95,240,2.0,0.0
554,57.0,25,90,3.0,0.0
555,76.0,0,180,1.0,0.0
556,73.0,25,180,2.0,0.0
557,57.0,95,90,3.0,0.0
558,57.0,120,90,3.0,0.0
559,57.0,25,90,3.0,0.0
560,73.0,0,90,1.0,0.0
561,69.0,215,90,2.0,0.0
562,57.0,0,90,3.0,0.0
563,71.0,25,180,1.0,0.0
564,68.0,0,180,2.0,0.0
565,64.0,0,180,2.0,0.0
566,40.0,63,600,5.0,0.0
567,52.0,120,90,3.0,0.0
568,52.0,95,90,3.0,0.0
569,71.0,0,180,1.0,0.0
570,68.0,0,180,2.0,0.0
571,64.0,25,180,2.0,0.0
572,52.0,120,90,3.0,0.0
573,73.0,25,180,1.0,0.0
574,52.0,32,90,3.0,0.0
575,69.0,0,180,2.0,0.0
576,64.0,0,180,2.0,0.0
577,52.0,240,90,3.0,0.0
578,73.0,95,240,1.0,0.0
579,40.0,95,600,5.0,0.0
580,64.0,45,390,2.0,0.0
581,70.0,0,240,2.0,0.0
582,52.0,25,90,3.0,0.0
583,52.0,50,90,3.0,0.0
584,71.0,0,180,2.0,0.0
585,74.0,25,180,1.0,0.0
586,52.0,120,90,3.0,0.0
587,52.0,25,90,3.0,0.0
588,68.0,0,90,2.0,0.0
589,71.0,0,90,1.0,0.0
590,52.0,215,90,3.0,0.0
591,69.0,25,180,1.0,0.0
592,42.0,70,360,5.0,0.0
593,54.0,120,90,3.0,0.0
594,54.0,25,90,3.0,0.0
595,69.0,25,180,1.0,0.0
596,54.0,65,90,3.0,0.0
597,44.0,0,180,5.0,0.0
598,71.0,40,30,1.0,0.0
599,73.0,40,30,1.0,0.0
600,71.0,60,30,1.0,0.0
601,69.0,35,60,1.0,0.0
602,56.0,20,90,3.0,0.0
603,71.0,195,60,1.0,0.0
604,73.0,25,180,1.0,0.0
605,45.0,70,360,5.0,0.0
606,57.0,120,90,3.0,0.0
607,73.0,25,180,1.0,0.0
608,57.0,25,90,3.0,0.0
609,57.0,205,90,3.0,0.0
610,38.0,10,180,5.0,0.0
611,74.0,0,180,1.0,0.0
612,71.0,25,180,2.0,0.0
613,66.0,0,180,2.0,0.0
614,50.0,215,90,3.0,0.0
615,69.0,0,180,2.0,0.0
616,64.0,0,180,2.0,0.0
617,73.0,25,180,1.0,0.0
618,40.0,70,600,5.0,0.0
619,52.0,120,90,3.0,0.0
620,52.0,95,90,3.0,0.0
621,69.0,25,180,2.0,0.0
622,64.0,0,180,2.0,0.0
623,73.0,0,180,1.0,0.0
624,52.0,120,90,3.0,0.0
625,52.0,25,90,3.0,0.0
626,64.0,0,180,2.0,0.0
627,62.0,0,180,2.0,0.0
628,71.0,0,180,1.0,0.0
629,68.0,25,180,2.0,0.0
630,52.0,215,90,3.0,0.0
631,64.0,0,180,2.0,0.0
632,33.0,190,240,5.0,0.0
633,69.0,50,180,1.0,0.0
634,61.0,0,180,2.0,0.0
635,45.0,410,180,5.0,0.0
636,75.0,95,120,1.0,0.0
637,76.0,180,90,1.0,0.0
638,61.0,0,150,4.0,0.0
639,57.0,85,150,5.0,0.0
640,76.0,120,120,1.0,0.0
641,75.0,95,120,1.0,0.0
642,76.0,145,90,1.0,0.0
643,77.0,95,120,1.0,0.0
644,78.0,180,90,1.0,0.0
645,57.0,0,150,5.0,0.0
646,62.0,85,150,4.0,0.0
647,78.0,120,120,1.0,0.0
648,77.0,95,120,1.0,0.0
649,78.0,145,90,1.0,0.0
650,57.0,0,150,5.0,0.0
651,66.0,60,150,4.0,0.0
652,80.0,35,120,1.0,0.0
653,81.0,145,90,1.0,0.0
654,57.0,0,150,5.0,0.0
655,79.0,35,120,1.0,0.0
656,64.0,60,150,4.0,0.0
657,80.0,145,90,1.0,0.0
658,77.0,35,120,1.0,0.0
659,57.0,60,150,5.0,0.0
660,62.0,0,150,4.0,0.0
661,78.0,145,90,1.0,0.0
662,75.0,95,120,1.0,0.0
663,76.0,180,90,1.0,0.0
664,57.0,45,150,5.0,0.0
665,61.0,0,150,4.0,0.0
666,76.0,120,90,1.0,0.0
667,76.0,120,90,1.0,0.0
668,76.0,160,90,1.0,0.0
669,61.0,0,570,4.0,0.0
670,76.0,120,120,1.0,0.0
671,57.0,105,570,5.0,0.0
672,64.0,0,570,4.0,0.0
673,73.0,95,120,1.0,0.0
674,69.0,105,90,1.0,0.0
675,76.0,120,90,1.0,0.0
676,76.0,15,90,1.0,0.0
677,76.0,160,90,1.0,0.0
678,59.0,0,570,5.0,0.0
679,76.0,120,120,1.0,0.0
680,64.0,0,570,4.0,0.0
681,62.0,105,570,4.0,0.0
682,74.0,95,120,1.0,0.0
683,68.0,105,90,1.0,0.0
684,76.0,120,90,1.0,0.0
685,76.0,15,90,1.0,0.0
686,76.0,160,90,1.0,0.0
687,61.0,0,390,5.0,0.0
688,64.0,95,390,4.0,0.0
689,76.0,120,120,1.0,0.0
690,73.0,95,120,1.0,0.0
691,69.0,50,90,1.0,0.0
692,76.0,120,120,1.0,0.0
693,54.0,0,180,5.0,0.0
694,73.0,70,120,1.0,0.0
695,63.0,0,180,4.0,0.0
696,57.0,25,180,4.0,0.0
697,69.0,505,90,1.0,0.0
698,73.0,0,480,1.0,0.0
699,64.0,0,660,4.0,0.0
700,52.0,5,660,5.0,0.0
701,69.0,185,480,2.0,0.0
702,71.0,170,180,1.0,0.0
703,68.0,0,180,2.0,0.0
704,72.0,95,120,1.0,0.0
705,73.0,180,90,1.0,0.0
706,57.0,0,150,5.0,0.0
707,64.0,85,150,4.0,0.0
708,73.0,120,120,1.0,0.0
709,72.0,95,120,1.0,0.0
710,73.0,145,90,1.0,0.0
711,75.0,95,120,1.0,0.0
712,76.0,180,90,1.0,0.0
713,61.0,0,150,5.0,0.0
714,64.0,85,150,4.0,0.0
715,76.0,120,120,1.0,0.0
716,78.0,95,120,1.0,0.0
717,76.0,145,90,1.0,0.0
718,76.0,95,120,1.0,0.0
719,71.0,180,90,1.0,0.0
720,64.0,85,150,4.0,0.0
721,56.0,0,150,5.0,0.0
722,71.0,120,120,1.0,0.0
723,70.0,95,120,1.0,0.0
724,71.0,145,90,1.0,0.0
725,73.0,95,120,1.0,0.0
726,74.0,180,90,1.0,0.0
727,64.0,85,150,4.0,0.0
728,59.0,0,150,5.0,0.0
729,74.0,120,120,1.0,0.0
730,76.0,95,120,1.0,0.0
731,74.0,145,90,1.0,0.0
732,74.0,95,120,1.0,0.0
733,69.0,180,90,1.0,0.0
734,54.0,0,150,5.0,0.0
735,64.0,85,150,4.0,0.0
736,69.0,120,120,1.0,0.0
737,64.0,60,150,4.0,0.0
738,73.0,35,120,1.0,0.0
739,56.0,0,150,5.0,0.0
740,71.0,145,90,1.0,0.0
741,74.0,95,120,1.0,0.0
742,73.0,180,90,1.0,0.0
743,57.0,85,150,5.0,0.0
744,64.0,0,150,4.0,0.0
745,73.0,120,120,1.0,0.0
746,50.0,60,150,5.0,0.0
747,76.0,35,120,1.0,0.0
748,59.0,0,150,4.0,0.0
749,74.0,145,90,1.0,0.0
750,72.0,95,120,1.0,0.0
751,73.0,180,90,1.0,0.0
752,57.0,85,150,4.0,0.0
753,52.0,0,150,5.0,0.0
754,73.0,120,120,1.0,0.0
755,74.0,35,120,1.0,0.0
756,56.0,0,150,4.0,0.0
757,52.0,60,150,5.0,0.0
758,71.0,180,90,1.0,0.0
759,68.0,155,480,2.0,0.0
760,57.0,205,150,4.0,0.0
761,71.0,35,360,1.0,0.0
762,52.0,85,150,5.0,0.0
763,72.0,0,120,1.0,0.0
764,73.0,0,180,1.0,0.0
765,45.0,35,150,5.0,0.0
766,69.0,240,180,2.0,0.0
767,64.0,0,180,2.0,0.0
768,33.0,70,360,5.0,0.0
769,73.0,0,180,1.0,0.0
770,69.0,25,180,2.0,0.0
771,45.0,120,90,3.0,0.0
772,45.0,25,90,3.0,0.0
773,69.0,0,180,2.0,0.0
774,73.0,25,180,1.0,0.0
775,64.0,0,180,2.0,0.0
776,45.0,205,90,3.0,0.0
777,35.0,10,180,5.0,0.0
778,74.0,0,180,1.0,0.0
779,68.0,25,180,2.0,0.0
780,64.0,0,180,2.0,0.0
781,47.0,215,90,3.0,0.0
782,37.0,70,360,5.0,0.0
783,64.0,25,180,2.0,0.0
784,69.0,0,180,2.0,0.0
785,76.0,0,180,1.0,0.0
786,49.0,120,90,3.0,0.0
787,76.0,0,180,1.0,0.0
788,49.0,25,90,3.0,0.0
789,69.0,25,180,2.0,0.0
790,49.0,145,90,3.0,0.0
791,78.0,60,120,1.0,0.0
792,38.0,0,180,5.0,0.0
793,69.0,25,180,2.0,0.0
794,50.0,15,90,3.0,0.0
795,80.0,10,60,1.0,0.0
796,81.0,200,60,1.0,0.0
797,40.0,70,600,5.0,0.0
798,69.0,0,180,1.0,0.0
799,61.0,0,180,2.0,0.0
800,64.0,25,180,2.0,0.0
801,52.0,120,90,3.0,0.0
802,69.0,25,180,1.0,0.0
803,52.0,95,90,3.0,0.0
804,61.0,0,180,2.0,0.0
805,64.0,0,180,2.0,0.0
806,52.0,120,90,3.0,0.0
807,52.0,25,90,3.0,0.0
808,62.0,0,180,2.0,0.0
809,68.0,0,180,2.0,0.0
810,71.0,0,180,1.0,0.0
811,64.0,25,180,2.0,0.0
812,52.0,215,90,3.0,0.0
813,33.0,190,240,5.0,0.0
814,61.0,0,180,2.0,0.0
815,64.0,0,180,2.0,0.0
816,69.0,50,180,1.0,0.0
817,45.0,531,180,5.0,0.0
818,73.0,10,300,1.0,0.0
819,57.0,69,240,4.0,0.0
820,63.0,160,150,3.0,0.0
821,64.0,241,150,3.0,0.0
822,73.0,10,300,1.0,0.0
823,57.0,69,240,4.0,0.0
824,63.0,160,150,3.0,0.0
825,64.0,80,150,3.0,0.0
826,74.0,60,90,1.0,0.0
827,59.0,79,240,4.0,0.0
828,76.0,60,90,1.0,0.0
829,74.0,40,90,1.0,0.0
830,63.0,0,150,3.0,0.0
831,76.0,1,60,1.0,0.0
832,74.0,80,90,1.0,0.0
833,73.0,80,90,1.0,0.0
834,64.0,0,150,3.0,0.0
835,74.0,241,90,1.0,0.0
836,76.0,95,390,1.0,0.0
837,61.0,79,240,4.0,0.0
838,63.0,65,150,3.0,0.0
839,64.0,241,150,3.0,0.0
840,61.0,79,240,4.0,0.0
841,63.0,160,150,3.0,0.0
842,64.0,120,150,3.0,0.0
843,57.0,79,240,4.0,0.0
844,78.0,120,120,1.0,0.0
845,76.0,1,120,1.0,0.0
846,63.0,40,150,3.0,0.0
847,74.0,85,120,1.0,0.0
848,64.0,35,120,3.0,0.0
849,73.0,241,120,1.0,0.0
850,71.0,10,300,1.0,0.0
851,56.0,69,240,4.0,0.0
852,63.0,160,150,3.0,0.0
853,64.0,241,150,3.0,0.0
854,71.0,10,300,1.0,0.0
855,56.0,69,240,4.0,0.0
856,63.0,160,150,3.0,0.0
857,64.0,65,150,3.0,0.0
858,73.0,60,60,1.0,0.0
859,57.0,4,240,4.0,0.0
860,74.0,75,60,1.0,0.0
861,73.0,41,90,1.0,0.0
862,63.0,80,150,3.0,0.0
863,74.0,75,60,1.0,0.0
864,73.0,0,90,1.0,0.0
865,71.0,80,90,1.0,0.0
866,64.0,241,150,3.0,0.0
867,73.0,0,90,1.0,0.0
868,74.0,95,390,1.0,0.0
869,59.0,79,240,4.0,0.0
870,63.0,65,150,3.0,0.0
871,64.0,241,150,3.0,0.0
872,59.0,79,240,4.0,0.0
873,63.0,160,150,3.0,0.0
874,64.0,120,150,3.0,0.0
875,56.0,79,240,4.0,0.0
876,76.0,120,120,1.0,0.0
877,74.0,1,120,1.0,0.0
878,63.0,40,150,3.0,0.0
879,73.0,85,120,1.0,0.0
880,64.0,35,120,3.0,0.0
881,71.0,241,120,1.0,0.0
882,54.0,69,240,4.0,0.0
883,69.0,10,300,1.0,0.0
884,63.0,160,150,3.0,0.0
885,64.0,241,150,3.0,0.0
886,69.0,10,300,1.0,0.0
887,54.0,69,240,4.0,0.0
888,63.0,160,150,3.0,0.0
889,64.0,80,150,3.0,0.0
890,69.0,45,90,1.0,0.0
891,54.0,79,240,4.0,0.0
892,71.0,75,60,1.0,0.0
893,69.0,30,90,1.0,0.0
894,63.0,0,150,3.0,0.0
895,71.0,11,60,1.0,0.0
896,69.0,80,90,1.0,0.0
897,64.0,241,150,3.0,0.0
898,68.0,80,90,1.0,0.0
899,69.0,0,90,1.0,0.0
900,71.0,10,300,1.0,0.0
901,56.0,69,240,4.0,0.0
902,62.0,160,150,3.0,0.0
903,64.0,241,150,3.0,0.0
904,71.0,10,300,1.0,0.0
905,56.0,69,240,4.0,0.0
906,62.0,160,150,3.0,0.0
907,64.0,80,150,3.0,0.0
908,71.0,60,90,1.0,0.0
909,56.0,79,240,4.0,0.0
910,73.0,60,90,1.0,0.0
911,71.0,40,90,1.0,0.0
912,73.0,1,90,1.0,0.0
913,62.0,0,150,3.0,0.0
914,71.0,80,90,1.0,0.0
915,69.0,40,90,1.0,0.0
916,64.0,40,120,3.0,0.0
917,71.0,241,90,1.0,0.0
918,57.0,69,240,4.0,0.0
919,73.0,10,300,1.0,0.0
920,61.0,160,150,3.0,0.0
921,64.0,241,150,3.0,0.0
922,73.0,10,300,1.0,0.0
923,57.0,69,240,4.0,0.0
924,61.0,160,150,3.0,0.0
925,64.0,120,150,3.0,0.0
926,76.0,121,120,1.0,0.0
927,71.0,55,420,2.0,0.0
928,50.0,79,240,4.0,0.0
929,74.0,0,300,1.0,0.0
930,54.0,105,150,3.0,0.0
931,59.0,241,150,3.0,0.0
932,52.0,79,240,4.0,0.0
933,73.0,0,960,1.0,0.0
934,69.0,241,960,2.0,0.0
935,57.0,160,150,3.0,0.0
936,61.0,241,150,3.0,0.0
937,52.0,79,240,4.0,0.0
938,57.0,160,150,3.0,0.0
939,61.0,0,150,3.0,0.0
940,52.0,79,240,4.0,0.0
941,71.0,0,390,1.0,0.0
942,68.0,55,390,2.0,0.0
943,56.0,65,150,3.0,0.0
944,59.0,200,120,3.0,0.0
945,73.0,150,150,1.0,0.0
946,45.0,10,300,5.0,0.0
947,69.0,160,150,3.0,0.0
948,64.0,60,150,3.0,0.0
949,56.0,100,60,5.0,0.0
950,73.0,160,150,1.0,0.0
951,57.0,0,270,5.0,0.0
952,69.0,160,150,3.0,0.0
953,64.0,160,150,3.0,0.0
954,74.0,160,150,1.0,0.0
955,71.0,160,150,3.0,0.0
956,64.0,160,150,3.0,0.0
957,76.0,150,150,1.0,0.0
958,45.0,10,300,5.0,0.0
959,73.0,160,150,3.0,0.0
960,64.0,60,150,3.0,0.0
961,76.0,155,150,3.0,0.0
962,56.0,100,60,5.0,0.0
963,57.0,5,240,5.0,0.0
964,73.0,125,150,3.0,0.0
965,64.0,155,120,3.0,0.0
966,78.0,120,120,1.0,0.0
967,76.0,120,120,1.0,0.0
968,74.0,95,120,1.0,0.0
969,73.0,185,90,1.0,0.0
970,71.0,150,150,1.0,0.0
971,40.0,10,300,5.0,0.0
972,68.0,160,150,3.0,0.0
973,64.0,60,150,3.0,0.0
974,51.0,100,60,5.0,0.0
975,71.0,160,150,1.0,0.0
976,52.0,160,270,5.0,0.0
977,68.0,0,150,3.0,0.0
978,64.0,160,150,3.0,0.0
979,73.0,160,150,1.0,0.0
980,69.0,160,150,3.0,0.0
981,64.0,160,150,3.0,0.0
982,74.0,150,150,1.0,0.0
983,40.0,10,300,5.0,0.0
984,71.0,160,150,3.0,0.0
985,64.0,60,150,3.0,0.0
986,51.0,100,60,5.0,0.0
987,74.0,160,150,3.0,0.0
988,52.0,125,270,5.0,0.0
989,71.0,0,150,3.0,0.0
990,64.0,155,120,3.0,0.0
991,76.0,120,120,1.0,0.0
992,74.0,120,120,1.0,0.0
993,73.0,95,120,1.0,0.0
994,71.0,185,90,1.0,0.0
995,69.0,150,150,1.0,0.0
996,42.0,10,300,5.0,0.0
997,64.0,155,150,3.0,0.0
998,61.0,80,150,3.0,0.0
999,53.0,85,60,5.0,0.0
1000,69.0,160,150,1.0,0.0
1001,54.0,160,270,5.0,0.0
1002,64.0,0,150,3.0,0.0
1003,61.0,75,150,3.0,0.0
1004,55.0,85,60,5.0,0.0
1005,71.0,160,150,1.0,0.0
1006,56.0,125,270,5.0,0.0
1007,64.0,0,150,3.0,0.0
1008,62.0,195,120,3.0,0.0
1009,73.0,150,150,1.0,0.0
1010,45.0,10,300,5.0,0.0
1011,69.0,160,150,3.0,0.0
1012,64.0,75,150,3.0,0.0
1013,56.0,85,60,5.0,0.0
1014,73.0,160,150,1.0,0.0
1015,57.0,155,270,5.0,0.0
1016,69.0,5,150,3.0,0.0
1017,64.0,75,150,3.0,0.0
1018,49.0,85,60,5.0,0.0
1019,74.0,150,150,1.0,0.0
1020,50.0,10,240,5.0,0.0
1021,71.0,120,150,3.0,0.0
1022,66.0,200,120,3.0,0.0
1023,73.0,150,150,1.0,0.0
1024,40.0,10,300,5.0,0.0
1025,69.0,160,150,3.0,0.0
1026,64.0,80,150,3.0,0.0
1027,51.0,80,90,5.0,0.0
1028,73.0,160,150,1.0,0.0
1029,52.0,0,270,5.0,0.0
1030,69.0,160,150,3.0,0.0
1031,64.0,80,150,3.0,0.0
1032,51.0,80,90,5.0,0.0
1033,71.0,160,150,1.0,0.0
1034,52.0,155,270,5.0,0.0
1035,68.0,5,150,3.0,0.0
1036,62.0,160,150,3.0,0.0
1037,33.0,10,300,5.0,0.0
1038,69.0,150,150,1.0,0.0
1039,64.0,160,150,1.0,0.0
1040,61.0,70,150,1.0,0.0
1041,44.0,245,60,5.0,0.0
1042,57.0,881,330,1.0,0.0
1043,45.0,5,240,5.0,0.0
1044,73.0,10,300,1.0,0.0
1045,57.0,69,240,4.0,0.0
1046,63.0,160,150,3.0,0.0
1047,64.0,241,150,3.0,0.0
1048,57.0,69,240,4.0,0.0
1049,73.0,10,300,1.0,0.0
1050,63.0,160,150,3.0,0.0
1051,64.0,80,150,3.0,0.0
1052,59.0,79,240,4.0,0.0
1053,74.0,60,90,1.0,0.0
1054,76.0,60,90,1.0,0.0
1055,74.0,40,90,1.0,0.0
1056,63.0,80,150,3.0,0.0
1057,76.0,1,60,1.0,0.0
1058,74.0,0,90,1.0,0.0
1059,73.0,80,90,1.0,0.0
1060,64.0,241,150,3.0,0.0
1061,74.0,0,90,1.0,0.0
1062,76.0,95,390,1.0,0.0
1063,61.0,79,240,4.0,0.0
1064,63.0,65,150,3.0,0.0
1065,64.0,241,150,3.0,0.0
1066,61.0,79,240,4.0,0.0
1067,63.0,160,150,3.0,0.0
1068,64.0,120,150,3.0,0.0
1069,78.0,120,120,1.0,0.0
1070,57.0,79,240,4.0,0.0
1071,76.0,1,120,1.0,0.0
1072,63.0,40,150,3.0,0.0
1073,74.0,85,120,1.0,0.0
1074,64.0,35,120,3.0,0.0
1075,73.0,241,120,1.0,0.0
1076,71.0,10,300,1.0,0.0
1077,56.0,69,240,4.0,0.0
1078,63.0,160,150,3.0,0.0
1079,64.0,241,150,3.0,0.0
1080,71.0,10,300,1.0,0.0
1081,56.0,69,240,4.0,0.0
1082,63.0,160,150,3.0,0.0
1083,64.0,65,150,3.0,0.0
1084,73.0,60,60,1.0,0.0
1085,57.0,4,240,4.0,0.0
1086,74.0,75,60,1.0,0.0
1087,73.0,41,90,1.0,0.0
1088,63.0,0,150,3.0,0.0
1089,74.0,75,60,1.0,0.0
1090,73.0,80,90,1.0,0.0
1091,64.0,0,150,3.0,0.0
1092,71.0,80,90,1.0,0.0
1093,73.0,241,90,1.0,0.0
1094,74.0,95,390,1.0,0.0
1095,59.0,79,240,4.0,0.0
1096,63.0,65,150,3.0,0.0
1097,64.0,241,150,3.0,0.0
1098,59.0,79,240,4.0,0.0
1099,63.0,160,150,3.0,0.0
1100,64.0,120,150,3.0,0.0
1101,56.0,79,240,4.0,0.0
1102,76.0,120,120,1.0,0.0
1103,74.0,1,120,1.0,0.0
1104,63.0,40,150,3.0,0.0
1105,73.0,85,120,1.0,0.0
1106,64.0,35,120,3.0,0.0
1107,71.0,241,120,1.0,0.0
1108,54.0,69,240,4.0,0.0
1109,69.0,10,300,1.0,0.0
1110,63.0,160,150,3.0,0.0
1111,64.0,241,150,3.0,0.0
1112,54.0,69,240,4.0,0.0
1113,69.0,10,300,1.0,0.0
1114,63.0,160,150,3.0,0.0
1115,64.0,80,150,3.0,0.0
1116,54.0,79,240,4.0,0.0
1117,69.0,45,90,1.0,0.0
1118,71.0,75,60,1.0,0.0
1119,69.0,30,90,1.0,0.0
1120,71.0,11,60,1.0,0.0
1121,63.0,0,150,3.0,0.0
1122,69.0,80,90,1.0,0.0
1123,64.0,241,150,3.0,0.0
1124,68.0,80,90,1.0,0.0
1125,69.0,0,90,1.0,0.0
1126,71.0,10,300,1.0,0.0
1127,56.0,69,240,4.0,0.0
1128,62.0,160,150,3.0,0.0
1129,64.0,241,150,3.0,0.0
1130,56.0,69,240,4.0,0.0
1131,71.0,10,300,1.0,0.0
1132,62.0,160,150,3.0,0.0
1133,64.0,80,150,3.0,0.0
1134,71.0,60,90,1.0,0.0
1135,56.0,79,240,4.0,0.0
1136,73.0,60,90,1.0,0.0
1137,71.0,40,90,1.0,0.0
1138,62.0,80,150,3.0,0.0
1139,73.0,1,90,1.0,0.0
1140,71.0,0,90,1.0,0.0
1141,69.0,40,90,1.0,0.0
1142,64.0,40,120,3.0,0.0
1143,71.0,241,90,1.0,0.0
1144,73.0,10,300,1.0,0.0
1145,57.0,69,240,4.0,0.0
1146,61.0,160,150,3.0,0.0
1147,64.0,241,150,3.0,0.0
1148,73.0,10,300,1.0,0.0
1149,57.0,69,240,4.0,0.0
1150,61.0,160,150,3.0,0.0
1151,64.0,120,150,3.0,0.0
1152,71.0,55,420,2.0,0.0
1153,50.0,79,240,4.0,0.0
1154,76.0,121,120,1.0,0.0
1155,74.0,0,300,1.0,0.0
1156,54.0,105,150,3.0,0.0
1157,59.0,241,150,3.0,0.0
1158,73.0,0,960,1.0,0.0
1159,69.0,241,960,2.0,0.0
1160,52.0,79,240,4.0,0.0
1161,57.0,160,150,3.0,0.0
1162,61.0,241,150,3.0,0.0
1163,52.0,79,240,4.0,0.0
1164,57.0,160,150,3.0,0.0
1165,61.0,0,150,3.0,0.0
1166,52.0,79,240,4.0,0.0
1167,71.0,0,390,1.0,0.0
1168,68.0,55,390,2.0,0.0
1169,56.0,65,150,3.0,0.0
1170,59.0,200,120,3.0,0.0
1171,73.0,150,150,1.0,0.0
1172,45.0,10,300,5.0,0.0
1173,69.0,160,150,3.0,0.0
1174,64.0,60,150,3.0,0.0
1175,73.0,160,150,1.0,0.0
1176,56.0,100,60,5.0,0.0
1177,57.0,160,270,5.0,0.0
1178,69.0,0,150,3.0,0.0
1179,64.0,160,150,3.0,0.0
1180,74.0,160,150,1.0,0.0
1181,71.0,160,150,3.0,0.0
1182,64.0,160,150,3.0,0.0
1183,76.0,150,150,1.0,0.0
1184,45.0,10,300,5.0,0.0
1185,73.0,160,150,3.0,0.0
1186,64.0,60,150,3.0,0.0
1187,56.0,100,60,5.0,0.0
1188,76.0,155,150,3.0,0.0
1189,57.0,5,240,5.0,0.0
1190,73.0,125,150,3.0,0.0
1191,64.0,155,120,3.0,0.0
1192,78.0,120,120,1.0,0.0
1193,76.0,120,120,1.0,0.0
1194,74.0,95,120,1.0,0.0
1195,73.0,185,90,1.0,0.0
1196,71.0,150,150,1.0,0.0
1197,40.0,10,300,5.0,0.0
1198,68.0,160,150,3.0,0.0
1199,64.0,60,150,3.0,0.0
1200,71.0,160,150,1.0,0.0
1201,51.0,100,60,5.0,0.0
1202,52.0,160,270,5.0,0.0
1203,68.0,0,150,3.0,0.0
1204,64.0,160,150,3.0,0.0
1205,73.0,160,150,1.0,0.0
1206,69.0,160,150,3.0,0.0
1207,64.0,160,150,3.0,0.0
1208,74.0,150,150,1.0,0.0
1209,40.0,10,300,5.0,0.0
1210,71.0,160,150,3.0,0.0
1211,64.0,60,150,3.0,0.0
1212,74.0,160,150,3.0,0.0
1213,51.0,100,60,5.0,0.0
1214,52.0,0,270,5.0,0.0
1215,71.0,125,150,3.0,0.0
1216,64.0,155,120,3.0,0.0
1217,76.0,120,120,1.0,0.0
1218,74.0,120,120,1.0,0.0
1219,73.0,95,120,1.0,0.0
1220,71.0,185,90,1.0,0.0
1221,42.0,10,300,5.0,0.0
1222,69.0,150,150,1.0,0.0
1223,64.0,155,150,3.0,0.0
1224,61.0,80,150,3.0,0.0
1225,69.0,160,150,1.0,0.0
1226,53.0,85,60,5.0,0.0
1227,54.0,160,270,5.0,0.0
1228,64.0,0,150,3.0,0.0
1229,61.0,75,150,3.0,0.0
1230,71.0,160,150,1.0,0.0
1231,55.0,85,60,5.0,0.0
1232,56.0,0,270,5.0,0.0
1233,64.0,125,150,3.0,0.0
1234,62.0,195,120,3.0,0.0
1235,73.0,150,150,1.0,0.0
1236,45.0,10,300,5.0,0.0
1237,69.0,160,150,3.0,0.0
1238,64.0,75,150,3.0,0.0
1239,73.0,160,150,1.0,0.0
1240,56.0,85,60,5.0,0.0
1241,57.0,155,270,5.0,0.0
1242,69.0,5,150,3.0,0.0
1243,64.0,75,150,3.0,0.0
1244,49.0,85,60,5.0,0.0
1245,74.0,150,150,1.0,0.0
1246,50.0,10,240,5.0,0.0
1247,71.0,120,150,3.0,0.0
1248,66.0,200,120,3.0,0.0
1249,73.0,150,150,1.0,0.0
1250,40.0,10,300,5.0,0.0
1251,69.0,160,150,3.0,0.0
1252,64.0,80,150,3.0,0.0
1253,51.0,80,90,5.0,0.0
1254,73.0,160,150,1.0,0.0
1255,52.0,0,270,5.0,0.0
1256,69.0,160,150,3.0,0.0
1257,64.0,80,150,3.0,0.0
1258,71.0,160,150,1.0,0.0
1259,51.0,80,90,5.0,0.0
1260,52.0,155,270,5.0,0.0
1261,68.0,5,150,3.0,0.0
1262,62.0,160,150,3.0,0.0
1263,69.0,150,150,1.0,0.0
1264,33.0,10,300,5.0,0.0
1265,64.0,160,150,1.0,0.0
1266,61.0,70,150,1.0,0.0
1267,57.0,881,330,1.0,0.0
1268,44.0,245,60,5.0,0.0
1269,45.0,5,240,5.0,0.0
1270,76.0,10,300,1.0,0.0
1271,57.0,69,240,4.0,0.0
1272,61.0,160,150,3.0,0.0
1273,64.0,241,150,3.0,0.0
1274,57.0,69,240,4.0,0.0
1275,74.0,10,300,1.0,0.0
1276,59.0,160,150,3.0,0.0
1277,62.0,241,150,3.0,0.0
1278,57.0,69,240,4.0,0.0
1279,76.0,10,300,1.0,0.0
1280,61.0,160,150,3.0,0.0
1281,64.0,241,150,3.0,0.0
1282,78.0,10,300,1.0,0.0
1283,57.0,69,240,4.0,0.0
1284,62.0,160,150,3.0,0.0
1285,66.0,241,150,3.0,0.0
1286,57.0,79,240,4.0,0.0
1287,62.0,160,150,3.0,0.0
1288,66.0,80,150,3.0,0.0
1289,78.0,80,90,1.0,0.0
1290,57.0,79,240,4.0,0.0
1291,80.0,80,90,1.0,0.0
1292,62.0,0,150,3.0,0.0
1293,78.0,1,90,1.0,0.0
1294,76.0,80,90,1.0,0.0
1295,66.0,45,120,3.0,0.0
1296,78.0,35,90,1.0,0.0
1297,80.0,241,90,1.0,0.0
1298,81.0,10,300,1.0,0.0
1299,57.0,69,240,4.0,0.0
1300,66.0,160,150,3.0,0.0
1301,69.0,241,150,3.0,0.0
1302,80.0,10,300,1.0,0.0
1303,57.0,69,240,4.0,0.0
1304,64.0,160,150,3.0,0.0
1305,68.0,241,150,3.0,0.0
1306,57.0,69,240,4.0,0.0
1307,78.0,10,300,1.0,0.0
1308,62.0,160,150,3.0,0.0
1309,66.0,241,150,3.0,0.0
1310,57.0,69,240,4.0,0.0
1311,76.0,10,300,1.0,0.0
1312,61.0,160,150,3.0,0.0
1313,64.0,241,150,3.0,0.0
1314,57.0,79,240,4.0,0.0
1315,61.0,160,150,3.0,0.0
1316,64.0,80,150,3.0,0.0
1317,57.0,79,240,4.0,0.0
1318,73.0,80,90,1.0,0.0
1319,74.0,80,90,1.0,0.0
1320,73.0,1,90,1.0,0.0
1321,61.0,0,150,3.0,0.0
1322,71.0,80,90,1.0,0.0
1323,73.0,40,90,1.0,0.0
1324,64.0,40,120,3.0,0.0
1325,74.0,241,90,1.0,0.0
1326,57.0,79,240,4.0,0.0
1327,76.0,0,480,1.0,0.0
1328,61.0,160,150,3.0,0.0
1329,64.0,241,150,3.0,0.0
1330,73.0,95,390,1.0,0.0
1331,57.0,79,240,4.0,0.0
1332,61.0,65,150,3.0,0.0
1333,64.0,241,150,3.0,0.0
1334,57.0,79,240,4.0,0.0
1335,61.0,125,150,3.0,0.0
1336,64.0,10,120,3.0,0.0
1337,69.0,266,90,1.0,0.0
1338,59.0,79,240,4.0,0.0
1339,76.0,241,480,1.0,0.0
1340,62.0,160,150,3.0,0.0
1341,64.0,0,150,3.0,0.0
1342,59.0,79,240,4.0,0.0
1343,74.0,95,390,1.0,0.0
1344,62.0,65,150,3.0,0.0
1345,64.0,241,150,3.0,0.0
1346,59.0,79,240,4.0,0.0
1347,62.0,120,150,3.0,0.0
1348,64.0,15,120,3.0,0.0
1349,71.0,266,90,1.0,0.0
1350,76.0,241,480,1.0,0.0
1351,57.0,79,240,4.0,0.0
1352,61.0,160,150,3.0,0.0
1353,64.0,0,150,3.0,0.0
1354,57.0,79,240,4.0,0.0
1355,73.0,95,390,1.0,0.0
1356,61.0,65,150,3.0,0.0
1357,64.0,241,150,3.0,0.0
1358,54.0,79,240,4.0,0.0
1359,69.0,55,390,1.0,0.0
1360,57.0,65,150,3.0,0.0
1361,63.0,1000,120,3.0,0.0
1362,69.0,380,960,2.0,0.0
1363,73.0,0,960,1.0,0.0
1364,52.0,331,1350,4.0,0.0
1365,64.0,5,1350,3.0,0.0
1366,71.0,5,390,1.0,0.0
1367,68.0,0,390,2.0,0.0
1368,73.0,10,300,1.0,0.0
1369,57.0,69,240,4.0,0.0
1370,63.0,160,150,3.0,0.0
1371,64.0,241,150,3.0,0.0
1372,73.0,10,300,1.0,0.0
1373,57.0,69,240,4.0,0.0
1374,63.0,160,150,3.0,0.0
1375,64.0,80,150,3.0,0.0
1376,74.0,60,90,1.0,0.0
1377,59.0,79,240,4.0,0.0
1378,76.0,40,90,1.0,0.0
1379,74.0,60,60,1.0,0.0
1380,76.0,1,90,1.0,0.0
1381,63.0,0,150,3.0,0.0
1382,74.0,80,90,1.0,0.0
1383,64.0,0,150,3.0,0.0
1384,73.0,80,90,1.0,0.0
1385,74.0,241,90,1.0,0.0
1386,61.0,79,240,4.0,0.0
1387,76.0,95,390,1.0,0.0
1388,63.0,65,150,3.0,0.0
1389,64.0,241,150,3.0,0.0
1390,61.0,79,240,4.0,0.0
1391,63.0,160,150,3.0,0.0
1392,64.0,120,150,3.0,0.0
1393,78.0,120,120,1.0,0.0
1394,57.0,79,240,4.0,0.0
1395,76.0,1,120,1.0,0.0
1396,63.0,40,150,3.0,0.0
1397,74.0,85,120,1.0,0.0
1398,64.0,35,120,3.0,0.0
1399,73.0,241,120,1.0,0.0
1400,71.0,10,300,1.0,0.0
1401,56.0,69,240,4.0,0.0
1402,63.0,160,150,3.0,0.0
1403,64.0,241,150,3.0,0.0
1404,71.0,10,300,1.0,0.0
1405,56.0,69,240,4.0,0.0
1406,63.0,160,150,3.0,0.0
1407,64.0,80,150,3.0,0.0
1408,73.0,60,90,1.0,0.0
1409,57.0,79,240,4.0,0.0
1410,74.0,40,90,1.0,0.0
1411,73.0,60,60,1.0,0.0
1412,74.0,1,90,1.0,0.0
1413,63.0,0,150,3.0,0.0
1414,73.0,80,90,1.0,0.0
1415,64.0,0,150,3.0,0.0
1416,71.0,80,90,1.0,0.0
1417,73.0,241,90,1.0,0.0
1418,74.0,95,390,1.0,0.0
1419,59.0,79,240,4.0,0.0
1420,63.0,65,150,3.0,0.0
1421,64.0,241,150,3.0,0.0
1422,59.0,79,240,4.0,0.0
1423,63.0,160,150,3.0,0.0
1424,64.0,120,150,3.0,0.0
1425,56.0,79,240,4.0,0.0
1426,76.0,120,120,1.0,0.0
1427,74.0,1,120,1.0,0.0
1428,63.0,40,150,3.0,0.0
1429,73.0,80,120,1.0,0.0
1430,64.0,40,120,3.0,0.0
1431,71.0,241,120,1.0,0.0
1432,69.0,10,300,1.0,0.0
1433,54.0,69,240,4.0,0.0
1434,63.0,160,150,3.0,0.0
1435,64.0,241,150,3.0,0.0
1436,54.0,69,240,4.0,0.0
1437,69.0,10,300,1.0,0.0
1438,63.0,160,150,3.0,0.0
1439,64.0,80,150,3.0,0.0
1440,56.0,79,240,4.0,0.0
1441,71.0,60,90,1.0,0.0
1442,73.0,40,90,1.0,0.0
1443,71.0,60,60,1.0,0.0
1444,62.0,80,150,3.0,0.0
1445,73.0,1,90,1.0,0.0
1446,71.0,0,90,1.0,0.0
1447,64.0,0,150,3.0,0.0
1448,69.0,80,90,1.0,0.0
1449,71.0,241,90,1.0,0.0
1450,73.0,10,300,1.0,0.0
1451,57.0,69,240,4.0,0.0
1452,61.0,160,150,3.0,0.0
1453,64.0,241,150,3.0,0.0
1454,73.0,10,300,1.0,0.0
1455,57.0,69,240,4.0,0.0
1456,61.0,160,150,3.0,0.0
1457,64.0,80,150,3.0,0.0
1458,74.0,60,90,1.0,0.0
1459,50.0,79,240,4.0,0.0
1460,76.0,40,90,1.0,0.0
1461,74.0,60,60,1.0,0.0
1462,54.0,80,150,3.0,0.0
1463,76.0,1,90,1.0,0.0
1464,74.0,0,90,1.0,0.0
1465,59.0,40,120,3.0,0.0
1466,73.0,40,90,1.0,0.0
1467,74.0,241,90,1.0,0.0
1468,52.0,79,240,4.0,0.0
1469,73.0,95,390,1.0,0.0
1470,57.0,65,150,3.0,0.0
1471,61.0,241,150,3.0,0.0
1472,52.0,79,240,4.0,0.0
1473,73.0,95,390,1.0,0.0
1474,57.0,65,150,3.0,0.0
1475,61.0,80,150,3.0,0.0
1476,52.0,79,240,4.0,0.0
1477,73.0,80,90,1.0,0.0
1478,71.0,80,90,1.0,0.0
1479,73.0,1,90,1.0,0.0
1480,56.0,0,150,3.0,0.0
1481,71.0,80,90,1.0,0.0
1482,62.0,5,120,3.0,0.0
1483,69.0,45,90,1.0,0.0
1484,71.0,510,60,1.0,0.0
1485,68.0,385,960,2.0,0.0
1486,71.0,480,480,1.0,0.0
1487,64.0,0,1350,3.0,0.0
1488,62.0,0,960,3.0,0.0
1489,57.0,0,1350,4.0,0.0
1490,72.0,0,480,1.0,0.0
1491,61.0,0,390,3.0,0.0
1492,73.0,0,390,1.0,0.0
1493,69.0,255,390,2.0,0.0
1494,45.0,95,390,5.0,0.0
1495,73.0,160,150,1.0,0.0
1496,69.0,65,150,3.0,0.0
1497,64.0,75,150,3.0,0.0
1498,56.0,85,60,5.0,0.0
1499,73.0,160,150,1.0,0.0
1500,57.0,115,300,5.0,0.0
1501,69.0,45,150,3.0,0.0
1502,64.0,75,150,3.0,0.0
1503,74.0,160,150,1.0,0.0
1504,58.0,85,60,5.0,0.0
1505,59.0,70,300,5.0,0.0
1506,71.0,45,150,3.0,0.0
1507,64.0,205,120,3.0,0.0
1508,76.0,160,150,1.0,0.0
1509,49.0,95,390,5.0,0.0
1510,73.0,65,150,3.0,0.0
1511,69.0,75,150,3.0,0.0
1512,60.0,85,60,5.0,0.0
1513,76.0,160,150,1.0,0.0
1514,61.0,115,300,5.0,0.0
1515,73.0,45,150,3.0,0.0
1516,69.0,70,150,3.0,0.0
1517,78.0,160,150,1.0,0.0
1518,61.0,90,60,5.0,0.0
1519,62.0,80,300,5.0,0.0
1520,71.0,40,150,3.0,0.0
1521,69.0,200,120,3.0,0.0
1522,40.0,95,390,5.0,0.0
1523,73.0,160,150,1.0,0.0
1524,69.0,65,150,3.0,0.0
1525,64.0,75,150,3.0,0.0
1526,73.0,160,150,1.0,0.0
1527,51.0,85,60,5.0,0.0
1528,52.0,115,300,5.0,0.0
1529,69.0,45,150,3.0,0.0
1530,64.0,80,150,3.0,0.0
1531,51.0,80,90,5.0,0.0
1532,71.0,160,150,1.0,0.0
1533,52.0,120,300,5.0,0.0
1534,68.0,40,150,3.0,0.0
1535,62.0,160,150,3.0,0.0
1536,69.0,160,150,1.0,0.0
1537,33.0,95,390,5.0,0.0
1538,64.0,65,150,1.0,0.0
1539,61.0,75,150,1.0,0.0
1540,57.0,815,390,1.0,0.0
1541,44.0,275,60,5.0,0.0
1542,45.0,35,300,5.0,0.0
1543,72.0,240,240,1.0,0.0
1544,57.0,0,720,5.0,0.0
1545,71.0,0,240,1.0,0.0
1546,64.0,240,240,3.0,0.0
1547,69.0,120,240,1.0,0.0
1548,60.0,120,360,3.0,0.0
1549,71.0,240,240,1.0,0.0
1550,64.0,0,240,3.0,0.0
1551,57.0,120,360,5.0,0.0
1552,72.0,120,240,1.0,0.0
1553,74.0,0,240,1.0,0.0
1554,64.0,240,240,3.0,0.0
1555,76.0,240,240,1.0,0.0
1556,57.0,120,720,5.0,0.0
1557,64.0,0,240,3.0,0.0
1558,75.0,240,240,1.0,0.0
1559,60.0,120,360,3.0,0.0
1560,77.0,0,240,1.0,0.0
1561,64.0,0,240,3.0,0.0
1562,76.0,240,240,1.0,0.0
1563,57.0,70,360,5.0,0.0
1564,74.0,120,240,1.0,0.0
1565,72.0,0,180,1.0,0.0
1566,64.0,290,180,3.0,0.0
1567,71.0,240,240,1.0,0.0
1568,52.0,0,720,5.0,0.0
1569,64.0,0,240,3.0,0.0
1570,69.0,240,240,1.0,0.0
1571,68.0,120,240,1.0,0.0
1572,59.0,120,360,3.0,0.0
1573,69.0,240,240,1.0,0.0
1574,64.0,0,240,3.0,0.0
1575,71.0,120,240,1.0,0.0
1576,52.0,120,360,5.0,0.0
1577,72.0,0,240,1.0,0.0
1578,64.0,240,240,3.0,0.0
1579,74.0,240,240,1.0,0.0
1580,52.0,0,720,5.0,0.0
1581,64.0,0,240,3.0,0.0
1582,73.0,240,240,1.0,0.0
1583,59.0,120,360,3.0,0.0
1584,76.0,120,240,1.0,0.0
1585,64.0,0,240,3.0,0.0
1586,74.0,240,240,1.0,0.0
1587,72.0,120,240,1.0,0.0
1588,52.0,70,360,5.0,0.0
1589,71.0,290,180,1.0,0.0
1590,64.0,0,180,3.0,0.0
1591,69.0,240,240,1.0,0.0
1592,57.0,120,720,5.0,0.0
1593,64.0,240,240,3.0,0.0
1594,76.0,0,240,1.0,0.0
1595,75.0,0,240,1.0,0.0
1596,60.0,120,360,3.0,0.0
1597,64.0,240,240,3.0,0.0
1598,76.0,0,240,1.0,0.0
1599,72.0,120,240,1.0,0.0
1600,57.0,70,360,5.0,0.0
1601,69.0,0,180,1.0,0.0
1602,64.0,290,180,3.0,0.0
1603,68.0,240,240,1.0,0.0
1604,59.0,186,720,5.0,0.0
1605,76.0,0,240,1.0,0.0
1606,64.0,240,240,3.0,0.0
1607,77.0,0,240,1.0,0.0
1608,62.0,54,420,3.0,0.0
1609,76.0,0,240,1.0,0.0
1610,64.0,240,240,3.0,0.0
1611,59.0,70,360,5.0,0.0
1612,74.0,120,240,1.0,0.0
1613,71.0,0,180,1.0,0.0
1614,64.0,290,180,3.0,0.0
1615,71.0,120,240,1.0,0.0
1616,60.0,120,360,5.0,0.0
1617,69.0,0,240,1.0,0.0
1618,64.0,240,240,3.0,0.0
1619,68.0,120,240,1.0,0.0
1620,59.0,120,360,5.0,0.0
1621,64.0,0,240,3.0,0.0
1622,69.0,240,240,1.0,0.0
1623,57.0,70,360,5.0,0.0
1624,71.0,120,240,1.0,0.0
1625,64.0,0,180,3.0,0.0
1626,72.0,530,180,1.0,0.0
1627,72.0,360,960,1.0,0.0
1628,69.0,190,780,2.0,0.0
1629,52.0,0,720,5.0,0.0
1630,64.0,240,240,3.0,0.0
1631,63.0,50,240,3.0,0.0
1632,64.0,0,240,3.0,0.0
1633,52.0,40,360,5.0,0.0
1634,71.0,5,390,1.0,0.0
1635,68.0,315,420,2.0,0.0
1636,64.0,0,150,3.0,0.0
1637,84.0,0,240,1.0,0.0
1638,57.0,0,720,5.0,0.0
1639,72.0,240,240,2.0,0.0
1640,64.0,0,240,3.0,0.0
1641,83.0,0,240,1.0,0.0
1642,71.0,240,240,2.0,0.0
1643,81.0,120,240,1.0,0.0
1644,60.0,120,360,3.0,0.0
1645,69.0,0,240,2.0,0.0
1646,64.0,0,240,3.0,0.0
1647,71.0,240,240,2.0,0.0
1648,83.0,0,240,1.0,0.0
1649,72.0,0,240,2.0,0.0
1650,57.0,120,360,5.0,0.0
1651,84.0,120,240,1.0,0.0
1652,64.0,0,240,3.0,0.0
1653,74.0,0,240,2.0,0.0
1654,86.0,240,240,1.0,0.0
1655,88.0,240,240,1.0,0.0
1656,57.0,0,720,5.0,0.0
1657,76.0,0,240,2.0,0.0
1658,75.0,0,240,2.0,0.0
1659,64.0,0,240,3.0,0.0
1660,87.0,240,240,1.0,0.0
1661,60.0,120,360,3.0,0.0
1662,77.0,120,240,2.0,0.0
1663,89.0,0,240,1.0,0.0
1664,88.0,0,240,1.0,0.0
1665,64.0,0,240,3.0,0.0
1666,76.0,240,240,2.0,0.0
1667,57.0,70,360,5.0,0.0
1668,86.0,0,240,1.0,0.0
1669,74.0,120,240,2.0,0.0
1670,64.0,290,180,3.0,0.0
1671,84.0,0,180,1.0,0.0
1672,72.0,0,180,2.0,0.0
1673,83.0,0,240,1.0,0.0
1674,52.0,0,720,5.0,0.0
1675,71.0,240,240,2.0,0.0
1676,64.0,0,240,3.0,0.0
1677,69.0,0,240,2.0,0.0
1678,81.0,240,240,1.0,0.0
1679,59.0,120,360,3.0,0.0
1680,68.0,0,240,2.0,0.0
1681,80.0,120,240,1.0,0.0
1682,64.0,0,240,3.0,0.0
1683,69.0,0,240,2.0,0.0
1684,81.0,240,240,1.0,0.0
1685,71.0,0,240,2.0,0.0
1686,83.0,120,240,1.0,0.0
1687,52.0,120,360,5.0,0.0
1688,64.0,240,240,3.0,0.0
1689,72.0,0,240,2.0,0.0
1690,84.0,0,240,1.0,0.0
1691,74.0,0,240,2.0,0.0
1692,86.0,240,240,1.0,0.0
1693,52.0,120,720,5.0,0.0
1694,73.0,0,240,2.0,0.0
1695,64.0,0,240,3.0,0.0
1696,85.0,240,240,1.0,0.0
1697,59.0,120,360,3.0,0.0
1698,88.0,0,240,1.0,0.0
1699,76.0,0,240,2.0,0.0
1700,74.0,240,240,2.0,0.0
1701,86.0,0,240,1.0,0.0
1702,64.0,0,240,3.0,0.0
1703,84.0,0,240,1.0,0.0
1704,52.0,70,360,5.0,0.0
1705,72.0,120,240,2.0,0.0
1706,83.0,0,180,1.0,0.0
1707,71.0,290,180,2.0,0.0
1708,64.0,0,180,3.0,0.0
1709,57.0,0,720,5.0,0.0
1710,81.0,0,240,1.0,0.0
1711,69.0,240,240,2.0,0.0
1712,80.0,0,240,1.0,0.0
1713,68.0,240,240,2.0,0.0
1714,64.0,0,240,3.0,0.0
1715,81.0,120,240,1.0,0.0
1716,69.0,0,240,2.0,0.0
1717,60.0,120,360,3.0,0.0
1718,72.0,0,240,2.0,0.0
1719,84.0,0,240,1.0,0.0
1720,64.0,240,240,3.0,0.0
1721,83.0,120,240,1.0,0.0
1722,56.0,70,360,5.0,0.0
1723,71.0,0,240,2.0,0.0
1724,74.0,5,180,2.0,0.0
1725,86.0,285,180,1.0,0.0
1726,64.0,0,180,3.0,0.0
1727,57.0,120,720,5.0,0.0
1728,84.0,0,240,1.0,0.0
1729,72.0,240,240,2.0,0.0
1730,64.0,240,240,3.0,0.0
1731,71.0,0,240,2.0,0.0
1732,83.0,0,240,1.0,0.0
1733,72.0,0,240,2.0,0.0
1734,84.0,0,240,1.0,0.0
1735,60.0,120,360,3.0,0.0
1736,88.0,0,240,1.0,0.0
1737,64.0,240,240,3.0,0.0
1738,76.0,0,240,2.0,0.0
1739,74.0,120,240,2.0,0.0
1740,86.0,0,240,1.0,0.0
1741,53.0,70,360,5.0,0.0
1742,77.0,0,180,2.0,0.0
1743,62.0,290,180,3.0,0.0
1744,89.0,0,180,1.0,0.0
1745,76.0,240,240,2.0,0.0
1746,88.0,0,240,1.0,0.0
1747,52.0,120,720,5.0,0.0
1748,60.0,0,240,3.0,0.0
1749,87.0,0,240,1.0,0.0
1750,75.0,190,240,2.0,0.0
1751,88.0,0,180,1.0,0.0
1752,57.0,120,360,3.0,0.0
1753,76.0,50,180,2.0,0.0
1754,64.0,0,240,2.0,0.0
1755,60.0,0,240,3.0,0.0
1756,76.0,240,240,1.0,0.0
1757,78.0,0,240,1.0,0.0
1758,66.0,120,240,2.0,0.0
1759,52.0,70,360,5.0,0.0
1760,80.0,170,180,1.0,0.0
1761,59.0,0,180,3.0,0.0
1762,68.0,0,180,2.0,0.0
1763,69.0,0,960,2.0,0.0
1764,81.0,305,960,1.0,0.0
1765,48.0,240,120,5.0,0.0
1766,52.0,240,120,5.0,0.0
1767,57.0,240,120,5.0,0.0
1768,60.0,120,120,5.0,0.0
1769,45.0,415,300,5.0,0.0
1770,72.0,240,240,1.0,0.0
1771,57.0,120,720,5.0,0.0
1772,71.0,0,240,1.0,0.0
1773,64.0,240,240,3.0,0.0
1774,69.0,0,240,1.0,0.0
1775,60.0,120,360,3.0,0.0
1776,71.0,0,240,1.0,0.0
1777,64.0,240,240,3.0,0.0
1778,72.0,120,240,1.0,0.0
1779,57.0,120,360,5.0,0.0
1780,64.0,0,240,3.0,0.0
1781,74.0,240,240,1.0,0.0
1782,76.0,240,240,1.0,0.0
1783,57.0,120,720,5.0,0.0
1784,75.0,240,240,1.0,0.0
1785,64.0,0,240,3.0,0.0
1786,77.0,0,240,1.0,0.0
1787,60.0,120,360,3.0,0.0
1788,76.0,240,240,1.0,0.0
1789,64.0,0,240,3.0,0.0
1790,74.0,120,240,1.0,0.0
1791,57.0,70,360,5.0,0.0
1792,64.0,0,180,3.0,0.0
1793,72.0,290,180,1.0,0.0
1794,71.0,240,240,1.0,0.0
1795,52.0,120,720,5.0,0.0
1796,69.0,0,240,1.0,0.0
1797,64.0,240,240,3.0,0.0
1798,59.0,120,360,3.0,0.0
1799,68.0,0,240,1.0,0.0
1800,64.0,0,240,3.0,0.0
1801,69.0,240,240,1.0,0.0
1802,52.0,120,360,5.0,0.0
1803,71.0,120,240,1.0,0.0
1804,72.0,0,240,1.0,0.0
1805,64.0,240,240,3.0,0.0
1806,52.0,0,720,5.0,0.0
1807,74.0,240,240,1.0,0.0
1808,73.0,0,240,1.0,0.0
1809,64.0,240,240,3.0,0.0
1810,76.0,120,240,1.0,0.0
1811,59.0,120,360,3.0,0.0
1812,74.0,0,240,1.0,0.0
1813,64.0,240,240,3.0,0.0
1814,72.0,120,240,1.0,0.0
1815,52.0,70,360,5.0,0.0
1816,64.0,290,180,3.0,0.0
1817,71.0,0,180,1.0,0.0
1818,57.0,0,720,5.0,0.0
1819,69.0,240,240,1.0,0.0
1820,76.0,240,240,1.0,0.0
1821,64.0,0,240,3.0,0.0
1822,60.0,120,360,3.0,0.0
1823,75.0,120,240,1.0,0.0
1824,64.0,0,240,3.0,0.0
1825,76.0,240,240,1.0,0.0
1826,57.0,70,360,5.0,0.0
1827,72.0,120,240,1.0,0.0
1828,64.0,0,180,3.0,0.0
1829,69.0,290,180,1.0,0.0
1830,59.0,186,720,5.0,0.0
1831,68.0,240,240,1.0,0.0
1832,76.0,240,240,1.0,0.0
1833,64.0,0,240,3.0,0.0
1834,62.0,54,420,3.0,0.0
1835,77.0,0,240,1.0,0.0
1836,64.0,240,240,3.0,0.0
1837,76.0,0,240,1.0,0.0
1838,74.0,120,240,1.0,0.0
1839,59.0,70,360,5.0,0.0
1840,71.0,0,180,1.0,0.0
1841,64.0,290,180,3.0,0.0
1842,60.0,120,360,5.0,0.0
1843,71.0,120,240,1.0,0.0
1844,69.0,240,240,1.0,0.0
1845,64.0,0,240,3.0,0.0
1846,68.0,120,240,1.0,0.0
1847,59.0,120,360,5.0,0.0
1848,64.0,0,240,3.0,0.0
1849,69.0,240,240,1.0,0.0
1850,71.0,120,240,1.0,0.0
1851,57.0,70,360,5.0,0.0
1852,64.0,0,180,3.0,0.0
1853,72.0,530,180,1.0,0.0
1854,52.0,50,720,5.0,0.0
1855,72.0,0,960,1.0,0.0
1856,69.0,190,780,2.0,0.0
1857,64.0,240,240,3.0,0.0
1858,63.0,0,240,3.0,0.0
1859,64.0,360,240,3.0,0.0
1860,52.0,40,360,5.0,0.0
1861,68.0,315,420,2.0,0.0
1862,71.0,0,390,1.0,0.0
1863,64.0,5,150,3.0,0.0
1864,57.0,120,720,5.0,0.0
1865,72.0,0,240,2.0,0.0
1866,84.0,240,240,1.0,0.0
1867,64.0,240,240,3.0,0.0
1868,83.0,0,240,1.0,0.0
1869,71.0,0,240,2.0,0.0
1870,69.0,0,240,2.0,0.0
1871,81.0,0,240,1.0,0.0
1872,60.0,120,360,3.0,0.0
1873,64.0,0,240,3.0,0.0
1874,71.0,240,240,2.0,0.0
1875,83.0,0,240,1.0,0.0
1876,84.0,0,240,1.0,0.0
1877,57.0,120,360,5.0,0.0
1878,72.0,120,240,2.0,0.0
1879,74.0,0,240,2.0,0.0
1880,64.0,0,240,3.0,0.0
1881,86.0,240,240,1.0,0.0
1882,88.0,0,240,1.0,0.0
1883,76.0,240,240,2.0,0.0
1884,57.0,120,720,5.0,0.0
1885,64.0,240,240,3.0,0.0
1886,75.0,0,240,2.0,0.0
1887,87.0,0,240,1.0,0.0
1888,89.0,0,240,1.0,0.0
1889,60.0,120,360,3.0,0.0
1890,77.0,0,240,2.0,0.0
1891,76.0,0,240,2.0,0.0
1892,64.0,240,240,3.0,0.0
1893,88.0,0,240,1.0,0.0
1894,86.0,0,240,1.0,0.0
1895,74.0,120,240,2.0,0.0
1896,57.0,70,360,5.0,0.0
1897,84.0,290,180,1.0,0.0
1898,64.0,0,180,3.0,0.0
1899,72.0,0,180,2.0,0.0
1900,52.0,0,720,5.0,0.0
1901,71.0,240,240,2.0,0.0
1902,83.0,0,240,1.0,0.0
1903,81.0,0,240,1.0,0.0
1904,64.0,240,240,3.0,0.0
1905,69.0,0,240,2.0,0.0
1906,68.0,0,240,2.0,0.0
1907,80.0,120,240,1.0,0.0
1908,59.0,120,360,3.0,0.0
1909,69.0,240,240,2.0,0.0
1910,81.0,0,240,1.0,0.0
1911,64.0,0,240,3.0,0.0
1912,71.0,120,240,2.0,0.0
1913,83.0,0,240,1.0,0.0
1914,52.0,120,360,5.0,0.0
1915,72.0,0,240,2.0,0.0
1916,84.0,0,240,1.0,0.0
1917,64.0,240,240,3.0,0.0
1918,86.0,0,240,1.0,0.0
1919,52.0,0,720,5.0,0.0
1920,74.0,240,240,2.0,0.0
1921,85.0,240,240,1.0,0.0
1922,73.0,0,240,2.0,0.0
1923,64.0,0,240,3.0,0.0
1924,88.0,0,240,1.0,0.0
1925,59.0,120,360,3.0,0.0
1926,76.0,120,240,2.0,0.0
1927,64.0,0,240,3.0,0.0
1928,74.0,240,240,2.0,0.0
1929,86.0,0,240,1.0,0.0
1930,52.0,70,360,5.0,0.0
1931,84.0,120,240,1.0,0.0
1932,72.0,0,240,2.0,0.0
1933,71.0,0,180,2.0,0.0
1934,64.0,0,180,3.0,0.0
1935,83.0,290,180,1.0,0.0
1936,81.0,240,240,1.0,0.0
1937,57.0,0,720,5.0,0.0
1938,69.0,0,240,2.0,0.0
1939,68.0,240,240,2.0,0.0
1940,64.0,0,240,3.0,0.0
1941,80.0,0,240,1.0,0.0
1942,81.0,0,240,1.0,0.0
1943,69.0,120,240,2.0,0.0
1944,60.0,120,360,3.0,0.0
1945,84.0,0,240,1.0,0.0
1946,64.0,0,240,3.0,0.0
1947,72.0,240,240,2.0,0.0
1948,83.0,0,240,1.0,0.0
1949,71.0,120,240,2.0,0.0
1950,56.0,70,360,5.0,0.0
1951,86.0,285,180,1.0,0.0
1952,74.0,5,180,2.0,0.0
1953,64.0,0,180,3.0,0.0
1954,72.0,0,240,2.0,0.0
1955,84.0,240,240,1.0,0.0
1956,57.0,0,720,5.0,0.0
1957,64.0,0,240,3.0,0.0
1958,71.0,0,240,2.0,0.0
1959,83.0,240,240,1.0,0.0
1960,60.0,120,360,3.0,0.0
1961,84.0,120,240,1.0,0.0
1962,72.0,0,240,2.0,0.0
1963,88.0,0,240,1.0,0.0
1964,76.0,0,240,2.0,0.0
1965,64.0,240,240,3.0,0.0
1966,53.0,70,360,5.0,0.0
1967,74.0,120,240,2.0,0.0
1968,86.0,0,240,1.0,0.0
1969,89.0,290,180,1.0,0.0
1970,77.0,0,180,2.0,0.0
1971,62.0,0,180,3.0,0.0
1972,88.0,240,240,1.0,0.0
1973,76.0,0,240,2.0,0.0
1974,52.0,120,720,5.0,0.0
1975,75.0,0,240,2.0,0.0
1976,87.0,190,240,1.0,0.0
1977,60.0,0,240,3.0,0.0
1978,57.0,120,360,3.0,0.0
1979,88.0,50,180,1.0,0.0
1980,76.0,0,180,2.0,0.0
1981,60.0,0,240,3.0,0.0
1982,64.0,240,240,2.0,0.0
1983,76.0,0,240,1.0,0.0
1984,78.0,0,240,1.0,0.0
1985,66.0,120,240,2.0,0.0
1986,52.0,70,360,5.0,0.0
1987,80.0,0,180,1.0,0.0
1988,68.0,0,180,2.0,0.0
1989,59.0,170,180,3.0,0.0
1990,81.0,305,960,1.0,0.0
1991,69.0,0,960,2.0,0.0
1992,48.0,240,120,5.0,0.0
1993,52.0,240,120,5.0,0.0
1994,57.0,240,120,5.0,0.0
1995,60.0,120,120,5.0,0.0
1996,45.0,415,300,5.0,0.0
1997,57.0,5,1380,5.0,0.0
1998,60.0,0,960,4.0,0.0
1999,69.0,240,240,1.0,0.0
2000,68.0,240,240,1.0,0.0
2001,69.0,240,240,1.0,0.0
2002,81.0,240,240,1.0,0.0
2003,80.0,175,240,1.0,0.0
2004,61.0,10,420,4.0,0.0
2005,79.0,290,180,1.0,0.0
2006,79.0,240,240,1.0,0.0
2007,57.0,10,1380,5.0,0.0
2008,62.0,5,1380,4.0,0.0
2009,77.0,240,240,1.0,0.0
2010,76.0,240,240,1.0,0.0
2011,77.0,240,240,1.0,0.0
2012,76.0,175,240,1.0,0.0
2013,77.0,290,180,1.0,0.0
2014,81.0,0,240,1.0,0.0
2015,57.0,10,1380,5.0,0.0
2016,65.0,240,240,4.0,0.0
2017,64.0,240,240,4.0,0.0
2018,80.0,0,240,1.0,0.0
2019,65.0,0,240,4.0,0.0
2020,81.0,240,240,1.0,0.0
2021,80.0,0,240,1.0,0.0
2022,64.0,240,240,4.0,0.0
2023,81.0,0,240,1.0,0.0
2024,65.0,180,240,4.0,0.0
2025,77.0,240,180,1.0,0.0
2026,62.0,0,180,4.0,0.0
2027,62.0,50,180,4.0,0.0
2028,57.0,290,1380,5.0,0.0
2029,77.0,240,240,1.0,0.0
2030,76.0,0,240,1.0,0.0
2031,60.0,240,240,4.0,0.0
2032,75.0,240,240,1.0,0.0
2033,59.0,0,240,4.0,0.0
2034,76.0,240,240,1.0,0.0
2035,60.0,0,240,4.0,0.0
2036,59.0,0,240,4.0,0.0
2037,75.0,190,240,1.0,0.0
2038,60.0,0,180,4.0,0.0
2039,76.0,0,180,1.0,0.0
2040,57.0,0,1380,5.0,0.0
2041,76.0,0,240,1.0,0.0
2042,60.0,240,240,4.0,0.0
2043,74.0,0,240,1.0,0.0
2044,62.0,240,240,4.0,0.0
2045,72.0,0,240,1.0,0.0
2046,64.0,240,240,4.0,0.0
2047,71.0,0,240,1.0,0.0
2048,62.0,240,240,4.0,0.0
2049,69.0,185,240,1.0,0.0
2050,60.0,5,420,4.0,0.0
2051,76.0,290,180,1.0,0.0
2052,59.0,0,240,4.0,0.0
2053,56.0,0,240,5.0,0.0
2054,77.0,240,240,1.0,0.0
2055,60.0,0,240,4.0,0.0
2056,74.0,0,240,1.0,0.0
2057,57.0,240,240,5.0,0.0
2058,71.0,0,240,1.0,0.0
2059,62.0,0,240,4.0,0.0
2060,59.0,240,240,5.0,0.0
2061,64.0,0,240,4.0,0.0
2062,69.0,0,240,1.0,0.0
2063,60.0,240,240,5.0,0.0
2064,68.0,190,240,1.0,0.0
2065,62.0,285,420,5.0,0.0
2066,65.0,5,420,4.0,0.0
2067,71.0,0,180,1.0,0.0
2068,71.0,190,240,1.0,0.0
2069,64.0,240,480,4.0,0.0
2070,60.0,0,480,5.0,0.0
2071,69.0,50,180,1.0,0.0
2072,72.0,190,240,1.0,0.0
2073,56.0,0,480,5.0,0.0
2074,71.0,50,180,1.0,0.0
2075,74.0,145,240,1.0,0.0
2076,64.0,240,15,4.0,0.0
2077,57.0,0,390,5.0,0.0
2078,72.0,145,180,1.0,0.0
2079,71.0,60,90,1.0,0.0
2080,51.0,385,960,5.0,0.0
2081,69.0,0,960,2.0,0.0
2082,72.0,90,60,1.0,0.0
2083,74.0,715,90,1.0,0.0
2084,72.0,0,720,1.0,0.0
2085,68.0,335,390,2.0,0.0
2086,71.0,0,390,1.0,0.0
2087,52.0,0,390,5.0,0.0
2088,72.0,240,240,1.0,0.0
2089,57.0,0,720,5.0,0.0
2090,71.0,0,240,1.0,0.0
2091,64.0,240,240,3.0,0.0
2092,60.0,120,360,3.0,0.0
2093,69.0,120,240,1.0,0.0
2094,64.0,240,240,3.0,0.0
2095,71.0,0,240,1.0,0.0
2096,57.0,120,360,5.0,0.0
2097,72.0,120,240,1.0,0.0
2098,74.0,0,240,1.0,0.0
2099,64.0,240,240,3.0,0.0
2100,76.0,240,240,1.0,0.0
2101,57.0,0,720,5.0,0.0
2102,75.0,0,240,1.0,0.0
2103,64.0,240,240,3.0,0.0
2104,77.0,120,240,1.0,0.0
2105,60.0,120,360,3.0,0.0
2106,64.0,240,240,3.0,0.0
2107,76.0,0,240,1.0,0.0
2108,57.0,70,360,5.0,0.0
2109,74.0,120,240,1.0,0.0
2110,64.0,290,180,3.0,0.0
2111,72.0,0,180,1.0,0.0
2112,71.0,240,240,1.0,0.0
2113,52.0,0,720,5.0,0.0
2114,69.0,240,240,1.0,0.0
2115,64.0,0,240,3.0,0.0
2116,59.0,120,360,3.0,0.0
2117,68.0,120,240,1.0,0.0
2118,64.0,0,240,3.0,0.0
2119,69.0,240,240,1.0,0.0
2120,71.0,120,240,1.0,0.0
2121,52.0,120,360,5.0,0.0
2122,72.0,240,240,1.0,0.0
2123,64.0,0,240,3.0,0.0
2124,52.0,120,720,5.0,0.0
2125,74.0,240,240,1.0,0.0
2126,73.0,0,240,1.0,0.0
2127,64.0,240,240,3.0,0.0
2128,59.0,120,360,3.0,0.0
2129,76.0,0,240,1.0,0.0
2130,74.0,240,240,1.0,0.0
2131,64.0,0,240,3.0,0.0
2132,72.0,120,240,1.0,0.0
2133,52.0,70,360,5.0,0.0
2134,71.0,290,180,1.0,0.0
2135,64.0,0,180,3.0,0.0
2136,57.0,120,720,5.0,0.0
2137,69.0,240,240,1.0,0.0
2138,64.0,0,240,3.0,0.0
2139,68.0,240,240,1.0,0.0
2140,69.0,0,240,1.0,0.0
2141,60.0,120,360,3.0,0.0
2142,72.0,240,240,1.0,0.0
2143,64.0,0,240,3.0,0.0
2144,56.0,55,360,5.0,0.0
2145,71.0,120,240,1.0,0.0
2146,64.0,290,180,3.0,0.0
2147,74.0,15,180,1.0,0.0
2148,72.0,240,240,1.0,0.0
2149,57.0,0,720,5.0,0.0
2150,71.0,240,240,1.0,0.0
2151,64.0,0,240,3.0,0.0
2152,60.0,120,360,3.0,0.0
2153,72.0,120,240,1.0,0.0
2154,64.0,240,240,3.0,0.0
2155,76.0,0,240,1.0,0.0
2156,53.0,70,360,5.0,0.0
2157,74.0,120,240,1.0,0.0
2158,77.0,0,180,1.0,0.0
2159,62.0,290,180,3.0,0.0
2160,76.0,240,240,1.0,0.0
2161,52.0,120,720,5.0,0.0
2162,60.0,235,240,3.0,0.0
2163,75.0,0,240,1.0,0.0
2164,57.0,120,360,3.0,0.0
2165,76.0,5,240,1.0,0.0
2166,64.0,240,240,1.0,0.0
2167,60.0,0,240,3.0,0.0
2168,66.0,120,240,1.0,0.0
2169,52.0,70,360,5.0,0.0
2170,68.0,50,180,1.0,0.0
2171,59.0,240,240,3.0,0.0
2172,57.0,10,1380,3.0,0.0
2173,69.0,240,240,1.0,0.0
2174,45.0,0,1380,5.0,0.0
2175,68.0,240,240,1.0,0.0
2176,69.0,245,240,1.0,0.0
2177,64.0,185,240,1.0,0.0
2178,60.0,230,180,1.0,0.0
2179,64.0,290,180,1.0,0.0
2180,45.0,0,720,5.0,0.0
2181,81.0,240,240,1.0,0.0
2182,69.0,0,240,2.0,0.0
2183,52.0,0,240,3.0,0.0
2184,68.0,240,240,2.0,0.0
2185,80.0,0,240,1.0,0.0
2186,48.0,120,360,3.0,0.0
2187,69.0,0,240,2.0,0.0
2188,81.0,120,240,1.0,0.0
2189,72.0,240,240,2.0,0.0
2190,84.0,0,240,1.0,0.0
2191,52.0,0,240,3.0,0.0
2192,83.0,0,240,1.0,0.0
2193,44.0,120,360,5.0,0.0
2194,71.0,120,240,2.0,0.0
2195,86.0,0,240,1.0,0.0
2196,52.0,240,240,3.0,0.0
2197,74.0,0,240,2.0,0.0
2198,72.0,0,240,2.0,0.0
2199,84.0,240,240,1.0,0.0
2200,45.0,0,720,5.0,0.0
2201,71.0,0,240,2.0,0.0
2202,52.0,0,240,3.0,0.0
2203,83.0,240,240,1.0,0.0
2204,84.0,0,240,1.0,0.0
2205,48.0,120,360,3.0,0.0
2206,72.0,120,240,2.0,0.0
2207,52.0,0,240,3.0,0.0
2208,88.0,0,240,1.0,0.0
2209,76.0,240,240,2.0,0.0
2210,86.0,0,240,1.0,0.0
2211,74.0,120,240,2.0,0.0
2212,41.0,65,360,5.0,0.0
2213,77.0,0,180,2.0,0.0
2214,89.0,290,180,1.0,0.0
2215,50.0,5,180,3.0,0.0
2216,40.0,120,720,5.0,0.0
2217,76.0,0,240,2.0,0.0
2218,88.0,240,240,1.0,0.0
2219,87.0,0,240,1.0,0.0
2220,48.0,0,240,3.0,0.0
2221,75.0,190,240,2.0,0.0
2222,88.0,50,180,1.0,0.0
2223,45.0,120,360,3.0,0.0
2224,76.0,0,180,2.0,0.0
2225,64.0,0,240,2.0,0.0
2226,48.0,240,240,3.0,0.0
2227,76.0,0,240,1.0,0.0
2228,66.0,120,240,2.0,0.0
2229,40.0,65,360,5.0,0.0
2230,78.0,0,240,1.0,0.0
2231,68.0,205,180,2.0,0.0
2232,80.0,0,180,1.0,0.0
2233,47.0,5,180,3.0,0.0
2234,81.0,0,960,1.0,0.0
2235,69.0,135,960,2.0,0.0
2236,33.0,240,150,5.0,0.0
2237,36.0,240,150,5.0,0.0
2238,40.0,240,150,5.0,0.0
2239,45.0,85,150,5.0,0.0
2240,33.0,525,120,5.0,0.0
2241,73.0,0,180,4.0,0.0
2242,69.0,60,180,4.0,0.0
2243,57.0,0,480,5.0,0.0
2244,45.0,0,480,5.0,0.0
2245,64.0,240,120,3.0,0.0
2246,81.0,0,240,2.0,0.0
2247,73.0,0,240,4.0,0.0
2248,69.0,0,240,4.0,0.0
2249,85.0,240,240,1.0,0.0
2250,64.0,0,120,3.0,0.0
2251,74.0,0,240,4.0,0.0
2252,71.0,0,240,4.0,0.0
2253,83.0,240,240,2.0,0.0
2254,86.0,0,240,1.0,0.0
2255,64.0,0,120,3.0,0.0
2256,73.0,0,240,4.0,0.0
2257,85.0,240,240,2.0,0.0
2258,76.0,0,240,4.0,0.0
2259,88.0,0,240,1.0,0.0
2260,64.0,0,120,3.0,0.0
2261,74.0,0,240,4.0,0.0
2262,71.0,0,240,4.0,0.0
2263,86.0,0,240,1.0,0.0
2264,83.0,180,240,2.0,0.0
2265,64.0,0,120,3.0,0.0
2266,73.0,25,180,4.0,0.0
2267,69.0,0,180,4.0,0.0
2268,85.0,10,210,1.0,0.0
2269,81.0,0,210,2.0,0.0
2270,64.0,205,90,3.0,0.0
2271,52.0,0,480,5.0,0.0
2272,40.0,0,480,5.0,0.0
2273,68.0,0,180,4.0,0.0
2274,71.0,60,180,4.0,0.0
2275,64.0,240,120,3.0,0.0
2276,80.0,240,240,2.0,0.0
2277,68.0,0,240,4.0,0.0
2278,71.0,0,240,4.0,0.0
2279,83.0,0,240,1.0,0.0
2280,64.0,0,120,3.0,0.0
2281,85.0,0,240,1.0,0.0
2282,81.0,0,240,2.0,0.0
2283,69.0,240,240,4.0,0.0
2284,73.0,0,240,4.0,0.0
2285,64.0,0,120,3.0,0.0
2286,71.0,0,240,4.0,0.0
2287,74.0,0,240,4.0,0.0
2288,86.0,240,240,1.0,0.0
2289,83.0,0,240,2.0,0.0
2290,64.0,0,120,3.0,0.0
2291,81.0,0,240,2.0,0.0
2292,73.0,0,240,4.0,0.0
2293,69.0,0,240,4.0,0.0
2294,85.0,180,240,1.0,0.0
2295,64.0,0,120,3.0,0.0
2296,68.0,0,180,4.0,0.0
2297,71.0,20,180,4.0,0.0
2298,80.0,10,210,2.0,0.0
2299,83.0,5,210,1.0,0.0
2300,64.0,205,90,3.0,0.0
2301,69.0,0,180,4.0,0.0
2302,45.0,0,300,5.0,0.0
2303,57.0,195,300,5.0,0.0
2304,64.0,60,180,4.0,0.0
2305,61.0,45,120,3.0,0.0
2306,81.0,0,240,1.0,0.0
2307,61.0,0,120,3.0,0.0
2308,64.0,0,15,4.0,0.0
2309,69.0,180,15,4.0,0.0
2310,57.0,0,180,5.0,0.0
2311,45.0,25,180,5.0,0.0
2312,61.0,205,90,3.0,0.0
2313,68.0,0,180,4.0,0.0
2314,40.0,0,300,5.0,0.0
2315,52.0,195,300,5.0,0.0
2316,71.0,60,180,4.0,0.0
2317,64.0,45,120,3.0,0.0
2318,83.0,170,240,1.0,0.0
2319,64.0,10,120,3.0,0.0
2320,71.0,0,15,4.0,0.0
2321,68.0,0,15,4.0,0.0
2322,40.0,0,180,5.0,0.0
2323,52.0,25,180,5.0,0.0
2324,64.0,265,90,3.0,0.0
2325,69.0,0,240,4.0,0.0
2326,81.0,0,240,2.0,0.0
2327,85.0,240,240,1.0,0.0
2328,73.0,0,240,4.0,0.0
2329,64.0,0,120,3.0,0.0
2330,83.0,0,240,2.0,0.0
2331,74.0,0,240,4.0,0.0
2332,71.0,240,240,4.0,0.0
2333,86.0,0,240,1.0,0.0
2334,64.0,0,120,3.0,0.0
2335,73.0,180,240,4.0,0.0
2336,69.0,0,240,4.0,0.0
2337,85.0,0,240,1.0,0.0
2338,81.0,0,240,2.0,0.0
2339,64.0,0,120,3.0,0.0
2340,83.0,45,180,1.0,0.0
2341,80.0,5,180,2.0,0.0
2342,68.0,10,180,4.0,0.0
2343,71.0,0,180,4.0,0.0
2344,64.0,120,120,3.0,0.0
2345,64.0,25,180,4.0,0.0
2346,75.0,70,120,1.0,0.0
2347,76.0,145,90,1.0,0.0
2348,75.0,70,120,1.0,0.0
2349,52.0,25,180,5.0,0.0
2350,76.0,205,90,1.0,0.0
2351,73.0,60,180,4.0,0.0
2352,69.0,0,180,4.0,0.0
2353,45.0,240,480,5.0,0.0
2354,57.0,0,480,5.0,0.0
2355,64.0,240,120,3.0,0.0
2356,73.0,0,240,4.0,0.0
2357,69.0,0,240,4.0,0.0
2358,81.0,0,240,2.0,0.0
2359,85.0,0,240,1.0,0.0
2360,64.0,0,120,3.0,0.0
2361,71.0,0,240,4.0,0.0
2362,83.0,0,240,2.0,0.0
2363,74.0,0,240,4.0,0.0
2364,86.0,240,240,1.0,0.0
2365,64.0,0,120,3.0,0.0
2366,85.0,0,240,2.0,0.0
2367,73.0,0,240,4.0,0.0
2368,76.0,0,240,4.0,0.0
2369,88.0,240,240,1.0,0.0
2370,64.0,0,120,3.0,0.0
2371,86.0,0,240,1.0,0.0
2372,83.0,0,240,2.0,0.0
2373,74.0,0,240,4.0,0.0
2374,71.0,180,240,4.0,0.0
2375,64.0,0,120,3.0,0.0
2376,73.0,0,180,4.0,0.0
2377,69.0,15,180,4.0,0.0
2378,85.0,10,210,1.0,0.0
2379,81.0,10,180,2.0,0.0
2380,64.0,205,90,3.0,0.0
2381,40.0,0,480,5.0,0.0
2382,52.0,0,480,5.0,0.0
2383,71.0,60,180,4.0,0.0
2384,68.0,0,180,4.0,0.0
2385,64.0,240,120,3.0,0.0
2386,80.0,0,240,2.0,0.0
2387,68.0,240,240,4.0,0.0
2388,71.0,0,240,4.0,0.0
2389,83.0,0,240,1.0,0.0
2390,64.0,0,120,3.0,0.0
2391,81.0,0,240,2.0,0.0
2392,69.0,0,240,4.0,0.0
2393,85.0,0,240,1.0,0.0
2394,73.0,240,240,4.0,0.0
2395,64.0,0,120,3.0,0.0
2396,71.0,0,240,4.0,0.0
2397,74.0,240,240,4.0,0.0
2398,83.0,0,240,2.0,0.0
2399,86.0,0,240,1.0,0.0
2400,64.0,0,120,3.0,0.0
2401,85.0,180,240,1.0,0.0
2402,69.0,0,240,4.0,0.0
2403,81.0,0,240,2.0,0.0
2404,73.0,0,240,4.0,0.0
2405,64.0,0,120,3.0,0.0
2406,71.0,20,180,4.0,0.0
2407,68.0,0,180,4.0,0.0
2408,80.0,0,210,2.0,0.0
2409,83.0,15,210,1.0,0.0
2410,64.0,205,90,3.0,0.0
2411,57.0,228,240,5.0,0.0
2412,45.0,0,240,5.0,0.0
2413,64.0,0,180,4.0,0.0
2414,69.0,60,180,4.0,0.0
2415,61.0,12,120,3.0,0.0
2416,81.0,0,240,1.0,0.0
2417,69.0,0,240,4.0,0.0
2418,73.0,0,240,2.0,0.0
2419,64.0,0,240,4.0,0.0
2420,61.0,240,120,3.0,0.0
2421,68.0,60,240,4.0,0.0
2422,76.0,0,240,2.0,0.0
2423,83.0,0,240,1.0,0.0
2424,71.0,0,240,4.0,0.0
2425,64.0,120,180,3.0,0.0
2426,85.0,10,180,1.0,0.0
2427,69.0,15,180,4.0,0.0
2428,81.0,35,210,2.0,0.0
2429,73.0,0,180,4.0,0.0
2430,64.0,180,120,3.0,0.0
2431,73.0,0,180,4.0,0.0
2432,69.0,10,180,4.0,0.0
2433,54.0,50,180,5.0,0.0
2434,42.0,0,180,5.0,0.0
2435,66.0,180,120,3.0,0.0
2436,74.0,0,180,4.0,0.0
2437,38.0,25,180,5.0,0.0
2438,50.0,0,180,5.0,0.0
2439,71.0,10,180,4.0,0.0
2440,66.0,205,90,3.0,0.0
2441,69.0,60,180,4.0,0.0
2442,73.0,0,180,4.0,0.0
2443,40.0,0,240,5.0,0.0
2444,52.0,228,240,5.0,0.0
2445,64.0,12,120,3.0,0.0
2446,73.0,240,240,4.0,0.0
2447,81.0,0,240,2.0,0.0
2448,85.0,0,240,1.0,0.0
2449,69.0,0,240,4.0,0.0
2450,64.0,0,120,3.0,0.0
2451,80.0,0,240,2.0,0.0
2452,83.0,80,240,1.0,0.0
2453,68.0,0,240,4.0,0.0
2454,71.0,0,240,4.0,0.0
2455,64.0,0,120,3.0,0.0
2456,69.0,120,90,4.0,0.0
2457,81.0,120,210,1.0,0.0
2458,64.0,0,90,4.0,0.0
2459,57.0,10,180,5.0,0.0
2460,61.0,110,90,4.0,0.0
2461,64.0,170,90,4.0,0.0
2462,45.0,290,120,5.0,0.0
2463,69.0,0,120,4.0,0.0
2464,73.0,60,180,4.0,0.0
2465,45.0,0,480,5.0,0.0
2466,57.0,0,480,5.0,0.0
2467,69.0,0,180,4.0,0.0
2468,64.0,240,120,3.0,0.0
2469,81.0,0,240,2.0,0.0
2470,85.0,0,240,1.0,0.0
2471,69.0,240,240,4.0,0.0
2472,73.0,0,240,4.0,0.0
2473,64.0,0,120,3.0,0.0
2474,83.0,0,240,2.0,0.0
2475,74.0,0,240,4.0,0.0
2476,86.0,0,240,1.0,0.0
2477,71.0,0,240,4.0,0.0
2478,64.0,240,120,3.0,0.0
2479,76.0,0,240,4.0,0.0
2480,73.0,0,240,4.0,0.0
2481,85.0,0,240,2.0,0.0
2482,88.0,0,240,1.0,0.0
2483,64.0,240,120,3.0,0.0
2484,71.0,0,240,4.0,0.0
2485,74.0,0,240,4.0,0.0
2486,86.0,180,240,1.0,0.0
2487,83.0,0,240,2.0,0.0
2488,64.0,0,120,3.0,0.0
2489,81.0,0,210,2.0,0.0
2490,73.0,0,180,4.0,0.0
2491,85.0,10,210,1.0,0.0
2492,69.0,25,180,4.0,0.0
2493,64.0,205,90,3.0,0.0
2494,68.0,60,180,4.0,0.0
2495,40.0,0,480,5.0,0.0
2496,71.0,0,180,4.0,0.0
2497,52.0,0,480,5.0,0.0
2498,64.0,240,120,3.0,0.0
2499,80.0,0,240,2.0,0.0
2500,71.0,240,240,4.0,0.0
2501,83.0,0,240,1.0,0.0
2502,68.0,0,240,4.0,0.0
2503,64.0,0,120,3.0,0.0
2504,69.0,0,240,4.0,0.0
2505,73.0,0,240,4.0,0.0
2506,81.0,240,240,2.0,0.0
2507,85.0,0,240,1.0,0.0
2508,64.0,0,120,3.0,0.0
2509,74.0,0,240,4.0,0.0
2510,71.0,0,240,4.0,0.0
2511,86.0,0,240,1.0,0.0
2512,83.0,0,240,2.0,0.0
2513,64.0,240,120,3.0,0.0
2514,73.0,0,240,4.0,0.0
2515,81.0,180,240,2.0,0.0
2516,69.0,0,240,4.0,0.0
2517,85.0,0,240,1.0,0.0
2518,64.0,0,120,3.0,0.0
2519,71.0,20,180,4.0,0.0
2520,68.0,0,180,4.0,0.0
2521,80.0,10,210,2.0,0.0
2522,83.0,5,210,1.0,0.0
2523,64.0,205,90,3.0,0.0
2524,64.0,60,180,4.0,0.0
2525,45.0,0,300,5.0,0.0
2526,69.0,0,180,4.0,0.0
2527,57.0,195,300,5.0,0.0
2528,61.0,45,120,3.0,0.0
2529,69.0,180,240,4.0,0.0
2530,81.0,0,240,1.0,0.0
2531,64.0,0,240,4.0,0.0
2532,61.0,0,120,3.0,0.0
2533,45.0,25,180,5.0,0.0
2534,57.0,0,180,5.0,0.0
2535,64.0,3,180,4.0,0.0
2536,69.0,7,180,4.0,0.0
2537,61.0,205,90,3.0,0.0
2538,40.0,0,300,5.0,0.0
2539,68.0,60,180,4.0,0.0
2540,71.0,0,180,4.0,0.0
2541,52.0,195,300,5.0,0.0
2542,64.0,45,120,3.0,0.0
2543,83.0,170,240,1.0,0.0
2544,68.0,10,240,4.0,0.0
2545,71.0,0,240,4.0,0.0
2546,64.0,0,120,3.0,0.0
2547,71.0,10,180,4.0,0.0
2548,68.0,0,180,4.0,0.0
2549,52.0,0,180,5.0,0.0
2550,40.0,25,180,5.0,0.0
2551,64.0,265,90,3.0,0.0
2552,69.0,0,240,4.0,0.0
2553,73.0,240,240,4.0,0.0
2554,85.0,0,240,1.0,0.0
2555,81.0,0,240,2.0,0.0
2556,64.0,0,120,3.0,0.0
2557,71.0,0,240,4.0,0.0
2558,83.0,240,240,2.0,0.0
2559,74.0,0,240,4.0,0.0
2560,86.0,0,240,1.0,0.0
2561,64.0,0,120,3.0,0.0
2562,73.0,0,240,4.0,0.0
2563,69.0,0,240,4.0,0.0
2564,85.0,0,240,1.0,0.0
2565,81.0,0,240,2.0,0.0
2566,64.0,180,120,3.0,0.0
2567,71.0,10,180,4.0,0.0
2568,68.0,0,180,4.0,0.0
2569,83.0,45,180,1.0,0.0
2570,80.0,5,180,2.0,0.0
2571,64.0,120,120,3.0,0.0
2572,75.0,70,120,1.0,0.0
2573,64.0,25,180,4.0,0.0
2574,76.0,145,90,1.0,0.0
2575,52.0,25,180,5.0,0.0
2576,75.0,70,120,1.0,0.0
2577,76.0,205,90,1.0,0.0
2578,45.0,0,480,5.0,0.0
2579,57.0,0,480,5.0,0.0
2580,69.0,60,180,4.0,0.0
2581,73.0,0,180,4.0,0.0
2582,64.0,240,120,3.0,0.0
2583,73.0,0,240,4.0,0.0
2584,85.0,0,240,1.0,0.0
2585,69.0,0,240,4.0,0.0
2586,81.0,0,240,2.0,0.0
2587,64.0,240,120,3.0,0.0
2588,74.0,0,240,4.0,0.0
2589,71.0,0,240,4.0,0.0
2590,83.0,0,240,2.0,0.0
2591,86.0,240,240,1.0,0.0
2592,64.0,0,120,3.0,0.0
2593,73.0,0,240,4.0,0.0
2594,76.0,0,240,4.0,0.0
2595,85.0,0,240,2.0,0.0
2596,88.0,240,240,1.0,0.0
2597,64.0,0,120,3.0,0.0
2598,74.0,0,240,4.0,0.0
2599,71.0,0,240,4.0,0.0
2600,83.0,180,240,2.0,0.0
2601,86.0,0,240,1.0,0.0
2602,64.0,0,120,3.0,0.0
2603,69.0,15,180,4.0,0.0
2604,73.0,0,180,4.0,0.0
2605,81.0,10,180,2.0,0.0
2606,85.0,10,210,1.0,0.0
2607,64.0,205,90,3.0,0.0
2608,52.0,0,480,5.0,0.0
2609,40.0,0,480,5.0,0.0
2610,71.0,60,180,4.0,0.0
2611,68.0,0,180,4.0,0.0
2612,64.0,240,120,3.0,0.0
2613,83.0,240,240,1.0,0.0
2614,80.0,0,240,2.0,0.0
2615,71.0,0,240,4.0,0.0
2616,68.0,0,240,4.0,0.0
2617,64.0,0,120,3.0,0.0
2618,69.0,0,240,4.0,0.0
2619,73.0,0,240,4.0,0.0
2620,85.0,0,240,1.0,0.0
2621,81.0,240,240,2.0,0.0
2622,64.0,0,120,3.0,0.0
2623,83.0,240,240,2.0,0.0
2624,86.0,0,240,1.0,0.0
2625,74.0,0,240,4.0,0.0
2626,71.0,0,240,4.0,0.0
2627,64.0,0,120,3.0,0.0
2628,69.0,0,240,4.0,0.0
2629,85.0,180,240,1.0,0.0
2630,73.0,0,240,4.0,0.0
2631,81.0,0,240,2.0,0.0
2632,64.0,0,120,3.0,0.0
2633,80.0,0,210,2.0,0.0
2634,71.0,20,180,4.0,0.0
2635,68.0,0,180,4.0,0.0
2636,83.0,15,210,1.0,0.0
2637,64.0,205,90,3.0,0.0
2638,45.0,0,240,5.0,0.0
2639,64.0,0,180,4.0,0.0
2640,69.0,60,180,4.0,0.0
2641,57.0,228,240,5.0,0.0
2642,61.0,12,120,3.0,0.0
2643,81.0,0,240,1.0,0.0
2644,69.0,0,240,4.0,0.0
2645,73.0,240,240,2.0,0.0
2646,64.0,0,240,4.0,0.0
2647,61.0,0,120,3.0,0.0
2648,68.0,0,240,4.0,0.0
2649,71.0,60,240,4.0,0.0
2650,76.0,0,240,2.0,0.0
2651,83.0,0,240,1.0,0.0
2652,64.0,120,180,3.0,0.0
2653,85.0,10,180,1.0,0.0
2654,69.0,15,180,4.0,0.0
2655,73.0,0,180,4.0,0.0
2656,81.0,35,210,2.0,0.0
2657,64.0,180,120,3.0,0.0
2658,69.0,10,180,4.0,0.0
2659,73.0,0,180,4.0,0.0
2660,42.0,0,180,5.0,0.0
2661,54.0,50,180,5.0,0.0
2662,66.0,180,120,3.0,0.0
2663,74.0,0,180,4.0,0.0
2664,50.0,0,180,5.0,0.0
2665,38.0,25,180,5.0,0.0
2666,71.0,10,180,4.0,0.0
2667,66.0,205,90,3.0,0.0
2668,69.0,60,180,4.0,0.0
2669,40.0,0,240,5.0,0.0
2670,52.0,228,240,5.0,0.0
2671,73.0,0,180,4.0,0.0
2672,64.0,12,120,3.0,0.0
2673,69.0,0,240,4.0,0.0
2674,73.0,0,240,4.0,0.0
2675,81.0,0,240,2.0,0.0
2676,85.0,0,240,1.0,0.0
2677,64.0,240,120,3.0,0.0
2678,71.0,0,240,4.0,0.0
2679,68.0,0,240,4.0,0.0
2680,83.0,0,240,1.0,0.0
2681,80.0,80,240,2.0,0.0
2682,64.0,0,120,3.0,0.0
2683,69.0,120,90,4.0,0.0
2684,81.0,0,210,1.0,0.0
2685,64.0,120,90,4.0,0.0
2686,57.0,10,180,5.0,0.0
2687,61.0,110,90,4.0,0.0
2688,64.0,170,90,4.0,0.0
2689,69.0,0,120,4.0,0.0
2690,45.0,350,120,5.0,0.0
2691,76.0,0,360,1.0,0.0
2692,57.0,60,480,5.0,0.0
2693,61.0,120,120,3.0,0.0
2694,64.0,60,120,3.0,0.0
2695,78.0,60,60,1.0,0.0
2696,61.0,0,120,3.0,0.0
2697,76.0,0,60,1.0,0.0
2698,74.0,60,60,1.0,0.0
2699,64.0,0,120,3.0,0.0
2700,73.0,60,60,1.0,0.0
2701,71.0,35,60,1.0,0.0
2702,61.0,60,90,3.0,0.0
2703,69.0,85,90,1.0,0.0
2704,57.0,0,480,5.0,0.0
2705,77.0,95,120,1.0,0.0
2706,78.0,25,90,1.0,0.0
2707,62.0,120,120,3.0,0.0
2708,78.0,50,180,1.0,0.0
2709,66.0,70,120,3.0,0.0
2710,62.0,120,120,3.0,0.0
2711,66.0,95,120,3.0,0.0
2712,62.0,145,90,3.0,0.0
2713,57.0,0,480,5.0,0.0
2714,81.0,120,120,1.0,0.0
2715,80.0,120,120,1.0,0.0
2716,62.0,0,120,3.0,0.0
2717,83.0,0,120,1.0,0.0
2718,66.0,120,120,3.0,0.0
2719,81.0,120,120,1.0,0.0
2720,62.0,0,120,3.0,0.0
2721,66.0,0,120,3.0,0.0
2722,80.0,95,120,1.0,0.0
2723,62.0,145,90,3.0,0.0
2724,78.0,0,90,1.0,0.0
2725,57.0,0,480,5.0,0.0
2726,75.0,95,120,1.0,0.0
2727,61.0,120,120,3.0,0.0
2728,76.0,25,90,1.0,0.0
2729,76.0,50,180,1.0,0.0
2730,64.0,70,120,3.0,0.0
2731,61.0,120,120,3.0,0.0
2732,64.0,95,120,3.0,0.0
2733,61.0,180,90,3.0,0.0
2734,76.0,35,360,1.0,0.0
2735,49.0,205,150,4.0,0.0
2736,45.0,0,150,5.0,0.0
2737,57.0,0,150,5.0,0.0
2738,61.0,25,150,4.0,0.0
2739,78.0,60,60,1.0,0.0
2740,76.0,60,60,1.0,0.0
2741,74.0,60,60,1.0,0.0
2742,73.0,60,60,1.0,0.0
2743,71.0,95,60,1.0,0.0
2744,69.0,85,90,1.0,0.0
2745,47.0,0,150,5.0,0.0
2746,76.0,35,120,1.0,0.0
2747,50.0,155,150,4.0,0.0
2748,74.0,85,180,1.0,0.0
2749,59.0,0,150,5.0,0.0
2750,62.0,25,150,4.0,0.0
2751,76.0,60,60,1.0,0.0
2752,74.0,60,60,1.0,0.0
2753,73.0,60,60,1.0,0.0
2754,71.0,60,60,1.0,0.0
2755,69.0,50,60,1.0,0.0
2756,68.0,245,60,1.0,0.0
2757,64.0,0,240,4.0,0.0
2758,69.0,235,240,1.0,0.0
2759,61.0,5,240,5.0,0.0
2760,59.0,0,240,5.0,0.0
2761,68.0,190,240,1.0,0.0
2762,62.0,5,240,4.0,0.0
2763,61.0,0,180,4.0,0.0
2764,57.0,0,180,5.0,0.0
2765,63.0,530,180,2.0,0.0
2766,69.0,0,180,1.0,0.0
2767,57.0,0,480,4.0,0.0
2768,61.0,5,480,4.0,0.0
2769,52.0,0,660,5.0,0.0
2770,73.0,0,480,1.0,0.0
2771,64.0,220,690,2.0,0.0
2772,69.0,180,480,2.0,0.0
2773,56.0,10,180,5.0,0.0
2774,71.0,0,180,1.0,0.0
2775,68.0,5,180,2.0,0.0
2776,59.0,0,180,4.0,0.0
2777,73.0,0,180,4.0,0.0
2778,45.0,0,480,5.0,0.0
2779,69.0,60,180,4.0,0.0
2780,57.0,0,480,5.0,0.0
2781,64.0,240,120,3.0,0.0
2782,73.0,0,240,4.0,0.0
2783,69.0,0,240,4.0,0.0
2784,85.0,0,240,1.0,0.0
2785,81.0,240,240,2.0,0.0
2786,64.0,0,120,3.0,0.0
2787,86.0,0,240,1.0,0.0
2788,74.0,240,240,4.0,0.0
2789,83.0,0,240,2.0,0.0
2790,71.0,0,240,4.0,0.0
2791,64.0,0,120,3.0,0.0
2792,88.0,0,240,1.0,0.0
2793,85.0,0,240,2.0,0.0
2794,73.0,0,240,4.0,0.0
2795,76.0,240,240,4.0,0.0
2796,64.0,0,120,3.0,0.0
2797,71.0,0,240,4.0,0.0
2798,74.0,0,240,4.0,0.0
2799,86.0,0,240,1.0,0.0
2800,83.0,180,240,2.0,0.0
2801,64.0,0,120,3.0,0.0
2802,69.0,0,180,4.0,0.0
2803,73.0,20,180,4.0,0.0
2804,85.0,5,210,1.0,0.0
2805,81.0,10,210,2.0,0.0
2806,64.0,205,90,3.0,0.0
2807,71.0,60,180,4.0,0.0
2808,68.0,0,180,4.0,0.0
2809,40.0,0,480,5.0,0.0
2810,52.0,0,480,5.0,0.0
2811,64.0,240,120,3.0,0.0
2812,83.0,0,240,1.0,0.0
2813,80.0,240,240,2.0,0.0
2814,71.0,0,240,4.0,0.0
2815,68.0,0,240,4.0,0.0
2816,64.0,0,120,3.0,0.0
2817,73.0,0,240,4.0,0.0
2818,85.0,0,240,1.0,0.0
2819,81.0,0,240,2.0,0.0
2820,69.0,240,240,4.0,0.0
2821,64.0,0,120,3.0,0.0
2822,74.0,0,240,4.0,0.0
2823,86.0,0,240,1.0,0.0
2824,83.0,0,240,2.0,0.0
2825,71.0,0,240,4.0,0.0
2826,64.0,240,120,3.0,0.0
2827,69.0,0,240,4.0,0.0
2828,73.0,0,240,4.0,0.0
2829,81.0,180,240,2.0,0.0
2830,85.0,0,240,1.0,0.0
2831,64.0,0,120,3.0,0.0
2832,83.0,5,210,1.0,0.0
2833,68.0,0,180,4.0,0.0
2834,71.0,20,180,4.0,0.0
2835,80.0,10,210,2.0,0.0
2836,64.0,205,90,3.0,0.0
2837,69.0,60,180,4.0,0.0
2838,64.0,0,180,4.0,0.0
2839,57.0,0,390,5.0,0.0
2840,45.0,100,390,5.0,0.0
2841,61.0,140,120,3.0,0.0
2842,69.0,0,240,4.0,0.0
2843,64.0,0,240,4.0,0.0
2844,73.0,240,240,2.0,0.0
2845,81.0,0,240,1.0,0.0
2846,61.0,0,120,3.0,0.0
2847,83.0,180,240,1.0,0.0
2848,76.0,0,240,2.0,0.0
2849,71.0,0,240,4.0,0.0
2850,68.0,0,240,4.0,0.0
2851,64.0,0,120,3.0,0.0
2852,81.0,10,180,2.0,0.0
2853,85.0,30,210,1.0,0.0
2854,73.0,0,180,4.0,0.0
2855,69.0,15,180,4.0,0.0
2856,64.0,185,120,3.0,0.0
2857,42.0,0,180,5.0,0.0
2858,54.0,50,180,5.0,0.0
2859,73.0,10,180,4.0,0.0
2860,69.0,0,180,4.0,0.0
2861,66.0,180,120,3.0,0.0
2862,38.0,50,180,5.0,0.0
2863,50.0,0,180,5.0,0.0
2864,74.0,0,180,4.0,0.0
2865,71.0,10,180,4.0,0.0
2866,66.0,180,120,3.0,0.0
2867,52.0,100,390,5.0,0.0
2868,69.0,60,180,4.0,0.0
2869,40.0,0,390,5.0,0.0
2870,73.0,0,180,4.0,0.0
2871,64.0,140,120,3.0,0.0
2872,81.0,180,240,2.0,0.0
2873,85.0,0,240,1.0,0.0
2874,69.0,0,240,4.0,0.0
2875,73.0,0,240,4.0,0.0
2876,64.0,0,120,3.0,0.0
2877,71.0,20,180,4.0,0.0
2878,68.0,0,180,4.0,0.0
2879,80.0,5,210,2.0,0.0
2880,83.0,10,210,1.0,0.0
2881,64.0,265,90,3.0,0.0
2882,83.0,0,240,1.0,0.0
2883,80.0,0,480,2.0,0.0
2884,68.0,240,240,4.0,0.0
2885,71.0,0,240,4.0,0.0
2886,64.0,0,120,3.0,0.0
2887,84.0,0,240,1.0,0.0
2888,68.0,0,240,4.0,0.0
2889,72.0,180,240,4.0,0.0
2890,64.0,0,120,3.0,0.0
2891,81.0,15,210,2.0,0.0
2892,85.0,5,180,1.0,0.0
2893,73.0,15,180,4.0,0.0
2894,69.0,0,180,4.0,0.0
2895,64.0,205,90,3.0,0.0
2896,69.0,0,180,4.0,0.0
2897,64.0,60,180,4.0,0.0
2898,57.0,0,480,5.0,0.0
2899,45.0,0,480,5.0,0.0
2900,61.0,240,120,3.0,0.0
2901,81.0,0,240,2.0,0.0
2902,85.0,0,240,1.0,0.0
2903,69.0,0,240,4.0,0.0
2904,64.0,0,240,4.0,0.0
2905,61.0,240,120,3.0,0.0
2906,86.0,180,240,1.0,0.0
2907,83.0,0,240,2.0,0.0
2908,68.0,0,240,4.0,0.0
2909,71.0,0,240,4.0,0.0
2910,64.0,0,120,3.0,0.0
2911,88.0,0,210,1.0,0.0
2912,73.0,25,180,4.0,0.0
2913,69.0,0,180,4.0,0.0
2914,85.0,35,210,2.0,0.0
2915,64.0,180,120,3.0,0.0
2916,69.0,0,180,4.0,0.0
2917,54.0,110,180,5.0,0.0
2918,42.0,0,180,5.0,0.0
2919,73.0,10,180,4.0,0.0
2920,66.0,120,180,3.0,0.0
2921,71.0,0,180,4.0,0.0
2922,74.0,10,180,4.0,0.0
2923,50.0,50,180,5.0,0.0
2924,38.0,0,180,5.0,0.0
2925,66.0,180,120,3.0,0.0
2926,40.0,100,390,5.0,0.0
2927,52.0,0,390,5.0,0.0
2928,69.0,0,180,4.0,0.0
2929,73.0,60,180,4.0,0.0
2930,64.0,140,120,3.0,0.0
2931,69.0,0,240,4.0,0.0
2932,85.0,0,240,1.0,0.0
2933,81.0,240,240,2.0,0.0
2934,73.0,0,240,4.0,0.0
2935,64.0,0,120,3.0,0.0
2936,68.0,0,240,4.0,0.0
2937,71.0,80,240,4.0,0.0
2938,83.0,0,240,1.0,0.0
2939,80.0,0,240,2.0,0.0
2940,64.0,0,120,3.0,0.0
2941,69.0,120,90,4.0,0.0
2942,81.0,115,210,1.0,0.0
2943,64.0,5,90,4.0,0.0
2944,57.0,10,180,5.0,0.0
2945,61.0,110,90,4.0,0.0
2946,64.0,118,90,4.0,0.0
2947,45.0,0,90,5.0,0.0
2948,69.0,402,90,4.0,0.0
2949,57.0,0,240,5.0,0.0
2950,73.0,50,300,1.0,0.0
2951,64.0,70,120,3.0,0.0
2952,61.0,120,120,3.0,0.0
2953,64.0,240,120,3.0,0.0
2954,73.0,0,720,1.0,0.0
2955,57.0,120,240,5.0,0.0
2956,64.0,0,120,3.0,0.0
2957,61.0,120,120,3.0,0.0
2958,64.0,120,120,3.0,0.0
2959,57.0,120,120,5.0,0.0
2960,64.0,136,120,3.0,0.0
2961,74.0,25,180,1.0,0.0
2962,59.0,54,150,5.0,0.0
2963,64.0,145,90,3.0,0.0
2964,61.0,120,120,5.0,0.0
2965,78.0,0,240,1.0,0.0
2966,64.0,120,120,3.0,0.0
2967,76.0,55,180,1.0,0.0
2968,57.0,65,120,5.0,0.0
2969,64.0,120,120,3.0,0.0
2970,61.0,120,120,5.0,0.0
2971,64.0,120,120,3.0,0.0
2972,57.0,35,120,5.0,0.0
2973,76.0,85,150,1.0,0.0
2974,64.0,120,120,3.0,0.0
2975,78.0,120,120,1.0,0.0
2976,61.0,0,120,5.0,0.0
2977,76.0,0,120,1.0,0.0
2978,64.0,120,120,3.0,0.0
2979,57.0,90,120,5.0,0.0
2980,74.0,0,120,1.0,0.0
2981,73.0,5,90,1.0,0.0
2982,64.0,265,90,3.0,0.0
2983,73.0,0,240,1.0,0.0
2984,56.0,120,240,5.0,0.0
2985,64.0,0,120,3.0,0.0
2986,63.0,60,120,3.0,0.0
2987,71.0,60,180,1.0,0.0
2988,64.0,240,120,3.0,0.0
2989,56.0,120,240,5.0,0.0
2990,71.0,120,720,1.0,0.0
2991,64.0,0,120,3.0,0.0
2992,63.0,120,120,3.0,0.0
2993,64.0,120,120,3.0,0.0
2994,56.0,120,120,5.0,0.0
2995,64.0,0,120,3.0,0.0
2996,57.0,70,120,5.0,0.0
2997,73.0,25,180,1.0,0.0
2998,64.0,265,90,3.0,0.0
2999,58.0,0,240,5.0,0.0
3000,76.0,0,480,1.0,0.0
3001,64.0,120,120,3.0,0.0
3002,63.0,120,120,3.0,0.0
3003,64.0,240,120,3.0,0.0
3004,59.0,0,240,5.0,0.0
3005,74.0,120,240,1.0,0.0
3006,64.0,0,120,3.0,0.0
3007,63.0,80,120,3.0,0.0
3008,74.0,40,90,1.0,0.0
3009,64.0,120,120,3.0,0.0
3010,76.0,0,120,1.0,0.0
3011,56.0,120,120,5.0,0.0
3012,64.0,0,120,3.0,0.0
3013,74.0,120,120,1.0,0.0
3014,73.0,95,120,1.0,0.0
3015,52.0,0,120,5.0,0.0
3016,64.0,265,90,3.0,0.0
3017,71.0,0,90,1.0,0.0
3018,54.0,120,240,5.0,0.0
3019,71.0,0,240,1.0,0.0
3020,64.0,0,120,3.0,0.0
3021,63.0,65,120,3.0,0.0
3022,69.0,30,180,1.0,0.0
3023,64.0,265,90,3.0,0.0
3024,54.0,120,360,5.0,0.0
3025,69.0,120,120,1.0,0.0
3026,68.0,0,120,1.0,0.0
3027,69.0,120,120,1.0,0.0
3028,71.0,120,120,1.0,0.0
3029,69.0,120,120,1.0,0.0
3030,74.0,95,120,1.0,0.0
3031,73.0,265,90,1.0,0.0
3032,56.0,0,240,5.0,0.0
3033,70.0,0,240,1.0,0.0
3034,64.0,120,120,3.0,0.0
3035,63.0,65,120,3.0,0.0
3036,71.0,30,180,1.0,0.0
3037,64.0,265,90,3.0,0.0
3038,56.0,120,360,5.0,0.0
3039,71.0,120,120,1.0,0.0
3040,70.0,0,120,1.0,0.0
3041,71.0,120,120,1.0,0.0
3042,73.0,120,120,1.0,0.0
3043,71.0,120,120,1.0,0.0
3044,76.0,95,120,1.0,0.0
3045,74.0,145,90,1.0,0.0
3046,57.0,50,300,5.0,0.0
3047,74.0,120,120,1.0,0.0
3048,64.0,0,300,4.0,0.0
3049,73.0,70,120,1.0,0.0
3050,72.0,120,120,1.0,0.0
3051,73.0,120,120,1.0,0.0
3052,74.0,120,120,1.0,0.0
3053,57.0,0,300,4.0,0.0
3054,54.0,50,300,5.0,0.0
3055,73.0,70,120,1.0,0.0
3056,72.0,120,120,1.0,0.0
3057,73.0,120,120,1.0,0.0
3058,59.0,50,300,4.0,0.0
3059,76.0,120,120,1.0,0.0
3060,50.0,0,300,5.0,0.0
3061,74.0,70,120,1.0,0.0
3062,73.0,95,120,1.0,0.0
3063,74.0,145,90,1.0,0.0
3064,52.0,0,390,5.0,0.0
3065,56.0,95,390,4.0,0.0
3066,73.0,120,120,1.0,0.0
3067,71.0,120,120,1.0,0.0
3068,70.0,25,120,1.0,0.0
3069,71.0,120,120,1.0,0.0
3070,69.0,120,120,1.0,0.0
3071,68.0,120,120,1.0,0.0
3072,67.0,120,120,1.0,0.0
3073,68.0,120,120,1.0,0.0
3074,66.0,120,120,1.0,0.0
3075,64.0,120,120,1.0,0.0
3076,63.0,95,120,1.0,0.0
3077,64.0,180,90,1.0,0.0
3078,45.0,74,1920,5.0,0.0
3079,73.0,0,150,1.0,0.0
3080,69.0,60,150,2.0,0.0
3081,57.0,120,90,4.0,0.0
3082,69.0,25,300,2.0,0.0
3083,57.0,120,90,4.0,0.0
3084,73.0,0,300,1.0,0.0
3085,57.0,95,90,4.0,0.0
3086,57.0,120,90,4.0,0.0
3087,57.0,120,90,4.0,0.0
3088,73.0,0,240,1.0,0.0
3089,70.0,95,240,2.0,0.0
3090,57.0,120,90,4.0,0.0
3091,57.0,25,90,4.0,0.0
3092,74.0,95,240,1.0,0.0
3093,71.0,0,240,2.0,0.0
3094,57.0,120,90,4.0,0.0
3095,57.0,25,90,4.0,0.0
3096,57.0,80,90,4.0,0.0
3097,75.0,5,180,1.0,0.0
3098,72.0,35,180,2.0,0.0
3099,57.0,120,90,4.0,0.0
3100,76.0,105,90,1.0,0.0
3101,73.0,0,90,2.0,0.0
3102,57.0,6,480,4.0,0.0
3103,69.0,120,90,1.0,0.0
3104,71.0,120,90,1.0,0.0
3105,73.0,40,90,1.0,0.0
3106,74.0,120,90,1.0,0.0
3107,76.0,120,90,1.0,0.0
3108,78.0,120,90,1.0,0.0
3109,80.0,160,90,1.0,0.0
3110,81.0,120,120,1.0,0.0
3111,83.0,95,120,1.0,0.0
3112,85.0,265,90,1.0,0.0
3113,40.0,89,1920,5.0,0.0
3114,73.0,0,120,1.0,0.0
3115,69.0,95,120,2.0,0.0
3116,71.0,120,90,1.0,0.0
3117,52.0,0,90,4.0,0.0
3118,68.0,0,90,2.0,0.0
3119,71.0,25,300,1.0,0.0
3120,52.0,120,90,4.0,0.0
3121,68.0,0,300,2.0,0.0
3122,52.0,95,90,4.0,0.0
3123,52.0,120,90,4.0,0.0
3124,52.0,120,90,4.0,0.0
3125,68.0,0,240,2.0,0.0
3126,52.0,120,90,4.0,0.0
3127,71.0,95,240,1.0,0.0
3128,52.0,25,90,4.0,0.0
3129,72.0,95,240,1.0,0.0
3130,52.0,120,90,4.0,0.0
3131,69.0,0,240,2.0,0.0
3132,52.0,25,90,4.0,0.0
3133,52.0,95,90,4.0,0.0
3134,70.0,0,180,2.0,0.0
3135,73.0,25,180,1.0,0.0
3136,52.0,120,90,4.0,0.0
3137,74.0,0,90,1.0,0.0
3138,52.0,6,480,4.0,0.0
3139,71.0,120,90,2.0,0.0
3140,71.0,120,90,1.0,0.0
3141,73.0,120,90,1.0,0.0
3142,74.0,25,90,1.0,0.0
3143,76.0,120,90,1.0,0.0
3144,78.0,120,90,1.0,0.0
3145,80.0,120,90,1.0,0.0
3146,81.0,145,90,1.0,0.0
3147,83.0,120,120,1.0,0.0
3148,85.0,120,120,1.0,0.0
3149,86.0,240,120,1.0,0.0
3150,71.0,95,120,1.0,0.0
3151,69.0,340,90,1.0,0.0
3152,69.0,165,300,1.0,0.0
3153,64.0,0,300,4.0,0.0
3154,54.0,50,300,5.0,0.0
3155,69.0,70,120,1.0,0.0
3156,74.0,95,120,1.0,0.0
3157,73.0,145,90,1.0,0.0
3158,64.0,50,300,4.0,0.0
3159,56.0,0,300,5.0,0.0
3160,70.0,120,120,1.0,0.0
3161,71.0,70,120,1.0,0.0
3162,76.0,95,120,1.0,0.0
3163,74.0,145,90,1.0,0.0
3164,64.0,0,300,4.0,0.0
3165,72.0,95,120,1.0,0.0
3166,57.0,10,300,5.0,0.0
3167,73.0,95,90,1.0,0.0
3168,81.0,120,90,1.0,0.0
3169,81.0,120,90,1.0,0.0
3170,81.0,120,90,1.0,0.0
3171,81.0,120,90,1.0,0.0
3172,81.0,120,90,1.0,0.0
3173,81.0,160,90,1.0,0.0
3174,50.0,95,390,5.0,0.0
3175,54.0,0,390,4.0,0.0
3176,81.0,120,120,1.0,0.0
3177,59.0,0,390,4.0,0.0
3178,78.0,120,120,1.0,0.0
3179,74.0,25,120,1.0,0.0
3180,71.0,120,120,1.0,0.0
3181,76.0,40,120,1.0,0.0
3182,61.0,0,780,4.0,0.0
3183,52.0,5,1350,5.0,0.0
3184,57.0,430,780,4.0,0.0
3185,78.0,40,30,1.0,0.0
3186,76.0,40,30,1.0,0.0
3187,75.0,120,30,1.0,0.0
3188,76.0,95,120,1.0,0.0
3189,78.0,315,90,1.0,0.0
3190,69.0,120,720,1.0,0.0
3191,59.0,70,390,4.0,0.0
3192,62.0,0,390,4.0,0.0
3193,73.0,20,120,1.0,0.0
3194,71.0,505,90,1.0,0.0
3195,62.0,190,480,4.0,0.0
3196,71.0,0,480,1.0,0.0
3197,57.0,265,690,5.0,0.0
3198,61.0,5,210,4.0,0.0
3199,69.0,20,180,1.0,0.0
3200,64.0,60,60,1.0,0.0
3201,66.0,60,60,1.0,0.0
3202,69.0,60,60,1.0,0.0
3203,68.0,60,60,1.0,0.0
3204,71.0,60,60,1.0,0.0
3205,69.0,60,60,1.0,0.0
3206,73.0,60,60,1.0,0.0
3207,71.0,60,60,1.0,0.0
3208,74.0,240,60,1.0,0.0
3209,73.0,50,300,1.0,0.0
3210,57.0,70,240,5.0,0.0
3211,64.0,0,120,3.0,0.0
3212,61.0,120,120,3.0,0.0
3213,64.0,240,120,3.0,0.0
3214,73.0,136,720,1.0,0.0
3215,57.0,0,240,5.0,0.0
3216,64.0,120,120,3.0,0.0
3217,61.0,120,120,3.0,0.0
3218,64.0,120,120,3.0,0.0
3219,57.0,120,120,5.0,0.0
3220,64.0,0,120,3.0,0.0
3221,74.0,25,180,1.0,0.0
3222,59.0,54,150,5.0,0.0
3223,64.0,145,90,3.0,0.0
3224,61.0,120,120,5.0,0.0
3225,78.0,0,240,1.0,0.0
3226,64.0,120,120,3.0,0.0
3227,57.0,65,120,5.0,0.0
3228,76.0,55,180,1.0,0.0
3229,64.0,120,120,3.0,0.0
3230,61.0,120,120,5.0,0.0
3231,64.0,120,120,3.0,0.0
3232,76.0,85,150,1.0,0.0
3233,57.0,35,120,5.0,0.0
3234,64.0,120,120,3.0,0.0
3235,61.0,0,120,5.0,0.0
3236,78.0,120,120,1.0,0.0
3237,64.0,0,120,3.0,0.0
3238,76.0,120,120,1.0,0.0
3239,57.0,90,120,5.0,0.0
3240,74.0,0,120,1.0,0.0
3241,73.0,5,90,1.0,0.0
3242,64.0,265,90,3.0,0.0
3243,56.0,0,240,5.0,0.0
3244,73.0,120,240,1.0,0.0
3245,64.0,0,120,3.0,0.0
3246,63.0,60,120,3.0,0.0
3247,71.0,60,180,1.0,0.0
3248,64.0,240,120,3.0,0.0
3249,71.0,120,720,1.0,0.0
3250,56.0,0,240,5.0,0.0
3251,64.0,120,120,3.0,0.0
3252,63.0,120,120,3.0,0.0
3253,64.0,120,120,3.0,0.0
3254,56.0,120,120,5.0,0.0
3255,64.0,0,120,3.0,0.0
3256,57.0,70,120,5.0,0.0
3257,73.0,25,180,1.0,0.0
3258,64.0,265,90,3.0,0.0
3259,58.0,0,240,5.0,0.0
3260,76.0,0,480,1.0,0.0
3261,64.0,120,120,3.0,0.0
3262,63.0,120,120,3.0,0.0
3263,64.0,240,120,3.0,0.0
3264,59.0,120,240,5.0,0.0
3265,74.0,0,240,1.0,0.0
3266,64.0,0,120,3.0,0.0
3267,63.0,80,120,3.0,0.0
3268,74.0,40,90,1.0,0.0
3269,64.0,120,120,3.0,0.0
3270,76.0,120,120,1.0,0.0
3271,56.0,0,120,5.0,0.0
3272,74.0,120,120,1.0,0.0
3273,64.0,0,120,3.0,0.0
3274,73.0,95,120,1.0,0.0
3275,52.0,0,120,5.0,0.0
3276,64.0,0,90,3.0,0.0
3277,71.0,265,90,1.0,0.0
3278,71.0,120,240,1.0,0.0
3279,54.0,0,240,5.0,0.0
3280,64.0,0,120,3.0,0.0
3281,63.0,65,120,3.0,0.0
3282,69.0,30,180,1.0,0.0
3283,64.0,265,90,3.0,0.0
3284,54.0,120,360,5.0,0.0
3285,69.0,120,120,1.0,0.0
3286,68.0,0,120,1.0,0.0
3287,69.0,120,120,1.0,0.0
3288,71.0,120,120,1.0,0.0
3289,69.0,120,120,1.0,0.0
3290,74.0,95,120,1.0,0.0
3291,73.0,265,90,1.0,0.0
3292,70.0,0,240,1.0,0.0
3293,56.0,120,240,5.0,0.0
3294,64.0,0,120,3.0,0.0
3295,71.0,30,180,1.0,0.0
3296,63.0,65,120,3.0,0.0
3297,64.0,265,90,3.0,0.0
3298,56.0,120,360,5.0,0.0
3299,71.0,120,120,1.0,0.0
3300,70.0,0,120,1.0,0.0
3301,71.0,120,120,1.0,0.0
3302,73.0,120,120,1.0,0.0
3303,71.0,120,120,1.0,0.0
3304,76.0,95,120,1.0,0.0
3305,74.0,145,90,1.0,0.0
3306,74.0,120,120,1.0,0.0
3307,64.0,50,300,4.0,0.0
3308,57.0,0,300,5.0,0.0
3309,73.0,70,120,1.0,0.0
3310,72.0,120,120,1.0,0.0
3311,73.0,120,120,1.0,0.0
3312,54.0,0,300,5.0,0.0
3313,57.0,50,300,4.0,0.0
3314,74.0,120,120,1.0,0.0
3315,73.0,70,120,1.0,0.0
3316,72.0,120,120,1.0,0.0
3317,73.0,120,120,1.0,0.0
3318,59.0,0,300,4.0,0.0
3319,76.0,120,120,1.0,0.0
3320,50.0,50,300,5.0,0.0
3321,74.0,70,120,1.0,0.0
3322,73.0,95,120,1.0,0.0
3323,74.0,145,90,1.0,0.0
3324,56.0,0,390,4.0,0.0
3325,73.0,120,120,1.0,0.0
3326,52.0,95,390,5.0,0.0
3327,71.0,120,120,1.0,0.0
3328,70.0,25,120,1.0,0.0
3329,71.0,120,120,1.0,0.0
3330,69.0,120,120,1.0,0.0
3331,68.0,120,120,1.0,0.0
3332,67.0,120,120,1.0,0.0
3333,68.0,120,120,1.0,0.0
3334,66.0,120,120,1.0,0.0
3335,64.0,120,120,1.0,0.0
3336,63.0,95,120,1.0,0.0
3337,64.0,180,90,1.0,0.0
3338,73.0,0,150,1.0,0.0
3339,69.0,60,150,2.0,0.0
3340,45.0,12,1920,5.0,0.0
3341,57.0,120,90,4.0,0.0
3342,73.0,25,300,1.0,0.0
3343,69.0,0,300,2.0,0.0
3344,57.0,120,90,4.0,0.0
3345,57.0,95,90,4.0,0.0
3346,57.0,120,90,4.0,0.0
3347,57.0,120,90,4.0,0.0
3348,70.0,95,240,2.0,0.0
3349,73.0,0,240,1.0,0.0
3350,57.0,120,90,4.0,0.0
3351,57.0,25,90,4.0,0.0
3352,74.0,0,240,1.0,0.0
3353,71.0,95,240,2.0,0.0
3354,57.0,120,90,4.0,0.0
3355,57.0,25,90,4.0,0.0
3356,75.0,5,180,1.0,0.0
3357,72.0,35,180,2.0,0.0
3358,57.0,80,90,4.0,0.0
3359,57.0,120,90,4.0,0.0
3360,57.0,80,480,4.0,0.0
3361,76.0,0,90,1.0,0.0
3362,73.0,105,90,2.0,0.0
3363,69.0,120,90,1.0,0.0
3364,71.0,120,90,1.0,0.0
3365,73.0,28,90,1.0,0.0
3366,74.0,120,90,1.0,0.0
3367,76.0,120,90,1.0,0.0
3368,78.0,120,90,1.0,0.0
3369,80.0,160,90,1.0,0.0
3370,81.0,120,120,1.0,0.0
3371,83.0,95,120,1.0,0.0
3372,85.0,265,90,1.0,0.0
3373,69.0,0,120,2.0,0.0
3374,40.0,12,1920,5.0,0.0
3375,73.0,95,120,1.0,0.0
3376,52.0,0,90,4.0,0.0
3377,68.0,120,90,2.0,0.0
3378,71.0,0,90,1.0,0.0
3379,52.0,120,90,4.0,0.0
3380,68.0,25,300,2.0,0.0
3381,71.0,0,300,1.0,0.0
3382,52.0,95,90,4.0,0.0
3383,52.0,120,90,4.0,0.0
3384,52.0,120,90,4.0,0.0
3385,71.0,95,240,1.0,0.0
3386,52.0,120,90,4.0,0.0
3387,68.0,0,240,2.0,0.0
3388,52.0,25,90,4.0,0.0
3389,52.0,120,90,4.0,0.0
3390,72.0,0,240,1.0,0.0
3391,69.0,95,240,2.0,0.0
3392,52.0,25,90,4.0,0.0
3393,52.0,95,90,4.0,0.0
3394,70.0,25,180,2.0,0.0
3395,73.0,0,180,1.0,0.0
3396,52.0,120,90,4.0,0.0
3397,74.0,0,90,1.0,0.0
3398,71.0,120,90,2.0,0.0
3399,52.0,95,480,4.0,0.0
3400,71.0,120,90,1.0,0.0
3401,73.0,120,90,1.0,0.0
3402,74.0,13,90,1.0,0.0
3403,76.0,120,90,1.0,0.0
3404,78.0,120,90,1.0,0.0
3405,80.0,120,90,1.0,0.0
3406,81.0,145,90,1.0,0.0
3407,83.0,120,120,1.0,0.0
3408,85.0,120,120,1.0,0.0
3409,86.0,240,120,1.0,0.0
3410,71.0,95,120,1.0,0.0
3411,69.0,340,90,1.0,0.0
3412,69.0,165,300,1.0,0.0
3413,54.0,0,300,5.0,0.0
3414,64.0,50,300,4.0,0.0
3415,69.0,70,120,1.0,0.0
3416,74.0,95,120,1.0,0.0
3417,73.0,145,90,1.0,0.0
3418,70.0,120,120,1.0,0.0
3419,56.0,50,300,5.0,0.0
3420,64.0,0,300,4.0,0.0
3421,71.0,70,120,1.0,0.0
3422,76.0,95,120,1.0,0.0
3423,74.0,145,90,1.0,0.0
3424,57.0,10,300,5.0,0.0
3425,72.0,95,120,1.0,0.0
3426,64.0,0,300,4.0,0.0
3427,73.0,95,90,1.0,0.0
3428,81.0,120,90,1.0,0.0
3429,81.0,120,90,1.0,0.0
3430,81.0,120,90,1.0,0.0
3431,81.0,120,90,1.0,0.0
3432,81.0,120,90,1.0,0.0
3433,81.0,160,90,1.0,0.0
3434,50.0,95,390,5.0,0.0
3435,81.0,120,120,1.0,0.0
3436,54.0,0,390,4.0,0.0
3437,59.0,0,390,4.0,0.0
3438,78.0,120,120,1.0,0.0
3439,74.0,25,120,1.0,0.0
3440,71.0,120,120,1.0,0.0
3441,76.0,40,120,1.0,0.0
3442,61.0,430,780,4.0,0.0
3443,57.0,0,780,4.0,0.0
3444,52.0,5,1350,5.0,0.0
3445,78.0,40,30,1.0,0.0
3446,76.0,40,30,1.0,0.0
3447,75.0,120,30,1.0,0.0
3448,76.0,95,120,1.0,0.0
3449,78.0,315,90,1.0,0.0
3450,69.0,120,720,1.0,0.0
3451,62.0,70,390,4.0,0.0
3452,59.0,0,390,4.0,0.0
3453,73.0,20,120,1.0,0.0
3454,71.0,505,90,1.0,0.0
3455,71.0,0,480,1.0,0.0
3456,62.0,85,480,4.0,0.0
3457,57.0,5,810,4.0,0.0
3458,61.0,25,330,4.0,0.0
3459,69.0,75,90,1.0,0.0
3460,71.0,40,30,1.0,0.0
3461,69.0,40,30,1.0,0.0
3462,68.0,90,30,1.0,0.0
3463,69.0,95,120,1.0,0.0
3464,71.0,145,90,1.0,0.0
3465,73.0,40,120,1.0,0.0
3466,74.0,40,30,1.0,0.0
3467,73.0,40,30,1.0,0.0
3468,71.0,120,30,1.0,0.0
3469,73.0,95,120,1.0,0.0
3470,74.0,145,90,1.0,0.0
3471,76.0,60,360,1.0,0.0
3472,57.0,120,120,5.0,0.0
3473,69.0,120,120,3.0,0.0
3474,61.0,0,120,5.0,0.0
3475,78.0,60,60,1.0,0.0
3476,69.0,0,120,3.0,0.0
3477,76.0,120,60,1.0,0.0
3478,57.0,70,120,5.0,0.0
3479,74.0,50,180,1.0,0.0
3480,68.0,120,120,3.0,0.0
3481,73.0,50,180,1.0,0.0
3482,59.0,70,120,5.0,0.0
3483,68.0,120,120,3.0,0.0
3484,57.0,70,120,5.0,0.0
3485,71.0,50,180,1.0,0.0
3486,67.0,120,120,3.0,0.0
3487,69.0,25,180,1.0,0.0
3488,61.0,70,120,5.0,0.0
3489,67.0,265,90,3.0,0.0
3490,69.0,0,360,1.0,0.0
3491,57.0,0,360,5.0,0.0
3492,66.0,120,120,3.0,0.0
3493,62.0,120,120,3.0,0.0
3494,66.0,240,120,3.0,0.0
3495,78.0,0,15,1.0,0.0
3496,54.0,0,360,5.0,0.0
3497,62.0,120,120,3.0,0.0
3498,57.0,35,120,3.0,0.0
3499,62.0,240,120,3.0,0.0
3500,50.0,0,360,5.0,0.0
3501,62.0,60,540,1.0,0.0
3502,57.0,120,120,3.0,0.0
3503,54.0,95,120,3.0,0.0
3504,57.0,85,90,3.0,0.0
3505,45.0,0,360,5.0,0.0
3506,66.0,60,60,1.0,0.0
3507,54.0,0,120,3.0,0.0
3508,64.0,60,60,1.0,0.0
3509,62.0,60,60,3.0,0.0
3510,64.0,60,60,1.0,0.0
3511,50.0,60,120,3.0,0.0
3512,66.0,0,60,1.0,0.0
3513,54.0,60,120,3.0,0.0
3514,67.0,60,60,1.0,0.0
3515,69.0,0,60,1.0,0.0
3516,71.0,60,60,1.0,0.0
3517,45.0,25,360,5.0,0.0
3518,73.0,60,60,1.0,0.0
3519,74.0,60,60,1.0,0.0
3520,54.0,65,120,3.0,0.0
3521,76.0,0,60,1.0,0.0
3522,50.0,0,120,3.0,0.0
3523,78.0,55,60,1.0,0.0
3524,79.0,80,60,1.0,0.0
3525,54.0,95,120,3.0,0.0
3526,81.0,15,60,1.0,0.0
3527,83.0,120,90,1.0,0.0
3528,45.0,25,360,5.0,0.0
3529,54.0,120,120,3.0,0.0
3530,85.0,25,90,1.0,0.0
3531,86.0,70,150,1.0,0.0
3532,50.0,0,120,3.0,0.0
3533,54.0,15,90,3.0,0.0
3534,78.0,370,60,1.0,0.0
3535,81.0,120,360,1.0,0.0
3536,45.0,0,480,5.0,0.0
3537,50.0,155,480,4.0,0.0
3538,78.0,0,120,1.0,0.0
3539,76.0,225,150,1.0,0.0
3540,45.0,0,390,5.0,0.0
3541,49.0,15,390,4.0,0.0
3542,76.0,240,150,1.0,0.0
3543,76.0,240,150,1.0,0.0
3544,76.0,205,150,1.0,0.0
3545,78.0,120,120,1.0,0.0
3546,64.0,5,1350,4.0,0.0
3547,61.0,205,1350,4.0,0.0
3548,57.0,0,1350,5.0,0.0
3549,76.0,120,120,1.0,0.0
3550,73.0,120,120,1.0,0.0
3551,71.0,190,120,1.0,0.0
3552,69.0,205,180,1.0,0.0
3553,76.0,240,150,1.0,0.0
3554,76.0,235,150,1.0,0.0
3555,76.0,0,150,1.0,0.0
3556,59.0,20,1320,5.0,0.0
3557,78.0,120,120,1.0,0.0
3558,62.0,10,1320,4.0,0.0
3559,64.0,5,1320,4.0,0.0
3560,76.0,120,120,1.0,0.0
3561,74.0,120,120,1.0,0.0
3562,71.0,190,120,1.0,0.0
3563,68.0,205,180,1.0,0.0
3564,76.0,240,150,1.0,0.0
3565,76.0,205,150,1.0,0.0
3566,76.0,205,150,1.0,0.0
3567,78.0,120,120,1.0,0.0
3568,64.0,70,390,4.0,0.0
3569,57.0,0,390,5.0,0.0
3570,61.0,0,390,4.0,0.0
3571,76.0,120,120,1.0,0.0
3572,73.0,25,120,1.0,0.0
3573,69.0,145,90,1.0,0.0
3574,64.0,70,390,4.0,0.0
3575,56.0,0,390,5.0,0.0
3576,59.0,0,390,3.0,0.0
3577,78.0,120,120,1.0,0.0
3578,76.0,120,120,1.0,0.0
3579,74.0,25,120,1.0,0.0
3580,71.0,145,90,1.0,0.0
3581,57.0,70,390,5.0,0.0
3582,61.0,0,390,4.0,0.0
3583,64.0,0,390,4.0,0.0
3584,78.0,120,120,1.0,0.0
3585,76.0,120,120,1.0,0.0
3586,73.0,25,120,1.0,0.0
3587,69.0,505,90,1.0,0.0
3588,73.0,0,480,1.0,0.0
3589,61.0,95,480,4.0,0.0
3590,57.0,0,480,4.0,0.0
3591,52.0,10,840,5.0,0.0
3592,71.0,145,90,1.0,0.0
3593,59.0,95,390,3.0,0.0
3594,56.0,0,390,4.0,0.0
3595,64.0,120,120,1.0,0.0
3596,76.0,15,120,1.0,0.0
3597,64.0,120,120,1.0,0.0
3598,75.0,120,120,1.0,0.0
3599,64.0,120,120,1.0,0.0
3600,74.0,95,120,1.0,0.0
3601,64.0,265,90,1.0,0.0
3602,57.0,0,240,5.0,0.0
3603,73.0,95,390,1.0,0.0
3604,64.0,120,120,3.0,0.0
3605,61.0,25,120,3.0,0.0
3606,64.0,240,120,3.0,0.0
3607,73.0,40,600,1.0,0.0
3608,57.0,120,240,5.0,0.0
3609,64.0,0,120,3.0,0.0
3610,61.0,120,120,3.0,0.0
3611,64.0,120,120,3.0,0.0
3612,57.0,0,120,5.0,0.0
3613,74.0,40,30,1.0,0.0
3614,64.0,0,120,3.0,0.0
3615,73.0,40,30,1.0,0.0
3616,71.0,120,30,1.0,0.0
3617,59.0,0,120,5.0,0.0
3618,73.0,95,120,1.0,0.0
3619,74.0,0,90,1.0,0.0
3620,64.0,145,90,3.0,0.0
3621,61.0,120,120,5.0,0.0
3622,78.0,120,240,1.0,0.0
3623,64.0,0,120,3.0,0.0
3624,57.0,60,120,5.0,0.0
3625,76.0,60,180,1.0,0.0
3626,64.0,120,120,3.0,0.0
3627,61.0,120,120,5.0,0.0
3628,87.0,0,240,1.0,0.0
3629,64.0,120,120,3.0,0.0
3630,57.0,0,120,5.0,0.0
3631,88.0,110,120,1.0,0.0
3632,64.0,120,120,3.0,0.0
3633,76.0,10,60,1.0,0.0
3634,78.0,120,120,1.0,0.0
3635,61.0,0,120,5.0,0.0
3636,76.0,0,120,1.0,0.0
3637,64.0,120,120,3.0,0.0
3638,74.0,95,120,1.0,0.0
3639,57.0,0,120,5.0,0.0
3640,64.0,10,90,3.0,0.0
3641,73.0,255,120,1.0,0.0
3642,73.0,120,240,1.0,0.0
3643,56.0,0,240,5.0,0.0
3644,64.0,0,120,3.0,0.0
3645,63.0,120,120,3.0,0.0
3646,71.0,70,420,1.0,0.0
3647,64.0,170,120,3.0,0.0
3648,56.0,0,240,5.0,0.0
3649,64.0,120,120,3.0,0.0
3650,63.0,120,120,3.0,0.0
3651,71.0,10,360,1.0,0.0
3652,64.0,110,120,3.0,0.0
3653,56.0,40,120,5.0,0.0
3654,73.0,40,30,1.0,0.0
3655,64.0,0,120,3.0,0.0
3656,71.0,40,30,1.0,0.0
3657,70.0,120,30,1.0,0.0
3658,71.0,0,120,1.0,0.0
3659,57.0,95,120,5.0,0.0
3660,64.0,265,90,3.0,0.0
3661,73.0,0,90,1.0,0.0
3662,76.0,0,240,1.0,0.0
3663,59.0,120,240,5.0,0.0
3664,64.0,0,120,3.0,0.0
3665,63.0,65,120,3.0,0.0
3666,74.0,55,180,1.0,0.0
3667,64.0,120,120,3.0,0.0
3668,85.0,120,240,1.0,0.0
3669,56.0,120,120,5.0,0.0
3670,64.0,0,120,3.0,0.0
3671,59.0,0,120,5.0,0.0
3672,86.0,110,120,1.0,0.0
3673,64.0,120,120,3.0,0.0
3674,74.0,10,60,1.0,0.0
3675,52.0,0,120,5.0,0.0
3676,76.0,120,120,1.0,0.0
3677,64.0,0,120,3.0,0.0
3678,74.0,120,120,1.0,0.0
3679,73.0,95,120,1.0,0.0
3680,56.0,0,120,5.0,0.0
3681,71.0,255,120,1.0,0.0
3682,64.0,10,90,3.0,0.0
3683,71.0,120,240,1.0,0.0
3684,54.0,0,240,5.0,0.0
3685,64.0,0,120,3.0,0.0
3686,63.0,120,120,3.0,0.0
3687,69.0,165,300,1.0,0.0
3688,64.0,75,120,3.0,0.0
3689,54.0,0,240,5.0,0.0
3690,69.0,120,120,1.0,0.0
3691,64.0,0,120,3.0,0.0
3692,63.0,95,120,3.0,0.0
3693,74.0,0,120,1.0,0.0
3694,73.0,25,90,1.0,0.0
3695,64.0,120,120,3.0,0.0
3696,70.0,120,120,1.0,0.0
3697,56.0,0,240,5.0,0.0
3698,64.0,120,120,3.0,0.0
3699,71.0,0,120,1.0,0.0
3700,63.0,0,120,3.0,0.0
3701,76.0,95,120,1.0,0.0
3702,64.0,145,90,3.0,0.0
3703,74.0,0,90,1.0,0.0
3704,72.0,120,120,1.0,0.0
3705,57.0,55,390,5.0,0.0
3706,73.0,80,120,1.0,0.0
3707,81.0,65,90,1.0,0.0
3708,81.0,120,90,1.0,0.0
3709,81.0,120,90,1.0,0.0
3710,81.0,120,90,1.0,0.0
3711,81.0,115,90,1.0,0.0
3712,81.0,165,60,1.0,0.0
3713,54.0,0,390,4.0,0.0
3714,81.0,120,120,1.0,0.0
3715,59.0,0,390,4.0,0.0
3716,50.0,70,390,5.0,0.0
3717,78.0,120,120,1.0,0.0
3718,74.0,25,120,1.0,0.0
3719,71.0,145,90,1.0,0.0
3720,61.0,240,960,4.0,0.0
3721,52.0,20,1380,5.0,0.0
3722,57.0,0,960,4.0,0.0
3723,76.0,40,120,1.0,0.0
3724,78.0,40,30,1.0,0.0
3725,76.0,40,30,1.0,0.0
3726,75.0,120,30,1.0,0.0
3727,76.0,95,120,1.0,0.0
3728,78.0,505,90,1.0,0.0
3729,69.0,165,720,1.0,0.0
3730,59.0,0,420,4.0,0.0
3731,62.0,5,420,4.0,0.0
3732,68.0,0,180,2.0,0.0
3733,71.0,770,180,1.0,0.0
3734,57.0,0,1380,5.0,0.0
3735,64.0,5,1380,4.0,0.0
3736,71.0,230,720,1.0,0.0
3737,68.0,10,960,2.0,0.0
3738,62.0,420,960,4.0,0.0
3739,72.0,0,240,1.0,0.0
3740,69.0,0,420,2.0,0.0
3741,73.0,0,420,1.0,0.0
3742,61.0,295,420,4.0,0.0
3743,64.0,20,420,2.0,0.0
3744,45.0,0,360,5.0,0.0
3745,69.0,70,420,2.0,0.0
3746,73.0,100,450,1.0,0.0
3747,49.0,120,120,3.0,0.0
3748,52.0,75,120,3.0,0.0
3749,57.0,15,90,3.0,0.0
3750,45.0,0,360,5.0,0.0
3751,76.0,80,90,1.0,0.0
3752,49.0,0,120,3.0,0.0
3753,74.0,80,90,1.0,0.0
3754,52.0,40,120,3.0,0.0
3755,73.0,40,90,1.0,0.0
3756,74.0,55,90,1.0,0.0
3757,57.0,25,90,3.0,0.0
3758,76.0,80,90,1.0,0.0
3759,47.0,0,360,5.0,0.0
3760,74.0,80,90,1.0,0.0
3761,78.0,80,90,1.0,0.0
3762,50.0,80,120,3.0,0.0
3763,76.0,0,90,1.0,0.0
3764,74.0,40,90,1.0,0.0
3765,56.0,40,120,3.0,0.0
3766,76.0,50,90,1.0,0.0
3767,59.0,75,90,3.0,0.0
3768,78.0,5,60,1.0,0.0
3769,57.0,0,780,4.0,0.0
3770,49.0,10,780,5.0,0.0
3771,76.0,70,60,1.0,0.0
3772,69.0,60,60,1.0,0.0
3773,71.0,60,60,1.0,0.0
3774,73.0,60,60,1.0,0.0
3775,74.0,60,60,1.0,0.0
3776,76.0,60,60,1.0,0.0
3777,78.0,60,60,1.0,0.0
3778,80.0,60,60,1.0,0.0
3779,81.0,60,60,1.0,0.0
3780,83.0,60,60,1.0,0.0
3781,85.0,60,60,1.0,0.0
3782,83.0,50,60,1.0,0.0
3783,81.0,60,60,1.0,0.0
3784,80.0,60,60,1.0,0.0
3785,78.0,60,60,1.0,0.0
3786,77.0,60,60,1.0,0.0
3787,78.0,60,60,1.0,0.0
3788,57.0,35,390,4.0,0.0
3789,50.0,0,390,5.0,0.0
3790,80.0,60,60,1.0,0.0
3791,81.0,60,60,1.0,0.0
3792,80.0,60,60,1.0,0.0
3793,83.0,60,60,1.0,0.0
3794,81.0,25,60,1.0,0.0
3795,80.0,60,60,1.0,0.0
3796,78.0,95,60,1.0,0.0
3797,76.0,145,90,1.0,0.0
3798,61.0,0,300,4.0,0.0
3799,52.0,50,300,5.0,0.0
3800,88.0,70,120,1.0,0.0
3801,85.0,95,120,1.0,0.0
3802,81.0,120,90,1.0,0.0
3803,76.0,145,90,1.0,0.0
3804,61.0,50,300,4.0,0.0
3805,52.0,0,300,5.0,0.0
3806,81.0,70,120,1.0,0.0
3807,76.0,95,120,1.0,0.0
3808,73.0,145,90,1.0,0.0
3809,52.0,0,300,5.0,0.0
3810,76.0,120,120,1.0,0.0
3811,62.0,0,300,4.0,0.0
3812,56.0,50,300,4.0,0.0
3813,74.0,70,120,1.0,0.0
3814,73.0,95,120,1.0,0.0
3815,71.0,985,90,1.0,0.0
3816,64.0,390,1200,2.0,0.0
3817,71.0,0,960,1.0,0.0
3818,57.0,0,1200,5.0,0.0
3819,62.0,235,960,4.0,0.0
3820,68.0,5,960,2.0,0.0
3821,61.0,5,240,4.0,0.0
3822,69.0,0,240,1.0,0.0
3823,57.0,60,240,5.0,0.0
3824,73.0,85,150,1.0,0.0
3825,74.0,60,60,1.0,0.0
3826,64.0,0,240,3.0,0.0
3827,73.0,120,60,1.0,0.0
3828,71.0,240,120,1.0,0.0
3829,73.0,0,240,1.0,0.0
3830,59.0,155,240,5.0,0.0
3831,64.0,240,240,3.0,0.0
3832,74.0,85,150,1.0,0.0
3833,61.0,0,240,5.0,0.0
3834,78.0,155,240,1.0,0.0
3835,76.0,85,150,1.0,0.0
3836,64.0,155,240,3.0,0.0
3837,74.0,85,150,1.0,0.0
3838,57.0,155,240,5.0,0.0
3839,73.0,35,150,1.0,0.0
3840,64.0,205,180,3.0,0.0
3841,56.0,60,240,5.0,0.0
3842,71.0,85,150,1.0,0.0
3843,64.0,240,240,3.0,0.0
3844,73.0,60,60,1.0,0.0
3845,71.0,120,60,1.0,0.0
3846,70.0,0,120,1.0,0.0
3847,71.0,155,240,1.0,0.0
3848,57.0,0,240,5.0,0.0
3849,73.0,85,150,1.0,0.0
3850,64.0,240,240,3.0,0.0
3851,59.0,155,240,5.0,0.0
3852,76.0,0,240,1.0,0.0
3853,64.0,155,240,3.0,0.0
3854,74.0,85,150,1.0,0.0
3855,62.0,155,240,5.0,0.0
3856,73.0,85,150,1.0,0.0
3857,64.0,290,180,3.0,0.0
3858,71.0,35,150,1.0,0.0
3859,61.0,190,240,5.0,0.0
3860,68.0,0,240,1.0,0.0
3861,64.0,240,240,3.0,0.0
3862,69.0,50,180,1.0,0.0
3863,61.0,155,240,5.0,0.0
3864,70.0,290,180,1.0,0.0
3865,64.0,35,150,3.0,0.0
3866,56.0,190,240,5.0,0.0
3867,64.0,240,240,3.0,0.0
3868,71.0,50,180,1.0,0.0
3869,56.0,155,240,5.0,0.0
3870,72.0,110,180,1.0,0.0
3871,64.0,35,150,3.0,0.0
3872,74.0,125,60,1.0,0.0
3873,57.0,155,240,5.0,0.0
3874,73.0,55,120,1.0,0.0
3875,73.0,85,150,1.0,0.0
3876,64.0,60,240,3.0,0.0
3877,76.0,125,60,1.0,0.0
3878,59.0,155,240,5.0,0.0
3879,74.0,55,120,1.0,0.0
3880,74.0,35,150,1.0,0.0
3881,64.0,530,180,3.0,0.0
3882,57.0,275,480,4.0,0.0
3883,52.0,10,750,5.0,0.0
3884,73.0,0,480,1.0,0.0
3885,56.0,0,300,4.0,0.0
3886,71.0,250,300,1.0,0.0
3887,73.0,95,240,1.0,0.0
3888,33.0,45,60,5.0,0.0
3889,37.0,40,60,3.0,0.0
3890,40.0,40,60,3.0,0.0
3891,45.0,35,60,3.0,0.0
3892,69.0,25,90,2.0,0.0
3893,64.0,120,90,2.0,0.0
3894,69.0,120,90,2.0,0.0
3895,73.0,120,90,1.0,0.0
3896,69.0,120,90,2.0,0.0
3897,74.0,120,90,1.0,0.0
3898,71.0,85,90,2.0,0.0
3899,76.0,5,90,1.0,0.0
3900,57.0,35,60,5.0,0.0
3901,61.0,40,60,3.0,0.0
3902,64.0,45,60,3.0,0.0
3903,73.0,120,90,2.0,0.0
3904,69.0,30,60,3.0,0.0
3905,76.0,120,90,1.0,0.0
3906,73.0,120,90,2.0,0.0
3907,78.0,120,90,1.0,0.0
3908,76.0,120,90,1.0,0.0
3909,74.0,120,90,1.0,0.0
3910,73.0,85,90,1.0,0.0
3911,40.0,40,60,5.0,0.0
3912,71.0,95,240,1.0,0.0
3913,44.0,40,60,3.0,0.0
3914,47.0,40,60,3.0,0.0
3915,52.0,35,60,3.0,0.0
3916,68.0,25,90,2.0,0.0
3917,64.0,120,90,2.0,0.0
3918,68.0,120,90,2.0,0.0
3919,71.0,120,90,1.0,0.0
3920,68.0,120,90,2.0,0.0
3921,73.0,120,90,1.0,0.0
3922,69.0,85,90,2.0,0.0
3923,74.0,5,90,1.0,0.0
3924,52.0,35,60,5.0,0.0
3925,56.0,40,60,3.0,0.0
3926,59.0,40,60,3.0,0.0
3927,64.0,35,60,3.0,0.0
3928,71.0,120,90,2.0,0.0
3929,74.0,120,90,1.0,0.0
3930,71.0,120,90,2.0,0.0
3931,76.0,120,90,1.0,0.0
3932,74.0,120,90,1.0,0.0
3933,73.0,120,90,1.0,0.0
3934,71.0,120,90,1.0,0.0
3935,42.0,60,150,5.0,0.0
3936,69.0,60,90,1.0,0.0
3937,73.0,120,90,1.0,0.0
3938,71.0,60,90,1.0,0.0
3939,54.0,60,150,4.0,0.0
3940,69.0,120,90,1.0,0.0
3941,44.0,60,150,5.0,0.0
3942,71.0,60,90,1.0,0.0
3943,74.0,120,90,1.0,0.0
3944,56.0,60,150,4.0,0.0
3945,73.0,60,90,1.0,0.0
3946,71.0,120,90,1.0,0.0
3947,73.0,60,90,1.0,0.0
3948,57.0,60,150,5.0,0.0
3949,76.0,120,90,1.0,0.0
3950,81.0,60,90,1.0,0.0
3951,61.0,60,150,5.0,0.0
3952,76.0,120,90,1.0,0.0
3953,78.0,60,90,1.0,0.0
3954,62.0,60,150,5.0,0.0
3955,81.0,120,90,2.0,0.0
3956,56.0,60,150,5.0,0.0
3957,71.0,60,90,1.0,0.0
3958,74.0,120,90,2.0,0.0
3959,73.0,60,90,1.0,0.0
3960,57.0,60,150,5.0,0.0
3961,76.0,120,90,2.0,0.0
3962,54.0,60,150,5.0,0.0
3963,69.0,60,90,1.0,0.0
3964,73.0,120,90,2.0,0.0
3965,50.0,60,150,5.0,0.0
3966,71.0,60,90,1.0,0.0
3967,74.0,120,90,2.0,0.0
3968,52.0,60,150,5.0,0.0
3969,68.0,60,90,1.0,0.0
3970,71.0,120,90,2.0,0.0
3971,45.0,75,390,5.0,0.0
3972,69.0,120,90,1.0,0.0
3973,64.0,120,90,1.0,0.0
3974,61.0,45,90,1.0,0.0
3975,64.0,405,90,1.0,0.0
3976,33.0,0,390,5.0,0.0
3977,69.0,250,390,1.0,0.0
3978,37.0,5,390,4.0,0.0
3979,40.0,0,390,4.0,0.0
3980,57.0,60,240,5.0,0.0
3981,73.0,85,150,1.0,0.0
3982,64.0,240,240,3.0,0.0
3983,74.0,60,60,1.0,0.0
3984,73.0,120,60,1.0,0.0
3985,71.0,0,120,1.0,0.0
3986,73.0,0,240,1.0,0.0
3987,59.0,155,240,5.0,0.0
3988,74.0,85,150,1.0,0.0
3989,64.0,240,240,3.0,0.0
3990,61.0,155,240,5.0,0.0
3991,78.0,0,240,1.0,0.0
3992,64.0,155,240,3.0,0.0
3993,76.0,85,150,1.0,0.0
3994,74.0,85,150,1.0,0.0
3995,57.0,155,240,5.0,0.0
3996,64.0,205,180,3.0,0.0
3997,73.0,35,150,1.0,0.0
3998,71.0,85,150,1.0,0.0
3999,56.0,60,240,5.0,0.0
4000,73.0,60,60,1.0,0.0
4001,64.0,0,240,3.0,0.0
4002,71.0,120,60,1.0,0.0
4003,70.0,240,120,1.0,0.0
4004,57.0,155,240,5.0,0.0
4005,71.0,0,240,1.0,0.0
4006,73.0,85,150,1.0,0.0
4007,64.0,240,240,3.0,0.0
4008,59.0,155,240,5.0,0.0
4009,76.0,0,240,1.0,0.0
4010,64.0,155,240,3.0,0.0
4011,74.0,85,150,1.0,0.0
4012,73.0,85,150,1.0,0.0
4013,62.0,155,240,5.0,0.0
4014,64.0,290,180,3.0,0.0
4015,71.0,35,150,1.0,0.0
4016,61.0,0,240,5.0,0.0
4017,68.0,190,240,1.0,0.0
4018,69.0,50,180,1.0,0.0
4019,64.0,240,240,3.0,0.0
4020,61.0,155,240,5.0,0.0
4021,64.0,35,150,3.0,0.0
4022,70.0,290,180,1.0,0.0
4023,56.0,190,240,5.0,0.0
4024,71.0,50,180,1.0,0.0
4025,64.0,240,240,3.0,0.0
4026,56.0,155,240,5.0,0.0
4027,72.0,110,180,1.0,0.0
4028,64.0,35,150,3.0,0.0
4029,57.0,155,240,5.0,0.0
4030,74.0,125,60,1.0,0.0
4031,73.0,55,120,1.0,0.0
4032,64.0,60,240,3.0,0.0
4033,73.0,85,150,1.0,0.0
4034,76.0,125,60,1.0,0.0
4035,59.0,155,240,5.0,0.0
4036,74.0,55,120,1.0,0.0
4037,74.0,35,150,1.0,0.0
4038,64.0,530,180,3.0,0.0
4039,52.0,10,750,5.0,0.0
4040,57.0,0,480,4.0,0.0
4041,73.0,275,480,1.0,0.0
4042,71.0,250,300,1.0,0.0
4043,56.0,0,300,4.0,0.0
4044,73.0,95,240,1.0,0.0
4045,33.0,45,60,5.0,0.0
4046,37.0,40,60,3.0,0.0
4047,40.0,40,60,3.0,0.0
4048,69.0,25,90,2.0,0.0
4049,45.0,35,60,3.0,0.0
4050,64.0,120,90,2.0,0.0
4051,69.0,120,90,2.0,0.0
4052,73.0,120,90,1.0,0.0
4053,69.0,120,90,2.0,0.0
4054,74.0,120,90,1.0,0.0
4055,71.0,85,90,2.0,0.0
4056,76.0,5,90,1.0,0.0
4057,57.0,35,60,5.0,0.0
4058,61.0,40,60,3.0,0.0
4059,64.0,45,60,3.0,0.0
4060,69.0,30,60,3.0,0.0
4061,73.0,120,90,2.0,0.0
4062,76.0,120,90,1.0,0.0
4063,73.0,120,90,2.0,0.0
4064,78.0,120,90,1.0,0.0
4065,76.0,120,90,1.0,0.0
4066,74.0,120,90,1.0,0.0
4067,73.0,85,90,1.0,0.0
4068,71.0,95,240,1.0,0.0
4069,40.0,40,60,5.0,0.0
4070,44.0,40,60,3.0,0.0
4071,47.0,40,60,3.0,0.0
4072,52.0,35,60,3.0,0.0
4073,68.0,25,90,2.0,0.0
4074,64.0,120,90,2.0,0.0
4075,68.0,120,90,2.0,0.0
4076,71.0,120,90,1.0,0.0
4077,68.0,120,90,2.0,0.0
4078,73.0,120,90,1.0,0.0
4079,69.0,85,90,2.0,0.0
4080,52.0,35,60,5.0,0.0
4081,74.0,5,90,1.0,0.0
4082,56.0,40,60,3.0,0.0
4083,59.0,40,60,3.0,0.0
4084,71.0,120,90,2.0,0.0
4085,64.0,35,60,3.0,0.0
4086,74.0,120,90,1.0,0.0
4087,71.0,120,90,2.0,0.0
4088,76.0,120,90,1.0,0.0
4089,74.0,120,90,1.0,0.0
4090,73.0,120,90,1.0,0.0
4091,71.0,120,90,1.0,0.0
4092,42.0,60,150,5.0,0.0
4093,69.0,60,90,1.0,0.0
4094,73.0,120,90,1.0,0.0
4095,71.0,60,90,1.0,0.0
4096,54.0,60,150,4.0,0.0
4097,69.0,120,90,1.0,0.0
4098,44.0,60,150,5.0,0.0
4099,71.0,60,90,1.0,0.0
4100,74.0,120,90,1.0,0.0
4101,56.0,60,150,4.0,0.0
4102,73.0,60,90,1.0,0.0
4103,71.0,120,90,1.0,0.0
4104,73.0,60,90,1.0,0.0
4105,57.0,60,150,5.0,0.0
4106,76.0,120,90,1.0,0.0
4107,81.0,60,90,1.0,0.0
4108,61.0,60,150,5.0,0.0
4109,76.0,120,90,1.0,0.0
4110,78.0,60,90,1.0,0.0
4111,62.0,60,150,5.0,0.0
4112,81.0,120,90,2.0,0.0
4113,71.0,60,90,1.0,0.0
4114,56.0,60,150,5.0,0.0
4115,74.0,120,90,2.0,0.0
4116,57.0,60,150,5.0,0.0
4117,73.0,60,90,1.0,0.0
4118,76.0,120,90,2.0,0.0
4119,69.0,60,90,1.0,0.0
4120,54.0,60,150,5.0,0.0
4121,73.0,120,90,2.0,0.0
4122,50.0,60,150,5.0,0.0
4123,71.0,60,90,1.0,0.0
4124,74.0,120,90,2.0,0.0
4125,68.0,60,90,1.0,0.0
4126,52.0,60,150,5.0,0.0
4127,71.0,120,90,2.0,0.0
4128,69.0,120,90,1.0,0.0
4129,45.0,75,390,5.0,0.0
4130,64.0,120,90,1.0,0.0
4131,61.0,45,90,1.0,0.0
4132,64.0,405,90,1.0,0.0
4133,69.0,215,390,1.0,0.0
4134,33.0,5,390,5.0,0.0
4135,37.0,0,390,4.0,0.0
4136,40.0,0,390,4.0,0.0
4137,57.0,120,720,5.0,0.0
4138,69.0,120,120,1.0,0.0
4139,71.0,120,120,1.0,0.0
4140,73.0,120,120,1.0,0.0
4141,64.0,120,240,3.0,0.0
4142,74.0,0,120,1.0,0.0
4143,76.0,120,120,1.0,0.0
4144,61.0,0,240,3.0,0.0
4145,78.0,0,120,1.0,0.0
4146,80.0,120,120,1.0,0.0
4147,64.0,120,240,3.0,0.0
4148,81.0,0,120,1.0,0.0
4149,80.0,120,120,1.0,0.0
4150,57.0,120,720,5.0,0.0
4151,78.0,120,120,1.0,0.0
4152,66.0,120,240,3.0,0.0
4153,77.0,120,120,1.0,0.0
4154,78.0,0,120,1.0,0.0
4155,77.0,120,120,1.0,0.0
4156,62.0,0,240,3.0,0.0
4157,78.0,0,120,1.0,0.0
4158,66.0,0,240,3.0,0.0
4159,77.0,120,120,1.0,0.0
4160,78.0,120,120,1.0,0.0
4161,57.0,120,720,5.0,0.0
4162,81.0,120,120,1.0,0.0
4163,80.0,120,120,1.0,0.0
4164,81.0,120,120,1.0,0.0
4165,66.0,120,240,3.0,0.0
4166,80.0,0,120,1.0,0.0
4167,83.0,120,120,1.0,0.0
4168,62.0,0,240,3.0,0.0
4169,81.0,0,120,1.0,0.0
4170,66.0,120,240,3.0,0.0
4171,80.0,120,120,1.0,0.0
4172,78.0,0,120,1.0,0.0
4173,78.0,120,120,1.0,0.0
4174,57.0,0,720,5.0,0.0
4175,76.0,120,120,1.0,0.0
4176,64.0,0,240,3.0,0.0
4177,75.0,120,120,1.0,0.0
4178,76.0,120,120,1.0,0.0
4179,61.0,0,240,3.0,0.0
4180,75.0,120,120,1.0,0.0
4181,76.0,120,120,1.0,0.0
4182,64.0,20,180,3.0,0.0
4183,75.0,75,120,1.0,0.0
4184,76.0,85,90,1.0,0.0
4185,76.0,5,90,1.0,0.0
4186,45.0,35,60,5.0,0.0
4187,49.0,40,60,3.0,0.0
4188,52.0,40,60,3.0,0.0
4189,81.0,120,90,1.0,0.0
4190,57.0,35,60,3.0,0.0
4191,85.0,120,90,1.0,0.0
4192,83.0,120,90,1.0,0.0
4193,81.0,120,90,1.0,0.0
4194,80.0,120,90,1.0,0.0
4195,78.0,120,90,1.0,0.0
4196,76.0,85,90,1.0,0.0
4197,74.0,5,90,1.0,0.0
4198,47.0,35,60,5.0,0.0
4199,50.0,40,60,3.0,0.0
4200,56.0,40,60,3.0,0.0
4201,80.0,120,90,1.0,0.0
4202,59.0,35,60,3.0,0.0
4203,83.0,120,90,1.0,0.0
4204,81.0,120,90,1.0,0.0
4205,80.0,120,90,1.0,0.0
4206,78.0,120,90,1.0,0.0
4207,76.0,120,90,1.0,0.0
4208,74.0,85,90,1.0,0.0
4209,73.0,5,90,1.0,0.0
4210,49.0,35,60,5.0,0.0
4211,52.0,40,60,3.0,0.0
4212,57.0,40,60,3.0,0.0
4213,61.0,35,60,3.0,0.0
4214,76.0,120,90,1.0,0.0
4215,81.0,120,90,1.0,0.0
4216,80.0,85,90,1.0,0.0
4217,78.0,5,90,1.0,0.0
4218,50.0,35,60,5.0,0.0
4219,54.0,40,60,3.0,0.0
4220,59.0,40,60,3.0,0.0
4221,76.0,120,90,1.0,0.0
4222,62.0,35,60,3.0,0.0
4223,74.0,120,90,1.0,0.0
4224,73.0,85,90,1.0,0.0
4225,52.0,35,60,5.0,0.0
4226,71.0,5,90,1.0,0.0
4227,56.0,40,60,3.0,0.0
4228,59.0,40,60,3.0,0.0
4229,64.0,35,60,3.0,0.0
4230,69.0,120,90,1.0,0.0
4231,68.0,120,90,1.0,0.0
4232,66.0,120,90,1.0,0.0
4233,64.0,120,90,1.0,0.0
4234,62.0,120,90,1.0,0.0
4235,61.0,120,90,1.0,0.0
4236,59.0,180,90,1.0,0.0
4237,73.0,85,150,1.0,0.0
4238,57.0,60,240,5.0,0.0
4239,64.0,0,240,3.0,0.0
4240,74.0,60,60,1.0,0.0
4241,73.0,120,60,1.0,0.0
4242,71.0,240,120,1.0,0.0
4243,59.0,0,240,5.0,0.0
4244,73.0,155,240,1.0,0.0
4245,74.0,85,150,1.0,0.0
4246,64.0,240,240,3.0,0.0
4247,61.0,0,240,5.0,0.0
4248,78.0,155,240,1.0,0.0
4249,64.0,155,240,3.0,0.0
4250,76.0,85,150,1.0,0.0
4251,57.0,155,240,5.0,0.0
4252,74.0,85,150,1.0,0.0
4253,64.0,205,180,3.0,0.0
4254,73.0,35,150,1.0,0.0
4255,71.0,85,150,1.0,0.0
4256,56.0,60,240,5.0,0.0
4257,64.0,240,240,3.0,0.0
4258,73.0,60,60,1.0,0.0
4259,71.0,120,60,1.0,0.0
4260,70.0,0,120,1.0,0.0
4261,57.0,0,240,5.0,0.0
4262,71.0,155,240,1.0,0.0
4263,64.0,240,240,3.0,0.0
4264,73.0,85,150,1.0,0.0
4265,59.0,155,240,5.0,0.0
4266,76.0,0,240,1.0,0.0
4267,74.0,85,150,1.0,0.0
4268,64.0,155,240,3.0,0.0
4269,56.0,155,240,5.0,0.0
4270,73.0,85,150,1.0,0.0
4271,71.0,35,150,1.0,0.0
4272,64.0,290,180,3.0,0.0
4273,68.0,190,240,1.0,0.0
4274,54.0,0,240,5.0,0.0
4275,64.0,240,240,3.0,0.0
4276,69.0,50,180,1.0,0.0
4277,56.0,190,240,5.0,0.0
4278,64.0,60,240,3.0,0.0
4279,71.0,50,180,1.0,0.0
4280,72.0,180,60,1.0,0.0
4281,57.0,0,240,5.0,0.0
4282,73.0,240,180,1.0,0.0
4283,64.0,60,240,3.0,0.0
4284,50.0,0,240,5.0,0.0
4285,76.0,180,60,1.0,0.0
4286,74.0,240,180,1.0,0.0
4287,59.0,240,240,3.0,0.0
4288,52.0,60,240,5.0,0.0
4289,74.0,180,60,1.0,0.0
4290,57.0,5,240,3.0,0.0
4291,73.0,235,180,1.0,0.0
4292,52.0,60,240,5.0,0.0
4293,73.0,150,60,1.0,0.0
4294,56.0,240,240,3.0,0.0
4295,71.0,30,150,1.0,0.0
4296,68.0,0,480,4.0,0.0
4297,62.0,0,480,4.0,0.0
4298,71.0,240,240,1.0,0.0
4299,57.0,0,480,5.0,0.0
4300,72.0,0,240,1.0,0.0
4301,61.0,0,360,4.0,0.0
4302,64.0,360,15,4.0,0.0
4303,57.0,215,360,5.0,0.0
4304,69.0,0,360,4.0,0.0
4305,73.0,0,360,1.0,0.0
4306,45.0,51,270,5.0,0.0
4307,73.0,120,90,1.0,0.0
4308,69.0,69,90,2.0,0.0
4309,49.0,0,90,3.0,0.0
4310,76.0,0,90,1.0,0.0
4311,52.0,120,90,3.0,0.0
4312,73.0,0,90,2.0,0.0
4313,57.0,120,90,3.0,0.0
4314,47.0,51,270,5.0,0.0
4315,74.0,120,90,1.0,0.0
4316,71.0,0,90,2.0,0.0
4317,50.0,69,90,3.0,0.0
4318,56.0,120,90,3.0,0.0
4319,78.0,0,90,1.0,0.0
4320,59.0,120,90,3.0,0.0
4321,74.0,0,90,2.0,0.0
4322,49.0,51,270,5.0,0.0
4323,76.0,120,90,1.0,0.0
4324,73.0,69,90,2.0,0.0
4325,52.0,0,90,3.0,0.0
4326,57.0,0,90,3.0,0.0
4327,81.0,120,90,1.0,0.0
4328,76.0,0,90,2.0,0.0
4329,61.0,120,90,3.0,0.0
4330,50.0,51,270,5.0,0.0
4331,80.0,120,90,1.0,0.0
4332,54.0,69,90,3.0,0.0
4333,78.0,0,90,1.0,0.0
4334,76.0,0,90,1.0,0.0
4335,59.0,120,90,3.0,0.0
4336,62.0,120,90,3.0,0.0
4337,74.0,0,90,1.0,0.0
4338,52.0,51,270,5.0,0.0
4339,73.0,120,90,1.0,0.0
4340,76.0,0,90,2.0,0.0
4341,57.0,69,90,3.0,0.0
4342,69.0,0,90,1.0,0.0
4343,61.0,120,90,3.0,0.0
4344,73.0,0,90,2.0,0.0
4345,64.0,120,90,3.0,0.0
4346,71.0,120,90,1.0,0.0
4347,52.0,51,270,5.0,0.0
4348,56.0,69,90,3.0,0.0
4349,74.0,0,90,2.0,0.0
4350,59.0,120,90,3.0,0.0
4351,68.0,0,90,1.0,0.0
4352,62.0,120,90,3.0,0.0
4353,71.0,0,90,2.0,0.0
4354,45.0,75,390,5.0,0.0
4355,69.0,120,90,1.0,0.0
4356,49.0,120,90,3.0,0.0
4357,64.0,0,90,1.0,0.0
4358,61.0,0,90,1.0,0.0
4359,52.0,45,90,3.0,0.0
4360,57.0,0,90,3.0,0.0
4361,64.0,405,90,1.0,0.0
4362,33.0,5,390,5.0,0.0
4363,69.0,215,390,1.0,0.0
4364,57.0,120,720,5.0,0.0
4365,69.0,120,120,1.0,0.0
4366,71.0,120,120,1.0,0.0
4367,64.0,0,240,3.0,0.0
4368,73.0,120,120,1.0,0.0
4369,74.0,120,120,1.0,0.0
4370,61.0,0,240,3.0,0.0
4371,76.0,120,120,1.0,0.0
4372,78.0,0,120,1.0,0.0
4373,64.0,120,240,3.0,0.0
4374,80.0,120,120,1.0,0.0
4375,81.0,0,120,1.0,0.0
4376,57.0,0,720,5.0,0.0
4377,80.0,120,120,1.0,0.0
4378,78.0,120,120,1.0,0.0
4379,77.0,120,120,1.0,0.0
4380,66.0,0,240,3.0,0.0
4381,78.0,120,120,1.0,0.0
4382,77.0,120,120,1.0,0.0
4383,62.0,0,240,3.0,0.0
4384,78.0,120,120,1.0,0.0
4385,66.0,0,240,3.0,0.0
4386,77.0,120,120,1.0,0.0
4387,78.0,120,120,1.0,0.0
4388,57.0,0,720,5.0,0.0
4389,81.0,120,120,1.0,0.0
4390,80.0,120,120,1.0,0.0
4391,81.0,120,120,1.0,0.0
4392,66.0,120,240,3.0,0.0
4393,80.0,0,120,1.0,0.0
4394,83.0,120,120,1.0,0.0
4395,62.0,0,240,3.0,0.0
4396,81.0,120,120,1.0,0.0
4397,66.0,0,240,3.0,0.0
4398,80.0,120,120,1.0,0.0
4399,57.0,0,720,5.0,0.0
4400,78.0,120,15,1.0,0.0
4401,76.0,120,120,1.0,0.0
4402,64.0,0,240,3.0,0.0
4403,75.0,120,120,1.0,0.0
4404,76.0,120,120,1.0,0.0
4405,61.0,0,240,3.0,0.0
4406,75.0,120,120,1.0,0.0
4407,76.0,120,120,1.0,0.0
4408,64.0,20,180,3.0,0.0
4409,75.0,75,120,1.0,0.0
4410,76.0,85,90,1.0,0.0
4411,45.0,35,60,5.0,0.0
4412,76.0,5,90,1.0,0.0
4413,49.0,40,60,3.0,0.0
4414,52.0,40,60,3.0,0.0
4415,81.0,120,90,1.0,0.0
4416,57.0,35,60,3.0,0.0
4417,85.0,120,90,1.0,0.0
4418,83.0,120,90,1.0,0.0
4419,81.0,120,90,1.0,0.0
4420,80.0,120,90,1.0,0.0
4421,78.0,120,90,1.0,0.0
4422,76.0,85,90,1.0,0.0
4423,47.0,35,60,5.0,0.0
4424,74.0,5,90,1.0,0.0
4425,50.0,40,60,3.0,0.0
4426,56.0,40,60,3.0,0.0
4427,80.0,120,90,1.0,0.0
4428,59.0,35,60,3.0,0.0
4429,83.0,120,90,1.0,0.0
4430,81.0,120,90,1.0,0.0
4431,80.0,120,90,1.0,0.0
4432,78.0,120,90,1.0,0.0
4433,76.0,120,90,1.0,0.0
4434,74.0,85,90,1.0,0.0
4435,73.0,5,90,1.0,0.0
4436,49.0,35,60,5.0,0.0
4437,52.0,40,60,3.0,0.0
4438,57.0,40,60,3.0,0.0
4439,76.0,120,90,1.0,0.0
4440,61.0,35,60,3.0,0.0
4441,81.0,120,90,1.0,0.0
4442,80.0,85,90,1.0,0.0
4443,78.0,5,90,1.0,0.0
4444,50.0,35,60,5.0,0.0
4445,54.0,40,60,3.0,0.0
4446,59.0,40,60,3.0,0.0
4447,62.0,35,60,3.0,0.0
4448,76.0,120,90,1.0,0.0
4449,74.0,120,90,1.0,0.0
4450,73.0,85,90,1.0,0.0
4451,71.0,5,90,1.0,0.0
4452,52.0,35,60,5.0,0.0
4453,56.0,40,60,3.0,0.0
4454,59.0,40,60,3.0,0.0
4455,69.0,120,90,1.0,0.0
4456,64.0,35,60,3.0,0.0
4457,68.0,120,90,1.0,0.0
4458,66.0,120,90,1.0,0.0
4459,64.0,120,90,1.0,0.0
4460,62.0,120,90,1.0,0.0
4461,61.0,120,90,1.0,0.0
4462,59.0,180,90,1.0,0.0
4463,73.0,85,150,1.0,0.0
4464,57.0,60,240,5.0,0.0
4465,74.0,60,60,1.0,0.0
4466,64.0,0,240,3.0,0.0
4467,73.0,120,60,1.0,0.0
4468,71.0,240,120,1.0,0.0
4469,59.0,0,240,5.0,0.0
4470,73.0,155,240,1.0,0.0
4471,64.0,240,240,3.0,0.0
4472,74.0,85,150,1.0,0.0
4473,78.0,0,240,1.0,0.0
4474,61.0,155,240,5.0,0.0
4475,76.0,85,150,1.0,0.0
4476,64.0,155,240,3.0,0.0
4477,74.0,85,150,1.0,0.0
4478,57.0,155,240,5.0,0.0
4479,64.0,205,180,3.0,0.0
4480,73.0,35,150,1.0,0.0
4481,71.0,85,150,1.0,0.0
4482,56.0,60,240,5.0,0.0
4483,73.0,60,60,1.0,0.0
4484,64.0,0,240,3.0,0.0
4485,71.0,120,60,1.0,0.0
4486,70.0,240,120,1.0,0.0
4487,57.0,0,240,5.0,0.0
4488,71.0,155,240,1.0,0.0
4489,64.0,240,240,3.0,0.0
4490,73.0,85,150,1.0,0.0
4491,59.0,155,240,5.0,0.0
4492,76.0,0,240,1.0,0.0
4493,64.0,155,240,3.0,0.0
4494,74.0,85,150,1.0,0.0
4495,73.0,85,150,1.0,0.0
4496,56.0,155,240,5.0,0.0
4497,64.0,290,180,3.0,0.0
4498,71.0,35,150,1.0,0.0
4499,54.0,190,240,5.0,0.0
4500,68.0,0,240,1.0,0.0
4501,69.0,50,180,1.0,0.0
4502,64.0,240,240,3.0,0.0
4503,56.0,190,240,5.0,0.0
4504,64.0,60,240,3.0,0.0
4505,71.0,50,180,1.0,0.0
4506,57.0,0,240,5.0,0.0
4507,72.0,180,60,1.0,0.0
4508,73.0,240,180,1.0,0.0
4509,64.0,60,240,3.0,0.0
4510,76.0,180,60,1.0,0.0
4511,50.0,0,240,5.0,0.0
4512,74.0,240,180,1.0,0.0
4513,59.0,240,240,3.0,0.0
4514,52.0,60,240,5.0,0.0
4515,74.0,180,60,1.0,0.0
4516,57.0,5,240,3.0,0.0
4517,73.0,235,180,1.0,0.0
4518,52.0,60,240,5.0,0.0
4519,73.0,150,60,1.0,0.0
4520,56.0,240,240,3.0,0.0
4521,71.0,30,150,1.0,0.0
4522,71.0,240,240,1.0,0.0
4523,57.0,0,480,5.0,0.0
4524,62.0,0,480,4.0,0.0
4525,68.0,0,480,4.0,0.0
4526,72.0,360,240,1.0,0.0
4527,64.0,0,15,4.0,0.0
4528,69.0,0,360,4.0,0.0
4529,57.0,0,360,5.0,0.0
4530,61.0,0,360,4.0,0.0
4531,73.0,215,360,1.0,0.0
4532,45.0,51,270,5.0,0.0
4533,73.0,120,90,1.0,0.0
4534,69.0,0,90,2.0,0.0
4535,49.0,69,90,3.0,0.0
4536,76.0,0,90,1.0,0.0
4537,52.0,120,90,3.0,0.0
4538,73.0,0,90,2.0,0.0
4539,57.0,120,90,3.0,0.0
4540,74.0,120,90,1.0,0.0
4541,47.0,51,270,5.0,0.0
4542,50.0,0,90,3.0,0.0
4543,71.0,69,90,2.0,0.0
4544,56.0,120,90,3.0,0.0
4545,78.0,0,90,1.0,0.0
4546,59.0,0,90,3.0,0.0
4547,74.0,120,90,2.0,0.0
4548,76.0,120,90,1.0,0.0
4549,49.0,51,270,5.0,0.0
4550,52.0,69,90,3.0,0.0
4551,73.0,0,90,2.0,0.0
4552,57.0,120,90,3.0,0.0
4553,81.0,0,90,1.0,0.0
4554,61.0,0,90,3.0,0.0
4555,76.0,120,90,2.0,0.0
4556,50.0,51,270,5.0,0.0
4557,80.0,120,90,1.0,0.0
4558,54.0,0,90,3.0,0.0
4559,78.0,69,90,1.0,0.0
4560,59.0,0,90,3.0,0.0
4561,76.0,120,90,1.0,0.0
4562,62.0,0,90,3.0,0.0
4563,74.0,120,90,1.0,0.0
4564,52.0,51,270,5.0,0.0
4565,73.0,120,90,1.0,0.0
4566,76.0,69,90,2.0,0.0
4567,57.0,0,90,3.0,0.0
4568,69.0,0,90,1.0,0.0
4569,61.0,120,90,3.0,0.0
4570,73.0,0,90,2.0,0.0
4571,64.0,120,90,3.0,0.0
4572,52.0,51,270,5.0,0.0
4573,71.0,120,90,1.0,0.0
4574,56.0,0,90,3.0,0.0
4575,74.0,69,90,2.0,0.0
4576,59.0,120,90,3.0,0.0
4577,68.0,0,90,1.0,0.0
4578,62.0,145,90,3.0,0.0
4579,71.0,0,90,2.0,0.0
4580,61.0,120,240,3.0,0.0
4581,57.0,0,480,5.0,0.0
4582,69.0,120,120,1.0,0.0
4583,71.0,0,120,1.0,0.0
4584,64.0,50,180,3.0,0.0
4585,73.0,70,120,1.0,0.0
4586,61.0,0,180,3.0,0.0
4587,74.0,120,120,1.0,0.0
4588,76.0,70,120,1.0,0.0
4589,64.0,50,180,3.0,0.0
4590,61.0,0,180,3.0,0.0
4591,78.0,120,120,1.0,0.0
4592,80.0,70,120,1.0,0.0
4593,61.0,0,180,3.0,0.0
4594,64.0,25,180,3.0,0.0
4595,81.0,145,90,1.0,0.0
4596,57.0,120,480,5.0,0.0
4597,80.0,120,120,1.0,0.0
4598,78.0,120,120,1.0,0.0
4599,66.0,25,180,3.0,0.0
4600,77.0,70,120,1.0,0.0
4601,62.0,0,180,3.0,0.0
4602,78.0,25,90,1.0,0.0
4603,66.0,10,180,3.0,0.0
4604,62.0,0,180,3.0,0.0
4605,83.0,70,120,1.0,0.0
4606,81.0,120,90,1.0,0.0
4607,62.0,0,180,3.0,0.0
4608,80.0,110,90,1.0,0.0
4609,66.0,10,180,3.0,0.0
4610,78.0,160,90,1.0,0.0
4611,57.0,120,480,5.0,0.0
4612,78.0,120,120,1.0,0.0
4613,76.0,120,120,1.0,0.0
4614,61.0,0,180,3.0,0.0
4615,64.0,25,180,3.0,0.0
4616,75.0,70,120,1.0,0.0
4617,76.0,25,90,1.0,0.0
4618,61.0,0,180,3.0,0.0
4619,64.0,50,180,3.0,0.0
4620,69.0,70,120,1.0,0.0
4621,73.0,120,120,1.0,0.0
4622,61.0,25,180,3.0,0.0
4623,64.0,0,180,3.0,0.0
4624,76.0,70,120,1.0,0.0
4625,81.0,145,90,1.0,0.0
4626,80.0,120,120,1.0,0.0
4627,57.0,120,480,5.0,0.0
4628,78.0,120,120,1.0,0.0
4629,62.0,25,180,3.0,0.0
4630,77.0,70,120,1.0,0.0
4631,66.0,0,180,3.0,0.0
4632,78.0,25,90,1.0,0.0
4633,83.0,70,120,1.0,0.0
4634,62.0,10,180,3.0,0.0
4635,66.0,0,180,3.0,0.0
4636,81.0,120,90,1.0,0.0
4637,80.0,110,90,1.0,0.0
4638,62.0,10,180,3.0,0.0
4639,66.0,0,180,3.0,0.0
4640,78.0,360,90,1.0,0.0
4641,76.0,65,330,1.0,0.0
4642,64.0,0,390,3.0,0.0
4643,61.0,70,390,3.0,0.0
4644,57.0,30,480,5.0,0.0
4645,76.0,25,90,1.0,0.0
4646,78.0,40,30,1.0,0.0
4647,76.0,40,30,1.0,0.0
4648,75.0,300,30,1.0,0.0
4649,76.0,455,300,1.0,0.0
4650,50.0,70,390,5.0,0.0
4651,59.0,0,390,4.0,0.0
4652,74.0,55,90,1.0,0.0
4653,76.0,40,30,1.0,0.0
4654,74.0,40,30,1.0,0.0
4655,73.0,300,30,1.0,0.0
4656,74.0,455,300,1.0,0.0
4657,57.0,70,390,4.0,0.0
4658,52.0,0,390,5.0,0.0
4659,73.0,55,90,1.0,0.0
4660,74.0,40,30,1.0,0.0
4661,73.0,40,30,1.0,0.0
4662,71.0,300,30,1.0,0.0
4663,73.0,455,300,1.0,0.0
4664,56.0,0,390,4.0,0.0
4665,50.0,70,390,5.0,0.0
4666,71.0,55,90,1.0,0.0
4667,73.0,40,30,1.0,0.0
4668,71.0,40,30,1.0,0.0
4669,70.0,300,30,1.0,0.0
4670,71.0,310,300,1.0,0.0
4671,49.0,0,390,5.0,0.0
4672,57.0,95,390,4.0,0.0
4673,76.0,120,120,1.0,0.0
4674,75.0,25,120,1.0,0.0
4675,76.0,120,120,1.0,0.0
4676,78.0,120,120,1.0,0.0
4677,76.0,120,120,1.0,0.0
4678,75.0,95,120,1.0,0.0
4679,76.0,265,90,1.0,0.0
4680,50.0,0,390,5.0,0.0
4681,59.0,95,390,4.0,0.0
4682,74.0,120,120,1.0,0.0
4683,73.0,25,120,1.0,0.0
4684,74.0,120,120,1.0,0.0
4685,76.0,120,120,1.0,0.0
4686,74.0,120,120,1.0,0.0
4687,73.0,95,120,1.0,0.0
4688,74.0,265,90,1.0,0.0
4689,57.0,0,390,4.0,0.0
4690,52.0,95,390,5.0,0.0
4691,73.0,120,120,1.0,0.0
4692,72.0,25,120,1.0,0.0
4693,73.0,120,120,1.0,0.0
4694,74.0,120,120,1.0,0.0
4695,73.0,120,120,1.0,0.0
4696,72.0,95,120,1.0,0.0
4697,73.0,265,90,1.0,0.0
4698,56.0,95,390,4.0,0.0
4699,52.0,0,390,5.0,0.0
4700,71.0,120,120,1.0,0.0
4701,70.0,25,120,1.0,0.0
4702,71.0,120,120,1.0,0.0
4703,73.0,120,120,1.0,0.0
4704,71.0,120,120,1.0,0.0
4705,70.0,95,120,1.0,0.0
4706,71.0,215,90,1.0,0.0
4707,57.0,70,390,5.0,0.0
4708,69.0,170,180,1.0,0.0
4709,73.0,25,120,1.0,0.0
4710,69.0,145,90,1.0,0.0
4711,76.0,120,120,1.0,0.0
4712,74.0,120,120,1.0,0.0
4713,71.0,95,120,1.0,0.0
4714,68.0,410,90,1.0,0.0
4715,69.0,430,390,1.0,0.0
4716,56.0,0,390,4.0,0.0
4717,68.0,50,330,2.0,0.0
4718,71.0,0,330,2.0,0.0
4719,64.0,0,390,4.0,0.0
4720,59.0,265,390,4.0,0.0
4721,52.0,0,390,5.0,0.0
4722,76.0,0,330,1.0,0.0
4723,49.0,0,390,4.0,0.0
4724,73.0,0,180,2.0,0.0
4725,69.0,0,180,2.0,0.0
4726,52.0,0,390,4.0,0.0
4727,76.0,190,180,2.0,0.0
4728,81.0,0,180,1.0,0.0
4729,57.0,0,390,4.0,0.0
4730,45.0,70,390,5.0,0.0
4731,73.0,25,120,1.0,0.0
4732,69.0,145,90,1.0,0.0
4733,76.0,120,120,1.0,0.0
4734,74.0,120,120,1.0,0.0
4735,71.0,95,120,1.0,0.0
4736,68.0,410,90,1.0,0.0
4737,69.0,480,390,1.0,0.0
4738,56.0,475,390,4.0,0.0
4739,52.0,0,390,5.0,0.0
4740,76.0,0,390,1.0,0.0
4741,59.0,0,390,4.0,0.0
4742,64.0,0,390,2.0,0.0
4743,68.0,0,390,2.0,0.0
4744,71.0,0,390,2.0,0.0
4745,57.0,0,390,4.0,0.0
4746,81.0,0,390,1.0,0.0
4747,69.0,0,390,2.0,0.0
4748,73.0,0,390,2.0,0.0
4749,49.0,0,390,4.0,0.0
4750,76.0,0,390,2.0,0.0
4751,52.0,1055,390,4.0,0.0
4752,45.0,0,390,5.0,0.0
4753,61.0,20,480,2.0,0.0
4754,45.0,480,960,5.0,0.0
4755,57.0,0,960,5.0,0.0
4756,64.0,25,450,2.0,0.0
4757,69.0,440,450,1.0,0.0
4758,64.0,0,480,1.0,0.0
4759,52.0,240,480,5.0,0.0
4760,40.0,0,480,5.0,0.0
4761,49.0,0,480,5.0,0.0
4762,61.0,480,480,5.0,0.0
4763,73.0,120,240,1.0,0.0
4764,74.0,120,120,1.0,0.0
4765,71.0,0,120,1.0,0.0
4766,57.0,720,480,5.0,0.0
4767,45.0,0,480,5.0,0.0
4768,69.0,0,480,1.0,0.0
4769,76.0,120,240,1.0,0.0
4770,78.0,120,120,1.0,0.0
4771,74.0,480,120,1.0,0.0
4772,73.0,480,480,1.0,0.0
4773,57.0,480,480,5.0,0.0
4774,85.0,0,480,1.0,0.0
4775,66.0,0,480,4.0,0.0
4776,59.0,480,480,5.0,0.0
4777,75.0,0,480,1.0,0.0
4778,69.0,0,480,4.0,0.0
4779,68.0,240,480,4.0,0.0
4780,76.0,240,720,1.0,0.0
4781,64.0,0,480,5.0,0.0
4782,77.0,240,240,1.0,0.0
4783,80.0,240,240,1.0,0.0
4784,78.0,240,240,1.0,0.0
4785,76.0,240,240,1.0,0.0
4786,74.0,240,240,1.0,0.0
4787,73.0,240,240,1.0,0.0
4788,71.0,240,240,1.0,0.0
4789,52.0,120,360,4.0,0.0
4790,69.0,120,240,1.0,0.0
4791,62.0,240,240,3.0,0.0
4792,68.0,0,240,1.0,0.0
4793,59.0,120,360,4.0,0.0
4794,76.0,120,240,1.0,0.0
4795,74.0,0,240,1.0,0.0
4796,62.0,360,240,3.0,0.0
4797,59.0,120,360,4.0,0.0
4798,62.0,240,240,3.0,0.0
4799,71.0,120,240,1.0,0.0
4800,52.0,120,360,4.0,0.0
4801,69.0,240,240,1.0,0.0
4802,61.0,0,240,3.0,0.0
4803,57.0,120,360,4.0,0.0
4804,78.0,120,240,1.0,0.0
4805,76.0,0,240,1.0,0.0
4806,61.0,360,240,3.0,0.0
4807,57.0,120,360,4.0,0.0
4808,61.0,240,240,3.0,0.0
4809,50.0,120,360,4.0,0.0
4810,73.0,120,240,1.0,0.0
4811,59.0,240,240,3.0,0.0
4812,71.0,0,240,1.0,0.0
4813,79.0,120,240,1.0,0.0
4814,54.0,120,360,4.0,0.0
4815,59.0,0,240,3.0,0.0
4816,78.0,360,240,1.0,0.0
4817,54.0,120,360,4.0,0.0
4818,59.0,480,240,3.0,0.0
4819,50.0,240,480,5.0,0.0
4820,66.0,0,480,1.0,0.0
4821,76.0,240,240,1.0,0.0
4822,74.0,240,240,1.0,0.0
4823,73.0,240,240,1.0,0.0
4824,71.0,240,240,1.0,0.0
4825,62.0,0,480,4.0,0.0
4826,52.0,480,480,5.0,0.0
4827,69.0,240,240,1.0,0.0
4828,68.0,0,240,1.0,0.0
4829,69.0,520,480,1.0,0.0
4830,57.0,0,480,5.0,0.0
4831,61.0,0,480,4.0,0.0
4832,52.0,240,240,5.0,0.0
4833,71.0,40,30,2.0,0.0
4834,76.0,40,30,2.0,0.0
4835,80.0,120,30,2.0,0.0
4836,83.0,22,1290,1.0,0.0
4837,56.0,240,240,5.0,0.0
4838,59.0,240,240,5.0,0.0
4839,56.0,240,240,5.0,0.0
4840,54.0,218,240,5.0,0.0
4841,52.0,120,240,5.0,0.0
4842,51.0,0,240,5.0,0.0
4843,83.0,120,120,1.0,0.0
4844,81.0,120,120,1.0,0.0
4845,80.0,120,120,1.0,0.0
4846,52.0,120,240,5.0,0.0
4847,54.0,0,240,5.0,0.0
4848,78.0,0,15,1.0,0.0
4849,76.0,120,120,1.0,0.0
4850,75.0,120,120,1.0,0.0
4851,47.0,120,240,5.0,0.0
4852,73.0,0,120,1.0,0.0
4853,71.0,120,120,1.0,0.0
4854,49.0,0,240,5.0,0.0
4855,69.0,120,120,1.0,0.0
4856,51.0,0,240,5.0,0.0
4857,68.0,120,120,1.0,0.0
4858,69.0,120,120,1.0,0.0
4859,52.0,120,240,5.0,0.0
4860,68.0,120,120,1.0,0.0
4861,71.0,0,120,1.0,0.0
4862,56.0,240,240,5.0,0.0
4863,76.0,120,120,1.0,0.0
4864,80.0,0,120,1.0,0.0
4865,83.0,120,960,1.0,0.0
4866,59.0,240,240,5.0,0.0
4867,56.0,240,240,5.0,0.0
4868,54.0,240,240,5.0,0.0
4869,52.0,0,240,5.0,0.0
4870,51.0,120,240,5.0,0.0
4871,83.0,120,120,1.0,0.0
4872,81.0,0,120,1.0,0.0
4873,80.0,120,120,1.0,0.0
4874,52.0,0,240,5.0,0.0
4875,78.0,120,120,1.0,0.0
4876,54.0,120,240,5.0,0.0
4877,78.0,120,120,1.0,0.0
4878,76.0,0,120,1.0,0.0
4879,75.0,120,120,1.0,0.0
4880,47.0,120,240,5.0,0.0
4881,73.0,0,120,1.0,0.0
4882,49.0,120,240,5.0,0.0
4883,71.0,120,120,1.0,0.0
4884,69.0,0,120,1.0,0.0
4885,68.0,120,120,1.0,0.0
4886,51.0,0,240,5.0,0.0
4887,69.0,120,120,1.0,0.0
4888,52.0,0,480,5.0,0.0
4889,68.0,120,120,1.0,0.0
4890,71.0,120,120,1.0,0.0
4891,69.0,120,120,1.0,0.0
4892,68.0,120,120,1.0,0.0
4893,69.0,120,120,1.0,0.0
4894,71.0,120,120,1.0,0.0
4895,73.0,120,120,1.0,0.0
4896,75.0,120,120,1.0,0.0
4897,76.0,120,120,1.0,0.0
4898,78.0,120,120,1.0,0.0
4899,80.0,120,120,1.0,0.0
4900,81.0,120,120,1.0,0.0
4901,83.0,120,120,1.0,0.0
4902,85.0,120,120,1.0,0.0
4903,87.0,120,120,1.0,0.0
4904,88.0,120,120,1.0,0.0
4905,87.0,120,120,1.0,0.0
4906,85.0,120,120,1.0,0.0
4907,83.0,120,120,1.0,0.0
4908,81.0,120,120,1.0,0.0
4909,80.0,120,120,1.0,0.0
4910,78.0,120,120,1.0,0.0
4911,76.0,120,120,1.0,0.0
4912,75.0,240,120,1.0,0.0
4913,73.0,240,240,1.0,0.0
4914,57.0,480,480,5.0,0.0
4915,66.0,0,480,5.0,0.0
4916,85.0,0,120,1.0,0.0
4917,59.0,310,960,5.0,0.0
4918,76.0,255,480,1.0,0.0
4919,68.0,0,480,4.0,0.0
4920,80.0,215,240,1.0,0.0
4921,69.0,0,480,4.0,0.0
4922,75.0,0,480,2.0,0.0
4923,78.0,10,240,1.0,0.0
4924,64.0,170,300,5.0,0.0
4925,76.0,310,480,1.0,0.0
4926,68.0,0,300,4.0,0.0
4927,52.0,1125,300,5.0,0.0
4928,45.0,0,960,5.0,0.0
4929,61.0,20,480,2.0,0.0
4930,57.0,480,960,5.0,0.0
4931,64.0,25,450,2.0,0.0
4932,69.0,440,450,1.0,0.0
4933,64.0,0,480,1.0,0.0
4934,40.0,240,480,5.0,0.0
4935,52.0,0,480,5.0,0.0
4936,61.0,0,480,5.0,0.0
4937,73.0,120,240,1.0,0.0
4938,49.0,480,480,5.0,0.0
4939,74.0,120,120,1.0,0.0
4940,71.0,0,120,1.0,0.0
4941,45.0,0,480,5.0,0.0
4942,57.0,720,480,5.0,0.0
4943,69.0,0,480,1.0,0.0
4944,76.0,120,240,1.0,0.0
4945,78.0,120,120,1.0,0.0
4946,74.0,480,120,1.0,0.0
4947,73.0,480,480,1.0,0.0
4948,85.0,0,480,1.0,0.0
4949,57.0,480,480,5.0,0.0
4950,66.0,0,480,4.0,0.0
4951,75.0,480,480,1.0,0.0
4952,69.0,0,480,4.0,0.0
4953,59.0,0,480,5.0,0.0
4954,64.0,0,480,5.0,0.0
4955,76.0,240,720,1.0,0.0
4956,68.0,240,480,4.0,0.0
4957,77.0,240,240,1.0,0.0
4958,80.0,240,240,1.0,0.0
4959,78.0,240,240,1.0,0.0
4960,76.0,240,240,1.0,0.0
4961,74.0,240,240,1.0,0.0
4962,73.0,240,240,1.0,0.0
4963,71.0,240,240,1.0,0.0
4964,52.0,120,360,4.0,0.0
4965,69.0,120,240,1.0,0.0
4966,68.0,0,240,1.0,0.0
4967,62.0,240,240,3.0,0.0
4968,59.0,120,360,4.0,0.0
4969,76.0,120,240,1.0,0.0
4970,74.0,360,240,1.0,0.0
4971,62.0,0,240,3.0,0.0
4972,59.0,120,360,4.0,0.0
4973,62.0,240,240,3.0,0.0
4974,52.0,120,360,4.0,0.0
4975,71.0,120,240,1.0,0.0
4976,61.0,0,240,3.0,0.0
4977,69.0,240,240,1.0,0.0
4978,78.0,120,240,1.0,0.0
4979,57.0,120,360,4.0,0.0
4980,61.0,360,240,3.0,0.0
4981,76.0,0,240,1.0,0.0
4982,57.0,120,360,4.0,0.0
4983,61.0,240,240,3.0,0.0
4984,50.0,120,360,4.0,0.0
4985,73.0,120,240,1.0,0.0
4986,71.0,0,240,1.0,0.0
4987,59.0,240,240,3.0,0.0
4988,79.0,120,240,1.0,0.0
4989,54.0,120,360,4.0,0.0
4990,78.0,0,240,1.0,0.0
4991,59.0,360,240,3.0,0.0
4992,54.0,120,360,4.0,0.0
4993,59.0,480,240,3.0,0.0
4994,66.0,240,480,1.0,0.0
4995,50.0,0,480,5.0,0.0
4996,76.0,240,240,1.0,0.0
4997,74.0,240,240,1.0,0.0
4998,73.0,240,240,1.0,0.0
4999,71.0,240,240,1.0,0.0
5000,69.0,240,240,1.0,0.0
5001,52.0,480,480,5.0,0.0
5002,62.0,0,480,4.0,0.0
5003,68.0,0,240,1.0,0.0
5004,69.0,520,480,1.0,0.0
5005,61.0,0,480,4.0,0.0
5006,57.0,0,480,5.0,0.0
5007,52.0,240,240,5.0,0.0
5008,71.0,40,30,2.0,0.0
5009,76.0,40,30,2.0,0.0
5010,80.0,120,30,2.0,0.0
5011,83.0,22,1290,1.0,0.0
5012,56.0,240,240,5.0,0.0
5013,59.0,240,240,5.0,0.0
5014,56.0,240,240,5.0,0.0
5015,54.0,218,240,5.0,0.0
5016,52.0,120,240,5.0,0.0
5017,51.0,120,240,5.0,0.0
5018,83.0,120,120,1.0,0.0
5019,81.0,0,120,1.0,0.0
5020,52.0,0,240,5.0,0.0
5021,80.0,120,120,1.0,0.0
5022,78.0,120,120,1.0,0.0
5023,78.0,120,120,1.0,0.0
5024,54.0,120,240,5.0,0.0
5025,76.0,0,120,1.0,0.0
5026,47.0,0,240,5.0,0.0
5027,75.0,120,120,1.0,0.0
5028,73.0,120,120,1.0,0.0
5029,71.0,120,120,1.0,0.0
5030,49.0,120,240,5.0,0.0
5031,69.0,0,120,1.0,0.0
5032,68.0,120,120,1.0,0.0
5033,51.0,0,240,5.0,0.0
5034,69.0,120,120,1.0,0.0
5035,52.0,0,240,5.0,0.0
5036,68.0,120,120,1.0,0.0
5037,71.0,120,120,1.0,0.0
5038,56.0,0,240,5.0,0.0
5039,76.0,120,120,1.0,0.0
5040,80.0,240,120,1.0,0.0
5041,59.0,240,240,5.0,0.0
5042,56.0,240,240,5.0,0.0
5043,54.0,240,240,5.0,0.0
5044,52.0,120,240,5.0,0.0
5045,83.0,0,15,1.0,0.0
5046,51.0,0,240,5.0,0.0
5047,81.0,120,120,1.0,0.0
5048,80.0,120,120,1.0,0.0
5049,52.0,120,240,5.0,0.0
5050,78.0,0,15,1.0,0.0
5051,54.0,120,240,5.0,0.0
5052,76.0,0,120,1.0,0.0
5053,75.0,120,120,1.0,0.0
5054,47.0,0,240,5.0,0.0
5055,73.0,120,120,1.0,0.0
5056,49.0,0,240,5.0,0.0
5057,71.0,120,120,1.0,0.0
5058,69.0,120,120,1.0,0.0
5059,51.0,0,240,5.0,0.0
5060,68.0,120,120,1.0,0.0
5061,69.0,120,120,1.0,0.0
5062,52.0,0,480,5.0,0.0
5063,68.0,120,120,1.0,0.0
5064,71.0,120,120,1.0,0.0
5065,69.0,120,120,1.0,0.0
5066,68.0,120,120,1.0,0.0
5067,69.0,120,120,1.0,0.0
5068,71.0,120,120,1.0,0.0
5069,73.0,120,120,1.0,0.0
5070,75.0,120,120,1.0,0.0
5071,76.0,120,120,1.0,0.0
5072,78.0,120,120,1.0,0.0
5073,80.0,120,120,1.0,0.0
5074,81.0,120,120,1.0,0.0
5075,83.0,120,120,1.0,0.0
5076,85.0,120,120,1.0,0.0
5077,87.0,120,120,1.0,0.0
5078,88.0,120,120,1.0,0.0
5079,87.0,120,120,1.0,0.0
5080,85.0,120,120,1.0,0.0
5081,83.0,120,120,1.0,0.0
5082,81.0,120,120,1.0,0.0
5083,80.0,120,120,1.0,0.0
5084,78.0,120,120,1.0,0.0
5085,76.0,120,120,1.0,0.0
5086,75.0,240,120,1.0,0.0
5087,66.0,480,480,5.0,0.0
5088,57.0,0,480,5.0,0.0
5089,73.0,240,240,1.0,0.0
5090,85.0,0,120,1.0,0.0
5091,76.0,255,480,1.0,0.0
5092,59.0,0,960,5.0,0.0
5093,68.0,0,480,4.0,0.0
5094,69.0,310,480,4.0,0.0
5095,80.0,215,240,1.0,0.0
5096,75.0,0,480,2.0,0.0
5097,78.0,10,240,1.0,0.0
5098,76.0,310,480,1.0,0.0
5099,64.0,170,300,5.0,0.0
5100,68.0,0,300,4.0,0.0
5101,52.0,770,300,5.0,0.0
5102,64.0,330,120,1.0,0.0
5103,76.0,150,330,1.0,0.0
5104,66.0,330,120,1.0,0.0
5105,78.0,150,330,1.0,0.0
5106,67.0,330,120,1.0,0.0
5107,79.0,270,330,1.0,0.0
5108,54.0,240,240,5.0,0.0
5109,71.0,0,480,1.0,0.0
5110,61.0,240,240,5.0,0.0
5111,70.0,0,480,1.0,0.0
5112,66.0,240,240,5.0,0.0
5113,64.0,240,240,5.0,0.0
5114,62.0,215,240,5.0,0.0
5115,61.0,240,240,5.0,0.0
5116,70.0,25,90,1.0,0.0
5117,73.0,0,480,1.0,0.0
5118,54.0,240,240,5.0,0.0
5119,62.0,240,240,5.0,0.0
5120,66.0,240,240,5.0,0.0
5121,71.0,0,480,1.0,0.0
5122,62.0,240,240,5.0,0.0
5123,61.0,215,240,5.0,0.0
5124,59.0,240,240,5.0,0.0
5125,71.0,25,90,1.0,0.0
5126,74.0,0,480,1.0,0.0
5127,54.0,240,240,5.0,0.0
5128,58.0,240,240,5.0,0.0
5129,73.0,0,480,1.0,0.0
5130,64.0,240,240,5.0,0.0
5131,61.0,240,240,5.0,0.0
5132,59.0,215,240,5.0,0.0
5133,58.0,240,240,5.0,0.0
5134,73.0,25,90,1.0,0.0
5135,59.0,240,480,5.0,0.0
5136,76.0,190,240,1.0,0.0
5137,74.0,50,180,1.0,0.0
5138,77.0,190,240,1.0,0.0
5139,76.0,290,180,1.0,0.0
5140,79.0,190,240,1.0,0.0
5141,78.0,290,180,1.0,0.0
5142,52.0,240,240,5.0,0.0
5143,69.0,0,480,1.0,0.0
5144,59.0,240,240,5.0,0.0
5145,68.0,0,480,1.0,0.0
5146,64.0,240,240,5.0,0.0
5147,62.0,240,240,5.0,0.0
5148,60.0,215,240,5.0,0.0
5149,59.0,240,240,5.0,0.0
5150,68.0,25,90,1.0,0.0
5151,71.0,240,480,1.0,0.0
5152,52.0,240,240,5.0,0.0
5153,60.0,0,240,5.0,0.0
5154,69.0,0,480,1.0,0.0
5155,64.0,240,240,5.0,0.0
5156,60.0,240,240,5.0,0.0
5157,59.0,215,240,5.0,0.0
5158,57.0,240,240,5.0,0.0
5159,69.0,25,90,1.0,0.0
5160,72.0,0,480,1.0,0.0
5161,52.0,240,240,5.0,0.0
5162,56.0,240,240,5.0,0.0
5163,62.0,240,240,5.0,0.0
5164,71.0,240,480,1.0,0.0
5165,59.0,0,240,5.0,0.0
5166,57.0,215,240,5.0,0.0
5167,56.0,240,240,5.0,0.0
5168,71.0,25,90,1.0,0.0
5169,74.0,240,240,1.0,0.0
5170,57.0,0,960,5.0,0.0
5171,72.0,240,240,1.0,0.0
5172,71.0,240,240,1.0,0.0
5173,69.0,155,240,1.0,0.0
5174,43.0,0,480,5.0,0.0
5175,81.0,240,150,1.0,0.0
5176,55.0,240,480,5.0,0.0
5177,81.0,85,150,1.0,0.0
5178,53.0,240,960,5.0,0.0
5179,83.0,240,240,1.0,0.0
5180,41.0,0,960,5.0,0.0
5181,81.0,240,240,1.0,0.0
5182,79.0,240,240,1.0,0.0
5183,77.0,0,240,1.0,0.0
5184,76.0,240,240,1.0,0.0
5185,75.0,240,240,1.0,0.0
5186,57.0,240,240,4.0,0.0
5187,53.0,0,1440,5.0,0.0
5188,84.0,0,960,1.0,0.0
5189,56.0,240,240,4.0,0.0
5190,57.0,240,240,4.0,0.0
5191,60.0,240,240,4.0,0.0
5192,75.0,0,480,1.0,0.0
5193,59.0,240,240,4.0,0.0
5194,57.0,310,240,4.0,0.0
5195,76.0,120,720,1.0,0.0
5196,52.0,410,300,5.0,0.0
5197,56.0,0,300,4.0,0.0
5198,78.0,120,120,1.0,0.0
5199,76.0,120,15,1.0,0.0
5200,74.0,120,120,1.0,0.0
5201,73.0,120,120,1.0,0.0
5202,71.0,950,120,1.0,0.0
5203,61.0,0,960,2.0,0.0
5204,45.0,5,960,5.0,0.0
5205,57.0,0,960,5.0,0.0
5206,64.0,10,900,2.0,0.0
5207,69.0,475,900,1.0,0.0
5208,40.0,0,480,5.0,0.0
5209,52.0,240,480,5.0,0.0
5210,64.0,0,480,1.0,0.0
5211,49.0,0,480,5.0,0.0
5212,73.0,120,240,1.0,0.0
5213,61.0,0,480,5.0,0.0
5214,74.0,120,120,1.0,0.0
5215,71.0,480,120,1.0,0.0
5216,57.0,720,480,5.0,0.0
5217,69.0,0,480,1.0,0.0
5218,45.0,0,480,5.0,0.0
5219,76.0,120,240,1.0,0.0
5220,78.0,120,120,1.0,0.0
5221,74.0,480,120,1.0,0.0
5222,73.0,480,480,1.0,0.0
5223,57.0,0,480,5.0,0.0
5224,66.0,480,480,4.0,0.0
5225,85.0,0,480,1.0,0.0
5226,59.0,480,480,5.0,0.0
5227,75.0,0,480,1.0,0.0
5228,69.0,0,480,4.0,0.0
5229,76.0,240,720,1.0,0.0
5230,68.0,0,480,4.0,0.0
5231,64.0,240,480,5.0,0.0
5232,77.0,240,240,1.0,0.0
5233,80.0,240,240,1.0,0.0
5234,78.0,240,240,1.0,0.0
5235,76.0,240,240,1.0,0.0
5236,74.0,240,240,1.0,0.0
5237,73.0,240,240,1.0,0.0
5238,71.0,240,240,1.0,0.0
5239,52.0,120,360,4.0,0.0
5240,69.0,120,240,1.0,0.0
5241,62.0,0,240,3.0,0.0
5242,68.0,240,240,1.0,0.0
5243,59.0,120,360,4.0,0.0
5244,76.0,120,240,1.0,0.0
5245,74.0,360,240,1.0,0.0
5246,62.0,0,240,3.0,0.0
5247,59.0,120,360,4.0,0.0
5248,62.0,240,240,3.0,0.0
5249,52.0,120,360,4.0,0.0
5250,71.0,120,240,1.0,0.0
5251,69.0,0,240,1.0,0.0
5252,61.0,240,240,3.0,0.0
5253,78.0,120,240,1.0,0.0
5254,57.0,120,360,4.0,0.0
5255,61.0,0,240,3.0,0.0
5256,76.0,360,240,1.0,0.0
5257,57.0,120,360,4.0,0.0
5258,61.0,240,240,3.0,0.0
5259,52.0,120,360,4.0,0.0
5260,71.0,120,240,1.0,0.0
5261,69.0,0,240,1.0,0.0
5262,61.0,240,240,3.0,0.0
5263,57.0,120,360,4.0,0.0
5264,81.0,120,240,1.0,0.0
5265,79.0,360,240,1.0,0.0
5266,61.0,0,240,3.0,0.0
5267,57.0,120,360,4.0,0.0
5268,61.0,240,240,3.0,0.0
5269,62.0,0,480,4.0,0.0
5270,57.0,0,480,4.0,0.0
5271,50.0,240,480,5.0,0.0
5272,79.0,240,240,1.0,0.0
5273,78.0,0,240,1.0,0.0
5274,76.0,240,240,1.0,0.0
5275,74.0,240,240,1.0,0.0
5276,73.0,240,240,1.0,0.0
5277,71.0,120,240,1.0,0.0
5278,49.0,0,360,5.0,0.0
5279,76.0,40,120,1.0,0.0
5280,78.0,40,30,1.0,0.0
5281,76.0,40,30,1.0,0.0
5282,75.0,120,30,1.0,0.0
5283,76.0,120,120,1.0,0.0
5284,50.0,480,120,5.0,0.0
5285,78.0,0,120,1.0,0.0
5286,52.0,40,960,5.0,0.0
5287,61.0,0,480,4.0,0.0
5288,69.0,480,480,1.0,0.0
5289,68.0,0,480,1.0,0.0
5290,59.0,0,480,4.0,0.0
5291,69.0,40,30,2.0,0.0
5292,57.0,210,240,5.0,0.0
5293,73.0,160,30,2.0,0.0
5294,76.0,30,360,1.0,0.0
5295,61.0,240,240,5.0,0.0
5296,76.0,0,960,1.0,0.0
5297,64.0,240,240,5.0,0.0
5298,61.0,240,240,5.0,0.0
5299,59.0,240,240,5.0,0.0
5300,57.0,120,240,5.0,0.0
5301,56.0,0,240,5.0,0.0
5302,76.0,120,120,1.0,0.0
5303,74.0,120,120,1.0,0.0
5304,73.0,120,120,1.0,0.0
5305,57.0,0,240,5.0,0.0
5306,71.0,120,120,1.0,0.0
5307,59.0,120,240,5.0,0.0
5308,71.0,120,120,1.0,0.0
5309,69.0,0,120,1.0,0.0
5310,52.0,120,240,5.0,0.0
5311,68.0,120,120,1.0,0.0
5312,66.0,0,120,1.0,0.0
5313,54.0,120,240,5.0,0.0
5314,64.0,120,120,1.0,0.0
5315,62.0,0,120,1.0,0.0
5316,56.0,120,240,5.0,0.0
5317,61.0,120,120,1.0,0.0
5318,62.0,0,120,1.0,0.0
5319,61.0,120,120,1.0,0.0
5320,57.0,120,240,5.0,0.0
5321,64.0,0,120,1.0,0.0
5322,69.0,120,120,1.0,0.0
5323,61.0,240,240,5.0,0.0
5324,73.0,0,120,1.0,0.0
5325,64.0,240,240,5.0,0.0
5326,76.0,0,720,1.0,0.0
5327,61.0,240,240,5.0,0.0
5328,59.0,240,240,5.0,0.0
5329,57.0,0,240,5.0,0.0
5330,88.0,120,15,1.0,0.0
5331,56.0,0,240,5.0,0.0
5332,86.0,120,120,1.0,0.0
5333,57.0,120,240,5.0,0.0
5334,85.0,120,120,1.0,0.0
5335,83.0,0,120,1.0,0.0
5336,83.0,120,120,1.0,0.0
5337,59.0,120,240,5.0,0.0
5338,81.0,0,120,1.0,0.0
5339,80.0,120,120,1.0,0.0
5340,52.0,0,240,5.0,0.0
5341,78.0,120,120,1.0,0.0
5342,54.0,120,240,5.0,0.0
5343,76.0,120,120,1.0,0.0
5344,74.0,0,120,1.0,0.0
5345,73.0,120,120,1.0,0.0
5346,56.0,120,240,5.0,0.0
5347,74.0,0,120,1.0,0.0
5348,57.0,50,300,5.0,0.0
5349,73.0,120,120,1.0,0.0
5350,76.0,70,120,1.0,0.0
5351,74.0,120,120,1.0,0.0
5352,73.0,120,120,1.0,0.0
5353,54.0,0,300,5.0,0.0
5354,57.0,50,300,4.0,0.0
5355,74.0,120,120,1.0,0.0
5356,76.0,70,120,1.0,0.0
5357,78.0,120,120,1.0,0.0
5358,80.0,120,120,1.0,0.0
5359,54.0,0,300,4.0,0.0
5360,50.0,0,300,5.0,0.0
5361,57.0,50,300,4.0,0.0
5362,81.0,120,120,1.0,0.0
5363,83.0,70,120,1.0,0.0
5364,85.0,120,120,1.0,0.0
5365,86.0,120,120,1.0,0.0
5366,88.0,120,120,1.0,0.0
5367,49.0,95,390,5.0,0.0
5368,57.0,0,390,4.0,0.0
5369,52.0,0,390,4.0,0.0
5370,86.0,120,120,1.0,0.0
5371,85.0,25,120,1.0,0.0
5372,83.0,120,120,1.0,0.0
5373,81.0,120,120,1.0,0.0
5374,80.0,120,120,1.0,0.0
5375,78.0,120,120,1.0,0.0
5376,76.0,120,120,1.0,0.0
5377,74.0,120,120,1.0,0.0
5378,73.0,120,120,1.0,0.0
5379,71.0,120,120,1.0,0.0
5380,69.0,60,120,1.0,0.0
5381,78.0,60,60,1.0,0.0
5382,50.0,480,480,5.0,0.0
5383,59.0,0,480,4.0,0.0
5384,80.0,60,60,1.0,0.0
5385,78.0,60,60,1.0,0.0
5386,80.0,40,60,1.0,0.0
5387,78.0,40,30,1.0,0.0
5388,80.0,40,30,1.0,0.0
5389,78.0,60,30,1.0,0.0
5390,80.0,60,60,1.0,0.0
5391,81.0,0,60,1.0,0.0
5392,69.0,0,480,1.0,0.0
5393,52.0,0,960,5.0,0.0
5394,61.0,245,480,4.0,0.0
5395,68.0,0,480,2.0,0.0
5396,73.0,235,240,1.0,0.0
5397,62.0,0,480,4.0,0.0
5398,71.0,385,240,1.0,0.0
5399,61.0,0,390,4.0,0.0
5400,57.0,480,390,5.0,0.0
5401,69.0,0,390,1.0,0.0
5402,45.0,815,390,5.0,0.0
5403,38.0,0,1530,5.0,0.0
5404,50.0,145,1530,5.0,0.0
5405,69.0,240,240,1.0,0.0
5406,66.0,0,240,2.0,0.0
5407,57.0,240,240,3.0,0.0
5408,62.0,0,240,2.0,0.0
5409,66.0,240,240,1.0,0.0
5410,57.0,240,240,3.0,0.0
5411,64.0,240,240,2.0,0.0
5412,67.0,0,240,1.0,0.0
5413,57.0,95,240,3.0,0.0
5414,69.0,240,240,1.0,0.0
5415,66.0,0,240,2.0,0.0
5416,57.0,240,240,3.0,0.0
5417,66.0,0,240,1.0,0.0
5418,62.0,240,240,2.0,0.0
5419,64.0,240,240,1.0,0.0
5420,61.0,0,240,2.0,0.0
5421,66.0,240,240,1.0,0.0
5422,62.0,0,240,2.0,0.0
5423,64.0,240,240,2.0,0.0
5424,67.0,0,240,1.0,0.0
5425,66.0,0,240,2.0,0.0
5426,69.0,240,240,1.0,0.0
5427,62.0,240,240,3.0,0.0
5428,71.0,240,240,1.0,0.0
5429,67.0,0,240,2.0,0.0
5430,62.0,240,240,3.0,0.0
5431,67.0,0,240,2.0,0.0
5432,57.0,0,390,5.0,0.0
5433,73.0,145,240,1.0,0.0
5434,45.0,95,390,5.0,0.0
5435,64.0,240,240,3.0,0.0
5436,38.0,95,390,5.0,0.0
5437,74.0,0,240,1.0,0.0
5438,66.0,145,240,2.0,0.0
5439,50.0,0,390,5.0,0.0
5440,69.0,240,240,2.0,0.0
5441,62.0,240,240,4.0,0.0
5442,78.0,0,240,1.0,0.0
5443,66.0,0,240,2.0,0.0
5444,64.0,0,240,2.0,0.0
5445,61.0,240,240,4.0,0.0
5446,76.0,0,240,1.0,0.0
5447,78.0,240,240,1.0,0.0
5448,66.0,0,240,2.0,0.0
5449,62.0,0,240,4.0,0.0
5450,64.0,0,240,4.0,0.0
5451,67.0,0,240,2.0,0.0
5452,79.0,240,240,1.0,0.0
5453,66.0,0,240,4.0,0.0
5454,69.0,240,240,2.0,0.0
5455,81.0,240,480,1.0,0.0
5456,62.0,0,240,3.0,0.0
5457,83.0,0,480,1.0,0.0
5458,67.0,240,240,4.0,0.0
5459,71.0,0,240,2.0,0.0
5460,62.0,240,240,3.0,0.0
5461,73.0,0,240,2.0,0.0
5462,67.0,240,240,4.0,0.0
5463,85.0,240,480,1.0,0.0
5464,64.0,0,240,3.0,0.0
5465,74.0,0,240,2.0,0.0
5466,86.0,0,480,1.0,0.0
5467,66.0,240,240,4.0,0.0
5468,69.0,240,240,3.0,0.0
5469,74.0,0,240,1.0,0.0
5470,66.0,240,240,2.0,0.0
5471,64.0,240,240,2.0,0.0
5472,73.0,0,240,1.0,0.0
5473,62.0,240,240,2.0,0.0
5474,71.0,0,240,1.0,0.0
5475,69.0,0,240,1.0,0.0
5476,61.0,240,240,2.0,0.0
5477,68.0,145,240,1.0,0.0
5478,59.0,0,240,2.0,0.0
5479,52.0,95,390,5.0,0.0
5480,64.0,240,240,3.0,0.0
5481,49.0,95,390,5.0,0.0
5482,69.0,0,240,1.0,0.0
5483,61.0,145,240,2.0,0.0
5484,64.0,240,240,3.0,0.0
5485,73.0,145,240,1.0,0.0
5486,45.0,95,390,5.0,0.0
5487,69.0,0,240,2.0,0.0
5488,64.0,240,240,3.0,0.0
5489,52.0,95,390,5.0,0.0
5490,68.0,145,240,2.0,0.0
5491,71.0,0,240,1.0,0.0
5492,64.0,240,240,3.0,0.0
5493,86.0,240,240,1.0,0.0
5494,74.0,0,240,2.0,0.0
5495,66.0,0,240,4.0,0.0
5496,85.0,240,240,1.0,0.0
5497,73.0,0,240,2.0,0.0
5498,64.0,0,240,4.0,0.0
5499,71.0,0,240,2.0,0.0
5500,62.0,240,240,4.0,0.0
5501,83.0,0,240,1.0,0.0
5502,61.0,0,240,4.0,0.0
5503,81.0,0,240,1.0,0.0
5504,69.0,60,240,2.0,0.0
5505,87.0,180,60,1.0,0.0
5506,59.0,225,240,4.0,0.0
5507,68.0,0,240,2.0,0.0
5508,88.0,15,420,1.0,0.0
5509,64.0,60,240,3.0,0.0
5510,61.0,0,240,4.0,0.0
5511,87.0,180,60,1.0,0.0
5512,69.0,230,240,2.0,0.0
5513,88.0,10,420,1.0,0.0
5514,64.0,60,240,3.0,0.0
5515,69.0,0,240,4.0,0.0
5516,87.0,180,60,1.0,0.0
5517,73.0,225,240,2.0,0.0
5518,88.0,15,420,1.0,0.0
5519,64.0,60,240,3.0,0.0
5520,87.0,180,60,1.0,0.0
5521,68.0,230,240,4.0,0.0
5522,71.0,0,240,2.0,0.0
5523,88.0,10,420,1.0,0.0
5524,73.0,190,240,1.0,0.0
5525,64.0,190,15,3.0,0.0
5526,45.0,50,180,5.0,0.0
5527,71.0,190,240,1.0,0.0
5528,44.0,50,180,5.0,0.0
5529,73.0,190,240,1.0,0.0
5530,45.0,50,180,5.0,0.0
5531,74.0,240,240,1.0,0.0
5532,47.0,50,180,5.0,0.0
5533,49.0,95,390,5.0,0.0
5534,76.0,145,240,1.0,0.0
5535,69.0,240,240,1.0,0.0
5536,52.0,95,390,5.0,0.0
5537,69.0,0,480,2.0,0.0
5538,73.0,145,240,1.0,0.0
5539,64.0,240,240,3.0,0.0
5540,71.0,145,240,1.0,0.0
5541,40.0,95,390,5.0,0.0
5542,68.0,240,480,2.0,0.0
5543,64.0,0,240,3.0,0.0
5544,69.0,145,240,1.0,0.0
5545,45.0,95,390,5.0,0.0
5546,64.0,240,240,3.0,0.0
5547,69.0,0,240,4.0,0.0
5548,73.0,240,240,2.0,0.0
5549,85.0,0,240,1.0,0.0
5550,68.0,240,240,4.0,0.0
5551,71.0,0,240,2.0,0.0
5552,83.0,0,240,1.0,0.0
5553,73.0,240,240,2.0,0.0
5554,69.0,0,240,4.0,0.0
5555,85.0,0,240,1.0,0.0
5556,71.0,240,240,4.0,0.0
5557,86.0,0,240,1.0,0.0
5558,74.0,0,240,2.0,0.0
5559,76.0,240,240,2.0,0.0
5560,73.0,0,240,4.0,0.0
5561,88.0,240,480,1.0,0.0
5562,64.0,0,240,3.0,0.0
5563,73.0,0,240,2.0,0.0
5564,85.0,0,480,1.0,0.0
5565,69.0,240,240,4.0,0.0
5566,64.0,240,240,3.0,0.0
5567,71.0,0,240,2.0,0.0
5568,83.0,240,480,1.0,0.0
5569,68.0,240,240,4.0,0.0
5570,64.0,0,240,3.0,0.0
5571,81.0,0,480,1.0,0.0
5572,69.0,240,240,2.0,0.0
5573,64.0,240,240,1.0,0.0
5574,59.0,0,390,4.0,0.0
5575,66.0,145,240,1.0,0.0
5576,50.0,95,390,5.0,0.0
5577,74.0,240,240,1.0,0.0
5578,71.0,145,240,1.0,0.0
5579,52.0,0,390,5.0,0.0
5580,62.0,95,390,4.0,0.0
5581,68.0,240,240,1.0,0.0
5582,61.0,0,390,4.0,0.0
5583,57.0,95,390,5.0,0.0
5584,69.0,145,240,1.0,0.0
5585,64.0,240,240,1.0,0.0
5586,59.0,0,390,4.0,0.0
5587,66.0,145,240,1.0,0.0
5588,50.0,95,390,5.0,0.0
5589,74.0,240,240,1.0,0.0
5590,71.0,145,240,1.0,0.0
5591,52.0,0,390,5.0,0.0
5592,62.0,95,390,4.0,0.0
5593,68.0,240,240,1.0,0.0
5594,61.0,0,390,4.0,0.0
5595,69.0,145,240,1.0,0.0
5596,57.0,95,390,5.0,0.0
5597,68.0,240,240,1.0,0.0
5598,69.0,240,240,1.0,0.0
5599,71.0,240,240,1.0,0.0
5600,67.0,240,240,1.0,0.0
5601,64.0,240,240,1.0,0.0
5602,38.0,145,1530,5.0,0.0
5603,50.0,0,1530,5.0,0.0
5604,69.0,0,240,1.0,0.0
5605,66.0,240,240,2.0,0.0
5606,57.0,240,240,3.0,0.0
5607,66.0,0,240,1.0,0.0
5608,62.0,240,240,2.0,0.0
5609,57.0,240,240,3.0,0.0
5610,64.0,0,240,2.0,0.0
5611,67.0,240,240,1.0,0.0
5612,57.0,95,240,3.0,0.0
5613,69.0,240,240,1.0,0.0
5614,66.0,0,240,2.0,0.0
5615,57.0,240,240,3.0,0.0
5616,66.0,240,240,1.0,0.0
5617,62.0,0,240,2.0,0.0
5618,64.0,240,240,1.0,0.0
5619,61.0,0,240,2.0,0.0
5620,62.0,0,240,2.0,0.0
5621,66.0,240,240,1.0,0.0
5622,67.0,0,240,1.0,0.0
5623,64.0,240,240,2.0,0.0
5624,69.0,0,240,1.0,0.0
5625,66.0,240,240,2.0,0.0
5626,62.0,240,240,3.0,0.0
5627,67.0,240,240,2.0,0.0
5628,71.0,0,240,1.0,0.0
5629,62.0,240,240,3.0,0.0
5630,67.0,0,240,2.0,0.0
5631,73.0,145,240,1.0,0.0
5632,45.0,95,390,5.0,0.0
5633,57.0,0,390,5.0,0.0
5634,64.0,240,240,3.0,0.0
5635,50.0,0,390,5.0,0.0
5636,66.0,145,240,2.0,0.0
5637,38.0,95,390,5.0,0.0
5638,74.0,0,240,1.0,0.0
5639,69.0,240,240,2.0,0.0
5640,78.0,0,240,1.0,0.0
5641,66.0,240,240,2.0,0.0
5642,62.0,0,240,4.0,0.0
5643,76.0,0,240,1.0,0.0
5644,64.0,240,240,2.0,0.0
5645,61.0,0,240,4.0,0.0
5646,62.0,0,240,4.0,0.0
5647,78.0,240,240,1.0,0.0
5648,66.0,0,240,2.0,0.0
5649,64.0,0,240,4.0,0.0
5650,79.0,240,240,1.0,0.0
5651,67.0,0,240,2.0,0.0
5652,66.0,0,240,4.0,0.0
5653,69.0,240,240,2.0,0.0
5654,81.0,240,480,1.0,0.0
5655,62.0,0,240,3.0,0.0
5656,67.0,240,240,4.0,0.0
5657,71.0,0,240,2.0,0.0
5658,83.0,240,480,1.0,0.0
5659,62.0,0,240,3.0,0.0
5660,73.0,240,240,2.0,0.0
5661,85.0,0,480,1.0,0.0
5662,67.0,0,240,4.0,0.0
5663,64.0,240,240,3.0,0.0
5664,74.0,0,240,2.0,0.0
5665,66.0,240,240,4.0,0.0
5666,86.0,0,480,1.0,0.0
5667,69.0,240,240,3.0,0.0
5668,74.0,240,240,1.0,0.0
5669,66.0,0,240,2.0,0.0
5670,64.0,0,240,2.0,0.0
5671,73.0,240,240,1.0,0.0
5672,62.0,0,240,2.0,0.0
5673,71.0,240,240,1.0,0.0
5674,61.0,240,240,2.0,0.0
5675,69.0,0,240,1.0,0.0
5676,59.0,145,240,2.0,0.0
5677,52.0,95,390,5.0,0.0
5678,68.0,0,240,1.0,0.0
5679,64.0,240,240,3.0,0.0
5680,69.0,0,240,1.0,0.0
5681,49.0,95,390,5.0,0.0
5682,61.0,145,240,2.0,0.0
5683,64.0,240,240,3.0,0.0
5684,45.0,95,390,5.0,0.0
5685,73.0,145,240,1.0,0.0
5686,69.0,0,240,2.0,0.0
5687,64.0,240,240,3.0,0.0
5688,68.0,0,240,2.0,0.0
5689,52.0,95,390,5.0,0.0
5690,71.0,145,240,1.0,0.0
5691,64.0,240,240,3.0,0.0
5692,74.0,0,240,2.0,0.0
5693,66.0,0,240,4.0,0.0
5694,86.0,240,240,1.0,0.0
5695,73.0,0,240,2.0,0.0
5696,85.0,0,240,1.0,0.0
5697,64.0,240,240,4.0,0.0
5698,62.0,0,240,4.0,0.0
5699,83.0,0,240,1.0,0.0
5700,71.0,240,240,2.0,0.0
5701,61.0,60,240,4.0,0.0
5702,69.0,0,240,2.0,0.0
5703,81.0,0,240,1.0,0.0
5704,87.0,180,60,1.0,0.0
5705,59.0,0,240,4.0,0.0
5706,68.0,225,240,2.0,0.0
5707,88.0,15,420,1.0,0.0
5708,64.0,60,240,3.0,0.0
5709,69.0,230,240,2.0,0.0
5710,87.0,180,60,1.0,0.0
5711,61.0,0,240,4.0,0.0
5712,88.0,10,420,1.0,0.0
5713,64.0,60,240,3.0,0.0
5714,73.0,0,240,2.0,0.0
5715,87.0,180,60,1.0,0.0
5716,69.0,225,240,4.0,0.0
5717,88.0,15,420,1.0,0.0
5718,64.0,60,240,3.0,0.0
5719,71.0,0,240,2.0,0.0
5720,87.0,180,60,1.0,0.0
5721,68.0,230,240,4.0,0.0
5722,88.0,10,420,1.0,0.0
5723,64.0,190,240,3.0,0.0
5724,73.0,190,240,1.0,0.0
5725,45.0,50,180,5.0,0.0
5726,64.0,0,1440,3.0,0.0
5727,71.0,190,240,1.0,0.0
5728,44.0,50,180,5.0,0.0
5729,45.0,50,180,5.0,0.0
5730,73.0,190,240,1.0,0.0
5731,74.0,240,240,1.0,0.0
5732,47.0,50,180,5.0,0.0
5733,76.0,145,240,1.0,0.0
5734,49.0,95,390,5.0,0.0
5735,69.0,240,240,1.0,0.0
5736,52.0,95,390,5.0,0.0
5737,69.0,0,480,2.0,0.0
5738,73.0,145,240,1.0,0.0
5739,64.0,240,240,3.0,0.0
5740,68.0,0,480,2.0,0.0
5741,71.0,145,240,1.0,0.0
5742,40.0,95,390,5.0,0.0
5743,64.0,240,240,3.0,0.0
5744,45.0,95,390,5.0,0.0
5745,69.0,145,240,1.0,0.0
5746,64.0,240,240,3.0,0.0
5747,73.0,0,240,2.0,0.0
5748,85.0,0,240,1.0,0.0
5749,69.0,240,240,4.0,0.0
5750,83.0,0,240,1.0,0.0
5751,71.0,240,240,2.0,0.0
5752,68.0,0,240,4.0,0.0
5753,85.0,0,240,1.0,0.0
5754,73.0,240,240,2.0,0.0
5755,69.0,0,240,4.0,0.0
5756,86.0,0,240,1.0,0.0
5757,71.0,0,240,4.0,0.0
5758,74.0,240,240,2.0,0.0
5759,88.0,0,480,1.0,0.0
5760,73.0,0,240,4.0,0.0
5761,76.0,240,240,2.0,0.0
5762,64.0,240,240,3.0,0.0
5763,85.0,240,480,1.0,0.0
5764,69.0,0,240,4.0,0.0
5765,73.0,240,240,2.0,0.0
5766,64.0,0,240,3.0,0.0
5767,71.0,240,240,2.0,0.0
5768,83.0,0,480,1.0,0.0
5769,68.0,0,240,4.0,0.0
5770,64.0,240,240,3.0,0.0
5771,69.0,240,240,2.0,0.0
5772,81.0,240,480,1.0,0.0
5773,64.0,0,240,1.0,0.0
5774,66.0,145,240,1.0,0.0
5775,59.0,95,390,4.0,0.0
5776,50.0,0,390,5.0,0.0
5777,74.0,240,240,1.0,0.0
5778,62.0,95,390,4.0,0.0
5779,52.0,0,390,5.0,0.0
5780,71.0,145,240,1.0,0.0
5781,68.0,240,240,1.0,0.0
5782,69.0,145,240,1.0,0.0
5783,61.0,0,390,4.0,0.0
5784,57.0,95,390,5.0,0.0
5785,64.0,240,240,1.0,0.0
5786,50.0,0,390,5.0,0.0
5787,59.0,95,390,4.0,0.0
5788,66.0,145,240,1.0,0.0
5789,74.0,240,240,1.0,0.0
5790,52.0,0,390,5.0,0.0
5791,62.0,95,390,4.0,0.0
5792,71.0,145,240,1.0,0.0
5793,68.0,240,240,1.0,0.0
5794,61.0,95,390,4.0,0.0
5795,69.0,145,240,1.0,0.0
5796,57.0,0,390,5.0,0.0
5797,68.0,240,240,1.0,0.0
5798,69.0,240,240,1.0,0.0
5799,71.0,240,240,1.0,0.0
5800,67.0,240,240,1.0,0.0
5801,64.0,240,240,1.0,0.0
5802,66.0,0,240,2.0,0.0
5803,69.0,240,240,1.0,0.0
5804,47.0,0,1920,5.0,0.0
5805,35.0,10,1920,5.0,0.0
5806,59.0,240,240,3.0,0.0
5807,66.0,0,240,1.0,0.0
5808,63.0,240,240,2.0,0.0
5809,59.0,240,240,3.0,0.0
5810,64.0,240,240,2.0,0.0
5811,67.0,0,240,1.0,0.0
5812,59.0,240,240,3.0,0.0
5813,66.0,230,240,2.0,0.0
5814,69.0,0,240,1.0,0.0
5815,84.0,0,240,1.0,0.0
5816,59.0,240,240,3.0,0.0
5817,63.0,240,240,4.0,0.0
5818,66.0,0,240,2.0,0.0
5819,83.0,0,240,1.0,0.0
5820,59.0,240,240,3.0,0.0
5821,81.0,0,240,1.0,0.0
5822,67.0,0,240,2.0,0.0
5823,79.0,0,480,1.0,0.0
5824,64.0,240,240,4.0,0.0
5825,59.0,240,240,3.0,0.0
5826,66.0,0,240,4.0,0.0
5827,69.0,240,240,2.0,0.0
5828,78.0,0,480,1.0,0.0
5829,59.0,240,240,3.0,0.0
5830,63.0,0,240,4.0,0.0
5831,66.0,0,240,2.0,0.0
5832,81.0,240,240,1.0,0.0
5833,59.0,240,240,3.0,0.0
5834,79.0,0,240,1.0,0.0
5835,78.0,0,240,1.0,0.0
5836,64.0,0,240,4.0,0.0
5837,67.0,240,240,2.0,0.0
5838,76.0,380,240,1.0,0.0
5839,59.0,0,240,3.0,0.0
5840,66.0,285,390,4.0,0.0
5841,69.0,0,390,2.0,0.0
5842,75.0,5,390,1.0,0.0
5843,59.0,0,180,5.0,0.0
5844,47.0,0,180,5.0,0.0
5845,71.0,240,180,2.0,0.0
5846,83.0,0,180,1.0,0.0
5847,69.0,240,180,2.0,0.0
5848,45.0,0,180,5.0,0.0
5849,81.0,0,180,1.0,0.0
5850,57.0,0,180,5.0,0.0
5851,79.0,0,180,1.0,0.0
5852,43.0,0,180,5.0,0.0
5853,55.0,0,180,5.0,0.0
5854,67.0,240,180,2.0,0.0
5855,54.0,0,180,5.0,0.0
5856,42.0,0,180,5.0,0.0
5857,78.0,0,180,1.0,0.0
5858,66.0,360,180,2.0,0.0
5859,64.0,0,300,2.0,0.0
5860,52.0,480,300,5.0,0.0
5861,40.0,0,300,5.0,0.0
5862,76.0,0,300,1.0,0.0
5863,52.0,0,300,5.0,0.0
5864,40.0,0,300,5.0,0.0
5865,76.0,480,300,1.0,0.0
5866,64.0,0,300,2.0,0.0
5867,83.0,0,300,1.0,0.0
5868,47.0,530,300,5.0,0.0
5869,59.0,0,300,5.0,0.0
5870,71.0,0,300,2.0,0.0
5871,76.0,310,360,1.0,0.0
5872,52.0,0,360,5.0,0.0
5873,40.0,0,360,5.0,0.0
5874,64.0,0,360,2.0,0.0
5875,59.0,0,180,5.0,0.0
5876,71.0,0,180,2.0,0.0
5877,83.0,240,180,1.0,0.0
5878,47.0,0,180,5.0,0.0
5879,69.0,0,180,2.0,0.0
5880,81.0,240,180,1.0,0.0
5881,57.0,0,180,5.0,0.0
5882,45.0,0,180,5.0,0.0
5883,67.0,0,180,2.0,0.0
5884,79.0,0,180,1.0,0.0
5885,43.0,0,180,5.0,0.0
5886,55.0,240,180,5.0,0.0
5887,66.0,0,180,2.0,0.0
5888,78.0,360,180,1.0,0.0
5889,54.0,0,180,5.0,0.0
5890,42.0,0,180,5.0,0.0
5891,52.0,0,300,5.0,0.0
5892,64.0,0,300,2.0,0.0
5893,76.0,480,300,1.0,0.0
5894,40.0,0,300,5.0,0.0
5895,76.0,0,300,1.0,0.0
5896,52.0,0,300,5.0,0.0
5897,64.0,0,300,2.0,0.0
5898,40.0,480,300,5.0,0.0
5899,71.0,530,300,2.0,0.0
5900,59.0,0,300,5.0,0.0
5901,47.0,0,300,5.0,0.0
5902,83.0,0,300,1.0,0.0
5903,76.0,0,360,1.0,0.0
5904,52.0,0,360,5.0,0.0
5905,40.0,0,360,5.0,0.0
5906,64.0,310,360,2.0,0.0
5907,76.0,240,180,1.0,0.0
5908,74.0,240,180,1.0,0.0
5909,76.0,240,180,1.0,0.0
5910,77.0,435,180,1.0,0.0
5911,79.0,95,390,1.0,0.0
5912,60.0,240,960,4.0,0.0
5913,64.0,240,240,3.0,0.0
5914,67.0,240,240,3.0,0.0
5915,64.0,0,240,3.0,0.0
5916,59.0,480,480,4.0,0.0
5917,65.0,0,240,3.0,0.0
5918,79.0,240,15,1.0,0.0
5919,62.0,0,240,3.0,0.0
5920,60.0,0,960,4.0,0.0
5921,84.0,240,480,1.0,0.0
5922,64.0,0,240,3.0,0.0
5923,79.0,95,390,1.0,0.0
5924,67.0,145,240,3.0,0.0
5925,64.0,240,240,3.0,0.0
5926,59.0,0,480,4.0,0.0
5927,65.0,240,240,3.0,0.0
5928,62.0,385,240,3.0,0.0
5929,60.0,0,960,4.0,0.0
5930,79.0,95,390,1.0,0.0
5931,64.0,240,240,3.0,0.0
5932,67.0,240,240,3.0,0.0
5933,79.0,0,720,1.0,0.0
5934,64.0,240,240,3.0,0.0
5935,65.0,240,240,3.0,0.0
5936,59.0,0,480,4.0,0.0
5937,62.0,480,240,3.0,0.0
5938,79.0,0,240,1.0,0.0
5939,60.0,88,1320,4.0,0.0
5940,84.0,0,480,1.0,0.0
5941,64.0,240,240,3.0,0.0
5942,67.0,145,240,3.0,0.0
5943,79.0,95,390,1.0,0.0
5944,64.0,240,240,3.0,0.0
5945,65.0,127,240,3.0,0.0
5946,62.0,480,240,3.0,0.0
5947,79.0,25,90,1.0,0.0
5948,88.0,0,480,1.0,0.0
5949,58.0,95,1320,4.0,0.0
5950,60.0,240,240,3.0,0.0
5951,79.0,95,390,1.0,0.0
5952,64.0,145,240,3.0,0.0
5953,67.0,240,240,3.0,0.0
5954,64.0,120,240,3.0,0.0
5955,60.0,480,240,3.0,0.0
5956,79.0,25,90,1.0,0.0
5957,57.0,113,1320,4.0,0.0
5958,88.0,240,480,1.0,0.0
5959,61.0,0,240,3.0,0.0
5960,79.0,95,390,1.0,0.0
5961,64.0,145,240,3.0,0.0
5962,67.0,240,240,3.0,0.0
5963,64.0,95,240,3.0,0.0
5964,61.0,240,240,3.0,0.0
5965,79.0,32,90,1.0,0.0
5966,57.0,0,960,4.0,0.0
5967,79.0,240,240,1.0,0.0
5968,62.0,0,960,3.0,0.0
5969,77.0,240,240,1.0,0.0
5970,76.0,240,240,1.0,0.0
5971,77.0,240,240,1.0,0.0
5972,56.0,0,480,5.0,0.0
5973,64.0,190,240,4.0,0.0
5974,76.0,0,240,1.0,0.0
5975,74.0,50,180,1.0,0.0
5976,65.0,240,240,4.0,0.0
5977,73.0,240,240,1.0,0.0
5978,64.0,0,480,4.0,0.0
5979,57.0,0,480,5.0,0.0
5980,80.0,240,240,1.0,0.0
5981,81.0,240,240,1.0,0.0
5982,80.0,240,240,1.0,0.0
5983,81.0,190,240,1.0,0.0
5984,76.0,290,180,1.0,0.0
5985,68.0,240,1440,4.0,0.0
5986,58.0,0,1440,5.0,0.0
5987,62.0,0,1440,4.0,0.0
5988,79.0,240,240,1.0,0.0
5989,77.0,240,240,1.0,0.0
5990,76.0,240,240,1.0,0.0
5991,77.0,240,240,1.0,0.0
5992,76.0,190,240,1.0,0.0
5993,74.0,50,180,1.0,0.0
5994,57.0,0,390,5.0,0.0
5995,81.0,145,240,1.0,0.0
5996,61.0,95,390,4.0,0.0
5997,69.0,0,390,4.0,0.0
5998,80.0,240,240,1.0,0.0
5999,81.0,240,240,1.0,0.0
6000,76.0,240,240,1.0,0.0
6001,77.0,145,240,1.0,0.0
6002,62.0,95,390,4.0,0.0
6003,65.0,0,390,4.0,0.0
6004,57.0,0,390,5.0,0.0
6005,74.0,240,240,1.0,0.0
6006,61.0,0,390,4.0,0.0
6007,81.0,145,240,1.0,0.0
6008,57.0,95,390,5.0,0.0
6009,64.0,0,390,4.0,0.0
6010,80.0,240,240,1.0,0.0
6011,81.0,240,240,1.0,0.0
6012,76.0,240,240,1.0,0.0
6013,62.0,45,390,5.0,0.0
6014,65.0,0,390,5.0,0.0
6015,57.0,0,390,5.0,0.0
6016,77.0,145,240,1.0,0.0
6017,74.0,290,180,1.0,0.0
6018,69.0,145,240,1.0,0.0
6019,61.0,0,390,5.0,0.0
6020,57.0,0,390,5.0,0.0
6021,64.0,95,390,5.0,0.0
6022,68.0,240,240,1.0,0.0
6023,69.0,240,240,1.0,0.0
6024,68.0,240,240,1.0,0.0
6025,69.0,240,240,1.0,0.0
6026,68.0,240,240,1.0,0.0
6027,69.0,0,240,1.0,0.0
6028,66.0,240,240,2.0,0.0
6029,50.0,240,1920,5.0,0.0
6030,38.0,0,1920,5.0,0.0
6031,57.0,240,240,3.0,0.0
6032,66.0,0,240,1.0,0.0
6033,62.0,240,240,2.0,0.0
6034,57.0,240,240,3.0,0.0
6035,64.0,240,240,2.0,0.0
6036,67.0,0,240,1.0,0.0
6037,57.0,240,240,3.0,0.0
6038,66.0,240,240,2.0,0.0
6039,69.0,0,240,1.0,0.0
6040,62.0,0,240,2.0,0.0
6041,71.0,0,240,2.0,0.0
6042,74.0,240,240,1.0,0.0
6043,73.0,0,240,1.0,0.0
6044,69.0,240,240,2.0,0.0
6045,71.0,240,240,1.0,0.0
6046,67.0,0,240,2.0,0.0
6047,69.0,0,240,1.0,0.0
6048,66.0,240,240,2.0,0.0
6049,67.0,240,240,1.0,0.0
6050,47.0,0,480,5.0,0.0
6051,62.0,240,240,3.0,0.0
6052,45.0,240,480,5.0,0.0
6053,66.0,240,240,2.0,0.0
6054,69.0,0,240,1.0,0.0
6055,62.0,0,240,3.0,0.0
6056,71.0,0,240,1.0,0.0
6057,67.0,240,240,2.0,0.0
6058,43.0,240,480,5.0,0.0
6059,62.0,0,240,3.0,0.0
6060,66.0,0,240,2.0,0.0
6061,69.0,240,240,1.0,0.0
6062,50.0,240,480,5.0,0.0
6063,62.0,0,240,3.0,0.0
6064,86.0,240,240,1.0,0.0
6065,74.0,0,240,2.0,0.0
6066,71.0,0,240,4.0,0.0
6067,69.0,0,240,4.0,0.0
6068,73.0,0,240,2.0,0.0
6069,85.0,240,240,1.0,0.0
6070,83.0,0,240,1.0,0.0
6071,71.0,0,240,2.0,0.0
6072,67.0,240,240,4.0,0.0
6073,69.0,240,240,2.0,0.0
6074,66.0,0,240,4.0,0.0
6075,81.0,0,240,1.0,0.0
6076,64.0,240,240,4.0,0.0
6077,79.0,240,480,1.0,0.0
6078,67.0,0,240,2.0,0.0
6079,62.0,0,240,3.0,0.0
6080,81.0,240,480,1.0,0.0
6081,69.0,240,240,2.0,0.0
6082,66.0,0,240,4.0,0.0
6083,62.0,0,240,3.0,0.0
6084,83.0,0,480,1.0,0.0
6085,67.0,0,240,4.0,0.0
6086,71.0,240,240,2.0,0.0
6087,62.0,240,240,3.0,0.0
6088,81.0,240,480,1.0,0.0
6089,66.0,0,240,4.0,0.0
6090,69.0,240,240,2.0,0.0
6091,62.0,0,240,3.0,0.0
6092,71.0,0,240,1.0,0.0
6093,67.0,240,240,2.0,0.0
6094,66.0,0,240,2.0,0.0
6095,69.0,240,240,1.0,0.0
6096,64.0,240,240,2.0,0.0
6097,67.0,0,240,1.0,0.0
6098,66.0,0,240,1.0,0.0
6099,62.0,240,240,2.0,0.0
6100,45.0,0,480,5.0,0.0
6101,64.0,0,240,1.0,0.0
6102,61.0,240,240,2.0,0.0
6103,57.0,240,240,3.0,0.0
6104,69.0,0,240,1.0,0.0
6105,62.0,240,240,2.0,0.0
6106,42.0,240,480,5.0,0.0
6107,57.0,0,240,3.0,0.0
6108,66.0,0,240,1.0,0.0
6109,62.0,240,240,2.0,0.0
6110,38.0,240,480,5.0,0.0
6111,57.0,0,240,3.0,0.0
6112,45.0,0,480,5.0,0.0
6113,61.0,240,240,2.0,0.0
6114,64.0,0,240,1.0,0.0
6115,57.0,240,240,3.0,0.0
6116,83.0,0,240,1.0,0.0
6117,67.0,0,240,4.0,0.0
6118,71.0,240,240,2.0,0.0
6119,81.0,240,240,1.0,0.0
6120,66.0,0,240,4.0,0.0
6121,69.0,0,240,2.0,0.0
6122,67.0,0,240,2.0,0.0
6123,64.0,0,240,4.0,0.0
6124,79.0,240,240,1.0,0.0
6125,66.0,0,240,2.0,0.0
6126,62.0,60,240,4.0,0.0
6127,78.0,0,240,1.0,0.0
6128,80.0,180,60,1.0,0.0
6129,61.0,0,240,4.0,0.0
6130,64.0,230,240,2.0,0.0
6131,81.0,10,420,1.0,0.0
6132,57.0,60,240,3.0,0.0
6133,66.0,230,240,4.0,0.0
6134,69.0,0,240,2.0,0.0
6135,80.0,180,60,1.0,0.0
6136,81.0,10,420,1.0,0.0
6137,57.0,60,240,3.0,0.0
6138,62.0,0,240,4.0,0.0
6139,66.0,215,240,2.0,0.0
6140,80.0,180,60,1.0,0.0
6141,81.0,25,390,1.0,0.0
6142,57.0,60,240,3.0,0.0
6143,61.0,0,240,4.0,0.0
6144,80.0,180,60,1.0,0.0
6145,64.0,230,240,2.0,0.0
6146,81.0,10,420,1.0,0.0
6147,69.0,240,240,2.0,0.0
6148,74.0,0,240,1.0,0.0
6149,62.0,240,1200,2.0,0.0
6150,59.0,240,240,5.0,0.0
6151,73.0,0,240,1.0,0.0
6152,58.0,240,240,5.0,0.0
6153,74.0,240,240,1.0,0.0
6154,59.0,0,240,5.0,0.0
6155,55.0,240,240,5.0,0.0
6156,71.0,0,240,1.0,0.0
6157,54.0,240,480,5.0,0.0
6158,69.0,0,480,1.0,0.0
6159,57.0,0,240,3.0,0.0
6160,67.0,0,480,1.0,0.0
6161,64.0,240,240,2.0,0.0
6162,52.0,240,480,5.0,0.0
6163,59.0,0,240,3.0,0.0
6164,45.0,0,480,5.0,0.0
6165,64.0,240,480,1.0,0.0
6166,61.0,240,240,2.0,0.0
6167,57.0,0,240,3.0,0.0
6168,50.0,240,480,5.0,0.0
6169,62.0,240,240,2.0,0.0
6170,66.0,0,240,1.0,0.0
6171,69.0,0,240,1.0,0.0
6172,74.0,240,240,2.0,0.0
6173,86.0,0,240,1.0,0.0
6174,71.0,0,240,4.0,0.0
6175,73.0,240,240,2.0,0.0
6176,70.0,0,240,4.0,0.0
6177,85.0,0,240,1.0,0.0
6178,86.0,240,240,1.0,0.0
6179,71.0,0,240,4.0,0.0
6180,74.0,0,240,2.0,0.0
6181,67.0,240,240,4.0,0.0
6182,83.0,0,240,1.0,0.0
6183,71.0,0,240,2.0,0.0
6184,81.0,0,480,1.0,0.0
6185,66.0,240,240,4.0,0.0
6186,69.0,0,240,2.0,0.0
6187,62.0,240,240,3.0,0.0
6188,79.0,0,480,1.0,0.0
6189,67.0,240,240,2.0,0.0
6190,64.0,0,240,4.0,0.0
6191,59.0,240,240,3.0,0.0
6192,64.0,240,240,2.0,0.0
6193,61.0,0,240,4.0,0.0
6194,76.0,0,480,1.0,0.0
6195,57.0,240,240,3.0,0.0
6196,78.0,240,480,1.0,0.0
6197,66.0,240,240,2.0,0.0
6198,62.0,0,240,4.0,0.0
6199,69.0,0,240,3.0,0.0
6200,69.0,145,240,1.0,0.0
6201,59.0,240,480,4.0,0.0
6202,43.0,95,390,5.0,0.0
6203,67.0,0,240,1.0,0.0
6204,64.0,145,240,1.0,0.0
6205,55.0,95,390,4.0,0.0
6206,45.0,0,390,5.0,0.0
6207,61.0,240,240,1.0,0.0
6208,54.0,95,390,4.0,0.0
6209,50.0,0,390,5.0,0.0
6210,62.0,145,240,1.0,0.0
6211,66.0,240,240,1.0,0.0
6212,43.0,95,390,5.0,0.0
6213,59.0,0,480,4.0,0.0
6214,69.0,145,240,1.0,0.0
6215,67.0,240,240,1.0,0.0
6216,45.0,0,390,5.0,0.0
6217,55.0,95,390,4.0,0.0
6218,64.0,145,240,1.0,0.0
6219,61.0,335,240,1.0,0.0
6220,54.0,50,330,4.0,0.0
6221,50.0,0,330,5.0,0.0
6222,62.0,430,390,1.0,0.0
6223,38.0,1100,330,5.0,0.0
6224,61.0,20,480,2.0,0.0
6225,45.0,480,960,5.0,0.0
6226,57.0,0,960,5.0,0.0
6227,64.0,25,450,2.0,0.0
6228,69.0,440,450,1.0,0.0
6229,52.0,0,480,5.0,0.0
6230,40.0,240,480,5.0,0.0
6231,64.0,0,480,1.0,0.0
6232,73.0,120,240,1.0,0.0
6233,49.0,480,480,5.0,0.0
6234,61.0,0,480,5.0,0.0
6235,74.0,120,120,1.0,0.0
6236,71.0,0,120,1.0,0.0
6237,69.0,0,480,1.0,0.0
6238,57.0,720,480,5.0,0.0
6239,45.0,0,480,5.0,0.0
6240,76.0,120,240,1.0,0.0
6241,78.0,120,120,1.0,0.0
6242,74.0,480,120,1.0,0.0
6243,73.0,480,480,1.0,0.0
6244,85.0,0,480,1.0,0.0
6245,57.0,0,480,5.0,0.0
6246,66.0,480,480,4.0,0.0
6247,69.0,0,480,4.0,0.0
6248,75.0,480,480,1.0,0.0
6249,59.0,0,480,5.0,0.0
6250,64.0,0,480,5.0,0.0
6251,68.0,240,480,4.0,0.0
6252,76.0,240,720,1.0,0.0
6253,77.0,240,240,1.0,0.0
6254,80.0,240,240,1.0,0.0
6255,78.0,240,240,1.0,0.0
6256,76.0,240,240,1.0,0.0
6257,74.0,240,240,1.0,0.0
6258,73.0,240,240,1.0,0.0
6259,71.0,240,240,1.0,0.0
6260,69.0,120,240,1.0,0.0
6261,52.0,120,360,4.0,0.0
6262,68.0,240,240,1.0,0.0
6263,62.0,0,240,3.0,0.0
6264,59.0,120,360,4.0,0.0
6265,76.0,120,240,1.0,0.0
6266,74.0,0,240,1.0,0.0
6267,62.0,360,240,3.0,0.0
6268,59.0,120,360,4.0,0.0
6269,62.0,240,240,3.0,0.0
6270,52.0,120,360,4.0,0.0
6271,71.0,120,240,1.0,0.0
6272,69.0,0,240,1.0,0.0
6273,61.0,240,240,3.0,0.0
6274,57.0,120,360,4.0,0.0
6275,78.0,120,240,1.0,0.0
6276,61.0,0,240,3.0,0.0
6277,76.0,360,240,1.0,0.0
6278,57.0,120,360,4.0,0.0
6279,61.0,240,240,3.0,0.0
6280,50.0,120,360,4.0,0.0
6281,73.0,120,240,1.0,0.0
6282,71.0,240,240,1.0,0.0
6283,59.0,0,240,3.0,0.0
6284,54.0,120,360,4.0,0.0
6285,79.0,120,240,1.0,0.0
6286,78.0,0,240,1.0,0.0
6287,59.0,360,240,3.0,0.0
6288,54.0,120,360,4.0,0.0
6289,59.0,480,240,3.0,0.0
6290,50.0,0,480,5.0,0.0
6291,66.0,240,480,1.0,0.0
6292,76.0,240,240,1.0,0.0
6293,74.0,240,240,1.0,0.0
6294,73.0,240,240,1.0,0.0
6295,71.0,240,240,1.0,0.0
6296,69.0,240,240,1.0,0.0
6297,62.0,0,480,4.0,0.0
6298,52.0,0,480,5.0,0.0
6299,68.0,480,240,1.0,0.0
6300,61.0,520,480,4.0,0.0
6301,57.0,0,480,5.0,0.0
6302,69.0,0,480,1.0,0.0
6303,52.0,240,240,5.0,0.0
6304,71.0,40,30,2.0,0.0
6305,76.0,40,30,2.0,0.0
6306,80.0,120,30,2.0,0.0
6307,83.0,22,1290,1.0,0.0
6308,56.0,240,240,5.0,0.0
6309,59.0,240,240,5.0,0.0
6310,56.0,240,240,5.0,0.0
6311,54.0,218,240,5.0,0.0
6312,52.0,120,240,5.0,0.0
6313,51.0,0,240,5.0,0.0
6314,83.0,120,120,1.0,0.0
6315,81.0,120,120,1.0,0.0
6316,52.0,0,240,5.0,0.0
6317,80.0,120,120,1.0,0.0
6318,78.0,120,120,1.0,0.0
6319,54.0,0,240,5.0,0.0
6320,78.0,120,120,1.0,0.0
6321,76.0,120,120,1.0,0.0
6322,47.0,120,240,5.0,0.0
6323,75.0,120,120,1.0,0.0
6324,73.0,0,120,1.0,0.0
6325,71.0,120,120,1.0,0.0
6326,49.0,0,240,5.0,0.0
6327,69.0,120,120,1.0,0.0
6328,51.0,120,240,5.0,0.0
6329,68.0,120,120,1.0,0.0
6330,69.0,0,120,1.0,0.0
6331,52.0,0,240,5.0,0.0
6332,68.0,120,120,1.0,0.0
6333,71.0,120,120,1.0,0.0
6334,76.0,120,120,1.0,0.0
6335,56.0,240,240,5.0,0.0
6336,80.0,0,120,1.0,0.0
6337,59.0,240,240,5.0,0.0
6338,56.0,240,240,5.0,0.0
6339,54.0,240,240,5.0,0.0
6340,52.0,120,240,5.0,0.0
6341,51.0,0,240,5.0,0.0
6342,83.0,0,15,1.0,0.0
6343,81.0,120,120,1.0,0.0
6344,52.0,120,240,5.0,0.0
6345,80.0,120,120,1.0,0.0
6346,78.0,0,120,1.0,0.0
6347,78.0,120,120,1.0,0.0
6348,54.0,0,240,5.0,0.0
6349,76.0,120,120,1.0,0.0
6350,75.0,120,120,1.0,0.0
6351,47.0,120,240,5.0,0.0
6352,73.0,0,120,1.0,0.0
6353,71.0,120,120,1.0,0.0
6354,49.0,120,240,5.0,0.0
6355,69.0,0,120,1.0,0.0
6356,68.0,120,120,1.0,0.0
6357,51.0,120,240,5.0,0.0
6358,69.0,0,120,1.0,0.0
6359,52.0,120,480,5.0,0.0
6360,68.0,120,120,1.0,0.0
6361,71.0,120,120,1.0,0.0
6362,69.0,120,120,1.0,0.0
6363,68.0,0,120,1.0,0.0
6364,69.0,120,120,1.0,0.0
6365,71.0,120,120,1.0,0.0
6366,73.0,120,120,1.0,0.0
6367,75.0,120,120,1.0,0.0
6368,76.0,120,120,1.0,0.0
6369,78.0,120,120,1.0,0.0
6370,80.0,120,120,1.0,0.0
6371,81.0,120,120,1.0,0.0
6372,83.0,120,120,1.0,0.0
6373,85.0,120,120,1.0,0.0
6374,87.0,120,120,1.0,0.0
6375,88.0,120,120,1.0,0.0
6376,87.0,120,120,1.0,0.0
6377,85.0,120,120,1.0,0.0
6378,83.0,120,120,1.0,0.0
6379,81.0,120,120,1.0,0.0
6380,80.0,120,120,1.0,0.0
6381,78.0,120,120,1.0,0.0
6382,76.0,120,120,1.0,0.0
6383,75.0,240,120,1.0,0.0
6384,57.0,0,480,5.0,0.0
6385,73.0,240,240,1.0,0.0
6386,66.0,480,480,5.0,0.0
6387,85.0,0,120,1.0,0.0
6388,76.0,0,480,1.0,0.0
6389,68.0,255,480,4.0,0.0
6390,59.0,310,960,5.0,0.0
6391,80.0,215,240,1.0,0.0
6392,69.0,0,480,4.0,0.0
6393,75.0,0,480,2.0,0.0
6394,78.0,10,240,1.0,0.0
6395,68.0,0,300,4.0,0.0
6396,76.0,310,480,1.0,0.0
6397,64.0,170,300,5.0,0.0
6398,52.0,770,300,5.0,0.0
6399,64.0,330,120,1.0,0.0
6400,76.0,150,330,1.0,0.0
6401,66.0,330,120,1.0,0.0
6402,78.0,150,330,1.0,0.0
6403,67.0,330,120,1.0,0.0
6404,79.0,270,330,1.0,0.0
6405,71.0,0,480,1.0,0.0
6406,54.0,240,240,5.0,0.0
6407,61.0,240,240,5.0,0.0
6408,70.0,240,480,1.0,0.0
6409,66.0,240,240,5.0,0.0
6410,64.0,0,240,5.0,0.0
6411,62.0,215,240,5.0,0.0
6412,61.0,240,240,5.0,0.0
6413,70.0,25,90,1.0,0.0
6414,54.0,240,240,5.0,0.0
6415,73.0,0,480,1.0,0.0
6416,62.0,240,240,5.0,0.0
6417,66.0,240,240,5.0,0.0
6418,71.0,0,480,1.0,0.0
6419,62.0,240,240,5.0,0.0
6420,61.0,215,240,5.0,0.0
6421,59.0,240,240,5.0,0.0
6422,71.0,25,90,1.0,0.0
6423,74.0,240,480,1.0,0.0
6424,54.0,240,240,5.0,0.0
6425,58.0,0,240,5.0,0.0
6426,64.0,240,240,5.0,0.0
6427,73.0,240,480,1.0,0.0
6428,61.0,0,240,5.0,0.0
6429,59.0,215,240,5.0,0.0
6430,58.0,240,240,5.0,0.0
6431,73.0,25,90,1.0,0.0
6432,59.0,240,480,5.0,0.0
6433,76.0,190,240,1.0,0.0
6434,74.0,50,180,1.0,0.0
6435,77.0,190,240,1.0,0.0
6436,76.0,290,180,1.0,0.0
6437,79.0,190,240,1.0,0.0
6438,78.0,290,180,1.0,0.0
6439,52.0,240,240,5.0,0.0
6440,69.0,240,480,1.0,0.0
6441,59.0,0,240,5.0,0.0
6442,64.0,240,240,5.0,0.0
6443,68.0,0,480,1.0,0.0
6444,62.0,240,240,5.0,0.0
6445,60.0,215,240,5.0,0.0
6446,59.0,240,240,5.0,0.0
6447,68.0,25,90,1.0,0.0
6448,71.0,240,480,1.0,0.0
6449,52.0,240,240,5.0,0.0
6450,60.0,0,240,5.0,0.0
6451,64.0,240,240,5.0,0.0
6452,69.0,0,480,1.0,0.0
6453,60.0,240,240,5.0,0.0
6454,59.0,215,240,5.0,0.0
6455,57.0,240,240,5.0,0.0
6456,69.0,25,90,1.0,0.0
6457,52.0,240,240,5.0,0.0
6458,72.0,0,480,1.0,0.0
6459,56.0,240,240,5.0,0.0
6460,62.0,240,240,5.0,0.0
6461,71.0,240,480,1.0,0.0
6462,59.0,0,240,5.0,0.0
6463,57.0,215,240,5.0,0.0
6464,56.0,240,240,5.0,0.0
6465,71.0,25,90,1.0,0.0
6466,74.0,240,240,1.0,0.0
6467,57.0,155,960,5.0,0.0
6468,72.0,240,240,1.0,0.0
6469,71.0,240,240,1.0,0.0
6470,69.0,0,240,1.0,0.0
6471,81.0,240,150,1.0,0.0
6472,43.0,0,480,5.0,0.0
6473,55.0,240,480,5.0,0.0
6474,81.0,85,150,1.0,0.0
6475,41.0,0,960,5.0,0.0
6476,53.0,0,960,5.0,0.0
6477,83.0,240,240,1.0,0.0
6478,81.0,240,240,1.0,0.0
6479,79.0,240,240,1.0,0.0
6480,77.0,240,240,1.0,0.0
6481,76.0,240,240,1.0,0.0
6482,75.0,240,240,1.0,0.0
6483,53.0,0,1440,5.0,0.0
6484,84.0,0,960,1.0,0.0
6485,57.0,240,240,4.0,0.0
6486,56.0,240,240,4.0,0.0
6487,57.0,240,240,4.0,0.0
6488,60.0,240,240,4.0,0.0
6489,75.0,310,480,1.0,0.0
6490,59.0,240,240,4.0,0.0
6491,57.0,0,240,4.0,0.0
6492,56.0,410,300,4.0,0.0
6493,52.0,0,300,5.0,0.0
6494,76.0,120,720,1.0,0.0
6495,78.0,120,120,1.0,0.0
6496,76.0,120,120,1.0,0.0
6497,76.0,120,120,1.0,0.0
6498,74.0,120,120,1.0,0.0
6499,73.0,120,120,1.0,0.0
6500,71.0,950,120,1.0,0.0
6501,61.0,10,960,2.0,0.0
6502,57.0,5,960,5.0,0.0
6503,45.0,0,960,5.0,0.0
6504,64.0,0,900,2.0,0.0
6505,69.0,475,900,1.0,0.0
6506,52.0,0,480,5.0,0.0
6507,40.0,0,480,5.0,0.0
6508,64.0,240,480,1.0,0.0
6509,61.0,480,480,5.0,0.0
6510,49.0,0,480,5.0,0.0
6511,73.0,120,240,1.0,0.0
6512,74.0,120,120,1.0,0.0
6513,71.0,0,120,1.0,0.0
6514,57.0,0,480,5.0,0.0
6515,69.0,0,480,1.0,0.0
6516,45.0,720,480,5.0,0.0
6517,76.0,120,240,1.0,0.0
6518,78.0,120,120,1.0,0.0
6519,74.0,480,120,1.0,0.0
6520,73.0,480,480,1.0,0.0
6521,57.0,0,480,5.0,0.0
6522,66.0,480,480,4.0,0.0
6523,85.0,0,480,1.0,0.0
6524,69.0,0,480,4.0,0.0
6525,59.0,0,480,5.0,0.0
6526,75.0,480,480,1.0,0.0
6527,64.0,240,480,5.0,0.0
6528,68.0,0,480,4.0,0.0
6529,76.0,240,720,1.0,0.0
6530,77.0,240,240,1.0,0.0
6531,80.0,240,240,1.0,0.0
6532,78.0,240,240,1.0,0.0
6533,76.0,240,240,1.0,0.0
6534,74.0,240,240,1.0,0.0
6535,73.0,240,240,1.0,0.0
6536,71.0,240,240,1.0,0.0
6537,52.0,120,360,4.0,0.0
6538,69.0,120,240,1.0,0.0
6539,68.0,240,240,1.0,0.0
6540,62.0,0,240,3.0,0.0
6541,59.0,120,360,4.0,0.0
6542,76.0,120,240,1.0,0.0
6543,62.0,0,240,3.0,0.0
6544,74.0,360,240,1.0,0.0
6545,59.0,120,360,4.0,0.0
6546,62.0,240,240,3.0,0.0
6547,71.0,120,240,1.0,0.0
6548,52.0,120,360,4.0,0.0
6549,69.0,0,240,1.0,0.0
6550,61.0,240,240,3.0,0.0
6551,57.0,120,360,4.0,0.0
6552,78.0,120,240,1.0,0.0
6553,76.0,0,240,1.0,0.0
6554,61.0,360,240,3.0,0.0
6555,57.0,120,360,4.0,0.0
6556,61.0,240,240,3.0,0.0
6557,71.0,120,240,1.0,0.0
6558,52.0,120,360,4.0,0.0
6559,69.0,0,240,1.0,0.0
6560,61.0,240,240,3.0,0.0
6561,81.0,120,240,1.0,0.0
6562,57.0,120,360,4.0,0.0
6563,61.0,0,240,3.0,0.0
6564,79.0,360,240,1.0,0.0
6565,57.0,120,360,4.0,0.0
6566,61.0,240,240,3.0,0.0
6567,62.0,0,480,4.0,0.0
6568,57.0,0,480,4.0,0.0
6569,50.0,240,480,5.0,0.0
6570,79.0,240,240,1.0,0.0
6571,78.0,0,240,1.0,0.0
6572,76.0,240,240,1.0,0.0
6573,74.0,240,240,1.0,0.0
6574,73.0,240,240,1.0,0.0
6575,71.0,120,240,1.0,0.0
6576,49.0,120,360,5.0,0.0
6577,76.0,40,120,1.0,0.0
6578,78.0,40,30,1.0,0.0
6579,76.0,40,30,1.0,0.0
6580,75.0,120,30,1.0,0.0
6581,76.0,0,120,1.0,0.0
6582,50.0,480,120,5.0,0.0
6583,78.0,0,120,1.0,0.0
6584,69.0,0,480,1.0,0.0
6585,52.0,0,960,5.0,0.0
6586,61.0,480,480,4.0,0.0
6587,68.0,0,480,1.0,0.0
6588,59.0,40,480,4.0,0.0
6589,57.0,210,240,5.0,0.0
6590,69.0,40,30,2.0,0.0
6591,73.0,160,30,2.0,0.0
6592,76.0,30,360,1.0,0.0
6593,61.0,240,240,5.0,0.0
6594,64.0,240,240,5.0,0.0
6595,76.0,120,960,1.0,0.0
6596,61.0,240,240,5.0,0.0
6597,59.0,240,240,5.0,0.0
6598,57.0,0,240,5.0,0.0
6599,56.0,120,240,5.0,0.0
6600,76.0,120,120,1.0,0.0
6601,74.0,0,120,1.0,0.0
6602,73.0,120,120,1.0,0.0
6603,57.0,120,240,5.0,0.0
6604,71.0,0,120,1.0,0.0
6605,59.0,0,240,5.0,0.0
6606,71.0,120,120,1.0,0.0
6607,69.0,120,120,1.0,0.0
6608,52.0,0,240,5.0,0.0
6609,68.0,120,120,1.0,0.0
6610,66.0,120,120,1.0,0.0
6611,54.0,0,240,5.0,0.0
6612,64.0,120,120,1.0,0.0
6613,62.0,120,120,1.0,0.0
6614,56.0,120,240,5.0,0.0
6615,61.0,120,120,1.0,0.0
6616,62.0,0,120,1.0,0.0
6617,61.0,120,120,1.0,0.0
6618,57.0,120,240,5.0,0.0
6619,64.0,0,120,1.0,0.0
6620,61.0,0,240,5.0,0.0
6621,69.0,120,120,1.0,0.0
6622,73.0,240,120,1.0,0.0
6623,64.0,240,240,5.0,0.0
6624,76.0,0,720,1.0,0.0
6625,61.0,240,240,5.0,0.0
6626,59.0,240,240,5.0,0.0
6627,57.0,120,240,5.0,0.0
6628,88.0,0,15,1.0,0.0
6629,56.0,0,240,5.0,0.0
6630,86.0,120,120,1.0,0.0
6631,85.0,120,120,1.0,0.0
6632,57.0,120,240,5.0,0.0
6633,83.0,0,120,1.0,0.0
6634,83.0,120,120,1.0,0.0
6635,59.0,0,240,5.0,0.0
6636,81.0,120,120,1.0,0.0
6637,80.0,120,120,1.0,0.0
6638,52.0,120,240,5.0,0.0
6639,78.0,0,120,1.0,0.0
6640,76.0,120,120,1.0,0.0
6641,54.0,0,240,5.0,0.0
6642,74.0,120,120,1.0,0.0
6643,56.0,120,240,5.0,0.0
6644,73.0,120,120,1.0,0.0
6645,74.0,0,120,1.0,0.0
6646,73.0,120,120,1.0,0.0
6647,57.0,50,300,5.0,0.0
6648,76.0,70,120,1.0,0.0
6649,74.0,120,120,1.0,0.0
6650,73.0,120,120,1.0,0.0
6651,54.0,50,300,5.0,0.0
6652,57.0,0,300,4.0,0.0
6653,74.0,120,120,1.0,0.0
6654,76.0,70,120,1.0,0.0
6655,78.0,120,120,1.0,0.0
6656,80.0,120,120,1.0,0.0
6657,81.0,120,120,1.0,0.0
6658,50.0,0,300,5.0,0.0
6659,54.0,0,300,4.0,0.0
6660,57.0,50,300,4.0,0.0
6661,83.0,70,120,1.0,0.0
6662,85.0,120,120,1.0,0.0
6663,86.0,120,120,1.0,0.0
6664,57.0,95,390,4.0,0.0
6665,52.0,0,390,4.0,0.0
6666,49.0,0,390,5.0,0.0
6667,88.0,120,120,1.0,0.0
6668,86.0,120,120,1.0,0.0
6669,85.0,25,120,1.0,0.0
6670,83.0,120,120,1.0,0.0
6671,81.0,120,120,1.0,0.0
6672,80.0,120,120,1.0,0.0
6673,78.0,120,120,1.0,0.0
6674,76.0,120,120,1.0,0.0
6675,74.0,120,120,1.0,0.0
6676,73.0,120,120,1.0,0.0
6677,71.0,120,120,1.0,0.0
6678,69.0,60,120,1.0,0.0
6679,50.0,480,480,5.0,0.0
6680,59.0,0,480,4.0,0.0
6681,78.0,60,60,1.0,0.0
6682,80.0,60,60,1.0,0.0
6683,78.0,60,60,1.0,0.0
6684,80.0,40,60,1.0,0.0
6685,78.0,40,30,1.0,0.0
6686,80.0,40,30,1.0,0.0
6687,78.0,60,30,1.0,0.0
6688,80.0,60,60,1.0,0.0
6689,81.0,0,60,1.0,0.0
6690,61.0,0,480,4.0,0.0
6691,69.0,245,480,1.0,0.0
6692,52.0,385,960,5.0,0.0
6693,62.0,0,480,4.0,0.0
6694,73.0,235,240,1.0,0.0
6695,68.0,0,480,2.0,0.0
6696,71.0,0,240,1.0,0.0
6697,57.0,0,390,5.0,0.0
6698,61.0,0,390,4.0,0.0
6699,69.0,480,390,1.0,0.0
6700,45.0,1775,390,5.0,0.0
6701,71.0,240,240,1.0,0.0
6702,69.0,240,240,1.0,0.0
6703,68.0,240,240,1.0,0.0
6704,69.0,480,240,1.0,0.0
6705,57.0,0,480,5.0,0.0
6706,72.0,360,480,1.0,0.0
6707,64.0,0,360,3.0,0.0
6708,60.0,360,360,3.0,0.0
6709,60.0,0,360,3.0,0.0
6710,64.0,120,360,3.0,0.0
6711,74.0,120,240,1.0,0.0
6712,72.0,240,240,1.0,0.0
6713,71.0,120,240,1.0,0.0
6714,64.0,120,360,3.0,0.0
6715,60.0,0,360,3.0,0.0
6716,72.0,480,240,1.0,0.0
6717,76.0,360,480,1.0,0.0
6718,57.0,0,480,5.0,0.0
6719,64.0,0,360,3.0,0.0
6720,60.0,360,360,3.0,0.0
6721,60.0,0,360,3.0,0.0
6722,64.0,120,360,3.0,0.0
6723,77.0,120,240,1.0,0.0
6724,76.0,240,240,1.0,0.0
6725,75.0,120,240,1.0,0.0
6726,60.0,0,360,3.0,0.0
6727,64.0,120,360,3.0,0.0
6728,76.0,240,240,1.0,0.0
6729,83.0,240,240,1.0,0.0
6730,57.0,240,480,5.0,0.0
6731,81.0,0,240,1.0,0.0
6732,80.0,120,240,1.0,0.0
6733,60.0,120,360,3.0,0.0
6734,64.0,0,360,3.0,0.0
6735,81.0,240,240,1.0,0.0
6736,83.0,240,240,1.0,0.0
6737,57.0,240,480,5.0,0.0
6738,81.0,0,240,1.0,0.0
6739,64.0,120,360,3.0,0.0
6740,60.0,0,360,3.0,0.0
6741,80.0,120,240,1.0,0.0
6742,81.0,480,240,1.0,0.0
6743,84.0,70,780,1.0,0.0
6744,57.0,290,480,5.0,0.0
6745,64.0,360,360,3.0,0.0
6746,60.0,0,360,3.0,0.0
6747,60.0,360,360,3.0,0.0
6748,64.0,0,360,3.0,0.0
6749,81.0,120,240,1.0,0.0
6750,60.0,200,360,3.0,0.0
6751,64.0,0,360,3.0,0.0
6752,84.0,120,240,1.0,0.0
6753,52.0,240,480,5.0,0.0
6754,79.0,45,90,3.0,0.0
6755,81.0,115,90,3.0,0.0
6756,83.0,240,150,1.0,0.0
6757,78.0,0,240,2.0,0.0
6758,59.0,0,360,3.0,0.0
6759,64.0,360,360,3.0,0.0
6760,81.0,120,240,1.0,0.0
6761,64.0,360,360,3.0,0.0
6762,76.0,120,240,2.0,0.0
6763,79.0,0,240,1.0,0.0
6764,59.0,0,360,3.0,0.0
6765,81.0,120,240,1.0,0.0
6766,59.0,200,360,3.0,0.0
6767,78.0,0,240,2.0,0.0
6768,64.0,0,360,3.0,0.0
6769,52.0,240,480,5.0,0.0
6770,79.0,40,90,3.0,0.0
6771,81.0,120,90,3.0,0.0
6772,83.0,240,150,1.0,0.0
6773,59.0,360,360,3.0,0.0
6774,64.0,0,360,3.0,0.0
6775,81.0,120,240,1.0,0.0
6776,78.0,0,240,2.0,0.0
6777,79.0,120,240,1.0,0.0
6778,59.0,360,360,3.0,0.0
6779,64.0,0,360,3.0,0.0
6780,76.0,0,240,2.0,0.0
6781,78.0,0,240,2.0,0.0
6782,59.0,0,360,3.0,0.0
6783,64.0,200,360,3.0,0.0
6784,81.0,120,240,1.0,0.0
6785,52.0,240,480,5.0,0.0
6786,79.0,30,90,3.0,0.0
6787,81.0,130,60,3.0,0.0
6788,83.0,240,150,1.0,0.0
6789,78.0,120,240,2.0,0.0
6790,81.0,0,240,1.0,0.0
6791,59.0,0,360,3.0,0.0
6792,64.0,360,360,3.0,0.0
6793,47.0,240,480,5.0,0.0
6794,79.0,240,240,1.0,0.0
6795,76.0,0,240,2.0,0.0
6796,78.0,0,240,1.0,0.0
6797,59.0,1025,360,3.0,0.0
6798,75.0,120,240,2.0,0.0
6799,52.0,240,960,5.0,0.0
6800,76.0,55,900,1.0,0.0
6801,71.0,240,240,1.0,0.0
6802,69.0,240,240,1.0,0.0
6803,68.0,240,240,1.0,0.0
6804,69.0,480,240,1.0,0.0
6805,57.0,360,480,5.0,0.0
6806,72.0,0,480,1.0,0.0
6807,64.0,360,360,3.0,0.0
6808,60.0,0,360,3.0,0.0
6809,60.0,120,360,3.0,0.0
6810,64.0,0,360,3.0,0.0
6811,74.0,120,240,1.0,0.0
6812,72.0,240,240,1.0,0.0
6813,64.0,120,360,3.0,0.0
6814,71.0,120,240,1.0,0.0
6815,60.0,0,360,3.0,0.0
6816,72.0,480,240,1.0,0.0
6817,57.0,360,480,5.0,0.0
6818,76.0,0,480,1.0,0.0
6819,60.0,0,360,3.0,0.0
6820,64.0,360,360,3.0,0.0
6821,64.0,0,360,3.0,0.0
6822,77.0,120,240,1.0,0.0
6823,60.0,120,360,3.0,0.0
6824,76.0,240,240,1.0,0.0
6825,60.0,120,360,3.0,0.0
6826,64.0,0,360,3.0,0.0
6827,75.0,120,240,1.0,0.0
6828,76.0,240,240,1.0,0.0
6829,83.0,240,240,1.0,0.0
6830,57.0,0,480,5.0,0.0
6831,81.0,240,240,1.0,0.0
6832,80.0,120,240,1.0,0.0
6833,64.0,0,360,3.0,0.0
6834,60.0,120,360,3.0,0.0
6835,81.0,240,240,1.0,0.0
6836,57.0,0,480,5.0,0.0
6837,83.0,240,240,1.0,0.0
6838,81.0,240,240,1.0,0.0
6839,60.0,120,360,3.0,0.0
6840,80.0,120,240,1.0,0.0
6841,64.0,0,360,3.0,0.0
6842,81.0,480,240,1.0,0.0
6843,57.0,290,480,5.0,0.0
6844,84.0,70,780,1.0,0.0
6845,64.0,0,360,3.0,0.0
6846,60.0,360,360,3.0,0.0
6847,60.0,0,360,3.0,0.0
6848,64.0,360,360,3.0,0.0
6849,81.0,120,240,1.0,0.0
6850,60.0,200,360,3.0,0.0
6851,84.0,120,240,1.0,0.0
6852,64.0,0,360,3.0,0.0
6853,79.0,45,90,3.0,0.0
6854,52.0,240,480,5.0,0.0
6855,81.0,115,90,3.0,0.0
6856,83.0,240,150,1.0,0.0
6857,78.0,120,240,2.0,0.0
6858,81.0,0,240,1.0,0.0
6859,64.0,360,360,3.0,0.0
6860,59.0,0,360,3.0,0.0
6861,79.0,120,240,1.0,0.0
6862,59.0,360,360,3.0,0.0
6863,76.0,0,240,2.0,0.0
6864,64.0,0,360,3.0,0.0
6865,78.0,120,240,2.0,0.0
6866,59.0,0,360,3.0,0.0
6867,64.0,200,360,3.0,0.0
6868,81.0,0,240,1.0,0.0
6869,52.0,240,480,5.0,0.0
6870,79.0,40,90,3.0,0.0
6871,81.0,120,90,3.0,0.0
6872,83.0,240,150,1.0,0.0
6873,81.0,0,240,1.0,0.0
6874,78.0,120,240,2.0,0.0
6875,59.0,360,360,3.0,0.0
6876,64.0,0,360,3.0,0.0
6877,64.0,360,360,3.0,0.0
6878,59.0,0,360,3.0,0.0
6879,79.0,0,240,1.0,0.0
6880,76.0,120,240,2.0,0.0
6881,64.0,200,360,3.0,0.0
6882,81.0,120,240,1.0,0.0
6883,78.0,0,240,2.0,0.0
6884,59.0,0,360,3.0,0.0
6885,79.0,30,90,3.0,0.0
6886,52.0,240,480,5.0,0.0
6887,81.0,130,60,3.0,0.0
6888,83.0,240,150,1.0,0.0
6889,64.0,360,360,3.0,0.0
6890,81.0,120,240,1.0,0.0
6891,78.0,0,240,2.0,0.0
6892,59.0,0,360,3.0,0.0
6893,47.0,240,480,5.0,0.0
6894,76.0,240,240,2.0,0.0
6895,79.0,0,240,1.0,0.0
6896,59.0,1025,360,3.0,0.0
6897,78.0,0,240,1.0,0.0
6898,75.0,120,240,2.0,0.0
6899,76.0,55,900,1.0,0.0
6900,52.0,240,960,5.0,0.0
6901,72.0,480,240,2.0,0.0
6902,76.0,0,240,1.0,0.0
6903,77.0,480,240,1.0,0.0
6904,74.0,0,240,2.0,0.0
6905,76.0,0,240,2.0,0.0
6906,48.0,240,480,5.0,0.0
6907,79.0,240,240,1.0,0.0
6908,79.0,120,240,1.0,0.0
6909,76.0,0,240,2.0,0.0
6910,60.0,360,360,3.0,0.0
6911,52.0,0,480,5.0,0.0
6912,81.0,240,240,1.0,0.0
6913,79.0,240,240,1.0,0.0
6914,77.0,120,240,1.0,0.0
6915,64.0,120,360,3.0,0.0
6916,76.0,480,240,1.0,0.0
6917,74.0,300,900,1.0,0.0
6918,55.0,130,780,5.0,0.0
6919,71.0,290,480,2.0,0.0
6920,67.0,0,420,2.0,0.0
6921,76.0,480,240,1.0,0.0
6922,72.0,0,240,2.0,0.0
6923,74.0,0,240,2.0,0.0
6924,77.0,480,240,1.0,0.0
6925,76.0,0,240,2.0,0.0
6926,48.0,335,390,5.0,0.0
6927,79.0,145,240,1.0,0.0
6928,76.0,120,240,2.0,0.0
6929,60.0,360,360,3.0,0.0
6930,79.0,0,240,1.0,0.0
6931,81.0,145,240,1.0,0.0
6932,52.0,95,390,5.0,0.0
6933,79.0,240,240,1.0,0.0
6934,64.0,120,360,3.0,0.0
6935,77.0,120,240,1.0,0.0
6936,76.0,480,240,1.0,0.0
6937,71.0,290,480,2.0,0.0
6938,74.0,295,900,1.0,0.0
6939,55.0,130,780,5.0,0.0
6940,67.0,5,420,2.0,0.0
6941,72.0,480,240,1.0,0.0
6942,69.0,0,240,2.0,0.0
6943,71.0,480,240,2.0,0.0
6944,74.0,0,240,1.0,0.0
6945,72.0,240,240,2.0,0.0
6946,45.0,240,480,5.0,0.0
6947,76.0,0,240,1.0,0.0
6948,57.0,360,360,3.0,0.0
6949,76.0,0,240,1.0,0.0
6950,72.0,120,240,2.0,0.0
6951,48.0,0,480,5.0,0.0
6952,77.0,240,240,1.0,0.0
6953,76.0,240,240,1.0,0.0
6954,74.0,120,240,1.0,0.0
6955,60.0,120,360,3.0,0.0
6956,72.0,480,240,1.0,0.0
6957,71.0,295,900,1.0,0.0
6958,52.0,135,780,5.0,0.0
6959,68.0,290,480,2.0,0.0
6960,64.0,0,420,2.0,0.0
6961,69.0,480,240,2.0,0.0
6962,72.0,0,240,1.0,0.0
6963,74.0,0,240,1.0,0.0
6964,71.0,480,240,2.0,0.0
6965,76.0,0,240,1.0,0.0
6966,45.0,335,390,5.0,0.0
6967,72.0,145,240,2.0,0.0
6968,76.0,0,240,1.0,0.0
6969,57.0,360,360,3.0,0.0
6970,72.0,120,240,2.0,0.0
6971,77.0,145,240,1.0,0.0
6972,48.0,95,390,5.0,0.0
6973,76.0,240,240,1.0,0.0
6974,60.0,120,360,3.0,0.0
6975,74.0,120,240,1.0,0.0
6976,72.0,480,240,1.0,0.0
6977,52.0,130,780,5.0,0.0
6978,68.0,290,480,2.0,0.0
6979,71.0,0,900,1.0,0.0
6980,64.0,300,420,2.0,0.0
6981,71.0,240,240,1.0,0.0
6982,69.0,240,240,1.0,0.0
6983,68.0,240,240,1.0,0.0
6984,69.0,480,240,1.0,0.0
6985,57.0,0,480,5.0,0.0
6986,72.0,360,480,1.0,0.0
6987,60.0,360,360,3.0,0.0
6988,64.0,0,360,3.0,0.0
6989,74.0,120,240,1.0,0.0
6990,60.0,120,360,3.0,0.0
6991,64.0,0,360,3.0,0.0
6992,72.0,240,240,1.0,0.0
6993,60.0,120,360,3.0,0.0
6994,71.0,120,240,1.0,0.0
6995,64.0,0,360,3.0,0.0
6996,72.0,480,240,1.0,0.0
6997,76.0,360,480,1.0,0.0
6998,57.0,0,480,5.0,0.0
6999,60.0,360,360,3.0,0.0
7000,64.0,0,360,3.0,0.0
7001,60.0,0,360,3.0,0.0
7002,64.0,120,360,3.0,0.0
7003,77.0,120,240,1.0,0.0
7004,76.0,240,240,1.0,0.0
7005,75.0,120,240,1.0,0.0
7006,60.0,0,360,3.0,0.0
7007,64.0,120,360,3.0,0.0
7008,76.0,240,240,1.0,0.0
7009,83.0,240,240,1.0,0.0
7010,57.0,0,480,5.0,0.0
7011,81.0,240,240,1.0,0.0
7012,80.0,120,240,1.0,0.0
7013,60.0,120,360,3.0,0.0
7014,64.0,0,360,3.0,0.0
7015,81.0,240,240,1.0,0.0
7016,83.0,240,240,1.0,0.0
7017,57.0,240,480,3.0,0.0
7018,81.0,0,240,1.0,0.0
7019,80.0,120,240,1.0,0.0
7020,64.0,120,360,3.0,0.0
7021,60.0,0,360,3.0,0.0
7022,81.0,480,240,1.0,0.0
7023,84.0,70,780,1.0,0.0
7024,53.0,290,480,5.0,0.0
7025,57.0,360,360,3.0,0.0
7026,63.0,0,360,3.0,0.0
7027,57.0,360,360,3.0,0.0
7028,63.0,0,360,3.0,0.0
7029,81.0,120,240,1.0,0.0
7030,63.0,360,360,3.0,0.0
7031,57.0,0,360,3.0,0.0
7032,83.0,120,240,1.0,0.0
7033,84.0,240,240,1.0,0.0
7034,52.0,240,480,5.0,0.0
7035,83.0,120,240,1.0,0.0
7036,57.0,0,360,3.0,0.0
7037,64.0,360,360,3.0,0.0
7038,50.0,240,480,5.0,0.0
7039,81.0,240,240,1.0,0.0
7040,59.0,360,360,3.0,0.0
7041,53.0,0,360,3.0,0.0
7042,80.0,120,240,1.0,0.0
7043,81.0,240,240,1.0,0.0
7044,48.0,240,480,5.0,0.0
7045,76.0,120,240,1.0,0.0
7046,52.0,0,360,3.0,0.0
7047,57.0,360,360,3.0,0.0
7048,77.0,240,240,1.0,0.0
7049,50.0,240,480,5.0,0.0
7050,74.0,120,240,1.0,0.0
7051,53.0,0,360,3.0,0.0
7052,59.0,480,360,3.0,0.0
7053,72.0,120,960,1.0,0.0
7054,52.0,480,360,5.0,0.0
7055,57.0,0,360,4.0,0.0
7056,52.0,120,360,5.0,0.0
7057,57.0,0,360,4.0,0.0
7058,71.0,120,120,1.0,0.0
7059,56.0,120,360,4.0,0.0
7060,52.0,0,360,5.0,0.0
7061,72.0,120,120,1.0,0.0
7062,71.0,0,120,1.0,0.0
7063,72.0,80,120,1.0,0.0
7064,52.0,120,360,5.0,0.0
7065,71.0,80,90,1.0,0.0
7066,56.0,0,360,4.0,0.0
7067,72.0,80,90,1.0,0.0
7068,71.0,120,90,1.0,0.0
7069,69.0,0,120,1.0,0.0
7070,71.0,905,120,1.0,0.0
7071,69.0,55,900,1.0,0.0
7072,57.0,240,960,4.0,0.0
7073,45.0,0,960,5.0,0.0
7074,76.0,480,240,1.0,0.0
7075,72.0,0,240,2.0,0.0
7076,74.0,0,240,2.0,0.0
7077,77.0,480,240,1.0,0.0
7078,79.0,240,240,1.0,0.0
7079,76.0,0,240,2.0,0.0
7080,48.0,240,480,5.0,0.0
7081,79.0,120,240,1.0,0.0
7082,60.0,360,360,3.0,0.0
7083,76.0,0,240,2.0,0.0
7084,52.0,0,480,5.0,0.0
7085,81.0,240,240,1.0,0.0
7086,79.0,240,240,1.0,0.0
7087,64.0,120,360,3.0,0.0
7088,77.0,120,240,1.0,0.0
7089,76.0,480,240,1.0,0.0
7090,55.0,130,780,5.0,0.0
7091,74.0,300,900,1.0,0.0
7092,71.0,290,480,2.0,0.0
7093,67.0,0,420,2.0,0.0
7094,72.0,0,240,2.0,0.0
7095,76.0,480,240,1.0,0.0
7096,77.0,0,240,1.0,0.0
7097,74.0,480,240,2.0,0.0
7098,76.0,0,240,2.0,0.0
7099,79.0,145,240,1.0,0.0
7100,48.0,335,390,5.0,0.0
7101,79.0,120,240,1.0,0.0
7102,76.0,0,240,2.0,0.0
7103,60.0,360,360,3.0,0.0
7104,52.0,95,390,5.0,0.0
7105,81.0,145,240,1.0,0.0
7106,79.0,240,240,1.0,0.0
7107,77.0,120,240,1.0,0.0
7108,64.0,120,360,3.0,0.0
7109,76.0,480,240,1.0,0.0
7110,74.0,295,900,1.0,0.0
7111,71.0,290,480,2.0,0.0
7112,55.0,130,780,5.0,0.0
7113,67.0,5,420,2.0,0.0
7114,72.0,0,240,1.0,0.0
7115,69.0,480,240,2.0,0.0
7116,74.0,0,240,1.0,0.0
7117,71.0,480,240,2.0,0.0
7118,72.0,0,240,2.0,0.0
7119,45.0,240,480,5.0,0.0
7120,76.0,240,240,1.0,0.0
7121,57.0,360,360,3.0,0.0
7122,72.0,120,240,2.0,0.0
7123,76.0,0,240,1.0,0.0
7124,77.0,240,240,1.0,0.0
7125,48.0,0,480,5.0,0.0
7126,76.0,240,240,1.0,0.0
7127,60.0,120,360,3.0,0.0
7128,74.0,120,240,1.0,0.0
7129,72.0,480,240,1.0,0.0
7130,52.0,135,780,5.0,0.0
7131,71.0,295,900,1.0,0.0
7132,68.0,290,480,2.0,0.0
7133,64.0,0,420,2.0,0.0
7134,69.0,0,240,2.0,0.0
7135,72.0,480,240,1.0,0.0
7136,71.0,0,240,2.0,0.0
7137,74.0,480,240,1.0,0.0
7138,72.0,0,240,2.0,0.0
7139,76.0,145,240,1.0,0.0
7140,45.0,335,390,5.0,0.0
7141,76.0,0,240,1.0,0.0
7142,72.0,120,240,2.0,0.0
7143,57.0,360,360,3.0,0.0
7144,77.0,145,240,1.0,0.0
7145,48.0,95,390,5.0,0.0
7146,76.0,240,240,1.0,0.0
7147,74.0,120,240,1.0,0.0
7148,60.0,120,360,3.0,0.0
7149,72.0,480,240,1.0,0.0
7150,68.0,290,480,2.0,0.0
7151,71.0,300,900,1.0,0.0
7152,52.0,130,780,5.0,0.0
7153,64.0,0,420,2.0,0.0
7154,71.0,240,240,1.0,0.0
7155,69.0,240,240,1.0,0.0
7156,68.0,240,240,1.0,0.0
7157,69.0,480,240,1.0,0.0
7158,57.0,360,480,5.0,0.0
7159,72.0,0,480,1.0,0.0
7160,60.0,0,360,3.0,0.0
7161,64.0,360,360,3.0,0.0
7162,64.0,0,360,3.0,0.0
7163,74.0,120,240,1.0,0.0
7164,60.0,120,360,3.0,0.0
7165,72.0,240,240,1.0,0.0
7166,71.0,120,240,1.0,0.0
7167,64.0,120,360,3.0,0.0
7168,60.0,0,360,3.0,0.0
7169,72.0,480,240,1.0,0.0
7170,57.0,360,480,5.0,0.0
7171,76.0,0,480,1.0,0.0
7172,60.0,0,360,3.0,0.0
7173,64.0,360,360,3.0,0.0
7174,60.0,0,360,3.0,0.0
7175,64.0,120,360,3.0,0.0
7176,77.0,120,240,1.0,0.0
7177,76.0,240,240,1.0,0.0
7178,64.0,0,360,3.0,0.0
7179,60.0,120,360,3.0,0.0
7180,75.0,120,240,1.0,0.0
7181,76.0,240,240,1.0,0.0
7182,57.0,0,480,5.0,0.0
7183,83.0,240,240,1.0,0.0
7184,81.0,240,240,1.0,0.0
7185,64.0,0,360,3.0,0.0
7186,80.0,120,240,1.0,0.0
7187,60.0,120,360,3.0,0.0
7188,81.0,240,240,1.0,0.0
7189,57.0,0,480,3.0,0.0
7190,83.0,240,240,1.0,0.0
7191,81.0,240,240,1.0,0.0
7192,64.0,120,360,3.0,0.0
7193,60.0,0,360,3.0,0.0
7194,80.0,120,240,1.0,0.0
7195,81.0,480,240,1.0,0.0
7196,53.0,290,480,5.0,0.0
7197,84.0,70,780,1.0,0.0
7198,57.0,0,360,3.0,0.0
7199,63.0,360,360,3.0,0.0
7200,63.0,0,360,3.0,0.0
7201,57.0,360,360,3.0,0.0
7202,81.0,120,240,1.0,0.0
7203,57.0,0,360,3.0,0.0
7204,63.0,360,360,3.0,0.0
7205,83.0,120,240,1.0,0.0
7206,52.0,240,480,5.0,0.0
7207,84.0,240,240,1.0,0.0
7208,83.0,120,240,1.0,0.0
7209,64.0,0,360,3.0,0.0
7210,57.0,360,360,3.0,0.0
7211,50.0,240,480,5.0,0.0
7212,81.0,240,240,1.0,0.0
7213,53.0,360,360,3.0,0.0
7214,59.0,0,360,3.0,0.0
7215,80.0,120,240,1.0,0.0
7216,48.0,240,480,5.0,0.0
7217,81.0,240,240,1.0,0.0
7218,57.0,0,360,3.0,0.0
7219,52.0,360,360,3.0,0.0
7220,76.0,120,240,1.0,0.0
7221,77.0,240,240,1.0,0.0
7222,50.0,240,480,5.0,0.0
7223,53.0,0,360,3.0,0.0
7224,59.0,480,360,3.0,0.0
7225,74.0,120,240,1.0,0.0
7226,57.0,0,360,4.0,0.0
7227,52.0,480,360,5.0,0.0
7228,72.0,120,960,1.0,0.0
7229,57.0,0,360,4.0,0.0
7230,52.0,120,360,5.0,0.0
7231,56.0,0,360,4.0,0.0
7232,52.0,120,360,5.0,0.0
7233,71.0,120,120,1.0,0.0
7234,72.0,120,120,1.0,0.0
7235,71.0,0,120,1.0,0.0
7236,72.0,80,120,1.0,0.0
7237,56.0,0,360,4.0,0.0
7238,52.0,0,360,5.0,0.0
7239,71.0,80,90,1.0,0.0
7240,72.0,80,90,1.0,0.0
7241,71.0,120,90,1.0,0.0
7242,69.0,120,120,1.0,0.0
7243,71.0,905,120,1.0,0.0
7244,69.0,55,900,1.0,0.0
7245,45.0,0,960,5.0,0.0
7246,57.0,240,960,4.0,0.0
7247,69.0,0,240,2.0,0.0
7248,81.0,480,240,1.0,0.0
7249,71.0,0,240,2.0,0.0
7250,83.0,320,240,1.0,0.0
7251,73.0,0,960,2.0,0.0
7252,45.0,45,90,4.0,0.0
7253,85.0,240,960,1.0,0.0
7254,49.0,40,90,3.0,0.0
7255,52.0,135,90,3.0,0.0
7256,57.0,420,180,3.0,0.0
7257,57.0,240,240,3.0,0.0
7258,57.0,0,240,3.0,0.0
7259,69.0,0,240,2.0,0.0
7260,81.0,480,240,1.0,0.0
7261,83.0,0,240,1.0,0.0
7262,71.0,320,240,2.0,0.0
7263,57.0,0,240,3.0,0.0
7264,85.0,0,240,1.0,0.0
7265,73.0,60,240,2.0,0.0
7266,45.0,45,90,4.0,0.0
7267,49.0,40,90,3.0,0.0
7268,52.0,75,90,3.0,0.0
7269,57.0,420,180,3.0,0.0
7270,57.0,0,240,3.0,0.0
7271,71.0,0,240,2.0,0.0
7272,83.0,480,240,1.0,0.0
7273,57.0,480,240,3.0,0.0
7274,69.0,0,240,2.0,0.0
7275,81.0,0,240,1.0,0.0
7276,68.0,320,240,2.0,0.0
7277,80.0,0,240,1.0,0.0
7278,57.0,0,240,3.0,0.0
7279,66.0,0,240,2.0,0.0
7280,38.0,45,90,4.0,0.0
7281,78.0,60,240,1.0,0.0
7282,42.0,30,90,3.0,0.0
7283,45.0,85,60,3.0,0.0
7284,50.0,420,180,3.0,0.0
7285,68.0,320,240,2.0,0.0
7286,50.0,0,240,3.0,0.0
7287,80.0,0,240,1.0,0.0
7288,69.0,65,240,2.0,0.0
7289,39.0,45,90,4.0,0.0
7290,81.0,0,240,1.0,0.0
7291,42.0,30,90,3.0,0.0
7292,45.0,85,60,3.0,0.0
7293,51.0,415,180,3.0,0.0
7294,71.0,330,240,2.0,0.0
7295,83.0,0,240,1.0,0.0
7296,51.0,0,240,3.0,0.0
7297,80.0,0,240,1.0,0.0
7298,68.0,65,240,2.0,0.0
7299,40.0,30,90,4.0,0.0
7300,44.0,45,90,3.0,0.0
7301,47.0,75,90,3.0,0.0
7302,52.0,415,180,3.0,0.0
7303,64.0,0,240,2.0,0.0
7304,76.0,5,240,1.0,0.0
7305,52.0,475,240,3.0,0.0
7306,69.0,0,240,2.0,0.0
7307,81.0,0,240,1.0,0.0
7308,52.0,480,240,3.0,0.0
7309,52.0,320,240,3.0,0.0
7310,83.0,0,240,1.0,0.0
7311,71.0,0,240,2.0,0.0
7312,45.0,45,90,4.0,0.0
7313,73.0,0,960,2.0,0.0
7314,85.0,240,960,1.0,0.0
7315,49.0,40,90,3.0,0.0
7316,52.0,140,90,3.0,0.0
7317,57.0,415,180,3.0,0.0
7318,57.0,240,240,3.0,0.0
7319,69.0,0,240,2.0,0.0
7320,57.0,0,240,3.0,0.0
7321,81.0,480,240,1.0,0.0
7322,83.0,0,240,1.0,0.0
7323,57.0,0,240,3.0,0.0
7324,71.0,320,240,2.0,0.0
7325,45.0,45,90,4.0,0.0
7326,73.0,0,240,2.0,0.0
7327,85.0,60,240,1.0,0.0
7328,49.0,40,90,3.0,0.0
7329,52.0,75,90,3.0,0.0
7330,57.0,420,180,3.0,0.0
7331,57.0,0,240,3.0,0.0
7332,83.0,480,240,1.0,0.0
7333,71.0,0,240,2.0,0.0
7334,69.0,0,240,2.0,0.0
7335,81.0,0,240,1.0,0.0
7336,57.0,480,240,3.0,0.0
7337,68.0,0,240,2.0,0.0
7338,57.0,320,240,3.0,0.0
7339,80.0,0,240,1.0,0.0
7340,38.0,45,90,4.0,0.0
7341,78.0,60,240,1.0,0.0
7342,66.0,0,240,2.0,0.0
7343,42.0,30,90,3.0,0.0
7344,45.0,85,60,3.0,0.0
7345,50.0,420,180,3.0,0.0
7346,50.0,0,240,3.0,0.0
7347,83.0,0,240,1.0,0.0
7348,71.0,330,240,2.0,0.0
7349,40.0,30,90,4.0,0.0
7350,68.0,0,240,2.0,0.0
7351,80.0,60,240,1.0,0.0
7352,44.0,45,90,3.0,0.0
7353,47.0,75,90,3.0,0.0
7354,52.0,420,180,3.0,0.0
7355,76.0,0,240,1.0,0.0
7356,52.0,1135,240,3.0,0.0
7357,64.0,5,240,2.0,0.0
7358,81.0,55,900,1.0,0.0
7359,69.0,5,900,2.0,0.0
7360,45.0,240,960,4.0,0.0
7361,81.0,480,240,1.0,0.0
7362,69.0,0,240,2.0,0.0
7363,71.0,0,240,2.0,0.0
7364,83.0,320,240,1.0,0.0
7365,45.0,45,90,4.0,0.0
7366,73.0,240,960,2.0,0.0
7367,85.0,0,960,1.0,0.0
7368,49.0,40,90,3.0,0.0
7369,52.0,135,90,3.0,0.0
7370,57.0,420,180,3.0,0.0
7371,57.0,240,240,3.0,0.0
7372,57.0,480,240,3.0,0.0
7373,81.0,0,240,1.0,0.0
7374,69.0,0,240,2.0,0.0
7375,83.0,0,240,1.0,0.0
7376,71.0,0,240,2.0,0.0
7377,57.0,320,240,3.0,0.0
7378,85.0,0,240,1.0,0.0
7379,73.0,60,240,2.0,0.0
7380,45.0,45,90,4.0,0.0
7381,49.0,40,90,3.0,0.0
7382,52.0,75,90,3.0,0.0
7383,57.0,420,180,3.0,0.0
7384,83.0,480,240,1.0,0.0
7385,71.0,0,240,2.0,0.0
7386,57.0,0,240,3.0,0.0
7387,69.0,0,240,2.0,0.0
7388,57.0,480,240,3.0,0.0
7389,81.0,0,240,1.0,0.0
7390,80.0,0,240,1.0,0.0
7391,68.0,0,240,2.0,0.0
7392,57.0,320,240,3.0,0.0
7393,38.0,45,90,4.0,0.0
7394,66.0,0,240,2.0,0.0
7395,78.0,60,240,1.0,0.0
7396,42.0,30,90,3.0,0.0
7397,45.0,85,60,3.0,0.0
7398,50.0,420,180,3.0,0.0
7399,50.0,320,240,3.0,0.0
7400,68.0,0,240,2.0,0.0
7401,80.0,0,240,1.0,0.0
7402,81.0,0,240,1.0,0.0
7403,69.0,65,240,2.0,0.0
7404,39.0,45,90,4.0,0.0
7405,42.0,30,90,3.0,0.0
7406,45.0,85,60,3.0,0.0
7407,51.0,415,180,3.0,0.0
7408,83.0,0,240,1.0,0.0
7409,71.0,0,240,2.0,0.0
7410,51.0,330,240,3.0,0.0
7411,80.0,0,240,1.0,0.0
7412,40.0,30,90,4.0,0.0
7413,68.0,65,240,2.0,0.0
7414,44.0,45,90,3.0,0.0
7415,47.0,75,90,3.0,0.0
7416,52.0,415,180,3.0,0.0
7417,76.0,0,240,1.0,0.0
7418,64.0,5,240,2.0,0.0
7419,52.0,475,240,3.0,0.0
7420,69.0,0,240,2.0,0.0
7421,81.0,480,240,1.0,0.0
7422,52.0,0,240,3.0,0.0
7423,71.0,0,240,2.0,0.0
7424,83.0,320,240,1.0,0.0
7425,52.0,0,240,3.0,0.0
7426,45.0,45,90,4.0,0.0
7427,85.0,0,960,1.0,0.0
7428,73.0,240,960,2.0,0.0
7429,49.0,40,90,3.0,0.0
7430,52.0,140,90,3.0,0.0
7431,57.0,415,180,3.0,0.0
7432,57.0,240,240,3.0,0.0
7433,57.0,0,240,3.0,0.0
7434,69.0,0,240,2.0,0.0
7435,81.0,480,240,1.0,0.0
7436,57.0,0,240,3.0,0.0
7437,71.0,0,240,2.0,0.0
7438,83.0,320,240,1.0,0.0
7439,45.0,45,90,4.0,0.0
7440,85.0,60,240,1.0,0.0
7441,73.0,0,240,2.0,0.0
7442,49.0,40,90,3.0,0.0
7443,52.0,75,90,3.0,0.0
7444,57.0,420,180,3.0,0.0
7445,71.0,0,240,2.0,0.0
7446,57.0,480,240,3.0,0.0
7447,83.0,0,240,1.0,0.0
7448,57.0,0,240,3.0,0.0
7449,81.0,0,240,1.0,0.0
7450,69.0,480,240,2.0,0.0
7451,57.0,0,240,3.0,0.0
7452,80.0,0,240,1.0,0.0
7453,68.0,320,240,2.0,0.0
7454,78.0,0,240,1.0,0.0
7455,66.0,60,240,2.0,0.0
7456,38.0,45,90,4.0,0.0
7457,42.0,30,90,3.0,0.0
7458,45.0,85,60,3.0,0.0
7459,50.0,420,180,3.0,0.0
7460,71.0,0,240,2.0,0.0
7461,50.0,330,240,3.0,0.0
7462,83.0,0,240,1.0,0.0
7463,40.0,30,90,4.0,0.0
7464,80.0,0,240,1.0,0.0
7465,68.0,60,240,2.0,0.0
7466,44.0,45,90,3.0,0.0
7467,47.0,75,90,3.0,0.0
7468,52.0,420,180,3.0,0.0
7469,64.0,0,240,2.0,0.0
7470,76.0,5,240,1.0,0.0
7471,52.0,1135,240,3.0,0.0
7472,45.0,240,960,4.0,0.0
7473,69.0,5,900,2.0,0.0
7474,81.0,55,900,1.0,0.0
7475,85.0,240,240,1.0,0.0
7476,86.0,240,240,1.0,0.0
7477,85.0,240,240,1.0,0.0
7478,83.0,240,240,1.0,0.0
7479,81.0,240,240,1.0,0.0
7480,54.0,0,480,5.0,0.0
7481,83.0,240,240,1.0,0.0
7482,81.0,120,240,1.0,0.0
7483,57.0,0,360,3.0,0.0
7484,61.0,120,360,3.0,0.0
7485,80.0,240,240,1.0,0.0
7486,61.0,0,360,3.0,0.0
7487,57.0,120,360,3.0,0.0
7488,78.0,120,240,1.0,0.0
7489,81.0,240,240,1.0,0.0
7490,80.0,120,240,1.0,0.0
7491,61.0,0,360,3.0,0.0
7492,57.0,120,360,3.0,0.0
7493,78.0,240,240,1.0,0.0
7494,56.0,240,480,5.0,0.0
7495,77.0,240,240,1.0,0.0
7496,78.0,0,240,1.0,0.0
7497,80.0,120,240,1.0,0.0
7498,59.0,120,360,3.0,0.0
7499,61.0,0,360,3.0,0.0
7500,77.0,240,240,1.0,0.0
7501,61.0,0,360,3.0,0.0
7502,59.0,120,360,3.0,0.0
7503,73.0,120,240,1.0,0.0
7504,75.0,240,240,1.0,0.0
7505,77.0,120,240,1.0,0.0
7506,61.0,120,360,3.0,0.0
7507,59.0,0,360,3.0,0.0
7508,73.0,240,240,1.0,0.0
7509,78.0,240,240,1.0,0.0
7510,54.0,0,480,5.0,0.0
7511,77.0,240,240,1.0,0.0
7512,78.0,120,240,1.0,0.0
7513,61.0,120,360,3.0,0.0
7514,57.0,0,360,3.0,0.0
7515,80.0,240,240,1.0,0.0
7516,57.0,120,360,3.0,0.0
7517,61.0,0,360,3.0,0.0
7518,81.0,120,240,1.0,0.0
7519,80.0,240,240,1.0,0.0
7520,57.0,0,360,3.0,0.0
7521,81.0,120,240,1.0,0.0
7522,61.0,120,360,3.0,0.0
7523,83.0,240,240,1.0,0.0
7524,53.0,0,480,5.0,0.0
7525,85.0,240,240,1.0,0.0
7526,84.0,240,240,1.0,0.0
7527,61.0,0,360,3.0,0.0
7528,56.0,120,360,3.0,0.0
7529,85.0,120,240,1.0,0.0
7530,84.0,240,240,1.0,0.0
7531,85.0,120,240,1.0,0.0
7532,56.0,120,360,3.0,0.0
7533,61.0,0,360,3.0,0.0
7534,86.0,240,240,1.0,0.0
7535,56.0,0,360,3.0,0.0
7536,85.0,120,240,1.0,0.0
7537,61.0,120,360,3.0,0.0
7538,83.0,240,240,1.0,0.0
7539,54.0,240,480,5.0,0.0
7540,81.0,240,240,1.0,0.0
7541,83.0,0,240,1.0,0.0
7542,81.0,120,240,1.0,0.0
7543,61.0,120,360,3.0,0.0
7544,57.0,0,360,3.0,0.0
7545,80.0,240,240,1.0,0.0
7546,61.0,0,360,3.0,0.0
7547,57.0,120,360,3.0,0.0
7548,78.0,120,240,1.0,0.0
7549,81.0,240,240,1.0,0.0
7550,61.0,120,360,3.0,0.0
7551,80.0,120,240,1.0,0.0
7552,57.0,0,360,3.0,0.0
7553,78.0,240,240,1.0,0.0
7554,76.0,240,240,1.0,0.0
7555,56.0,0,480,5.0,0.0
7556,78.0,240,240,1.0,0.0
7557,61.0,120,360,3.0,0.0
7558,64.0,0,360,3.0,0.0
7559,80.0,120,240,1.0,0.0
7560,76.0,240,240,1.0,0.0
7561,61.0,0,360,3.0,0.0
7562,64.0,120,360,3.0,0.0
7563,73.0,120,240,1.0,0.0
7564,75.0,240,240,1.0,0.0
7565,64.0,120,360,3.0,0.0
7566,76.0,120,240,1.0,0.0
7567,61.0,0,360,3.0,0.0
7568,73.0,240,240,1.0,0.0
7569,75.0,240,240,1.0,0.0
7570,56.0,240,480,5.0,0.0
7571,76.0,0,240,1.0,0.0
7572,63.0,0,360,3.0,0.0
7573,78.0,120,240,1.0,0.0
7574,66.0,120,360,3.0,0.0
7575,75.0,240,240,1.0,0.0
7576,72.0,120,240,1.0,0.0
7577,66.0,0,360,3.0,0.0
7578,63.0,120,360,3.0,0.0
7579,73.0,240,240,1.0,0.0
7580,75.0,120,240,1.0,0.0
7581,66.0,120,360,3.0,0.0
7582,63.0,0,360,3.0,0.0
7583,72.0,840,240,1.0,0.0
7584,61.0,240,960,5.0,0.0
7585,64.0,0,960,3.0,0.0
7586,73.0,120,840,1.0,0.0
7587,76.0,240,240,1.0,0.0
7588,74.0,240,240,1.0,0.0
7589,73.0,240,240,1.0,0.0
7590,71.0,240,240,1.0,0.0
7591,57.0,240,480,5.0,0.0
7592,69.0,240,240,1.0,0.0
7593,71.0,0,240,1.0,0.0
7594,64.0,120,360,3.0,0.0
7595,73.0,120,240,1.0,0.0
7596,61.0,0,360,3.0,0.0
7597,74.0,240,240,1.0,0.0
7598,64.0,0,360,3.0,0.0
7599,76.0,120,240,1.0,0.0
7600,61.0,120,360,3.0,0.0
7601,78.0,240,240,1.0,0.0
7602,61.0,0,360,3.0,0.0
7603,64.0,120,360,3.0,0.0
7604,80.0,120,240,1.0,0.0
7605,81.0,240,240,1.0,0.0
7606,81.0,240,240,1.0,0.0
7607,59.0,240,480,5.0,0.0
7608,80.0,0,240,1.0,0.0
7609,78.0,120,240,1.0,0.0
7610,62.0,120,360,3.0,0.0
7611,64.0,0,360,3.0,0.0
7612,76.0,240,15,1.0,0.0
7613,56.0,0,480,5.0,0.0
7614,74.0,240,240,1.0,0.0
7615,64.0,120,360,3.0,0.0
7616,73.0,120,240,1.0,0.0
7617,62.0,0,360,3.0,0.0
7618,71.0,240,240,1.0,0.0
7619,69.0,240,240,1.0,0.0
7620,57.0,240,480,5.0,0.0
7621,71.0,0,240,1.0,0.0
7622,73.0,120,240,1.0,0.0
7623,61.0,120,360,3.0,0.0
7624,64.0,0,360,3.0,0.0
7625,74.0,240,240,1.0,0.0
7626,61.0,120,360,3.0,0.0
7627,76.0,120,240,1.0,0.0
7628,64.0,0,360,3.0,0.0
7629,78.0,240,240,1.0,0.0
7630,64.0,0,360,3.0,0.0
7631,61.0,120,360,3.0,0.0
7632,80.0,120,240,1.0,0.0
7633,81.0,480,240,1.0,0.0
7634,52.0,0,480,5.0,0.0
7635,82.0,360,480,1.0,0.0
7636,83.0,335,390,1.0,0.0
7637,56.0,0,360,3.0,0.0
7638,62.0,25,360,3.0,0.0
7639,56.0,0,360,3.0,0.0
7640,76.0,120,240,1.0,0.0
7641,62.0,120,360,3.0,0.0
7642,74.0,240,240,1.0,0.0
7643,56.0,0,360,3.0,0.0
7644,62.0,120,360,3.0,0.0
7645,73.0,120,240,1.0,0.0
7646,71.0,240,240,1.0,0.0
7647,57.0,240,480,5.0,0.0
7648,69.0,240,240,1.0,0.0
7649,71.0,0,240,1.0,0.0
7650,64.0,120,360,3.0,0.0
7651,73.0,120,240,1.0,0.0
7652,61.0,0,360,3.0,0.0
7653,74.0,240,240,1.0,0.0
7654,76.0,120,240,1.0,0.0
7655,64.0,0,360,3.0,0.0
7656,61.0,120,360,3.0,0.0
7657,78.0,240,240,1.0,0.0
7658,80.0,120,240,1.0,0.0
7659,61.0,120,360,3.0,0.0
7660,64.0,0,360,3.0,0.0
7661,81.0,240,240,1.0,0.0
7662,59.0,0,480,5.0,0.0
7663,81.0,240,240,1.0,0.0
7664,80.0,240,240,1.0,0.0
7665,78.0,120,240,1.0,0.0
7666,62.0,0,360,3.0,0.0
7667,64.0,120,360,3.0,0.0
7668,76.0,240,15,1.0,0.0
7669,56.0,240,480,5.0,0.0
7670,74.0,0,240,1.0,0.0
7671,73.0,120,240,1.0,0.0
7672,62.0,0,360,3.0,0.0
7673,64.0,120,360,3.0,0.0
7674,71.0,240,240,1.0,0.0
7675,73.0,120,240,1.0,0.0
7676,57.0,120,360,5.0,0.0
7677,76.0,240,240,2.0,0.0
7678,69.0,120,240,1.0,0.0
7679,54.0,120,360,5.0,0.0
7680,73.0,240,240,2.0,0.0
7681,71.0,120,240,1.0,0.0
7682,50.0,120,360,5.0,0.0
7683,74.0,240,240,2.0,0.0
7684,52.0,120,360,5.0,0.0
7685,68.0,120,240,1.0,0.0
7686,71.0,360,240,2.0,0.0
7687,45.0,410,360,5.0,0.0
7688,69.0,70,780,1.0,0.0
7689,57.0,360,360,5.0,0.0
7690,85.0,240,240,1.0,0.0
7691,86.0,240,240,1.0,0.0
7692,85.0,240,240,1.0,0.0
7693,83.0,240,240,1.0,0.0
7694,81.0,240,240,1.0,0.0
7695,54.0,240,480,5.0,0.0
7696,83.0,0,240,1.0,0.0
7697,57.0,0,360,3.0,0.0
7698,61.0,120,360,3.0,0.0
7699,81.0,120,240,1.0,0.0
7700,80.0,240,240,1.0,0.0
7701,57.0,120,360,3.0,0.0
7702,61.0,0,360,3.0,0.0
7703,78.0,120,240,1.0,0.0
7704,81.0,240,240,1.0,0.0
7705,80.0,120,240,1.0,0.0
7706,57.0,0,360,3.0,0.0
7707,61.0,120,360,3.0,0.0
7708,78.0,240,240,1.0,0.0
7709,56.0,240,480,5.0,0.0
7710,77.0,240,240,1.0,0.0
7711,78.0,0,240,1.0,0.0
7712,80.0,120,240,1.0,0.0
7713,61.0,0,360,3.0,0.0
7714,59.0,120,360,3.0,0.0
7715,77.0,240,240,1.0,0.0
7716,59.0,0,360,3.0,0.0
7717,73.0,120,240,1.0,0.0
7718,61.0,120,360,3.0,0.0
7719,75.0,240,240,1.0,0.0
7720,61.0,120,360,3.0,0.0
7721,59.0,0,360,3.0,0.0
7722,77.0,120,240,1.0,0.0
7723,73.0,240,240,1.0,0.0
7724,54.0,0,480,5.0,0.0
7725,78.0,240,240,1.0,0.0
7726,77.0,240,240,1.0,0.0
7727,57.0,0,360,3.0,0.0
7728,61.0,120,360,3.0,0.0
7729,78.0,120,240,1.0,0.0
7730,80.0,240,240,1.0,0.0
7731,61.0,0,360,3.0,0.0
7732,57.0,120,360,3.0,0.0
7733,81.0,120,240,1.0,0.0
7734,80.0,240,240,1.0,0.0
7735,81.0,120,240,1.0,0.0
7736,57.0,120,360,3.0,0.0
7737,61.0,0,360,3.0,0.0
7738,83.0,240,240,1.0,0.0
7739,85.0,240,240,1.0,0.0
7740,49.0,0,480,5.0,0.0
7741,84.0,240,240,1.0,0.0
7742,61.0,0,360,3.0,0.0
7743,56.0,120,360,5.0,0.0
7744,85.0,120,240,1.0,0.0
7745,84.0,240,240,1.0,0.0
7746,85.0,120,240,1.0,0.0
7747,55.0,120,360,5.0,0.0
7748,61.0,0,360,3.0,0.0
7749,84.0,240,240,1.0,0.0
7750,85.0,120,240,1.0,0.0
7751,61.0,0,360,3.0,0.0
7752,54.0,120,360,5.0,0.0
7753,82.0,240,240,1.0,0.0
7754,86.0,240,240,1.0,0.0
7755,47.0,240,480,5.0,0.0
7756,85.0,0,240,1.0,0.0
7757,59.0,120,360,3.0,0.0
7758,54.0,0,360,3.0,0.0
7759,86.0,120,240,1.0,0.0
7760,85.0,240,240,1.0,0.0
7761,54.0,120,360,3.0,0.0
7762,59.0,0,360,3.0,0.0
7763,86.0,120,240,1.0,0.0
7764,85.0,240,240,1.0,0.0
7765,54.0,0,360,3.0,0.0
7766,59.0,120,360,3.0,0.0
7767,86.0,120,240,1.0,0.0
7768,85.0,240,240,1.0,0.0
7769,47.0,0,480,5.0,0.0
7770,86.0,240,240,1.0,0.0
7771,85.0,240,240,1.0,0.0
7772,56.0,0,360,3.0,0.0
7773,83.0,120,240,1.0,0.0
7774,59.0,120,360,3.0,0.0
7775,81.0,240,240,1.0,0.0
7776,59.0,120,360,3.0,0.0
7777,80.0,120,240,1.0,0.0
7778,56.0,0,360,3.0,0.0
7779,81.0,240,240,1.0,0.0
7780,59.0,0,360,3.0,0.0
7781,56.0,120,360,3.0,0.0
7782,83.0,120,240,1.0,0.0
7783,80.0,240,240,1.0,0.0
7784,49.0,240,480,5.0,0.0
7785,81.0,240,240,1.0,0.0
7786,83.0,0,240,1.0,0.0
7787,57.0,120,360,3.0,0.0
7788,54.0,0,360,3.0,0.0
7789,85.0,120,240,1.0,0.0
7790,78.0,240,240,1.0,0.0
7791,77.0,240,240,1.0,0.0
7792,49.0,0,480,5.0,0.0
7793,78.0,240,240,1.0,0.0
7794,59.0,120,360,3.0,0.0
7795,80.0,120,240,1.0,0.0
7796,56.0,0,360,3.0,0.0
7797,77.0,770,240,1.0,0.0
7798,78.0,190,780,1.0,0.0
7799,54.0,240,960,5.0,0.0
7800,57.0,0,960,3.0,0.0
7801,76.0,240,240,1.0,0.0
7802,74.0,240,240,1.0,0.0
7803,73.0,240,240,1.0,0.0
7804,71.0,240,240,1.0,0.0
7805,57.0,0,480,5.0,0.0
7806,69.0,240,240,1.0,0.0
7807,71.0,240,240,1.0,0.0
7808,61.0,120,360,3.0,0.0
7809,64.0,0,360,3.0,0.0
7810,73.0,120,240,1.0,0.0
7811,74.0,240,240,1.0,0.0
7812,76.0,120,240,1.0,0.0
7813,61.0,120,360,3.0,0.0
7814,64.0,0,360,3.0,0.0
7815,78.0,240,240,1.0,0.0
7816,80.0,120,240,1.0,0.0
7817,64.0,0,360,3.0,0.0
7818,61.0,120,360,3.0,0.0
7819,81.0,240,240,1.0,0.0
7820,81.0,240,240,1.0,0.0
7821,59.0,0,480,5.0,0.0
7822,80.0,240,240,1.0,0.0
7823,78.0,120,240,1.0,0.0
7824,64.0,0,360,3.0,0.0
7825,62.0,120,360,3.0,0.0
7826,76.0,240,240,1.0,0.0
7827,76.0,240,240,1.0,0.0
7828,56.0,0,480,5.0,0.0
7829,74.0,240,240,1.0,0.0
7830,73.0,120,240,1.0,0.0
7831,62.0,0,360,3.0,0.0
7832,64.0,120,360,3.0,0.0
7833,71.0,240,240,1.0,0.0
7834,57.0,0,480,5.0,0.0
7835,69.0,240,240,1.0,0.0
7836,71.0,240,240,1.0,0.0
7837,61.0,120,360,3.0,0.0
7838,64.0,0,360,3.0,0.0
7839,73.0,120,240,1.0,0.0
7840,74.0,240,240,1.0,0.0
7841,76.0,120,240,1.0,0.0
7842,64.0,0,360,3.0,0.0
7843,61.0,120,360,3.0,0.0
7844,78.0,240,240,1.0,0.0
7845,80.0,120,240,1.0,0.0
7846,64.0,120,360,3.0,0.0
7847,61.0,0,360,3.0,0.0
7848,81.0,480,240,1.0,0.0
7849,52.0,0,480,5.0,0.0
7850,82.0,360,480,1.0,0.0
7851,62.0,0,360,3.0,0.0
7852,83.0,335,390,1.0,0.0
7853,56.0,25,360,3.0,0.0
7854,62.0,0,360,3.0,0.0
7855,76.0,120,240,1.0,0.0
7856,56.0,120,360,3.0,0.0
7857,74.0,240,240,1.0,0.0
7858,62.0,0,360,3.0,0.0
7859,73.0,120,240,1.0,0.0
7860,56.0,120,360,3.0,0.0
7861,71.0,240,240,1.0,0.0
7862,69.0,240,240,1.0,0.0
7863,57.0,240,480,5.0,0.0
7864,71.0,0,240,1.0,0.0
7865,73.0,120,240,1.0,0.0
7866,64.0,120,360,3.0,0.0
7867,61.0,0,360,3.0,0.0
7868,74.0,240,240,1.0,0.0
7869,64.0,0,360,3.0,0.0
7870,61.0,120,360,3.0,0.0
7871,76.0,120,240,1.0,0.0
7872,78.0,240,240,1.0,0.0
7873,80.0,120,240,1.0,0.0
7874,64.0,120,360,3.0,0.0
7875,61.0,0,360,3.0,0.0
7876,59.0,0,480,5.0,0.0
7877,81.0,240,15,1.0,0.0
7878,80.0,240,240,1.0,0.0
7879,64.0,0,360,3.0,0.0
7880,62.0,120,360,3.0,0.0
7881,78.0,120,240,1.0,0.0
7882,76.0,240,240,1.0,0.0
7883,76.0,240,240,1.0,0.0
7884,56.0,0,480,5.0,0.0
7885,74.0,240,240,1.0,0.0
7886,64.0,0,360,3.0,0.0
7887,73.0,120,240,1.0,0.0
7888,62.0,120,360,3.0,0.0
7889,71.0,240,240,1.0,0.0
7890,73.0,120,240,1.0,0.0
7891,57.0,120,360,5.0,0.0
7892,76.0,240,240,2.0,0.0
7893,54.0,120,360,5.0,0.0
7894,69.0,120,240,1.0,0.0
7895,73.0,240,240,2.0,0.0
7896,50.0,120,360,5.0,0.0
7897,71.0,120,240,1.0,0.0
7898,74.0,240,240,2.0,0.0
7899,52.0,120,360,5.0,0.0
7900,68.0,120,240,1.0,0.0
7901,71.0,360,240,2.0,0.0
7902,69.0,70,780,1.0,0.0
7903,45.0,410,360,5.0,0.0
7904,57.0,360,360,5.0,0.0
7905,85.0,240,240,1.0,0.0
7906,86.0,240,240,1.0,0.0
7907,85.0,240,240,1.0,0.0
7908,83.0,240,240,1.0,0.0
7909,54.0,0,480,5.0,0.0
7910,81.0,240,240,1.0,0.0
7911,83.0,240,240,1.0,0.0
7912,81.0,120,240,1.0,0.0
7913,61.0,0,360,3.0,0.0
7914,57.0,120,360,3.0,0.0
7915,80.0,240,240,1.0,0.0
7916,78.0,120,240,1.0,0.0
7917,61.0,0,360,3.0,0.0
7918,57.0,120,360,3.0,0.0
7919,81.0,240,240,1.0,0.0
7920,61.0,120,360,3.0,0.0
7921,57.0,0,360,3.0,0.0
7922,80.0,120,240,1.0,0.0
7923,78.0,240,240,1.0,0.0
7924,77.0,240,240,1.0,0.0
7925,56.0,240,480,5.0,0.0
7926,78.0,0,240,1.0,0.0
7927,80.0,120,240,1.0,0.0
7928,59.0,0,360,3.0,0.0
7929,61.0,120,360,3.0,0.0
7930,77.0,240,240,1.0,0.0
7931,73.0,120,240,1.0,0.0
7932,59.0,0,360,3.0,0.0
7933,61.0,120,360,3.0,0.0
7934,75.0,240,240,1.0,0.0
7935,77.0,120,240,1.0,0.0
7936,61.0,120,360,3.0,0.0
7937,59.0,0,360,3.0,0.0
7938,73.0,240,240,1.0,0.0
7939,78.0,240,240,1.0,0.0
7940,54.0,240,480,5.0,0.0
7941,77.0,0,240,1.0,0.0
7942,57.0,120,360,3.0,0.0
7943,61.0,0,360,3.0,0.0
7944,78.0,120,240,1.0,0.0
7945,80.0,240,240,1.0,0.0
7946,61.0,120,360,3.0,0.0
7947,81.0,120,240,1.0,0.0
7948,57.0,0,360,3.0,0.0
7949,80.0,240,240,1.0,0.0
7950,61.0,0,360,3.0,0.0
7951,57.0,120,360,3.0,0.0
7952,81.0,120,240,1.0,0.0
7953,83.0,240,240,1.0,0.0
7954,85.0,240,240,1.0,0.0
7955,49.0,240,480,5.0,0.0
7956,84.0,0,240,1.0,0.0
7957,61.0,0,360,3.0,0.0
7958,85.0,120,240,1.0,0.0
7959,56.0,120,360,5.0,0.0
7960,84.0,240,240,1.0,0.0
7961,55.0,0,360,5.0,0.0
7962,85.0,120,240,1.0,0.0
7963,61.0,120,360,3.0,0.0
7964,84.0,240,240,1.0,0.0
7965,61.0,120,360,3.0,0.0
7966,54.0,0,360,5.0,0.0
7967,85.0,120,240,1.0,0.0
7968,82.0,240,240,1.0,0.0
7969,86.0,240,240,1.0,0.0
7970,47.0,0,480,5.0,0.0
7971,85.0,240,240,1.0,0.0
7972,54.0,120,360,3.0,0.0
7973,86.0,120,240,1.0,0.0
7974,59.0,0,360,3.0,0.0
7975,85.0,240,240,1.0,0.0
7976,86.0,120,240,1.0,0.0
7977,59.0,120,360,3.0,0.0
7978,54.0,0,360,3.0,0.0
7979,85.0,240,240,1.0,0.0
7980,59.0,120,360,3.0,0.0
7981,86.0,120,240,1.0,0.0
7982,54.0,0,360,3.0,0.0
7983,85.0,240,240,1.0,0.0
7984,47.0,0,480,5.0,0.0
7985,86.0,240,240,1.0,0.0
7986,85.0,240,240,1.0,0.0
7987,56.0,120,360,3.0,0.0
7988,59.0,0,360,3.0,0.0
7989,83.0,120,240,1.0,0.0
7990,81.0,240,240,1.0,0.0
7991,59.0,120,360,3.0,0.0
7992,80.0,120,240,1.0,0.0
7993,56.0,0,360,3.0,0.0
7994,81.0,240,240,1.0,0.0
7995,56.0,0,360,3.0,0.0
7996,59.0,120,360,3.0,0.0
7997,83.0,120,240,1.0,0.0
7998,80.0,240,240,1.0,0.0
7999,81.0,240,240,1.0,0.0
8000,49.0,240,480,5.0,0.0
8001,83.0,0,240,1.0,0.0
8002,85.0,120,240,1.0,0.0
8003,54.0,120,360,3.0,0.0
8004,57.0,0,360,3.0,0.0
8005,78.0,240,240,1.0,0.0
8006,77.0,240,240,1.0,0.0
8007,49.0,240,480,5.0,0.0
8008,78.0,0,240,1.0,0.0
8009,80.0,120,240,1.0,0.0
8010,59.0,120,360,3.0,0.0
8011,56.0,0,360,3.0,0.0
8012,77.0,770,240,1.0,0.0
8013,54.0,240,960,5.0,0.0
8014,78.0,190,780,1.0,0.0
8015,57.0,0,960,3.0,0.0
8016,69.0,480,240,2.0,0.0
8017,81.0,0,240,1.0,0.0
8018,71.0,0,240,2.0,0.0
8019,83.0,320,240,1.0,0.0
8020,45.0,45,90,4.0,0.0
8021,73.0,0,960,2.0,0.0
8022,85.0,240,960,1.0,0.0
8023,49.0,40,90,3.0,0.0
8024,52.0,135,90,3.0,0.0
8025,57.0,420,180,3.0,0.0
8026,57.0,240,240,3.0,0.0
8027,69.0,480,240,2.0,0.0
8028,57.0,0,240,3.0,0.0
8029,81.0,0,240,1.0,0.0
8030,57.0,320,240,3.0,0.0
8031,83.0,0,240,1.0,0.0
8032,71.0,0,240,2.0,0.0
8033,85.0,0,240,1.0,0.0
8034,45.0,45,90,4.0,0.0
8035,73.0,60,240,2.0,0.0
8036,49.0,40,90,3.0,0.0
8037,52.0,75,90,3.0,0.0
8038,57.0,420,180,3.0,0.0
8039,57.0,480,240,3.0,0.0
8040,71.0,0,240,2.0,0.0
8041,83.0,0,240,1.0,0.0
8042,57.0,0,240,3.0,0.0
8043,81.0,480,240,1.0,0.0
8044,69.0,0,240,2.0,0.0
8045,80.0,0,240,1.0,0.0
8046,68.0,320,240,2.0,0.0
8047,57.0,0,240,3.0,0.0
8048,66.0,60,240,2.0,0.0
8049,78.0,0,240,1.0,0.0
8050,38.0,45,90,4.0,0.0
8051,42.0,30,90,3.0,0.0
8052,45.0,85,60,3.0,0.0
8053,50.0,420,180,3.0,0.0
8054,68.0,320,240,2.0,0.0
8055,80.0,0,240,1.0,0.0
8056,50.0,0,240,3.0,0.0
8057,81.0,65,240,1.0,0.0
8058,39.0,45,90,4.0,0.0
8059,69.0,0,240,2.0,0.0
8060,42.0,30,90,3.0,0.0
8061,45.0,85,60,3.0,0.0
8062,51.0,415,180,3.0,0.0
8063,83.0,0,240,1.0,0.0
8064,71.0,0,240,2.0,0.0
8065,51.0,330,240,3.0,0.0
8066,68.0,0,240,2.0,0.0
8067,80.0,65,240,1.0,0.0
8068,40.0,30,90,4.0,0.0
8069,44.0,45,90,3.0,0.0
8070,47.0,75,90,3.0,0.0
8071,52.0,415,180,3.0,0.0
8072,52.0,475,240,3.0,0.0
8073,64.0,0,240,2.0,0.0
8074,76.0,5,240,1.0,0.0
8075,69.0,0,240,2.0,0.0
8076,52.0,480,240,3.0,0.0
8077,81.0,0,240,1.0,0.0
8078,52.0,0,240,3.0,0.0
8079,83.0,320,240,1.0,0.0
8080,71.0,0,240,2.0,0.0
8081,85.0,240,960,1.0,0.0
8082,45.0,45,90,4.0,0.0
8083,73.0,0,960,2.0,0.0
8084,49.0,40,90,3.0,0.0
8085,52.0,140,90,3.0,0.0
8086,57.0,415,180,3.0,0.0
8087,57.0,240,240,3.0,0.0
8088,69.0,0,240,2.0,0.0
8089,57.0,0,240,3.0,0.0
8090,81.0,480,240,1.0,0.0
8091,83.0,320,240,1.0,0.0
8092,71.0,0,240,2.0,0.0
8093,57.0,0,240,3.0,0.0
8094,73.0,60,240,2.0,0.0
8095,85.0,0,240,1.0,0.0
8096,45.0,45,90,4.0,0.0
8097,49.0,40,90,3.0,0.0
8098,52.0,75,90,3.0,0.0
8099,57.0,420,180,3.0,0.0
8100,83.0,480,240,1.0,0.0
8101,57.0,0,240,3.0,0.0
8102,71.0,0,240,2.0,0.0
8103,81.0,0,240,1.0,0.0
8104,69.0,480,240,2.0,0.0
8105,57.0,0,240,3.0,0.0
8106,68.0,0,240,2.0,0.0
8107,80.0,0,240,1.0,0.0
8108,57.0,320,240,3.0,0.0
8109,66.0,0,240,2.0,0.0
8110,78.0,60,240,1.0,0.0
8111,38.0,45,90,4.0,0.0
8112,42.0,30,90,3.0,0.0
8113,45.0,85,60,3.0,0.0
8114,50.0,420,180,3.0,0.0
8115,71.0,0,240,2.0,0.0
8116,50.0,0,240,3.0,0.0
8117,83.0,330,240,1.0,0.0
8118,40.0,30,90,4.0,0.0
8119,80.0,60,240,1.0,0.0
8120,68.0,0,240,2.0,0.0
8121,44.0,45,90,3.0,0.0
8122,47.0,75,90,3.0,0.0
8123,52.0,420,180,3.0,0.0
8124,52.0,1135,240,3.0,0.0
8125,64.0,0,240,2.0,0.0
8126,76.0,5,240,1.0,0.0
8127,45.0,240,960,4.0,0.0
8128,69.0,5,900,2.0,0.0
8129,81.0,55,900,1.0,0.0
8130,69.0,480,240,2.0,0.0
8131,81.0,0,240,1.0,0.0
8132,71.0,320,240,2.0,0.0
8133,83.0,0,240,1.0,0.0
8134,73.0,0,960,2.0,0.0
8135,45.0,45,90,4.0,0.0
8136,85.0,240,960,1.0,0.0
8137,49.0,40,90,3.0,0.0
8138,52.0,135,90,3.0,0.0
8139,57.0,420,180,3.0,0.0
8140,57.0,240,240,3.0,0.0
8141,69.0,480,240,2.0,0.0
8142,57.0,0,240,3.0,0.0
8143,81.0,0,240,1.0,0.0
8144,83.0,0,240,1.0,0.0
8145,57.0,320,240,3.0,0.0
8146,71.0,0,240,2.0,0.0
8147,45.0,45,90,4.0,0.0
8148,85.0,0,240,1.0,0.0
8149,73.0,60,240,2.0,0.0
8150,49.0,40,90,3.0,0.0
8151,52.0,75,90,3.0,0.0
8152,57.0,420,180,3.0,0.0
8153,83.0,480,240,1.0,0.0
8154,71.0,0,240,2.0,0.0
8155,57.0,0,240,3.0,0.0
8156,57.0,0,240,3.0,0.0
8157,69.0,480,240,2.0,0.0
8158,81.0,0,240,1.0,0.0
8159,57.0,0,240,3.0,0.0
8160,80.0,320,240,1.0,0.0
8161,68.0,0,240,2.0,0.0
8162,38.0,45,90,4.0,0.0
8163,78.0,60,240,1.0,0.0
8164,66.0,0,240,2.0,0.0
8165,42.0,30,90,3.0,0.0
8166,45.0,85,60,3.0,0.0
8167,50.0,420,180,3.0,0.0
8168,68.0,0,240,2.0,0.0
8169,50.0,320,240,3.0,0.0
8170,80.0,0,240,1.0,0.0
8171,69.0,65,240,2.0,0.0
8172,39.0,45,90,4.0,0.0
8173,81.0,0,240,1.0,0.0
8174,42.0,30,90,3.0,0.0
8175,45.0,85,60,3.0,0.0
8176,51.0,415,180,3.0,0.0
8177,51.0,330,240,3.0,0.0
8178,83.0,0,240,1.0,0.0
8179,71.0,0,240,2.0,0.0
8180,80.0,0,240,1.0,0.0
8181,40.0,30,90,4.0,0.0
8182,68.0,65,240,2.0,0.0
8183,44.0,45,90,3.0,0.0
8184,47.0,75,90,3.0,0.0
8185,52.0,415,180,3.0,0.0
8186,64.0,5,240,2.0,0.0
8187,52.0,475,240,3.0,0.0
8188,76.0,0,240,1.0,0.0
8189,81.0,0,240,1.0,0.0
8190,52.0,0,240,3.0,0.0
8191,69.0,480,240,2.0,0.0
8192,52.0,320,240,3.0,0.0
8193,71.0,0,240,2.0,0.0
8194,83.0,0,240,1.0,0.0
8195,85.0,0,960,1.0,0.0
8196,45.0,45,90,4.0,0.0
8197,73.0,240,960,2.0,0.0
8198,49.0,40,90,3.0,0.0
8199,52.0,140,90,3.0,0.0
8200,57.0,415,180,3.0,0.0
8201,57.0,240,240,3.0,0.0
8202,57.0,480,240,3.0,0.0
8203,81.0,0,240,1.0,0.0
8204,69.0,0,240,2.0,0.0
8205,57.0,0,240,3.0,0.0
8206,71.0,320,240,2.0,0.0
8207,83.0,0,240,1.0,0.0
8208,85.0,0,240,1.0,0.0
8209,73.0,60,240,2.0,0.0
8210,45.0,45,90,4.0,0.0
8211,49.0,40,90,3.0,0.0
8212,52.0,75,90,3.0,0.0
8213,57.0,420,180,3.0,0.0
8214,57.0,0,240,3.0,0.0
8215,71.0,0,240,2.0,0.0
8216,83.0,480,240,1.0,0.0
8217,69.0,480,240,2.0,0.0
8218,57.0,0,240,3.0,0.0
8219,81.0,0,240,1.0,0.0
8220,80.0,0,240,1.0,0.0
8221,68.0,320,240,2.0,0.0
8222,57.0,0,240,3.0,0.0
8223,66.0,60,240,2.0,0.0
8224,78.0,0,240,1.0,0.0
8225,38.0,45,90,4.0,0.0
8226,42.0,30,90,3.0,0.0
8227,45.0,85,60,3.0,0.0
8228,50.0,420,180,3.0,0.0
8229,71.0,0,240,2.0,0.0
8230,83.0,0,240,1.0,0.0
8231,50.0,330,240,3.0,0.0
8232,68.0,0,240,2.0,0.0
8233,80.0,60,240,1.0,0.0
8234,40.0,30,90,4.0,0.0
8235,44.0,45,90,3.0,0.0
8236,47.0,75,90,3.0,0.0
8237,52.0,420,180,3.0,0.0
8238,52.0,1135,240,3.0,0.0
8239,64.0,0,240,2.0,0.0
8240,76.0,5,240,1.0,0.0
8241,81.0,55,900,1.0,0.0
8242,69.0,5,900,2.0,0.0
8243,45.0,240,960,4.0,0.0
8244,71.0,240,240,1.0,0.0
8245,69.0,240,240,1.0,0.0
8246,68.0,240,240,1.0,0.0
8247,69.0,480,240,1.0,0.0
8248,72.0,0,480,1.0,0.0
8249,57.0,360,480,5.0,0.0
8250,60.0,360,360,3.0,0.0
8251,64.0,0,360,3.0,0.0
8252,74.0,120,240,1.0,0.0
8253,60.0,120,360,3.0,0.0
8254,64.0,0,360,3.0,0.0
8255,72.0,240,240,1.0,0.0
8256,71.0,120,240,1.0,0.0
8257,60.0,120,360,3.0,0.0
8258,64.0,0,360,3.0,0.0
8259,72.0,480,240,1.0,0.0
8260,57.0,0,480,5.0,0.0
8261,76.0,360,480,1.0,0.0
8262,64.0,360,360,3.0,0.0
8263,60.0,0,360,3.0,0.0
8264,77.0,120,240,1.0,0.0
8265,64.0,120,360,3.0,0.0
8266,60.0,0,360,3.0,0.0
8267,76.0,240,240,1.0,0.0
8268,75.0,120,240,1.0,0.0
8269,64.0,120,360,3.0,0.0
8270,60.0,0,360,3.0,0.0
8271,76.0,240,240,1.0,0.0
8272,83.0,240,240,1.0,0.0
8273,57.0,240,480,5.0,0.0
8274,81.0,0,240,1.0,0.0
8275,60.0,120,360,3.0,0.0
8276,64.0,0,360,3.0,0.0
8277,80.0,120,240,1.0,0.0
8278,81.0,240,240,1.0,0.0
8279,57.0,240,480,5.0,0.0
8280,83.0,240,240,1.0,0.0
8281,81.0,0,240,1.0,0.0
8282,80.0,120,240,1.0,0.0
8283,60.0,120,360,3.0,0.0
8284,64.0,0,360,3.0,0.0
8285,81.0,480,240,1.0,0.0
8286,84.0,70,780,1.0,0.0
8287,57.0,290,480,5.0,0.0
8288,64.0,360,360,3.0,0.0
8289,60.0,0,360,3.0,0.0
8290,81.0,120,240,1.0,0.0
8291,60.0,360,360,3.0,0.0
8292,64.0,0,360,3.0,0.0
8293,64.0,200,360,3.0,0.0
8294,84.0,120,240,1.0,0.0
8295,60.0,0,360,3.0,0.0
8296,79.0,45,90,3.0,0.0
8297,52.0,240,480,5.0,0.0
8298,81.0,115,90,3.0,0.0
8299,83.0,240,150,1.0,0.0
8300,81.0,0,240,1.0,0.0
8301,78.0,120,240,2.0,0.0
8302,59.0,0,360,3.0,0.0
8303,64.0,360,360,3.0,0.0
8304,76.0,0,240,2.0,0.0
8305,79.0,120,240,1.0,0.0
8306,59.0,360,360,3.0,0.0
8307,64.0,0,360,3.0,0.0
8308,81.0,0,240,1.0,0.0
8309,78.0,120,240,2.0,0.0
8310,64.0,200,360,3.0,0.0
8311,59.0,0,360,3.0,0.0
8312,52.0,240,480,5.0,0.0
8313,79.0,40,90,3.0,0.0
8314,81.0,120,90,3.0,0.0
8315,83.0,240,150,1.0,0.0
8316,81.0,120,240,1.0,0.0
8317,64.0,0,360,3.0,0.0
8318,59.0,360,360,3.0,0.0
8319,78.0,0,240,2.0,0.0
8320,76.0,120,240,2.0,0.0
8321,79.0,0,240,1.0,0.0
8322,64.0,0,360,3.0,0.0
8323,59.0,360,360,3.0,0.0
8324,59.0,0,360,3.0,0.0
8325,64.0,200,360,3.0,0.0
8326,78.0,120,240,2.0,0.0
8327,81.0,0,240,1.0,0.0
8328,52.0,240,480,5.0,0.0
8329,79.0,30,90,3.0,0.0
8330,81.0,130,60,3.0,0.0
8331,83.0,240,150,1.0,0.0
8332,78.0,120,240,2.0,0.0
8333,81.0,0,240,1.0,0.0
8334,59.0,360,360,3.0,0.0
8335,64.0,0,360,3.0,0.0
8336,79.0,240,240,1.0,0.0
8337,47.0,240,480,5.0,0.0
8338,76.0,0,240,2.0,0.0
8339,59.0,1025,360,3.0,0.0
8340,75.0,0,240,2.0,0.0
8341,78.0,120,240,1.0,0.0
8342,76.0,55,900,1.0,0.0
8343,52.0,240,960,5.0,0.0
8344,71.0,240,240,1.0,0.0
8345,69.0,240,240,1.0,0.0
8346,68.0,240,240,1.0,0.0
8347,69.0,480,240,1.0,0.0
8348,57.0,0,480,5.0,0.0
8349,72.0,360,480,1.0,0.0
8350,64.0,0,360,3.0,0.0
8351,60.0,360,360,3.0,0.0
8352,64.0,120,360,3.0,0.0
8353,74.0,120,240,1.0,0.0
8354,60.0,0,360,3.0,0.0
8355,72.0,240,240,1.0,0.0
8356,71.0,120,240,1.0,0.0
8357,64.0,120,360,3.0,0.0
8358,60.0,0,360,3.0,0.0
8359,72.0,480,240,1.0,0.0
8360,57.0,0,480,5.0,0.0
8361,76.0,360,480,1.0,0.0
8362,60.0,360,360,3.0,0.0
8363,64.0,0,360,3.0,0.0
8364,64.0,120,360,3.0,0.0
8365,77.0,120,240,1.0,0.0
8366,60.0,0,360,3.0,0.0
8367,76.0,240,240,1.0,0.0
8368,60.0,120,360,3.0,0.0
8369,75.0,120,240,1.0,0.0
8370,64.0,0,360,3.0,0.0
8371,76.0,240,240,1.0,0.0
8372,83.0,240,240,1.0,0.0
8373,57.0,0,480,5.0,0.0
8374,81.0,240,240,1.0,0.0
8375,80.0,120,240,1.0,0.0
8376,60.0,120,360,3.0,0.0
8377,64.0,0,360,3.0,0.0
8378,81.0,240,240,1.0,0.0
8379,57.0,0,480,5.0,0.0
8380,83.0,240,240,1.0,0.0
8381,81.0,240,240,1.0,0.0
8382,64.0,120,360,3.0,0.0
8383,60.0,0,360,3.0,0.0
8384,80.0,120,240,1.0,0.0
8385,81.0,480,240,1.0,0.0
8386,57.0,290,480,5.0,0.0
8387,84.0,70,780,1.0,0.0
8388,60.0,0,360,3.0,0.0
8389,64.0,360,360,3.0,0.0
8390,81.0,120,240,1.0,0.0
8391,64.0,0,360,3.0,0.0
8392,60.0,360,360,3.0,0.0
8393,64.0,200,360,3.0,0.0
8394,84.0,120,240,1.0,0.0
8395,60.0,0,360,3.0,0.0
8396,79.0,45,90,3.0,0.0
8397,52.0,240,480,5.0,0.0
8398,81.0,115,90,3.0,0.0
8399,83.0,240,150,1.0,0.0
8400,81.0,0,240,1.0,0.0
8401,78.0,120,240,2.0,0.0
8402,59.0,0,360,3.0,0.0
8403,64.0,360,360,3.0,0.0
8404,64.0,0,360,3.0,0.0
8405,79.0,0,240,1.0,0.0
8406,59.0,360,360,3.0,0.0
8407,76.0,120,240,2.0,0.0
8408,64.0,200,360,3.0,0.0
8409,81.0,0,240,1.0,0.0
8410,59.0,0,360,3.0,0.0
8411,78.0,120,240,2.0,0.0
8412,52.0,240,480,5.0,0.0
8413,79.0,40,90,3.0,0.0
8414,81.0,120,90,3.0,0.0
8415,83.0,240,150,1.0,0.0
8416,64.0,0,360,3.0,0.0
8417,59.0,360,360,3.0,0.0
8418,78.0,120,240,2.0,0.0
8419,81.0,0,240,1.0,0.0
8420,59.0,360,360,3.0,0.0
8421,79.0,0,240,1.0,0.0
8422,76.0,120,240,2.0,0.0
8423,64.0,0,360,3.0,0.0
8424,81.0,120,240,1.0,0.0
8425,78.0,0,240,2.0,0.0
8426,64.0,200,360,3.0,0.0
8427,59.0,0,360,3.0,0.0
8428,79.0,30,90,3.0,0.0
8429,52.0,240,480,5.0,0.0
8430,81.0,130,60,3.0,0.0
8431,83.0,240,150,1.0,0.0
8432,59.0,360,360,3.0,0.0
8433,81.0,120,240,1.0,0.0
8434,78.0,0,240,2.0,0.0
8435,64.0,0,360,3.0,0.0
8436,79.0,0,240,1.0,0.0
8437,47.0,240,480,5.0,0.0
8438,76.0,240,240,2.0,0.0
8439,59.0,1025,360,3.0,0.0
8440,78.0,0,240,1.0,0.0
8441,75.0,120,240,2.0,0.0
8442,52.0,240,960,5.0,0.0
8443,76.0,55,900,1.0,0.0
8444,72.0,0,240,2.0,0.0
8445,76.0,480,240,1.0,0.0
8446,74.0,0,240,2.0,0.0
8447,77.0,480,240,1.0,0.0
8448,48.0,240,480,5.0,0.0
8449,76.0,240,240,2.0,0.0
8450,79.0,0,240,1.0,0.0
8451,79.0,120,240,1.0,0.0
8452,60.0,360,360,3.0,0.0
8453,76.0,0,240,2.0,0.0
8454,52.0,0,480,5.0,0.0
8455,81.0,240,240,1.0,0.0
8456,79.0,240,240,1.0,0.0
8457,64.0,120,360,3.0,0.0
8458,77.0,120,240,1.0,0.0
8459,76.0,480,240,1.0,0.0
8460,71.0,290,480,2.0,0.0
8461,74.0,300,900,1.0,0.0
8462,55.0,130,780,5.0,0.0
8463,67.0,0,420,2.0,0.0
8464,72.0,0,240,2.0,0.0
8465,76.0,480,240,1.0,0.0
8466,74.0,0,240,2.0,0.0
8467,77.0,480,240,1.0,0.0
8468,76.0,0,240,2.0,0.0
8469,79.0,145,240,1.0,0.0
8470,48.0,335,390,5.0,0.0
8471,79.0,120,240,1.0,0.0
8472,76.0,0,240,2.0,0.0
8473,60.0,360,360,3.0,0.0
8474,81.0,145,240,1.0,0.0
8475,52.0,95,390,5.0,0.0
8476,79.0,240,240,1.0,0.0
8477,64.0,120,360,3.0,0.0
8478,77.0,120,240,1.0,0.0
8479,76.0,480,240,1.0,0.0
8480,74.0,295,900,1.0,0.0
8481,71.0,290,480,2.0,0.0
8482,55.0,130,780,5.0,0.0
8483,67.0,5,420,2.0,0.0
8484,72.0,0,240,1.0,0.0
8485,69.0,480,240,2.0,0.0
8486,71.0,480,240,2.0,0.0
8487,74.0,0,240,1.0,0.0
8488,76.0,240,240,1.0,0.0
8489,45.0,240,480,5.0,0.0
8490,72.0,0,240,2.0,0.0
8491,76.0,0,240,1.0,0.0
8492,57.0,360,360,3.0,0.0
8493,72.0,120,240,2.0,0.0
8494,48.0,240,480,5.0,0.0
8495,77.0,240,240,1.0,0.0
8496,76.0,0,240,1.0,0.0
8497,74.0,120,240,1.0,0.0
8498,60.0,120,360,3.0,0.0
8499,72.0,480,240,1.0,0.0
8500,71.0,0,900,1.0,0.0
8501,68.0,290,480,2.0,0.0
8502,52.0,135,780,5.0,0.0
8503,64.0,295,420,2.0,0.0
8504,69.0,480,240,2.0,0.0
8505,72.0,0,240,1.0,0.0
8506,71.0,480,240,2.0,0.0
8507,74.0,0,240,1.0,0.0
8508,72.0,0,240,2.0,0.0
8509,45.0,335,390,5.0,0.0
8510,76.0,145,240,1.0,0.0
8511,57.0,360,360,3.0,0.0
8512,72.0,0,240,2.0,0.0
8513,76.0,120,240,1.0,0.0
8514,77.0,145,240,1.0,0.0
8515,48.0,95,390,5.0,0.0
8516,76.0,240,240,1.0,0.0
8517,60.0,120,360,3.0,0.0
8518,74.0,120,240,1.0,0.0
8519,72.0,480,240,1.0,0.0
8520,52.0,130,780,5.0,0.0
8521,68.0,290,480,2.0,0.0
8522,71.0,300,900,1.0,0.0
8523,64.0,0,420,2.0,0.0
8524,71.0,240,240,1.0,0.0
8525,69.0,240,240,1.0,0.0
8526,68.0,240,240,1.0,0.0
8527,69.0,480,240,1.0,0.0
8528,57.0,360,480,5.0,0.0
8529,72.0,0,480,1.0,0.0
8530,64.0,0,360,3.0,0.0
8531,60.0,360,360,3.0,0.0
8532,74.0,120,240,1.0,0.0
8533,64.0,0,360,3.0,0.0
8534,60.0,120,360,3.0,0.0
8535,72.0,240,240,1.0,0.0
8536,64.0,120,360,3.0,0.0
8537,60.0,0,360,3.0,0.0
8538,71.0,120,240,1.0,0.0
8539,72.0,480,240,1.0,0.0
8540,57.0,0,480,5.0,0.0
8541,76.0,360,480,1.0,0.0
8542,60.0,0,360,3.0,0.0
8543,64.0,360,360,3.0,0.0
8544,64.0,0,360,3.0,0.0
8545,77.0,120,240,1.0,0.0
8546,60.0,120,360,3.0,0.0
8547,76.0,240,240,1.0,0.0
8548,64.0,0,360,3.0,0.0
8549,60.0,120,360,3.0,0.0
8550,75.0,120,240,1.0,0.0
8551,76.0,240,240,1.0,0.0
8552,83.0,240,240,1.0,0.0
8553,57.0,240,480,5.0,0.0
8554,81.0,0,240,1.0,0.0
8555,60.0,0,360,3.0,0.0
8556,64.0,120,360,3.0,0.0
8557,80.0,120,240,1.0,0.0
8558,81.0,240,240,1.0,0.0
8559,83.0,240,240,1.0,0.0
8560,57.0,240,480,3.0,0.0
8561,81.0,0,240,1.0,0.0
8562,80.0,120,240,1.0,0.0
8563,60.0,120,360,3.0,0.0
8564,64.0,0,360,3.0,0.0
8565,81.0,480,240,1.0,0.0
8566,84.0,70,780,1.0,0.0
8567,53.0,290,480,5.0,0.0
8568,57.0,0,360,3.0,0.0
8569,63.0,360,360,3.0,0.0
8570,63.0,360,360,3.0,0.0
8571,57.0,0,360,3.0,0.0
8572,81.0,120,240,1.0,0.0
8573,57.0,0,360,3.0,0.0
8574,63.0,360,360,3.0,0.0
8575,83.0,120,240,1.0,0.0
8576,52.0,240,480,5.0,0.0
8577,84.0,240,240,1.0,0.0
8578,57.0,360,360,3.0,0.0
8579,64.0,0,360,3.0,0.0
8580,83.0,120,240,1.0,0.0
8581,50.0,240,480,5.0,0.0
8582,81.0,240,240,1.0,0.0
8583,59.0,360,360,3.0,0.0
8584,53.0,0,360,3.0,0.0
8585,80.0,120,240,1.0,0.0
8586,48.0,240,480,5.0,0.0
8587,81.0,240,240,1.0,0.0
8588,52.0,360,360,3.0,0.0
8589,76.0,120,240,1.0,0.0
8590,57.0,0,360,3.0,0.0
8591,50.0,240,480,5.0,0.0
8592,77.0,240,240,1.0,0.0
8593,59.0,0,360,3.0,0.0
8594,74.0,120,240,1.0,0.0
8595,53.0,480,360,3.0,0.0
8596,57.0,480,360,4.0,0.0
8597,72.0,120,960,1.0,0.0
8598,52.0,0,360,5.0,0.0
8599,52.0,0,360,5.0,0.0
8600,57.0,120,360,4.0,0.0
8601,52.0,120,360,5.0,0.0
8602,71.0,120,120,1.0,0.0
8603,56.0,0,360,4.0,0.0
8604,72.0,120,120,1.0,0.0
8605,71.0,0,120,1.0,0.0
8606,72.0,80,120,1.0,0.0
8607,71.0,80,90,1.0,0.0
8608,56.0,0,360,4.0,0.0
8609,52.0,120,360,5.0,0.0
8610,72.0,80,90,1.0,0.0
8611,71.0,120,90,1.0,0.0
8612,69.0,0,120,1.0,0.0
8613,71.0,905,120,1.0,0.0
8614,69.0,55,900,1.0,0.0
8615,57.0,240,960,4.0,0.0
8616,45.0,0,960,5.0,0.0
8617,76.0,0,240,1.0,0.0
8618,72.0,480,240,2.0,0.0
8619,77.0,480,240,1.0,0.0
8620,74.0,0,240,2.0,0.0
8621,48.0,240,480,5.0,0.0
8622,79.0,240,240,1.0,0.0
8623,76.0,0,240,2.0,0.0
8624,79.0,0,240,1.0,0.0
8625,76.0,120,240,2.0,0.0
8626,60.0,360,360,3.0,0.0
8627,81.0,240,240,1.0,0.0
8628,52.0,0,480,5.0,0.0
8629,79.0,240,240,1.0,0.0
8630,77.0,120,240,1.0,0.0
8631,64.0,120,360,3.0,0.0
8632,76.0,480,240,1.0,0.0
8633,71.0,290,480,2.0,0.0
8634,55.0,130,780,5.0,0.0
8635,74.0,300,900,1.0,0.0
8636,67.0,0,420,2.0,0.0
8637,76.0,0,240,1.0,0.0
8638,72.0,480,240,2.0,0.0
8639,77.0,0,240,1.0,0.0
8640,74.0,480,240,2.0,0.0
8641,76.0,0,240,2.0,0.0
8642,79.0,145,240,1.0,0.0
8643,48.0,335,390,5.0,0.0
8644,60.0,360,360,3.0,0.0
8645,79.0,0,240,1.0,0.0
8646,76.0,120,240,2.0,0.0
8647,81.0,145,240,1.0,0.0
8648,52.0,95,390,5.0,0.0
8649,79.0,240,240,1.0,0.0
8650,64.0,120,360,3.0,0.0
8651,77.0,120,240,1.0,0.0
8652,76.0,480,240,1.0,0.0
8653,55.0,130,780,5.0,0.0
8654,71.0,290,480,2.0,0.0
8655,74.0,295,900,1.0,0.0
8656,67.0,5,420,2.0,0.0
8657,72.0,480,240,1.0,0.0
8658,69.0,0,240,2.0,0.0
8659,74.0,0,240,1.0,0.0
8660,71.0,480,240,2.0,0.0
8661,76.0,240,240,1.0,0.0
8662,45.0,240,480,5.0,0.0
8663,72.0,0,240,2.0,0.0
8664,57.0,360,360,3.0,0.0
8665,72.0,0,240,2.0,0.0
8666,76.0,120,240,1.0,0.0
8667,48.0,240,480,5.0,0.0
8668,77.0,240,240,1.0,0.0
8669,76.0,0,240,1.0,0.0
8670,74.0,120,240,1.0,0.0
8671,60.0,120,360,3.0,0.0
8672,72.0,480,240,1.0,0.0
8673,68.0,290,480,2.0,0.0
8674,52.0,135,780,5.0,0.0
8675,71.0,295,900,1.0,0.0
8676,64.0,0,420,2.0,0.0
8677,69.0,0,240,2.0,0.0
8678,72.0,480,240,1.0,0.0
8679,71.0,0,240,2.0,0.0
8680,74.0,480,240,1.0,0.0
8681,72.0,145,240,2.0,0.0
8682,45.0,335,390,5.0,0.0
8683,76.0,0,240,1.0,0.0
8684,76.0,120,240,1.0,0.0
8685,72.0,0,240,2.0,0.0
8686,57.0,360,360,3.0,0.0
8687,48.0,95,390,5.0,0.0
8688,77.0,145,240,1.0,0.0
8689,76.0,240,240,1.0,0.0
8690,74.0,120,240,1.0,0.0
8691,60.0,120,360,3.0,0.0
8692,72.0,480,240,1.0,0.0
8693,68.0,290,480,2.0,0.0
8694,52.0,130,780,5.0,0.0
8695,71.0,0,900,1.0,0.0
8696,64.0,300,420,2.0,0.0
8697,71.0,240,240,1.0,0.0
8698,69.0,240,240,1.0,0.0
8699,68.0,240,240,1.0,0.0
8700,69.0,480,240,1.0,0.0
8701,72.0,360,480,1.0,0.0
8702,57.0,0,480,5.0,0.0
8703,64.0,0,360,3.0,0.0
8704,60.0,360,360,3.0,0.0
8705,60.0,120,360,3.0,0.0
8706,64.0,0,360,3.0,0.0
8707,74.0,120,240,1.0,0.0
8708,72.0,240,240,1.0,0.0
8709,71.0,120,240,1.0,0.0
8710,60.0,0,360,3.0,0.0
8711,64.0,120,360,3.0,0.0
8712,72.0,480,240,1.0,0.0
8713,57.0,0,480,5.0,0.0
8714,76.0,360,480,1.0,0.0
8715,64.0,360,360,3.0,0.0
8716,60.0,0,360,3.0,0.0
8717,60.0,120,360,3.0,0.0
8718,77.0,120,240,1.0,0.0
8719,64.0,0,360,3.0,0.0
8720,76.0,240,240,1.0,0.0
8721,75.0,120,240,1.0,0.0
8722,60.0,120,360,3.0,0.0
8723,64.0,0,360,3.0,0.0
8724,76.0,240,240,1.0,0.0
8725,57.0,0,480,5.0,0.0
8726,83.0,240,240,1.0,0.0
8727,81.0,240,240,1.0,0.0
8728,80.0,120,240,1.0,0.0
8729,60.0,120,360,3.0,0.0
8730,64.0,0,360,3.0,0.0
8731,81.0,240,240,1.0,0.0
8732,57.0,0,480,3.0,0.0
8733,83.0,240,240,1.0,0.0
8734,81.0,240,240,1.0,0.0
8735,60.0,120,360,3.0,0.0
8736,64.0,0,360,3.0,0.0
8737,80.0,120,240,1.0,0.0
8738,81.0,480,240,1.0,0.0
8739,53.0,290,480,5.0,0.0
8740,84.0,70,780,1.0,0.0
8741,63.0,360,360,3.0,0.0
8742,57.0,0,360,3.0,0.0
8743,81.0,120,240,1.0,0.0
8744,57.0,360,360,3.0,0.0
8745,63.0,0,360,3.0,0.0
8746,83.0,120,240,1.0,0.0
8747,57.0,0,360,3.0,0.0
8748,63.0,360,360,3.0,0.0
8749,52.0,240,480,5.0,0.0
8750,84.0,240,240,1.0,0.0
8751,57.0,360,360,3.0,0.0
8752,83.0,120,240,1.0,0.0
8753,64.0,0,360,3.0,0.0
8754,81.0,240,240,1.0,0.0
8755,50.0,240,480,5.0,0.0
8756,53.0,360,360,3.0,0.0
8757,59.0,0,360,3.0,0.0
8758,80.0,120,240,1.0,0.0
8759,81.0,240,240,1.0,0.0
8760,48.0,240,480,5.0,0.0
8761,76.0,120,240,1.0,0.0
8762,57.0,0,360,3.0,0.0
8763,52.0,360,360,3.0,0.0
8764,50.0,240,480,5.0,0.0
8765,77.0,240,240,1.0,0.0
8766,74.0,120,240,1.0,0.0
8767,59.0,0,360,3.0,0.0
8768,53.0,480,360,3.0,0.0
8769,52.0,0,360,5.0,0.0
8770,72.0,120,960,1.0,0.0
8771,57.0,480,360,4.0,0.0
8772,52.0,0,360,5.0,0.0
8773,57.0,120,360,4.0,0.0
8774,71.0,120,120,1.0,0.0
8775,52.0,120,360,5.0,0.0
8776,56.0,0,360,4.0,0.0
8777,72.0,120,120,1.0,0.0
8778,71.0,0,120,1.0,0.0
8779,72.0,80,120,1.0,0.0
8780,56.0,0,360,4.0,0.0
8781,71.0,80,90,1.0,0.0
8782,52.0,0,360,5.0,0.0
8783,72.0,80,90,1.0,0.0
8784,71.0,120,90,1.0,0.0
8785,69.0,120,120,1.0,0.0
8786,71.0,905,120,1.0,0.0
8787,45.0,0,960,5.0,0.0
8788,69.0,55,900,1.0,0.0
8789,57.0,240,960,4.0,0.0
8790,69.0,240,240,1.0,0.0
8791,81.0,240,240,2.0,0.0
8792,71.0,240,240,1.0,0.0
8793,83.0,1,240,2.0,0.0
8794,73.0,79,15,1.0,0.0
8795,45.0,65,90,4.0,0.0
8796,49.0,60,90,3.0,0.0
8797,52.0,155,90,3.0,0.0
8798,57.0,360,180,3.0,0.0
8799,85.0,475,480,2.0,0.0
8800,57.0,5,240,3.0,0.0
8801,57.0,240,240,3.0,0.0
8802,69.0,0,240,1.0,0.0
8803,81.0,240,240,2.0,0.0
8804,71.0,240,240,1.0,0.0
8805,57.0,0,240,3.0,0.0
8806,83.0,80,240,2.0,0.0
8807,45.0,65,90,4.0,0.0
8808,73.0,120,240,1.0,0.0
8809,49.0,60,90,3.0,0.0
8810,52.0,35,90,3.0,0.0
8811,57.0,120,180,3.0,0.0
8812,85.0,240,240,2.0,0.0
8813,71.0,0,240,1.0,0.0
8814,57.0,240,240,3.0,0.0
8815,83.0,240,240,2.0,0.0
8816,69.0,0,240,1.0,0.0
8817,57.0,240,240,3.0,0.0
8818,81.0,240,240,2.0,0.0
8819,68.0,240,240,1.0,0.0
8820,57.0,0,240,3.0,0.0
8821,80.0,80,240,2.0,0.0
8822,66.0,120,240,1.0,0.0
8823,38.0,65,90,4.0,0.0
8824,42.0,50,90,3.0,0.0
8825,45.0,45,60,3.0,0.0
8826,50.0,120,180,3.0,0.0
8827,78.0,240,240,2.0,0.0
8828,50.0,240,240,3.0,0.0
8829,68.0,0,240,1.0,0.0
8830,80.0,80,240,2.0,0.0
8831,69.0,125,240,1.0,0.0
8832,39.0,65,90,4.0,0.0
8833,42.0,50,90,3.0,0.0
8834,45.0,45,60,3.0,0.0
8835,51.0,115,180,3.0,0.0
8836,81.0,240,240,2.0,0.0
8837,71.0,240,240,1.0,0.0
8838,51.0,0,240,3.0,0.0
8839,83.0,90,240,2.0,0.0
8840,68.0,125,240,1.0,0.0
8841,40.0,50,90,4.0,0.0
8842,44.0,65,90,3.0,0.0
8843,47.0,35,90,3.0,0.0
8844,52.0,115,180,3.0,0.0
8845,80.0,240,240,2.0,0.0
8846,64.0,5,240,1.0,0.0
8847,52.0,235,240,3.0,0.0
8848,76.0,240,240,2.0,0.0
8849,69.0,0,240,1.0,0.0
8850,52.0,240,240,3.0,0.0
8851,81.0,240,240,2.0,0.0
8852,71.0,240,240,1.0,0.0
8853,52.0,0,240,3.0,0.0
8854,83.0,80,240,2.0,0.0
8855,45.0,65,90,4.0,0.0
8856,73.0,240,480,1.0,0.0
8857,49.0,60,90,3.0,0.0
8858,52.0,160,90,3.0,0.0
8859,57.0,115,180,3.0,0.0
8860,85.0,480,480,2.0,0.0
8861,57.0,0,240,3.0,0.0
8862,69.0,0,240,1.0,0.0
8863,57.0,240,240,3.0,0.0
8864,81.0,240,240,2.0,0.0
8865,71.0,0,240,1.0,0.0
8866,57.0,240,240,3.0,0.0
8867,83.0,80,240,2.0,0.0
8868,73.0,120,240,1.0,0.0
8869,45.0,65,90,4.0,0.0
8870,49.0,60,90,3.0,0.0
8871,52.0,35,90,3.0,0.0
8872,57.0,120,180,3.0,0.0
8873,85.0,240,240,2.0,0.0
8874,71.0,240,240,1.0,0.0
8875,57.0,0,240,3.0,0.0
8876,83.0,240,240,2.0,0.0
8877,69.0,240,240,1.0,0.0
8878,57.0,0,240,3.0,0.0
8879,81.0,240,240,2.0,0.0
8880,57.0,0,240,3.0,0.0
8881,68.0,240,240,1.0,0.0
8882,80.0,80,240,2.0,0.0
8883,38.0,65,90,4.0,0.0
8884,66.0,120,240,1.0,0.0
8885,42.0,50,90,3.0,0.0
8886,45.0,45,60,3.0,0.0
8887,50.0,120,180,3.0,0.0
8888,78.0,240,240,2.0,0.0
8889,71.0,240,240,1.0,0.0
8890,50.0,0,240,3.0,0.0
8891,83.0,90,240,2.0,0.0
8892,40.0,50,90,4.0,0.0
8893,68.0,120,240,1.0,0.0
8894,44.0,65,90,3.0,0.0
8895,47.0,35,90,3.0,0.0
8896,52.0,120,180,3.0,0.0
8897,80.0,165,240,2.0,0.0
8898,52.0,75,180,3.0,0.0
8899,64.0,240,240,1.0,0.0
8900,76.0,385,240,2.0,0.0
8901,69.0,295,900,1.0,0.0
8902,45.0,500,390,4.0,0.0
8903,81.0,20,900,2.0,0.0
8904,69.0,240,240,1.0,0.0
8905,81.0,240,240,2.0,0.0
8906,71.0,240,240,1.0,0.0
8907,83.0,1,240,2.0,0.0
8908,45.0,65,90,4.0,0.0
8909,73.0,79,15,1.0,0.0
8910,49.0,60,90,3.0,0.0
8911,52.0,155,90,3.0,0.0
8912,57.0,360,180,3.0,0.0
8913,85.0,475,480,2.0,0.0
8914,57.0,5,240,3.0,0.0
8915,69.0,0,240,1.0,0.0
8916,57.0,240,240,3.0,0.0
8917,81.0,240,240,2.0,0.0
8918,57.0,0,240,3.0,0.0
8919,71.0,240,240,1.0,0.0
8920,83.0,80,240,2.0,0.0
8921,73.0,120,240,1.0,0.0
8922,45.0,65,90,4.0,0.0
8923,49.0,60,90,3.0,0.0
8924,52.0,35,90,3.0,0.0
8925,57.0,120,180,3.0,0.0
8926,85.0,240,240,2.0,0.0
8927,71.0,0,240,1.0,0.0
8928,57.0,240,240,3.0,0.0
8929,83.0,240,240,2.0,0.0
8930,69.0,240,240,1.0,0.0
8931,57.0,0,240,3.0,0.0
8932,81.0,240,240,2.0,0.0
8933,57.0,240,240,3.0,0.0
8934,68.0,0,240,1.0,0.0
8935,80.0,80,240,2.0,0.0
8936,66.0,120,240,1.0,0.0
8937,38.0,65,90,4.0,0.0
8938,42.0,50,90,3.0,0.0
8939,45.0,45,60,3.0,0.0
8940,50.0,120,180,3.0,0.0
8941,78.0,240,240,2.0,0.0
8942,50.0,0,240,3.0,0.0
8943,68.0,240,240,1.0,0.0
8944,80.0,80,240,2.0,0.0
8945,39.0,65,90,4.0,0.0
8946,69.0,125,240,1.0,0.0
8947,42.0,50,90,3.0,0.0
8948,45.0,45,60,3.0,0.0
8949,51.0,115,180,3.0,0.0
8950,81.0,240,240,2.0,0.0
8951,71.0,240,240,1.0,0.0
8952,51.0,0,240,3.0,0.0
8953,83.0,90,240,2.0,0.0
8954,68.0,125,240,1.0,0.0
8955,40.0,50,90,4.0,0.0
8956,44.0,65,90,3.0,0.0
8957,47.0,35,90,3.0,0.0
8958,52.0,115,180,3.0,0.0
8959,80.0,240,240,2.0,0.0
8960,64.0,5,240,1.0,0.0
8961,52.0,235,240,3.0,0.0
8962,76.0,240,240,2.0,0.0
8963,69.0,0,240,1.0,0.0
8964,52.0,240,240,3.0,0.0
8965,81.0,240,240,2.0,0.0
8966,52.0,0,240,3.0,0.0
8967,71.0,240,240,1.0,0.0
8968,83.0,80,240,2.0,0.0
8969,45.0,65,90,4.0,0.0
8970,73.0,240,480,1.0,0.0
8971,49.0,60,90,3.0,0.0
8972,52.0,160,90,3.0,0.0
8973,57.0,115,180,3.0,0.0
8974,85.0,480,480,2.0,0.0
8975,57.0,0,240,3.0,0.0
8976,69.0,240,240,1.0,0.0
8977,57.0,0,240,3.0,0.0
8978,81.0,240,240,2.0,0.0
8979,57.0,0,240,3.0,0.0
8980,71.0,240,240,1.0,0.0
8981,83.0,80,240,2.0,0.0
8982,45.0,65,90,4.0,0.0
8983,73.0,120,240,1.0,0.0
8984,49.0,60,90,3.0,0.0
8985,52.0,35,90,3.0,0.0
8986,57.0,120,180,3.0,0.0
8987,85.0,240,240,2.0,0.0
8988,71.0,240,240,1.0,0.0
8989,57.0,0,240,3.0,0.0
8990,83.0,240,240,2.0,0.0
8991,57.0,240,240,3.0,0.0
8992,69.0,0,240,1.0,0.0
8993,81.0,240,240,2.0,0.0
8994,68.0,0,240,1.0,0.0
8995,57.0,240,240,3.0,0.0
8996,80.0,80,240,2.0,0.0
8997,66.0,120,240,1.0,0.0
8998,38.0,65,90,4.0,0.0
8999,42.0,50,90,3.0,0.0
9000,45.0,45,60,3.0,0.0
9001,50.0,120,180,3.0,0.0
9002,78.0,240,240,2.0,0.0
9003,71.0,0,240,1.0,0.0
9004,50.0,240,240,3.0,0.0
9005,83.0,90,240,2.0,0.0
9006,40.0,50,90,4.0,0.0
9007,68.0,120,240,1.0,0.0
9008,44.0,65,90,3.0,0.0
9009,47.0,35,90,3.0,0.0
9010,52.0,120,180,3.0,0.0
9011,80.0,240,240,2.0,0.0
9012,52.0,235,240,3.0,0.0
9013,64.0,5,240,1.0,0.0
9014,76.0,80,240,2.0,0.0
9015,81.0,0,960,2.0,0.0
9016,45.0,65,90,4.0,0.0
9017,69.0,240,960,1.0,0.0
9018,49.0,60,90,3.0,0.0
9019,52.0,160,90,3.0,0.0
9020,57.0,355,180,3.0,0.0
9021,57.0,240,240,3.0,0.0
9022,73.0,80,960,2.0,0.0
9023,85.0,120,600,1.0,0.0
9024,57.0,360,240,3.0,0.0
9025,57.0,240,240,3.0,0.0
9026,85.0,0,240,1.0,0.0
9027,73.0,25,120,2.0,0.0
9028,45.0,40,90,4.0,0.0
9029,76.0,40,120,2.0,0.0
9030,49.0,15,90,3.0,0.0
9031,81.0,5,120,2.0,0.0
9032,52.0,35,90,3.0,0.0
9033,85.0,120,120,1.0,0.0
9034,57.0,360,180,3.0,0.0
9035,57.0,480,240,3.0,0.0
9036,57.0,480,240,3.0,0.0
9037,57.0,320,240,3.0,0.0
9038,45.0,40,90,4.0,0.0
9039,73.0,5,120,2.0,0.0
9040,76.0,5,120,2.0,0.0
9041,49.0,35,90,3.0,0.0
9042,81.0,40,120,2.0,0.0
9043,52.0,35,90,3.0,0.0
9044,57.0,415,180,3.0,0.0
9045,85.0,65,120,1.0,0.0
9046,57.0,480,240,3.0,0.0
9047,57.0,480,240,3.0,0.0
9048,57.0,320,240,3.0,0.0
9049,86.0,120,240,1.0,0.0
9050,45.0,65,90,4.0,0.0
9051,49.0,60,90,3.0,0.0
9052,52.0,35,90,3.0,0.0
9053,57.0,35,180,3.0,0.0
9054,85.0,240,150,1.0,0.0
9055,57.0,155,240,3.0,0.0
9056,83.0,85,150,1.0,0.0
9057,85.0,325,150,1.0,0.0
9058,57.0,155,240,3.0,0.0
9059,86.0,0,240,1.0,0.0
9060,85.0,240,150,1.0,0.0
9061,83.0,85,150,1.0,0.0
9062,57.0,155,240,3.0,0.0
9063,85.0,165,150,1.0,0.0
9064,86.0,10,1860,1.0,0.0
9065,78.0,0,1860,2.0,0.0
9066,81.0,135,1860,2.0,0.0
9067,38.0,65,90,4.0,0.0
9068,42.0,50,90,3.0,0.0
9069,45.0,165,60,3.0,0.0
9070,50.0,360,180,3.0,0.0
9071,50.0,480,240,3.0,0.0
9072,50.0,480,240,3.0,0.0
9073,50.0,170,240,3.0,0.0
9074,81.0,0,300,2.0,0.0
9075,45.0,65,90,4.0,0.0
9076,86.0,5,60,1.0,0.0
9077,76.0,60,300,2.0,0.0
9078,85.0,0,270,1.0,0.0
9079,49.0,60,90,3.0,0.0
9080,52.0,95,90,3.0,0.0
9081,57.0,195,180,3.0,0.0
9082,81.0,0,300,2.0,0.0
9083,76.0,255,300,2.0,0.0
9084,86.0,165,60,1.0,0.0
9085,57.0,60,240,3.0,0.0
9086,85.0,5,270,1.0,0.0
9087,57.0,60,240,3.0,0.0
9088,86.0,160,90,1.0,0.0
9089,76.0,250,300,2.0,0.0
9090,81.0,5,300,2.0,0.0
9091,85.0,0,270,1.0,0.0
9092,86.0,165,60,1.0,0.0
9093,81.0,0,300,2.0,0.0
9094,76.0,5,300,2.0,0.0
9095,57.0,60,240,3.0,0.0
9096,85.0,265,270,1.0,0.0
9097,40.0,50,90,4.0,0.0
9098,80.0,250,1440,2.0,0.0
9099,76.0,5,1440,2.0,0.0
9100,83.0,0,1440,1.0,0.0
9101,44.0,65,90,3.0,0.0
9102,47.0,155,90,3.0,0.0
9103,52.0,365,180,3.0,0.0
9104,52.0,475,240,3.0,0.0
9105,52.0,225,240,3.0,0.0
9106,52.0,240,240,3.0,0.0
9107,88.0,80,480,1.0,0.0
9108,45.0,40,90,4.0,0.0
9109,73.0,25,120,2.0,0.0
9110,76.0,40,120,2.0,0.0
9111,49.0,15,90,3.0,0.0
9112,81.0,5,120,2.0,0.0
9113,52.0,35,90,3.0,0.0
9114,85.0,120,120,1.0,0.0
9115,57.0,360,180,3.0,0.0
9116,57.0,480,240,3.0,0.0
9117,57.0,480,240,3.0,0.0
9118,57.0,320,240,3.0,0.0
9119,73.0,25,120,2.0,0.0
9120,45.0,40,90,4.0,0.0
9121,76.0,40,120,2.0,0.0
9122,49.0,15,90,3.0,0.0
9123,81.0,5,120,2.0,0.0
9124,85.0,125,120,1.0,0.0
9125,52.0,35,90,3.0,0.0
9126,57.0,355,180,3.0,0.0
9127,57.0,480,240,3.0,0.0
9128,57.0,480,240,3.0,0.0
9129,57.0,320,240,3.0,0.0
9130,45.0,65,90,4.0,0.0
9131,86.0,120,240,1.0,0.0
9132,49.0,60,90,3.0,0.0
9133,52.0,35,90,3.0,0.0
9134,57.0,35,180,3.0,0.0
9135,85.0,240,150,1.0,0.0
9136,83.0,85,150,1.0,0.0
9137,57.0,155,240,3.0,0.0
9138,85.0,325,150,1.0,0.0
9139,57.0,155,240,3.0,0.0
9140,86.0,0,240,1.0,0.0
9141,85.0,240,150,1.0,0.0
9142,57.0,155,240,3.0,0.0
9143,83.0,85,150,1.0,0.0
9144,85.0,165,150,1.0,0.0
9145,81.0,0,1890,2.0,0.0
9146,78.0,105,1890,2.0,0.0
9147,38.0,65,90,4.0,0.0
9148,86.0,15,1890,1.0,0.0
9149,42.0,50,90,3.0,0.0
9150,45.0,165,60,3.0,0.0
9151,50.0,360,180,3.0,0.0
9152,50.0,480,240,3.0,0.0
9153,50.0,480,240,3.0,0.0
9154,50.0,200,240,3.0,0.0
9155,86.0,0,90,1.0,0.0
9156,81.0,195,1800,2.0,0.0
9157,76.0,5,1800,2.0,0.0
9158,45.0,45,90,4.0,0.0
9159,85.0,0,1770,1.0,0.0
9160,49.0,40,90,3.0,0.0
9161,52.0,135,90,3.0,0.0
9162,57.0,420,180,3.0,0.0
9163,57.0,480,240,3.0,0.0
9164,57.0,480,240,3.0,0.0
9165,57.0,120,240,3.0,0.0
9166,76.0,55,300,2.0,0.0
9167,40.0,50,90,4.0,0.0
9168,85.0,10,90,1.0,0.0
9169,80.0,5,300,2.0,0.0
9170,83.0,0,270,1.0,0.0
9171,44.0,65,90,3.0,0.0
9172,47.0,95,90,3.0,0.0
9173,52.0,195,180,3.0,0.0
9174,52.0,60,240,3.0,0.0
9175,80.0,255,300,2.0,0.0
9176,85.0,170,60,1.0,0.0
9177,76.0,0,300,2.0,0.0
9178,83.0,0,270,1.0,0.0
9179,80.0,250,300,2.0,0.0
9180,76.0,0,300,2.0,0.0
9181,85.0,160,90,1.0,0.0
9182,52.0,60,240,3.0,0.0
9183,83.0,5,270,1.0,0.0
9184,80.0,0,300,2.0,0.0
9185,76.0,560,300,2.0,0.0
9186,52.0,60,240,3.0,0.0
9187,85.0,165,60,1.0,0.0
9188,83.0,5,270,1.0,0.0
9189,57.0,240,480,4.0,0.0
9190,81.0,95,390,1.0,0.0
9191,64.0,0,240,3.0,0.0
9192,61.0,240,240,3.0,0.0
9193,64.0,40,240,3.0,0.0
9194,57.0,240,480,4.0,0.0
9195,76.0,40,30,2.0,0.0
9196,81.0,40,30,2.0,0.0
9197,85.0,360,30,1.0,0.0
9198,64.0,0,240,3.0,0.0
9199,61.0,240,240,3.0,0.0
9200,64.0,40,240,3.0,0.0
9201,85.0,0,240,1.0,0.0
9202,76.0,40,30,2.0,0.0
9203,57.0,240,480,4.0,0.0
9204,81.0,40,30,2.0,0.0
9205,85.0,360,30,1.0,0.0
9206,64.0,0,240,3.0,0.0
9207,61.0,240,240,3.0,0.0
9208,64.0,480,240,3.0,0.0
9209,57.0,240,480,4.0,0.0
9210,64.0,0,240,3.0,0.0
9211,61.0,240,240,3.0,0.0
9212,64.0,40,240,3.0,0.0
9213,57.0,240,480,4.0,0.0
9214,76.0,40,30,2.0,0.0
9215,81.0,40,30,2.0,0.0
9216,85.0,360,30,1.0,0.0
9217,64.0,0,240,3.0,0.0
9218,61.0,240,240,3.0,0.0
9219,64.0,480,240,3.0,0.0
9220,57.0,240,480,4.0,0.0
9221,64.0,0,240,3.0,0.0
9222,61.0,240,240,3.0,0.0
9223,64.0,240,240,3.0,0.0
9224,86.0,190,240,1.0,0.0
9225,57.0,0,480,4.0,0.0
9226,85.0,50,180,1.0,0.0
9227,64.0,190,240,3.0,0.0
9228,61.0,190,240,3.0,0.0
9229,83.0,50,180,1.0,0.0
9230,64.0,240,240,3.0,0.0
9231,85.0,50,180,1.0,0.0
9232,57.0,240,480,4.0,0.0
9233,86.0,240,240,1.0,0.0
9234,64.0,0,240,3.0,0.0
9235,85.0,0,240,1.0,0.0
9236,83.0,240,240,1.0,0.0
9237,61.0,0,240,3.0,0.0
9238,85.0,480,240,1.0,0.0
9239,64.0,0,240,3.0,0.0
9240,86.0,40,1890,1.0,0.0
9241,57.0,0,480,4.0,0.0
9242,66.0,240,240,3.0,0.0
9243,62.0,240,240,3.0,0.0
9244,66.0,480,240,3.0,0.0
9245,57.0,240,480,4.0,0.0
9246,66.0,0,240,3.0,0.0
9247,62.0,200,240,3.0,0.0
9248,66.0,75,240,3.0,0.0
9249,57.0,75,480,4.0,0.0
9250,86.0,230,60,1.0,0.0
9251,85.0,175,270,1.0,0.0
9252,64.0,0,240,3.0,0.0
9253,86.0,165,60,1.0,0.0
9254,61.0,60,240,3.0,0.0
9255,85.0,180,270,1.0,0.0
9256,64.0,80,240,3.0,0.0
9257,86.0,225,90,1.0,0.0
9258,57.0,0,480,4.0,0.0
9259,85.0,175,270,1.0,0.0
9260,64.0,75,240,3.0,0.0
9261,61.0,65,240,3.0,0.0
9262,86.0,165,60,1.0,0.0
9263,85.0,175,270,1.0,0.0
9264,64.0,480,240,3.0,0.0
9265,83.0,240,1440,1.0,0.0
9266,52.0,0,480,4.0,0.0
9267,64.0,240,240,3.0,0.0
9268,59.0,240,240,3.0,0.0
9269,64.0,480,240,3.0,0.0
9270,52.0,0,480,4.0,0.0
9271,64.0,0,240,3.0,0.0
9272,59.0,240,240,3.0,0.0
9273,88.0,0,480,1.0,0.0
9274,64.0,80,240,3.0,0.0
9275,45.0,40,90,4.0,0.0
9276,73.0,25,120,2.0,0.0
9277,76.0,40,120,2.0,0.0
9278,49.0,15,90,3.0,0.0
9279,81.0,5,120,2.0,0.0
9280,85.0,120,120,1.0,0.0
9281,52.0,35,90,3.0,0.0
9282,57.0,360,180,3.0,0.0
9283,57.0,480,240,3.0,0.0
9284,57.0,480,240,3.0,0.0
9285,57.0,320,240,3.0,0.0
9286,45.0,40,90,4.0,0.0
9287,73.0,25,120,2.0,0.0
9288,76.0,40,120,2.0,0.0
9289,49.0,15,90,3.0,0.0
9290,81.0,5,120,2.0,0.0
9291,52.0,35,90,3.0,0.0
9292,85.0,125,120,1.0,0.0
9293,57.0,355,180,3.0,0.0
9294,57.0,480,240,3.0,0.0
9295,57.0,480,240,3.0,0.0
9296,57.0,320,240,3.0,0.0
9297,86.0,60,240,1.0,0.0
9298,45.0,45,90,4.0,0.0
9299,49.0,40,90,3.0,0.0
9300,52.0,75,90,3.0,0.0
9301,57.0,95,180,3.0,0.0
9302,85.0,240,150,1.0,0.0
9303,83.0,85,150,1.0,0.0
9304,57.0,155,240,3.0,0.0
9305,85.0,325,150,1.0,0.0
9306,57.0,0,240,3.0,0.0
9307,86.0,155,240,1.0,0.0
9308,85.0,240,150,1.0,0.0
9309,83.0,85,150,1.0,0.0
9310,57.0,155,240,3.0,0.0
9311,85.0,165,150,1.0,0.0
9312,86.0,120,1890,1.0,0.0
9313,38.0,65,90,4.0,0.0
9314,78.0,0,1860,2.0,0.0
9315,81.0,5,1860,2.0,0.0
9316,42.0,50,90,3.0,0.0
9317,45.0,165,60,3.0,0.0
9318,50.0,360,180,3.0,0.0
9319,50.0,480,240,3.0,0.0
9320,50.0,480,240,3.0,0.0
9321,50.0,195,240,3.0,0.0
9322,76.0,195,1800,2.0,0.0
9323,86.0,65,90,1.0,0.0
9324,81.0,5,1800,2.0,0.0
9325,45.0,0,90,4.0,0.0
9326,85.0,0,1740,1.0,0.0
9327,49.0,60,90,3.0,0.0
9328,52.0,155,90,3.0,0.0
9329,57.0,360,180,3.0,0.0
9330,57.0,480,240,3.0,0.0
9331,57.0,480,240,3.0,0.0
9332,57.0,120,240,3.0,0.0
9333,85.0,10,90,1.0,0.0
9334,76.0,0,300,2.0,0.0
9335,80.0,5,300,2.0,0.0
9336,40.0,50,90,4.0,0.0
9337,83.0,55,270,1.0,0.0
9338,44.0,65,90,3.0,0.0
9339,47.0,95,90,3.0,0.0
9340,52.0,195,180,3.0,0.0
9341,76.0,255,300,2.0,0.0
9342,52.0,55,240,3.0,0.0
9343,80.0,5,300,2.0,0.0
9344,85.0,170,60,1.0,0.0
9345,83.0,0,270,1.0,0.0
9346,85.0,160,90,1.0,0.0
9347,52.0,60,240,3.0,0.0
9348,80.0,250,300,2.0,0.0
9349,76.0,0,300,2.0,0.0
9350,83.0,5,270,1.0,0.0
9351,85.0,165,60,1.0,0.0
9352,80.0,255,300,2.0,0.0
9353,52.0,65,240,3.0,0.0
9354,76.0,0,300,2.0,0.0
9355,83.0,0,270,1.0,0.0
9356,76.0,0,1140,2.0,0.0
9357,69.0,0,1140,2.0,0.0
9358,73.0,50,1140,2.0,0.0
9359,45.0,65,90,4.0,0.0
9360,81.0,0,1140,1.0,0.0
9361,49.0,60,90,3.0,0.0
9362,52.0,155,90,3.0,0.0
9363,57.0,360,180,3.0,0.0
9364,57.0,430,240,3.0,0.0
9365,57.0,480,240,3.0,0.0
9366,85.0,175,390,1.0,0.0
9367,57.0,145,240,3.0,0.0
9368,73.0,0,390,2.0,0.0
9369,69.0,50,1140,2.0,0.0
9370,81.0,0,1140,1.0,0.0
9371,45.0,65,90,4.0,0.0
9372,49.0,60,90,3.0,0.0
9373,52.0,160,90,3.0,0.0
9374,57.0,355,180,3.0,0.0
9375,57.0,430,240,3.0,0.0
9376,57.0,480,240,3.0,0.0
9377,57.0,145,240,3.0,0.0
9378,88.0,0,390,1.0,0.0
9379,76.0,175,390,2.0,0.0
9380,45.0,65,90,4.0,0.0
9381,69.0,50,1140,2.0,0.0
9382,81.0,0,1140,1.0,0.0
9383,49.0,60,90,3.0,0.0
9384,52.0,155,90,3.0,0.0
9385,57.0,360,180,3.0,0.0
9386,57.0,430,240,3.0,0.0
9387,57.0,480,240,3.0,0.0
9388,57.0,145,240,3.0,0.0
9389,85.0,175,390,1.0,0.0
9390,73.0,0,390,2.0,0.0
9391,45.0,65,90,4.0,0.0
9392,81.0,335,390,1.0,0.0
9393,69.0,0,390,2.0,0.0
9394,49.0,60,90,3.0,0.0
9395,52.0,155,90,3.0,0.0
9396,57.0,25,180,3.0,0.0
9397,57.0,145,240,3.0,0.0
9398,85.0,0,390,1.0,0.0
9399,73.0,175,390,2.0,0.0
9400,69.0,0,390,2.0,0.0
9401,81.0,335,390,1.0,0.0
9402,45.0,65,90,4.0,0.0
9403,49.0,60,90,3.0,0.0
9404,52.0,155,90,3.0,0.0
9405,57.0,25,180,3.0,0.0
9406,85.0,745,390,1.0,0.0
9407,73.0,0,390,2.0,0.0
9408,57.0,145,240,3.0,0.0
9409,45.0,0,660,5.0,0.0
9410,69.0,0,660,2.0,0.0
9411,57.0,935,660,4.0,0.0
9412,81.0,0,660,1.0,0.0
9413,73.0,0,630,2.0,0.0
9414,76.0,0,630,2.0,0.0
9415,81.0,0,630,1.0,0.0
9416,57.0,1105,630,4.0,0.0
9417,69.0,0,630,2.0,0.0
9418,45.0,0,630,5.0,0.0
9419,52.0,0,630,4.0,0.0
9420,81.0,0,780,1.0,0.0
9421,45.0,0,780,5.0,0.0
9422,57.0,0,780,4.0,0.0
9423,52.0,0,780,4.0,0.0
9424,76.0,0,780,2.0,0.0
9425,73.0,0,780,2.0,0.0
9426,69.0,0,780,2.0,0.0
