tick,type,time,meta,track,numerator,denominator,clocks_per_click,notated_32nd_notes_per_beat,key,tempo,program,channel,control,value,note,velocity
0,track_name,0,1,0,,,,,,,,,,,,
0,program_change,0,0,6,,,,,,,47,4,,,,
0,track_name,0,1,6,,,,,,,,,,,,
0,control_change,0,0,5,,,,,,,,1,10,83,,
0,control_change,0,0,5,,,,,,,,1,7,127,,
0,program_change,0,0,5,,,,,,,56,1,,,,
0,track_name,0,1,5,,,,,,,,,,,,
0,control_change,0,0,4,,,,,,,,7,10,45,,
0,control_change,0,0,4,,,,,,,,7,7,127,,
0,program_change,0,0,4,,,,,,,60,7,,,,
0,control_change,0,0,6,,,,,,,,4,7,127,,
0,track_name,0,1,4,,,,,,,,,,,,
0,control_change,0,0,3,,,,,,,,0,7,127,,
0,program_change,0,0,3,,,,,,,70,0,,,,
0,track_name,0,1,3,,,,,,,,,,,,
0,control_change,0,0,2,,,,,,,,6,10,73,,
0,control_change,0,0,2,,,,,,,,6,7,127,,
0,program_change,0,0,2,,,,,,,68,6,,,,
0,track_name,0,1,2,,,,,,,,,,,,
0,control_change,0,0,1,,,,,,,,3,10,76,,
0,control_change,0,0,1,,,,,,,,3,7,127,,
0,control_change,0,0,3,,,,,,,,0,10,47,,
0,program_change,0,0,1,,,,,,,73,3,,,,
0,track_name,0,1,7,,,,,,,,,,,,
0,control_change,0,0,7,,,,,,,,5,7,127,,
0,program_change,0,0,13,,,,,,,0,5,,,,
0,track_name,0,1,13,,,,,,,,,,,,
0,control_change,0,0,12,,,,,,,,15,10,82,,
0,control_change,0,0,12,,,,,,,,15,7,127,,
0,program_change,0,0,12,,,,,,,48,15,,,,
0,track_name,0,1,12,,,,,,,,,,,,
0,control_change,0,0,11,,,,,,,,14,10,46,,
0,control_change,0,0,11,,,,,,,,14,7,127,,
0,program_change,0,0,11,,,,,,,48,14,,,,
0,program_change,0,0,7,,,,,,,0,5,,,,
0,track_name,0,1,11,,,,,,,,,,,,
0,control_change,0,0,10,,,,,,,,13,7,127,,
0,program_change,0,0,10,,,,,,,48,13,,,,
0,track_name,0,1,10,,,,,,,,,,,,
0,control_change,0,0,9,,,,,,,,12,10,19,,
0,control_change,0,0,9,,,,,,,,12,7,127,,
0,program_change,0,0,9,,,,,,,48,12,,,,
0,track_name,0,1,9,,,,,,,,,,,,
0,program_change,0,0,8,,,,,,,0,5,,,,
0,track_name,0,1,8,,,,,,,,,,,,
0,control_change,0,0,10,,,,,,,,13,10,108,,
0,track_name,0,1,1,,,,,,,,,,,,
0,end_of_track,0,1,14,,,,,,,,,,,,
0,set_tempo,0,1,0,,,,,,666667,,,,,,
0,key_signature,0,1,0,,,,,C,,,,,,,
0,text,0,1,0,,,,,,,,,,,,
0,text,0,1,0,,,,,,,,,,,,
0,text,0,1,0,,,,,,,,,,,,
0,text,0,1,0,,,,,,,,,,,,
0,copyright,0,1,0,,,,,,,,,,,,
0,track_name,0,1,0,,,,,,,,,,,,
0,time_signature,0,1,0,2,4,24,8,,,,,,,,
0,text,0,1,0,,,,,,,,,,,,
0,text,0,1,0,,,,,,,,,,,,
0,text,0,1,0,,,,,,,,,,,,
0,marker,0,1,0,,,,,,,,,,,,
120,note_on,120,0,9,,,,,,,,12,,,84,82
120,note_on,120,0,10,,,,,,,,13,,,60,70
149,note_on,29,0,10,,,,,,,,13,,,60,0
150,note_on,30,0,9,,,,,,,,12,,,84,0
150,note_on,1,0,10,,,,,,,,13,,,59,59
179,note_on,29,0,10,,,,,,,,13,,,59,0
180,note_on,1,0,10,,,,,,,,13,,,60,66
180,note_on,30,0,9,,,,,,,,12,,,84,82
209,note_on,29,0,10,,,,,,,,13,,,60,0
210,note_on,1,0,10,,,,,,,,13,,,62,66
239,note_on,29,0,10,,,,,,,,13,,,62,0
239,note_on,59,0,9,,,,,,,,12,,,84,0
240,note_on,1,0,10,,,,,,,,13,,,64,68
240,note_on,240,0,12,,,,,,,,15,,,48,70
240,note_on,1,0,9,,,,,,,,12,,,79,74
255,note_on,15,0,10,,,,,,,,13,,,64,0
270,note_on,15,0,10,,,,,,,,13,,,60,60
285,note_on,15,0,10,,,,,,,,13,,,60,0
299,note_on,59,0,9,,,,,,,,12,,,79,0
300,note_on,1,0,9,,,,,,,,12,,,79,66
300,note_on,15,0,10,,,,,,,,13,,,64,70
315,note_on,15,0,10,,,,,,,,13,,,64,0
330,note_on,15,0,10,,,,,,,,13,,,60,66
345,note_on,15,0,10,,,,,,,,13,,,60,0
359,note_on,59,0,9,,,,,,,,12,,,79,0
360,note_on,15,0,10,,,,,,,,13,,,67,68
360,note_on,120,0,12,,,,,,,,15,,,48,0
360,note_on,1,0,9,,,,,,,,12,,,81,74
360,note_on,360,0,11,,,,,,,,14,,,60,80
375,note_on,15,0,10,,,,,,,,13,,,67,0
390,note_on,15,0,10,,,,,,,,13,,,60,60
405,note_on,15,0,10,,,,,,,,13,,,60,0
419,note_on,59,0,9,,,,,,,,12,,,81,0
420,note_on,1,0,9,,,,,,,,12,,,81,72
420,note_on,15,0,10,,,,,,,,13,,,67,52
435,note_on,15,0,10,,,,,,,,13,,,67,0
450,note_on,15,0,10,,,,,,,,13,,,60,57
465,note_on,15,0,10,,,,,,,,13,,,60,0
479,note_on,59,0,9,,,,,,,,12,,,81,0
480,note_on,1,0,9,,,,,,,,12,,,76,74
480,note_on,120,0,11,,,,,,,,14,,,60,0
480,note_on,0,0,11,,,,,,,,14,,,60,72
480,note_on,120,0,12,,,,,,,,15,,,48,68
480,note_on,15,0,10,,,,,,,,13,,,69,57
495,note_on,15,0,10,,,,,,,,13,,,69,0
510,note_on,15,0,10,,,,,,,,13,,,60,53
525,note_on,15,0,10,,,,,,,,13,,,60,0
539,note_on,59,0,9,,,,,,,,12,,,76,0
540,note_on,15,0,10,,,,,,,,13,,,69,58
540,note_on,1,0,9,,,,,,,,12,,,76,72
555,note_on,15,0,10,,,,,,,,13,,,69,0
570,note_on,15,0,10,,,,,,,,13,,,60,55
585,note_on,15,0,10,,,,,,,,13,,,60,0
599,note_on,59,0,9,,,,,,,,12,,,76,0
600,note_on,120,0,11,,,,,,,,14,,,60,0
600,note_on,1,0,9,,,,,,,,12,,,77,68
600,note_on,120,0,12,,,,,,,,15,,,48,0
600,note_on,15,0,10,,,,,,,,13,,,71,51
615,note_on,15,0,10,,,,,,,,13,,,71,0
630,note_on,15,0,10,,,,,,,,13,,,60,60
645,note_on,15,0,10,,,,,,,,13,,,60,0
659,note_on,59,0,9,,,,,,,,12,,,77,0
660,note_on,15,0,10,,,,,,,,13,,,71,57
660,note_on,1,0,9,,,,,,,,12,,,77,82
675,note_on,15,0,10,,,,,,,,13,,,71,0
690,note_on,15,0,10,,,,,,,,13,,,60,64
705,note_on,15,0,10,,,,,,,,13,,,60,0
719,note_on,59,0,9,,,,,,,,12,,,77,0
720,note_on,120,0,11,,,,,,,,14,,,60,66
720,note_on,120,0,12,,,,,,,,15,,,48,76
720,note_on,1,0,9,,,,,,,,12,,,79,68
720,note_on,15,0,10,,,,,,,,13,,,64,68
749,note_on,29,0,10,,,,,,,,13,,,64,0
749,note_on,29,0,9,,,,,,,,12,,,79,0
750,note_on,1,0,10,,,,,,,,13,,,60,63
750,note_on,1,0,9,,,,,,,,12,,,76,70
779,note_on,29,0,10,,,,,,,,13,,,60,0
779,note_on,29,0,9,,,,,,,,12,,,76,0
780,note_on,1,0,10,,,,,,,,13,,,64,63
780,note_on,1,0,9,,,,,,,,12,,,79,70
809,note_on,29,0,10,,,,,,,,13,,,64,0
809,note_on,29,0,9,,,,,,,,12,,,79,0
810,note_on,1,0,10,,,,,,,,13,,,60,68
810,note_on,1,0,9,,,,,,,,12,,,76,70
839,note_on,119,0,12,,,,,,,,15,,,48,0
839,note_on,29,0,10,,,,,,,,13,,,60,0
839,note_on,29,0,9,,,,,,,,12,,,76,0
840,note_on,1,0,12,,,,,,,,15,,,60,68
840,note_on,0,0,11,,,,,,,,14,,,72,72
840,note_on,1,0,10,,,,,,,,13,,,65,72
840,note_on,1,0,9,,,,,,,,12,,,81,80
840,note_on,120,0,11,,,,,,,,14,,,60,0
869,note_on,29,0,10,,,,,,,,13,,,65,0
869,note_on,29,0,9,,,,,,,,12,,,81,0
870,note_on,1,0,9,,,,,,,,12,,,79,68
870,note_on,1,0,10,,,,,,,,13,,,64,72
899,note_on,29,0,10,,,,,,,,13,,,64,0
899,note_on,29,0,9,,,,,,,,12,,,79,0
900,note_on,1,0,10,,,,,,,,13,,,62,60
900,note_on,1,0,9,,,,,,,,12,,,77,80
929,note_on,29,0,10,,,,,,,,13,,,62,0
929,note_on,29,0,9,,,,,,,,12,,,77,0
930,note_on,1,0,9,,,,,,,,12,,,76,72
930,note_on,1,0,10,,,,,,,,13,,,60,80
959,note_on,119,0,12,,,,,,,,15,,,60,0
959,note_on,29,0,9,,,,,,,,12,,,76,0
959,note_on,29,0,10,,,,,,,,13,,,60,0
960,note_on,1,0,10,,,,,,,,13,,,58,70
960,note_on,1,0,9,,,,,,,,12,,,73,78
960,note_on,1,0,12,,,,,,,,15,,,55,72
989,note_on,29,0,9,,,,,,,,12,,,73,0
989,note_on,29,0,10,,,,,,,,13,,,58,0
990,note_on,1,0,9,,,,,,,,12,,,74,80
990,note_on,1,0,10,,,,,,,,13,,,59,72
1019,note_on,29,0,9,,,,,,,,12,,,74,0
1019,note_on,29,0,10,,,,,,,,13,,,59,0
1020,note_on,1,0,9,,,,,,,,12,,,74,82
1020,note_on,1,0,10,,,,,,,,13,,,59,74
1079,note_on,239,0,11,,,,,,,,14,,,72,0
1079,note_on,59,0,9,,,,,,,,12,,,74,0
1079,note_on,59,0,10,,,,,,,,13,,,59,0
1079,note_on,119,0,12,,,,,,,,15,,,55,0
1080,note_on,1,0,11,,,,,,,,14,,,67,70
1080,note_on,1,0,9,,,,,,,,12,,,84,80
1080,note_on,1,0,10,,,,,,,,13,,,60,68
1109,note_on,29,0,10,,,,,,,,13,,,60,0
1110,note_on,1,0,10,,,,,,,,13,,,59,68
1110,note_on,30,0,9,,,,,,,,12,,,84,0
1139,note_on,29,0,10,,,,,,,,13,,,59,0
1140,note_on,1,0,10,,,,,,,,13,,,57,68
1140,note_on,30,0,9,,,,,,,,12,,,84,78
1169,note_on,29,0,10,,,,,,,,13,,,57,0
1170,note_on,1,0,10,,,,,,,,13,,,59,68
1199,note_on,59,0,9,,,,,,,,12,,,84,0
1199,note_on,29,0,10,,,,,,,,13,,,59,0
1200,note_on,1,0,9,,,,,,,,12,,,79,70
1200,note_on,120,0,11,,,,,,,,14,,,67,0
1200,note_on,121,0,12,,,,,,,,15,,,48,70
1200,note_on,1,0,10,,,,,,,,13,,,64,82
1215,note_on,15,0,10,,,,,,,,13,,,64,0
1230,note_on,15,0,10,,,,,,,,13,,,60,68
1245,note_on,15,0,10,,,,,,,,13,,,60,0
1259,note_on,59,0,9,,,,,,,,12,,,79,0
1260,note_on,1,0,9,,,,,,,,12,,,79,66
1260,note_on,15,0,10,,,,,,,,13,,,64,66
1275,note_on,15,0,10,,,,,,,,13,,,64,0
1290,note_on,15,0,10,,,,,,,,13,,,60,66
1305,note_on,15,0,10,,,,,,,,13,,,60,0
1319,note_on,59,0,9,,,,,,,,12,,,79,0
1320,note_on,1,0,9,,,,,,,,12,,,81,80
1320,note_on,120,0,12,,,,,,,,15,,,48,0
1320,note_on,15,0,10,,,,,,,,13,,,65,66
1320,note_on,120,0,11,,,,,,,,14,,,60,70
1335,note_on,15,0,10,,,,,,,,13,,,65,0
1350,note_on,15,0,10,,,,,,,,13,,,60,62
1365,note_on,15,0,10,,,,,,,,13,,,60,0
1379,note_on,59,0,9,,,,,,,,12,,,81,0
1380,note_on,15,0,10,,,,,,,,13,,,65,59
1380,note_on,1,0,9,,,,,,,,12,,,81,72
1395,note_on,15,0,10,,,,,,,,13,,,65,0
1410,note_on,15,0,10,,,,,,,,13,,,60,60
1425,note_on,15,0,10,,,,,,,,13,,,60,0
1439,note_on,59,0,9,,,,,,,,12,,,81,0
1440,note_on,15,0,10,,,,,,,,13,,,67,55
1440,note_on,120,0,11,,,,,,,,14,,,60,0
1440,note_on,120,0,12,,,,,,,,15,,,48,72
1440,note_on,1,0,9,,,,,,,,12,,,76,74
1455,note_on,15,0,10,,,,,,,,13,,,67,0
1470,note_on,15,0,10,,,,,,,,13,,,60,58
1485,note_on,15,0,10,,,,,,,,13,,,60,0
1499,note_on,59,0,9,,,,,,,,12,,,76,0
1500,note_on,1,0,9,,,,,,,,12,,,76,70
1500,note_on,15,0,10,,,,,,,,13,,,67,60
1515,note_on,15,0,10,,,,,,,,13,,,67,0
1530,note_on,15,0,10,,,,,,,,13,,,60,58
1545,note_on,15,0,10,,,,,,,,13,,,60,0
1559,note_on,59,0,9,,,,,,,,12,,,76,0
1560,note_on,1,0,9,,,,,,,,12,,,77,80
1560,note_on,15,0,10,,,,,,,,13,,,69,63
1560,note_on,120,0,11,,,,,,,,14,,,60,74
1560,note_on,120,0,12,,,,,,,,15,,,48,0
1575,note_on,15,0,10,,,,,,,,13,,,69,0
1590,note_on,15,0,10,,,,,,,,13,,,60,64
1605,note_on,15,0,10,,,,,,,,13,,,60,0
1619,note_on,59,0,9,,,,,,,,12,,,77,0
1620,note_on,15,0,10,,,,,,,,13,,,69,63
1620,note_on,1,0,9,,,,,,,,12,,,77,78
1635,note_on,15,0,10,,,,,,,,13,,,69,0
1650,note_on,15,0,10,,,,,,,,13,,,60,58
1665,note_on,15,0,10,,,,,,,,13,,,60,0
1679,note_on,59,0,9,,,,,,,,12,,,77,0
1680,note_on,1,0,9,,,,,,,,12,,,79,70
1680,note_on,120,0,11,,,,,,,,14,,,60,0
1680,note_on,0,0,11,,,,,,,,14,,,60,68
1680,note_on,120,0,12,,,,,,,,15,,,48,70
1680,note_on,15,0,10,,,,,,,,13,,,64,74
1709,note_on,29,0,9,,,,,,,,12,,,79,0
1709,note_on,29,0,10,,,,,,,,13,,,64,0
1710,note_on,1,0,10,,,,,,,,13,,,60,68
1710,note_on,1,0,9,,,,,,,,12,,,76,76
1739,note_on,29,0,9,,,,,,,,12,,,76,0
1739,note_on,59,0,11,,,,,,,,14,,,60,0
1739,note_on,29,0,10,,,,,,,,13,,,60,0
1739,note_on,59,0,12,,,,,,,,15,,,48,0
1740,note_on,1,0,12,,,,,,,,15,,,53,68
1740,note_on,1,0,9,,,,,,,,12,,,81,80
1740,note_on,1,0,11,,,,,,,,14,,,65,74
1740,note_on,1,0,10,,,,,,,,13,,,65,70
1769,note_on,29,0,10,,,,,,,,13,,,65,0
1769,note_on,29,0,9,,,,,,,,12,,,81,0
1770,note_on,1,0,9,,,,,,,,12,,,77,70
1770,note_on,1,0,10,,,,,,,,13,,,62,80
1799,note_on,29,0,10,,,,,,,,13,,,62,0
1799,note_on,59,0,12,,,,,,,,15,,,53,0
1799,note_on,29,0,9,,,,,,,,12,,,77,0
1799,note_on,59,0,11,,,,,,,,14,,,65,0
1800,note_on,1,0,12,,,,,,,,15,,,55,70
1800,note_on,1,0,9,,,,,,,,12,,,76,87
1800,note_on,1,0,11,,,,,,,,14,,,67,66
1800,note_on,1,0,10,,,,,,,,13,,,60,70
1859,note_on,59,0,11,,,,,,,,14,,,67,0
1859,note_on,59,0,12,,,,,,,,15,,,55,0
1859,note_on,59,0,10,,,,,,,,13,,,60,0
1859,note_on,59,0,9,,,,,,,,12,,,76,0
1860,note_on,1,0,9,,,,,,,,12,,,74,80
1860,note_on,1,0,11,,,,,,,,14,,,55,80
1860,note_on,1,0,10,,,,,,,,13,,,59,72
1860,note_on,1,0,12,,,,,,,,15,,,43,74
1919,note_on,59,0,9,,,,,,,,12,,,74,0
1919,note_on,59,0,11,,,,,,,,14,,,55,0
1919,note_on,59,0,10,,,,,,,,13,,,59,0
1919,note_on,59,0,12,,,,,,,,15,,,43,0
1920,note_on,1,0,11,,,,,,,,14,,,60,66
1920,note_on,1,0,12,,,,,,,,15,,,48,80
1920,note_on,1,0,10,,,,,,,,13,,,60,78
1920,note_on,1,0,9,,,,,,,,12,,,72,82
2039,note_on,119,0,12,,,,,,,,15,,,48,0
2039,note_on,119,0,10,,,,,,,,13,,,60,0
2039,note_on,119,0,11,,,,,,,,14,,,60,0
2039,note_on,119,0,9,,,,,,,,12,,,72,0
2040,note_on,2040,0,1,,,,,,,,3,,,84,82
2040,note_on,0,0,2,,,,,,,,6,,,72,82
2040,note_on,2040,0,2,,,,,,,,6,,,67,68
2040,note_on,2040,0,4,,,,,,,,7,,,72,68
2040,note_on,0,0,4,,,,,,,,7,,,64,66
2070,note_on,30,0,4,,,,,,,,7,,,64,0
2070,note_on,0,0,2,,,,,,,,6,,,67,0
2070,note_on,30,0,1,,,,,,,,3,,,84,0
2070,note_on,30,0,2,,,,,,,,6,,,72,0
2070,note_on,0,0,4,,,,,,,,7,,,72,0
2100,note_on,30,0,4,,,,,,,,7,,,64,68
2100,note_on,0,0,4,,,,,,,,7,,,72,74
2100,note_on,30,0,2,,,,,,,,6,,,72,85
2100,note_on,0,0,2,,,,,,,,6,,,67,78
2100,note_on,30,0,1,,,,,,,,3,,,84,80
2130,note_on,30,0,2,,,,,,,,6,,,67,0
2130,note_on,0,0,2,,,,,,,,6,,,72,0
2130,note_on,30,0,4,,,,,,,,7,,,72,0
2130,note_on,30,0,1,,,,,,,,3,,,84,0
2130,note_on,0,0,4,,,,,,,,7,,,64,0
2160,note_on,30,0,1,,,,,,,,3,,,84,82
2160,note_on,0,0,4,,,,,,,,7,,,72,70
2160,note_on,30,0,4,,,,,,,,7,,,64,66
2160,note_on,30,0,2,,,,,,,,6,,,72,78
2160,note_on,0,0,2,,,,,,,,6,,,67,66
2249,note_on,89,0,2,,,,,,,,6,,,67,0
2249,note_on,89,0,4,,,,,,,,7,,,72,0
2249,note_on,0,0,2,,,,,,,,6,,,72,0
2249,note_on,0,0,4,,,,,,,,7,,,64,0
2249,note_on,89,0,1,,,,,,,,3,,,84,0
2250,note_on,0,0,2,,,,,,,,6,,,71,76
2250,note_on,0,0,4,,,,,,,,7,,,74,85
2250,note_on,1,0,4,,,,,,,,7,,,67,72
2250,note_on,1,0,1,,,,,,,,3,,,86,76
2250,note_on,1,0,2,,,,,,,,6,,,74,78
2279,note_on,0,0,4,,,,,,,,7,,,67,0
2279,note_on,29,0,4,,,,,,,,7,,,74,0
2279,note_on,29,0,1,,,,,,,,3,,,86,0
2279,note_on,29,0,2,,,,,,,,6,,,71,0
2279,note_on,0,0,2,,,,,,,,6,,,74,0
2280,note_on,1,0,1,,,,,,,,3,,,88,82
2280,note_on,0,0,2,,,,,,,,6,,,72,74
2280,note_on,0,0,4,,,,,,,,7,,,72,66
2280,note_on,1,0,2,,,,,,,,6,,,76,82
2280,note_on,1,0,4,,,,,,,,7,,,76,70
2339,note_on,59,0,2,,,,,,,,6,,,72,0
2339,note_on,0,0,2,,,,,,,,6,,,76,0
2339,note_on,0,0,4,,,,,,,,7,,,76,0
2339,note_on,59,0,4,,,,,,,,7,,,72,0
2339,note_on,59,0,1,,,,,,,,3,,,88,0
2340,note_on,1,0,2,,,,,,,,6,,,77,72
2340,note_on,1,0,1,,,,,,,,3,,,89,85
2340,note_on,0,0,4,,,,,,,,7,,,74,82
2340,note_on,1,0,4,,,,,,,,7,,,77,78
2340,note_on,0,0,2,,,,,,,,6,,,74,72
2399,note_on,59,0,1,,,,,,,,3,,,89,0
2399,note_on,0,0,4,,,,,,,,7,,,77,0
2399,note_on,59,0,4,,,,,,,,7,,,74,0
2399,note_on,0,0,2,,,,,,,,6,,,77,0
2399,note_on,59,0,2,,,,,,,,6,,,74,0
2400,note_on,0,0,4,,,,,,,,7,,,67,82
2400,note_on,1,0,4,,,,,,,,7,,,74,82
2400,note_on,0,0,5,,,,,,,,1,,,74,76
2400,note_on,2400,0,5,,,,,,,,1,,,67,74
2400,note_on,2400,0,6,,,,,,,,4,,,43,70
2400,note_on,1,0,2,,,,,,,,6,,,71,82
2400,note_on,0,0,2,,,,,,,,6,,,74,59
2400,note_on,2400,0,3,,,,,,,,0,,,55,87
2400,note_on,1,0,1,,,,,,,,3,,,86,85
2459,note_on,59,0,5,,,,,,,,1,,,74,0
2459,note_on,0,0,5,,,,,,,,1,,,67,0
2459,note_on,59,0,2,,,,,,,,6,,,74,0
2459,note_on,0,0,2,,,,,,,,6,,,71,0
2459,note_on,59,0,3,,,,,,,,0,,,55,0
2459,note_on,59,0,6,,,,,,,,4,,,43,0
2459,note_on,59,0,1,,,,,,,,3,,,86,0
2459,note_on,59,0,4,,,,,,,,7,,,67,0
2459,note_on,0,0,4,,,,,,,,7,,,74,0
2460,note_on,1,0,6,,,,,,,,4,,,43,70
2460,note_on,1,0,3,,,,,,,,0,,,43,63
2460,note_on,0,0,5,,,,,,,,1,,,74,76
2460,note_on,1,0,5,,,,,,,,1,,,67,70
2519,note_on,59,0,6,,,,,,,,4,,,43,0
2519,note_on,59,0,3,,,,,,,,0,,,43,0
2519,note_on,0,0,5,,,,,,,,1,,,67,0
2519,note_on,59,0,5,,,,,,,,1,,,74,0
2520,note_on,0,0,4,,,,,,,,7,,,67,74
2520,note_on,61,0,1,,,,,,,,3,,,86,80
2520,note_on,0,0,2,,,,,,,,6,,,71,78
2520,note_on,61,0,2,,,,,,,,6,,,74,76
2520,note_on,61,0,4,,,,,,,,7,,,74,82
2550,note_on,30,0,2,,,,,,,,6,,,71,0
2550,note_on,0,0,2,,,,,,,,6,,,74,0
2550,note_on,0,0,4,,,,,,,,7,,,74,0
2550,note_on,30,0,4,,,,,,,,7,,,67,0
2550,note_on,30,0,1,,,,,,,,3,,,86,0
2580,note_on,30,0,4,,,,,,,,7,,,67,74
2580,note_on,0,0,4,,,,,,,,7,,,74,85
2580,note_on,30,0,1,,,,,,,,3,,,86,76
2580,note_on,0,0,2,,,,,,,,6,,,74,76
2580,note_on,30,0,2,,,,,,,,6,,,71,80
2610,note_on,0,0,2,,,,,,,,6,,,71,0
2610,note_on,30,0,2,,,,,,,,6,,,74,0
2610,note_on,0,0,4,,,,,,,,7,,,67,0
2610,note_on,30,0,4,,,,,,,,7,,,74,0
2610,note_on,30,0,1,,,,,,,,3,,,86,0
2640,note_on,0,0,2,,,,,,,,6,,,71,80
2640,note_on,30,0,2,,,,,,,,6,,,74,76
2640,note_on,30,0,1,,,,,,,,3,,,86,85
2640,note_on,30,0,4,,,,,,,,7,,,67,70
2640,note_on,0,0,4,,,,,,,,7,,,74,78
2729,note_on,89,0,4,,,,,,,,7,,,74,0
2729,note_on,0,0,4,,,,,,,,7,,,67,0
2729,note_on,0,0,2,,,,,,,,6,,,74,0
2729,note_on,89,0,2,,,,,,,,6,,,71,0
2729,note_on,89,0,1,,,,,,,,3,,,86,0
2730,note_on,0,0,2,,,,,,,,6,,,72,80
2730,note_on,1,0,1,,,,,,,,3,,,88,85
2730,note_on,1,0,4,,,,,,,,7,,,72,80
2730,note_on,0,0,4,,,,,,,,7,,,76,78
2730,note_on,1,0,2,,,,,,,,6,,,76,72
2759,note_on,0,0,2,,,,,,,,6,,,76,0
2759,note_on,29,0,2,,,,,,,,6,,,72,0
2759,note_on,29,0,4,,,,,,,,7,,,76,0
2759,note_on,0,0,4,,,,,,,,7,,,72,0
2759,note_on,29,0,1,,,,,,,,3,,,88,0
2760,note_on,1,0,1,,,,,,,,3,,,89,82
2760,note_on,0,0,4,,,,,,,,7,,,74,74
2760,note_on,1,0,2,,,,,,,,6,,,74,80
2760,note_on,1,0,4,,,,,,,,7,,,77,82
2760,note_on,0,0,2,,,,,,,,6,,,77,70
2819,note_on,0,0,4,,,,,,,,7,,,77,0
2819,note_on,59,0,1,,,,,,,,3,,,89,0
2819,note_on,0,0,2,,,,,,,,6,,,74,0
2819,note_on,59,0,4,,,,,,,,7,,,74,0
2819,note_on,59,0,2,,,,,,,,6,,,77,0
2820,note_on,0,0,4,,,,,,,,7,,,67,74
2820,note_on,1,0,1,,,,,,,,3,,,91,85
2820,note_on,1,0,4,,,,,,,,7,,,74,85
2820,note_on,0,0,2,,,,,,,,6,,,79,78
2820,note_on,1,0,2,,,,,,,,6,,,71,66
2879,note_on,0,0,2,,,,,,,,6,,,71,0
2879,note_on,59,0,2,,,,,,,,6,,,79,0
2879,note_on,59,0,4,,,,,,,,7,,,67,0
2879,note_on,0,0,4,,,,,,,,7,,,74,0
2879,note_on,59,0,1,,,,,,,,3,,,91,0
2880,note_on,0,0,4,,,,,,,,7,,,72,80
2880,note_on,1,0,4,,,,,,,,7,,,76,76
2880,note_on,361,0,6,,,,,,,,4,,,48,72
2880,note_on,1,0,1,,,,,,,,3,,,88,85
2880,note_on,0,0,5,,,,,,,,1,,,72,70
2880,note_on,1,0,2,,,,,,,,6,,,76,85
2880,note_on,0,0,2,,,,,,,,6,,,72,80
2880,note_on,361,0,3,,,,,,,,0,,,60,82
2880,note_on,361,0,5,,,,,,,,1,,,76,80
2939,note_on,0,0,5,,,,,,,,1,,,76,0
2939,note_on,59,0,5,,,,,,,,1,,,72,0
2939,note_on,59,0,3,,,,,,,,0,,,60,0
2939,note_on,0,0,2,,,,,,,,6,,,76,0
2939,note_on,0,0,4,,,,,,,,7,,,76,0
2939,note_on,59,0,6,,,,,,,,4,,,48,0
2939,note_on,59,0,1,,,,,,,,3,,,88,0
2939,note_on,59,0,2,,,,,,,,6,,,72,0
2939,note_on,59,0,4,,,,,,,,7,,,72,0
2940,note_on,1,0,3,,,,,,,,0,,,48,80
2940,note_on,1,0,5,,,,,,,,1,,,72,72
2940,note_on,0,0,5,,,,,,,,1,,,76,72
2940,note_on,1,0,6,,,,,,,,4,,,48,68
2999,note_on,59,0,6,,,,,,,,4,,,48,0
2999,note_on,0,0,5,,,,,,,,1,,,72,0
2999,note_on,59,0,3,,,,,,,,0,,,48,0
2999,note_on,59,0,5,,,,,,,,1,,,76,0
3000,note_on,961,0,9,,,,,,,,12,,,84,82
3030,note_on,30,0,9,,,,,,,,12,,,84,0
3060,note_on,30,0,9,,,,,,,,12,,,84,80
3119,note_on,59,0,9,,,,,,,,12,,,84,0
3120,note_on,1,0,9,,,,,,,,12,,,79,78
3179,note_on,59,0,9,,,,,,,,12,,,79,0
3180,note_on,1,0,9,,,,,,,,12,,,79,74
3239,note_on,59,0,9,,,,,,,,12,,,79,0
3240,note_on,1,0,9,,,,,,,,12,,,81,76
3299,note_on,59,0,9,,,,,,,,12,,,81,0
3300,note_on,1,0,9,,,,,,,,12,,,81,70
3359,note_on,59,0,9,,,,,,,,12,,,81,0
3360,note_on,1,0,9,,,,,,,,12,,,76,74
3360,note_on,421,0,4,,,,,,,,7,,,60,82
3360,note_on,1321,0,12,,,,,,,,15,,,57,64
3360,note_on,0,0,4,,,,,,,,7,,,72,82
3419,note_on,59,0,9,,,,,,,,12,,,76,0
3420,note_on,1,0,9,,,,,,,,12,,,76,70
3479,note_on,59,0,9,,,,,,,,12,,,76,0
3480,note_on,1,0,9,,,,,,,,12,,,78,68
3480,note_on,1441,0,11,,,,,,,,14,,,60,74
3480,note_on,1441,0,10,,,,,,,,13,,,72,70
3510,note_on,30,0,11,,,,,,,,14,,,60,0
3539,note_on,59,0,9,,,,,,,,12,,,78,0
3539,note_on,59,0,10,,,,,,,,13,,,72,0
3540,note_on,30,0,11,,,,,,,,14,,,60,66
3540,note_on,1,0,9,,,,,,,,12,,,78,66
3540,note_on,1,0,10,,,,,,,,13,,,72,80
3570,note_on,30,0,11,,,,,,,,14,,,60,0
3599,note_on,59,0,10,,,,,,,,13,,,72,0
3599,note_on,239,0,12,,,,,,,,15,,,57,0
3599,note_on,59,0,9,,,,,,,,12,,,78,0
3599,note_on,0,0,4,,,,,,,,7,,,60,0
3599,note_on,239,0,4,,,,,,,,7,,,72,0
3600,note_on,1,0,12,,,,,,,,15,,,55,72
3600,note_on,1,0,9,,,,,,,,12,,,79,66
3600,note_on,1,0,10,,,,,,,,13,,,72,78
3600,note_on,0,0,4,,,,,,,,7,,,72,76
3600,note_on,1,0,4,,,,,,,,7,,,76,80
3600,note_on,30,0,11,,,,,,,,14,,,60,76
3659,note_on,59,0,9,,,,,,,,12,,,79,0
3660,note_on,60,0,12,,,,,,,,15,,,55,0
3660,note_on,1,0,9,,,,,,,,12,,,76,80
3689,note_on,29,0,9,,,,,,,,12,,,76,0
3689,note_on,89,0,10,,,,,,,,13,,,72,0
3689,note_on,89,0,11,,,,,,,,14,,,60,0
3690,note_on,1,0,10,,,,,,,,13,,,74,70
3690,note_on,1,0,11,,,,,,,,14,,,62,82
3719,note_on,29,0,10,,,,,,,,13,,,74,0
3719,note_on,29,0,11,,,,,,,,14,,,62,0
3720,note_on,1,0,10,,,,,,,,13,,,76,72
3720,note_on,1,0,11,,,,,,,,14,,,64,72
3720,note_on,60,0,12,,,,,,,,15,,,43,78
3720,note_on,31,0,9,,,,,,,,12,,,79,80
3749,note_on,29,0,10,,,,,,,,13,,,76,0
3749,note_on,29,0,11,,,,,,,,14,,,64,0
3750,note_on,1,0,10,,,,,,,,13,,,77,80
3750,note_on,1,0,11,,,,,,,,14,,,65,72
3779,note_on,0,0,4,,,,,,,,7,,,76,0
3779,note_on,179,0,4,,,,,,,,7,,,72,0
3779,note_on,29,0,10,,,,,,,,13,,,77,0
3779,note_on,29,0,11,,,,,,,,14,,,65,0
3779,note_on,59,0,9,,,,,,,,12,,,79,0
3780,note_on,0,0,4,,,,,,,,7,,,74,80
3780,note_on,1,0,4,,,,,,,,7,,,67,70
3780,note_on,60,0,12,,,,,,,,15,,,43,0
3780,note_on,1,0,10,,,,,,,,13,,,74,70
3780,note_on,1,0,11,,,,,,,,14,,,62,82
3780,note_on,1,0,9,,,,,,,,12,,,71,78
3809,note_on,29,0,9,,,,,,,,12,,,71,0
3809,note_on,29,0,11,,,,,,,,14,,,62,0
3809,note_on,29,0,10,,,,,,,,13,,,74,0
3810,note_on,1,0,10,,,,,,,,13,,,76,80
3810,note_on,1,0,11,,,,,,,,14,,,64,82
3839,note_on,59,0,4,,,,,,,,7,,,74,0
3839,note_on,29,0,10,,,,,,,,13,,,76,0
3839,note_on,29,0,11,,,,,,,,14,,,64,0
3839,note_on,0,0,4,,,,,,,,7,,,67,0
3840,note_on,60,0,12,,,,,,,,15,,,48,78
3840,note_on,31,0,9,,,,,,,,12,,,72,82
3840,note_on,1,0,10,,,,,,,,13,,,72,78
3840,note_on,0,0,4,,,,,,,,7,,,72,80
3840,note_on,1,0,11,,,,,,,,14,,,60,76
3840,note_on,1,0,4,,,,,,,,7,,,64,72
3899,note_on,0,0,4,,,,,,,,7,,,64,0
3899,note_on,59,0,4,,,,,,,,7,,,72,0
3900,note_on,60,0,12,,,,,,,,15,,,48,0
3959,note_on,119,0,11,,,,,,,,14,,,60,0
3959,note_on,119,0,10,,,,,,,,13,,,72,0
3959,note_on,119,0,9,,,,,,,,12,,,72,0
3960,note_on,60,0,12,,,,,,,,15,,,60,72
4019,note_on,59,0,12,,,,,,,,15,,,60,0
4020,note_on,1,0,12,,,,,,,,15,,,60,68
4079,note_on,59,0,12,,,,,,,,15,,,60,0
4080,note_on,1,0,12,,,,,,,,15,,,55,70
4139,note_on,59,0,12,,,,,,,,15,,,55,0
4140,note_on,1,0,12,,,,,,,,15,,,55,61
4199,note_on,59,0,12,,,,,,,,15,,,55,0
4200,note_on,1,0,12,,,,,,,,15,,,56,58
4259,note_on,59,0,12,,,,,,,,15,,,56,0
4260,note_on,1,0,12,,,,,,,,15,,,56,64
4319,note_on,59,0,12,,,,,,,,15,,,56,0
4320,note_on,0,0,4,,,,,,,,7,,,60,68
4320,marker,4320,1,0,,,,,,,,,,,,
4320,note_on,421,0,4,,,,,,,,7,,,72,76
4320,note_on,1,0,12,,,,,,,,15,,,51,62
4379,note_on,59,0,12,,,,,,,,15,,,51,0
4380,note_on,1,0,12,,,,,,,,15,,,51,62
4439,note_on,59,0,12,,,,,,,,15,,,51,0
4440,note_on,481,0,10,,,,,,,,13,,,63,66
4440,note_on,481,0,11,,,,,,,,14,,,68,66
4440,note_on,1,0,12,,,,,,,,15,,,53,66
4440,note_on,481,0,9,,,,,,,,12,,,72,68
4499,note_on,59,0,12,,,,,,,,15,,,53,0
4499,note_on,59,0,9,,,,,,,,12,,,72,0
4499,note_on,59,0,10,,,,,,,,13,,,63,0
4499,note_on,59,0,11,,,,,,,,14,,,68,0
4500,note_on,1,0,10,,,,,,,,13,,,63,66
4500,note_on,1,0,9,,,,,,,,12,,,72,68
4500,note_on,1,0,12,,,,,,,,15,,,53,72
4500,note_on,1,0,11,,,,,,,,14,,,68,66
4559,note_on,59,0,12,,,,,,,,15,,,53,0
4559,note_on,239,0,4,,,,,,,,7,,,60,0
4559,note_on,59,0,9,,,,,,,,12,,,72,0
4559,note_on,59,0,10,,,,,,,,13,,,63,0
4559,note_on,59,0,11,,,,,,,,14,,,68,0
4559,note_on,0,0,4,,,,,,,,7,,,72,0
4560,note_on,0,0,4,,,,,,,,7,,,67,70
4560,note_on,1,0,4,,,,,,,,7,,,55,74
4560,note_on,1,0,11,,,,,,,,14,,,67,76
4560,note_on,1,0,9,,,,,,,,12,,,72,76
4560,note_on,1,0,12,,,,,,,,15,,,55,68
4560,note_on,1,0,10,,,,,,,,13,,,63,70
4649,note_on,89,0,10,,,,,,,,13,,,63,0
4649,note_on,89,0,9,,,,,,,,12,,,72,0
4650,note_on,1,0,9,,,,,,,,12,,,74,66
4650,note_on,1,0,10,,,,,,,,13,,,65,74
4679,note_on,29,0,10,,,,,,,,13,,,65,0
4679,note_on,29,0,9,,,,,,,,12,,,74,0
4680,note_on,1,0,10,,,,,,,,13,,,67,72
4680,note_on,1,0,9,,,,,,,,12,,,75,74
4709,note_on,29,0,10,,,,,,,,13,,,67,0
4709,note_on,29,0,9,,,,,,,,12,,,75,0
4710,note_on,1,0,10,,,,,,,,13,,,68,66
4710,note_on,1,0,9,,,,,,,,12,,,77,80
4739,note_on,29,0,10,,,,,,,,13,,,68,0
4739,note_on,29,0,9,,,,,,,,12,,,77,0
4739,note_on,179,0,11,,,,,,,,14,,,67,0
4740,note_on,1,0,9,,,,,,,,12,,,74,76
4740,note_on,1,0,11,,,,,,,,14,,,59,80
4740,note_on,1,0,10,,,,,,,,13,,,65,60
4769,note_on,29,0,9,,,,,,,,12,,,74,0
4769,note_on,29,0,10,,,,,,,,13,,,65,0
4770,note_on,1,0,9,,,,,,,,12,,,75,70
4770,note_on,1,0,10,,,,,,,,13,,,67,76
4799,note_on,29,0,10,,,,,,,,13,,,67,0
4799,note_on,239,0,4,,,,,,,,7,,,67,0
4799,note_on,29,0,9,,,,,,,,12,,,75,0
4799,note_on,239,0,12,,,,,,,,15,,,55,0
4799,note_on,0,0,4,,,,,,,,7,,,55,0
4799,note_on,59,0,11,,,,,,,,14,,,59,0
4800,note_on,0,0,4,,,,,,,,7,,,72,64
4800,note_on,1,0,4,,,,,,,,7,,,60,74
4800,note_on,1,0,11,,,,,,,,14,,,60,76
4800,note_on,1,0,12,,,,,,,,15,,,56,76
4800,note_on,1,0,9,,,,,,,,12,,,72,82
4800,note_on,1,0,10,,,,,,,,13,,,63,82
4830,note_on,1891,0,2,,,,,,,,6,,,71,85
4830,note_on,1831,0,3,,,,,,,,0,,,59,85
4859,note_on,29,0,2,,,,,,,,6,,,71,0
4859,note_on,29,0,3,,,,,,,,0,,,59,0
4860,note_on,1,0,2,,,,,,,,6,,,72,74
4860,note_on,1,0,3,,,,,,,,0,,,60,74
4889,note_on,29,0,3,,,,,,,,0,,,60,0
4889,note_on,29,0,2,,,,,,,,6,,,72,0
4890,note_on,1,0,2,,,,,,,,6,,,74,74
4890,note_on,1,0,3,,,,,,,,0,,,62,74
4919,note_on,119,0,11,,,,,,,,14,,,60,0
4919,note_on,29,0,2,,,,,,,,6,,,74,0
4919,note_on,29,0,3,,,,,,,,0,,,62,0
4919,note_on,119,0,9,,,,,,,,12,,,72,0
4920,note_on,1,0,2,,,,,,,,6,,,75,70
4920,note_on,1,0,9,,,,,,,,12,,,72,80
4920,note_on,1,0,3,,,,,,,,0,,,63,70
4920,note_on,1,0,11,,,,,,,,14,,,56,78
4949,note_on,29,0,3,,,,,,,,0,,,63,0
4949,note_on,29,0,2,,,,,,,,6,,,75,0
4950,note_on,1,0,2,,,,,,,,6,,,76,85
4950,note_on,1,0,3,,,,,,,,0,,,64,85
4979,note_on,59,0,9,,,,,,,,12,,,72,0
4979,note_on,29,0,2,,,,,,,,6,,,76,0
4979,note_on,29,0,3,,,,,,,,0,,,64,0
4980,note_on,1,0,9,,,,,,,,12,,,72,78
4980,note_on,1,0,2,,,,,,,,6,,,77,78
4980,note_on,1,0,3,,,,,,,,0,,,65,78
5009,note_on,29,0,2,,,,,,,,6,,,77,0
5009,note_on,29,0,3,,,,,,,,0,,,65,0
5010,note_on,1,0,3,,,,,,,,0,,,66,76
5010,note_on,1,0,2,,,,,,,,6,,,78,76
5039,note_on,29,0,3,,,,,,,,0,,,66,0
5039,note_on,0,0,4,,,,,,,,7,,,60,0
5039,note_on,239,0,4,,,,,,,,7,,,72,0
5039,note_on,29,0,2,,,,,,,,6,,,78,0
5039,note_on,239,0,12,,,,,,,,15,,,56,0
5039,note_on,119,0,11,,,,,,,,14,,,56,0
5039,note_on,59,0,9,,,,,,,,12,,,72,0
5040,note_on,1,0,12,,,,,,,,15,,,55,85
5040,note_on,1,0,4,,,,,,,,7,,,67,78
5040,note_on,1,0,9,,,,,,,,12,,,72,82
5040,note_on,1,0,2,,,,,,,,6,,,79,82
5040,note_on,1,0,11,,,,,,,,14,,,55,85
5040,note_on,1,0,3,,,,,,,,0,,,67,82
5040,note_on,0,0,4,,,,,,,,7,,,55,70
5129,note_on,89,0,9,,,,,,,,12,,,72,0
5129,note_on,329,0,10,,,,,,,,13,,,63,0
5130,note_on,1,0,10,,,,,,,,13,,,62,82
5130,note_on,1,0,9,,,,,,,,12,,,74,72
5159,note_on,29,0,10,,,,,,,,13,,,62,0
5159,note_on,29,0,9,,,,,,,,12,,,74,0
5160,note_on,1,0,10,,,,,,,,13,,,60,82
5160,note_on,1,0,9,,,,,,,,12,,,75,66
5189,note_on,29,0,9,,,,,,,,12,,,75,0
5190,note_on,1,0,9,,,,,,,,12,,,77,82
5219,note_on,59,0,10,,,,,,,,13,,,60,0
5219,note_on,29,0,9,,,,,,,,12,,,77,0
5220,note_on,1,0,9,,,,,,,,12,,,74,82
5220,note_on,1,0,10,,,,,,,,13,,,59,82
5249,note_on,29,0,9,,,,,,,,12,,,74,0
5250,note_on,1,0,9,,,,,,,,12,,,75,74
5279,note_on,239,0,11,,,,,,,,14,,,55,0
5279,note_on,239,0,4,,,,,,,,7,,,55,0
5279,note_on,59,0,10,,,,,,,,13,,,59,0
5279,note_on,239,0,12,,,,,,,,15,,,55,0
5279,note_on,0,0,4,,,,,,,,7,,,67,0
5279,note_on,29,0,9,,,,,,,,12,,,75,0
5279,note_on,239,0,3,,,,,,,,0,,,67,0
5279,note_on,239,0,2,,,,,,,,6,,,79,0
5280,note_on,1,0,11,,,,,,,,14,,,54,74
5280,note_on,0,0,4,,,,,,,,7,,,72,68
5280,note_on,1,0,4,,,,,,,,7,,,60,68
5280,note_on,1,0,10,,,,,,,,13,,,57,85
5280,note_on,1,0,9,,,,,,,,12,,,72,80
5280,note_on,1,0,12,,,,,,,,15,,,54,72
5310,note_on,31,0,3,,,,,,,,0,,,63,70
5310,note_on,31,0,2,,,,,,,,6,,,75,70
5310,note_on,2371,0,1,,,,,,,,3,,,87,72
5339,note_on,29,0,1,,,,,,,,3,,,87,0
5339,note_on,29,0,3,,,,,,,,0,,,63,0
5339,note_on,29,0,2,,,,,,,,6,,,75,0
5340,note_on,1,0,3,,,,,,,,0,,,62,82
5340,note_on,1,0,2,,,,,,,,6,,,74,82
5340,note_on,1,0,1,,,,,,,,3,,,86,82
5369,note_on,29,0,2,,,,,,,,6,,,74,0
5369,note_on,29,0,3,,,,,,,,0,,,62,0
5369,note_on,29,0,1,,,,,,,,3,,,86,0
5370,note_on,1,0,1,,,,,,,,3,,,84,78
5370,note_on,1,0,3,,,,,,,,0,,,60,78
5370,note_on,1,0,2,,,,,,,,6,,,72,78
5399,note_on,29,0,2,,,,,,,,6,,,72,0
5399,note_on,119,0,10,,,,,,,,13,,,57,0
5399,note_on,119,0,9,,,,,,,,12,,,72,0
5399,note_on,29,0,3,,,,,,,,0,,,60,0
5399,note_on,29,0,1,,,,,,,,3,,,84,0
5400,note_on,1,0,10,,,,,,,,13,,,63,82
5400,note_on,1,0,3,,,,,,,,0,,,59,80
5400,note_on,1,0,1,,,,,,,,3,,,83,80
5400,note_on,1,0,9,,,,,,,,12,,,72,82
5400,note_on,1,0,2,,,,,,,,6,,,71,80
5429,note_on,29,0,2,,,,,,,,6,,,71,0
5429,note_on,29,0,3,,,,,,,,0,,,59,0
5429,note_on,29,0,1,,,,,,,,3,,,83,0
5430,note_on,1,0,3,,,,,,,,0,,,58,70
5430,note_on,1,0,2,,,,,,,,6,,,70,70
5430,note_on,1,0,1,,,,,,,,3,,,82,76
5459,note_on,59,0,10,,,,,,,,13,,,63,0
5459,note_on,29,0,3,,,,,,,,0,,,58,0
5459,note_on,29,0,2,,,,,,,,6,,,70,0
5459,note_on,29,0,1,,,,,,,,3,,,82,0
5459,note_on,59,0,9,,,,,,,,12,,,72,0
5460,note_on,1,0,9,,,,,,,,12,,,72,74
5460,note_on,1,0,10,,,,,,,,13,,,63,74
5460,note_on,1,0,3,,,,,,,,0,,,57,82
5460,note_on,1,0,1,,,,,,,,3,,,81,85
5460,note_on,1,0,2,,,,,,,,6,,,69,82
5489,note_on,29,0,1,,,,,,,,3,,,81,0
5489,note_on,29,0,3,,,,,,,,0,,,57,0
5489,note_on,29,0,2,,,,,,,,6,,,69,0
5490,note_on,1,0,1,,,,,,,,3,,,80,74
5490,note_on,1,0,2,,,,,,,,6,,,68,78
5490,note_on,1,0,3,,,,,,,,0,,,56,78
5519,note_on,239,0,4,,,,,,,,7,,,72,0
5519,note_on,29,0,3,,,,,,,,0,,,56,0
5519,note_on,239,0,11,,,,,,,,14,,,54,0
5519,note_on,59,0,10,,,,,,,,13,,,63,0
5519,note_on,29,0,1,,,,,,,,3,,,80,0
5519,note_on,239,0,12,,,,,,,,15,,,54,0
5519,note_on,0,0,4,,,,,,,,7,,,60,0
5519,note_on,29,0,2,,,,,,,,6,,,68,0
5519,note_on,59,0,9,,,,,,,,12,,,72,0
5520,note_on,1,0,3,,,,,,,,0,,,55,82
5520,note_on,1,0,10,,,,,,,,13,,,64,85
5520,note_on,1,0,2,,,,,,,,6,,,67,82
5520,note_on,1,0,12,,,,,,,,15,,,55,87
5520,note_on,1,0,9,,,,,,,,12,,,72,74
5520,note_on,1,0,11,,,,,,,,14,,,55,85
5520,note_on,0,0,4,,,,,,,,7,,,55,64
5520,note_on,1,0,4,,,,,,,,7,,,67,68
5520,note_on,1,0,1,,,,,,,,3,,,79,80
5580,note_on,60,0,12,,,,,,,,15,,,55,0
5609,note_on,89,0,10,,,,,,,,13,,,64,0
5609,note_on,89,0,9,,,,,,,,12,,,72,0
5610,note_on,1,0,9,,,,,,,,12,,,74,80
5610,note_on,1,0,10,,,,,,,,13,,,65,80
5639,note_on,29,0,10,,,,,,,,13,,,65,0
5639,note_on,29,0,9,,,,,,,,12,,,74,0
5640,note_on,1,0,9,,,,,,,,12,,,76,80
5640,note_on,1,0,10,,,,,,,,13,,,67,80
5640,note_on,60,0,12,,,,,,,,15,,,43,80
5669,note_on,29,0,9,,,,,,,,12,,,76,0
5670,note_on,1,0,9,,,,,,,,12,,,77,68
5699,note_on,179,0,2,,,,,,,,6,,,67,0
5699,note_on,59,0,10,,,,,,,,13,,,67,0
5699,note_on,29,0,9,,,,,,,,12,,,77,0
5699,note_on,179,0,3,,,,,,,,0,,,55,0
5699,note_on,179,0,1,,,,,,,,3,,,79,0
5700,note_on,0,0,3,,,,,,,,0,,,65,82
5700,note_on,60,0,12,,,,,,,,15,,,43,0
5700,note_on,1,0,9,,,,,,,,12,,,74,76
5700,note_on,0,0,2,,,,,,,,6,,,77,82
5700,note_on,1,0,2,,,,,,,,6,,,74,82
5700,note_on,1,0,10,,,,,,,,13,,,71,72
5700,note_on,1,0,3,,,,,,,,0,,,62,82
5700,note_on,1,0,1,,,,,,,,3,,,83,85
5709,note_on,9,0,10,,,,,,,,13,,,71,0
5710,note_on,1,0,10,,,,,,,,13,,,72,70
5719,note_on,9,0,10,,,,,,,,13,,,72,0
5720,note_on,1,0,10,,,,,,,,13,,,71,72
5729,note_on,9,0,10,,,,,,,,13,,,71,0
5729,note_on,29,0,9,,,,,,,,12,,,74,0
5730,note_on,1,0,10,,,,,,,,13,,,69,68
5730,note_on,1,0,9,,,,,,,,12,,,76,89
5744,note_on,14,0,10,,,,,,,,13,,,69,0
5745,note_on,1,0,10,,,,,,,,13,,,71,74
5759,note_on,239,0,4,,,,,,,,7,,,55,0
5759,note_on,0,0,3,,,,,,,,0,,,62,0
5759,note_on,0,0,2,,,,,,,,6,,,74,0
5759,note_on,59,0,2,,,,,,,,6,,,77,0
5759,note_on,239,0,11,,,,,,,,14,,,55,0
5759,note_on,0,0,4,,,,,,,,7,,,67,0
5759,note_on,29,0,9,,,,,,,,12,,,76,0
5759,note_on,14,0,10,,,,,,,,13,,,71,0
5759,note_on,59,0,3,,,,,,,,0,,,65,0
5759,note_on,59,0,1,,,,,,,,3,,,83,0
5760,note_on,1,0,3,,,,,,,,0,,,60,80
5760,note_on,60,0,12,,,,,,,,15,,,48,78
5760,note_on,1,0,10,,,,,,,,13,,,72,80
5760,note_on,0,0,2,,,,,,,,6,,,76,87
5760,note_on,1,0,2,,,,,,,,6,,,72,80
5760,note_on,1,0,4,,,,,,,,7,,,72,82
5760,note_on,0,0,3,,,,,,,,0,,,64,87
5760,note_on,1,0,11,,,,,,,,14,,,60,82
5760,note_on,1,0,9,,,,,,,,12,,,72,80
5760,note_on,2761,0,6,,,,,,,,4,,,48,82
5760,note_on,0,0,5,,,,,,,,1,,,64,82
5760,note_on,2761,0,5,,,,,,,,1,,,72,82
5760,note_on,0,0,4,,,,,,,,7,,,60,82
5760,note_on,1,0,1,,,,,,,,3,,,84,85
5779,note_on,19,0,9,,,,,,,,12,,,72,0
5779,note_on,19,0,10,,,,,,,,13,,,72,0
5780,note_on,1,0,10,,,,,,,,13,,,76,87
5780,note_on,1,0,9,,,,,,,,12,,,76,87
5799,note_on,19,0,10,,,,,,,,13,,,76,0
5799,note_on,19,0,9,,,,,,,,12,,,76,0
5800,note_on,1,0,9,,,,,,,,12,,,79,80
5800,note_on,1,0,10,,,,,,,,13,,,79,80
5819,note_on,19,0,9,,,,,,,,12,,,79,0
5819,note_on,19,0,10,,,,,,,,13,,,79,0
5820,note_on,1,0,9,,,,,,,,12,,,79,85
5820,note_on,1,0,10,,,,,,,,13,,,79,85
5839,note_on,19,0,9,,,,,,,,12,,,79,0
5839,note_on,19,0,10,,,,,,,,13,,,79,0
5840,note_on,1,0,9,,,,,,,,12,,,79,74
5840,note_on,1,0,10,,,,,,,,13,,,79,74
5859,note_on,19,0,9,,,,,,,,12,,,79,0
5859,note_on,19,0,10,,,,,,,,13,,,79,0
5860,note_on,1,0,10,,,,,,,,13,,,79,66
5860,note_on,1,0,9,,,,,,,,12,,,79,66
5879,note_on,119,0,4,,,,,,,,7,,,60,0
5879,note_on,19,0,9,,,,,,,,12,,,79,0
5879,note_on,0,0,4,,,,,,,,7,,,72,0
5879,note_on,119,0,5,,,,,,,,1,,,64,0
5879,note_on,0,0,5,,,,,,,,1,,,72,0
5879,note_on,119,0,2,,,,,,,,6,,,76,0
5879,note_on,0,0,2,,,,,,,,6,,,72,0
5879,note_on,119,0,11,,,,,,,,14,,,60,0
5879,note_on,119,0,6,,,,,,,,4,,,48,0
5879,note_on,0,0,3,,,,,,,,0,,,60,0
5879,note_on,119,0,3,,,,,,,,0,,,64,0
5879,note_on,119,0,12,,,,,,,,15,,,48,0
5879,note_on,19,0,10,,,,,,,,13,,,79,0
5879,note_on,119,0,1,,,,,,,,3,,,84,0
5880,note_on,1,0,10,,,,,,,,13,,,79,68
5880,note_on,1,0,9,,,,,,,,12,,,79,68
5899,note_on,19,0,9,,,,,,,,12,,,79,0
5899,note_on,19,0,10,,,,,,,,13,,,79,0
5900,note_on,1,0,9,,,,,,,,12,,,79,59
5900,note_on,1,0,10,,,,,,,,13,,,79,59
5919,note_on,19,0,9,,,,,,,,12,,,79,0
5919,note_on,19,0,10,,,,,,,,13,,,79,0
5920,note_on,1,0,10,,,,,,,,13,,,79,66
5920,note_on,1,0,9,,,,,,,,12,,,79,66
5939,note_on,19,0,10,,,,,,,,13,,,79,0
5939,note_on,19,0,9,,,,,,,,12,,,79,0
5940,note_on,0,0,2,,,,,,,,6,,,71,80
5940,note_on,61,0,2,,,,,,,,6,,,79,80
5940,note_on,0,0,4,,,,,,,,7,,,67,82
5940,note_on,0,0,5,,,,,,,,1,,,67,82
5940,note_on,1,0,10,,,,,,,,13,,,83,82
5940,note_on,61,0,3,,,,,,,,0,,,55,80
5940,note_on,61,0,4,,,,,,,,7,,,74,89
5940,note_on,61,0,5,,,,,,,,1,,,74,89
5940,note_on,61,0,12,,,,,,,,15,,,55,87
5940,note_on,1,0,9,,,,,,,,12,,,83,82
5940,note_on,61,0,1,,,,,,,,3,,,86,87
5940,note_on,61,0,6,,,,,,,,4,,,43,82
5940,note_on,61,0,11,,,,,,,,14,,,67,78
5959,note_on,19,0,10,,,,,,,,13,,,83,0
5959,note_on,19,0,9,,,,,,,,12,,,83,0
5960,note_on,1,0,10,,,,,,,,13,,,81,76
5960,note_on,1,0,9,,,,,,,,12,,,81,76
5979,note_on,19,0,10,,,,,,,,13,,,81,0
5979,note_on,19,0,9,,,,,,,,12,,,81,0
5980,note_on,1,0,9,,,,,,,,12,,,79,82
5980,note_on,1,0,10,,,,,,,,13,,,79,82
5999,note_on,59,0,11,,,,,,,,14,,,67,0
5999,note_on,0,0,5,,,,,,,,1,,,74,0
5999,note_on,59,0,5,,,,,,,,1,,,67,0
5999,note_on,59,0,2,,,,,,,,6,,,71,0
5999,note_on,59,0,6,,,,,,,,4,,,43,0
5999,note_on,0,0,2,,,,,,,,6,,,79,0
5999,note_on,0,0,4,,,,,,,,7,,,74,0
5999,note_on,59,0,4,,,,,,,,7,,,67,0
5999,note_on,59,0,1,,,,,,,,3,,,86,0
5999,note_on,19,0,10,,,,,,,,13,,,79,0
5999,note_on,19,0,9,,,,,,,,12,,,79,0
5999,note_on,59,0,12,,,,,,,,15,,,55,0
5999,note_on,59,0,3,,,,,,,,0,,,55,0
6000,note_on,0,0,4,,,,,,,,7,,,72,82
6000,note_on,1,0,5,,,,,,,,1,,,76,72
6000,note_on,0,0,5,,,,,,,,1,,,72,82
6000,note_on,1,0,2,,,,,,,,6,,,72,66
6000,note_on,1,0,9,,,,,,,,12,,,84,82
6000,note_on,1,0,12,,,,,,,,15,,,60,80
6000,note_on,0,0,2,,,,,,,,6,,,79,70
6000,note_on,1,0,4,,,,,,,,7,,,76,72
6000,note_on,1,0,1,,,,,,,,3,,,88,85
6000,note_on,1,0,3,,,,,,,,0,,,60,78
6000,note_on,1,0,10,,,,,,,,13,,,84,82
6000,note_on,1,0,11,,,,,,,,14,,,72,85
6000,note_on,1,0,6,,,,,,,,4,,,48,82
6019,note_on,19,0,10,,,,,,,,13,,,84,0
6019,note_on,19,0,9,,,,,,,,12,,,84,0
6020,note_on,1,0,10,,,,,,,,13,,,79,74
6020,note_on,1,0,9,,,,,,,,12,,,79,74
6039,note_on,19,0,9,,,,,,,,12,,,79,0
6039,note_on,19,0,10,,,,,,,,13,,,79,0
6040,note_on,1,0,9,,,,,,,,12,,,76,80
6040,note_on,1,0,10,,,,,,,,13,,,76,80
6059,note_on,59,0,1,,,,,,,,3,,,88,0
6059,note_on,59,0,5,,,,,,,,1,,,72,0
6059,note_on,0,0,5,,,,,,,,1,,,76,0
6059,note_on,0,0,4,,,,,,,,7,,,76,0
6059,note_on,59,0,4,,,,,,,,7,,,72,0
6059,note_on,19,0,9,,,,,,,,12,,,76,0
6059,note_on,19,0,10,,,,,,,,13,,,76,0
6060,note_on,60,0,6,,,,,,,,4,,,48,0
6060,note_on,60,0,11,,,,,,,,14,,,72,0
6060,note_on,60,0,2,,,,,,,,6,,,79,0
6060,note_on,60,0,3,,,,,,,,0,,,60,0
6060,note_on,0,0,2,,,,,,,,6,,,72,0
6060,note_on,60,0,12,,,,,,,,15,,,60,0
6060,note_on,1,0,9,,,,,,,,12,,,72,78
6060,note_on,1,0,10,,,,,,,,13,,,72,78
6079,note_on,19,0,10,,,,,,,,13,,,72,0
6079,note_on,19,0,9,,,,,,,,12,,,72,0
6080,note_on,1,0,10,,,,,,,,13,,,74,78
6080,note_on,1,0,9,,,,,,,,12,,,74,78
6099,note_on,19,0,9,,,,,,,,12,,,74,0
6099,note_on,19,0,10,,,,,,,,13,,,74,0
6100,note_on,1,0,10,,,,,,,,13,,,76,82
6100,note_on,1,0,9,,,,,,,,12,,,76,82
6119,note_on,19,0,10,,,,,,,,13,,,76,0
6119,note_on,19,0,9,,,,,,,,12,,,76,0
6120,note_on,0,0,4,,,,,,,,7,,,74,85
6120,note_on,60,0,6,,,,,,,,4,,,43,85
6120,note_on,61,0,5,,,,,,,,1,,,67,87
6120,note_on,0,0,5,,,,,,,,1,,,74,85
6120,note_on,60,0,12,,,,,,,,15,,,55,85
6120,note_on,60,0,3,,,,,,,,0,,,55,80
6120,note_on,61,0,1,,,,,,,,3,,,86,85
6120,note_on,61,0,4,,,,,,,,7,,,67,87
6120,note_on,1,0,10,,,,,,,,13,,,77,76
6120,note_on,0,0,2,,,,,,,,6,,,79,76
6120,note_on,1,0,9,,,,,,,,12,,,77,76
6120,note_on,60,0,2,,,,,,,,6,,,71,82
6120,note_on,60,0,11,,,,,,,,14,,,67,78
6139,note_on,19,0,9,,,,,,,,12,,,77,0
6139,note_on,19,0,10,,,,,,,,13,,,77,0
6140,note_on,1,0,9,,,,,,,,12,,,74,80
6140,note_on,1,0,10,,,,,,,,13,,,74,80
6159,note_on,19,0,9,,,,,,,,12,,,74,0
6159,note_on,19,0,10,,,,,,,,13,,,74,0
6160,note_on,1,0,10,,,,,,,,13,,,71,80
6160,note_on,1,0,9,,,,,,,,12,,,71,80
6179,note_on,19,0,10,,,,,,,,13,,,71,0
6179,note_on,19,0,9,,,,,,,,12,,,71,0
6180,note_on,0,0,2,,,,,,,,6,,,71,0
6180,note_on,60,0,1,,,,,,,,3,,,86,0
6180,note_on,60,0,4,,,,,,,,7,,,74,0
6180,note_on,0,0,4,,,,,,,,7,,,67,0
6180,note_on,60,0,3,,,,,,,,0,,,55,0
6180,note_on,60,0,6,,,,,,,,4,,,43,0
6180,note_on,60,0,5,,,,,,,,1,,,74,0
6180,note_on,0,0,5,,,,,,,,1,,,67,0
6180,note_on,60,0,2,,,,,,,,6,,,79,0
6180,note_on,60,0,11,,,,,,,,14,,,67,0
6180,note_on,1,0,9,,,,,,,,12,,,67,85
6180,note_on,1,0,10,,,,,,,,13,,,67,85
6180,note_on,60,0,12,,,,,,,,15,,,55,0
6199,note_on,19,0,10,,,,,,,,13,,,67,0
6199,note_on,19,0,9,,,,,,,,12,,,67,0
6200,note_on,1,0,10,,,,,,,,13,,,69,74
6200,note_on,1,0,9,,,,,,,,12,,,69,74
6219,note_on,19,0,10,,,,,,,,13,,,69,0
6219,note_on,19,0,9,,,,,,,,12,,,69,0
6220,note_on,1,0,10,,,,,,,,13,,,71,82
6220,note_on,1,0,9,,,,,,,,12,,,71,82
6239,note_on,19,0,10,,,,,,,,13,,,71,0
6239,note_on,19,0,9,,,,,,,,12,,,71,0
6240,note_on,1,0,9,,,,,,,,12,,,72,80
6240,note_on,60,0,3,,,,,,,,0,,,48,80
6240,note_on,0,0,2,,,,,,,,6,,,76,82
6240,note_on,60,0,2,,,,,,,,6,,,79,78
6240,note_on,60,0,4,,,,,,,,7,,,72,87
6240,note_on,0,0,4,,,,,,,,7,,,64,82
6240,note_on,60,0,11,,,,,,,,14,,,60,82
6240,note_on,60,0,6,,,,,,,,4,,,48,85
6240,note_on,60,0,12,,,,,,,,15,,,48,78
6240,note_on,60,0,5,,,,,,,,1,,,72,87
6240,note_on,0,0,5,,,,,,,,1,,,64,82
6240,note_on,60,0,1,,,,,,,,3,,,84,82
6240,note_on,1,0,10,,,,,,,,13,,,72,80
6259,note_on,19,0,10,,,,,,,,13,,,72,0
6259,note_on,19,0,9,,,,,,,,12,,,72,0
6260,note_on,1,0,9,,,,,,,,12,,,76,76
6260,note_on,1,0,10,,,,,,,,13,,,76,76
6279,note_on,19,0,9,,,,,,,,12,,,76,0
6279,note_on,19,0,10,,,,,,,,13,,,76,0
6280,note_on,1,0,9,,,,,,,,12,,,79,74
6280,note_on,1,0,10,,,,,,,,13,,,79,74
6299,note_on,19,0,10,,,,,,,,13,,,79,0
6299,note_on,19,0,9,,,,,,,,12,,,79,0
6300,note_on,1,0,10,,,,,,,,13,,,79,74
6300,note_on,1,0,9,,,,,,,,12,,,79,74
6319,note_on,19,0,10,,,,,,,,13,,,79,0
6319,note_on,19,0,9,,,,,,,,12,,,79,0
6320,note_on,1,0,10,,,,,,,,13,,,79,66
6320,note_on,1,0,9,,,,,,,,12,,,79,66
6339,note_on,19,0,10,,,,,,,,13,,,79,0
6339,note_on,19,0,9,,,,,,,,12,,,79,0
6340,note_on,1,0,10,,,,,,,,13,,,79,64
6340,note_on,1,0,9,,,,,,,,12,,,79,64
6359,note_on,0,0,5,,,,,,,,1,,,72,0
6359,note_on,0,0,4,,,,,,,,7,,,72,0
6359,note_on,0,0,2,,,,,,,,6,,,79,0
6359,note_on,119,0,2,,,,,,,,6,,,76,0
6359,note_on,119,0,3,,,,,,,,0,,,48,0
6359,note_on,19,0,10,,,,,,,,13,,,79,0
6359,note_on,119,0,12,,,,,,,,15,,,48,0
6359,note_on,119,0,5,,,,,,,,1,,,64,0
6359,note_on,119,0,1,,,,,,,,3,,,84,0
6359,note_on,119,0,6,,,,,,,,4,,,48,0
6359,note_on,119,0,4,,,,,,,,7,,,64,0
6359,note_on,119,0,11,,,,,,,,14,,,60,0
6359,note_on,19,0,9,,,,,,,,12,,,79,0
6360,note_on,1,0,9,,,,,,,,12,,,79,70
6360,note_on,1,0,10,,,,,,,,13,,,79,70
6379,note_on,19,0,9,,,,,,,,12,,,79,0
6379,note_on,19,0,10,,,,,,,,13,,,79,0
6380,note_on,1,0,9,,,,,,,,12,,,79,66
6380,note_on,1,0,10,,,,,,,,13,,,79,66
6399,note_on,19,0,9,,,,,,,,12,,,79,0
6399,note_on,19,0,10,,,,,,,,13,,,79,0
6400,note_on,1,0,10,,,,,,,,13,,,79,70
6400,note_on,1,0,9,,,,,,,,12,,,79,70
6419,note_on,19,0,10,,,,,,,,13,,,79,0
6419,note_on,19,0,9,,,,,,,,12,,,79,0
6420,note_on,61,0,11,,,,,,,,14,,,67,85
6420,note_on,61,0,6,,,,,,,,4,,,43,85
6420,note_on,0,0,2,,,,,,,,6,,,71,80
6420,note_on,61,0,1,,,,,,,,3,,,86,85
6420,note_on,61,0,4,,,,,,,,7,,,67,80
6420,note_on,1,0,9,,,,,,,,12,,,83,72
6420,note_on,0,0,5,,,,,,,,1,,,74,85
6420,note_on,1,0,10,,,,,,,,13,,,83,72
6420,note_on,61,0,12,,,,,,,,15,,,55,74
6420,note_on,61,0,2,,,,,,,,6,,,79,80
6420,note_on,61,0,3,,,,,,,,0,,,55,85
6420,note_on,0,0,4,,,,,,,,7,,,74,85
6420,note_on,61,0,5,,,,,,,,1,,,67,80
6439,note_on,19,0,10,,,,,,,,13,,,83,0
6439,note_on,19,0,9,,,,,,,,12,,,83,0
6440,note_on,1,0,10,,,,,,,,13,,,81,72
6440,note_on,1,0,9,,,,,,,,12,,,81,72
6459,note_on,19,0,10,,,,,,,,13,,,81,0
6459,note_on,19,0,9,,,,,,,,12,,,81,0
6460,note_on,1,0,10,,,,,,,,13,,,79,82
6460,note_on,1,0,9,,,,,,,,12,,,79,82
6479,note_on,59,0,2,,,,,,,,6,,,71,0
6479,note_on,19,0,10,,,,,,,,13,,,79,0
6479,note_on,59,0,11,,,,,,,,14,,,67,0
6479,note_on,59,0,5,,,,,,,,1,,,74,0
6479,note_on,0,0,5,,,,,,,,1,,,67,0
6479,note_on,59,0,1,,,,,,,,3,,,86,0
6479,note_on,19,0,9,,,,,,,,12,,,79,0
6479,note_on,0,0,4,,,,,,,,7,,,67,0
6479,note_on,59,0,3,,,,,,,,0,,,55,0
6479,note_on,0,0,2,,,,,,,,6,,,79,0
6479,note_on,59,0,6,,,,,,,,4,,,43,0
6479,note_on,59,0,12,,,,,,,,15,,,55,0
6479,note_on,59,0,4,,,,,,,,7,,,74,0
6480,note_on,1,0,4,,,,,,,,7,,,76,82
6480,note_on,0,0,4,,,,,,,,7,,,72,80
6480,note_on,0,0,2,,,,,,,,6,,,79,82
6480,note_on,1,0,3,,,,,,,,0,,,60,82
6480,note_on,1,0,6,,,,,,,,4,,,48,85
6480,note_on,1,0,11,,,,,,,,14,,,72,80
6480,note_on,0,0,5,,,,,,,,1,,,72,80
6480,note_on,1,0,5,,,,,,,,1,,,76,82
6480,note_on,1,0,9,,,,,,,,12,,,84,82
6480,note_on,1,0,10,,,,,,,,13,,,84,82
6480,note_on,1,0,12,,,,,,,,15,,,60,82
6480,note_on,1,0,1,,,,,,,,3,,,88,87
6480,note_on,1,0,2,,,,,,,,6,,,72,78
6499,note_on,19,0,9,,,,,,,,12,,,84,0
6499,note_on,19,0,10,,,,,,,,13,,,84,0
6500,note_on,1,0,9,,,,,,,,12,,,79,80
6500,note_on,1,0,10,,,,,,,,13,,,79,80
6519,note_on,19,0,9,,,,,,,,12,,,79,0
6519,note_on,19,0,10,,,,,,,,13,,,79,0
6520,note_on,1,0,10,,,,,,,,13,,,76,72
6520,note_on,1,0,9,,,,,,,,12,,,76,72
6539,note_on,59,0,1,,,,,,,,3,,,88,0
6539,note_on,0,0,2,,,,,,,,6,,,72,0
6539,note_on,59,0,4,,,,,,,,7,,,72,0
6539,note_on,19,0,9,,,,,,,,12,,,76,0
6539,note_on,59,0,2,,,,,,,,6,,,79,0
6539,note_on,59,0,6,,,,,,,,4,,,48,0
6539,note_on,19,0,10,,,,,,,,13,,,76,0
6539,note_on,0,0,5,,,,,,,,1,,,76,0
6539,note_on,59,0,5,,,,,,,,1,,,72,0
6539,note_on,0,0,4,,,,,,,,7,,,76,0
6540,note_on,0,0,4,,,,,,,,7,,,76,78
6540,note_on,1,0,2,,,,,,,,6,,,79,82
6540,note_on,1,0,6,,,,,,,,4,,,48,70
6540,note_on,0,0,2,,,,,,,,6,,,72,68
6540,note_on,60,0,11,,,,,,,,14,,,72,0
6540,note_on,0,0,5,,,,,,,,1,,,76,78
6540,note_on,1,0,5,,,,,,,,1,,,72,80
6540,note_on,1,0,4,,,,,,,,7,,,72,80
6540,note_on,1,0,9,,,,,,,,12,,,72,74
6540,note_on,60,0,3,,,,,,,,0,,,60,0
6540,note_on,60,0,12,,,,,,,,15,,,60,0
6540,note_on,1,0,1,,,,,,,,3,,,88,85
6540,note_on,1,0,10,,,,,,,,13,,,72,74
6559,note_on,19,0,9,,,,,,,,12,,,72,0
6559,note_on,19,0,10,,,,,,,,13,,,72,0
6560,note_on,1,0,9,,,,,,,,12,,,74,72
6560,note_on,1,0,10,,,,,,,,13,,,74,72
6579,note_on,19,0,9,,,,,,,,12,,,74,0
6579,note_on,19,0,10,,,,,,,,13,,,74,0
6580,note_on,1,0,9,,,,,,,,12,,,76,85
6580,note_on,1,0,10,,,,,,,,13,,,76,85
6599,note_on,19,0,10,,,,,,,,13,,,76,0
6599,note_on,0,0,2,,,,,,,,6,,,79,0
6599,note_on,59,0,4,,,,,,,,7,,,76,0
6599,note_on,59,0,6,,,,,,,,4,,,48,0
6599,note_on,0,0,4,,,,,,,,7,,,72,0
6599,note_on,0,0,5,,,,,,,,1,,,72,0
6599,note_on,59,0,2,,,,,,,,6,,,72,0
6599,note_on,59,0,1,,,,,,,,3,,,88,0
6599,note_on,19,0,9,,,,,,,,12,,,76,0
6599,note_on,59,0,5,,,,,,,,1,,,76,0
6600,note_on,60,0,3,,,,,,,,0,,,55,85
6600,note_on,1,0,6,,,,,,,,4,,,43,80
6600,note_on,60,0,11,,,,,,,,14,,,67,82
6600,note_on,0,0,5,,,,,,,,1,,,74,85
6600,note_on,60,0,12,,,,,,,,15,,,55,82
6600,note_on,1,0,10,,,,,,,,13,,,77,78
6600,note_on,1,0,2,,,,,,,,6,,,71,80
6600,note_on,0,0,4,,,,,,,,7,,,74,85
6600,note_on,1,0,4,,,,,,,,7,,,67,78
6600,note_on,1,0,1,,,,,,,,3,,,86,87
6600,note_on,1,0,9,,,,,,,,12,,,77,78
6600,note_on,1,0,5,,,,,,,,1,,,67,78
6600,note_on,0,0,2,,,,,,,,6,,,79,80
6619,note_on,19,0,9,,,,,,,,12,,,77,0
6619,note_on,19,0,10,,,,,,,,13,,,77,0
6620,note_on,1,0,9,,,,,,,,12,,,74,70
6620,note_on,1,0,10,,,,,,,,13,,,74,70
6639,note_on,19,0,10,,,,,,,,13,,,74,0
6639,note_on,19,0,9,,,,,,,,12,,,74,0
6640,note_on,1,0,9,,,,,,,,12,,,71,80
6640,note_on,1,0,10,,,,,,,,13,,,71,80
6659,note_on,59,0,5,,,,,,,,1,,,74,0
6659,note_on,19,0,9,,,,,,,,12,,,71,0
6659,note_on,19,0,10,,,,,,,,13,,,71,0
6659,note_on,0,0,2,,,,,,,,6,,,71,0
6659,note_on,59,0,2,,,,,,,,6,,,79,0
6659,note_on,59,0,1,,,,,,,,3,,,86,0
6659,note_on,0,0,5,,,,,,,,1,,,67,0
6659,note_on,0,0,4,,,,,,,,7,,,67,0
6659,note_on,59,0,4,,,,,,,,7,,,74,0
6659,note_on,59,0,6,,,,,,,,4,,,43,0
6660,note_on,60,0,12,,,,,,,,15,,,55,0
6660,note_on,1,0,2,,,,,,,,6,,,71,78
6660,note_on,1,0,6,,,,,,,,4,,,43,72
6660,note_on,1,0,4,,,,,,,,7,,,74,85
6660,note_on,0,0,2,,,,,,,,6,,,79,82
6660,note_on,1,0,10,,,,,,,,13,,,67,82
6660,note_on,60,0,11,,,,,,,,14,,,67,0
6660,note_on,60,0,3,,,,,,,,0,,,55,0
6660,note_on,1,0,1,,,,,,,,3,,,86,87
6660,note_on,1,0,5,,,,,,,,1,,,74,85
6660,note_on,1,0,9,,,,,,,,12,,,67,82
6660,note_on,0,0,5,,,,,,,,1,,,67,72
6660,note_on,0,0,4,,,,,,,,7,,,67,72
6679,note_on,19,0,9,,,,,,,,12,,,67,0
6679,note_on,19,0,10,,,,,,,,13,,,67,0
6680,note_on,1,0,9,,,,,,,,12,,,69,78
6680,note_on,1,0,10,,,,,,,,13,,,69,78
6699,note_on,19,0,9,,,,,,,,12,,,69,0
6699,note_on,19,0,10,,,,,,,,13,,,69,0
6700,note_on,1,0,10,,,,,,,,13,,,71,78
6700,note_on,1,0,9,,,,,,,,12,,,71,78
6719,note_on,59,0,2,,,,,,,,6,,,79,0
6719,note_on,59,0,1,,,,,,,,3,,,86,0
6719,note_on,0,0,2,,,,,,,,6,,,71,0
6719,note_on,59,0,4,,,,,,,,7,,,67,0
6719,note_on,0,0,5,,,,,,,,1,,,74,0
6719,note_on,59,0,6,,,,,,,,4,,,43,0
6719,note_on,59,0,5,,,,,,,,1,,,67,0
6719,note_on,0,0,4,,,,,,,,7,,,74,0
6719,note_on,19,0,9,,,,,,,,12,,,71,0
6719,note_on,19,0,10,,,,,,,,13,,,71,0
6720,note_on,60,0,3,,,,,,,,0,,,60,80
6720,note_on,1,0,9,,,,,,,,12,,,72,78
6720,note_on,1,0,1,,,,,,,,3,,,84,82
6720,note_on,60,0,12,,,,,,,,15,,,60,85
6720,note_on,1,0,10,,,,,,,,13,,,72,78
6720,note_on,1,0,6,,,,,,,,4,,,48,78
6720,note_on,1,0,2,,,,,,,,6,,,72,80
6720,note_on,1,0,5,,,,,,,,1,,,72,72
6720,note_on,1,0,4,,,,,,,,7,,,72,72
6720,marker,2400,1,0,,,,,,,,,,,,
6720,note_on,0,0,2,,,,,,,,6,,,84,85
6739,note_on,19,0,2,,,,,,,,6,,,84,0
6739,note_on,19,0,3,,,,,,,,0,,,60,0
6739,note_on,19,0,9,,,,,,,,12,,,72,0
6739,note_on,19,0,10,,,,,,,,13,,,72,0
6739,note_on,19,0,12,,,,,,,,15,,,60,0
6740,note_on,1,0,3,,,,,,,,0,,,55,85
6740,note_on,1,0,2,,,,,,,,6,,,79,74
6740,note_on,1,0,10,,,,,,,,13,,,67,82
6740,note_on,1,0,12,,,,,,,,15,,,55,82
6740,note_on,1,0,9,,,,,,,,12,,,67,82
6759,note_on,19,0,3,,,,,,,,0,,,55,0
6759,note_on,19,0,12,,,,,,,,15,,,55,0
6759,note_on,19,0,9,,,,,,,,12,,,67,0
6759,note_on,19,0,10,,,,,,,,13,,,67,0
6759,note_on,19,0,2,,,,,,,,6,,,79,0
6760,note_on,1,0,10,,,,,,,,13,,,64,85
6760,note_on,1,0,9,,,,,,,,12,,,64,85
6760,note_on,1,0,12,,,,,,,,15,,,52,80
6760,note_on,1,0,3,,,,,,,,0,,,52,82
6760,note_on,1,0,2,,,,,,,,6,,,76,78
6779,note_on,59,0,1,,,,,,,,3,,,84,0
6779,note_on,0,0,2,,,,,,,,6,,,72,0
6779,note_on,19,0,3,,,,,,,,0,,,52,0
6779,note_on,19,0,2,,,,,,,,6,,,76,0
6779,note_on,19,0,12,,,,,,,,15,,,52,0
6779,note_on,19,0,9,,,,,,,,12,,,64,0
6779,note_on,19,0,10,,,,,,,,13,,,64,0
6780,note_on,1,0,12,,,,,,,,15,,,48,70
6780,note_on,1,0,3,,,,,,,,0,,,48,80
6780,note_on,60,0,6,,,,,,,,4,,,48,0
6780,note_on,1,0,9,,,,,,,,12,,,60,80
6780,note_on,1,0,10,,,,,,,,13,,,60,80
6780,note_on,1,0,2,,,,,,,,6,,,72,78
6799,note_on,19,0,3,,,,,,,,0,,,48,0
6799,note_on,19,0,9,,,,,,,,12,,,60,0
6799,note_on,19,0,12,,,,,,,,15,,,48,0
6799,note_on,19,0,10,,,,,,,,13,,,60,0
6799,note_on,19,0,2,,,,,,,,6,,,72,0
6800,note_on,1,0,12,,,,,,,,15,,,50,70
6800,note_on,1,0,3,,,,,,,,0,,,50,82
6800,note_on,1,0,2,,,,,,,,6,,,74,72
6800,note_on,1,0,10,,,,,,,,13,,,62,78
6800,note_on,1,0,9,,,,,,,,12,,,62,78
6819,note_on,19,0,3,,,,,,,,0,,,50,0
6819,note_on,19,0,10,,,,,,,,13,,,62,0
6819,note_on,19,0,9,,,,,,,,12,,,62,0
6819,note_on,19,0,2,,,,,,,,6,,,74,0
6819,note_on,19,0,12,,,,,,,,15,,,50,0
6820,note_on,1,0,9,,,,,,,,12,,,64,82
6820,note_on,1,0,2,,,,,,,,6,,,76,80
6820,note_on,1,0,12,,,,,,,,15,,,52,80
6820,note_on,1,0,3,,,,,,,,0,,,52,82
6820,note_on,1,0,10,,,,,,,,13,,,64,82
6839,note_on,19,0,12,,,,,,,,15,,,52,0
6839,note_on,19,0,9,,,,,,,,12,,,64,0
6839,note_on,19,0,3,,,,,,,,0,,,52,0
6839,note_on,19,0,2,,,,,,,,6,,,76,0
6839,note_on,19,0,10,,,,,,,,13,,,64,0
6839,note_on,119,0,4,,,,,,,,7,,,72,0
6839,note_on,119,0,5,,,,,,,,1,,,72,0
6840,note_on,1,0,9,,,,,,,,12,,,65,70
6840,note_on,60,0,6,,,,,,,,4,,,43,82
6840,note_on,61,0,1,,,,,,,,3,,,89,80
6840,note_on,1,0,10,,,,,,,,13,,,65,70
6840,note_on,1,0,4,,,,,,,,7,,,67,80
6840,note_on,1,0,5,,,,,,,,1,,,67,80
6840,note_on,1,0,2,,,,,,,,6,,,77,80
6840,note_on,1,0,3,,,,,,,,0,,,53,85
6840,note_on,1,0,12,,,,,,,,15,,,53,78
6859,note_on,19,0,12,,,,,,,,15,,,53,0
6859,note_on,19,0,10,,,,,,,,13,,,65,0
6859,note_on,19,0,9,,,,,,,,12,,,65,0
6859,note_on,19,0,2,,,,,,,,6,,,77,0
6859,note_on,19,0,1,,,,,,,,3,,,89,0
6859,note_on,19,0,3,,,,,,,,0,,,53,0
6860,note_on,1,0,1,,,,,,,,3,,,86,76
6860,note_on,1,0,10,,,,,,,,13,,,62,72
6860,note_on,1,0,2,,,,,,,,6,,,74,80
6860,note_on,1,0,12,,,,,,,,15,,,50,80
6860,note_on,1,0,9,,,,,,,,12,,,62,72
6860,note_on,1,0,3,,,,,,,,0,,,50,82
6879,note_on,19,0,3,,,,,,,,0,,,50,0
6879,note_on,19,0,9,,,,,,,,12,,,62,0
6879,note_on,19,0,2,,,,,,,,6,,,74,0
6879,note_on,19,0,10,,,,,,,,13,,,62,0
6879,note_on,19,0,1,,,,,,,,3,,,86,0
6879,note_on,19,0,12,,,,,,,,15,,,50,0
6880,note_on,1,0,10,,,,,,,,13,,,59,78
6880,note_on,1,0,1,,,,,,,,3,,,83,70
6880,note_on,1,0,9,,,,,,,,12,,,59,78
6880,note_on,1,0,12,,,,,,,,15,,,47,70
6880,note_on,1,0,3,,,,,,,,0,,,47,74
6880,note_on,1,0,2,,,,,,,,6,,,71,78
6899,note_on,19,0,1,,,,,,,,3,,,83,0
6899,note_on,19,0,3,,,,,,,,0,,,47,0
6899,note_on,19,0,9,,,,,,,,12,,,59,0
6899,note_on,19,0,12,,,,,,,,15,,,47,0
6899,note_on,19,0,2,,,,,,,,6,,,71,0
6899,note_on,19,0,10,,,,,,,,13,,,59,0
6900,note_on,1,0,9,,,,,,,,12,,,55,80
6900,note_on,1,0,3,,,,,,,,0,,,43,80
6900,note_on,1,0,12,,,,,,,,15,,,43,82
6900,note_on,1,0,10,,,,,,,,13,,,55,80
6900,note_on,1,0,2,,,,,,,,6,,,67,68
6900,note_on,60,0,6,,,,,,,,4,,,43,0
6900,note_on,1,0,1,,,,,,,,3,,,79,78
6919,note_on,19,0,10,,,,,,,,13,,,55,0
6919,note_on,19,0,1,,,,,,,,3,,,79,0
6919,note_on,19,0,3,,,,,,,,0,,,43,0
6919,note_on,19,0,9,,,,,,,,12,,,55,0
6919,note_on,19,0,2,,,,,,,,6,,,67,0
6919,note_on,19,0,12,,,,,,,,15,,,43,0
6920,note_on,1,0,3,,,,,,,,0,,,45,85
6920,note_on,1,0,10,,,,,,,,13,,,57,74
6920,note_on,1,0,1,,,,,,,,3,,,81,80
6920,note_on,1,0,2,,,,,,,,6,,,69,80
6920,note_on,1,0,9,,,,,,,,12,,,57,74
6920,note_on,1,0,12,,,,,,,,15,,,45,70
6939,note_on,19,0,3,,,,,,,,0,,,45,0
6939,note_on,19,0,2,,,,,,,,6,,,69,0
6939,note_on,19,0,12,,,,,,,,15,,,45,0
6939,note_on,19,0,1,,,,,,,,3,,,81,0
6939,note_on,19,0,9,,,,,,,,12,,,57,0
6939,note_on,19,0,10,,,,,,,,13,,,57,0
6940,note_on,1,0,3,,,,,,,,0,,,47,80
6940,note_on,1,0,12,,,,,,,,15,,,47,70
6940,note_on,1,0,2,,,,,,,,6,,,71,82
6940,note_on,1,0,10,,,,,,,,13,,,59,80
6940,note_on,1,0,1,,,,,,,,3,,,83,80
6940,note_on,1,0,9,,,,,,,,12,,,59,80
6959,note_on,19,0,9,,,,,,,,12,,,59,0
6959,note_on,19,0,3,,,,,,,,0,,,47,0
6959,note_on,19,0,10,,,,,,,,13,,,59,0
6959,note_on,19,0,12,,,,,,,,15,,,47,0
6959,note_on,19,0,2,,,,,,,,6,,,71,0
6959,note_on,119,0,5,,,,,,,,1,,,67,0
6959,note_on,19,0,1,,,,,,,,3,,,83,0
6959,note_on,119,0,4,,,,,,,,7,,,67,0
6960,note_on,0,0,4,,,,,,,,7,,,72,72
6960,note_on,1,0,4,,,,,,,,7,,,60,70
6960,note_on,1,0,3,,,,,,,,0,,,48,82
6960,note_on,1,0,2,,,,,,,,6,,,72,82
6960,note_on,1,0,1,,,,,,,,3,,,84,82
6960,note_on,1,0,9,,,,,,,,12,,,60,68
6960,note_on,60,0,6,,,,,,,,4,,,48,82
6960,note_on,1,0,10,,,,,,,,13,,,60,68
6960,note_on,1,0,5,,,,,,,,1,,,60,70
6960,note_on,1,0,12,,,,,,,,15,,,48,82
6960,note_on,0,0,5,,,,,,,,1,,,72,72
6979,note_on,19,0,3,,,,,,,,0,,,48,0
6979,note_on,19,0,9,,,,,,,,12,,,60,0
6979,note_on,19,0,12,,,,,,,,15,,,48,0
6979,note_on,19,0,2,,,,,,,,6,,,72,0
6979,note_on,19,0,10,,,,,,,,13,,,60,0
6979,note_on,19,0,1,,,,,,,,3,,,84,0
6980,note_on,1,0,2,,,,,,,,6,,,71,78
6980,note_on,1,0,3,,,,,,,,0,,,47,66
6980,note_on,1,0,10,,,,,,,,13,,,59,68
6980,note_on,1,0,9,,,,,,,,12,,,59,68
6980,note_on,1,0,12,,,,,,,,15,,,47,74
6980,note_on,1,0,1,,,,,,,,3,,,83,70
6999,note_on,19,0,9,,,,,,,,12,,,59,0
6999,note_on,19,0,1,,,,,,,,3,,,83,0
6999,note_on,19,0,3,,,,,,,,0,,,47,0
6999,note_on,19,0,12,,,,,,,,15,,,47,0
6999,note_on,19,0,10,,,,,,,,13,,,59,0
6999,note_on,19,0,2,,,,,,,,6,,,71,0
7000,note_on,1,0,2,,,,,,,,6,,,69,80
7000,note_on,1,0,3,,,,,,,,0,,,45,80
7000,note_on,1,0,9,,,,,,,,12,,,57,74
7000,note_on,1,0,10,,,,,,,,13,,,57,74
7000,note_on,1,0,1,,,,,,,,3,,,81,80
7000,note_on,1,0,12,,,,,,,,15,,,45,72
7019,note_on,0,0,5,,,,,,,,1,,,60,0
7019,note_on,59,0,5,,,,,,,,1,,,72,0
7019,note_on,19,0,1,,,,,,,,3,,,81,0
7019,note_on,19,0,9,,,,,,,,12,,,57,0
7019,note_on,0,0,4,,,,,,,,7,,,60,0
7019,note_on,19,0,10,,,,,,,,13,,,57,0
7019,note_on,19,0,12,,,,,,,,15,,,45,0
7019,note_on,19,0,3,,,,,,,,0,,,45,0
7019,note_on,59,0,4,,,,,,,,7,,,72,0
7019,note_on,19,0,2,,,,,,,,6,,,69,0
7019,note_on,59,0,6,,,,,,,,4,,,48,0
7020,note_on,1,0,12,,,,,,,,15,,,43,76
7020,note_on,1,0,9,,,,,,,,12,,,55,78
7020,note_on,1,0,4,,,,,,,,7,,,67,87
7020,note_on,0,0,4,,,,,,,,7,,,55,82
7020,note_on,1,0,3,,,,,,,,0,,,43,82
7020,note_on,1,0,6,,,,,,,,4,,,43,80
7020,note_on,0,0,5,,,,,,,,1,,,55,82
7020,note_on,1,0,2,,,,,,,,6,,,67,80
7020,note_on,1,0,5,,,,,,,,1,,,67,87
7020,note_on,1,0,10,,,,,,,,13,,,55,78
7020,note_on,1,0,1,,,,,,,,3,,,79,72
7039,note_on,19,0,10,,,,,,,,13,,,55,0
7039,note_on,19,0,9,,,,,,,,12,,,55,0
7039,note_on,19,0,1,,,,,,,,3,,,79,0
7039,note_on,19,0,2,,,,,,,,6,,,67,0
7039,note_on,19,0,3,,,,,,,,0,,,43,0
7039,note_on,19,0,12,,,,,,,,15,,,43,0
7040,note_on,1,0,1,,,,,,,,3,,,81,74
7040,note_on,1,0,10,,,,,,,,13,,,57,78
7040,note_on,1,0,2,,,,,,,,6,,,69,72
7040,note_on,1,0,3,,,,,,,,0,,,45,74
7040,note_on,1,0,12,,,,,,,,15,,,45,70
7040,note_on,1,0,9,,,,,,,,12,,,57,78
7049,note_on,0,0,4,,,,,,,,7,,,67,0
7049,note_on,29,0,4,,,,,,,,7,,,55,0
7049,note_on,29,0,5,,,,,,,,1,,,55,0
7049,note_on,0,0,5,,,,,,,,1,,,67,0
7049,note_on,29,0,6,,,,,,,,4,,,43,0
7050,note_on,1,0,5,,,,,,,,1,,,55,70
7050,note_on,0,0,5,,,,,,,,1,,,67,85
7050,note_on,0,0,4,,,,,,,,7,,,67,85
7050,note_on,1,0,4,,,,,,,,7,,,55,70
7050,note_on,1,0,6,,,,,,,,4,,,43,72
7059,note_on,19,0,2,,,,,,,,6,,,69,0
7059,note_on,19,0,1,,,,,,,,3,,,81,0
7059,note_on,19,0,9,,,,,,,,12,,,57,0
7059,note_on,19,0,10,,,,,,,,13,,,57,0
7059,note_on,19,0,3,,,,,,,,0,,,45,0
7059,note_on,19,0,12,,,,,,,,15,,,45,0
7060,note_on,1,0,3,,,,,,,,0,,,47,78
7060,note_on,1,0,1,,,,,,,,3,,,83,72
7060,note_on,1,0,2,,,,,,,,6,,,71,82
7060,note_on,1,0,9,,,,,,,,12,,,59,80
7060,note_on,1,0,10,,,,,,,,13,,,59,80
7060,note_on,1,0,12,,,,,,,,15,,,47,72
7079,note_on,19,0,2,,,,,,,,6,,,71,0
7079,note_on,19,0,10,,,,,,,,13,,,59,0
7079,note_on,0,0,4,,,,,,,,7,,,55,0
7079,note_on,0,0,5,,,,,,,,1,,,55,0
7079,note_on,29,0,4,,,,,,,,7,,,67,0
7079,note_on,19,0,12,,,,,,,,15,,,47,0
7079,note_on,29,0,6,,,,,,,,4,,,43,0
7079,note_on,19,0,1,,,,,,,,3,,,83,0
7079,note_on,19,0,3,,,,,,,,0,,,47,0
7079,note_on,29,0,5,,,,,,,,1,,,67,0
7079,note_on,19,0,9,,,,,,,,12,,,59,0
7080,note_on,1,0,6,,,,,,,,4,,,43,82
7080,note_on,1,0,9,,,,,,,,12,,,60,78
7080,note_on,1,0,1,,,,,,,,3,,,84,78
7080,note_on,0,0,5,,,,,,,,1,,,55,70
7080,note_on,1,0,5,,,,,,,,1,,,67,76
7080,note_on,1,0,2,,,,,,,,6,,,72,78
7080,note_on,0,0,4,,,,,,,,7,,,55,70
7080,note_on,1,0,4,,,,,,,,7,,,67,76
7080,note_on,1,0,10,,,,,,,,13,,,60,78
7080,note_on,1,0,3,,,,,,,,0,,,48,78
7080,note_on,1,0,12,,,,,,,,15,,,48,76
7099,note_on,19,0,3,,,,,,,,0,,,48,0
7099,note_on,19,0,10,,,,,,,,13,,,60,0
7099,note_on,19,0,12,,,,,,,,15,,,48,0
7099,note_on,19,0,1,,,,,,,,3,,,84,0
7099,note_on,19,0,2,,,,,,,,6,,,72,0
7099,note_on,19,0,9,,,,,,,,12,,,60,0
7100,note_on,1,0,1,,,,,,,,3,,,86,85
7100,note_on,1,0,2,,,,,,,,6,,,74,85
7100,note_on,1,0,12,,,,,,,,15,,,50,72
7100,note_on,1,0,10,,,,,,,,13,,,62,85
7100,note_on,1,0,3,,,,,,,,0,,,50,76
7100,note_on,1,0,9,,,,,,,,12,,,62,85
7119,note_on,19,0,10,,,,,,,,13,,,62,0
7119,note_on,19,0,3,,,,,,,,0,,,50,0
7119,note_on,19,0,12,,,,,,,,15,,,50,0
7119,note_on,19,0,9,,,,,,,,12,,,62,0
7119,note_on,19,0,2,,,,,,,,6,,,74,0
7119,note_on,19,0,1,,,,,,,,3,,,86,0
7120,note_on,1,0,10,,,,,,,,13,,,64,78
7120,note_on,1,0,3,,,,,,,,0,,,52,76
7120,note_on,1,0,1,,,,,,,,3,,,88,68
7120,note_on,1,0,12,,,,,,,,15,,,52,85
7120,note_on,1,0,2,,,,,,,,6,,,76,76
7120,note_on,1,0,9,,,,,,,,12,,,64,78
7139,note_on,59,0,5,,,,,,,,1,,,55,0
7139,note_on,19,0,12,,,,,,,,15,,,52,0
7139,note_on,59,0,6,,,,,,,,4,,,43,0
7139,note_on,59,0,4,,,,,,,,7,,,55,0
7139,note_on,19,0,9,,,,,,,,12,,,64,0
7139,note_on,19,0,1,,,,,,,,3,,,88,0
7139,note_on,0,0,5,,,,,,,,1,,,67,0
7139,note_on,19,0,2,,,,,,,,6,,,76,0
7139,note_on,19,0,10,,,,,,,,13,,,64,0
7139,note_on,0,0,4,,,,,,,,7,,,67,0
7139,note_on,19,0,3,,,,,,,,0,,,52,0
7140,note_on,1,0,2,,,,,,,,6,,,77,80
7140,note_on,1,0,10,,,,,,,,13,,,65,80
7140,note_on,1,0,9,,,,,,,,12,,,65,80
7140,note_on,1,0,12,,,,,,,,15,,,53,85
7140,note_on,1,0,6,,,,,,,,4,,,43,78
7140,note_on,0,0,5,,,,,,,,1,,,55,72
7140,note_on,1,0,3,,,,,,,,0,,,53,74
7140,note_on,0,0,4,,,,,,,,7,,,55,72
7140,note_on,1,0,5,,,,,,,,1,,,67,78
7140,note_on,1,0,1,,,,,,,,3,,,89,80
7140,note_on,1,0,4,,,,,,,,7,,,67,78
7159,note_on,19,0,10,,,,,,,,13,,,65,0
7159,note_on,19,0,9,,,,,,,,12,,,65,0
7159,note_on,19,0,1,,,,,,,,3,,,89,0
7159,note_on,19,0,2,,,,,,,,6,,,77,0
7159,note_on,19,0,12,,,,,,,,15,,,53,0
7159,note_on,19,0,3,,,,,,,,0,,,53,0
7160,note_on,1,0,2,,,,,,,,6,,,76,72
7160,note_on,1,0,10,,,,,,,,13,,,64,78
7160,note_on,1,0,12,,,,,,,,15,,,52,80
7160,note_on,1,0,3,,,,,,,,0,,,52,66
7160,note_on,1,0,9,,,,,,,,12,,,64,78
7160,note_on,1,0,1,,,,,,,,3,,,88,85
7179,note_on,19,0,12,,,,,,,,15,,,52,0
7179,note_on,19,0,2,,,,,,,,6,,,76,0
7179,note_on,19,0,3,,,,,,,,0,,,52,0
7179,note_on,19,0,9,,,,,,,,12,,,64,0
7179,note_on,19,0,10,,,,,,,,13,,,64,0
7179,note_on,19,0,1,,,,,,,,3,,,88,0
7180,note_on,1,0,12,,,,,,,,15,,,50,70
7180,note_on,1,0,2,,,,,,,,6,,,74,72
7180,note_on,1,0,3,,,,,,,,0,,,50,66
7180,note_on,1,0,10,,,,,,,,13,,,62,74
7180,note_on,1,0,9,,,,,,,,12,,,62,74
7180,note_on,1,0,1,,,,,,,,3,,,86,80
7199,note_on,19,0,3,,,,,,,,0,,,50,0
7199,note_on,19,0,1,,,,,,,,3,,,86,0
7199,note_on,19,0,10,,,,,,,,13,,,62,0
7199,note_on,19,0,9,,,,,,,,12,,,62,0
7199,note_on,0,0,4,,,,,,,,7,,,67,0
7199,note_on,59,0,4,,,,,,,,7,,,55,0
7199,note_on,59,0,5,,,,,,,,1,,,55,0
7199,note_on,19,0,2,,,,,,,,6,,,74,0
7199,note_on,19,0,12,,,,,,,,15,,,50,0
7199,note_on,0,0,5,,,,,,,,1,,,67,0
7199,note_on,59,0,6,,,,,,,,4,,,43,0
7200,note_on,1,0,6,,,,,,,,4,,,48,85
7200,note_on,1,0,12,,,,,,,,15,,,48,82
7200,note_on,1,0,2,,,,,,,,6,,,72,80
7200,note_on,1,0,9,,,,,,,,12,,,60,82
7200,note_on,1,0,3,,,,,,,,0,,,48,80
7200,note_on,0,0,5,,,,,,,,1,,,72,72
7200,note_on,1,0,10,,,,,,,,13,,,60,82
7200,note_on,1,0,4,,,,,,,,7,,,60,74
7200,note_on,0,0,4,,,,,,,,7,,,72,72
7200,note_on,1,0,1,,,,,,,,3,,,84,74
7200,note_on,1,0,5,,,,,,,,1,,,60,74
7219,note_on,19,0,1,,,,,,,,3,,,84,0
7219,note_on,19,0,9,,,,,,,,12,,,60,0
7219,note_on,19,0,10,,,,,,,,13,,,60,0
7219,note_on,19,0,12,,,,,,,,15,,,48,0
7219,note_on,19,0,3,,,,,,,,0,,,48,0
7219,note_on,19,0,2,,,,,,,,6,,,72,0
7220,note_on,1,0,9,,,,,,,,12,,,59,74
7220,note_on,1,0,1,,,,,,,,3,,,83,74
7220,note_on,1,0,3,,,,,,,,0,,,47,68
7220,note_on,1,0,2,,,,,,,,6,,,71,78
7220,note_on,1,0,10,,,,,,,,13,,,59,74
7220,note_on,1,0,12,,,,,,,,15,,,47,80
7239,note_on,19,0,3,,,,,,,,0,,,47,0
7239,note_on,19,0,1,,,,,,,,3,,,83,0
7239,note_on,19,0,9,,,,,,,,12,,,59,0
7239,note_on,19,0,12,,,,,,,,15,,,47,0
7239,note_on,19,0,2,,,,,,,,6,,,71,0
7239,note_on,19,0,10,,,,,,,,13,,,59,0
7240,note_on,1,0,3,,,,,,,,0,,,45,74
7240,note_on,1,0,2,,,,,,,,6,,,69,76
7240,note_on,1,0,1,,,,,,,,3,,,81,78
7240,note_on,1,0,10,,,,,,,,13,,,57,74
7240,note_on,1,0,9,,,,,,,,12,,,57,74
7240,note_on,1,0,12,,,,,,,,15,,,45,72
7259,note_on,19,0,3,,,,,,,,0,,,45,0
7259,note_on,19,0,2,,,,,,,,6,,,69,0
7259,note_on,19,0,1,,,,,,,,3,,,81,0
7259,note_on,19,0,10,,,,,,,,13,,,57,0
7259,note_on,0,0,5,,,,,,,,1,,,60,0
7259,note_on,0,0,4,,,,,,,,7,,,60,0
7259,note_on,59,0,4,,,,,,,,7,,,72,0
7259,note_on,59,0,6,,,,,,,,4,,,48,0
7259,note_on,59,0,5,,,,,,,,1,,,72,0
7259,note_on,19,0,12,,,,,,,,15,,,45,0
7259,note_on,19,0,9,,,,,,,,12,,,57,0
7260,note_on,1,0,5,,,,,,,,1,,,55,76
7260,note_on,1,0,10,,,,,,,,13,,,55,70
7260,note_on,1,0,2,,,,,,,,6,,,67,78
7260,note_on,1,0,6,,,,,,,,4,,,43,82
7260,note_on,0,0,4,,,,,,,,7,,,67,85
7260,note_on,1,0,3,,,,,,,,0,,,43,72
7260,note_on,1,0,12,,,,,,,,15,,,43,74
7260,note_on,1,0,4,,,,,,,,7,,,55,76
7260,note_on,1,0,1,,,,,,,,3,,,79,68
7260,note_on,0,0,5,,,,,,,,1,,,67,85
7260,note_on,1,0,9,,,,,,,,12,,,55,70
7279,note_on,19,0,9,,,,,,,,12,,,55,0
7279,note_on,19,0,10,,,,,,,,13,,,55,0
7279,note_on,19,0,1,,,,,,,,3,,,79,0
7279,note_on,19,0,2,,,,,,,,6,,,67,0
7279,note_on,19,0,12,,,,,,,,15,,,43,0
7279,note_on,19,0,3,,,,,,,,0,,,43,0
7280,note_on,1,0,9,,,,,,,,12,,,57,74
7280,note_on,1,0,12,,,,,,,,15,,,45,72
7280,note_on,1,0,10,,,,,,,,13,,,57,74
7280,note_on,1,0,3,,,,,,,,0,,,45,68
7280,note_on,1,0,2,,,,,,,,6,,,69,80
7280,note_on,1,0,1,,,,,,,,3,,,81,68
7289,note_on,29,0,6,,,,,,,,4,,,43,0
7289,note_on,29,0,4,,,,,,,,7,,,67,0
7289,note_on,0,0,4,,,,,,,,7,,,55,0
7289,note_on,29,0,5,,,,,,,,1,,,67,0
7289,note_on,0,0,5,,,,,,,,1,,,55,0
7290,note_on,1,0,5,,,,,,,,1,,,55,72
7290,note_on,1,0,4,,,,,,,,7,,,55,72
7290,note_on,0,0,4,,,,,,,,7,,,67,80
7290,note_on,1,0,6,,,,,,,,4,,,43,80
7290,note_on,0,0,5,,,,,,,,1,,,67,80
7299,note_on,19,0,1,,,,,,,,3,,,81,0
7299,note_on,19,0,3,,,,,,,,0,,,45,0
7299,note_on,19,0,2,,,,,,,,6,,,69,0
7299,note_on,19,0,10,,,,,,,,13,,,57,0
7299,note_on,19,0,9,,,,,,,,12,,,57,0
7299,note_on,19,0,12,,,,,,,,15,,,45,0
7300,note_on,1,0,10,,,,,,,,13,,,59,72
7300,note_on,1,0,1,,,,,,,,3,,,83,80
7300,note_on,1,0,9,,,,,,,,12,,,59,72
7300,note_on,1,0,12,,,,,,,,15,,,47,70
7300,note_on,1,0,3,,,,,,,,0,,,47,68
7300,note_on,1,0,2,,,,,,,,6,,,71,76
7319,note_on,19,0,9,,,,,,,,12,,,59,0
7319,note_on,29,0,4,,,,,,,,7,,,67,0
7319,note_on,0,0,4,,,,,,,,7,,,55,0
7319,note_on,19,0,3,,,,,,,,0,,,47,0
7319,note_on,19,0,1,,,,,,,,3,,,83,0
7319,note_on,29,0,6,,,,,,,,4,,,43,0
7319,note_on,19,0,2,,,,,,,,6,,,71,0
7319,note_on,19,0,10,,,,,,,,13,,,59,0
7319,note_on,29,0,5,,,,,,,,1,,,67,0
7319,note_on,0,0,5,,,,,,,,1,,,55,0
7319,note_on,19,0,12,,,,,,,,15,,,47,0
7320,note_on,1,0,10,,,,,,,,13,,,60,66
7320,note_on,1,0,9,,,,,,,,12,,,60,66
7320,note_on,1,0,12,,,,,,,,15,,,48,72
7320,note_on,1,0,2,,,,,,,,6,,,72,68
7320,note_on,0,0,5,,,,,,,,1,,,55,74
7320,note_on,1,0,5,,,,,,,,1,,,67,85
7320,note_on,1,0,4,,,,,,,,7,,,67,85
7320,note_on,1,0,3,,,,,,,,0,,,48,72
7320,note_on,0,0,4,,,,,,,,7,,,55,74
7320,note_on,1,0,6,,,,,,,,4,,,43,72
7320,note_on,1,0,1,,,,,,,,3,,,84,78
7339,note_on,19,0,12,,,,,,,,15,,,48,0
7339,note_on,19,0,9,,,,,,,,12,,,60,0
7339,note_on,19,0,2,,,,,,,,6,,,72,0
7339,note_on,19,0,3,,,,,,,,0,,,48,0
7339,note_on,19,0,10,,,,,,,,13,,,60,0
7339,note_on,19,0,1,,,,,,,,3,,,84,0
7340,note_on,1,0,9,,,,,,,,12,,,62,70
7340,note_on,1,0,2,,,,,,,,6,,,74,85
7340,note_on,1,0,1,,,,,,,,3,,,86,87
7340,note_on,1,0,10,,,,,,,,13,,,62,70
7340,note_on,1,0,12,,,,,,,,15,,,50,82
7340,note_on,1,0,3,,,,,,,,0,,,50,78
7359,note_on,19,0,3,,,,,,,,0,,,50,0
7359,note_on,19,0,10,,,,,,,,13,,,62,0
7359,note_on,19,0,12,,,,,,,,15,,,50,0
7359,note_on,19,0,9,,,,,,,,12,,,62,0
7359,note_on,19,0,2,,,,,,,,6,,,74,0
7359,note_on,19,0,1,,,,,,,,3,,,86,0
7360,note_on,1,0,3,,,,,,,,0,,,52,78
7360,note_on,1,0,2,,,,,,,,6,,,76,80
7360,note_on,1,0,10,,,,,,,,13,,,64,78
7360,note_on,1,0,12,,,,,,,,15,,,52,74
7360,note_on,1,0,1,,,,,,,,3,,,88,82
7360,note_on,1,0,9,,,,,,,,12,,,64,78
7379,note_on,19,0,3,,,,,,,,0,,,52,0
7379,note_on,0,0,5,,,,,,,,1,,,67,0
7379,note_on,59,0,5,,,,,,,,1,,,55,0
7379,note_on,19,0,1,,,,,,,,3,,,88,0
7379,note_on,59,0,4,,,,,,,,7,,,55,0
7379,note_on,0,0,4,,,,,,,,7,,,67,0
7379,note_on,19,0,10,,,,,,,,13,,,64,0
7379,note_on,19,0,2,,,,,,,,6,,,76,0
7379,note_on,19,0,9,,,,,,,,12,,,64,0
7379,note_on,59,0,6,,,,,,,,4,,,43,0
7379,note_on,19,0,12,,,,,,,,15,,,52,0
7380,note_on,1,0,10,,,,,,,,13,,,65,60
7380,note_on,1,0,12,,,,,,,,15,,,53,82
7380,note_on,1,0,2,,,,,,,,6,,,77,78
7380,note_on,1,0,6,,,,,,,,4,,,43,82
7380,note_on,1,0,5,,,,,,,,1,,,67,82
7380,note_on,1,0,3,,,,,,,,0,,,53,80
7380,note_on,0,0,4,,,,,,,,7,,,55,80
7380,note_on,1,0,4,,,,,,,,7,,,67,82
7380,note_on,1,0,1,,,,,,,,3,,,89,60
7380,note_on,1,0,9,,,,,,,,12,,,65,60
7380,note_on,0,0,5,,,,,,,,1,,,55,80
7399,note_on,19,0,9,,,,,,,,12,,,65,0
7399,note_on,19,0,3,,,,,,,,0,,,53,0
7399,note_on,19,0,2,,,,,,,,6,,,77,0
7399,note_on,19,0,12,,,,,,,,15,,,53,0
7399,note_on,19,0,10,,,,,,,,13,,,65,0
7399,note_on,19,0,1,,,,,,,,3,,,89,0
7400,note_on,1,0,2,,,,,,,,6,,,76,70
7400,note_on,1,0,12,,,,,,,,15,,,52,78
7400,note_on,1,0,3,,,,,,,,0,,,52,87
7400,note_on,1,0,10,,,,,,,,13,,,64,74
7400,note_on,1,0,9,,,,,,,,12,,,64,74
7400,note_on,1,0,1,,,,,,,,3,,,88,72
7419,note_on,19,0,10,,,,,,,,13,,,64,0
7419,note_on,19,0,3,,,,,,,,0,,,52,0
7419,note_on,19,0,12,,,,,,,,15,,,52,0
7419,note_on,19,0,2,,,,,,,,6,,,76,0
7419,note_on,19,0,1,,,,,,,,3,,,88,0
7419,note_on,19,0,9,,,,,,,,12,,,64,0
7420,note_on,1,0,3,,,,,,,,0,,,50,72
7420,note_on,1,0,2,,,,,,,,6,,,74,70
7420,note_on,1,0,10,,,,,,,,13,,,62,74
7420,note_on,1,0,1,,,,,,,,3,,,86,85
7420,note_on,1,0,12,,,,,,,,15,,,50,80
7420,note_on,1,0,9,,,,,,,,12,,,62,74
7439,note_on,59,0,6,,,,,,,,4,,,43,0
7439,note_on,0,0,5,,,,,,,,1,,,67,0
7439,note_on,19,0,3,,,,,,,,0,,,50,0
7439,note_on,59,0,5,,,,,,,,1,,,55,0
7439,note_on,0,0,4,,,,,,,,7,,,67,0
7439,note_on,59,0,4,,,,,,,,7,,,55,0
7439,note_on,19,0,2,,,,,,,,6,,,74,0
7439,note_on,19,0,12,,,,,,,,15,,,50,0
7439,note_on,19,0,10,,,,,,,,13,,,62,0
7439,note_on,19,0,1,,,,,,,,3,,,86,0
7439,note_on,19,0,9,,,,,,,,12,,,62,0
7440,note_on,1,0,9,,,,,,,,12,,,60,78
7440,note_on,1,0,12,,,,,,,,15,,,48,82
7440,note_on,1,0,6,,,,,,,,4,,,48,72
7440,note_on,1,0,2,,,,,,,,6,,,72,82
7440,note_on,1,0,10,,,,,,,,13,,,60,78
7440,note_on,1,0,4,,,,,,,,7,,,72,80
7440,note_on,0,0,4,,,,,,,,7,,,60,80
7440,note_on,1,0,1,,,,,,,,3,,,84,85
7440,note_on,1,0,3,,,,,,,,0,,,48,87
7440,note_on,1,0,5,,,,,,,,1,,,72,80
7440,note_on,0,0,5,,,,,,,,1,,,60,80
7559,note_on,119,0,3,,,,,,,,0,,,48,0
7559,note_on,119,0,1,,,,,,,,3,,,84,0
7559,note_on,119,0,10,,,,,,,,13,,,60,0
7559,note_on,0,0,5,,,,,,,,1,,,72,0
7559,note_on,119,0,5,,,,,,,,1,,,60,0
7559,note_on,119,0,4,,,,,,,,7,,,60,0
7559,note_on,0,0,4,,,,,,,,7,,,72,0
7559,note_on,119,0,2,,,,,,,,6,,,72,0
7559,note_on,119,0,12,,,,,,,,15,,,48,0
7559,note_on,119,0,9,,,,,,,,12,,,60,0
7559,note_on,119,0,6,,,,,,,,4,,,48,0
7560,note_on,1,0,3,,,,,,,,0,,,48,78
7560,note_on,1,0,10,,,,,,,,13,,,55,78
7560,note_on,900,0,11,,,,,,,,14,,,60,82
7560,note_on,1,0,1,,,,,,,,3,,,88,82
7560,note_on,0,0,4,,,,,,,,7,,,76,82
7560,note_on,1,0,6,,,,,,,,4,,,48,76
7560,note_on,1,0,2,,,,,,,,6,,,76,82
7560,note_on,0,0,2,,,,,,,,6,,,79,76
7560,note_on,1,0,12,,,,,,,,15,,,48,82
7560,note_on,1,0,5,,,,,,,,1,,,67,80
7560,note_on,0,0,5,,,,,,,,1,,,76,82
7560,note_on,1,0,4,,,,,,,,7,,,67,80
7560,note_on,1,0,9,,,,,,,,12,,,64,80
7574,note_on,14,0,9,,,,,,,,12,,,64,0
7574,note_on,14,0,10,,,,,,,,13,,,55,0
7575,note_on,1,0,9,,,,,,,,12,,,72,82
7575,note_on,1,0,10,,,,,,,,13,,,64,80
7589,note_on,14,0,10,,,,,,,,13,,,64,0
7589,note_on,14,0,9,,,,,,,,12,,,72,0
7590,note_on,1,0,9,,,,,,,,12,,,79,82
7590,note_on,1,0,10,,,,,,,,13,,,72,74
7679,note_on,119,0,11,,,,,,,,14,,,60,0
7679,note_on,119,0,2,,,,,,,,6,,,79,0
7679,note_on,119,0,12,,,,,,,,15,,,48,0
7679,note_on,0,0,2,,,,,,,,6,,,76,0
7679,note_on,0,0,4,,,,,,,,7,,,67,0
7679,note_on,119,0,4,,,,,,,,7,,,76,0
7679,note_on,119,0,6,,,,,,,,4,,,48,0
7679,note_on,89,0,10,,,,,,,,13,,,72,0
7679,note_on,119,0,1,,,,,,,,3,,,88,0
7679,note_on,119,0,5,,,,,,,,1,,,76,0
7679,note_on,119,0,3,,,,,,,,0,,,48,0
7679,note_on,89,0,9,,,,,,,,12,,,79,0
7679,note_on,0,0,5,,,,,,,,1,,,67,0
7680,note_on,1,0,2,,,,,,,,6,,,79,85
7680,note_on,1,0,5,,,,,,,,1,,,72,82
7680,note_on,0,0,5,,,,,,,,1,,,64,82
7680,note_on,0,0,2,,,,,,,,6,,,76,85
7680,note_on,1,0,3,,,,,,,,0,,,48,72
7680,note_on,1,0,6,,,,,,,,4,,,48,80
7680,note_on,0,0,4,,,,,,,,7,,,64,82
7680,note_on,1,0,4,,,,,,,,7,,,72,82
7680,note_on,1,0,12,,,,,,,,15,,,48,80
7680,note_on,1,0,1,,,,,,,,3,,,84,87
7680,note_on,1,0,11,,,,,,,,14,,,60,82
7680,note_on,1,0,9,,,,,,,,12,,,67,82
7680,note_on,1,0,10,,,,,,,,13,,,55,68
7694,note_on,14,0,10,,,,,,,,13,,,55,0
7694,note_on,14,0,9,,,,,,,,12,,,67,0
7695,note_on,1,0,10,,,,,,,,13,,,64,78
7695,note_on,1,0,9,,,,,,,,12,,,76,89
7709,note_on,14,0,10,,,,,,,,13,,,64,0
7709,note_on,14,0,9,,,,,,,,12,,,76,0
7710,note_on,1,0,10,,,,,,,,13,,,72,80
7710,note_on,1,0,9,,,,,,,,12,,,84,82
7799,note_on,0,0,5,,,,,,,,1,,,72,0
7799,note_on,119,0,5,,,,,,,,1,,,64,0
7799,note_on,0,0,2,,,,,,,,6,,,79,0
7799,note_on,119,0,2,,,,,,,,6,,,76,0
7799,note_on,119,0,6,,,,,,,,4,,,48,0
7799,note_on,119,0,1,,,,,,,,3,,,84,0
7799,note_on,89,0,9,,,,,,,,12,,,84,0
7799,note_on,119,0,11,,,,,,,,14,,,60,0
7799,note_on,119,0,4,,,,,,,,7,,,64,0
7799,note_on,0,0,4,,,,,,,,7,,,72,0
7799,note_on,89,0,10,,,,,,,,13,,,72,0
7799,note_on,119,0,3,,,,,,,,0,,,48,0
7799,note_on,119,0,12,,,,,,,,15,,,48,0
7890,note_on,7890,0,7,,,,,,,,5,,,69,72
7897,note_on,7,0,7,,,,,,,,5,,,69,0
7898,note_on,1,0,7,,,,,,,,5,,,67,72
7905,note_on,7,0,7,,,,,,,,5,,,67,0
7905,note_on,0,0,7,,,,,,,,5,,,66,60
7912,note_on,7,0,7,,,,,,,,5,,,66,0
7913,note_on,1,0,7,,,,,,,,5,,,67,78
7919,note_on,6,0,7,,,,,,,,5,,,67,0
7920,note_on,1,0,7,,,,,,,,5,,,72,90
7979,note_on,59,0,7,,,,,,,,5,,,72,0
8010,note_on,31,0,7,,,,,,,,5,,,74,70
8017,note_on,7,0,7,,,,,,,,5,,,74,0
8018,note_on,1,0,7,,,,,,,,5,,,72,60
8025,note_on,7,0,7,,,,,,,,5,,,72,0
8025,note_on,0,0,7,,,,,,,,5,,,71,66
8032,note_on,7,0,7,,,,,,,,5,,,71,0
8033,note_on,1,0,7,,,,,,,,5,,,72,66
8040,note_on,0,0,7,,,,,,,,5,,,76,85
8040,note_on,7,0,7,,,,,,,,5,,,72,0
8100,note_on,60,0,7,,,,,,,,5,,,76,0
8130,note_on,30,0,7,,,,,,,,5,,,77,78
8137,note_on,7,0,7,,,,,,,,5,,,77,0
8138,note_on,1,0,7,,,,,,,,5,,,76,70
8145,note_on,7,0,7,,,,,,,,5,,,76,0
8145,note_on,0,0,7,,,,,,,,5,,,74,60
8152,note_on,7,0,7,,,,,,,,5,,,74,0
8153,note_on,1,0,7,,,,,,,,5,,,76,70
8160,note_on,7,0,7,,,,,,,,5,,,76,0
8160,note_on,0,0,8,,,,,,,,5,,,64,72
8160,note_on,8160,0,8,,,,,,,,5,,,60,82
8160,note_on,0,0,7,,,,,,,,5,,,79,82
8189,note_on,29,0,8,,,,,,,,5,,,64,0
8190,note_on,1,0,8,,,,,,,,5,,,67,66
8219,note_on,59,0,7,,,,,,,,5,,,79,0
8219,note_on,29,0,8,,,,,,,,5,,,67,0
8220,note_on,1,0,7,,,,,,,,5,,,79,82
8220,note_on,1,0,8,,,,,,,,5,,,64,66
8249,note_on,29,0,8,,,,,,,,5,,,64,0
8250,note_on,1,0,8,,,,,,,,5,,,67,66
8279,note_on,29,0,8,,,,,,,,5,,,67,0
8280,note_on,1,0,8,,,,,,,,5,,,64,64
8309,note_on,29,0,8,,,,,,,,5,,,64,0
8310,note_on,1,0,8,,,,,,,,5,,,67,62
8325,note_on,0,0,7,,,,,,,,5,,,81,85
8325,note_on,105,0,7,,,,,,,,5,,,79,0
8332,note_on,7,0,7,,,,,,,,5,,,81,0
8333,note_on,1,0,7,,,,,,,,5,,,79,82
8339,note_on,6,0,7,,,,,,,,5,,,79,0
8339,note_on,29,0,8,,,,,,,,5,,,67,0
8340,note_on,1,0,7,,,,,,,,5,,,77,85
8340,note_on,1,0,8,,,,,,,,5,,,64,61
8369,note_on,29,0,7,,,,,,,,5,,,77,0
8369,note_on,29,0,8,,,,,,,,5,,,64,0
8370,note_on,1,0,7,,,,,,,,5,,,76,78
8370,note_on,1,0,8,,,,,,,,5,,,67,58
8399,note_on,29,0,8,,,,,,,,5,,,67,0
8399,note_on,0,0,8,,,,,,,,5,,,60,0
8399,note_on,29,0,7,,,,,,,,5,,,76,0
8400,note_on,1,0,8,,,,,,,,5,,,65,68
8400,note_on,0,0,8,,,,,,,,5,,,60,72
8400,note_on,1,0,7,,,,,,,,5,,,73,78
8429,note_on,29,0,8,,,,,,,,5,,,65,0
8429,note_on,29,0,7,,,,,,,,5,,,73,0
8430,note_on,1,0,8,,,,,,,,5,,,67,58
8430,note_on,1,0,7,,,,,,,,5,,,74,85
8459,note_on,29,0,8,,,,,,,,5,,,67,0
8459,note_on,29,0,7,,,,,,,,5,,,74,0
8460,note_on,1,0,8,,,,,,,,5,,,65,59
8460,note_on,1,0,7,,,,,,,,5,,,74,82
8489,note_on,29,0,8,,,,,,,,5,,,65,0
8490,note_on,1,0,8,,,,,,,,5,,,67,64
8519,note_on,59,0,7,,,,,,,,5,,,74,0
8519,note_on,29,0,8,,,,,,,,5,,,67,0
8520,note_on,1,0,8,,,,,,,,5,,,65,59
8520,note_on,1,0,7,,,,,,,,5,,,76,82
8534,note_on,14,0,7,,,,,,,,5,,,76,0
8535,note_on,1,0,7,,,,,,,,5,,,74,76
8549,note_on,29,0,8,,,,,,,,5,,,65,0
8549,note_on,14,0,7,,,,,,,,5,,,74,0
8550,note_on,1,0,8,,,,,,,,5,,,67,66
8550,note_on,1,0,7,,,,,,,,5,,,73,68
8564,note_on,14,0,7,,,,,,,,5,,,73,0
8565,note_on,1,0,7,,,,,,,,5,,,74,82
8579,note_on,29,0,8,,,,,,,,5,,,67,0
8579,note_on,14,0,7,,,,,,,,5,,,74,0
8580,note_on,1,0,8,,,,,,,,5,,,65,58
8580,note_on,1,0,7,,,,,,,,5,,,77,70
8609,note_on,29,0,8,,,,,,,,5,,,65,0
8609,note_on,29,0,7,,,,,,,,5,,,77,0
8610,note_on,1,0,8,,,,,,,,5,,,67,59
8610,note_on,1,0,7,,,,,,,,5,,,71,72
8639,note_on,0,0,8,,,,,,,,5,,,60,0
8639,note_on,29,0,8,,,,,,,,5,,,67,0
8639,note_on,29,0,7,,,,,,,,5,,,71,0
8640,note_on,0,0,8,,,,,,,,5,,,60,72
8640,note_on,1,0,8,,,,,,,,5,,,64,66
8640,note_on,1,0,7,,,,,,,,5,,,72,72
8654,note_on,14,0,7,,,,,,,,5,,,72,0
8655,note_on,1,0,7,,,,,,,,5,,,74,72
8669,note_on,14,0,7,,,,,,,,5,,,74,0
8669,note_on,29,0,8,,,,,,,,5,,,64,0
8670,note_on,1,0,8,,,,,,,,5,,,67,60
8670,note_on,1,0,7,,,,,,,,5,,,72,76
8684,note_on,14,0,7,,,,,,,,5,,,72,0
8685,note_on,1,0,7,,,,,,,,5,,,71,74
8699,note_on,14,0,7,,,,,,,,5,,,71,0
8699,note_on,29,0,8,,,,,,,,5,,,67,0
8700,note_on,1,0,8,,,,,,,,5,,,64,60
8700,note_on,1,0,7,,,,,,,,5,,,72,72
8714,note_on,14,0,7,,,,,,,,5,,,72,0
8715,note_on,1,0,7,,,,,,,,5,,,74,72
8729,note_on,29,0,8,,,,,,,,5,,,64,0
8729,note_on,14,0,7,,,,,,,,5,,,74,0
8730,note_on,1,0,8,,,,,,,,5,,,67,59
8730,note_on,1,0,7,,,,,,,,5,,,76,80
8744,note_on,14,0,7,,,,,,,,5,,,76,0
8745,note_on,1,0,7,,,,,,,,5,,,77,74
8759,note_on,29,0,8,,,,,,,,5,,,67,0
8759,note_on,14,0,7,,,,,,,,5,,,77,0
8760,note_on,1,0,7,,,,,,,,5,,,79,70
8760,note_on,1,0,8,,,,,,,,5,,,64,60
8774,note_on,14,0,7,,,,,,,,5,,,79,0
8775,note_on,1,0,7,,,,,,,,5,,,81,70
8789,note_on,29,0,8,,,,,,,,5,,,64,0
8789,note_on,14,0,7,,,,,,,,5,,,81,0
8790,note_on,1,0,8,,,,,,,,5,,,67,60
8790,note_on,1,0,7,,,,,,,,5,,,83,70
8804,note_on,14,0,7,,,,,,,,5,,,83,0
8805,note_on,1,0,7,,,,,,,,5,,,84,70
8819,note_on,14,0,7,,,,,,,,5,,,84,0
8819,note_on,29,0,8,,,,,,,,5,,,67,0
8820,note_on,1,0,7,,,,,,,,5,,,86,85
8820,note_on,1,0,8,,,,,,,,5,,,64,63
8834,note_on,14,0,7,,,,,,,,5,,,86,0
8835,note_on,1,0,7,,,,,,,,5,,,88,74
8849,note_on,29,0,8,,,,,,,,5,,,64,0
8849,note_on,14,0,7,,,,,,,,5,,,88,0
8850,note_on,1,0,7,,,,,,,,5,,,86,80
8850,note_on,1,0,8,,,,,,,,5,,,67,60
8864,note_on,14,0,7,,,,,,,,5,,,86,0
8865,note_on,1,0,7,,,,,,,,5,,,84,82
8879,note_on,29,0,8,,,,,,,,5,,,67,0
8879,note_on,0,0,8,,,,,,,,5,,,60,0
8879,note_on,14,0,7,,,,,,,,5,,,84,0
8880,note_on,1,0,8,,,,,,,,5,,,60,74
8880,note_on,0,0,8,,,,,,,,5,,,65,60
8880,note_on,1,0,7,,,,,,,,5,,,83,78
8899,note_on,19,0,7,,,,,,,,5,,,83,0
8900,note_on,1,0,7,,,,,,,,5,,,86,82
8909,note_on,29,0,8,,,,,,,,5,,,65,0
8910,note_on,1,0,8,,,,,,,,5,,,67,60
8919,note_on,19,0,7,,,,,,,,5,,,86,0
8920,note_on,1,0,7,,,,,,,,5,,,89,82
8939,note_on,29,0,8,,,,,,,,5,,,67,0
8939,note_on,19,0,7,,,,,,,,5,,,89,0
8940,note_on,1,0,8,,,,,,,,5,,,65,57
8940,note_on,1,0,7,,,,,,,,5,,,88,82
8959,note_on,19,0,7,,,,,,,,5,,,88,0
8960,note_on,1,0,7,,,,,,,,5,,,86,78
8969,note_on,29,0,8,,,,,,,,5,,,65,0
8970,note_on,1,0,8,,,,,,,,5,,,67,59
8979,note_on,19,0,7,,,,,,,,5,,,86,0
8980,note_on,1,0,7,,,,,,,,5,,,84,74
8999,note_on,29,0,8,,,,,,,,5,,,67,0
8999,note_on,19,0,7,,,,,,,,5,,,84,0
9000,note_on,1,0,8,,,,,,,,5,,,65,58
9000,note_on,1,0,7,,,,,,,,5,,,83,82
9019,note_on,19,0,7,,,,,,,,5,,,83,0
9020,note_on,1,0,7,,,,,,,,5,,,81,78
9029,note_on,29,0,8,,,,,,,,5,,,65,0
9030,note_on,1,0,8,,,,,,,,5,,,67,64
9039,note_on,19,0,7,,,,,,,,5,,,81,0
9040,note_on,1,0,7,,,,,,,,5,,,79,76
9059,note_on,29,0,8,,,,,,,,5,,,67,0
9059,note_on,19,0,7,,,,,,,,5,,,79,0
9060,note_on,1,0,7,,,,,,,,5,,,77,80
9060,note_on,1,0,8,,,,,,,,5,,,65,70
9079,note_on,19,0,7,,,,,,,,5,,,77,0
9080,note_on,1,0,7,,,,,,,,5,,,76,82
9089,note_on,29,0,8,,,,,,,,5,,,65,0
9090,note_on,1,0,8,,,,,,,,5,,,67,70
9099,note_on,19,0,7,,,,,,,,5,,,76,0
9100,note_on,1,0,7,,,,,,,,5,,,74,82
9119,note_on,29,0,8,,,,,,,,5,,,67,0
9119,note_on,0,0,8,,,,,,,,5,,,60,0
9119,note_on,19,0,7,,,,,,,,5,,,74,0
9120,note_on,0,0,8,,,,,,,,5,,,64,70
9120,note_on,1,0,8,,,,,,,,5,,,60,80
9120,note_on,1,0,7,,,,,,,,5,,,72,76
9134,note_on,14,0,7,,,,,,,,5,,,72,0
9135,note_on,1,0,7,,,,,,,,5,,,76,82
9149,note_on,14,0,7,,,,,,,,5,,,76,0
9150,note_on,1,0,7,,,,,,,,5,,,74,76
9164,note_on,14,0,7,,,,,,,,5,,,74,0
9165,note_on,1,0,7,,,,,,,,5,,,77,78
9179,note_on,14,0,7,,,,,,,,5,,,77,0
9180,note_on,1,0,7,,,,,,,,5,,,76,85
9194,note_on,14,0,7,,,,,,,,5,,,76,0
9195,note_on,1,0,7,,,,,,,,5,,,79,68
9209,note_on,14,0,7,,,,,,,,5,,,79,0
9210,note_on,1,0,7,,,,,,,,5,,,77,78
9224,note_on,14,0,7,,,,,,,,5,,,77,0
9225,note_on,1,0,7,,,,,,,,5,,,81,85
9239,note_on,119,0,8,,,,,,,,5,,,64,0
9239,note_on,0,0,8,,,,,,,,5,,,60,0
9239,note_on,14,0,7,,,,,,,,5,,,81,0
9240,note_on,1,0,7,,,,,,,,5,,,79,74
9255,note_on,15,0,7,,,,,,,,5,,,79,0
9270,note_on,15,0,7,,,,,,,,5,,,81,85
9285,note_on,15,0,7,,,,,,,,5,,,81,0
9300,note_on,15,0,7,,,,,,,,5,,,83,82
9315,note_on,15,0,7,,,,,,,,5,,,83,0
9330,note_on,15,0,7,,,,,,,,5,,,84,87
9345,note_on,15,0,7,,,,,,,,5,,,84,0
9360,note_on,121,0,8,,,,,,,,5,,,65,85
9360,note_on,0,0,8,,,,,,,,5,,,53,70
9360,note_on,15,0,7,,,,,,,,5,,,81,80
9360,note_on,0,0,7,,,,,,,,5,,,72,78
9360,note_on,0,0,7,,,,,,,,5,,,77,80
9419,note_on,59,0,7,,,,,,,,5,,,77,0
9419,note_on,0,0,8,,,,,,,,5,,,65,0
9419,note_on,0,0,7,,,,,,,,5,,,72,0
9419,note_on,0,0,7,,,,,,,,5,,,81,0
9419,note_on,59,0,8,,,,,,,,5,,,53,0
9420,note_on,0,0,7,,,,,,,,5,,,76,82
9420,note_on,0,0,7,,,,,,,,5,,,79,82
9420,note_on,0,0,8,,,,,,,,5,,,60,68
9420,note_on,1,0,8,,,,,,,,5,,,48,78
9420,note_on,1,0,7,,,,,,,,5,,,72,80
9479,note_on,0,0,7,,,,,,,,5,,,72,0
9479,note_on,0,0,8,,,,,,,,5,,,48,0
9479,note_on,59,0,8,,,,,,,,5,,,60,0
9479,note_on,59,0,7,,,,,,,,5,,,79,0
9479,note_on,0,0,7,,,,,,,,5,,,76,0
9510,note_on,31,0,7,,,,,,,,5,,,88,82
9524,note_on,14,0,7,,,,,,,,5,,,88,0
9525,note_on,1,0,7,,,,,,,,5,,,86,85
9539,note_on,14,0,7,,,,,,,,5,,,86,0
9540,note_on,1,0,7,,,,,,,,5,,,84,85
9554,note_on,14,0,7,,,,,,,,5,,,84,0
9555,note_on,1,0,7,,,,,,,,5,,,83,80
9569,note_on,14,0,7,,,,,,,,5,,,83,0
9570,note_on,1,0,7,,,,,,,,5,,,81,82
9584,note_on,14,0,7,,,,,,,,5,,,81,0
9585,note_on,1,0,7,,,,,,,,5,,,79,82
9599,note_on,14,0,7,,,,,,,,5,,,79,0
9600,note_on,121,0,8,,,,,,,,5,,,55,80
9600,note_on,0,0,8,,,,,,,,5,,,59,70
9600,note_on,1,0,7,,,,,,,,5,,,77,82
9630,note_on,30,0,7,,,,,,,,5,,,77,0
9659,note_on,59,0,8,,,,,,,,5,,,59,0
9659,note_on,0,0,8,,,,,,,,5,,,55,0
9660,note_on,30,0,7,,,,,,,,5,,,76,87
9660,note_on,0,0,8,,,,,,,,5,,,48,74
9660,note_on,1,0,8,,,,,,,,5,,,60,66
9690,note_on,30,0,7,,,,,,,,5,,,76,0
9719,note_on,0,0,8,,,,,,,,5,,,60,0
9719,note_on,59,0,8,,,,,,,,5,,,48,0
9720,note_on,1,0,8,,,,,,,,5,,,72,72
9750,note_on,60,0,7,,,,,,,,5,,,76,74
9779,note_on,29,0,7,,,,,,,,5,,,76,0
9780,note_on,1,0,7,,,,,,,,5,,,79,80
9809,note_on,29,0,7,,,,,,,,5,,,79,0
9810,note_on,1,0,7,,,,,,,,5,,,88,80
9839,note_on,29,0,7,,,,,,,,5,,,88,0
9839,note_on,119,0,8,,,,,,,,5,,,72,0
9840,note_on,1,0,7,,,,,,,,5,,,76,72
9840,note_on,1,0,8,,,,,,,,5,,,69,78
9869,note_on,29,0,7,,,,,,,,5,,,76,0
9870,note_on,1,0,7,,,,,,,,5,,,77,80
9899,note_on,29,0,7,,,,,,,,5,,,77,0
9900,note_on,1,0,7,,,,,,,,5,,,88,82
9959,note_on,119,0,8,,,,,,,,5,,,69,0
9960,note_on,1,0,8,,,,,,,,5,,,71,70
9989,note_on,89,0,7,,,,,,,,5,,,88,0
9990,note_on,1,0,7,,,,,,,,5,,,74,72
10019,note_on,29,0,7,,,,,,,,5,,,74,0
10020,note_on,1,0,7,,,,,,,,5,,,77,78
10049,note_on,29,0,7,,,,,,,,5,,,77,0
10050,note_on,1,0,7,,,,,,,,5,,,86,87
10079,note_on,29,0,7,,,,,,,,5,,,86,0
10079,note_on,119,0,8,,,,,,,,5,,,71,0
10080,note_on,1,0,7,,,,,,,,5,,,74,72
10080,note_on,1,0,8,,,,,,,,5,,,67,76
10109,note_on,29,0,7,,,,,,,,5,,,74,0
10110,note_on,1,0,7,,,,,,,,5,,,76,85
10139,note_on,29,0,7,,,,,,,,5,,,76,0
10140,note_on,1,0,7,,,,,,,,5,,,86,82
10199,note_on,119,0,8,,,,,,,,5,,,67,0
10200,note_on,1,0,8,,,,,,,,5,,,69,70
10229,note_on,89,0,7,,,,,,,,5,,,86,0
10230,note_on,1,0,7,,,,,,,,5,,,72,78
10259,note_on,29,0,7,,,,,,,,5,,,72,0
10260,note_on,1,0,7,,,,,,,,5,,,76,72
10289,note_on,29,0,7,,,,,,,,5,,,76,0
10290,note_on,1,0,7,,,,,,,,5,,,84,76
10319,note_on,119,0,8,,,,,,,,5,,,69,0
10319,note_on,29,0,7,,,,,,,,5,,,84,0
10320,note_on,1,0,7,,,,,,,,5,,,72,80
10320,note_on,1,0,8,,,,,,,,5,,,65,82
10349,note_on,29,0,7,,,,,,,,5,,,72,0
10350,note_on,1,0,7,,,,,,,,5,,,74,87
10379,note_on,29,0,7,,,,,,,,5,,,74,0
10380,note_on,1,0,7,,,,,,,,5,,,84,80
10439,note_on,119,0,8,,,,,,,,5,,,65,0
10440,note_on,1,0,8,,,,,,,,5,,,67,78
10469,note_on,89,0,7,,,,,,,,5,,,84,0
10470,note_on,1,0,7,,,,,,,,5,,,71,76
10499,note_on,29,0,7,,,,,,,,5,,,71,0
10500,note_on,1,0,7,,,,,,,,5,,,74,76
10529,note_on,29,0,7,,,,,,,,5,,,74,0
10530,note_on,1,0,7,,,,,,,,5,,,83,72
10559,note_on,29,0,7,,,,,,,,5,,,83,0
10559,note_on,119,0,8,,,,,,,,5,,,67,0
10560,note_on,1,0,8,,,,,,,,5,,,60,80
10560,note_on,1,0,7,,,,,,,,5,,,86,70
10619,note_on,59,0,7,,,,,,,,5,,,86,0
10620,note_on,1,0,7,,,,,,,,5,,,84,72
10679,note_on,59,0,7,,,,,,,,5,,,84,0
10679,note_on,119,0,8,,,,,,,,5,,,60,0
10680,note_on,1,0,8,,,,,,,,5,,,48,76
10680,note_on,2881,0,12,,,,,,,,15,,,60,60
10680,note_on,2881,0,11,,,,,,,,14,,,67,60
10680,note_on,2881,0,10,,,,,,,,13,,,76,60
10680,note_on,2881,0,9,,,,,,,,12,,,79,60
10699,note_on,19,0,8,,,,,,,,5,,,48,0
10700,note_on,1,0,8,,,,,,,,5,,,52,78
10719,note_on,19,0,8,,,,,,,,5,,,52,0
10720,note_on,1,0,8,,,,,,,,5,,,55,78
10739,note_on,19,0,8,,,,,,,,5,,,55,0
10740,note_on,0,0,7,,,,,,,,5,,,88,80
10740,note_on,1,0,8,,,,,,,,5,,,60,72
10740,note_on,61,0,7,,,,,,,,5,,,84,76
10740,note_on,0,0,7,,,,,,,,5,,,79,64
10759,note_on,19,0,8,,,,,,,,5,,,60,0
10760,note_on,1,0,8,,,,,,,,5,,,64,66
10779,note_on,19,0,8,,,,,,,,5,,,64,0
10780,note_on,1,0,8,,,,,,,,5,,,67,70
10799,note_on,119,0,12,,,,,,,,15,,,60,0
10799,note_on,19,0,8,,,,,,,,5,,,67,0
10799,note_on,119,0,9,,,,,,,,12,,,79,0
10799,note_on,119,0,11,,,,,,,,14,,,67,0
10800,note_on,0,0,7,,,,,,,,5,,,79,0
10800,note_on,0,0,7,,,,,,,,5,,,84,0
10800,note_on,1,0,12,,,,,,,,15,,,57,60
10800,note_on,60,0,7,,,,,,,,5,,,88,0
10800,note_on,1,0,8,,,,,,,,5,,,45,70
10800,note_on,1,0,9,,,,,,,,12,,,77,60
10800,note_on,1,0,11,,,,,,,,14,,,72,60
10819,note_on,19,0,8,,,,,,,,5,,,45,0
10820,note_on,1,0,8,,,,,,,,5,,,48,82
10839,note_on,19,0,8,,,,,,,,5,,,48,0
10840,note_on,1,0,8,,,,,,,,5,,,53,72
10859,note_on,19,0,8,,,,,,,,5,,,53,0
10860,note_on,0,0,7,,,,,,,,5,,,88,78
10860,note_on,0,0,7,,,,,,,,5,,,84,85
10860,note_on,60,0,7,,,,,,,,5,,,77,70
10860,note_on,1,0,8,,,,,,,,5,,,57,80
10879,note_on,19,0,8,,,,,,,,5,,,57,0
10880,note_on,1,0,8,,,,,,,,5,,,60,66
10899,note_on,19,0,8,,,,,,,,5,,,60,0
10900,note_on,1,0,8,,,,,,,,5,,,57,70
10919,note_on,119,0,11,,,,,,,,14,,,72,0
10919,note_on,19,0,8,,,,,,,,5,,,57,0
10919,note_on,119,0,12,,,,,,,,15,,,57,0
10919,note_on,239,0,10,,,,,,,,13,,,76,0
10920,note_on,1,0,11,,,,,,,,14,,,65,60
10920,note_on,1,0,8,,,,,,,,5,,,47,68
10920,note_on,1,0,10,,,,,,,,13,,,74,60
10920,note_on,1,0,12,,,,,,,,15,,,59,60
10920,note_on,0,0,7,,,,,,,,5,,,84,0
10920,note_on,60,0,7,,,,,,,,5,,,88,0
10920,note_on,0,0,7,,,,,,,,5,,,77,0
10939,note_on,19,0,8,,,,,,,,5,,,47,0
10940,note_on,1,0,8,,,,,,,,5,,,50,74
10959,note_on,19,0,8,,,,,,,,5,,,50,0
10960,note_on,1,0,8,,,,,,,,5,,,53,74
10979,note_on,19,0,8,,,,,,,,5,,,53,0
10980,note_on,0,0,7,,,,,,,,5,,,86,80
10980,note_on,0,0,7,,,,,,,,5,,,83,80
10980,note_on,1,0,8,,,,,,,,5,,,59,76
10980,note_on,60,0,7,,,,,,,,5,,,77,70
10999,note_on,19,0,8,,,,,,,,5,,,59,0
11000,note_on,1,0,8,,,,,,,,5,,,62,74
11019,note_on,19,0,8,,,,,,,,5,,,62,0
11020,note_on,1,0,8,,,,,,,,5,,,65,76
11039,note_on,19,0,8,,,,,,,,5,,,65,0
11039,note_on,119,0,12,,,,,,,,15,,,59,0
11039,note_on,119,0,11,,,,,,,,14,,,65,0
11039,note_on,239,0,9,,,,,,,,12,,,77,0
11040,note_on,1,0,8,,,,,,,,5,,,44,78
11040,note_on,60,0,7,,,,,,,,5,,,86,0
11040,note_on,0,0,7,,,,,,,,5,,,83,0
11040,note_on,0,0,7,,,,,,,,5,,,77,0
11040,note_on,1,0,9,,,,,,,,12,,,76,60
11040,note_on,1,0,12,,,,,,,,15,,,56,60
11040,note_on,1,0,11,,,,,,,,14,,,71,60
11059,note_on,19,0,8,,,,,,,,5,,,44,0
11060,note_on,1,0,8,,,,,,,,5,,,47,68
11079,note_on,19,0,8,,,,,,,,5,,,47,0
11080,note_on,1,0,8,,,,,,,,5,,,52,78
11099,note_on,19,0,8,,,,,,,,5,,,52,0
11100,note_on,1,0,8,,,,,,,,5,,,56,64
11100,note_on,60,0,7,,,,,,,,5,,,76,58
11100,note_on,0,0,7,,,,,,,,5,,,83,72
11100,note_on,0,0,7,,,,,,,,5,,,86,82
11119,note_on,19,0,8,,,,,,,,5,,,56,0
11120,note_on,1,0,8,,,,,,,,5,,,59,68
11139,note_on,19,0,8,,,,,,,,5,,,59,0
11140,note_on,1,0,8,,,,,,,,5,,,56,63
11159,note_on,19,0,8,,,,,,,,5,,,56,0
11159,note_on,239,0,10,,,,,,,,13,,,74,0
11159,note_on,119,0,12,,,,,,,,15,,,56,0
11159,note_on,119,0,11,,,,,,,,14,,,71,0
11160,note_on,0,0,7,,,,,,,,5,,,76,0
11160,note_on,0,0,7,,,,,,,,5,,,83,0
11160,note_on,1,0,12,,,,,,,,15,,,57,60
11160,note_on,1,0,11,,,,,,,,14,,,64,60
11160,note_on,1,0,8,,,,,,,,5,,,45,74
11160,note_on,60,0,7,,,,,,,,5,,,86,0
11160,note_on,1,0,10,,,,,,,,13,,,72,60
11179,note_on,19,0,8,,,,,,,,5,,,45,0
11180,note_on,1,0,8,,,,,,,,5,,,48,70
11199,note_on,19,0,8,,,,,,,,5,,,48,0
11200,note_on,1,0,8,,,,,,,,5,,,52,70
11219,note_on,19,0,8,,,,,,,,5,,,52,0
11220,note_on,0,0,7,,,,,,,,5,,,81,82
11220,note_on,0,0,7,,,,,,,,5,,,84,78
11220,note_on,60,0,7,,,,,,,,5,,,76,68
11220,note_on,1,0,8,,,,,,,,5,,,57,72
11239,note_on,19,0,8,,,,,,,,5,,,57,0
11240,note_on,1,0,8,,,,,,,,5,,,60,68
11259,note_on,19,0,8,,,,,,,,5,,,60,0
11260,note_on,1,0,8,,,,,,,,5,,,57,72
11279,note_on,239,0,9,,,,,,,,12,,,76,0
11279,note_on,119,0,11,,,,,,,,14,,,64,0
11279,note_on,19,0,8,,,,,,,,5,,,57,0
11279,note_on,119,0,12,,,,,,,,15,,,57,0
11279,note_on,119,0,10,,,,,,,,13,,,72,0
11280,note_on,1,0,10,,,,,,,,13,,,69,64
11280,note_on,1,0,8,,,,,,,,5,,,53,85
11280,note_on,0,0,8,,,,,,,,5,,,41,85
11280,note_on,1,0,11,,,,,,,,14,,,65,74
11280,note_on,60,0,7,,,,,,,,5,,,84,0
11280,note_on,1,0,12,,,,,,,,15,,,53,60
11280,note_on,1,0,9,,,,,,,,12,,,74,66
11280,note_on,0,0,7,,,,,,,,5,,,81,0
11280,note_on,0,0,7,,,,,,,,5,,,76,0
11280,note_on,0,0,7,,,,,,,,5,,,81,85
11299,note_on,19,0,7,,,,,,,,5,,,81,0
11300,note_on,1,0,7,,,,,,,,5,,,79,85
11319,note_on,19,0,7,,,,,,,,5,,,79,0
11320,note_on,1,0,7,,,,,,,,5,,,77,82
11339,note_on,19,0,7,,,,,,,,5,,,77,0
11340,note_on,60,0,12,,,,,,,,15,,,53,0
11340,note_on,60,0,8,,,,,,,,5,,,41,0
11340,note_on,1,0,7,,,,,,,,5,,,76,82
11340,note_on,60,0,11,,,,,,,,14,,,65,0
11340,note_on,60,0,9,,,,,,,,12,,,74,0
11340,note_on,0,0,8,,,,,,,,5,,,53,0
11340,note_on,60,0,10,,,,,,,,13,,,69,0
11359,note_on,19,0,7,,,,,,,,5,,,76,0
11360,note_on,1,0,7,,,,,,,,5,,,74,82
11379,note_on,19,0,7,,,,,,,,5,,,74,0
11380,note_on,1,0,7,,,,,,,,5,,,72,80
11399,note_on,19,0,7,,,,,,,,5,,,72,0
11400,note_on,1,0,7,,,,,,,,5,,,71,87
11400,note_on,60,0,9,,,,,,,,12,,,71,60
11400,note_on,60,0,8,,,,,,,,5,,,43,85
11400,note_on,60,0,12,,,,,,,,15,,,55,70
11400,note_on,60,0,10,,,,,,,,13,,,65,66
11400,note_on,60,0,11,,,,,,,,14,,,62,68
11400,note_on,0,0,8,,,,,,,,5,,,55,85
11419,note_on,19,0,7,,,,,,,,5,,,71,0
11420,note_on,1,0,7,,,,,,,,5,,,69,80
11439,note_on,19,0,7,,,,,,,,5,,,69,0
11440,note_on,1,0,7,,,,,,,,5,,,67,82
11459,note_on,19,0,7,,,,,,,,5,,,67,0
11460,note_on,60,0,10,,,,,,,,13,,,65,0
11460,note_on,60,0,11,,,,,,,,14,,,62,0
11460,note_on,0,0,8,,,,,,,,5,,,43,0
11460,note_on,60,0,12,,,,,,,,15,,,55,0
11460,note_on,60,0,9,,,,,,,,12,,,71,0
11460,note_on,60,0,8,,,,,,,,5,,,55,0
11460,note_on,1,0,7,,,,,,,,5,,,65,85
11479,note_on,19,0,7,,,,,,,,5,,,65,0
11480,note_on,1,0,7,,,,,,,,5,,,64,82
11499,note_on,19,0,7,,,,,,,,5,,,64,0
11500,note_on,1,0,7,,,,,,,,5,,,62,85
11519,note_on,19,0,7,,,,,,,,5,,,62,0
11520,note_on,1,0,7,,,,,,,,5,,,60,82
11520,note_on,60,0,11,,,,,,,,14,,,60,74
11520,note_on,60,0,12,,,,,,,,15,,,48,78
11520,note_on,0,0,8,,,,,,,,5,,,36,85
11520,note_on,60,0,8,,,,,,,,5,,,48,87
11520,note_on,60,0,10,,,,,,,,13,,,64,66
11520,note_on,60,0,9,,,,,,,,12,,,72,68
11539,note_on,19,0,7,,,,,,,,5,,,60,0
11540,note_on,1,0,7,,,,,,,,5,,,55,82
11559,note_on,19,0,7,,,,,,,,5,,,55,0
11560,note_on,1,0,7,,,,,,,,5,,,64,80
11579,note_on,19,0,7,,,,,,,,5,,,64,0
11580,note_on,1,0,7,,,,,,,,5,,,62,80
11599,note_on,19,0,7,,,,,,,,5,,,62,0
11600,note_on,1,0,7,,,,,,,,5,,,55,85
11619,note_on,19,0,7,,,,,,,,5,,,55,0
11620,note_on,1,0,7,,,,,,,,5,,,65,82
11639,note_on,19,0,7,,,,,,,,5,,,65,0
11639,note_on,119,0,11,,,,,,,,14,,,60,0
11639,note_on,119,0,9,,,,,,,,12,,,72,0
11639,note_on,0,0,8,,,,,,,,5,,,48,0
11639,note_on,119,0,12,,,,,,,,15,,,48,0
11639,note_on,119,0,8,,,,,,,,5,,,36,0
11639,note_on,119,0,10,,,,,,,,13,,,64,0
11640,note_on,1,0,7,,,,,,,,5,,,64,82
11659,note_on,19,0,7,,,,,,,,5,,,64,0
11660,note_on,1,0,7,,,,,,,,5,,,55,80
11679,note_on,19,0,7,,,,,,,,5,,,55,0
11680,note_on,1,0,7,,,,,,,,5,,,67,85
11699,note_on,19,0,7,,,,,,,,5,,,67,0
11700,note_on,61,0,8,,,,,,,,5,,,31,80
11700,note_on,0,0,8,,,,,,,,5,,,43,80
11700,note_on,1,0,7,,,,,,,,5,,,65,78
11719,note_on,19,0,7,,,,,,,,5,,,65,0
11720,note_on,1,0,7,,,,,,,,5,,,62,85
11739,note_on,19,0,7,,,,,,,,5,,,62,0
11740,note_on,1,0,7,,,,,,,,5,,,59,80
11759,note_on,0,0,8,,,,,,,,5,,,31,0
11759,note_on,19,0,7,,,,,,,,5,,,59,0
11759,note_on,59,0,8,,,,,,,,5,,,43,0
11760,note_on,1,0,8,,,,,,,,5,,,48,87
11760,note_on,1,0,7,,,,,,,,5,,,60,82
11760,note_on,0,0,8,,,,,,,,5,,,36,82
11779,note_on,19,0,7,,,,,,,,5,,,60,0
11780,note_on,1,0,7,,,,,,,,5,,,55,74
11799,note_on,19,0,7,,,,,,,,5,,,55,0
11800,note_on,1,0,7,,,,,,,,5,,,64,68
11819,note_on,19,0,7,,,,,,,,5,,,64,0
11820,note_on,1,0,7,,,,,,,,5,,,62,85
11839,note_on,19,0,7,,,,,,,,5,,,62,0
11840,note_on,1,0,7,,,,,,,,5,,,55,78
11859,note_on,19,0,7,,,,,,,,5,,,55,0
11860,note_on,1,0,7,,,,,,,,5,,,65,80
11879,note_on,119,0,8,,,,,,,,5,,,36,0
11879,note_on,0,0,8,,,,,,,,5,,,48,0
11879,note_on,19,0,7,,,,,,,,5,,,65,0
11880,note_on,1,0,7,,,,,,,,5,,,64,82
11899,note_on,19,0,7,,,,,,,,5,,,64,0
11900,note_on,1,0,7,,,,,,,,5,,,55,76
11919,note_on,19,0,7,,,,,,,,5,,,55,0
11920,note_on,1,0,7,,,,,,,,5,,,67,82
11939,note_on,19,0,7,,,,,,,,5,,,67,0
11940,note_on,1,0,7,,,,,,,,5,,,65,82
11940,note_on,61,0,8,,,,,,,,5,,,31,76
11940,note_on,0,0,8,,,,,,,,5,,,43,76
11959,note_on,19,0,7,,,,,,,,5,,,65,0
11960,note_on,1,0,7,,,,,,,,5,,,62,87
11979,note_on,19,0,7,,,,,,,,5,,,62,0
11980,note_on,1,0,7,,,,,,,,5,,,59,78
11999,note_on,59,0,8,,,,,,,,5,,,43,0
11999,note_on,0,0,8,,,,,,,,5,,,31,0
11999,note_on,19,0,7,,,,,,,,5,,,59,0
12000,note_on,0,0,8,,,,,,,,5,,,48,82
12000,note_on,1,0,8,,,,,,,,5,,,36,85
12000,note_on,1,0,7,,,,,,,,5,,,64,82
12019,note_on,19,0,7,,,,,,,,5,,,64,0
12020,note_on,1,0,7,,,,,,,,5,,,60,80
12039,note_on,19,0,7,,,,,,,,5,,,60,0
12040,note_on,1,0,7,,,,,,,,5,,,72,80
12059,note_on,19,0,7,,,,,,,,5,,,72,0
12060,note_on,1,0,7,,,,,,,,5,,,65,82
12079,note_on,19,0,7,,,,,,,,5,,,65,0
12080,note_on,1,0,7,,,,,,,,5,,,62,80
12099,note_on,19,0,7,,,,,,,,5,,,62,0
12100,note_on,1,0,7,,,,,,,,5,,,74,72
12119,note_on,0,0,8,,,,,,,,5,,,36,0
12119,note_on,19,0,7,,,,,,,,5,,,74,0
12119,note_on,119,0,8,,,,,,,,5,,,48,0
12120,note_on,1,0,7,,,,,,,,5,,,67,80
12139,note_on,19,0,7,,,,,,,,5,,,67,0
12140,note_on,1,0,7,,,,,,,,5,,,64,80
12159,note_on,19,0,7,,,,,,,,5,,,64,0
12160,note_on,1,0,7,,,,,,,,5,,,76,82
12179,note_on,19,0,7,,,,,,,,5,,,76,0
12180,note_on,1,0,7,,,,,,,,5,,,69,82
12199,note_on,19,0,7,,,,,,,,5,,,69,0
12200,note_on,1,0,7,,,,,,,,5,,,65,76
12219,note_on,19,0,7,,,,,,,,5,,,65,0
12220,note_on,1,0,7,,,,,,,,5,,,77,78
12239,note_on,19,0,7,,,,,,,,5,,,77,0
12240,note_on,1,0,7,,,,,,,,5,,,71,78
12259,note_on,19,0,7,,,,,,,,5,,,71,0
12260,note_on,1,0,7,,,,,,,,5,,,67,80
12279,note_on,19,0,7,,,,,,,,5,,,67,0
12280,note_on,1,0,7,,,,,,,,5,,,79,78
12299,note_on,19,0,7,,,,,,,,5,,,79,0
12300,note_on,1,0,7,,,,,,,,5,,,72,82
12319,note_on,19,0,7,,,,,,,,5,,,72,0
12320,note_on,1,0,7,,,,,,,,5,,,69,80
12339,note_on,19,0,7,,,,,,,,5,,,69,0
12340,note_on,1,0,7,,,,,,,,5,,,81,82
12359,note_on,19,0,7,,,,,,,,5,,,81,0
12360,note_on,1,0,7,,,,,,,,5,,,74,85
12379,note_on,19,0,7,,,,,,,,5,,,74,0
12380,note_on,1,0,7,,,,,,,,5,,,71,80
12399,note_on,19,0,7,,,,,,,,5,,,71,0
12400,note_on,1,0,7,,,,,,,,5,,,83,80
12419,note_on,19,0,7,,,,,,,,5,,,83,0
12420,note_on,1,0,7,,,,,,,,5,,,76,85
12439,note_on,19,0,7,,,,,,,,5,,,76,0
12440,note_on,1,0,7,,,,,,,,5,,,72,80
12459,note_on,19,0,7,,,,,,,,5,,,72,0
12460,note_on,1,0,7,,,,,,,,5,,,84,70
12479,note_on,19,0,7,,,,,,,,5,,,84,0
12480,note_on,361,0,8,,,,,,,,5,,,55,87
12480,note_on,0,0,8,,,,,,,,5,,,43,82
12480,note_on,1,0,7,,,,,,,,5,,,67,85
12499,note_on,19,0,7,,,,,,,,5,,,67,0
12500,note_on,1,0,7,,,,,,,,5,,,62,72
12519,note_on,19,0,7,,,,,,,,5,,,62,0
12520,note_on,1,0,7,,,,,,,,5,,,71,82
12539,note_on,19,0,7,,,,,,,,5,,,71,0
12540,note_on,1,0,7,,,,,,,,5,,,69,78
12559,note_on,19,0,7,,,,,,,,5,,,69,0
12560,note_on,1,0,7,,,,,,,,5,,,62,82
12579,note_on,19,0,7,,,,,,,,5,,,62,0
12580,note_on,1,0,7,,,,,,,,5,,,72,80
12599,note_on,119,0,8,,,,,,,,5,,,43,0
12599,note_on,0,0,8,,,,,,,,5,,,55,0
12599,note_on,19,0,7,,,,,,,,5,,,72,0
12600,note_on,1,0,7,,,,,,,,5,,,71,82
12619,note_on,19,0,7,,,,,,,,5,,,71,0
12620,note_on,1,0,7,,,,,,,,5,,,62,82
12639,note_on,19,0,7,,,,,,,,5,,,62,0
12640,note_on,1,0,7,,,,,,,,5,,,74,80
12659,note_on,19,0,7,,,,,,,,5,,,74,0
12660,note_on,0,0,8,,,,,,,,5,,,38,70
12660,note_on,61,0,8,,,,,,,,5,,,50,80
12660,note_on,1,0,7,,,,,,,,5,,,72,80
12679,note_on,19,0,7,,,,,,,,5,,,72,0
12680,note_on,1,0,7,,,,,,,,5,,,69,82
12699,note_on,19,0,7,,,,,,,,5,,,69,0
12700,note_on,1,0,7,,,,,,,,5,,,66,82
12719,note_on,0,0,8,,,,,,,,5,,,50,0
12719,note_on,19,0,7,,,,,,,,5,,,66,0
12719,note_on,59,0,8,,,,,,,,5,,,38,0
12720,note_on,1,0,7,,,,,,,,5,,,67,80
12720,note_on,0,0,8,,,,,,,,5,,,55,78
12720,note_on,1,0,8,,,,,,,,5,,,43,68
12739,note_on,19,0,7,,,,,,,,5,,,67,0
12740,note_on,1,0,7,,,,,,,,5,,,62,78
12759,note_on,19,0,7,,,,,,,,5,,,62,0
12760,note_on,1,0,7,,,,,,,,5,,,71,78
12779,note_on,19,0,7,,,,,,,,5,,,71,0
12780,note_on,1,0,7,,,,,,,,5,,,69,80
12799,note_on,19,0,7,,,,,,,,5,,,69,0
12800,note_on,1,0,7,,,,,,,,5,,,62,72
12819,note_on,19,0,7,,,,,,,,5,,,62,0
12820,note_on,1,0,7,,,,,,,,5,,,72,72
12839,note_on,19,0,7,,,,,,,,5,,,72,0
12839,note_on,119,0,8,,,,,,,,5,,,55,0
12839,note_on,0,0,8,,,,,,,,5,,,43,0
12840,note_on,1,0,7,,,,,,,,5,,,71,80
12859,note_on,19,0,7,,,,,,,,5,,,71,0
12860,note_on,1,0,7,,,,,,,,5,,,62,72
12879,note_on,19,0,7,,,,,,,,5,,,62,0
12880,note_on,1,0,7,,,,,,,,5,,,74,66
12899,note_on,19,0,7,,,,,,,,5,,,74,0
12900,note_on,61,0,8,,,,,,,,5,,,38,68
12900,note_on,1,0,7,,,,,,,,5,,,72,80
12900,note_on,0,0,8,,,,,,,,5,,,50,80
12919,note_on,19,0,7,,,,,,,,5,,,72,0
12920,note_on,1,0,7,,,,,,,,5,,,69,80
12939,note_on,19,0,7,,,,,,,,5,,,69,0
12940,note_on,1,0,7,,,,,,,,5,,,66,80
12959,note_on,0,0,8,,,,,,,,5,,,38,0
12959,note_on,19,0,7,,,,,,,,5,,,66,0
12959,note_on,59,0,8,,,,,,,,5,,,50,0
12960,note_on,1,0,8,,,,,,,,5,,,55,82
12960,note_on,0,0,8,,,,,,,,5,,,43,76
12960,note_on,1,0,7,,,,,,,,5,,,71,80
12979,note_on,19,0,7,,,,,,,,5,,,71,0
12980,note_on,1,0,7,,,,,,,,5,,,67,80
12999,note_on,19,0,7,,,,,,,,5,,,67,0
13000,note_on,1,0,7,,,,,,,,5,,,79,80
13019,note_on,19,0,7,,,,,,,,5,,,79,0
13020,note_on,1,0,7,,,,,,,,5,,,72,80
13039,note_on,19,0,7,,,,,,,,5,,,72,0
13040,note_on,1,0,7,,,,,,,,5,,,69,81
13059,note_on,19,0,7,,,,,,,,5,,,69,0
13060,note_on,1,0,7,,,,,,,,5,,,81,81
13079,note_on,0,0,8,,,,,,,,5,,,55,0
13079,note_on,119,0,8,,,,,,,,5,,,43,0
13079,note_on,19,0,7,,,,,,,,5,,,81,0
13080,note_on,1,0,7,,,,,,,,5,,,74,81
13099,note_on,19,0,7,,,,,,,,5,,,74,0
13100,note_on,1,0,7,,,,,,,,5,,,71,81
13119,note_on,19,0,7,,,,,,,,5,,,71,0
13120,note_on,1,0,7,,,,,,,,5,,,83,81
13139,note_on,19,0,7,,,,,,,,5,,,83,0
13140,note_on,1,0,7,,,,,,,,5,,,76,81
13159,note_on,19,0,7,,,,,,,,5,,,76,0
13160,note_on,1,0,7,,,,,,,,5,,,72,81
13179,note_on,19,0,7,,,,,,,,5,,,72,0
13180,note_on,1,0,7,,,,,,,,5,,,84,82
13199,note_on,19,0,7,,,,,,,,5,,,84,0
13200,note_on,1,0,7,,,,,,,,5,,,77,82
13219,note_on,19,0,7,,,,,,,,5,,,77,0
13220,note_on,1,0,7,,,,,,,,5,,,74,82
13239,note_on,19,0,7,,,,,,,,5,,,74,0
13240,note_on,1,0,7,,,,,,,,5,,,86,82
13259,note_on,19,0,7,,,,,,,,5,,,86,0
13260,note_on,1,0,7,,,,,,,,5,,,79,82
13279,note_on,19,0,7,,,,,,,,5,,,79,0
13280,note_on,1,0,7,,,,,,,,5,,,76,82
13299,note_on,19,0,7,,,,,,,,5,,,76,0
13300,note_on,1,0,7,,,,,,,,5,,,88,83
13319,note_on,19,0,7,,,,,,,,5,,,88,0
13320,note_on,1,0,7,,,,,,,,5,,,81,83
13339,note_on,19,0,7,,,,,,,,5,,,81,0
13340,note_on,1,0,7,,,,,,,,5,,,77,83
13359,note_on,19,0,7,,,,,,,,5,,,77,0
13360,note_on,1,0,7,,,,,,,,5,,,89,83
13379,note_on,19,0,7,,,,,,,,5,,,89,0
13380,note_on,1,0,7,,,,,,,,5,,,83,83
13399,note_on,19,0,7,,,,,,,,5,,,83,0
13400,note_on,1,0,7,,,,,,,,5,,,79,83
13419,note_on,19,0,7,,,,,,,,5,,,79,0
13420,note_on,1,0,7,,,,,,,,5,,,91,83
13439,note_on,19,0,7,,,,,,,,5,,,91,0
13440,note_on,1801,0,10,,,,,,,,13,,,67,60
13440,note_on,1801,0,9,,,,,,,,12,,,76,60
13440,note_on,361,0,8,,,,,,,,5,,,60,80
13440,note_on,1801,0,11,,,,,,,,14,,,60,60
13440,note_on,1,0,7,,,,,,,,5,,,88,84
13440,note_on,0,0,8,,,,,,,,5,,,64,78
13440,note_on,1801,0,12,,,,,,,,15,,,60,72
13459,note_on,19,0,7,,,,,,,,5,,,88,0
13460,note_on,1,0,7,,,,,,,,5,,,84,84
13479,note_on,19,0,7,,,,,,,,5,,,84,0
13480,note_on,1,0,7,,,,,,,,5,,,83,84
13499,note_on,19,0,7,,,,,,,,5,,,83,0
13500,note_on,1,0,7,,,,,,,,5,,,84,84
13519,note_on,19,0,7,,,,,,,,5,,,84,0
13520,note_on,1,0,7,,,,,,,,5,,,79,84
13539,note_on,19,0,7,,,,,,,,5,,,79,0
13540,note_on,1,0,7,,,,,,,,5,,,78,84
13559,note_on,19,0,7,,,,,,,,5,,,78,0
13560,note_on,1,0,7,,,,,,,,5,,,79,85
13579,note_on,19,0,7,,,,,,,,5,,,79,0
13580,note_on,1,0,7,,,,,,,,5,,,76,85
13599,note_on,19,0,7,,,,,,,,5,,,76,0
13600,note_on,1,0,7,,,,,,,,5,,,75,85
13619,note_on,19,0,7,,,,,,,,5,,,75,0
13620,note_on,1,0,7,,,,,,,,5,,,76,85
13639,note_on,19,0,7,,,,,,,,5,,,76,0
13640,note_on,1,0,7,,,,,,,,5,,,72,85
13659,note_on,19,0,7,,,,,,,,5,,,72,0
13660,note_on,1,0,7,,,,,,,,5,,,71,85
13679,note_on,19,0,7,,,,,,,,5,,,71,0
13680,note_on,1,0,7,,,,,,,,5,,,72,85
13699,note_on,19,0,7,,,,,,,,5,,,72,0
13700,note_on,1,0,7,,,,,,,,5,,,76,86
13719,note_on,19,0,7,,,,,,,,5,,,76,0
13720,note_on,1,0,7,,,,,,,,5,,,75,86
13739,note_on,19,0,7,,,,,,,,5,,,75,0
13740,note_on,1,0,7,,,,,,,,5,,,76,86
13759,note_on,19,0,7,,,,,,,,5,,,76,0
13760,note_on,1,0,7,,,,,,,,5,,,79,86
13779,note_on,19,0,7,,,,,,,,5,,,79,0
13780,note_on,1,0,7,,,,,,,,5,,,78,86
13799,note_on,19,0,7,,,,,,,,5,,,78,0
13800,note_on,1,0,7,,,,,,,,5,,,79,86
13819,note_on,19,0,7,,,,,,,,5,,,79,0
13820,note_on,1,0,7,,,,,,,,5,,,84,86
13839,note_on,19,0,7,,,,,,,,5,,,84,0
13840,note_on,1,0,7,,,,,,,,5,,,83,87
13859,note_on,19,0,7,,,,,,,,5,,,83,0
13860,note_on,1,0,7,,,,,,,,5,,,84,87
13879,note_on,19,0,7,,,,,,,,5,,,84,0
13880,note_on,1,0,7,,,,,,,,5,,,88,87
13899,note_on,19,0,7,,,,,,,,5,,,88,0
13900,note_on,1,0,7,,,,,,,,5,,,84,87
13919,note_on,479,0,9,,,,,,,,12,,,76,0
13919,note_on,19,0,7,,,,,,,,5,,,84,0
13919,note_on,479,0,11,,,,,,,,14,,,60,0
13919,note_on,0,0,8,,,,,,,,5,,,60,0
13919,note_on,479,0,12,,,,,,,,15,,,60,0
13919,note_on,479,0,10,,,,,,,,13,,,67,0
13919,note_on,479,0,8,,,,,,,,5,,,64,0
13920,note_on,1,0,12,,,,,,,,15,,,59,66
13920,note_on,1,0,7,,,,,,,,5,,,86,87
13920,note_on,1,0,9,,,,,,,,12,,,74,60
13920,note_on,0,0,8,,,,,,,,5,,,59,78
13920,note_on,0,0,8,,,,,,,,5,,,62,82
13920,note_on,1,0,11,,,,,,,,14,,,62,60
13920,note_on,1,0,10,,,,,,,,13,,,67,60
13920,note_on,1,0,8,,,,,,,,5,,,55,76
13939,note_on,19,0,7,,,,,,,,5,,,86,0
13940,note_on,1,0,7,,,,,,,,5,,,83,87
13959,note_on,19,0,7,,,,,,,,5,,,83,0
13960,note_on,1,0,7,,,,,,,,5,,,82,88
13979,note_on,19,0,7,,,,,,,,5,,,82,0
13980,note_on,1,0,7,,,,,,,,5,,,83,88
13999,note_on,19,0,7,,,,,,,,5,,,83,0
14000,note_on,1,0,7,,,,,,,,5,,,79,88
14019,note_on,19,0,7,,,,,,,,5,,,79,0
14020,note_on,1,0,7,,,,,,,,5,,,78,88
14039,note_on,19,0,7,,,,,,,,5,,,78,0
14040,note_on,1,0,7,,,,,,,,5,,,79,88
14059,note_on,19,0,7,,,,,,,,5,,,79,0
14060,note_on,1,0,7,,,,,,,,5,,,74,88
14079,note_on,19,0,7,,,,,,,,5,,,74,0
14080,note_on,1,0,7,,,,,,,,5,,,73,88
14099,note_on,19,0,7,,,,,,,,5,,,73,0
14100,note_on,1,0,7,,,,,,,,5,,,74,89
14119,note_on,19,0,7,,,,,,,,5,,,74,0
14120,note_on,1,0,7,,,,,,,,5,,,71,89
14139,note_on,19,0,7,,,,,,,,5,,,71,0
14140,note_on,1,0,7,,,,,,,,5,,,70,89
14159,note_on,19,0,7,,,,,,,,5,,,70,0
14160,note_on,1,0,7,,,,,,,,5,,,71,89
14179,note_on,19,0,7,,,,,,,,5,,,71,0
14180,note_on,1,0,7,,,,,,,,5,,,74,89
14199,note_on,19,0,7,,,,,,,,5,,,74,0
14200,note_on,1,0,7,,,,,,,,5,,,73,89
14219,note_on,19,0,7,,,,,,,,5,,,73,0
14220,note_on,1,0,7,,,,,,,,5,,,74,90
14239,note_on,19,0,7,,,,,,,,5,,,74,0
14240,note_on,1,0,7,,,,,,,,5,,,79,90
14259,note_on,19,0,7,,,,,,,,5,,,79,0
14260,note_on,1,0,7,,,,,,,,5,,,78,90
14279,note_on,19,0,7,,,,,,,,5,,,78,0
14280,note_on,1,0,7,,,,,,,,5,,,79,90
14299,note_on,19,0,7,,,,,,,,5,,,79,0
14300,note_on,1,0,7,,,,,,,,5,,,83,90
14319,note_on,19,0,7,,,,,,,,5,,,83,0
14320,note_on,1,0,7,,,,,,,,5,,,82,90
14339,note_on,19,0,7,,,,,,,,5,,,82,0
14340,note_on,1,0,7,,,,,,,,5,,,83,90
14359,note_on,19,0,7,,,,,,,,5,,,83,0
14360,note_on,1,0,7,,,,,,,,5,,,86,91
14379,note_on,19,0,7,,,,,,,,5,,,86,0
14380,note_on,1,0,7,,,,,,,,5,,,83,91
14399,note_on,19,0,7,,,,,,,,5,,,83,0
14399,note_on,479,0,11,,,,,,,,14,,,62,0
14399,note_on,479,0,12,,,,,,,,15,,,59,0
14399,note_on,479,0,9,,,,,,,,12,,,74,0
14399,note_on,479,0,8,,,,,,,,5,,,62,0
14399,note_on,0,0,8,,,,,,,,5,,,59,0
14399,note_on,0,0,8,,,,,,,,5,,,55,0
14399,note_on,479,0,10,,,,,,,,13,,,67,0
14400,note_on,1,0,7,,,,,,,,5,,,84,91
14400,note_on,1,0,12,,,,,,,,15,,,57,78
14400,note_on,1,0,10,,,,,,,,13,,,67,60
14400,note_on,1,0,9,,,,,,,,12,,,72,60
14400,note_on,0,0,8,,,,,,,,5,,,57,78
14400,note_on,0,0,8,,,,,,,,5,,,60,80
14400,note_on,1,0,8,,,,,,,,5,,,50,72
14400,note_on,1,0,11,,,,,,,,14,,,64,60
14400,note_on,0,0,8,,,,,,,,5,,,54,66
14419,note_on,19,0,7,,,,,,,,5,,,84,0
14420,note_on,1,0,7,,,,,,,,5,,,86,91
14439,note_on,19,0,7,,,,,,,,5,,,86,0
14440,note_on,1,0,7,,,,,,,,5,,,88,91
14459,note_on,19,0,7,,,,,,,,5,,,88,0
14460,note_on,1,0,7,,,,,,,,5,,,86,91
14479,note_on,19,0,7,,,,,,,,5,,,86,0
14480,note_on,1,0,7,,,,,,,,5,,,84,91
14499,note_on,19,0,7,,,,,,,,5,,,84,0
14500,note_on,1,0,7,,,,,,,,5,,,83,92
14519,note_on,19,0,7,,,,,,,,5,,,83,0
14520,note_on,1,0,7,,,,,,,,5,,,81,92
14539,note_on,19,0,7,,,,,,,,5,,,81,0
14540,note_on,1,0,7,,,,,,,,5,,,83,92
14559,note_on,19,0,7,,,,,,,,5,,,83,0
14560,note_on,1,0,7,,,,,,,,5,,,84,92
14579,note_on,19,0,7,,,,,,,,5,,,84,0
14580,note_on,1,0,7,,,,,,,,5,,,83,92
14599,note_on,19,0,7,,,,,,,,5,,,83,0
14600,note_on,1,0,7,,,,,,,,5,,,81,92
14619,note_on,19,0,7,,,,,,,,5,,,81,0
14620,note_on,1,0,7,,,,,,,,5,,,79,93
14639,note_on,239,0,11,,,,,,,,14,,,64,0
14639,note_on,239,0,12,,,,,,,,15,,,57,0
14639,note_on,19,0,7,,,,,,,,5,,,79,0
14639,note_on,239,0,10,,,,,,,,13,,,67,0
14640,note_on,1,0,11,,,,,,,,14,,,62,60
14640,note_on,1,0,12,,,,,,,,15,,,50,72
14640,note_on,1,0,7,,,,,,,,5,,,78,93
14640,note_on,1,0,10,,,,,,,,13,,,67,60
14654,note_on,14,0,10,,,,,,,,13,,,67,0
14655,note_on,1,0,10,,,,,,,,13,,,66,60
14659,note_on,19,0,7,,,,,,,,5,,,78,0
14660,note_on,1,0,7,,,,,,,,5,,,81,93
14669,note_on,14,0,10,,,,,,,,13,,,66,0
14670,note_on,1,0,10,,,,,,,,13,,,67,60
14679,note_on,19,0,7,,,,,,,,5,,,81,0
14680,note_on,1,0,7,,,,,,,,5,,,78,93
14684,note_on,14,0,10,,,,,,,,13,,,67,0
14685,note_on,1,0,10,,,,,,,,13,,,66,60
14699,note_on,299,0,9,,,,,,,,12,,,72,0
14699,note_on,59,0,11,,,,,,,,14,,,62,0
14699,note_on,19,0,7,,,,,,,,5,,,78,0
14699,note_on,14,0,10,,,,,,,,13,,,66,0
14700,note_on,1,0,10,,,,,,,,13,,,67,60
14700,note_on,1,0,11,,,,,,,,14,,,60,60
14700,note_on,1,0,7,,,,,,,,5,,,76,93
14700,note_on,1,0,9,,,,,,,,12,,,76,60
14714,note_on,14,0,10,,,,,,,,13,,,67,0
14715,note_on,1,0,10,,,,,,,,13,,,66,60
14719,note_on,19,0,7,,,,,,,,5,,,76,0
14720,note_on,1,0,7,,,,,,,,5,,,81,93
14729,note_on,14,0,10,,,,,,,,13,,,66,0
14730,note_on,1,0,10,,,,,,,,13,,,67,60
14739,note_on,19,0,7,,,,,,,,5,,,81,0
14740,note_on,1,0,7,,,,,,,,5,,,76,93
14744,note_on,14,0,10,,,,,,,,13,,,67,0
14745,note_on,1,0,10,,,,,,,,13,,,66,60
14759,note_on,19,0,7,,,,,,,,5,,,76,0
14759,note_on,59,0,9,,,,,,,,12,,,76,0
14759,note_on,59,0,11,,,,,,,,14,,,60,0
14759,note_on,14,0,10,,,,,,,,13,,,66,0
14760,note_on,1,0,10,,,,,,,,13,,,67,60
14760,note_on,1,0,9,,,,,,,,12,,,74,60
14760,note_on,1,0,11,,,,,,,,14,,,59,60
14760,note_on,1,0,7,,,,,,,,5,,,74,94
14774,note_on,14,0,10,,,,,,,,13,,,67,0
14775,note_on,1,0,10,,,,,,,,13,,,66,60
14779,note_on,19,0,7,,,,,,,,5,,,74,0
14780,note_on,1,0,7,,,,,,,,5,,,81,94
14789,note_on,14,0,10,,,,,,,,13,,,66,0
14790,note_on,1,0,10,,,,,,,,13,,,67,60
14799,note_on,19,0,7,,,,,,,,5,,,81,0
14800,note_on,1,0,7,,,,,,,,5,,,74,94
14804,note_on,14,0,10,,,,,,,,13,,,67,0
14805,note_on,1,0,10,,,,,,,,13,,,66,60
14819,note_on,59,0,11,,,,,,,,14,,,59,0
14819,note_on,59,0,9,,,,,,,,12,,,74,0
14819,note_on,14,0,10,,,,,,,,13,,,66,0
14819,note_on,19,0,7,,,,,,,,5,,,74,0
14820,note_on,1,0,10,,,,,,,,13,,,64,60
14820,note_on,1,0,7,,,,,,,,5,,,72,94
14820,note_on,1,0,9,,,,,,,,12,,,72,60
14820,note_on,1,0,11,,,,,,,,14,,,57,60
14839,note_on,19,0,7,,,,,,,,5,,,72,0
14840,note_on,1,0,7,,,,,,,,5,,,81,94
14849,note_on,29,0,10,,,,,,,,13,,,64,0
14850,note_on,1,0,10,,,,,,,,13,,,66,60
14859,note_on,19,0,7,,,,,,,,5,,,81,0
14860,note_on,1,0,7,,,,,,,,5,,,72,94
14879,note_on,0,0,8,,,,,,,,5,,,60,0
14879,note_on,29,0,10,,,,,,,,13,,,66,0
14879,note_on,239,0,12,,,,,,,,15,,,50,0
14879,note_on,0,0,8,,,,,,,,5,,,50,0
14879,note_on,479,0,8,,,,,,,,5,,,54,0
14879,note_on,59,0,11,,,,,,,,14,,,57,0
14879,note_on,59,0,9,,,,,,,,12,,,72,0
14879,note_on,0,0,8,,,,,,,,5,,,57,0
14879,note_on,19,0,7,,,,,,,,5,,,72,0
14880,note_on,1,0,12,,,,,,,,15,,,43,72
14880,note_on,1,0,7,,,,,,,,5,,,71,95
14880,note_on,1,0,10,,,,,,,,13,,,67,60
14880,note_on,1,0,9,,,,,,,,12,,,71,60
14880,note_on,1,0,8,,,,,,,,5,,,43,91
14880,note_on,1,0,11,,,,,,,,14,,,55,60
14899,note_on,19,0,8,,,,,,,,5,,,43,0
14900,note_on,1,0,8,,,,,,,,5,,,47,76
14919,note_on,19,0,8,,,,,,,,5,,,47,0
14920,note_on,1,0,8,,,,,,,,5,,,48,82
14939,note_on,19,0,8,,,,,,,,5,,,48,0
14939,note_on,59,0,9,,,,,,,,12,,,71,0
14940,note_on,1,0,9,,,,,,,,12,,,74,60
14940,note_on,1,0,8,,,,,,,,5,,,50,82
14959,note_on,19,0,8,,,,,,,,5,,,50,0
14960,note_on,1,0,8,,,,,,,,5,,,52,74
14979,note_on,19,0,8,,,,,,,,5,,,52,0
14980,note_on,1,0,8,,,,,,,,5,,,54,74
14999,note_on,119,0,7,,,,,,,,5,,,71,0
14999,note_on,59,0,9,,,,,,,,12,,,74,0
14999,note_on,19,0,8,,,,,,,,5,,,54,0
14999,note_on,119,0,11,,,,,,,,14,,,55,0
15000,note_on,1,0,9,,,,,,,,12,,,71,60
15000,note_on,1,0,8,,,,,,,,5,,,55,76
15019,note_on,19,0,8,,,,,,,,5,,,55,0
15020,note_on,1,0,8,,,,,,,,5,,,57,66
15039,note_on,19,0,8,,,,,,,,5,,,57,0
15040,note_on,1,0,8,,,,,,,,5,,,59,68
15059,note_on,19,0,8,,,,,,,,5,,,59,0
15059,note_on,59,0,9,,,,,,,,12,,,71,0
15060,note_on,1,0,8,,,,,,,,5,,,43,85
15060,note_on,1,0,9,,,,,,,,12,,,67,60
15060,note_on,0,0,7,,,,,,,,5,,,71,87
15060,note_on,61,0,7,,,,,,,,5,,,79,85
15060,note_on,61,0,11,,,,,,,,14,,,64,60
15079,note_on,19,0,8,,,,,,,,5,,,43,0
15080,note_on,1,0,8,,,,,,,,5,,,45,72
15099,note_on,19,0,8,,,,,,,,5,,,45,0
15100,note_on,1,0,8,,,,,,,,5,,,47,68
15119,note_on,19,0,8,,,,,,,,5,,,47,0
15119,note_on,59,0,9,,,,,,,,12,,,67,0
15119,note_on,59,0,7,,,,,,,,5,,,71,0
15119,note_on,239,0,12,,,,,,,,15,,,43,0
15119,note_on,59,0,11,,,,,,,,14,,,64,0
15120,note_on,1,0,8,,,,,,,,5,,,45,82
15120,note_on,1,0,12,,,,,,,,15,,,45,70
15120,note_on,1,0,11,,,,,,,,14,,,60,60
15120,note_on,1,0,7,,,,,,,,5,,,72,80
15139,note_on,19,0,8,,,,,,,,5,,,45,0
15140,note_on,1,0,8,,,,,,,,5,,,48,78
15159,note_on,19,0,8,,,,,,,,5,,,48,0
15160,note_on,1,0,8,,,,,,,,5,,,50,72
15179,note_on,19,0,8,,,,,,,,5,,,50,0
15179,note_on,299,0,10,,,,,,,,13,,,67,0
15179,note_on,59,0,11,,,,,,,,14,,,60,0
15179,note_on,59,0,7,,,,,,,,5,,,79,0
15180,note_on,1,0,8,,,,,,,,5,,,52,80
15180,note_on,1,0,10,,,,,,,,13,,,66,60
15180,note_on,1,0,11,,,,,,,,14,,,57,60
15180,note_on,1,0,7,,,,,,,,5,,,78,78
15180,note_on,61,0,9,,,,,,,,12,,,84,60
15199,note_on,19,0,8,,,,,,,,5,,,52,0
15200,note_on,1,0,8,,,,,,,,5,,,54,68
15219,note_on,19,0,8,,,,,,,,5,,,54,0
15220,note_on,1,0,8,,,,,,,,5,,,55,74
15239,note_on,59,0,9,,,,,,,,12,,,84,0
15239,note_on,59,0,7,,,,,,,,5,,,78,0
15239,note_on,0,0,7,,,,,,,,5,,,72,0
15239,note_on,59,0,11,,,,,,,,14,,,57,0
15239,note_on,19,0,8,,,,,,,,5,,,55,0
15240,note_on,1,0,9,,,,,,,,12,,,81,60
15240,note_on,1,0,8,,,,,,,,5,,,57,78
15259,note_on,19,0,8,,,,,,,,5,,,57,0
15260,note_on,1,0,8,,,,,,,,5,,,59,82
15279,note_on,19,0,8,,,,,,,,5,,,59,0
15280,note_on,1,0,8,,,,,,,,5,,,60,70
15299,note_on,59,0,9,,,,,,,,12,,,81,0
15299,note_on,19,0,8,,,,,,,,5,,,60,0
15299,note_on,119,0,10,,,,,,,,13,,,66,0
15300,note_on,61,0,7,,,,,,,,5,,,81,82
15300,note_on,0,0,7,,,,,,,,5,,,72,80
15300,note_on,1,0,10,,,,,,,,13,,,69,60
15300,note_on,1,0,9,,,,,,,,12,,,78,60
15300,note_on,1,0,8,,,,,,,,5,,,45,85
15300,note_on,61,0,11,,,,,,,,14,,,66,60
15319,note_on,19,0,8,,,,,,,,5,,,45,0
15320,note_on,1,0,8,,,,,,,,5,,,47,70
15339,note_on,19,0,8,,,,,,,,5,,,47,0
15340,note_on,1,0,8,,,,,,,,5,,,48,74
15359,note_on,19,0,8,,,,,,,,5,,,48,0
15359,note_on,59,0,9,,,,,,,,12,,,78,0
15359,note_on,239,0,12,,,,,,,,15,,,45,0
15359,note_on,59,0,11,,,,,,,,14,,,66,0
15359,note_on,59,0,7,,,,,,,,5,,,72,0
15360,note_on,1,0,11,,,,,,,,14,,,62,60
15360,note_on,1,0,7,,,,,,,,5,,,74,82
15360,note_on,1,0,12,,,,,,,,15,,,47,72
15360,note_on,1,0,8,,,,,,,,5,,,47,80
15379,note_on,19,0,8,,,,,,,,5,,,47,0
15380,note_on,1,0,8,,,,,,,,5,,,50,68
15399,note_on,19,0,8,,,,,,,,5,,,50,0
15400,note_on,1,0,8,,,,,,,,5,,,52,72
15419,note_on,119,0,10,,,,,,,,13,,,69,0
15419,note_on,19,0,8,,,,,,,,5,,,52,0
15419,note_on,59,0,7,,,,,,,,5,,,81,0
15419,note_on,59,0,11,,,,,,,,14,,,62,0
15420,note_on,1,0,10,,,,,,,,13,,,67,60
15420,note_on,61,0,9,,,,,,,,12,,,86,60
15420,note_on,1,0,7,,,,,,,,5,,,79,85
15420,note_on,1,0,11,,,,,,,,14,,,59,60
15420,note_on,1,0,8,,,,,,,,5,,,54,66
15439,note_on,19,0,8,,,,,,,,5,,,54,0
15440,note_on,1,0,8,,,,,,,,5,,,55,74
15459,note_on,19,0,8,,,,,,,,5,,,55,0
15460,note_on,1,0,8,,,,,,,,5,,,57,66
15479,note_on,59,0,11,,,,,,,,14,,,59,0
15479,note_on,59,0,7,,,,,,,,5,,,79,0
15479,note_on,0,0,7,,,,,,,,5,,,74,0
15479,note_on,59,0,9,,,,,,,,12,,,86,0
15479,note_on,19,0,8,,,,,,,,5,,,57,0
15480,note_on,1,0,8,,,,,,,,5,,,59,68
15480,note_on,1,0,9,,,,,,,,12,,,83,60
15499,note_on,19,0,8,,,,,,,,5,,,59,0
15500,note_on,1,0,8,,,,,,,,5,,,60,70
15519,note_on,19,0,8,,,,,,,,5,,,60,0
15520,note_on,1,0,8,,,,,,,,5,,,62,70
15539,note_on,119,0,10,,,,,,,,13,,,67,0
15539,note_on,19,0,8,,,,,,,,5,,,62,0
15539,note_on,59,0,9,,,,,,,,12,,,83,0
15540,note_on,1,0,10,,,,,,,,13,,,71,60
15540,note_on,61,0,11,,,,,,,,14,,,62,60
15540,note_on,1,0,8,,,,,,,,5,,,47,82
15540,note_on,61,0,7,,,,,,,,5,,,83,82
15540,note_on,1,0,9,,,,,,,,12,,,79,60
15540,note_on,0,0,7,,,,,,,,5,,,74,87
15559,note_on,19,0,8,,,,,,,,5,,,47,0
15560,note_on,1,0,8,,,,,,,,5,,,48,76
15579,note_on,19,0,8,,,,,,,,5,,,48,0
15580,note_on,1,0,8,,,,,,,,5,,,50,76
15599,note_on,239,0,12,,,,,,,,15,,,47,0
15599,note_on,59,0,11,,,,,,,,14,,,62,0
15599,note_on,59,0,7,,,,,,,,5,,,74,0
15599,note_on,59,0,9,,,,,,,,12,,,79,0
15599,note_on,19,0,8,,,,,,,,5,,,50,0
15600,note_on,1,0,8,,,,,,,,5,,,48,85
15600,note_on,1,0,12,,,,,,,,15,,,48,68
15600,note_on,1,0,7,,,,,,,,5,,,76,74
15600,note_on,1,0,9,,,,,,,,12,,,76,74
15600,note_on,1,0,11,,,,,,,,14,,,60,64
15619,note_on,19,0,8,,,,,,,,5,,,48,0
15620,note_on,1,0,8,,,,,,,,5,,,52,80
15639,note_on,19,0,8,,,,,,,,5,,,52,0
15640,note_on,1,0,8,,,,,,,,5,,,57,78
15659,note_on,59,0,7,,,,,,,,5,,,83,0
15659,note_on,19,0,8,,,,,,,,5,,,57,0
15659,note_on,119,0,10,,,,,,,,13,,,71,0
15660,note_on,1,0,10,,,,,,,,13,,,69,68
15660,note_on,1,0,7,,,,,,,,5,,,81,78
15660,note_on,1,0,8,,,,,,,,5,,,60,80
15679,note_on,19,0,8,,,,,,,,5,,,60,0
15680,note_on,1,0,8,,,,,,,,5,,,59,78
15699,note_on,19,0,8,,,,,,,,5,,,59,0
15700,note_on,1,0,8,,,,,,,,5,,,60,82
15719,note_on,119,0,12,,,,,,,,15,,,48,0
15719,note_on,59,0,7,,,,,,,,5,,,76,0
15719,note_on,19,0,8,,,,,,,,5,,,60,0
15719,note_on,119,0,9,,,,,,,,12,,,76,0
15719,note_on,119,0,11,,,,,,,,14,,,60,0
15720,note_on,1,0,8,,,,,,,,5,,,49,82
15720,note_on,0,0,7,,,,,,,,5,,,69,76
15720,note_on,1,0,7,,,,,,,,5,,,76,85
15720,note_on,1,0,12,,,,,,,,15,,,49,63
15720,note_on,1,0,9,,,,,,,,12,,,69,68
15720,note_on,1,0,11,,,,,,,,14,,,64,63
15739,note_on,19,0,8,,,,,,,,5,,,49,0
15740,note_on,1,0,8,,,,,,,,5,,,52,85
15759,note_on,19,0,8,,,,,,,,5,,,52,0
15760,note_on,1,0,8,,,,,,,,5,,,57,70
15779,note_on,119,0,10,,,,,,,,13,,,69,0
15779,note_on,19,0,8,,,,,,,,5,,,57,0
15779,note_on,59,0,7,,,,,,,,5,,,81,0
15780,note_on,1,0,10,,,,,,,,13,,,67,74
15780,note_on,1,0,7,,,,,,,,5,,,79,76
15780,note_on,1,0,8,,,,,,,,5,,,61,70
15799,note_on,19,0,8,,,,,,,,5,,,61,0
15800,note_on,1,0,8,,,,,,,,5,,,59,78
15819,note_on,19,0,8,,,,,,,,5,,,59,0
15820,note_on,1,0,8,,,,,,,,5,,,61,70
15839,note_on,19,0,8,,,,,,,,5,,,61,0
15839,note_on,0,0,7,,,,,,,,5,,,69,0
15839,note_on,0,0,7,,,,,,,,5,,,76,0
15839,note_on,119,0,11,,,,,,,,14,,,64,0
15839,note_on,119,0,12,,,,,,,,15,,,49,0
15839,note_on,59,0,10,,,,,,,,13,,,67,0
15839,note_on,59,0,7,,,,,,,,5,,,79,0
15840,note_on,8041,0,1,,,,,,,,3,,,86,80
15840,note_on,1,0,12,,,,,,,,15,,,50,68
15840,note_on,8041,0,2,,,,,,,,6,,,74,72
15840,note_on,1,0,10,,,,,,,,13,,,66,68
15840,note_on,1,0,11,,,,,,,,14,,,57,68
15840,note_on,1,0,7,,,,,,,,5,,,78,82
15840,note_on,0,0,8,,,,,,,,5,,,62,74
15840,note_on,8041,0,3,,,,,,,,0,,,62,74
15840,note_on,1,0,8,,,,,,,,5,,,50,74
15859,note_on,19,0,7,,,,,,,,5,,,78,0
15860,note_on,1,0,7,,,,,,,,5,,,74,85
15879,note_on,19,0,7,,,,,,,,5,,,74,0
15880,note_on,1,0,7,,,,,,,,5,,,73,82
15899,note_on,19,0,7,,,,,,,,5,,,73,0
15900,note_on,1,0,7,,,,,,,,5,,,71,80
15919,note_on,19,0,7,,,,,,,,5,,,71,0
15920,note_on,1,0,7,,,,,,,,5,,,69,82
15939,note_on,19,0,7,,,,,,,,5,,,69,0
15940,note_on,1,0,7,,,,,,,,5,,,67,76
15959,note_on,19,0,7,,,,,,,,5,,,67,0
15959,note_on,119,0,10,,,,,,,,13,,,66,0
15959,note_on,119,0,11,,,,,,,,14,,,57,0
15959,note_on,239,0,9,,,,,,,,12,,,69,0
15959,note_on,119,0,12,,,,,,,,15,,,50,0
15960,note_on,1,0,7,,,,,,,,5,,,66,70
15979,note_on,19,0,7,,,,,,,,5,,,66,0
15980,note_on,1,0,7,,,,,,,,5,,,64,82
15999,note_on,19,0,7,,,,,,,,5,,,64,0
16000,note_on,1,0,7,,,,,,,,5,,,62,82
16019,note_on,19,0,7,,,,,,,,5,,,62,0
16020,note_on,1,0,7,,,,,,,,5,,,78,76
16039,note_on,19,0,7,,,,,,,,5,,,78,0
16040,note_on,1,0,7,,,,,,,,5,,,76,87
16059,note_on,19,0,7,,,,,,,,5,,,76,0
16060,note_on,1,0,7,,,,,,,,5,,,74,74
16079,note_on,0,0,8,,,,,,,,5,,,50,0
16079,note_on,239,0,1,,,,,,,,3,,,86,0
16079,note_on,239,0,8,,,,,,,,5,,,62,0
16079,note_on,19,0,7,,,,,,,,5,,,74,0
16079,note_on,239,0,2,,,,,,,,6,,,74,0
16080,note_on,1,0,1,,,,,,,,3,,,85,70
16080,note_on,1,0,8,,,,,,,,5,,,61,72
16080,note_on,0,0,8,,,,,,,,5,,,50,74
16080,note_on,1,0,2,,,,,,,,6,,,76,70
16080,note_on,1,0,7,,,,,,,,5,,,79,82
16099,note_on,19,0,7,,,,,,,,5,,,79,0
16100,note_on,1,0,7,,,,,,,,5,,,76,82
16119,note_on,19,0,7,,,,,,,,5,,,76,0
16120,note_on,1,0,7,,,,,,,,5,,,74,74
16139,note_on,19,0,7,,,,,,,,5,,,74,0
16140,note_on,1,0,7,,,,,,,,5,,,73,76
16159,note_on,19,0,7,,,,,,,,5,,,73,0
16160,note_on,1,0,7,,,,,,,,5,,,71,80
16179,note_on,19,0,7,,,,,,,,5,,,71,0
16180,note_on,1,0,7,,,,,,,,5,,,69,78
16199,note_on,19,0,7,,,,,,,,5,,,69,0
16200,note_on,1,0,7,,,,,,,,5,,,67,87
16219,note_on,19,0,7,,,,,,,,5,,,67,0
16220,note_on,1,0,7,,,,,,,,5,,,66,74
16239,note_on,19,0,7,,,,,,,,5,,,66,0
16240,note_on,1,0,7,,,,,,,,5,,,64,72
16259,note_on,19,0,7,,,,,,,,5,,,64,0
16260,note_on,1,0,7,,,,,,,,5,,,79,82
16279,note_on,19,0,7,,,,,,,,5,,,79,0
16280,note_on,1,0,7,,,,,,,,5,,,78,68
16299,note_on,19,0,7,,,,,,,,5,,,78,0
16300,note_on,1,0,7,,,,,,,,5,,,76,85
16319,note_on,239,0,8,,,,,,,,5,,,50,0
16319,note_on,19,0,7,,,,,,,,5,,,76,0
16319,note_on,0,0,8,,,,,,,,5,,,61,0
16319,note_on,239,0,2,,,,,,,,6,,,76,0
16319,note_on,239,0,1,,,,,,,,3,,,85,0
16320,note_on,1,0,7,,,,,,,,5,,,81,76
16320,note_on,1,0,1,,,,,,,,3,,,84,80
16320,note_on,0,0,8,,,,,,,,5,,,60,80
16320,note_on,1,0,8,,,,,,,,5,,,50,72
16320,note_on,1,0,2,,,,,,,,6,,,78,63
16339,note_on,19,0,7,,,,,,,,5,,,81,0
16340,note_on,1,0,7,,,,,,,,5,,,78,72
16359,note_on,19,0,7,,,,,,,,5,,,78,0
16360,note_on,1,0,7,,,,,,,,5,,,76,82
16379,note_on,19,0,7,,,,,,,,5,,,76,0
16380,note_on,1,0,7,,,,,,,,5,,,74,74
16399,note_on,19,0,7,,,,,,,,5,,,74,0
16400,note_on,1,0,7,,,,,,,,5,,,72,80
16419,note_on,19,0,7,,,,,,,,5,,,72,0
16420,note_on,1,0,7,,,,,,,,5,,,71,80
16439,note_on,19,0,7,,,,,,,,5,,,71,0
16440,note_on,1,0,7,,,,,,,,5,,,69,78
16459,note_on,19,0,7,,,,,,,,5,,,69,0
16460,note_on,1,0,7,,,,,,,,5,,,67,82
16479,note_on,19,0,7,,,,,,,,5,,,67,0
16480,note_on,1,0,7,,,,,,,,5,,,66,78
16499,note_on,19,0,7,,,,,,,,5,,,66,0
16500,note_on,1,0,7,,,,,,,,5,,,81,82
16519,note_on,19,0,7,,,,,,,,5,,,81,0
16520,note_on,1,0,7,,,,,,,,5,,,79,70
16539,note_on,19,0,7,,,,,,,,5,,,79,0
16540,note_on,1,0,7,,,,,,,,5,,,78,68
16559,note_on,19,0,7,,,,,,,,5,,,78,0
16559,note_on,239,0,1,,,,,,,,3,,,84,0
16559,note_on,239,0,2,,,,,,,,6,,,78,0
16559,note_on,0,0,8,,,,,,,,5,,,50,0
16559,note_on,239,0,8,,,,,,,,5,,,60,0
16560,note_on,1,0,7,,,,,,,,5,,,83,80
16560,note_on,1,0,2,,,,,,,,6,,,79,70
16560,note_on,0,0,8,,,,,,,,5,,,59,74
16560,note_on,1,0,1,,,,,,,,3,,,83,78
16560,note_on,1,0,8,,,,,,,,5,,,50,72
16579,note_on,19,0,7,,,,,,,,5,,,83,0
16580,note_on,1,0,7,,,,,,,,5,,,79,82
16599,note_on,19,0,7,,,,,,,,5,,,79,0
16600,note_on,1,0,7,,,,,,,,5,,,78,68
16619,note_on,19,0,7,,,,,,,,5,,,78,0
16620,note_on,1,0,7,,,,,,,,5,,,76,70
16639,note_on,19,0,7,,,,,,,,5,,,76,0
16640,note_on,1,0,7,,,,,,,,5,,,74,76
16659,note_on,19,0,7,,,,,,,,5,,,74,0
16660,note_on,1,0,7,,,,,,,,5,,,72,80
16679,note_on,19,0,7,,,,,,,,5,,,72,0
16680,note_on,1,0,7,,,,,,,,5,,,71,78
16699,note_on,19,0,7,,,,,,,,5,,,71,0
16700,note_on,1,0,7,,,,,,,,5,,,69,80
16719,note_on,19,0,7,,,,,,,,5,,,69,0
16720,note_on,1,0,7,,,,,,,,5,,,67,82
16739,note_on,19,0,7,,,,,,,,5,,,67,0
16740,note_on,1,0,7,,,,,,,,5,,,83,82
16759,note_on,19,0,7,,,,,,,,5,,,83,0
16760,note_on,1,0,7,,,,,,,,5,,,81,80
16779,note_on,19,0,7,,,,,,,,5,,,81,0
16780,note_on,1,0,7,,,,,,,,5,,,79,80
16799,note_on,239,0,8,,,,,,,,5,,,59,0
16799,note_on,239,0,2,,,,,,,,6,,,79,0
16799,note_on,0,0,8,,,,,,,,5,,,50,0
16799,note_on,19,0,7,,,,,,,,5,,,79,0
16799,note_on,239,0,1,,,,,,,,3,,,83,0
16800,note_on,1,0,7,,,,,,,,5,,,84,87
16800,note_on,841,0,11,,,,,,,,14,,,66,68
16800,note_on,1,0,1,,,,,,,,3,,,81,72
16800,note_on,1,0,8,,,,,,,,5,,,54,66
16800,note_on,841,0,10,,,,,,,,13,,,69,68
16800,note_on,0,0,8,,,,,,,,5,,,50,70
16800,note_on,0,0,8,,,,,,,,5,,,57,76
16800,note_on,841,0,12,,,,,,,,15,,,62,70
16800,note_on,1,0,2,,,,,,,,6,,,78,68
16800,note_on,841,0,9,,,,,,,,12,,,72,70
16819,note_on,19,0,7,,,,,,,,5,,,84,0
16820,note_on,1,0,7,,,,,,,,5,,,83,60
16839,note_on,19,0,7,,,,,,,,5,,,83,0
16840,note_on,1,0,7,,,,,,,,5,,,81,85
16859,note_on,0,0,8,,,,,,,,5,,,54,0
16859,note_on,19,0,7,,,,,,,,5,,,81,0
16859,note_on,59,0,10,,,,,,,,13,,,69,0
16859,note_on,59,0,9,,,,,,,,12,,,72,0
16859,note_on,0,0,8,,,,,,,,5,,,50,0
16859,note_on,59,0,8,,,,,,,,5,,,57,0
16859,note_on,59,0,11,,,,,,,,14,,,66,0
16859,note_on,59,0,12,,,,,,,,15,,,62,0
16860,note_on,1,0,7,,,,,,,,5,,,79,72
16879,note_on,19,0,7,,,,,,,,5,,,79,0
16880,note_on,1,0,7,,,,,,,,5,,,78,70
16899,note_on,19,0,7,,,,,,,,5,,,78,0
16900,note_on,1,0,7,,,,,,,,5,,,76,76
16919,note_on,119,0,2,,,,,,,,6,,,78,0
16919,note_on,1079,0,3,,,,,,,,0,,,62,0
16919,note_on,119,0,1,,,,,,,,3,,,81,0
16919,note_on,19,0,7,,,,,,,,5,,,76,0
16920,note_on,0,0,8,,,,,,,,5,,,69,70
16920,note_on,61,0,10,,,,,,,,13,,,69,66
16920,note_on,61,0,8,,,,,,,,5,,,66,64
16920,note_on,61,0,9,,,,,,,,12,,,72,66
16920,note_on,61,0,11,,,,,,,,14,,,66,58
16920,note_on,0,0,8,,,,,,,,5,,,62,61
16920,note_on,61,0,12,,,,,,,,15,,,62,76
16920,note_on,1,0,7,,,,,,,,5,,,74,70
16939,note_on,19,0,7,,,,,,,,5,,,74,0
16940,note_on,1,0,7,,,,,,,,5,,,76,82
16959,note_on,19,0,7,,,,,,,,5,,,76,0
16960,note_on,1,0,7,,,,,,,,5,,,78,68
16979,note_on,59,0,8,,,,,,,,5,,,62,0
16979,note_on,0,0,8,,,,,,,,5,,,69,0
16979,note_on,0,0,8,,,,,,,,5,,,66,0
16979,note_on,59,0,11,,,,,,,,14,,,66,0
16979,note_on,59,0,9,,,,,,,,12,,,72,0
16979,note_on,59,0,12,,,,,,,,15,,,62,0
16979,note_on,59,0,10,,,,,,,,13,,,69,0
16979,note_on,19,0,7,,,,,,,,5,,,78,0
16980,note_on,0,0,8,,,,,,,,5,,,69,66
16980,note_on,0,0,8,,,,,,,,5,,,66,63
16980,note_on,1,0,8,,,,,,,,5,,,62,68
16980,note_on,1,0,7,,,,,,,,5,,,79,80
16980,note_on,1,0,11,,,,,,,,14,,,66,68
16980,note_on,1,0,9,,,,,,,,12,,,72,66
16980,note_on,1,0,12,,,,,,,,15,,,62,72
16980,note_on,1,0,10,,,,,,,,13,,,69,68
16999,note_on,19,0,7,,,,,,,,5,,,79,0
17000,note_on,1,0,7,,,,,,,,5,,,81,85
17019,note_on,19,0,7,,,,,,,,5,,,81,0
17020,note_on,1,0,7,,,,,,,,5,,,83,80
17039,note_on,59,0,9,,,,,,,,12,,,72,0
17039,note_on,59,0,10,,,,,,,,13,,,69,0
17039,note_on,19,0,7,,,,,,,,5,,,83,0
17039,note_on,0,0,8,,,,,,,,5,,,66,0
17039,note_on,59,0,11,,,,,,,,14,,,66,0
17039,note_on,59,0,8,,,,,,,,5,,,69,0
17039,note_on,59,0,12,,,,,,,,15,,,62,0
17039,note_on,0,0,8,,,,,,,,5,,,62,0
17040,note_on,1,0,9,,,,,,,,12,,,72,78
17040,note_on,1,0,7,,,,,,,,5,,,84,82
17040,note_on,0,0,8,,,,,,,,5,,,66,66
17040,note_on,1,0,10,,,,,,,,13,,,69,80
17040,note_on,1,0,11,,,,,,,,14,,,66,72
17040,note_on,1,0,8,,,,,,,,5,,,62,70
17040,note_on,0,0,8,,,,,,,,5,,,69,68
17040,note_on,1,0,12,,,,,,,,15,,,62,89
17059,note_on,19,0,7,,,,,,,,5,,,84,0
17060,note_on,1,0,7,,,,,,,,5,,,83,74
17079,note_on,19,0,7,,,,,,,,5,,,83,0
17080,note_on,1,0,7,,,,,,,,5,,,81,70
17099,note_on,59,0,12,,,,,,,,15,,,62,0
17099,note_on,0,0,8,,,,,,,,5,,,62,0
17099,note_on,19,0,7,,,,,,,,5,,,81,0
17099,note_on,59,0,8,,,,,,,,5,,,69,0
17099,note_on,59,0,9,,,,,,,,12,,,72,0
17099,note_on,0,0,8,,,,,,,,5,,,66,0
17099,note_on,59,0,11,,,,,,,,14,,,66,0
17099,note_on,59,0,10,,,,,,,,13,,,69,0
17100,note_on,1,0,7,,,,,,,,5,,,79,78
17119,note_on,19,0,7,,,,,,,,5,,,79,0
17120,note_on,1,0,7,,,,,,,,5,,,78,68
17139,note_on,19,0,7,,,,,,,,5,,,78,0
17140,note_on,1,0,7,,,,,,,,5,,,76,70
17159,note_on,19,0,7,,,,,,,,5,,,76,0
17160,note_on,0,0,8,,,,,,,,5,,,66,57
17160,note_on,61,0,8,,,,,,,,5,,,62,63
17160,note_on,61,0,11,,,,,,,,14,,,66,70
17160,note_on,1,0,7,,,,,,,,5,,,74,72
17160,note_on,61,0,12,,,,,,,,15,,,62,68
17160,note_on,61,0,9,,,,,,,,12,,,72,80
17160,note_on,0,0,8,,,,,,,,5,,,69,57
17160,note_on,61,0,10,,,,,,,,13,,,69,68
17179,note_on,19,0,7,,,,,,,,5,,,74,0
17180,note_on,1,0,7,,,,,,,,5,,,76,82
17199,note_on,19,0,7,,,,,,,,5,,,76,0
17200,note_on,1,0,7,,,,,,,,5,,,78,64
17219,note_on,59,0,11,,,,,,,,14,,,66,0
17219,note_on,19,0,7,,,,,,,,5,,,78,0
17219,note_on,59,0,8,,,,,,,,5,,,66,0
17219,note_on,59,0,12,,,,,,,,15,,,62,0
17219,note_on,59,0,10,,,,,,,,13,,,69,0
17219,note_on,0,0,8,,,,,,,,5,,,69,0
17219,note_on,59,0,9,,,,,,,,12,,,72,0
17219,note_on,0,0,8,,,,,,,,5,,,62,0
17220,note_on,1,0,12,,,,,,,,15,,,62,85
17220,note_on,1,0,9,,,,,,,,12,,,72,66
17220,note_on,1,0,7,,,,,,,,5,,,79,70
17220,note_on,1,0,10,,,,,,,,13,,,69,68
17220,note_on,0,0,8,,,,,,,,5,,,62,60
17220,note_on,0,0,8,,,,,,,,5,,,66,59
17220,note_on,1,0,11,,,,,,,,14,,,66,64
17220,note_on,1,0,8,,,,,,,,5,,,69,76
17239,note_on,19,0,7,,,,,,,,5,,,79,0
17240,note_on,1,0,7,,,,,,,,5,,,81,82
17259,note_on,19,0,7,,,,,,,,5,,,81,0
17260,note_on,1,0,7,,,,,,,,5,,,83,78
17279,note_on,59,0,12,,,,,,,,15,,,62,0
17279,note_on,59,0,10,,,,,,,,13,,,69,0
17279,note_on,0,0,8,,,,,,,,5,,,62,0
17279,note_on,59,0,8,,,,,,,,5,,,66,0
17279,note_on,59,0,11,,,,,,,,14,,,66,0
17279,note_on,19,0,7,,,,,,,,5,,,83,0
17279,note_on,59,0,9,,,,,,,,12,,,72,0
17279,note_on,0,0,8,,,,,,,,5,,,69,0
17280,note_on,1,0,11,,,,,,,,14,,,66,68
17280,note_on,1,0,12,,,,,,,,15,,,62,80
17280,note_on,0,0,8,,,,,,,,5,,,66,57
17280,note_on,1,0,10,,,,,,,,13,,,69,82
17280,note_on,1,0,9,,,,,,,,12,,,72,70
17280,note_on,1,0,7,,,,,,,,5,,,84,82
17280,note_on,1,0,8,,,,,,,,5,,,69,76
17280,note_on,0,0,8,,,,,,,,5,,,62,60
17299,note_on,19,0,7,,,,,,,,5,,,84,0
17300,note_on,1,0,7,,,,,,,,5,,,80,76
17319,note_on,19,0,7,,,,,,,,5,,,80,0
17320,note_on,1,0,7,,,,,,,,5,,,81,80
17339,note_on,19,0,7,,,,,,,,5,,,81,0
17339,note_on,0,0,8,,,,,,,,5,,,62,0
17339,note_on,59,0,9,,,,,,,,12,,,72,0
17339,note_on,59,0,10,,,,,,,,13,,,69,0
17339,note_on,59,0,11,,,,,,,,14,,,66,0
17339,note_on,59,0,12,,,,,,,,15,,,62,0
17339,note_on,0,0,8,,,,,,,,5,,,69,0
17339,note_on,59,0,8,,,,,,,,5,,,66,0
17340,note_on,0,0,8,,,,,,,,5,,,62,60
17340,note_on,1,0,8,,,,,,,,5,,,69,70
17340,note_on,1,0,9,,,,,,,,12,,,72,70
17340,note_on,0,0,8,,,,,,,,5,,,66,59
17340,note_on,1,0,12,,,,,,,,15,,,62,82
17340,note_on,1,0,7,,,,,,,,5,,,84,72
17340,note_on,1,0,10,,,,,,,,13,,,69,58
17340,note_on,1,0,11,,,,,,,,14,,,66,74
17359,note_on,19,0,7,,,,,,,,5,,,84,0
17380,note_on,21,0,7,,,,,,,,5,,,81,78
17399,note_on,19,0,7,,,,,,,,5,,,81,0
17399,note_on,59,0,9,,,,,,,,12,,,72,0
17399,note_on,59,0,12,,,,,,,,15,,,62,0
17399,note_on,0,0,8,,,,,,,,5,,,69,0
17399,note_on,0,0,8,,,,,,,,5,,,66,0
17399,note_on,59,0,8,,,,,,,,5,,,62,0
17399,note_on,59,0,10,,,,,,,,13,,,69,0
17399,note_on,59,0,11,,,,,,,,14,,,66,0
17400,note_on,1,0,10,,,,,,,,13,,,69,87
17400,note_on,1,0,7,,,,,,,,5,,,86,66
17400,note_on,0,0,7,,,,,,,,5,,,84,78
17400,note_on,1,0,12,,,,,,,,15,,,62,74
17400,note_on,1,0,9,,,,,,,,12,,,72,66
17400,note_on,1,0,11,,,,,,,,14,,,66,78
17400,note_on,1,0,8,,,,,,,,5,,,62,62
17400,note_on,0,0,8,,,,,,,,5,,,66,60
17400,note_on,0,0,8,,,,,,,,5,,,69,63
17419,note_on,0,0,7,,,,,,,,5,,,86,0
17419,note_on,19,0,7,,,,,,,,5,,,84,0
17420,note_on,1,0,7,,,,,,,,5,,,80,70
17439,note_on,19,0,7,,,,,,,,5,,,80,0
17440,note_on,1,0,7,,,,,,,,5,,,81,68
17459,note_on,59,0,11,,,,,,,,14,,,66,0
17459,note_on,0,0,8,,,,,,,,5,,,69,0
17459,note_on,0,0,8,,,,,,,,5,,,62,0
17459,note_on,59,0,9,,,,,,,,12,,,72,0
17459,note_on,59,0,12,,,,,,,,15,,,62,0
17459,note_on,59,0,10,,,,,,,,13,,,69,0
17459,note_on,19,0,7,,,,,,,,5,,,81,0
17459,note_on,59,0,8,,,,,,,,5,,,66,0
17460,note_on,1,0,7,,,,,,,,5,,,84,82
17460,note_on,0,0,8,,,,,,,,5,,,69,74
17460,note_on,1,0,10,,,,,,,,13,,,69,64
17460,note_on,1,0,9,,,,,,,,12,,,72,66
17460,note_on,1,0,11,,,,,,,,14,,,66,64
17460,note_on,1,0,8,,,,,,,,5,,,62,66
17460,note_on,0,0,8,,,,,,,,5,,,66,60
17460,note_on,1,0,12,,,,,,,,15,,,62,72
17479,note_on,19,0,7,,,,,,,,5,,,84,0
17480,note_on,1,0,7,,,,,,,,5,,,80,78
17499,note_on,19,0,7,,,,,,,,5,,,80,0
17500,note_on,1,0,7,,,,,,,,5,,,81,78
17519,note_on,59,0,11,,,,,,,,14,,,66,0
17519,note_on,0,0,8,,,,,,,,5,,,66,0
17519,note_on,0,0,8,,,,,,,,5,,,62,0
17519,note_on,59,0,8,,,,,,,,5,,,69,0
17519,note_on,59,0,9,,,,,,,,12,,,72,0
17519,note_on,59,0,10,,,,,,,,13,,,69,0
17519,note_on,19,0,7,,,,,,,,5,,,81,0
17519,note_on,59,0,12,,,,,,,,15,,,62,0
17520,note_on,1,0,8,,,,,,,,5,,,62,70
17520,note_on,1,0,9,,,,,,,,12,,,72,72
17520,note_on,1,0,10,,,,,,,,13,,,69,80
17520,note_on,1,0,12,,,,,,,,15,,,62,85
17520,note_on,1,0,11,,,,,,,,14,,,66,78
17520,note_on,0,0,8,,,,,,,,5,,,66,62
17520,note_on,1,0,7,,,,,,,,5,,,84,80
17520,note_on,0,0,8,,,,,,,,5,,,69,66
17579,note_on,59,0,7,,,,,,,,5,,,84,0
17580,note_on,0,0,8,,,,,,,,5,,,62,0
17580,note_on,0,0,8,,,,,,,,5,,,69,0
17580,note_on,60,0,8,,,,,,,,5,,,66,0
17600,note_on,21,0,7,,,,,,,,5,,,80,66
17619,note_on,19,0,7,,,,,,,,5,,,80,0
17620,note_on,1,0,7,,,,,,,,5,,,81,74
17639,note_on,119,0,12,,,,,,,,15,,,62,0
17639,note_on,119,0,9,,,,,,,,12,,,72,0
17639,note_on,119,0,11,,,,,,,,14,,,66,0
17639,note_on,119,0,10,,,,,,,,13,,,69,0
17639,note_on,19,0,7,,,,,,,,5,,,81,0
17640,note_on,0,0,8,,,,,,,,5,,,62,61
17640,note_on,60,0,8,,,,,,,,5,,,69,70
17640,note_on,1,0,7,,,,,,,,5,,,84,82
17640,note_on,0,0,8,,,,,,,,5,,,66,66
17699,note_on,59,0,7,,,,,,,,5,,,84,0
17700,note_on,0,0,8,,,,,,,,5,,,62,0
17700,note_on,60,0,8,,,,,,,,5,,,66,0
17700,note_on,0,0,8,,,,,,,,5,,,69,0
17720,note_on,21,0,7,,,,,,,,5,,,80,80
17739,note_on,19,0,7,,,,,,,,5,,,80,0
17740,note_on,1,0,7,,,,,,,,5,,,81,85
17759,note_on,19,0,7,,,,,,,,5,,,81,0
17760,note_on,0,0,8,,,,,,,,5,,,66,60
17760,note_on,0,0,8,,,,,,,,5,,,62,70
17760,note_on,60,0,8,,,,,,,,5,,,69,78
17760,note_on,1,0,7,,,,,,,,5,,,84,82
17820,note_on,0,0,8,,,,,,,,5,,,69,0
17820,note_on,0,0,8,,,,,,,,5,,,62,0
17820,note_on,60,0,8,,,,,,,,5,,,66,0
17820,note_on,60,0,7,,,,,,,,5,,,84,0
17880,note_on,60,0,7,,,,,,,,5,,,84,85
17940,note_on,60,0,7,,,,,,,,5,,,84,0
18000,note_on,60,0,7,,,,,,,,5,,,84,85
18060,note_on,60,0,7,,,,,,,,5,,,84,0
18120,note_on,60,0,7,,,,,,,,5,,,84,74
18179,note_on,59,0,7,,,,,,,,5,,,84,0
18180,note_on,1,0,7,,,,,,,,5,,,84,80
18239,note_on,59,0,7,,,,,,,,5,,,84,0
18240,note_on,420,0,8,,,,,,,,5,,,55,60
18240,note_on,1,0,7,,,,,,,,5,,,84,82
18269,note_on,29,0,8,,,,,,,,5,,,55,0
18269,note_on,29,0,7,,,,,,,,5,,,84,0
18270,note_on,1,0,7,,,,,,,,5,,,83,82
18270,note_on,1,0,8,,,,,,,,5,,,62,60
18299,note_on,29,0,8,,,,,,,,5,,,62,0
18299,note_on,29,0,7,,,,,,,,5,,,83,0
18300,note_on,1,0,8,,,,,,,,5,,,59,60
18300,note_on,1,0,7,,,,,,,,5,,,81,85
18329,note_on,29,0,7,,,,,,,,5,,,81,0
18329,note_on,29,0,8,,,,,,,,5,,,59,0
18330,note_on,1,0,7,,,,,,,,5,,,79,76
18330,note_on,1,0,8,,,,,,,,5,,,62,60
18359,note_on,29,0,7,,,,,,,,5,,,79,0
18359,note_on,29,0,8,,,,,,,,5,,,62,0
18360,note_on,1,0,7,,,,,,,,5,,,78,68
18360,note_on,1,0,8,,,,,,,,5,,,57,60
18389,note_on,29,0,8,,,,,,,,5,,,57,0
18389,note_on,29,0,7,,,,,,,,5,,,78,0
18390,note_on,1,0,7,,,,,,,,5,,,79,74
18390,note_on,1,0,8,,,,,,,,5,,,62,60
18419,note_on,29,0,7,,,,,,,,5,,,79,0
18419,note_on,29,0,8,,,,,,,,5,,,62,0
18420,note_on,1,0,7,,,,,,,,5,,,81,80
18420,note_on,1,0,8,,,,,,,,5,,,60,60
18449,note_on,29,0,7,,,,,,,,5,,,81,0
18449,note_on,29,0,8,,,,,,,,5,,,60,0
18450,note_on,1,0,8,,,,,,,,5,,,62,60
18450,note_on,1,0,7,,,,,,,,5,,,78,70
18479,note_on,29,0,7,,,,,,,,5,,,78,0
18479,note_on,29,0,8,,,,,,,,5,,,62,0
18480,note_on,1,0,7,,,,,,,,5,,,74,82
18480,note_on,1,0,8,,,,,,,,5,,,59,60
18509,note_on,29,0,8,,,,,,,,5,,,59,0
18510,note_on,1,0,8,,,,,,,,5,,,62,60
18539,note_on,29,0,8,,,,,,,,5,,,62,0
18540,note_on,1,0,8,,,,,,,,5,,,55,60
18569,note_on,29,0,8,,,,,,,,5,,,55,0
18570,note_on,1,0,8,,,,,,,,5,,,62,60
18599,note_on,119,0,7,,,,,,,,5,,,74,0
18599,note_on,29,0,8,,,,,,,,5,,,62,0
18600,note_on,1,0,7,,,,,,,,5,,,72,80
18600,note_on,1,0,8,,,,,,,,5,,,57,60
18629,note_on,29,0,7,,,,,,,,5,,,72,0
18629,note_on,29,0,8,,,,,,,,5,,,57,0
18630,note_on,1,0,7,,,,,,,,5,,,74,72
18630,note_on,1,0,8,,,,,,,,5,,,62,60
18659,note_on,29,0,8,,,,,,,,5,,,62,0
18659,note_on,29,0,7,,,,,,,,5,,,74,0
18660,note_on,1,0,8,,,,,,,,5,,,54,60
18660,note_on,1,0,7,,,,,,,,5,,,76,85
18689,note_on,29,0,7,,,,,,,,5,,,76,0
18689,note_on,29,0,8,,,,,,,,5,,,54,0
18690,note_on,1,0,8,,,,,,,,5,,,62,60
18690,note_on,1,0,7,,,,,,,,5,,,72,72
18719,note_on,29,0,7,,,,,,,,5,,,72,0
18719,note_on,29,0,8,,,,,,,,5,,,62,0
18720,note_on,1,0,8,,,,,,,,5,,,55,60
18720,note_on,1,0,7,,,,,,,,5,,,71,72
18749,note_on,29,0,7,,,,,,,,5,,,71,0
18749,note_on,29,0,8,,,,,,,,5,,,55,0
18750,note_on,1,0,7,,,,,,,,5,,,72,80
18750,note_on,1,0,8,,,,,,,,5,,,62,60
18779,note_on,29,0,8,,,,,,,,5,,,62,0
18779,note_on,29,0,7,,,,,,,,5,,,72,0
18780,note_on,1,0,8,,,,,,,,5,,,47,60
18780,note_on,1,0,7,,,,,,,,5,,,74,74
18809,note_on,29,0,7,,,,,,,,5,,,74,0
18809,note_on,29,0,8,,,,,,,,5,,,47,0
18810,note_on,1,0,7,,,,,,,,5,,,71,76
18810,note_on,1,0,8,,,,,,,,5,,,50,60
18839,note_on,29,0,7,,,,,,,,5,,,71,0
18839,note_on,29,0,8,,,,,,,,5,,,50,0
18840,note_on,1,0,8,,,,,,,,5,,,48,60
18840,note_on,1,0,7,,,,,,,,5,,,69,74
18869,note_on,29,0,7,,,,,,,,5,,,69,0
18869,note_on,29,0,8,,,,,,,,5,,,48,0
18870,note_on,1,0,7,,,,,,,,5,,,71,78
18870,note_on,1,0,8,,,,,,,,5,,,52,60
18899,note_on,29,0,7,,,,,,,,5,,,71,0
18899,note_on,29,0,8,,,,,,,,5,,,52,0
18900,note_on,1,0,7,,,,,,,,5,,,72,76
18900,note_on,1,0,8,,,,,,,,5,,,45,60
18929,note_on,29,0,7,,,,,,,,5,,,72,0
18929,note_on,29,0,8,,,,,,,,5,,,45,0
18930,note_on,1,0,7,,,,,,,,5,,,69,82
18930,note_on,1,0,8,,,,,,,,5,,,48,60
18959,note_on,29,0,7,,,,,,,,5,,,69,0
18959,note_on,29,0,8,,,,,,,,5,,,48,0
18960,note_on,1,0,7,,,,,,,,5,,,67,85
18960,note_on,1321,0,9,,,,,,,,12,,,74,60
18960,note_on,1,0,8,,,,,,,,5,,,50,74
18989,note_on,29,0,7,,,,,,,,5,,,67,0
18989,note_on,29,0,8,,,,,,,,5,,,50,0
18990,note_on,1,0,7,,,,,,,,5,,,66,70
18990,note_on,1,0,8,,,,,,,,5,,,54,68
19019,note_on,29,0,7,,,,,,,,5,,,66,0
19019,note_on,29,0,8,,,,,,,,5,,,54,0
19020,note_on,1,0,7,,,,,,,,5,,,64,82
19020,note_on,1,0,8,,,,,,,,5,,,52,82
19049,note_on,29,0,7,,,,,,,,5,,,64,0
19049,note_on,29,0,8,,,,,,,,5,,,52,0
19050,note_on,1,0,8,,,,,,,,5,,,55,68
19050,note_on,1,0,7,,,,,,,,5,,,62,82
19079,note_on,29,0,8,,,,,,,,5,,,55,0
19079,note_on,29,0,7,,,,,,,,5,,,62,0
19080,note_on,1,0,7,,,,,,,,5,,,84,80
19080,note_on,1,0,8,,,,,,,,5,,,54,68
19109,note_on,29,0,8,,,,,,,,5,,,54,0
19110,note_on,1,0,8,,,,,,,,5,,,57,70
19139,note_on,29,0,8,,,,,,,,5,,,57,0
19139,note_on,59,0,7,,,,,,,,5,,,84,0
19140,note_on,1,0,7,,,,,,,,5,,,84,85
19140,note_on,1,0,8,,,,,,,,5,,,50,78
19169,note_on,29,0,8,,,,,,,,5,,,50,0
19170,note_on,1,0,8,,,,,,,,5,,,54,66
19199,note_on,29,0,8,,,,,,,,5,,,54,0
19199,note_on,59,0,7,,,,,,,,5,,,84,0
19200,note_on,1,0,7,,,,,,,,5,,,84,87
19200,note_on,1561,0,11,,,,,,,,14,,,71,60
19200,note_on,1,0,8,,,,,,,,5,,,43,82
19200,note_on,1561,0,12,,,,,,,,15,,,55,78
19200,note_on,1561,0,10,,,,,,,,13,,,74,60
19229,note_on,29,0,7,,,,,,,,5,,,84,0
19229,note_on,29,0,8,,,,,,,,5,,,43,0
19230,note_on,1,0,7,,,,,,,,5,,,83,80
19230,note_on,1,0,8,,,,,,,,5,,,47,80
19259,note_on,29,0,7,,,,,,,,5,,,83,0
19259,note_on,29,0,8,,,,,,,,5,,,47,0
19260,note_on,1,0,8,,,,,,,,5,,,50,82
19260,note_on,1,0,7,,,,,,,,5,,,81,80
19289,note_on,29,0,8,,,,,,,,5,,,50,0
19289,note_on,29,0,7,,,,,,,,5,,,81,0
19290,note_on,1,0,7,,,,,,,,5,,,79,78
19290,note_on,1,0,8,,,,,,,,5,,,55,82
19319,note_on,29,0,7,,,,,,,,5,,,79,0
19319,note_on,119,0,11,,,,,,,,14,,,71,0
19319,note_on,119,0,12,,,,,,,,15,,,55,0
19319,note_on,119,0,10,,,,,,,,13,,,74,0
19319,note_on,29,0,8,,,,,,,,5,,,55,0
19320,note_on,1,0,8,,,,,,,,5,,,45,80
19320,note_on,1,0,11,,,,,,,,14,,,69,60
19320,note_on,1,0,12,,,,,,,,15,,,57,78
19320,note_on,1,0,10,,,,,,,,13,,,72,60
19320,note_on,1,0,7,,,,,,,,5,,,78,80
19349,note_on,29,0,8,,,,,,,,5,,,45,0
19349,note_on,29,0,7,,,,,,,,5,,,78,0
19350,note_on,1,0,8,,,,,,,,5,,,48,82
19350,note_on,1,0,7,,,,,,,,5,,,79,82
19379,note_on,29,0,7,,,,,,,,5,,,79,0
19379,note_on,29,0,8,,,,,,,,5,,,48,0
19380,note_on,1,0,7,,,,,,,,5,,,81,82
19380,note_on,1,0,8,,,,,,,,5,,,54,68
19409,note_on,29,0,7,,,,,,,,5,,,81,0
19409,note_on,29,0,8,,,,,,,,5,,,54,0
19410,note_on,1,0,7,,,,,,,,5,,,78,80
19410,note_on,1,0,8,,,,,,,,5,,,57,78
19439,note_on,119,0,10,,,,,,,,13,,,72,0
19439,note_on,29,0,7,,,,,,,,5,,,78,0
19439,note_on,119,0,11,,,,,,,,14,,,69,0
19439,note_on,29,0,8,,,,,,,,5,,,57,0
19439,note_on,119,0,12,,,,,,,,15,,,57,0
19440,note_on,1,0,11,,,,,,,,14,,,67,60
19440,note_on,1,0,12,,,,,,,,15,,,59,78
19440,note_on,1,0,7,,,,,,,,5,,,74,87
19440,note_on,1,0,10,,,,,,,,13,,,71,60
19440,note_on,1,0,8,,,,,,,,5,,,47,74
19469,note_on,29,0,8,,,,,,,,5,,,47,0
19470,note_on,1,0,8,,,,,,,,5,,,59,68
19499,note_on,29,0,8,,,,,,,,5,,,59,0
19499,note_on,59,0,12,,,,,,,,15,,,59,0
19500,note_on,1,0,12,,,,,,,,15,,,55,74
19500,note_on,1,0,8,,,,,,,,5,,,43,78
19529,note_on,29,0,8,,,,,,,,5,,,43,0
19530,note_on,1,0,8,,,,,,,,5,,,55,74
19559,note_on,59,0,12,,,,,,,,15,,,55,0
19559,note_on,599,0,9,,,,,,,,12,,,74,0
19559,note_on,119,0,7,,,,,,,,5,,,74,0
19559,note_on,29,0,8,,,,,,,,5,,,55,0
19560,note_on,1,0,7,,,,,,,,5,,,72,80
19560,note_on,1,0,12,,,,,,,,15,,,52,74
19560,note_on,1,0,9,,,,,,,,12,,,72,60
19560,note_on,1,0,8,,,,,,,,5,,,40,80
19589,note_on,29,0,7,,,,,,,,5,,,72,0
19589,note_on,29,0,8,,,,,,,,5,,,40,0
19590,note_on,1,0,7,,,,,,,,5,,,74,82
19590,note_on,1,0,8,,,,,,,,5,,,52,80
19619,note_on,179,0,11,,,,,,,,14,,,67,0
19619,note_on,59,0,12,,,,,,,,15,,,52,0
19619,note_on,179,0,10,,,,,,,,13,,,71,0
19619,note_on,29,0,7,,,,,,,,5,,,74,0
19619,note_on,29,0,8,,,,,,,,5,,,52,0
19620,note_on,1,0,8,,,,,,,,5,,,42,68
19620,note_on,1,0,7,,,,,,,,5,,,76,82
19620,note_on,1,0,11,,,,,,,,14,,,62,60
19620,note_on,1,0,12,,,,,,,,15,,,54,66
19620,note_on,1,0,10,,,,,,,,13,,,69,60
19649,note_on,29,0,8,,,,,,,,5,,,42,0
19649,note_on,29,0,7,,,,,,,,5,,,76,0
19650,note_on,1,0,8,,,,,,,,5,,,54,66
19650,note_on,1,0,7,,,,,,,,5,,,72,78
19679,note_on,119,0,9,,,,,,,,12,,,72,0
19679,note_on,29,0,7,,,,,,,,5,,,72,0
19679,note_on,59,0,12,,,,,,,,15,,,54,0
19679,note_on,29,0,8,,,,,,,,5,,,54,0
19680,note_on,1,0,9,,,,,,,,12,,,71,60
19680,note_on,1,0,7,,,,,,,,5,,,71,80
19680,note_on,1,0,8,,,,,,,,5,,,43,72
19680,note_on,1,0,12,,,,,,,,15,,,55,80
19709,note_on,29,0,8,,,,,,,,5,,,43,0
19709,note_on,29,0,7,,,,,,,,5,,,71,0
19710,note_on,1,0,8,,,,,,,,5,,,55,70
19710,note_on,1,0,7,,,,,,,,5,,,72,80
19739,note_on,119,0,10,,,,,,,,13,,,69,0
19739,note_on,29,0,8,,,,,,,,5,,,55,0
19739,note_on,29,0,7,,,,,,,,5,,,72,0
19739,note_on,59,0,12,,,,,,,,15,,,55,0
19740,note_on,1,0,10,,,,,,,,13,,,67,60
19740,note_on,1,0,8,,,,,,,,5,,,47,74
19740,note_on,1,0,7,,,,,,,,5,,,74,82
19740,note_on,1,0,12,,,,,,,,15,,,47,70
19769,note_on,29,0,8,,,,,,,,5,,,47,0
19769,note_on,29,0,7,,,,,,,,5,,,74,0
19770,note_on,1,0,7,,,,,,,,5,,,71,74
19770,note_on,1,0,8,,,,,,,,5,,,35,72
19799,note_on,29,0,7,,,,,,,,5,,,71,0
19799,note_on,59,0,12,,,,,,,,15,,,47,0
19799,note_on,119,0,9,,,,,,,,12,,,71,0
19799,note_on,29,0,8,,,,,,,,5,,,35,0
19799,note_on,179,0,11,,,,,,,,14,,,62,0
19800,note_on,1,0,7,,,,,,,,5,,,69,70
19800,note_on,1,0,12,,,,,,,,15,,,48,76
19800,note_on,1,0,8,,,,,,,,5,,,36,80
19800,note_on,1,0,9,,,,,,,,12,,,69,60
19800,note_on,1,0,11,,,,,,,,14,,,64,60
19829,note_on,29,0,8,,,,,,,,5,,,36,0
19829,note_on,29,0,7,,,,,,,,5,,,69,0
19830,note_on,1,0,7,,,,,,,,5,,,71,80
19830,note_on,1,0,8,,,,,,,,5,,,48,78
19859,note_on,29,0,8,,,,,,,,5,,,48,0
19859,note_on,59,0,11,,,,,,,,14,,,64,0
19859,note_on,59,0,12,,,,,,,,15,,,48,0
19859,note_on,119,0,10,,,,,,,,13,,,67,0
19859,note_on,29,0,7,,,,,,,,5,,,71,0
19860,note_on,1,0,8,,,,,,,,5,,,38,74
19860,note_on,1,0,10,,,,,,,,13,,,66,60
19860,note_on,1,0,11,,,,,,,,14,,,60,60
19860,note_on,1,0,7,,,,,,,,5,,,72,70
19860,note_on,1,0,12,,,,,,,,15,,,50,76
19889,note_on,29,0,7,,,,,,,,5,,,72,0
19889,note_on,29,0,8,,,,,,,,5,,,38,0
19890,note_on,1,0,8,,,,,,,,5,,,50,68
19890,note_on,1,0,7,,,,,,,,5,,,69,82
19919,note_on,119,0,9,,,,,,,,12,,,69,0
19919,note_on,59,0,11,,,,,,,,14,,,60,0
19919,note_on,29,0,8,,,,,,,,5,,,50,0
19919,note_on,59,0,12,,,,,,,,15,,,50,0
19919,note_on,29,0,7,,,,,,,,5,,,69,0
19919,note_on,59,0,10,,,,,,,,13,,,66,0
19920,note_on,1,0,8,,,,,,,,5,,,43,82
19920,note_on,1,0,11,,,,,,,,14,,,59,60
19920,note_on,1,0,7,,,,,,,,5,,,67,78
19920,note_on,1,0,9,,,,,,,,12,,,67,60
19920,note_on,1,0,12,,,,,,,,15,,,43,82
19920,note_on,1,0,10,,,,,,,,13,,,67,60
19939,note_on,19,0,7,,,,,,,,5,,,67,0
19940,note_on,1,0,7,,,,,,,,5,,,74,85
19949,note_on,29,0,11,,,,,,,,14,,,59,0
19949,note_on,29,0,9,,,,,,,,12,,,67,0
19950,note_on,1,0,9,,,,,,,,12,,,71,60
19950,note_on,1,0,11,,,,,,,,14,,,55,60
19950,note_on,30,0,12,,,,,,,,15,,,43,0
19959,note_on,19,0,7,,,,,,,,5,,,74,0
19960,note_on,1,0,7,,,,,,,,5,,,72,78
19979,note_on,29,0,11,,,,,,,,14,,,55,0
19979,note_on,59,0,8,,,,,,,,5,,,43,0
19979,note_on,29,0,9,,,,,,,,12,,,71,0
19979,note_on,19,0,7,,,,,,,,5,,,72,0
19979,note_on,59,0,10,,,,,,,,13,,,67,0
19980,note_on,30,0,12,,,,,,,,15,,,47,80
19980,note_on,1,0,9,,,,,,,,12,,,74,60
19980,note_on,1,0,11,,,,,,,,14,,,50,60
19980,note_on,1,0,7,,,,,,,,5,,,71,82
19980,note_on,1,0,10,,,,,,,,13,,,62,60
19999,note_on,19,0,7,,,,,,,,5,,,71,0
20000,note_on,1,0,7,,,,,,,,5,,,69,78
20010,note_on,30,0,12,,,,,,,,15,,,47,0
20019,note_on,19,0,7,,,,,,,,5,,,69,0
20020,note_on,1,0,7,,,,,,,,5,,,67,85
20039,note_on,19,0,7,,,,,,,,5,,,67,0
20040,note_on,1,0,7,,,,,,,,5,,,66,76
20040,note_on,3121,0,2,,,,,,,,6,,,72,70
20040,note_on,30,0,12,,,,,,,,15,,,50,89
20040,note_on,3121,0,1,,,,,,,,3,,,84,70
20059,note_on,19,0,7,,,,,,,,5,,,66,0
20060,note_on,1,0,7,,,,,,,,5,,,64,80
20070,note_on,30,0,12,,,,,,,,15,,,50,0
20079,note_on,19,0,7,,,,,,,,5,,,64,0
20080,note_on,1,0,7,,,,,,,,5,,,62,82
20099,note_on,59,0,1,,,,,,,,3,,,84,0
20099,note_on,19,0,7,,,,,,,,5,,,62,0
20099,note_on,59,0,2,,,,,,,,6,,,72,0
20100,note_on,30,0,12,,,,,,,,15,,,54,76
20100,note_on,1,0,1,,,,,,,,3,,,84,70
20100,note_on,1,0,7,,,,,,,,5,,,60,80
20100,note_on,1,0,2,,,,,,,,6,,,72,70
20119,note_on,19,0,7,,,,,,,,5,,,60,0
20120,note_on,1,0,7,,,,,,,,5,,,59,78
20130,note_on,30,0,12,,,,,,,,15,,,54,0
20139,note_on,19,0,7,,,,,,,,5,,,59,0
20140,note_on,1,0,7,,,,,,,,5,,,57,82
20159,note_on,19,0,7,,,,,,,,5,,,57,0
20159,note_on,59,0,1,,,,,,,,3,,,84,0
20159,note_on,59,0,2,,,,,,,,6,,,72,0
20160,note_on,1,0,7,,,,,,,,5,,,55,82
20160,note_on,1,0,2,,,,,,,,6,,,72,70
20160,note_on,30,0,12,,,,,,,,15,,,55,82
20160,note_on,1,0,1,,,,,,,,3,,,84,70
20179,note_on,19,0,7,,,,,,,,5,,,55,0
20180,note_on,1,0,7,,,,,,,,5,,,62,85
20189,note_on,29,0,2,,,,,,,,6,,,72,0
20189,note_on,29,0,1,,,,,,,,3,,,84,0
20190,note_on,1,0,2,,,,,,,,6,,,71,70
20190,note_on,1,0,1,,,,,,,,3,,,83,70
20190,note_on,30,0,12,,,,,,,,15,,,55,0
20199,note_on,19,0,7,,,,,,,,5,,,62,0
20200,note_on,1,0,7,,,,,,,,5,,,60,78
20219,note_on,29,0,2,,,,,,,,6,,,71,0
20219,note_on,29,0,1,,,,,,,,3,,,83,0
20219,note_on,19,0,7,,,,,,,,5,,,60,0
20220,note_on,1,0,1,,,,,,,,3,,,81,70
20220,note_on,1,0,2,,,,,,,,6,,,69,70
20220,note_on,1,0,7,,,,,,,,5,,,59,82
20220,note_on,30,0,12,,,,,,,,15,,,59,76
20239,note_on,19,0,7,,,,,,,,5,,,59,0
20240,note_on,1,0,7,,,,,,,,5,,,57,74
20249,note_on,29,0,2,,,,,,,,6,,,69,0
20249,note_on,29,0,1,,,,,,,,3,,,81,0
20250,note_on,30,0,12,,,,,,,,15,,,59,0
20250,note_on,1,0,1,,,,,,,,3,,,79,70
20250,note_on,1,0,2,,,,,,,,6,,,67,70
20259,note_on,19,0,7,,,,,,,,5,,,57,0
20260,note_on,1,0,7,,,,,,,,5,,,55,87
20279,note_on,29,0,1,,,,,,,,3,,,79,0
20279,note_on,29,0,2,,,,,,,,6,,,67,0
20279,note_on,19,0,7,,,,,,,,5,,,55,0
20280,note_on,1,0,1,,,,,,,,3,,,78,70
20280,note_on,30,0,12,,,,,,,,15,,,62,87
20280,note_on,1,0,2,,,,,,,,6,,,66,70
20280,note_on,301,0,8,,,,,,,,5,,,54,72
20299,note_on,19,0,8,,,,,,,,5,,,54,0
20300,note_on,1,0,8,,,,,,,,5,,,52,80
20309,note_on,29,0,1,,,,,,,,3,,,78,0
20309,note_on,29,0,2,,,,,,,,6,,,66,0
20310,note_on,1,0,1,,,,,,,,3,,,79,70
20310,note_on,30,0,12,,,,,,,,15,,,62,0
20310,note_on,1,0,2,,,,,,,,6,,,67,70
20319,note_on,19,0,8,,,,,,,,5,,,52,0
20320,note_on,1,0,8,,,,,,,,5,,,50,78
20339,note_on,29,0,2,,,,,,,,6,,,67,0
20339,note_on,19,0,8,,,,,,,,5,,,50,0
20339,note_on,29,0,1,,,,,,,,3,,,79,0
20340,note_on,1,0,1,,,,,,,,3,,,81,70
20340,note_on,30,0,12,,,,,,,,15,,,60,74
20340,note_on,1,0,2,,,,,,,,6,,,69,70
20340,note_on,1,0,8,,,,,,,,5,,,48,78
20359,note_on,19,0,8,,,,,,,,5,,,48,0
20360,note_on,1,0,8,,,,,,,,5,,,47,76
20369,note_on,29,0,1,,,,,,,,3,,,81,0
20369,note_on,29,0,2,,,,,,,,6,,,69,0
20370,note_on,1,0,1,,,,,,,,3,,,78,70
20370,note_on,30,0,12,,,,,,,,15,,,60,0
20370,note_on,1,0,2,,,,,,,,6,,,66,70
20379,note_on,19,0,8,,,,,,,,5,,,47,0
20380,note_on,1,0,8,,,,,,,,5,,,45,82
20399,note_on,29,0,2,,,,,,,,6,,,66,0
20399,note_on,19,0,8,,,,,,,,5,,,45,0
20399,note_on,29,0,1,,,,,,,,3,,,78,0
20400,note_on,1,0,8,,,,,,,,5,,,43,82
20400,note_on,30,0,12,,,,,,,,15,,,59,82
20400,note_on,1,0,1,,,,,,,,3,,,74,70
20400,note_on,1,0,2,,,,,,,,6,,,62,70
20419,note_on,19,0,8,,,,,,,,5,,,43,0
20420,note_on,1,0,8,,,,,,,,5,,,50,87
20430,note_on,30,0,12,,,,,,,,15,,,59,0
20439,note_on,19,0,8,,,,,,,,5,,,50,0
20440,note_on,1,0,8,,,,,,,,5,,,48,85
20459,note_on,19,0,8,,,,,,,,5,,,48,0
20460,note_on,1,0,8,,,,,,,,5,,,47,82
20460,note_on,30,0,12,,,,,,,,15,,,55,85
20479,note_on,19,0,8,,,,,,,,5,,,47,0
20480,note_on,1,0,8,,,,,,,,5,,,45,78
20490,note_on,30,0,12,,,,,,,,15,,,55,0
20499,note_on,19,0,8,,,,,,,,5,,,45,0
20500,note_on,1,0,8,,,,,,,,5,,,43,85
20519,note_on,119,0,2,,,,,,,,6,,,62,0
20519,note_on,19,0,8,,,,,,,,5,,,43,0
20519,note_on,119,0,1,,,,,,,,3,,,74,0
20520,note_on,1,0,8,,,,,,,,5,,,42,82
20520,note_on,3601,0,3,,,,,,,,0,,,60,70
20520,note_on,30,0,12,,,,,,,,15,,,57,82
20520,note_on,1,0,2,,,,,,,,6,,,72,70
20539,note_on,19,0,8,,,,,,,,5,,,42,0
20540,note_on,1,0,8,,,,,,,,5,,,40,82
20549,note_on,29,0,3,,,,,,,,0,,,60,0
20549,note_on,29,0,2,,,,,,,,6,,,72,0
20550,note_on,1,0,2,,,,,,,,6,,,74,70
20550,note_on,1,0,3,,,,,,,,0,,,62,85
20550,note_on,30,0,12,,,,,,,,15,,,57,0
20559,note_on,19,0,8,,,,,,,,5,,,40,0
20560,note_on,1,0,8,,,,,,,,5,,,38,82
20579,note_on,29,0,3,,,,,,,,0,,,62,0
20579,note_on,29,0,2,,,,,,,,6,,,74,0
20579,note_on,19,0,8,,,,,,,,5,,,38,0
20580,note_on,1,0,8,,,,,,,,5,,,36,87
20580,note_on,1,0,2,,,,,,,,6,,,76,70
20580,note_on,1,0,3,,,,,,,,0,,,64,85
20580,note_on,30,0,12,,,,,,,,15,,,54,80
20599,note_on,19,0,8,,,,,,,,5,,,36,0
20600,note_on,1,0,8,,,,,,,,5,,,35,85
20609,note_on,29,0,2,,,,,,,,6,,,76,0
20609,note_on,29,0,3,,,,,,,,0,,,64,0
20610,note_on,1,0,3,,,,,,,,0,,,60,82
20610,note_on,30,0,12,,,,,,,,15,,,54,0
20610,note_on,1,0,2,,,,,,,,6,,,72,70
20619,note_on,19,0,8,,,,,,,,5,,,35,0
20620,note_on,1,0,8,,,,,,,,5,,,33,80
20639,note_on,29,0,3,,,,,,,,0,,,60,0
20639,note_on,29,0,2,,,,,,,,6,,,72,0
20639,note_on,19,0,8,,,,,,,,5,,,33,0
20640,note_on,1,0,3,,,,,,,,0,,,59,80
20640,note_on,1,0,8,,,,,,,,5,,,31,85
20640,note_on,30,0,12,,,,,,,,15,,,55,80
20640,note_on,1,0,2,,,,,,,,6,,,71,70
20659,note_on,19,0,8,,,,,,,,5,,,31,0
20660,note_on,1,0,8,,,,,,,,5,,,35,80
20669,note_on,29,0,3,,,,,,,,0,,,59,0
20669,note_on,29,0,2,,,,,,,,6,,,71,0
20670,note_on,1,0,2,,,,,,,,6,,,72,70
20670,note_on,30,0,12,,,,,,,,15,,,55,0
20670,note_on,1,0,3,,,,,,,,0,,,60,82
20679,note_on,19,0,8,,,,,,,,5,,,35,0
20680,note_on,1,0,8,,,,,,,,5,,,38,74
20699,note_on,29,0,2,,,,,,,,6,,,72,0
20699,note_on,29,0,3,,,,,,,,0,,,60,0
20699,note_on,19,0,8,,,,,,,,5,,,38,0
20700,note_on,1,0,2,,,,,,,,6,,,74,70
20700,note_on,30,0,12,,,,,,,,15,,,47,82
20700,note_on,1,0,3,,,,,,,,0,,,62,80
20700,note_on,1,0,8,,,,,,,,5,,,43,85
20719,note_on,19,0,8,,,,,,,,5,,,43,0
20720,note_on,1,0,8,,,,,,,,5,,,42,74
20729,note_on,29,0,2,,,,,,,,6,,,74,0
20729,note_on,29,0,3,,,,,,,,0,,,62,0
20730,note_on,1,0,2,,,,,,,,6,,,71,70
20730,note_on,30,0,12,,,,,,,,15,,,47,0
20730,note_on,1,0,3,,,,,,,,0,,,59,78
20739,note_on,19,0,8,,,,,,,,5,,,42,0
20740,note_on,1,0,8,,,,,,,,5,,,43,82
20759,note_on,19,0,8,,,,,,,,5,,,43,0
20759,note_on,29,0,2,,,,,,,,6,,,71,0
20759,note_on,29,0,3,,,,,,,,0,,,59,0
20760,note_on,1,0,8,,,,,,,,5,,,36,85
20760,note_on,1,0,2,,,,,,,,6,,,69,70
20760,note_on,30,0,12,,,,,,,,15,,,48,85
20760,note_on,1,0,3,,,,,,,,0,,,57,80
20779,note_on,19,0,8,,,,,,,,5,,,36,0
20780,note_on,1,0,8,,,,,,,,5,,,40,85
20789,note_on,29,0,2,,,,,,,,6,,,69,0
20789,note_on,29,0,3,,,,,,,,0,,,57,0
20790,note_on,30,0,12,,,,,,,,15,,,48,0
20790,note_on,1,0,2,,,,,,,,6,,,71,70
20790,note_on,1,0,3,,,,,,,,0,,,59,78
20799,note_on,19,0,8,,,,,,,,5,,,40,0
20800,note_on,1,0,8,,,,,,,,5,,,45,85
20819,note_on,29,0,3,,,,,,,,0,,,59,0
20819,note_on,29,0,2,,,,,,,,6,,,71,0
20819,note_on,19,0,8,,,,,,,,5,,,45,0
20820,note_on,30,0,12,,,,,,,,15,,,45,82
20820,note_on,1,0,8,,,,,,,,5,,,48,78
20820,note_on,1,0,2,,,,,,,,6,,,72,70
20820,note_on,1,0,3,,,,,,,,0,,,60,68
20839,note_on,19,0,8,,,,,,,,5,,,48,0
20840,note_on,1,0,8,,,,,,,,5,,,47,82
20849,note_on,29,0,3,,,,,,,,0,,,60,0
20849,note_on,29,0,2,,,,,,,,6,,,72,0
20850,note_on,1,0,2,,,,,,,,6,,,69,70
20850,note_on,1,0,3,,,,,,,,0,,,57,78
20850,note_on,30,0,12,,,,,,,,15,,,45,0
20859,note_on,19,0,8,,,,,,,,5,,,47,0
20860,note_on,1,0,8,,,,,,,,5,,,48,85
20879,note_on,29,0,2,,,,,,,,6,,,69,0
20879,note_on,19,0,8,,,,,,,,5,,,48,0
20879,note_on,29,0,3,,,,,,,,0,,,57,0
20880,note_on,30,0,12,,,,,,,,15,,,50,82
20880,note_on,1,0,8,,,,,,,,5,,,38,80
20880,note_on,1,0,3,,,,,,,,0,,,55,80
20880,note_on,1,0,2,,,,,,,,6,,,67,70
20899,note_on,19,0,8,,,,,,,,5,,,38,0
20900,note_on,1,0,8,,,,,,,,5,,,42,76
20909,note_on,29,0,2,,,,,,,,6,,,67,0
20909,note_on,29,0,3,,,,,,,,0,,,55,0
20910,note_on,1,0,3,,,,,,,,0,,,54,58
20910,note_on,1,0,2,,,,,,,,6,,,66,70
20910,note_on,30,0,12,,,,,,,,15,,,50,0
20919,note_on,19,0,8,,,,,,,,5,,,42,0
20920,note_on,1,0,8,,,,,,,,5,,,45,80
20939,note_on,29,0,2,,,,,,,,6,,,66,0
20939,note_on,29,0,3,,,,,,,,0,,,54,0
20939,note_on,19,0,8,,,,,,,,5,,,45,0
20940,note_on,1,0,3,,,,,,,,0,,,52,68
20940,note_on,30,0,12,,,,,,,,15,,,54,70
20940,note_on,1,0,2,,,,,,,,6,,,64,70
20940,note_on,1,0,8,,,,,,,,5,,,50,74
20959,note_on,19,0,8,,,,,,,,5,,,50,0
20960,note_on,1,0,8,,,,,,,,5,,,49,82
20969,note_on,29,0,2,,,,,,,,6,,,64,0
20969,note_on,29,0,3,,,,,,,,0,,,52,0
20970,note_on,1,0,3,,,,,,,,0,,,50,82
20970,note_on,1,0,2,,,,,,,,6,,,62,70
20970,note_on,30,0,12,,,,,,,,15,,,54,0
20979,note_on,19,0,8,,,,,,,,5,,,49,0
20980,note_on,1,0,8,,,,,,,,5,,,50,82
20999,note_on,29,0,2,,,,,,,,6,,,62,0
20999,note_on,29,0,3,,,,,,,,0,,,50,0
20999,note_on,19,0,8,,,,,,,,5,,,50,0
21000,note_on,1,0,2,,,,,,,,6,,,72,70
21000,note_on,721,0,7,,,,,,,,5,,,62,85
21000,note_on,481,0,1,,,,,,,,3,,,84,70
21000,note_on,30,0,12,,,,,,,,15,,,57,82
21019,note_on,19,0,7,,,,,,,,5,,,62,0
21020,note_on,1,0,7,,,,,,,,5,,,66,78
21030,note_on,30,0,12,,,,,,,,15,,,57,0
21039,note_on,19,0,7,,,,,,,,5,,,66,0
21040,note_on,1,0,7,,,,,,,,5,,,69,82
21059,note_on,59,0,2,,,,,,,,6,,,72,0
21059,note_on,19,0,7,,,,,,,,5,,,69,0
21059,note_on,59,0,1,,,,,,,,3,,,84,0
21060,note_on,1,0,7,,,,,,,,5,,,74,74
21060,note_on,30,0,12,,,,,,,,15,,,54,74
21060,note_on,1,0,1,,,,,,,,3,,,84,70
21060,note_on,1,0,2,,,,,,,,6,,,72,70
21079,note_on,19,0,7,,,,,,,,5,,,74,0
21080,note_on,1,0,7,,,,,,,,5,,,78,76
21090,note_on,30,0,12,,,,,,,,15,,,54,0
21099,note_on,19,0,7,,,,,,,,5,,,78,0
21100,note_on,1,0,7,,,,,,,,5,,,81,82
21119,note_on,19,0,7,,,,,,,,5,,,81,0
21119,note_on,59,0,1,,,,,,,,3,,,84,0
21119,note_on,59,0,2,,,,,,,,6,,,72,0
21120,note_on,1,0,7,,,,,,,,5,,,62,82
21120,note_on,30,0,12,,,,,,,,15,,,55,80
21120,note_on,1,0,1,,,,,,,,3,,,84,70
21120,note_on,1,0,2,,,,,,,,6,,,72,70
21139,note_on,19,0,7,,,,,,,,5,,,62,0
21140,note_on,1,0,7,,,,,,,,5,,,67,64
21149,note_on,29,0,2,,,,,,,,6,,,72,0
21149,note_on,29,0,1,,,,,,,,3,,,84,0
21150,note_on,1,0,2,,,,,,,,6,,,71,70
21150,note_on,1,0,1,,,,,,,,3,,,83,70
21150,note_on,30,0,12,,,,,,,,15,,,55,0
21159,note_on,19,0,7,,,,,,,,5,,,67,0
21160,note_on,1,0,7,,,,,,,,5,,,71,87
21179,note_on,29,0,2,,,,,,,,6,,,71,0
21179,note_on,29,0,1,,,,,,,,3,,,83,0
21179,note_on,19,0,7,,,,,,,,5,,,71,0
21180,note_on,1,0,7,,,,,,,,5,,,74,85
21180,note_on,1,0,1,,,,,,,,3,,,81,70
21180,note_on,30,0,12,,,,,,,,15,,,59,82
21180,note_on,1,0,2,,,,,,,,6,,,69,70
21199,note_on,19,0,7,,,,,,,,5,,,74,0
21200,note_on,1,0,7,,,,,,,,5,,,79,87
21209,note_on,29,0,1,,,,,,,,3,,,81,0
21209,note_on,29,0,2,,,,,,,,6,,,69,0
21210,note_on,1,0,2,,,,,,,,6,,,67,70
21210,note_on,30,0,12,,,,,,,,15,,,59,0
21210,note_on,1,0,1,,,,,,,,3,,,79,70
21219,note_on,19,0,7,,,,,,,,5,,,79,0
21220,note_on,1,0,7,,,,,,,,5,,,83,87
21239,note_on,19,0,7,,,,,,,,5,,,83,0
21239,note_on,29,0,1,,,,,,,,3,,,79,0
21239,note_on,29,0,2,,,,,,,,6,,,67,0
21240,note_on,30,0,12,,,,,,,,15,,,62,80
21240,note_on,1,0,2,,,,,,,,6,,,66,70
21240,note_on,1,0,7,,,,,,,,5,,,66,80
21240,note_on,1,0,1,,,,,,,,3,,,78,70
21259,note_on,19,0,7,,,,,,,,5,,,66,0
21260,note_on,1,0,7,,,,,,,,5,,,69,87
21269,note_on,29,0,1,,,,,,,,3,,,78,0
21269,note_on,29,0,2,,,,,,,,6,,,66,0
21270,note_on,30,0,12,,,,,,,,15,,,62,0
21270,note_on,1,0,1,,,,,,,,3,,,79,70
21270,note_on,1,0,2,,,,,,,,6,,,67,70
21279,note_on,19,0,7,,,,,,,,5,,,69,0
21280,note_on,1,0,7,,,,,,,,5,,,72,80
21299,note_on,29,0,2,,,,,,,,6,,,67,0
21299,note_on,29,0,1,,,,,,,,3,,,79,0
21299,note_on,19,0,7,,,,,,,,5,,,72,0
21300,note_on,30,0,12,,,,,,,,15,,,60,82
21300,note_on,1,0,2,,,,,,,,6,,,69,70
21300,note_on,1,0,1,,,,,,,,3,,,81,70
21300,note_on,1,0,7,,,,,,,,5,,,78,78
21319,note_on,19,0,7,,,,,,,,5,,,78,0
21320,note_on,1,0,7,,,,,,,,5,,,81,85
21329,note_on,29,0,1,,,,,,,,3,,,81,0
21329,note_on,29,0,2,,,,,,,,6,,,69,0
21330,note_on,1,0,1,,,,,,,,3,,,78,70
21330,note_on,30,0,12,,,,,,,,15,,,60,0
21330,note_on,1,0,2,,,,,,,,6,,,66,70
21339,note_on,19,0,7,,,,,,,,5,,,81,0
21340,note_on,1,0,7,,,,,,,,5,,,84,82
21359,note_on,29,0,2,,,,,,,,6,,,66,0
21359,note_on,19,0,7,,,,,,,,5,,,84,0
21359,note_on,29,0,1,,,,,,,,3,,,78,0
21360,note_on,30,0,12,,,,,,,,15,,,59,78
21360,note_on,1,0,2,,,,,,,,6,,,74,70
21360,note_on,1,0,1,,,,,,,,3,,,86,70
21360,note_on,1,0,7,,,,,,,,5,,,67,87
21360,note_on,361,0,3,,,,,,,,0,,,62,82
21379,note_on,19,0,7,,,,,,,,5,,,67,0
21380,note_on,1,0,7,,,,,,,,5,,,71,89
21390,note_on,30,0,12,,,,,,,,15,,,59,0
21399,note_on,19,0,7,,,,,,,,5,,,71,0
21400,note_on,1,0,7,,,,,,,,5,,,74,82
21419,note_on,1439,0,10,,,,,,,,13,,,62,0
21419,note_on,1439,0,11,,,,,,,,14,,,50,0
21419,note_on,1439,0,9,,,,,,,,12,,,74,0
21419,note_on,19,0,7,,,,,,,,5,,,74,0
21420,note_on,1,0,9,,,,,,,,12,,,83,60
21420,note_on,1,0,7,,,,,,,,5,,,79,80
21420,note_on,1,0,11,,,,,,,,14,,,67,60
21420,note_on,1,0,10,,,,,,,,13,,,74,60
21420,note_on,30,0,12,,,,,,,,15,,,55,78
21439,note_on,19,0,7,,,,,,,,5,,,79,0
21440,note_on,1,0,7,,,,,,,,5,,,83,82
21450,note_on,30,0,12,,,,,,,,15,,,55,0
21459,note_on,19,0,7,,,,,,,,5,,,83,0
21460,note_on,1,0,7,,,,,,,,5,,,86,85
21479,note_on,119,0,1,,,,,,,,3,,,86,0
21479,note_on,119,0,3,,,,,,,,0,,,62,0
21479,note_on,19,0,7,,,,,,,,5,,,86,0
21479,note_on,119,0,2,,,,,,,,6,,,74,0
21480,note_on,1,0,2,,,,,,,,6,,,72,70
21480,note_on,60,0,9,,,,,,,,12,,,83,0
21480,note_on,30,0,12,,,,,,,,15,,,52,80
21480,note_on,1,0,3,,,,,,,,0,,,60,82
21480,note_on,60,0,11,,,,,,,,14,,,67,0
21480,note_on,1,0,7,,,,,,,,5,,,72,80
21480,note_on,60,0,10,,,,,,,,13,,,74,0
21480,note_on,1,0,1,,,,,,,,3,,,84,70
21480,note_on,481,0,8,,,,,,,,5,,,52,87
21499,note_on,19,0,7,,,,,,,,5,,,72,0
21500,note_on,1,0,7,,,,,,,,5,,,84,82
21509,note_on,29,0,3,,,,,,,,0,,,60,0
21509,note_on,29,0,1,,,,,,,,3,,,84,0
21509,note_on,29,0,2,,,,,,,,6,,,72,0
21510,note_on,1,0,2,,,,,,,,6,,,74,70
21510,note_on,1,0,3,,,,,,,,0,,,62,78
21510,note_on,30,0,12,,,,,,,,15,,,52,0
21510,note_on,1,0,1,,,,,,,,3,,,86,70
21519,note_on,19,0,7,,,,,,,,5,,,84,0
21520,note_on,1,0,7,,,,,,,,5,,,83,85
21539,note_on,29,0,3,,,,,,,,0,,,62,0
21539,note_on,29,0,2,,,,,,,,6,,,74,0
21539,note_on,59,0,8,,,,,,,,5,,,52,0
21539,note_on,19,0,7,,,,,,,,5,,,83,0
21539,note_on,29,0,1,,,,,,,,3,,,86,0
21540,note_on,1,0,3,,,,,,,,0,,,64,78
21540,note_on,1,0,2,,,,,,,,6,,,76,70
21540,note_on,30,0,12,,,,,,,,15,,,54,70
21540,note_on,60,0,9,,,,,,,,12,,,81,60
21540,note_on,1,0,1,,,,,,,,3,,,88,70
21540,note_on,1,0,8,,,,,,,,5,,,54,70
21540,note_on,60,0,11,,,,,,,,14,,,62,60
21540,note_on,60,0,10,,,,,,,,13,,,72,60
21540,note_on,1,0,7,,,,,,,,5,,,84,85
21559,note_on,19,0,7,,,,,,,,5,,,84,0
21560,note_on,1,0,7,,,,,,,,5,,,72,80
21569,note_on,29,0,3,,,,,,,,0,,,64,0
21569,note_on,29,0,1,,,,,,,,3,,,88,0
21569,note_on,29,0,2,,,,,,,,6,,,76,0
21570,note_on,1,0,1,,,,,,,,3,,,84,70
21570,note_on,1,0,3,,,,,,,,0,,,60,76
21570,note_on,30,0,12,,,,,,,,15,,,54,0
21570,note_on,1,0,2,,,,,,,,6,,,72,70
21579,note_on,19,0,7,,,,,,,,5,,,72,0
21580,note_on,1,0,7,,,,,,,,5,,,81,82
21599,note_on,19,0,7,,,,,,,,5,,,81,0
21599,note_on,29,0,1,,,,,,,,3,,,84,0
21599,note_on,29,0,2,,,,,,,,6,,,72,0
21599,note_on,29,0,3,,,,,,,,0,,,60,0
21599,note_on,59,0,8,,,,,,,,5,,,54,0
21600,note_on,60,0,11,,,,,,,,14,,,62,0
21600,note_on,1,0,7,,,,,,,,5,,,71,82
21600,note_on,1,0,1,,,,,,,,3,,,83,70
21600,note_on,30,0,12,,,,,,,,15,,,55,80
21600,note_on,60,0,10,,,,,,,,13,,,72,0
21600,note_on,1,0,8,,,,,,,,5,,,55,78
21600,note_on,1,0,2,,,,,,,,6,,,71,70
21600,note_on,1,0,3,,,,,,,,0,,,59,68
21600,note_on,60,0,9,,,,,,,,12,,,81,0
21619,note_on,19,0,7,,,,,,,,5,,,71,0
21620,note_on,1,0,7,,,,,,,,5,,,83,78
21629,note_on,29,0,1,,,,,,,,3,,,83,0
21629,note_on,29,0,2,,,,,,,,6,,,71,0
21629,note_on,29,0,3,,,,,,,,0,,,59,0
21630,note_on,1,0,2,,,,,,,,6,,,72,70
21630,note_on,1,0,1,,,,,,,,3,,,84,70
21630,note_on,30,0,12,,,,,,,,15,,,55,0
21630,note_on,1,0,3,,,,,,,,0,,,60,68
21639,note_on,19,0,7,,,,,,,,5,,,83,0
21640,note_on,1,0,7,,,,,,,,5,,,81,78
21659,note_on,59,0,8,,,,,,,,5,,,55,0
21659,note_on,29,0,3,,,,,,,,0,,,60,0
21659,note_on,19,0,7,,,,,,,,5,,,81,0
21659,note_on,29,0,2,,,,,,,,6,,,72,0
21659,note_on,29,0,1,,,,,,,,3,,,84,0
21660,note_on,1,0,3,,,,,,,,0,,,62,70
21660,note_on,1,0,1,,,,,,,,3,,,86,70
21660,note_on,60,0,10,,,,,,,,13,,,71,60
21660,note_on,60,0,11,,,,,,,,14,,,64,60
21660,note_on,30,0,12,,,,,,,,15,,,52,85
21660,note_on,60,0,9,,,,,,,,12,,,79,60
21660,note_on,1,0,8,,,,,,,,5,,,52,85
21660,note_on,1,0,2,,,,,,,,6,,,74,70
21660,note_on,1,0,7,,,,,,,,5,,,71,80
21679,note_on,19,0,7,,,,,,,,5,,,71,0
21680,note_on,1,0,7,,,,,,,,5,,,83,82
21689,note_on,29,0,2,,,,,,,,6,,,74,0
21689,note_on,29,0,3,,,,,,,,0,,,62,0
21689,note_on,29,0,1,,,,,,,,3,,,86,0
21690,note_on,1,0,1,,,,,,,,3,,,83,70
21690,note_on,30,0,12,,,,,,,,15,,,52,0
21690,note_on,1,0,2,,,,,,,,6,,,71,70
21690,note_on,1,0,3,,,,,,,,0,,,59,78
21699,note_on,19,0,7,,,,,,,,5,,,83,0
21700,note_on,1,0,7,,,,,,,,5,,,79,82
21719,note_on,29,0,3,,,,,,,,0,,,59,0
21719,note_on,29,0,1,,,,,,,,3,,,83,0
21719,note_on,59,0,8,,,,,,,,5,,,52,0
21719,note_on,19,0,7,,,,,,,,5,,,79,0
21719,note_on,29,0,2,,,,,,,,6,,,71,0
21720,note_on,1,0,1,,,,,,,,3,,,81,70
21720,note_on,1,0,7,,,,,,,,5,,,69,82
21720,note_on,60,0,11,,,,,,,,14,,,64,0
21720,note_on,60,0,9,,,,,,,,12,,,79,0
21720,note_on,1,0,8,,,,,,,,5,,,48,80
21720,note_on,1,0,3,,,,,,,,0,,,57,72
21720,note_on,30,0,12,,,,,,,,15,,,48,82
21720,note_on,60,0,10,,,,,,,,13,,,71,0
21720,note_on,1,0,2,,,,,,,,6,,,69,70
21739,note_on,19,0,7,,,,,,,,5,,,69,0
21740,note_on,1,0,7,,,,,,,,5,,,81,85
21749,note_on,29,0,3,,,,,,,,0,,,57,0
21749,note_on,29,0,1,,,,,,,,3,,,81,0
21749,note_on,29,0,2,,,,,,,,6,,,69,0
21750,note_on,1,0,3,,,,,,,,0,,,59,78
21750,note_on,1,0,2,,,,,,,,6,,,71,70
21750,note_on,30,0,12,,,,,,,,15,,,48,0
21750,note_on,1,0,1,,,,,,,,3,,,83,70
21759,note_on,19,0,7,,,,,,,,5,,,81,0
21760,note_on,1,0,7,,,,,,,,5,,,79,85
21779,note_on,29,0,2,,,,,,,,6,,,71,0
21779,note_on,19,0,7,,,,,,,,5,,,79,0
21779,note_on,59,0,8,,,,,,,,5,,,48,0
21779,note_on,29,0,1,,,,,,,,3,,,83,0
21779,note_on,29,0,3,,,,,,,,0,,,59,0
21780,note_on,30,0,12,,,,,,,,15,,,50,82
21780,note_on,1,0,3,,,,,,,,0,,,60,82
21780,note_on,1,0,1,,,,,,,,3,,,84,70
21780,note_on,1,0,2,,,,,,,,6,,,72,70
21780,note_on,60,0,9,,,,,,,,12,,,78,60
21780,note_on,60,0,11,,,,,,,,14,,,60,60
21780,note_on,60,0,10,,,,,,,,13,,,69,60
21780,note_on,1,0,7,,,,,,,,5,,,69,80
21780,note_on,1,0,8,,,,,,,,5,,,50,85
21799,note_on,19,0,7,,,,,,,,5,,,69,0
21800,note_on,1,0,7,,,,,,,,5,,,81,82
21809,note_on,29,0,1,,,,,,,,3,,,84,0
21809,note_on,29,0,2,,,,,,,,6,,,72,0
21809,note_on,29,0,3,,,,,,,,0,,,60,0
21810,note_on,30,0,12,,,,,,,,15,,,50,0
21810,note_on,1,0,3,,,,,,,,0,,,57,82
21810,note_on,1,0,2,,,,,,,,6,,,69,70
21810,note_on,1,0,1,,,,,,,,3,,,81,70
21819,note_on,19,0,7,,,,,,,,5,,,81,0
21820,note_on,1,0,7,,,,,,,,5,,,78,70
21839,note_on,19,0,7,,,,,,,,5,,,78,0
21839,note_on,59,0,10,,,,,,,,13,,,69,0
21839,note_on,59,0,8,,,,,,,,5,,,50,0
21839,note_on,29,0,3,,,,,,,,0,,,57,0
21839,note_on,29,0,2,,,,,,,,6,,,69,0
21839,note_on,29,0,1,,,,,,,,3,,,81,0
21839,note_on,59,0,11,,,,,,,,14,,,60,0
21840,note_on,30,0,12,,,,,,,,15,,,43,70
21840,note_on,1,0,2,,,,,,,,6,,,67,70
21840,note_on,1,0,1,,,,,,,,3,,,79,70
21840,note_on,1,0,8,,,,,,,,5,,,43,87
21840,note_on,0,0,4,,,,,,,,7,,,55,80
21840,note_on,14041,0,4,,,,,,,,7,,,67,80
21840,note_on,1,0,11,,,,,,,,14,,,59,60
21840,note_on,0,0,8,,,,,,,,5,,,55,82
21840,note_on,1,0,7,,,,,,,,5,,,79,80
21840,note_on,1,0,10,,,,,,,,13,,,67,60
21840,note_on,0,0,9,,,,,,,,12,,,67,60
21840,note_on,60,0,9,,,,,,,,12,,,78,0
21840,note_on,1,0,3,,,,,,,,0,,,55,80
21859,note_on,19,0,7,,,,,,,,5,,,79,0
21860,note_on,1,0,7,,,,,,,,5,,,67,82
21879,note_on,19,0,7,,,,,,,,5,,,67,0
21880,note_on,1,0,7,,,,,,,,5,,,66,66
21899,note_on,19,0,7,,,,,,,,5,,,66,0
21900,note_on,1,0,7,,,,,,,,5,,,67,82
21919,note_on,19,0,7,,,,,,,,5,,,67,0
21920,note_on,1,0,7,,,,,,,,5,,,69,82
21939,note_on,19,0,7,,,,,,,,5,,,69,0
21940,note_on,1,0,7,,,,,,,,5,,,71,85
21959,note_on,119,0,1,,,,,,,,3,,,79,0
21959,note_on,119,0,3,,,,,,,,0,,,55,0
21959,note_on,19,0,7,,,,,,,,5,,,71,0
21959,note_on,119,0,2,,,,,,,,6,,,67,0
21960,note_on,1,0,7,,,,,,,,5,,,72,80
21979,note_on,19,0,7,,,,,,,,5,,,72,0
21980,note_on,1,0,7,,,,,,,,5,,,74,82
21999,note_on,19,0,7,,,,,,,,5,,,74,0
22000,note_on,1,0,7,,,,,,,,5,,,76,78
22019,note_on,19,0,7,,,,,,,,5,,,76,0
22020,note_on,1,0,7,,,,,,,,5,,,77,82
22039,note_on,19,0,7,,,,,,,,5,,,77,0
22040,note_on,1,0,7,,,,,,,,5,,,78,80
22059,note_on,19,0,7,,,,,,,,5,,,78,0
22060,note_on,1,0,7,,,,,,,,5,,,79,82
22079,note_on,239,0,11,,,,,,,,14,,,59,0
22079,note_on,239,0,9,,,,,,,,12,,,67,0
22079,note_on,239,0,8,,,,,,,,5,,,55,0
22079,note_on,0,0,8,,,,,,,,5,,,43,0
22079,note_on,239,0,10,,,,,,,,13,,,67,0
22079,note_on,19,0,7,,,,,,,,5,,,79,0
22080,note_on,1,0,9,,,,,,,,12,,,69,60
22080,note_on,1,0,10,,,,,,,,13,,,66,60
22080,note_on,1,0,7,,,,,,,,5,,,81,87
22080,note_on,1,0,8,,,,,,,,5,,,55,82
22080,note_on,0,0,8,,,,,,,,5,,,66,74
22080,note_on,1,0,11,,,,,,,,14,,,60,60
22099,note_on,19,0,7,,,,,,,,5,,,81,0
22100,note_on,1,0,7,,,,,,,,5,,,69,87
22119,note_on,19,0,7,,,,,,,,5,,,69,0
22120,note_on,1,0,7,,,,,,,,5,,,68,78
22139,note_on,19,0,7,,,,,,,,5,,,68,0
22140,note_on,1,0,7,,,,,,,,5,,,69,82
22159,note_on,19,0,7,,,,,,,,5,,,69,0
22160,note_on,1,0,7,,,,,,,,5,,,71,82
22179,note_on,19,0,7,,,,,,,,5,,,71,0
22180,note_on,1,0,7,,,,,,,,5,,,72,80
22199,note_on,19,0,7,,,,,,,,5,,,72,0
22200,note_on,1,0,7,,,,,,,,5,,,74,82
22219,note_on,19,0,7,,,,,,,,5,,,74,0
22220,note_on,1,0,7,,,,,,,,5,,,76,80
22239,note_on,19,0,7,,,,,,,,5,,,76,0
22240,note_on,1,0,7,,,,,,,,5,,,78,70
22259,note_on,19,0,7,,,,,,,,5,,,78,0
22260,note_on,1,0,7,,,,,,,,5,,,79,80
22279,note_on,19,0,7,,,,,,,,5,,,79,0
22280,note_on,1,0,7,,,,,,,,5,,,81,85
22299,note_on,19,0,7,,,,,,,,5,,,81,0
22300,note_on,1,0,7,,,,,,,,5,,,82,74
22319,note_on,19,0,7,,,,,,,,5,,,82,0
22319,note_on,0,0,8,,,,,,,,5,,,55,0
22319,note_on,239,0,8,,,,,,,,5,,,66,0
22319,note_on,239,0,9,,,,,,,,12,,,69,0
22319,note_on,239,0,10,,,,,,,,13,,,66,0
22319,note_on,239,0,11,,,,,,,,14,,,60,0
22320,note_on,1,0,11,,,,,,,,14,,,62,60
22320,note_on,1,0,8,,,,,,,,5,,,65,82
22320,note_on,0,0,8,,,,,,,,5,,,55,70
22320,note_on,1,0,7,,,,,,,,5,,,83,82
22320,note_on,1,0,9,,,,,,,,12,,,71,60
22320,note_on,1,0,10,,,,,,,,13,,,65,60
22339,note_on,19,0,7,,,,,,,,5,,,83,0
22340,note_on,1,0,7,,,,,,,,5,,,71,85
22359,note_on,19,0,7,,,,,,,,5,,,71,0
22360,note_on,1,0,7,,,,,,,,5,,,70,78
22379,note_on,19,0,7,,,,,,,,5,,,70,0
22380,note_on,1,0,7,,,,,,,,5,,,71,82
22399,note_on,19,0,7,,,,,,,,5,,,71,0
22400,note_on,1,0,7,,,,,,,,5,,,72,72
22419,note_on,19,0,7,,,,,,,,5,,,72,0
22420,note_on,1,0,7,,,,,,,,5,,,74,80
22439,note_on,19,0,7,,,,,,,,5,,,74,0
22440,note_on,1,0,7,,,,,,,,5,,,76,82
22459,note_on,19,0,7,,,,,,,,5,,,76,0
22460,note_on,1,0,7,,,,,,,,5,,,77,89
22479,note_on,19,0,7,,,,,,,,5,,,77,0
22480,note_on,1,0,7,,,,,,,,5,,,79,82
22499,note_on,19,0,7,,,,,,,,5,,,79,0
22500,note_on,1,0,7,,,,,,,,5,,,81,85
22519,note_on,19,0,7,,,,,,,,5,,,81,0
22520,note_on,1,0,7,,,,,,,,5,,,82,68
22539,note_on,19,0,7,,,,,,,,5,,,82,0
22540,note_on,1,0,7,,,,,,,,5,,,83,82
22559,note_on,0,0,8,,,,,,,,5,,,65,0
22559,note_on,239,0,11,,,,,,,,14,,,62,0
22559,note_on,239,0,9,,,,,,,,12,,,71,0
22559,note_on,239,0,10,,,,,,,,13,,,65,0
22559,note_on,19,0,7,,,,,,,,5,,,83,0
22559,note_on,239,0,8,,,,,,,,5,,,55,0
22560,note_on,1,0,7,,,,,,,,5,,,84,82
22560,note_on,1,0,10,,,,,,,,13,,,64,60
22560,note_on,0,0,8,,,,,,,,5,,,64,82
22560,note_on,1,0,8,,,,,,,,5,,,55,74
22560,note_on,1,0,11,,,,,,,,14,,,60,60
22560,note_on,1,0,9,,,,,,,,12,,,72,60
22579,note_on,19,0,7,,,,,,,,5,,,84,0
22580,note_on,1,0,7,,,,,,,,5,,,72,78
22599,note_on,19,0,7,,,,,,,,5,,,72,0
22600,note_on,1,0,7,,,,,,,,5,,,71,80
22619,note_on,19,0,7,,,,,,,,5,,,71,0
22620,note_on,1,0,7,,,,,,,,5,,,72,80
22639,note_on,19,0,7,,,,,,,,5,,,72,0
22640,note_on,1,0,7,,,,,,,,5,,,74,76
22659,note_on,19,0,7,,,,,,,,5,,,74,0
22660,note_on,1,0,7,,,,,,,,5,,,76,87
22679,note_on,19,0,7,,,,,,,,5,,,76,0
22680,note_on,1,0,7,,,,,,,,5,,,77,80
22699,note_on,19,0,7,,,,,,,,5,,,77,0
22700,note_on,1,0,7,,,,,,,,5,,,79,78
22719,note_on,19,0,7,,,,,,,,5,,,79,0
22720,note_on,1,0,7,,,,,,,,5,,,81,80
22739,note_on,19,0,7,,,,,,,,5,,,81,0
22740,note_on,1,0,7,,,,,,,,5,,,83,74
22759,note_on,19,0,7,,,,,,,,5,,,83,0
22760,note_on,1,0,7,,,,,,,,5,,,84,82
22779,note_on,19,0,7,,,,,,,,5,,,84,0
22780,note_on,1,0,7,,,,,,,,5,,,85,82
22799,note_on,959,0,12,,,,,,,,15,,,43,0
22799,note_on,19,0,7,,,,,,,,5,,,85,0
22799,note_on,239,0,8,,,,,,,,5,,,64,0
22799,note_on,239,0,10,,,,,,,,13,,,64,0
22799,note_on,239,0,9,,,,,,,,12,,,72,0
22799,note_on,239,0,11,,,,,,,,14,,,60,0
22799,note_on,0,0,8,,,,,,,,5,,,55,0
22800,note_on,1,0,11,,,,,,,,14,,,65,60
22800,note_on,1,0,7,,,,,,,,5,,,85,68
22800,note_on,1,0,12,,,,,,,,15,,,55,74
22800,note_on,1,0,8,,,,,,,,5,,,43,89
22800,note_on,1,0,10,,,,,,,,13,,,74,60
22819,note_on,19,0,7,,,,,,,,5,,,85,0
22820,note_on,1,0,7,,,,,,,,5,,,86,82
22839,note_on,19,0,7,,,,,,,,5,,,86,0
22840,note_on,1,0,7,,,,,,,,5,,,89,82
22859,note_on,59,0,10,,,,,,,,13,,,74,0
22859,note_on,19,0,7,,,,,,,,5,,,89,0
22859,note_on,59,0,11,,,,,,,,14,,,65,0
22860,note_on,1,0,10,,,,,,,,13,,,72,60
22860,note_on,1,0,7,,,,,,,,5,,,84,82
22860,note_on,1,0,11,,,,,,,,14,,,64,60
22860,note_on,61,0,9,,,,,,,,12,,,65,60
22879,note_on,19,0,7,,,,,,,,5,,,84,0
22880,note_on,1,0,7,,,,,,,,5,,,86,74
22899,note_on,19,0,7,,,,,,,,5,,,86,0
22900,note_on,1,0,7,,,,,,,,5,,,89,82
22919,note_on,59,0,9,,,,,,,,12,,,65,0
22919,note_on,119,0,12,,,,,,,,15,,,55,0
22919,note_on,19,0,7,,,,,,,,5,,,89,0
22919,note_on,59,0,10,,,,,,,,13,,,72,0
22919,note_on,119,0,8,,,,,,,,5,,,43,0
22919,note_on,59,0,11,,,,,,,,14,,,64,0
22920,note_on,1,0,11,,,,,,,,14,,,62,60
22920,note_on,1,0,10,,,,,,,,13,,,71,60
22920,note_on,1,0,7,,,,,,,,5,,,83,78
22920,note_on,1,0,9,,,,,,,,12,,,77,60
22939,note_on,19,0,7,,,,,,,,5,,,83,0
22940,note_on,1,0,7,,,,,,,,5,,,86,82
22959,note_on,19,0,7,,,,,,,,5,,,86,0
22960,note_on,1,0,7,,,,,,,,5,,,89,82
22979,note_on,19,0,7,,,,,,,,5,,,89,0
22979,note_on,59,0,9,,,,,,,,12,,,77,0
22979,note_on,59,0,11,,,,,,,,14,,,62,0
22979,note_on,59,0,10,,,,,,,,13,,,71,0
22980,note_on,1,0,7,,,,,,,,5,,,81,82
22980,note_on,1,0,9,,,,,,,,12,,,77,60
22980,note_on,1,0,11,,,,,,,,14,,,60,60
22980,note_on,1,0,10,,,,,,,,13,,,69,60
22999,note_on,19,0,7,,,,,,,,5,,,81,0
23000,note_on,1,0,7,,,,,,,,5,,,86,85
23010,note_on,30,0,9,,,,,,,,12,,,77,0
23019,note_on,19,0,7,,,,,,,,5,,,86,0
23020,note_on,1,0,7,,,,,,,,5,,,89,82
23039,note_on,19,0,7,,,,,,,,5,,,89,0
23039,note_on,59,0,10,,,,,,,,13,,,69,0
23039,note_on,59,0,11,,,,,,,,14,,,60,0
23040,note_on,1,0,11,,,,,,,,14,,,59,60
23040,note_on,30,0,9,,,,,,,,12,,,77,60
23040,note_on,1,0,10,,,,,,,,13,,,67,60
23040,note_on,1,0,7,,,,,,,,5,,,79,80
23059,note_on,19,0,7,,,,,,,,5,,,79,0
23060,note_on,1,0,7,,,,,,,,5,,,86,82
23079,note_on,19,0,7,,,,,,,,5,,,86,0
23080,note_on,1,0,7,,,,,,,,5,,,89,80
23099,note_on,19,0,7,,,,,,,,5,,,89,0
23099,note_on,59,0,11,,,,,,,,14,,,59,0
23099,note_on,59,0,10,,,,,,,,13,,,67,0
23100,note_on,1,0,11,,,,,,,,14,,,60,60
23100,note_on,1,0,7,,,,,,,,5,,,81,82
23100,note_on,1,0,10,,,,,,,,13,,,69,60
23119,note_on,19,0,7,,,,,,,,5,,,81,0
23120,note_on,1,0,7,,,,,,,,5,,,86,74
23139,note_on,19,0,7,,,,,,,,5,,,86,0
23140,note_on,1,0,7,,,,,,,,5,,,89,80
23159,note_on,59,0,10,,,,,,,,13,,,69,0
23159,note_on,59,0,11,,,,,,,,14,,,60,0
23159,note_on,19,0,7,,,,,,,,5,,,89,0
23160,note_on,1,0,10,,,,,,,,13,,,71,60
23160,note_on,1,0,11,,,,,,,,14,,,62,60
23160,note_on,1,0,7,,,,,,,,5,,,83,78
23179,note_on,19,0,7,,,,,,,,5,,,83,0
23180,note_on,1,0,7,,,,,,,,5,,,86,72
23199,note_on,19,0,7,,,,,,,,5,,,86,0
23200,note_on,1,0,7,,,,,,,,5,,,89,76
23219,note_on,59,0,10,,,,,,,,13,,,71,0
23219,note_on,59,0,11,,,,,,,,14,,,62,0
23219,note_on,19,0,7,,,,,,,,5,,,89,0
23220,note_on,1,0,10,,,,,,,,13,,,72,60
23220,note_on,1,0,11,,,,,,,,14,,,64,60
23220,note_on,1,0,7,,,,,,,,5,,,84,85
23239,note_on,19,0,7,,,,,,,,5,,,84,0
23240,note_on,1,0,7,,,,,,,,5,,,86,76
23259,note_on,19,0,7,,,,,,,,5,,,86,0
23260,note_on,1,0,7,,,,,,,,5,,,89,74
23279,note_on,19,0,7,,,,,,,,5,,,89,0
23279,note_on,59,0,10,,,,,,,,13,,,72,0
23279,note_on,59,0,11,,,,,,,,14,,,64,0
23280,note_on,1,0,10,,,,,,,,13,,,74,60
23280,note_on,361,0,12,,,,,,,,15,,,55,72
23280,note_on,1,0,7,,,,,,,,5,,,85,82
23280,note_on,1,0,11,,,,,,,,14,,,65,60
23280,note_on,361,0,8,,,,,,,,5,,,43,95
23299,note_on,19,0,7,,,,,,,,5,,,85,0
23300,note_on,1,0,7,,,,,,,,5,,,86,82
23319,note_on,19,0,7,,,,,,,,5,,,86,0
23320,note_on,1,0,7,,,,,,,,5,,,89,70
23339,note_on,299,0,9,,,,,,,,12,,,77,0
23339,note_on,59,0,10,,,,,,,,13,,,74,0
23339,note_on,59,0,11,,,,,,,,14,,,65,0
23339,note_on,19,0,7,,,,,,,,5,,,89,0
23340,note_on,1,0,10,,,,,,,,13,,,72,60
23340,note_on,1381,0,2,,,,,,,,6,,,67,82
23340,note_on,1,0,7,,,,,,,,5,,,84,85
23340,note_on,1,0,11,,,,,,,,14,,,64,60
23340,note_on,1,0,9,,,,,,,,12,,,65,60
23359,note_on,19,0,7,,,,,,,,5,,,84,0
23360,note_on,1,0,7,,,,,,,,5,,,86,72
23379,note_on,19,0,7,,,,,,,,5,,,86,0
23380,note_on,1,0,7,,,,,,,,5,,,89,72
23399,note_on,59,0,9,,,,,,,,12,,,65,0
23399,note_on,59,0,10,,,,,,,,13,,,72,0
23399,note_on,59,0,2,,,,,,,,6,,,67,0
23399,note_on,119,0,8,,,,,,,,5,,,43,0
23399,note_on,19,0,7,,,,,,,,5,,,89,0
23399,note_on,119,0,12,,,,,,,,15,,,55,0
23399,note_on,59,0,11,,,,,,,,14,,,64,0
23400,note_on,1,0,9,,,,,,,,12,,,77,60
23400,note_on,1,0,10,,,,,,,,13,,,71,60
23400,note_on,1,0,11,,,,,,,,14,,,62,60
23400,note_on,1,0,2,,,,,,,,6,,,79,68
23400,note_on,1,0,7,,,,,,,,5,,,83,78
23419,note_on,19,0,7,,,,,,,,5,,,83,0
23420,note_on,1,0,7,,,,,,,,5,,,86,70
23439,note_on,19,0,7,,,,,,,,5,,,86,0
23440,note_on,1,0,7,,,,,,,,5,,,89,72
23459,note_on,59,0,11,,,,,,,,14,,,62,0
23459,note_on,59,0,10,,,,,,,,13,,,71,0
23459,note_on,59,0,2,,,,,,,,6,,,79,0
23459,note_on,59,0,9,,,,,,,,12,,,77,0
23459,note_on,19,0,7,,,,,,,,5,,,89,0
23460,note_on,1,0,11,,,,,,,,14,,,60,60
23460,note_on,1,0,9,,,,,,,,12,,,77,60
23460,note_on,1,0,2,,,,,,,,6,,,79,72
23460,note_on,1,0,10,,,,,,,,13,,,69,60
23460,note_on,1,0,7,,,,,,,,5,,,81,80
23479,note_on,19,0,7,,,,,,,,5,,,81,0
23480,note_on,1,0,7,,,,,,,,5,,,86,70
23499,note_on,19,0,7,,,,,,,,5,,,86,0
23500,note_on,1,0,7,,,,,,,,5,,,89,82
23519,note_on,59,0,2,,,,,,,,6,,,79,0
23519,note_on,59,0,9,,,,,,,,12,,,77,0
23519,note_on,19,0,7,,,,,,,,5,,,89,0
23519,note_on,59,0,10,,,,,,,,13,,,69,0
23519,note_on,59,0,11,,,,,,,,14,,,60,0
23520,note_on,1,0,7,,,,,,,,5,,,79,80
23520,note_on,1,0,9,,,,,,,,12,,,77,60
23520,note_on,1,0,2,,,,,,,,6,,,79,70
23520,note_on,1,0,10,,,,,,,,13,,,67,60
23520,note_on,1,0,11,,,,,,,,14,,,59,60
23539,note_on,19,0,7,,,,,,,,5,,,79,0
23540,note_on,1,0,7,,,,,,,,5,,,86,82
23559,note_on,19,0,7,,,,,,,,5,,,86,0
23560,note_on,1,0,7,,,,,,,,5,,,89,82
23579,note_on,59,0,10,,,,,,,,13,,,67,0
23579,note_on,19,0,7,,,,,,,,5,,,89,0
23579,note_on,59,0,11,,,,,,,,14,,,59,0
23580,note_on,1,0,7,,,,,,,,5,,,81,82
23580,note_on,1,0,11,,,,,,,,14,,,60,60
23580,note_on,1,0,10,,,,,,,,13,,,69,60
23599,note_on,19,0,7,,,,,,,,5,,,81,0
23600,note_on,1,0,7,,,,,,,,5,,,86,82
23619,note_on,19,0,7,,,,,,,,5,,,86,0
23620,note_on,1,0,7,,,,,,,,5,,,89,76
23639,note_on,19,0,7,,,,,,,,5,,,89,0
23639,note_on,59,0,10,,,,,,,,13,,,69,0
23639,note_on,59,0,11,,,,,,,,14,,,60,0
23640,note_on,1,0,7,,,,,,,,5,,,83,76
23640,note_on,1,0,10,,,,,,,,13,,,71,60
23640,note_on,1,0,11,,,,,,,,14,,,62,60
23659,note_on,19,0,7,,,,,,,,5,,,83,0
23660,note_on,1,0,7,,,,,,,,5,,,86,72
23679,note_on,19,0,7,,,,,,,,5,,,86,0
23680,note_on,1,0,7,,,,,,,,5,,,89,72
23699,note_on,19,0,7,,,,,,,,5,,,89,0
23699,note_on,59,0,10,,,,,,,,13,,,71,0
23699,note_on,59,0,11,,,,,,,,14,,,62,0
23700,note_on,1,0,7,,,,,,,,5,,,84,80
23700,note_on,1,0,11,,,,,,,,14,,,64,60
23700,note_on,1,0,10,,,,,,,,13,,,72,60
23719,note_on,19,0,7,,,,,,,,5,,,84,0
23720,note_on,1,0,7,,,,,,,,5,,,86,68
23739,note_on,19,0,7,,,,,,,,5,,,86,0
23740,note_on,1,0,7,,,,,,,,5,,,89,78
23759,note_on,59,0,10,,,,,,,,13,,,72,0
23759,note_on,19,0,7,,,,,,,,5,,,89,0
23759,note_on,59,0,11,,,,,,,,14,,,64,0
23760,note_on,1,0,10,,,,,,,,13,,,74,60
23760,note_on,361,0,8,,,,,,,,5,,,43,87
23760,note_on,1,0,7,,,,,,,,5,,,85,80
23760,note_on,361,0,12,,,,,,,,15,,,55,68
23760,note_on,1,0,11,,,,,,,,14,,,65,60
23779,note_on,19,0,7,,,,,,,,5,,,85,0
23780,note_on,1,0,7,,,,,,,,5,,,86,85
23799,note_on,19,0,7,,,,,,,,5,,,86,0
23800,note_on,1,0,7,,,,,,,,5,,,89,78
23819,note_on,299,0,9,,,,,,,,12,,,77,0
23819,note_on,299,0,2,,,,,,,,6,,,79,0
23819,note_on,59,0,10,,,,,,,,13,,,74,0
23819,note_on,19,0,7,,,,,,,,5,,,89,0
23819,note_on,59,0,11,,,,,,,,14,,,65,0
23820,note_on,1,0,9,,,,,,,,12,,,65,60
23820,note_on,1,0,7,,,,,,,,5,,,84,80
23820,note_on,1,0,2,,,,,,,,6,,,67,78
23820,note_on,1,0,11,,,,,,,,14,,,64,60
23820,note_on,1,0,10,,,,,,,,13,,,72,60
23839,note_on,19,0,7,,,,,,,,5,,,84,0
23840,note_on,1,0,7,,,,,,,,5,,,86,82
23859,note_on,19,0,7,,,,,,,,5,,,86,0
23860,note_on,1,0,7,,,,,,,,5,,,89,68
23879,note_on,59,0,11,,,,,,,,14,,,64,0
23879,note_on,19,0,7,,,,,,,,5,,,89,0
23879,note_on,59,0,9,,,,,,,,12,,,65,0
23879,note_on,119,0,12,,,,,,,,15,,,55,0
23879,note_on,119,0,8,,,,,,,,5,,,43,0
23879,note_on,59,0,10,,,,,,,,13,,,72,0
23879,note_on,59,0,2,,,,,,,,6,,,67,0
23880,note_on,1,0,9,,,,,,,,12,,,77,60
23880,note_on,1,0,2,,,,,,,,6,,,79,68
23880,note_on,1,0,7,,,,,,,,5,,,83,63
23880,note_on,1,0,11,,,,,,,,14,,,62,60
23880,note_on,1,0,10,,,,,,,,13,,,71,60
23899,note_on,19,0,7,,,,,,,,5,,,83,0
23900,note_on,1,0,7,,,,,,,,5,,,86,72
23919,note_on,19,0,7,,,,,,,,5,,,86,0
23920,note_on,1,0,7,,,,,,,,5,,,89,72
23939,note_on,59,0,9,,,,,,,,12,,,77,0
23939,note_on,59,0,2,,,,,,,,6,,,79,0
23939,note_on,19,0,7,,,,,,,,5,,,89,0
23939,note_on,59,0,11,,,,,,,,14,,,62,0
23939,note_on,59,0,10,,,,,,,,13,,,71,0
23940,note_on,1,0,11,,,,,,,,14,,,60,60
23940,note_on,1,0,9,,,,,,,,12,,,77,60
23940,note_on,1,0,7,,,,,,,,5,,,81,78
23940,note_on,1,0,10,,,,,,,,13,,,69,60
23940,note_on,1,0,2,,,,,,,,6,,,79,64
23959,note_on,19,0,7,,,,,,,,5,,,81,0
23960,note_on,1,0,7,,,,,,,,5,,,86,74
23979,note_on,19,0,7,,,,,,,,5,,,86,0
23980,note_on,1,0,7,,,,,,,,5,,,89,66
23999,note_on,19,0,7,,,,,,,,5,,,89,0
23999,note_on,59,0,2,,,,,,,,6,,,79,0
23999,note_on,59,0,11,,,,,,,,14,,,60,0
23999,note_on,59,0,10,,,,,,,,13,,,69,0
24000,note_on,1,0,2,,,,,,,,6,,,79,80
24000,note_on,1,0,11,,,,,,,,14,,,59,60
24000,note_on,1,0,7,,,,,,,,5,,,79,74
24000,note_on,1,0,10,,,,,,,,13,,,67,60
24019,note_on,19,0,7,,,,,,,,5,,,79,0
24020,note_on,1,0,7,,,,,,,,5,,,86,70
24039,note_on,19,0,7,,,,,,,,5,,,86,0
24040,note_on,1,0,7,,,,,,,,5,,,89,80
24059,note_on,119,0,9,,,,,,,,12,,,77,0
24059,note_on,59,0,11,,,,,,,,14,,,59,0
24059,note_on,19,0,7,,,,,,,,5,,,89,0
24060,note_on,1,0,7,,,,,,,,5,,,79,76
24060,note_on,1,0,9,,,,,,,,12,,,76,60
24060,note_on,1,0,11,,,,,,,,14,,,60,60
24079,note_on,19,0,7,,,,,,,,5,,,79,0
24080,note_on,1,0,7,,,,,,,,5,,,84,85
24099,note_on,19,0,7,,,,,,,,5,,,84,0
24100,note_on,1,0,7,,,,,,,,5,,,88,82
24119,note_on,19,0,7,,,,,,,,5,,,88,0
24119,note_on,59,0,11,,,,,,,,14,,,60,0
24119,note_on,59,0,9,,,,,,,,12,,,76,0
24120,note_on,1,0,11,,,,,,,,14,,,65,60
24120,note_on,1,0,7,,,,,,,,5,,,77,85
24120,note_on,1,0,9,,,,,,,,12,,,74,60
24139,note_on,19,0,7,,,,,,,,5,,,77,0
24140,note_on,1,0,7,,,,,,,,5,,,79,78
24159,note_on,19,0,7,,,,,,,,5,,,79,0
24160,note_on,1,0,7,,,,,,,,5,,,86,68
24179,note_on,59,0,9,,,,,,,,12,,,74,0
24179,note_on,59,0,11,,,,,,,,14,,,65,0
24179,note_on,19,0,7,,,,,,,,5,,,86,0
24180,note_on,1,0,11,,,,,,,,14,,,64,60
24180,note_on,1,0,9,,,,,,,,12,,,72,60
24180,note_on,1,0,7,,,,,,,,5,,,76,80
24199,note_on,19,0,7,,,,,,,,5,,,76,0
24200,note_on,1,0,7,,,,,,,,5,,,79,82
24219,note_on,19,0,7,,,,,,,,5,,,79,0
24220,note_on,1,0,7,,,,,,,,5,,,84,85
24239,note_on,19,0,7,,,,,,,,5,,,84,0
24239,note_on,59,0,11,,,,,,,,14,,,64,0
24240,note_on,1,0,7,,,,,,,,5,,,74,82
24240,note_on,361,0,12,,,,,,,,15,,,55,72
24240,note_on,361,0,8,,,,,,,,5,,,43,80
24240,note_on,1,0,11,,,,,,,,14,,,62,60
24240,note_on,0,0,8,,,,,,,,5,,,55,85
24259,note_on,19,0,7,,,,,,,,5,,,74,0
24260,note_on,1,0,7,,,,,,,,5,,,79,82
24279,note_on,19,0,7,,,,,,,,5,,,79,0
24280,note_on,1,0,7,,,,,,,,5,,,84,85
24299,note_on,19,0,7,,,,,,,,5,,,84,0
24299,note_on,119,0,9,,,,,,,,12,,,72,0
24300,note_on,1,0,9,,,,,,,,12,,,71,60
24300,note_on,1,0,7,,,,,,,,5,,,83,80
24319,note_on,19,0,7,,,,,,,,5,,,83,0
24320,note_on,1,0,7,,,,,,,,5,,,79,74
24339,note_on,19,0,7,,,,,,,,5,,,79,0
24340,note_on,1,0,7,,,,,,,,5,,,74,82
24359,note_on,359,0,10,,,,,,,,13,,,67,0
24359,note_on,119,0,11,,,,,,,,14,,,62,0
24359,note_on,19,0,7,,,,,,,,5,,,74,0
24360,note_on,0,0,3,,,,,,,,0,,,51,62
24360,note_on,2401,0,3,,,,,,,,0,,,63,72
24360,note_on,1,0,11,,,,,,,,14,,,60,60
24360,note_on,1,0,10,,,,,,,,13,,,66,60
24360,note_on,1,0,7,,,,,,,,5,,,72,82
24379,note_on,19,0,7,,,,,,,,5,,,72,0
24380,note_on,1,0,7,,,,,,,,5,,,78,74
24399,note_on,19,0,7,,,,,,,,5,,,78,0
24400,note_on,1,0,7,,,,,,,,5,,,83,82
24419,note_on,19,0,7,,,,,,,,5,,,83,0
24419,note_on,119,0,9,,,,,,,,12,,,71,0
24420,note_on,1,0,7,,,,,,,,5,,,81,80
24420,note_on,1,0,9,,,,,,,,12,,,69,60
24439,note_on,19,0,7,,,,,,,,5,,,81,0
24440,note_on,1,0,7,,,,,,,,5,,,78,80
24459,note_on,19,0,7,,,,,,,,5,,,78,0
24460,note_on,1,0,7,,,,,,,,5,,,72,85
24479,note_on,19,0,7,,,,,,,,5,,,72,0
24479,note_on,119,0,10,,,,,,,,13,,,66,0
24479,note_on,119,0,3,,,,,,,,0,,,51,0
24479,note_on,0,0,3,,,,,,,,0,,,63,0
24479,note_on,119,0,11,,,,,,,,14,,,60,0
24480,note_on,1,0,7,,,,,,,,5,,,71,85
24480,note_on,1,0,3,,,,,,,,0,,,50,70
24480,note_on,0,0,3,,,,,,,,0,,,62,64
24480,note_on,1,0,11,,,,,,,,14,,,59,60
24480,note_on,1,0,10,,,,,,,,13,,,62,60
24499,note_on,19,0,7,,,,,,,,5,,,71,0
24500,note_on,1,0,7,,,,,,,,5,,,74,80
24519,note_on,19,0,7,,,,,,,,5,,,74,0
24520,note_on,1,0,7,,,,,,,,5,,,81,80
24539,note_on,59,0,3,,,,,,,,0,,,62,0
24539,note_on,19,0,7,,,,,,,,5,,,81,0
24539,note_on,119,0,9,,,,,,,,12,,,69,0
24539,note_on,0,0,3,,,,,,,,0,,,50,0
24540,note_on,1,0,7,,,,,,,,5,,,79,80
24540,note_on,1,0,9,,,,,,,,12,,,67,60
24559,note_on,19,0,7,,,,,,,,5,,,79,0
24560,note_on,1,0,7,,,,,,,,5,,,74,85
24579,note_on,19,0,7,,,,,,,,5,,,74,0
24580,note_on,1,0,7,,,,,,,,5,,,71,80
24599,note_on,19,0,7,,,,,,,,5,,,71,0
24599,note_on,599,0,2,,,,,,,,6,,,79,0
24599,note_on,119,0,11,,,,,,,,14,,,59,0
24600,note_on,2641,0,1,,,,,,,,3,,,83,72
24600,note_on,1,0,2,,,,,,,,6,,,71,76
24600,note_on,1,0,11,,,,,,,,14,,,56,60
24600,note_on,1,0,7,,,,,,,,5,,,68,85
24619,note_on,19,0,7,,,,,,,,5,,,68,0
24620,note_on,1,0,7,,,,,,,,5,,,74,87
24639,note_on,19,0,7,,,,,,,,5,,,74,0
24640,note_on,1,0,7,,,,,,,,5,,,79,70
24659,note_on,119,0,9,,,,,,,,12,,,67,0
24659,note_on,19,0,7,,,,,,,,5,,,79,0
24660,note_on,1,0,7,,,,,,,,5,,,77,78
24660,note_on,1,0,9,,,,,,,,12,,,65,60
24679,note_on,19,0,7,,,,,,,,5,,,77,0
24680,note_on,1,0,7,,,,,,,,5,,,74,82
24699,note_on,19,0,7,,,,,,,,5,,,74,0
24700,note_on,1,0,7,,,,,,,,5,,,68,78
24719,note_on,19,0,7,,,,,,,,5,,,68,0
24719,note_on,119,0,1,,,,,,,,3,,,83,0
24719,note_on,239,0,10,,,,,,,,13,,,62,0
24719,note_on,119,0,11,,,,,,,,14,,,56,0
24719,note_on,0,0,8,,,,,,,,5,,,43,0
24719,note_on,479,0,8,,,,,,,,5,,,55,0
24719,note_on,119,0,2,,,,,,,,6,,,71,0
24719,note_on,479,0,12,,,,,,,,15,,,55,0
24720,note_on,1,0,7,,,,,,,,5,,,67,85
24720,note_on,1,0,11,,,,,,,,14,,,55,60
24720,note_on,1,0,2,,,,,,,,6,,,72,80
24720,note_on,1,0,1,,,,,,,,3,,,84,80
24720,note_on,1,0,12,,,,,,,,15,,,43,82
24720,note_on,1,0,8,,,,,,,,5,,,55,80
24720,note_on,1,0,10,,,,,,,,13,,,60,60
24720,note_on,0,0,8,,,,,,,,5,,,43,72
24739,note_on,19,0,7,,,,,,,,5,,,67,0
24740,note_on,1,0,7,,,,,,,,5,,,72,80
24759,note_on,19,0,7,,,,,,,,5,,,72,0
24760,note_on,1,0,7,,,,,,,,5,,,77,85
24779,note_on,119,0,9,,,,,,,,12,,,65,0
24779,note_on,59,0,2,,,,,,,,6,,,72,0
24779,note_on,59,0,1,,,,,,,,3,,,84,0
24779,note_on,19,0,7,,,,,,,,5,,,77,0
24780,note_on,1,0,9,,,,,,,,12,,,64,60
24780,note_on,1,0,7,,,,,,,,5,,,76,80
24799,note_on,19,0,7,,,,,,,,5,,,76,0
24800,note_on,1,0,7,,,,,,,,5,,,72,85
24819,note_on,19,0,7,,,,,,,,5,,,72,0
24820,note_on,1,0,7,,,,,,,,5,,,67,87
24839,note_on,19,0,7,,,,,,,,5,,,67,0
24839,note_on,119,0,11,,,,,,,,14,,,55,0
24839,note_on,59,0,9,,,,,,,,12,,,64,0
24839,note_on,119,0,10,,,,,,,,13,,,60,0
24840,note_on,0,0,3,,,,,,,,0,,,59,63
24840,note_on,301,0,3,,,,,,,,0,,,47,64
24840,note_on,1,0,11,,,,,,,,14,,,53,60
24840,note_on,1,0,10,,,,,,,,13,,,56,60
24840,note_on,1,0,9,,,,,,,,12,,,63,60
24840,note_on,1,0,7,,,,,,,,5,,,65,80
24859,note_on,19,0,7,,,,,,,,5,,,65,0
24860,note_on,1,0,7,,,,,,,,5,,,68,82
24879,note_on,19,0,7,,,,,,,,5,,,68,0
24880,note_on,1,0,7,,,,,,,,5,,,75,74
24899,note_on,19,0,7,,,,,,,,5,,,75,0
24899,note_on,59,0,9,,,,,,,,12,,,63,0
24900,note_on,1,0,9,,,,,,,,12,,,62,60
24900,note_on,1,0,7,,,,,,,,5,,,74,82
24919,note_on,19,0,7,,,,,,,,5,,,74,0
24920,note_on,1,0,7,,,,,,,,5,,,68,80
24939,note_on,19,0,7,,,,,,,,5,,,68,0
24940,note_on,1,0,7,,,,,,,,5,,,65,85
24959,note_on,0,0,3,,,,,,,,0,,,47,0
24959,note_on,119,0,3,,,,,,,,0,,,59,0
24959,note_on,119,0,10,,,,,,,,13,,,56,0
24959,note_on,19,0,7,,,,,,,,5,,,65,0
24959,note_on,119,0,11,,,,,,,,14,,,53,0
24960,note_on,0,0,3,,,,,,,,0,,,48,70
24960,note_on,1,0,3,,,,,,,,0,,,60,78
24960,note_on,1,0,7,,,,,,,,5,,,64,82
24960,note_on,1,0,11,,,,,,,,14,,,52,60
24960,note_on,1,0,10,,,,,,,,13,,,55,60
24979,note_on,19,0,7,,,,,,,,5,,,64,0
24980,note_on,1,0,7,,,,,,,,5,,,67,82
24999,note_on,19,0,7,,,,,,,,5,,,67,0
25000,note_on,1,0,7,,,,,,,,5,,,74,80
25019,note_on,19,0,7,,,,,,,,5,,,74,0
25019,note_on,59,0,3,,,,,,,,0,,,48,0
25019,note_on,0,0,3,,,,,,,,0,,,60,0
25019,note_on,119,0,9,,,,,,,,12,,,62,0
25020,note_on,1,0,7,,,,,,,,5,,,72,72
25020,note_on,1,0,9,,,,,,,,12,,,60,60
25039,note_on,19,0,7,,,,,,,,5,,,72,0
25040,note_on,1,0,7,,,,,,,,5,,,67,74
25059,note_on,19,0,7,,,,,,,,5,,,67,0
25060,note_on,1,0,7,,,,,,,,5,,,64,78
25079,note_on,19,0,7,,,,,,,,5,,,64,0
25079,note_on,119,0,11,,,,,,,,14,,,52,0
25080,note_on,1,0,7,,,,,,,,5,,,62,80
25080,note_on,1,0,11,,,,,,,,14,,,50,60
25080,note_on,301,0,1,,,,,,,,3,,,79,60
25080,note_on,301,0,2,,,,,,,,6,,,67,60
25099,note_on,19,0,7,,,,,,,,5,,,62,0
25100,note_on,1,0,7,,,,,,,,5,,,67,82
25119,note_on,19,0,7,,,,,,,,5,,,67,0
25120,note_on,1,0,7,,,,,,,,5,,,72,78
25139,note_on,19,0,7,,,,,,,,5,,,72,0
25139,note_on,119,0,9,,,,,,,,12,,,60,0
25140,note_on,1,0,9,,,,,,,,12,,,59,60
25140,note_on,1,0,7,,,,,,,,5,,,71,80
25159,note_on,19,0,7,,,,,,,,5,,,71,0
25160,note_on,1,0,7,,,,,,,,5,,,67,80
25179,note_on,19,0,7,,,,,,,,5,,,67,0
25180,note_on,1,0,7,,,,,,,,5,,,62,74
25199,note_on,119,0,2,,,,,,,,6,,,67,0
25199,note_on,239,0,10,,,,,,,,13,,,55,0
25199,note_on,119,0,11,,,,,,,,14,,,50,0
25199,note_on,19,0,7,,,,,,,,5,,,62,0
25199,note_on,119,0,1,,,,,,,,3,,,79,0
25200,note_on,1,0,11,,,,,,,,14,,,48,60
25200,note_on,1,0,7,,,,,,,,5,,,60,72
25200,note_on,1,0,1,,,,,,,,3,,,84,59
25200,note_on,1,0,2,,,,,,,,6,,,75,59
25200,note_on,1,0,10,,,,,,,,13,,,60,60
25219,note_on,19,0,7,,,,,,,,5,,,60,0
25220,note_on,1,0,7,,,,,,,,5,,,66,74
25239,note_on,19,0,7,,,,,,,,5,,,66,0
25240,note_on,1,0,7,,,,,,,,5,,,71,80
25259,note_on,119,0,9,,,,,,,,12,,,59,0
25259,note_on,19,0,7,,,,,,,,5,,,71,0
25260,note_on,1,0,9,,,,,,,,12,,,57,60
25260,note_on,1,0,7,,,,,,,,5,,,69,68
25279,note_on,19,0,7,,,,,,,,5,,,69,0
25280,note_on,1,0,7,,,,,,,,5,,,66,72
25299,note_on,19,0,7,,,,,,,,5,,,66,0
25300,note_on,1,0,7,,,,,,,,5,,,60,82
25319,note_on,19,0,7,,,,,,,,5,,,60,0
25319,note_on,119,0,1,,,,,,,,3,,,84,0
25319,note_on,119,0,11,,,,,,,,14,,,48,0
25319,note_on,119,0,2,,,,,,,,6,,,75,0
25319,note_on,119,0,10,,,,,,,,13,,,60,0
25320,note_on,1,0,2,,,,,,,,6,,,74,58
25320,note_on,1,0,11,,,,,,,,14,,,55,60
25320,note_on,1,0,10,,,,,,,,13,,,62,60
25320,note_on,1,0,7,,,,,,,,5,,,59,76
25320,note_on,1,0,1,,,,,,,,3,,,83,58
25339,note_on,19,0,7,,,,,,,,5,,,59,0
25340,note_on,1,0,7,,,,,,,,5,,,62,82
25359,note_on,19,0,7,,,,,,,,5,,,62,0
25360,note_on,1,0,7,,,,,,,,5,,,69,87
25379,note_on,19,0,7,,,,,,,,5,,,69,0
25379,note_on,119,0,9,,,,,,,,12,,,57,0
25380,note_on,1,0,7,,,,,,,,5,,,67,78
25380,note_on,1,0,9,,,,,,,,12,,,55,60
25399,note_on,19,0,7,,,,,,,,5,,,67,0
25400,note_on,1,0,7,,,,,,,,5,,,62,82
25419,note_on,19,0,7,,,,,,,,5,,,62,0
25420,note_on,1,0,7,,,,,,,,5,,,59,72
25439,note_on,719,0,8,,,,,,,,5,,,43,0
25439,note_on,119,0,2,,,,,,,,6,,,74,0
25439,note_on,119,0,11,,,,,,,,14,,,55,0
25439,note_on,119,0,10,,,,,,,,13,,,62,0
25439,note_on,119,0,1,,,,,,,,3,,,83,0
25439,note_on,0,0,8,,,,,,,,5,,,55,0
25439,note_on,59,0,9,,,,,,,,12,,,55,0
25439,note_on,19,0,7,,,,,,,,5,,,59,0
25440,note_on,421,0,3,,,,,,,,0,,,60,72
25440,note_on,1,0,2,,,,,,,,6,,,78,57
25440,note_on,0,0,2,,,,,,,,6,,,75,57
25440,note_on,1,0,7,,,,,,,,5,,,57,78
25440,note_on,1,0,1,,,,,,,,3,,,84,57
25459,note_on,19,0,7,,,,,,,,5,,,57,0
25460,note_on,1,0,7,,,,,,,,5,,,60,70
25479,note_on,19,0,7,,,,,,,,5,,,60,0
25480,note_on,1,0,7,,,,,,,,5,,,66,80
25499,note_on,19,0,7,,,,,,,,5,,,66,0
25499,note_on,59,0,3,,,,,,,,0,,,60,0
25499,note_on,59,0,1,,,,,,,,3,,,84,0
25499,note_on,59,0,2,,,,,,,,6,,,75,0
25500,note_on,1,0,7,,,,,,,,5,,,59,76
25500,note_on,1,0,1,,,,,,,,3,,,86,57
25500,note_on,1,0,3,,,,,,,,0,,,59,66
25500,note_on,1,0,2,,,,,,,,6,,,74,57
25519,note_on,19,0,7,,,,,,,,5,,,59,0
25520,note_on,1,0,7,,,,,,,,5,,,62,85
25539,note_on,19,0,7,,,,,,,,5,,,62,0
25540,note_on,1,0,7,,,,,,,,5,,,66,72
25559,note_on,59,0,1,,,,,,,,3,,,86,0
25559,note_on,59,0,3,,,,,,,,0,,,59,0
25559,note_on,19,0,7,,,,,,,,5,,,66,0
25559,note_on,59,0,2,,,,,,,,6,,,74,0
25560,note_on,1,0,2,,,,,,,,6,,,72,56
25560,note_on,1,0,3,,,,,,,,0,,,57,68
25560,note_on,1,0,1,,,,,,,,3,,,87,56
25560,note_on,1,0,7,,,,,,,,5,,,60,80
25579,note_on,19,0,7,,,,,,,,5,,,60,0
25580,note_on,1,0,7,,,,,,,,5,,,63,72
25599,note_on,19,0,7,,,,,,,,5,,,63,0
25600,note_on,1,0,7,,,,,,,,5,,,66,64
25619,note_on,59,0,3,,,,,,,,0,,,57,0
25619,note_on,19,0,7,,,,,,,,5,,,66,0
25619,note_on,59,0,1,,,,,,,,3,,,87,0
25619,note_on,59,0,2,,,,,,,,6,,,72,0
25620,note_on,1,0,2,,,,,,,,6,,,74,56
25620,note_on,1,0,3,,,,,,,,0,,,59,66
25620,note_on,1,0,7,,,,,,,,5,,,59,70
25620,note_on,1,0,1,,,,,,,,3,,,86,56
25639,note_on,19,0,7,,,,,,,,5,,,59,0
25640,note_on,1,0,7,,,,,,,,5,,,62,74
25659,note_on,19,0,7,,,,,,,,5,,,62,0
25660,note_on,1,0,7,,,,,,,,5,,,66,64
25679,note_on,59,0,1,,,,,,,,3,,,86,0
25679,note_on,19,0,7,,,,,,,,5,,,66,0
25679,note_on,59,0,2,,,,,,,,6,,,74,0
25679,note_on,59,0,3,,,,,,,,0,,,59,0
25680,note_on,1,0,1,,,,,,,,3,,,84,55
25680,note_on,1,0,7,,,,,,,,5,,,57,68
25680,note_on,1,0,2,,,,,,,,6,,,75,55
25680,note_on,1,0,3,,,,,,,,0,,,60,70
25699,note_on,19,0,7,,,,,,,,5,,,57,0
25700,note_on,1,0,7,,,,,,,,5,,,60,78
25719,note_on,19,0,7,,,,,,,,5,,,60,0
25720,note_on,1,0,7,,,,,,,,5,,,66,70
25739,note_on,19,0,7,,,,,,,,5,,,66,0
25739,note_on,59,0,1,,,,,,,,3,,,84,0
25739,note_on,59,0,2,,,,,,,,6,,,75,0
25739,note_on,59,0,3,,,,,,,,0,,,60,0
25740,note_on,1,0,3,,,,,,,,0,,,59,66
25740,note_on,1,0,1,,,,,,,,3,,,86,55
25740,note_on,1,0,2,,,,,,,,6,,,74,55
25740,note_on,1,0,7,,,,,,,,5,,,59,70
25759,note_on,19,0,7,,,,,,,,5,,,59,0
25760,note_on,1,0,7,,,,,,,,5,,,62,82
25779,note_on,19,0,7,,,,,,,,5,,,62,0
25780,note_on,1,0,7,,,,,,,,5,,,66,68
25799,note_on,59,0,3,,,,,,,,0,,,59,0
25799,note_on,59,0,1,,,,,,,,3,,,86,0
25799,note_on,59,0,2,,,,,,,,6,,,74,0
25799,note_on,19,0,7,,,,,,,,5,,,66,0
25800,note_on,1,0,3,,,,,,,,0,,,57,66
25800,note_on,1,0,7,,,,,,,,5,,,60,72
25800,note_on,1,0,2,,,,,,,,6,,,72,55
25800,note_on,1,0,1,,,,,,,,3,,,87,55
25819,note_on,19,0,7,,,,,,,,5,,,60,0
25820,note_on,1,0,7,,,,,,,,5,,,63,74
25839,note_on,19,0,7,,,,,,,,5,,,63,0
25840,note_on,1,0,7,,,,,,,,5,,,66,68
25859,note_on,19,0,7,,,,,,,,5,,,66,0
25859,note_on,59,0,2,,,,,,,,6,,,72,0
25859,note_on,59,0,1,,,,,,,,3,,,87,0
25859,note_on,59,0,3,,,,,,,,0,,,57,0
25860,note_on,1,0,7,,,,,,,,5,,,59,70
25860,note_on,1,0,3,,,,,,,,0,,,59,64
25860,note_on,1,0,2,,,,,,,,6,,,74,54
25860,note_on,1,0,1,,,,,,,,3,,,86,54
25879,note_on,19,0,7,,,,,,,,5,,,59,0
25880,note_on,1,0,7,,,,,,,,5,,,62,72
25899,note_on,19,0,7,,,,,,,,5,,,62,0
25900,note_on,1,0,7,,,,,,,,5,,,66,66
25919,note_on,59,0,1,,,,,,,,3,,,86,0
25919,note_on,59,0,3,,,,,,,,0,,,59,0
25919,note_on,59,0,2,,,,,,,,6,,,74,0
25919,note_on,19,0,7,,,,,,,,5,,,66,0
25920,note_on,1,0,3,,,,,,,,0,,,60,68
25920,note_on,1,0,1,,,,,,,,3,,,84,54
25920,note_on,1,0,2,,,,,,,,6,,,75,54
25920,note_on,1,0,7,,,,,,,,5,,,57,76
25939,note_on,19,0,7,,,,,,,,5,,,57,0
25940,note_on,1,0,7,,,,,,,,5,,,60,72
25959,note_on,19,0,7,,,,,,,,5,,,60,0
25960,note_on,1,0,7,,,,,,,,5,,,66,68
25979,note_on,59,0,2,,,,,,,,6,,,75,0
25979,note_on,59,0,3,,,,,,,,0,,,60,0
25979,note_on,19,0,7,,,,,,,,5,,,66,0
25979,note_on,59,0,1,,,,,,,,3,,,84,0
25980,note_on,1,0,2,,,,,,,,6,,,74,53
25980,note_on,1,0,1,,,,,,,,3,,,86,53
25980,note_on,1,0,3,,,,,,,,0,,,59,64
25980,note_on,1,0,7,,,,,,,,5,,,59,74
25999,note_on,19,0,7,,,,,,,,5,,,59,0
26000,note_on,1,0,7,,,,,,,,5,,,62,74
26019,note_on,19,0,7,,,,,,,,5,,,62,0
26020,note_on,1,0,7,,,,,,,,5,,,66,72
26039,note_on,59,0,3,,,,,,,,0,,,59,0
26039,note_on,59,0,2,,,,,,,,6,,,74,0
26039,note_on,59,0,1,,,,,,,,3,,,86,0
26039,note_on,19,0,7,,,,,,,,5,,,66,0
26040,note_on,1,0,1,,,,,,,,3,,,87,53
26040,note_on,1,0,2,,,,,,,,6,,,72,53
26040,note_on,1,0,3,,,,,,,,0,,,57,60
26040,note_on,1,0,7,,,,,,,,5,,,60,80
26059,note_on,19,0,7,,,,,,,,5,,,60,0
26060,note_on,1,0,7,,,,,,,,5,,,63,66
26079,note_on,19,0,7,,,,,,,,5,,,63,0
26080,note_on,1,0,7,,,,,,,,5,,,66,66
26099,note_on,59,0,3,,,,,,,,0,,,57,0
26099,note_on,19,0,7,,,,,,,,5,,,66,0
26099,note_on,0,0,7,,,,,,,,5,,,59,68
26099,note_on,59,0,2,,,,,,,,6,,,72,0
26099,note_on,59,0,1,,,,,,,,3,,,87,0
26100,note_on,1,0,3,,,,,,,,0,,,59,60
26100,note_on,1,0,2,,,,,,,,6,,,74,53
26100,note_on,1,0,1,,,,,,,,3,,,86,53
26118,note_on,19,0,7,,,,,,,,5,,,59,0
26119,note_on,1,0,7,,,,,,,,5,,,62,82
26138,note_on,19,0,7,,,,,,,,5,,,62,0
26139,note_on,1,0,7,,,,,,,,5,,,66,66
26158,note_on,19,0,7,,,,,,,,5,,,66,0
26159,note_on,59,0,1,,,,,,,,3,,,86,0
26159,note_on,59,0,3,,,,,,,,0,,,59,0
26159,note_on,59,0,2,,,,,,,,6,,,74,0
26159,note_on,1,0,7,,,,,,,,5,,,60,72
26160,note_on,1,0,2,,,,,,,,6,,,72,52
26160,note_on,1,0,3,,,,,,,,0,,,57,66
26160,note_on,1,0,1,,,,,,,,3,,,87,52
26178,note_on,19,0,7,,,,,,,,5,,,60,0
26179,note_on,1,0,7,,,,,,,,5,,,63,68
26198,note_on,0,0,7,,,,,,,,5,,,66,66
26198,note_on,19,0,7,,,,,,,,5,,,63,0
26217,note_on,19,0,7,,,,,,,,5,,,66,0
26218,note_on,1,0,7,,,,,,,,5,,,59,66
26219,note_on,59,0,1,,,,,,,,3,,,87,0
26219,note_on,59,0,3,,,,,,,,0,,,57,0
26219,note_on,59,0,2,,,,,,,,6,,,72,0
26220,note_on,1,0,3,,,,,,,,0,,,59,64
26220,note_on,1,0,2,,,,,,,,6,,,74,52
26220,note_on,1,0,1,,,,,,,,3,,,86,52
26237,note_on,19,0,7,,,,,,,,5,,,59,0
26238,note_on,1,0,7,,,,,,,,5,,,62,76
26257,note_on,19,0,7,,,,,,,,5,,,62,0
26258,note_on,1,0,7,,,,,,,,5,,,66,61
26277,note_on,19,0,7,,,,,,,,5,,,66,0
26278,note_on,1,0,7,,,,,,,,5,,,60,72
26279,note_on,59,0,1,,,,,,,,3,,,86,0
26279,note_on,59,0,3,,,,,,,,0,,,59,0
26279,note_on,59,0,2,,,,,,,,6,,,74,0
26280,note_on,1,0,3,,,,,,,,0,,,57,64
26280,note_on,1,0,1,,,,,,,,3,,,87,51
26280,note_on,1,0,2,,,,,,,,6,,,72,51
26297,note_on,19,0,7,,,,,,,,5,,,60,0
26297,note_on,0,0,7,,,,,,,,5,,,63,62
26316,note_on,19,0,7,,,,,,,,5,,,63,0
26317,note_on,1,0,7,,,,,,,,5,,,66,61
26336,note_on,19,0,7,,,,,,,,5,,,66,0
26337,note_on,1,0,7,,,,,,,,5,,,57,72
26339,note_on,59,0,2,,,,,,,,6,,,72,0
26339,note_on,59,0,1,,,,,,,,3,,,87,0
26339,note_on,59,0,3,,,,,,,,0,,,57,0
26340,note_on,1,0,2,,,,,,,,6,,,75,51
26340,note_on,1,0,3,,,,,,,,0,,,60,78
26340,note_on,1,0,1,,,,,,,,3,,,84,51
26356,note_on,19,0,7,,,,,,,,5,,,57,0
26357,note_on,1,0,7,,,,,,,,5,,,60,78
26376,note_on,19,0,7,,,,,,,,5,,,60,0
26377,note_on,1,0,7,,,,,,,,5,,,66,70
26396,note_on,19,0,7,,,,,,,,5,,,66,0
26396,note_on,0,0,7,,,,,,,,5,,,59,82
26399,note_on,59,0,1,,,,,,,,3,,,84,0
26399,note_on,59,0,3,,,,,,,,0,,,60,0
26399,note_on,59,0,2,,,,,,,,6,,,75,0
26399,note_on,0,0,2,,,,,,,,6,,,78,0
26400,note_on,0,0,2,,,,,,,,6,,,74,50
26400,note_on,1,0,1,,,,,,,,3,,,86,50
26400,note_on,0,0,3,,,,,,,,0,,,59,64
26400,note_on,1,0,3,,,,,,,,0,,,55,64
26400,note_on,961,0,10,,,,,,,,13,,,65,59
26400,set_tempo,19680,1,0,,,,,,731707,,,,,,
26400,note_on,961,0,11,,,,,,,,14,,,62,70
26400,note_on,961,0,9,,,,,,,,12,,,71,61
26400,note_on,1,0,2,,,,,,,,6,,,77,50
26415,note_on,19,0,7,,,,,,,,5,,,59,0
26416,note_on,1,0,7,,,,,,,,5,,,65,78
26435,note_on,19,0,7,,,,,,,,5,,,65,0
26436,note_on,1,0,7,,,,,,,,5,,,64,80
26438,set_tempo,38,1,0,,,,,,740741,,,,,,
26455,note_on,19,0,7,,,,,,,,5,,,64,0
26456,note_on,1,0,7,,,,,,,,5,,,62,74
26475,note_on,19,0,7,,,,,,,,5,,,62,0
26476,note_on,1,0,7,,,,,,,,5,,,71,74
26476,set_tempo,38,1,0,,,,,,750000,,,,,,
26495,note_on,19,0,7,,,,,,,,5,,,71,0
26495,note_on,0,0,7,,,,,,,,5,,,69,80
26514,set_tempo,38,1,0,,,,,,759494,,,,,,
26514,note_on,19,0,7,,,,,,,,5,,,69,0
26515,note_on,1,0,7,,,,,,,,5,,,67,85
26534,note_on,19,0,7,,,,,,,,5,,,67,0
26535,note_on,1,0,7,,,,,,,,5,,,74,72
26552,set_tempo,38,1,0,,,,,,769231,,,,,,
26554,note_on,19,0,7,,,,,,,,5,,,74,0
26555,note_on,1,0,7,,,,,,,,5,,,72,80
26574,note_on,19,0,7,,,,,,,,5,,,72,0
26575,note_on,1,0,7,,,,,,,,5,,,71,82
26590,set_tempo,38,1,0,,,,,,779221,,,,,,
26594,note_on,19,0,7,,,,,,,,5,,,71,0
26594,note_on,0,0,7,,,,,,,,5,,,77,80
26613,note_on,19,0,7,,,,,,,,5,,,77,0
26614,note_on,1,0,7,,,,,,,,5,,,76,74
26629,set_tempo,39,1,0,,,,,,789474,,,,,,
26633,note_on,19,0,7,,,,,,,,5,,,76,0
26634,note_on,1,0,7,,,,,,,,5,,,74,82
26653,note_on,19,0,7,,,,,,,,5,,,74,0
26654,note_on,1,0,7,,,,,,,,5,,,83,76
26667,set_tempo,38,1,0,,,,,,800000,,,,,,
26673,note_on,19,0,7,,,,,,,,5,,,83,0
26674,note_on,1,0,7,,,,,,,,5,,,81,76
26693,note_on,19,0,7,,,,,,,,5,,,81,0
26693,note_on,0,0,7,,,,,,,,5,,,79,80
26705,set_tempo,38,1,0,,,,,,810811,,,,,,
26712,note_on,19,0,7,,,,,,,,5,,,79,0
26713,note_on,1,0,7,,,,,,,,5,,,89,76
26732,note_on,19,0,7,,,,,,,,5,,,89,0
26733,note_on,1,0,7,,,,,,,,5,,,88,82
26743,set_tempo,38,1,0,,,,,,821918,,,,,,
26752,note_on,19,0,7,,,,,,,,5,,,88,0
26753,note_on,1,0,7,,,,,,,,5,,,86,76
26772,note_on,19,0,7,,,,,,,,5,,,86,0
26773,note_on,1,0,7,,,,,,,,5,,,89,80
26781,set_tempo,38,1,0,,,,,,833333,,,,,,
26792,note_on,19,0,7,,,,,,,,5,,,89,0
26792,note_on,0,0,7,,,,,,,,5,,,88,80
26811,note_on,19,0,7,,,,,,,,5,,,88,0
26812,note_on,1,0,7,,,,,,,,5,,,87,70
26820,set_tempo,39,1,0,,,,,,845070,,,,,,
26831,note_on,19,0,7,,,,,,,,5,,,87,0
26832,note_on,1,0,7,,,,,,,,5,,,86,87
26851,note_on,19,0,7,,,,,,,,5,,,86,0
26852,note_on,1,0,7,,,,,,,,5,,,85,70
26858,set_tempo,38,1,0,,,,,,857143,,,,,,
26871,note_on,19,0,7,,,,,,,,5,,,85,0
26880,note_on,9,0,7,,,,,,,,5,,,84,87
26894,note_on,14,0,7,,,,,,,,5,,,84,0
26895,note_on,1,0,7,,,,,,,,5,,,83,74
26896,set_tempo,38,1,0,,,,,,869565,,,,,,
26909,note_on,14,0,7,,,,,,,,5,,,83,0
26910,note_on,1,0,7,,,,,,,,5,,,82,68
26924,note_on,14,0,7,,,,,,,,5,,,82,0
26925,note_on,1,0,7,,,,,,,,5,,,81,82
26934,set_tempo,38,1,0,,,,,,882353,,,,,,
26939,note_on,14,0,7,,,,,,,,5,,,81,0
26940,note_on,1,0,7,,,,,,,,5,,,80,66
26954,note_on,14,0,7,,,,,,,,5,,,80,0
26955,note_on,1,0,7,,,,,,,,5,,,79,74
26969,note_on,14,0,7,,,,,,,,5,,,79,0
26970,note_on,1,0,7,,,,,,,,5,,,78,66
26972,set_tempo,38,1,0,,,,,,895522,,,,,,
26984,note_on,14,0,7,,,,,,,,5,,,78,0
26985,note_on,1,0,7,,,,,,,,5,,,77,70
26999,note_on,0,0,2,,,,,,,,6,,,77,0
26999,note_on,599,0,9,,,,,,,,12,,,71,0
26999,note_on,599,0,1,,,,,,,,3,,,86,0
26999,note_on,599,0,11,,,,,,,,14,,,62,0
26999,note_on,599,0,10,,,,,,,,13,,,65,0
26999,note_on,0,0,4,,,,,,,,7,,,67,0
26999,note_on,5159,0,4,,,,,,,,7,,,55,0
26999,note_on,0,0,3,,,,,,,,0,,,55,0
26999,note_on,599,0,3,,,,,,,,0,,,59,0
26999,note_on,599,0,2,,,,,,,,6,,,74,0
26999,note_on,14,0,7,,,,,,,,5,,,77,0
26999,note_on,2279,0,12,,,,,,,,15,,,43,0
27000,note_on,1,0,7,,,,,,,,5,,,76,80
27010,set_tempo,38,1,0,,,,,,909091,,,,,,
27014,note_on,14,0,7,,,,,,,,5,,,76,0
27015,note_on,1,0,7,,,,,,,,5,,,75,64
27029,note_on,14,0,7,,,,,,,,5,,,75,0
27030,note_on,1,0,7,,,,,,,,5,,,74,78
27044,note_on,14,0,7,,,,,,,,5,,,74,0
27045,note_on,1,0,7,,,,,,,,5,,,73,76
27049,set_tempo,39,1,0,,,,,,923077,,,,,,
27059,note_on,14,0,7,,,,,,,,5,,,73,0
27060,note_on,1,0,7,,,,,,,,5,,,74,74
27074,note_on,14,0,7,,,,,,,,5,,,74,0
27075,note_on,1,0,7,,,,,,,,5,,,75,63
27087,set_tempo,38,1,0,,,,,,937500,,,,,,
27089,note_on,14,0,7,,,,,,,,5,,,75,0
27090,note_on,1,0,7,,,,,,,,5,,,76,80
27104,note_on,14,0,7,,,,,,,,5,,,76,0
27105,note_on,1,0,7,,,,,,,,5,,,77,80
27119,note_on,14,0,7,,,,,,,,5,,,77,0
27120,note_on,1,0,7,,,,,,,,5,,,78,72
27125,set_tempo,38,1,0,,,,,,952381,,,,,,
27139,note_on,19,0,7,,,,,,,,5,,,78,0
27140,note_on,1,0,7,,,,,,,,5,,,79,66
27159,note_on,19,0,7,,,,,,,,5,,,79,0
27160,note_on,1,0,7,,,,,,,,5,,,80,63
27163,set_tempo,38,1,0,,,,,,967742,,,,,,
27179,note_on,19,0,7,,,,,,,,5,,,80,0
27180,note_on,1,0,7,,,,,,,,5,,,81,76
27199,note_on,19,0,7,,,,,,,,5,,,81,0
27200,note_on,1,0,7,,,,,,,,5,,,82,68
27201,set_tempo,38,1,0,,,,,,983607,,,,,,
27219,note_on,19,0,7,,,,,,,,5,,,82,0
27220,note_on,1,0,7,,,,,,,,5,,,83,70
27239,note_on,19,0,7,,,,,,,,5,,,83,0
27240,note_on,1,0,7,,,,,,,,5,,,84,80
27240,set_tempo,39,1,0,,,,,,697674,,,,,,
27299,note_on,59,0,7,,,,,,,,5,,,84,0
27300,note_on,1,0,7,,,,,,,,5,,,84,80
27359,note_on,59,0,7,,,,,,,,5,,,84,0
27360,note_on,1,0,7,,,,,,,,5,,,79,74
27360,note_on,1921,0,8,,,,,,,,5,,,64,68
27390,note_on,30,0,8,,,,,,,,5,,,60,68
27418,note_on,28,0,8,,,,,,,,5,,,64,0
27419,note_on,59,0,7,,,,,,,,5,,,79,0
27420,note_on,2,0,8,,,,,,,,5,,,64,66
27420,note_on,1,0,7,,,,,,,,5,,,79,64
27448,note_on,28,0,8,,,,,,,,5,,,60,0
27450,note_on,2,0,8,,,,,,,,5,,,60,68
27478,note_on,28,0,8,,,,,,,,5,,,64,0
27479,note_on,59,0,7,,,,,,,,5,,,79,0
27480,note_on,1,0,7,,,,,,,,5,,,81,78
27480,note_on,2,0,8,,,,,,,,5,,,65,64
27508,note_on,28,0,8,,,,,,,,5,,,60,0
27510,note_on,2,0,8,,,,,,,,5,,,60,64
27538,note_on,28,0,8,,,,,,,,5,,,65,0
27539,note_on,59,0,7,,,,,,,,5,,,81,0
27540,note_on,1,0,7,,,,,,,,5,,,81,76
27540,note_on,2,0,8,,,,,,,,5,,,65,63
27568,note_on,28,0,8,,,,,,,,5,,,60,0
27570,note_on,2,0,8,,,,,,,,5,,,60,60
27598,note_on,28,0,8,,,,,,,,5,,,65,0
27599,note_on,59,0,7,,,,,,,,5,,,81,0
27600,note_on,2,0,8,,,,,,,,5,,,67,60
27600,note_on,1,0,7,,,,,,,,5,,,76,64
27628,note_on,28,0,8,,,,,,,,5,,,60,0
27630,note_on,2,0,8,,,,,,,,5,,,60,57
27658,note_on,28,0,8,,,,,,,,5,,,67,0
27659,note_on,59,0,7,,,,,,,,5,,,76,0
27660,note_on,1,0,7,,,,,,,,5,,,76,68
27660,note_on,2,0,8,,,,,,,,5,,,67,66
27688,note_on,28,0,8,,,,,,,,5,,,60,0
27690,note_on,2,0,8,,,,,,,,5,,,60,62
27718,note_on,28,0,8,,,,,,,,5,,,67,0
27719,note_on,59,0,7,,,,,,,,5,,,76,0
27720,note_on,2,0,8,,,,,,,,5,,,69,62
27720,note_on,1,0,7,,,,,,,,5,,,77,66
27748,note_on,28,0,8,,,,,,,,5,,,60,0
27750,note_on,2,0,8,,,,,,,,5,,,60,59
27778,note_on,28,0,8,,,,,,,,5,,,69,0
27779,note_on,59,0,7,,,,,,,,5,,,77,0
27780,note_on,1,0,7,,,,,,,,5,,,77,80
27780,note_on,2,0,8,,,,,,,,5,,,69,57
27808,note_on,28,0,8,,,,,,,,5,,,60,0
27810,note_on,2,0,8,,,,,,,,5,,,60,53
27838,note_on,28,0,8,,,,,,,,5,,,69,0
27839,note_on,59,0,7,,,,,,,,5,,,77,0
27840,note_on,2,0,8,,,,,,,,5,,,64,70
27840,note_on,1,0,7,,,,,,,,5,,,79,82
27868,note_on,28,0,8,,,,,,,,5,,,60,0
27869,note_on,29,0,7,,,,,,,,5,,,79,0
27870,note_on,2,0,8,,,,,,,,5,,,60,68
27870,note_on,1,0,7,,,,,,,,5,,,76,80
27898,note_on,28,0,8,,,,,,,,5,,,64,0
27899,note_on,29,0,7,,,,,,,,5,,,76,0
27900,note_on,2,0,8,,,,,,,,5,,,64,64
27900,note_on,1,0,7,,,,,,,,5,,,79,74
27928,note_on,28,0,8,,,,,,,,5,,,60,0
27929,note_on,29,0,7,,,,,,,,5,,,79,0
27930,note_on,1,0,7,,,,,,,,5,,,76,72
27930,note_on,2,0,8,,,,,,,,5,,,60,64
27958,note_on,28,0,8,,,,,,,,5,,,64,0
27959,note_on,29,0,7,,,,,,,,5,,,76,0
27960,note_on,1,0,7,,,,,,,,5,,,81,78
27960,note_on,2,0,8,,,,,,,,5,,,65,72
27988,note_on,28,0,8,,,,,,,,5,,,60,0
27989,note_on,29,0,7,,,,,,,,5,,,81,0
27990,note_on,1,0,7,,,,,,,,5,,,79,70
27990,note_on,2,0,8,,,,,,,,5,,,64,66
28018,note_on,28,0,8,,,,,,,,5,,,65,0
28019,note_on,29,0,7,,,,,,,,5,,,79,0
28020,note_on,2,0,8,,,,,,,,5,,,62,68
28020,note_on,1,0,7,,,,,,,,5,,,77,78
28048,note_on,28,0,8,,,,,,,,5,,,64,0
28049,note_on,29,0,7,,,,,,,,5,,,77,0
28050,note_on,2,0,8,,,,,,,,5,,,60,70
28050,note_on,1,0,7,,,,,,,,5,,,76,85
28078,note_on,28,0,8,,,,,,,,5,,,62,0
28079,note_on,29,0,7,,,,,,,,5,,,76,0
28080,note_on,0,0,8,,,,,,,,5,,,58,78
28080,note_on,2,0,8,,,,,,,,5,,,55,76
28080,note_on,1,0,7,,,,,,,,5,,,73,82
28108,note_on,28,0,8,,,,,,,,5,,,60,0
28109,note_on,1,0,8,,,,,,,,5,,,58,0
28109,note_on,29,0,7,,,,,,,,5,,,73,0
28110,note_on,1,0,7,,,,,,,,5,,,74,82
28110,note_on,1,0,8,,,,,,,,5,,,59,85
28139,note_on,29,0,7,,,,,,,,5,,,74,0
28139,note_on,29,0,8,,,,,,,,5,,,59,0
28140,note_on,1,0,7,,,,,,,,5,,,74,85
28140,note_on,1,0,8,,,,,,,,5,,,59,78
28199,note_on,0,0,8,,,,,,,,5,,,55,0
28199,note_on,59,0,8,,,,,,,,5,,,59,0
28199,note_on,59,0,7,,,,,,,,5,,,74,0
28200,note_on,1,0,7,,,,,,,,5,,,84,82
28259,note_on,59,0,7,,,,,,,,5,,,84,0
28260,note_on,1,0,7,,,,,,,,5,,,84,85
28319,note_on,59,0,7,,,,,,,,5,,,84,0
28320,note_on,1,0,7,,,,,,,,5,,,79,82
28320,note_on,121,0,8,,,,,,,,5,,,64,74
28350,note_on,30,0,8,,,,,,,,5,,,60,68
28378,note_on,28,0,8,,,,,,,,5,,,64,0
28379,note_on,59,0,7,,,,,,,,5,,,79,0
28380,note_on,1,0,7,,,,,,,,5,,,79,78
28380,note_on,2,0,8,,,,,,,,5,,,64,68
28408,note_on,28,0,8,,,,,,,,5,,,60,0
28410,note_on,2,0,8,,,,,,,,5,,,60,68
28438,note_on,28,0,8,,,,,,,,5,,,64,0
28439,note_on,59,0,7,,,,,,,,5,,,79,0
28440,note_on,1,0,7,,,,,,,,5,,,81,78
28440,note_on,2,0,8,,,,,,,,5,,,65,66
28468,note_on,28,0,8,,,,,,,,5,,,60,0
28470,note_on,2,0,8,,,,,,,,5,,,60,66
28498,note_on,28,0,8,,,,,,,,5,,,65,0
28499,note_on,59,0,7,,,,,,,,5,,,81,0
28500,note_on,1,0,7,,,,,,,,5,,,81,82
28500,note_on,2,0,8,,,,,,,,5,,,65,61
28528,note_on,28,0,8,,,,,,,,5,,,60,0
28530,note_on,2,0,8,,,,,,,,5,,,60,59
28558,note_on,28,0,8,,,,,,,,5,,,65,0
28559,note_on,59,0,7,,,,,,,,5,,,81,0
28560,note_on,1,0,7,,,,,,,,5,,,76,82
28560,note_on,2,0,8,,,,,,,,5,,,67,68
28588,note_on,28,0,8,,,,,,,,5,,,60,0
28590,note_on,2,0,8,,,,,,,,5,,,60,61
28618,note_on,28,0,8,,,,,,,,5,,,67,0
28619,note_on,59,0,7,,,,,,,,5,,,76,0
28620,note_on,1,0,7,,,,,,,,5,,,76,80
28620,note_on,2,0,8,,,,,,,,5,,,67,72
28648,note_on,28,0,8,,,,,,,,5,,,60,0
28650,note_on,2,0,8,,,,,,,,5,,,60,58
28678,note_on,28,0,8,,,,,,,,5,,,67,0
28679,note_on,59,0,7,,,,,,,,5,,,76,0
28680,note_on,2,0,8,,,,,,,,5,,,69,61
28680,note_on,1,0,7,,,,,,,,5,,,77,85
28708,note_on,28,0,8,,,,,,,,5,,,60,0
28710,note_on,2,0,8,,,,,,,,5,,,60,60
28738,note_on,28,0,8,,,,,,,,5,,,69,0
28739,note_on,59,0,7,,,,,,,,5,,,77,0
28740,note_on,2,0,8,,,,,,,,5,,,69,68
28740,note_on,1,0,7,,,,,,,,5,,,77,85
28768,note_on,28,0,8,,,,,,,,5,,,60,0
28770,note_on,2,0,8,,,,,,,,5,,,60,58
28798,note_on,28,0,8,,,,,,,,5,,,69,0
28799,note_on,59,0,7,,,,,,,,5,,,77,0
28800,note_on,2,0,8,,,,,,,,5,,,64,63
28800,note_on,1,0,7,,,,,,,,5,,,79,82
28828,note_on,28,0,8,,,,,,,,5,,,60,0
28829,note_on,29,0,7,,,,,,,,5,,,79,0
28830,note_on,1,0,7,,,,,,,,5,,,76,85
28830,note_on,2,0,8,,,,,,,,5,,,60,68
28858,note_on,28,0,8,,,,,,,,5,,,64,0
28859,note_on,29,0,7,,,,,,,,5,,,76,0
28860,note_on,1,0,7,,,,,,,,5,,,81,87
28860,note_on,2,0,8,,,,,,,,5,,,65,74
28888,note_on,28,0,8,,,,,,,,5,,,60,0
28889,note_on,29,0,7,,,,,,,,5,,,81,0
28890,note_on,2,0,8,,,,,,,,5,,,62,68
28890,note_on,1,0,7,,,,,,,,5,,,77,85
28918,note_on,28,0,8,,,,,,,,5,,,65,0
28919,note_on,29,0,7,,,,,,,,5,,,77,0
28920,note_on,2,0,8,,,,,,,,5,,,55,61
28920,note_on,0,0,8,,,,,,,,5,,,60,68
28920,note_on,1,0,7,,,,,,,,5,,,76,85
28948,note_on,28,0,8,,,,,,,,5,,,62,0
28979,note_on,31,0,8,,,,,,,,5,,,60,0
28979,note_on,0,0,8,,,,,,,,5,,,55,0
28979,note_on,59,0,7,,,,,,,,5,,,76,0
28980,note_on,1,0,8,,,,,,,,5,,,55,62
28980,note_on,1,0,7,,,,,,,,5,,,74,82
28980,note_on,0,0,8,,,,,,,,5,,,59,78
29039,note_on,59,0,8,,,,,,,,5,,,59,0
29039,note_on,59,0,7,,,,,,,,5,,,74,0
29039,note_on,0,0,8,,,,,,,,5,,,55,0
29040,note_on,1,0,8,,,,,,,,5,,,60,82
29040,note_on,1,0,7,,,,,,,,5,,,72,82
29099,note_on,59,0,8,,,,,,,,5,,,60,0
29100,note_on,1,0,8,,,,,,,,5,,,48,85
29159,note_on,59,0,8,,,,,,,,5,,,48,0
29159,note_on,119,0,7,,,,,,,,5,,,72,0
29160,note_on,0,0,2,,,,,,,,6,,,84,80
29160,note_on,2161,0,1,,,,,,,,3,,,84,85
29160,note_on,2161,0,2,,,,,,,,6,,,60,82
29160,note_on,2161,0,9,,,,,,,,12,,,84,85
29160,note_on,2161,0,10,,,,,,,,13,,,60,80
29189,note_on,29,0,10,,,,,,,,13,,,60,0
29190,note_on,1,0,10,,,,,,,,13,,,59,70
29219,note_on,59,0,9,,,,,,,,12,,,84,0
29219,note_on,59,0,1,,,,,,,,3,,,84,0
29219,note_on,29,0,10,,,,,,,,13,,,59,0
29220,note_on,1,0,9,,,,,,,,12,,,84,80
29220,note_on,1,0,10,,,,,,,,13,,,60,70
29220,note_on,1,0,1,,,,,,,,3,,,84,80
29249,note_on,29,0,10,,,,,,,,13,,,60,0
29250,note_on,1,0,10,,,,,,,,13,,,62,68
29279,note_on,59,0,1,,,,,,,,3,,,84,0
29279,note_on,59,0,9,,,,,,,,12,,,84,0
29279,note_on,29,0,10,,,,,,,,13,,,62,0
29279,note_on,119,0,2,,,,,,,,6,,,84,0
29279,note_on,0,0,2,,,,,,,,6,,,60,0
29280,note_on,21481,0,6,,,,,,,,4,,,48,80
29280,note_on,21481,0,5,,,,,,,,1,,,60,70
29280,note_on,2281,0,11,,,,,,,,14,,,60,76
29280,note_on,1,0,10,,,,,,,,13,,,64,74
29280,note_on,0,0,5,,,,,,,,1,,,72,66
29280,note_on,1,0,9,,,,,,,,12,,,79,80
29280,note_on,2281,0,12,,,,,,,,15,,,48,78
29280,note_on,1,0,2,,,,,,,,6,,,64,68
29280,note_on,0,0,2,,,,,,,,6,,,79,82
29280,note_on,0,0,4,,,,,,,,7,,,72,66
29280,note_on,2281,0,4,,,,,,,,7,,,60,68
29280,note_on,2281,0,3,,,,,,,,0,,,48,80
29280,note_on,1,0,1,,,,,,,,3,,,79,80
29309,note_on,29,0,10,,,,,,,,13,,,64,0
29310,note_on,1,0,10,,,,,,,,13,,,60,68
29339,note_on,59,0,9,,,,,,,,12,,,79,0
29339,note_on,29,0,10,,,,,,,,13,,,60,0
29339,note_on,59,0,1,,,,,,,,3,,,79,0
29340,note_on,1,0,9,,,,,,,,12,,,79,70
29340,note_on,1,0,10,,,,,,,,13,,,64,60
29340,note_on,1,0,1,,,,,,,,3,,,79,70
29369,note_on,29,0,10,,,,,,,,13,,,64,0
29370,note_on,1,0,10,,,,,,,,13,,,60,63
29399,note_on,29,0,10,,,,,,,,13,,,60,0
29399,note_on,59,0,9,,,,,,,,12,,,79,0
29399,note_on,0,0,2,,,,,,,,6,,,64,0
29399,note_on,119,0,2,,,,,,,,6,,,79,0
29399,note_on,59,0,1,,,,,,,,3,,,79,0
29400,note_on,120,0,12,,,,,,,,15,,,48,0
29400,note_on,120,0,3,,,,,,,,0,,,48,0
29400,note_on,120,0,6,,,,,,,,4,,,48,0
29400,note_on,1,0,2,,,,,,,,6,,,81,85
29400,note_on,1,0,9,,,,,,,,12,,,81,80
29400,note_on,1,0,10,,,,,,,,13,,,65,72
29400,note_on,0,0,2,,,,,,,,6,,,65,70
29400,note_on,120,0,11,,,,,,,,14,,,60,0
29400,note_on,0,0,5,,,,,,,,1,,,60,0
29400,note_on,120,0,5,,,,,,,,1,,,72,0
29400,note_on,1,0,1,,,,,,,,3,,,81,80
29429,note_on,29,0,10,,,,,,,,13,,,65,0
29430,note_on,1,0,10,,,,,,,,13,,,60,64
29459,note_on,29,0,10,,,,,,,,13,,,60,0
29459,note_on,59,0,9,,,,,,,,12,,,81,0
29459,note_on,59,0,1,,,,,,,,3,,,81,0
29460,note_on,1,0,1,,,,,,,,3,,,81,78
29460,note_on,1,0,9,,,,,,,,12,,,81,78
29460,note_on,1,0,10,,,,,,,,13,,,65,68
29489,note_on,29,0,10,,,,,,,,13,,,65,0
29490,note_on,1,0,10,,,,,,,,13,,,60,66
29519,note_on,0,0,4,,,,,,,,7,,,60,0
29519,note_on,59,0,1,,,,,,,,3,,,81,0
29519,note_on,0,0,2,,,,,,,,6,,,81,0
29519,note_on,119,0,2,,,,,,,,6,,,65,0
29519,note_on,59,0,9,,,,,,,,12,,,81,0
29519,note_on,29,0,10,,,,,,,,13,,,60,0
29519,note_on,239,0,4,,,,,,,,7,,,72,0
29520,note_on,0,0,2,,,,,,,,6,,,67,74
29520,note_on,120,0,5,,,,,,,,1,,,72,64
29520,note_on,120,0,12,,,,,,,,15,,,48,74
29520,note_on,1,0,10,,,,,,,,13,,,67,66
29520,note_on,1,0,9,,,,,,,,12,,,76,74
29520,note_on,0,0,4,,,,,,,,7,,,72,78
29520,note_on,1,0,4,,,,,,,,7,,,60,66
29520,note_on,1,0,2,,,,,,,,6,,,76,80
29520,note_on,0,0,5,,,,,,,,1,,,60,59
29520,note_on,120,0,6,,,,,,,,4,,,48,74
29520,note_on,120,0,11,,,,,,,,14,,,60,82
29520,note_on,1,0,1,,,,,,,,3,,,76,74
29520,note_on,120,0,3,,,,,,,,0,,,48,82
29549,note_on,29,0,10,,,,,,,,13,,,67,0
29550,note_on,1,0,10,,,,,,,,13,,,60,64
29579,note_on,59,0,1,,,,,,,,3,,,76,0
29579,note_on,29,0,10,,,,,,,,13,,,60,0
29579,note_on,59,0,9,,,,,,,,12,,,76,0
29580,note_on,1,0,10,,,,,,,,13,,,67,68
29580,note_on,1,0,9,,,,,,,,12,,,76,66
29580,note_on,1,0,1,,,,,,,,3,,,76,66
29609,note_on,29,0,10,,,,,,,,13,,,67,0
29610,note_on,1,0,10,,,,,,,,13,,,60,64
29639,note_on,0,0,2,,,,,,,,6,,,76,0
29639,note_on,119,0,2,,,,,,,,6,,,67,0
29639,note_on,59,0,1,,,,,,,,3,,,76,0
29639,note_on,29,0,10,,,,,,,,13,,,60,0
29639,note_on,59,0,9,,,,,,,,12,,,76,0
29640,note_on,120,0,11,,,,,,,,14,,,60,0
29640,note_on,120,0,6,,,,,,,,4,,,48,0
29640,note_on,1,0,10,,,,,,,,13,,,69,70
29640,note_on,1,0,2,,,,,,,,6,,,69,78
29640,note_on,120,0,12,,,,,,,,15,,,48,0
29640,note_on,1,0,1,,,,,,,,3,,,77,51
29640,note_on,120,0,5,,,,,,,,1,,,60,0
29640,note_on,120,0,3,,,,,,,,0,,,48,0
29640,note_on,0,0,5,,,,,,,,1,,,72,0
29640,note_on,1,0,9,,,,,,,,12,,,77,51
29640,note_on,0,0,2,,,,,,,,6,,,77,85
29669,note_on,29,0,10,,,,,,,,13,,,69,0
29670,note_on,1,0,10,,,,,,,,13,,,60,66
29699,note_on,59,0,9,,,,,,,,12,,,77,0
29699,note_on,59,0,1,,,,,,,,3,,,77,0
29699,note_on,29,0,10,,,,,,,,13,,,60,0
29700,note_on,1,0,9,,,,,,,,12,,,77,74
29700,note_on,1,0,10,,,,,,,,13,,,69,64
29700,note_on,1,0,1,,,,,,,,3,,,77,74
29729,note_on,29,0,10,,,,,,,,13,,,69,0
29730,note_on,1,0,10,,,,,,,,13,,,60,62
29759,note_on,239,0,4,,,,,,,,7,,,72,0
29759,note_on,0,0,4,,,,,,,,7,,,60,0
29759,note_on,119,0,2,,,,,,,,6,,,77,0
29759,note_on,0,0,2,,,,,,,,6,,,69,0
29759,note_on,29,0,10,,,,,,,,13,,,60,0
29759,note_on,59,0,9,,,,,,,,12,,,77,0
29759,note_on,59,0,1,,,,,,,,3,,,77,0
29760,note_on,120,0,6,,,,,,,,4,,,48,72
29760,note_on,1,0,9,,,,,,,,12,,,79,82
29760,note_on,1,0,10,,,,,,,,13,,,64,80
29760,note_on,1,0,4,,,,,,,,7,,,72,68
29760,note_on,120,0,5,,,,,,,,1,,,60,59
29760,note_on,0,0,5,,,,,,,,1,,,72,64
29760,note_on,1,0,1,,,,,,,,3,,,79,82
29760,note_on,0,0,2,,,,,,,,6,,,76,76
29760,note_on,120,0,11,,,,,,,,14,,,60,76
29760,note_on,0,0,4,,,,,,,,7,,,60,58
29760,note_on,120,0,3,,,,,,,,0,,,48,80
29760,note_on,120,0,12,,,,,,,,15,,,48,80
29760,note_on,1,0,2,,,,,,,,6,,,79,74
29789,note_on,29,0,2,,,,,,,,6,,,76,0
29789,note_on,29,0,1,,,,,,,,3,,,79,0
29789,note_on,29,0,10,,,,,,,,13,,,64,0
29789,note_on,29,0,9,,,,,,,,12,,,79,0
29789,note_on,0,0,2,,,,,,,,6,,,79,0
29790,note_on,1,0,10,,,,,,,,13,,,60,66
29790,note_on,1,0,2,,,,,,,,6,,,76,74
29790,note_on,1,0,1,,,,,,,,3,,,76,72
29790,note_on,1,0,9,,,,,,,,12,,,76,72
29790,note_on,0,0,2,,,,,,,,6,,,72,72
29819,note_on,0,0,2,,,,,,,,6,,,76,0
29819,note_on,29,0,1,,,,,,,,3,,,76,0
29819,note_on,29,0,10,,,,,,,,13,,,60,0
29819,note_on,29,0,9,,,,,,,,12,,,76,0
29819,note_on,29,0,2,,,,,,,,6,,,72,0
29820,note_on,1,0,2,,,,,,,,6,,,76,82
29820,note_on,0,0,2,,,,,,,,6,,,79,70
29820,note_on,1,0,1,,,,,,,,3,,,79,70
29820,note_on,1,0,10,,,,,,,,13,,,64,66
29820,note_on,1,0,9,,,,,,,,12,,,79,70
29849,note_on,29,0,9,,,,,,,,12,,,79,0
29849,note_on,0,0,2,,,,,,,,6,,,76,0
29849,note_on,29,0,10,,,,,,,,13,,,64,0
29849,note_on,29,0,1,,,,,,,,3,,,79,0
29849,note_on,29,0,2,,,,,,,,6,,,79,0
29850,note_on,1,0,10,,,,,,,,13,,,60,64
29850,note_on,0,0,2,,,,,,,,6,,,76,74
29850,note_on,1,0,9,,,,,,,,12,,,76,70
29850,note_on,1,0,2,,,,,,,,6,,,72,70
29850,note_on,1,0,1,,,,,,,,3,,,76,70
29879,note_on,119,0,6,,,,,,,,4,,,48,0
29879,note_on,0,0,2,,,,,,,,6,,,72,0
29879,note_on,29,0,2,,,,,,,,6,,,76,0
29879,note_on,119,0,11,,,,,,,,14,,,60,0
29879,note_on,119,0,3,,,,,,,,0,,,48,0
29879,note_on,119,0,12,,,,,,,,15,,,48,0
29879,note_on,119,0,5,,,,,,,,1,,,72,0
29879,note_on,0,0,5,,,,,,,,1,,,60,0
29879,note_on,29,0,9,,,,,,,,12,,,76,0
29879,note_on,29,0,10,,,,,,,,13,,,60,0
29879,note_on,29,0,1,,,,,,,,3,,,76,0
29880,note_on,1,0,9,,,,,,,,12,,,81,82
29880,note_on,1,0,12,,,,,,,,15,,,60,70
29880,note_on,0,0,2,,,,,,,,6,,,77,80
29880,note_on,1,0,10,,,,,,,,13,,,65,72
29880,note_on,0,0,5,,,,,,,,1,,,60,60
29880,note_on,1,0,1,,,,,,,,3,,,81,82
29880,note_on,1,0,6,,,,,,,,4,,,48,70
29880,note_on,1,0,5,,,,,,,,1,,,72,68
29880,note_on,1,0,3,,,,,,,,0,,,60,68
29880,note_on,1,0,11,,,,,,,,14,,,72,78
29880,note_on,1,0,2,,,,,,,,6,,,81,82
29909,note_on,29,0,9,,,,,,,,12,,,81,0
29909,note_on,29,0,1,,,,,,,,3,,,81,0
29909,note_on,29,0,2,,,,,,,,6,,,77,0
29909,note_on,29,0,10,,,,,,,,13,,,65,0
29909,note_on,0,0,2,,,,,,,,6,,,81,0
29910,note_on,1,0,9,,,,,,,,12,,,79,74
29910,note_on,1,0,10,,,,,,,,13,,,64,66
29910,note_on,1,0,2,,,,,,,,6,,,76,70
29910,note_on,1,0,1,,,,,,,,3,,,79,74
29910,note_on,0,0,2,,,,,,,,6,,,79,68
29939,note_on,29,0,1,,,,,,,,3,,,79,0
29939,note_on,179,0,4,,,,,,,,7,,,60,0
29939,note_on,0,0,4,,,,,,,,7,,,72,0
29939,note_on,0,0,2,,,,,,,,6,,,76,0
29939,note_on,29,0,9,,,,,,,,12,,,79,0
29939,note_on,29,0,10,,,,,,,,13,,,64,0
29939,note_on,29,0,2,,,,,,,,6,,,79,0
29940,note_on,0,0,4,,,,,,,,7,,,72,68
29940,note_on,1,0,4,,,,,,,,7,,,60,64
29940,note_on,1,0,2,,,,,,,,6,,,74,70
29940,note_on,1,0,1,,,,,,,,3,,,77,74
29940,note_on,0,0,2,,,,,,,,6,,,77,72
29940,note_on,1,0,10,,,,,,,,13,,,62,66
29940,note_on,1,0,9,,,,,,,,12,,,77,74
29969,note_on,29,0,2,,,,,,,,6,,,77,0
29969,note_on,0,0,2,,,,,,,,6,,,74,0
29969,note_on,29,0,9,,,,,,,,12,,,77,0
29969,note_on,29,0,10,,,,,,,,13,,,62,0
29969,note_on,29,0,1,,,,,,,,3,,,77,0
29970,note_on,0,0,2,,,,,,,,6,,,76,74
29970,note_on,1,0,1,,,,,,,,3,,,76,82
29970,note_on,1,0,9,,,,,,,,12,,,76,82
29970,note_on,1,0,10,,,,,,,,13,,,60,70
29970,note_on,1,0,2,,,,,,,,6,,,72,68
29999,note_on,0,0,5,,,,,,,,1,,,72,0
29999,note_on,29,0,10,,,,,,,,13,,,60,0
29999,note_on,119,0,3,,,,,,,,0,,,60,0
29999,note_on,119,0,11,,,,,,,,14,,,72,0
29999,note_on,29,0,2,,,,,,,,6,,,76,0
29999,note_on,0,0,4,,,,,,,,7,,,60,0
29999,note_on,59,0,4,,,,,,,,7,,,72,0
29999,note_on,0,0,2,,,,,,,,6,,,72,0
29999,note_on,119,0,5,,,,,,,,1,,,60,0
29999,note_on,119,0,6,,,,,,,,4,,,48,0
29999,note_on,119,0,12,,,,,,,,15,,,60,0
29999,note_on,29,0,1,,,,,,,,3,,,76,0
29999,note_on,29,0,9,,,,,,,,12,,,76,0
30000,note_on,1,0,6,,,,,,,,4,,,43,78
30000,note_on,1,0,5,,,,,,,,1,,,67,80
30000,note_on,1,0,10,,,,,,,,13,,,61,70
30000,note_on,1,0,12,,,,,,,,15,,,55,78
30000,note_on,1,0,3,,,,,,,,0,,,55,76
30000,note_on,0,0,2,,,,,,,,6,,,70,68
30000,note_on,1,0,11,,,,,,,,14,,,67,82
30000,note_on,1,0,2,,,,,,,,6,,,73,70
30000,note_on,1,0,9,,,,,,,,12,,,73,68
30000,note_on,1,0,1,,,,,,,,3,,,73,80
30000,note_on,0,0,5,,,,,,,,1,,,55,68
30000,note_on,0,0,4,,,,,,,,7,,,55,82
30000,note_on,1,0,4,,,,,,,,7,,,67,85
30029,note_on,29,0,9,,,,,,,,12,,,73,0
30029,note_on,29,0,1,,,,,,,,3,,,73,0
30029,note_on,29,0,10,,,,,,,,13,,,61,0
30029,note_on,0,0,2,,,,,,,,6,,,73,0
30029,note_on,29,0,2,,,,,,,,6,,,70,0
30030,note_on,1,0,1,,,,,,,,3,,,74,85
30030,note_on,1,0,2,,,,,,,,6,,,71,72
30030,note_on,0,0,2,,,,,,,,6,,,74,68
30030,note_on,1,0,9,,,,,,,,12,,,74,70
30030,note_on,1,0,10,,,,,,,,13,,,62,82
30059,note_on,29,0,9,,,,,,,,12,,,74,0
30059,note_on,29,0,1,,,,,,,,3,,,74,0
30059,note_on,29,0,2,,,,,,,,6,,,74,0
30059,note_on,0,0,2,,,,,,,,6,,,71,0
30059,note_on,29,0,10,,,,,,,,13,,,62,0
30060,note_on,1,0,1,,,,,,,,3,,,74,78
30060,note_on,1,0,10,,,,,,,,13,,,62,70
30060,note_on,1,0,2,,,,,,,,6,,,71,70
30060,note_on,1,0,9,,,,,,,,12,,,74,68
30060,note_on,0,0,2,,,,,,,,6,,,74,68
30119,note_on,0,0,2,,,,,,,,6,,,71,0
30119,note_on,59,0,2,,,,,,,,6,,,74,0
30119,note_on,119,0,6,,,,,,,,4,,,43,0
30119,note_on,119,0,5,,,,,,,,1,,,55,0
30119,note_on,119,0,4,,,,,,,,7,,,55,0
30119,note_on,0,0,4,,,,,,,,7,,,67,0
30119,note_on,59,0,1,,,,,,,,3,,,74,0
30119,note_on,119,0,12,,,,,,,,15,,,55,0
30119,note_on,59,0,10,,,,,,,,13,,,62,0
30119,note_on,59,0,9,,,,,,,,12,,,74,0
30119,note_on,0,0,5,,,,,,,,1,,,67,0
30119,note_on,119,0,11,,,,,,,,14,,,67,0
30119,note_on,119,0,3,,,,,,,,0,,,55,0
30120,note_on,0,0,2,,,,,,,,6,,,60,74
30120,note_on,1,0,9,,,,,,,,12,,,84,70
30120,note_on,1,0,1,,,,,,,,3,,,84,82
30120,note_on,1,0,4,,,,,,,,7,,,72,80
30120,note_on,0,0,4,,,,,,,,7,,,60,76
30120,note_on,1,0,2,,,,,,,,6,,,84,78
30120,note_on,1,0,10,,,,,,,,13,,,60,74
30179,note_on,59,0,1,,,,,,,,3,,,84,0
30179,note_on,59,0,4,,,,,,,,7,,,60,0
30179,note_on,59,0,9,,,,,,,,12,,,84,0
30179,note_on,0,0,4,,,,,,,,7,,,72,0
30179,note_on,59,0,10,,,,,,,,13,,,60,0
30180,note_on,1,0,1,,,,,,,,3,,,84,78
30180,note_on,1,0,9,,,,,,,,12,,,84,70
30180,note_on,1,0,10,,,,,,,,13,,,60,70
30180,note_on,1,0,4,,,,,,,,7,,,60,66
30180,note_on,0,0,4,,,,,,,,7,,,72,66
30209,note_on,0,0,4,,,,,,,,7,,,60,0
30209,note_on,29,0,1,,,,,,,,3,,,84,0
30209,note_on,29,0,9,,,,,,,,12,,,84,0
30209,note_on,29,0,10,,,,,,,,13,,,60,0
30209,note_on,29,0,4,,,,,,,,7,,,72,0
30210,note_on,1,0,10,,,,,,,,13,,,60,66
30210,note_on,0,0,4,,,,,,,,7,,,60,72
30210,note_on,1,0,4,,,,,,,,7,,,72,78
30210,note_on,1,0,1,,,,,,,,3,,,84,82
30210,note_on,1,0,9,,,,,,,,12,,,84,70
30239,note_on,0,0,4,,,,,,,,7,,,72,0
30239,note_on,29,0,9,,,,,,,,12,,,84,0
30239,note_on,29,0,1,,,,,,,,3,,,84,0
30239,note_on,29,0,10,,,,,,,,13,,,60,0
30239,note_on,29,0,4,,,,,,,,7,,,60,0
30239,note_on,119,0,2,,,,,,,,6,,,60,0
30239,note_on,0,0,2,,,,,,,,6,,,84,0
30240,note_on,121,0,3,,,,,,,,0,,,48,78
30240,note_on,1,0,4,,,,,,,,7,,,72,85
30240,note_on,0,0,4,,,,,,,,7,,,60,70
30240,note_on,1,0,2,,,,,,,,6,,,79,70
30240,note_on,0,0,2,,,,,,,,6,,,64,68
30240,note_on,121,0,6,,,,,,,,4,,,48,66
30240,note_on,0,0,5,,,,,,,,1,,,72,60
30240,note_on,1,0,9,,,,,,,,12,,,79,72
30240,note_on,1,0,1,,,,,,,,3,,,79,82
30240,note_on,121,0,11,,,,,,,,14,,,60,78
30240,note_on,121,0,5,,,,,,,,1,,,60,61
30240,note_on,121,0,12,,,,,,,,15,,,48,82
30240,note_on,1,0,10,,,,,,,,13,,,64,80
30299,note_on,59,0,11,,,,,,,,14,,,60,0
30299,note_on,59,0,10,,,,,,,,13,,,64,0
30299,note_on,59,0,9,,,,,,,,12,,,79,0
30299,note_on,59,0,1,,,,,,,,3,,,79,0
30299,note_on,0,0,4,,,,,,,,7,,,72,0
30299,note_on,59,0,4,,,,,,,,7,,,60,0
30299,note_on,59,0,12,,,,,,,,15,,,48,0
30299,note_on,59,0,3,,,,,,,,0,,,48,0
30300,note_on,1,0,11,,,,,,,,14,,,60,78
30300,note_on,1,0,1,,,,,,,,3,,,79,82
30300,note_on,1,0,9,,,,,,,,12,,,79,68
30300,note_on,1,0,3,,,,,,,,0,,,60,66
30300,note_on,1,0,4,,,,,,,,7,,,72,78
30300,note_on,0,0,4,,,,,,,,7,,,60,72
30300,note_on,1,0,12,,,,,,,,15,,,60,80
30300,note_on,1,0,10,,,,,,,,13,,,64,74
30329,note_on,29,0,3,,,,,,,,0,,,60,0
30329,note_on,29,0,12,,,,,,,,15,,,60,0
30329,note_on,29,0,4,,,,,,,,7,,,60,0
30329,note_on,29,0,1,,,,,,,,3,,,79,0
30329,note_on,0,0,4,,,,,,,,7,,,72,0
30329,note_on,29,0,9,,,,,,,,12,,,79,0
30329,note_on,29,0,11,,,,,,,,14,,,60,0
30329,note_on,29,0,10,,,,,,,,13,,,64,0
30330,note_on,1,0,10,,,,,,,,13,,,64,82
30330,note_on,1,0,1,,,,,,,,3,,,79,76
30330,note_on,1,0,11,,,,,,,,14,,,60,66
30330,note_on,1,0,9,,,,,,,,12,,,79,70
30330,note_on,1,0,3,,,,,,,,0,,,60,72
30330,note_on,1,0,4,,,,,,,,7,,,72,78
30330,note_on,0,0,4,,,,,,,,7,,,60,68
30330,note_on,1,0,12,,,,,,,,15,,,60,64
30359,note_on,119,0,5,,,,,,,,1,,,72,0
30359,note_on,119,0,6,,,,,,,,4,,,48,0
30359,note_on,29,0,11,,,,,,,,14,,,60,0
30359,note_on,0,0,4,,,,,,,,7,,,72,0
30359,note_on,0,0,5,,,,,,,,1,,,60,0
30359,note_on,29,0,10,,,,,,,,13,,,64,0
30359,note_on,29,0,3,,,,,,,,0,,,60,0
30359,note_on,119,0,2,,,,,,,,6,,,64,0
30359,note_on,29,0,12,,,,,,,,15,,,60,0
30359,note_on,29,0,4,,,,,,,,7,,,60,0
30359,note_on,29,0,1,,,,,,,,3,,,79,0
30359,note_on,29,0,9,,,,,,,,12,,,79,0
30359,note_on,0,0,2,,,,,,,,6,,,79,0
30360,note_on,0,0,5,,,,,,,,1,,,60,58
30360,note_on,1,0,6,,,,,,,,4,,,48,70
30360,note_on,1,0,3,,,,,,,,0,,,60,72
30360,note_on,0,0,2,,,,,,,,6,,,65,74
30360,note_on,1,0,2,,,,,,,,6,,,81,78
30360,note_on,1,0,10,,,,,,,,13,,,65,74
30360,note_on,1,0,1,,,,,,,,3,,,81,87
30360,note_on,1,0,12,,,,,,,,15,,,60,76
30360,note_on,1,0,4,,,,,,,,7,,,72,78
30360,note_on,1,0,11,,,,,,,,14,,,60,66
30360,note_on,1,0,9,,,,,,,,12,,,81,70
30360,note_on,1,0,5,,,,,,,,1,,,72,72
30360,note_on,0,0,4,,,,,,,,7,,,60,68
30419,note_on,59,0,10,,,,,,,,13,,,65,0
30419,note_on,0,0,4,,,,,,,,7,,,72,0
30419,note_on,59,0,4,,,,,,,,7,,,60,0
30419,note_on,59,0,11,,,,,,,,14,,,60,0
30419,note_on,59,0,9,,,,,,,,12,,,81,0
30419,note_on,59,0,3,,,,,,,,0,,,60,0
30419,note_on,59,0,1,,,,,,,,3,,,81,0
30419,note_on,59,0,12,,,,,,,,15,,,60,0
30420,note_on,1,0,12,,,,,,,,15,,,60,78
30420,note_on,1,0,3,,,,,,,,0,,,60,68
30420,note_on,1,0,10,,,,,,,,13,,,65,78
30420,note_on,1,0,11,,,,,,,,14,,,60,68
30420,note_on,0,0,4,,,,,,,,7,,,72,76
30420,note_on,1,0,9,,,,,,,,12,,,81,74
30420,note_on,1,0,4,,,,,,,,7,,,60,70
30420,note_on,1,0,1,,,,,,,,3,,,81,78
30449,note_on,0,0,4,,,,,,,,7,,,60,0
30449,note_on,29,0,3,,,,,,,,0,,,60,0
30449,note_on,29,0,1,,,,,,,,3,,,81,0
30449,note_on,29,0,9,,,,,,,,12,,,81,0
30449,note_on,29,0,4,,,,,,,,7,,,72,0
30449,note_on,29,0,10,,,,,,,,13,,,65,0
30449,note_on,29,0,11,,,,,,,,14,,,60,0
30449,note_on,29,0,12,,,,,,,,15,,,60,0
30450,note_on,1,0,9,,,,,,,,12,,,81,66
30450,note_on,1,0,4,,,,,,,,7,,,60,66
30450,note_on,1,0,12,,,,,,,,15,,,60,68
30450,note_on,1,0,1,,,,,,,,3,,,81,74
30450,note_on,0,0,4,,,,,,,,7,,,72,74
30450,note_on,1,0,11,,,,,,,,14,,,60,58
30450,note_on,1,0,10,,,,,,,,13,,,65,70
30450,note_on,1,0,3,,,,,,,,0,,,60,64
30479,note_on,119,0,5,,,,,,,,1,,,60,0
30479,note_on,29,0,10,,,,,,,,13,,,65,0
30479,note_on,29,0,12,,,,,,,,15,,,60,0
30479,note_on,0,0,2,,,,,,,,6,,,81,0
30479,note_on,119,0,2,,,,,,,,6,,,65,0
30479,note_on,29,0,3,,,,,,,,0,,,60,0
30479,note_on,29,0,1,,,,,,,,3,,,81,0
30479,note_on,0,0,5,,,,,,,,1,,,72,0
30479,note_on,29,0,9,,,,,,,,12,,,81,0
30479,note_on,29,0,4,,,,,,,,7,,,72,0
30479,note_on,119,0,6,,,,,,,,4,,,48,0
30479,note_on,0,0,4,,,,,,,,7,,,60,0
30479,note_on,29,0,11,,,,,,,,14,,,60,0
30480,note_on,0,0,5,,,,,,,,1,,,60,62
30480,note_on,1,0,4,,,,,,,,7,,,72,78
30480,note_on,1,0,3,,,,,,,,0,,,60,70
30480,note_on,0,0,4,,,,,,,,7,,,60,66
30480,note_on,1,0,5,,,,,,,,1,,,72,68
30480,note_on,1,0,11,,,,,,,,14,,,60,66
30480,note_on,1,0,9,,,,,,,,12,,,76,74
30480,note_on,1,0,1,,,,,,,,3,,,76,82
30480,note_on,1,0,6,,,,,,,,4,,,48,68
30480,note_on,1,0,10,,,,,,,,13,,,67,76
30480,note_on,0,0,2,,,,,,,,6,,,76,70
30480,note_on,1,0,2,,,,,,,,6,,,67,66
30480,note_on,1,0,12,,,,,,,,15,,,60,68
30539,note_on,59,0,9,,,,,,,,12,,,76,0
30539,note_on,59,0,12,,,,,,,,15,,,60,0
30539,note_on,59,0,3,,,,,,,,0,,,60,0
30539,note_on,59,0,10,,,,,,,,13,,,67,0
30539,note_on,59,0,4,,,,,,,,7,,,60,0
30539,note_on,0,0,4,,,,,,,,7,,,72,0
30539,note_on,59,0,1,,,,,,,,3,,,76,0
30539,note_on,59,0,11,,,,,,,,14,,,60,0
30540,note_on,0,0,4,,,,,,,,7,,,72,74
30540,note_on,1,0,10,,,,,,,,13,,,67,80
30540,note_on,1,0,3,,,,,,,,0,,,60,68
30540,note_on,1,0,1,,,,,,,,3,,,76,82
30540,note_on,1,0,12,,,,,,,,15,,,60,72
30540,note_on,1,0,11,,,,,,,,14,,,60,76
30540,note_on,1,0,4,,,,,,,,7,,,60,70
30540,note_on,1,0,9,,,,,,,,12,,,76,85
30569,note_on,29,0,12,,,,,,,,15,,,60,0
30569,note_on,29,0,11,,,,,,,,14,,,60,0
30569,note_on,29,0,10,,,,,,,,13,,,67,0
30569,note_on,29,0,9,,,,,,,,12,,,76,0
30569,note_on,29,0,1,,,,,,,,3,,,76,0
30569,note_on,29,0,3,,,,,,,,0,,,60,0
30569,note_on,29,0,4,,,,,,,,7,,,72,0
30569,note_on,0,0,4,,,,,,,,7,,,60,0
30570,note_on,1,0,1,,,,,,,,3,,,76,68
30570,note_on,1,0,10,,,,,,,,13,,,67,70
30570,note_on,1,0,11,,,,,,,,14,,,60,66
30570,note_on,1,0,12,,,,,,,,15,,,60,64
30570,note_on,0,0,4,,,,,,,,7,,,60,68
30570,note_on,1,0,9,,,,,,,,12,,,76,74
30570,note_on,1,0,3,,,,,,,,0,,,60,58
30570,note_on,1,0,4,,,,,,,,7,,,72,70
30599,note_on,29,0,1,,,,,,,,3,,,76,0
30599,note_on,0,0,5,,,,,,,,1,,,72,0
30599,note_on,0,0,2,,,,,,,,6,,,67,0
30599,note_on,119,0,2,,,,,,,,6,,,76,0
30599,note_on,119,0,5,,,,,,,,1,,,60,0
30599,note_on,29,0,12,,,,,,,,15,,,60,0
30599,note_on,29,0,10,,,,,,,,13,,,67,0
30599,note_on,119,0,6,,,,,,,,4,,,48,0
30599,note_on,0,0,4,,,,,,,,7,,,72,0
30599,note_on,29,0,11,,,,,,,,14,,,60,0
30599,note_on,29,0,9,,,,,,,,12,,,76,0
30599,note_on,29,0,4,,,,,,,,7,,,60,0
30599,note_on,29,0,3,,,,,,,,0,,,60,0
30600,note_on,1,0,10,,,,,,,,13,,,69,72
30600,note_on,0,0,4,,,,,,,,7,,,60,68
30600,note_on,0,0,2,,,,,,,,6,,,69,68
30600,note_on,1,0,11,,,,,,,,14,,,60,72
30600,note_on,1,0,12,,,,,,,,15,,,60,66
30600,note_on,1,0,9,,,,,,,,12,,,77,72
30600,note_on,1,0,2,,,,,,,,6,,,77,82
30600,note_on,1,0,5,,,,,,,,1,,,72,66
30600,note_on,0,0,5,,,,,,,,1,,,60,59
30600,note_on,1,0,4,,,,,,,,7,,,72,80
30600,note_on,1,0,6,,,,,,,,4,,,48,68
30600,note_on,1,0,3,,,,,,,,0,,,60,68
30600,note_on,1,0,1,,,,,,,,3,,,77,76
30659,note_on,59,0,12,,,,,,,,15,,,60,0
30659,note_on,59,0,4,,,,,,,,7,,,60,0
30659,note_on,59,0,9,,,,,,,,12,,,77,0
30659,note_on,0,0,4,,,,,,,,7,,,72,0
30659,note_on,59,0,1,,,,,,,,3,,,77,0
30659,note_on,59,0,3,,,,,,,,0,,,60,0
30659,note_on,59,0,10,,,,,,,,13,,,69,0
30659,note_on,59,0,11,,,,,,,,14,,,60,0
30660,note_on,0,0,4,,,,,,,,7,,,72,64
30660,note_on,1,0,1,,,,,,,,3,,,77,76
30660,note_on,1,0,9,,,,,,,,12,,,77,70
30660,note_on,1,0,10,,,,,,,,13,,,69,82
30660,note_on,1,0,12,,,,,,,,15,,,60,82
30660,note_on,1,0,11,,,,,,,,14,,,60,72
30660,note_on,1,0,3,,,,,,,,0,,,60,66
30660,note_on,1,0,4,,,,,,,,7,,,60,70
30689,note_on,29,0,9,,,,,,,,12,,,77,0
30689,note_on,29,0,10,,,,,,,,13,,,69,0
30689,note_on,29,0,11,,,,,,,,14,,,60,0
30689,note_on,29,0,12,,,,,,,,15,,,60,0
30689,note_on,29,0,3,,,,,,,,0,,,60,0
30689,note_on,29,0,1,,,,,,,,3,,,77,0
30689,note_on,0,0,4,,,,,,,,7,,,60,0
30689,note_on,29,0,4,,,,,,,,7,,,72,0
30690,note_on,1,0,4,,,,,,,,7,,,60,68
30690,note_on,0,0,4,,,,,,,,7,,,72,66
30690,note_on,1,0,11,,,,,,,,14,,,60,72
30690,note_on,1,0,9,,,,,,,,12,,,77,68
30690,note_on,1,0,12,,,,,,,,15,,,60,72
30690,note_on,1,0,3,,,,,,,,0,,,60,60
30690,note_on,1,0,1,,,,,,,,3,,,77,76
30690,note_on,1,0,10,,,,,,,,13,,,69,64
30719,note_on,29,0,3,,,,,,,,0,,,60,0
30719,note_on,29,0,11,,,,,,,,14,,,60,0
30719,note_on,29,0,10,,,,,,,,13,,,69,0
30719,note_on,29,0,12,,,,,,,,15,,,60,0
30719,note_on,29,0,4,,,,,,,,7,,,72,0
30719,note_on,119,0,5,,,,,,,,1,,,60,0
30719,note_on,0,0,4,,,,,,,,7,,,60,0
30719,note_on,119,0,2,,,,,,,,6,,,69,0
30719,note_on,0,0,2,,,,,,,,6,,,77,0
30719,note_on,119,0,6,,,,,,,,4,,,48,0
30719,note_on,29,0,9,,,,,,,,12,,,77,0
30719,note_on,29,0,1,,,,,,,,3,,,77,0
30719,note_on,0,0,5,,,,,,,,1,,,72,0
30720,note_on,1,0,6,,,,,,,,4,,,48,68
30720,note_on,1,0,1,,,,,,,,3,,,79,74
30720,note_on,1,0,9,,,,,,,,12,,,79,66
30720,note_on,1,0,11,,,,,,,,14,,,60,82
30720,note_on,0,0,5,,,,,,,,1,,,72,68
30720,note_on,1,0,3,,,,,,,,0,,,60,78
30720,note_on,1,0,10,,,,,,,,13,,,64,80
30720,note_on,0,0,4,,,,,,,,7,,,72,76
30720,note_on,1,0,12,,,,,,,,15,,,60,74
30720,note_on,1,0,4,,,,,,,,7,,,60,74
30720,note_on,1,0,2,,,,,,,,6,,,79,70
30720,note_on,0,0,2,,,,,,,,6,,,76,72
30720,note_on,1,0,5,,,,,,,,1,,,60,66
30749,note_on,29,0,10,,,,,,,,13,,,64,0
30749,note_on,29,0,2,,,,,,,,6,,,76,0
30749,note_on,29,0,9,,,,,,,,12,,,79,0
30749,note_on,0,0,2,,,,,,,,6,,,79,0
30750,note_on,0,0,2,,,,,,,,6,,,76,76
30750,note_on,1,0,10,,,,,,,,13,,,67,85
30750,note_on,1,0,9,,,,,,,,12,,,76,72
30750,note_on,1,0,2,,,,,,,,6,,,72,64
30779,note_on,29,0,10,,,,,,,,13,,,67,0
30779,note_on,0,0,2,,,,,,,,6,,,72,0
30779,note_on,59,0,12,,,,,,,,15,,,60,0
30779,note_on,29,0,9,,,,,,,,12,,,76,0
30779,note_on,59,0,1,,,,,,,,3,,,79,0
30779,note_on,59,0,3,,,,,,,,0,,,60,0
30779,note_on,59,0,11,,,,,,,,14,,,60,0
30779,note_on,29,0,2,,,,,,,,6,,,76,0
30780,note_on,1,0,9,,,,,,,,12,,,81,68
30780,note_on,1,0,1,,,,,,,,3,,,81,85
30780,note_on,1,0,10,,,,,,,,13,,,65,80
30780,note_on,1,0,12,,,,,,,,15,,,53,80
30780,note_on,1,0,11,,,,,,,,14,,,65,74
30780,note_on,1,0,3,,,,,,,,0,,,53,51
30780,note_on,0,0,2,,,,,,,,6,,,76,66
30780,note_on,1,0,2,,,,,,,,6,,,79,72
30809,note_on,29,0,9,,,,,,,,12,,,81,0
30809,note_on,29,0,2,,,,,,,,6,,,76,0
30809,note_on,0,0,2,,,,,,,,6,,,79,0
30809,note_on,29,0,10,,,,,,,,13,,,65,0
30809,note_on,29,0,1,,,,,,,,3,,,81,0
30810,note_on,1,0,1,,,,,,,,3,,,86,87
30810,note_on,0,0,2,,,,,,,,6,,,74,63
30810,note_on,1,0,2,,,,,,,,6,,,77,78
30810,note_on,1,0,9,,,,,,,,12,,,77,74
30810,note_on,1,0,10,,,,,,,,13,,,62,82
30839,note_on,29,0,1,,,,,,,,3,,,86,0
30839,note_on,29,0,2,,,,,,,,6,,,74,0
30839,note_on,0,0,2,,,,,,,,6,,,77,0
30839,note_on,29,0,9,,,,,,,,12,,,77,0
30839,note_on,119,0,6,,,,,,,,4,,,48,0
30839,note_on,29,0,10,,,,,,,,13,,,62,0
30839,note_on,119,0,4,,,,,,,,7,,,72,0
30839,note_on,59,0,3,,,,,,,,0,,,53,0
30839,note_on,0,0,4,,,,,,,,7,,,60,0
30839,note_on,0,0,5,,,,,,,,1,,,60,0
30839,note_on,119,0,5,,,,,,,,1,,,72,0
30839,note_on,59,0,11,,,,,,,,14,,,65,0
30839,note_on,59,0,12,,,,,,,,15,,,53,0
30840,note_on,0,0,5,,,,,,,,1,,,72,74
30840,note_on,1,0,3,,,,,,,,0,,,55,76
30840,note_on,1,0,5,,,,,,,,1,,,76,76
30840,note_on,1,0,11,,,,,,,,14,,,67,80
30840,note_on,0,0,4,,,,,,,,7,,,72,78
30840,note_on,1,0,4,,,,,,,,7,,,76,82
30840,note_on,1,0,6,,,,,,,,4,,,43,66
30840,note_on,1,0,10,,,,,,,,13,,,60,74
30840,note_on,1,0,12,,,,,,,,15,,,55,80
30840,note_on,1,0,1,,,,,,,,3,,,84,87
30840,note_on,1,0,9,,,,,,,,12,,,76,82
30840,note_on,1,0,2,,,,,,,,6,,,76,72
30840,note_on,0,0,2,,,,,,,,6,,,72,70
30899,note_on,59,0,5,,,,,,,,1,,,72,0
30899,note_on,59,0,9,,,,,,,,12,,,76,0
30899,note_on,0,0,4,,,,,,,,7,,,76,0
30899,note_on,59,0,4,,,,,,,,7,,,72,0
30899,note_on,59,0,2,,,,,,,,6,,,72,0
30899,note_on,59,0,11,,,,,,,,14,,,67,0
30899,note_on,59,0,10,,,,,,,,13,,,60,0
30899,note_on,59,0,12,,,,,,,,15,,,55,0
30899,note_on,59,0,3,,,,,,,,0,,,55,0
30899,note_on,0,0,2,,,,,,,,6,,,76,0
30899,note_on,59,0,6,,,,,,,,4,,,43,0
30899,note_on,59,0,1,,,,,,,,3,,,84,0
30899,note_on,0,0,5,,,,,,,,1,,,76,0
30900,note_on,1,0,11,,,,,,,,14,,,55,78
30900,note_on,1,0,1,,,,,,,,3,,,83,80
30900,note_on,1,0,2,,,,,,,,6,,,71,68
30900,note_on,1,0,9,,,,,,,,12,,,74,76
30900,note_on,1,0,6,,,,,,,,4,,,43,70
30900,note_on,1,0,10,,,,,,,,13,,,59,85
30900,note_on,0,0,2,,,,,,,,6,,,74,72
30900,note_on,1,0,4,,,,,,,,7,,,74,87
30900,note_on,0,0,4,,,,,,,,7,,,67,78
30900,note_on,1,0,12,,,,,,,,15,,,43,85
30900,note_on,1,0,3,,,,,,,,0,,,43,74
30900,note_on,1,0,5,,,,,,,,1,,,67,68
30900,note_on,0,0,5,,,,,,,,1,,,74,78
30959,note_on,59,0,1,,,,,,,,3,,,83,0
30959,note_on,0,0,2,,,,,,,,6,,,71,0
30959,note_on,0,0,4,,,,,,,,7,,,74,0
30959,note_on,59,0,6,,,,,,,,4,,,43,0
30959,note_on,59,0,3,,,,,,,,0,,,43,0
30959,note_on,59,0,9,,,,,,,,12,,,74,0
30959,note_on,59,0,5,,,,,,,,1,,,74,0
30959,note_on,0,0,5,,,,,,,,1,,,67,0
30959,note_on,59,0,10,,,,,,,,13,,,59,0
30959,note_on,59,0,11,,,,,,,,14,,,55,0
30959,note_on,59,0,2,,,,,,,,6,,,74,0
30959,note_on,59,0,12,,,,,,,,15,,,43,0
30959,note_on,59,0,4,,,,,,,,7,,,67,0
30960,note_on,1,0,3,,,,,,,,0,,,48,70
30960,note_on,1,0,1,,,,,,,,3,,,84,78
30960,note_on,1,0,10,,,,,,,,13,,,60,80
30960,note_on,1,0,11,,,,,,,,14,,,60,78
30960,note_on,1,0,9,,,,,,,,12,,,72,80
30960,note_on,1,0,5,,,,,,,,1,,,64,64
30960,note_on,0,0,5,,,,,,,,1,,,72,66
30960,note_on,1,0,4,,,,,,,,7,,,64,72
30960,note_on,0,0,4,,,,,,,,7,,,72,80
30960,note_on,1,0,12,,,,,,,,15,,,48,80
30960,note_on,1,0,2,,,,,,,,6,,,72,72
30960,note_on,1,0,6,,,,,,,,4,,,48,70
31079,note_on,119,0,3,,,,,,,,0,,,48,0
31079,note_on,119,0,12,,,,,,,,15,,,48,0
31079,note_on,119,0,2,,,,,,,,6,,,72,0
31079,note_on,119,0,9,,,,,,,,12,,,72,0
31079,note_on,119,0,6,,,,,,,,4,,,48,0
31079,note_on,119,0,11,,,,,,,,14,,,60,0
31079,note_on,0,0,4,,,,,,,,7,,,64,0
31079,note_on,0,0,5,,,,,,,,1,,,64,0
31079,note_on,119,0,5,,,,,,,,1,,,72,0
31079,note_on,119,0,10,,,,,,,,13,,,60,0
31079,note_on,119,0,4,,,,,,,,7,,,72,0
31079,note_on,119,0,1,,,,,,,,3,,,84,0
31080,note_on,0,0,4,,,,,,,,7,,,72,82
31080,note_on,1,0,4,,,,,,,,7,,,64,85
31080,note_on,1,0,2,,,,,,,,6,,,72,64
31080,note_on,0,0,2,,,,,,,,6,,,67,63
31080,note_on,1,0,1,,,,,,,,3,,,84,82
31110,note_on,0,0,2,,,,,,,,6,,,72,0
31110,note_on,30,0,4,,,,,,,,7,,,72,0
31110,note_on,0,0,4,,,,,,,,7,,,64,0
31110,note_on,30,0,1,,,,,,,,3,,,84,0
31110,note_on,30,0,2,,,,,,,,6,,,67,0
31140,note_on,0,0,2,,,,,,,,6,,,72,74
31140,note_on,30,0,2,,,,,,,,6,,,67,63
31140,note_on,30,0,4,,,,,,,,7,,,64,78
31140,note_on,30,0,1,,,,,,,,3,,,84,82
31140,note_on,0,0,4,,,,,,,,7,,,72,80
31170,note_on,30,0,1,,,,,,,,3,,,84,0
31170,note_on,0,0,4,,,,,,,,7,,,64,0
31170,note_on,30,0,4,,,,,,,,7,,,72,0
31170,note_on,30,0,2,,,,,,,,6,,,72,0
31170,note_on,0,0,2,,,,,,,,6,,,67,0
31200,note_on,30,0,1,,,,,,,,3,,,84,80
31200,note_on,0,0,4,,,,,,,,7,,,64,80
31200,note_on,0,0,2,,,,,,,,6,,,67,66
31200,note_on,30,0,2,,,,,,,,6,,,72,80
31200,note_on,30,0,4,,,,,,,,7,,,72,80
31289,note_on,89,0,1,,,,,,,,3,,,84,0
31289,note_on,0,0,2,,,,,,,,6,,,72,0
31289,note_on,89,0,2,,,,,,,,6,,,67,0
31289,note_on,89,0,4,,,,,,,,7,,,64,0
31289,note_on,0,0,4,,,,,,,,7,,,72,0
31290,note_on,0,0,2,,,,,,,,6,,,74,68
31290,note_on,0,0,4,,,,,,,,7,,,74,72
31290,note_on,1,0,4,,,,,,,,7,,,67,74
31290,note_on,1,0,1,,,,,,,,3,,,86,78
31290,note_on,1,0,2,,,,,,,,6,,,71,70
31319,note_on,0,0,4,,,,,,,,7,,,67,0
31319,note_on,29,0,4,,,,,,,,7,,,74,0
31319,note_on,29,0,1,,,,,,,,3,,,86,0
31319,note_on,0,0,2,,,,,,,,6,,,71,0
31319,note_on,29,0,2,,,,,,,,6,,,74,0
31320,note_on,0,0,2,,,,,,,,6,,,76,70
31320,note_on,1,0,2,,,,,,,,6,,,72,66
31320,note_on,0,0,4,,,,,,,,7,,,72,72
31320,note_on,1,0,1,,,,,,,,3,,,88,85
31320,note_on,1,0,4,,,,,,,,7,,,76,82
31379,note_on,59,0,1,,,,,,,,3,,,88,0
31379,note_on,59,0,2,,,,,,,,6,,,76,0
31379,note_on,0,0,2,,,,,,,,6,,,72,0
31379,note_on,59,0,4,,,,,,,,7,,,72,0
31379,note_on,0,0,4,,,,,,,,7,,,76,0
31380,note_on,1,0,2,,,,,,,,6,,,74,72
31380,note_on,0,0,2,,,,,,,,6,,,77,74
31380,note_on,1,0,1,,,,,,,,3,,,89,78
31380,note_on,1,0,4,,,,,,,,7,,,77,74
31380,note_on,0,0,4,,,,,,,,7,,,74,70
31439,note_on,59,0,1,,,,,,,,3,,,89,0
31439,note_on,59,0,2,,,,,,,,6,,,77,0
31439,note_on,0,0,2,,,,,,,,6,,,74,0
31439,note_on,59,0,4,,,,,,,,7,,,74,0
31439,note_on,0,0,4,,,,,,,,7,,,77,0
31440,note_on,1,0,4,,,,,,,,7,,,74,85
31440,note_on,1,0,2,,,,,,,,6,,,74,74
31440,note_on,0,0,2,,,,,,,,6,,,71,68
31440,note_on,0,0,5,,,,,,,,1,,,74,78
31440,note_on,361,0,5,,,,,,,,1,,,67,68
31440,note_on,0,0,4,,,,,,,,7,,,67,82
31440,note_on,361,0,3,,,,,,,,0,,,55,76
31440,note_on,1,0,1,,,,,,,,3,,,86,87
31440,note_on,361,0,6,,,,,,,,4,,,43,70
31470,note_on,30,0,6,,,,,,,,4,,,43,0
31499,note_on,59,0,5,,,,,,,,1,,,74,0
31499,note_on,59,0,1,,,,,,,,3,,,86,0
31499,note_on,59,0,3,,,,,,,,0,,,55,0
31499,note_on,0,0,5,,,,,,,,1,,,67,0
31499,note_on,0,0,4,,,,,,,,7,,,74,0
31499,note_on,59,0,2,,,,,,,,6,,,71,0
31499,note_on,0,0,2,,,,,,,,6,,,74,0
31499,note_on,59,0,4,,,,,,,,7,,,67,0
31500,note_on,1,0,5,,,,,,,,1,,,67,61
31500,note_on,0,0,5,,,,,,,,1,,,74,61
31500,note_on,30,0,6,,,,,,,,4,,,43,70
31500,note_on,1,0,3,,,,,,,,0,,,43,80
31530,note_on,30,0,6,,,,,,,,4,,,43,0
31559,note_on,59,0,5,,,,,,,,1,,,74,0
31559,note_on,0,0,5,,,,,,,,1,,,67,0
31559,note_on,59,0,3,,,,,,,,0,,,43,0
31560,note_on,0,0,4,,,,,,,,7,,,74,85
31560,note_on,0,0,2,,,,,,,,6,,,71,66
31560,note_on,61,0,2,,,,,,,,6,,,74,63
31560,note_on,61,0,1,,,,,,,,3,,,86,87
31560,note_on,61,0,4,,,,,,,,7,,,67,76
31590,note_on,0,0,2,,,,,,,,6,,,74,0
31590,note_on,30,0,4,,,,,,,,7,,,74,0
31590,note_on,30,0,1,,,,,,,,3,,,86,0
31590,note_on,0,0,4,,,,,,,,7,,,67,0
31590,note_on,30,0,2,,,,,,,,6,,,71,0
31620,note_on,0,0,4,,,,,,,,7,,,74,80
31620,note_on,30,0,4,,,,,,,,7,,,67,70
31620,note_on,0,0,2,,,,,,,,6,,,71,66
31620,note_on,30,0,2,,,,,,,,6,,,74,72
31620,note_on,30,0,1,,,,,,,,3,,,86,87
31650,note_on,30,0,2,,,,,,,,6,,,71,0
31650,note_on,0,0,2,,,,,,,,6,,,74,0
31650,note_on,30,0,4,,,,,,,,7,,,74,0
31650,note_on,0,0,4,,,,,,,,7,,,67,0
31650,note_on,30,0,1,,,,,,,,3,,,86,0
31680,note_on,30,0,2,,,,,,,,6,,,71,70
31680,note_on,0,0,2,,,,,,,,6,,,74,74
31680,note_on,0,0,4,,,,,,,,7,,,67,68
31680,note_on,30,0,4,,,,,,,,7,,,74,85
31680,note_on,30,0,1,,,,,,,,3,,,86,80
31769,note_on,89,0,4,,,,,,,,7,,,67,0
31769,note_on,89,0,1,,,,,,,,3,,,86,0
31769,note_on,0,0,2,,,,,,,,6,,,71,0
31769,note_on,89,0,2,,,,,,,,6,,,74,0
31769,note_on,0,0,4,,,,,,,,7,,,74,0
31770,note_on,1,0,1,,,,,,,,3,,,88,80
31770,note_on,0,0,2,,,,,,,,6,,,76,76
31770,note_on,0,0,4,,,,,,,,7,,,72,72
31770,note_on,1,0,4,,,,,,,,7,,,76,80
31770,note_on,1,0,2,,,,,,,,6,,,72,72
31799,note_on,29,0,2,,,,,,,,6,,,76,0
31799,note_on,29,0,1,,,,,,,,3,,,88,0
31799,note_on,0,0,4,,,,,,,,7,,,76,0
31799,note_on,29,0,4,,,,,,,,7,,,72,0
31799,note_on,0,0,2,,,,,,,,6,,,72,0
31800,note_on,1,0,1,,,,,,,,3,,,89,82
31800,note_on,0,0,4,,,,,,,,7,,,74,76
31800,note_on,1,0,4,,,,,,,,7,,,77,78
31800,note_on,1,0,2,,,,,,,,6,,,74,70
31800,note_on,0,0,2,,,,,,,,6,,,77,68
31859,note_on,0,0,2,,,,,,,,6,,,74,0
31859,note_on,59,0,2,,,,,,,,6,,,77,0
31859,note_on,59,0,4,,,,,,,,7,,,74,0
31859,note_on,0,0,4,,,,,,,,7,,,77,0
31859,note_on,59,0,1,,,,,,,,3,,,89,0
31860,note_on,0,0,2,,,,,,,,6,,,71,66
31860,note_on,1,0,1,,,,,,,,3,,,91,78
31860,note_on,1,0,2,,,,,,,,6,,,79,74
31860,note_on,1,0,4,,,,,,,,7,,,74,82
31860,note_on,0,0,4,,,,,,,,7,,,67,70
31919,note_on,59,0,1,,,,,,,,3,,,91,0
31919,note_on,59,0,2,,,,,,,,6,,,71,0
31919,note_on,0,0,4,,,,,,,,7,,,74,0
31919,note_on,0,0,2,,,,,,,,6,,,79,0
31919,note_on,59,0,4,,,,,,,,7,,,67,0
31920,note_on,1,0,4,,,,,,,,7,,,76,82
31920,note_on,0,0,4,,,,,,,,7,,,72,80
31920,note_on,0,0,5,,,,,,,,1,,,72,72
31920,note_on,361,0,5,,,,,,,,1,,,76,66
31920,note_on,361,0,3,,,,,,,,0,,,60,72
31920,note_on,390,0,6,,,,,,,,4,,,48,72
31920,note_on,1,0,1,,,,,,,,3,,,88,87
31920,note_on,1,0,2,,,,,,,,6,,,76,70
31920,note_on,0,0,2,,,,,,,,6,,,72,68
31950,note_on,30,0,6,,,,,,,,4,,,48,0
31979,note_on,0,0,5,,,,,,,,1,,,76,0
31979,note_on,59,0,2,,,,,,,,6,,,72,0
31979,note_on,0,0,4,,,,,,,,7,,,76,0
31979,note_on,0,0,2,,,,,,,,6,,,76,0
31979,note_on,59,0,4,,,,,,,,7,,,72,0
31979,note_on,59,0,5,,,,,,,,1,,,72,0
31979,note_on,59,0,3,,,,,,,,0,,,60,0
31979,note_on,59,0,1,,,,,,,,3,,,88,0
31980,note_on,30,0,6,,,,,,,,4,,,48,64
31980,note_on,0,0,5,,,,,,,,1,,,76,68
31980,note_on,1,0,5,,,,,,,,1,,,72,63
31980,note_on,1,0,3,,,,,,,,0,,,48,68
32010,note_on,30,0,6,,,,,,,,4,,,48,0
32039,note_on,59,0,3,,,,,,,,0,,,48,0
32039,note_on,59,0,5,,,,,,,,1,,,76,0
32039,note_on,0,0,5,,,,,,,,1,,,72,0
32040,note_on,961,0,9,,,,,,,,12,,,84,80
32070,note_on,30,0,9,,,,,,,,12,,,84,0
32100,note_on,30,0,9,,,,,,,,12,,,84,72
32159,note_on,59,0,9,,,,,,,,12,,,84,0
32160,note_on,1,0,9,,,,,,,,12,,,79,68
32219,note_on,59,0,9,,,,,,,,12,,,79,0
32220,note_on,1,0,9,,,,,,,,12,,,79,62
32279,note_on,59,0,9,,,,,,,,12,,,79,0
32280,note_on,1,0,9,,,,,,,,12,,,81,80
32339,note_on,59,0,9,,,,,,,,12,,,81,0
32340,note_on,1,0,9,,,,,,,,12,,,81,72
32399,note_on,59,0,9,,,,,,,,12,,,81,0
32400,note_on,0,0,4,,,,,,,,7,,,60,72
32400,note_on,1,0,9,,,,,,,,12,,,76,76
32400,note_on,421,0,4,,,,,,,,7,,,72,80
32400,note_on,1321,0,12,,,,,,,,15,,,57,78
32459,note_on,59,0,9,,,,,,,,12,,,76,0
32460,note_on,1,0,9,,,,,,,,12,,,76,87
32519,note_on,59,0,9,,,,,,,,12,,,76,0
32520,note_on,1441,0,11,,,,,,,,14,,,60,82
32520,note_on,1441,0,10,,,,,,,,13,,,72,76
32520,note_on,1,0,9,,,,,,,,12,,,78,82
32579,note_on,59,0,11,,,,,,,,14,,,60,0
32579,note_on,59,0,10,,,,,,,,13,,,72,0
32579,note_on,59,0,9,,,,,,,,12,,,78,0
32580,note_on,1,0,11,,,,,,,,14,,,60,80
32580,note_on,1,0,9,,,,,,,,12,,,78,68
32580,note_on,1,0,10,,,,,,,,13,,,72,68
32639,note_on,59,0,11,,,,,,,,14,,,60,0
32639,note_on,59,0,9,,,,,,,,12,,,78,0
32639,note_on,239,0,4,,,,,,,,7,,,60,0
32639,note_on,0,0,4,,,,,,,,7,,,72,0
32639,note_on,59,0,10,,,,,,,,13,,,72,0
32639,note_on,239,0,12,,,,,,,,15,,,57,0
32640,note_on,1,0,11,,,,,,,,14,,,60,82
32640,note_on,1,0,10,,,,,,,,13,,,72,82
32640,note_on,1,0,4,,,,,,,,7,,,76,82
32640,note_on,0,0,4,,,,,,,,7,,,72,72
32640,note_on,1,0,9,,,,,,,,12,,,79,85
32640,note_on,1,0,12,,,,,,,,15,,,55,80
32699,note_on,59,0,9,,,,,,,,12,,,79,0
32700,note_on,1,0,9,,,,,,,,12,,,76,82
32700,note_on,60,0,12,,,,,,,,15,,,55,0
32729,note_on,89,0,11,,,,,,,,14,,,60,0
32729,note_on,29,0,9,,,,,,,,12,,,76,0
32730,note_on,1,0,11,,,,,,,,14,,,62,80
32730,note_on,90,0,10,,,,,,,,13,,,74,78
32759,note_on,29,0,10,,,,,,,,13,,,74,0
32759,note_on,29,0,11,,,,,,,,14,,,62,0
32760,note_on,1,0,10,,,,,,,,13,,,76,82
32760,note_on,60,0,12,,,,,,,,15,,,43,85
32760,note_on,31,0,9,,,,,,,,12,,,79,82
32760,note_on,1,0,11,,,,,,,,14,,,64,78
32789,note_on,29,0,11,,,,,,,,14,,,64,0
32789,note_on,29,0,10,,,,,,,,13,,,76,0
32790,note_on,1,0,10,,,,,,,,13,,,77,82
32790,note_on,1,0,11,,,,,,,,14,,,65,64
32819,note_on,59,0,9,,,,,,,,12,,,79,0
32819,note_on,0,0,10,,,,,,,,13,,,72,0
32819,note_on,179,0,4,,,,,,,,7,,,72,0
32819,note_on,0,0,4,,,,,,,,7,,,76,0
32819,note_on,29,0,10,,,,,,,,13,,,77,0
32819,note_on,29,0,11,,,,,,,,14,,,65,0
32820,note_on,1,0,11,,,,,,,,14,,,62,78
32820,note_on,0,0,4,,,,,,,,7,,,74,76
32820,note_on,60,0,12,,,,,,,,15,,,43,0
32820,note_on,1,0,10,,,,,,,,13,,,74,85
32820,note_on,1,0,9,,,,,,,,12,,,71,82
32820,note_on,1,0,4,,,,,,,,7,,,67,68
32849,note_on,29,0,11,,,,,,,,14,,,62,0
32849,note_on,29,0,10,,,,,,,,13,,,74,0
32849,note_on,29,0,9,,,,,,,,12,,,71,0
32850,note_on,1,0,10,,,,,,,,13,,,76,85
32850,note_on,1,0,11,,,,,,,,14,,,64,85
32879,note_on,0,0,4,,,,,,,,7,,,67,0
32879,note_on,59,0,4,,,,,,,,7,,,74,0
32879,note_on,29,0,10,,,,,,,,13,,,76,0
32879,note_on,29,0,11,,,,,,,,14,,,64,0
32880,note_on,1,0,4,,,,,,,,7,,,72,76
32880,note_on,0,0,4,,,,,,,,7,,,64,82
32880,note_on,60,0,12,,,,,,,,15,,,48,80
32880,note_on,31,0,9,,,,,,,,12,,,72,85
32880,note_on,1,0,11,,,,,,,,14,,,60,64
32880,note_on,1,0,10,,,,,,,,13,,,72,80
32940,note_on,60,0,12,,,,,,,,15,,,48,0
32999,note_on,119,0,11,,,,,,,,14,,,60,0
32999,note_on,119,0,9,,,,,,,,12,,,72,0
32999,note_on,119,0,10,,,,,,,,13,,,72,0
32999,note_on,119,0,4,,,,,,,,7,,,64,0
32999,note_on,0,0,4,,,,,,,,7,,,72,0
33000,note_on,60,0,12,,,,,,,,15,,,60,82
33059,note_on,59,0,12,,,,,,,,15,,,60,0
33060,note_on,1,0,12,,,,,,,,15,,,60,80
33119,note_on,59,0,12,,,,,,,,15,,,60,0
33120,note_on,1,0,12,,,,,,,,15,,,55,80
33179,note_on,59,0,12,,,,,,,,15,,,55,0
33180,note_on,1,0,12,,,,,,,,15,,,55,85
33239,note_on,59,0,12,,,,,,,,15,,,55,0
33240,note_on,1,0,12,,,,,,,,15,,,57,70
33299,note_on,59,0,12,,,,,,,,15,,,57,0
33300,note_on,1,0,12,,,,,,,,15,,,57,76
33359,note_on,59,0,12,,,,,,,,15,,,57,0
33360,note_on,1,0,12,,,,,,,,15,,,48,82
33419,note_on,59,0,12,,,,,,,,15,,,48,0
33420,note_on,1,0,12,,,,,,,,15,,,48,78
33479,note_on,59,0,12,,,,,,,,15,,,48,0
33480,note_on,481,0,11,,,,,,,,14,,,65,82
33480,note_on,481,0,9,,,,,,,,12,,,69,82
33480,note_on,1,0,12,,,,,,,,15,,,50,82
33480,note_on,481,0,10,,,,,,,,13,,,60,85
33539,note_on,59,0,10,,,,,,,,13,,,60,0
33539,note_on,59,0,12,,,,,,,,15,,,50,0
33539,note_on,59,0,9,,,,,,,,12,,,69,0
33540,note_on,1,0,10,,,,,,,,13,,,60,80
33540,note_on,1,0,12,,,,,,,,15,,,50,72
33540,note_on,1,0,9,,,,,,,,12,,,69,85
33599,note_on,59,0,10,,,,,,,,13,,,60,0
33599,note_on,59,0,12,,,,,,,,15,,,50,0
33599,note_on,119,0,11,,,,,,,,14,,,65,0
33599,note_on,59,0,9,,,,,,,,12,,,69,0
33600,note_on,1,0,9,,,,,,,,12,,,69,82
33600,note_on,1,0,12,,,,,,,,15,,,52,80
33600,note_on,1,0,11,,,,,,,,14,,,64,80
33600,note_on,1,0,10,,,,,,,,13,,,60,82
33600,note_on,601,0,4,,,,,,,,7,,,64,72
33600,note_on,0,0,4,,,,,,,,7,,,76,70
33689,note_on,89,0,10,,,,,,,,13,,,60,0
33689,note_on,89,0,9,,,,,,,,12,,,69,0
33690,note_on,1,0,9,,,,,,,,12,,,71,82
33690,note_on,1,0,10,,,,,,,,13,,,62,85
33719,note_on,29,0,9,,,,,,,,12,,,71,0
33719,note_on,29,0,10,,,,,,,,13,,,62,0
33720,note_on,1,0,10,,,,,,,,13,,,64,82
33720,note_on,1,0,9,,,,,,,,12,,,72,80
33749,note_on,29,0,9,,,,,,,,12,,,72,0
33749,note_on,29,0,10,,,,,,,,13,,,64,0
33750,note_on,1,0,9,,,,,,,,12,,,74,70
33750,note_on,1,0,10,,,,,,,,13,,,65,82
33779,note_on,179,0,11,,,,,,,,14,,,64,0
33779,note_on,29,0,9,,,,,,,,12,,,74,0
33779,note_on,29,0,10,,,,,,,,13,,,65,0
33780,note_on,1,0,10,,,,,,,,13,,,62,87
33780,note_on,1,0,11,,,,,,,,14,,,56,78
33780,note_on,1,0,9,,,,,,,,12,,,71,82
33809,note_on,29,0,10,,,,,,,,13,,,62,0
33809,note_on,29,0,9,,,,,,,,12,,,71,0
33810,note_on,1,0,10,,,,,,,,13,,,64,82
33810,note_on,1,0,9,,,,,,,,12,,,72,80
33839,note_on,59,0,11,,,,,,,,14,,,56,0
33839,note_on,239,0,12,,,,,,,,15,,,52,0
33839,note_on,239,0,4,,,,,,,,7,,,76,0
33839,note_on,0,0,4,,,,,,,,7,,,64,0
33839,note_on,29,0,10,,,,,,,,13,,,64,0
33839,note_on,29,0,9,,,,,,,,12,,,72,0
33840,note_on,1,0,10,,,,,,,,13,,,60,82
33840,note_on,1,0,9,,,,,,,,12,,,69,85
33840,note_on,1,0,12,,,,,,,,15,,,53,74
33840,note_on,1,0,4,,,,,,,,7,,,60,60
33840,note_on,0,0,4,,,,,,,,7,,,72,46
33840,note_on,1,0,11,,,,,,,,14,,,57,82
33870,note_on,1891,0,2,,,,,,,,6,,,68,64
33870,note_on,1831,0,3,,,,,,,,0,,,56,70
33899,note_on,29,0,3,,,,,,,,0,,,56,0
33899,note_on,29,0,2,,,,,,,,6,,,68,0
33900,note_on,1,0,2,,,,,,,,6,,,69,74
33900,note_on,1,0,3,,,,,,,,0,,,57,78
33929,note_on,29,0,2,,,,,,,,6,,,69,0
33929,note_on,29,0,3,,,,,,,,0,,,57,0
33930,note_on,1,0,2,,,,,,,,6,,,71,64
33930,note_on,1,0,3,,,,,,,,0,,,59,66
33959,note_on,29,0,2,,,,,,,,6,,,71,0
33959,note_on,29,0,3,,,,,,,,0,,,59,0
33959,note_on,119,0,11,,,,,,,,14,,,57,0
33959,note_on,119,0,9,,,,,,,,12,,,69,0
33960,note_on,1,0,3,,,,,,,,0,,,60,62
33960,note_on,1,0,11,,,,,,,,14,,,60,80
33960,note_on,1,0,2,,,,,,,,6,,,72,70
33960,note_on,1,0,9,,,,,,,,12,,,69,80
33989,note_on,29,0,3,,,,,,,,0,,,60,0
33989,note_on,29,0,2,,,,,,,,6,,,72,0
33990,note_on,1,0,3,,,,,,,,0,,,61,64
33990,note_on,1,0,2,,,,,,,,6,,,73,63
34019,note_on,59,0,11,,,,,,,,14,,,60,0
34019,note_on,179,0,10,,,,,,,,13,,,60,0
34019,note_on,59,0,9,,,,,,,,12,,,69,0
34019,note_on,29,0,2,,,,,,,,6,,,73,0
34019,note_on,29,0,3,,,,,,,,0,,,61,0
34020,note_on,1,0,9,,,,,,,,12,,,69,85
34020,note_on,1,0,2,,,,,,,,6,,,74,72
34020,note_on,1,0,11,,,,,,,,14,,,60,80
34020,note_on,1,0,10,,,,,,,,13,,,57,85
34020,note_on,1,0,3,,,,,,,,0,,,62,61
34049,note_on,29,0,2,,,,,,,,6,,,74,0
34049,note_on,29,0,3,,,,,,,,0,,,62,0
34050,note_on,1,0,2,,,,,,,,6,,,75,68
34050,note_on,1,0,3,,,,,,,,0,,,63,72
34079,note_on,29,0,2,,,,,,,,6,,,75,0
34079,note_on,59,0,10,,,,,,,,13,,,57,0
34079,note_on,59,0,9,,,,,,,,12,,,69,0
34079,note_on,239,0,12,,,,,,,,15,,,53,0
34079,note_on,29,0,3,,,,,,,,0,,,63,0
34079,note_on,59,0,11,,,,,,,,14,,,60,0
34079,note_on,0,0,4,,,,,,,,7,,,60,0
34079,note_on,239,0,4,,,,,,,,7,,,72,0
34080,note_on,1,0,12,,,,,,,,15,,,52,85
34080,note_on,1,0,9,,,,,,,,12,,,69,74
34080,note_on,1,0,10,,,,,,,,13,,,64,85
34080,note_on,1,0,3,,,,,,,,0,,,64,80
34080,note_on,1,0,11,,,,,,,,14,,,60,76
34080,note_on,0,0,4,,,,,,,,7,,,64,57
34080,note_on,1,0,2,,,,,,,,6,,,76,68
34080,note_on,1,0,4,,,,,,,,7,,,76,82
34169,note_on,89,0,11,,,,,,,,14,,,60,0
34169,note_on,89,0,9,,,,,,,,12,,,69,0
34170,note_on,1,0,11,,,,,,,,14,,,59,80
34170,note_on,1,0,9,,,,,,,,12,,,71,85
34199,note_on,29,0,9,,,,,,,,12,,,71,0
34199,note_on,29,0,11,,,,,,,,14,,,59,0
34200,note_on,1,0,11,,,,,,,,14,,,57,82
34200,note_on,1,0,9,,,,,,,,12,,,72,78
34229,note_on,29,0,9,,,,,,,,12,,,72,0
34230,note_on,1,0,9,,,,,,,,12,,,74,80
34259,note_on,29,0,9,,,,,,,,12,,,74,0
34259,note_on,59,0,11,,,,,,,,14,,,57,0
34260,note_on,1,0,9,,,,,,,,12,,,71,80
34260,note_on,1,0,11,,,,,,,,14,,,56,76
34289,note_on,29,0,9,,,,,,,,12,,,71,0
34290,note_on,1,0,9,,,,,,,,12,,,72,80
34319,note_on,29,0,9,,,,,,,,12,,,72,0
34319,note_on,59,0,11,,,,,,,,14,,,56,0
34319,note_on,239,0,10,,,,,,,,13,,,64,0
34319,note_on,0,0,4,,,,,,,,7,,,76,0
34319,note_on,239,0,3,,,,,,,,0,,,64,0
34319,note_on,239,0,2,,,,,,,,6,,,76,0
34319,note_on,239,0,12,,,,,,,,15,,,52,0
34319,note_on,239,0,4,,,,,,,,7,,,64,0
34320,note_on,1,0,10,,,,,,,,13,,,60,76
34320,note_on,0,0,4,,,,,,,,7,,,60,59
34320,note_on,1,0,11,,,,,,,,14,,,54,70
34320,note_on,1,0,9,,,,,,,,12,,,69,89
34320,note_on,1,0,12,,,,,,,,15,,,51,70
34320,note_on,1,0,4,,,,,,,,7,,,72,60
34350,note_on,2371,0,1,,,,,,,,3,,,84,80
34350,note_on,31,0,3,,,,,,,,0,,,60,72
34350,note_on,31,0,2,,,,,,,,6,,,72,78
34379,note_on,29,0,1,,,,,,,,3,,,84,0
34379,note_on,29,0,3,,,,,,,,0,,,60,0
34379,note_on,29,0,2,,,,,,,,6,,,72,0
34380,note_on,1,0,1,,,,,,,,3,,,83,66
34380,note_on,1,0,3,,,,,,,,0,,,59,76
34380,note_on,1,0,2,,,,,,,,6,,,71,64
34409,note_on,29,0,1,,,,,,,,3,,,83,0
34409,note_on,29,0,3,,,,,,,,0,,,59,0
34409,note_on,29,0,2,,,,,,,,6,,,71,0
34410,note_on,1,0,3,,,,,,,,0,,,57,76
34410,note_on,1,0,2,,,,,,,,6,,,69,76
34410,note_on,1,0,1,,,,,,,,3,,,81,66
34439,note_on,29,0,2,,,,,,,,6,,,69,0
34439,note_on,119,0,9,,,,,,,,12,,,69,0
34439,note_on,29,0,1,,,,,,,,3,,,81,0
34439,note_on,119,0,10,,,,,,,,13,,,60,0
34439,note_on,119,0,11,,,,,,,,14,,,54,0
34439,note_on,29,0,3,,,,,,,,0,,,57,0
34440,note_on,1,0,2,,,,,,,,6,,,68,66
34440,note_on,1,0,10,,,,,,,,13,,,60,78
34440,note_on,1,0,3,,,,,,,,0,,,56,62
34440,note_on,1,0,9,,,,,,,,12,,,69,76
34440,note_on,1,0,11,,,,,,,,14,,,51,82
34440,note_on,1,0,1,,,,,,,,3,,,80,66
34469,note_on,29,0,1,,,,,,,,3,,,80,0
34469,note_on,29,0,3,,,,,,,,0,,,56,0
34469,note_on,29,0,2,,,,,,,,6,,,68,0
34470,note_on,1,0,1,,,,,,,,3,,,79,68
34470,note_on,1,0,3,,,,,,,,0,,,55,70
34470,note_on,1,0,2,,,,,,,,6,,,67,66
34499,note_on,29,0,3,,,,,,,,0,,,55,0
34499,note_on,59,0,9,,,,,,,,12,,,69,0
34499,note_on,29,0,2,,,,,,,,6,,,67,0
34499,note_on,59,0,10,,,,,,,,13,,,60,0
34499,note_on,29,0,1,,,,,,,,3,,,79,0
34500,note_on,1,0,10,,,,,,,,13,,,60,70
34500,note_on,1,0,9,,,,,,,,12,,,69,68
34500,note_on,1,0,3,,,,,,,,0,,,54,66
34500,note_on,1,0,1,,,,,,,,3,,,78,60
34500,note_on,1,0,2,,,,,,,,6,,,66,62
34529,note_on,29,0,1,,,,,,,,3,,,78,0
34529,note_on,29,0,2,,,,,,,,6,,,66,0
34529,note_on,29,0,3,,,,,,,,0,,,54,0
34530,note_on,1,0,2,,,,,,,,6,,,65,68
34530,note_on,1,0,3,,,,,,,,0,,,53,70
34530,note_on,1,0,1,,,,,,,,3,,,77,68
34559,note_on,29,0,2,,,,,,,,6,,,65,0
34559,note_on,29,0,3,,,,,,,,0,,,53,0
34559,note_on,239,0,12,,,,,,,,15,,,51,0
34559,note_on,119,0,11,,,,,,,,14,,,51,0
34559,note_on,59,0,9,,,,,,,,12,,,69,0
34559,note_on,0,0,4,,,,,,,,7,,,72,0
34559,note_on,239,0,4,,,,,,,,7,,,60,0
34559,note_on,29,0,1,,,,,,,,3,,,77,0
34559,note_on,59,0,10,,,,,,,,13,,,60,0
34560,note_on,1,0,4,,,,,,,,7,,,64,82
34560,note_on,1,0,10,,,,,,,,13,,,60,82
34560,note_on,1,0,12,,,,,,,,15,,,52,72
34560,note_on,1,0,2,,,,,,,,6,,,64,76
34560,note_on,0,0,4,,,,,,,,7,,,76,82
34560,note_on,1,0,9,,,,,,,,12,,,69,72
34560,note_on,1,0,3,,,,,,,,0,,,52,85
34560,note_on,1,0,1,,,,,,,,3,,,76,82
34560,note_on,1,0,11,,,,,,,,14,,,52,72
34620,note_on,60,0,12,,,,,,,,15,,,52,0
34649,note_on,89,0,10,,,,,,,,13,,,60,0
34649,note_on,89,0,9,,,,,,,,12,,,69,0
34650,note_on,1,0,10,,,,,,,,13,,,62,85
34650,note_on,1,0,9,,,,,,,,12,,,71,78
34679,note_on,29,0,10,,,,,,,,13,,,62,0
34679,note_on,29,0,9,,,,,,,,12,,,71,0
34680,note_on,1,0,9,,,,,,,,12,,,72,70
34680,note_on,60,0,12,,,,,,,,15,,,52,82
34680,note_on,1,0,10,,,,,,,,13,,,64,70
34709,note_on,29,0,9,,,,,,,,12,,,72,0
34710,note_on,1,0,9,,,,,,,,12,,,74,72
34739,note_on,59,0,10,,,,,,,,13,,,64,0
34739,note_on,179,0,2,,,,,,,,6,,,64,0
34739,note_on,179,0,3,,,,,,,,0,,,52,0
34739,note_on,179,0,1,,,,,,,,3,,,76,0
34739,note_on,29,0,9,,,,,,,,12,,,74,0
34740,note_on,1,0,2,,,,,,,,6,,,71,82
34740,note_on,1,0,1,,,,,,,,3,,,80,72
34740,note_on,60,0,12,,,,,,,,15,,,52,0
34740,note_on,0,0,3,,,,,,,,0,,,59,70
34740,note_on,0,0,2,,,,,,,,6,,,74,80
34740,note_on,5581,0,7,,,,,,,,5,,,81,90
34740,note_on,1,0,10,,,,,,,,13,,,68,64
34740,note_on,1,0,9,,,,,,,,12,,,71,68
34740,note_on,1,0,3,,,,,,,,0,,,62,78
34749,note_on,9,0,7,,,,,,,,5,,,81,0
34749,note_on,9,0,10,,,,,,,,13,,,68,0
34750,note_on,1,0,7,,,,,,,,5,,,80,90
34750,note_on,1,0,10,,,,,,,,13,,,69,74
34759,note_on,9,0,7,,,,,,,,5,,,80,0
34759,note_on,9,0,10,,,,,,,,13,,,69,0
34760,note_on,1,0,7,,,,,,,,5,,,81,86
34760,note_on,1,0,10,,,,,,,,13,,,68,70
34769,note_on,29,0,9,,,,,,,,12,,,71,0
34769,note_on,9,0,10,,,,,,,,13,,,68,0
34769,note_on,9,0,7,,,,,,,,5,,,81,0
34770,note_on,1,0,7,,,,,,,,5,,,80,83
34770,note_on,1,0,9,,,,,,,,12,,,72,82
34770,note_on,1,0,10,,,,,,,,13,,,66,66
34779,note_on,9,0,7,,,,,,,,5,,,80,0
34780,note_on,1,0,7,,,,,,,,5,,,78,88
34784,note_on,14,0,10,,,,,,,,13,,,66,0
34785,note_on,1,0,10,,,,,,,,13,,,68,76
34789,note_on,9,0,7,,,,,,,,5,,,78,0
34790,note_on,1,0,7,,,,,,,,5,,,80,91
34799,note_on,9,0,7,,,,,,,,5,,,80,0
34799,note_on,14,0,10,,,,,,,,13,,,68,0
34799,note_on,0,0,3,,,,,,,,0,,,62,0
34799,note_on,59,0,1,,,,,,,,3,,,80,0
34799,note_on,29,0,9,,,,,,,,12,,,72,0
34799,note_on,59,0,2,,,,,,,,6,,,74,0
34799,note_on,0,0,2,,,,,,,,6,,,71,0
34799,note_on,239,0,11,,,,,,,,14,,,52,0
34799,note_on,59,0,3,,,,,,,,0,,,59,0
34800,note_on,60,0,12,,,,,,,,15,,,45,78
34800,note_on,1,0,1,,,,,,,,3,,,81,80
34800,note_on,1,0,2,,,,,,,,6,,,69,80
34800,note_on,0,0,2,,,,,,,,6,,,72,70
34800,note_on,5641,0,8,,,,,,,,5,,,45,80
34800,note_on,1,0,11,,,,,,,,14,,,52,80
34800,note_on,1,0,3,,,,,,,,0,,,60,70
34800,note_on,1,0,10,,,,,,,,13,,,69,82
34800,note_on,0,0,10,,,,,,,,13,,,72,82
34800,note_on,0,0,3,,,,,,,,0,,,57,80
34800,note_on,1,0,9,,,,,,,,12,,,69,80
34800,note_on,1,0,7,,,,,,,,5,,,81,92
34889,note_on,89,0,10,,,,,,,,13,,,72,0
34889,note_on,89,0,7,,,,,,,,5,,,81,0
34890,note_on,1,0,7,,,,,,,,5,,,76,85
34919,note_on,119,0,12,,,,,,,,15,,,45,0
34919,note_on,119,0,9,,,,,,,,12,,,69,0
34919,note_on,0,0,3,,,,,,,,0,,,60,0
34919,note_on,119,0,2,,,,,,,,6,,,72,0
34919,note_on,0,0,2,,,,,,,,6,,,69,0
34919,note_on,30,0,10,,,,,,,,13,,,69,0
34919,note_on,29,0,7,,,,,,,,5,,,76,0
34919,note_on,0,0,4,,,,,,,,7,,,64,0
34919,note_on,119,0,11,,,,,,,,14,,,52,0
34919,note_on,119,0,3,,,,,,,,0,,,57,0
34919,note_on,359,0,4,,,,,,,,7,,,76,0
34919,note_on,119,0,1,,,,,,,,3,,,81,0
34920,note_on,120,0,8,,,,,,,,5,,,45,0
34920,note_on,1,0,7,,,,,,,,5,,,84,85
35009,note_on,89,0,7,,,,,,,,5,,,84,0
35010,note_on,1,0,7,,,,,,,,5,,,81,89
35039,note_on,29,0,7,,,,,,,,5,,,81,0
35040,note_on,0,0,8,,,,,,,,5,,,69,80
35040,note_on,1,0,7,,,,,,,,5,,,88,89
35040,note_on,120,0,8,,,,,,,,5,,,72,70
35160,note_on,120,0,8,,,,,,,,5,,,69,0
35160,note_on,0,0,8,,,,,,,,5,,,72,0
35189,note_on,149,0,7,,,,,,,,5,,,88,0
35190,note_on,1,0,7,,,,,,,,5,,,89,87
35204,note_on,14,0,7,,,,,,,,5,,,89,0
35205,note_on,1,0,7,,,,,,,,5,,,88,89
35219,note_on,14,0,7,,,,,,,,5,,,88,0
35220,note_on,1,0,7,,,,,,,,5,,,86,91
35234,note_on,14,0,7,,,,,,,,5,,,86,0
35235,note_on,1,0,7,,,,,,,,5,,,84,87
35249,note_on,14,0,7,,,,,,,,5,,,84,0
35250,note_on,1,0,7,,,,,,,,5,,,83,85
35264,note_on,14,0,7,,,,,,,,5,,,83,0
35265,note_on,1,0,7,,,,,,,,5,,,81,85
35279,note_on,14,0,7,,,,,,,,5,,,81,0
35280,note_on,0,0,8,,,,,,,,5,,,74,76
35280,note_on,0,0,8,,,,,,,,5,,,77,68
35280,note_on,120,0,8,,,,,,,,5,,,71,68
35280,note_on,1,0,7,,,,,,,,5,,,80,87
35339,note_on,0,0,8,,,,,,,,5,,,71,0
35339,note_on,0,0,8,,,,,,,,5,,,77,0
35339,note_on,59,0,8,,,,,,,,5,,,74,0
35339,note_on,59,0,7,,,,,,,,5,,,80,0
35340,note_on,1,0,7,,,,,,,,5,,,80,82
35340,note_on,0,0,8,,,,,,,,5,,,77,66
35340,note_on,1,0,8,,,,,,,,5,,,71,58
35340,note_on,0,0,8,,,,,,,,5,,,74,72
35399,note_on,59,0,8,,,,,,,,5,,,74,0
35399,note_on,59,0,7,,,,,,,,5,,,80,0
35399,note_on,0,0,8,,,,,,,,5,,,77,0
35399,note_on,0,0,8,,,,,,,,5,,,71,0
35400,note_on,1,0,8,,,,,,,,5,,,77,68
35400,note_on,0,0,8,,,,,,,,5,,,69,62
35400,note_on,0,0,8,,,,,,,,5,,,74,72
35400,note_on,1,0,7,,,,,,,,5,,,81,85
35459,note_on,59,0,7,,,,,,,,5,,,81,0
35459,note_on,59,0,8,,,,,,,,5,,,74,0
35459,note_on,0,0,8,,,,,,,,5,,,69,0
35459,note_on,0,0,8,,,,,,,,5,,,77,0
35460,note_on,1,0,7,,,,,,,,5,,,81,82
35460,note_on,0,0,8,,,,,,,,5,,,77,63
35460,note_on,1,0,8,,,,,,,,5,,,69,60
35460,note_on,0,0,8,,,,,,,,5,,,74,76
35519,note_on,0,0,8,,,,,,,,5,,,69,0
35519,note_on,59,0,8,,,,,,,,5,,,77,0
35519,note_on,59,0,7,,,,,,,,5,,,81,0
35519,note_on,0,0,8,,,,,,,,5,,,74,0
35520,note_on,0,0,8,,,,,,,,5,,,68,78
35520,note_on,1,0,8,,,,,,,,5,,,77,66
35520,note_on,0,0,8,,,,,,,,5,,,74,87
35520,note_on,1,0,7,,,,,,,,5,,,83,87
35639,note_on,119,0,7,,,,,,,,5,,,83,0
35639,note_on,0,0,8,,,,,,,,5,,,77,0
35639,note_on,0,0,8,,,,,,,,5,,,68,0
35639,note_on,119,0,8,,,,,,,,5,,,74,0
35670,note_on,31,0,7,,,,,,,,5,,,77,82
35699,note_on,29,0,7,,,,,,,,5,,,77,0
35700,note_on,1,0,7,,,,,,,,5,,,76,82
35729,note_on,29,0,7,,,,,,,,5,,,76,0
35730,note_on,1,0,7,,,,,,,,5,,,74,85
35759,note_on,29,0,7,,,,,,,,5,,,74,0
35760,note_on,1,0,7,,,,,,,,5,,,72,74
35789,note_on,29,0,7,,,,,,,,5,,,72,0
35790,note_on,1,0,7,,,,,,,,5,,,87,78
35819,note_on,29,0,7,,,,,,,,5,,,87,0
35820,note_on,181,0,8,,,,,,,,5,,,69,74
35820,note_on,0,0,8,,,,,,,,5,,,72,72
35820,note_on,1,0,7,,,,,,,,5,,,88,85
35879,note_on,59,0,8,,,,,,,,5,,,72,0
35879,note_on,0,0,8,,,,,,,,5,,,69,0
35880,note_on,0,0,8,,,,,,,,5,,,71,72
35880,note_on,1,0,8,,,,,,,,5,,,68,70
35909,note_on,89,0,7,,,,,,,,5,,,88,0
35910,note_on,1,0,7,,,,,,,,5,,,77,82
35939,note_on,59,0,8,,,,,,,,5,,,71,0
35939,note_on,0,0,8,,,,,,,,5,,,68,0
35939,note_on,29,0,7,,,,,,,,5,,,77,0
35940,note_on,1,0,7,,,,,,,,5,,,76,82
35969,note_on,29,0,7,,,,,,,,5,,,76,0
35970,note_on,1,0,7,,,,,,,,5,,,74,85
35999,note_on,29,0,7,,,,,,,,5,,,74,0
36000,note_on,1,0,7,,,,,,,,5,,,72,87
36029,note_on,29,0,7,,,,,,,,5,,,72,0
36030,note_on,1,0,7,,,,,,,,5,,,87,80
36059,note_on,29,0,7,,,,,,,,5,,,87,0
36060,note_on,0,0,8,,,,,,,,5,,,69,66
36060,note_on,121,0,8,,,,,,,,5,,,72,74
36060,note_on,1,0,7,,,,,,,,5,,,88,87
36119,note_on,59,0,8,,,,,,,,5,,,69,0
36119,note_on,0,0,8,,,,,,,,5,,,72,0
36120,note_on,1,0,8,,,,,,,,5,,,71,68
36120,note_on,0,0,8,,,,,,,,5,,,68,60
36149,note_on,89,0,7,,,,,,,,5,,,88,0
36150,note_on,1,0,7,,,,,,,,5,,,77,82
36179,note_on,0,0,8,,,,,,,,5,,,71,0
36179,note_on,59,0,8,,,,,,,,5,,,68,0
36179,note_on,29,0,7,,,,,,,,5,,,77,0
36180,note_on,1,0,7,,,,,,,,5,,,76,85
36209,note_on,29,0,7,,,,,,,,5,,,76,0
36210,note_on,1,0,7,,,,,,,,5,,,74,78
36239,note_on,29,0,7,,,,,,,,5,,,74,0
36240,note_on,1,0,7,,,,,,,,5,,,72,80
36240,note_on,0,0,8,,,,,,,,5,,,57,68
36240,note_on,61,0,8,,,,,,,,5,,,45,60
36269,note_on,29,0,7,,,,,,,,5,,,72,0
36270,note_on,1,0,7,,,,,,,,5,,,71,82
36299,note_on,29,0,7,,,,,,,,5,,,71,0
36300,note_on,1,0,7,,,,,,,,5,,,69,78
36300,note_on,0,0,7,,,,,,,,5,,,81,95
36329,note_on,29,0,7,,,,,,,,5,,,69,0
36330,note_on,1,0,7,,,,,,,,5,,,71,80
36359,note_on,119,0,8,,,,,,,,5,,,57,0
36359,note_on,0,0,8,,,,,,,,5,,,45,0
36359,note_on,29,0,7,,,,,,,,5,,,71,0
36360,note_on,1,0,7,,,,,,,,5,,,72,82
36360,note_on,1,0,8,,,,,,,,5,,,41,80
36360,note_on,0,0,8,,,,,,,,5,,,53,74
36389,note_on,29,0,7,,,,,,,,5,,,72,0
36390,note_on,1,0,7,,,,,,,,5,,,73,78
36419,note_on,29,0,7,,,,,,,,5,,,73,0
36420,note_on,1,0,7,,,,,,,,5,,,74,82
36449,note_on,29,0,7,,,,,,,,5,,,74,0
36450,note_on,1,0,7,,,,,,,,5,,,75,80
36479,note_on,119,0,8,,,,,,,,5,,,53,0
36479,note_on,29,0,7,,,,,,,,5,,,75,0
36479,note_on,0,0,8,,,,,,,,5,,,41,0
36480,note_on,1,0,8,,,,,,,,5,,,52,70
36480,note_on,0,0,8,,,,,,,,5,,,40,68
36480,note_on,1,0,7,,,,,,,,5,,,76,85
36494,note_on,14,0,7,,,,,,,,5,,,81,0
36495,note_on,1,0,7,,,,,,,,5,,,80,82
36509,note_on,14,0,7,,,,,,,,5,,,80,0
36509,note_on,0,0,7,,,,,,,,5,,,76,0
36510,note_on,1,0,7,,,,,,,,5,,,83,93
36524,note_on,14,0,7,,,,,,,,5,,,83,0
36525,note_on,1,0,7,,,,,,,,5,,,81,82
36539,note_on,59,0,8,,,,,,,,5,,,40,0
36539,note_on,0,0,8,,,,,,,,5,,,52,0
36539,note_on,14,0,7,,,,,,,,5,,,81,0
36540,note_on,1,0,7,,,,,,,,5,,,80,87
36554,note_on,14,0,7,,,,,,,,5,,,80,0
36555,note_on,1,0,7,,,,,,,,5,,,77,80
36569,note_on,14,0,7,,,,,,,,5,,,77,0
36570,note_on,1,0,7,,,,,,,,5,,,76,87
36584,note_on,14,0,7,,,,,,,,5,,,76,0
36585,note_on,1,0,7,,,,,,,,5,,,75,76
36599,note_on,14,0,7,,,,,,,,5,,,75,0
36600,note_on,1,0,7,,,,,,,,5,,,76,82
36614,note_on,14,0,7,,,,,,,,5,,,76,0
36615,note_on,1,0,7,,,,,,,,5,,,75,80
36629,note_on,14,0,7,,,,,,,,5,,,75,0
36630,note_on,1,0,7,,,,,,,,5,,,76,85
36644,note_on,14,0,7,,,,,,,,5,,,76,0
36645,note_on,1,0,7,,,,,,,,5,,,77,85
36659,note_on,14,0,7,,,,,,,,5,,,77,0
36660,note_on,1,0,7,,,,,,,,5,,,76,76
36674,note_on,14,0,7,,,,,,,,5,,,76,0
36675,note_on,1,0,7,,,,,,,,5,,,74,87
36689,note_on,14,0,7,,,,,,,,5,,,74,0
36690,note_on,1,0,7,,,,,,,,5,,,72,78
36704,note_on,14,0,7,,,,,,,,5,,,72,0
36705,note_on,1,0,7,,,,,,,,5,,,71,85
36719,note_on,14,0,7,,,,,,,,5,,,71,0
36720,note_on,0,0,8,,,,,,,,5,,,45,80
36720,note_on,1,0,7,,,,,,,,5,,,69,85
36720,note_on,1801,0,10,,,,,,,,13,,,60,52
36720,note_on,1801,0,9,,,,,,,,12,,,69,57
36720,note_on,181,0,8,,,,,,,,5,,,57,80
36720,note_on,0,0,10,,,,,,,,13,,,64,57
36720,note_on,1801,0,11,,,,,,,,14,,,57,47
36720,note_on,1801,0,12,,,,,,,,15,,,45,57
36729,note_on,9,0,7,,,,,,,,5,,,69,0
36730,note_on,1,0,7,,,,,,,,5,,,72,82
36739,note_on,9,0,7,,,,,,,,5,,,72,0
36740,note_on,1,0,7,,,,,,,,5,,,76,85
36749,note_on,9,0,7,,,,,,,,5,,,76,0
36750,note_on,1,0,7,,,,,,,,5,,,81,70
36780,note_on,0,0,10,,,,,,,,13,,,60,0
36780,note_on,60,0,10,,,,,,,,13,,,64,0
36780,note_on,60,0,11,,,,,,,,14,,,57,0
36780,note_on,60,0,9,,,,,,,,12,,,69,0
36780,note_on,60,0,12,,,,,,,,15,,,45,0
36839,note_on,89,0,7,,,,,,,,5,,,81,0
36839,note_on,119,0,8,,,,,,,,5,,,45,0
36839,note_on,0,0,8,,,,,,,,5,,,57,0
36840,note_on,60,0,10,,,,,,,,13,,,64,52
36840,note_on,0,0,10,,,,,,,,13,,,60,43
36840,note_on,60,0,12,,,,,,,,15,,,57,45
36840,note_on,60,0,11,,,,,,,,14,,,57,25
36840,note_on,0,0,8,,,,,,,,5,,,45,47
36840,note_on,1,0,7,,,,,,,,5,,,72,72
36840,note_on,60,0,9,,,,,,,,12,,,69,63
36840,note_on,1,0,8,,,,,,,,5,,,57,57
36849,note_on,9,0,7,,,,,,,,5,,,72,0
36850,note_on,1,0,7,,,,,,,,5,,,76,80
36859,note_on,9,0,7,,,,,,,,5,,,76,0
36860,note_on,1,0,7,,,,,,,,5,,,81,82
36869,note_on,9,0,7,,,,,,,,5,,,81,0
36870,note_on,1,0,7,,,,,,,,5,,,84,78
36900,note_on,0,0,10,,,,,,,,13,,,64,0
36900,note_on,60,0,10,,,,,,,,13,,,60,0
36900,note_on,60,0,9,,,,,,,,12,,,69,0
36900,note_on,60,0,12,,,,,,,,15,,,57,0
36900,note_on,60,0,11,,,,,,,,14,,,57,0
36959,note_on,89,0,7,,,,,,,,5,,,84,0
36959,note_on,0,0,8,,,,,,,,5,,,57,0
36959,note_on,119,0,8,,,,,,,,5,,,45,0
36960,note_on,60,0,10,,,,,,,,13,,,64,64
36960,note_on,0,0,8,,,,,,,,5,,,45,62
36960,note_on,60,0,12,,,,,,,,15,,,45,70
36960,note_on,1,0,8,,,,,,,,5,,,57,72
36960,note_on,1,0,7,,,,,,,,5,,,76,80
36960,note_on,0,0,10,,,,,,,,13,,,60,50
36960,note_on,60,0,9,,,,,,,,12,,,69,64
36960,note_on,60,0,11,,,,,,,,14,,,57,45
36969,note_on,9,0,7,,,,,,,,5,,,76,0
36970,note_on,1,0,7,,,,,,,,5,,,81,80
36979,note_on,9,0,7,,,,,,,,5,,,81,0
36980,note_on,1,0,7,,,,,,,,5,,,84,78
36989,note_on,9,0,7,,,,,,,,5,,,84,0
36990,note_on,1,0,7,,,,,,,,5,,,88,82
37079,note_on,119,0,9,,,,,,,,12,,,69,0
37079,note_on,119,0,10,,,,,,,,13,,,60,0
37079,note_on,119,0,8,,,,,,,,5,,,45,0
37079,note_on,119,0,11,,,,,,,,14,,,57,0
37079,note_on,119,0,12,,,,,,,,15,,,45,0
37079,note_on,0,0,10,,,,,,,,13,,,64,0
37079,note_on,0,0,8,,,,,,,,5,,,57,0
37109,note_on,119,0,7,,,,,,,,5,,,88,0
37110,note_on,1,0,7,,,,,,,,5,,,89,80
37124,note_on,14,0,7,,,,,,,,5,,,89,0
37125,note_on,1,0,7,,,,,,,,5,,,88,76
37139,note_on,14,0,7,,,,,,,,5,,,88,0
37140,note_on,1,0,7,,,,,,,,5,,,86,87
37154,note_on,14,0,7,,,,,,,,5,,,86,0
37155,note_on,1,0,7,,,,,,,,5,,,84,80
37169,note_on,14,0,7,,,,,,,,5,,,84,0
37170,note_on,1,0,7,,,,,,,,5,,,83,82
37184,note_on,14,0,7,,,,,,,,5,,,83,0
37185,note_on,1,0,7,,,,,,,,5,,,81,80
37199,note_on,14,0,7,,,,,,,,5,,,81,0
37200,note_on,1,0,7,,,,,,,,5,,,80,70
37200,note_on,121,0,8,,,,,,,,5,,,77,64
37200,note_on,0,0,8,,,,,,,,5,,,71,59
37200,note_on,0,0,8,,,,,,,,5,,,74,68
37259,note_on,59,0,7,,,,,,,,5,,,80,0
37259,note_on,59,0,8,,,,,,,,5,,,74,0
37259,note_on,0,0,8,,,,,,,,5,,,71,0
37259,note_on,0,0,8,,,,,,,,5,,,77,0
37260,note_on,1,0,8,,,,,,,,5,,,71,52
37260,note_on,0,0,8,,,,,,,,5,,,77,57
37260,note_on,0,0,8,,,,,,,,5,,,74,56
37260,note_on,1,0,7,,,,,,,,5,,,80,64
37319,note_on,59,0,7,,,,,,,,5,,,80,0
37319,note_on,59,0,8,,,,,,,,5,,,74,0
37319,note_on,0,0,8,,,,,,,,5,,,71,0
37319,note_on,0,0,8,,,,,,,,5,,,77,0
37320,note_on,1,0,7,,,,,,,,5,,,81,70
37320,note_on,0,0,8,,,,,,,,5,,,74,72
37320,note_on,0,0,8,,,,,,,,5,,,77,66
37320,note_on,1,0,8,,,,,,,,5,,,69,66
37379,note_on,59,0,7,,,,,,,,5,,,81,0
37379,note_on,0,0,8,,,,,,,,5,,,69,0
37379,note_on,0,0,8,,,,,,,,5,,,77,0
37379,note_on,59,0,8,,,,,,,,5,,,74,0
37380,note_on,1,0,7,,,,,,,,5,,,81,80
37380,note_on,0,0,8,,,,,,,,5,,,74,74
37380,note_on,1,0,8,,,,,,,,5,,,77,66
37380,note_on,0,0,8,,,,,,,,5,,,69,62
37439,note_on,59,0,7,,,,,,,,5,,,81,0
37439,note_on,59,0,8,,,,,,,,5,,,74,0
37439,note_on,0,0,8,,,,,,,,5,,,69,0
37439,note_on,0,0,8,,,,,,,,5,,,77,0
37440,note_on,0,0,8,,,,,,,,5,,,74,76
37440,note_on,1,0,8,,,,,,,,5,,,77,70
37440,note_on,1,0,7,,,,,,,,5,,,83,80
37440,note_on,0,0,8,,,,,,,,5,,,68,62
37559,note_on,0,0,8,,,,,,,,5,,,68,0
37559,note_on,0,0,8,,,,,,,,5,,,77,0
37559,note_on,119,0,7,,,,,,,,5,,,83,0
37559,note_on,119,0,8,,,,,,,,5,,,74,0
37590,note_on,31,0,7,,,,,,,,5,,,77,82
37619,note_on,29,0,7,,,,,,,,5,,,77,0
37620,note_on,1,0,7,,,,,,,,5,,,76,82
37649,note_on,29,0,7,,,,,,,,5,,,76,0
37650,note_on,1,0,7,,,,,,,,5,,,74,70
37679,note_on,29,0,7,,,,,,,,5,,,74,0
37680,note_on,1,0,7,,,,,,,,5,,,72,78
37709,note_on,29,0,7,,,,,,,,5,,,72,0
37710,note_on,1,0,7,,,,,,,,5,,,87,72
37739,note_on,29,0,7,,,,,,,,5,,,87,0
37740,note_on,661,0,9,,,,,,,,12,,,72,53
37740,note_on,1,0,7,,,,,,,,5,,,88,87
37740,note_on,661,0,11,,,,,,,,14,,,64,43
37740,note_on,661,0,12,,,,,,,,15,,,57,63
37740,note_on,181,0,8,,,,,,,,5,,,57,64
37740,note_on,661,0,10,,,,,,,,13,,,69,52
37740,note_on,0,0,8,,,,,,,,5,,,60,68
37799,note_on,59,0,12,,,,,,,,15,,,57,0
37799,note_on,59,0,10,,,,,,,,13,,,69,0
37799,note_on,59,0,9,,,,,,,,12,,,72,0
37799,note_on,59,0,11,,,,,,,,14,,,64,0
37799,note_on,59,0,8,,,,,,,,5,,,60,0
37799,note_on,0,0,8,,,,,,,,5,,,57,0
37800,note_on,1,0,10,,,,,,,,13,,,71,50
37800,note_on,1,0,9,,,,,,,,12,,,74,68
37800,note_on,1,0,12,,,,,,,,15,,,56,57
37800,note_on,0,0,8,,,,,,,,5,,,56,58
37800,note_on,1,0,11,,,,,,,,14,,,64,44
37800,note_on,1,0,8,,,,,,,,5,,,59,66
37829,note_on,89,0,7,,,,,,,,5,,,88,0
37830,note_on,1,0,7,,,,,,,,5,,,77,72
37859,note_on,59,0,12,,,,,,,,15,,,56,0
37859,note_on,29,0,7,,,,,,,,5,,,77,0
37859,note_on,59,0,11,,,,,,,,14,,,64,0
37859,note_on,59,0,9,,,,,,,,12,,,74,0
37859,note_on,59,0,8,,,,,,,,5,,,56,0
37859,note_on,59,0,10,,,,,,,,13,,,71,0
37859,note_on,0,0,8,,,,,,,,5,,,59,0
37860,note_on,1,0,7,,,,,,,,5,,,76,74
37889,note_on,29,0,7,,,,,,,,5,,,76,0
37890,note_on,1,0,7,,,,,,,,5,,,74,80
37919,note_on,29,0,7,,,,,,,,5,,,74,0
37920,note_on,1,0,7,,,,,,,,5,,,72,72
37949,note_on,29,0,7,,,,,,,,5,,,72,0
37950,note_on,1,0,7,,,,,,,,5,,,87,66
37979,note_on,29,0,7,,,,,,,,5,,,87,0
37980,note_on,121,0,11,,,,,,,,14,,,52,41
37980,note_on,1,0,7,,,,,,,,5,,,88,85
37980,note_on,0,0,8,,,,,,,,5,,,60,74
37980,note_on,121,0,10,,,,,,,,13,,,57,53
37980,note_on,121,0,9,,,,,,,,12,,,60,57
37980,note_on,121,0,12,,,,,,,,15,,,45,62
37980,note_on,121,0,8,,,,,,,,5,,,57,66
38039,note_on,59,0,9,,,,,,,,12,,,60,0
38039,note_on,59,0,12,,,,,,,,15,,,45,0
38039,note_on,59,0,10,,,,,,,,13,,,57,0
38039,note_on,59,0,11,,,,,,,,14,,,52,0
38039,note_on,59,0,8,,,,,,,,5,,,60,0
38039,note_on,0,0,8,,,,,,,,5,,,57,0
38040,note_on,1,0,9,,,,,,,,12,,,62,60
38040,note_on,1,0,12,,,,,,,,15,,,44,58
38040,note_on,1,0,10,,,,,,,,13,,,59,56
38040,note_on,1,0,11,,,,,,,,14,,,52,38
38040,note_on,0,0,8,,,,,,,,5,,,56,60
38040,note_on,1,0,8,,,,,,,,5,,,59,66
38069,note_on,89,0,7,,,,,,,,5,,,88,0
38070,note_on,1,0,7,,,,,,,,5,,,77,80
38099,note_on,59,0,9,,,,,,,,12,,,62,0
38099,note_on,29,0,7,,,,,,,,5,,,77,0
38099,note_on,59,0,10,,,,,,,,13,,,59,0
38099,note_on,59,0,12,,,,,,,,15,,,44,0
38099,note_on,59,0,11,,,,,,,,14,,,52,0
38099,note_on,0,0,8,,,,,,,,5,,,59,0
38099,note_on,59,0,8,,,,,,,,5,,,56,0
38100,note_on,1,0,7,,,,,,,,5,,,76,76
38129,note_on,29,0,7,,,,,,,,5,,,76,0
38130,note_on,1,0,7,,,,,,,,5,,,74,85
38145,note_on,15,0,7,,,,,,,,5,,,74,0
38160,note_on,61,0,9,,,,,,,,12,,,76,59
38160,note_on,61,0,11,,,,,,,,14,,,69,54
38160,note_on,61,0,8,,,,,,,,5,,,57,60
38160,note_on,0,0,8,,,,,,,,5,,,60,72
38160,note_on,15,0,7,,,,,,,,5,,,72,80
38160,note_on,61,0,10,,,,,,,,13,,,72,54
38175,note_on,15,0,7,,,,,,,,5,,,72,0
38190,note_on,15,0,7,,,,,,,,5,,,87,64
38219,note_on,29,0,7,,,,,,,,5,,,87,0
38220,note_on,1,0,7,,,,,,,,5,,,88,82
38249,note_on,29,0,7,,,,,,,,5,,,88,0
38250,note_on,1,0,7,,,,,,,,5,,,72,76
38265,note_on,15,0,7,,,,,,,,5,,,72,0
38279,note_on,119,0,11,,,,,,,,14,,,69,0
38279,note_on,0,0,8,,,,,,,,5,,,57,0
38279,note_on,119,0,10,,,,,,,,13,,,72,0
38279,note_on,119,0,8,,,,,,,,5,,,60,0
38279,note_on,119,0,9,,,,,,,,12,,,76,0
38280,note_on,1,0,9,,,,,,,,12,,,74,56
38280,note_on,1,0,10,,,,,,,,13,,,68,53
38280,note_on,1,0,8,,,,,,,,5,,,52,70
38280,note_on,0,0,8,,,,,,,,5,,,56,60
38280,note_on,15,0,7,,,,,,,,5,,,71,80
38280,note_on,1,0,11,,,,,,,,14,,,64,59
38295,note_on,15,0,7,,,,,,,,5,,,71,0
38310,note_on,15,0,7,,,,,,,,5,,,85,78
38339,note_on,29,0,7,,,,,,,,5,,,85,0
38340,note_on,1,0,7,,,,,,,,5,,,86,74
38369,note_on,29,0,7,,,,,,,,5,,,86,0
38370,note_on,1,0,7,,,,,,,,5,,,71,80
38385,note_on,15,0,7,,,,,,,,5,,,71,0
38399,note_on,119,0,11,,,,,,,,14,,,64,0
38399,note_on,119,0,10,,,,,,,,13,,,68,0
38399,note_on,119,0,9,,,,,,,,12,,,74,0
38399,note_on,119,0,8,,,,,,,,5,,,56,0
38399,note_on,0,0,8,,,,,,,,5,,,52,0
38400,note_on,1,0,10,,,,,,,,13,,,69,53
38400,note_on,1,0,8,,,,,,,,5,,,53,60
38400,note_on,1,0,11,,,,,,,,14,,,65,55
38400,note_on,1,0,9,,,,,,,,12,,,72,57
38400,note_on,15,0,7,,,,,,,,5,,,69,76
38400,note_on,0,0,8,,,,,,,,5,,,57,68
38415,note_on,15,0,7,,,,,,,,5,,,69,0
38430,note_on,15,0,7,,,,,,,,5,,,83,74
38459,note_on,29,0,7,,,,,,,,5,,,83,0
38460,note_on,1,0,7,,,,,,,,5,,,84,80
38489,note_on,29,0,7,,,,,,,,5,,,84,0
38490,note_on,1,0,7,,,,,,,,5,,,69,78
38505,note_on,15,0,7,,,,,,,,5,,,69,0
38519,note_on,119,0,9,,,,,,,,12,,,72,0
38519,note_on,0,0,8,,,,,,,,5,,,53,0
38519,note_on,119,0,8,,,,,,,,5,,,57,0
38519,note_on,119,0,10,,,,,,,,13,,,69,0
38519,note_on,119,0,11,,,,,,,,14,,,65,0
38520,note_on,1,0,11,,,,,,,,14,,,62,53
38520,note_on,421,0,12,,,,,,,,15,,,50,62
38520,note_on,1,0,10,,,,,,,,13,,,65,52
38520,note_on,1,0,9,,,,,,,,12,,,70,59
38520,note_on,1,0,8,,,,,,,,5,,,50,72
38520,note_on,0,0,8,,,,,,,,5,,,62,66
38540,note_on,35,0,7,,,,,,,,5,,,65,76
38559,note_on,19,0,7,,,,,,,,5,,,65,0
38560,note_on,1,0,7,,,,,,,,5,,,70,72
38579,note_on,0,0,8,,,,,,,,5,,,50,0
38579,note_on,19,0,7,,,,,,,,5,,,70,0
38579,note_on,59,0,8,,,,,,,,5,,,62,0
38580,note_on,1,0,7,,,,,,,,5,,,74,72
38599,note_on,19,0,7,,,,,,,,5,,,74,0
38600,note_on,1,0,7,,,,,,,,5,,,77,82
38619,note_on,19,0,7,,,,,,,,5,,,77,0
38620,note_on,1,0,7,,,,,,,,5,,,82,66
38639,note_on,119,0,11,,,,,,,,14,,,62,0
38639,note_on,19,0,7,,,,,,,,5,,,82,0
38639,note_on,119,0,12,,,,,,,,15,,,50,0
38639,note_on,119,0,10,,,,,,,,13,,,65,0
38639,note_on,119,0,9,,,,,,,,12,,,70,0
38640,note_on,1,0,9,,,,,,,,12,,,69,64
38640,note_on,1,0,10,,,,,,,,13,,,64,55
38640,note_on,0,0,8,,,,,,,,5,,,52,66
38640,note_on,61,0,8,,,,,,,,5,,,60,76
38640,note_on,1,0,11,,,,,,,,14,,,60,74
38640,note_on,1,0,12,,,,,,,,15,,,52,76
38660,note_on,21,0,7,,,,,,,,5,,,64,80
38679,note_on,19,0,7,,,,,,,,5,,,64,0
38680,note_on,1,0,7,,,,,,,,5,,,69,72
38699,note_on,19,0,7,,,,,,,,5,,,69,0
38700,note_on,0,0,8,,,,,,,,5,,,60,0
38700,note_on,60,0,8,,,,,,,,5,,,52,0
38700,note_on,1,0,7,,,,,,,,5,,,72,72
38719,note_on,19,0,7,,,,,,,,5,,,72,0
38720,note_on,1,0,7,,,,,,,,5,,,76,82
38739,note_on,19,0,7,,,,,,,,5,,,76,0
38740,note_on,1,0,7,,,,,,,,5,,,81,80
38759,note_on,119,0,9,,,,,,,,12,,,69,0
38759,note_on,119,0,11,,,,,,,,14,,,60,0
38759,note_on,19,0,7,,,,,,,,5,,,81,0
38759,note_on,119,0,10,,,,,,,,13,,,64,0
38760,note_on,1,0,9,,,,,,,,12,,,68,56
38760,note_on,60,0,8,,,,,,,,5,,,59,66
38760,note_on,0,0,8,,,,,,,,5,,,52,60
38760,note_on,1,0,11,,,,,,,,14,,,59,62
38760,note_on,1,0,10,,,,,,,,13,,,62,62
38780,note_on,21,0,7,,,,,,,,5,,,62,74
38799,note_on,19,0,7,,,,,,,,5,,,62,0
38800,note_on,1,0,7,,,,,,,,5,,,68,72
38819,note_on,19,0,7,,,,,,,,5,,,68,0
38820,note_on,60,0,8,,,,,,,,5,,,52,0
38820,note_on,0,0,8,,,,,,,,5,,,59,0
38820,note_on,1,0,7,,,,,,,,5,,,71,80
38839,note_on,19,0,7,,,,,,,,5,,,71,0
38840,note_on,1,0,7,,,,,,,,5,,,74,70
38859,note_on,19,0,7,,,,,,,,5,,,74,0
38860,note_on,1,0,7,,,,,,,,5,,,80,74
38879,note_on,119,0,11,,,,,,,,14,,,59,0
38879,note_on,119,0,9,,,,,,,,12,,,68,0
38879,note_on,239,0,12,,,,,,,,15,,,52,0
38879,note_on,19,0,7,,,,,,,,5,,,80,0
38879,note_on,119,0,10,,,,,,,,13,,,62,0
38880,note_on,0,0,8,,,,,,,,5,,,57,70
38880,note_on,1,0,9,,,,,,,,12,,,69,59
38880,note_on,1,0,12,,,,,,,,15,,,45,68
38880,note_on,1,0,7,,,,,,,,5,,,81,78
38880,note_on,1,0,10,,,,,,,,13,,,60,68
38880,note_on,60,0,8,,,,,,,,5,,,45,70
38880,note_on,1,0,11,,,,,,,,14,,,59,68
38940,note_on,60,0,9,,,,,,,,12,,,69,0
38940,note_on,60,0,8,,,,,,,,5,,,57,0
38940,note_on,0,0,8,,,,,,,,5,,,45,0
38940,note_on,60,0,10,,,,,,,,13,,,60,0
38940,note_on,60,0,12,,,,,,,,15,,,45,0
38940,note_on,60,0,11,,,,,,,,14,,,59,0
38999,note_on,119,0,7,,,,,,,,5,,,81,0
39000,note_on,4081,0,4,,,,,,,,7,,,60,68
39000,note_on,4081,0,2,,,,,,,,6,,,84,70
39000,note_on,0,0,2,,,,,,,,6,,,76,54
39000,note_on,60,0,9,,,,,,,,12,,,72,78
39000,note_on,60,0,12,,,,,,,,15,,,57,68
39000,note_on,4081,0,1,,,,,,,,3,,,84,82
39000,note_on,0,0,5,,,,,,,,1,,,72,80
39000,note_on,4081,0,3,,,,,,,,0,,,60,59
39000,note_on,0,0,3,,,,,,,,0,,,64,66
39000,note_on,60,0,10,,,,,,,,13,,,72,59
39000,note_on,0,0,4,,,,,,,,7,,,72,80
39000,note_on,6961,0,5,,,,,,,,1,,,60,68
39000,note_on,60,0,11,,,,,,,,14,,,69,82
39000,note_on,60,0,8,,,,,,,,5,,,57,76
39000,note_on,6990,0,6,,,,,,,,4,,,48,60
39030,note_on,0,0,4,,,,,,,,7,,,60,0
39030,note_on,30,0,10,,,,,,,,13,,,72,0
39030,note_on,30,0,11,,,,,,,,14,,,69,0
39030,note_on,30,0,2,,,,,,,,6,,,76,0
39030,note_on,0,0,2,,,,,,,,6,,,84,0
39030,note_on,30,0,9,,,,,,,,12,,,72,0
39030,note_on,30,0,12,,,,,,,,15,,,57,0
39030,note_on,30,0,6,,,,,,,,4,,,48,0
39030,note_on,0,0,5,,,,,,,,1,,,60,0
39030,note_on,30,0,1,,,,,,,,3,,,84,0
39030,note_on,30,0,4,,,,,,,,7,,,72,0
39030,note_on,30,0,3,,,,,,,,0,,,64,0
39030,note_on,0,0,3,,,,,,,,0,,,60,0
39030,note_on,30,0,5,,,,,,,,1,,,72,0
39059,note_on,59,0,8,,,,,,,,5,,,57,0
39060,note_on,0,0,5,,,,,,,,1,,,72,72
39060,note_on,1,0,8,,,,,,,,5,,,55,68
39060,note_on,30,0,5,,,,,,,,1,,,60,68
39060,note_on,30,0,9,,,,,,,,12,,,76,82
39060,note_on,30,0,3,,,,,,,,0,,,64,68
39060,note_on,0,0,3,,,,,,,,0,,,58,53
39060,note_on,0,0,2,,,,,,,,6,,,76,60
39060,note_on,0,0,4,,,,,,,,7,,,72,72
39060,note_on,0,0,9,,,,,,,,12,,,70,68
39060,note_on,0,0,10,,,,,,,,13,,,76,82
39060,note_on,30,0,10,,,,,,,,13,,,70,68
39060,note_on,30,0,11,,,,,,,,14,,,67,78
39060,note_on,30,0,4,,,,,,,,7,,,60,68
39060,note_on,30,0,12,,,,,,,,15,,,55,66
39060,note_on,30,0,1,,,,,,,,3,,,88,78
39060,note_on,30,0,2,,,,,,,,6,,,82,66
39060,note_on,30,0,6,,,,,,,,4,,,48,72
39090,note_on,30,0,12,,,,,,,,15,,,55,0
39090,note_on,30,0,1,,,,,,,,3,,,88,0
39090,note_on,30,0,3,,,,,,,,0,,,58,0
39090,note_on,30,0,11,,,,,,,,14,,,67,0
39090,note_on,30,0,5,,,,,,,,1,,,72,0
39090,note_on,0,0,3,,,,,,,,0,,,64,0
39090,note_on,0,0,5,,,,,,,,1,,,60,0
39090,note_on,0,0,9,,,,,,,,12,,,76,0
39090,note_on,30,0,10,,,,,,,,13,,,76,0
39090,note_on,0,0,10,,,,,,,,13,,,70,0
39090,note_on,0,0,4,,,,,,,,7,,,60,0
39090,note_on,30,0,4,,,,,,,,7,,,72,0
39090,note_on,30,0,6,,,,,,,,4,,,48,0
39090,note_on,0,0,2,,,,,,,,6,,,82,0
39090,note_on,30,0,2,,,,,,,,6,,,76,0
39090,note_on,30,0,9,,,,,,,,12,,,70,0
39119,note_on,59,0,8,,,,,,,,5,,,55,0
39120,note_on,1,0,8,,,,,,,,5,,,53,50
39120,note_on,30,0,10,,,,,,,,13,,,69,66
39120,note_on,0,0,10,,,,,,,,13,,,77,76
39120,note_on,30,0,1,,,,,,,,3,,,89,70
39120,note_on,30,0,6,,,,,,,,4,,,48,74
39120,note_on,0,0,5,,,,,,,,1,,,60,66
39120,note_on,30,0,2,,,,,,,,6,,,81,64
39120,note_on,30,0,4,,,,,,,,7,,,72,70
39120,note_on,30,0,11,,,,,,,,14,,,65,80
39120,note_on,30,0,3,,,,,,,,0,,,57,64
39120,note_on,30,0,12,,,,,,,,15,,,53,60
39120,note_on,30,0,5,,,,,,,,1,,,72,70
39120,note_on,0,0,4,,,,,,,,7,,,60,66
39120,note_on,0,0,2,,,,,,,,6,,,77,61
39120,note_on,0,0,9,,,,,,,,12,,,69,64
39120,note_on,30,0,9,,,,,,,,12,,,77,85
39120,note_on,121,0,7,,,,,,,,5,,,77,80
39120,note_on,0,0,3,,,,,,,,0,,,65,78
39150,note_on,30,0,8,,,,,,,,5,,,60,50
39178,note_on,28,0,8,,,,,,,,5,,,53,0
39180,note_on,2,0,8,,,,,,,,5,,,57,50
39208,note_on,28,0,8,,,,,,,,5,,,60,0
39210,note_on,2,0,8,,,,,,,,5,,,60,50
39238,note_on,28,0,8,,,,,,,,5,,,57,0
39239,note_on,119,0,10,,,,,,,,13,,,77,0
39239,note_on,0,0,9,,,,,,,,12,,,77,0
39239,note_on,0,0,4,,,,,,,,7,,,72,0
39239,note_on,119,0,11,,,,,,,,14,,,65,0
39239,note_on,119,0,1,,,,,,,,3,,,89,0
39239,note_on,0,0,10,,,,,,,,13,,,69,0
39239,note_on,119,0,9,,,,,,,,12,,,69,0
39239,note_on,119,0,4,,,,,,,,7,,,60,0
39239,note_on,119,0,6,,,,,,,,4,,,48,0
39239,note_on,119,0,5,,,,,,,,1,,,60,0
39239,note_on,119,0,2,,,,,,,,6,,,77,0
39239,note_on,0,0,3,,,,,,,,0,,,57,0
39239,note_on,0,0,2,,,,,,,,6,,,81,0
39239,note_on,0,0,5,,,,,,,,1,,,72,0
39239,note_on,119,0,3,,,,,,,,0,,,65,0
39240,note_on,2,0,8,,,,,,,,5,,,65,50
39268,note_on,28,0,8,,,,,,,,5,,,60,0
39270,note_on,2,0,8,,,,,,,,5,,,60,50
39298,note_on,28,0,8,,,,,,,,5,,,65,0
39299,note_on,179,0,7,,,,,,,,5,,,77,0
39300,note_on,1,0,7,,,,,,,,5,,,81,74
39300,note_on,2,0,8,,,,,,,,5,,,57,50
39328,note_on,28,0,8,,,,,,,,5,,,60,0
39330,note_on,2,0,8,,,,,,,,5,,,60,50
39358,note_on,28,0,8,,,,,,,,5,,,57,0
39359,note_on,59,0,7,,,,,,,,5,,,81,0
39360,note_on,1,0,7,,,,,,,,5,,,79,60
39360,note_on,2,0,8,,,,,,,,5,,,53,50
39388,note_on,28,0,8,,,,,,,,5,,,60,0
39390,note_on,2,0,8,,,,,,,,5,,,60,50
39418,note_on,28,0,8,,,,,,,,5,,,53,0
39419,note_on,59,0,7,,,,,,,,5,,,79,0
39420,note_on,1,0,7,,,,,,,,5,,,77,70
39420,note_on,2,0,8,,,,,,,,5,,,57,50
39448,note_on,28,0,8,,,,,,,,5,,,60,0
39450,note_on,2,0,8,,,,,,,,5,,,60,50
39478,note_on,28,0,8,,,,,,,,5,,,57,0
39480,note_on,2,0,8,,,,,,,,5,,,65,50
39508,note_on,28,0,8,,,,,,,,5,,,60,0
39510,note_on,2,0,8,,,,,,,,5,,,60,50
39538,note_on,28,0,8,,,,,,,,5,,,65,0
39539,note_on,119,0,7,,,,,,,,5,,,77,0
39540,note_on,1,0,7,,,,,,,,5,,,81,63
39540,note_on,2,0,8,,,,,,,,5,,,57,50
39568,note_on,28,0,8,,,,,,,,5,,,60,0
39570,note_on,2,0,8,,,,,,,,5,,,60,50
39598,note_on,28,0,8,,,,,,,,5,,,57,0
39599,note_on,479,0,12,,,,,,,,15,,,53,0
39599,note_on,59,0,7,,,,,,,,5,,,81,0
39600,note_on,2,0,8,,,,,,,,5,,,53,50
39600,note_on,1,0,7,,,,,,,,5,,,79,61
39600,note_on,1,0,12,,,,,,,,15,,,50,60
39628,note_on,28,0,8,,,,,,,,5,,,60,0
39630,note_on,2,0,8,,,,,,,,5,,,62,50
39658,note_on,28,0,8,,,,,,,,5,,,53,0
39659,note_on,59,0,7,,,,,,,,5,,,79,0
39660,note_on,1,0,7,,,,,,,,5,,,77,72
39660,note_on,2,0,8,,,,,,,,5,,,57,50
39688,note_on,28,0,8,,,,,,,,5,,,62,0
39690,note_on,2,0,8,,,,,,,,5,,,62,50
39718,note_on,28,0,8,,,,,,,,5,,,57,0
39720,note_on,2,0,8,,,,,,,,5,,,65,50
39748,note_on,28,0,8,,,,,,,,5,,,62,0
39750,note_on,2,0,8,,,,,,,,5,,,62,50
39778,note_on,28,0,8,,,,,,,,5,,,65,0
39779,note_on,119,0,7,,,,,,,,5,,,77,0
39780,note_on,2,0,8,,,,,,,,5,,,57,50
39780,note_on,1,0,7,,,,,,,,5,,,82,60
39808,note_on,28,0,8,,,,,,,,5,,,62,0
39810,note_on,2,0,8,,,,,,,,5,,,62,50
39838,note_on,28,0,8,,,,,,,,5,,,57,0
39839,note_on,59,0,7,,,,,,,,5,,,82,0
39839,note_on,239,0,12,,,,,,,,15,,,50,0
39840,note_on,1,0,7,,,,,,,,5,,,81,74
39840,note_on,2,0,8,,,,,,,,5,,,53,50
39840,note_on,1,0,12,,,,,,,,15,,,46,60
39868,note_on,28,0,8,,,,,,,,5,,,62,0
39870,note_on,2,0,8,,,,,,,,5,,,62,50
39898,note_on,28,0,8,,,,,,,,5,,,53,0
39899,note_on,59,0,7,,,,,,,,5,,,81,0
39900,note_on,1,0,7,,,,,,,,5,,,79,82
39900,note_on,2,0,8,,,,,,,,5,,,55,50
39928,note_on,28,0,8,,,,,,,,5,,,62,0
39930,note_on,2,0,8,,,,,,,,5,,,62,50
39958,note_on,28,0,8,,,,,,,,5,,,55,0
39960,note_on,2,0,8,,,,,,,,5,,,65,50
39988,note_on,28,0,8,,,,,,,,5,,,62,0
39990,note_on,2,0,8,,,,,,,,5,,,62,50
40018,note_on,28,0,8,,,,,,,,5,,,65,0
40019,note_on,119,0,7,,,,,,,,5,,,79,0
40020,note_on,2,0,8,,,,,,,,5,,,55,50
40048,note_on,28,0,8,,,,,,,,5,,,62,0
40050,note_on,2,0,8,,,,,,,,5,,,62,50
40078,note_on,28,0,8,,,,,,,,5,,,55,0
40079,note_on,239,0,12,,,,,,,,15,,,46,0
40080,note_on,1,0,12,,,,,,,,15,,,43,60
40080,note_on,61,0,7,,,,,,,,5,,,79,68
40080,note_on,2,0,8,,,,,,,,5,,,53,50
40108,note_on,28,0,8,,,,,,,,5,,,62,0
40110,note_on,2,0,8,,,,,,,,5,,,62,50
40138,note_on,28,0,8,,,,,,,,5,,,53,0
40140,note_on,2,0,8,,,,,,,,5,,,58,50
40168,note_on,28,0,8,,,,,,,,5,,,62,0
40170,note_on,2,0,8,,,,,,,,5,,,62,50
40198,note_on,28,0,8,,,,,,,,5,,,58,0
40200,note_on,2,0,8,,,,,,,,5,,,65,50
40228,note_on,28,0,8,,,,,,,,5,,,62,0
40230,note_on,2,0,8,,,,,,,,5,,,62,50
40258,note_on,28,0,8,,,,,,,,5,,,65,0
40259,note_on,179,0,7,,,,,,,,5,,,79,0
40260,note_on,1,0,7,,,,,,,,5,,,82,68
40260,note_on,2,0,8,,,,,,,,5,,,58,50
40288,note_on,28,0,8,,,,,,,,5,,,62,0
40290,note_on,2,0,8,,,,,,,,5,,,62,50
40318,note_on,28,0,8,,,,,,,,5,,,58,0
40319,note_on,239,0,12,,,,,,,,15,,,43,0
40319,note_on,59,0,7,,,,,,,,5,,,82,0
40320,note_on,1,0,7,,,,,,,,5,,,81,72
40320,note_on,1,0,12,,,,,,,,15,,,46,60
40320,note_on,2,0,8,,,,,,,,5,,,53,50
40348,note_on,28,0,8,,,,,,,,5,,,62,0
40350,note_on,2,0,8,,,,,,,,5,,,62,50
40378,note_on,28,0,8,,,,,,,,5,,,53,0
40379,note_on,59,0,7,,,,,,,,5,,,81,0
40380,note_on,1,0,7,,,,,,,,5,,,79,68
40380,note_on,2,0,8,,,,,,,,5,,,55,50
40408,note_on,28,0,8,,,,,,,,5,,,62,0
40410,note_on,2,0,8,,,,,,,,5,,,62,50
40438,note_on,28,0,8,,,,,,,,5,,,55,0
40440,note_on,2,0,8,,,,,,,,5,,,65,50
40468,note_on,28,0,8,,,,,,,,5,,,62,0
40470,note_on,2,0,8,,,,,,,,5,,,62,50
40498,note_on,28,0,8,,,,,,,,5,,,65,0
40499,note_on,119,0,7,,,,,,,,5,,,79,0
40500,note_on,2,0,8,,,,,,,,5,,,55,50
40500,note_on,1,0,7,,,,,,,,5,,,82,62
40528,note_on,28,0,8,,,,,,,,5,,,62,0
40530,note_on,2,0,8,,,,,,,,5,,,62,50
40558,note_on,28,0,8,,,,,,,,5,,,55,0
40559,note_on,59,0,7,,,,,,,,5,,,82,0
40559,note_on,239,0,12,,,,,,,,15,,,46,0
40560,note_on,1,0,7,,,,,,,,5,,,86,87
40560,note_on,2,0,8,,,,,,,,5,,,55,50
40560,note_on,1,0,12,,,,,,,,15,,,48,60
40588,note_on,28,0,8,,,,,,,,5,,,62,0
40590,note_on,2,0,8,,,,,,,,5,,,60,52
40619,note_on,59,0,7,,,,,,,,5,,,86,0
40620,note_on,30,0,8,,,,,,,,5,,,55,0
40620,note_on,0,0,8,,,,,,,,5,,,58,55
40620,note_on,1,0,7,,,,,,,,5,,,84,85
40650,note_on,30,0,8,,,,,,,,5,,,60,0
40650,note_on,0,0,8,,,,,,,,5,,,60,57
40680,note_on,30,0,8,,,,,,,,5,,,58,0
40680,note_on,0,0,8,,,,,,,,5,,,67,60
40710,note_on,0,0,8,,,,,,,,5,,,60,62
40710,note_on,30,0,8,,,,,,,,5,,,60,0
40739,note_on,119,0,7,,,,,,,,5,,,84,0
40740,note_on,0,0,8,,,,,,,,5,,,58,65
40740,note_on,1,0,7,,,,,,,,5,,,76,82
40740,note_on,30,0,8,,,,,,,,5,,,67,0
40770,note_on,0,0,8,,,,,,,,5,,,60,67
40770,note_on,30,0,8,,,,,,,,5,,,60,0
40799,note_on,59,0,7,,,,,,,,5,,,76,0
40799,note_on,239,0,12,,,,,,,,15,,,48,0
40800,note_on,0,0,8,,,,,,,,5,,,57,70
40800,note_on,1,0,12,,,,,,,,15,,,41,60
40800,note_on,30,0,8,,,,,,,,5,,,58,0
40800,note_on,1,0,7,,,,,,,,5,,,79,74
40800,note_on,0,0,8,,,,,,,,5,,,53,70
40829,note_on,29,0,7,,,,,,,,5,,,79,0
40830,note_on,1,0,7,,,,,,,,5,,,77,82
40830,note_on,30,0,8,,,,,,,,5,,,60,0
40859,note_on,29,0,7,,,,,,,,5,,,77,0
40860,note_on,1,0,7,,,,,,,,5,,,76,87
40889,note_on,29,0,7,,,,,,,,5,,,76,0
40890,note_on,1,0,7,,,,,,,,5,,,74,76
40919,note_on,29,0,7,,,,,,,,5,,,74,0
40919,note_on,0,0,8,,,,,,,,5,,,57,0
40919,note_on,89,0,8,,,,,,,,5,,,53,0
40919,note_on,119,0,12,,,,,,,,15,,,41,0
40920,note_on,1,0,7,,,,,,,,5,,,71,78
40949,note_on,29,0,7,,,,,,,,5,,,71,0
40950,note_on,1,0,7,,,,,,,,5,,,72,82
40979,note_on,29,0,7,,,,,,,,5,,,72,0
40980,note_on,1,0,7,,,,,,,,5,,,70,76
41009,note_on,29,0,7,,,,,,,,5,,,70,0
41010,note_on,1,0,7,,,,,,,,5,,,67,80
41039,note_on,29,0,7,,,,,,,,5,,,67,0
41040,note_on,121,0,12,,,,,,,,15,,,53,60
41040,note_on,121,0,8,,,,,,,,5,,,53,60
41040,note_on,1801,0,2,,,,,,,,6,,,77,85
41040,note_on,1,0,7,,,,,,,,5,,,57,60
41070,note_on,30,0,7,,,,,,,,5,,,65,60
41100,note_on,30,0,7,,,,,,,,5,,,57,0
41100,note_on,0,0,7,,,,,,,,5,,,60,60
41130,note_on,30,0,7,,,,,,,,5,,,65,0
41130,note_on,0,0,7,,,,,,,,5,,,65,60
41160,note_on,30,0,7,,,,,,,,5,,,60,0
41160,note_on,0,0,7,,,,,,,,5,,,69,60
41174,note_on,134,0,2,,,,,,,,6,,,77,0
41175,note_on,1,0,2,,,,,,,,6,,,79,78
41189,note_on,14,0,2,,,,,,,,6,,,79,0
41190,note_on,30,0,7,,,,,,,,5,,,65,0
41190,note_on,0,0,7,,,,,,,,5,,,65,60
41190,note_on,1,0,2,,,,,,,,6,,,77,80
41204,note_on,14,0,2,,,,,,,,6,,,77,0
41205,note_on,1,0,2,,,,,,,,6,,,76,85
41219,note_on,14,0,2,,,,,,,,6,,,76,0
41220,note_on,0,0,7,,,,,,,,5,,,60,60
41220,note_on,30,0,7,,,,,,,,5,,,69,0
41220,note_on,1,0,2,,,,,,,,6,,,77,82
41249,note_on,29,0,2,,,,,,,,6,,,77,0
41250,note_on,0,0,7,,,,,,,,5,,,65,60
41250,note_on,30,0,7,,,,,,,,5,,,65,0
41250,note_on,1,0,2,,,,,,,,6,,,81,76
41279,note_on,239,0,8,,,,,,,,5,,,53,0
41279,note_on,29,0,2,,,,,,,,6,,,81,0
41279,note_on,239,0,12,,,,,,,,15,,,53,0
41280,note_on,1,0,2,,,,,,,,6,,,79,74
41280,note_on,30,0,7,,,,,,,,5,,,60,0
41280,note_on,0,0,7,,,,,,,,5,,,57,60
41280,note_on,1,0,8,,,,,,,,5,,,50,60
41280,note_on,1,0,12,,,,,,,,15,,,50,60
41310,note_on,30,0,7,,,,,,,,5,,,65,0
41310,note_on,0,0,7,,,,,,,,5,,,65,60
41339,note_on,59,0,2,,,,,,,,6,,,79,0
41340,note_on,0,0,7,,,,,,,,5,,,62,60
41340,note_on,1,0,2,,,,,,,,6,,,77,82
41340,note_on,30,0,7,,,,,,,,5,,,57,0
41370,note_on,0,0,7,,,,,,,,5,,,65,60
41370,note_on,30,0,7,,,,,,,,5,,,65,0
41400,note_on,30,0,7,,,,,,,,5,,,62,0
41400,note_on,0,0,7,,,,,,,,5,,,69,60
41430,note_on,0,0,7,,,,,,,,5,,,65,60
41430,note_on,30,0,7,,,,,,,,5,,,65,0
41459,note_on,119,0,2,,,,,,,,6,,,77,0
41460,note_on,30,0,7,,,,,,,,5,,,69,0
41460,note_on,0,0,7,,,,,,,,5,,,62,60
41460,note_on,1,0,2,,,,,,,,6,,,81,85
41490,note_on,30,0,7,,,,,,,,5,,,65,0
41490,note_on,0,0,7,,,,,,,,5,,,65,60
41519,note_on,239,0,12,,,,,,,,15,,,50,0
41519,note_on,239,0,8,,,,,,,,5,,,50,0
41519,note_on,59,0,2,,,,,,,,6,,,81,0
41520,note_on,30,0,7,,,,,,,,5,,,62,0
41520,note_on,0,0,7,,,,,,,,5,,,57,60
41520,note_on,1,0,12,,,,,,,,15,,,48,60
41520,note_on,1,0,8,,,,,,,,5,,,48,60
41520,note_on,1,0,2,,,,,,,,6,,,79,76
41550,note_on,0,0,7,,,,,,,,5,,,65,60
41550,note_on,30,0,7,,,,,,,,5,,,65,0
41579,note_on,59,0,2,,,,,,,,6,,,79,0
41580,note_on,1,0,2,,,,,,,,6,,,77,85
41580,note_on,0,0,7,,,,,,,,5,,,62,60
41580,note_on,30,0,7,,,,,,,,5,,,57,0
41610,note_on,0,0,7,,,,,,,,5,,,65,60
41610,note_on,30,0,7,,,,,,,,5,,,65,0
41640,note_on,0,0,7,,,,,,,,5,,,69,60
41640,note_on,30,0,7,,,,,,,,5,,,62,0
41670,note_on,30,0,7,,,,,,,,5,,,65,0
41670,note_on,0,0,7,,,,,,,,5,,,65,60
41699,note_on,119,0,2,,,,,,,,6,,,77,0
41700,note_on,30,0,7,,,,,,,,5,,,69,0
41700,note_on,0,0,7,,,,,,,,5,,,62,60
41700,note_on,1,0,2,,,,,,,,6,,,82,74
41730,note_on,0,0,7,,,,,,,,5,,,65,60
41730,note_on,30,0,7,,,,,,,,5,,,65,0
41759,note_on,239,0,8,,,,,,,,5,,,48,0
41759,note_on,59,0,2,,,,,,,,6,,,82,0
41759,note_on,239,0,12,,,,,,,,15,,,48,0
41760,note_on,1,0,2,,,,,,,,6,,,81,80
41760,note_on,1,0,8,,,,,,,,5,,,46,60
41760,note_on,1,0,12,,,,,,,,15,,,46,60
41760,note_on,30,0,7,,,,,,,,5,,,62,0
41760,note_on,0,0,7,,,,,,,,5,,,55,60
41790,note_on,30,0,7,,,,,,,,5,,,65,0
41790,note_on,0,0,7,,,,,,,,5,,,65,60
41819,note_on,59,0,2,,,,,,,,6,,,81,0
41820,note_on,30,0,7,,,,,,,,5,,,55,0
41820,note_on,1,0,2,,,,,,,,6,,,79,85
41820,note_on,0,0,7,,,,,,,,5,,,62,60
41850,note_on,30,0,7,,,,,,,,5,,,65,0
41850,note_on,0,0,7,,,,,,,,5,,,65,60
41880,note_on,30,0,7,,,,,,,,5,,,62,0
41880,note_on,0,0,7,,,,,,,,5,,,67,60
41910,note_on,0,0,7,,,,,,,,5,,,65,60
41910,note_on,30,0,7,,,,,,,,5,,,65,0
41940,note_on,30,0,7,,,,,,,,5,,,67,0
41940,note_on,0,0,7,,,,,,,,5,,,62,60
41970,note_on,30,0,7,,,,,,,,5,,,65,0
41970,note_on,0,0,7,,,,,,,,5,,,65,60
41999,note_on,239,0,8,,,,,,,,5,,,46,0
41999,note_on,179,0,2,,,,,,,,6,,,79,0
41999,note_on,239,0,12,,,,,,,,15,,,46,0
42000,note_on,0,0,7,,,,,,,,5,,,58,60
42000,note_on,30,0,7,,,,,,,,5,,,62,0
42000,note_on,1,0,8,,,,,,,,5,,,43,60
42000,note_on,1,0,12,,,,,,,,15,,,43,60
42000,note_on,2761,0,1,,,,,,,,3,,,79,80
42030,note_on,30,0,7,,,,,,,,5,,,65,0
42030,note_on,0,0,7,,,,,,,,5,,,65,60
42060,note_on,30,0,7,,,,,,,,5,,,58,0
42060,note_on,0,0,7,,,,,,,,5,,,62,60
42090,note_on,30,0,7,,,,,,,,5,,,65,0
42090,note_on,0,0,7,,,,,,,,5,,,65,60
42120,note_on,30,0,7,,,,,,,,5,,,62,0
42120,note_on,0,0,7,,,,,,,,5,,,67,60
42134,note_on,134,0,1,,,,,,,,3,,,79,0
42135,note_on,1,0,1,,,,,,,,3,,,81,82
42149,note_on,14,0,1,,,,,,,,3,,,81,0
42150,note_on,0,0,7,,,,,,,,5,,,65,60
42150,note_on,30,0,7,,,,,,,,5,,,65,0
42150,note_on,1,0,1,,,,,,,,3,,,79,70
42164,note_on,14,0,1,,,,,,,,3,,,79,0
42165,note_on,1,0,1,,,,,,,,3,,,78,72
42179,note_on,14,0,1,,,,,,,,3,,,78,0
42180,note_on,1,0,1,,,,,,,,3,,,79,78
42180,note_on,0,0,7,,,,,,,,5,,,62,60
42180,note_on,30,0,7,,,,,,,,5,,,67,0
42209,note_on,29,0,1,,,,,,,,3,,,79,0
42210,note_on,1,0,1,,,,,,,,3,,,82,80
42210,note_on,30,0,7,,,,,,,,5,,,65,0
42210,note_on,0,0,7,,,,,,,,5,,,65,60
42239,note_on,239,0,12,,,,,,,,15,,,43,0
42239,note_on,239,0,8,,,,,,,,5,,,43,0
42239,note_on,29,0,1,,,,,,,,3,,,82,0
42240,note_on,1,0,12,,,,,,,,15,,,47,60
42240,note_on,1,0,1,,,,,,,,3,,,81,80
42240,note_on,1,0,8,,,,,,,,5,,,47,60
42240,note_on,30,0,7,,,,,,,,5,,,62,0
42240,note_on,0,0,7,,,,,,,,5,,,55,60
42270,note_on,30,0,7,,,,,,,,5,,,65,0
42270,note_on,0,0,7,,,,,,,,5,,,65,60
42299,note_on,59,0,1,,,,,,,,3,,,81,0
42300,note_on,0,0,7,,,,,,,,5,,,62,60
42300,note_on,1,0,1,,,,,,,,3,,,79,80
42300,note_on,30,0,7,,,,,,,,5,,,55,0
42330,note_on,30,0,7,,,,,,,,5,,,65,0
42330,note_on,0,0,7,,,,,,,,5,,,65,60
42360,note_on,0,0,7,,,,,,,,5,,,67,60
42360,note_on,30,0,7,,,,,,,,5,,,62,0
42390,note_on,30,0,7,,,,,,,,5,,,65,0
42390,note_on,0,0,7,,,,,,,,5,,,65,60
42419,note_on,119,0,1,,,,,,,,3,,,79,0
42420,note_on,0,0,7,,,,,,,,5,,,62,60
42420,note_on,30,0,7,,,,,,,,5,,,67,0
42420,note_on,1,0,1,,,,,,,,3,,,79,80
42450,note_on,0,0,7,,,,,,,,5,,,65,60
42450,note_on,30,0,7,,,,,,,,5,,,65,0
42479,note_on,59,0,1,,,,,,,,3,,,79,0
42479,note_on,239,0,12,,,,,,,,15,,,47,0
42479,note_on,239,0,8,,,,,,,,5,,,47,0
42480,note_on,1,0,8,,,,,,,,5,,,48,60
42480,note_on,0,0,7,,,,,,,,5,,,57,60
42480,note_on,30,0,7,,,,,,,,5,,,62,0
42480,note_on,1,0,12,,,,,,,,15,,,48,85
42480,note_on,1,0,1,,,,,,,,3,,,86,85
42509,note_on,29,0,7,,,,,,,,5,,,57,0
42510,note_on,1,0,7,,,,,,,,5,,,65,0
42510,note_on,0,0,7,,,,,,,,5,,,65,61
42539,note_on,59,0,1,,,,,,,,3,,,86,0
42539,note_on,29,0,7,,,,,,,,5,,,65,0
42540,note_on,1,0,1,,,,,,,,3,,,84,82
42540,note_on,1,0,7,,,,,,,,5,,,60,63
42569,note_on,29,0,7,,,,,,,,5,,,60,0
42570,note_on,1,0,7,,,,,,,,5,,,65,65
42599,note_on,29,0,7,,,,,,,,5,,,65,0
42600,note_on,1,0,7,,,,,,,,5,,,58,67
42629,note_on,29,0,7,,,,,,,,5,,,58,0
42630,note_on,1,0,7,,,,,,,,5,,,67,69
42659,note_on,119,0,1,,,,,,,,3,,,84,0
42659,note_on,29,0,7,,,,,,,,5,,,67,0
42660,note_on,1,0,1,,,,,,,,3,,,76,87
42660,note_on,1,0,7,,,,,,,,5,,,60,71
42689,note_on,29,0,7,,,,,,,,5,,,60,0
42690,note_on,1,0,7,,,,,,,,5,,,67,73
42719,note_on,239,0,8,,,,,,,,5,,,48,0
42719,note_on,59,0,1,,,,,,,,3,,,76,0
42719,note_on,29,0,7,,,,,,,,5,,,67,0
42719,note_on,239,0,12,,,,,,,,15,,,48,0
42720,note_on,1,0,8,,,,,,,,5,,,41,60
42720,note_on,1,0,1,,,,,,,,3,,,79,78
42720,note_on,1,0,12,,,,,,,,15,,,41,85
42720,note_on,1,0,7,,,,,,,,5,,,57,75
42749,note_on,29,0,7,,,,,,,,5,,,57,0
42750,note_on,1,0,7,,,,,,,,5,,,60,76
42779,note_on,29,0,7,,,,,,,,5,,,60,0
42779,note_on,59,0,1,,,,,,,,3,,,79,0
42780,note_on,1,0,7,,,,,,,,5,,,65,78
42780,note_on,1,0,1,,,,,,,,3,,,77,82
42809,note_on,29,0,7,,,,,,,,5,,,65,0
42810,note_on,1,0,7,,,,,,,,5,,,69,80
42839,note_on,59,0,1,,,,,,,,3,,,77,0
42839,note_on,119,0,12,,,,,,,,15,,,41,0
42839,note_on,119,0,8,,,,,,,,5,,,41,0
42839,note_on,29,0,7,,,,,,,,5,,,69,0
42840,note_on,1,0,7,,,,,,,,5,,,72,82
42869,note_on,29,0,7,,,,,,,,5,,,72,0
42870,note_on,1,0,7,,,,,,,,5,,,77,84
42899,note_on,29,0,7,,,,,,,,5,,,77,0
42900,note_on,1,0,7,,,,,,,,5,,,81,86
42929,note_on,29,0,7,,,,,,,,5,,,81,0
42930,note_on,1,0,7,,,,,,,,5,,,84,88
42959,note_on,29,0,7,,,,,,,,5,,,84,0
42960,note_on,121,0,8,,,,,,,,5,,,52,70
42960,note_on,121,0,12,,,,,,,,15,,,52,85
42960,note_on,1,0,7,,,,,,,,5,,,82,90
42980,note_on,20,0,8,,,,,,,,5,,,55,70
43000,note_on,20,0,8,,,,,,,,5,,,58,70
43020,note_on,0,0,8,,,,,,,,5,,,60,70
43020,note_on,20,0,8,,,,,,,,5,,,52,0
43040,note_on,0,0,8,,,,,,,,5,,,58,70
43040,note_on,20,0,8,,,,,,,,5,,,55,0
43060,note_on,20,0,8,,,,,,,,5,,,58,0
43060,note_on,0,0,8,,,,,,,,5,,,55,70
43080,note_on,20,0,8,,,,,,,,5,,,60,0
43080,note_on,0,0,8,,,,,,,,5,,,52,70
43100,note_on,20,0,8,,,,,,,,5,,,58,0
43100,note_on,0,0,8,,,,,,,,5,,,55,70
43120,note_on,20,0,8,,,,,,,,5,,,55,0
43120,note_on,0,0,8,,,,,,,,5,,,60,70
43139,note_on,179,0,7,,,,,,,,5,,,82,0
43140,note_on,0,0,12,,,,,,,,15,,,53,78
43140,note_on,0,0,8,,,,,,,,5,,,53,70
43140,note_on,20,0,8,,,,,,,,5,,,52,0
43140,note_on,180,0,12,,,,,,,,15,,,52,0
43140,note_on,1,0,7,,,,,,,,5,,,81,90
43160,note_on,0,0,8,,,,,,,,5,,,57,70
43160,note_on,20,0,8,,,,,,,,5,,,55,0
43180,note_on,0,0,8,,,,,,,,5,,,60,70
43180,note_on,20,0,8,,,,,,,,5,,,60,0
43199,note_on,59,0,7,,,,,,,,5,,,81,0
43200,note_on,0,0,8,,,,,,,,5,,,58,70
43200,note_on,1,0,7,,,,,,,,5,,,78,90
43200,note_on,0,0,12,,,,,,,,15,,,58,66
43200,note_on,20,0,8,,,,,,,,5,,,53,0
43200,note_on,60,0,12,,,,,,,,15,,,53,0
43220,note_on,0,0,8,,,,,,,,5,,,60,70
43220,note_on,20,0,8,,,,,,,,5,,,57,0
43240,note_on,0,0,8,,,,,,,,5,,,64,70
43240,note_on,20,0,8,,,,,,,,5,,,60,0
43259,note_on,59,0,7,,,,,,,,5,,,78,0
43260,note_on,0,0,8,,,,,,,,5,,,67,70
43260,note_on,20,0,8,,,,,,,,5,,,58,0
43260,note_on,1,0,7,,,,,,,,5,,,79,90
43280,note_on,20,0,8,,,,,,,,5,,,60,0
43280,note_on,0,0,8,,,,,,,,5,,,64,70
43300,note_on,0,0,8,,,,,,,,5,,,60,70
43300,note_on,20,0,8,,,,,,,,5,,,64,0
43320,note_on,20,0,8,,,,,,,,5,,,67,0
43320,note_on,0,0,8,,,,,,,,5,,,58,70
43340,note_on,0,0,8,,,,,,,,5,,,60,70
43340,note_on,20,0,8,,,,,,,,5,,,64,0
43360,note_on,0,0,8,,,,,,,,5,,,64,70
43360,note_on,20,0,8,,,,,,,,5,,,60,0
43379,note_on,119,0,7,,,,,,,,5,,,79,0
43380,note_on,0,0,12,,,,,,,,15,,,57,72
43380,note_on,1,0,7,,,,,,,,5,,,77,90
43380,note_on,20,0,8,,,,,,,,5,,,58,0
43380,note_on,0,0,8,,,,,,,,5,,,57,70
43380,note_on,180,0,12,,,,,,,,15,,,58,0
43400,note_on,20,0,8,,,,,,,,5,,,60,0
43400,note_on,0,0,8,,,,,,,,5,,,60,70
43420,note_on,0,0,8,,,,,,,,5,,,65,70
43420,note_on,20,0,8,,,,,,,,5,,,64,0
43439,note_on,59,0,7,,,,,,,,5,,,77,0
43440,note_on,20,0,8,,,,,,,,5,,,57,0
43440,note_on,0,0,12,,,,,,,,15,,,52,72
43440,note_on,60,0,12,,,,,,,,15,,,57,0
43440,note_on,1,0,7,,,,,,,,5,,,84,90
43440,note_on,0,0,8,,,,,,,,5,,,52,70
43460,note_on,0,0,8,,,,,,,,5,,,55,70
43460,note_on,20,0,8,,,,,,,,5,,,60,0
43480,note_on,20,0,8,,,,,,,,5,,,65,0
43480,note_on,0,0,8,,,,,,,,5,,,58,70
43499,note_on,59,0,7,,,,,,,,5,,,84,0
43500,note_on,20,0,8,,,,,,,,5,,,52,0
43500,note_on,0,0,8,,,,,,,,5,,,60,70
43500,note_on,1,0,7,,,,,,,,5,,,83,90
43520,note_on,20,0,8,,,,,,,,5,,,55,0
43520,note_on,0,0,8,,,,,,,,5,,,58,70
43540,note_on,20,0,8,,,,,,,,5,,,58,0
43540,note_on,0,0,8,,,,,,,,5,,,55,70
43559,note_on,59,0,7,,,,,,,,5,,,83,0
43560,note_on,0,0,8,,,,,,,,5,,,52,70
43560,note_on,20,0,8,,,,,,,,5,,,60,0
43560,note_on,1,0,7,,,,,,,,5,,,82,90
43580,note_on,0,0,8,,,,,,,,5,,,55,70
43580,note_on,20,0,8,,,,,,,,5,,,58,0
43600,note_on,0,0,8,,,,,,,,5,,,60,70
43600,note_on,20,0,8,,,,,,,,5,,,55,0
43619,note_on,59,0,7,,,,,,,,5,,,82,0
43620,note_on,0,0,8,,,,,,,,5,,,53,70
43620,note_on,20,0,8,,,,,,,,5,,,52,0
43620,note_on,1,0,7,,,,,,,,5,,,81,90
43620,note_on,180,0,12,,,,,,,,15,,,52,0
43620,note_on,0,0,12,,,,,,,,15,,,53,70
43640,note_on,0,0,8,,,,,,,,5,,,57,70
43640,note_on,20,0,8,,,,,,,,5,,,55,0
43660,note_on,0,0,8,,,,,,,,5,,,60,70
43660,note_on,20,0,8,,,,,,,,5,,,60,0
43679,note_on,59,0,7,,,,,,,,5,,,81,0
43680,note_on,20,0,8,,,,,,,,5,,,53,0
43680,note_on,1,0,7,,,,,,,,5,,,78,90
43680,note_on,60,0,12,,,,,,,,15,,,53,0
43680,note_on,0,0,12,,,,,,,,15,,,58,68
43680,note_on,0,0,8,,,,,,,,5,,,58,70
43700,note_on,0,0,8,,,,,,,,5,,,60,70
43700,note_on,20,0,8,,,,,,,,5,,,57,0
43720,note_on,20,0,8,,,,,,,,5,,,60,0
43720,note_on,0,0,8,,,,,,,,5,,,64,70
43739,note_on,59,0,7,,,,,,,,5,,,78,0
43740,note_on,0,0,8,,,,,,,,5,,,67,70
43740,note_on,1,0,7,,,,,,,,5,,,79,90
43740,note_on,20,0,8,,,,,,,,5,,,58,0
43760,note_on,20,0,8,,,,,,,,5,,,60,0
43760,note_on,0,0,8,,,,,,,,5,,,64,70
43780,note_on,20,0,8,,,,,,,,5,,,64,0
43780,note_on,0,0,8,,,,,,,,5,,,60,70
43800,note_on,20,0,8,,,,,,,,5,,,67,0
43800,note_on,0,0,8,,,,,,,,5,,,58,70
43820,note_on,0,0,8,,,,,,,,5,,,60,70
43820,note_on,20,0,8,,,,,,,,5,,,64,0
43840,note_on,0,0,8,,,,,,,,5,,,64,70
43840,note_on,20,0,8,,,,,,,,5,,,60,0
43859,note_on,119,0,7,,,,,,,,5,,,79,0
43860,note_on,0,0,8,,,,,,,,5,,,57,70
43860,note_on,1,0,7,,,,,,,,5,,,77,90
43860,note_on,20,0,8,,,,,,,,5,,,58,0
43860,note_on,180,0,12,,,,,,,,15,,,58,0
43860,note_on,0,0,12,,,,,,,,15,,,57,72
43880,note_on,0,0,8,,,,,,,,5,,,60,70
43880,note_on,20,0,8,,,,,,,,5,,,60,0
43900,note_on,0,0,8,,,,,,,,5,,,65,70
43900,note_on,20,0,8,,,,,,,,5,,,64,0
43919,note_on,59,0,7,,,,,,,,5,,,77,0
43920,note_on,20,0,8,,,,,,,,5,,,57,0
43920,note_on,0,0,12,,,,,,,,15,,,58,70
43920,note_on,60,0,12,,,,,,,,15,,,57,0
43920,note_on,1,0,7,,,,,,,,5,,,86,82
43920,note_on,0,0,8,,,,,,,,5,,,58,70
43940,note_on,20,0,8,,,,,,,,5,,,60,0
43940,note_on,0,0,8,,,,,,,,5,,,62,70
43960,note_on,20,0,8,,,,,,,,5,,,65,0
43960,note_on,0,0,8,,,,,,,,5,,,65,70
43980,note_on,0,0,8,,,,,,,,5,,,70,70
43980,note_on,20,0,8,,,,,,,,5,,,58,0
44000,note_on,0,0,8,,,,,,,,5,,,65,70
44000,note_on,20,0,8,,,,,,,,5,,,62,0
44020,note_on,0,0,8,,,,,,,,5,,,62,70
44020,note_on,20,0,8,,,,,,,,5,,,65,0
44040,note_on,0,0,8,,,,,,,,5,,,58,70
44040,note_on,20,0,8,,,,,,,,5,,,70,0
44060,note_on,0,0,8,,,,,,,,5,,,62,70
44060,note_on,20,0,8,,,,,,,,5,,,65,0
44080,note_on,20,0,8,,,,,,,,5,,,62,0
44080,note_on,0,0,8,,,,,,,,5,,,65,70
44099,note_on,179,0,7,,,,,,,,5,,,86,0
44100,note_on,20,0,8,,,,,,,,5,,,58,0
44100,note_on,180,0,12,,,,,,,,15,,,58,0
44100,note_on,0,0,12,,,,,,,,15,,,57,70
44100,note_on,0,0,8,,,,,,,,5,,,57,70
44100,note_on,1,0,7,,,,,,,,5,,,84,72
44120,note_on,0,0,8,,,,,,,,5,,,62,70
44120,note_on,20,0,8,,,,,,,,5,,,62,0
44140,note_on,20,0,8,,,,,,,,5,,,65,0
44140,note_on,0,0,8,,,,,,,,5,,,66,70
44159,note_on,59,0,7,,,,,,,,5,,,84,0
44160,note_on,0,0,12,,,,,,,,15,,,55,76
44160,note_on,60,0,12,,,,,,,,15,,,57,0
44160,note_on,0,0,8,,,,,,,,5,,,55,70
44160,note_on,20,0,8,,,,,,,,5,,,57,0
44160,note_on,1,0,7,,,,,,,,5,,,83,80
44180,note_on,20,0,8,,,,,,,,5,,,62,0
44180,note_on,0,0,8,,,,,,,,5,,,62,70
44200,note_on,20,0,8,,,,,,,,5,,,66,0
44200,note_on,0,0,8,,,,,,,,5,,,65,70
44219,note_on,59,0,7,,,,,,,,5,,,83,0
44219,note_on,59,0,12,,,,,,,,15,,,55,0
44220,note_on,20,0,8,,,,,,,,5,,,55,0
44220,note_on,0,0,8,,,,,,,,5,,,61,70
44220,note_on,1,0,12,,,,,,,,15,,,49,64
44220,note_on,1,0,7,,,,,,,,5,,,82,72
44240,note_on,0,0,8,,,,,,,,5,,,64,70
44240,note_on,20,0,8,,,,,,,,5,,,62,0
44260,note_on,0,0,8,,,,,,,,5,,,67,70
44260,note_on,20,0,8,,,,,,,,5,,,65,0
44279,note_on,59,0,12,,,,,,,,15,,,49,0
44279,note_on,59,0,7,,,,,,,,5,,,82,0
44280,note_on,1,0,12,,,,,,,,15,,,50,70
44280,note_on,0,0,8,,,,,,,,5,,,62,70
44280,note_on,1,0,7,,,,,,,,5,,,81,80
44280,note_on,20,0,8,,,,,,,,5,,,61,0
44300,note_on,20,0,8,,,,,,,,5,,,64,0
44300,note_on,0,0,8,,,,,,,,5,,,65,70
44320,note_on,20,0,8,,,,,,,,5,,,67,0
44320,note_on,0,0,8,,,,,,,,5,,,69,70
44339,note_on,59,0,12,,,,,,,,15,,,50,0
44339,note_on,59,0,7,,,,,,,,5,,,81,0
44340,note_on,1,0,12,,,,,,,,15,,,47,66
44340,note_on,20,0,8,,,,,,,,5,,,62,0
44340,note_on,0,0,8,,,,,,,,5,,,59,70
44340,note_on,1,0,7,,,,,,,,5,,,79,82
44360,note_on,0,0,8,,,,,,,,5,,,62,70
44360,note_on,20,0,8,,,,,,,,5,,,65,0
44380,note_on,20,0,8,,,,,,,,5,,,69,0
44380,note_on,0,0,8,,,,,,,,5,,,67,70
44399,note_on,59,0,7,,,,,,,,5,,,79,0
44399,note_on,59,0,12,,,,,,,,15,,,47,0
44400,note_on,20,0,8,,,,,,,,5,,,59,0
44400,note_on,0,0,8,,,,,,,,5,,,60,70
44400,note_on,1,0,12,,,,,,,,15,,,48,68
44400,note_on,1,0,7,,,,,,,,5,,,77,78
44420,note_on,20,0,8,,,,,,,,5,,,62,0
44420,note_on,0,0,8,,,,,,,,5,,,65,70
44440,note_on,20,0,8,,,,,,,,5,,,67,0
44440,note_on,0,0,8,,,,,,,,5,,,69,70
44460,note_on,20,0,8,,,,,,,,5,,,60,0
44460,note_on,0,0,8,,,,,,,,5,,,72,70
44480,note_on,0,0,8,,,,,,,,5,,,69,70
44480,note_on,20,0,8,,,,,,,,5,,,65,0
44500,note_on,0,0,8,,,,,,,,5,,,65,70
44500,note_on,20,0,8,,,,,,,,5,,,69,0
44519,note_on,119,0,7,,,,,,,,5,,,77,0
44519,note_on,119,0,12,,,,,,,,15,,,48,0
44520,note_on,1,0,12,,,,,,,,15,,,36,68
44520,note_on,20,0,8,,,,,,,,5,,,72,0
44520,note_on,1,0,7,,,,,,,,5,,,79,80
44520,note_on,0,0,8,,,,,,,,5,,,60,70
44534,note_on,14,0,7,,,,,,,,5,,,79,0
44535,note_on,1,0,7,,,,,,,,5,,,77,74
44540,note_on,0,0,8,,,,,,,,5,,,67,70
44540,note_on,20,0,8,,,,,,,,5,,,69,0
44549,note_on,14,0,7,,,,,,,,5,,,77,0
44550,note_on,1,0,7,,,,,,,,5,,,76,85
44560,note_on,0,0,8,,,,,,,,5,,,70,70
44560,note_on,20,0,8,,,,,,,,5,,,65,0
44564,note_on,14,0,7,,,,,,,,5,,,76,0
44565,note_on,1,0,7,,,,,,,,5,,,77,78
44579,note_on,14,0,7,,,,,,,,5,,,77,0
44580,note_on,0,0,8,,,,,,,,5,,,72,70
44580,note_on,0,0,7,,,,,,,,5,,,81,74
44580,note_on,1,0,7,,,,,,,,5,,,76,72
44580,note_on,20,0,8,,,,,,,,5,,,60,0
44600,note_on,20,0,8,,,,,,,,5,,,67,0
44600,note_on,0,0,8,,,,,,,,5,,,70,70
44609,note_on,0,0,7,,,,,,,,5,,,76,0
44609,note_on,29,0,7,,,,,,,,5,,,81,0
44610,note_on,1,0,7,,,,,,,,5,,,79,80
44620,note_on,0,0,8,,,,,,,,5,,,67,70
44620,note_on,20,0,8,,,,,,,,5,,,70,0
44639,note_on,29,0,7,,,,,,,,5,,,79,0
44639,note_on,119,0,12,,,,,,,,15,,,36,0
44640,note_on,20,0,8,,,,,,,,5,,,72,0
44640,note_on,0,0,8,,,,,,,,5,,,65,70
44640,note_on,0,0,8,,,,,,,,5,,,69,70
44640,note_on,1,0,12,,,,,,,,15,,,41,68
44640,note_on,1,0,7,,,,,,,,5,,,77,74
44660,note_on,20,0,8,,,,,,,,5,,,70,0
44660,note_on,20,0,7,,,,,,,,5,,,81,82
44680,note_on,20,0,8,,,,,,,,5,,,67,0
44680,note_on,20,0,7,,,,,,,,5,,,79,76
44700,note_on,20,0,7,,,,,,,,5,,,77,0
44700,note_on,0,0,7,,,,,,,,5,,,77,78
44720,note_on,20,0,7,,,,,,,,5,,,81,0
44720,note_on,0,0,7,,,,,,,,5,,,76,78
44740,note_on,0,0,7,,,,,,,,5,,,74,74
44740,note_on,20,0,7,,,,,,,,5,,,79,0
44759,note_on,0,0,8,,,,,,,,5,,,69,0
44759,note_on,79,0,8,,,,,,,,5,,,65,0
44759,note_on,119,0,12,,,,,,,,15,,,41,0
44760,note_on,20,0,7,,,,,,,,5,,,77,0
44760,note_on,0,0,7,,,,,,,,5,,,72,68
44780,note_on,20,0,7,,,,,,,,5,,,76,0
44780,note_on,0,0,7,,,,,,,,5,,,71,76
44800,note_on,20,0,7,,,,,,,,5,,,74,0
44800,note_on,0,0,7,,,,,,,,5,,,70,72
44820,note_on,20,0,7,,,,,,,,5,,,72,0
44820,note_on,0,0,7,,,,,,,,5,,,69,68
44840,note_on,20,0,7,,,,,,,,5,,,71,0
44840,note_on,0,0,7,,,,,,,,5,,,67,72
44860,note_on,20,0,7,,,,,,,,5,,,70,0
44860,note_on,0,0,7,,,,,,,,5,,,65,76
44880,note_on,0,0,7,,,,,,,,5,,,64,70
44880,note_on,20,0,7,,,,,,,,5,,,69,0
44880,note_on,121,0,12,,,,,,,,15,,,36,60
44880,note_on,5641,0,3,,,,,,,,0,,,55,74
44880,note_on,2881,0,2,,,,,,,,6,,,82,70
44880,note_on,0,0,12,,,,,,,,15,,,48,66
44880,note_on,121,0,8,,,,,,,,5,,,36,98
44880,note_on,0,0,8,,,,,,,,5,,,48,89
44900,note_on,0,0,7,,,,,,,,5,,,67,76
44900,note_on,20,0,7,,,,,,,,5,,,67,0
44920,note_on,0,0,7,,,,,,,,5,,,64,70
44920,note_on,20,0,7,,,,,,,,5,,,65,0
44940,note_on,0,0,7,,,,,,,,5,,,60,76
44940,note_on,20,0,7,,,,,,,,5,,,64,0
44960,note_on,0,0,7,,,,,,,,5,,,64,68
44960,note_on,20,0,7,,,,,,,,5,,,67,0
44980,note_on,0,0,7,,,,,,,,5,,,60,68
44980,note_on,20,0,7,,,,,,,,5,,,64,0
45000,note_on,20,0,7,,,,,,,,5,,,60,0
45000,note_on,0,0,7,,,,,,,,5,,,55,74
45020,note_on,20,0,7,,,,,,,,5,,,64,0
45020,note_on,0,0,7,,,,,,,,5,,,60,72
45040,note_on,20,0,7,,,,,,,,5,,,60,0
45040,note_on,0,0,7,,,,,,,,5,,,64,66
45059,note_on,179,0,2,,,,,,,,6,,,82,0
45060,note_on,20,0,7,,,,,,,,5,,,55,0
45060,note_on,0,0,7,,,,,,,,5,,,57,74
45060,note_on,1,0,2,,,,,,,,6,,,81,76
45067,note_on,187,0,3,,,,,,,,0,,,55,0
45068,note_on,1,0,3,,,,,,,,0,,,57,68
45080,note_on,20,0,7,,,,,,,,5,,,60,0
45080,note_on,0,0,7,,,,,,,,5,,,60,68
45100,note_on,0,0,7,,,,,,,,5,,,65,74
45100,note_on,20,0,7,,,,,,,,5,,,64,0
45119,note_on,59,0,2,,,,,,,,6,,,81,0
45120,note_on,1,0,2,,,,,,,,6,,,78,68
45120,note_on,20,0,7,,,,,,,,5,,,57,0
45120,note_on,0,0,7,,,,,,,,5,,,58,70
45127,note_on,59,0,3,,,,,,,,0,,,57,0
45128,note_on,1,0,3,,,,,,,,0,,,58,68
45140,note_on,20,0,7,,,,,,,,5,,,60,0
45140,note_on,0,0,7,,,,,,,,5,,,60,68
45160,note_on,0,0,7,,,,,,,,5,,,64,76
45160,note_on,20,0,7,,,,,,,,5,,,65,0
45179,note_on,59,0,2,,,,,,,,6,,,78,0
45180,note_on,20,0,7,,,,,,,,5,,,58,0
45180,note_on,0,0,7,,,,,,,,5,,,67,72
45180,note_on,1,0,2,,,,,,,,6,,,79,68
45200,note_on,20,0,7,,,,,,,,5,,,60,0
45200,note_on,0,0,7,,,,,,,,5,,,64,78
45220,note_on,20,0,7,,,,,,,,5,,,64,0
45220,note_on,0,0,7,,,,,,,,5,,,60,72
45240,note_on,20,0,7,,,,,,,,5,,,67,0
45240,note_on,0,0,7,,,,,,,,5,,,58,66
45260,note_on,20,0,7,,,,,,,,5,,,64,0
45260,note_on,0,0,7,,,,,,,,5,,,60,78
45280,note_on,20,0,7,,,,,,,,5,,,60,0
45280,note_on,0,0,7,,,,,,,,5,,,64,68
45299,note_on,119,0,2,,,,,,,,6,,,79,0
45300,note_on,1,0,2,,,,,,,,6,,,77,68
45300,note_on,0,0,7,,,,,,,,5,,,57,68
45300,note_on,20,0,7,,,,,,,,5,,,58,0
45307,note_on,179,0,3,,,,,,,,0,,,58,0
45308,note_on,1,0,3,,,,,,,,0,,,57,70
45320,note_on,20,0,7,,,,,,,,5,,,60,0
45320,note_on,0,0,7,,,,,,,,5,,,60,72
45340,note_on,20,0,7,,,,,,,,5,,,64,0
45340,note_on,0,0,7,,,,,,,,5,,,65,70
45359,note_on,59,0,2,,,,,,,,6,,,77,0
45360,note_on,1,0,2,,,,,,,,6,,,84,68
45360,note_on,20,0,7,,,,,,,,5,,,57,0
45360,note_on,0,0,7,,,,,,,,5,,,55,66
45367,note_on,59,0,3,,,,,,,,0,,,57,0
45368,note_on,1,0,3,,,,,,,,0,,,55,68
45380,note_on,20,0,7,,,,,,,,5,,,60,0
45380,note_on,0,0,7,,,,,,,,5,,,60,74
45400,note_on,0,0,7,,,,,,,,5,,,64,70
45400,note_on,20,0,7,,,,,,,,5,,,65,0
45419,note_on,59,0,2,,,,,,,,6,,,84,0
45420,note_on,0,0,7,,,,,,,,5,,,67,70
45420,note_on,20,0,7,,,,,,,,5,,,55,0
45420,note_on,1,0,2,,,,,,,,6,,,83,66
45440,note_on,20,0,7,,,,,,,,5,,,60,0
45440,note_on,0,0,7,,,,,,,,5,,,64,70
45460,note_on,0,0,7,,,,,,,,5,,,60,66
45460,note_on,20,0,7,,,,,,,,5,,,64,0
45479,note_on,59,0,2,,,,,,,,6,,,83,0
45480,note_on,20,0,7,,,,,,,,5,,,67,0
45480,note_on,1,0,2,,,,,,,,6,,,82,59
45480,note_on,0,0,7,,,,,,,,5,,,55,70
45500,note_on,20,0,7,,,,,,,,5,,,64,0
45500,note_on,0,0,7,,,,,,,,5,,,60,74
45520,note_on,20,0,7,,,,,,,,5,,,60,0
45520,note_on,0,0,7,,,,,,,,5,,,64,60
45539,note_on,59,0,2,,,,,,,,6,,,82,0
45540,note_on,1,0,2,,,,,,,,6,,,81,72
45540,note_on,20,0,7,,,,,,,,5,,,55,0
45540,note_on,0,0,7,,,,,,,,5,,,57,68
45547,note_on,179,0,3,,,,,,,,0,,,55,0
45548,note_on,1,0,3,,,,,,,,0,,,57,72
45560,note_on,20,0,7,,,,,,,,5,,,60,0
45560,note_on,0,0,7,,,,,,,,5,,,60,74
45580,note_on,0,0,7,,,,,,,,5,,,65,68
45580,note_on,20,0,7,,,,,,,,5,,,64,0
45599,note_on,59,0,2,,,,,,,,6,,,81,0
45600,note_on,1,0,2,,,,,,,,6,,,78,59
45600,note_on,0,0,7,,,,,,,,5,,,58,66
45600,note_on,20,0,7,,,,,,,,5,,,57,0
45607,note_on,59,0,3,,,,,,,,0,,,57,0
45608,note_on,1,0,3,,,,,,,,0,,,58,68
45620,note_on,0,0,7,,,,,,,,5,,,60,68
45620,note_on,20,0,7,,,,,,,,5,,,60,0
45640,note_on,0,0,7,,,,,,,,5,,,64,70
45640,note_on,20,0,7,,,,,,,,5,,,65,0
45659,note_on,59,0,2,,,,,,,,6,,,78,0
45660,note_on,0,0,7,,,,,,,,5,,,67,70
45660,note_on,1,0,2,,,,,,,,6,,,79,74
45660,note_on,20,0,7,,,,,,,,5,,,58,0
45680,note_on,20,0,7,,,,,,,,5,,,60,0
45680,note_on,0,0,7,,,,,,,,5,,,64,66
45700,note_on,20,0,7,,,,,,,,5,,,64,0
45700,note_on,0,0,7,,,,,,,,5,,,60,70
45720,note_on,20,0,7,,,,,,,,5,,,67,0
45720,note_on,0,0,7,,,,,,,,5,,,58,68
45740,note_on,0,0,7,,,,,,,,5,,,60,72
45740,note_on,20,0,7,,,,,,,,5,,,64,0
45760,note_on,20,0,7,,,,,,,,5,,,60,0
45760,note_on,0,0,7,,,,,,,,5,,,64,70
45779,note_on,119,0,2,,,,,,,,6,,,79,0
45780,note_on,1,0,2,,,,,,,,6,,,77,70
45780,note_on,20,0,7,,,,,,,,5,,,58,0
45780,note_on,0,0,7,,,,,,,,5,,,57,64
45787,note_on,179,0,3,,,,,,,,0,,,58,0
45788,note_on,1,0,3,,,,,,,,0,,,57,80
45800,note_on,20,0,7,,,,,,,,5,,,60,0
45800,note_on,0,0,7,,,,,,,,5,,,60,74
45820,note_on,0,0,7,,,,,,,,5,,,65,66
45820,note_on,20,0,7,,,,,,,,5,,,64,0
45839,note_on,959,0,12,,,,,,,,15,,,48,0
45839,note_on,0,0,12,,,,,,,,15,,,36,0
45839,note_on,0,0,8,,,,,,,,5,,,36,0
45839,note_on,959,0,8,,,,,,,,5,,,48,0
45839,note_on,59,0,2,,,,,,,,6,,,77,0
45840,note_on,3001,0,1,,,,,,,,3,,,86,76
45840,note_on,0,0,7,,,,,,,,5,,,53,72
45840,note_on,1,0,8,,,,,,,,5,,,46,70
45840,note_on,20,0,7,,,,,,,,5,,,57,0
45847,note_on,59,0,3,,,,,,,,0,,,57,0
45848,note_on,1,0,3,,,,,,,,0,,,58,74
45860,note_on,0,0,7,,,,,,,,5,,,58,57
45860,note_on,20,0,7,,,,,,,,5,,,60,0
45880,note_on,20,0,7,,,,,,,,5,,,65,0
45880,note_on,0,0,7,,,,,,,,5,,,62,51
45900,note_on,20,0,7,,,,,,,,5,,,53,0
45900,note_on,0,0,7,,,,,,,,5,,,65,72
45920,note_on,20,0,7,,,,,,,,5,,,58,0
45920,note_on,0,0,7,,,,,,,,5,,,62,64
45940,note_on,0,0,7,,,,,,,,5,,,58,59
45940,note_on,20,0,7,,,,,,,,5,,,62,0
45960,note_on,0,0,7,,,,,,,,5,,,53,68
45960,note_on,20,0,7,,,,,,,,5,,,65,0
45980,note_on,0,0,7,,,,,,,,5,,,58,60
45980,note_on,20,0,7,,,,,,,,5,,,62,0
46000,note_on,0,0,7,,,,,,,,5,,,65,78
46000,note_on,20,0,7,,,,,,,,5,,,58,0
46019,note_on,179,0,1,,,,,,,,3,,,86,0
46019,note_on,179,0,8,,,,,,,,5,,,46,0
46020,note_on,20,0,7,,,,,,,,5,,,53,0
46020,note_on,1,0,1,,,,,,,,3,,,84,74
46020,note_on,1,0,8,,,,,,,,5,,,45,72
46020,note_on,0,0,7,,,,,,,,5,,,53,64
46027,note_on,179,0,3,,,,,,,,0,,,58,0
46028,note_on,1,0,3,,,,,,,,0,,,57,70
46040,note_on,0,0,7,,,,,,,,5,,,60,76
46040,note_on,20,0,7,,,,,,,,5,,,58,0
46060,note_on,20,0,7,,,,,,,,5,,,65,0
46060,note_on,0,0,7,,,,,,,,5,,,65,72
46079,note_on,59,0,1,,,,,,,,3,,,84,0
46079,note_on,59,0,8,,,,,,,,5,,,45,0
46080,note_on,1,0,8,,,,,,,,5,,,43,68
46080,note_on,20,0,7,,,,,,,,5,,,53,0
46080,note_on,0,0,7,,,,,,,,5,,,55,64
46080,note_on,1,0,1,,,,,,,,3,,,83,82
46087,note_on,59,0,3,,,,,,,,0,,,57,0
46088,note_on,1,0,3,,,,,,,,0,,,55,78
46100,note_on,0,0,7,,,,,,,,5,,,62,70
46100,note_on,20,0,7,,,,,,,,5,,,60,0
46120,note_on,20,0,7,,,,,,,,5,,,65,0
46120,note_on,0,0,7,,,,,,,,5,,,65,72
46139,note_on,59,0,8,,,,,,,,5,,,43,0
46139,note_on,59,0,1,,,,,,,,3,,,83,0
46140,note_on,0,0,7,,,,,,,,5,,,55,66
46140,note_on,1,0,8,,,,,,,,5,,,37,64
46140,note_on,1,0,1,,,,,,,,3,,,82,66
46140,note_on,20,0,7,,,,,,,,5,,,55,0
46147,note_on,59,0,3,,,,,,,,0,,,55,0
46148,note_on,1,0,3,,,,,,,,0,,,49,68
46160,note_on,0,0,7,,,,,,,,5,,,58,54
46160,note_on,20,0,7,,,,,,,,5,,,62,0
46180,note_on,20,0,7,,,,,,,,5,,,65,0
46180,note_on,0,0,7,,,,,,,,5,,,64,68
46199,note_on,59,0,1,,,,,,,,3,,,82,0
46199,note_on,59,0,8,,,,,,,,5,,,37,0
46200,note_on,0,0,7,,,,,,,,5,,,53,66
46200,note_on,20,0,7,,,,,,,,5,,,55,0
46200,note_on,1,0,8,,,,,,,,5,,,38,80
46200,note_on,1,0,1,,,,,,,,3,,,81,80
46207,note_on,59,0,3,,,,,,,,0,,,49,0
46208,note_on,1,0,3,,,,,,,,0,,,50,74
46220,note_on,0,0,7,,,,,,,,5,,,57,72
46220,note_on,20,0,7,,,,,,,,5,,,58,0
46240,note_on,0,0,7,,,,,,,,5,,,65,72
46240,note_on,20,0,7,,,,,,,,5,,,64,0
46259,note_on,59,0,8,,,,,,,,5,,,38,0
46259,note_on,59,0,1,,,,,,,,3,,,81,0
46260,note_on,0,0,7,,,,,,,,5,,,55,68
46260,note_on,20,0,7,,,,,,,,5,,,53,0
46260,note_on,1,0,8,,,,,,,,5,,,35,82
46260,note_on,1,0,1,,,,,,,,3,,,79,70
46267,note_on,59,0,3,,,,,,,,0,,,50,0
46268,note_on,1,0,3,,,,,,,,0,,,47,68
46280,note_on,20,0,7,,,,,,,,5,,,57,0
46280,note_on,0,0,7,,,,,,,,5,,,62,70
46300,note_on,20,0,7,,,,,,,,5,,,65,0
46300,note_on,0,0,7,,,,,,,,5,,,67,70
46319,note_on,59,0,1,,,,,,,,3,,,79,0
46319,note_on,59,0,8,,,,,,,,5,,,35,0
46320,note_on,0,0,7,,,,,,,,5,,,57,70
46320,note_on,1,0,1,,,,,,,,3,,,77,70
46320,note_on,1,0,8,,,,,,,,5,,,36,70
46320,note_on,20,0,7,,,,,,,,5,,,55,0
46327,note_on,59,0,3,,,,,,,,0,,,47,0
46328,note_on,1,0,3,,,,,,,,0,,,48,72
46340,note_on,20,0,7,,,,,,,,5,,,62,0
46340,note_on,0,0,7,,,,,,,,5,,,60,66
46360,note_on,20,0,7,,,,,,,,5,,,67,0
46360,note_on,0,0,7,,,,,,,,5,,,65,68
46380,note_on,20,0,7,,,,,,,,5,,,57,0
46380,note_on,0,0,7,,,,,,,,5,,,69,53
46400,note_on,0,0,7,,,,,,,,5,,,65,70
46400,note_on,20,0,7,,,,,,,,5,,,60,0
46420,note_on,0,0,7,,,,,,,,5,,,60,68
46420,note_on,20,0,7,,,,,,,,5,,,65,0
46439,note_on,119,0,1,,,,,,,,3,,,77,0
46439,note_on,119,0,8,,,,,,,,5,,,36,0
46440,note_on,0,0,7,,,,,,,,5,,,58,60
46440,note_on,20,0,7,,,,,,,,5,,,69,0
46440,note_on,1,0,8,,,,,,,,5,,,37,62
46440,note_on,1,0,1,,,,,,,,3,,,81,82
46447,note_on,119,0,3,,,,,,,,0,,,48,0
46448,note_on,1,0,3,,,,,,,,0,,,49,63
46460,note_on,0,0,7,,,,,,,,5,,,64,72
46460,note_on,20,0,7,,,,,,,,5,,,65,0
46469,note_on,29,0,1,,,,,,,,3,,,81,0
46470,note_on,1,0,1,,,,,,,,3,,,79,68
46480,note_on,0,0,7,,,,,,,,5,,,67,70
46480,note_on,20,0,7,,,,,,,,5,,,60,0
46500,note_on,0,0,7,,,,,,,,5,,,70,68
46500,note_on,20,0,7,,,,,,,,5,,,58,0
46520,note_on,0,0,7,,,,,,,,5,,,67,70
46520,note_on,20,0,7,,,,,,,,5,,,64,0
46540,note_on,0,0,7,,,,,,,,5,,,64,66
46540,note_on,20,0,7,,,,,,,,5,,,67,0
46559,note_on,119,0,8,,,,,,,,5,,,37,0
46559,note_on,89,0,1,,,,,,,,3,,,79,0
46560,note_on,721,0,2,,,,,,,,6,,,77,68
46560,note_on,20,0,7,,,,,,,,5,,,70,0
46560,note_on,1,0,8,,,,,,,,5,,,38,70
46560,note_on,1,0,1,,,,,,,,3,,,77,70
46560,note_on,0,0,7,,,,,,,,5,,,57,66
46567,note_on,119,0,3,,,,,,,,0,,,49,0
46568,note_on,1,0,3,,,,,,,,0,,,50,80
46580,note_on,20,0,7,,,,,,,,5,,,67,0
46580,note_on,0,0,7,,,,,,,,5,,,62,74
46600,note_on,20,0,7,,,,,,,,5,,,64,0
46600,note_on,0,0,7,,,,,,,,5,,,65,66
46619,note_on,59,0,1,,,,,,,,3,,,77,0
46619,note_on,59,0,8,,,,,,,,5,,,38,0
46620,note_on,781,0,12,,,,,,,,15,,,58,72
46620,note_on,20,0,7,,,,,,,,5,,,57,0
46620,note_on,1,0,1,,,,,,,,3,,,86,80
46620,note_on,1,0,8,,,,,,,,5,,,46,66
46620,note_on,0,0,7,,,,,,,,5,,,58,61
46620,note_on,60,0,2,,,,,,,,6,,,70,68
46627,note_on,59,0,3,,,,,,,,0,,,50,0
46628,note_on,1,0,3,,,,,,,,0,,,62,82
46640,note_on,20,0,7,,,,,,,,5,,,62,0
46640,note_on,0,0,7,,,,,,,,5,,,62,68
46660,note_on,0,0,7,,,,,,,,5,,,65,72
46660,note_on,20,0,7,,,,,,,,5,,,65,0
46680,note_on,20,0,7,,,,,,,,5,,,58,0
46680,note_on,0,0,7,,,,,,,,5,,,58,70
46700,note_on,20,0,7,,,,,,,,5,,,62,0
46700,note_on,0,0,7,,,,,,,,5,,,62,66
46720,note_on,0,0,7,,,,,,,,5,,,65,70
46720,note_on,20,0,7,,,,,,,,5,,,65,0
46739,note_on,119,0,8,,,,,,,,5,,,46,0
46739,note_on,119,0,1,,,,,,,,3,,,86,0
46739,note_on,119,0,12,,,,,,,,15,,,58,0
46739,note_on,119,0,2,,,,,,,,6,,,70,0
46740,note_on,1,0,1,,,,,,,,3,,,84,66
46740,note_on,1,0,12,,,,,,,,15,,,56,68
46740,note_on,1,0,2,,,,,,,,6,,,72,80
46740,note_on,20,0,7,,,,,,,,5,,,58,0
46740,note_on,0,0,7,,,,,,,,5,,,60,76
46740,note_on,1,0,8,,,,,,,,5,,,44,76
46747,note_on,119,0,3,,,,,,,,0,,,62,0
46748,note_on,1,0,3,,,,,,,,0,,,60,72
46760,note_on,20,0,7,,,,,,,,5,,,62,0
46760,note_on,0,0,7,,,,,,,,5,,,65,72
46780,note_on,0,0,7,,,,,,,,5,,,72,68
46780,note_on,20,0,7,,,,,,,,5,,,65,0
46799,note_on,59,0,1,,,,,,,,3,,,84,0
46799,note_on,59,0,12,,,,,,,,15,,,56,0
46799,note_on,59,0,8,,,,,,,,5,,,44,0
46799,note_on,59,0,2,,,,,,,,6,,,72,0
46800,note_on,1,0,8,,,,,,,,5,,,43,78
46800,note_on,1,0,2,,,,,,,,6,,,74,82
46800,note_on,20,0,7,,,,,,,,5,,,60,0
46800,note_on,52,0,3,,,,,,,,0,,,59,82
46800,note_on,0,0,7,,,,,,,,5,,,62,82
46800,note_on,1,0,1,,,,,,,,3,,,83,76
46800,note_on,1,0,12,,,,,,,,15,,,55,74
46807,note_on,7,0,3,,,,,,,,0,,,60,0
46820,note_on,0,0,7,,,,,,,,5,,,65,82
46820,note_on,20,0,7,,,,,,,,5,,,65,0
46840,note_on,0,0,7,,,,,,,,5,,,71,74
46840,note_on,20,0,7,,,,,,,,5,,,72,0
46859,note_on,59,0,1,,,,,,,,3,,,83,0
46859,note_on,59,0,8,,,,,,,,5,,,43,0
46859,note_on,59,0,12,,,,,,,,15,,,55,0
46859,note_on,59,0,2,,,,,,,,6,,,74,0
46859,note_on,52,0,3,,,,,,,,0,,,59,0
46859,note_on,0,0,2,,,,,,,,6,,,77,0
46860,note_on,1,0,2,,,,,,,,6,,,79,76
46860,note_on,1,0,3,,,,,,,,0,,,58,72
46860,note_on,0,0,2,,,,,,,,6,,,76,82
46860,note_on,1,0,8,,,,,,,,5,,,48,82
46860,note_on,1,0,12,,,,,,,,15,,,48,80
46860,note_on,1,0,1,,,,,,,,3,,,82,72
46860,note_on,20,0,7,,,,,,,,5,,,62,0
46860,note_on,0,0,7,,,,,,,,5,,,64,72
46880,note_on,20,0,7,,,,,,,,5,,,65,0
46880,note_on,0,0,7,,,,,,,,5,,,67,82
46900,note_on,0,0,7,,,,,,,,5,,,70,70
46900,note_on,20,0,7,,,,,,,,5,,,71,0
46919,note_on,59,0,1,,,,,,,,3,,,82,0
46919,note_on,59,0,12,,,,,,,,15,,,48,0
46919,note_on,0,0,2,,,,,,,,6,,,79,0
46919,note_on,59,0,2,,,,,,,,6,,,76,0
46919,note_on,59,0,8,,,,,,,,5,,,48,0
46919,note_on,59,0,3,,,,,,,,0,,,58,0
46920,note_on,1,0,12,,,,,,,,15,,,53,74
46920,note_on,1,0,3,,,,,,,,0,,,57,80
46920,note_on,1,0,8,,,,,,,,5,,,41,85
46920,note_on,0,0,7,,,,,,,,5,,,60,78
46920,note_on,20,0,7,,,,,,,,5,,,64,0
46920,note_on,1,0,1,,,,,,,,3,,,81,82
46920,note_on,1,0,2,,,,,,,,6,,,77,78
46940,note_on,0,0,7,,,,,,,,5,,,65,80
46940,note_on,20,0,7,,,,,,,,5,,,67,0
46960,note_on,20,0,7,,,,,,,,5,,,70,0
46960,note_on,0,0,7,,,,,,,,5,,,69,80
46979,note_on,59,0,2,,,,,,,,6,,,77,0
46979,note_on,59,0,3,,,,,,,,0,,,57,0
46980,note_on,1,0,2,,,,,,,,6,,,69,78
46980,note_on,0,0,2,,,,,,,,6,,,75,72
46980,note_on,20,0,7,,,,,,,,5,,,60,0
46980,note_on,0,0,7,,,,,,,,5,,,57,78
47000,note_on,0,0,7,,,,,,,,5,,,63,85
47000,note_on,20,0,7,,,,,,,,5,,,65,0
47020,note_on,0,0,7,,,,,,,,5,,,69,78
47020,note_on,20,0,7,,,,,,,,5,,,69,0
47039,note_on,119,0,12,,,,,,,,15,,,53,0
47039,note_on,0,0,2,,,,,,,,6,,,69,0
47039,note_on,119,0,8,,,,,,,,5,,,41,0
47039,note_on,59,0,2,,,,,,,,6,,,75,0
47039,note_on,119,0,1,,,,,,,,3,,,81,0
47040,note_on,1,0,1,,,,,,,,3,,,80,74
47040,note_on,1,0,8,,,,,,,,5,,,40,85
47040,note_on,1,0,12,,,,,,,,15,,,52,87
47040,note_on,0,0,7,,,,,,,,5,,,59,80
47040,note_on,20,0,7,,,,,,,,5,,,57,0
47040,note_on,1,0,2,,,,,,,,6,,,71,74
47040,note_on,0,0,2,,,,,,,,6,,,71,82
47060,note_on,20,0,7,,,,,,,,5,,,63,0
47060,note_on,0,0,7,,,,,,,,5,,,62,85
47080,note_on,20,0,7,,,,,,,,5,,,69,0
47080,note_on,0,0,7,,,,,,,,5,,,68,76
47099,note_on,59,0,12,,,,,,,,15,,,52,0
47099,note_on,59,0,1,,,,,,,,3,,,80,0
47099,note_on,59,0,8,,,,,,,,5,,,40,0
47099,note_on,59,0,2,,,,,,,,6,,,71,0
47099,note_on,0,0,2,,,,,,,,6,,,71,0
47100,note_on,1,0,8,,,,,,,,5,,,45,82
47100,note_on,1,0,2,,,,,,,,6,,,69,85
47100,note_on,0,0,2,,,,,,,,6,,,73,66
47100,note_on,1,0,12,,,,,,,,15,,,45,70
47100,note_on,1,0,1,,,,,,,,3,,,79,82
47100,note_on,0,0,7,,,,,,,,5,,,61,78
47100,note_on,20,0,7,,,,,,,,5,,,59,0
47120,note_on,20,0,7,,,,,,,,5,,,62,0
47120,note_on,0,0,7,,,,,,,,5,,,64,85
47140,note_on,0,0,7,,,,,,,,5,,,67,87
47140,note_on,20,0,7,,,,,,,,5,,,68,0
47159,note_on,59,0,2,,,,,,,,6,,,73,0
47159,note_on,59,0,8,,,,,,,,5,,,45,0
47159,note_on,59,0,1,,,,,,,,3,,,79,0
47159,note_on,59,0,12,,,,,,,,15,,,45,0
47160,note_on,20,0,7,,,,,,,,5,,,61,0
47160,note_on,0,0,7,,,,,,,,5,,,60,76
47160,note_on,1,0,8,,,,,,,,5,,,38,78
47160,note_on,1,0,2,,,,,,,,6,,,72,78
47160,note_on,1,0,1,,,,,,,,3,,,78,70
47160,note_on,1,0,12,,,,,,,,15,,,50,80
47180,note_on,20,0,7,,,,,,,,5,,,64,0
47180,note_on,0,0,7,,,,,,,,5,,,66,78
47200,note_on,0,0,7,,,,,,,,5,,,69,82
47200,note_on,20,0,7,,,,,,,,5,,,67,0
47219,note_on,59,0,1,,,,,,,,3,,,78,0
47219,note_on,59,0,2,,,,,,,,6,,,72,0
47219,note_on,0,0,2,,,,,,,,6,,,69,0
47219,note_on,59,0,8,,,,,,,,5,,,38,0
47219,note_on,59,0,12,,,,,,,,15,,,50,0
47220,note_on,241,0,3,,,,,,,,0,,,67,82
47220,note_on,1,0,2,,,,,,,,6,,,79,74
47220,note_on,1,0,12,,,,,,,,15,,,52,78
47220,note_on,0,0,2,,,,,,,,6,,,72,82
47220,note_on,1,0,1,,,,,,,,3,,,77,80
47220,note_on,1,0,8,,,,,,,,5,,,40,82
47220,note_on,20,0,7,,,,,,,,5,,,60,0
47220,note_on,0,0,7,,,,,,,,5,,,60,72
47240,note_on,20,0,7,,,,,,,,5,,,66,0
47240,note_on,0,0,7,,,,,,,,5,,,67,85
47260,note_on,0,0,7,,,,,,,,5,,,72,74
47260,note_on,20,0,7,,,,,,,,5,,,69,0
47279,note_on,59,0,1,,,,,,,,3,,,77,0
47279,note_on,59,0,2,,,,,,,,6,,,79,0
47279,note_on,59,0,8,,,,,,,,5,,,40,0
47279,note_on,59,0,12,,,,,,,,15,,,52,0
47279,note_on,59,0,3,,,,,,,,0,,,67,0
47280,note_on,1,0,8,,,,,,,,5,,,38,80
47280,note_on,1,0,2,,,,,,,,6,,,78,64
47280,note_on,1,0,12,,,,,,,,15,,,50,72
47280,note_on,1,0,1,,,,,,,,3,,,81,70
47280,note_on,1,0,3,,,,,,,,0,,,66,70
47280,note_on,0,0,7,,,,,,,,5,,,62,82
47280,note_on,20,0,7,,,,,,,,5,,,60,0
47300,note_on,0,0,7,,,,,,,,5,,,66,78
47300,note_on,20,0,7,,,,,,,,5,,,67,0
47320,note_on,0,0,7,,,,,,,,5,,,72,80
47320,note_on,20,0,7,,,,,,,,5,,,72,0
47339,note_on,59,0,8,,,,,,,,5,,,38,0
47339,note_on,59,0,3,,,,,,,,0,,,66,0
47339,note_on,59,0,12,,,,,,,,15,,,50,0
47339,note_on,0,0,2,,,,,,,,6,,,72,0
47339,note_on,59,0,2,,,,,,,,6,,,78,0
47339,note_on,59,0,1,,,,,,,,3,,,81,0
47340,note_on,0,0,7,,,,,,,,5,,,62,74
47340,note_on,1,0,1,,,,,,,,3,,,83,78
47340,note_on,20,0,7,,,,,,,,5,,,62,0
47340,note_on,1,0,2,,,,,,,,6,,,74,80
47340,note_on,0,0,2,,,,,,,,6,,,77,78
47340,note_on,1,0,3,,,,,,,,0,,,65,76
47340,note_on,1,0,12,,,,,,,,15,,,43,78
47340,note_on,1,0,8,,,,,,,,5,,,43,87
47360,note_on,0,0,7,,,,,,,,5,,,65,82
47360,note_on,20,0,7,,,,,,,,5,,,66,0
47380,note_on,0,0,7,,,,,,,,5,,,71,82
47380,note_on,20,0,7,,,,,,,,5,,,72,0
47399,note_on,59,0,8,,,,,,,,5,,,43,0
47399,note_on,59,0,1,,,,,,,,3,,,83,0
47399,note_on,59,0,12,,,,,,,,15,,,43,0
47399,note_on,59,0,3,,,,,,,,0,,,65,0
47399,note_on,59,0,2,,,,,,,,6,,,77,0
47399,note_on,0,0,2,,,,,,,,6,,,74,0
47400,note_on,1,0,1,,,,,,,,3,,,84,80
47400,note_on,1,0,12,,,,,,,,15,,,48,76
47400,note_on,1,0,3,,,,,,,,0,,,64,82
47400,note_on,1,0,8,,,,,,,,5,,,48,80
47400,note_on,20,0,7,,,,,,,,5,,,62,0
47400,note_on,0,0,2,,,,,,,,6,,,72,78
47400,note_on,1,0,2,,,,,,,,6,,,76,82
47400,note_on,0,0,7,,,,,,,,5,,,72,82
47420,note_on,20,0,8,,,,,,,,5,,,52,80
47420,note_on,20,0,7,,,,,,,,5,,,65,0
47440,note_on,20,0,8,,,,,,,,5,,,55,70
47440,note_on,20,0,7,,,,,,,,5,,,71,0
47459,note_on,0,0,2,,,,,,,,6,,,76,0
47459,note_on,59,0,3,,,,,,,,0,,,64,0
47459,note_on,59,0,12,,,,,,,,15,,,48,0
47459,note_on,19,0,7,,,,,,,,5,,,72,0
47459,note_on,59,0,1,,,,,,,,3,,,84,0
47459,note_on,59,0,2,,,,,,,,6,,,72,0
47460,note_on,0,0,7,,,,,,,,5,,,72,82
47460,note_on,1,0,12,,,,,,,,15,,,60,80
47460,note_on,1,0,1,,,,,,,,3,,,87,76
47460,note_on,0,0,8,,,,,,,,5,,,60,68
47460,note_on,20,0,8,,,,,,,,5,,,48,0
47460,note_on,1,0,7,,,,,,,,5,,,67,78
47460,note_on,0,0,7,,,,,,,,5,,,75,78
47460,note_on,0,0,2,,,,,,,,6,,,75,70
47460,note_on,1,0,2,,,,,,,,6,,,72,78
47460,note_on,1,0,3,,,,,,,,0,,,63,76
47480,note_on,0,0,8,,,,,,,,5,,,59,76
47480,note_on,20,0,8,,,,,,,,5,,,52,0
47490,note_on,30,0,12,,,,,,,,15,,,60,0
47500,note_on,20,0,8,,,,,,,,5,,,55,0
47500,note_on,0,0,8,,,,,,,,5,,,60,78
47519,note_on,59,0,3,,,,,,,,0,,,63,0
47519,note_on,59,0,1,,,,,,,,3,,,87,0
47519,note_on,0,0,2,,,,,,,,6,,,72,0
47519,note_on,59,0,2,,,,,,,,6,,,75,0
47519,note_on,59,0,7,,,,,,,,5,,,72,0
47519,note_on,0,0,7,,,,,,,,5,,,75,0
47519,note_on,0,0,7,,,,,,,,5,,,67,0
47520,note_on,1,0,3,,,,,,,,0,,,62,72
47520,note_on,20,0,8,,,,,,,,5,,,60,0
47520,note_on,0,0,8,,,,,,,,5,,,46,68
47520,note_on,0,0,2,,,,,,,,6,,,74,76
47520,note_on,8281,0,11,,,,,,,,14,,,62,78
47520,note_on,8281,0,10,,,,,,,,13,,,67,68
47520,note_on,8281,0,9,,,,,,,,12,,,79,80
47520,note_on,30,0,12,,,,,,,,15,,,58,70
47520,note_on,0,0,2,,,,,,,,6,,,67,85
47520,note_on,1,0,2,,,,,,,,6,,,74,72
47520,note_on,1,0,1,,,,,,,,3,,,86,72
47540,note_on,0,0,8,,,,,,,,5,,,50,76
47540,note_on,20,0,8,,,,,,,,5,,,59,0
47560,note_on,20,0,8,,,,,,,,5,,,60,0
47560,note_on,0,0,8,,,,,,,,5,,,55,76
47579,note_on,59,0,2,,,,,,,,6,,,74,0
47579,note_on,0,0,2,,,,,,,,6,,,74,0
47579,note_on,59,0,3,,,,,,,,0,,,62,0
47580,note_on,60,0,11,,,,,,,,14,,,62,0
47580,note_on,61,0,7,,,,,,,,5,,,70,85
47580,note_on,0,0,7,,,,,,,,5,,,79,82
47580,note_on,0,0,7,,,,,,,,5,,,74,89
47580,note_on,60,0,12,,,,,,,,15,,,56,64
47580,note_on,20,0,8,,,,,,,,5,,,46,0
47580,note_on,0,0,8,,,,,,,,5,,,58,78
47580,note_on,60,0,10,,,,,,,,13,,,67,0
47580,note_on,60,0,9,,,,,,,,12,,,79,0
47580,note_on,1,0,2,,,,,,,,6,,,79,80
47580,note_on,1,0,3,,,,,,,,0,,,46,76
47600,note_on,20,0,8,,,,,,,,5,,,50,0
47600,note_on,0,0,8,,,,,,,,5,,,57,72
47620,note_on,0,0,8,,,,,,,,5,,,58,68
47620,note_on,20,0,8,,,,,,,,5,,,55,0
47639,note_on,119,0,1,,,,,,,,3,,,86,0
47639,note_on,59,0,2,,,,,,,,6,,,67,0
47639,note_on,59,0,3,,,,,,,,0,,,46,0
47640,note_on,0,0,7,,,,,,,,5,,,70,0
47640,note_on,60,0,9,,,,,,,,12,,,84,68
47640,note_on,1,0,3,,,,,,,,0,,,44,80
47640,note_on,1,0,1,,,,,,,,3,,,84,70
47640,note_on,20,0,8,,,,,,,,5,,,58,0
47640,note_on,60,0,11,,,,,,,,14,,,68,72
47640,note_on,60,0,7,,,,,,,,5,,,74,0
47640,note_on,0,0,7,,,,,,,,5,,,79,0
47640,note_on,60,0,12,,,,,,,,15,,,58,0
47640,note_on,0,0,12,,,,,,,,15,,,55,85
47640,note_on,60,0,10,,,,,,,,13,,,75,68
47640,note_on,0,0,8,,,,,,,,5,,,44,80
47660,note_on,0,0,8,,,,,,,,5,,,48,82
47660,note_on,20,0,8,,,,,,,,5,,,57,0
47680,note_on,20,0,8,,,,,,,,5,,,58,0
47680,note_on,0,0,8,,,,,,,,5,,,51,70
47699,note_on,59,0,3,,,,,,,,0,,,44,0
47699,note_on,60,0,2,,,,,,,,6,,,79,0
47700,note_on,0,0,7,,,,,,,,5,,,72,82
47700,note_on,20,0,8,,,,,,,,5,,,44,0
47700,note_on,0,0,7,,,,,,,,5,,,77,91
47700,note_on,0,0,8,,,,,,,,5,,,56,76
47700,note_on,60,0,7,,,,,,,,5,,,84,87
47700,note_on,1,0,3,,,,,,,,0,,,60,80
47700,note_on,60,0,11,,,,,,,,14,,,68,0
47700,note_on,60,0,12,,,,,,,,15,,,56,0
47700,note_on,0,0,12,,,,,,,,15,,,53,78
47700,note_on,60,0,10,,,,,,,,13,,,75,0
47700,note_on,1,0,2,,,,,,,,6,,,77,74
47700,note_on,60,0,9,,,,,,,,12,,,84,0
47720,note_on,20,0,8,,,,,,,,5,,,48,0
47720,note_on,0,0,8,,,,,,,,5,,,55,78
47740,note_on,20,0,8,,,,,,,,5,,,51,0
47740,note_on,0,0,8,,,,,,,,5,,,56,70
47759,note_on,119,0,1,,,,,,,,3,,,84,0
47759,note_on,59,0,3,,,,,,,,0,,,60,0
47760,note_on,60,0,9,,,,,,,,12,,,70,68
47760,note_on,0,0,12,,,,,,,,15,,,51,70
47760,note_on,60,0,7,,,,,,,,5,,,77,0
47760,note_on,20,0,8,,,,,,,,5,,,56,0
47760,note_on,60,0,11,,,,,,,,14,,,58,68
47760,note_on,1,0,3,,,,,,,,0,,,58,70
47760,note_on,60,0,12,,,,,,,,15,,,55,0
47760,note_on,1,0,1,,,,,,,,3,,,82,72
47760,note_on,0,0,7,,,,,,,,5,,,84,0
47760,note_on,0,0,7,,,,,,,,5,,,72,0
47760,note_on,0,0,8,,,,,,,,5,,,43,85
47760,note_on,60,0,10,,,,,,,,13,,,67,63
47780,note_on,20,0,8,,,,,,,,5,,,55,0
47780,note_on,0,0,8,,,,,,,,5,,,46,74
47800,note_on,0,0,8,,,,,,,,5,,,51,76
47800,note_on,20,0,8,,,,,,,,5,,,56,0
47819,note_on,119,0,2,,,,,,,,6,,,77,0
47819,note_on,59,0,3,,,,,,,,0,,,58,0
47820,note_on,0,0,7,,,,,,,,5,,,75,87
47820,note_on,1,0,3,,,,,,,,0,,,43,85
47820,note_on,0,0,7,,,,,,,,5,,,70,85
47820,note_on,0,0,8,,,,,,,,5,,,55,78
47820,note_on,60,0,9,,,,,,,,12,,,70,0
47820,note_on,60,0,11,,,,,,,,14,,,58,0
47820,note_on,20,0,8,,,,,,,,5,,,43,0
47820,note_on,1,0,2,,,,,,,,6,,,75,74
47820,note_on,60,0,7,,,,,,,,5,,,67,89
47820,note_on,0,0,12,,,,,,,,15,,,50,72
47820,note_on,60,0,12,,,,,,,,15,,,53,0
47820,note_on,60,0,10,,,,,,,,13,,,67,0
47840,note_on,20,0,8,,,,,,,,5,,,46,0
47840,note_on,0,0,8,,,,,,,,5,,,53,80
47860,note_on,0,0,8,,,,,,,,5,,,55,76
47860,note_on,20,0,8,,,,,,,,5,,,51,0
47879,note_on,119,0,1,,,,,,,,3,,,82,0
47879,note_on,59,0,3,,,,,,,,0,,,43,0
47880,note_on,0,0,12,,,,,,,,15,,,48,82
47880,note_on,60,0,12,,,,,,,,15,,,51,0
47880,note_on,20,0,8,,,,,,,,5,,,55,0
47880,note_on,60,0,10,,,,,,,,13,,,72,66
47880,note_on,0,0,7,,,,,,,,5,,,67,0
47880,note_on,60,0,11,,,,,,,,14,,,65,70
47880,note_on,1,0,3,,,,,,,,0,,,41,80
47880,note_on,1,0,1,,,,,,,,3,,,80,76
47880,note_on,0,0,7,,,,,,,,5,,,70,0
47880,note_on,60,0,7,,,,,,,,5,,,75,0
47880,note_on,0,0,8,,,,,,,,5,,,41,82
47880,note_on,60,0,9,,,,,,,,12,,,80,76
47900,note_on,20,0,8,,,,,,,,5,,,53,0
47900,note_on,0,0,8,,,,,,,,5,,,44,76
47920,note_on,20,0,8,,,,,,,,5,,,55,0
47920,note_on,0,0,8,,,,,,,,5,,,50,80
47939,note_on,59,0,3,,,,,,,,0,,,41,0
47939,note_on,119,0,2,,,,,,,,6,,,75,0
47940,note_on,20,0,8,,,,,,,,5,,,41,0
47940,note_on,0,0,12,,,,,,,,15,,,46,72
47940,note_on,60,0,10,,,,,,,,13,,,72,0
47940,note_on,0,0,7,,,,,,,,5,,,68,78
47940,note_on,60,0,7,,,,,,,,5,,,80,89
47940,note_on,60,0,12,,,,,,,,15,,,50,0
47940,note_on,0,0,7,,,,,,,,5,,,74,93
47940,note_on,60,0,11,,,,,,,,14,,,65,0
47940,note_on,60,0,9,,,,,,,,12,,,80,0
47940,note_on,1,0,3,,,,,,,,0,,,56,68
47940,note_on,0,0,8,,,,,,,,5,,,53,85
47940,note_on,1,0,2,,,,,,,,6,,,74,70
47960,note_on,20,0,8,,,,,,,,5,,,44,0
47960,note_on,0,0,8,,,,,,,,5,,,52,82
47980,note_on,0,0,8,,,,,,,,5,,,53,78
47980,note_on,20,0,8,,,,,,,,5,,,50,0
47999,note_on,119,0,1,,,,,,,,3,,,80,0
47999,note_on,59,0,3,,,,,,,,0,,,56,0
48000,note_on,60,0,11,,,,,,,,14,,,55,70
48000,note_on,1,0,3,,,,,,,,0,,,55,76
48000,note_on,60,0,9,,,,,,,,12,,,67,80
48000,note_on,0,0,12,,,,,,,,15,,,44,80
48000,note_on,1,0,1,,,,,,,,3,,,79,80
48000,note_on,60,0,10,,,,,,,,13,,,63,70
48000,note_on,0,0,7,,,,,,,,5,,,68,0
48000,note_on,0,0,8,,,,,,,,5,,,39,68
48000,note_on,60,0,12,,,,,,,,15,,,48,0
48000,note_on,20,0,8,,,,,,,,5,,,53,0
48000,note_on,60,0,7,,,,,,,,5,,,74,0
48000,note_on,0,0,7,,,,,,,,5,,,80,0
48020,note_on,20,0,8,,,,,,,,5,,,52,0
48020,note_on,0,0,8,,,,,,,,5,,,43,85
48040,note_on,20,0,8,,,,,,,,5,,,53,0
48040,note_on,0,0,8,,,,,,,,5,,,48,76
48059,note_on,119,0,2,,,,,,,,6,,,74,0
48059,note_on,59,0,3,,,,,,,,0,,,55,0
48060,note_on,60,0,11,,,,,,,,14,,,55,0
48060,note_on,1,0,3,,,,,,,,0,,,39,78
48060,note_on,60,0,10,,,,,,,,13,,,63,0
48060,note_on,60,0,12,,,,,,,,15,,,46,0
48060,note_on,0,0,7,,,,,,,,5,,,67,89
48060,note_on,0,0,8,,,,,,,,5,,,51,74
48060,note_on,0,0,7,,,,,,,,5,,,63,70
48060,note_on,20,0,8,,,,,,,,5,,,39,0
48060,note_on,60,0,9,,,,,,,,12,,,67,0
48060,note_on,60,0,7,,,,,,,,5,,,72,82
48060,note_on,1,0,2,,,,,,,,6,,,72,70
48080,note_on,0,0,8,,,,,,,,5,,,50,76
48080,note_on,20,0,8,,,,,,,,5,,,43,0
48100,note_on,0,0,8,,,,,,,,5,,,51,70
48100,note_on,20,0,8,,,,,,,,5,,,48,0
48119,note_on,59,0,3,,,,,,,,0,,,39,0
48119,note_on,119,0,1,,,,,,,,3,,,79,0
48120,note_on,0,0,7,,,,,,,,5,,,72,0
48120,note_on,60,0,10,,,,,,,,13,,,65,68
48120,note_on,60,0,7,,,,,,,,5,,,67,0
48120,note_on,1,0,1,,,,,,,,3,,,77,82
48120,note_on,0,0,7,,,,,,,,5,,,63,0
48120,note_on,60,0,11,,,,,,,,14,,,62,70
48120,note_on,1,0,3,,,,,,,,0,,,38,82
48120,note_on,0,0,8,,,,,,,,5,,,38,76
48120,note_on,20,0,8,,,,,,,,5,,,51,0
48120,note_on,60,0,9,,,,,,,,12,,,77,80
48140,note_on,20,0,8,,,,,,,,5,,,50,0
48140,note_on,0,0,8,,,,,,,,5,,,41,80
48160,note_on,20,0,8,,,,,,,,5,,,51,0
48160,note_on,0,0,8,,,,,,,,5,,,47,70
48179,note_on,59,0,3,,,,,,,,0,,,38,0
48179,note_on,119,0,2,,,,,,,,6,,,72,0
48179,note_on,59,0,1,,,,,,,,3,,,77,0
48180,note_on,60,0,11,,,,,,,,14,,,62,0
48180,note_on,0,0,8,,,,,,,,5,,,50,72
48180,note_on,1,0,2,,,,,,,,6,,,71,80
48180,note_on,20,0,8,,,,,,,,5,,,38,0
48180,note_on,60,0,7,,,,,,,,5,,,77,87
48180,note_on,0,0,7,,,,,,,,5,,,65,85
48180,note_on,0,0,7,,,,,,,,5,,,71,95
48180,note_on,60,0,10,,,,,,,,13,,,65,0
48180,note_on,1,0,1,,,,,,,,3,,,89,72
48180,note_on,1,0,3,,,,,,,,0,,,53,82
48180,note_on,60,0,9,,,,,,,,12,,,77,0
48200,note_on,20,0,8,,,,,,,,5,,,41,0
48200,note_on,0,0,8,,,,,,,,5,,,48,82
48220,note_on,20,0,8,,,,,,,,5,,,47,0
48220,note_on,0,0,8,,,,,,,,5,,,50,74
48239,note_on,59,0,3,,,,,,,,0,,,53,0
48239,note_on,59,0,2,,,,,,,,6,,,71,0
48240,note_on,1,0,3,,,,,,,,0,,,36,85
48240,note_on,60,0,7,,,,,,,,5,,,71,0
48240,note_on,60,0,10,,,,,,,,13,,,55,70
48240,note_on,0,0,7,,,,,,,,5,,,77,0
48240,note_on,60,0,9,,,,,,,,12,,,60,80
48240,note_on,60,0,11,,,,,,,,14,,,48,80
48240,note_on,0,0,7,,,,,,,,5,,,65,0
48240,note_on,20,0,8,,,,,,,,5,,,50,0
48240,note_on,0,0,8,,,,,,,,5,,,36,85
48240,note_on,1,0,2,,,,,,,,6,,,72,80
48260,note_on,20,0,8,,,,,,,,5,,,48,0
48260,note_on,0,0,8,,,,,,,,5,,,39,72
48280,note_on,20,0,8,,,,,,,,5,,,50,0
48280,note_on,0,0,8,,,,,,,,5,,,43,76
48299,note_on,59,0,3,,,,,,,,0,,,36,0
48299,note_on,119,0,1,,,,,,,,3,,,89,0
48300,note_on,0,0,7,,,,,,,,5,,,75,87
48300,note_on,60,0,11,,,,,,,,14,,,48,0
48300,note_on,1,0,3,,,,,,,,0,,,48,80
48300,note_on,60,0,9,,,,,,,,12,,,60,0
48300,note_on,1,0,1,,,,,,,,3,,,87,70
48300,note_on,60,0,10,,,,,,,,13,,,55,0
48300,note_on,20,0,8,,,,,,,,5,,,36,0
48300,note_on,0,0,8,,,,,,,,5,,,48,82
48300,note_on,0,0,7,,,,,,,,5,,,72,89
48300,note_on,60,0,7,,,,,,,,5,,,67,87
48320,note_on,0,0,8,,,,,,,,5,,,47,68
48320,note_on,20,0,8,,,,,,,,5,,,39,0
48340,note_on,20,0,8,,,,,,,,5,,,43,0
48340,note_on,0,0,8,,,,,,,,5,,,48,74
48359,note_on,59,0,3,,,,,,,,0,,,48,0
48359,note_on,119,0,2,,,,,,,,6,,,72,0
48360,note_on,0,0,7,,,,,,,,5,,,75,0
48360,note_on,60,0,7,,,,,,,,5,,,72,0
48360,note_on,60,0,11,,,,,,,,14,,,67,68
48360,note_on,0,0,8,,,,,,,,5,,,34,80
48360,note_on,20,0,8,,,,,,,,5,,,48,0
48360,note_on,1,0,2,,,,,,,,6,,,79,82
48360,note_on,1,0,3,,,,,,,,0,,,46,76
48360,note_on,60,0,10,,,,,,,,13,,,70,70
48360,note_on,60,0,9,,,,,,,,12,,,79,76
48360,note_on,0,0,7,,,,,,,,5,,,67,0
48380,note_on,20,0,8,,,,,,,,5,,,47,0
48380,note_on,0,0,8,,,,,,,,5,,,38,72
48400,note_on,0,0,8,,,,,,,,5,,,43,76
48400,note_on,20,0,8,,,,,,,,5,,,48,0
48419,note_on,119,0,1,,,,,,,,3,,,87,0
48419,note_on,59,0,3,,,,,,,,0,,,46,0
48420,note_on,60,0,11,,,,,,,,14,,,67,0
48420,note_on,60,0,10,,,,,,,,13,,,70,0
48420,note_on,1,0,1,,,,,,,,3,,,86,85
48420,note_on,1,0,3,,,,,,,,0,,,58,78
48420,note_on,0,0,7,,,,,,,,5,,,62,87
48420,note_on,60,0,7,,,,,,,,5,,,74,87
48420,note_on,0,0,7,,,,,,,,5,,,67,91
48420,note_on,0,0,8,,,,,,,,5,,,46,76
48420,note_on,60,0,9,,,,,,,,12,,,79,0
48420,note_on,20,0,8,,,,,,,,5,,,34,0
48440,note_on,0,0,8,,,,,,,,5,,,44,80
48440,note_on,20,0,8,,,,,,,,5,,,38,0
48460,note_on,0,0,8,,,,,,,,5,,,46,64
48460,note_on,20,0,8,,,,,,,,5,,,43,0
48479,note_on,0,0,7,,,,,,,,5,,,74,0
48479,note_on,0,0,7,,,,,,,,5,,,62,0
48479,note_on,59,0,3,,,,,,,,0,,,58,0
48479,note_on,59,0,7,,,,,,,,5,,,67,0
48479,note_on,59,0,1,,,,,,,,3,,,86,0
48480,note_on,60,0,10,,,,,,,,13,,,60,74
48480,note_on,1,0,1,,,,,,,,3,,,84,85
48480,note_on,1,0,7,,,,,,,,5,,,72,82
48480,note_on,1,0,3,,,,,,,,0,,,44,82
48480,note_on,0,0,8,,,,,,,,5,,,32,74
48480,note_on,60,0,9,,,,,,,,12,,,67,68
48480,note_on,60,0,11,,,,,,,,14,,,51,68
48480,note_on,20,0,8,,,,,,,,5,,,46,0
48500,note_on,20,0,7,,,,,,,,5,,,67,70
48500,note_on,20,0,8,,,,,,,,5,,,44,0
48500,note_on,0,0,8,,,,,,,,5,,,36,76
48520,note_on,20,0,8,,,,,,,,5,,,46,0
48520,note_on,0,0,8,,,,,,,,5,,,39,74
48520,note_on,20,0,7,,,,,,,,5,,,63,66
48540,note_on,0,0,8,,,,,,,,5,,,44,72
48540,note_on,20,0,8,,,,,,,,5,,,32,0
48540,note_on,20,0,7,,,,,,,,5,,,72,0
48540,note_on,0,0,7,,,,,,,,5,,,60,82
48560,note_on,0,0,8,,,,,,,,5,,,39,74
48560,note_on,20,0,8,,,,,,,,5,,,36,0
48560,note_on,20,0,7,,,,,,,,5,,,67,0
48560,note_on,0,0,7,,,,,,,,5,,,59,72
48580,note_on,20,0,8,,,,,,,,5,,,39,0
48580,note_on,0,0,7,,,,,,,,5,,,60,76
48580,note_on,20,0,7,,,,,,,,5,,,63,0
48580,note_on,0,0,8,,,,,,,,5,,,36,80
48599,note_on,119,0,3,,,,,,,,0,,,44,0
48600,note_on,20,0,8,,,,,,,,5,,,44,0
48600,note_on,20,0,7,,,,,,,,5,,,60,0
48600,note_on,0,0,8,,,,,,,,5,,,32,70
48600,note_on,0,0,7,,,,,,,,5,,,72,80
48620,note_on,20,0,7,,,,,,,,5,,,59,0
48620,note_on,0,0,7,,,,,,,,5,,,67,78
48620,note_on,20,0,8,,,,,,,,5,,,39,0
48620,note_on,0,0,8,,,,,,,,5,,,36,59
48640,note_on,20,0,8,,,,,,,,5,,,36,0
48640,note_on,0,0,8,,,,,,,,5,,,39,70
48640,note_on,20,0,7,,,,,,,,5,,,60,0
48640,note_on,0,0,7,,,,,,,,5,,,63,78
48659,note_on,179,0,1,,,,,,,,3,,,84,0
48660,note_on,20,0,8,,,,,,,,5,,,32,0
48660,note_on,0,0,8,,,,,,,,5,,,44,70
48660,note_on,1,0,1,,,,,,,,3,,,87,74
48660,note_on,0,0,7,,,,,,,,5,,,60,74
48660,note_on,20,0,7,,,,,,,,5,,,72,0
48680,note_on,20,0,8,,,,,,,,5,,,36,0
48680,note_on,20,0,7,,,,,,,,5,,,67,0
48680,note_on,0,0,7,,,,,,,,5,,,59,78
48680,note_on,0,0,8,,,,,,,,5,,,39,68
48700,note_on,20,0,8,,,,,,,,5,,,39,0
48700,note_on,0,0,8,,,,,,,,5,,,36,78
48700,note_on,0,0,7,,,,,,,,5,,,60,72
48700,note_on,20,0,7,,,,,,,,5,,,63,0
48719,note_on,59,0,1,,,,,,,,3,,,87,0
48720,note_on,20,0,7,,,,,,,,5,,,60,0
48720,note_on,121,0,3,,,,,,,,0,,,60,82
48720,note_on,0,0,7,,,,,,,,5,,,72,78
48720,note_on,20,0,8,,,,,,,,5,,,44,0
48720,note_on,0,0,8,,,,,,,,5,,,32,78
48720,note_on,1,0,1,,,,,,,,3,,,86,87
48740,note_on,0,0,7,,,,,,,,5,,,67,82
48740,note_on,20,0,8,,,,,,,,5,,,39,0
48740,note_on,20,0,7,,,,,,,,5,,,59,0
48740,note_on,0,0,8,,,,,,,,5,,,36,66
48760,note_on,0,0,7,,,,,,,,5,,,63,70
48760,note_on,20,0,7,,,,,,,,5,,,60,0
48760,note_on,0,0,8,,,,,,,,5,,,39,70
48760,note_on,20,0,8,,,,,,,,5,,,36,0
48779,note_on,59,0,1,,,,,,,,3,,,86,0
48780,note_on,20,0,8,,,,,,,,5,,,32,0
48780,note_on,20,0,7,,,,,,,,5,,,72,0
48780,note_on,0,0,8,,,,,,,,5,,,44,66
48780,note_on,1,0,1,,,,,,,,3,,,84,85
48780,note_on,0,0,7,,,,,,,,5,,,60,80
48800,note_on,0,0,8,,,,,,,,5,,,39,74
48800,note_on,20,0,8,,,,,,,,5,,,36,0
48800,note_on,20,0,7,,,,,,,,5,,,67,0
48800,note_on,0,0,7,,,,,,,,5,,,59,70
48820,note_on,0,0,8,,,,,,,,5,,,36,78
48820,note_on,0,0,7,,,,,,,,5,,,60,78
48820,note_on,20,0,7,,,,,,,,5,,,63,0
48820,note_on,20,0,8,,,,,,,,5,,,39,0
48839,note_on,59,0,1,,,,,,,,3,,,84,0
48840,note_on,0,0,7,,,,,,,,5,,,72,76
48840,note_on,20,0,7,,,,,,,,5,,,60,0
48840,note_on,0,0,8,,,,,,,,5,,,32,70
48840,note_on,20,0,8,,,,,,,,5,,,44,0
48860,note_on,0,0,7,,,,,,,,5,,,67,85
48860,note_on,20,0,8,,,,,,,,5,,,39,0
48860,note_on,0,0,8,,,,,,,,5,,,36,72
48860,note_on,20,0,7,,,,,,,,5,,,59,0
48880,note_on,20,0,8,,,,,,,,5,,,36,0
48880,note_on,0,0,8,,,,,,,,5,,,39,70
48880,note_on,0,0,7,,,,,,,,5,,,63,68
48880,note_on,20,0,7,,,,,,,,5,,,60,0
48899,note_on,179,0,3,,,,,,,,0,,,60,0
48900,note_on,20,0,7,,,,,,,,5,,,72,0
48900,note_on,0,0,8,,,,,,,,5,,,44,61
48900,note_on,0,0,7,,,,,,,,5,,,60,68
48900,note_on,1,0,3,,,,,,,,0,,,63,70
48900,note_on,20,0,8,,,,,,,,5,,,32,0
48920,note_on,20,0,8,,,,,,,,5,,,36,0
48920,note_on,20,0,7,,,,,,,,5,,,67,0
48920,note_on,0,0,7,,,,,,,,5,,,59,68
48920,note_on,0,0,8,,,,,,,,5,,,39,63
48940,note_on,20,0,7,,,,,,,,5,,,63,0
48940,note_on,0,0,7,,,,,,,,5,,,60,74
48940,note_on,20,0,8,,,,,,,,5,,,39,0
48940,note_on,0,0,8,,,,,,,,5,,,36,74
48959,note_on,59,0,3,,,,,,,,0,,,63,0
48959,note_on,899,0,12,,,,,,,,15,,,44,0
48960,note_on,20,0,7,,,,,,,,5,,,60,0
48960,note_on,0,0,7,,,,,,,,5,,,72,78
48960,note_on,121,0,1,,,,,,,,3,,,84,80
48960,note_on,20,0,8,,,,,,,,5,,,44,0
48960,note_on,0,0,8,,,,,,,,5,,,32,72
48960,note_on,1,0,12,,,,,,,,15,,,43,82
48960,note_on,1,0,3,,,,,,,,0,,,62,87
48980,note_on,0,0,7,,,,,,,,5,,,67,76
48980,note_on,20,0,7,,,,,,,,5,,,59,0
48980,note_on,0,0,8,,,,,,,,5,,,36,70
48980,note_on,20,0,8,,,,,,,,5,,,39,0
49000,note_on,20,0,7,,,,,,,,5,,,60,0
49000,note_on,0,0,7,,,,,,,,5,,,63,72
49000,note_on,0,0,8,,,,,,,,5,,,39,72
49000,note_on,20,0,8,,,,,,,,5,,,36,0
49019,note_on,59,0,3,,,,,,,,0,,,62,0
49020,note_on,0,0,7,,,,,,,,5,,,60,82
49020,note_on,1,0,3,,,,,,,,0,,,60,80
49020,note_on,20,0,7,,,,,,,,5,,,72,0
49020,note_on,20,0,8,,,,,,,,5,,,32,0
49020,note_on,0,0,8,,,,,,,,5,,,44,64
49040,note_on,20,0,7,,,,,,,,5,,,67,0
49040,note_on,20,0,8,,,,,,,,5,,,36,0
49040,note_on,0,0,8,,,,,,,,5,,,39,70
49040,note_on,0,0,7,,,,,,,,5,,,59,72
49060,note_on,20,0,7,,,,,,,,5,,,63,0
49060,note_on,0,0,7,,,,,,,,5,,,60,70
49060,note_on,20,0,8,,,,,,,,5,,,39,0
49060,note_on,0,0,8,,,,,,,,5,,,36,72
49079,note_on,59,0,3,,,,,,,,0,,,60,0
49079,note_on,119,0,12,,,,,,,,15,,,43,0
49080,note_on,0,0,7,,,,,,,,5,,,72,78
49080,note_on,20,0,7,,,,,,,,5,,,60,0
49080,note_on,0,0,8,,,,,,,,5,,,32,68
49080,note_on,20,0,8,,,,,,,,5,,,44,0
49100,note_on,20,0,7,,,,,,,,5,,,59,0
49100,note_on,0,0,8,,,,,,,,5,,,36,70
49100,note_on,20,0,8,,,,,,,,5,,,39,0
49100,note_on,0,0,7,,,,,,,,5,,,67,85
49120,note_on,20,0,7,,,,,,,,5,,,60,0
49120,note_on,0,0,7,,,,,,,,5,,,63,66
49120,note_on,0,0,8,,,,,,,,5,,,39,68
49120,note_on,20,0,8,,,,,,,,5,,,36,0
49139,note_on,179,0,1,,,,,,,,3,,,84,0
49140,note_on,20,0,7,,,,,,,,5,,,72,0
49140,note_on,1,0,1,,,,,,,,3,,,87,74
49140,note_on,0,0,7,,,,,,,,5,,,60,70
49140,note_on,20,0,8,,,,,,,,5,,,32,0
49140,note_on,0,0,8,,,,,,,,5,,,44,64
49160,note_on,20,0,7,,,,,,,,5,,,67,0
49160,note_on,0,0,8,,,,,,,,5,,,39,72
49160,note_on,20,0,8,,,,,,,,5,,,36,0
49160,note_on,0,0,7,,,,,,,,5,,,59,64
49180,note_on,0,0,7,,,,,,,,5,,,60,80
49180,note_on,20,0,8,,,,,,,,5,,,39,0
49180,note_on,0,0,8,,,,,,,,5,,,36,76
49180,note_on,20,0,7,,,,,,,,5,,,63,0
49199,note_on,59,0,1,,,,,,,,3,,,87,0
49199,note_on,719,0,9,,,,,,,,12,,,67,0
49199,note_on,839,0,2,,,,,,,,6,,,79,0
49200,note_on,0,0,8,,,,,,,,5,,,44,62
49200,note_on,20,0,8,,,,,,,,5,,,44,0
49200,note_on,0,0,8,,,,,,,,5,,,32,78
49200,note_on,1,0,2,,,,,,,,6,,,78,76
49200,note_on,1,0,1,,,,,,,,3,,,86,87
49200,note_on,20,0,7,,,,,,,,5,,,60,0
49200,note_on,0,0,7,,,,,,,,5,,,84,82
49200,note_on,1,0,9,,,,,,,,12,,,66,68
49220,note_on,0,0,7,,,,,,,,5,,,78,82
49220,note_on,20,0,7,,,,,,,,5,,,59,0
49220,note_on,20,0,8,,,,,,,,5,,,39,0
49240,note_on,20,0,8,,,,,,,,5,,,36,0
49240,note_on,0,0,7,,,,,,,,5,,,72,82
49240,note_on,20,0,7,,,,,,,,5,,,60,0
49259,note_on,59,0,1,,,,,,,,3,,,86,0
49260,note_on,1,0,1,,,,,,,,3,,,84,78
49260,note_on,181,0,3,,,,,,,,0,,,63,72
49260,note_on,0,0,7,,,,,,,,5,,,78,70
49260,note_on,20,0,7,,,,,,,,5,,,84,0
49280,note_on,20,0,7,,,,,,,,5,,,78,0
49280,note_on,0,0,7,,,,,,,,5,,,72,80
49300,note_on,0,0,7,,,,,,,,5,,,66,78
49300,note_on,20,0,7,,,,,,,,5,,,72,0
49319,note_on,59,0,3,,,,,,,,0,,,63,0
49319,note_on,119,0,2,,,,,,,,6,,,78,0
49320,note_on,1,0,3,,,,,,,,0,,,62,85
49320,note_on,0,0,11,,,,,,,,14,,,50,69
49320,note_on,840,0,11,,,,,,,,14,,,51,0
49320,note_on,1,0,2,,,,,,,,6,,,72,72
49320,note_on,20,0,7,,,,,,,,5,,,78,0
49320,note_on,0,0,7,,,,,,,,5,,,72,80
49340,note_on,0,0,7,,,,,,,,5,,,66,82
49340,note_on,20,0,7,,,,,,,,5,,,72,0
49360,note_on,20,0,7,,,,,,,,5,,,66,0
49360,note_on,0,0,7,,,,,,,,5,,,60,80
49379,note_on,119,0,1,,,,,,,,3,,,84,0
49379,note_on,59,0,3,,,,,,,,0,,,62,0
49380,note_on,1,0,1,,,,,,,,3,,,78,78
49380,note_on,20,0,7,,,,,,,,5,,,72,0
49380,note_on,0,0,7,,,,,,,,5,,,66,82
49380,note_on,1,0,3,,,,,,,,0,,,60,82
49400,note_on,20,0,7,,,,,,,,5,,,66,0
49400,note_on,0,0,7,,,,,,,,5,,,60,85
49420,note_on,0,0,7,,,,,,,,5,,,54,70
49420,note_on,20,0,7,,,,,,,,5,,,60,0
49436,note_on,116,0,11,,,,,,,,14,,,50,0
49439,note_on,959,0,10,,,,,,,,13,,,60,0
49439,note_on,239,0,9,,,,,,,,12,,,66,0
49439,note_on,59,0,3,,,,,,,,0,,,60,0
49439,note_on,59,0,1,,,,,,,,3,,,78,0
49439,note_on,199,0,8,,,,,,,,5,,,32,0
49439,note_on,119,0,2,,,,,,,,6,,,72,0
49439,note_on,0,0,8,,,,,,,,5,,,44,0
49440,note_on,1,0,9,,,,,,,,12,,,67,74
49440,note_on,10201,0,4,,,,,,,,7,,,55,78
49440,note_on,0,0,4,,,,,,,,7,,,67,80
49440,note_on,0,0,7,,,,,,,,5,,,55,72
49440,note_on,1,0,2,,,,,,,,6,,,74,76
49440,note_on,1,0,8,,,,,,,,5,,,31,70
49440,note_on,0,0,8,,,,,,,,5,,,43,62
49440,note_on,1,0,1,,,,,,,,3,,,79,82
49440,note_on,4,0,11,,,,,,,,14,,,50,72
49440,note_on,1,0,3,,,,,,,,0,,,59,87
49440,note_on,20,0,7,,,,,,,,5,,,66,0
49440,note_on,1,0,10,,,,,,,,13,,,59,78
49460,note_on,20,0,7,,,,,,,,5,,,60,0
49460,note_on,0,0,7,,,,,,,,5,,,59,82
49480,note_on,0,0,7,,,,,,,,5,,,62,82
49480,note_on,20,0,7,,,,,,,,5,,,54,0
49500,note_on,0,0,7,,,,,,,,5,,,67,76
49500,note_on,20,0,7,,,,,,,,5,,,55,0
49520,note_on,20,0,7,,,,,,,,5,,,59,0
49520,note_on,0,0,7,,,,,,,,5,,,71,80
49540,note_on,20,0,7,,,,,,,,5,,,62,0
49540,note_on,0,0,7,,,,,,,,5,,,74,80
49559,note_on,119,0,9,,,,,,,,12,,,67,0
49559,note_on,119,0,1,,,,,,,,3,,,79,0
49559,note_on,119,0,3,,,,,,,,0,,,59,0
49559,note_on,0,0,8,,,,,,,,5,,,31,0
49559,note_on,119,0,8,,,,,,,,5,,,43,0
49559,note_on,119,0,10,,,,,,,,13,,,59,0
49560,note_on,120,0,11,,,,,,,,14,,,50,0
49560,note_on,20,0,7,,,,,,,,5,,,67,0
49560,note_on,0,0,7,,,,,,,,5,,,79,82
49580,note_on,20,0,7,,,,,,,,5,,,71,0
49580,note_on,0,0,7,,,,,,,,5,,,74,80
49600,note_on,20,0,7,,,,,,,,5,,,74,0
49600,note_on,0,0,7,,,,,,,,5,,,71,85
49619,note_on,179,0,2,,,,,,,,6,,,74,0
49620,note_on,0,0,7,,,,,,,,5,,,67,87
49620,note_on,20,0,7,,,,,,,,5,,,79,0
49620,note_on,1,0,2,,,,,,,,6,,,79,74
49640,note_on,0,0,7,,,,,,,,5,,,62,80
49640,note_on,20,0,7,,,,,,,,5,,,74,0
49660,note_on,20,0,7,,,,,,,,5,,,71,0
49660,note_on,0,0,7,,,,,,,,5,,,59,82
49679,note_on,59,0,2,,,,,,,,6,,,79,0
49680,note_on,121,0,8,,,,,,,,5,,,31,74
49680,note_on,601,0,12,,,,,,,,15,,,43,80
49680,note_on,20,0,7,,,,,,,,5,,,67,0
49680,note_on,1,0,2,,,,,,,,6,,,77,89
49680,note_on,0,0,7,,,,,,,,5,,,55,82
49680,note_on,121,0,1,,,,,,,,3,,,79,85
49680,note_on,0,0,8,,,,,,,,5,,,43,68
49700,note_on,20,0,7,,,,,,,,5,,,62,0
49700,note_on,0,0,7,,,,,,,,5,,,60,82
49720,note_on,0,0,7,,,,,,,,5,,,63,68
49720,note_on,20,0,7,,,,,,,,5,,,59,0
49739,note_on,59,0,2,,,,,,,,6,,,77,0
49740,note_on,20,0,7,,,,,,,,5,,,55,0
49740,note_on,0,0,7,,,,,,,,5,,,67,82
49740,note_on,1,0,2,,,,,,,,6,,,75,82
49760,note_on,20,0,7,,,,,,,,5,,,60,0
49760,note_on,0,0,7,,,,,,,,5,,,72,82
49780,note_on,20,0,7,,,,,,,,5,,,63,0
49780,note_on,0,0,7,,,,,,,,5,,,75,78
49799,note_on,59,0,2,,,,,,,,6,,,75,0
49800,note_on,20,0,7,,,,,,,,5,,,67,0
49800,note_on,120,0,8,,,,,,,,5,,,43,0
49800,note_on,0,0,7,,,,,,,,5,,,79,85
49800,note_on,0,0,8,,,,,,,,5,,,31,0
49800,note_on,120,0,12,,,,,,,,15,,,43,0
49820,note_on,0,0,7,,,,,,,,5,,,75,70
49820,note_on,20,0,7,,,,,,,,5,,,72,0
49840,note_on,0,0,7,,,,,,,,5,,,72,78
49840,note_on,20,0,7,,,,,,,,5,,,75,0
49859,note_on,179,0,1,,,,,,,,3,,,79,0
49860,note_on,0,0,7,,,,,,,,5,,,67,85
49860,note_on,20,0,7,,,,,,,,5,,,79,0
49860,note_on,1,0,1,,,,,,,,3,,,84,87
49880,note_on,0,0,7,,,,,,,,5,,,63,72
49880,note_on,20,0,7,,,,,,,,5,,,75,0
49900,note_on,0,0,7,,,,,,,,5,,,60,82
49900,note_on,20,0,7,,,,,,,,5,,,72,0
49919,note_on,59,0,1,,,,,,,,3,,,84,0
49920,note_on,1,0,1,,,,,,,,3,,,83,87
49920,note_on,20,0,7,,,,,,,,5,,,67,0
49920,note_on,120,0,8,,,,,,,,5,,,43,72
49920,note_on,121,0,2,,,,,,,,6,,,74,87
49920,note_on,0,0,8,,,,,,,,5,,,31,70
49920,note_on,0,0,7,,,,,,,,5,,,55,82
49920,note_on,120,0,12,,,,,,,,15,,,43,70
49940,note_on,20,0,7,,,,,,,,5,,,63,0
49940,note_on,0,0,7,,,,,,,,5,,,59,82
49960,note_on,0,0,7,,,,,,,,5,,,62,85
49960,note_on,20,0,7,,,,,,,,5,,,60,0
49979,note_on,59,0,1,,,,,,,,3,,,83,0
49980,note_on,20,0,7,,,,,,,,5,,,55,0
49980,note_on,0,0,7,,,,,,,,5,,,67,82
49980,note_on,1,0,1,,,,,,,,3,,,79,87
50000,note_on,20,0,7,,,,,,,,5,,,59,0
50000,note_on,0,0,7,,,,,,,,5,,,71,85
50020,note_on,0,0,7,,,,,,,,5,,,74,85
50020,note_on,20,0,7,,,,,,,,5,,,62,0
50039,note_on,59,0,1,,,,,,,,3,,,79,0
50040,note_on,0,0,8,,,,,,,,5,,,43,0
50040,note_on,20,0,7,,,,,,,,5,,,67,0
50040,note_on,120,0,8,,,,,,,,5,,,31,0
50040,note_on,0,0,7,,,,,,,,5,,,79,78
50040,note_on,120,0,12,,,,,,,,15,,,43,0
50060,note_on,0,0,7,,,,,,,,5,,,74,80
50060,note_on,20,0,7,,,,,,,,5,,,71,0
50080,note_on,0,0,7,,,,,,,,5,,,71,82
50080,note_on,20,0,7,,,,,,,,5,,,74,0
50099,note_on,179,0,2,,,,,,,,6,,,74,0
50100,note_on,1,0,2,,,,,,,,6,,,79,82
50100,note_on,0,0,7,,,,,,,,5,,,67,85
50100,note_on,20,0,7,,,,,,,,5,,,79,0
50120,note_on,0,0,7,,,,,,,,5,,,62,82
50120,note_on,20,0,7,,,,,,,,5,,,74,0
50140,note_on,0,0,7,,,,,,,,5,,,59,85
50140,note_on,20,0,7,,,,,,,,5,,,71,0
50159,note_on,59,0,2,,,,,,,,6,,,79,0
50160,note_on,0,0,8,,,,,,,,5,,,43,61
50160,note_on,120,0,8,,,,,,,,5,,,31,68
50160,note_on,120,0,12,,,,,,,,15,,,43,66
50160,note_on,1,0,2,,,,,,,,6,,,77,89
50160,note_on,0,0,7,,,,,,,,5,,,55,82
50160,note_on,20,0,7,,,,,,,,5,,,67,0
50160,note_on,121,0,1,,,,,,,,3,,,79,93
50180,note_on,20,0,7,,,,,,,,5,,,62,0
50180,note_on,0,0,7,,,,,,,,5,,,60,85
50200,note_on,20,0,7,,,,,,,,5,,,59,0
50200,note_on,0,0,7,,,,,,,,5,,,63,74
50219,note_on,59,0,2,,,,,,,,6,,,77,0
50220,note_on,20,0,7,,,,,,,,5,,,55,0
50220,note_on,0,0,7,,,,,,,,5,,,67,91
50220,note_on,1,0,2,,,,,,,,6,,,75,87
50240,note_on,0,0,7,,,,,,,,5,,,72,82
50240,note_on,20,0,7,,,,,,,,5,,,60,0
50260,note_on,20,0,7,,,,,,,,5,,,63,0
50260,note_on,0,0,7,,,,,,,,5,,,75,70
50279,note_on,59,0,2,,,,,,,,6,,,75,0
50280,note_on,20,0,7,,,,,,,,5,,,67,0
50280,note_on,0,0,7,,,,,,,,5,,,79,82
50280,note_on,0,0,8,,,,,,,,5,,,31,0
50280,note_on,120,0,8,,,,,,,,5,,,43,0
50280,note_on,120,0,12,,,,,,,,15,,,43,0
50300,note_on,20,0,7,,,,,,,,5,,,72,0
50300,note_on,0,0,7,,,,,,,,5,,,75,76
50320,note_on,0,0,7,,,,,,,,5,,,72,80
50320,note_on,20,0,7,,,,,,,,5,,,75,0
50339,note_on,179,0,1,,,,,,,,3,,,79,0
50340,note_on,1,0,1,,,,,,,,3,,,84,87
50340,note_on,0,0,7,,,,,,,,5,,,67,72
50340,note_on,20,0,7,,,,,,,,5,,,79,0
50360,note_on,20,0,7,,,,,,,,5,,,75,0
50360,note_on,0,0,7,,,,,,,,5,,,63,76
50380,note_on,20,0,7,,,,,,,,5,,,72,0
50380,note_on,0,0,7,,,,,,,,5,,,60,82
50399,note_on,59,0,1,,,,,,,,3,,,84,0
50400,note_on,20,0,7,,,,,,,,5,,,67,0
50400,note_on,0,0,7,,,,,,,,5,,,55,87
50400,note_on,1,0,1,,,,,,,,3,,,83,85
50400,note_on,841,0,3,,,,,,,,0,,,55,82
50400,note_on,120,0,12,,,,,,,,15,,,43,66
50400,note_on,120,0,8,,,,,,,,5,,,31,82
50400,note_on,0,0,8,,,,,,,,5,,,43,80
50420,note_on,20,0,7,,,,,,,,5,,,63,0
50420,note_on,0,0,7,,,,,,,,5,,,59,85
50440,note_on,20,0,7,,,,,,,,5,,,60,0
50440,note_on,0,0,7,,,,,,,,5,,,62,85
50459,note_on,59,0,1,,,,,,,,3,,,83,0
50460,note_on,0,0,7,,,,,,,,5,,,67,87
50460,note_on,20,0,7,,,,,,,,5,,,55,0
50460,note_on,1,0,1,,,,,,,,3,,,79,87
50480,note_on,20,0,7,,,,,,,,5,,,59,0
50480,note_on,0,0,7,,,,,,,,5,,,71,87
50500,note_on,20,0,7,,,,,,,,5,,,62,0
50500,note_on,0,0,7,,,,,,,,5,,,74,87
50519,note_on,59,0,1,,,,,,,,3,,,79,0
50520,note_on,20,0,7,,,,,,,,5,,,67,0
50520,note_on,120,0,12,,,,,,,,15,,,43,0
50520,note_on,0,0,7,,,,,,,,5,,,79,80
50540,note_on,20,0,7,,,,,,,,5,,,71,0
50540,note_on,0,0,7,,,,,,,,5,,,74,85
50560,note_on,0,0,7,,,,,,,,5,,,71,85
50560,note_on,20,0,7,,,,,,,,5,,,74,0
50579,note_on,179,0,3,,,,,,,,0,,,55,0
50580,note_on,0,0,7,,,,,,,,5,,,67,87
50580,note_on,1,0,3,,,,,,,,0,,,67,85
50580,note_on,20,0,7,,,,,,,,5,,,79,0
50600,note_on,0,0,7,,,,,,,,5,,,62,82
50600,note_on,20,0,7,,,,,,,,5,,,74,0
50620,note_on,0,0,7,,,,,,,,5,,,59,82
50620,note_on,20,0,7,,,,,,,,5,,,71,0
50639,note_on,0,0,8,,,,,,,,5,,,31,0
50639,note_on,59,0,3,,,,,,,,0,,,67,0
50639,note_on,239,0,8,,,,,,,,5,,,43,0
50640,note_on,20,0,7,,,,,,,,5,,,67,0
50640,note_on,1,0,3,,,,,,,,0,,,67,82
50640,note_on,0,0,7,,,,,,,,5,,,57,82
50640,note_on,120,0,12,,,,,,,,15,,,43,68
50640,note_on,361,0,2,,,,,,,,6,,,72,85
50640,note_on,1,0,8,,,,,,,,5,,,43,74
50640,note_on,0,0,8,,,,,,,,5,,,31,78
50660,note_on,0,0,7,,,,,,,,5,,,60,85
50660,note_on,20,0,7,,,,,,,,5,,,62,0
50680,note_on,0,0,7,,,,,,,,5,,,66,76
50680,note_on,20,0,7,,,,,,,,5,,,59,0
50699,note_on,59,0,3,,,,,,,,0,,,67,0
50700,note_on,0,0,7,,,,,,,,5,,,69,85
50700,note_on,1,0,3,,,,,,,,0,,,66,72
50700,note_on,20,0,7,,,,,,,,5,,,57,0
50720,note_on,20,0,7,,,,,,,,5,,,60,0
50720,note_on,0,0,7,,,,,,,,5,,,72,80
50740,note_on,0,0,7,,,,,,,,5,,,78,78
50740,note_on,20,0,7,,,,,,,,5,,,66,0
50759,note_on,59,0,3,,,,,,,,0,,,66,0
50760,note_on,0,0,7,,,,,,,,5,,,81,80
50760,note_on,20,0,7,,,,,,,,5,,,69,0
50760,note_on,120,0,12,,,,,,,,15,,,43,0
50780,note_on,0,0,7,,,,,,,,5,,,78,80
50780,note_on,20,0,7,,,,,,,,5,,,72,0
50800,note_on,0,0,7,,,,,,,,5,,,72,80
50800,note_on,20,0,7,,,,,,,,5,,,78,0
50819,note_on,179,0,2,,,,,,,,6,,,72,0
50820,note_on,0,0,7,,,,,,,,5,,,69,82
50820,note_on,20,0,7,,,,,,,,5,,,81,0
50820,note_on,1,0,2,,,,,,,,6,,,84,87
50840,note_on,0,0,7,,,,,,,,5,,,66,72
50840,note_on,20,0,7,,,,,,,,5,,,78,0
50860,note_on,0,0,7,,,,,,,,5,,,60,82
50860,note_on,20,0,7,,,,,,,,5,,,72,0
50879,note_on,59,0,2,,,,,,,,6,,,84,0
50879,note_on,0,0,8,,,,,,,,5,,,43,0
50879,note_on,239,0,8,,,,,,,,5,,,31,0
50880,note_on,1,0,8,,,,,,,,5,,,31,85
50880,note_on,0,0,8,,,,,,,,5,,,43,80
50880,note_on,1,0,2,,,,,,,,6,,,84,85
50880,note_on,120,0,12,,,,,,,,15,,,43,66
50880,note_on,361,0,1,,,,,,,,3,,,74,89
50880,note_on,20,0,7,,,,,,,,5,,,69,0
50880,note_on,0,0,7,,,,,,,,5,,,59,85
50900,note_on,0,0,7,,,,,,,,5,,,62,85
50900,note_on,20,0,7,,,,,,,,5,,,66,0
50920,note_on,20,0,7,,,,,,,,5,,,60,0
50920,note_on,0,0,7,,,,,,,,5,,,65,87
50939,note_on,59,0,2,,,,,,,,6,,,84,0
50940,note_on,20,0,7,,,,,,,,5,,,59,0
50940,note_on,0,0,7,,,,,,,,5,,,71,87
50940,note_on,1,0,2,,,,,,,,6,,,83,87
50960,note_on,20,0,7,,,,,,,,5,,,62,0
50960,note_on,0,0,7,,,,,,,,5,,,74,85
50980,note_on,0,0,7,,,,,,,,5,,,77,85
50980,note_on,20,0,7,,,,,,,,5,,,65,0
50999,note_on,59,0,2,,,,,,,,6,,,83,0
51000,note_on,0,0,7,,,,,,,,5,,,83,89
51000,note_on,120,0,12,,,,,,,,15,,,43,0
51000,note_on,20,0,7,,,,,,,,5,,,71,0
51020,note_on,0,0,7,,,,,,,,5,,,77,87
51020,note_on,20,0,7,,,,,,,,5,,,74,0
51040,note_on,20,0,7,,,,,,,,5,,,77,0
51040,note_on,0,0,7,,,,,,,,5,,,74,85
51059,note_on,179,0,1,,,,,,,,3,,,74,0
51060,note_on,0,0,7,,,,,,,,5,,,71,80
51060,note_on,20,0,7,,,,,,,,5,,,83,0
51060,note_on,1,0,1,,,,,,,,3,,,86,85
51080,note_on,0,0,7,,,,,,,,5,,,65,85
51080,note_on,20,0,7,,,,,,,,5,,,77,0
51100,note_on,0,0,7,,,,,,,,5,,,62,78
51100,note_on,20,0,7,,,,,,,,5,,,74,0
51119,note_on,239,0,8,,,,,,,,5,,,43,0
51119,note_on,0,0,8,,,,,,,,5,,,31,0
51119,note_on,59,0,1,,,,,,,,3,,,86,0
51120,note_on,1,0,8,,,,,,,,5,,,31,78
51120,note_on,0,0,8,,,,,,,,5,,,43,70
51120,note_on,1,0,1,,,,,,,,3,,,86,87
51120,note_on,120,0,12,,,,,,,,15,,,43,63
51120,note_on,361,0,3,,,,,,,,0,,,52,85
51120,note_on,0,0,7,,,,,,,,5,,,60,82
51120,note_on,20,0,7,,,,,,,,5,,,71,0
51140,note_on,20,0,7,,,,,,,,5,,,65,0
51140,note_on,0,0,7,,,,,,,,5,,,64,85
51160,note_on,20,0,7,,,,,,,,5,,,62,0
51160,note_on,0,0,7,,,,,,,,5,,,67,87
51179,note_on,59,0,1,,,,,,,,3,,,86,0
51180,note_on,1,0,1,,,,,,,,3,,,84,87
51180,note_on,20,0,7,,,,,,,,5,,,60,0
51180,note_on,0,0,7,,,,,,,,5,,,72,80
51200,note_on,20,0,7,,,,,,,,5,,,64,0
51200,note_on,0,0,7,,,,,,,,5,,,76,82
51220,note_on,20,0,7,,,,,,,,5,,,67,0
51220,note_on,0,0,7,,,,,,,,5,,,79,85
51239,note_on,59,0,1,,,,,,,,3,,,84,0
51240,note_on,120,0,12,,,,,,,,15,,,43,0
51240,note_on,0,0,7,,,,,,,,5,,,84,80
51240,note_on,20,0,7,,,,,,,,5,,,72,0
51260,note_on,20,0,7,,,,,,,,5,,,76,0
51260,note_on,0,0,7,,,,,,,,5,,,79,85
51280,note_on,0,0,7,,,,,,,,5,,,76,85
51280,note_on,20,0,7,,,,,,,,5,,,79,0
51299,note_on,179,0,3,,,,,,,,0,,,52,0
51300,note_on,0,0,7,,,,,,,,5,,,72,82
51300,note_on,1,0,3,,,,,,,,0,,,64,82
51300,note_on,20,0,7,,,,,,,,5,,,84,0
51320,note_on,0,0,7,,,,,,,,5,,,67,82
51320,note_on,20,0,7,,,,,,,,5,,,79,0
51340,note_on,0,0,7,,,,,,,,5,,,64,85
51340,note_on,20,0,7,,,,,,,,5,,,76,0
51359,note_on,59,0,3,,,,,,,,0,,,64,0
51359,note_on,0,0,8,,,,,,,,5,,,31,0
51359,note_on,239,0,8,,,,,,,,5,,,43,0
51360,note_on,361,0,2,,,,,,,,6,,,65,89
51360,note_on,1,0,8,,,,,,,,5,,,31,68
51360,note_on,0,0,8,,,,,,,,5,,,43,68
51360,note_on,120,0,12,,,,,,,,15,,,43,55
51360,note_on,0,0,7,,,,,,,,5,,,62,85
51360,note_on,20,0,7,,,,,,,,5,,,72,0
51360,note_on,1,0,3,,,,,,,,0,,,64,82
51380,note_on,0,0,7,,,,,,,,5,,,65,82
51380,note_on,20,0,7,,,,,,,,5,,,67,0
51400,note_on,0,0,7,,,,,,,,5,,,71,80
51400,note_on,20,0,7,,,,,,,,5,,,64,0
51419,note_on,59,0,3,,,,,,,,0,,,64,0
51420,note_on,0,0,7,,,,,,,,5,,,74,82
51420,note_on,20,0,7,,,,,,,,5,,,62,0
51420,note_on,1,0,3,,,,,,,,0,,,62,87
51440,note_on,0,0,7,,,,,,,,5,,,77,85
51440,note_on,20,0,7,,,,,,,,5,,,65,0
51460,note_on,20,0,7,,,,,,,,5,,,71,0
51460,note_on,0,0,7,,,,,,,,5,,,83,80
51479,note_on,59,0,3,,,,,,,,0,,,62,0
51480,note_on,120,0,12,,,,,,,,15,,,43,0
51480,note_on,20,0,7,,,,,,,,5,,,74,0
51480,note_on,0,0,7,,,,,,,,5,,,86,76
51500,note_on,20,0,7,,,,,,,,5,,,77,0
51500,note_on,0,0,7,,,,,,,,5,,,83,64
51520,note_on,20,0,7,,,,,,,,5,,,83,0
51520,note_on,0,0,7,,,,,,,,5,,,77,82
51539,note_on,179,0,2,,,,,,,,6,,,65,0
51540,note_on,0,0,7,,,,,,,,5,,,74,82
51540,note_on,1,0,2,,,,,,,,6,,,77,87
51540,note_on,20,0,7,,,,,,,,5,,,86,0
51560,note_on,20,0,7,,,,,,,,5,,,83,0
51560,note_on,0,0,7,,,,,,,,5,,,71,85
51580,note_on,20,0,7,,,,,,,,5,,,77,0
51580,note_on,0,0,7,,,,,,,,5,,,65,82
51599,note_on,59,0,2,,,,,,,,6,,,77,0
51599,note_on,239,0,8,,,,,,,,5,,,43,0
51599,note_on,0,0,8,,,,,,,,5,,,31,0
51600,note_on,1,0,2,,,,,,,,6,,,77,85
51600,note_on,121,0,3,,,,,,,,0,,,55,82
51600,note_on,120,0,12,,,,,,,,15,,,43,60
51600,note_on,20,0,7,,,,,,,,5,,,74,0
51600,note_on,0,0,7,,,,,,,,5,,,64,85
51600,note_on,0,0,8,,,,,,,,5,,,31,66
51600,note_on,1,0,8,,,,,,,,5,,,43,68
51620,note_on,20,0,7,,,,,,,,5,,,71,0
51620,note_on,0,0,7,,,,,,,,5,,,67,85
51640,note_on,20,0,7,,,,,,,,5,,,65,0
51640,note_on,0,0,7,,,,,,,,5,,,72,76
51659,note_on,59,0,2,,,,,,,,6,,,77,0
51660,note_on,20,0,7,,,,,,,,5,,,64,0
51660,note_on,0,0,7,,,,,,,,5,,,76,87
51660,note_on,1,0,2,,,,,,,,6,,,76,85
51680,note_on,20,0,7,,,,,,,,5,,,67,0
51680,note_on,0,0,7,,,,,,,,5,,,79,85
51700,note_on,20,0,7,,,,,,,,5,,,72,0
51700,note_on,0,0,7,,,,,,,,5,,,84,82
51719,note_on,59,0,2,,,,,,,,6,,,76,0
51720,note_on,120,0,12,,,,,,,,15,,,43,0
51720,note_on,20,0,7,,,,,,,,5,,,76,0
51720,note_on,0,0,7,,,,,,,,5,,,88,85
51740,note_on,0,0,7,,,,,,,,5,,,84,87
51740,note_on,20,0,7,,,,,,,,5,,,79,0
51760,note_on,20,0,7,,,,,,,,5,,,84,0
51760,note_on,0,0,7,,,,,,,,5,,,79,82
51779,note_on,179,0,3,,,,,,,,0,,,55,0
51780,note_on,1,0,3,,,,,,,,0,,,64,82
51780,note_on,20,0,7,,,,,,,,5,,,88,0
51780,note_on,0,0,7,,,,,,,,5,,,76,82
51800,note_on,0,0,7,,,,,,,,5,,,72,82
51800,note_on,20,0,7,,,,,,,,5,,,84,0
51820,note_on,20,0,7,,,,,,,,5,,,79,0
51820,note_on,0,0,7,,,,,,,,5,,,67,85
51839,note_on,2399,0,4,,,,,,,,7,,,67,0
51839,note_on,239,0,8,,,,,,,,5,,,31,0
51839,note_on,0,0,8,,,,,,,,5,,,43,0
51839,note_on,59,0,3,,,,,,,,0,,,64,0
51839,note_on,0,0,4,,,,,,,,7,,,55,0
51840,note_on,2280,0,11,,,,,,,,14,,,55,72
51840,note_on,601,0,1,,,,,,,,3,,,89,89
51840,note_on,2281,0,10,,,,,,,,13,,,59,72
51840,note_on,0,0,8,,,,,,,,5,,,55,64
51840,note_on,120,0,12,,,,,,,,15,,,55,61
51840,note_on,1,0,3,,,,,,,,0,,,64,85
51840,note_on,1,0,8,,,,,,,,5,,,43,76
51840,note_on,2281,0,9,,,,,,,,12,,,62,80
51840,note_on,20,0,7,,,,,,,,5,,,76,0
51840,note_on,0,0,7,,,,,,,,5,,,65,85
51860,note_on,0,0,7,,,,,,,,5,,,71,85
51860,note_on,20,0,7,,,,,,,,5,,,72,0
51880,note_on,20,0,7,,,,,,,,5,,,67,0
51880,note_on,0,0,7,,,,,,,,5,,,74,85
51899,note_on,59,0,3,,,,,,,,0,,,64,0
51900,note_on,0,0,7,,,,,,,,5,,,77,82
51900,note_on,1,0,3,,,,,,,,0,,,62,82
51900,note_on,20,0,7,,,,,,,,5,,,65,0
51920,note_on,20,0,7,,,,,,,,5,,,71,0
51920,note_on,0,0,7,,,,,,,,5,,,83,85
51940,note_on,20,0,7,,,,,,,,5,,,74,0
51940,note_on,0,0,7,,,,,,,,5,,,86,85
51959,note_on,59,0,3,,,,,,,,0,,,62,0
51960,note_on,0,0,7,,,,,,,,5,,,89,87
51960,note_on,241,0,2,,,,,,,,6,,,77,91
51960,note_on,20,0,7,,,,,,,,5,,,77,0
51980,note_on,0,0,7,,,,,,,,5,,,86,85
51980,note_on,20,0,7,,,,,,,,5,,,83,0
52000,note_on,0,0,7,,,,,,,,5,,,83,85
52000,note_on,20,0,7,,,,,,,,5,,,86,0
52019,note_on,179,0,12,,,,,,,,15,,,55,0
52019,note_on,0,0,8,,,,,,,,5,,,43,0
52019,note_on,179,0,8,,,,,,,,5,,,55,0
52019,note_on,179,0,1,,,,,,,,3,,,89,0
52019,note_on,179,0,11,,,,,,,,14,,,55,0
52020,note_on,1,0,1,,,,,,,,3,,,86,89
52020,note_on,1,0,12,,,,,,,,15,,,56,66
52020,note_on,1,0,11,,,,,,,,14,,,56,64
52020,note_on,0,0,8,,,,,,,,5,,,56,63
52020,note_on,1,0,8,,,,,,,,5,,,44,66
52020,note_on,20,0,7,,,,,,,,5,,,89,0
52020,note_on,0,0,7,,,,,,,,5,,,77,87
52040,note_on,20,0,7,,,,,,,,5,,,86,0
52040,note_on,0,0,7,,,,,,,,5,,,74,85
52060,note_on,0,0,7,,,,,,,,5,,,71,87
52060,note_on,20,0,7,,,,,,,,5,,,83,0
52079,note_on,0,0,8,,,,,,,,5,,,44,0
52079,note_on,59,0,8,,,,,,,,5,,,56,0
52079,note_on,59,0,12,,,,,,,,15,,,56,0
52079,note_on,59,0,1,,,,,,,,3,,,86,0
52079,note_on,59,0,11,,,,,,,,14,,,56,0
52080,note_on,0,0,7,,,,,,,,5,,,65,85
52080,note_on,0,0,8,,,,,,,,5,,,55,66
52080,note_on,1,0,8,,,,,,,,5,,,43,76
52080,note_on,20,0,7,,,,,,,,5,,,77,0
52080,note_on,121,0,3,,,,,,,,0,,,65,82
52080,note_on,1,0,11,,,,,,,,14,,,55,70
52080,note_on,1,0,1,,,,,,,,3,,,84,85
52080,note_on,1,0,12,,,,,,,,15,,,55,72
52100,note_on,20,0,7,,,,,,,,5,,,74,0
52100,note_on,0,0,7,,,,,,,,5,,,71,82
52120,note_on,0,0,7,,,,,,,,5,,,74,82
52120,note_on,20,0,7,,,,,,,,5,,,71,0
52139,note_on,299,0,10,,,,,,,,13,,,59,0
52139,note_on,59,0,1,,,,,,,,3,,,84,0
52139,note_on,299,0,9,,,,,,,,12,,,62,0
52139,note_on,179,0,2,,,,,,,,6,,,77,0
52140,note_on,1,0,1,,,,,,,,3,,,83,89
52140,note_on,1,0,9,,,,,,,,12,,,65,74
52140,note_on,20,0,7,,,,,,,,5,,,65,0
52140,note_on,0,0,7,,,,,,,,5,,,77,85
52140,note_on,1,0,10,,,,,,,,13,,,62,66
52140,note_on,1,0,2,,,,,,,,6,,,74,87
52160,note_on,20,0,7,,,,,,,,5,,,71,0
52160,note_on,0,0,7,,,,,,,,5,,,83,82
52180,note_on,20,0,7,,,,,,,,5,,,74,0
52180,note_on,0,0,7,,,,,,,,5,,,86,89
52199,note_on,59,0,10,,,,,,,,13,,,62,0
52199,note_on,59,0,2,,,,,,,,6,,,74,0
52199,note_on,59,0,1,,,,,,,,3,,,83,0
52199,note_on,59,0,9,,,,,,,,12,,,65,0
52200,note_on,1,0,2,,,,,,,,6,,,72,87
52200,note_on,1,0,10,,,,,,,,13,,,62,70
52200,note_on,0,0,7,,,,,,,,5,,,89,85
52200,note_on,20,0,7,,,,,,,,5,,,77,0
52200,note_on,1,0,9,,,,,,,,12,,,65,70
52220,note_on,0,0,7,,,,,,,,5,,,86,85
52220,note_on,20,0,7,,,,,,,,5,,,83,0
52240,note_on,0,0,7,,,,,,,,5,,,83,74
52240,note_on,20,0,7,,,,,,,,5,,,86,0
52259,note_on,59,0,10,,,,,,,,13,,,62,0
52259,note_on,179,0,8,,,,,,,,5,,,55,0
52259,note_on,0,0,8,,,,,,,,5,,,43,0
52259,note_on,179,0,11,,,,,,,,14,,,55,0
52259,note_on,179,0,3,,,,,,,,0,,,65,0
52259,note_on,179,0,12,,,,,,,,15,,,55,0
52259,note_on,59,0,9,,,,,,,,12,,,65,0
52259,note_on,59,0,2,,,,,,,,6,,,72,0
52260,note_on,1,0,8,,,,,,,,5,,,56,66
52260,note_on,0,0,8,,,,,,,,5,,,44,58
52260,note_on,1,0,11,,,,,,,,14,,,56,66
52260,note_on,1,0,12,,,,,,,,15,,,56,68
52260,note_on,20,0,7,,,,,,,,5,,,89,0
52260,note_on,1,0,3,,,,,,,,0,,,62,85
52260,note_on,0,0,7,,,,,,,,5,,,77,87
52260,note_on,1,0,2,,,,,,,,6,,,71,82
52280,note_on,0,0,7,,,,,,,,5,,,74,85
52280,note_on,20,0,7,,,,,,,,5,,,86,0
52300,note_on,0,0,7,,,,,,,,5,,,71,85
52300,note_on,20,0,7,,,,,,,,5,,,83,0
52319,note_on,59,0,3,,,,,,,,0,,,62,0
52319,note_on,59,0,11,,,,,,,,14,,,56,0
52319,note_on,59,0,2,,,,,,,,6,,,71,0
52319,note_on,59,0,8,,,,,,,,5,,,44,0
52319,note_on,59,0,12,,,,,,,,15,,,56,0
52319,note_on,0,0,8,,,,,,,,5,,,56,0
52320,note_on,1,0,12,,,,,,,,15,,,55,74
52320,note_on,1,0,8,,,,,,,,5,,,43,76
52320,note_on,0,0,8,,,,,,,,5,,,55,66
52320,note_on,1,0,11,,,,,,,,14,,,55,68
52320,note_on,121,0,1,,,,,,,,3,,,89,95
52320,note_on,0,0,7,,,,,,,,5,,,65,85
52320,note_on,20,0,7,,,,,,,,5,,,77,0
52320,note_on,1,0,3,,,,,,,,0,,,60,82
52340,note_on,20,0,7,,,,,,,,5,,,74,0
52340,note_on,0,0,7,,,,,,,,5,,,71,87
52360,note_on,20,0,7,,,,,,,,5,,,71,0
52360,note_on,0,0,7,,,,,,,,5,,,74,85
52379,note_on,59,0,11,,,,,,,,14,,,55,0
52379,note_on,59,0,3,,,,,,,,0,,,60,0
52380,note_on,121,0,9,,,,,,,,12,,,74,72
52380,note_on,1,0,11,,,,,,,,14,,,67,70
52380,note_on,1,0,3,,,,,,,,0,,,59,80
52380,note_on,121,0,10,,,,,,,,13,,,71,72
52380,note_on,20,0,7,,,,,,,,5,,,65,0
52380,note_on,0,0,7,,,,,,,,5,,,77,87
52400,note_on,20,0,7,,,,,,,,5,,,71,0
52400,note_on,0,0,7,,,,,,,,5,,,83,85
52420,note_on,20,0,7,,,,,,,,5,,,74,0
52420,note_on,0,0,7,,,,,,,,5,,,86,87
52439,note_on,59,0,3,,,,,,,,0,,,59,0
52439,note_on,59,0,9,,,,,,,,12,,,74,0
52439,note_on,59,0,10,,,,,,,,13,,,71,0
52440,note_on,1,0,9,,,,,,,,12,,,74,70
52440,note_on,1,0,10,,,,,,,,13,,,71,66
52440,note_on,121,0,2,,,,,,,,6,,,77,85
52440,note_on,0,0,7,,,,,,,,5,,,89,87
52440,note_on,20,0,7,,,,,,,,5,,,77,0
52460,note_on,0,0,7,,,,,,,,5,,,86,85
52460,note_on,20,0,7,,,,,,,,5,,,83,0
52480,note_on,0,0,7,,,,,,,,5,,,83,87
52480,note_on,20,0,7,,,,,,,,5,,,86,0
52499,note_on,119,0,11,,,,,,,,14,,,67,0
52499,note_on,59,0,10,,,,,,,,13,,,71,0
52499,note_on,179,0,1,,,,,,,,3,,,89,0
52499,note_on,179,0,8,,,,,,,,5,,,55,0
52499,note_on,179,0,12,,,,,,,,15,,,55,0
52499,note_on,0,0,8,,,,,,,,5,,,43,0
52499,note_on,59,0,9,,,,,,,,12,,,74,0
52500,note_on,1,0,1,,,,,,,,3,,,86,89
52500,note_on,1,0,9,,,,,,,,12,,,74,80
52500,note_on,1,0,12,,,,,,,,15,,,56,64
52500,note_on,20,0,7,,,,,,,,5,,,89,0
52500,note_on,1,0,11,,,,,,,,14,,,68,66
52500,note_on,1,0,8,,,,,,,,5,,,44,66
52500,note_on,1,0,10,,,,,,,,13,,,71,62
52500,note_on,0,0,7,,,,,,,,5,,,77,87
52500,note_on,0,0,8,,,,,,,,5,,,56,80
52520,note_on,20,0,7,,,,,,,,5,,,86,0
52520,note_on,0,0,7,,,,,,,,5,,,74,85
52540,note_on,0,0,7,,,,,,,,5,,,71,89
52540,note_on,20,0,7,,,,,,,,5,,,83,0
52559,note_on,59,0,1,,,,,,,,3,,,86,0
52559,note_on,59,0,10,,,,,,,,13,,,71,0
52559,note_on,59,0,11,,,,,,,,14,,,68,0
52559,note_on,59,0,8,,,,,,,,5,,,56,0
52559,note_on,0,0,8,,,,,,,,5,,,44,0
52559,note_on,59,0,12,,,,,,,,15,,,56,0
52559,note_on,59,0,9,,,,,,,,12,,,74,0
52560,note_on,1,0,8,,,,,,,,5,,,55,68
52560,note_on,1,0,9,,,,,,,,12,,,74,82
52560,note_on,0,0,8,,,,,,,,5,,,43,68
52560,note_on,1,0,1,,,,,,,,3,,,84,82
52560,note_on,1,0,10,,,,,,,,13,,,71,76
52560,note_on,121,0,3,,,,,,,,0,,,65,85
52560,note_on,0,0,7,,,,,,,,5,,,65,82
52560,note_on,20,0,7,,,,,,,,5,,,77,0
52560,note_on,1,0,12,,,,,,,,15,,,55,78
52560,note_on,1,0,11,,,,,,,,14,,,67,82
52580,note_on,0,0,7,,,,,,,,5,,,71,87
52580,note_on,20,0,7,,,,,,,,5,,,74,0
52600,note_on,20,0,7,,,,,,,,5,,,71,0
52600,note_on,0,0,7,,,,,,,,5,,,74,82
52619,note_on,59,0,10,,,,,,,,13,,,71,0
52619,note_on,59,0,1,,,,,,,,3,,,84,0
52619,note_on,179,0,2,,,,,,,,6,,,77,0
52619,note_on,59,0,9,,,,,,,,12,,,74,0
52620,note_on,1,0,9,,,,,,,,12,,,77,80
52620,note_on,1,0,2,,,,,,,,6,,,74,85
52620,note_on,1,0,1,,,,,,,,3,,,83,80
52620,note_on,1,0,10,,,,,,,,13,,,74,68
52620,note_on,0,0,7,,,,,,,,5,,,77,82
52620,note_on,20,0,7,,,,,,,,5,,,65,0
52640,note_on,0,0,7,,,,,,,,5,,,83,85
52640,note_on,20,0,7,,,,,,,,5,,,71,0
52660,note_on,0,0,7,,,,,,,,5,,,86,85
52660,note_on,20,0,7,,,,,,,,5,,,74,0
52679,note_on,59,0,9,,,,,,,,12,,,77,0
52679,note_on,59,0,2,,,,,,,,6,,,74,0
52679,note_on,59,0,1,,,,,,,,3,,,83,0
52679,note_on,59,0,10,,,,,,,,13,,,74,0
52680,note_on,1,0,2,,,,,,,,6,,,72,82
52680,note_on,1,0,9,,,,,,,,12,,,77,72
52680,note_on,1,0,10,,,,,,,,13,,,74,74
52680,note_on,20,0,7,,,,,,,,5,,,77,0
52680,note_on,0,0,7,,,,,,,,5,,,89,85
52700,note_on,20,0,7,,,,,,,,5,,,83,0
52700,note_on,0,0,7,,,,,,,,5,,,86,87
52720,note_on,20,0,7,,,,,,,,5,,,86,0
52720,note_on,0,0,7,,,,,,,,5,,,83,85
52739,note_on,179,0,3,,,,,,,,0,,,65,0
52739,note_on,179,0,12,,,,,,,,15,,,55,0
52739,note_on,59,0,2,,,,,,,,6,,,72,0
52739,note_on,59,0,9,,,,,,,,12,,,77,0
52739,note_on,179,0,11,,,,,,,,14,,,67,0
52739,note_on,59,0,10,,,,,,,,13,,,74,0
52739,note_on,0,0,8,,,,,,,,5,,,55,0
52739,note_on,179,0,8,,,,,,,,5,,,43,0
52740,note_on,1,0,11,,,,,,,,14,,,68,68
52740,note_on,1,0,2,,,,,,,,6,,,71,85
52740,note_on,0,0,8,,,,,,,,5,,,56,62
52740,note_on,1,0,8,,,,,,,,5,,,44,68
52740,note_on,1,0,12,,,,,,,,15,,,56,64
52740,note_on,1,0,3,,,,,,,,0,,,62,85
52740,note_on,20,0,7,,,,,,,,5,,,89,0
52740,note_on,0,0,7,,,,,,,,5,,,77,85
52760,note_on,0,0,7,,,,,,,,5,,,74,76
52760,note_on,20,0,7,,,,,,,,5,,,86,0
52780,note_on,0,0,7,,,,,,,,5,,,71,85
52780,note_on,20,0,7,,,,,,,,5,,,83,0
52799,note_on,59,0,8,,,,,,,,5,,,56,0
52799,note_on,0,0,8,,,,,,,,5,,,44,0
52799,note_on,59,0,2,,,,,,,,6,,,71,0
52799,note_on,59,0,11,,,,,,,,14,,,68,0
52799,note_on,59,0,12,,,,,,,,15,,,56,0
52799,note_on,59,0,3,,,,,,,,0,,,62,0
52800,note_on,0,0,7,,,,,,,,5,,,65,85
52800,note_on,20,0,7,,,,,,,,5,,,77,0
52800,note_on,0,0,8,,,,,,,,5,,,55,74
52800,note_on,1,0,3,,,,,,,,0,,,60,85
52800,note_on,1,0,8,,,,,,,,5,,,43,80
52800,set_tempo,25560,1,0,,,,,,714286,,,,,,
52800,note_on,1,0,11,,,,,,,,14,,,67,80
52800,note_on,1,0,12,,,,,,,,15,,,55,74
52820,note_on,0,0,7,,,,,,,,5,,,71,87
52820,note_on,20,0,7,,,,,,,,5,,,74,0
52840,note_on,0,0,7,,,,,,,,5,,,74,82
52840,note_on,20,0,7,,,,,,,,5,,,71,0
52859,note_on,59,0,3,,,,,,,,0,,,60,0
52860,note_on,1,0,3,,,,,,,,0,,,59,82
52860,note_on,0,0,7,,,,,,,,5,,,77,87
52860,note_on,20,0,7,,,,,,,,5,,,65,0
52880,note_on,0,0,7,,,,,,,,5,,,83,85
52880,note_on,20,0,7,,,,,,,,5,,,71,0
52900,note_on,0,0,7,,,,,,,,5,,,86,85
52900,note_on,20,0,7,,,,,,,,5,,,74,0
52919,note_on,59,0,3,,,,,,,,0,,,59,0
52919,note_on,119,0,11,,,,,,,,14,,,67,0
52920,note_on,0,0,7,,,,,,,,5,,,85,85
52920,note_on,20,0,7,,,,,,,,5,,,77,0
52940,note_on,0,0,7,,,,,,,,5,,,86,85
52940,note_on,20,0,7,,,,,,,,5,,,83,0
52954,set_tempo,154,1,0,,,,,,722892,,,,,,
52960,note_on,20,0,7,,,,,,,,5,,,86,0
52960,note_on,0,0,7,,,,,,,,5,,,89,85
52980,note_on,20,0,7,,,,,,,,5,,,85,0
52980,note_on,0,0,7,,,,,,,,5,,,83,87
53000,note_on,20,0,7,,,,,,,,5,,,86,0
53000,note_on,0,0,7,,,,,,,,5,,,84,85
53020,note_on,20,0,7,,,,,,,,5,,,89,0
53020,note_on,0,0,7,,,,,,,,5,,,88,87
53040,note_on,0,0,7,,,,,,,,5,,,82,74
53040,note_on,20,0,7,,,,,,,,5,,,83,0
53060,note_on,20,0,7,,,,,,,,5,,,84,0
53060,note_on,0,0,7,,,,,,,,5,,,83,82
53080,note_on,20,0,7,,,,,,,,5,,,88,0
53080,note_on,0,0,7,,,,,,,,5,,,86,74
53100,note_on,20,0,7,,,,,,,,5,,,82,0
53100,note_on,0,0,7,,,,,,,,5,,,80,82
53108,set_tempo,154,1,0,,,,,,731707,,,,,,
53120,note_on,20,0,7,,,,,,,,5,,,83,0
53120,note_on,0,0,7,,,,,,,,5,,,81,82
53140,note_on,20,0,7,,,,,,,,5,,,86,0
53140,note_on,0,0,7,,,,,,,,5,,,84,82
53160,note_on,20,0,7,,,,,,,,5,,,80,0
53160,note_on,0,0,7,,,,,,,,5,,,78,78
53180,note_on,20,0,7,,,,,,,,5,,,81,0
53180,note_on,0,0,7,,,,,,,,5,,,79,82
53200,note_on,0,0,7,,,,,,,,5,,,83,85
53200,note_on,20,0,7,,,,,,,,5,,,84,0
53220,note_on,20,0,7,,,,,,,,5,,,78,0
53220,note_on,0,0,7,,,,,,,,5,,,76,85
53240,note_on,0,0,7,,,,,,,,5,,,77,82
53240,note_on,20,0,7,,,,,,,,5,,,79,0
53260,note_on,20,0,7,,,,,,,,5,,,83,0
53260,note_on,0,0,7,,,,,,,,5,,,81,80
53262,set_tempo,154,1,0,,,,,,740741,,,,,,
53279,note_on,0,0,8,,,,,,,,5,,,43,0
53279,note_on,479,0,8,,,,,,,,5,,,55,0
53280,note_on,20,0,7,,,,,,,,5,,,76,0
53280,note_on,0,0,7,,,,,,,,5,,,76,82
53300,note_on,20,0,7,,,,,,,,5,,,77,0
53300,note_on,0,0,7,,,,,,,,5,,,84,82
53320,note_on,0,0,7,,,,,,,,5,,,76,82
53320,note_on,20,0,7,,,,,,,,5,,,81,0
53340,note_on,20,0,7,,,,,,,,5,,,76,0
53340,note_on,0,0,7,,,,,,,,5,,,74,82
53360,note_on,20,0,7,,,,,,,,5,,,84,0
53360,note_on,0,0,7,,,,,,,,5,,,83,80
53380,note_on,20,0,7,,,,,,,,5,,,76,0
53380,note_on,0,0,7,,,,,,,,5,,,74,72
53399,note_on,599,0,12,,,,,,,,15,,,55,0
53400,note_on,0,0,7,,,,,,,,5,,,72,74
53400,note_on,20,0,7,,,,,,,,5,,,74,0
53417,set_tempo,155,1,0,,,,,,750000,,,,,,
53420,note_on,20,0,7,,,,,,,,5,,,83,0
53420,note_on,0,0,7,,,,,,,,5,,,81,72
53440,note_on,20,0,7,,,,,,,,5,,,74,0
53440,note_on,0,0,7,,,,,,,,5,,,72,80
53460,note_on,20,0,7,,,,,,,,5,,,72,0
53460,note_on,0,0,7,,,,,,,,5,,,71,78
53480,note_on,20,0,7,,,,,,,,5,,,81,0
53480,note_on,0,0,7,,,,,,,,5,,,79,80
53500,note_on,20,0,7,,,,,,,,5,,,72,0
53500,note_on,0,0,7,,,,,,,,5,,,71,82
53520,note_on,20,0,7,,,,,,,,5,,,71,0
53520,note_on,0,0,7,,,,,,,,5,,,69,70
53540,note_on,0,0,7,,,,,,,,5,,,77,82
53540,note_on,20,0,7,,,,,,,,5,,,79,0
53560,note_on,20,0,7,,,,,,,,5,,,71,0
53560,note_on,0,0,7,,,,,,,,5,,,69,76
53571,set_tempo,154,1,0,,,,,,759494,,,,,,
53580,note_on,0,0,7,,,,,,,,5,,,67,80
53580,note_on,20,0,7,,,,,,,,5,,,69,0
53600,note_on,0,0,7,,,,,,,,5,,,76,82
53600,note_on,20,0,7,,,,,,,,5,,,77,0
53620,note_on,20,0,7,,,,,,,,5,,,69,0
53620,note_on,0,0,7,,,,,,,,5,,,67,82
53640,note_on,0,0,7,,,,,,,,5,,,65,74
53640,note_on,20,0,7,,,,,,,,5,,,67,0
53660,note_on,20,0,7,,,,,,,,5,,,76,0
53660,note_on,0,0,7,,,,,,,,5,,,74,85
53680,note_on,0,0,7,,,,,,,,5,,,65,80
53680,note_on,20,0,7,,,,,,,,5,,,67,0
53700,note_on,20,0,7,,,,,,,,5,,,65,0
53700,note_on,0,0,7,,,,,,,,5,,,64,85
53720,note_on,20,0,7,,,,,,,,5,,,74,0
53720,note_on,0,0,7,,,,,,,,5,,,72,70
53725,set_tempo,154,1,0,,,,,,769231,,,,,,
53740,note_on,20,0,7,,,,,,,,5,,,65,0
53740,note_on,0,0,7,,,,,,,,5,,,64,82
53760,note_on,20,0,7,,,,,,,,5,,,64,0
53760,note_on,0,0,7,,,,,,,,5,,,62,80
53780,note_on,20,0,7,,,,,,,,5,,,72,0
53780,note_on,0,0,7,,,,,,,,5,,,71,80
53800,note_on,20,0,7,,,,,,,,5,,,64,0
53800,note_on,0,0,7,,,,,,,,5,,,62,82
53820,note_on,0,0,7,,,,,,,,5,,,60,82
53820,note_on,20,0,7,,,,,,,,5,,,62,0
53840,note_on,20,0,7,,,,,,,,5,,,71,0
53840,note_on,0,0,7,,,,,,,,5,,,69,78
53860,note_on,20,0,7,,,,,,,,5,,,62,0
53860,note_on,0,0,7,,,,,,,,5,,,60,80
53880,note_on,20,0,7,,,,,,,,5,,,60,0
53880,note_on,0,0,7,,,,,,,,5,,,59,82
53880,set_tempo,155,1,0,,,,,,779221,,,,,,
53900,note_on,0,0,7,,,,,,,,5,,,67,72
53900,note_on,20,0,7,,,,,,,,5,,,69,0
53920,note_on,20,0,7,,,,,,,,5,,,60,0
53920,note_on,0,0,7,,,,,,,,5,,,59,70
53940,note_on,20,0,7,,,,,,,,5,,,59,0
53940,note_on,0,0,7,,,,,,,,5,,,57,85
53960,note_on,20,0,7,,,,,,,,5,,,67,0
53960,note_on,0,0,7,,,,,,,,5,,,65,85
53980,note_on,20,0,7,,,,,,,,5,,,59,0
53980,note_on,0,0,7,,,,,,,,5,,,57,74
54000,note_on,721,0,8,,,,,,,,5,,,55,80
54000,note_on,20,0,7,,,,,,,,5,,,57,0
54020,note_on,20,0,8,,,,,,,,5,,,64,85
54020,note_on,20,0,7,,,,,,,,5,,,65,0
54034,set_tempo,154,1,0,,,,,,789474,,,,,,
54040,note_on,20,0,8,,,,,,,,5,,,55,80
54040,note_on,20,0,7,,,,,,,,5,,,57,0
54060,note_on,20,0,8,,,,,,,,5,,,55,0
54060,note_on,0,0,8,,,,,,,,5,,,53,82
54080,note_on,0,0,8,,,,,,,,5,,,62,85
54080,note_on,20,0,8,,,,,,,,5,,,64,0
54100,note_on,0,0,8,,,,,,,,5,,,53,85
54100,note_on,20,0,8,,,,,,,,5,,,55,0
54120,note_on,0,0,8,,,,,,,,5,,,52,85
54120,note_on,20,0,8,,,,,,,,5,,,53,0
54140,note_on,0,0,8,,,,,,,,5,,,60,82
54140,note_on,20,0,8,,,,,,,,5,,,62,0
54160,note_on,0,0,8,,,,,,,,5,,,52,82
54160,note_on,20,0,8,,,,,,,,5,,,53,0
54180,note_on,20,0,8,,,,,,,,5,,,52,0
54180,note_on,0,0,8,,,,,,,,5,,,50,82
54188,set_tempo,154,1,0,,,,,,800000,,,,,,
54200,note_on,20,0,8,,,,,,,,5,,,60,0
54200,note_on,0,0,8,,,,,,,,5,,,59,82
54220,note_on,20,0,8,,,,,,,,5,,,52,0
54220,note_on,0,0,8,,,,,,,,5,,,50,78
54240,note_on,20,0,8,,,,,,,,5,,,50,0
54240,note_on,0,0,8,,,,,,,,5,,,52,85
54260,note_on,0,0,8,,,,,,,,5,,,60,85
54260,note_on,20,0,8,,,,,,,,5,,,59,0
54280,note_on,0,0,8,,,,,,,,5,,,52,82
54280,note_on,20,0,8,,,,,,,,5,,,50,0
54300,note_on,20,0,8,,,,,,,,5,,,52,0
54300,note_on,0,0,8,,,,,,,,5,,,53,78
54320,note_on,0,0,8,,,,,,,,5,,,62,80
54320,note_on,20,0,8,,,,,,,,5,,,60,0
54340,note_on,0,0,8,,,,,,,,5,,,53,82
54340,note_on,20,0,8,,,,,,,,5,,,52,0
54342,set_tempo,154,1,0,,,,,,810811,,,,,,
54360,note_on,0,0,8,,,,,,,,5,,,55,74
54360,note_on,20,0,8,,,,,,,,5,,,53,0
54380,note_on,20,0,8,,,,,,,,5,,,62,0
54380,note_on,0,0,8,,,,,,,,5,,,64,82
54400,note_on,0,0,8,,,,,,,,5,,,55,80
54400,note_on,20,0,8,,,,,,,,5,,,53,0
54420,note_on,380,0,7,,,,,,,,5,,,57,82
54420,note_on,20,0,8,,,,,,,,5,,,55,0
54440,note_on,20,0,7,,,,,,,,5,,,65,87
54440,note_on,20,0,8,,,,,,,,5,,,64,0
54460,note_on,20,0,7,,,,,,,,5,,,57,82
54460,note_on,20,0,8,,,,,,,,5,,,55,0
54480,note_on,0,0,7,,,,,,,,5,,,59,82
54480,note_on,20,0,7,,,,,,,,5,,,57,0
54497,set_tempo,155,1,0,,,,,,821918,,,,,,
54500,note_on,0,0,7,,,,,,,,5,,,67,72
54500,note_on,20,0,7,,,,,,,,5,,,65,0
54520,note_on,0,0,7,,,,,,,,5,,,59,80
54520,note_on,20,0,7,,,,,,,,5,,,57,0
54540,note_on,20,0,7,,,,,,,,5,,,59,0
54540,note_on,0,0,7,,,,,,,,5,,,60,82
54560,note_on,0,0,7,,,,,,,,5,,,69,85
54560,note_on,20,0,7,,,,,,,,5,,,67,0
54580,note_on,20,0,7,,,,,,,,5,,,59,0
54580,note_on,0,0,7,,,,,,,,5,,,60,80
54600,note_on,20,0,7,,,,,,,,5,,,60,0
54600,note_on,0,0,7,,,,,,,,5,,,62,85
54620,note_on,20,0,7,,,,,,,,5,,,69,0
54620,note_on,0,0,7,,,,,,,,5,,,71,82
54640,note_on,0,0,7,,,,,,,,5,,,62,70
54640,note_on,20,0,7,,,,,,,,5,,,60,0
54651,set_tempo,154,1,0,,,,,,833333,,,,,,
54660,note_on,0,0,7,,,,,,,,5,,,64,82
54660,note_on,20,0,7,,,,,,,,5,,,62,0
54680,note_on,20,0,7,,,,,,,,5,,,71,0
54680,note_on,0,0,7,,,,,,,,5,,,72,82
54700,note_on,0,0,7,,,,,,,,5,,,64,80
54700,note_on,20,0,7,,,,,,,,5,,,62,0
54720,note_on,0,0,7,,,,,,,,5,,,65,82
54720,note_on,20,0,7,,,,,,,,5,,,64,0
54740,note_on,20,0,7,,,,,,,,5,,,72,0
54740,note_on,0,0,7,,,,,,,,5,,,74,74
54760,note_on,0,0,7,,,,,,,,5,,,65,82
54760,note_on,20,0,7,,,,,,,,5,,,64,0
54780,note_on,0,0,7,,,,,,,,5,,,67,78
54780,note_on,20,0,7,,,,,,,,5,,,65,0
54800,note_on,20,0,7,,,,,,,,5,,,74,0
54800,note_on,0,0,7,,,,,,,,5,,,76,85
54805,set_tempo,154,1,0,,,,,,845070,,,,,,
54820,note_on,0,0,7,,,,,,,,5,,,67,80
54820,note_on,20,0,7,,,,,,,,5,,,65,0
54840,note_on,0,0,7,,,,,,,,5,,,69,82
54840,note_on,20,0,7,,,,,,,,5,,,67,0
54860,note_on,20,0,7,,,,,,,,5,,,76,0
54860,note_on,0,0,7,,,,,,,,5,,,77,80
54880,note_on,0,0,7,,,,,,,,5,,,69,76
54880,note_on,20,0,7,,,,,,,,5,,,67,0
54900,note_on,20,0,7,,,,,,,,5,,,69,0
54900,note_on,0,0,7,,,,,,,,5,,,71,80
54920,note_on,20,0,7,,,,,,,,5,,,77,0
54920,note_on,0,0,7,,,,,,,,5,,,79,80
54940,note_on,20,0,7,,,,,,,,5,,,69,0
54940,note_on,0,0,7,,,,,,,,5,,,71,74
54960,note_on,0,0,7,,,,,,,,5,,,72,82
54960,set_tempo,155,1,0,,,,,,857143,,,,,,
54960,note_on,20,0,7,,,,,,,,5,,,71,0
54980,note_on,20,0,7,,,,,,,,5,,,79,0
54980,note_on,0,0,7,,,,,,,,5,,,81,85
55000,note_on,20,0,7,,,,,,,,5,,,71,0
55000,note_on,0,0,7,,,,,,,,5,,,72,78
55020,note_on,0,0,7,,,,,,,,5,,,74,85
55020,note_on,20,0,7,,,,,,,,5,,,72,0
55040,note_on,20,0,7,,,,,,,,5,,,81,0
55040,note_on,0,0,7,,,,,,,,5,,,83,82
55060,note_on,0,0,7,,,,,,,,5,,,74,82
55060,note_on,20,0,7,,,,,,,,5,,,72,0
55080,note_on,0,0,7,,,,,,,,5,,,76,74
55080,note_on,20,0,7,,,,,,,,5,,,74,0
55080,set_tempo,120,1,0,,,,,,666667,,,,,,
55094,note_on,14,0,7,,,,,,,,5,,,76,0
55095,note_on,1,0,7,,,,,,,,5,,,84,80
55100,note_on,5,0,7,,,,,,,,5,,,83,0
55120,note_on,20,0,7,,,,,,,,5,,,74,0
55140,note_on,20,0,7,,,,,,,,5,,,84,0
55140,note_on,0,0,7,,,,,,,,5,,,84,80
55199,note_on,59,0,7,,,,,,,,5,,,84,0
55200,note_on,1,0,7,,,,,,,,5,,,79,74
55200,note_on,740,0,8,,,,,,,,5,,,64,68
55230,note_on,30,0,8,,,,,,,,5,,,60,68
55258,note_on,28,0,8,,,,,,,,5,,,64,0
55259,note_on,59,0,7,,,,,,,,5,,,79,0
55260,note_on,2,0,8,,,,,,,,5,,,64,66
55260,note_on,1,0,7,,,,,,,,5,,,79,64
55288,note_on,28,0,8,,,,,,,,5,,,60,0
55290,note_on,2,0,8,,,,,,,,5,,,60,68
55318,note_on,28,0,8,,,,,,,,5,,,64,0
55319,note_on,59,0,7,,,,,,,,5,,,79,0
55320,note_on,2,0,8,,,,,,,,5,,,65,64
55320,note_on,1,0,7,,,,,,,,5,,,81,78
55348,note_on,28,0,8,,,,,,,,5,,,60,0
55350,note_on,2,0,8,,,,,,,,5,,,60,64
55378,note_on,28,0,8,,,,,,,,5,,,65,0
55379,note_on,59,0,7,,,,,,,,5,,,81,0
55380,note_on,1,0,7,,,,,,,,5,,,81,76
55380,note_on,2,0,8,,,,,,,,5,,,65,63
55408,note_on,28,0,8,,,,,,,,5,,,60,0
55410,note_on,2,0,8,,,,,,,,5,,,60,60
55438,note_on,28,0,8,,,,,,,,5,,,65,0
55439,note_on,59,0,7,,,,,,,,5,,,81,0
55440,note_on,2,0,8,,,,,,,,5,,,67,60
55440,note_on,1,0,7,,,,,,,,5,,,76,64
55468,note_on,28,0,8,,,,,,,,5,,,60,0
55470,note_on,2,0,8,,,,,,,,5,,,60,57
55498,note_on,28,0,8,,,,,,,,5,,,67,0
55499,note_on,59,0,7,,,,,,,,5,,,76,0
55500,note_on,1,0,7,,,,,,,,5,,,76,68
55500,note_on,2,0,8,,,,,,,,5,,,67,66
55528,note_on,28,0,8,,,,,,,,5,,,60,0
55530,note_on,2,0,8,,,,,,,,5,,,60,62
55558,note_on,28,0,8,,,,,,,,5,,,67,0
55559,note_on,59,0,7,,,,,,,,5,,,76,0
55560,note_on,2,0,8,,,,,,,,5,,,69,62
55560,note_on,1,0,7,,,,,,,,5,,,77,66
55588,note_on,28,0,8,,,,,,,,5,,,60,0
55590,note_on,2,0,8,,,,,,,,5,,,60,59
55618,note_on,28,0,8,,,,,,,,5,,,69,0
55619,note_on,59,0,7,,,,,,,,5,,,77,0
55620,note_on,1,0,7,,,,,,,,5,,,77,80
55620,note_on,2,0,8,,,,,,,,5,,,69,57
55648,note_on,28,0,8,,,,,,,,5,,,60,0
55650,note_on,2,0,8,,,,,,,,5,,,60,53
55678,note_on,28,0,8,,,,,,,,5,,,69,0
55679,note_on,59,0,7,,,,,,,,5,,,77,0
55680,note_on,1,0,7,,,,,,,,5,,,79,82
55680,note_on,2,0,8,,,,,,,,5,,,64,70
55708,note_on,28,0,8,,,,,,,,5,,,60,0
55709,note_on,29,0,7,,,,,,,,5,,,79,0
55710,note_on,2,0,8,,,,,,,,5,,,60,68
55710,note_on,1,0,7,,,,,,,,5,,,76,80
55738,note_on,28,0,8,,,,,,,,5,,,64,0
55739,note_on,29,0,7,,,,,,,,5,,,76,0
55740,note_on,2,0,8,,,,,,,,5,,,64,64
55740,note_on,1,0,7,,,,,,,,5,,,79,74
55768,note_on,28,0,8,,,,,,,,5,,,60,0
55769,note_on,29,0,7,,,,,,,,5,,,79,0
55770,note_on,1,0,7,,,,,,,,5,,,76,72
55770,note_on,2,0,8,,,,,,,,5,,,60,64
55798,note_on,28,0,8,,,,,,,,5,,,64,0
55799,note_on,29,0,7,,,,,,,,5,,,76,0
55800,note_on,2,0,8,,,,,,,,5,,,65,72
55800,note_on,1,0,7,,,,,,,,5,,,81,78
55828,note_on,28,0,8,,,,,,,,5,,,60,0
55829,note_on,29,0,7,,,,,,,,5,,,81,0
55830,note_on,2,0,8,,,,,,,,5,,,64,66
55830,note_on,1,0,7,,,,,,,,5,,,79,70
55858,note_on,28,0,8,,,,,,,,5,,,65,0
55859,note_on,29,0,7,,,,,,,,5,,,79,0
55860,note_on,2,0,8,,,,,,,,5,,,62,68
55860,note_on,1,0,7,,,,,,,,5,,,77,78
55888,note_on,28,0,8,,,,,,,,5,,,64,0
55889,note_on,29,0,7,,,,,,,,5,,,77,0
55890,note_on,2,0,8,,,,,,,,5,,,60,70
55890,note_on,1,0,7,,,,,,,,5,,,76,85
55918,note_on,28,0,8,,,,,,,,5,,,62,0
55919,note_on,29,0,7,,,,,,,,5,,,76,0
55920,note_on,1,0,7,,,,,,,,5,,,73,82
55920,note_on,0,0,8,,,,,,,,5,,,58,78
55920,note_on,2,0,8,,,,,,,,5,,,55,76
55948,note_on,28,0,8,,,,,,,,5,,,60,0
55949,note_on,29,0,7,,,,,,,,5,,,73,0
55950,note_on,1,0,7,,,,,,,,5,,,74,82
55950,note_on,2,0,8,,,,,,,,5,,,59,85
55978,note_on,28,0,8,,,,,,,,5,,,58,0
55979,note_on,29,0,7,,,,,,,,5,,,74,0
55980,note_on,1,0,7,,,,,,,,5,,,74,85
55980,note_on,2,0,8,,,,,,,,5,,,59,78
56008,note_on,28,0,8,,,,,,,,5,,,59,0
56039,note_on,59,0,7,,,,,,,,5,,,74,0
56040,note_on,1,0,7,,,,,,,,5,,,84,82
56098,note_on,90,0,8,,,,,,,,5,,,59,0
56099,note_on,59,0,7,,,,,,,,5,,,84,0
56100,note_on,1,0,7,,,,,,,,5,,,84,85
56158,note_on,60,0,8,,,,,,,,5,,,55,0
56159,note_on,59,0,7,,,,,,,,5,,,84,0
56160,note_on,1,0,7,,,,,,,,5,,,79,82
56160,note_on,2,0,8,,,,,,,,5,,,64,74
56190,note_on,30,0,8,,,,,,,,5,,,60,68
56218,note_on,28,0,8,,,,,,,,5,,,64,0
56219,note_on,59,0,7,,,,,,,,5,,,79,0
56220,note_on,2,0,8,,,,,,,,5,,,64,68
56220,note_on,1,0,7,,,,,,,,5,,,79,78
56248,note_on,28,0,8,,,,,,,,5,,,60,0
56250,note_on,2,0,8,,,,,,,,5,,,60,68
56278,note_on,28,0,8,,,,,,,,5,,,64,0
56279,note_on,59,0,7,,,,,,,,5,,,79,0
56280,note_on,1,0,7,,,,,,,,5,,,81,78
56280,note_on,2,0,8,,,,,,,,5,,,65,66
56308,note_on,28,0,8,,,,,,,,5,,,60,0
56310,note_on,2,0,8,,,,,,,,5,,,60,66
56338,note_on,28,0,8,,,,,,,,5,,,65,0
56339,note_on,59,0,7,,,,,,,,5,,,81,0
56340,note_on,1,0,7,,,,,,,,5,,,81,82
56340,note_on,2,0,8,,,,,,,,5,,,65,61
56368,note_on,28,0,8,,,,,,,,5,,,60,0
56370,note_on,2,0,8,,,,,,,,5,,,60,59
56398,note_on,28,0,8,,,,,,,,5,,,65,0
56399,note_on,59,0,7,,,,,,,,5,,,81,0
56400,note_on,2,0,8,,,,,,,,5,,,67,68
56400,note_on,1,0,7,,,,,,,,5,,,76,82
56428,note_on,28,0,8,,,,,,,,5,,,60,0
56430,note_on,2,0,8,,,,,,,,5,,,60,61
56458,note_on,28,0,8,,,,,,,,5,,,67,0
56459,note_on,59,0,7,,,,,,,,5,,,76,0
56460,note_on,1,0,7,,,,,,,,5,,,76,80
56460,note_on,2,0,8,,,,,,,,5,,,67,72
56488,note_on,28,0,8,,,,,,,,5,,,60,0
56490,note_on,2,0,8,,,,,,,,5,,,60,58
56518,note_on,28,0,8,,,,,,,,5,,,67,0
56519,note_on,59,0,7,,,,,,,,5,,,76,0
56520,note_on,1,0,7,,,,,,,,5,,,77,85
56520,note_on,2,0,8,,,,,,,,5,,,69,61
56548,note_on,28,0,8,,,,,,,,5,,,60,0
56550,note_on,2,0,8,,,,,,,,5,,,60,60
56578,note_on,28,0,8,,,,,,,,5,,,69,0
56579,note_on,59,0,7,,,,,,,,5,,,77,0
56580,note_on,1,0,7,,,,,,,,5,,,77,85
56580,note_on,2,0,8,,,,,,,,5,,,69,68
56608,note_on,28,0,8,,,,,,,,5,,,60,0
56610,note_on,2,0,8,,,,,,,,5,,,60,58
56638,note_on,28,0,8,,,,,,,,5,,,69,0
56639,note_on,59,0,7,,,,,,,,5,,,77,0
56640,note_on,1,0,7,,,,,,,,5,,,79,82
56640,note_on,2,0,8,,,,,,,,5,,,64,63
56668,note_on,28,0,8,,,,,,,,5,,,60,0
56669,note_on,29,0,7,,,,,,,,5,,,79,0
56670,note_on,1,0,7,,,,,,,,5,,,76,85
56670,note_on,2,0,8,,,,,,,,5,,,60,68
56698,note_on,28,0,8,,,,,,,,5,,,64,0
56699,note_on,29,0,7,,,,,,,,5,,,76,0
56700,note_on,2,0,8,,,,,,,,5,,,65,74
56700,note_on,1,0,7,,,,,,,,5,,,81,87
56728,note_on,28,0,8,,,,,,,,5,,,60,0
56729,note_on,29,0,7,,,,,,,,5,,,81,0
56730,note_on,1,0,7,,,,,,,,5,,,77,85
56730,note_on,2,0,8,,,,,,,,5,,,62,68
56758,note_on,28,0,8,,,,,,,,5,,,65,0
56759,note_on,29,0,7,,,,,,,,5,,,77,0
56760,note_on,1,0,7,,,,,,,,5,,,76,85
56760,note_on,0,0,8,,,,,,,,5,,,60,68
56760,note_on,2,0,8,,,,,,,,5,,,55,61
56788,note_on,28,0,8,,,,,,,,5,,,62,0
56819,note_on,59,0,7,,,,,,,,5,,,76,0
56820,note_on,32,0,8,,,,,,,,5,,,55,62
56820,note_on,0,0,8,,,,,,,,5,,,59,78
56820,note_on,1,0,7,,,,,,,,5,,,74,82
56878,note_on,58,0,8,,,,,,,,5,,,60,0
56878,note_on,0,0,8,,,,,,,,5,,,55,0
56879,note_on,59,0,7,,,,,,,,5,,,74,0
56880,note_on,2,0,8,,,,,,,,5,,,60,82
56880,note_on,1,0,7,,,,,,,,5,,,72,82
56938,note_on,58,0,8,,,,,,,,5,,,55,0
56938,note_on,0,0,8,,,,,,,,5,,,59,0
56940,note_on,2,0,8,,,,,,,,5,,,48,85
56998,note_on,58,0,8,,,,,,,,5,,,60,0
56999,note_on,119,0,7,,,,,,,,5,,,72,0
57000,note_on,4201,0,2,,,,,,,,6,,,60,82
57000,note_on,4261,0,9,,,,,,,,12,,,84,85
57000,note_on,4321,0,1,,,,,,,,3,,,84,85
57000,note_on,4261,0,10,,,,,,,,13,,,60,80
57000,note_on,0,0,2,,,,,,,,6,,,84,80
57029,note_on,29,0,10,,,,,,,,13,,,60,0
57030,note_on,1,0,10,,,,,,,,13,,,59,70
57058,note_on,60,0,8,,,,,,,,5,,,48,0
57059,note_on,29,0,10,,,,,,,,13,,,59,0
57059,note_on,59,0,9,,,,,,,,12,,,84,0
57059,note_on,59,0,1,,,,,,,,3,,,84,0
57060,note_on,1,0,10,,,,,,,,13,,,60,70
57060,note_on,1,0,1,,,,,,,,3,,,84,80
57060,note_on,1,0,9,,,,,,,,12,,,84,80
57089,note_on,29,0,10,,,,,,,,13,,,60,0
57090,note_on,1,0,10,,,,,,,,13,,,62,68
57119,note_on,59,0,1,,,,,,,,3,,,84,0
57119,note_on,59,0,9,,,,,,,,12,,,84,0
57119,note_on,0,0,2,,,,,,,,6,,,60,0
57119,note_on,119,0,2,,,,,,,,6,,,84,0
57119,note_on,29,0,10,,,,,,,,13,,,62,0
57120,note_on,1,0,10,,,,,,,,13,,,64,74
57120,note_on,1,0,9,,,,,,,,12,,,79,80
57120,note_on,1,0,1,,,,,,,,3,,,79,80
57120,note_on,5281,0,4,,,,,,,,7,,,60,68
57120,note_on,4201,0,3,,,,,,,,0,,,48,80
57120,note_on,17881,0,6,,,,,,,,4,,,48,80
57120,note_on,0,0,2,,,,,,,,6,,,79,82
57120,note_on,4201,0,11,,,,,,,,14,,,60,76
57120,note_on,0,0,5,,,,,,,,1,,,72,66
57120,note_on,17881,0,5,,,,,,,,1,,,60,70
57120,note_on,3721,0,12,,,,,,,,15,,,48,78
57120,note_on,1,0,2,,,,,,,,6,,,64,68
57120,note_on,0,0,4,,,,,,,,7,,,72,66
57149,note_on,29,0,10,,,,,,,,13,,,64,0
57150,note_on,1,0,10,,,,,,,,13,,,60,68
57179,note_on,59,0,9,,,,,,,,12,,,79,0
57179,note_on,29,0,10,,,,,,,,13,,,60,0
57179,note_on,59,0,1,,,,,,,,3,,,79,0
57180,note_on,1,0,9,,,,,,,,12,,,79,70
57180,note_on,1,0,10,,,,,,,,13,,,64,60
57180,note_on,1,0,1,,,,,,,,3,,,79,70
57209,note_on,29,0,10,,,,,,,,13,,,64,0
57210,note_on,1,0,10,,,,,,,,13,,,60,63
57239,note_on,59,0,9,,,,,,,,12,,,79,0
57239,note_on,59,0,1,,,,,,,,3,,,79,0
57239,note_on,119,0,2,,,,,,,,6,,,79,0
57239,note_on,29,0,10,,,,,,,,13,,,60,0
57239,note_on,0,0,2,,,,,,,,6,,,64,0
57240,note_on,0,0,2,,,,,,,,6,,,65,70
57240,note_on,1,0,2,,,,,,,,6,,,81,85
57240,note_on,120,0,11,,,,,,,,14,,,60,0
57240,note_on,120,0,3,,,,,,,,0,,,48,0
57240,note_on,120,0,12,,,,,,,,15,,,48,0
57240,note_on,120,0,6,,,,,,,,4,,,48,0
57240,note_on,1,0,10,,,,,,,,13,,,65,72
57240,note_on,1,0,9,,,,,,,,12,,,81,80
57240,note_on,1,0,1,,,,,,,,3,,,81,80
57240,note_on,120,0,5,,,,,,,,1,,,72,0
57240,note_on,0,0,5,,,,,,,,1,,,60,0
57269,note_on,29,0,10,,,,,,,,13,,,65,0
57270,note_on,1,0,10,,,,,,,,13,,,60,64
57299,note_on,29,0,10,,,,,,,,13,,,60,0
57299,note_on,59,0,9,,,,,,,,12,,,81,0
57299,note_on,59,0,1,,,,,,,,3,,,81,0
57300,note_on,1,0,10,,,,,,,,13,,,65,68
57300,note_on,1,0,1,,,,,,,,3,,,81,78
57300,note_on,1,0,9,,,,,,,,12,,,81,78
57329,note_on,29,0,10,,,,,,,,13,,,65,0
57330,note_on,1,0,10,,,,,,,,13,,,60,66
57359,note_on,0,0,2,,,,,,,,6,,,81,0
57359,note_on,0,0,4,,,,,,,,7,,,60,0
57359,note_on,29,0,10,,,,,,,,13,,,60,0
57359,note_on,59,0,9,,,,,,,,12,,,81,0
57359,note_on,119,0,2,,,,,,,,6,,,65,0
57359,note_on,59,0,1,,,,,,,,3,,,81,0
57359,note_on,239,0,4,,,,,,,,7,,,72,0
57360,note_on,1,0,10,,,,,,,,13,,,67,66
57360,note_on,120,0,12,,,,,,,,15,,,48,74
57360,note_on,1,0,9,,,,,,,,12,,,76,74
57360,note_on,120,0,11,,,,,,,,14,,,60,82
57360,note_on,120,0,3,,,,,,,,0,,,48,82
57360,note_on,1,0,4,,,,,,,,7,,,60,66
57360,note_on,0,0,2,,,,,,,,6,,,67,74
57360,note_on,1,0,2,,,,,,,,6,,,76,80
57360,note_on,0,0,4,,,,,,,,7,,,72,78
57360,note_on,120,0,5,,,,,,,,1,,,72,64
57360,note_on,0,0,5,,,,,,,,1,,,60,59
57360,note_on,120,0,6,,,,,,,,4,,,48,74
57360,note_on,1,0,1,,,,,,,,3,,,76,74
57389,note_on,29,0,10,,,,,,,,13,,,67,0
57390,note_on,1,0,10,,,,,,,,13,,,60,64
57419,note_on,59,0,1,,,,,,,,3,,,76,0
57419,note_on,29,0,10,,,,,,,,13,,,60,0
57419,note_on,59,0,9,,,,,,,,12,,,76,0
57420,note_on,1,0,9,,,,,,,,12,,,76,66
57420,note_on,1,0,1,,,,,,,,3,,,76,66
57420,note_on,1,0,10,,,,,,,,13,,,67,68
57449,note_on,29,0,10,,,,,,,,13,,,67,0
57450,note_on,1,0,10,,,,,,,,13,,,60,64
57479,note_on,29,0,10,,,,,,,,13,,,60,0
57479,note_on,59,0,1,,,,,,,,3,,,76,0
57479,note_on,119,0,2,,,,,,,,6,,,67,0
57479,note_on,59,0,9,,,,,,,,12,,,76,0
57479,note_on,0,0,2,,,,,,,,6,,,76,0
57480,note_on,120,0,12,,,,,,,,15,,,48,0
57480,note_on,0,0,2,,,,,,,,6,,,77,85
57480,note_on,120,0,5,,,,,,,,1,,,60,0
57480,note_on,0,0,5,,,,,,,,1,,,72,0
57480,note_on,120,0,3,,,,,,,,0,,,48,0
57480,note_on,120,0,6,,,,,,,,4,,,48,0
57480,note_on,1,0,10,,,,,,,,13,,,69,70
57480,note_on,1,0,2,,,,,,,,6,,,69,78
57480,note_on,1,0,9,,,,,,,,12,,,77,51
57480,note_on,1,0,1,,,,,,,,3,,,77,51
57480,note_on,120,0,11,,,,,,,,14,,,60,0
57509,note_on,29,0,10,,,,,,,,13,,,69,0
57510,note_on,1,0,10,,,,,,,,13,,,60,66
57539,note_on,59,0,9,,,,,,,,12,,,77,0
57539,note_on,59,0,1,,,,,,,,3,,,77,0
57539,note_on,29,0,10,,,,,,,,13,,,60,0
57540,note_on,1,0,10,,,,,,,,13,,,69,64
57540,note_on,1,0,9,,,,,,,,12,,,77,74
57540,note_on,1,0,1,,,,,,,,3,,,77,74
57569,note_on,29,0,10,,,,,,,,13,,,69,0
57570,note_on,1,0,10,,,,,,,,13,,,60,62
57599,note_on,239,0,4,,,,,,,,7,,,72,0
57599,note_on,0,0,4,,,,,,,,7,,,60,0
57599,note_on,59,0,1,,,,,,,,3,,,77,0
57599,note_on,119,0,2,,,,,,,,6,,,77,0
57599,note_on,0,0,2,,,,,,,,6,,,69,0
57599,note_on,29,0,10,,,,,,,,13,,,60,0
57599,note_on,59,0,9,,,,,,,,12,,,77,0
57600,note_on,120,0,6,,,,,,,,4,,,48,72
57600,note_on,1,0,10,,,,,,,,13,,,64,80
57600,note_on,1,0,1,,,,,,,,3,,,79,82
57600,note_on,120,0,3,,,,,,,,0,,,48,80
57600,note_on,0,0,5,,,,,,,,1,,,72,64
57600,note_on,120,0,5,,,,,,,,1,,,60,59
57600,note_on,0,0,2,,,,,,,,6,,,76,76
57600,note_on,1,0,9,,,,,,,,12,,,79,82
57600,note_on,0,0,4,,,,,,,,7,,,60,58
57600,note_on,1,0,2,,,,,,,,6,,,79,74
57600,note_on,120,0,11,,,,,,,,14,,,60,76
57600,note_on,120,0,12,,,,,,,,15,,,48,80
57600,note_on,1,0,4,,,,,,,,7,,,72,68
57629,note_on,0,0,2,,,,,,,,6,,,79,0
57629,note_on,29,0,10,,,,,,,,13,,,64,0
57629,note_on,29,0,1,,,,,,,,3,,,79,0
57629,note_on,29,0,9,,,,,,,,12,,,79,0
57629,note_on,29,0,2,,,,,,,,6,,,76,0
57630,note_on,1,0,9,,,,,,,,12,,,76,72
57630,note_on,1,0,10,,,,,,,,13,,,60,66
57630,note_on,0,0,2,,,,,,,,6,,,72,72
57630,note_on,1,0,2,,,,,,,,6,,,76,74
57630,note_on,1,0,1,,,,,,,,3,,,76,72
57659,note_on,29,0,1,,,,,,,,3,,,76,0
57659,note_on,29,0,9,,,,,,,,12,,,76,0
57659,note_on,0,0,2,,,,,,,,6,,,76,0
57659,note_on,29,0,2,,,,,,,,6,,,72,0
57659,note_on,29,0,10,,,,,,,,13,,,60,0
57660,note_on,1,0,10,,,,,,,,13,,,64,66
57660,note_on,1,0,1,,,,,,,,3,,,79,70
57660,note_on,1,0,2,,,,,,,,6,,,76,82
57660,note_on,1,0,9,,,,,,,,12,,,79,70
57660,note_on,0,0,2,,,,,,,,6,,,79,70
57689,note_on,29,0,1,,,,,,,,3,,,79,0
57689,note_on,29,0,2,,,,,,,,6,,,79,0
57689,note_on,29,0,10,,,,,,,,13,,,64,0
57689,note_on,29,0,9,,,,,,,,12,,,79,0
57689,note_on,0,0,2,,,,,,,,6,,,76,0
57690,note_on,0,0,2,,,,,,,,6,,,76,74
57690,note_on,1,0,1,,,,,,,,3,,,76,70
57690,note_on,1,0,9,,,,,,,,12,,,76,70
57690,note_on,1,0,10,,,,,,,,13,,,60,64
57690,note_on,1,0,2,,,,,,,,6,,,72,70
57719,note_on,29,0,2,,,,,,,,6,,,76,0
57719,note_on,0,0,2,,,,,,,,6,,,72,0
57719,note_on,119,0,12,,,,,,,,15,,,48,0
57719,note_on,119,0,5,,,,,,,,1,,,72,0
57719,note_on,119,0,11,,,,,,,,14,,,60,0
57719,note_on,29,0,1,,,,,,,,3,,,76,0
57719,note_on,29,0,10,,,,,,,,13,,,60,0
57719,note_on,119,0,3,,,,,,,,0,,,48,0
57719,note_on,29,0,9,,,,,,,,12,,,76,0
57719,note_on,119,0,6,,,,,,,,4,,,48,0
57719,note_on,0,0,5,,,,,,,,1,,,60,0
57720,note_on,1,0,9,,,,,,,,12,,,81,82
57720,note_on,1,0,10,,,,,,,,13,,,65,72
57720,note_on,0,0,5,,,,,,,,1,,,60,60
57720,note_on,1,0,3,,,,,,,,0,,,60,68
57720,note_on,1,0,12,,,,,,,,15,,,60,70
57720,note_on,1,0,2,,,,,,,,6,,,81,82
57720,note_on,1,0,6,,,,,,,,4,,,48,70
57720,note_on,1,0,1,,,,,,,,3,,,81,82
57720,note_on,1,0,11,,,,,,,,14,,,72,78
57720,note_on,0,0,2,,,,,,,,6,,,77,80
57720,note_on,1,0,5,,,,,,,,1,,,72,68
57749,note_on,29,0,2,,,,,,,,6,,,77,0
57749,note_on,0,0,2,,,,,,,,6,,,81,0
57749,note_on,29,0,9,,,,,,,,12,,,81,0
57749,note_on,29,0,1,,,,,,,,3,,,81,0
57749,note_on,29,0,10,,,,,,,,13,,,65,0
57750,note_on,1,0,9,,,,,,,,12,,,79,74
57750,note_on,1,0,10,,,,,,,,13,,,64,66
57750,note_on,1,0,2,,,,,,,,6,,,76,70
57750,note_on,0,0,2,,,,,,,,6,,,79,68
57750,note_on,1,0,1,,,,,,,,3,,,79,74
57779,note_on,29,0,10,,,,,,,,13,,,64,0
57779,note_on,179,0,4,,,,,,,,7,,,60,0
57779,note_on,0,0,2,,,,,,,,6,,,76,0
57779,note_on,29,0,9,,,,,,,,12,,,79,0
57779,note_on,29,0,1,,,,,,,,3,,,79,0
57779,note_on,29,0,2,,,,,,,,6,,,79,0
57779,note_on,0,0,4,,,,,,,,7,,,72,0
57780,note_on,0,0,4,,,,,,,,7,,,72,68
57780,note_on,1,0,2,,,,,,,,6,,,74,70
57780,note_on,1,0,4,,,,,,,,7,,,60,64
57780,note_on,1,0,9,,,,,,,,12,,,77,74
57780,note_on,1,0,1,,,,,,,,3,,,77,74
57780,note_on,0,0,2,,,,,,,,6,,,77,72
57780,note_on,1,0,10,,,,,,,,13,,,62,66
57809,note_on,29,0,10,,,,,,,,13,,,62,0
57809,note_on,29,0,2,,,,,,,,6,,,77,0
57809,note_on,29,0,9,,,,,,,,12,,,77,0
57809,note_on,29,0,1,,,,,,,,3,,,77,0
57809,note_on,0,0,2,,,,,,,,6,,,74,0
57810,note_on,1,0,10,,,,,,,,13,,,60,70
57810,note_on,1,0,9,,,,,,,,12,,,76,82
57810,note_on,1,0,2,,,,,,,,6,,,72,68
57810,note_on,0,0,2,,,,,,,,6,,,76,74
57810,note_on,1,0,1,,,,,,,,3,,,76,82
57839,note_on,119,0,3,,,,,,,,0,,,60,0
57839,note_on,29,0,9,,,,,,,,12,,,76,0
57839,note_on,119,0,11,,,,,,,,14,,,72,0
57839,note_on,119,0,12,,,,,,,,15,,,60,0
57839,note_on,29,0,2,,,,,,,,6,,,76,0
57839,note_on,0,0,2,,,,,,,,6,,,72,0
57839,note_on,0,0,5,,,,,,,,1,,,72,0
57839,note_on,119,0,5,,,,,,,,1,,,60,0
57839,note_on,119,0,6,,,,,,,,4,,,48,0
57839,note_on,29,0,10,,,,,,,,13,,,60,0
57839,note_on,29,0,1,,,,,,,,3,,,76,0
57839,note_on,59,0,4,,,,,,,,7,,,72,0
57839,note_on,0,0,4,,,,,,,,7,,,60,0
57840,note_on,1,0,4,,,,,,,,7,,,67,85
57840,note_on,1,0,9,,,,,,,,12,,,73,68
57840,note_on,1,0,10,,,,,,,,13,,,61,70
57840,note_on,0,0,4,,,,,,,,7,,,55,82
57840,note_on,1,0,6,,,,,,,,4,,,43,78
57840,note_on,1,0,1,,,,,,,,3,,,73,80
57840,note_on,1,0,5,,,,,,,,1,,,67,80
57840,note_on,1,0,3,,,,,,,,0,,,55,76
57840,note_on,1,0,11,,,,,,,,14,,,67,82
57840,note_on,0,0,5,,,,,,,,1,,,55,68
57840,note_on,0,0,2,,,,,,,,6,,,70,68
57840,note_on,1,0,2,,,,,,,,6,,,73,70
57840,note_on,1,0,12,,,,,,,,15,,,55,78
57869,note_on,29,0,10,,,,,,,,13,,,61,0
57869,note_on,29,0,9,,,,,,,,12,,,73,0
57869,note_on,29,0,1,,,,,,,,3,,,73,0
57869,note_on,0,0,2,,,,,,,,6,,,73,0
57869,note_on,29,0,2,,,,,,,,6,,,70,0
57870,note_on,1,0,1,,,,,,,,3,,,74,85
57870,note_on,1,0,9,,,,,,,,12,,,74,70
57870,note_on,1,0,10,,,,,,,,13,,,62,82
57870,note_on,1,0,2,,,,,,,,6,,,71,72
57870,note_on,0,0,2,,,,,,,,6,,,74,68
57899,note_on,29,0,10,,,,,,,,13,,,62,0
57899,note_on,29,0,1,,,,,,,,3,,,74,0
57899,note_on,29,0,9,,,,,,,,12,,,74,0
57899,note_on,0,0,2,,,,,,,,6,,,71,0
57899,note_on,29,0,2,,,,,,,,6,,,74,0
57900,note_on,1,0,1,,,,,,,,3,,,74,78
57900,note_on,1,0,10,,,,,,,,13,,,62,70
57900,note_on,0,0,2,,,,,,,,6,,,74,68
57900,note_on,1,0,9,,,,,,,,12,,,74,68
57900,note_on,1,0,2,,,,,,,,6,,,71,70
57959,note_on,119,0,6,,,,,,,,4,,,43,0
57959,note_on,0,0,2,,,,,,,,6,,,71,0
57959,note_on,59,0,2,,,,,,,,6,,,74,0
57959,note_on,59,0,1,,,,,,,,3,,,74,0
57959,note_on,119,0,11,,,,,,,,14,,,67,0
57959,note_on,0,0,4,,,,,,,,7,,,67,0
57959,note_on,119,0,12,,,,,,,,15,,,55,0
57959,note_on,119,0,5,,,,,,,,1,,,55,0
57959,note_on,59,0,9,,,,,,,,12,,,74,0
57959,note_on,59,0,10,,,,,,,,13,,,62,0
57959,note_on,0,0,5,,,,,,,,1,,,67,0
57959,note_on,119,0,3,,,,,,,,0,,,55,0
57959,note_on,119,0,4,,,,,,,,7,,,55,0
57960,note_on,1,0,10,,,,,,,,13,,,60,74
57960,note_on,1,0,4,,,,,,,,7,,,72,80
57960,note_on,0,0,4,,,,,,,,7,,,60,76
57960,note_on,1,0,2,,,,,,,,6,,,84,78
57960,note_on,0,0,2,,,,,,,,6,,,60,74
57960,note_on,1,0,1,,,,,,,,3,,,84,82
57960,note_on,1,0,9,,,,,,,,12,,,84,70
58019,note_on,59,0,10,,,,,,,,13,,,60,0
58019,note_on,0,0,4,,,,,,,,7,,,72,0
58019,note_on,59,0,4,,,,,,,,7,,,60,0
58019,note_on,59,0,1,,,,,,,,3,,,84,0
58019,note_on,59,0,9,,,,,,,,12,,,84,0
58020,note_on,1,0,10,,,,,,,,13,,,60,70
58020,note_on,0,0,4,,,,,,,,7,,,72,66
58020,note_on,1,0,4,,,,,,,,7,,,60,66
58020,note_on,1,0,1,,,,,,,,3,,,84,78
58020,note_on,1,0,9,,,,,,,,12,,,84,70
58049,note_on,29,0,4,,,,,,,,7,,,72,0
58049,note_on,29,0,9,,,,,,,,12,,,84,0
58049,note_on,29,0,10,,,,,,,,13,,,60,0
58049,note_on,29,0,1,,,,,,,,3,,,84,0
58049,note_on,0,0,4,,,,,,,,7,,,60,0
58050,note_on,1,0,9,,,,,,,,12,,,84,70
58050,note_on,0,0,4,,,,,,,,7,,,60,72
58050,note_on,1,0,4,,,,,,,,7,,,72,78
58050,note_on,1,0,10,,,,,,,,13,,,60,66
58050,note_on,1,0,1,,,,,,,,3,,,84,82
58079,note_on,29,0,1,,,,,,,,3,,,84,0
58079,note_on,29,0,9,,,,,,,,12,,,84,0
58079,note_on,29,0,4,,,,,,,,7,,,60,0
58079,note_on,0,0,4,,,,,,,,7,,,72,0
58079,note_on,29,0,10,,,,,,,,13,,,60,0
58079,note_on,0,0,2,,,,,,,,6,,,84,0
58079,note_on,119,0,2,,,,,,,,6,,,60,0
58080,note_on,121,0,6,,,,,,,,4,,,48,66
58080,note_on,0,0,2,,,,,,,,6,,,64,68
58080,note_on,121,0,12,,,,,,,,15,,,48,82
58080,note_on,1,0,2,,,,,,,,6,,,79,70
58080,note_on,121,0,5,,,,,,,,1,,,60,61
58080,note_on,0,0,5,,,,,,,,1,,,72,60
58080,note_on,1,0,9,,,,,,,,12,,,79,72
58080,note_on,0,0,4,,,,,,,,7,,,60,70
58080,note_on,1,0,1,,,,,,,,3,,,79,82
58080,note_on,121,0,11,,,,,,,,14,,,60,78
58080,note_on,1,0,4,,,,,,,,7,,,72,85
58080,note_on,121,0,3,,,,,,,,0,,,48,78
58080,note_on,1,0,10,,,,,,,,13,,,64,80
58139,note_on,59,0,9,,,,,,,,12,,,79,0
58139,note_on,59,0,11,,,,,,,,14,,,60,0
58139,note_on,59,0,10,,,,,,,,13,,,64,0
58139,note_on,59,0,4,,,,,,,,7,,,60,0
58139,note_on,0,0,4,,,,,,,,7,,,72,0
58139,note_on,59,0,3,,,,,,,,0,,,48,0
58139,note_on,59,0,1,,,,,,,,3,,,79,0
58139,note_on,59,0,12,,,,,,,,15,,,48,0
58140,note_on,1,0,10,,,,,,,,13,,,64,74
58140,note_on,1,0,9,,,,,,,,12,,,79,68
58140,note_on,1,0,12,,,,,,,,15,,,60,80
58140,note_on,0,0,4,,,,,,,,7,,,60,72
58140,note_on,1,0,4,,,,,,,,7,,,72,78
58140,note_on,1,0,11,,,,,,,,14,,,60,78
58140,note_on,1,0,3,,,,,,,,0,,,60,66
58140,note_on,1,0,1,,,,,,,,3,,,79,82
58169,note_on,0,0,4,,,,,,,,7,,,72,0
58169,note_on,29,0,4,,,,,,,,7,,,60,0
58169,note_on,29,0,3,,,,,,,,0,,,60,0
58169,note_on,29,0,12,,,,,,,,15,,,60,0
58169,note_on,29,0,11,,,,,,,,14,,,60,0
58169,note_on,29,0,9,,,,,,,,12,,,79,0
58169,note_on,29,0,1,,,,,,,,3,,,79,0
58169,note_on,29,0,10,,,,,,,,13,,,64,0
58170,note_on,1,0,3,,,,,,,,0,,,60,72
58170,note_on,1,0,10,,,,,,,,13,,,64,82
58170,note_on,1,0,1,,,,,,,,3,,,79,76
58170,note_on,1,0,4,,,,,,,,7,,,72,78
58170,note_on,1,0,12,,,,,,,,15,,,60,64
58170,note_on,1,0,9,,,,,,,,12,,,79,70
58170,note_on,0,0,4,,,,,,,,7,,,60,68
58170,note_on,1,0,11,,,,,,,,14,,,60,66
58199,note_on,29,0,4,,,,,,,,7,,,60,0
58199,note_on,29,0,1,,,,,,,,3,,,79,0
58199,note_on,119,0,5,,,,,,,,1,,,72,0
58199,note_on,29,0,3,,,,,,,,0,,,60,0
58199,note_on,119,0,2,,,,,,,,6,,,64,0
58199,note_on,0,0,2,,,,,,,,6,,,79,0
58199,note_on,0,0,5,,,,,,,,1,,,60,0
58199,note_on,29,0,11,,,,,,,,14,,,60,0
58199,note_on,29,0,9,,,,,,,,12,,,79,0
58199,note_on,119,0,6,,,,,,,,4,,,48,0
58199,note_on,29,0,10,,,,,,,,13,,,64,0
58199,note_on,0,0,4,,,,,,,,7,,,72,0
58199,note_on,29,0,12,,,,,,,,15,,,60,0
58200,note_on,1,0,3,,,,,,,,0,,,60,72
58200,note_on,0,0,2,,,,,,,,6,,,65,74
58200,note_on,1,0,6,,,,,,,,4,,,48,70
58200,note_on,1,0,5,,,,,,,,1,,,72,72
58200,note_on,0,0,5,,,,,,,,1,,,60,58
58200,note_on,1,0,9,,,,,,,,12,,,81,70
58200,note_on,1,0,11,,,,,,,,14,,,60,66
58200,note_on,1,0,12,,,,,,,,15,,,60,76
58200,note_on,1,0,1,,,,,,,,3,,,81,87
58200,note_on,1,0,10,,,,,,,,13,,,65,74
58200,note_on,0,0,4,,,,,,,,7,,,60,68
58200,note_on,1,0,4,,,,,,,,7,,,72,78
58200,note_on,1,0,2,,,,,,,,6,,,81,78
58259,note_on,59,0,12,,,,,,,,15,,,60,0
58259,note_on,59,0,9,,,,,,,,12,,,81,0
58259,note_on,59,0,11,,,,,,,,14,,,60,0
58259,note_on,59,0,10,,,,,,,,13,,,65,0
58259,note_on,0,0,4,,,,,,,,7,,,72,0
58259,note_on,59,0,4,,,,,,,,7,,,60,0
58259,note_on,59,0,3,,,,,,,,0,,,60,0
58259,note_on,59,0,1,,,,,,,,3,,,81,0
58260,note_on,1,0,4,,,,,,,,7,,,60,70
58260,note_on,1,0,11,,,,,,,,14,,,60,68
58260,note_on,1,0,9,,,,,,,,12,,,81,74
58260,note_on,1,0,12,,,,,,,,15,,,60,78
58260,note_on,0,0,4,,,,,,,,7,,,72,76
58260,note_on,1,0,10,,,,,,,,13,,,65,78
58260,note_on,1,0,1,,,,,,,,3,,,81,78
58260,note_on,1,0,3,,,,,,,,0,,,60,68
58289,note_on,29,0,9,,,,,,,,12,,,81,0
58289,note_on,29,0,3,,,,,,,,0,,,60,0
58289,note_on,0,0,4,,,,,,,,7,,,60,0
58289,note_on,29,0,11,,,,,,,,14,,,60,0
58289,note_on,29,0,10,,,,,,,,13,,,65,0
58289,note_on,29,0,4,,,,,,,,7,,,72,0
58289,note_on,29,0,1,,,,,,,,3,,,81,0
58289,note_on,29,0,12,,,,,,,,15,,,60,0
58290,note_on,1,0,10,,,,,,,,13,,,65,70
58290,note_on,0,0,4,,,,,,,,7,,,72,74
58290,note_on,1,0,1,,,,,,,,3,,,81,74
58290,note_on,1,0,11,,,,,,,,14,,,60,58
58290,note_on,1,0,3,,,,,,,,0,,,60,64
58290,note_on,1,0,12,,,,,,,,15,,,60,68
58290,note_on,1,0,9,,,,,,,,12,,,81,66
58290,note_on,1,0,4,,,,,,,,7,,,60,66
58319,note_on,0,0,4,,,,,,,,7,,,60,0
58319,note_on,29,0,10,,,,,,,,13,,,65,0
58319,note_on,119,0,6,,,,,,,,4,,,48,0
58319,note_on,29,0,9,,,,,,,,12,,,81,0
58319,note_on,0,0,5,,,,,,,,1,,,72,0
58319,note_on,119,0,5,,,,,,,,1,,,60,0
58319,note_on,29,0,11,,,,,,,,14,,,60,0
58319,note_on,29,0,3,,,,,,,,0,,,60,0
58319,note_on,29,0,4,,,,,,,,7,,,72,0
58319,note_on,0,0,2,,,,,,,,6,,,81,0
58319,note_on,29,0,1,,,,,,,,3,,,81,0
58319,note_on,119,0,2,,,,,,,,6,,,65,0
58319,note_on,29,0,12,,,,,,,,15,,,60,0
58320,note_on,1,0,11,,,,,,,,14,,,60,66
58320,note_on,1,0,12,,,,,,,,15,,,60,68
58320,note_on,1,0,1,,,,,,,,3,,,76,82
58320,note_on,0,0,4,,,,,,,,7,,,60,66
58320,note_on,1,0,4,,,,,,,,7,,,72,78
58320,note_on,1,0,10,,,,,,,,13,,,67,76
58320,note_on,1,0,2,,,,,,,,6,,,67,66
58320,note_on,1,0,5,,,,,,,,1,,,72,68
58320,note_on,1,0,3,,,,,,,,0,,,60,70
58320,note_on,0,0,2,,,,,,,,6,,,76,70
58320,note_on,0,0,5,,,,,,,,1,,,60,62
58320,note_on,1,0,9,,,,,,,,12,,,76,74
58320,note_on,1,0,6,,,,,,,,4,,,48,68
58379,note_on,59,0,12,,,,,,,,15,,,60,0
58379,note_on,59,0,4,,,,,,,,7,,,60,0
58379,note_on,59,0,1,,,,,,,,3,,,76,0
58379,note_on,59,0,9,,,,,,,,12,,,76,0
58379,note_on,59,0,3,,,,,,,,0,,,60,0
58379,note_on,59,0,11,,,,,,,,14,,,60,0
58379,note_on,0,0,4,,,,,,,,7,,,72,0
58379,note_on,59,0,10,,,,,,,,13,,,67,0
58380,note_on,1,0,9,,,,,,,,12,,,76,85
58380,note_on,1,0,1,,,,,,,,3,,,76,82
58380,note_on,1,0,3,,,,,,,,0,,,60,68
58380,note_on,1,0,10,,,,,,,,13,,,67,80
58380,note_on,1,0,11,,,,,,,,14,,,60,76
58380,note_on,0,0,4,,,,,,,,7,,,72,74
58380,note_on,1,0,12,,,,,,,,15,,,60,72
58380,note_on,1,0,4,,,,,,,,7,,,60,70
58409,note_on,29,0,10,,,,,,,,13,,,67,0
58409,note_on,29,0,4,,,,,,,,7,,,72,0
58409,note_on,0,0,4,,,,,,,,7,,,60,0
58409,note_on,29,0,3,,,,,,,,0,,,60,0
58409,note_on,29,0,1,,,,,,,,3,,,76,0
58409,note_on,29,0,9,,,,,,,,12,,,76,0
58409,note_on,29,0,11,,,,,,,,14,,,60,0
58409,note_on,29,0,12,,,,,,,,15,,,60,0
58410,note_on,1,0,3,,,,,,,,0,,,60,58
58410,note_on,1,0,4,,,,,,,,7,,,72,70
58410,note_on,1,0,10,,,,,,,,13,,,67,70
58410,note_on,1,0,11,,,,,,,,14,,,60,66
58410,note_on,1,0,12,,,,,,,,15,,,60,64
58410,note_on,1,0,1,,,,,,,,3,,,76,68
58410,note_on,0,0,4,,,,,,,,7,,,60,68
58410,note_on,1,0,9,,,,,,,,12,,,76,74
58439,note_on,29,0,4,,,,,,,,7,,,60,0
58439,note_on,29,0,1,,,,,,,,3,,,76,0
58439,note_on,119,0,5,,,,,,,,1,,,60,0
58439,note_on,0,0,5,,,,,,,,1,,,72,0
58439,note_on,0,0,4,,,,,,,,7,,,72,0
58439,note_on,29,0,11,,,,,,,,14,,,60,0
58439,note_on,119,0,6,,,,,,,,4,,,48,0
58439,note_on,29,0,9,,,,,,,,12,,,76,0
58439,note_on,29,0,12,,,,,,,,15,,,60,0
58439,note_on,29,0,3,,,,,,,,0,,,60,0
58439,note_on,29,0,10,,,,,,,,13,,,67,0
58439,note_on,0,0,2,,,,,,,,6,,,67,0
58439,note_on,119,0,2,,,,,,,,6,,,76,0
58440,note_on,1,0,10,,,,,,,,13,,,69,72
58440,note_on,0,0,2,,,,,,,,6,,,69,68
58440,note_on,0,0,5,,,,,,,,1,,,60,59
58440,note_on,1,0,5,,,,,,,,1,,,72,66
58440,note_on,1,0,2,,,,,,,,6,,,77,82
58440,note_on,1,0,6,,,,,,,,4,,,48,68
58440,note_on,1,0,1,,,,,,,,3,,,77,76
58440,note_on,1,0,9,,,,,,,,12,,,77,72
58440,note_on,1,0,3,,,,,,,,0,,,60,68
58440,note_on,1,0,11,,,,,,,,14,,,60,72
58440,note_on,1,0,12,,,,,,,,15,,,60,66
58440,note_on,1,0,4,,,,,,,,7,,,72,80
58440,note_on,0,0,4,,,,,,,,7,,,60,68
58499,note_on,59,0,9,,,,,,,,12,,,77,0
58499,note_on,59,0,11,,,,,,,,14,,,60,0
58499,note_on,59,0,1,,,,,,,,3,,,77,0
58499,note_on,59,0,3,,,,,,,,0,,,60,0
58499,note_on,59,0,12,,,,,,,,15,,,60,0
58499,note_on,59,0,10,,,,,,,,13,,,69,0
58499,note_on,0,0,4,,,,,,,,7,,,72,0
58499,note_on,59,0,4,,,,,,,,7,,,60,0
58500,note_on,1,0,9,,,,,,,,12,,,77,70
58500,note_on,1,0,1,,,,,,,,3,,,77,76
58500,note_on,1,0,4,,,,,,,,7,,,60,70
58500,note_on,1,0,3,,,,,,,,0,,,60,66
58500,note_on,1,0,12,,,,,,,,15,,,60,82
58500,note_on,1,0,10,,,,,,,,13,,,69,82
58500,note_on,1,0,11,,,,,,,,14,,,60,72
58500,note_on,0,0,4,,,,,,,,7,,,72,64
58529,note_on,29,0,3,,,,,,,,0,,,60,0
58529,note_on,29,0,10,,,,,,,,13,,,69,0
58529,note_on,0,0,4,,,,,,,,7,,,60,0
58529,note_on,29,0,11,,,,,,,,14,,,60,0
58529,note_on,29,0,4,,,,,,,,7,,,72,0
58529,note_on,29,0,1,,,,,,,,3,,,77,0
58529,note_on,29,0,12,,,,,,,,15,,,60,0
58529,note_on,29,0,9,,,,,,,,12,,,77,0
58530,note_on,1,0,4,,,,,,,,7,,,60,68
58530,note_on,1,0,11,,,,,,,,14,,,60,72
58530,note_on,1,0,3,,,,,,,,0,,,60,60
58530,note_on,1,0,12,,,,,,,,15,,,60,72
58530,note_on,1,0,10,,,,,,,,13,,,69,64
58530,note_on,1,0,9,,,,,,,,12,,,77,68
58530,note_on,1,0,1,,,,,,,,3,,,77,76
58530,note_on,0,0,4,,,,,,,,7,,,72,66
58559,note_on,0,0,5,,,,,,,,1,,,72,0
58559,note_on,119,0,5,,,,,,,,1,,,60,0
58559,note_on,29,0,12,,,,,,,,15,,,60,0
58559,note_on,29,0,3,,,,,,,,0,,,60,0
58559,note_on,119,0,6,,,,,,,,4,,,48,0
58559,note_on,29,0,1,,,,,,,,3,,,77,0
58559,note_on,29,0,4,,,,,,,,7,,,72,0
58559,note_on,29,0,10,,,,,,,,13,,,69,0
58559,note_on,0,0,2,,,,,,,,6,,,77,0
58559,note_on,119,0,2,,,,,,,,6,,,69,0
58559,note_on,29,0,11,,,,,,,,14,,,60,0
58559,note_on,29,0,9,,,,,,,,12,,,77,0
58559,note_on,0,0,4,,,,,,,,7,,,60,0
58560,note_on,0,0,4,,,,,,,,7,,,72,76
58560,note_on,1,0,4,,,,,,,,7,,,60,74
58560,note_on,1,0,6,,,,,,,,4,,,48,68
58560,note_on,1,0,10,,,,,,,,13,,,64,80
58560,note_on,1,0,1,,,,,,,,3,,,79,74
58560,note_on,0,0,5,,,,,,,,1,,,72,68
58560,note_on,1,0,3,,,,,,,,0,,,60,78
58560,note_on,1,0,5,,,,,,,,1,,,60,66
58560,note_on,1,0,11,,,,,,,,14,,,60,82
58560,note_on,1,0,9,,,,,,,,12,,,79,66
58560,note_on,1,0,12,,,,,,,,15,,,60,74
58560,note_on,1,0,2,,,,,,,,6,,,79,70
58560,note_on,0,0,2,,,,,,,,6,,,76,72
58589,note_on,29,0,9,,,,,,,,12,,,79,0
58589,note_on,29,0,2,,,,,,,,6,,,76,0
58589,note_on,0,0,2,,,,,,,,6,,,79,0
58589,note_on,29,0,10,,,,,,,,13,,,64,0
58590,note_on,1,0,9,,,,,,,,12,,,76,72
58590,note_on,1,0,2,,,,,,,,6,,,72,64
58590,note_on,0,0,2,,,,,,,,6,,,76,76
58590,note_on,1,0,10,,,,,,,,13,,,67,85
58619,note_on,59,0,11,,,,,,,,14,,,60,0
58619,note_on,0,0,2,,,,,,,,6,,,72,0
58619,note_on,29,0,2,,,,,,,,6,,,76,0
58619,note_on,59,0,12,,,,,,,,15,,,60,0
58619,note_on,59,0,3,,,,,,,,0,,,60,0
58619,note_on,29,0,9,,,,,,,,12,,,76,0
58619,note_on,29,0,10,,,,,,,,13,,,67,0
58619,note_on,59,0,1,,,,,,,,3,,,79,0
58620,note_on,1,0,1,,,,,,,,3,,,81,85
58620,note_on,1,0,9,,,,,,,,12,,,81,68
58620,note_on,1,0,2,,,,,,,,6,,,79,72
58620,note_on,1,0,10,,,,,,,,13,,,65,80
58620,note_on,1,0,3,,,,,,,,0,,,53,51
58620,note_on,0,0,2,,,,,,,,6,,,76,66
58620,note_on,1,0,12,,,,,,,,15,,,53,80
58620,note_on,1,0,11,,,,,,,,14,,,65,74
58649,note_on,0,0,2,,,,,,,,6,,,79,0
58649,note_on,29,0,2,,,,,,,,6,,,76,0
58649,note_on,29,0,1,,,,,,,,3,,,81,0
58649,note_on,29,0,10,,,,,,,,13,,,65,0
58649,note_on,29,0,9,,,,,,,,12,,,81,0
58650,note_on,1,0,9,,,,,,,,12,,,77,74
58650,note_on,0,0,2,,,,,,,,6,,,74,63
58650,note_on,1,0,10,,,,,,,,13,,,62,82
58650,note_on,1,0,1,,,,,,,,3,,,86,87
58650,note_on,1,0,2,,,,,,,,6,,,77,78
58679,note_on,119,0,6,,,,,,,,4,,,48,0
58679,note_on,0,0,4,,,,,,,,7,,,60,0
58679,note_on,59,0,11,,,,,,,,14,,,65,0
58679,note_on,119,0,4,,,,,,,,7,,,72,0
58679,note_on,29,0,10,,,,,,,,13,,,62,0
58679,note_on,59,0,12,,,,,,,,15,,,53,0
58679,note_on,0,0,5,,,,,,,,1,,,60,0
58679,note_on,29,0,9,,,,,,,,12,,,77,0
58679,note_on,0,0,2,,,,,,,,6,,,77,0
58679,note_on,29,0,2,,,,,,,,6,,,74,0
58679,note_on,29,0,1,,,,,,,,3,,,86,0
58679,note_on,119,0,5,,,,,,,,1,,,72,0
58679,note_on,59,0,3,,,,,,,,0,,,53,0
58680,note_on,1,0,9,,,,,,,,12,,,76,82
58680,note_on,1,0,4,,,,,,,,7,,,76,82
58680,note_on,0,0,2,,,,,,,,6,,,72,70
58680,note_on,1,0,12,,,,,,,,15,,,55,80
58680,note_on,1,0,11,,,,,,,,14,,,67,80
58680,note_on,1,0,2,,,,,,,,6,,,76,72
58680,note_on,0,0,4,,,,,,,,7,,,72,78
58680,note_on,1,0,5,,,,,,,,1,,,76,76
58680,note_on,1,0,1,,,,,,,,3,,,84,87
58680,note_on,1,0,3,,,,,,,,0,,,55,76
58680,note_on,1,0,10,,,,,,,,13,,,60,74
58680,note_on,0,0,5,,,,,,,,1,,,72,74
58680,note_on,1,0,6,,,,,,,,4,,,43,66
58739,note_on,59,0,6,,,,,,,,4,,,43,0
58739,note_on,59,0,10,,,,,,,,13,,,60,0
58739,note_on,59,0,2,,,,,,,,6,,,72,0
58739,note_on,0,0,2,,,,,,,,6,,,76,0
58739,note_on,59,0,4,,,,,,,,7,,,72,0
58739,note_on,59,0,5,,,,,,,,1,,,72,0
58739,note_on,0,0,5,,,,,,,,1,,,76,0
58739,note_on,59,0,11,,,,,,,,14,,,67,0
58739,note_on,59,0,12,,,,,,,,15,,,55,0
58739,note_on,59,0,3,,,,,,,,0,,,55,0
58739,note_on,0,0,4,,,,,,,,7,,,76,0
58739,note_on,59,0,9,,,,,,,,12,,,76,0
58739,note_on,59,0,1,,,,,,,,3,,,84,0
58740,note_on,1,0,11,,,,,,,,14,,,55,78
58740,note_on,1,0,10,,,,,,,,13,,,59,85
58740,note_on,1,0,6,,,,,,,,4,,,43,70
58740,note_on,1,0,9,,,,,,,,12,,,74,76
58740,note_on,1,0,1,,,,,,,,3,,,83,80
58740,note_on,1,0,2,,,,,,,,6,,,71,68
58740,note_on,0,0,5,,,,,,,,1,,,74,78
58740,note_on,1,0,3,,,,,,,,0,,,43,74
58740,note_on,0,0,2,,,,,,,,6,,,74,72
58740,note_on,0,0,4,,,,,,,,7,,,67,78
58740,note_on,1,0,12,,,,,,,,15,,,43,85
58740,note_on,1,0,4,,,,,,,,7,,,74,87
58740,note_on,1,0,5,,,,,,,,1,,,67,68
58799,note_on,59,0,6,,,,,,,,4,,,43,0
58799,note_on,0,0,4,,,,,,,,7,,,74,0
58799,note_on,59,0,10,,,,,,,,13,,,59,0
58799,note_on,59,0,1,,,,,,,,3,,,83,0
58799,note_on,59,0,3,,,,,,,,0,,,43,0
58799,note_on,0,0,5,,,,,,,,1,,,67,0
58799,note_on,0,0,2,,,,,,,,6,,,71,0
58799,note_on,59,0,12,,,,,,,,15,,,43,0
58799,note_on,59,0,2,,,,,,,,6,,,74,0
58799,note_on,59,0,11,,,,,,,,14,,,55,0
58799,note_on,59,0,9,,,,,,,,12,,,74,0
58799,note_on,59,0,5,,,,,,,,1,,,74,0
58799,note_on,59,0,4,,,,,,,,7,,,67,0
58800,note_on,1,0,4,,,,,,,,7,,,64,72
58800,note_on,0,0,4,,,,,,,,7,,,72,80
58800,note_on,1,0,11,,,,,,,,14,,,60,78
58800,note_on,1,0,6,,,,,,,,4,,,48,70
58800,note_on,1801,0,7,,,,,,,,5,,,60,80
58800,note_on,0,0,5,,,,,,,,1,,,72,66
58800,note_on,1,0,5,,,,,,,,1,,,64,64
58800,note_on,1,0,3,,,,,,,,0,,,48,70
58800,note_on,1,0,12,,,,,,,,15,,,48,80
58800,note_on,1,0,10,,,,,,,,13,,,60,80
58800,note_on,1,0,1,,,,,,,,3,,,84,78
58800,note_on,1,0,2,,,,,,,,6,,,72,72
58800,note_on,1742,0,8,,,,,,,,5,,,36,82
58800,note_on,0,0,8,,,,,,,,5,,,48,82
58800,note_on,1,0,9,,,,,,,,12,,,72,80
58820,note_on,20,0,7,,,,,,,,5,,,55,80
58840,note_on,20,0,7,,,,,,,,5,,,64,85
58860,note_on,20,0,7,,,,,,,,5,,,60,0
58860,note_on,0,0,7,,,,,,,,5,,,62,82
58880,note_on,0,0,7,,,,,,,,5,,,55,82
58880,note_on,20,0,7,,,,,,,,5,,,55,0
58900,note_on,0,0,7,,,,,,,,5,,,65,82
58900,note_on,20,0,7,,,,,,,,5,,,64,0
58919,note_on,119,0,6,,,,,,,,4,,,48,0
58919,note_on,0,0,5,,,,,,,,1,,,64,0
58919,note_on,119,0,4,,,,,,,,7,,,72,0
58919,note_on,0,0,4,,,,,,,,7,,,64,0
58919,note_on,119,0,9,,,,,,,,12,,,72,0
58919,note_on,119,0,5,,,,,,,,1,,,72,0
58919,note_on,119,0,1,,,,,,,,3,,,84,0
58919,note_on,119,0,11,,,,,,,,14,,,60,0
58919,note_on,119,0,12,,,,,,,,15,,,48,0
58919,note_on,119,0,3,,,,,,,,0,,,48,0
58919,note_on,119,0,2,,,,,,,,6,,,72,0
58919,note_on,119,0,10,,,,,,,,13,,,60,0
58919,note_on,119,0,8,,,,,,,,5,,,48,0
58919,note_on,0,0,8,,,,,,,,5,,,36,0
58920,note_on,20,0,7,,,,,,,,5,,,62,0
58920,note_on,0,0,7,,,,,,,,5,,,64,87
58940,note_on,0,0,7,,,,,,,,5,,,55,78
58940,note_on,20,0,7,,,,,,,,5,,,55,0
58960,note_on,0,0,7,,,,,,,,5,,,67,82
58960,note_on,20,0,7,,,,,,,,5,,,65,0
58980,note_on,0,0,7,,,,,,,,5,,,65,87
58980,note_on,61,0,11,,,,,,,,14,,,62,60
58980,note_on,20,0,7,,,,,,,,5,,,64,0
58980,note_on,0,0,8,,,,,,,,5,,,43,70
58980,note_on,61,0,8,,,,,,,,5,,,31,82
58980,note_on,61,0,10,,,,,,,,13,,,65,60
58980,note_on,61,0,9,,,,,,,,12,,,71,66
58980,note_on,61,0,12,,,,,,,,15,,,55,68
59000,note_on,0,0,7,,,,,,,,5,,,62,85
59000,note_on,20,0,7,,,,,,,,5,,,55,0
59020,note_on,0,0,7,,,,,,,,5,,,59,80
59020,note_on,20,0,7,,,,,,,,5,,,67,0
59039,note_on,59,0,8,,,,,,,,5,,,43,0
59039,note_on,59,0,10,,,,,,,,13,,,65,0
59039,note_on,0,0,8,,,,,,,,5,,,31,0
59039,note_on,59,0,9,,,,,,,,12,,,71,0
59039,note_on,59,0,11,,,,,,,,14,,,62,0
59039,note_on,59,0,12,,,,,,,,15,,,55,0
59040,note_on,0,0,8,,,,,,,,5,,,48,72
59040,note_on,20,0,7,,,,,,,,5,,,65,0
59040,note_on,0,0,7,,,,,,,,5,,,60,82
59040,note_on,1,0,8,,,,,,,,5,,,36,80
59040,note_on,1,0,10,,,,,,,,13,,,64,63
59040,note_on,1,0,12,,,,,,,,15,,,48,62
59040,note_on,1,0,11,,,,,,,,14,,,60,66
59040,note_on,1,0,9,,,,,,,,12,,,72,74
59060,note_on,20,0,7,,,,,,,,5,,,62,0
59060,note_on,0,0,7,,,,,,,,5,,,55,80
59080,note_on,20,0,7,,,,,,,,5,,,59,0
59080,note_on,0,0,7,,,,,,,,5,,,64,85
59100,note_on,0,0,7,,,,,,,,5,,,62,82
59100,note_on,20,0,7,,,,,,,,5,,,60,0
59120,note_on,0,0,7,,,,,,,,5,,,55,82
59120,note_on,20,0,7,,,,,,,,5,,,55,0
59140,note_on,0,0,7,,,,,,,,5,,,65,74
59140,note_on,20,0,7,,,,,,,,5,,,64,0
59159,note_on,119,0,12,,,,,,,,15,,,48,0
59159,note_on,0,0,8,,,,,,,,5,,,36,0
59159,note_on,119,0,8,,,,,,,,5,,,48,0
59159,note_on,119,0,10,,,,,,,,13,,,64,0
59159,note_on,119,0,9,,,,,,,,12,,,72,0
59159,note_on,119,0,11,,,,,,,,14,,,60,0
59160,note_on,20,0,7,,,,,,,,5,,,62,0
59160,note_on,0,0,7,,,,,,,,5,,,64,82
59180,note_on,20,0,7,,,,,,,,5,,,55,0
59180,note_on,0,0,7,,,,,,,,5,,,55,82
59200,note_on,0,0,7,,,,,,,,5,,,67,78
59200,note_on,20,0,7,,,,,,,,5,,,65,0
59220,note_on,61,0,8,,,,,,,,5,,,43,76
59220,note_on,0,0,8,,,,,,,,5,,,31,82
59220,note_on,61,0,12,,,,,,,,15,,,55,53
59220,note_on,0,0,7,,,,,,,,5,,,65,76
59220,note_on,61,0,9,,,,,,,,12,,,71,66
59220,note_on,61,0,10,,,,,,,,13,,,65,59
59220,note_on,20,0,7,,,,,,,,5,,,64,0
59220,note_on,61,0,11,,,,,,,,14,,,62,54
59240,note_on,20,0,7,,,,,,,,5,,,55,0
59240,note_on,0,0,7,,,,,,,,5,,,62,76
59260,note_on,20,0,7,,,,,,,,5,,,67,0
59260,note_on,0,0,7,,,,,,,,5,,,59,66
59279,note_on,0,0,8,,,,,,,,5,,,43,0
59279,note_on,59,0,8,,,,,,,,5,,,31,0
59279,note_on,59,0,9,,,,,,,,12,,,71,0
59279,note_on,59,0,10,,,,,,,,13,,,65,0
59279,note_on,59,0,11,,,,,,,,14,,,62,0
59279,note_on,59,0,12,,,,,,,,15,,,55,0
59280,note_on,1,0,11,,,,,,,,14,,,60,68
59280,note_on,361,0,3,,,,,,,,0,,,48,76
59280,note_on,361,0,2,,,,,,,,6,,,72,68
59280,note_on,1,0,8,,,,,,,,5,,,36,80
59280,note_on,20,0,7,,,,,,,,5,,,65,0
59280,note_on,0,0,7,,,,,,,,5,,,64,85
59280,note_on,1,0,9,,,,,,,,12,,,72,66
59280,note_on,0,0,8,,,,,,,,5,,,48,72
59280,note_on,1,0,12,,,,,,,,15,,,48,68
59280,note_on,1,0,10,,,,,,,,13,,,64,64
59280,note_on,361,0,1,,,,,,,,3,,,72,74
59300,note_on,20,0,7,,,,,,,,5,,,62,0
59300,note_on,0,0,7,,,,,,,,5,,,60,82
59310,note_on,30,0,2,,,,,,,,6,,,72,0
59310,note_on,30,0,3,,,,,,,,0,,,48,0
59310,note_on,30,0,1,,,,,,,,3,,,72,0
59320,note_on,0,0,7,,,,,,,,5,,,72,80
59320,note_on,20,0,7,,,,,,,,5,,,59,0
59340,note_on,30,0,3,,,,,,,,0,,,47,60
59340,note_on,0,0,3,,,,,,,,0,,,50,63
59340,note_on,20,0,7,,,,,,,,5,,,64,0
59340,note_on,0,0,7,,,,,,,,5,,,65,78
59340,note_on,30,0,2,,,,,,,,6,,,71,72
59340,note_on,30,0,1,,,,,,,,3,,,74,66
59360,note_on,20,0,7,,,,,,,,5,,,60,0
59360,note_on,0,0,7,,,,,,,,5,,,62,85
59370,note_on,30,0,3,,,,,,,,0,,,50,0
59370,note_on,0,0,3,,,,,,,,0,,,47,0
59370,note_on,30,0,1,,,,,,,,3,,,74,0
59370,note_on,30,0,2,,,,,,,,6,,,71,0
59380,note_on,0,0,7,,,,,,,,5,,,74,78
59380,note_on,20,0,7,,,,,,,,5,,,72,0
59399,note_on,119,0,9,,,,,,,,12,,,72,0
59399,note_on,0,0,8,,,,,,,,5,,,36,0
59399,note_on,119,0,8,,,,,,,,5,,,48,0
59399,note_on,119,0,12,,,,,,,,15,,,48,0
59399,note_on,119,0,10,,,,,,,,13,,,64,0
59399,note_on,119,0,11,,,,,,,,14,,,60,0
59400,note_on,30,0,3,,,,,,,,0,,,52,72
59400,note_on,0,0,3,,,,,,,,0,,,48,63
59400,note_on,20,0,7,,,,,,,,5,,,65,0
59400,note_on,0,0,7,,,,,,,,5,,,67,82
59400,note_on,30,0,1,,,,,,,,3,,,76,68
59400,note_on,30,0,2,,,,,,,,6,,,72,68
59420,note_on,0,0,7,,,,,,,,5,,,64,82
59420,note_on,20,0,7,,,,,,,,5,,,62,0
59430,note_on,0,0,3,,,,,,,,0,,,52,0
59430,note_on,30,0,3,,,,,,,,0,,,48,0
59430,note_on,30,0,1,,,,,,,,3,,,76,0
59430,note_on,30,0,2,,,,,,,,6,,,72,0
59440,note_on,20,0,7,,,,,,,,5,,,74,0
59440,note_on,0,0,7,,,,,,,,5,,,76,80
59460,note_on,30,0,3,,,,,,,,0,,,50,59
59460,note_on,0,0,3,,,,,,,,0,,,53,70
59460,note_on,30,0,1,,,,,,,,3,,,77,70
59460,note_on,20,0,7,,,,,,,,5,,,67,0
59460,note_on,0,0,7,,,,,,,,5,,,69,85
59460,note_on,30,0,2,,,,,,,,6,,,74,70
59480,note_on,20,0,7,,,,,,,,5,,,64,0
59480,note_on,0,0,7,,,,,,,,5,,,65,80
59490,note_on,0,0,3,,,,,,,,0,,,50,0
59490,note_on,30,0,1,,,,,,,,3,,,77,0
59490,note_on,30,0,2,,,,,,,,6,,,74,0
59490,note_on,30,0,3,,,,,,,,0,,,53,0
59500,note_on,20,0,7,,,,,,,,5,,,76,0
59500,note_on,0,0,7,,,,,,,,5,,,77,80
59520,note_on,20,0,7,,,,,,,,5,,,69,0
59520,note_on,0,0,7,,,,,,,,5,,,74,85
59520,note_on,30,0,2,,,,,,,,6,,,76,76
59520,note_on,30,0,1,,,,,,,,3,,,79,72
59520,note_on,0,0,3,,,,,,,,0,,,52,68
59520,note_on,30,0,3,,,,,,,,0,,,55,61
59540,note_on,20,0,7,,,,,,,,5,,,65,0
59540,note_on,0,0,7,,,,,,,,5,,,71,85
59550,note_on,30,0,1,,,,,,,,3,,,79,0
59550,note_on,30,0,2,,,,,,,,6,,,76,0
59550,note_on,0,0,3,,,,,,,,0,,,55,0
59550,note_on,30,0,3,,,,,,,,0,,,52,0
59560,note_on,0,0,7,,,,,,,,5,,,79,68
59560,note_on,20,0,7,,,,,,,,5,,,77,0
59580,note_on,20,0,7,,,,,,,,5,,,74,0
59580,note_on,30,0,2,,,,,,,,6,,,77,72
59580,note_on,30,0,1,,,,,,,,3,,,81,76
59580,note_on,0,0,3,,,,,,,,0,,,53,70
59580,note_on,0,0,7,,,,,,,,5,,,72,82
59580,note_on,30,0,3,,,,,,,,0,,,57,57
59600,note_on,20,0,7,,,,,,,,5,,,71,0
59600,note_on,0,0,7,,,,,,,,5,,,69,80
59610,note_on,30,0,2,,,,,,,,6,,,77,0
59610,note_on,30,0,1,,,,,,,,3,,,81,0
59610,note_on,0,0,3,,,,,,,,0,,,57,0
59610,note_on,30,0,3,,,,,,,,0,,,53,0
59620,note_on,20,0,7,,,,,,,,5,,,79,0
59620,note_on,0,0,7,,,,,,,,5,,,81,85
59640,note_on,30,0,1,,,,,,,,3,,,83,66
59640,note_on,30,0,3,,,,,,,,0,,,50,68
59640,note_on,0,0,3,,,,,,,,0,,,59,70
59640,note_on,20,0,7,,,,,,,,5,,,72,0
59640,note_on,0,0,7,,,,,,,,5,,,74,87
59640,note_on,30,0,2,,,,,,,,6,,,74,72
59660,note_on,0,0,7,,,,,,,,5,,,71,85
59660,note_on,20,0,7,,,,,,,,5,,,69,0
59670,note_on,30,0,1,,,,,,,,3,,,83,0
59670,note_on,30,0,2,,,,,,,,6,,,74,0
59670,note_on,30,0,3,,,,,,,,0,,,59,0
59670,note_on,0,0,3,,,,,,,,0,,,50,0
59680,note_on,0,0,7,,,,,,,,5,,,83,82
59680,note_on,20,0,7,,,,,,,,5,,,81,0
59700,note_on,30,0,3,,,,,,,,0,,,60,61
59700,note_on,30,0,2,,,,,,,,6,,,76,76
59700,note_on,30,0,1,,,,,,,,3,,,84,66
59700,note_on,0,0,3,,,,,,,,0,,,50,66
59700,note_on,20,0,7,,,,,,,,5,,,74,0
59700,note_on,0,0,7,,,,,,,,5,,,76,82
59720,note_on,0,0,7,,,,,,,,5,,,72,78
59720,note_on,20,0,7,,,,,,,,5,,,71,0
59730,note_on,0,0,3,,,,,,,,0,,,60,0
59730,note_on,30,0,3,,,,,,,,0,,,50,0
59730,note_on,30,0,2,,,,,,,,6,,,76,0
59730,note_on,30,0,1,,,,,,,,3,,,84,0
59740,note_on,20,0,7,,,,,,,,5,,,83,0
59740,note_on,0,0,7,,,,,,,,5,,,84,82
59760,note_on,0,0,8,,,,,,,,5,,,55,80
59760,note_on,361,0,11,,,,,,,,14,,,67,64
59760,note_on,30,0,3,,,,,,,,0,,,59,60
59760,note_on,0,0,3,,,,,,,,0,,,55,55
59760,note_on,361,0,9,,,,,,,,12,,,79,66
59760,note_on,361,0,8,,,,,,,,5,,,43,85
59760,note_on,0,0,7,,,,,,,,5,,,67,89
59760,note_on,361,0,12,,,,,,,,15,,,55,70
59760,note_on,361,0,10,,,,,,,,13,,,71,63
59760,note_on,20,0,7,,,,,,,,5,,,76,0
59760,note_on,30,0,2,,,,,,,,6,,,71,68
59760,note_on,30,0,1,,,,,,,,3,,,79,72
59780,note_on,20,0,7,,,,,,,,5,,,72,0
59780,note_on,0,0,7,,,,,,,,5,,,62,85
59800,note_on,20,0,7,,,,,,,,5,,,84,0
59800,note_on,0,0,7,,,,,,,,5,,,71,80
59820,note_on,20,0,7,,,,,,,,5,,,67,0
59820,note_on,0,0,7,,,,,,,,5,,,69,85
59840,note_on,0,0,7,,,,,,,,5,,,62,85
59840,note_on,20,0,7,,,,,,,,5,,,62,0
59860,note_on,0,0,7,,,,,,,,5,,,72,82
59860,note_on,20,0,7,,,,,,,,5,,,71,0
59879,note_on,0,0,3,,,,,,,,0,,,59,0
59879,note_on,119,0,10,,,,,,,,13,,,71,0
59879,note_on,119,0,9,,,,,,,,12,,,79,0
59879,note_on,119,0,2,,,,,,,,6,,,71,0
59879,note_on,119,0,3,,,,,,,,0,,,55,0
59879,note_on,0,0,8,,,,,,,,5,,,43,0
59879,note_on,119,0,8,,,,,,,,5,,,55,0
59879,note_on,119,0,11,,,,,,,,14,,,67,0
59879,note_on,119,0,1,,,,,,,,3,,,79,0
59879,note_on,119,0,12,,,,,,,,15,,,55,0
59880,note_on,0,0,7,,,,,,,,5,,,71,82
59880,note_on,20,0,7,,,,,,,,5,,,69,0
59900,note_on,20,0,7,,,,,,,,5,,,62,0
59900,note_on,0,0,7,,,,,,,,5,,,62,82
59920,note_on,0,0,7,,,,,,,,5,,,74,85
59920,note_on,20,0,7,,,,,,,,5,,,72,0
59940,note_on,61,0,11,,,,,,,,14,,,69,72
59940,note_on,61,0,9,,,,,,,,12,,,78,59
59940,note_on,0,0,8,,,,,,,,5,,,38,78
59940,note_on,61,0,8,,,,,,,,5,,,50,74
59940,note_on,20,0,7,,,,,,,,5,,,71,0
59940,note_on,0,0,7,,,,,,,,5,,,72,82
59940,note_on,61,0,10,,,,,,,,13,,,72,57
59940,note_on,61,0,12,,,,,,,,15,,,50,60
59960,note_on,20,0,7,,,,,,,,5,,,62,0
59960,note_on,0,0,7,,,,,,,,5,,,69,85
59980,note_on,0,0,7,,,,,,,,5,,,66,76
59980,note_on,20,0,7,,,,,,,,5,,,74,0
59999,note_on,0,0,8,,,,,,,,5,,,50,0
59999,note_on,59,0,8,,,,,,,,5,,,38,0
59999,note_on,59,0,9,,,,,,,,12,,,78,0
59999,note_on,59,0,11,,,,,,,,14,,,69,0
59999,note_on,59,0,10,,,,,,,,13,,,72,0
59999,note_on,59,0,12,,,,,,,,15,,,50,0
60000,note_on,1,0,12,,,,,,,,15,,,55,62
60000,note_on,0,0,7,,,,,,,,5,,,67,82
60000,note_on,1,0,9,,,,,,,,12,,,79,66
60000,note_on,1,0,10,,,,,,,,13,,,71,63
60000,note_on,20,0,7,,,,,,,,5,,,72,0
60000,note_on,0,0,8,,,,,,,,5,,,55,82
60000,note_on,1,0,8,,,,,,,,5,,,43,85
60000,note_on,1,0,11,,,,,,,,14,,,67,68
60020,note_on,0,0,7,,,,,,,,5,,,62,82
60020,note_on,20,0,7,,,,,,,,5,,,69,0
60040,note_on,20,0,7,,,,,,,,5,,,66,0
60040,note_on,0,0,7,,,,,,,,5,,,71,78
60060,note_on,20,0,7,,,,,,,,5,,,67,0
60060,note_on,0,0,7,,,,,,,,5,,,69,82
60080,note_on,0,0,7,,,,,,,,5,,,62,78
60080,note_on,20,0,7,,,,,,,,5,,,62,0
60100,note_on,20,0,7,,,,,,,,5,,,71,0
60100,note_on,0,0,7,,,,,,,,5,,,72,72
60119,note_on,119,0,12,,,,,,,,15,,,55,0
60119,note_on,0,0,8,,,,,,,,5,,,43,0
60119,note_on,119,0,8,,,,,,,,5,,,55,0
60119,note_on,119,0,11,,,,,,,,14,,,67,0
60119,note_on,119,0,10,,,,,,,,13,,,71,0
60119,note_on,119,0,9,,,,,,,,12,,,79,0
60120,note_on,20,0,7,,,,,,,,5,,,69,0
60120,note_on,0,0,7,,,,,,,,5,,,71,82
60140,note_on,20,0,7,,,,,,,,5,,,62,0
60140,note_on,0,0,7,,,,,,,,5,,,62,74
60160,note_on,0,0,7,,,,,,,,5,,,74,85
60160,note_on,20,0,7,,,,,,,,5,,,72,0
60180,note_on,61,0,8,,,,,,,,5,,,50,76
60180,note_on,0,0,8,,,,,,,,5,,,38,82
60180,note_on,61,0,12,,,,,,,,15,,,50,59
60180,note_on,61,0,10,,,,,,,,13,,,72,64
60180,note_on,61,0,9,,,,,,,,12,,,78,58
60180,note_on,20,0,7,,,,,,,,5,,,71,0
60180,note_on,0,0,7,,,,,,,,5,,,72,78
60180,note_on,61,0,11,,,,,,,,14,,,69,60
60200,note_on,20,0,7,,,,,,,,5,,,62,0
60200,note_on,0,0,7,,,,,,,,5,,,69,80
60220,note_on,0,0,7,,,,,,,,5,,,66,68
60220,note_on,20,0,7,,,,,,,,5,,,74,0
60239,note_on,0,0,8,,,,,,,,5,,,50,0
60239,note_on,59,0,12,,,,,,,,15,,,50,0
60239,note_on,59,0,10,,,,,,,,13,,,72,0
60239,note_on,59,0,9,,,,,,,,12,,,78,0
60239,note_on,59,0,11,,,,,,,,14,,,69,0
60239,note_on,59,0,8,,,,,,,,5,,,38,0
60240,note_on,0,0,7,,,,,,,,5,,,71,82
60240,note_on,1,0,8,,,,,,,,5,,,55,76
60240,note_on,1,0,12,,,,,,,,15,,,55,64
60240,note_on,0,0,3,,,,,,,,0,,,55,74
60240,note_on,1,0,10,,,,,,,,13,,,71,64
60240,note_on,361,0,1,,,,,,,,3,,,79,64
60240,note_on,20,0,7,,,,,,,,5,,,72,0
60240,note_on,1,0,9,,,,,,,,12,,,79,63
60240,note_on,361,0,3,,,,,,,,0,,,47,63
60240,note_on,0,0,8,,,,,,,,5,,,43,82
60240,note_on,0,0,2,,,,,,,,6,,,71,66
60240,note_on,361,0,2,,,,,,,,6,,,67,60
60240,note_on,1,0,11,,,,,,,,14,,,67,64
60260,note_on,0,0,7,,,,,,,,5,,,67,80
60260,note_on,20,0,7,,,,,,,,5,,,69,0
60270,note_on,0,0,3,,,,,,,,0,,,47,0
60270,note_on,30,0,1,,,,,,,,3,,,79,0
60270,note_on,0,0,2,,,,,,,,6,,,67,0
60270,note_on,30,0,2,,,,,,,,6,,,71,0
60270,note_on,30,0,3,,,,,,,,0,,,55,0
60280,note_on,20,0,7,,,,,,,,5,,,66,0
60280,note_on,0,0,7,,,,,,,,5,,,79,82
60300,note_on,30,0,3,,,,,,,,0,,,57,68
60300,note_on,20,0,7,,,,,,,,5,,,71,0
60300,note_on,30,0,2,,,,,,,,6,,,69,68
60300,note_on,0,0,7,,,,,,,,5,,,72,78
60300,note_on,30,0,1,,,,,,,,3,,,81,78
60300,note_on,0,0,3,,,,,,,,0,,,48,68
60300,note_on,0,0,2,,,,,,,,6,,,72,68
60320,note_on,0,0,7,,,,,,,,5,,,69,80
60320,note_on,20,0,7,,,,,,,,5,,,67,0
60330,note_on,30,0,3,,,,,,,,0,,,48,0
60330,note_on,0,0,3,,,,,,,,0,,,57,0
60330,note_on,30,0,1,,,,,,,,3,,,81,0
60330,note_on,0,0,2,,,,,,,,6,,,69,0
60330,note_on,30,0,2,,,,,,,,6,,,72,0
60340,note_on,0,0,7,,,,,,,,5,,,81,85
60340,note_on,20,0,7,,,,,,,,5,,,79,0
60359,note_on,119,0,8,,,,,,,,5,,,43,0
60359,note_on,0,0,8,,,,,,,,5,,,55,0
60359,note_on,119,0,11,,,,,,,,14,,,67,0
60359,note_on,119,0,12,,,,,,,,15,,,55,0
60359,note_on,119,0,10,,,,,,,,13,,,71,0
60359,note_on,119,0,9,,,,,,,,12,,,79,0
60360,note_on,30,0,3,,,,,,,,0,,,50,62
60360,note_on,0,0,3,,,,,,,,0,,,59,66
60360,note_on,0,0,7,,,,,,,,5,,,74,82
60360,note_on,20,0,7,,,,,,,,5,,,72,0
60360,note_on,30,0,1,,,,,,,,3,,,83,74
60360,note_on,30,0,2,,,,,,,,6,,,74,78
60360,note_on,0,0,2,,,,,,,,6,,,71,70
60380,note_on,20,0,7,,,,,,,,5,,,69,0
60380,note_on,0,0,7,,,,,,,,5,,,71,80
60390,note_on,30,0,2,,,,,,,,6,,,71,0
60390,note_on,30,0,3,,,,,,,,0,,,59,0
60390,note_on,30,0,1,,,,,,,,3,,,83,0
60390,note_on,0,0,2,,,,,,,,6,,,74,0
60390,note_on,0,0,3,,,,,,,,0,,,50,0
60400,note_on,0,0,7,,,,,,,,5,,,83,82
60400,note_on,20,0,7,,,,,,,,5,,,81,0
60420,note_on,20,0,7,,,,,,,,5,,,74,0
60420,note_on,30,0,3,,,,,,,,0,,,60,66
60420,note_on,30,0,2,,,,,,,,6,,,76,63
60420,note_on,0,0,7,,,,,,,,5,,,76,85
60420,note_on,30,0,1,,,,,,,,3,,,84,70
60420,note_on,0,0,3,,,,,,,,0,,,52,68
60420,note_on,0,0,2,,,,,,,,6,,,72,63
60440,note_on,0,0,7,,,,,,,,5,,,72,80
60440,note_on,20,0,7,,,,,,,,5,,,71,0
60450,note_on,30,0,3,,,,,,,,0,,,52,0
60450,note_on,30,0,2,,,,,,,,6,,,72,0
60450,note_on,30,0,1,,,,,,,,3,,,84,0
60450,note_on,0,0,2,,,,,,,,6,,,76,0
60450,note_on,0,0,3,,,,,,,,0,,,60,0
60460,note_on,20,0,7,,,,,,,,5,,,83,0
60460,note_on,0,0,7,,,,,,,,5,,,84,87
60480,note_on,0,0,7,,,,,,,,5,,,77,82
60480,note_on,20,0,7,,,,,,,,5,,,76,0
60480,note_on,0,0,3,,,,,,,,0,,,53,66
60480,note_on,30,0,3,,,,,,,,0,,,62,74
60480,note_on,30,0,1,,,,,,,,3,,,86,82
60480,note_on,30,0,2,,,,,,,,6,,,74,72
60480,note_on,0,0,2,,,,,,,,6,,,77,70
60500,note_on,0,0,7,,,,,,,,5,,,74,82
60500,note_on,20,0,7,,,,,,,,5,,,72,0
60510,note_on,30,0,3,,,,,,,,0,,,53,0
60510,note_on,0,0,3,,,,,,,,0,,,62,0
60510,note_on,30,0,1,,,,,,,,3,,,86,0
60510,note_on,0,0,2,,,,,,,,6,,,74,0
60510,note_on,30,0,2,,,,,,,,6,,,77,0
60520,note_on,0,0,7,,,,,,,,5,,,86,89
60520,note_on,20,0,7,,,,,,,,5,,,84,0
60540,note_on,0,0,3,,,,,,,,0,,,55,64
60540,note_on,30,0,1,,,,,,,,3,,,88,82
60540,note_on,0,0,7,,,,,,,,5,,,79,78
60540,note_on,20,0,7,,,,,,,,5,,,77,0
60540,note_on,30,0,3,,,,,,,,0,,,64,82
60540,note_on,30,0,2,,,,,,,,6,,,76,74
60540,note_on,0,0,2,,,,,,,,6,,,79,76
60560,note_on,0,0,7,,,,,,,,5,,,76,82
60560,note_on,20,0,7,,,,,,,,5,,,74,0
60570,note_on,0,0,3,,,,,,,,0,,,64,0
60570,note_on,0,0,2,,,,,,,,6,,,76,0
60570,note_on,30,0,2,,,,,,,,6,,,79,0
60570,note_on,30,0,1,,,,,,,,3,,,88,0
60570,note_on,30,0,3,,,,,,,,0,,,55,0
60580,note_on,20,0,7,,,,,,,,5,,,86,0
60580,note_on,0,0,7,,,,,,,,5,,,88,82
60600,note_on,30,0,3,,,,,,,,0,,,65,64
60600,note_on,0,0,7,,,,,,,,5,,,81,85
60600,note_on,20,0,7,,,,,,,,5,,,79,0
60600,note_on,30,0,1,,,,,,,,3,,,89,72
60600,note_on,0,0,3,,,,,,,,0,,,57,61
60600,note_on,0,0,2,,,,,,,,6,,,77,64
60600,note_on,30,0,2,,,,,,,,6,,,81,70
60620,note_on,0,0,7,,,,,,,,5,,,77,85
60620,note_on,20,0,7,,,,,,,,5,,,76,0
60640,note_on,0,0,7,,,,,,,,5,,,89,85
60640,note_on,20,0,7,,,,,,,,5,,,88,0
60659,note_on,59,0,2,,,,,,,,6,,,77,0
60659,note_on,0,0,2,,,,,,,,6,,,81,0
60659,note_on,59,0,3,,,,,,,,0,,,57,0
60659,note_on,0,0,3,,,,,,,,0,,,65,0
60660,note_on,0,0,7,,,,,,,,5,,,83,80
60660,note_on,20,0,7,,,,,,,,5,,,81,0
60660,note_on,0,0,3,,,,,,,,0,,,62,76
60660,note_on,1,0,3,,,,,,,,0,,,59,66
60660,note_on,0,0,2,,,,,,,,6,,,83,82
60660,note_on,1,0,2,,,,,,,,6,,,74,72
60680,note_on,0,0,7,,,,,,,,5,,,79,78
60680,note_on,20,0,7,,,,,,,,5,,,77,0
60700,note_on,20,0,7,,,,,,,,5,,,89,0
60700,note_on,0,0,7,,,,,,,,5,,,89,85
60719,note_on,119,0,1,,,,,,,,3,,,89,0
60719,note_on,0,0,3,,,,,,,,0,,,59,0
60719,note_on,59,0,3,,,,,,,,0,,,62,0
60719,note_on,0,0,2,,,,,,,,6,,,74,0
60719,note_on,59,0,2,,,,,,,,6,,,83,0
60720,note_on,0,0,2,,,,,,,,6,,,84,74
60720,note_on,0,0,7,,,,,,,,5,,,88,87
60720,note_on,20,0,7,,,,,,,,5,,,83,0
60720,note_on,1,0,2,,,,,,,,6,,,76,68
60720,note_on,361,0,10,,,,,,,,13,,,60,78
60720,note_on,1,0,1,,,,,,,,3,,,88,82
60720,note_on,361,0,8,,,,,,,,5,,,48,80
60720,note_on,361,0,11,,,,,,,,14,,,48,74
60720,note_on,1,0,3,,,,,,,,0,,,64,70
60720,note_on,0,0,3,,,,,,,,0,,,60,66
60720,note_on,361,0,12,,,,,,,,15,,,48,74
60740,note_on,20,0,8,,,,,,,,5,,,52,85
60740,note_on,20,0,7,,,,,,,,5,,,79,0
60760,note_on,20,0,7,,,,,,,,5,,,89,0
60760,note_on,20,0,8,,,,,,,,5,,,53,80
60779,note_on,59,0,3,,,,,,,,0,,,60,0
60779,note_on,0,0,3,,,,,,,,0,,,64,0
60779,note_on,0,0,2,,,,,,,,6,,,76,0
60779,note_on,59,0,2,,,,,,,,6,,,84,0
60779,note_on,59,0,1,,,,,,,,3,,,88,0
60780,note_on,20,0,8,,,,,,,,5,,,48,0
60780,note_on,421,0,9,,,,,,,,12,,,67,66
60780,note_on,0,0,8,,,,,,,,5,,,55,74
60800,note_on,0,0,8,,,,,,,,5,,,57,85
60800,note_on,20,0,8,,,,,,,,5,,,52,0
60820,note_on,0,0,8,,,,,,,,5,,,59,78
60820,note_on,20,0,8,,,,,,,,5,,,53,0
60839,note_on,119,0,11,,,,,,,,14,,,48,0
60839,note_on,59,0,9,,,,,,,,12,,,67,0
60840,note_on,0,0,8,,,,,,,,5,,,60,82
60840,note_on,1,0,9,,,,,,,,12,,,64,66
60840,note_on,80,0,7,,,,,,,,5,,,88,0
60840,note_on,20,0,8,,,,,,,,5,,,55,0
60860,note_on,20,0,8,,,,,,,,5,,,57,0
60860,note_on,0,0,8,,,,,,,,5,,,62,61
60880,note_on,20,0,8,,,,,,,,5,,,59,0
60880,note_on,0,0,8,,,,,,,,5,,,64,82
60899,note_on,59,0,9,,,,,,,,12,,,64,0
60900,note_on,0,0,8,,,,,,,,5,,,48,85
60900,note_on,1,0,9,,,,,,,,12,,,60,66
60900,note_on,60,0,7,,,,,,,,5,,,84,82
60900,note_on,61,0,11,,,,,,,,14,,,57,72
60900,note_on,60900,0,13,,,,,,,,5,,,76,92
60900,note_on,20,0,8,,,,,,,,5,,,60,0
60920,note_on,20,0,8,,,,,,,,5,,,62,0
60920,note_on,0,0,8,,,,,,,,5,,,50,78
60940,note_on,20,0,8,,,,,,,,5,,,64,0
60940,note_on,0,0,8,,,,,,,,5,,,52,76
60959,note_on,239,0,12,,,,,,,,15,,,48,0
60959,note_on,59,0,9,,,,,,,,12,,,60,0
60959,note_on,59,0,11,,,,,,,,14,,,57,0
60960,note_on,1,0,11,,,,,,,,14,,,53,72
60960,note_on,1,0,12,,,,,,,,15,,,50,68
60960,note_on,0,0,8,,,,,,,,5,,,50,82
60960,note_on,20,0,8,,,,,,,,5,,,48,0
60960,note_on,60,0,13,,,,,,,,5,,,76,0
60960,note_on,0,0,13,,,,,,,,5,,,77,88
60980,note_on,0,0,8,,,,,,,,5,,,53,78
60980,note_on,20,0,8,,,,,,,,5,,,50,0
61000,note_on,20,0,8,,,,,,,,5,,,52,0
61000,note_on,0,0,8,,,,,,,,5,,,55,80
61019,note_on,59,0,11,,,,,,,,14,,,53,0
61019,note_on,299,0,10,,,,,,,,13,,,60,0
61019,note_on,119,0,7,,,,,,,,5,,,84,0
61020,note_on,1,0,11,,,,,,,,14,,,50,70
61020,note_on,0,0,8,,,,,,,,5,,,57,80
61020,note_on,1,0,7,,,,,,,,5,,,83,82
61020,note_on,20,0,8,,,,,,,,5,,,50,0
61020,note_on,61,0,9,,,,,,,,12,,,77,66
61020,note_on,1,0,10,,,,,,,,13,,,59,64
61040,note_on,0,0,8,,,,,,,,5,,,59,74
61040,note_on,20,0,8,,,,,,,,5,,,53,0
61060,note_on,0,0,8,,,,,,,,5,,,60,72
61060,note_on,20,0,8,,,,,,,,5,,,55,0
61079,note_on,59,0,9,,,,,,,,12,,,77,0
61079,note_on,59,0,7,,,,,,,,5,,,83,0
61079,note_on,59,0,11,,,,,,,,14,,,50,0
61080,note_on,20,0,8,,,,,,,,5,,,57,0
61080,note_on,0,0,8,,,,,,,,5,,,62,74
61080,note_on,1,0,9,,,,,,,,12,,,74,70
61080,note_on,120,0,13,,,,,,,,5,,,77,0
61100,note_on,0,0,8,,,,,,,,5,,,64,74
61100,note_on,20,0,8,,,,,,,,5,,,59,0
61120,note_on,20,0,8,,,,,,,,5,,,60,0
61120,note_on,0,0,8,,,,,,,,5,,,65,78
61139,note_on,59,0,9,,,,,,,,12,,,74,0
61139,note_on,119,0,10,,,,,,,,13,,,59,0
61140,note_on,61,0,7,,,,,,,,5,,,86,85
61140,note_on,1,0,9,,,,,,,,12,,,71,72
61140,note_on,61,0,11,,,,,,,,14,,,59,66
61140,note_on,1,0,10,,,,,,,,13,,,62,70
61140,note_on,20,0,8,,,,,,,,5,,,62,0
61140,note_on,0,0,8,,,,,,,,5,,,50,76
61140,note_on,60,0,13,,,,,,,,5,,,77,90
61160,note_on,20,0,8,,,,,,,,5,,,64,0
61160,note_on,0,0,8,,,,,,,,5,,,52,76
61180,note_on,20,0,8,,,,,,,,5,,,65,0
61180,note_on,0,0,8,,,,,,,,5,,,53,82
61199,note_on,59,0,11,,,,,,,,14,,,59,0
61199,note_on,59,0,9,,,,,,,,12,,,71,0
61199,note_on,239,0,12,,,,,,,,15,,,50,0
61200,note_on,20,0,8,,,,,,,,5,,,50,0
61200,note_on,0,0,13,,,,,,,,5,,,79,82
61200,note_on,60,0,13,,,,,,,,5,,,77,0
61200,note_on,0,0,8,,,,,,,,5,,,52,85
61200,note_on,1,0,11,,,,,,,,14,,,55,66
61200,note_on,1,0,12,,,,,,,,15,,,52,72
61220,note_on,20,0,8,,,,,,,,5,,,52,0
61220,note_on,0,0,8,,,,,,,,5,,,55,76
61240,note_on,20,0,8,,,,,,,,5,,,53,0
61240,note_on,0,0,8,,,,,,,,5,,,57,80
61259,note_on,119,0,7,,,,,,,,5,,,86,0
61259,note_on,59,0,11,,,,,,,,14,,,55,0
61259,note_on,119,0,10,,,,,,,,13,,,62,0
61260,note_on,61,0,9,,,,,,,,12,,,79,66
61260,note_on,1,0,11,,,,,,,,14,,,52,78
61260,note_on,1,0,10,,,,,,,,13,,,60,68
61260,note_on,1,0,7,,,,,,,,5,,,84,85
61260,note_on,0,0,8,,,,,,,,5,,,59,78
61260,note_on,20,0,8,,,,,,,,5,,,52,0
61280,note_on,0,0,8,,,,,,,,5,,,62,68
61280,note_on,0,0,8,,,,,,,,5,,,60,59
61280,note_on,20,0,8,,,,,,,,5,,,55,0
61300,note_on,20,0,8,,,,,,,,5,,,57,0
61300,note_on,0,0,8,,,,,,,,5,,,62,80
61319,note_on,59,0,11,,,,,,,,14,,,52,0
61319,note_on,59,0,7,,,,,,,,5,,,84,0
61319,note_on,59,0,9,,,,,,,,12,,,79,0
61320,note_on,0,0,8,,,,,,,,5,,,64,80
61320,note_on,20,0,8,,,,,,,,5,,,59,0
61320,note_on,120,0,13,,,,,,,,5,,,79,0
61320,note_on,1,0,9,,,,,,,,12,,,76,68
61340,note_on,20,0,8,,,,,,,,5,,,62,0
61340,note_on,0,0,8,,,,,,,,5,,,60,0
61340,note_on,0,0,8,,,,,,,,5,,,65,82
61360,note_on,20,0,8,,,,,,,,5,,,62,0
61360,note_on,0,0,8,,,,,,,,5,,,67,72
61379,note_on,119,0,10,,,,,,,,13,,,60,0
61379,note_on,59,0,9,,,,,,,,12,,,76,0
61380,note_on,20,0,8,,,,,,,,5,,,64,0
61380,note_on,0,0,8,,,,,,,,5,,,52,78
61380,note_on,60,0,13,,,,,,,,5,,,79,82
61380,note_on,1,0,10,,,,,,,,13,,,76,68
61380,note_on,1,0,9,,,,,,,,12,,,72,68
61380,note_on,61,0,7,,,,,,,,5,,,88,85
61380,note_on,61,0,11,,,,,,,,14,,,67,72
61400,note_on,20,0,8,,,,,,,,5,,,65,0
61400,note_on,0,0,8,,,,,,,,5,,,53,72
61420,note_on,20,0,8,,,,,,,,5,,,67,0
61420,note_on,0,0,8,,,,,,,,5,,,55,78
61439,note_on,239,0,12,,,,,,,,15,,,52,0
61439,note_on,59,0,11,,,,,,,,14,,,67,0
61439,note_on,59,0,9,,,,,,,,12,,,72,0
61440,note_on,1,0,11,,,,,,,,14,,,65,74
61440,note_on,60,0,13,,,,,,,,5,,,79,0
61440,note_on,0,0,13,,,,,,,,5,,,81,88
61440,note_on,1,0,9,,,,,,,,12,,,81,70
61440,note_on,20,0,8,,,,,,,,5,,,52,0
61440,note_on,1,0,12,,,,,,,,15,,,53,72
61440,note_on,0,0,8,,,,,,,,5,,,53,80
61460,note_on,0,0,8,,,,,,,,5,,,57,78
61460,note_on,20,0,8,,,,,,,,5,,,53,0
61480,note_on,0,0,8,,,,,,,,5,,,62,78
61480,note_on,20,0,8,,,,,,,,5,,,55,0
61499,note_on,119,0,7,,,,,,,,5,,,88,0
61499,note_on,119,0,10,,,,,,,,13,,,76,0
61500,note_on,1,0,7,,,,,,,,5,,,86,82
61500,note_on,1,0,10,,,,,,,,13,,,74,68
61500,note_on,0,0,8,,,,,,,,5,,,65,80
61500,note_on,20,0,8,,,,,,,,5,,,53,0
61520,note_on,20,0,8,,,,,,,,5,,,57,0
61520,note_on,0,0,8,,,,,,,,5,,,64,85
61540,note_on,0,0,8,,,,,,,,5,,,65,82
61540,note_on,20,0,8,,,,,,,,5,,,62,0
61559,note_on,119,0,11,,,,,,,,14,,,65,0
61559,note_on,119,0,12,,,,,,,,15,,,53,0
61559,note_on,119,0,9,,,,,,,,12,,,81,0
61560,note_on,120,0,13,,,,,,,,5,,,81,0
61560,note_on,1,0,11,,,,,,,,14,,,69,68
61560,note_on,1,0,9,,,,,,,,12,,,74,70
61560,note_on,0,0,8,,,,,,,,5,,,54,74
61560,note_on,0,0,13,,,,,,,,5,,,81,90
61560,note_on,1,0,12,,,,,,,,15,,,54,66
61560,note_on,0,0,13,,,,,,,,5,,,74,94
61560,note_on,20,0,8,,,,,,,,5,,,65,0
61580,note_on,0,0,8,,,,,,,,5,,,57,82
61580,note_on,20,0,8,,,,,,,,5,,,64,0
61600,note_on,0,0,8,,,,,,,,5,,,62,80
61600,note_on,20,0,8,,,,,,,,5,,,65,0
61619,note_on,119,0,10,,,,,,,,13,,,74,0
61619,note_on,119,0,7,,,,,,,,5,,,86,0
61620,note_on,0,0,8,,,,,,,,5,,,66,70
61620,note_on,20,0,8,,,,,,,,5,,,54,0
61620,note_on,1,0,10,,,,,,,,13,,,72,66
61620,note_on,1,0,7,,,,,,,,5,,,84,74
61620,note_on,60,0,13,,,,,,,,5,,,81,0
61640,note_on,0,0,8,,,,,,,,5,,,64,82
61640,note_on,20,0,8,,,,,,,,5,,,57,0
61660,note_on,0,0,8,,,,,,,,5,,,66,82
61660,note_on,20,0,8,,,,,,,,5,,,62,0
61679,note_on,119,0,12,,,,,,,,15,,,54,0
61679,note_on,59,0,7,,,,,,,,5,,,84,0
61679,note_on,59,0,10,,,,,,,,13,,,72,0
61679,note_on,119,0,11,,,,,,,,14,,,69,0
61680,note_on,1,0,11,,,,,,,,14,,,67,82
61680,note_on,901,0,1,,,,,,,,3,,,91,80
61680,note_on,901,0,2,,,,,,,,6,,,79,72
61680,note_on,0,0,3,,,,,,,,0,,,55,68
61680,note_on,901,0,3,,,,,,,,0,,,59,59
61680,note_on,1,0,12,,,,,,,,15,,,55,62
61680,note_on,0,0,4,,,,,,,,7,,,55,66
61680,note_on,0,0,8,,,,,,,,5,,,67,87
61680,note_on,1,0,10,,,,,,,,13,,,71,70
61680,note_on,1,0,7,,,,,,,,5,,,83,90
61680,note_on,2761,0,4,,,,,,,,7,,,67,66
61680,note_on,20,0,8,,,,,,,,5,,,66,0
61680,note_on,60,0,13,,,,,,,,5,,,74,0
61700,note_on,20,0,8,,,,,,,,5,,,64,0
61700,note_on,20,0,7,,,,,,,,5,,,79,90
61720,note_on,20,0,8,,,,,,,,5,,,66,0
61720,note_on,20,0,7,,,,,,,,5,,,78,90
61740,note_on,20,0,7,,,,,,,,5,,,83,0
61740,note_on,0,0,7,,,,,,,,5,,,76,90
61760,note_on,20,0,7,,,,,,,,5,,,79,0
61760,note_on,0,0,7,,,,,,,,5,,,74,90
61780,note_on,20,0,7,,,,,,,,5,,,78,0
61780,note_on,0,0,7,,,,,,,,5,,,72,90
61799,note_on,119,0,10,,,,,,,,13,,,71,0
61799,note_on,119,0,12,,,,,,,,15,,,55,0
61799,note_on,119,0,11,,,,,,,,14,,,67,0
61799,note_on,79,0,8,,,,,,,,5,,,67,0
61799,note_on,239,0,9,,,,,,,,12,,,74,0
61800,note_on,0,0,7,,,,,,,,5,,,71,90
61800,note_on,20,0,7,,,,,,,,5,,,76,0
61820,note_on,0,0,7,,,,,,,,5,,,69,90
61820,note_on,20,0,7,,,,,,,,5,,,74,0
61840,note_on,0,0,7,,,,,,,,5,,,67,90
61840,note_on,20,0,7,,,,,,,,5,,,72,0
61860,note_on,61,0,8,,,,,,,,5,,,67,91
61860,note_on,0,0,8,,,,,,,,5,,,55,78
61860,note_on,20,0,7,,,,,,,,5,,,71,0
61860,note_on,0,0,7,,,,,,,,5,,,83,90
61880,note_on,20,0,7,,,,,,,,5,,,69,0
61880,note_on,0,0,7,,,,,,,,5,,,81,90
61900,note_on,20,0,7,,,,,,,,5,,,67,0
61900,note_on,0,0,7,,,,,,,,5,,,79,90
61919,note_on,59,0,8,,,,,,,,5,,,55,0
61919,note_on,0,0,8,,,,,,,,5,,,67,0
61919,note_on,239,0,3,,,,,,,,0,,,55,0
61919,note_on,0,0,3,,,,,,,,0,,,59,0
61919,note_on,239,0,1,,,,,,,,3,,,91,0
61920,note_on,20,0,7,,,,,,,,5,,,83,0
61920,note_on,1,0,8,,,,,,,,5,,,66,78
61920,note_on,1,0,3,,,,,,,,0,,,60,68
61920,note_on,0,0,3,,,,,,,,0,,,57,64
61920,note_on,1,0,1,,,,,,,,3,,,90,72
61920,note_on,0,0,7,,,,,,,,5,,,84,90
61920,note_on,0,0,8,,,,,,,,5,,,55,70
61940,note_on,20,0,7,,,,,,,,5,,,81,0
61940,note_on,0,0,7,,,,,,,,5,,,81,90
61960,note_on,20,0,7,,,,,,,,5,,,79,0
61960,note_on,0,0,7,,,,,,,,5,,,79,90
61980,note_on,0,0,7,,,,,,,,5,,,78,90
61980,note_on,20,0,7,,,,,,,,5,,,84,0
62000,note_on,0,0,7,,,,,,,,5,,,76,90
62000,note_on,20,0,7,,,,,,,,5,,,81,0
62020,note_on,20,0,7,,,,,,,,5,,,79,0
62020,note_on,0,0,7,,,,,,,,5,,,74,90
62040,note_on,0,0,7,,,,,,,,5,,,72,90
62040,note_on,20,0,7,,,,,,,,5,,,78,0
62060,note_on,0,0,7,,,,,,,,5,,,71,90
62060,note_on,20,0,7,,,,,,,,5,,,76,0
62080,note_on,20,0,7,,,,,,,,5,,,74,0
62080,note_on,0,0,7,,,,,,,,5,,,69,90
62099,note_on,0,0,8,,,,,,,,5,,,66,0
62099,note_on,179,0,8,,,,,,,,5,,,55,0
62100,note_on,20,0,7,,,,,,,,5,,,72,0
62100,note_on,0,0,7,,,,,,,,5,,,84,90
62100,note_on,1,0,8,,,,,,,,5,,,66,78
62100,note_on,0,0,8,,,,,,,,5,,,55,74
62120,note_on,20,0,7,,,,,,,,5,,,71,0
62120,note_on,0,0,7,,,,,,,,5,,,83,90
62140,note_on,20,0,7,,,,,,,,5,,,69,0
62140,note_on,0,0,7,,,,,,,,5,,,81,90
62159,note_on,239,0,1,,,,,,,,3,,,90,0
62159,note_on,59,0,8,,,,,,,,5,,,55,0
62159,note_on,239,0,3,,,,,,,,0,,,57,0
62159,note_on,0,0,3,,,,,,,,0,,,60,0
62159,note_on,0,0,8,,,,,,,,5,,,66,0
62160,note_on,1,0,3,,,,,,,,0,,,62,74
62160,note_on,0,0,8,,,,,,,,5,,,65,85
62160,note_on,0,0,3,,,,,,,,0,,,59,66
62160,note_on,0,0,7,,,,,,,,5,,,86,90
62160,note_on,20,0,7,,,,,,,,5,,,84,0
62160,note_on,1,0,8,,,,,,,,5,,,55,74
62160,note_on,1,0,1,,,,,,,,3,,,89,82
62180,note_on,20,0,7,,,,,,,,5,,,83,0
62180,note_on,0,0,7,,,,,,,,5,,,83,90
62200,note_on,20,0,7,,,,,,,,5,,,81,0
62200,note_on,0,0,7,,,,,,,,5,,,81,90
62220,note_on,20,0,7,,,,,,,,5,,,86,0
62220,note_on,0,0,7,,,,,,,,5,,,79,90
62240,note_on,0,0,7,,,,,,,,5,,,77,90
62240,note_on,20,0,7,,,,,,,,5,,,83,0
62260,note_on,0,0,7,,,,,,,,5,,,76,90
62260,note_on,20,0,7,,,,,,,,5,,,81,0
62280,note_on,0,0,7,,,,,,,,5,,,74,90
62280,note_on,20,0,7,,,,,,,,5,,,79,0
62300,note_on,20,0,7,,,,,,,,5,,,77,0
62300,note_on,0,0,7,,,,,,,,5,,,72,90
62320,note_on,0,0,7,,,,,,,,5,,,71,90
62320,note_on,20,0,7,,,,,,,,5,,,76,0
62339,note_on,179,0,8,,,,,,,,5,,,65,0
62339,note_on,0,0,8,,,,,,,,5,,,55,0
62340,note_on,0,0,7,,,,,,,,5,,,86,90
62340,note_on,20,0,7,,,,,,,,5,,,74,0
62340,note_on,1,0,8,,,,,,,,5,,,55,78
62340,note_on,0,0,8,,,,,,,,5,,,65,87
62360,note_on,20,0,7,,,,,,,,5,,,72,0
62360,note_on,0,0,7,,,,,,,,5,,,84,90
62380,note_on,0,0,7,,,,,,,,5,,,83,90
62380,note_on,20,0,7,,,,,,,,5,,,71,0
62399,note_on,0,0,3,,,,,,,,0,,,62,0
62399,note_on,239,0,3,,,,,,,,0,,,59,0
62399,note_on,0,0,8,,,,,,,,5,,,55,0
62399,note_on,59,0,8,,,,,,,,5,,,65,0
62399,note_on,239,0,1,,,,,,,,3,,,89,0
62400,note_on,1,0,3,,,,,,,,0,,,60,66
62400,note_on,0,0,7,,,,,,,,5,,,88,90
62400,note_on,0,0,3,,,,,,,,0,,,64,70
62400,note_on,0,0,8,,,,,,,,5,,,55,78
62400,note_on,20,0,7,,,,,,,,5,,,86,0
62400,note_on,1,0,8,,,,,,,,5,,,64,87
62400,note_on,1,0,1,,,,,,,,3,,,88,80
62420,note_on,0,0,7,,,,,,,,5,,,84,90
62420,note_on,20,0,7,,,,,,,,5,,,84,0
62440,note_on,20,0,7,,,,,,,,5,,,83,0
62440,note_on,0,0,7,,,,,,,,5,,,83,90
62460,note_on,20,0,7,,,,,,,,5,,,88,0
62460,note_on,0,0,7,,,,,,,,5,,,81,90
62480,note_on,20,0,7,,,,,,,,5,,,84,0
62480,note_on,0,0,7,,,,,,,,5,,,79,90
62500,note_on,20,0,7,,,,,,,,5,,,83,0
62500,note_on,0,0,7,,,,,,,,5,,,77,90
62520,note_on,0,0,7,,,,,,,,5,,,76,90
62520,note_on,20,0,7,,,,,,,,5,,,81,0
62540,note_on,0,0,7,,,,,,,,5,,,74,90
62540,note_on,20,0,7,,,,,,,,5,,,79,0
62560,note_on,20,0,7,,,,,,,,5,,,77,0
62560,note_on,0,0,7,,,,,,,,5,,,72,90
62579,note_on,0,0,8,,,,,,,,5,,,64,0
62579,note_on,179,0,8,,,,,,,,5,,,55,0
62580,note_on,0,0,8,,,,,,,,5,,,60,85
62580,note_on,20,0,7,,,,,,,,5,,,76,0
62580,note_on,1,0,8,,,,,,,,5,,,55,82
62580,note_on,0,0,7,,,,,,,,5,,,88,90
62600,note_on,0,0,7,,,,,,,,5,,,86,90
62600,note_on,20,0,7,,,,,,,,5,,,74,0
62620,note_on,20,0,7,,,,,,,,5,,,72,0
62620,note_on,0,0,7,,,,,,,,5,,,84,90
62639,note_on,0,0,8,,,,,,,,5,,,55,0
62639,note_on,59,0,8,,,,,,,,5,,,60,0
62639,note_on,0,0,3,,,,,,,,0,,,60,0
62639,note_on,239,0,1,,,,,,,,3,,,88,0
62639,note_on,239,0,3,,,,,,,,0,,,64,0
62640,note_on,1,0,3,,,,,,,,0,,,65,70
62640,note_on,0,0,8,,,,,,,,5,,,59,80
62640,note_on,0,0,8,,,,,,,,5,,,62,80
62640,note_on,1,0,8,,,,,,,,5,,,55,80
62640,note_on,0,0,11,,,,,,,,14,,,67,63
62640,note_on,841,0,11,,,,,,,,14,,,71,68
62640,note_on,841,0,9,,,,,,,,12,,,77,72
62640,note_on,0,0,7,,,,,,,,5,,,89,90
62640,note_on,20,0,7,,,,,,,,5,,,88,0
62640,note_on,0,0,3,,,,,,,,0,,,62,68
62640,note_on,1,0,1,,,,,,,,3,,,86,82
62640,note_on,841,0,10,,,,,,,,13,,,74,72
62640,note_on,841,0,12,,,,,,,,15,,,67,60
62660,note_on,0,0,7,,,,,,,,5,,,88,90
62660,note_on,20,0,7,,,,,,,,5,,,86,0
62680,note_on,0,0,7,,,,,,,,5,,,86,90
62680,note_on,20,0,7,,,,,,,,5,,,84,0
62699,note_on,59,0,10,,,,,,,,13,,,74,0
62699,note_on,59,0,8,,,,,,,,5,,,59,0
62699,note_on,0,0,8,,,,,,,,5,,,62,0
62699,note_on,0,0,11,,,,,,,,14,,,71,0
62699,note_on,59,0,12,,,,,,,,15,,,67,0
62699,note_on,0,0,8,,,,,,,,5,,,55,0
62699,note_on,59,0,11,,,,,,,,14,,,67,0
62699,note_on,59,0,9,,,,,,,,12,,,77,0
62700,note_on,0,0,7,,,,,,,,5,,,84,90
62700,note_on,20,0,7,,,,,,,,5,,,89,0
62720,note_on,0,0,7,,,,,,,,5,,,83,90
62720,note_on,20,0,7,,,,,,,,5,,,88,0
62740,note_on,0,0,7,,,,,,,,5,,,81,90
62740,note_on,20,0,7,,,,,,,,5,,,86,0
62759,note_on,119,0,1,,,,,,,,3,,,86,0
62759,note_on,1079,0,4,,,,,,,,7,,,55,0
62759,note_on,0,0,4,,,,,,,,7,,,67,0
62759,note_on,0,0,3,,,,,,,,0,,,65,0
62759,note_on,119,0,3,,,,,,,,0,,,62,0
62759,note_on,1079,0,2,,,,,,,,6,,,79,0
62760,note_on,61,0,11,,,,,,,,14,,,67,60
62760,note_on,61,0,8,,,,,,,,5,,,71,80
62760,note_on,0,0,8,,,,,,,,5,,,74,80
62760,note_on,20,0,7,,,,,,,,5,,,84,0
62760,note_on,0,0,7,,,,,,,,5,,,79,90
62760,note_on,61,0,12,,,,,,,,15,,,67,68
62760,note_on,0,0,11,,,,,,,,14,,,71,66
62760,note_on,0,0,8,,,,,,,,5,,,67,80
62760,note_on,61,0,10,,,,,,,,13,,,74,46
62760,note_on,61,0,9,,,,,,,,12,,,77,70
62780,note_on,0,0,7,,,,,,,,5,,,81,90
62780,note_on,20,0,7,,,,,,,,5,,,83,0
62800,note_on,20,0,7,,,,,,,,5,,,81,0
62800,note_on,0,0,7,,,,,,,,5,,,83,90
62819,note_on,0,0,8,,,,,,,,5,,,71,0
62819,note_on,59,0,9,,,,,,,,12,,,77,0
62819,note_on,0,0,11,,,,,,,,14,,,67,0
62819,note_on,59,0,12,,,,,,,,15,,,67,0
62819,note_on,59,0,11,,,,,,,,14,,,71,0
62819,note_on,59,0,10,,,,,,,,13,,,74,0
62819,note_on,0,0,8,,,,,,,,5,,,67,0
62819,note_on,59,0,8,,,,,,,,5,,,74,0
62820,note_on,1,0,12,,,,,,,,15,,,67,62
62820,note_on,0,0,7,,,,,,,,5,,,84,90
62820,note_on,0,0,11,,,,,,,,14,,,67,59
62820,note_on,20,0,7,,,,,,,,5,,,79,0
62820,note_on,1,0,9,,,,,,,,12,,,77,68
62820,note_on,1,0,10,,,,,,,,13,,,74,53
62820,note_on,1,0,11,,,,,,,,14,,,71,60
62820,note_on,1,0,8,,,,,,,,5,,,67,80
62820,note_on,0,0,8,,,,,,,,5,,,74,80
62820,note_on,0,0,8,,,,,,,,5,,,71,80
62840,note_on,0,0,7,,,,,,,,5,,,86,90
62840,note_on,20,0,7,,,,,,,,5,,,81,0
62860,note_on,20,0,7,,,,,,,,5,,,83,0
62860,note_on,0,0,7,,,,,,,,5,,,88,90
62879,note_on,0,0,8,,,,,,,,5,,,67,0
62879,note_on,59,0,12,,,,,,,,15,,,67,0
62879,note_on,0,0,8,,,,,,,,5,,,74,0
62879,note_on,59,0,8,,,,,,,,5,,,71,0
62879,note_on,59,0,11,,,,,,,,14,,,67,0
62879,note_on,0,0,11,,,,,,,,14,,,71,0
62879,note_on,59,0,9,,,,,,,,12,,,77,0
62879,note_on,59,0,10,,,,,,,,13,,,74,0
62880,note_on,0,0,11,,,,,,,,14,,,67,53
62880,note_on,1,0,11,,,,,,,,14,,,71,60
62880,note_on,20,0,7,,,,,,,,5,,,84,0
62880,note_on,0,0,7,,,,,,,,5,,,89,90
62880,note_on,0,0,8,,,,,,,,5,,,71,80
62880,note_on,1,0,12,,,,,,,,15,,,67,64
62880,note_on,1,0,10,,,,,,,,13,,,74,70
62880,note_on,1,0,9,,,,,,,,12,,,77,59
62880,note_on,1,0,8,,,,,,,,5,,,67,80
62880,note_on,0,0,8,,,,,,,,5,,,74,80
62900,note_on,20,0,7,,,,,,,,5,,,86,0
62900,note_on,0,0,7,,,,,,,,5,,,88,90
62920,note_on,20,0,7,,,,,,,,5,,,88,0
62920,note_on,0,0,7,,,,,,,,5,,,86,90
62939,note_on,59,0,9,,,,,,,,12,,,77,0
62939,note_on,0,0,11,,,,,,,,14,,,71,0
62939,note_on,59,0,10,,,,,,,,13,,,74,0
62939,note_on,0,0,8,,,,,,,,5,,,67,0
62939,note_on,0,0,8,,,,,,,,5,,,74,0
62939,note_on,59,0,8,,,,,,,,5,,,71,0
62939,note_on,59,0,11,,,,,,,,14,,,67,0
62939,note_on,59,0,12,,,,,,,,15,,,67,0
62940,note_on,0,0,7,,,,,,,,5,,,84,90
62940,note_on,20,0,7,,,,,,,,5,,,89,0
62960,note_on,0,0,7,,,,,,,,5,,,83,90
62960,note_on,20,0,7,,,,,,,,5,,,88,0
62980,note_on,0,0,7,,,,,,,,5,,,81,90
62980,note_on,20,0,7,,,,,,,,5,,,86,0
63000,note_on,0,0,8,,,,,,,,5,,,71,80
63000,note_on,0,0,8,,,,,,,,5,,,74,80
63000,note_on,61,0,8,,,,,,,,5,,,67,80
63000,note_on,0,0,7,,,,,,,,5,,,79,90
63000,note_on,61,0,9,,,,,,,,12,,,77,58
63000,note_on,61,0,12,,,,,,,,15,,,67,59
63000,note_on,61,0,11,,,,,,,,14,,,71,68
63000,note_on,0,0,11,,,,,,,,14,,,67,70
63000,note_on,20,0,7,,,,,,,,5,,,84,0
63000,note_on,61,0,10,,,,,,,,13,,,74,61
63020,note_on,20,0,7,,,,,,,,5,,,83,0
63020,note_on,0,0,7,,,,,,,,5,,,81,90
63040,note_on,20,0,7,,,,,,,,5,,,81,0
63040,note_on,0,0,7,,,,,,,,5,,,83,90
63059,note_on,59,0,10,,,,,,,,13,,,74,0
63059,note_on,59,0,8,,,,,,,,5,,,71,0
63059,note_on,59,0,11,,,,,,,,14,,,67,0
63059,note_on,0,0,11,,,,,,,,14,,,71,0
63059,note_on,0,0,8,,,,,,,,5,,,67,0
63059,note_on,0,0,8,,,,,,,,5,,,74,0
63059,note_on,59,0,9,,,,,,,,12,,,77,0
63059,note_on,59,0,12,,,,,,,,15,,,67,0
63060,note_on,0,0,11,,,,,,,,14,,,67,54
63060,note_on,1,0,11,,,,,,,,14,,,71,53
63060,note_on,0,0,7,,,,,,,,5,,,84,90
63060,note_on,20,0,7,,,,,,,,5,,,79,0
63060,note_on,0,0,8,,,,,,,,5,,,71,80
63060,note_on,0,0,8,,,,,,,,5,,,67,80
63060,note_on,1,0,12,,,,,,,,15,,,67,52
63060,note_on,1,0,10,,,,,,,,13,,,74,35
63060,note_on,1,0,8,,,,,,,,5,,,74,80
63060,note_on,1,0,9,,,,,,,,12,,,77,60
63080,note_on,0,0,7,,,,,,,,5,,,86,90
63080,note_on,20,0,7,,,,,,,,5,,,81,0
63100,note_on,0,0,7,,,,,,,,5,,,88,90
63100,note_on,20,0,7,,,,,,,,5,,,83,0
63119,note_on,59,0,8,,,,,,,,5,,,71,0
63119,note_on,0,0,8,,,,,,,,5,,,67,0
63119,note_on,59,0,9,,,,,,,,12,,,77,0
63119,note_on,0,0,8,,,,,,,,5,,,74,0
63119,note_on,59,0,10,,,,,,,,13,,,74,0
63119,note_on,59,0,11,,,,,,,,14,,,67,0
63119,note_on,0,0,11,,,,,,,,14,,,71,0
63119,note_on,59,0,12,,,,,,,,15,,,67,0
63120,note_on,0,0,7,,,,,,,,5,,,89,90
63120,note_on,1,0,9,,,,,,,,12,,,77,64
63120,note_on,20,0,7,,,,,,,,5,,,84,0
63120,note_on,1,0,10,,,,,,,,13,,,74,68
63120,note_on,1,0,8,,,,,,,,5,,,71,80
63120,note_on,0,0,8,,,,,,,,5,,,67,80
63120,note_on,1,0,12,,,,,,,,15,,,67,87
63120,note_on,0,0,8,,,,,,,,5,,,74,80
63120,note_on,0,0,11,,,,,,,,14,,,67,66
63120,note_on,1,0,11,,,,,,,,14,,,71,68
63140,note_on,20,0,7,,,,,,,,5,,,86,0
63140,note_on,0,0,7,,,,,,,,5,,,85,90
63160,note_on,0,0,7,,,,,,,,5,,,86,90
63160,note_on,20,0,7,,,,,,,,5,,,88,0
63179,note_on,59,0,9,,,,,,,,12,,,77,0
63179,note_on,59,0,11,,,,,,,,14,,,67,0
63179,note_on,0,0,8,,,,,,,,5,,,71,0
63179,note_on,0,0,8,,,,,,,,5,,,67,0
63179,note_on,59,0,10,,,,,,,,13,,,74,0
63179,note_on,59,0,12,,,,,,,,15,,,67,0
63179,note_on,59,0,8,,,,,,,,5,,,74,0
63179,note_on,0,0,11,,,,,,,,14,,,71,0
63180,note_on,1,0,8,,,,,,,,5,,,67,80
63180,note_on,0,0,8,,,,,,,,5,,,71,80
63180,note_on,0,0,8,,,,,,,,5,,,74,80
63180,note_on,0,0,7,,,,,,,,5,,,89,90
63180,note_on,20,0,7,,,,,,,,5,,,89,0
63180,note_on,1,0,9,,,,,,,,12,,,77,62
63180,note_on,1,0,12,,,,,,,,15,,,67,59
63180,note_on,1,0,11,,,,,,,,14,,,71,43
63180,note_on,1,0,10,,,,,,,,13,,,74,36
63180,note_on,0,0,11,,,,,,,,14,,,67,42
63200,note_on,20,0,7,,,,,,,,5,,,85,0
63200,note_on,0,0,7,,,,,,,,5,,,85,90
63220,note_on,20,0,7,,,,,,,,5,,,86,0
63220,note_on,0,0,7,,,,,,,,5,,,86,90
63239,note_on,59,0,8,,,,,,,,5,,,74,0
63239,note_on,0,0,8,,,,,,,,5,,,71,0
63239,note_on,0,0,8,,,,,,,,5,,,67,0
63239,note_on,59,0,9,,,,,,,,12,,,77,0
63239,note_on,0,0,11,,,,,,,,14,,,71,0
63239,note_on,59,0,11,,,,,,,,14,,,67,0
63239,note_on,59,0,10,,,,,,,,13,,,74,0
63239,note_on,59,0,12,,,,,,,,15,,,67,0
63240,note_on,0,0,11,,,,,,,,14,,,71,66
63240,note_on,0,0,8,,,,,,,,5,,,71,80
63240,note_on,0,0,8,,,,,,,,5,,,67,80
63240,note_on,1,0,8,,,,,,,,5,,,74,80
63240,note_on,1,0,9,,,,,,,,12,,,77,64
63240,note_on,20,0,7,,,,,,,,5,,,89,0
63240,note_on,0,0,7,,,,,,,,5,,,89,90
63240,note_on,1,0,10,,,,,,,,13,,,74,72
63240,note_on,1,0,11,,,,,,,,14,,,67,66
63240,note_on,1,0,12,,,,,,,,15,,,67,87
63260,note_on,20,0,7,,,,,,,,5,,,85,0
63260,note_on,0,0,7,,,,,,,,5,,,85,90
63280,note_on,20,0,7,,,,,,,,5,,,86,0
63280,note_on,0,0,7,,,,,,,,5,,,86,90
63299,note_on,59,0,11,,,,,,,,14,,,71,0
63299,note_on,0,0,8,,,,,,,,5,,,67,0
63299,note_on,59,0,10,,,,,,,,13,,,74,0
63299,note_on,59,0,8,,,,,,,,5,,,71,0
63299,note_on,0,0,8,,,,,,,,5,,,74,0
63299,note_on,0,0,11,,,,,,,,14,,,67,0
63299,note_on,59,0,12,,,,,,,,15,,,67,0
63299,note_on,59,0,9,,,,,,,,12,,,77,0
63300,note_on,0,0,11,,,,,,,,14,,,71,64
63300,note_on,20,0,7,,,,,,,,5,,,89,0
63300,note_on,1,0,9,,,,,,,,12,,,77,60
63300,note_on,1,0,8,,,,,,,,5,,,74,80
63300,note_on,0,0,8,,,,,,,,5,,,67,80
63300,note_on,0,0,8,,,,,,,,5,,,71,80
63300,note_on,1,0,10,,,,,,,,13,,,74,57
63300,note_on,1,0,12,,,,,,,,15,,,67,66
63300,note_on,1,0,11,,,,,,,,14,,,67,60
63300,note_on,0,0,7,,,,,,,,5,,,89,90
63320,note_on,20,0,7,,,,,,,,5,,,85,0
63320,note_on,0,0,7,,,,,,,,5,,,85,90
63340,note_on,20,0,7,,,,,,,,5,,,86,0
63340,note_on,0,0,7,,,,,,,,5,,,86,90
63359,note_on,59,0,12,,,,,,,,15,,,67,0
63359,note_on,0,0,11,,,,,,,,14,,,67,0
63359,note_on,59,0,11,,,,,,,,14,,,71,0
63359,note_on,59,0,8,,,,,,,,5,,,71,0
63359,note_on,0,0,8,,,,,,,,5,,,67,0
63359,note_on,0,0,8,,,,,,,,5,,,74,0
63359,note_on,59,0,10,,,,,,,,13,,,74,0
63359,note_on,59,0,9,,,,,,,,12,,,77,0
63360,note_on,20,0,7,,,,,,,,5,,,89,0
63360,note_on,0,0,7,,,,,,,,5,,,89,107
63360,note_on,1,0,12,,,,,,,,15,,,67,68
63360,note_on,1,0,10,,,,,,,,13,,,74,66
63360,note_on,1,0,8,,,,,,,,5,,,67,82
63360,note_on,0,0,8,,,,,,,,5,,,74,85
63360,note_on,0,0,8,,,,,,,,5,,,71,82
63360,note_on,1,0,11,,,,,,,,14,,,67,58
63360,note_on,0,0,11,,,,,,,,14,,,71,60
63360,note_on,1,0,9,,,,,,,,12,,,77,60
63380,note_on,20,0,7,,,,,,,,5,,,85,0
63400,note_on,20,0,7,,,,,,,,5,,,86,0
63419,note_on,19,0,7,,,,,,,,5,,,89,0
63420,note_on,0,0,8,,,,,,,,5,,,67,0
63420,note_on,60,0,8,,,,,,,,5,,,71,0
63420,note_on,0,0,8,,,,,,,,5,,,74,0
63440,note_on,21,0,7,,,,,,,,5,,,85,87
63459,note_on,19,0,7,,,,,,,,5,,,85,0
63460,note_on,1,0,7,,,,,,,,5,,,86,89
63479,note_on,19,0,7,,,,,,,,5,,,86,0
63480,note_on,0,0,11,,,,,,,,14,,,67,0
63480,note_on,120,0,12,,,,,,,,15,,,67,0
63480,note_on,120,0,9,,,,,,,,12,,,77,0
63480,note_on,120,0,11,,,,,,,,14,,,71,0
63480,note_on,1,0,7,,,,,,,,5,,,89,91
63480,note_on,120,0,10,,,,,,,,13,,,74,0
63539,note_on,59,0,7,,,,,,,,5,,,89,0
63560,note_on,21,0,7,,,,,,,,5,,,73,91
63579,note_on,19,0,7,,,,,,,,5,,,73,0
63580,note_on,1,0,7,,,,,,,,5,,,74,82
63599,note_on,19,0,7,,,,,,,,5,,,74,0
63600,note_on,120,0,10,,,,,,,,13,,,62,17
63600,note_on,0,0,8,,,,,,,,5,,,55,85
63600,note_on,0,0,8,,,,,,,,5,,,59,82
63600,note_on,0,0,10,,,,,,,,13,,,59,60
63600,note_on,120,0,11,,,,,,,,14,,,55,68
63600,note_on,120,0,12,,,,,,,,15,,,55,82
63600,note_on,180,0,8,,,,,,,,5,,,62,87
63600,note_on,120,0,9,,,,,,,,12,,,65,60
63600,note_on,1,0,7,,,,,,,,5,,,77,87
63659,note_on,59,0,7,,,,,,,,5,,,77,0
63660,note_on,0,0,8,,,,,,,,5,,,62,0
63660,note_on,0,0,8,,,,,,,,5,,,55,0
63660,note_on,60,0,8,,,,,,,,5,,,59,0
63680,note_on,21,0,7,,,,,,,,5,,,61,82
63699,note_on,19,0,7,,,,,,,,5,,,61,0
63700,note_on,1,0,7,,,,,,,,5,,,62,87
63719,note_on,19,0,7,,,,,,,,5,,,62,0
63720,note_on,1,0,7,,,,,,,,5,,,65,87
63720,note_on,120,0,10,,,,,,,,13,,,59,0
63720,note_on,0,0,10,,,,,,,,13,,,62,0
63720,note_on,120,0,9,,,,,,,,12,,,65,0
63720,note_on,120,0,12,,,,,,,,15,,,55,0
63720,note_on,120,0,11,,,,,,,,14,,,55,0
63779,note_on,59,0,7,,,,,,,,5,,,65,0
63800,note_on,21,0,7,,,,,,,,5,,,61,78
63819,note_on,19,0,7,,,,,,,,5,,,61,0
63820,note_on,1,0,7,,,,,,,,5,,,62,89
63839,note_on,19,0,7,,,,,,,,5,,,62,0
63840,note_on,1,0,7,,,,,,,,5,,,64,82
63859,note_on,19,0,7,,,,,,,,5,,,64,0
63860,note_on,1,0,7,,,,,,,,5,,,65,85
63879,note_on,19,0,7,,,,,,,,5,,,65,0
63880,note_on,1,0,7,,,,,,,,5,,,70,76
63899,note_on,19,0,7,,,,,,,,5,,,70,0
63900,note_on,1,0,7,,,,,,,,5,,,71,91
63919,note_on,19,0,7,,,,,,,,5,,,71,0
63920,note_on,1,0,7,,,,,,,,5,,,73,82
63939,note_on,19,0,7,,,,,,,,5,,,73,0
63940,note_on,1,0,7,,,,,,,,5,,,74,85
63959,note_on,19,0,7,,,,,,,,5,,,74,0
63960,note_on,1,0,7,,,,,,,,5,,,76,89
63979,note_on,19,0,7,,,,,,,,5,,,76,0
63980,note_on,1,0,7,,,,,,,,5,,,77,85
63999,note_on,19,0,7,,,,,,,,5,,,77,0
64000,note_on,1,0,7,,,,,,,,5,,,82,78
64019,note_on,19,0,7,,,,,,,,5,,,82,0
64020,note_on,1,0,7,,,,,,,,5,,,83,87
64039,note_on,19,0,7,,,,,,,,5,,,83,0
64040,note_on,1,0,7,,,,,,,,5,,,85,85
64059,note_on,19,0,7,,,,,,,,5,,,85,0
64060,note_on,1,0,7,,,,,,,,5,,,86,80
64079,note_on,19,0,7,,,,,,,,5,,,86,0
64080,note_on,0,0,8,,,,,,,,5,,,71,76
64080,note_on,1,0,7,,,,,,,,5,,,89,91
64080,note_on,420,0,8,,,,,,,,5,,,67,78
64080,note_on,0,0,8,,,,,,,,5,,,74,82
64139,note_on,59,0,7,,,,,,,,5,,,89,0
64140,note_on,0,0,8,,,,,,,,5,,,67,0
64140,note_on,0,0,8,,,,,,,,5,,,74,0
64140,note_on,60,0,8,,,,,,,,5,,,71,0
64305,note_on,166,0,7,,,,,,,,5,,,77,89
64319,note_on,14,0,7,,,,,,,,5,,,77,0
64320,note_on,180,0,8,,,,,,,,5,,,74,85
64320,note_on,0,0,8,,,,,,,,5,,,67,70
64320,note_on,0,0,8,,,,,,,,5,,,71,74
64320,note_on,1,0,7,,,,,,,,5,,,89,87
64379,note_on,59,0,7,,,,,,,,5,,,89,0
64380,note_on,60,0,8,,,,,,,,5,,,71,0
64380,note_on,0,0,8,,,,,,,,5,,,74,0
64380,note_on,0,0,8,,,,,,,,5,,,67,0
64425,note_on,46,0,7,,,,,,,,5,,,77,82
64439,note_on,14,0,7,,,,,,,,5,,,77,0
64440,note_on,1,0,7,,,,,,,,5,,,89,91
64440,note_on,0,0,8,,,,,,,,5,,,67,72
64440,note_on,60,0,8,,,,,,,,5,,,74,85
64440,note_on,0,0,8,,,,,,,,5,,,71,76
64499,note_on,59,0,7,,,,,,,,5,,,89,0
64500,note_on,0,0,8,,,,,,,,5,,,74,0
64500,note_on,0,0,8,,,,,,,,5,,,67,0
64500,note_on,60,0,8,,,,,,,,5,,,71,0
64545,note_on,46,0,7,,,,,,,,5,,,77,87
64559,note_on,14,0,7,,,,,,,,5,,,77,0
64560,note_on,0,0,8,,,,,,,,5,,,71,85
64560,note_on,0,0,8,,,,,,,,5,,,74,85
64560,note_on,60,0,8,,,,,,,,5,,,67,80
64560,note_on,1,0,7,,,,,,,,5,,,89,85
64619,note_on,59,0,7,,,,,,,,5,,,89,0
64620,note_on,0,0,8,,,,,,,,5,,,67,0
64620,note_on,0,0,8,,,,,,,,5,,,74,0
64620,note_on,60,0,8,,,,,,,,5,,,71,0
64680,note_on,61,0,7,,,,,,,,5,,,89,87
64739,note_on,59,0,7,,,,,,,,5,,,89,0
64740,note_on,1,0,7,,,,,,,,5,,,89,89
64799,note_on,59,0,7,,,,,,,,5,,,89,0
64800,note_on,180,0,8,,,,,,,,5,,,60,70
64800,note_on,1,0,7,,,,,,,,5,,,89,82
64829,note_on,29,0,7,,,,,,,,5,,,89,0
64830,note_on,1,0,7,,,,,,,,5,,,88,85
64830,note_on,30,0,8,,,,,,,,5,,,67,70
64859,note_on,29,0,7,,,,,,,,5,,,88,0
64860,note_on,30,0,8,,,,,,,,5,,,60,0
64860,note_on,0,0,8,,,,,,,,5,,,64,70
64860,note_on,1,0,7,,,,,,,,5,,,86,66
64889,note_on,29,0,7,,,,,,,,5,,,86,0
64890,note_on,30,0,8,,,,,,,,5,,,67,0
64890,note_on,1,0,7,,,,,,,,5,,,84,78
64890,note_on,0,0,8,,,,,,,,5,,,67,70
64919,note_on,29,0,7,,,,,,,,5,,,84,0
64920,note_on,0,0,8,,,,,,,,5,,,62,70
64920,note_on,30,0,8,,,,,,,,5,,,64,0
64920,note_on,1,0,7,,,,,,,,5,,,83,76
64949,note_on,29,0,7,,,,,,,,5,,,83,0
64950,note_on,0,0,8,,,,,,,,5,,,67,70
64950,note_on,30,0,8,,,,,,,,5,,,67,0
64950,note_on,1,0,7,,,,,,,,5,,,84,85
64979,note_on,29,0,7,,,,,,,,5,,,84,0
64980,note_on,1,0,7,,,,,,,,5,,,86,80
64980,note_on,0,0,8,,,,,,,,5,,,65,70
64980,note_on,30,0,8,,,,,,,,5,,,62,0
65009,note_on,29,0,7,,,,,,,,5,,,86,0
65010,note_on,1,0,7,,,,,,,,5,,,83,78
65010,note_on,0,0,8,,,,,,,,5,,,67,70
65010,note_on,30,0,8,,,,,,,,5,,,67,0
65039,note_on,29,0,7,,,,,,,,5,,,83,0
65040,note_on,0,0,8,,,,,,,,5,,,64,70
65040,note_on,1,0,7,,,,,,,,5,,,79,85
65040,note_on,30,0,8,,,,,,,,5,,,65,0
65070,note_on,30,0,8,,,,,,,,5,,,67,0
65070,note_on,0,0,8,,,,,,,,5,,,67,70
65100,note_on,0,0,8,,,,,,,,5,,,60,70
65100,note_on,30,0,8,,,,,,,,5,,,64,0
65130,note_on,30,0,8,,,,,,,,5,,,67,0
65130,note_on,0,0,8,,,,,,,,5,,,67,70
65159,note_on,119,0,7,,,,,,,,5,,,79,0
65160,note_on,1,0,7,,,,,,,,5,,,77,89
65160,note_on,0,0,8,,,,,,,,5,,,62,70
65160,note_on,30,0,8,,,,,,,,5,,,60,0
65189,note_on,29,0,7,,,,,,,,5,,,77,0
65190,note_on,0,0,8,,,,,,,,5,,,67,70
65190,note_on,30,0,8,,,,,,,,5,,,67,0
65190,note_on,1,0,7,,,,,,,,5,,,79,80
65219,note_on,29,0,7,,,,,,,,5,,,79,0
65220,note_on,30,0,8,,,,,,,,5,,,62,0
65220,note_on,1,0,7,,,,,,,,5,,,81,85
65220,note_on,0,0,8,,,,,,,,5,,,59,70
65249,note_on,29,0,7,,,,,,,,5,,,81,0
65250,note_on,30,0,8,,,,,,,,5,,,67,0
65250,note_on,0,0,8,,,,,,,,5,,,67,70
65250,note_on,1,0,7,,,,,,,,5,,,77,80
65279,note_on,29,0,7,,,,,,,,5,,,77,0
65280,note_on,30,0,8,,,,,,,,5,,,59,0
65280,note_on,0,0,8,,,,,,,,5,,,60,70
65280,note_on,1,0,7,,,,,,,,5,,,76,85
65309,note_on,29,0,7,,,,,,,,5,,,76,0
65310,note_on,30,0,8,,,,,,,,5,,,67,0
65310,note_on,0,0,8,,,,,,,,5,,,67,70
65310,note_on,1,0,7,,,,,,,,5,,,77,80
65339,note_on,29,0,7,,,,,,,,5,,,77,0
65340,note_on,0,0,8,,,,,,,,5,,,52,70
65340,note_on,1,0,7,,,,,,,,5,,,79,70
65340,note_on,30,0,8,,,,,,,,5,,,60,0
65369,note_on,29,0,7,,,,,,,,5,,,79,0
65370,note_on,1,0,7,,,,,,,,5,,,76,85
65370,note_on,0,0,8,,,,,,,,5,,,55,70
65370,note_on,30,0,8,,,,,,,,5,,,67,0
65399,note_on,29,0,7,,,,,,,,5,,,76,0
65400,note_on,30,0,8,,,,,,,,5,,,52,0
65400,note_on,0,0,8,,,,,,,,5,,,53,70
65400,note_on,1,0,7,,,,,,,,5,,,74,85
65429,note_on,29,0,7,,,,,,,,5,,,74,0
65430,note_on,1,0,7,,,,,,,,5,,,76,66
65430,note_on,0,0,8,,,,,,,,5,,,57,70
65430,note_on,30,0,8,,,,,,,,5,,,55,0
65459,note_on,29,0,7,,,,,,,,5,,,76,0
65460,note_on,0,0,8,,,,,,,,5,,,50,70
65460,note_on,30,0,8,,,,,,,,5,,,53,0
65460,note_on,1,0,7,,,,,,,,5,,,77,85
65489,note_on,29,0,7,,,,,,,,5,,,77,0
65490,note_on,1,0,7,,,,,,,,5,,,74,85
65490,note_on,0,0,8,,,,,,,,5,,,53,70
65490,note_on,30,0,8,,,,,,,,5,,,57,0
65519,note_on,29,0,7,,,,,,,,5,,,74,0
65520,note_on,30,0,8,,,,,,,,5,,,50,0
65520,note_on,0,0,8,,,,,,,,5,,,55,70
65520,note_on,1,0,7,,,,,,,,5,,,72,78
65520,note_on,1800,0,9,,,,,,,,12,,,79,55
65549,note_on,29,0,7,,,,,,,,5,,,72,0
65550,note_on,30,0,8,,,,,,,,5,,,53,0
65550,note_on,0,0,8,,,,,,,,5,,,59,70
65550,note_on,1,0,7,,,,,,,,5,,,71,82
65579,note_on,29,0,7,,,,,,,,5,,,71,0
65580,note_on,1,0,7,,,,,,,,5,,,69,70
65580,note_on,0,0,8,,,,,,,,5,,,57,70
65580,note_on,30,0,8,,,,,,,,5,,,55,0
65609,note_on,29,0,7,,,,,,,,5,,,69,0
65610,note_on,1,0,7,,,,,,,,5,,,67,82
65610,note_on,30,0,8,,,,,,,,5,,,59,0
65610,note_on,0,0,8,,,,,,,,5,,,60,70
65639,note_on,29,0,7,,,,,,,,5,,,67,0
65640,note_on,30,0,8,,,,,,,,5,,,57,0
65640,note_on,0,0,8,,,,,,,,5,,,59,70
65640,note_on,1,0,7,,,,,,,,5,,,89,91
65670,note_on,30,0,8,,,,,,,,5,,,60,0
65670,note_on,0,0,8,,,,,,,,5,,,62,70
65699,note_on,59,0,7,,,,,,,,5,,,89,0
65700,note_on,1,0,7,,,,,,,,5,,,89,91
65700,note_on,0,0,8,,,,,,,,5,,,55,70
65700,note_on,30,0,8,,,,,,,,5,,,59,0
65730,note_on,0,0,8,,,,,,,,5,,,59,70
65730,note_on,30,0,8,,,,,,,,5,,,62,0
65759,note_on,59,0,7,,,,,,,,5,,,89,0
65760,note_on,2040,0,12,,,,,,,,15,,,60,80
65760,note_on,30,0,8,,,,,,,,5,,,55,0
65760,note_on,1,0,7,,,,,,,,5,,,89,78
65760,note_on,2040,0,10,,,,,,,,13,,,79,66
65760,note_on,0,0,8,,,,,,,,5,,,48,70
65760,note_on,2040,0,11,,,,,,,,14,,,76,74
65789,note_on,29,0,7,,,,,,,,5,,,89,0
65790,note_on,1,0,7,,,,,,,,5,,,88,82
65790,note_on,30,0,8,,,,,,,,5,,,59,0
65790,note_on,0,0,8,,,,,,,,5,,,52,70
65819,note_on,29,0,7,,,,,,,,5,,,88,0
65820,note_on,1,0,7,,,,,,,,5,,,86,76
65820,note_on,30,0,8,,,,,,,,5,,,48,0
65820,note_on,0,0,8,,,,,,,,5,,,55,70
65849,note_on,29,0,7,,,,,,,,5,,,86,0
65850,note_on,1,0,7,,,,,,,,5,,,84,82
65850,note_on,30,0,8,,,,,,,,5,,,52,0
65850,note_on,0,0,8,,,,,,,,5,,,60,70
65879,note_on,119,0,12,,,,,,,,15,,,60,0
65879,note_on,119,0,10,,,,,,,,13,,,79,0
65879,note_on,119,0,11,,,,,,,,14,,,76,0
65879,note_on,29,0,7,,,,,,,,5,,,84,0
65880,note_on,0,0,8,,,,,,,,5,,,50,70
65880,note_on,1,0,11,,,,,,,,14,,,74,82
65880,note_on,1,0,12,,,,,,,,15,,,62,78
65880,note_on,30,0,8,,,,,,,,5,,,55,0
65880,note_on,1,0,10,,,,,,,,13,,,77,70
65880,note_on,1,0,7,,,,,,,,5,,,83,70
65909,note_on,29,0,7,,,,,,,,5,,,83,0
65910,note_on,1,0,7,,,,,,,,5,,,84,80
65910,note_on,0,0,8,,,,,,,,5,,,53,70
65910,note_on,30,0,8,,,,,,,,5,,,60,0
65939,note_on,29,0,7,,,,,,,,5,,,84,0
65940,note_on,1,0,7,,,,,,,,5,,,86,80
65940,note_on,0,0,8,,,,,,,,5,,,59,70
65940,note_on,30,0,8,,,,,,,,5,,,50,0
65969,note_on,29,0,7,,,,,,,,5,,,86,0
65970,note_on,30,0,8,,,,,,,,5,,,53,0
65970,note_on,0,0,8,,,,,,,,5,,,62,70
65970,note_on,1,0,7,,,,,,,,5,,,83,78
65999,note_on,119,0,10,,,,,,,,13,,,77,0
65999,note_on,119,0,11,,,,,,,,14,,,74,0
65999,note_on,29,0,7,,,,,,,,5,,,83,0
65999,note_on,119,0,12,,,,,,,,15,,,62,0
66000,note_on,1,0,10,,,,,,,,13,,,76,68
66000,note_on,0,0,8,,,,,,,,5,,,52,70
66000,note_on,30,0,8,,,,,,,,5,,,59,0
66000,note_on,1,0,12,,,,,,,,15,,,64,82
66000,note_on,1,0,11,,,,,,,,14,,,72,72
66000,note_on,1,0,7,,,,,,,,5,,,79,82
66030,note_on,0,0,8,,,,,,,,5,,,64,70
66030,note_on,30,0,8,,,,,,,,5,,,62,0
66059,note_on,59,0,12,,,,,,,,15,,,64,0
66060,note_on,0,0,8,,,,,,,,5,,,48,70
66060,note_on,30,0,8,,,,,,,,5,,,52,0
66060,note_on,1,0,12,,,,,,,,15,,,60,76
66090,note_on,30,0,8,,,,,,,,5,,,64,0
66090,note_on,0,0,8,,,,,,,,5,,,60,70
66119,note_on,119,0,7,,,,,,,,5,,,79,0
66119,note_on,599,0,9,,,,,,,,12,,,79,0
66119,note_on,59,0,12,,,,,,,,15,,,60,0
66120,note_on,1,0,7,,,,,,,,5,,,77,85
66120,note_on,1,0,9,,,,,,,,12,,,77,55
66120,note_on,1,0,12,,,,,,,,15,,,57,80
66120,note_on,0,0,8,,,,,,,,5,,,45,70
66120,note_on,30,0,8,,,,,,,,5,,,48,0
66149,note_on,29,0,7,,,,,,,,5,,,77,0
66150,note_on,0,0,8,,,,,,,,5,,,57,70
66150,note_on,30,0,8,,,,,,,,5,,,60,0
66150,note_on,1,0,7,,,,,,,,5,,,79,85
66179,note_on,59,0,12,,,,,,,,15,,,57,0
66179,note_on,179,0,11,,,,,,,,14,,,72,0
66179,note_on,29,0,7,,,,,,,,5,,,79,0
66179,note_on,179,0,10,,,,,,,,13,,,76,0
66180,note_on,1,0,12,,,,,,,,15,,,59,82
66180,note_on,0,0,8,,,,,,,,5,,,43,70
66180,note_on,1,0,10,,,,,,,,13,,,74,63
66180,note_on,1,0,11,,,,,,,,14,,,67,72
66180,note_on,30,0,8,,,,,,,,5,,,45,0
66180,note_on,1,0,7,,,,,,,,5,,,81,85
66209,note_on,29,0,7,,,,,,,,5,,,81,0
66210,note_on,1,0,7,,,,,,,,5,,,77,85
66210,note_on,30,0,8,,,,,,,,5,,,57,0
66210,note_on,0,0,8,,,,,,,,5,,,55,70
66239,note_on,59,0,12,,,,,,,,15,,,59,0
66239,note_on,119,0,9,,,,,,,,12,,,77,0
66239,note_on,29,0,7,,,,,,,,5,,,77,0
66240,note_on,1,0,7,,,,,,,,5,,,76,87
66240,note_on,30,0,8,,,,,,,,5,,,43,0
66240,note_on,0,0,8,,,,,,,,5,,,48,70
66240,note_on,1,0,12,,,,,,,,15,,,60,78
66240,note_on,1,0,9,,,,,,,,12,,,76,55
66269,note_on,29,0,7,,,,,,,,5,,,76,0
66270,note_on,1,0,7,,,,,,,,5,,,77,82
66270,note_on,30,0,8,,,,,,,,5,,,55,0
66270,note_on,0,0,8,,,,,,,,5,,,60,70
66299,note_on,119,0,10,,,,,,,,13,,,74,0
66299,note_on,59,0,12,,,,,,,,15,,,60,0
66299,note_on,29,0,7,,,,,,,,5,,,77,0
66300,note_on,1,0,7,,,,,,,,5,,,79,80
66300,note_on,30,0,8,,,,,,,,5,,,48,0
66300,note_on,0,0,8,,,,,,,,5,,,40,70
66300,note_on,1,0,12,,,,,,,,15,,,52,87
66300,note_on,1,0,10,,,,,,,,13,,,72,63
66329,note_on,29,0,7,,,,,,,,5,,,79,0
66330,note_on,30,0,8,,,,,,,,5,,,60,0
66330,note_on,1,0,7,,,,,,,,5,,,76,87
66330,note_on,0,0,8,,,,,,,,5,,,52,70
66359,note_on,59,0,12,,,,,,,,15,,,52,0
66359,note_on,29,0,7,,,,,,,,5,,,76,0
66359,note_on,119,0,9,,,,,,,,12,,,76,0
66360,note_on,0,0,8,,,,,,,,5,,,41,70
66360,note_on,1,0,12,,,,,,,,15,,,53,76
66360,note_on,180,0,11,,,,,,,,14,,,67,0
66360,note_on,1,0,9,,,,,,,,12,,,74,55
66360,note_on,0,0,11,,,,,,,,14,,,69,74
66360,note_on,30,0,8,,,,,,,,5,,,40,0
66360,note_on,1,0,7,,,,,,,,5,,,74,85
66389,note_on,29,0,7,,,,,,,,5,,,74,0
66390,note_on,1,0,7,,,,,,,,5,,,76,70
66390,note_on,30,0,8,,,,,,,,5,,,52,0
66390,note_on,0,0,8,,,,,,,,5,,,53,70
66419,note_on,59,0,11,,,,,,,,14,,,69,0
66419,note_on,59,0,12,,,,,,,,15,,,53,0
66419,note_on,29,0,7,,,,,,,,5,,,76,0
66419,note_on,119,0,10,,,,,,,,13,,,72,0
66420,note_on,30,0,8,,,,,,,,5,,,41,0
66420,note_on,1,0,7,,,,,,,,5,,,77,82
66420,note_on,0,0,8,,,,,,,,5,,,43,70
66420,note_on,1,0,12,,,,,,,,15,,,55,82
66420,note_on,1,0,10,,,,,,,,13,,,71,68
66420,note_on,1,0,11,,,,,,,,14,,,65,72
66449,note_on,29,0,7,,,,,,,,5,,,77,0
66450,note_on,1,0,7,,,,,,,,5,,,74,87
66450,note_on,30,0,8,,,,,,,,5,,,53,0
66450,note_on,0,0,8,,,,,,,,5,,,55,70
66479,note_on,59,0,11,,,,,,,,14,,,65,0
66479,note_on,59,0,10,,,,,,,,13,,,71,0
66479,note_on,59,0,12,,,,,,,,15,,,55,0
66479,note_on,119,0,9,,,,,,,,12,,,74,0
66479,note_on,29,0,7,,,,,,,,5,,,74,0
66480,note_on,1,0,11,,,,,,,,14,,,64,66
66480,note_on,30,0,8,,,,,,,,5,,,43,0
66480,note_on,1,0,7,,,,,,,,5,,,72,80
66480,note_on,1,0,10,,,,,,,,13,,,72,72
66480,note_on,1,0,12,,,,,,,,15,,,48,82
66480,note_on,0,0,8,,,,,,,,5,,,48,70
66480,note_on,1,0,9,,,,,,,,12,,,72,55
66499,note_on,19,0,7,,,,,,,,5,,,72,0
66500,note_on,1,0,7,,,,,,,,5,,,79,85
66509,note_on,29,0,9,,,,,,,,12,,,72,0
66509,note_on,29,0,11,,,,,,,,14,,,64,0
66510,note_on,30,0,12,,,,,,,,15,,,48,0
66510,note_on,1,0,11,,,,,,,,14,,,60,66
66510,note_on,1,0,9,,,,,,,,12,,,76,55
66510,note_on,30,0,8,,,,,,,,5,,,55,0
66519,note_on,19,0,7,,,,,,,,5,,,79,0
66520,note_on,1,0,7,,,,,,,,5,,,77,82
66539,note_on,19,0,7,,,,,,,,5,,,77,0
66539,note_on,59,0,10,,,,,,,,13,,,72,0
66539,note_on,29,0,9,,,,,,,,12,,,76,0
66539,note_on,29,0,11,,,,,,,,14,,,60,0
66540,note_on,1,0,11,,,,,,,,14,,,55,70
66540,note_on,30,0,12,,,,,,,,15,,,52,85
66540,note_on,1,0,10,,,,,,,,13,,,67,61
66540,note_on,1,0,7,,,,,,,,5,,,76,82
66540,note_on,1,0,9,,,,,,,,12,,,79,50
66559,note_on,19,0,7,,,,,,,,5,,,76,0
66560,note_on,1,0,7,,,,,,,,5,,,74,85
66570,note_on,30,0,12,,,,,,,,15,,,52,0
66579,note_on,19,0,7,,,,,,,,5,,,74,0
66580,note_on,1,0,7,,,,,,,,5,,,72,82
66599,note_on,19,0,7,,,,,,,,5,,,72,0
66599,note_on,89,0,8,,,,,,,,5,,,48,0
66600,note_on,3841,0,3,,,,,,,,0,,,65,85
66600,note_on,3841,0,2,,,,,,,,6,,,77,76
66600,note_on,1,0,7,,,,,,,,5,,,71,76
66600,note_on,30,0,12,,,,,,,,15,,,55,82
66619,note_on,19,0,7,,,,,,,,5,,,71,0
66620,note_on,1,0,7,,,,,,,,5,,,69,85
66630,note_on,30,0,12,,,,,,,,15,,,55,0
66639,note_on,19,0,7,,,,,,,,5,,,69,0
66640,note_on,1,0,7,,,,,,,,5,,,67,85
66659,note_on,59,0,3,,,,,,,,0,,,65,0
66659,note_on,59,0,2,,,,,,,,6,,,77,0
66659,note_on,19,0,7,,,,,,,,5,,,67,0
66660,note_on,30,0,12,,,,,,,,15,,,59,85
66660,note_on,1,0,2,,,,,,,,6,,,77,82
66660,note_on,1,0,3,,,,,,,,0,,,65,82
66660,note_on,1,0,7,,,,,,,,5,,,65,82
66679,note_on,19,0,7,,,,,,,,5,,,65,0
66680,note_on,1,0,7,,,,,,,,5,,,64,80
66690,note_on,30,0,12,,,,,,,,15,,,59,0
66699,note_on,19,0,7,,,,,,,,5,,,64,0
66700,note_on,1,0,7,,,,,,,,5,,,62,85
66719,note_on,19,0,7,,,,,,,,5,,,62,0
66719,note_on,59,0,3,,,,,,,,0,,,65,0
66719,note_on,59,0,2,,,,,,,,6,,,77,0
66720,note_on,1,0,7,,,,,,,,5,,,60,91
66720,note_on,1,0,2,,,,,,,,6,,,77,82
66720,note_on,1,0,3,,,,,,,,0,,,65,82
66720,note_on,30,0,12,,,,,,,,15,,,60,80
66739,note_on,19,0,7,,,,,,,,5,,,60,0
66740,note_on,1,0,7,,,,,,,,5,,,67,87
66749,note_on,29,0,3,,,,,,,,0,,,65,0
66749,note_on,29,0,2,,,,,,,,6,,,77,0
66750,note_on,1,0,2,,,,,,,,6,,,76,82
66750,note_on,30,0,12,,,,,,,,15,,,60,0
66750,note_on,1,0,3,,,,,,,,0,,,64,82
66759,note_on,19,0,7,,,,,,,,5,,,67,0
66760,note_on,1,0,7,,,,,,,,5,,,65,82
66779,note_on,19,0,7,,,,,,,,5,,,65,0
66779,note_on,29,0,3,,,,,,,,0,,,64,0
66779,note_on,29,0,2,,,,,,,,6,,,76,0
66780,note_on,1,0,7,,,,,,,,5,,,64,82
66780,note_on,1,0,2,,,,,,,,6,,,74,82
66780,note_on,30,0,12,,,,,,,,15,,,52,85
66780,note_on,1,0,3,,,,,,,,0,,,62,82
66799,note_on,19,0,7,,,,,,,,5,,,64,0
66800,note_on,1,0,7,,,,,,,,5,,,62,85
66809,note_on,29,0,2,,,,,,,,6,,,74,0
66809,note_on,29,0,3,,,,,,,,0,,,62,0
66810,note_on,1,0,3,,,,,,,,0,,,60,82
66810,note_on,1,0,2,,,,,,,,6,,,72,76
66810,note_on,30,0,12,,,,,,,,15,,,52,0
66819,note_on,19,0,7,,,,,,,,5,,,62,0
66820,note_on,1,0,7,,,,,,,,5,,,60,95
66839,note_on,19,0,7,,,,,,,,5,,,60,0
66839,note_on,29,0,2,,,,,,,,6,,,72,0
66839,note_on,29,0,3,,,,,,,,0,,,60,0
66840,note_on,30,0,12,,,,,,,,15,,,55,80
66840,note_on,241,0,8,,,,,,,,5,,,59,93
66840,note_on,1,0,2,,,,,,,,6,,,71,80
66840,note_on,1,0,3,,,,,,,,0,,,59,82
66859,note_on,19,0,8,,,,,,,,5,,,59,0
66860,note_on,1,0,8,,,,,,,,5,,,57,82
66869,note_on,29,0,3,,,,,,,,0,,,59,0
66869,note_on,29,0,2,,,,,,,,6,,,71,0
66870,note_on,1,0,3,,,,,,,,0,,,60,82
66870,note_on,1,0,2,,,,,,,,6,,,72,78
66870,note_on,30,0,12,,,,,,,,15,,,55,0
66879,note_on,19,0,8,,,,,,,,5,,,57,0
66880,note_on,1,0,8,,,,,,,,5,,,55,85
66899,note_on,19,0,8,,,,,,,,5,,,55,0
66899,note_on,29,0,2,,,,,,,,6,,,72,0
66899,note_on,29,0,3,,,,,,,,0,,,60,0
66900,note_on,1,0,8,,,,,,,,5,,,53,80
66900,note_on,1,0,3,,,,,,,,0,,,62,78
66900,note_on,30,0,12,,,,,,,,15,,,53,87
66900,note_on,1,0,2,,,,,,,,6,,,74,74
66919,note_on,19,0,8,,,,,,,,5,,,53,0
66920,note_on,1,0,8,,,,,,,,5,,,52,82
66929,note_on,29,0,3,,,,,,,,0,,,62,0
66929,note_on,29,0,2,,,,,,,,6,,,74,0
66930,note_on,1,0,3,,,,,,,,0,,,59,82
66930,note_on,1,0,2,,,,,,,,6,,,71,82
66930,note_on,30,0,12,,,,,,,,15,,,53,0
66939,note_on,19,0,8,,,,,,,,5,,,52,0
66940,note_on,1,0,8,,,,,,,,5,,,50,82
66959,note_on,29,0,2,,,,,,,,6,,,71,0
66959,note_on,19,0,8,,,,,,,,5,,,50,0
66959,note_on,29,0,3,,,,,,,,0,,,59,0
66960,note_on,1,0,2,,,,,,,,6,,,67,85
66960,note_on,1,0,3,,,,,,,,0,,,55,80
66960,note_on,30,0,12,,,,,,,,15,,,52,82
66960,note_on,1,0,8,,,,,,,,5,,,48,89
66979,note_on,19,0,8,,,,,,,,5,,,48,0
66980,note_on,1,0,8,,,,,,,,5,,,55,85
66990,note_on,30,0,12,,,,,,,,15,,,52,0
66999,note_on,19,0,8,,,,,,,,5,,,55,0
67000,note_on,1,0,8,,,,,,,,5,,,53,87
67019,note_on,19,0,8,,,,,,,,5,,,53,0
67020,note_on,1,0,8,,,,,,,,5,,,52,87
67020,note_on,30,0,12,,,,,,,,15,,,48,85
67039,note_on,19,0,8,,,,,,,,5,,,52,0
67040,note_on,1,0,8,,,,,,,,5,,,50,85
67050,note_on,30,0,12,,,,,,,,15,,,48,0
67059,note_on,19,0,8,,,,,,,,5,,,50,0
67060,note_on,1,0,8,,,,,,,,5,,,48,82
67079,note_on,119,0,3,,,,,,,,0,,,55,0
67079,note_on,19,0,8,,,,,,,,5,,,48,0
67079,note_on,119,0,2,,,,,,,,6,,,67,0
67080,note_on,1,0,2,,,,,,,,6,,,77,82
67080,note_on,30,0,12,,,,,,,,15,,,50,85
67080,note_on,1,0,8,,,,,,,,5,,,47,74
67080,note_on,1,0,3,,,,,,,,0,,,65,87
67099,note_on,19,0,8,,,,,,,,5,,,47,0
67100,note_on,1,0,8,,,,,,,,5,,,45,78
67109,note_on,29,0,2,,,,,,,,6,,,77,0
67109,note_on,29,0,3,,,,,,,,0,,,65,0
67110,note_on,30,0,12,,,,,,,,15,,,50,0
67110,note_on,1,0,2,,,,,,,,6,,,79,85
67110,note_on,1,0,3,,,,,,,,0,,,67,85
67119,note_on,19,0,8,,,,,,,,5,,,45,0
67120,note_on,1,0,8,,,,,,,,5,,,43,82
67139,note_on,19,0,8,,,,,,,,5,,,43,0
67139,note_on,29,0,2,,,,,,,,6,,,79,0
67139,note_on,29,0,3,,,,,,,,0,,,67,0
67140,note_on,1,0,8,,,,,,,,5,,,41,85
67140,note_on,1,0,3,,,,,,,,0,,,69,80
67140,note_on,30,0,12,,,,,,,,15,,,47,85
67140,note_on,1,0,2,,,,,,,,6,,,81,78
67159,note_on,19,0,8,,,,,,,,5,,,41,0
67160,note_on,1,0,8,,,,,,,,5,,,40,85
67169,note_on,29,0,3,,,,,,,,0,,,69,0
67169,note_on,29,0,2,,,,,,,,6,,,81,0
67170,note_on,1,0,2,,,,,,,,6,,,77,85
67170,note_on,30,0,12,,,,,,,,15,,,47,0
67170,note_on,1,0,3,,,,,,,,0,,,65,80
67179,note_on,19,0,8,,,,,,,,5,,,40,0
67180,note_on,1,0,8,,,,,,,,5,,,38,85
67199,note_on,29,0,2,,,,,,,,6,,,77,0
67199,note_on,29,0,3,,,,,,,,0,,,65,0
67199,note_on,19,0,8,,,,,,,,5,,,38,0
67200,note_on,1,0,8,,,,,,,,5,,,36,85
67200,note_on,30,0,12,,,,,,,,15,,,48,87
67200,note_on,1,0,2,,,,,,,,6,,,76,82
67200,note_on,1,0,3,,,,,,,,0,,,64,82
67219,note_on,19,0,8,,,,,,,,5,,,36,0
67220,note_on,1,0,8,,,,,,,,5,,,40,85
67229,note_on,29,0,2,,,,,,,,6,,,76,0
67229,note_on,29,0,3,,,,,,,,0,,,64,0
67230,note_on,1,0,2,,,,,,,,6,,,77,76
67230,note_on,1,0,3,,,,,,,,0,,,65,87
67230,note_on,30,0,12,,,,,,,,15,,,48,0
67239,note_on,19,0,8,,,,,,,,5,,,40,0
67240,note_on,1,0,8,,,,,,,,5,,,43,89
67259,note_on,29,0,2,,,,,,,,6,,,77,0
67259,note_on,29,0,3,,,,,,,,0,,,65,0
67259,note_on,19,0,8,,,,,,,,5,,,43,0
67260,note_on,1,0,8,,,,,,,,5,,,48,82
67260,note_on,1,0,3,,,,,,,,0,,,67,85
67260,note_on,1,0,2,,,,,,,,6,,,79,74
67260,note_on,30,0,12,,,,,,,,15,,,52,85
67279,note_on,19,0,8,,,,,,,,5,,,48,0
67280,note_on,1,0,8,,,,,,,,5,,,47,80
67289,note_on,29,0,3,,,,,,,,0,,,67,0
67289,note_on,29,0,2,,,,,,,,6,,,79,0
67290,note_on,1,0,2,,,,,,,,6,,,76,78
67290,note_on,30,0,12,,,,,,,,15,,,52,0
67290,note_on,1,0,3,,,,,,,,0,,,64,82
67299,note_on,19,0,8,,,,,,,,5,,,47,0
67300,note_on,1,0,8,,,,,,,,5,,,48,82
67319,note_on,29,0,3,,,,,,,,0,,,64,0
67319,note_on,29,0,2,,,,,,,,6,,,76,0
67319,note_on,19,0,8,,,,,,,,5,,,48,0
67320,note_on,1,0,3,,,,,,,,0,,,62,80
67320,note_on,1,0,2,,,,,,,,6,,,74,72
67320,note_on,30,0,12,,,,,,,,15,,,53,82
67320,note_on,1,0,8,,,,,,,,5,,,41,85
67339,note_on,19,0,8,,,,,,,,5,,,41,0
67340,note_on,1,0,8,,,,,,,,5,,,45,82
67349,note_on,29,0,3,,,,,,,,0,,,62,0
67349,note_on,29,0,2,,,,,,,,6,,,74,0
67350,note_on,30,0,12,,,,,,,,15,,,53,0
67350,note_on,1,0,2,,,,,,,,6,,,76,82
67350,note_on,1,0,3,,,,,,,,0,,,64,80
67359,note_on,19,0,8,,,,,,,,5,,,45,0
67360,note_on,1,0,8,,,,,,,,5,,,50,82
67379,note_on,19,0,8,,,,,,,,5,,,50,0
67379,note_on,29,0,2,,,,,,,,6,,,76,0
67379,note_on,29,0,3,,,,,,,,0,,,64,0
67380,note_on,1,0,3,,,,,,,,0,,,65,85
67380,note_on,1,0,2,,,,,,,,6,,,77,78
67380,note_on,30,0,12,,,,,,,,15,,,50,82
67380,note_on,1,0,8,,,,,,,,5,,,53,87
67399,note_on,19,0,8,,,,,,,,5,,,53,0
67400,note_on,1,0,8,,,,,,,,5,,,52,85
67409,note_on,29,0,2,,,,,,,,6,,,77,0
67409,note_on,29,0,3,,,,,,,,0,,,65,0
67410,note_on,30,0,12,,,,,,,,15,,,50,0
67410,note_on,1,0,2,,,,,,,,6,,,74,82
67410,note_on,1,0,3,,,,,,,,0,,,62,80
67419,note_on,19,0,8,,,,,,,,5,,,52,0
67420,note_on,1,0,8,,,,,,,,5,,,53,85
67439,note_on,29,0,2,,,,,,,,6,,,74,0
67439,note_on,19,0,8,,,,,,,,5,,,53,0
67439,note_on,29,0,3,,,,,,,,0,,,62,0
67440,note_on,1,0,3,,,,,,,,0,,,60,85
67440,note_on,1,0,8,,,,,,,,5,,,43,85
67440,note_on,1,0,2,,,,,,,,6,,,72,74
67440,note_on,30,0,12,,,,,,,,15,,,55,82
67459,note_on,19,0,8,,,,,,,,5,,,43,0
67460,note_on,1,0,8,,,,,,,,5,,,47,85
67469,note_on,29,0,3,,,,,,,,0,,,60,0
67469,note_on,29,0,2,,,,,,,,6,,,72,0
67470,note_on,1,0,3,,,,,,,,0,,,59,82
67470,note_on,1,0,2,,,,,,,,6,,,71,82
67479,note_on,19,0,8,,,,,,,,5,,,47,0
67480,note_on,1,0,8,,,,,,,,5,,,50,85
67499,note_on,59,0,12,,,,,,,,15,,,55,0
67499,note_on,29,0,3,,,,,,,,0,,,59,0
67499,note_on,29,0,2,,,,,,,,6,,,71,0
67499,note_on,19,0,8,,,,,,,,5,,,50,0
67500,note_on,1,0,2,,,,,,,,6,,,69,82
67500,note_on,1,0,3,,,,,,,,0,,,57,85
67500,note_on,1,0,8,,,,,,,,5,,,55,89
67500,note_on,1,0,12,,,,,,,,15,,,55,89
67515,note_on,15,0,12,,,,,,,,15,,,55,0
67519,note_on,19,0,8,,,,,,,,5,,,55,0
67520,note_on,1,0,8,,,,,,,,5,,,54,76
67529,note_on,29,0,3,,,,,,,,0,,,57,0
67529,note_on,29,0,2,,,,,,,,6,,,69,0
67530,note_on,1,0,3,,,,,,,,0,,,55,82
67530,note_on,1,0,2,,,,,,,,6,,,67,85
67530,note_on,15,0,12,,,,,,,,15,,,57,85
67539,note_on,19,0,8,,,,,,,,5,,,54,0
67540,note_on,1,0,8,,,,,,,,5,,,55,85
67545,note_on,15,0,12,,,,,,,,15,,,57,0
67559,note_on,29,0,2,,,,,,,,6,,,67,0
67559,note_on,29,0,3,,,,,,,,0,,,55,0
67559,note_on,19,0,8,,,,,,,,5,,,55,0
67560,note_on,1,0,2,,,,,,,,6,,,77,85
67560,note_on,721,0,7,,,,,,,,5,,,55,82
67560,note_on,4801,0,1,,,,,,,,3,,,89,87
67560,note_on,15,0,12,,,,,,,,15,,,59,85
67560,note_on,1,0,3,,,,,,,,0,,,65,85
67560,note_on,1,0,8,,,,,,,,5,,,43,91
67575,note_on,15,0,12,,,,,,,,15,,,59,0
67579,note_on,19,0,7,,,,,,,,5,,,55,0
67580,note_on,1,0,7,,,,,,,,5,,,59,82
67590,note_on,15,0,12,,,,,,,,15,,,60,80
67590,note_on,30,0,2,,,,,,,,6,,,77,0
67590,note_on,30,0,1,,,,,,,,3,,,89,0
67590,note_on,30,0,3,,,,,,,,0,,,65,0
67599,note_on,19,0,7,,,,,,,,5,,,59,0
67600,note_on,1,0,7,,,,,,,,5,,,62,82
67605,note_on,15,0,12,,,,,,,,15,,,60,0
67619,note_on,19,0,7,,,,,,,,5,,,62,0
67620,note_on,1,0,7,,,,,,,,5,,,67,80
67620,note_on,30,0,1,,,,,,,,3,,,89,82
67620,note_on,30,0,3,,,,,,,,0,,,65,85
67620,note_on,15,0,12,,,,,,,,15,,,62,85
67620,note_on,30,0,2,,,,,,,,6,,,77,89
67635,note_on,15,0,12,,,,,,,,15,,,62,0
67639,note_on,19,0,7,,,,,,,,5,,,67,0
67640,note_on,1,0,7,,,,,,,,5,,,71,87
67650,note_on,30,0,3,,,,,,,,0,,,65,0
67650,note_on,30,0,2,,,,,,,,6,,,77,0
67650,note_on,30,0,1,,,,,,,,3,,,89,0
67650,note_on,15,0,12,,,,,,,,15,,,59,80
67659,note_on,19,0,7,,,,,,,,5,,,71,0
67660,note_on,1,0,7,,,,,,,,5,,,74,85
67665,note_on,15,0,12,,,,,,,,15,,,59,0
67679,note_on,19,0,7,,,,,,,,5,,,74,0
67679,note_on,119,0,8,,,,,,,,5,,,43,0
67680,note_on,30,0,1,,,,,,,,3,,,89,87
67680,note_on,1,0,7,,,,,,,,5,,,55,85
67680,note_on,30,0,2,,,,,,,,6,,,77,80
67680,note_on,15,0,12,,,,,,,,15,,,60,82
67680,note_on,30,0,3,,,,,,,,0,,,65,74
67699,note_on,19,0,7,,,,,,,,5,,,55,0
67700,note_on,1,0,7,,,,,,,,5,,,60,85
67709,note_on,29,0,2,,,,,,,,6,,,77,0
67709,note_on,29,0,3,,,,,,,,0,,,65,0
67709,note_on,29,0,1,,,,,,,,3,,,89,0
67710,note_on,30,0,12,,,,,,,,15,,,60,0
67710,note_on,1,0,3,,,,,,,,0,,,64,80
67710,note_on,1,0,2,,,,,,,,6,,,76,85
67710,note_on,1,0,1,,,,,,,,3,,,88,85
67719,note_on,19,0,7,,,,,,,,5,,,60,0
67720,note_on,1,0,7,,,,,,,,5,,,64,85
67739,note_on,29,0,3,,,,,,,,0,,,64,0
67739,note_on,19,0,7,,,,,,,,5,,,64,0
67739,note_on,29,0,2,,,,,,,,6,,,76,0
67739,note_on,29,0,1,,,,,,,,3,,,88,0
67740,note_on,1,0,3,,,,,,,,0,,,62,85
67740,note_on,1,0,2,,,,,,,,6,,,74,82
67740,note_on,1,0,7,,,,,,,,5,,,67,85
67740,note_on,1,0,1,,,,,,,,3,,,86,82
67740,note_on,30,0,12,,,,,,,,15,,,52,89
67759,note_on,19,0,7,,,,,,,,5,,,67,0
67760,note_on,1,0,7,,,,,,,,5,,,72,85
67769,note_on,29,0,1,,,,,,,,3,,,86,0
67769,note_on,29,0,2,,,,,,,,6,,,74,0
67769,note_on,29,0,3,,,,,,,,0,,,62,0
67770,note_on,1,0,2,,,,,,,,6,,,72,72
67770,note_on,30,0,12,,,,,,,,15,,,52,0
67770,note_on,1,0,1,,,,,,,,3,,,84,85
67770,note_on,1,0,3,,,,,,,,0,,,60,82
67779,note_on,19,0,7,,,,,,,,5,,,72,0
67780,note_on,1,0,7,,,,,,,,5,,,76,87
67799,note_on,19,0,7,,,,,,,,5,,,76,0
67799,note_on,29,0,1,,,,,,,,3,,,84,0
67799,note_on,29,0,2,,,,,,,,6,,,72,0
67799,note_on,29,0,3,,,,,,,,0,,,60,0
67800,note_on,1,0,7,,,,,,,,5,,,59,85
67800,note_on,1,0,2,,,,,,,,6,,,71,85
67800,note_on,30,0,12,,,,,,,,15,,,55,85
67800,note_on,1,0,3,,,,,,,,0,,,59,82
67800,note_on,1,0,1,,,,,,,,3,,,83,68
67819,note_on,19,0,7,,,,,,,,5,,,59,0
67820,note_on,1,0,7,,,,,,,,5,,,62,87
67829,note_on,29,0,3,,,,,,,,0,,,59,0
67829,note_on,29,0,1,,,,,,,,3,,,83,0
67829,note_on,29,0,2,,,,,,,,6,,,71,0
67830,note_on,30,0,12,,,,,,,,15,,,55,0
67830,note_on,1,0,1,,,,,,,,3,,,84,82
67830,note_on,1,0,3,,,,,,,,0,,,60,82
67830,note_on,1,0,2,,,,,,,,6,,,72,80
67839,note_on,19,0,7,,,,,,,,5,,,62,0
67840,note_on,1,0,7,,,,,,,,5,,,65,82
67859,note_on,19,0,7,,,,,,,,5,,,65,0
67859,note_on,29,0,2,,,,,,,,6,,,72,0
67859,note_on,29,0,3,,,,,,,,0,,,60,0
67859,note_on,29,0,1,,,,,,,,3,,,84,0
67860,note_on,1,0,7,,,,,,,,5,,,71,80
67860,note_on,1,0,1,,,,,,,,3,,,86,85
67860,note_on,30,0,12,,,,,,,,15,,,53,74
67860,note_on,1,0,3,,,,,,,,0,,,62,82
67860,note_on,1,0,2,,,,,,,,6,,,74,85
67879,note_on,19,0,7,,,,,,,,5,,,71,0
67880,note_on,1,0,7,,,,,,,,5,,,74,82
67889,note_on,29,0,1,,,,,,,,3,,,86,0
67889,note_on,29,0,3,,,,,,,,0,,,62,0
67889,note_on,29,0,2,,,,,,,,6,,,74,0
67890,note_on,1,0,1,,,,,,,,3,,,83,82
67890,note_on,30,0,12,,,,,,,,15,,,53,0
67890,note_on,1,0,2,,,,,,,,6,,,71,87
67890,note_on,1,0,3,,,,,,,,0,,,59,85
67899,note_on,19,0,7,,,,,,,,5,,,74,0
67900,note_on,1,0,7,,,,,,,,5,,,77,89
67919,note_on,29,0,1,,,,,,,,3,,,83,0
67919,note_on,19,0,7,,,,,,,,5,,,77,0
67919,note_on,29,0,3,,,,,,,,0,,,59,0
67919,note_on,29,0,2,,,,,,,,6,,,71,0
67920,note_on,1,0,1,,,,,,,,3,,,91,89
67920,note_on,1,0,7,,,,,,,,5,,,60,82
67920,note_on,30,0,12,,,,,,,,15,,,52,87
67920,note_on,1,0,3,,,,,,,,0,,,55,82
67920,note_on,0,0,3,,,,,,,,0,,,67,87
67920,note_on,1,0,2,,,,,,,,6,,,79,85
67939,note_on,19,0,7,,,,,,,,5,,,60,0
67940,note_on,1,0,7,,,,,,,,5,,,64,85
67950,note_on,30,0,12,,,,,,,,15,,,52,0
67959,note_on,19,0,7,,,,,,,,5,,,64,0
67960,note_on,1,0,7,,,,,,,,5,,,67,85
67979,note_on,19,0,7,,,,,,,,5,,,67,0
67979,note_on,1439,0,9,,,,,,,,12,,,79,0
67979,note_on,1439,0,10,,,,,,,,13,,,67,0
67979,note_on,1439,0,11,,,,,,,,14,,,55,0
67980,note_on,1,0,7,,,,,,,,5,,,72,76
67980,note_on,1,0,10,,,,,,,,13,,,67,64
67980,note_on,1,0,11,,,,,,,,14,,,60,70
67980,note_on,1,0,9,,,,,,,,12,,,76,55
67980,note_on,30,0,12,,,,,,,,15,,,48,82
67999,note_on,19,0,7,,,,,,,,5,,,72,0
68000,note_on,1,0,7,,,,,,,,5,,,76,68
68010,note_on,30,0,10,,,,,,,,13,,,67,0
68010,note_on,30,0,9,,,,,,,,12,,,76,0
68010,note_on,30,0,12,,,,,,,,15,,,48,0
68010,note_on,30,0,11,,,,,,,,14,,,60,0
68019,note_on,19,0,7,,,,,,,,5,,,76,0
68020,note_on,1,0,7,,,,,,,,5,,,79,85
68039,note_on,19,0,7,,,,,,,,5,,,79,0
68039,note_on,119,0,1,,,,,,,,3,,,91,0
68039,note_on,119,0,3,,,,,,,,0,,,67,0
68039,note_on,119,0,2,,,,,,,,6,,,79,0
68039,note_on,0,0,3,,,,,,,,0,,,55,0
68040,note_on,30,0,12,,,,,,,,15,,,45,82
68040,note_on,1,0,7,,,,,,,,5,,,65,85
68040,note_on,1,0,2,,,,,,,,6,,,77,82
68040,note_on,361,0,8,,,,,,,,5,,,45,85
68040,note_on,1,0,1,,,,,,,,3,,,89,89
68040,note_on,0,0,3,,,,,,,,0,,,53,85
68040,note_on,1,0,3,,,,,,,,0,,,65,85
68059,note_on,19,0,7,,,,,,,,5,,,65,0
68060,note_on,1,0,7,,,,,,,,5,,,77,85
68069,note_on,29,0,2,,,,,,,,6,,,77,0
68069,note_on,29,0,3,,,,,,,,0,,,53,0
68069,note_on,0,0,3,,,,,,,,0,,,65,0
68070,note_on,30,0,12,,,,,,,,15,,,45,0
68070,note_on,1,0,2,,,,,,,,6,,,79,82
68070,note_on,1,0,3,,,,,,,,0,,,55,70
68070,note_on,0,0,3,,,,,,,,0,,,67,76
68079,note_on,19,0,7,,,,,,,,5,,,77,0
68080,note_on,1,0,7,,,,,,,,5,,,76,82
68099,note_on,29,0,2,,,,,,,,6,,,79,0
68099,note_on,59,0,8,,,,,,,,5,,,45,0
68099,note_on,0,0,3,,,,,,,,0,,,55,0
68099,note_on,29,0,3,,,,,,,,0,,,67,0
68099,note_on,19,0,7,,,,,,,,5,,,76,0
68100,note_on,1,0,7,,,,,,,,5,,,65,76
68100,note_on,1,0,8,,,,,,,,5,,,47,85
68100,note_on,90,0,9,,,,,,,,12,,,74,55
68100,note_on,1,0,3,,,,,,,,0,,,69,82
68100,note_on,90,0,10,,,,,,,,13,,,65,60
68100,note_on,30,0,12,,,,,,,,15,,,47,85
68100,note_on,90,0,11,,,,,,,,14,,,55,72
68100,note_on,0,0,3,,,,,,,,0,,,57,72
68100,note_on,1,0,2,,,,,,,,6,,,81,78
68119,note_on,19,0,7,,,,,,,,5,,,65,0
68120,note_on,1,0,7,,,,,,,,5,,,77,87
68129,note_on,29,0,2,,,,,,,,6,,,81,0
68129,note_on,0,0,3,,,,,,,,0,,,69,0
68129,note_on,29,0,3,,,,,,,,0,,,57,0
68130,note_on,0,0,3,,,,,,,,0,,,53,70
68130,note_on,1,0,2,,,,,,,,6,,,77,82
68130,note_on,30,0,12,,,,,,,,15,,,47,0
68130,note_on,1,0,3,,,,,,,,0,,,65,78
68139,note_on,19,0,7,,,,,,,,5,,,77,0
68140,note_on,1,0,7,,,,,,,,5,,,74,87
68159,note_on,0,0,3,,,,,,,,0,,,65,0
68159,note_on,59,0,8,,,,,,,,5,,,47,0
68159,note_on,19,0,7,,,,,,,,5,,,74,0
68159,note_on,29,0,3,,,,,,,,0,,,53,0
68159,note_on,119,0,1,,,,,,,,3,,,89,0
68159,note_on,29,0,2,,,,,,,,6,,,77,0
68160,note_on,1,0,8,,,,,,,,5,,,48,85
68160,note_on,1,0,3,,,,,,,,0,,,52,72
68160,note_on,0,0,3,,,,,,,,0,,,64,80
68160,note_on,60,0,9,,,,,,,,12,,,74,0
68160,note_on,1,0,2,,,,,,,,6,,,76,78
68160,note_on,60,0,11,,,,,,,,14,,,55,0
68160,note_on,30,0,12,,,,,,,,15,,,48,82
68160,note_on,1,0,7,,,,,,,,5,,,64,76
68160,note_on,1,0,1,,,,,,,,3,,,88,87
68160,note_on,60,0,10,,,,,,,,13,,,65,0
68179,note_on,19,0,7,,,,,,,,5,,,64,0
68180,note_on,1,0,7,,,,,,,,5,,,76,85
68189,note_on,0,0,3,,,,,,,,0,,,52,0
68189,note_on,29,0,3,,,,,,,,0,,,64,0
68189,note_on,29,0,1,,,,,,,,3,,,88,0
68189,note_on,29,0,2,,,,,,,,6,,,76,0
68190,note_on,0,0,3,,,,,,,,0,,,65,66
68190,note_on,1,0,3,,,,,,,,0,,,53,70
68190,note_on,30,0,12,,,,,,,,15,,,48,0
68190,note_on,1,0,1,,,,,,,,3,,,89,87
68190,note_on,1,0,2,,,,,,,,6,,,77,78
68199,note_on,19,0,7,,,,,,,,5,,,76,0
68200,note_on,1,0,7,,,,,,,,5,,,74,74
68219,note_on,29,0,3,,,,,,,,0,,,65,0
68219,note_on,29,0,1,,,,,,,,3,,,89,0
68219,note_on,19,0,7,,,,,,,,5,,,74,0
68219,note_on,29,0,2,,,,,,,,6,,,77,0
68219,note_on,0,0,3,,,,,,,,0,,,53,0
68219,note_on,59,0,8,,,,,,,,5,,,48,0
68220,note_on,1,0,8,,,,,,,,5,,,57,80
68220,note_on,60,0,10,,,,,,,,13,,,64,66
68220,note_on,1,0,1,,,,,,,,3,,,91,80
68220,note_on,0,0,3,,,,,,,,0,,,67,82
68220,note_on,30,0,12,,,,,,,,15,,,57,82
68220,note_on,60,0,11,,,,,,,,14,,,57,64
68220,note_on,60,0,9,,,,,,,,12,,,72,55
68220,note_on,1,0,7,,,,,,,,5,,,64,82
68220,note_on,1,0,2,,,,,,,,6,,,79,78
68220,note_on,1,0,3,,,,,,,,0,,,55,76
68239,note_on,19,0,7,,,,,,,,5,,,64,0
68240,note_on,1,0,7,,,,,,,,5,,,76,87
68249,note_on,0,0,3,,,,,,,,0,,,55,0
68249,note_on,29,0,3,,,,,,,,0,,,67,0
68249,note_on,29,0,2,,,,,,,,6,,,79,0
68249,note_on,29,0,1,,,,,,,,3,,,91,0
68250,note_on,1,0,1,,,,,,,,3,,,88,82
68250,note_on,0,0,3,,,,,,,,0,,,52,70
68250,note_on,1,0,2,,,,,,,,6,,,76,70
68250,note_on,1,0,3,,,,,,,,0,,,64,61
68250,note_on,30,0,12,,,,,,,,15,,,57,0
68259,note_on,19,0,7,,,,,,,,5,,,76,0
68260,note_on,1,0,7,,,,,,,,5,,,72,80
68279,note_on,29,0,3,,,,,,,,0,,,52,0
68279,note_on,0,0,3,,,,,,,,0,,,64,0
68279,note_on,19,0,7,,,,,,,,5,,,72,0
68279,note_on,29,0,1,,,,,,,,3,,,88,0
68279,note_on,29,0,2,,,,,,,,6,,,76,0
68279,note_on,59,0,8,,,,,,,,5,,,57,0
68280,note_on,60,0,9,,,,,,,,12,,,72,0
68280,note_on,1,0,1,,,,,,,,3,,,86,80
68280,note_on,30,0,12,,,,,,,,15,,,53,87
68280,note_on,60,0,10,,,,,,,,13,,,64,0
68280,note_on,1,0,2,,,,,,,,6,,,74,76
68280,note_on,60,0,11,,,,,,,,14,,,57,0
68280,note_on,1,0,7,,,,,,,,5,,,62,85
68280,note_on,0,0,3,,,,,,,,0,,,50,61
68280,note_on,1,0,3,,,,,,,,0,,,62,74
68280,note_on,1,0,8,,,,,,,,5,,,53,85
68299,note_on,19,0,7,,,,,,,,5,,,62,0
68300,note_on,1,0,7,,,,,,,,5,,,74,82
68309,note_on,29,0,2,,,,,,,,6,,,74,0
68309,note_on,29,0,1,,,,,,,,3,,,86,0
68309,note_on,29,0,3,,,,,,,,0,,,50,0
68309,note_on,0,0,3,,,,,,,,0,,,62,0
68310,note_on,1,0,2,,,,,,,,6,,,76,80
68310,note_on,1,0,1,,,,,,,,3,,,88,82
68310,note_on,30,0,12,,,,,,,,15,,,53,0
68310,note_on,1,0,3,,,,,,,,0,,,64,85
68310,note_on,0,0,3,,,,,,,,0,,,52,72
68319,note_on,19,0,7,,,,,,,,5,,,74,0
68320,note_on,1,0,7,,,,,,,,5,,,72,80
68339,note_on,29,0,2,,,,,,,,6,,,76,0
68339,note_on,29,0,3,,,,,,,,0,,,52,0
68339,note_on,29,0,1,,,,,,,,3,,,88,0
68339,note_on,59,0,8,,,,,,,,5,,,53,0
68339,note_on,0,0,3,,,,,,,,0,,,64,0
68339,note_on,19,0,7,,,,,,,,5,,,72,0
68340,note_on,0,0,3,,,,,,,,0,,,53,68
68340,note_on,60,0,11,,,,,,,,14,,,53,68
68340,note_on,60,0,10,,,,,,,,13,,,62,61
68340,note_on,60,0,9,,,,,,,,12,,,71,55
68340,note_on,1,0,3,,,,,,,,0,,,65,80
68340,note_on,1,0,7,,,,,,,,5,,,62,76
68340,note_on,30,0,12,,,,,,,,15,,,55,85
68340,note_on,1,0,2,,,,,,,,6,,,77,80
68340,note_on,1,0,8,,,,,,,,5,,,55,82
68340,note_on,1,0,1,,,,,,,,3,,,89,82
68359,note_on,19,0,7,,,,,,,,5,,,62,0
68360,note_on,1,0,7,,,,,,,,5,,,74,82
68369,note_on,29,0,1,,,,,,,,3,,,89,0
68369,note_on,29,0,2,,,,,,,,6,,,77,0
68369,note_on,29,0,3,,,,,,,,0,,,53,0
68369,note_on,0,0,3,,,,,,,,0,,,65,0
68370,note_on,30,0,12,,,,,,,,15,,,55,0
68370,note_on,1,0,2,,,,,,,,6,,,74,87
68370,note_on,1,0,3,,,,,,,,0,,,50,74
68370,note_on,0,0,3,,,,,,,,0,,,62,85
68370,note_on,1,0,1,,,,,,,,3,,,86,82
68379,note_on,19,0,7,,,,,,,,5,,,74,0
68380,note_on,1,0,7,,,,,,,,5,,,71,85
68399,note_on,0,0,3,,,,,,,,0,,,50,0
68399,note_on,19,0,7,,,,,,,,5,,,71,0
68399,note_on,29,0,2,,,,,,,,6,,,74,0
68399,note_on,59,0,8,,,,,,,,5,,,55,0
68399,note_on,29,0,1,,,,,,,,3,,,86,0
68399,note_on,29,0,3,,,,,,,,0,,,62,0
68400,note_on,1,0,7,,,,,,,,5,,,60,80
68400,note_on,1,0,1,,,,,,,,3,,,84,82
68400,note_on,30,0,12,,,,,,,,15,,,48,80
68400,note_on,60,0,9,,,,,,,,12,,,71,0
68400,note_on,0,0,9,,,,,,,,12,,,72,78
68400,note_on,0,0,10,,,,,,,,13,,,60,80
68400,note_on,1,0,2,,,,,,,,6,,,72,85
68400,note_on,1,0,3,,,,,,,,0,,,48,87
68400,note_on,60,0,10,,,,,,,,13,,,62,0
68400,note_on,0,0,11,,,,,,,,14,,,52,85
68400,note_on,60,0,11,,,,,,,,14,,,53,0
68400,note_on,1,0,8,,,,,,,,5,,,48,100
68400,note_on,0,0,3,,,,,,,,0,,,60,87
68419,note_on,19,0,7,,,,,,,,5,,,60,0
68420,note_on,1,0,7,,,,,,,,5,,,64,85
68439,note_on,19,0,7,,,,,,,,5,,,64,0
68440,note_on,1,0,7,,,,,,,,5,,,67,85
68459,note_on,59,0,9,,,,,,,,12,,,72,0
68459,note_on,19,0,7,,,,,,,,5,,,67,0
68459,note_on,59,0,10,,,,,,,,13,,,60,0
68459,note_on,59,0,11,,,,,,,,14,,,52,0
68459,note_on,59,0,12,,,,,,,,15,,,48,0
68459,note_on,59,0,8,,,,,,,,5,,,48,0
68460,note_on,1,0,10,,,,,,,,13,,,76,85
68460,note_on,1,0,7,,,,,,,,5,,,72,74
68460,note_on,1,0,9,,,,,,,,12,,,79,70
68460,note_on,1,0,11,,,,,,,,14,,,72,64
68479,note_on,19,0,7,,,,,,,,5,,,72,0
68480,note_on,1,0,7,,,,,,,,5,,,76,82
68499,note_on,19,0,7,,,,,,,,5,,,76,0
68500,note_on,1,0,7,,,,,,,,5,,,79,72
68519,note_on,119,0,1,,,,,,,,3,,,84,0
68519,note_on,119,0,3,,,,,,,,0,,,60,0
68519,note_on,0,0,3,,,,,,,,0,,,48,0
68519,note_on,19,0,7,,,,,,,,5,,,79,0
68519,note_on,119,0,2,,,,,,,,6,,,72,0
68519,note_on,59,0,9,,,,,,,,12,,,79,0
68520,note_on,61,0,8,,,,,,,,5,,,57,82
68520,note_on,1,0,7,,,,,,,,5,,,77,82
68520,note_on,1,0,9,,,,,,,,12,,,77,70
68520,note_on,61,0,12,,,,,,,,15,,,69,82
68539,note_on,19,0,7,,,,,,,,5,,,77,0
68539,note_on,19,0,8,,,,,,,,5,,,57,0
68540,note_on,1,0,8,,,,,,,,5,,,60,82
68540,note_on,1,0,7,,,,,,,,5,,,89,80
68559,note_on,19,0,8,,,,,,,,5,,,60,0
68559,note_on,19,0,7,,,,,,,,5,,,89,0
68560,note_on,1,0,8,,,,,,,,5,,,69,68
68560,note_on,1,0,7,,,,,,,,5,,,88,87
68579,note_on,119,0,10,,,,,,,,13,,,76,0
68579,note_on,59,0,12,,,,,,,,15,,,69,0
68579,note_on,19,0,7,,,,,,,,5,,,88,0
68579,note_on,119,0,11,,,,,,,,14,,,72,0
68579,note_on,19,0,8,,,,,,,,5,,,69,0
68580,note_on,1,0,10,,,,,,,,13,,,74,85
68580,note_on,1,0,12,,,,,,,,15,,,71,78
68580,note_on,1,0,11,,,,,,,,14,,,71,72
68580,note_on,1,0,8,,,,,,,,5,,,59,82
68580,note_on,1,0,7,,,,,,,,5,,,77,82
68599,note_on,19,0,7,,,,,,,,5,,,77,0
68599,note_on,19,0,8,,,,,,,,5,,,59,0
68600,note_on,1,0,8,,,,,,,,5,,,62,87
68600,note_on,1,0,7,,,,,,,,5,,,89,87
68619,note_on,19,0,7,,,,,,,,5,,,89,0
68619,note_on,19,0,8,,,,,,,,5,,,62,0
68620,note_on,1,0,7,,,,,,,,5,,,86,89
68620,note_on,1,0,8,,,,,,,,5,,,71,82
68639,note_on,19,0,7,,,,,,,,5,,,86,0
68639,note_on,59,0,12,,,,,,,,15,,,71,0
68639,note_on,19,0,8,,,,,,,,5,,,71,0
68639,note_on,119,0,9,,,,,,,,12,,,77,0
68640,note_on,1,0,8,,,,,,,,5,,,55,82
68640,note_on,1,0,9,,,,,,,,12,,,76,70
68640,note_on,1,0,7,,,,,,,,5,,,76,80
68640,note_on,1,0,12,,,,,,,,15,,,67,78
68659,note_on,19,0,8,,,,,,,,5,,,55,0
68659,note_on,19,0,7,,,,,,,,5,,,76,0
68660,note_on,1,0,8,,,,,,,,5,,,59,85
68660,note_on,1,0,7,,,,,,,,5,,,88,80
68679,note_on,19,0,8,,,,,,,,5,,,59,0
68679,note_on,19,0,7,,,,,,,,5,,,88,0
68680,note_on,1,0,8,,,,,,,,5,,,67,68
68680,note_on,1,0,7,,,,,,,,5,,,86,82
68699,note_on,19,0,7,,,,,,,,5,,,86,0
68699,note_on,59,0,12,,,,,,,,15,,,67,0
68699,note_on,19,0,8,,,,,,,,5,,,67,0
68699,note_on,119,0,10,,,,,,,,13,,,74,0
68699,note_on,119,0,11,,,,,,,,14,,,71,0
68700,note_on,1,0,12,,,,,,,,15,,,69,78
68700,note_on,1,0,10,,,,,,,,13,,,72,68
68700,note_on,1,0,11,,,,,,,,14,,,69,72
68700,note_on,1,0,7,,,,,,,,5,,,76,82
68700,note_on,1,0,8,,,,,,,,5,,,57,80
68719,note_on,19,0,8,,,,,,,,5,,,57,0
68719,note_on,19,0,7,,,,,,,,5,,,76,0
68720,note_on,1,0,8,,,,,,,,5,,,60,80
68720,note_on,1,0,7,,,,,,,,5,,,88,85
68739,note_on,19,0,8,,,,,,,,5,,,60,0
68739,note_on,19,0,7,,,,,,,,5,,,88,0
68740,note_on,1,0,8,,,,,,,,5,,,69,76
68740,note_on,1,0,7,,,,,,,,5,,,84,82
68759,note_on,59,0,12,,,,,,,,15,,,69,0
68759,note_on,119,0,9,,,,,,,,12,,,76,0
68759,note_on,19,0,8,,,,,,,,5,,,69,0
68759,note_on,19,0,7,,,,,,,,5,,,84,0
68760,note_on,1,0,7,,,,,,,,5,,,74,82
68760,note_on,1,0,9,,,,,,,,12,,,74,60
68760,note_on,1,0,12,,,,,,,,15,,,65,76
68760,note_on,1,0,8,,,,,,,,5,,,53,82
68779,note_on,19,0,8,,,,,,,,5,,,53,0
68779,note_on,19,0,7,,,,,,,,5,,,74,0
68780,note_on,1,0,7,,,,,,,,5,,,86,87
68780,note_on,1,0,8,,,,,,,,5,,,57,82
68799,note_on,19,0,7,,,,,,,,5,,,86,0
68799,note_on,19,0,8,,,,,,,,5,,,57,0
68800,note_on,1,0,8,,,,,,,,5,,,65,80
68800,note_on,1,0,7,,,,,,,,5,,,84,87
68819,note_on,59,0,12,,,,,,,,15,,,65,0
68819,note_on,119,0,10,,,,,,,,13,,,72,0
68819,note_on,19,0,8,,,,,,,,5,,,65,0
68819,note_on,19,0,7,,,,,,,,5,,,84,0
68819,note_on,119,0,11,,,,,,,,14,,,69,0
68820,note_on,1,0,11,,,,,,,,14,,,67,68
68820,note_on,1,0,7,,,,,,,,5,,,74,78
68820,note_on,1,0,12,,,,,,,,15,,,67,68
68820,note_on,1,0,10,,,,,,,,13,,,71,76
68820,note_on,1,0,8,,,,,,,,5,,,55,80
68839,note_on,19,0,7,,,,,,,,5,,,74,0
68839,note_on,19,0,8,,,,,,,,5,,,55,0
68840,note_on,1,0,7,,,,,,,,5,,,86,87
68840,note_on,1,0,8,,,,,,,,5,,,59,82
68859,note_on,19,0,7,,,,,,,,5,,,86,0
68859,note_on,19,0,8,,,,,,,,5,,,59,0
68860,note_on,1,0,8,,,,,,,,5,,,67,80
68860,note_on,1,0,7,,,,,,,,5,,,83,82
68879,note_on,19,0,8,,,,,,,,5,,,67,0
68879,note_on,59,0,12,,,,,,,,15,,,67,0
68879,note_on,19,0,7,,,,,,,,5,,,83,0
68879,note_on,119,0,9,,,,,,,,12,,,74,0
68880,note_on,1,0,7,,,,,,,,5,,,72,76
68880,note_on,1,0,12,,,,,,,,15,,,64,82
68880,note_on,1,0,8,,,,,,,,5,,,52,85
68880,note_on,1,0,9,,,,,,,,12,,,72,66
68899,note_on,19,0,8,,,,,,,,5,,,52,0
68899,note_on,19,0,7,,,,,,,,5,,,72,0
68900,note_on,1,0,8,,,,,,,,5,,,55,82
68900,note_on,1,0,7,,,,,,,,5,,,84,82
68919,note_on,19,0,7,,,,,,,,5,,,84,0
68919,note_on,19,0,8,,,,,,,,5,,,55,0
68920,note_on,1,0,8,,,,,,,,5,,,64,68
68920,note_on,1,0,7,,,,,,,,5,,,83,80
68939,note_on,119,0,11,,,,,,,,14,,,67,0
68939,note_on,59,0,12,,,,,,,,15,,,64,0
68939,note_on,119,0,10,,,,,,,,13,,,71,0
68939,note_on,19,0,8,,,,,,,,5,,,64,0
68939,note_on,19,0,7,,,,,,,,5,,,83,0
68940,note_on,1,0,12,,,,,,,,15,,,65,72
68940,note_on,1,0,10,,,,,,,,13,,,69,70
68940,note_on,1,0,7,,,,,,,,5,,,72,78
68940,note_on,1,0,11,,,,,,,,14,,,65,72
68940,note_on,1,0,8,,,,,,,,5,,,53,85
68959,note_on,19,0,8,,,,,,,,5,,,53,0
68959,note_on,19,0,7,,,,,,,,5,,,72,0
68960,note_on,1,0,7,,,,,,,,5,,,84,82
68960,note_on,1,0,8,,,,,,,,5,,,57,85
68979,note_on,19,0,7,,,,,,,,5,,,84,0
68979,note_on,19,0,8,,,,,,,,5,,,57,0
68980,note_on,1,0,7,,,,,,,,5,,,81,82
68980,note_on,1,0,8,,,,,,,,5,,,65,80
68999,note_on,59,0,12,,,,,,,,15,,,65,0
68999,note_on,19,0,7,,,,,,,,5,,,81,0
68999,note_on,119,0,9,,,,,,,,12,,,72,0
68999,note_on,19,0,8,,,,,,,,5,,,65,0
69000,note_on,1,0,9,,,,,,,,12,,,71,68
69000,note_on,1,0,12,,,,,,,,15,,,62,74
69000,note_on,1,0,7,,,,,,,,5,,,71,78
69000,note_on,1,0,8,,,,,,,,5,,,50,82
69019,note_on,19,0,7,,,,,,,,5,,,71,0
69019,note_on,19,0,8,,,,,,,,5,,,50,0
69020,note_on,1,0,7,,,,,,,,5,,,83,76
69020,note_on,1,0,8,,,,,,,,5,,,53,87
69039,note_on,19,0,7,,,,,,,,5,,,83,0
69039,note_on,19,0,8,,,,,,,,5,,,53,0
69040,note_on,1,0,7,,,,,,,,5,,,81,82
69040,note_on,1,0,8,,,,,,,,5,,,62,74
69059,note_on,59,0,12,,,,,,,,15,,,62,0
69059,note_on,19,0,7,,,,,,,,5,,,81,0
69059,note_on,119,0,10,,,,,,,,13,,,69,0
69059,note_on,119,0,11,,,,,,,,14,,,65,0
69059,note_on,19,0,8,,,,,,,,5,,,62,0
69060,note_on,1,0,7,,,,,,,,5,,,71,76
69060,note_on,1,0,12,,,,,,,,15,,,64,82
69060,note_on,1,0,11,,,,,,,,14,,,64,72
69060,note_on,1,0,8,,,,,,,,5,,,52,85
69060,note_on,1,0,10,,,,,,,,13,,,67,70
69079,note_on,19,0,7,,,,,,,,5,,,71,0
69079,note_on,19,0,8,,,,,,,,5,,,52,0
69080,note_on,1,0,8,,,,,,,,5,,,55,82
69080,note_on,1,0,7,,,,,,,,5,,,83,85
69099,note_on,19,0,8,,,,,,,,5,,,55,0
69099,note_on,19,0,7,,,,,,,,5,,,83,0
69100,note_on,1,0,8,,,,,,,,5,,,64,72
69100,note_on,1,0,7,,,,,,,,5,,,79,80
69119,note_on,59,0,12,,,,,,,,15,,,64,0
69119,note_on,119,0,9,,,,,,,,12,,,71,0
69119,note_on,19,0,8,,,,,,,,5,,,64,0
69119,note_on,19,0,7,,,,,,,,5,,,79,0
69120,note_on,1,0,12,,,,,,,,15,,,60,78
69120,note_on,1,0,9,,,,,,,,12,,,69,68
69120,note_on,1,0,8,,,,,,,,5,,,48,80
69120,note_on,1,0,7,,,,,,,,5,,,69,78
69139,note_on,19,0,7,,,,,,,,5,,,69,0
69139,note_on,19,0,8,,,,,,,,5,,,48,0
69140,note_on,1,0,7,,,,,,,,5,,,81,85
69140,note_on,1,0,8,,,,,,,,5,,,52,85
69159,note_on,19,0,8,,,,,,,,5,,,52,0
69159,note_on,19,0,7,,,,,,,,5,,,81,0
69160,note_on,1,0,7,,,,,,,,5,,,79,74
69160,note_on,1,0,8,,,,,,,,5,,,60,85
69179,note_on,59,0,12,,,,,,,,15,,,60,0
69179,note_on,19,0,7,,,,,,,,5,,,79,0
69179,note_on,19,0,8,,,,,,,,5,,,60,0
69179,note_on,119,0,10,,,,,,,,13,,,67,0
69179,note_on,119,0,11,,,,,,,,14,,,64,0
69180,note_on,1,0,8,,,,,,,,5,,,50,80
69180,note_on,1,0,12,,,,,,,,15,,,62,76
69180,note_on,1,0,11,,,,,,,,14,,,62,72
69180,note_on,1,0,7,,,,,,,,5,,,69,82
69180,note_on,1,0,10,,,,,,,,13,,,65,68
69199,note_on,19,0,7,,,,,,,,5,,,69,0
69199,note_on,19,0,8,,,,,,,,5,,,50,0
69200,note_on,1,0,8,,,,,,,,5,,,53,82
69200,note_on,1,0,7,,,,,,,,5,,,81,87
69219,note_on,19,0,7,,,,,,,,5,,,81,0
69219,note_on,19,0,8,,,,,,,,5,,,53,0
69220,note_on,1,0,7,,,,,,,,5,,,77,85
69220,note_on,1,0,8,,,,,,,,5,,,62,74
69239,note_on,19,0,8,,,,,,,,5,,,62,0
69239,note_on,19,0,7,,,,,,,,5,,,77,0
69239,note_on,59,0,12,,,,,,,,15,,,62,0
69239,note_on,119,0,9,,,,,,,,12,,,69,0
69240,note_on,1,0,8,,,,,,,,5,,,47,80
69240,note_on,1,0,7,,,,,,,,5,,,67,85
69240,note_on,1,0,12,,,,,,,,15,,,59,76
69240,note_on,1,0,9,,,,,,,,12,,,67,68
69259,note_on,19,0,8,,,,,,,,5,,,47,0
69259,note_on,19,0,7,,,,,,,,5,,,67,0
69260,note_on,1,0,8,,,,,,,,5,,,50,85
69260,note_on,1,0,7,,,,,,,,5,,,79,80
69279,note_on,19,0,7,,,,,,,,5,,,79,0
69279,note_on,19,0,8,,,,,,,,5,,,50,0
69280,note_on,1,0,7,,,,,,,,5,,,77,78
69280,note_on,1,0,8,,,,,,,,5,,,59,80
69299,note_on,119,0,11,,,,,,,,14,,,62,0
69299,note_on,119,0,10,,,,,,,,13,,,65,0
69299,note_on,19,0,7,,,,,,,,5,,,77,0
69299,note_on,59,0,12,,,,,,,,15,,,59,0
69299,note_on,19,0,8,,,,,,,,5,,,59,0
69300,note_on,1,0,12,,,,,,,,15,,,60,72
69300,note_on,1,0,10,,,,,,,,13,,,64,70
69300,note_on,1,0,7,,,,,,,,5,,,67,80
69300,note_on,1,0,11,,,,,,,,14,,,60,76
69300,note_on,1,0,8,,,,,,,,5,,,48,78
69319,note_on,19,0,7,,,,,,,,5,,,67,0
69319,note_on,19,0,8,,,,,,,,5,,,48,0
69320,note_on,1,0,7,,,,,,,,5,,,79,78
69320,note_on,1,0,8,,,,,,,,5,,,52,85
69339,note_on,19,0,8,,,,,,,,5,,,52,0
69339,note_on,19,0,7,,,,,,,,5,,,79,0
69340,note_on,1,0,8,,,,,,,,5,,,60,80
69340,note_on,1,0,7,,,,,,,,5,,,76,82
69359,note_on,59,0,12,,,,,,,,15,,,60,0
69359,note_on,19,0,7,,,,,,,,5,,,76,0
69359,note_on,19,0,8,,,,,,,,5,,,60,0
69359,note_on,119,0,9,,,,,,,,12,,,67,0
69360,note_on,1,0,7,,,,,,,,5,,,65,82
69360,note_on,1,0,8,,,,,,,,5,,,45,85
69360,note_on,1,0,9,,,,,,,,12,,,65,62
69360,note_on,1,0,12,,,,,,,,15,,,57,74
69379,note_on,19,0,7,,,,,,,,5,,,65,0
69379,note_on,19,0,8,,,,,,,,5,,,45,0
69380,note_on,1,0,8,,,,,,,,5,,,48,85
69380,note_on,1,0,7,,,,,,,,5,,,77,74
69399,note_on,19,0,8,,,,,,,,5,,,48,0
69399,note_on,19,0,7,,,,,,,,5,,,77,0
69400,note_on,1,0,8,,,,,,,,5,,,57,80
69400,note_on,1,0,7,,,,,,,,5,,,76,76
69419,note_on,59,0,12,,,,,,,,15,,,57,0
69419,note_on,119,0,10,,,,,,,,13,,,64,0
69419,note_on,19,0,8,,,,,,,,5,,,57,0
69419,note_on,119,0,11,,,,,,,,14,,,60,0
69419,note_on,19,0,7,,,,,,,,5,,,76,0
69420,note_on,1,0,10,,,,,,,,13,,,62,68
69420,note_on,1,0,7,,,,,,,,5,,,65,74
69420,note_on,1,0,11,,,,,,,,14,,,59,57
69420,note_on,1,0,12,,,,,,,,15,,,59,78
69420,note_on,1,0,8,,,,,,,,5,,,47,78
69439,note_on,19,0,7,,,,,,,,5,,,65,0
69439,note_on,19,0,8,,,,,,,,5,,,47,0
69440,note_on,1,0,7,,,,,,,,5,,,77,80
69440,note_on,1,0,8,,,,,,,,5,,,50,76
69459,note_on,19,0,7,,,,,,,,5,,,77,0
69459,note_on,19,0,8,,,,,,,,5,,,50,0
69460,note_on,1,0,7,,,,,,,,5,,,74,85
69460,note_on,1,0,8,,,,,,,,5,,,59,76
69479,note_on,19,0,7,,,,,,,,5,,,74,0
69479,note_on,59,0,12,,,,,,,,15,,,59,0
69479,note_on,19,0,8,,,,,,,,5,,,59,0
69479,note_on,119,0,9,,,,,,,,12,,,65,0
69480,note_on,1,0,9,,,,,,,,12,,,64,66
69480,note_on,1,0,8,,,,,,,,5,,,43,80
69480,note_on,1,0,12,,,,,,,,15,,,55,78
69480,note_on,1,0,7,,,,,,,,5,,,64,64
69499,note_on,19,0,8,,,,,,,,5,,,43,0
69499,note_on,19,0,7,,,,,,,,5,,,64,0
69500,note_on,1,0,7,,,,,,,,5,,,76,87
69500,note_on,1,0,8,,,,,,,,5,,,47,82
69519,note_on,19,0,8,,,,,,,,5,,,47,0
69519,note_on,19,0,7,,,,,,,,5,,,76,0
69520,note_on,1,0,8,,,,,,,,5,,,55,85
69520,note_on,1,0,7,,,,,,,,5,,,74,74
69539,note_on,19,0,7,,,,,,,,5,,,74,0
69539,note_on,19,0,8,,,,,,,,5,,,55,0
69539,note_on,59,0,12,,,,,,,,15,,,55,0
69539,note_on,119,0,10,,,,,,,,13,,,62,0
69539,note_on,119,0,11,,,,,,,,14,,,59,0
69540,note_on,1,0,8,,,,,,,,5,,,45,70
69540,note_on,1,0,10,,,,,,,,13,,,60,72
69540,note_on,1,0,7,,,,,,,,5,,,64,78
69540,note_on,1,0,12,,,,,,,,15,,,57,72
69540,note_on,1,0,11,,,,,,,,14,,,57,76
69559,note_on,19,0,7,,,,,,,,5,,,64,0
69559,note_on,19,0,8,,,,,,,,5,,,45,0
69560,note_on,1,0,7,,,,,,,,5,,,76,82
69560,note_on,1,0,8,,,,,,,,5,,,48,82
69579,note_on,19,0,8,,,,,,,,5,,,48,0
69579,note_on,19,0,7,,,,,,,,5,,,76,0
69580,note_on,1,0,7,,,,,,,,5,,,72,76
69580,note_on,1,0,8,,,,,,,,5,,,57,80
69599,note_on,59,0,12,,,,,,,,15,,,57,0
69599,note_on,19,0,7,,,,,,,,5,,,72,0
69599,note_on,119,0,9,,,,,,,,12,,,64,0
69599,note_on,19,0,8,,,,,,,,5,,,57,0
69599,note_on,59,0,10,,,,,,,,13,,,60,0
69600,note_on,1,0,9,,,,,,,,12,,,62,78
69600,note_on,1,0,10,,,,,,,,13,,,60,82
69600,note_on,1,0,8,,,,,,,,5,,,41,85
69600,note_on,1,0,7,,,,,,,,5,,,62,85
69600,note_on,1,0,12,,,,,,,,15,,,41,70
69619,note_on,19,0,7,,,,,,,,5,,,62,0
69619,note_on,19,0,8,,,,,,,,5,,,41,0
69620,note_on,1,0,8,,,,,,,,5,,,48,82
69620,note_on,1,0,7,,,,,,,,5,,,74,72
69639,note_on,19,0,7,,,,,,,,5,,,74,0
69639,note_on,19,0,8,,,,,,,,5,,,48,0
69640,note_on,1,0,7,,,,,,,,5,,,72,80
69640,note_on,1,0,8,,,,,,,,5,,,53,74
69659,note_on,119,0,11,,,,,,,,14,,,57,0
69659,note_on,59,0,12,,,,,,,,15,,,41,0
69659,note_on,19,0,8,,,,,,,,5,,,53,0
69659,note_on,59,0,9,,,,,,,,12,,,62,0
69659,note_on,19,0,7,,,,,,,,5,,,72,0
69660,note_on,1,0,7,,,,,,,,5,,,64,85
69660,note_on,1,0,11,,,,,,,,14,,,55,68
69660,note_on,1,0,12,,,,,,,,15,,,43,76
69660,note_on,1,0,9,,,,,,,,12,,,64,66
69660,note_on,1,0,8,,,,,,,,5,,,43,80
69679,note_on,19,0,8,,,,,,,,5,,,43,0
69679,note_on,19,0,7,,,,,,,,5,,,64,0
69680,note_on,1,0,7,,,,,,,,5,,,76,82
69680,note_on,1,0,8,,,,,,,,5,,,48,78
69699,note_on,19,0,8,,,,,,,,5,,,48,0
69699,note_on,19,0,7,,,,,,,,5,,,76,0
69700,note_on,1,0,7,,,,,,,,5,,,72,66
69700,note_on,1,0,8,,,,,,,,5,,,55,74
69719,note_on,59,0,9,,,,,,,,12,,,64,0
69719,note_on,59,0,11,,,,,,,,14,,,55,0
69719,note_on,59,0,12,,,,,,,,15,,,43,0
69719,note_on,19,0,8,,,,,,,,5,,,55,0
69719,note_on,19,0,7,,,,,,,,5,,,72,0
69720,note_on,1,0,11,,,,,,,,14,,,53,72
69720,note_on,1,0,7,,,,,,,,5,,,65,80
69720,note_on,1,0,12,,,,,,,,15,,,45,68
69720,note_on,1,0,9,,,,,,,,12,,,65,70
69720,note_on,1,0,8,,,,,,,,5,,,45,80
69739,note_on,19,0,7,,,,,,,,5,,,65,0
69739,note_on,19,0,8,,,,,,,,5,,,45,0
69740,note_on,1,0,7,,,,,,,,5,,,77,85
69740,note_on,1,0,8,,,,,,,,5,,,48,82
69759,note_on,19,0,7,,,,,,,,5,,,77,0
69759,note_on,19,0,8,,,,,,,,5,,,48,0
69760,note_on,1,0,8,,,,,,,,5,,,57,80
69760,note_on,1,0,7,,,,,,,,5,,,72,78
69779,note_on,59,0,12,,,,,,,,15,,,45,0
69779,note_on,59,0,11,,,,,,,,14,,,53,0
69779,note_on,19,0,7,,,,,,,,5,,,72,0
69779,note_on,59,0,9,,,,,,,,12,,,65,0
69779,note_on,19,0,8,,,,,,,,5,,,57,0
69780,note_on,1,0,8,,,,,,,,5,,,43,82
69780,note_on,1,0,11,,,,,,,,14,,,55,72
69780,note_on,1,0,12,,,,,,,,15,,,43,68
69780,note_on,1,0,9,,,,,,,,12,,,64,64
69780,note_on,1,0,7,,,,,,,,5,,,64,78
69799,note_on,19,0,8,,,,,,,,5,,,43,0
69799,note_on,19,0,7,,,,,,,,5,,,64,0
69800,note_on,1,0,7,,,,,,,,5,,,76,85
69800,note_on,1,0,8,,,,,,,,5,,,48,82
69819,note_on,19,0,8,,,,,,,,5,,,48,0
69819,note_on,19,0,7,,,,,,,,5,,,76,0
69820,note_on,1,0,7,,,,,,,,5,,,72,72
69820,note_on,1,0,8,,,,,,,,5,,,55,70
69839,note_on,19,0,7,,,,,,,,5,,,72,0
69839,note_on,59,0,12,,,,,,,,15,,,43,0
69839,note_on,59,0,9,,,,,,,,12,,,64,0
69839,note_on,19,0,8,,,,,,,,5,,,55,0
69839,note_on,59,0,11,,,,,,,,14,,,55,0
69840,note_on,1,0,8,,,,,,,,5,,,41,78
69840,note_on,1,0,12,,,,,,,,15,,,41,72
69840,note_on,1,0,7,,,,,,,,5,,,62,87
69840,note_on,1,0,9,,,,,,,,12,,,62,72
69840,note_on,1,0,11,,,,,,,,14,,,57,80
69859,note_on,19,0,7,,,,,,,,5,,,62,0
69859,note_on,19,0,8,,,,,,,,5,,,41,0
69860,note_on,1,0,8,,,,,,,,5,,,48,82
69860,note_on,1,0,7,,,,,,,,5,,,74,85
69879,note_on,19,0,8,,,,,,,,5,,,48,0
69879,note_on,19,0,7,,,,,,,,5,,,74,0
69880,note_on,1,0,7,,,,,,,,5,,,72,74
69880,note_on,1,0,8,,,,,,,,5,,,53,76
69899,note_on,59,0,9,,,,,,,,12,,,62,0
69899,note_on,59,0,11,,,,,,,,14,,,57,0
69899,note_on,59,0,12,,,,,,,,15,,,41,0
69899,note_on,19,0,8,,,,,,,,5,,,53,0
69899,note_on,19,0,7,,,,,,,,5,,,72,0
69900,note_on,1,0,12,,,,,,,,15,,,43,76
69900,note_on,1,0,7,,,,,,,,5,,,64,80
69900,note_on,1,0,9,,,,,,,,12,,,64,60
69900,note_on,1,0,11,,,,,,,,14,,,55,74
69900,note_on,1,0,8,,,,,,,,5,,,43,74
69919,note_on,19,0,7,,,,,,,,5,,,64,0
69919,note_on,19,0,8,,,,,,,,5,,,43,0
69920,note_on,1,0,7,,,,,,,,5,,,76,85
69920,note_on,1,0,8,,,,,,,,5,,,48,70
69939,note_on,19,0,8,,,,,,,,5,,,48,0
69939,note_on,19,0,7,,,,,,,,5,,,76,0
69940,note_on,1,0,8,,,,,,,,5,,,55,80
69940,note_on,1,0,7,,,,,,,,5,,,72,72
69959,note_on,19,0,8,,,,,,,,5,,,55,0
69959,note_on,59,0,12,,,,,,,,15,,,43,0
69959,note_on,59,0,11,,,,,,,,14,,,55,0
69959,note_on,59,0,9,,,,,,,,12,,,64,0
69959,note_on,19,0,7,,,,,,,,5,,,72,0
69960,note_on,1,0,9,,,,,,,,12,,,65,60
69960,note_on,1,0,8,,,,,,,,5,,,45,74
69960,note_on,1,0,7,,,,,,,,5,,,65,80
69960,note_on,1,0,12,,,,,,,,15,,,45,70
69960,note_on,1,0,11,,,,,,,,14,,,53,70
69979,note_on,19,0,7,,,,,,,,5,,,65,0
69979,note_on,19,0,8,,,,,,,,5,,,45,0
69980,note_on,1,0,8,,,,,,,,5,,,48,85
69980,note_on,1,0,7,,,,,,,,5,,,77,82
69999,note_on,19,0,7,,,,,,,,5,,,77,0
69999,note_on,19,0,8,,,,,,,,5,,,48,0
70000,note_on,1,0,7,,,,,,,,5,,,72,76
70000,note_on,1,0,8,,,,,,,,5,,,57,76
70019,note_on,19,0,8,,,,,,,,5,,,57,0
70019,note_on,59,0,12,,,,,,,,15,,,45,0
70019,note_on,59,0,9,,,,,,,,12,,,65,0
70019,note_on,19,0,7,,,,,,,,5,,,72,0
70019,note_on,59,0,11,,,,,,,,14,,,53,0
70020,note_on,1,0,12,,,,,,,,15,,,43,74
70020,note_on,1,0,8,,,,,,,,5,,,43,82
70020,note_on,1,0,11,,,,,,,,14,,,55,80
70020,note_on,1,0,9,,,,,,,,12,,,64,64
70020,note_on,1,0,7,,,,,,,,5,,,64,80
70039,note_on,19,0,8,,,,,,,,5,,,43,0
70039,note_on,19,0,7,,,,,,,,5,,,64,0
70040,note_on,1,0,8,,,,,,,,5,,,48,70
70040,note_on,1,0,7,,,,,,,,5,,,76,85
70059,note_on,19,0,8,,,,,,,,5,,,48,0
70059,note_on,19,0,7,,,,,,,,5,,,76,0
70060,note_on,1,0,7,,,,,,,,5,,,72,80
70060,note_on,1,0,8,,,,,,,,5,,,55,85
70079,note_on,59,0,9,,,,,,,,12,,,64,0
70079,note_on,19,0,7,,,,,,,,5,,,72,0
70079,note_on,59,0,12,,,,,,,,15,,,43,0
70079,note_on,19,0,8,,,,,,,,5,,,55,0
70079,note_on,59,0,11,,,,,,,,14,,,55,0
70080,note_on,1,0,12,,,,,,,,15,,,42,78
70080,note_on,1,0,7,,,,,,,,5,,,62,85
70080,note_on,1,0,11,,,,,,,,14,,,57,68
70080,note_on,1,0,8,,,,,,,,5,,,42,70
70080,note_on,1,0,9,,,,,,,,12,,,62,70
70099,note_on,19,0,8,,,,,,,,5,,,42,0
70099,note_on,19,0,7,,,,,,,,5,,,62,0
70100,note_on,1,0,8,,,,,,,,5,,,48,70
70100,note_on,1,0,7,,,,,,,,5,,,74,85
70119,note_on,19,0,7,,,,,,,,5,,,74,0
70119,note_on,19,0,8,,,,,,,,5,,,48,0
70120,note_on,1,0,8,,,,,,,,5,,,54,72
70120,note_on,1,0,7,,,,,,,,5,,,72,78
70139,note_on,19,0,8,,,,,,,,5,,,54,0
70139,note_on,59,0,12,,,,,,,,15,,,42,0
70139,note_on,59,0,11,,,,,,,,14,,,57,0
70139,note_on,19,0,7,,,,,,,,5,,,72,0
70139,note_on,59,0,9,,,,,,,,12,,,62,0
70140,note_on,1,0,8,,,,,,,,5,,,43,76
70140,note_on,1,0,9,,,,,,,,12,,,64,70
70140,note_on,1,0,12,,,,,,,,15,,,43,82
70140,note_on,1,0,11,,,,,,,,14,,,55,70
70140,note_on,1,0,7,,,,,,,,5,,,64,85
70159,note_on,19,0,7,,,,,,,,5,,,64,0
70159,note_on,19,0,8,,,,,,,,5,,,43,0
70160,note_on,1,0,8,,,,,,,,5,,,48,72
70160,note_on,1,0,7,,,,,,,,5,,,76,85
70179,note_on,19,0,7,,,,,,,,5,,,76,0
70179,note_on,19,0,8,,,,,,,,5,,,48,0
70180,note_on,1,0,7,,,,,,,,5,,,72,76
70180,note_on,1,0,8,,,,,,,,5,,,55,78
70199,note_on,19,0,7,,,,,,,,5,,,72,0
70199,note_on,59,0,11,,,,,,,,14,,,55,0
70199,note_on,19,0,8,,,,,,,,5,,,55,0
70199,note_on,59,0,12,,,,,,,,15,,,43,0
70199,note_on,59,0,9,,,,,,,,12,,,64,0
70200,note_on,1,0,12,,,,,,,,15,,,45,72
70200,note_on,1,0,8,,,,,,,,5,,,45,80
70200,note_on,1,0,11,,,,,,,,14,,,57,74
70200,note_on,1,0,7,,,,,,,,5,,,66,82
70200,note_on,1,0,9,,,,,,,,12,,,66,61
70219,note_on,19,0,8,,,,,,,,5,,,45,0
70219,note_on,19,0,7,,,,,,,,5,,,66,0
70220,note_on,1,0,8,,,,,,,,5,,,48,76
70220,note_on,1,0,7,,,,,,,,5,,,78,78
70239,note_on,19,0,8,,,,,,,,5,,,48,0
70239,note_on,19,0,7,,,,,,,,5,,,78,0
70240,note_on,1,0,7,,,,,,,,5,,,72,76
70240,note_on,1,0,8,,,,,,,,5,,,57,63
70259,note_on,19,0,8,,,,,,,,5,,,57,0
70259,note_on,59,0,12,,,,,,,,15,,,45,0
70259,note_on,659,0,10,,,,,,,,13,,,60,0
70259,note_on,59,0,11,,,,,,,,14,,,57,0
70259,note_on,59,0,9,,,,,,,,12,,,66,0
70259,note_on,19,0,7,,,,,,,,5,,,72,0
70260,note_on,1,0,10,,,,,,,,13,,,62,70
70260,note_on,1,0,12,,,,,,,,15,,,47,80
70260,note_on,1,0,8,,,,,,,,5,,,47,78
70260,note_on,1,0,9,,,,,,,,12,,,67,82
70260,note_on,1,0,7,,,,,,,,5,,,67,80
70260,note_on,1,0,11,,,,,,,,14,,,59,76
70275,note_on,15,0,10,,,,,,,,13,,,62,0
70275,note_on,15,0,11,,,,,,,,14,,,59,0
70275,note_on,15,0,9,,,,,,,,12,,,67,0
70279,note_on,19,0,8,,,,,,,,5,,,47,0
70279,note_on,19,0,7,,,,,,,,5,,,67,0
70280,note_on,1,0,7,,,,,,,,5,,,79,80
70280,note_on,1,0,8,,,,,,,,5,,,50,82
70290,note_on,15,0,10,,,,,,,,13,,,62,66
70290,note_on,15,0,9,,,,,,,,12,,,67,64
70290,note_on,30,0,12,,,,,,,,15,,,47,0
70290,note_on,15,0,11,,,,,,,,14,,,59,68
70299,note_on,19,0,7,,,,,,,,5,,,79,0
70299,note_on,19,0,8,,,,,,,,5,,,50,0
70300,note_on,1,0,8,,,,,,,,5,,,59,70
70300,note_on,1,0,7,,,,,,,,5,,,74,87
70305,note_on,15,0,9,,,,,,,,12,,,67,0
70305,note_on,15,0,10,,,,,,,,13,,,62,0
70305,note_on,15,0,11,,,,,,,,14,,,59,0
70319,note_on,19,0,7,,,,,,,,5,,,74,0
70319,note_on,19,0,8,,,,,,,,5,,,59,0
70320,note_on,15,0,9,,,,,,,,12,,,69,68
70320,note_on,15,0,10,,,,,,,,13,,,64,64
70320,note_on,30,0,12,,,,,,,,15,,,48,82
70320,note_on,1,0,7,,,,,,,,5,,,69,85
70320,note_on,15,0,11,,,,,,,,14,,,60,74
70320,note_on,1,0,8,,,,,,,,5,,,48,82
70335,note_on,15,0,10,,,,,,,,13,,,64,0
70335,note_on,15,0,9,,,,,,,,12,,,69,0
70335,note_on,15,0,11,,,,,,,,14,,,60,0
70339,note_on,19,0,8,,,,,,,,5,,,48,0
70339,note_on,19,0,7,,,,,,,,5,,,69,0
70340,note_on,1,0,8,,,,,,,,5,,,52,85
70340,note_on,1,0,7,,,,,,,,5,,,81,82
70350,note_on,30,0,12,,,,,,,,15,,,48,0
70350,note_on,15,0,11,,,,,,,,14,,,60,78
70350,note_on,15,0,10,,,,,,,,13,,,64,62
70350,note_on,15,0,9,,,,,,,,12,,,69,62
70359,note_on,19,0,7,,,,,,,,5,,,81,0
70359,note_on,19,0,8,,,,,,,,5,,,52,0
70360,note_on,1,0,8,,,,,,,,5,,,60,80
70360,note_on,1,0,7,,,,,,,,5,,,76,85
70365,note_on,15,0,9,,,,,,,,12,,,69,0
70365,note_on,15,0,11,,,,,,,,14,,,60,0
70365,note_on,15,0,10,,,,,,,,13,,,64,0
70379,note_on,19,0,7,,,,,,,,5,,,76,0
70379,note_on,19,0,8,,,,,,,,5,,,60,0
70380,note_on,15,0,10,,,,,,,,13,,,66,62
70380,note_on,1,0,7,,,,,,,,5,,,71,80
70380,note_on,1,0,8,,,,,,,,5,,,50,76
70380,note_on,15,0,11,,,,,,,,14,,,62,66
70380,note_on,15,0,9,,,,,,,,12,,,71,64
70380,note_on,30,0,12,,,,,,,,15,,,50,78
70395,note_on,15,0,10,,,,,,,,13,,,66,0
70395,note_on,15,0,9,,,,,,,,12,,,71,0
70395,note_on,15,0,11,,,,,,,,14,,,62,0
70399,note_on,19,0,7,,,,,,,,5,,,71,0
70399,note_on,19,0,8,,,,,,,,5,,,50,0
70400,note_on,1,0,7,,,,,,,,5,,,83,80
70400,note_on,1,0,8,,,,,,,,5,,,54,66
70410,note_on,15,0,9,,,,,,,,12,,,71,54
70410,note_on,15,0,11,,,,,,,,14,,,62,72
70410,note_on,15,0,10,,,,,,,,13,,,66,60
70410,note_on,30,0,12,,,,,,,,15,,,50,0
70419,note_on,19,0,8,,,,,,,,5,,,54,0
70419,note_on,19,0,7,,,,,,,,5,,,83,0
70420,note_on,1,0,7,,,,,,,,5,,,78,74
70420,note_on,1,0,8,,,,,,,,5,,,62,76
70425,note_on,15,0,9,,,,,,,,12,,,71,0
70425,note_on,15,0,11,,,,,,,,14,,,62,0
70425,note_on,15,0,10,,,,,,,,13,,,66,0
70439,note_on,19,0,7,,,,,,,,5,,,78,0
70439,note_on,19,0,8,,,,,,,,5,,,62,0
70440,note_on,30,0,12,,,,,,,,15,,,52,87
70440,note_on,15,0,9,,,,,,,,12,,,72,64
70440,note_on,1,0,7,,,,,,,,5,,,72,78
70440,note_on,1,0,8,,,,,,,,5,,,52,82
70440,note_on,15,0,10,,,,,,,,13,,,67,68
70440,note_on,15,0,11,,,,,,,,14,,,64,80
70455,note_on,15,0,10,,,,,,,,13,,,67,0
70455,note_on,15,0,9,,,,,,,,12,,,72,0
70455,note_on,15,0,11,,,,,,,,14,,,64,0
70459,note_on,19,0,7,,,,,,,,5,,,72,0
70459,note_on,19,0,8,,,,,,,,5,,,52,0
70460,note_on,1,0,8,,,,,,,,5,,,55,82
70460,note_on,1,0,7,,,,,,,,5,,,84,85
70470,note_on,15,0,11,,,,,,,,14,,,64,66
70470,note_on,15,0,9,,,,,,,,12,,,72,70
70470,note_on,15,0,10,,,,,,,,13,,,67,61
70470,note_on,30,0,12,,,,,,,,15,,,52,0
70479,note_on,19,0,8,,,,,,,,5,,,55,0
70479,note_on,19,0,7,,,,,,,,5,,,84,0
70480,note_on,1,0,8,,,,,,,,5,,,64,68
70480,note_on,1,0,7,,,,,,,,5,,,79,74
70485,note_on,15,0,10,,,,,,,,13,,,67,0
70485,note_on,15,0,9,,,,,,,,12,,,72,0
70485,note_on,15,0,11,,,,,,,,14,,,64,0
70499,note_on,19,0,7,,,,,,,,5,,,79,0
70499,note_on,19,0,8,,,,,,,,5,,,64,0
70500,note_on,30,0,12,,,,,,,,15,,,54,74
70500,note_on,1,0,8,,,,,,,,5,,,54,76
70500,note_on,15,0,11,,,,,,,,14,,,66,74
70500,note_on,1,0,7,,,,,,,,5,,,74,82
70500,note_on,15,0,10,,,,,,,,13,,,69,72
70500,note_on,15,0,9,,,,,,,,12,,,74,66
70515,note_on,15,0,9,,,,,,,,12,,,74,0
70515,note_on,15,0,11,,,,,,,,14,,,66,0
70515,note_on,15,0,10,,,,,,,,13,,,69,0
70519,note_on,19,0,8,,,,,,,,5,,,54,0
70519,note_on,19,0,7,,,,,,,,5,,,74,0
70520,note_on,1,0,8,,,,,,,,5,,,57,82
70520,note_on,1,0,7,,,,,,,,5,,,86,82
70530,note_on,15,0,10,,,,,,,,13,,,69,61
70530,note_on,30,0,12,,,,,,,,15,,,54,0
70530,note_on,15,0,11,,,,,,,,14,,,66,70
70530,note_on,15,0,9,,,,,,,,12,,,74,70
70539,note_on,19,0,8,,,,,,,,5,,,57,0
70539,note_on,19,0,7,,,,,,,,5,,,86,0
70540,note_on,1,0,7,,,,,,,,5,,,81,82
70540,note_on,1,0,8,,,,,,,,5,,,66,80
70545,note_on,15,0,10,,,,,,,,13,,,69,0
70545,note_on,15,0,11,,,,,,,,14,,,66,0
70545,note_on,15,0,9,,,,,,,,12,,,74,0
70559,note_on,19,0,8,,,,,,,,5,,,66,0
70559,note_on,19,0,7,,,,,,,,5,,,81,0
70560,note_on,15,0,11,,,,,,,,14,,,67,76
70560,note_on,1,0,8,,,,,,,,5,,,67,85
70560,note_on,15,0,10,,,,,,,,13,,,67,72
70560,note_on,15,0,9,,,,,,,,12,,,71,68
70560,note_on,30,0,12,,,,,,,,15,,,55,82
70560,note_on,1,0,7,,,,,,,,5,,,83,87
70579,note_on,19,0,7,,,,,,,,5,,,83,0
70610,note_on,31,0,7,,,,,,,,5,,,89,89
70619,note_on,59,0,11,,,,,,,,14,,,67,0
70619,note_on,59,0,10,,,,,,,,13,,,67,0
70619,note_on,59,0,9,,,,,,,,12,,,71,0
70619,note_on,59,0,12,,,,,,,,15,,,55,0
70619,note_on,9,0,7,,,,,,,,5,,,89,0
70620,note_on,1,0,7,,,,,,,,5,,,82,78
70639,note_on,19,0,7,,,,,,,,5,,,82,0
70640,note_on,1,0,7,,,,,,,,5,,,83,85
70659,note_on,19,0,7,,,,,,,,5,,,83,0
70660,note_on,1,0,7,,,,,,,,5,,,86,76
70679,note_on,119,0,8,,,,,,,,5,,,67,0
70679,note_on,19,0,7,,,,,,,,5,,,86,0
70680,note_on,1,0,7,,,,,,,,5,,,78,85
70699,note_on,19,0,7,,,,,,,,5,,,78,0
70700,note_on,1,0,7,,,,,,,,5,,,79,80
70719,note_on,19,0,7,,,,,,,,5,,,79,0
70720,note_on,1,0,7,,,,,,,,5,,,83,76
70739,note_on,19,0,7,,,,,,,,5,,,83,0
70740,note_on,1,0,7,,,,,,,,5,,,73,80
70759,note_on,19,0,7,,,,,,,,5,,,73,0
70760,note_on,1,0,7,,,,,,,,5,,,74,85
70779,note_on,19,0,7,,,,,,,,5,,,74,0
70780,note_on,1,0,7,,,,,,,,5,,,79,76
70799,note_on,19,0,7,,,,,,,,5,,,79,0
70800,note_on,1,0,7,,,,,,,,5,,,70,80
70819,note_on,19,0,7,,,,,,,,5,,,70,0
70820,note_on,1,0,7,,,,,,,,5,,,71,82
70839,note_on,19,0,7,,,,,,,,5,,,71,0
70840,note_on,1,0,7,,,,,,,,5,,,74,85
70859,note_on,19,0,7,,,,,,,,5,,,74,0
70860,note_on,1,0,7,,,,,,,,5,,,66,80
70879,note_on,19,0,7,,,,,,,,5,,,66,0
70880,note_on,1,0,7,,,,,,,,5,,,67,85
70899,note_on,19,0,7,,,,,,,,5,,,67,0
70900,note_on,1,0,7,,,,,,,,5,,,71,82
70919,note_on,19,0,7,,,,,,,,5,,,71,0
70920,note_on,1,0,7,,,,,,,,5,,,61,82
70939,note_on,19,0,7,,,,,,,,5,,,61,0
70940,note_on,1,0,7,,,,,,,,5,,,62,82
70959,note_on,19,0,7,,,,,,,,5,,,62,0
70960,note_on,1,0,7,,,,,,,,5,,,67,78
70979,note_on,19,0,7,,,,,,,,5,,,67,0
70980,note_on,1,0,7,,,,,,,,5,,,58,68
70999,note_on,19,0,7,,,,,,,,5,,,58,0
71000,note_on,1,0,7,,,,,,,,5,,,59,82
71019,note_on,19,0,7,,,,,,,,5,,,59,0
71020,note_on,1,0,7,,,,,,,,5,,,62,76
71039,note_on,19,0,7,,,,,,,,5,,,62,0
71040,note_on,1,0,7,,,,,,,,5,,,55,87
71059,note_on,19,0,7,,,,,,,,5,,,55,0
71060,note_on,381,0,8,,,,,,,,5,,,38,85
71060,note_on,1,0,7,,,,,,,,5,,,50,72
71079,note_on,19,0,8,,,,,,,,5,,,38,0
71079,note_on,19,0,7,,,,,,,,5,,,50,0
71080,note_on,1,0,7,,,,,,,,5,,,52,89
71080,note_on,1,0,8,,,,,,,,5,,,40,82
71099,note_on,19,0,8,,,,,,,,5,,,40,0
71099,note_on,19,0,7,,,,,,,,5,,,52,0
71100,note_on,1,0,8,,,,,,,,5,,,42,78
71100,note_on,1,0,7,,,,,,,,5,,,54,78
71119,note_on,19,0,8,,,,,,,,5,,,42,0
71119,note_on,19,0,7,,,,,,,,5,,,54,0
71120,note_on,1,0,8,,,,,,,,5,,,43,82
71120,note_on,1,0,7,,,,,,,,5,,,55,85
71139,note_on,19,0,8,,,,,,,,5,,,43,0
71139,note_on,19,0,7,,,,,,,,5,,,55,0
71140,note_on,1,0,8,,,,,,,,5,,,45,78
71140,note_on,1,0,7,,,,,,,,5,,,57,76
71159,note_on,19,0,7,,,,,,,,5,,,57,0
71159,note_on,19,0,8,,,,,,,,5,,,45,0
71160,note_on,1,0,8,,,,,,,,5,,,47,78
71160,note_on,1,0,7,,,,,,,,5,,,59,76
71179,note_on,19,0,8,,,,,,,,5,,,47,0
71179,note_on,19,0,7,,,,,,,,5,,,59,0
71180,note_on,1,0,7,,,,,,,,5,,,54,72
71180,note_on,1,0,8,,,,,,,,5,,,42,66
71199,note_on,19,0,7,,,,,,,,5,,,54,0
71199,note_on,19,0,8,,,,,,,,5,,,42,0
71200,note_on,1,0,8,,,,,,,,5,,,43,78
71200,note_on,1,0,7,,,,,,,,5,,,55,82
71219,note_on,19,0,8,,,,,,,,5,,,43,0
71219,note_on,19,0,7,,,,,,,,5,,,55,0
71220,note_on,1,0,8,,,,,,,,5,,,45,72
71220,note_on,1,0,7,,,,,,,,5,,,57,82
71239,note_on,19,0,8,,,,,,,,5,,,45,0
71239,note_on,19,0,7,,,,,,,,5,,,57,0
71240,note_on,1,0,8,,,,,,,,5,,,47,85
71240,note_on,1,0,7,,,,,,,,5,,,59,80
71259,note_on,19,0,8,,,,,,,,5,,,47,0
71259,note_on,19,0,7,,,,,,,,5,,,59,0
71260,note_on,1,0,8,,,,,,,,5,,,48,78
71260,note_on,1,0,7,,,,,,,,5,,,60,80
71279,note_on,19,0,8,,,,,,,,5,,,48,0
71279,note_on,19,0,7,,,,,,,,5,,,60,0
71280,note_on,1,0,8,,,,,,,,5,,,50,74
71280,note_on,1,0,7,,,,,,,,5,,,62,85
71299,note_on,19,0,7,,,,,,,,5,,,62,0
71299,note_on,19,0,8,,,,,,,,5,,,50,0
71300,note_on,1,0,7,,,,,,,,5,,,59,80
71300,note_on,1,0,8,,,,,,,,5,,,47,78
71319,note_on,19,0,7,,,,,,,,5,,,59,0
71319,note_on,19,0,8,,,,,,,,5,,,47,0
71320,note_on,1,0,7,,,,,,,,5,,,60,87
71320,note_on,1,0,8,,,,,,,,5,,,48,80
71339,note_on,19,0,7,,,,,,,,5,,,60,0
71339,note_on,19,0,8,,,,,,,,5,,,48,0
71340,note_on,1,0,7,,,,,,,,5,,,62,82
71340,note_on,1,0,8,,,,,,,,5,,,50,82
71359,note_on,19,0,7,,,,,,,,5,,,62,0
71359,note_on,19,0,8,,,,,,,,5,,,50,0
71360,note_on,1,0,7,,,,,,,,5,,,64,85
71360,note_on,1,0,8,,,,,,,,5,,,52,87
71379,note_on,19,0,7,,,,,,,,5,,,64,0
71379,note_on,19,0,8,,,,,,,,5,,,52,0
71380,note_on,1,0,8,,,,,,,,5,,,54,74
71380,note_on,1,0,7,,,,,,,,5,,,66,78
71399,note_on,19,0,8,,,,,,,,5,,,54,0
71399,note_on,19,0,7,,,,,,,,5,,,66,0
71400,note_on,1,0,8,,,,,,,,5,,,55,76
71400,note_on,1,0,7,,,,,,,,5,,,67,85
71419,note_on,19,0,8,,,,,,,,5,,,55,0
71419,note_on,19,0,7,,,,,,,,5,,,67,0
71420,note_on,1,0,8,,,,,,,,5,,,50,64
71420,note_on,1,0,7,,,,,,,,5,,,62,78
71439,note_on,19,0,7,,,,,,,,5,,,62,0
71439,note_on,19,0,8,,,,,,,,5,,,50,0
71440,note_on,1,0,8,,,,,,,,5,,,52,85
71440,note_on,1,0,7,,,,,,,,5,,,64,76
71459,note_on,19,0,8,,,,,,,,5,,,52,0
71459,note_on,19,0,7,,,,,,,,5,,,64,0
71460,note_on,1,0,8,,,,,,,,5,,,54,68
71460,note_on,1,0,7,,,,,,,,5,,,66,70
71479,note_on,19,0,8,,,,,,,,5,,,54,0
71479,note_on,19,0,7,,,,,,,,5,,,66,0
71480,note_on,1,0,8,,,,,,,,5,,,55,80
71480,note_on,1,0,7,,,,,,,,5,,,67,82
71499,note_on,19,0,8,,,,,,,,5,,,55,0
71499,note_on,19,0,7,,,,,,,,5,,,67,0
71500,note_on,1,0,7,,,,,,,,5,,,69,82
71500,note_on,1,0,8,,,,,,,,5,,,57,82
71519,note_on,19,0,7,,,,,,,,5,,,69,0
71519,note_on,19,0,8,,,,,,,,5,,,57,0
71520,note_on,1,0,8,,,,,,,,5,,,59,82
71520,note_on,1,0,7,,,,,,,,5,,,71,80
71539,note_on,19,0,7,,,,,,,,5,,,71,0
71539,note_on,19,0,8,,,,,,,,5,,,59,0
71540,note_on,1,0,8,,,,,,,,5,,,54,74
71540,note_on,1,0,7,,,,,,,,5,,,66,76
71559,note_on,19,0,8,,,,,,,,5,,,54,0
71559,note_on,19,0,7,,,,,,,,5,,,66,0
71560,note_on,1,0,8,,,,,,,,5,,,55,82
71560,note_on,1,0,7,,,,,,,,5,,,67,80
71579,note_on,19,0,8,,,,,,,,5,,,55,0
71579,note_on,19,0,7,,,,,,,,5,,,67,0
71580,note_on,1,0,8,,,,,,,,5,,,57,80
71580,note_on,1,0,7,,,,,,,,5,,,69,74
71599,note_on,19,0,8,,,,,,,,5,,,57,0
71599,note_on,19,0,7,,,,,,,,5,,,69,0
71600,note_on,1,0,7,,,,,,,,5,,,71,80
71600,note_on,1,0,8,,,,,,,,5,,,59,85
71619,note_on,19,0,8,,,,,,,,5,,,59,0
71619,note_on,19,0,7,,,,,,,,5,,,71,0
71620,note_on,1,0,7,,,,,,,,5,,,72,72
71620,note_on,1,0,8,,,,,,,,5,,,60,82
71639,note_on,19,0,7,,,,,,,,5,,,72,0
71639,note_on,19,0,8,,,,,,,,5,,,60,0
71640,note_on,1,0,7,,,,,,,,5,,,74,70
71640,note_on,1,0,8,,,,,,,,5,,,62,85
71659,note_on,19,0,7,,,,,,,,5,,,74,0
71659,note_on,19,0,8,,,,,,,,5,,,62,0
71660,note_on,1,0,8,,,,,,,,5,,,59,78
71660,note_on,1,0,7,,,,,,,,5,,,71,82
71679,note_on,19,0,7,,,,,,,,5,,,71,0
71679,note_on,19,0,8,,,,,,,,5,,,59,0
71680,note_on,1,0,7,,,,,,,,5,,,72,80
71680,note_on,1,0,8,,,,,,,,5,,,60,82
71699,note_on,19,0,7,,,,,,,,5,,,72,0
71699,note_on,19,0,8,,,,,,,,5,,,60,0
71700,note_on,1,0,8,,,,,,,,5,,,62,80
71700,note_on,1,0,7,,,,,,,,5,,,74,78
71719,note_on,19,0,8,,,,,,,,5,,,62,0
71719,note_on,19,0,7,,,,,,,,5,,,74,0
71720,note_on,1,0,8,,,,,,,,5,,,64,82
71720,note_on,1,0,7,,,,,,,,5,,,76,85
71739,note_on,19,0,8,,,,,,,,5,,,64,0
71739,note_on,19,0,7,,,,,,,,5,,,76,0
71740,note_on,1,0,8,,,,,,,,5,,,66,78
71740,note_on,1,0,7,,,,,,,,5,,,78,78
71759,note_on,19,0,7,,,,,,,,5,,,78,0
71759,note_on,19,0,8,,,,,,,,5,,,66,0
71760,note_on,1,0,8,,,,,,,,5,,,67,80
71760,note_on,1,0,7,,,,,,,,5,,,79,82
71779,note_on,19,0,8,,,,,,,,5,,,67,0
71779,note_on,19,0,7,,,,,,,,5,,,79,0
71780,note_on,1,0,7,,,,,,,,5,,,74,72
71780,note_on,1,0,8,,,,,,,,5,,,62,85
71799,note_on,19,0,7,,,,,,,,5,,,74,0
71799,note_on,19,0,8,,,,,,,,5,,,62,0
71800,note_on,1,0,8,,,,,,,,5,,,64,80
71800,note_on,1,0,7,,,,,,,,5,,,76,85
71819,note_on,19,0,7,,,,,,,,5,,,76,0
71819,note_on,19,0,8,,,,,,,,5,,,64,0
71820,note_on,1,0,7,,,,,,,,5,,,78,74
71820,note_on,1,0,8,,,,,,,,5,,,66,68
71839,note_on,19,0,8,,,,,,,,5,,,66,0
71839,note_on,19,0,7,,,,,,,,5,,,78,0
71840,note_on,1,0,8,,,,,,,,5,,,67,78
71840,note_on,1,0,7,,,,,,,,5,,,79,76
71859,note_on,19,0,7,,,,,,,,5,,,79,0
71859,note_on,19,0,8,,,,,,,,5,,,67,0
71860,note_on,1,0,8,,,,,,,,5,,,69,80
71860,note_on,1,0,7,,,,,,,,5,,,81,76
71879,note_on,19,0,8,,,,,,,,5,,,69,0
71879,note_on,19,0,7,,,,,,,,5,,,81,0
71880,note_on,1,0,8,,,,,,,,5,,,71,80
71880,note_on,1,0,7,,,,,,,,5,,,83,70
71899,note_on,19,0,7,,,,,,,,5,,,83,0
71899,note_on,19,0,8,,,,,,,,5,,,71,0
71900,note_on,1,0,7,,,,,,,,5,,,78,80
71900,note_on,1,0,8,,,,,,,,5,,,66,66
71919,note_on,19,0,8,,,,,,,,5,,,66,0
71919,note_on,19,0,7,,,,,,,,5,,,78,0
71920,note_on,1,0,8,,,,,,,,5,,,67,82
71920,note_on,1,0,7,,,,,,,,5,,,79,74
71939,note_on,19,0,7,,,,,,,,5,,,79,0
71939,note_on,19,0,8,,,,,,,,5,,,67,0
71940,note_on,1,0,7,,,,,,,,5,,,81,78
71940,note_on,1,0,8,,,,,,,,5,,,69,78
71959,note_on,19,0,7,,,,,,,,5,,,81,0
71959,note_on,19,0,8,,,,,,,,5,,,69,0
71960,note_on,1,0,7,,,,,,,,5,,,83,87
71960,note_on,1,0,8,,,,,,,,5,,,71,80
71979,note_on,19,0,8,,,,,,,,5,,,71,0
71979,note_on,19,0,7,,,,,,,,5,,,83,0
71980,note_on,1,0,7,,,,,,,,5,,,84,87
71980,note_on,1,0,8,,,,,,,,5,,,72,80
71999,note_on,19,0,8,,,,,,,,5,,,72,0
71999,note_on,19,0,7,,,,,,,,5,,,84,0
72000,note_on,1,0,8,,,,,,,,5,,,74,85
72000,note_on,1,0,7,,,,,,,,5,,,86,85
72019,note_on,19,0,7,,,,,,,,5,,,86,0
72019,note_on,19,0,8,,,,,,,,5,,,74,0
72020,note_on,1,0,8,,,,,,,,5,,,71,80
72020,note_on,1,0,7,,,,,,,,5,,,83,85
72039,note_on,19,0,7,,,,,,,,5,,,83,0
72039,note_on,19,0,8,,,,,,,,5,,,71,0
72040,note_on,1,0,8,,,,,,,,5,,,72,78
72040,note_on,1,0,7,,,,,,,,5,,,84,85
72059,note_on,19,0,7,,,,,,,,5,,,84,0
72059,note_on,19,0,8,,,,,,,,5,,,72,0
72060,note_on,1,0,8,,,,,,,,5,,,74,87
72060,note_on,1,0,7,,,,,,,,5,,,86,85
72079,note_on,19,0,7,,,,,,,,5,,,86,0
72079,note_on,19,0,8,,,,,,,,5,,,74,0
72080,note_on,1,0,7,,,,,,,,5,,,87,82
72080,note_on,1,0,8,,,,,,,,5,,,75,72
72099,note_on,19,0,8,,,,,,,,5,,,75,0
72099,note_on,19,0,7,,,,,,,,5,,,87,0
72100,note_on,1,0,7,,,,,,,,5,,,88,87
72100,note_on,1,0,8,,,,,,,,5,,,76,85
72119,note_on,19,0,7,,,,,,,,5,,,88,0
72119,note_on,19,0,8,,,,,,,,5,,,76,0
72120,note_on,1,0,8,,,,,,,,5,,,77,85
72120,note_on,1,0,7,,,,,,,,5,,,89,85
72149,note_on,29,0,8,,,,,,,,5,,,77,0
72149,note_on,29,0,7,,,,,,,,5,,,89,0
72150,note_on,1,0,8,,,,,,,,5,,,74,85
72150,note_on,1,0,7,,,,,,,,5,,,86,82
72179,note_on,29,0,8,,,,,,,,5,,,74,0
72179,note_on,29,0,7,,,,,,,,5,,,86,0
72180,note_on,1,0,8,,,,,,,,5,,,71,80
72180,note_on,1,0,7,,,,,,,,5,,,83,82
72209,note_on,29,0,8,,,,,,,,5,,,71,0
72209,note_on,29,0,7,,,,,,,,5,,,83,0
72210,note_on,1,0,7,,,,,,,,5,,,79,80
72210,note_on,1,0,8,,,,,,,,5,,,67,87
72239,note_on,29,0,8,,,,,,,,5,,,67,0
72239,note_on,29,0,7,,,,,,,,5,,,79,0
72240,note_on,1,0,7,,,,,,,,5,,,80,85
72240,note_on,1,0,8,,,,,,,,5,,,68,76
72269,note_on,29,0,7,,,,,,,,5,,,80,0
72269,note_on,29,0,8,,,,,,,,5,,,68,0
72270,note_on,1,0,7,,,,,,,,5,,,77,85
72270,note_on,1,0,8,,,,,,,,5,,,65,82
72299,note_on,29,0,8,,,,,,,,5,,,65,0
72299,note_on,29,0,7,,,,,,,,5,,,77,0
72300,note_on,1,0,8,,,,,,,,5,,,62,70
72300,note_on,1,0,7,,,,,,,,5,,,74,85
72329,note_on,29,0,7,,,,,,,,5,,,74,0
72329,note_on,29,0,8,,,,,,,,5,,,62,0
72330,note_on,1,0,7,,,,,,,,5,,,72,80
72330,note_on,1,0,8,,,,,,,,5,,,60,80
72359,note_on,29,0,7,,,,,,,,5,,,72,0
72359,note_on,29,0,8,,,,,,,,5,,,60,0
72360,note_on,1,0,8,,,,,,,,5,,,59,72
72360,note_on,1,0,7,,,,,,,,5,,,71,82
72389,note_on,29,0,8,,,,,,,,5,,,59,0
72389,note_on,29,0,7,,,,,,,,5,,,71,0
72390,note_on,1,0,8,,,,,,,,5,,,62,72
72390,note_on,1,0,7,,,,,,,,5,,,74,78
72419,note_on,29,0,7,,,,,,,,5,,,74,0
72419,note_on,29,0,8,,,,,,,,5,,,62,0
72420,note_on,0,0,3,,,,,,,,0,,,65,82
72420,note_on,3901,0,2,,,,,,,,6,,,77,82
72420,note_on,1,0,7,,,,,,,,5,,,65,82
72420,note_on,3901,0,1,,,,,,,,3,,,89,82
72420,note_on,3901,0,3,,,,,,,,0,,,53,82
72420,note_on,1,0,8,,,,,,,,5,,,53,85
72449,note_on,29,0,8,,,,,,,,5,,,53,0
72449,note_on,29,0,7,,,,,,,,5,,,65,0
72450,note_on,1,0,8,,,,,,,,5,,,56,72
72450,note_on,1,0,7,,,,,,,,5,,,68,80
72479,note_on,59,0,1,,,,,,,,3,,,89,0
72479,note_on,0,0,3,,,,,,,,0,,,53,0
72479,note_on,29,0,7,,,,,,,,5,,,68,0
72479,note_on,29,0,8,,,,,,,,5,,,56,0
72479,note_on,59,0,2,,,,,,,,6,,,77,0
72479,note_on,59,0,3,,,,,,,,0,,,65,0
72480,note_on,1,0,1,,,,,,,,3,,,86,82
72480,note_on,1,0,2,,,,,,,,6,,,74,82
72480,note_on,1,0,8,,,,,,,,5,,,50,87
72480,note_on,0,0,3,,,,,,,,0,,,62,82
72480,note_on,1,0,3,,,,,,,,0,,,50,82
72480,note_on,1,0,7,,,,,,,,5,,,62,85
72509,note_on,29,0,7,,,,,,,,5,,,62,0
72510,note_on,1,0,7,,,,,,,,5,,,65,80
72539,note_on,59,0,8,,,,,,,,5,,,50,0
72539,note_on,59,0,2,,,,,,,,6,,,74,0
72539,note_on,59,0,1,,,,,,,,3,,,86,0
72539,note_on,29,0,7,,,,,,,,5,,,65,0
72539,note_on,0,0,3,,,,,,,,0,,,50,0
72539,note_on,59,0,3,,,,,,,,0,,,62,0
72540,note_on,0,0,8,,,,,,,,5,,,46,80
72540,note_on,1,0,8,,,,,,,,5,,,34,80
72540,note_on,0,0,3,,,,,,,,0,,,58,74
72540,note_on,1,0,3,,,,,,,,0,,,46,74
72540,note_on,1,0,1,,,,,,,,3,,,82,74
72540,note_on,1,0,2,,,,,,,,6,,,70,74
72540,note_on,1,0,7,,,,,,,,5,,,58,74
72569,note_on,29,0,7,,,,,,,,5,,,58,0
72570,note_on,1,0,7,,,,,,,,5,,,65,78
72599,note_on,0,0,8,,,,,,,,5,,,34,0
72599,note_on,59,0,1,,,,,,,,3,,,82,0
72599,note_on,59,0,3,,,,,,,,0,,,58,0
72599,note_on,0,0,3,,,,,,,,0,,,46,0
72599,note_on,59,0,8,,,,,,,,5,,,46,0
72599,note_on,59,0,2,,,,,,,,6,,,70,0
72599,note_on,29,0,7,,,,,,,,5,,,65,0
72600,note_on,1,0,7,,,,,,,,5,,,57,76
72600,note_on,1,0,1,,,,,,,,3,,,81,82
72600,note_on,1,0,2,,,,,,,,6,,,69,82
72600,note_on,1,0,8,,,,,,,,5,,,45,82
72600,note_on,0,0,8,,,,,,,,5,,,33,74
72600,note_on,1,0,3,,,,,,,,0,,,45,82
72600,note_on,0,0,3,,,,,,,,0,,,57,82
72629,note_on,29,0,7,,,,,,,,5,,,57,0
72630,note_on,1,0,7,,,,,,,,5,,,65,82
72659,note_on,0,0,3,,,,,,,,0,,,45,0
72659,note_on,59,0,1,,,,,,,,3,,,81,0
72659,note_on,29,0,7,,,,,,,,5,,,65,0
72659,note_on,0,0,8,,,,,,,,5,,,45,0
72659,note_on,59,0,2,,,,,,,,6,,,69,0
72659,note_on,59,0,3,,,,,,,,0,,,57,0
72659,note_on,59,0,8,,,,,,,,5,,,33,0
72660,note_on,1,0,3,,,,,,,,0,,,44,80
72660,note_on,1,0,2,,,,,,,,6,,,68,80
72660,note_on,0,0,3,,,,,,,,0,,,56,80
72660,note_on,1,0,7,,,,,,,,5,,,56,76
72660,note_on,1,0,8,,,,,,,,5,,,32,74
72660,note_on,1,0,1,,,,,,,,3,,,80,80
72660,note_on,0,0,8,,,,,,,,5,,,44,78
72689,note_on,29,0,7,,,,,,,,5,,,56,0
72690,note_on,1,0,7,,,,,,,,5,,,65,74
72719,note_on,59,0,8,,,,,,,,5,,,44,0
72719,note_on,0,0,8,,,,,,,,5,,,32,0
72719,note_on,59,0,3,,,,,,,,0,,,56,0
72719,note_on,59,0,1,,,,,,,,3,,,80,0
72719,note_on,29,0,7,,,,,,,,5,,,65,0
72719,note_on,0,0,3,,,,,,,,0,,,44,0
72719,note_on,59,0,2,,,,,,,,6,,,68,0
72720,note_on,0,0,3,,,,,,,,0,,,55,80
72720,note_on,1,0,2,,,,,,,,6,,,67,80
72720,note_on,1,0,8,,,,,,,,5,,,31,82
72720,note_on,0,0,8,,,,,,,,5,,,43,82
72720,note_on,1,0,3,,,,,,,,0,,,43,80
72720,note_on,1,0,7,,,,,,,,5,,,55,72
72720,note_on,1,0,1,,,,,,,,3,,,79,80
72739,note_on,19,0,7,,,,,,,,5,,,55,0
72740,note_on,1,0,7,,,,,,,,5,,,59,85
72759,note_on,19,0,7,,,,,,,,5,,,59,0
72760,note_on,1,0,7,,,,,,,,5,,,62,85
72779,note_on,19,0,7,,,,,,,,5,,,62,0
72780,note_on,1,0,7,,,,,,,,5,,,65,78
72799,note_on,19,0,7,,,,,,,,5,,,65,0
72800,note_on,1,0,7,,,,,,,,5,,,62,85
72819,note_on,19,0,7,,,,,,,,5,,,62,0
72820,note_on,1,0,7,,,,,,,,5,,,59,80
72839,note_on,19,0,7,,,,,,,,5,,,59,0
72840,note_on,1,0,7,,,,,,,,5,,,55,85
72859,note_on,19,0,7,,,,,,,,5,,,55,0
72860,note_on,1,0,7,,,,,,,,5,,,62,82
72879,note_on,19,0,7,,,,,,,,5,,,62,0
72880,note_on,1,0,7,,,,,,,,5,,,65,82
72899,note_on,0,0,3,,,,,,,,0,,,43,0
72899,note_on,179,0,3,,,,,,,,0,,,55,0
72899,note_on,179,0,2,,,,,,,,6,,,67,0
72899,note_on,0,0,8,,,,,,,,5,,,31,0
72899,note_on,179,0,8,,,,,,,,5,,,43,0
72899,note_on,179,0,1,,,,,,,,3,,,79,0
72899,note_on,19,0,7,,,,,,,,5,,,65,0
72900,note_on,1,0,8,,,,,,,,5,,,32,66
72900,note_on,1,0,1,,,,,,,,3,,,80,80
72900,note_on,1,0,7,,,,,,,,5,,,56,80
72900,note_on,1,0,3,,,,,,,,0,,,44,80
72900,note_on,0,0,3,,,,,,,,0,,,56,80
72900,note_on,1,0,2,,,,,,,,6,,,68,80
72900,note_on,0,0,8,,,,,,,,5,,,44,66
72919,note_on,19,0,7,,,,,,,,5,,,56,0
72920,note_on,1,0,7,,,,,,,,5,,,62,80
72939,note_on,19,0,7,,,,,,,,5,,,62,0
72940,note_on,1,0,7,,,,,,,,5,,,65,76
72959,note_on,19,0,7,,,,,,,,5,,,65,0
72959,note_on,59,0,3,,,,,,,,0,,,56,0
72959,note_on,0,0,3,,,,,,,,0,,,44,0
72959,note_on,59,0,8,,,,,,,,5,,,44,0
72959,note_on,0,0,8,,,,,,,,5,,,32,0
72959,note_on,59,0,1,,,,,,,,3,,,80,0
72959,note_on,59,0,2,,,,,,,,6,,,68,0
72960,note_on,0,0,3,,,,,,,,0,,,55,80
72960,note_on,1,0,3,,,,,,,,0,,,43,80
72960,note_on,1,0,1,,,,,,,,3,,,79,80
72960,note_on,1,0,7,,,,,,,,5,,,55,80
72960,note_on,0,0,8,,,,,,,,5,,,43,85
72960,note_on,1,0,8,,,,,,,,5,,,31,82
72960,note_on,1,0,2,,,,,,,,6,,,67,80
72979,note_on,19,0,7,,,,,,,,5,,,55,0
72980,note_on,1,0,7,,,,,,,,5,,,59,78
72999,note_on,19,0,7,,,,,,,,5,,,59,0
73000,note_on,1,0,7,,,,,,,,5,,,62,82
73019,note_on,19,0,7,,,,,,,,5,,,62,0
73020,note_on,1,0,7,,,,,,,,5,,,65,85
73039,note_on,19,0,7,,,,,,,,5,,,65,0
73040,note_on,1,0,7,,,,,,,,5,,,62,80
73059,note_on,19,0,7,,,,,,,,5,,,62,0
73060,note_on,1,0,7,,,,,,,,5,,,59,78
73079,note_on,19,0,7,,,,,,,,5,,,59,0
73080,note_on,1,0,7,,,,,,,,5,,,55,82
73099,note_on,19,0,7,,,,,,,,5,,,55,0
73100,note_on,1,0,7,,,,,,,,5,,,62,85
73119,note_on,19,0,7,,,,,,,,5,,,62,0
73120,note_on,1,0,7,,,,,,,,5,,,65,82
73139,note_on,0,0,8,,,,,,,,5,,,31,0
73139,note_on,19,0,7,,,,,,,,5,,,65,0
73139,note_on,179,0,8,,,,,,,,5,,,43,0
73139,note_on,179,0,2,,,,,,,,6,,,67,0
73139,note_on,179,0,3,,,,,,,,0,,,55,0
73139,note_on,0,0,3,,,,,,,,0,,,43,0
73139,note_on,179,0,1,,,,,,,,3,,,79,0
73140,note_on,1,0,7,,,,,,,,5,,,56,85
73140,note_on,1,0,2,,,,,,,,6,,,68,76
73140,note_on,1,0,1,,,,,,,,3,,,80,76
73140,note_on,0,0,3,,,,,,,,0,,,56,76
73140,note_on,1,0,3,,,,,,,,0,,,44,76
73140,note_on,1,0,8,,,,,,,,5,,,32,63
73140,note_on,0,0,8,,,,,,,,5,,,44,52
73159,note_on,19,0,7,,,,,,,,5,,,56,0
73160,note_on,1,0,7,,,,,,,,5,,,62,82
73179,note_on,19,0,7,,,,,,,,5,,,62,0
73180,note_on,1,0,7,,,,,,,,5,,,65,82
73199,note_on,0,0,8,,,,,,,,5,,,32,0
73199,note_on,59,0,1,,,,,,,,3,,,80,0
73199,note_on,59,0,2,,,,,,,,6,,,68,0
73199,note_on,19,0,7,,,,,,,,5,,,65,0
73199,note_on,59,0,8,,,,,,,,5,,,44,0
73199,note_on,59,0,3,,,,,,,,0,,,56,0
73199,note_on,0,0,3,,,,,,,,0,,,44,0
73200,note_on,0,0,3,,,,,,,,0,,,55,78
73200,note_on,1,0,3,,,,,,,,0,,,43,78
73200,note_on,1,0,2,,,,,,,,6,,,67,78
73200,note_on,0,0,8,,,,,,,,5,,,31,85
73200,note_on,1,0,8,,,,,,,,5,,,43,89
73200,note_on,1,0,1,,,,,,,,3,,,79,78
73200,note_on,1,0,7,,,,,,,,5,,,55,82
73219,note_on,19,0,7,,,,,,,,5,,,55,0
73220,note_on,1,0,7,,,,,,,,5,,,62,78
73239,note_on,19,0,7,,,,,,,,5,,,62,0
73240,note_on,1,0,7,,,,,,,,5,,,65,80
73259,note_on,19,0,7,,,,,,,,5,,,65,0
73259,note_on,0,0,3,,,,,,,,0,,,43,0
73259,note_on,59,0,3,,,,,,,,0,,,55,0
73259,note_on,59,0,8,,,,,,,,5,,,31,0
73259,note_on,0,0,8,,,,,,,,5,,,43,0
73259,note_on,59,0,1,,,,,,,,3,,,79,0
73259,note_on,59,0,2,,,,,,,,6,,,67,0
73260,note_on,0,0,3,,,,,,,,0,,,56,76
73260,note_on,1,0,3,,,,,,,,0,,,44,76
73260,note_on,1,0,8,,,,,,,,5,,,44,50
73260,note_on,0,0,8,,,,,,,,5,,,32,28
73260,note_on,1,0,1,,,,,,,,3,,,80,76
73260,note_on,1,0,7,,,,,,,,5,,,56,72
73260,note_on,1,0,2,,,,,,,,6,,,68,76
73279,note_on,19,0,7,,,,,,,,5,,,56,0
73280,note_on,1,0,7,,,,,,,,5,,,62,60
73299,note_on,19,0,7,,,,,,,,5,,,62,0
73300,note_on,1,0,7,,,,,,,,5,,,65,55
73319,note_on,0,0,3,,,,,,,,0,,,44,0
73319,note_on,59,0,8,,,,,,,,5,,,32,0
73319,note_on,59,0,3,,,,,,,,0,,,56,0
73319,note_on,19,0,7,,,,,,,,5,,,65,0
73319,note_on,59,0,2,,,,,,,,6,,,68,0
73319,note_on,0,0,8,,,,,,,,5,,,44,0
73319,note_on,59,0,1,,,,,,,,3,,,80,0
73320,note_on,1,0,1,,,,,,,,3,,,79,74
73320,note_on,1,0,8,,,,,,,,5,,,43,85
73320,note_on,1,0,7,,,,,,,,5,,,55,72
73320,note_on,1,0,3,,,,,,,,0,,,43,74
73320,note_on,0,0,3,,,,,,,,0,,,55,74
73320,note_on,0,0,8,,,,,,,,5,,,31,82
73320,note_on,1,0,2,,,,,,,,6,,,67,74
73339,note_on,19,0,7,,,,,,,,5,,,55,0
73340,note_on,1,0,7,,,,,,,,5,,,62,68
73359,note_on,19,0,7,,,,,,,,5,,,62,0
73360,note_on,1,0,7,,,,,,,,5,,,65,68
73379,note_on,59,0,3,,,,,,,,0,,,55,0
73379,note_on,0,0,3,,,,,,,,0,,,43,0
73379,note_on,59,0,8,,,,,,,,5,,,31,0
73379,note_on,0,0,8,,,,,,,,5,,,43,0
73379,note_on,59,0,2,,,,,,,,6,,,67,0
73379,note_on,59,0,1,,,,,,,,3,,,79,0
73379,note_on,19,0,7,,,,,,,,5,,,65,0
73380,note_on,0,0,8,,,,,,,,5,,,44,74
73380,note_on,1,0,8,,,,,,,,5,,,32,72
73380,note_on,1,0,1,,,,,,,,3,,,80,80
73380,note_on,1,0,7,,,,,,,,5,,,56,74
73380,note_on,1,0,2,,,,,,,,6,,,68,80
73380,note_on,1,0,3,,,,,,,,0,,,44,80
73380,note_on,0,0,3,,,,,,,,0,,,56,80
73399,note_on,19,0,7,,,,,,,,5,,,56,0
73400,note_on,1,0,7,,,,,,,,5,,,62,78
73419,note_on,19,0,7,,,,,,,,5,,,62,0
73420,note_on,1,0,7,,,,,,,,5,,,65,85
73439,note_on,59,0,8,,,,,,,,5,,,44,0
73439,note_on,0,0,3,,,,,,,,0,,,44,0
73439,note_on,59,0,2,,,,,,,,6,,,68,0
73439,note_on,19,0,7,,,,,,,,5,,,65,0
73439,note_on,59,0,1,,,,,,,,3,,,80,0
73439,note_on,0,0,8,,,,,,,,5,,,32,0
73439,note_on,59,0,3,,,,,,,,0,,,56,0
73440,note_on,0,0,8,,,,,,,,5,,,43,85
73440,note_on,1,0,8,,,,,,,,5,,,31,85
73440,note_on,1,0,2,,,,,,,,6,,,67,82
73440,note_on,1,0,3,,,,,,,,0,,,43,82
73440,note_on,0,0,3,,,,,,,,0,,,55,82
73440,note_on,1,0,1,,,,,,,,3,,,79,82
73470,note_on,31,0,7,,,,,,,,5,,,54,74
73484,note_on,14,0,7,,,,,,,,5,,,54,0
73485,note_on,1,0,7,,,,,,,,5,,,66,70
73499,note_on,14,0,7,,,,,,,,5,,,66,0
73500,note_on,1,0,7,,,,,,,,5,,,55,82
73514,note_on,14,0,7,,,,,,,,5,,,55,0
73515,note_on,1,0,7,,,,,,,,5,,,67,74
73529,note_on,14,0,7,,,,,,,,5,,,67,0
73530,note_on,1,0,7,,,,,,,,5,,,57,82
73544,note_on,14,0,7,,,,,,,,5,,,57,0
73545,note_on,1,0,7,,,,,,,,5,,,69,72
73559,note_on,119,0,3,,,,,,,,0,,,55,0
73559,note_on,119,0,1,,,,,,,,3,,,79,0
73559,note_on,119,0,2,,,,,,,,6,,,67,0
73559,note_on,119,0,8,,,,,,,,5,,,43,0
73559,note_on,0,0,3,,,,,,,,0,,,43,0
73559,note_on,14,0,7,,,,,,,,5,,,69,0
73559,note_on,0,0,8,,,,,,,,5,,,31,0
73560,note_on,1,0,7,,,,,,,,5,,,59,80
73574,note_on,14,0,7,,,,,,,,5,,,59,0
73575,note_on,1,0,7,,,,,,,,5,,,71,70
73589,note_on,14,0,7,,,,,,,,5,,,71,0
73590,note_on,1,0,7,,,,,,,,5,,,60,80
73604,note_on,14,0,7,,,,,,,,5,,,60,0
73605,note_on,1,0,7,,,,,,,,5,,,72,70
73619,note_on,14,0,7,,,,,,,,5,,,72,0
73620,note_on,1,0,7,,,,,,,,5,,,62,80
73634,note_on,14,0,7,,,,,,,,5,,,62,0
73635,note_on,1,0,7,,,,,,,,5,,,74,70
73649,note_on,14,0,7,,,,,,,,5,,,74,0
73650,note_on,1,0,7,,,,,,,,5,,,64,80
73664,note_on,14,0,7,,,,,,,,5,,,64,0
73665,note_on,1,0,7,,,,,,,,5,,,76,82
73679,note_on,14,0,7,,,,,,,,5,,,76,0
73680,note_on,1,0,7,,,,,,,,5,,,65,82
73694,note_on,14,0,7,,,,,,,,5,,,65,0
73695,note_on,1,0,7,,,,,,,,5,,,77,70
73709,note_on,14,0,7,,,,,,,,5,,,77,0
73710,note_on,1,0,7,,,,,,,,5,,,67,72
73724,note_on,14,0,7,,,,,,,,5,,,67,0
73725,note_on,1,0,7,,,,,,,,5,,,79,63
73739,note_on,14,0,7,,,,,,,,5,,,79,0
73740,note_on,1,0,7,,,,,,,,5,,,69,78
73754,note_on,14,0,7,,,,,,,,5,,,69,0
73755,note_on,1,0,7,,,,,,,,5,,,81,70
73769,note_on,14,0,7,,,,,,,,5,,,81,0
73770,note_on,1,0,7,,,,,,,,5,,,71,80
73784,note_on,14,0,7,,,,,,,,5,,,71,0
73785,note_on,1,0,7,,,,,,,,5,,,83,76
73799,note_on,14,0,7,,,,,,,,5,,,83,0
73800,note_on,1,0,7,,,,,,,,5,,,72,78
73814,note_on,14,0,7,,,,,,,,5,,,72,0
73815,note_on,1,0,7,,,,,,,,5,,,84,85
73859,note_on,44,0,7,,,,,,,,5,,,84,0
73860,note_on,1,0,7,,,,,,,,5,,,84,87
73919,note_on,59,0,7,,,,,,,,5,,,84,0
73920,note_on,1,0,7,,,,,,,,5,,,79,74
73920,note_on,361,0,8,,,,,,,,5,,,64,80
73950,note_on,30,0,8,,,,,,,,5,,,60,70
73979,note_on,59,0,7,,,,,,,,5,,,79,0
73980,note_on,0,0,8,,,,,,,,5,,,64,60
73980,note_on,30,0,8,,,,,,,,5,,,64,0
73980,note_on,1,0,7,,,,,,,,5,,,79,78
74010,note_on,0,0,8,,,,,,,,5,,,60,57
74010,note_on,30,0,8,,,,,,,,5,,,60,0
74039,note_on,59,0,7,,,,,,,,5,,,79,0
74040,note_on,1,0,7,,,,,,,,5,,,81,82
74040,note_on,0,0,8,,,,,,,,5,,,65,60
74040,note_on,30,0,8,,,,,,,,5,,,64,0
74070,note_on,0,0,8,,,,,,,,5,,,60,64
74070,note_on,30,0,8,,,,,,,,5,,,60,0
74099,note_on,59,0,7,,,,,,,,5,,,81,0
74100,note_on,30,0,8,,,,,,,,5,,,65,0
74100,note_on,0,0,8,,,,,,,,5,,,65,59
74100,note_on,1,0,7,,,,,,,,5,,,81,82
74130,note_on,30,0,8,,,,,,,,5,,,60,0
74130,note_on,0,0,8,,,,,,,,5,,,60,66
74159,note_on,59,0,7,,,,,,,,5,,,81,0
74160,note_on,1,0,7,,,,,,,,5,,,76,80
74160,note_on,0,0,8,,,,,,,,5,,,67,64
74160,note_on,30,0,8,,,,,,,,5,,,65,0
74190,note_on,0,0,8,,,,,,,,5,,,60,58
74190,note_on,30,0,8,,,,,,,,5,,,60,0
74219,note_on,59,0,7,,,,,,,,5,,,76,0
74220,note_on,1,0,7,,,,,,,,5,,,76,80
74220,note_on,30,0,8,,,,,,,,5,,,67,0
74220,note_on,0,0,8,,,,,,,,5,,,67,58
74250,note_on,30,0,8,,,,,,,,5,,,60,0
74250,note_on,0,0,8,,,,,,,,5,,,60,59
74279,note_on,59,0,7,,,,,,,,5,,,76,0
74280,note_on,30,0,8,,,,,,,,5,,,67,0
74280,note_on,0,0,8,,,,,,,,5,,,69,57
74280,note_on,1,0,7,,,,,,,,5,,,77,74
74310,note_on,30,0,8,,,,,,,,5,,,60,0
74310,note_on,0,0,8,,,,,,,,5,,,60,58
74339,note_on,59,0,7,,,,,,,,5,,,77,0
74340,note_on,30,0,8,,,,,,,,5,,,69,0
74340,note_on,0,0,8,,,,,,,,5,,,69,60
74340,note_on,1,0,7,,,,,,,,5,,,77,82
74370,note_on,0,0,8,,,,,,,,5,,,60,52
74370,note_on,30,0,8,,,,,,,,5,,,60,0
74399,note_on,59,0,7,,,,,,,,5,,,77,0
74400,note_on,30,0,8,,,,,,,,5,,,69,0
74400,note_on,0,0,8,,,,,,,,5,,,64,64
74400,note_on,1,0,7,,,,,,,,5,,,79,78
74429,note_on,29,0,7,,,,,,,,5,,,79,0
74430,note_on,0,0,8,,,,,,,,5,,,60,57
74430,note_on,30,0,8,,,,,,,,5,,,60,0
74430,note_on,1,0,7,,,,,,,,5,,,76,82
74459,note_on,29,0,7,,,,,,,,5,,,76,0
74460,note_on,30,0,8,,,,,,,,5,,,64,0
74460,note_on,0,0,8,,,,,,,,5,,,64,57
74460,note_on,1,0,7,,,,,,,,5,,,79,64
74489,note_on,29,0,7,,,,,,,,5,,,79,0
74490,note_on,0,0,8,,,,,,,,5,,,60,63
74490,note_on,1,0,7,,,,,,,,5,,,76,70
74490,note_on,30,0,8,,,,,,,,5,,,60,0
74519,note_on,29,0,7,,,,,,,,5,,,76,0
74520,note_on,30,0,8,,,,,,,,5,,,64,0
74520,note_on,1,0,7,,,,,,,,5,,,81,76
74520,note_on,0,0,8,,,,,,,,5,,,65,54
74549,note_on,29,0,7,,,,,,,,5,,,81,0
74550,note_on,1,0,7,,,,,,,,5,,,79,74
74550,note_on,30,0,8,,,,,,,,5,,,60,0
74550,note_on,0,0,8,,,,,,,,5,,,64,68
74579,note_on,29,0,7,,,,,,,,5,,,79,0
74580,note_on,30,0,8,,,,,,,,5,,,65,0
74580,note_on,1,0,7,,,,,,,,5,,,77,80
74580,note_on,0,0,8,,,,,,,,5,,,62,61
74609,note_on,29,0,7,,,,,,,,5,,,77,0
74610,note_on,1,0,7,,,,,,,,5,,,76,80
74610,note_on,30,0,8,,,,,,,,5,,,64,0
74610,note_on,0,0,8,,,,,,,,5,,,60,61
74639,note_on,29,0,7,,,,,,,,5,,,76,0
74640,note_on,1,0,7,,,,,,,,5,,,73,76
74640,note_on,0,0,8,,,,,,,,5,,,55,79
74640,note_on,0,0,8,,,,,,,,5,,,58,80
74640,note_on,30,0,8,,,,,,,,5,,,62,0
74669,note_on,29,0,8,,,,,,,,5,,,58,0
74669,note_on,29,0,7,,,,,,,,5,,,73,0
74670,note_on,1,0,7,,,,,,,,5,,,74,85
74670,note_on,1,0,8,,,,,,,,5,,,60,0
74670,note_on,0,0,8,,,,,,,,5,,,59,85
74699,note_on,29,0,8,,,,,,,,5,,,59,0
74699,note_on,29,0,7,,,,,,,,5,,,74,0
74700,note_on,1,0,7,,,,,,,,5,,,74,85
74700,note_on,1,0,8,,,,,,,,5,,,59,78
74759,note_on,0,0,8,,,,,,,,5,,,55,0
74759,note_on,59,0,7,,,,,,,,5,,,74,0
74759,note_on,59,0,8,,,,,,,,5,,,59,0
74760,note_on,1,0,7,,,,,,,,5,,,84,85
74819,note_on,59,0,7,,,,,,,,5,,,84,0
74820,note_on,1,0,7,,,,,,,,5,,,84,85
74879,note_on,59,0,7,,,,,,,,5,,,84,0
74880,note_on,121,0,8,,,,,,,,5,,,64,68
74880,note_on,1,0,7,,,,,,,,5,,,79,80
74910,note_on,30,0,8,,,,,,,,5,,,60,61
74939,note_on,59,0,7,,,,,,,,5,,,79,0
74940,note_on,1,0,7,,,,,,,,5,,,79,78
74940,note_on,30,0,8,,,,,,,,5,,,64,0
74940,note_on,0,0,8,,,,,,,,5,,,64,57
74970,note_on,30,0,8,,,,,,,,5,,,60,0
74970,note_on,0,0,8,,,,,,,,5,,,60,57
74999,note_on,59,0,7,,,,,,,,5,,,79,0
75000,note_on,1,0,7,,,,,,,,5,,,81,80
75000,note_on,0,0,8,,,,,,,,5,,,65,52
75000,note_on,30,0,8,,,,,,,,5,,,64,0
75030,note_on,30,0,8,,,,,,,,5,,,60,0
75030,note_on,0,0,8,,,,,,,,5,,,60,58
75059,note_on,59,0,7,,,,,,,,5,,,81,0
75060,note_on,1,0,7,,,,,,,,5,,,81,78
75060,note_on,30,0,8,,,,,,,,5,,,65,0
75060,note_on,0,0,8,,,,,,,,5,,,65,44
75090,note_on,0,0,8,,,,,,,,5,,,60,57
75090,note_on,30,0,8,,,,,,,,5,,,60,0
75119,note_on,59,0,7,,,,,,,,5,,,81,0
75120,note_on,0,0,8,,,,,,,,5,,,67,52
75120,note_on,30,0,8,,,,,,,,5,,,65,0
75120,note_on,1,0,7,,,,,,,,5,,,76,85
75150,note_on,0,0,8,,,,,,,,5,,,60,60
75150,note_on,30,0,8,,,,,,,,5,,,60,0
75179,note_on,59,0,7,,,,,,,,5,,,76,0
75180,note_on,30,0,8,,,,,,,,5,,,67,0
75180,note_on,0,0,8,,,,,,,,5,,,67,53
75180,note_on,1,0,7,,,,,,,,5,,,76,82
75210,note_on,0,0,8,,,,,,,,5,,,60,51
75210,note_on,30,0,8,,,,,,,,5,,,60,0
75239,note_on,59,0,7,,,,,,,,5,,,76,0
75240,note_on,0,0,8,,,,,,,,5,,,69,55
75240,note_on,1,0,7,,,,,,,,5,,,77,82
75240,note_on,30,0,8,,,,,,,,5,,,67,0
75270,note_on,0,0,8,,,,,,,,5,,,60,52
75270,note_on,30,0,8,,,,,,,,5,,,60,0
75299,note_on,59,0,7,,,,,,,,5,,,77,0
75300,note_on,0,0,8,,,,,,,,5,,,69,56
75300,note_on,1,0,7,,,,,,,,5,,,77,85
75300,note_on,30,0,8,,,,,,,,5,,,69,0
75330,note_on,30,0,8,,,,,,,,5,,,60,0
75330,note_on,0,0,8,,,,,,,,5,,,60,53
75359,note_on,59,0,7,,,,,,,,5,,,77,0
75360,note_on,1,0,7,,,,,,,,5,,,79,78
75360,note_on,30,0,8,,,,,,,,5,,,69,0
75360,note_on,0,0,8,,,,,,,,5,,,64,54
75389,note_on,29,0,7,,,,,,,,5,,,79,0
75390,note_on,30,0,8,,,,,,,,5,,,60,0
75390,note_on,1,0,7,,,,,,,,5,,,76,85
75390,note_on,0,0,8,,,,,,,,5,,,60,60
75419,note_on,29,0,7,,,,,,,,5,,,76,0
75420,note_on,1,0,7,,,,,,,,5,,,81,85
75420,note_on,30,0,8,,,,,,,,5,,,64,0
75420,note_on,0,0,8,,,,,,,,5,,,65,72
75449,note_on,29,0,7,,,,,,,,5,,,81,0
75450,note_on,1,0,7,,,,,,,,5,,,77,85
75450,note_on,30,0,8,,,,,,,,5,,,60,0
75450,note_on,0,0,8,,,,,,,,5,,,62,68
75479,note_on,29,0,7,,,,,,,,5,,,77,0
75480,note_on,0,0,8,,,,,,,,5,,,60,82
75480,note_on,30,0,8,,,,,,,,5,,,65,0
75480,note_on,0,0,8,,,,,,,,5,,,55,80
75480,note_on,1,0,7,,,,,,,,5,,,76,87
75510,note_on,30,0,8,,,,,,,,5,,,62,0
75539,note_on,29,0,8,,,,,,,,5,,,60,0
75539,note_on,0,0,8,,,,,,,,5,,,55,0
75539,note_on,59,0,7,,,,,,,,5,,,76,0
75540,note_on,1,0,8,,,,,,,,5,,,55,80
75540,note_on,0,0,8,,,,,,,,5,,,59,78
75540,note_on,1,0,7,,,,,,,,5,,,74,85
75599,note_on,59,0,7,,,,,,,,5,,,74,0
75599,note_on,59,0,8,,,,,,,,5,,,59,0
75599,note_on,0,0,8,,,,,,,,5,,,55,0
75600,note_on,1,0,8,,,,,,,,5,,,60,85
75600,note_on,1,0,7,,,,,,,,5,,,72,87
75659,note_on,59,0,8,,,,,,,,5,,,60,0
75660,note_on,1,0,8,,,,,,,,5,,,48,87
75719,note_on,119,0,7,,,,,,,,5,,,72,0
75719,note_on,59,0,8,,,,,,,,5,,,48,0
75720,note_on,0,0,4,,,,,,,,7,,,64,66
75720,note_on,12961,0,4,,,,,,,,7,,,72,68
75720,note_on,2161,0,2,,,,,,,,6,,,67,68
75720,note_on,2161,0,1,,,,,,,,3,,,84,82
75720,note_on,0,0,2,,,,,,,,6,,,72,82
75750,note_on,0,0,2,,,,,,,,6,,,67,0
75750,note_on,30,0,2,,,,,,,,6,,,72,0
75750,note_on,0,0,4,,,,,,,,7,,,72,0
75750,note_on,30,0,4,,,,,,,,7,,,64,0
75750,note_on,30,0,1,,,,,,,,3,,,84,0
75780,note_on,30,0,4,,,,,,,,7,,,64,68
75780,note_on,0,0,4,,,,,,,,7,,,72,74
75780,note_on,30,0,1,,,,,,,,3,,,84,80
75780,note_on,30,0,2,,,,,,,,6,,,72,85
75780,note_on,0,0,2,,,,,,,,6,,,67,78
75810,note_on,30,0,4,,,,,,,,7,,,72,0
75810,note_on,0,0,4,,,,,,,,7,,,64,0
75810,note_on,30,0,1,,,,,,,,3,,,84,0
75810,note_on,30,0,2,,,,,,,,6,,,67,0
75810,note_on,0,0,2,,,,,,,,6,,,72,0
75840,note_on,30,0,4,,,,,,,,7,,,64,66
75840,note_on,0,0,4,,,,,,,,7,,,72,70
75840,note_on,30,0,2,,,,,,,,6,,,72,78
75840,note_on,0,0,2,,,,,,,,6,,,67,66
75840,note_on,30,0,1,,,,,,,,3,,,84,82
75929,note_on,89,0,1,,,,,,,,3,,,84,0
75929,note_on,0,0,2,,,,,,,,6,,,72,0
75929,note_on,89,0,2,,,,,,,,6,,,67,0
75929,note_on,0,0,4,,,,,,,,7,,,64,0
75929,note_on,89,0,4,,,,,,,,7,,,72,0
75930,note_on,1,0,1,,,,,,,,3,,,86,76
75930,note_on,0,0,2,,,,,,,,6,,,71,76
75930,note_on,1,0,2,,,,,,,,6,,,74,78
75930,note_on,1,0,4,,,,,,,,7,,,67,72
75930,note_on,0,0,4,,,,,,,,7,,,74,85
75959,note_on,29,0,1,,,,,,,,3,,,86,0
75959,note_on,29,0,4,,,,,,,,7,,,74,0
75959,note_on,29,0,2,,,,,,,,6,,,71,0
75959,note_on,0,0,2,,,,,,,,6,,,74,0
75959,note_on,0,0,4,,,,,,,,7,,,67,0
75960,note_on,0,0,4,,,,,,,,7,,,72,66
75960,note_on,1,0,4,,,,,,,,7,,,76,70
75960,note_on,1,0,2,,,,,,,,6,,,76,82
75960,note_on,1,0,1,,,,,,,,3,,,88,82
75960,note_on,0,0,2,,,,,,,,6,,,72,74
76019,note_on,59,0,1,,,,,,,,3,,,88,0
76019,note_on,0,0,2,,,,,,,,6,,,76,0
76019,note_on,59,0,2,,,,,,,,6,,,72,0
76019,note_on,59,0,4,,,,,,,,7,,,72,0
76019,note_on,0,0,4,,,,,,,,7,,,76,0
76020,note_on,1,0,4,,,,,,,,7,,,77,78
76020,note_on,0,0,4,,,,,,,,7,,,74,82
76020,note_on,1,0,1,,,,,,,,3,,,89,85
76020,note_on,1,0,2,,,,,,,,6,,,77,72
76020,note_on,0,0,2,,,,,,,,6,,,74,72
76079,note_on,59,0,4,,,,,,,,7,,,74,0
76079,note_on,59,0,1,,,,,,,,3,,,89,0
76079,note_on,59,0,2,,,,,,,,6,,,74,0
76079,note_on,0,0,2,,,,,,,,6,,,77,0
76079,note_on,0,0,4,,,,,,,,7,,,77,0
76080,note_on,1,0,1,,,,,,,,3,,,86,85
76080,note_on,17161,0,6,,,,,,,,4,,,43,70
76080,note_on,0,0,2,,,,,,,,6,,,74,59
76080,note_on,1,0,4,,,,,,,,7,,,74,82
76080,note_on,2521,0,3,,,,,,,,0,,,55,87
76080,note_on,17161,0,5,,,,,,,,1,,,67,74
76080,note_on,0,0,5,,,,,,,,1,,,74,76
76080,note_on,0,0,4,,,,,,,,7,,,67,82
76080,note_on,1,0,2,,,,,,,,6,,,71,82
76139,note_on,0,0,5,,,,,,,,1,,,67,0
76139,note_on,59,0,5,,,,,,,,1,,,74,0
76139,note_on,59,0,3,,,,,,,,0,,,55,0
76139,note_on,59,0,2,,,,,,,,6,,,74,0
76139,note_on,0,0,2,,,,,,,,6,,,71,0
76139,note_on,0,0,4,,,,,,,,7,,,74,0
76139,note_on,59,0,1,,,,,,,,3,,,86,0
76139,note_on,59,0,4,,,,,,,,7,,,67,0
76139,note_on,59,0,6,,,,,,,,4,,,43,0
76140,note_on,0,0,5,,,,,,,,1,,,74,76
76140,note_on,1,0,5,,,,,,,,1,,,67,70
76140,note_on,1,0,3,,,,,,,,0,,,43,63
76140,note_on,1,0,6,,,,,,,,4,,,43,70
76199,note_on,59,0,3,,,,,,,,0,,,43,0
76199,note_on,59,0,6,,,,,,,,4,,,43,0
76199,note_on,0,0,5,,,,,,,,1,,,67,0
76199,note_on,59,0,5,,,,,,,,1,,,74,0
76200,note_on,61,0,4,,,,,,,,7,,,74,82
76200,note_on,0,0,4,,,,,,,,7,,,67,74
76200,note_on,61,0,1,,,,,,,,3,,,86,80
76200,note_on,0,0,2,,,,,,,,6,,,71,78
76200,note_on,61,0,2,,,,,,,,6,,,74,76
76230,note_on,0,0,2,,,,,,,,6,,,74,0
76230,note_on,30,0,2,,,,,,,,6,,,71,0
76230,note_on,30,0,1,,,,,,,,3,,,86,0
76230,note_on,30,0,4,,,,,,,,7,,,67,0
76230,note_on,0,0,4,,,,,,,,7,,,74,0
76260,note_on,30,0,1,,,,,,,,3,,,86,76
76260,note_on,30,0,2,,,,,,,,6,,,71,80
76260,note_on,30,0,4,,,,,,,,7,,,67,74
76260,note_on,0,0,2,,,,,,,,6,,,74,76
76260,note_on,0,0,4,,,,,,,,7,,,74,85
76290,note_on,0,0,4,,,,,,,,7,,,67,0
76290,note_on,30,0,4,,,,,,,,7,,,74,0
76290,note_on,0,0,2,,,,,,,,6,,,71,0
76290,note_on,30,0,2,,,,,,,,6,,,74,0
76290,note_on,30,0,1,,,,,,,,3,,,86,0
76320,note_on,30,0,4,,,,,,,,7,,,67,70
76320,note_on,0,0,4,,,,,,,,7,,,74,78
76320,note_on,30,0,1,,,,,,,,3,,,86,85
76320,note_on,0,0,2,,,,,,,,6,,,71,80
76320,note_on,30,0,2,,,,,,,,6,,,74,76
76409,note_on,89,0,1,,,,,,,,3,,,86,0
76409,note_on,89,0,2,,,,,,,,6,,,71,0
76409,note_on,0,0,2,,,,,,,,6,,,74,0
76409,note_on,89,0,4,,,,,,,,7,,,74,0
76409,note_on,0,0,4,,,,,,,,7,,,67,0
76410,note_on,1,0,1,,,,,,,,3,,,88,85
76410,note_on,0,0,2,,,,,,,,6,,,72,80
76410,note_on,0,0,4,,,,,,,,7,,,76,78
76410,note_on,1,0,2,,,,,,,,6,,,76,72
76410,note_on,1,0,4,,,,,,,,7,,,72,80
76439,note_on,29,0,4,,,,,,,,7,,,76,0
76439,note_on,0,0,2,,,,,,,,6,,,76,0
76439,note_on,0,0,4,,,,,,,,7,,,72,0
76439,note_on,29,0,2,,,,,,,,6,,,72,0
76439,note_on,29,0,1,,,,,,,,3,,,88,0
76440,note_on,1,0,1,,,,,,,,3,,,89,82
76440,note_on,1,0,4,,,,,,,,7,,,77,82
76440,note_on,0,0,2,,,,,,,,6,,,77,70
76440,note_on,1,0,2,,,,,,,,6,,,74,80
76440,note_on,0,0,4,,,,,,,,7,,,74,74
76499,note_on,0,0,4,,,,,,,,7,,,77,0
76499,note_on,0,0,2,,,,,,,,6,,,74,0
76499,note_on,59,0,1,,,,,,,,3,,,89,0
76499,note_on,59,0,2,,,,,,,,6,,,77,0
76499,note_on,59,0,4,,,,,,,,7,,,74,0
76500,note_on,1,0,1,,,,,,,,3,,,91,85
76500,note_on,1,0,2,,,,,,,,6,,,71,66
76500,note_on,0,0,4,,,,,,,,7,,,67,74
76500,note_on,1,0,4,,,,,,,,7,,,74,85
76500,note_on,0,0,2,,,,,,,,6,,,79,78
76559,note_on,59,0,4,,,,,,,,7,,,67,0
76559,note_on,0,0,2,,,,,,,,6,,,71,0
76559,note_on,59,0,1,,,,,,,,3,,,91,0
76559,note_on,0,0,4,,,,,,,,7,,,74,0
76559,note_on,59,0,2,,,,,,,,6,,,79,0
76560,note_on,361,0,5,,,,,,,,1,,,76,80
76560,note_on,0,0,5,,,,,,,,1,,,72,70
76560,note_on,361,0,6,,,,,,,,4,,,48,72
76560,note_on,0,0,2,,,,,,,,6,,,72,80
76560,note_on,1,0,2,,,,,,,,6,,,76,85
76560,note_on,361,0,3,,,,,,,,0,,,60,82
76560,note_on,1,0,1,,,,,,,,3,,,88,85
76560,note_on,1,0,4,,,,,,,,7,,,76,76
76560,note_on,0,0,4,,,,,,,,7,,,72,80
76619,note_on,59,0,3,,,,,,,,0,,,60,0
76619,note_on,59,0,1,,,,,,,,3,,,88,0
76619,note_on,59,0,5,,,,,,,,1,,,72,0
76619,note_on,59,0,2,,,,,,,,6,,,72,0
76619,note_on,0,0,2,,,,,,,,6,,,76,0
76619,note_on,0,0,4,,,,,,,,7,,,76,0
76619,note_on,59,0,4,,,,,,,,7,,,72,0
76619,note_on,0,0,5,,,,,,,,1,,,76,0
76619,note_on,59,0,6,,,,,,,,4,,,48,0
76620,note_on,0,0,5,,,,,,,,1,,,76,72
76620,note_on,1,0,3,,,,,,,,0,,,48,80
76620,note_on,1,0,5,,,,,,,,1,,,72,72
76620,note_on,1,0,6,,,,,,,,4,,,48,68
76679,note_on,59,0,3,,,,,,,,0,,,48,0
76679,note_on,0,0,5,,,,,,,,1,,,72,0
76679,note_on,59,0,5,,,,,,,,1,,,76,0
76679,note_on,59,0,6,,,,,,,,4,,,48,0
76680,note_on,961,0,7,,,,,,,,5,,,84,87
76710,note_on,30,0,7,,,,,,,,5,,,84,0
76740,note_on,30,0,7,,,,,,,,5,,,86,87
76754,note_on,14,0,7,,,,,,,,5,,,86,0
76755,note_on,1,0,7,,,,,,,,5,,,84,87
76769,note_on,14,0,7,,,,,,,,5,,,84,0
76770,note_on,1,0,7,,,,,,,,5,,,83,82
76784,note_on,14,0,7,,,,,,,,5,,,83,0
76785,note_on,1,0,7,,,,,,,,5,,,84,87
76799,note_on,14,0,7,,,,,,,,5,,,84,0
76800,note_on,1,0,7,,,,,,,,5,,,79,82
76859,note_on,59,0,7,,,,,,,,5,,,79,0
76860,note_on,1,0,7,,,,,,,,5,,,81,82
76874,note_on,14,0,7,,,,,,,,5,,,81,0
76875,note_on,1,0,7,,,,,,,,5,,,79,82
76889,note_on,14,0,7,,,,,,,,5,,,79,0
76890,note_on,1,0,7,,,,,,,,5,,,78,78
76904,note_on,14,0,7,,,,,,,,5,,,78,0
76905,note_on,1,0,7,,,,,,,,5,,,79,85
76919,note_on,14,0,7,,,,,,,,5,,,79,0
76920,note_on,1,0,7,,,,,,,,5,,,81,87
76979,note_on,59,0,7,,,,,,,,5,,,81,0
76980,note_on,1,0,7,,,,,,,,5,,,83,82
76994,note_on,14,0,7,,,,,,,,5,,,83,0
76995,note_on,1,0,7,,,,,,,,5,,,81,82
77009,note_on,14,0,7,,,,,,,,5,,,81,0
77010,note_on,1,0,7,,,,,,,,5,,,80,76
77024,note_on,14,0,7,,,,,,,,5,,,80,0
77025,note_on,1,0,7,,,,,,,,5,,,81,85
77039,note_on,14,0,7,,,,,,,,5,,,81,0
77040,note_on,421,0,4,,,,,,,,7,,,72,82
77040,note_on,0,0,4,,,,,,,,7,,,60,78
77040,note_on,6421,0,12,,,,,,,,15,,,57,80
77040,note_on,1,0,7,,,,,,,,5,,,76,78
77099,note_on,59,0,7,,,,,,,,5,,,76,0
77100,note_on,1,0,7,,,,,,,,5,,,77,87
77114,note_on,14,0,7,,,,,,,,5,,,77,0
77115,note_on,1,0,7,,,,,,,,5,,,76,82
77129,note_on,14,0,7,,,,,,,,5,,,76,0
77130,note_on,1,0,7,,,,,,,,5,,,74,82
77144,note_on,14,0,7,,,,,,,,5,,,74,0
77145,note_on,1,0,7,,,,,,,,5,,,76,82
77159,note_on,14,0,7,,,,,,,,5,,,76,0
77160,note_on,6541,0,11,,,,,,,,14,,,63,72
77160,note_on,6541,0,10,,,,,,,,13,,,60,74
77160,note_on,6541,0,9,,,,,,,,12,,,72,74
77160,note_on,1,0,7,,,,,,,,5,,,78,82
77219,note_on,59,0,9,,,,,,,,12,,,72,0
77219,note_on,59,0,10,,,,,,,,13,,,60,0
77219,note_on,59,0,7,,,,,,,,5,,,78,0
77220,note_on,1,0,9,,,,,,,,12,,,72,70
77220,note_on,1,0,10,,,,,,,,13,,,60,70
77220,note_on,1,0,7,,,,,,,,5,,,79,82
77234,note_on,14,0,7,,,,,,,,5,,,79,0
77235,note_on,1,0,7,,,,,,,,5,,,78,74
77249,note_on,14,0,7,,,,,,,,5,,,78,0
77250,note_on,1,0,7,,,,,,,,5,,,76,82
77264,note_on,14,0,7,,,,,,,,5,,,76,0
77265,note_on,1,0,7,,,,,,,,5,,,78,80
77279,note_on,0,0,4,,,,,,,,7,,,72,0
77279,note_on,14,0,7,,,,,,,,5,,,78,0
77279,note_on,119,0,11,,,,,,,,14,,,63,0
77279,note_on,59,0,10,,,,,,,,13,,,60,0
77279,note_on,239,0,4,,,,,,,,7,,,60,0
77279,note_on,239,0,12,,,,,,,,15,,,57,0
77279,note_on,59,0,9,,,,,,,,12,,,72,0
77280,note_on,1,0,10,,,,,,,,13,,,60,72
77280,note_on,1,0,12,,,,,,,,15,,,55,87
77280,note_on,1,0,11,,,,,,,,14,,,64,85
77280,note_on,1,0,4,,,,,,,,7,,,76,80
77280,note_on,0,0,4,,,,,,,,7,,,72,82
77280,note_on,1,0,9,,,,,,,,12,,,72,72
77280,note_on,1,0,7,,,,,,,,5,,,79,87
77339,note_on,59,0,7,,,,,,,,5,,,79,0
77340,note_on,60,0,12,,,,,,,,15,,,55,0
77340,note_on,1,0,7,,,,,,,,5,,,76,85
77369,note_on,29,0,7,,,,,,,,5,,,76,0
77369,note_on,89,0,10,,,,,,,,13,,,60,0
77369,note_on,89,0,11,,,,,,,,14,,,64,0
77369,note_on,89,0,9,,,,,,,,12,,,72,0
77370,note_on,1,0,9,,,,,,,,12,,,74,68
77370,note_on,1,0,11,,,,,,,,14,,,65,78
77370,note_on,1,0,10,,,,,,,,13,,,62,68
77399,note_on,29,0,9,,,,,,,,12,,,74,0
77399,note_on,29,0,11,,,,,,,,14,,,65,0
77399,note_on,29,0,10,,,,,,,,13,,,62,0
77400,note_on,1,0,9,,,,,,,,12,,,76,70
77400,note_on,1,0,10,,,,,,,,13,,,64,70
77400,note_on,31,0,7,,,,,,,,5,,,79,82
77400,note_on,60,0,12,,,,,,,,15,,,43,82
77400,note_on,1,0,11,,,,,,,,14,,,67,78
77429,note_on,29,0,11,,,,,,,,14,,,67,0
77429,note_on,29,0,10,,,,,,,,13,,,64,0
77429,note_on,29,0,9,,,,,,,,12,,,76,0
77430,note_on,1,0,11,,,,,,,,14,,,69,76
77430,note_on,1,0,10,,,,,,,,13,,,65,78
77430,note_on,1,0,9,,,,,,,,12,,,77,78
77459,note_on,59,0,7,,,,,,,,5,,,79,0
77459,note_on,0,0,4,,,,,,,,7,,,76,0
77459,note_on,179,0,4,,,,,,,,7,,,72,0
77459,note_on,29,0,10,,,,,,,,13,,,65,0
77459,note_on,29,0,11,,,,,,,,14,,,69,0
77459,note_on,29,0,9,,,,,,,,12,,,77,0
77460,note_on,1,0,9,,,,,,,,12,,,74,85
77460,note_on,1,0,11,,,,,,,,14,,,65,72
77460,note_on,1,0,7,,,,,,,,5,,,71,85
77460,note_on,0,0,4,,,,,,,,7,,,74,82
77460,note_on,1,0,4,,,,,,,,7,,,67,76
77460,note_on,1,0,10,,,,,,,,13,,,62,85
77460,note_on,60,0,12,,,,,,,,15,,,43,0
77489,note_on,29,0,7,,,,,,,,5,,,71,0
77489,note_on,29,0,10,,,,,,,,13,,,62,0
77489,note_on,29,0,11,,,,,,,,14,,,65,0
77489,note_on,29,0,9,,,,,,,,12,,,74,0
77490,note_on,1,0,9,,,,,,,,12,,,76,82
77490,note_on,1,0,10,,,,,,,,13,,,64,82
77490,note_on,1,0,11,,,,,,,,14,,,67,80
77519,note_on,29,0,9,,,,,,,,12,,,76,0
77519,note_on,59,0,4,,,,,,,,7,,,74,0
77519,note_on,0,0,4,,,,,,,,7,,,67,0
77519,note_on,29,0,11,,,,,,,,14,,,67,0
77519,note_on,29,0,10,,,,,,,,13,,,64,0
77520,note_on,31,0,7,,,,,,,,5,,,72,87
77520,note_on,1,0,11,,,,,,,,14,,,64,85
77520,note_on,0,0,4,,,,,,,,7,,,64,72
77520,note_on,60,0,12,,,,,,,,15,,,48,76
77520,note_on,1,0,9,,,,,,,,12,,,72,80
77520,note_on,1,0,10,,,,,,,,13,,,60,80
77520,note_on,1,0,4,,,,,,,,7,,,72,82
77579,note_on,0,0,4,,,,,,,,7,,,72,0
77579,note_on,59,0,4,,,,,,,,7,,,64,0
77580,note_on,60,0,12,,,,,,,,15,,,48,0
77639,note_on,119,0,7,,,,,,,,5,,,72,0
77639,note_on,119,0,10,,,,,,,,13,,,60,0
77639,note_on,119,0,9,,,,,,,,12,,,72,0
77639,note_on,119,0,11,,,,,,,,14,,,64,0
77640,note_on,1921,0,8,,,,,,,,5,,,60,80
77640,note_on,60,0,12,,,,,,,,15,,,60,72
77699,note_on,59,0,8,,,,,,,,5,,,60,0
77700,note_on,1,0,8,,,,,,,,5,,,62,87
77714,note_on,14,0,8,,,,,,,,5,,,62,0
77715,note_on,1,0,8,,,,,,,,5,,,60,72
77729,note_on,14,0,8,,,,,,,,5,,,60,0
77730,note_on,1,0,8,,,,,,,,5,,,59,63
77744,note_on,14,0,8,,,,,,,,5,,,59,0
77745,note_on,1,0,8,,,,,,,,5,,,60,68
77759,note_on,119,0,12,,,,,,,,15,,,60,0
77759,note_on,14,0,8,,,,,,,,5,,,60,0
77760,note_on,1,0,12,,,,,,,,15,,,55,85
77760,note_on,1,0,8,,,,,,,,5,,,55,89
77819,note_on,59,0,8,,,,,,,,5,,,55,0
77820,note_on,1,0,8,,,,,,,,5,,,56,72
77834,note_on,14,0,8,,,,,,,,5,,,56,0
77835,note_on,1,0,8,,,,,,,,5,,,55,85
77849,note_on,14,0,8,,,,,,,,5,,,55,0
77850,note_on,1,0,8,,,,,,,,5,,,53,76
77864,note_on,14,0,8,,,,,,,,5,,,53,0
77865,note_on,1,0,8,,,,,,,,5,,,55,85
77879,note_on,119,0,12,,,,,,,,15,,,55,0
77879,note_on,14,0,8,,,,,,,,5,,,55,0
77880,note_on,1,0,8,,,,,,,,5,,,56,82
77880,note_on,1,0,12,,,,,,,,15,,,56,78
77939,note_on,59,0,8,,,,,,,,5,,,56,0
77940,note_on,1,0,8,,,,,,,,5,,,58,78
77954,note_on,14,0,8,,,,,,,,5,,,58,0
77955,note_on,1,0,8,,,,,,,,5,,,56,78
77969,note_on,14,0,8,,,,,,,,5,,,56,0
77970,note_on,1,0,8,,,,,,,,5,,,55,72
77984,note_on,14,0,8,,,,,,,,5,,,55,0
77985,note_on,1,0,8,,,,,,,,5,,,56,72
77999,note_on,119,0,12,,,,,,,,15,,,56,0
77999,note_on,14,0,8,,,,,,,,5,,,56,0
78000,note_on,1,0,12,,,,,,,,15,,,51,78
78000,note_on,0,0,4,,,,,,,,7,,,72,62
78000,note_on,1,0,8,,,,,,,,5,,,51,87
78000,note_on,421,0,4,,,,,,,,7,,,60,70
78059,note_on,59,0,8,,,,,,,,5,,,51,0
78060,note_on,1,0,8,,,,,,,,5,,,53,85
78074,note_on,14,0,8,,,,,,,,5,,,53,0
78075,note_on,1,0,8,,,,,,,,5,,,51,74
78089,note_on,14,0,8,,,,,,,,5,,,51,0
78090,note_on,1,0,8,,,,,,,,5,,,50,85
78104,note_on,14,0,8,,,,,,,,5,,,50,0
78105,note_on,1,0,8,,,,,,,,5,,,51,72
78119,note_on,119,0,12,,,,,,,,15,,,51,0
78119,note_on,14,0,8,,,,,,,,5,,,51,0
78120,note_on,1,0,12,,,,,,,,15,,,53,87
78120,note_on,1,0,8,,,,,,,,5,,,53,89
78120,note_on,481,0,11,,,,,,,,14,,,63,82
78120,note_on,481,0,10,,,,,,,,13,,,60,74
78120,note_on,481,0,9,,,,,,,,12,,,72,74
78179,note_on,59,0,11,,,,,,,,14,,,63,0
78179,note_on,59,0,10,,,,,,,,13,,,60,0
78179,note_on,59,0,8,,,,,,,,5,,,53,0
78179,note_on,59,0,9,,,,,,,,12,,,72,0
78180,note_on,1,0,10,,,,,,,,13,,,60,70
78180,note_on,1,0,8,,,,,,,,5,,,55,85
78180,note_on,1,0,11,,,,,,,,14,,,63,72
78180,note_on,1,0,9,,,,,,,,12,,,72,70
78194,note_on,14,0,8,,,,,,,,5,,,55,0
78195,note_on,1,0,8,,,,,,,,5,,,53,85
78209,note_on,14,0,8,,,,,,,,5,,,53,0
78210,note_on,1,0,8,,,,,,,,5,,,51,82
78224,note_on,14,0,8,,,,,,,,5,,,51,0
78225,note_on,1,0,8,,,,,,,,5,,,53,85
78238,note_on,58,0,11,,,,,,,,14,,,63,0
78239,note_on,59,0,10,,,,,,,,13,,,60,0
78239,note_on,239,0,4,,,,,,,,7,,,72,0
78239,note_on,59,0,9,,,,,,,,12,,,72,0
78239,note_on,14,0,8,,,,,,,,5,,,53,0
78239,note_on,0,0,4,,,,,,,,7,,,60,0
78239,note_on,119,0,12,,,,,,,,15,,,53,0
78240,note_on,1,0,10,,,,,,,,13,,,60,72
78240,note_on,1,0,9,,,,,,,,12,,,72,72
78240,note_on,1,0,12,,,,,,,,15,,,55,87
78240,note_on,2,0,11,,,,,,,,14,,,63,85
78240,note_on,1,0,4,,,,,,,,7,,,67,78
78240,note_on,0,0,4,,,,,,,,7,,,55,70
78240,note_on,1,0,8,,,,,,,,5,,,55,85
78329,note_on,89,0,11,,,,,,,,14,,,63,0
78329,note_on,89,0,9,,,,,,,,12,,,72,0
78329,note_on,89,0,10,,,,,,,,13,,,60,0
78330,note_on,1,0,11,,,,,,,,14,,,65,78
78330,note_on,1,0,9,,,,,,,,12,,,74,68
78330,note_on,1,0,10,,,,,,,,13,,,62,68
78359,note_on,119,0,8,,,,,,,,5,,,55,0
78359,note_on,29,0,10,,,,,,,,13,,,62,0
78359,note_on,29,0,11,,,,,,,,14,,,65,0
78359,note_on,29,0,9,,,,,,,,12,,,74,0
78360,note_on,1,0,9,,,,,,,,12,,,75,70
78360,note_on,1,0,10,,,,,,,,13,,,63,70
78360,note_on,1,0,11,,,,,,,,14,,,67,78
78389,note_on,29,0,10,,,,,,,,13,,,63,0
78389,note_on,29,0,11,,,,,,,,14,,,67,0
78389,note_on,29,0,9,,,,,,,,12,,,75,0
78390,note_on,1,0,9,,,,,,,,12,,,77,78
78390,note_on,1,0,10,,,,,,,,13,,,65,78
78390,note_on,1,0,11,,,,,,,,14,,,68,76
78419,note_on,29,0,9,,,,,,,,12,,,77,0
78419,note_on,29,0,10,,,,,,,,13,,,65,0
78419,note_on,29,0,11,,,,,,,,14,,,68,0
78420,note_on,1,0,9,,,,,,,,12,,,74,85
78420,note_on,1,0,10,,,,,,,,13,,,62,85
78420,note_on,1,0,11,,,,,,,,14,,,65,72
78449,note_on,29,0,10,,,,,,,,13,,,62,0
78449,note_on,29,0,9,,,,,,,,12,,,74,0
78449,note_on,29,0,11,,,,,,,,14,,,65,0
78450,note_on,1,0,10,,,,,,,,13,,,63,82
78450,note_on,1,0,9,,,,,,,,12,,,75,82
78450,note_on,1,0,11,,,,,,,,14,,,67,80
78479,note_on,29,0,10,,,,,,,,13,,,63,0
78479,note_on,29,0,9,,,,,,,,12,,,75,0
78479,note_on,239,0,4,,,,,,,,7,,,55,0
78479,note_on,0,0,4,,,,,,,,7,,,67,0
78479,note_on,239,0,12,,,,,,,,15,,,55,0
78479,note_on,29,0,11,,,,,,,,14,,,67,0
78480,note_on,1,0,10,,,,,,,,13,,,60,80
78480,note_on,121,0,8,,,,,,,,5,,,56,82
78480,note_on,1,0,11,,,,,,,,14,,,63,85
78480,note_on,0,0,4,,,,,,,,7,,,72,78
78480,note_on,1,0,9,,,,,,,,12,,,72,80
78480,note_on,1,0,12,,,,,,,,15,,,56,78
78480,note_on,1,0,4,,,,,,,,7,,,60,70
78510,note_on,871,0,7,,,,,,,,5,,,71,90
78539,note_on,29,0,7,,,,,,,,5,,,71,0
78540,note_on,1,0,7,,,,,,,,5,,,72,90
78569,note_on,29,0,7,,,,,,,,5,,,72,0
78570,note_on,1,0,7,,,,,,,,5,,,74,90
78599,note_on,119,0,9,,,,,,,,12,,,72,0
78599,note_on,119,0,10,,,,,,,,13,,,60,0
78599,note_on,119,0,11,,,,,,,,14,,,63,0
78599,note_on,29,0,7,,,,,,,,5,,,74,0
78600,note_on,1,0,10,,,,,,,,13,,,60,74
78600,note_on,1,0,11,,,,,,,,14,,,63,80
78600,note_on,1,0,7,,,,,,,,5,,,75,90
78600,note_on,1,0,9,,,,,,,,12,,,72,74
78629,note_on,29,0,7,,,,,,,,5,,,75,0
78630,note_on,1,0,7,,,,,,,,5,,,76,90
78659,note_on,29,0,7,,,,,,,,5,,,76,0
78659,note_on,59,0,11,,,,,,,,14,,,63,0
78659,note_on,59,0,9,,,,,,,,12,,,72,0
78659,note_on,59,0,10,,,,,,,,13,,,60,0
78660,note_on,1,0,11,,,,,,,,14,,,63,80
78660,note_on,1,0,7,,,,,,,,5,,,77,90
78660,note_on,1,0,9,,,,,,,,12,,,72,70
78660,note_on,1,0,10,,,,,,,,13,,,60,70
78689,note_on,29,0,7,,,,,,,,5,,,77,0
78690,note_on,1,0,7,,,,,,,,5,,,78,90
78719,note_on,59,0,11,,,,,,,,14,,,63,0
78719,note_on,59,0,9,,,,,,,,12,,,72,0
78719,note_on,239,0,12,,,,,,,,15,,,56,0
78719,note_on,59,0,10,,,,,,,,13,,,60,0
78719,note_on,239,0,4,,,,,,,,7,,,72,0
78719,note_on,29,0,7,,,,,,,,5,,,78,0
78719,note_on,239,0,8,,,,,,,,5,,,56,0
78719,note_on,0,0,4,,,,,,,,7,,,60,0
78720,note_on,1,0,9,,,,,,,,12,,,72,72
78720,note_on,1,0,8,,,,,,,,5,,,55,85
78720,note_on,1,0,4,,,,,,,,7,,,67,74
78720,note_on,1,0,12,,,,,,,,15,,,55,85
78720,note_on,1,0,11,,,,,,,,14,,,63,82
78720,note_on,1,0,7,,,,,,,,5,,,79,90
78720,note_on,1,0,10,,,,,,,,13,,,60,72
78720,note_on,0,0,4,,,,,,,,7,,,55,74
78809,note_on,89,0,9,,,,,,,,12,,,72,0
78809,note_on,89,0,11,,,,,,,,14,,,63,0
78809,note_on,89,0,10,,,,,,,,13,,,60,0
78810,note_on,1,0,9,,,,,,,,12,,,74,68
78810,note_on,1,0,11,,,,,,,,14,,,62,89
78810,note_on,1,0,10,,,,,,,,13,,,62,68
78839,note_on,29,0,9,,,,,,,,12,,,74,0
78839,note_on,119,0,7,,,,,,,,5,,,79,0
78839,note_on,29,0,10,,,,,,,,13,,,62,0
78839,note_on,29,0,11,,,,,,,,14,,,62,0
78840,note_on,1,0,10,,,,,,,,13,,,63,70
78840,note_on,1,0,9,,,,,,,,12,,,75,70
78840,note_on,1,0,11,,,,,,,,14,,,60,80
78869,note_on,29,0,10,,,,,,,,13,,,63,0
78869,note_on,29,0,9,,,,,,,,12,,,75,0
78870,note_on,1,0,9,,,,,,,,12,,,77,78
78870,note_on,1,0,10,,,,,,,,13,,,65,78
78899,note_on,29,0,10,,,,,,,,13,,,65,0
78899,note_on,29,0,9,,,,,,,,12,,,77,0
78899,note_on,59,0,11,,,,,,,,14,,,60,0
78900,note_on,1,0,10,,,,,,,,13,,,62,85
78900,note_on,1,0,9,,,,,,,,12,,,74,85
78900,note_on,1,0,11,,,,,,,,14,,,59,87
78929,note_on,29,0,10,,,,,,,,13,,,62,0
78929,note_on,29,0,9,,,,,,,,12,,,74,0
78930,note_on,1,0,9,,,,,,,,12,,,75,82
78930,note_on,1,0,10,,,,,,,,13,,,63,82
78959,note_on,239,0,4,,,,,,,,7,,,55,0
78959,note_on,239,0,12,,,,,,,,15,,,55,0
78959,note_on,29,0,10,,,,,,,,13,,,63,0
78959,note_on,0,0,4,,,,,,,,7,,,67,0
78959,note_on,239,0,8,,,,,,,,5,,,55,0
78959,note_on,29,0,9,,,,,,,,12,,,75,0
78959,note_on,59,0,11,,,,,,,,14,,,59,0
78960,note_on,1,0,10,,,,,,,,13,,,60,80
78960,note_on,0,0,4,,,,,,,,7,,,72,74
78960,note_on,1,0,4,,,,,,,,7,,,60,68
78960,note_on,1,0,12,,,,,,,,15,,,54,80
78960,note_on,1,0,8,,,,,,,,5,,,54,72
78960,note_on,1,0,9,,,,,,,,12,,,72,80
78960,note_on,1,0,11,,,,,,,,14,,,57,82
78990,note_on,151,0,7,,,,,,,,5,,,87,90
78990,note_on,0,0,7,,,,,,,,5,,,75,90
79019,note_on,0,0,7,,,,,,,,5,,,87,0
79019,note_on,29,0,7,,,,,,,,5,,,75,0
79020,note_on,0,0,7,,,,,,,,5,,,74,90
79020,note_on,1,0,7,,,,,,,,5,,,86,90
79049,note_on,29,0,7,,,,,,,,5,,,74,0
79049,note_on,0,0,7,,,,,,,,5,,,86,0
79050,note_on,1,0,7,,,,,,,,5,,,84,90
79050,note_on,0,0,7,,,,,,,,5,,,72,90
79079,note_on,119,0,10,,,,,,,,13,,,60,0
79079,note_on,29,0,7,,,,,,,,5,,,72,0
79079,note_on,0,0,7,,,,,,,,5,,,84,0
79079,note_on,119,0,9,,,,,,,,12,,,72,0
79079,note_on,119,0,11,,,,,,,,14,,,57,0
79080,note_on,1,0,7,,,,,,,,5,,,83,90
79080,note_on,0,0,7,,,,,,,,5,,,71,90
79080,note_on,1,0,11,,,,,,,,14,,,60,85
79080,note_on,1,0,9,,,,,,,,12,,,72,74
79080,note_on,1,0,10,,,,,,,,13,,,60,74
79109,note_on,29,0,7,,,,,,,,5,,,71,0
79109,note_on,0,0,7,,,,,,,,5,,,83,0
79110,note_on,0,0,7,,,,,,,,5,,,70,90
79110,note_on,1,0,7,,,,,,,,5,,,82,90
79139,note_on,59,0,9,,,,,,,,12,,,72,0
79139,note_on,29,0,7,,,,,,,,5,,,70,0
79139,note_on,0,0,7,,,,,,,,5,,,82,0
79139,note_on,59,0,11,,,,,,,,14,,,60,0
79139,note_on,59,0,10,,,,,,,,13,,,60,0
79140,note_on,0,0,7,,,,,,,,5,,,69,90
79140,note_on,1,0,11,,,,,,,,14,,,63,80
79140,note_on,1,0,10,,,,,,,,13,,,60,70
79140,note_on,1,0,7,,,,,,,,5,,,81,90
79140,note_on,1,0,9,,,,,,,,12,,,72,70
79169,note_on,29,0,7,,,,,,,,5,,,69,0
79169,note_on,0,0,7,,,,,,,,5,,,81,0
79170,note_on,1,0,7,,,,,,,,5,,,80,90
79170,note_on,0,0,7,,,,,,,,5,,,68,90
79199,note_on,239,0,8,,,,,,,,5,,,54,0
79199,note_on,59,0,9,,,,,,,,12,,,72,0
79199,note_on,59,0,10,,,,,,,,13,,,60,0
79199,note_on,239,0,4,,,,,,,,7,,,72,0
79199,note_on,29,0,7,,,,,,,,5,,,68,0
79199,note_on,0,0,7,,,,,,,,5,,,80,0
79199,note_on,59,0,11,,,,,,,,14,,,63,0
79199,note_on,0,0,4,,,,,,,,7,,,60,0
79199,note_on,239,0,12,,,,,,,,15,,,54,0
79200,note_on,1,0,8,,,,,,,,5,,,55,82
79200,note_on,0,0,7,,,,,,,,5,,,67,90
79200,note_on,1,0,12,,,,,,,,15,,,55,89
79200,note_on,1,0,11,,,,,,,,14,,,64,82
79200,note_on,1,0,9,,,,,,,,12,,,72,72
79200,note_on,1,0,4,,,,,,,,7,,,67,74
79200,note_on,0,0,4,,,,,,,,7,,,55,72
79200,note_on,1,0,10,,,,,,,,13,,,60,72
79200,note_on,1,0,7,,,,,,,,5,,,79,90
79260,note_on,60,0,12,,,,,,,,15,,,55,0
79260,note_on,60,0,8,,,,,,,,5,,,55,0
79289,note_on,89,0,10,,,,,,,,13,,,60,0
79289,note_on,89,0,9,,,,,,,,12,,,72,0
79289,note_on,89,0,11,,,,,,,,14,,,64,0
79290,note_on,1,0,10,,,,,,,,13,,,62,68
79290,note_on,1,0,9,,,,,,,,12,,,74,68
79290,note_on,1,0,11,,,,,,,,14,,,65,85
79319,note_on,0,0,7,,,,,,,,5,,,79,0
79319,note_on,119,0,7,,,,,,,,5,,,67,0
79319,note_on,29,0,10,,,,,,,,13,,,62,0
79319,note_on,29,0,9,,,,,,,,12,,,74,0
79319,note_on,29,0,11,,,,,,,,14,,,65,0
79320,note_on,1,0,9,,,,,,,,12,,,76,70
79320,note_on,60,0,8,,,,,,,,5,,,43,91
79320,note_on,1,0,11,,,,,,,,14,,,67,85
79320,note_on,60,0,12,,,,,,,,15,,,43,87
79320,note_on,1,0,10,,,,,,,,13,,,64,70
79349,note_on,29,0,10,,,,,,,,13,,,64,0
79349,note_on,29,0,9,,,,,,,,12,,,76,0
79350,note_on,1,0,9,,,,,,,,12,,,77,78
79350,note_on,1,0,10,,,,,,,,13,,,65,78
79379,note_on,59,0,11,,,,,,,,14,,,67,0
79379,note_on,29,0,9,,,,,,,,12,,,77,0
79379,note_on,29,0,10,,,,,,,,13,,,65,0
79380,note_on,1,0,9,,,,,,,,12,,,74,85
79380,note_on,1,0,10,,,,,,,,13,,,62,85
79380,note_on,1,0,11,,,,,,,,14,,,59,85
79380,note_on,60,0,12,,,,,,,,15,,,43,0
79380,note_on,60,0,8,,,,,,,,5,,,43,0
79409,note_on,29,0,9,,,,,,,,12,,,74,0
79409,note_on,29,0,10,,,,,,,,13,,,62,0
79410,note_on,1,0,10,,,,,,,,13,,,64,82
79410,note_on,1,0,9,,,,,,,,12,,,76,82
79439,note_on,29,0,10,,,,,,,,13,,,64,0
79439,note_on,0,0,4,,,,,,,,7,,,67,0
79439,note_on,239,0,4,,,,,,,,7,,,55,0
79439,note_on,29,0,9,,,,,,,,12,,,76,0
79439,note_on,59,0,11,,,,,,,,14,,,59,0
79440,note_on,1,0,9,,,,,,,,12,,,72,80
79440,note_on,1,0,10,,,,,,,,13,,,60,72
79440,note_on,0,0,4,,,,,,,,7,,,72,85
79440,note_on,1,0,4,,,,,,,,7,,,60,80
79440,note_on,1,0,11,,,,,,,,14,,,60,80
79440,note_on,60,0,8,,,,,,,,5,,,36,87
79440,note_on,121,0,7,,,,,,,,5,,,60,70
79440,note_on,60,0,12,,,,,,,,15,,,48,85
79459,note_on,19,0,7,,,,,,,,5,,,60,0
79460,note_on,1,0,7,,,,,,,,5,,,55,70
79479,note_on,19,0,7,,,,,,,,5,,,55,0
79480,note_on,1,0,7,,,,,,,,5,,,52,70
79499,note_on,19,0,7,,,,,,,,5,,,52,0
79499,note_on,59,0,11,,,,,,,,14,,,60,0
79499,note_on,59,0,9,,,,,,,,12,,,72,0
79500,note_on,1,0,7,,,,,,,,5,,,48,71
79500,note_on,1,0,11,,,,,,,,14,,,52,89
79500,note_on,1,0,9,,,,,,,,12,,,60,78
79519,note_on,19,0,7,,,,,,,,5,,,48,0
79520,note_on,1,0,7,,,,,,,,5,,,64,71
79539,note_on,19,0,7,,,,,,,,5,,,64,0
79540,note_on,1,0,7,,,,,,,,5,,,60,72
79559,note_on,119,0,10,,,,,,,,13,,,60,0
79559,note_on,59,0,11,,,,,,,,14,,,52,0
79559,note_on,19,0,7,,,,,,,,5,,,60,0
79559,note_on,59,0,9,,,,,,,,12,,,60,0
79560,note_on,1,0,9,,,,,,,,12,,,62,80
79560,note_on,1,0,11,,,,,,,,14,,,53,85
79560,note_on,0,0,10,,,,,,,,13,,,50,80
79560,note_on,1,0,10,,,,,,,,13,,,59,68
79560,note_on,1,0,7,,,,,,,,5,,,62,72
79579,note_on,19,0,7,,,,,,,,5,,,62,0
79580,note_on,1,0,7,,,,,,,,5,,,59,73
79599,note_on,19,0,7,,,,,,,,5,,,59,0
79600,note_on,1,0,7,,,,,,,,5,,,53,73
79619,note_on,19,0,7,,,,,,,,5,,,53,0
79620,note_on,1,0,7,,,,,,,,5,,,50,74
79639,note_on,19,0,7,,,,,,,,5,,,50,0
79640,note_on,1,0,7,,,,,,,,5,,,65,74
79659,note_on,19,0,7,,,,,,,,5,,,65,0
79660,note_on,1,0,7,,,,,,,,5,,,62,75
79679,note_on,119,0,9,,,,,,,,12,,,62,0
79679,note_on,0,0,10,,,,,,,,13,,,59,0
79679,note_on,119,0,10,,,,,,,,13,,,50,0
79679,note_on,119,0,11,,,,,,,,14,,,53,0
79679,note_on,19,0,7,,,,,,,,5,,,62,0
79680,note_on,1,0,7,,,,,,,,5,,,64,75
79680,note_on,1,0,10,,,,,,,,13,,,60,68
79680,note_on,1,0,11,,,,,,,,14,,,55,87
79680,note_on,1,0,9,,,,,,,,12,,,64,82
79699,note_on,19,0,7,,,,,,,,5,,,64,0
79700,note_on,1,0,7,,,,,,,,5,,,60,76
79719,note_on,19,0,7,,,,,,,,5,,,60,0
79720,note_on,1,0,7,,,,,,,,5,,,55,76
79739,note_on,19,0,7,,,,,,,,5,,,55,0
79740,note_on,1,0,7,,,,,,,,5,,,52,77
79759,note_on,19,0,7,,,,,,,,5,,,52,0
79760,note_on,1,0,7,,,,,,,,5,,,67,77
79779,note_on,19,0,7,,,,,,,,5,,,67,0
79780,note_on,1,0,7,,,,,,,,5,,,64,78
79799,note_on,119,0,10,,,,,,,,13,,,60,0
79799,note_on,19,0,7,,,,,,,,5,,,64,0
79799,note_on,119,0,11,,,,,,,,14,,,55,0
79799,note_on,119,0,9,,,,,,,,12,,,64,0
79800,note_on,1,0,11,,,,,,,,14,,,50,87
79800,note_on,1,0,9,,,,,,,,12,,,65,76
79800,note_on,1,0,10,,,,,,,,13,,,59,76
79800,note_on,1,0,7,,,,,,,,5,,,65,78
79819,note_on,19,0,7,,,,,,,,5,,,65,0
79820,note_on,1,0,7,,,,,,,,5,,,62,79
79839,note_on,19,0,7,,,,,,,,5,,,62,0
79840,note_on,1,0,7,,,,,,,,5,,,59,79
79859,note_on,19,0,7,,,,,,,,5,,,59,0
79860,note_on,1,0,7,,,,,,,,5,,,71,80
79879,note_on,19,0,7,,,,,,,,5,,,71,0
79880,note_on,1,0,7,,,,,,,,5,,,65,80
79899,note_on,19,0,7,,,,,,,,5,,,65,0
79900,note_on,1,0,7,,,,,,,,5,,,62,80
79919,note_on,19,0,7,,,,,,,,5,,,62,0
79919,note_on,119,0,11,,,,,,,,14,,,50,0
79919,note_on,479,0,8,,,,,,,,5,,,36,0
79919,note_on,119,0,9,,,,,,,,12,,,65,0
79919,note_on,119,0,10,,,,,,,,13,,,59,0
79920,note_on,1,0,10,,,,,,,,13,,,60,70
79920,note_on,1,0,7,,,,,,,,5,,,72,81
79920,note_on,1,0,9,,,,,,,,12,,,64,80
79920,note_on,1,0,11,,,,,,,,14,,,48,85
79920,note_on,1,0,8,,,,,,,,5,,,48,85
79939,note_on,19,0,7,,,,,,,,5,,,72,0
79940,note_on,1,0,7,,,,,,,,5,,,67,81
79959,note_on,19,0,7,,,,,,,,5,,,67,0
79960,note_on,1,0,7,,,,,,,,5,,,64,82
79979,note_on,59,0,11,,,,,,,,14,,,48,0
79979,note_on,59,0,10,,,,,,,,13,,,60,0
79979,note_on,19,0,7,,,,,,,,5,,,64,0
79979,note_on,59,0,9,,,,,,,,12,,,64,0
79980,note_on,1,0,10,,,,,,,,13,,,72,72
79980,note_on,1,0,7,,,,,,,,5,,,60,82
79980,note_on,1,0,11,,,,,,,,14,,,64,85
79980,note_on,1,0,9,,,,,,,,12,,,72,80
79999,note_on,19,0,7,,,,,,,,5,,,60,0
80000,note_on,1,0,7,,,,,,,,5,,,76,83
80019,note_on,19,0,7,,,,,,,,5,,,76,0
80020,note_on,1,0,7,,,,,,,,5,,,72,83
80039,note_on,59,0,9,,,,,,,,12,,,72,0
80039,note_on,59,0,11,,,,,,,,14,,,64,0
80039,note_on,59,0,10,,,,,,,,13,,,72,0
80039,note_on,19,0,7,,,,,,,,5,,,72,0
80040,note_on,1,0,11,,,,,,,,14,,,65,80
80040,note_on,1,0,10,,,,,,,,13,,,71,70
80040,note_on,1,0,9,,,,,,,,12,,,74,68
80040,note_on,1,0,7,,,,,,,,5,,,74,84
80059,note_on,19,0,7,,,,,,,,5,,,74,0
80060,note_on,1,0,7,,,,,,,,5,,,71,84
80079,note_on,19,0,7,,,,,,,,5,,,71,0
80080,note_on,1,0,7,,,,,,,,5,,,65,85
80099,note_on,19,0,7,,,,,,,,5,,,65,0
80100,note_on,1,0,7,,,,,,,,5,,,62,85
80119,note_on,19,0,7,,,,,,,,5,,,62,0
80120,note_on,1,0,7,,,,,,,,5,,,77,86
80139,note_on,19,0,7,,,,,,,,5,,,77,0
80140,note_on,1,0,7,,,,,,,,5,,,74,86
80159,note_on,119,0,9,,,,,,,,12,,,74,0
80159,note_on,19,0,7,,,,,,,,5,,,74,0
80159,note_on,119,0,11,,,,,,,,14,,,65,0
80159,note_on,119,0,10,,,,,,,,13,,,71,0
80160,note_on,1,0,11,,,,,,,,14,,,67,87
80160,note_on,1,0,9,,,,,,,,12,,,76,72
80160,note_on,1,0,7,,,,,,,,5,,,76,87
80160,note_on,1,0,10,,,,,,,,13,,,72,66
80179,note_on,19,0,7,,,,,,,,5,,,76,0
80180,note_on,1,0,7,,,,,,,,5,,,72,87
80199,note_on,19,0,7,,,,,,,,5,,,72,0
80200,note_on,1,0,7,,,,,,,,5,,,67,88
80219,note_on,19,0,7,,,,,,,,5,,,67,0
80220,note_on,1,0,7,,,,,,,,5,,,64,88
80239,note_on,19,0,7,,,,,,,,5,,,64,0
80240,note_on,1,0,7,,,,,,,,5,,,79,89
80259,note_on,19,0,7,,,,,,,,5,,,79,0
80260,note_on,1,0,7,,,,,,,,5,,,76,89
80279,note_on,119,0,10,,,,,,,,13,,,72,0
80279,note_on,119,0,11,,,,,,,,14,,,67,0
80279,note_on,19,0,7,,,,,,,,5,,,76,0
80279,note_on,119,0,9,,,,,,,,12,,,76,0
80280,note_on,1,0,9,,,,,,,,12,,,77,76
80280,note_on,1,0,11,,,,,,,,14,,,62,87
80280,note_on,1,0,10,,,,,,,,13,,,71,72
80280,note_on,1,0,7,,,,,,,,5,,,77,90
80299,note_on,19,0,7,,,,,,,,5,,,77,0
80300,note_on,1,0,7,,,,,,,,5,,,74,90
80319,note_on,19,0,7,,,,,,,,5,,,74,0
80320,note_on,1,0,7,,,,,,,,5,,,71,90
80339,note_on,19,0,7,,,,,,,,5,,,71,0
80340,note_on,1,0,7,,,,,,,,5,,,83,90
80340,note_on,3721,0,1,,,,,,,,3,,,83,78
80349,note_on,9,0,1,,,,,,,,3,,,83,0
80350,note_on,1,0,1,,,,,,,,3,,,84,87
80359,note_on,19,0,7,,,,,,,,5,,,83,0
80359,note_on,9,0,1,,,,,,,,3,,,84,0
80360,note_on,1,0,7,,,,,,,,5,,,77,90
80360,note_on,1,0,1,,,,,,,,3,,,83,82
80369,note_on,9,0,1,,,,,,,,3,,,83,0
80370,note_on,1,0,1,,,,,,,,3,,,81,80
80379,note_on,19,0,7,,,,,,,,5,,,77,0
80380,note_on,1,0,7,,,,,,,,5,,,74,90
80384,note_on,14,0,1,,,,,,,,3,,,81,0
80385,note_on,1,0,1,,,,,,,,3,,,83,85
80399,note_on,119,0,11,,,,,,,,14,,,62,0
80399,note_on,14,0,1,,,,,,,,3,,,83,0
80399,note_on,479,0,8,,,,,,,,5,,,48,0
80399,note_on,119,0,9,,,,,,,,12,,,77,0
80399,note_on,119,0,10,,,,,,,,13,,,71,0
80399,note_on,19,0,7,,,,,,,,5,,,74,0
80400,note_on,1,0,9,,,,,,,,12,,,76,68
80400,note_on,0,0,3,,,,,,,,0,,,55,70
80400,note_on,3721,0,3,,,,,,,,0,,,67,82
80400,note_on,18720,0,13,,,,,,,,5,,,76,90
80400,note_on,0,0,5,,,,,,,,1,,,72,80
80400,note_on,3721,0,5,,,,,,,,1,,,64,68
80400,note_on,1,0,1,,,,,,,,3,,,84,82
80400,note_on,0,0,2,,,,,,,,6,,,72,80
80400,note_on,1,0,10,,,,,,,,13,,,72,72
80400,note_on,3781,0,2,,,,,,,,6,,,76,70
80400,note_on,1,0,8,,,,,,,,5,,,36,82
80400,note_on,1,0,11,,,,,,,,14,,,60,82
80400,note_on,3721,0,6,,,,,,,,4,,,48,76
80400,note_on,1,0,7,,,,,,,,5,,,84,90
80419,note_on,19,0,8,,,,,,,,5,,,36,0
80420,note_on,1,0,8,,,,,,,,5,,,40,82
80439,note_on,19,0,8,,,,,,,,5,,,40,0
80440,note_on,1,0,8,,,,,,,,5,,,43,82
80459,note_on,1019,0,4,,,,,,,,7,,,72,0
80459,note_on,59,0,5,,,,,,,,1,,,72,0
80459,note_on,0,0,5,,,,,,,,1,,,64,0
80459,note_on,59,0,7,,,,,,,,5,,,84,0
80459,note_on,59,0,10,,,,,,,,13,,,72,0
80459,note_on,1019,0,12,,,,,,,,15,,,48,0
80459,note_on,59,0,1,,,,,,,,3,,,84,0
80459,note_on,0,0,4,,,,,,,,7,,,60,0
80459,note_on,59,0,11,,,,,,,,14,,,60,0
80459,note_on,59,0,9,,,,,,,,12,,,76,0
80459,note_on,19,0,8,,,,,,,,5,,,43,0
80460,note_on,60,0,6,,,,,,,,4,,,48,0
80460,note_on,1,0,7,,,,,,,,5,,,79,90
80460,note_on,1,0,1,,,,,,,,3,,,79,80
80460,note_on,1,0,8,,,,,,,,5,,,48,78
80479,note_on,19,0,8,,,,,,,,5,,,48,0
80480,note_on,1,0,8,,,,,,,,5,,,52,82
80499,note_on,19,0,8,,,,,,,,5,,,52,0
80500,note_on,1,0,8,,,,,,,,5,,,55,74
80519,note_on,19,0,8,,,,,,,,5,,,55,0
80519,note_on,119,0,2,,,,,,,,6,,,72,0
80519,note_on,119,0,13,,,,,,,,5,,,76,0
80519,note_on,0,0,2,,,,,,,,6,,,76,0
80520,note_on,0,0,13,,,,,,,,5,,,77,90
80520,note_on,1,0,13,,,,,,,,5,,,74,90
80520,note_on,60,0,6,,,,,,,,4,,,43,72
80520,note_on,0,0,5,,,,,,,,1,,,74,82
80520,note_on,0,0,2,,,,,,,,6,,,74,66
80520,note_on,61,0,4,,,,,,,,7,,,67,72
80520,note_on,1,0,2,,,,,,,,6,,,77,68
80520,note_on,61,0,5,,,,,,,,1,,,67,72
80520,note_on,0,0,4,,,,,,,,7,,,74,82
80520,note_on,1,0,8,,,,,,,,5,,,43,74
80539,note_on,19,0,8,,,,,,,,5,,,43,0
80540,note_on,1,0,8,,,,,,,,5,,,47,70
80559,note_on,19,0,8,,,,,,,,5,,,47,0
80560,note_on,1,0,8,,,,,,,,5,,,50,78
80579,note_on,19,0,8,,,,,,,,5,,,50,0
80579,note_on,119,0,1,,,,,,,,3,,,79,0
80579,note_on,119,0,7,,,,,,,,5,,,79,0
80580,note_on,60,0,6,,,,,,,,4,,,43,0
80580,note_on,1,0,7,,,,,,,,5,,,83,90
80580,note_on,0,0,4,,,,,,,,7,,,67,0
80580,note_on,60,0,5,,,,,,,,1,,,74,0
80580,note_on,60,0,4,,,,,,,,7,,,74,0
80580,note_on,0,0,5,,,,,,,,1,,,67,0
80580,note_on,1,0,8,,,,,,,,5,,,55,66
80580,note_on,1,0,1,,,,,,,,3,,,83,87
80589,note_on,9,0,1,,,,,,,,3,,,83,0
80590,note_on,1,0,1,,,,,,,,3,,,84,82
80599,note_on,9,0,1,,,,,,,,3,,,84,0
80599,note_on,19,0,8,,,,,,,,5,,,55,0
80600,note_on,1,0,8,,,,,,,,5,,,59,70
80600,note_on,1,0,1,,,,,,,,3,,,83,82
80609,note_on,9,0,1,,,,,,,,3,,,83,0
80610,note_on,1,0,1,,,,,,,,3,,,83,82
80619,note_on,19,0,8,,,,,,,,5,,,59,0
80620,note_on,1,0,8,,,,,,,,5,,,62,70
80624,note_on,14,0,1,,,,,,,,3,,,83,0
80625,note_on,1,0,1,,,,,,,,3,,,83,82
80639,note_on,59,0,7,,,,,,,,5,,,83,0
80639,note_on,119,0,2,,,,,,,,6,,,74,0
80639,note_on,0,0,2,,,,,,,,6,,,77,0
80639,note_on,119,0,13,,,,,,,,5,,,77,0
80639,note_on,0,0,13,,,,,,,,5,,,74,0
80639,note_on,19,0,8,,,,,,,,5,,,62,0
80639,note_on,14,0,1,,,,,,,,3,,,83,0
80640,note_on,0,0,2,,,,,,,,6,,,76,68
80640,note_on,60,0,6,,,,,,,,4,,,48,70
80640,note_on,1,0,2,,,,,,,,6,,,72,70
80640,note_on,1,0,13,,,,,,,,5,,,76,90
80640,note_on,60,0,4,,,,,,,,7,,,64,80
80640,note_on,1,0,1,,,,,,,,3,,,84,78
80640,note_on,1,0,7,,,,,,,,5,,,84,90
80640,note_on,60,0,5,,,,,,,,1,,,64,80
80640,note_on,0,0,5,,,,,,,,1,,,72,78
80640,note_on,1,0,8,,,,,,,,5,,,36,82
80640,note_on,0,0,4,,,,,,,,7,,,72,78
80659,note_on,19,0,8,,,,,,,,5,,,36,0
80660,note_on,1,0,8,,,,,,,,5,,,40,80
80679,note_on,19,0,8,,,,,,,,5,,,40,0
80680,note_on,1,0,8,,,,,,,,5,,,43,78
80699,note_on,19,0,8,,,,,,,,5,,,43,0
80699,note_on,59,0,1,,,,,,,,3,,,84,0
80699,note_on,59,0,7,,,,,,,,5,,,84,0
80700,note_on,1,0,1,,,,,,,,3,,,79,80
80700,note_on,0,0,4,,,,,,,,7,,,64,0
80700,note_on,1,0,7,,,,,,,,5,,,79,90
80700,note_on,0,0,5,,,,,,,,1,,,64,0
80700,note_on,60,0,5,,,,,,,,1,,,72,0
80700,note_on,1,0,8,,,,,,,,5,,,48,80
80700,note_on,60,0,4,,,,,,,,7,,,72,0
80700,note_on,60,0,6,,,,,,,,4,,,48,0
80719,note_on,19,0,8,,,,,,,,5,,,48,0
80720,note_on,1,0,8,,,,,,,,5,,,52,82
80739,note_on,19,0,8,,,,,,,,5,,,52,0
80740,note_on,1,0,8,,,,,,,,5,,,55,82
80759,note_on,119,0,2,,,,,,,,6,,,76,0
80759,note_on,119,0,13,,,,,,,,5,,,76,0
80759,note_on,0,0,2,,,,,,,,6,,,72,0
80759,note_on,19,0,8,,,,,,,,5,,,55,0
80760,note_on,0,0,5,,,,,,,,1,,,74,85
80760,note_on,0,0,13,,,,,,,,5,,,77,90
80760,note_on,1,0,2,,,,,,,,6,,,77,66
80760,note_on,0,0,2,,,,,,,,6,,,74,61
80760,note_on,1,0,8,,,,,,,,5,,,43,85
80760,note_on,1,0,13,,,,,,,,5,,,74,90
80760,note_on,60,0,5,,,,,,,,1,,,67,66
80760,note_on,60,0,6,,,,,,,,4,,,43,64
80760,note_on,60,0,4,,,,,,,,7,,,67,66
80760,note_on,0,0,4,,,,,,,,7,,,74,85
80779,note_on,19,0,8,,,,,,,,5,,,43,0
80780,note_on,1,0,8,,,,,,,,5,,,47,82
80799,note_on,19,0,8,,,,,,,,5,,,47,0
80800,note_on,1,0,8,,,,,,,,5,,,50,80
80819,note_on,19,0,8,,,,,,,,5,,,50,0
80819,note_on,119,0,1,,,,,,,,3,,,79,0
80819,note_on,119,0,7,,,,,,,,5,,,79,0
80820,note_on,1,0,7,,,,,,,,5,,,83,90
80820,note_on,60,0,5,,,,,,,,1,,,74,0
80820,note_on,0,0,5,,,,,,,,1,,,67,0
80820,note_on,60,0,6,,,,,,,,4,,,43,0
80820,note_on,0,0,4,,,,,,,,7,,,67,0
80820,note_on,60,0,4,,,,,,,,7,,,74,0
80820,note_on,1,0,1,,,,,,,,3,,,83,85
80820,note_on,1,0,8,,,,,,,,5,,,55,70
80829,note_on,9,0,1,,,,,,,,3,,,83,0
80830,note_on,1,0,1,,,,,,,,3,,,84,78
80839,note_on,9,0,1,,,,,,,,3,,,84,0
80839,note_on,19,0,8,,,,,,,,5,,,55,0
80840,note_on,1,0,1,,,,,,,,3,,,83,78
80840,note_on,1,0,8,,,,,,,,5,,,59,82
80849,note_on,9,0,1,,,,,,,,3,,,83,0
80850,note_on,1,0,1,,,,,,,,3,,,81,80
80859,note_on,19,0,8,,,,,,,,5,,,59,0
80860,note_on,1,0,8,,,,,,,,5,,,62,76
80864,note_on,14,0,1,,,,,,,,3,,,81,0
80865,note_on,1,0,1,,,,,,,,3,,,83,82
80879,note_on,19,0,8,,,,,,,,5,,,62,0
80879,note_on,0,0,2,,,,,,,,6,,,77,0
80879,note_on,14,0,1,,,,,,,,3,,,83,0
80879,note_on,119,0,13,,,,,,,,5,,,77,0
80879,note_on,0,0,13,,,,,,,,5,,,74,0
80879,note_on,119,0,2,,,,,,,,6,,,74,0
80879,note_on,59,0,7,,,,,,,,5,,,83,0
80880,note_on,1,0,1,,,,,,,,3,,,84,85
80880,note_on,1,0,13,,,,,,,,5,,,76,90
80880,note_on,0,0,2,,,,,,,,6,,,72,64
80880,note_on,0,0,5,,,,,,,,1,,,64,66
80880,note_on,60,0,5,,,,,,,,1,,,72,72
80880,note_on,1,0,8,,,,,,,,5,,,48,82
80880,note_on,1,0,7,,,,,,,,5,,,84,90
80880,note_on,1,0,2,,,,,,,,6,,,76,70
80880,note_on,60,0,4,,,,,,,,7,,,72,72
80880,note_on,0,0,4,,,,,,,,7,,,64,66
80880,note_on,60,0,6,,,,,,,,4,,,48,74
80899,note_on,19,0,8,,,,,,,,5,,,48,0
80900,note_on,1,0,8,,,,,,,,5,,,52,80
80919,note_on,19,0,8,,,,,,,,5,,,52,0
80920,note_on,1,0,8,,,,,,,,5,,,55,82
80939,note_on,19,0,8,,,,,,,,5,,,55,0
80939,note_on,59,0,1,,,,,,,,3,,,84,0
80939,note_on,59,0,7,,,,,,,,5,,,84,0
80940,note_on,1,0,7,,,,,,,,5,,,79,90
80940,note_on,60,0,6,,,,,,,,4,,,48,0
80940,note_on,1,0,8,,,,,,,,5,,,60,78
80940,note_on,60,0,4,,,,,,,,7,,,64,0
80940,note_on,0,0,4,,,,,,,,7,,,72,0
80940,note_on,60,0,5,,,,,,,,1,,,64,0
80940,note_on,0,0,5,,,,,,,,1,,,72,0
80940,note_on,1,0,1,,,,,,,,3,,,79,80
80959,note_on,19,0,8,,,,,,,,5,,,60,0
80960,note_on,1,0,8,,,,,,,,5,,,64,80
80979,note_on,19,0,8,,,,,,,,5,,,64,0
80980,note_on,1,0,8,,,,,,,,5,,,67,72
80999,note_on,19,0,8,,,,,,,,5,,,67,0
80999,note_on,119,0,2,,,,,,,,6,,,72,0
80999,note_on,0,0,2,,,,,,,,6,,,76,0
80999,note_on,119,0,13,,,,,,,,5,,,76,0
81000,note_on,1,0,13,,,,,,,,5,,,77,90
81000,note_on,0,0,13,,,,,,,,5,,,74,90
81000,note_on,60,0,6,,,,,,,,4,,,43,66
81000,note_on,0,0,5,,,,,,,,1,,,74,80
81000,note_on,60,0,4,,,,,,,,7,,,67,80
81000,note_on,60,0,5,,,,,,,,1,,,67,80
81000,note_on,1,0,8,,,,,,,,5,,,55,80
81000,note_on,0,0,4,,,,,,,,7,,,74,80
81000,note_on,0,0,2,,,,,,,,6,,,74,59
81000,note_on,1,0,2,,,,,,,,6,,,77,64
81019,note_on,19,0,8,,,,,,,,5,,,55,0
81020,note_on,1,0,8,,,,,,,,5,,,59,74
81039,note_on,19,0,8,,,,,,,,5,,,59,0
81040,note_on,1,0,8,,,,,,,,5,,,62,80
81059,note_on,19,0,8,,,,,,,,5,,,62,0
81059,note_on,119,0,1,,,,,,,,3,,,79,0
81059,note_on,119,0,7,,,,,,,,5,,,79,0
81060,note_on,60,0,6,,,,,,,,4,,,43,0
81060,note_on,1,0,8,,,,,,,,5,,,67,87
81060,note_on,1,0,7,,,,,,,,5,,,83,90
81060,note_on,60,0,4,,,,,,,,7,,,74,0
81060,note_on,0,0,4,,,,,,,,7,,,67,0
81060,note_on,60,0,5,,,,,,,,1,,,74,0
81060,note_on,1,0,1,,,,,,,,3,,,83,85
81060,note_on,0,0,5,,,,,,,,1,,,67,0
81069,note_on,9,0,1,,,,,,,,3,,,83,0
81070,note_on,1,0,1,,,,,,,,3,,,84,82
81079,note_on,9,0,1,,,,,,,,3,,,84,0
81079,note_on,19,0,8,,,,,,,,5,,,67,0
81080,note_on,1,0,1,,,,,,,,3,,,83,82
81080,note_on,1,0,8,,,,,,,,5,,,71,80
81089,note_on,9,0,1,,,,,,,,3,,,83,0
81090,note_on,1,0,1,,,,,,,,3,,,81,82
81099,note_on,19,0,8,,,,,,,,5,,,71,0
81100,note_on,1,0,8,,,,,,,,5,,,74,80
81104,note_on,14,0,1,,,,,,,,3,,,81,0
81105,note_on,1,0,1,,,,,,,,3,,,83,82
81119,note_on,0,0,2,,,,,,,,6,,,77,0
81119,note_on,119,0,2,,,,,,,,6,,,74,0
81119,note_on,19,0,8,,,,,,,,5,,,74,0
81119,note_on,0,0,13,,,,,,,,5,,,77,0
81119,note_on,59,0,7,,,,,,,,5,,,83,0
81119,note_on,119,0,13,,,,,,,,5,,,74,0
81119,note_on,14,0,1,,,,,,,,3,,,83,0
81120,note_on,1,0,2,,,,,,,,6,,,76,80
81120,note_on,1,0,8,,,,,,,,5,,,60,82
81120,note_on,661,0,9,,,,,,,,12,,,76,85
81120,note_on,661,0,11,,,,,,,,14,,,64,68
81120,note_on,0,0,11,,,,,,,,14,,,60,68
81120,note_on,0,0,2,,,,,,,,6,,,72,72
81120,note_on,60,0,4,,,,,,,,7,,,72,82
81120,note_on,1,0,1,,,,,,,,3,,,84,82
81120,note_on,0,0,4,,,,,,,,7,,,76,68
81120,note_on,0,0,5,,,,,,,,1,,,76,68
81120,note_on,60,0,6,,,,,,,,4,,,48,70
81120,note_on,1,0,7,,,,,,,,5,,,76,90
81120,note_on,661,0,10,,,,,,,,13,,,72,74
81120,note_on,60,0,5,,,,,,,,1,,,72,82
81139,note_on,19,0,7,,,,,,,,5,,,76,0
81139,note_on,19,0,8,,,,,,,,5,,,60,0
81140,note_on,1,0,7,,,,,,,,5,,,87,90
81140,note_on,1,0,8,,,,,,,,5,,,71,72
81150,note_on,0,0,11,,,,,,,,14,,,64,0
81150,note_on,30,0,11,,,,,,,,14,,,60,0
81150,note_on,30,0,10,,,,,,,,13,,,72,0
81150,note_on,30,0,9,,,,,,,,12,,,76,0
81159,note_on,19,0,8,,,,,,,,5,,,71,0
81159,note_on,19,0,7,,,,,,,,5,,,87,0
81160,note_on,1,0,7,,,,,,,,5,,,88,90
81160,note_on,1,0,8,,,,,,,,5,,,72,85
81179,note_on,779,0,3,,,,,,,,0,,,55,0
81179,note_on,0,0,3,,,,,,,,0,,,67,0
81179,note_on,19,0,8,,,,,,,,5,,,72,0
81179,note_on,0,0,2,,,,,,,,6,,,76,0
81179,note_on,19,0,7,,,,,,,,5,,,88,0
81179,note_on,59,0,2,,,,,,,,6,,,72,0
81179,note_on,59,0,1,,,,,,,,3,,,84,0
81180,note_on,30,0,9,,,,,,,,12,,,74,76
81180,note_on,30,0,11,,,,,,,,14,,,62,66
81180,note_on,1,0,7,,,,,,,,5,,,74,90
81180,note_on,30,0,10,,,,,,,,13,,,71,64
81180,note_on,60,0,4,,,,,,,,7,,,76,0
81180,note_on,0,0,4,,,,,,,,7,,,72,0
81180,note_on,0,0,5,,,,,,,,1,,,72,0
81180,note_on,60,0,6,,,,,,,,4,,,48,0
81180,note_on,1,0,8,,,,,,,,5,,,59,80
81180,note_on,0,0,11,,,,,,,,14,,,59,60
81180,note_on,60,0,5,,,,,,,,1,,,76,0
81199,note_on,19,0,8,,,,,,,,5,,,59,0
81199,note_on,19,0,7,,,,,,,,5,,,74,0
81200,note_on,1,0,7,,,,,,,,5,,,85,90
81200,note_on,1,0,8,,,,,,,,5,,,70,80
81210,note_on,30,0,9,,,,,,,,12,,,74,0
81210,note_on,0,0,11,,,,,,,,14,,,62,0
81210,note_on,30,0,10,,,,,,,,13,,,71,0
81210,note_on,30,0,11,,,,,,,,14,,,59,0
81219,note_on,19,0,8,,,,,,,,5,,,70,0
81219,note_on,19,0,7,,,,,,,,5,,,85,0
81220,note_on,1,0,8,,,,,,,,5,,,71,85
81220,note_on,1,0,7,,,,,,,,5,,,86,90
81239,note_on,19,0,7,,,,,,,,5,,,86,0
81239,note_on,19,0,8,,,,,,,,5,,,71,0
81240,note_on,30,0,10,,,,,,,,13,,,69,66
81240,note_on,1,0,8,,,,,,,,5,,,57,78
81240,note_on,30,0,9,,,,,,,,12,,,72,78
81240,note_on,30,0,11,,,,,,,,14,,,60,82
81240,note_on,0,0,11,,,,,,,,14,,,57,68
81240,note_on,1,0,7,,,,,,,,5,,,72,90
81259,note_on,19,0,7,,,,,,,,5,,,72,0
81259,note_on,19,0,8,,,,,,,,5,,,57,0
81260,note_on,1,0,8,,,,,,,,5,,,68,82
81260,note_on,1,0,7,,,,,,,,5,,,83,90
81270,note_on,30,0,10,,,,,,,,13,,,69,0
81270,note_on,30,0,9,,,,,,,,12,,,72,0
81270,note_on,30,0,11,,,,,,,,14,,,57,0
81270,note_on,0,0,11,,,,,,,,14,,,60,0
81279,note_on,19,0,7,,,,,,,,5,,,83,0
81279,note_on,19,0,8,,,,,,,,5,,,68,0
81280,note_on,1,0,8,,,,,,,,5,,,69,80
81280,note_on,1,0,7,,,,,,,,5,,,84,90
81299,note_on,19,0,8,,,,,,,,5,,,69,0
81299,note_on,19,0,7,,,,,,,,5,,,84,0
81300,note_on,30,0,9,,,,,,,,12,,,71,68
81300,note_on,1,0,8,,,,,,,,5,,,55,80
81300,note_on,0,0,11,,,,,,,,14,,,59,46
81300,note_on,1,0,7,,,,,,,,5,,,71,90
81300,note_on,30,0,10,,,,,,,,13,,,67,68
81300,note_on,30,0,11,,,,,,,,14,,,55,68
81319,note_on,19,0,8,,,,,,,,5,,,55,0
81319,note_on,19,0,7,,,,,,,,5,,,71,0
81320,note_on,1,0,8,,,,,,,,5,,,66,78
81320,note_on,1,0,7,,,,,,,,5,,,82,90
81330,note_on,30,0,9,,,,,,,,12,,,71,0
81330,note_on,0,0,11,,,,,,,,14,,,55,0
81330,note_on,30,0,11,,,,,,,,14,,,59,0
81330,note_on,30,0,10,,,,,,,,13,,,67,0
81339,note_on,19,0,7,,,,,,,,5,,,82,0
81339,note_on,19,0,8,,,,,,,,5,,,66,0
81340,note_on,1,0,7,,,,,,,,5,,,83,90
81340,note_on,1,0,8,,,,,,,,5,,,67,82
81359,note_on,19,0,7,,,,,,,,5,,,83,0
81359,note_on,19,0,8,,,,,,,,5,,,67,0
81360,note_on,0,0,11,,,,,,,,14,,,53,68
81360,note_on,30,0,11,,,,,,,,14,,,57,66
81360,note_on,30,0,9,,,,,,,,12,,,69,68
81360,note_on,1,0,8,,,,,,,,5,,,53,89
81360,note_on,1,0,7,,,,,,,,5,,,69,90
81360,note_on,30,0,10,,,,,,,,13,,,65,70
81379,note_on,19,0,8,,,,,,,,5,,,53,0
81379,note_on,19,0,7,,,,,,,,5,,,69,0
81380,note_on,1,0,8,,,,,,,,5,,,64,85
81380,note_on,1,0,7,,,,,,,,5,,,80,90
81390,note_on,30,0,10,,,,,,,,13,,,65,0
81390,note_on,30,0,11,,,,,,,,14,,,53,0
81390,note_on,0,0,11,,,,,,,,14,,,57,0
81390,note_on,30,0,9,,,,,,,,12,,,69,0
81399,note_on,19,0,7,,,,,,,,5,,,80,0
81399,note_on,19,0,8,,,,,,,,5,,,64,0
81400,note_on,1,0,7,,,,,,,,5,,,81,90
81400,note_on,1,0,8,,,,,,,,5,,,65,85
81419,note_on,19,0,7,,,,,,,,5,,,81,0
81419,note_on,19,0,8,,,,,,,,5,,,65,0
81420,note_on,1,0,8,,,,,,,,5,,,52,87
81420,note_on,0,0,11,,,,,,,,14,,,55,72
81420,note_on,30,0,11,,,,,,,,14,,,52,64
81420,note_on,30,0,10,,,,,,,,13,,,64,68
81420,note_on,30,0,9,,,,,,,,12,,,67,68
81420,note_on,1,0,7,,,,,,,,5,,,67,90
81439,note_on,19,0,7,,,,,,,,5,,,67,0
81439,note_on,19,0,8,,,,,,,,5,,,52,0
81440,note_on,1,0,8,,,,,,,,5,,,63,80
81440,note_on,1,0,7,,,,,,,,5,,,78,90
81450,note_on,30,0,11,,,,,,,,14,,,55,0
81450,note_on,30,0,9,,,,,,,,12,,,67,0
81450,note_on,0,0,11,,,,,,,,14,,,52,0
81450,note_on,30,0,10,,,,,,,,13,,,64,0
81459,note_on,19,0,8,,,,,,,,5,,,63,0
81459,note_on,19,0,7,,,,,,,,5,,,78,0
81460,note_on,1,0,8,,,,,,,,5,,,64,80
81460,note_on,1,0,7,,,,,,,,5,,,79,90
81479,note_on,19,0,7,,,,,,,,5,,,79,0
81479,note_on,19,0,8,,,,,,,,5,,,64,0
81480,note_on,1,0,8,,,,,,,,5,,,50,85
81480,note_on,30,0,11,,,,,,,,14,,,50,66
81480,note_on,30,0,9,,,,,,,,12,,,65,70
81480,note_on,1,0,7,,,,,,,,5,,,65,90
81480,note_on,0,0,11,,,,,,,,14,,,53,66
81480,note_on,30,0,10,,,,,,,,13,,,62,70
81499,note_on,19,0,8,,,,,,,,5,,,50,0
81499,note_on,19,0,7,,,,,,,,5,,,65,0
81500,note_on,1,0,7,,,,,,,,5,,,76,90
81500,note_on,1,0,8,,,,,,,,5,,,61,78
81510,note_on,0,0,11,,,,,,,,14,,,50,0
81510,note_on,30,0,9,,,,,,,,12,,,65,0
81510,note_on,30,0,10,,,,,,,,13,,,62,0
81510,note_on,30,0,11,,,,,,,,14,,,53,0
81519,note_on,19,0,7,,,,,,,,5,,,76,0
81519,note_on,19,0,8,,,,,,,,5,,,61,0
81520,note_on,1,0,7,,,,,,,,5,,,77,90
81520,note_on,1,0,8,,,,,,,,5,,,62,82
81539,note_on,19,0,8,,,,,,,,5,,,62,0
81539,note_on,19,0,7,,,,,,,,5,,,77,0
81540,note_on,30,0,9,,,,,,,,12,,,64,72
81540,note_on,1,0,8,,,,,,,,5,,,48,80
81540,note_on,1,0,7,,,,,,,,5,,,64,90
81540,note_on,30,0,10,,,,,,,,13,,,60,66
81540,note_on,30,0,11,,,,,,,,14,,,48,80
81540,note_on,0,0,11,,,,,,,,14,,,52,78
81559,note_on,19,0,7,,,,,,,,5,,,64,0
81559,note_on,19,0,8,,,,,,,,5,,,48,0
81560,note_on,1,0,7,,,,,,,,5,,,75,90
81560,note_on,1,0,8,,,,,,,,5,,,59,82
81570,note_on,30,0,9,,,,,,,,12,,,64,0
81570,note_on,30,0,10,,,,,,,,13,,,60,0
81570,note_on,0,0,11,,,,,,,,14,,,48,0
81570,note_on,30,0,11,,,,,,,,14,,,52,0
81579,note_on,19,0,8,,,,,,,,5,,,59,0
81579,note_on,19,0,7,,,,,,,,5,,,75,0
81580,note_on,1,0,7,,,,,,,,5,,,76,90
81580,note_on,1,0,8,,,,,,,,5,,,60,80
81599,note_on,19,0,8,,,,,,,,5,,,60,0
81599,note_on,19,0,7,,,,,,,,5,,,76,0
81600,note_on,0,0,11,,,,,,,,14,,,53,72
81600,note_on,30,0,10,,,,,,,,13,,,62,70
81600,note_on,30,0,11,,,,,,,,14,,,50,70
81600,note_on,30,0,9,,,,,,,,12,,,65,70
81600,note_on,0,0,7,,,,,,,,5,,,65,90
81600,note_on,1,0,7,,,,,,,,5,,,77,90
81600,note_on,0,0,8,,,,,,,,5,,,62,87
81600,note_on,1,0,8,,,,,,,,5,,,50,87
81659,note_on,59,0,9,,,,,,,,12,,,65,0
81659,note_on,0,0,7,,,,,,,,5,,,77,0
81659,note_on,59,0,7,,,,,,,,5,,,65,0
81659,note_on,0,0,11,,,,,,,,14,,,50,0
81659,note_on,0,0,8,,,,,,,,5,,,50,0
81659,note_on,59,0,8,,,,,,,,5,,,62,0
81659,note_on,59,0,10,,,,,,,,13,,,62,0
81659,note_on,59,0,11,,,,,,,,14,,,53,0
81660,note_on,1,0,8,,,,,,,,5,,,52,82
81660,note_on,1,0,7,,,,,,,,5,,,67,90
81674,note_on,14,0,7,,,,,,,,5,,,67,0
81674,note_on,14,0,8,,,,,,,,5,,,52,0
81675,note_on,1,0,8,,,,,,,,5,,,64,72
81675,note_on,1,0,7,,,,,,,,5,,,79,90
81689,note_on,14,0,8,,,,,,,,5,,,64,0
81689,note_on,14,0,7,,,,,,,,5,,,79,0
81690,note_on,1,0,7,,,,,,,,5,,,69,90
81690,note_on,1,0,8,,,,,,,,5,,,53,85
81704,note_on,14,0,7,,,,,,,,5,,,69,0
81704,note_on,14,0,8,,,,,,,,5,,,53,0
81705,note_on,1,0,7,,,,,,,,5,,,81,90
81705,note_on,1,0,8,,,,,,,,5,,,65,82
81719,note_on,14,0,7,,,,,,,,5,,,81,0
81719,note_on,14,0,8,,,,,,,,5,,,65,0
81720,note_on,1,0,7,,,,,,,,5,,,71,90
81720,note_on,1,0,8,,,,,,,,5,,,55,70
81734,note_on,14,0,7,,,,,,,,5,,,71,0
81734,note_on,14,0,8,,,,,,,,5,,,55,0
81735,note_on,1,0,7,,,,,,,,5,,,83,90
81735,note_on,1,0,8,,,,,,,,5,,,67,82
81749,note_on,14,0,8,,,,,,,,5,,,67,0
81749,note_on,14,0,7,,,,,,,,5,,,83,0
81750,note_on,1,0,8,,,,,,,,5,,,57,80
81750,note_on,1,0,7,,,,,,,,5,,,72,90
81764,note_on,14,0,8,,,,,,,,5,,,57,0
81764,note_on,14,0,7,,,,,,,,5,,,72,0
81765,note_on,1,0,7,,,,,,,,5,,,84,90
81765,note_on,1,0,8,,,,,,,,5,,,69,82
81779,note_on,14,0,7,,,,,,,,5,,,84,0
81779,note_on,14,0,8,,,,,,,,5,,,69,0
81780,note_on,1,0,7,,,,,,,,5,,,74,90
81780,note_on,1,0,8,,,,,,,,5,,,59,72
81794,note_on,14,0,8,,,,,,,,5,,,59,0
81794,note_on,14,0,7,,,,,,,,5,,,74,0
81795,note_on,1,0,8,,,,,,,,5,,,71,80
81795,note_on,1,0,7,,,,,,,,5,,,86,90
81809,note_on,14,0,7,,,,,,,,5,,,86,0
81809,note_on,14,0,8,,,,,,,,5,,,71,0
81810,note_on,1,0,7,,,,,,,,5,,,76,90
81810,note_on,1,0,8,,,,,,,,5,,,60,78
81824,note_on,14,0,7,,,,,,,,5,,,76,0
81824,note_on,14,0,8,,,,,,,,5,,,60,0
81825,note_on,1,0,7,,,,,,,,5,,,88,90
81825,note_on,1,0,8,,,,,,,,5,,,72,82
81839,note_on,14,0,7,,,,,,,,5,,,88,0
81839,note_on,14,0,8,,,,,,,,5,,,72,0
81840,note_on,1,0,8,,,,,,,,5,,,62,85
81840,note_on,0,0,8,,,,,,,,5,,,74,87
81840,note_on,661,0,3,,,,,,,,0,,,62,82
81840,note_on,1,0,7,,,,,,,,5,,,77,90
81840,note_on,661,0,1,,,,,,,,3,,,89,85
81840,note_on,0,0,7,,,,,,,,5,,,89,90
81855,note_on,15,0,1,,,,,,,,3,,,89,0
81855,note_on,15,0,3,,,,,,,,0,,,62,0
81870,note_on,15,0,1,,,,,,,,3,,,88,85
81870,note_on,15,0,3,,,,,,,,0,,,60,78
81885,note_on,15,0,1,,,,,,,,3,,,88,0
81885,note_on,15,0,3,,,,,,,,0,,,60,0
81899,note_on,0,0,8,,,,,,,,5,,,62,0
81899,note_on,59,0,8,,,,,,,,5,,,74,0
81899,note_on,59,0,7,,,,,,,,5,,,89,0
81899,note_on,0,0,7,,,,,,,,5,,,77,0
81900,note_on,15,0,1,,,,,,,,3,,,86,68
81900,note_on,15,0,3,,,,,,,,0,,,59,80
81915,note_on,15,0,1,,,,,,,,3,,,86,0
81915,note_on,15,0,3,,,,,,,,0,,,59,0
81930,note_on,15,0,3,,,,,,,,0,,,57,78
81930,note_on,15,0,1,,,,,,,,3,,,84,78
81945,note_on,15,0,3,,,,,,,,0,,,57,0
81945,note_on,15,0,1,,,,,,,,3,,,84,0
81960,note_on,301,0,9,,,,,,,,12,,,65,76
81960,note_on,301,0,10,,,,,,,,13,,,59,76
81960,note_on,61,0,7,,,,,,,,5,,,84,100
81960,note_on,15,0,3,,,,,,,,0,,,55,68
81960,note_on,15,0,1,,,,,,,,3,,,83,76
81960,note_on,1501,0,12,,,,,,,,15,,,55,82
81960,note_on,301,0,11,,,,,,,,14,,,62,82
81960,note_on,0,0,8,,,,,,,,5,,,62,85
81960,note_on,61,0,8,,,,,,,,5,,,55,80
81960,note_on,0,0,8,,,,,,,,5,,,65,87
81974,note_on,14,0,7,,,,,,,,5,,,84,0
81975,note_on,15,0,1,,,,,,,,3,,,83,0
81975,note_on,15,0,3,,,,,,,,0,,,55,0
81975,note_on,1,0,7,,,,,,,,5,,,83,100
81989,note_on,14,0,7,,,,,,,,5,,,83,0
81990,note_on,15,0,3,,,,,,,,0,,,53,78
81990,note_on,1,0,7,,,,,,,,5,,,84,100
81990,note_on,15,0,1,,,,,,,,3,,,81,76
82004,note_on,14,0,7,,,,,,,,5,,,84,0
82005,note_on,15,0,3,,,,,,,,0,,,53,0
82005,note_on,15,0,1,,,,,,,,3,,,81,0
82005,note_on,1,0,7,,,,,,,,5,,,83,100
82019,note_on,14,0,7,,,,,,,,5,,,83,0
82020,note_on,15,0,1,,,,,,,,3,,,79,68
82020,note_on,60,0,11,,,,,,,,14,,,60,72
82020,note_on,1,0,7,,,,,,,,5,,,84,100
82020,note_on,15,0,3,,,,,,,,0,,,52,82
82034,note_on,14,0,7,,,,,,,,5,,,84,0
82035,note_on,1,0,7,,,,,,,,5,,,83,100
82035,note_on,15,0,3,,,,,,,,0,,,52,0
82035,note_on,15,0,1,,,,,,,,3,,,79,0
82049,note_on,14,0,7,,,,,,,,5,,,83,0
82050,note_on,15,0,3,,,,,,,,0,,,50,80
82050,note_on,1,0,7,,,,,,,,5,,,81,100
82050,note_on,15,0,1,,,,,,,,3,,,77,80
82064,note_on,14,0,7,,,,,,,,5,,,81,0
82065,note_on,15,0,1,,,,,,,,3,,,77,0
82065,note_on,15,0,3,,,,,,,,0,,,50,0
82065,note_on,1,0,7,,,,,,,,5,,,83,100
82079,note_on,119,0,9,,,,,,,,12,,,65,0
82079,note_on,0,0,8,,,,,,,,5,,,65,0
82079,note_on,119,0,8,,,,,,,,5,,,62,0
82079,note_on,119,0,12,,,,,,,,15,,,55,0
82079,note_on,119,0,10,,,,,,,,13,,,59,0
82079,note_on,0,0,8,,,,,,,,5,,,55,0
82079,note_on,14,0,7,,,,,,,,5,,,83,0
82080,note_on,1,0,12,,,,,,,,15,,,57,76
82080,note_on,15,0,1,,,,,,,,3,,,76,85
82080,note_on,1,0,7,,,,,,,,5,,,84,100
82080,note_on,0,0,8,,,,,,,,5,,,64,80
82080,note_on,0,0,11,,,,,,,,14,,,62,0
82080,note_on,60,0,11,,,,,,,,14,,,60,0
82080,note_on,15,0,3,,,,,,,,0,,,48,82
82080,note_on,1,0,8,,,,,,,,5,,,57,85
82080,note_on,1,0,10,,,,,,,,13,,,60,68
82080,note_on,0,0,8,,,,,,,,5,,,60,85
82080,note_on,1,0,9,,,,,,,,12,,,64,66
82139,note_on,59,0,1,,,,,,,,3,,,76,0
82139,note_on,59,0,8,,,,,,,,5,,,64,0
82139,note_on,0,0,8,,,,,,,,5,,,60,0
82139,note_on,0,0,8,,,,,,,,5,,,57,0
82139,note_on,59,0,7,,,,,,,,5,,,84,0
82139,note_on,59,0,12,,,,,,,,15,,,57,0
82139,note_on,59,0,3,,,,,,,,0,,,48,0
82139,note_on,59,0,10,,,,,,,,13,,,60,0
82139,note_on,59,0,9,,,,,,,,12,,,64,0
82200,note_on,61,0,12,,,,,,,,15,,,53,76
82200,note_on,0,0,8,,,,,,,,5,,,60,80
82200,note_on,120,0,11,,,,,,,,14,,,57,74
82200,note_on,61,0,10,,,,,,,,13,,,65,76
82200,note_on,61,0,9,,,,,,,,12,,,65,72
82200,note_on,61,0,8,,,,,,,,5,,,53,85
82200,note_on,61,0,7,,,,,,,,5,,,81,100
82200,note_on,0,0,8,,,,,,,,5,,,62,85
82289,note_on,89,0,7,,,,,,,,5,,,81,0
82290,note_on,1,0,7,,,,,,,,5,,,83,100
82304,note_on,14,0,7,,,,,,,,5,,,83,0
82305,note_on,1,0,7,,,,,,,,5,,,84,100
82319,note_on,0,0,8,,,,,,,,5,,,60,0
82319,note_on,0,0,8,,,,,,,,5,,,53,0
82319,note_on,14,0,7,,,,,,,,5,,,84,0
82319,note_on,119,0,12,,,,,,,,15,,,53,0
82319,note_on,119,0,9,,,,,,,,12,,,65,0
82319,note_on,119,0,10,,,,,,,,13,,,65,0
82319,note_on,119,0,8,,,,,,,,5,,,62,0
82320,note_on,0,0,11,,,,,,,,14,,,55,76
82320,note_on,1,0,7,,,,,,,,5,,,84,100
82320,note_on,1,0,10,,,,,,,,13,,,64,72
82320,note_on,1,0,9,,,,,,,,12,,,64,82
82320,note_on,120,0,11,,,,,,,,14,,,57,0
82320,note_on,1,0,12,,,,,,,,15,,,55,82
82320,note_on,0,0,8,,,,,,,,5,,,60,85
82320,note_on,0,0,8,,,,,,,,5,,,64,85
82320,note_on,1,0,8,,,,,,,,5,,,55,80
82349,note_on,29,0,7,,,,,,,,5,,,84,0
82350,note_on,1,0,7,,,,,,,,5,,,76,100
82379,note_on,29,0,7,,,,,,,,5,,,76,0
82379,note_on,0,0,8,,,,,,,,5,,,55,0
82379,note_on,0,0,8,,,,,,,,5,,,64,0
82379,note_on,59,0,8,,,,,,,,5,,,60,0
82439,note_on,119,0,9,,,,,,,,12,,,64,0
82439,note_on,119,0,12,,,,,,,,15,,,55,0
82439,note_on,119,0,10,,,,,,,,13,,,64,0
82440,note_on,61,0,7,,,,,,,,5,,,79,100
82440,note_on,120,0,11,,,,,,,,14,,,55,0
82440,note_on,0,0,11,,,,,,,,14,,,53,68
82440,note_on,0,0,8,,,,,,,,5,,,62,82
82440,note_on,1,0,10,,,,,,,,13,,,62,72
82440,note_on,1,0,12,,,,,,,,15,,,43,80
82440,note_on,1,0,9,,,,,,,,12,,,62,70
82440,note_on,61,0,8,,,,,,,,5,,,55,87
82440,note_on,0,0,8,,,,,,,,5,,,65,80
82469,note_on,29,0,7,,,,,,,,5,,,79,0
82470,note_on,1,0,7,,,,,,,,5,,,71,100
82499,note_on,29,0,7,,,,,,,,5,,,71,0
82499,note_on,0,0,8,,,,,,,,5,,,55,0
82499,note_on,59,0,8,,,,,,,,5,,,62,0
82499,note_on,0,0,8,,,,,,,,5,,,65,0
82559,note_on,119,0,10,,,,,,,,13,,,62,0
82559,note_on,119,0,12,,,,,,,,15,,,43,0
82559,note_on,119,0,9,,,,,,,,12,,,62,0
82560,note_on,1,0,9,,,,,,,,12,,,60,80
82560,note_on,1,0,10,,,,,,,,13,,,60,72
82560,note_on,0,0,4,,,,,,,,7,,,72,85
82560,note_on,1,0,12,,,,,,,,15,,,48,85
82560,note_on,61,0,8,,,,,,,,5,,,36,87
82560,note_on,61,0,7,,,,,,,,5,,,60,70
82560,note_on,120,0,11,,,,,,,,14,,,53,0
82560,note_on,0,0,11,,,,,,,,14,,,52,80
82560,note_on,1380,0,4,,,,,,,,7,,,60,80
82579,note_on,19,0,7,,,,,,,,5,,,60,0
82580,note_on,1,0,7,,,,,,,,5,,,55,70
82599,note_on,19,0,7,,,,,,,,5,,,55,0
82600,note_on,1,0,7,,,,,,,,5,,,52,70
82619,note_on,19,0,7,,,,,,,,5,,,52,0
82620,note_on,1,0,7,,,,,,,,5,,,48,71
82639,note_on,19,0,7,,,,,,,,5,,,48,0
82640,note_on,1,0,7,,,,,,,,5,,,64,71
82659,note_on,19,0,7,,,,,,,,5,,,64,0
82660,note_on,1,0,7,,,,,,,,5,,,60,72
82679,note_on,119,0,10,,,,,,,,13,,,60,0
82679,note_on,119,0,11,,,,,,,,14,,,52,0
82679,note_on,19,0,7,,,,,,,,5,,,60,0
82679,note_on,119,0,9,,,,,,,,12,,,60,0
82680,note_on,1,0,9,,,,,,,,12,,,62,80
82680,note_on,1,0,11,,,,,,,,14,,,53,85
82680,note_on,1,0,10,,,,,,,,13,,,59,68
82680,note_on,0,0,10,,,,,,,,13,,,50,80
82680,note_on,1,0,7,,,,,,,,5,,,62,72
82699,note_on,19,0,7,,,,,,,,5,,,62,0
82700,note_on,1,0,7,,,,,,,,5,,,59,73
82719,note_on,19,0,7,,,,,,,,5,,,59,0
82720,note_on,1,0,7,,,,,,,,5,,,53,73
82739,note_on,19,0,7,,,,,,,,5,,,53,0
82740,note_on,1,0,7,,,,,,,,5,,,50,74
82759,note_on,19,0,7,,,,,,,,5,,,50,0
82760,note_on,1,0,7,,,,,,,,5,,,65,74
82779,note_on,19,0,7,,,,,,,,5,,,65,0
82780,note_on,1,0,7,,,,,,,,5,,,62,75
82799,note_on,119,0,11,,,,,,,,14,,,53,0
82799,note_on,119,0,10,,,,,,,,13,,,50,0
82799,note_on,119,0,9,,,,,,,,12,,,62,0
82799,note_on,19,0,7,,,,,,,,5,,,62,0
82799,note_on,0,0,10,,,,,,,,13,,,59,0
82800,note_on,1,0,9,,,,,,,,12,,,64,82
82800,note_on,1,0,10,,,,,,,,13,,,60,68
82800,note_on,1,0,11,,,,,,,,14,,,55,87
82800,note_on,1,0,7,,,,,,,,5,,,64,75
82819,note_on,19,0,7,,,,,,,,5,,,64,0
82820,note_on,1,0,7,,,,,,,,5,,,60,76
82839,note_on,19,0,7,,,,,,,,5,,,60,0
82840,note_on,1,0,7,,,,,,,,5,,,55,76
82859,note_on,19,0,7,,,,,,,,5,,,55,0
82860,note_on,1,0,7,,,,,,,,5,,,52,77
82879,note_on,19,0,7,,,,,,,,5,,,52,0
82880,note_on,1,0,7,,,,,,,,5,,,67,77
82899,note_on,19,0,7,,,,,,,,5,,,67,0
82900,note_on,1,0,7,,,,,,,,5,,,64,78
82919,note_on,119,0,11,,,,,,,,14,,,55,0
82919,note_on,119,0,10,,,,,,,,13,,,60,0
82919,note_on,119,0,9,,,,,,,,12,,,64,0
82919,note_on,19,0,7,,,,,,,,5,,,64,0
82920,note_on,1,0,11,,,,,,,,14,,,50,87
82920,note_on,1,0,9,,,,,,,,12,,,65,76
82920,note_on,1,0,10,,,,,,,,13,,,59,76
82920,note_on,1,0,7,,,,,,,,5,,,65,78
82939,note_on,19,0,7,,,,,,,,5,,,65,0
82940,note_on,1,0,7,,,,,,,,5,,,62,79
82959,note_on,19,0,7,,,,,,,,5,,,62,0
82960,note_on,1,0,7,,,,,,,,5,,,59,79
82979,note_on,19,0,7,,,,,,,,5,,,59,0
82980,note_on,1,0,7,,,,,,,,5,,,71,80
82999,note_on,19,0,7,,,,,,,,5,,,71,0
83000,note_on,1,0,7,,,,,,,,5,,,65,80
83019,note_on,19,0,7,,,,,,,,5,,,65,0
83020,note_on,1,0,7,,,,,,,,5,,,62,80
83039,note_on,119,0,10,,,,,,,,13,,,59,0
83039,note_on,19,0,7,,,,,,,,5,,,62,0
83039,note_on,479,0,8,,,,,,,,5,,,36,0
83039,note_on,119,0,9,,,,,,,,12,,,65,0
83039,note_on,119,0,11,,,,,,,,14,,,50,0
83040,note_on,1,0,10,,,,,,,,13,,,60,70
83040,note_on,1,0,11,,,,,,,,14,,,48,85
83040,note_on,1,0,9,,,,,,,,12,,,64,80
83040,note_on,1,0,8,,,,,,,,5,,,48,85
83040,note_on,1,0,7,,,,,,,,5,,,72,81
83059,note_on,19,0,7,,,,,,,,5,,,72,0
83060,note_on,1,0,7,,,,,,,,5,,,67,81
83069,note_on,29,0,10,,,,,,,,13,,,60,0
83079,note_on,19,0,7,,,,,,,,5,,,67,0
83080,note_on,1,0,7,,,,,,,,5,,,64,82
83099,note_on,59,0,11,,,,,,,,14,,,48,0
83099,note_on,19,0,7,,,,,,,,5,,,64,0
83099,note_on,59,0,9,,,,,,,,12,,,64,0
83100,note_on,31,0,10,,,,,,,,13,,,72,72
83100,note_on,1,0,7,,,,,,,,5,,,60,82
83100,note_on,1,0,11,,,,,,,,14,,,64,85
83100,note_on,1,0,9,,,,,,,,12,,,72,80
83119,note_on,19,0,7,,,,,,,,5,,,60,0
83120,note_on,1,0,7,,,,,,,,5,,,76,83
83129,note_on,29,0,11,,,,,,,,14,,,64,0
83129,note_on,29,0,9,,,,,,,,12,,,72,0
83139,note_on,19,0,7,,,,,,,,5,,,76,0
83140,note_on,1,0,7,,,,,,,,5,,,72,83
83159,note_on,59,0,10,,,,,,,,13,,,72,0
83159,note_on,19,0,7,,,,,,,,5,,,72,0
83160,note_on,1,0,10,,,,,,,,13,,,71,70
83160,note_on,1,0,7,,,,,,,,5,,,74,84
83160,note_on,31,0,9,,,,,,,,12,,,74,68
83160,note_on,31,0,11,,,,,,,,14,,,65,80
83179,note_on,19,0,7,,,,,,,,5,,,74,0
83180,note_on,1,0,7,,,,,,,,5,,,71,84
83199,note_on,19,0,7,,,,,,,,5,,,71,0
83200,note_on,1,0,7,,,,,,,,5,,,65,85
83219,note_on,19,0,7,,,,,,,,5,,,65,0
83220,note_on,1,0,7,,,,,,,,5,,,62,85
83239,note_on,19,0,7,,,,,,,,5,,,62,0
83240,note_on,1,0,7,,,,,,,,5,,,77,86
83259,note_on,19,0,7,,,,,,,,5,,,77,0
83260,note_on,1,0,7,,,,,,,,5,,,74,86
83279,note_on,119,0,10,,,,,,,,13,,,71,0
83279,note_on,19,0,7,,,,,,,,5,,,74,0
83279,note_on,119,0,9,,,,,,,,12,,,74,0
83279,note_on,119,0,11,,,,,,,,14,,,65,0
83280,note_on,1,0,10,,,,,,,,13,,,72,66
83280,note_on,1,0,7,,,,,,,,5,,,76,87
83280,note_on,1,0,9,,,,,,,,12,,,76,72
83280,note_on,1,0,11,,,,,,,,14,,,67,87
83299,note_on,19,0,7,,,,,,,,5,,,76,0
83300,note_on,1,0,7,,,,,,,,5,,,72,87
83319,note_on,19,0,7,,,,,,,,5,,,72,0
83320,note_on,1,0,7,,,,,,,,5,,,67,88
83339,note_on,19,0,7,,,,,,,,5,,,67,0
83340,note_on,1,0,7,,,,,,,,5,,,64,88
83359,note_on,19,0,7,,,,,,,,5,,,64,0
83360,note_on,1,0,7,,,,,,,,5,,,79,89
83379,note_on,19,0,7,,,,,,,,5,,,79,0
83380,note_on,1,0,7,,,,,,,,5,,,76,89
83399,note_on,119,0,11,,,,,,,,14,,,67,0
83399,note_on,119,0,9,,,,,,,,12,,,76,0
83399,note_on,19,0,7,,,,,,,,5,,,76,0
83399,note_on,119,0,10,,,,,,,,13,,,72,0
83400,note_on,1,0,7,,,,,,,,5,,,77,90
83400,note_on,1,0,11,,,,,,,,14,,,62,87
83400,note_on,1,0,10,,,,,,,,13,,,71,72
83400,note_on,1,0,9,,,,,,,,12,,,77,76
83419,note_on,19,0,7,,,,,,,,5,,,77,0
83420,note_on,1,0,7,,,,,,,,5,,,74,90
83439,note_on,19,0,7,,,,,,,,5,,,74,0
83440,note_on,1,0,7,,,,,,,,5,,,71,90
83459,note_on,19,0,7,,,,,,,,5,,,71,0
83460,note_on,1321,0,1,,,,,,,,3,,,83,78
83460,note_on,1,0,7,,,,,,,,5,,,83,90
83469,note_on,9,0,1,,,,,,,,3,,,83,0
83470,note_on,1,0,1,,,,,,,,3,,,84,87
83479,note_on,9,0,1,,,,,,,,3,,,84,0
83479,note_on,19,0,7,,,,,,,,5,,,83,0
83480,note_on,1,0,1,,,,,,,,3,,,83,82
83480,note_on,1,0,7,,,,,,,,5,,,77,90
83489,note_on,9,0,1,,,,,,,,3,,,83,0
83490,note_on,1,0,1,,,,,,,,3,,,81,80
83499,note_on,19,0,7,,,,,,,,5,,,77,0
83500,note_on,1,0,7,,,,,,,,5,,,74,90
83504,note_on,14,0,1,,,,,,,,3,,,81,0
83505,note_on,1,0,1,,,,,,,,3,,,83,85
83519,note_on,14,0,1,,,,,,,,3,,,83,0
83519,note_on,479,0,8,,,,,,,,5,,,48,0
83519,note_on,119,0,9,,,,,,,,12,,,77,0
83519,note_on,19,0,7,,,,,,,,5,,,74,0
83519,note_on,119,0,11,,,,,,,,14,,,62,0
83519,note_on,119,0,10,,,,,,,,13,,,71,0
83520,note_on,1,0,7,,,,,,,,5,,,84,90
83520,note_on,1,0,11,,,,,,,,14,,,60,82
83520,note_on,2340,0,6,,,,,,,,4,,,48,76
83520,note_on,1381,0,3,,,,,,,,0,,,67,82
83520,note_on,1,0,8,,,,,,,,5,,,36,82
83520,note_on,2340,0,5,,,,,,,,1,,,64,68
83520,note_on,0,0,2,,,,,,,,6,,,72,80
83520,note_on,2401,0,13,,,,,,,,5,,,76,90
83520,note_on,1,0,1,,,,,,,,3,,,84,82
83520,note_on,1,0,10,,,,,,,,13,,,72,72
83520,note_on,1,0,9,,,,,,,,12,,,76,68
83520,note_on,2341,0,2,,,,,,,,6,,,76,70
83520,note_on,0,0,5,,,,,,,,1,,,72,80
83520,note_on,0,0,3,,,,,,,,0,,,55,70
83539,note_on,19,0,8,,,,,,,,5,,,36,0
83540,note_on,1,0,8,,,,,,,,5,,,40,82
83559,note_on,19,0,8,,,,,,,,5,,,40,0
83560,note_on,1,0,8,,,,,,,,5,,,43,82
83579,note_on,59,0,1,,,,,,,,3,,,84,0
83579,note_on,19,0,8,,,,,,,,5,,,43,0
83579,note_on,59,0,5,,,,,,,,1,,,72,0
83579,note_on,0,0,5,,,,,,,,1,,,64,0
83579,note_on,1019,0,12,,,,,,,,15,,,48,0
83579,note_on,1019,0,4,,,,,,,,7,,,72,0
83579,note_on,0,0,4,,,,,,,,7,,,60,0
83579,note_on,59,0,9,,,,,,,,12,,,76,0
83579,note_on,59,0,7,,,,,,,,5,,,84,0
83579,note_on,59,0,10,,,,,,,,13,,,72,0
83579,note_on,59,0,11,,,,,,,,14,,,60,0
83580,note_on,1,0,1,,,,,,,,3,,,79,80
83580,note_on,60,0,6,,,,,,,,4,,,48,0
83580,note_on,1,0,8,,,,,,,,5,,,48,78
83580,note_on,1,0,7,,,,,,,,5,,,79,90
83599,note_on,19,0,8,,,,,,,,5,,,48,0
83600,note_on,1,0,8,,,,,,,,5,,,52,82
83619,note_on,19,0,8,,,,,,,,5,,,52,0
83620,note_on,1,0,8,,,,,,,,5,,,55,74
83639,note_on,119,0,13,,,,,,,,5,,,76,0
83639,note_on,0,0,2,,,,,,,,6,,,76,0
83639,note_on,19,0,8,,,,,,,,5,,,55,0
83639,note_on,119,0,2,,,,,,,,6,,,72,0
83640,note_on,0,0,13,,,,,,,,5,,,77,90
83640,note_on,1,0,8,,,,,,,,5,,,43,74
83640,note_on,61,0,5,,,,,,,,1,,,67,72
83640,note_on,0,0,4,,,,,,,,7,,,74,82
83640,note_on,0,0,2,,,,,,,,6,,,74,66
83640,note_on,1,0,2,,,,,,,,6,,,77,68
83640,note_on,1,0,13,,,,,,,,5,,,74,90
83640,note_on,60,0,6,,,,,,,,4,,,43,72
83640,note_on,61,0,4,,,,,,,,7,,,67,72
83640,note_on,0,0,5,,,,,,,,1,,,74,82
83659,note_on,19,0,8,,,,,,,,5,,,43,0
83660,note_on,1,0,8,,,,,,,,5,,,47,70
83679,note_on,19,0,8,,,,,,,,5,,,47,0
83680,note_on,1,0,8,,,,,,,,5,,,50,78
83699,note_on,19,0,8,,,,,,,,5,,,50,0
83699,note_on,119,0,1,,,,,,,,3,,,79,0
83699,note_on,119,0,7,,,,,,,,5,,,79,0
83700,note_on,60,0,6,,,,,,,,4,,,43,0
83700,note_on,60,0,4,,,,,,,,7,,,74,0
83700,note_on,0,0,4,,,,,,,,7,,,67,0
83700,note_on,1,0,1,,,,,,,,3,,,83,87
83700,note_on,1,0,7,,,,,,,,5,,,83,90
83700,note_on,0,0,5,,,,,,,,1,,,67,0
83700,note_on,60,0,5,,,,,,,,1,,,74,0
83700,note_on,1,0,8,,,,,,,,5,,,55,66
83709,note_on,9,0,1,,,,,,,,3,,,83,0
83710,note_on,1,0,1,,,,,,,,3,,,84,82
83719,note_on,19,0,8,,,,,,,,5,,,55,0
83719,note_on,9,0,1,,,,,,,,3,,,84,0
83720,note_on,1,0,8,,,,,,,,5,,,59,70
83720,note_on,1,0,1,,,,,,,,3,,,83,82
83729,note_on,9,0,1,,,,,,,,3,,,83,0
83730,note_on,1,0,1,,,,,,,,3,,,83,82
83739,note_on,19,0,8,,,,,,,,5,,,59,0
83740,note_on,1,0,8,,,,,,,,5,,,62,70
83744,note_on,14,0,1,,,,,,,,3,,,83,0
83745,note_on,1,0,1,,,,,,,,3,,,83,82
83759,note_on,0,0,13,,,,,,,,5,,,74,0
83759,note_on,119,0,13,,,,,,,,5,,,77,0
83759,note_on,19,0,8,,,,,,,,5,,,62,0
83759,note_on,14,0,1,,,,,,,,3,,,83,0
83759,note_on,119,0,2,,,,,,,,6,,,74,0
83759,note_on,0,0,2,,,,,,,,6,,,77,0
83759,note_on,59,0,7,,,,,,,,5,,,83,0
83760,note_on,1,0,13,,,,,,,,5,,,76,90
83760,note_on,60,0,6,,,,,,,,4,,,48,70
83760,note_on,0,0,2,,,,,,,,6,,,76,68
83760,note_on,1,0,2,,,,,,,,6,,,72,70
83760,note_on,60,0,4,,,,,,,,7,,,64,80
83760,note_on,60,0,5,,,,,,,,1,,,64,80
83760,note_on,0,0,5,,,,,,,,1,,,72,78
83760,note_on,1,0,1,,,,,,,,3,,,84,78
83760,note_on,0,0,4,,,,,,,,7,,,72,78
83760,note_on,1,0,7,,,,,,,,5,,,84,90
83760,note_on,1,0,8,,,,,,,,5,,,36,82
83779,note_on,19,0,8,,,,,,,,5,,,36,0
83780,note_on,1,0,8,,,,,,,,5,,,40,80
83799,note_on,19,0,8,,,,,,,,5,,,40,0
83800,note_on,1,0,8,,,,,,,,5,,,43,78
83819,note_on,59,0,7,,,,,,,,5,,,84,0
83819,note_on,19,0,8,,,,,,,,5,,,43,0
83819,note_on,59,0,1,,,,,,,,3,,,84,0
83820,note_on,60,0,5,,,,,,,,1,,,72,0
83820,note_on,0,0,5,,,,,,,,1,,,64,0
83820,note_on,1,0,7,,,,,,,,5,,,79,90
83820,note_on,1,0,8,,,,,,,,5,,,48,80
83820,note_on,1,0,1,,,,,,,,3,,,79,80
83820,note_on,60,0,4,,,,,,,,7,,,72,0
83820,note_on,60,0,6,,,,,,,,4,,,48,0
83820,note_on,0,0,4,,,,,,,,7,,,64,0
83839,note_on,19,0,8,,,,,,,,5,,,48,0
83840,note_on,1,0,8,,,,,,,,5,,,52,82
83859,note_on,19,0,8,,,,,,,,5,,,52,0
83860,note_on,1,0,8,,,,,,,,5,,,55,82
83879,note_on,19,0,8,,,,,,,,5,,,55,0
83879,note_on,119,0,2,,,,,,,,6,,,76,0
83879,note_on,0,0,2,,,,,,,,6,,,72,0
83879,note_on,119,0,13,,,,,,,,5,,,76,0
83880,note_on,0,0,4,,,,,,,,7,,,74,85
83880,note_on,60,0,4,,,,,,,,7,,,67,66
83880,note_on,1,0,2,,,,,,,,6,,,77,66
83880,note_on,0,0,5,,,,,,,,1,,,74,85
83880,note_on,60,0,6,,,,,,,,4,,,43,64
83880,note_on,1,0,8,,,,,,,,5,,,43,85
83880,note_on,1,0,13,,,,,,,,5,,,74,90
83880,note_on,0,0,2,,,,,,,,6,,,74,61
83880,note_on,60,0,5,,,,,,,,1,,,67,66
83880,note_on,0,0,13,,,,,,,,5,,,77,90
83899,note_on,19,0,8,,,,,,,,5,,,43,0
83900,note_on,1,0,8,,,,,,,,5,,,47,82
83919,note_on,19,0,8,,,,,,,,5,,,47,0
83920,note_on,1,0,8,,,,,,,,5,,,50,80
83939,note_on,19,0,8,,,,,,,,5,,,50,0
83939,note_on,119,0,1,,,,,,,,3,,,79,0
83939,note_on,119,0,7,,,,,,,,5,,,79,0
83940,note_on,0,0,5,,,,,,,,1,,,67,0
83940,note_on,1,0,8,,,,,,,,5,,,55,70
83940,note_on,60,0,4,,,,,,,,7,,,74,0
83940,note_on,0,0,4,,,,,,,,7,,,67,0
83940,note_on,60,0,5,,,,,,,,1,,,74,0
83940,note_on,60,0,6,,,,,,,,4,,,43,0
83940,note_on,1,0,1,,,,,,,,3,,,83,85
83940,note_on,1,0,7,,,,,,,,5,,,83,90
83949,note_on,9,0,1,,,,,,,,3,,,83,0
83950,note_on,1,0,1,,,,,,,,3,,,84,78
83959,note_on,9,0,1,,,,,,,,3,,,84,0
83959,note_on,19,0,8,,,,,,,,5,,,55,0
83960,note_on,1,0,1,,,,,,,,3,,,83,78
83960,note_on,1,0,8,,,,,,,,5,,,59,82
83969,note_on,9,0,1,,,,,,,,3,,,83,0
83970,note_on,1,0,1,,,,,,,,3,,,81,80
83979,note_on,19,0,8,,,,,,,,5,,,59,0
83980,note_on,1,0,8,,,,,,,,5,,,62,76
83984,note_on,14,0,1,,,,,,,,3,,,81,0
83985,note_on,1,0,1,,,,,,,,3,,,83,82
83999,note_on,59,0,7,,,,,,,,5,,,83,0
83999,note_on,19,0,8,,,,,,,,5,,,62,0
83999,note_on,0,0,2,,,,,,,,6,,,77,0
83999,note_on,119,0,13,,,,,,,,5,,,77,0
83999,note_on,0,0,13,,,,,,,,5,,,74,0
83999,note_on,14,0,1,,,,,,,,3,,,83,0
83999,note_on,119,0,2,,,,,,,,6,,,74,0
84000,note_on,1,0,7,,,,,,,,5,,,84,90
84000,note_on,1,0,2,,,,,,,,6,,,76,70
84000,note_on,0,0,2,,,,,,,,6,,,72,64
84000,note_on,1,0,8,,,,,,,,5,,,48,82
84000,note_on,60,0,6,,,,,,,,4,,,48,74
84000,note_on,0,0,5,,,,,,,,1,,,64,66
84000,note_on,60,0,5,,,,,,,,1,,,72,72
84000,note_on,60,0,4,,,,,,,,7,,,72,72
84000,note_on,0,0,4,,,,,,,,7,,,64,66
84000,note_on,1,0,1,,,,,,,,3,,,84,85
84000,note_on,1,0,13,,,,,,,,5,,,76,90
84019,note_on,19,0,8,,,,,,,,5,,,48,0
84020,note_on,1,0,8,,,,,,,,5,,,52,80
84039,note_on,19,0,8,,,,,,,,5,,,52,0
84040,note_on,1,0,8,,,,,,,,5,,,55,82
84059,note_on,59,0,1,,,,,,,,3,,,84,0
84059,note_on,59,0,7,,,,,,,,5,,,84,0
84059,note_on,19,0,8,,,,,,,,5,,,55,0
84060,note_on,60,0,4,,,,,,,,7,,,64,0
84060,note_on,1,0,7,,,,,,,,5,,,79,90
84060,note_on,1,0,1,,,,,,,,3,,,79,80
84060,note_on,60,0,6,,,,,,,,4,,,48,0
84060,note_on,0,0,4,,,,,,,,7,,,72,0
84060,note_on,1,0,8,,,,,,,,5,,,60,78
84060,note_on,60,0,5,,,,,,,,1,,,64,0
84060,note_on,0,0,5,,,,,,,,1,,,72,0
84079,note_on,19,0,8,,,,,,,,5,,,60,0
84080,note_on,1,0,8,,,,,,,,5,,,64,80
84099,note_on,19,0,8,,,,,,,,5,,,64,0
84100,note_on,1,0,8,,,,,,,,5,,,67,72
84119,note_on,119,0,13,,,,,,,,5,,,76,0
84119,note_on,19,0,8,,,,,,,,5,,,67,0
84119,note_on,119,0,2,,,,,,,,6,,,72,0
84119,note_on,0,0,2,,,,,,,,6,,,76,0
84120,note_on,60,0,4,,,,,,,,7,,,67,80
84120,note_on,0,0,2,,,,,,,,6,,,74,59
84120,note_on,0,0,4,,,,,,,,7,,,74,80
84120,note_on,1,0,13,,,,,,,,5,,,77,90
84120,note_on,0,0,13,,,,,,,,5,,,74,90
84120,note_on,60,0,6,,,,,,,,4,,,43,66
84120,note_on,60,0,5,,,,,,,,1,,,67,80
84120,note_on,0,0,5,,,,,,,,1,,,74,80
84120,note_on,1,0,2,,,,,,,,6,,,77,64
84120,note_on,1,0,8,,,,,,,,5,,,55,80
84139,note_on,19,0,8,,,,,,,,5,,,55,0
84140,note_on,1,0,8,,,,,,,,5,,,59,74
84159,note_on,19,0,8,,,,,,,,5,,,59,0
84160,note_on,1,0,8,,,,,,,,5,,,62,80
84179,note_on,119,0,1,,,,,,,,3,,,79,0
84179,note_on,119,0,7,,,,,,,,5,,,79,0
84179,note_on,19,0,8,,,,,,,,5,,,62,0
84180,note_on,1,0,7,,,,,,,,5,,,83,90
84180,note_on,1,0,1,,,,,,,,3,,,83,85
84180,note_on,1,0,8,,,,,,,,5,,,67,87
84180,note_on,0,0,5,,,,,,,,1,,,67,0
84180,note_on,60,0,6,,,,,,,,4,,,43,0
84180,note_on,60,0,5,,,,,,,,1,,,74,0
84180,note_on,0,0,4,,,,,,,,7,,,67,0
84180,note_on,60,0,4,,,,,,,,7,,,74,0
84189,note_on,9,0,1,,,,,,,,3,,,83,0
84190,note_on,1,0,1,,,,,,,,3,,,84,82
84199,note_on,9,0,1,,,,,,,,3,,,84,0
84199,note_on,19,0,8,,,,,,,,5,,,67,0
84200,note_on,1,0,1,,,,,,,,3,,,83,82
84200,note_on,1,0,8,,,,,,,,5,,,71,80
84209,note_on,9,0,1,,,,,,,,3,,,83,0
84210,note_on,1,0,1,,,,,,,,3,,,81,82
84219,note_on,19,0,8,,,,,,,,5,,,71,0
84220,note_on,1,0,8,,,,,,,,5,,,74,80
84224,note_on,14,0,1,,,,,,,,3,,,81,0
84225,note_on,1,0,1,,,,,,,,3,,,83,82
84239,note_on,119,0,13,,,,,,,,5,,,74,0
84239,note_on,14,0,1,,,,,,,,3,,,83,0
84239,note_on,0,0,13,,,,,,,,5,,,77,0
84239,note_on,119,0,2,,,,,,,,6,,,74,0
84239,note_on,0,0,2,,,,,,,,6,,,77,0
84239,note_on,19,0,8,,,,,,,,5,,,74,0
84239,end_of_track,0,1,13,,,,,,,,,,,,
84239,note_on,59,0,7,,,,,,,,5,,,83,0
84240,note_on,60,0,6,,,,,,,,4,,,48,70
84240,note_on,661,0,11,,,,,,,,14,,,64,68
84240,note_on,661,0,10,,,,,,,,13,,,72,74
84240,note_on,1,0,7,,,,,,,,5,,,76,90
84240,note_on,661,0,9,,,,,,,,12,,,76,85
84240,note_on,60,0,5,,,,,,,,1,,,72,82
84240,note_on,60,0,4,,,,,,,,7,,,72,82
84240,note_on,1,0,2,,,,,,,,6,,,76,80
84240,note_on,0,0,4,,,,,,,,7,,,76,68
84240,note_on,0,0,11,,,,,,,,14,,,60,68
84240,note_on,0,0,2,,,,,,,,6,,,72,72
84240,note_on,1,0,8,,,,,,,,5,,,60,82
84240,note_on,1,0,1,,,,,,,,3,,,84,82
84240,note_on,0,0,5,,,,,,,,1,,,76,68
84259,note_on,19,0,7,,,,,,,,5,,,76,0
84259,note_on,19,0,8,,,,,,,,5,,,60,0
84260,note_on,1,0,7,,,,,,,,5,,,87,90
84260,note_on,1,0,8,,,,,,,,5,,,71,72
84270,note_on,30,0,9,,,,,,,,12,,,76,0
84270,note_on,30,0,10,,,,,,,,13,,,72,0
84270,note_on,30,0,11,,,,,,,,14,,,60,0
84270,note_on,0,0,11,,,,,,,,14,,,64,0
84279,note_on,19,0,8,,,,,,,,5,,,71,0
84279,note_on,19,0,7,,,,,,,,5,,,87,0
84280,note_on,1,0,8,,,,,,,,5,,,72,85
84280,note_on,1,0,7,,,,,,,,5,,,88,90
84299,note_on,0,0,3,,,,,,,,0,,,67,0
84299,note_on,19,0,8,,,,,,,,5,,,72,0
84299,note_on,0,0,2,,,,,,,,6,,,76,0
84299,note_on,59,0,2,,,,,,,,6,,,72,0
84299,note_on,19,0,7,,,,,,,,5,,,88,0
84299,note_on,59,0,1,,,,,,,,3,,,84,0
84299,note_on,779,0,3,,,,,,,,0,,,55,0
84300,note_on,30,0,10,,,,,,,,13,,,71,64
84300,note_on,1,0,7,,,,,,,,5,,,74,90
84300,note_on,30,0,9,,,,,,,,12,,,74,76
84300,note_on,60,0,5,,,,,,,,1,,,76,0
84300,note_on,0,0,5,,,,,,,,1,,,72,0
84300,note_on,30,0,11,,,,,,,,14,,,62,66
84300,note_on,0,0,11,,,,,,,,14,,,59,60
84300,note_on,60,0,6,,,,,,,,4,,,48,0
84300,note_on,60,0,4,,,,,,,,7,,,76,0
84300,note_on,1,0,8,,,,,,,,5,,,59,80
84300,note_on,0,0,4,,,,,,,,7,,,72,0
84319,note_on,19,0,8,,,,,,,,5,,,59,0
84319,note_on,19,0,7,,,,,,,,5,,,74,0
84320,note_on,1,0,7,,,,,,,,5,,,85,90
84320,note_on,1,0,8,,,,,,,,5,,,70,80
84330,note_on,0,0,11,,,,,,,,14,,,62,0
84330,note_on,30,0,11,,,,,,,,14,,,59,0
84330,note_on,30,0,10,,,,,,,,13,,,71,0
84330,note_on,30,0,9,,,,,,,,12,,,74,0
84339,note_on,19,0,8,,,,,,,,5,,,70,0
84339,note_on,19,0,7,,,,,,,,5,,,85,0
84340,note_on,1,0,7,,,,,,,,5,,,86,90
84340,note_on,1,0,8,,,,,,,,5,,,71,85
84359,note_on,19,0,8,,,,,,,,5,,,71,0
84359,note_on,19,0,7,,,,,,,,5,,,86,0
84360,note_on,1,0,7,,,,,,,,5,,,72,90
84360,note_on,30,0,11,,,,,,,,14,,,60,82
84360,note_on,0,0,11,,,,,,,,14,,,57,68
84360,note_on,1,0,8,,,,,,,,5,,,57,78
84360,note_on,30,0,10,,,,,,,,13,,,69,66
84360,note_on,30,0,9,,,,,,,,12,,,72,78
84379,note_on,19,0,7,,,,,,,,5,,,72,0
84379,note_on,19,0,8,,,,,,,,5,,,57,0
84380,note_on,1,0,7,,,,,,,,5,,,83,90
84380,note_on,1,0,8,,,,,,,,5,,,68,82
84390,note_on,30,0,11,,,,,,,,14,,,57,0
84390,note_on,30,0,10,,,,,,,,13,,,69,0
84390,note_on,0,0,11,,,,,,,,14,,,60,0
84390,note_on,30,0,9,,,,,,,,12,,,72,0
84399,note_on,19,0,8,,,,,,,,5,,,68,0
84399,note_on,19,0,7,,,,,,,,5,,,83,0
84400,note_on,1,0,7,,,,,,,,5,,,84,90
84400,note_on,1,0,8,,,,,,,,5,,,69,80
84419,note_on,19,0,8,,,,,,,,5,,,69,0
84419,note_on,19,0,7,,,,,,,,5,,,84,0
84420,note_on,30,0,9,,,,,,,,12,,,71,68
84420,note_on,0,0,11,,,,,,,,14,,,59,46
84420,note_on,1,0,8,,,,,,,,5,,,55,80
84420,note_on,1,0,7,,,,,,,,5,,,71,90
84420,note_on,30,0,10,,,,,,,,13,,,67,68
84420,note_on,30,0,11,,,,,,,,14,,,55,68
84439,note_on,19,0,8,,,,,,,,5,,,55,0
84439,note_on,19,0,7,,,,,,,,5,,,71,0
84440,note_on,1,0,7,,,,,,,,5,,,82,90
84440,note_on,1,0,8,,,,,,,,5,,,66,78
84450,note_on,30,0,10,,,,,,,,13,,,67,0
84450,note_on,0,0,11,,,,,,,,14,,,55,0
84450,note_on,30,0,11,,,,,,,,14,,,59,0
84450,note_on,30,0,9,,,,,,,,12,,,71,0
84459,note_on,19,0,7,,,,,,,,5,,,82,0
84459,note_on,19,0,8,,,,,,,,5,,,66,0
84460,note_on,1,0,7,,,,,,,,5,,,83,90
84460,note_on,1,0,8,,,,,,,,5,,,67,82
84479,note_on,19,0,8,,,,,,,,5,,,67,0
84479,note_on,19,0,7,,,,,,,,5,,,83,0
84480,note_on,1,0,7,,,,,,,,5,,,69,90
84480,note_on,30,0,9,,,,,,,,12,,,69,68
84480,note_on,1,0,8,,,,,,,,5,,,53,89
84480,note_on,0,0,11,,,,,,,,14,,,53,68
84480,note_on,30,0,10,,,,,,,,13,,,65,70
84480,note_on,30,0,11,,,,,,,,14,,,57,66
84499,note_on,19,0,7,,,,,,,,5,,,69,0
84499,note_on,19,0,8,,,,,,,,5,,,53,0
84500,note_on,1,0,7,,,,,,,,5,,,80,90
84500,note_on,1,0,8,,,,,,,,5,,,64,85
84510,note_on,0,0,11,,,,,,,,14,,,57,0
84510,note_on,30,0,10,,,,,,,,13,,,65,0
84510,note_on,30,0,9,,,,,,,,12,,,69,0
84510,note_on,30,0,11,,,,,,,,14,,,53,0
84519,note_on,19,0,7,,,,,,,,5,,,80,0
84519,note_on,19,0,8,,,,,,,,5,,,64,0
84520,note_on,1,0,7,,,,,,,,5,,,81,90
84520,note_on,1,0,8,,,,,,,,5,,,65,85
84539,note_on,19,0,8,,,,,,,,5,,,65,0
84539,note_on,19,0,7,,,,,,,,5,,,81,0
84540,note_on,1,0,8,,,,,,,,5,,,52,87
84540,note_on,30,0,9,,,,,,,,12,,,67,68
84540,note_on,0,0,11,,,,,,,,14,,,55,72
84540,note_on,30,0,11,,,,,,,,14,,,52,64
84540,note_on,30,0,10,,,,,,,,13,,,64,68
84540,note_on,1,0,7,,,,,,,,5,,,67,90
84559,note_on,19,0,8,,,,,,,,5,,,52,0
84559,note_on,19,0,7,,,,,,,,5,,,67,0
84560,note_on,1,0,7,,,,,,,,5,,,78,90
84560,note_on,1,0,8,,,,,,,,5,,,63,80
84570,note_on,30,0,9,,,,,,,,12,,,67,0
84570,note_on,30,0,11,,,,,,,,14,,,55,0
84570,note_on,30,0,10,,,,,,,,13,,,64,0
84570,note_on,0,0,11,,,,,,,,14,,,52,0
84579,note_on,19,0,7,,,,,,,,5,,,78,0
84579,note_on,19,0,8,,,,,,,,5,,,63,0
84580,note_on,1,0,7,,,,,,,,5,,,79,90
84580,note_on,1,0,8,,,,,,,,5,,,64,80
84599,note_on,19,0,7,,,,,,,,5,,,79,0
84599,note_on,19,0,8,,,,,,,,5,,,64,0
84600,note_on,1,0,8,,,,,,,,5,,,50,85
84600,note_on,30,0,10,,,,,,,,13,,,62,70
84600,note_on,1,0,7,,,,,,,,5,,,65,90
84600,note_on,30,0,11,,,,,,,,14,,,50,66
84600,note_on,0,0,11,,,,,,,,14,,,53,66
84600,note_on,30,0,9,,,,,,,,12,,,65,70
84619,note_on,19,0,7,,,,,,,,5,,,65,0
84619,note_on,19,0,8,,,,,,,,5,,,50,0
84620,note_on,1,0,7,,,,,,,,5,,,76,90
84620,note_on,1,0,8,,,,,,,,5,,,61,78
84630,note_on,30,0,9,,,,,,,,12,,,65,0
84630,note_on,30,0,10,,,,,,,,13,,,62,0
84630,note_on,30,0,11,,,,,,,,14,,,53,0
84630,note_on,0,0,11,,,,,,,,14,,,50,0
84639,note_on,19,0,7,,,,,,,,5,,,76,0
84639,note_on,19,0,8,,,,,,,,5,,,61,0
84640,note_on,1,0,7,,,,,,,,5,,,77,90
84640,note_on,1,0,8,,,,,,,,5,,,62,82
84659,note_on,19,0,7,,,,,,,,5,,,77,0
84659,note_on,19,0,8,,,,,,,,5,,,62,0
84660,note_on,0,0,11,,,,,,,,14,,,52,78
84660,note_on,30,0,9,,,,,,,,12,,,64,72
84660,note_on,30,0,11,,,,,,,,14,,,48,80
84660,note_on,1,0,7,,,,,,,,5,,,64,90
84660,note_on,30,0,10,,,,,,,,13,,,60,66
84660,note_on,1,0,8,,,,,,,,5,,,48,80
84679,note_on,19,0,7,,,,,,,,5,,,64,0
84679,note_on,19,0,8,,,,,,,,5,,,48,0
84680,note_on,1,0,7,,,,,,,,5,,,75,90
84680,note_on,1,0,8,,,,,,,,5,,,59,82
84690,note_on,30,0,10,,,,,,,,13,,,60,0
84690,note_on,0,0,11,,,,,,,,14,,,48,0
84690,note_on,30,0,11,,,,,,,,14,,,52,0
84690,note_on,30,0,9,,,,,,,,12,,,64,0
84699,note_on,19,0,8,,,,,,,,5,,,59,0
84699,note_on,19,0,7,,,,,,,,5,,,75,0
84700,note_on,1,0,7,,,,,,,,5,,,76,90
84700,note_on,1,0,8,,,,,,,,5,,,60,80
84719,note_on,19,0,8,,,,,,,,5,,,60,0
84719,note_on,19,0,7,,,,,,,,5,,,76,0
84720,note_on,30,0,10,,,,,,,,13,,,62,70
84720,note_on,0,0,7,,,,,,,,5,,,65,90
84720,note_on,30,0,11,,,,,,,,14,,,50,70
84720,note_on,0,0,11,,,,,,,,14,,,53,72
84720,note_on,1,0,7,,,,,,,,5,,,77,90
84720,note_on,1,0,8,,,,,,,,5,,,50,87
84720,note_on,0,0,8,,,,,,,,5,,,62,87
84720,note_on,30,0,9,,,,,,,,12,,,65,70
84779,note_on,0,0,11,,,,,,,,14,,,50,0
84779,note_on,59,0,10,,,,,,,,13,,,62,0
84779,note_on,59,0,8,,,,,,,,5,,,62,0
84779,note_on,0,0,8,,,,,,,,5,,,50,0
84779,note_on,59,0,9,,,,,,,,12,,,65,0
84779,note_on,59,0,11,,,,,,,,14,,,53,0
84779,note_on,59,0,7,,,,,,,,5,,,65,0
84779,note_on,0,0,7,,,,,,,,5,,,77,0
84780,note_on,1,0,8,,,,,,,,5,,,52,82
84780,note_on,1,0,7,,,,,,,,5,,,67,90
84794,note_on,14,0,8,,,,,,,,5,,,52,0
84794,note_on,14,0,7,,,,,,,,5,,,67,0
84795,note_on,1,0,7,,,,,,,,5,,,79,90
84795,note_on,1,0,8,,,,,,,,5,,,64,72
84809,note_on,14,0,7,,,,,,,,5,,,79,0
84809,note_on,14,0,8,,,,,,,,5,,,64,0
84810,note_on,1,0,7,,,,,,,,5,,,69,90
84810,note_on,1,0,8,,,,,,,,5,,,53,85
84824,note_on,14,0,7,,,,,,,,5,,,69,0
84824,note_on,14,0,8,,,,,,,,5,,,53,0
84825,note_on,1,0,7,,,,,,,,5,,,81,90
84825,note_on,1,0,8,,,,,,,,5,,,65,82
84839,note_on,14,0,8,,,,,,,,5,,,65,0
84839,note_on,14,0,7,,,,,,,,5,,,81,0
84840,note_on,1,0,7,,,,,,,,5,,,71,90
84840,note_on,1,0,8,,,,,,,,5,,,55,70
84854,note_on,14,0,8,,,,,,,,5,,,55,0
84854,note_on,14,0,7,,,,,,,,5,,,71,0
84855,note_on,1,0,8,,,,,,,,5,,,67,82
84855,note_on,1,0,7,,,,,,,,5,,,83,90
84869,note_on,14,0,7,,,,,,,,5,,,83,0
84869,note_on,14,0,8,,,,,,,,5,,,67,0
84870,note_on,1,0,7,,,,,,,,5,,,72,90
84870,note_on,1,0,8,,,,,,,,5,,,57,80
84884,note_on,14,0,8,,,,,,,,5,,,57,0
84884,note_on,14,0,7,,,,,,,,5,,,72,0
84885,note_on,1,0,7,,,,,,,,5,,,84,90
84885,note_on,1,0,8,,,,,,,,5,,,69,82
84899,note_on,14,0,7,,,,,,,,5,,,84,0
84899,note_on,14,0,8,,,,,,,,5,,,69,0
84900,note_on,1,0,7,,,,,,,,5,,,74,90
84900,note_on,1,0,8,,,,,,,,5,,,59,72
84914,note_on,14,0,7,,,,,,,,5,,,74,0
84914,note_on,14,0,8,,,,,,,,5,,,59,0
84915,note_on,1,0,7,,,,,,,,5,,,86,90
84915,note_on,1,0,8,,,,,,,,5,,,71,80
84929,note_on,14,0,8,,,,,,,,5,,,71,0
84929,note_on,14,0,7,,,,,,,,5,,,86,0
84930,note_on,1,0,8,,,,,,,,5,,,60,78
84930,note_on,1,0,7,,,,,,,,5,,,76,90
84944,note_on,14,0,8,,,,,,,,5,,,60,0
84944,note_on,14,0,7,,,,,,,,5,,,76,0
84945,note_on,1,0,8,,,,,,,,5,,,72,82
84945,note_on,1,0,7,,,,,,,,5,,,88,90
84959,note_on,14,0,8,,,,,,,,5,,,72,0
84959,note_on,14,0,7,,,,,,,,5,,,88,0
84960,note_on,661,0,1,,,,,,,,3,,,89,85
84960,note_on,1,0,7,,,,,,,,5,,,77,90
84960,note_on,1,0,8,,,,,,,,5,,,62,85
84960,note_on,0,0,7,,,,,,,,5,,,89,90
84960,note_on,0,0,8,,,,,,,,5,,,74,87
84960,note_on,661,0,3,,,,,,,,0,,,62,82
84975,note_on,15,0,1,,,,,,,,3,,,89,0
84975,note_on,15,0,3,,,,,,,,0,,,62,0
84990,note_on,15,0,1,,,,,,,,3,,,88,85
84990,note_on,15,0,3,,,,,,,,0,,,60,78
85005,note_on,15,0,1,,,,,,,,3,,,88,0
85005,note_on,15,0,3,,,,,,,,0,,,60,0
85019,note_on,59,0,7,,,,,,,,5,,,89,0
85019,note_on,59,0,8,,,,,,,,5,,,74,0
85019,note_on,0,0,8,,,,,,,,5,,,62,0
85019,note_on,0,0,7,,,,,,,,5,,,77,0
85020,note_on,15,0,1,,,,,,,,3,,,86,68
85020,note_on,15,0,3,,,,,,,,0,,,59,80
85035,note_on,15,0,3,,,,,,,,0,,,59,0
85035,note_on,15,0,1,,,,,,,,3,,,86,0
85050,note_on,15,0,1,,,,,,,,3,,,84,78
85050,note_on,15,0,3,,,,,,,,0,,,57,78
85065,note_on,15,0,3,,,,,,,,0,,,57,0
85065,note_on,15,0,1,,,,,,,,3,,,84,0
85080,note_on,301,0,11,,,,,,,,14,,,62,60
85080,note_on,61,0,7,,,,,,,,5,,,84,100
85080,note_on,301,0,9,,,,,,,,12,,,65,60
85080,note_on,15,0,1,,,,,,,,3,,,83,76
85080,note_on,301,0,10,,,,,,,,13,,,59,60
85080,note_on,61,0,8,,,,,,,,5,,,55,80
85080,note_on,15,0,3,,,,,,,,0,,,55,68
85080,note_on,0,0,8,,,,,,,,5,,,65,87
85080,note_on,0,0,8,,,,,,,,5,,,62,85
85080,note_on,1501,0,12,,,,,,,,15,,,55,60
85094,note_on,14,0,7,,,,,,,,5,,,84,0
85095,note_on,15,0,1,,,,,,,,3,,,83,0
85095,note_on,15,0,3,,,,,,,,0,,,55,0
85095,note_on,1,0,7,,,,,,,,5,,,83,100
85109,note_on,14,0,7,,,,,,,,5,,,83,0
85110,note_on,15,0,3,,,,,,,,0,,,53,78
85110,note_on,1,0,7,,,,,,,,5,,,84,100
85110,note_on,15,0,1,,,,,,,,3,,,81,76
85124,note_on,14,0,7,,,,,,,,5,,,84,0
85125,note_on,15,0,3,,,,,,,,0,,,53,0
85125,note_on,15,0,1,,,,,,,,3,,,81,0
85125,note_on,1,0,7,,,,,,,,5,,,83,100
85139,note_on,14,0,7,,,,,,,,5,,,83,0
85140,note_on,1,0,7,,,,,,,,5,,,84,100
85140,note_on,60,0,11,,,,,,,,14,,,60,60
85140,note_on,15,0,1,,,,,,,,3,,,79,68
85140,note_on,15,0,3,,,,,,,,0,,,52,82
85154,note_on,14,0,7,,,,,,,,5,,,84,0
85155,note_on,15,0,3,,,,,,,,0,,,52,0
85155,note_on,15,0,1,,,,,,,,3,,,79,0
85155,note_on,1,0,7,,,,,,,,5,,,83,100
85169,note_on,14,0,7,,,,,,,,5,,,83,0
85170,note_on,1,0,7,,,,,,,,5,,,81,100
85170,note_on,15,0,1,,,,,,,,3,,,77,80
85170,note_on,15,0,3,,,,,,,,0,,,50,80
85184,note_on,14,0,7,,,,,,,,5,,,81,0
85185,note_on,1,0,7,,,,,,,,5,,,83,100
85185,note_on,15,0,1,,,,,,,,3,,,77,0
85185,note_on,15,0,3,,,,,,,,0,,,50,0
85199,note_on,119,0,10,,,,,,,,13,,,59,0
85199,note_on,119,0,12,,,,,,,,15,,,55,0
85199,note_on,119,0,8,,,,,,,,5,,,62,0
85199,note_on,119,0,9,,,,,,,,12,,,65,0
85199,note_on,0,0,8,,,,,,,,5,,,65,0
85199,note_on,14,0,7,,,,,,,,5,,,83,0
85199,note_on,0,0,8,,,,,,,,5,,,55,0
85200,note_on,1,0,8,,,,,,,,5,,,57,85
85200,note_on,15,0,3,,,,,,,,0,,,48,82
85200,note_on,1,0,10,,,,,,,,13,,,60,60
85200,note_on,0,0,8,,,,,,,,5,,,60,85
85200,note_on,1,0,7,,,,,,,,5,,,84,100
85200,note_on,15,0,1,,,,,,,,3,,,76,85
85200,note_on,0,0,11,,,,,,,,14,,,62,0
85200,note_on,60,0,11,,,,,,,,14,,,60,0
85200,note_on,1,0,12,,,,,,,,15,,,57,60
85200,note_on,1,0,9,,,,,,,,12,,,64,60
85200,note_on,0,0,8,,,,,,,,5,,,64,80
85259,note_on,59,0,8,,,,,,,,5,,,64,0
85259,note_on,59,0,10,,,,,,,,13,,,60,0
85259,note_on,59,0,12,,,,,,,,15,,,57,0
85259,note_on,0,0,8,,,,,,,,5,,,57,0
85259,note_on,0,0,8,,,,,,,,5,,,60,0
85259,note_on,59,0,1,,,,,,,,3,,,76,0
85259,note_on,59,0,9,,,,,,,,12,,,64,0
85259,note_on,59,0,3,,,,,,,,0,,,48,0
85259,note_on,59,0,7,,,,,,,,5,,,84,0
85320,note_on,61,0,10,,,,,,,,13,,,62,60
85320,note_on,120,0,11,,,,,,,,14,,,57,60
85320,note_on,61,0,7,,,,,,,,5,,,81,100
85320,note_on,61,0,12,,,,,,,,15,,,53,60
85320,note_on,0,0,8,,,,,,,,5,,,60,80
85320,note_on,61,0,8,,,,,,,,5,,,53,85
85320,note_on,61,0,9,,,,,,,,12,,,65,60
85320,note_on,0,0,8,,,,,,,,5,,,62,85
85409,note_on,89,0,7,,,,,,,,5,,,81,0
85410,note_on,1,0,7,,,,,,,,5,,,83,100
85424,note_on,14,0,7,,,,,,,,5,,,83,0
85425,note_on,1,0,7,,,,,,,,5,,,84,100
85439,note_on,119,0,12,,,,,,,,15,,,53,0
85439,note_on,119,0,10,,,,,,,,13,,,62,0
85439,note_on,119,0,9,,,,,,,,12,,,65,0
85439,note_on,119,0,8,,,,,,,,5,,,62,0
85439,note_on,0,0,8,,,,,,,,5,,,60,0
85439,note_on,14,0,7,,,,,,,,5,,,84,0
85439,note_on,0,0,8,,,,,,,,5,,,53,0
85440,note_on,0,0,8,,,,,,,,5,,,55,80
85440,note_on,0,0,8,,,,,,,,5,,,64,80
85440,note_on,1,0,10,,,,,,,,13,,,60,60
85440,note_on,1,0,7,,,,,,,,5,,,84,100
85440,note_on,1,0,9,,,,,,,,12,,,64,60
85440,note_on,1,0,12,,,,,,,,15,,,55,60
85440,note_on,0,0,11,,,,,,,,14,,,55,60
85440,note_on,120,0,11,,,,,,,,14,,,57,0
85440,note_on,1,0,8,,,,,,,,5,,,60,80
85500,note_on,0,0,7,,,,,,,,5,,,76,100
85500,note_on,60,0,7,,,,,,,,5,,,84,0
85529,note_on,29,0,7,,,,,,,,5,,,76,0
85559,note_on,119,0,12,,,,,,,,15,,,55,0
85559,note_on,119,0,10,,,,,,,,13,,,60,0
85559,note_on,119,0,9,,,,,,,,12,,,64,0
85559,note_on,119,0,8,,,,,,,,5,,,64,0
85559,note_on,0,0,8,,,,,,,,5,,,55,0
85559,note_on,0,0,8,,,,,,,,5,,,60,0
85560,note_on,1,0,10,,,,,,,,13,,,59,60
85560,note_on,1,0,9,,,,,,,,12,,,62,60
85560,note_on,1,0,12,,,,,,,,15,,,53,60
85560,note_on,31,0,7,,,,,,,,5,,,79,100
85560,note_on,1,0,8,,,,,,,,5,,,62,87
85560,note_on,0,0,8,,,,,,,,5,,,53,76
85560,note_on,0,0,8,,,,,,,,5,,,55,80
85619,note_on,59,0,7,,,,,,,,5,,,79,0
85620,note_on,1,0,7,,,,,,,,5,,,71,100
85649,note_on,29,0,7,,,,,,,,5,,,71,0
85679,note_on,119,0,8,,,,,,,,5,,,55,0
85679,note_on,119,0,10,,,,,,,,13,,,59,0
85679,note_on,0,0,8,,,,,,,,5,,,53,0
85679,note_on,0,0,8,,,,,,,,5,,,62,0
85679,note_on,119,0,9,,,,,,,,12,,,62,0
85679,note_on,119,0,12,,,,,,,,15,,,53,0
85680,note_on,1,0,10,,,,,,,,13,,,60,60
85680,note_on,31,0,7,,,,,,,,5,,,79,90
85680,note_on,1,0,9,,,,,,,,12,,,67,60
85680,note_on,1,0,12,,,,,,,,15,,,52,60
85680,note_on,1,0,8,,,,,,,,5,,,52,70
85710,note_on,30,0,8,,,,,,,,5,,,60,60
85739,note_on,59,0,7,,,,,,,,5,,,79,0
85740,note_on,30,0,8,,,,,,,,5,,,52,0
85740,note_on,0,0,8,,,,,,,,5,,,55,59
85770,note_on,30,0,8,,,,,,,,5,,,60,0
85770,note_on,31,0,7,,,,,,,,5,,,84,90
85770,note_on,0,0,8,,,,,,,,5,,,60,53
85799,note_on,119,0,12,,,,,,,,15,,,52,0
85799,note_on,29,0,7,,,,,,,,5,,,84,0
85799,note_on,119,0,9,,,,,,,,12,,,67,0
85799,note_on,119,0,10,,,,,,,,13,,,60,0
85800,note_on,1,0,9,,,,,,,,12,,,65,60
85800,note_on,360,0,11,,,,,,,,14,,,55,0
85800,note_on,0,0,11,,,,,,,,14,,,57,60
85800,note_on,30,0,8,,,,,,,,5,,,55,0
85800,note_on,0,0,8,,,,,,,,5,,,53,62
85800,note_on,1,0,7,,,,,,,,5,,,83,90
85800,note_on,1,0,12,,,,,,,,15,,,53,60
85800,note_on,1,0,10,,,,,,,,13,,,62,60
85829,note_on,29,0,7,,,,,,,,5,,,83,0
85830,note_on,0,0,8,,,,,,,,5,,,62,60
85830,note_on,1,0,7,,,,,,,,5,,,81,90
85830,note_on,30,0,8,,,,,,,,5,,,60,0
85859,note_on,29,0,7,,,,,,,,5,,,81,0
85860,note_on,30,0,8,,,,,,,,5,,,53,0
85860,note_on,0,0,8,,,,,,,,5,,,60,51
85890,note_on,31,0,7,,,,,,,,5,,,84,90
85890,note_on,0,0,8,,,,,,,,5,,,62,60
85890,note_on,30,0,8,,,,,,,,5,,,62,0
85919,note_on,29,0,7,,,,,,,,5,,,84,0
85919,note_on,119,0,10,,,,,,,,13,,,62,0
85919,note_on,119,0,11,,,,,,,,14,,,57,0
85919,note_on,119,0,9,,,,,,,,12,,,65,0
85919,note_on,119,0,12,,,,,,,,15,,,53,0
85920,note_on,1,0,7,,,,,,,,5,,,81,90
85920,note_on,1,0,11,,,,,,,,14,,,55,60
85920,note_on,1,0,10,,,,,,,,13,,,60,60
85920,note_on,0,0,8,,,,,,,,5,,,55,72
85920,note_on,30,0,8,,,,,,,,5,,,60,0
85920,note_on,1,0,9,,,,,,,,12,,,64,60
85920,note_on,1,0,12,,,,,,,,15,,,55,60
85949,note_on,29,0,7,,,,,,,,5,,,81,0
85950,note_on,0,0,8,,,,,,,,5,,,64,57
85950,note_on,1,0,7,,,,,,,,5,,,79,90
85950,note_on,30,0,8,,,,,,,,5,,,62,0
85979,note_on,29,0,7,,,,,,,,5,,,79,0
85980,note_on,30,0,8,,,,,,,,5,,,55,0
85980,note_on,0,0,8,,,,,,,,5,,,60,61
86010,note_on,0,0,8,,,,,,,,5,,,64,56
86010,note_on,30,0,8,,,,,,,,5,,,64,0
86010,note_on,31,0,7,,,,,,,,5,,,84,90
86039,note_on,119,0,10,,,,,,,,13,,,60,0
86039,note_on,119,0,9,,,,,,,,12,,,64,0
86039,note_on,29,0,7,,,,,,,,5,,,84,0
86040,note_on,1,0,7,,,,,,,,5,,,76,90
86040,note_on,0,0,8,,,,,,,,5,,,55,64
86040,note_on,30,0,8,,,,,,,,5,,,60,0
86040,note_on,1,0,9,,,,,,,,12,,,65,60
86040,note_on,1,0,10,,,,,,,,13,,,59,60
86069,note_on,29,0,7,,,,,,,,5,,,76,0
86070,note_on,1,0,7,,,,,,,,5,,,74,90
86070,note_on,0,0,8,,,,,,,,5,,,65,70
86070,note_on,30,0,8,,,,,,,,5,,,64,0
86099,note_on,29,0,7,,,,,,,,5,,,74,0
86099,note_on,59,0,9,,,,,,,,12,,,65,0
86099,note_on,59,0,10,,,,,,,,13,,,59,0
86099,note_on,179,0,11,,,,,,,,14,,,55,0
86100,note_on,0,0,8,,,,,,,,5,,,59,60
86100,note_on,30,0,8,,,,,,,,5,,,55,0
86100,note_on,1,0,9,,,,,,,,12,,,71,60
86100,note_on,1,0,10,,,,,,,,13,,,65,60
86100,note_on,1,0,11,,,,,,,,14,,,62,60
86130,note_on,31,0,7,,,,,,,,5,,,79,90
86130,note_on,0,0,8,,,,,,,,5,,,65,57
86130,note_on,30,0,8,,,,,,,,5,,,65,0
86159,note_on,59,0,10,,,,,,,,13,,,65,0
86159,note_on,239,0,12,,,,,,,,15,,,55,0
86159,note_on,29,0,7,,,,,,,,5,,,79,0
86159,note_on,59,0,9,,,,,,,,12,,,71,0
86159,note_on,59,0,11,,,,,,,,14,,,62,0
86160,note_on,1,0,11,,,,,,,,14,,,60,60
86160,note_on,30,0,8,,,,,,,,5,,,59,0
86160,note_on,1,0,10,,,,,,,,13,,,64,60
86160,note_on,1,0,9,,,,,,,,12,,,72,60
86160,note_on,1,0,12,,,,,,,,15,,,57,60
86160,note_on,1,0,7,,,,,,,,5,,,77,90
86160,note_on,0,0,8,,,,,,,,5,,,57,70
86189,note_on,29,0,7,,,,,,,,5,,,77,0
86190,note_on,30,0,8,,,,,,,,5,,,65,0
86190,note_on,1,0,7,,,,,,,,5,,,76,90
86190,note_on,0,0,8,,,,,,,,5,,,64,66
86219,note_on,29,0,7,,,,,,,,5,,,76,0
86220,note_on,0,0,8,,,,,,,,5,,,60,57
86220,note_on,30,0,8,,,,,,,,5,,,57,0
86220,note_on,1,0,7,,,,,,,,5,,,86,90
86250,note_on,30,0,8,,,,,,,,5,,,64,0
86250,note_on,0,0,8,,,,,,,,5,,,64,57
86264,note_on,44,0,7,,,,,,,,5,,,86,0
86265,note_on,1,0,7,,,,,,,,5,,,84,90
86279,note_on,14,0,7,,,,,,,,5,,,84,0
86279,note_on,119,0,11,,,,,,,,14,,,60,0
86279,note_on,119,0,12,,,,,,,,15,,,57,0
86279,note_on,119,0,10,,,,,,,,13,,,64,0
86280,note_on,0,0,8,,,,,,,,5,,,53,68
86280,note_on,1,0,7,,,,,,,,5,,,83,90
86280,note_on,1,0,10,,,,,,,,13,,,69,60
86280,note_on,1,0,12,,,,,,,,15,,,53,60
86280,note_on,30,0,8,,,,,,,,5,,,60,0
86280,note_on,1,0,11,,,,,,,,14,,,62,60
86309,note_on,29,0,7,,,,,,,,5,,,83,0
86310,note_on,1,0,7,,,,,,,,5,,,81,90
86310,note_on,0,0,8,,,,,,,,5,,,62,64
86310,note_on,30,0,8,,,,,,,,5,,,64,0
86339,note_on,29,0,7,,,,,,,,5,,,81,0
86340,note_on,1,0,7,,,,,,,,5,,,86,90
86340,note_on,0,0,8,,,,,,,,5,,,60,58
86340,note_on,30,0,8,,,,,,,,5,,,53,0
86370,note_on,30,0,8,,,,,,,,5,,,62,0
86370,note_on,0,0,8,,,,,,,,5,,,62,55
86384,note_on,44,0,7,,,,,,,,5,,,86,0
86385,note_on,1,0,7,,,,,,,,5,,,84,90
86399,note_on,14,0,7,,,,,,,,5,,,84,0
86399,note_on,119,0,10,,,,,,,,13,,,69,0
86399,note_on,119,0,11,,,,,,,,14,,,62,0
86399,note_on,119,0,12,,,,,,,,15,,,53,0
86400,note_on,1,0,11,,,,,,,,14,,,64,60
86400,note_on,1,0,10,,,,,,,,13,,,67,60
86400,note_on,1,0,7,,,,,,,,5,,,81,90
86400,note_on,1,0,12,,,,,,,,15,,,55,60
86400,note_on,0,0,8,,,,,,,,5,,,55,68
86400,note_on,30,0,8,,,,,,,,5,,,60,0
86429,note_on,29,0,7,,,,,,,,5,,,81,0
86430,note_on,0,0,8,,,,,,,,5,,,64,59
86430,note_on,30,0,8,,,,,,,,5,,,62,0
86430,note_on,1,0,7,,,,,,,,5,,,79,90
86459,note_on,29,0,7,,,,,,,,5,,,79,0
86460,note_on,0,0,8,,,,,,,,5,,,60,53
86460,note_on,30,0,8,,,,,,,,5,,,55,0
86460,note_on,1,0,7,,,,,,,,5,,,89,90
86490,note_on,0,0,8,,,,,,,,5,,,64,58
86490,note_on,30,0,8,,,,,,,,5,,,64,0
86504,note_on,44,0,7,,,,,,,,5,,,89,0
86505,note_on,1,0,7,,,,,,,,5,,,88,90
86519,note_on,119,0,10,,,,,,,,13,,,67,0
86519,note_on,14,0,7,,,,,,,,5,,,88,0
86519,note_on,119,0,11,,,,,,,,14,,,64,0
86519,note_on,359,0,9,,,,,,,,12,,,72,0
86520,note_on,1,0,7,,,,,,,,5,,,74,90
86520,note_on,1,0,10,,,,,,,,13,,,65,60
86520,note_on,0,0,8,,,,,,,,5,,,55,66
86520,note_on,30,0,8,,,,,,,,5,,,60,0
86520,note_on,1,0,9,,,,,,,,12,,,71,60
86520,note_on,1,0,11,,,,,,,,14,,,62,60
86535,note_on,15,0,7,,,,,,,,5,,,74,0
86550,note_on,0,0,8,,,,,,,,5,,,65,59
86550,note_on,30,0,8,,,,,,,,5,,,64,0
86550,note_on,15,0,7,,,,,,,,5,,,77,90
86564,note_on,14,0,7,,,,,,,,5,,,77,0
86565,note_on,1,0,7,,,,,,,,5,,,76,90
86579,note_on,14,0,7,,,,,,,,5,,,76,0
86580,note_on,30,0,8,,,,,,,,5,,,55,0
86580,note_on,1,0,7,,,,,,,,5,,,79,90
86580,note_on,0,0,8,,,,,,,,5,,,59,60
86594,note_on,14,0,7,,,,,,,,5,,,79,0
86595,note_on,1,0,7,,,,,,,,5,,,77,90
86609,note_on,14,0,7,,,,,,,,5,,,77,0
86610,note_on,1,0,7,,,,,,,,5,,,81,90
86610,note_on,30,0,8,,,,,,,,5,,,65,0
86610,note_on,0,0,8,,,,,,,,5,,,65,68
86624,note_on,14,0,7,,,,,,,,5,,,81,0
86625,note_on,1,0,7,,,,,,,,5,,,79,90
86639,note_on,119,0,9,,,,,,,,12,,,71,0
86639,note_on,14,0,7,,,,,,,,5,,,79,0
86639,note_on,239,0,12,,,,,,,,15,,,55,0
86639,note_on,119,0,11,,,,,,,,14,,,62,0
86639,note_on,119,0,10,,,,,,,,13,,,65,0
86640,note_on,30,0,8,,,,,,,,5,,,59,0
86640,note_on,0,0,8,,,,,,,,5,,,57,82
86640,note_on,0,0,8,,,,,,,,5,,,60,74
86640,note_on,1,0,9,,,,,,,,12,,,72,60
86640,note_on,1,0,12,,,,,,,,15,,,57,60
86640,note_on,1,0,7,,,,,,,,5,,,77,90
86640,note_on,1,0,10,,,,,,,,13,,,64,60
86640,note_on,1,0,11,,,,,,,,14,,,60,60
86669,note_on,29,0,7,,,,,,,,5,,,77,0
86670,note_on,30,0,8,,,,,,,,5,,,65,0
86670,note_on,1,0,7,,,,,,,,5,,,76,90
86699,note_on,59,0,10,,,,,,,,13,,,64,0
86699,note_on,59,0,12,,,,,,,,15,,,57,0
86699,note_on,59,0,11,,,,,,,,14,,,60,0
86699,note_on,0,0,8,,,,,,,,5,,,57,0
86699,note_on,29,0,8,,,,,,,,5,,,60,0
86699,note_on,59,0,9,,,,,,,,12,,,72,0
86699,note_on,29,0,7,,,,,,,,5,,,76,0
86700,note_on,2401,0,2,,,,,,,,6,,,75,70
86700,note_on,0,0,2,,,,,,,,6,,,72,74
86700,note_on,1,0,8,,,,,,,,5,,,54,66
86700,note_on,0,0,8,,,,,,,,5,,,63,66
86700,note_on,1,0,7,,,,,,,,5,,,81,90
86700,note_on,0,0,8,,,,,,,,5,,,60,85
86700,note_on,0,0,8,,,,,,,,5,,,57,87
86700,note_on,1441,0,3,,,,,,,,0,,,66,80
86700,note_on,1441,0,1,,,,,,,,3,,,81,85
86700,note_on,0,0,3,,,,,,,,0,,,54,70
86789,note_on,89,0,7,,,,,,,,5,,,81,0
86790,note_on,1,0,7,,,,,,,,5,,,84,90
86804,note_on,14,0,7,,,,,,,,5,,,84,0
86805,note_on,1,0,7,,,,,,,,5,,,83,90
86819,note_on,14,0,7,,,,,,,,5,,,83,0
86820,note_on,1,0,7,,,,,,,,5,,,86,90
86834,note_on,14,0,7,,,,,,,,5,,,86,0
86835,note_on,1,0,7,,,,,,,,5,,,84,90
86849,note_on,14,0,7,,,,,,,,5,,,84,0
86850,note_on,1,0,7,,,,,,,,5,,,83,90
86864,note_on,14,0,7,,,,,,,,5,,,83,0
86865,note_on,1,0,7,,,,,,,,5,,,81,90
86879,note_on,14,0,7,,,,,,,,5,,,81,0
86879,note_on,179,0,3,,,,,,,,0,,,54,0
86879,note_on,179,0,1,,,,,,,,3,,,81,0
86879,note_on,179,0,2,,,,,,,,6,,,75,0
86879,note_on,0,0,3,,,,,,,,0,,,66,0
86879,note_on,179,0,8,,,,,,,,5,,,57,0
86879,note_on,0,0,8,,,,,,,,5,,,54,0
86879,note_on,0,0,8,,,,,,,,5,,,63,0
86879,note_on,0,0,8,,,,,,,,5,,,60,0
86880,note_on,0,0,3,,,,,,,,0,,,67,74
86880,note_on,0,0,8,,,,,,,,5,,,60,82
86880,note_on,1,0,2,,,,,,,,6,,,76,76
86880,note_on,1,0,8,,,,,,,,5,,,55,80
86880,note_on,1,0,1,,,,,,,,3,,,79,82
86880,note_on,1,0,3,,,,,,,,0,,,55,80
86880,note_on,0,0,8,,,,,,,,5,,,64,80
86880,note_on,1,0,7,,,,,,,,5,,,79,90
86909,note_on,29,0,7,,,,,,,,5,,,79,0
86910,note_on,1,0,7,,,,,,,,5,,,84,90
86924,note_on,14,0,7,,,,,,,,5,,,84,0
86925,note_on,1,0,7,,,,,,,,5,,,83,90
86939,note_on,0,0,2,,,,,,,,6,,,72,0
86939,note_on,59,0,2,,,,,,,,6,,,76,0
86939,note_on,14,0,7,,,,,,,,5,,,83,0
86940,note_on,1,0,7,,,,,,,,5,,,86,90
86940,note_on,0,0,8,,,,,,,,5,,,55,0
86940,note_on,0,0,8,,,,,,,,5,,,64,0
86940,note_on,60,0,8,,,,,,,,5,,,60,0
86940,note_on,60,0,1,,,,,,,,3,,,79,0
86940,note_on,60,0,3,,,,,,,,0,,,67,0
86940,note_on,0,0,3,,,,,,,,0,,,55,0
86954,note_on,14,0,7,,,,,,,,5,,,86,0
86955,note_on,1,0,7,,,,,,,,5,,,84,90
86969,note_on,14,0,7,,,,,,,,5,,,84,0
86970,note_on,1,0,7,,,,,,,,5,,,83,90
86984,note_on,14,0,7,,,,,,,,5,,,83,0
86985,note_on,1,0,7,,,,,,,,5,,,81,90
86999,note_on,14,0,7,,,,,,,,5,,,81,0
87000,note_on,0,0,2,,,,,,,,6,,,76,70
87000,note_on,61,0,2,,,,,,,,6,,,72,78
87000,note_on,60,0,8,,,,,,,,5,,,55,80
87000,note_on,0,0,8,,,,,,,,5,,,60,80
87000,note_on,0,0,8,,,,,,,,5,,,64,82
87000,note_on,60,0,1,,,,,,,,3,,,79,82
87000,note_on,60,0,3,,,,,,,,0,,,55,74
87000,note_on,0,0,3,,,,,,,,0,,,67,64
87000,note_on,1,0,7,,,,,,,,5,,,79,90
87029,note_on,29,0,7,,,,,,,,5,,,79,0
87030,note_on,1,0,7,,,,,,,,5,,,84,90
87044,note_on,14,0,7,,,,,,,,5,,,84,0
87045,note_on,1,0,7,,,,,,,,5,,,83,90
87059,note_on,14,0,7,,,,,,,,5,,,83,0
87060,note_on,0,0,3,,,,,,,,0,,,55,0
87060,note_on,60,0,8,,,,,,,,5,,,64,0
87060,note_on,0,0,8,,,,,,,,5,,,60,0
87060,note_on,0,0,8,,,,,,,,5,,,55,0
87060,note_on,0,0,2,,,,,,,,6,,,72,0
87060,note_on,60,0,1,,,,,,,,3,,,79,0
87060,note_on,1,0,7,,,,,,,,5,,,86,90
87060,note_on,60,0,3,,,,,,,,0,,,67,0
87060,note_on,60,0,2,,,,,,,,6,,,76,0
87074,note_on,14,0,7,,,,,,,,5,,,86,0
87075,note_on,1,0,7,,,,,,,,5,,,84,90
87089,note_on,14,0,7,,,,,,,,5,,,84,0
87090,note_on,1,0,7,,,,,,,,5,,,83,90
87104,note_on,14,0,7,,,,,,,,5,,,83,0
87105,note_on,1,0,7,,,,,,,,5,,,81,90
87119,note_on,14,0,7,,,,,,,,5,,,81,0
87120,note_on,60,0,3,,,,,,,,0,,,55,68
87120,note_on,0,0,4,,,,,,,,7,,,55,85
87120,note_on,2820,0,4,,,,,,,,7,,,67,89
87120,note_on,60,0,1,,,,,,,,3,,,79,70
87120,note_on,0,0,3,,,,,,,,0,,,67,70
87120,note_on,0,0,2,,,,,,,,6,,,72,68
87120,note_on,0,0,8,,,,,,,,5,,,60,78
87120,note_on,0,0,8,,,,,,,,5,,,64,82
87120,note_on,60,0,8,,,,,,,,5,,,55,78
87120,note_on,60,0,2,,,,,,,,6,,,76,70
87120,note_on,1,0,7,,,,,,,,5,,,79,90
87139,note_on,19,0,7,,,,,,,,5,,,79,0
87140,note_on,1,0,7,,,,,,,,5,,,72,90
87159,note_on,19,0,7,,,,,,,,5,,,72,0
87160,note_on,1,0,7,,,,,,,,5,,,74,90
87179,note_on,19,0,7,,,,,,,,5,,,74,0
87180,note_on,60,0,1,,,,,,,,3,,,79,0
87180,note_on,0,0,2,,,,,,,,6,,,76,0
87180,note_on,60,0,2,,,,,,,,6,,,72,0
87180,note_on,60,0,8,,,,,,,,5,,,60,0
87180,note_on,0,0,8,,,,,,,,5,,,64,0
87180,note_on,0,0,8,,,,,,,,5,,,55,0
87180,note_on,60,0,3,,,,,,,,0,,,67,0
87180,note_on,1,0,7,,,,,,,,5,,,76,90
87180,note_on,0,0,3,,,,,,,,0,,,55,0
87199,note_on,19,0,7,,,,,,,,5,,,76,0
87200,note_on,1,0,7,,,,,,,,5,,,77,90
87219,note_on,19,0,7,,,,,,,,5,,,77,0
87220,note_on,1,0,7,,,,,,,,5,,,79,90
87239,note_on,19,0,7,,,,,,,,5,,,79,0
87240,note_on,1,0,7,,,,,,,,5,,,81,90
87259,note_on,19,0,7,,,,,,,,5,,,81,0
87260,note_on,80,0,8,,,,,,,,5,,,60,80
87260,note_on,1,0,7,,,,,,,,5,,,76,90
87279,note_on,19,0,7,,,,,,,,5,,,76,0
87279,note_on,19,0,8,,,,,,,,5,,,60,0
87280,note_on,1,0,7,,,,,,,,5,,,77,90
87280,note_on,1,0,8,,,,,,,,5,,,62,82
87299,note_on,19,0,8,,,,,,,,5,,,62,0
87299,note_on,19,0,7,,,,,,,,5,,,77,0
87300,note_on,1,0,7,,,,,,,,5,,,79,90
87300,note_on,1,0,8,,,,,,,,5,,,64,82
87319,note_on,19,0,7,,,,,,,,5,,,79,0
87319,note_on,19,0,8,,,,,,,,5,,,64,0
87320,note_on,1,0,7,,,,,,,,5,,,81,90
87320,note_on,1,0,8,,,,,,,,5,,,65,74
87339,note_on,19,0,7,,,,,,,,5,,,81,0
87339,note_on,19,0,8,,,,,,,,5,,,65,0
87340,note_on,1,0,8,,,,,,,,5,,,67,85
87340,note_on,1,0,7,,,,,,,,5,,,83,90
87359,note_on,19,0,7,,,,,,,,5,,,83,0
87359,note_on,19,0,8,,,,,,,,5,,,67,0
87360,note_on,1,0,8,,,,,,,,5,,,69,80
87360,note_on,1,0,7,,,,,,,,5,,,84,90
87379,note_on,19,0,7,,,,,,,,5,,,84,0
87379,note_on,19,0,8,,,,,,,,5,,,69,0
87380,note_on,1,0,8,,,,,,,,5,,,64,82
87380,note_on,1,0,7,,,,,,,,5,,,79,90
87399,note_on,19,0,8,,,,,,,,5,,,64,0
87399,note_on,19,0,7,,,,,,,,5,,,79,0
87400,note_on,1,0,7,,,,,,,,5,,,81,90
87400,note_on,1,0,8,,,,,,,,5,,,65,82
87419,note_on,19,0,8,,,,,,,,5,,,65,0
87419,note_on,19,0,7,,,,,,,,5,,,81,0
87420,note_on,1,0,7,,,,,,,,5,,,83,90
87420,note_on,1,0,8,,,,,,,,5,,,67,80
87439,note_on,19,0,8,,,,,,,,5,,,67,0
87439,note_on,19,0,7,,,,,,,,5,,,83,0
87440,note_on,1,0,8,,,,,,,,5,,,69,78
87440,note_on,1,0,7,,,,,,,,5,,,84,90
87459,note_on,19,0,7,,,,,,,,5,,,84,0
87459,note_on,19,0,8,,,,,,,,5,,,69,0
87460,note_on,1,0,7,,,,,,,,5,,,86,90
87460,note_on,1,0,8,,,,,,,,5,,,71,80
87479,note_on,19,0,8,,,,,,,,5,,,71,0
87479,note_on,19,0,7,,,,,,,,5,,,86,0
87480,note_on,1,0,7,,,,,,,,5,,,88,90
87480,note_on,1,0,8,,,,,,,,5,,,72,80
87499,note_on,19,0,8,,,,,,,,5,,,72,0
87499,note_on,19,0,7,,,,,,,,5,,,88,0
87500,note_on,1,0,7,,,,,,,,5,,,89,90
87500,note_on,1,0,8,,,,,,,,5,,,74,74
87519,note_on,19,0,8,,,,,,,,5,,,74,0
87519,note_on,19,0,7,,,,,,,,5,,,89,0
87520,note_on,1,0,7,,,,,,,,5,,,86,90
87520,note_on,1,0,8,,,,,,,,5,,,71,82
87539,note_on,19,0,7,,,,,,,,5,,,86,0
87539,note_on,19,0,8,,,,,,,,5,,,71,0
87540,note_on,1,0,7,,,,,,,,5,,,88,90
87540,note_on,1,0,8,,,,,,,,5,,,72,80
87559,note_on,19,0,7,,,,,,,,5,,,88,0
87559,note_on,19,0,8,,,,,,,,5,,,72,0
87560,note_on,1,0,8,,,,,,,,5,,,74,82
87560,note_on,1,0,7,,,,,,,,5,,,89,90
87579,note_on,19,0,7,,,,,,,,5,,,89,0
87579,note_on,19,0,8,,,,,,,,5,,,74,0
87580,note_on,1,0,8,,,,,,,,5,,,71,82
87580,note_on,1,0,7,,,,,,,,5,,,86,90
87599,note_on,19,0,8,,,,,,,,5,,,71,0
87599,note_on,19,0,7,,,,,,,,5,,,86,0
87600,note_on,3300,0,5,,,,,,,,1,,,55,68
87600,note_on,0,0,5,,,,,,,,1,,,67,70
87600,note_on,3300,0,6,,,,,,,,4,,,43,60
87600,note_on,1,0,7,,,,,,,,5,,,88,90
87600,note_on,1,0,8,,,,,,,,5,,,72,82
87619,note_on,19,0,7,,,,,,,,5,,,88,0
87620,note_on,1,0,7,,,,,,,,5,,,88,90
87639,note_on,19,0,7,,,,,,,,5,,,88,0
87640,note_on,1,0,7,,,,,,,,5,,,86,90
87659,note_on,59,0,8,,,,,,,,5,,,72,0
87659,note_on,19,0,7,,,,,,,,5,,,86,0
87660,note_on,0,0,5,,,,,,,,1,,,55,0
87660,note_on,60,0,5,,,,,,,,1,,,67,0
87660,note_on,60,0,6,,,,,,,,4,,,43,0
87660,note_on,1,0,7,,,,,,,,5,,,84,90
87679,note_on,19,0,7,,,,,,,,5,,,84,0
87680,note_on,1,0,7,,,,,,,,5,,,83,90
87699,note_on,19,0,7,,,,,,,,5,,,83,0
87700,note_on,1,0,7,,,,,,,,5,,,81,90
87719,note_on,19,0,7,,,,,,,,5,,,81,0
87720,note_on,1,0,7,,,,,,,,5,,,79,90
87739,note_on,19,0,7,,,,,,,,5,,,79,0
87740,note_on,81,0,8,,,,,,,,5,,,72,82
87740,note_on,1,0,7,,,,,,,,5,,,88,90
87759,note_on,19,0,7,,,,,,,,5,,,88,0
87759,note_on,19,0,8,,,,,,,,5,,,72,0
87760,note_on,1,0,7,,,,,,,,5,,,86,90
87760,note_on,1,0,8,,,,,,,,5,,,71,82
87779,note_on,19,0,8,,,,,,,,5,,,71,0
87779,note_on,19,0,7,,,,,,,,5,,,86,0
87780,note_on,1,0,8,,,,,,,,5,,,69,80
87780,note_on,1,0,7,,,,,,,,5,,,84,90
87799,note_on,19,0,7,,,,,,,,5,,,84,0
87799,note_on,19,0,8,,,,,,,,5,,,69,0
87800,note_on,1,0,7,,,,,,,,5,,,83,90
87800,note_on,1,0,8,,,,,,,,5,,,67,63
87819,note_on,19,0,8,,,,,,,,5,,,67,0
87819,note_on,19,0,7,,,,,,,,5,,,83,0
87820,note_on,1,0,8,,,,,,,,5,,,65,76
87820,note_on,1,0,7,,,,,,,,5,,,81,90
87839,note_on,19,0,7,,,,,,,,5,,,81,0
87839,note_on,19,0,8,,,,,,,,5,,,65,0
87840,note_on,1,0,8,,,,,,,,5,,,64,85
87840,note_on,180,0,5,,,,,,,,1,,,67,68
87840,note_on,180,0,6,,,,,,,,4,,,43,60
87840,note_on,1,0,7,,,,,,,,5,,,79,90
87840,note_on,0,0,5,,,,,,,,1,,,55,68
87859,note_on,19,0,7,,,,,,,,5,,,79,0
87859,note_on,19,0,8,,,,,,,,5,,,64,0
87860,note_on,1,0,7,,,,,,,,5,,,88,90
87860,note_on,1,0,8,,,,,,,,5,,,72,82
87879,note_on,19,0,8,,,,,,,,5,,,72,0
87879,note_on,19,0,7,,,,,,,,5,,,88,0
87880,note_on,1,0,8,,,,,,,,5,,,71,82
87880,note_on,1,0,7,,,,,,,,5,,,86,90
87899,note_on,19,0,8,,,,,,,,5,,,71,0
87899,note_on,19,0,7,,,,,,,,5,,,86,0
87900,note_on,60,0,5,,,,,,,,1,,,55,0
87900,note_on,0,0,5,,,,,,,,1,,,67,0
87900,note_on,60,0,6,,,,,,,,4,,,43,0
87900,note_on,1,0,8,,,,,,,,5,,,69,76
87900,note_on,1,0,7,,,,,,,,5,,,84,90
87919,note_on,19,0,7,,,,,,,,5,,,84,0
87919,note_on,19,0,8,,,,,,,,5,,,69,0
87920,note_on,1,0,7,,,,,,,,5,,,83,90
87920,note_on,1,0,8,,,,,,,,5,,,67,85
87939,note_on,19,0,8,,,,,,,,5,,,67,0
87939,note_on,19,0,7,,,,,,,,5,,,83,0
87940,note_on,1,0,8,,,,,,,,5,,,65,76
87940,note_on,1,0,7,,,,,,,,5,,,81,90
87959,note_on,19,0,8,,,,,,,,5,,,65,0
87959,note_on,19,0,7,,,,,,,,5,,,81,0
87960,note_on,1,0,8,,,,,,,,5,,,64,87
87960,note_on,1,0,7,,,,,,,,5,,,79,90
87960,note_on,60,0,5,,,,,,,,1,,,55,68
87960,note_on,0,0,5,,,,,,,,1,,,67,68
87960,note_on,60,0,6,,,,,,,,4,,,43,55
87979,note_on,19,0,8,,,,,,,,5,,,64,0
87979,note_on,19,0,7,,,,,,,,5,,,79,0
87980,note_on,1,0,7,,,,,,,,5,,,88,90
87980,note_on,1,0,8,,,,,,,,5,,,72,70
87999,note_on,19,0,7,,,,,,,,5,,,88,0
87999,note_on,19,0,8,,,,,,,,5,,,72,0
88000,note_on,1,0,7,,,,,,,,5,,,86,90
88000,note_on,1,0,8,,,,,,,,5,,,71,78
88019,note_on,19,0,7,,,,,,,,5,,,86,0
88019,note_on,19,0,8,,,,,,,,5,,,71,0
88020,note_on,1,0,8,,,,,,,,5,,,69,76
88020,note_on,0,0,5,,,,,,,,1,,,55,0
88020,note_on,1,0,7,,,,,,,,5,,,84,90
88020,note_on,60,0,5,,,,,,,,1,,,67,0
88020,note_on,60,0,6,,,,,,,,4,,,43,0
88039,note_on,19,0,7,,,,,,,,5,,,84,0
88039,note_on,19,0,8,,,,,,,,5,,,69,0
88040,note_on,1,0,7,,,,,,,,5,,,83,90
88040,note_on,1,0,8,,,,,,,,5,,,67,74
88059,note_on,19,0,7,,,,,,,,5,,,83,0
88059,note_on,19,0,8,,,,,,,,5,,,67,0
88060,note_on,1,0,7,,,,,,,,5,,,81,90
88060,note_on,1,0,8,,,,,,,,5,,,65,87
88079,note_on,19,0,7,,,,,,,,5,,,81,0
88079,note_on,19,0,8,,,,,,,,5,,,65,0
88080,note_on,1,0,7,,,,,,,,5,,,79,90
88080,note_on,60,0,6,,,,,,,,4,,,43,68
88080,note_on,0,0,5,,,,,,,,1,,,67,68
88080,note_on,60,0,5,,,,,,,,1,,,55,70
88080,note_on,1,0,8,,,,,,,,5,,,64,85
88109,note_on,29,0,7,,,,,,,,5,,,79,0
88110,note_on,930,0,2,,,,,,,,6,,,72,78
88110,note_on,930,0,1,,,,,,,,3,,,76,76
88110,note_on,1,0,7,,,,,,,,5,,,64,90
88124,note_on,14,0,7,,,,,,,,5,,,64,0
88125,note_on,15,0,1,,,,,,,,3,,,76,0
88125,note_on,15,0,2,,,,,,,,6,,,72,0
88125,note_on,1,0,7,,,,,,,,5,,,76,90
88139,note_on,59,0,8,,,,,,,,5,,,64,0
88139,note_on,14,0,7,,,,,,,,5,,,76,0
88140,note_on,1,0,7,,,,,,,,5,,,65,90
88140,note_on,15,0,2,,,,,,,,6,,,74,72
88140,note_on,15,0,1,,,,,,,,3,,,77,78
88154,note_on,14,0,7,,,,,,,,5,,,65,0
88155,note_on,15,0,2,,,,,,,,6,,,74,0
88155,note_on,1,0,7,,,,,,,,5,,,77,90
88155,note_on,15,0,1,,,,,,,,3,,,77,0
88169,note_on,14,0,7,,,,,,,,5,,,77,0
88170,note_on,1,0,7,,,,,,,,5,,,67,90
88170,note_on,15,0,1,,,,,,,,3,,,79,70
88170,note_on,15,0,2,,,,,,,,6,,,76,85
88184,note_on,14,0,7,,,,,,,,5,,,67,0
88185,note_on,15,0,2,,,,,,,,6,,,76,0
88185,note_on,15,0,1,,,,,,,,3,,,79,0
88185,note_on,1,0,7,,,,,,,,5,,,79,90
88199,note_on,14,0,7,,,,,,,,5,,,79,0
88199,note_on,119,0,5,,,,,,,,1,,,67,0
88199,note_on,0,0,5,,,,,,,,1,,,55,0
88199,note_on,1079,0,4,,,,,,,,7,,,55,0
88199,note_on,0,0,4,,,,,,,,7,,,67,0
88199,note_on,119,0,6,,,,,,,,4,,,43,0
88200,note_on,15,0,1,,,,,,,,3,,,81,72
88200,note_on,15,0,2,,,,,,,,6,,,77,72
88200,note_on,1,0,7,,,,,,,,5,,,69,90
88214,note_on,14,0,7,,,,,,,,5,,,69,0
88215,note_on,1,0,7,,,,,,,,5,,,81,90
88215,note_on,15,0,1,,,,,,,,3,,,81,0
88215,note_on,15,0,2,,,,,,,,6,,,77,0
88229,note_on,14,0,7,,,,,,,,5,,,81,0
88230,note_on,1,0,7,,,,,,,,5,,,71,90
88230,note_on,15,0,1,,,,,,,,3,,,83,70
88230,note_on,15,0,2,,,,,,,,6,,,79,68
88244,note_on,14,0,7,,,,,,,,5,,,71,0
88245,note_on,15,0,2,,,,,,,,6,,,79,0
88245,note_on,15,0,1,,,,,,,,3,,,83,0
88245,note_on,1,0,7,,,,,,,,5,,,83,90
88259,note_on,14,0,7,,,,,,,,5,,,83,0
88260,note_on,1,0,7,,,,,,,,5,,,72,90
88260,note_on,15,0,2,,,,,,,,6,,,81,48
88260,note_on,15,0,1,,,,,,,,3,,,84,68
88274,note_on,14,0,7,,,,,,,,5,,,72,0
88275,note_on,1,0,7,,,,,,,,5,,,84,90
88275,note_on,15,0,1,,,,,,,,3,,,84,0
88275,note_on,15,0,2,,,,,,,,6,,,81,0
88289,note_on,14,0,7,,,,,,,,5,,,84,0
88290,note_on,15,0,2,,,,,,,,6,,,83,66
88290,note_on,15,0,1,,,,,,,,3,,,86,76
88290,note_on,1,0,7,,,,,,,,5,,,74,90
88304,note_on,14,0,7,,,,,,,,5,,,74,0
88305,note_on,15,0,2,,,,,,,,6,,,83,0
88305,note_on,1,0,7,,,,,,,,5,,,86,90
88305,note_on,15,0,1,,,,,,,,3,,,86,0
88319,note_on,14,0,7,,,,,,,,5,,,86,0
88320,note_on,15,0,2,,,,,,,,6,,,84,80
88320,note_on,1,0,7,,,,,,,,5,,,76,90
88320,note_on,15,0,1,,,,,,,,3,,,88,80
88334,note_on,14,0,7,,,,,,,,5,,,76,0
88335,note_on,15,0,2,,,,,,,,6,,,84,0
88335,note_on,1,0,7,,,,,,,,5,,,88,90
88335,note_on,15,0,1,,,,,,,,3,,,88,0
88349,note_on,14,0,7,,,,,,,,5,,,88,0
88350,note_on,15,0,2,,,,,,,,6,,,83,63
88350,note_on,1,0,7,,,,,,,,5,,,74,90
88350,note_on,15,0,1,,,,,,,,3,,,86,70
88364,note_on,14,0,7,,,,,,,,5,,,74,0
88365,note_on,1,0,7,,,,,,,,5,,,86,90
88365,note_on,15,0,2,,,,,,,,6,,,83,0
88365,note_on,15,0,1,,,,,,,,3,,,86,0
88379,note_on,14,0,7,,,,,,,,5,,,86,0
88380,note_on,15,0,2,,,,,,,,6,,,81,78
88380,note_on,1,0,7,,,,,,,,5,,,72,90
88380,note_on,15,0,1,,,,,,,,3,,,84,80
88394,note_on,14,0,7,,,,,,,,5,,,72,0
88395,note_on,15,0,1,,,,,,,,3,,,84,0
88395,note_on,15,0,2,,,,,,,,6,,,81,0
88395,note_on,1,0,7,,,,,,,,5,,,84,90
88409,note_on,14,0,7,,,,,,,,5,,,84,0
88410,note_on,1,0,7,,,,,,,,5,,,71,90
88410,note_on,15,0,1,,,,,,,,3,,,83,76
88410,note_on,15,0,2,,,,,,,,6,,,79,66
88424,note_on,14,0,7,,,,,,,,5,,,71,0
88425,note_on,1,0,7,,,,,,,,5,,,83,90
88425,note_on,15,0,1,,,,,,,,3,,,83,0
88425,note_on,15,0,2,,,,,,,,6,,,79,0
88439,note_on,14,0,7,,,,,,,,5,,,83,0
88440,note_on,1,0,7,,,,,,,,5,,,69,90
88440,note_on,15,0,1,,,,,,,,3,,,81,78
88440,note_on,15,0,2,,,,,,,,6,,,77,68
88454,note_on,14,0,7,,,,,,,,5,,,69,0
88455,note_on,15,0,2,,,,,,,,6,,,77,0
88455,note_on,1,0,7,,,,,,,,5,,,81,90
88455,note_on,15,0,1,,,,,,,,3,,,81,0
88469,note_on,14,0,7,,,,,,,,5,,,81,0
88470,note_on,1,0,7,,,,,,,,5,,,67,90
88470,note_on,15,0,1,,,,,,,,3,,,79,70
88470,note_on,15,0,2,,,,,,,,6,,,76,74
88484,note_on,14,0,7,,,,,,,,5,,,67,0
88485,note_on,1,0,7,,,,,,,,5,,,79,90
88485,note_on,15,0,2,,,,,,,,6,,,76,0
88485,note_on,15,0,1,,,,,,,,3,,,79,0
88499,note_on,14,0,7,,,,,,,,5,,,79,0
88500,note_on,15,0,1,,,,,,,,3,,,77,78
88500,note_on,15,0,2,,,,,,,,6,,,74,70
88500,note_on,1,0,7,,,,,,,,5,,,65,90
88514,note_on,14,0,7,,,,,,,,5,,,65,0
88515,note_on,15,0,2,,,,,,,,6,,,74,0
88515,note_on,15,0,1,,,,,,,,3,,,77,0
88515,note_on,1,0,7,,,,,,,,5,,,77,90
88529,note_on,14,0,7,,,,,,,,5,,,77,0
88530,note_on,15,0,2,,,,,,,,6,,,72,70
88530,note_on,15,0,1,,,,,,,,3,,,76,82
88530,note_on,1,0,7,,,,,,,,5,,,64,90
88544,note_on,14,0,7,,,,,,,,5,,,64,0
88545,note_on,15,0,2,,,,,,,,6,,,72,0
88545,note_on,15,0,1,,,,,,,,3,,,76,0
88545,note_on,1,0,7,,,,,,,,5,,,76,90
88559,note_on,14,0,7,,,,,,,,5,,,76,0
88560,note_on,15,0,2,,,,,,,,6,,,71,78
88560,note_on,1,0,7,,,,,,,,5,,,76,80
88560,note_on,15,0,1,,,,,,,,3,,,74,74
88560,note_on,361,0,4,,,,,,,,7,,,67,72
88560,note_on,0,0,4,,,,,,,,7,,,55,60
88574,note_on,14,0,7,,,,,,,,5,,,76,0
88575,note_on,1,0,7,,,,,,,,5,,,74,80
88589,note_on,14,0,7,,,,,,,,5,,,74,0
88590,note_on,451,0,8,,,,,,,,5,,,42,82
88590,note_on,1410,0,3,,,,,,,,0,,,42,70
88590,note_on,1,0,7,,,,,,,,5,,,76,80
88604,note_on,14,0,8,,,,,,,,5,,,42,0
88604,note_on,14,0,7,,,,,,,,5,,,76,0
88605,note_on,1,0,8,,,,,,,,5,,,54,68
88605,note_on,1,0,7,,,,,,,,5,,,74,80
88619,note_on,29,0,3,,,,,,,,0,,,42,0
88619,note_on,14,0,7,,,,,,,,5,,,74,0
88619,note_on,14,0,8,,,,,,,,5,,,54,0
88619,note_on,59,0,1,,,,,,,,3,,,74,0
88620,note_on,1,0,3,,,,,,,,0,,,43,72
88620,note_on,1,0,8,,,,,,,,5,,,43,80
88620,note_on,1,0,7,,,,,,,,5,,,76,81
88634,note_on,14,0,7,,,,,,,,5,,,76,0
88634,note_on,14,0,8,,,,,,,,5,,,43,0
88635,note_on,1,0,7,,,,,,,,5,,,74,81
88635,note_on,1,0,8,,,,,,,,5,,,55,66
88649,note_on,14,0,7,,,,,,,,5,,,74,0
88649,note_on,14,0,8,,,,,,,,5,,,55,0
88649,note_on,29,0,3,,,,,,,,0,,,43,0
88650,note_on,1,0,8,,,,,,,,5,,,45,68
88650,note_on,1,0,3,,,,,,,,0,,,45,68
88650,note_on,1,0,7,,,,,,,,5,,,76,81
88664,note_on,14,0,7,,,,,,,,5,,,76,0
88664,note_on,14,0,8,,,,,,,,5,,,45,0
88665,note_on,15,0,3,,,,,,,,0,,,45,0
88665,note_on,1,0,7,,,,,,,,5,,,74,81
88665,note_on,1,0,8,,,,,,,,5,,,57,76
88679,note_on,14,0,8,,,,,,,,5,,,57,0
88679,note_on,14,0,7,,,,,,,,5,,,74,0
88680,note_on,1,0,7,,,,,,,,5,,,76,82
88680,note_on,15,0,3,,,,,,,,0,,,47,64
88680,note_on,1,0,8,,,,,,,,5,,,47,78
88694,note_on,14,0,8,,,,,,,,5,,,47,0
88694,note_on,14,0,7,,,,,,,,5,,,76,0
88695,note_on,1,0,7,,,,,,,,5,,,74,82
88695,note_on,15,0,3,,,,,,,,0,,,47,0
88695,note_on,1,0,8,,,,,,,,5,,,59,63
88709,note_on,14,0,7,,,,,,,,5,,,74,0
88709,note_on,14,0,8,,,,,,,,5,,,59,0
88710,note_on,1,0,7,,,,,,,,5,,,76,82
88710,note_on,15,0,3,,,,,,,,0,,,48,70
88710,note_on,1,0,8,,,,,,,,5,,,48,80
88724,note_on,14,0,8,,,,,,,,5,,,48,0
88724,note_on,14,0,7,,,,,,,,5,,,76,0
88725,note_on,1,0,7,,,,,,,,5,,,74,82
88725,note_on,1,0,8,,,,,,,,5,,,60,72
88725,note_on,15,0,3,,,,,,,,0,,,48,0
88739,note_on,14,0,7,,,,,,,,5,,,74,0
88739,note_on,14,0,8,,,,,,,,5,,,60,0
88740,note_on,1,0,7,,,,,,,,5,,,76,83
88740,note_on,1,0,8,,,,,,,,5,,,50,53
88740,note_on,15,0,3,,,,,,,,0,,,50,72
88754,note_on,14,0,7,,,,,,,,5,,,76,0
88754,note_on,14,0,8,,,,,,,,5,,,50,0
88755,note_on,1,0,8,,,,,,,,5,,,62,72
88755,note_on,1,0,7,,,,,,,,5,,,74,83
88755,note_on,15,0,3,,,,,,,,0,,,50,0
88769,note_on,14,0,7,,,,,,,,5,,,74,0
88769,note_on,14,0,8,,,,,,,,5,,,62,0
88770,note_on,1,0,8,,,,,,,,5,,,52,89
88770,note_on,15,0,3,,,,,,,,0,,,52,72
88770,note_on,1,0,7,,,,,,,,5,,,76,83
88784,note_on,14,0,8,,,,,,,,5,,,52,0
88784,note_on,14,0,7,,,,,,,,5,,,76,0
88785,note_on,15,0,3,,,,,,,,0,,,52,0
88785,note_on,1,0,7,,,,,,,,5,,,74,83
88785,note_on,1,0,8,,,,,,,,5,,,64,66
88799,note_on,14,0,7,,,,,,,,5,,,74,0
88799,note_on,14,0,8,,,,,,,,5,,,64,0
88800,note_on,15,0,3,,,,,,,,0,,,53,68
88800,note_on,601,0,6,,,,,,,,4,,,43,74
88800,note_on,1,0,7,,,,,,,,5,,,76,84
88800,note_on,0,0,5,,,,,,,,1,,,55,70
88800,note_on,1,0,8,,,,,,,,5,,,53,85
88800,note_on,601,0,5,,,,,,,,1,,,67,85
88814,note_on,14,0,8,,,,,,,,5,,,53,0
88814,note_on,14,0,7,,,,,,,,5,,,76,0
88815,note_on,1,0,8,,,,,,,,5,,,65,70
88815,note_on,1,0,7,,,,,,,,5,,,74,84
88829,note_on,14,0,8,,,,,,,,5,,,65,0
88829,note_on,29,0,3,,,,,,,,0,,,53,0
88829,note_on,14,0,7,,,,,,,,5,,,74,0
88830,note_on,1,0,8,,,,,,,,5,,,54,70
88830,note_on,1,0,3,,,,,,,,0,,,54,66
88830,note_on,1,0,7,,,,,,,,5,,,76,84
88844,note_on,14,0,7,,,,,,,,5,,,76,0
88844,note_on,14,0,8,,,,,,,,5,,,54,0
88845,note_on,1,0,8,,,,,,,,5,,,65,72
88845,note_on,1,0,7,,,,,,,,5,,,74,84
88859,note_on,14,0,8,,,,,,,,5,,,65,0
88859,note_on,59,0,6,,,,,,,,4,,,43,0
88859,note_on,14,0,7,,,,,,,,5,,,74,0
88859,note_on,29,0,3,,,,,,,,0,,,54,0
88859,note_on,0,0,5,,,,,,,,1,,,67,0
88859,note_on,59,0,5,,,,,,,,1,,,55,0
88860,note_on,1,0,3,,,,,,,,0,,,55,74
88860,note_on,1,0,7,,,,,,,,5,,,76,85
88860,note_on,1,0,8,,,,,,,,5,,,55,72
88874,note_on,14,0,7,,,,,,,,5,,,76,0
88874,note_on,14,0,8,,,,,,,,5,,,55,0
88875,note_on,1,0,8,,,,,,,,5,,,65,68
88875,note_on,1,0,7,,,,,,,,5,,,74,85
88889,note_on,14,0,7,,,,,,,,5,,,74,0
88889,note_on,14,0,8,,,,,,,,5,,,65,0
88889,note_on,29,0,3,,,,,,,,0,,,55,0
88890,note_on,1,0,3,,,,,,,,0,,,56,63
88890,note_on,1,0,7,,,,,,,,5,,,76,85
88890,note_on,1,0,8,,,,,,,,5,,,56,68
88904,note_on,14,0,8,,,,,,,,5,,,56,0
88904,note_on,14,0,7,,,,,,,,5,,,76,0
88905,note_on,1,0,7,,,,,,,,5,,,74,85
88905,note_on,1,0,8,,,,,,,,5,,,65,60
88919,note_on,14,0,7,,,,,,,,5,,,74,0
88919,note_on,14,0,8,,,,,,,,5,,,65,0
88919,note_on,29,0,3,,,,,,,,0,,,56,0
88920,note_on,1,0,7,,,,,,,,5,,,76,86
88920,note_on,1,0,8,,,,,,,,5,,,57,78
88920,note_on,1,0,3,,,,,,,,0,,,57,57
88934,note_on,14,0,7,,,,,,,,5,,,76,0
88934,note_on,14,0,8,,,,,,,,5,,,57,0
88935,note_on,1,0,7,,,,,,,,5,,,74,86
88935,note_on,1,0,8,,,,,,,,5,,,65,60
88949,note_on,14,0,8,,,,,,,,5,,,65,0
88949,note_on,14,0,7,,,,,,,,5,,,74,0
88949,note_on,29,0,3,,,,,,,,0,,,57,0
88950,note_on,1,0,3,,,,,,,,0,,,58,58
88950,note_on,1,0,7,,,,,,,,5,,,76,86
88950,note_on,1,0,8,,,,,,,,5,,,58,64
88964,note_on,14,0,8,,,,,,,,5,,,58,0
88964,note_on,14,0,7,,,,,,,,5,,,76,0
88965,note_on,1,0,8,,,,,,,,5,,,65,61
88965,note_on,1,0,7,,,,,,,,5,,,74,86
88979,note_on,29,0,3,,,,,,,,0,,,58,0
88979,note_on,14,0,8,,,,,,,,5,,,65,0
88979,note_on,14,0,7,,,,,,,,5,,,74,0
88980,note_on,1,0,3,,,,,,,,0,,,59,66
88980,note_on,1,0,8,,,,,,,,5,,,59,70
88980,note_on,1,0,7,,,,,,,,5,,,76,87
88994,note_on,14,0,7,,,,,,,,5,,,76,0
88994,note_on,14,0,8,,,,,,,,5,,,59,0
88995,note_on,1,0,7,,,,,,,,5,,,74,87
88995,note_on,1,0,8,,,,,,,,5,,,65,74
89009,note_on,29,0,3,,,,,,,,0,,,59,0
89009,note_on,14,0,7,,,,,,,,5,,,74,0
89009,note_on,14,0,8,,,,,,,,5,,,65,0
89010,note_on,1,0,8,,,,,,,,5,,,60,60
89010,note_on,1,0,7,,,,,,,,5,,,76,87
89010,note_on,1,0,3,,,,,,,,0,,,60,64
89024,note_on,14,0,7,,,,,,,,5,,,76,0
89024,note_on,14,0,8,,,,,,,,5,,,60,0
89025,note_on,1,0,7,,,,,,,,5,,,74,87
89025,note_on,1,0,8,,,,,,,,5,,,65,68
89039,note_on,14,0,7,,,,,,,,5,,,74,0
89039,note_on,29,0,3,,,,,,,,0,,,60,0
89039,note_on,14,0,8,,,,,,,,5,,,65,0
89040,note_on,1,0,3,,,,,,,,0,,,61,80
89040,note_on,1,0,7,,,,,,,,5,,,76,88
89040,note_on,181,0,5,,,,,,,,1,,,67,87
89040,note_on,1,0,8,,,,,,,,5,,,61,82
89040,note_on,0,0,5,,,,,,,,1,,,55,80
89040,note_on,181,0,6,,,,,,,,4,,,43,82
89054,note_on,14,0,7,,,,,,,,5,,,76,0
89054,note_on,14,0,8,,,,,,,,5,,,61,0
89055,note_on,1,0,7,,,,,,,,5,,,74,88
89055,note_on,1,0,8,,,,,,,,5,,,65,82
89069,note_on,14,0,7,,,,,,,,5,,,74,0
89069,note_on,29,0,3,,,,,,,,0,,,61,0
89069,note_on,14,0,8,,,,,,,,5,,,65,0
89070,note_on,1,0,7,,,,,,,,5,,,76,88
89070,note_on,1,0,8,,,,,,,,5,,,62,82
89070,note_on,1,0,3,,,,,,,,0,,,62,80
89084,note_on,14,0,8,,,,,,,,5,,,62,0
89084,note_on,14,0,7,,,,,,,,5,,,76,0
89085,note_on,1,0,7,,,,,,,,5,,,74,88
89085,note_on,1,0,8,,,,,,,,5,,,65,80
89099,note_on,14,0,8,,,,,,,,5,,,65,0
89099,note_on,14,0,7,,,,,,,,5,,,74,0
89099,note_on,29,0,3,,,,,,,,0,,,62,0
89100,note_on,1,0,3,,,,,,,,0,,,61,76
89100,note_on,1,0,7,,,,,,,,5,,,76,89
89100,note_on,60,0,6,,,,,,,,4,,,43,0
89100,note_on,1,0,8,,,,,,,,5,,,61,68
89100,note_on,60,0,5,,,,,,,,1,,,55,0
89100,note_on,0,0,5,,,,,,,,1,,,67,0
89114,note_on,14,0,8,,,,,,,,5,,,61,0
89114,note_on,14,0,7,,,,,,,,5,,,76,0
89115,note_on,1,0,7,,,,,,,,5,,,74,89
89115,note_on,1,0,8,,,,,,,,5,,,65,70
89129,note_on,14,0,7,,,,,,,,5,,,74,0
89129,note_on,14,0,8,,,,,,,,5,,,65,0
89129,note_on,29,0,3,,,,,,,,0,,,61,0
89130,note_on,1,0,8,,,,,,,,5,,,60,78
89130,note_on,1,0,7,,,,,,,,5,,,76,89
89130,note_on,1,0,3,,,,,,,,0,,,60,82
89144,note_on,14,0,8,,,,,,,,5,,,60,0
89144,note_on,14,0,7,,,,,,,,5,,,76,0
89145,note_on,1,0,7,,,,,,,,5,,,74,89
89145,note_on,1,0,8,,,,,,,,5,,,65,76
89159,note_on,29,0,3,,,,,,,,0,,,60,0
89159,note_on,14,0,7,,,,,,,,5,,,74,0
89159,note_on,14,0,8,,,,,,,,5,,,65,0
89160,note_on,1,0,3,,,,,,,,0,,,59,82
89160,note_on,1,0,7,,,,,,,,5,,,76,90
89160,note_on,1,0,8,,,,,,,,5,,,59,78
89174,note_on,14,0,7,,,,,,,,5,,,76,0
89174,note_on,14,0,8,,,,,,,,5,,,59,0
89175,note_on,1,0,7,,,,,,,,5,,,74,90
89175,note_on,1,0,8,,,,,,,,5,,,65,80
89189,note_on,29,0,3,,,,,,,,0,,,59,0
89189,note_on,14,0,7,,,,,,,,5,,,74,0
89189,note_on,14,0,8,,,,,,,,5,,,65,0
89190,note_on,1,0,3,,,,,,,,0,,,58,72
89190,note_on,1,0,8,,,,,,,,5,,,58,76
89190,note_on,1,0,7,,,,,,,,5,,,76,90
89204,note_on,14,0,8,,,,,,,,5,,,58,0
89204,note_on,14,0,7,,,,,,,,5,,,76,0
89205,note_on,1,0,8,,,,,,,,5,,,65,85
89205,note_on,1,0,7,,,,,,,,5,,,74,90
89219,note_on,29,0,3,,,,,,,,0,,,58,0
89219,note_on,14,0,7,,,,,,,,5,,,74,0
89219,note_on,14,0,8,,,,,,,,5,,,65,0
89220,note_on,1,0,7,,,,,,,,5,,,76,91
89220,note_on,1,0,3,,,,,,,,0,,,57,82
89220,note_on,1,0,8,,,,,,,,5,,,57,78
89234,note_on,14,0,8,,,,,,,,5,,,57,0
89234,note_on,14,0,7,,,,,,,,5,,,76,0
89235,note_on,1,0,7,,,,,,,,5,,,74,91
89235,note_on,1,0,8,,,,,,,,5,,,65,78
89249,note_on,14,0,8,,,,,,,,5,,,65,0
89249,note_on,29,0,3,,,,,,,,0,,,57,0
89249,note_on,14,0,7,,,,,,,,5,,,74,0
89250,note_on,1,0,3,,,,,,,,0,,,56,76
89250,note_on,1,0,7,,,,,,,,5,,,76,91
89250,note_on,1,0,8,,,,,,,,5,,,56,68
89264,note_on,14,0,7,,,,,,,,5,,,76,0
89264,note_on,14,0,8,,,,,,,,5,,,56,0
89265,note_on,1,0,8,,,,,,,,5,,,65,74
89265,note_on,1,0,7,,,,,,,,5,,,74,91
89279,note_on,14,0,8,,,,,,,,5,,,65,0
89279,note_on,14,0,7,,,,,,,,5,,,74,0
89279,note_on,29,0,3,,,,,,,,0,,,56,0
89279,note_on,719,0,2,,,,,,,,6,,,71,0
89280,note_on,1,0,8,,,,,,,,5,,,55,82
89280,note_on,180,0,6,,,,,,,,4,,,43,82
89280,note_on,0,0,5,,,,,,,,1,,,67,76
89280,note_on,180,0,5,,,,,,,,1,,,55,80
89280,note_on,1,0,2,,,,,,,,6,,,72,80
89280,note_on,1,0,3,,,,,,,,0,,,55,87
89280,note_on,1,0,7,,,,,,,,5,,,76,92
89294,note_on,14,0,7,,,,,,,,5,,,76,0
89294,note_on,14,0,2,,,,,,,,6,,,72,0
89295,note_on,15,0,3,,,,,,,,0,,,55,0
89295,note_on,1,0,7,,,,,,,,5,,,74,92
89295,note_on,1,0,2,,,,,,,,6,,,71,80
89299,note_on,19,0,8,,,,,,,,5,,,55,0
89300,note_on,1,0,8,,,,,,,,5,,,59,82
89309,note_on,14,0,2,,,,,,,,6,,,71,0
89309,note_on,14,0,7,,,,,,,,5,,,74,0
89310,note_on,15,0,3,,,,,,,,0,,,62,82
89310,note_on,1,0,2,,,,,,,,6,,,72,80
89310,note_on,1,0,7,,,,,,,,5,,,76,92
89319,note_on,19,0,8,,,,,,,,5,,,59,0
89320,note_on,1,0,8,,,,,,,,5,,,65,82
89324,note_on,14,0,2,,,,,,,,6,,,72,0
89324,note_on,14,0,7,,,,,,,,5,,,76,0
89325,note_on,1,0,7,,,,,,,,5,,,74,92
89325,note_on,1,0,2,,,,,,,,6,,,71,80
89325,note_on,15,0,3,,,,,,,,0,,,62,0
89339,note_on,14,0,2,,,,,,,,6,,,71,0
89339,note_on,14,0,7,,,,,,,,5,,,74,0
89339,note_on,19,0,8,,,,,,,,5,,,65,0
89339,note_on,0,0,4,,,,,,,,7,,,67,0
89339,note_on,779,0,4,,,,,,,,7,,,55,0
89340,note_on,60,0,5,,,,,,,,1,,,67,0
89340,note_on,60,0,6,,,,,,,,4,,,43,0
89340,note_on,1,0,4,,,,,,,,7,,,67,70
89340,note_on,0,0,4,,,,,,,,7,,,55,66
89340,note_on,0,0,5,,,,,,,,1,,,55,0
89340,note_on,1,0,8,,,,,,,,5,,,55,76
89340,note_on,15,0,3,,,,,,,,0,,,59,82
89340,note_on,1,0,7,,,,,,,,5,,,76,93
89340,note_on,1,0,2,,,,,,,,6,,,72,74
89354,note_on,14,0,2,,,,,,,,6,,,72,0
89354,note_on,14,0,7,,,,,,,,5,,,76,0
89355,note_on,1,0,2,,,,,,,,6,,,71,74
89355,note_on,15,0,3,,,,,,,,0,,,59,0
89355,note_on,1,0,7,,,,,,,,5,,,74,93
89359,note_on,19,0,8,,,,,,,,5,,,55,0
89360,note_on,1,0,8,,,,,,,,5,,,59,78
89369,note_on,14,0,7,,,,,,,,5,,,74,0
89369,note_on,14,0,2,,,,,,,,6,,,71,0
89370,note_on,1,0,2,,,,,,,,6,,,72,66
89370,note_on,15,0,3,,,,,,,,0,,,55,85
89370,note_on,1,0,7,,,,,,,,5,,,76,93
89379,note_on,19,0,8,,,,,,,,5,,,59,0
89380,note_on,1,0,8,,,,,,,,5,,,65,74
89384,note_on,14,0,2,,,,,,,,6,,,72,0
89384,note_on,14,0,7,,,,,,,,5,,,76,0
89385,note_on,15,0,3,,,,,,,,0,,,55,0
89385,note_on,1,0,7,,,,,,,,5,,,74,93
89385,note_on,1,0,2,,,,,,,,6,,,71,68
89399,note_on,14,0,2,,,,,,,,6,,,71,0
89399,note_on,0,0,4,,,,,,,,7,,,67,0
89399,note_on,59,0,4,,,,,,,,7,,,55,0
89399,note_on,19,0,8,,,,,,,,5,,,65,0
89399,note_on,14,0,7,,,,,,,,5,,,74,0
89400,note_on,1,0,2,,,,,,,,6,,,72,64
89400,note_on,1,0,7,,,,,,,,5,,,76,94
89400,note_on,60,0,6,,,,,,,,4,,,43,85
89400,note_on,0,0,5,,,,,,,,1,,,55,68
89400,note_on,60,0,5,,,,,,,,1,,,67,80
89400,note_on,1,0,4,,,,,,,,7,,,67,64
89400,note_on,1,0,8,,,,,,,,5,,,55,80
89400,note_on,15,0,3,,,,,,,,0,,,50,87
89400,note_on,0,0,4,,,,,,,,7,,,55,60
89414,note_on,14,0,7,,,,,,,,5,,,76,0
89414,note_on,14,0,2,,,,,,,,6,,,72,0
89415,note_on,1,0,2,,,,,,,,6,,,71,72
89415,note_on,1,0,7,,,,,,,,5,,,74,94
89415,note_on,15,0,3,,,,,,,,0,,,50,0
89419,note_on,19,0,8,,,,,,,,5,,,55,0
89420,note_on,1,0,8,,,,,,,,5,,,59,80
89429,note_on,14,0,7,,,,,,,,5,,,74,0
89429,note_on,14,0,2,,,,,,,,6,,,71,0
89430,note_on,15,0,3,,,,,,,,0,,,55,82
89430,note_on,1,0,2,,,,,,,,6,,,72,72
89430,note_on,1,0,7,,,,,,,,5,,,76,94
89439,note_on,19,0,8,,,,,,,,5,,,59,0
89440,note_on,1,0,8,,,,,,,,5,,,65,82
89444,note_on,14,0,2,,,,,,,,6,,,72,0
89444,note_on,14,0,7,,,,,,,,5,,,76,0
89445,note_on,15,0,3,,,,,,,,0,,,55,0
89445,note_on,1,0,2,,,,,,,,6,,,71,70
89445,note_on,1,0,7,,,,,,,,5,,,74,94
89459,note_on,19,0,8,,,,,,,,5,,,65,0
89459,note_on,0,0,4,,,,,,,,7,,,67,0
89459,note_on,59,0,4,,,,,,,,7,,,55,0
89459,note_on,14,0,2,,,,,,,,6,,,71,0
89459,note_on,14,0,7,,,,,,,,5,,,74,0
89460,note_on,1,0,2,,,,,,,,6,,,72,72
89460,note_on,15,0,3,,,,,,,,0,,,47,80
89460,note_on,1,0,8,,,,,,,,5,,,55,74
89460,note_on,0,0,4,,,,,,,,7,,,55,66
89460,note_on,1,0,4,,,,,,,,7,,,67,66
89460,note_on,1,0,7,,,,,,,,5,,,76,95
89474,note_on,14,0,2,,,,,,,,6,,,72,0
89474,note_on,14,0,7,,,,,,,,5,,,76,0
89475,note_on,1,0,7,,,,,,,,5,,,74,95
89475,note_on,15,0,3,,,,,,,,0,,,47,0
89475,note_on,1,0,2,,,,,,,,6,,,71,70
89479,note_on,19,0,8,,,,,,,,5,,,55,0
89480,note_on,1,0,8,,,,,,,,5,,,59,80
89489,note_on,0,0,5,,,,,,,,1,,,67,0
89489,note_on,14,0,2,,,,,,,,6,,,71,0
89489,note_on,89,0,5,,,,,,,,1,,,55,0
89489,note_on,89,0,6,,,,,,,,4,,,43,0
89489,note_on,14,0,7,,,,,,,,5,,,74,0
89490,note_on,1,0,2,,,,,,,,6,,,69,82
89490,note_on,1,0,5,,,,,,,,1,,,55,82
89490,note_on,0,0,5,,,,,,,,1,,,67,82
89490,note_on,1,0,7,,,,,,,,5,,,76,95
89490,note_on,15,0,3,,,,,,,,0,,,50,82
89490,note_on,1,0,6,,,,,,,,4,,,43,82
89499,note_on,19,0,8,,,,,,,,5,,,59,0
89500,note_on,1,0,8,,,,,,,,5,,,65,80
89504,note_on,14,0,2,,,,,,,,6,,,69,0
89504,note_on,14,0,7,,,,,,,,5,,,76,0
89505,note_on,1,0,2,,,,,,,,6,,,71,82
89505,note_on,15,0,3,,,,,,,,0,,,50,0
89505,note_on,1,0,7,,,,,,,,5,,,74,95
89519,note_on,59,0,4,,,,,,,,7,,,55,0
89519,note_on,0,0,4,,,,,,,,7,,,67,0
89519,note_on,29,0,6,,,,,,,,4,,,43,0
89519,note_on,14,0,7,,,,,,,,5,,,74,0
89519,note_on,0,0,5,,,,,,,,1,,,55,0
89519,note_on,14,0,2,,,,,,,,6,,,71,0
89519,note_on,29,0,5,,,,,,,,1,,,67,0
89519,note_on,19,0,8,,,,,,,,5,,,65,0
89520,note_on,1,0,6,,,,,,,,4,,,43,85
89520,note_on,901,0,1,,,,,,,,3,,,84,85
89520,note_on,2821,0,10,,,,,,,,13,,,55,82
89520,note_on,1,0,2,,,,,,,,6,,,79,80
89520,note_on,2821,0,9,,,,,,,,12,,,55,82
89520,note_on,0,0,4,,,,,,,,7,,,55,68
89520,note_on,1,0,5,,,,,,,,1,,,55,82
89520,note_on,0,0,5,,,,,,,,1,,,67,80
89520,note_on,1,0,8,,,,,,,,5,,,55,82
89520,note_on,1,0,4,,,,,,,,7,,,67,68
89520,note_on,2821,0,11,,,,,,,,14,,,55,72
89520,note_on,1,0,7,,,,,,,,5,,,88,96
89520,note_on,2821,0,12,,,,,,,,15,,,43,85
89520,note_on,15,0,3,,,,,,,,0,,,43,85
89534,note_on,14,0,7,,,,,,,,5,,,88,0
89534,note_on,14,0,2,,,,,,,,6,,,79,0
89534,note_on,14,0,1,,,,,,,,3,,,84,0
89535,note_on,1,0,2,,,,,,,,6,,,77,82
89535,note_on,1,0,1,,,,,,,,3,,,83,80
89535,note_on,1,0,7,,,,,,,,5,,,86,96
89539,note_on,19,0,8,,,,,,,,5,,,55,0
89540,note_on,1,0,8,,,,,,,,5,,,59,82
89549,note_on,14,0,2,,,,,,,,6,,,77,0
89549,note_on,14,0,1,,,,,,,,3,,,83,0
89549,note_on,14,0,7,,,,,,,,5,,,86,0
89550,note_on,1,0,1,,,,,,,,3,,,84,82
89550,note_on,1,0,2,,,,,,,,6,,,79,68
89550,note_on,1,0,7,,,,,,,,5,,,88,96
89559,note_on,19,0,8,,,,,,,,5,,,59,0
89560,note_on,1,0,8,,,,,,,,5,,,65,82
89564,note_on,14,0,2,,,,,,,,6,,,79,0
89564,note_on,14,0,1,,,,,,,,3,,,84,0
89564,note_on,14,0,7,,,,,,,,5,,,88,0
89565,note_on,1,0,2,,,,,,,,6,,,77,80
89565,note_on,1,0,7,,,,,,,,5,,,86,96
89565,note_on,1,0,1,,,,,,,,3,,,83,76
89579,note_on,59,0,4,,,,,,,,7,,,55,0
89579,note_on,19,0,8,,,,,,,,5,,,65,0
89579,note_on,14,0,2,,,,,,,,6,,,77,0
89579,note_on,14,0,7,,,,,,,,5,,,86,0
89579,note_on,0,0,4,,,,,,,,7,,,67,0
89579,note_on,14,0,1,,,,,,,,3,,,83,0
89580,note_on,1,0,4,,,,,,,,7,,,55,70
89580,note_on,0,0,4,,,,,,,,7,,,67,74
89580,note_on,60,0,3,,,,,,,,0,,,43,0
89580,note_on,1,0,8,,,,,,,,5,,,55,85
89580,note_on,0,0,5,,,,,,,,1,,,55,0
89580,note_on,60,0,10,,,,,,,,13,,,55,0
89580,note_on,1,0,7,,,,,,,,5,,,88,97
89580,note_on,60,0,5,,,,,,,,1,,,67,0
89580,note_on,1,0,1,,,,,,,,3,,,84,72
89580,note_on,1,0,2,,,,,,,,6,,,79,72
89580,note_on,60,0,11,,,,,,,,14,,,55,0
89580,note_on,60,0,12,,,,,,,,15,,,43,0
89580,note_on,60,0,9,,,,,,,,12,,,55,0
89580,note_on,60,0,6,,,,,,,,4,,,43,0
89594,note_on,14,0,2,,,,,,,,6,,,79,0
89594,note_on,14,0,1,,,,,,,,3,,,84,0
89594,note_on,14,0,7,,,,,,,,5,,,88,0
89595,note_on,1,0,2,,,,,,,,6,,,77,74
89595,note_on,1,0,7,,,,,,,,5,,,86,97
89595,note_on,1,0,1,,,,,,,,3,,,83,68
89599,note_on,19,0,8,,,,,,,,5,,,55,0
89600,note_on,1,0,8,,,,,,,,5,,,59,80
89609,note_on,14,0,7,,,,,,,,5,,,86,0
89609,note_on,14,0,2,,,,,,,,6,,,77,0
89609,note_on,14,0,1,,,,,,,,3,,,83,0
89610,note_on,1,0,1,,,,,,,,3,,,84,70
89610,note_on,1,0,2,,,,,,,,6,,,79,72
89610,note_on,1,0,7,,,,,,,,5,,,88,97
89619,note_on,19,0,8,,,,,,,,5,,,59,0
89620,note_on,1,0,8,,,,,,,,5,,,65,85
89624,note_on,14,0,7,,,,,,,,5,,,88,0
89624,note_on,14,0,1,,,,,,,,3,,,84,0
89624,note_on,14,0,2,,,,,,,,6,,,79,0
89625,note_on,1,0,7,,,,,,,,5,,,86,97
89625,note_on,1,0,2,,,,,,,,6,,,77,74
89625,note_on,1,0,1,,,,,,,,3,,,83,78
89639,note_on,19,0,8,,,,,,,,5,,,65,0
89639,note_on,14,0,2,,,,,,,,6,,,77,0
89639,note_on,14,0,7,,,,,,,,5,,,86,0
89639,note_on,0,0,4,,,,,,,,7,,,55,0
89639,note_on,59,0,4,,,,,,,,7,,,67,0
89639,note_on,14,0,1,,,,,,,,3,,,83,0
89640,note_on,1,0,2,,,,,,,,6,,,79,70
89640,note_on,60,0,6,,,,,,,,4,,,43,82
89640,note_on,60,0,10,,,,,,,,13,,,62,85
89640,note_on,1,0,1,,,,,,,,3,,,84,85
89640,note_on,0,0,5,,,,,,,,1,,,55,72
89640,note_on,60,0,12,,,,,,,,15,,,55,78
89640,note_on,1,0,4,,,,,,,,7,,,55,70
89640,note_on,1,0,7,,,,,,,,5,,,88,98
89640,note_on,0,0,4,,,,,,,,7,,,67,70
89640,note_on,60,0,3,,,,,,,,0,,,55,80
89640,note_on,60,0,11,,,,,,,,14,,,67,85
89640,note_on,1,0,8,,,,,,,,5,,,55,76
89640,note_on,60,0,5,,,,,,,,1,,,67,74
89640,note_on,60,0,9,,,,,,,,12,,,62,85
89649,note_on,9,0,9,,,,,,,,12,,,62,0
89649,note_on,9,0,10,,,,,,,,13,,,62,0
89650,note_on,1,0,9,,,,,,,,12,,,71,80
89650,note_on,1,0,10,,,,,,,,13,,,71,80
89654,note_on,14,0,1,,,,,,,,3,,,84,0
89654,note_on,14,0,7,,,,,,,,5,,,88,0
89654,note_on,14,0,2,,,,,,,,6,,,79,0
89655,note_on,1,0,1,,,,,,,,3,,,83,74
89655,note_on,1,0,2,,,,,,,,6,,,77,74
89655,note_on,1,0,7,,,,,,,,5,,,86,98
89659,note_on,9,0,9,,,,,,,,12,,,71,0
89659,note_on,19,0,8,,,,,,,,5,,,55,0
89659,note_on,9,0,10,,,,,,,,13,,,71,0
89660,note_on,1,0,8,,,,,,,,5,,,59,80
89660,note_on,1,0,10,,,,,,,,13,,,79,82
89660,note_on,1,0,9,,,,,,,,12,,,79,82
89669,note_on,14,0,7,,,,,,,,5,,,86,0
89669,note_on,14,0,2,,,,,,,,6,,,77,0
89669,note_on,14,0,1,,,,,,,,3,,,83,0
89670,note_on,1,0,7,,,,,,,,5,,,88,98
89670,note_on,1,0,2,,,,,,,,6,,,79,70
89670,note_on,1,0,1,,,,,,,,3,,,84,72
89679,note_on,19,0,8,,,,,,,,5,,,59,0
89680,note_on,1,0,8,,,,,,,,5,,,65,82
89684,note_on,14,0,7,,,,,,,,5,,,88,0
89684,note_on,14,0,1,,,,,,,,3,,,84,0
89684,note_on,14,0,2,,,,,,,,6,,,79,0
89685,note_on,1,0,7,,,,,,,,5,,,86,98
89685,note_on,1,0,2,,,,,,,,6,,,77,68
89685,note_on,1,0,1,,,,,,,,3,,,83,74
89699,note_on,14,0,2,,,,,,,,6,,,77,0
89699,note_on,19,0,8,,,,,,,,5,,,65,0
89699,note_on,14,0,1,,,,,,,,3,,,83,0
89699,note_on,39,0,10,,,,,,,,13,,,79,0
89699,note_on,59,0,4,,,,,,,,7,,,67,0
89699,note_on,0,0,4,,,,,,,,7,,,55,0
89699,note_on,39,0,9,,,,,,,,12,,,79,0
89699,note_on,14,0,7,,,,,,,,5,,,86,0
89700,note_on,1,0,1,,,,,,,,3,,,84,74
89700,note_on,60,0,11,,,,,,,,14,,,67,0
89700,note_on,1,0,8,,,,,,,,5,,,55,82
89700,note_on,60,0,3,,,,,,,,0,,,55,0
89700,note_on,1,0,4,,,,,,,,7,,,67,66
89700,note_on,60,0,12,,,,,,,,15,,,55,0
89700,note_on,0,0,4,,,,,,,,7,,,55,64
89700,note_on,1,0,2,,,,,,,,6,,,79,68
89700,note_on,0,0,5,,,,,,,,1,,,67,0
89700,note_on,60,0,6,,,,,,,,4,,,43,0
89700,note_on,60,0,5,,,,,,,,1,,,55,0
89700,note_on,1,0,7,,,,,,,,5,,,88,99
89714,note_on,14,0,7,,,,,,,,5,,,88,0
89714,note_on,14,0,1,,,,,,,,3,,,84,0
89714,note_on,14,0,2,,,,,,,,6,,,79,0
89715,note_on,1,0,7,,,,,,,,5,,,86,99
89715,note_on,1,0,2,,,,,,,,6,,,77,80
89715,note_on,1,0,1,,,,,,,,3,,,83,80
89719,note_on,19,0,8,,,,,,,,5,,,55,0
89720,note_on,1,0,8,,,,,,,,5,,,59,74
89729,note_on,14,0,7,,,,,,,,5,,,86,0
89729,note_on,14,0,2,,,,,,,,6,,,77,0
89729,note_on,14,0,1,,,,,,,,3,,,83,0
89730,note_on,1,0,7,,,,,,,,5,,,84,99
89730,note_on,1,0,1,,,,,,,,3,,,81,78
89730,note_on,1,0,2,,,,,,,,6,,,76,80
89739,note_on,19,0,8,,,,,,,,5,,,59,0
89740,note_on,1,0,8,,,,,,,,5,,,65,82
89744,note_on,14,0,7,,,,,,,,5,,,84,0
89744,note_on,14,0,2,,,,,,,,6,,,76,0
89744,note_on,14,0,1,,,,,,,,3,,,81,0
89745,note_on,1,0,1,,,,,,,,3,,,83,82
89745,note_on,1,0,2,,,,,,,,6,,,77,80
89745,note_on,1,0,7,,,,,,,,5,,,86,99
89759,note_on,14,0,1,,,,,,,,3,,,83,0
89759,note_on,59,0,4,,,,,,,,7,,,55,0
89759,note_on,19,0,8,,,,,,,,5,,,65,0
89759,note_on,14,0,2,,,,,,,,6,,,77,0
89759,note_on,0,0,4,,,,,,,,7,,,67,0
89759,note_on,14,0,7,,,,,,,,5,,,86,0
89760,note_on,60,0,12,,,,,,,,15,,,48,82
89760,note_on,1,0,2,,,,,,,,6,,,72,80
89760,note_on,60,0,11,,,,,,,,14,,,60,82
89760,note_on,60,0,6,,,,,,,,4,,,48,82
89760,note_on,61,0,10,,,,,,,,13,,,72,80
89760,note_on,0,0,8,,,,,,,,5,,,64,87
89760,note_on,1,0,8,,,,,,,,5,,,60,89
89760,note_on,1,0,1,,,,,,,,3,,,84,87
89760,note_on,60,0,3,,,,,,,,0,,,48,95
89760,note_on,1,0,7,,,,,,,,5,,,84,100
89760,note_on,0,0,4,,,,,,,,7,,,60,78
89760,note_on,0,0,2,,,,,,,,6,,,76,85
89760,note_on,0,0,5,,,,,,,,1,,,60,76
89760,note_on,1,0,4,,,,,,,,7,,,72,78
89760,note_on,61,0,9,,,,,,,,12,,,72,80
89760,note_on,60,0,5,,,,,,,,1,,,64,80
89779,note_on,19,0,9,,,,,,,,12,,,72,0
89779,note_on,19,0,10,,,,,,,,13,,,72,0
89780,note_on,1,0,9,,,,,,,,12,,,76,78
89780,note_on,1,0,10,,,,,,,,13,,,76,78
89799,note_on,19,0,9,,,,,,,,12,,,76,0
89799,note_on,19,0,10,,,,,,,,13,,,76,0
89800,note_on,1,0,9,,,,,,,,12,,,79,70
89800,note_on,1,0,10,,,,,,,,13,,,79,70
89819,note_on,19,0,9,,,,,,,,12,,,79,0
89819,note_on,19,0,10,,,,,,,,13,,,79,0
89820,note_on,1,0,9,,,,,,,,12,,,79,72
89820,note_on,1,0,10,,,,,,,,13,,,79,72
89839,note_on,19,0,9,,,,,,,,12,,,79,0
89839,note_on,19,0,10,,,,,,,,13,,,79,0
89840,note_on,1,0,10,,,,,,,,13,,,79,70
89840,note_on,1,0,9,,,,,,,,12,,,79,70
89859,note_on,19,0,9,,,,,,,,12,,,79,0
89859,note_on,19,0,10,,,,,,,,13,,,79,0
89860,note_on,1,0,10,,,,,,,,13,,,79,68
89860,note_on,1,0,9,,,,,,,,12,,,79,68
89879,note_on,19,0,10,,,,,,,,13,,,79,0
89879,note_on,119,0,12,,,,,,,,15,,,48,0
89879,note_on,119,0,4,,,,,,,,7,,,60,0
89879,note_on,0,0,4,,,,,,,,7,,,72,0
89879,note_on,19,0,9,,,,,,,,12,,,79,0
89879,note_on,119,0,6,,,,,,,,4,,,48,0
89879,note_on,119,0,11,,,,,,,,14,,,60,0
89879,note_on,119,0,3,,,,,,,,0,,,48,0
89879,note_on,119,0,7,,,,,,,,5,,,84,0
89879,note_on,119,0,2,,,,,,,,6,,,76,0
89879,end_of_track,0,1,7,,,,,,,,,,,,
89879,end_of_track,0,1,8,,,,,,,,,,,,
89879,note_on,0,0,8,,,,,,,,5,,,60,0
89879,note_on,119,0,5,,,,,,,,1,,,60,0
89879,note_on,119,0,8,,,,,,,,5,,,64,0
89879,note_on,0,0,2,,,,,,,,6,,,72,0
89879,note_on,0,0,5,,,,,,,,1,,,64,0
89879,note_on,119,0,1,,,,,,,,3,,,84,0
89880,note_on,1,0,9,,,,,,,,12,,,79,66
89880,note_on,1,0,10,,,,,,,,13,,,79,66
89899,note_on,19,0,9,,,,,,,,12,,,79,0
89899,note_on,19,0,10,,,,,,,,13,,,79,0
89900,note_on,1,0,9,,,,,,,,12,,,79,68
89900,note_on,1,0,10,,,,,,,,13,,,79,68
89919,note_on,19,0,9,,,,,,,,12,,,79,0
89919,note_on,19,0,10,,,,,,,,13,,,79,0
89920,note_on,1,0,9,,,,,,,,12,,,79,63
89920,note_on,1,0,10,,,,,,,,13,,,79,63
89939,note_on,19,0,10,,,,,,,,13,,,79,0
89939,note_on,19,0,9,,,,,,,,12,,,79,0
89940,note_on,1,0,10,,,,,,,,13,,,83,80
89940,note_on,1,0,9,,,,,,,,12,,,83,80
89940,note_on,61,0,12,,,,,,,,15,,,55,82
89940,note_on,61,0,11,,,,,,,,14,,,67,87
89940,note_on,0,0,4,,,,,,,,7,,,67,82
89940,note_on,61,0,5,,,,,,,,1,,,74,85
89940,note_on,61,0,4,,,,,,,,7,,,74,85
89940,note_on,0,0,5,,,,,,,,1,,,67,82
89940,note_on,61,0,6,,,,,,,,4,,,43,77
89940,note_on,0,0,2,,,,,,,,6,,,79,85
89940,note_on,61,0,2,,,,,,,,6,,,71,82
89940,note_on,61,0,3,,,,,,,,0,,,55,85
89940,note_on,61,0,1,,,,,,,,3,,,89,89
89959,note_on,19,0,10,,,,,,,,13,,,83,0
89959,note_on,19,0,9,,,,,,,,12,,,83,0
89960,note_on,1,0,10,,,,,,,,13,,,81,80
89960,note_on,1,0,9,,,,,,,,12,,,81,80
89979,note_on,19,0,10,,,,,,,,13,,,81,0
89979,note_on,19,0,9,,,,,,,,12,,,81,0
89980,note_on,1,0,9,,,,,,,,12,,,79,68
89980,note_on,1,0,10,,,,,,,,13,,,79,68
89999,note_on,0,0,5,,,,,,,,1,,,74,0
89999,note_on,59,0,5,,,,,,,,1,,,67,0
89999,note_on,19,0,10,,,,,,,,13,,,79,0
89999,note_on,59,0,12,,,,,,,,15,,,55,0
89999,note_on,59,0,11,,,,,,,,14,,,67,0
89999,note_on,59,0,4,,,,,,,,7,,,67,0
89999,note_on,0,0,4,,,,,,,,7,,,74,0
89999,note_on,59,0,6,,,,,,,,4,,,43,0
89999,note_on,59,0,2,,,,,,,,6,,,79,0
89999,note_on,0,0,2,,,,,,,,6,,,71,0
89999,note_on,59,0,3,,,,,,,,0,,,55,0
89999,note_on,19,0,9,,,,,,,,12,,,79,0
89999,note_on,59,0,1,,,,,,,,3,,,89,0
90000,note_on,0,0,5,,,,,,,,1,,,76,70
90000,note_on,1,0,5,,,,,,,,1,,,72,78
90000,note_on,1,0,2,,,,,,,,6,,,72,80
90000,note_on,0,0,2,,,,,,,,6,,,79,85
90000,note_on,1,0,9,,,,,,,,12,,,84,68
90000,note_on,1,0,1,,,,,,,,3,,,88,85
90000,note_on,1,0,12,,,,,,,,15,,,60,80
90000,note_on,1,0,6,,,,,,,,4,,,48,82
90000,note_on,1,0,10,,,,,,,,13,,,84,68
90000,note_on,1,0,11,,,,,,,,14,,,72,80
90000,note_on,1,0,3,,,,,,,,0,,,60,91
90000,note_on,0,0,4,,,,,,,,7,,,76,70
90000,note_on,1,0,4,,,,,,,,7,,,72,78
90019,note_on,19,0,9,,,,,,,,12,,,84,0
90019,note_on,19,0,10,,,,,,,,13,,,84,0
90020,note_on,1,0,9,,,,,,,,12,,,79,66
90020,note_on,1,0,10,,,,,,,,13,,,79,66
90039,note_on,19,0,10,,,,,,,,13,,,79,0
90039,note_on,19,0,9,,,,,,,,12,,,79,0
90040,note_on,1,0,10,,,,,,,,13,,,76,82
90040,note_on,1,0,9,,,,,,,,12,,,76,82
90059,note_on,19,0,10,,,,,,,,13,,,76,0
90059,note_on,59,0,1,,,,,,,,3,,,88,0
90059,note_on,59,0,11,,,,,,,,14,,,72,0
90059,note_on,19,0,9,,,,,,,,12,,,76,0
90060,note_on,1,0,9,,,,,,,,12,,,72,74
90060,note_on,0,0,5,,,,,,,,1,,,72,0
90060,note_on,1,0,10,,,,,,,,13,,,72,74
90060,note_on,60,0,4,,,,,,,,7,,,76,0
90060,note_on,60,0,12,,,,,,,,15,,,60,0
90060,note_on,60,0,3,,,,,,,,0,,,60,0
90060,note_on,60,0,2,,,,,,,,6,,,79,0
90060,note_on,60,0,6,,,,,,,,4,,,48,0
90060,note_on,0,0,2,,,,,,,,6,,,72,0
90060,note_on,60,0,5,,,,,,,,1,,,76,0
90060,note_on,0,0,4,,,,,,,,7,,,72,0
90079,note_on,19,0,9,,,,,,,,12,,,72,0
90079,note_on,19,0,10,,,,,,,,13,,,72,0
90080,note_on,1,0,10,,,,,,,,13,,,74,76
90080,note_on,1,0,9,,,,,,,,12,,,74,76
90099,note_on,19,0,10,,,,,,,,13,,,74,0
90099,note_on,19,0,9,,,,,,,,12,,,74,0
90100,note_on,1,0,9,,,,,,,,12,,,76,82
90100,note_on,1,0,10,,,,,,,,13,,,76,82
90119,note_on,19,0,9,,,,,,,,12,,,76,0
90119,note_on,19,0,10,,,,,,,,13,,,76,0
90120,note_on,60,0,4,,,,,,,,7,,,67,80
90120,note_on,0,0,4,,,,,,,,7,,,74,85
90120,note_on,60,0,12,,,,,,,,15,,,55,82
90120,note_on,61,0,11,,,,,,,,14,,,67,89
90120,note_on,60,0,5,,,,,,,,1,,,67,80
90120,note_on,0,0,2,,,,,,,,6,,,79,85
90120,note_on,1,0,10,,,,,,,,13,,,77,82
90120,note_on,60,0,6,,,,,,,,4,,,43,76
90120,note_on,0,0,5,,,,,,,,1,,,74,85
90120,note_on,61,0,1,,,,,,,,3,,,86,87
90120,note_on,60,0,2,,,,,,,,6,,,71,82
90120,note_on,60,0,3,,,,,,,,0,,,55,82
90120,note_on,1,0,9,,,,,,,,12,,,77,82
90139,note_on,19,0,10,,,,,,,,13,,,77,0
90139,note_on,19,0,9,,,,,,,,12,,,77,0
90140,note_on,1,0,10,,,,,,,,13,,,74,82
90140,note_on,1,0,9,,,,,,,,12,,,74,82
90159,note_on,19,0,9,,,,,,,,12,,,74,0
90159,note_on,19,0,10,,,,,,,,13,,,74,0
90160,note_on,1,0,9,,,,,,,,12,,,71,80
90160,note_on,1,0,10,,,,,,,,13,,,71,80
90179,note_on,19,0,9,,,,,,,,12,,,71,0
90179,note_on,19,0,10,,,,,,,,13,,,71,0
90179,note_on,59,0,1,,,,,,,,3,,,86,0
90179,note_on,59,0,11,,,,,,,,14,,,67,0
90180,note_on,1,0,9,,,,,,,,12,,,67,80
90180,note_on,60,0,3,,,,,,,,0,,,55,0
90180,note_on,0,0,2,,,,,,,,6,,,71,0
90180,note_on,60,0,2,,,,,,,,6,,,79,0
90180,note_on,60,0,6,,,,,,,,4,,,43,0
90180,note_on,0,0,4,,,,,,,,7,,,67,0
90180,note_on,60,0,4,,,,,,,,7,,,74,0
90180,note_on,60,0,12,,,,,,,,15,,,55,0
90180,note_on,1,0,10,,,,,,,,13,,,67,80
90180,note_on,60,0,5,,,,,,,,1,,,74,0
90180,note_on,0,0,5,,,,,,,,1,,,67,0
90199,note_on,19,0,10,,,,,,,,13,,,67,0
90199,note_on,19,0,9,,,,,,,,12,,,67,0
90200,note_on,1,0,9,,,,,,,,12,,,69,82
90200,note_on,1,0,10,,,,,,,,13,,,69,82
90219,note_on,19,0,9,,,,,,,,12,,,69,0
90219,note_on,19,0,10,,,,,,,,13,,,69,0
90220,note_on,1,0,10,,,,,,,,13,,,71,78
90220,note_on,1,0,9,,,,,,,,12,,,71,78
90239,note_on,19,0,9,,,,,,,,12,,,71,0
90239,note_on,19,0,10,,,,,,,,13,,,71,0
90240,note_on,0,0,5,,,,,,,,1,,,64,80
90240,note_on,60,0,12,,,,,,,,15,,,48,87
90240,note_on,60,0,6,,,,,,,,4,,,48,87
90240,note_on,60,0,5,,,,,,,,1,,,72,85
90240,note_on,1,0,9,,,,,,,,12,,,72,78
90240,note_on,0,0,4,,,,,,,,7,,,64,80
90240,note_on,61,0,11,,,,,,,,14,,,60,85
90240,note_on,1,0,10,,,,,,,,13,,,72,78
90240,note_on,61,0,1,,,,,,,,3,,,84,85
90240,note_on,60,0,2,,,,,,,,6,,,76,85
90240,note_on,60,0,4,,,,,,,,7,,,72,85
90240,note_on,60,0,3,,,,,,,,0,,,48,87
90240,note_on,0,0,2,,,,,,,,6,,,79,80
90259,note_on,19,0,9,,,,,,,,12,,,72,0
90259,note_on,19,0,10,,,,,,,,13,,,72,0
90260,note_on,1,0,10,,,,,,,,13,,,76,82
90260,note_on,1,0,9,,,,,,,,12,,,76,82
90279,note_on,19,0,9,,,,,,,,12,,,76,0
90279,note_on,19,0,10,,,,,,,,13,,,76,0
90280,note_on,1,0,9,,,,,,,,12,,,79,70
90280,note_on,1,0,10,,,,,,,,13,,,79,70
90299,note_on,19,0,9,,,,,,,,12,,,79,0
90299,note_on,19,0,10,,,,,,,,13,,,79,0
90300,note_on,1,0,10,,,,,,,,13,,,79,76
90300,note_on,60,0,11,,,,,,,,14,,,60,0
90300,note_on,60,0,12,,,,,,,,15,,,48,0
90300,note_on,60,0,3,,,,,,,,0,,,48,0
90300,note_on,1,0,9,,,,,,,,12,,,79,76
90319,note_on,19,0,10,,,,,,,,13,,,79,0
90319,note_on,19,0,9,,,,,,,,12,,,79,0
90320,note_on,1,0,10,,,,,,,,13,,,79,72
90320,note_on,1,0,9,,,,,,,,12,,,79,72
90339,note_on,19,0,10,,,,,,,,13,,,79,0
90339,note_on,19,0,9,,,,,,,,12,,,79,0
90340,note_on,1,0,10,,,,,,,,13,,,79,64
90340,note_on,1,0,9,,,,,,,,12,,,79,64
90359,note_on,19,0,9,,,,,,,,12,,,79,0
90359,note_on,119,0,5,,,,,,,,1,,,64,0
90359,note_on,119,0,1,,,,,,,,3,,,84,0
90359,note_on,0,0,2,,,,,,,,6,,,76,0
90359,note_on,19,0,10,,,,,,,,13,,,79,0
90359,note_on,119,0,6,,,,,,,,4,,,48,0
90359,note_on,0,0,5,,,,,,,,1,,,72,0
90359,note_on,119,0,2,,,,,,,,6,,,79,0
90359,note_on,119,0,4,,,,,,,,7,,,64,0
90359,note_on,0,0,4,,,,,,,,7,,,72,0
90360,note_on,60,0,3,,,,,,,,0,,,55,82
90360,note_on,60,0,11,,,,,,,,14,,,67,89
90360,note_on,60,0,12,,,,,,,,15,,,55,82
90360,note_on,1,0,9,,,,,,,,12,,,79,76
90360,note_on,1,0,10,,,,,,,,13,,,79,76
90379,note_on,19,0,10,,,,,,,,13,,,79,0
90379,note_on,19,0,9,,,,,,,,12,,,79,0
90380,note_on,1,0,10,,,,,,,,13,,,79,80
90380,note_on,1,0,9,,,,,,,,12,,,79,80
90399,note_on,19,0,10,,,,,,,,13,,,79,0
90399,note_on,19,0,9,,,,,,,,12,,,79,0
90400,note_on,1,0,10,,,,,,,,13,,,79,70
90400,note_on,1,0,9,,,,,,,,12,,,79,70
90419,note_on,19,0,10,,,,,,,,13,,,79,0
90419,note_on,19,0,9,,,,,,,,12,,,79,0
90420,note_on,0,0,4,,,,,,,,7,,,67,78
90420,note_on,61,0,5,,,,,,,,1,,,74,82
90420,note_on,60,0,3,,,,,,,,0,,,55,0
90420,note_on,61,0,4,,,,,,,,7,,,74,82
90420,note_on,61,0,2,,,,,,,,6,,,71,72
90420,note_on,60,0,12,,,,,,,,15,,,55,0
90420,note_on,0,0,2,,,,,,,,6,,,79,72
90420,note_on,1,0,9,,,,,,,,12,,,83,70
90420,note_on,1,0,10,,,,,,,,13,,,83,70
90420,note_on,60,0,11,,,,,,,,14,,,67,0
90420,note_on,61,0,1,,,,,,,,3,,,86,85
90420,note_on,61,0,6,,,,,,,,4,,,43,82
90420,note_on,0,0,5,,,,,,,,1,,,67,78
90439,note_on,19,0,10,,,,,,,,13,,,83,0
90439,note_on,19,0,9,,,,,,,,12,,,83,0
90440,note_on,1,0,10,,,,,,,,13,,,81,74
90440,note_on,1,0,9,,,,,,,,12,,,81,74
90459,note_on,19,0,9,,,,,,,,12,,,81,0
90459,note_on,19,0,10,,,,,,,,13,,,81,0
90460,note_on,1,0,10,,,,,,,,13,,,79,74
90460,note_on,1,0,9,,,,,,,,12,,,79,74
90479,note_on,19,0,9,,,,,,,,12,,,79,0
90479,note_on,0,0,2,,,,,,,,6,,,71,0
90479,note_on,59,0,5,,,,,,,,1,,,67,0
90479,note_on,0,0,4,,,,,,,,7,,,74,0
90479,note_on,59,0,2,,,,,,,,6,,,79,0
90479,note_on,59,0,1,,,,,,,,3,,,86,0
90479,note_on,59,0,4,,,,,,,,7,,,67,0
90479,note_on,59,0,6,,,,,,,,4,,,43,0
90479,note_on,19,0,10,,,,,,,,13,,,79,0
90479,note_on,0,0,5,,,,,,,,1,,,74,0
90480,note_on,60,0,11,,,,,,,,14,,,72,80
90480,note_on,60,0,12,,,,,,,,15,,,60,82
90480,note_on,1,0,4,,,,,,,,7,,,76,85
90480,note_on,1,0,2,,,,,,,,6,,,72,78
90480,note_on,0,0,5,,,,,,,,1,,,72,74
90480,note_on,0,0,4,,,,,,,,7,,,72,74
90480,note_on,60,0,3,,,,,,,,0,,,60,85
90480,note_on,1,0,9,,,,,,,,12,,,84,82
90480,note_on,0,0,2,,,,,,,,6,,,79,66
90480,note_on,1,0,1,,,,,,,,3,,,88,85
90480,note_on,1,0,6,,,,,,,,4,,,48,68
90480,note_on,1,0,5,,,,,,,,1,,,76,85
90480,note_on,1,0,10,,,,,,,,13,,,84,82
90499,note_on,19,0,10,,,,,,,,13,,,84,0
90499,note_on,19,0,9,,,,,,,,12,,,84,0
90500,note_on,1,0,9,,,,,,,,12,,,79,76
90500,note_on,1,0,10,,,,,,,,13,,,79,76
90519,note_on,19,0,9,,,,,,,,12,,,79,0
90519,note_on,19,0,10,,,,,,,,13,,,79,0
90520,note_on,1,0,9,,,,,,,,12,,,76,82
90520,note_on,1,0,10,,,,,,,,13,,,76,82
90539,note_on,0,0,4,,,,,,,,7,,,76,0
90539,note_on,59,0,1,,,,,,,,3,,,88,0
90539,note_on,0,0,2,,,,,,,,6,,,72,0
90539,note_on,19,0,9,,,,,,,,12,,,76,0
90539,note_on,19,0,10,,,,,,,,13,,,76,0
90539,note_on,0,0,5,,,,,,,,1,,,76,0
90539,note_on,59,0,5,,,,,,,,1,,,72,0
90539,note_on,59,0,2,,,,,,,,6,,,79,0
90539,note_on,59,0,4,,,,,,,,7,,,72,0
90539,note_on,59,0,6,,,,,,,,4,,,48,0
90540,note_on,60,0,12,,,,,,,,15,,,60,0
90540,note_on,1,0,10,,,,,,,,13,,,72,78
90540,note_on,0,0,4,,,,,,,,7,,,72,68
90540,note_on,60,0,3,,,,,,,,0,,,60,0
90540,note_on,1,0,6,,,,,,,,4,,,48,80
90540,note_on,0,0,2,,,,,,,,6,,,72,68
90540,note_on,1,0,2,,,,,,,,6,,,79,80
90540,note_on,1,0,9,,,,,,,,12,,,72,78
90540,note_on,1,0,1,,,,,,,,3,,,88,78
90540,note_on,0,0,5,,,,,,,,1,,,72,68
90540,note_on,1,0,5,,,,,,,,1,,,76,87
90540,note_on,60,0,11,,,,,,,,14,,,72,0
90540,note_on,1,0,4,,,,,,,,7,,,76,87
90559,note_on,19,0,9,,,,,,,,12,,,72,0
90559,note_on,19,0,10,,,,,,,,13,,,72,0
90560,note_on,1,0,10,,,,,,,,13,,,74,70
90560,note_on,1,0,9,,,,,,,,12,,,74,70
90579,note_on,19,0,9,,,,,,,,12,,,74,0
90579,note_on,19,0,10,,,,,,,,13,,,74,0
90580,note_on,1,0,9,,,,,,,,12,,,76,76
90580,note_on,1,0,10,,,,,,,,13,,,76,76
90599,note_on,59,0,4,,,,,,,,7,,,72,0
90599,note_on,59,0,1,,,,,,,,3,,,88,0
90599,note_on,59,0,6,,,,,,,,4,,,48,0
90599,note_on,0,0,4,,,,,,,,7,,,76,0
90599,note_on,59,0,5,,,,,,,,1,,,72,0
90599,note_on,59,0,2,,,,,,,,6,,,72,0
90599,note_on,19,0,10,,,,,,,,13,,,76,0
90599,note_on,0,0,2,,,,,,,,6,,,79,0
90599,note_on,19,0,9,,,,,,,,12,,,76,0
90599,note_on,0,0,5,,,,,,,,1,,,76,0
90600,note_on,0,0,4,,,,,,,,7,,,74,82
90600,note_on,1,0,4,,,,,,,,7,,,67,70
90600,note_on,1,0,10,,,,,,,,13,,,77,82
90600,note_on,60,0,3,,,,,,,,0,,,55,85
90600,note_on,0,0,5,,,,,,,,1,,,74,82
90600,note_on,1,0,1,,,,,,,,3,,,86,87
90600,note_on,60,0,11,,,,,,,,14,,,67,85
90600,note_on,1,0,6,,,,,,,,4,,,43,78
90600,note_on,1,0,5,,,,,,,,1,,,67,70
90600,note_on,1,0,9,,,,,,,,12,,,77,82
90600,note_on,60,0,12,,,,,,,,15,,,55,87
90600,note_on,1,0,2,,,,,,,,6,,,71,70
90600,note_on,0,0,2,,,,,,,,6,,,79,70
90619,note_on,19,0,9,,,,,,,,12,,,77,0
90619,note_on,19,0,10,,,,,,,,13,,,77,0
90620,note_on,1,0,9,,,,,,,,12,,,74,82
90620,note_on,1,0,10,,,,,,,,13,,,74,82
90639,note_on,19,0,9,,,,,,,,12,,,74,0
90639,note_on,19,0,10,,,,,,,,13,,,74,0
90640,note_on,1,0,9,,,,,,,,12,,,71,82
90640,note_on,1,0,10,,,,,,,,13,,,71,82
90659,note_on,0,0,5,,,,,,,,1,,,67,0
90659,note_on,0,0,2,,,,,,,,6,,,71,0
90659,note_on,59,0,2,,,,,,,,6,,,79,0
90659,note_on,19,0,9,,,,,,,,12,,,71,0
90659,note_on,59,0,6,,,,,,,,4,,,43,0
90659,note_on,59,0,5,,,,,,,,1,,,74,0
90659,note_on,59,0,1,,,,,,,,3,,,86,0
90659,note_on,59,0,4,,,,,,,,7,,,74,0
90659,note_on,0,0,4,,,,,,,,7,,,67,0
90659,note_on,19,0,10,,,,,,,,13,,,71,0
90660,note_on,1,0,9,,,,,,,,12,,,67,78
90660,note_on,0,0,2,,,,,,,,6,,,79,72
90660,note_on,1,0,5,,,,,,,,1,,,74,82
90660,note_on,1,0,1,,,,,,,,3,,,86,82
90660,note_on,1,0,10,,,,,,,,13,,,67,78
90660,note_on,1,0,2,,,,,,,,6,,,71,74
90660,note_on,1,0,6,,,,,,,,4,,,43,82
90660,note_on,60,0,11,,,,,,,,14,,,67,0
90660,note_on,1,0,4,,,,,,,,7,,,74,82
90660,note_on,0,0,4,,,,,,,,7,,,67,68
90660,note_on,60,0,3,,,,,,,,0,,,55,0
90660,note_on,0,0,5,,,,,,,,1,,,67,68
90660,note_on,60,0,12,,,,,,,,15,,,55,0
90679,note_on,19,0,10,,,,,,,,13,,,67,0
90679,note_on,19,0,9,,,,,,,,12,,,67,0
90680,note_on,1,0,10,,,,,,,,13,,,69,72
90680,note_on,1,0,9,,,,,,,,12,,,69,72
90699,note_on,19,0,9,,,,,,,,12,,,69,0
90699,note_on,19,0,10,,,,,,,,13,,,69,0
90700,note_on,1,0,9,,,,,,,,12,,,71,82
90700,note_on,1,0,10,,,,,,,,13,,,71,82
90719,note_on,59,0,1,,,,,,,,3,,,86,0
90719,note_on,59,0,2,,,,,,,,6,,,79,0
90719,note_on,59,0,6,,,,,,,,4,,,43,0
90719,note_on,0,0,4,,,,,,,,7,,,74,0
90719,note_on,59,0,4,,,,,,,,7,,,67,0
90719,note_on,0,0,2,,,,,,,,6,,,71,0
90719,note_on,59,0,5,,,,,,,,1,,,67,0
90719,note_on,0,0,5,,,,,,,,1,,,74,0
90719,note_on,19,0,10,,,,,,,,13,,,71,0
90719,note_on,19,0,9,,,,,,,,12,,,71,0
90720,note_on,1,0,9,,,,,,,,12,,,72,78
90720,note_on,1,0,5,,,,,,,,1,,,72,80
90720,note_on,1,0,6,,,,,,,,4,,,48,80
90720,note_on,60,0,12,,,,,,,,15,,,60,80
90720,note_on,0,0,2,,,,,,,,6,,,84,87
90720,note_on,1,0,2,,,,,,,,6,,,72,82
90720,note_on,1,0,4,,,,,,,,7,,,72,80
90720,note_on,60,0,3,,,,,,,,0,,,60,76
90720,note_on,1,0,1,,,,,,,,3,,,84,82
90720,note_on,1,0,10,,,,,,,,13,,,72,78
90739,note_on,19,0,2,,,,,,,,6,,,84,0
90739,note_on,19,0,12,,,,,,,,15,,,60,0
90739,note_on,19,0,9,,,,,,,,12,,,72,0
90739,note_on,19,0,3,,,,,,,,0,,,60,0
90739,note_on,19,0,10,,,,,,,,13,,,72,0
90740,note_on,1,0,10,,,,,,,,13,,,67,85
90740,note_on,1,0,12,,,,,,,,15,,,55,82
90740,note_on,1,0,3,,,,,,,,0,,,55,82
90740,note_on,1,0,2,,,,,,,,6,,,79,80
90740,note_on,1,0,9,,,,,,,,12,,,67,85
90759,note_on,19,0,10,,,,,,,,13,,,67,0
90759,note_on,19,0,12,,,,,,,,15,,,55,0
90759,note_on,19,0,3,,,,,,,,0,,,55,0
90759,note_on,19,0,2,,,,,,,,6,,,79,0
90759,note_on,19,0,9,,,,,,,,12,,,67,0
90760,note_on,1,0,2,,,,,,,,6,,,76,82
90760,note_on,1,0,9,,,,,,,,12,,,64,78
90760,note_on,1,0,3,,,,,,,,0,,,52,85
90760,note_on,1,0,10,,,,,,,,13,,,64,78
90760,note_on,1,0,12,,,,,,,,15,,,52,82
90779,note_on,0,0,2,,,,,,,,6,,,72,0
90779,note_on,19,0,9,,,,,,,,12,,,64,0
90779,note_on,19,0,3,,,,,,,,0,,,52,0
90779,note_on,19,0,2,,,,,,,,6,,,76,0
90779,note_on,19,0,10,,,,,,,,13,,,64,0
90779,note_on,19,0,12,,,,,,,,15,,,52,0
90779,note_on,59,0,1,,,,,,,,3,,,84,0
90780,note_on,1,0,3,,,,,,,,0,,,48,82
90780,note_on,1,0,12,,,,,,,,15,,,48,80
90780,note_on,60,0,6,,,,,,,,4,,,48,0
90780,note_on,1,0,2,,,,,,,,6,,,72,76
90780,note_on,1,0,10,,,,,,,,13,,,60,78
90780,note_on,1,0,9,,,,,,,,12,,,60,78
90799,note_on,19,0,2,,,,,,,,6,,,72,0
90799,note_on,19,0,10,,,,,,,,13,,,60,0
90799,note_on,19,0,9,,,,,,,,12,,,60,0
90799,note_on,19,0,12,,,,,,,,15,,,48,0
90799,note_on,19,0,3,,,,,,,,0,,,48,0
90800,note_on,1,0,9,,,,,,,,12,,,62,74
90800,note_on,1,0,2,,,,,,,,6,,,74,82
90800,note_on,1,0,12,,,,,,,,15,,,50,78
90800,note_on,1,0,10,,,,,,,,13,,,62,74
90800,note_on,1,0,3,,,,,,,,0,,,50,85
90819,note_on,19,0,10,,,,,,,,13,,,62,0
90819,note_on,19,0,3,,,,,,,,0,,,50,0
90819,note_on,19,0,12,,,,,,,,15,,,50,0
90819,note_on,19,0,9,,,,,,,,12,,,62,0
90819,note_on,19,0,2,,,,,,,,6,,,74,0
90820,note_on,1,0,10,,,,,,,,13,,,64,74
90820,note_on,1,0,12,,,,,,,,15,,,52,85
90820,note_on,1,0,9,,,,,,,,12,,,64,74
90820,note_on,1,0,3,,,,,,,,0,,,52,82
90820,note_on,1,0,2,,,,,,,,6,,,76,80
90839,note_on,19,0,3,,,,,,,,0,,,52,0
90839,note_on,119,0,4,,,,,,,,7,,,72,0
90839,note_on,19,0,2,,,,,,,,6,,,76,0
90839,note_on,119,0,5,,,,,,,,1,,,72,0
90839,note_on,19,0,9,,,,,,,,12,,,64,0
90839,note_on,19,0,12,,,,,,,,15,,,52,0
90839,note_on,19,0,10,,,,,,,,13,,,64,0
90840,note_on,1,0,12,,,,,,,,15,,,53,82
90840,note_on,61,0,1,,,,,,,,3,,,89,80
90840,note_on,1,0,9,,,,,,,,12,,,65,82
90840,note_on,1,0,2,,,,,,,,6,,,77,82
90840,note_on,1,0,4,,,,,,,,7,,,67,85
90840,note_on,60,0,6,,,,,,,,4,,,43,82
90840,note_on,1,0,5,,,,,,,,1,,,67,85
90840,note_on,1,0,10,,,,,,,,13,,,65,82
90840,note_on,1,0,3,,,,,,,,0,,,53,82
90859,note_on,19,0,1,,,,,,,,3,,,89,0
90859,note_on,19,0,12,,,,,,,,15,,,53,0
90859,note_on,19,0,2,,,,,,,,6,,,77,0
90859,note_on,19,0,10,,,,,,,,13,,,65,0
90859,note_on,19,0,3,,,,,,,,0,,,53,0
90859,note_on,19,0,9,,,,,,,,12,,,65,0
90860,note_on,1,0,2,,,,,,,,6,,,74,82
90860,note_on,1,0,10,,,,,,,,13,,,62,80
90860,note_on,1,0,12,,,,,,,,15,,,50,80
90860,note_on,1,0,9,,,,,,,,12,,,62,80
90860,note_on,1,0,3,,,,,,,,0,,,50,74
90860,note_on,1,0,1,,,,,,,,3,,,86,85
90879,note_on,19,0,9,,,,,,,,12,,,62,0
90879,note_on,19,0,2,,,,,,,,6,,,74,0
90879,note_on,19,0,12,,,,,,,,15,,,50,0
90879,note_on,19,0,10,,,,,,,,13,,,62,0
90879,note_on,19,0,1,,,,,,,,3,,,86,0
90879,note_on,19,0,3,,,,,,,,0,,,50,0
90880,note_on,1,0,10,,,,,,,,13,,,59,72
90880,note_on,1,0,9,,,,,,,,12,,,59,72
90880,note_on,1,0,12,,,,,,,,15,,,47,70
90880,note_on,1,0,1,,,,,,,,3,,,83,80
90880,note_on,1,0,2,,,,,,,,6,,,71,76
90880,note_on,1,0,3,,,,,,,,0,,,47,78
90899,note_on,19,0,10,,,,,,,,13,,,59,0
90899,note_on,19,0,12,,,,,,,,15,,,47,0
90899,note_on,19,0,3,,,,,,,,0,,,47,0
90899,note_on,19,0,9,,,,,,,,12,,,59,0
90899,note_on,19,0,2,,,,,,,,6,,,71,0
90899,note_on,19,0,1,,,,,,,,3,,,83,0
90900,note_on,1,0,12,,,,,,,,15,,,43,82
90900,note_on,1,0,1,,,,,,,,3,,,79,80
90900,note_on,1,0,2,,,,,,,,6,,,67,82
90900,note_on,1,0,10,,,,,,,,13,,,55,82
90900,note_on,1,0,3,,,,,,,,0,,,43,82
90900,note_on,1,0,9,,,,,,,,12,,,55,82
90900,note_on,60,0,6,,,,,,,,4,,,43,0
90919,note_on,19,0,12,,,,,,,,15,,,43,0
90919,note_on,19,0,3,,,,,,,,0,,,43,0
90919,note_on,19,0,9,,,,,,,,12,,,55,0
90919,note_on,19,0,2,,,,,,,,6,,,67,0
90919,note_on,19,0,10,,,,,,,,13,,,55,0
90919,note_on,19,0,1,,,,,,,,3,,,79,0
90920,note_on,1,0,9,,,,,,,,12,,,57,70
90920,note_on,1,0,2,,,,,,,,6,,,69,76
90920,note_on,1,0,10,,,,,,,,13,,,57,70
90920,note_on,1,0,3,,,,,,,,0,,,45,82
90920,note_on,1,0,12,,,,,,,,15,,,45,82
90920,note_on,1,0,1,,,,,,,,3,,,81,82
90939,note_on,19,0,12,,,,,,,,15,,,45,0
90939,note_on,19,0,3,,,,,,,,0,,,45,0
90939,note_on,19,0,2,,,,,,,,6,,,69,0
90939,note_on,19,0,10,,,,,,,,13,,,57,0
90939,note_on,19,0,1,,,,,,,,3,,,81,0
90939,note_on,19,0,9,,,,,,,,12,,,57,0
90940,note_on,1,0,2,,,,,,,,6,,,71,72
90940,note_on,1,0,12,,,,,,,,15,,,47,82
90940,note_on,1,0,10,,,,,,,,13,,,59,74
90940,note_on,1,0,3,,,,,,,,0,,,47,76
90940,note_on,1,0,9,,,,,,,,12,,,59,74
90940,note_on,1,0,1,,,,,,,,3,,,83,82
90959,note_on,19,0,2,,,,,,,,6,,,71,0
90959,note_on,19,0,10,,,,,,,,13,,,59,0
90959,note_on,19,0,1,,,,,,,,3,,,83,0
90959,note_on,119,0,5,,,,,,,,1,,,67,0
90959,note_on,19,0,3,,,,,,,,0,,,47,0
90959,note_on,19,0,12,,,,,,,,15,,,47,0
90959,note_on,119,0,4,,,,,,,,7,,,67,0
90959,note_on,19,0,9,,,,,,,,12,,,59,0
90960,note_on,1,0,3,,,,,,,,0,,,48,87
90960,note_on,1,0,1,,,,,,,,3,,,84,85
90960,note_on,1,0,10,,,,,,,,13,,,60,80
90960,note_on,60,0,6,,,,,,,,4,,,48,82
90960,note_on,0,0,5,,,,,,,,1,,,72,78
90960,note_on,1,0,5,,,,,,,,1,,,60,82
90960,note_on,1,0,12,,,,,,,,15,,,48,82
90960,note_on,0,0,4,,,,,,,,7,,,72,78
90960,note_on,1,0,2,,,,,,,,6,,,72,82
90960,note_on,1,0,4,,,,,,,,7,,,60,82
90960,note_on,1,0,9,,,,,,,,12,,,60,80
90979,note_on,19,0,1,,,,,,,,3,,,84,0
90979,note_on,19,0,2,,,,,,,,6,,,72,0
90979,note_on,19,0,10,,,,,,,,13,,,60,0
90979,note_on,19,0,9,,,,,,,,12,,,60,0
90979,note_on,19,0,12,,,,,,,,15,,,48,0
90979,note_on,19,0,3,,,,,,,,0,,,48,0
90980,note_on,1,0,10,,,,,,,,13,,,59,72
90980,note_on,1,0,1,,,,,,,,3,,,83,76
90980,note_on,1,0,3,,,,,,,,0,,,47,78
90980,note_on,1,0,2,,,,,,,,6,,,71,78
90980,note_on,1,0,12,,,,,,,,15,,,47,72
90980,note_on,1,0,9,,,,,,,,12,,,59,72
90999,note_on,19,0,3,,,,,,,,0,,,47,0
90999,note_on,19,0,12,,,,,,,,15,,,47,0
90999,note_on,19,0,10,,,,,,,,13,,,59,0
90999,note_on,19,0,1,,,,,,,,3,,,83,0
90999,note_on,19,0,9,,,,,,,,12,,,59,0
90999,note_on,19,0,2,,,,,,,,6,,,71,0
91000,note_on,1,0,2,,,,,,,,6,,,69,72
91000,note_on,1,0,3,,,,,,,,0,,,45,68
91000,note_on,1,0,9,,,,,,,,12,,,57,70
91000,note_on,1,0,12,,,,,,,,15,,,45,78
91000,note_on,1,0,10,,,,,,,,13,,,57,70
91000,note_on,1,0,1,,,,,,,,3,,,81,76
91019,note_on,19,0,10,,,,,,,,13,,,57,0
91019,note_on,19,0,3,,,,,,,,0,,,45,0
91019,note_on,19,0,1,,,,,,,,3,,,81,0
91019,note_on,59,0,6,,,,,,,,4,,,48,0
91019,note_on,19,0,12,,,,,,,,15,,,45,0
91019,note_on,19,0,9,,,,,,,,12,,,57,0
91019,note_on,59,0,5,,,,,,,,1,,,72,0
91019,note_on,19,0,2,,,,,,,,6,,,69,0
91019,note_on,0,0,4,,,,,,,,7,,,60,0
91019,note_on,59,0,4,,,,,,,,7,,,72,0
91019,note_on,0,0,5,,,,,,,,1,,,60,0
91020,note_on,1,0,1,,,,,,,,3,,,79,70
91020,note_on,1,0,12,,,,,,,,15,,,43,74
91020,note_on,1,0,3,,,,,,,,0,,,43,66
91020,note_on,1,0,6,,,,,,,,4,,,43,82
91020,note_on,0,0,4,,,,,,,,7,,,67,76
91020,note_on,1,0,10,,,,,,,,13,,,55,72
91020,note_on,1,0,5,,,,,,,,1,,,55,80
91020,note_on,0,0,5,,,,,,,,1,,,67,76
91020,note_on,1,0,2,,,,,,,,6,,,67,68
91020,note_on,1,0,4,,,,,,,,7,,,55,80
91020,note_on,1,0,9,,,,,,,,12,,,55,72
91039,note_on,19,0,2,,,,,,,,6,,,67,0
91039,note_on,19,0,9,,,,,,,,12,,,55,0
91039,note_on,19,0,3,,,,,,,,0,,,43,0
91039,note_on,19,0,1,,,,,,,,3,,,79,0
91039,note_on,19,0,12,,,,,,,,15,,,43,0
91039,note_on,19,0,10,,,,,,,,13,,,55,0
91040,note_on,1,0,9,,,,,,,,12,,,57,70
91040,note_on,1,0,10,,,,,,,,13,,,57,70
91040,note_on,1,0,2,,,,,,,,6,,,69,80
91040,note_on,1,0,1,,,,,,,,3,,,81,80
91040,note_on,1,0,3,,,,,,,,0,,,45,72
91040,note_on,1,0,12,,,,,,,,15,,,45,78
91049,note_on,0,0,4,,,,,,,,7,,,55,0
91049,note_on,29,0,6,,,,,,,,4,,,43,0
91049,note_on,0,0,5,,,,,,,,1,,,55,0
91049,note_on,29,0,5,,,,,,,,1,,,67,0
91049,note_on,29,0,4,,,,,,,,7,,,67,0
91050,note_on,1,0,6,,,,,,,,4,,,43,78
91050,note_on,1,0,5,,,,,,,,1,,,67,80
91050,note_on,0,0,4,,,,,,,,7,,,55,74
91050,note_on,1,0,4,,,,,,,,7,,,67,80
91050,note_on,0,0,5,,,,,,,,1,,,55,74
91059,note_on,19,0,3,,,,,,,,0,,,45,0
91059,note_on,19,0,9,,,,,,,,12,,,57,0
91059,note_on,19,0,1,,,,,,,,3,,,81,0
91059,note_on,19,0,2,,,,,,,,6,,,69,0
91059,note_on,19,0,12,,,,,,,,15,,,45,0
91059,note_on,19,0,10,,,,,,,,13,,,57,0
91060,note_on,1,0,3,,,,,,,,0,,,47,66
91060,note_on,1,0,12,,,,,,,,15,,,47,72
91060,note_on,1,0,9,,,,,,,,12,,,59,70
91060,note_on,1,0,1,,,,,,,,3,,,83,80
91060,note_on,1,0,10,,,,,,,,13,,,59,70
91060,note_on,1,0,2,,,,,,,,6,,,71,74
91079,note_on,29,0,6,,,,,,,,4,,,43,0
91079,note_on,19,0,1,,,,,,,,3,,,83,0
91079,note_on,19,0,9,,,,,,,,12,,,59,0
91079,note_on,19,0,3,,,,,,,,0,,,47,0
91079,note_on,0,0,4,,,,,,,,7,,,67,0
91079,note_on,19,0,10,,,,,,,,13,,,59,0
91079,note_on,19,0,12,,,,,,,,15,,,47,0
91079,note_on,0,0,5,,,,,,,,1,,,67,0
91079,note_on,29,0,5,,,,,,,,1,,,55,0
91079,note_on,19,0,2,,,,,,,,6,,,71,0
91079,note_on,29,0,4,,,,,,,,7,,,55,0
91080,note_on,1,0,4,,,,,,,,7,,,67,80
91080,note_on,0,0,4,,,,,,,,7,,,55,78
91080,note_on,1,0,10,,,,,,,,13,,,60,74
91080,note_on,1,0,3,,,,,,,,0,,,48,70
91080,note_on,0,0,5,,,,,,,,1,,,55,78
91080,note_on,1,0,5,,,,,,,,1,,,67,80
91080,note_on,1,0,12,,,,,,,,15,,,48,80
91080,note_on,1,0,6,,,,,,,,4,,,43,68
91080,note_on,1,0,1,,,,,,,,3,,,84,82
91080,note_on,1,0,9,,,,,,,,12,,,60,74
91080,note_on,1,0,2,,,,,,,,6,,,72,72
91099,note_on,19,0,2,,,,,,,,6,,,72,0
91099,note_on,19,0,9,,,,,,,,12,,,60,0
91099,note_on,19,0,12,,,,,,,,15,,,48,0
91099,note_on,19,0,10,,,,,,,,13,,,60,0
91099,note_on,19,0,1,,,,,,,,3,,,84,0
91099,note_on,19,0,3,,,,,,,,0,,,48,0
91100,note_on,1,0,12,,,,,,,,15,,,50,72
91100,note_on,1,0,2,,,,,,,,6,,,74,85
91100,note_on,1,0,10,,,,,,,,13,,,62,74
91100,note_on,1,0,1,,,,,,,,3,,,86,85
91100,note_on,1,0,9,,,,,,,,12,,,62,74
91100,note_on,1,0,3,,,,,,,,0,,,50,80
91119,note_on,19,0,3,,,,,,,,0,,,50,0
91119,note_on,19,0,12,,,,,,,,15,,,50,0
91119,note_on,19,0,1,,,,,,,,3,,,86,0
91119,note_on,19,0,9,,,,,,,,12,,,62,0
91119,note_on,19,0,2,,,,,,,,6,,,74,0
91119,note_on,19,0,10,,,,,,,,13,,,62,0
91120,note_on,1,0,1,,,,,,,,3,,,88,85
91120,note_on,1,0,10,,,,,,,,13,,,64,80
91120,note_on,1,0,2,,,,,,,,6,,,76,72
91120,note_on,1,0,3,,,,,,,,0,,,52,80
91120,note_on,1,0,9,,,,,,,,12,,,64,80
91120,note_on,1,0,12,,,,,,,,15,,,52,80
91139,note_on,59,0,5,,,,,,,,1,,,55,0
91139,note_on,19,0,3,,,,,,,,0,,,52,0
91139,note_on,19,0,10,,,,,,,,13,,,64,0
91139,note_on,59,0,6,,,,,,,,4,,,43,0
91139,note_on,19,0,9,,,,,,,,12,,,64,0
91139,note_on,0,0,5,,,,,,,,1,,,67,0
91139,note_on,0,0,4,,,,,,,,7,,,67,0
91139,note_on,59,0,4,,,,,,,,7,,,55,0
91139,note_on,19,0,2,,,,,,,,6,,,76,0
91139,note_on,19,0,12,,,,,,,,15,,,52,0
91139,note_on,19,0,1,,,,,,,,3,,,88,0
91140,note_on,0,0,4,,,,,,,,7,,,55,72
91140,note_on,1,0,4,,,,,,,,7,,,67,78
91140,note_on,1,0,12,,,,,,,,15,,,53,78
91140,note_on,1,0,10,,,,,,,,13,,,65,64
91140,note_on,1,0,2,,,,,,,,6,,,77,74
91140,note_on,1,0,3,,,,,,,,0,,,53,72
91140,note_on,1,0,5,,,,,,,,1,,,67,78
91140,note_on,0,0,5,,,,,,,,1,,,55,72
91140,note_on,1,0,1,,,,,,,,3,,,89,80
91140,note_on,1,0,9,,,,,,,,12,,,65,64
91140,note_on,1,0,6,,,,,,,,4,,,43,76
91159,note_on,19,0,2,,,,,,,,6,,,77,0
91159,note_on,19,0,9,,,,,,,,12,,,65,0
91159,note_on,19,0,3,,,,,,,,0,,,53,0
91159,note_on,19,0,12,,,,,,,,15,,,53,0
91159,note_on,19,0,1,,,,,,,,3,,,89,0
91159,note_on,19,0,10,,,,,,,,13,,,65,0
91160,note_on,1,0,9,,,,,,,,12,,,64,60
91160,note_on,1,0,3,,,,,,,,0,,,52,68
91160,note_on,1,0,12,,,,,,,,15,,,52,80
91160,note_on,1,0,1,,,,,,,,3,,,88,82
91160,note_on,1,0,2,,,,,,,,6,,,76,66
91160,note_on,1,0,10,,,,,,,,13,,,64,60
91179,note_on,19,0,9,,,,,,,,12,,,64,0
91179,note_on,19,0,3,,,,,,,,0,,,52,0
91179,note_on,19,0,1,,,,,,,,3,,,88,0
91179,note_on,19,0,10,,,,,,,,13,,,64,0
91179,note_on,19,0,2,,,,,,,,6,,,76,0
91179,note_on,19,0,12,,,,,,,,15,,,52,0
91180,note_on,1,0,12,,,,,,,,15,,,50,70
91180,note_on,1,0,3,,,,,,,,0,,,50,66
91180,note_on,1,0,10,,,,,,,,13,,,62,70
91180,note_on,1,0,9,,,,,,,,12,,,62,70
91180,note_on,1,0,2,,,,,,,,6,,,74,70
91180,note_on,1,0,1,,,,,,,,3,,,86,80
91199,note_on,19,0,12,,,,,,,,15,,,50,0
91199,note_on,19,0,9,,,,,,,,12,,,62,0
91199,note_on,59,0,5,,,,,,,,1,,,55,0
91199,note_on,0,0,5,,,,,,,,1,,,67,0
91199,note_on,19,0,3,,,,,,,,0,,,50,0
91199,note_on,19,0,1,,,,,,,,3,,,86,0
91199,note_on,0,0,4,,,,,,,,7,,,67,0
91199,note_on,59,0,4,,,,,,,,7,,,55,0
91199,note_on,19,0,2,,,,,,,,6,,,74,0
91199,note_on,19,0,10,,,,,,,,13,,,62,0
91199,note_on,59,0,6,,,,,,,,4,,,43,0
91200,note_on,1,0,12,,,,,,,,15,,,48,80
91200,note_on,1,0,9,,,,,,,,12,,,60,76
91200,note_on,1,0,2,,,,,,,,6,,,72,80
91200,note_on,1,0,4,,,,,,,,7,,,60,68
91200,note_on,0,0,4,,,,,,,,7,,,72,80
91200,note_on,1,0,10,,,,,,,,13,,,60,76
91200,note_on,1,0,3,,,,,,,,0,,,48,80
91200,note_on,1,0,5,,,,,,,,1,,,60,68
91200,note_on,0,0,5,,,,,,,,1,,,72,80
91200,note_on,1,0,1,,,,,,,,3,,,84,80
91200,note_on,1,0,6,,,,,,,,4,,,48,85
91219,note_on,19,0,9,,,,,,,,12,,,60,0
91219,note_on,19,0,3,,,,,,,,0,,,48,0
91219,note_on,19,0,12,,,,,,,,15,,,48,0
91219,note_on,19,0,2,,,,,,,,6,,,72,0
91219,note_on,19,0,1,,,,,,,,3,,,84,0
91219,note_on,19,0,10,,,,,,,,13,,,60,0
91220,note_on,1,0,3,,,,,,,,0,,,47,63
91220,note_on,1,0,9,,,,,,,,12,,,59,66
91220,note_on,1,0,1,,,,,,,,3,,,83,78
91220,note_on,1,0,12,,,,,,,,15,,,47,66
91220,note_on,1,0,2,,,,,,,,6,,,71,78
91220,note_on,1,0,10,,,,,,,,13,,,59,66
91239,note_on,19,0,10,,,,,,,,13,,,59,0
91239,note_on,19,0,12,,,,,,,,15,,,47,0
91239,note_on,19,0,3,,,,,,,,0,,,47,0
91239,note_on,19,0,9,,,,,,,,12,,,59,0
91239,note_on,19,0,1,,,,,,,,3,,,83,0
91239,note_on,19,0,2,,,,,,,,6,,,71,0
91240,note_on,1,0,10,,,,,,,,13,,,57,68
91240,note_on,1,0,12,,,,,,,,15,,,45,68
91240,note_on,1,0,9,,,,,,,,12,,,57,68
91240,note_on,1,0,1,,,,,,,,3,,,81,72
91240,note_on,1,0,3,,,,,,,,0,,,45,72
91240,note_on,1,0,2,,,,,,,,6,,,69,68
91259,note_on,59,0,4,,,,,,,,7,,,72,0
91259,note_on,59,0,6,,,,,,,,4,,,48,0
91259,note_on,19,0,10,,,,,,,,13,,,57,0
91259,note_on,19,0,9,,,,,,,,12,,,57,0
91259,note_on,59,0,5,,,,,,,,1,,,72,0
91259,note_on,19,0,3,,,,,,,,0,,,45,0
91259,note_on,19,0,1,,,,,,,,3,,,81,0
91259,note_on,0,0,4,,,,,,,,7,,,60,0
91259,note_on,0,0,5,,,,,,,,1,,,60,0
91259,note_on,19,0,12,,,,,,,,15,,,45,0
91259,note_on,19,0,2,,,,,,,,6,,,69,0
91260,note_on,1,0,2,,,,,,,,6,,,67,74
91260,note_on,0,0,5,,,,,,,,1,,,67,82
91260,note_on,1,0,3,,,,,,,,0,,,43,68
91260,note_on,1,0,12,,,,,,,,15,,,43,64
91260,note_on,1,0,5,,,,,,,,1,,,55,80
91260,note_on,0,0,4,,,,,,,,7,,,67,82
91260,note_on,1,0,4,,,,,,,,7,,,55,80
91260,note_on,1,0,6,,,,,,,,4,,,43,82
91260,note_on,1,0,9,,,,,,,,12,,,55,62
91260,note_on,1,0,1,,,,,,,,3,,,79,70
91260,note_on,1,0,10,,,,,,,,13,,,55,62
91279,note_on,19,0,1,,,,,,,,3,,,79,0
91279,note_on,19,0,2,,,,,,,,6,,,67,0
91279,note_on,19,0,3,,,,,,,,0,,,43,0
91279,note_on,19,0,9,,,,,,,,12,,,55,0
91279,note_on,19,0,12,,,,,,,,15,,,43,0
91279,note_on,19,0,10,,,,,,,,13,,,55,0
91280,note_on,1,0,12,,,,,,,,15,,,45,70
91280,note_on,1,0,2,,,,,,,,6,,,69,70
91280,note_on,1,0,10,,,,,,,,13,,,57,68
91280,note_on,1,0,3,,,,,,,,0,,,45,66
91280,note_on,1,0,1,,,,,,,,3,,,81,76
91280,note_on,1,0,9,,,,,,,,12,,,57,68
91289,note_on,29,0,6,,,,,,,,4,,,43,0
91289,note_on,0,0,5,,,,,,,,1,,,55,0
91289,note_on,0,0,4,,,,,,,,7,,,55,0
91289,note_on,29,0,5,,,,,,,,1,,,67,0
91289,note_on,29,0,4,,,,,,,,7,,,67,0
91290,note_on,0,0,5,,,,,,,,1,,,67,87
91290,note_on,0,0,4,,,,,,,,7,,,67,87
91290,note_on,1,0,4,,,,,,,,7,,,55,80
91290,note_on,1,0,6,,,,,,,,4,,,43,82
91290,note_on,1,0,5,,,,,,,,1,,,55,80
91299,note_on,19,0,1,,,,,,,,3,,,81,0
91299,note_on,19,0,9,,,,,,,,12,,,57,0
91299,note_on,19,0,2,,,,,,,,6,,,69,0
91299,note_on,19,0,10,,,,,,,,13,,,57,0
91299,note_on,19,0,3,,,,,,,,0,,,45,0
91299,note_on,19,0,12,,,,,,,,15,,,45,0
91300,note_on,1,0,12,,,,,,,,15,,,47,74
91300,note_on,1,0,3,,,,,,,,0,,,47,66
91300,note_on,1,0,2,,,,,,,,6,,,71,68
91300,note_on,1,0,10,,,,,,,,13,,,59,68
91300,note_on,1,0,9,,,,,,,,12,,,59,68
91300,note_on,1,0,1,,,,,,,,3,,,83,72
91319,note_on,19,0,9,,,,,,,,12,,,59,0
91319,note_on,19,0,10,,,,,,,,13,,,59,0
91319,note_on,19,0,12,,,,,,,,15,,,47,0
91319,note_on,19,0,3,,,,,,,,0,,,47,0
91319,note_on,19,0,1,,,,,,,,3,,,83,0
91319,note_on,0,0,4,,,,,,,,7,,,55,0
91319,note_on,29,0,4,,,,,,,,7,,,67,0
91319,note_on,29,0,6,,,,,,,,4,,,43,0
91319,note_on,0,0,5,,,,,,,,1,,,55,0
91319,note_on,29,0,5,,,,,,,,1,,,67,0
91319,note_on,19,0,2,,,,,,,,6,,,71,0
91320,note_on,1,0,10,,,,,,,,13,,,60,68
91320,note_on,1,0,5,,,,,,,,1,,,67,70
91320,note_on,1,0,2,,,,,,,,6,,,72,70
91320,note_on,1,0,3,,,,,,,,0,,,48,68
91320,note_on,1,0,6,,,,,,,,4,,,43,78
91320,note_on,1,0,1,,,,,,,,3,,,84,80
91320,note_on,0,0,5,,,,,,,,1,,,55,68
91320,note_on,1,0,9,,,,,,,,12,,,60,68
91320,note_on,1,0,4,,,,,,,,7,,,67,70
91320,note_on,0,0,4,,,,,,,,7,,,55,68
91320,note_on,1,0,12,,,,,,,,15,,,48,78
91339,note_on,19,0,3,,,,,,,,0,,,48,0
91339,note_on,19,0,10,,,,,,,,13,,,60,0
91339,note_on,19,0,1,,,,,,,,3,,,84,0
91339,note_on,19,0,2,,,,,,,,6,,,72,0
91339,note_on,19,0,9,,,,,,,,12,,,60,0
91339,note_on,19,0,12,,,,,,,,15,,,48,0
91340,note_on,1,0,1,,,,,,,,3,,,86,74
91340,note_on,1,0,2,,,,,,,,6,,,74,72
91340,note_on,1,0,10,,,,,,,,13,,,62,68
91340,note_on,1,0,12,,,,,,,,15,,,50,68
91340,note_on,1,0,9,,,,,,,,12,,,62,68
91340,note_on,1,0,3,,,,,,,,0,,,50,68
91359,note_on,19,0,3,,,,,,,,0,,,50,0
91359,note_on,19,0,1,,,,,,,,3,,,86,0
91359,note_on,19,0,10,,,,,,,,13,,,62,0
91359,note_on,19,0,12,,,,,,,,15,,,50,0
91359,note_on,19,0,9,,,,,,,,12,,,62,0
91359,note_on,19,0,2,,,,,,,,6,,,74,0
91360,note_on,1,0,1,,,,,,,,3,,,88,82
91360,note_on,1,0,2,,,,,,,,6,,,76,68
91360,note_on,1,0,3,,,,,,,,0,,,52,87
91360,note_on,1,0,9,,,,,,,,12,,,64,70
91360,note_on,1,0,12,,,,,,,,15,,,52,80
91360,note_on,1,0,10,,,,,,,,13,,,64,70
91379,note_on,19,0,1,,,,,,,,3,,,88,0
91379,note_on,19,0,9,,,,,,,,12,,,64,0
91379,note_on,59,0,6,,,,,,,,4,,,43,0
91379,note_on,19,0,12,,,,,,,,15,,,52,0
91379,note_on,19,0,10,,,,,,,,13,,,64,0
91379,note_on,19,0,2,,,,,,,,6,,,76,0
91379,note_on,59,0,5,,,,,,,,1,,,55,0
91379,note_on,0,0,5,,,,,,,,1,,,67,0
91379,note_on,0,0,4,,,,,,,,7,,,67,0
91379,note_on,19,0,3,,,,,,,,0,,,52,0
91379,note_on,59,0,4,,,,,,,,7,,,55,0
91380,note_on,1,0,3,,,,,,,,0,,,53,78
91380,note_on,0,0,4,,,,,,,,7,,,67,82
91380,note_on,1,0,4,,,,,,,,7,,,55,74
91380,note_on,1,0,6,,,,,,,,4,,,43,80
91380,note_on,1,0,12,,,,,,,,15,,,53,74
91380,note_on,1,0,9,,,,,,,,12,,,65,66
91380,note_on,1,0,10,,,,,,,,13,,,65,66
91380,note_on,0,0,5,,,,,,,,1,,,67,82
91380,note_on,1,0,5,,,,,,,,1,,,55,74
91380,note_on,1,0,2,,,,,,,,6,,,77,70
91380,note_on,1,0,1,,,,,,,,3,,,89,52
91399,note_on,19,0,3,,,,,,,,0,,,53,0
91399,note_on,19,0,2,,,,,,,,6,,,77,0
91399,note_on,19,0,12,,,,,,,,15,,,53,0
91399,note_on,19,0,1,,,,,,,,3,,,89,0
91399,note_on,19,0,9,,,,,,,,12,,,65,0
91399,note_on,19,0,10,,,,,,,,13,,,65,0
91400,note_on,1,0,2,,,,,,,,6,,,76,72
91400,note_on,1,0,12,,,,,,,,15,,,52,60
91400,note_on,1,0,9,,,,,,,,12,,,64,80
91400,note_on,1,0,10,,,,,,,,13,,,64,80
91400,note_on,1,0,1,,,,,,,,3,,,88,78
91400,note_on,1,0,3,,,,,,,,0,,,52,54
91419,note_on,19,0,10,,,,,,,,13,,,64,0
91419,note_on,19,0,3,,,,,,,,0,,,52,0
91419,note_on,19,0,2,,,,,,,,6,,,76,0
91419,note_on,19,0,12,,,,,,,,15,,,52,0
91419,note_on,19,0,9,,,,,,,,12,,,64,0
91419,note_on,19,0,1,,,,,,,,3,,,88,0
91420,note_on,1,0,3,,,,,,,,0,,,50,60
91420,note_on,1,0,10,,,,,,,,13,,,62,68
91420,note_on,1,0,12,,,,,,,,15,,,50,72
91420,note_on,1,0,2,,,,,,,,6,,,74,78
91420,note_on,1,0,1,,,,,,,,3,,,86,76
91420,note_on,1,0,9,,,,,,,,12,,,62,68
91439,note_on,19,0,1,,,,,,,,3,,,86,0
91439,note_on,19,0,12,,,,,,,,15,,,50,0
91439,note_on,59,0,6,,,,,,,,4,,,43,0
91439,note_on,19,0,9,,,,,,,,12,,,62,0
91439,note_on,0,0,5,,,,,,,,1,,,55,0
91439,note_on,19,0,10,,,,,,,,13,,,62,0
91439,note_on,19,0,2,,,,,,,,6,,,74,0
91439,note_on,19,0,3,,,,,,,,0,,,50,0
91439,note_on,59,0,4,,,,,,,,7,,,67,0
91439,note_on,0,0,4,,,,,,,,7,,,55,0
91439,note_on,59,0,5,,,,,,,,1,,,67,0
91440,note_on,1,0,6,,,,,,,,4,,,48,72
91440,note_on,1,0,4,,,,,,,,7,,,60,78
91440,note_on,0,0,4,,,,,,,,7,,,72,80
91440,note_on,1,0,2,,,,,,,,6,,,72,82
91440,note_on,1,0,12,,,,,,,,15,,,48,80
91440,note_on,1,0,10,,,,,,,,13,,,60,82
91440,note_on,1,0,5,,,,,,,,1,,,60,78
91440,note_on,0,0,5,,,,,,,,1,,,72,80
91440,note_on,1,0,1,,,,,,,,3,,,84,85
91440,note_on,1,0,3,,,,,,,,0,,,48,85
91440,note_on,1,0,9,,,,,,,,12,,,60,82
91559,note_on,119,0,3,,,,,,,,0,,,48,0
91559,note_on,119,0,1,,,,,,,,3,,,84,0
91559,note_on,119,0,9,,,,,,,,12,,,60,0
91559,note_on,119,0,6,,,,,,,,4,,,48,0
91559,note_on,119,0,12,,,,,,,,15,,,48,0
91559,note_on,0,0,5,,,,,,,,1,,,60,0
91559,note_on,0,0,4,,,,,,,,7,,,60,0
91559,note_on,119,0,4,,,,,,,,7,,,72,0
91559,note_on,119,0,5,,,,,,,,1,,,72,0
91559,note_on,119,0,2,,,,,,,,6,,,72,0
91559,note_on,119,0,10,,,,,,,,13,,,60,0
91560,note_on,0,0,4,,,,,,,,7,,,67,80
91560,note_on,1,0,4,,,,,,,,7,,,76,87
91560,end_of_track,0,1,0,,,,,,,,,,,,
91560,set_tempo,36480,1,0,,,,,,800000,,,,,,
91560,note_on,1,0,12,,,,,,,,15,,,48,85
91560,note_on,1,0,10,,,,,,,,13,,,55,82
91560,note_on,0,0,2,,,,,,,,6,,,76,87
91560,note_on,1,0,6,,,,,,,,4,,,48,72
91560,note_on,1,0,9,,,,,,,,12,,,64,82
91560,note_on,900,0,11,,,,,,,,14,,,60,85
91560,note_on,0,0,5,,,,,,,,1,,,67,80
91560,note_on,1,0,5,,,,,,,,1,,,76,87
91560,note_on,1,0,3,,,,,,,,0,,,48,85
91560,note_on,1,0,1,,,,,,,,3,,,88,87
91560,note_on,1,0,2,,,,,,,,6,,,79,78
91569,note_on,9,0,9,,,,,,,,12,,,64,0
91569,note_on,9,0,10,,,,,,,,13,,,55,0
91570,note_on,1,0,9,,,,,,,,12,,,72,82
91570,note_on,1,0,10,,,,,,,,13,,,64,82
91579,note_on,9,0,9,,,,,,,,12,,,72,0
91579,note_on,9,0,10,,,,,,,,13,,,64,0
91580,note_on,1,0,9,,,,,,,,12,,,79,76
91580,note_on,1,0,10,,,,,,,,13,,,72,76
91679,note_on,119,0,2,,,,,,,,6,,,76,0
91679,note_on,0,0,2,,,,,,,,6,,,79,0
91679,note_on,119,0,5,,,,,,,,1,,,67,0
91679,note_on,0,0,5,,,,,,,,1,,,76,0
91679,note_on,119,0,11,,,,,,,,14,,,60,0
91679,note_on,119,0,4,,,,,,,,7,,,67,0
91679,note_on,0,0,4,,,,,,,,7,,,76,0
91679,note_on,99,0,9,,,,,,,,12,,,79,0
91679,note_on,119,0,3,,,,,,,,0,,,48,0
91679,note_on,119,0,1,,,,,,,,3,,,88,0
91679,note_on,119,0,6,,,,,,,,4,,,48,0
91679,note_on,99,0,10,,,,,,,,13,,,72,0
91679,note_on,119,0,12,,,,,,,,15,,,48,0
91680,note_on,1,0,11,,,,,,,,14,,,60,82
91680,note_on,0,0,2,,,,,,,,6,,,76,82
91680,note_on,1,0,2,,,,,,,,6,,,79,82
91680,note_on,1,0,10,,,,,,,,13,,,55,82
91680,note_on,0,0,5,,,,,,,,1,,,72,57
91680,note_on,1,0,12,,,,,,,,15,,,48,85
91680,note_on,1,0,9,,,,,,,,12,,,67,82
91680,note_on,1,0,4,,,,,,,,7,,,64,74
91680,note_on,1,0,1,,,,,,,,3,,,84,82
91680,note_on,1,0,6,,,,,,,,4,,,48,70
91680,note_on,1,0,3,,,,,,,,0,,,48,82
91680,note_on,0,0,4,,,,,,,,7,,,72,57
91680,note_on,1,0,5,,,,,,,,1,,,64,74
91689,note_on,9,0,9,,,,,,,,12,,,67,0
91689,note_on,9,0,10,,,,,,,,13,,,55,0
91690,note_on,1,0,10,,,,,,,,13,,,64,87
91690,note_on,1,0,9,,,,,,,,12,,,76,87
91699,note_on,9,0,10,,,,,,,,13,,,64,0
91699,note_on,9,0,9,,,,,,,,12,,,76,0
91700,note_on,1,0,9,,,,,,,,12,,,84,82
91700,note_on,1,0,10,,,,,,,,13,,,72,82
91799,note_on,119,0,4,,,,,,,,7,,,72,0
91799,note_on,0,0,4,,,,,,,,7,,,64,0
91799,end_of_track,0,1,4,,,,,,,,,,,,
91799,note_on,119,0,1,,,,,,,,3,,,84,0
91799,end_of_track,0,1,1,,,,,,,,,,,,
91799,end_of_track,0,1,11,,,,,,,,,,,,
91799,note_on,119,0,11,,,,,,,,14,,,60,0
91799,end_of_track,0,1,10,,,,,,,,,,,,
91799,note_on,119,0,3,,,,,,,,0,,,48,0
91799,note_on,119,0,6,,,,,,,,4,,,48,0
91799,end_of_track,0,1,6,,,,,,,,,,,,
91799,end_of_track,0,1,9,,,,,,,,,,,,
91799,note_on,99,0,9,,,,,,,,12,,,84,0
91799,end_of_track,0,1,2,,,,,,,,,,,,
91799,note_on,0,0,2,,,,,,,,6,,,79,0
91799,end_of_track,0,1,5,,,,,,,,,,,,
91799,note_on,0,0,5,,,,,,,,1,,,64,0
91799,note_on,119,0,5,,,,,,,,1,,,72,0
91799,note_on,119,0,12,,,,,,,,15,,,48,0
91799,end_of_track,0,1,12,,,,,,,,,,,,
91799,end_of_track,0,1,3,,,,,,,,,,,,
91799,note_on,99,0,10,,,,,,,,13,,,72,0
91799,note_on,119,0,2,,,,,,,,6,,,76,0
