,note,step,duration,channel,velocity
0,70.0,23,354,1.0,0.0
1,62.0,0,354,1.0,0.0
2,46.0,48,45,3.0,0.0
3,58.0,0,45,3.0,0.0
4,70.0,12,177,3.0,0.0
5,70.0,0,177,0.0,0.0
6,62.0,4,89,3.0,0.0
7,46.0,44,45,3.0,0.0
8,58.0,0,45,3.0,0.0
9,58.0,0,45,3.0,0.0
10,46.0,36,45,3.0,0.0
11,58.0,44,45,3.0,0.0
12,65.0,4,89,3.0,0.0
13,46.0,0,45,3.0,0.0
14,46.0,44,45,3.0,0.0
15,74.0,4,89,3.0,0.0
16,58.0,0,45,3.0,0.0
17,74.0,0,89,0.0,0.0
18,58.0,44,45,3.0,0.0
19,46.0,0,45,3.0,0.0
20,62.0,4,89,3.0,0.0
21,70.0,0,89,3.0,0.0
22,70.0,4,89,0.0,0.0
23,58.0,21,45,3.0,0.0
24,46.0,0,45,3.0,0.0
25,65.0,0,93,3.0,0.0
26,46.0,0,45,3.0,0.0
27,58.0,48,45,3.0,0.0
28,72.0,12,177,1.0,0.0
29,57.0,48,45,3.0,0.0
30,45.0,0,45,3.0,0.0
31,77.0,0,163,3.0,0.0
32,65.0,0,177,1.0,0.0
33,77.0,14,163,0.0,0.0
34,57.0,44,45,3.0,0.0
35,45.0,0,45,3.0,0.0
36,65.0,4,89,3.0,0.0
37,45.0,22,45,3.0,0.0
38,57.0,0,45,3.0,0.0
39,57.0,0,45,3.0,0.0
40,72.0,4,89,3.0,0.0
41,45.0,2,45,3.0,0.0
42,79.0,0,23,3.0,0.0
43,79.0,40,23,0.0,0.0
44,77.0,4,89,3.0,0.0
45,72.0,0,89,1.0,0.0
46,65.0,0,89,1.0,0.0
47,45.0,0,45,3.0,0.0
48,77.0,2,39,0.0,0.0
49,57.0,44,45,3.0,0.0
50,45.0,44,45,3.0,0.0
51,57.0,0,45,3.0,0.0
52,69.0,4,89,3.0,0.0
53,57.0,0,45,3.0,0.0
54,45.0,48,45,3.0,0.0
55,57.0,0,45,3.0,0.0
56,72.0,0,45,3.0,0.0
57,77.0,0,45,3.0,0.0
58,45.0,48,45,3.0,0.0
59,75.0,12,177,3.0,0.0
60,55.0,0,45,3.0,0.0
61,70.0,48,45,3.0,0.0
62,43.0,0,45,3.0,0.0
63,43.0,48,45,3.0,0.0
64,70.0,0,45,3.0,0.0
65,67.0,0,45,3.0,0.0
66,67.0,0,45,3.0,0.0
67,70.0,0,45,3.0,0.0
68,43.0,36,45,3.0,0.0
69,43.0,48,45,3.0,0.0
70,70.0,0,45,3.0,0.0
71,67.0,0,45,3.0,0.0
72,41.0,0,45,3.0,0.0
73,69.0,0,45,3.0,0.0
74,65.0,44,45,3.0,0.0
75,74.0,4,89,3.0,0.0
76,69.0,48,45,3.0,0.0
77,65.0,0,45,3.0,0.0
78,41.0,0,45,3.0,0.0
79,79.0,4,89,3.0,0.0
80,67.0,0,45,3.0,0.0
81,63.0,0,45,3.0,0.0
82,39.0,44,45,3.0,0.0
83,67.0,0,45,3.0,0.0
84,63.0,48,45,3.0,0.0
85,39.0,0,45,3.0,0.0
86,70.0,4,89,3.0,0.0
87,41.0,44,45,3.0,0.0
88,62.0,0,45,3.0,0.0
89,65.0,0,45,3.0,0.0
90,62.0,0,45,3.0,0.0
91,65.0,0,45,3.0,0.0
92,41.0,48,45,3.0,0.0
93,39.0,0,45,3.0,0.0
94,69.0,4,89,3.0,0.0
95,65.0,0,45,3.0,0.0
96,60.0,44,45,3.0,0.0
97,60.0,48,45,3.0,0.0
98,65.0,0,45,3.0,0.0
99,39.0,0,45,3.0,0.0
100,38.0,4,89,3.0,0.0
101,65.0,0,45,3.0,0.0
102,58.0,44,45,3.0,0.0
103,70.0,0,41,3.0,0.0
104,70.0,0,45,0.0,0.0
105,72.0,0,45,0.0,0.0
106,69.0,0,45,3.0,0.0
107,72.0,48,45,3.0,0.0
108,69.0,0,45,0.0,0.0
109,70.0,9,45,0.0,0.0
110,70.0,0,45,3.0,0.0
111,74.0,0,45,3.0,0.0
112,74.0,0,45,0.0,0.0
113,67.0,39,6,3.0,0.0
114,75.0,4,89,0.0,0.0
115,72.0,0,89,0.0,0.0
116,72.0,0,45,3.0,0.0
117,36.0,44,45,3.0,0.0
118,75.0,0,39,3.0,0.0
119,63.0,0,89,3.0,0.0
120,36.0,44,45,3.0,0.0
121,67.0,4,89,3.0,0.0
122,36.0,44,45,3.0,0.0
123,67.0,4,89,0.0,0.0
124,75.0,4,133,3.0,0.0
125,72.0,0,89,0.0,0.0
126,72.0,0,89,3.0,0.0
127,67.0,4,89,3.0,0.0
128,36.0,40,45,3.0,0.0
129,48.0,44,45,3.0,0.0
130,75.0,0,89,0.0,0.0
131,72.0,4,89,0.0,0.0
132,63.0,4,89,3.0,0.0
133,60.0,0,89,3.0,0.0
134,48.0,0,45,3.0,0.0
135,79.0,44,45,3.0,0.0
136,48.0,23,45,3.0,0.0
137,75.0,0,89,0.0,0.0
138,75.0,0,45,3.0,0.0
139,79.0,4,89,0.0,0.0
140,63.0,48,45,3.0,0.0
141,72.0,21,20,3.0,0.0
142,48.0,0,45,3.0,0.0
143,67.0,0,45,3.0,0.0
144,41.0,0,45,3.0,0.0
145,70.0,0,45,3.0,0.0
146,63.0,0,45,3.0,0.0
147,60.0,44,45,3.0,0.0
148,65.0,4,89,1.0,0.0
149,41.0,0,45,3.0,0.0
150,63.0,0,89,3.0,0.0
151,72.0,4,89,3.0,0.0
152,69.0,44,45,3.0,0.0
153,69.0,0,89,0.0,0.0
154,72.0,0,177,1.0,0.0
155,65.0,8,177,1.0,0.0
156,41.0,44,45,3.0,0.0
157,72.0,4,89,0.0,0.0
158,69.0,4,85,3.0,0.0
159,75.0,4,89,3.0,0.0
160,41.0,40,45,3.0,0.0
161,41.0,36,45,3.0,0.0
162,75.0,4,89,0.0,0.0
163,81.0,0,89,0.0,0.0
164,81.0,0,45,3.0,0.0
165,63.0,0,45,3.0,0.0
166,60.0,48,45,3.0,0.0
167,41.0,0,45,3.0,0.0
168,82.0,0,89,0.0,0.0
169,82.0,0,45,3.0,0.0
170,74.0,0,89,0.0,0.0
171,62.0,0,45,3.0,0.0
172,34.0,0,45,3.0,0.0
173,58.0,23,45,3.0,0.0
174,70.0,4,89,1.0,0.0
175,74.0,0,89,1.0,0.0
176,74.0,0,45,3.0,0.0
177,77.0,0,20,3.0,0.0
178,34.0,48,45,3.0,0.0
179,70.0,21,20,3.0,0.0
180,39.0,0,45,3.0,0.0
181,58.0,0,89,1.0,0.0
182,70.0,4,89,1.0,0.0
183,74.0,0,45,3.0,0.0
184,70.0,44,45,3.0,0.0
185,78.0,0,45,3.0,0.0
186,58.0,0,45,3.0,0.0
187,75.0,0,45,3.0,0.0
188,79.0,26,45,3.0,0.0
189,39.0,0,45,3.0,0.0
190,39.0,0,45,3.0,0.0
191,75.0,4,89,0.0,0.0
192,72.0,0,89,0.0,0.0
193,75.0,22,23,3.0,0.0
194,67.0,0,23,3.0,0.0
195,63.0,2,21,3.0,0.0
196,72.0,24,23,3.0,0.0
197,75.0,0,23,3.0,0.0
198,60.0,2,45,3.0,0.0
199,67.0,18,23,3.0,0.0
200,39.0,0,45,3.0,0.0
201,63.0,40,23,3.0,0.0
202,72.0,0,23,3.0,0.0
203,65.0,44,45,3.0,0.0
204,41.0,0,89,3.0,0.0
205,65.0,0,89,1.0,0.0
206,70.0,0,39,3.0,0.0
207,70.0,0,89,0.0,0.0
208,62.0,6,39,3.0,0.0
209,74.0,4,89,0.0,0.0
210,65.0,42,45,3.0,0.0
211,69.0,6,39,3.0,0.0
212,29.0,0,89,3.0,0.0
213,65.0,0,89,1.0,0.0
214,72.0,0,39,3.0,0.0
215,69.0,0,89,0.0,0.0
216,65.0,23,45,3.0,0.0
217,72.0,75,89,0.0,0.0
218,65.0,21,20,3.0,0.0
219,72.0,8,133,3.0,0.0
220,69.0,12,177,3.0,0.0
221,65.0,25,20,3.0,0.0
222,65.0,0,45,1.0,0.0
223,65.0,0,45,1.0,0.0
224,65.0,17,20,3.0,0.0
225,73.0,0,45,3.0,0.0
226,65.0,13,20,3.0,0.0
227,65.0,0,45,1.0,0.0
228,70.0,0,20,1.0,0.0
229,74.0,29,39,3.0,0.0
230,70.0,0,20,3.0,0.0
231,65.0,0,20,3.0,0.0
232,65.0,0,20,1.0,0.0
233,62.0,48,20,3.0,0.0
234,62.0,0,20,1.0,0.0
235,58.0,0,20,1.0,0.0
236,58.0,34,20,3.0,0.0
237,67.0,39,6,3.0,0.0
238,75.0,0,89,0.0,0.0
239,63.0,4,89,3.0,0.0
240,67.0,0,89,0.0,0.0
241,55.0,0,89,3.0,0.0
242,36.0,44,45,3.0,0.0
243,60.0,0,45,3.0,0.0
244,75.0,0,83,3.0,0.0
245,60.0,0,45,3.0,0.0
246,36.0,48,45,3.0,0.0
247,60.0,48,45,3.0,0.0
248,72.0,31,133,0.0,0.0
249,75.0,0,133,0.0,0.0
250,75.0,0,133,3.0,0.0
251,36.0,0,45,3.0,0.0
252,63.0,0,133,3.0,0.0
253,36.0,0,45,3.0,0.0
254,60.0,23,45,3.0,0.0
255,48.0,17,20,3.0,0.0
256,60.0,0,20,3.0,0.0
257,62.0,25,20,3.0,0.0
258,77.0,0,45,3.0,0.0
259,58.0,0,45,1.0,0.0
260,50.0,0,20,3.0,0.0
261,65.0,23,45,3.0,0.0
262,70.0,0,45,0.0,0.0
263,70.0,0,45,1.0,0.0
264,77.0,0,45,0.0,0.0
265,58.0,0,45,1.0,0.0
266,70.0,0,45,1.0,0.0
267,79.0,23,45,0.0,0.0
268,51.0,25,20,3.0,0.0
269,70.0,0,45,0.0,0.0
270,79.0,0,45,3.0,0.0
271,63.0,0,20,3.0,0.0
272,67.0,0,45,3.0,0.0
273,75.0,0,45,0.0,0.0
274,65.0,0,45,1.0,0.0
275,60.0,0,20,3.0,0.0
276,81.0,0,45,3.0,0.0
277,69.0,0,45,3.0,0.0
278,48.0,25,20,3.0,0.0
279,81.0,42,45,0.0,0.0
280,77.0,0,39,0.0,0.0
281,70.0,0,89,1.0,0.0
282,58.0,6,89,1.0,0.0
283,50.0,0,39,3.0,0.0
284,65.0,0,39,3.0,0.0
285,82.0,6,39,0.0,0.0
286,82.0,26,45,3.0,0.0
287,70.0,0,45,3.0,0.0
288,74.0,0,23,3.0,0.0
289,86.0,18,23,3.0,0.0
290,82.0,40,23,3.0,0.0
291,70.0,0,23,3.0,0.0
292,63.0,0,39,3.0,0.0
293,79.0,26,45,3.0,0.0
294,75.0,0,39,0.0,0.0
295,67.0,0,45,3.0,0.0
296,58.0,0,89,1.0,0.0
297,70.0,6,89,1.0,0.0
298,51.0,6,39,3.0,0.0
299,79.0,0,39,0.0,0.0
300,70.0,0,23,3.0,0.0
301,82.0,18,23,3.0,0.0
302,67.0,0,23,3.0,0.0
303,79.0,46,23,3.0,0.0
304,63.0,26,45,3.0,0.0
305,75.0,0,45,3.0,0.0
306,67.0,0,23,3.0,0.0
307,79.0,24,23,3.0,0.0
308,63.0,0,23,3.0,0.0
309,75.0,46,23,3.0,0.0
310,60.0,26,45,3.0,0.0
311,72.0,0,45,3.0,0.0
312,75.0,0,23,3.0,0.0
313,63.0,24,23,3.0,0.0
314,72.0,46,23,3.0,0.0
315,60.0,0,23,3.0,0.0
316,77.0,44,45,3.0,0.0
317,58.0,0,89,3.0,0.0
318,38.0,4,89,3.0,0.0
319,76.0,48,45,3.0,0.0
320,67.0,0,177,3.0,0.0
321,70.0,3,177,3.0,0.0
322,43.0,4,89,3.0,0.0
323,75.0,44,45,3.0,0.0
324,74.0,15,45,3.0,0.0
325,39.0,7,89,3.0,0.0
326,72.0,12,12,3.0,0.0
327,74.0,12,12,3.0,0.0
328,72.0,12,12,3.0,0.0
329,74.0,12,12,3.0,0.0
330,72.0,12,12,3.0,0.0
331,74.0,9,12,3.0,0.0
332,72.0,5,12,3.0,0.0
333,74.0,12,12,3.0,0.0
334,69.0,4,89,3.0,0.0
335,65.0,3,45,3.0,0.0
336,41.0,0,89,3.0,0.0
337,72.0,12,12,3.0,0.0
338,74.0,12,12,3.0,0.0
339,72.0,9,12,3.0,0.0
340,74.0,12,12,3.0,0.0
341,72.0,12,12,3.0,0.0
342,63.0,26,45,3.0,0.0
343,74.0,9,12,3.0,0.0
344,72.0,8,9,3.0,0.0
345,34.0,2,45,3.0,0.0
346,58.0,0,1033,1.0,0.0
347,70.0,0,89,0.0,0.0
348,82.0,20,649,0.0,0.0
349,70.0,22,23,3.0,0.0
350,70.0,8,1033,1.0,0.0
351,65.0,24,23,3.0,0.0
352,62.0,18,23,3.0,0.0
353,34.0,2,45,3.0,0.0
354,65.0,21,23,3.0,0.0
355,74.0,0,20,0.0,0.0
356,74.0,25,20,3.0,0.0
357,34.0,23,45,3.0,0.0
358,58.0,0,20,3.0,0.0
359,58.0,0,20,3.0,0.0
360,34.0,48,45,3.0,0.0
361,74.0,25,20,0.0,0.0
362,74.0,0,20,3.0,0.0
363,34.0,48,45,3.0,0.0
364,59.0,0,45,3.0,0.0
365,74.0,0,45,0.0,0.0
366,74.0,0,45,3.0,0.0
367,75.0,0,45,3.0,0.0
368,60.0,0,45,3.0,0.0
369,34.0,23,45,3.0,0.0
370,75.0,0,45,0.0,0.0
371,75.0,0,20,0.0,0.0
372,75.0,25,20,3.0,0.0
373,34.0,23,45,3.0,0.0
374,60.0,0,20,3.0,0.0
375,75.0,0,20,0.0,0.0
376,34.0,48,45,3.0,0.0
377,60.0,0,20,3.0,0.0
378,75.0,25,20,3.0,0.0
379,34.0,0,45,3.0,0.0
380,61.0,0,45,3.0,0.0
381,76.0,0,45,3.0,0.0
382,76.0,0,45,0.0,0.0
383,77.0,0,45,0.0,0.0
384,34.0,0,45,3.0,0.0
385,62.0,0,45,3.0,0.0
386,77.0,23,45,3.0,0.0
387,77.0,0,20,3.0,0.0
388,62.0,0,20,3.0,0.0
389,77.0,25,20,0.0,0.0
390,34.0,23,45,3.0,0.0
391,77.0,0,20,0.0,0.0
392,62.0,0,20,3.0,0.0
393,77.0,0,20,3.0,0.0
394,34.0,48,45,3.0,0.0
395,34.0,28,45,3.0,0.0
396,78.0,0,45,0.0,0.0
397,62.0,0,45,3.0,0.0
398,78.0,0,45,3.0,0.0
399,79.0,0,45,3.0,0.0
400,34.0,0,45,3.0,0.0
401,63.0,0,45,3.0,0.0
402,79.0,0,45,0.0,0.0
403,79.0,0,45,3.0,0.0
404,34.0,0,45,3.0,0.0
405,63.0,0,45,3.0,0.0
406,79.0,0,45,0.0,0.0
407,75.0,4,89,0.0,0.0
408,81.0,23,45,3.0,0.0
409,60.0,0,45,3.0,0.0
410,34.0,0,45,3.0,0.0
411,81.0,0,45,0.0,0.0
412,82.0,4,89,0.0,0.0
413,34.0,0,45,3.0,0.0
414,82.0,44,45,3.0,0.0
415,62.0,25,20,3.0,0.0
416,74.0,0,45,0.0,0.0
417,80.0,0,45,3.0,0.0
418,62.0,44,45,3.0,0.0
419,70.0,4,89,3.0,0.0
420,41.0,0,45,3.0,0.0
421,80.0,0,45,0.0,0.0
422,39.0,23,45,3.0,0.0
423,79.0,0,45,3.0,0.0
424,79.0,0,45,0.0,0.0
425,63.0,0,45,3.0,0.0
426,70.0,1,177,0.0,0.0
427,70.0,4,89,3.0,0.0
428,58.0,25,20,3.0,0.0
429,38.0,0,45,3.0,0.0
430,78.0,0,45,0.0,0.0
431,78.0,26,45,3.0,0.0
432,39.0,2,45,3.0,0.0
433,79.0,4,89,0.0,0.0
434,79.0,18,23,3.0,0.0
435,58.0,0,45,3.0,0.0
436,77.0,11,23,3.0,0.0
437,67.0,4,89,3.0,0.0
438,63.0,0,45,3.0,0.0
439,39.0,26,45,3.0,0.0
440,75.0,15,10,3.0,0.0
441,74.0,7,10,3.0,0.0
442,70.0,0,89,1.0,0.0
443,70.0,0,89,0.0,0.0
444,64.0,0,45,3.0,0.0
445,72.0,18,23,3.0,0.0
446,67.0,4,89,0.0,0.0
447,40.0,2,45,3.0,0.0
448,72.0,0,89,1.0,0.0
449,70.0,11,23,3.0,0.0
450,60.0,0,45,3.0,0.0
451,40.0,48,45,3.0,0.0
452,67.0,0,45,3.0,0.0
453,69.0,24,10,3.0,0.0
454,70.0,7,10,3.0,0.0
455,69.0,44,45,3.0,0.0
456,41.0,4,89,3.0,0.0
457,65.0,0,45,0.0,0.0
458,60.0,0,45,3.0,0.0
459,69.0,0,45,0.0,0.0
460,65.0,0,45,1.0,0.0
461,72.0,0,45,1.0,0.0
462,65.0,0,45,3.0,0.0
463,81.0,0,89,3.0,0.0
464,72.0,4,89,3.0,0.0
465,81.0,0,89,0.0,0.0
466,75.0,0,89,3.0,0.0
467,65.0,44,45,1.0,0.0
468,75.0,0,89,0.0,0.0
469,65.0,48,45,1.0,0.0
470,65.0,44,45,1.0,0.0
471,70.0,0,89,3.0,0.0
472,82.0,13,89,0.0,0.0
473,74.0,0,89,3.0,0.0
474,74.0,0,89,0.0,0.0
475,82.0,0,89,3.0,0.0
476,65.0,0,237,1.0,0.0
477,79.0,14,6,3.0,0.0
478,58.0,25,20,3.0,0.0
479,53.0,0,45,3.0,0.0
480,74.0,9,45,3.0,0.0
481,74.0,0,45,0.0,0.0
482,77.0,0,45,0.0,0.0
483,77.0,0,39,3.0,0.0
484,77.0,0,45,3.0,0.0
485,79.0,0,6,0.0,0.0
486,75.0,0,6,0.0,0.0
487,62.0,25,20,3.0,0.0
488,75.0,14,6,3.0,0.0
489,53.0,0,45,3.0,0.0
490,74.0,23,39,0.0,0.0
491,77.0,0,39,0.0,0.0
492,74.0,0,39,3.0,0.0
493,65.0,3,20,3.0,0.0
494,53.0,2,45,3.0,0.0
495,75.0,0,23,0.0,0.0
496,72.0,0,23,3.0,0.0
497,75.0,22,23,3.0,0.0
498,72.0,0,23,0.0,0.0
499,74.0,0,23,0.0,0.0
500,74.0,0,23,3.0,0.0
501,70.0,46,23,3.0,0.0
502,70.0,0,23,0.0,0.0
503,72.0,44,45,0.0,0.0
504,69.0,0,45,0.0,0.0
505,53.0,0,45,3.0,0.0
506,69.0,0,45,3.0,0.0
507,41.0,4,89,3.0,0.0
508,72.0,0,45,3.0,0.0
509,72.0,0,89,3.0,0.0
510,75.0,0,89,0.0,0.0
511,81.0,4,89,0.0,0.0
512,75.0,0,89,3.0,0.0
513,65.0,44,45,1.0,0.0
514,81.0,0,89,3.0,0.0
515,65.0,48,45,1.0,0.0
516,74.0,0,89,0.0,0.0
517,82.0,0,89,0.0,0.0
518,70.0,0,89,3.0,0.0
519,65.0,44,45,1.0,0.0
520,74.0,0,89,3.0,0.0
521,82.0,13,89,3.0,0.0
522,65.0,0,281,1.0,0.0
523,74.0,0,45,3.0,0.0
524,79.0,0,6,0.0,0.0
525,77.0,9,45,3.0,0.0
526,58.0,25,20,3.0,0.0
527,53.0,0,45,3.0,0.0
528,75.0,14,6,0.0,0.0
529,77.0,0,39,0.0,0.0
530,74.0,0,39,0.0,0.0
531,77.0,0,45,3.0,0.0
532,53.0,0,45,3.0,0.0
533,74.0,0,45,0.0,0.0
534,62.0,25,20,3.0,0.0
535,75.0,14,6,3.0,0.0
536,77.0,23,45,0.0,0.0
537,74.0,0,39,3.0,0.0
538,75.0,22,23,0.0,0.0
539,72.0,0,23,0.0,0.0
540,75.0,0,23,3.0,0.0
541,72.0,0,23,3.0,0.0
542,65.0,3,20,3.0,0.0
543,53.0,2,45,3.0,0.0
544,70.0,0,23,0.0,0.0
545,74.0,0,23,0.0,0.0
546,74.0,90,23,3.0,0.0
547,70.0,0,23,3.0,0.0
548,69.0,0,89,3.0,0.0
549,72.0,140,89,0.0,0.0
550,41.0,0,89,3.0,0.0
551,72.0,0,89,3.0,0.0
552,69.0,0,89,0.0,0.0
553,53.0,0,89,3.0,0.0
554,65.0,56,133,3.0,0.0
555,57.0,44,133,3.0,0.0
556,39.0,12,177,3.0,0.0
557,51.0,0,177,3.0,0.0
558,67.0,40,45,3.0,0.0
559,65.0,48,141,3.0,0.0
560,60.0,48,45,3.0,0.0
561,38.0,0,177,3.0,0.0
562,50.0,12,177,3.0,0.0
563,58.0,44,133,3.0,0.0
564,67.0,40,45,3.0,0.0
565,65.0,56,133,3.0,0.0
566,62.0,40,45,3.0,0.0
567,33.0,12,177,3.0,0.0
568,57.0,0,177,3.0,0.0
569,60.0,44,133,3.0,0.0
570,77.0,40,45,3.0,0.0
571,75.0,48,141,3.0,0.0
572,72.0,48,45,3.0,0.0
573,65.0,44,133,3.0,0.0
574,34.0,12,177,3.0,0.0
575,58.0,0,177,3.0,0.0
576,77.0,40,45,3.0,0.0
577,74.0,56,133,3.0,0.0
578,62.0,40,45,3.0,0.0
579,67.0,44,133,3.0,0.0
580,51.0,12,177,3.0,0.0
581,39.0,0,177,3.0,0.0
582,75.0,40,45,3.0,0.0
583,72.0,48,141,3.0,0.0
584,63.0,48,45,3.0,0.0
585,53.0,12,177,3.0,0.0
586,41.0,0,177,3.0,0.0
587,62.0,44,133,3.0,0.0
588,74.0,40,45,3.0,0.0
589,70.0,56,133,3.0,0.0
590,65.0,40,45,3.0,0.0
591,63.0,44,133,3.0,0.0
592,41.0,8,177,3.0,0.0
593,53.0,0,177,3.0,0.0
594,72.0,40,45,3.0,0.0
595,69.0,4,89,3.0,0.0
596,60.0,13,45,3.0,0.0
597,53.0,13,45,3.0,0.0
598,34.0,0,45,3.0,0.0
599,62.0,10,10,3.0,0.0
600,70.0,14,20,3.0,0.0
601,65.0,11,10,3.0,0.0
602,62.0,24,10,3.0,0.0
603,65.0,24,10,3.0,0.0
604,62.0,24,10,3.0,0.0
605,70.0,13,45,3.0,0.0
606,65.0,11,10,3.0,0.0
607,62.0,24,10,3.0,0.0
608,69.0,13,45,3.0,0.0
609,65.0,11,10,3.0,0.0
610,57.0,13,45,3.0,0.0
611,62.0,10,10,3.0,0.0
612,72.0,14,20,3.0,0.0
613,41.0,0,45,3.0,0.0
614,65.0,11,10,3.0,0.0
615,62.0,24,10,3.0,0.0
616,65.0,24,10,3.0,0.0
617,72.0,13,45,3.0,0.0
618,62.0,24,10,3.0,0.0
619,65.0,11,10,3.0,0.0
620,62.0,24,10,3.0,0.0
621,70.0,23,45,3.0,0.0
622,65.0,11,10,3.0,0.0
623,74.0,3,20,3.0,0.0
624,58.0,0,45,3.0,0.0
625,62.0,22,23,3.0,0.0
626,46.0,2,45,3.0,0.0
627,65.0,24,23,3.0,0.0
628,62.0,24,23,3.0,0.0
629,65.0,24,23,3.0,0.0
630,74.0,2,45,3.0,0.0
631,58.0,22,23,3.0,0.0
632,65.0,24,23,3.0,0.0
633,72.0,2,45,3.0,0.0
634,58.0,22,23,3.0,0.0
635,65.0,21,23,3.0,0.0
636,45.0,0,45,3.0,0.0
637,84.0,0,177,0.0,0.0
638,75.0,3,20,3.0,0.0
639,65.0,0,177,1.0,0.0
640,72.0,0,177,1.0,0.0
641,75.0,12,177,0.0,0.0
642,60.0,22,23,3.0,0.0
643,69.0,2,45,3.0,0.0
644,65.0,21,23,3.0,0.0
645,69.0,2,45,3.0,0.0
646,45.0,0,45,3.0,0.0
647,60.0,22,23,3.0,0.0
648,75.0,3,20,3.0,0.0
649,65.0,7,23,3.0,0.0
650,77.0,17,6,3.0,0.0
651,69.0,0,45,3.0,0.0
652,45.0,0,45,3.0,0.0
653,60.0,22,23,3.0,0.0
654,75.0,2,39,3.0,0.0
655,65.0,24,23,3.0,0.0
656,74.0,0,23,3.0,0.0
657,69.0,2,45,3.0,0.0
658,63.0,10,23,3.0,0.0
659,45.0,0,45,3.0,0.0
660,65.0,21,23,3.0,0.0
661,72.0,0,23,3.0,0.0
662,70.0,3,20,3.0,0.0
663,70.0,2,45,1.0,0.0
664,58.0,0,45,1.0,0.0
665,74.0,0,45,0.0,0.0
666,46.0,0,45,3.0,0.0
667,82.0,0,45,0.0,0.0
668,62.0,22,23,3.0,0.0
669,65.0,24,23,3.0,0.0
670,62.0,24,23,3.0,0.0
671,65.0,24,23,3.0,0.0
672,70.0,0,23,3.0,0.0
673,62.0,24,23,3.0,0.0
674,69.0,0,23,3.0,0.0
675,65.0,24,23,3.0,0.0
676,70.0,0,23,3.0,0.0
677,62.0,24,23,3.0,0.0
678,69.0,21,23,3.0,0.0
679,65.0,0,23,3.0,0.0
680,57.0,0,45,3.0,0.0
681,63.0,22,23,3.0,0.0
682,41.0,2,45,3.0,0.0
683,72.0,3,20,3.0,0.0
684,65.0,24,23,3.0,0.0
685,63.0,24,23,3.0,0.0
686,65.0,24,23,3.0,0.0
687,72.0,0,23,3.0,0.0
688,63.0,24,23,3.0,0.0
689,65.0,0,23,3.0,0.0
690,70.0,24,23,3.0,0.0
691,63.0,0,23,3.0,0.0
692,72.0,24,23,3.0,0.0
693,70.0,21,23,3.0,0.0
694,65.0,0,23,3.0,0.0
695,34.0,2,45,3.0,0.0
696,58.0,0,45,3.0,0.0
697,62.0,22,23,3.0,0.0
698,74.0,3,20,3.0,0.0
699,65.0,24,23,3.0,0.0
700,62.0,24,23,3.0,0.0
701,65.0,24,23,3.0,0.0
702,74.0,0,23,3.0,0.0
703,58.0,24,23,3.0,0.0
704,72.0,0,23,3.0,0.0
705,65.0,24,23,3.0,0.0
706,74.0,0,23,3.0,0.0
707,58.0,24,23,3.0,0.0
708,72.0,24,23,3.0,0.0
709,65.0,0,23,3.0,0.0
710,75.0,2,45,3.0,0.0
711,84.0,0,192,0.0,0.0
712,75.0,0,192,0.0,0.0
713,60.0,22,23,3.0,0.0
714,69.0,0,45,3.0,0.0
715,65.0,45,192,1.0,0.0
716,72.0,0,192,1.0,0.0
717,45.0,0,45,3.0,0.0
718,65.0,24,23,3.0,0.0
719,75.0,0,45,3.0,0.0
720,60.0,22,23,3.0,0.0
721,45.0,0,45,3.0,0.0
722,69.0,2,45,3.0,0.0
723,65.0,7,23,3.0,0.0
724,77.0,17,6,3.0,0.0
725,60.0,22,23,3.0,0.0
726,69.0,2,45,3.0,0.0
727,45.0,0,45,3.0,0.0
728,75.0,0,39,3.0,0.0
729,65.0,24,23,3.0,0.0
730,63.0,0,23,3.0,0.0
731,74.0,22,23,3.0,0.0
732,69.0,2,45,3.0,0.0
733,45.0,0,45,3.0,0.0
734,65.0,1,23,3.0,0.0
735,72.0,0,23,3.0,0.0
736,74.0,0,45,0.0,0.0
737,82.0,0,45,0.0,0.0
738,46.0,0,45,3.0,0.0
739,58.0,0,45,1.0,0.0
740,70.0,0,45,3.0,0.0
741,70.0,96,45,1.0,0.0
742,62.0,0,45,3.0,0.0
743,70.0,0,45,3.0,0.0
744,82.0,48,45,3.0,0.0
745,80.0,0,45,3.0,0.0
746,68.0,48,45,3.0,0.0
747,66.0,48,45,3.0,0.0
748,78.0,0,45,3.0,0.0
749,79.0,48,45,3.0,0.0
750,67.0,0,45,3.0,0.0
751,64.0,0,45,3.0,0.0
752,76.0,48,45,3.0,0.0
753,77.0,0,45,3.0,0.0
754,65.0,48,45,3.0,0.0
755,62.0,48,45,3.0,0.0
756,74.0,0,45,3.0,0.0
757,75.0,0,45,3.0,0.0
758,63.0,48,45,3.0,0.0
759,61.0,0,45,3.0,0.0
760,73.0,48,45,3.0,0.0
761,62.0,0,45,3.0,0.0
762,74.0,48,45,3.0,0.0
763,41.0,0,45,3.0,0.0
764,68.0,0,45,3.0,0.0
765,80.0,0,45,0.0,0.0
766,83.0,0,45,0.0,0.0
767,62.0,0,45,3.0,0.0
768,71.0,48,45,3.0,0.0
769,73.0,0,45,3.0,0.0
770,39.0,0,45,3.0,0.0
771,63.0,0,45,3.0,0.0
772,79.0,0,45,0.0,0.0
773,67.0,0,45,3.0,0.0
774,84.0,48,45,0.0,0.0
775,78.0,48,45,3.0,0.0
776,79.0,48,45,3.0,0.0
777,60.0,0,45,3.0,0.0
778,81.0,0,45,0.0,0.0
779,66.0,48,45,3.0,0.0
780,78.0,0,45,0.0,0.0
781,69.0,0,45,3.0,0.0
782,39.0,0,45,3.0,0.0
783,82.0,0,45,0.0,0.0
784,62.0,0,45,3.0,0.0
785,38.0,48,45,3.0,0.0
786,70.0,0,45,3.0,0.0
787,65.0,0,45,3.0,0.0
788,77.0,0,45,0.0,0.0
789,76.0,48,45,3.0,0.0
790,77.0,42,45,3.0,0.0
791,70.0,0,67,3.0,0.0
792,82.0,28,39,0.0,0.0
793,70.0,0,39,1.0,0.0
794,46.0,0,67,3.0,0.0
795,70.0,0,39,0.0,0.0
796,58.0,0,39,1.0,0.0
797,82.0,0,67,3.0,0.0
798,82.0,40,23,3.0,0.0
799,70.0,0,23,3.0,0.0
800,46.0,0,23,3.0,0.0
801,74.0,0,67,3.0,0.0
802,74.0,0,39,0.0,0.0
803,50.0,28,67,3.0,0.0
804,86.0,0,67,3.0,0.0
805,62.0,0,39,1.0,0.0
806,74.0,0,39,1.0,0.0
807,86.0,28,39,0.0,0.0
808,50.0,0,23,3.0,0.0
809,86.0,0,23,3.0,0.0
810,74.0,0,23,3.0,0.0
811,77.0,0,89,1.0,0.0
812,53.0,0,89,3.0,0.0
813,65.0,0,89,1.0,0.0
814,77.0,0,89,3.0,0.0
815,77.0,0,89,0.0,0.0
816,65.0,74,89,3.0,0.0
817,74.0,0,67,1.0,0.0
818,62.0,0,67,1.0,0.0
819,74.0,0,67,3.0,0.0
820,74.0,0,67,0.0,0.0
821,50.0,0,67,3.0,0.0
822,62.0,0,67,3.0,0.0
823,46.0,0,23,3.0,0.0
824,70.0,0,23,3.0,0.0
825,58.0,0,23,1.0,0.0
826,70.0,0,23,1.0,0.0
827,58.0,0,23,3.0,0.0
828,70.0,0,23,0.0,0.0
829,65.0,0,89,3.0,0.0
830,77.0,0,89,3.0,0.0
831,77.0,0,89,1.0,0.0
832,77.0,0,89,0.0,0.0
833,65.0,0,89,1.0,0.0
834,53.0,0,89,3.0,0.0
835,65.0,0,89,1.0,0.0
836,41.0,0,89,3.0,0.0
837,65.0,0,89,3.0,0.0
838,53.0,0,89,3.0,0.0
839,53.0,96,89,1.0,0.0
840,65.0,0,89,0.0,0.0
841,70.0,0,89,1.0,0.0
842,62.0,0,89,3.0,0.0
843,70.0,0,89,3.0,0.0
844,58.0,0,89,3.0,0.0
845,46.0,0,89,3.0,0.0
846,58.0,0,89,1.0,0.0
847,70.0,0,89,0.0,0.0
848,70.0,0,133,3.0,0.0
849,62.0,21,133,3.0,0.0
850,65.0,1,177,3.0,0.0
851,41.0,0,177,3.0,0.0
852,65.0,0,177,1.0,0.0
853,60.0,24,10,3.0,0.0
854,69.0,0,10,3.0,0.0
855,62.0,24,10,3.0,0.0
856,70.0,0,10,3.0,0.0
857,63.0,13,10,3.0,0.0
858,72.0,11,23,3.0,0.0
859,75.0,96,89,0.0,0.0
860,69.0,0,89,0.0,0.0
861,69.0,11,23,3.0,0.0
862,60.0,13,10,3.0,0.0
863,63.0,0,10,3.0,0.0
864,72.0,23,10,3.0,0.0
865,60.0,7,10,3.0,0.0
866,69.0,0,10,3.0,0.0
867,70.0,0,89,3.0,0.0
868,70.0,0,89,1.0,0.0
869,36.0,0,89,3.0,0.0
870,74.0,0,89,0.0,0.0
871,58.0,0,89,3.0,0.0
872,62.0,0,89,1.0,0.0
873,62.0,140,89,3.0,0.0
874,70.0,0,89,0.0,0.0
875,74.0,0,133,3.0,0.0
876,62.0,21,133,3.0,0.0
877,65.0,0,177,1.0,0.0
878,43.0,0,177,3.0,0.0
879,65.0,0,37,3.0,0.0
880,72.0,24,10,3.0,0.0
881,69.0,0,10,3.0,0.0
882,70.0,24,10,3.0,0.0
883,74.0,0,10,3.0,0.0
884,72.0,13,10,3.0,0.0
885,75.0,46,89,0.0,0.0
886,75.0,11,23,3.0,0.0
887,81.0,0,89,0.0,0.0
888,72.0,11,23,3.0,0.0
889,69.0,13,10,3.0,0.0
890,72.0,23,10,3.0,0.0
891,75.0,0,10,3.0,0.0
892,72.0,0,10,3.0,0.0
893,69.0,7,10,3.0,0.0
894,82.0,46,89,0.0,0.0
895,70.0,0,89,1.0,0.0
896,46.0,0,39,3.0,0.0
897,74.0,0,89,0.0,0.0
898,70.0,50,39,3.0,0.0
899,70.0,46,89,3.0,0.0
900,74.0,0,39,3.0,0.0
901,77.0,0,39,0.0,0.0
902,77.0,0,89,3.0,0.0
903,65.0,0,39,1.0,0.0
904,65.0,0,39,3.0,0.0
905,41.0,0,39,3.0,0.0
906,74.0,0,39,0.0,0.0
907,38.0,0,39,3.0,0.0
908,82.0,0,39,3.0,0.0
909,77.0,0,39,0.0,0.0
910,82.0,96,39,0.0,0.0
911,74.0,0,39,3.0,0.0
912,62.0,0,39,3.0,0.0
913,70.0,0,39,3.0,0.0
914,62.0,0,39,1.0,0.0
915,77.0,0,39,3.0,0.0
916,86.0,0,39,0.0,0.0
917,34.0,0,39,3.0,0.0
918,74.0,0,39,3.0,0.0
919,82.0,67,39,0.0,0.0
920,86.0,0,39,3.0,0.0
921,77.0,0,39,3.0,0.0
922,58.0,0,39,1.0,0.0
923,58.0,0,39,3.0,0.0
924,82.0,0,39,3.0,0.0
925,74.0,17,89,0.0,0.0
926,62.0,0,89,3.0,0.0
927,58.0,24,10,3.0,0.0
928,46.0,13,45,3.0,0.0
929,67.0,0,89,3.0,0.0
930,65.0,11,10,3.0,0.0
931,58.0,24,10,3.0,0.0
932,77.0,4,89,0.0,0.0
933,65.0,7,10,3.0,0.0
934,57.0,13,10,3.0,0.0
935,65.0,0,45,1.0,0.0
936,63.0,0,89,3.0,0.0
937,75.0,4,89,0.0,0.0
938,72.0,0,45,1.0,0.0
939,41.0,2,45,3.0,0.0
940,69.0,11,23,3.0,0.0
941,65.0,7,10,3.0,0.0
942,72.0,11,23,3.0,0.0
943,70.0,11,23,3.0,0.0
944,57.0,13,10,3.0,0.0
945,81.0,2,45,0.0,0.0
946,65.0,7,10,3.0,0.0
947,69.0,11,23,3.0,0.0
948,74.0,0,89,0.0,0.0
949,46.0,0,45,3.0,0.0
950,67.0,0,89,3.0,0.0
951,82.0,0,45,0.0,0.0
952,70.0,0,45,1.0,0.0
953,62.0,17,89,3.0,0.0
954,74.0,13,45,1.0,0.0
955,58.0,24,10,3.0,0.0
956,65.0,11,10,3.0,0.0
957,77.0,4,89,0.0,0.0
958,58.0,24,10,3.0,0.0
959,65.0,7,10,3.0,0.0
960,57.0,13,10,3.0,0.0
961,75.0,0,89,0.0,0.0
962,41.0,2,45,3.0,0.0
963,63.0,4,89,3.0,0.0
964,65.0,0,45,1.0,0.0
965,72.0,0,45,1.0,0.0
966,69.0,11,23,3.0,0.0
967,65.0,7,10,3.0,0.0
968,72.0,11,23,3.0,0.0
969,57.0,13,10,3.0,0.0
970,81.0,2,45,0.0,0.0
971,70.0,11,23,3.0,0.0
972,65.0,7,10,3.0,0.0
973,69.0,11,23,3.0,0.0
974,58.0,10,10,3.0,0.0
975,62.0,0,89,3.0,0.0
976,70.0,14,20,3.0,0.0
977,62.0,0,45,1.0,0.0
978,70.0,13,45,1.0,0.0
979,74.0,17,89,0.0,0.0
980,46.0,0,45,3.0,0.0
981,82.0,0,45,0.0,0.0
982,65.0,11,10,3.0,0.0
983,77.0,4,89,0.0,0.0
984,58.0,10,10,3.0,0.0
985,70.0,14,20,3.0,0.0
986,65.0,7,10,3.0,0.0
987,72.0,11,23,3.0,0.0
988,63.0,0,89,3.0,0.0
989,57.0,13,10,3.0,0.0
990,75.0,4,89,0.0,0.0
991,41.0,0,45,3.0,0.0
992,72.0,0,45,1.0,0.0
993,65.0,2,45,1.0,0.0
994,75.0,11,23,3.0,0.0
995,65.0,7,10,3.0,0.0
996,74.0,11,23,3.0,0.0
997,81.0,2,45,0.0,0.0
998,57.0,13,10,3.0,0.0
999,65.0,7,10,3.0,0.0
1000,72.0,46,23,3.0,0.0
1001,70.0,126,89,3.0,0.0
1002,34.0,0,89,3.0,0.0
1003,82.0,0,89,0.0,0.0
1004,62.0,0,89,3.0,0.0
1005,74.0,0,89,0.0,0.0
1006,62.0,0,45,1.0,0.0
1007,58.0,0,89,3.0,0.0
1008,70.0,44,45,1.0,0.0
1009,70.0,14,177,2.0,0.0
1010,58.0,24,23,2.0,0.0
1011,65.0,24,23,2.0,0.0
1012,62.0,24,23,2.0,0.0
1013,65.0,24,23,2.0,0.0
1014,58.0,24,23,2.0,0.0
1015,65.0,24,23,2.0,0.0
1016,62.0,10,23,2.0,0.0
1017,65.0,24,23,2.0,0.0
1018,58.0,24,23,2.0,0.0
1019,74.0,6,89,2.0,0.0
1020,65.0,24,23,2.0,0.0
1021,62.0,18,23,2.0,0.0
1022,65.0,24,23,2.0,0.0
1023,58.0,24,23,2.0,0.0
1024,70.0,6,89,2.0,0.0
1025,65.0,24,23,2.0,0.0
1026,62.0,18,23,2.0,0.0
1027,65.0,24,23,2.0,0.0
1028,57.0,24,23,2.0,0.0
1029,77.0,4,163,2.0,0.0
1030,65.0,24,23,2.0,0.0
1031,60.0,24,23,2.0,0.0
1032,65.0,24,23,2.0,0.0
1033,57.0,24,23,2.0,0.0
1034,65.0,20,23,2.0,0.0
1035,60.0,24,23,2.0,0.0
1036,79.0,24,23,2.0,0.0
1037,65.0,0,23,2.0,0.0
1038,57.0,24,23,2.0,0.0
1039,77.0,6,89,2.0,0.0
1040,65.0,24,23,2.0,0.0
1041,60.0,18,23,2.0,0.0
1042,65.0,24,23,2.0,0.0
1043,57.0,24,23,2.0,0.0
1044,65.0,24,23,2.0,0.0
1045,77.0,2,45,2.0,0.0
1046,60.0,22,23,2.0,0.0
1047,65.0,24,23,2.0,0.0
1048,75.0,14,177,2.0,0.0
1049,55.0,24,23,2.0,0.0
1050,63.0,24,23,2.0,0.0
1051,58.0,24,23,2.0,0.0
1052,63.0,24,23,2.0,0.0
1053,55.0,24,23,2.0,0.0
1054,63.0,24,23,2.0,0.0
1055,58.0,10,23,2.0,0.0
1056,63.0,24,23,2.0,0.0
1057,53.0,24,23,2.0,0.0
1058,74.0,6,89,2.0,0.0
1059,62.0,24,23,2.0,0.0
1060,57.0,18,23,2.0,0.0
1061,62.0,24,23,2.0,0.0
1062,51.0,16,23,2.0,0.0
1063,79.0,8,39,2.0,0.0
1064,60.0,24,23,2.0,0.0
1065,55.0,24,23,2.0,0.0
1066,60.0,24,23,2.0,0.0
1067,53.0,24,23,2.0,0.0
1068,74.0,6,89,2.0,0.0
1069,62.0,24,23,2.0,0.0
1070,58.0,18,23,2.0,0.0
1071,62.0,13,23,2.0,0.0
1072,51.0,1,23,2.0,0.0
1073,72.0,11,12,2.0,0.0
1074,74.0,12,12,2.0,0.0
1075,60.0,1,23,2.0,0.0
1076,72.0,11,12,2.0,0.0
1077,74.0,12,12,2.0,0.0
1078,53.0,1,23,2.0,0.0
1079,72.0,11,12,2.0,0.0
1080,74.0,12,12,2.0,0.0
1081,60.0,21,23,2.0,0.0
1082,72.0,5,12,2.0,0.0
1083,74.0,6,5,2.0,0.0
1084,70.0,69,20,2.0,0.0
1085,50.0,4,89,2.0,0.0
1086,70.0,0,45,2.0,0.0
1087,70.0,0,45,3.0,0.0
1088,72.0,0,45,2.0,0.0
1089,69.0,0,45,3.0,0.0
1090,72.0,48,45,3.0,0.0
1091,70.0,0,45,3.0,0.0
1092,74.0,0,45,2.0,0.0
1093,74.0,9,45,3.0,0.0
1094,48.0,22,23,2.0,0.0
1095,36.0,6,89,3.0,0.0
1096,67.0,0,89,3.0,0.0
1097,72.0,2,45,3.0,0.0
1098,75.0,0,45,3.0,0.0
1099,72.0,17,6,2.0,0.0
1100,75.0,0,83,2.0,0.0
1101,60.0,24,23,2.0,0.0
1102,59.0,18,23,2.0,0.0
1103,60.0,24,23,2.0,0.0
1104,75.0,8,133,2.0,0.0
1105,67.0,0,45,3.0,0.0
1106,62.0,22,23,2.0,0.0
1107,63.0,2,45,3.0,0.0
1108,60.0,24,23,2.0,0.0
1109,59.0,24,23,2.0,0.0
1110,60.0,24,23,2.0,0.0
1111,67.0,0,45,3.0,0.0
1112,48.0,14,23,2.0,0.0
1113,72.0,2,45,3.0,0.0
1114,63.0,0,89,3.0,0.0
1115,39.0,4,89,3.0,0.0
1116,60.0,24,23,2.0,0.0
1117,79.0,2,45,2.0,0.0
1118,59.0,18,23,2.0,0.0
1119,60.0,24,23,2.0,0.0
1120,62.0,22,23,2.0,0.0
1121,75.0,0,45,2.0,0.0
1122,79.0,0,45,3.0,0.0
1123,72.0,2,45,3.0,0.0
1124,60.0,24,23,2.0,0.0
1125,59.0,22,23,2.0,0.0
1126,72.0,2,45,2.0,0.0
1127,60.0,24,23,2.0,0.0
1128,53.0,2,45,2.0,0.0
1129,41.0,0,45,3.0,0.0
1130,70.0,22,23,2.0,0.0
1131,69.0,24,23,2.0,0.0
1132,74.0,22,23,2.0,0.0
1133,65.0,4,89,3.0,0.0
1134,69.0,0,89,3.0,0.0
1135,57.0,2,45,2.0,0.0
1136,60.0,0,89,3.0,0.0
1137,72.0,24,23,2.0,0.0
1138,70.0,18,23,2.0,0.0
1139,39.0,0,45,3.0,0.0
1140,51.0,2,45,2.0,0.0
1141,69.0,24,23,2.0,0.0
1142,60.0,0,45,3.0,0.0
1143,60.0,2,45,2.0,0.0
1144,69.0,0,45,3.0,0.0
1145,67.0,22,23,2.0,0.0
1146,65.0,0,45,3.0,0.0
1147,65.0,24,23,2.0,0.0
1148,50.0,2,45,2.0,0.0
1149,38.0,4,89,3.0,0.0
1150,70.0,22,23,2.0,0.0
1151,72.0,24,23,2.0,0.0
1152,53.0,2,45,2.0,0.0
1153,74.0,18,23,2.0,0.0
1154,65.0,4,89,3.0,0.0
1155,70.0,0,89,3.0,0.0
1156,62.0,0,89,3.0,0.0
1157,75.0,24,23,2.0,0.0
1158,58.0,2,45,2.0,0.0
1159,77.0,18,23,2.0,0.0
1160,79.0,24,23,2.0,0.0
1161,70.0,0,45,3.0,0.0
1162,62.0,0,45,3.0,0.0
1163,81.0,22,23,2.0,0.0
1164,50.0,2,45,2.0,0.0
1165,65.0,0,45,3.0,0.0
1166,82.0,24,23,2.0,0.0
1167,51.0,2,45,2.0,0.0
1168,78.0,22,23,2.0,0.0
1169,39.0,4,89,3.0,0.0
1170,79.0,24,23,2.0,0.0
1171,72.0,0,45,3.0,0.0
1172,74.0,18,23,2.0,0.0
1173,55.0,4,89,3.0,0.0
1174,55.0,0,45,2.0,0.0
1175,63.0,2,45,3.0,0.0
1176,75.0,24,23,2.0,0.0
1177,71.0,18,23,2.0,0.0
1178,60.0,0,45,2.0,0.0
1179,75.0,0,45,3.0,0.0
1180,67.0,2,45,3.0,0.0
1181,72.0,24,23,2.0,0.0
1182,63.0,0,45,3.0,0.0
1183,72.0,0,45,3.0,0.0
1184,51.0,2,45,2.0,0.0
1185,67.0,0,45,3.0,0.0
1186,75.0,22,23,2.0,0.0
1187,72.0,40,23,2.0,0.0
1188,62.0,0,39,3.0,0.0
1189,70.0,6,39,3.0,0.0
1190,53.0,44,45,2.0,0.0
1191,65.0,0,89,3.0,0.0
1192,70.0,0,89,2.0,0.0
1193,41.0,4,89,3.0,0.0
1194,62.0,42,45,2.0,0.0
1195,72.0,6,39,3.0,0.0
1196,53.0,44,45,2.0,0.0
1197,53.0,4,89,3.0,0.0
1198,69.0,0,39,3.0,0.0
1199,72.0,0,89,2.0,0.0
1200,57.0,71,45,2.0,0.0
1201,69.0,12,177,2.0,0.0
1202,72.0,31,133,2.0,0.0
1203,65.0,0,20,3.0,0.0
1204,65.0,0,20,2.0,0.0
1205,65.0,17,20,2.0,0.0
1206,65.0,0,20,3.0,0.0
1207,73.0,23,45,2.0,0.0
1208,65.0,0,20,3.0,0.0
1209,65.0,0,20,2.0,0.0
1210,70.0,48,20,2.0,0.0
1211,74.0,27,89,2.0,0.0
1212,70.0,0,20,3.0,0.0
1213,65.0,0,20,3.0,0.0
1214,65.0,0,20,2.0,0.0
1215,62.0,48,20,2.0,0.0
1216,62.0,0,20,3.0,0.0
1217,58.0,34,20,2.0,0.0
1218,58.0,0,20,3.0,0.0
1219,48.0,24,23,2.0,0.0
1220,60.0,0,89,3.0,0.0
1221,36.0,0,89,3.0,0.0
1222,72.0,14,6,2.0,0.0
1223,75.0,0,20,3.0,0.0
1224,67.0,3,20,3.0,0.0
1225,75.0,6,83,2.0,0.0
1226,60.0,24,23,2.0,0.0
1227,59.0,18,23,2.0,0.0
1228,60.0,21,23,2.0,0.0
1229,67.0,3,20,3.0,0.0
1230,75.0,10,133,2.0,0.0
1231,62.0,24,23,2.0,0.0
1232,63.0,0,20,3.0,0.0
1233,60.0,24,23,2.0,0.0
1234,59.0,24,23,2.0,0.0
1235,60.0,21,23,2.0,0.0
1236,51.0,14,23,2.0,0.0
1237,39.0,0,89,3.0,0.0
1238,72.0,3,20,3.0,0.0
1239,67.0,0,20,3.0,0.0
1240,63.0,4,89,3.0,0.0
1241,60.0,24,23,2.0,0.0
1242,79.0,2,45,2.0,0.0
1243,59.0,18,23,2.0,0.0
1244,60.0,21,23,2.0,0.0
1245,75.0,0,20,3.0,0.0
1246,79.0,3,20,3.0,0.0
1247,62.0,24,23,2.0,0.0
1248,77.0,0,23,2.0,0.0
1249,60.0,11,23,2.0,0.0
1250,75.0,0,23,2.0,0.0
1251,74.0,13,10,2.0,0.0
1252,59.0,11,23,2.0,0.0
1253,72.0,13,10,2.0,0.0
1254,60.0,24,23,2.0,0.0
1255,53.0,0,45,2.0,0.0
1256,70.0,22,23,2.0,0.0
1257,41.0,2,45,3.0,0.0
1258,69.0,24,23,2.0,0.0
1259,86.0,22,23,2.0,0.0
1260,65.0,0,89,3.0,0.0
1261,60.0,4,89,3.0,0.0
1262,69.0,0,89,3.0,0.0
1263,57.0,2,45,2.0,0.0
1264,84.0,24,23,2.0,0.0
1265,82.0,18,23,2.0,0.0
1266,39.0,2,45,3.0,0.0
1267,51.0,0,45,2.0,0.0
1268,81.0,24,23,2.0,0.0
1269,65.0,2,45,3.0,0.0
1270,60.0,0,45,3.0,0.0
1271,79.0,22,23,2.0,0.0
1272,60.0,0,45,2.0,0.0
1273,69.0,0,45,3.0,0.0
1274,77.0,24,23,2.0,0.0
1275,38.0,4,89,3.0,0.0
1276,81.0,22,23,2.0,0.0
1277,50.0,2,45,2.0,0.0
1278,82.0,24,23,2.0,0.0
1279,65.0,2,45,3.0,0.0
1280,84.0,18,23,2.0,0.0
1281,70.0,0,89,3.0,0.0
1282,58.0,0,45,2.0,0.0
1283,62.0,4,89,3.0,0.0
1284,82.0,24,23,2.0,0.0
1285,81.0,18,23,2.0,0.0
1286,55.0,0,45,2.0,0.0
1287,43.0,4,89,3.0,0.0
1288,67.0,2,45,3.0,0.0
1289,79.0,24,23,2.0,0.0
1290,58.0,0,45,2.0,0.0
1291,63.0,2,45,3.0,0.0
1292,70.0,0,93,3.0,0.0
1293,77.0,18,23,2.0,0.0
1294,55.0,0,45,3.0,0.0
1295,75.0,24,23,2.0,0.0
1296,74.0,22,23,2.0,0.0
1297,41.0,0,45,3.0,0.0
1298,53.0,0,45,3.0,0.0
1299,65.0,0,45,3.0,0.0
1300,53.0,2,45,2.0,0.0
1301,75.0,24,23,2.0,0.0
1302,74.0,4,89,3.0,0.0
1303,62.0,2,45,2.0,0.0
1304,70.0,0,89,3.0,0.0
1305,77.0,22,23,2.0,0.0
1306,79.0,24,23,2.0,0.0
1307,41.0,2,45,3.0,0.0
1308,58.0,0,45,2.0,0.0
1309,65.0,0,45,3.0,0.0
1310,77.0,18,23,2.0,0.0
1311,79.0,24,23,2.0,0.0
1312,62.0,0,45,2.0,0.0
1313,81.0,22,23,2.0,0.0
1314,77.0,2,45,3.0,0.0
1315,74.0,0,45,3.0,0.0
1316,82.0,13,23,2.0,0.0
1317,72.0,0,45,3.0,0.0
1318,53.0,0,45,2.0,0.0
1319,41.0,0,45,3.0,0.0
1320,65.0,3,45,3.0,0.0
1321,72.0,12,12,2.0,0.0
1322,75.0,0,45,3.0,0.0
1323,74.0,12,12,2.0,0.0
1324,72.0,9,12,2.0,0.0
1325,74.0,12,12,2.0,0.0
1326,72.0,4,89,3.0,0.0
1327,72.0,12,12,2.0,0.0
1328,63.0,3,45,2.0,0.0
1329,63.0,0,89,3.0,0.0
1330,74.0,12,12,2.0,0.0
1331,72.0,9,12,2.0,0.0
1332,74.0,12,12,2.0,0.0
1333,57.0,0,45,2.0,0.0
1334,41.0,0,45,3.0,0.0
1335,65.0,3,45,3.0,0.0
1336,72.0,12,12,2.0,0.0
1337,74.0,12,12,2.0,0.0
1338,72.0,5,12,2.0,0.0
1339,74.0,12,12,2.0,0.0
1340,60.0,0,45,3.0,0.0
1341,72.0,12,12,2.0,0.0
1342,69.0,92,45,3.0,0.0
1343,63.0,0,45,2.0,0.0
1344,74.0,9,12,2.0,0.0
1345,72.0,12,9,2.0,0.0
1346,70.0,0,89,3.0,0.0
1347,58.0,0,89,2.0,0.0
1348,62.0,0,89,2.0,0.0
1349,46.0,0,89,3.0,0.0
1350,70.0,0,89,2.0,0.0
1351,62.0,0,89,3.0,0.0
1352,65.0,140,89,3.0,0.0
1353,70.0,0,133,3.0,0.0
1354,62.0,21,133,3.0,0.0
1355,65.0,1,177,3.0,0.0
1356,41.0,0,177,3.0,0.0
1357,65.0,0,177,1.0,0.0
1358,69.0,0,10,3.0,0.0
1359,60.0,24,10,3.0,0.0
1360,70.0,0,10,3.0,0.0
1361,62.0,37,10,3.0,0.0
1362,63.0,0,23,3.0,0.0
1363,69.0,0,89,0.0,0.0
1364,75.0,7,89,0.0,0.0
1365,72.0,24,23,3.0,0.0
1366,69.0,11,23,3.0,0.0
1367,60.0,0,23,3.0,0.0
1368,72.0,0,10,3.0,0.0
1369,63.0,23,10,3.0,0.0
1370,60.0,7,10,3.0,0.0
1371,69.0,0,10,3.0,0.0
1372,62.0,0,89,3.0,0.0
1373,34.0,0,89,3.0,0.0
1374,70.0,0,89,1.0,0.0
1375,70.0,0,89,0.0,0.0
1376,74.0,0,89,0.0,0.0
1377,62.0,0,89,1.0,0.0
1378,70.0,0,89,3.0,0.0
1379,62.0,0,133,3.0,0.0
1380,74.0,21,133,3.0,0.0
1381,65.0,0,177,1.0,0.0
1382,41.0,0,177,3.0,0.0
1383,65.0,0,177,3.0,0.0
1384,69.0,0,10,3.0,0.0
1385,72.0,24,10,3.0,0.0
1386,74.0,0,10,3.0,0.0
1387,70.0,37,10,3.0,0.0
1388,75.0,24,23,3.0,0.0
1389,72.0,0,23,3.0,0.0
1390,75.0,0,89,0.0,0.0
1391,81.0,52,89,0.0,0.0
1392,72.0,11,23,3.0,0.0
1393,69.0,0,23,3.0,0.0
1394,72.0,0,10,3.0,0.0
1395,75.0,23,10,3.0,0.0
1396,72.0,7,10,3.0,0.0
1397,69.0,0,10,3.0,0.0
1398,58.0,0,89,1.0,0.0
1399,46.0,0,89,3.0,0.0
1400,74.0,0,89,3.0,0.0
1401,70.0,0,89,3.0,0.0
1402,82.0,0,89,0.0,0.0
1403,58.0,0,89,3.0,0.0
1404,70.0,0,89,1.0,0.0
1405,74.0,4,89,0.0,0.0
1406,58.0,44,45,2.0,0.0
1407,74.0,0,45,2.0,0.0
1408,70.0,48,45,2.0,0.0
1409,77.0,8,133,2.0,0.0
1410,70.0,48,45,2.0,0.0
1411,74.0,0,45,2.0,0.0
1412,74.0,0,45,2.0,0.0
1413,70.0,40,45,2.0,0.0
1414,74.0,26,45,2.0,0.0
1415,70.0,0,45,2.0,0.0
1416,70.0,0,45,2.0,0.0
1417,74.0,2,45,2.0,0.0
1418,79.0,22,23,2.0,0.0
1419,81.0,7,23,2.0,0.0
1420,84.0,39,6,2.0,0.0
1421,74.0,0,45,2.0,0.0
1422,70.0,26,45,2.0,0.0
1423,82.0,0,39,2.0,0.0
1424,70.0,0,45,2.0,0.0
1425,74.0,2,45,2.0,0.0
1426,81.0,22,23,2.0,0.0
1427,79.0,13,23,2.0,0.0
1428,72.0,3,45,2.0,0.0
1429,70.0,0,45,2.0,0.0
1430,76.0,12,12,2.0,0.0
1431,77.0,12,12,2.0,0.0
1432,76.0,9,12,2.0,0.0
1433,77.0,12,12,2.0,0.0
1434,70.0,0,45,2.0,0.0
1435,72.0,3,45,2.0,0.0
1436,76.0,12,12,2.0,0.0
1437,77.0,12,12,2.0,0.0
1438,76.0,9,12,2.0,0.0
1439,77.0,12,12,2.0,0.0
1440,72.0,26,45,2.0,0.0
1441,76.0,12,12,2.0,0.0
1442,70.0,0,45,2.0,0.0
1443,77.0,12,12,2.0,0.0
1444,76.0,1,12,2.0,0.0
1445,77.0,8,1,2.0,0.0
1446,72.0,2,45,2.0,0.0
1447,77.0,22,23,2.0,0.0
1448,70.0,0,45,2.0,0.0
1449,79.0,46,23,2.0,0.0
1450,72.0,0,45,2.0,0.0
1451,69.0,44,45,2.0,0.0
1452,77.0,4,89,2.0,0.0
1453,69.0,0,45,2.0,0.0
1454,72.0,48,45,2.0,0.0
1455,69.0,0,45,2.0,0.0
1456,72.0,48,45,2.0,0.0
1457,77.0,48,45,2.0,0.0
1458,72.0,0,45,2.0,0.0
1459,69.0,0,45,2.0,0.0
1460,74.0,0,45,2.0,0.0
1461,84.0,0,45,2.0,0.0
1462,67.0,48,45,2.0,0.0
1463,74.0,48,45,2.0,0.0
1464,82.0,0,45,2.0,0.0
1465,67.0,0,45,2.0,0.0
1466,74.0,48,45,2.0,0.0
1467,67.0,0,45,2.0,0.0
1468,82.0,8,133,2.0,0.0
1469,74.0,40,45,2.0,0.0
1470,67.0,0,45,2.0,0.0
1471,67.0,15,45,2.0,0.0
1472,74.0,0,45,2.0,0.0
1473,67.0,0,45,2.0,0.0
1474,82.0,12,12,2.0,0.0
1475,74.0,48,45,2.0,0.0
1476,84.0,12,12,2.0,0.0
1477,82.0,9,12,2.0,0.0
1478,84.0,0,9,2.0,0.0
1479,84.0,48,45,2.0,0.0
1480,74.0,0,45,2.0,0.0
1481,65.0,0,45,2.0,0.0
1482,74.0,0,45,2.0,0.0
1483,65.0,0,45,2.0,0.0
1484,86.0,48,45,2.0,0.0
1485,84.0,8,133,2.0,0.0
1486,67.0,48,45,2.0,0.0
1487,64.0,0,45,2.0,0.0
1488,64.0,40,45,2.0,0.0
1489,67.0,0,45,2.0,0.0
1490,64.0,26,45,2.0,0.0
1491,67.0,0,45,2.0,0.0
1492,67.0,2,45,2.0,0.0
1493,64.0,0,45,2.0,0.0
1494,86.0,22,23,2.0,0.0
1495,82.0,46,23,2.0,0.0
1496,81.0,4,89,2.0,0.0
1497,72.0,0,45,2.0,0.0
1498,65.0,44,45,2.0,0.0
1499,65.0,48,45,2.0,0.0
1500,72.0,0,45,2.0,0.0
1501,65.0,0,45,2.0,0.0
1502,72.0,48,45,2.0,0.0
1503,65.0,26,45,2.0,0.0
1504,72.0,0,45,2.0,0.0
1505,81.0,0,45,2.0,0.0
1506,34.0,0,45,3.0,0.0
1507,67.0,2,45,3.0,0.0
1508,81.0,22,23,2.0,0.0
1509,65.0,0,45,3.0,0.0
1510,62.0,0,45,3.0,0.0
1511,58.0,0,45,2.0,0.0
1512,79.0,24,23,2.0,0.0
1513,65.0,2,45,2.0,0.0
1514,78.0,22,23,2.0,0.0
1515,79.0,24,23,2.0,0.0
1516,62.0,2,45,2.0,0.0
1517,78.0,22,23,2.0,0.0
1518,79.0,24,23,2.0,0.0
1519,65.0,2,45,2.0,0.0
1520,78.0,22,23,2.0,0.0
1521,79.0,24,23,2.0,0.0
1522,36.0,0,45,3.0,0.0
1523,65.0,2,45,3.0,0.0
1524,63.0,0,45,3.0,0.0
1525,69.0,4,89,3.0,0.0
1526,60.0,0,45,2.0,0.0
1527,82.0,22,23,2.0,0.0
1528,81.0,24,23,2.0,0.0
1529,65.0,2,45,2.0,0.0
1530,80.0,18,23,2.0,0.0
1531,81.0,24,23,2.0,0.0
1532,80.0,22,23,2.0,0.0
1533,63.0,2,45,2.0,0.0
1534,81.0,24,23,2.0,0.0
1535,80.0,22,23,2.0,0.0
1536,65.0,2,45,2.0,0.0
1537,81.0,24,23,2.0,0.0
1538,62.0,0,45,3.0,0.0
1539,62.0,0,45,2.0,0.0
1540,38.0,2,45,3.0,0.0
1541,70.0,0,45,3.0,0.0
1542,65.0,0,45,3.0,0.0
1543,84.0,22,23,2.0,0.0
1544,82.0,24,23,2.0,0.0
1545,65.0,2,45,2.0,0.0
1546,81.0,22,23,2.0,0.0
1547,82.0,24,23,2.0,0.0
1548,62.0,0,45,2.0,0.0
1549,62.0,2,45,3.0,0.0
1550,71.0,0,45,3.0,0.0
1551,65.0,0,45,3.0,0.0
1552,84.0,22,23,2.0,0.0
1553,83.0,24,23,2.0,0.0
1554,65.0,2,45,2.0,0.0
1555,81.0,22,23,2.0,0.0
1556,83.0,24,23,2.0,0.0
1557,72.0,0,45,3.0,0.0
1558,57.0,0,45,3.0,0.0
1559,45.0,0,45,3.0,0.0
1560,65.0,2,45,3.0,0.0
1561,84.0,22,23,2.0,0.0
1562,57.0,0,45,2.0,0.0
1563,82.0,24,23,2.0,0.0
1564,81.0,22,23,2.0,0.0
1565,65.0,2,45,2.0,0.0
1566,79.0,24,23,2.0,0.0
1567,72.0,0,45,3.0,0.0
1568,77.0,22,23,2.0,0.0
1569,57.0,2,45,2.0,0.0
1570,75.0,0,45,3.0,0.0
1571,65.0,0,45,3.0,0.0
1572,75.0,24,23,2.0,0.0
1573,74.0,22,23,2.0,0.0
1574,65.0,2,45,2.0,0.0
1575,75.0,46,23,2.0,0.0
1576,70.0,4,89,3.0,0.0
1577,65.0,0,89,2.0,0.0
1578,65.0,0,89,3.0,0.0
1579,46.0,0,89,3.0,0.0
1580,58.0,0,89,2.0,0.0
1581,74.0,0,89,3.0,0.0
1582,74.0,44,45,2.0,0.0
1583,85.0,48,45,2.0,0.0
1584,86.0,48,45,2.0,0.0
1585,78.0,48,45,2.0,0.0
1586,79.0,48,45,2.0,0.0
1587,82.0,48,45,2.0,0.0
1588,74.0,48,45,2.0,0.0
1589,79.0,92,45,2.0,0.0
1590,77.0,75,89,2.0,0.0
1591,76.0,4,89,2.0,0.0
1592,48.0,48,45,3.0,0.0
1593,72.0,0,20,3.0,0.0
1594,60.0,0,45,2.0,0.0
1595,47.0,0,45,3.0,0.0
1596,71.0,0,45,3.0,0.0
1597,59.0,48,45,2.0,0.0
1598,60.0,0,45,2.0,0.0
1599,48.0,48,45,3.0,0.0
1600,72.0,0,45,3.0,0.0
1601,59.0,48,45,2.0,0.0
1602,47.0,0,45,3.0,0.0
1603,71.0,0,45,3.0,0.0
1604,72.0,0,45,3.0,0.0
1605,48.0,0,45,3.0,0.0
1606,60.0,0,45,2.0,0.0
1607,60.0,0,89,2.0,0.0
1608,60.0,0,89,3.0,0.0
1609,36.0,6,89,3.0,0.0
1610,72.0,24,23,2.0,0.0
1611,71.0,18,23,2.0,0.0
1612,72.0,24,23,2.0,0.0
1613,74.0,24,23,2.0,0.0
1614,72.0,24,23,2.0,0.0
1615,76.0,22,23,2.0,0.0
1616,70.0,2,45,2.0,0.0
1617,72.0,24,23,2.0,0.0
1618,77.0,22,23,2.0,0.0
1619,69.0,2,45,2.0,0.0
1620,72.0,24,23,2.0,0.0
1621,64.0,2,45,2.0,0.0
1622,79.0,22,23,2.0,0.0
1623,72.0,24,23,2.0,0.0
1624,81.0,22,23,2.0,0.0
1625,65.0,2,45,2.0,0.0
1626,72.0,24,23,2.0,0.0
1627,82.0,22,23,2.0,0.0
1628,67.0,2,45,2.0,0.0
1629,72.0,24,23,2.0,0.0
1630,81.0,2,45,2.0,0.0
1631,65.0,22,23,2.0,0.0
1632,72.0,24,23,2.0,0.0
1633,71.0,24,23,2.0,0.0
1634,72.0,21,23,2.0,0.0
1635,70.0,24,23,2.0,0.0
1636,86.0,3,20,2.0,0.0
1637,72.0,21,23,2.0,0.0
1638,69.0,24,23,2.0,0.0
1639,84.0,3,20,2.0,0.0
1640,72.0,13,23,2.0,0.0
1641,67.0,1,23,2.0,0.0
1642,82.0,11,12,2.0,0.0
1643,84.0,12,12,2.0,0.0
1644,82.0,9,12,2.0,0.0
1645,72.0,24,23,2.0,0.0
1646,84.0,2,9,2.0,0.0
1647,65.0,22,23,2.0,0.0
1648,81.0,2,45,2.0,0.0
1649,72.0,13,23,2.0,0.0
1650,79.0,11,12,2.0,0.0
1651,64.0,1,23,2.0,0.0
1652,81.0,12,12,2.0,0.0
1653,79.0,9,12,2.0,0.0
1654,72.0,24,23,2.0,0.0
1655,81.0,2,9,2.0,0.0
1656,77.0,2,45,2.0,0.0
1657,62.0,22,23,2.0,0.0
1658,72.0,24,23,2.0,0.0
1659,76.0,24,23,2.0,0.0
1660,60.0,6,89,2.0,0.0
1661,72.0,24,23,2.0,0.0
1662,71.0,18,23,2.0,0.0
1663,72.0,24,23,2.0,0.0
1664,74.0,24,23,2.0,0.0
1665,72.0,24,23,2.0,0.0
1666,70.0,2,45,2.0,0.0
1667,76.0,22,23,2.0,0.0
1668,72.0,24,23,2.0,0.0
1669,77.0,22,23,2.0,0.0
1670,69.0,2,45,2.0,0.0
1671,72.0,24,23,2.0,0.0
1672,79.0,22,23,2.0,0.0
1673,64.0,2,45,2.0,0.0
1674,72.0,24,23,2.0,0.0
1675,65.0,2,45,2.0,0.0
1676,81.0,22,23,2.0,0.0
1677,72.0,24,23,2.0,0.0
1678,82.0,22,23,2.0,0.0
1679,67.0,2,45,2.0,0.0
1680,72.0,24,23,2.0,0.0
1681,81.0,2,45,2.0,0.0
1682,65.0,22,23,2.0,0.0
1683,72.0,24,23,2.0,0.0
1684,71.0,24,23,2.0,0.0
1685,72.0,21,23,2.0,0.0
1686,86.0,3,20,2.0,0.0
1687,70.0,24,23,2.0,0.0
1688,72.0,21,23,2.0,0.0
1689,69.0,24,23,2.0,0.0
1690,84.0,3,20,2.0,0.0
1691,72.0,13,23,2.0,0.0
1692,67.0,1,23,2.0,0.0
1693,82.0,11,12,2.0,0.0
1694,84.0,12,12,2.0,0.0
1695,82.0,9,12,2.0,0.0
1696,72.0,24,23,2.0,0.0
1697,84.0,2,9,2.0,0.0
1698,65.0,22,23,2.0,0.0
1699,81.0,2,45,2.0,0.0
1700,72.0,13,23,2.0,0.0
1701,64.0,1,23,2.0,0.0
1702,79.0,11,12,2.0,0.0
1703,81.0,12,12,2.0,0.0
1704,72.0,24,23,2.0,0.0
1705,79.0,9,12,2.0,0.0
1706,81.0,2,9,2.0,0.0
1707,77.0,2,45,2.0,0.0
1708,65.0,22,23,2.0,0.0
1709,72.0,48,23,2.0,0.0
1710,58.0,4,89,3.0,0.0
1711,74.0,0,89,2.0,0.0
1712,69.0,24,23,2.0,0.0
1713,74.0,2,45,3.0,0.0
1714,70.0,18,23,2.0,0.0
1715,69.0,46,23,2.0,0.0
1716,70.0,2,45,3.0,0.0
1717,70.0,4,89,2.0,0.0
1718,81.0,21,23,2.0,0.0
1719,67.0,3,20,3.0,0.0
1720,82.0,18,23,2.0,0.0
1721,79.0,2,45,3.0,0.0
1722,79.0,46,23,2.0,0.0
1723,76.0,2,45,3.0,0.0
1724,76.0,0,89,2.0,0.0
1725,60.0,4,89,3.0,0.0
1726,71.0,21,23,2.0,0.0
1727,72.0,3,20,3.0,0.0
1728,72.0,18,23,2.0,0.0
1729,76.0,2,45,3.0,0.0
1730,71.0,46,23,2.0,0.0
1731,72.0,2,45,3.0,0.0
1732,72.0,4,89,2.0,0.0
1733,83.0,21,23,2.0,0.0
1734,84.0,18,23,2.0,0.0
1735,69.0,3,20,3.0,0.0
1736,81.0,2,45,3.0,0.0
1737,81.0,46,23,2.0,0.0
1738,77.0,2,45,3.0,0.0
1739,77.0,4,89,2.0,0.0
1740,62.0,0,89,3.0,0.0
1741,73.0,21,23,2.0,0.0
1742,74.0,18,23,2.0,0.0
1743,77.0,2,45,3.0,0.0
1744,74.0,3,20,3.0,0.0
1745,73.0,46,23,2.0,0.0
1746,74.0,2,45,3.0,0.0
1747,74.0,4,89,2.0,0.0
1748,85.0,21,23,2.0,0.0
1749,86.0,18,23,2.0,0.0
1750,70.0,3,20,3.0,0.0
1751,82.0,2,45,3.0,0.0
1752,82.0,46,23,2.0,0.0
1753,79.0,2,45,3.0,0.0
1754,79.0,0,89,2.0,0.0
1755,64.0,4,89,3.0,0.0
1756,75.0,24,23,2.0,0.0
1757,76.0,18,23,2.0,0.0
1758,76.0,2,45,3.0,0.0
1759,79.0,0,45,3.0,0.0
1760,75.0,46,23,2.0,0.0
1761,76.0,4,89,2.0,0.0
1762,76.0,2,45,3.0,0.0
1763,83.0,21,23,2.0,0.0
1764,82.0,2,45,3.0,0.0
1765,79.0,3,20,3.0,0.0
1766,64.0,0,45,3.0,0.0
1767,72.0,0,45,3.0,0.0
1768,84.0,18,23,2.0,0.0
1769,82.0,24,23,2.0,0.0
1770,65.0,0,89,3.0,0.0
1771,77.0,2,45,2.0,0.0
1772,81.0,0,89,3.0,0.0
1773,72.0,0,89,3.0,0.0
1774,77.0,6,89,3.0,0.0
1775,81.0,22,23,2.0,0.0
1776,84.0,24,23,2.0,0.0
1777,81.0,18,23,2.0,0.0
1778,77.0,24,23,2.0,0.0
1779,84.0,12,177,3.0,0.0
1780,76.0,22,23,2.0,0.0
1781,70.0,2,45,2.0,0.0
1782,79.0,24,23,2.0,0.0
1783,76.0,24,23,2.0,0.0
1784,72.0,24,23,2.0,0.0
1785,77.0,22,23,2.0,0.0
1786,69.0,2,45,2.0,0.0
1787,72.0,24,23,2.0,0.0
1788,69.0,10,23,2.0,0.0
1789,77.0,0,45,3.0,0.0
1790,65.0,2,45,2.0,0.0
1791,72.0,21,23,2.0,0.0
1792,67.0,2,45,2.0,0.0
1793,72.0,3,20,3.0,0.0
1794,76.0,0,45,3.0,0.0
1795,70.0,22,23,2.0,0.0
1796,72.0,21,23,2.0,0.0
1797,79.0,3,20,3.0,0.0
1798,64.0,2,45,2.0,0.0
1799,67.0,22,23,2.0,0.0
1800,72.0,0,20,3.0,0.0
1801,72.0,24,23,2.0,0.0
1802,69.0,22,23,2.0,0.0
1803,72.0,0,89,3.0,0.0
1804,69.0,6,89,3.0,0.0
1805,65.0,2,45,2.0,0.0
1806,72.0,24,23,2.0,0.0
1807,69.0,18,23,2.0,0.0
1808,65.0,24,23,2.0,0.0
1809,58.0,2,45,2.0,0.0
1810,64.0,22,23,2.0,0.0
1811,72.0,12,177,3.0,0.0
1812,67.0,24,23,2.0,0.0
1813,64.0,24,23,2.0,0.0
1814,60.0,24,23,2.0,0.0
1815,57.0,2,45,2.0,0.0
1816,65.0,22,23,2.0,0.0
1817,60.0,24,23,2.0,0.0
1818,57.0,10,23,2.0,0.0
1819,65.0,0,45,3.0,0.0
1820,53.0,2,45,2.0,0.0
1821,60.0,21,23,2.0,0.0
1822,64.0,0,45,3.0,0.0
1823,58.0,22,23,2.0,0.0
1824,60.0,3,20,3.0,0.0
1825,55.0,2,45,2.0,0.0
1826,60.0,21,23,2.0,0.0
1827,52.0,2,45,2.0,0.0
1828,58.0,3,20,3.0,0.0
1829,55.0,22,23,2.0,0.0
1830,60.0,0,20,3.0,0.0
1831,60.0,21,23,2.0,0.0
1832,57.0,0,89,3.0,0.0
1833,53.0,0,89,2.0,0.0
1834,57.0,69,20,2.0,0.0
1835,60.0,4,89,3.0,0.0
1836,60.0,48,45,2.0,0.0
1837,65.0,48,45,2.0,0.0
1838,69.0,48,45,2.0,0.0
1839,72.0,48,45,2.0,0.0
1840,77.0,48,45,2.0,0.0
1841,81.0,23,45,2.0,0.0
1842,84.0,51,20,2.0,0.0
1843,60.0,2,45,3.0,0.0
1844,53.0,0,45,3.0,0.0
1845,63.0,0,45,3.0,0.0
1846,57.0,22,23,2.0,0.0
1847,65.0,0,354,1.0,0.0
1848,72.0,0,354,0.0,0.0
1849,75.0,0,354,0.0,0.0
1850,87.0,8,177,2.0,0.0
1851,33.0,6,89,3.0,0.0
1852,65.0,24,23,2.0,0.0
1853,63.0,0,89,3.0,0.0
1854,60.0,18,23,2.0,0.0
1855,53.0,0,89,3.0,0.0
1856,60.0,6,89,3.0,0.0
1857,65.0,24,23,2.0,0.0
1858,33.0,6,89,3.0,0.0
1859,57.0,18,23,2.0,0.0
1860,65.0,24,23,2.0,0.0
1861,53.0,6,89,3.0,0.0
1862,60.0,10,23,2.0,0.0
1863,63.0,0,89,3.0,0.0
1864,60.0,0,89,3.0,0.0
1865,65.0,13,23,2.0,0.0
1866,57.0,1,23,2.0,0.0
1867,75.0,11,12,2.0,0.0
1868,33.0,6,89,3.0,0.0
1869,77.0,12,12,2.0,0.0
1870,75.0,5,12,2.0,0.0
1871,65.0,1,23,2.0,0.0
1872,77.0,12,12,2.0,0.0
1873,63.0,0,89,3.0,0.0
1874,60.0,6,89,3.0,0.0
1875,75.0,11,12,2.0,0.0
1876,53.0,0,89,3.0,0.0
1877,60.0,1,23,2.0,0.0
1878,77.0,12,12,2.0,0.0
1879,75.0,5,12,2.0,0.0
1880,65.0,1,23,2.0,0.0
1881,77.0,12,12,2.0,0.0
1882,57.0,1,23,2.0,0.0
1883,33.0,4,89,3.0,0.0
1884,75.0,11,12,2.0,0.0
1885,77.0,12,12,2.0,0.0
1886,65.0,1,23,2.0,0.0
1887,75.0,5,12,2.0,0.0
1888,77.0,12,12,2.0,0.0
1889,60.0,1,23,2.0,0.0
1890,75.0,6,12,2.0,0.0
1891,63.0,0,45,3.0,0.0
1892,60.0,0,45,3.0,0.0
1893,53.0,2,45,3.0,0.0
1894,77.0,9,12,2.0,0.0
1895,65.0,24,23,2.0,0.0
1896,75.0,8,9,2.0,0.0
1897,70.0,0,89,0.0,0.0
1898,62.0,0,89,3.0,0.0
1899,65.0,0,89,1.0,0.0
1900,58.0,0,89,3.0,0.0
1901,53.0,0,89,3.0,0.0
1902,58.0,0,89,2.0,0.0
1903,34.0,0,89,3.0,0.0
1904,74.0,24,23,2.0,0.0
1905,74.0,0,89,0.0,0.0
1906,58.0,6,89,1.0,0.0
1907,76.0,24,23,2.0,0.0
1908,77.0,18,23,2.0,0.0
1909,76.0,24,23,2.0,0.0
1910,77.0,24,23,2.0,0.0
1911,78.0,24,23,2.0,0.0
1912,79.0,24,23,2.0,0.0
1913,78.0,24,23,2.0,0.0
1914,79.0,24,23,2.0,0.0
1915,81.0,24,23,2.0,0.0
1916,82.0,24,23,2.0,0.0
1917,81.0,7,23,2.0,0.0
1918,84.0,39,6,2.0,0.0
1919,82.0,26,39,2.0,0.0
1920,81.0,24,23,2.0,0.0
1921,79.0,46,23,2.0,0.0
1922,84.0,26,67,2.0,0.0
1923,57.0,22,45,2.0,0.0
1924,65.0,2,45,2.0,0.0
1925,77.0,46,23,2.0,0.0
1926,82.0,22,67,2.0,0.0
1927,77.0,3,177,3.0,0.0
1928,70.0,4,89,3.0,0.0
1929,62.0,22,45,2.0,0.0
1930,65.0,2,45,2.0,0.0
1931,79.0,13,23,2.0,0.0
1932,58.0,3,45,2.0,0.0
1933,79.0,12,12,2.0,0.0
1934,74.0,4,89,3.0,0.0
1935,81.0,12,12,2.0,0.0
1936,79.0,9,12,2.0,0.0
1937,81.0,12,12,2.0,0.0
1938,79.0,12,12,2.0,0.0
1939,65.0,3,45,2.0,0.0
1940,81.0,9,12,2.0,0.0
1941,79.0,5,12,2.0,0.0
1942,81.0,12,12,2.0,0.0
1943,79.0,12,12,2.0,0.0
1944,72.0,3,45,3.0,0.0
1945,60.0,0,45,2.0,0.0
1946,76.0,4,89,3.0,0.0
1947,81.0,12,12,2.0,0.0
1948,79.0,9,12,2.0,0.0
1949,81.0,12,12,2.0,0.0
1950,64.0,92,45,2.0,0.0
1951,79.0,12,12,2.0,0.0
1952,70.0,0,45,3.0,0.0
1953,81.0,9,12,2.0,0.0
1954,79.0,8,9,2.0,0.0
1955,65.0,0,89,2.0,0.0
1956,53.0,0,89,2.0,0.0
1957,69.0,0,89,3.0,0.0
1958,77.0,140,89,3.0,0.0
1959,77.0,0,89,2.0,0.0
1960,72.0,56,133,3.0,0.0
1961,46.0,12,177,3.0,0.0
1962,64.0,44,133,3.0,0.0
1963,58.0,0,177,3.0,0.0
1964,74.0,40,45,3.0,0.0
1965,72.0,48,141,3.0,0.0
1966,67.0,48,45,3.0,0.0
1967,65.0,44,133,3.0,0.0
1968,57.0,12,177,3.0,0.0
1969,45.0,0,177,3.0,0.0
1970,74.0,40,45,3.0,0.0
1971,72.0,56,133,3.0,0.0
1972,69.0,40,45,3.0,0.0
1973,40.0,0,177,3.0,0.0
1974,67.0,44,133,3.0,0.0
1975,52.0,12,177,3.0,0.0
1976,84.0,40,45,3.0,0.0
1977,82.0,44,141,3.0,0.0
1978,60.0,48,45,3.0,0.0
1979,53.0,0,89,3.0,0.0
1980,41.0,0,89,3.0,0.0
1981,69.0,4,89,3.0,0.0
1982,53.0,8,177,2.0,0.0
1983,60.0,44,133,2.0,0.0
1984,80.0,40,45,3.0,0.0
1985,81.0,4,89,3.0,0.0
1986,72.0,56,133,2.0,0.0
1987,65.0,40,45,2.0,0.0
1988,64.0,44,133,2.0,0.0
1989,58.0,12,177,2.0,0.0
1990,74.0,40,45,2.0,0.0
1991,72.0,48,141,2.0,0.0
1992,67.0,48,45,2.0,0.0
1993,57.0,12,177,2.0,0.0
1994,65.0,44,133,2.0,0.0
1995,74.0,40,45,2.0,0.0
1996,72.0,56,133,2.0,0.0
1997,60.0,40,45,2.0,0.0
1998,67.0,44,133,2.0,0.0
1999,64.0,12,177,2.0,0.0
2000,84.0,40,45,2.0,0.0
2001,82.0,0,141,2.0,0.0
2002,72.0,48,45,2.0,0.0
2003,65.0,0,177,2.0,0.0
2004,72.0,8,133,2.0,0.0
2005,72.0,48,45,3.0,0.0
2006,84.0,0,45,2.0,0.0
2007,65.0,23,45,3.0,0.0
2008,81.0,8,133,2.0,0.0
2009,69.0,17,20,3.0,0.0
2010,72.0,0,45,3.0,0.0
2011,69.0,23,45,2.0,0.0
2012,58.0,0,177,3.0,0.0
2013,58.0,12,177,2.0,0.0
2014,70.0,48,45,3.0,0.0
2015,74.0,17,20,3.0,0.0
2016,62.0,8,133,2.0,0.0
2017,62.0,0,45,3.0,0.0
2018,82.0,23,45,2.0,0.0
2019,67.0,17,20,3.0,0.0
2020,79.0,0,141,2.0,0.0
2021,70.0,0,45,3.0,0.0
2022,70.0,23,45,2.0,0.0
2023,72.0,25,20,3.0,0.0
2024,69.0,8,133,2.0,0.0
2025,60.0,0,177,2.0,0.0
2026,69.0,48,45,3.0,0.0
2027,60.0,0,45,3.0,0.0
2028,81.0,23,45,2.0,0.0
2029,65.0,17,20,3.0,0.0
2030,77.0,8,133,2.0,0.0
2031,69.0,0,45,3.0,0.0
2032,65.0,23,45,2.0,0.0
2033,70.0,8,133,2.0,0.0
2034,67.0,9,45,3.0,0.0
2035,60.0,0,177,2.0,0.0
2036,70.0,17,20,3.0,0.0
2037,81.0,39,6,2.0,0.0
2038,58.0,23,45,3.0,0.0
2039,79.0,0,39,2.0,0.0
2040,64.0,36,45,3.0,0.0
2041,76.0,4,89,2.0,0.0
2042,60.0,17,20,3.0,0.0
2043,67.0,0,45,2.0,0.0
2044,67.0,13,45,3.0,0.0
2045,65.0,13,45,3.0,0.0
2046,77.0,0,89,2.0,0.0
2047,65.0,17,89,2.0,0.0
2048,69.0,0,89,2.0,0.0
2049,41.0,0,45,3.0,0.0
2050,57.0,24,10,3.0,0.0
2051,60.0,11,10,3.0,0.0
2052,57.0,24,10,3.0,0.0
2053,60.0,7,10,3.0,0.0
2054,57.0,24,10,3.0,0.0
2055,65.0,13,45,3.0,0.0
2056,60.0,11,10,3.0,0.0
2057,64.0,13,45,3.0,0.0
2058,57.0,24,10,3.0,0.0
2059,60.0,11,10,3.0,0.0
2060,58.0,10,10,3.0,0.0
2061,64.0,13,45,3.0,0.0
2062,36.0,0,45,3.0,0.0
2063,67.0,14,20,3.0,0.0
2064,60.0,11,10,3.0,0.0
2065,58.0,24,10,3.0,0.0
2066,60.0,24,10,3.0,0.0
2067,67.0,13,45,3.0,0.0
2068,58.0,24,10,3.0,0.0
2069,60.0,11,10,3.0,0.0
2070,58.0,24,10,3.0,0.0
2071,65.0,13,45,3.0,0.0
2072,60.0,11,10,3.0,0.0
2073,69.0,14,20,3.0,0.0
2074,41.0,13,45,3.0,0.0
2075,65.0,0,45,3.0,0.0
2076,57.0,10,10,3.0,0.0
2077,60.0,11,10,3.0,0.0
2078,57.0,24,10,3.0,0.0
2079,60.0,24,10,3.0,0.0
2080,65.0,24,10,3.0,0.0
2081,69.0,13,45,3.0,0.0
2082,60.0,11,10,3.0,0.0
2083,65.0,24,10,3.0,0.0
2084,67.0,13,45,3.0,0.0
2085,60.0,11,10,3.0,0.0
2086,40.0,0,45,3.0,0.0
2087,64.0,0,45,3.0,0.0
2088,72.0,0,177,1.0,0.0
2089,79.0,0,177,0.0,0.0
2090,70.0,13,45,3.0,0.0
2091,67.0,24,10,3.0,0.0
2092,82.0,0,177,0.0,0.0
2093,60.0,11,10,3.0,0.0
2094,40.0,0,45,3.0,0.0
2095,64.0,9,45,3.0,0.0
2096,70.0,0,45,3.0,0.0
2097,67.0,24,10,3.0,0.0
2098,60.0,11,10,3.0,0.0
2099,72.0,4,6,3.0,0.0
2100,64.0,13,45,3.0,0.0
2101,55.0,24,10,3.0,0.0
2102,40.0,0,45,3.0,0.0
2103,70.0,0,39,3.0,0.0
2104,60.0,11,10,3.0,0.0
2105,40.0,2,45,3.0,0.0
2106,64.0,0,45,3.0,0.0
2107,58.0,13,10,3.0,0.0
2108,69.0,10,23,3.0,0.0
2109,60.0,11,10,3.0,0.0
2110,67.0,24,23,3.0,0.0
2111,41.0,0,45,3.0,0.0
2112,77.0,0,45,0.0,0.0
2113,81.0,0,45,0.0,0.0
2114,65.0,22,23,2.0,0.0
2115,65.0,0,45,3.0,0.0
2116,57.0,2,45,3.0,0.0
2117,65.0,0,45,1.0,0.0
2118,72.0,24,23,2.0,0.0
2119,69.0,24,23,2.0,0.0
2120,72.0,24,23,2.0,0.0
2121,69.0,24,23,2.0,0.0
2122,77.0,0,23,2.0,0.0
2123,76.0,24,23,2.0,0.0
2124,72.0,0,23,2.0,0.0
2125,77.0,0,23,2.0,0.0
2126,69.0,24,23,2.0,0.0
2127,76.0,0,23,2.0,0.0
2128,72.0,24,23,2.0,0.0
2129,48.0,0,45,3.0,0.0
2130,79.0,0,45,2.0,0.0
2131,64.0,22,23,2.0,0.0
2132,60.0,2,45,3.0,0.0
2133,70.0,0,45,3.0,0.0
2134,64.0,0,45,3.0,0.0
2135,72.0,24,23,2.0,0.0
2136,70.0,24,23,2.0,0.0
2137,72.0,24,23,2.0,0.0
2138,79.0,24,23,2.0,0.0
2139,70.0,0,23,2.0,0.0
2140,72.0,0,23,2.0,0.0
2141,77.0,24,23,2.0,0.0
2142,79.0,0,23,2.0,0.0
2143,70.0,24,23,2.0,0.0
2144,72.0,24,23,2.0,0.0
2145,77.0,0,23,2.0,0.0
2146,65.0,22,23,2.0,0.0
2147,65.0,2,45,3.0,0.0
2148,60.0,0,45,3.0,0.0
2149,41.0,0,45,3.0,0.0
2150,81.0,0,45,2.0,0.0
2151,69.0,0,45,3.0,0.0
2152,72.0,24,23,2.0,0.0
2153,69.0,24,23,2.0,0.0
2154,72.0,24,23,2.0,0.0
2155,69.0,24,23,2.0,0.0
2156,81.0,0,23,2.0,0.0
2157,72.0,0,23,2.0,0.0
2158,79.0,24,23,2.0,0.0
2159,69.0,24,23,2.0,0.0
2160,81.0,0,23,2.0,0.0
2161,79.0,21,23,2.0,0.0
2162,72.0,0,23,2.0,0.0
2163,82.0,0,177,3.0,0.0
2164,48.0,2,45,3.0,0.0
2165,64.0,22,23,2.0,0.0
2166,67.0,14,177,3.0,0.0
2167,82.0,3,20,2.0,0.0
2168,76.0,0,177,3.0,0.0
2169,72.0,21,23,2.0,0.0
2170,82.0,3,20,2.0,0.0
2171,67.0,24,23,2.0,0.0
2172,72.0,7,23,2.0,0.0
2173,84.0,17,6,2.0,0.0
2174,36.0,2,45,3.0,0.0
2175,64.0,22,23,2.0,0.0
2176,82.0,0,39,2.0,0.0
2177,72.0,24,23,2.0,0.0
2178,81.0,10,23,2.0,0.0
2179,67.0,0,23,2.0,0.0
2180,72.0,24,23,2.0,0.0
2181,79.0,0,23,2.0,0.0
2182,81.0,6,89,3.0,0.0
2183,81.0,24,23,2.0,0.0
2184,77.0,0,89,3.0,0.0
2185,65.0,0,89,3.0,0.0
2186,41.0,0,89,3.0,0.0
2187,65.0,0,89,2.0,0.0
2188,82.0,24,23,2.0,0.0
2189,84.0,18,23,2.0,0.0
2190,81.0,24,23,2.0,0.0
2191,77.0,24,23,2.0,0.0
2192,79.0,24,23,2.0,0.0
2193,81.0,24,23,2.0,0.0
2194,77.0,24,23,2.0,0.0
2195,74.0,24,23,2.0,0.0
2196,76.0,24,23,2.0,0.0
2197,77.0,24,23,2.0,0.0
2198,74.0,24,23,2.0,0.0
2199,70.0,24,23,2.0,0.0
2200,72.0,24,23,2.0,0.0
2201,74.0,24,23,2.0,0.0
2202,70.0,24,23,2.0,0.0
2203,62.0,8,177,3.0,0.0
2204,67.0,24,23,2.0,0.0
2205,46.0,0,177,3.0,0.0
2206,67.0,6,89,3.0,0.0
2207,66.0,24,23,2.0,0.0
2208,67.0,18,23,2.0,0.0
2209,66.0,24,23,2.0,0.0
2210,67.0,0,23,3.0,0.0
2211,67.0,44,141,2.0,0.0
2212,70.0,6,89,3.0,0.0
2213,58.0,24,23,2.0,0.0
2214,57.0,0,23,2.0,0.0
2215,66.0,24,23,3.0,0.0
2216,58.0,0,23,2.0,0.0
2217,67.0,10,23,3.0,0.0
2218,66.0,46,23,3.0,0.0
2219,57.0,0,23,2.0,0.0
2220,58.0,8,177,2.0,0.0
2221,74.0,0,89,3.0,0.0
2222,58.0,4,89,3.0,0.0
2223,67.0,0,177,3.0,0.0
2224,34.0,0,177,3.0,0.0
2225,74.0,9,45,2.0,0.0
2226,72.0,39,6,2.0,0.0
2227,60.0,6,89,3.0,0.0
2228,64.0,0,89,3.0,0.0
2229,70.0,26,39,2.0,0.0
2230,69.0,10,23,2.0,0.0
2231,67.0,46,23,2.0,0.0
2232,72.0,44,45,2.0,0.0
2233,33.0,0,89,3.0,0.0
2234,65.0,4,89,3.0,0.0
2235,57.0,0,89,2.0,0.0
2236,60.0,0,89,3.0,0.0
2237,71.0,48,45,2.0,0.0
2238,57.0,0,89,2.0,0.0
2239,38.0,0,89,3.0,0.0
2240,70.0,36,45,2.0,0.0
2241,65.0,0,177,2.0,0.0
2242,62.0,4,89,3.0,0.0
2243,65.0,8,81,3.0,0.0
2244,69.0,15,45,2.0,0.0
2245,62.0,0,89,3.0,0.0
2246,53.0,0,89,2.0,0.0
2247,58.0,7,89,3.0,0.0
2248,67.0,12,12,2.0,0.0
2249,34.0,0,89,3.0,0.0
2250,69.0,12,12,2.0,0.0
2251,67.0,12,12,2.0,0.0
2252,69.0,12,12,2.0,0.0
2253,67.0,12,12,2.0,0.0
2254,69.0,9,12,2.0,0.0
2255,67.0,5,12,2.0,0.0
2256,69.0,12,12,2.0,0.0
2257,64.0,30,89,2.0,0.0
2258,64.0,0,89,3.0,0.0
2259,36.0,0,89,3.0,0.0
2260,60.0,0,89,3.0,0.0
2261,67.0,12,12,2.0,0.0
2262,55.0,0,89,3.0,0.0
2263,55.0,0,89,2.0,0.0
2264,69.0,12,12,2.0,0.0
2265,67.0,12,12,2.0,0.0
2266,69.0,12,12,2.0,0.0
2267,67.0,12,12,2.0,0.0
2268,69.0,9,12,2.0,0.0
2269,67.0,8,9,2.0,0.0
2270,84.0,24,23,2.0,0.0
2271,83.0,24,23,2.0,0.0
2272,84.0,24,23,2.0,0.0
2273,80.0,24,23,2.0,0.0
2274,81.0,24,23,2.0,0.0
2275,80.0,24,23,2.0,0.0
2276,81.0,24,23,2.0,0.0
2277,76.0,24,23,2.0,0.0
2278,77.0,24,23,2.0,0.0
2279,76.0,24,23,2.0,0.0
2280,77.0,24,23,2.0,0.0
2281,73.0,24,23,2.0,0.0
2282,74.0,24,23,2.0,0.0
2283,73.0,24,23,2.0,0.0
2284,74.0,24,23,2.0,0.0
2285,69.0,24,23,2.0,0.0
2286,67.0,6,89,3.0,0.0
2287,62.0,0,119,3.0,0.0
2288,70.0,24,23,2.0,0.0
2289,46.0,0,119,3.0,0.0
2290,69.0,24,23,2.0,0.0
2291,70.0,18,23,2.0,0.0
2292,66.0,24,23,2.0,0.0
2293,67.0,24,23,3.0,0.0
2294,58.0,0,23,2.0,0.0
2295,70.0,6,89,3.0,0.0
2296,67.0,44,141,2.0,0.0
2297,45.0,24,23,3.0,0.0
2298,60.0,0,23,3.0,0.0
2299,57.0,0,23,2.0,0.0
2300,66.0,0,23,3.0,0.0
2301,67.0,0,23,3.0,0.0
2302,58.0,0,23,3.0,0.0
2303,43.0,0,23,3.0,0.0
2304,55.0,18,23,2.0,0.0
2305,57.0,0,23,3.0,0.0
2306,69.0,0,23,3.0,0.0
2307,53.0,46,23,2.0,0.0
2308,41.0,0,23,3.0,0.0
2309,52.0,0,89,2.0,0.0
2310,40.0,0,89,3.0,0.0
2311,74.0,0,89,3.0,0.0
2312,55.0,0,89,3.0,0.0
2313,70.0,4,89,3.0,0.0
2314,86.0,9,45,2.0,0.0
2315,84.0,39,6,2.0,0.0
2316,58.0,6,89,3.0,0.0
2317,58.0,0,89,2.0,0.0
2318,67.0,0,89,3.0,0.0
2319,64.0,0,89,2.0,0.0
2320,64.0,0,89,3.0,0.0
2321,82.0,26,39,2.0,0.0
2322,81.0,18,23,2.0,0.0
2323,79.0,46,23,2.0,0.0
2324,84.0,44,45,2.0,0.0
2325,65.0,4,89,3.0,0.0
2326,65.0,0,89,2.0,0.0
2327,57.0,0,89,3.0,0.0
2328,57.0,0,89,2.0,0.0
2329,83.0,48,45,2.0,0.0
2330,82.0,36,45,2.0,0.0
2331,65.0,0,177,2.0,0.0
2332,77.0,3,177,3.0,0.0
2333,62.0,0,89,3.0,0.0
2334,62.0,4,89,2.0,0.0
2335,81.0,15,45,2.0,0.0
2336,74.0,0,89,3.0,0.0
2337,79.0,12,12,2.0,0.0
2338,58.0,7,89,2.0,0.0
2339,58.0,0,89,3.0,0.0
2340,81.0,12,12,2.0,0.0
2341,79.0,12,12,2.0,0.0
2342,81.0,12,12,2.0,0.0
2343,79.0,12,12,2.0,0.0
2344,81.0,9,12,2.0,0.0
2345,79.0,5,12,2.0,0.0
2346,81.0,12,12,2.0,0.0
2347,79.0,12,12,2.0,0.0
2348,60.0,0,89,2.0,0.0
2349,72.0,30,89,3.0,0.0
2350,60.0,0,89,3.0,0.0
2351,76.0,0,89,3.0,0.0
2352,64.0,0,89,2.0,0.0
2353,81.0,12,12,2.0,0.0
2354,79.0,12,12,2.0,0.0
2355,81.0,12,12,2.0,0.0
2356,79.0,12,12,2.0,0.0
2357,81.0,9,12,2.0,0.0
2358,79.0,8,9,2.0,0.0
2359,65.0,44,813,0.0,0.0
2360,84.0,6,89,2.0,0.0
2361,57.0,24,23,2.0,0.0
2362,77.0,0,813,0.0,0.0
2363,65.0,0,813,1.0,0.0
2364,65.0,24,23,2.0,0.0
2365,60.0,18,23,2.0,0.0
2366,65.0,24,23,2.0,0.0
2367,56.0,24,23,2.0,0.0
2368,65.0,24,23,2.0,0.0
2369,83.0,2,45,2.0,0.0
2370,59.0,22,23,2.0,0.0
2371,65.0,24,23,2.0,0.0
2372,57.0,24,23,2.0,0.0
2373,84.0,6,89,2.0,0.0
2374,65.0,24,23,2.0,0.0
2375,60.0,18,23,2.0,0.0
2376,65.0,24,23,2.0,0.0
2377,56.0,24,23,2.0,0.0
2378,65.0,24,23,2.0,0.0
2379,83.0,2,45,2.0,0.0
2380,59.0,22,23,2.0,0.0
2381,65.0,24,23,2.0,0.0
2382,84.0,2,45,2.0,0.0
2383,57.0,22,23,2.0,0.0
2384,65.0,24,23,2.0,0.0
2385,83.0,2,45,2.0,0.0
2386,56.0,22,23,2.0,0.0
2387,65.0,24,23,2.0,0.0
2388,84.0,2,45,2.0,0.0
2389,57.0,22,23,2.0,0.0
2390,65.0,24,23,2.0,0.0
2391,56.0,22,23,2.0,0.0
2392,83.0,2,45,2.0,0.0
2393,65.0,24,23,2.0,0.0
2394,57.0,22,23,2.0,0.0
2395,84.0,2,45,2.0,0.0
2396,65.0,24,23,2.0,0.0
2397,56.0,22,23,2.0,0.0
2398,83.0,2,45,2.0,0.0
2399,65.0,24,23,2.0,0.0
2400,57.0,22,23,2.0,0.0
2401,84.0,2,45,2.0,0.0
2402,65.0,24,23,2.0,0.0
2403,56.0,22,23,2.0,0.0
2404,83.0,2,45,2.0,0.0
2405,65.0,46,23,2.0,0.0
2406,65.0,0,89,2.0,0.0
2407,57.0,4,89,2.0,0.0
2408,84.0,0,45,2.0,0.0
2409,83.0,48,45,2.0,0.0
2410,84.0,48,45,2.0,0.0
2411,85.0,48,45,2.0,0.0
2412,86.0,48,45,2.0,0.0
2413,87.0,48,45,2.0,0.0
2414,88.0,48,45,2.0,0.0
2415,89.0,26,45,2.0,0.0
2416,48.0,0,45,3.0,0.0
2417,65.0,2,45,3.0,0.0
2418,60.0,0,45,3.0,0.0
2419,60.0,0,45,2.0,0.0
2420,48.0,22,23,2.0,0.0
2421,69.0,0,45,3.0,0.0
2422,57.0,24,23,2.0,0.0
2423,48.0,0,45,3.0,0.0
2424,60.0,0,45,3.0,0.0
2425,69.0,2,45,3.0,0.0
2426,62.0,0,23,2.0,0.0
2427,53.0,22,23,2.0,0.0
2428,65.0,0,45,3.0,0.0
2429,57.0,24,23,2.0,0.0
2430,64.0,0,23,2.0,0.0
2431,60.0,0,45,3.0,0.0
2432,65.0,0,23,2.0,0.0
2433,48.0,2,45,3.0,0.0
2434,69.0,0,45,3.0,0.0
2435,48.0,22,23,2.0,0.0
2436,65.0,0,45,3.0,0.0
2437,67.0,24,23,2.0,0.0
2438,57.0,0,23,2.0,0.0
2439,69.0,22,23,2.0,0.0
2440,69.0,0,45,3.0,0.0
2441,60.0,2,45,3.0,0.0
2442,65.0,0,45,3.0,0.0
2443,53.0,0,23,2.0,0.0
2444,48.0,0,45,3.0,0.0
2445,57.0,24,23,2.0,0.0
2446,70.0,0,23,2.0,0.0
2447,69.0,2,45,3.0,0.0
2448,72.0,22,23,2.0,0.0
2449,48.0,0,23,2.0,0.0
2450,65.0,0,45,3.0,0.0
2451,60.0,0,45,3.0,0.0
2452,48.0,0,45,3.0,0.0
2453,74.0,24,23,2.0,0.0
2454,57.0,0,23,2.0,0.0
2455,48.0,0,45,3.0,0.0
2456,53.0,0,23,2.0,0.0
2457,65.0,0,45,3.0,0.0
2458,60.0,0,45,3.0,0.0
2459,76.0,22,23,2.0,0.0
2460,69.0,2,45,3.0,0.0
2461,77.0,0,23,2.0,0.0
2462,57.0,24,23,2.0,0.0
2463,65.0,0,45,3.0,0.0
2464,48.0,2,45,3.0,0.0
2465,69.0,0,45,3.0,0.0
2466,79.0,22,23,2.0,0.0
2467,60.0,0,45,3.0,0.0
2468,48.0,0,23,2.0,0.0
2469,57.0,0,23,2.0,0.0
2470,81.0,24,23,2.0,0.0
2471,65.0,2,45,3.0,0.0
2472,60.0,0,45,3.0,0.0
2473,69.0,0,45,3.0,0.0
2474,53.0,0,23,2.0,0.0
2475,48.0,0,45,3.0,0.0
2476,82.0,22,23,2.0,0.0
2477,57.0,13,23,2.0,0.0
2478,84.0,0,23,2.0,0.0
2479,64.0,0,23,3.0,0.0
2480,36.0,2,45,3.0,0.0
2481,79.0,11,12,2.0,0.0
2482,48.0,1,23,2.0,0.0
2483,60.0,0,45,3.0,0.0
2484,67.0,0,23,3.0,0.0
2485,81.0,12,12,2.0,0.0
2486,64.0,1,23,3.0,0.0
2487,67.0,0,23,3.0,0.0
2488,79.0,9,12,2.0,0.0
2489,58.0,0,23,2.0,0.0
2490,81.0,12,12,2.0,0.0
2491,79.0,11,12,2.0,0.0
2492,60.0,0,45,3.0,0.0
2493,64.0,0,23,3.0,0.0
2494,67.0,0,23,3.0,0.0
2495,36.0,2,45,3.0,0.0
2496,52.0,1,23,2.0,0.0
2497,81.0,12,12,2.0,0.0
2498,64.0,0,23,3.0,0.0
2499,67.0,1,23,3.0,0.0
2500,79.0,9,12,2.0,0.0
2501,58.0,0,23,2.0,0.0
2502,81.0,12,12,2.0,0.0
2503,48.0,0,23,2.0,0.0
2504,60.0,0,45,3.0,0.0
2505,64.0,0,23,3.0,0.0
2506,67.0,1,23,3.0,0.0
2507,36.0,2,45,3.0,0.0
2508,79.0,11,12,2.0,0.0
2509,81.0,12,12,2.0,0.0
2510,58.0,0,23,2.0,0.0
2511,64.0,0,23,3.0,0.0
2512,67.0,1,23,3.0,0.0
2513,79.0,9,12,2.0,0.0
2514,81.0,12,12,2.0,0.0
2515,64.0,0,23,3.0,0.0
2516,67.0,1,23,3.0,0.0
2517,36.0,2,45,3.0,0.0
2518,52.0,0,23,2.0,0.0
2519,60.0,0,45,3.0,0.0
2520,79.0,11,12,2.0,0.0
2521,81.0,12,12,2.0,0.0
2522,67.0,0,23,3.0,0.0
2523,58.0,0,23,2.0,0.0
2524,64.0,1,23,3.0,0.0
2525,79.0,9,12,2.0,0.0
2526,81.0,12,12,2.0,0.0
2527,60.0,2,45,3.0,0.0
2528,48.0,0,23,2.0,0.0
2529,76.0,12,177,0.0,0.0
2530,36.0,0,45,3.0,0.0
2531,76.0,1,23,3.0,0.0
2532,79.0,0,177,0.0,0.0
2533,79.0,11,12,2.0,0.0
2534,70.0,0,23,3.0,0.0
2535,81.0,12,12,2.0,0.0
2536,70.0,1,23,3.0,0.0
2537,58.0,0,23,2.0,0.0
2538,76.0,0,23,3.0,0.0
2539,79.0,9,12,2.0,0.0
2540,81.0,12,12,2.0,0.0
2541,76.0,1,23,3.0,0.0
2542,36.0,0,45,3.0,0.0
2543,79.0,11,12,2.0,0.0
2544,52.0,0,23,2.0,0.0
2545,70.0,0,23,3.0,0.0
2546,60.0,2,45,3.0,0.0
2547,81.0,12,12,2.0,0.0
2548,76.0,1,23,3.0,0.0
2549,79.0,9,12,2.0,0.0
2550,70.0,0,23,3.0,0.0
2551,58.0,0,23,2.0,0.0
2552,81.0,12,12,2.0,0.0
2553,60.0,0,45,3.0,0.0
2554,36.0,2,45,3.0,0.0
2555,48.0,0,23,2.0,0.0
2556,70.0,1,23,3.0,0.0
2557,79.0,11,12,2.0,0.0
2558,76.0,0,23,3.0,0.0
2559,81.0,12,12,2.0,0.0
2560,79.0,9,12,2.0,0.0
2561,70.0,1,23,3.0,0.0
2562,58.0,0,23,2.0,0.0
2563,76.0,0,23,3.0,0.0
2564,81.0,12,12,2.0,0.0
2565,70.0,0,23,3.0,0.0
2566,76.0,0,23,3.0,0.0
2567,79.0,6,12,2.0,0.0
2568,36.0,2,45,3.0,0.0
2569,60.0,0,45,3.0,0.0
2570,52.0,10,23,2.0,0.0
2571,81.0,5,6,2.0,0.0
2572,58.0,24,23,2.0,0.0
2573,70.0,0,23,3.0,0.0
2574,76.0,0,23,3.0,0.0
2575,60.0,2,45,3.0,0.0
2576,65.0,0,813,1.0,0.0
2577,53.0,0,89,2.0,0.0
2578,77.0,4,89,3.0,0.0
2579,77.0,0,89,0.0,0.0
2580,41.0,0,45,3.0,0.0
2581,69.0,22,23,3.0,0.0
2582,77.0,0,89,2.0,0.0
2583,57.0,0,89,2.0,0.0
2584,70.0,24,23,3.0,0.0
2585,72.0,18,23,3.0,0.0
2586,41.0,2,45,3.0,0.0
2587,57.0,0,45,3.0,0.0
2588,69.0,21,23,3.0,0.0
2589,69.0,25,20,3.0,0.0
2590,65.0,0,20,3.0,0.0
2591,69.0,0,20,0.0,0.0
2592,41.0,23,45,3.0,0.0
2593,41.0,0,45,3.0,0.0
2594,69.0,0,20,3.0,0.0
2595,65.0,0,20,3.0,0.0
2596,69.0,25,20,0.0,0.0
2597,41.0,0,45,3.0,0.0
2598,69.0,0,45,0.0,0.0
2599,66.0,0,45,3.0,0.0
2600,69.0,0,45,3.0,0.0
2601,70.0,23,45,0.0,0.0
2602,67.0,0,45,3.0,0.0
2603,41.0,0,45,3.0,0.0
2604,70.0,0,45,3.0,0.0
2605,41.0,21,45,3.0,0.0
2606,70.0,0,20,3.0,0.0
2607,70.0,0,45,0.0,0.0
2608,67.0,0,20,3.0,0.0
2609,41.0,48,45,3.0,0.0
2610,67.0,0,20,3.0,0.0
2611,70.0,0,45,0.0,0.0
2612,70.0,0,20,3.0,0.0
2613,68.0,0,45,3.0,0.0
2614,41.0,0,45,3.0,0.0
2615,71.0,0,45,3.0,0.0
2616,71.0,48,45,0.0,0.0
2617,77.0,20,265,0.0,0.0
2618,72.0,23,45,3.0,0.0
2619,72.0,0,45,0.0,0.0
2620,41.0,0,45,3.0,0.0
2621,69.0,0,45,3.0,0.0
2622,72.0,25,20,3.0,0.0
2623,72.0,0,20,0.0,0.0
2624,69.0,0,20,3.0,0.0
2625,41.0,23,45,3.0,0.0
2626,72.0,0,20,3.0,0.0
2627,72.0,0,20,0.0,0.0
2628,69.0,0,20,3.0,0.0
2629,41.0,48,45,3.0,0.0
2630,41.0,0,45,3.0,0.0
2631,73.0,0,45,0.0,0.0
2632,69.0,0,45,3.0,0.0
2633,73.0,0,45,3.0,0.0
2634,74.0,0,45,3.0,0.0
2635,41.0,0,45,3.0,0.0
2636,70.0,0,45,3.0,0.0
2637,74.0,0,45,0.0,0.0
2638,74.0,0,45,0.0,0.0
2639,74.0,0,45,3.0,0.0
2640,41.0,0,45,3.0,0.0
2641,82.0,4,89,0.0,0.0
2642,70.0,0,45,3.0,0.0
2643,76.0,0,45,3.0,0.0
2644,76.0,0,45,0.0,0.0
2645,67.0,0,45,3.0,0.0
2646,41.0,48,45,3.0,0.0
2647,66.0,0,45,3.0,0.0
2648,69.0,44,45,3.0,0.0
2649,77.0,0,45,0.0,0.0
2650,77.0,0,45,3.0,0.0
2651,41.0,0,45,3.0,0.0
2652,81.0,52,89,0.0,0.0
2653,65.0,48,45,3.0,0.0
2654,77.0,0,45,3.0,0.0
2655,63.0,0,45,3.0,0.0
2656,75.0,48,45,3.0,0.0
2657,61.0,0,45,3.0,0.0
2658,73.0,48,45,3.0,0.0
2659,74.0,48,45,3.0,0.0
2660,62.0,0,45,3.0,0.0
2661,59.0,0,45,3.0,0.0
2662,71.0,48,45,3.0,0.0
2663,73.0,0,45,3.0,0.0
2664,60.0,48,45,3.0,0.0
2665,57.0,0,45,3.0,0.0
2666,69.0,48,45,3.0,0.0
2667,70.0,0,45,3.0,0.0
2668,58.0,48,45,3.0,0.0
2669,56.0,0,45,3.0,0.0
2670,68.0,48,45,3.0,0.0
2671,57.0,0,45,3.0,0.0
2672,69.0,48,45,3.0,0.0
2673,63.0,48,45,3.0,0.0
2674,57.0,0,45,3.0,0.0
2675,78.0,0,45,0.0,0.0
2676,76.0,0,45,0.0,0.0
2677,66.0,0,45,3.0,0.0
2678,48.0,0,45,3.0,0.0
2679,62.0,0,45,3.0,0.0
2680,74.0,0,45,0.0,0.0
2681,58.0,0,45,3.0,0.0
2682,67.0,48,45,3.0,0.0
2683,79.0,0,45,0.0,0.0
2684,46.0,0,45,3.0,0.0
2685,73.0,48,45,3.0,0.0
2686,74.0,48,45,3.0,0.0
2687,61.0,0,45,3.0,0.0
2688,73.0,0,45,0.0,0.0
2689,64.0,48,45,3.0,0.0
2690,76.0,0,45,0.0,0.0
2691,46.0,0,45,3.0,0.0
2692,55.0,0,45,3.0,0.0
2693,60.0,0,45,3.0,0.0
2694,72.0,0,45,0.0,0.0
2695,65.0,0,45,3.0,0.0
2696,77.0,48,45,0.0,0.0
2697,57.0,0,45,3.0,0.0
2698,45.0,0,45,3.0,0.0
2699,71.0,48,45,3.0,0.0
2700,72.0,70,45,3.0,0.0
2701,41.0,0,67,3.0,0.0
2702,77.0,0,67,3.0,0.0
2703,77.0,0,89,0.0,0.0
2704,65.0,6,89,1.0,0.0
2705,65.0,0,67,3.0,0.0
2706,41.0,0,23,3.0,0.0
2707,77.0,0,23,3.0,0.0
2708,65.0,0,23,3.0,0.0
2709,81.0,0,67,3.0,0.0
2710,81.0,6,89,0.0,0.0
2711,69.0,0,67,3.0,0.0
2712,45.0,22,67,3.0,0.0
2713,81.0,0,23,3.0,0.0
2714,69.0,0,23,3.0,0.0
2715,45.0,0,23,3.0,0.0
2716,72.0,0,89,1.0,0.0
2717,48.0,0,89,3.0,0.0
2718,84.0,74,89,0.0,0.0
2719,72.0,0,89,3.0,0.0
2720,45.0,0,67,3.0,0.0
2721,69.0,0,67,3.0,0.0
2722,81.0,0,67,0.0,0.0
2723,77.0,90,23,0.0,0.0
2724,41.0,0,23,3.0,0.0
2725,65.0,0,23,3.0,0.0
2726,72.0,0,89,1.0,0.0
2727,48.0,96,89,3.0,0.0
2728,84.0,0,89,0.0,0.0
2729,60.0,0,89,3.0,0.0
2730,72.0,0,89,3.0,0.0
2731,72.0,96,89,1.0,0.0
2732,60.0,0,89,3.0,0.0
2733,72.0,0,89,0.0,0.0
2734,48.0,0,89,3.0,0.0
2735,36.0,0,89,3.0,0.0
2736,72.0,0,89,1.0,0.0
2737,69.0,0,89,0.0,0.0
2738,41.0,0,89,3.0,0.0
2739,77.0,0,89,0.0,0.0
2740,65.0,0,89,1.0,0.0
2741,57.0,0,89,3.0,0.0
2742,53.0,0,89,3.0,0.0
2743,65.0,0,89,3.0,0.0
2744,77.0,34,133,3.0,0.0
2745,69.0,0,133,3.0,0.0
2746,60.0,0,177,3.0,0.0
2747,48.0,0,177,3.0,0.0
2748,72.0,0,177,1.0,0.0
2749,67.0,0,23,3.0,0.0
2750,76.0,24,23,3.0,0.0
2751,69.0,24,23,3.0,0.0
2752,77.0,0,23,3.0,0.0
2753,79.0,0,23,3.0,0.0
2754,70.0,52,89,0.0,0.0
2755,70.0,24,23,3.0,0.0
2756,64.0,0,89,0.0,0.0
2757,67.0,0,23,3.0,0.0
2758,76.0,11,23,3.0,0.0
2759,79.0,23,10,3.0,0.0
2760,70.0,0,10,3.0,0.0
2761,76.0,7,10,3.0,0.0
2762,67.0,0,10,3.0,0.0
2763,69.0,0,89,3.0,0.0
2764,77.0,0,89,3.0,0.0
2765,41.0,0,89,3.0,0.0
2766,65.0,0,89,0.0,0.0
2767,65.0,44,45,1.0,0.0
2768,65.0,0,89,3.0,0.0
2769,69.0,96,89,0.0,0.0
2770,72.0,34,133,3.0,0.0
2771,72.0,44,89,1.0,0.0
2772,81.0,0,133,3.0,0.0
2773,77.0,0,133,3.0,0.0
2774,60.0,0,177,3.0,0.0
2775,36.0,0,177,3.0,0.0
2776,72.0,1,177,1.0,0.0
2777,76.0,0,23,3.0,0.0
2778,79.0,24,23,3.0,0.0
2779,81.0,24,23,3.0,0.0
2780,77.0,0,23,3.0,0.0
2781,79.0,0,23,3.0,0.0
2782,82.0,24,23,3.0,0.0
2783,76.0,0,89,0.0,0.0
2784,70.0,96,89,0.0,0.0
2785,76.0,0,23,3.0,0.0
2786,79.0,11,23,3.0,0.0
2787,82.0,23,10,3.0,0.0
2788,79.0,0,10,3.0,0.0
2789,79.0,0,10,3.0,0.0
2790,76.0,7,10,3.0,0.0
2791,65.0,0,89,3.0,0.0
2792,41.0,0,89,3.0,0.0
2793,77.0,0,89,0.0,0.0
2794,65.0,0,89,1.0,0.0
2795,72.0,0,89,1.0,0.0
2796,77.0,0,89,3.0,0.0
2797,69.0,0,89,0.0,0.0
2798,65.0,0,39,3.0,0.0
2799,69.0,0,39,3.0,0.0
2800,36.0,0,39,3.0,0.0
2801,77.0,0,39,0.0,0.0
2802,65.0,0,39,1.0,0.0
2803,72.0,0,39,3.0,0.0
2804,72.0,0,39,1.0,0.0
2805,77.0,96,39,3.0,0.0
2806,69.0,0,39,0.0,0.0
2807,65.0,0,39,1.0,0.0
2808,81.0,0,39,0.0,0.0
2809,72.0,96,39,3.0,0.0
2810,77.0,0,39,0.0,0.0
2811,77.0,0,39,3.0,0.0
2812,69.0,0,39,3.0,0.0
2813,72.0,0,39,1.0,0.0
2814,81.0,0,39,3.0,0.0
2815,33.0,0,39,3.0,0.0
2816,72.0,0,39,3.0,0.0
2817,81.0,0,39,3.0,0.0
2818,72.0,0,39,1.0,0.0
2819,65.0,0,39,3.0,0.0
2820,29.0,0,39,3.0,0.0
2821,84.0,0,39,3.0,0.0
2822,69.0,0,39,3.0,0.0
2823,81.0,0,39,0.0,0.0
2824,65.0,0,39,1.0,0.0
2825,84.0,67,39,0.0,0.0
2826,57.0,17,89,3.0,0.0
2827,65.0,13,45,1.0,0.0
2828,65.0,24,10,3.0,0.0
2829,41.0,0,45,3.0,0.0
2830,69.0,0,89,0.0,0.0
2831,60.0,11,10,3.0,0.0
2832,65.0,24,10,3.0,0.0
2833,72.0,4,89,0.0,0.0
2834,60.0,7,10,3.0,0.0
2835,64.0,13,10,3.0,0.0
2836,36.0,2,45,3.0,0.0
2837,72.0,0,45,1.0,0.0
2838,58.0,4,89,3.0,0.0
2839,70.0,0,89,0.0,0.0
2840,67.0,11,23,3.0,0.0
2841,60.0,7,10,3.0,0.0
2842,70.0,11,23,3.0,0.0
2843,76.0,2,45,0.0,0.0
2844,64.0,13,10,3.0,0.0
2845,69.0,11,23,3.0,0.0
2846,67.0,11,23,3.0,0.0
2847,60.0,7,10,3.0,0.0
2848,57.0,17,89,3.0,0.0
2849,41.0,13,45,3.0,0.0
2850,77.0,0,45,0.0,0.0
2851,69.0,0,89,0.0,0.0
2852,65.0,24,10,3.0,0.0
2853,65.0,0,45,1.0,0.0
2854,60.0,11,10,3.0,0.0
2855,65.0,24,10,3.0,0.0
2856,72.0,4,89,0.0,0.0
2857,60.0,7,10,3.0,0.0
2858,67.0,11,23,3.0,0.0
2859,72.0,0,45,1.0,0.0
2860,64.0,13,10,3.0,0.0
2861,58.0,4,89,3.0,0.0
2862,36.0,2,45,3.0,0.0
2863,70.0,0,89,0.0,0.0
2864,70.0,11,23,3.0,0.0
2865,60.0,7,10,3.0,0.0
2866,64.0,13,10,3.0,0.0
2867,69.0,11,23,3.0,0.0
2868,76.0,2,45,0.0,0.0
2869,67.0,11,23,3.0,0.0
2870,60.0,7,10,3.0,0.0
2871,57.0,0,89,3.0,0.0
2872,65.0,0,45,1.0,0.0
2873,41.0,13,45,3.0,0.0
2874,77.0,0,45,0.0,0.0
2875,65.0,10,10,3.0,0.0
2876,69.0,17,89,0.0,0.0
2877,60.0,11,10,3.0,0.0
2878,72.0,4,89,0.0,0.0
2879,65.0,10,10,3.0,0.0
2880,60.0,7,10,3.0,0.0
2881,70.0,4,89,0.0,0.0
2882,36.0,2,45,3.0,0.0
2883,64.0,13,10,3.0,0.0
2884,72.0,0,45,1.0,0.0
2885,67.0,11,23,3.0,0.0
2886,58.0,0,89,3.0,0.0
2887,60.0,7,10,3.0,0.0
2888,70.0,11,23,3.0,0.0
2889,69.0,11,23,3.0,0.0
2890,76.0,2,45,0.0,0.0
2891,64.0,13,10,3.0,0.0
2892,67.0,46,23,3.0,0.0
2893,60.0,7,10,3.0,0.0
2894,77.0,44,45,0.0,0.0
2895,69.0,0,89,0.0,0.0
2896,65.0,0,89,3.0,0.0
2897,65.0,0,89,1.0,0.0
2898,29.0,0,89,3.0,0.0
2899,57.0,48,89,3.0,0.0
2900,72.0,52,89,0.0,0.0
2901,76.0,48,45,0.0,0.0
2902,65.0,48,45,2.0,0.0
2903,69.0,0,45,2.0,0.0
2904,72.0,8,133,2.0,0.0
2905,69.0,0,45,2.0,0.0
2906,65.0,40,45,2.0,0.0
2907,65.0,26,45,2.0,0.0
2908,69.0,0,45,2.0,0.0
2909,74.0,22,23,2.0,0.0
2910,65.0,2,45,2.0,0.0
2911,69.0,0,45,2.0,0.0
2912,71.0,46,23,2.0,0.0
2913,72.0,0,45,2.0,0.0
2914,69.0,26,45,2.0,0.0
2915,65.0,0,45,2.0,0.0
2916,74.0,22,23,2.0,0.0
2917,65.0,2,45,2.0,0.0
2918,69.0,0,45,2.0,0.0
2919,76.0,24,23,2.0,0.0
2920,77.0,22,23,2.0,0.0
2921,69.0,0,45,2.0,0.0
2922,65.0,2,45,2.0,0.0
2923,79.0,24,23,2.0,0.0
2924,81.0,22,23,2.0,0.0
2925,69.0,2,45,2.0,0.0
2926,65.0,0,45,2.0,0.0
2927,77.0,46,23,2.0,0.0
2928,67.0,0,89,2.0,0.0
2929,64.0,4,89,2.0,0.0
2930,48.0,12,177,3.0,0.0
2931,72.0,0,45,0.0,0.0
2932,55.0,8,133,3.0,0.0
2933,64.0,0,133,3.0,0.0
2934,82.0,44,45,2.0,0.0
2935,76.0,0,45,0.0,0.0
2936,60.0,0,133,3.0,0.0
2937,79.0,0,45,2.0,0.0
2938,76.0,40,45,0.0,0.0
2939,79.0,0,45,0.0,0.0
2940,82.0,0,177,0.0,0.0
2941,76.0,36,45,2.0,0.0
2942,79.0,8,177,0.0,0.0
2943,52.0,0,45,3.0,0.0
2944,67.0,0,45,3.0,0.0
2945,64.0,0,45,3.0,0.0
2946,72.0,48,45,2.0,0.0
2947,48.0,4,89,3.0,0.0
2948,70.0,36,45,2.0,0.0
2949,67.0,0,45,3.0,0.0
2950,36.0,0,89,3.0,0.0
2951,64.0,0,45,3.0,0.0
2952,48.0,0,45,2.0,0.0
2953,67.0,0,45,3.0,0.0
2954,70.0,48,45,3.0,0.0
2955,67.0,0,45,2.0,0.0
2956,60.0,0,45,2.0,0.0
2957,59.0,0,45,2.0,0.0
2958,47.0,48,45,2.0,0.0
2959,48.0,0,45,2.0,0.0
2960,60.0,48,45,2.0,0.0
2961,57.0,0,45,3.0,0.0
2962,57.0,22,45,2.0,0.0
2963,72.0,26,67,2.0,0.0
2964,65.0,0,45,2.0,0.0
2965,77.0,2,45,3.0,0.0
2966,65.0,0,45,3.0,0.0
2967,73.0,7,23,2.0,0.0
2968,58.0,0,45,2.0,0.0
2969,58.0,0,45,3.0,0.0
2970,75.0,39,6,2.0,0.0
2971,74.0,26,39,2.0,0.0
2972,72.0,22,23,2.0,0.0
2973,67.0,2,45,3.0,0.0
2974,65.0,0,45,2.0,0.0
2975,70.0,0,45,3.0,0.0
2976,70.0,46,23,2.0,0.0
2977,60.0,0,45,3.0,0.0
2978,60.0,44,45,2.0,0.0
2979,69.0,4,89,2.0,0.0
2980,69.0,0,45,3.0,0.0
2981,65.0,48,45,2.0,0.0
2982,65.0,0,45,3.0,0.0
2983,60.0,44,45,2.0,0.0
2984,67.0,4,89,2.0,0.0
2985,60.0,0,45,3.0,0.0
2986,64.0,0,45,3.0,0.0
2987,67.0,0,45,3.0,0.0
2988,64.0,48,45,2.0,0.0
2989,60.0,0,133,3.0,0.0
2990,72.0,0,45,0.0,0.0
2991,64.0,0,89,2.0,0.0
2992,60.0,4,89,2.0,0.0
2993,82.0,44,45,2.0,0.0
2994,64.0,0,133,3.0,0.0
2995,76.0,0,45,0.0,0.0
2996,55.0,8,133,3.0,0.0
2997,48.0,12,177,3.0,0.0
2998,79.0,0,45,2.0,0.0
2999,79.0,40,45,0.0,0.0
3000,76.0,0,45,0.0,0.0
3001,76.0,36,45,2.0,0.0
3002,79.0,8,177,0.0,0.0
3003,82.0,0,177,0.0,0.0
3004,64.0,0,45,3.0,0.0
3005,52.0,48,45,3.0,0.0
3006,67.0,0,45,3.0,0.0
3007,72.0,0,45,2.0,0.0
3008,48.0,4,89,3.0,0.0
3009,64.0,36,45,3.0,0.0
3010,36.0,0,89,3.0,0.0
3011,67.0,0,45,3.0,0.0
3012,70.0,0,45,2.0,0.0
3013,70.0,0,45,3.0,0.0
3014,60.0,0,45,2.0,0.0
3015,48.0,48,45,2.0,0.0
3016,67.0,0,45,3.0,0.0
3017,67.0,0,45,2.0,0.0
3018,59.0,48,45,2.0,0.0
3019,47.0,0,45,2.0,0.0
3020,60.0,26,45,2.0,0.0
3021,48.0,0,45,2.0,0.0
3022,76.0,2,45,0.0,0.0
3023,72.0,0,45,0.0,0.0
3024,81.0,22,23,2.0,0.0
3025,60.0,0,133,3.0,0.0
3026,48.0,12,177,3.0,0.0
3027,64.0,10,133,3.0,0.0
3028,55.0,0,133,3.0,0.0
3029,82.0,24,23,2.0,0.0
3030,76.0,2,45,0.0,0.0
3031,78.0,22,23,2.0,0.0
3032,79.0,0,45,0.0,0.0
3033,79.0,24,23,2.0,0.0
3034,82.0,8,177,0.0,0.0
3035,79.0,0,177,0.0,0.0
3036,75.0,14,23,2.0,0.0
3037,75.0,24,23,2.0,0.0
3038,64.0,0,45,3.0,0.0
3039,67.0,2,45,3.0,0.0
3040,71.0,10,23,2.0,0.0
3041,52.0,0,45,3.0,0.0
3042,72.0,46,23,2.0,0.0
3043,48.0,0,89,3.0,0.0
3044,70.0,0,45,2.0,0.0
3045,64.0,0,45,3.0,0.0
3046,36.0,4,89,3.0,0.0
3047,67.0,36,45,3.0,0.0
3048,70.0,48,45,3.0,0.0
3049,60.0,0,45,2.0,0.0
3050,67.0,0,45,3.0,0.0
3051,48.0,0,45,2.0,0.0
3052,67.0,0,45,2.0,0.0
3053,59.0,48,45,2.0,0.0
3054,47.0,0,45,2.0,0.0
3055,60.0,0,45,2.0,0.0
3056,48.0,26,45,2.0,0.0
3057,72.0,22,23,2.0,0.0
3058,57.0,2,45,2.0,0.0
3059,57.0,0,45,3.0,0.0
3060,74.0,24,23,2.0,0.0
3061,65.0,0,45,2.0,0.0
3062,77.0,0,45,3.0,0.0
3063,65.0,2,45,3.0,0.0
3064,76.0,22,23,2.0,0.0
3065,77.0,24,23,2.0,0.0
3066,58.0,0,45,2.0,0.0
3067,58.0,2,45,3.0,0.0
3068,76.0,22,23,2.0,0.0
3069,74.0,24,23,2.0,0.0
3070,72.0,22,23,2.0,0.0
3071,65.0,0,45,3.0,0.0
3072,65.0,0,45,2.0,0.0
3073,70.0,2,45,3.0,0.0
3074,70.0,24,23,2.0,0.0
3075,60.0,2,45,2.0,0.0
3076,60.0,0,45,3.0,0.0
3077,69.0,22,23,2.0,0.0
3078,70.0,24,23,2.0,0.0
3079,65.0,0,45,3.0,0.0
3080,69.0,0,45,3.0,0.0
3081,65.0,2,45,2.0,0.0
3082,72.0,22,23,2.0,0.0
3083,74.0,24,23,2.0,0.0
3084,72.0,22,23,2.0,0.0
3085,60.0,0,45,2.0,0.0
3086,60.0,2,45,3.0,0.0
3087,70.0,24,23,2.0,0.0
3088,64.0,2,45,3.0,0.0
3089,64.0,0,45,2.0,0.0
3090,67.0,0,45,3.0,0.0
3091,69.0,22,23,2.0,0.0
3092,67.0,24,23,2.0,0.0
3093,60.0,0,89,2.0,0.0
3094,53.0,6,89,2.0,0.0
3095,65.0,0,89,2.0,0.0
3096,65.0,0,23,3.0,0.0
3097,41.0,24,23,3.0,0.0
3098,43.0,0,23,3.0,0.0
3099,67.0,0,23,3.0,0.0
3100,45.0,0,23,3.0,0.0
3101,69.0,0,23,3.0,0.0
3102,46.0,0,23,3.0,0.0
3103,70.0,0,23,3.0,0.0
3104,45.0,24,23,3.0,0.0
3105,69.0,0,23,3.0,0.0
3106,43.0,0,23,3.0,0.0
3107,67.0,0,23,3.0,0.0
3108,41.0,0,23,3.0,0.0
3109,65.0,0,23,3.0,0.0
3110,39.0,0,23,3.0,0.0
3111,63.0,0,23,3.0,0.0
3112,62.0,0,23,3.0,0.0
3113,38.0,0,23,3.0,0.0
3114,39.0,24,23,3.0,0.0
3115,63.0,0,23,3.0,0.0
3116,41.0,24,23,3.0,0.0
3117,65.0,0,23,3.0,0.0
3118,43.0,24,23,3.0,0.0
3119,67.0,0,23,3.0,0.0
3120,41.0,0,23,3.0,0.0
3121,65.0,0,23,3.0,0.0
3122,39.0,0,23,3.0,0.0
3123,63.0,0,23,3.0,0.0
3124,62.0,0,23,3.0,0.0
3125,38.0,24,23,3.0,0.0
3126,60.0,0,23,3.0,0.0
3127,36.0,0,23,3.0,0.0
3128,35.0,0,89,2.0,0.0
3129,47.0,0,89,2.0,0.0
3130,59.0,0,89,3.0,0.0
3131,35.0,0,89,3.0,0.0
3132,77.0,24,23,2.0,0.0
3133,80.0,18,23,2.0,0.0
3134,77.0,24,23,2.0,0.0
3135,77.0,0,177,0.0,0.0
3136,74.0,24,23,2.0,0.0
3137,80.0,14,177,0.0,0.0
3138,77.0,24,23,2.0,0.0
3139,71.0,24,23,2.0,0.0
3140,74.0,24,23,2.0,0.0
3141,68.0,24,23,2.0,0.0
3142,71.0,24,23,2.0,0.0
3143,65.0,10,23,2.0,0.0
3144,68.0,24,23,2.0,0.0
3145,77.0,6,89,0.0,0.0
3146,74.0,0,89,0.0,0.0
3147,62.0,24,23,2.0,0.0
3148,65.0,24,23,2.0,0.0
3149,59.0,18,23,2.0,0.0
3150,62.0,48,23,2.0,0.0
3151,36.0,0,89,3.0,0.0
3152,36.0,0,89,2.0,0.0
3153,60.0,0,89,3.0,0.0
3154,48.0,6,89,2.0,0.0
3155,79.0,24,23,2.0,0.0
3156,84.0,18,23,2.0,0.0
3157,79.0,24,23,2.0,0.0
3158,79.0,0,177,0.0,0.0
3159,75.0,24,23,2.0,0.0
3160,75.0,14,177,0.0,0.0
3161,79.0,24,23,2.0,0.0
3162,72.0,24,23,2.0,0.0
3163,75.0,24,23,2.0,0.0
3164,67.0,24,23,2.0,0.0
3165,72.0,24,23,2.0,0.0
3166,63.0,10,23,2.0,0.0
3167,67.0,24,23,2.0,0.0
3168,72.0,0,89,0.0,0.0
3169,75.0,6,89,0.0,0.0
3170,60.0,24,23,2.0,0.0
3171,63.0,24,23,2.0,0.0
3172,55.0,18,23,2.0,0.0
3173,60.0,48,23,2.0,0.0
3174,49.0,0,89,2.0,0.0
3175,37.0,6,89,3.0,0.0
3176,61.0,0,89,3.0,0.0
3177,37.0,0,89,2.0,0.0
3178,79.0,24,23,2.0,0.0
3179,82.0,18,23,2.0,0.0
3180,79.0,24,23,2.0,0.0
3181,76.0,24,23,2.0,0.0
3182,79.0,14,177,0.0,0.0
3183,82.0,0,177,0.0,0.0
3184,79.0,24,23,2.0,0.0
3185,73.0,24,23,2.0,0.0
3186,76.0,24,23,2.0,0.0
3187,70.0,24,23,2.0,0.0
3188,73.0,24,23,2.0,0.0
3189,67.0,10,23,2.0,0.0
3190,70.0,24,23,2.0,0.0
3191,79.0,6,89,0.0,0.0
3192,75.0,0,89,0.0,0.0
3193,64.0,24,23,2.0,0.0
3194,67.0,24,23,2.0,0.0
3195,61.0,18,23,2.0,0.0
3196,64.0,24,23,2.0,0.0
3197,78.0,0,45,0.0,0.0
3198,62.0,0,89,3.0,0.0
3199,50.0,22,23,2.0,0.0
3200,74.0,2,45,0.0,0.0
3201,38.0,4,89,3.0,0.0
3202,62.0,24,23,2.0,0.0
3203,61.0,18,23,2.0,0.0
3204,74.0,2,45,2.0,0.0
3205,62.0,24,23,2.0,0.0
3206,81.0,2,45,2.0,0.0
3207,60.0,22,23,2.0,0.0
3208,62.0,24,23,2.0,0.0
3209,58.0,22,23,2.0,0.0
3210,79.0,2,45,2.0,0.0
3211,62.0,24,23,2.0,0.0
3212,78.0,2,45,2.0,0.0
3213,57.0,22,23,2.0,0.0
3214,62.0,24,23,2.0,0.0
3215,75.0,2,45,2.0,0.0
3216,55.0,22,23,2.0,0.0
3217,62.0,24,23,2.0,0.0
3218,54.0,22,23,2.0,0.0
3219,74.0,2,45,2.0,0.0
3220,62.0,24,23,2.0,0.0
3221,50.0,22,23,2.0,0.0
3222,72.0,2,45,2.0,0.0
3223,62.0,24,23,2.0,0.0
3224,55.0,22,23,2.0,0.0
3225,70.0,2,45,2.0,0.0
3226,62.0,24,23,2.0,0.0
3227,58.0,22,23,2.0,0.0
3228,86.0,2,45,2.0,0.0
3229,74.0,0,45,2.0,0.0
3230,62.0,24,23,2.0,0.0
3231,57.0,22,23,2.0,0.0
3232,73.0,0,45,2.0,0.0
3233,85.0,2,45,2.0,0.0
3234,62.0,24,23,2.0,0.0
3235,54.0,22,23,2.0,0.0
3236,72.0,0,45,2.0,0.0
3237,84.0,2,45,2.0,0.0
3238,62.0,24,23,2.0,0.0
3239,71.0,0,45,2.0,0.0
3240,83.0,2,45,2.0,0.0
3241,55.0,22,23,2.0,0.0
3242,62.0,24,23,2.0,0.0
3243,82.0,2,45,2.0,0.0
3244,70.0,0,45,2.0,0.0
3245,51.0,22,23,2.0,0.0
3246,55.0,24,23,2.0,0.0
3247,48.0,22,23,2.0,0.0
3248,69.0,0,45,2.0,0.0
3249,81.0,2,45,2.0,0.0
3250,57.0,24,23,2.0,0.0
3251,79.0,2,45,2.0,0.0
3252,49.0,22,23,2.0,0.0
3253,67.0,0,45,2.0,0.0
3254,57.0,24,23,2.0,0.0
3255,78.0,2,45,2.0,0.0
3256,66.0,0,45,2.0,0.0
3257,50.0,22,23,2.0,0.0
3258,62.0,24,23,2.0,0.0
3259,74.0,2,45,2.0,0.0
3260,61.0,22,23,2.0,0.0
3261,62.0,24,23,2.0,0.0
3262,81.0,0,23,2.0,0.0
3263,60.0,24,23,2.0,0.0
3264,62.0,24,23,2.0,0.0
3265,82.0,0,23,2.0,0.0
3266,58.0,24,23,2.0,0.0
3267,79.0,0,23,2.0,0.0
3268,81.0,0,23,2.0,0.0
3269,62.0,24,23,2.0,0.0
3270,78.0,0,23,2.0,0.0
3271,57.0,24,23,2.0,0.0
3272,62.0,0,23,2.0,0.0
3273,79.0,24,23,2.0,0.0
3274,75.0,24,23,2.0,0.0
3275,55.0,0,23,2.0,0.0
3276,62.0,0,23,2.0,0.0
3277,77.0,24,23,2.0,0.0
3278,74.0,24,23,2.0,0.0
3279,54.0,0,23,2.0,0.0
3280,75.0,24,23,2.0,0.0
3281,62.0,0,23,2.0,0.0
3282,72.0,24,23,2.0,0.0
3283,50.0,0,23,2.0,0.0
3284,74.0,24,23,2.0,0.0
3285,62.0,0,23,2.0,0.0
3286,55.0,22,23,2.0,0.0
3287,70.0,2,45,2.0,0.0
3288,62.0,24,23,2.0,0.0
3289,74.0,24,23,2.0,0.0
3290,58.0,0,23,2.0,0.0
3291,62.0,0,23,2.0,0.0
3292,86.0,24,23,2.0,0.0
3293,57.0,0,23,2.0,0.0
3294,73.0,24,23,2.0,0.0
3295,85.0,24,23,2.0,0.0
3296,62.0,0,23,2.0,0.0
3297,72.0,0,23,2.0,0.0
3298,54.0,24,23,2.0,0.0
3299,84.0,0,23,2.0,0.0
3300,62.0,24,23,2.0,0.0
3301,71.0,0,23,2.0,0.0
3302,55.0,24,23,2.0,0.0
3303,83.0,24,23,2.0,0.0
3304,62.0,0,23,2.0,0.0
3305,70.0,24,23,2.0,0.0
3306,51.0,0,23,2.0,0.0
3307,82.0,24,23,2.0,0.0
3308,55.0,0,23,2.0,0.0
3309,48.0,0,23,2.0,0.0
3310,69.0,24,23,2.0,0.0
3311,57.0,24,23,2.0,0.0
3312,81.0,0,23,2.0,0.0
3313,49.0,0,23,2.0,0.0
3314,67.0,24,23,2.0,0.0
3315,58.0,24,23,2.0,0.0
3316,79.0,0,23,2.0,0.0
3317,57.0,0,89,2.0,0.0
3318,78.0,24,23,2.0,0.0
3319,50.0,0,89,2.0,0.0
3320,79.0,24,23,2.0,0.0
3321,81.0,18,23,2.0,0.0
3322,62.0,4,41,3.0,0.0
3323,57.0,2,45,3.0,0.0
3324,79.0,7,23,2.0,0.0
3325,62.0,26,45,3.0,0.0
3326,79.0,39,6,2.0,0.0
3327,66.0,0,45,3.0,0.0
3328,78.0,0,39,2.0,0.0
3329,66.0,2,45,3.0,0.0
3330,69.0,0,45,3.0,0.0
3331,76.0,22,23,2.0,0.0
3332,74.0,24,23,2.0,0.0
3333,60.0,0,89,3.0,0.0
3334,78.0,24,23,2.0,0.0
3335,48.0,0,89,2.0,0.0
3336,50.0,0,89,2.0,0.0
3337,54.0,4,89,2.0,0.0
3338,57.0,0,89,2.0,0.0
3339,79.0,24,23,2.0,0.0
3340,81.0,18,23,2.0,0.0
3341,62.0,2,45,3.0,0.0
3342,66.0,0,45,3.0,0.0
3343,79.0,7,23,2.0,0.0
3344,69.0,0,45,3.0,0.0
3345,79.0,39,6,2.0,0.0
3346,66.0,0,45,3.0,0.0
3347,78.0,26,39,2.0,0.0
3348,74.0,2,45,3.0,0.0
3349,69.0,0,45,3.0,0.0
3350,76.0,22,23,2.0,0.0
3351,74.0,24,23,2.0,0.0
3352,58.0,0,45,2.0,0.0
3353,74.0,0,45,3.0,0.0
3354,43.0,0,45,3.0,0.0
3355,55.0,0,45,2.0,0.0
3356,82.0,2,45,3.0,0.0
3357,58.0,0,45,3.0,0.0
3358,86.0,22,23,2.0,0.0
3359,82.0,24,23,2.0,0.0
3360,81.0,0,45,3.0,0.0
3361,60.0,2,45,2.0,0.0
3362,57.0,0,45,2.0,0.0
3363,60.0,0,45,3.0,0.0
3364,81.0,22,23,2.0,0.0
3365,45.0,0,45,3.0,0.0
3366,72.0,0,45,3.0,0.0
3367,84.0,24,23,2.0,0.0
3368,46.0,0,45,3.0,0.0
3369,62.0,0,45,3.0,0.0
3370,70.0,0,45,3.0,0.0
3371,82.0,22,23,2.0,0.0
3372,62.0,0,45,2.0,0.0
3373,58.0,0,45,2.0,0.0
3374,79.0,2,45,3.0,0.0
3375,79.0,24,23,2.0,0.0
3376,63.0,0,45,2.0,0.0
3377,63.0,2,45,3.0,0.0
3378,78.0,22,23,2.0,0.0
3379,78.0,0,45,3.0,0.0
3380,69.0,0,45,3.0,0.0
3381,60.0,0,45,2.0,0.0
3382,48.0,0,45,3.0,0.0
3383,81.0,24,23,2.0,0.0
3384,79.0,0,89,3.0,0.0
3385,67.0,6,89,3.0,0.0
3386,58.0,0,89,2.0,0.0
3387,62.0,0,89,2.0,0.0
3388,46.0,0,89,3.0,0.0
3389,79.0,24,23,2.0,0.0
3390,62.0,0,89,3.0,0.0
3391,78.0,24,23,2.0,0.0
3392,79.0,18,23,2.0,0.0
3393,78.0,24,23,2.0,0.0
3394,59.0,6,89,2.0,0.0
3395,79.0,24,23,2.0,0.0
3396,80.0,24,23,2.0,0.0
3397,79.0,18,23,2.0,0.0
3398,80.0,24,23,2.0,0.0
3399,79.0,22,23,2.0,0.0
3400,60.0,2,45,2.0,0.0
3401,36.0,0,45,3.0,0.0
3402,75.0,0,45,3.0,0.0
3403,51.0,0,45,3.0,0.0
3404,67.0,0,45,3.0,0.0
3405,63.0,0,45,2.0,0.0
3406,75.0,24,23,2.0,0.0
3407,65.0,0,45,3.0,0.0
3408,62.0,0,45,2.0,0.0
3409,53.0,0,45,3.0,0.0
3410,65.0,0,45,2.0,0.0
3411,38.0,0,45,3.0,0.0
3412,74.0,2,45,3.0,0.0
3413,74.0,22,23,2.0,0.0
3414,77.0,24,23,2.0,0.0
3415,39.0,0,45,3.0,0.0
3416,63.0,0,45,3.0,0.0
3417,63.0,0,45,2.0,0.0
3418,72.0,2,45,3.0,0.0
3419,55.0,0,45,3.0,0.0
3420,67.0,0,45,2.0,0.0
3421,75.0,22,23,2.0,0.0
3422,72.0,24,23,2.0,0.0
3423,71.0,2,45,3.0,0.0
3424,56.0,0,45,3.0,0.0
3425,41.0,0,45,3.0,0.0
3426,65.0,0,45,2.0,0.0
3427,68.0,0,45,2.0,0.0
3428,62.0,0,45,3.0,0.0
3429,70.0,22,23,2.0,0.0
3430,74.0,24,23,2.0,0.0
3431,67.0,0,89,2.0,0.0
3432,55.0,0,89,3.0,0.0
3433,60.0,0,89,3.0,0.0
3434,72.0,0,89,3.0,0.0
3435,72.0,24,23,2.0,0.0
3436,63.0,0,89,2.0,0.0
3437,39.0,6,89,3.0,0.0
3438,70.0,24,23,2.0,0.0
3439,72.0,18,23,2.0,0.0
3440,70.0,24,23,2.0,0.0
3441,72.0,24,23,2.0,0.0
3442,74.0,24,23,2.0,0.0
3443,72.0,24,23,2.0,0.0
3444,74.0,24,23,2.0,0.0
3445,75.0,22,23,2.0,0.0
3446,60.0,2,45,2.0,0.0
3447,74.0,24,23,2.0,0.0
3448,75.0,22,23,2.0,0.0
3449,67.0,2,45,2.0,0.0
3450,74.0,7,23,2.0,0.0
3451,36.0,0,45,3.0,0.0
3452,69.0,0,45,3.0,0.0
3453,77.0,39,6,2.0,0.0
3454,72.0,0,45,3.0,0.0
3455,60.0,0,45,2.0,0.0
3456,63.0,0,45,3.0,0.0
3457,75.0,26,39,2.0,0.0
3458,69.0,2,45,2.0,0.0
3459,74.0,22,23,2.0,0.0
3460,72.0,46,23,2.0,0.0
3461,62.0,44,45,2.0,0.0
3462,62.0,0,45,3.0,0.0
3463,67.0,0,45,3.0,0.0
3464,70.0,0,45,3.0,0.0
3465,70.0,4,89,2.0,0.0
3466,38.0,0,45,3.0,0.0
3467,67.0,48,45,2.0,0.0
3468,62.0,0,45,3.0,0.0
3469,66.0,0,45,3.0,0.0
3470,62.0,0,45,2.0,0.0
3471,69.0,0,45,3.0,0.0
3472,69.0,4,89,2.0,0.0
3473,38.0,44,45,3.0,0.0
3474,66.0,26,45,2.0,0.0
3475,86.0,22,23,2.0,0.0
3476,86.0,12,177,0.0,0.0
3477,82.0,2,45,2.0,0.0
3478,87.0,24,23,2.0,0.0
3479,84.0,22,23,2.0,0.0
3480,78.0,2,45,2.0,0.0
3481,81.0,24,23,2.0,0.0
3482,79.0,2,45,2.0,0.0
3483,82.0,22,23,2.0,0.0
3484,84.0,24,23,2.0,0.0
3485,74.0,2,45,2.0,0.0
3486,81.0,10,23,2.0,0.0
3487,78.0,24,23,2.0,0.0
3488,79.0,12,369,0.0,0.0
3489,79.0,0,23,2.0,0.0
3490,75.0,24,23,2.0,0.0
3491,74.0,24,23,2.0,0.0
3492,78.0,0,23,2.0,0.0
3493,79.0,0,23,2.0,0.0
3494,75.0,24,23,2.0,0.0
3495,74.0,24,23,2.0,0.0
3496,78.0,0,23,2.0,0.0
3497,75.0,24,23,2.0,0.0
3498,79.0,0,23,2.0,0.0
3499,78.0,24,23,2.0,0.0
3500,74.0,0,23,2.0,0.0
3501,75.0,0,23,2.0,0.0
3502,79.0,24,23,2.0,0.0
3503,74.0,0,23,2.0,0.0
3504,78.0,24,23,2.0,0.0
3505,75.0,2,45,2.0,0.0
3506,79.0,22,23,2.0,0.0
3507,80.0,24,23,2.0,0.0
3508,70.0,2,45,2.0,0.0
3509,77.0,22,23,2.0,0.0
3510,74.0,24,23,2.0,0.0
3511,75.0,22,23,2.0,0.0
3512,72.0,2,45,2.0,0.0
3513,77.0,24,23,2.0,0.0
3514,65.0,2,45,2.0,0.0
3515,74.0,10,23,2.0,0.0
3516,71.0,24,23,2.0,0.0
3517,63.0,0,23,2.0,0.0
3518,72.0,4,281,0.0,0.0
3519,72.0,24,23,2.0,0.0
3520,62.0,0,23,2.0,0.0
3521,71.0,24,23,2.0,0.0
3522,63.0,24,23,2.0,0.0
3523,72.0,0,23,2.0,0.0
3524,71.0,0,23,2.0,0.0
3525,62.0,24,23,2.0,0.0
3526,63.0,0,23,2.0,0.0
3527,72.0,24,23,2.0,0.0
3528,71.0,24,23,2.0,0.0
3529,62.0,0,23,2.0,0.0
3530,63.0,0,23,2.0,0.0
3531,72.0,24,23,2.0,0.0
3532,71.0,0,23,2.0,0.0
3533,62.0,24,23,2.0,0.0
3534,72.0,22,23,2.0,0.0
3535,63.0,2,45,2.0,0.0
3536,74.0,24,23,2.0,0.0
3537,72.0,2,45,3.0,0.0
3538,63.0,0,45,3.0,0.0
3539,75.0,18,23,2.0,0.0
3540,67.0,0,45,2.0,0.0
3541,67.0,0,45,3.0,0.0
3542,77.0,24,23,2.0,0.0
3543,81.0,4,89,0.0,0.0
3544,78.0,22,23,2.0,0.0
3545,72.0,0,45,3.0,0.0
3546,84.0,0,89,0.0,0.0
3547,60.0,0,45,2.0,0.0
3548,63.0,0,45,3.0,0.0
3549,69.0,2,45,3.0,0.0
3550,79.0,24,23,2.0,0.0
3551,72.0,2,45,3.0,0.0
3552,75.0,18,23,2.0,0.0
3553,63.0,0,45,3.0,0.0
3554,69.0,0,45,2.0,0.0
3555,69.0,0,45,3.0,0.0
3556,72.0,46,23,2.0,0.0
3557,82.0,0,89,0.0,0.0
3558,62.0,44,45,3.0,0.0
3559,70.0,0,45,3.0,0.0
3560,70.0,4,89,2.0,0.0
3561,79.0,0,89,0.0,0.0
3562,62.0,0,45,2.0,0.0
3563,67.0,0,45,3.0,0.0
3564,67.0,0,45,2.0,0.0
3565,70.0,15,45,3.0,0.0
3566,62.0,0,45,3.0,0.0
3567,67.0,0,45,3.0,0.0
3568,81.0,0,89,0.0,0.0
3569,69.0,0,45,3.0,0.0
3570,78.0,0,89,0.0,0.0
3571,62.0,0,45,2.0,0.0
3572,62.0,0,45,3.0,0.0
3573,66.0,3,45,3.0,0.0
3574,69.0,12,12,2.0,0.0
3575,70.0,12,12,2.0,0.0
3576,69.0,9,12,2.0,0.0
3577,70.0,12,12,2.0,0.0
3578,66.0,0,45,2.0,0.0
3579,66.0,26,45,3.0,0.0
3580,69.0,12,12,2.0,0.0
3581,69.0,0,45,3.0,0.0
3582,62.0,0,45,3.0,0.0
3583,70.0,12,12,2.0,0.0
3584,69.0,5,12,2.0,0.0
3585,70.0,4,5,2.0,0.0
3586,67.0,0,89,3.0,0.0
3587,55.0,24,23,2.0,0.0
3588,58.0,0,89,3.0,0.0
3589,67.0,0,89,2.0,0.0
3590,62.0,0,89,3.0,0.0
3591,79.0,0,89,0.0,0.0
3592,62.0,24,23,2.0,0.0
3593,58.0,18,23,2.0,0.0
3594,62.0,24,23,2.0,0.0
3595,69.0,0,23,2.0,0.0
3596,46.0,24,23,2.0,0.0
3597,72.0,24,23,2.0,0.0
3598,60.0,0,23,2.0,0.0
3599,54.0,0,23,2.0,0.0
3600,70.0,24,23,2.0,0.0
3601,60.0,24,23,2.0,0.0
3602,69.0,0,23,2.0,0.0
3603,55.0,24,23,2.0,0.0
3604,67.0,6,89,2.0,0.0
3605,62.0,24,23,2.0,0.0
3606,58.0,18,23,2.0,0.0
3607,62.0,24,23,2.0,0.0
3608,50.0,0,23,2.0,0.0
3609,69.0,24,23,2.0,0.0
3610,72.0,0,23,2.0,0.0
3611,60.0,24,23,2.0,0.0
3612,70.0,0,23,2.0,0.0
3613,54.0,24,23,2.0,0.0
3614,60.0,24,23,2.0,0.0
3615,69.0,0,23,2.0,0.0
3616,67.0,2,45,2.0,0.0
3617,55.0,22,23,2.0,0.0
3618,62.0,24,23,2.0,0.0
3619,58.0,22,23,2.0,0.0
3620,67.0,2,45,2.0,0.0
3621,62.0,24,23,2.0,0.0
3622,50.0,24,23,2.0,0.0
3623,69.0,0,23,2.0,0.0
3624,72.0,0,23,2.0,0.0
3625,60.0,24,23,2.0,0.0
3626,70.0,0,23,2.0,0.0
3627,54.0,24,23,2.0,0.0
3628,60.0,11,23,2.0,0.0
3629,69.0,0,23,2.0,0.0
3630,70.0,0,89,3.0,0.0
3631,55.0,0,89,2.0,0.0
3632,58.0,0,89,2.0,0.0
3633,67.0,0,89,2.0,0.0
3634,62.0,0,45,1.0,0.0
3635,70.0,0,45,1.0,0.0
3636,43.0,13,45,3.0,0.0
3637,70.0,0,89,0.0,0.0
3638,58.0,24,10,3.0,0.0
3639,62.0,11,10,3.0,0.0
3640,58.0,24,10,3.0,0.0
3641,74.0,13,45,0.0,0.0
3642,62.0,7,10,3.0,0.0
3643,72.0,0,45,1.0,0.0
3644,72.0,0,45,0.0,0.0
3645,75.0,0,89,0.0,0.0
3646,72.0,11,23,3.0,0.0
3647,41.0,0,45,3.0,0.0
3648,57.0,13,10,3.0,0.0
3649,65.0,2,45,1.0,0.0
3650,63.0,4,89,3.0,0.0
3651,75.0,11,23,3.0,0.0
3652,65.0,11,10,3.0,0.0
3653,57.0,13,10,3.0,0.0
3654,81.0,2,45,0.0,0.0
3655,74.0,11,23,3.0,0.0
3656,72.0,11,23,3.0,0.0
3657,65.0,7,10,3.0,0.0
3658,74.0,0,45,1.0,0.0
3659,70.0,0,45,1.0,0.0
3660,62.0,0,89,3.0,0.0
3661,70.0,17,89,3.0,0.0
3662,82.0,13,45,0.0,0.0
3663,74.0,0,89,0.0,0.0
3664,46.0,0,45,3.0,0.0
3665,58.0,24,10,3.0,0.0
3666,65.0,11,10,3.0,0.0
3667,58.0,24,10,3.0,0.0
3668,77.0,4,89,0.0,0.0
3669,65.0,7,10,3.0,0.0
3670,57.0,13,10,3.0,0.0
3671,63.0,0,89,3.0,0.0
3672,72.0,11,23,3.0,0.0
3673,72.0,0,45,1.0,0.0
3674,65.0,2,45,1.0,0.0
3675,41.0,0,45,3.0,0.0
3676,75.0,4,89,0.0,0.0
3677,75.0,11,23,3.0,0.0
3678,65.0,7,10,3.0,0.0
3679,57.0,13,10,3.0,0.0
3680,74.0,11,23,3.0,0.0
3681,81.0,2,45,0.0,0.0
3682,65.0,7,10,3.0,0.0
3683,72.0,11,23,3.0,0.0
3684,82.0,0,45,0.0,0.0
3685,70.0,13,45,1.0,0.0
3686,74.0,17,89,0.0,0.0
3687,46.0,0,45,3.0,0.0
3688,62.0,0,45,1.0,0.0
3689,58.0,10,10,3.0,0.0
3690,62.0,0,89,3.0,0.0
3691,70.0,14,20,3.0,0.0
3692,65.0,11,10,3.0,0.0
3693,70.0,14,20,3.0,0.0
3694,58.0,10,10,3.0,0.0
3695,77.0,4,89,0.0,0.0
3696,65.0,7,10,3.0,0.0
3697,65.0,0,45,1.0,0.0
3698,63.0,4,89,3.0,0.0
3699,72.0,2,45,1.0,0.0
3700,72.0,11,23,3.0,0.0
3701,41.0,0,45,3.0,0.0
3702,57.0,13,10,3.0,0.0
3703,75.0,0,89,0.0,0.0
3704,65.0,7,10,3.0,0.0
3705,75.0,11,23,3.0,0.0
3706,81.0,2,45,0.0,0.0
3707,74.0,11,23,3.0,0.0
3708,57.0,13,10,3.0,0.0
3709,72.0,24,23,3.0,0.0
3710,65.0,7,10,3.0,0.0
3711,82.0,0,89,0.0,0.0
3712,62.0,0,89,3.0,0.0
3713,70.0,0,89,1.0,0.0
3714,58.0,0,89,3.0,0.0
3715,70.0,0,89,3.0,0.0
3716,34.0,0,89,3.0,0.0
3717,74.0,0,89,0.0,0.0
3718,70.0,0,89,2.0,0.0
3719,58.0,24,23,2.0,0.0
3720,62.0,6,89,1.0,0.0
3721,65.0,24,23,2.0,0.0
3722,62.0,18,23,2.0,0.0
3723,65.0,24,23,2.0,0.0
3724,62.0,24,23,2.0,0.0
3725,80.0,0,23,2.0,0.0
3726,84.0,24,23,2.0,0.0
3727,70.0,0,23,2.0,0.0
3728,65.0,0,23,2.0,0.0
3729,82.0,24,23,2.0,0.0
3730,70.0,0,23,2.0,0.0
3731,80.0,24,23,2.0,0.0
3732,80.0,0,23,2.0,0.0
3733,63.0,24,23,2.0,0.0
3734,70.0,24,23,2.0,0.0
3735,79.0,0,23,2.0,0.0
3736,78.0,24,23,2.0,0.0
3737,67.0,0,23,2.0,0.0
3738,79.0,24,23,2.0,0.0
3739,70.0,0,23,2.0,0.0
3740,77.0,24,23,2.0,0.0
3741,59.0,0,23,2.0,0.0
3742,80.0,0,23,2.0,0.0
3743,67.0,24,23,2.0,0.0
3744,79.0,24,23,2.0,0.0
3745,62.0,0,23,2.0,0.0
3746,77.0,0,23,2.0,0.0
3747,67.0,24,23,2.0,0.0
3748,77.0,0,23,2.0,0.0
3749,60.0,24,23,2.0,0.0
3750,67.0,24,23,2.0,0.0
3751,75.0,0,23,2.0,0.0
3752,63.0,24,23,2.0,0.0
3753,74.0,0,23,2.0,0.0
3754,75.0,0,23,2.0,0.0
3755,67.0,24,23,2.0,0.0
3756,74.0,24,23,2.0,0.0
3757,50.0,0,23,2.0,0.0
3758,59.0,24,23,2.0,0.0
3759,77.0,0,23,2.0,0.0
3760,75.0,0,23,2.0,0.0
3761,53.0,24,23,2.0,0.0
3762,74.0,0,23,2.0,0.0
3763,59.0,24,23,2.0,0.0
3764,74.0,0,23,2.0,0.0
3765,51.0,24,23,2.0,0.0
3766,60.0,24,23,2.0,0.0
3767,72.0,0,23,2.0,0.0
3768,71.0,24,23,2.0,0.0
3769,55.0,0,23,2.0,0.0
3770,60.0,24,23,2.0,0.0
3771,72.0,0,23,2.0,0.0
3772,70.0,24,23,2.0,0.0
3773,52.0,0,23,2.0,0.0
3774,60.0,0,23,2.0,0.0
3775,74.0,24,23,2.0,0.0
3776,72.0,0,23,2.0,0.0
3777,55.0,24,23,2.0,0.0
3778,60.0,0,23,2.0,0.0
3779,70.0,24,23,2.0,0.0
3780,53.0,6,89,2.0,0.0
3781,69.0,24,23,2.0,0.0
3782,77.0,24,23,2.0,0.0
3783,76.0,18,23,2.0,0.0
3784,77.0,24,23,2.0,0.0
3785,79.0,24,23,2.0,0.0
3786,77.0,24,23,2.0,0.0
3787,65.0,0,45,3.0,0.0
3788,65.0,0,45,2.0,0.0
3789,69.0,22,23,2.0,0.0
3790,77.0,0,45,3.0,0.0
3791,69.0,2,45,3.0,0.0
3792,77.0,21,23,2.0,0.0
3793,67.0,0,20,2.0,0.0
3794,70.0,0,20,3.0,0.0
3795,70.0,22,23,2.0,0.0
3796,67.0,3,20,3.0,0.0
3797,77.0,2,45,3.0,0.0
3798,77.0,21,23,2.0,0.0
3799,69.0,0,20,2.0,0.0
3800,72.0,0,20,3.0,0.0
3801,77.0,2,45,3.0,0.0
3802,69.0,3,20,3.0,0.0
3803,72.0,22,23,2.0,0.0
3804,77.0,21,23,2.0,0.0
3805,74.0,22,23,2.0,0.0
3806,70.0,0,20,3.0,0.0
3807,77.0,2,45,3.0,0.0
3808,74.0,0,20,3.0,0.0
3809,70.0,3,20,2.0,0.0
3810,77.0,21,23,2.0,0.0
3811,75.0,22,23,2.0,0.0
3812,75.0,0,20,3.0,0.0
3813,72.0,0,20,3.0,0.0
3814,72.0,3,20,2.0,0.0
3815,77.0,2,45,3.0,0.0
3816,77.0,24,23,2.0,0.0
3817,70.0,6,89,2.0,0.0
3818,74.0,0,89,3.0,0.0
3819,74.0,24,23,2.0,0.0
3820,77.0,0,89,3.0,0.0
3821,77.0,24,23,2.0,0.0
3822,76.0,18,23,2.0,0.0
3823,77.0,24,23,2.0,0.0
3824,79.0,24,23,2.0,0.0
3825,77.0,24,23,2.0,0.0
3826,74.0,0,45,3.0,0.0
3827,82.0,2,45,2.0,0.0
3828,74.0,22,23,2.0,0.0
3829,82.0,0,45,3.0,0.0
3830,77.0,0,45,3.0,0.0
3831,77.0,21,23,2.0,0.0
3832,72.0,22,23,2.0,0.0
3833,81.0,0,20,2.0,0.0
3834,72.0,0,20,3.0,0.0
3835,77.0,2,45,3.0,0.0
3836,81.0,3,20,3.0,0.0
3837,77.0,21,23,2.0,0.0
3838,82.0,3,20,3.0,0.0
3839,77.0,2,45,3.0,0.0
3840,74.0,22,23,2.0,0.0
3841,74.0,0,20,3.0,0.0
3842,82.0,0,20,2.0,0.0
3843,77.0,21,23,2.0,0.0
3844,72.0,3,20,3.0,0.0
3845,81.0,0,20,2.0,0.0
3846,77.0,2,45,3.0,0.0
3847,72.0,22,23,2.0,0.0
3848,81.0,0,20,3.0,0.0
3849,77.0,21,23,2.0,0.0
3850,70.0,3,20,3.0,0.0
3851,70.0,22,23,2.0,0.0
3852,79.0,0,20,2.0,0.0
3853,79.0,0,20,3.0,0.0
3854,77.0,2,45,3.0,0.0
3855,77.0,24,23,2.0,0.0
3856,69.0,6,89,3.0,0.0
3857,77.0,0,89,2.0,0.0
3858,77.0,0,89,3.0,0.0
3859,69.0,24,23,2.0,0.0
3860,65.0,24,23,2.0,0.0
3861,64.0,18,23,2.0,0.0
3862,65.0,24,23,2.0,0.0
3863,67.0,24,23,2.0,0.0
3864,65.0,24,23,2.0,0.0
3865,57.0,22,23,2.0,0.0
3866,53.0,2,45,3.0,0.0
3867,77.0,0,45,3.0,0.0
3868,53.0,0,45,2.0,0.0
3869,57.0,0,45,3.0,0.0
3870,65.0,21,23,2.0,0.0
3871,58.0,22,23,2.0,0.0
3872,55.0,0,20,3.0,0.0
3873,55.0,0,20,2.0,0.0
3874,58.0,3,20,3.0,0.0
3875,77.0,2,45,3.0,0.0
3876,65.0,21,23,2.0,0.0
3877,57.0,0,20,3.0,0.0
3878,57.0,0,20,2.0,0.0
3879,60.0,3,20,3.0,0.0
3880,77.0,2,45,3.0,0.0
3881,60.0,22,23,2.0,0.0
3882,65.0,21,23,2.0,0.0
3883,62.0,22,23,2.0,0.0
3884,77.0,2,45,3.0,0.0
3885,62.0,0,20,3.0,0.0
3886,58.0,0,20,2.0,0.0
3887,58.0,3,20,3.0,0.0
3888,65.0,21,23,2.0,0.0
3889,60.0,3,20,3.0,0.0
3890,77.0,2,45,3.0,0.0
3891,60.0,0,20,2.0,0.0
3892,63.0,22,23,2.0,0.0
3893,63.0,0,20,3.0,0.0
3894,65.0,24,23,2.0,0.0
3895,77.0,0,89,3.0,0.0
3896,58.0,0,89,3.0,0.0
3897,62.0,6,89,3.0,0.0
3898,58.0,0,89,2.0,0.0
3899,62.0,24,23,2.0,0.0
3900,65.0,24,23,2.0,0.0
3901,64.0,18,23,2.0,0.0
3902,65.0,24,23,2.0,0.0
3903,67.0,24,23,2.0,0.0
3904,65.0,24,23,2.0,0.0
3905,62.0,22,23,2.0,0.0
3906,62.0,0,45,3.0,0.0
3907,70.0,2,45,3.0,0.0
3908,77.0,0,45,3.0,0.0
3909,65.0,21,23,2.0,0.0
3910,60.0,3,20,3.0,0.0
3911,60.0,22,23,2.0,0.0
3912,77.0,2,45,3.0,0.0
3913,69.0,0,20,3.0,0.0
3914,65.0,21,23,2.0,0.0
3915,77.0,2,45,3.0,0.0
3916,62.0,22,23,2.0,0.0
3917,70.0,3,20,3.0,0.0
3918,62.0,0,20,3.0,0.0
3919,65.0,21,23,2.0,0.0
3920,77.0,2,45,3.0,0.0
3921,60.0,3,20,3.0,0.0
3922,69.0,0,20,3.0,0.0
3923,60.0,22,23,2.0,0.0
3924,65.0,21,23,2.0,0.0
3925,67.0,3,20,3.0,0.0
3926,58.0,0,20,3.0,0.0
3927,77.0,2,45,3.0,0.0
3928,58.0,22,23,2.0,0.0
3929,65.0,24,23,2.0,0.0
3930,77.0,4,89,3.0,0.0
3931,65.0,0,89,3.0,0.0
3932,77.0,2,45,2.0,0.0
3933,57.0,0,89,3.0,0.0
3934,53.0,22,23,2.0,0.0
3935,65.0,24,23,2.0,0.0
3936,76.0,2,45,2.0,0.0
3937,52.0,18,23,2.0,0.0
3938,64.0,24,23,2.0,0.0
3939,77.0,2,45,2.0,0.0
3940,53.0,22,23,2.0,0.0
3941,65.0,24,23,2.0,0.0
3942,54.0,22,23,2.0,0.0
3943,78.0,2,45,2.0,0.0
3944,66.0,13,23,2.0,0.0
3945,79.0,11,12,2.0,0.0
3946,55.0,1,23,2.0,0.0
3947,81.0,12,12,2.0,0.0
3948,79.0,9,12,2.0,0.0
3949,67.0,24,23,2.0,0.0
3950,81.0,2,9,2.0,0.0
3951,78.0,2,45,2.0,0.0
3952,54.0,22,23,2.0,0.0
3953,66.0,24,23,2.0,0.0
3954,79.0,2,45,2.0,0.0
3955,55.0,22,23,2.0,0.0
3956,67.0,24,23,2.0,0.0
3957,71.0,2,45,2.0,0.0
3958,47.0,22,23,2.0,0.0
3959,59.0,24,23,2.0,0.0
3960,48.0,22,23,2.0,0.0
3961,72.0,2,45,2.0,0.0
3962,60.0,24,23,2.0,0.0
3963,71.0,2,45,2.0,0.0
3964,47.0,22,23,2.0,0.0
3965,59.0,24,23,2.0,0.0
3966,72.0,2,45,2.0,0.0
3967,48.0,22,23,2.0,0.0
3968,60.0,24,23,2.0,0.0
3969,50.0,22,23,2.0,0.0
3970,74.0,2,45,2.0,0.0
3971,62.0,13,23,2.0,0.0
3972,75.0,11,12,2.0,0.0
3973,51.0,1,23,2.0,0.0
3974,77.0,12,12,2.0,0.0
3975,63.0,24,23,2.0,0.0
3976,75.0,9,12,2.0,0.0
3977,77.0,2,9,2.0,0.0
3978,50.0,22,23,2.0,0.0
3979,74.0,2,45,2.0,0.0
3980,62.0,24,23,2.0,0.0
3981,75.0,2,45,2.0,0.0
3982,51.0,22,23,2.0,0.0
3983,60.0,24,23,2.0,0.0
3984,69.0,2,45,2.0,0.0
3985,45.0,22,23,2.0,0.0
3986,57.0,46,23,2.0,0.0
3987,62.0,0,89,2.0,0.0
3988,65.0,0,89,2.0,0.0
3989,62.0,0,354,1.0,0.0
3990,70.0,0,89,2.0,0.0
3991,70.0,8,177,3.0,0.0
3992,70.0,23,354,1.0,0.0
3993,46.0,0,89,2.0,0.0
3994,58.0,48,89,2.0,0.0
3995,58.0,0,45,3.0,0.0
3996,70.0,0,177,0.0,0.0
3997,46.0,0,89,3.0,0.0
3998,62.0,0,89,3.0,0.0
3999,46.0,48,89,3.0,0.0
4000,65.0,0,89,3.0,0.0
4001,74.0,48,89,0.0,0.0
4002,74.0,0,89,3.0,0.0
4003,46.0,0,89,3.0,0.0
4004,62.0,0,89,3.0,0.0
4005,70.0,0,89,3.0,0.0
4006,46.0,0,89,3.0,0.0
4007,70.0,52,89,0.0,0.0
4008,65.0,0,93,3.0,0.0
4009,77.0,0,163,0.0,0.0
4010,65.0,8,177,1.0,0.0
4011,77.0,14,163,3.0,0.0
4012,72.0,0,177,1.0,0.0
4013,46.0,48,89,3.0,0.0
4014,69.0,26,89,3.0,0.0
4015,60.0,0,89,3.0,0.0
4016,46.0,6,89,3.0,0.0
4017,57.0,0,89,3.0,0.0
4018,72.0,6,89,3.0,0.0
4019,79.0,0,23,0.0,0.0
4020,79.0,24,23,3.0,0.0
4021,77.0,2,39,0.0,0.0
4022,46.0,0,89,3.0,0.0
4023,77.0,0,89,3.0,0.0
4024,72.0,4,89,1.0,0.0
4025,65.0,0,89,1.0,0.0
4026,57.0,16,23,2.0,0.0
4027,65.0,24,23,2.0,0.0
4028,53.0,2,45,3.0,0.0
4029,69.0,6,89,3.0,0.0
4030,60.0,18,23,2.0,0.0
4031,65.0,24,23,2.0,0.0
4032,57.0,4,89,3.0,0.0
4033,46.0,0,89,3.0,0.0
4034,57.0,18,23,2.0,0.0
4035,65.0,24,23,2.0,0.0
4036,77.0,0,45,2.0,0.0
4037,60.0,18,23,2.0,0.0
4038,65.0,2,45,3.0,0.0
4039,65.0,24,23,2.0,0.0
4040,55.0,22,23,2.0,0.0
4041,75.0,12,177,2.0,0.0
4042,45.0,2,45,3.0,0.0
4043,63.0,24,23,2.0,0.0
4044,58.0,22,23,2.0,0.0
4045,45.0,2,45,3.0,0.0
4046,63.0,24,23,2.0,0.0
4047,45.0,2,45,3.0,0.0
4048,55.0,22,23,2.0,0.0
4049,63.0,24,23,2.0,0.0
4050,58.0,10,23,2.0,0.0
4051,45.0,2,45,3.0,0.0
4052,63.0,24,23,2.0,0.0
4053,45.0,0,89,3.0,0.0
4054,74.0,6,89,2.0,0.0
4055,53.0,24,23,2.0,0.0
4056,62.0,24,23,2.0,0.0
4057,57.0,18,23,2.0,0.0
4058,62.0,24,23,2.0,0.0
4059,51.0,24,23,2.0,0.0
4060,79.0,6,89,2.0,0.0
4061,60.0,24,23,2.0,0.0
4062,55.0,18,23,2.0,0.0
4063,60.0,24,23,2.0,0.0
4064,70.0,6,89,2.0,0.0
4065,53.0,24,23,2.0,0.0
4066,62.0,24,23,2.0,0.0
4067,58.0,18,23,2.0,0.0
4068,62.0,13,23,2.0,0.0
4069,69.0,11,12,2.0,0.0
4070,51.0,1,23,2.0,0.0
4071,70.0,12,12,2.0,0.0
4072,69.0,11,12,2.0,0.0
4073,60.0,1,23,2.0,0.0
4074,70.0,12,12,2.0,0.0
4075,53.0,1,23,2.0,0.0
4076,69.0,11,12,2.0,0.0
4077,70.0,12,12,2.0,0.0
4078,69.0,5,12,2.0,0.0
4079,60.0,90,23,2.0,0.0
4080,70.0,6,5,2.0,0.0
4081,70.0,0,89,2.0,0.0
4082,58.0,0,89,2.0,0.0
4083,53.0,4,89,2.0,0.0
4084,50.0,0,89,2.0,0.0
4085,70.0,0,45,3.0,0.0
4086,70.0,0,45,0.0,0.0
4087,69.0,0,45,0.0,0.0
4088,72.0,48,45,3.0,0.0
4089,69.0,0,45,3.0,0.0
4090,72.0,0,45,0.0,0.0
4091,74.0,9,45,0.0,0.0
4092,70.0,0,45,0.0,0.0
4093,74.0,0,45,3.0,0.0
4094,70.0,0,45,3.0,0.0
4095,72.0,6,39,0.0,0.0
4096,72.0,0,45,3.0,0.0
4097,36.0,44,45,3.0,0.0
4098,75.0,0,39,0.0,0.0
4099,67.0,33,6,3.0,0.0
4100,75.0,4,83,3.0,0.0
4101,67.0,4,89,3.0,0.0
4102,36.0,44,45,3.0,0.0
4103,63.0,0,89,3.0,0.0
4104,36.0,44,45,3.0,0.0
4105,72.0,0,89,0.0,0.0
4106,75.0,4,133,3.0,0.0
4107,67.0,4,89,0.0,0.0
4108,72.0,0,89,3.0,0.0
4109,67.0,4,89,3.0,0.0
4110,36.0,40,45,3.0,0.0
4111,75.0,0,89,0.0,0.0
4112,48.0,44,45,3.0,0.0
4113,72.0,4,89,0.0,0.0
4114,48.0,0,45,3.0,0.0
4115,63.0,0,89,3.0,0.0
4116,79.0,44,45,3.0,0.0
4117,60.0,4,89,3.0,0.0
4118,48.0,23,45,3.0,0.0
4119,75.0,0,45,3.0,0.0
4120,79.0,0,89,0.0,0.0
4121,75.0,4,89,0.0,0.0
4122,72.0,21,20,3.0,0.0
4123,48.0,48,45,3.0,0.0
4124,67.0,0,45,3.0,0.0
4125,63.0,0,45,3.0,0.0
4126,41.0,0,45,3.0,0.0
4127,60.0,0,45,3.0,0.0
4128,63.0,0,45,3.0,0.0
4129,70.0,44,45,3.0,0.0
4130,65.0,0,89,1.0,0.0
4131,69.0,44,45,3.0,0.0
4132,63.0,0,89,3.0,0.0
4133,72.0,4,89,3.0,0.0
4134,41.0,0,45,3.0,0.0
4135,69.0,4,89,0.0,0.0
4136,72.0,0,89,0.0,0.0
4137,41.0,44,45,3.0,0.0
4138,65.0,0,177,1.0,0.0
4139,69.0,4,133,3.0,0.0
4140,72.0,8,177,1.0,0.0
4141,75.0,4,89,3.0,0.0
4142,41.0,40,45,3.0,0.0
4143,72.0,0,89,3.0,0.0
4144,75.0,4,89,0.0,0.0
4145,41.0,36,45,3.0,0.0
4146,81.0,0,89,0.0,0.0
4147,63.0,0,45,3.0,0.0
4148,81.0,0,45,3.0,0.0
4149,60.0,0,45,3.0,0.0
4150,41.0,48,45,3.0,0.0
4151,74.0,0,89,0.0,0.0
4152,82.0,23,45,3.0,0.0
4153,34.0,0,45,3.0,0.0
4154,70.0,0,89,1.0,0.0
4155,62.0,0,45,3.0,0.0
4156,58.0,0,45,3.0,0.0
4157,82.0,4,89,0.0,0.0
4158,74.0,0,89,1.0,0.0
4159,74.0,48,45,3.0,0.0
4160,70.0,21,20,3.0,0.0
4161,34.0,0,45,3.0,0.0
4162,77.0,0,45,3.0,0.0
4163,78.0,0,45,3.0,0.0
4164,70.0,44,45,3.0,0.0
4165,58.0,0,89,1.0,0.0
4166,74.0,0,45,3.0,0.0
4167,39.0,0,45,3.0,0.0
4168,70.0,4,89,1.0,0.0
4169,79.0,0,45,3.0,0.0
4170,39.0,0,45,3.0,0.0
4171,75.0,26,45,3.0,0.0
4172,58.0,0,45,3.0,0.0
4173,72.0,0,39,0.0,0.0
4174,75.0,6,39,0.0,0.0
4175,67.0,0,23,3.0,0.0
4176,39.0,2,45,3.0,0.0
4177,75.0,16,23,3.0,0.0
4178,72.0,24,23,3.0,0.0
4179,63.0,0,21,3.0,0.0
4180,39.0,0,45,3.0,0.0
4181,60.0,2,45,3.0,0.0
4182,67.0,0,23,3.0,0.0
4183,75.0,22,23,3.0,0.0
4184,63.0,40,23,3.0,0.0
4185,72.0,0,23,3.0,0.0
4186,70.0,6,39,0.0,0.0
4187,74.0,0,39,0.0,0.0
4188,41.0,0,89,3.0,0.0
4189,70.0,0,39,3.0,0.0
4190,62.0,0,89,3.0,0.0
4191,65.0,44,45,3.0,0.0
4192,65.0,0,89,1.0,0.0
4193,65.0,42,45,3.0,0.0
4194,65.0,44,45,3.0,0.0
4195,29.0,4,89,3.0,0.0
4196,65.0,0,89,1.0,0.0
4197,72.0,0,39,0.0,0.0
4198,69.0,0,39,3.0,0.0
4199,72.0,0,39,3.0,0.0
4200,69.0,6,39,0.0,0.0
4201,65.0,71,45,3.0,0.0
4202,69.0,12,177,3.0,0.0
4203,72.0,31,133,3.0,0.0
4204,65.0,48,20,3.0,0.0
4205,65.0,0,20,1.0,0.0
4206,65.0,0,20,1.0,0.0
4207,65.0,17,20,3.0,0.0
4208,65.0,0,20,3.0,0.0
4209,65.0,0,20,1.0,0.0
4210,73.0,23,45,3.0,0.0
4211,74.0,0,89,3.0,0.0
4212,70.0,0,20,1.0,0.0
4213,70.0,48,20,3.0,0.0
4214,65.0,0,20,1.0,0.0
4215,65.0,21,20,3.0,0.0
4216,62.0,0,20,1.0,0.0
4217,62.0,0,20,3.0,0.0
4218,58.0,0,20,3.0,0.0
4219,58.0,0,20,1.0,0.0
4220,75.0,0,45,3.0,0.0
4221,67.0,2,45,3.0,0.0
4222,36.0,0,89,3.0,0.0
4223,75.0,11,12,2.0,0.0
4224,60.0,6,89,3.0,0.0
4225,48.0,1,23,2.0,0.0
4226,77.0,12,12,2.0,0.0
4227,60.0,1,23,2.0,0.0
4228,75.0,9,12,2.0,0.0
4229,77.0,12,12,2.0,0.0
4230,75.0,11,12,2.0,0.0
4231,59.0,1,23,2.0,0.0
4232,77.0,12,12,2.0,0.0
4233,75.0,5,12,2.0,0.0
4234,60.0,24,23,2.0,0.0
4235,77.0,0,5,2.0,0.0
4236,62.0,22,23,2.0,0.0
4237,75.0,8,133,2.0,0.0
4238,63.0,0,45,3.0,0.0
4239,67.0,2,45,3.0,0.0
4240,60.0,24,23,2.0,0.0
4241,59.0,24,23,2.0,0.0
4242,60.0,24,23,2.0,0.0
4243,67.0,2,45,3.0,0.0
4244,39.0,4,89,3.0,0.0
4245,63.0,0,89,3.0,0.0
4246,72.0,0,45,3.0,0.0
4247,51.0,14,23,2.0,0.0
4248,60.0,24,23,2.0,0.0
4249,79.0,2,45,2.0,0.0
4250,59.0,18,23,2.0,0.0
4251,60.0,24,23,2.0,0.0
4252,75.0,2,45,3.0,0.0
4253,77.0,22,23,2.0,0.0
4254,62.0,0,23,2.0,0.0
4255,79.0,0,45,3.0,0.0
4256,60.0,0,23,2.0,0.0
4257,75.0,11,23,2.0,0.0
4258,74.0,13,10,2.0,0.0
4259,59.0,11,23,2.0,0.0
4260,72.0,13,10,2.0,0.0
4261,60.0,24,23,2.0,0.0
4262,53.0,0,45,2.0,0.0
4263,70.0,22,23,2.0,0.0
4264,41.0,2,45,3.0,0.0
4265,69.0,24,23,2.0,0.0
4266,69.0,0,89,3.0,0.0
4267,86.0,22,23,2.0,0.0
4268,65.0,0,89,3.0,0.0
4269,60.0,4,89,3.0,0.0
4270,57.0,2,45,2.0,0.0
4271,84.0,24,23,2.0,0.0
4272,82.0,18,23,2.0,0.0
4273,39.0,2,45,3.0,0.0
4274,51.0,0,45,2.0,0.0
4275,81.0,24,23,2.0,0.0
4276,60.0,0,45,2.0,0.0
4277,60.0,2,45,3.0,0.0
4278,79.0,22,23,2.0,0.0
4279,69.0,0,45,3.0,0.0
4280,65.0,0,45,3.0,0.0
4281,77.0,24,23,2.0,0.0
4282,81.0,22,23,2.0,0.0
4283,38.0,4,89,3.0,0.0
4284,50.0,2,45,2.0,0.0
4285,82.0,24,23,2.0,0.0
4286,84.0,18,23,2.0,0.0
4287,58.0,0,45,2.0,0.0
4288,65.0,2,45,3.0,0.0
4289,70.0,4,89,3.0,0.0
4290,62.0,0,89,3.0,0.0
4291,82.0,24,23,2.0,0.0
4292,81.0,18,23,2.0,0.0
4293,55.0,0,45,2.0,0.0
4294,43.0,4,89,3.0,0.0
4295,67.0,2,45,3.0,0.0
4296,79.0,21,23,2.0,0.0
4297,63.0,2,45,3.0,0.0
4298,70.0,0,93,3.0,0.0
4299,55.0,3,20,3.0,0.0
4300,58.0,0,45,2.0,0.0
4301,77.0,18,23,2.0,0.0
4302,75.0,24,23,2.0,0.0
4303,74.0,22,23,2.0,0.0
4304,53.0,0,45,2.0,0.0
4305,65.0,2,45,3.0,0.0
4306,53.0,0,45,3.0,0.0
4307,41.0,0,45,3.0,0.0
4308,75.0,24,23,2.0,0.0
4309,70.0,0,89,3.0,0.0
4310,62.0,2,45,2.0,0.0
4311,74.0,4,89,3.0,0.0
4312,77.0,22,23,2.0,0.0
4313,79.0,24,23,2.0,0.0
4314,58.0,0,45,2.0,0.0
4315,77.0,18,23,2.0,0.0
4316,41.0,0,45,3.0,0.0
4317,65.0,2,45,3.0,0.0
4318,79.0,24,23,2.0,0.0
4319,74.0,0,45,3.0,0.0
4320,62.0,0,45,2.0,0.0
4321,77.0,2,45,3.0,0.0
4322,81.0,22,23,2.0,0.0
4323,82.0,13,23,2.0,0.0
4324,53.0,0,45,2.0,0.0
4325,75.0,3,45,3.0,0.0
4326,72.0,0,45,3.0,0.0
4327,65.0,0,45,3.0,0.0
4328,72.0,12,12,2.0,0.0
4329,41.0,0,45,3.0,0.0
4330,74.0,12,12,2.0,0.0
4331,72.0,9,12,2.0,0.0
4332,74.0,12,12,2.0,0.0
4333,72.0,12,12,2.0,0.0
4334,63.0,4,89,3.0,0.0
4335,72.0,0,89,3.0,0.0
4336,63.0,3,45,2.0,0.0
4337,74.0,12,12,2.0,0.0
4338,72.0,9,12,2.0,0.0
4339,74.0,12,12,2.0,0.0
4340,57.0,3,45,2.0,0.0
4341,72.0,12,12,2.0,0.0
4342,41.0,0,45,3.0,0.0
4343,65.0,0,45,3.0,0.0
4344,74.0,12,12,2.0,0.0
4345,72.0,5,12,2.0,0.0
4346,74.0,12,12,2.0,0.0
4347,72.0,12,12,2.0,0.0
4348,69.0,0,45,3.0,0.0
4349,63.0,92,45,2.0,0.0
4350,60.0,0,45,3.0,0.0
4351,74.0,9,12,2.0,0.0
4352,72.0,12,9,2.0,0.0
4353,58.0,0,89,2.0,0.0
4354,70.0,0,89,2.0,0.0
4355,70.0,140,89,3.0,0.0
4356,65.0,0,89,3.0,0.0
4357,62.0,0,89,3.0,0.0
4358,46.0,0,89,3.0,0.0
4359,62.0,0,89,2.0,0.0
4360,62.0,21,133,3.0,0.0
4361,70.0,0,133,3.0,0.0
4362,65.0,0,177,1.0,0.0
4363,65.0,0,177,3.0,0.0
4364,41.0,0,177,3.0,0.0
4365,69.0,0,10,3.0,0.0
4366,60.0,24,10,3.0,0.0
4367,62.0,37,10,3.0,0.0
4368,70.0,0,10,3.0,0.0
4369,69.0,0,89,0.0,0.0
4370,63.0,24,23,3.0,0.0
4371,75.0,96,89,0.0,0.0
4372,72.0,0,23,3.0,0.0
4373,60.0,11,23,3.0,0.0
4374,69.0,0,23,3.0,0.0
4375,72.0,23,10,3.0,0.0
4376,63.0,0,10,3.0,0.0
4377,69.0,0,10,3.0,0.0
4378,60.0,7,10,3.0,0.0
4379,62.0,0,89,3.0,0.0
4380,62.0,140,89,1.0,0.0
4381,34.0,0,89,3.0,0.0
4382,74.0,0,89,0.0,0.0
4383,70.0,0,89,0.0,0.0
4384,70.0,0,89,1.0,0.0
4385,70.0,0,89,3.0,0.0
4386,62.0,0,133,3.0,0.0
4387,70.0,0,133,3.0,0.0
4388,74.0,21,133,3.0,0.0
4389,41.0,0,177,3.0,0.0
4390,65.0,0,177,3.0,0.0
4391,65.0,0,177,1.0,0.0
4392,72.0,24,10,3.0,0.0
4393,69.0,0,10,3.0,0.0
4394,70.0,37,10,3.0,0.0
4395,74.0,0,10,3.0,0.0
4396,75.0,24,23,3.0,0.0
4397,81.0,52,89,0.0,0.0
4398,72.0,0,23,3.0,0.0
4399,75.0,0,89,0.0,0.0
4400,72.0,11,23,3.0,0.0
4401,69.0,0,23,3.0,0.0
4402,75.0,0,10,3.0,0.0
4403,72.0,23,10,3.0,0.0
4404,69.0,0,10,3.0,0.0
4405,72.0,7,10,3.0,0.0
4406,46.0,0,89,3.0,0.0
4407,82.0,0,89,0.0,0.0
4408,74.0,0,89,3.0,0.0
4409,70.0,0,89,3.0,0.0
4410,58.0,0,89,1.0,0.0
4411,70.0,0,89,1.0,0.0
4412,74.0,0,89,0.0,0.0
4413,58.0,44,45,2.0,0.0
4414,58.0,4,89,3.0,0.0
4415,74.0,0,45,2.0,0.0
4416,70.0,48,45,2.0,0.0
4417,74.0,48,45,2.0,0.0
4418,77.0,8,133,2.0,0.0
4419,70.0,0,45,2.0,0.0
4420,74.0,40,45,2.0,0.0
4421,70.0,0,45,2.0,0.0
4422,74.0,26,45,2.0,0.0
4423,70.0,0,45,2.0,0.0
4424,70.0,0,45,2.0,0.0
4425,80.0,22,23,2.0,0.0
4426,74.0,2,45,2.0,0.0
4427,79.0,7,23,2.0,0.0
4428,82.0,39,6,2.0,0.0
4429,74.0,0,45,2.0,0.0
4430,70.0,0,45,2.0,0.0
4431,80.0,26,39,2.0,0.0
4432,70.0,0,45,2.0,0.0
4433,79.0,22,23,2.0,0.0
4434,74.0,2,45,2.0,0.0
4435,77.0,13,23,2.0,0.0
4436,74.0,12,12,2.0,0.0
4437,70.0,3,45,2.0,0.0
4438,68.0,0,45,2.0,0.0
4439,39.0,4,89,3.0,0.0
4440,75.0,12,12,2.0,0.0
4441,74.0,9,12,2.0,0.0
4442,75.0,12,12,2.0,0.0
4443,70.0,0,45,2.0,0.0
4444,74.0,12,12,2.0,0.0
4445,68.0,3,45,2.0,0.0
4446,75.0,12,12,2.0,0.0
4447,74.0,5,12,2.0,0.0
4448,75.0,12,12,2.0,0.0
4449,74.0,12,12,2.0,0.0
4450,68.0,0,45,2.0,0.0
4451,70.0,26,45,2.0,0.0
4452,75.0,12,12,2.0,0.0
4453,74.0,1,12,2.0,0.0
4454,75.0,8,1,2.0,0.0
4455,68.0,2,45,2.0,0.0
4456,70.0,0,45,2.0,0.0
4457,75.0,22,23,2.0,0.0
4458,77.0,46,23,2.0,0.0
4459,70.0,44,45,2.0,0.0
4460,75.0,4,89,2.0,0.0
4461,67.0,0,45,2.0,0.0
4462,70.0,0,45,2.0,0.0
4463,67.0,48,45,2.0,0.0
4464,70.0,48,45,2.0,0.0
4465,67.0,0,45,2.0,0.0
4466,70.0,0,45,2.0,0.0
4467,67.0,48,45,2.0,0.0
4468,75.0,0,45,2.0,0.0
4469,82.0,0,45,2.0,0.0
4470,72.0,48,45,2.0,0.0
4471,65.0,0,45,2.0,0.0
4472,80.0,0,45,2.0,0.0
4473,65.0,0,45,2.0,0.0
4474,72.0,48,45,2.0,0.0
4475,65.0,48,45,2.0,0.0
4476,72.0,0,45,2.0,0.0
4477,80.0,8,133,2.0,0.0
4478,72.0,40,45,2.0,0.0
4479,65.0,0,45,2.0,0.0
4480,72.0,15,45,2.0,0.0
4481,65.0,0,45,2.0,0.0
4482,65.0,0,45,2.0,0.0
4483,72.0,48,45,2.0,0.0
4484,80.0,12,12,2.0,0.0
4485,82.0,12,12,2.0,0.0
4486,80.0,9,12,2.0,0.0
4487,82.0,0,9,2.0,0.0
4488,82.0,48,45,2.0,0.0
4489,65.0,0,45,2.0,0.0
4490,72.0,0,45,2.0,0.0
4491,65.0,48,45,2.0,0.0
4492,84.0,0,45,2.0,0.0
4493,72.0,0,45,2.0,0.0
4494,65.0,48,45,2.0,0.0
4495,62.0,0,45,2.0,0.0
4496,82.0,8,133,2.0,0.0
4497,65.0,0,45,2.0,0.0
4498,62.0,40,45,2.0,0.0
4499,65.0,26,45,2.0,0.0
4500,62.0,0,45,2.0,0.0
4501,65.0,0,45,2.0,0.0
4502,62.0,2,45,2.0,0.0
4503,84.0,22,23,2.0,0.0
4504,80.0,46,23,2.0,0.0
4505,79.0,4,89,2.0,0.0
4506,63.0,44,45,2.0,0.0
4507,70.0,0,45,2.0,0.0
4508,63.0,48,45,2.0,0.0
4509,70.0,0,45,2.0,0.0
4510,70.0,26,45,2.0,0.0
4511,63.0,0,45,2.0,0.0
4512,79.0,22,23,2.0,0.0
4513,70.0,0,45,2.0,0.0
4514,63.0,2,45,2.0,0.0
4515,75.0,24,23,2.0,0.0
4516,74.0,22,23,2.0,0.0
4517,55.0,0,45,3.0,0.0
4518,51.0,2,45,2.0,0.0
4519,60.0,0,45,3.0,0.0
4520,58.0,0,45,3.0,0.0
4521,72.0,24,23,2.0,0.0
4522,58.0,2,45,2.0,0.0
4523,71.0,22,23,2.0,0.0
4524,72.0,24,23,2.0,0.0
4525,71.0,22,23,2.0,0.0
4526,56.0,2,45,3.0,0.0
4527,55.0,0,45,2.0,0.0
4528,72.0,24,23,2.0,0.0
4529,71.0,22,23,2.0,0.0
4530,58.0,2,45,2.0,0.0
4531,72.0,24,23,2.0,0.0
4532,53.0,0,45,2.0,0.0
4533,62.0,0,45,3.0,0.0
4534,75.0,22,23,2.0,0.0
4535,58.0,2,45,3.0,0.0
4536,74.0,24,23,2.0,0.0
4537,73.0,22,23,2.0,0.0
4538,58.0,2,45,2.0,0.0
4539,74.0,24,23,2.0,0.0
4540,73.0,22,23,2.0,0.0
4541,56.0,2,45,2.0,0.0
4542,74.0,24,23,2.0,0.0
4543,58.0,2,45,2.0,0.0
4544,73.0,22,23,2.0,0.0
4545,74.0,24,23,2.0,0.0
4546,55.0,2,45,2.0,0.0
4547,63.0,0,45,3.0,0.0
4548,55.0,0,45,3.0,0.0
4549,58.0,0,45,3.0,0.0
4550,77.0,22,23,2.0,0.0
4551,75.0,24,23,2.0,0.0
4552,74.0,22,23,2.0,0.0
4553,58.0,2,45,2.0,0.0
4554,75.0,24,23,2.0,0.0
4555,55.0,0,45,2.0,0.0
4556,58.0,0,45,3.0,0.0
4557,55.0,0,45,3.0,0.0
4558,77.0,22,23,2.0,0.0
4559,64.0,2,45,3.0,0.0
4560,76.0,24,23,2.0,0.0
4561,74.0,22,23,2.0,0.0
4562,58.0,2,45,2.0,0.0
4563,76.0,24,23,2.0,0.0
4564,58.0,0,45,3.0,0.0
4565,50.0,0,45,3.0,0.0
4566,77.0,22,23,2.0,0.0
4567,50.0,0,45,2.0,0.0
4568,65.0,2,45,3.0,0.0
4569,75.0,24,23,2.0,0.0
4570,74.0,22,23,2.0,0.0
4571,58.0,2,45,2.0,0.0
4572,72.0,24,23,2.0,0.0
4573,70.0,22,23,2.0,0.0
4574,65.0,0,45,3.0,0.0
4575,58.0,2,45,3.0,0.0
4576,50.0,0,45,2.0,0.0
4577,68.0,0,45,3.0,0.0
4578,68.0,24,23,2.0,0.0
4579,67.0,22,23,2.0,0.0
4580,58.0,2,45,2.0,0.0
4581,68.0,46,23,2.0,0.0
4582,58.0,0,89,2.0,0.0
4583,51.0,0,89,2.0,0.0
4584,58.0,4,89,3.0,0.0
4585,67.0,44,45,2.0,0.0
4586,63.0,0,89,3.0,0.0
4587,67.0,0,89,3.0,0.0
4588,78.0,48,45,2.0,0.0
4589,79.0,48,45,2.0,0.0
4590,83.0,48,45,2.0,0.0
4591,84.0,48,45,2.0,0.0
4592,87.0,48,45,2.0,0.0
4593,79.0,44,45,2.0,0.0
4594,75.0,4,89,2.0,0.0
4595,63.0,0,89,2.0,0.0
4596,84.0,92,45,2.0,0.0
4597,74.0,88,89,2.0,0.0
4598,65.0,8,177,2.0,0.0
4599,82.0,0,89,2.0,0.0
4600,72.0,0,89,2.0,0.0
4601,81.0,4,89,2.0,0.0
4602,65.0,48,45,3.0,0.0
4603,53.0,0,45,3.0,0.0
4604,77.0,0,45,3.0,0.0
4605,52.0,0,45,3.0,0.0
4606,64.0,0,45,3.0,0.0
4607,76.0,0,45,3.0,0.0
4608,65.0,0,45,3.0,0.0
4609,53.0,0,45,3.0,0.0
4610,77.0,0,45,3.0,0.0
4611,64.0,0,45,3.0,0.0
4612,52.0,0,45,3.0,0.0
4613,76.0,0,45,3.0,0.0
4614,53.0,0,45,3.0,0.0
4615,65.0,0,45,3.0,0.0
4616,77.0,0,45,3.0,0.0
4617,53.0,6,89,3.0,0.0
4618,53.0,0,89,2.0,0.0
4619,41.0,0,89,3.0,0.0
4620,65.0,0,89,3.0,0.0
4621,65.0,24,23,2.0,0.0
4622,64.0,18,23,2.0,0.0
4623,65.0,24,23,2.0,0.0
4624,67.0,24,23,2.0,0.0
4625,65.0,24,23,2.0,0.0
4626,69.0,22,23,2.0,0.0
4627,63.0,2,45,2.0,0.0
4628,65.0,24,23,2.0,0.0
4629,62.0,2,45,2.0,0.0
4630,70.0,22,23,2.0,0.0
4631,65.0,24,23,2.0,0.0
4632,72.0,22,23,2.0,0.0
4633,57.0,2,45,2.0,0.0
4634,65.0,24,23,2.0,0.0
4635,58.0,2,45,2.0,0.0
4636,74.0,22,23,2.0,0.0
4637,65.0,24,23,2.0,0.0
4638,60.0,2,45,2.0,0.0
4639,75.0,22,23,2.0,0.0
4640,65.0,24,23,2.0,0.0
4641,74.0,2,45,2.0,0.0
4642,58.0,22,23,2.0,0.0
4643,65.0,24,23,2.0,0.0
4644,64.0,24,23,2.0,0.0
4645,65.0,21,23,2.0,0.0
4646,63.0,24,23,2.0,0.0
4647,79.0,3,20,2.0,0.0
4648,65.0,21,23,2.0,0.0
4649,62.0,24,23,2.0,0.0
4650,77.0,3,20,2.0,0.0
4651,65.0,13,23,2.0,0.0
4652,60.0,1,23,2.0,0.0
4653,75.0,11,12,2.0,0.0
4654,77.0,12,12,2.0,0.0
4655,65.0,24,23,2.0,0.0
4656,75.0,9,12,2.0,0.0
4657,77.0,2,9,2.0,0.0
4658,58.0,22,23,2.0,0.0
4659,74.0,2,45,2.0,0.0
4660,65.0,13,23,2.0,0.0
4661,72.0,11,12,2.0,0.0
4662,57.0,1,23,2.0,0.0
4663,74.0,12,12,2.0,0.0
4664,65.0,24,23,2.0,0.0
4665,72.0,9,12,2.0,0.0
4666,74.0,2,9,2.0,0.0
4667,55.0,22,23,2.0,0.0
4668,70.0,2,45,2.0,0.0
4669,65.0,24,23,2.0,0.0
4670,69.0,24,23,2.0,0.0
4671,53.0,6,89,2.0,0.0
4672,65.0,24,23,2.0,0.0
4673,64.0,18,23,2.0,0.0
4674,65.0,24,23,2.0,0.0
4675,67.0,24,23,2.0,0.0
4676,65.0,24,23,2.0,0.0
4677,63.0,2,45,2.0,0.0
4678,69.0,22,23,2.0,0.0
4679,65.0,24,23,2.0,0.0
4680,62.0,2,45,2.0,0.0
4681,70.0,22,23,2.0,0.0
4682,65.0,24,23,2.0,0.0
4683,72.0,22,23,2.0,0.0
4684,57.0,2,45,2.0,0.0
4685,65.0,24,23,2.0,0.0
4686,74.0,22,23,2.0,0.0
4687,58.0,2,45,2.0,0.0
4688,65.0,24,23,2.0,0.0
4689,75.0,22,23,2.0,0.0
4690,60.0,2,45,2.0,0.0
4691,65.0,24,23,2.0,0.0
4692,58.0,22,23,2.0,0.0
4693,74.0,2,45,2.0,0.0
4694,65.0,24,23,2.0,0.0
4695,64.0,24,23,2.0,0.0
4696,65.0,21,23,2.0,0.0
4697,63.0,24,23,2.0,0.0
4698,79.0,3,20,2.0,0.0
4699,65.0,21,23,2.0,0.0
4700,62.0,24,23,2.0,0.0
4701,77.0,3,20,2.0,0.0
4702,65.0,13,23,2.0,0.0
4703,60.0,1,23,2.0,0.0
4704,75.0,11,12,2.0,0.0
4705,77.0,12,12,2.0,0.0
4706,75.0,9,12,2.0,0.0
4707,65.0,24,23,2.0,0.0
4708,77.0,2,9,2.0,0.0
4709,74.0,2,45,2.0,0.0
4710,58.0,22,23,2.0,0.0
4711,65.0,13,23,2.0,0.0
4712,63.0,1,23,2.0,0.0
4713,72.0,11,12,2.0,0.0
4714,74.0,12,12,2.0,0.0
4715,72.0,9,12,2.0,0.0
4716,65.0,24,23,2.0,0.0
4717,74.0,2,9,2.0,0.0
4718,62.0,22,23,2.0,0.0
4719,70.0,2,45,2.0,0.0
4720,65.0,48,23,2.0,0.0
4721,67.0,4,89,2.0,0.0
4722,51.0,0,89,3.0,0.0
4723,62.0,24,23,2.0,0.0
4724,63.0,18,23,2.0,0.0
4725,67.0,2,45,3.0,0.0
4726,62.0,46,23,2.0,0.0
4727,63.0,4,89,2.0,0.0
4728,63.0,2,45,3.0,0.0
4729,74.0,21,23,2.0,0.0
4730,75.0,18,23,2.0,0.0
4731,72.0,2,45,3.0,0.0
4732,60.0,3,20,3.0,0.0
4733,72.0,46,23,2.0,0.0
4734,69.0,2,45,3.0,0.0
4735,53.0,4,89,3.0,0.0
4736,69.0,0,89,2.0,0.0
4737,64.0,24,23,2.0,0.0
4738,65.0,2,45,3.0,0.0
4739,69.0,0,45,3.0,0.0
4740,65.0,18,23,2.0,0.0
4741,64.0,46,23,2.0,0.0
4742,65.0,2,45,3.0,0.0
4743,65.0,4,89,2.0,0.0
4744,76.0,21,23,2.0,0.0
4745,62.0,3,20,3.0,0.0
4746,74.0,2,45,3.0,0.0
4747,77.0,18,23,2.0,0.0
4748,74.0,46,23,2.0,0.0
4749,70.0,4,89,2.0,0.0
4750,70.0,2,45,3.0,0.0
4751,55.0,0,89,3.0,0.0
4752,66.0,24,23,2.0,0.0
4753,70.0,2,45,3.0,0.0
4754,67.0,18,23,2.0,0.0
4755,67.0,0,45,3.0,0.0
4756,66.0,46,23,2.0,0.0
4757,67.0,4,89,2.0,0.0
4758,67.0,2,45,3.0,0.0
4759,78.0,21,23,2.0,0.0
4760,79.0,18,23,2.0,0.0
4761,75.0,2,45,3.0,0.0
4762,63.0,3,20,3.0,0.0
4763,75.0,46,23,2.0,0.0
4764,72.0,4,89,2.0,0.0
4765,72.0,2,45,3.0,0.0
4766,57.0,0,89,3.0,0.0
4767,68.0,24,23,2.0,0.0
4768,72.0,0,45,3.0,0.0
4769,69.0,18,23,2.0,0.0
4770,69.0,2,45,3.0,0.0
4771,68.0,46,23,2.0,0.0
4772,69.0,2,45,3.0,0.0
4773,69.0,4,89,2.0,0.0
4774,76.0,21,23,2.0,0.0
4775,75.0,0,45,3.0,0.0
4776,72.0,3,20,3.0,0.0
4777,77.0,18,23,2.0,0.0
4778,65.0,2,45,3.0,0.0
4779,75.0,24,23,2.0,0.0
4780,74.0,0,89,3.0,0.0
4781,74.0,22,23,2.0,0.0
4782,58.0,0,89,3.0,0.0
4783,70.0,2,45,2.0,0.0
4784,65.0,0,89,3.0,0.0
4785,70.0,6,89,3.0,0.0
4786,77.0,24,23,2.0,0.0
4787,82.0,18,23,2.0,0.0
4788,77.0,24,23,2.0,0.0
4789,65.0,12,177,3.0,0.0
4790,75.0,2,45,2.0,0.0
4791,81.0,22,23,2.0,0.0
4792,84.0,24,23,2.0,0.0
4793,81.0,24,23,2.0,0.0
4794,77.0,24,23,2.0,0.0
4795,82.0,22,23,2.0,0.0
4796,74.0,2,45,2.0,0.0
4797,77.0,24,23,2.0,0.0
4798,82.0,0,45,3.0,0.0
4799,70.0,2,45,2.0,0.0
4800,74.0,10,23,2.0,0.0
4801,77.0,21,23,2.0,0.0
4802,81.0,0,45,3.0,0.0
4803,75.0,22,23,2.0,0.0
4804,77.0,3,20,3.0,0.0
4805,72.0,2,45,2.0,0.0
4806,77.0,21,23,2.0,0.0
4807,72.0,22,23,2.0,0.0
4808,75.0,2,45,3.0,0.0
4809,77.0,3,20,3.0,0.0
4810,69.0,0,45,2.0,0.0
4811,77.0,24,23,2.0,0.0
4812,70.0,2,45,2.0,0.0
4813,74.0,0,89,3.0,0.0
4814,77.0,6,89,3.0,0.0
4815,74.0,22,23,2.0,0.0
4816,77.0,24,23,2.0,0.0
4817,74.0,18,23,2.0,0.0
4818,70.0,24,23,2.0,0.0
4819,77.0,12,177,3.0,0.0
4820,63.0,2,45,2.0,0.0
4821,69.0,22,23,2.0,0.0
4822,72.0,24,23,2.0,0.0
4823,69.0,24,23,2.0,0.0
4824,65.0,24,23,2.0,0.0
4825,70.0,22,23,2.0,0.0
4826,50.0,2,45,2.0,0.0
4827,65.0,24,23,2.0,0.0
4828,62.0,10,23,2.0,0.0
4829,70.0,2,45,3.0,0.0
4830,46.0,0,45,2.0,0.0
4831,65.0,21,23,2.0,0.0
4832,69.0,0,45,3.0,0.0
4833,63.0,22,23,2.0,0.0
4834,48.0,2,45,2.0,0.0
4835,65.0,3,20,3.0,0.0
4836,65.0,21,23,2.0,0.0
4837,45.0,2,45,2.0,0.0
4838,63.0,3,20,3.0,0.0
4839,65.0,0,20,3.0,0.0
4840,60.0,22,23,2.0,0.0
4841,65.0,46,23,2.0,0.0
4842,62.0,44,45,2.0,0.0
4843,62.0,0,89,3.0,0.0
4844,46.0,0,89,2.0,0.0
4845,65.0,4,89,3.0,0.0
4846,53.0,48,45,2.0,0.0
4847,58.0,48,45,2.0,0.0
4848,62.0,48,45,2.0,0.0
4849,65.0,48,45,2.0,0.0
4850,70.0,48,45,2.0,0.0
4851,74.0,23,45,2.0,0.0
4852,77.0,51,20,2.0,0.0
4853,58.0,2,45,3.0,0.0
4854,80.0,8,177,2.0,0.0
4855,58.0,0,354,1.0,0.0
4856,56.0,0,45,3.0,0.0
4857,70.0,5,354,1.0,0.0
4858,77.0,0,354,0.0,0.0
4859,80.0,0,354,0.0,0.0
4860,38.0,6,89,3.0,0.0
4861,53.0,0,45,3.0,0.0
4862,50.0,22,23,2.0,0.0
4863,58.0,24,23,2.0,0.0
4864,56.0,6,89,3.0,0.0
4865,53.0,0,89,3.0,0.0
4866,58.0,0,89,3.0,0.0
4867,53.0,18,23,2.0,0.0
4868,58.0,24,23,2.0,0.0
4869,38.0,6,89,3.0,0.0
4870,50.0,18,23,2.0,0.0
4871,58.0,24,23,2.0,0.0
4872,53.0,6,89,3.0,0.0
4873,56.0,0,89,3.0,0.0
4874,58.0,0,89,3.0,0.0
4875,53.0,10,23,2.0,0.0
4876,58.0,13,23,2.0,0.0
4877,68.0,11,12,2.0,0.0
4878,50.0,1,23,2.0,0.0
4879,38.0,6,89,3.0,0.0
4880,70.0,12,12,2.0,0.0
4881,68.0,5,12,2.0,0.0
4882,58.0,1,23,2.0,0.0
4883,70.0,12,12,2.0,0.0
4884,68.0,11,12,2.0,0.0
4885,56.0,0,89,3.0,0.0
4886,53.0,6,89,3.0,0.0
4887,58.0,0,89,3.0,0.0
4888,53.0,1,23,2.0,0.0
4889,70.0,12,12,2.0,0.0
4890,58.0,1,23,2.0,0.0
4891,68.0,5,12,2.0,0.0
4892,70.0,12,12,2.0,0.0
4893,68.0,11,12,2.0,0.0
4894,38.0,4,89,3.0,0.0
4895,50.0,1,23,2.0,0.0
4896,70.0,12,12,2.0,0.0
4897,68.0,5,12,2.0,0.0
4898,58.0,1,23,2.0,0.0
4899,70.0,12,12,2.0,0.0
4900,53.0,0,45,3.0,0.0
4901,58.0,0,45,3.0,0.0
4902,56.0,2,45,3.0,0.0
4903,53.0,1,23,2.0,0.0
4904,68.0,6,12,2.0,0.0
4905,70.0,9,12,2.0,0.0
4906,68.0,8,9,2.0,0.0
4907,58.0,24,23,2.0,0.0
4908,39.0,0,89,3.0,0.0
4909,51.0,0,89,2.0,0.0
4910,55.0,0,89,3.0,0.0
4911,58.0,6,89,3.0,0.0
4912,51.0,0,89,3.0,0.0
4913,79.0,0,89,0.0,0.0
4914,67.0,24,23,2.0,0.0
4915,70.0,0,89,1.0,0.0
4916,58.0,0,89,1.0,0.0
4917,75.0,0,89,0.0,0.0
4918,69.0,24,23,2.0,0.0
4919,70.0,18,23,2.0,0.0
4920,69.0,24,23,2.0,0.0
4921,70.0,24,23,2.0,0.0
4922,71.0,24,23,2.0,0.0
4923,72.0,24,23,2.0,0.0
4924,71.0,24,23,2.0,0.0
4925,72.0,24,23,2.0,0.0
4926,74.0,24,23,2.0,0.0
4927,75.0,24,23,2.0,0.0
4928,74.0,46,23,2.0,0.0
4929,75.0,26,45,2.0,0.0
4930,74.0,24,23,2.0,0.0
4931,72.0,46,23,2.0,0.0
4932,50.0,22,45,2.0,0.0
4933,77.0,26,67,2.0,0.0
4934,58.0,2,45,2.0,0.0
4935,70.0,46,23,2.0,0.0
4936,75.0,22,67,2.0,0.0
4937,70.0,3,177,3.0,0.0
4938,55.0,22,45,2.0,0.0
4939,63.0,4,89,3.0,0.0
4940,58.0,2,45,2.0,0.0
4941,72.0,13,23,2.0,0.0
4942,67.0,4,89,3.0,0.0
4943,51.0,3,45,2.0,0.0
4944,72.0,12,12,2.0,0.0
4945,74.0,12,12,2.0,0.0
4946,72.0,9,12,2.0,0.0
4947,74.0,12,12,2.0,0.0
4948,72.0,12,12,2.0,0.0
4949,58.0,3,45,2.0,0.0
4950,74.0,9,12,2.0,0.0
4951,72.0,5,12,2.0,0.0
4952,74.0,12,12,2.0,0.0
4953,72.0,12,12,2.0,0.0
4954,53.0,3,45,2.0,0.0
4955,65.0,0,45,3.0,0.0
4956,69.0,4,89,3.0,0.0
4957,74.0,12,12,2.0,0.0
4958,72.0,9,12,2.0,0.0
4959,74.0,12,12,2.0,0.0
4960,72.0,12,12,2.0,0.0
4961,63.0,42,45,3.0,0.0
4962,57.0,0,45,2.0,0.0
4963,74.0,9,12,2.0,0.0
4964,72.0,8,9,2.0,0.0
4965,70.0,0,39,3.0,0.0
4966,58.0,0,89,2.0,0.0
4967,70.0,140,89,2.0,0.0
4968,46.0,0,89,2.0,0.0
4969,62.0,50,39,3.0,0.0
4970,65.0,56,133,3.0,0.0
4971,57.0,44,133,3.0,0.0
4972,51.0,12,177,3.0,0.0
4973,39.0,0,177,3.0,0.0
4974,67.0,40,45,3.0,0.0
4975,65.0,48,141,3.0,0.0
4976,60.0,48,45,3.0,0.0
4977,50.0,0,177,3.0,0.0
4978,38.0,12,177,3.0,0.0
4979,58.0,44,133,3.0,0.0
4980,67.0,40,45,3.0,0.0
4981,65.0,56,133,3.0,0.0
4982,62.0,40,45,3.0,0.0
4983,60.0,44,133,3.0,0.0
4984,57.0,12,177,3.0,0.0
4985,33.0,0,177,3.0,0.0
4986,77.0,40,45,3.0,0.0
4987,75.0,44,141,3.0,0.0
4988,72.0,48,45,3.0,0.0
4989,58.0,0,89,3.0,0.0
4990,46.0,8,177,2.0,0.0
4991,65.0,0,89,3.0,0.0
4992,34.0,4,89,3.0,0.0
4993,53.0,44,133,2.0,0.0
4994,73.0,40,45,3.0,0.0
4995,74.0,4,89,3.0,0.0
4996,65.0,56,133,2.0,0.0
4997,58.0,40,45,2.0,0.0
4998,51.0,12,177,2.0,0.0
4999,57.0,44,133,2.0,0.0
5000,67.0,40,45,2.0,0.0
5001,65.0,48,141,2.0,0.0
5002,58.0,48,45,2.0,0.0
5003,50.0,12,177,2.0,0.0
5004,58.0,44,133,2.0,0.0
5005,67.0,40,45,2.0,0.0
5006,65.0,56,133,2.0,0.0
5007,62.0,40,45,2.0,0.0
5008,57.0,12,177,2.0,0.0
5009,60.0,44,133,2.0,0.0
5010,77.0,40,45,2.0,0.0
5011,75.0,0,141,2.0,0.0
5012,65.0,48,45,2.0,0.0
5013,65.0,8,133,2.0,0.0
5014,65.0,48,45,3.0,0.0
5015,58.0,0,177,2.0,0.0
5016,58.0,23,45,3.0,0.0
5017,77.0,0,45,2.0,0.0
5018,74.0,8,133,2.0,0.0
5019,62.0,17,20,3.0,0.0
5020,62.0,0,45,2.0,0.0
5021,65.0,23,45,3.0,0.0
5022,67.0,17,20,3.0,0.0
5023,63.0,48,45,3.0,0.0
5024,51.0,0,177,3.0,0.0
5025,57.0,8,133,2.0,0.0
5026,51.0,12,177,2.0,0.0
5027,75.0,0,45,2.0,0.0
5028,55.0,23,45,3.0,0.0
5029,72.0,0,141,2.0,0.0
5030,60.0,17,20,3.0,0.0
5031,63.0,23,45,3.0,0.0
5032,65.0,0,45,2.0,0.0
5033,65.0,25,20,3.0,0.0
5034,62.0,8,133,2.0,0.0
5035,53.0,12,177,2.0,0.0
5036,62.0,9,45,3.0,0.0
5037,53.0,0,177,3.0,0.0
5038,58.0,0,45,3.0,0.0
5039,75.0,39,6,2.0,0.0
5040,74.0,23,39,2.0,0.0
5041,70.0,8,133,2.0,0.0
5042,65.0,17,20,3.0,0.0
5043,58.0,23,45,2.0,0.0
5044,70.0,0,45,3.0,0.0
5045,53.0,0,177,3.0,0.0
5046,53.0,8,177,2.0,0.0
5047,63.0,17,20,3.0,0.0
5048,63.0,8,133,2.0,0.0
5049,60.0,0,45,3.0,0.0
5050,74.0,39,6,2.0,0.0
5051,72.0,23,39,2.0,0.0
5052,69.0,4,89,2.0,0.0
5053,69.0,17,20,3.0,0.0
5054,75.0,36,45,3.0,0.0
5055,69.0,13,45,3.0,0.0
5056,60.0,0,45,2.0,0.0
5057,62.0,10,10,3.0,0.0
5058,62.0,0,89,2.0,0.0
5059,53.0,0,45,3.0,0.0
5060,70.0,0,89,2.0,0.0
5061,58.0,17,89,2.0,0.0
5062,46.0,13,45,3.0,0.0
5063,70.0,14,20,3.0,0.0
5064,65.0,11,10,3.0,0.0
5065,62.0,24,10,3.0,0.0
5066,65.0,7,10,3.0,0.0
5067,62.0,24,10,3.0,0.0
5068,70.0,13,45,3.0,0.0
5069,65.0,11,10,3.0,0.0
5070,62.0,24,10,3.0,0.0
5071,69.0,13,45,3.0,0.0
5072,65.0,11,10,3.0,0.0
5073,72.0,14,20,3.0,0.0
5074,41.0,13,45,3.0,0.0
5075,57.0,0,45,3.0,0.0
5076,63.0,10,10,3.0,0.0
5077,65.0,11,10,3.0,0.0
5078,63.0,24,10,3.0,0.0
5079,65.0,24,10,3.0,0.0
5080,63.0,24,10,3.0,0.0
5081,72.0,13,45,3.0,0.0
5082,65.0,11,10,3.0,0.0
5083,70.0,13,45,3.0,0.0
5084,63.0,24,10,3.0,0.0
5085,65.0,11,10,3.0,0.0
5086,58.0,0,45,3.0,0.0
5087,62.0,10,10,3.0,0.0
5088,74.0,14,20,3.0,0.0
5089,34.0,13,45,3.0,0.0
5090,65.0,11,10,3.0,0.0
5091,62.0,24,10,3.0,0.0
5092,65.0,24,10,3.0,0.0
5093,58.0,24,10,3.0,0.0
5094,74.0,13,45,3.0,0.0
5095,65.0,11,10,3.0,0.0
5096,72.0,13,45,3.0,0.0
5097,58.0,24,10,3.0,0.0
5098,65.0,11,10,3.0,0.0
5099,69.0,13,45,3.0,0.0
5100,72.0,0,177,1.0,0.0
5101,75.0,0,45,3.0,0.0
5102,45.0,0,45,3.0,0.0
5103,60.0,24,10,3.0,0.0
5104,75.0,0,177,0.0,0.0
5105,84.0,1,177,0.0,0.0
5106,65.0,0,177,1.0,0.0
5107,65.0,11,10,3.0,0.0
5108,60.0,24,10,3.0,0.0
5109,75.0,9,45,3.0,0.0
5110,69.0,0,45,3.0,0.0
5111,45.0,0,45,3.0,0.0
5112,65.0,11,10,3.0,0.0
5113,45.0,13,45,3.0,0.0
5114,77.0,4,6,3.0,0.0
5115,69.0,0,45,3.0,0.0
5116,60.0,24,10,3.0,0.0
5117,75.0,0,39,3.0,0.0
5118,65.0,11,10,3.0,0.0
5119,63.0,13,10,3.0,0.0
5120,74.0,10,23,3.0,0.0
5121,45.0,2,45,3.0,0.0
5122,69.0,0,45,3.0,0.0
5123,72.0,24,23,3.0,0.0
5124,65.0,11,10,3.0,0.0
5125,74.0,0,45,0.0,0.0
5126,70.0,2,45,1.0,0.0
5127,58.0,0,45,1.0,0.0
5128,62.0,0,45,3.0,0.0
5129,46.0,0,45,3.0,0.0
5130,58.0,22,23,2.0,0.0
5131,82.0,0,45,0.0,0.0
5132,70.0,0,45,3.0,0.0
5133,65.0,24,23,2.0,0.0
5134,62.0,24,23,2.0,0.0
5135,65.0,24,23,2.0,0.0
5136,62.0,0,23,2.0,0.0
5137,70.0,24,23,2.0,0.0
5138,65.0,0,23,2.0,0.0
5139,69.0,24,23,2.0,0.0
5140,62.0,0,23,2.0,0.0
5141,70.0,24,23,2.0,0.0
5142,65.0,0,23,2.0,0.0
5143,69.0,24,23,2.0,0.0
5144,63.0,2,45,3.0,0.0
5145,31.0,0,45,3.0,0.0
5146,53.0,0,45,3.0,0.0
5147,72.0,0,45,2.0,0.0
5148,57.0,22,23,2.0,0.0
5149,57.0,0,45,3.0,0.0
5150,65.0,24,23,2.0,0.0
5151,63.0,24,23,2.0,0.0
5152,65.0,24,23,2.0,0.0
5153,63.0,0,23,2.0,0.0
5154,72.0,24,23,2.0,0.0
5155,65.0,24,23,2.0,0.0
5156,70.0,0,23,2.0,0.0
5157,63.0,0,23,2.0,0.0
5158,72.0,24,23,2.0,0.0
5159,70.0,0,23,2.0,0.0
5160,65.0,24,23,2.0,0.0
5161,53.0,0,45,3.0,0.0
5162,58.0,0,45,3.0,0.0
5163,74.0,0,45,2.0,0.0
5164,58.0,22,23,2.0,0.0
5165,62.0,0,45,3.0,0.0
5166,34.0,2,45,3.0,0.0
5167,65.0,24,23,2.0,0.0
5168,62.0,24,23,2.0,0.0
5169,65.0,24,23,2.0,0.0
5170,74.0,24,23,2.0,0.0
5171,62.0,0,23,2.0,0.0
5172,72.0,24,23,2.0,0.0
5173,65.0,0,23,2.0,0.0
5174,62.0,24,23,2.0,0.0
5175,74.0,0,23,2.0,0.0
5176,72.0,21,23,2.0,0.0
5177,65.0,0,23,2.0,0.0
5178,75.0,0,177,3.0,0.0
5179,60.0,14,177,3.0,0.0
5180,75.0,3,20,2.0,0.0
5181,69.0,0,177,3.0,0.0
5182,41.0,2,45,3.0,0.0
5183,57.0,22,23,2.0,0.0
5184,65.0,21,23,2.0,0.0
5185,60.0,24,23,2.0,0.0
5186,75.0,3,20,2.0,0.0
5187,65.0,7,23,2.0,0.0
5188,57.0,22,23,2.0,0.0
5189,77.0,17,6,2.0,0.0
5190,29.0,2,45,3.0,0.0
5191,75.0,0,39,2.0,0.0
5192,65.0,24,23,2.0,0.0
5193,74.0,0,23,2.0,0.0
5194,60.0,10,23,2.0,0.0
5195,65.0,0,23,2.0,0.0
5196,72.0,24,23,2.0,0.0
5197,34.0,0,89,3.0,0.0
5198,70.0,24,23,2.0,0.0
5199,58.0,0,89,2.0,0.0
5200,74.0,0,89,3.0,0.0
5201,58.0,0,89,3.0,0.0
5202,70.0,6,89,3.0,0.0
5203,82.0,24,23,2.0,0.0
5204,86.0,18,23,2.0,0.0
5205,81.0,24,23,2.0,0.0
5206,82.0,24,23,2.0,0.0
5207,78.0,24,23,2.0,0.0
5208,79.0,24,23,2.0,0.0
5209,74.0,24,23,2.0,0.0
5210,75.0,24,23,2.0,0.0
5211,79.0,24,23,2.0,0.0
5212,82.0,24,23,2.0,0.0
5213,78.0,24,23,2.0,0.0
5214,79.0,24,23,2.0,0.0
5215,74.0,24,23,2.0,0.0
5216,75.0,24,23,2.0,0.0
5217,71.0,24,23,2.0,0.0
5218,60.0,6,89,3.0,0.0
5219,55.0,8,177,3.0,0.0
5220,51.0,0,177,3.0,0.0
5221,72.0,24,23,2.0,0.0
5222,71.0,24,23,2.0,0.0
5223,72.0,18,23,2.0,0.0
5224,71.0,24,23,2.0,0.0
5225,63.0,6,89,3.0,0.0
5226,72.0,22,163,2.0,0.0
5227,51.0,0,23,2.0,0.0
5228,60.0,24,23,3.0,0.0
5229,50.0,0,23,2.0,0.0
5230,59.0,24,23,3.0,0.0
5231,51.0,10,23,2.0,0.0
5232,60.0,0,23,3.0,0.0
5233,50.0,0,23,2.0,0.0
5234,59.0,68,23,3.0,0.0
5235,39.0,8,177,3.0,0.0
5236,51.0,0,177,2.0,0.0
5237,51.0,6,89,3.0,0.0
5238,60.0,0,177,3.0,0.0
5239,67.0,0,89,3.0,0.0
5240,79.0,7,23,2.0,0.0
5241,57.0,0,89,3.0,0.0
5242,77.0,39,6,2.0,0.0
5243,53.0,6,89,3.0,0.0
5244,75.0,26,39,2.0,0.0
5245,74.0,10,23,2.0,0.0
5246,72.0,46,23,2.0,0.0
5247,53.0,0,89,3.0,0.0
5248,50.0,0,89,2.0,0.0
5249,77.0,44,45,2.0,0.0
5250,58.0,0,89,3.0,0.0
5251,38.0,4,89,3.0,0.0
5252,76.0,48,45,2.0,0.0
5253,70.0,3,177,3.0,0.0
5254,55.0,0,89,3.0,0.0
5255,43.0,0,89,3.0,0.0
5256,55.0,4,89,2.0,0.0
5257,58.0,0,177,2.0,0.0
5258,75.0,36,45,2.0,0.0
5259,74.0,15,45,2.0,0.0
5260,63.0,0,89,3.0,0.0
5261,72.0,12,12,2.0,0.0
5262,67.0,0,89,3.0,0.0
5263,51.0,0,89,2.0,0.0
5264,39.0,7,89,3.0,0.0
5265,74.0,12,12,2.0,0.0
5266,72.0,12,12,2.0,0.0
5267,74.0,12,12,2.0,0.0
5268,72.0,12,12,2.0,0.0
5269,74.0,9,12,2.0,0.0
5270,72.0,5,12,2.0,0.0
5271,74.0,12,12,2.0,0.0
5272,72.0,12,12,2.0,0.0
5273,65.0,0,89,3.0,0.0
5274,53.0,30,89,2.0,0.0
5275,69.0,0,89,3.0,0.0
5276,60.0,0,89,3.0,0.0
5277,57.0,0,89,2.0,0.0
5278,41.0,0,89,3.0,0.0
5279,74.0,12,12,2.0,0.0
5280,72.0,12,12,2.0,0.0
5281,74.0,12,12,2.0,0.0
5282,72.0,12,12,2.0,0.0
5283,74.0,9,12,2.0,0.0
5284,72.0,8,9,2.0,0.0
5285,89.0,24,23,2.0,0.0
5286,88.0,24,23,2.0,0.0
5287,89.0,24,23,2.0,0.0
5288,85.0,24,23,2.0,0.0
5289,86.0,24,23,2.0,0.0
5290,85.0,24,23,2.0,0.0
5291,86.0,24,23,2.0,0.0
5292,81.0,24,23,2.0,0.0
5293,82.0,24,23,2.0,0.0
5294,81.0,24,23,2.0,0.0
5295,82.0,24,23,2.0,0.0
5296,78.0,24,23,2.0,0.0
5297,79.0,24,23,2.0,0.0
5298,78.0,24,23,2.0,0.0
5299,79.0,24,23,2.0,0.0
5300,74.0,24,23,2.0,0.0
5301,75.0,24,23,2.0,0.0
5302,67.0,0,119,3.0,0.0
5303,72.0,6,89,3.0,0.0
5304,51.0,0,119,3.0,0.0
5305,74.0,24,23,2.0,0.0
5306,75.0,18,23,2.0,0.0
5307,71.0,24,23,2.0,0.0
5308,72.0,24,23,3.0,0.0
5309,72.0,24,119,2.0,0.0
5310,63.0,0,23,2.0,0.0
5311,75.0,6,89,3.0,0.0
5312,71.0,0,23,3.0,0.0
5313,50.0,0,23,3.0,0.0
5314,62.0,0,23,2.0,0.0
5315,65.0,24,23,3.0,0.0
5316,48.0,0,23,3.0,0.0
5317,72.0,0,23,3.0,0.0
5318,60.0,0,23,2.0,0.0
5319,63.0,18,23,3.0,0.0
5320,74.0,0,23,3.0,0.0
5321,62.0,24,23,3.0,0.0
5322,46.0,0,23,3.0,0.0
5323,58.0,0,23,2.0,0.0
5324,60.0,0,89,3.0,0.0
5325,57.0,0,89,2.0,0.0
5326,75.0,0,89,3.0,0.0
5327,79.0,6,89,3.0,0.0
5328,45.0,0,89,3.0,0.0
5329,70.0,24,23,2.0,0.0
5330,69.0,18,23,2.0,0.0
5331,70.0,24,23,2.0,0.0
5332,63.0,0,89,3.0,0.0
5333,69.0,0,89,3.0,0.0
5334,72.0,24,23,2.0,0.0
5335,69.0,0,89,2.0,0.0
5336,63.0,0,89,2.0,0.0
5337,74.0,24,23,2.0,0.0
5338,75.0,18,23,2.0,0.0
5339,76.0,46,23,2.0,0.0
5340,77.0,44,45,2.0,0.0
5341,62.0,0,89,3.0,0.0
5342,70.0,0,89,2.0,0.0
5343,62.0,4,89,2.0,0.0
5344,70.0,0,89,3.0,0.0
5345,76.0,48,45,2.0,0.0
5346,70.0,0,177,2.0,0.0
5347,75.0,36,45,2.0,0.0
5348,67.0,4,89,3.0,0.0
5349,67.0,0,89,2.0,0.0
5350,82.0,3,177,3.0,0.0
5351,74.0,15,45,2.0,0.0
5352,63.0,0,89,2.0,0.0
5353,72.0,12,12,2.0,0.0
5354,79.0,0,89,3.0,0.0
5355,63.0,7,89,3.0,0.0
5356,74.0,12,12,2.0,0.0
5357,72.0,12,12,2.0,0.0
5358,74.0,12,12,2.0,0.0
5359,72.0,12,12,2.0,0.0
5360,74.0,9,12,2.0,0.0
5361,72.0,5,12,2.0,0.0
5362,74.0,12,12,2.0,0.0
5363,77.0,0,89,3.0,0.0
5364,65.0,0,89,2.0,0.0
5365,65.0,0,89,3.0,0.0
5366,81.0,30,89,3.0,0.0
5367,69.0,0,89,2.0,0.0
5368,72.0,12,12,2.0,0.0
5369,74.0,12,12,2.0,0.0
5370,72.0,12,12,2.0,0.0
5371,74.0,12,12,2.0,0.0
5372,72.0,12,12,2.0,0.0
5373,74.0,9,12,2.0,0.0
5374,72.0,8,9,2.0,0.0
5375,65.0,6,89,2.0,0.0
5376,77.0,0,89,2.0,0.0
5377,82.0,0,813,0.0,0.0
5378,70.0,0,813,0.0,0.0
5379,58.0,0,813,1.0,0.0
5380,70.0,0,813,1.0,0.0
5381,50.0,24,23,2.0,0.0
5382,58.0,24,23,2.0,0.0
5383,53.0,18,23,2.0,0.0
5384,58.0,24,23,2.0,0.0
5385,49.0,24,23,2.0,0.0
5386,58.0,24,23,2.0,0.0
5387,51.0,22,23,2.0,0.0
5388,76.0,2,45,2.0,0.0
5389,64.0,0,45,2.0,0.0
5390,58.0,24,23,2.0,0.0
5391,65.0,6,89,2.0,0.0
5392,77.0,0,89,2.0,0.0
5393,50.0,24,23,2.0,0.0
5394,58.0,24,23,2.0,0.0
5395,53.0,18,23,2.0,0.0
5396,58.0,24,23,2.0,0.0
5397,49.0,24,23,2.0,0.0
5398,58.0,24,23,2.0,0.0
5399,64.0,0,45,2.0,0.0
5400,76.0,2,45,2.0,0.0
5401,51.0,22,23,2.0,0.0
5402,58.0,24,23,2.0,0.0
5403,77.0,0,45,2.0,0.0
5404,50.0,22,23,2.0,0.0
5405,65.0,2,45,2.0,0.0
5406,58.0,24,23,2.0,0.0
5407,76.0,2,45,2.0,0.0
5408,64.0,0,45,2.0,0.0
5409,49.0,22,23,2.0,0.0
5410,58.0,24,23,2.0,0.0
5411,50.0,22,23,2.0,0.0
5412,65.0,2,45,2.0,0.0
5413,77.0,0,45,2.0,0.0
5414,58.0,24,23,2.0,0.0
5415,64.0,0,45,2.0,0.0
5416,76.0,2,45,2.0,0.0
5417,49.0,22,23,2.0,0.0
5418,58.0,24,23,2.0,0.0
5419,77.0,0,45,2.0,0.0
5420,50.0,22,23,2.0,0.0
5421,65.0,2,45,2.0,0.0
5422,58.0,24,23,2.0,0.0
5423,49.0,22,23,2.0,0.0
5424,64.0,0,45,2.0,0.0
5425,76.0,2,45,2.0,0.0
5426,58.0,24,23,2.0,0.0
5427,50.0,22,23,2.0,0.0
5428,77.0,0,45,2.0,0.0
5429,65.0,2,45,2.0,0.0
5430,58.0,24,23,2.0,0.0
5431,64.0,0,45,2.0,0.0
5432,76.0,2,45,2.0,0.0
5433,49.0,22,23,2.0,0.0
5434,58.0,46,23,2.0,0.0
5435,50.0,4,89,2.0,0.0
5436,77.0,44,45,2.0,0.0
5437,65.0,0,45,2.0,0.0
5438,58.0,0,89,2.0,0.0
5439,64.0,48,45,2.0,0.0
5440,76.0,0,45,2.0,0.0
5441,77.0,48,45,2.0,0.0
5442,65.0,0,45,2.0,0.0
5443,66.0,48,45,2.0,0.0
5444,78.0,0,45,2.0,0.0
5445,67.0,48,45,2.0,0.0
5446,79.0,0,45,2.0,0.0
5447,68.0,0,45,2.0,0.0
5448,80.0,48,45,2.0,0.0
5449,69.0,0,45,2.0,0.0
5450,81.0,48,45,2.0,0.0
5451,82.0,0,45,2.0,0.0
5452,70.0,23,45,2.0,0.0
5453,89.0,24,23,2.0,0.0
5454,74.0,3,20,2.0,0.0
5455,86.0,21,23,2.0,0.0
5456,72.0,3,20,2.0,0.0
5457,87.0,24,23,2.0,0.0
5458,84.0,21,23,2.0,0.0
5459,70.0,3,20,2.0,0.0
5460,86.0,24,23,2.0,0.0
5461,82.0,21,23,2.0,0.0
5462,84.0,24,23,2.0,0.0
5463,69.0,3,20,2.0,0.0
5464,81.0,21,23,2.0,0.0
5465,86.0,24,23,2.0,0.0
5466,70.0,3,20,2.0,0.0
5467,82.0,21,23,2.0,0.0
5468,84.0,24,23,2.0,0.0
5469,69.0,3,20,2.0,0.0
5470,81.0,21,23,2.0,0.0
5471,82.0,24,23,2.0,0.0
5472,67.0,3,20,2.0,0.0
5473,79.0,21,23,2.0,0.0
5474,66.0,3,20,2.0,0.0
5475,81.0,24,23,2.0,0.0
5476,78.0,21,23,2.0,0.0
5477,67.0,0,20,3.0,0.0
5478,82.0,24,23,2.0,0.0
5479,82.0,0,20,3.0,0.0
5480,67.0,3,20,2.0,0.0
5481,79.0,21,23,2.0,0.0
5482,81.0,3,20,3.0,0.0
5483,81.0,24,23,2.0,0.0
5484,65.0,0,20,2.0,0.0
5485,65.0,0,20,3.0,0.0
5486,77.0,21,23,2.0,0.0
5487,79.0,24,23,2.0,0.0
5488,63.0,0,20,3.0,0.0
5489,79.0,0,20,3.0,0.0
5490,63.0,3,20,2.0,0.0
5491,75.0,21,23,2.0,0.0
5492,77.0,24,23,2.0,0.0
5493,62.0,0,20,3.0,0.0
5494,77.0,0,20,3.0,0.0
5495,62.0,3,20,2.0,0.0
5496,74.0,21,23,2.0,0.0
5497,63.0,0,20,3.0,0.0
5498,79.0,0,20,3.0,0.0
5499,79.0,24,23,2.0,0.0
5500,63.0,3,20,2.0,0.0
5501,75.0,21,23,2.0,0.0
5502,77.0,0,20,3.0,0.0
5503,77.0,24,23,2.0,0.0
5504,62.0,3,20,2.0,0.0
5505,62.0,0,20,3.0,0.0
5506,74.0,21,23,2.0,0.0
5507,75.0,0,20,3.0,0.0
5508,60.0,3,20,2.0,0.0
5509,75.0,24,23,2.0,0.0
5510,60.0,0,20,3.0,0.0
5511,72.0,21,23,2.0,0.0
5512,58.0,0,20,3.0,0.0
5513,58.0,0,20,2.0,0.0
5514,74.0,3,20,3.0,0.0
5515,74.0,24,23,2.0,0.0
5516,70.0,24,23,2.0,0.0
5517,70.0,0,45,3.0,0.0
5518,65.0,0,45,2.0,0.0
5519,53.0,22,23,2.0,0.0
5520,65.0,0,738,1.0,0.0
5521,74.0,0,45,3.0,0.0
5522,41.0,0,45,3.0,0.0
5523,65.0,2,45,3.0,0.0
5524,62.0,24,23,2.0,0.0
5525,67.0,22,23,2.0,0.0
5526,65.0,0,45,3.0,0.0
5527,58.0,0,23,2.0,0.0
5528,70.0,2,45,3.0,0.0
5529,74.0,0,45,3.0,0.0
5530,41.0,0,45,3.0,0.0
5531,69.0,0,23,2.0,0.0
5532,62.0,24,23,2.0,0.0
5533,70.0,22,23,2.0,0.0
5534,41.0,0,45,3.0,0.0
5535,65.0,2,45,3.0,0.0
5536,70.0,0,45,3.0,0.0
5537,74.0,0,45,3.0,0.0
5538,53.0,0,23,2.0,0.0
5539,72.0,24,23,2.0,0.0
5540,62.0,0,23,2.0,0.0
5541,41.0,0,45,3.0,0.0
5542,58.0,22,23,2.0,0.0
5543,70.0,0,45,3.0,0.0
5544,74.0,2,45,3.0,0.0
5545,74.0,0,23,2.0,0.0
5546,65.0,0,45,3.0,0.0
5547,62.0,0,23,2.0,0.0
5548,75.0,24,23,2.0,0.0
5549,53.0,22,23,2.0,0.0
5550,77.0,0,23,2.0,0.0
5551,74.0,0,45,3.0,0.0
5552,70.0,0,45,3.0,0.0
5553,65.0,0,45,3.0,0.0
5554,41.0,2,45,3.0,0.0
5555,79.0,0,23,2.0,0.0
5556,62.0,24,23,2.0,0.0
5557,41.0,0,45,3.0,0.0
5558,65.0,0,45,3.0,0.0
5559,70.0,0,45,3.0,0.0
5560,74.0,2,45,3.0,0.0
5561,81.0,22,23,2.0,0.0
5562,58.0,0,23,2.0,0.0
5563,62.0,0,23,2.0,0.0
5564,82.0,24,23,2.0,0.0
5565,53.0,22,23,2.0,0.0
5566,70.0,0,45,3.0,0.0
5567,65.0,0,45,3.0,0.0
5568,74.0,2,45,3.0,0.0
5569,84.0,0,23,2.0,0.0
5570,41.0,0,45,3.0,0.0
5571,62.0,0,23,2.0,0.0
5572,86.0,24,23,2.0,0.0
5573,41.0,0,45,3.0,0.0
5574,58.0,0,23,2.0,0.0
5575,70.0,0,45,3.0,0.0
5576,87.0,22,23,2.0,0.0
5577,65.0,0,45,3.0,0.0
5578,74.0,2,45,3.0,0.0
5579,62.0,0,23,2.0,0.0
5580,89.0,13,23,2.0,0.0
5581,53.0,0,23,2.0,0.0
5582,65.0,2,45,3.0,0.0
5583,84.0,11,12,2.0,0.0
5584,41.0,0,45,3.0,0.0
5585,69.0,0,23,3.0,0.0
5586,75.0,1,23,3.0,0.0
5587,86.0,12,12,2.0,0.0
5588,75.0,0,23,3.0,0.0
5589,69.0,1,23,3.0,0.0
5590,84.0,9,12,2.0,0.0
5591,63.0,0,23,2.0,0.0
5592,86.0,12,12,2.0,0.0
5593,41.0,2,45,3.0,0.0
5594,84.0,11,12,2.0,0.0
5595,69.0,0,23,3.0,0.0
5596,65.0,0,45,3.0,0.0
5597,75.0,0,23,3.0,0.0
5598,57.0,1,23,2.0,0.0
5599,86.0,12,12,2.0,0.0
5600,69.0,1,23,3.0,0.0
5601,84.0,9,12,2.0,0.0
5602,75.0,0,23,3.0,0.0
5603,63.0,0,23,2.0,0.0
5604,86.0,12,12,2.0,0.0
5605,65.0,0,45,3.0,0.0
5606,41.0,2,45,3.0,0.0
5607,75.0,0,23,3.0,0.0
5608,53.0,0,23,2.0,0.0
5609,84.0,11,12,2.0,0.0
5610,69.0,1,23,3.0,0.0
5611,86.0,12,12,2.0,0.0
5612,75.0,0,23,3.0,0.0
5613,84.0,9,12,2.0,0.0
5614,63.0,0,23,2.0,0.0
5615,69.0,1,23,3.0,0.0
5616,86.0,12,12,2.0,0.0
5617,41.0,0,45,3.0,0.0
5618,69.0,1,23,3.0,0.0
5619,75.0,0,23,3.0,0.0
5620,65.0,2,45,3.0,0.0
5621,84.0,11,12,2.0,0.0
5622,57.0,0,23,2.0,0.0
5623,86.0,12,12,2.0,0.0
5624,69.0,0,23,3.0,0.0
5625,75.0,1,23,3.0,0.0
5626,84.0,9,12,2.0,0.0
5627,63.0,0,23,2.0,0.0
5628,86.0,12,12,2.0,0.0
5629,65.0,2,45,3.0,0.0
5630,81.0,12,177,0.0,0.0
5631,84.0,0,177,0.0,0.0
5632,84.0,11,12,2.0,0.0
5633,41.0,0,45,3.0,0.0
5634,53.0,0,23,2.0,0.0
5635,81.0,1,23,3.0,0.0
5636,75.0,0,23,3.0,0.0
5637,86.0,12,12,2.0,0.0
5638,63.0,0,23,2.0,0.0
5639,84.0,9,12,2.0,0.0
5640,81.0,1,23,3.0,0.0
5641,75.0,0,23,3.0,0.0
5642,86.0,12,12,2.0,0.0
5643,75.0,1,23,3.0,0.0
5644,81.0,0,23,3.0,0.0
5645,41.0,2,45,3.0,0.0
5646,65.0,0,45,3.0,0.0
5647,57.0,0,23,2.0,0.0
5648,84.0,11,12,2.0,0.0
5649,86.0,12,12,2.0,0.0
5650,75.0,0,23,3.0,0.0
5651,81.0,1,23,3.0,0.0
5652,84.0,9,12,2.0,0.0
5653,63.0,0,23,2.0,0.0
5654,86.0,12,12,2.0,0.0
5655,41.0,2,45,3.0,0.0
5656,53.0,1,23,2.0,0.0
5657,75.0,0,23,3.0,0.0
5658,81.0,0,23,3.0,0.0
5659,84.0,11,12,2.0,0.0
5660,65.0,0,45,3.0,0.0
5661,86.0,12,12,2.0,0.0
5662,75.0,1,23,3.0,0.0
5663,81.0,0,23,3.0,0.0
5664,84.0,9,12,2.0,0.0
5665,63.0,0,23,2.0,0.0
5666,86.0,12,12,2.0,0.0
5667,65.0,2,45,3.0,0.0
5668,75.0,0,23,3.0,0.0
5669,41.0,0,45,3.0,0.0
5670,57.0,0,23,2.0,0.0
5671,84.0,6,12,2.0,0.0
5672,81.0,10,23,3.0,0.0
5673,86.0,5,6,2.0,0.0
5674,63.0,0,23,2.0,0.0
5675,75.0,0,23,3.0,0.0
5676,81.0,90,23,3.0,0.0
5677,82.0,0,89,3.0,0.0
5678,70.0,0,89,1.0,0.0
5679,62.0,0,89,2.0,0.0
5680,58.0,0,89,2.0,0.0
5681,62.0,0,89,1.0,0.0
5682,82.0,0,89,2.0,0.0
5683,74.0,0,89,3.0,0.0
5684,34.0,140,89,3.0,0.0
5685,82.0,0,89,0.0,0.0
5686,65.0,0,89,3.0,0.0
5687,62.0,0,133,3.0,0.0
5688,70.0,34,133,3.0,0.0
5689,65.0,0,177,3.0,0.0
5690,65.0,0,177,1.0,0.0
5691,41.0,0,177,3.0,0.0
5692,69.0,0,23,3.0,0.0
5693,60.0,24,23,3.0,0.0
5694,62.0,0,23,3.0,0.0
5695,70.0,24,23,3.0,0.0
5696,72.0,0,23,3.0,0.0
5697,75.0,0,89,0.0,0.0
5698,69.0,6,89,0.0,0.0
5699,63.0,24,23,3.0,0.0
5700,69.0,24,23,3.0,0.0
5701,60.0,0,23,3.0,0.0
5702,63.0,0,23,3.0,0.0
5703,72.0,10,23,3.0,0.0
5704,60.0,0,23,3.0,0.0
5705,69.0,90,23,3.0,0.0
5706,70.0,0,89,0.0,0.0
5707,46.0,0,89,3.0,0.0
5708,58.0,140,89,3.0,0.0
5709,70.0,0,89,1.0,0.0
5710,70.0,0,89,3.0,0.0
5711,62.0,0,89,3.0,0.0
5712,62.0,0,89,1.0,0.0
5713,74.0,0,89,0.0,0.0
5714,62.0,0,133,3.0,0.0
5715,70.0,0,133,3.0,0.0
5716,74.0,0,133,3.0,0.0
5717,41.0,0,177,3.0,0.0
5718,65.0,21,37,3.0,0.0
5719,65.0,0,177,1.0,0.0
5720,72.0,24,10,3.0,0.0
5721,69.0,0,10,3.0,0.0
5722,74.0,37,10,3.0,0.0
5723,70.0,0,10,3.0,0.0
5724,72.0,0,23,3.0,0.0
5725,75.0,27,89,0.0,0.0
5726,75.0,24,23,3.0,0.0
5727,81.0,0,89,0.0,0.0
5728,72.0,11,23,3.0,0.0
5729,69.0,0,23,3.0,0.0
5730,72.0,0,10,3.0,0.0
5731,75.0,23,10,3.0,0.0
5732,72.0,0,10,3.0,0.0
5733,69.0,7,10,3.0,0.0
5734,82.0,0,89,0.0,0.0
5735,74.0,0,89,0.0,0.0
5736,74.0,23,45,3.0,0.0
5737,58.0,25,20,3.0,0.0
5738,58.0,0,89,1.0,0.0
5739,34.0,0,45,3.0,0.0
5740,70.0,0,89,1.0,0.0
5741,70.0,21,20,3.0,0.0
5742,46.0,9,45,3.0,0.0
5743,80.0,4,89,0.0,0.0
5744,82.0,14,6,3.0,0.0
5745,62.0,21,20,3.0,0.0
5746,58.0,0,67,1.0,0.0
5747,38.0,0,45,3.0,0.0
5748,70.0,1,67,1.0,0.0
5749,80.0,22,39,3.0,0.0
5750,46.0,2,45,3.0,0.0
5751,70.0,3,20,3.0,0.0
5752,82.0,4,89,3.0,0.0
5753,79.0,18,23,3.0,0.0
5754,70.0,0,23,1.0,0.0
5755,58.0,0,23,1.0,0.0
5756,80.0,7,23,3.0,0.0
5757,63.0,21,20,3.0,0.0
5758,79.0,12,177,0.0,0.0
5759,70.0,0,89,1.0,0.0
5760,39.0,0,45,3.0,0.0
5761,58.0,4,89,1.0,0.0
5762,80.0,14,6,3.0,0.0
5763,79.0,23,39,3.0,0.0
5764,46.0,2,45,3.0,0.0
5765,82.0,4,89,3.0,0.0
5766,70.0,3,20,3.0,0.0
5767,78.0,18,23,3.0,0.0
5768,79.0,7,23,3.0,0.0
5769,58.0,1,67,1.0,0.0
5770,70.0,0,67,1.0,0.0
5771,63.0,21,20,3.0,0.0
5772,39.0,0,45,3.0,0.0
5773,80.0,14,6,3.0,0.0
5774,79.0,22,39,3.0,0.0
5775,78.0,10,23,3.0,0.0
5776,46.0,2,45,3.0,0.0
5777,70.0,3,20,3.0,0.0
5778,82.0,23,93,3.0,0.0
5779,70.0,7,23,1.0,0.0
5780,79.0,0,23,3.0,0.0
5781,58.0,0,23,1.0,0.0
5782,38.0,0,45,3.0,0.0
5783,58.0,0,89,1.0,0.0
5784,77.0,0,177,0.0,0.0
5785,62.0,25,20,3.0,0.0
5786,79.0,14,6,3.0,0.0
5787,70.0,4,89,1.0,0.0
5788,77.0,0,39,3.0,0.0
5789,46.0,2,45,3.0,0.0
5790,70.0,3,20,3.0,0.0
5791,76.0,18,23,3.0,0.0
5792,82.0,4,89,3.0,0.0
5793,77.0,7,23,3.0,0.0
5794,62.0,21,20,3.0,0.0
5795,70.0,1,67,1.0,0.0
5796,38.0,22,45,3.0,0.0
5797,58.0,0,67,1.0,0.0
5798,79.0,14,6,3.0,0.0
5799,77.0,0,39,3.0,0.0
5800,70.0,3,20,3.0,0.0
5801,82.0,4,89,3.0,0.0
5802,46.0,2,45,3.0,0.0
5803,76.0,10,23,3.0,0.0
5804,77.0,0,23,3.0,0.0
5805,58.0,0,23,1.0,0.0
5806,70.0,7,23,1.0,0.0
5807,70.0,4,89,1.0,0.0
5808,67.0,21,20,3.0,0.0
5809,77.0,14,6,3.0,0.0
5810,58.0,0,89,1.0,0.0
5811,75.0,0,89,0.0,0.0
5812,43.0,0,45,3.0,0.0
5813,75.0,23,39,3.0,0.0
5814,46.0,2,45,3.0,0.0
5815,82.0,4,89,3.0,0.0
5816,70.0,3,20,3.0,0.0
5817,74.0,18,23,3.0,0.0
5818,75.0,7,23,3.0,0.0
5819,70.0,0,89,1.0,0.0
5820,58.0,0,89,1.0,0.0
5821,64.0,21,20,3.0,0.0
5822,72.0,0,89,0.0,0.0
5823,40.0,0,45,3.0,0.0
5824,74.0,14,6,3.0,0.0
5825,67.0,4,89,0.0,0.0
5826,72.0,23,39,3.0,0.0
5827,70.0,3,20,3.0,0.0
5828,71.0,18,23,3.0,0.0
5829,46.0,0,45,3.0,0.0
5830,82.0,2,45,3.0,0.0
5831,72.0,178,23,3.0,0.0
5832,70.0,90,354,2.0,0.0
5833,53.0,0,354,2.0,0.0
5834,65.0,0,177,3.0,0.0
5835,82.0,0,177,3.0,0.0
5836,74.0,0,354,2.0,0.0
5837,65.0,0,177,1.0,0.0
5838,74.0,177,177,3.0,0.0
5839,70.0,0,177,0.0,0.0
5840,41.0,0,177,3.0,0.0
5841,53.0,0,265,2.0,0.0
5842,57.0,0,265,2.0,0.0
5843,63.0,0,265,2.0,0.0
5844,72.0,12,12,2.0,0.0
5845,74.0,12,12,2.0,0.0
5846,72.0,12,12,2.0,0.0
5847,74.0,12,12,2.0,0.0
5848,72.0,12,12,2.0,0.0
5849,74.0,12,12,2.0,0.0
5850,72.0,12,12,2.0,0.0
5851,74.0,12,12,2.0,0.0
5852,72.0,12,12,2.0,0.0
5853,74.0,12,12,2.0,0.0
5854,72.0,12,12,2.0,0.0
5855,74.0,12,12,2.0,0.0
5856,72.0,12,12,2.0,0.0
5857,74.0,12,12,2.0,0.0
5858,72.0,12,12,2.0,0.0
5859,74.0,12,12,2.0,0.0
5860,72.0,12,12,2.0,0.0
5861,74.0,12,12,2.0,0.0
5862,72.0,12,12,2.0,0.0
5863,74.0,12,12,2.0,0.0
5864,72.0,12,12,2.0,0.0
5865,74.0,1,12,2.0,0.0
5866,72.0,46,1,2.0,0.0
5867,70.0,24,23,2.0,0.0
5868,72.0,24,23,2.0,0.0
5869,70.0,0,89,2.0,0.0
5870,70.0,0,813,1.0,0.0
5871,62.0,0,89,2.0,0.0
5872,58.0,0,89,2.0,0.0
5873,82.0,2,354,0.0,0.0
5874,70.0,4,89,0.0,0.0
5875,70.0,22,23,3.0,0.0
5876,58.0,0,813,1.0,0.0
5877,34.0,2,45,3.0,0.0
5878,65.0,24,23,3.0,0.0
5879,34.0,2,45,3.0,0.0
5880,62.0,18,23,3.0,0.0
5881,65.0,0,17,3.0,0.0
5882,34.0,23,45,3.0,0.0
5883,74.0,0,20,3.0,0.0
5884,58.0,0,20,3.0,0.0
5885,74.0,0,20,0.0,0.0
5886,74.0,0,20,3.0,0.0
5887,58.0,0,20,3.0,0.0
5888,34.0,23,45,3.0,0.0
5889,74.0,0,20,0.0,0.0
5890,74.0,25,20,3.0,0.0
5891,34.0,0,45,3.0,0.0
5892,74.0,0,45,0.0,0.0
5893,59.0,0,45,3.0,0.0
5894,34.0,0,45,3.0,0.0
5895,75.0,25,20,3.0,0.0
5896,75.0,0,45,0.0,0.0
5897,60.0,0,45,3.0,0.0
5898,34.0,21,45,3.0,0.0
5899,75.0,0,20,3.0,0.0
5900,75.0,0,20,0.0,0.0
5901,60.0,0,20,3.0,0.0
5902,75.0,0,20,0.0,0.0
5903,34.0,48,45,3.0,0.0
5904,75.0,0,20,3.0,0.0
5905,60.0,0,20,3.0,0.0
5906,76.0,0,45,3.0,0.0
5907,34.0,0,45,3.0,0.0
5908,76.0,48,45,0.0,0.0
5909,82.0,20,265,0.0,0.0
5910,61.0,0,45,3.0,0.0
5911,77.0,0,45,3.0,0.0
5912,34.0,0,45,3.0,0.0
5913,77.0,0,45,0.0,0.0
5914,62.0,0,45,3.0,0.0
5915,62.0,0,20,3.0,0.0
5916,34.0,23,45,3.0,0.0
5917,77.0,0,20,3.0,0.0
5918,77.0,0,20,0.0,0.0
5919,34.0,48,45,3.0,0.0
5920,62.0,0,20,3.0,0.0
5921,77.0,0,20,3.0,0.0
5922,77.0,25,20,0.0,0.0
5923,34.0,28,45,3.0,0.0
5924,78.0,0,45,3.0,0.0
5925,78.0,0,45,0.0,0.0
5926,62.0,0,45,3.0,0.0
5927,63.0,0,45,3.0,0.0
5928,34.0,0,45,3.0,0.0
5929,79.0,0,45,3.0,0.0
5930,79.0,0,45,0.0,0.0
5931,34.0,0,45,3.0,0.0
5932,79.0,25,20,0.0,0.0
5933,79.0,0,45,3.0,0.0
5934,63.0,0,45,3.0,0.0
5935,75.0,4,89,0.0,0.0
5936,34.0,0,45,3.0,0.0
5937,60.0,0,45,3.0,0.0
5938,81.0,0,45,3.0,0.0
5939,81.0,21,20,0.0,0.0
5940,34.0,0,45,3.0,0.0
5941,82.0,0,45,3.0,0.0
5942,74.0,96,45,0.0,0.0
5943,82.0,0,45,0.0,0.0
5944,62.0,0,45,3.0,0.0
5945,70.0,0,45,3.0,0.0
5946,82.0,48,45,3.0,0.0
5947,68.0,0,45,3.0,0.0
5948,80.0,48,45,3.0,0.0
5949,78.0,0,45,3.0,0.0
5950,66.0,48,45,3.0,0.0
5951,79.0,48,45,3.0,0.0
5952,67.0,0,45,3.0,0.0
5953,64.0,48,45,3.0,0.0
5954,76.0,0,45,3.0,0.0
5955,77.0,48,45,3.0,0.0
5956,65.0,0,45,3.0,0.0
5957,74.0,0,45,3.0,0.0
5958,62.0,48,45,3.0,0.0
5959,75.0,0,45,3.0,0.0
5960,63.0,48,45,3.0,0.0
5961,73.0,0,45,3.0,0.0
5962,61.0,48,45,3.0,0.0
5963,62.0,48,45,3.0,0.0
5964,74.0,0,45,3.0,0.0
5965,83.0,0,45,0.0,0.0
5966,62.0,0,45,3.0,0.0
5967,41.0,0,45,3.0,0.0
5968,68.0,0,45,3.0,0.0
5969,71.0,0,45,3.0,0.0
5970,80.0,48,45,0.0,0.0
5971,72.0,0,45,3.0,0.0
5972,67.0,48,45,3.0,0.0
5973,84.0,0,45,0.0,0.0
5974,39.0,0,45,3.0,0.0
5975,63.0,0,45,3.0,0.0
5976,79.0,0,45,0.0,0.0
5977,78.0,48,45,3.0,0.0
5978,79.0,48,45,3.0,0.0
5979,78.0,0,45,0.0,0.0
5980,69.0,0,45,3.0,0.0
5981,81.0,0,45,0.0,0.0
5982,39.0,0,45,3.0,0.0
5983,60.0,48,45,3.0,0.0
5984,66.0,0,45,3.0,0.0
5985,65.0,0,45,3.0,0.0
5986,70.0,0,45,3.0,0.0
5987,38.0,0,45,3.0,0.0
5988,77.0,48,45,0.0,0.0
5989,62.0,0,45,3.0,0.0
5990,82.0,0,45,0.0,0.0
5991,76.0,48,45,3.0,0.0
5992,77.0,42,45,3.0,0.0
5993,70.0,0,39,0.0,0.0
5994,82.0,0,39,0.0,0.0
5995,82.0,0,67,3.0,0.0
5996,58.0,0,39,1.0,0.0
5997,70.0,0,67,3.0,0.0
5998,46.0,28,67,3.0,0.0
5999,70.0,28,39,1.0,0.0
6000,70.0,0,23,3.0,0.0
6001,46.0,0,23,3.0,0.0
6002,82.0,0,23,3.0,0.0
6003,62.0,28,39,1.0,0.0
6004,74.0,0,39,0.0,0.0
6005,74.0,0,39,1.0,0.0
6006,74.0,0,67,3.0,0.0
6007,86.0,0,39,0.0,0.0
6008,50.0,0,67,3.0,0.0
6009,86.0,28,67,3.0,0.0
6010,50.0,90,23,3.0,0.0
6011,86.0,0,23,3.0,0.0
6012,74.0,0,23,3.0,0.0
6013,65.0,0,89,3.0,0.0
6014,77.0,0,89,0.0,0.0
6015,77.0,0,89,3.0,0.0
6016,53.0,0,89,3.0,0.0
6017,77.0,0,89,1.0,0.0
6018,50.0,0,67,3.0,0.0
6019,62.0,0,67,3.0,0.0
6020,74.0,0,67,0.0,0.0
6021,74.0,0,67,3.0,0.0
6022,74.0,0,67,1.0,0.0
6023,46.0,0,23,3.0,0.0
6024,70.0,0,23,1.0,0.0
6025,58.0,0,23,3.0,0.0
6026,70.0,0,23,0.0,0.0
6027,70.0,0,23,3.0,0.0
6028,65.0,96,89,3.0,0.0
6029,77.0,0,89,1.0,0.0
6030,77.0,0,89,0.0,0.0
6031,53.0,0,89,3.0,0.0
6032,77.0,0,89,3.0,0.0
6033,65.0,0,89,3.0,0.0
6034,41.0,0,89,3.0,0.0
6035,65.0,0,89,0.0,0.0
6036,65.0,0,89,1.0,0.0
6037,53.0,0,89,3.0,0.0
6038,58.0,0,89,3.0,0.0
6039,70.0,0,89,1.0,0.0
6040,62.0,0,89,1.0,0.0
6041,46.0,0,89,3.0,0.0
6042,70.0,0,89,0.0,0.0
6043,62.0,0,89,3.0,0.0
6044,70.0,0,89,3.0,0.0
6045,70.0,0,133,3.0,0.0
6046,62.0,34,133,3.0,0.0
6047,41.0,0,177,3.0,0.0
6048,65.0,0,177,1.0,0.0
6049,65.0,0,177,3.0,0.0
6050,69.0,24,23,3.0,0.0
6051,60.0,0,23,3.0,0.0
6052,70.0,0,23,3.0,0.0
6053,62.0,24,23,3.0,0.0
6054,72.0,0,23,3.0,0.0
6055,75.0,96,89,0.0,0.0
6056,63.0,24,23,3.0,0.0
6057,69.0,0,89,0.0,0.0
6058,60.0,0,23,3.0,0.0
6059,69.0,11,23,3.0,0.0
6060,63.0,0,10,3.0,0.0
6061,72.0,23,10,3.0,0.0
6062,60.0,0,10,3.0,0.0
6063,69.0,7,10,3.0,0.0
6064,70.0,0,89,0.0,0.0
6065,74.0,140,89,0.0,0.0
6066,34.0,0,89,3.0,0.0
6067,70.0,0,89,3.0,0.0
6068,62.0,0,89,3.0,0.0
6069,62.0,0,89,1.0,0.0
6070,70.0,0,89,1.0,0.0
6071,58.0,0,89,3.0,0.0
6072,74.0,0,133,3.0,0.0
6073,70.0,0,133,3.0,0.0
6074,62.0,34,133,3.0,0.0
6075,41.0,0,177,3.0,0.0
6076,65.0,0,177,1.0,0.0
6077,65.0,0,37,3.0,0.0
6078,72.0,24,23,3.0,0.0
6079,69.0,0,23,3.0,0.0
6080,74.0,0,23,3.0,0.0
6081,70.0,24,23,3.0,0.0
6082,75.0,24,23,3.0,0.0
6083,81.0,0,89,0.0,0.0
6084,75.0,46,89,0.0,0.0
6085,72.0,0,23,3.0,0.0
6086,69.0,11,23,3.0,0.0
6087,72.0,0,23,3.0,0.0
6088,75.0,0,10,3.0,0.0
6089,72.0,23,10,3.0,0.0
6090,72.0,0,10,3.0,0.0
6091,69.0,7,10,3.0,0.0
6092,74.0,0,89,0.0,0.0
6093,46.0,50,39,3.0,0.0
6094,82.0,46,89,0.0,0.0
6095,74.0,0,89,3.0,0.0
6096,70.0,0,39,3.0,0.0
6097,70.0,0,39,1.0,0.0
6098,77.0,0,39,0.0,0.0
6099,74.0,0,39,0.0,0.0
6100,74.0,96,39,3.0,0.0
6101,77.0,0,39,3.0,0.0
6102,70.0,0,39,3.0,0.0
6103,65.0,0,39,1.0,0.0
6104,41.0,0,39,3.0,0.0
6105,65.0,0,39,3.0,0.0
6106,74.0,96,39,3.0,0.0
6107,77.0,0,39,0.0,0.0
6108,82.0,0,39,3.0,0.0
6109,77.0,0,39,3.0,0.0
6110,62.0,0,39,3.0,0.0
6111,62.0,0,39,1.0,0.0
6112,82.0,0,39,0.0,0.0
6113,38.0,0,39,3.0,0.0
6114,70.0,0,39,3.0,0.0
6115,86.0,0,39,0.0,0.0
6116,86.0,0,39,3.0,0.0
6117,77.0,0,39,3.0,0.0
6118,58.0,0,39,1.0,0.0
6119,58.0,67,39,3.0,0.0
6120,74.0,0,39,3.0,0.0
6121,34.0,0,39,3.0,0.0
6122,82.0,0,39,3.0,0.0
6123,82.0,0,39,0.0,0.0
6124,62.0,0,89,3.0,0.0
6125,70.0,17,89,3.0,0.0
6126,46.0,13,45,3.0,0.0
6127,58.0,24,10,3.0,0.0
6128,74.0,0,89,0.0,0.0
6129,65.0,11,10,3.0,0.0
6130,77.0,4,89,0.0,0.0
6131,58.0,24,10,3.0,0.0
6132,65.0,7,10,3.0,0.0
6133,57.0,13,10,3.0,0.0
6134,41.0,0,45,3.0,0.0
6135,72.0,2,45,1.0,0.0
6136,65.0,0,45,1.0,0.0
6137,75.0,4,89,0.0,0.0
6138,63.0,0,89,3.0,0.0
6139,72.0,11,23,3.0,0.0
6140,65.0,7,10,3.0,0.0
6141,75.0,11,23,3.0,0.0
6142,74.0,11,23,3.0,0.0
6143,57.0,13,10,3.0,0.0
6144,81.0,2,45,0.0,0.0
6145,72.0,11,23,3.0,0.0
6146,65.0,7,10,3.0,0.0
6147,70.0,17,89,3.0,0.0
6148,58.0,24,10,3.0,0.0
6149,46.0,13,45,3.0,0.0
6150,70.0,0,45,1.0,0.0
6151,62.0,0,89,3.0,0.0
6152,82.0,0,45,0.0,0.0
6153,74.0,0,89,0.0,0.0
6154,74.0,0,45,1.0,0.0
6155,65.0,11,10,3.0,0.0
6156,77.0,4,89,0.0,0.0
6157,58.0,24,10,3.0,0.0
6158,65.0,7,10,3.0,0.0
6159,72.0,11,23,3.0,0.0
6160,41.0,2,45,3.0,0.0
6161,63.0,4,89,3.0,0.0
6162,57.0,13,10,3.0,0.0
6163,72.0,0,45,1.0,0.0
6164,65.0,0,45,1.0,0.0
6165,75.0,0,89,0.0,0.0
6166,65.0,7,10,3.0,0.0
6167,75.0,11,23,3.0,0.0
6168,57.0,13,10,3.0,0.0
6169,74.0,11,23,3.0,0.0
6170,81.0,2,45,0.0,0.0
6171,72.0,11,23,3.0,0.0
6172,65.0,7,10,3.0,0.0
6173,70.0,0,45,1.0,0.0
6174,46.0,0,45,3.0,0.0
6175,58.0,10,10,3.0,0.0
6176,65.0,0,45,1.0,0.0
6177,82.0,13,45,0.0,0.0
6178,62.0,17,89,3.0,0.0
6179,70.0,14,20,3.0,0.0
6180,74.0,0,89,0.0,0.0
6181,65.0,11,10,3.0,0.0
6182,70.0,14,20,3.0,0.0
6183,58.0,10,10,3.0,0.0
6184,77.0,4,89,0.0,0.0
6185,65.0,7,10,3.0,0.0
6186,41.0,2,45,3.0,0.0
6187,63.0,0,89,3.0,0.0
6188,57.0,13,10,3.0,0.0
6189,75.0,4,89,0.0,0.0
6190,65.0,0,45,1.0,0.0
6191,72.0,0,45,1.0,0.0
6192,72.0,11,23,3.0,0.0
6193,75.0,11,23,3.0,0.0
6194,65.0,7,10,3.0,0.0
6195,74.0,11,23,3.0,0.0
6196,81.0,2,45,0.0,0.0
6197,57.0,13,10,3.0,0.0
6198,65.0,7,10,3.0,0.0
6199,72.0,40,23,3.0,0.0
6200,70.0,0,89,3.0,0.0
6201,62.0,0,89,1.0,0.0
6202,34.0,0,89,3.0,0.0
6203,62.0,0,89,3.0,0.0
6204,74.0,0,89,0.0,0.0
6205,70.0,0,89,1.0,0.0
6206,58.0,50,39,3.0,0.0
6207,82.0,0,89,0.0,0.0
