,note,step,duration,channel,velocity
0,72.0,446,240,1.0,0.0
1,70.0,240,210,1.0,0.0
2,69.0,240,210,1.0,0.0
3,67.0,240,210,1.0,0.0
4,65.0,240,210,1.0,0.0
5,69.0,240,210,1.0,0.0
6,67.0,240,210,1.0,0.0
7,70.0,226,210,1.0,0.0
8,64.0,288,180,1.0,0.0
9,65.0,480,240,1.0,0.0
10,60.0,960,240,1.0,0.0
11,72.0,480,720,1.0,0.0
12,70.0,240,240,1.0,0.0
13,69.0,240,240,1.0,0.0
14,67.0,240,240,1.0,0.0
15,65.0,240,240,1.0,0.0
16,69.0,240,240,1.0,0.0
17,67.0,240,240,1.0,0.0
18,70.0,192,240,1.0,0.0
19,64.0,288,180,1.0,0.0
20,65.0,0,1860,1.0,0.0
21,53.0,12,1860,5.0,0.0
22,57.0,240,240,3.0,0.0
23,60.0,240,240,3.0,0.0
24,57.0,240,240,3.0,0.0
25,60.0,240,240,3.0,0.0
26,57.0,240,240,3.0,0.0
27,60.0,240,240,3.0,0.0
28,57.0,180,240,3.0,0.0
29,60.0,288,180,3.0,0.0
30,66.0,240,240,1.0,0.0
31,53.0,12,1860,5.0,0.0
32,58.0,0,240,3.0,0.0
33,60.0,0,240,3.0,0.0
34,67.0,240,240,1.0,0.0
35,69.0,0,240,1.0,0.0
36,58.0,240,240,3.0,0.0
37,70.0,0,240,1.0,0.0
38,60.0,240,240,3.0,0.0
39,58.0,0,240,3.0,0.0
40,72.0,240,240,1.0,0.0
41,73.0,240,240,1.0,0.0
42,60.0,0,240,3.0,0.0
43,74.0,180,240,1.0,0.0
44,58.0,0,240,3.0,0.0
45,60.0,288,180,3.0,0.0
46,76.0,0,180,1.0,0.0
47,79.0,240,240,1.0,0.0
48,57.0,0,240,3.0,0.0
49,53.0,5,1860,5.0,0.0
50,77.0,0,240,1.0,0.0
51,60.0,240,240,3.0,0.0
52,76.0,192,240,1.0,0.0
53,57.0,0,240,3.0,0.0
54,60.0,240,240,3.0,0.0
55,74.0,48,180,1.0,0.0
56,57.0,0,240,3.0,0.0
57,74.0,240,240,1.0,0.0
58,60.0,0,240,3.0,0.0
59,72.0,240,240,1.0,0.0
60,57.0,187,240,3.0,0.0
61,70.0,0,240,1.0,0.0
62,60.0,288,180,3.0,0.0
63,69.0,0,180,1.0,0.0
64,67.0,150,330,1.0,0.0
65,53.0,765,1860,5.0,0.0
66,58.0,90,240,3.0,0.0
67,64.0,7,1860,2.0,0.0
68,60.0,0,240,3.0,0.0
69,69.0,240,120,1.0,0.0
70,58.0,0,240,3.0,0.0
71,67.0,240,240,1.0,0.0
72,60.0,240,240,3.0,0.0
73,66.0,0,240,1.0,0.0
74,58.0,240,240,3.0,0.0
75,67.0,240,480,1.0,0.0
76,60.0,0,240,3.0,0.0
77,72.0,5,420,1.0,0.0
78,58.0,180,240,3.0,0.0
79,60.0,3,180,3.0,0.0
80,57.0,0,720,3.0,0.0
81,65.0,0,720,1.0,0.0
82,53.0,960,720,5.0,0.0
83,60.0,480,240,5.0,0.0
84,58.0,240,240,5.0,0.0
85,57.0,240,240,5.0,0.0
86,55.0,240,240,5.0,0.0
87,53.0,240,240,5.0,0.0
88,57.0,240,240,5.0,0.0
89,55.0,240,240,5.0,0.0
90,58.0,192,240,5.0,0.0
91,52.0,288,180,5.0,0.0
92,53.0,480,240,5.0,0.0
93,48.0,960,240,5.0,0.0
94,60.0,480,720,5.0,0.0
95,58.0,240,240,5.0,0.0
96,57.0,240,240,5.0,0.0
97,55.0,240,240,5.0,0.0
98,53.0,240,240,5.0,0.0
99,57.0,240,240,5.0,0.0
100,55.0,240,240,5.0,0.0
101,58.0,192,240,5.0,0.0
102,52.0,288,180,5.0,0.0
103,53.0,12,1860,5.0,0.0
104,72.0,240,240,2.0,0.0
105,84.0,240,240,2.0,0.0
106,81.0,240,240,2.0,0.0
107,84.0,240,240,2.0,0.0
108,72.0,240,240,2.0,0.0
109,84.0,240,240,2.0,0.0
110,81.0,180,240,2.0,0.0
111,84.0,288,180,2.0,0.0
112,72.0,240,240,2.0,0.0
113,54.0,0,240,5.0,0.0
114,84.0,240,240,2.0,0.0
115,55.0,0,240,5.0,0.0
116,57.0,240,240,5.0,0.0
117,82.0,0,240,2.0,0.0
118,58.0,240,240,5.0,0.0
119,84.0,0,240,2.0,0.0
120,72.0,0,240,2.0,0.0
121,60.0,240,240,5.0,0.0
122,84.0,0,240,2.0,0.0
123,61.0,240,240,5.0,0.0
124,82.0,0,240,2.0,0.0
125,62.0,192,240,5.0,0.0
126,84.0,0,180,2.0,0.0
127,64.0,288,180,5.0,0.0
128,72.0,0,240,2.0,0.0
129,67.0,240,240,5.0,0.0
130,65.0,240,240,5.0,0.0
131,84.0,0,240,2.0,0.0
132,81.0,0,240,2.0,0.0
133,64.0,192,240,5.0,0.0
134,84.0,240,240,2.0,0.0
135,62.0,48,180,5.0,0.0
136,62.0,0,240,5.0,0.0
137,72.0,240,240,2.0,0.0
138,60.0,0,240,5.0,0.0
139,84.0,240,240,2.0,0.0
140,58.0,0,240,5.0,0.0
141,81.0,192,240,2.0,0.0
142,57.0,288,180,5.0,0.0
143,84.0,0,180,2.0,0.0
144,58.0,240,720,5.0,0.0
145,78.0,240,240,1.0,0.0
146,79.0,240,240,1.0,0.0
147,64.0,0,240,3.0,0.0
148,60.0,0,240,3.0,0.0
149,81.0,0,240,1.0,0.0
150,82.0,0,240,1.0,0.0
151,64.0,240,240,3.0,0.0
152,84.0,240,240,1.0,0.0
153,58.0,0,720,5.0,0.0
154,85.0,240,240,1.0,0.0
155,67.0,0,240,3.0,0.0
156,86.0,0,240,1.0,0.0
157,60.0,192,240,3.0,0.0
158,88.0,0,180,1.0,0.0
159,67.0,204,180,3.0,0.0
160,89.0,0,150,1.0,0.0
161,57.0,240,150,5.0,0.0
162,77.0,324,150,1.0,0.0
163,89.0,0,240,1.0,0.0
164,72.0,0,240,4.0,0.0
165,69.0,240,240,5.0,0.0
166,88.0,0,240,1.0,0.0
167,67.0,156,240,5.0,0.0
168,70.0,0,240,4.0,0.0
169,65.0,0,150,5.0,0.0
170,86.0,240,150,1.0,0.0
171,69.0,0,150,4.0,0.0
172,74.0,324,150,1.0,0.0
173,86.0,0,240,1.0,0.0
174,69.0,240,240,4.0,0.0
175,65.0,0,240,5.0,0.0
176,67.0,0,240,4.0,0.0
177,84.0,0,240,1.0,0.0
178,64.0,156,240,5.0,0.0
179,62.0,240,150,5.0,0.0
180,82.0,0,150,1.0,0.0
181,65.0,0,150,4.0,0.0
182,70.0,324,150,1.0,0.0
183,82.0,240,240,1.0,0.0
184,65.0,0,240,4.0,0.0
185,62.0,0,240,5.0,0.0
186,64.0,0,240,4.0,0.0
187,60.0,0,240,5.0,0.0
188,81.0,156,240,1.0,0.0
189,62.0,240,150,4.0,0.0
190,79.0,0,150,1.0,0.0
191,58.0,0,150,5.0,0.0
192,67.0,324,150,1.0,0.0
193,79.0,192,240,1.0,0.0
194,62.0,0,240,4.0,0.0
195,58.0,0,240,5.0,0.0
196,77.0,48,180,1.0,0.0
197,60.0,960,240,4.0,0.0
198,57.0,0,240,5.0,0.0
199,58.0,1320,1320,4.0,0.0
200,77.0,360,960,1.0,0.0
201,55.0,0,1320,5.0,0.0
202,76.0,0,360,1.0,0.0
203,52.0,7,1860,5.0,0.0
204,58.0,5,1860,4.0,0.0
205,81.0,240,240,1.0,0.0
206,79.0,240,240,1.0,0.0
207,77.0,240,240,1.0,0.0
208,76.0,240,240,1.0,0.0
209,74.0,180,240,1.0,0.0
210,72.0,288,180,1.0,0.0
211,53.0,53,900,5.0,0.0
212,72.0,240,240,1.0,0.0
213,57.0,7,900,4.0,0.0
214,77.0,240,240,1.0,0.0
215,76.0,180,240,1.0,0.0
216,75.0,240,240,1.0,0.0
217,55.0,5,900,4.0,0.0
218,73.0,240,240,1.0,0.0
219,46.0,7,900,5.0,0.0
220,74.0,240,240,1.0,0.0
221,70.0,180,240,1.0,0.0
222,67.0,1008,180,1.0,0.0
223,65.0,120,960,1.0,0.0
224,48.0,60,1380,5.0,0.0
225,58.0,0,900,4.0,0.0
226,67.0,120,120,1.0,0.0
227,65.0,120,120,1.0,0.0
228,64.0,120,120,1.0,0.0
229,65.0,240,120,1.0,0.0
230,69.0,180,240,1.0,0.0
231,64.0,0,480,2.0,0.0
232,67.0,240,240,1.0,0.0
233,65.0,240,240,1.0,0.0
234,59.0,0,1860,4.0,0.0
235,53.0,0,1860,4.0,0.0
236,50.0,12,1860,5.0,0.0
237,81.0,240,240,1.0,0.0
238,79.0,240,240,1.0,0.0
239,77.0,240,240,1.0,0.0
240,76.0,240,240,1.0,0.0
241,74.0,240,240,1.0,0.0
242,72.0,180,240,1.0,0.0
243,71.0,288,180,1.0,0.0
244,54.0,240,240,5.0,0.0
245,70.0,0,240,1.0,0.0
246,76.0,0,240,1.0,0.0
247,55.0,240,240,5.0,0.0
248,57.0,0,240,5.0,0.0
249,72.0,240,240,1.0,0.0
250,58.0,240,240,5.0,0.0
251,76.0,0,240,1.0,0.0
252,60.0,0,240,5.0,0.0
253,70.0,240,240,1.0,0.0
254,79.0,240,240,1.0,0.0
255,61.0,0,240,5.0,0.0
256,62.0,0,240,5.0,0.0
257,72.0,192,240,1.0,0.0
258,79.0,288,180,1.0,0.0
259,64.0,0,180,5.0,0.0
260,69.0,0,240,1.0,0.0
261,65.0,240,240,5.0,0.0
262,53.0,240,240,5.0,0.0
263,65.0,0,240,5.0,0.0
264,69.0,240,240,2.0,0.0
265,72.0,0,240,1.0,0.0
266,64.0,240,240,5.0,0.0
267,62.0,240,240,5.0,0.0
268,50.0,240,240,5.0,0.0
269,62.0,240,240,5.0,0.0
270,69.0,0,240,2.0,0.0
271,77.0,0,240,1.0,0.0
272,60.0,156,240,5.0,0.0
273,58.0,240,150,5.0,0.0
274,46.0,324,150,5.0,0.0
275,77.0,0,240,1.0,0.0
276,58.0,0,240,5.0,0.0
277,74.0,240,240,2.0,0.0
278,57.0,156,240,5.0,0.0
279,55.0,240,150,5.0,0.0
280,43.0,324,150,5.0,0.0
281,82.0,0,240,1.0,0.0
282,74.0,192,240,2.0,0.0
283,55.0,0,240,5.0,0.0
284,53.0,1008,180,5.0,0.0
285,82.0,1320,1320,1.0,0.0
286,53.0,0,960,5.0,0.0
287,73.0,360,960,2.0,0.0
288,52.0,0,360,5.0,0.0
289,72.0,0,360,2.0,0.0
290,70.0,360,1920,2.0,0.0
291,76.0,0,1920,1.0,0.0
292,69.0,240,240,5.0,0.0
293,67.0,240,240,5.0,0.0
294,65.0,240,240,5.0,0.0
295,64.0,240,240,5.0,0.0
296,62.0,192,240,5.0,0.0
297,60.0,48,180,5.0,0.0
298,60.0,240,1440,5.0,0.0
299,69.0,0,360,2.0,0.0
300,77.0,360,360,1.0,0.0
301,81.0,240,240,1.0,0.0
302,70.0,5,1380,2.0,0.0
303,79.0,240,240,1.0,0.0
304,77.0,240,240,1.0,0.0
305,76.0,0,240,1.0,0.0
306,74.0,0,240,1.0,0.0
307,62.0,187,240,5.0,0.0
308,64.0,288,180,5.0,0.0
309,72.0,0,180,1.0,0.0
310,69.0,113,360,2.0,0.0
311,72.0,240,1440,1.0,0.0
312,65.0,127,240,5.0,0.0
313,66.0,240,240,5.0,0.0
314,69.0,240,240,5.0,0.0
315,70.0,285,1380,2.0,0.0
316,67.0,240,240,5.0,0.0
317,65.0,240,240,5.0,0.0
318,64.0,0,240,5.0,0.0
319,62.0,180,240,5.0,0.0
320,74.0,0,240,1.0,0.0
321,60.0,12,180,5.0,0.0
322,76.0,3,180,1.0,0.0
323,77.0,120,240,1.0,0.0
324,69.0,120,360,2.0,0.0
325,60.0,0,1440,5.0,0.0
326,78.0,240,240,1.0,0.0
327,81.0,240,240,1.0,0.0
328,70.0,5,1380,2.0,0.0
329,79.0,240,240,1.0,0.0
330,77.0,240,240,1.0,0.0
331,76.0,240,240,1.0,0.0
332,62.0,0,240,5.0,0.0
333,74.0,187,240,1.0,0.0
334,64.0,240,240,5.0,0.0
335,72.0,48,180,1.0,0.0
336,65.0,0,360,5.0,0.0
337,69.0,72,360,2.0,0.0
338,72.0,120,240,1.0,0.0
339,77.0,288,180,1.0,0.0
340,69.0,192,240,1.0,0.0
341,72.0,288,180,1.0,0.0
342,65.0,192,240,1.0,0.0
343,69.0,288,180,1.0,0.0
344,60.0,192,240,1.0,0.0
345,64.0,288,180,1.0,0.0
346,53.0,120,240,5.0,0.0
347,65.0,72,360,1.0,0.0
348,57.0,288,180,5.0,0.0
349,50.0,192,240,5.0,0.0
350,53.0,288,180,5.0,0.0
351,49.0,192,240,5.0,0.0
352,52.0,288,180,5.0,0.0
353,81.0,0,240,1.0,0.0
354,45.0,192,240,5.0,0.0
355,49.0,288,180,5.0,0.0
356,50.0,120,360,5.0,0.0
357,79.0,120,240,1.0,0.0
358,77.0,240,240,1.0,0.0
359,76.0,240,240,1.0,0.0
360,74.0,240,240,1.0,0.0
361,77.0,240,240,1.0,0.0
362,76.0,240,240,1.0,0.0
363,69.0,192,240,5.0,0.0
364,79.0,0,240,1.0,0.0
365,73.0,288,180,1.0,0.0
366,74.0,240,240,1.0,0.0
367,67.0,0,240,5.0,0.0
368,65.0,240,240,5.0,0.0
369,69.0,240,240,1.0,0.0
370,64.0,0,240,5.0,0.0
371,62.0,240,240,5.0,0.0
372,64.0,240,240,5.0,0.0
373,79.0,0,720,1.0,0.0
374,62.0,240,240,5.0,0.0
375,65.0,192,240,5.0,0.0
376,59.0,288,180,5.0,0.0
377,60.0,0,240,5.0,0.0
378,77.0,240,240,1.0,0.0
379,76.0,240,240,1.0,0.0
380,74.0,0,240,1.0,0.0
381,55.0,240,240,5.0,0.0
382,72.0,240,240,1.0,0.0
383,76.0,240,240,1.0,0.0
384,67.0,192,720,5.0,0.0
385,74.0,240,240,1.0,0.0
386,77.0,0,240,1.0,0.0
387,71.0,288,180,1.0,0.0
388,72.0,240,240,1.0,0.0
389,65.0,0,240,5.0,0.0
390,63.0,240,240,5.0,0.0
391,67.0,240,240,1.0,0.0
392,62.0,0,240,5.0,0.0
393,60.0,240,240,5.0,0.0
394,79.0,0,720,1.0,0.0
395,63.0,240,240,5.0,0.0
396,62.0,240,240,5.0,0.0
397,65.0,192,240,5.0,0.0
398,59.0,288,180,5.0,0.0
399,77.0,240,240,1.0,0.0
400,60.0,65,840,5.0,0.0
401,75.0,240,240,1.0,0.0
402,63.0,0,360,3.0,0.0
403,74.0,120,240,1.0,0.0
404,67.0,7,360,3.0,0.0
405,72.0,288,180,1.0,0.0
406,58.0,65,840,5.0,0.0
407,77.0,240,240,1.0,0.0
408,75.0,240,240,1.0,0.0
409,74.0,120,240,1.0,0.0
410,63.0,0,360,3.0,0.0
411,60.0,7,360,3.0,0.0
412,72.0,288,180,1.0,0.0
413,56.0,65,840,5.0,0.0
414,77.0,240,240,1.0,0.0
415,75.0,240,240,1.0,0.0
416,60.0,7,360,3.0,0.0
417,63.0,0,360,3.0,0.0
418,74.0,120,240,1.0,0.0
419,72.0,288,180,1.0,0.0
420,55.0,65,840,5.0,0.0
421,77.0,240,240,1.0,0.0
422,75.0,240,240,1.0,0.0
423,74.0,120,240,1.0,0.0
424,60.0,7,360,3.0,0.0
425,63.0,0,360,3.0,0.0
426,72.0,336,180,1.0,0.0
427,84.0,0,300,1.0,0.0
428,54.0,0,300,5.0,0.0
429,60.0,0,300,3.0,0.0
430,63.0,912,300,3.0,0.0
431,77.0,240,240,1.0,0.0
432,75.0,240,240,1.0,0.0
433,63.0,0,300,3.0,0.0
434,74.0,48,240,1.0,0.0
435,60.0,144,300,3.0,0.0
436,54.0,0,300,5.0,0.0
437,72.0,336,180,1.0,0.0
438,60.0,960,300,3.0,0.0
439,63.0,0,300,3.0,0.0
440,87.0,0,300,1.0,0.0
441,56.0,0,300,5.0,0.0
442,44.0,0,300,5.0,0.0
443,56.0,0,300,5.0,0.0
444,72.0,960,300,2.0,0.0
445,78.0,0,300,1.0,0.0
446,43.0,0,300,5.0,0.0
447,71.0,0,300,2.0,0.0
448,55.0,1792,300,5.0,0.0
449,79.0,0,300,1.0,0.0
450,79.0,160,1110,1.0,0.0
451,81.0,160,150,1.0,0.0
452,79.0,160,150,1.0,0.0
453,77.0,160,150,1.0,0.0
454,79.0,160,150,1.0,0.0
455,77.0,160,150,1.0,0.0
456,76.0,160,150,1.0,0.0
457,77.0,160,150,1.0,0.0
458,76.0,160,150,1.0,0.0
459,74.0,160,150,1.0,0.0
460,76.0,160,150,1.0,0.0
461,74.0,240,150,1.0,0.0
462,72.0,120,240,1.0,0.0
463,64.0,120,360,5.0,0.0
464,67.0,80,240,3.0,0.0
465,71.0,80,90,1.0,0.0
466,65.0,0,360,5.0,0.0
467,72.0,80,90,1.0,0.0
468,71.0,120,90,1.0,0.0
469,67.0,240,240,3.0,0.0
470,69.0,120,120,1.0,0.0
471,71.0,0,120,1.0,0.0
472,64.0,120,360,5.0,0.0
473,72.0,120,240,1.0,0.0
474,67.0,80,240,3.0,0.0
475,74.0,80,90,1.0,0.0
476,59.0,120,360,5.0,0.0
477,76.0,80,90,1.0,0.0
478,74.0,120,90,1.0,0.0
479,72.0,0,120,1.0,0.0
480,67.0,240,240,3.0,0.0
481,74.0,0,120,1.0,0.0
482,76.0,120,240,1.0,0.0
483,60.0,120,360,5.0,0.0
484,67.0,80,240,3.0,0.0
485,77.0,80,90,1.0,0.0
486,57.0,0,360,5.0,0.0
487,79.0,80,90,1.0,0.0
488,77.0,120,90,1.0,0.0
489,76.0,120,120,1.0,0.0
490,60.0,0,240,3.0,0.0
491,77.0,240,120,1.0,0.0
492,79.0,120,240,1.0,0.0
493,52.0,120,360,5.0,0.0
494,60.0,240,240,3.0,0.0
495,81.0,120,240,1.0,0.0
496,53.0,72,360,5.0,0.0
497,65.0,528,180,3.0,0.0
498,55.0,0,840,5.0,0.0
499,72.0,0,480,1.0,0.0
500,64.0,240,480,3.0,0.0
501,62.0,1080,360,3.0,0.0
502,71.0,120,240,1.0,0.0
503,81.0,80,1110,1.0,0.0
504,57.0,0,480,5.0,0.0
505,61.0,160,480,4.0,0.0
506,62.0,80,240,4.0,0.0
507,59.0,0,240,5.0,0.0
508,82.0,160,150,1.0,0.0
509,81.0,160,150,1.0,0.0
510,79.0,80,150,1.0,0.0
511,61.0,0,240,5.0,0.0
512,64.0,80,240,4.0,0.0
513,81.0,160,150,1.0,0.0
514,79.0,160,150,1.0,0.0
515,77.0,80,150,1.0,0.0
516,62.0,0,240,5.0,0.0
517,65.0,80,240,4.0,0.0
518,79.0,160,150,1.0,0.0
519,77.0,160,150,1.0,0.0
520,64.0,80,240,5.0,0.0
521,67.0,0,240,4.0,0.0
522,76.0,80,150,1.0,0.0
523,77.0,160,150,1.0,0.0
524,76.0,240,150,1.0,0.0
525,69.0,480,240,4.0,0.0
526,74.0,0,240,1.0,0.0
527,65.0,0,240,5.0,0.0
528,86.0,480,240,1.0,0.0
529,81.0,320,240,1.0,0.0
530,53.0,240,480,5.0,0.0
531,83.0,80,90,1.0,0.0
532,55.0,0,720,4.0,0.0
533,84.0,80,90,1.0,0.0
534,83.0,120,90,1.0,0.0
535,81.0,120,120,1.0,0.0
536,83.0,0,120,1.0,0.0
537,84.0,0,240,1.0,0.0
538,52.0,320,240,5.0,0.0
539,57.0,0,480,4.0,0.0
540,72.0,80,90,1.0,0.0
541,54.0,0,480,5.0,0.0
542,74.0,80,90,1.0,0.0
543,72.0,120,90,1.0,0.0
544,71.0,120,120,1.0,0.0
545,72.0,480,120,1.0,0.0
546,55.0,0,960,5.0,0.0
547,60.0,480,480,4.0,0.0
548,76.0,0,480,1.0,0.0
549,74.0,240,480,1.0,0.0
550,72.0,360,360,1.0,0.0
551,60.0,120,240,5.0,0.0
552,48.0,960,240,5.0,0.0
553,55.0,160,1110,5.0,0.0
554,67.0,400,240,1.0,0.0
555,79.0,160,1110,1.0,0.0
556,57.0,160,150,5.0,0.0
557,55.0,160,150,5.0,0.0
558,53.0,160,150,5.0,0.0
559,55.0,160,150,5.0,0.0
560,53.0,160,150,5.0,0.0
561,52.0,0,150,5.0,0.0
562,81.0,160,150,1.0,0.0
563,53.0,0,150,5.0,0.0
564,52.0,0,150,5.0,0.0
565,79.0,160,150,1.0,0.0
566,77.0,0,150,1.0,0.0
567,50.0,160,150,5.0,0.0
568,79.0,160,150,1.0,0.0
569,52.0,0,150,5.0,0.0
570,77.0,0,150,1.0,0.0
571,50.0,160,150,5.0,0.0
572,76.0,80,150,1.0,0.0
573,48.0,80,240,5.0,0.0
574,77.0,160,150,1.0,0.0
575,76.0,80,150,1.0,0.0
576,50.0,80,90,5.0,0.0
577,74.0,80,150,1.0,0.0
578,52.0,0,90,5.0,0.0
579,50.0,80,90,5.0,0.0
580,72.0,40,150,1.0,0.0
581,48.0,120,120,5.0,0.0
582,71.0,160,150,1.0,0.0
583,50.0,0,120,5.0,0.0
584,52.0,80,240,5.0,0.0
585,72.0,80,150,1.0,0.0
586,74.0,160,150,1.0,0.0
587,72.0,160,150,1.0,0.0
588,70.0,80,150,1.0,0.0
589,40.0,80,240,5.0,0.0
590,69.0,128,150,1.0,0.0
591,68.0,192,120,1.0,0.0
592,41.0,120,360,5.0,0.0
593,69.0,160,150,1.0,0.0
594,74.0,40,150,1.0,0.0
595,73.0,160,150,1.0,0.0
596,74.0,160,150,1.0,0.0
597,77.0,160,150,1.0,0.0
598,76.0,160,150,1.0,0.0
599,77.0,160,150,1.0,0.0
600,81.0,160,150,1.0,0.0
601,80.0,160,150,1.0,0.0
602,53.0,240,480,5.0,0.0
603,81.0,160,150,1.0,0.0
604,77.0,128,150,1.0,0.0
605,74.0,32,120,1.0,0.0
606,55.0,240,240,5.0,0.0
607,72.0,240,480,1.0,0.0
608,43.0,120,240,5.0,0.0
609,71.0,840,360,1.0,0.0
610,57.0,160,1110,5.0,0.0
611,60.0,400,240,1.0,0.0
612,72.0,160,480,1.0,0.0
613,58.0,160,150,5.0,0.0
614,57.0,0,150,5.0,0.0
615,55.0,160,150,5.0,0.0
616,70.0,0,480,2.0,0.0
617,73.0,160,480,1.0,0.0
618,57.0,160,150,5.0,0.0
619,55.0,0,150,5.0,0.0
620,69.0,160,480,2.0,0.0
621,53.0,160,150,5.0,0.0
622,74.0,0,480,1.0,0.0
623,55.0,160,150,5.0,0.0
624,53.0,0,150,5.0,0.0
625,52.0,160,150,5.0,0.0
626,73.0,0,360,2.0,0.0
627,76.0,120,360,1.0,0.0
628,53.0,40,150,5.0,0.0
629,52.0,160,150,5.0,0.0
630,77.0,80,150,1.0,0.0
631,50.0,80,240,5.0,0.0
632,76.0,160,150,1.0,0.0
633,77.0,80,150,1.0,0.0
634,48.0,80,90,5.0,0.0
635,78.0,80,150,1.0,0.0
636,50.0,0,90,5.0,0.0
637,76.0,40,150,1.0,0.0
638,48.0,80,90,5.0,0.0
639,47.0,120,120,5.0,0.0
640,78.0,160,150,1.0,0.0
641,48.0,0,120,5.0,0.0
642,79.0,80,150,1.0,0.0
643,47.0,80,240,5.0,0.0
644,78.0,160,150,1.0,0.0
645,79.0,80,150,1.0,0.0
646,83.0,80,150,1.0,0.0
647,53.0,80,90,5.0,0.0
648,55.0,0,90,5.0,0.0
649,81.0,40,150,1.0,0.0
650,53.0,80,90,5.0,0.0
651,52.0,120,120,5.0,0.0
652,83.0,0,150,1.0,0.0
653,53.0,240,120,5.0,0.0
654,84.0,80,240,1.0,0.0
655,52.0,120,360,5.0,0.0
656,79.0,40,150,2.0,0.0
657,76.0,240,150,2.0,0.0
658,81.0,80,240,1.0,0.0
659,53.0,120,360,5.0,0.0
660,77.0,40,150,2.0,0.0
661,74.0,240,150,2.0,0.0
662,79.0,80,240,1.0,0.0
663,55.0,120,360,5.0,0.0
664,76.0,40,150,2.0,0.0
665,72.0,240,150,2.0,0.0
666,77.0,80,240,1.0,0.0
667,43.0,120,360,5.0,0.0
668,74.0,40,150,2.0,0.0
669,71.0,240,150,2.0,0.0
670,72.0,0,240,1.0,0.0
671,48.0,400,240,5.0,0.0
672,88.0,160,150,1.0,0.0
673,86.0,160,150,1.0,0.0
674,84.0,160,150,1.0,0.0
675,83.0,160,150,1.0,0.0
676,81.0,160,150,1.0,0.0
677,79.0,160,150,1.0,0.0
678,75.0,0,480,4.0,0.0
679,72.0,240,480,5.0,0.0
680,78.0,160,150,1.0,0.0
681,81.0,160,150,1.0,0.0
682,78.0,0,150,1.0,0.0
683,81.0,80,240,1.0,0.0
684,74.0,0,480,4.0,0.0
685,71.0,240,480,5.0,0.0
686,79.0,160,150,2.0,0.0
687,76.0,0,150,2.0,0.0
688,69.0,240,480,5.0,0.0
689,72.0,0,480,4.0,0.0
690,79.0,80,240,1.0,0.0
691,77.0,160,150,2.0,0.0
692,74.0,0,150,2.0,0.0
693,77.0,80,240,1.0,0.0
694,71.0,0,480,4.0,0.0
695,67.0,0,480,5.0,0.0
696,76.0,160,150,2.0,0.0
697,72.0,240,150,2.0,0.0
698,65.0,360,480,5.0,0.0
699,76.0,80,240,1.0,0.0
700,69.0,0,480,4.0,0.0
701,74.0,160,150,2.0,0.0
702,71.0,0,150,2.0,0.0
703,64.0,0,360,5.0,0.0
704,72.0,0,360,1.0,0.0
705,67.0,280,360,4.0,0.0
706,63.0,160,150,5.0,0.0
707,62.0,160,150,5.0,0.0
708,60.0,160,150,5.0,0.0
709,58.0,160,150,5.0,0.0
710,56.0,160,150,5.0,0.0
711,55.0,160,150,5.0,0.0
712,54.0,160,150,5.0,0.0
713,75.0,160,480,2.0,0.0
714,84.0,0,960,1.0,0.0
715,57.0,160,150,5.0,0.0
716,54.0,0,150,5.0,0.0
717,57.0,160,150,5.0,0.0
718,74.0,0,960,2.0,0.0
719,55.0,160,150,5.0,0.0
720,52.0,160,150,5.0,0.0
721,83.0,160,480,1.0,0.0
722,55.0,160,150,5.0,0.0
723,53.0,160,150,5.0,0.0
724,50.0,0,150,5.0,0.0
725,79.0,0,960,2.0,0.0
726,53.0,160,150,5.0,0.0
727,84.0,0,480,1.0,0.0
728,52.0,160,150,5.0,0.0
729,48.0,160,150,5.0,0.0
730,86.0,0,480,1.0,0.0
731,52.0,160,150,5.0,0.0
732,77.0,0,480,2.0,0.0
733,50.0,160,150,5.0,0.0
734,47.0,360,150,5.0,0.0
735,88.0,280,360,1.0,0.0
736,79.0,0,360,2.0,0.0
737,76.0,0,360,2.0,0.0
738,48.0,0,360,5.0,0.0
739,79.0,160,150,1.0,0.0
740,77.0,160,150,1.0,0.0
741,76.0,160,150,1.0,0.0
742,74.0,160,150,1.0,0.0
743,72.0,160,150,1.0,0.0
744,71.0,160,150,1.0,0.0
745,60.0,0,840,4.0,0.0
746,72.0,160,150,1.0,0.0
747,52.0,360,480,5.0,0.0
748,70.0,160,150,1.0,0.0
749,68.0,0,150,1.0,0.0
750,69.0,0,360,1.0,0.0
751,53.0,280,360,5.0,0.0
752,69.0,160,150,5.0,0.0
753,67.0,160,150,5.0,0.0
754,65.0,160,150,5.0,0.0
755,64.0,160,150,5.0,0.0
756,62.0,160,150,5.0,0.0
757,61.0,160,150,5.0,0.0
758,74.0,120,360,2.0,0.0
759,78.0,0,360,1.0,0.0
760,62.0,160,150,5.0,0.0
761,60.0,40,150,5.0,0.0
762,58.0,360,150,5.0,0.0
763,59.0,0,360,5.0,0.0
764,79.0,280,360,1.0,0.0
765,74.0,0,360,2.0,0.0
766,67.0,160,150,1.0,0.0
767,71.0,160,150,1.0,0.0
768,74.0,160,150,1.0,0.0
769,79.0,160,150,1.0,0.0
770,83.0,160,150,1.0,0.0
771,86.0,160,150,1.0,0.0
772,60.0,120,360,5.0,0.0
773,62.0,0,360,4.0,0.0
774,84.0,160,150,1.0,0.0
775,81.0,40,150,1.0,0.0
776,78.0,240,150,1.0,0.0
777,62.0,0,360,4.0,0.0
778,79.0,120,240,1.0,0.0
779,59.0,280,360,5.0,0.0
780,67.0,160,150,1.0,0.0
781,71.0,160,150,1.0,0.0
782,74.0,160,150,1.0,0.0
783,79.0,160,150,1.0,0.0
784,83.0,160,150,1.0,0.0
785,86.0,160,150,1.0,0.0
786,84.0,160,150,1.0,0.0
787,57.0,120,360,5.0,0.0
788,62.0,0,360,4.0,0.0
789,60.0,0,360,4.0,0.0
790,81.0,40,150,1.0,0.0
791,78.0,160,150,1.0,0.0
792,79.0,160,150,1.0,0.0
793,59.0,0,360,4.0,0.0
794,62.0,0,840,4.0,0.0
795,55.0,120,360,5.0,0.0
796,83.0,40,150,1.0,0.0
797,86.0,160,150,1.0,0.0
798,84.0,160,150,1.0,0.0
799,57.0,120,360,5.0,0.0
800,60.0,0,360,4.0,0.0
801,81.0,40,150,1.0,0.0
802,78.0,160,150,1.0,0.0
803,59.0,120,360,4.0,0.0
804,62.0,0,840,4.0,0.0
805,79.0,160,150,1.0,0.0
806,55.0,0,360,5.0,0.0
807,83.0,40,150,1.0,0.0
808,86.0,160,150,1.0,0.0
809,57.0,120,360,5.0,0.0
810,84.0,160,150,1.0,0.0
811,60.0,0,360,4.0,0.0
812,81.0,40,150,1.0,0.0
813,78.0,360,150,1.0,0.0
814,79.0,0,360,1.0,0.0
815,59.0,360,360,4.0,0.0
816,62.0,0,360,4.0,0.0
817,55.0,0,360,5.0,0.0
818,43.0,480,240,5.0,0.0
819,45.0,480,240,5.0,0.0
820,47.0,480,240,5.0,0.0
821,48.0,480,240,5.0,0.0
822,52.0,480,240,5.0,0.0
823,53.0,480,240,5.0,0.0
824,56.0,480,240,5.0,0.0
825,57.0,240,240,5.0,0.0
826,60.0,240,240,5.0,0.0
827,59.0,240,240,5.0,0.0
828,57.0,240,240,5.0,0.0
829,59.0,240,240,5.0,0.0
830,60.0,240,240,5.0,0.0
831,57.0,192,240,5.0,0.0
832,59.0,288,180,5.0,0.0
833,60.0,480,240,5.0,0.0
834,57.0,480,240,5.0,0.0
835,52.0,320,240,5.0,0.0
836,54.0,80,90,5.0,0.0
837,55.0,80,90,5.0,0.0
838,54.0,120,90,5.0,0.0
839,52.0,120,120,5.0,0.0
840,54.0,720,120,5.0,0.0
841,55.0,240,3840,5.0,0.0
842,64.0,240,480,4.0,0.0
843,67.0,240,240,1.0,0.0
844,65.0,240,480,4.0,0.0
845,69.0,240,240,1.0,0.0
846,62.0,240,480,4.0,0.0
847,71.0,240,240,1.0,0.0
848,72.0,240,240,1.0,0.0
849,64.0,240,480,4.0,0.0
850,61.0,240,480,4.0,0.0
851,76.0,240,240,1.0,0.0
852,77.0,240,240,1.0,0.0
853,62.0,240,480,4.0,0.0
854,64.0,0,480,4.0,0.0
855,80.0,240,240,1.0,0.0
856,81.0,240,240,1.0,0.0
857,65.0,240,2160,4.0,0.0
858,84.0,240,240,1.0,0.0
859,83.0,240,240,1.0,0.0
860,81.0,240,240,1.0,0.0
861,83.0,240,240,1.0,0.0
862,84.0,240,240,1.0,0.0
863,81.0,192,240,1.0,0.0
864,83.0,288,180,1.0,0.0
865,84.0,276,2040,1.0,0.0
866,62.0,240,240,4.0,0.0
867,64.0,240,240,4.0,0.0
868,65.0,240,240,4.0,0.0
869,64.0,240,240,4.0,0.0
870,60.0,240,240,4.0,0.0
871,66.0,192,240,4.0,0.0
872,62.0,48,180,4.0,0.0
873,55.0,120,15,5.0,0.0
874,67.0,276,600,4.0,0.0
875,81.0,204,150,1.0,0.0
876,83.0,276,600,1.0,0.0
877,64.0,204,150,4.0,0.0
878,65.0,269,600,4.0,0.0
879,80.0,211,150,1.0,0.0
880,81.0,396,480,1.0,0.0
881,63.0,84,150,4.0,0.0
882,64.0,276,600,4.0,0.0
883,78.0,204,150,1.0,0.0
884,79.0,276,600,1.0,0.0
885,61.0,204,150,4.0,0.0
886,62.0,480,3840,4.0,0.0
887,76.0,219,150,1.0,0.0
888,77.0,240,150,1.0,0.0
889,56.0,0,150,5.0,0.0
890,77.0,324,150,1.0,0.0
891,57.0,149,3840,5.0,0.0
892,77.0,80,240,1.0,0.0
893,79.0,80,90,1.0,0.0
894,77.0,80,90,1.0,0.0
895,76.0,240,90,1.0,0.0
896,77.0,240,240,1.0,0.0
897,79.0,480,240,1.0,0.0
898,81.0,240,480,1.0,0.0
899,79.0,240,240,1.0,0.0
900,77.0,156,240,1.0,0.0
901,76.0,804,150,1.0,0.0
902,82.0,240,960,1.0,0.0
903,61.0,7,960,4.0,0.0
904,81.0,240,240,1.0,0.0
905,79.0,0,240,1.0,0.0
906,77.0,204,150,1.0,0.0
907,62.0,120,360,4.0,0.0
908,82.0,240,240,1.0,0.0
909,81.0,240,240,1.0,0.0
910,80.0,240,240,1.0,0.0
911,81.0,240,240,1.0,0.0
912,76.0,240,240,1.0,0.0
913,81.0,240,240,1.0,0.0
914,69.0,120,840,4.0,0.0
915,61.0,0,480,5.0,0.0
916,79.0,240,240,1.0,0.0
917,62.0,0,360,5.0,0.0
918,77.0,120,240,1.0,0.0
919,81.0,240,240,1.0,0.0
920,79.0,240,240,1.0,0.0
921,78.0,240,240,1.0,0.0
922,79.0,240,240,1.0,0.0
923,74.0,240,240,1.0,0.0
924,79.0,240,240,1.0,0.0
925,67.0,300,1380,4.0,0.0
926,59.0,240,480,5.0,0.0
927,77.0,240,480,1.0,0.0
928,60.0,8,900,5.0,0.0
929,75.0,240,240,1.0,0.0
930,77.0,172,240,1.0,0.0
931,76.0,240,480,1.0,0.0
932,65.0,285,900,4.0,0.0
933,53.0,8,900,5.0,0.0
934,69.0,240,240,1.0,0.0
935,76.0,187,240,1.0,0.0
936,74.0,240,480,1.0,0.0
937,64.0,240,960,4.0,0.0
938,55.0,12,1860,5.0,0.0
939,67.0,240,240,1.0,0.0
940,74.0,240,240,1.0,0.0
941,72.0,240,480,1.0,0.0
942,62.0,309,900,4.0,0.0
943,65.0,240,240,1.0,0.0
944,72.0,180,240,1.0,0.0
945,71.0,3,180,1.0,0.0
946,66.0,0,1200,4.0,0.0
947,57.0,0,1200,5.0,0.0
948,60.0,24,1200,4.0,0.0
949,72.0,160,90,1.0,0.0
950,74.0,160,90,1.0,0.0
951,76.0,160,90,1.0,0.0
952,78.0,160,90,1.0,0.0
953,79.0,160,90,1.0,0.0
954,81.0,136,90,1.0,0.0
955,83.0,160,90,1.0,0.0
956,84.0,160,90,1.0,0.0
957,86.0,136,90,1.0,0.0
958,57.0,0,240,5.0,0.0
959,60.0,24,240,4.0,0.0
960,66.0,0,240,4.0,0.0
961,88.0,160,90,1.0,0.0
962,84.0,376,90,1.0,0.0
963,67.0,15,1200,4.0,0.0
964,64.0,0,1200,4.0,0.0
965,60.0,80,1200,4.0,0.0
966,55.0,0,1200,5.0,0.0
967,88.0,160,150,1.0,0.0
968,86.0,160,150,1.0,0.0
969,84.0,160,150,1.0,0.0
970,83.0,160,150,1.0,0.0
971,81.0,160,150,1.0,0.0
972,79.0,65,150,1.0,0.0
973,77.0,160,150,1.0,0.0
974,76.0,160,150,1.0,0.0
975,74.0,80,150,1.0,0.0
976,64.0,80,240,4.0,0.0
977,55.0,0,240,5.0,0.0
978,60.0,0,240,4.0,0.0
979,76.0,128,150,1.0,0.0
980,72.0,296,120,1.0,0.0
981,57.0,9,1200,4.0,0.0
982,60.0,15,1200,4.0,0.0
983,64.0,15,1200,4.0,0.0
984,54.0,0,1200,5.0,0.0
985,72.0,160,90,1.0,0.0
986,74.0,160,90,1.0,0.0
987,76.0,160,90,1.0,0.0
988,78.0,160,90,1.0,0.0
989,79.0,160,90,1.0,0.0
990,81.0,121,90,1.0,0.0
991,83.0,160,90,1.0,0.0
992,84.0,160,90,1.0,0.0
993,86.0,136,90,1.0,0.0
994,54.0,24,240,5.0,0.0
995,64.0,0,240,4.0,0.0
996,60.0,0,240,4.0,0.0
997,57.0,0,240,4.0,0.0
998,88.0,160,90,1.0,0.0
999,84.0,376,90,1.0,0.0
1000,60.0,15,1200,4.0,0.0
1001,55.0,80,1200,5.0,0.0
1002,64.0,0,1200,4.0,0.0
1003,88.0,160,150,1.0,0.0
1004,86.0,160,150,1.0,0.0
1005,84.0,160,150,1.0,0.0
1006,83.0,160,150,1.0,0.0
1007,81.0,160,150,1.0,0.0
1008,79.0,65,150,1.0,0.0
1009,77.0,160,150,1.0,0.0
1010,76.0,160,150,1.0,0.0
1011,64.0,80,240,4.0,0.0
1012,60.0,0,240,4.0,0.0
1013,55.0,0,240,5.0,0.0
1014,74.0,80,150,1.0,0.0
1015,76.0,128,150,1.0,0.0
1016,72.0,296,120,1.0,0.0
1017,60.0,15,1200,4.0,0.0
1018,56.0,0,1200,5.0,0.0
1019,63.0,9,1200,4.0,0.0
1020,66.0,15,1200,4.0,0.0
1021,72.0,160,90,1.0,0.0
1022,74.0,160,90,1.0,0.0
1023,75.0,160,90,1.0,0.0
1024,78.0,160,90,1.0,0.0
1025,79.0,160,90,1.0,0.0
1026,80.0,121,90,1.0,0.0
1027,83.0,160,90,1.0,0.0
1028,84.0,160,90,1.0,0.0
1029,60.0,0,240,4.0,0.0
1030,63.0,24,240,4.0,0.0
1031,56.0,0,240,5.0,0.0
1032,66.0,0,240,4.0,0.0
1033,86.0,136,90,1.0,0.0
1034,87.0,160,90,1.0,0.0
1035,84.0,176,90,1.0,0.0
1036,88.0,120,120,1.0,0.0
1037,55.0,120,240,5.0,0.0
1038,64.0,0,240,4.0,0.0
1039,60.0,0,240,4.0,0.0
1040,67.0,0,240,4.0,0.0
1041,86.0,0,120,1.0,0.0
1042,84.0,120,120,1.0,0.0
1043,83.0,120,120,1.0,0.0
1044,81.0,120,120,1.0,0.0
1045,79.0,120,120,1.0,0.0
1046,77.0,96,120,1.0,0.0
1047,76.0,144,90,1.0,0.0
1048,84.0,120,120,1.0,0.0
1049,83.0,120,120,1.0,0.0
1050,81.0,120,120,1.0,0.0
1051,79.0,120,120,1.0,0.0
1052,77.0,120,120,1.0,0.0
1053,76.0,120,120,1.0,0.0
1054,74.0,96,120,1.0,0.0
1055,72.0,104,90,1.0,0.0
1056,60.0,80,960,4.0,0.0
1057,74.0,80,90,1.0,0.0
1058,55.0,151,1890,5.0,0.0
1059,76.0,80,90,1.0,0.0
1060,74.0,80,90,1.0,0.0
1061,76.0,80,90,1.0,0.0
1062,74.0,80,90,1.0,0.0
1063,76.0,80,90,1.0,0.0
1064,74.0,80,90,1.0,0.0
1065,76.0,80,90,1.0,0.0
1066,74.0,80,90,1.0,0.0
1067,76.0,80,90,1.0,0.0
1068,74.0,80,90,1.0,0.0
1069,76.0,0,90,1.0,0.0
1070,59.0,0,930,4.0,0.0
1071,74.0,80,90,1.0,0.0
1072,76.0,80,90,1.0,0.0
1073,74.0,80,90,1.0,0.0
1074,76.0,80,90,1.0,0.0
1075,74.0,80,90,1.0,0.0
1076,76.0,80,90,1.0,0.0
1077,74.0,80,90,1.0,0.0
1078,76.0,80,90,1.0,0.0
1079,74.0,120,90,1.0,0.0
1080,72.0,96,120,1.0,0.0
1081,74.0,1,90,1.0,0.0
1082,60.0,160,120,1.0,0.0
1083,48.0,0,4290,5.0,0.0
1084,36.0,0,4290,5.0,0.0
1085,64.0,160,120,1.0,0.0
1086,67.0,160,120,1.0,0.0
1087,72.0,160,120,1.0,0.0
1088,76.0,160,120,1.0,0.0
1089,79.0,272,120,1.0,0.0
1090,84.0,48,240,1.0,0.0
1091,79.0,160,120,2.0,0.0
1092,76.0,272,120,2.0,0.0
1093,83.0,48,240,1.0,0.0
1094,77.0,160,120,2.0,0.0
1095,74.0,272,120,2.0,0.0
1096,81.0,48,240,1.0,0.0
1097,76.0,160,120,2.0,0.0
1098,72.0,272,120,2.0,0.0
1099,79.0,48,240,1.0,0.0
1100,74.0,160,120,2.0,0.0
1101,71.0,272,120,2.0,0.0
1102,77.0,48,240,1.0,0.0
1103,72.0,160,120,2.0,0.0
1104,69.0,272,120,2.0,0.0
1105,76.0,48,240,1.0,0.0
1106,71.0,160,120,2.0,0.0
1107,67.0,272,120,2.0,0.0
1108,64.0,48,240,1.0,0.0
1109,70.0,160,120,2.0,0.0
1110,73.0,272,120,2.0,0.0
1111,65.0,48,240,1.0,0.0
1112,53.0,88,360,5.0,0.0
1113,69.0,72,120,2.0,0.0
1114,74.0,272,120,2.0,0.0
1115,55.0,88,360,5.0,0.0
1116,64.0,48,240,1.0,0.0
1117,67.0,72,120,2.0,0.0
1118,72.0,272,120,2.0,0.0
1119,62.0,48,240,1.0,0.0
1120,43.0,88,360,5.0,0.0
1121,65.0,72,120,2.0,0.0
1122,71.0,160,120,2.0,0.0
1123,36.0,0,4290,5.0,0.0
1124,60.0,160,120,1.0,0.0
1125,48.0,272,4290,5.0,0.0
1126,64.0,160,120,1.0,0.0
1127,67.0,160,120,1.0,0.0
1128,72.0,160,120,1.0,0.0
1129,76.0,160,120,1.0,0.0
1130,79.0,272,120,1.0,0.0
1131,84.0,48,240,1.0,0.0
1132,79.0,160,120,2.0,0.0
1133,76.0,272,120,2.0,0.0
1134,83.0,48,240,1.0,0.0
1135,77.0,160,120,2.0,0.0
1136,74.0,272,120,2.0,0.0
1137,81.0,48,240,1.0,0.0
1138,76.0,160,120,2.0,0.0
1139,72.0,272,120,2.0,0.0
1140,79.0,48,240,1.0,0.0
1141,74.0,160,120,2.0,0.0
1142,71.0,272,120,2.0,0.0
1143,77.0,48,240,1.0,0.0
1144,72.0,160,120,2.0,0.0
1145,69.0,272,120,2.0,0.0
1146,76.0,48,240,1.0,0.0
1147,71.0,160,120,2.0,0.0
1148,67.0,272,120,2.0,0.0
1149,64.0,48,240,1.0,0.0
1150,70.0,160,120,2.0,0.0
1151,73.0,0,120,2.0,0.0
1152,65.0,48,240,1.0,0.0
1153,53.0,88,360,5.0,0.0
1154,69.0,72,120,2.0,0.0
1155,74.0,272,120,2.0,0.0
1156,55.0,88,360,5.0,0.0
1157,64.0,48,240,1.0,0.0
1158,67.0,72,120,2.0,0.0
1159,72.0,272,120,2.0,0.0
1160,43.0,88,360,5.0,0.0
1161,62.0,48,240,1.0,0.0
1162,65.0,72,120,2.0,0.0
1163,71.0,272,120,2.0,0.0
1164,48.0,21,2340,5.0,0.0
1165,64.0,48,240,1.0,0.0
1166,67.0,160,120,2.0,0.0
1167,72.0,272,120,2.0,0.0
1168,63.0,48,240,1.0,0.0
1169,66.0,160,120,2.0,0.0
1170,72.0,272,120,2.0,0.0
1171,64.0,48,240,1.0,0.0
1172,67.0,160,120,2.0,0.0
1173,72.0,272,120,2.0,0.0
1174,63.0,48,240,1.0,0.0
1175,66.0,160,120,2.0,0.0
1176,72.0,272,120,2.0,0.0
1177,64.0,48,240,1.0,0.0
1178,67.0,139,120,2.0,0.0
1179,72.0,272,120,2.0,0.0
1180,53.0,88,360,5.0,0.0
1181,69.0,48,240,1.0,0.0
1182,65.0,72,120,2.0,0.0
1183,62.0,272,120,2.0,0.0
1184,55.0,88,360,5.0,0.0
1185,67.0,48,240,1.0,0.0
1186,64.0,72,120,2.0,0.0
1187,60.0,272,120,2.0,0.0
1188,43.0,88,360,5.0,0.0
1189,65.0,48,240,1.0,0.0
1190,62.0,72,120,2.0,0.0
1191,59.0,272,120,2.0,0.0
1192,36.0,88,2280,5.0,0.0
1193,48.0,0,2280,5.0,0.0
1194,55.0,48,240,1.0,0.0
1195,60.0,160,120,2.0,0.0
1196,64.0,272,120,2.0,0.0
1197,54.0,48,240,1.0,0.0
1198,60.0,160,120,2.0,0.0
1199,63.0,272,120,2.0,0.0
1200,55.0,48,240,1.0,0.0
1201,60.0,160,120,2.0,0.0
1202,64.0,272,120,2.0,0.0
1203,54.0,48,240,1.0,0.0
1204,60.0,160,120,2.0,0.0
1205,63.0,272,120,2.0,0.0
1206,55.0,48,240,1.0,0.0
1207,60.0,72,120,2.0,0.0
1208,64.0,272,120,2.0,0.0
1209,62.0,48,240,1.0,0.0
1210,41.0,88,360,5.0,0.0
1211,57.0,72,120,2.0,0.0
1212,53.0,272,120,2.0,0.0
1213,43.0,88,360,5.0,0.0
1214,60.0,48,240,1.0,0.0
1215,55.0,72,120,2.0,0.0
1216,52.0,272,120,2.0,0.0
1217,31.0,88,360,5.0,0.0
1218,59.0,48,240,1.0,0.0
1219,53.0,72,120,2.0,0.0
1220,50.0,160,120,2.0,0.0
1221,48.0,0,120,1.0,0.0
1222,36.0,160,120,5.0,0.0
1223,52.0,0,120,1.0,0.0
1224,40.0,160,120,5.0,0.0
1225,55.0,160,120,1.0,0.0
1226,43.0,0,120,5.0,0.0
1227,60.0,0,120,1.0,0.0
1228,48.0,160,120,5.0,0.0
1229,55.0,0,120,1.0,0.0
1230,43.0,160,120,5.0,0.0
1231,52.0,0,120,1.0,0.0
1232,40.0,160,120,5.0,0.0
1233,48.0,0,120,1.0,0.0
1234,36.0,160,120,5.0,0.0
1235,40.0,160,120,5.0,0.0
1236,52.0,0,120,1.0,0.0
1237,55.0,160,120,1.0,0.0
1238,43.0,0,120,5.0,0.0
1239,60.0,160,120,1.0,0.0
1240,48.0,0,120,5.0,0.0
1241,55.0,0,120,1.0,0.0
1242,43.0,160,120,5.0,0.0
1243,52.0,0,120,1.0,0.0
1244,40.0,160,120,5.0,0.0
1245,48.0,160,120,1.0,0.0
1246,36.0,0,120,5.0,0.0
1247,52.0,0,120,1.0,0.0
1248,40.0,160,120,5.0,0.0
1249,43.0,0,120,5.0,0.0
1250,55.0,160,120,1.0,0.0
1251,48.0,160,120,5.0,0.0
1252,60.0,0,120,1.0,0.0
1253,64.0,0,120,1.0,0.0
1254,52.0,160,120,5.0,0.0
1255,67.0,0,120,1.0,0.0
1256,55.0,160,120,5.0,0.0
1257,72.0,0,120,1.0,0.0
1258,60.0,160,120,5.0,0.0
1259,55.0,0,120,5.0,0.0
1260,67.0,160,120,1.0,0.0
1261,52.0,0,120,5.0,0.0
1262,64.0,160,120,1.0,0.0
1263,48.0,0,120,5.0,0.0
1264,60.0,160,120,1.0,0.0
1265,64.0,160,120,1.0,0.0
1266,52.0,0,120,5.0,0.0
1267,55.0,0,120,5.0,0.0
1268,67.0,160,120,1.0,0.0
1269,60.0,0,120,1.0,0.0
1270,48.0,160,120,5.0,0.0
1271,52.0,0,120,5.0,0.0
1272,64.0,160,120,1.0,0.0
1273,55.0,0,120,5.0,0.0
1274,67.0,160,120,1.0,0.0
1275,60.0,0,120,5.0,0.0
1276,72.0,160,120,1.0,0.0
1277,76.0,160,120,1.0,0.0
1278,64.0,0,120,5.0,0.0
1279,67.0,0,120,5.0,0.0
1280,79.0,160,120,1.0,0.0
1281,72.0,0,120,5.0,0.0
1282,84.0,160,120,1.0,0.0
1283,67.0,160,120,5.0,0.0
1284,79.0,0,120,1.0,0.0
1285,76.0,160,120,1.0,0.0
1286,64.0,0,120,5.0,0.0
1287,60.0,0,120,5.0,0.0
1288,72.0,160,120,1.0,0.0
1289,64.0,0,120,5.0,0.0
1290,76.0,160,120,1.0,0.0
1291,79.0,392,120,1.0,0.0
1292,67.0,0,120,5.0,0.0
1293,84.0,480,360,1.0,0.0
1294,72.0,0,360,1.0,0.0
1295,48.0,0,360,5.0,0.0
1296,72.0,840,360,1.0,0.0
1297,60.0,0,360,1.0,0.0
1298,79.0,480,240,1.0,0.0
1299,77.0,240,240,1.0,0.0
1300,75.0,240,240,1.0,0.0
1301,74.0,240,240,1.0,0.0
1302,72.0,240,240,1.0,0.0
1303,75.0,240,240,1.0,0.0
1304,74.0,240,240,1.0,0.0
1305,77.0,192,240,1.0,0.0
1306,71.0,176,180,1.0,0.0
1307,36.0,160,120,5.0,0.0
1308,72.0,128,480,1.0,0.0
1309,39.0,160,120,5.0,0.0
1310,43.0,32,120,5.0,0.0
1311,48.0,160,120,5.0,0.0
1312,67.0,88,360,1.0,0.0
1313,43.0,72,120,5.0,0.0
1314,39.0,160,120,5.0,0.0
1315,36.0,160,120,5.0,0.0
1316,39.0,160,120,5.0,0.0
1317,43.0,160,120,5.0,0.0
1318,67.0,0,240,2.0,0.0
1319,75.0,48,240,1.0,0.0
1320,48.0,112,120,5.0,0.0
1321,43.0,160,120,5.0,0.0
1322,39.0,160,120,5.0,0.0
1323,74.0,0,480,1.0,0.0
1324,65.0,128,480,2.0,0.0
1325,36.0,160,120,5.0,0.0
1326,39.0,160,120,5.0,0.0
1327,43.0,32,120,5.0,0.0
1328,48.0,160,120,5.0,0.0
1329,63.0,88,360,2.0,0.0
1330,72.0,0,360,1.0,0.0
1331,51.0,72,120,5.0,0.0
1332,55.0,160,120,5.0,0.0
1333,60.0,160,120,5.0,0.0
1334,55.0,160,120,5.0,0.0
1335,51.0,160,120,5.0,0.0
1336,79.0,48,240,1.0,0.0
1337,48.0,112,120,5.0,0.0
1338,75.0,0,240,2.0,0.0
1339,51.0,160,120,5.0,0.0
1340,55.0,160,120,5.0,0.0
1341,77.0,0,480,1.0,0.0
1342,74.0,128,480,2.0,0.0
1343,48.0,160,120,5.0,0.0
1344,51.0,160,120,5.0,0.0
1345,55.0,32,120,5.0,0.0
1346,60.0,160,120,5.0,0.0
1347,72.0,0,360,2.0,0.0
1348,75.0,88,360,1.0,0.0
1349,63.0,72,120,5.0,0.0
1350,67.0,160,120,5.0,0.0
1351,72.0,160,120,5.0,0.0
1352,67.0,160,120,5.0,0.0
1353,63.0,160,120,5.0,0.0
1354,79.0,48,240,1.0,0.0
1355,60.0,112,120,5.0,0.0
1356,63.0,160,120,5.0,0.0
1357,67.0,192,120,5.0,0.0
1358,87.0,160,150,1.0,0.0
1359,72.0,80,720,5.0,0.0
1360,89.0,160,150,1.0,0.0
1361,87.0,160,150,1.0,0.0
1362,86.0,80,150,1.0,0.0
1363,84.0,160,150,1.0,0.0
1364,83.0,160,150,1.0,0.0
1365,84.0,160,150,1.0,0.0
1366,86.0,160,150,1.0,0.0
1367,84.0,160,150,1.0,0.0
1368,82.0,160,150,1.0,0.0
1369,60.0,120,360,5.0,0.0
1370,81.0,40,150,1.0,0.0
1371,79.0,160,150,1.0,0.0
1372,78.0,160,150,1.0,0.0
1373,62.0,80,720,5.0,0.0
1374,79.0,160,150,1.0,0.0
1375,81.0,160,150,1.0,0.0
1376,79.0,80,150,1.0,0.0
1377,78.0,160,150,1.0,0.0
1378,75.0,160,150,1.0,0.0
1379,74.0,160,150,1.0,0.0
1380,72.0,160,150,1.0,0.0
1381,70.0,160,150,1.0,0.0
1382,50.0,80,240,5.0,0.0
1383,69.0,80,150,1.0,0.0
1384,67.0,160,150,1.0,0.0
1385,66.0,240,150,1.0,0.0
1386,48.0,120,240,5.0,0.0
1387,67.0,120,360,1.0,0.0
1388,46.0,240,240,5.0,0.0
1389,45.0,240,240,5.0,0.0
1390,43.0,240,240,5.0,0.0
1391,46.0,240,240,5.0,0.0
1392,45.0,240,240,5.0,0.0
1393,48.0,192,240,5.0,0.0
1394,42.0,176,180,5.0,0.0
1395,43.0,128,480,5.0,0.0
1396,55.0,160,120,2.0,0.0
1397,58.0,160,120,2.0,0.0
1398,62.0,32,120,2.0,0.0
1399,67.0,160,120,2.0,0.0
1400,38.0,88,360,5.0,0.0
1401,62.0,72,120,2.0,0.0
1402,58.0,160,120,2.0,0.0
1403,55.0,160,120,2.0,0.0
1404,58.0,160,120,2.0,0.0
1405,62.0,160,120,2.0,0.0
1406,46.0,0,240,5.0,0.0
1407,67.0,112,120,2.0,0.0
1408,50.0,48,240,4.0,0.0
1409,62.0,160,120,2.0,0.0
1410,58.0,160,120,2.0,0.0
1411,45.0,128,480,5.0,0.0
1412,48.0,0,480,4.0,0.0
1413,55.0,160,120,2.0,0.0
1414,58.0,160,120,2.0,0.0
1415,62.0,32,120,2.0,0.0
1416,46.0,0,360,4.0,0.0
1417,43.0,88,360,5.0,0.0
1418,67.0,160,120,2.0,0.0
1419,70.0,72,120,2.0,0.0
1420,74.0,160,120,2.0,0.0
1421,79.0,160,120,2.0,0.0
1422,74.0,160,120,2.0,0.0
1423,70.0,160,120,2.0,0.0
1424,67.0,112,120,2.0,0.0
1425,58.0,48,240,4.0,0.0
1426,50.0,0,240,5.0,0.0
1427,70.0,160,120,2.0,0.0
1428,74.0,160,120,2.0,0.0
1429,67.0,160,120,2.0,0.0
1430,48.0,128,480,5.0,0.0
1431,57.0,0,480,4.0,0.0
1432,70.0,160,120,2.0,0.0
1433,74.0,32,120,2.0,0.0
1434,79.0,160,120,2.0,0.0
1435,55.0,88,360,4.0,0.0
1436,46.0,0,360,5.0,0.0
1437,82.0,72,120,2.0,0.0
1438,84.0,160,120,2.0,0.0
1439,86.0,160,120,2.0,0.0
1440,84.0,160,120,2.0,0.0
1441,82.0,160,120,2.0,0.0
1442,62.0,48,240,5.0,0.0
1443,81.0,112,120,2.0,0.0
1444,79.0,160,120,2.0,0.0
1445,78.0,192,120,2.0,0.0
1446,79.0,80,240,1.0,0.0
1447,70.0,80,150,5.0,0.0
1448,72.0,160,150,5.0,0.0
1449,70.0,80,150,5.0,0.0
1450,81.0,80,90,1.0,0.0
1451,69.0,0,150,5.0,0.0
1452,82.0,80,90,1.0,0.0
1453,67.0,40,150,5.0,0.0
1454,81.0,80,90,1.0,0.0
1455,79.0,120,120,1.0,0.0
1456,66.0,0,150,5.0,0.0
1457,81.0,160,120,1.0,0.0
1458,67.0,160,150,5.0,0.0
1459,82.0,113,1320,1.0,0.0
1460,69.0,160,150,5.0,0.0
1461,67.0,160,150,5.0,0.0
1462,74.0,120,360,2.0,0.0
1463,65.0,160,150,5.0,0.0
1464,64.0,40,150,5.0,0.0
1465,62.0,160,150,5.0,0.0
1466,61.0,160,150,5.0,0.0
1467,76.0,10,630,2.0,0.0
1468,62.0,47,150,5.0,0.0
1469,64.0,150,150,5.0,0.0
1470,80.0,67,360,1.0,0.0
1471,62.0,160,150,5.0,0.0
1472,61.0,40,150,5.0,0.0
1473,74.0,53,180,2.0,0.0
1474,58.0,160,150,5.0,0.0
1475,73.0,8,360,2.0,0.0
1476,81.0,120,360,1.0,0.0
1477,57.0,160,150,5.0,0.0
1478,55.0,32,150,5.0,0.0
1479,53.0,160,150,5.0,0.0
1480,52.0,160,150,5.0,0.0
1481,79.0,7,360,1.0,0.0
1482,76.0,113,360,2.0,0.0
1483,50.0,40,150,5.0,0.0
1484,49.0,288,150,5.0,0.0
1485,77.0,0,360,1.0,0.0
1486,50.0,88,360,5.0,0.0
1487,69.0,88,840,2.0,0.0
1488,53.0,72,120,4.0,0.0
1489,57.0,320,120,4.0,0.0
1490,76.0,0,360,1.0,0.0
1491,48.0,0,360,5.0,0.0
1492,52.0,72,120,4.0,0.0
1493,57.0,320,120,4.0,0.0
1494,47.0,88,360,5.0,0.0
1495,74.0,8,840,1.0,0.0
1496,65.0,8,360,2.0,0.0
1497,50.0,64,120,4.0,0.0
1498,57.0,320,120,4.0,0.0
1499,46.0,88,360,5.0,0.0
1500,62.0,0,360,2.0,0.0
1501,50.0,64,120,4.0,0.0
1502,56.0,192,120,4.0,0.0
1503,57.0,0,720,4.0,0.0
1504,45.0,80,720,5.0,0.0
1505,73.0,160,150,1.0,0.0
1506,69.0,160,150,1.0,0.0
1507,73.0,160,150,1.0,0.0
1508,76.0,80,150,1.0,0.0
1509,81.0,160,150,1.0,0.0
1510,85.0,160,150,1.0,0.0
1511,88.0,160,150,1.0,0.0
1512,86.0,160,150,1.0,0.0
1513,85.0,160,150,1.0,0.0
1514,82.0,160,150,1.0,0.0
1515,81.0,160,150,1.0,0.0
1516,79.0,320,150,1.0,0.0
1517,77.0,80,720,1.0,0.0
1518,50.0,160,150,5.0,0.0
1519,53.0,160,150,5.0,0.0
1520,57.0,80,150,5.0,0.0
1521,62.0,160,150,5.0,0.0
1522,65.0,160,150,5.0,0.0
1523,69.0,160,150,5.0,0.0
1524,67.0,160,150,5.0,0.0
1525,65.0,160,150,5.0,0.0
1526,77.0,120,360,2.0,0.0
1527,86.0,0,360,1.0,0.0
1528,64.0,160,150,5.0,0.0
1529,65.0,40,150,5.0,0.0
1530,62.0,128,150,5.0,0.0
1531,85.0,0,120,1.0,0.0
1532,57.0,80,720,5.0,0.0
1533,76.0,192,120,2.0,0.0
1534,69.0,160,150,1.0,0.0
1535,73.0,160,150,1.0,0.0
1536,76.0,80,150,1.0,0.0
1537,81.0,160,150,1.0,0.0
1538,85.0,160,150,1.0,0.0
1539,88.0,160,150,1.0,0.0
1540,86.0,160,150,1.0,0.0
1541,85.0,160,150,1.0,0.0
1542,82.0,160,150,1.0,0.0
1543,81.0,160,150,1.0,0.0
1544,79.0,320,150,1.0,0.0
1545,77.0,80,720,1.0,0.0
1546,50.0,160,150,5.0,0.0
1547,53.0,160,150,5.0,0.0
1548,57.0,80,150,5.0,0.0
1549,62.0,160,150,5.0,0.0
1550,65.0,160,150,5.0,0.0
1551,69.0,160,150,5.0,0.0
1552,67.0,160,150,5.0,0.0
1553,65.0,160,150,5.0,0.0
1554,77.0,0,360,2.0,0.0
1555,64.0,160,150,5.0,0.0
1556,86.0,120,360,1.0,0.0
1557,65.0,40,150,5.0,0.0
1558,62.0,128,150,5.0,0.0
1559,85.0,48,240,1.0,0.0
1560,57.0,48,720,5.0,0.0
1561,76.0,112,120,2.0,0.0
1562,81.0,160,120,2.0,0.0
1563,76.0,272,120,2.0,0.0
1564,73.0,0,240,1.0,0.0
1565,76.0,160,120,2.0,0.0
1566,73.0,272,120,2.0,0.0
1567,69.0,48,240,1.0,0.0
1568,73.0,160,120,2.0,0.0
1569,69.0,272,120,2.0,0.0
1570,64.0,48,240,1.0,0.0
1571,69.0,160,120,2.0,0.0
1572,64.0,272,120,2.0,0.0
1573,61.0,48,240,1.0,0.0
1574,64.0,160,120,2.0,0.0
1575,61.0,272,120,2.0,0.0
1576,57.0,48,240,1.0,0.0
1577,61.0,160,120,2.0,0.0
1578,57.0,272,120,2.0,0.0
1579,52.0,48,240,1.0,0.0
1580,57.0,160,120,2.0,0.0
1581,52.0,272,120,2.0,0.0
1582,49.0,48,240,1.0,0.0
1583,52.0,160,120,2.0,0.0
1584,49.0,160,120,2.0,0.0
1585,33.0,160,120,5.0,0.0
1586,45.0,0,120,1.0,0.0
1587,49.0,0,120,1.0,0.0
1588,37.0,160,120,5.0,0.0
1589,52.0,0,120,1.0,0.0
1590,40.0,160,120,5.0,0.0
1591,45.0,160,120,5.0,0.0
1592,57.0,0,120,1.0,0.0
1593,40.0,160,120,5.0,0.0
1594,52.0,0,120,1.0,0.0
1595,49.0,160,120,1.0,0.0
1596,37.0,0,120,5.0,0.0
1597,33.0,0,120,5.0,0.0
1598,45.0,160,120,1.0,0.0
1599,49.0,160,120,1.0,0.0
1600,37.0,0,120,5.0,0.0
1601,40.0,160,120,5.0,0.0
1602,52.0,0,120,1.0,0.0
1603,57.0,0,120,1.0,0.0
1604,45.0,160,120,5.0,0.0
1605,52.0,0,120,1.0,0.0
1606,40.0,160,120,5.0,0.0
1607,49.0,0,120,1.0,0.0
1608,37.0,160,120,5.0,0.0
1609,45.0,0,120,1.0,0.0
1610,33.0,160,120,5.0,0.0
1611,49.0,160,120,1.0,0.0
1612,37.0,0,120,5.0,0.0
1613,40.0,0,120,5.0,0.0
1614,52.0,160,120,1.0,0.0
1615,57.0,160,120,1.0,0.0
1616,45.0,0,120,5.0,0.0
1617,61.0,160,120,1.0,0.0
1618,49.0,0,120,5.0,0.0
1619,64.0,0,120,1.0,0.0
1620,52.0,160,120,5.0,0.0
1621,69.0,160,120,1.0,0.0
1622,57.0,0,120,5.0,0.0
1623,64.0,160,120,1.0,0.0
1624,52.0,0,120,5.0,0.0
1625,49.0,160,120,5.0,0.0
1626,61.0,0,120,1.0,0.0
1627,57.0,0,120,1.0,0.0
1628,45.0,160,120,5.0,0.0
1629,61.0,160,120,1.0,0.0
1630,49.0,0,120,5.0,0.0
1631,64.0,0,120,1.0,0.0
1632,52.0,160,120,5.0,0.0
1633,57.0,160,120,1.0,0.0
1634,45.0,0,120,5.0,0.0
1635,61.0,0,120,1.0,0.0
1636,49.0,160,120,5.0,0.0
1637,64.0,160,120,1.0,0.0
1638,52.0,0,120,5.0,0.0
1639,57.0,160,120,5.0,0.0
1640,69.0,0,120,1.0,0.0
1641,73.0,160,120,1.0,0.0
1642,61.0,0,120,5.0,0.0
1643,76.0,0,120,1.0,0.0
1644,64.0,160,120,5.0,0.0
1645,69.0,0,120,5.0,0.0
1646,81.0,160,120,1.0,0.0
1647,76.0,0,120,1.0,0.0
1648,64.0,160,120,5.0,0.0
1649,61.0,160,120,5.0,0.0
1650,73.0,0,120,1.0,0.0
1651,57.0,0,120,5.0,0.0
1652,69.0,160,120,1.0,0.0
1653,61.0,160,120,5.0,0.0
1654,73.0,0,120,1.0,0.0
1655,64.0,272,120,5.0,0.0
1656,76.0,0,120,1.0,0.0
1657,69.0,0,240,5.0,0.0
1658,81.0,480,240,1.0,0.0
1659,57.0,0,240,4.0,0.0
1660,45.0,0,240,5.0,0.0
1661,69.0,1200,240,1.0,0.0
1662,81.0,80,1110,1.0,0.0
1663,57.0,160,480,5.0,0.0
1664,61.0,0,480,4.0,0.0
1665,62.0,80,240,4.0,0.0
1666,59.0,0,240,5.0,0.0
1667,82.0,160,150,1.0,0.0
1668,81.0,160,150,1.0,0.0
1669,64.0,80,240,4.0,0.0
1670,79.0,80,150,1.0,0.0
1671,61.0,0,240,5.0,0.0
1672,81.0,160,150,1.0,0.0
1673,79.0,160,150,1.0,0.0
1674,77.0,80,150,1.0,0.0
1675,62.0,80,240,5.0,0.0
1676,65.0,0,240,4.0,0.0
1677,79.0,160,150,1.0,0.0
1678,77.0,160,150,1.0,0.0
1679,67.0,80,240,4.0,0.0
1680,64.0,0,240,5.0,0.0
1681,76.0,80,150,1.0,0.0
1682,77.0,160,150,1.0,0.0
1683,76.0,240,150,1.0,0.0
1684,69.0,0,240,4.0,0.0
1685,74.0,0,240,1.0,0.0
1686,65.0,480,240,5.0,0.0
1687,74.0,480,480,1.0,0.0
1688,50.0,240,240,5.0,0.0
1689,62.0,80,1110,5.0,0.0
1690,73.0,0,480,2.0,0.0
1691,76.0,480,480,1.0,0.0
1692,72.0,160,480,2.0,0.0
1693,78.0,0,480,1.0,0.0
1694,70.0,80,240,2.0,0.0
1695,79.0,0,240,1.0,0.0
1696,63.0,160,150,5.0,0.0
1697,62.0,160,150,5.0,0.0
1698,60.0,80,150,5.0,0.0
1699,78.0,80,240,2.0,0.0
1700,81.0,0,240,1.0,0.0
1701,62.0,160,150,5.0,0.0
1702,60.0,160,150,5.0,0.0
1703,79.0,0,240,2.0,0.0
1704,58.0,80,150,5.0,0.0
1705,82.0,80,240,1.0,0.0
1706,60.0,160,150,5.0,0.0
1707,58.0,160,150,5.0,0.0
1708,78.0,80,240,2.0,0.0
1709,84.0,0,240,1.0,0.0
1710,57.0,80,150,5.0,0.0
1711,58.0,160,150,5.0,0.0
1712,57.0,240,150,5.0,0.0
1713,55.0,0,240,5.0,0.0
1714,82.0,0,240,1.0,0.0
1715,79.0,480,240,2.0,0.0
1716,67.0,1200,240,5.0,0.0
1717,79.0,80,1110,1.0,0.0
1718,62.0,160,480,4.0,0.0
1719,59.0,0,480,5.0,0.0
1720,64.0,0,240,5.0,0.0
1721,60.0,80,240,5.0,0.0
1722,81.0,160,150,1.0,0.0
1723,79.0,160,150,1.0,0.0
1724,77.0,80,150,1.0,0.0
1725,65.0,80,240,4.0,0.0
1726,62.0,0,240,5.0,0.0
1727,79.0,160,150,1.0,0.0
1728,77.0,160,150,1.0,0.0
1729,64.0,80,240,5.0,0.0
1730,67.0,0,240,4.0,0.0
1731,76.0,80,150,1.0,0.0
1732,77.0,160,150,1.0,0.0
1733,76.0,160,150,1.0,0.0
1734,74.0,80,150,1.0,0.0
1735,65.0,0,240,5.0,0.0
1736,69.0,80,240,4.0,0.0
1737,76.0,160,150,1.0,0.0
1738,74.0,240,150,1.0,0.0
1739,72.0,480,240,1.0,0.0
1740,64.0,0,240,5.0,0.0
1741,67.0,0,240,4.0,0.0
1742,72.0,480,480,1.0,0.0
1743,48.0,0,240,5.0,0.0
1744,69.0,240,240,2.0,0.0
1745,60.0,80,1110,5.0,0.0
1746,71.0,0,480,2.0,0.0
1747,74.0,480,480,1.0,0.0
1748,76.0,0,480,1.0,0.0
1749,70.0,160,480,2.0,0.0
1750,77.0,80,240,1.0,0.0
1751,62.0,160,150,5.0,0.0
1752,60.0,160,150,5.0,0.0
1753,58.0,80,150,5.0,0.0
1754,76.0,80,240,2.0,0.0
1755,79.0,0,240,1.0,0.0
1756,60.0,160,150,5.0,0.0
1757,58.0,160,150,5.0,0.0
1758,57.0,80,150,5.0,0.0
1759,81.0,0,240,1.0,0.0
1760,77.0,80,240,2.0,0.0
1761,58.0,160,150,5.0,0.0
1762,57.0,160,150,5.0,0.0
1763,76.0,0,240,2.0,0.0
1764,82.0,80,240,1.0,0.0
1765,55.0,80,150,5.0,0.0
1766,57.0,160,150,5.0,0.0
1767,55.0,240,150,5.0,0.0
1768,53.0,0,240,5.0,0.0
1769,81.0,480,240,1.0,0.0
1770,77.0,0,240,2.0,0.0
1771,65.0,960,240,1.0,0.0
1772,77.0,160,1110,1.0,0.0
1773,46.0,400,240,5.0,0.0
1774,58.0,160,1110,5.0,0.0
1775,79.0,160,150,1.0,0.0
1776,77.0,160,150,1.0,0.0
1777,75.0,160,150,1.0,0.0
1778,77.0,160,150,1.0,0.0
1779,75.0,160,150,1.0,0.0
1780,74.0,0,150,1.0,0.0
1781,75.0,160,150,1.0,0.0
1782,60.0,0,150,5.0,0.0
1783,58.0,160,150,5.0,0.0
1784,74.0,0,150,1.0,0.0
1785,72.0,160,150,1.0,0.0
1786,57.0,0,150,5.0,0.0
1787,74.0,0,150,1.0,0.0
1788,58.0,160,150,5.0,0.0
1789,72.0,0,150,1.0,0.0
1790,57.0,160,150,5.0,0.0
1791,55.0,80,150,5.0,0.0
1792,70.0,80,240,1.0,0.0
1793,57.0,160,150,5.0,0.0
1794,55.0,160,150,5.0,0.0
1795,53.0,80,150,5.0,0.0
1796,70.0,80,240,1.0,0.0
1797,55.0,160,150,5.0,0.0
1798,53.0,240,150,5.0,0.0
1799,82.0,160,1110,1.0,0.0
1800,52.0,480,240,5.0,0.0
1801,48.0,400,240,5.0,0.0
1802,70.0,0,1110,5.0,0.0
1803,84.0,160,150,1.0,0.0
1804,82.0,160,150,1.0,0.0
1805,81.0,160,150,1.0,0.0
1806,82.0,160,150,1.0,0.0
1807,81.0,160,150,1.0,0.0
1808,79.0,160,150,1.0,0.0
1809,72.0,160,150,5.0,0.0
1810,81.0,0,150,1.0,0.0
1811,79.0,0,150,1.0,0.0
1812,70.0,160,150,5.0,0.0
1813,77.0,160,150,1.0,0.0
1814,69.0,0,150,5.0,0.0
1815,79.0,0,150,1.0,0.0
1816,70.0,160,150,5.0,0.0
1817,69.0,160,150,5.0,0.0
1818,77.0,0,150,1.0,0.0
1819,76.0,0,150,1.0,0.0
1820,67.0,160,150,5.0,0.0
1821,69.0,0,150,5.0,0.0
1822,74.0,160,150,1.0,0.0
1823,76.0,160,150,1.0,0.0
1824,67.0,0,150,5.0,0.0
1825,77.0,0,150,1.0,0.0
1826,65.0,160,150,5.0,0.0
1827,76.0,160,150,1.0,0.0
1828,67.0,0,150,5.0,0.0
1829,77.0,160,150,1.0,0.0
1830,65.0,0,150,5.0,0.0
1831,79.0,160,150,1.0,0.0
1832,64.0,0,150,5.0,0.0
1833,65.0,0,150,5.0,0.0
1834,77.0,160,150,1.0,0.0
1835,64.0,160,150,5.0,0.0
1836,79.0,0,150,1.0,0.0
1837,81.0,160,150,1.0,0.0
1838,62.0,0,150,5.0,0.0
1839,79.0,0,150,1.0,0.0
1840,64.0,160,150,5.0,0.0
1841,62.0,160,150,5.0,0.0
1842,81.0,0,150,1.0,0.0
1843,64.0,160,480,4.0,0.0
1844,82.0,160,150,1.0,0.0
1845,84.0,160,150,1.0,0.0
1846,82.0,0,150,1.0,0.0
1847,81.0,160,150,1.0,0.0
1848,65.0,160,480,4.0,0.0
1849,82.0,160,150,1.0,0.0
1850,81.0,0,150,1.0,0.0
1851,79.0,160,150,1.0,0.0
1852,67.0,160,480,4.0,0.0
1853,81.0,160,150,1.0,0.0
1854,79.0,0,150,1.0,0.0
1855,77.0,160,150,1.0,0.0
1856,69.0,0,480,4.0,0.0
1857,79.0,160,150,1.0,0.0
1858,77.0,160,150,1.0,0.0
1859,60.0,0,15,5.0,0.0
1860,70.0,0,480,4.0,0.0
1861,76.0,160,150,1.0,0.0
1862,74.0,160,150,1.0,0.0
1863,76.0,160,150,1.0,0.0
1864,69.0,160,480,4.0,0.0
1865,77.0,160,150,1.0,0.0
1866,76.0,160,150,1.0,0.0
1867,77.0,0,150,1.0,0.0
1868,79.0,160,150,1.0,0.0
1869,67.0,0,480,4.0,0.0
1870,77.0,160,150,1.0,0.0
1871,79.0,160,150,1.0,0.0
1872,65.0,0,480,4.0,0.0
1873,81.0,160,150,1.0,0.0
1874,79.0,160,150,1.0,0.0
1875,81.0,0,150,1.0,0.0
1876,82.0,80,240,1.0,0.0
1877,60.0,240,15,5.0,0.0
1878,64.0,0,720,4.0,0.0
1879,82.0,160,150,2.0,0.0
1880,79.0,240,150,2.0,0.0
1881,76.0,80,240,1.0,0.0
1882,79.0,160,150,2.0,0.0
1883,76.0,240,150,2.0,0.0
1884,70.0,80,240,1.0,0.0
1885,76.0,160,150,2.0,0.0
1886,70.0,240,150,2.0,0.0
1887,67.0,80,240,1.0,0.0
1888,70.0,160,150,2.0,0.0
1889,67.0,240,150,2.0,0.0
1890,64.0,80,240,1.0,0.0
1891,67.0,160,150,2.0,0.0
1892,64.0,240,150,2.0,0.0
1893,58.0,80,240,1.0,0.0
1894,64.0,160,150,2.0,0.0
1895,58.0,240,150,2.0,0.0
1896,55.0,80,240,1.0,0.0
1897,58.0,160,150,2.0,0.0
1898,55.0,240,150,2.0,0.0
1899,52.0,80,240,1.0,0.0
1900,55.0,160,150,2.0,0.0
1901,52.0,160,150,2.0,0.0
1902,48.0,160,150,1.0,0.0
1903,36.0,0,150,5.0,0.0
1904,52.0,0,150,1.0,0.0
1905,40.0,160,150,5.0,0.0
1906,55.0,0,150,1.0,0.0
1907,43.0,160,150,5.0,0.0
1908,58.0,0,150,1.0,0.0
1909,46.0,160,150,5.0,0.0
1910,55.0,160,150,1.0,0.0
1911,43.0,0,150,5.0,0.0
1912,52.0,160,150,1.0,0.0
1913,40.0,0,150,5.0,0.0
1914,36.0,0,150,5.0,0.0
1915,48.0,160,150,1.0,0.0
1916,40.0,160,150,5.0,0.0
1917,52.0,0,150,1.0,0.0
1918,43.0,0,150,5.0,0.0
1919,55.0,160,150,1.0,0.0
1920,58.0,160,150,1.0,0.0
1921,46.0,0,150,5.0,0.0
1922,55.0,160,150,1.0,0.0
1923,43.0,0,150,5.0,0.0
1924,40.0,160,150,5.0,0.0
1925,52.0,0,150,1.0,0.0
1926,36.0,0,150,5.0,0.0
1927,48.0,160,150,1.0,0.0
1928,40.0,160,150,5.0,0.0
1929,52.0,0,150,1.0,0.0
1930,43.0,0,150,5.0,0.0
1931,55.0,160,150,1.0,0.0
1932,60.0,160,150,1.0,0.0
1933,48.0,0,150,5.0,0.0
1934,52.0,0,150,5.0,0.0
1935,64.0,160,150,1.0,0.0
1936,55.0,160,150,5.0,0.0
1937,67.0,0,150,1.0,0.0
1938,58.0,160,150,5.0,0.0
1939,70.0,0,150,1.0,0.0
1940,67.0,160,150,1.0,0.0
1941,55.0,0,150,5.0,0.0
1942,52.0,0,150,5.0,0.0
1943,64.0,160,150,1.0,0.0
1944,60.0,160,150,1.0,0.0
1945,48.0,0,150,5.0,0.0
1946,64.0,0,150,1.0,0.0
1947,52.0,160,150,5.0,0.0
1948,55.0,0,150,5.0,0.0
1949,67.0,160,150,1.0,0.0
1950,60.0,0,150,1.0,0.0
1951,48.0,160,150,5.0,0.0
1952,52.0,0,150,5.0,0.0
1953,64.0,160,150,1.0,0.0
1954,67.0,0,150,1.0,0.0
1955,55.0,160,150,5.0,0.0
1956,72.0,160,150,1.0,0.0
1957,60.0,0,150,5.0,0.0
1958,64.0,0,150,5.0,0.0
1959,76.0,160,150,1.0,0.0
1960,67.0,160,150,5.0,0.0
1961,79.0,0,150,1.0,0.0
1962,82.0,160,150,1.0,0.0
1963,70.0,0,150,5.0,0.0
1964,67.0,160,150,5.0,0.0
1965,79.0,0,150,1.0,0.0
1966,76.0,160,150,1.0,0.0
1967,64.0,0,150,5.0,0.0
1968,60.0,0,150,5.0,0.0
1969,72.0,160,150,1.0,0.0
1970,64.0,160,150,5.0,0.0
1971,76.0,0,150,1.0,0.0
1972,79.0,0,150,1.0,0.0
1973,67.0,360,150,5.0,0.0
1974,82.0,0,360,1.0,0.0
1975,70.0,480,360,5.0,0.0
1976,67.0,0,360,2.0,0.0
1977,64.0,0,360,2.0,0.0
1978,70.0,840,360,1.0,0.0
1979,48.0,0,360,5.0,0.0
1980,72.0,446,240,1.0,0.0
1981,70.0,240,210,1.0,0.0
1982,69.0,240,210,1.0,0.0
1983,67.0,240,210,1.0,0.0
1984,65.0,240,210,1.0,0.0
1985,69.0,240,210,1.0,0.0
1986,67.0,240,210,1.0,0.0
1987,70.0,226,210,1.0,0.0
1988,64.0,288,180,1.0,0.0
1989,65.0,480,240,1.0,0.0
1990,60.0,960,240,1.0,0.0
1991,72.0,480,720,1.0,0.0
1992,70.0,240,240,1.0,0.0
1993,69.0,240,240,1.0,0.0
1994,67.0,240,240,1.0,0.0
1995,65.0,240,240,1.0,0.0
1996,69.0,240,240,1.0,0.0
1997,67.0,240,240,1.0,0.0
1998,70.0,192,240,1.0,0.0
1999,64.0,288,180,1.0,0.0
2000,57.0,240,240,3.0,0.0
2001,53.0,0,1860,5.0,0.0
2002,65.0,12,1860,1.0,0.0
2003,60.0,240,240,3.0,0.0
2004,57.0,240,240,3.0,0.0
2005,60.0,240,240,3.0,0.0
2006,57.0,240,240,3.0,0.0
2007,60.0,240,240,3.0,0.0
2008,57.0,180,240,3.0,0.0
2009,60.0,288,180,3.0,0.0
2010,53.0,12,1860,5.0,0.0
2011,58.0,240,240,3.0,0.0
2012,66.0,0,240,1.0,0.0
2013,67.0,0,240,1.0,0.0
2014,60.0,240,240,3.0,0.0
2015,69.0,0,240,1.0,0.0
2016,58.0,240,240,3.0,0.0
2017,70.0,0,240,1.0,0.0
2018,60.0,240,240,3.0,0.0
2019,72.0,0,240,1.0,0.0
2020,58.0,240,240,3.0,0.0
2021,60.0,0,240,3.0,0.0
2022,73.0,240,240,1.0,0.0
2023,58.0,0,240,3.0,0.0
2024,74.0,180,240,1.0,0.0
2025,60.0,0,180,3.0,0.0
2026,76.0,288,180,1.0,0.0
2027,57.0,240,240,3.0,0.0
2028,53.0,5,1860,5.0,0.0
2029,79.0,0,240,1.0,0.0
2030,77.0,0,240,1.0,0.0
2031,60.0,240,240,3.0,0.0
2032,57.0,192,240,3.0,0.0
2033,76.0,0,240,1.0,0.0
2034,74.0,48,180,1.0,0.0
2035,60.0,240,240,3.0,0.0
2036,57.0,0,240,3.0,0.0
2037,74.0,240,240,1.0,0.0
2038,60.0,240,240,3.0,0.0
2039,72.0,0,240,1.0,0.0
2040,70.0,0,240,1.0,0.0
2041,57.0,187,240,3.0,0.0
2042,60.0,288,180,3.0,0.0
2043,69.0,0,180,1.0,0.0
2044,64.0,765,1860,2.0,0.0
2045,53.0,0,1860,5.0,0.0
2046,67.0,150,330,1.0,0.0
2047,58.0,90,240,3.0,0.0
2048,60.0,0,240,3.0,0.0
2049,69.0,240,120,1.0,0.0
2050,58.0,0,240,3.0,0.0
2051,67.0,240,240,1.0,0.0
2052,60.0,0,240,3.0,0.0
2053,66.0,240,240,1.0,0.0
2054,67.0,240,480,1.0,0.0
2055,58.0,240,240,3.0,0.0
2056,60.0,0,240,3.0,0.0
2057,58.0,187,240,3.0,0.0
2058,72.0,5,420,1.0,0.0
2059,60.0,3,180,3.0,0.0
2060,65.0,0,720,1.0,0.0
2061,57.0,0,720,3.0,0.0
2062,53.0,960,720,5.0,0.0
2063,60.0,480,240,5.0,0.0
2064,58.0,240,240,5.0,0.0
2065,56.0,240,240,5.0,0.0
2066,55.0,240,240,5.0,0.0
2067,53.0,240,240,5.0,0.0
2068,56.0,240,240,5.0,0.0
2069,55.0,240,240,5.0,0.0
2070,58.0,192,240,5.0,0.0
2071,52.0,288,180,5.0,0.0
2072,53.0,480,240,5.0,0.0
2073,48.0,960,240,5.0,0.0
2074,80.0,0,720,1.0,0.0
2075,68.0,240,720,2.0,0.0
2076,60.0,240,480,5.0,0.0
2077,63.0,0,480,4.0,0.0
2078,78.0,120,240,1.0,0.0
2079,65.0,120,360,4.0,0.0
2080,61.0,0,360,5.0,0.0
2081,77.0,240,240,1.0,0.0
2082,75.0,240,240,1.0,0.0
2083,73.0,240,240,1.0,0.0
2084,77.0,240,240,1.0,0.0
2085,75.0,240,240,1.0,0.0
2086,68.0,360,840,4.0,0.0
2087,78.0,192,240,1.0,0.0
2088,66.0,240,480,5.0,0.0
2089,72.0,48,180,1.0,0.0
2090,73.0,120,240,1.0,0.0
2091,65.0,0,360,5.0,0.0
2092,68.0,960,240,1.0,0.0
2093,53.0,240,720,5.0,0.0
2094,81.0,0,480,1.0,0.0
2095,72.0,240,480,2.0,0.0
2096,51.0,120,240,5.0,0.0
2097,82.0,0,360,1.0,0.0
2098,73.0,120,360,2.0,0.0
2099,49.0,240,240,5.0,0.0
2100,48.0,240,240,5.0,0.0
2101,46.0,240,240,5.0,0.0
2102,49.0,240,240,5.0,0.0
2103,48.0,240,240,5.0,0.0
2104,84.0,240,480,1.0,0.0
2105,51.0,240,240,5.0,0.0
2106,77.0,240,960,2.0,0.0
2107,45.0,0,240,5.0,0.0
2108,48.0,240,240,5.0,0.0
2109,85.0,0,960,1.0,0.0
2110,46.0,0,240,5.0,0.0
2111,49.0,240,240,5.0,0.0
2112,82.0,233,960,2.0,0.0
2113,43.0,240,240,5.0,0.0
2114,46.0,240,240,5.0,0.0
2115,84.0,8,960,1.0,0.0
2116,44.0,7,240,5.0,0.0
2117,80.0,233,960,2.0,0.0
2118,48.0,232,240,5.0,0.0
2119,41.0,240,240,5.0,0.0
2120,82.0,218,1230,1.0,0.0
2121,44.0,240,240,5.0,0.0
2122,43.0,7,240,5.0,0.0
2123,46.0,240,240,5.0,0.0
2124,79.0,240,480,2.0,0.0
2125,40.0,0,240,5.0,0.0
2126,41.0,22,240,5.0,0.0
2127,80.0,240,240,1.0,0.0
2128,84.0,240,240,1.0,0.0
2129,56.0,240,480,5.0,0.0
2130,77.0,0,240,1.0,0.0
2131,80.0,240,240,1.0,0.0
2132,58.0,0,480,5.0,0.0
2133,78.0,240,240,1.0,0.0
2134,60.0,240,480,5.0,0.0
2135,82.0,240,240,1.0,0.0
2136,75.0,0,240,1.0,0.0
2137,78.0,120,240,1.0,0.0
2138,61.0,120,360,5.0,0.0
2139,77.0,240,240,1.0,0.0
2140,53.0,0,480,5.0,0.0
2141,80.0,240,240,1.0,0.0
2142,73.0,240,240,1.0,0.0
2143,55.0,240,480,5.0,0.0
2144,77.0,240,240,1.0,0.0
2145,75.0,0,240,1.0,0.0
2146,78.0,240,240,1.0,0.0
2147,57.0,0,480,5.0,0.0
2148,72.0,240,240,1.0,0.0
2149,75.0,120,240,1.0,0.0
2150,58.0,120,360,5.0,0.0
2151,73.0,240,240,1.0,0.0
2152,55.0,120,360,5.0,0.0
2153,63.0,0,840,4.0,0.0
2154,77.0,120,240,1.0,0.0
2155,70.0,240,240,1.0,0.0
2156,56.0,120,360,5.0,0.0
2157,73.0,120,240,1.0,0.0
2158,72.0,240,240,1.0,0.0
2159,61.0,120,840,4.0,0.0
2160,53.0,128,360,5.0,0.0
2161,75.0,112,240,1.0,0.0
2162,68.0,240,240,1.0,0.0
2163,55.0,0,360,5.0,0.0
2164,72.0,120,240,1.0,0.0
2165,70.0,240,240,1.0,0.0
2166,52.0,0,360,5.0,0.0
2167,73.0,120,240,1.0,0.0
2168,60.0,72,360,4.0,0.0
2169,67.0,288,180,1.0,0.0
2170,70.0,240,240,1.0,0.0
2171,53.0,240,960,5.0,0.0
2172,68.0,240,240,1.0,0.0
2173,67.0,120,240,1.0,0.0
2174,56.0,72,360,4.0,0.0
2175,60.0,0,360,4.0,0.0
2176,65.0,48,180,1.0,0.0
2177,70.0,240,240,1.0,0.0
2178,51.0,240,960,5.0,0.0
2179,68.0,240,240,1.0,0.0
2180,67.0,120,240,1.0,0.0
2181,53.0,0,360,4.0,0.0
2182,56.0,72,360,4.0,0.0
2183,65.0,48,180,1.0,0.0
2184,49.0,240,960,5.0,0.0
2185,70.0,240,240,1.0,0.0
2186,68.0,240,240,1.0,0.0
2187,67.0,120,240,1.0,0.0
2188,56.0,120,360,4.0,0.0
2189,53.0,0,360,4.0,0.0
2190,65.0,0,240,1.0,0.0
2191,70.0,240,240,1.0,0.0
2192,48.0,240,960,5.0,0.0
2193,68.0,240,240,1.0,0.0
2194,53.0,120,360,4.0,0.0
2195,56.0,0,360,4.0,0.0
2196,67.0,120,240,1.0,0.0
2197,65.0,0,240,1.0,0.0
2198,77.0,0,240,1.0,0.0
2199,53.0,0,240,4.0,0.0
2200,56.0,0,240,4.0,0.0
2201,47.0,960,240,5.0,0.0
2202,70.0,240,240,1.0,0.0
2203,68.0,240,240,1.0,0.0
2204,67.0,0,240,1.0,0.0
2205,48.0,0,240,5.0,0.0
2206,56.0,240,240,4.0,0.0
2207,53.0,0,240,4.0,0.0
2208,65.0,240,240,1.0,0.0
2209,53.0,0,240,4.0,0.0
2210,49.0,960,240,5.0,0.0
2211,59.0,0,240,4.0,0.0
2212,80.0,0,240,1.0,0.0
2213,71.0,0,240,1.0,0.0
2214,65.0,0,240,2.0,0.0
2215,49.0,960,240,5.0,0.0
2216,37.0,0,240,5.0,0.0
2217,48.0,0,240,5.0,0.0
2218,36.0,0,240,5.0,0.0
2219,64.0,0,240,2.0,0.0
2220,72.0,1848,240,1.0,0.0
2221,72.0,152,1140,1.0,0.0
2222,74.0,160,150,1.0,0.0
2223,72.0,160,150,1.0,0.0
2224,70.0,160,150,1.0,0.0
2225,72.0,160,150,1.0,0.0
2226,70.0,160,150,1.0,0.0
2227,69.0,160,150,1.0,0.0
2228,70.0,160,150,1.0,0.0
2229,69.0,160,150,1.0,0.0
2230,67.0,160,150,1.0,0.0
2231,69.0,160,150,1.0,0.0
2232,67.0,240,150,1.0,0.0
2233,57.0,120,360,5.0,0.0
2234,65.0,120,240,1.0,0.0
2235,60.0,80,240,3.0,0.0
2236,58.0,120,360,5.0,0.0
2237,64.0,80,90,1.0,0.0
2238,65.0,80,90,1.0,0.0
2239,64.0,120,90,1.0,0.0
2240,60.0,240,240,3.0,0.0
2241,62.0,0,120,1.0,0.0
2242,64.0,0,120,1.0,0.0
2243,65.0,120,240,1.0,0.0
2244,57.0,120,360,5.0,0.0
2245,60.0,80,240,3.0,0.0
2246,67.0,80,90,1.0,0.0
2247,52.0,0,360,5.0,0.0
2248,69.0,80,90,1.0,0.0
2249,67.0,120,90,1.0,0.0
2250,65.0,120,120,1.0,0.0
2251,60.0,240,240,3.0,0.0
2252,67.0,0,120,1.0,0.0
2253,53.0,120,360,5.0,0.0
2254,69.0,120,240,1.0,0.0
2255,60.0,80,240,3.0,0.0
2256,50.0,0,360,5.0,0.0
2257,70.0,80,90,1.0,0.0
2258,72.0,80,90,1.0,0.0
2259,70.0,120,90,1.0,0.0
2260,53.0,0,240,3.0,0.0
2261,69.0,120,120,1.0,0.0
2262,70.0,240,120,1.0,0.0
2263,45.0,120,360,5.0,0.0
2264,72.0,120,240,1.0,0.0
2265,53.0,240,240,3.0,0.0
2266,74.0,120,240,1.0,0.0
2267,46.0,120,360,5.0,0.0
2268,58.0,480,240,3.0,0.0
2269,57.0,0,480,3.0,0.0
2270,48.0,1080,840,5.0,0.0
2271,65.0,240,480,1.0,0.0
2272,64.0,120,240,1.0,0.0
2273,55.0,0,360,3.0,0.0
2274,74.0,95,1110,1.0,0.0
2275,54.0,145,480,4.0,0.0
2276,50.0,0,480,5.0,0.0
2277,52.0,0,240,5.0,0.0
2278,55.0,80,240,4.0,0.0
2279,75.0,160,150,1.0,0.0
2280,74.0,160,150,1.0,0.0
2281,54.0,0,240,5.0,0.0
2282,57.0,80,240,4.0,0.0
2283,72.0,80,150,1.0,0.0
2284,74.0,160,150,1.0,0.0
2285,72.0,160,150,1.0,0.0
2286,55.0,80,240,5.0,0.0
2287,58.0,0,240,4.0,0.0
2288,70.0,80,150,1.0,0.0
2289,72.0,160,150,1.0,0.0
2290,70.0,160,150,1.0,0.0
2291,57.0,80,240,5.0,0.0
2292,60.0,0,240,4.0,0.0
2293,69.0,80,150,1.0,0.0
2294,70.0,160,150,1.0,0.0
2295,69.0,240,150,1.0,0.0
2296,58.0,480,240,5.0,0.0
2297,62.0,0,240,4.0,0.0
2298,67.0,0,240,1.0,0.0
2299,79.0,480,240,1.0,0.0
2300,62.0,320,240,5.0,0.0
2301,46.0,0,480,5.0,0.0
2302,48.0,0,960,4.0,0.0
2303,76.0,80,90,1.0,0.0
2304,77.0,80,90,1.0,0.0
2305,76.0,120,90,1.0,0.0
2306,74.0,120,120,1.0,0.0
2307,76.0,240,120,1.0,0.0
2308,45.0,80,480,5.0,0.0
2309,77.0,240,240,1.0,0.0
2310,65.0,80,90,1.0,0.0
2311,47.0,480,480,5.0,0.0
2312,50.0,0,480,4.0,0.0
2313,67.0,80,90,1.0,0.0
2314,65.0,120,90,1.0,0.0
2315,64.0,120,120,1.0,0.0
2316,65.0,0,120,1.0,0.0
2317,69.0,480,480,1.0,0.0
2318,48.0,0,960,5.0,0.0
2319,53.0,0,480,4.0,0.0
2320,52.0,240,480,4.0,0.0
2321,67.0,0,480,1.0,0.0
2322,53.0,480,240,5.0,0.0
2323,65.0,0,240,1.0,0.0
2324,41.0,960,240,5.0,0.0
2325,60.0,160,1110,5.0,0.0
2326,72.0,400,240,1.0,0.0
2327,84.0,0,1110,1.0,0.0
2328,62.0,160,150,5.0,0.0
2329,60.0,160,150,5.0,0.0
2330,58.0,160,150,5.0,0.0
2331,60.0,160,150,5.0,0.0
2332,58.0,160,150,5.0,0.0
2333,57.0,160,150,5.0,0.0
2334,58.0,160,150,5.0,0.0
2335,86.0,0,150,1.0,0.0
2336,57.0,160,150,5.0,0.0
2337,84.0,0,150,1.0,0.0
2338,82.0,0,150,1.0,0.0
2339,55.0,160,150,5.0,0.0
2340,84.0,160,150,1.0,0.0
2341,57.0,0,150,5.0,0.0
2342,55.0,0,150,5.0,0.0
2343,82.0,160,150,1.0,0.0
2344,81.0,80,150,1.0,0.0
2345,53.0,80,240,5.0,0.0
2346,82.0,160,150,1.0,0.0
2347,81.0,80,150,1.0,0.0
2348,79.0,0,150,1.0,0.0
2349,55.0,80,90,5.0,0.0
2350,57.0,80,90,5.0,0.0
2351,77.0,40,150,1.0,0.0
2352,55.0,80,90,5.0,0.0
2353,53.0,120,120,5.0,0.0
2354,76.0,160,150,1.0,0.0
2355,55.0,0,120,5.0,0.0
2356,57.0,80,240,5.0,0.0
2357,77.0,80,150,1.0,0.0
2358,79.0,160,150,1.0,0.0
2359,77.0,160,150,1.0,0.0
2360,45.0,80,240,5.0,0.0
2361,75.0,80,150,1.0,0.0
2362,74.0,128,150,1.0,0.0
2363,73.0,192,120,1.0,0.0
2364,74.0,160,150,1.0,0.0
2365,46.0,120,360,5.0,0.0
2366,79.0,40,150,1.0,0.0
2367,78.0,160,150,1.0,0.0
2368,79.0,160,150,1.0,0.0
2369,82.0,160,150,1.0,0.0
2370,81.0,160,150,1.0,0.0
2371,82.0,160,150,1.0,0.0
2372,86.0,160,150,1.0,0.0
2373,85.0,160,150,1.0,0.0
2374,58.0,240,480,5.0,0.0
2375,86.0,160,150,1.0,0.0
2376,82.0,128,150,1.0,0.0
2377,79.0,32,120,1.0,0.0
2378,77.0,240,480,1.0,0.0
2379,60.0,240,240,5.0,0.0
2380,48.0,120,240,5.0,0.0
2381,76.0,840,360,1.0,0.0
2382,62.0,160,1110,5.0,0.0
2383,65.0,400,240,1.0,0.0
2384,77.0,0,480,1.0,0.0
2385,63.0,160,150,5.0,0.0
2386,62.0,160,150,5.0,0.0
2387,75.0,160,480,2.0,0.0
2388,78.0,0,480,1.0,0.0
2389,60.0,160,150,5.0,0.0
2390,62.0,160,150,5.0,0.0
2391,60.0,0,150,5.0,0.0
2392,58.0,160,150,5.0,0.0
2393,74.0,0,480,2.0,0.0
2394,79.0,0,480,1.0,0.0
2395,60.0,160,150,5.0,0.0
2396,58.0,160,150,5.0,0.0
2397,81.0,0,360,1.0,0.0
2398,78.0,120,360,2.0,0.0
2399,57.0,160,150,5.0,0.0
2400,58.0,40,150,5.0,0.0
2401,57.0,160,150,5.0,0.0
2402,55.0,80,240,5.0,0.0
2403,82.0,80,150,1.0,0.0
2404,81.0,160,150,1.0,0.0
2405,82.0,80,150,1.0,0.0
2406,53.0,80,90,5.0,0.0
2407,83.0,80,150,1.0,0.0
2408,55.0,0,90,5.0,0.0
2409,81.0,40,150,1.0,0.0
2410,53.0,80,90,5.0,0.0
2411,52.0,120,120,5.0,0.0
2412,83.0,0,150,1.0,0.0
2413,53.0,160,120,5.0,0.0
2414,84.0,80,150,1.0,0.0
2415,52.0,80,240,5.0,0.0
2416,83.0,160,150,1.0,0.0
2417,84.0,80,150,1.0,0.0
2418,88.0,80,150,1.0,0.0
2419,58.0,80,90,5.0,0.0
2420,60.0,0,90,5.0,0.0
2421,58.0,80,90,5.0,0.0
2422,86.0,40,150,1.0,0.0
2423,57.0,120,120,5.0,0.0
2424,88.0,240,150,1.0,0.0
2425,58.0,0,120,5.0,0.0
2426,57.0,120,360,5.0,0.0
2427,89.0,80,240,1.0,0.0
2428,84.0,40,150,2.0,0.0
2429,81.0,240,150,2.0,0.0
2430,86.0,80,240,1.0,0.0
2431,58.0,120,360,5.0,0.0
2432,82.0,40,150,2.0,0.0
2433,79.0,240,150,2.0,0.0
2434,84.0,80,240,1.0,0.0
2435,60.0,120,360,5.0,0.0
2436,81.0,40,150,2.0,0.0
2437,77.0,240,150,2.0,0.0
2438,48.0,120,360,5.0,0.0
2439,82.0,80,240,1.0,0.0
2440,79.0,40,150,2.0,0.0
2441,76.0,240,150,2.0,0.0
2442,53.0,400,240,5.0,0.0
2443,77.0,0,240,1.0,0.0
2444,81.0,160,150,1.0,0.0
2445,79.0,160,150,1.0,0.0
2446,77.0,160,150,1.0,0.0
2447,76.0,160,150,1.0,0.0
2448,74.0,160,150,1.0,0.0
2449,72.0,160,150,1.0,0.0
2450,71.0,160,150,1.0,0.0
2451,65.0,240,480,5.0,0.0
2452,68.0,0,480,4.0,0.0
2453,74.0,160,150,1.0,0.0
2454,71.0,0,150,1.0,0.0
2455,67.0,240,480,4.0,0.0
2456,64.0,0,480,5.0,0.0
2457,74.0,80,240,1.0,0.0
2458,72.0,160,150,2.0,0.0
2459,69.0,0,150,2.0,0.0
2460,62.0,0,480,5.0,0.0
2461,65.0,0,480,4.0,0.0
2462,72.0,80,240,1.0,0.0
2463,70.0,160,150,2.0,0.0
2464,67.0,240,150,2.0,0.0
2465,64.0,0,480,4.0,0.0
2466,60.0,240,480,5.0,0.0
2467,70.0,80,240,1.0,0.0
2468,69.0,160,150,2.0,0.0
2469,65.0,0,150,2.0,0.0
2470,58.0,360,480,5.0,0.0
2471,62.0,0,480,4.0,0.0
2472,69.0,80,240,1.0,0.0
2473,67.0,160,150,2.0,0.0
2474,64.0,0,150,2.0,0.0
2475,60.0,0,360,4.0,0.0
2476,65.0,0,360,1.0,0.0
2477,57.0,280,360,5.0,0.0
2478,68.0,160,150,5.0,0.0
2479,67.0,160,150,5.0,0.0
2480,65.0,160,150,5.0,0.0
2481,63.0,160,150,5.0,0.0
2482,61.0,160,150,5.0,0.0
2483,60.0,160,150,5.0,0.0
2484,59.0,160,150,5.0,0.0
2485,68.0,120,360,2.0,0.0
2486,77.0,160,960,1.0,0.0
2487,62.0,40,150,5.0,0.0
2488,59.0,160,150,5.0,0.0
2489,62.0,160,150,5.0,0.0
2490,67.0,113,840,2.0,0.0
2491,60.0,160,150,5.0,0.0
2492,57.0,0,150,5.0,0.0
2493,76.0,7,360,1.0,0.0
2494,60.0,160,150,5.0,0.0
2495,58.0,40,150,5.0,0.0
2496,55.0,160,150,5.0,0.0
2497,58.0,160,150,5.0,0.0
2498,72.0,8,840,2.0,0.0
2499,77.0,120,360,1.0,0.0
2500,57.0,40,150,5.0,0.0
2501,53.0,160,150,5.0,0.0
2502,70.0,0,360,2.0,0.0
2503,79.0,120,360,1.0,0.0
2504,57.0,160,150,5.0,0.0
2505,55.0,32,150,5.0,0.0
2506,52.0,360,150,5.0,0.0
2507,81.0,0,360,1.0,0.0
2508,53.0,0,360,5.0,0.0
2509,69.0,0,360,2.0,0.0
2510,72.0,280,360,2.0,0.0
2511,84.0,160,150,1.0,0.0
2512,82.0,160,150,1.0,0.0
2513,81.0,160,150,1.0,0.0
2514,79.0,160,150,1.0,0.0
2515,77.0,160,150,1.0,0.0
2516,76.0,160,150,1.0,0.0
2517,57.0,315,480,5.0,0.0
2518,65.0,45,780,4.0,0.0
2519,77.0,160,150,1.0,0.0
2520,75.0,160,150,1.0,0.0
2521,73.0,0,150,1.0,0.0
2522,74.0,0,360,1.0,0.0
2523,58.0,280,360,5.0,0.0
2524,74.0,160,150,5.0,0.0
2525,72.0,160,150,5.0,0.0
2526,70.0,160,150,5.0,0.0
2527,69.0,160,150,5.0,0.0
2528,67.0,160,150,5.0,0.0
2529,66.0,160,150,5.0,0.0
2530,67.0,160,150,5.0,0.0
2531,83.0,0,360,1.0,0.0
2532,79.0,120,360,2.0,0.0
2533,65.0,40,150,5.0,0.0
2534,63.0,360,150,5.0,0.0
2535,64.0,0,360,5.0,0.0
2536,84.0,0,360,1.0,0.0
2537,79.0,280,360,2.0,0.0
2538,60.0,160,150,1.0,0.0
2539,64.0,160,150,1.0,0.0
2540,67.0,160,150,1.0,0.0
2541,72.0,160,150,1.0,0.0
2542,76.0,160,150,1.0,0.0
2543,79.0,160,150,1.0,0.0
2544,55.0,0,360,4.0,0.0
2545,77.0,160,150,1.0,0.0
2546,53.0,88,360,5.0,0.0
2547,74.0,40,150,1.0,0.0
2548,71.0,272,120,1.0,0.0
2549,55.0,0,360,4.0,0.0
2550,72.0,120,240,1.0,0.0
2551,52.0,280,360,5.0,0.0
2552,60.0,160,150,1.0,0.0
2553,64.0,160,150,1.0,0.0
2554,67.0,160,150,1.0,0.0
2555,72.0,160,150,1.0,0.0
2556,76.0,160,150,1.0,0.0
2557,79.0,160,150,1.0,0.0
2558,53.0,88,360,4.0,0.0
2559,55.0,0,360,4.0,0.0
2560,77.0,160,150,1.0,0.0
2561,50.0,0,360,5.0,0.0
2562,74.0,40,150,1.0,0.0
2563,71.0,192,120,1.0,0.0
2564,55.0,0,840,4.0,0.0
2565,52.0,120,360,4.0,0.0
2566,72.0,160,150,1.0,0.0
2567,48.0,0,360,5.0,0.0
2568,76.0,40,150,1.0,0.0
2569,79.0,160,150,1.0,0.0
2570,53.0,88,360,4.0,0.0
2571,77.0,160,150,1.0,0.0
2572,50.0,0,360,5.0,0.0
2573,74.0,40,150,1.0,0.0
2574,71.0,154,120,1.0,0.0
2575,55.0,38,120,1.0,0.0
2576,72.0,160,150,1.0,0.0
2577,48.0,120,360,5.0,0.0
2578,52.0,0,360,4.0,0.0
2579,76.0,40,150,1.0,0.0
2580,79.0,160,150,1.0,0.0
2581,50.0,88,360,5.0,0.0
2582,53.0,0,360,4.0,0.0
2583,77.0,160,150,1.0,0.0
2584,74.0,40,150,1.0,0.0
2585,71.0,392,120,1.0,0.0
2586,72.0,0,360,1.0,0.0
2587,48.0,0,360,5.0,0.0
2588,52.0,360,360,4.0,0.0
2589,55.0,0,360,4.0,0.0
2590,36.0,480,240,5.0,0.0
2591,38.0,480,240,5.0,0.0
2592,40.0,480,240,5.0,0.0
2593,41.0,480,240,5.0,0.0
2594,45.0,480,240,5.0,0.0
2595,46.0,480,240,5.0,0.0
2596,49.0,480,240,5.0,0.0
2597,50.0,240,240,5.0,0.0
2598,53.0,240,240,5.0,0.0
2599,52.0,240,240,5.0,0.0
2600,50.0,240,240,5.0,0.0
2601,52.0,240,240,5.0,0.0
2602,53.0,240,240,5.0,0.0
2603,50.0,192,240,5.0,0.0
2604,52.0,288,180,5.0,0.0
2605,53.0,480,240,5.0,0.0
2606,50.0,480,240,5.0,0.0
2607,45.0,320,240,5.0,0.0
2608,47.0,80,90,5.0,0.0
2609,48.0,80,90,5.0,0.0
2610,47.0,120,90,5.0,0.0
2611,45.0,96,120,5.0,0.0
2612,47.0,744,90,5.0,0.0
2613,48.0,60,3780,5.0,0.0
2614,57.0,240,480,4.0,0.0
2615,60.0,240,240,1.0,0.0
2616,62.0,240,240,1.0,0.0
2617,58.0,240,480,4.0,0.0
2618,55.0,240,480,4.0,0.0
2619,64.0,240,240,1.0,0.0
2620,65.0,240,240,1.0,0.0
2621,57.0,240,480,4.0,0.0
2622,54.0,240,480,4.0,0.0
2623,69.0,240,240,1.0,0.0
2624,70.0,240,240,1.0,0.0
2625,55.0,240,480,4.0,0.0
2626,73.0,180,240,1.0,0.0
2627,57.0,240,480,4.0,0.0
2628,48.0,30,3810,5.0,0.0
2629,74.0,240,240,1.0,0.0
2630,58.0,278,1890,4.0,0.0
2631,77.0,240,240,1.0,0.0
2632,76.0,240,240,1.0,0.0
2633,74.0,240,240,1.0,0.0
2634,76.0,240,240,1.0,0.0
2635,77.0,240,240,1.0,0.0
2636,74.0,192,240,1.0,0.0
2637,76.0,10,180,1.0,0.0
2638,77.0,0,240,1.0,0.0
2639,57.0,240,240,4.0,0.0
2640,55.0,240,240,4.0,0.0
2641,74.0,240,240,1.0,0.0
2642,53.0,0,240,4.0,0.0
2643,52.0,240,240,4.0,0.0
2644,69.0,0,240,1.0,0.0
2645,53.0,240,240,4.0,0.0
2646,50.0,80,240,4.0,0.0
2647,55.0,120,240,4.0,0.0
2648,71.0,80,90,1.0,0.0
2649,72.0,80,90,1.0,0.0
2650,71.0,0,90,1.0,0.0
2651,53.0,18,180,4.0,0.0
2652,69.0,72,120,1.0,0.0
2653,71.0,360,120,1.0,0.0
2654,52.0,360,360,4.0,0.0
2655,72.0,0,360,1.0,0.0
2656,48.0,0,360,5.0,0.0
2657,36.0,480,240,5.0,0.0
2658,72.0,434,780,1.0,0.0
2659,38.0,480,240,5.0,0.0
2660,40.0,46,240,5.0,0.0
2661,41.0,0,240,5.0,0.0
2662,70.0,240,240,1.0,0.0
2663,69.0,240,240,1.0,0.0
2664,67.0,0,240,1.0,0.0
2665,45.0,240,240,5.0,0.0
2666,65.0,240,240,1.0,0.0
2667,69.0,0,240,1.0,0.0
2668,46.0,240,240,5.0,0.0
2669,67.0,240,240,1.0,0.0
2670,49.0,0,240,5.0,0.0
2671,70.0,192,240,1.0,0.0
2672,64.0,288,180,1.0,0.0
2673,65.0,240,240,1.0,0.0
2674,50.0,0,240,5.0,0.0
2675,53.0,240,240,5.0,0.0
2676,60.0,240,240,1.0,0.0
2677,52.0,0,240,5.0,0.0
2678,50.0,240,240,5.0,0.0
2679,84.0,192,720,1.0,0.0
2680,52.0,240,240,5.0,0.0
2681,53.0,240,240,5.0,0.0
2682,50.0,0,240,5.0,0.0
2683,52.0,288,180,5.0,0.0
2684,53.0,0,240,5.0,0.0
2685,82.0,240,240,1.0,0.0
2686,81.0,240,240,1.0,0.0
2687,79.0,0,240,1.0,0.0
2688,57.0,240,240,5.0,0.0
2689,77.0,240,240,1.0,0.0
2690,81.0,240,240,1.0,0.0
2691,58.0,0,240,5.0,0.0
2692,79.0,240,240,1.0,0.0
2693,82.0,0,240,1.0,0.0
2694,61.0,192,240,5.0,0.0
2695,76.0,288,180,1.0,0.0
2696,62.0,240,240,5.0,0.0
2697,77.0,0,240,1.0,0.0
2698,65.0,240,240,5.0,0.0
2699,72.0,0,240,1.0,0.0
2700,64.0,240,240,5.0,0.0
2701,62.0,240,240,5.0,0.0
2702,64.0,240,240,5.0,0.0
2703,84.0,192,720,1.0,0.0
2704,65.0,240,240,5.0,0.0
2705,62.0,0,240,5.0,0.0
2706,64.0,288,180,5.0,0.0
2707,65.0,240,240,5.0,0.0
2708,82.0,0,240,1.0,0.0
2709,81.0,240,240,1.0,0.0
2710,79.0,0,240,1.0,0.0
2711,62.0,192,240,5.0,0.0
2712,77.0,288,180,1.0,0.0
2713,57.0,480,240,5.0,0.0
2714,86.0,276,1080,1.0,0.0
2715,59.0,360,240,5.0,0.0
2716,60.0,23,3480,5.0,0.0
2717,87.0,480,150,1.0,0.0
2718,88.0,269,600,1.0,0.0
2719,69.0,211,150,4.0,0.0
2720,70.0,276,600,4.0,0.0
2721,85.0,204,150,1.0,0.0
2722,86.0,276,600,1.0,0.0
2723,68.0,204,150,4.0,0.0
2724,69.0,269,600,4.0,0.0
2725,83.0,211,150,1.0,0.0
2726,84.0,269,600,1.0,0.0
2727,66.0,211,150,4.0,0.0
2728,67.0,21,600,4.0,0.0
2729,81.0,196,150,1.0,0.0
2730,82.0,240,150,1.0,0.0
2731,82.0,0,150,1.0,0.0
2732,61.0,324,150,4.0,0.0
2733,67.0,480,2880,4.0,0.0
2734,62.0,149,3840,5.0,0.0
2735,82.0,80,240,1.0,0.0
2736,84.0,80,90,1.0,0.0
2737,82.0,80,90,1.0,0.0
2738,81.0,240,90,1.0,0.0
2739,82.0,240,240,1.0,0.0
2740,84.0,480,240,1.0,0.0
2741,86.0,240,480,1.0,0.0
2742,84.0,240,240,1.0,0.0
2743,82.0,156,240,1.0,0.0
2744,81.0,804,150,1.0,0.0
2745,87.0,240,960,1.0,0.0
2746,66.0,7,960,4.0,0.0
2747,86.0,240,240,1.0,0.0
2748,84.0,0,240,1.0,0.0
2749,82.0,204,150,1.0,0.0
2750,67.0,120,360,4.0,0.0
2751,87.0,240,240,1.0,0.0
2752,86.0,240,240,1.0,0.0
2753,85.0,240,240,1.0,0.0
2754,86.0,240,240,1.0,0.0
2755,81.0,240,240,1.0,0.0
2756,74.0,120,840,4.0,0.0
2757,66.0,240,480,5.0,0.0
2758,86.0,240,240,1.0,0.0
2759,84.0,0,240,1.0,0.0
2760,82.0,120,240,1.0,0.0
2761,67.0,0,360,5.0,0.0
2762,86.0,240,240,1.0,0.0
2763,84.0,240,240,1.0,0.0
2764,83.0,240,240,1.0,0.0
2765,84.0,240,240,1.0,0.0
2766,79.0,240,240,1.0,0.0
2767,84.0,240,240,1.0,0.0
2768,64.0,240,480,5.0,0.0
2769,72.0,300,1380,4.0,0.0
2770,82.0,240,480,1.0,0.0
2771,65.0,8,900,5.0,0.0
2772,80.0,240,240,1.0,0.0
2773,82.0,172,240,1.0,0.0
2774,81.0,240,480,1.0,0.0
2775,58.0,8,900,5.0,0.0
2776,70.0,285,900,4.0,0.0
2777,74.0,240,240,1.0,0.0
2778,81.0,187,240,1.0,0.0
2779,79.0,240,480,1.0,0.0
2780,69.0,240,960,4.0,0.0
2781,60.0,15,1860,5.0,0.0
2782,72.0,240,240,1.0,0.0
2783,79.0,240,240,1.0,0.0
2784,77.0,240,480,1.0,0.0
2785,67.0,285,900,4.0,0.0
2786,70.0,240,240,1.0,0.0
2787,77.0,180,240,1.0,0.0
2788,76.0,240,480,1.0,0.0
2789,66.0,300,900,4.0,0.0
2790,60.0,8,900,5.0,0.0
2791,69.0,240,240,1.0,0.0
2792,77.0,172,240,1.0,0.0
2793,75.0,240,480,1.0,0.0
2794,59.0,293,900,5.0,0.0
2795,65.0,0,900,4.0,0.0
2796,68.0,240,240,1.0,0.0
2797,75.0,187,240,1.0,0.0
2798,74.0,240,480,1.0,0.0
2799,64.0,300,900,4.0,0.0
2800,58.0,0,900,5.0,0.0
2801,67.0,240,240,1.0,0.0
2802,75.0,180,240,1.0,0.0
2803,73.0,240,480,1.0,0.0
2804,63.0,0,900,4.0,0.0
2805,57.0,300,900,5.0,0.0
2806,66.0,240,240,1.0,0.0
2807,73.0,180,240,1.0,0.0
2808,72.0,240,480,1.0,0.0
2809,58.0,293,900,5.0,0.0
2810,62.0,7,900,4.0,0.0
2811,67.0,240,240,1.0,0.0
2812,72.0,180,240,1.0,0.0
2813,70.0,240,480,1.0,0.0
2814,58.0,293,900,4.0,0.0
2815,46.0,7,900,5.0,0.0
2816,62.0,240,240,1.0,0.0
2817,69.0,180,240,1.0,0.0
2818,67.0,240,480,1.0,0.0
2819,57.0,240,960,4.0,0.0
2820,48.0,5,1860,5.0,0.0
2821,60.0,240,240,1.0,0.0
2822,67.0,240,240,1.0,0.0
2823,65.0,240,480,1.0,0.0
2824,55.0,0,900,4.0,0.0
2825,58.0,240,240,1.0,0.0
2826,65.0,187,240,1.0,0.0
2827,64.0,312,180,1.0,0.0
2828,50.0,15,1200,5.0,0.0
2829,59.0,15,1200,4.0,0.0
2830,53.0,9,1200,4.0,0.0
2831,65.0,160,90,1.0,0.0
2832,67.0,160,90,1.0,0.0
2833,69.0,160,90,1.0,0.0
2834,71.0,160,90,1.0,0.0
2835,72.0,160,90,1.0,0.0
2836,74.0,121,90,1.0,0.0
2837,76.0,160,90,1.0,0.0
2838,77.0,160,90,1.0,0.0
2839,50.0,0,240,5.0,0.0
2840,79.0,136,90,1.0,0.0
2841,59.0,24,240,4.0,0.0
2842,53.0,0,240,4.0,0.0
2843,81.0,160,90,1.0,0.0
2844,77.0,376,90,1.0,0.0
2845,60.0,0,1440,4.0,0.0
2846,53.0,15,1200,4.0,0.0
2847,57.0,80,1200,4.0,0.0
2848,48.0,0,1200,5.0,0.0
2849,81.0,160,150,1.0,0.0
2850,79.0,160,150,1.0,0.0
2851,77.0,160,150,1.0,0.0
2852,76.0,160,150,1.0,0.0
2853,74.0,160,150,1.0,0.0
2854,72.0,65,150,1.0,0.0
2855,70.0,160,150,1.0,0.0
2856,69.0,160,150,1.0,0.0
2857,57.0,0,240,4.0,0.0
2858,48.0,80,240,5.0,0.0
2859,67.0,80,150,1.0,0.0
2860,53.0,0,240,4.0,0.0
2861,69.0,128,150,1.0,0.0
2862,65.0,296,120,1.0,0.0
2863,57.0,30,1170,4.0,0.0
2864,53.0,15,1200,4.0,0.0
2865,50.0,9,1200,4.0,0.0
2866,47.0,0,1200,5.0,0.0
2867,65.0,160,90,1.0,0.0
2868,67.0,160,90,1.0,0.0
2869,69.0,160,90,1.0,0.0
2870,71.0,160,90,1.0,0.0
2871,72.0,160,90,1.0,0.0
2872,74.0,106,90,1.0,0.0
2873,76.0,160,90,1.0,0.0
2874,77.0,160,90,1.0,0.0
2875,79.0,136,90,1.0,0.0
2876,47.0,0,240,5.0,0.0
2877,53.0,24,240,4.0,0.0
2878,57.0,0,240,4.0,0.0
2879,50.0,0,240,4.0,0.0
2880,81.0,160,90,1.0,0.0
2881,77.0,376,90,1.0,0.0
2882,48.0,0,1200,5.0,0.0
2883,57.0,15,1200,4.0,0.0
2884,53.0,65,1200,4.0,0.0
2885,81.0,160,150,1.0,0.0
2886,79.0,160,150,1.0,0.0
2887,77.0,160,150,1.0,0.0
2888,76.0,160,150,1.0,0.0
2889,74.0,160,150,1.0,0.0
2890,72.0,80,150,1.0,0.0
2891,70.0,160,150,1.0,0.0
2892,69.0,160,150,1.0,0.0
2893,67.0,80,150,1.0,0.0
2894,53.0,0,240,4.0,0.0
2895,57.0,80,240,4.0,0.0
2896,48.0,0,240,5.0,0.0
2897,69.0,128,150,1.0,0.0
2898,65.0,296,120,1.0,0.0
2899,53.0,15,1200,4.0,0.0
2900,56.0,0,1200,4.0,0.0
2901,59.0,9,1200,4.0,0.0
2902,49.0,15,1200,5.0,0.0
2903,65.0,160,90,1.0,0.0
2904,67.0,160,90,1.0,0.0
2905,68.0,160,90,1.0,0.0
2906,71.0,160,90,1.0,0.0
2907,72.0,160,90,1.0,0.0
2908,73.0,121,90,1.0,0.0
2909,76.0,160,90,1.0,0.0
2910,77.0,160,90,1.0,0.0
2911,59.0,24,240,4.0,0.0
2912,56.0,0,240,4.0,0.0
2913,53.0,0,240,4.0,0.0
2914,79.0,136,90,1.0,0.0
2915,49.0,0,240,5.0,0.0
2916,80.0,160,90,1.0,0.0
2917,77.0,176,90,1.0,0.0
2918,48.0,0,240,5.0,0.0
2919,57.0,120,240,4.0,0.0
2920,53.0,0,240,4.0,0.0
2921,60.0,0,240,4.0,0.0
2922,81.0,120,120,1.0,0.0
2923,79.0,0,120,1.0,0.0
2924,77.0,120,120,1.0,0.0
2925,76.0,120,120,1.0,0.0
2926,74.0,120,120,1.0,0.0
2927,72.0,120,120,1.0,0.0
2928,70.0,96,120,1.0,0.0
2929,69.0,144,90,1.0,0.0
2930,77.0,120,120,1.0,0.0
2931,76.0,120,120,1.0,0.0
2932,74.0,120,120,1.0,0.0
2933,72.0,120,120,1.0,0.0
2934,70.0,120,120,1.0,0.0
2935,69.0,120,120,1.0,0.0
2936,67.0,96,120,1.0,0.0
2937,65.0,104,90,1.0,0.0
2938,67.0,80,90,1.0,0.0
2939,48.0,151,1890,5.0,0.0
2940,53.0,80,960,4.0,0.0
2941,69.0,80,90,1.0,0.0
2942,67.0,80,90,1.0,0.0
2943,69.0,80,90,1.0,0.0
2944,67.0,80,90,1.0,0.0
2945,69.0,80,90,1.0,0.0
2946,67.0,80,90,1.0,0.0
2947,69.0,80,90,1.0,0.0
2948,67.0,80,90,1.0,0.0
2949,69.0,80,90,1.0,0.0
2950,67.0,80,90,1.0,0.0
2951,69.0,0,90,1.0,0.0
2952,67.0,80,90,1.0,0.0
2953,52.0,0,930,4.0,0.0
2954,69.0,80,90,1.0,0.0
2955,67.0,80,90,1.0,0.0
2956,69.0,80,90,1.0,0.0
2957,67.0,80,90,1.0,0.0
2958,69.0,80,90,1.0,0.0
2959,67.0,80,90,1.0,0.0
2960,69.0,80,90,1.0,0.0
2961,67.0,120,90,1.0,0.0
2962,65.0,96,120,1.0,0.0
2963,67.0,1,90,1.0,0.0
2964,41.0,40,4260,5.0,0.0
2965,53.0,160,120,1.0,0.0
2966,57.0,160,120,1.0,0.0
2967,60.0,160,120,1.0,0.0
2968,65.0,160,120,1.0,0.0
2969,69.0,160,120,1.0,0.0
2970,72.0,272,120,1.0,0.0
2971,77.0,48,240,1.0,0.0
2972,72.0,160,120,2.0,0.0
2973,69.0,272,120,2.0,0.0
2974,76.0,48,240,1.0,0.0
2975,70.0,160,120,2.0,0.0
2976,67.0,272,120,2.0,0.0
2977,74.0,48,240,1.0,0.0
2978,69.0,160,120,2.0,0.0
2979,65.0,272,120,2.0,0.0
2980,72.0,48,240,1.0,0.0
2981,67.0,160,120,2.0,0.0
2982,64.0,272,120,2.0,0.0
2983,70.0,48,240,1.0,0.0
2984,65.0,160,120,2.0,0.0
2985,62.0,272,120,2.0,0.0
2986,69.0,48,240,1.0,0.0
2987,64.0,160,120,2.0,0.0
2988,60.0,272,120,2.0,0.0
2989,57.0,48,240,1.0,0.0
2990,63.0,120,120,2.0,0.0
2991,66.0,272,120,2.0,0.0
2992,46.0,88,360,5.0,0.0
2993,58.0,48,240,1.0,0.0
2994,62.0,72,120,2.0,0.0
2995,67.0,272,120,2.0,0.0
2996,57.0,48,240,1.0,0.0
2997,48.0,88,360,5.0,0.0
2998,60.0,72,120,2.0,0.0
2999,65.0,272,120,2.0,0.0
3000,55.0,48,240,1.0,0.0
3001,36.0,88,360,5.0,0.0
3002,58.0,72,120,2.0,0.0
3003,64.0,160,120,2.0,0.0
3004,41.0,15,4290,5.0,0.0
3005,53.0,248,4320,5.0,0.0
3006,65.0,160,120,1.0,0.0
3007,69.0,160,120,1.0,0.0
3008,72.0,160,120,1.0,0.0
3009,77.0,160,120,1.0,0.0
3010,81.0,160,120,1.0,0.0
3011,84.0,272,120,1.0,0.0
3012,89.0,48,240,1.0,0.0
3013,84.0,160,120,2.0,0.0
3014,81.0,272,120,2.0,0.0
3015,88.0,48,240,1.0,0.0
3016,82.0,160,120,2.0,0.0
3017,79.0,272,120,2.0,0.0
3018,86.0,48,240,1.0,0.0
3019,81.0,160,120,2.0,0.0
3020,77.0,272,120,2.0,0.0
3021,84.0,48,240,1.0,0.0
3022,79.0,160,120,2.0,0.0
3023,76.0,272,120,2.0,0.0
3024,82.0,48,240,1.0,0.0
3025,77.0,160,120,2.0,0.0
3026,74.0,272,120,2.0,0.0
3027,81.0,48,240,1.0,0.0
3028,76.0,160,120,2.0,0.0
3029,72.0,272,120,2.0,0.0
3030,69.0,48,240,1.0,0.0
3031,75.0,160,120,2.0,0.0
3032,78.0,9,120,2.0,0.0
3033,58.0,88,360,5.0,0.0
3034,70.0,48,240,1.0,0.0
3035,74.0,72,120,2.0,0.0
3036,79.0,272,120,2.0,0.0
3037,60.0,88,360,5.0,0.0
3038,69.0,48,240,1.0,0.0
3039,72.0,72,120,2.0,0.0
3040,77.0,272,120,2.0,0.0
3041,48.0,88,360,5.0,0.0
3042,67.0,48,240,1.0,0.0
3043,70.0,72,120,2.0,0.0
3044,76.0,272,120,2.0,0.0
3045,69.0,48,240,1.0,0.0
3046,53.0,88,2280,5.0,0.0
3047,72.0,160,120,2.0,0.0
3048,77.0,272,120,2.0,0.0
3049,68.0,48,240,1.0,0.0
3050,71.0,160,120,2.0,0.0
3051,77.0,272,120,2.0,0.0
3052,69.0,48,240,1.0,0.0
3053,72.0,160,120,2.0,0.0
3054,77.0,272,120,2.0,0.0
3055,68.0,48,240,1.0,0.0
3056,71.0,160,120,2.0,0.0
3057,77.0,272,120,2.0,0.0
3058,69.0,48,240,1.0,0.0
3059,72.0,72,120,2.0,0.0
3060,77.0,272,120,2.0,0.0
3061,58.0,88,360,5.0,0.0
3062,74.0,48,240,1.0,0.0
3063,70.0,72,120,2.0,0.0
3064,67.0,272,120,2.0,0.0
3065,72.0,48,240,1.0,0.0
3066,60.0,88,360,5.0,0.0
3067,69.0,72,120,2.0,0.0
3068,65.0,272,120,2.0,0.0
3069,48.0,88,360,5.0,0.0
3070,70.0,48,240,1.0,0.0
3071,67.0,72,120,2.0,0.0
3072,64.0,272,120,2.0,0.0
3073,60.0,48,240,1.0,0.0
3074,53.0,88,2280,5.0,0.0
3075,41.0,0,2280,5.0,0.0
3076,65.0,160,120,2.0,0.0
3077,69.0,272,120,2.0,0.0
3078,59.0,48,240,1.0,0.0
3079,65.0,160,120,2.0,0.0
3080,68.0,272,120,2.0,0.0
3081,60.0,48,240,1.0,0.0
3082,65.0,160,120,2.0,0.0
3083,69.0,272,120,2.0,0.0
3084,59.0,48,240,1.0,0.0
3085,65.0,160,120,2.0,0.0
3086,68.0,272,120,2.0,0.0
3087,60.0,48,240,1.0,0.0
3088,65.0,72,120,2.0,0.0
3089,69.0,272,120,2.0,0.0
3090,46.0,88,360,5.0,0.0
3091,67.0,48,240,1.0,0.0
3092,62.0,72,120,2.0,0.0
3093,58.0,272,120,2.0,0.0
3094,65.0,48,240,1.0,0.0
3095,48.0,88,360,5.0,0.0
3096,60.0,72,120,2.0,0.0
3097,57.0,272,120,2.0,0.0
3098,36.0,88,360,5.0,0.0
3099,64.0,48,240,1.0,0.0
3100,58.0,72,120,2.0,0.0
3101,55.0,160,120,2.0,0.0
3102,41.0,0,120,5.0,0.0
3103,53.0,160,120,1.0,0.0
3104,57.0,160,120,1.0,0.0
3105,45.0,0,120,5.0,0.0
3106,60.0,0,120,1.0,0.0
3107,48.0,160,120,5.0,0.0
3108,53.0,0,120,5.0,0.0
3109,65.0,160,120,1.0,0.0
3110,48.0,0,120,5.0,0.0
3111,60.0,160,120,1.0,0.0
3112,45.0,160,120,5.0,0.0
3113,57.0,0,120,1.0,0.0
3114,53.0,160,120,1.0,0.0
3115,41.0,0,120,5.0,0.0
3116,45.0,0,120,5.0,0.0
3117,57.0,160,120,1.0,0.0
3118,60.0,160,120,1.0,0.0
3119,48.0,0,120,5.0,0.0
3120,53.0,0,120,5.0,0.0
3121,65.0,160,120,1.0,0.0
3122,60.0,0,120,1.0,0.0
3123,48.0,160,120,5.0,0.0
3124,57.0,0,120,1.0,0.0
3125,45.0,160,120,5.0,0.0
3126,53.0,0,120,1.0,0.0
3127,41.0,160,120,5.0,0.0
3128,57.0,160,120,1.0,0.0
3129,45.0,0,120,5.0,0.0
3130,48.0,0,120,5.0,0.0
3131,60.0,160,120,1.0,0.0
3132,53.0,160,120,5.0,0.0
3133,65.0,0,120,1.0,0.0
3134,69.0,160,120,1.0,0.0
3135,57.0,0,120,5.0,0.0
3136,60.0,0,120,5.0,0.0
3137,72.0,160,120,1.0,0.0
3138,65.0,0,120,5.0,0.0
3139,77.0,160,120,1.0,0.0
3140,72.0,0,120,1.0,0.0
3141,60.0,160,120,5.0,0.0
3142,69.0,160,120,1.0,0.0
3143,57.0,0,120,5.0,0.0
3144,53.0,0,120,5.0,0.0
3145,65.0,160,120,1.0,0.0
3146,69.0,0,120,1.0,0.0
3147,57.0,160,120,5.0,0.0
3148,72.0,0,120,1.0,0.0
3149,60.0,160,120,5.0,0.0
3150,53.0,160,120,5.0,0.0
3151,65.0,0,120,1.0,0.0
3152,69.0,160,120,1.0,0.0
3153,57.0,0,120,5.0,0.0
3154,72.0,0,120,1.0,0.0
3155,60.0,160,120,5.0,0.0
3156,77.0,0,120,1.0,0.0
3157,65.0,160,120,5.0,0.0
3158,69.0,160,120,5.0,0.0
3159,81.0,0,120,1.0,0.0
3160,72.0,0,120,5.0,0.0
3161,84.0,160,120,1.0,0.0
3162,89.0,160,120,1.0,0.0
3163,77.0,0,120,5.0,0.0
3164,84.0,0,120,1.0,0.0
3165,72.0,160,120,5.0,0.0
3166,81.0,0,120,1.0,0.0
3167,69.0,160,120,5.0,0.0
3168,77.0,160,120,1.0,0.0
3169,65.0,0,120,5.0,0.0
3170,81.0,0,120,1.0,0.0
3171,69.0,160,120,5.0,0.0
3172,84.0,392,120,1.0,0.0
3173,72.0,0,120,5.0,0.0
3174,89.0,480,360,1.0,0.0
3175,77.0,0,360,5.0,0.0
3176,41.0,0,360,5.0,0.0
3177,53.0,0,360,5.0,0.0
3178,65.0,3000,360,1.0,0.0
3179,62.0,0,480,4.0,0.0
3180,70.0,0,480,1.0,0.0
3181,58.0,480,480,5.0,0.0
3182,69.0,410,480,1.0,0.0
3183,60.0,0,480,5.0,0.0
3184,63.0,0,480,4.0,0.0
3185,62.0,5,420,5.0,0.0
3186,65.0,10,420,4.0,0.0
3187,70.0,535,420,1.0,0.0
3188,61.0,480,480,4.0,0.0
3189,55.0,100,1380,5.0,0.0
3190,64.0,0,960,1.0,0.0
3191,60.0,420,480,4.0,0.0
3192,72.0,0,420,1.0,0.0
3193,58.0,240,960,4.0,0.0
3194,71.0,40,30,1.0,0.0
3195,53.0,0,1200,5.0,0.0
3196,72.0,40,30,1.0,0.0
3197,74.0,360,30,1.0,0.0
3198,72.0,120,600,1.0,0.0
3199,57.0,0,720,4.0,0.0
3200,70.0,120,120,1.0,0.0
3201,69.0,120,120,1.0,0.0
3202,67.0,120,120,1.0,0.0
3203,65.0,120,120,1.0,0.0
3204,55.0,5,210,5.0,0.0
3205,58.0,10,210,4.0,0.0
3206,63.0,80,120,1.0,0.0
3207,67.0,265,90,1.0,0.0
3208,65.0,40,240,1.0,0.0
3209,57.0,0,480,5.0,0.0
3210,60.0,0,480,4.0,0.0
3211,63.0,40,30,1.0,0.0
3212,65.0,40,30,1.0,0.0
3213,63.0,30,30,1.0,0.0
3214,65.0,30,30,1.0,0.0
3215,63.0,30,30,1.0,0.0
3216,62.0,30,30,1.0,0.0
3217,63.0,360,30,1.0,0.0
3218,58.0,0,360,4.0,0.0
3219,62.0,780,360,1.0,0.0
3220,65.0,295,660,2.0,0.0
3221,74.0,5,660,1.0,0.0
3222,36.0,0,1380,5.0,0.0
3223,48.0,295,1380,5.0,0.0
3224,62.0,0,240,2.0,0.0
3225,71.0,240,240,1.0,0.0
3226,72.0,240,240,1.0,0.0
3227,63.0,0,240,2.0,0.0
3228,74.0,0,240,1.0,0.0
3229,65.0,240,240,2.0,0.0
3230,75.0,180,240,1.0,0.0
3231,67.0,0,240,2.0,0.0
3232,72.0,5,180,1.0,0.0
3233,63.0,0,480,4.0,0.0
3234,60.0,240,480,5.0,0.0
3235,70.0,180,240,1.0,0.0
3236,69.0,60,180,1.0,0.0
3237,62.0,715,420,5.0,0.0
3238,65.0,5,420,4.0,0.0
3239,72.0,180,240,1.0,0.0
3240,70.0,0,180,1.0,0.0
3241,74.0,300,660,2.0,0.0
3242,77.0,0,660,1.0,0.0
3243,39.0,0,1380,5.0,0.0
3244,51.0,0,1380,5.0,0.0
3245,74.0,0,240,1.0,0.0
3246,71.0,240,240,2.0,0.0
3247,75.0,0,240,1.0,0.0
3248,72.0,240,240,2.0,0.0
3249,77.0,0,240,1.0,0.0
3250,74.0,240,240,2.0,0.0
3251,79.0,180,240,1.0,0.0
3252,75.0,0,240,2.0,0.0
3253,75.0,0,180,1.0,0.0
3254,72.0,300,180,2.0,0.0
3255,74.0,170,240,1.0,0.0
3256,53.0,240,480,5.0,0.0
3257,69.0,10,420,2.0,0.0
3258,63.0,0,480,4.0,0.0
3259,72.0,60,180,1.0,0.0
3260,75.0,170,240,1.0,0.0
3261,70.0,0,420,2.0,0.0
3262,62.0,10,420,4.0,0.0
3263,58.0,0,420,4.0,0.0
3264,74.0,300,180,1.0,0.0
3265,72.0,10,420,2.0,0.0
3266,45.0,295,420,5.0,0.0
3267,57.0,5,420,4.0,0.0
3268,79.0,170,240,1.0,0.0
3269,77.0,0,180,1.0,0.0
3270,84.0,180,240,1.0,0.0
3271,43.0,0,960,5.0,0.0
3272,55.0,0,960,4.0,0.0
3273,74.0,60,420,2.0,0.0
3274,82.0,240,240,1.0,0.0
3275,81.0,240,240,1.0,0.0
3276,70.0,0,900,2.0,0.0
3277,79.0,240,240,1.0,0.0
3278,77.0,180,240,1.0,0.0
3279,55.0,540,420,5.0,0.0
3280,60.0,0,420,4.0,0.0
3281,76.0,0,180,1.0,0.0
3282,70.0,410,480,2.0,0.0
3283,53.0,0,900,5.0,0.0
3284,64.0,0,480,4.0,0.0
3285,79.0,0,480,1.0,0.0
3286,65.0,0,420,4.0,0.0
3287,77.0,130,600,1.0,0.0
3288,69.0,180,420,2.0,0.0
3289,79.0,120,120,1.0,0.0
3290,75.0,95,120,1.0,0.0
3291,72.0,505,90,1.0,0.0
3292,70.0,0,480,1.0,0.0
3293,58.0,0,480,5.0,0.0
3294,62.0,480,480,4.0,0.0
3295,60.0,0,480,5.0,0.0
3296,63.0,410,480,4.0,0.0
3297,69.0,0,480,1.0,0.0
3298,62.0,5,420,5.0,0.0
3299,70.0,535,420,1.0,0.0
3300,65.0,10,420,4.0,0.0
3301,61.0,480,480,4.0,0.0
3302,55.0,0,1380,5.0,0.0
3303,64.0,420,960,1.0,0.0
3304,60.0,0,480,4.0,0.0
3305,58.0,240,960,4.0,0.0
3306,72.0,100,420,1.0,0.0
3307,71.0,40,30,1.0,0.0
3308,53.0,0,1200,5.0,0.0
3309,72.0,40,30,1.0,0.0
3310,74.0,360,30,1.0,0.0
3311,72.0,120,600,1.0,0.0
3312,57.0,0,720,4.0,0.0
3313,70.0,120,120,1.0,0.0
3314,69.0,120,120,1.0,0.0
3315,67.0,120,120,1.0,0.0
3316,65.0,120,120,1.0,0.0
3317,58.0,10,210,4.0,0.0
3318,63.0,80,120,1.0,0.0
3319,55.0,5,210,5.0,0.0
3320,67.0,265,90,1.0,0.0
3321,57.0,0,480,5.0,0.0
3322,60.0,0,480,4.0,0.0
3323,65.0,40,240,1.0,0.0
3324,63.0,40,30,1.0,0.0
3325,65.0,40,30,1.0,0.0
3326,63.0,30,30,1.0,0.0
3327,65.0,30,30,1.0,0.0
3328,63.0,30,30,1.0,0.0
3329,62.0,30,30,1.0,0.0
3330,63.0,410,30,1.0,0.0
3331,58.0,720,420,4.0,0.0
3332,62.0,10,420,1.0,0.0
3333,74.0,5,660,1.0,0.0
3334,65.0,295,660,2.0,0.0
3335,36.0,5,1380,5.0,0.0
3336,48.0,295,1380,5.0,0.0
3337,62.0,240,240,2.0,0.0
3338,71.0,0,240,1.0,0.0
3339,63.0,240,240,2.0,0.0
3340,72.0,0,240,1.0,0.0
3341,74.0,240,240,1.0,0.0
3342,65.0,0,240,2.0,0.0
3343,67.0,180,240,2.0,0.0
3344,75.0,0,240,1.0,0.0
3345,72.0,0,180,1.0,0.0
3346,63.0,240,480,4.0,0.0
3347,70.0,180,240,1.0,0.0
3348,60.0,0,480,5.0,0.0
3349,69.0,60,180,1.0,0.0
3350,72.0,180,240,1.0,0.0
3351,65.0,720,420,4.0,0.0
3352,62.0,0,420,5.0,0.0
3353,70.0,0,180,1.0,0.0
3354,74.0,300,660,2.0,0.0
3355,77.0,0,660,1.0,0.0
3356,51.0,0,1380,5.0,0.0
3357,39.0,0,1380,5.0,0.0
3358,71.0,0,240,2.0,0.0
3359,74.0,240,240,1.0,0.0
3360,72.0,0,240,2.0,0.0
3361,75.0,240,240,1.0,0.0
3362,74.0,240,240,2.0,0.0
3363,77.0,0,240,1.0,0.0
3364,79.0,0,240,1.0,0.0
3365,75.0,180,240,2.0,0.0
3366,72.0,300,180,2.0,0.0
3367,75.0,0,180,1.0,0.0
3368,63.0,240,480,4.0,0.0
3369,74.0,120,240,1.0,0.0
3370,69.0,60,360,2.0,0.0
3371,53.0,0,480,5.0,0.0
3372,72.0,60,180,1.0,0.0
3373,75.0,120,240,1.0,0.0
3374,58.0,295,420,5.0,0.0
3375,70.0,60,360,2.0,0.0
3376,62.0,5,420,4.0,0.0
3377,74.0,0,180,1.0,0.0
3378,72.0,0,420,2.0,0.0
3379,79.0,170,240,1.0,0.0
3380,57.0,0,420,4.0,0.0
3381,45.0,10,420,5.0,0.0
3382,77.0,300,180,1.0,0.0
3383,84.0,180,240,1.0,0.0
3384,55.0,0,1380,5.0,0.0
3385,64.0,5,1380,4.0,0.0
3386,60.0,295,1380,4.0,0.0
3387,58.0,0,1380,4.0,0.0
3388,82.0,180,180,1.0,0.0
3389,81.0,120,120,1.0,0.0
3390,79.0,120,120,1.0,0.0
3391,77.0,120,120,1.0,0.0
3392,76.0,240,120,1.0,0.0
3393,74.0,180,240,1.0,0.0
3394,72.0,0,180,1.0,0.0
3395,57.0,0,1380,5.0,0.0
3396,60.0,10,1380,4.0,0.0
3397,86.0,180,240,1.0,0.0
3398,62.0,0,1380,4.0,0.0
3399,66.0,300,1380,4.0,0.0
3400,84.0,180,180,1.0,0.0
3401,82.0,120,120,1.0,0.0
3402,81.0,120,120,1.0,0.0
3403,79.0,120,120,1.0,0.0
3404,78.0,240,120,1.0,0.0
3405,75.0,170,240,1.0,0.0
3406,74.0,0,180,1.0,0.0
3407,67.0,0,1380,4.0,0.0
3408,62.0,5,1380,4.0,0.0
3409,58.0,30,1380,5.0,0.0
3410,87.0,180,240,1.0,0.0
3411,86.0,180,180,1.0,0.0
3412,84.0,120,120,1.0,0.0
3413,82.0,120,120,1.0,0.0
3414,81.0,120,120,1.0,0.0
3415,79.0,120,120,1.0,0.0
3416,78.0,120,120,1.0,0.0
3417,79.0,120,120,1.0,0.0
3418,81.0,60,120,1.0,0.0
3419,82.0,385,90,1.0,0.0
3420,77.0,60,360,1.0,0.0
3421,69.0,410,480,2.0,0.0
3422,60.0,1015,900,5.0,0.0
3423,79.0,60,60,1.0,0.0
3424,77.0,0,60,1.0,0.0
3425,76.0,5,420,1.0,0.0
3426,67.0,10,420,2.0,0.0
3427,53.0,480,480,5.0,0.0
3428,52.0,420,480,5.0,0.0
3429,53.0,300,420,5.0,0.0
3430,48.0,300,1380,5.0,0.0
3431,83.0,120,120,1.0,0.0
3432,84.0,120,120,1.0,0.0
3433,80.0,120,120,1.0,0.0
3434,81.0,120,120,1.0,0.0
3435,76.0,120,120,1.0,0.0
3436,77.0,120,120,1.0,0.0
3437,71.0,120,120,1.0,0.0
3438,72.0,120,120,1.0,0.0
3439,68.0,120,120,1.0,0.0
3440,69.0,60,120,1.0,0.0
3441,65.0,240,360,1.0,0.0
3442,55.0,240,480,5.0,0.0
3443,64.0,240,480,1.0,0.0
3444,54.0,240,480,5.0,0.0
3445,63.0,170,480,1.0,0.0
3446,55.0,190,420,5.0,0.0
3447,64.0,120,360,1.0,0.0
3448,48.0,295,1380,5.0,0.0
3449,85.0,120,120,1.0,0.0
3450,86.0,120,120,1.0,0.0
3451,81.0,120,120,1.0,0.0
3452,82.0,120,120,1.0,0.0
3453,78.0,120,120,1.0,0.0
3454,79.0,120,120,1.0,0.0
3455,75.0,120,120,1.0,0.0
3456,76.0,120,120,1.0,0.0
3457,69.0,120,120,1.0,0.0
3458,70.0,65,120,1.0,0.0
3459,67.0,240,360,1.0,0.0
3460,57.0,240,480,5.0,0.0
3461,66.0,240,480,1.0,0.0
3462,56.0,240,480,5.0,0.0
3463,65.0,180,480,1.0,0.0
3464,57.0,5,420,5.0,0.0
3465,66.0,295,180,1.0,0.0
3466,51.0,0,1380,4.0,0.0
3467,48.0,10,1380,5.0,0.0
3468,57.0,30,1380,4.0,0.0
3469,54.0,5,1380,4.0,0.0
3470,84.0,120,120,1.0,0.0
3471,87.0,120,120,1.0,0.0
3472,81.0,120,120,1.0,0.0
3473,84.0,120,120,1.0,0.0
3474,78.0,120,120,1.0,0.0
3475,81.0,120,120,1.0,0.0
3476,75.0,120,120,1.0,0.0
3477,78.0,120,120,1.0,0.0
3478,72.0,120,120,1.0,0.0
3479,75.0,50,120,1.0,0.0
3480,69.0,265,90,1.0,0.0
3481,58.0,10,1380,4.0,0.0
3482,54.0,30,1380,4.0,0.0
3483,51.0,5,1380,4.0,0.0
3484,46.0,0,1380,5.0,0.0
3485,82.0,120,120,1.0,0.0
3486,87.0,120,120,1.0,0.0
3487,78.0,120,120,1.0,0.0
3488,82.0,120,120,1.0,0.0
3489,75.0,120,120,1.0,0.0
3490,78.0,120,120,1.0,0.0
3491,70.0,120,120,1.0,0.0
3492,75.0,120,120,1.0,0.0
3493,66.0,120,120,1.0,0.0
3494,70.0,50,120,1.0,0.0
3495,63.0,265,90,1.0,0.0
3496,47.0,0,1380,4.0,0.0
3497,53.0,0,1380,4.0,0.0
3498,50.0,35,1380,4.0,0.0
3499,44.0,0,1380,5.0,0.0
3500,86.0,120,120,1.0,0.0
3501,89.0,120,120,1.0,0.0
3502,83.0,120,120,1.0,0.0
3503,86.0,120,120,1.0,0.0
3504,77.0,120,120,1.0,0.0
3505,83.0,120,120,1.0,0.0
3506,74.0,120,120,1.0,0.0
3507,77.0,120,120,1.0,0.0
3508,71.0,120,120,1.0,0.0
3509,74.0,60,120,1.0,0.0
3510,65.0,145,90,1.0,0.0
3511,45.0,120,120,5.0,0.0
3512,48.0,120,120,4.0,0.0
3513,53.0,95,120,4.0,0.0
3514,57.0,145,90,4.0,0.0
3515,60.0,120,120,1.0,0.0
3516,65.0,120,120,1.0,0.0
3517,69.0,95,120,1.0,0.0
3518,72.0,265,90,1.0,0.0
3519,46.0,0,240,5.0,0.0
3520,62.0,120,120,1.0,0.0
3521,65.0,95,120,1.0,0.0
3522,74.0,145,90,1.0,0.0
3523,36.0,120,120,5.0,0.0
3524,41.0,120,120,4.0,0.0
3525,45.0,95,120,4.0,0.0
3526,48.0,145,90,4.0,0.0
3527,57.0,120,120,1.0,0.0
3528,60.0,120,120,1.0,0.0
3529,65.0,95,120,1.0,0.0
3530,69.0,255,90,1.0,0.0
3531,36.0,10,240,5.0,0.0
3532,55.0,120,120,1.0,0.0
3533,58.0,95,120,1.0,0.0
3534,64.0,265,90,1.0,0.0
3535,57.0,180,240,3.0,0.0
3536,53.0,14,1410,5.0,0.0
3537,65.0,60,420,1.0,0.0
3538,60.0,240,240,3.0,0.0
3539,57.0,240,240,3.0,0.0
3540,60.0,80,240,3.0,0.0
3541,77.0,80,90,1.0,0.0
3542,55.0,0,240,3.0,0.0
3543,58.0,0,240,3.0,0.0
3544,76.0,80,90,1.0,0.0
3545,79.0,80,90,1.0,0.0
3546,60.0,17,180,3.0,0.0
3547,77.0,80,90,1.0,0.0
3548,76.0,33,90,1.0,0.0
3549,74.0,256,60,1.0,0.0
3550,72.0,92,540,1.0,0.0
3551,53.0,14,1410,5.0,0.0
3552,57.0,240,240,3.0,0.0
3553,60.0,68,240,3.0,0.0
3554,57.0,0,240,3.0,0.0
3555,71.0,80,90,1.0,0.0
3556,74.0,80,90,1.0,0.0
3557,60.0,0,240,3.0,0.0
3558,72.0,80,90,1.0,0.0
3559,70.0,80,90,1.0,0.0
3560,69.0,80,90,1.0,0.0
3561,67.0,80,90,1.0,0.0
3562,58.0,0,240,3.0,0.0
3563,66.0,80,90,1.0,0.0
3564,69.0,80,90,1.0,0.0
3565,60.0,17,180,3.0,0.0
3566,67.0,80,90,1.0,0.0
3567,65.0,33,90,1.0,0.0
3568,64.0,256,60,1.0,0.0
3569,64.0,240,240,3.0,0.0
3570,53.0,21,1410,5.0,0.0
3571,70.0,0,480,1.0,0.0
3572,55.0,0,240,3.0,0.0
3573,60.0,193,240,3.0,0.0
3574,57.0,0,240,3.0,0.0
3575,69.0,47,180,1.0,0.0
3576,65.0,240,240,3.0,0.0
3577,60.0,80,240,3.0,0.0
3578,55.0,80,240,3.0,0.0
3579,58.0,0,240,3.0,0.0
3580,77.0,80,90,1.0,0.0
3581,76.0,80,90,1.0,0.0
3582,79.0,0,90,1.0,0.0
3583,77.0,80,90,1.0,0.0
3584,60.0,10,180,3.0,0.0
3585,76.0,33,90,1.0,0.0
3586,74.0,256,60,1.0,0.0
3587,53.0,14,1410,5.0,0.0
3588,72.0,92,540,1.0,0.0
3589,57.0,240,240,3.0,0.0
3590,60.0,68,240,3.0,0.0
3591,57.0,80,240,3.0,0.0
3592,71.0,80,90,1.0,0.0
3593,74.0,0,90,1.0,0.0
3594,72.0,80,90,1.0,0.0
3595,60.0,80,240,3.0,0.0
3596,70.0,80,90,1.0,0.0
3597,69.0,0,90,1.0,0.0
3598,58.0,80,240,3.0,0.0
3599,67.0,80,90,1.0,0.0
3600,66.0,80,90,1.0,0.0
3601,69.0,0,90,1.0,0.0
3602,67.0,80,90,1.0,0.0
3603,60.0,17,180,3.0,0.0
3604,65.0,33,90,1.0,0.0
3605,64.0,496,60,1.0,0.0
3606,58.0,0,480,4.0,0.0
3607,53.0,47,660,5.0,0.0
3608,64.0,0,480,4.0,0.0
3609,74.0,80,480,1.0,0.0
3610,65.0,0,180,4.0,0.0
3611,72.0,80,90,1.0,0.0
3612,57.0,0,180,4.0,0.0
3613,71.0,33,90,1.0,0.0
3614,74.0,80,90,1.0,0.0
3615,72.0,80,90,1.0,0.0
3616,70.0,80,90,1.0,0.0
3617,69.0,80,90,1.0,0.0
3618,67.0,80,90,1.0,0.0
3619,66.0,80,90,1.0,0.0
3620,69.0,80,90,1.0,0.0
3621,67.0,80,90,1.0,0.0
3622,65.0,64,90,1.0,0.0
3623,64.0,496,60,1.0,0.0
3624,64.0,0,480,4.0,0.0
3625,58.0,0,480,4.0,0.0
3626,73.0,80,480,1.0,0.0
3627,53.0,0,660,5.0,0.0
3628,65.0,47,180,4.0,0.0
3629,72.0,80,90,1.0,0.0
3630,56.0,0,180,4.0,0.0
3631,71.0,33,90,1.0,0.0
3632,74.0,80,90,1.0,0.0
3633,72.0,80,90,1.0,0.0
3634,70.0,80,90,1.0,0.0
3635,68.0,80,90,1.0,0.0
3636,67.0,80,90,1.0,0.0
3637,65.0,80,90,1.0,0.0
3638,68.0,80,90,1.0,0.0
3639,67.0,80,90,1.0,0.0
3640,65.0,64,90,1.0,0.0
3641,63.0,496,60,1.0,0.0
3642,61.0,0,1380,4.0,0.0
3643,58.0,13,1380,4.0,0.0
3644,77.0,193,480,1.0,0.0
3645,55.0,653,1380,5.0,0.0
3646,75.0,240,180,1.0,0.0
3647,75.0,240,180,1.0,0.0
3648,75.0,227,180,1.0,0.0
3649,75.0,2,180,1.0,0.0
3650,56.0,52,900,5.0,0.0
3651,60.0,0,900,4.0,0.0
3652,75.0,52,600,1.0,0.0
3653,77.0,60,60,1.0,0.0
3654,75.0,60,60,1.0,0.0
3655,73.0,60,60,1.0,0.0
3656,72.0,60,60,1.0,0.0
3657,70.0,8,60,1.0,0.0
3658,68.0,120,60,1.0,0.0
3659,61.0,262,450,4.0,0.0
3660,66.0,39,120,1.0,0.0
3661,58.0,0,450,5.0,0.0
3662,68.0,30,30,1.0,0.0
3663,66.0,30,30,1.0,0.0
3664,65.0,30,30,1.0,0.0
3665,66.0,111,30,1.0,0.0
3666,70.0,96,120,1.0,0.0
3667,73.0,2,90,1.0,0.0
3668,56.0,240,240,4.0,0.0
3669,65.0,0,720,1.0,0.0
3670,48.0,165,1380,5.0,0.0
3671,57.0,240,240,4.0,0.0
3672,58.0,60,240,4.0,0.0
3673,67.0,60,60,1.0,0.0
3674,59.0,0,240,4.0,0.0
3675,65.0,60,60,1.0,0.0
3676,64.0,60,60,1.0,0.0
3677,65.0,240,60,1.0,0.0
3678,60.0,193,240,4.0,0.0
3679,68.0,0,240,1.0,0.0
3680,58.0,2,180,4.0,0.0
3681,67.0,0,180,1.0,0.0
3682,57.0,240,240,3.0,0.0
3683,53.0,53,960,5.0,0.0
3684,65.0,120,120,1.0,0.0
3685,81.0,67,900,1.0,0.0
3686,60.0,240,240,3.0,0.0
3687,57.0,240,240,3.0,0.0
3688,60.0,0,240,3.0,0.0
3689,55.0,60,240,3.0,0.0
3690,46.0,33,420,5.0,0.0
3691,79.0,60,60,1.0,0.0
3692,82.0,60,60,1.0,0.0
3693,81.0,0,60,1.0,0.0
3694,58.0,2,180,3.0,0.0
3695,79.0,60,60,1.0,0.0
3696,77.0,60,60,1.0,0.0
3697,76.0,13,60,1.0,0.0
3698,74.0,252,60,1.0,0.0
3699,53.0,240,240,3.0,0.0
3700,72.0,120,600,1.0,0.0
3701,57.0,120,240,3.0,0.0
3702,53.0,120,240,3.0,0.0
3703,77.0,0,120,1.0,0.0
3704,57.0,120,240,3.0,0.0
3705,69.0,120,120,1.0,0.0
3706,74.0,0,120,1.0,0.0
3707,52.0,120,240,3.0,0.0
3708,48.0,0,15,5.0,0.0
3709,72.0,120,120,1.0,0.0
3710,70.0,0,120,1.0,0.0
3711,55.0,10,180,3.0,0.0
3712,67.0,73,120,1.0,0.0
3713,64.0,264,90,1.0,0.0
3714,81.0,67,1020,1.0,0.0
3715,53.0,0,480,5.0,0.0
3716,57.0,240,240,3.0,0.0
3717,60.0,240,240,3.0,0.0
3718,49.0,53,480,5.0,0.0
3719,55.0,240,240,3.0,0.0
3720,57.0,0,240,3.0,0.0
3721,53.0,60,240,3.0,0.0
3722,50.0,0,240,5.0,0.0
3723,79.0,60,60,1.0,0.0
3724,82.0,60,60,1.0,0.0
3725,81.0,0,60,1.0,0.0
3726,47.0,0,180,5.0,0.0
3727,56.0,35,180,3.0,0.0
3728,79.0,60,60,1.0,0.0
3729,77.0,60,60,1.0,0.0
3730,76.0,13,60,1.0,0.0
3731,74.0,252,60,1.0,0.0
3732,57.0,240,240,3.0,0.0
3733,48.0,0,960,5.0,0.0
3734,72.0,52,540,1.0,0.0
3735,60.0,68,240,3.0,0.0
3736,53.0,60,240,3.0,0.0
3737,73.0,60,60,1.0,0.0
3738,76.0,60,60,1.0,0.0
3739,74.0,0,60,1.0,0.0
3740,57.0,0,240,3.0,0.0
3741,72.0,60,60,1.0,0.0
3742,70.0,60,60,1.0,0.0
3743,69.0,60,60,1.0,0.0
3744,67.0,60,60,1.0,0.0
3745,55.0,60,240,3.0,0.0
3746,65.0,60,60,1.0,0.0
3747,48.0,33,420,5.0,0.0
3748,64.0,60,60,1.0,0.0
3749,70.0,60,60,1.0,0.0
3750,69.0,0,60,1.0,0.0
3751,72.0,60,60,1.0,0.0
3752,58.0,2,180,3.0,0.0
3753,70.0,60,60,1.0,0.0
3754,67.0,13,60,1.0,0.0
3755,64.0,492,60,1.0,0.0
3756,67.0,0,480,1.0,0.0
3757,53.0,8,900,5.0,0.0
3758,64.0,0,480,2.0,0.0
3759,58.0,420,480,3.0,0.0
3760,60.0,0,900,3.0,0.0
3761,65.0,0,420,1.0,0.0
3762,57.0,1012,420,3.0,0.0
3763,41.0,480,480,5.0,0.0
3764,53.0,0,480,5.0,0.0
3765,52.0,0,480,5.0,0.0
3766,40.0,420,480,5.0,0.0
3767,81.0,80,570,1.0,0.0
3768,41.0,140,420,5.0,0.0
3769,53.0,0,420,5.0,0.0
3770,49.0,480,1440,5.0,0.0
3771,37.0,0,1440,5.0,0.0
3772,79.0,80,90,1.0,0.0
3773,82.0,80,90,1.0,0.0
3774,81.0,80,90,1.0,0.0
3775,79.0,80,90,1.0,0.0
3776,77.0,80,90,1.0,0.0
3777,76.0,80,90,1.0,0.0
3778,74.0,80,90,1.0,0.0
3779,77.0,80,90,1.0,0.0
3780,76.0,80,90,1.0,0.0
3781,74.0,80,90,1.0,0.0
3782,73.0,80,90,1.0,0.0
3783,70.0,80,90,1.0,0.0
3784,69.0,80,90,1.0,0.0
3785,72.0,80,90,1.0,0.0
3786,70.0,80,90,1.0,0.0
3787,69.0,80,90,1.0,0.0
3788,67.0,0,90,1.0,0.0
3789,50.0,0,480,5.0,0.0
3790,38.0,0,480,5.0,0.0
3791,65.0,480,480,1.0,0.0
3792,49.0,413,480,5.0,0.0
3793,37.0,0,480,5.0,0.0
3794,77.0,80,570,1.0,0.0
3795,50.0,7,420,5.0,0.0
3796,38.0,140,420,5.0,0.0
3797,45.0,0,1440,5.0,0.0
3798,33.0,0,1440,5.0,0.0
3799,76.0,80,90,1.0,0.0
3800,79.0,80,90,1.0,0.0
3801,77.0,80,90,1.0,0.0
3802,75.0,80,90,1.0,0.0
3803,74.0,80,90,1.0,0.0
3804,72.0,80,90,1.0,0.0
3805,71.0,80,90,1.0,0.0
3806,74.0,80,90,1.0,0.0
3807,72.0,80,90,1.0,0.0
3808,70.0,80,90,1.0,0.0
3809,69.0,80,90,1.0,0.0
3810,67.0,80,90,1.0,0.0
3811,66.0,80,90,1.0,0.0
3812,69.0,80,90,1.0,0.0
3813,67.0,80,90,1.0,0.0
3814,65.0,80,90,1.0,0.0
3815,63.0,480,90,1.0,0.0
3816,46.0,480,480,5.0,0.0
3817,34.0,0,480,5.0,0.0
3818,62.0,0,480,1.0,0.0
3819,74.0,0,480,1.0,0.0
3820,61.0,428,480,1.0,0.0
3821,73.0,0,480,1.0,0.0
3822,53.0,80,570,5.0,0.0
3823,62.0,132,420,1.0,0.0
3824,74.0,0,420,1.0,0.0
3825,69.0,480,1440,1.0,0.0
3826,57.0,0,1440,1.0,0.0
3827,52.0,80,90,5.0,0.0
3828,55.0,80,90,5.0,0.0
3829,53.0,80,90,5.0,0.0
3830,51.0,80,90,5.0,0.0
3831,50.0,80,90,5.0,0.0
3832,48.0,80,90,5.0,0.0
3833,47.0,80,90,5.0,0.0
3834,50.0,80,90,5.0,0.0
3835,48.0,80,90,5.0,0.0
3836,46.0,80,90,5.0,0.0
3837,45.0,80,90,5.0,0.0
3838,43.0,80,90,5.0,0.0
3839,42.0,80,90,5.0,0.0
3840,45.0,80,90,5.0,0.0
3841,43.0,80,90,5.0,0.0
3842,41.0,80,90,5.0,0.0
3843,39.0,0,90,5.0,0.0
3844,70.0,480,480,1.0,0.0
3845,38.0,0,480,5.0,0.0
3846,82.0,0,480,1.0,0.0
3847,69.0,420,480,1.0,0.0
3848,81.0,0,480,1.0,0.0
3849,62.0,80,570,5.0,0.0
3850,82.0,132,420,1.0,0.0
3851,70.0,8,420,1.0,0.0
3852,78.0,0,1440,1.0,0.0
3853,66.0,80,1440,1.0,0.0
3854,61.0,80,90,5.0,0.0
3855,64.0,80,90,5.0,0.0
3856,62.0,80,90,5.0,0.0
3857,60.0,80,90,5.0,0.0
3858,58.0,80,90,5.0,0.0
3859,57.0,80,90,5.0,0.0
3860,56.0,80,90,5.0,0.0
3861,58.0,80,90,5.0,0.0
3862,57.0,80,90,5.0,0.0
3863,55.0,80,90,5.0,0.0
3864,54.0,80,90,5.0,0.0
3865,51.0,80,90,5.0,0.0
3866,50.0,80,90,5.0,0.0
3867,53.0,80,90,5.0,0.0
3868,51.0,80,90,5.0,0.0
3869,50.0,80,90,5.0,0.0
3870,48.0,0,90,5.0,0.0
3871,79.0,80,90,1.0,0.0
3872,46.0,52,900,5.0,0.0
3873,78.0,80,90,1.0,0.0
3874,81.0,80,90,1.0,0.0
3875,79.0,80,90,1.0,0.0
3876,77.0,80,90,1.0,0.0
3877,75.0,80,90,1.0,0.0
3878,74.0,80,90,1.0,0.0
3879,73.0,80,90,1.0,0.0
3880,75.0,80,90,1.0,0.0
3881,74.0,80,90,1.0,0.0
3882,72.0,28,90,1.0,0.0
3883,70.0,80,90,1.0,0.0
3884,68.0,80,90,1.0,0.0
3885,47.0,60,420,5.0,0.0
3886,67.0,80,90,1.0,0.0
3887,70.0,80,90,1.0,0.0
3888,68.0,80,90,1.0,0.0
3889,67.0,20,90,1.0,0.0
3890,65.0,80,90,1.0,0.0
3891,63.0,80,90,1.0,0.0
3892,48.0,44,420,5.0,0.0
3893,62.0,80,90,1.0,0.0
3894,65.0,80,90,1.0,0.0
3895,63.0,80,90,1.0,0.0
3896,62.0,20,90,1.0,0.0
3897,60.0,56,60,1.0,0.0
3898,58.0,40,30,1.0,0.0
3899,49.0,140,900,5.0,0.0
3900,60.0,40,30,1.0,0.0
3901,58.0,40,30,1.0,0.0
3902,60.0,40,30,1.0,0.0
3903,58.0,40,30,1.0,0.0
3904,60.0,40,30,1.0,0.0
3905,58.0,40,30,1.0,0.0
3906,60.0,40,30,1.0,0.0
3907,58.0,60,30,1.0,0.0
3908,60.0,60,60,1.0,0.0
3909,58.0,156,60,1.0,0.0
3910,57.0,240,150,1.0,0.0
3911,55.0,24,150,1.0,0.0
3912,62.0,80,90,5.0,0.0
3913,53.0,60,420,1.0,0.0
3914,61.0,80,90,5.0,0.0
3915,64.0,80,90,5.0,0.0
3916,62.0,80,90,5.0,0.0
3917,60.0,20,90,5.0,0.0
3918,58.0,80,90,5.0,0.0
3919,65.0,0,420,1.0,0.0
3920,77.0,60,420,1.0,0.0
3921,57.0,80,90,5.0,0.0
3922,56.0,80,90,5.0,0.0
3923,58.0,80,90,5.0,0.0
3924,57.0,80,90,5.0,0.0
3925,55.0,20,90,5.0,0.0
3926,53.0,80,90,5.0,0.0
3927,78.0,60,420,1.0,0.0
3928,51.0,80,90,5.0,0.0
3929,66.0,7,420,1.0,0.0
3930,50.0,80,90,5.0,0.0
3931,53.0,80,90,5.0,0.0
3932,51.0,80,90,5.0,0.0
3933,50.0,13,90,5.0,0.0
3934,48.0,80,90,5.0,0.0
3935,46.0,80,90,5.0,0.0
3936,79.0,44,420,1.0,0.0
3937,67.0,0,420,1.0,0.0
3938,45.0,80,90,5.0,0.0
3939,48.0,80,90,5.0,0.0
3940,46.0,80,90,5.0,0.0
3941,45.0,20,90,5.0,0.0
3942,43.0,56,60,5.0,0.0
3943,68.0,413,960,1.0,0.0
3944,80.0,0,960,1.0,0.0
3945,41.0,40,30,5.0,0.0
3946,43.0,40,30,5.0,0.0
3947,41.0,40,30,5.0,0.0
3948,43.0,40,30,5.0,0.0
3949,41.0,40,30,5.0,0.0
3950,43.0,40,30,5.0,0.0
3951,41.0,40,30,5.0,0.0
3952,43.0,40,30,5.0,0.0
3953,41.0,60,30,5.0,0.0
3954,43.0,60,60,5.0,0.0
3955,41.0,156,60,5.0,0.0
3956,40.0,240,150,5.0,0.0
3957,38.0,84,150,5.0,0.0
3958,37.0,7,420,5.0,0.0
3959,69.0,1213,420,1.0,0.0
3960,81.0,0,420,1.0,0.0
3961,41.0,287,660,5.0,0.0
3962,53.0,0,660,5.0,0.0
3963,79.0,0,1140,1.0,0.0
3964,70.0,300,1140,2.0,0.0
3965,38.0,240,240,5.0,0.0
3966,50.0,0,240,5.0,0.0
3967,40.0,193,240,5.0,0.0
3968,52.0,0,240,5.0,0.0
3969,53.0,227,180,5.0,0.0
3970,41.0,0,180,5.0,0.0
3971,55.0,287,660,5.0,0.0
3972,43.0,0,660,5.0,0.0
3973,76.0,0,240,1.0,0.0
3974,64.0,193,240,2.0,0.0
3975,81.0,307,1140,1.0,0.0
3976,72.0,0,1140,2.0,0.0
3977,52.0,0,240,5.0,0.0
3978,40.0,240,240,5.0,0.0
3979,42.0,193,240,5.0,0.0
3980,54.0,0,240,5.0,0.0
3981,43.0,0,180,5.0,0.0
3982,55.0,220,180,5.0,0.0
3983,45.0,287,660,5.0,0.0
3984,57.0,0,660,5.0,0.0
3985,78.0,0,240,1.0,0.0
3986,66.0,193,240,2.0,0.0
3987,74.0,0,900,2.0,0.0
3988,82.0,60,900,1.0,0.0
3989,54.0,240,240,5.0,0.0
3990,42.0,0,240,5.0,0.0
3991,55.0,180,240,5.0,0.0
3992,43.0,0,240,5.0,0.0
3993,45.0,193,240,5.0,0.0
3994,57.0,0,240,5.0,0.0
3995,74.0,300,660,1.0,0.0
3996,70.0,7,660,2.0,0.0
3997,58.0,287,180,5.0,0.0
3998,46.0,0,180,5.0,0.0
3999,52.0,0,240,5.0,0.0
4000,55.0,173,240,4.0,0.0
4001,53.0,292,1140,5.0,0.0
4002,63.0,0,1140,4.0,0.0
4003,68.0,240,240,2.0,0.0
4004,71.0,0,240,1.0,0.0
4005,72.0,0,240,1.0,0.0
4006,69.0,193,240,2.0,0.0
4007,74.0,235,180,1.0,0.0
4008,71.0,0,180,2.0,0.0
4009,72.0,292,660,2.0,0.0
4010,75.0,8,660,1.0,0.0
4011,57.0,0,240,4.0,0.0
4012,54.0,180,240,5.0,0.0
4013,55.0,60,900,5.0,0.0
4014,65.0,7,900,4.0,0.0
4015,73.0,0,240,1.0,0.0
4016,70.0,240,240,2.0,0.0
4017,71.0,0,240,2.0,0.0
4018,74.0,173,240,1.0,0.0
4019,73.0,0,240,2.0,0.0
4020,76.0,193,240,1.0,0.0
4021,53.0,300,660,4.0,0.0
4022,50.0,0,660,5.0,0.0
4023,77.0,287,180,1.0,0.0
4024,74.0,0,180,2.0,0.0
4025,71.0,0,240,1.0,0.0
4026,67.0,180,240,2.0,0.0
4027,79.0,300,1140,1.0,0.0
4028,75.0,0,1140,2.0,0.0
4029,47.0,0,240,4.0,0.0
4030,50.0,240,240,5.0,0.0
4031,51.0,0,240,4.0,0.0
4032,48.0,193,240,5.0,0.0
4033,53.0,227,180,4.0,0.0
4034,50.0,0,180,5.0,0.0
4035,51.0,285,660,5.0,0.0
4036,55.0,0,660,4.0,0.0
4037,68.0,0,240,2.0,0.0
4038,72.0,195,240,1.0,0.0
4039,80.0,0,1140,1.0,0.0
4040,77.0,292,1140,2.0,0.0
4041,52.0,0,240,4.0,0.0
4042,49.0,240,240,5.0,0.0
4043,53.0,193,240,4.0,0.0
4044,50.0,0,240,5.0,0.0
4045,55.0,0,180,4.0,0.0
4046,52.0,235,180,5.0,0.0
4047,53.0,15,660,5.0,0.0
4048,56.0,270,690,4.0,0.0
4049,70.0,195,240,2.0,0.0
4050,74.0,0,240,1.0,0.0
4051,82.0,37,930,1.0,0.0
4052,79.0,15,900,2.0,0.0
4053,54.0,0,240,4.0,0.0
4054,51.0,240,240,5.0,0.0
4055,55.0,0,240,4.0,0.0
4056,52.0,188,240,5.0,0.0
4057,54.0,0,240,5.0,0.0
4058,57.0,193,240,4.0,0.0
4059,58.0,0,180,4.0,0.0
4060,55.0,287,180,5.0,0.0
4061,79.0,277,690,2.0,0.0
4062,82.0,0,690,1.0,0.0
4063,48.0,203,240,5.0,0.0
4064,52.0,0,240,4.0,0.0
4065,60.0,0,1140,4.0,0.0
4066,57.0,300,1140,5.0,0.0
4067,76.0,240,240,2.0,0.0
4068,80.0,0,240,1.0,0.0
4069,81.0,0,240,1.0,0.0
4070,78.0,193,240,2.0,0.0
4071,83.0,0,180,1.0,0.0
4072,80.0,227,180,2.0,0.0
4073,84.0,270,690,1.0,0.0
4074,81.0,0,690,2.0,0.0
4075,54.0,210,240,4.0,0.0
4076,50.0,0,240,5.0,0.0
4077,62.0,0,1140,4.0,0.0
4078,58.0,300,1140,5.0,0.0
4079,81.0,240,240,1.0,0.0
4080,78.0,0,240,2.0,0.0
4081,79.0,0,240,2.0,0.0
4082,82.0,193,240,1.0,0.0
4083,81.0,0,180,2.0,0.0
4084,84.0,227,180,1.0,0.0
4085,82.0,7,660,2.0,0.0
4086,86.0,285,660,1.0,0.0
4087,51.0,0,240,5.0,0.0
4088,55.0,188,240,4.0,0.0
4089,63.0,0,720,4.0,0.0
4090,60.0,0,720,5.0,0.0
4091,80.0,0,240,2.0,0.0
4092,83.0,240,240,1.0,0.0
4093,81.0,0,240,2.0,0.0
4094,84.0,240,240,1.0,0.0
4095,86.0,0,240,1.0,0.0
4096,82.0,0,240,2.0,0.0
4097,62.0,193,240,4.0,0.0
4098,58.0,0,240,5.0,0.0
4099,87.0,0,180,1.0,0.0
4100,57.0,0,240,5.0,0.0
4101,84.0,47,180,2.0,0.0
4102,60.0,193,240,4.0,0.0
4103,58.0,0,180,4.0,0.0
4104,84.0,0,180,2.0,0.0
4105,87.0,607,180,1.0,0.0
4106,54.0,0,180,5.0,0.0
4107,60.0,0,960,4.0,0.0
4108,53.0,0,960,5.0,0.0
4109,87.0,0,570,1.0,0.0
4110,84.0,80,570,2.0,0.0
4111,63.0,0,960,4.0,0.0
4112,57.0,0,960,4.0,0.0
4113,84.0,80,90,1.0,0.0
4114,81.0,80,90,1.0,0.0
4115,77.0,80,90,1.0,0.0
4116,75.0,80,90,1.0,0.0
4117,72.0,80,90,1.0,0.0
4118,69.0,80,90,1.0,0.0
4119,65.0,80,90,1.0,0.0
4120,63.0,80,90,1.0,0.0
4121,60.0,80,90,1.0,0.0
4122,57.0,80,90,1.0,0.0
4123,53.0,480,90,1.0,0.0
4124,41.0,1440,480,1.0,0.0
4125,70.0,480,480,1.0,0.0
4126,62.0,0,480,4.0,0.0
4127,58.0,0,480,5.0,0.0
4128,63.0,0,480,4.0,0.0
4129,69.0,410,480,1.0,0.0
4130,60.0,0,480,5.0,0.0
4131,70.0,535,420,1.0,0.0
4132,62.0,5,420,5.0,0.0
4133,65.0,10,420,4.0,0.0
4134,55.0,0,1380,5.0,0.0
4135,64.0,420,960,1.0,0.0
4136,61.0,480,480,4.0,0.0
4137,60.0,0,480,4.0,0.0
4138,58.0,240,960,4.0,0.0
4139,72.0,100,420,1.0,0.0
4140,71.0,40,30,1.0,0.0
4141,53.0,0,1200,5.0,0.0
4142,72.0,40,30,1.0,0.0
4143,74.0,360,30,1.0,0.0
4144,72.0,120,600,1.0,0.0
4145,57.0,0,720,4.0,0.0
4146,70.0,120,120,1.0,0.0
4147,69.0,120,120,1.0,0.0
4148,67.0,120,120,1.0,0.0
4149,65.0,120,120,1.0,0.0
4150,55.0,5,210,5.0,0.0
4151,63.0,80,120,1.0,0.0
4152,58.0,10,210,4.0,0.0
4153,67.0,265,90,1.0,0.0
4154,57.0,360,480,5.0,0.0
4155,65.0,40,240,1.0,0.0
4156,60.0,0,480,4.0,0.0
4157,63.0,40,30,1.0,0.0
4158,65.0,40,30,1.0,0.0
4159,63.0,30,30,1.0,0.0
4160,65.0,30,30,1.0,0.0
4161,63.0,30,30,1.0,0.0
4162,62.0,30,30,1.0,0.0
4163,63.0,0,30,1.0,0.0
4164,58.0,0,360,4.0,0.0
4165,62.0,780,360,1.0,0.0
4166,65.0,295,660,2.0,0.0
4167,74.0,5,660,1.0,0.0
4168,36.0,0,1380,5.0,0.0
4169,48.0,295,1380,5.0,0.0
4170,71.0,0,240,1.0,0.0
4171,62.0,240,240,2.0,0.0
4172,63.0,0,240,2.0,0.0
4173,72.0,240,240,1.0,0.0
4174,65.0,240,240,2.0,0.0
4175,74.0,0,240,1.0,0.0
4176,75.0,180,240,1.0,0.0
4177,67.0,0,240,2.0,0.0
4178,72.0,5,180,1.0,0.0
4179,70.0,180,240,1.0,0.0
4180,60.0,0,480,5.0,0.0
4181,63.0,240,480,4.0,0.0
4182,69.0,60,180,1.0,0.0
4183,62.0,715,420,5.0,0.0
4184,65.0,0,420,4.0,0.0
4185,72.0,180,240,1.0,0.0
4186,70.0,5,180,1.0,0.0
4187,74.0,0,660,2.0,0.0
4188,77.0,300,660,1.0,0.0
4189,39.0,300,1380,5.0,0.0
4190,51.0,0,1380,5.0,0.0
4191,71.0,0,240,2.0,0.0
4192,74.0,240,240,1.0,0.0
4193,75.0,0,240,1.0,0.0
4194,72.0,240,240,2.0,0.0
4195,77.0,240,240,1.0,0.0
4196,74.0,0,240,2.0,0.0
4197,79.0,0,240,1.0,0.0
4198,75.0,180,240,2.0,0.0
4199,72.0,0,180,2.0,0.0
4200,75.0,0,180,1.0,0.0
4201,69.0,10,420,2.0,0.0
4202,53.0,240,480,5.0,0.0
4203,63.0,0,480,4.0,0.0
4204,74.0,170,240,1.0,0.0
4205,72.0,60,180,1.0,0.0
4206,70.0,300,420,2.0,0.0
4207,62.0,0,420,4.0,0.0
4208,75.0,170,240,1.0,0.0
4209,58.0,10,420,5.0,0.0
4210,74.0,0,180,1.0,0.0
4211,72.0,10,420,2.0,0.0
4212,45.0,295,420,5.0,0.0
4213,79.0,170,240,1.0,0.0
4214,57.0,0,420,4.0,0.0
4215,77.0,5,180,1.0,0.0
4216,55.0,0,960,4.0,0.0
4217,74.0,60,420,2.0,0.0
4218,84.0,180,240,1.0,0.0
4219,43.0,0,960,5.0,0.0
4220,82.0,240,240,1.0,0.0
4221,81.0,240,240,1.0,0.0
4222,70.0,540,900,2.0,0.0
4223,79.0,240,240,1.0,0.0
4224,60.0,0,420,4.0,0.0
4225,77.0,180,240,1.0,0.0
4226,55.0,0,420,5.0,0.0
4227,76.0,0,180,1.0,0.0
4228,70.0,0,480,2.0,0.0
4229,64.0,0,480,4.0,0.0
4230,53.0,198,900,5.0,0.0
4231,79.0,405,480,1.0,0.0
4232,65.0,112,600,4.0,0.0
4233,69.0,0,420,2.0,0.0
4234,77.0,5,420,1.0,0.0
4235,67.0,120,120,4.0,0.0
4236,63.0,95,120,4.0,0.0
4237,60.0,505,90,4.0,0.0
4238,58.0,480,480,5.0,0.0
4239,57.0,425,480,5.0,0.0
4240,85.0,92,540,1.0,0.0
4241,58.0,123,420,5.0,0.0
4242,52.0,80,960,5.0,0.0
4243,83.0,80,90,1.0,0.0
4244,85.0,80,90,1.0,0.0
4245,84.0,80,90,1.0,0.0
4246,82.0,80,90,1.0,0.0
4247,81.0,80,90,1.0,0.0
4248,79.0,80,90,1.0,0.0
4249,78.0,80,90,1.0,0.0
4250,81.0,80,90,1.0,0.0
4251,79.0,80,90,1.0,0.0
4252,77.0,80,90,1.0,0.0
4253,76.0,0,90,1.0,0.0
4254,64.0,44,420,4.0,0.0
4255,73.0,80,90,1.0,0.0
4256,60.0,0,420,5.0,0.0
4257,72.0,80,90,1.0,0.0
4258,75.0,80,90,1.0,0.0
4259,73.0,80,90,1.0,0.0
4260,72.0,20,90,1.0,0.0
4261,70.0,56,60,1.0,0.0
4262,63.0,37,690,2.0,0.0
4263,59.0,40,30,5.0,0.0
4264,70.0,60,240,1.0,0.0
4265,60.0,40,30,5.0,0.0
4266,62.0,120,30,5.0,0.0
4267,60.0,0,600,5.0,0.0
4268,70.0,30,60,1.0,0.0
4269,69.0,30,15,1.0,0.0
4270,67.0,30,60,1.0,0.0
4271,69.0,30,15,1.0,0.0
4272,70.0,120,60,1.0,0.0
4273,72.0,83,120,1.0,0.0
4274,70.0,120,120,1.0,0.0
4275,72.0,0,450,1.0,0.0
4276,58.0,120,120,5.0,0.0
4277,63.0,22,450,2.0,0.0
4278,57.0,120,120,5.0,0.0
4279,55.0,98,120,5.0,0.0
4280,53.0,120,120,5.0,0.0
4281,72.0,0,180,1.0,0.0
4282,69.0,22,180,2.0,0.0
4283,51.0,73,120,5.0,0.0
4284,55.0,205,90,5.0,0.0
4285,72.0,60,180,1.0,0.0
4286,69.0,192,480,2.0,0.0
4287,53.0,0,240,5.0,0.0
4288,74.0,30,60,1.0,0.0
4289,72.0,10,60,1.0,0.0
4290,51.0,20,30,5.0,0.0
4291,71.0,20,60,1.0,0.0
4292,77.0,17,180,1.0,0.0
4293,72.0,30,60,1.0,0.0
4294,53.0,10,30,5.0,0.0
4295,51.0,30,30,5.0,0.0
4296,53.0,30,30,5.0,0.0
4297,51.0,13,30,5.0,0.0
4298,50.0,30,30,5.0,0.0
4299,51.0,0,30,5.0,0.0
4300,50.0,60,420,5.0,0.0
4301,70.0,227,180,2.0,0.0
4302,77.0,1,180,1.0,0.0
4303,65.0,240,240,1.0,0.0
4304,70.0,193,240,1.0,0.0
4305,74.0,287,180,1.0,0.0
4306,48.0,0,1380,5.0,0.0
4307,57.0,5,1380,4.0,0.0
4308,53.0,295,1380,4.0,0.0
4309,77.0,180,240,1.0,0.0
4310,51.0,0,1380,4.0,0.0
4311,75.0,180,180,1.0,0.0
4312,74.0,120,120,1.0,0.0
4313,72.0,120,120,1.0,0.0
4314,70.0,120,120,1.0,0.0
4315,69.0,240,120,1.0,0.0
4316,67.0,180,240,1.0,0.0
4317,65.0,0,180,1.0,0.0
4318,53.0,10,1380,4.0,0.0
4319,55.0,300,1380,4.0,0.0
4320,59.0,0,1380,4.0,0.0
4321,50.0,0,1380,5.0,0.0
4322,79.0,180,240,1.0,0.0
4323,77.0,180,180,1.0,0.0
4324,75.0,120,120,1.0,0.0
4325,74.0,120,120,1.0,0.0
4326,72.0,120,120,1.0,0.0
4327,71.0,240,120,1.0,0.0
4328,68.0,170,240,1.0,0.0
4329,67.0,0,180,1.0,0.0
4330,55.0,5,1380,4.0,0.0
4331,60.0,30,1380,4.0,0.0
4332,80.0,180,240,1.0,0.0
4333,51.0,0,1380,5.0,0.0
4334,79.0,180,180,1.0,0.0
4335,77.0,120,120,1.0,0.0
4336,75.0,120,120,1.0,0.0
4337,74.0,120,120,1.0,0.0
4338,72.0,120,120,1.0,0.0
4339,71.0,120,120,1.0,0.0
4340,72.0,120,120,1.0,0.0
4341,74.0,60,120,1.0,0.0
4342,75.0,385,90,1.0,0.0
4343,53.0,655,900,5.0,0.0
4344,62.0,410,480,4.0,0.0
4345,70.0,60,360,1.0,0.0
4346,72.0,60,60,1.0,0.0
4347,70.0,0,60,1.0,0.0
4348,69.0,5,420,1.0,0.0
4349,60.0,10,420,4.0,0.0
4350,70.0,360,120,1.0,0.0
4351,82.0,480,360,1.0,0.0
4352,81.0,420,480,1.0,0.0
4353,82.0,300,420,1.0,0.0
4354,77.0,300,1380,1.0,0.0
4355,64.0,120,120,5.0,0.0
4356,65.0,120,120,5.0,0.0
4357,61.0,120,120,5.0,0.0
4358,62.0,120,120,5.0,0.0
4359,57.0,120,120,5.0,0.0
4360,58.0,120,120,5.0,0.0
4361,52.0,120,120,5.0,0.0
4362,53.0,120,120,5.0,0.0
4363,49.0,120,120,5.0,0.0
4364,50.0,60,120,5.0,0.0
4365,46.0,240,360,5.0,0.0
4366,84.0,240,480,1.0,0.0
4367,45.0,240,480,5.0,0.0
4368,83.0,240,480,1.0,0.0
4369,44.0,173,480,5.0,0.0
4370,84.0,20,420,1.0,0.0
4371,45.0,287,180,5.0,0.0
4372,77.0,90,1230,1.0,0.0
4373,71.0,120,120,5.0,0.0
4374,72.0,120,120,5.0,0.0
4375,68.0,120,120,5.0,0.0
4376,69.0,120,120,5.0,0.0
4377,62.0,120,120,5.0,0.0
4378,63.0,120,120,5.0,0.0
4379,59.0,120,120,5.0,0.0
4380,60.0,120,120,5.0,0.0
4381,56.0,30,120,5.0,0.0
4382,84.0,225,480,1.0,0.0
4383,57.0,96,120,5.0,0.0
4384,51.0,279,90,5.0,0.0
4385,50.0,240,480,5.0,0.0
4386,83.0,240,480,1.0,0.0
4387,49.0,240,480,5.0,0.0
4388,82.0,188,480,1.0,0.0
4389,50.0,5,420,5.0,0.0
4390,83.0,287,180,1.0,0.0
4391,44.0,0,1380,4.0,0.0
4392,41.0,10,1380,5.0,0.0
4393,50.0,30,1380,4.0,0.0
4394,47.0,5,1380,4.0,0.0
4395,77.0,120,120,1.0,0.0
4396,80.0,120,120,1.0,0.0
4397,74.0,120,120,1.0,0.0
4398,77.0,120,120,1.0,0.0
4399,71.0,120,120,1.0,0.0
4400,74.0,120,120,1.0,0.0
4401,68.0,120,120,1.0,0.0
4402,71.0,120,120,1.0,0.0
4403,65.0,120,120,1.0,0.0
4404,68.0,50,120,1.0,0.0
4405,62.0,265,90,1.0,0.0
4406,47.0,30,1380,4.0,0.0
4407,39.0,10,1380,5.0,0.0
4408,44.0,5,1380,4.0,0.0
4409,51.0,0,1380,4.0,0.0
4410,75.0,120,120,1.0,0.0
4411,80.0,120,120,1.0,0.0
4412,71.0,120,120,1.0,0.0
4413,75.0,120,120,1.0,0.0
4414,68.0,120,120,1.0,0.0
4415,71.0,120,120,1.0,0.0
4416,63.0,120,120,1.0,0.0
4417,68.0,120,120,1.0,0.0
4418,59.0,120,120,1.0,0.0
4419,63.0,50,120,1.0,0.0
4420,56.0,265,90,1.0,0.0
4421,37.0,0,1380,5.0,0.0
4422,43.0,0,1380,4.0,0.0
4423,46.0,0,1380,4.0,0.0
4424,40.0,35,1380,4.0,0.0
4425,79.0,120,120,1.0,0.0
4426,82.0,120,120,1.0,0.0
4427,76.0,120,120,1.0,0.0
4428,79.0,120,120,1.0,0.0
4429,70.0,120,120,1.0,0.0
4430,76.0,120,120,1.0,0.0
4431,67.0,120,120,1.0,0.0
4432,70.0,120,120,1.0,0.0
4433,64.0,120,120,1.0,0.0
4434,67.0,60,120,1.0,0.0
4435,58.0,145,90,1.0,0.0
4436,38.0,120,120,5.0,0.0
4437,41.0,120,120,4.0,0.0
4438,46.0,95,120,4.0,0.0
4439,50.0,145,90,4.0,0.0
4440,53.0,120,120,1.0,0.0
4441,58.0,120,120,1.0,0.0
4442,62.0,95,120,1.0,0.0
4443,65.0,265,90,1.0,0.0
4444,39.0,0,240,5.0,0.0
4445,55.0,120,120,1.0,0.0
4446,58.0,95,120,1.0,0.0
4447,67.0,145,90,1.0,0.0
4448,41.0,120,120,1.0,0.0
4449,46.0,120,120,1.0,0.0
4450,50.0,95,120,1.0,0.0
4451,53.0,145,90,1.0,0.0
4452,62.0,120,120,1.0,0.0
4453,65.0,120,120,1.0,0.0
4454,70.0,95,120,1.0,0.0
4455,74.0,255,90,1.0,0.0
4456,29.0,10,240,5.0,0.0
4457,60.0,120,120,1.0,0.0
4458,63.0,95,120,1.0,0.0
4459,69.0,265,90,1.0,0.0
4460,58.0,14,1410,5.0,0.0
4461,62.0,180,240,4.0,0.0
4462,70.0,60,420,1.0,0.0
4463,65.0,240,240,4.0,0.0
4464,62.0,240,240,4.0,0.0
4465,65.0,80,240,4.0,0.0
4466,60.0,0,240,4.0,0.0
4467,82.0,80,90,1.0,0.0
4468,63.0,80,240,4.0,0.0
4469,81.0,80,90,1.0,0.0
4470,84.0,0,90,1.0,0.0
4471,82.0,80,90,1.0,0.0
4472,65.0,17,180,4.0,0.0
4473,81.0,33,90,1.0,0.0
4474,79.0,256,60,1.0,0.0
4475,62.0,240,240,4.0,0.0
4476,58.0,14,1410,5.0,0.0
4477,77.0,92,540,1.0,0.0
4478,65.0,68,240,4.0,0.0
4479,62.0,80,240,4.0,0.0
4480,76.0,80,90,1.0,0.0
4481,79.0,0,90,1.0,0.0
4482,65.0,0,240,4.0,0.0
4483,77.0,80,90,1.0,0.0
4484,75.0,80,90,1.0,0.0
4485,74.0,80,90,1.0,0.0
4486,63.0,0,240,4.0,0.0
4487,72.0,80,90,1.0,0.0
4488,71.0,80,90,1.0,0.0
4489,74.0,80,90,1.0,0.0
4490,72.0,80,90,1.0,0.0
4491,65.0,17,180,4.0,0.0
4492,70.0,33,90,1.0,0.0
4493,69.0,256,60,1.0,0.0
4494,60.0,240,240,4.0,0.0
4495,58.0,21,1410,5.0,0.0
4496,69.0,0,240,4.0,0.0
4497,75.0,193,480,1.0,0.0
4498,65.0,0,240,4.0,0.0
4499,62.0,0,240,4.0,0.0
4500,74.0,47,180,1.0,0.0
4501,70.0,240,240,4.0,0.0
4502,65.0,80,240,4.0,0.0
4503,82.0,80,90,1.0,0.0
4504,60.0,0,240,4.0,0.0
4505,63.0,80,240,4.0,0.0
4506,81.0,80,90,1.0,0.0
4507,84.0,0,90,1.0,0.0
4508,65.0,10,180,4.0,0.0
4509,82.0,80,90,1.0,0.0
4510,81.0,33,90,1.0,0.0
4511,79.0,256,60,1.0,0.0
4512,77.0,92,540,1.0,0.0
4513,62.0,240,240,4.0,0.0
4514,58.0,14,1410,5.0,0.0
4515,65.0,68,240,4.0,0.0
4516,62.0,0,240,4.0,0.0
4517,76.0,80,90,1.0,0.0
4518,79.0,80,90,1.0,0.0
4519,65.0,80,240,4.0,0.0
4520,77.0,80,90,1.0,0.0
4521,75.0,80,90,1.0,0.0
4522,74.0,0,90,1.0,0.0
4523,72.0,80,90,1.0,0.0
4524,63.0,80,240,4.0,0.0
4525,71.0,80,90,1.0,0.0
4526,74.0,0,90,1.0,0.0
4527,72.0,80,90,1.0,0.0
4528,65.0,17,180,4.0,0.0
4529,70.0,33,90,1.0,0.0
4530,69.0,496,60,1.0,0.0
4531,58.0,47,660,5.0,0.0
4532,79.0,80,480,1.0,0.0
4533,69.0,0,480,4.0,0.0
4534,63.0,0,480,4.0,0.0
4535,62.0,0,180,4.0,0.0
4536,70.0,0,180,4.0,0.0
4537,77.0,80,90,1.0,0.0
4538,76.0,33,90,1.0,0.0
4539,79.0,80,90,1.0,0.0
4540,77.0,80,90,1.0,0.0
4541,75.0,80,90,1.0,0.0
4542,74.0,80,90,1.0,0.0
4543,72.0,80,90,1.0,0.0
4544,71.0,80,90,1.0,0.0
4545,74.0,80,90,1.0,0.0
4546,72.0,80,90,1.0,0.0
4547,70.0,64,90,1.0,0.0
4548,69.0,496,60,1.0,0.0
4549,58.0,0,660,5.0,0.0
4550,69.0,0,480,4.0,0.0
4551,63.0,0,480,4.0,0.0
4552,78.0,80,480,1.0,0.0
4553,77.0,80,90,1.0,0.0
4554,70.0,47,180,4.0,0.0
4555,61.0,0,180,4.0,0.0
4556,76.0,33,90,1.0,0.0
4557,79.0,80,90,1.0,0.0
4558,77.0,80,90,1.0,0.0
4559,75.0,80,90,1.0,0.0
4560,73.0,80,90,1.0,0.0
4561,72.0,80,90,1.0,0.0
4562,70.0,80,90,1.0,0.0
4563,73.0,80,90,1.0,0.0
4564,72.0,80,90,1.0,0.0
4565,70.0,64,90,1.0,0.0
4566,68.0,496,60,1.0,0.0
4567,82.0,193,480,1.0,0.0
4568,66.0,13,1380,4.0,0.0
4569,63.0,0,1380,4.0,0.0
4570,60.0,653,1380,5.0,0.0
4571,80.0,240,180,1.0,0.0
4572,80.0,240,180,1.0,0.0
4573,80.0,227,180,1.0,0.0
4574,80.0,2,180,1.0,0.0
4575,65.0,0,900,4.0,0.0
4576,80.0,52,600,1.0,0.0
4577,61.0,52,900,5.0,0.0
4578,82.0,60,60,1.0,0.0
4579,80.0,60,60,1.0,0.0
4580,78.0,60,60,1.0,0.0
4581,77.0,60,60,1.0,0.0
4582,75.0,8,60,1.0,0.0
4583,73.0,120,60,1.0,0.0
4584,66.0,262,450,4.0,0.0
4585,71.0,39,120,1.0,0.0
4586,63.0,0,450,5.0,0.0
4587,73.0,30,30,1.0,0.0
4588,71.0,30,30,1.0,0.0
4589,70.0,30,30,1.0,0.0
4590,71.0,111,30,1.0,0.0
4591,75.0,96,120,1.0,0.0
4592,78.0,2,90,1.0,0.0
4593,70.0,0,720,1.0,0.0
4594,61.0,240,240,3.0,0.0
4595,53.0,165,1380,5.0,0.0
4596,62.0,240,240,3.0,0.0
4597,63.0,60,240,3.0,0.0
4598,72.0,60,60,1.0,0.0
4599,64.0,240,240,3.0,0.0
4600,70.0,60,60,1.0,0.0
4601,69.0,60,60,1.0,0.0
4602,70.0,0,60,1.0,0.0
4603,73.0,0,240,1.0,0.0
4604,65.0,193,240,3.0,0.0
4605,72.0,0,180,1.0,0.0
4606,63.0,2,180,3.0,0.0
4607,58.0,53,960,5.0,0.0
4608,70.0,120,120,1.0,0.0
4609,62.0,240,240,3.0,0.0
4610,86.0,67,900,1.0,0.0
4611,65.0,240,240,3.0,0.0
4612,62.0,240,240,3.0,0.0
4613,65.0,0,240,3.0,0.0
4614,51.0,33,420,5.0,0.0
4615,60.0,60,240,3.0,0.0
4616,84.0,60,60,1.0,0.0
4617,87.0,60,60,1.0,0.0
4618,86.0,0,60,1.0,0.0
4619,84.0,60,60,1.0,0.0
4620,63.0,2,180,3.0,0.0
4621,82.0,60,60,1.0,0.0
4622,81.0,13,60,1.0,0.0
4623,79.0,252,60,1.0,0.0
4624,53.0,120,960,5.0,0.0
4625,58.0,240,240,3.0,0.0
4626,77.0,120,600,1.0,0.0
4627,62.0,120,240,3.0,0.0
4628,58.0,120,240,3.0,0.0
4629,82.0,0,120,1.0,0.0
4630,62.0,0,240,3.0,0.0
4631,74.0,120,120,1.0,0.0
4632,79.0,0,120,1.0,0.0
4633,77.0,120,120,1.0,0.0
4634,53.0,13,450,5.0,0.0
4635,57.0,0,240,3.0,0.0
4636,75.0,120,120,1.0,0.0
4637,72.0,73,120,1.0,0.0
4638,60.0,10,180,3.0,0.0
4639,69.0,264,90,1.0,0.0
4640,62.0,240,240,3.0,0.0
4641,86.0,67,1020,1.0,0.0
4642,58.0,240,480,5.0,0.0
4643,65.0,0,240,3.0,0.0
4644,60.0,240,240,3.0,0.0
4645,54.0,53,480,5.0,0.0
4646,62.0,0,240,3.0,0.0
4647,55.0,0,240,5.0,0.0
4648,58.0,60,240,3.0,0.0
4649,84.0,60,60,1.0,0.0
4650,87.0,60,60,1.0,0.0
4651,86.0,0,60,1.0,0.0
4652,84.0,60,60,1.0,0.0
4653,52.0,35,180,5.0,0.0
4654,61.0,0,180,3.0,0.0
4655,82.0,60,60,1.0,0.0
4656,81.0,13,60,1.0,0.0
4657,79.0,252,60,1.0,0.0
4658,77.0,52,540,1.0,0.0
4659,62.0,240,240,3.0,0.0
4660,65.0,68,240,3.0,0.0
4661,58.0,0,240,3.0,0.0
4662,78.0,60,60,1.0,0.0
4663,81.0,60,60,1.0,0.0
4664,79.0,60,60,1.0,0.0
4665,62.0,0,240,3.0,0.0
4666,77.0,60,60,1.0,0.0
4667,75.0,60,60,1.0,0.0
4668,74.0,60,60,1.0,0.0
4669,72.0,60,60,1.0,0.0
4670,70.0,60,60,1.0,0.0
4671,53.0,0,15,5.0,0.0
4672,60.0,0,240,3.0,0.0
4673,69.0,60,60,1.0,0.0
4674,75.0,60,60,1.0,0.0
4675,74.0,60,60,1.0,0.0
4676,63.0,2,180,3.0,0.0
4677,77.0,60,60,1.0,0.0
4678,75.0,60,60,1.0,0.0
4679,72.0,13,60,1.0,0.0
4680,69.0,92,60,1.0,0.0
4681,70.0,80,90,1.0,0.0
4682,62.0,8,450,3.0,0.0
4683,58.0,22,450,5.0,0.0
4684,69.0,80,90,1.0,0.0
4685,72.0,80,90,1.0,0.0
4686,70.0,80,90,1.0,0.0
4687,69.0,50,90,1.0,0.0
4688,67.0,80,90,1.0,0.0
4689,65.0,80,90,1.0,0.0
4690,64.0,80,90,1.0,0.0
4691,67.0,80,90,1.0,0.0
4692,65.0,80,90,1.0,0.0
4693,63.0,80,90,1.0,0.0
4694,62.0,80,90,1.0,0.0
4695,60.0,80,90,1.0,0.0
4696,59.0,80,90,1.0,0.0
4697,62.0,80,90,1.0,0.0
4698,60.0,80,90,1.0,0.0
4699,58.0,76,90,1.0,0.0
4700,57.0,495,90,1.0,0.0
4701,45.0,218,930,5.0,0.0
4702,55.0,182,480,1.0,0.0
4703,51.0,5,930,4.0,0.0
4704,53.0,240,180,1.0,0.0
4705,77.0,17,180,1.0,0.0
4706,77.0,232,180,1.0,0.0
4707,63.0,5,420,4.0,0.0
4708,57.0,3,420,5.0,0.0
4709,77.0,107,180,1.0,0.0
4710,77.0,33,60,1.0,0.0
4711,58.0,35,180,5.0,0.0
4712,62.0,0,180,4.0,0.0
4713,79.0,20,30,1.0,0.0
4714,77.0,20,30,1.0,0.0
4715,76.0,47,30,1.0,0.0
4716,77.0,13,60,1.0,0.0
4717,82.0,72,60,1.0,0.0
4718,63.0,35,180,4.0,0.0
4719,72.0,33,60,1.0,0.0
4720,51.0,0,180,5.0,0.0
4721,74.0,20,30,1.0,0.0
4722,72.0,20,30,1.0,0.0
4723,71.0,42,30,1.0,0.0
4724,72.0,18,60,1.0,0.0
4725,79.0,252,60,1.0,0.0
4726,70.0,60,240,1.0,0.0
4727,53.0,55,420,5.0,0.0
4728,62.0,5,420,4.0,0.0
4729,72.0,60,60,1.0,0.0
4730,70.0,55,60,1.0,0.0
4731,69.0,5,60,1.0,0.0
4732,70.0,240,60,1.0,0.0
4733,54.0,115,450,5.0,0.0
4734,69.0,5,450,1.0,0.0
4735,74.0,193,240,1.0,0.0
4736,63.0,5,420,4.0,0.0
4737,72.0,2,180,1.0,0.0
4738,62.0,5,420,4.0,0.0
4739,55.0,80,90,5.0,0.0
4740,70.0,55,420,1.0,0.0
4741,54.0,80,90,5.0,0.0
4742,57.0,80,90,5.0,0.0
4743,55.0,80,90,5.0,0.0
4744,53.0,20,90,5.0,0.0
4745,51.0,80,90,5.0,0.0
4746,50.0,80,90,5.0,0.0
4747,48.0,80,90,5.0,0.0
4748,51.0,80,90,5.0,0.0
4749,50.0,80,90,5.0,0.0
4750,48.0,80,90,5.0,0.0
4751,46.0,80,90,5.0,0.0
4752,44.0,80,90,5.0,0.0
4753,43.0,80,90,5.0,0.0
4754,46.0,80,90,5.0,0.0
4755,44.0,80,90,5.0,0.0
4756,43.0,80,90,5.0,0.0
4757,41.0,480,90,5.0,0.0
4758,39.0,193,480,5.0,0.0
4759,79.0,0,480,1.0,0.0
4760,70.0,0,480,2.0,0.0
4761,71.0,0,180,2.0,0.0
4762,80.0,0,180,1.0,0.0
4763,38.0,240,180,5.0,0.0
4764,38.0,240,180,5.0,0.0
4765,71.0,0,180,2.0,0.0
4766,80.0,0,180,1.0,0.0
4767,38.0,0,180,5.0,0.0
4768,71.0,240,180,2.0,0.0
4769,80.0,0,180,1.0,0.0
4770,38.0,107,180,5.0,0.0
4771,80.0,0,180,1.0,0.0
4772,71.0,0,180,2.0,0.0
4773,72.0,47,180,2.0,0.0
4774,39.0,0,180,5.0,0.0
4775,78.0,60,60,1.0,0.0
4776,79.0,60,60,1.0,0.0
4777,81.0,13,60,1.0,0.0
4778,79.0,60,60,1.0,0.0
4779,77.0,60,60,1.0,0.0
4780,75.0,60,60,1.0,0.0
4781,74.0,48,60,1.0,0.0
4782,72.0,252,60,1.0,0.0
4783,65.0,0,480,4.0,0.0
4784,62.0,240,480,4.0,0.0
4785,53.0,5,900,5.0,0.0
4786,70.0,60,240,1.0,0.0
4787,72.0,60,60,1.0,0.0
4788,70.0,60,60,1.0,0.0
4789,69.0,60,60,1.0,0.0
4790,70.0,0,60,1.0,0.0
4791,69.0,93,450,2.0,0.0
4792,74.0,190,240,1.0,0.0
4793,63.0,3,420,4.0,0.0
4794,72.0,2,180,1.0,0.0
4795,70.0,80,60,1.0,0.0
4796,62.0,0,180,4.0,0.0
4797,58.0,20,180,5.0,0.0
4798,89.0,60,60,1.0,0.0
4799,86.0,80,60,1.0,0.0
4800,82.0,80,60,1.0,0.0
4801,77.0,80,60,1.0,0.0
4802,74.0,160,60,1.0,0.0
4803,70.0,20,180,1.0,0.0
4804,46.0,60,60,5.0,0.0
4805,50.0,80,60,5.0,0.0
4806,53.0,80,60,5.0,0.0
4807,58.0,80,60,5.0,0.0
4808,62.0,80,60,5.0,0.0
4809,65.0,107,60,5.0,0.0
4810,69.0,80,90,1.0,0.0
4811,72.0,80,90,1.0,0.0
4812,75.0,80,90,1.0,0.0
4813,72.0,80,90,1.0,0.0
4814,69.0,53,90,1.0,0.0
4815,70.0,80,60,1.0,0.0
4816,58.0,20,180,1.0,0.0
4817,77.0,60,60,1.0,0.0
4818,74.0,80,60,1.0,0.0
4819,70.0,80,60,1.0,0.0
4820,65.0,80,60,1.0,0.0
4821,62.0,80,60,1.0,0.0
4822,58.0,80,60,1.0,0.0
4823,34.0,80,60,5.0,0.0
4824,38.0,80,60,5.0,0.0
4825,41.0,80,60,5.0,0.0
4826,46.0,80,60,5.0,0.0
4827,50.0,187,60,5.0,0.0
4828,53.0,47,180,5.0,0.0
4829,57.0,33,90,1.0,0.0
4830,60.0,80,90,1.0,0.0
4831,63.0,80,90,1.0,0.0
4832,60.0,64,90,1.0,0.0
4833,57.0,496,60,1.0,0.0
4834,57.0,240,480,3.0,0.0
4835,53.0,3360,720,3.0,0.0
4836,51.0,0,480,3.0,0.0
4837,34.0,0,720,5.0,0.0
4838,46.0,0,720,5.0,0.0
4839,60.0,0,480,1.0,0.0
4840,50.0,0,240,3.0,0.0
4841,58.0,0,240,1.0,0.0
4842,69.0,240,720,4.0,0.0
4843,77.0,720,960,1.0,0.0
4844,72.0,0,480,3.0,0.0
4845,81.0,306,900,1.0,0.0
4846,65.0,180,720,4.0,0.0
4847,72.0,0,420,3.0,0.0
4848,70.0,192,720,4.0,0.0
4849,81.0,186,240,1.0,0.0
4850,79.0,288,180,1.0,0.0
4851,72.0,720,480,3.0,0.0
4852,79.0,0,240,1.0,0.0
4853,76.0,48,180,1.0,0.0
4854,77.0,186,720,1.0,0.0
4855,69.0,0,720,4.0,0.0
4856,72.0,6,420,3.0,0.0
4857,81.0,288,180,1.0,0.0
4858,81.0,192,240,1.0,0.0
4859,70.0,192,720,4.0,0.0
4860,79.0,288,180,1.0,0.0
4861,79.0,0,240,1.0,0.0
4862,72.0,714,480,3.0,0.0
4863,76.0,54,180,1.0,0.0
4864,77.0,0,720,1.0,0.0
4865,69.0,120,720,4.0,0.0
4866,72.0,72,360,3.0,0.0
4867,81.0,288,180,1.0,0.0
4868,67.0,240,480,4.0,0.0
4869,72.0,12,1860,3.0,0.0
4870,84.0,192,240,1.0,0.0
4871,82.0,48,180,1.0,0.0
4872,64.0,240,480,4.0,0.0
4873,82.0,192,240,1.0,0.0
4874,79.0,48,180,1.0,0.0
4875,65.0,240,480,4.0,0.0
4876,82.0,192,240,1.0,0.0
4877,81.0,48,180,1.0,0.0
4878,81.0,180,240,1.0,0.0
4879,69.0,278,450,4.0,0.0
4880,77.0,10,180,1.0,0.0
4881,70.0,240,480,4.0,0.0
4882,74.0,74,240,1.0,0.0
4883,76.0,82,60,1.0,0.0
4884,74.0,84,90,1.0,0.0
4885,73.0,0,90,1.0,0.0
4886,58.0,0,480,5.0,0.0
4887,74.0,240,240,1.0,0.0
4888,76.0,480,240,1.0,0.0
4889,62.0,480,480,5.0,0.0
4890,77.0,0,480,1.0,0.0
4891,79.0,480,480,1.0,0.0
4892,59.0,0,480,5.0,0.0
4893,65.0,240,960,4.0,0.0
4894,60.0,230,1410,5.0,0.0
4895,72.0,224,1170,1.0,0.0
4896,64.0,240,240,4.0,0.0
4897,62.0,202,240,4.0,0.0
4898,64.0,6,420,4.0,0.0
4899,73.0,10,180,1.0,0.0
4900,74.0,240,180,1.0,0.0
4901,76.0,768,180,1.0,0.0
4902,77.0,720,960,1.0,0.0
4903,69.0,240,720,4.0,0.0
4904,72.0,0,480,3.0,0.0
4905,65.0,186,720,4.0,0.0
4906,81.0,294,900,1.0,0.0
4907,72.0,0,420,3.0,0.0
4908,81.0,192,240,1.0,0.0
4909,70.0,192,720,4.0,0.0
4910,79.0,288,180,1.0,0.0
4911,72.0,720,480,3.0,0.0
4912,79.0,0,240,1.0,0.0
4913,76.0,48,180,1.0,0.0
4914,77.0,186,720,1.0,0.0
4915,69.0,0,720,4.0,0.0
4916,72.0,6,420,3.0,0.0
4917,81.0,288,180,1.0,0.0
4918,70.0,192,720,4.0,0.0
4919,81.0,192,240,1.0,0.0
4920,79.0,288,180,1.0,0.0
4921,79.0,0,240,1.0,0.0
4922,72.0,720,480,3.0,0.0
4923,76.0,48,180,1.0,0.0
4924,69.0,0,720,4.0,0.0
4925,77.0,186,720,1.0,0.0
4926,72.0,6,420,3.0,0.0
4927,81.0,288,180,1.0,0.0
4928,67.0,240,480,4.0,0.0
4929,72.0,6,1860,3.0,0.0
4930,84.0,192,240,1.0,0.0
4931,82.0,48,180,1.0,0.0
4932,82.0,192,240,1.0,0.0
4933,64.0,240,480,4.0,0.0
4934,79.0,48,180,1.0,0.0
4935,65.0,240,480,4.0,0.0
4936,82.0,192,240,1.0,0.0
4937,81.0,48,180,1.0,0.0
4938,62.0,0,420,4.0,0.0
4939,81.0,186,240,1.0,0.0
4940,77.0,288,180,1.0,0.0
4941,74.0,74,240,1.0,0.0
4942,58.0,0,960,5.0,0.0
4943,76.0,82,60,1.0,0.0
4944,74.0,84,90,1.0,0.0
4945,73.0,240,90,1.0,0.0
4946,74.0,240,240,1.0,0.0
4947,70.0,246,480,4.0,0.0
4948,79.0,0,240,1.0,0.0
4949,77.0,234,240,1.0,0.0
4950,60.0,14,720,5.0,0.0
4951,69.0,232,480,4.0,0.0
4952,70.0,8,240,2.0,0.0
4953,67.0,600,360,4.0,0.0
4954,76.0,106,240,1.0,0.0
4955,65.0,480,480,5.0,0.0
4956,70.0,14,960,2.0,0.0
4957,76.0,406,960,1.0,0.0
4958,60.0,0,480,5.0,0.0
4959,77.0,0,420,1.0,0.0
4960,69.0,1246,420,2.0,0.0
4961,53.0,14,420,5.0,0.0
4962,79.0,720,960,1.0,0.0
4963,64.0,180,720,4.0,0.0
4964,72.0,60,420,3.0,0.0
4965,81.0,0,900,1.0,0.0
4966,65.0,180,720,4.0,0.0
4967,72.0,306,420,3.0,0.0
4968,79.0,186,240,1.0,0.0
4969,67.0,0,720,4.0,0.0
4970,77.0,288,180,1.0,0.0
4971,71.0,720,480,3.0,0.0
4972,77.0,192,240,1.0,0.0
4973,76.0,48,180,1.0,0.0
4974,69.0,186,720,4.0,0.0
4975,76.0,0,900,1.0,0.0
4976,72.0,774,420,3.0,0.0
4977,79.0,0,720,1.0,0.0
4978,64.0,192,720,4.0,0.0
4979,72.0,246,480,3.0,0.0
4980,84.0,48,180,1.0,0.0
4981,65.0,134,720,4.0,0.0
4982,83.0,174,240,1.0,0.0
4983,81.0,300,180,1.0,0.0
4984,72.0,300,420,3.0,0.0
4985,81.0,46,120,1.0,0.0
4986,67.0,126,720,4.0,0.0
4987,79.0,180,240,1.0,0.0
4988,77.0,300,180,1.0,0.0
4989,71.0,234,480,3.0,0.0
4990,77.0,120,120,1.0,0.0
4991,75.0,180,240,1.0,0.0
4992,69.0,134,720,4.0,0.0
4993,76.0,300,180,1.0,0.0
4994,72.0,300,420,3.0,0.0
4995,76.0,46,120,1.0,0.0
4996,65.0,126,960,4.0,0.0
4997,69.0,0,960,3.0,0.0
4998,74.0,82,240,1.0,0.0
4999,76.0,83,90,1.0,0.0
5000,74.0,75,90,1.0,0.0
5001,73.0,120,90,1.0,0.0
5002,74.0,246,120,1.0,0.0
5003,76.0,114,120,1.0,0.0
5004,77.0,240,120,1.0,0.0
5005,79.0,248,120,1.0,0.0
5006,80.0,232,120,1.0,0.0
5007,81.0,834,120,1.0,0.0
5008,55.0,0,1380,5.0,0.0
5009,64.0,0,960,4.0,0.0
5010,72.0,120,720,1.0,0.0
5011,74.0,120,120,1.0,0.0
5012,72.0,240,120,1.0,0.0
5013,62.0,174,420,4.0,0.0
5014,71.0,134,240,1.0,0.0
5015,72.0,52,120,1.0,0.0
5016,74.0,246,120,1.0,0.0
5017,76.0,834,120,1.0,0.0
5018,77.0,720,960,1.0,0.0
5019,57.0,240,720,4.0,0.0
5020,60.0,0,480,3.0,0.0
5021,55.0,180,720,4.0,0.0
5022,76.0,194,900,1.0,0.0
5023,60.0,0,420,3.0,0.0
5024,55.0,60,720,4.0,0.0
5025,53.0,426,960,5.0,0.0
5026,74.0,166,120,1.0,0.0
5027,76.0,134,120,1.0,0.0
5028,77.0,172,120,1.0,0.0
5029,79.0,114,120,1.0,0.0
5030,62.0,0,480,3.0,0.0
5031,81.0,120,120,1.0,0.0
5032,83.0,60,120,1.0,0.0
5033,52.0,294,900,5.0,0.0
5034,55.0,180,720,4.0,0.0
5035,84.0,294,420,1.0,0.0
5036,60.0,6,420,3.0,0.0
5037,79.0,240,240,1.0,0.0
5038,57.0,120,720,4.0,0.0
5039,77.0,240,240,1.0,0.0
5040,60.0,240,480,3.0,0.0
5041,77.0,120,120,1.0,0.0
5042,77.0,180,240,1.0,0.0
5043,55.0,240,720,4.0,0.0
5044,76.0,300,180,1.0,0.0
5045,60.0,120,480,3.0,0.0
5046,76.0,0,240,1.0,0.0
5047,53.0,480,960,5.0,0.0
5048,55.0,0,720,4.0,0.0
5049,74.0,120,120,1.0,0.0
5050,76.0,120,120,1.0,0.0
5051,77.0,120,120,1.0,0.0
5052,78.0,120,120,1.0,0.0
5053,62.0,0,480,3.0,0.0
5054,79.0,120,120,1.0,0.0
5055,80.0,120,120,1.0,0.0
5056,81.0,120,120,1.0,0.0
5057,83.0,0,120,1.0,0.0
5058,84.0,240,480,1.0,0.0
5059,52.0,6,900,5.0,0.0
5060,55.0,180,720,4.0,0.0
5061,60.0,414,420,3.0,0.0
5062,84.0,96,360,1.0,0.0
5063,81.0,444,90,1.0,0.0
5064,78.0,426,960,1.0,0.0
5065,69.0,0,420,5.0,0.0
5066,72.0,540,420,4.0,0.0
5067,69.0,0,480,5.0,0.0
5068,72.0,0,480,4.0,0.0
5069,67.0,0,420,5.0,0.0
5070,71.0,412,420,4.0,0.0
5071,79.0,8,420,1.0,0.0
5072,81.0,90,360,1.0,0.0
5073,77.0,444,90,1.0,0.0
5074,59.0,540,420,5.0,0.0
5075,65.0,0,420,4.0,0.0
5076,67.0,0,420,4.0,0.0
5077,74.0,0,960,1.0,0.0
5078,65.0,420,480,4.0,0.0
5079,67.0,0,480,4.0,0.0
5080,59.0,0,480,5.0,0.0
5081,76.0,8,420,1.0,0.0
5082,64.0,286,420,4.0,0.0
5083,67.0,6,420,4.0,0.0
5084,60.0,0,420,5.0,0.0
5085,60.0,6,1200,4.0,0.0
5086,65.0,0,960,4.0,0.0
5087,57.0,240,960,5.0,0.0
5088,77.0,120,240,1.0,0.0
5089,79.0,134,120,1.0,0.0
5090,81.0,120,120,1.0,0.0
5091,79.0,106,120,1.0,0.0
5092,77.0,120,120,1.0,0.0
5093,76.0,120,120,1.0,0.0
5094,74.0,0,120,1.0,0.0
5095,55.0,474,240,5.0,0.0
5096,64.0,0,240,4.0,0.0
5097,72.0,0,240,1.0,0.0
5098,74.0,6,240,1.0,0.0
5099,59.0,720,240,4.0,0.0
5100,55.0,0,240,5.0,0.0
5101,71.0,0,960,2.0,0.0
5102,74.0,240,720,1.0,0.0
5103,60.0,234,480,5.0,0.0
5104,55.0,6,480,5.0,0.0
5105,75.0,420,240,1.0,0.0
5106,52.0,360,480,5.0,0.0
5107,72.0,0,420,2.0,0.0
5108,76.0,54,420,1.0,0.0
5109,48.0,240,360,5.0,0.0
5110,84.0,120,120,1.0,0.0
5111,83.0,120,120,1.0,0.0
5112,84.0,96,120,1.0,0.0
5113,81.0,384,90,1.0,0.0
5114,72.0,0,360,4.0,0.0
5115,62.0,0,360,5.0,0.0
5116,78.0,0,960,1.0,0.0
5117,69.0,600,360,4.0,0.0
5118,62.0,234,480,5.0,0.0
5119,72.0,0,480,4.0,0.0
5120,69.0,6,480,4.0,0.0
5121,67.0,174,420,5.0,0.0
5122,71.0,0,420,4.0,0.0
5123,79.0,180,240,1.0,0.0
5124,80.0,6,180,1.0,0.0
5125,81.0,120,120,1.0,0.0
5126,80.0,120,120,1.0,0.0
5127,81.0,96,120,1.0,0.0
5128,77.0,444,90,1.0,0.0
5129,74.0,240,720,1.0,0.0
5130,59.0,0,420,4.0,0.0
5131,65.0,300,420,4.0,0.0
5132,55.0,0,420,5.0,0.0
5133,55.0,120,480,5.0,0.0
5134,59.0,0,480,4.0,0.0
5135,65.0,0,480,4.0,0.0
5136,75.0,0,240,1.0,0.0
5137,76.0,120,120,1.0,0.0
5138,64.0,30,420,4.0,0.0
5139,60.0,0,420,5.0,0.0
5140,77.0,120,120,1.0,0.0
5141,78.0,66,120,1.0,0.0
5142,79.0,264,90,1.0,0.0
5143,80.0,192,240,1.0,0.0
5144,81.0,168,180,1.0,0.0
5145,53.0,0,420,5.0,0.0
5146,62.0,36,420,4.0,0.0
5147,79.0,120,120,1.0,0.0
5148,57.0,0,420,4.0,0.0
5149,77.0,120,120,1.0,0.0
5150,76.0,60,120,1.0,0.0
5151,74.0,264,90,1.0,0.0
5152,72.0,60,240,1.0,0.0
5153,55.0,426,960,5.0,0.0
5154,60.0,0,420,4.0,0.0
5155,64.0,60,420,4.0,0.0
5156,76.0,60,60,1.0,0.0
5157,74.0,60,60,1.0,0.0
5158,72.0,0,60,1.0,0.0
5159,74.0,240,60,1.0,0.0
5160,76.0,240,240,1.0,0.0
5161,65.0,0,480,4.0,0.0
5162,59.0,0,480,4.0,0.0
5163,74.0,0,240,1.0,0.0
5164,64.0,14,1860,3.0,0.0
5165,60.0,120,720,4.0,0.0
5166,72.0,294,420,1.0,0.0
5167,55.0,0,480,3.0,0.0
5168,72.0,120,120,1.0,0.0
5169,71.0,120,120,1.0,0.0
5170,74.0,120,120,1.0,0.0
5171,60.0,0,720,4.0,0.0
5172,72.0,120,120,1.0,0.0
5173,76.0,120,120,1.0,0.0
5174,74.0,120,120,1.0,0.0
5175,55.0,30,420,3.0,0.0
5176,77.0,120,120,1.0,0.0
5177,76.0,120,120,1.0,0.0
5178,79.0,60,120,1.0,0.0
5179,77.0,256,90,1.0,0.0
5180,81.0,180,240,1.0,0.0
5181,59.0,240,720,4.0,0.0
5182,65.0,286,1860,3.0,0.0
5183,79.0,300,180,1.0,0.0
5184,55.0,180,480,3.0,0.0
5185,79.0,240,660,1.0,0.0
5186,59.0,186,720,4.0,0.0
5187,78.0,246,180,1.0,0.0
5188,55.0,8,420,3.0,0.0
5189,77.0,54,180,1.0,0.0
5190,74.0,0,180,1.0,0.0
5191,64.0,6,1860,3.0,0.0
5192,71.0,186,240,1.0,0.0
5193,60.0,120,720,4.0,0.0
5194,72.0,294,180,1.0,0.0
5195,55.0,0,360,3.0,0.0
5196,72.0,120,120,1.0,0.0
5197,71.0,120,120,1.0,0.0
5198,74.0,120,120,1.0,0.0
5199,60.0,0,720,4.0,0.0
5200,72.0,120,120,1.0,0.0
5201,76.0,120,120,1.0,0.0
5202,74.0,120,120,1.0,0.0
5203,77.0,120,120,1.0,0.0
5204,55.0,24,420,3.0,0.0
5205,76.0,120,120,1.0,0.0
5206,79.0,60,120,1.0,0.0
5207,77.0,270,90,1.0,0.0
5208,65.0,286,1860,3.0,0.0
5209,59.0,180,720,4.0,0.0
5210,81.0,180,240,1.0,0.0
5211,79.0,300,180,1.0,0.0
5212,79.0,218,750,1.0,0.0
5213,55.0,322,420,3.0,0.0
5214,59.0,0,720,4.0,0.0
5215,78.0,240,240,1.0,0.0
5216,55.0,0,420,3.0,0.0
5217,77.0,180,240,1.0,0.0
5218,74.0,14,180,1.0,0.0
5219,64.0,6,420,3.0,0.0
5220,71.0,180,240,1.0,0.0
5221,60.0,0,420,4.0,0.0
5222,72.0,414,180,1.0,0.0
5223,48.0,54,420,4.0,0.0
5224,72.0,66,120,1.0,0.0
5225,71.0,120,120,1.0,0.0
5226,74.0,120,120,1.0,0.0
5227,72.0,120,120,1.0,0.0
5228,76.0,120,120,1.0,0.0
5229,74.0,120,120,1.0,0.0
5230,77.0,120,120,1.0,0.0
5231,76.0,120,120,1.0,0.0
5232,79.0,96,120,1.0,0.0
5233,77.0,264,90,1.0,0.0
5234,81.0,180,240,1.0,0.0
5235,79.0,420,180,1.0,0.0
5236,60.0,54,420,5.0,0.0
5237,64.0,6,420,4.0,0.0
5238,76.0,60,120,1.0,0.0
5239,74.0,120,120,1.0,0.0
5240,77.0,120,120,1.0,0.0
5241,76.0,120,120,1.0,0.0
5242,79.0,120,120,1.0,0.0
5243,77.0,120,120,1.0,0.0
5244,81.0,120,120,1.0,0.0
5245,79.0,120,120,1.0,0.0
5246,82.0,104,120,1.0,0.0
5247,81.0,256,90,1.0,0.0
5248,84.0,180,240,1.0,0.0
5249,82.0,420,180,1.0,0.0
5250,60.0,8,420,5.0,0.0
5251,64.0,46,420,4.0,0.0
5252,67.0,6,420,4.0,0.0
5253,79.0,60,120,1.0,0.0
5254,78.0,120,120,1.0,0.0
5255,81.0,120,120,1.0,0.0
5256,79.0,120,120,1.0,0.0
5257,82.0,120,120,1.0,0.0
5258,81.0,120,120,1.0,0.0
5259,84.0,120,120,1.0,0.0
5260,82.0,120,120,1.0,0.0
5261,86.0,90,120,1.0,0.0
5262,84.0,270,90,1.0,0.0
5263,87.0,180,240,1.0,0.0
5264,86.0,240,180,1.0,0.0
5265,85.0,246,180,1.0,0.0
5266,84.0,248,180,1.0,0.0
5267,83.0,226,180,1.0,0.0
5268,82.0,246,180,1.0,0.0
5269,81.0,240,180,1.0,0.0
5270,80.0,354,180,1.0,0.0
5271,67.0,6,1860,4.0,0.0
5272,64.0,0,1860,4.0,0.0
5273,60.0,8,1860,5.0,0.0
5274,79.0,60,300,1.0,0.0
5275,70.0,0,1860,4.0,0.0
5276,81.0,60,60,1.0,0.0
5277,79.0,60,60,1.0,0.0
5278,78.0,120,60,1.0,0.0
5279,79.0,240,120,1.0,0.0
5280,81.0,360,120,1.0,0.0
5281,84.0,232,240,1.0,0.0
5282,82.0,262,240,1.0,0.0
5283,79.0,166,240,1.0,0.0
5284,76.0,766,180,1.0,0.0
5285,69.0,0,720,4.0,0.0
5286,77.0,82,720,1.0,0.0
5287,72.0,720,480,3.0,0.0
5288,79.0,52,90,1.0,0.0
5289,77.0,46,60,1.0,0.0
5290,76.0,60,60,1.0,0.0
5291,77.0,0,60,1.0,0.0
5292,81.0,306,900,1.0,0.0
5293,65.0,180,720,4.0,0.0
5294,72.0,0,420,3.0,0.0
5295,70.0,0,720,4.0,0.0
5296,81.0,174,240,1.0,0.0
5297,79.0,300,180,1.0,0.0
5298,72.0,720,480,3.0,0.0
5299,79.0,180,240,1.0,0.0
5300,76.0,60,180,1.0,0.0
5301,69.0,186,720,4.0,0.0
5302,77.0,0,720,1.0,0.0
5303,72.0,0,420,3.0,0.0
5304,81.0,294,180,1.0,0.0
5305,78.0,240,240,1.0,0.0
5306,70.0,186,720,4.0,0.0
5307,79.0,240,240,1.0,0.0
5308,82.0,0,240,1.0,0.0
5309,72.0,240,480,3.0,0.0
5310,76.0,54,180,1.0,0.0
5311,69.0,186,720,4.0,0.0
5312,79.0,434,240,1.0,0.0
5313,77.0,46,420,1.0,0.0
5314,72.0,286,420,3.0,0.0
5315,81.0,8,180,1.0,0.0
5316,72.0,14,1860,3.0,0.0
5317,84.0,195,240,1.0,0.0
5318,67.0,240,480,4.0,0.0
5319,83.0,45,180,1.0,0.0
5320,64.0,226,480,4.0,0.0
5321,82.0,192,240,1.0,0.0
5322,79.0,62,180,1.0,0.0
5323,65.0,240,480,4.0,0.0
5324,82.0,202,240,1.0,0.0
5325,80.0,38,210,1.0,0.0
5326,81.0,172,240,1.0,0.0
5327,69.0,6,420,4.0,0.0
5328,77.0,294,180,1.0,0.0
5329,70.0,8,480,4.0,0.0
5330,74.0,76,240,1.0,0.0
5331,76.0,82,90,1.0,0.0
5332,74.0,82,90,1.0,0.0
5333,73.0,226,90,1.0,0.0
5334,74.0,134,240,1.0,0.0
5335,58.0,240,480,5.0,0.0
5336,76.0,106,120,1.0,0.0
5337,62.0,0,480,5.0,0.0
5338,77.0,240,240,1.0,0.0
5339,78.0,240,240,1.0,0.0
5340,59.0,494,480,5.0,0.0
5341,81.0,194,240,1.0,0.0
5342,65.0,346,960,4.0,0.0
5343,79.0,46,180,1.0,0.0
5344,72.0,98,1230,1.0,0.0
5345,60.0,0,1380,5.0,0.0
5346,64.0,134,360,4.0,0.0
5347,62.0,248,120,4.0,0.0
5348,64.0,60,420,4.0,0.0
5349,74.0,60,120,1.0,0.0
5350,73.0,120,120,1.0,0.0
5351,76.0,120,120,1.0,0.0
5352,74.0,120,120,1.0,0.0
5353,77.0,96,120,1.0,0.0
5354,76.0,150,90,1.0,0.0
5355,79.0,594,120,1.0,0.0
5356,69.0,14,720,4.0,0.0
5357,77.0,60,600,1.0,0.0
5358,72.0,0,480,3.0,0.0
5359,79.0,46,60,1.0,0.0
5360,77.0,75,60,1.0,0.0
5361,76.0,45,60,1.0,0.0
5362,77.0,720,60,1.0,0.0
5363,81.0,0,900,1.0,0.0
5364,65.0,180,720,4.0,0.0
5365,72.0,300,420,3.0,0.0
5366,70.0,194,720,4.0,0.0
5367,79.0,240,240,1.0,0.0
5368,82.0,240,240,1.0,0.0
5369,76.0,0,240,1.0,0.0
5370,72.0,720,480,3.0,0.0
5371,79.0,46,180,1.0,0.0
5372,69.0,7,720,4.0,0.0
5373,77.0,173,720,1.0,0.0
5374,72.0,188,420,3.0,0.0
5375,81.0,6,180,1.0,0.0
5376,79.0,106,120,1.0,0.0
5377,70.0,6,720,4.0,0.0
5378,81.0,126,120,1.0,0.0
5379,82.0,114,120,1.0,0.0
5380,79.0,120,120,1.0,0.0
5381,76.0,120,120,1.0,0.0
5382,72.0,720,480,3.0,0.0
5383,77.0,114,120,1.0,0.0
5384,79.0,120,120,1.0,0.0
5385,76.0,0,120,1.0,0.0
5386,77.0,0,720,1.0,0.0
5387,69.0,180,720,4.0,0.0
5388,72.0,294,420,3.0,0.0
5389,81.0,6,180,1.0,0.0
5390,84.0,240,240,1.0,0.0
5391,72.0,180,1500,3.0,0.0
5392,67.0,226,480,4.0,0.0
5393,83.0,14,240,1.0,0.0
5394,82.0,186,240,1.0,0.0
5395,64.0,240,480,4.0,0.0
5396,79.0,54,180,1.0,0.0
5397,82.0,240,240,1.0,0.0
5398,65.0,60,480,4.0,0.0
5399,80.0,0,240,1.0,0.0
5400,81.0,180,240,1.0,0.0
5401,62.0,354,420,4.0,0.0
5402,77.0,6,180,1.0,0.0
5403,74.0,60,300,1.0,0.0
5404,58.0,0,960,5.0,0.0
5405,76.0,60,60,1.0,0.0
5406,74.0,60,60,1.0,0.0
5407,73.0,240,60,1.0,0.0
5408,70.0,246,480,4.0,0.0
5409,74.0,126,240,1.0,0.0
5410,79.0,114,120,1.0,0.0
5411,77.0,234,240,1.0,0.0
5412,60.0,6,900,5.0,0.0
5413,69.0,240,480,4.0,0.0
5414,67.0,534,420,4.0,0.0
5415,70.0,6,240,2.0,0.0
5416,76.0,174,240,1.0,0.0
5417,76.0,8,960,1.0,0.0
5418,70.0,412,960,2.0,0.0
5419,65.0,480,480,5.0,0.0
5420,60.0,6,480,5.0,0.0
5421,77.0,1006,420,1.0,0.0
5422,53.0,8,420,5.0,0.0
5423,69.0,0,420,2.0,0.0
5424,69.0,244,480,2.0,0.0
5425,53.0,0,930,4.0,0.0
5426,57.0,0,930,4.0,0.0
5427,62.0,0,930,4.0,0.0
5428,50.0,20,930,5.0,0.0
5429,74.0,0,450,2.0,0.0
5430,77.0,0,420,2.0,0.0
5431,81.0,80,630,1.0,0.0
5432,79.0,80,90,1.0,0.0
5433,77.0,50,90,1.0,0.0
5434,76.0,198,60,1.0,0.0
5435,74.0,240,180,1.0,0.0
5436,65.0,0,180,4.0,0.0
5437,74.0,0,180,1.0,0.0
5438,62.0,0,180,5.0,0.0
5439,69.0,240,180,4.0,0.0
5440,69.0,240,180,4.0,0.0
5441,62.0,0,180,5.0,0.0
5442,65.0,0,180,4.0,0.0
5443,74.0,0,180,1.0,0.0
5444,62.0,288,180,5.0,0.0
5445,65.0,0,180,4.0,0.0
5446,69.0,0,180,4.0,0.0
5447,74.0,0,180,1.0,0.0
5448,67.0,480,240,4.0,0.0
5449,73.0,0,240,1.0,0.0
5450,64.0,0,240,5.0,0.0
5451,69.0,0,240,4.0,0.0
5452,65.0,0,240,4.0,0.0
5453,62.0,0,240,5.0,0.0
5454,74.0,480,240,1.0,0.0
5455,69.0,0,240,4.0,0.0
5456,61.0,1185,240,5.0,0.0
5457,64.0,0,240,4.0,0.0
5458,76.0,0,240,1.0,0.0
5459,69.0,0,240,4.0,0.0
5460,55.0,4,930,5.0,0.0
5461,58.0,0,930,4.0,0.0
5462,64.0,10,930,4.0,0.0
5463,61.0,10,930,4.0,0.0
5464,73.0,230,480,2.0,0.0
5465,76.0,7,420,2.0,0.0
5466,79.0,8,420,2.0,0.0
5467,82.0,94,630,1.0,0.0
5468,81.0,76,90,1.0,0.0
5469,79.0,40,90,1.0,0.0
5470,77.0,196,60,1.0,0.0
5471,76.0,252,180,1.0,0.0
5472,70.0,0,180,4.0,0.0
5473,76.0,0,180,1.0,0.0
5474,73.0,0,180,2.0,0.0
5475,67.0,240,180,5.0,0.0
5476,70.0,240,180,4.0,0.0
5477,73.0,0,180,2.0,0.0
5478,76.0,0,180,1.0,0.0
5479,67.0,0,180,5.0,0.0
5480,67.0,0,180,5.0,0.0
5481,76.0,0,180,1.0,0.0
5482,73.0,0,180,2.0,0.0
5483,70.0,288,180,4.0,0.0
5484,69.0,0,240,4.0,0.0
5485,74.0,0,240,1.0,0.0
5486,65.0,480,240,5.0,0.0
5487,73.0,0,240,2.0,0.0
5488,67.0,480,240,4.0,0.0
5489,76.0,0,240,1.0,0.0
5490,64.0,0,240,5.0,0.0
5491,62.0,0,240,5.0,0.0
5492,77.0,0,240,1.0,0.0
5493,65.0,0,240,4.0,0.0
5494,74.0,960,240,2.0,0.0
5495,67.0,192,720,4.0,0.0
5496,77.0,192,240,1.0,0.0
5497,76.0,288,180,1.0,0.0
5498,76.0,0,240,1.0,0.0
5499,69.0,720,480,3.0,0.0
5500,73.0,48,180,1.0,0.0
5501,65.0,192,720,4.0,0.0
5502,74.0,0,720,1.0,0.0
5503,69.0,286,420,3.0,0.0
5504,77.0,2,180,1.0,0.0
5505,77.0,192,240,1.0,0.0
5506,67.0,0,720,4.0,0.0
5507,76.0,288,180,1.0,0.0
5508,79.0,192,240,1.0,0.0
5509,69.0,240,480,3.0,0.0
5510,73.0,48,180,1.0,0.0
5511,76.0,434,240,1.0,0.0
5512,65.0,192,720,4.0,0.0
5513,74.0,46,420,1.0,0.0
5514,77.0,48,180,1.0,0.0
5515,81.0,218,270,1.0,0.0
5516,64.0,0,480,4.0,0.0
5517,69.0,262,15,3.0,0.0
5518,80.0,240,240,1.0,0.0
5519,79.0,192,240,1.0,0.0
5520,61.0,240,480,4.0,0.0
5521,76.0,48,180,1.0,0.0
5522,62.0,0,480,4.0,0.0
5523,79.0,240,240,1.0,0.0
5524,78.0,6,240,1.0,0.0
5525,68.0,0,480,3.0,0.0
5526,77.0,192,240,1.0,0.0
5527,58.0,240,480,4.0,0.0
5528,74.0,48,180,1.0,0.0
5529,73.0,180,240,1.0,0.0
5530,69.0,8,420,3.0,0.0
5531,57.0,166,420,4.0,0.0
5532,76.0,6,180,1.0,0.0
5533,76.0,240,120,1.0,0.0
5534,76.0,360,120,1.0,0.0
5535,76.0,180,240,1.0,0.0
5536,81.0,180,180,1.0,0.0
5537,81.0,240,120,1.0,0.0
5538,81.0,600,120,1.0,0.0
5539,50.0,186,960,5.0,0.0
5540,53.0,6,930,4.0,0.0
5541,57.0,0,930,4.0,0.0
5542,62.0,4,930,4.0,0.0
5543,69.0,0,480,2.0,0.0
5544,74.0,165,450,2.0,0.0
5545,77.0,15,390,2.0,0.0
5546,81.0,140,540,1.0,0.0
5547,79.0,84,90,1.0,0.0
5548,77.0,56,90,1.0,0.0
5549,76.0,4,60,1.0,0.0
5550,74.0,252,180,1.0,0.0
5551,65.0,0,180,4.0,0.0
5552,69.0,0,180,4.0,0.0
5553,74.0,0,180,1.0,0.0
5554,62.0,240,180,5.0,0.0
5555,74.0,0,180,1.0,0.0
5556,69.0,240,180,4.0,0.0
5557,65.0,0,180,4.0,0.0
5558,62.0,0,180,5.0,0.0
5559,74.0,288,180,1.0,0.0
5560,62.0,0,180,5.0,0.0
5561,69.0,0,180,4.0,0.0
5562,65.0,0,180,4.0,0.0
5563,67.0,480,240,4.0,0.0
5564,69.0,0,240,4.0,0.0
5565,73.0,0,240,1.0,0.0
5566,64.0,0,240,5.0,0.0
5567,62.0,0,240,5.0,0.0
5568,65.0,0,240,4.0,0.0
5569,69.0,480,240,4.0,0.0
5570,74.0,0,240,1.0,0.0
5571,76.0,0,240,1.0,0.0
5572,69.0,1192,240,4.0,0.0
5573,61.0,0,240,5.0,0.0
5574,64.0,0,240,4.0,0.0
5575,73.0,15,480,2.0,0.0
5576,58.0,0,930,4.0,0.0
5577,61.0,0,930,4.0,0.0
5578,64.0,4,930,4.0,0.0
5579,55.0,6,930,5.0,0.0
5580,76.0,8,420,2.0,0.0
5581,79.0,239,420,2.0,0.0
5582,82.0,66,600,1.0,0.0
5583,81.0,84,90,1.0,0.0
5584,79.0,56,90,1.0,0.0
5585,77.0,202,60,1.0,0.0
5586,76.0,240,180,1.0,0.0
5587,67.0,0,180,5.0,0.0
5588,76.0,0,180,1.0,0.0
5589,73.0,240,180,2.0,0.0
5590,70.0,0,180,4.0,0.0
5591,76.0,0,180,1.0,0.0
5592,67.0,240,180,5.0,0.0
5593,70.0,0,180,4.0,0.0
5594,73.0,0,180,2.0,0.0
5595,67.0,0,180,5.0,0.0
5596,73.0,288,180,2.0,0.0
5597,70.0,0,180,4.0,0.0
5598,76.0,0,180,1.0,0.0
5599,69.0,0,240,4.0,0.0
5600,65.0,0,240,5.0,0.0
5601,74.0,480,240,1.0,0.0
5602,64.0,0,240,5.0,0.0
5603,67.0,0,240,4.0,0.0
5604,76.0,0,240,1.0,0.0
5605,73.0,480,240,2.0,0.0
5606,77.0,960,240,1.0,0.0
5607,74.0,0,240,2.0,0.0
5608,62.0,0,240,5.0,0.0
5609,65.0,0,240,4.0,0.0
5610,75.0,74,240,1.0,0.0
5611,55.0,126,720,4.0,0.0
5612,77.0,46,60,1.0,0.0
5613,75.0,60,60,1.0,0.0
5614,74.0,60,60,1.0,0.0
5615,75.0,134,60,1.0,0.0
5616,79.0,106,120,1.0,0.0
5617,58.0,240,480,3.0,0.0
5618,73.0,114,120,1.0,0.0
5619,76.0,426,240,1.0,0.0
5620,53.0,194,720,4.0,0.0
5621,74.0,54,420,1.0,0.0
5622,57.0,166,420,3.0,0.0
5623,77.0,0,180,1.0,0.0
5624,55.0,120,720,4.0,0.0
5625,75.0,120,120,1.0,0.0
5626,77.0,120,120,1.0,0.0
5627,79.0,120,120,1.0,0.0
5628,81.0,120,120,1.0,0.0
5629,82.0,120,120,1.0,0.0
5630,58.0,240,480,3.0,0.0
5631,79.0,0,120,1.0,0.0
5632,76.0,96,120,1.0,0.0
5633,73.0,24,90,1.0,0.0
5634,53.0,232,900,5.0,0.0
5635,57.0,194,480,3.0,0.0
5636,74.0,240,240,1.0,0.0
5637,86.0,218,420,1.0,0.0
5638,62.0,22,420,3.0,0.0
5639,77.0,294,420,1.0,0.0
5640,58.0,240,480,3.0,0.0
5641,55.0,0,960,5.0,0.0
5642,76.0,240,480,1.0,0.0
5643,67.0,254,480,3.0,0.0
5644,82.0,226,480,1.0,0.0
5645,57.0,1246,900,5.0,0.0
5646,65.0,240,480,3.0,0.0
5647,81.0,180,480,1.0,0.0
5648,64.0,0,420,3.0,0.0
5649,73.0,14,180,1.0,0.0
5650,67.0,240,1920,4.0,0.0
5651,73.0,60,1200,1.0,0.0
5652,38.0,0,2400,5.0,0.0
5653,50.0,0,2400,5.0,0.0
5654,74.0,60,60,1.0,0.0
5655,73.0,60,60,1.0,0.0
5656,71.0,60,60,1.0,0.0
5657,73.0,360,60,1.0,0.0
5658,76.0,96,360,1.0,0.0
5659,74.0,24,90,1.0,0.0
5660,65.0,0,480,4.0,0.0
5661,74.0,60,240,1.0,0.0
5662,76.0,60,60,1.0,0.0
5663,74.0,60,60,1.0,0.0
5664,73.0,60,60,1.0,0.0
5665,76.0,360,60,1.0,0.0
5666,77.0,104,360,1.0,0.0
5667,75.0,256,90,1.0,0.0
5668,75.0,60,240,1.0,0.0
5669,77.0,60,60,1.0,0.0
5670,75.0,60,60,1.0,0.0
5671,74.0,60,60,1.0,0.0
5672,75.0,360,60,1.0,0.0
5673,79.0,90,360,1.0,0.0
5674,77.0,510,90,1.0,0.0
5675,77.0,180,1200,1.0,0.0
5676,58.0,0,720,4.0,0.0
5677,65.0,240,240,3.0,0.0
5678,62.0,240,240,3.0,0.0
5679,65.0,240,240,3.0,0.0
5680,58.0,194,720,4.0,0.0
5681,82.0,240,240,1.0,0.0
5682,65.0,60,180,3.0,0.0
5683,62.0,0,240,3.0,0.0
5684,77.0,0,240,1.0,0.0
5685,65.0,0,180,3.0,0.0
5686,74.0,166,180,1.0,0.0
5687,75.0,120,120,1.0,0.0
5688,60.0,0,720,4.0,0.0
5689,77.0,120,120,1.0,0.0
5690,65.0,60,180,3.0,0.0
5691,79.0,60,120,1.0,0.0
5692,77.0,120,120,1.0,0.0
5693,75.0,60,120,1.0,0.0
5694,63.0,60,180,3.0,0.0
5695,74.0,120,120,1.0,0.0
5696,72.0,120,120,1.0,0.0
5697,65.0,0,240,3.0,0.0
5698,70.0,426,120,1.0,0.0
5699,53.0,0,720,4.0,0.0
5700,69.0,54,420,1.0,0.0
5701,65.0,240,240,3.0,0.0
5702,63.0,186,240,3.0,0.0
5703,65.0,294,180,3.0,0.0
5704,70.0,120,240,1.0,0.0
5705,58.0,0,720,4.0,0.0
5706,72.0,120,120,1.0,0.0
5707,65.0,0,240,3.0,0.0
5708,74.0,120,120,1.0,0.0
5709,62.0,120,240,3.0,0.0
5710,75.0,120,120,1.0,0.0
5711,77.0,0,120,1.0,0.0
5712,79.0,60,120,1.0,0.0
5713,65.0,60,180,3.0,0.0
5714,81.0,120,120,1.0,0.0
5715,58.0,0,720,4.0,0.0
5716,82.0,120,120,1.0,0.0
5717,84.0,120,120,1.0,0.0
5718,65.0,0,240,3.0,0.0
5719,86.0,120,120,1.0,0.0
5720,81.0,120,120,1.0,0.0
5721,82.0,120,120,1.0,0.0
5722,62.0,120,240,3.0,0.0
5723,77.0,0,120,1.0,0.0
5724,79.0,74,120,1.0,0.0
5725,65.0,22,180,3.0,0.0
5726,74.0,144,90,1.0,0.0
5727,60.0,0,720,4.0,0.0
5728,75.0,120,120,1.0,0.0
5729,77.0,120,120,1.0,0.0
5730,79.0,60,120,1.0,0.0
5731,65.0,60,180,3.0,0.0
5732,77.0,120,120,1.0,0.0
5733,63.0,0,240,3.0,0.0
5734,75.0,120,120,1.0,0.0
5735,74.0,120,120,1.0,0.0
5736,65.0,426,240,3.0,0.0
5737,72.0,120,120,1.0,0.0
5738,70.0,0,120,1.0,0.0
5739,69.0,54,420,1.0,0.0
5740,53.0,186,720,4.0,0.0
5741,65.0,240,240,3.0,0.0
5742,63.0,0,240,3.0,0.0
5743,65.0,294,180,3.0,0.0
5744,58.0,120,720,4.0,0.0
5745,70.0,120,240,1.0,0.0
5746,65.0,0,240,3.0,0.0
5747,72.0,120,120,1.0,0.0
5748,74.0,120,120,1.0,0.0
5749,75.0,120,120,1.0,0.0
5750,62.0,0,240,3.0,0.0
5751,77.0,0,120,1.0,0.0
5752,79.0,120,120,1.0,0.0
5753,65.0,0,240,3.0,0.0
5754,81.0,240,120,1.0,0.0
5755,58.0,0,720,4.0,0.0
5756,82.0,240,240,1.0,0.0
5757,84.0,0,240,1.0,0.0
5758,65.0,134,240,3.0,0.0
5759,86.0,106,120,1.0,0.0
5760,62.0,120,240,3.0,0.0
5761,65.0,466,180,3.0,0.0
5762,86.0,74,120,1.0,0.0
5763,57.0,240,720,4.0,0.0
5764,86.0,0,960,1.0,0.0
5765,62.0,300,180,3.0,0.0
5766,60.0,0,240,3.0,0.0
5767,62.0,420,240,3.0,0.0
5768,78.0,60,420,1.0,0.0
5769,57.0,0,720,4.0,0.0
5770,62.0,240,240,3.0,0.0
5771,60.0,172,240,3.0,0.0
5772,62.0,308,180,3.0,0.0
5773,55.0,0,720,4.0,0.0
5774,67.0,120,240,1.0,0.0
5775,62.0,60,180,3.0,0.0
5776,69.0,60,120,1.0,0.0
5777,70.0,120,120,1.0,0.0
5778,58.0,120,240,3.0,0.0
5779,72.0,120,120,1.0,0.0
5780,74.0,0,120,1.0,0.0
5781,76.0,120,120,1.0,0.0
5782,62.0,120,240,3.0,0.0
5783,78.0,0,120,1.0,0.0
5784,79.0,120,120,1.0,0.0
5785,53.0,0,720,4.0,0.0
5786,81.0,120,120,1.0,0.0
5787,62.0,126,240,3.0,0.0
5788,82.0,120,120,1.0,0.0
5789,84.0,0,120,1.0,0.0
5790,86.0,114,120,1.0,0.0
5791,58.0,126,240,3.0,0.0
5792,86.0,54,120,1.0,0.0
5793,62.0,540,180,3.0,0.0
5794,52.0,240,720,4.0,0.0
5795,84.0,0,960,1.0,0.0
5796,60.0,240,240,3.0,0.0
5797,58.0,0,240,3.0,0.0
5798,60.0,434,240,3.0,0.0
5799,55.0,0,720,4.0,0.0
5800,76.0,46,420,1.0,0.0
5801,60.0,240,240,3.0,0.0
5802,58.0,186,240,3.0,0.0
5803,60.0,294,180,3.0,0.0
5804,53.0,0,720,4.0,0.0
5805,65.0,120,240,1.0,0.0
5806,60.0,0,240,3.0,0.0
5807,67.0,120,120,1.0,0.0
5808,68.0,120,120,1.0,0.0
5809,70.0,120,120,1.0,0.0
5810,56.0,120,240,3.0,0.0
5811,72.0,0,120,1.0,0.0
5812,74.0,120,120,1.0,0.0
5813,60.0,0,240,3.0,0.0
5814,76.0,120,120,1.0,0.0
5815,77.0,120,120,1.0,0.0
5816,53.0,126,720,4.0,0.0
5817,79.0,120,120,1.0,0.0
5818,80.0,120,120,1.0,0.0
5819,60.0,0,240,3.0,0.0
5820,82.0,126,120,1.0,0.0
5821,56.0,0,240,3.0,0.0
5822,84.0,114,120,1.0,0.0
5823,84.0,60,120,1.0,0.0
5824,60.0,414,180,3.0,0.0
5825,84.0,96,360,1.0,0.0
5826,49.0,0,720,4.0,0.0
5827,56.0,240,240,3.0,0.0
5828,77.0,24,90,1.0,0.0
5829,89.0,240,960,1.0,0.0
5830,53.0,240,240,3.0,0.0
5831,56.0,480,240,3.0,0.0
5832,49.0,0,720,4.0,0.0
5833,56.0,0,240,3.0,0.0
5834,53.0,0,240,3.0,0.0
5835,87.0,186,240,1.0,0.0
5836,56.0,8,180,3.0,0.0
5837,85.0,286,180,1.0,0.0
5838,84.0,240,240,1.0,0.0
5839,49.0,240,1920,5.0,0.0
5840,53.0,36,1860,4.0,0.0
5841,56.0,240,960,4.0,0.0
5842,83.0,480,240,1.0,0.0
5843,80.0,120,720,1.0,0.0
5844,59.0,0,960,4.0,0.0
5845,79.0,120,120,1.0,0.0
5846,80.0,120,120,1.0,0.0
5847,82.0,120,120,1.0,0.0
5848,80.0,120,120,1.0,0.0
5849,79.0,60,120,1.0,0.0
5850,77.0,24,90,1.0,0.0
5851,55.0,174,420,4.0,0.0
5852,48.0,0,420,5.0,0.0
5853,76.0,120,240,1.0,0.0
5854,60.0,6,420,4.0,0.0
5855,84.0,60,120,1.0,0.0
5856,84.0,240,120,1.0,0.0
5857,84.0,240,120,1.0,0.0
5858,84.0,360,120,1.0,0.0
5859,89.0,240,240,1.0,0.0
5860,86.0,240,240,1.0,0.0
5861,83.0,134,240,1.0,0.0
5862,84.0,346,120,1.0,0.0
5863,77.0,240,240,1.0,0.0
5864,74.0,240,240,1.0,0.0
5865,71.0,180,240,1.0,0.0
5866,72.0,300,180,1.0,0.0
5867,89.0,240,240,1.0,0.0
5868,86.0,240,240,1.0,0.0
5869,83.0,126,240,1.0,0.0
5870,84.0,354,120,1.0,0.0
5871,88.0,240,240,1.0,0.0
5872,84.0,246,240,1.0,0.0
5873,81.0,120,240,1.0,0.0
5874,82.0,354,120,1.0,0.0
5875,86.0,240,240,1.0,0.0
5876,82.0,240,240,1.0,0.0
5877,80.0,126,240,1.0,0.0
5878,81.0,234,120,1.0,0.0
5879,86.0,120,120,1.0,0.0
5880,84.0,120,120,1.0,0.0
5881,82.0,120,120,1.0,0.0
5882,81.0,120,120,1.0,0.0
5883,79.0,120,120,1.0,0.0
5884,78.0,134,120,1.0,0.0
5885,79.0,232,120,1.0,0.0
5886,84.0,114,120,1.0,0.0
5887,82.0,120,120,1.0,0.0
5888,81.0,120,120,1.0,0.0
5889,79.0,120,120,1.0,0.0
5890,77.0,96,120,1.0,0.0
5891,76.0,744,90,1.0,0.0
5892,77.0,60,720,1.0,0.0
5893,69.0,0,720,4.0,0.0
5894,72.0,0,480,3.0,0.0
5895,79.0,60,60,1.0,0.0
5896,77.0,60,60,1.0,0.0
5897,76.0,60,60,1.0,0.0
5898,77.0,720,60,1.0,0.0
5899,65.0,186,720,4.0,0.0
5900,81.0,0,900,1.0,0.0
5901,72.0,294,420,3.0,0.0
5902,81.0,180,240,1.0,0.0
5903,70.0,0,720,4.0,0.0
5904,79.0,300,180,1.0,0.0
5905,79.0,186,240,1.0,0.0
5906,72.0,720,480,3.0,0.0
5907,76.0,54,180,1.0,0.0
5908,77.0,0,720,1.0,0.0
5909,69.0,194,720,4.0,0.0
5910,72.0,232,420,3.0,0.0
5911,81.0,534,420,1.0,0.0
5912,70.0,240,720,4.0,0.0
5913,79.0,0,480,1.0,0.0
5914,72.0,240,480,3.0,0.0
5915,76.0,480,480,1.0,0.0
5916,69.0,0,720,4.0,0.0
5917,77.0,180,480,1.0,0.0
5918,72.0,6,420,3.0,0.0
5919,81.0,294,180,1.0,0.0
5920,84.0,194,240,1.0,0.0
5921,67.0,366,480,4.0,0.0
5922,72.0,286,1860,3.0,0.0
5923,82.0,46,180,1.0,0.0
5924,64.0,240,480,4.0,0.0
5925,79.0,114,120,1.0,0.0
5926,65.0,374,480,4.0,0.0
5927,82.0,180,240,1.0,0.0
5928,81.0,60,180,1.0,0.0
5929,69.0,0,420,4.0,0.0
5930,77.0,60,120,1.0,0.0
5931,73.0,240,240,1.0,0.0
5932,70.0,0,480,4.0,0.0
5933,74.0,240,240,1.0,0.0
5934,58.0,0,480,5.0,0.0
5935,75.0,240,240,1.0,0.0
5936,76.0,240,240,1.0,0.0
5937,77.0,240,240,1.0,0.0
5938,62.0,0,480,5.0,0.0
5939,78.0,240,240,1.0,0.0
5940,81.0,194,240,1.0,0.0
5941,59.0,480,480,5.0,0.0
5942,65.0,0,960,4.0,0.0
5943,79.0,46,180,1.0,0.0
5944,60.0,54,1380,5.0,0.0
5945,79.0,374,480,1.0,0.0
5946,64.0,106,360,4.0,0.0
5947,72.0,166,540,1.0,0.0
5948,62.0,74,120,4.0,0.0
5949,64.0,6,420,4.0,0.0
5950,72.0,120,120,1.0,0.0
5951,71.0,60,120,1.0,0.0
5952,72.0,120,120,1.0,0.0
5953,73.0,120,120,1.0,0.0
5954,74.0,120,120,1.0,0.0
5955,75.0,96,120,1.0,0.0
5956,76.0,744,90,1.0,0.0
5957,77.0,76,720,1.0,0.0
5958,69.0,6,720,4.0,0.0
5959,72.0,0,480,3.0,0.0
5960,79.0,38,90,1.0,0.0
5961,77.0,60,60,1.0,0.0
5962,76.0,60,60,1.0,0.0
5963,77.0,720,60,1.0,0.0
5964,65.0,186,720,4.0,0.0
5965,81.0,0,900,1.0,0.0
5966,72.0,294,420,3.0,0.0
5967,79.0,240,240,1.0,0.0
5968,70.0,0,720,4.0,0.0
5969,81.0,240,240,1.0,0.0
5970,72.0,720,480,3.0,0.0
5971,82.0,194,240,1.0,0.0
5972,76.0,46,180,1.0,0.0
5973,69.0,0,720,4.0,0.0
5974,77.0,186,720,1.0,0.0
5975,72.0,166,420,3.0,0.0
5976,81.0,8,180,1.0,0.0
5977,70.0,126,720,4.0,0.0
5978,78.0,120,120,1.0,0.0
5979,79.0,120,120,1.0,0.0
5980,80.0,120,120,1.0,0.0
5981,81.0,134,120,1.0,0.0
5982,72.0,240,480,3.0,0.0
5983,82.0,106,120,1.0,0.0
5984,76.0,114,120,1.0,0.0
5985,77.0,480,240,1.0,0.0
5986,69.0,0,720,4.0,0.0
5987,81.0,180,480,1.0,0.0
5988,72.0,300,420,3.0,0.0
5989,84.0,240,480,1.0,0.0
5990,67.0,240,480,4.0,0.0
5991,72.0,54,1380,3.0,0.0
5992,82.0,240,480,1.0,0.0
5993,64.0,240,480,4.0,0.0
5994,79.0,186,480,1.0,0.0
5995,65.0,232,480,4.0,0.0
5996,81.0,194,480,1.0,0.0
5997,62.0,346,420,4.0,0.0
5998,77.0,8,180,1.0,0.0
5999,74.0,60,300,1.0,0.0
6000,58.0,60,900,5.0,0.0
6001,76.0,60,60,1.0,0.0
6002,74.0,60,60,1.0,0.0
6003,73.0,194,60,1.0,0.0
6004,74.0,226,180,1.0,0.0
6005,70.0,240,480,4.0,0.0
6006,79.0,240,480,1.0,0.0
6007,72.0,234,480,1.0,0.0
6008,60.0,6,480,5.0,0.0
6009,69.0,0,480,4.0,0.0
6010,77.0,180,480,1.0,0.0
6011,70.0,6,420,1.0,0.0
6012,67.0,8,420,4.0,0.0
6013,76.0,533,180,1.0,0.0
6014,76.0,420,960,1.0,0.0
6015,65.0,473,480,5.0,0.0
6016,70.0,0,960,2.0,0.0
6017,60.0,0,480,5.0,0.0
6018,77.0,6,420,1.0,0.0
6019,53.0,1398,420,5.0,0.0
6020,69.0,0,420,2.0,0.0
6021,72.0,384,960,1.0,0.0
6022,68.0,240,1920,2.0,0.0
6023,53.0,96,390,4.0,0.0
6024,46.0,480,390,4.0,0.0
6025,73.0,144,1200,1.0,0.0
6026,58.0,96,390,4.0,0.0
6027,51.0,110,390,4.0,0.0
6028,67.0,84,1260,2.0,0.0
6029,77.0,226,240,1.0,0.0
6030,75.0,144,240,1.0,0.0
6031,39.0,96,390,4.0,0.0
6032,73.0,300,240,1.0,0.0
6033,72.0,84,1260,1.0,0.0
6034,44.0,96,390,4.0,0.0
6035,70.0,240,240,2.0,0.0
6036,56.0,96,390,4.0,0.0
6037,68.0,144,240,2.0,0.0
6038,67.0,300,240,2.0,0.0
6039,49.0,110,390,4.0,0.0
6040,65.0,84,1260,2.0,0.0
6041,75.0,226,240,1.0,0.0
6042,37.0,96,390,4.0,0.0
6043,73.0,144,240,1.0,0.0
6044,72.0,300,240,1.0,0.0
6045,70.0,84,1260,1.0,0.0
6046,43.0,96,390,4.0,0.0
6047,68.0,240,240,2.0,0.0
6048,67.0,144,240,2.0,0.0
6049,55.0,96,390,4.0,0.0
6050,65.0,300,240,2.0,0.0
6051,64.0,6,960,2.0,0.0
6052,48.0,96,390,4.0,0.0
6053,73.0,240,240,1.0,0.0
6054,36.0,96,390,4.0,0.0
6055,72.0,144,240,1.0,0.0
6056,70.0,188,240,1.0,0.0
6057,41.0,0,180,4.0,0.0
6058,68.0,128,180,1.0,0.0
6059,65.0,0,600,2.0,0.0
6060,70.0,82,90,1.0,0.0
6061,49.0,6,240,4.0,0.0
6062,68.0,76,90,1.0,0.0
6063,67.0,128,90,1.0,0.0
6064,48.0,120,240,4.0,0.0
6065,68.0,106,120,1.0,0.0
6066,70.0,114,120,1.0,0.0
6067,67.0,6,120,2.0,0.0
6068,46.0,180,240,4.0,0.0
6069,72.0,136,180,1.0,0.0
6070,44.0,66,420,4.0,0.0
6071,68.0,6,180,2.0,0.0
6072,73.0,74,90,1.0,0.0
6073,72.0,24,90,1.0,0.0
6074,70.0,128,90,1.0,0.0
6075,72.0,232,120,1.0,0.0
6076,73.0,270,120,1.0,0.0
6077,75.0,240,150,1.0,0.0
6078,75.0,240,150,1.0,0.0
6079,75.0,240,150,1.0,0.0
6080,75.0,324,150,1.0,0.0
6081,75.0,186,240,1.0,0.0
6082,77.0,1014,180,1.0,0.0
6083,63.0,6,1380,4.0,0.0
6084,70.0,414,960,2.0,0.0
6085,73.0,0,960,1.0,0.0
6086,55.0,6,960,5.0,0.0
6087,72.0,0,420,1.0,0.0
6088,68.0,0,420,2.0,0.0
6089,56.0,294,420,5.0,0.0
6090,70.0,82,240,1.0,0.0
6091,61.0,246,960,4.0,0.0
6092,49.0,0,960,5.0,0.0
6093,65.0,0,960,2.0,0.0
6094,72.0,82,90,1.0,0.0
6095,70.0,82,90,1.0,0.0
6096,69.0,248,90,1.0,0.0
6097,70.0,106,240,1.0,0.0
6098,72.0,120,120,1.0,0.0
6099,73.0,0,120,1.0,0.0
6100,68.0,240,240,1.0,0.0
6101,51.0,240,480,5.0,0.0
6102,60.0,0,480,4.0,0.0
6103,63.0,0,240,2.0,0.0
6104,67.0,188,240,1.0,0.0
6105,61.0,0,240,2.0,0.0
6106,58.0,526,420,5.0,0.0
6107,56.0,480,480,5.0,0.0
6108,61.0,6,960,2.0,0.0
6109,70.0,414,960,1.0,0.0
6110,51.0,0,480,5.0,0.0
6111,44.0,6,420,5.0,0.0
6112,60.0,0,420,2.0,0.0
6113,68.0,1398,420,1.0,0.0
6114,72.0,384,960,1.0,0.0
6115,68.0,240,1920,2.0,0.0
6116,53.0,96,390,4.0,0.0
6117,46.0,480,390,4.0,0.0
6118,73.0,144,1200,1.0,0.0
6119,58.0,96,390,4.0,0.0
6120,51.0,110,390,4.0,0.0
6121,67.0,84,1260,2.0,0.0
6122,77.0,226,240,1.0,0.0
6123,39.0,96,390,4.0,0.0
6124,75.0,144,240,1.0,0.0
6125,73.0,300,240,1.0,0.0
6126,44.0,96,390,4.0,0.0
6127,72.0,84,1260,1.0,0.0
6128,70.0,240,240,2.0,0.0
6129,68.0,144,240,2.0,0.0
6130,56.0,96,390,4.0,0.0
6131,67.0,300,240,2.0,0.0
6132,49.0,110,390,4.0,0.0
6133,65.0,84,1260,2.0,0.0
6134,75.0,226,240,1.0,0.0
6135,73.0,144,240,1.0,0.0
6136,37.0,96,390,4.0,0.0
6137,72.0,300,240,1.0,0.0
6138,43.0,96,390,4.0,0.0
6139,70.0,84,1260,1.0,0.0
6140,68.0,240,240,2.0,0.0
6141,55.0,96,390,4.0,0.0
6142,67.0,144,240,2.0,0.0
6143,65.0,300,240,2.0,0.0
6144,48.0,96,390,4.0,0.0
6145,64.0,6,960,2.0,0.0
6146,73.0,240,240,1.0,0.0
6147,36.0,96,390,4.0,0.0
6148,72.0,144,240,1.0,0.0
6149,70.0,188,240,1.0,0.0
6150,65.0,0,600,2.0,0.0
6151,41.0,0,180,4.0,0.0
6152,68.0,128,180,1.0,0.0
6153,49.0,6,240,4.0,0.0
6154,70.0,82,90,1.0,0.0
6155,68.0,76,90,1.0,0.0
6156,67.0,128,90,1.0,0.0
6157,68.0,106,120,1.0,0.0
6158,48.0,120,240,4.0,0.0
6159,67.0,6,120,2.0,0.0
6160,46.0,180,240,4.0,0.0
6161,70.0,114,120,1.0,0.0
6162,44.0,66,420,4.0,0.0
6163,68.0,6,180,2.0,0.0
6164,72.0,136,180,1.0,0.0
6165,73.0,74,90,1.0,0.0
6166,72.0,24,90,1.0,0.0
6167,70.0,128,90,1.0,0.0
6168,72.0,232,120,1.0,0.0
6169,73.0,270,120,1.0,0.0
6170,75.0,240,150,1.0,0.0
6171,75.0,240,150,1.0,0.0
6172,75.0,240,150,1.0,0.0
6173,75.0,324,150,1.0,0.0
6174,75.0,186,240,1.0,0.0
6175,77.0,1014,180,1.0,0.0
6176,73.0,0,960,1.0,0.0
6177,70.0,414,960,2.0,0.0
6178,63.0,6,1380,4.0,0.0
6179,55.0,6,960,5.0,0.0
6180,72.0,0,420,1.0,0.0
6181,56.0,294,420,5.0,0.0
6182,68.0,0,420,2.0,0.0
6183,70.0,82,240,1.0,0.0
6184,49.0,0,960,5.0,0.0
6185,65.0,0,960,2.0,0.0
6186,61.0,0,960,4.0,0.0
6187,72.0,82,90,1.0,0.0
6188,70.0,82,90,1.0,0.0
6189,69.0,248,90,1.0,0.0
6190,70.0,106,240,1.0,0.0
6191,72.0,120,120,1.0,0.0
6192,73.0,246,120,1.0,0.0
6193,51.0,240,480,5.0,0.0
6194,60.0,0,480,4.0,0.0
6195,63.0,0,240,2.0,0.0
6196,68.0,240,240,1.0,0.0
6197,58.0,526,420,5.0,0.0
6198,67.0,0,240,1.0,0.0
6199,61.0,188,240,2.0,0.0
6200,70.0,414,960,1.0,0.0
6201,61.0,6,960,2.0,0.0
6202,56.0,480,480,5.0,0.0
6203,51.0,0,480,5.0,0.0
6204,44.0,0,420,5.0,0.0
6205,60.0,6,420,2.0,0.0
6206,68.0,1440,420,1.0,0.0
6207,72.0,6,960,1.0,0.0
6208,69.0,894,960,2.0,0.0
6209,65.0,54,420,4.0,0.0
6210,70.0,346,900,2.0,0.0
6211,73.0,8,900,1.0,0.0
6212,64.0,6,420,4.0,0.0
6213,72.0,180,300,1.0,0.0
6214,63.0,14,480,4.0,0.0
6215,69.0,226,960,2.0,0.0
6216,78.0,226,240,1.0,0.0
6217,77.0,0,240,1.0,0.0
6218,62.0,240,240,4.0,0.0
6219,75.0,8,240,1.0,0.0
6220,60.0,6,240,4.0,0.0
6221,70.0,46,420,2.0,0.0
6222,73.0,14,420,1.0,0.0
6223,58.0,180,240,4.0,0.0
6224,60.0,240,240,4.0,0.0
6225,61.0,240,240,4.0,0.0
6226,62.0,420,240,4.0,0.0
6227,70.0,6,960,1.0,0.0
6228,67.0,900,960,2.0,0.0
6229,63.0,480,420,4.0,0.0
6230,63.0,60,420,4.0,0.0
6231,71.0,0,900,1.0,0.0
6232,68.0,346,900,2.0,0.0
6233,62.0,8,420,4.0,0.0
6234,67.0,186,1200,2.0,0.0
6235,70.0,180,300,1.0,0.0
6236,61.0,240,480,4.0,0.0
6237,77.0,0,240,1.0,0.0
6238,75.0,234,240,1.0,0.0
6239,60.0,6,240,4.0,0.0
6240,73.0,0,240,1.0,0.0
6241,58.0,240,240,4.0,0.0
6242,72.0,54,420,1.0,0.0
6243,56.0,0,240,4.0,0.0
6244,55.0,240,240,4.0,0.0
6245,70.0,0,240,2.0,0.0
6246,68.0,0,240,2.0,0.0
6247,53.0,172,240,4.0,0.0
6248,72.0,68,180,1.0,0.0
6249,51.0,0,240,4.0,0.0
6250,67.0,240,240,2.0,0.0
6251,72.0,186,240,1.0,0.0
6252,50.0,0,420,4.0,0.0
6253,65.0,474,420,2.0,0.0
6254,71.0,0,180,1.0,0.0
6255,52.0,0,420,4.0,0.0
6256,67.0,0,180,2.0,0.0
6257,70.0,300,180,1.0,0.0
6258,53.0,8,420,4.0,0.0
6259,70.0,0,240,1.0,0.0
6260,67.0,186,240,2.0,0.0
6261,69.0,0,180,1.0,0.0
6262,65.0,466,180,2.0,0.0
6263,47.0,0,420,4.0,0.0
6264,65.0,306,180,2.0,0.0
6265,68.0,0,180,1.0,0.0
6266,65.0,234,960,2.0,0.0
6267,48.0,54,420,4.0,0.0
6268,68.0,180,240,1.0,0.0
6269,70.0,240,240,1.0,0.0
6270,60.0,180,720,4.0,0.0
6271,71.0,240,240,1.0,0.0
6272,72.0,6,240,1.0,0.0
6273,64.0,6,420,2.0,0.0
6274,67.0,54,420,1.0,0.0
6275,59.0,240,240,4.0,0.0
6276,60.0,180,240,4.0,0.0
6277,59.0,1020,180,4.0,0.0
6278,60.0,480,960,5.0,0.0
6279,76.0,480,960,1.0,0.0
6280,70.0,0,960,2.0,0.0
6281,61.0,240,1200,5.0,0.0
6282,77.0,234,480,1.0,0.0
6283,68.0,6,480,2.0,0.0
6284,67.0,240,1200,2.0,0.0
6285,70.0,0,480,1.0,0.0
6286,65.0,240,240,5.0,0.0
6287,72.0,240,240,1.0,0.0
6288,63.0,0,240,5.0,0.0
6289,61.0,6,240,5.0,0.0
6290,73.0,234,240,1.0,0.0
6291,75.0,234,960,1.0,0.0
6292,60.0,240,1200,5.0,0.0
6293,70.0,240,240,2.0,0.0
6294,68.0,240,240,2.0,0.0
6295,67.0,6,240,2.0,0.0
6296,65.0,240,1200,2.0,0.0
6297,68.0,234,480,1.0,0.0
6298,63.0,6,240,5.0,0.0
6299,70.0,240,240,1.0,0.0
6300,61.0,0,240,5.0,0.0
6301,72.0,14,240,1.0,0.0
6302,60.0,226,240,5.0,0.0
6303,73.0,0,960,1.0,0.0
6304,58.0,240,1200,5.0,0.0
6305,68.0,240,240,2.0,0.0
6306,67.0,240,240,2.0,0.0
6307,65.0,240,240,2.0,0.0
6308,64.0,0,480,2.0,0.0
6309,67.0,0,480,1.0,0.0
6310,61.0,240,240,5.0,0.0
6311,60.0,180,240,5.0,0.0
6312,68.0,0,240,1.0,0.0
6313,65.0,0,240,2.0,0.0
6314,70.0,54,180,1.0,0.0
6315,67.0,6,180,2.0,0.0
6316,58.0,240,240,5.0,0.0
6317,68.0,74,780,2.0,0.0
6318,56.0,6,240,5.0,0.0
6319,72.0,76,240,1.0,0.0
6320,55.0,6,240,5.0,0.0
6321,79.0,60,90,1.0,0.0
6322,77.0,98,90,1.0,0.0
6323,76.0,128,90,1.0,0.0
6324,53.0,60,240,5.0,0.0
6325,77.0,106,120,1.0,0.0
6326,51.0,234,240,5.0,0.0
6327,79.0,112,120,1.0,0.0
6328,49.0,126,480,5.0,0.0
6329,80.0,126,240,1.0,0.0
6330,71.0,114,120,1.0,0.0
6331,65.0,360,360,4.0,0.0
6332,61.0,0,360,4.0,0.0
6333,71.0,234,120,1.0,0.0
6334,71.0,0,120,1.0,0.0
6335,80.0,126,240,1.0,0.0
6336,50.0,126,480,5.0,0.0
6337,71.0,114,120,1.0,0.0
6338,65.0,346,360,4.0,0.0
6339,71.0,234,120,1.0,0.0
6340,62.0,8,360,4.0,0.0
6341,71.0,6,120,1.0,0.0
6342,72.0,186,240,1.0,0.0
6343,73.0,1014,180,1.0,0.0
6344,67.0,0,960,2.0,0.0
6345,52.0,0,960,5.0,0.0
6346,70.0,420,960,1.0,0.0
6347,61.0,0,960,4.0,0.0
6348,53.0,0,420,5.0,0.0
6349,65.0,6,420,2.0,0.0
6350,60.0,0,420,4.0,0.0
6351,68.0,294,420,1.0,0.0
6352,46.0,0,960,5.0,0.0
6353,67.0,194,240,1.0,0.0
6354,73.0,166,180,1.0,0.0
6355,72.0,120,120,1.0,0.0
6356,58.0,0,480,4.0,0.0
6357,70.0,120,120,1.0,0.0
6358,68.0,120,120,1.0,0.0
6359,67.0,254,120,1.0,0.0
6360,65.0,226,240,1.0,0.0
6361,48.0,540,900,5.0,0.0
6362,56.0,254,480,4.0,0.0
6363,55.0,6,420,4.0,0.0
6364,64.0,166,240,1.0,0.0
6365,67.0,0,960,1.0,0.0
6366,58.0,0,960,2.0,0.0
6367,53.0,474,480,5.0,0.0
6368,48.0,420,480,5.0,0.0
6369,65.0,0,420,1.0,0.0
6370,41.0,6,420,5.0,0.0
6371,56.0,1440,420,2.0,0.0
6372,69.0,894,960,2.0,0.0
6373,72.0,6,960,1.0,0.0
6374,65.0,54,420,4.0,0.0
6375,73.0,8,900,1.0,0.0
6376,70.0,346,900,2.0,0.0
6377,64.0,6,420,4.0,0.0
6378,63.0,14,480,4.0,0.0
6379,72.0,180,300,1.0,0.0
6380,69.0,226,960,2.0,0.0
6381,78.0,226,240,1.0,0.0
6382,62.0,240,240,4.0,0.0
6383,77.0,0,240,1.0,0.0
6384,75.0,8,240,1.0,0.0
6385,60.0,6,240,4.0,0.0
6386,58.0,180,240,4.0,0.0
6387,70.0,46,420,2.0,0.0
6388,73.0,14,420,1.0,0.0
6389,60.0,240,240,4.0,0.0
6390,61.0,240,240,4.0,0.0
6391,62.0,420,240,4.0,0.0
6392,67.0,900,960,2.0,0.0
6393,63.0,480,420,4.0,0.0
6394,70.0,6,960,1.0,0.0
6395,63.0,60,420,4.0,0.0
6396,71.0,8,900,1.0,0.0
6397,68.0,346,900,2.0,0.0
6398,62.0,0,420,4.0,0.0
6399,70.0,180,300,1.0,0.0
6400,67.0,186,1200,2.0,0.0
6401,61.0,0,480,4.0,0.0
6402,77.0,240,240,1.0,0.0
6403,60.0,6,240,4.0,0.0
6404,75.0,234,240,1.0,0.0
6405,73.0,0,240,1.0,0.0
6406,58.0,240,240,4.0,0.0
6407,72.0,54,420,1.0,0.0
6408,56.0,0,240,4.0,0.0
6409,70.0,0,240,2.0,0.0
6410,55.0,240,240,4.0,0.0
6411,53.0,0,240,4.0,0.0
6412,68.0,172,240,2.0,0.0
6413,67.0,0,240,2.0,0.0
6414,72.0,68,180,1.0,0.0
6415,51.0,240,240,4.0,0.0
6416,65.0,0,420,2.0,0.0
6417,50.0,0,420,4.0,0.0
6418,72.0,186,240,1.0,0.0
6419,71.0,474,180,1.0,0.0
6420,52.0,0,420,4.0,0.0
6421,67.0,0,180,2.0,0.0
6422,70.0,300,180,1.0,0.0
6423,70.0,0,240,1.0,0.0
6424,67.0,186,240,2.0,0.0
6425,53.0,8,420,4.0,0.0
6426,65.0,0,180,2.0,0.0
6427,69.0,466,180,1.0,0.0
6428,47.0,0,420,4.0,0.0
6429,68.0,0,180,1.0,0.0
6430,65.0,306,180,2.0,0.0
6431,65.0,234,960,2.0,0.0
6432,68.0,180,240,1.0,0.0
6433,48.0,54,420,4.0,0.0
6434,70.0,240,240,1.0,0.0
6435,60.0,180,720,4.0,0.0
6436,71.0,240,240,1.0,0.0
6437,72.0,6,240,1.0,0.0
6438,64.0,6,420,2.0,0.0
6439,67.0,54,420,1.0,0.0
6440,59.0,240,240,4.0,0.0
6441,60.0,180,240,4.0,0.0
6442,59.0,1020,180,4.0,0.0
6443,60.0,480,960,5.0,0.0
6444,76.0,0,960,1.0,0.0
6445,70.0,480,960,2.0,0.0
6446,61.0,240,1200,5.0,0.0
6447,77.0,234,480,1.0,0.0
6448,68.0,6,480,2.0,0.0
6449,67.0,240,1200,2.0,0.0
6450,70.0,240,480,1.0,0.0
6451,65.0,0,240,5.0,0.0
6452,63.0,0,240,5.0,0.0
6453,72.0,240,240,1.0,0.0
6454,61.0,6,240,5.0,0.0
6455,73.0,234,240,1.0,0.0
6456,75.0,234,960,1.0,0.0
6457,60.0,240,1200,5.0,0.0
6458,70.0,240,240,2.0,0.0
6459,68.0,240,240,2.0,0.0
6460,67.0,6,240,2.0,0.0
6461,65.0,240,1200,2.0,0.0
6462,68.0,234,480,1.0,0.0
6463,63.0,6,240,5.0,0.0
6464,70.0,0,240,1.0,0.0
6465,61.0,240,240,5.0,0.0
6466,60.0,226,240,5.0,0.0
6467,72.0,14,240,1.0,0.0
6468,58.0,240,1200,5.0,0.0
6469,73.0,240,960,1.0,0.0
6470,68.0,240,240,2.0,0.0
6471,67.0,240,240,2.0,0.0
6472,65.0,0,240,2.0,0.0
6473,67.0,0,480,1.0,0.0
6474,64.0,240,480,2.0,0.0
6475,61.0,0,240,5.0,0.0
6476,65.0,180,240,2.0,0.0
6477,68.0,0,240,1.0,0.0
6478,60.0,0,240,5.0,0.0
6479,58.0,240,240,5.0,0.0
6480,67.0,6,180,2.0,0.0
6481,70.0,54,180,1.0,0.0
6482,68.0,74,780,2.0,0.0
6483,72.0,76,240,1.0,0.0
6484,56.0,6,240,5.0,0.0
6485,79.0,60,90,1.0,0.0
6486,55.0,6,240,5.0,0.0
6487,77.0,98,90,1.0,0.0
6488,76.0,128,90,1.0,0.0
6489,77.0,106,120,1.0,0.0
6490,53.0,60,240,5.0,0.0
6491,79.0,112,120,1.0,0.0
6492,51.0,234,240,5.0,0.0
6493,80.0,126,240,1.0,0.0
6494,49.0,126,480,5.0,0.0
6495,71.0,114,120,1.0,0.0
6496,71.0,234,120,1.0,0.0
6497,61.0,0,360,4.0,0.0
6498,65.0,360,360,4.0,0.0
6499,71.0,0,120,1.0,0.0
6500,50.0,126,480,5.0,0.0
6501,80.0,126,240,1.0,0.0
6502,71.0,114,120,1.0,0.0
6503,65.0,346,360,4.0,0.0
6504,62.0,8,360,4.0,0.0
6505,71.0,234,120,1.0,0.0
6506,71.0,6,120,1.0,0.0
6507,72.0,186,240,1.0,0.0
6508,73.0,1014,180,1.0,0.0
6509,61.0,420,960,4.0,0.0
6510,67.0,0,960,2.0,0.0
6511,70.0,0,960,1.0,0.0
6512,52.0,0,960,5.0,0.0
6513,53.0,294,420,5.0,0.0
6514,60.0,0,420,4.0,0.0
6515,65.0,6,420,2.0,0.0
6516,68.0,0,420,1.0,0.0
6517,67.0,194,240,1.0,0.0
6518,46.0,0,960,5.0,0.0
6519,73.0,166,180,1.0,0.0
6520,58.0,0,480,4.0,0.0
6521,72.0,120,120,1.0,0.0
6522,70.0,120,120,1.0,0.0
6523,68.0,120,120,1.0,0.0
6524,67.0,254,120,1.0,0.0
6525,56.0,254,480,4.0,0.0
6526,65.0,226,240,1.0,0.0
6527,48.0,1268,900,5.0,0.0
6528,64.0,166,240,1.0,0.0
6529,55.0,6,420,4.0,0.0
6530,64.0,46,1200,1.0,0.0
6531,58.0,0,1800,2.0,0.0
6532,53.0,0,1800,5.0,0.0
6533,41.0,306,1800,5.0,0.0
6534,65.0,60,60,1.0,0.0
6535,64.0,60,60,1.0,0.0
6536,62.0,60,60,1.0,0.0
6537,64.0,240,60,1.0,0.0
6538,67.0,120,240,1.0,0.0
6539,65.0,6,120,1.0,0.0
6540,57.0,0,180,2.0,0.0
6541,41.0,0,180,5.0,0.0
6542,53.0,48,180,5.0,0.0
6543,65.0,60,240,1.0,0.0
6544,67.0,60,60,1.0,0.0
6545,65.0,60,60,1.0,0.0
6546,64.0,74,60,1.0,0.0
6547,65.0,232,60,1.0,0.0
6548,69.0,114,240,1.0,0.0
6549,67.0,312,120,1.0,0.0
6550,67.0,60,240,1.0,0.0
6551,41.0,0,180,5.0,0.0
6552,53.0,2,180,5.0,0.0
6553,64.0,46,180,2.0,0.0
6554,69.0,60,60,1.0,0.0
6555,67.0,60,60,1.0,0.0
6556,66.0,60,60,1.0,0.0
6557,67.0,240,60,1.0,0.0
6558,70.0,120,240,1.0,0.0
6559,69.0,240,120,1.0,0.0
6560,69.0,72,120,1.0,0.0
6561,53.0,174,420,5.0,0.0
6562,41.0,6,420,5.0,0.0
6563,65.0,84,180,2.0,0.0
6564,65.0,144,120,1.0,0.0
6565,67.0,0,120,1.0,0.0
6566,69.0,172,120,1.0,0.0
6567,70.0,170,120,1.0,0.0
6568,72.0,144,150,1.0,0.0
6569,70.0,154,120,1.0,0.0
6570,67.0,154,120,1.0,0.0
6571,69.0,166,120,1.0,0.0
6572,70.0,172,120,1.0,0.0
6573,72.0,164,120,1.0,0.0
6574,74.0,158,150,1.0,0.0
6575,72.0,166,120,1.0,0.0
6576,65.0,142,120,1.0,0.0
6577,67.0,180,120,1.0,0.0
6578,68.0,158,150,1.0,0.0
6579,69.0,150,120,1.0,0.0
6580,70.0,172,120,1.0,0.0
6581,71.0,138,150,1.0,0.0
6582,72.0,170,120,1.0,0.0
6583,73.0,172,120,1.0,0.0
6584,74.0,158,150,1.0,0.0
6585,75.0,134,120,1.0,0.0
6586,76.0,766,120,1.0,0.0
6587,77.0,60,720,1.0,0.0
6588,69.0,0,720,4.0,0.0
6589,72.0,720,480,3.0,0.0
6590,79.0,60,60,1.0,0.0
6591,77.0,60,60,1.0,0.0
6592,76.0,60,60,1.0,0.0
6593,77.0,0,60,1.0,0.0
6594,81.0,0,900,1.0,0.0
6595,65.0,180,720,4.0,0.0
6596,72.0,300,420,3.0,0.0
6597,70.0,6,720,4.0,0.0
6598,81.0,180,240,1.0,0.0
6599,79.0,300,180,1.0,0.0
6600,72.0,240,480,3.0,0.0
6601,79.0,174,240,1.0,0.0
6602,76.0,60,180,1.0,0.0
6603,69.0,126,720,4.0,0.0
6604,77.0,96,240,1.0,0.0
6605,79.0,68,90,1.0,0.0
6606,77.0,90,90,1.0,0.0
6607,76.0,172,90,1.0,0.0
6608,77.0,54,180,1.0,0.0
6609,72.0,286,420,3.0,0.0
6610,81.0,68,120,1.0,0.0
6611,70.0,134,720,4.0,0.0
6612,78.0,240,240,1.0,0.0
6613,79.0,186,240,1.0,0.0
6614,82.0,54,180,1.0,0.0
6615,72.0,240,480,3.0,0.0
6616,76.0,106,120,1.0,0.0
6617,69.0,180,720,4.0,0.0
6618,79.0,480,240,1.0,0.0
6619,77.0,0,480,1.0,0.0
6620,72.0,300,420,3.0,0.0
6621,81.0,0,180,1.0,0.0
6622,72.0,120,240,3.0,0.0
6623,67.0,0,240,4.0,0.0
6624,84.0,120,120,1.0,0.0
6625,82.0,240,120,1.0,0.0
6626,64.0,0,240,4.0,0.0
6627,72.0,120,240,3.0,0.0
6628,81.0,104,120,1.0,0.0
6629,79.0,256,90,1.0,0.0
6630,65.0,0,240,4.0,0.0
6631,72.0,126,240,3.0,0.0
6632,82.0,90,120,1.0,0.0
6633,81.0,264,90,1.0,0.0
6634,72.0,0,240,3.0,0.0
6635,69.0,120,240,4.0,0.0
6636,79.0,90,120,1.0,0.0
6637,77.0,276,90,1.0,0.0
6638,74.0,76,240,1.0,0.0
6639,70.0,134,480,4.0,0.0
6640,76.0,82,90,1.0,0.0
6641,74.0,76,90,1.0,0.0
6642,73.0,0,90,1.0,0.0
6643,74.0,248,120,1.0,0.0
6644,58.0,240,480,3.0,0.0
6645,76.0,98,150,1.0,0.0
6646,62.0,0,480,3.0,0.0
6647,77.0,240,240,1.0,0.0
6648,78.0,240,240,1.0,0.0
6649,65.0,360,960,4.0,0.0
6650,81.0,180,240,1.0,0.0
6651,59.0,474,480,3.0,0.0
6652,79.0,66,180,1.0,0.0
6653,60.0,46,1380,3.0,0.0
6654,79.0,0,480,1.0,0.0
6655,72.0,114,600,1.0,0.0
6656,64.0,120,360,4.0,0.0
6657,62.0,126,120,4.0,0.0
6658,64.0,14,420,4.0,0.0
6659,73.0,120,120,1.0,0.0
6660,74.0,60,120,1.0,0.0
6661,72.0,120,15,1.0,0.0
6662,70.0,120,120,1.0,0.0
6663,69.0,120,120,1.0,0.0
6664,67.0,240,120,1.0,0.0
6665,65.0,134,240,1.0,0.0
6666,57.0,14,720,4.0,0.0
6667,67.0,120,120,1.0,0.0
6668,69.0,112,120,1.0,0.0
6669,70.0,114,120,1.0,0.0
6670,60.0,120,480,3.0,0.0
6671,72.0,106,120,1.0,0.0
6672,74.0,120,120,1.0,0.0
6673,76.0,0,120,1.0,0.0
6674,53.0,126,720,4.0,0.0
6675,77.0,120,120,1.0,0.0
6676,79.0,120,120,1.0,0.0
6677,81.0,120,120,1.0,0.0
6678,82.0,134,120,1.0,0.0
6679,60.0,194,420,3.0,0.0
6680,84.0,106,120,1.0,0.0
6681,81.0,54,120,1.0,0.0
6682,79.0,106,120,1.0,0.0
6683,58.0,120,720,4.0,0.0
6684,81.0,126,120,1.0,0.0
6685,82.0,114,120,1.0,0.0
6686,79.0,120,120,1.0,0.0
6687,76.0,120,120,1.0,0.0
6688,60.0,0,480,3.0,0.0
6689,77.0,0,120,1.0,0.0
6690,79.0,120,120,1.0,0.0
6691,76.0,96,120,1.0,0.0
6692,57.0,0,720,4.0,0.0
6693,77.0,150,90,1.0,0.0
6694,84.0,114,120,1.0,0.0
6695,83.0,96,120,1.0,0.0
6696,84.0,144,90,1.0,0.0
6697,86.0,120,120,1.0,0.0
6698,60.0,22,420,3.0,0.0
6699,84.0,120,120,1.0,0.0
6700,82.0,74,120,1.0,0.0
6701,81.0,144,90,1.0,0.0
6702,79.0,120,120,1.0,0.0
6703,58.0,120,720,4.0,0.0
6704,81.0,120,120,1.0,0.0
6705,82.0,120,120,1.0,0.0
6706,79.0,120,120,1.0,0.0
6707,76.0,120,120,1.0,0.0
6708,60.0,240,480,3.0,0.0
6709,77.0,0,120,1.0,0.0
6710,79.0,96,120,1.0,0.0
6711,76.0,24,90,1.0,0.0
6712,77.0,186,240,1.0,0.0
6713,57.0,294,420,4.0,0.0
6714,81.0,180,480,1.0,0.0
6715,69.0,0,480,2.0,0.0
6716,53.0,300,420,4.0,0.0
6717,60.0,0,420,3.0,0.0
6718,84.0,240,480,1.0,0.0
6719,72.0,0,480,2.0,0.0
6720,60.0,300,1380,3.0,0.0
6721,55.0,240,480,4.0,0.0
6722,71.0,180,480,2.0,0.0
6723,83.0,0,480,1.0,0.0
6724,52.0,300,420,4.0,0.0
6725,82.0,0,480,1.0,0.0
6726,70.0,180,480,2.0,0.0
6727,53.0,0,420,4.0,0.0
6728,68.0,0,480,2.0,0.0
6729,80.0,180,480,1.0,0.0
6730,50.0,22,420,4.0,0.0
6731,53.0,0,420,3.0,0.0
6732,81.0,292,210,1.0,0.0
6733,69.0,0,210,2.0,0.0
6734,55.0,0,420,3.0,0.0
6735,50.0,6,420,3.0,0.0
6736,46.0,54,420,4.0,0.0
6737,67.0,106,120,1.0,0.0
6738,69.0,60,120,1.0,0.0
6739,70.0,120,120,1.0,0.0
6740,72.0,120,120,1.0,0.0
6741,74.0,120,120,1.0,0.0
6742,76.0,120,120,1.0,0.0
6743,78.0,120,120,1.0,0.0
6744,79.0,120,120,1.0,0.0
6745,81.0,120,120,1.0,0.0
6746,82.0,120,120,1.0,0.0
6747,84.0,126,120,1.0,0.0
6748,86.0,234,120,1.0,0.0
6749,60.0,6,120,4.0,0.0
6750,76.0,832,120,1.0,0.0
6751,70.0,8,120,3.0,0.0
6752,70.0,0,960,3.0,0.0
6753,65.0,16,1380,4.0,0.0
6754,79.0,114,720,1.0,0.0
6755,81.0,120,120,1.0,0.0
6756,79.0,134,120,1.0,0.0
6757,69.0,0,420,3.0,0.0
6758,77.0,138,120,1.0,0.0
6759,76.0,154,120,1.0,0.0
6760,75.0,158,150,1.0,0.0
6761,74.0,150,120,1.0,0.0
6762,73.0,172,120,1.0,0.0
6763,72.0,758,120,1.0,0.0
6764,50.0,240,720,4.0,0.0
6765,70.0,714,960,1.0,0.0
6766,53.0,6,480,3.0,0.0
6767,69.0,142,960,1.0,0.0
6768,48.0,180,720,4.0,0.0
6769,53.0,60,420,3.0,0.0
6770,67.0,158,150,1.0,0.0
6771,48.0,60,720,4.0,0.0
6772,46.0,6,960,5.0,0.0
6773,69.0,150,120,1.0,0.0
6774,70.0,164,120,1.0,0.0
6775,72.0,106,120,1.0,0.0
6776,55.0,420,480,3.0,0.0
6777,74.0,142,120,1.0,0.0
6778,76.0,38,120,1.0,0.0
6779,48.0,180,720,4.0,0.0
6780,77.0,294,420,1.0,0.0
6781,45.0,0,900,5.0,0.0
6782,53.0,6,420,3.0,0.0
6783,77.0,294,180,1.0,0.0
6784,62.0,126,720,4.0,0.0
6785,84.0,180,240,1.0,0.0
6786,83.0,300,180,1.0,0.0
6787,65.0,240,480,3.0,0.0
6788,82.0,114,120,1.0,0.0
6789,80.0,180,240,1.0,0.0
6790,60.0,126,720,4.0,0.0
6791,81.0,300,180,1.0,0.0
6792,65.0,180,420,3.0,0.0
6793,81.0,54,120,1.0,0.0
6794,78.0,120,120,1.0,0.0
6795,60.0,120,720,4.0,0.0
6796,58.0,0,960,5.0,0.0
6797,79.0,120,120,1.0,0.0
6798,81.0,120,120,1.0,0.0
6799,82.0,120,120,1.0,0.0
6800,67.0,420,480,3.0,0.0
6801,83.0,120,120,1.0,0.0
6802,84.0,0,120,1.0,0.0
6803,86.0,120,120,1.0,0.0
6804,88.0,0,120,1.0,0.0
6805,57.0,6,900,5.0,0.0
6806,60.0,180,720,4.0,0.0
6807,89.0,300,420,1.0,0.0
6808,65.0,414,420,3.0,0.0
6809,77.0,112,360,1.0,0.0
6810,74.0,428,120,1.0,0.0
6811,62.0,0,420,5.0,0.0
6812,65.0,540,420,4.0,0.0
6813,71.0,7,960,1.0,0.0
6814,65.0,413,480,4.0,0.0
6815,62.0,0,480,5.0,0.0
6816,64.0,0,420,4.0,0.0
6817,60.0,0,420,5.0,0.0
6818,72.0,426,420,1.0,0.0
6819,74.0,98,360,1.0,0.0
6820,70.0,436,90,1.0,0.0
6821,52.0,540,420,5.0,0.0
6822,67.0,406,960,1.0,0.0
6823,60.0,0,420,4.0,0.0
6824,58.0,0,420,4.0,0.0
6825,58.0,0,480,4.0,0.0
6826,52.0,14,480,5.0,0.0
6827,60.0,0,900,4.0,0.0
6828,69.0,0,420,1.0,0.0
6829,53.0,6,420,5.0,0.0
6830,57.0,136,420,4.0,0.0
6831,58.0,44,900,4.0,0.0
6832,53.0,0,900,4.0,0.0
6833,72.0,38,90,1.0,0.0
6834,50.0,8,900,5.0,0.0
6835,70.0,60,60,1.0,0.0
6836,69.0,60,60,1.0,0.0
6837,70.0,120,60,1.0,0.0
6838,72.0,120,120,1.0,0.0
6839,74.0,120,120,1.0,0.0
6840,72.0,120,120,1.0,0.0
6841,70.0,120,120,1.0,0.0
6842,69.0,52,120,1.0,0.0
6843,67.0,316,90,1.0,0.0
6844,57.0,14,420,4.0,0.0
6845,53.0,286,420,4.0,0.0
6846,65.0,112,300,1.0,0.0
6847,48.0,6,900,5.0,0.0
6848,72.0,8,180,1.0,0.0
6849,52.0,0,420,4.0,0.0
6850,67.0,180,240,1.0,0.0
6851,72.0,534,180,1.0,0.0
6852,67.0,0,960,2.0,0.0
6853,64.0,0,960,2.0,0.0
6854,53.0,480,480,5.0,0.0
6855,70.0,0,960,1.0,0.0
6856,48.0,120,480,5.0,0.0
6857,65.0,0,120,2.0,0.0
6858,69.0,78,120,1.0,0.0
6859,41.0,18,420,5.0,0.0
6860,77.0,120,90,1.0,0.0
6861,79.0,102,90,1.0,0.0
6862,81.0,120,90,1.0,0.0
6863,82.0,120,90,1.0,0.0
6864,84.0,120,90,1.0,0.0
6865,86.0,120,90,1.0,0.0
6866,88.0,162,90,1.0,0.0
6867,89.0,120,120,1.0,0.0
6868,88.0,120,120,1.0,0.0
6869,89.0,96,120,1.0,0.0
6870,86.0,450,90,1.0,0.0
6871,67.0,0,420,5.0,0.0
6872,74.0,534,420,4.0,0.0
6873,77.0,0,420,4.0,0.0
6874,83.0,234,960,1.0,0.0
6875,74.0,6,480,4.0,0.0
6876,77.0,0,480,4.0,0.0
6877,67.0,0,480,5.0,0.0
6878,72.0,8,420,5.0,0.0
6879,84.0,194,240,1.0,0.0
6880,76.0,164,450,4.0,0.0
6881,85.0,0,180,1.0,0.0
6882,86.0,120,120,1.0,0.0
6883,85.0,114,120,1.0,0.0
6884,86.0,96,120,1.0,0.0
6885,82.0,444,90,1.0,0.0
6886,64.0,0,420,4.0,0.0
6887,60.0,300,420,5.0,0.0
6888,70.0,0,420,4.0,0.0
6889,79.0,240,720,1.0,0.0
6890,60.0,0,480,5.0,0.0
6891,64.0,0,480,4.0,0.0
6892,70.0,0,480,4.0,0.0
6893,80.0,120,240,1.0,0.0
6894,69.0,0,420,4.0,0.0
6895,65.0,30,420,5.0,0.0
6896,81.0,120,120,1.0,0.0
6897,82.0,120,120,1.0,0.0
6898,83.0,66,120,1.0,0.0
6899,84.0,264,90,1.0,0.0
6900,85.0,180,240,1.0,0.0
6901,86.0,180,180,1.0,0.0
6902,84.0,120,120,1.0,0.0
6903,58.0,6,420,5.0,0.0
6904,67.0,38,420,4.0,0.0
6905,82.0,120,120,1.0,0.0
6906,81.0,60,120,1.0,0.0
6907,79.0,262,90,1.0,0.0
6908,77.0,54,240,1.0,0.0
6909,69.0,54,420,4.0,0.0
6910,60.0,6,900,5.0,0.0
6911,79.0,60,60,1.0,0.0
6912,77.0,60,60,1.0,0.0
6913,76.0,6,60,1.0,0.0
6914,77.0,240,60,1.0,0.0
6915,76.0,166,420,1.0,0.0
6916,81.0,180,240,1.0,0.0
6917,70.0,0,420,4.0,0.0
6918,79.0,8,180,1.0,0.0
6919,65.0,6,1860,4.0,0.0
6920,71.0,15,1860,4.0,0.0
6921,67.0,0,1860,4.0,0.0
6922,77.0,120,120,1.0,0.0
6923,62.0,30,1860,5.0,0.0
6924,76.0,120,120,1.0,0.0
6925,79.0,120,120,1.0,0.0
6926,77.0,120,120,1.0,0.0
6927,81.0,120,120,1.0,0.0
6928,79.0,120,120,1.0,0.0
6929,77.0,120,120,1.0,0.0
6930,76.0,180,120,1.0,0.0
6931,74.0,60,180,1.0,0.0
6932,72.0,120,120,1.0,0.0
6933,71.0,120,120,1.0,0.0
6934,74.0,120,120,1.0,0.0
6935,79.0,126,120,1.0,0.0
6936,77.0,114,120,1.0,0.0
6937,74.0,45,120,1.0,0.0
6938,71.0,144,90,1.0,0.0
6939,52.0,15,1860,5.0,0.0
6940,60.0,0,1860,4.0,0.0
6941,58.0,7,1860,4.0,0.0
6942,55.0,29,1860,4.0,0.0
6943,70.0,120,120,1.0,0.0
6944,69.0,120,120,1.0,0.0
6945,72.0,120,120,1.0,0.0
6946,70.0,120,120,1.0,0.0
6947,74.0,120,120,1.0,0.0
6948,72.0,120,120,1.0,0.0
6949,70.0,120,120,1.0,0.0
6950,69.0,120,120,1.0,0.0
6951,67.0,120,120,1.0,0.0
6952,65.0,120,120,1.0,0.0
6953,64.0,120,120,1.0,0.0
6954,67.0,120,120,1.0,0.0
6955,72.0,120,120,1.0,0.0
6956,70.0,120,120,1.0,0.0
6957,67.0,45,120,1.0,0.0
6958,64.0,324,90,1.0,0.0
6959,45.0,134,480,5.0,0.0
6960,67.0,60,60,1.0,0.0
6961,65.0,60,60,1.0,0.0
6962,64.0,60,60,1.0,0.0
6963,65.0,0,60,1.0,0.0
6964,84.0,226,120,1.0,0.0
6965,84.0,420,120,1.0,0.0
6966,46.0,0,480,5.0,0.0
6967,69.0,60,60,1.0,0.0
6968,67.0,60,60,1.0,0.0
6969,66.0,60,60,1.0,0.0
6970,67.0,126,60,1.0,0.0
6971,86.0,234,120,1.0,0.0
6972,86.0,540,120,1.0,0.0
6973,84.0,540,420,1.0,0.0
6974,60.0,0,1440,5.0,0.0
6975,72.0,82,720,1.0,0.0
6976,69.0,240,480,4.0,0.0
6977,70.0,0,900,4.0,0.0
6978,74.0,60,90,1.0,0.0
6979,72.0,38,90,1.0,0.0
6980,71.0,60,60,1.0,0.0
6981,72.0,240,60,1.0,0.0
6982,61.0,6,420,5.0,0.0
6983,74.0,180,240,1.0,0.0
6984,76.0,174,180,1.0,0.0
6985,67.0,29,1860,4.0,0.0
6986,65.0,0,1860,4.0,0.0
6987,62.0,0,1860,5.0,0.0
6988,71.0,15,1860,4.0,0.0
6989,77.0,120,120,1.0,0.0
6990,76.0,120,120,1.0,0.0
6991,79.0,120,120,1.0,0.0
6992,77.0,126,120,1.0,0.0
6993,81.0,120,120,1.0,0.0
6994,79.0,114,120,1.0,0.0
6995,77.0,120,120,1.0,0.0
6996,76.0,120,120,1.0,0.0
6997,74.0,120,120,1.0,0.0
6998,72.0,120,120,1.0,0.0
6999,71.0,120,120,1.0,0.0
7000,74.0,120,120,1.0,0.0
7001,79.0,120,120,1.0,0.0
7002,77.0,120,120,1.0,0.0
7003,74.0,52,120,1.0,0.0
7004,71.0,144,90,1.0,0.0
7005,60.0,0,1800,4.0,0.0
7006,55.0,0,1800,4.0,0.0
7007,52.0,96,1800,5.0,0.0
7008,70.0,120,120,1.0,0.0
7009,58.0,0,1800,4.0,0.0
7010,69.0,120,120,1.0,0.0
7011,72.0,120,120,1.0,0.0
7012,70.0,134,120,1.0,0.0
7013,74.0,120,120,1.0,0.0
7014,72.0,120,120,1.0,0.0
7015,70.0,120,120,1.0,0.0
7016,69.0,112,120,1.0,0.0
7017,67.0,114,120,1.0,0.0
7018,65.0,120,120,1.0,0.0
7019,64.0,120,120,1.0,0.0
7020,67.0,120,120,1.0,0.0
7021,72.0,120,120,1.0,0.0
7022,70.0,120,120,1.0,0.0
7023,67.0,0,120,1.0,0.0
7024,64.0,144,90,1.0,0.0
7025,51.0,120,120,5.0,0.0
7026,65.0,0,1860,1.0,0.0
7027,57.0,68,1860,2.0,0.0
7028,50.0,126,120,5.0,0.0
7029,53.0,114,120,5.0,0.0
7030,51.0,120,120,5.0,0.0
7031,55.0,126,120,5.0,0.0
7032,53.0,114,120,5.0,0.0
7033,51.0,120,120,5.0,0.0
7034,50.0,120,120,5.0,0.0
7035,48.0,120,120,5.0,0.0
7036,46.0,120,120,5.0,0.0
7037,45.0,134,120,5.0,0.0
7038,43.0,106,120,5.0,0.0
7039,41.0,120,120,5.0,0.0
7040,40.0,120,120,5.0,0.0
7041,41.0,66,120,5.0,0.0
7042,39.0,226,120,5.0,0.0
7043,38.0,54,420,5.0,0.0
7044,58.0,120,120,1.0,0.0
7045,60.0,66,120,1.0,0.0
7046,62.0,120,120,1.0,0.0
7047,63.0,120,120,1.0,0.0
7048,65.0,120,120,1.0,0.0
7049,67.0,120,120,1.0,0.0
7050,69.0,120,120,1.0,0.0
7051,70.0,120,120,1.0,0.0
7052,72.0,120,120,1.0,0.0
7053,74.0,120,120,1.0,0.0
7054,75.0,120,120,1.0,0.0
7055,77.0,120,120,1.0,0.0
7056,79.0,134,120,1.0,0.0
7057,81.0,82,120,1.0,0.0
7058,82.0,420,90,1.0,0.0
7059,53.0,0,420,4.0,0.0
7060,55.0,210,420,4.0,0.0
7061,59.0,0,420,4.0,0.0
7062,49.0,0,420,5.0,0.0
7063,65.0,30,150,1.0,0.0
7064,68.0,240,150,1.0,0.0
7065,71.0,240,150,1.0,0.0
7066,77.0,240,150,1.0,0.0
7067,80.0,240,150,1.0,0.0
7068,83.0,240,150,1.0,0.0
7069,89.0,984,150,1.0,0.0
7070,36.0,966,900,5.0,0.0
7071,41.0,180,1200,5.0,0.0
7072,48.0,294,900,1.0,0.0
7073,55.0,224,1170,1.0,0.0
7074,40.0,300,180,5.0,0.0
7075,40.0,186,240,5.0,0.0
7076,36.0,250,180,5.0,0.0
7077,45.0,186,1200,5.0,0.0
7078,53.0,300,180,2.0,0.0
7079,53.0,186,240,2.0,0.0
7080,48.0,294,180,2.0,0.0
7081,58.0,180,1200,1.0,0.0
7082,43.0,294,180,5.0,0.0
7083,43.0,186,240,5.0,0.0
7084,36.0,294,180,5.0,0.0
7085,60.0,229,900,1.0,0.0
7086,41.0,240,480,5.0,0.0
7087,57.0,60,180,2.0,0.0
7088,40.0,236,660,5.0,0.0
7089,57.0,180,240,2.0,0.0
7090,55.0,15,180,2.0,0.0
7091,65.0,180,1200,1.0,0.0
7092,57.0,218,510,2.0,0.0
7093,38.0,82,180,5.0,0.0
7094,59.0,16,420,2.0,0.0
7095,38.0,186,240,5.0,0.0
7096,43.0,278,210,5.0,0.0
7097,60.0,8,420,2.0,0.0
7098,70.0,180,1200,1.0,0.0
7099,36.0,285,420,5.0,0.0
7100,64.0,7,180,2.0,0.0
7101,48.0,14,420,5.0,0.0
7102,64.0,180,240,2.0,0.0
7103,60.0,286,180,2.0,0.0
7104,53.0,294,900,5.0,0.0
7105,60.0,6,900,4.0,0.0
7106,75.0,172,1200,1.0,0.0
7107,69.0,300,180,2.0,0.0
7108,69.0,180,240,2.0,0.0
7109,65.0,0,180,2.0,0.0
7110,46.0,294,420,5.0,0.0
7111,77.0,165,1200,1.0,0.0
7112,65.0,0,900,2.0,0.0
7113,58.0,14,420,4.0,0.0
7114,74.0,0,180,2.0,0.0
7115,57.0,293,420,4.0,0.0
7116,74.0,180,240,2.0,0.0
7117,53.0,6,420,5.0,0.0
7118,72.0,8,180,2.0,0.0
7119,72.0,15,720,2.0,0.0
7120,55.0,15,900,5.0,0.0
7121,58.0,0,900,4.0,0.0
7122,82.0,180,1200,1.0,0.0
7123,76.0,293,180,2.0,0.0
7124,76.0,180,240,2.0,0.0
7125,72.0,285,180,2.0,0.0
7126,84.0,194,1200,1.0,0.0
7127,53.0,0,420,5.0,0.0
7128,60.0,0,420,4.0,0.0
7129,77.0,14,420,2.0,0.0
7130,81.0,286,180,2.0,0.0
7131,76.0,6,420,2.0,0.0
7132,64.0,0,420,4.0,0.0
7133,81.0,180,240,2.0,0.0
7134,60.0,294,420,5.0,0.0
7135,79.0,0,180,2.0,0.0
7136,79.0,8,720,2.0,0.0
7137,55.0,0,900,5.0,0.0
7138,89.0,186,1200,1.0,0.0
7139,62.0,22,900,4.0,0.0
7140,83.0,278,180,2.0,0.0
7141,83.0,180,240,2.0,0.0
7142,79.0,278,210,2.0,0.0
7143,72.0,174,1200,4.0,0.0
7144,84.0,0,420,2.0,0.0
7145,60.0,294,1860,5.0,0.0
7146,79.0,292,420,2.0,0.0
7147,88.0,2,180,1.0,0.0
7148,88.0,186,240,1.0,0.0
7149,84.0,300,180,1.0,0.0
7150,86.0,195,1200,1.0,0.0
7151,70.0,300,180,4.0,0.0
7152,70.0,172,240,4.0,0.0
7153,68.0,14,180,4.0,0.0
7154,60.0,300,1860,5.0,0.0
7155,69.0,240,1140,4.0,0.0
7156,84.0,291,180,1.0,0.0
7157,84.0,188,240,1.0,0.0
7158,81.0,226,180,1.0,0.0
7159,82.0,180,1200,1.0,0.0
7160,67.0,300,180,4.0,0.0
7161,67.0,180,240,4.0,0.0
7162,64.0,0,180,4.0,0.0
7163,65.0,180,720,4.0,0.0
7164,60.0,6,900,5.0,0.0
7165,81.0,300,180,1.0,0.0
7166,81.0,0,240,1.0,0.0
7167,78.0,180,180,1.0,0.0
7168,69.0,0,180,4.0,0.0
7169,79.0,114,120,1.0,0.0
7170,70.0,126,240,4.0,0.0
7171,60.0,15,660,5.0,0.0
7172,69.0,134,240,4.0,0.0
7173,78.0,114,120,1.0,0.0
7174,70.0,186,180,4.0,0.0
7175,79.0,31,120,1.0,0.0
7176,76.0,240,120,1.0,0.0
7177,60.0,171,660,5.0,0.0
7178,77.0,114,120,1.0,0.0
7179,69.0,126,240,4.0,0.0
7180,68.0,134,240,4.0,0.0
7181,76.0,114,120,1.0,0.0
7182,77.0,60,120,1.0,0.0
7183,69.0,1,180,4.0,0.0
7184,78.0,234,120,1.0,0.0
7185,70.0,120,240,4.0,0.0
7186,60.0,14,660,5.0,0.0
7187,79.0,120,120,1.0,0.0
7188,81.0,0,120,1.0,0.0
7189,78.0,120,120,1.0,0.0
7190,69.0,0,240,4.0,0.0
7191,81.0,180,120,1.0,0.0
7192,79.0,126,240,1.0,0.0
7193,70.0,46,180,4.0,0.0
7194,76.0,234,120,1.0,0.0
7195,77.0,120,120,1.0,0.0
7196,69.0,0,240,4.0,0.0
7197,60.0,6,660,5.0,0.0
7198,79.0,120,120,1.0,0.0
7199,68.0,180,240,4.0,0.0
7200,76.0,120,120,1.0,0.0
7201,79.0,0,120,1.0,0.0
7202,77.0,134,240,1.0,0.0
7203,69.0,54,180,4.0,0.0
7204,78.0,226,120,1.0,0.0
7205,70.0,6,420,4.0,0.0
7206,60.0,54,420,5.0,0.0
7207,79.0,120,120,1.0,0.0
7208,81.0,120,120,1.0,0.0
7209,82.0,60,120,1.0,0.0
7210,84.0,240,120,1.0,0.0
7211,86.0,126,240,1.0,0.0
7212,76.0,234,120,1.0,0.0
7213,60.0,54,420,5.0,0.0
7214,77.0,120,120,1.0,0.0
7215,69.0,6,420,4.0,0.0
7216,79.0,120,120,1.0,0.0
7217,81.0,60,120,1.0,0.0
7218,82.0,240,120,1.0,0.0
7219,84.0,126,240,1.0,0.0
7220,72.0,234,120,1.0,0.0
7221,68.0,0,3720,4.0,0.0
7222,62.0,0,3720,4.0,0.0
7223,65.0,0,3720,4.0,0.0
7224,71.0,120,120,1.0,0.0
7225,60.0,120,3720,5.0,0.0
7226,72.0,120,120,1.0,0.0
7227,74.0,120,120,1.0,0.0
7228,76.0,120,120,1.0,0.0
7229,77.0,120,120,1.0,0.0
7230,79.0,120,120,1.0,0.0
7231,80.0,120,120,1.0,0.0
7232,79.0,120,120,1.0,0.0
7233,77.0,126,120,1.0,0.0
7234,76.0,114,120,1.0,0.0
7235,74.0,120,120,1.0,0.0
7236,72.0,126,120,1.0,0.0
7237,71.0,120,120,1.0,0.0
7238,72.0,136,120,1.0,0.0
7239,74.0,104,150,1.0,0.0
7240,76.0,114,120,1.0,0.0
7241,77.0,120,120,1.0,0.0
7242,79.0,120,120,1.0,0.0
7243,80.0,120,120,1.0,0.0
7244,79.0,120,120,1.0,0.0
7245,77.0,120,120,1.0,0.0
7246,76.0,120,120,1.0,0.0
7247,74.0,120,120,1.0,0.0
7248,72.0,120,120,1.0,0.0
7249,71.0,120,120,1.0,0.0
7250,72.0,120,120,1.0,0.0
7251,74.0,120,120,1.0,0.0
7252,76.0,120,120,1.0,0.0
7253,77.0,120,120,1.0,0.0
7254,79.0,120,120,1.0,0.0
7255,81.0,0,120,1.0,0.0
7256,71.0,120,120,1.0,0.0
7257,72.0,120,120,1.0,0.0
7258,65.0,7,3780,4.0,0.0
7259,60.0,38,3810,5.0,0.0
7260,69.0,0,3780,4.0,0.0
7261,74.0,120,120,1.0,0.0
7262,72.0,120,120,1.0,0.0
7263,71.0,120,120,1.0,0.0
7264,72.0,120,120,1.0,0.0
7265,73.0,120,120,1.0,0.0
7266,74.0,120,120,1.0,0.0
7267,75.0,120,120,1.0,0.0
7268,76.0,120,120,1.0,0.0
7269,77.0,120,120,1.0,0.0
7270,78.0,120,120,1.0,0.0
7271,79.0,120,120,1.0,0.0
7272,80.0,120,120,1.0,0.0
7273,81.0,120,120,1.0,0.0
7274,82.0,120,120,1.0,0.0
7275,83.0,120,120,1.0,0.0
7276,84.0,120,120,1.0,0.0
7277,85.0,120,120,1.0,0.0
7278,86.0,120,120,1.0,0.0
7279,87.0,120,120,1.0,0.0
7280,88.0,120,120,1.0,0.0
7281,89.0,120,120,1.0,0.0
7282,88.0,120,120,1.0,0.0
7283,86.0,120,120,1.0,0.0
7284,84.0,120,120,1.0,0.0
7285,82.0,120,120,1.0,0.0
7286,81.0,120,120,1.0,0.0
7287,79.0,120,120,1.0,0.0
7288,77.0,120,120,1.0,0.0
7289,76.0,120,120,1.0,0.0
7290,74.0,60,120,1.0,0.0
7291,72.0,15,60,1.0,0.0
7292,70.0,120,60,1.0,0.0
7293,69.0,120,120,1.0,0.0
7294,70.0,120,120,1.0,0.0
7295,72.0,120,120,1.0,0.0
7296,74.0,120,120,1.0,0.0
7297,76.0,120,120,1.0,0.0
7298,77.0,120,120,1.0,0.0
7299,79.0,120,120,1.0,0.0
7300,81.0,120,120,1.0,0.0
7301,82.0,120,120,1.0,0.0
7302,84.0,120,120,1.0,0.0
7303,86.0,120,120,1.0,0.0
7304,88.0,120,120,1.0,0.0
7305,89.0,328,120,1.0,0.0
7306,77.0,120,90,1.0,0.0
7307,79.0,80,90,1.0,0.0
7308,81.0,80,90,1.0,0.0
7309,79.0,80,90,1.0,0.0
7310,81.0,80,90,1.0,0.0
7311,79.0,80,90,1.0,0.0
7312,81.0,80,90,1.0,0.0
7313,79.0,80,90,1.0,0.0
7314,81.0,80,90,1.0,0.0
7315,79.0,80,90,1.0,0.0
7316,81.0,80,90,1.0,0.0
7317,79.0,80,90,1.0,0.0
7318,81.0,80,90,1.0,0.0
7319,60.0,0,900,5.0,0.0
7320,79.0,80,90,1.0,0.0
7321,64.0,0,900,4.0,0.0
7322,70.0,28,900,4.0,0.0
7323,81.0,80,90,1.0,0.0
7324,79.0,80,90,1.0,0.0
7325,81.0,80,90,1.0,0.0
7326,79.0,80,90,1.0,0.0
7327,81.0,80,90,1.0,0.0
7328,79.0,80,90,1.0,0.0
7329,81.0,80,90,1.0,0.0
7330,79.0,126,90,1.0,0.0
7331,77.0,46,120,1.0,0.0
7332,79.0,452,90,1.0,0.0
7333,65.0,120,720,4.0,0.0
7334,77.0,300,420,1.0,0.0
7335,69.0,46,1860,3.0,0.0
7336,60.0,105,480,3.0,0.0
7337,77.0,120,120,1.0,0.0
7338,76.0,15,120,1.0,0.0
7339,79.0,120,120,1.0,0.0
7340,65.0,0,720,4.0,0.0
7341,77.0,120,120,1.0,0.0
7342,81.0,120,120,1.0,0.0
7343,79.0,120,120,1.0,0.0
7344,60.0,14,420,3.0,0.0
7345,82.0,120,120,1.0,0.0
7346,81.0,120,120,1.0,0.0
7347,84.0,60,120,1.0,0.0
7348,82.0,240,120,1.0,0.0
7349,70.0,0,1860,3.0,0.0
7350,86.0,180,240,1.0,0.0
7351,64.0,247,720,4.0,0.0
7352,84.0,300,180,1.0,0.0
7353,84.0,240,720,1.0,0.0
7354,60.0,233,480,3.0,0.0
7355,64.0,0,720,4.0,0.0
7356,83.0,240,240,1.0,0.0
7357,60.0,6,420,3.0,0.0
7358,82.0,180,240,1.0,0.0
7359,79.0,294,180,1.0,0.0
7360,65.0,120,720,4.0,0.0
7361,69.0,30,1860,3.0,0.0
7362,76.0,180,240,1.0,0.0
7363,77.0,300,180,1.0,0.0
7364,60.0,0,480,3.0,0.0
7365,77.0,120,120,1.0,0.0
7366,76.0,120,120,1.0,0.0
7367,65.0,0,720,4.0,0.0
7368,79.0,120,120,1.0,0.0
7369,77.0,120,120,1.0,0.0
7370,81.0,120,120,1.0,0.0
7371,79.0,120,120,1.0,0.0
7372,60.0,0,420,3.0,0.0
7373,82.0,120,120,1.0,0.0
7374,81.0,120,120,1.0,0.0
7375,84.0,66,120,1.0,0.0
7376,82.0,264,90,1.0,0.0
7377,70.0,16,1860,3.0,0.0
7378,86.0,180,240,1.0,0.0
7379,64.0,240,720,4.0,0.0
7380,84.0,300,180,1.0,0.0
7381,60.0,120,480,3.0,0.0
7382,84.0,120,600,1.0,0.0
7383,64.0,0,720,4.0,0.0
7384,83.0,120,120,1.0,0.0
7385,82.0,120,120,1.0,0.0
7386,81.0,126,120,1.0,0.0
7387,60.0,14,450,3.0,0.0
7388,84.0,114,120,1.0,0.0
7389,82.0,120,120,1.0,0.0
7390,81.0,66,120,1.0,0.0
7391,79.0,264,90,1.0,0.0
7392,77.0,60,240,1.0,0.0
7393,69.0,14,420,4.0,0.0
7394,65.0,46,420,5.0,0.0
7395,79.0,60,60,1.0,0.0
7396,77.0,60,60,1.0,0.0
7397,76.0,0,60,1.0,0.0
7398,77.0,606,60,1.0,0.0
7399,81.0,174,600,1.0,0.0
7400,57.0,0,420,4.0,0.0
7401,53.0,54,420,5.0,0.0
7402,74.0,60,60,1.0,0.0
7403,72.0,60,60,1.0,0.0
7404,71.0,6,60,1.0,0.0
7405,72.0,600,60,1.0,0.0
7406,77.0,216,600,1.0,0.0
7407,41.0,30,420,5.0,0.0
7408,45.0,14,420,4.0,0.0
7409,69.0,76,150,1.0,0.0
7410,72.0,180,150,1.0,0.0
7411,65.0,180,150,1.0,0.0
7412,69.0,120,150,1.0,0.0
7413,60.0,180,150,1.0,0.0
7414,65.0,180,150,1.0,0.0
7415,57.0,180,150,1.0,0.0
7416,60.0,120,150,1.0,0.0
7417,53.0,180,150,1.0,0.0
7418,57.0,120,150,1.0,0.0
7419,48.0,264,150,1.0,0.0
7420,41.0,240,240,4.0,0.0
7421,53.0,8,960,1.0,0.0
7422,43.0,240,240,4.0,0.0
7423,45.0,232,240,4.0,0.0
7424,43.0,246,240,4.0,0.0
7425,41.0,240,240,4.0,0.0
7426,57.0,60,900,1.0,0.0
7427,40.0,234,240,4.0,0.0
7428,38.0,186,240,4.0,0.0
7429,36.0,234,240,4.0,0.0
7430,34.0,178,240,4.0,0.0
7431,57.0,14,240,1.0,0.0
7432,31.0,240,240,4.0,0.0
7433,55.0,48,180,1.0,0.0
7434,36.0,186,240,4.0,0.0
7435,55.0,6,240,1.0,0.0
7436,52.0,54,180,1.0,0.0
7437,34.0,234,240,4.0,0.0
7438,53.0,6,720,1.0,0.0
7439,33.0,240,240,4.0,0.0
7440,29.0,240,240,4.0,0.0
7441,38.0,174,240,4.0,0.0
7442,57.0,60,180,1.0,0.0
7443,36.0,240,240,4.0,0.0
7444,57.0,0,240,1.0,0.0
7445,34.0,180,240,4.0,0.0
7446,31.0,240,240,4.0,0.0
7447,55.0,60,180,1.0,0.0
7448,36.0,0,240,4.0,0.0
7449,55.0,202,240,1.0,0.0
7450,52.0,38,210,1.0,0.0
7451,34.0,240,240,4.0,0.0
7452,33.0,240,240,4.0,0.0
7453,60.0,240,1200,1.0,0.0
7454,36.0,240,240,4.0,0.0
7455,41.0,240,240,4.0,0.0
7456,40.0,240,240,4.0,0.0
7457,38.0,0,240,4.0,0.0
7458,62.0,0,240,1.0,0.0
7459,31.0,120,240,4.0,0.0
7460,60.0,120,120,1.0,0.0
7461,33.0,120,240,4.0,0.0
7462,58.0,0,120,1.0,0.0
7463,34.0,0,240,4.0,0.0
7464,57.0,120,120,1.0,0.0
7465,55.0,240,120,1.0,0.0
7466,36.0,240,240,4.0,0.0
7467,53.0,240,480,1.0,0.0
7468,35.0,0,240,4.0,0.0
7469,36.0,186,240,4.0,0.0
7470,52.0,0,420,1.0,0.0
7471,34.0,294,180,4.0,0.0
7472,53.0,54,720,1.0,0.0
7473,33.0,180,240,4.0,0.0
7474,41.0,240,180,4.0,0.0
7475,45.0,66,180,4.0,0.0
7476,55.0,60,60,1.0,0.0
7477,43.0,0,240,4.0,0.0
7478,53.0,60,60,1.0,0.0
7479,52.0,60,60,1.0,0.0
7480,53.0,240,60,1.0,0.0
7481,41.0,240,240,4.0,0.0
7482,57.0,46,900,1.0,0.0
7483,40.0,240,240,4.0,0.0
7484,38.0,194,240,4.0,0.0
7485,36.0,240,240,4.0,0.0
7486,34.0,180,240,4.0,0.0
7487,57.0,0,240,1.0,0.0
7488,31.0,240,240,4.0,0.0
7489,55.0,60,180,1.0,0.0
7490,55.0,194,240,1.0,0.0
7491,36.0,0,240,4.0,0.0
7492,52.0,46,180,1.0,0.0
7493,34.0,240,240,4.0,0.0
7494,53.0,0,240,1.0,0.0
7495,33.0,90,240,4.0,0.0
7496,55.0,82,90,1.0,0.0
7497,29.0,126,240,4.0,0.0
7498,53.0,68,90,1.0,0.0
7499,52.0,0,90,1.0,0.0
7500,53.0,114,120,1.0,0.0
7501,38.0,134,240,4.0,0.0
7502,36.0,240,240,4.0,0.0
7503,57.0,106,120,1.0,0.0
7504,34.0,0,240,4.0,0.0
7505,57.0,180,240,1.0,0.0
7506,31.0,240,240,4.0,0.0
7507,55.0,60,180,1.0,0.0
7508,36.0,186,240,4.0,0.0
7509,55.0,0,240,1.0,0.0
7510,52.0,54,180,1.0,0.0
7511,34.0,240,240,4.0,0.0
7512,60.0,0,1200,1.0,0.0
7513,33.0,240,240,4.0,0.0
7514,36.0,240,240,4.0,0.0
7515,41.0,240,240,4.0,0.0
7516,40.0,240,240,4.0,0.0
7517,38.0,240,240,4.0,0.0
7518,31.0,120,240,4.0,0.0
7519,62.0,0,240,1.0,0.0
7520,60.0,120,120,1.0,0.0
7521,33.0,0,240,4.0,0.0
7522,58.0,120,120,1.0,0.0
7523,34.0,240,240,4.0,0.0
7524,57.0,112,120,1.0,0.0
7525,55.0,8,120,1.0,0.0
7526,36.0,300,420,4.0,0.0
7527,55.0,180,240,1.0,0.0
7528,53.0,0,180,1.0,0.0
7529,36.0,472,420,4.0,0.0
7530,53.0,172,240,1.0,0.0
7531,52.0,8,180,1.0,0.0
7532,29.0,8,420,5.0,0.0
7533,53.0,0,420,1.0,0.0
7534,41.0,360,420,4.0,0.0
7535,50.0,60,60,1.0,0.0
7536,48.0,60,60,1.0,0.0
7537,47.0,60,60,1.0,0.0
7538,48.0,240,60,1.0,0.0
7539,58.0,126,240,1.0,0.0
7540,52.0,240,120,1.0,0.0
7541,52.0,234,120,1.0,0.0
7542,46.0,0,480,4.0,0.0
7543,36.0,420,480,5.0,0.0
7544,52.0,120,120,1.0,0.0
7545,53.0,0,420,1.0,0.0
7546,45.0,0,420,4.0,0.0
7547,41.0,336,420,5.0,0.0
7548,50.0,64,60,1.0,0.0
7549,48.0,72,60,1.0,0.0
7550,47.0,56,60,1.0,0.0
7551,48.0,252,60,1.0,0.0
7552,58.0,126,240,1.0,0.0
7553,52.0,248,120,1.0,0.0
7554,52.0,232,120,1.0,0.0
7555,46.0,8,420,4.0,0.0
7556,36.0,286,420,5.0,0.0
7557,52.0,60,120,1.0,0.0
7558,60.0,126,240,1.0,0.0
7559,53.0,234,120,1.0,0.0
7560,41.0,300,420,5.0,0.0
7561,53.0,246,120,1.0,0.0
7562,45.0,0,420,4.0,0.0
7563,53.0,54,120,1.0,0.0
7564,62.0,120,240,1.0,0.0
7565,52.0,254,120,1.0,0.0
7566,46.0,0,420,4.0,0.0
7567,36.0,1014,420,5.0,0.0
7568,52.0,232,120,1.0,0.0
7569,52.0,60,120,1.0,0.0
7570,46.0,0,960,4.0,0.0
7571,29.0,0,1410,5.0,0.0
7572,41.0,0,1380,4.0,0.0
7573,52.0,426,960,1.0,0.0
7574,45.0,8,420,4.0,0.0
7575,53.0,8,420,1.0,0.0
