tick,type,time,meta,track,numerator,denominator,clocks_per_click,notated_32nd_notes_per_beat,key,tempo,program,channel,control,value,note,velocity
0,track_name,0,1,0,,,,,,,,,,,,
0,control_change,0,0,6,,,,,,,,2,91,90,,
0,control_change,0,0,6,,,,,,,,2,93,50,,
0,control_change,0,0,6,,,,,,,,2,10,64,,
0,control_change,0,0,6,,,,,,,,2,7,127,,
0,program_change,0,0,6,,,,,,,0,2,,,,
0,track_name,0,1,6,,,,,,,,,,,,
0,control_change,0,0,5,,,,,,,,2,91,90,,
0,control_change,0,0,5,,,,,,,,2,93,50,,
0,control_change,0,0,5,,,,,,,,2,10,64,,
0,control_change,0,0,5,,,,,,,,2,7,127,,
0,program_change,0,0,5,,,,,,,0,2,,,,
0,track_name,0,1,5,,,,,,,,,,,,
0,note_on,0,0,4,,,,,,,,1,,,60,64
0,track_name,0,1,12,,,,,,,,,,,,
0,control_change,0,0,4,,,,,,,,1,91,90,,
0,control_change,0,0,4,,,,,,,,1,7,127,,
0,program_change,0,0,4,,,,,,,60,1,,,,
0,track_name,0,1,4,,,,,,,,,,,,
0,note_on,0,0,3,,,,,,,,1,,,72,64
0,control_change,0,0,3,,,,,,,,1,91,90,,
0,control_change,0,0,3,,,,,,,,1,10,64,,
0,control_change,0,0,3,,,,,,,,1,7,127,,
0,program_change,0,0,3,,,,,,,60,1,,,,
0,track_name,0,1,3,,,,,,,,,,,,
0,note_on,0,0,2,,,,,,,,0,,,72,64
0,control_change,0,0,2,,,,,,,,0,91,90,,
0,control_change,0,0,2,,,,,,,,0,10,64,,
0,control_change,0,0,2,,,,,,,,0,7,127,,
0,control_change,0,0,4,,,,,,,,1,10,64,,
0,track_name,0,1,7,,,,,,,,,,,,
0,program_change,0,0,7,,,,,,,0,2,,,,
0,control_change,0,0,7,,,,,,,,2,7,127,,
0,note_on,0,0,11,,,,,,,,3,,,36,64
0,control_change,0,0,11,,,,,,,,3,91,90,,
0,control_change,0,0,11,,,,,,,,3,10,64,,
0,control_change,0,0,11,,,,,,,,3,7,127,,
0,program_change,0,0,11,,,,,,,48,3,,,,
0,track_name,0,1,11,,,,,,,,,,,,
0,note_on,0,0,10,,,,,,,,3,,,48,85
0,note_on,0,0,10,,,,,,,,3,,,60,85
0,control_change,0,0,10,,,,,,,,3,91,90,,
0,control_change,0,0,10,,,,,,,,3,10,64,,
0,control_change,0,0,10,,,,,,,,3,7,127,,
0,program_change,0,0,10,,,,,,,48,3,,,,
0,track_name,0,1,10,,,,,,,,,,,,
0,note_on,0,0,9,,,,,,,,3,,,55,85
0,note_on,0,0,9,,,,,,,,3,,,64,85
0,control_change,0,0,9,,,,,,,,3,91,90,,
0,control_change,0,0,9,,,,,,,,3,10,64,,
0,control_change,0,0,9,,,,,,,,3,7,127,,
0,program_change,0,0,9,,,,,,,48,3,,,,
0,track_name,0,1,9,,,,,,,,,,,,
0,note_on,0,0,8,,,,,,,,3,,,72,85
0,control_change,0,0,8,,,,,,,,3,91,90,,
0,control_change,0,0,8,,,,,,,,3,10,64,,
0,control_change,0,0,8,,,,,,,,3,7,127,,
0,program_change,0,0,8,,,,,,,48,3,,,,
0,track_name,0,1,8,,,,,,,,,,,,
0,control_change,0,0,7,,,,,,,,2,91,90,,
0,control_change,0,0,7,,,,,,,,2,93,50,,
0,control_change,0,0,7,,,,,,,,2,10,64,,
0,program_change,0,0,2,,,,,,,68,0,,,,
0,track_name,0,1,2,,,,,,,,,,,,
0,end_of_track,0,1,12,,,,,,,,,,,,
0,set_tempo,0,1,0,,,,,,521739,,,,,,
0,end_of_track,0,1,0,,,,,,,,,,,,
0,track_name,0,1,1,,,,,,,,,,,,
0,control_change,0,0,1,,,,,,,,0,7,127,,
0,control_change,0,0,1,,,,,,,,0,10,64,,
0,control_change,0,0,1,,,,,,,,0,91,90,,
0,note_on,0,0,1,,,,,,,,0,,,72,64
0,key_signature,0,1,0,,,,,C,,,,,,,
0,time_signature,0,1,0,4,4,24,8,,,,,,,,
0,program_change,0,0,1,,,,,,,68,0,,,,
0,copyright,0,1,0,,,,,,,,,,,,
0,track_name,0,1,0,,,,,,,,,,,,
0,text,0,1,0,,,,,,,,,,,,
177,note_on,177,0,1,,,,,,,,0,,,72,0
177,note_on,177,0,4,,,,,,,,1,,,60,0
177,note_on,177,0,2,,,,,,,,0,,,72,0
177,note_on,0,0,10,,,,,,,,3,,,60,0
177,note_on,177,0,10,,,,,,,,3,,,48,0
177,note_on,0,0,9,,,,,,,,3,,,64,0
177,note_on,177,0,8,,,,,,,,3,,,72,0
177,note_on,177,0,9,,,,,,,,3,,,55,0
177,note_on,177,0,11,,,,,,,,3,,,36,0
177,note_on,177,0,3,,,,,,,,1,,,72,0
192,note_on,15,0,2,,,,,,,,0,,,76,64
192,note_on,15,0,8,,,,,,,,3,,,76,85
192,note_on,15,0,1,,,,,,,,0,,,76,64
231,note_on,39,0,2,,,,,,,,0,,,76,0
231,note_on,39,0,8,,,,,,,,3,,,76,0
231,note_on,39,0,1,,,,,,,,0,,,76,0
288,note_on,57,0,1,,,,,,,,0,,,79,64
288,note_on,57,0,2,,,,,,,,0,,,79,64
288,note_on,57,0,8,,,,,,,,3,,,79,85
327,note_on,39,0,2,,,,,,,,0,,,79,0
327,note_on,39,0,8,,,,,,,,3,,,79,0
327,note_on,39,0,1,,,,,,,,0,,,79,0
384,note_on,207,0,10,,,,,,,,3,,,60,85
384,note_on,57,0,8,,,,,,,,3,,,84,85
384,note_on,57,0,2,,,,,,,,0,,,79,64
384,note_on,57,0,1,,,,,,,,0,,,84,64
384,note_on,207,0,4,,,,,,,,1,,,72,64
384,note_on,207,0,3,,,,,,,,1,,,76,64
384,note_on,207,0,9,,,,,,,,3,,,64,85
384,note_on,207,0,11,,,,,,,,3,,,36,64
384,note_on,0,0,9,,,,,,,,3,,,55,85
429,note_on,45,0,9,,,,,,,,3,,,55,0
429,note_on,45,0,10,,,,,,,,3,,,60,0
429,note_on,0,0,9,,,,,,,,3,,,64,0
429,note_on,45,0,8,,,,,,,,3,,,84,0
429,note_on,45,0,11,,,,,,,,3,,,36,0
429,note_on,45,0,1,,,,,,,,0,,,84,0
432,note_on,3,0,11,,,,,,,,3,,,36,64
432,note_on,3,0,8,,,,,,,,3,,,79,85
432,note_on,3,0,1,,,,,,,,0,,,79,64
432,note_on,3,0,10,,,,,,,,3,,,60,85
432,note_on,3,0,9,,,,,,,,3,,,64,85
432,note_on,0,0,9,,,,,,,,3,,,55,85
473,note_on,89,0,3,,,,,,,,1,,,76,0
473,note_on,89,0,4,,,,,,,,1,,,72,0
477,note_on,45,0,8,,,,,,,,3,,,79,0
477,note_on,45,0,11,,,,,,,,3,,,36,0
477,note_on,45,0,1,,,,,,,,0,,,79,0
477,note_on,45,0,10,,,,,,,,3,,,60,0
480,note_on,7,0,4,,,,,,,,1,,,72,64
480,note_on,3,0,10,,,,,,,,3,,,60,85
480,note_on,3,0,1,,,,,,,,0,,,79,64
480,note_on,3,0,11,,,,,,,,3,,,36,64
480,note_on,7,0,3,,,,,,,,1,,,76,64
480,note_on,3,0,8,,,,,,,,3,,,79,85
521,note_on,0,0,9,,,,,,,,3,,,64,0
521,note_on,89,0,9,,,,,,,,3,,,55,0
525,note_on,45,0,11,,,,,,,,3,,,36,0
525,note_on,45,0,10,,,,,,,,3,,,60,0
528,note_on,3,0,11,,,,,,,,3,,,36,64
528,note_on,0,0,9,,,,,,,,3,,,55,85
528,note_on,7,0,9,,,,,,,,3,,,64,85
528,note_on,3,0,10,,,,,,,,3,,,60,85
547,note_on,67,0,3,,,,,,,,1,,,76,0
547,note_on,67,0,4,,,,,,,,1,,,72,0
552,note_on,5,0,3,,,,,,,,1,,,76,64
552,note_on,5,0,4,,,,,,,,1,,,72,64
573,note_on,45,0,11,,,,,,,,3,,,36,0
573,note_on,45,0,10,,,,,,,,3,,,60,0
575,note_on,23,0,4,,,,,,,,1,,,72,0
575,note_on,23,0,3,,,,,,,,1,,,76,0
576,note_on,3,0,11,,,,,,,,3,,,36,64
576,note_on,1,0,3,,,,,,,,1,,,76,64
576,note_on,1,0,4,,,,,,,,1,,,72,64
576,note_on,3,0,10,,,,,,,,3,,,60,85
617,note_on,89,0,9,,,,,,,,3,,,55,0
617,note_on,0,0,9,,,,,,,,3,,,64,0
621,note_on,45,0,11,,,,,,,,3,,,36,0
621,note_on,45,0,10,,,,,,,,3,,,60,0
624,note_on,3,0,11,,,,,,,,3,,,36,64
624,note_on,7,0,9,,,,,,,,3,,,64,85
624,note_on,3,0,10,,,,,,,,3,,,60,85
657,note_on,177,0,8,,,,,,,,3,,,79,0
657,note_on,177,0,1,,,,,,,,0,,,79,0
665,note_on,89,0,3,,,,,,,,1,,,76,0
665,note_on,89,0,4,,,,,,,,1,,,72,0
669,note_on,45,0,11,,,,,,,,3,,,36,0
669,note_on,45,0,9,,,,,,,,3,,,64,0
669,note_on,45,0,10,,,,,,,,3,,,60,0
672,note_on,3,0,11,,,,,,,,3,,,36,64
672,note_on,15,0,8,,,,,,,,3,,,81,85
672,note_on,3,0,10,,,,,,,,3,,,60,85
672,note_on,3,0,9,,,,,,,,3,,,65,85
672,note_on,15,0,1,,,,,,,,0,,,81,64
672,note_on,7,0,4,,,,,,,,1,,,72,64
672,note_on,7,0,3,,,,,,,,1,,,77,64
695,note_on,23,0,8,,,,,,,,3,,,81,0
695,note_on,23,0,1,,,,,,,,0,,,81,0
696,note_on,1,0,8,,,,,,,,3,,,79,85
696,note_on,1,0,1,,,,,,,,0,,,79,64
717,note_on,45,0,10,,,,,,,,3,,,60,0
717,note_on,45,0,9,,,,,,,,3,,,65,0
717,note_on,45,0,11,,,,,,,,3,,,36,0
719,note_on,23,0,8,,,,,,,,3,,,79,0
719,note_on,23,0,1,,,,,,,,0,,,79,0
720,note_on,1,0,1,,,,,,,,0,,,81,64
720,note_on,3,0,10,,,,,,,,3,,,60,85
720,note_on,3,0,9,,,,,,,,3,,,65,85
720,note_on,3,0,11,,,,,,,,3,,,36,64
720,note_on,1,0,8,,,,,,,,3,,,81,85
740,note_on,20,0,9,,,,,,,,3,,,65,0
743,note_on,23,0,8,,,,,,,,3,,,81,0
743,note_on,23,0,1,,,,,,,,0,,,81,0
744,note_on,1,0,1,,,,,,,,0,,,83,64
744,note_on,1,0,8,,,,,,,,3,,,83,85
761,note_on,89,0,3,,,,,,,,1,,,77,0
761,note_on,89,0,4,,,,,,,,1,,,72,0
765,note_on,45,0,11,,,,,,,,3,,,36,0
765,note_on,45,0,10,,,,,,,,3,,,60,0
767,note_on,23,0,1,,,,,,,,0,,,83,0
767,note_on,23,0,8,,,,,,,,3,,,83,0
768,note_on,3,0,10,,,,,,,,3,,,60,85
768,note_on,7,0,3,,,,,,,,1,,,76,64
768,note_on,7,0,4,,,,,,,,1,,,72,64
768,note_on,28,0,9,,,,,,,,3,,,64,85
768,note_on,3,0,11,,,,,,,,3,,,36,64
768,note_on,1,0,1,,,,,,,,0,,,84,64
768,note_on,1,0,8,,,,,,,,3,,,84,85
788,note_on,20,0,8,,,,,,,,3,,,84,0
788,note_on,20,0,1,,,,,,,,0,,,84,0
813,note_on,45,0,9,,,,,,,,3,,,64,0
813,note_on,45,0,11,,,,,,,,3,,,36,0
813,note_on,45,0,10,,,,,,,,3,,,60,0
816,note_on,3,0,9,,,,,,,,3,,,64,85
816,note_on,3,0,10,,,,,,,,3,,,60,85
816,note_on,28,0,1,,,,,,,,0,,,79,64
816,note_on,28,0,8,,,,,,,,3,,,79,85
816,note_on,3,0,11,,,,,,,,3,,,36,64
836,note_on,20,0,8,,,,,,,,3,,,79,0
836,note_on,20,0,1,,,,,,,,0,,,79,0
857,note_on,89,0,3,,,,,,,,1,,,76,0
861,note_on,45,0,11,,,,,,,,3,,,36,0
861,note_on,45,0,9,,,,,,,,3,,,64,0
861,note_on,45,0,10,,,,,,,,3,,,60,0
864,note_on,28,0,8,,,,,,,,3,,,81,85
864,note_on,7,0,3,,,,,,,,1,,,77,64
864,note_on,28,0,1,,,,,,,,0,,,81,64
864,note_on,3,0,10,,,,,,,,3,,,60,85
864,note_on,3,0,9,,,,,,,,3,,,65,85
864,note_on,3,0,11,,,,,,,,3,,,36,64
887,note_on,23,0,8,,,,,,,,3,,,81,0
887,note_on,23,0,1,,,,,,,,0,,,81,0
888,note_on,1,0,1,,,,,,,,0,,,79,64
888,note_on,1,0,8,,,,,,,,3,,,79,85
909,note_on,45,0,11,,,,,,,,3,,,36,0
909,note_on,45,0,10,,,,,,,,3,,,60,0
909,note_on,45,0,9,,,,,,,,3,,,65,0
911,note_on,23,0,1,,,,,,,,0,,,79,0
911,note_on,23,0,8,,,,,,,,3,,,79,0
912,note_on,3,0,10,,,,,,,,3,,,60,85
912,note_on,3,0,9,,,,,,,,3,,,65,85
912,note_on,1,0,1,,,,,,,,0,,,81,64
912,note_on,3,0,11,,,,,,,,3,,,36,64
912,note_on,1,0,8,,,,,,,,3,,,81,85
935,note_on,23,0,1,,,,,,,,0,,,81,0
935,note_on,23,0,8,,,,,,,,3,,,81,0
936,note_on,1,0,8,,,,,,,,3,,,83,85
936,note_on,1,0,1,,,,,,,,0,,,83,64
953,note_on,89,0,3,,,,,,,,1,,,77,0
957,note_on,45,0,9,,,,,,,,3,,,65,0
957,note_on,45,0,10,,,,,,,,3,,,60,0
957,note_on,45,0,11,,,,,,,,3,,,36,0
959,note_on,23,0,1,,,,,,,,0,,,83,0
959,note_on,23,0,8,,,,,,,,3,,,83,0
960,note_on,3,0,9,,,,,,,,3,,,64,85
960,note_on,1,0,8,,,,,,,,3,,,84,85
960,note_on,1,0,1,,,,,,,,0,,,84,64
960,note_on,3,0,10,,,,,,,,3,,,60,85
960,note_on,3,0,11,,,,,,,,3,,,36,64
960,note_on,7,0,3,,,,,,,,1,,,76,64
980,note_on,20,0,8,,,,,,,,3,,,84,0
980,note_on,20,0,1,,,,,,,,0,,,84,0
1005,note_on,45,0,10,,,,,,,,3,,,60,0
1005,note_on,45,0,11,,,,,,,,3,,,36,0
1005,note_on,45,0,9,,,,,,,,3,,,64,0
1008,note_on,3,0,9,,,,,,,,3,,,64,85
1008,note_on,28,0,1,,,,,,,,0,,,79,64
1008,note_on,3,0,10,,,,,,,,3,,,60,85
1008,note_on,3,0,11,,,,,,,,3,,,36,64
1008,note_on,28,0,8,,,,,,,,3,,,79,85
1028,note_on,20,0,8,,,,,,,,3,,,79,0
1028,note_on,20,0,1,,,,,,,,0,,,79,0
1049,note_on,89,0,3,,,,,,,,1,,,76,0
1053,note_on,45,0,11,,,,,,,,3,,,36,0
1053,note_on,45,0,9,,,,,,,,3,,,64,0
1053,note_on,45,0,10,,,,,,,,3,,,60,0
1056,note_on,7,0,3,,,,,,,,1,,,77,64
1056,note_on,28,0,8,,,,,,,,3,,,81,85
1056,note_on,28,0,1,,,,,,,,0,,,81,64
1056,note_on,3,0,11,,,,,,,,3,,,36,64
1056,note_on,3,0,9,,,,,,,,3,,,65,85
1056,note_on,3,0,10,,,,,,,,3,,,60,85
1079,note_on,23,0,1,,,,,,,,0,,,81,0
1079,note_on,23,0,8,,,,,,,,3,,,81,0
1080,note_on,1,0,8,,,,,,,,3,,,79,85
1080,note_on,1,0,1,,,,,,,,0,,,79,64
1101,note_on,45,0,11,,,,,,,,3,,,36,0
1101,note_on,45,0,9,,,,,,,,3,,,65,0
1101,note_on,45,0,10,,,,,,,,3,,,60,0
1103,note_on,23,0,8,,,,,,,,3,,,79,0
1103,note_on,23,0,1,,,,,,,,0,,,79,0
1104,note_on,3,0,10,,,,,,,,3,,,60,85
1104,note_on,1,0,1,,,,,,,,0,,,81,64
1104,note_on,3,0,9,,,,,,,,3,,,65,85
1104,note_on,1,0,8,,,,,,,,3,,,81,85
1104,note_on,3,0,11,,,,,,,,3,,,36,64
1127,note_on,23,0,1,,,,,,,,0,,,81,0
1127,note_on,23,0,8,,,,,,,,3,,,81,0
1128,note_on,1,0,8,,,,,,,,3,,,83,85
1128,note_on,1,0,1,,,,,,,,0,,,83,64
1145,note_on,89,0,3,,,,,,,,1,,,77,0
1149,note_on,45,0,9,,,,,,,,3,,,65,0
1149,note_on,45,0,10,,,,,,,,3,,,60,0
1149,note_on,45,0,11,,,,,,,,3,,,36,0
1151,note_on,23,0,8,,,,,,,,3,,,83,0
1151,note_on,23,0,1,,,,,,,,0,,,83,0
1152,note_on,3,0,9,,,,,,,,3,,,64,85
1152,note_on,1,0,1,,,,,,,,0,,,84,64
1152,note_on,3,0,10,,,,,,,,3,,,60,85
1152,note_on,1,0,8,,,,,,,,3,,,84,85
1152,note_on,3,0,11,,,,,,,,3,,,36,64
1152,note_on,7,0,3,,,,,,,,1,,,76,64
1172,note_on,20,0,3,,,,,,,,1,,,76,0
1172,note_on,404,0,4,,,,,,,,1,,,72,0
1197,note_on,45,0,10,,,,,,,,3,,,60,0
1197,note_on,45,0,1,,,,,,,,0,,,84,0
1197,note_on,45,0,11,,,,,,,,3,,,36,0
1197,note_on,813,0,2,,,,,,,,0,,,79,0
1197,note_on,45,0,8,,,,,,,,3,,,84,0
1200,note_on,3,0,1,,,,,,,,0,,,79,64
1200,note_on,28,0,4,,,,,,,,1,,,72,64
1200,note_on,3,0,11,,,,,,,,3,,,48,64
1200,note_on,28,0,3,,,,,,,,1,,,72,64
1200,note_on,3,0,2,,,,,,,,0,,,76,64
1200,note_on,3,0,8,,,,,,,,3,,,79,85
1200,note_on,3,0,10,,,,,,,,3,,,72,85
1220,note_on,20,0,4,,,,,,,,1,,,72,0
1220,note_on,20,0,3,,,,,,,,1,,,72,0
1241,note_on,89,0,9,,,,,,,,3,,,64,0
1245,note_on,45,0,10,,,,,,,,3,,,72,0
1245,note_on,45,0,8,,,,,,,,3,,,79,0
1245,note_on,45,0,1,,,,,,,,0,,,79,0
1245,note_on,45,0,2,,,,,,,,0,,,76,0
1245,note_on,45,0,11,,,,,,,,3,,,48,0
1248,note_on,3,0,11,,,,,,,,3,,,43,64
1248,note_on,28,0,3,,,,,,,,1,,,67,64
1248,note_on,3,0,1,,,,,,,,0,,,79,64
1248,note_on,0,0,9,,,,,,,,3,,,64,85
1248,note_on,3,0,10,,,,,,,,3,,,67,85
1248,note_on,28,0,4,,,,,,,,1,,,67,64
1248,note_on,3,0,8,,,,,,,,3,,,79,85
1248,note_on,3,0,2,,,,,,,,0,,,76,64
1248,note_on,0,0,9,,,,,,,,3,,,55,85
1248,note_on,7,0,9,,,,,,,,3,,,72,85
1268,note_on,20,0,4,,,,,,,,1,,,67,0
1268,note_on,20,0,3,,,,,,,,1,,,67,0
1293,note_on,45,0,10,,,,,,,,3,,,67,0
1293,note_on,45,0,11,,,,,,,,3,,,43,0
1296,note_on,28,0,4,,,,,,,,1,,,64,64
1296,note_on,3,0,10,,,,,,,,3,,,64,85
1296,note_on,28,0,3,,,,,,,,1,,,64,64
1296,note_on,3,0,11,,,,,,,,3,,,40,64
1316,note_on,20,0,3,,,,,,,,1,,,64,0
1316,note_on,20,0,4,,,,,,,,1,,,64,0
1337,note_on,89,0,9,,,,,,,,3,,,55,0
1337,note_on,0,0,9,,,,,,,,3,,,64,0
1337,note_on,0,0,9,,,,,,,,3,,,72,0
1341,note_on,45,0,10,,,,,,,,3,,,64,0
1341,note_on,45,0,11,,,,,,,,3,,,40,0
1344,note_on,3,0,10,,,,,,,,3,,,60,85
1344,note_on,7,0,9,,,,,,,,3,,,76,85
1344,note_on,0,0,9,,,,,,,,3,,,72,85
1344,note_on,0,0,9,,,,,,,,3,,,67,85
1344,note_on,28,0,4,,,,,,,,1,,,60,64
1344,note_on,28,0,3,,,,,,,,1,,,60,64
1344,note_on,3,0,11,,,,,,,,3,,,36,64
1381,note_on,133,0,8,,,,,,,,3,,,79,0
1392,note_on,11,0,8,,,,,,,,3,,,81,85
1402,note_on,10,0,8,,,,,,,,3,,,81,0
1416,note_on,14,0,8,,,,,,,,3,,,79,85
1425,note_on,177,0,1,,,,,,,,0,,,79,0
1425,note_on,177,0,2,,,,,,,,0,,,76,0
1426,note_on,10,0,8,,,,,,,,3,,,79,0
1433,note_on,89,0,4,,,,,,,,1,,,60,0
1433,note_on,89,0,10,,,,,,,,3,,,60,0
1433,note_on,0,0,9,,,,,,,,3,,,76,0
1433,note_on,0,0,9,,,,,,,,3,,,72,0
1433,note_on,89,0,9,,,,,,,,3,,,67,0
1433,note_on,89,0,3,,,,,,,,1,,,60,0
1433,note_on,89,0,11,,,,,,,,3,,,36,0
1440,note_on,14,0,8,,,,,,,,3,,,77,85
1463,note_on,23,0,8,,,,,,,,3,,,77,0
1464,note_on,1,0,8,,,,,,,,3,,,76,85
1487,note_on,23,0,8,,,,,,,,3,,,76,0
1488,note_on,1,0,8,,,,,,,,3,,,74,85
1498,note_on,10,0,8,,,,,,,,3,,,74,0
1512,note_on,14,0,8,,,,,,,,3,,,72,85
1522,note_on,10,0,8,,,,,,,,3,,,72,0
1536,note_on,14,0,8,,,,,,,,3,,,71,43
1536,note_on,103,0,9,,,,,,,,3,,,65,43
1581,note_on,45,0,9,,,,,,,,3,,,65,0
1584,note_on,3,0,9,,,,,,,,3,,,55,43
1629,note_on,45,0,9,,,,,,,,3,,,55,0
1632,note_on,3,0,9,,,,,,,,3,,,65,43
1677,note_on,45,0,9,,,,,,,,3,,,65,0
1680,note_on,3,0,9,,,,,,,,3,,,55,43
1713,note_on,177,0,8,,,,,,,,3,,,71,0
1725,note_on,45,0,9,,,,,,,,3,,,55,0
1728,note_on,3,0,9,,,,,,,,3,,,64,43
1728,note_on,15,0,8,,,,,,,,3,,,72,43
1740,note_on,0,0,8,,,,,,,,3,,,74,43
1740,note_on,12,0,8,,,,,,,,3,,,72,0
1752,note_on,0,0,8,,,,,,,,3,,,72,43
1752,note_on,12,0,8,,,,,,,,3,,,74,0
1764,note_on,0,0,8,,,,,,,,3,,,74,43
1764,note_on,12,0,8,,,,,,,,3,,,72,0
1773,note_on,45,0,9,,,,,,,,3,,,64,0
1776,note_on,12,0,8,,,,,,,,3,,,74,0
1776,note_on,0,0,8,,,,,,,,3,,,72,43
1776,note_on,3,0,9,,,,,,,,3,,,55,43
1788,note_on,0,0,8,,,,,,,,3,,,74,43
1788,note_on,12,0,8,,,,,,,,3,,,72,0
1800,note_on,0,0,8,,,,,,,,3,,,72,43
1800,note_on,12,0,8,,,,,,,,3,,,74,0
1812,note_on,12,0,8,,,,,,,,3,,,72,0
1812,note_on,0,0,8,,,,,,,,3,,,74,43
1821,note_on,45,0,9,,,,,,,,3,,,55,0
1824,note_on,3,0,9,,,,,,,,3,,,64,43
1824,note_on,12,0,8,,,,,,,,3,,,74,0
1824,note_on,0,0,8,,,,,,,,3,,,72,43
1836,note_on,12,0,8,,,,,,,,3,,,72,0
1836,note_on,0,0,8,,,,,,,,3,,,74,43
1848,note_on,0,0,8,,,,,,,,3,,,72,43
1848,note_on,12,0,8,,,,,,,,3,,,74,0
1860,note_on,12,0,8,,,,,,,,3,,,72,0
1860,note_on,0,0,8,,,,,,,,3,,,74,43
1861,note_on,1,0,8,,,,,,,,3,,,74,0
1869,note_on,45,0,9,,,,,,,,3,,,64,0
1872,note_on,11,0,8,,,,,,,,3,,,71,43
1872,note_on,3,0,9,,,,,,,,3,,,55,43
1895,note_on,23,0,8,,,,,,,,3,,,71,0
1896,note_on,1,0,8,,,,,,,,3,,,72,43
1917,note_on,45,0,9,,,,,,,,3,,,55,0
1919,note_on,23,0,8,,,,,,,,3,,,72,0
1920,note_on,3,0,9,,,,,,,,3,,,59,43
1920,note_on,487,0,10,,,,,,,,3,,,65,43
1920,note_on,1,0,8,,,,,,,,3,,,74,43
1965,note_on,45,0,10,,,,,,,,3,,,65,0
1965,note_on,45,0,9,,,,,,,,3,,,59,0
1968,note_on,3,0,10,,,,,,,,3,,,55,43
1968,note_on,3,0,9,,,,,,,,3,,,55,43
2013,note_on,45,0,10,,,,,,,,3,,,55,0
2013,note_on,45,0,9,,,,,,,,3,,,55,0
2016,note_on,3,0,10,,,,,,,,3,,,65,43
2016,note_on,3,0,9,,,,,,,,3,,,59,43
2061,note_on,45,0,9,,,,,,,,3,,,59,0
2061,note_on,45,0,10,,,,,,,,3,,,65,0
2064,note_on,3,0,10,,,,,,,,3,,,55,43
2064,note_on,3,0,9,,,,,,,,3,,,55,43
2097,note_on,177,0,8,,,,,,,,3,,,74,0
2109,note_on,45,0,9,,,,,,,,3,,,55,0
2109,note_on,45,0,10,,,,,,,,3,,,55,0
2112,note_on,3,0,9,,,,,,,,3,,,60,43
2112,note_on,3,0,10,,,,,,,,3,,,64,43
2112,note_on,15,0,8,,,,,,,,3,,,76,43
2124,note_on,0,0,8,,,,,,,,3,,,77,43
2124,note_on,12,0,8,,,,,,,,3,,,76,0
2136,note_on,0,0,8,,,,,,,,3,,,76,43
2136,note_on,12,0,8,,,,,,,,3,,,77,0
2148,note_on,0,0,8,,,,,,,,3,,,77,43
2148,note_on,12,0,8,,,,,,,,3,,,76,0
2157,note_on,45,0,9,,,,,,,,3,,,60,0
2157,note_on,45,0,10,,,,,,,,3,,,64,0
2160,note_on,3,0,9,,,,,,,,3,,,55,43
2160,note_on,0,0,8,,,,,,,,3,,,76,43
2160,note_on,12,0,8,,,,,,,,3,,,77,0
2160,note_on,3,0,10,,,,,,,,3,,,55,43
2172,note_on,0,0,8,,,,,,,,3,,,77,43
2172,note_on,12,0,8,,,,,,,,3,,,76,0
2184,note_on,12,0,8,,,,,,,,3,,,77,0
2184,note_on,0,0,8,,,,,,,,3,,,76,43
2196,note_on,12,0,8,,,,,,,,3,,,76,0
2196,note_on,0,0,8,,,,,,,,3,,,77,43
2205,note_on,45,0,9,,,,,,,,3,,,55,0
2205,note_on,45,0,10,,,,,,,,3,,,55,0
2208,note_on,3,0,10,,,,,,,,3,,,64,43
2208,note_on,12,0,8,,,,,,,,3,,,77,0
2208,note_on,0,0,8,,,,,,,,3,,,76,43
2208,note_on,3,0,9,,,,,,,,3,,,60,43
2220,note_on,0,0,8,,,,,,,,3,,,77,43
2220,note_on,12,0,8,,,,,,,,3,,,76,0
2232,note_on,0,0,8,,,,,,,,3,,,76,43
2232,note_on,12,0,8,,,,,,,,3,,,77,0
2244,note_on,0,0,8,,,,,,,,3,,,77,43
2244,note_on,12,0,8,,,,,,,,3,,,76,0
2245,note_on,1,0,8,,,,,,,,3,,,77,0
2253,note_on,45,0,10,,,,,,,,3,,,64,0
2253,note_on,45,0,9,,,,,,,,3,,,60,0
2256,note_on,11,0,8,,,,,,,,3,,,74,43
2256,note_on,3,0,10,,,,,,,,3,,,55,43
2256,note_on,3,0,9,,,,,,,,3,,,55,43
2279,note_on,23,0,8,,,,,,,,3,,,74,0
2280,note_on,1,0,8,,,,,,,,3,,,76,43
2301,note_on,45,0,9,,,,,,,,3,,,55,0
2301,note_on,45,0,10,,,,,,,,3,,,55,0
2303,note_on,23,0,8,,,,,,,,3,,,76,0
2304,note_on,1,0,8,,,,,,,,3,,,77,85
2304,note_on,871,0,3,,,,,,,,1,,,74,64
2304,note_on,879,0,2,,,,,,,,0,,,77,64
2304,note_on,879,0,1,,,,,,,,0,,,79,64
2304,note_on,871,0,4,,,,,,,,1,,,67,64
2304,note_on,0,0,9,,,,,,,,3,,,55,85
2304,note_on,3,0,9,,,,,,,,3,,,67,85
2304,note_on,871,0,11,,,,,,,,3,,,47,64
2304,note_on,3,0,10,,,,,,,,3,,,62,85
2343,note_on,39,0,9,,,,,,,,3,,,55,0
2343,note_on,0,0,9,,,,,,,,3,,,67,0
2343,note_on,39,0,10,,,,,,,,3,,,62,0
2343,note_on,39,0,8,,,,,,,,3,,,77,0
2343,note_on,39,0,11,,,,,,,,3,,,47,0
2393,note_on,89,0,3,,,,,,,,1,,,74,0
2393,note_on,89,0,2,,,,,,,,0,,,77,0
2393,note_on,89,0,4,,,,,,,,1,,,67,0
2400,note_on,57,0,11,,,,,,,,3,,,48,64
2400,note_on,57,0,9,,,,,,,,3,,,67,85
2400,note_on,0,0,9,,,,,,,,3,,,55,85
2400,note_on,7,0,4,,,,,,,,1,,,72,64
2400,note_on,7,0,2,,,,,,,,0,,,76,64
2400,note_on,7,0,3,,,,,,,,1,,,76,64
2400,note_on,57,0,10,,,,,,,,3,,,60,85
2400,note_on,57,0,8,,,,,,,,3,,,76,85
2439,note_on,0,0,9,,,,,,,,3,,,67,0
2439,note_on,39,0,9,,,,,,,,3,,,55,0
2439,note_on,39,0,8,,,,,,,,3,,,76,0
2439,note_on,39,0,10,,,,,,,,3,,,60,0
2439,note_on,39,0,11,,,,,,,,3,,,48,0
2481,note_on,177,0,1,,,,,,,,0,,,79,0
2489,note_on,89,0,2,,,,,,,,0,,,76,0
2489,note_on,89,0,3,,,,,,,,1,,,76,0
2489,note_on,89,0,4,,,,,,,,1,,,72,0
2496,note_on,57,0,11,,,,,,,,3,,,41,64
2496,note_on,7,0,4,,,,,,,,1,,,76,64
2496,note_on,57,0,8,,,,,,,,3,,,76,85
2496,note_on,57,0,10,,,,,,,,3,,,57,85
2496,note_on,7,0,2,,,,,,,,0,,,76,64
2496,note_on,7,0,3,,,,,,,,1,,,79,64
2496,note_on,15,0,1,,,,,,,,0,,,79,64
2496,note_on,57,0,9,,,,,,,,3,,,67,85
2502,note_on,6,0,8,,,,,,,,3,,,76,0
2502,note_on,6,0,1,,,,,,,,0,,,79,0
2502,note_on,0,0,1,,,,,,,,0,,,77,64
2502,note_on,6,0,2,,,,,,,,0,,,76,0
2502,note_on,0,0,2,,,,,,,,0,,,74,64
2502,note_on,6,0,3,,,,,,,,1,,,79,0
2502,note_on,0,0,3,,,,,,,,1,,,77,64
2502,note_on,0,0,9,,,,,,,,3,,,65,85
2502,note_on,0,0,8,,,,,,,,3,,,74,85
2502,note_on,6,0,9,,,,,,,,3,,,67,0
2502,note_on,0,0,4,,,,,,,,1,,,74,64
2502,note_on,6,0,4,,,,,,,,1,,,76,0
2535,note_on,39,0,10,,,,,,,,3,,,57,0
2535,note_on,39,0,11,,,,,,,,3,,,41,0
2585,note_on,83,0,9,,,,,,,,3,,,65,0
2585,note_on,83,0,3,,,,,,,,1,,,77,0
2585,note_on,83,0,8,,,,,,,,3,,,74,0
2585,note_on,83,0,2,,,,,,,,0,,,74,0
2585,note_on,83,0,1,,,,,,,,0,,,77,0
2585,note_on,83,0,4,,,,,,,,1,,,74,0
2592,note_on,7,0,3,,,,,,,,1,,,76,64
2592,note_on,57,0,11,,,,,,,,3,,,43,64
2592,note_on,7,0,9,,,,,,,,3,,,64,85
2592,note_on,7,0,2,,,,,,,,0,,,72,64
2592,note_on,7,0,4,,,,,,,,1,,,72,64
2592,note_on,7,0,8,,,,,,,,3,,,72,85
2592,note_on,57,0,10,,,,,,,,3,,,55,85
2592,note_on,7,0,1,,,,,,,,0,,,76,64
2612,note_on,20,0,3,,,,,,,,1,,,76,0
2612,note_on,20,0,4,,,,,,,,1,,,72,0
2612,note_on,20,0,9,,,,,,,,3,,,64,0
2612,note_on,20,0,8,,,,,,,,3,,,72,0
2612,note_on,20,0,1,,,,,,,,0,,,76,0
2612,note_on,20,0,2,,,,,,,,0,,,72,0
2631,note_on,39,0,11,,,,,,,,3,,,43,0
2631,note_on,39,0,10,,,,,,,,3,,,55,0
2640,note_on,28,0,9,,,,,,,,3,,,62,85
2640,note_on,28,0,1,,,,,,,,0,,,74,64
2640,note_on,28,0,4,,,,,,,,1,,,67,64
2640,note_on,28,0,8,,,,,,,,3,,,71,85
2640,note_on,28,0,2,,,,,,,,0,,,71,64
2640,note_on,28,0,3,,,,,,,,1,,,74,64
2660,note_on,20,0,2,,,,,,,,0,,,71,0
2660,note_on,20,0,3,,,,,,,,1,,,74,0
2660,note_on,20,0,1,,,,,,,,0,,,74,0
2660,note_on,20,0,4,,,,,,,,1,,,67,0
2660,note_on,20,0,8,,,,,,,,3,,,71,0
2660,note_on,20,0,9,,,,,,,,3,,,62,0
2688,note_on,28,0,9,,,,,,,,3,,,64,85
2688,note_on,28,0,2,,,,,,,,0,,,72,64
2688,note_on,28,0,8,,,,,,,,3,,,72,85
2688,note_on,57,0,10,,,,,,,,3,,,55,85
2688,note_on,28,0,1,,,,,,,,0,,,72,64
2688,note_on,28,0,4,,,,,,,,1,,,64,64
2688,note_on,28,0,3,,,,,,,,1,,,72,64
2688,note_on,57,0,11,,,,,,,,3,,,36,64
2733,note_on,45,0,9,,,,,,,,3,,,64,0
2733,note_on,45,0,8,,,,,,,,3,,,72,0
2736,note_on,3,0,8,,,,,,,,3,,,84,43
2736,note_on,3,0,9,,,,,,,,3,,,72,43
2777,note_on,89,0,11,,,,,,,,3,,,36,0
2777,note_on,89,0,2,,,,,,,,0,,,72,0
2777,note_on,89,0,10,,,,,,,,3,,,55,0
2777,note_on,89,0,3,,,,,,,,1,,,72,0
2777,note_on,89,0,4,,,,,,,,1,,,64,0
2777,note_on,89,0,1,,,,,,,,0,,,72,0
2781,note_on,45,0,8,,,,,,,,3,,,84,0
2781,note_on,45,0,9,,,,,,,,3,,,72,0
2784,note_on,3,0,8,,,,,,,,3,,,83,43
2784,note_on,3,0,9,,,,,,,,3,,,71,43
2829,note_on,45,0,8,,,,,,,,3,,,83,0
2829,note_on,45,0,9,,,,,,,,3,,,71,0
2832,note_on,3,0,8,,,,,,,,3,,,81,43
2832,note_on,3,0,9,,,,,,,,3,,,69,43
2877,note_on,45,0,9,,,,,,,,3,,,69,0
2877,note_on,45,0,8,,,,,,,,3,,,81,0
2880,note_on,3,0,8,,,,,,,,3,,,78,43
2880,note_on,3,0,9,,,,,,,,3,,,66,43
2925,note_on,45,0,8,,,,,,,,3,,,78,0
2925,note_on,45,0,9,,,,,,,,3,,,66,0
2928,note_on,3,0,8,,,,,,,,3,,,79,43
2928,note_on,3,0,9,,,,,,,,3,,,67,43
2973,note_on,45,0,9,,,,,,,,3,,,67,0
2973,note_on,45,0,8,,,,,,,,3,,,79,0
2976,note_on,3,0,9,,,,,,,,3,,,69,43
2976,note_on,3,0,8,,,,,,,,3,,,81,43
3021,note_on,45,0,9,,,,,,,,3,,,69,0
3021,note_on,45,0,8,,,,,,,,3,,,81,0
3024,note_on,3,0,9,,,,,,,,3,,,67,43
3024,note_on,3,0,8,,,,,,,,3,,,79,43
3069,note_on,45,0,9,,,,,,,,3,,,67,0
3069,note_on,45,0,8,,,,,,,,3,,,79,0
3072,note_on,3,0,9,,,,,,,,3,,,65,43
3072,note_on,3,0,8,,,,,,,,3,,,79,43
3072,note_on,0,0,3,,,,,,,,1,,,55,49
3072,note_on,295,0,3,,,,,,,,1,,,67,49
3078,note_on,6,0,8,,,,,,,,3,,,79,0
3078,note_on,0,0,8,,,,,,,,3,,,71,43
3117,note_on,45,0,9,,,,,,,,3,,,65,0
3120,note_on,3,0,9,,,,,,,,3,,,55,43
3165,note_on,45,0,9,,,,,,,,3,,,55,0
3168,note_on,3,0,9,,,,,,,,3,,,65,43
3213,note_on,45,0,9,,,,,,,,3,,,65,0
3216,note_on,3,0,9,,,,,,,,3,,,55,43
3249,note_on,171,0,8,,,,,,,,3,,,71,0
3261,note_on,45,0,9,,,,,,,,3,,,55,0
3264,note_on,15,0,8,,,,,,,,3,,,72,43
3264,note_on,3,0,9,,,,,,,,3,,,64,43
3276,note_on,0,0,8,,,,,,,,3,,,74,43
3276,note_on,12,0,8,,,,,,,,3,,,72,0
3288,note_on,0,0,8,,,,,,,,3,,,72,43
3288,note_on,12,0,8,,,,,,,,3,,,74,0
3300,note_on,0,0,8,,,,,,,,3,,,74,43
3300,note_on,12,0,8,,,,,,,,3,,,72,0
3309,note_on,45,0,9,,,,,,,,3,,,64,0
3312,note_on,12,0,8,,,,,,,,3,,,74,0
3312,note_on,3,0,9,,,,,,,,3,,,55,43
3312,note_on,0,0,8,,,,,,,,3,,,72,43
3324,note_on,12,0,8,,,,,,,,3,,,72,0
3324,note_on,0,0,8,,,,,,,,3,,,74,43
3336,note_on,12,0,8,,,,,,,,3,,,74,0
3336,note_on,0,0,8,,,,,,,,3,,,72,43
3348,note_on,12,0,8,,,,,,,,3,,,72,0
3348,note_on,0,0,8,,,,,,,,3,,,74,43
3357,note_on,45,0,9,,,,,,,,3,,,55,0
3360,note_on,0,0,8,,,,,,,,3,,,72,43
3360,note_on,12,0,8,,,,,,,,3,,,74,0
3360,note_on,3,0,9,,,,,,,,3,,,64,43
3372,note_on,0,0,8,,,,,,,,3,,,74,43
3372,note_on,12,0,8,,,,,,,,3,,,72,0
3384,note_on,12,0,8,,,,,,,,3,,,74,0
3384,note_on,0,0,8,,,,,,,,3,,,72,43
3396,note_on,12,0,8,,,,,,,,3,,,72,0
3396,note_on,0,0,8,,,,,,,,3,,,74,43
3397,note_on,1,0,8,,,,,,,,3,,,74,0
3405,note_on,45,0,9,,,,,,,,3,,,64,0
3408,note_on,3,0,9,,,,,,,,3,,,55,43
3408,note_on,11,0,8,,,,,,,,3,,,71,43
3431,note_on,23,0,8,,,,,,,,3,,,71,0
3432,note_on,1,0,8,,,,,,,,3,,,72,43
3453,note_on,45,0,9,,,,,,,,3,,,55,0
3455,note_on,23,0,8,,,,,,,,3,,,72,0
3456,note_on,1,0,8,,,,,,,,3,,,74,43
3456,note_on,679,0,10,,,,,,,,3,,,65,43
3456,note_on,3,0,9,,,,,,,,3,,,59,43
3501,note_on,45,0,10,,,,,,,,3,,,65,0
3501,note_on,45,0,9,,,,,,,,3,,,59,0
3504,note_on,3,0,10,,,,,,,,3,,,55,43
3504,note_on,3,0,9,,,,,,,,3,,,55,43
3549,note_on,45,0,9,,,,,,,,3,,,55,0
3549,note_on,45,0,10,,,,,,,,3,,,55,0
3552,note_on,3,0,9,,,,,,,,3,,,59,43
3552,note_on,3,0,10,,,,,,,,3,,,65,43
3597,note_on,45,0,9,,,,,,,,3,,,59,0
3597,note_on,45,0,10,,,,,,,,3,,,65,0
3600,note_on,3,0,9,,,,,,,,3,,,55,43
3600,note_on,3,0,10,,,,,,,,3,,,55,43
3633,note_on,177,0,8,,,,,,,,3,,,74,0
3645,note_on,45,0,10,,,,,,,,3,,,55,0
3645,note_on,45,0,9,,,,,,,,3,,,55,0
3648,note_on,3,0,10,,,,,,,,3,,,64,43
3648,note_on,3,0,9,,,,,,,,3,,,60,43
3648,note_on,15,0,8,,,,,,,,3,,,76,43
3660,note_on,0,0,8,,,,,,,,3,,,77,43
3660,note_on,12,0,8,,,,,,,,3,,,76,0
3672,note_on,12,0,8,,,,,,,,3,,,77,0
3672,note_on,0,0,8,,,,,,,,3,,,76,43
3684,note_on,0,0,8,,,,,,,,3,,,77,43
3684,note_on,12,0,8,,,,,,,,3,,,76,0
3693,note_on,45,0,10,,,,,,,,3,,,64,0
3693,note_on,45,0,9,,,,,,,,3,,,60,0
3696,note_on,3,0,10,,,,,,,,3,,,55,43
3696,note_on,3,0,9,,,,,,,,3,,,55,43
3696,note_on,12,0,8,,,,,,,,3,,,77,0
3696,note_on,0,0,8,,,,,,,,3,,,76,43
3708,note_on,0,0,8,,,,,,,,3,,,77,43
3708,note_on,12,0,8,,,,,,,,3,,,76,0
3720,note_on,12,0,8,,,,,,,,3,,,77,0
3720,note_on,0,0,8,,,,,,,,3,,,76,43
3732,note_on,12,0,8,,,,,,,,3,,,76,0
3732,note_on,0,0,8,,,,,,,,3,,,77,43
3741,note_on,45,0,9,,,,,,,,3,,,55,0
3741,note_on,45,0,10,,,,,,,,3,,,55,0
3744,note_on,12,0,8,,,,,,,,3,,,77,0
3744,note_on,3,0,9,,,,,,,,3,,,60,43
3744,note_on,0,0,8,,,,,,,,3,,,76,43
3744,note_on,3,0,10,,,,,,,,3,,,64,43
3756,note_on,0,0,8,,,,,,,,3,,,77,43
3756,note_on,12,0,8,,,,,,,,3,,,76,0
3768,note_on,0,0,8,,,,,,,,3,,,76,43
3768,note_on,12,0,8,,,,,,,,3,,,77,0
3780,note_on,0,0,8,,,,,,,,3,,,77,43
3780,note_on,12,0,8,,,,,,,,3,,,76,0
3781,note_on,1,0,8,,,,,,,,3,,,77,0
3789,note_on,45,0,9,,,,,,,,3,,,60,0
3789,note_on,45,0,10,,,,,,,,3,,,64,0
3792,note_on,11,0,8,,,,,,,,3,,,74,43
3792,note_on,3,0,9,,,,,,,,3,,,55,43
3792,note_on,3,0,10,,,,,,,,3,,,55,43
3810,note_on,0,0,3,,,,,,,,1,,,67,0
3810,note_on,738,0,3,,,,,,,,1,,,55,0
3815,note_on,23,0,8,,,,,,,,3,,,74,0
3816,note_on,1,0,8,,,,,,,,3,,,76,43
3837,note_on,45,0,10,,,,,,,,3,,,55,0
3837,note_on,45,0,9,,,,,,,,3,,,55,0
3839,note_on,23,0,8,,,,,,,,3,,,76,0
3840,note_on,30,0,3,,,,,,,,1,,,74,64
3840,note_on,0,0,3,,,,,,,,1,,,67,64
3840,note_on,1063,0,1,,,,,,,,0,,,79,64
3840,note_on,1063,0,2,,,,,,,,0,,,77,64
3840,note_on,0,0,9,,,,,,,,3,,,55,85
3840,note_on,3,0,9,,,,,,,,3,,,67,85
3840,note_on,3,0,10,,,,,,,,3,,,62,85
3840,note_on,1063,0,11,,,,,,,,3,,,47,64
3840,note_on,1,0,8,,,,,,,,3,,,77,85
3879,note_on,0,0,9,,,,,,,,3,,,67,0
3879,note_on,0,0,3,,,,,,,,1,,,74,0
3879,note_on,39,0,11,,,,,,,,3,,,47,0
3879,note_on,39,0,10,,,,,,,,3,,,62,0
3879,note_on,39,0,9,,,,,,,,3,,,55,0
3879,note_on,39,0,3,,,,,,,,1,,,67,0
3879,note_on,39,0,8,,,,,,,,3,,,77,0
3929,note_on,89,0,2,,,,,,,,0,,,77,0
3936,note_on,57,0,11,,,,,,,,3,,,48,64
3936,note_on,57,0,3,,,,,,,,1,,,76,64
3936,note_on,57,0,8,,,,,,,,3,,,76,85
3936,note_on,57,0,10,,,,,,,,3,,,60,85
3936,note_on,7,0,2,,,,,,,,0,,,76,64
3936,note_on,57,0,9,,,,,,,,3,,,67,85
3936,note_on,0,0,9,,,,,,,,3,,,55,85
3936,note_on,0,0,3,,,,,,,,1,,,72,64
3975,note_on,0,0,3,,,,,,,,1,,,76,0
3975,note_on,0,0,9,,,,,,,,3,,,67,0
3975,note_on,39,0,3,,,,,,,,1,,,72,0
3975,note_on,39,0,11,,,,,,,,3,,,48,0
3975,note_on,39,0,10,,,,,,,,3,,,60,0
3975,note_on,39,0,8,,,,,,,,3,,,76,0
3975,note_on,39,0,9,,,,,,,,3,,,55,0
4017,note_on,177,0,1,,,,,,,,0,,,79,0
4025,note_on,89,0,2,,,,,,,,0,,,76,0
4032,note_on,57,0,10,,,,,,,,3,,,57,85
4032,note_on,57,0,9,,,,,,,,3,,,67,85
4032,note_on,57,0,11,,,,,,,,3,,,41,64
4032,note_on,15,0,1,,,,,,,,0,,,79,64
4032,note_on,7,0,2,,,,,,,,0,,,76,64
4032,note_on,57,0,8,,,,,,,,3,,,76,85
4032,note_on,57,0,3,,,,,,,,1,,,76,64
4038,note_on,0,0,8,,,,,,,,3,,,74,85
4038,note_on,0,0,1,,,,,,,,0,,,77,64
4038,note_on,6,0,3,,,,,,,,1,,,76,0
4038,note_on,0,0,3,,,,,,,,1,,,77,64
4038,note_on,0,0,3,,,,,,,,1,,,74,64
4038,note_on,6,0,8,,,,,,,,3,,,76,0
4038,note_on,6,0,1,,,,,,,,0,,,79,0
4038,note_on,0,0,2,,,,,,,,0,,,74,64
4038,note_on,6,0,9,,,,,,,,3,,,67,0
4038,note_on,0,0,9,,,,,,,,3,,,65,85
4038,note_on,6,0,2,,,,,,,,0,,,76,0
4071,note_on,39,0,11,,,,,,,,3,,,41,0
4071,note_on,39,0,10,,,,,,,,3,,,57,0
4121,note_on,83,0,8,,,,,,,,3,,,74,0
4121,note_on,83,0,1,,,,,,,,0,,,77,0
4121,note_on,83,0,2,,,,,,,,0,,,74,0
4121,note_on,83,0,9,,,,,,,,3,,,65,0
4121,note_on,83,0,3,,,,,,,,1,,,74,0
4121,note_on,0,0,3,,,,,,,,1,,,77,0
4128,note_on,7,0,3,,,,,,,,1,,,76,64
4128,note_on,0,0,3,,,,,,,,1,,,72,64
4128,note_on,7,0,9,,,,,,,,3,,,64,85
4128,note_on,7,0,2,,,,,,,,0,,,72,64
4128,note_on,57,0,10,,,,,,,,3,,,55,85
4128,note_on,7,0,1,,,,,,,,0,,,76,64
4128,note_on,57,0,11,,,,,,,,3,,,43,64
4128,note_on,7,0,8,,,,,,,,3,,,72,85
4148,note_on,20,0,1,,,,,,,,0,,,76,0
4148,note_on,20,0,9,,,,,,,,3,,,64,0
4148,note_on,0,0,3,,,,,,,,1,,,76,0
4148,note_on,20,0,3,,,,,,,,1,,,72,0
4148,note_on,20,0,8,,,,,,,,3,,,72,0
4148,note_on,20,0,2,,,,,,,,0,,,72,0
4167,note_on,39,0,11,,,,,,,,3,,,43,0
4167,note_on,39,0,10,,,,,,,,3,,,55,0
4176,note_on,28,0,2,,,,,,,,0,,,71,64
4176,note_on,28,0,8,,,,,,,,3,,,71,85
4176,note_on,0,0,3,,,,,,,,1,,,67,64
4176,note_on,28,0,3,,,,,,,,1,,,74,64
4176,note_on,28,0,9,,,,,,,,3,,,62,85
4176,note_on,28,0,1,,,,,,,,0,,,74,64
4196,note_on,20,0,2,,,,,,,,0,,,71,0
4196,note_on,20,0,1,,,,,,,,0,,,74,0
4196,note_on,20,0,9,,,,,,,,3,,,62,0
4196,note_on,20,0,8,,,,,,,,3,,,71,0
4196,note_on,0,0,3,,,,,,,,1,,,74,0
4196,note_on,20,0,3,,,,,,,,1,,,67,0
4224,note_on,57,0,10,,,,,,,,3,,,55,85
4224,note_on,57,0,11,,,,,,,,3,,,36,64
4224,note_on,28,0,9,,,,,,,,3,,,60,85
4224,note_on,28,0,2,,,,,,,,0,,,72,64
4224,note_on,28,0,1,,,,,,,,0,,,72,64
4224,note_on,0,0,3,,,,,,,,1,,,64,64
4224,note_on,28,0,3,,,,,,,,1,,,72,64
4224,note_on,28,0,8,,,,,,,,3,,,72,85
4244,note_on,20,0,11,,,,,,,,3,,,36,0
4247,note_on,23,0,10,,,,,,,,3,,,55,0
4247,note_on,23,0,9,,,,,,,,3,,,60,0
4248,note_on,1,0,10,,,,,,,,3,,,55,85
4248,note_on,1,0,9,,,,,,,,3,,,60,85
4269,note_on,45,0,1,,,,,,,,0,,,72,0
4271,note_on,23,0,9,,,,,,,,3,,,60,0
4271,note_on,23,0,10,,,,,,,,3,,,55,0
4272,note_on,1,0,10,,,,,,,,3,,,55,85
4272,note_on,3,0,1,,,,,,,,0,,,84,64
4272,note_on,28,0,11,,,,,,,,3,,,40,64
4272,note_on,1,0,9,,,,,,,,3,,,60,85
4292,note_on,20,0,11,,,,,,,,3,,,40,0
4295,note_on,23,0,9,,,,,,,,3,,,60,0
4295,note_on,23,0,10,,,,,,,,3,,,55,0
4296,note_on,1,0,9,,,,,,,,3,,,60,85
4296,note_on,1,0,10,,,,,,,,3,,,55,85
4313,note_on,0,0,3,,,,,,,,1,,,72,0
4313,note_on,89,0,2,,,,,,,,0,,,72,0
4313,note_on,89,0,8,,,,,,,,3,,,72,0
4313,note_on,89,0,3,,,,,,,,1,,,64,0
4317,note_on,45,0,1,,,,,,,,0,,,84,0
4319,note_on,23,0,9,,,,,,,,3,,,60,0
4319,note_on,23,0,10,,,,,,,,3,,,55,0
4320,note_on,1,0,10,,,,,,,,3,,,52,85
4320,note_on,3,0,1,,,,,,,,0,,,84,64
4320,note_on,7,0,2,,,,,,,,0,,,72,64
4320,note_on,0,0,3,,,,,,,,1,,,60,64
4320,note_on,7,0,8,,,,,,,,3,,,60,85
4320,note_on,28,0,11,,,,,,,,3,,,43,64
4320,note_on,1,0,9,,,,,,,,3,,,60,85
4320,note_on,7,0,3,,,,,,,,1,,,72,64
4340,note_on,20,0,2,,,,,,,,0,,,72,0
4340,note_on,20,0,8,,,,,,,,3,,,60,0
4340,note_on,20,0,11,,,,,,,,3,,,43,0
4343,note_on,23,0,10,,,,,,,,3,,,52,0
4343,note_on,23,0,9,,,,,,,,3,,,60,0
4344,note_on,1,0,9,,,,,,,,3,,,60,85
4344,note_on,1,0,10,,,,,,,,3,,,52,85
4365,note_on,45,0,3,,,,,,,,1,,,60,0
4365,note_on,0,0,3,,,,,,,,1,,,72,0
4367,note_on,23,0,9,,,,,,,,3,,,60,0
4367,note_on,23,0,10,,,,,,,,3,,,52,0
4368,note_on,3,0,3,,,,,,,,1,,,72,64
4368,note_on,1,0,10,,,,,,,,3,,,52,85
4368,note_on,1,0,9,,,,,,,,3,,,60,85
4368,note_on,28,0,11,,,,,,,,3,,,36,64
4368,note_on,0,0,3,,,,,,,,1,,,60,64
4368,note_on,28,0,8,,,,,,,,3,,,58,85
4368,note_on,28,0,2,,,,,,,,0,,,70,64
4388,note_on,20,0,11,,,,,,,,3,,,36,0
4388,note_on,20,0,2,,,,,,,,0,,,70,0
4388,note_on,20,0,8,,,,,,,,3,,,58,0
4391,note_on,23,0,9,,,,,,,,3,,,60,0
4391,note_on,23,0,10,,,,,,,,3,,,52,0
4392,note_on,1,0,10,,,,,,,,3,,,52,85
4392,note_on,1,0,9,,,,,,,,3,,,60,85
4413,note_on,45,0,3,,,,,,,,1,,,60,0
4413,note_on,0,0,3,,,,,,,,1,,,72,0
4415,note_on,23,0,9,,,,,,,,3,,,60,0
4415,note_on,23,0,10,,,,,,,,3,,,52,0
4416,note_on,28,0,8,,,,,,,,3,,,57,85
4416,note_on,0,0,3,,,,,,,,1,,,60,64
4416,note_on,3,0,3,,,,,,,,1,,,72,64
4416,note_on,1,0,9,,,,,,,,3,,,60,85
4416,note_on,28,0,2,,,,,,,,0,,,69,64
4416,note_on,1,0,10,,,,,,,,3,,,53,85
4416,note_on,28,0,11,,,,,,,,3,,,41,64
4436,note_on,20,0,11,,,,,,,,3,,,41,0
4439,note_on,23,0,9,,,,,,,,3,,,60,0
4439,note_on,23,0,10,,,,,,,,3,,,53,0
4440,note_on,1,0,9,,,,,,,,3,,,60,85
4440,note_on,1,0,10,,,,,,,,3,,,53,85
4461,note_on,45,0,2,,,,,,,,0,,,69,0
4461,note_on,45,0,8,,,,,,,,3,,,57,0
4463,note_on,23,0,10,,,,,,,,3,,,53,0
4463,note_on,23,0,9,,,,,,,,3,,,60,0
4464,note_on,1,0,10,,,,,,,,3,,,53,85
4464,note_on,28,0,11,,,,,,,,3,,,36,64
4464,note_on,1,0,9,,,,,,,,3,,,60,85
4484,note_on,20,0,11,,,,,,,,3,,,36,0
4487,note_on,23,0,9,,,,,,,,3,,,60,0
4487,note_on,23,0,10,,,,,,,,3,,,53,0
4488,note_on,27,0,8,,,,,,,,3,,,72,85
4488,note_on,1,0,9,,,,,,,,3,,,60,85
4488,note_on,1,0,10,,,,,,,,3,,,53,85
4488,note_on,27,0,2,,,,,,,,0,,,72,64
4511,note_on,23,0,2,,,,,,,,0,,,72,0
4511,note_on,23,0,10,,,,,,,,3,,,53,0
4511,note_on,23,0,9,,,,,,,,3,,,60,0
4511,note_on,23,0,8,,,,,,,,3,,,72,0
4512,note_on,28,0,11,,,,,,,,3,,,45,64
4512,note_on,1,0,8,,,,,,,,3,,,77,85
4512,note_on,1,0,10,,,,,,,,3,,,53,85
4512,note_on,1,0,9,,,,,,,,3,,,60,85
4512,note_on,1,0,2,,,,,,,,0,,,77,64
4532,note_on,20,0,11,,,,,,,,3,,,45,0
4535,note_on,23,0,8,,,,,,,,3,,,77,0
4535,note_on,23,0,9,,,,,,,,3,,,60,0
4535,note_on,23,0,10,,,,,,,,3,,,53,0
4535,note_on,23,0,2,,,,,,,,0,,,77,0
4536,note_on,1,0,9,,,,,,,,3,,,60,85
4536,note_on,1,0,10,,,,,,,,3,,,53,85
4536,note_on,1,0,2,,,,,,,,0,,,72,64
4536,note_on,1,0,8,,,,,,,,3,,,72,85
4559,note_on,23,0,9,,,,,,,,3,,,60,0
4559,note_on,23,0,10,,,,,,,,3,,,53,0
4559,note_on,23,0,2,,,,,,,,0,,,72,0
4559,note_on,23,0,8,,,,,,,,3,,,72,0
4560,note_on,1,0,2,,,,,,,,0,,,77,64
4560,note_on,1,0,9,,,,,,,,3,,,60,85
4560,note_on,1,0,8,,,,,,,,3,,,77,85
4560,note_on,1,0,10,,,,,,,,3,,,53,85
4560,note_on,28,0,11,,,,,,,,3,,,41,64
4570,note_on,10,0,8,,,,,,,,3,,,77,0
4570,note_on,10,0,2,,,,,,,,0,,,77,0
4580,note_on,20,0,11,,,,,,,,3,,,41,0
4583,note_on,23,0,10,,,,,,,,3,,,53,0
4583,note_on,23,0,9,,,,,,,,3,,,60,0
4584,note_on,1,0,10,,,,,,,,3,,,53,85
4584,note_on,1,0,9,,,,,,,,3,,,60,85
4584,note_on,14,0,2,,,,,,,,0,,,81,64
4584,note_on,14,0,8,,,,,,,,3,,,81,85
4594,note_on,10,0,2,,,,,,,,0,,,81,0
4594,note_on,10,0,8,,,,,,,,3,,,81,0
4607,note_on,23,0,9,,,,,,,,3,,,60,0
4607,note_on,23,0,10,,,,,,,,3,,,53,0
4608,note_on,1,0,10,,,,,,,,3,,,52,85
4608,note_on,14,0,8,,,,,,,,3,,,79,85
4608,note_on,28,0,11,,,,,,,,3,,,48,64
4608,note_on,1,0,9,,,,,,,,3,,,60,85
4608,note_on,14,0,2,,,,,,,,0,,,79,64
4628,note_on,20,0,11,,,,,,,,3,,,48,0
4631,note_on,23,0,10,,,,,,,,3,,,52,0
4631,note_on,23,0,9,,,,,,,,3,,,60,0
4632,note_on,1,0,9,,,,,,,,3,,,60,85
4632,note_on,1,0,10,,,,,,,,3,,,52,85
4655,note_on,23,0,9,,,,,,,,3,,,60,0
4655,note_on,23,0,10,,,,,,,,3,,,52,0
4656,note_on,1,0,9,,,,,,,,3,,,60,85
4656,note_on,1,0,10,,,,,,,,3,,,52,85
4656,note_on,28,0,11,,,,,,,,3,,,36,64
4676,note_on,20,0,11,,,,,,,,3,,,36,0
4679,note_on,23,0,10,,,,,,,,3,,,52,0
4679,note_on,23,0,9,,,,,,,,3,,,60,0
4680,note_on,1,0,10,,,,,,,,3,,,52,85
4680,note_on,1,0,9,,,,,,,,3,,,60,85
4697,note_on,89,0,8,,,,,,,,3,,,79,0
4697,note_on,281,0,3,,,,,,,,1,,,60,0
4697,note_on,0,0,3,,,,,,,,1,,,72,0
4697,note_on,89,0,2,,,,,,,,0,,,79,0
4703,note_on,23,0,9,,,,,,,,3,,,60,0
4703,note_on,23,0,10,,,,,,,,3,,,52,0
4704,note_on,1,0,9,,,,,,,,3,,,60,85
4704,note_on,7,0,3,,,,,,,,1,,,72,64
4704,note_on,0,0,3,,,,,,,,1,,,60,64
4704,note_on,7,0,8,,,,,,,,3,,,60,85
4704,note_on,7,0,2,,,,,,,,0,,,72,64
4704,note_on,1,0,10,,,,,,,,3,,,55,85
4704,note_on,28,0,11,,,,,,,,3,,,40,64
4724,note_on,20,0,11,,,,,,,,3,,,40,0
4724,note_on,20,0,2,,,,,,,,0,,,72,0
4724,note_on,20,0,8,,,,,,,,3,,,60,0
4727,note_on,23,0,10,,,,,,,,3,,,55,0
4727,note_on,23,0,9,,,,,,,,3,,,60,0
4728,note_on,1,0,9,,,,,,,,3,,,60,85
4728,note_on,1,0,10,,,,,,,,3,,,55,85
4749,note_on,45,0,3,,,,,,,,1,,,60,0
4749,note_on,0,0,3,,,,,,,,1,,,72,0
4751,note_on,23,0,9,,,,,,,,3,,,60,0
4751,note_on,23,0,10,,,,,,,,3,,,55,0
4752,note_on,1,0,9,,,,,,,,3,,,60,85
4752,note_on,1,0,10,,,,,,,,3,,,55,85
4752,note_on,3,0,3,,,,,,,,1,,,72,64
4752,note_on,28,0,11,,,,,,,,3,,,36,64
4752,note_on,28,0,2,,,,,,,,0,,,70,64
4752,note_on,28,0,8,,,,,,,,3,,,58,85
4752,note_on,0,0,3,,,,,,,,1,,,60,64
4772,note_on,20,0,2,,,,,,,,0,,,70,0
4772,note_on,20,0,8,,,,,,,,3,,,58,0
4772,note_on,20,0,11,,,,,,,,3,,,36,0
4775,note_on,23,0,10,,,,,,,,3,,,55,0
4775,note_on,23,0,9,,,,,,,,3,,,60,0
4776,note_on,1,0,9,,,,,,,,3,,,60,85
4776,note_on,1,0,10,,,,,,,,3,,,55,85
4797,note_on,45,0,3,,,,,,,,1,,,60,0
4797,note_on,0,0,3,,,,,,,,1,,,72,0
4799,note_on,23,0,9,,,,,,,,3,,,60,0
4799,note_on,23,0,10,,,,,,,,3,,,55,0
4800,note_on,1,0,10,,,,,,,,3,,,53,85
4800,note_on,0,0,3,,,,,,,,1,,,60,64
4800,note_on,28,0,11,,,,,,,,3,,,41,64
4800,note_on,28,0,8,,,,,,,,3,,,57,85
4800,note_on,3,0,3,,,,,,,,1,,,72,64
4800,note_on,28,0,2,,,,,,,,0,,,69,64
4800,note_on,1,0,9,,,,,,,,3,,,60,85
4820,note_on,20,0,11,,,,,,,,3,,,41,0
4823,note_on,23,0,10,,,,,,,,3,,,53,0
4823,note_on,23,0,9,,,,,,,,3,,,60,0
4824,note_on,1,0,10,,,,,,,,3,,,53,85
4824,note_on,1,0,9,,,,,,,,3,,,60,85
4845,note_on,45,0,2,,,,,,,,0,,,69,0
4845,note_on,45,0,8,,,,,,,,3,,,57,0
4847,note_on,23,0,9,,,,,,,,3,,,60,0
4847,note_on,23,0,10,,,,,,,,3,,,53,0
4848,note_on,28,0,11,,,,,,,,3,,,36,64
4848,note_on,1,0,10,,,,,,,,3,,,53,85
4848,note_on,1,0,9,,,,,,,,3,,,60,85
4868,note_on,20,0,11,,,,,,,,3,,,36,0
4871,note_on,23,0,10,,,,,,,,3,,,53,0
4871,note_on,23,0,9,,,,,,,,3,,,60,0
4872,note_on,27,0,2,,,,,,,,0,,,72,64
4872,note_on,1,0,10,,,,,,,,3,,,53,85
4872,note_on,1,0,9,,,,,,,,3,,,60,85
4872,note_on,27,0,8,,,,,,,,3,,,72,85
4895,note_on,23,0,8,,,,,,,,3,,,72,0
4895,note_on,23,0,10,,,,,,,,3,,,53,0
4895,note_on,23,0,9,,,,,,,,3,,,60,0
4895,note_on,23,0,2,,,,,,,,0,,,72,0
4896,note_on,1,0,8,,,,,,,,3,,,77,85
4896,note_on,1,0,9,,,,,,,,3,,,60,85
4896,note_on,28,0,11,,,,,,,,3,,,45,64
4896,note_on,1,0,10,,,,,,,,3,,,53,85
4896,note_on,1,0,2,,,,,,,,0,,,77,64
4916,note_on,20,0,11,,,,,,,,3,,,45,0
4919,note_on,23,0,9,,,,,,,,3,,,60,0
4919,note_on,23,0,10,,,,,,,,3,,,53,0
4919,note_on,23,0,2,,,,,,,,0,,,77,0
4919,note_on,23,0,8,,,,,,,,3,,,77,0
4920,note_on,1,0,2,,,,,,,,0,,,72,64
4920,note_on,1,0,8,,,,,,,,3,,,72,85
4920,note_on,1,0,9,,,,,,,,3,,,60,85
4920,note_on,1,0,10,,,,,,,,3,,,53,85
4943,note_on,23,0,9,,,,,,,,3,,,60,0
4943,note_on,23,0,8,,,,,,,,3,,,72,0
4943,note_on,23,0,2,,,,,,,,0,,,72,0
4943,note_on,23,0,10,,,,,,,,3,,,53,0
4944,note_on,1,0,2,,,,,,,,0,,,77,64
4944,note_on,1,0,8,,,,,,,,3,,,77,85
4944,note_on,1,0,10,,,,,,,,3,,,53,85
4944,note_on,28,0,11,,,,,,,,3,,,41,64
4944,note_on,1,0,9,,,,,,,,3,,,60,85
4954,note_on,10,0,2,,,,,,,,0,,,77,0
4954,note_on,10,0,8,,,,,,,,3,,,77,0
4964,note_on,20,0,11,,,,,,,,3,,,41,0
4967,note_on,23,0,10,,,,,,,,3,,,53,0
4967,note_on,23,0,9,,,,,,,,3,,,60,0
4968,note_on,1,0,10,,,,,,,,3,,,53,85
4968,note_on,14,0,2,,,,,,,,0,,,81,64
4968,note_on,1,0,9,,,,,,,,3,,,60,85
4968,note_on,14,0,8,,,,,,,,3,,,81,85
4978,note_on,10,0,8,,,,,,,,3,,,81,0
4978,note_on,10,0,2,,,,,,,,0,,,81,0
4991,note_on,23,0,10,,,,,,,,3,,,53,0
4991,note_on,23,0,9,,,,,,,,3,,,60,0
4992,note_on,14,0,2,,,,,,,,0,,,79,64
4992,note_on,1,0,9,,,,,,,,3,,,60,85
4992,note_on,14,0,8,,,,,,,,3,,,79,85
4992,note_on,1,0,10,,,,,,,,3,,,52,85
4992,note_on,28,0,11,,,,,,,,3,,,48,64
5037,note_on,45,0,10,,,,,,,,3,,,52,0
5040,note_on,3,0,10,,,,,,,,3,,,64,43
5081,note_on,89,0,2,,,,,,,,0,,,79,0
5081,note_on,761,0,1,,,,,,,,0,,,84,0
5081,note_on,0,0,3,,,,,,,,1,,,72,0
5081,note_on,89,0,8,,,,,,,,3,,,79,0
5081,note_on,89,0,11,,,,,,,,3,,,48,0
5081,note_on,89,0,9,,,,,,,,3,,,60,0
5081,note_on,281,0,3,,,,,,,,1,,,60,0
5085,note_on,45,0,10,,,,,,,,3,,,64,0
5088,note_on,7,0,8,,,,,,,,3,,,79,43
5088,note_on,3,0,10,,,,,,,,3,,,72,43
5088,note_on,7,0,9,,,,,,,,3,,,76,43
5108,note_on,20,0,9,,,,,,,,3,,,76,0
5108,note_on,20,0,8,,,,,,,,3,,,79,0
5108,note_on,20,0,10,,,,,,,,3,,,72,0
5136,note_on,28,0,10,,,,,,,,3,,,71,43
5136,note_on,28,0,8,,,,,,,,3,,,79,43
5136,note_on,28,0,9,,,,,,,,3,,,74,43
5156,note_on,20,0,8,,,,,,,,3,,,79,0
5156,note_on,20,0,9,,,,,,,,3,,,74,0
5156,note_on,20,0,10,,,,,,,,3,,,71,0
5184,note_on,28,0,8,,,,,,,,3,,,79,85
5184,note_on,28,0,9,,,,,,,,3,,,72,85
5184,note_on,28,0,10,,,,,,,,3,,,69,85
5190,note_on,6,0,8,,,,,,,,3,,,79,0
5190,note_on,0,0,8,,,,,,,,3,,,77,85
5204,note_on,14,0,8,,,,,,,,3,,,77,0
5232,note_on,28,0,8,,,,,,,,3,,,77,43
5252,note_on,20,0,8,,,,,,,,3,,,77,0
5273,note_on,89,0,9,,,,,,,,3,,,72,0
5273,note_on,89,0,10,,,,,,,,3,,,69,0
5280,note_on,7,0,9,,,,,,,,3,,,71,43
5280,note_on,7,0,10,,,,,,,,3,,,67,43
5328,note_on,76,0,8,,,,,,,,3,,,76,43
5369,note_on,89,0,9,,,,,,,,3,,,71,0
5369,note_on,89,0,10,,,,,,,,3,,,67,0
5373,note_on,45,0,8,,,,,,,,3,,,76,0
5376,note_on,7,0,9,,,,,,,,3,,,69,85
5376,note_on,7,0,10,,,,,,,,3,,,65,85
5376,note_on,3,0,8,,,,,,,,3,,,76,85
5382,note_on,0,0,8,,,,,,,,3,,,74,85
5382,note_on,6,0,8,,,,,,,,3,,,76,0
5421,note_on,39,0,8,,,,,,,,3,,,74,0
5424,note_on,3,0,8,,,,,,,,3,,,74,43
5465,note_on,89,0,9,,,,,,,,3,,,69,0
5465,note_on,89,0,10,,,,,,,,3,,,65,0
5469,note_on,45,0,8,,,,,,,,3,,,74,0
5472,note_on,7,0,9,,,,,,,,3,,,67,43
5472,note_on,7,0,10,,,,,,,,3,,,64,43
5520,note_on,51,0,8,,,,,,,,3,,,72,43
5561,note_on,89,0,10,,,,,,,,3,,,64,0
5561,note_on,89,0,9,,,,,,,,3,,,67,0
5565,note_on,45,0,8,,,,,,,,3,,,72,0
5568,note_on,3,0,8,,,,,,,,3,,,72,85
5568,note_on,7,0,10,,,,,,,,3,,,62,85
5568,note_on,7,0,9,,,,,,,,3,,,65,85
5574,note_on,0,0,8,,,,,,,,3,,,71,85
5574,note_on,6,0,8,,,,,,,,3,,,72,0
5613,note_on,39,0,8,,,,,,,,3,,,71,0
5616,note_on,3,0,8,,,,,,,,3,,,71,43
5657,note_on,89,0,10,,,,,,,,3,,,62,0
5657,note_on,89,0,9,,,,,,,,3,,,65,0
5661,note_on,45,0,8,,,,,,,,3,,,71,0
5664,note_on,7,0,9,,,,,,,,3,,,64,43
5664,note_on,7,0,10,,,,,,,,3,,,60,43
5712,note_on,51,0,8,,,,,,,,3,,,72,43
5724,note_on,12,0,8,,,,,,,,3,,,72,0
5724,note_on,0,0,8,,,,,,,,3,,,74,43
5736,note_on,12,0,8,,,,,,,,3,,,74,0
5736,note_on,0,0,8,,,,,,,,3,,,72,43
5748,note_on,0,0,8,,,,,,,,3,,,74,43
5748,note_on,12,0,8,,,,,,,,3,,,72,0
5753,note_on,89,0,9,,,,,,,,3,,,64,0
5753,note_on,89,0,10,,,,,,,,3,,,60,0
5757,note_on,9,0,8,,,,,,,,3,,,74,0
5760,note_on,3,0,8,,,,,,,,3,,,74,85
5760,note_on,679,0,11,,,,,,,,3,,,43,64
5760,note_on,7,0,9,,,,,,,,3,,,62,85
5760,note_on,7,0,10,,,,,,,,3,,,59,85
5770,note_on,10,0,10,,,,,,,,3,,,59,0
5770,note_on,10,0,11,,,,,,,,3,,,43,0
5784,note_on,14,0,11,,,,,,,,3,,,45,64
5784,note_on,14,0,10,,,,,,,,3,,,57,85
5794,note_on,10,0,11,,,,,,,,3,,,45,0
5794,note_on,10,0,10,,,,,,,,3,,,57,0
5805,note_on,45,0,9,,,,,,,,3,,,62,0
5808,note_on,14,0,11,,,,,,,,3,,,47,64
5808,note_on,3,0,9,,,,,,,,3,,,67,85
5808,note_on,14,0,10,,,,,,,,3,,,55,85
5818,note_on,10,0,10,,,,,,,,3,,,55,0
5818,note_on,10,0,11,,,,,,,,3,,,47,0
5832,note_on,14,0,11,,,,,,,,3,,,45,64
5832,note_on,14,0,10,,,,,,,,3,,,57,85
5842,note_on,10,0,10,,,,,,,,3,,,57,0
5842,note_on,10,0,11,,,,,,,,3,,,45,0
5849,note_on,89,0,8,,,,,,,,3,,,74,0
5853,note_on,45,0,9,,,,,,,,3,,,67,0
5856,note_on,775,0,1,,,,,,,,0,,,79,64
5856,note_on,775,0,2,,,,,,,,0,,,77,64
5856,note_on,14,0,11,,,,,,,,3,,,43,64
5856,note_on,3,0,9,,,,,,,,3,,,77,85
5856,note_on,14,0,10,,,,,,,,3,,,59,85
5856,note_on,7,0,8,,,,,,,,3,,,79,85
5856,note_on,0,0,3,,,,,,,,1,,,67,64
5856,note_on,775,0,3,,,,,,,,1,,,74,64
5866,note_on,10,0,10,,,,,,,,3,,,59,0
5866,note_on,10,0,11,,,,,,,,3,,,43,0
5876,note_on,20,0,9,,,,,,,,3,,,77,0
5876,note_on,20,0,3,,,,,,,,1,,,67,0
5876,note_on,0,0,3,,,,,,,,1,,,74,0
5876,note_on,20,0,8,,,,,,,,3,,,79,0
5880,note_on,14,0,10,,,,,,,,3,,,60,85
5880,note_on,14,0,11,,,,,,,,3,,,45,64
5890,note_on,10,0,10,,,,,,,,3,,,60,0
5890,note_on,10,0,11,,,,,,,,3,,,45,0
5904,note_on,0,0,3,,,,,,,,1,,,67,64
5904,note_on,14,0,11,,,,,,,,3,,,47,64
5904,note_on,14,0,10,,,,,,,,3,,,62,85
5904,note_on,28,0,8,,,,,,,,3,,,79,85
5904,note_on,28,0,9,,,,,,,,3,,,77,85
5904,note_on,28,0,3,,,,,,,,1,,,74,64
5914,note_on,10,0,11,,,,,,,,3,,,47,0
5914,note_on,10,0,10,,,,,,,,3,,,62,0
5924,note_on,20,0,9,,,,,,,,3,,,77,0
5924,note_on,20,0,3,,,,,,,,1,,,67,0
5924,note_on,20,0,8,,,,,,,,3,,,79,0
5924,note_on,0,0,3,,,,,,,,1,,,74,0
5928,note_on,14,0,11,,,,,,,,3,,,43,64
5928,note_on,14,0,10,,,,,,,,3,,,59,85
5938,note_on,10,0,10,,,,,,,,3,,,59,0
5938,note_on,10,0,11,,,,,,,,3,,,43,0
5945,note_on,89,0,2,,,,,,,,0,,,77,0
5952,note_on,28,0,8,,,,,,,,3,,,79,85
5952,note_on,0,0,3,,,,,,,,1,,,72,64
5952,note_on,14,0,11,,,,,,,,3,,,48,64
5952,note_on,7,0,2,,,,,,,,0,,,76,64
5952,note_on,28,0,3,,,,,,,,1,,,76,64
5952,note_on,14,0,10,,,,,,,,3,,,60,85
5952,note_on,28,0,9,,,,,,,,3,,,76,85
5962,note_on,10,0,9,,,,,,,,3,,,76,0
5975,note_on,23,0,11,,,,,,,,3,,,48,0
5976,note_on,1,0,11,,,,,,,,3,,,50,64
5976,note_on,14,0,9,,,,,,,,3,,,74,85
5986,note_on,10,0,9,,,,,,,,3,,,74,0
5997,note_on,45,0,10,,,,,,,,3,,,60,0
5999,note_on,23,0,11,,,,,,,,3,,,50,0
6000,note_on,1,0,11,,,,,,,,3,,,52,64
6000,note_on,3,0,10,,,,,,,,3,,,67,85
6000,note_on,14,0,9,,,,,,,,3,,,72,85
6010,note_on,10,0,9,,,,,,,,3,,,72,0
6023,note_on,23,0,11,,,,,,,,3,,,52,0
6023,note_on,23,0,10,,,,,,,,3,,,67,0
6024,note_on,14,0,9,,,,,,,,3,,,74,85
6024,note_on,1,0,11,,,,,,,,3,,,50,64
6024,note_on,1,0,10,,,,,,,,3,,,65,85
6034,note_on,10,0,9,,,,,,,,3,,,74,0
6047,note_on,23,0,11,,,,,,,,3,,,50,0
6047,note_on,23,0,10,,,,,,,,3,,,65,0
6048,note_on,1,0,11,,,,,,,,3,,,48,64
6048,note_on,14,0,9,,,,,,,,3,,,76,85
6048,note_on,1,0,10,,,,,,,,3,,,64,85
6058,note_on,10,0,9,,,,,,,,3,,,76,0
6071,note_on,23,0,11,,,,,,,,3,,,48,0
6071,note_on,23,0,10,,,,,,,,3,,,64,0
6072,note_on,1,0,11,,,,,,,,3,,,50,64
6072,note_on,14,0,9,,,,,,,,3,,,77,85
6072,note_on,1,0,10,,,,,,,,3,,,62,85
6082,note_on,10,0,9,,,,,,,,3,,,77,0
6085,note_on,0,0,3,,,,,,,,1,,,76,0
6085,note_on,133,0,8,,,,,,,,3,,,79,0
6085,note_on,133,0,2,,,,,,,,0,,,76,0
6085,note_on,133,0,3,,,,,,,,1,,,72,0
6093,note_on,237,0,1,,,,,,,,0,,,79,0
6095,note_on,23,0,10,,,,,,,,3,,,62,0
6095,note_on,23,0,11,,,,,,,,3,,,50,0
6096,note_on,11,0,2,,,,,,,,0,,,72,64
6096,note_on,1,0,10,,,,,,,,3,,,60,85
6096,note_on,11,0,8,,,,,,,,3,,,84,85
6096,note_on,3,0,1,,,,,,,,0,,,76,64
6096,note_on,11,0,3,,,,,,,,1,,,76,64
6096,note_on,0,0,3,,,,,,,,1,,,72,64
6096,note_on,14,0,9,,,,,,,,3,,,79,85
6096,note_on,1,0,11,,,,,,,,3,,,52,64
6106,note_on,10,0,9,,,,,,,,3,,,79,0
6119,note_on,23,0,11,,,,,,,,3,,,52,0
6119,note_on,23,0,10,,,,,,,,3,,,60,0
6120,note_on,1,0,11,,,,,,,,3,,,48,64
6120,note_on,1,0,10,,,,,,,,3,,,64,85
6120,note_on,14,0,9,,,,,,,,3,,,76,85
6130,note_on,10,0,9,,,,,,,,3,,,76,0
6141,note_on,45,0,1,,,,,,,,0,,,76,0
6141,note_on,0,0,3,,,,,,,,1,,,76,0
6141,note_on,45,0,2,,,,,,,,0,,,72,0
6141,note_on,45,0,3,,,,,,,,1,,,72,0
6141,note_on,45,0,8,,,,,,,,3,,,84,0
6143,note_on,23,0,11,,,,,,,,3,,,48,0
6143,note_on,23,0,10,,,,,,,,3,,,64,0
6144,note_on,1,0,11,,,,,,,,3,,,43,64
6144,note_on,3,0,8,,,,,,,,3,,,83,85
6144,note_on,3,0,1,,,,,,,,0,,,74,64
6144,note_on,3,0,3,,,,,,,,1,,,74,64
6144,note_on,14,0,9,,,,,,,,3,,,74,85
6144,note_on,1,0,10,,,,,,,,3,,,67,85
6144,note_on,3,0,2,,,,,,,,0,,,71,64
6144,note_on,0,0,3,,,,,,,,1,,,67,64
6156,note_on,0,0,8,,,,,,,,3,,,81,85
6156,note_on,12,0,8,,,,,,,,3,,,83,0
6167,note_on,23,0,11,,,,,,,,3,,,43,0
6168,note_on,12,0,8,,,,,,,,3,,,81,0
6168,note_on,1,0,11,,,,,,,,3,,,45,64
6168,note_on,0,0,8,,,,,,,,3,,,79,85
6189,note_on,45,0,9,,,,,,,,3,,,74,0
6189,note_on,45,0,10,,,,,,,,3,,,67,0
6191,note_on,23,0,11,,,,,,,,3,,,45,0
6192,note_on,3,0,9,,,,,,,,3,,,67,85
6192,note_on,1,0,11,,,,,,,,3,,,47,64
6192,note_on,3,0,10,,,,,,,,3,,,55,85
6215,note_on,23,0,11,,,,,,,,3,,,47,0
6215,note_on,23,0,10,,,,,,,,3,,,55,0
6216,note_on,1,0,10,,,,,,,,3,,,57,85
6216,note_on,1,0,11,,,,,,,,3,,,45,64
6233,note_on,0,0,3,,,,,,,,1,,,74,0
6233,note_on,89,0,2,,,,,,,,0,,,71,0
6233,note_on,89,0,1,,,,,,,,0,,,74,0
6233,note_on,89,0,3,,,,,,,,1,,,67,0
6235,note_on,67,0,8,,,,,,,,3,,,79,0
6237,note_on,45,0,9,,,,,,,,3,,,67,0
6239,note_on,23,0,11,,,,,,,,3,,,45,0
6239,note_on,23,0,10,,,,,,,,3,,,57,0
6240,note_on,7,0,3,,,,,,,,1,,,74,64
6240,note_on,0,0,3,,,,,,,,1,,,67,64
6240,note_on,3,0,9,,,,,,,,3,,,77,85
6240,note_on,7,0,1,,,,,,,,0,,,79,64
6240,note_on,1,0,11,,,,,,,,3,,,43,64
6240,note_on,1,0,10,,,,,,,,3,,,59,85
6240,note_on,7,0,2,,,,,,,,0,,,77,64
6240,note_on,5,0,8,,,,,,,,3,,,79,85
6260,note_on,20,0,8,,,,,,,,3,,,79,0
6260,note_on,20,0,9,,,,,,,,3,,,77,0
6260,note_on,0,0,3,,,,,,,,1,,,74,0
6260,note_on,20,0,3,,,,,,,,1,,,67,0
6263,note_on,23,0,10,,,,,,,,3,,,59,0
6263,note_on,23,0,11,,,,,,,,3,,,43,0
6264,note_on,1,0,10,,,,,,,,3,,,60,85
6264,note_on,1,0,11,,,,,,,,3,,,45,64
6287,note_on,23,0,10,,,,,,,,3,,,60,0
6287,note_on,23,0,11,,,,,,,,3,,,45,0
6288,note_on,28,0,3,,,,,,,,1,,,74,64
6288,note_on,0,0,3,,,,,,,,1,,,67,64
6288,note_on,28,0,9,,,,,,,,3,,,77,85
6288,note_on,1,0,11,,,,,,,,3,,,47,64
6288,note_on,1,0,10,,,,,,,,3,,,62,85
6288,note_on,28,0,8,,,,,,,,3,,,79,85
6308,note_on,20,0,8,,,,,,,,3,,,79,0
6308,note_on,0,0,3,,,,,,,,1,,,74,0
6308,note_on,20,0,3,,,,,,,,1,,,67,0
6308,note_on,20,0,9,,,,,,,,3,,,77,0
6311,note_on,23,0,11,,,,,,,,3,,,47,0
6311,note_on,23,0,10,,,,,,,,3,,,62,0
6312,note_on,1,0,11,,,,,,,,3,,,43,64
6312,note_on,1,0,10,,,,,,,,3,,,59,85
6329,note_on,89,0,2,,,,,,,,0,,,77,0
6335,note_on,23,0,10,,,,,,,,3,,,59,0
6335,note_on,23,0,11,,,,,,,,3,,,43,0
6336,note_on,28,0,9,,,,,,,,3,,,76,85
6336,note_on,1,0,10,,,,,,,,3,,,60,85
6336,note_on,28,0,8,,,,,,,,3,,,79,85
6336,note_on,28,0,3,,,,,,,,1,,,76,64
6336,note_on,1,0,11,,,,,,,,3,,,48,64
6336,note_on,7,0,2,,,,,,,,0,,,76,64
6336,note_on,0,0,3,,,,,,,,1,,,72,64
6346,note_on,10,0,9,,,,,,,,3,,,76,0
6359,note_on,23,0,11,,,,,,,,3,,,48,0
6360,note_on,14,0,9,,,,,,,,3,,,74,85
6360,note_on,1,0,11,,,,,,,,3,,,50,64
6370,note_on,10,0,9,,,,,,,,3,,,74,0
6381,note_on,45,0,10,,,,,,,,3,,,60,0
6383,note_on,23,0,11,,,,,,,,3,,,50,0
6384,note_on,3,0,10,,,,,,,,3,,,67,85
6384,note_on,14,0,9,,,,,,,,3,,,72,85
6384,note_on,1,0,11,,,,,,,,3,,,52,64
6394,note_on,10,0,9,,,,,,,,3,,,72,0
6407,note_on,23,0,11,,,,,,,,3,,,52,0
6407,note_on,23,0,10,,,,,,,,3,,,67,0
6408,note_on,1,0,11,,,,,,,,3,,,50,64
6408,note_on,14,0,9,,,,,,,,3,,,74,85
6408,note_on,1,0,10,,,,,,,,3,,,65,85
6418,note_on,10,0,9,,,,,,,,3,,,74,0
6431,note_on,23,0,11,,,,,,,,3,,,50,0
6431,note_on,23,0,10,,,,,,,,3,,,65,0
6432,note_on,1,0,11,,,,,,,,3,,,48,64
6432,note_on,14,0,9,,,,,,,,3,,,76,85
6432,note_on,1,0,10,,,,,,,,3,,,64,85
6442,note_on,10,0,9,,,,,,,,3,,,76,0
6455,note_on,23,0,10,,,,,,,,3,,,64,0
6455,note_on,23,0,11,,,,,,,,3,,,48,0
6456,note_on,1,0,11,,,,,,,,3,,,50,64
6456,note_on,1,0,10,,,,,,,,3,,,62,85
6456,note_on,14,0,9,,,,,,,,3,,,77,85
6466,note_on,10,0,9,,,,,,,,3,,,77,0
6469,note_on,133,0,3,,,,,,,,1,,,72,0
6469,note_on,133,0,2,,,,,,,,0,,,76,0
6469,note_on,0,0,3,,,,,,,,1,,,76,0
6469,note_on,133,0,8,,,,,,,,3,,,79,0
6477,note_on,237,0,1,,,,,,,,0,,,79,0
6479,note_on,23,0,10,,,,,,,,3,,,62,0
6479,note_on,23,0,11,,,,,,,,3,,,50,0
6480,note_on,3,0,1,,,,,,,,0,,,76,64
6480,note_on,14,0,9,,,,,,,,3,,,79,85
6480,note_on,11,0,3,,,,,,,,1,,,76,64
6480,note_on,1,0,10,,,,,,,,3,,,60,85
6480,note_on,11,0,2,,,,,,,,0,,,72,64
6480,note_on,11,0,8,,,,,,,,3,,,84,85
6480,note_on,0,0,3,,,,,,,,1,,,72,64
6480,note_on,1,0,11,,,,,,,,3,,,52,64
6490,note_on,10,0,9,,,,,,,,3,,,79,0
6503,note_on,23,0,11,,,,,,,,3,,,52,0
6503,note_on,23,0,10,,,,,,,,3,,,60,0
6504,note_on,1,0,10,,,,,,,,3,,,64,85
6504,note_on,1,0,11,,,,,,,,3,,,48,64
6504,note_on,14,0,9,,,,,,,,3,,,76,85
6514,note_on,10,0,9,,,,,,,,3,,,76,0
6525,note_on,0,0,3,,,,,,,,1,,,76,0
6525,note_on,45,0,3,,,,,,,,1,,,72,0
6525,note_on,45,0,1,,,,,,,,0,,,76,0
6525,note_on,45,0,8,,,,,,,,3,,,84,0
6525,note_on,45,0,2,,,,,,,,0,,,72,0
6527,note_on,23,0,11,,,,,,,,3,,,48,0
6527,note_on,23,0,10,,,,,,,,3,,,64,0
6528,note_on,3,0,3,,,,,,,,1,,,79,64
6528,note_on,1,0,10,,,,,,,,3,,,67,85
6528,note_on,0,0,3,,,,,,,,1,,,67,64
6528,note_on,1,0,11,,,,,,,,3,,,43,64
6528,note_on,3,0,8,,,,,,,,3,,,83,85
6528,note_on,3,0,2,,,,,,,,0,,,71,64
6528,note_on,3,0,1,,,,,,,,0,,,74,64
6528,note_on,14,0,9,,,,,,,,3,,,74,85
6540,note_on,12,0,9,,,,,,,,3,,,74,0
6540,note_on,0,0,9,,,,,,,,3,,,72,85
6540,note_on,0,0,8,,,,,,,,3,,,81,85
6540,note_on,12,0,8,,,,,,,,3,,,83,0
6552,note_on,0,0,8,,,,,,,,3,,,79,85
6552,note_on,12,0,9,,,,,,,,3,,,72,0
6552,note_on,0,0,9,,,,,,,,3,,,71,85
6552,note_on,12,0,8,,,,,,,,3,,,81,0
6617,note_on,0,0,3,,,,,,,,1,,,79,0
6617,note_on,89,0,3,,,,,,,,1,,,67,0
6617,note_on,89,0,2,,,,,,,,0,,,71,0
6617,note_on,89,0,1,,,,,,,,0,,,74,0
6617,note_on,89,0,11,,,,,,,,3,,,43,0
6617,note_on,89,0,10,,,,,,,,3,,,67,0
6619,note_on,67,0,9,,,,,,,,3,,,71,0
6619,note_on,67,0,8,,,,,,,,3,,,79,0
6720,note_on,101,0,9,,,,,,,,3,,,74,85
6720,note_on,103,0,3,,,,,,,,1,,,79,64
6720,note_on,0,0,3,,,,,,,,1,,,67,64
6720,note_on,101,0,8,,,,,,,,3,,,83,85
6720,note_on,103,0,1,,,,,,,,0,,,74,64
6720,note_on,103,0,2,,,,,,,,0,,,71,64
6720,note_on,103,0,11,,,,,,,,3,,,43,64
6720,note_on,103,0,10,,,,,,,,3,,,67,85
6732,note_on,12,0,8,,,,,,,,3,,,83,0
6732,note_on,0,0,9,,,,,,,,3,,,72,85
6732,note_on,12,0,9,,,,,,,,3,,,74,0
6732,note_on,0,0,8,,,,,,,,3,,,81,85
6744,note_on,0,0,9,,,,,,,,3,,,71,85
6744,note_on,12,0,9,,,,,,,,3,,,72,0
6744,note_on,12,0,8,,,,,,,,3,,,81,0
6744,note_on,0,0,8,,,,,,,,3,,,79,85
6809,note_on,89,0,1,,,,,,,,0,,,74,0
6809,note_on,89,0,3,,,,,,,,1,,,67,0
6809,note_on,89,0,11,,,,,,,,3,,,43,0
6809,note_on,89,0,2,,,,,,,,0,,,71,0
6809,note_on,0,0,3,,,,,,,,1,,,79,0
6809,note_on,89,0,10,,,,,,,,3,,,67,0
6811,note_on,67,0,8,,,,,,,,3,,,79,0
6811,note_on,67,0,9,,,,,,,,3,,,71,0
6912,note_on,101,0,8,,,,,,,,3,,,67,43
6957,note_on,45,0,8,,,,,,,,3,,,67,0
6960,note_on,3,0,8,,,,,,,,3,,,66,43
7005,note_on,45,0,8,,,,,,,,3,,,66,0
7008,note_on,3,0,8,,,,,,,,3,,,67,43
7053,note_on,45,0,8,,,,,,,,3,,,67,0
7056,note_on,3,0,8,,,,,,,,3,,,66,43
7101,note_on,45,0,8,,,,,,,,3,,,66,0
7104,note_on,295,0,10,,,,,,,,3,,,55,43
7104,note_on,3,0,8,,,,,,,,3,,,67,43
7149,note_on,45,0,10,,,,,,,,3,,,55,0
7152,note_on,3,0,10,,,,,,,,3,,,54,43
7197,note_on,45,0,10,,,,,,,,3,,,54,0
7200,note_on,3,0,10,,,,,,,,3,,,55,43
7237,note_on,133,0,8,,,,,,,,3,,,67,0
7245,note_on,45,0,10,,,,,,,,3,,,55,0
7248,note_on,11,0,8,,,,,,,,3,,,64,43
7248,note_on,3,0,10,,,,,,,,3,,,54,43
7293,note_on,45,0,8,,,,,,,,3,,,64,0
7293,note_on,45,0,10,,,,,,,,3,,,54,0
7296,note_on,487,0,11,,,,,,,,3,,,40,43
7296,note_on,485,0,9,,,,,,,,3,,,55,43
7296,note_on,487,0,3,,,,,,,,1,,,72,64
7296,note_on,3,0,10,,,,,,,,3,,,55,43
7296,note_on,4519,0,4,,,,,,,,1,,,60,64
7296,note_on,3,0,8,,,,,,,,3,,,60,43
7316,note_on,20,0,9,,,,,,,,3,,,55,0
7316,note_on,20,0,8,,,,,,,,3,,,60,0
7341,note_on,45,0,11,,,,,,,,3,,,40,0
7392,note_on,76,0,9,,,,,,,,3,,,59,43
7392,note_on,51,0,11,,,,,,,,3,,,43,43
7392,note_on,76,0,8,,,,,,,,3,,,62,43
7412,note_on,20,0,9,,,,,,,,3,,,59,0
7412,note_on,20,0,8,,,,,,,,3,,,62,0
7437,note_on,45,0,11,,,,,,,,3,,,43,0
7473,note_on,177,0,4,,,,,,,,1,,,60,0
7488,note_on,15,0,4,,,,,,,,1,,,60,64
7488,note_on,76,0,9,,,,,,,,3,,,62,43
7488,note_on,51,0,11,,,,,,,,3,,,48,43
7488,note_on,76,0,8,,,,,,,,3,,,65,43
7494,note_on,6,0,9,,,,,,,,3,,,62,0
7494,note_on,6,0,8,,,,,,,,3,,,65,0
7494,note_on,0,0,8,,,,,,,,3,,,64,43
7494,note_on,0,0,9,,,,,,,,3,,,60,43
7533,note_on,45,0,11,,,,,,,,3,,,48,0
7533,note_on,45,0,4,,,,,,,,1,,,60,0
7533,note_on,39,0,9,,,,,,,,3,,,60,0
7533,note_on,237,0,3,,,,,,,,1,,,72,0
7533,note_on,39,0,8,,,,,,,,3,,,64,0
7536,note_on,3,0,3,,,,,,,,1,,,72,64
7536,note_on,3,0,4,,,,,,,,1,,,60,64
7581,note_on,45,0,3,,,,,,,,1,,,72,0
7581,note_on,45,0,4,,,,,,,,1,,,60,0
7584,note_on,51,0,8,,,,,,,,3,,,62,43
7584,note_on,51,0,11,,,,,,,,3,,,43,43
7584,note_on,3,0,4,,,,,,,,1,,,60,64
7584,note_on,3,0,3,,,,,,,,1,,,72,64
7584,note_on,51,0,9,,,,,,,,3,,,59,43
7604,note_on,20,0,8,,,,,,,,3,,,62,0
7604,note_on,20,0,9,,,,,,,,3,,,59,0
7629,note_on,45,0,3,,,,,,,,1,,,72,0
7629,note_on,45,0,4,,,,,,,,1,,,60,0
7629,note_on,45,0,11,,,,,,,,3,,,43,0
7632,note_on,3,0,4,,,,,,,,1,,,60,64
7632,note_on,3,0,3,,,,,,,,1,,,72,64
7650,note_on,354,0,10,,,,,,,,3,,,55,0
7677,note_on,45,0,3,,,,,,,,1,,,72,0
7677,note_on,45,0,4,,,,,,,,1,,,60,0
7680,note_on,3,0,3,,,,,,,,1,,,72,64
7680,note_on,76,0,8,,,,,,,,3,,,67,43
7680,note_on,3,0,4,,,,,,,,1,,,60,64
7725,note_on,45,0,8,,,,,,,,3,,,67,0
7728,note_on,3,0,8,,,,,,,,3,,,66,43
7773,note_on,45,0,8,,,,,,,,3,,,66,0
7776,note_on,3,0,8,,,,,,,,3,,,67,43
7821,note_on,45,0,8,,,,,,,,3,,,67,0
7824,note_on,3,0,8,,,,,,,,3,,,66,43
7857,note_on,177,0,4,,,,,,,,1,,,60,0
7869,note_on,45,0,8,,,,,,,,3,,,66,0
7872,note_on,222,0,10,,,,,,,,3,,,55,43
7872,note_on,3,0,8,,,,,,,,3,,,67,43
7872,note_on,15,0,4,,,,,,,,1,,,60,64
7917,note_on,45,0,4,,,,,,,,1,,,60,0
7917,note_on,237,0,3,,,,,,,,1,,,72,0
7917,note_on,45,0,10,,,,,,,,3,,,55,0
7920,note_on,3,0,3,,,,,,,,1,,,74,64
7920,note_on,3,0,10,,,,,,,,3,,,54,43
7920,note_on,3,0,4,,,,,,,,1,,,72,64
7965,note_on,45,0,4,,,,,,,,1,,,72,0
7965,note_on,45,0,3,,,,,,,,1,,,74,0
7965,note_on,45,0,10,,,,,,,,3,,,54,0
7968,note_on,3,0,4,,,,,,,,1,,,72,64
7968,note_on,3,0,3,,,,,,,,1,,,74,64
7968,note_on,3,0,10,,,,,,,,3,,,55,43
8005,note_on,133,0,8,,,,,,,,3,,,67,0
8013,note_on,45,0,10,,,,,,,,3,,,55,0
8013,note_on,45,0,3,,,,,,,,1,,,74,0
8013,note_on,45,0,4,,,,,,,,1,,,72,0
8016,note_on,11,0,8,,,,,,,,3,,,69,43
8016,note_on,3,0,10,,,,,,,,3,,,54,43
8016,note_on,3,0,3,,,,,,,,1,,,74,64
8016,note_on,3,0,4,,,,,,,,1,,,72,64
8061,note_on,45,0,3,,,,,,,,1,,,74,0
8061,note_on,45,0,10,,,,,,,,3,,,54,0
8061,note_on,45,0,4,,,,,,,,1,,,72,0
8061,note_on,45,0,8,,,,,,,,3,,,69,0
8064,note_on,3,0,3,,,,,,,,1,,,76,64
8064,note_on,3,0,4,,,,,,,,1,,,72,64
8064,note_on,3,0,8,,,,,,,,3,,,62,43
8064,note_on,3,0,10,,,,,,,,3,,,55,43
8064,note_on,435,0,11,,,,,,,,3,,,41,43
8064,note_on,460,0,9,,,,,,,,3,,,59,43
8084,note_on,20,0,8,,,,,,,,3,,,62,0
8084,note_on,20,0,9,,,,,,,,3,,,59,0
8109,note_on,45,0,11,,,,,,,,3,,,41,0
8153,note_on,89,0,3,,,,,,,,1,,,76,0
8153,note_on,89,0,4,,,,,,,,1,,,72,0
8160,note_on,7,0,4,,,,,,,,1,,,60,64
8160,note_on,76,0,8,,,,,,,,3,,,64,43
8160,note_on,7,0,3,,,,,,,,1,,,72,64
8160,note_on,76,0,9,,,,,,,,3,,,60,43
8160,note_on,51,0,11,,,,,,,,3,,,40,43
8180,note_on,20,0,8,,,,,,,,3,,,64,0
8180,note_on,20,0,9,,,,,,,,3,,,60,0
8205,note_on,45,0,3,,,,,,,,1,,,72,0
8205,note_on,45,0,11,,,,,,,,3,,,40,0
8205,note_on,45,0,4,,,,,,,,1,,,60,0
8208,note_on,3,0,4,,,,,,,,1,,,64,64
8208,note_on,3,0,3,,,,,,,,1,,,76,64
8253,note_on,45,0,4,,,,,,,,1,,,64,0
8253,note_on,45,0,3,,,,,,,,1,,,76,0
8256,note_on,3,0,3,,,,,,,,1,,,79,64
8256,note_on,3,0,4,,,,,,,,1,,,67,64
8256,note_on,51,0,11,,,,,,,,3,,,35,43
8256,note_on,76,0,9,,,,,,,,3,,,64,43
8256,note_on,76,0,8,,,,,,,,3,,,67,43
8262,note_on,6,0,8,,,,,,,,3,,,67,0
8262,note_on,0,0,8,,,,,,,,3,,,65,43
8262,note_on,6,0,9,,,,,,,,3,,,64,0
8262,note_on,0,0,9,,,,,,,,3,,,62,43
8276,note_on,14,0,8,,,,,,,,3,,,65,0
8276,note_on,14,0,9,,,,,,,,3,,,62,0
8301,note_on,45,0,11,,,,,,,,3,,,35,0
8345,note_on,89,0,3,,,,,,,,1,,,79,0
8345,note_on,89,0,4,,,,,,,,1,,,67,0
8352,note_on,76,0,9,,,,,,,,3,,,60,43
8352,note_on,51,0,11,,,,,,,,3,,,36,43
8352,note_on,7,0,4,,,,,,,,1,,,55,64
8352,note_on,76,0,8,,,,,,,,3,,,64,43
8352,note_on,7,0,3,,,,,,,,1,,,67,64
8372,note_on,20,0,9,,,,,,,,3,,,60,0
8372,note_on,20,0,8,,,,,,,,3,,,64,0
8397,note_on,45,0,11,,,,,,,,3,,,36,0
8418,note_on,354,0,10,,,,,,,,3,,,55,0
8441,note_on,89,0,3,,,,,,,,1,,,67,0
8441,note_on,89,0,4,,,,,,,,1,,,55,0
8448,note_on,76,0,9,,,,,,,,3,,,64,85
8448,note_on,51,0,11,,,,,,,,3,,,40,64
8448,note_on,30,0,10,,,,,,,,3,,,64,85
8448,note_on,1639,0,1,,,,,,,,0,,,84,64
8448,note_on,76,0,8,,,,,,,,3,,,84,85
8448,note_on,1639,0,2,,,,,,,,0,,,67,64
8471,note_on,23,0,9,,,,,,,,3,,,64,0
8472,note_on,1,0,9,,,,,,,,3,,,72,85
8493,note_on,45,0,10,,,,,,,,3,,,64,0
8493,note_on,45,0,11,,,,,,,,3,,,40,0
8495,note_on,23,0,9,,,,,,,,3,,,72,0
8496,note_on,3,0,11,,,,,,,,3,,,40,64
8496,note_on,1,0,9,,,,,,,,3,,,71,85
8496,note_on,3,0,10,,,,,,,,3,,,64,85
8506,note_on,10,0,9,,,,,,,,3,,,71,0
8520,note_on,14,0,9,,,,,,,,3,,,72,85
8530,note_on,10,0,9,,,,,,,,3,,,72,0
8541,note_on,45,0,10,,,,,,,,3,,,64,0
8541,note_on,45,0,11,,,,,,,,3,,,40,0
8544,note_on,3,0,10,,,,,,,,3,,,64,85
8544,note_on,3,0,11,,,,,,,,3,,,40,64
8544,note_on,14,0,9,,,,,,,,3,,,74,85
8567,note_on,23,0,9,,,,,,,,3,,,74,0
8568,note_on,1,0,9,,,,,,,,3,,,72,85
8581,note_on,133,0,8,,,,,,,,3,,,84,0
8589,note_on,45,0,11,,,,,,,,3,,,40,0
8589,note_on,45,0,10,,,,,,,,3,,,64,0
8591,note_on,23,0,9,,,,,,,,3,,,72,0
8592,note_on,11,0,8,,,,,,,,3,,,79,85
8592,note_on,1,0,9,,,,,,,,3,,,71,85
8592,note_on,3,0,10,,,,,,,,3,,,64,85
8592,note_on,3,0,11,,,,,,,,3,,,40,64
8602,note_on,10,0,9,,,,,,,,3,,,71,0
8604,note_on,0,0,8,,,,,,,,3,,,81,85
8604,note_on,12,0,8,,,,,,,,3,,,79,0
8615,note_on,11,0,8,,,,,,,,3,,,81,0
8616,note_on,14,0,9,,,,,,,,3,,,72,85
8616,note_on,1,0,8,,,,,,,,3,,,78,85
8626,note_on,10,0,9,,,,,,,,3,,,72,0
8628,note_on,0,0,8,,,,,,,,3,,,79,85
8628,note_on,12,0,8,,,,,,,,3,,,78,0
8637,note_on,45,0,10,,,,,,,,3,,,64,0
8637,note_on,45,0,11,,,,,,,,3,,,40,0
8640,note_on,14,0,9,,,,,,,,3,,,67,85
8640,note_on,3,0,10,,,,,,,,3,,,64,85
8640,note_on,12,0,8,,,,,,,,3,,,79,0
8640,note_on,0,0,8,,,,,,,,3,,,76,85
8640,note_on,3,0,11,,,,,,,,3,,,40,64
8660,note_on,20,0,8,,,,,,,,3,,,76,0
8663,note_on,23,0,9,,,,,,,,3,,,67,0
8664,note_on,1,0,9,,,,,,,,3,,,72,85
8685,note_on,45,0,10,,,,,,,,3,,,64,0
8685,note_on,45,0,11,,,,,,,,3,,,40,0
8687,note_on,23,0,9,,,,,,,,3,,,72,0
8688,note_on,1,0,9,,,,,,,,3,,,71,85
8688,note_on,3,0,10,,,,,,,,3,,,64,85
8688,note_on,28,0,8,,,,,,,,3,,,72,85
8688,note_on,3,0,11,,,,,,,,3,,,40,64
8698,note_on,10,0,9,,,,,,,,3,,,71,0
8708,note_on,20,0,8,,,,,,,,3,,,72,0
8712,note_on,14,0,9,,,,,,,,3,,,72,85
8713,note_on,265,0,1,,,,,,,,0,,,84,0
8713,note_on,265,0,2,,,,,,,,0,,,67,0
8722,note_on,10,0,9,,,,,,,,3,,,72,0
8733,note_on,45,0,10,,,,,,,,3,,,64,0
8733,note_on,45,0,11,,,,,,,,3,,,40,0
8736,note_on,28,0,8,,,,,,,,3,,,82,85
8736,note_on,3,0,10,,,,,,,,3,,,64,85
8736,note_on,23,0,1,,,,,,,,0,,,82,64
8736,note_on,23,0,2,,,,,,,,0,,,79,64
8736,note_on,14,0,9,,,,,,,,3,,,74,85
8736,note_on,3,0,11,,,,,,,,3,,,40,64
8756,note_on,20,0,8,,,,,,,,3,,,82,0
8759,note_on,23,0,9,,,,,,,,3,,,74,0
8760,note_on,1,0,9,,,,,,,,3,,,72,85
8781,note_on,45,0,10,,,,,,,,3,,,64,0
8781,note_on,45,0,11,,,,,,,,3,,,40,0
8783,note_on,23,0,9,,,,,,,,3,,,72,0
8784,note_on,3,0,10,,,,,,,,3,,,64,85
8784,note_on,28,0,8,,,,,,,,3,,,79,85
8784,note_on,3,0,11,,,,,,,,3,,,40,64
8784,note_on,1,0,9,,,,,,,,3,,,71,85
8794,note_on,10,0,9,,,,,,,,3,,,71,0
8804,note_on,20,0,8,,,,,,,,3,,,79,0
8808,note_on,14,0,9,,,,,,,,3,,,72,85
8818,note_on,10,0,9,,,,,,,,3,,,72,0
8825,note_on,89,0,1,,,,,,,,0,,,82,0
8825,note_on,89,0,2,,,,,,,,0,,,79,0
8829,note_on,45,0,11,,,,,,,,3,,,40,0
8829,note_on,45,0,10,,,,,,,,3,,,64,0
8832,note_on,28,0,8,,,,,,,,3,,,81,85
8832,note_on,7,0,2,,,,,,,,0,,,77,64
8832,note_on,3,0,11,,,,,,,,3,,,41,64
8832,note_on,3,0,10,,,,,,,,3,,,65,85
8832,note_on,7,0,1,,,,,,,,0,,,81,64
8832,note_on,14,0,9,,,,,,,,3,,,65,85
8855,note_on,23,0,9,,,,,,,,3,,,65,0
8856,note_on,1,0,9,,,,,,,,3,,,72,85
8877,note_on,45,0,11,,,,,,,,3,,,41,0
8877,note_on,45,0,10,,,,,,,,3,,,65,0
8879,note_on,23,0,9,,,,,,,,3,,,72,0
8880,note_on,3,0,11,,,,,,,,3,,,41,64
8880,note_on,3,0,10,,,,,,,,3,,,65,85
8880,note_on,1,0,9,,,,,,,,3,,,71,85
8890,note_on,10,0,9,,,,,,,,3,,,71,0
8904,note_on,14,0,9,,,,,,,,3,,,72,85
8914,note_on,10,0,9,,,,,,,,3,,,72,0
8925,note_on,45,0,11,,,,,,,,3,,,41,0
8925,note_on,45,0,10,,,,,,,,3,,,65,0
8928,note_on,3,0,10,,,,,,,,3,,,65,85
8928,note_on,14,0,9,,,,,,,,3,,,74,85
8928,note_on,3,0,11,,,,,,,,3,,,41,64
8951,note_on,23,0,9,,,,,,,,3,,,74,0
8952,note_on,1,0,9,,,,,,,,3,,,72,85
8965,note_on,133,0,8,,,,,,,,3,,,81,0
8973,note_on,45,0,10,,,,,,,,3,,,65,0
8973,note_on,45,0,11,,,,,,,,3,,,41,0
8975,note_on,23,0,9,,,,,,,,3,,,72,0
8976,note_on,11,0,8,,,,,,,,3,,,77,85
8976,note_on,3,0,10,,,,,,,,3,,,65,85
8976,note_on,3,0,11,,,,,,,,3,,,41,64
8976,note_on,1,0,9,,,,,,,,3,,,71,85
8986,note_on,10,0,9,,,,,,,,3,,,71,0
8988,note_on,12,0,8,,,,,,,,3,,,77,0
8988,note_on,0,0,8,,,,,,,,3,,,79,85
8999,note_on,11,0,8,,,,,,,,3,,,79,0
9000,note_on,1,0,8,,,,,,,,3,,,76,85
9000,note_on,14,0,9,,,,,,,,3,,,72,85
9010,note_on,10,0,9,,,,,,,,3,,,72,0
9012,note_on,12,0,8,,,,,,,,3,,,76,0
9012,note_on,0,0,8,,,,,,,,3,,,77,85
9021,note_on,45,0,11,,,,,,,,3,,,41,0
9021,note_on,45,0,10,,,,,,,,3,,,65,0
9024,note_on,0,0,8,,,,,,,,3,,,74,85
9024,note_on,3,0,11,,,,,,,,3,,,41,64
9024,note_on,14,0,9,,,,,,,,3,,,69,85
9024,note_on,12,0,8,,,,,,,,3,,,77,0
9024,note_on,3,0,10,,,,,,,,3,,,65,85
9044,note_on,20,0,8,,,,,,,,3,,,74,0
9047,note_on,23,0,9,,,,,,,,3,,,69,0
9048,note_on,1,0,9,,,,,,,,3,,,72,85
9069,note_on,45,0,11,,,,,,,,3,,,41,0
9069,note_on,45,0,10,,,,,,,,3,,,65,0
9071,note_on,23,0,9,,,,,,,,3,,,72,0
9072,note_on,3,0,11,,,,,,,,3,,,41,64
9072,note_on,28,0,8,,,,,,,,3,,,69,85
9072,note_on,3,0,10,,,,,,,,3,,,65,85
9072,note_on,1,0,9,,,,,,,,3,,,71,85
9082,note_on,10,0,9,,,,,,,,3,,,71,0
9092,note_on,20,0,8,,,,,,,,3,,,69,0
9096,note_on,14,0,9,,,,,,,,3,,,72,85
9097,note_on,265,0,2,,,,,,,,0,,,77,0
9097,note_on,265,0,1,,,,,,,,0,,,81,0
9106,note_on,10,0,9,,,,,,,,3,,,72,0
9117,note_on,45,0,10,,,,,,,,3,,,65,0
9117,note_on,45,0,11,,,,,,,,3,,,41,0
9120,note_on,3,0,11,,,,,,,,3,,,41,64
9120,note_on,23,0,2,,,,,,,,0,,,74,64
9120,note_on,23,0,1,,,,,,,,0,,,77,64
9120,note_on,28,0,8,,,,,,,,3,,,81,85
9120,note_on,14,0,9,,,,,,,,3,,,74,85
9120,note_on,3,0,10,,,,,,,,3,,,65,85
9140,note_on,20,0,8,,,,,,,,3,,,81,0
9143,note_on,23,0,9,,,,,,,,3,,,74,0
9144,note_on,1,0,9,,,,,,,,3,,,72,85
9165,note_on,45,0,10,,,,,,,,3,,,65,0
9165,note_on,45,0,11,,,,,,,,3,,,41,0
9167,note_on,23,0,9,,,,,,,,3,,,72,0
9168,note_on,1,0,9,,,,,,,,3,,,71,85
9168,note_on,28,0,8,,,,,,,,3,,,77,85
9168,note_on,3,0,10,,,,,,,,3,,,65,85
9168,note_on,3,0,11,,,,,,,,3,,,41,64
9178,note_on,10,0,9,,,,,,,,3,,,71,0
9188,note_on,20,0,8,,,,,,,,3,,,77,0
9192,note_on,14,0,9,,,,,,,,3,,,72,85
9209,note_on,89,0,2,,,,,,,,0,,,74,0
9209,note_on,89,0,1,,,,,,,,0,,,77,0
9213,note_on,45,0,10,,,,,,,,3,,,65,0
9213,note_on,45,0,11,,,,,,,,3,,,41,0
9215,note_on,23,0,9,,,,,,,,3,,,72,0
9216,note_on,3,0,11,,,,,,,,3,,,43,64
9216,note_on,3,0,10,,,,,,,,3,,,67,85
9216,note_on,7,0,1,,,,,,,,0,,,76,64
9216,note_on,7,0,2,,,,,,,,0,,,72,64
9216,note_on,28,0,8,,,,,,,,3,,,76,85
9216,note_on,1,0,9,,,,,,,,3,,,60,85
9239,note_on,23,0,9,,,,,,,,3,,,60,0
9239,note_on,23,0,2,,,,,,,,0,,,72,0
9239,note_on,23,0,8,,,,,,,,3,,,76,0
9239,note_on,23,0,1,,,,,,,,0,,,76,0
9240,note_on,1,0,8,,,,,,,,3,,,77,85
9240,note_on,1,0,2,,,,,,,,0,,,74,64
9240,note_on,1,0,1,,,,,,,,0,,,77,64
9240,note_on,1,0,9,,,,,,,,3,,,62,85
9261,note_on,45,0,10,,,,,,,,3,,,67,0
9261,note_on,45,0,11,,,,,,,,3,,,43,0
9263,note_on,23,0,9,,,,,,,,3,,,62,0
9263,note_on,23,0,8,,,,,,,,3,,,77,0
9263,note_on,23,0,1,,,,,,,,0,,,77,0
9263,note_on,23,0,2,,,,,,,,0,,,74,0
9264,note_on,3,0,10,,,,,,,,3,,,67,85
9264,note_on,1,0,9,,,,,,,,3,,,64,85
9264,note_on,1,0,1,,,,,,,,0,,,79,64
9264,note_on,1,0,8,,,,,,,,3,,,79,85
9264,note_on,3,0,11,,,,,,,,3,,,43,64
9264,note_on,1,0,2,,,,,,,,0,,,76,64
9274,note_on,10,0,2,,,,,,,,0,,,76,0
9274,note_on,10,0,9,,,,,,,,3,,,64,0
9274,note_on,10,0,1,,,,,,,,0,,,79,0
9274,note_on,10,0,8,,,,,,,,3,,,79,0
9288,note_on,14,0,8,,,,,,,,3,,,79,85
9288,note_on,14,0,1,,,,,,,,0,,,79,64
9288,note_on,14,0,2,,,,,,,,0,,,76,64
9288,note_on,14,0,9,,,,,,,,3,,,64,85
9298,note_on,10,0,2,,,,,,,,0,,,76,0
9298,note_on,10,0,8,,,,,,,,3,,,79,0
9298,note_on,10,0,1,,,,,,,,0,,,79,0
9298,note_on,10,0,9,,,,,,,,3,,,64,0
9309,note_on,45,0,11,,,,,,,,3,,,43,0
9309,note_on,45,0,10,,,,,,,,3,,,67,0
9312,note_on,14,0,8,,,,,,,,3,,,79,85
9312,note_on,3,0,10,,,,,,,,3,,,67,85
9312,note_on,14,0,9,,,,,,,,3,,,64,85
9312,note_on,14,0,1,,,,,,,,0,,,79,64
9312,note_on,3,0,11,,,,,,,,3,,,43,64
9312,note_on,14,0,2,,,,,,,,0,,,76,64
9322,note_on,10,0,9,,,,,,,,3,,,64,0
9322,note_on,10,0,8,,,,,,,,3,,,79,0
9336,note_on,14,0,8,,,,,,,,3,,,79,85
9336,note_on,14,0,9,,,,,,,,3,,,64,85
9346,note_on,10,0,8,,,,,,,,3,,,79,0
9346,note_on,10,0,9,,,,,,,,3,,,64,0
9357,note_on,45,0,11,,,,,,,,3,,,43,0
9357,note_on,45,0,10,,,,,,,,3,,,67,0
9360,note_on,14,0,8,,,,,,,,3,,,79,85
9360,note_on,3,0,10,,,,,,,,3,,,67,85
9360,note_on,3,0,11,,,,,,,,3,,,43,64
9360,note_on,14,0,9,,,,,,,,3,,,64,85
9370,note_on,10,0,9,,,,,,,,3,,,64,0
9370,note_on,10,0,8,,,,,,,,3,,,79,0
9384,note_on,14,0,8,,,,,,,,3,,,79,85
9384,note_on,14,0,9,,,,,,,,3,,,64,85
9394,note_on,10,0,9,,,,,,,,3,,,64,0
9394,note_on,10,0,8,,,,,,,,3,,,79,0
9405,note_on,45,0,10,,,,,,,,3,,,67,0
9405,note_on,45,0,11,,,,,,,,3,,,43,0
9408,note_on,3,0,10,,,,,,,,3,,,55,85
9408,note_on,14,0,9,,,,,,,,3,,,64,85
9408,note_on,14,0,8,,,,,,,,3,,,79,85
9408,note_on,3,0,11,,,,,,,,3,,,31,64
9428,note_on,20,0,8,,,,,,,,3,,,79,0
9445,note_on,133,0,2,,,,,,,,0,,,76,0
9445,note_on,133,0,1,,,,,,,,0,,,79,0
9453,note_on,45,0,11,,,,,,,,3,,,31,0
9453,note_on,45,0,10,,,,,,,,3,,,55,0
9453,note_on,45,0,9,,,,,,,,3,,,64,0
9456,note_on,3,0,11,,,,,,,,3,,,31,64
9456,note_on,3,0,9,,,,,,,,3,,,62,85
9456,note_on,3,0,10,,,,,,,,3,,,55,85
9456,note_on,28,0,8,,,,,,,,3,,,77,85
9456,note_on,11,0,2,,,,,,,,0,,,74,64
9456,note_on,11,0,1,,,,,,,,0,,,77,64
9476,note_on,20,0,8,,,,,,,,3,,,77,0
9476,note_on,20,0,2,,,,,,,,0,,,74,0
9476,note_on,20,0,1,,,,,,,,0,,,77,0
9501,note_on,45,0,10,,,,,,,,3,,,55,0
9501,note_on,45,0,11,,,,,,,,3,,,31,0
9501,note_on,45,0,9,,,,,,,,3,,,62,0
9504,note_on,28,0,1,,,,,,,,0,,,76,64
9504,note_on,3,0,10,,,,,,,,3,,,55,85
9504,note_on,3,0,11,,,,,,,,3,,,31,64
9504,note_on,28,0,2,,,,,,,,0,,,72,64
9504,note_on,3,0,9,,,,,,,,3,,,60,85
9504,note_on,28,0,8,,,,,,,,3,,,76,85
9524,note_on,20,0,1,,,,,,,,0,,,76,0
9524,note_on,20,0,9,,,,,,,,3,,,60,0
9524,note_on,20,0,8,,,,,,,,3,,,76,0
9524,note_on,20,0,2,,,,,,,,0,,,72,0
9549,note_on,45,0,11,,,,,,,,3,,,31,0
9549,note_on,45,0,10,,,,,,,,3,,,55,0
9552,note_on,28,0,9,,,,,,,,3,,,59,85
9552,note_on,3,0,11,,,,,,,,3,,,31,64
9552,note_on,28,0,8,,,,,,,,3,,,74,85
9552,note_on,3,0,10,,,,,,,,3,,,55,85
9552,note_on,28,0,2,,,,,,,,0,,,71,64
9552,note_on,28,0,1,,,,,,,,0,,,74,64
9572,note_on,20,0,9,,,,,,,,3,,,59,0
9572,note_on,20,0,1,,,,,,,,0,,,74,0
9572,note_on,20,0,2,,,,,,,,0,,,71,0
9572,note_on,20,0,8,,,,,,,,3,,,74,0
9597,note_on,45,0,10,,,,,,,,3,,,55,0
9597,note_on,45,0,11,,,,,,,,3,,,31,0
9600,note_on,28,0,9,,,,,,,,3,,,67,85
9600,note_on,28,0,8,,,,,,,,3,,,84,85
9600,note_on,3,0,11,,,,,,,,3,,,40,64
9600,note_on,3,0,10,,,,,,,,3,,,64,85
9600,note_on,28,0,1,,,,,,,,0,,,84,64
9600,note_on,28,0,2,,,,,,,,0,,,67,64
9623,note_on,23,0,9,,,,,,,,3,,,67,0
9624,note_on,1,0,9,,,,,,,,3,,,72,85
9645,note_on,45,0,11,,,,,,,,3,,,40,0
9645,note_on,45,0,10,,,,,,,,3,,,64,0
9647,note_on,23,0,9,,,,,,,,3,,,72,0
9648,note_on,1,0,9,,,,,,,,3,,,71,85
9648,note_on,3,0,11,,,,,,,,3,,,40,64
9648,note_on,3,0,10,,,,,,,,3,,,64,85
9658,note_on,10,0,9,,,,,,,,3,,,71,0
9672,note_on,14,0,9,,,,,,,,3,,,72,85
9682,note_on,10,0,9,,,,,,,,3,,,72,0
9693,note_on,45,0,11,,,,,,,,3,,,40,0
9693,note_on,45,0,10,,,,,,,,3,,,64,0
9696,note_on,3,0,10,,,,,,,,3,,,64,85
9696,note_on,3,0,11,,,,,,,,3,,,40,64
9696,note_on,14,0,9,,,,,,,,3,,,74,85
9706,note_on,10,0,9,,,,,,,,3,,,74,0
9720,note_on,14,0,9,,,,,,,,3,,,72,85
9730,note_on,10,0,9,,,,,,,,3,,,72,0
9733,note_on,133,0,8,,,,,,,,3,,,84,0
9741,note_on,45,0,11,,,,,,,,3,,,40,0
9741,note_on,45,0,10,,,,,,,,3,,,64,0
9744,note_on,14,0,9,,,,,,,,3,,,71,85
9744,note_on,3,0,11,,,,,,,,3,,,40,64
9744,note_on,11,0,8,,,,,,,,3,,,79,85
9744,note_on,3,0,10,,,,,,,,3,,,64,85
9754,note_on,10,0,9,,,,,,,,3,,,71,0
9756,note_on,0,0,8,,,,,,,,3,,,81,85
9756,note_on,12,0,8,,,,,,,,3,,,79,0
9767,note_on,11,0,8,,,,,,,,3,,,81,0
9768,note_on,1,0,8,,,,,,,,3,,,78,85
9768,note_on,14,0,9,,,,,,,,3,,,72,85
9778,note_on,10,0,9,,,,,,,,3,,,72,0
9780,note_on,0,0,8,,,,,,,,3,,,79,85
9780,note_on,12,0,8,,,,,,,,3,,,78,0
9789,note_on,45,0,10,,,,,,,,3,,,64,0
9789,note_on,45,0,11,,,,,,,,3,,,40,0
9792,note_on,0,0,8,,,,,,,,3,,,76,85
9792,note_on,12,0,8,,,,,,,,3,,,79,0
9792,note_on,3,0,10,,,,,,,,3,,,64,85
9792,note_on,14,0,9,,,,,,,,3,,,67,85
9792,note_on,3,0,11,,,,,,,,3,,,40,64
9812,note_on,20,0,8,,,,,,,,3,,,76,0
9815,note_on,23,0,9,,,,,,,,3,,,67,0
9816,note_on,1,0,9,,,,,,,,3,,,72,85
9837,note_on,45,0,11,,,,,,,,3,,,40,0
9837,note_on,45,0,10,,,,,,,,3,,,64,0
9839,note_on,23,0,9,,,,,,,,3,,,72,0
9840,note_on,3,0,11,,,,,,,,3,,,40,64
9840,note_on,1,0,9,,,,,,,,3,,,71,85
9840,note_on,3,0,10,,,,,,,,3,,,64,85
9840,note_on,28,0,8,,,,,,,,3,,,72,85
9850,note_on,10,0,9,,,,,,,,3,,,71,0
9860,note_on,20,0,8,,,,,,,,3,,,72,0
9864,note_on,14,0,9,,,,,,,,3,,,72,85
9865,note_on,265,0,2,,,,,,,,0,,,67,0
9865,note_on,265,0,1,,,,,,,,0,,,84,0
9874,note_on,10,0,9,,,,,,,,3,,,72,0
9885,note_on,45,0,11,,,,,,,,3,,,40,0
9885,note_on,45,0,10,,,,,,,,3,,,64,0
9888,note_on,23,0,2,,,,,,,,0,,,79,64
9888,note_on,23,0,1,,,,,,,,0,,,82,64
9888,note_on,28,0,8,,,,,,,,3,,,82,85
9888,note_on,3,0,11,,,,,,,,3,,,40,64
9888,note_on,3,0,10,,,,,,,,3,,,64,85
9888,note_on,14,0,9,,,,,,,,3,,,74,85
9898,note_on,10,0,9,,,,,,,,3,,,74,0
9908,note_on,20,0,8,,,,,,,,3,,,82,0
9912,note_on,14,0,9,,,,,,,,3,,,72,85
9922,note_on,10,0,9,,,,,,,,3,,,72,0
9933,note_on,45,0,11,,,,,,,,3,,,40,0
9933,note_on,45,0,10,,,,,,,,3,,,64,0
9936,note_on,3,0,11,,,,,,,,3,,,40,64
9936,note_on,28,0,8,,,,,,,,3,,,79,85
9936,note_on,3,0,10,,,,,,,,3,,,64,85
9936,note_on,14,0,9,,,,,,,,3,,,71,85
9946,note_on,10,0,9,,,,,,,,3,,,71,0
9956,note_on,20,0,8,,,,,,,,3,,,79,0
9960,note_on,14,0,9,,,,,,,,3,,,72,85
9970,note_on,10,0,9,,,,,,,,3,,,72,0
9977,note_on,89,0,1,,,,,,,,0,,,82,0
9977,note_on,89,0,2,,,,,,,,0,,,79,0
9981,note_on,45,0,10,,,,,,,,3,,,64,0
9981,note_on,45,0,11,,,,,,,,3,,,40,0
9984,note_on,14,0,9,,,,,,,,3,,,65,85
9984,note_on,7,0,2,,,,,,,,0,,,77,64
9984,note_on,7,0,1,,,,,,,,0,,,81,64
9984,note_on,3,0,11,,,,,,,,3,,,41,64
9984,note_on,3,0,10,,,,,,,,3,,,65,85
9984,note_on,28,0,8,,,,,,,,3,,,81,85
10007,note_on,23,0,9,,,,,,,,3,,,65,0
10008,note_on,1,0,9,,,,,,,,3,,,72,85
10029,note_on,45,0,10,,,,,,,,3,,,65,0
10029,note_on,45,0,11,,,,,,,,3,,,41,0
10031,note_on,23,0,9,,,,,,,,3,,,72,0
10032,note_on,1,0,9,,,,,,,,3,,,71,85
10032,note_on,3,0,10,,,,,,,,3,,,65,85
10032,note_on,3,0,11,,,,,,,,3,,,41,64
10042,note_on,10,0,9,,,,,,,,3,,,71,0
10056,note_on,14,0,9,,,,,,,,3,,,72,85
10066,note_on,10,0,9,,,,,,,,3,,,72,0
10077,note_on,45,0,10,,,,,,,,3,,,65,0
10077,note_on,45,0,11,,,,,,,,3,,,41,0
10080,note_on,14,0,9,,,,,,,,3,,,74,85
10080,note_on,3,0,10,,,,,,,,3,,,65,85
10080,note_on,3,0,11,,,,,,,,3,,,41,64
10090,note_on,10,0,9,,,,,,,,3,,,74,0
10104,note_on,14,0,9,,,,,,,,3,,,72,85
10114,note_on,10,0,9,,,,,,,,3,,,72,0
10117,note_on,133,0,8,,,,,,,,3,,,81,0
10125,note_on,45,0,10,,,,,,,,3,,,65,0
10125,note_on,45,0,11,,,,,,,,3,,,41,0
10128,note_on,3,0,10,,,,,,,,3,,,65,85
10128,note_on,14,0,9,,,,,,,,3,,,71,85
10128,note_on,3,0,11,,,,,,,,3,,,41,64
10128,note_on,11,0,8,,,,,,,,3,,,77,85
10138,note_on,10,0,9,,,,,,,,3,,,71,0
10140,note_on,0,0,8,,,,,,,,3,,,79,85
10140,note_on,12,0,8,,,,,,,,3,,,77,0
10151,note_on,11,0,8,,,,,,,,3,,,79,0
10152,note_on,1,0,8,,,,,,,,3,,,76,85
10152,note_on,14,0,9,,,,,,,,3,,,72,85
10162,note_on,10,0,9,,,,,,,,3,,,72,0
10164,note_on,12,0,8,,,,,,,,3,,,76,0
10164,note_on,0,0,8,,,,,,,,3,,,77,85
10173,note_on,45,0,10,,,,,,,,3,,,65,0
10173,note_on,45,0,11,,,,,,,,3,,,41,0
10176,note_on,14,0,9,,,,,,,,3,,,69,85
10176,note_on,3,0,10,,,,,,,,3,,,65,85
10176,note_on,3,0,11,,,,,,,,3,,,41,64
10176,note_on,12,0,8,,,,,,,,3,,,77,0
10176,note_on,0,0,8,,,,,,,,3,,,74,85
10196,note_on,20,0,8,,,,,,,,3,,,74,0
10199,note_on,23,0,9,,,,,,,,3,,,69,0
10200,note_on,1,0,9,,,,,,,,3,,,72,85
10221,note_on,45,0,10,,,,,,,,3,,,65,0
10221,note_on,45,0,11,,,,,,,,3,,,41,0
10223,note_on,23,0,9,,,,,,,,3,,,72,0
10224,note_on,3,0,11,,,,,,,,3,,,41,64
10224,note_on,1,0,9,,,,,,,,3,,,71,85
10224,note_on,3,0,10,,,,,,,,3,,,65,85
10224,note_on,28,0,8,,,,,,,,3,,,69,85
10234,note_on,10,0,9,,,,,,,,3,,,71,0
10244,note_on,20,0,8,,,,,,,,3,,,69,0
10248,note_on,14,0,9,,,,,,,,3,,,72,85
10249,note_on,265,0,1,,,,,,,,0,,,81,0
10249,note_on,265,0,2,,,,,,,,0,,,77,0
10258,note_on,10,0,9,,,,,,,,3,,,72,0
10269,note_on,45,0,10,,,,,,,,3,,,65,0
10269,note_on,45,0,11,,,,,,,,3,,,41,0
10272,note_on,3,0,10,,,,,,,,3,,,65,85
10272,note_on,23,0,2,,,,,,,,0,,,74,64
10272,note_on,28,0,8,,,,,,,,3,,,81,85
10272,note_on,14,0,9,,,,,,,,3,,,74,85
10272,note_on,3,0,11,,,,,,,,3,,,41,64
10272,note_on,23,0,1,,,,,,,,0,,,77,64
10282,note_on,10,0,9,,,,,,,,3,,,74,0
10292,note_on,20,0,8,,,,,,,,3,,,81,0
10296,note_on,14,0,9,,,,,,,,3,,,72,85
10306,note_on,10,0,9,,,,,,,,3,,,72,0
10317,note_on,45,0,11,,,,,,,,3,,,41,0
10317,note_on,45,0,10,,,,,,,,3,,,65,0
10320,note_on,28,0,8,,,,,,,,3,,,77,85
10320,note_on,14,0,9,,,,,,,,3,,,71,85
10320,note_on,3,0,11,,,,,,,,3,,,41,64
10320,note_on,3,0,10,,,,,,,,3,,,65,85
10330,note_on,10,0,9,,,,,,,,3,,,71,0
10340,note_on,20,0,8,,,,,,,,3,,,77,0
10344,note_on,14,0,9,,,,,,,,3,,,72,85
10354,note_on,10,0,9,,,,,,,,3,,,72,0
10361,note_on,89,0,2,,,,,,,,0,,,74,0
10361,note_on,89,0,1,,,,,,,,0,,,77,0
10365,note_on,45,0,11,,,,,,,,3,,,41,0
10365,note_on,45,0,10,,,,,,,,3,,,65,0
10368,note_on,14,0,9,,,,,,,,3,,,60,85
10368,note_on,7,0,1,,,,,,,,0,,,76,64
10368,note_on,3,0,11,,,,,,,,3,,,43,64
10368,note_on,28,0,8,,,,,,,,3,,,76,85
10368,note_on,7,0,2,,,,,,,,0,,,72,64
10368,note_on,3,0,10,,,,,,,,3,,,67,85
10391,note_on,23,0,1,,,,,,,,0,,,76,0
10391,note_on,23,0,8,,,,,,,,3,,,76,0
10391,note_on,23,0,2,,,,,,,,0,,,72,0
10391,note_on,23,0,9,,,,,,,,3,,,60,0
10392,note_on,1,0,8,,,,,,,,3,,,77,85
10392,note_on,1,0,1,,,,,,,,0,,,77,64
10392,note_on,1,0,9,,,,,,,,3,,,62,85
10392,note_on,1,0,2,,,,,,,,0,,,74,64
10413,note_on,45,0,11,,,,,,,,3,,,43,0
10413,note_on,45,0,10,,,,,,,,3,,,67,0
10415,note_on,23,0,2,,,,,,,,0,,,74,0
10415,note_on,23,0,1,,,,,,,,0,,,77,0
10415,note_on,23,0,8,,,,,,,,3,,,77,0
10415,note_on,23,0,9,,,,,,,,3,,,62,0
10416,note_on,1,0,8,,,,,,,,3,,,79,85
10416,note_on,1,0,2,,,,,,,,0,,,76,64
10416,note_on,3,0,10,,,,,,,,3,,,67,85
10416,note_on,1,0,9,,,,,,,,3,,,64,85
10416,note_on,1,0,1,,,,,,,,0,,,79,64
10416,note_on,3,0,11,,,,,,,,3,,,43,64
10426,note_on,10,0,8,,,,,,,,3,,,79,0
10426,note_on,10,0,1,,,,,,,,0,,,79,0
10426,note_on,10,0,9,,,,,,,,3,,,64,0
10426,note_on,10,0,2,,,,,,,,0,,,76,0
10440,note_on,14,0,1,,,,,,,,0,,,79,64
10440,note_on,14,0,8,,,,,,,,3,,,79,85
10440,note_on,14,0,9,,,,,,,,3,,,64,85
10440,note_on,14,0,2,,,,,,,,0,,,76,64
10450,note_on,10,0,2,,,,,,,,0,,,76,0
10450,note_on,10,0,1,,,,,,,,0,,,79,0
10450,note_on,10,0,9,,,,,,,,3,,,64,0
10450,note_on,10,0,8,,,,,,,,3,,,79,0
10461,note_on,45,0,10,,,,,,,,3,,,67,0
10461,note_on,45,0,11,,,,,,,,3,,,43,0
10464,note_on,14,0,1,,,,,,,,0,,,79,64
10464,note_on,3,0,11,,,,,,,,3,,,43,64
10464,note_on,14,0,9,,,,,,,,3,,,64,85
10464,note_on,3,0,10,,,,,,,,3,,,67,85
10464,note_on,14,0,8,,,,,,,,3,,,79,85
10464,note_on,14,0,2,,,,,,,,0,,,76,64
10474,note_on,10,0,9,,,,,,,,3,,,64,0
10474,note_on,10,0,8,,,,,,,,3,,,79,0
10488,note_on,14,0,8,,,,,,,,3,,,79,85
10488,note_on,14,0,9,,,,,,,,3,,,64,85
10498,note_on,10,0,8,,,,,,,,3,,,79,0
10498,note_on,10,0,9,,,,,,,,3,,,64,0
10509,note_on,45,0,11,,,,,,,,3,,,43,0
10509,note_on,45,0,10,,,,,,,,3,,,67,0
10512,note_on,3,0,10,,,,,,,,3,,,67,85
10512,note_on,3,0,11,,,,,,,,3,,,43,64
10512,note_on,14,0,8,,,,,,,,3,,,79,85
10512,note_on,14,0,9,,,,,,,,3,,,64,85
10522,note_on,10,0,9,,,,,,,,3,,,64,0
10522,note_on,10,0,8,,,,,,,,3,,,79,0
10536,note_on,14,0,9,,,,,,,,3,,,64,85
10536,note_on,14,0,8,,,,,,,,3,,,79,85
10546,note_on,10,0,8,,,,,,,,3,,,79,0
10546,note_on,10,0,9,,,,,,,,3,,,64,0
10557,note_on,45,0,10,,,,,,,,3,,,67,0
10557,note_on,45,0,11,,,,,,,,3,,,43,0
10560,note_on,14,0,9,,,,,,,,3,,,64,85
10560,note_on,3,0,10,,,,,,,,3,,,67,85
10560,note_on,14,0,8,,,,,,,,3,,,79,85
10560,note_on,3,0,11,,,,,,,,3,,,43,64
10580,note_on,20,0,9,,,,,,,,3,,,64,0
10580,note_on,20,0,8,,,,,,,,3,,,79,0
10597,note_on,133,0,2,,,,,,,,0,,,76,0
10597,note_on,133,0,1,,,,,,,,0,,,79,0
10605,note_on,45,0,10,,,,,,,,3,,,67,0
10605,note_on,45,0,11,,,,,,,,3,,,43,0
10608,note_on,3,0,10,,,,,,,,3,,,67,85
10608,note_on,11,0,2,,,,,,,,0,,,74,64
10608,note_on,28,0,8,,,,,,,,3,,,77,85
10608,note_on,28,0,9,,,,,,,,3,,,62,85
10608,note_on,11,0,1,,,,,,,,0,,,77,64
10608,note_on,3,0,11,,,,,,,,3,,,43,64
10628,note_on,20,0,1,,,,,,,,0,,,77,0
10628,note_on,20,0,9,,,,,,,,3,,,62,0
10628,note_on,20,0,2,,,,,,,,0,,,74,0
10628,note_on,20,0,8,,,,,,,,3,,,77,0
10653,note_on,45,0,10,,,,,,,,3,,,67,0
10653,note_on,45,0,11,,,,,,,,3,,,43,0
10656,note_on,28,0,1,,,,,,,,0,,,76,64
10656,note_on,3,0,10,,,,,,,,3,,,67,85
10656,note_on,28,0,9,,,,,,,,3,,,60,85
10656,note_on,28,0,8,,,,,,,,3,,,76,85
10656,note_on,28,0,2,,,,,,,,0,,,72,64
10656,note_on,3,0,11,,,,,,,,3,,,43,64
10676,note_on,20,0,1,,,,,,,,0,,,76,0
10676,note_on,20,0,8,,,,,,,,3,,,76,0
10676,note_on,20,0,2,,,,,,,,0,,,72,0
10676,note_on,20,0,9,,,,,,,,3,,,60,0
10701,note_on,45,0,10,,,,,,,,3,,,67,0
10701,note_on,45,0,11,,,,,,,,3,,,43,0
10704,note_on,3,0,11,,,,,,,,3,,,43,64
10704,note_on,3,0,10,,,,,,,,3,,,67,85
10704,note_on,28,0,8,,,,,,,,3,,,74,85
10704,note_on,28,0,9,,,,,,,,3,,,59,85
10704,note_on,28,0,1,,,,,,,,0,,,74,64
10704,note_on,28,0,2,,,,,,,,0,,,71,64
10724,note_on,20,0,2,,,,,,,,0,,,71,0
10724,note_on,20,0,8,,,,,,,,3,,,74,0
10724,note_on,20,0,9,,,,,,,,3,,,59,0
10724,note_on,20,0,1,,,,,,,,0,,,74,0
10749,note_on,45,0,10,,,,,,,,3,,,67,0
10749,note_on,45,0,11,,,,,,,,3,,,43,0
10752,note_on,3,0,10,,,,,,,,3,,,60,85
10752,note_on,28,0,8,,,,,,,,3,,,72,85
10752,note_on,28,0,9,,,,,,,,3,,,60,85
10752,note_on,28,0,2,,,,,,,,0,,,72,64
10752,note_on,3,0,11,,,,,,,,3,,,36,64
10752,note_on,28,0,1,,,,,,,,0,,,72,64
10841,note_on,89,0,9,,,,,,,,3,,,60,0
10841,note_on,89,0,2,,,,,,,,0,,,72,0
10841,note_on,89,0,10,,,,,,,,3,,,60,0
10841,note_on,89,0,11,,,,,,,,3,,,36,0
10841,note_on,89,0,8,,,,,,,,3,,,72,0
10841,note_on,89,0,1,,,,,,,,0,,,72,0
10848,note_on,7,0,9,,,,,,,,3,,,60,43
10848,note_on,7,0,8,,,,,,,,3,,,60,43
10868,note_on,20,0,9,,,,,,,,3,,,60,0
10868,note_on,20,0,8,,,,,,,,3,,,60,0
10896,note_on,28,0,9,,,,,,,,3,,,59,43
10896,note_on,28,0,8,,,,,,,,3,,,62,43
10916,note_on,20,0,8,,,,,,,,3,,,62,0
10916,note_on,20,0,9,,,,,,,,3,,,59,0
10944,note_on,28,0,9,,,,,,,,3,,,60,43
10944,note_on,28,0,8,,,,,,,,3,,,64,43
10983,note_on,39,0,9,,,,,,,,3,,,60,0
10983,note_on,39,0,8,,,,,,,,3,,,64,0
11040,note_on,57,0,8,,,,,,,,3,,,64,43
11040,note_on,57,0,9,,,,,,,,3,,,60,43
11060,note_on,20,0,8,,,,,,,,3,,,64,0
11060,note_on,20,0,9,,,,,,,,3,,,60,0
11088,note_on,28,0,9,,,,,,,,3,,,62,43
11088,note_on,28,0,8,,,,,,,,3,,,65,43
11108,note_on,20,0,8,,,,,,,,3,,,65,0
11108,note_on,20,0,9,,,,,,,,3,,,62,0
11136,note_on,28,0,9,,,,,,,,3,,,64,43
11136,note_on,28,0,8,,,,,,,,3,,,67,43
11136,note_on,295,0,11,,,,,,,,3,,,37,43
11136,note_on,295,0,10,,,,,,,,3,,,57,43
11181,note_on,45,0,8,,,,,,,,3,,,67,0
11181,note_on,45,0,9,,,,,,,,3,,,64,0
11184,note_on,3,0,9,,,,,,,,3,,,65,43
11184,note_on,3,0,8,,,,,,,,3,,,69,43
11190,note_on,6,0,9,,,,,,,,3,,,65,0
11190,note_on,0,0,9,,,,,,,,3,,,64,43
11190,note_on,6,0,8,,,,,,,,3,,,69,0
11190,note_on,0,0,8,,,,,,,,3,,,67,43
11207,note_on,17,0,9,,,,,,,,3,,,64,0
11207,note_on,17,0,8,,,,,,,,3,,,67,0
11208,note_on,1,0,8,,,,,,,,3,,,65,43
11208,note_on,1,0,9,,,,,,,,3,,,62,43
11225,note_on,89,0,11,,,,,,,,3,,,37,0
11225,note_on,89,0,10,,,,,,,,3,,,57,0
11231,note_on,23,0,8,,,,,,,,3,,,65,0
11231,note_on,23,0,9,,,,,,,,3,,,62,0
11232,note_on,1,0,9,,,,,,,,3,,,64,43
11232,note_on,1,0,8,,,,,,,,3,,,67,43
11277,note_on,45,0,9,,,,,,,,3,,,64,0
11277,note_on,45,0,8,,,,,,,,3,,,67,0
11280,note_on,3,0,8,,,,,,,,3,,,69,43
11280,note_on,3,0,9,,,,,,,,3,,,65,43
11300,note_on,20,0,9,,,,,,,,3,,,65,0
11300,note_on,20,0,8,,,,,,,,3,,,69,0
11328,note_on,28,0,9,,,,,,,,3,,,64,43
11328,note_on,103,0,10,,,,,,,,3,,,57,43
11328,note_on,28,0,8,,,,,,,,3,,,67,43
11328,note_on,103,0,11,,,,,,,,3,,,38,43
11417,note_on,89,0,8,,,,,,,,3,,,67,0
11417,note_on,89,0,11,,,,,,,,3,,,38,0
11417,note_on,89,0,9,,,,,,,,3,,,64,0
11417,note_on,89,0,10,,,,,,,,3,,,57,0
11424,note_on,7,0,8,,,,,,,,3,,,65,43
11424,note_on,7,0,9,,,,,,,,3,,,62,43
11469,note_on,45,0,8,,,,,,,,3,,,65,0
11469,note_on,45,0,9,,,,,,,,3,,,62,0
11520,note_on,103,0,10,,,,,,,,3,,,55,43
11520,note_on,679,0,2,,,,,,,,0,,,74,43
11520,note_on,103,0,11,,,,,,,,3,,,35,43
11520,note_on,679,0,1,,,,,,,,0,,,77,43
11520,note_on,51,0,8,,,,,,,,3,,,65,43
11520,note_on,51,0,9,,,,,,,,3,,,62,43
11540,note_on,20,0,1,,,,,,,,0,,,77,0
11540,note_on,20,0,2,,,,,,,,0,,,74,0
11565,note_on,45,0,8,,,,,,,,3,,,65,0
11565,note_on,45,0,9,,,,,,,,3,,,62,0
11568,note_on,28,0,2,,,,,,,,0,,,76,43
11568,note_on,3,0,8,,,,,,,,3,,,67,43
11568,note_on,28,0,1,,,,,,,,0,,,79,43
11568,note_on,3,0,9,,,,,,,,3,,,64,43
11574,note_on,6,0,2,,,,,,,,0,,,76,0
11574,note_on,0,0,1,,,,,,,,0,,,77,43
11574,note_on,6,0,1,,,,,,,,0,,,79,0
11574,note_on,0,0,9,,,,,,,,3,,,62,43
11574,note_on,0,0,2,,,,,,,,0,,,74,43
11574,note_on,6,0,8,,,,,,,,3,,,67,0
11574,note_on,6,0,9,,,,,,,,3,,,64,0
11574,note_on,0,0,8,,,,,,,,3,,,65,43
11591,note_on,17,0,2,,,,,,,,0,,,74,0
11591,note_on,17,0,9,,,,,,,,3,,,62,0
11591,note_on,17,0,1,,,,,,,,0,,,77,0
11591,note_on,17,0,8,,,,,,,,3,,,65,0
11592,note_on,1,0,2,,,,,,,,0,,,72,43
11592,note_on,1,0,9,,,,,,,,3,,,61,43
11592,note_on,1,0,1,,,,,,,,0,,,76,43
11592,note_on,1,0,8,,,,,,,,3,,,65,43
11609,note_on,89,0,11,,,,,,,,3,,,35,0
11609,note_on,89,0,10,,,,,,,,3,,,55,0
11615,note_on,23,0,8,,,,,,,,3,,,65,0
11615,note_on,23,0,9,,,,,,,,3,,,61,0
11615,note_on,23,0,2,,,,,,,,0,,,72,0
11615,note_on,23,0,1,,,,,,,,0,,,76,0
11616,note_on,1,0,9,,,,,,,,3,,,62,43
11616,note_on,1,0,1,,,,,,,,0,,,77,43
11616,note_on,1,0,8,,,,,,,,3,,,67,43
11616,note_on,1,0,2,,,,,,,,0,,,74,43
11661,note_on,45,0,9,,,,,,,,3,,,62,0
11661,note_on,45,0,8,,,,,,,,3,,,67,0
11661,note_on,45,0,1,,,,,,,,0,,,77,0
11661,note_on,45,0,2,,,,,,,,0,,,74,0
11664,note_on,3,0,9,,,,,,,,3,,,64,43
11664,note_on,3,0,1,,,,,,,,0,,,79,43
11664,note_on,3,0,2,,,,,,,,0,,,76,43
11664,note_on,3,0,8,,,,,,,,3,,,69,43
11684,note_on,20,0,9,,,,,,,,3,,,64,0
11684,note_on,20,0,8,,,,,,,,3,,,69,0
11684,note_on,20,0,2,,,,,,,,0,,,76,0
11684,note_on,20,0,1,,,,,,,,0,,,79,0
11712,note_on,28,0,8,,,,,,,,3,,,67,43
11712,note_on,28,0,9,,,,,,,,3,,,62,43
11712,note_on,103,0,10,,,,,,,,3,,,55,43
11712,note_on,28,0,1,,,,,,,,0,,,77,43
11712,note_on,28,0,2,,,,,,,,0,,,74,43
11712,note_on,103,0,11,,,,,,,,3,,,36,43
11801,note_on,89,0,11,,,,,,,,3,,,36,0
11801,note_on,89,0,8,,,,,,,,3,,,67,0
11801,note_on,89,0,2,,,,,,,,0,,,74,0
11801,note_on,89,0,10,,,,,,,,3,,,55,0
11801,note_on,89,0,9,,,,,,,,3,,,62,0
11801,note_on,89,0,1,,,,,,,,0,,,77,0
11808,note_on,7,0,2,,,,,,,,0,,,72,43
11808,note_on,7,0,8,,,,,,,,3,,,65,43
11808,note_on,7,0,1,,,,,,,,0,,,76,43
11808,note_on,7,0,9,,,,,,,,3,,,60,43
11853,note_on,45,0,2,,,,,,,,0,,,72,0
11853,note_on,45,0,8,,,,,,,,3,,,65,0
11853,note_on,45,0,1,,,,,,,,0,,,76,0
11853,note_on,45,0,9,,,,,,,,3,,,60,0
11904,note_on,51,0,8,,,,,,,,3,,,83,85
11904,note_on,103,0,11,,,,,,,,3,,,43,64
11904,note_on,0,0,9,,,,,,,,3,,,74,85
11904,note_on,51,0,9,,,,,,,,3,,,77,85
11904,note_on,51,0,1,,,,,,,,0,,,83,64
11904,note_on,3463,0,3,,,,,,,,1,,,74,64
11904,note_on,51,0,2,,,,,,,,0,,,77,64
11904,note_on,3463,0,4,,,,,,,,1,,,67,64
11904,note_on,103,0,10,,,,,,,,3,,,67,85
11949,note_on,45,0,8,,,,,,,,3,,,83,0
11949,note_on,45,0,10,,,,,,,,3,,,67,0
11949,note_on,45,0,11,,,,,,,,3,,,43,0
11949,note_on,0,0,9,,,,,,,,3,,,77,0
11949,note_on,45,0,9,,,,,,,,3,,,74,0
11952,note_on,0,0,9,,,,,,,,3,,,74,85
11952,note_on,3,0,9,,,,,,,,3,,,77,85
11952,note_on,3,0,10,,,,,,,,3,,,67,85
11952,note_on,3,0,11,,,,,,,,3,,,43,64
11952,note_on,3,0,8,,,,,,,,3,,,83,85
11997,note_on,45,0,10,,,,,,,,3,,,67,0
11997,note_on,45,0,11,,,,,,,,3,,,43,0
12000,note_on,3,0,10,,,,,,,,3,,,67,85
12000,note_on,3,0,11,,,,,,,,3,,,43,64
12041,note_on,0,0,9,,,,,,,,3,,,77,0
12041,note_on,89,0,9,,,,,,,,3,,,74,0
12041,note_on,89,0,8,,,,,,,,3,,,83,0
12045,note_on,45,0,11,,,,,,,,3,,,43,0
12045,note_on,45,0,10,,,,,,,,3,,,67,0
12048,note_on,7,0,9,,,,,,,,3,,,77,85
12048,note_on,7,0,8,,,,,,,,3,,,83,85
12048,note_on,0,0,9,,,,,,,,3,,,74,85
12048,note_on,3,0,10,,,,,,,,3,,,67,85
12048,note_on,3,0,11,,,,,,,,3,,,43,64
12093,note_on,45,0,11,,,,,,,,3,,,43,0
12093,note_on,45,0,10,,,,,,,,3,,,67,0
12096,note_on,3,0,10,,,,,,,,3,,,67,85
12096,note_on,3,0,11,,,,,,,,3,,,43,64
12137,note_on,89,0,9,,,,,,,,3,,,74,0
12137,note_on,0,0,9,,,,,,,,3,,,77,0
12137,note_on,89,0,8,,,,,,,,3,,,83,0
12141,note_on,45,0,10,,,,,,,,3,,,67,0
12141,note_on,45,0,11,,,,,,,,3,,,43,0
12144,note_on,7,0,9,,,,,,,,3,,,77,85
12144,note_on,0,0,9,,,,,,,,3,,,74,85
12144,note_on,3,0,11,,,,,,,,3,,,43,64
12144,note_on,7,0,8,,,,,,,,3,,,83,85
12144,note_on,3,0,10,,,,,,,,3,,,67,85
12189,note_on,45,0,11,,,,,,,,3,,,43,0
12189,note_on,45,0,10,,,,,,,,3,,,67,0
12192,note_on,3,0,11,,,,,,,,3,,,43,64
12192,note_on,3,0,10,,,,,,,,3,,,67,85
12233,note_on,89,0,8,,,,,,,,3,,,83,0
12233,note_on,89,0,9,,,,,,,,3,,,74,0
12233,note_on,0,0,9,,,,,,,,3,,,77,0
12237,note_on,45,0,11,,,,,,,,3,,,43,0
12237,note_on,45,0,10,,,,,,,,3,,,67,0
12240,note_on,3,0,10,,,,,,,,3,,,67,85
12240,note_on,7,0,9,,,,,,,,3,,,77,85
12240,note_on,7,0,8,,,,,,,,3,,,83,85
12240,note_on,3,0,11,,,,,,,,3,,,43,64
12240,note_on,0,0,9,,,,,,,,3,,,74,85
12258,note_on,354,0,3,,,,,,,,1,,,74,0
12258,note_on,354,0,1,,,,,,,,0,,,83,0
12258,note_on,354,0,4,,,,,,,,1,,,67,0
12258,note_on,354,0,2,,,,,,,,0,,,77,0
12285,note_on,45,0,9,,,,,,,,3,,,74,0
12285,note_on,45,0,8,,,,,,,,3,,,83,0
12285,note_on,0,0,9,,,,,,,,3,,,77,0
12285,note_on,45,0,10,,,,,,,,3,,,67,0
12285,note_on,45,0,11,,,,,,,,3,,,43,0
12288,note_on,3,0,9,,,,,,,,3,,,76,85
12288,note_on,0,0,9,,,,,,,,3,,,72,85
12288,note_on,30,0,4,,,,,,,,1,,,72,64
12288,note_on,3,0,10,,,,,,,,3,,,69,85
12288,note_on,30,0,3,,,,,,,,1,,,76,64
12288,note_on,30,0,2,,,,,,,,0,,,76,64
12288,note_on,30,0,1,,,,,,,,0,,,84,64
12288,note_on,3,0,11,,,,,,,,3,,,45,64
12288,note_on,3,0,8,,,,,,,,3,,,84,85
12333,note_on,45,0,10,,,,,,,,3,,,69,0
12333,note_on,45,0,11,,,,,,,,3,,,45,0
12336,note_on,3,0,10,,,,,,,,3,,,69,85
12336,note_on,3,0,11,,,,,,,,3,,,45,64
12377,note_on,89,0,2,,,,,,,,0,,,76,0
12377,note_on,0,0,9,,,,,,,,3,,,76,0
12377,note_on,89,0,1,,,,,,,,0,,,84,0
12377,note_on,89,0,9,,,,,,,,3,,,72,0
12377,note_on,89,0,8,,,,,,,,3,,,84,0
12381,note_on,45,0,10,,,,,,,,3,,,69,0
12381,note_on,45,0,11,,,,,,,,3,,,45,0
12384,note_on,7,0,1,,,,,,,,0,,,76,64
12384,note_on,7,0,9,,,,,,,,3,,,79,85
12384,note_on,7,0,8,,,,,,,,3,,,79,85
12384,note_on,3,0,10,,,,,,,,3,,,64,85
12384,note_on,7,0,2,,,,,,,,0,,,72,64
12384,note_on,3,0,11,,,,,,,,3,,,40,64
12407,note_on,23,0,9,,,,,,,,3,,,79,0
12407,note_on,23,0,8,,,,,,,,3,,,79,0
12408,note_on,1,0,8,,,,,,,,3,,,76,85
12408,note_on,1,0,9,,,,,,,,3,,,76,85
12429,note_on,45,0,10,,,,,,,,3,,,64,0
12429,note_on,45,0,11,,,,,,,,3,,,40,0
12431,note_on,23,0,8,,,,,,,,3,,,76,0
12431,note_on,23,0,9,,,,,,,,3,,,76,0
12432,note_on,3,0,10,,,,,,,,3,,,64,85
12432,note_on,1,0,8,,,,,,,,3,,,79,85
12432,note_on,3,0,11,,,,,,,,3,,,40,64
12432,note_on,1,0,9,,,,,,,,3,,,79,85
12455,note_on,23,0,9,,,,,,,,3,,,79,0
12455,note_on,23,0,8,,,,,,,,3,,,79,0
12456,note_on,1,0,8,,,,,,,,3,,,76,85
12456,note_on,1,0,9,,,,,,,,3,,,76,85
12465,note_on,177,0,3,,,,,,,,1,,,76,0
12473,note_on,89,0,1,,,,,,,,0,,,76,0
12477,note_on,45,0,11,,,,,,,,3,,,40,0
12477,note_on,45,0,10,,,,,,,,3,,,64,0
12479,note_on,23,0,8,,,,,,,,3,,,76,0
12479,note_on,23,0,9,,,,,,,,3,,,76,0
12480,note_on,1,0,8,,,,,,,,3,,,74,85
12480,note_on,3,0,10,,,,,,,,3,,,65,85
12480,note_on,7,0,1,,,,,,,,0,,,74,64
12480,note_on,1,0,9,,,,,,,,3,,,74,85
12480,note_on,15,0,3,,,,,,,,1,,,74,64
12480,note_on,3,0,11,,,,,,,,3,,,41,64
12525,note_on,45,0,11,,,,,,,,3,,,41,0
12525,note_on,45,0,10,,,,,,,,3,,,65,0
12525,note_on,45,0,9,,,,,,,,3,,,74,0
12525,note_on,45,0,8,,,,,,,,3,,,74,0
12528,note_on,3,0,10,,,,,,,,3,,,65,85
12528,note_on,3,0,11,,,,,,,,3,,,41,64
12528,note_on,3,0,9,,,,,,,,3,,,77,85
12528,note_on,3,0,8,,,,,,,,3,,,77,85
12553,note_on,265,0,4,,,,,,,,1,,,72,0
12561,note_on,177,0,2,,,,,,,,0,,,72,0
12573,note_on,45,0,11,,,,,,,,3,,,41,0
12573,note_on,45,0,8,,,,,,,,3,,,77,0
12573,note_on,45,0,9,,,,,,,,3,,,77,0
12573,note_on,45,0,10,,,,,,,,3,,,65,0
12576,note_on,3,0,8,,,,,,,,3,,,74,85
12576,note_on,15,0,2,,,,,,,,0,,,71,64
12576,note_on,3,0,11,,,,,,,,3,,,43,64
12576,note_on,3,0,9,,,,,,,,3,,,74,85
12576,note_on,3,0,10,,,,,,,,3,,,67,85
12576,note_on,23,0,4,,,,,,,,1,,,67,64
12599,note_on,23,0,8,,,,,,,,3,,,74,0
12599,note_on,23,0,9,,,,,,,,3,,,74,0
12600,note_on,1,0,9,,,,,,,,3,,,71,85
12600,note_on,1,0,8,,,,,,,,3,,,71,85
12621,note_on,45,0,10,,,,,,,,3,,,67,0
12621,note_on,45,0,11,,,,,,,,3,,,43,0
12623,note_on,23,0,8,,,,,,,,3,,,71,0
12623,note_on,23,0,9,,,,,,,,3,,,71,0
12624,note_on,1,0,8,,,,,,,,3,,,74,85
12624,note_on,3,0,11,,,,,,,,3,,,43,64
12624,note_on,3,0,10,,,,,,,,3,,,67,85
12624,note_on,1,0,9,,,,,,,,3,,,74,85
12647,note_on,23,0,9,,,,,,,,3,,,74,0
12647,note_on,23,0,8,,,,,,,,3,,,74,0
12648,note_on,1,0,9,,,,,,,,3,,,71,85
12648,note_on,1,0,8,,,,,,,,3,,,71,85
12657,note_on,177,0,3,,,,,,,,1,,,74,0
12657,note_on,177,0,1,,,,,,,,0,,,74,0
12665,note_on,89,0,4,,,,,,,,1,,,67,0
12665,note_on,89,0,2,,,,,,,,0,,,71,0
12669,note_on,45,0,11,,,,,,,,3,,,43,0
12669,note_on,45,0,10,,,,,,,,3,,,67,0
12671,note_on,23,0,9,,,,,,,,3,,,71,0
12671,note_on,23,0,8,,,,,,,,3,,,71,0
12672,note_on,1,0,8,,,,,,,,3,,,79,85
12672,note_on,15,0,1,,,,,,,,0,,,79,64
12672,note_on,15,0,3,,,,,,,,1,,,79,64
12672,note_on,7,0,2,,,,,,,,0,,,72,64
12672,note_on,3,0,10,,,,,,,,3,,,64,85
12672,note_on,7,0,4,,,,,,,,1,,,67,64
12672,note_on,3,0,11,,,,,,,,3,,,40,64
12672,note_on,1,0,9,,,,,,,,3,,,79,85
12717,note_on,45,0,10,,,,,,,,3,,,64,0
12717,note_on,45,0,9,,,,,,,,3,,,79,0
12717,note_on,45,0,8,,,,,,,,3,,,79,0
12717,note_on,45,0,11,,,,,,,,3,,,40,0
12720,note_on,3,0,11,,,,,,,,3,,,40,64
12720,note_on,3,0,10,,,,,,,,3,,,64,85
12720,note_on,3,0,9,,,,,,,,3,,,84,85
12720,note_on,3,0,8,,,,,,,,3,,,84,85
12761,note_on,89,0,4,,,,,,,,1,,,67,0
12761,note_on,89,0,1,,,,,,,,0,,,79,0
12761,note_on,89,0,3,,,,,,,,1,,,79,0
12761,note_on,89,0,2,,,,,,,,0,,,72,0
12765,note_on,45,0,8,,,,,,,,3,,,84,0
12765,note_on,45,0,9,,,,,,,,3,,,84,0
12765,note_on,45,0,10,,,,,,,,3,,,64,0
12765,note_on,45,0,11,,,,,,,,3,,,40,0
12768,note_on,7,0,3,,,,,,,,1,,,76,64
12768,note_on,3,0,8,,,,,,,,3,,,76,85
12768,note_on,3,0,11,,,,,,,,3,,,45,64
12768,note_on,3,0,9,,,,,,,,3,,,76,85
12768,note_on,7,0,4,,,,,,,,1,,,72,64
12768,note_on,7,0,2,,,,,,,,0,,,76,64
12768,note_on,3,0,10,,,,,,,,3,,,69,85
12768,note_on,7,0,1,,,,,,,,0,,,84,64
12791,note_on,23,0,9,,,,,,,,3,,,76,0
12791,note_on,23,0,8,,,,,,,,3,,,76,0
12792,note_on,1,0,8,,,,,,,,3,,,72,85
12792,note_on,1,0,9,,,,,,,,3,,,72,85
12813,note_on,45,0,11,,,,,,,,3,,,45,0
12813,note_on,45,0,10,,,,,,,,3,,,69,0
12815,note_on,23,0,8,,,,,,,,3,,,72,0
12815,note_on,23,0,9,,,,,,,,3,,,72,0
12816,note_on,3,0,11,,,,,,,,3,,,45,64
12816,note_on,1,0,9,,,,,,,,3,,,76,85
12816,note_on,1,0,8,,,,,,,,3,,,76,85
12816,note_on,3,0,10,,,,,,,,3,,,69,85
12839,note_on,23,0,9,,,,,,,,3,,,76,0
12839,note_on,23,0,8,,,,,,,,3,,,76,0
12840,note_on,1,0,9,,,,,,,,3,,,72,85
12840,note_on,1,0,8,,,,,,,,3,,,72,85
12857,note_on,89,0,2,,,,,,,,0,,,76,0
12857,note_on,89,0,3,,,,,,,,1,,,76,0
12861,note_on,45,0,11,,,,,,,,3,,,45,0
12861,note_on,45,0,10,,,,,,,,3,,,69,0
12863,note_on,23,0,9,,,,,,,,3,,,72,0
12863,note_on,23,0,8,,,,,,,,3,,,72,0
12864,note_on,7,0,2,,,,,,,,0,,,74,64
12864,note_on,1,0,9,,,,,,,,3,,,74,85
12864,note_on,3,0,10,,,,,,,,3,,,65,85
12864,note_on,7,0,3,,,,,,,,1,,,74,64
12864,note_on,3,0,11,,,,,,,,3,,,41,64
12864,note_on,1,0,8,,,,,,,,3,,,74,85
12909,note_on,45,0,11,,,,,,,,3,,,41,0
12909,note_on,45,0,8,,,,,,,,3,,,74,0
12909,note_on,45,0,10,,,,,,,,3,,,65,0
12909,note_on,45,0,9,,,,,,,,3,,,74,0
12912,note_on,3,0,11,,,,,,,,3,,,41,64
12912,note_on,3,0,10,,,,,,,,3,,,65,85
12912,note_on,3,0,9,,,,,,,,3,,,77,85
12912,note_on,3,0,8,,,,,,,,3,,,77,85
12945,note_on,177,0,4,,,,,,,,1,,,72,0
12945,note_on,177,0,1,,,,,,,,0,,,84,0
12957,note_on,45,0,11,,,,,,,,3,,,41,0
12957,note_on,45,0,8,,,,,,,,3,,,77,0
12957,note_on,45,0,10,,,,,,,,3,,,65,0
12957,note_on,45,0,9,,,,,,,,3,,,77,0
12960,note_on,3,0,11,,,,,,,,3,,,43,64
12960,note_on,15,0,4,,,,,,,,1,,,67,64
12960,note_on,3,0,10,,,,,,,,3,,,67,85
12960,note_on,3,0,9,,,,,,,,3,,,74,85
12960,note_on,15,0,1,,,,,,,,0,,,83,64
12960,note_on,3,0,8,,,,,,,,3,,,74,85
12983,note_on,23,0,9,,,,,,,,3,,,74,0
12983,note_on,23,0,8,,,,,,,,3,,,74,0
12984,note_on,1,0,8,,,,,,,,3,,,71,85
12984,note_on,1,0,9,,,,,,,,3,,,71,85
13005,note_on,45,0,11,,,,,,,,3,,,43,0
13005,note_on,45,0,10,,,,,,,,3,,,67,0
13007,note_on,23,0,9,,,,,,,,3,,,71,0
13007,note_on,23,0,8,,,,,,,,3,,,71,0
13008,note_on,3,0,11,,,,,,,,3,,,43,64
13008,note_on,3,0,10,,,,,,,,3,,,67,85
13008,note_on,1,0,9,,,,,,,,3,,,74,85
13008,note_on,1,0,8,,,,,,,,3,,,74,85
13031,note_on,23,0,8,,,,,,,,3,,,74,0
13031,note_on,23,0,9,,,,,,,,3,,,74,0
13032,note_on,1,0,8,,,,,,,,3,,,71,85
13032,note_on,1,0,9,,,,,,,,3,,,71,85
13041,note_on,177,0,2,,,,,,,,0,,,74,0
13041,note_on,177,0,3,,,,,,,,1,,,74,0
13049,note_on,89,0,1,,,,,,,,0,,,83,0
13049,note_on,89,0,4,,,,,,,,1,,,67,0
13053,note_on,45,0,10,,,,,,,,3,,,67,0
13053,note_on,45,0,11,,,,,,,,3,,,43,0
13055,note_on,23,0,8,,,,,,,,3,,,71,0
13055,note_on,23,0,9,,,,,,,,3,,,71,0
13056,note_on,15,0,3,,,,,,,,1,,,72,64
13056,note_on,7,0,4,,,,,,,,1,,,64,64
13056,note_on,1,0,9,,,,,,,,3,,,72,85
13056,note_on,3,0,11,,,,,,,,3,,,36,64
13056,note_on,1,0,8,,,,,,,,3,,,72,85
13056,note_on,7,0,1,,,,,,,,0,,,84,64
13056,note_on,15,0,2,,,,,,,,0,,,84,64
13056,note_on,3,0,10,,,,,,,,3,,,60,85
13145,note_on,89,0,10,,,,,,,,3,,,60,0
13145,note_on,89,0,9,,,,,,,,3,,,72,0
13145,note_on,89,0,4,,,,,,,,1,,,64,0
13145,note_on,89,0,2,,,,,,,,0,,,84,0
13145,note_on,89,0,8,,,,,,,,3,,,72,0
13145,note_on,89,0,11,,,,,,,,3,,,36,0
13145,note_on,89,0,1,,,,,,,,0,,,84,0
13145,note_on,89,0,3,,,,,,,,1,,,72,0
13152,note_on,7,0,4,,,,,,,,1,,,76,64
13152,note_on,7,0,11,,,,,,,,3,,,52,64
13152,note_on,7,0,9,,,,,,,,3,,,76,85
13152,note_on,7,0,1,,,,,,,,0,,,76,64
13152,note_on,7,0,10,,,,,,,,3,,,76,85
13152,note_on,7,0,2,,,,,,,,0,,,76,64
13152,note_on,7,0,8,,,,,,,,3,,,76,85
13152,note_on,7,0,3,,,,,,,,1,,,76,64
13175,note_on,23,0,9,,,,,,,,3,,,76,0
13175,note_on,23,0,1,,,,,,,,0,,,76,0
13175,note_on,23,0,8,,,,,,,,3,,,76,0
13175,note_on,23,0,2,,,,,,,,0,,,76,0
13175,note_on,23,0,11,,,,,,,,3,,,52,0
13175,note_on,23,0,10,,,,,,,,3,,,76,0
13176,note_on,1,0,10,,,,,,,,3,,,72,85
13176,note_on,1,0,2,,,,,,,,0,,,72,64
13176,note_on,1,0,11,,,,,,,,3,,,48,64
13176,note_on,1,0,1,,,,,,,,0,,,72,64
13176,note_on,1,0,8,,,,,,,,3,,,72,85
13176,note_on,1,0,9,,,,,,,,3,,,72,85
13197,note_on,45,0,3,,,,,,,,1,,,76,0
13197,note_on,45,0,4,,,,,,,,1,,,76,0
13199,note_on,23,0,10,,,,,,,,3,,,72,0
13199,note_on,23,0,9,,,,,,,,3,,,72,0
13199,note_on,23,0,11,,,,,,,,3,,,48,0
13199,note_on,23,0,1,,,,,,,,0,,,72,0
13199,note_on,23,0,8,,,,,,,,3,,,72,0
13199,note_on,23,0,2,,,,,,,,0,,,72,0
13200,note_on,1,0,2,,,,,,,,0,,,76,64
13200,note_on,1,0,1,,,,,,,,0,,,76,64
13200,note_on,1,0,11,,,,,,,,3,,,52,64
13200,note_on,1,0,8,,,,,,,,3,,,76,85
13200,note_on,3,0,3,,,,,,,,1,,,76,64
13200,note_on,1,0,9,,,,,,,,3,,,76,85
13200,note_on,3,0,4,,,,,,,,1,,,76,64
13200,note_on,1,0,10,,,,,,,,3,,,76,85
13223,note_on,23,0,1,,,,,,,,0,,,76,0
13223,note_on,23,0,8,,,,,,,,3,,,76,0
13223,note_on,23,0,3,,,,,,,,1,,,76,0
13223,note_on,23,0,2,,,,,,,,0,,,76,0
13223,note_on,23,0,11,,,,,,,,3,,,52,0
13223,note_on,23,0,4,,,,,,,,1,,,76,0
13223,note_on,23,0,10,,,,,,,,3,,,76,0
13223,note_on,23,0,9,,,,,,,,3,,,76,0
13224,note_on,1,0,10,,,,,,,,3,,,72,85
13224,note_on,1,0,1,,,,,,,,0,,,72,64
13224,note_on,1,0,8,,,,,,,,3,,,72,85
13224,note_on,1,0,2,,,,,,,,0,,,72,64
13224,note_on,1,0,3,,,,,,,,1,,,72,64
13224,note_on,1,0,9,,,,,,,,3,,,72,85
13224,note_on,1,0,4,,,,,,,,1,,,72,64
13224,note_on,1,0,11,,,,,,,,3,,,48,64
13247,note_on,23,0,11,,,,,,,,3,,,48,0
13247,note_on,23,0,9,,,,,,,,3,,,72,0
13247,note_on,23,0,10,,,,,,,,3,,,72,0
13247,note_on,23,0,3,,,,,,,,1,,,72,0
13247,note_on,23,0,4,,,,,,,,1,,,72,0
13247,note_on,23,0,1,,,,,,,,0,,,72,0
13247,note_on,23,0,2,,,,,,,,0,,,72,0
13247,note_on,23,0,8,,,,,,,,3,,,72,0
13248,note_on,1,0,8,,,,,,,,3,,,67,85
13248,note_on,1,0,4,,,,,,,,1,,,67,64
13248,note_on,1,0,1,,,,,,,,0,,,67,64
13248,note_on,1,0,10,,,,,,,,3,,,67,85
13248,note_on,1,0,9,,,,,,,,3,,,67,85
13248,note_on,1,0,3,,,,,,,,1,,,67,64
13248,note_on,1,0,2,,,,,,,,0,,,67,64
13248,note_on,1,0,11,,,,,,,,3,,,43,64
13293,note_on,45,0,8,,,,,,,,3,,,67,0
13293,note_on,45,0,9,,,,,,,,3,,,67,0
13293,note_on,45,0,3,,,,,,,,1,,,67,0
13293,note_on,45,0,11,,,,,,,,3,,,43,0
13293,note_on,45,0,4,,,,,,,,1,,,67,0
13293,note_on,45,0,1,,,,,,,,0,,,67,0
13293,note_on,45,0,10,,,,,,,,3,,,67,0
13293,note_on,45,0,2,,,,,,,,0,,,67,0
13296,note_on,3,0,8,,,,,,,,3,,,72,85
13296,note_on,3,0,3,,,,,,,,1,,,72,64
13296,note_on,3,0,11,,,,,,,,3,,,48,64
13296,note_on,3,0,10,,,,,,,,3,,,72,85
13296,note_on,3,0,9,,,,,,,,3,,,72,85
13296,note_on,3,0,2,,,,,,,,0,,,72,64
13296,note_on,3,0,1,,,,,,,,0,,,72,64
13296,note_on,3,0,4,,,,,,,,1,,,72,64
13341,note_on,45,0,2,,,,,,,,0,,,72,0
13341,note_on,45,0,9,,,,,,,,3,,,72,0
13341,note_on,45,0,1,,,,,,,,0,,,72,0
13341,note_on,45,0,11,,,,,,,,3,,,48,0
13341,note_on,45,0,10,,,,,,,,3,,,72,0
13341,note_on,45,0,3,,,,,,,,1,,,72,0
13341,note_on,45,0,4,,,,,,,,1,,,72,0
13341,note_on,45,0,8,,,,,,,,3,,,72,0
13344,note_on,3,0,3,,,,,,,,1,,,67,64
13344,note_on,3,0,10,,,,,,,,3,,,67,85
13344,note_on,3,0,2,,,,,,,,0,,,67,64
13344,note_on,3,0,9,,,,,,,,3,,,67,85
13344,note_on,3,0,1,,,,,,,,0,,,67,64
13344,note_on,3,0,11,,,,,,,,3,,,43,64
13344,note_on,3,0,8,,,,,,,,3,,,67,85
13344,note_on,3,0,4,,,,,,,,1,,,67,64
13367,note_on,23,0,9,,,,,,,,3,,,67,0
13367,note_on,23,0,8,,,,,,,,3,,,67,0
13367,note_on,23,0,10,,,,,,,,3,,,67,0
13367,note_on,23,0,2,,,,,,,,0,,,67,0
13367,note_on,23,0,11,,,,,,,,3,,,43,0
13367,note_on,23,0,1,,,,,,,,0,,,67,0
13368,note_on,1,0,10,,,,,,,,3,,,64,85
13368,note_on,1,0,11,,,,,,,,3,,,40,64
13368,note_on,1,0,1,,,,,,,,0,,,64,64
13368,note_on,1,0,9,,,,,,,,3,,,64,85
13368,note_on,1,0,8,,,,,,,,3,,,64,85
13368,note_on,1,0,2,,,,,,,,0,,,64,64
13389,note_on,45,0,3,,,,,,,,1,,,67,0
13389,note_on,45,0,4,,,,,,,,1,,,67,0
13391,note_on,23,0,8,,,,,,,,3,,,64,0
13391,note_on,23,0,10,,,,,,,,3,,,64,0
13391,note_on,23,0,1,,,,,,,,0,,,64,0
13391,note_on,23,0,2,,,,,,,,0,,,64,0
13391,note_on,23,0,9,,,,,,,,3,,,64,0
13391,note_on,23,0,11,,,,,,,,3,,,40,0
13392,note_on,1,0,10,,,,,,,,3,,,67,85
13392,note_on,1,0,9,,,,,,,,3,,,67,85
13392,note_on,3,0,3,,,,,,,,1,,,67,64
13392,note_on,1,0,1,,,,,,,,0,,,67,64
13392,note_on,3,0,4,,,,,,,,1,,,67,64
13392,note_on,1,0,2,,,,,,,,0,,,67,64
13392,note_on,1,0,8,,,,,,,,3,,,67,85
13392,note_on,1,0,11,,,,,,,,3,,,43,64
13415,note_on,23,0,3,,,,,,,,1,,,67,0
13415,note_on,23,0,9,,,,,,,,3,,,67,0
13415,note_on,23,0,4,,,,,,,,1,,,67,0
13415,note_on,23,0,1,,,,,,,,0,,,67,0
13415,note_on,23,0,2,,,,,,,,0,,,67,0
13415,note_on,23,0,10,,,,,,,,3,,,67,0
13415,note_on,23,0,11,,,,,,,,3,,,43,0
13415,note_on,23,0,8,,,,,,,,3,,,67,0
13416,note_on,1,0,8,,,,,,,,3,,,64,85
13416,note_on,1,0,3,,,,,,,,1,,,64,64
13416,note_on,1,0,2,,,,,,,,0,,,64,64
13416,note_on,1,0,1,,,,,,,,0,,,64,64
13416,note_on,1,0,10,,,,,,,,3,,,64,85
13416,note_on,1,0,11,,,,,,,,3,,,40,64
13416,note_on,1,0,4,,,,,,,,1,,,64,64
13416,note_on,1,0,9,,,,,,,,3,,,64,85
13439,note_on,23,0,4,,,,,,,,1,,,64,0
13439,note_on,23,0,3,,,,,,,,1,,,64,0
13439,note_on,23,0,2,,,,,,,,0,,,64,0
13439,note_on,23,0,8,,,,,,,,3,,,64,0
13439,note_on,23,0,11,,,,,,,,3,,,40,0
13439,note_on,23,0,9,,,,,,,,3,,,64,0
13439,note_on,23,0,1,,,,,,,,0,,,64,0
13439,note_on,23,0,10,,,,,,,,3,,,64,0
13440,note_on,1,0,4,,,,,,,,1,,,60,64
13440,note_on,1,0,8,,,,,,,,3,,,60,85
13440,note_on,1,0,11,,,,,,,,3,,,36,64
13440,note_on,1,0,3,,,,,,,,1,,,60,64
13440,note_on,1,0,2,,,,,,,,0,,,60,64
13440,note_on,1,0,9,,,,,,,,3,,,60,85
13440,note_on,1,0,1,,,,,,,,0,,,60,64
13440,note_on,1,0,10,,,,,,,,3,,,60,85
13617,note_on,177,0,1,,,,,,,,0,,,60,0
13617,note_on,177,0,11,,,,,,,,3,,,36,0
13617,note_on,177,0,2,,,,,,,,0,,,60,0
13617,note_on,177,0,10,,,,,,,,3,,,60,0
13617,note_on,177,0,8,,,,,,,,3,,,60,0
13617,note_on,177,0,9,,,,,,,,3,,,60,0
13617,note_on,177,0,3,,,,,,,,1,,,60,0
13617,note_on,177,0,4,,,,,,,,1,,,60,0
13632,note_on,15,0,8,,,,,,,,3,,,64,85
13632,note_on,15,0,1,,,,,,,,0,,,64,64
13632,note_on,15,0,3,,,,,,,,1,,,64,64
13632,note_on,15,0,11,,,,,,,,3,,,40,64
13632,note_on,15,0,2,,,,,,,,0,,,64,64
13632,note_on,15,0,9,,,,,,,,3,,,64,85
13632,note_on,15,0,10,,,,,,,,3,,,64,85
13632,note_on,15,0,4,,,,,,,,1,,,64,64
13671,note_on,39,0,11,,,,,,,,3,,,40,0
13671,note_on,39,0,9,,,,,,,,3,,,64,0
13671,note_on,39,0,8,,,,,,,,3,,,64,0
13671,note_on,39,0,10,,,,,,,,3,,,64,0
13721,note_on,89,0,1,,,,,,,,0,,,64,0
13721,note_on,89,0,2,,,,,,,,0,,,64,0
13721,note_on,89,0,4,,,,,,,,1,,,64,0
13721,note_on,89,0,3,,,,,,,,1,,,64,0
13728,note_on,7,0,2,,,,,,,,0,,,67,64
13728,note_on,7,0,3,,,,,,,,1,,,67,64
13728,note_on,7,0,1,,,,,,,,0,,,67,64
13728,note_on,57,0,10,,,,,,,,3,,,67,85
13728,note_on,7,0,4,,,,,,,,1,,,67,64
13728,note_on,57,0,9,,,,,,,,3,,,67,85
13728,note_on,57,0,8,,,,,,,,3,,,67,85
13728,note_on,57,0,11,,,,,,,,3,,,43,64
13767,note_on,39,0,8,,,,,,,,3,,,67,0
13767,note_on,39,0,11,,,,,,,,3,,,43,0
13767,note_on,39,0,10,,,,,,,,3,,,67,0
13767,note_on,39,0,9,,,,,,,,3,,,67,0
13817,note_on,89,0,3,,,,,,,,1,,,67,0
13817,note_on,89,0,1,,,,,,,,0,,,67,0
13817,note_on,89,0,2,,,,,,,,0,,,67,0
13817,note_on,89,0,4,,,,,,,,1,,,67,0
13824,note_on,7,0,2,,,,,,,,0,,,72,64
13824,note_on,0,0,8,,,,,,,,3,,,55,85
13824,note_on,7,0,1,,,,,,,,0,,,72,64
13824,note_on,7,0,4,,,,,,,,1,,,72,64
13824,note_on,57,0,9,,,,,,,,3,,,72,85
13824,note_on,0,0,9,,,,,,,,3,,,64,85
13824,note_on,0,0,9,,,,,,,,3,,,55,85
13824,note_on,57,0,8,,,,,,,,3,,,72,85
13824,note_on,7,0,3,,,,,,,,1,,,72,64
13824,note_on,0,0,8,,,,,,,,3,,,64,85
13824,note_on,57,0,11,,,,,,,,3,,,48,64
13824,note_on,13824,0,6,,,,,,,,2,,,60,64
13824,note_on,57,0,10,,,,,,,,3,,,72,85
13824,note_on,13824,0,5,,,,,,,,2,,,72,85
13824,note_on,0,0,6,,,,,,,,2,,,48,64
13913,note_on,89,0,2,,,,,,,,0,,,72,0
13913,note_on,89,0,8,,,,,,,,3,,,55,0
13913,note_on,0,0,8,,,,,,,,3,,,64,0
13913,note_on,0,0,8,,,,,,,,3,,,72,0
13913,note_on,89,0,1,,,,,,,,0,,,72,0
13913,note_on,0,0,9,,,,,,,,3,,,72,0
13913,note_on,89,0,10,,,,,,,,3,,,72,0
13913,note_on,89,0,9,,,,,,,,3,,,55,0
13913,note_on,89,0,4,,,,,,,,1,,,72,0
13913,note_on,0,0,9,,,,,,,,3,,,64,0
13913,note_on,89,0,3,,,,,,,,1,,,72,0
13913,note_on,89,0,11,,,,,,,,3,,,48,0
14001,note_on,177,0,5,,,,,,,,2,,,72,0
14001,note_on,0,0,6,,,,,,,,2,,,60,0
14001,note_on,177,0,6,,,,,,,,2,,,48,0
14016,note_on,15,0,5,,,,,,,,2,,,75,64
14022,note_on,6,0,5,,,,,,,,2,,,75,0
14022,note_on,0,0,5,,,,,,,,2,,,76,64
14105,note_on,83,0,5,,,,,,,,2,,,76,0
14112,note_on,7,0,5,,,,,,,,2,,,78,64
14118,note_on,6,0,5,,,,,,,,2,,,78,0
14118,note_on,0,0,5,,,,,,,,2,,,79,64
14201,note_on,83,0,5,,,,,,,,2,,,79,0
14208,note_on,7,0,5,,,,,,,,2,,,84,64
14208,note_on,0,0,6,,,,,,,,2,,,60,64
14208,note_on,207,0,6,,,,,,,,2,,,64,64
14253,note_on,45,0,5,,,,,,,,2,,,84,0
14253,note_on,0,0,6,,,,,,,,2,,,64,0
14253,note_on,45,0,6,,,,,,,,2,,,60,0
14256,note_on,0,0,6,,,,,,,,2,,,60,64
14256,note_on,3,0,5,,,,,,,,2,,,79,64
14256,note_on,3,0,6,,,,,,,,2,,,64,64
14301,note_on,0,0,6,,,,,,,,2,,,64,0
14301,note_on,45,0,6,,,,,,,,2,,,60,0
14301,note_on,45,0,5,,,,,,,,2,,,79,0
14304,note_on,0,0,6,,,,,,,,2,,,60,64
14304,note_on,3,0,5,,,,,,,,2,,,79,64
14304,note_on,3,0,6,,,,,,,,2,,,64,64
14349,note_on,45,0,6,,,,,,,,2,,,60,0
14349,note_on,0,0,6,,,,,,,,2,,,64,0
14352,note_on,3,0,6,,,,,,,,2,,,64,64
14352,note_on,0,0,6,,,,,,,,2,,,60,64
14397,note_on,0,0,6,,,,,,,,2,,,64,0
14397,note_on,45,0,6,,,,,,,,2,,,60,0
14400,note_on,0,0,6,,,,,,,,2,,,60,64
14400,note_on,3,0,6,,,,,,,,2,,,64,64
14445,note_on,0,0,6,,,,,,,,2,,,64,0
14445,note_on,45,0,6,,,,,,,,2,,,60,0
14448,note_on,3,0,6,,,,,,,,2,,,64,64
14448,note_on,0,0,6,,,,,,,,2,,,60,64
14481,note_on,177,0,5,,,,,,,,2,,,79,0
14493,note_on,45,0,6,,,,,,,,2,,,60,0
14493,note_on,0,0,6,,,,,,,,2,,,64,0
14496,note_on,15,0,5,,,,,,,,2,,,81,64
14496,note_on,0,0,6,,,,,,,,2,,,60,64
14496,note_on,3,0,6,,,,,,,,2,,,65,64
14519,note_on,23,0,5,,,,,,,,2,,,81,0
14520,note_on,1,0,5,,,,,,,,2,,,79,64
14541,note_on,0,0,6,,,,,,,,2,,,65,0
14541,note_on,45,0,6,,,,,,,,2,,,60,0
14543,note_on,23,0,5,,,,,,,,2,,,79,0
14544,note_on,1,0,5,,,,,,,,2,,,81,64
14544,note_on,0,0,6,,,,,,,,2,,,60,64
14544,note_on,3,0,6,,,,,,,,2,,,65,64
14567,note_on,23,0,5,,,,,,,,2,,,81,0
14568,note_on,1,0,5,,,,,,,,2,,,83,64
14589,note_on,0,0,6,,,,,,,,2,,,65,0
14589,note_on,45,0,6,,,,,,,,2,,,60,0
14591,note_on,23,0,5,,,,,,,,2,,,83,0
14592,note_on,1,0,5,,,,,,,,2,,,84,64
14592,note_on,0,0,6,,,,,,,,2,,,60,64
14592,note_on,3,0,6,,,,,,,,2,,,64,64
14637,note_on,45,0,5,,,,,,,,2,,,84,0
14637,note_on,0,0,6,,,,,,,,2,,,64,0
14637,note_on,45,0,6,,,,,,,,2,,,60,0
14640,note_on,0,0,6,,,,,,,,2,,,60,64
14640,note_on,3,0,5,,,,,,,,2,,,79,64
14640,note_on,3,0,6,,,,,,,,2,,,64,64
14685,note_on,0,0,6,,,,,,,,2,,,64,0
14685,note_on,45,0,6,,,,,,,,2,,,60,0
14685,note_on,45,0,5,,,,,,,,2,,,79,0
14688,note_on,3,0,5,,,,,,,,2,,,81,64
14688,note_on,0,0,6,,,,,,,,2,,,60,64
14688,note_on,3,0,6,,,,,,,,2,,,65,64
14711,note_on,23,0,5,,,,,,,,2,,,81,0
14712,note_on,1,0,5,,,,,,,,2,,,79,64
14733,note_on,0,0,6,,,,,,,,2,,,65,0
14733,note_on,45,0,6,,,,,,,,2,,,60,0
14735,note_on,23,0,5,,,,,,,,2,,,79,0
14736,note_on,3,0,6,,,,,,,,2,,,65,64
14736,note_on,1,0,5,,,,,,,,2,,,81,64
14736,note_on,0,0,6,,,,,,,,2,,,60,64
14759,note_on,23,0,5,,,,,,,,2,,,81,0
14760,note_on,1,0,5,,,,,,,,2,,,83,64
14781,note_on,45,0,6,,,,,,,,2,,,60,0
14781,note_on,0,0,6,,,,,,,,2,,,65,0
14783,note_on,23,0,5,,,,,,,,2,,,83,0
14784,note_on,0,0,6,,,,,,,,2,,,60,64
14784,note_on,3,0,6,,,,,,,,2,,,64,64
14784,note_on,1,0,5,,,,,,,,2,,,84,64
14829,note_on,0,0,6,,,,,,,,2,,,64,0
14829,note_on,45,0,5,,,,,,,,2,,,84,0
14829,note_on,45,0,6,,,,,,,,2,,,60,0
14832,note_on,3,0,5,,,,,,,,2,,,79,64
14832,note_on,3,0,6,,,,,,,,2,,,64,64
14832,note_on,0,0,6,,,,,,,,2,,,60,64
14877,note_on,45,0,5,,,,,,,,2,,,79,0
14877,note_on,0,0,6,,,,,,,,2,,,64,0
14877,note_on,45,0,6,,,,,,,,2,,,60,0
14880,note_on,0,0,6,,,,,,,,2,,,60,64
14880,note_on,3,0,5,,,,,,,,2,,,81,64
14880,note_on,3,0,6,,,,,,,,2,,,65,64
14903,note_on,23,0,5,,,,,,,,2,,,81,0
14904,note_on,1,0,5,,,,,,,,2,,,79,64
14925,note_on,45,0,6,,,,,,,,2,,,60,0
14925,note_on,0,0,6,,,,,,,,2,,,65,0
14927,note_on,23,0,5,,,,,,,,2,,,79,0
14928,note_on,0,0,6,,,,,,,,2,,,60,64
14928,note_on,3,0,6,,,,,,,,2,,,65,64
14928,note_on,1,0,5,,,,,,,,2,,,81,64
14951,note_on,23,0,5,,,,,,,,2,,,81,0
14952,note_on,1,0,5,,,,,,,,2,,,83,64
14973,note_on,0,0,6,,,,,,,,2,,,65,0
14973,note_on,45,0,6,,,,,,,,2,,,60,0
14975,note_on,23,0,5,,,,,,,,2,,,83,0
14976,note_on,3,0,6,,,,,,,,2,,,64,64
14976,note_on,0,0,6,,,,,,,,2,,,60,64
14976,note_on,1,0,5,,,,,,,,2,,,84,64
15021,note_on,45,0,6,,,,,,,,2,,,60,0
15021,note_on,0,0,6,,,,,,,,2,,,64,0
15021,note_on,45,0,5,,,,,,,,2,,,84,0
15024,note_on,3,0,6,,,,,,,,2,,,64,64
15024,note_on,0,0,6,,,,,,,,2,,,60,64
15024,note_on,3,0,5,,,,,,,,2,,,79,64
15069,note_on,45,0,5,,,,,,,,2,,,79,0
15069,note_on,0,0,6,,,,,,,,2,,,64,0
15069,note_on,45,0,6,,,,,,,,2,,,60,0
15072,note_on,3,0,5,,,,,,,,2,,,79,64
15072,note_on,0,0,6,,,,,,,,2,,,60,64
15072,note_on,3,0,6,,,,,,,,2,,,64,64
15117,note_on,0,0,6,,,,,,,,2,,,64,0
15117,note_on,45,0,6,,,,,,,,2,,,60,0
15120,note_on,0,0,6,,,,,,,,2,,,60,64
15120,note_on,3,0,6,,,,,,,,2,,,64,64
15165,note_on,45,0,6,,,,,,,,2,,,60,0
15165,note_on,0,0,6,,,,,,,,2,,,64,0
15168,note_on,3,0,6,,,,,,,,2,,,64,64
15168,note_on,0,0,6,,,,,,,,2,,,60,64
15205,note_on,133,0,5,,,,,,,,2,,,79,0
15216,note_on,11,0,5,,,,,,,,2,,,81,64
15239,note_on,23,0,5,,,,,,,,2,,,81,0
15240,note_on,1,0,5,,,,,,,,2,,,79,64
15257,note_on,0,0,6,,,,,,,,2,,,64,0
15257,note_on,89,0,6,,,,,,,,2,,,60,0
15263,note_on,23,0,5,,,,,,,,2,,,79,0
15264,note_on,1,0,5,,,,,,,,2,,,77,64
15287,note_on,23,0,5,,,,,,,,2,,,77,0
15288,note_on,1,0,5,,,,,,,,2,,,76,64
15311,note_on,23,0,5,,,,,,,,2,,,76,0
15312,note_on,1,0,5,,,,,,,,2,,,74,64
15335,note_on,23,0,5,,,,,,,,2,,,74,0
15336,note_on,1,0,5,,,,,,,,2,,,72,64
15359,note_on,23,0,5,,,,,,,,2,,,72,0
15360,note_on,1447,0,8,,,,,,,,3,,,79,43
15360,note_on,1,0,5,,,,,,,,2,,,71,64
15360,note_on,103,0,6,,,,,,,,2,,,65,64
15405,note_on,45,0,6,,,,,,,,2,,,65,0
15408,note_on,3,0,6,,,,,,,,2,,,55,64
15453,note_on,45,0,6,,,,,,,,2,,,55,0
15456,note_on,3,0,6,,,,,,,,2,,,65,64
15501,note_on,45,0,6,,,,,,,,2,,,65,0
15504,note_on,3,0,6,,,,,,,,2,,,55,64
15537,note_on,177,0,5,,,,,,,,2,,,71,0
15549,note_on,45,0,6,,,,,,,,2,,,55,0
15552,note_on,15,0,5,,,,,,,,2,,,72,64
15552,note_on,3,0,6,,,,,,,,2,,,64,64
15564,note_on,12,0,5,,,,,,,,2,,,72,0
15564,note_on,0,0,5,,,,,,,,2,,,74,64
15576,note_on,0,0,5,,,,,,,,2,,,72,64
15576,note_on,12,0,5,,,,,,,,2,,,74,0
15588,note_on,0,0,5,,,,,,,,2,,,74,64
15588,note_on,12,0,5,,,,,,,,2,,,72,0
15597,note_on,45,0,6,,,,,,,,2,,,64,0
15600,note_on,12,0,5,,,,,,,,2,,,74,0
15600,note_on,0,0,5,,,,,,,,2,,,72,64
15600,note_on,3,0,6,,,,,,,,2,,,55,64
15612,note_on,12,0,5,,,,,,,,2,,,72,0
15612,note_on,0,0,5,,,,,,,,2,,,74,64
15624,note_on,12,0,5,,,,,,,,2,,,74,0
15624,note_on,0,0,5,,,,,,,,2,,,72,64
15636,note_on,12,0,5,,,,,,,,2,,,72,0
15636,note_on,0,0,5,,,,,,,,2,,,74,64
15645,note_on,45,0,6,,,,,,,,2,,,55,0
15648,note_on,0,0,5,,,,,,,,2,,,72,64
15648,note_on,12,0,5,,,,,,,,2,,,74,0
15648,note_on,3,0,6,,,,,,,,2,,,64,64
15660,note_on,12,0,5,,,,,,,,2,,,72,0
15660,note_on,0,0,5,,,,,,,,2,,,74,64
15672,note_on,0,0,5,,,,,,,,2,,,72,64
15672,note_on,12,0,5,,,,,,,,2,,,74,0
15684,note_on,12,0,5,,,,,,,,2,,,72,0
15684,note_on,0,0,5,,,,,,,,2,,,74,64
15685,note_on,1,0,5,,,,,,,,2,,,74,0
15693,note_on,45,0,6,,,,,,,,2,,,64,0
15696,note_on,3,0,6,,,,,,,,2,,,55,64
15696,note_on,11,0,5,,,,,,,,2,,,71,64
15719,note_on,23,0,5,,,,,,,,2,,,71,0
15720,note_on,1,0,5,,,,,,,,2,,,72,64
15741,note_on,45,0,6,,,,,,,,2,,,55,0
15743,note_on,23,0,5,,,,,,,,2,,,72,0
15744,note_on,1831,0,9,,,,,,,,3,,,65,43
15744,note_on,3,0,6,,,,,,,,2,,,59,64
15744,note_on,1,0,5,,,,,,,,2,,,74,64
15789,note_on,45,0,6,,,,,,,,2,,,59,0
15789,note_on,45,0,9,,,,,,,,3,,,65,0
15792,note_on,3,0,9,,,,,,,,3,,,55,43
15792,note_on,3,0,6,,,,,,,,2,,,55,66
15837,note_on,45,0,9,,,,,,,,3,,,55,0
15837,note_on,45,0,6,,,,,,,,2,,,55,0
15840,note_on,3,0,9,,,,,,,,3,,,65,43
15840,note_on,3,0,6,,,,,,,,2,,,59,69
15885,note_on,45,0,9,,,,,,,,3,,,65,0
15885,note_on,45,0,6,,,,,,,,2,,,59,0
15888,note_on,3,0,9,,,,,,,,3,,,55,43
15888,note_on,3,0,6,,,,,,,,2,,,55,71
15921,note_on,177,0,5,,,,,,,,2,,,74,0
15933,note_on,45,0,6,,,,,,,,2,,,55,0
15933,note_on,45,0,9,,,,,,,,3,,,55,0
15936,note_on,3,0,6,,,,,,,,2,,,60,74
15936,note_on,15,0,5,,,,,,,,2,,,76,64
15936,note_on,3,0,9,,,,,,,,3,,,64,43
15948,note_on,0,0,5,,,,,,,,2,,,77,64
15948,note_on,12,0,5,,,,,,,,2,,,76,0
15960,note_on,0,0,5,,,,,,,,2,,,76,64
15960,note_on,12,0,5,,,,,,,,2,,,77,0
15972,note_on,12,0,5,,,,,,,,2,,,76,0
15972,note_on,0,0,5,,,,,,,,2,,,77,64
15981,note_on,45,0,6,,,,,,,,2,,,60,0
15981,note_on,45,0,9,,,,,,,,3,,,64,0
15984,note_on,3,0,9,,,,,,,,3,,,55,43
15984,note_on,0,0,5,,,,,,,,2,,,76,64
15984,note_on,12,0,5,,,,,,,,2,,,77,0
15984,note_on,3,0,6,,,,,,,,2,,,55,77
15996,note_on,0,0,5,,,,,,,,2,,,77,64
15996,note_on,12,0,5,,,,,,,,2,,,76,0
16008,note_on,0,0,5,,,,,,,,2,,,76,64
16008,note_on,12,0,5,,,,,,,,2,,,77,0
16020,note_on,12,0,5,,,,,,,,2,,,76,0
16020,note_on,0,0,5,,,,,,,,2,,,77,64
16029,note_on,45,0,6,,,,,,,,2,,,55,0
16029,note_on,45,0,9,,,,,,,,3,,,55,0
16032,note_on,3,0,6,,,,,,,,2,,,60,79
16032,note_on,0,0,5,,,,,,,,2,,,76,64
16032,note_on,3,0,9,,,,,,,,3,,,64,43
16032,note_on,12,0,5,,,,,,,,2,,,77,0
16044,note_on,0,0,5,,,,,,,,2,,,77,64
16044,note_on,12,0,5,,,,,,,,2,,,76,0
16056,note_on,12,0,5,,,,,,,,2,,,77,0
16056,note_on,0,0,5,,,,,,,,2,,,76,64
16068,note_on,12,0,5,,,,,,,,2,,,76,0
16068,note_on,0,0,5,,,,,,,,2,,,77,64
16069,note_on,1,0,5,,,,,,,,2,,,77,0
16077,note_on,45,0,6,,,,,,,,2,,,60,0
16077,note_on,45,0,9,,,,,,,,3,,,64,0
16080,note_on,11,0,5,,,,,,,,2,,,74,74
16080,note_on,3,0,6,,,,,,,,2,,,55,82
16080,note_on,3,0,9,,,,,,,,3,,,55,43
16098,note_on,738,0,8,,,,,,,,3,,,79,0
16103,note_on,23,0,5,,,,,,,,2,,,74,0
16104,note_on,1,0,5,,,,,,,,2,,,76,76
16125,note_on,45,0,9,,,,,,,,3,,,55,0
16125,note_on,45,0,6,,,,,,,,2,,,55,0
16127,note_on,23,0,5,,,,,,,,2,,,76,0
16128,note_on,1,0,5,,,,,,,,2,,,77,78
16128,note_on,3,0,9,,,,,,,,3,,,62,43
16128,note_on,0,0,5,,,,,,,,2,,,67,78
16128,note_on,30,0,8,,,,,,,,3,,,79,43
16128,note_on,0,0,6,,,,,,,,2,,,47,85
16128,note_on,3,0,6,,,,,,,,2,,,59,85
16128,note_on,0,0,5,,,,,,,,2,,,74,78
16217,note_on,89,0,5,,,,,,,,2,,,67,0
16217,note_on,0,0,5,,,,,,,,2,,,74,0
16217,note_on,0,0,5,,,,,,,,2,,,77,0
16217,note_on,0,0,6,,,,,,,,2,,,59,0
16217,note_on,89,0,6,,,,,,,,2,,,47,0
16217,note_on,89,0,8,,,,,,,,3,,,79,0
16217,note_on,89,0,9,,,,,,,,3,,,62,0
16224,note_on,7,0,9,,,,,,,,3,,,64,43
16224,note_on,7,0,6,,,,,,,,2,,,60,85
16224,note_on,0,0,6,,,,,,,,2,,,48,85
16224,note_on,0,0,5,,,,,,,,2,,,67,85
16224,note_on,7,0,5,,,,,,,,2,,,76,85
16224,note_on,0,0,5,,,,,,,,2,,,72,85
16224,note_on,7,0,8,,,,,,,,3,,,67,43
16313,note_on,89,0,6,,,,,,,,2,,,48,0
16313,note_on,89,0,5,,,,,,,,2,,,67,0
16313,note_on,0,0,5,,,,,,,,2,,,72,0
16313,note_on,0,0,5,,,,,,,,2,,,76,0
16313,note_on,89,0,8,,,,,,,,3,,,67,0
16313,note_on,0,0,6,,,,,,,,2,,,60,0
16313,note_on,89,0,9,,,,,,,,3,,,64,0
16320,note_on,7,0,8,,,,,,,,3,,,67,43
16320,note_on,7,0,6,,,,,,,,2,,,53,64
16320,note_on,7,0,5,,,,,,,,2,,,76,78
16320,note_on,7,0,9,,,,,,,,3,,,64,43
16326,note_on,6,0,9,,,,,,,,3,,,64,0
16326,note_on,6,0,8,,,,,,,,3,,,67,0
16326,note_on,0,0,5,,,,,,,,2,,,74,78
16326,note_on,6,0,5,,,,,,,,2,,,76,0
16326,note_on,0,0,8,,,,,,,,3,,,65,43
16326,note_on,0,0,9,,,,,,,,3,,,62,43
16409,note_on,89,0,6,,,,,,,,2,,,53,0
16409,note_on,83,0,5,,,,,,,,2,,,74,0
16409,note_on,83,0,9,,,,,,,,3,,,62,0
16409,note_on,83,0,8,,,,,,,,3,,,65,0
16416,note_on,7,0,8,,,,,,,,3,,,64,43
16416,note_on,7,0,6,,,,,,,,2,,,55,64
16416,note_on,7,0,5,,,,,,,,2,,,72,71
16416,note_on,7,0,9,,,,,,,,3,,,60,43
16436,note_on,20,0,8,,,,,,,,3,,,64,0
16436,note_on,20,0,5,,,,,,,,2,,,72,0
16436,note_on,20,0,9,,,,,,,,3,,,60,0
16464,note_on,28,0,5,,,,,,,,2,,,71,67
16464,note_on,28,0,9,,,,,,,,3,,,59,43
16464,note_on,28,0,8,,,,,,,,3,,,62,43
16484,note_on,20,0,9,,,,,,,,3,,,59,0
16484,note_on,20,0,8,,,,,,,,3,,,62,0
16484,note_on,20,0,5,,,,,,,,2,,,71,0
16505,note_on,89,0,6,,,,,,,,2,,,55,0
16512,note_on,28,0,8,,,,,,,,3,,,60,43
16512,note_on,28,0,5,,,,,,,,2,,,72,64
16512,note_on,28,0,9,,,,,,,,3,,,60,43
16512,note_on,7,0,6,,,,,,,,2,,,48,64
16557,note_on,45,0,5,,,,,,,,2,,,72,0
16557,note_on,45,0,6,,,,,,,,2,,,48,0
16560,note_on,3,0,5,,,,,,,,2,,,84,64
16560,note_on,3,0,6,,,,,,,,2,,,72,64
16601,note_on,89,0,8,,,,,,,,3,,,60,0
16601,note_on,89,0,9,,,,,,,,3,,,60,0
16605,note_on,45,0,6,,,,,,,,2,,,72,0
16605,note_on,45,0,5,,,,,,,,2,,,84,0
16608,note_on,3,0,5,,,,,,,,2,,,83,64
16608,note_on,3,0,6,,,,,,,,2,,,71,64
16653,note_on,45,0,5,,,,,,,,2,,,83,0
16653,note_on,45,0,6,,,,,,,,2,,,71,0
16656,note_on,3,0,6,,,,,,,,2,,,69,64
16656,note_on,3,0,5,,,,,,,,2,,,81,64
16701,note_on,45,0,6,,,,,,,,2,,,69,0
16701,note_on,45,0,5,,,,,,,,2,,,81,0
16704,note_on,3,0,6,,,,,,,,2,,,66,64
16704,note_on,3,0,5,,,,,,,,2,,,78,64
16749,note_on,45,0,6,,,,,,,,2,,,66,0
16749,note_on,45,0,5,,,,,,,,2,,,78,0
16752,note_on,3,0,6,,,,,,,,2,,,67,64
16752,note_on,3,0,5,,,,,,,,2,,,79,64
16797,note_on,45,0,5,,,,,,,,2,,,79,0
16797,note_on,45,0,6,,,,,,,,2,,,67,0
16800,note_on,3,0,5,,,,,,,,2,,,81,64
16800,note_on,3,0,6,,,,,,,,2,,,69,64
16845,note_on,45,0,6,,,,,,,,2,,,69,0
16845,note_on,45,0,5,,,,,,,,2,,,81,0
16848,note_on,3,0,5,,,,,,,,2,,,79,64
16848,note_on,3,0,6,,,,,,,,2,,,67,64
16893,note_on,45,0,6,,,,,,,,2,,,67,0
16893,note_on,45,0,5,,,,,,,,2,,,79,0
16896,note_on,3,0,5,,,,,,,,2,,,79,64
16896,note_on,3,0,6,,,,,,,,2,,,55,64
16896,note_on,295,0,8,,,,,,,,3,,,79,43
16902,note_on,0,0,5,,,,,,,,2,,,71,64
16902,note_on,6,0,5,,,,,,,,2,,,79,0
16919,note_on,23,0,6,,,,,,,,2,,,55,0
16920,note_on,1,0,6,,,,,,,,2,,,67,64
16943,note_on,23,0,6,,,,,,,,2,,,67,0
16944,note_on,1,0,6,,,,,,,,2,,,65,64
16967,note_on,23,0,6,,,,,,,,2,,,65,0
16968,note_on,1,0,6,,,,,,,,2,,,67,64
16991,note_on,23,0,6,,,,,,,,2,,,67,0
16992,note_on,1,0,6,,,,,,,,2,,,55,64
17015,note_on,23,0,6,,,,,,,,2,,,55,0
17016,note_on,1,0,6,,,,,,,,2,,,67,64
17039,note_on,23,0,6,,,,,,,,2,,,67,0
17040,note_on,1,0,6,,,,,,,,2,,,65,64
17063,note_on,23,0,6,,,,,,,,2,,,65,0
17064,note_on,1,0,6,,,,,,,,2,,,67,64
17073,note_on,171,0,5,,,,,,,,2,,,71,0
17087,note_on,23,0,6,,,,,,,,2,,,67,0
17088,note_on,15,0,5,,,,,,,,2,,,72,64
17088,note_on,1,0,6,,,,,,,,2,,,55,64
17100,note_on,0,0,5,,,,,,,,2,,,74,64
17100,note_on,12,0,5,,,,,,,,2,,,72,0
17111,note_on,23,0,6,,,,,,,,2,,,55,0
17112,note_on,12,0,5,,,,,,,,2,,,74,0
17112,note_on,1,0,6,,,,,,,,2,,,67,64
17112,note_on,0,0,5,,,,,,,,2,,,72,64
17124,note_on,0,0,5,,,,,,,,2,,,74,64
17124,note_on,12,0,5,,,,,,,,2,,,72,0
17135,note_on,23,0,6,,,,,,,,2,,,67,0
17136,note_on,12,0,5,,,,,,,,2,,,74,0
17136,note_on,0,0,5,,,,,,,,2,,,72,64
17136,note_on,1,0,6,,,,,,,,2,,,64,64
17148,note_on,12,0,5,,,,,,,,2,,,72,0
17148,note_on,0,0,5,,,,,,,,2,,,74,64
17159,note_on,23,0,6,,,,,,,,2,,,64,0
17160,note_on,1,0,6,,,,,,,,2,,,67,64
17160,note_on,0,0,5,,,,,,,,2,,,72,64
17160,note_on,12,0,5,,,,,,,,2,,,74,0
17172,note_on,12,0,5,,,,,,,,2,,,72,0
17172,note_on,0,0,5,,,,,,,,2,,,74,64
17183,note_on,23,0,6,,,,,,,,2,,,67,0
17184,note_on,12,0,5,,,,,,,,2,,,74,0
17184,note_on,0,0,5,,,,,,,,2,,,72,64
17184,note_on,1,0,6,,,,,,,,2,,,55,64
17196,note_on,12,0,5,,,,,,,,2,,,72,0
17196,note_on,0,0,5,,,,,,,,2,,,74,64
17207,note_on,23,0,6,,,,,,,,2,,,55,0
17208,note_on,0,0,5,,,,,,,,2,,,72,64
17208,note_on,12,0,5,,,,,,,,2,,,74,0
17208,note_on,1,0,6,,,,,,,,2,,,67,64
17220,note_on,12,0,5,,,,,,,,2,,,72,0
17220,note_on,0,0,5,,,,,,,,2,,,74,64
17221,note_on,1,0,5,,,,,,,,2,,,74,0
17231,note_on,23,0,6,,,,,,,,2,,,67,0
17232,note_on,11,0,5,,,,,,,,2,,,71,79
17232,note_on,1,0,6,,,,,,,,2,,,64,64
17255,note_on,23,0,5,,,,,,,,2,,,71,0
17255,note_on,23,0,6,,,,,,,,2,,,64,0
17256,note_on,1,0,6,,,,,,,,2,,,67,64
17256,note_on,1,0,5,,,,,,,,2,,,72,82
17279,note_on,23,0,5,,,,,,,,2,,,72,0
17279,note_on,23,0,6,,,,,,,,2,,,67,0
17280,note_on,1,0,5,,,,,,,,2,,,73,64
17280,note_on,1,0,6,,,,,,,,2,,,55,64
17280,note_on,679,0,9,,,,,,,,3,,,65,43
17286,note_on,0,0,5,,,,,,,,2,,,74,64
17286,note_on,6,0,5,,,,,,,,2,,,73,0
17303,note_on,23,0,6,,,,,,,,2,,,55,0
17304,note_on,1,0,6,,,,,,,,2,,,67,64
17325,note_on,45,0,9,,,,,,,,3,,,65,0
17327,note_on,23,0,6,,,,,,,,2,,,67,0
17328,note_on,3,0,9,,,,,,,,3,,,55,43
17328,note_on,1,0,6,,,,,,,,2,,,59,64
17351,note_on,23,0,6,,,,,,,,2,,,59,0
17352,note_on,1,0,6,,,,,,,,2,,,67,64
17373,note_on,45,0,9,,,,,,,,3,,,55,0
17375,note_on,23,0,6,,,,,,,,2,,,67,0
17376,note_on,3,0,9,,,,,,,,3,,,65,43
17376,note_on,1,0,6,,,,,,,,2,,,55,64
17399,note_on,23,0,6,,,,,,,,2,,,55,0
17400,note_on,1,0,6,,,,,,,,2,,,67,64
17421,note_on,45,0,9,,,,,,,,3,,,65,0
17423,note_on,23,0,6,,,,,,,,2,,,67,0
17424,note_on,3,0,9,,,,,,,,3,,,55,43
17424,note_on,1,0,6,,,,,,,,2,,,59,64
17447,note_on,23,0,6,,,,,,,,2,,,59,0
17448,note_on,1,0,6,,,,,,,,2,,,67,64
17457,note_on,171,0,5,,,,,,,,2,,,74,0
17469,note_on,45,0,9,,,,,,,,3,,,55,0
17471,note_on,23,0,6,,,,,,,,2,,,67,0
17472,note_on,15,0,5,,,,,,,,2,,,76,64
17472,note_on,3,0,9,,,,,,,,3,,,64,43
17472,note_on,1,0,6,,,,,,,,2,,,55,64
17484,note_on,0,0,5,,,,,,,,2,,,77,64
17484,note_on,12,0,5,,,,,,,,2,,,76,0
17495,note_on,23,0,6,,,,,,,,2,,,55,0
17496,note_on,12,0,5,,,,,,,,2,,,77,0
17496,note_on,1,0,6,,,,,,,,2,,,67,64
17496,note_on,0,0,5,,,,,,,,2,,,76,64
17508,note_on,0,0,5,,,,,,,,2,,,77,64
17508,note_on,12,0,5,,,,,,,,2,,,76,0
17517,note_on,45,0,9,,,,,,,,3,,,64,0
17519,note_on,23,0,6,,,,,,,,2,,,67,0
17520,note_on,12,0,5,,,,,,,,2,,,77,0
17520,note_on,1,0,6,,,,,,,,2,,,60,64
17520,note_on,3,0,9,,,,,,,,3,,,55,43
17520,note_on,0,0,5,,,,,,,,2,,,76,64
17532,note_on,12,0,5,,,,,,,,2,,,76,0
17532,note_on,0,0,5,,,,,,,,2,,,77,64
17543,note_on,23,0,6,,,,,,,,2,,,60,0
17544,note_on,12,0,5,,,,,,,,2,,,77,0
17544,note_on,0,0,5,,,,,,,,2,,,76,64
17544,note_on,1,0,6,,,,,,,,2,,,67,64
17556,note_on,12,0,5,,,,,,,,2,,,76,0
17556,note_on,0,0,5,,,,,,,,2,,,77,64
17565,note_on,45,0,9,,,,,,,,3,,,55,0
17567,note_on,23,0,6,,,,,,,,2,,,67,0
17568,note_on,3,0,9,,,,,,,,3,,,64,43
17568,note_on,0,0,5,,,,,,,,2,,,76,64
17568,note_on,1,0,6,,,,,,,,2,,,55,64
17568,note_on,12,0,5,,,,,,,,2,,,77,0
17580,note_on,12,0,5,,,,,,,,2,,,76,0
17580,note_on,0,0,5,,,,,,,,2,,,77,64
17591,note_on,23,0,6,,,,,,,,2,,,55,0
17592,note_on,12,0,5,,,,,,,,2,,,77,0
17592,note_on,0,0,5,,,,,,,,2,,,76,64
17592,note_on,1,0,6,,,,,,,,2,,,67,64
17604,note_on,12,0,5,,,,,,,,2,,,76,0
17604,note_on,0,0,5,,,,,,,,2,,,77,64
17605,note_on,1,0,5,,,,,,,,2,,,77,0
17613,note_on,45,0,9,,,,,,,,3,,,64,0
17615,note_on,23,0,6,,,,,,,,2,,,67,0
17616,note_on,1,0,6,,,,,,,,2,,,60,64
17616,note_on,11,0,5,,,,,,,,2,,,74,74
17616,note_on,3,0,9,,,,,,,,3,,,55,43
17639,note_on,23,0,6,,,,,,,,2,,,60,0
17639,note_on,23,0,5,,,,,,,,2,,,74,0
17640,note_on,1,0,5,,,,,,,,2,,,76,76
17640,note_on,1,0,6,,,,,,,,2,,,67,64
17661,note_on,45,0,9,,,,,,,,3,,,55,0
17663,note_on,23,0,6,,,,,,,,2,,,67,0
17663,note_on,23,0,5,,,,,,,,2,,,76,0
17664,note_on,1,0,6,,,,,,,,2,,,59,85
17664,note_on,1,0,5,,,,,,,,2,,,77,78
17664,note_on,3,0,9,,,,,,,,3,,,62,43
17687,note_on,23,0,5,,,,,,,,2,,,77,0
17688,note_on,1,0,5,,,,,,,,2,,,79,79
17711,note_on,23,0,5,,,,,,,,2,,,79,0
17712,note_on,1,0,5,,,,,,,,2,,,81,81
17735,note_on,23,0,5,,,,,,,,2,,,81,0
17736,note_on,1,0,5,,,,,,,,2,,,77,83
17753,note_on,89,0,9,,,,,,,,3,,,62,0
17753,note_on,857,0,8,,,,,,,,3,,,79,0
17753,note_on,89,0,6,,,,,,,,2,,,59,0
17759,note_on,23,0,5,,,,,,,,2,,,77,0
17760,note_on,7,0,6,,,,,,,,2,,,60,85
17760,note_on,7,0,9,,,,,,,,3,,,64,43
17760,note_on,7,0,8,,,,,,,,3,,,67,43
17760,note_on,1,0,5,,,,,,,,2,,,76,85
17783,note_on,23,0,5,,,,,,,,2,,,76,0
17784,note_on,1,0,5,,,,,,,,2,,,77,83
17807,note_on,23,0,5,,,,,,,,2,,,77,0
17808,note_on,1,0,5,,,,,,,,2,,,79,81
17831,note_on,23,0,5,,,,,,,,2,,,79,0
17832,note_on,1,0,5,,,,,,,,2,,,76,79
17849,note_on,89,0,8,,,,,,,,3,,,67,0
17849,note_on,89,0,6,,,,,,,,2,,,60,0
17849,note_on,89,0,9,,,,,,,,3,,,64,0
17855,note_on,23,0,5,,,,,,,,2,,,76,0
17856,note_on,1,0,5,,,,,,,,2,,,76,78
17856,note_on,7,0,8,,,,,,,,3,,,67,43
17856,note_on,7,0,9,,,,,,,,3,,,64,43
17856,note_on,7,0,6,,,,,,,,2,,,53,85
17862,note_on,6,0,9,,,,,,,,3,,,64,0
17862,note_on,0,0,9,,,,,,,,3,,,62,43
17862,note_on,0,0,8,,,,,,,,3,,,65,43
17862,note_on,6,0,8,,,,,,,,3,,,67,0
17862,note_on,0,0,5,,,,,,,,2,,,74,78
17862,note_on,6,0,5,,,,,,,,2,,,76,0
17945,note_on,83,0,5,,,,,,,,2,,,74,0
17945,note_on,83,0,9,,,,,,,,3,,,62,0
17945,note_on,89,0,6,,,,,,,,2,,,53,0
17945,note_on,83,0,8,,,,,,,,3,,,65,0
17952,note_on,7,0,9,,,,,,,,3,,,60,43
17952,note_on,7,0,8,,,,,,,,3,,,64,43
17952,note_on,7,0,5,,,,,,,,2,,,72,71
17952,note_on,7,0,6,,,,,,,,2,,,55,85
17972,note_on,20,0,5,,,,,,,,2,,,72,0
17972,note_on,20,0,9,,,,,,,,3,,,60,0
17972,note_on,20,0,8,,,,,,,,3,,,64,0
18000,note_on,28,0,8,,,,,,,,3,,,62,43
18000,note_on,28,0,5,,,,,,,,2,,,71,67
18000,note_on,28,0,9,,,,,,,,3,,,59,43
18020,note_on,20,0,8,,,,,,,,3,,,62,0
18020,note_on,20,0,5,,,,,,,,2,,,71,0
18020,note_on,20,0,9,,,,,,,,3,,,59,0
18041,note_on,89,0,6,,,,,,,,2,,,55,0
18048,note_on,4135,0,1,,,,,,,,0,,,84,64
18048,note_on,28,0,8,,,,,,,,3,,,60,85
18048,note_on,28,0,5,,,,,,,,2,,,72,64
18048,note_on,7,0,6,,,,,,,,2,,,48,85
18048,note_on,28,0,9,,,,,,,,3,,,60,85
18071,note_on,23,0,9,,,,,,,,3,,,60,0
18072,note_on,1,0,9,,,,,,,,3,,,60,85
18095,note_on,23,0,9,,,,,,,,3,,,60,0
18096,note_on,4183,0,11,,,,,,,,3,,,36,64
18096,note_on,1,0,9,,,,,,,,3,,,60,85
18119,note_on,23,0,9,,,,,,,,3,,,60,0
18120,note_on,1,0,9,,,,,,,,3,,,60,85
18137,note_on,89,0,5,,,,,,,,2,,,72,0
18137,note_on,89,0,8,,,,,,,,3,,,60,0
18137,note_on,89,0,6,,,,,,,,2,,,48,0
18141,note_on,45,0,11,,,,,,,,3,,,36,0
18143,note_on,23,0,9,,,,,,,,3,,,60,0
18144,note_on,4231,0,2,,,,,,,,0,,,72,64
18144,note_on,4231,0,10,,,,,,,,3,,,55,85
18144,note_on,1,0,9,,,,,,,,3,,,60,85
18144,note_on,3,0,11,,,,,,,,3,,,40,64
18144,note_on,0,0,3,,,,,,,,1,,,60,64
18144,note_on,4231,0,3,,,,,,,,1,,,72,64
18144,note_on,7,0,8,,,,,,,,3,,,60,85
18164,note_on,20,0,2,,,,,,,,0,,,72,0
18164,note_on,20,0,8,,,,,,,,3,,,60,0
18167,note_on,23,0,9,,,,,,,,3,,,60,0
18167,note_on,23,0,10,,,,,,,,3,,,55,0
18168,note_on,1,0,9,,,,,,,,3,,,60,85
18168,note_on,1,0,10,,,,,,,,3,,,55,85
18189,note_on,45,0,3,,,,,,,,1,,,60,0
18189,note_on,0,0,3,,,,,,,,1,,,72,0
18189,note_on,45,0,11,,,,,,,,3,,,40,0
18191,note_on,23,0,9,,,,,,,,3,,,60,0
18191,note_on,23,0,10,,,,,,,,3,,,55,0
18192,note_on,28,0,2,,,,,,,,0,,,70,64
18192,note_on,1,0,10,,,,,,,,3,,,55,85
18192,note_on,3,0,11,,,,,,,,3,,,36,64
18192,note_on,28,0,8,,,,,,,,3,,,58,85
18192,note_on,0,0,3,,,,,,,,1,,,60,64
18192,note_on,1,0,9,,,,,,,,3,,,60,85
18192,note_on,3,0,3,,,,,,,,1,,,72,64
18212,note_on,20,0,8,,,,,,,,3,,,58,0
18212,note_on,20,0,2,,,,,,,,0,,,70,0
18215,note_on,23,0,9,,,,,,,,3,,,60,0
18215,note_on,23,0,10,,,,,,,,3,,,55,0
18216,note_on,1,0,9,,,,,,,,3,,,60,85
18216,note_on,1,0,10,,,,,,,,3,,,55,85
18237,note_on,45,0,11,,,,,,,,3,,,36,0
18237,note_on,0,0,3,,,,,,,,1,,,72,0
18237,note_on,45,0,3,,,,,,,,1,,,60,0
18239,note_on,23,0,9,,,,,,,,3,,,60,0
18239,note_on,23,0,10,,,,,,,,3,,,55,0
18240,note_on,28,0,2,,,,,,,,0,,,69,64
18240,note_on,28,0,8,,,,,,,,3,,,57,85
18240,note_on,3,0,3,,,,,,,,1,,,72,64
18240,note_on,1,0,10,,,,,,,,3,,,53,85
18240,note_on,1,0,9,,,,,,,,3,,,60,85
18240,note_on,3,0,11,,,,,,,,3,,,41,64
18240,note_on,0,0,3,,,,,,,,1,,,60,64
18260,note_on,20,0,8,,,,,,,,3,,,57,0
18263,note_on,23,0,10,,,,,,,,3,,,53,0
18263,note_on,23,0,9,,,,,,,,3,,,60,0
18264,note_on,1,0,10,,,,,,,,3,,,53,85
18264,note_on,1,0,9,,,,,,,,3,,,60,85
18285,note_on,45,0,2,,,,,,,,0,,,69,0
18285,note_on,45,0,11,,,,,,,,3,,,41,0
18287,note_on,23,0,9,,,,,,,,3,,,60,0
18287,note_on,23,0,10,,,,,,,,3,,,53,0
18288,note_on,1,0,9,,,,,,,,3,,,60,85
18288,note_on,3,0,11,,,,,,,,3,,,36,64
18288,note_on,1,0,10,,,,,,,,3,,,53,85
18311,note_on,23,0,9,,,,,,,,3,,,60,0
18311,note_on,23,0,10,,,,,,,,3,,,53,0
18312,note_on,52,0,8,,,,,,,,3,,,72,85
18312,note_on,1,0,9,,,,,,,,3,,,60,85
18312,note_on,27,0,2,,,,,,,,0,,,72,64
18312,note_on,1,0,10,,,,,,,,3,,,53,85
18333,note_on,45,0,11,,,,,,,,3,,,36,0
18335,note_on,23,0,10,,,,,,,,3,,,53,0
18335,note_on,23,0,9,,,,,,,,3,,,60,0
18335,note_on,23,0,8,,,,,,,,3,,,72,0
18335,note_on,23,0,2,,,,,,,,0,,,72,0
18336,note_on,1,0,8,,,,,,,,3,,,77,85
18336,note_on,1,0,10,,,,,,,,3,,,53,85
18336,note_on,3,0,11,,,,,,,,3,,,45,64
18336,note_on,1,0,2,,,,,,,,0,,,77,64
18336,note_on,1,0,9,,,,,,,,3,,,60,85
18359,note_on,23,0,8,,,,,,,,3,,,77,0
18359,note_on,23,0,2,,,,,,,,0,,,77,0
18359,note_on,23,0,9,,,,,,,,3,,,60,0
18359,note_on,23,0,10,,,,,,,,3,,,53,0
18360,note_on,1,0,10,,,,,,,,3,,,53,85
18360,note_on,1,0,2,,,,,,,,0,,,72,64
18360,note_on,1,0,8,,,,,,,,3,,,72,85
18360,note_on,1,0,9,,,,,,,,3,,,60,85
18381,note_on,45,0,11,,,,,,,,3,,,45,0
18383,note_on,23,0,9,,,,,,,,3,,,60,0
18383,note_on,23,0,8,,,,,,,,3,,,72,0
18383,note_on,23,0,2,,,,,,,,0,,,72,0
18383,note_on,23,0,10,,,,,,,,3,,,53,0
18384,note_on,1,0,9,,,,,,,,3,,,60,85
18384,note_on,1,0,10,,,,,,,,3,,,53,85
18384,note_on,1,0,8,,,,,,,,3,,,77,85
18384,note_on,1,0,2,,,,,,,,0,,,77,64
18384,note_on,3,0,11,,,,,,,,3,,,41,64
18394,note_on,10,0,8,,,,,,,,3,,,77,0
18394,note_on,10,0,2,,,,,,,,0,,,77,0
18407,note_on,23,0,10,,,,,,,,3,,,53,0
18407,note_on,23,0,9,,,,,,,,3,,,60,0
18408,note_on,14,0,2,,,,,,,,0,,,81,64
18408,note_on,1,0,10,,,,,,,,3,,,53,85
18408,note_on,14,0,8,,,,,,,,3,,,81,85
18408,note_on,1,0,9,,,,,,,,3,,,60,85
18418,note_on,10,0,2,,,,,,,,0,,,81,0
18418,note_on,10,0,8,,,,,,,,3,,,81,0
18429,note_on,45,0,11,,,,,,,,3,,,41,0
18431,note_on,23,0,10,,,,,,,,3,,,53,0
18431,note_on,23,0,9,,,,,,,,3,,,60,0
18432,note_on,3,0,11,,,,,,,,3,,,48,64
18432,note_on,14,0,2,,,,,,,,0,,,79,64
18432,note_on,1,0,10,,,,,,,,3,,,52,85
18432,note_on,14,0,8,,,,,,,,3,,,79,85
18432,note_on,1,0,9,,,,,,,,3,,,60,85
18455,note_on,23,0,10,,,,,,,,3,,,52,0
18455,note_on,23,0,9,,,,,,,,3,,,60,0
18456,note_on,1,0,10,,,,,,,,3,,,52,85
18456,note_on,1,0,9,,,,,,,,3,,,60,85
18477,note_on,45,0,11,,,,,,,,3,,,48,0
18479,note_on,23,0,9,,,,,,,,3,,,60,0
18479,note_on,23,0,10,,,,,,,,3,,,52,0
18480,note_on,1,0,9,,,,,,,,3,,,60,85
18480,note_on,3,0,11,,,,,,,,3,,,36,64
18480,note_on,1,0,10,,,,,,,,3,,,52,85
18503,note_on,23,0,9,,,,,,,,3,,,60,0
18503,note_on,23,0,10,,,,,,,,3,,,52,0
18504,note_on,1,0,9,,,,,,,,3,,,60,85
18504,note_on,1,0,10,,,,,,,,3,,,52,85
18521,note_on,281,0,3,,,,,,,,1,,,60,0
18521,note_on,0,0,3,,,,,,,,1,,,72,0
18521,note_on,89,0,8,,,,,,,,3,,,79,0
18521,note_on,89,0,2,,,,,,,,0,,,79,0
18525,note_on,45,0,11,,,,,,,,3,,,36,0
18527,note_on,23,0,9,,,,,,,,3,,,60,0
18527,note_on,23,0,10,,,,,,,,3,,,52,0
18528,note_on,3,0,11,,,,,,,,3,,,40,64
18528,note_on,1,0,10,,,,,,,,3,,,55,85
18528,note_on,7,0,3,,,,,,,,1,,,72,64
18528,note_on,0,0,3,,,,,,,,1,,,60,64
18528,note_on,7,0,2,,,,,,,,0,,,72,64
18528,note_on,1,0,9,,,,,,,,3,,,60,85
18528,note_on,7,0,8,,,,,,,,3,,,60,85
18548,note_on,20,0,8,,,,,,,,3,,,60,0
18548,note_on,20,0,2,,,,,,,,0,,,72,0
18551,note_on,23,0,9,,,,,,,,3,,,60,0
18551,note_on,23,0,10,,,,,,,,3,,,55,0
18552,note_on,1,0,10,,,,,,,,3,,,55,85
18552,note_on,1,0,9,,,,,,,,3,,,60,85
18573,note_on,45,0,11,,,,,,,,3,,,40,0
18573,note_on,0,0,3,,,,,,,,1,,,72,0
18573,note_on,45,0,3,,,,,,,,1,,,60,0
18575,note_on,23,0,10,,,,,,,,3,,,55,0
18575,note_on,23,0,9,,,,,,,,3,,,60,0
18576,note_on,28,0,2,,,,,,,,0,,,70,64
18576,note_on,0,0,3,,,,,,,,1,,,60,64
18576,note_on,1,0,10,,,,,,,,3,,,55,85
18576,note_on,1,0,9,,,,,,,,3,,,60,85
18576,note_on,3,0,3,,,,,,,,1,,,72,64
18576,note_on,28,0,8,,,,,,,,3,,,58,85
18576,note_on,3,0,11,,,,,,,,3,,,36,64
18596,note_on,20,0,8,,,,,,,,3,,,58,0
18596,note_on,20,0,2,,,,,,,,0,,,70,0
18599,note_on,23,0,10,,,,,,,,3,,,55,0
18599,note_on,23,0,9,,,,,,,,3,,,60,0
18600,note_on,1,0,9,,,,,,,,3,,,60,85
18600,note_on,1,0,10,,,,,,,,3,,,55,85
18621,note_on,45,0,3,,,,,,,,1,,,60,0
18621,note_on,45,0,11,,,,,,,,3,,,36,0
18621,note_on,0,0,3,,,,,,,,1,,,72,0
18623,note_on,23,0,9,,,,,,,,3,,,60,0
18623,note_on,23,0,10,,,,,,,,3,,,55,0
18624,note_on,28,0,8,,,,,,,,3,,,57,85
18624,note_on,28,0,2,,,,,,,,0,,,69,64
18624,note_on,3,0,3,,,,,,,,1,,,72,64
18624,note_on,1,0,9,,,,,,,,3,,,60,85
18624,note_on,3,0,11,,,,,,,,3,,,41,64
18624,note_on,0,0,3,,,,,,,,1,,,60,64
18624,note_on,1,0,10,,,,,,,,3,,,53,85
18644,note_on,20,0,8,,,,,,,,3,,,57,0
18647,note_on,23,0,9,,,,,,,,3,,,60,0
18647,note_on,23,0,10,,,,,,,,3,,,53,0
18648,note_on,1,0,10,,,,,,,,3,,,53,85
18648,note_on,1,0,9,,,,,,,,3,,,60,85
18669,note_on,45,0,2,,,,,,,,0,,,69,0
18669,note_on,45,0,11,,,,,,,,3,,,41,0
18671,note_on,23,0,10,,,,,,,,3,,,53,0
18671,note_on,23,0,9,,,,,,,,3,,,60,0
18672,note_on,1,0,10,,,,,,,,3,,,53,85
18672,note_on,3,0,11,,,,,,,,3,,,36,64
18672,note_on,1,0,9,,,,,,,,3,,,60,85
18695,note_on,23,0,9,,,,,,,,3,,,60,0
18695,note_on,23,0,10,,,,,,,,3,,,53,0
18696,note_on,1,0,10,,,,,,,,3,,,53,85
18696,note_on,1,0,9,,,,,,,,3,,,60,85
18696,note_on,27,0,2,,,,,,,,0,,,72,64
18696,note_on,52,0,8,,,,,,,,3,,,72,85
18717,note_on,45,0,11,,,,,,,,3,,,36,0
18719,note_on,23,0,2,,,,,,,,0,,,72,0
18719,note_on,23,0,9,,,,,,,,3,,,60,0
18719,note_on,23,0,10,,,,,,,,3,,,53,0
18719,note_on,23,0,8,,,,,,,,3,,,72,0
18720,note_on,1,0,2,,,,,,,,0,,,77,64
18720,note_on,1,0,9,,,,,,,,3,,,60,85
18720,note_on,3,0,11,,,,,,,,3,,,45,64
18720,note_on,1,0,10,,,,,,,,3,,,53,85
18720,note_on,1,0,8,,,,,,,,3,,,77,85
18743,note_on,23,0,9,,,,,,,,3,,,60,0
18743,note_on,23,0,8,,,,,,,,3,,,77,0
18743,note_on,23,0,10,,,,,,,,3,,,53,0
18743,note_on,23,0,2,,,,,,,,0,,,77,0
18744,note_on,1,0,9,,,,,,,,3,,,60,85
18744,note_on,1,0,2,,,,,,,,0,,,72,64
18744,note_on,1,0,10,,,,,,,,3,,,53,85
18744,note_on,1,0,8,,,,,,,,3,,,72,85
18765,note_on,45,0,11,,,,,,,,3,,,45,0
18767,note_on,23,0,9,,,,,,,,3,,,60,0
18767,note_on,23,0,10,,,,,,,,3,,,53,0
18767,note_on,23,0,8,,,,,,,,3,,,72,0
18767,note_on,23,0,2,,,,,,,,0,,,72,0
18768,note_on,1,0,8,,,,,,,,3,,,77,85
18768,note_on,1,0,10,,,,,,,,3,,,53,85
18768,note_on,1,0,2,,,,,,,,0,,,77,64
18768,note_on,3,0,11,,,,,,,,3,,,41,64
18768,note_on,1,0,9,,,,,,,,3,,,60,85
18778,note_on,10,0,8,,,,,,,,3,,,77,0
18778,note_on,10,0,2,,,,,,,,0,,,77,0
18791,note_on,23,0,10,,,,,,,,3,,,53,0
18791,note_on,23,0,9,,,,,,,,3,,,60,0
18792,note_on,14,0,8,,,,,,,,3,,,81,85
18792,note_on,14,0,2,,,,,,,,0,,,81,64
18792,note_on,1,0,10,,,,,,,,3,,,53,85
18792,note_on,1,0,9,,,,,,,,3,,,60,85
18802,note_on,10,0,8,,,,,,,,3,,,81,0
18802,note_on,10,0,2,,,,,,,,0,,,81,0
18813,note_on,45,0,11,,,,,,,,3,,,41,0
18815,note_on,23,0,10,,,,,,,,3,,,53,0
18815,note_on,23,0,9,,,,,,,,3,,,60,0
18816,note_on,1,0,10,,,,,,,,3,,,52,85
18816,note_on,3,0,11,,,,,,,,3,,,48,64
18816,note_on,14,0,2,,,,,,,,0,,,79,64
18816,note_on,14,0,8,,,,,,,,3,,,79,85
18816,note_on,1,0,9,,,,,,,,3,,,60,85
18864,note_on,727,0,6,,,,,,,,2,,,60,64
18905,note_on,89,0,2,,,,,,,,0,,,79,0
18905,note_on,89,0,11,,,,,,,,3,,,48,0
18905,note_on,857,0,1,,,,,,,,0,,,84,0
18905,note_on,89,0,8,,,,,,,,3,,,79,0
18905,note_on,0,0,3,,,,,,,,1,,,72,0
18905,note_on,281,0,3,,,,,,,,1,,,60,0
18905,note_on,89,0,9,,,,,,,,3,,,60,0
18905,note_on,89,0,10,,,,,,,,3,,,52,0
18909,note_on,45,0,6,,,,,,,,2,,,60,0
18912,note_on,3,0,6,,,,,,,,2,,,76,64
18912,note_on,0,0,6,,,,,,,,2,,,72,64
18912,note_on,775,0,5,,,,,,,,2,,,79,64
18924,note_on,0,0,5,,,,,,,,2,,,81,64
18924,note_on,12,0,5,,,,,,,,2,,,79,0
18936,note_on,0,0,5,,,,,,,,2,,,79,64
18936,note_on,12,0,5,,,,,,,,2,,,81,0
18957,note_on,0,0,6,,,,,,,,2,,,76,0
18957,note_on,21,0,5,,,,,,,,2,,,79,0
18957,note_on,45,0,6,,,,,,,,2,,,72,0
18960,note_on,3,0,6,,,,,,,,2,,,74,64
18960,note_on,3,0,5,,,,,,,,2,,,79,64
18960,note_on,0,0,6,,,,,,,,2,,,71,64
19005,note_on,45,0,6,,,,,,,,2,,,71,0
19005,note_on,0,0,6,,,,,,,,2,,,74,0
19005,note_on,45,0,5,,,,,,,,2,,,79,0
19008,note_on,0,0,6,,,,,,,,2,,,69,64
19008,note_on,3,0,5,,,,,,,,2,,,79,64
19008,note_on,3,0,6,,,,,,,,2,,,72,64
19014,note_on,6,0,5,,,,,,,,2,,,79,0
19014,note_on,0,0,5,,,,,,,,2,,,77,64
19028,note_on,14,0,5,,,,,,,,2,,,77,0
19056,note_on,28,0,5,,,,,,,,2,,,77,64
19076,note_on,20,0,5,,,,,,,,2,,,77,0
19097,note_on,89,0,6,,,,,,,,2,,,69,0
19097,note_on,0,0,6,,,,,,,,2,,,72,0
19104,note_on,7,0,6,,,,,,,,2,,,71,64
19104,note_on,0,0,6,,,,,,,,2,,,67,64
19152,note_on,76,0,5,,,,,,,,2,,,76,64
19193,note_on,89,0,6,,,,,,,,2,,,67,0
19193,note_on,0,0,6,,,,,,,,2,,,71,0
19197,note_on,45,0,5,,,,,,,,2,,,76,0
19200,note_on,0,0,6,,,,,,,,2,,,65,64
19200,note_on,7,0,6,,,,,,,,2,,,69,64
19200,note_on,3,0,5,,,,,,,,2,,,76,64
19206,note_on,6,0,5,,,,,,,,2,,,76,0
19206,note_on,0,0,5,,,,,,,,2,,,74,64
19220,note_on,14,0,5,,,,,,,,2,,,74,0
19248,note_on,28,0,5,,,,,,,,2,,,74,64
19268,note_on,20,0,5,,,,,,,,2,,,74,0
19289,note_on,89,0,6,,,,,,,,2,,,65,0
19289,note_on,0,0,6,,,,,,,,2,,,69,0
19296,note_on,0,0,6,,,,,,,,2,,,64,64
19296,note_on,7,0,6,,,,,,,,2,,,67,64
19344,note_on,76,0,5,,,,,,,,2,,,72,64
19385,note_on,0,0,6,,,,,,,,2,,,67,0
19385,note_on,89,0,6,,,,,,,,2,,,64,0
19389,note_on,45,0,5,,,,,,,,2,,,72,0
19392,note_on,3,0,5,,,,,,,,2,,,72,64
19392,note_on,0,0,6,,,,,,,,2,,,62,64
19392,note_on,7,0,6,,,,,,,,2,,,65,64
19398,note_on,0,0,5,,,,,,,,2,,,71,64
19398,note_on,6,0,5,,,,,,,,2,,,72,0
19412,note_on,14,0,5,,,,,,,,2,,,71,0
19440,note_on,28,0,5,,,,,,,,2,,,71,64
19460,note_on,20,0,5,,,,,,,,2,,,71,0
19481,note_on,0,0,6,,,,,,,,2,,,65,0
19481,note_on,89,0,6,,,,,,,,2,,,62,0
19488,note_on,0,0,6,,,,,,,,2,,,60,64
19488,note_on,7,0,6,,,,,,,,2,,,64,64
19536,note_on,76,0,5,,,,,,,,2,,,74,64
19548,note_on,12,0,5,,,,,,,,2,,,74,0
19548,note_on,0,0,5,,,,,,,,2,,,72,64
19560,note_on,12,0,5,,,,,,,,2,,,72,0
19560,note_on,0,0,5,,,,,,,,2,,,71,64
19572,note_on,12,0,5,,,,,,,,2,,,71,0
19572,note_on,0,0,5,,,,,,,,2,,,72,64
19577,note_on,89,0,6,,,,,,,,2,,,60,0
19577,note_on,0,0,6,,,,,,,,2,,,64,0
19584,note_on,12,0,5,,,,,,,,2,,,72,0
19584,note_on,0,0,5,,,,,,,,2,,,73,64
19584,note_on,0,0,6,,,,,,,,2,,,55,64
19584,note_on,7,0,6,,,,,,,,2,,,59,64
19629,note_on,45,0,5,,,,,,,,2,,,73,0
19632,note_on,3,0,5,,,,,,,,2,,,74,69
19673,note_on,89,0,6,,,,,,,,2,,,55,0
19673,note_on,0,0,6,,,,,,,,2,,,59,0
19677,note_on,45,0,5,,,,,,,,2,,,74,0
19680,note_on,775,0,9,,,,,,,,3,,,67,43
19680,note_on,3,0,5,,,,,,,,2,,,72,74
19680,note_on,775,0,8,,,,,,,,3,,,72,43
19680,note_on,7,0,6,,,,,,,,2,,,64,64
19680,note_on,775,0,10,,,,,,,,3,,,64,43
19703,note_on,23,0,5,,,,,,,,2,,,72,0
19704,note_on,1,0,5,,,,,,,,2,,,76,77
19725,note_on,45,0,6,,,,,,,,2,,,64,0
19725,note_on,45,0,8,,,,,,,,3,,,72,0
19725,note_on,45,0,10,,,,,,,,3,,,64,0
19727,note_on,23,0,5,,,,,,,,2,,,76,0
19728,note_on,3,0,10,,,,,,,,3,,,60,43
19728,note_on,3,0,8,,,,,,,,3,,,76,43
19728,note_on,1,0,5,,,,,,,,2,,,79,79
19728,note_on,3,0,6,,,,,,,,2,,,60,64
19751,note_on,23,0,5,,,,,,,,2,,,79,0
19752,note_on,1,0,5,,,,,,,,2,,,84,82
19769,note_on,89,0,9,,,,,,,,3,,,67,0
19773,note_on,45,0,10,,,,,,,,3,,,60,0
19773,note_on,45,0,8,,,,,,,,3,,,76,0
19773,note_on,45,0,6,,,,,,,,2,,,60,0
19775,note_on,23,0,5,,,,,,,,2,,,84,0
19776,note_on,3,0,6,,,,,,,,2,,,72,85
19776,note_on,0,0,6,,,,,,,,2,,,69,85
19776,note_on,1,0,5,,,,,,,,2,,,79,85
19776,note_on,3,0,10,,,,,,,,3,,,69,43
19776,note_on,7,0,9,,,,,,,,3,,,72,43
19799,note_on,23,0,5,,,,,,,,2,,,79,0
19800,note_on,1,0,5,,,,,,,,2,,,77,82
19823,note_on,23,0,5,,,,,,,,2,,,77,0
19824,note_on,1,0,5,,,,,,,,2,,,76,79
19824,note_on,51,0,8,,,,,,,,3,,,77,43
19847,note_on,23,0,5,,,,,,,,2,,,76,0
19848,note_on,1,0,5,,,,,,,,2,,,77,77
19865,note_on,89,0,10,,,,,,,,3,,,69,0
19865,note_on,89,0,6,,,,,,,,2,,,69,0
19865,note_on,89,0,9,,,,,,,,3,,,72,0
19865,note_on,0,0,6,,,,,,,,2,,,72,0
19869,note_on,45,0,8,,,,,,,,3,,,77,0
19871,note_on,23,0,5,,,,,,,,2,,,77,0
19872,note_on,7,0,9,,,,,,,,3,,,71,43
19872,note_on,1,0,5,,,,,,,,2,,,77,74
19872,note_on,0,0,6,,,,,,,,2,,,67,64
19872,note_on,7,0,6,,,,,,,,2,,,71,64
19872,note_on,7,0,10,,,,,,,,3,,,67,43
19895,note_on,23,0,5,,,,,,,,2,,,77,0
19896,note_on,1,0,5,,,,,,,,2,,,76,71
19919,note_on,23,0,5,,,,,,,,2,,,76,0
19920,note_on,1,0,5,,,,,,,,2,,,75,69
19920,note_on,51,0,8,,,,,,,,3,,,76,43
19943,note_on,23,0,5,,,,,,,,2,,,75,0
19944,note_on,1,0,5,,,,,,,,2,,,76,66
19961,note_on,89,0,6,,,,,,,,2,,,67,0
19961,note_on,89,0,10,,,,,,,,3,,,67,0
19961,note_on,89,0,9,,,,,,,,3,,,71,0
19961,note_on,0,0,6,,,,,,,,2,,,71,0
19965,note_on,45,0,8,,,,,,,,3,,,76,0
19967,note_on,23,0,5,,,,,,,,2,,,76,0
19968,note_on,7,0,10,,,,,,,,3,,,65,43
19968,note_on,1,0,5,,,,,,,,2,,,76,64
19968,note_on,7,0,9,,,,,,,,3,,,69,43
19968,note_on,0,0,6,,,,,,,,2,,,65,64
19968,note_on,7,0,6,,,,,,,,2,,,69,64
19991,note_on,23,0,5,,,,,,,,2,,,76,0
19992,note_on,1,0,5,,,,,,,,2,,,74,64
20015,note_on,23,0,5,,,,,,,,2,,,74,0
20016,note_on,1,0,5,,,,,,,,2,,,73,64
20016,note_on,51,0,8,,,,,,,,3,,,74,43
20039,note_on,23,0,5,,,,,,,,2,,,73,0
20040,note_on,1,0,5,,,,,,,,2,,,74,64
20057,note_on,89,0,6,,,,,,,,2,,,65,0
20057,note_on,0,0,6,,,,,,,,2,,,69,0
20057,note_on,89,0,10,,,,,,,,3,,,65,0
20057,note_on,89,0,9,,,,,,,,3,,,69,0
20061,note_on,45,0,8,,,,,,,,3,,,74,0
20063,note_on,23,0,5,,,,,,,,2,,,74,0
20064,note_on,0,0,6,,,,,,,,2,,,64,64
20064,note_on,7,0,6,,,,,,,,2,,,67,64
20064,note_on,7,0,10,,,,,,,,3,,,64,43
20064,note_on,7,0,9,,,,,,,,3,,,67,43
20064,note_on,1,0,5,,,,,,,,2,,,74,64
20087,note_on,23,0,5,,,,,,,,2,,,74,0
20088,note_on,1,0,5,,,,,,,,2,,,72,64
20111,note_on,23,0,5,,,,,,,,2,,,72,0
20112,note_on,1,0,5,,,,,,,,2,,,71,64
20112,note_on,51,0,8,,,,,,,,3,,,72,43
20135,note_on,23,0,5,,,,,,,,2,,,71,0
20136,note_on,1,0,5,,,,,,,,2,,,72,64
20153,note_on,89,0,6,,,,,,,,2,,,64,0
20153,note_on,0,0,6,,,,,,,,2,,,67,0
20153,note_on,89,0,9,,,,,,,,3,,,67,0
20153,note_on,89,0,10,,,,,,,,3,,,64,0
20157,note_on,45,0,8,,,,,,,,3,,,72,0
20159,note_on,23,0,5,,,,,,,,2,,,72,0
20160,note_on,1,0,5,,,,,,,,2,,,72,64
20160,note_on,7,0,10,,,,,,,,3,,,62,43
20160,note_on,0,0,6,,,,,,,,2,,,62,64
20160,note_on,7,0,6,,,,,,,,2,,,65,64
20160,note_on,7,0,9,,,,,,,,3,,,65,43
20183,note_on,23,0,5,,,,,,,,2,,,72,0
20184,note_on,1,0,5,,,,,,,,2,,,71,64
20207,note_on,23,0,5,,,,,,,,2,,,71,0
20208,note_on,1,0,5,,,,,,,,2,,,69,64
20208,note_on,51,0,8,,,,,,,,3,,,71,43
20228,note_on,20,0,8,,,,,,,,3,,,71,0
20231,note_on,23,0,5,,,,,,,,2,,,69,0
20232,note_on,1,0,5,,,,,,,,2,,,71,64
20249,note_on,0,0,6,,,,,,,,2,,,65,0
20249,note_on,89,0,9,,,,,,,,3,,,65,0
20249,note_on,89,0,6,,,,,,,,2,,,62,0
20249,note_on,89,0,10,,,,,,,,3,,,62,0
20255,note_on,23,0,5,,,,,,,,2,,,71,0
20256,note_on,28,0,8,,,,,,,,3,,,72,43
20256,note_on,1,0,5,,,,,,,,2,,,72,64
20256,note_on,7,0,9,,,,,,,,3,,,64,43
20256,note_on,7,0,10,,,,,,,,3,,,60,43
20256,note_on,7,0,6,,,,,,,,2,,,64,64
20276,note_on,20,0,8,,,,,,,,3,,,72,0
20276,note_on,20,0,6,,,,,,,,2,,,64,0
20276,note_on,20,0,9,,,,,,,,3,,,64,0
20279,note_on,23,0,5,,,,,,,,2,,,72,0
20280,note_on,1,0,5,,,,,,,,2,,,67,64
20303,note_on,23,0,5,,,,,,,,2,,,67,0
20304,note_on,28,0,8,,,,,,,,3,,,76,43
20304,note_on,28,0,9,,,,,,,,3,,,60,43
20304,note_on,28,0,6,,,,,,,,2,,,60,64
20304,note_on,1,0,5,,,,,,,,2,,,72,64
20324,note_on,20,0,6,,,,,,,,2,,,60,0
20324,note_on,20,0,8,,,,,,,,3,,,76,0
20324,note_on,20,0,9,,,,,,,,3,,,60,0
20327,note_on,23,0,5,,,,,,,,2,,,72,0
20328,note_on,1,0,5,,,,,,,,2,,,76,64
20345,note_on,89,0,10,,,,,,,,3,,,60,0
20351,note_on,23,0,5,,,,,,,,2,,,76,0
20352,note_on,28,0,6,,,,,,,,2,,,55,64
20352,note_on,1447,0,11,,,,,,,,3,,,43,64
20352,note_on,7,0,10,,,,,,,,3,,,59,85
20352,note_on,28,0,8,,,,,,,,3,,,74,43
20352,note_on,28,0,9,,,,,,,,3,,,59,43
20352,note_on,1,0,5,,,,,,,,2,,,74,64
20352,note_on,0,0,5,,,,,,,,2,,,71,64
20372,note_on,20,0,8,,,,,,,,3,,,74,0
20372,note_on,20,0,9,,,,,,,,3,,,59,0
20375,note_on,23,0,10,,,,,,,,3,,,59,0
20375,note_on,23,0,11,,,,,,,,3,,,43,0
20376,note_on,1,0,10,,,,,,,,3,,,57,85
20376,note_on,1,0,11,,,,,,,,3,,,45,64
20399,note_on,23,0,10,,,,,,,,3,,,57,0
20399,note_on,23,0,11,,,,,,,,3,,,45,0
20400,note_on,1,0,10,,,,,,,,3,,,55,85
20400,note_on,28,0,9,,,,,,,,3,,,67,43
20400,note_on,1,0,11,,,,,,,,3,,,47,64
20420,note_on,20,0,9,,,,,,,,3,,,67,0
20423,note_on,23,0,10,,,,,,,,3,,,55,0
20423,note_on,23,0,11,,,,,,,,3,,,47,0
20424,note_on,1,0,11,,,,,,,,3,,,45,64
20424,note_on,1,0,10,,,,,,,,3,,,57,85
20441,note_on,0,0,5,,,,,,,,2,,,74,0
20441,note_on,89,0,5,,,,,,,,2,,,71,0
20441,note_on,89,0,6,,,,,,,,2,,,55,0
20447,note_on,23,0,11,,,,,,,,3,,,45,0
20447,note_on,23,0,10,,,,,,,,3,,,57,0
20448,note_on,1,0,11,,,,,,,,3,,,43,64
20448,note_on,1543,0,3,,,,,,,,1,,,74,64
20448,note_on,1543,0,2,,,,,,,,0,,,77,64
20448,note_on,76,0,8,,,,,,,,3,,,79,85
20448,note_on,1543,0,1,,,,,,,,0,,,79,64
20448,note_on,28,0,9,,,,,,,,3,,,77,85
20448,note_on,1,0,10,,,,,,,,3,,,59,85
20448,note_on,0,0,3,,,,,,,,1,,,67,64
20468,note_on,20,0,8,,,,,,,,3,,,79,0
20468,note_on,20,0,9,,,,,,,,3,,,77,0
20471,note_on,23,0,11,,,,,,,,3,,,43,0
20471,note_on,23,0,10,,,,,,,,3,,,59,0
20472,note_on,1,0,10,,,,,,,,3,,,60,85
20472,note_on,1,0,11,,,,,,,,3,,,45,64
20493,note_on,0,0,3,,,,,,,,1,,,74,0
20493,note_on,45,0,3,,,,,,,,1,,,67,0
20495,note_on,23,0,11,,,,,,,,3,,,45,0
20495,note_on,23,0,10,,,,,,,,3,,,60,0
20496,note_on,0,0,3,,,,,,,,1,,,67,64
20496,note_on,1,0,11,,,,,,,,3,,,47,64
20496,note_on,28,0,9,,,,,,,,3,,,77,85
20496,note_on,28,0,8,,,,,,,,3,,,79,85
20496,note_on,1,0,10,,,,,,,,3,,,62,85
20496,note_on,3,0,3,,,,,,,,1,,,74,64
20516,note_on,20,0,9,,,,,,,,3,,,77,0
20516,note_on,20,0,8,,,,,,,,3,,,79,0
20519,note_on,23,0,11,,,,,,,,3,,,47,0
20519,note_on,23,0,10,,,,,,,,3,,,62,0
20520,note_on,1,0,11,,,,,,,,3,,,43,64
20520,note_on,1,0,10,,,,,,,,3,,,59,85
20537,note_on,89,0,2,,,,,,,,0,,,77,0
20541,note_on,0,0,3,,,,,,,,1,,,74,0
20541,note_on,45,0,3,,,,,,,,1,,,67,0
20543,note_on,23,0,10,,,,,,,,3,,,59,0
20543,note_on,23,0,11,,,,,,,,3,,,43,0
20544,note_on,7,0,2,,,,,,,,0,,,76,64
20544,note_on,0,0,3,,,,,,,,1,,,72,64
20544,note_on,3,0,3,,,,,,,,1,,,76,64
20544,note_on,28,0,9,,,,,,,,3,,,76,85
20544,note_on,1,0,11,,,,,,,,3,,,48,64
20544,note_on,1,0,10,,,,,,,,3,,,60,85
20544,note_on,28,0,8,,,,,,,,3,,,79,85
20554,note_on,10,0,9,,,,,,,,3,,,76,0
20567,note_on,23,0,11,,,,,,,,3,,,48,0
20568,note_on,1,0,11,,,,,,,,3,,,50,64
20568,note_on,14,0,9,,,,,,,,3,,,74,85
20578,note_on,10,0,9,,,,,,,,3,,,74,0
20589,note_on,45,0,10,,,,,,,,3,,,60,0
20591,note_on,23,0,11,,,,,,,,3,,,50,0
20592,note_on,14,0,9,,,,,,,,3,,,72,85
20592,note_on,1,0,11,,,,,,,,3,,,52,64
20592,note_on,3,0,10,,,,,,,,3,,,67,85
20602,note_on,10,0,9,,,,,,,,3,,,72,0
20615,note_on,23,0,10,,,,,,,,3,,,67,0
20615,note_on,23,0,11,,,,,,,,3,,,52,0
20616,note_on,14,0,9,,,,,,,,3,,,74,85
20616,note_on,1,0,10,,,,,,,,3,,,65,85
20616,note_on,1,0,11,,,,,,,,3,,,50,64
20626,note_on,10,0,9,,,,,,,,3,,,74,0
20639,note_on,23,0,11,,,,,,,,3,,,50,0
20639,note_on,23,0,10,,,,,,,,3,,,65,0
20640,note_on,14,0,9,,,,,,,,3,,,76,85
20640,note_on,1,0,11,,,,,,,,3,,,48,64
20640,note_on,1,0,10,,,,,,,,3,,,64,85
20650,note_on,10,0,9,,,,,,,,3,,,76,0
20663,note_on,23,0,11,,,,,,,,3,,,48,0
20663,note_on,23,0,10,,,,,,,,3,,,64,0
20664,note_on,1,0,11,,,,,,,,3,,,50,64
20664,note_on,1,0,10,,,,,,,,3,,,62,85
20664,note_on,14,0,9,,,,,,,,3,,,77,85
20674,note_on,10,0,9,,,,,,,,3,,,77,0
20677,note_on,133,0,8,,,,,,,,3,,,79,0
20677,note_on,133,0,3,,,,,,,,1,,,72,0
20677,note_on,0,0,3,,,,,,,,1,,,76,0
20677,note_on,133,0,2,,,,,,,,0,,,76,0
20685,note_on,237,0,1,,,,,,,,0,,,79,0
20687,note_on,23,0,10,,,,,,,,3,,,62,0
20687,note_on,23,0,11,,,,,,,,3,,,50,0
20688,note_on,14,0,9,,,,,,,,3,,,79,85
20688,note_on,1,0,10,,,,,,,,3,,,60,85
20688,note_on,11,0,2,,,,,,,,0,,,72,64
20688,note_on,1,0,11,,,,,,,,3,,,52,64
20688,note_on,3,0,1,,,,,,,,0,,,76,64
20688,note_on,11,0,8,,,,,,,,3,,,84,85
20688,note_on,11,0,3,,,,,,,,1,,,76,64
20688,note_on,0,0,3,,,,,,,,1,,,72,64
20698,note_on,10,0,9,,,,,,,,3,,,79,0
20711,note_on,23,0,10,,,,,,,,3,,,60,0
20711,note_on,23,0,11,,,,,,,,3,,,52,0
20712,note_on,1,0,10,,,,,,,,3,,,64,85
20712,note_on,1,0,11,,,,,,,,3,,,48,64
20712,note_on,14,0,9,,,,,,,,3,,,76,85
20722,note_on,10,0,9,,,,,,,,3,,,76,0
20733,note_on,45,0,3,,,,,,,,1,,,72,0
20733,note_on,0,0,3,,,,,,,,1,,,76,0
20733,note_on,45,0,2,,,,,,,,0,,,72,0
20733,note_on,45,0,8,,,,,,,,3,,,84,0
20735,note_on,23,0,11,,,,,,,,3,,,48,0
20735,note_on,23,0,10,,,,,,,,3,,,64,0
20736,note_on,48,0,1,,,,,,,,0,,,76,0
20736,note_on,1,0,11,,,,,,,,3,,,43,64
20736,note_on,1,0,10,,,,,,,,3,,,67,85
20736,note_on,3,0,3,,,,,,,,1,,,74,64
20736,note_on,0,0,3,,,,,,,,1,,,67,64
20736,note_on,3,0,8,,,,,,,,3,,,83,85
20736,note_on,0,0,1,,,,,,,,0,,,74,64
20736,note_on,3,0,2,,,,,,,,0,,,71,64
20736,note_on,14,0,9,,,,,,,,3,,,74,85
20748,note_on,12,0,8,,,,,,,,3,,,83,0
20748,note_on,0,0,8,,,,,,,,3,,,81,85
20756,note_on,20,0,9,,,,,,,,3,,,74,0
20759,note_on,23,0,11,,,,,,,,3,,,43,0
20760,note_on,1,0,11,,,,,,,,3,,,45,64
20760,note_on,12,0,8,,,,,,,,3,,,81,0
20760,note_on,0,0,8,,,,,,,,3,,,79,85
20781,note_on,45,0,10,,,,,,,,3,,,67,0
20783,note_on,23,0,11,,,,,,,,3,,,45,0
20784,note_on,3,0,10,,,,,,,,3,,,55,85
20784,note_on,1,0,11,,,,,,,,3,,,47,64
20784,note_on,28,0,9,,,,,,,,3,,,67,85
20804,note_on,20,0,9,,,,,,,,3,,,67,0
20807,note_on,23,0,11,,,,,,,,3,,,47,0
20807,note_on,23,0,10,,,,,,,,3,,,55,0
20808,note_on,1,0,10,,,,,,,,3,,,57,85
20808,note_on,1,0,11,,,,,,,,3,,,45,64
20825,note_on,89,0,3,,,,,,,,1,,,67,0
20825,note_on,0,0,3,,,,,,,,1,,,74,0
20825,note_on,89,0,2,,,,,,,,0,,,71,0
20825,note_on,89,0,1,,,,,,,,0,,,74,0
20827,note_on,67,0,8,,,,,,,,3,,,79,0
20831,note_on,23,0,11,,,,,,,,3,,,45,0
20831,note_on,23,0,10,,,,,,,,3,,,57,0
20832,note_on,28,0,9,,,,,,,,3,,,77,85
20832,note_on,7,0,3,,,,,,,,1,,,74,64
20832,note_on,0,0,3,,,,,,,,1,,,67,64
20832,note_on,7,0,1,,,,,,,,0,,,79,64
20832,note_on,1,0,11,,,,,,,,3,,,43,64
20832,note_on,7,0,2,,,,,,,,0,,,77,64
20832,note_on,5,0,8,,,,,,,,3,,,79,85
20832,note_on,1,0,10,,,,,,,,3,,,59,85
20852,note_on,20,0,9,,,,,,,,3,,,77,0
20852,note_on,20,0,8,,,,,,,,3,,,79,0
20855,note_on,23,0,11,,,,,,,,3,,,43,0
20855,note_on,23,0,10,,,,,,,,3,,,59,0
20856,note_on,1,0,11,,,,,,,,3,,,45,64
20856,note_on,1,0,10,,,,,,,,3,,,60,85
20877,note_on,45,0,3,,,,,,,,1,,,67,0
20877,note_on,0,0,3,,,,,,,,1,,,74,0
20879,note_on,23,0,11,,,,,,,,3,,,45,0
20879,note_on,23,0,10,,,,,,,,3,,,60,0
20880,note_on,3,0,3,,,,,,,,1,,,74,64
20880,note_on,1,0,10,,,,,,,,3,,,62,85
20880,note_on,0,0,3,,,,,,,,1,,,67,64
20880,note_on,28,0,8,,,,,,,,3,,,79,85
20880,note_on,28,0,9,,,,,,,,3,,,77,85
20880,note_on,1,0,11,,,,,,,,3,,,47,64
20900,note_on,20,0,9,,,,,,,,3,,,77,0
20900,note_on,20,0,8,,,,,,,,3,,,79,0
20903,note_on,23,0,11,,,,,,,,3,,,47,0
20903,note_on,23,0,10,,,,,,,,3,,,62,0
20904,note_on,1,0,11,,,,,,,,3,,,43,64
20904,note_on,1,0,10,,,,,,,,3,,,59,85
20921,note_on,89,0,2,,,,,,,,0,,,77,0
20925,note_on,0,0,3,,,,,,,,1,,,74,0
20925,note_on,45,0,3,,,,,,,,1,,,67,0
20927,note_on,23,0,11,,,,,,,,3,,,43,0
20927,note_on,23,0,10,,,,,,,,3,,,59,0
20928,note_on,28,0,8,,,,,,,,3,,,79,85
20928,note_on,0,0,3,,,,,,,,1,,,72,64
20928,note_on,7,0,2,,,,,,,,0,,,76,64
20928,note_on,1,0,10,,,,,,,,3,,,60,85
20928,note_on,3,0,3,,,,,,,,1,,,76,64
20928,note_on,1,0,11,,,,,,,,3,,,48,64
20928,note_on,28,0,9,,,,,,,,3,,,76,85
20938,note_on,10,0,9,,,,,,,,3,,,76,0
20951,note_on,23,0,11,,,,,,,,3,,,48,0
20952,note_on,14,0,9,,,,,,,,3,,,74,85
20952,note_on,1,0,11,,,,,,,,3,,,50,64
20962,note_on,10,0,9,,,,,,,,3,,,74,0
20973,note_on,45,0,10,,,,,,,,3,,,60,0
20975,note_on,23,0,11,,,,,,,,3,,,50,0
20976,note_on,14,0,9,,,,,,,,3,,,72,85
20976,note_on,3,0,10,,,,,,,,3,,,67,85
20976,note_on,1,0,11,,,,,,,,3,,,52,64
20986,note_on,10,0,9,,,,,,,,3,,,72,0
20999,note_on,23,0,10,,,,,,,,3,,,67,0
20999,note_on,23,0,11,,,,,,,,3,,,52,0
21000,note_on,1,0,11,,,,,,,,3,,,50,64
21000,note_on,1,0,10,,,,,,,,3,,,65,85
21000,note_on,14,0,9,,,,,,,,3,,,74,85
21010,note_on,10,0,9,,,,,,,,3,,,74,0
21023,note_on,23,0,10,,,,,,,,3,,,65,0
21023,note_on,23,0,11,,,,,,,,3,,,50,0
21024,note_on,1,0,10,,,,,,,,3,,,64,85
21024,note_on,14,0,9,,,,,,,,3,,,76,85
21024,note_on,1,0,11,,,,,,,,3,,,48,64
21034,note_on,10,0,9,,,,,,,,3,,,76,0
21047,note_on,23,0,11,,,,,,,,3,,,48,0
21047,note_on,23,0,10,,,,,,,,3,,,64,0
21048,note_on,1,0,10,,,,,,,,3,,,62,85
21048,note_on,14,0,9,,,,,,,,3,,,77,85
21048,note_on,1,0,11,,,,,,,,3,,,50,64
21058,note_on,10,0,9,,,,,,,,3,,,77,0
21061,note_on,133,0,2,,,,,,,,0,,,76,0
21061,note_on,133,0,3,,,,,,,,1,,,72,0
21061,note_on,0,0,3,,,,,,,,1,,,76,0
21061,note_on,133,0,8,,,,,,,,3,,,79,0
21069,note_on,237,0,1,,,,,,,,0,,,79,0
21071,note_on,23,0,11,,,,,,,,3,,,50,0
21071,note_on,23,0,10,,,,,,,,3,,,62,0
21072,note_on,3,0,1,,,,,,,,0,,,76,64
21072,note_on,14,0,9,,,,,,,,3,,,79,85
21072,note_on,11,0,8,,,,,,,,3,,,84,85
21072,note_on,1,0,11,,,,,,,,3,,,52,64
21072,note_on,11,0,2,,,,,,,,0,,,72,64
21072,note_on,1,0,10,,,,,,,,3,,,60,85
21072,note_on,0,0,3,,,,,,,,1,,,72,64
21072,note_on,11,0,3,,,,,,,,1,,,76,64
21082,note_on,10,0,9,,,,,,,,3,,,79,0
21095,note_on,23,0,10,,,,,,,,3,,,60,0
21095,note_on,23,0,11,,,,,,,,3,,,52,0
21096,note_on,1,0,11,,,,,,,,3,,,48,64
21096,note_on,14,0,9,,,,,,,,3,,,76,85
21096,note_on,1,0,10,,,,,,,,3,,,64,85
21106,note_on,10,0,9,,,,,,,,3,,,76,0
21117,note_on,45,0,8,,,,,,,,3,,,84,0
21117,note_on,45,0,3,,,,,,,,1,,,72,0
21117,note_on,0,0,3,,,,,,,,1,,,76,0
21119,note_on,23,0,10,,,,,,,,3,,,64,0
21119,note_on,23,0,11,,,,,,,,3,,,48,0
21120,note_on,0,0,1,,,,,,,,0,,,74,64
21120,note_on,48,0,1,,,,,,,,0,,,76,0
21120,note_on,48,0,2,,,,,,,,0,,,72,0
21120,note_on,0,0,2,,,,,,,,0,,,71,64
21120,note_on,1,0,10,,,,,,,,3,,,67,85
21120,note_on,0,0,3,,,,,,,,1,,,67,64
21120,note_on,3,0,8,,,,,,,,3,,,83,85
21120,note_on,1,0,11,,,,,,,,3,,,43,64
21120,note_on,14,0,9,,,,,,,,3,,,74,85
21120,note_on,3,0,3,,,,,,,,1,,,74,64
21132,note_on,0,0,9,,,,,,,,3,,,72,85
21132,note_on,12,0,9,,,,,,,,3,,,74,0
21132,note_on,0,0,8,,,,,,,,3,,,81,85
21132,note_on,12,0,8,,,,,,,,3,,,83,0
21144,note_on,0,0,9,,,,,,,,3,,,71,85
21144,note_on,12,0,9,,,,,,,,3,,,72,0
21144,note_on,0,0,8,,,,,,,,3,,,79,85
21144,note_on,12,0,8,,,,,,,,3,,,81,0
21209,note_on,89,0,2,,,,,,,,0,,,71,0
21209,note_on,0,0,3,,,,,,,,1,,,74,0
21209,note_on,89,0,1,,,,,,,,0,,,74,0
21209,note_on,89,0,10,,,,,,,,3,,,67,0
21209,note_on,89,0,3,,,,,,,,1,,,67,0
21209,note_on,89,0,11,,,,,,,,3,,,43,0
21211,note_on,67,0,9,,,,,,,,3,,,71,0
21211,note_on,67,0,8,,,,,,,,3,,,79,0
21312,note_on,101,0,8,,,,,,,,3,,,83,85
21312,note_on,103,0,2,,,,,,,,0,,,71,64
21312,note_on,103,0,1,,,,,,,,0,,,74,64
21312,note_on,103,0,10,,,,,,,,3,,,67,85
21312,note_on,0,0,3,,,,,,,,1,,,67,64
21312,note_on,103,0,3,,,,,,,,1,,,74,64
21312,note_on,103,0,11,,,,,,,,3,,,43,64
21312,note_on,101,0,9,,,,,,,,3,,,74,85
21324,note_on,12,0,9,,,,,,,,3,,,74,0
21324,note_on,0,0,8,,,,,,,,3,,,81,85
21324,note_on,12,0,8,,,,,,,,3,,,83,0
21324,note_on,0,0,9,,,,,,,,3,,,72,85
21336,note_on,0,0,8,,,,,,,,3,,,79,85
21336,note_on,12,0,8,,,,,,,,3,,,81,0
21336,note_on,0,0,9,,,,,,,,3,,,71,85
21336,note_on,12,0,9,,,,,,,,3,,,72,0
21401,note_on,89,0,11,,,,,,,,3,,,43,0
21401,note_on,0,0,3,,,,,,,,1,,,74,0
21401,note_on,89,0,3,,,,,,,,1,,,67,0
21401,note_on,89,0,10,,,,,,,,3,,,67,0
21401,note_on,89,0,2,,,,,,,,0,,,71,0
21401,note_on,89,0,1,,,,,,,,0,,,74,0
21403,note_on,67,0,8,,,,,,,,3,,,79,0
21403,note_on,67,0,9,,,,,,,,3,,,71,0
21504,note_on,101,0,8,,,,,,,,3,,,71,43
21504,note_on,1063,0,5,,,,,,,,2,,,71,64
21504,note_on,103,0,10,,,,,,,,3,,,67,43
21504,note_on,1063,0,6,,,,,,,,2,,,55,64
21504,note_on,101,0,9,,,,,,,,3,,,62,43
21549,note_on,45,0,6,,,,,,,,2,,,55,0
21552,note_on,3,0,6,,,,,,,,2,,,62,64
21593,note_on,89,0,9,,,,,,,,3,,,62,0
21593,note_on,89,0,8,,,,,,,,3,,,71,0
21593,note_on,89,0,10,,,,,,,,3,,,67,0
21597,note_on,45,0,6,,,,,,,,2,,,62,0
21600,note_on,3,0,6,,,,,,,,2,,,59,64
21637,note_on,133,0,5,,,,,,,,2,,,71,0
21645,note_on,45,0,6,,,,,,,,2,,,59,0
21648,note_on,11,0,5,,,,,,,,2,,,72,64
21648,note_on,3,0,6,,,,,,,,2,,,62,64
21693,note_on,45,0,6,,,,,,,,2,,,62,0
21693,note_on,45,0,5,,,,,,,,2,,,72,0
21696,note_on,103,0,9,,,,,,,,3,,,69,43
21696,note_on,3,0,6,,,,,,,,2,,,54,64
21696,note_on,3,0,5,,,,,,,,2,,,73,64
21696,note_on,103,0,8,,,,,,,,3,,,74,43
21696,note_on,103,0,10,,,,,,,,3,,,66,43
21741,note_on,45,0,6,,,,,,,,2,,,54,0
21741,note_on,45,0,5,,,,,,,,2,,,73,0
21744,note_on,3,0,6,,,,,,,,2,,,62,64
21744,note_on,3,0,5,,,,,,,,2,,,74,64
21785,note_on,89,0,9,,,,,,,,3,,,69,0
21785,note_on,89,0,8,,,,,,,,3,,,74,0
21785,note_on,89,0,10,,,,,,,,3,,,66,0
21789,note_on,45,0,6,,,,,,,,2,,,62,0
21789,note_on,45,0,5,,,,,,,,2,,,74,0
21792,note_on,3,0,6,,,,,,,,2,,,57,64
21792,note_on,3,0,5,,,,,,,,2,,,76,64
21837,note_on,45,0,6,,,,,,,,2,,,57,0
21837,note_on,45,0,5,,,,,,,,2,,,76,0
21840,note_on,3,0,6,,,,,,,,2,,,62,64
21840,note_on,3,0,5,,,,,,,,2,,,78,64
21885,note_on,45,0,5,,,,,,,,2,,,78,0
21885,note_on,45,0,6,,,,,,,,2,,,62,0
21888,note_on,103,0,9,,,,,,,,3,,,71,43
21888,note_on,103,0,10,,,,,,,,3,,,64,43
21888,note_on,103,0,8,,,,,,,,3,,,79,43
21888,note_on,3,0,5,,,,,,,,2,,,78,64
21888,note_on,3,0,6,,,,,,,,2,,,52,64
21933,note_on,45,0,5,,,,,,,,2,,,78,0
21933,note_on,45,0,6,,,,,,,,2,,,52,0
21936,note_on,3,0,5,,,,,,,,2,,,79,67
21936,note_on,3,0,6,,,,,,,,2,,,59,69
21977,note_on,89,0,8,,,,,,,,3,,,79,0
21977,note_on,89,0,10,,,,,,,,3,,,64,0
21977,note_on,89,0,9,,,,,,,,3,,,71,0
21981,note_on,45,0,6,,,,,,,,2,,,59,0
21981,note_on,45,0,5,,,,,,,,2,,,79,0
21984,note_on,3,0,6,,,,,,,,2,,,55,74
21984,note_on,3,0,5,,,,,,,,2,,,79,71
22029,note_on,45,0,6,,,,,,,,2,,,55,0
22032,note_on,3,0,6,,,,,,,,2,,,59,79
22077,note_on,45,0,6,,,,,,,,2,,,59,0
22080,note_on,3,0,6,,,,,,,,2,,,48,85
22080,note_on,103,0,10,,,,,,,,3,,,48,43
22080,note_on,103,0,9,,,,,,,,3,,,67,43
22080,note_on,103,0,8,,,,,,,,3,,,76,43
22125,note_on,45,0,6,,,,,,,,2,,,48,0
22128,note_on,3,0,6,,,,,,,,2,,,55,85
22161,note_on,177,0,5,,,,,,,,2,,,79,0
22169,note_on,89,0,8,,,,,,,,3,,,76,0
22169,note_on,89,0,9,,,,,,,,3,,,67,0
22169,note_on,89,0,10,,,,,,,,3,,,48,0
22173,note_on,45,0,6,,,,,,,,2,,,55,0
22176,note_on,3,0,6,,,,,,,,2,,,52,85
22176,note_on,15,0,5,,,,,,,,2,,,81,85
22182,note_on,0,0,5,,,,,,,,2,,,79,85
22182,note_on,6,0,5,,,,,,,,2,,,81,0
22221,note_on,45,0,6,,,,,,,,2,,,52,0
22221,note_on,39,0,5,,,,,,,,2,,,79,0
22224,note_on,3,0,5,,,,,,,,2,,,78,85
22224,note_on,3,0,6,,,,,,,,2,,,55,64
22247,note_on,23,0,5,,,,,,,,2,,,78,0
22248,note_on,1,0,5,,,,,,,,2,,,76,85
22269,note_on,45,0,6,,,,,,,,2,,,55,0
22271,note_on,23,0,5,,,,,,,,2,,,76,0
22272,note_on,871,0,11,,,,,,,,3,,,38,43
22272,note_on,103,0,10,,,,,,,,3,,,50,43
22272,note_on,103,0,9,,,,,,,,3,,,59,43
22272,note_on,1,0,5,,,,,,,,2,,,76,85
22272,note_on,3,0,6,,,,,,,,2,,,50,64
22272,note_on,103,0,8,,,,,,,,3,,,67,43
22278,note_on,0,0,5,,,,,,,,2,,,74,85
22278,note_on,6,0,5,,,,,,,,2,,,76,0
22317,note_on,45,0,6,,,,,,,,2,,,50,0
22317,note_on,39,0,5,,,,,,,,2,,,74,0
22320,note_on,3,0,6,,,,,,,,2,,,59,66
22320,note_on,3,0,5,,,,,,,,2,,,73,85
22343,note_on,23,0,5,,,,,,,,2,,,73,0
22344,note_on,1,0,5,,,,,,,,2,,,74,85
22365,note_on,45,0,6,,,,,,,,2,,,59,0
22367,note_on,23,0,5,,,,,,,,2,,,74,0
22368,note_on,1,0,5,,,,,,,,2,,,73,85
22368,note_on,3,0,6,,,,,,,,2,,,55,69
22391,note_on,23,0,5,,,,,,,,2,,,73,0
22392,note_on,1,0,5,,,,,,,,2,,,74,85
22413,note_on,45,0,6,,,,,,,,2,,,55,0
22415,note_on,23,0,5,,,,,,,,2,,,74,0
22416,note_on,1,0,5,,,,,,,,2,,,76,85
22416,note_on,3,0,6,,,,,,,,2,,,59,71
22439,note_on,23,0,5,,,,,,,,2,,,76,0
22440,note_on,1,0,5,,,,,,,,2,,,74,85
22449,note_on,177,0,10,,,,,,,,3,,,50,0
22449,note_on,177,0,8,,,,,,,,3,,,67,0
22449,note_on,177,0,9,,,,,,,,3,,,59,0
22461,note_on,45,0,6,,,,,,,,2,,,59,0
22463,note_on,23,0,5,,,,,,,,2,,,74,0
22464,note_on,3,0,6,,,,,,,,2,,,50,74
22464,note_on,15,0,8,,,,,,,,3,,,72,43
22464,note_on,15,0,9,,,,,,,,3,,,57,43
22464,note_on,1,0,5,,,,,,,,2,,,74,85
22464,note_on,15,0,10,,,,,,,,3,,,54,43
22470,note_on,6,0,5,,,,,,,,2,,,74,0
22470,note_on,0,0,5,,,,,,,,2,,,72,85
22509,note_on,39,0,5,,,,,,,,2,,,72,0
22509,note_on,45,0,6,,,,,,,,2,,,50,0
22512,note_on,3,0,5,,,,,,,,2,,,71,79
22512,note_on,3,0,6,,,,,,,,2,,,57,77
22535,note_on,23,0,5,,,,,,,,2,,,71,0
22536,note_on,1,0,5,,,,,,,,2,,,72,77
22557,note_on,45,0,6,,,,,,,,2,,,57,0
22559,note_on,23,0,5,,,,,,,,2,,,72,0
22560,note_on,1,0,5,,,,,,,,2,,,71,74
22560,note_on,3,0,6,,,,,,,,2,,,54,79
22583,note_on,23,0,5,,,,,,,,2,,,71,0
22584,note_on,1,0,5,,,,,,,,2,,,72,71
22605,note_on,45,0,6,,,,,,,,2,,,54,0
22607,note_on,23,0,5,,,,,,,,2,,,72,0
22608,note_on,3,0,6,,,,,,,,2,,,57,82
22608,note_on,1,0,5,,,,,,,,2,,,74,69
22626,note_on,354,0,11,,,,,,,,3,,,38,0
22631,note_on,23,0,5,,,,,,,,2,,,74,0
22632,note_on,1,0,5,,,,,,,,2,,,72,66
22641,note_on,177,0,9,,,,,,,,3,,,57,0
22641,note_on,177,0,8,,,,,,,,3,,,72,0
22641,note_on,177,0,10,,,,,,,,3,,,54,0
22653,note_on,45,0,6,,,,,,,,2,,,57,0
22655,note_on,23,0,5,,,,,,,,2,,,72,0
22656,note_on,15,0,8,,,,,,,,3,,,71,43
22656,note_on,15,0,9,,,,,,,,3,,,55,43
22656,note_on,30,0,11,,,,,,,,3,,,31,43
22656,note_on,15,0,10,,,,,,,,3,,,55,43
22656,note_on,1,0,5,,,,,,,,2,,,72,64
22656,note_on,3,0,6,,,,,,,,2,,,55,64
22679,note_on,23,0,5,,,,,,,,2,,,72,0
22680,note_on,1,0,5,,,,,,,,2,,,71,64
22703,note_on,23,0,5,,,,,,,,2,,,71,0
22704,note_on,1,0,5,,,,,,,,2,,,76,64
22727,note_on,23,0,5,,,,,,,,2,,,76,0
22728,note_on,1,0,5,,,,,,,,2,,,74,64
22745,note_on,89,0,9,,,,,,,,3,,,55,0
22745,note_on,89,0,8,,,,,,,,3,,,71,0
22745,note_on,89,0,6,,,,,,,,2,,,55,0
22745,note_on,89,0,10,,,,,,,,3,,,55,0
22745,note_on,89,0,11,,,,,,,,3,,,31,0
22751,note_on,23,0,5,,,,,,,,2,,,74,0
22752,note_on,1,0,5,,,,,,,,2,,,74,64
22800,note_on,55,0,9,,,,,,,,3,,,74,85
22800,note_on,55,0,11,,,,,,,,3,,,50,64
22800,note_on,1399,0,1,,,,,,,,0,,,86,64
22800,note_on,55,0,10,,,,,,,,3,,,62,85
22800,note_on,55,0,8,,,,,,,,3,,,74,85
22820,note_on,20,0,9,,,,,,,,3,,,74,0
22820,note_on,20,0,11,,,,,,,,3,,,50,0
22820,note_on,20,0,10,,,,,,,,3,,,62,0
22820,note_on,20,0,8,,,,,,,,3,,,74,0
22841,note_on,89,0,5,,,,,,,,2,,,74,0
22845,note_on,45,0,1,,,,,,,,0,,,86,0
22848,note_on,3,0,1,,,,,,,,0,,,84,64
22848,note_on,28,0,9,,,,,,,,3,,,72,85
22848,note_on,28,0,8,,,,,,,,3,,,72,85
22848,note_on,28,0,11,,,,,,,,3,,,48,64
22848,note_on,28,0,10,,,,,,,,3,,,60,85
22868,note_on,20,0,8,,,,,,,,3,,,72,0
22868,note_on,20,0,10,,,,,,,,3,,,60,0
22868,note_on,20,0,9,,,,,,,,3,,,72,0
22868,note_on,20,0,11,,,,,,,,3,,,48,0
22893,note_on,45,0,1,,,,,,,,0,,,84,0
22896,note_on,28,0,11,,,,,,,,3,,,45,64
22896,note_on,28,0,10,,,,,,,,3,,,57,85
22896,note_on,28,0,9,,,,,,,,3,,,69,85
22896,note_on,3,0,1,,,,,,,,0,,,81,64
22896,note_on,28,0,8,,,,,,,,3,,,69,85
22916,note_on,20,0,11,,,,,,,,3,,,45,0
22916,note_on,20,0,9,,,,,,,,3,,,69,0
22916,note_on,20,0,8,,,,,,,,3,,,69,0
22916,note_on,20,0,10,,,,,,,,3,,,57,0
22941,note_on,45,0,1,,,,,,,,0,,,81,0
22944,note_on,3,0,1,,,,,,,,0,,,78,64
22944,note_on,28,0,9,,,,,,,,3,,,66,85
22944,note_on,28,0,11,,,,,,,,3,,,42,64
22944,note_on,28,0,10,,,,,,,,3,,,54,85
22944,note_on,28,0,8,,,,,,,,3,,,66,85
22964,note_on,20,0,10,,,,,,,,3,,,54,0
22964,note_on,20,0,11,,,,,,,,3,,,42,0
22964,note_on,20,0,9,,,,,,,,3,,,66,0
22964,note_on,20,0,8,,,,,,,,3,,,66,0
22989,note_on,45,0,1,,,,,,,,0,,,78,0
22992,note_on,3,0,1,,,,,,,,0,,,74,64
22992,note_on,28,0,8,,,,,,,,3,,,62,85
22992,note_on,28,0,9,,,,,,,,3,,,62,85
22992,note_on,28,0,10,,,,,,,,3,,,50,85
22992,note_on,28,0,11,,,,,,,,3,,,38,64
23012,note_on,20,0,11,,,,,,,,3,,,38,0
23012,note_on,20,0,10,,,,,,,,3,,,50,0
23012,note_on,20,0,9,,,,,,,,3,,,62,0
23012,note_on,20,0,8,,,,,,,,3,,,62,0
23037,note_on,45,0,1,,,,,,,,0,,,74,0
23040,note_on,295,0,6,,,,,,,,2,,,55,64
23040,note_on,199,0,5,,,,,,,,2,,,72,64
23040,note_on,28,0,11,,,,,,,,3,,,43,43
23040,note_on,3,0,1,,,,,,,,0,,,79,43
23040,note_on,28,0,8,,,,,,,,3,,,71,43
23040,note_on,28,0,10,,,,,,,,3,,,55,43
23040,note_on,28,0,9,,,,,,,,3,,,62,43
23064,note_on,0,0,5,,,,,,,,2,,,71,64
23064,note_on,24,0,5,,,,,,,,2,,,72,0
23085,note_on,45,0,6,,,,,,,,2,,,55,0
23088,note_on,0,0,5,,,,,,,,2,,,69,64
23088,note_on,24,0,5,,,,,,,,2,,,71,0
23088,note_on,3,0,6,,,,,,,,2,,,62,67
23112,note_on,0,0,5,,,,,,,,2,,,71,64
23112,note_on,24,0,5,,,,,,,,2,,,69,0
23129,note_on,89,0,1,,,,,,,,0,,,79,0
23129,note_on,89,0,8,,,,,,,,3,,,71,0
23129,note_on,89,0,9,,,,,,,,3,,,62,0
23129,note_on,89,0,11,,,,,,,,3,,,43,0
23129,note_on,89,0,10,,,,,,,,3,,,55,0
23133,note_on,45,0,6,,,,,,,,2,,,62,0
23136,note_on,0,0,5,,,,,,,,2,,,71,64
23136,note_on,24,0,5,,,,,,,,2,,,71,0
23136,note_on,3,0,6,,,,,,,,2,,,59,71
23173,note_on,37,0,5,,,,,,,,2,,,71,0
23181,note_on,45,0,6,,,,,,,,2,,,59,0
23184,note_on,3,0,6,,,,,,,,2,,,62,74
23184,note_on,11,0,5,,,,,,,,2,,,72,64
23229,note_on,45,0,6,,,,,,,,2,,,62,0
23229,note_on,45,0,5,,,,,,,,2,,,72,0
23232,note_on,103,0,8,,,,,,,,3,,,69,43
23232,note_on,3,0,6,,,,,,,,2,,,54,78
23232,note_on,103,0,11,,,,,,,,3,,,42,43
23232,note_on,103,0,9,,,,,,,,3,,,62,43
23232,note_on,3,0,5,,,,,,,,2,,,73,68
23232,note_on,103,0,10,,,,,,,,3,,,54,43
23277,note_on,45,0,6,,,,,,,,2,,,54,0
23277,note_on,45,0,5,,,,,,,,2,,,73,0
23280,note_on,3,0,6,,,,,,,,2,,,62,81
23280,note_on,3,0,5,,,,,,,,2,,,74,72
23321,note_on,89,0,11,,,,,,,,3,,,42,0
23321,note_on,89,0,10,,,,,,,,3,,,54,0
23321,note_on,89,0,8,,,,,,,,3,,,69,0
23321,note_on,89,0,9,,,,,,,,3,,,62,0
23325,note_on,45,0,5,,,,,,,,2,,,74,0
23325,note_on,45,0,6,,,,,,,,2,,,62,0
23328,note_on,3,0,5,,,,,,,,2,,,76,76
23328,note_on,3,0,6,,,,,,,,2,,,57,85
23373,note_on,45,0,6,,,,,,,,2,,,57,0
23373,note_on,45,0,5,,,,,,,,2,,,76,0
23376,note_on,3,0,5,,,,,,,,2,,,78,80
23376,note_on,3,0,6,,,,,,,,2,,,62,81
23421,note_on,45,0,6,,,,,,,,2,,,62,0
23421,note_on,45,0,5,,,,,,,,2,,,78,0
23424,note_on,103,0,9,,,,,,,,3,,,59,43
23424,note_on,103,0,11,,,,,,,,3,,,40,43
23424,note_on,103,0,10,,,,,,,,3,,,52,43
23424,note_on,3,0,6,,,,,,,,2,,,52,78
23424,note_on,3,0,5,,,,,,,,2,,,78,85
23424,note_on,103,0,8,,,,,,,,3,,,67,43
23469,note_on,45,0,5,,,,,,,,2,,,78,0
23469,note_on,45,0,6,,,,,,,,2,,,52,0
23472,note_on,3,0,5,,,,,,,,2,,,81,80
23472,note_on,3,0,6,,,,,,,,2,,,59,74
23495,note_on,23,0,5,,,,,,,,2,,,81,0
23496,note_on,1,0,5,,,,,,,,2,,,79,78
23513,note_on,89,0,11,,,,,,,,3,,,40,0
23513,note_on,89,0,9,,,,,,,,3,,,59,0
23513,note_on,89,0,8,,,,,,,,3,,,67,0
23513,note_on,89,0,10,,,,,,,,3,,,52,0
23517,note_on,45,0,6,,,,,,,,2,,,59,0
23519,note_on,23,0,5,,,,,,,,2,,,79,0
23520,note_on,1,0,5,,,,,,,,2,,,79,76
23520,note_on,3,0,6,,,,,,,,2,,,55,71
23565,note_on,45,0,6,,,,,,,,2,,,55,0
23568,note_on,3,0,6,,,,,,,,2,,,59,67
23613,note_on,45,0,6,,,,,,,,2,,,59,0
23616,note_on,103,0,10,,,,,,,,3,,,48,43
23616,note_on,103,0,8,,,,,,,,3,,,76,43
23616,note_on,103,0,9,,,,,,,,3,,,67,43
23616,note_on,103,0,11,,,,,,,,3,,,36,43
23616,note_on,3,0,6,,,,,,,,2,,,48,64
23653,note_on,133,0,5,,,,,,,,2,,,79,0
23661,note_on,45,0,6,,,,,,,,2,,,48,0
23664,note_on,3,0,6,,,,,,,,2,,,55,64
23664,note_on,11,0,5,,,,,,,,2,,,78,64
23687,note_on,23,0,5,,,,,,,,2,,,78,0
23688,note_on,1,0,5,,,,,,,,2,,,79,64
23705,note_on,89,0,10,,,,,,,,3,,,48,0
23705,note_on,89,0,9,,,,,,,,3,,,67,0
23705,note_on,89,0,11,,,,,,,,3,,,36,0
23705,note_on,89,0,8,,,,,,,,3,,,76,0
23709,note_on,45,0,6,,,,,,,,2,,,55,0
23711,note_on,23,0,5,,,,,,,,2,,,79,0
23712,note_on,1,0,5,,,,,,,,2,,,81,64
23712,note_on,3,0,6,,,,,,,,2,,,52,64
23718,note_on,6,0,5,,,,,,,,2,,,81,0
23718,note_on,0,0,5,,,,,,,,2,,,79,64
23757,note_on,45,0,6,,,,,,,,2,,,52,0
23757,note_on,39,0,5,,,,,,,,2,,,79,0
23760,note_on,3,0,5,,,,,,,,2,,,78,64
23760,note_on,3,0,6,,,,,,,,2,,,55,64
23783,note_on,23,0,5,,,,,,,,2,,,78,0
23784,note_on,1,0,5,,,,,,,,2,,,76,64
23805,note_on,45,0,6,,,,,,,,2,,,55,0
23807,note_on,23,0,5,,,,,,,,2,,,76,0
23808,note_on,103,0,10,,,,,,,,3,,,50,43
23808,note_on,3,0,6,,,,,,,,2,,,55,64
23808,note_on,103,0,11,,,,,,,,3,,,38,43
23808,note_on,103,0,8,,,,,,,,3,,,74,43
23808,note_on,103,0,9,,,,,,,,3,,,71,43
23808,note_on,1,0,5,,,,,,,,2,,,74,64
23808,note_on,23808,0,7,,,,,,,,2,,,50,85
23831,note_on,23,0,5,,,,,,,,2,,,74,0
23832,note_on,1,0,5,,,,,,,,2,,,76,66
23855,note_on,23,0,5,,,,,,,,2,,,76,0
23856,note_on,1,0,5,,,,,,,,2,,,78,69
23879,note_on,23,0,5,,,,,,,,2,,,78,0
23880,note_on,1,0,5,,,,,,,,2,,,79,71
23897,note_on,89,0,8,,,,,,,,3,,,74,0
23897,note_on,89,0,6,,,,,,,,2,,,55,0
23897,note_on,89,0,9,,,,,,,,3,,,71,0
23903,note_on,23,0,5,,,,,,,,2,,,79,0
23904,note_on,7,0,6,,,,,,,,2,,,59,74
23904,note_on,7,0,8,,,,,,,,3,,,71,43
23904,note_on,1,0,5,,,,,,,,2,,,81,74
23904,note_on,7,0,9,,,,,,,,3,,,67,43
23927,note_on,23,0,5,,,,,,,,2,,,81,0
23928,note_on,1,0,5,,,,,,,,2,,,83,77
23951,note_on,23,0,5,,,,,,,,2,,,83,0
23952,note_on,1,0,5,,,,,,,,2,,,84,79
23975,note_on,23,0,5,,,,,,,,2,,,84,0
23976,note_on,1,0,5,,,,,,,,2,,,86,82
23993,note_on,89,0,8,,,,,,,,3,,,71,0
23993,note_on,89,0,6,,,,,,,,2,,,59,0
23993,note_on,89,0,9,,,,,,,,3,,,67,0
23999,note_on,23,0,5,,,,,,,,2,,,86,0
24000,note_on,7,0,6,,,,,,,,2,,,54,85
24000,note_on,7,0,8,,,,,,,,3,,,72,43
24000,note_on,7,0,9,,,,,,,,3,,,69,43
24000,note_on,1,0,5,,,,,,,,2,,,84,85
24023,note_on,23,0,5,,,,,,,,2,,,84,0
24024,note_on,1,0,5,,,,,,,,2,,,83,82
24047,note_on,23,0,5,,,,,,,,2,,,83,0
24048,note_on,1,0,5,,,,,,,,2,,,81,79
24071,note_on,23,0,5,,,,,,,,2,,,81,0
24072,note_on,1,0,5,,,,,,,,2,,,79,77
24089,note_on,89,0,9,,,,,,,,3,,,69,0
24089,note_on,89,0,6,,,,,,,,2,,,54,0
24089,note_on,89,0,8,,,,,,,,3,,,72,0
24095,note_on,23,0,5,,,,,,,,2,,,79,0
24096,note_on,7,0,6,,,,,,,,2,,,57,74
24096,note_on,7,0,9,,,,,,,,3,,,66,43
24096,note_on,7,0,8,,,,,,,,3,,,69,43
24096,note_on,1,0,5,,,,,,,,2,,,78,74
24119,note_on,23,0,5,,,,,,,,2,,,78,0
24120,note_on,1,0,5,,,,,,,,2,,,76,71
24143,note_on,23,0,5,,,,,,,,2,,,76,0
24144,note_on,1,0,5,,,,,,,,2,,,74,69
24162,note_on,354,0,11,,,,,,,,3,,,38,0
24162,note_on,354,0,7,,,,,,,,2,,,50,0
24162,note_on,354,0,10,,,,,,,,3,,,50,0
24167,note_on,23,0,5,,,,,,,,2,,,74,0
24168,note_on,1,0,5,,,,,,,,2,,,72,66
24185,note_on,89,0,8,,,,,,,,3,,,69,0
24185,note_on,89,0,9,,,,,,,,3,,,66,0
24185,note_on,89,0,6,,,,,,,,2,,,57,0
24191,note_on,23,0,5,,,,,,,,2,,,72,0
24192,note_on,1,0,5,,,,,,,,2,,,71,64
24192,note_on,7,0,8,,,,,,,,3,,,71,43
24192,note_on,30,0,11,,,,,,,,3,,,31,43
24192,note_on,7,0,6,,,,,,,,2,,,55,64
24192,note_on,30,0,10,,,,,,,,3,,,55,43
24192,note_on,7,0,9,,,,,,,,3,,,67,43
24215,note_on,23,0,6,,,,,,,,2,,,55,0
24216,note_on,1,0,6,,,,,,,,2,,,67,64
24237,note_on,45,0,8,,,,,,,,3,,,71,0
24237,note_on,45,0,5,,,,,,,,2,,,71,0
24239,note_on,23,0,6,,,,,,,,2,,,67,0
24240,note_on,1,0,6,,,,,,,,2,,,66,64
24263,note_on,23,0,6,,,,,,,,2,,,66,0
24264,note_on,1,0,6,,,,,,,,2,,,67,64
24281,note_on,89,0,10,,,,,,,,3,,,55,0
24281,note_on,89,0,11,,,,,,,,3,,,31,0
24287,note_on,23,0,6,,,,,,,,2,,,67,0
24288,note_on,7,0,10,,,,,,,,3,,,59,43
24288,note_on,1,0,6,,,,,,,,2,,,59,64
24288,note_on,51,0,8,,,,,,,,3,,,78,43
24288,note_on,51,0,5,,,,,,,,2,,,74,64
24294,note_on,0,0,8,,,,,,,,3,,,79,43
24294,note_on,6,0,8,,,,,,,,3,,,78,0
24311,note_on,23,0,6,,,,,,,,2,,,59,0
24312,note_on,1,0,6,,,,,,,,2,,,67,64
24333,note_on,39,0,8,,,,,,,,3,,,79,0
24333,note_on,45,0,5,,,,,,,,2,,,74,0
24335,note_on,23,0,6,,,,,,,,2,,,67,0
24336,note_on,1,0,6,,,,,,,,2,,,66,64
24359,note_on,23,0,6,,,,,,,,2,,,66,0
24360,note_on,1,0,6,,,,,,,,2,,,67,64
24377,note_on,89,0,10,,,,,,,,3,,,59,0
24383,note_on,23,0,6,,,,,,,,2,,,67,0
24384,note_on,1,0,6,,,,,,,,2,,,55,64
24384,note_on,51,0,8,,,,,,,,3,,,78,43
24384,note_on,7,0,10,,,,,,,,3,,,55,43
24390,note_on,6,0,8,,,,,,,,3,,,78,0
24390,note_on,0,0,8,,,,,,,,3,,,79,43
24407,note_on,23,0,6,,,,,,,,2,,,55,0
24408,note_on,1,0,6,,,,,,,,2,,,67,64
24429,note_on,39,0,8,,,,,,,,3,,,79,0
24431,note_on,23,0,6,,,,,,,,2,,,67,0
24432,note_on,1,0,6,,,,,,,,2,,,66,64
24432,note_on,99,0,5,,,,,,,,2,,,81,64
24438,note_on,0,0,5,,,,,,,,2,,,79,64
24438,note_on,6,0,5,,,,,,,,2,,,81,0
24455,note_on,23,0,6,,,,,,,,2,,,66,0
24455,note_on,17,0,5,,,,,,,,2,,,79,0
24456,note_on,1,0,5,,,,,,,,2,,,78,64
24456,note_on,1,0,6,,,,,,,,2,,,67,64
24473,note_on,89,0,10,,,,,,,,3,,,55,0
24479,note_on,23,0,5,,,,,,,,2,,,78,0
24479,note_on,23,0,6,,,,,,,,2,,,67,0
24480,note_on,1,0,5,,,,,,,,2,,,79,64
24480,note_on,7,0,10,,,,,,,,3,,,59,43
24480,note_on,51,0,8,,,,,,,,3,,,78,43
24480,note_on,1,0,6,,,,,,,,2,,,59,64
24486,note_on,0,0,8,,,,,,,,3,,,79,43
24486,note_on,6,0,8,,,,,,,,3,,,78,0
24503,note_on,23,0,6,,,,,,,,2,,,59,0
24504,note_on,1,0,6,,,,,,,,2,,,67,64
24525,note_on,39,0,8,,,,,,,,3,,,79,0
24525,note_on,45,0,5,,,,,,,,2,,,79,0
24527,note_on,23,0,6,,,,,,,,2,,,67,0
24528,note_on,1,0,6,,,,,,,,2,,,66,64
24528,note_on,3,0,5,,,,,,,,2,,,77,64
24551,note_on,23,0,6,,,,,,,,2,,,66,0
24552,note_on,1,0,6,,,,,,,,2,,,67,64
24569,note_on,89,0,10,,,,,,,,3,,,59,0
24573,note_on,45,0,5,,,,,,,,2,,,77,0
24575,note_on,23,0,6,,,,,,,,2,,,67,0
24576,note_on,1,0,6,,,,,,,,2,,,55,64
24576,note_on,3,0,5,,,,,,,,2,,,75,64
24576,note_on,7,0,10,,,,,,,,3,,,55,43
24599,note_on,23,0,5,,,,,,,,2,,,75,0
24599,note_on,23,0,6,,,,,,,,2,,,55,0
24600,note_on,1,0,6,,,,,,,,2,,,67,64
24600,note_on,1,0,5,,,,,,,,2,,,76,64
24623,note_on,23,0,6,,,,,,,,2,,,67,0
24624,note_on,1,0,6,,,,,,,,2,,,66,64
24647,note_on,23,0,6,,,,,,,,2,,,66,0
24648,note_on,1,0,6,,,,,,,,2,,,67,64
24665,note_on,89,0,10,,,,,,,,3,,,55,0
24667,note_on,67,0,5,,,,,,,,2,,,76,0
24671,note_on,23,0,6,,,,,,,,2,,,67,0
24672,note_on,7,0,10,,,,,,,,3,,,60,43
24672,note_on,5,0,5,,,,,,,,2,,,76,64
24672,note_on,147,0,8,,,,,,,,3,,,78,43
24672,note_on,1,0,6,,,,,,,,2,,,60,64
24678,note_on,0,0,8,,,,,,,,3,,,79,43
24678,note_on,6,0,8,,,,,,,,3,,,78,0
24695,note_on,23,0,6,,,,,,,,2,,,60,0
24696,note_on,1,0,6,,,,,,,,2,,,67,64
24717,note_on,39,0,8,,,,,,,,3,,,79,0
24719,note_on,23,0,6,,,,,,,,2,,,67,0
24720,note_on,1,0,6,,,,,,,,2,,,66,64
24743,note_on,23,0,6,,,,,,,,2,,,66,0
24744,note_on,1,0,6,,,,,,,,2,,,67,64
24761,note_on,89,0,10,,,,,,,,3,,,60,0
24767,note_on,23,0,6,,,,,,,,2,,,67,0
24768,note_on,51,0,8,,,,,,,,3,,,78,43
24768,note_on,1,0,6,,,,,,,,2,,,55,64
24768,note_on,7,0,10,,,,,,,,3,,,55,43
24774,note_on,0,0,8,,,,,,,,3,,,79,43
24774,note_on,6,0,8,,,,,,,,3,,,78,0
24791,note_on,23,0,6,,,,,,,,2,,,55,0
24792,note_on,1,0,6,,,,,,,,2,,,67,64
24805,note_on,133,0,5,,,,,,,,2,,,76,0
24813,note_on,39,0,8,,,,,,,,3,,,79,0
24815,note_on,23,0,6,,,,,,,,2,,,67,0
24816,note_on,11,0,5,,,,,,,,2,,,78,64
24816,note_on,1,0,6,,,,,,,,2,,,66,64
24839,note_on,23,0,6,,,,,,,,2,,,66,0
24839,note_on,23,0,5,,,,,,,,2,,,78,0
24840,note_on,1,0,6,,,,,,,,2,,,67,64
24840,note_on,1,0,5,,,,,,,,2,,,79,64
24857,note_on,89,0,10,,,,,,,,3,,,55,0
24863,note_on,23,0,5,,,,,,,,2,,,79,0
24863,note_on,23,0,6,,,,,,,,2,,,67,0
24864,note_on,1,0,6,,,,,,,,2,,,60,64
24864,note_on,7,0,10,,,,,,,,3,,,60,43
24864,note_on,1,0,5,,,,,,,,2,,,78,64
24864,note_on,51,0,8,,,,,,,,3,,,78,43
24870,note_on,6,0,8,,,,,,,,3,,,78,0
24870,note_on,0,0,8,,,,,,,,3,,,79,43
24887,note_on,23,0,6,,,,,,,,2,,,60,0
24888,note_on,1,0,6,,,,,,,,2,,,67,64
24909,note_on,45,0,5,,,,,,,,2,,,78,0
24909,note_on,39,0,8,,,,,,,,3,,,79,0
24911,note_on,23,0,6,,,,,,,,2,,,67,0
24912,note_on,1,0,6,,,,,,,,2,,,66,64
24912,note_on,3,0,5,,,,,,,,2,,,76,64
24932,note_on,20,0,5,,,,,,,,2,,,76,0
24935,note_on,23,0,6,,,,,,,,2,,,66,0
24936,note_on,1,0,6,,,,,,,,2,,,67,64
24953,note_on,89,0,10,,,,,,,,3,,,60,0
24959,note_on,23,0,6,,,,,,,,2,,,67,0
24960,note_on,28,0,5,,,,,,,,2,,,73,64
24960,note_on,1,0,6,,,,,,,,2,,,55,64
24960,note_on,7,0,10,,,,,,,,3,,,55,43
24983,note_on,23,0,6,,,,,,,,2,,,55,0
24984,note_on,1,0,6,,,,,,,,2,,,67,65
25005,note_on,45,0,5,,,,,,,,2,,,73,0
25007,note_on,23,0,6,,,,,,,,2,,,67,0
25008,note_on,1,0,6,,,,,,,,2,,,66,66
25008,note_on,3,0,5,,,,,,,,2,,,74,66
25031,note_on,23,0,6,,,,,,,,2,,,66,0
25032,note_on,1,0,6,,,,,,,,2,,,67,67
25049,note_on,89,0,10,,,,,,,,3,,,55,0
25053,note_on,45,0,5,,,,,,,,2,,,74,0
25055,note_on,23,0,6,,,,,,,,2,,,67,0
25056,note_on,147,0,8,,,,,,,,3,,,78,43
25056,note_on,3,0,5,,,,,,,,2,,,74,69
25056,note_on,1,0,6,,,,,,,,2,,,59,69
25056,note_on,7,0,10,,,,,,,,3,,,59,43
25062,note_on,0,0,8,,,,,,,,3,,,79,43
25062,note_on,6,0,8,,,,,,,,3,,,78,0
25079,note_on,23,0,6,,,,,,,,2,,,59,0
25080,note_on,1,0,6,,,,,,,,2,,,67,70
25101,note_on,39,0,8,,,,,,,,3,,,79,0
25103,note_on,23,0,6,,,,,,,,2,,,67,0
25104,note_on,1,0,6,,,,,,,,2,,,66,71
25127,note_on,23,0,6,,,,,,,,2,,,66,0
25128,note_on,1,0,6,,,,,,,,2,,,67,73
25145,note_on,89,0,10,,,,,,,,3,,,59,0
25151,note_on,23,0,6,,,,,,,,2,,,67,0
25152,note_on,51,0,8,,,,,,,,3,,,78,43
25152,note_on,7,0,10,,,,,,,,3,,,55,43
25152,note_on,1,0,6,,,,,,,,2,,,55,74
25158,note_on,0,0,8,,,,,,,,3,,,79,43
25158,note_on,6,0,8,,,,,,,,3,,,78,0
25175,note_on,23,0,6,,,,,,,,2,,,55,0
25176,note_on,1,0,6,,,,,,,,2,,,67,75
25189,note_on,133,0,5,,,,,,,,2,,,74,0
25197,note_on,39,0,8,,,,,,,,3,,,79,0
25199,note_on,23,0,6,,,,,,,,2,,,67,0
25200,note_on,1,0,6,,,,,,,,2,,,66,77
25200,note_on,11,0,5,,,,,,,,2,,,71,77
25223,note_on,23,0,6,,,,,,,,2,,,66,0
25224,note_on,1,0,6,,,,,,,,2,,,67,78
25241,note_on,89,0,10,,,,,,,,3,,,55,0
25245,note_on,45,0,5,,,,,,,,2,,,71,0
25247,note_on,23,0,6,,,,,,,,2,,,67,0
25248,note_on,7,0,10,,,,,,,,3,,,59,43
25248,note_on,3,0,5,,,,,,,,2,,,79,79
25248,note_on,1,0,6,,,,,,,,2,,,59,79
25248,note_on,51,0,8,,,,,,,,3,,,78,43
25254,note_on,0,0,8,,,,,,,,3,,,79,43
25254,note_on,6,0,8,,,,,,,,3,,,78,0
25271,note_on,23,0,6,,,,,,,,2,,,59,0
25272,note_on,1,0,6,,,,,,,,2,,,67,81
25293,note_on,45,0,5,,,,,,,,2,,,79,0
25293,note_on,39,0,8,,,,,,,,3,,,79,0
25295,note_on,23,0,6,,,,,,,,2,,,67,0
25296,note_on,3,0,5,,,,,,,,2,,,77,82
25296,note_on,1,0,6,,,,,,,,2,,,66,82
25319,note_on,23,0,6,,,,,,,,2,,,66,0
25320,note_on,1,0,6,,,,,,,,2,,,67,83
25337,note_on,89,0,10,,,,,,,,3,,,59,0
25341,note_on,45,0,5,,,,,,,,2,,,77,0
25343,note_on,23,0,6,,,,,,,,2,,,67,0
25344,note_on,1,0,6,,,,,,,,2,,,55,85
25344,note_on,3,0,5,,,,,,,,2,,,75,85
25344,note_on,7,0,10,,,,,,,,3,,,55,43
25367,note_on,23,0,6,,,,,,,,2,,,55,0
25368,note_on,1,0,6,,,,,,,,2,,,67,85
25389,note_on,45,0,5,,,,,,,,2,,,75,0
25391,note_on,23,0,6,,,,,,,,2,,,67,0
25392,note_on,1,0,6,,,,,,,,2,,,66,85
25392,note_on,3,0,5,,,,,,,,2,,,76,85
25415,note_on,23,0,6,,,,,,,,2,,,66,0
25416,note_on,1,0,6,,,,,,,,2,,,67,85
25433,note_on,89,0,10,,,,,,,,3,,,55,0
25437,note_on,45,0,5,,,,,,,,2,,,76,0
25439,note_on,23,0,6,,,,,,,,2,,,67,0
25440,note_on,3,0,5,,,,,,,,2,,,76,85
25440,note_on,7,0,10,,,,,,,,3,,,60,43
25440,note_on,1,0,6,,,,,,,,2,,,60,85
25440,note_on,147,0,8,,,,,,,,3,,,78,43
25446,note_on,6,0,8,,,,,,,,3,,,78,0
25446,note_on,0,0,8,,,,,,,,3,,,79,43
25463,note_on,23,0,6,,,,,,,,2,,,60,0
25463,note_on,23,0,5,,,,,,,,2,,,76,0
25464,note_on,1,0,6,,,,,,,,2,,,67,85
25464,note_on,1,0,5,,,,,,,,2,,,79,85
25485,note_on,39,0,8,,,,,,,,3,,,79,0
25487,note_on,23,0,6,,,,,,,,2,,,67,0
25487,note_on,23,0,5,,,,,,,,2,,,79,0
25488,note_on,1,0,6,,,,,,,,2,,,66,85
25488,note_on,1,0,5,,,,,,,,2,,,84,85
25511,note_on,23,0,5,,,,,,,,2,,,84,0
25511,note_on,23,0,6,,,,,,,,2,,,66,0
25512,note_on,1,0,5,,,,,,,,2,,,79,85
25512,note_on,1,0,6,,,,,,,,2,,,67,85
25529,note_on,89,0,10,,,,,,,,3,,,60,0
25535,note_on,23,0,5,,,,,,,,2,,,79,0
25535,note_on,23,0,6,,,,,,,,2,,,67,0
25536,note_on,1,0,5,,,,,,,,2,,,84,85
25536,note_on,51,0,8,,,,,,,,3,,,78,43
25536,note_on,7,0,10,,,,,,,,3,,,55,43
25536,note_on,1,0,6,,,,,,,,2,,,55,85
25542,note_on,6,0,8,,,,,,,,3,,,78,0
25542,note_on,0,0,8,,,,,,,,3,,,79,43
25559,note_on,23,0,6,,,,,,,,2,,,55,0
25560,note_on,1,0,6,,,,,,,,2,,,67,85
25581,note_on,39,0,8,,,,,,,,3,,,79,0
25581,note_on,45,0,5,,,,,,,,2,,,84,0
25583,note_on,23,0,6,,,,,,,,2,,,67,0
25584,note_on,3,0,5,,,,,,,,2,,,79,85
25584,note_on,1,0,6,,,,,,,,2,,,66,85
25607,note_on,23,0,6,,,,,,,,2,,,66,0
25608,note_on,1,0,6,,,,,,,,2,,,67,85
25625,note_on,89,0,10,,,,,,,,3,,,55,0
25629,note_on,45,0,5,,,,,,,,2,,,79,0
25631,note_on,23,0,6,,,,,,,,2,,,67,0
25632,note_on,3,0,5,,,,,,,,2,,,78,85
25632,note_on,1,0,6,,,,,,,,2,,,60,85
25632,note_on,51,0,8,,,,,,,,3,,,78,43
25632,note_on,7,0,10,,,,,,,,3,,,60,43
25638,note_on,6,0,8,,,,,,,,3,,,78,0
25638,note_on,0,0,8,,,,,,,,3,,,79,43
25655,note_on,23,0,6,,,,,,,,2,,,60,0
25656,note_on,1,0,6,,,,,,,,2,,,67,85
25677,note_on,45,0,5,,,,,,,,2,,,78,0
25677,note_on,39,0,8,,,,,,,,3,,,79,0
25679,note_on,23,0,6,,,,,,,,2,,,67,0
25680,note_on,1,0,6,,,,,,,,2,,,66,85
25680,note_on,3,0,5,,,,,,,,2,,,76,85
25703,note_on,23,0,6,,,,,,,,2,,,66,0
25704,note_on,1,0,6,,,,,,,,2,,,67,85
25721,note_on,89,0,10,,,,,,,,3,,,60,0
25725,note_on,45,0,5,,,,,,,,2,,,76,0
25727,note_on,23,0,6,,,,,,,,2,,,67,0
25728,note_on,3,0,5,,,,,,,,2,,,74,85
25728,note_on,1,0,6,,,,,,,,2,,,55,85
25728,note_on,7,0,10,,,,,,,,3,,,55,43
25751,note_on,23,0,6,,,,,,,,2,,,55,0
25752,note_on,1,0,6,,,,,,,,2,,,67,85
25775,note_on,23,0,6,,,,,,,,2,,,67,0
25776,note_on,1,0,6,,,,,,,,2,,,66,85
25795,note_on,67,0,5,,,,,,,,2,,,74,0
25799,note_on,23,0,6,,,,,,,,2,,,66,0
25800,note_on,1,0,6,,,,,,,,2,,,67,85
25800,note_on,5,0,5,,,,,,,,2,,,71,85
25817,note_on,89,0,10,,,,,,,,3,,,55,0
25823,note_on,23,0,5,,,,,,,,2,,,71,0
25823,note_on,23,0,6,,,,,,,,2,,,67,0
25824,note_on,1,0,6,,,,,,,,2,,,59,85
25824,note_on,147,0,8,,,,,,,,3,,,78,43
25824,note_on,7,0,10,,,,,,,,3,,,59,43
25824,note_on,1,0,5,,,,,,,,2,,,79,85
25830,note_on,0,0,8,,,,,,,,3,,,79,43
25830,note_on,6,0,8,,,,,,,,3,,,78,0
25847,note_on,23,0,6,,,,,,,,2,,,59,0
25848,note_on,1,0,6,,,,,,,,2,,,67,85
25869,note_on,39,0,8,,,,,,,,3,,,79,0
25871,note_on,23,0,6,,,,,,,,2,,,67,0
25872,note_on,1,0,6,,,,,,,,2,,,66,85
25891,note_on,67,0,5,,,,,,,,2,,,79,0
25895,note_on,23,0,6,,,,,,,,2,,,66,0
25896,note_on,5,0,5,,,,,,,,2,,,74,85
25896,note_on,1,0,6,,,,,,,,2,,,67,85
25905,note_on,1713,0,9,,,,,,,,3,,,67,0
25913,note_on,89,0,10,,,,,,,,3,,,59,0
25919,note_on,23,0,5,,,,,,,,2,,,74,0
25919,note_on,23,0,6,,,,,,,,2,,,67,0
25920,note_on,15,0,9,,,,,,,,3,,,71,43
25920,note_on,1,0,6,,,,,,,,2,,,55,85
25920,note_on,51,0,8,,,,,,,,3,,,74,43
25920,note_on,1,0,5,,,,,,,,2,,,83,85
25920,note_on,7,0,10,,,,,,,,3,,,55,43
25943,note_on,23,0,5,,,,,,,,2,,,83,0
25944,note_on,1,0,5,,,,,,,,2,,,81,85
25967,note_on,23,0,5,,,,,,,,2,,,81,0
25968,note_on,1,0,5,,,,,,,,2,,,79,85
25991,note_on,23,0,5,,,,,,,,2,,,79,0
25992,note_on,1,0,5,,,,,,,,2,,,78,85
26009,note_on,89,0,9,,,,,,,,3,,,71,0
26009,note_on,89,0,8,,,,,,,,3,,,74,0
26009,note_on,89,0,10,,,,,,,,3,,,55,0
26009,note_on,89,0,6,,,,,,,,2,,,55,0
26015,note_on,23,0,5,,,,,,,,2,,,78,0
26016,note_on,1,0,5,,,,,,,,2,,,76,85
26016,note_on,7,0,9,,,,,,,,3,,,62,43
26016,note_on,7,0,8,,,,,,,,3,,,71,43
26039,note_on,23,0,5,,,,,,,,2,,,76,0
26040,note_on,1,0,5,,,,,,,,2,,,74,85
26063,note_on,23,0,5,,,,,,,,2,,,74,0
26064,note_on,1,0,5,,,,,,,,2,,,72,85
26087,note_on,23,0,5,,,,,,,,2,,,72,0
26088,note_on,1,0,5,,,,,,,,2,,,71,85
26105,note_on,89,0,9,,,,,,,,3,,,62,0
26105,note_on,89,0,8,,,,,,,,3,,,71,0
26111,note_on,23,0,5,,,,,,,,2,,,71,0
26112,note_on,1,0,5,,,,,,,,2,,,69,85
26112,note_on,1831,0,11,,,,,,,,3,,,36,43
26112,note_on,7,0,9,,,,,,,,3,,,64,43
26112,note_on,0,0,6,,,,,,,,2,,,45,85
26112,note_on,103,0,6,,,,,,,,2,,,48,85
26112,note_on,7,0,8,,,,,,,,3,,,69,43
26112,note_on,103,0,10,,,,,,,,3,,,60,43
26135,note_on,23,0,5,,,,,,,,2,,,69,0
26136,note_on,1,0,5,,,,,,,,2,,,68,85
26159,note_on,23,0,5,,,,,,,,2,,,68,0
26160,note_on,1,0,5,,,,,,,,2,,,71,85
26183,note_on,23,0,5,,,,,,,,2,,,71,0
26184,note_on,1,0,5,,,,,,,,2,,,69,85
26201,note_on,89,0,11,,,,,,,,3,,,36,0
26201,note_on,89,0,9,,,,,,,,3,,,64,0
26201,note_on,89,0,6,,,,,,,,2,,,45,0
26201,note_on,89,0,8,,,,,,,,3,,,69,0
26201,note_on,0,0,6,,,,,,,,2,,,48,0
26201,note_on,89,0,10,,,,,,,,3,,,60,0
26207,note_on,23,0,5,,,,,,,,2,,,69,0
26208,note_on,1,0,5,,,,,,,,2,,,72,85
26231,note_on,23,0,5,,,,,,,,2,,,72,0
26232,note_on,1,0,5,,,,,,,,2,,,71,85
26255,note_on,23,0,5,,,,,,,,2,,,71,0
26256,note_on,1,0,5,,,,,,,,2,,,74,85
26279,note_on,23,0,5,,,,,,,,2,,,74,0
26280,note_on,1,0,5,,,,,,,,2,,,72,85
26303,note_on,23,0,5,,,,,,,,2,,,72,0
26304,note_on,1,0,5,,,,,,,,2,,,76,85
26327,note_on,23,0,5,,,,,,,,2,,,76,0
26328,note_on,1,0,5,,,,,,,,2,,,74,82
26351,note_on,23,0,5,,,,,,,,2,,,74,0
26352,note_on,1,0,5,,,,,,,,2,,,72,79
26375,note_on,23,0,5,,,,,,,,2,,,72,0
26376,note_on,1,0,5,,,,,,,,2,,,71,77
26399,note_on,23,0,5,,,,,,,,2,,,71,0
26400,note_on,199,0,11,,,,,,,,3,,,37,43
26400,note_on,0,0,6,,,,,,,,2,,,49,64
26400,note_on,199,0,6,,,,,,,,2,,,57,64
26400,note_on,199,0,9,,,,,,,,3,,,64,43
26400,note_on,1,0,5,,,,,,,,2,,,69,74
26400,note_on,199,0,10,,,,,,,,3,,,57,43
26400,note_on,199,0,8,,,,,,,,3,,,67,43
26423,note_on,23,0,5,,,,,,,,2,,,69,0
26424,note_on,1,0,5,,,,,,,,2,,,67,71
26447,note_on,23,0,5,,,,,,,,2,,,67,0
26448,note_on,1,0,5,,,,,,,,2,,,66,69
26471,note_on,23,0,5,,,,,,,,2,,,66,0
26472,note_on,1,0,5,,,,,,,,2,,,67,66
26489,note_on,89,0,8,,,,,,,,3,,,67,0
26489,note_on,89,0,10,,,,,,,,3,,,57,0
26489,note_on,89,0,6,,,,,,,,2,,,49,0
26489,note_on,89,0,9,,,,,,,,3,,,64,0
26489,note_on,89,0,11,,,,,,,,3,,,37,0
26489,note_on,0,0,6,,,,,,,,2,,,57,0
26495,note_on,23,0,5,,,,,,,,2,,,67,0
26496,note_on,7,0,8,,,,,,,,3,,,66,43
26496,note_on,1,0,5,,,,,,,,2,,,66,64
26496,note_on,7,0,10,,,,,,,,3,,,57,43
26496,note_on,7,0,9,,,,,,,,3,,,62,43
26496,note_on,7,0,11,,,,,,,,3,,,38,43
26496,note_on,7,0,6,,,,,,,,2,,,50,64
26519,note_on,23,0,6,,,,,,,,2,,,50,0
26520,note_on,1,0,6,,,,,,,,2,,,57,64
26543,note_on,23,0,6,,,,,,,,2,,,57,0
26544,note_on,1,0,6,,,,,,,,2,,,54,64
26567,note_on,23,0,6,,,,,,,,2,,,54,0
26568,note_on,1,0,6,,,,,,,,2,,,57,64
26585,note_on,89,0,10,,,,,,,,3,,,57,0
26585,note_on,89,0,9,,,,,,,,3,,,62,0
26585,note_on,89,0,8,,,,,,,,3,,,66,0
26585,note_on,89,0,5,,,,,,,,2,,,66,0
26591,note_on,23,0,6,,,,,,,,2,,,57,0
26592,note_on,1,0,6,,,,,,,,2,,,50,64
26592,note_on,7,0,8,,,,,,,,3,,,69,43
26592,note_on,7,0,10,,,,,,,,3,,,54,43
26592,note_on,7,0,9,,,,,,,,3,,,66,43
26592,note_on,7,0,5,,,,,,,,2,,,74,64
26612,note_on,20,0,5,,,,,,,,2,,,74,0
26615,note_on,23,0,6,,,,,,,,2,,,50,0
26616,note_on,1,0,6,,,,,,,,2,,,60,64
26639,note_on,23,0,6,,,,,,,,2,,,60,0
26640,note_on,1,0,6,,,,,,,,2,,,57,64
26640,note_on,28,0,5,,,,,,,,2,,,74,64
26660,note_on,20,0,5,,,,,,,,2,,,74,0
26663,note_on,23,0,6,,,,,,,,2,,,57,0
26664,note_on,1,0,6,,,,,,,,2,,,60,64
26681,note_on,89,0,9,,,,,,,,3,,,66,0
26681,note_on,89,0,8,,,,,,,,3,,,69,0
26681,note_on,89,0,10,,,,,,,,3,,,54,0
26687,note_on,23,0,6,,,,,,,,2,,,60,0
26688,note_on,28,0,5,,,,,,,,2,,,74,64
26688,note_on,1,0,6,,,,,,,,2,,,50,64
26688,note_on,7,0,10,,,,,,,,3,,,62,43
26688,note_on,7,0,9,,,,,,,,3,,,72,43
26688,note_on,7,0,8,,,,,,,,3,,,71,43
26711,note_on,23,0,6,,,,,,,,2,,,50,0
26712,note_on,1,0,6,,,,,,,,2,,,59,64
26735,note_on,23,0,6,,,,,,,,2,,,59,0
26736,note_on,1,0,6,,,,,,,,2,,,55,64
26759,note_on,23,0,6,,,,,,,,2,,,55,0
26760,note_on,1,0,6,,,,,,,,2,,,59,64
26777,note_on,89,0,10,,,,,,,,3,,,62,0
26777,note_on,89,0,8,,,,,,,,3,,,71,0
26777,note_on,89,0,9,,,,,,,,3,,,72,0
26783,note_on,23,0,6,,,,,,,,2,,,59,0
26784,note_on,1,0,6,,,,,,,,2,,,50,64
26784,note_on,7,0,8,,,,,,,,3,,,74,43
26784,note_on,7,0,9,,,,,,,,3,,,69,43
26784,note_on,7,0,10,,,,,,,,3,,,59,43
26807,note_on,23,0,6,,,,,,,,2,,,50,0
26808,note_on,1,0,6,,,,,,,,2,,,59,64
26821,note_on,133,0,5,,,,,,,,2,,,74,0
26831,note_on,23,0,6,,,,,,,,2,,,59,0
26832,note_on,1,0,6,,,,,,,,2,,,55,64
26832,note_on,11,0,5,,,,,,,,2,,,79,64
26855,note_on,23,0,6,,,,,,,,2,,,55,0
26856,note_on,1,0,6,,,,,,,,2,,,59,64
26873,note_on,89,0,9,,,,,,,,3,,,69,0
26873,note_on,89,0,8,,,,,,,,3,,,74,0
26873,note_on,89,0,10,,,,,,,,3,,,59,0
26877,note_on,45,0,5,,,,,,,,2,,,79,0
26879,note_on,23,0,6,,,,,,,,2,,,59,0
26880,note_on,3,0,5,,,,,,,,2,,,78,64
26880,note_on,1,0,6,,,,,,,,2,,,50,64
26880,note_on,7,0,10,,,,,,,,3,,,57,43
26880,note_on,7,0,9,,,,,,,,3,,,62,43
26880,note_on,7,0,8,,,,,,,,3,,,66,43
26892,note_on,12,0,5,,,,,,,,2,,,78,0
26892,note_on,0,0,5,,,,,,,,2,,,76,64
26903,note_on,23,0,6,,,,,,,,2,,,50,0
26904,note_on,1,0,6,,,,,,,,2,,,60,64
26904,note_on,0,0,5,,,,,,,,2,,,74,64
26904,note_on,12,0,5,,,,,,,,2,,,76,0
26927,note_on,23,0,6,,,,,,,,2,,,60,0
26928,note_on,1,0,6,,,,,,,,2,,,57,64
26951,note_on,23,0,6,,,,,,,,2,,,57,0
26952,note_on,1,0,6,,,,,,,,2,,,60,64
26969,note_on,89,0,8,,,,,,,,3,,,66,0
26969,note_on,89,0,9,,,,,,,,3,,,62,0
26969,note_on,89,0,10,,,,,,,,3,,,57,0
26971,note_on,67,0,5,,,,,,,,2,,,74,0
26975,note_on,23,0,6,,,,,,,,2,,,60,0
26976,note_on,7,0,10,,,,,,,,3,,,54,43
26976,note_on,1,0,6,,,,,,,,2,,,50,64
26976,note_on,7,0,9,,,,,,,,3,,,66,43
26976,note_on,5,0,5,,,,,,,,2,,,74,64
26976,note_on,7,0,8,,,,,,,,3,,,69,43
26996,note_on,20,0,5,,,,,,,,2,,,74,0
26999,note_on,23,0,6,,,,,,,,2,,,50,0
27000,note_on,1,0,6,,,,,,,,2,,,60,64
27023,note_on,23,0,6,,,,,,,,2,,,60,0
27024,note_on,28,0,5,,,,,,,,2,,,74,64
27024,note_on,1,0,6,,,,,,,,2,,,57,64
27044,note_on,20,0,5,,,,,,,,2,,,74,0
27047,note_on,23,0,6,,,,,,,,2,,,57,0
27048,note_on,1,0,6,,,,,,,,2,,,60,64
27065,note_on,89,0,10,,,,,,,,3,,,54,0
27065,note_on,89,0,8,,,,,,,,3,,,69,0
27065,note_on,89,0,9,,,,,,,,3,,,66,0
27071,note_on,23,0,6,,,,,,,,2,,,60,0
27072,note_on,7,0,8,,,,,,,,3,,,71,43
27072,note_on,28,0,5,,,,,,,,2,,,74,64
27072,note_on,7,0,9,,,,,,,,3,,,67,43
27072,note_on,7,0,10,,,,,,,,3,,,62,43
27072,note_on,1,0,6,,,,,,,,2,,,50,64
27095,note_on,23,0,6,,,,,,,,2,,,50,0
27096,note_on,1,0,6,,,,,,,,2,,,59,64
27119,note_on,23,0,6,,,,,,,,2,,,59,0
27120,note_on,1,0,6,,,,,,,,2,,,55,64
27143,note_on,23,0,6,,,,,,,,2,,,55,0
27144,note_on,1,0,6,,,,,,,,2,,,59,64
27161,note_on,89,0,10,,,,,,,,3,,,62,0
27161,note_on,89,0,8,,,,,,,,3,,,71,0
27161,note_on,89,0,9,,,,,,,,3,,,67,0
27167,note_on,23,0,6,,,,,,,,2,,,59,0
27168,note_on,1,0,6,,,,,,,,2,,,50,64
27168,note_on,7,0,8,,,,,,,,3,,,74,43
27168,note_on,7,0,9,,,,,,,,3,,,71,43
27168,note_on,7,0,10,,,,,,,,3,,,59,43
27191,note_on,23,0,6,,,,,,,,2,,,50,0
27192,note_on,1,0,6,,,,,,,,2,,,59,64
27205,note_on,133,0,5,,,,,,,,2,,,74,0
27213,note_on,45,0,10,,,,,,,,3,,,59,0
27215,note_on,23,0,6,,,,,,,,2,,,59,0
27216,note_on,3,0,10,,,,,,,,3,,,55,43
27216,note_on,11,0,5,,,,,,,,2,,,79,64
27216,note_on,1,0,6,,,,,,,,2,,,55,64
27239,note_on,23,0,6,,,,,,,,2,,,55,0
27240,note_on,1,0,6,,,,,,,,2,,,59,64
27257,note_on,89,0,9,,,,,,,,3,,,71,0
27257,note_on,89,0,8,,,,,,,,3,,,74,0
27261,note_on,45,0,10,,,,,,,,3,,,55,0
27261,note_on,45,0,5,,,,,,,,2,,,79,0
27263,note_on,23,0,6,,,,,,,,2,,,59,0
27264,note_on,1,0,6,,,,,,,,2,,,57,85
27264,note_on,7,0,8,,,,,,,,3,,,69,43
27264,note_on,0,0,6,,,,,,,,2,,,50,85
27264,note_on,3,0,5,,,,,,,,2,,,78,85
27264,note_on,3,0,10,,,,,,,,3,,,50,43
27264,note_on,7,0,9,,,,,,,,3,,,66,43
27264,note_on,0,0,6,,,,,,,,2,,,54,85
27287,note_on,23,0,5,,,,,,,,2,,,78,0
27288,note_on,1,0,5,,,,,,,,2,,,76,85
27311,note_on,23,0,5,,,,,,,,2,,,76,0
27312,note_on,1,0,5,,,,,,,,2,,,74,85
27353,note_on,0,0,6,,,,,,,,2,,,57,0
27353,note_on,89,0,6,,,,,,,,2,,,50,0
27353,note_on,89,0,10,,,,,,,,3,,,50,0
27353,note_on,89,0,8,,,,,,,,3,,,69,0
27353,note_on,857,0,11,,,,,,,,3,,,38,0
27353,note_on,0,0,6,,,,,,,,2,,,54,0
27353,note_on,89,0,9,,,,,,,,3,,,66,0
27379,note_on,67,0,5,,,,,,,,2,,,74,0
27456,note_on,103,0,8,,,,,,,,3,,,78,43
27456,note_on,103,0,9,,,,,,,,3,,,69,43
27456,note_on,103,0,10,,,,,,,,3,,,62,43
27468,note_on,0,0,8,,,,,,,,3,,,76,43
27468,note_on,12,0,9,,,,,,,,3,,,69,0
27468,note_on,0,0,9,,,,,,,,3,,,67,43
27468,note_on,12,0,8,,,,,,,,3,,,78,0
27480,note_on,12,0,8,,,,,,,,3,,,76,0
27480,note_on,12,0,9,,,,,,,,3,,,67,0
27480,note_on,0,0,9,,,,,,,,3,,,66,43
27480,note_on,0,0,8,,,,,,,,3,,,74,43
27545,note_on,89,0,10,,,,,,,,3,,,62,0
27547,note_on,67,0,8,,,,,,,,3,,,74,0
27547,note_on,67,0,9,,,,,,,,3,,,66,0
27648,note_on,269,0,5,,,,,,,,2,,,74,64
27693,note_on,45,0,5,,,,,,,,2,,,74,0
27696,note_on,3,0,5,,,,,,,,2,,,73,64
27741,note_on,45,0,5,,,,,,,,2,,,73,0
27744,note_on,3,0,5,,,,,,,,2,,,74,64
27789,note_on,45,0,5,,,,,,,,2,,,74,0
27792,note_on,3,0,5,,,,,,,,2,,,73,64
27837,note_on,45,0,5,,,,,,,,2,,,73,0
27840,note_on,3,0,5,,,,,,,,2,,,74,64
27840,note_on,293,0,8,,,,,,,,3,,,62,43
27885,note_on,45,0,8,,,,,,,,3,,,62,0
27888,note_on,3,0,8,,,,,,,,3,,,61,43
27933,note_on,45,0,8,,,,,,,,3,,,61,0
27936,note_on,3,0,8,,,,,,,,3,,,62,43
27973,note_on,133,0,5,,,,,,,,2,,,74,0
27981,note_on,45,0,8,,,,,,,,3,,,62,0
27984,note_on,11,0,5,,,,,,,,2,,,71,64
27984,note_on,3,0,8,,,,,,,,3,,,61,43
28029,note_on,45,0,8,,,,,,,,3,,,61,0
28029,note_on,45,0,5,,,,,,,,2,,,71,0
28032,note_on,485,0,9,,,,,,,,3,,,55,43
28032,note_on,487,0,10,,,,,,,,3,,,50,43
28032,note_on,4903,0,1,,,,,,,,0,,,79,49
28032,note_on,0,0,1,,,,,,,,0,,,74,49
28032,note_on,6631,0,3,,,,,,,,1,,,74,49
28032,note_on,0,0,5,,,,,,,,2,,,62,64
28032,note_on,679,0,11,,,,,,,,3,,,35,43
28032,note_on,3,0,5,,,,,,,,2,,,67,64
28032,note_on,679,0,6,,,,,,,,2,,,47,64
28032,note_on,3,0,8,,,,,,,,3,,,62,43
28032,note_on,14119,0,4,,,,,,,,1,,,74,49
28052,note_on,0,0,1,,,,,,,,0,,,79,0
28052,note_on,20,0,1,,,,,,,,0,,,74,0
28052,note_on,20,0,11,,,,,,,,3,,,35,0
28052,note_on,20,0,9,,,,,,,,3,,,55,0
28052,note_on,20,0,10,,,,,,,,3,,,50,0
28077,note_on,0,0,5,,,,,,,,2,,,67,0
28077,note_on,45,0,5,,,,,,,,2,,,62,0
28077,note_on,45,0,6,,,,,,,,2,,,47,0
28128,note_on,76,0,11,,,,,,,,3,,,38,43
28128,note_on,51,0,5,,,,,,,,2,,,69,74
28128,note_on,0,0,5,,,,,,,,2,,,66,74
28128,note_on,76,0,1,,,,,,,,0,,,81,49
28128,note_on,76,0,10,,,,,,,,3,,,54,43
28128,note_on,51,0,6,,,,,,,,2,,,50,74
28128,note_on,76,0,9,,,,,,,,3,,,57,43
28128,note_on,0,0,1,,,,,,,,0,,,78,49
28148,note_on,20,0,1,,,,,,,,0,,,78,0
28148,note_on,0,0,1,,,,,,,,0,,,81,0
28148,note_on,20,0,9,,,,,,,,3,,,57,0
28148,note_on,20,0,11,,,,,,,,3,,,38,0
28148,note_on,20,0,10,,,,,,,,3,,,54,0
28173,note_on,45,0,5,,,,,,,,2,,,66,0
28173,note_on,45,0,6,,,,,,,,2,,,50,0
28173,note_on,0,0,5,,,,,,,,2,,,69,0
28224,note_on,51,0,6,,,,,,,,2,,,55,85
28224,note_on,76,0,10,,,,,,,,3,,,57,43
28224,note_on,76,0,9,,,,,,,,3,,,60,43
28224,note_on,76,0,1,,,,,,,,0,,,81,49
28224,note_on,76,0,11,,,,,,,,3,,,43,43
28224,note_on,51,0,5,,,,,,,,2,,,69,85
28230,note_on,0,0,5,,,,,,,,2,,,71,85
28230,note_on,0,0,9,,,,,,,,3,,,59,43
28230,note_on,6,0,1,,,,,,,,0,,,81,0
28230,note_on,0,0,1,,,,,,,,0,,,83,49
28230,note_on,0,0,1,,,,,,,,0,,,79,49
28230,note_on,0,0,5,,,,,,,,2,,,67,85
28230,note_on,6,0,9,,,,,,,,3,,,60,0
28230,note_on,6,0,5,,,,,,,,2,,,69,0
28230,note_on,0,0,10,,,,,,,,3,,,55,43
28230,note_on,6,0,10,,,,,,,,3,,,57,0
28244,note_on,0,0,1,,,,,,,,0,,,83,0
28244,note_on,14,0,1,,,,,,,,0,,,79,0
28244,note_on,20,0,11,,,,,,,,3,,,43,0
28244,note_on,14,0,9,,,,,,,,3,,,59,0
28244,note_on,14,0,10,,,,,,,,3,,,55,0
28269,note_on,0,0,5,,,,,,,,2,,,71,0
28269,note_on,45,0,6,,,,,,,,2,,,55,0
28269,note_on,39,0,5,,,,,,,,2,,,67,0
28320,note_on,76,0,9,,,,,,,,3,,,57,43
28320,note_on,76,0,10,,,,,,,,3,,,54,43
28320,note_on,51,0,5,,,,,,,,2,,,69,74
28320,note_on,76,0,11,,,,,,,,3,,,38,43
28320,note_on,0,0,1,,,,,,,,0,,,78,49
28320,note_on,76,0,1,,,,,,,,0,,,81,49
28320,note_on,51,0,6,,,,,,,,2,,,50,74
28320,note_on,0,0,5,,,,,,,,2,,,66,74
28340,note_on,0,0,1,,,,,,,,0,,,81,0
28340,note_on,20,0,1,,,,,,,,0,,,78,0
28340,note_on,20,0,11,,,,,,,,3,,,38,0
28340,note_on,20,0,10,,,,,,,,3,,,54,0
28340,note_on,20,0,9,,,,,,,,3,,,57,0
28365,note_on,45,0,5,,,,,,,,2,,,66,0
28365,note_on,0,0,5,,,,,,,,2,,,69,0
28365,note_on,45,0,6,,,,,,,,2,,,50,0
28386,note_on,354,0,4,,,,,,,,1,,,74,0
28386,note_on,354,0,3,,,,,,,,1,,,74,0
28386,note_on,354,0,8,,,,,,,,3,,,62,0
28416,note_on,51,0,5,,,,,,,,2,,,74,64
28461,note_on,45,0,5,,,,,,,,2,,,74,0
28464,note_on,3,0,5,,,,,,,,2,,,73,64
28509,note_on,45,0,5,,,,,,,,2,,,73,0
28512,note_on,3,0,5,,,,,,,,2,,,74,85
28557,note_on,45,0,5,,,,,,,,2,,,74,0
28560,note_on,3,0,5,,,,,,,,2,,,73,85
28605,note_on,45,0,5,,,,,,,,2,,,73,0
28608,note_on,222,0,8,,,,,,,,3,,,62,43
28608,note_on,3,0,5,,,,,,,,2,,,74,64
28653,note_on,45,0,8,,,,,,,,3,,,62,0
28656,note_on,3,0,8,,,,,,,,3,,,61,43
28701,note_on,45,0,8,,,,,,,,3,,,61,0
28704,note_on,3,0,8,,,,,,,,3,,,62,43
28741,note_on,133,0,5,,,,,,,,2,,,74,0
28749,note_on,45,0,8,,,,,,,,3,,,62,0
28752,note_on,11,0,5,,,,,,,,2,,,76,64
28752,note_on,3,0,8,,,,,,,,3,,,61,43
28797,note_on,45,0,8,,,,,,,,3,,,61,0
28797,note_on,45,0,5,,,,,,,,2,,,76,0
28800,note_on,3,0,5,,,,,,,,2,,,69,64
28800,note_on,435,0,6,,,,,,,,2,,,60,64
28800,note_on,414,0,4,,,,,,,,1,,,74,49
28800,note_on,414,0,3,,,,,,,,1,,,74,49
28800,note_on,3,0,8,,,,,,,,3,,,62,43
28800,note_on,460,0,1,,,,,,,,0,,,81,49
28800,note_on,0,0,1,,,,,,,,0,,,78,49
28800,note_on,460,0,10,,,,,,,,3,,,54,43
28800,note_on,460,0,9,,,,,,,,3,,,57,43
28800,note_on,0,0,5,,,,,,,,2,,,66,64
28800,note_on,460,0,11,,,,,,,,3,,,48,43
28820,note_on,20,0,10,,,,,,,,3,,,54,0
28820,note_on,20,0,9,,,,,,,,3,,,57,0
28820,note_on,0,0,1,,,,,,,,0,,,81,0
28820,note_on,20,0,1,,,,,,,,0,,,78,0
28820,note_on,20,0,11,,,,,,,,3,,,48,0
28845,note_on,45,0,5,,,,,,,,2,,,66,0
28845,note_on,0,0,5,,,,,,,,2,,,69,0
28845,note_on,45,0,6,,,,,,,,2,,,60,0
28896,note_on,0,0,1,,,,,,,,0,,,79,49
28896,note_on,76,0,1,,,,,,,,0,,,83,49
28896,note_on,76,0,11,,,,,,,,3,,,47,43
28896,note_on,76,0,10,,,,,,,,3,,,55,43
28896,note_on,51,0,6,,,,,,,,2,,,59,74
28896,note_on,76,0,9,,,,,,,,3,,,59,43
28896,note_on,51,0,5,,,,,,,,2,,,71,74
28896,note_on,0,0,5,,,,,,,,2,,,67,74
28916,note_on,20,0,9,,,,,,,,3,,,59,0
28916,note_on,20,0,10,,,,,,,,3,,,55,0
28916,note_on,0,0,1,,,,,,,,0,,,83,0
28916,note_on,20,0,1,,,,,,,,0,,,79,0
28916,note_on,20,0,11,,,,,,,,3,,,47,0
28941,note_on,45,0,6,,,,,,,,2,,,59,0
28941,note_on,0,0,5,,,,,,,,2,,,71,0
28941,note_on,45,0,5,,,,,,,,2,,,67,0
28992,note_on,76,0,10,,,,,,,,3,,,59,43
28992,note_on,76,0,9,,,,,,,,3,,,62,43
28992,note_on,76,0,1,,,,,,,,0,,,83,49
28992,note_on,76,0,11,,,,,,,,3,,,42,43
28992,note_on,51,0,5,,,,,,,,2,,,71,85
28992,note_on,51,0,6,,,,,,,,2,,,54,85
28998,note_on,6,0,10,,,,,,,,3,,,59,0
28998,note_on,6,0,5,,,,,,,,2,,,71,0
28998,note_on,0,0,10,,,,,,,,3,,,57,43
28998,note_on,0,0,5,,,,,,,,2,,,72,85
28998,note_on,0,0,5,,,,,,,,2,,,69,85
28998,note_on,0,0,1,,,,,,,,0,,,84,49
28998,note_on,6,0,1,,,,,,,,0,,,83,0
28998,note_on,0,0,9,,,,,,,,3,,,60,43
28998,note_on,0,0,1,,,,,,,,0,,,81,49
28998,note_on,6,0,9,,,,,,,,3,,,62,0
29012,note_on,14,0,9,,,,,,,,3,,,60,0
29012,note_on,14,0,10,,,,,,,,3,,,57,0
29012,note_on,20,0,11,,,,,,,,3,,,42,0
29012,note_on,14,0,1,,,,,,,,0,,,81,0
29012,note_on,0,0,1,,,,,,,,0,,,84,0
29037,note_on,0,0,5,,,,,,,,2,,,72,0
29037,note_on,45,0,6,,,,,,,,2,,,54,0
29037,note_on,39,0,5,,,,,,,,2,,,69,0
29088,note_on,0,0,1,,,,,,,,0,,,79,49
29088,note_on,51,0,6,,,,,,,,2,,,55,74
29088,note_on,76,0,10,,,,,,,,3,,,55,43
29088,note_on,76,0,11,,,,,,,,3,,,43,43
29088,note_on,76,0,9,,,,,,,,3,,,59,43
29088,note_on,51,0,5,,,,,,,,2,,,71,74
29088,note_on,0,0,5,,,,,,,,2,,,67,74
29088,note_on,76,0,1,,,,,,,,0,,,83,49
29108,note_on,20,0,9,,,,,,,,3,,,59,0
29108,note_on,20,0,1,,,,,,,,0,,,79,0
29108,note_on,0,0,1,,,,,,,,0,,,83,0
29108,note_on,20,0,11,,,,,,,,3,,,43,0
29108,note_on,20,0,10,,,,,,,,3,,,55,0
29133,note_on,0,0,5,,,,,,,,2,,,71,0
29133,note_on,45,0,6,,,,,,,,2,,,55,0
29133,note_on,45,0,5,,,,,,,,2,,,67,0
29154,note_on,354,0,4,,,,,,,,1,,,74,0
29154,note_on,354,0,3,,,,,,,,1,,,74,0
29154,note_on,354,0,8,,,,,,,,3,,,62,0
29184,note_on,51,0,5,,,,,,,,2,,,79,64
29229,note_on,45,0,5,,,,,,,,2,,,79,0
29232,note_on,3,0,5,,,,,,,,2,,,78,66
29277,note_on,45,0,5,,,,,,,,2,,,78,0
29280,note_on,3,0,5,,,,,,,,2,,,79,68
29325,note_on,45,0,5,,,,,,,,2,,,79,0
29328,note_on,3,0,5,,,,,,,,2,,,78,71
29373,note_on,45,0,5,,,,,,,,2,,,78,0
29376,note_on,3,0,5,,,,,,,,2,,,79,73
29376,note_on,243,0,6,,,,,,,,2,,,59,64
29399,note_on,23,0,6,,,,,,,,2,,,59,0
29400,note_on,1,0,6,,,,,,,,2,,,67,64
29423,note_on,23,0,6,,,,,,,,2,,,67,0
29424,note_on,1,0,6,,,,,,,,2,,,66,64
29447,note_on,23,0,6,,,,,,,,2,,,66,0
29448,note_on,1,0,6,,,,,,,,2,,,67,64
29471,note_on,23,0,6,,,,,,,,2,,,67,0
29472,note_on,1,0,6,,,,,,,,2,,,59,64
29495,note_on,23,0,6,,,,,,,,2,,,59,0
29496,note_on,1,0,6,,,,,,,,2,,,67,64
29509,note_on,133,0,5,,,,,,,,2,,,79,0
29519,note_on,23,0,6,,,,,,,,2,,,67,0
29520,note_on,11,0,5,,,,,,,,2,,,81,80
29520,note_on,1,0,6,,,,,,,,2,,,66,64
29543,note_on,23,0,6,,,,,,,,2,,,66,0
29544,note_on,1,0,6,,,,,,,,2,,,67,64
29565,note_on,45,0,5,,,,,,,,2,,,81,0
29567,note_on,23,0,6,,,,,,,,2,,,67,0
29568,note_on,3,0,5,,,,,,,,2,,,79,82
29568,note_on,1,0,6,,,,,,,,2,,,59,64
29591,note_on,23,0,6,,,,,,,,2,,,59,0
29592,note_on,1,0,6,,,,,,,,2,,,67,64
29613,note_on,45,0,5,,,,,,,,2,,,79,0
29615,note_on,23,0,6,,,,,,,,2,,,67,0
29616,note_on,1,0,6,,,,,,,,2,,,66,64
29616,note_on,3,0,5,,,,,,,,2,,,77,85
29639,note_on,23,0,6,,,,,,,,2,,,66,0
29640,note_on,1,0,6,,,,,,,,2,,,67,64
29661,note_on,45,0,5,,,,,,,,2,,,77,0
29663,note_on,23,0,6,,,,,,,,2,,,67,0
29664,note_on,3,0,5,,,,,,,,2,,,76,82
29664,note_on,1,0,6,,,,,,,,2,,,59,64
29687,note_on,23,0,6,,,,,,,,2,,,59,0
29688,note_on,1,0,6,,,,,,,,2,,,67,64
29709,note_on,45,0,5,,,,,,,,2,,,76,0
29711,note_on,23,0,6,,,,,,,,2,,,67,0
29712,note_on,1,0,6,,,,,,,,2,,,66,64
29712,note_on,3,0,5,,,,,,,,2,,,75,79
29735,note_on,23,0,6,,,,,,,,2,,,66,0
29736,note_on,1,0,6,,,,,,,,2,,,67,64
29757,note_on,45,0,5,,,,,,,,2,,,75,0
29759,note_on,23,0,6,,,,,,,,2,,,67,0
29760,note_on,1,0,6,,,,,,,,2,,,60,64
29760,note_on,3,0,5,,,,,,,,2,,,75,76
29783,note_on,23,0,6,,,,,,,,2,,,60,0
29784,note_on,1,0,6,,,,,,,,2,,,67,64
29807,note_on,23,0,6,,,,,,,,2,,,67,0
29808,note_on,1,0,6,,,,,,,,2,,,66,64
29831,note_on,23,0,6,,,,,,,,2,,,66,0
29832,note_on,1,0,6,,,,,,,,2,,,67,64
29849,note_on,89,0,5,,,,,,,,2,,,75,0
29855,note_on,23,0,6,,,,,,,,2,,,67,0
29856,note_on,7,0,5,,,,,,,,2,,,76,70
29856,note_on,1,0,6,,,,,,,,2,,,60,64
29879,note_on,23,0,6,,,,,,,,2,,,60,0
29880,note_on,1,0,6,,,,,,,,2,,,67,64
29901,note_on,45,0,5,,,,,,,,2,,,76,0
29903,note_on,23,0,6,,,,,,,,2,,,67,0
29904,note_on,1,0,6,,,,,,,,2,,,66,64
29927,note_on,23,0,6,,,,,,,,2,,,66,0
29928,note_on,1,0,6,,,,,,,,2,,,67,64
29951,note_on,23,0,6,,,,,,,,2,,,67,0
29952,note_on,51,0,5,,,,,,,,2,,,76,64
29952,note_on,798,0,8,,,,,,,,3,,,79,43
29952,note_on,844,0,9,,,,,,,,3,,,76,43
29952,note_on,1,0,6,,,,,,,,2,,,67,64
29952,note_on,0,0,6,,,,,,,,2,,,60,64
29952,note_on,844,0,10,,,,,,,,3,,,60,43
29964,note_on,12,0,5,,,,,,,,2,,,76,0
29964,note_on,0,0,5,,,,,,,,2,,,78,64
29976,note_on,0,0,5,,,,,,,,2,,,79,64
29976,note_on,12,0,5,,,,,,,,2,,,78,0
30041,note_on,89,0,8,,,,,,,,3,,,79,0
30041,note_on,89,0,6,,,,,,,,2,,,60,0
30041,note_on,89,0,9,,,,,,,,3,,,76,0
30041,note_on,0,0,6,,,,,,,,2,,,67,0
30041,note_on,89,0,10,,,,,,,,3,,,60,0
30043,note_on,67,0,5,,,,,,,,2,,,79,0
30048,note_on,7,0,8,,,,,,,,3,,,76,43
30048,note_on,7,0,9,,,,,,,,3,,,72,43
30048,note_on,5,0,5,,,,,,,,2,,,78,64
30054,note_on,0,0,5,,,,,,,,2,,,76,64
30054,note_on,6,0,5,,,,,,,,2,,,78,0
30093,note_on,39,0,5,,,,,,,,2,,,76,0
30093,note_on,45,0,9,,,,,,,,3,,,72,0
30093,note_on,45,0,8,,,,,,,,3,,,76,0
30096,note_on,3,0,5,,,,,,,,2,,,74,64
30119,note_on,23,0,5,,,,,,,,2,,,74,0
30120,note_on,1,0,5,,,,,,,,2,,,72,64
30143,note_on,23,0,5,,,,,,,,2,,,72,0
30144,note_on,51,0,9,,,,,,,,3,,,72,43
30144,note_on,1,0,5,,,,,,,,2,,,72,64
30144,note_on,103,0,10,,,,,,,,3,,,60,43
30144,note_on,103,0,6,,,,,,,,2,,,64,64
30144,note_on,0,0,6,,,,,,,,2,,,60,64
30144,note_on,51,0,8,,,,,,,,3,,,76,43
30156,note_on,12,0,5,,,,,,,,2,,,72,0
30156,note_on,0,0,5,,,,,,,,2,,,74,64
30168,note_on,0,0,5,,,,,,,,2,,,76,64
30168,note_on,12,0,5,,,,,,,,2,,,74,0
30233,note_on,0,0,6,,,,,,,,2,,,64,0
30233,note_on,89,0,6,,,,,,,,2,,,60,0
30233,note_on,89,0,8,,,,,,,,3,,,76,0
30233,note_on,89,0,9,,,,,,,,3,,,72,0
30233,note_on,89,0,10,,,,,,,,3,,,60,0
30235,note_on,67,0,5,,,,,,,,2,,,76,0
30240,note_on,5,0,5,,,,,,,,2,,,74,64
30240,note_on,7,0,9,,,,,,,,3,,,69,43
30240,note_on,7,0,8,,,,,,,,3,,,72,43
30246,note_on,6,0,5,,,,,,,,2,,,74,0
30246,note_on,0,0,5,,,,,,,,2,,,72,64
30285,note_on,39,0,5,,,,,,,,2,,,72,0
30285,note_on,45,0,9,,,,,,,,3,,,69,0
30285,note_on,45,0,8,,,,,,,,3,,,72,0
30288,note_on,3,0,5,,,,,,,,2,,,71,64
30311,note_on,23,0,5,,,,,,,,2,,,71,0
30312,note_on,1,0,5,,,,,,,,2,,,69,64
30335,note_on,23,0,5,,,,,,,,2,,,69,0
30336,note_on,1,0,5,,,,,,,,2,,,68,64
30381,note_on,45,0,5,,,,,,,,2,,,68,0
30384,note_on,3,0,5,,,,,,,,2,,,69,64
30429,note_on,45,0,5,,,,,,,,2,,,69,0
30432,note_on,147,0,8,,,,,,,,3,,,64,43
30432,note_on,3,0,5,,,,,,,,2,,,72,64
30432,note_on,6270,0,7,,,,,,,,2,,,48,85
30432,note_on,147,0,9,,,,,,,,3,,,60,43
30432,note_on,199,0,6,,,,,,,,2,,,57,64
30432,note_on,1324,0,11,,,,,,,,3,,,36,43
30432,note_on,199,0,10,,,,,,,,3,,,57,43
30477,note_on,45,0,5,,,,,,,,2,,,72,0
30480,note_on,3,0,5,,,,,,,,2,,,69,64
30521,note_on,89,0,6,,,,,,,,2,,,57,0
30521,note_on,89,0,11,,,,,,,,3,,,36,0
30521,note_on,89,0,10,,,,,,,,3,,,57,0
30521,note_on,89,0,7,,,,,,,,2,,,48,0
30521,note_on,89,0,9,,,,,,,,3,,,60,0
30521,note_on,89,0,8,,,,,,,,3,,,64,0
30525,note_on,45,0,5,,,,,,,,2,,,69,0
30528,note_on,7,0,8,,,,,,,,3,,,67,43
30528,note_on,7,0,9,,,,,,,,3,,,59,43
30528,note_on,7,0,6,,,,,,,,2,,,59,64
30528,note_on,3,0,5,,,,,,,,2,,,67,64
30528,note_on,7,0,10,,,,,,,,3,,,62,43
30528,note_on,7,0,7,,,,,,,,2,,,50,85
30528,note_on,7,0,11,,,,,,,,3,,,38,43
30617,note_on,89,0,5,,,,,,,,2,,,67,0
30617,note_on,89,0,8,,,,,,,,3,,,67,0
30617,note_on,89,0,9,,,,,,,,3,,,59,0
30617,note_on,89,0,10,,,,,,,,3,,,62,0
30617,note_on,89,0,6,,,,,,,,2,,,59,0
30624,note_on,7,0,9,,,,,,,,3,,,62,43
30624,note_on,7,0,10,,,,,,,,3,,,54,43
30624,note_on,7,0,6,,,,,,,,2,,,54,64
30624,note_on,7,0,8,,,,,,,,3,,,71,43
30624,note_on,7,0,5,,,,,,,,2,,,71,64
30630,note_on,0,0,5,,,,,,,,2,,,69,64
30630,note_on,6,0,9,,,,,,,,3,,,62,0
30630,note_on,0,0,9,,,,,,,,3,,,60,43
30630,note_on,6,0,8,,,,,,,,3,,,71,0
30630,note_on,0,0,8,,,,,,,,3,,,69,43
30630,note_on,6,0,5,,,,,,,,2,,,71,0
30705,note_on,177,0,7,,,,,,,,2,,,50,0
30705,note_on,177,0,11,,,,,,,,3,,,38,0
30713,note_on,89,0,10,,,,,,,,3,,,54,0
30713,note_on,83,0,8,,,,,,,,3,,,69,0
30713,note_on,83,0,5,,,,,,,,2,,,69,0
30713,note_on,83,0,9,,,,,,,,3,,,60,0
30713,note_on,89,0,6,,,,,,,,2,,,54,0
30720,note_on,7,0,8,,,,,,,,3,,,67,43
30720,note_on,7,0,5,,,,,,,,2,,,67,64
30720,note_on,1612,0,1,,,,,,,,0,,,79,49
30720,note_on,15,0,11,,,,,,,,3,,,31,43
30720,note_on,0,0,1,,,,,,,,0,,,67,49
30720,note_on,7,0,6,,,,,,,,2,,,55,64
30720,note_on,7,0,9,,,,,,,,3,,,59,43
30720,note_on,7,0,10,,,,,,,,3,,,55,43
30743,note_on,23,0,5,,,,,,,,2,,,67,0
30744,note_on,1,0,5,,,,,,,,2,,,79,64
30767,note_on,23,0,5,,,,,,,,2,,,79,0
30768,note_on,1,0,5,,,,,,,,2,,,78,64
30791,note_on,23,0,5,,,,,,,,2,,,78,0
30792,note_on,1,0,5,,,,,,,,2,,,79,64
30809,note_on,89,0,6,,,,,,,,2,,,55,0
30809,note_on,89,0,9,,,,,,,,3,,,59,0
30809,note_on,89,0,11,,,,,,,,3,,,31,0
30809,note_on,89,0,10,,,,,,,,3,,,55,0
30809,note_on,89,0,8,,,,,,,,3,,,67,0
30815,note_on,23,0,5,,,,,,,,2,,,79,0
30816,note_on,1,0,5,,,,,,,,2,,,81,64
30839,note_on,23,0,5,,,,,,,,2,,,81,0
30840,note_on,1,0,5,,,,,,,,2,,,79,64
30863,note_on,23,0,5,,,,,,,,2,,,79,0
30864,note_on,1,0,5,,,,,,,,2,,,78,64
30887,note_on,23,0,5,,,,,,,,2,,,78,0
30888,note_on,1,0,5,,,,,,,,2,,,79,64
30911,note_on,23,0,5,,,,,,,,2,,,79,0
30912,note_on,1,0,5,,,,,,,,2,,,83,64
30935,note_on,23,0,5,,,,,,,,2,,,83,0
30936,note_on,1,0,5,,,,,,,,2,,,79,64
30959,note_on,23,0,5,,,,,,,,2,,,79,0
30960,note_on,1,0,5,,,,,,,,2,,,78,64
30983,note_on,23,0,5,,,,,,,,2,,,78,0
30984,note_on,1,0,5,,,,,,,,2,,,79,64
31007,note_on,23,0,5,,,,,,,,2,,,79,0
31008,note_on,1,0,5,,,,,,,,2,,,74,64
31008,note_on,199,0,9,,,,,,,,3,,,74,43
31008,note_on,199,0,8,,,,,,,,3,,,79,43
31008,note_on,199,0,10,,,,,,,,3,,,71,43
31008,note_on,199,0,6,,,,,,,,2,,,71,85
31028,note_on,20,0,9,,,,,,,,3,,,74,0
31028,note_on,20,0,10,,,,,,,,3,,,71,0
31028,note_on,20,0,6,,,,,,,,2,,,71,0
31028,note_on,20,0,8,,,,,,,,3,,,79,0
31031,note_on,23,0,5,,,,,,,,2,,,74,0
31032,note_on,1,0,5,,,,,,,,2,,,79,64
31055,note_on,23,0,5,,,,,,,,2,,,79,0
31056,note_on,28,0,8,,,,,,,,3,,,79,43
31056,note_on,28,0,6,,,,,,,,2,,,72,85
31056,note_on,1,0,5,,,,,,,,2,,,76,64
31056,note_on,28,0,9,,,,,,,,3,,,76,43
31056,note_on,28,0,10,,,,,,,,3,,,72,43
31076,note_on,20,0,10,,,,,,,,3,,,72,0
31076,note_on,20,0,9,,,,,,,,3,,,76,0
31076,note_on,20,0,6,,,,,,,,2,,,72,0
31076,note_on,20,0,8,,,,,,,,3,,,79,0
31079,note_on,23,0,5,,,,,,,,2,,,76,0
31080,note_on,1,0,5,,,,,,,,2,,,79,64
31103,note_on,23,0,5,,,,,,,,2,,,79,0
31104,note_on,28,0,10,,,,,,,,3,,,71,43
31104,note_on,28,0,8,,,,,,,,3,,,79,43
31104,note_on,28,0,6,,,,,,,,2,,,71,64
31104,note_on,28,0,9,,,,,,,,3,,,74,43
31104,note_on,1,0,5,,,,,,,,2,,,74,64
31127,note_on,23,0,5,,,,,,,,2,,,74,0
31128,note_on,1,0,5,,,,,,,,2,,,79,66
31151,note_on,23,0,5,,,,,,,,2,,,79,0
31152,note_on,1,0,5,,,,,,,,2,,,78,69
31175,note_on,23,0,5,,,,,,,,2,,,78,0
31176,note_on,1,0,5,,,,,,,,2,,,79,71
31193,note_on,89,0,8,,,,,,,,3,,,79,0
31193,note_on,89,0,6,,,,,,,,2,,,71,0
31193,note_on,89,0,9,,,,,,,,3,,,74,0
31193,note_on,89,0,10,,,,,,,,3,,,71,0
31199,note_on,23,0,5,,,,,,,,2,,,79,0
31200,note_on,1,0,5,,,,,,,,2,,,81,74
31223,note_on,23,0,5,,,,,,,,2,,,81,0
31224,note_on,1,0,5,,,,,,,,2,,,79,77
31247,note_on,23,0,5,,,,,,,,2,,,79,0
31248,note_on,1,0,5,,,,,,,,2,,,78,79
31271,note_on,23,0,5,,,,,,,,2,,,78,0
31272,note_on,1,0,5,,,,,,,,2,,,79,82
31295,note_on,23,0,5,,,,,,,,2,,,79,0
31296,note_on,1,0,5,,,,,,,,2,,,83,85
31319,note_on,23,0,5,,,,,,,,2,,,83,0
31320,note_on,1,0,5,,,,,,,,2,,,79,82
31343,note_on,23,0,5,,,,,,,,2,,,79,0
31344,note_on,1,0,5,,,,,,,,2,,,78,79
31367,note_on,23,0,5,,,,,,,,2,,,78,0
31368,note_on,1,0,5,,,,,,,,2,,,79,77
31391,note_on,23,0,5,,,,,,,,2,,,79,0
31392,note_on,199,0,10,,,,,,,,3,,,62,43
31392,note_on,199,0,8,,,,,,,,3,,,79,43
31392,note_on,199,0,6,,,,,,,,2,,,62,85
31392,note_on,199,0,9,,,,,,,,3,,,71,43
31392,note_on,1,0,5,,,,,,,,2,,,74,74
31412,note_on,20,0,9,,,,,,,,3,,,71,0
31412,note_on,20,0,6,,,,,,,,2,,,62,0
31412,note_on,20,0,8,,,,,,,,3,,,79,0
31412,note_on,20,0,10,,,,,,,,3,,,62,0
31415,note_on,23,0,5,,,,,,,,2,,,74,0
31416,note_on,1,0,5,,,,,,,,2,,,79,71
31439,note_on,23,0,5,,,,,,,,2,,,79,0
31440,note_on,1,0,5,,,,,,,,2,,,76,69
31440,note_on,28,0,8,,,,,,,,3,,,79,43
31440,note_on,28,0,10,,,,,,,,3,,,64,43
31440,note_on,28,0,6,,,,,,,,2,,,64,85
31440,note_on,28,0,9,,,,,,,,3,,,72,43
31460,note_on,20,0,9,,,,,,,,3,,,72,0
31460,note_on,20,0,8,,,,,,,,3,,,79,0
31460,note_on,20,0,10,,,,,,,,3,,,64,0
31460,note_on,20,0,6,,,,,,,,2,,,64,0
31463,note_on,23,0,5,,,,,,,,2,,,76,0
31464,note_on,1,0,5,,,,,,,,2,,,79,66
31487,note_on,23,0,5,,,,,,,,2,,,79,0
31488,note_on,0,0,3,,,,,,,,1,,,55,49
31488,note_on,28,0,6,,,,,,,,2,,,62,64
31488,note_on,28,0,8,,,,,,,,3,,,79,43
31488,note_on,1,0,5,,,,,,,,2,,,67,64
31488,note_on,28,0,9,,,,,,,,3,,,71,43
31488,note_on,28,0,10,,,,,,,,3,,,62,43
31488,note_on,2334,0,3,,,,,,,,1,,,67,49
31511,note_on,23,0,5,,,,,,,,2,,,67,0
31512,note_on,1,0,5,,,,,,,,2,,,79,66
31535,note_on,23,0,5,,,,,,,,2,,,79,0
31536,note_on,1,0,5,,,,,,,,2,,,78,69
31559,note_on,23,0,5,,,,,,,,2,,,78,0
31560,note_on,1,0,5,,,,,,,,2,,,79,71
31577,note_on,89,0,10,,,,,,,,3,,,62,0
31577,note_on,89,0,9,,,,,,,,3,,,71,0
31577,note_on,89,0,6,,,,,,,,2,,,62,0
31577,note_on,89,0,8,,,,,,,,3,,,79,0
31583,note_on,23,0,5,,,,,,,,2,,,79,0
31584,note_on,1,0,5,,,,,,,,2,,,81,74
31607,note_on,23,0,5,,,,,,,,2,,,81,0
31608,note_on,1,0,5,,,,,,,,2,,,79,77
31631,note_on,23,0,5,,,,,,,,2,,,79,0
31632,note_on,1,0,5,,,,,,,,2,,,78,79
31655,note_on,23,0,5,,,,,,,,2,,,78,0
31656,note_on,1,0,5,,,,,,,,2,,,79,82
31679,note_on,23,0,5,,,,,,,,2,,,79,0
31680,note_on,1,0,5,,,,,,,,2,,,83,85
31703,note_on,23,0,5,,,,,,,,2,,,83,0
31704,note_on,1,0,5,,,,,,,,2,,,79,82
31727,note_on,23,0,5,,,,,,,,2,,,79,0
31728,note_on,1,0,5,,,,,,,,2,,,78,79
31751,note_on,23,0,5,,,,,,,,2,,,78,0
31752,note_on,1,0,5,,,,,,,,2,,,79,77
31775,note_on,23,0,5,,,,,,,,2,,,79,0
31776,note_on,199,0,10,,,,,,,,3,,,59,43
31776,note_on,199,0,8,,,,,,,,3,,,79,43
31776,note_on,199,0,9,,,,,,,,3,,,69,43
31776,note_on,1,0,5,,,,,,,,2,,,74,74
31776,note_on,199,0,6,,,,,,,,2,,,59,64
31796,note_on,20,0,8,,,,,,,,3,,,79,0
31796,note_on,20,0,6,,,,,,,,2,,,59,0
31796,note_on,20,0,10,,,,,,,,3,,,59,0
31796,note_on,20,0,9,,,,,,,,3,,,69,0
31799,note_on,23,0,5,,,,,,,,2,,,74,0
31800,note_on,1,0,5,,,,,,,,2,,,79,71
31823,note_on,23,0,5,,,,,,,,2,,,79,0
31824,note_on,28,0,9,,,,,,,,3,,,71,43
31824,note_on,28,0,6,,,,,,,,2,,,60,64
31824,note_on,28,0,10,,,,,,,,3,,,60,43
31824,note_on,28,0,8,,,,,,,,3,,,79,43
31824,note_on,1,0,5,,,,,,,,2,,,76,69
31844,note_on,20,0,10,,,,,,,,3,,,60,0
31844,note_on,20,0,8,,,,,,,,3,,,79,0
31844,note_on,20,0,9,,,,,,,,3,,,71,0
31844,note_on,20,0,6,,,,,,,,2,,,60,0
31847,note_on,23,0,5,,,,,,,,2,,,76,0
31848,note_on,1,0,5,,,,,,,,2,,,79,66
31871,note_on,23,0,5,,,,,,,,2,,,79,0
31872,note_on,28,0,10,,,,,,,,3,,,59,43
31872,note_on,28,0,8,,,,,,,,3,,,79,43
31872,note_on,28,0,9,,,,,,,,3,,,69,43
31872,note_on,28,0,6,,,,,,,,2,,,59,64
31872,note_on,1,0,5,,,,,,,,2,,,74,64
31895,note_on,23,0,6,,,,,,,,2,,,59,0
31896,note_on,1,0,6,,,,,,,,2,,,67,64
31919,note_on,23,0,6,,,,,,,,2,,,67,0
31920,note_on,1,0,6,,,,,,,,2,,,62,64
31943,note_on,23,0,6,,,,,,,,2,,,62,0
31944,note_on,1,0,6,,,,,,,,2,,,67,64
31961,note_on,89,0,8,,,,,,,,3,,,79,0
31961,note_on,0,0,1,,,,,,,,0,,,79,0
31961,note_on,0,0,3,,,,,,,,1,,,67,0
31961,note_on,89,0,9,,,,,,,,3,,,69,0
31961,note_on,89,0,5,,,,,,,,2,,,74,0
31961,note_on,473,0,3,,,,,,,,1,,,55,0
31961,note_on,89,0,10,,,,,,,,3,,,59,0
31961,note_on,1241,0,1,,,,,,,,0,,,67,0
31967,note_on,23,0,6,,,,,,,,2,,,67,0
31968,note_on,1,0,6,,,,,,,,2,,,59,64
31968,note_on,7,0,5,,,,,,,,2,,,86,85
31991,note_on,23,0,6,,,,,,,,2,,,59,0
31992,note_on,1,0,6,,,,,,,,2,,,67,64
32015,note_on,23,0,6,,,,,,,,2,,,67,0
32016,note_on,1,0,6,,,,,,,,2,,,62,64
32039,note_on,23,0,6,,,,,,,,2,,,62,0
32040,note_on,1,0,6,,,,,,,,2,,,67,64
32057,note_on,89,0,5,,,,,,,,2,,,86,0
32063,note_on,23,0,6,,,,,,,,2,,,67,0
32064,note_on,7,0,5,,,,,,,,2,,,84,64
32064,note_on,1,0,6,,,,,,,,2,,,59,64
32070,note_on,6,0,5,,,,,,,,2,,,84,0
32070,note_on,0,0,5,,,,,,,,2,,,83,64
32087,note_on,23,0,6,,,,,,,,2,,,59,0
32088,note_on,1,0,6,,,,,,,,2,,,67,64
32111,note_on,23,0,6,,,,,,,,2,,,67,0
32112,note_on,1,0,6,,,,,,,,2,,,62,64
32135,note_on,23,0,6,,,,,,,,2,,,62,0
32136,note_on,1,0,6,,,,,,,,2,,,67,64
32153,note_on,83,0,5,,,,,,,,2,,,83,0
32159,note_on,23,0,6,,,,,,,,2,,,67,0
32160,note_on,7,0,5,,,,,,,,2,,,81,64
32160,note_on,1,0,6,,,,,,,,2,,,59,64
32166,note_on,6,0,5,,,,,,,,2,,,81,0
32166,note_on,0,0,5,,,,,,,,2,,,79,64
32183,note_on,23,0,6,,,,,,,,2,,,59,0
32184,note_on,1,0,6,,,,,,,,2,,,67,64
32207,note_on,23,0,6,,,,,,,,2,,,67,0
32208,note_on,1,0,6,,,,,,,,2,,,62,64
32231,note_on,23,0,6,,,,,,,,2,,,62,0
32232,note_on,1,0,6,,,,,,,,2,,,67,64
32249,note_on,83,0,5,,,,,,,,2,,,79,0
32255,note_on,23,0,6,,,,,,,,2,,,67,0
32256,note_on,295,0,10,,,,,,,,3,,,60,43
32256,note_on,295,0,9,,,,,,,,3,,,71,43
32256,note_on,295,0,8,,,,,,,,3,,,76,43
32256,note_on,1,0,6,,,,,,,,2,,,60,64
32256,note_on,7,0,5,,,,,,,,2,,,78,64
32262,note_on,0,0,5,,,,,,,,2,,,76,64
32262,note_on,6,0,5,,,,,,,,2,,,78,0
32279,note_on,23,0,6,,,,,,,,2,,,60,0
32280,note_on,1,0,6,,,,,,,,2,,,67,64
32303,note_on,23,0,6,,,,,,,,2,,,67,0
32304,note_on,1,0,6,,,,,,,,2,,,64,64
32327,note_on,23,0,6,,,,,,,,2,,,64,0
32328,note_on,1,0,6,,,,,,,,2,,,67,64
32345,note_on,89,0,8,,,,,,,,3,,,76,0
32345,note_on,83,0,5,,,,,,,,2,,,76,0
32345,note_on,89,0,10,,,,,,,,3,,,60,0
32345,note_on,89,0,9,,,,,,,,3,,,71,0
32351,note_on,23,0,6,,,,,,,,2,,,67,0
32352,note_on,7,0,5,,,,,,,,2,,,76,64
32352,note_on,1,0,6,,,,,,,,2,,,60,64
32375,note_on,23,0,6,,,,,,,,2,,,60,0
32376,note_on,1,0,6,,,,,,,,2,,,67,64
32399,note_on,23,0,6,,,,,,,,2,,,67,0
32400,note_on,1,0,6,,,,,,,,2,,,64,64
32423,note_on,23,0,6,,,,,,,,2,,,64,0
32424,note_on,1,0,6,,,,,,,,2,,,67,64
32447,note_on,23,0,6,,,,,,,,2,,,67,0
32448,note_on,1,0,6,,,,,,,,2,,,48,64
32471,note_on,23,0,6,,,,,,,,2,,,48,0
32472,note_on,1,0,6,,,,,,,,2,,,55,64
32485,note_on,133,0,5,,,,,,,,2,,,76,0
32495,note_on,23,0,6,,,,,,,,2,,,55,0
32496,note_on,1,0,6,,,,,,,,2,,,52,64
32496,note_on,11,0,5,,,,,,,,2,,,79,64
32519,note_on,23,0,6,,,,,,,,2,,,52,0
32520,note_on,1,0,6,,,,,,,,2,,,55,64
32541,note_on,45,0,5,,,,,,,,2,,,79,0
32543,note_on,23,0,6,,,,,,,,2,,,55,0
32544,note_on,1,0,6,,,,,,,,2,,,48,64
32544,note_on,3,0,5,,,,,,,,2,,,78,64
32567,note_on,23,0,6,,,,,,,,2,,,48,0
32568,note_on,1,0,6,,,,,,,,2,,,57,64
32589,note_on,45,0,5,,,,,,,,2,,,78,0
32591,note_on,23,0,6,,,,,,,,2,,,57,0
32592,note_on,1,0,6,,,,,,,,2,,,52,64
32592,note_on,3,0,5,,,,,,,,2,,,76,64
32615,note_on,23,0,6,,,,,,,,2,,,52,0
32616,note_on,1,0,6,,,,,,,,2,,,57,64
32637,note_on,45,0,5,,,,,,,,2,,,76,0
32639,note_on,23,0,6,,,,,,,,2,,,57,0
32640,note_on,295,0,8,,,,,,,,3,,,71,43
32640,note_on,295,0,9,,,,,,,,3,,,67,43
32640,note_on,1,0,6,,,,,,,,2,,,59,64
32640,note_on,295,0,10,,,,,,,,3,,,62,43
32640,note_on,3,0,5,,,,,,,,2,,,74,64
32685,note_on,45,0,10,,,,,,,,3,,,62,0
32685,note_on,45,0,8,,,,,,,,3,,,71,0
32685,note_on,45,0,5,,,,,,,,2,,,74,0
32685,note_on,45,0,6,,,,,,,,2,,,59,0
32685,note_on,45,0,9,,,,,,,,3,,,67,0
32688,note_on,3,0,9,,,,,,,,3,,,67,43
32688,note_on,3,0,8,,,,,,,,3,,,71,43
32688,note_on,3,0,5,,,,,,,,2,,,76,64
32688,note_on,3,0,6,,,,,,,,2,,,59,64
32688,note_on,3,0,10,,,,,,,,3,,,62,43
32711,note_on,23,0,5,,,,,,,,2,,,76,0
32712,note_on,1,0,5,,,,,,,,2,,,74,64
32733,note_on,45,0,8,,,,,,,,3,,,71,0
32733,note_on,45,0,10,,,,,,,,3,,,62,0
32733,note_on,45,0,6,,,,,,,,2,,,59,0
32733,note_on,45,0,9,,,,,,,,3,,,67,0
32735,note_on,23,0,5,,,,,,,,2,,,74,0
32736,note_on,3,0,8,,,,,,,,3,,,71,43
32736,note_on,3,0,10,,,,,,,,3,,,62,43
32736,note_on,3,0,6,,,,,,,,2,,,55,64
32736,note_on,1,0,5,,,,,,,,2,,,72,64
32736,note_on,3,0,9,,,,,,,,3,,,67,43
32759,note_on,23,0,5,,,,,,,,2,,,72,0
32760,note_on,1,0,5,,,,,,,,2,,,71,64
32781,note_on,45,0,6,,,,,,,,2,,,55,0
32781,note_on,45,0,10,,,,,,,,3,,,62,0
32781,note_on,45,0,8,,,,,,,,3,,,71,0
32781,note_on,45,0,9,,,,,,,,3,,,67,0
32783,note_on,23,0,5,,,,,,,,2,,,71,0
32784,note_on,3,0,8,,,,,,,,3,,,71,43
32784,note_on,3,0,10,,,,,,,,3,,,62,43
32784,note_on,3,0,9,,,,,,,,3,,,67,43
32784,note_on,1,0,5,,,,,,,,2,,,69,64
32784,note_on,3,0,6,,,,,,,,2,,,55,64
32807,note_on,23,0,5,,,,,,,,2,,,69,0
32808,note_on,1,0,5,,,,,,,,2,,,67,64
32829,note_on,45,0,9,,,,,,,,3,,,67,0
32829,note_on,45,0,6,,,,,,,,2,,,55,0
32829,note_on,45,0,8,,,,,,,,3,,,71,0
32829,note_on,45,0,10,,,,,,,,3,,,62,0
32831,note_on,23,0,5,,,,,,,,2,,,67,0
32832,note_on,3,0,6,,,,,,,,2,,,55,64
32832,note_on,3,0,8,,,,,,,,3,,,69,43
32832,note_on,3,0,10,,,,,,,,3,,,62,43
32832,note_on,3,0,9,,,,,,,,3,,,67,43
32832,note_on,1,0,5,,,,,,,,2,,,69,64
32844,note_on,12,0,5,,,,,,,,2,,,69,0
32844,note_on,0,0,5,,,,,,,,2,,,71,64
32856,note_on,12,0,5,,,,,,,,2,,,71,0
32856,note_on,0,0,5,,,,,,,,2,,,69,64
32868,note_on,12,0,5,,,,,,,,2,,,69,0
32868,note_on,0,0,5,,,,,,,,2,,,71,64
32877,note_on,45,0,9,,,,,,,,3,,,67,0
32877,note_on,45,0,8,,,,,,,,3,,,69,0
32877,note_on,45,0,6,,,,,,,,2,,,55,0
32877,note_on,45,0,10,,,,,,,,3,,,62,0
32880,note_on,0,0,5,,,,,,,,2,,,69,64
32880,note_on,3,0,6,,,,,,,,2,,,55,64
32880,note_on,3,0,9,,,,,,,,3,,,67,43
32880,note_on,3,0,10,,,,,,,,3,,,62,43
32880,note_on,3,0,8,,,,,,,,3,,,69,43
32880,note_on,12,0,5,,,,,,,,2,,,71,0
32892,note_on,12,0,5,,,,,,,,2,,,69,0
32892,note_on,0,0,5,,,,,,,,2,,,71,64
32904,note_on,12,0,5,,,,,,,,2,,,71,0
32904,note_on,0,0,5,,,,,,,,2,,,69,64
32916,note_on,12,0,5,,,,,,,,2,,,69,0
32916,note_on,0,0,5,,,,,,,,2,,,71,64
32925,note_on,45,0,9,,,,,,,,3,,,67,0
32925,note_on,45,0,6,,,,,,,,2,,,55,0
32925,note_on,45,0,8,,,,,,,,3,,,69,0
32925,note_on,45,0,10,,,,,,,,3,,,62,0
32928,note_on,0,0,5,,,,,,,,2,,,69,64
32928,note_on,12,0,5,,,,,,,,2,,,71,0
32928,note_on,3,0,8,,,,,,,,3,,,69,43
32928,note_on,3,0,10,,,,,,,,3,,,62,43
32928,note_on,3,0,6,,,,,,,,2,,,54,64
32928,note_on,3,0,9,,,,,,,,3,,,66,43
32940,note_on,0,0,5,,,,,,,,2,,,71,64
32940,note_on,12,0,5,,,,,,,,2,,,69,0
32952,note_on,0,0,5,,,,,,,,2,,,69,64
32952,note_on,12,0,5,,,,,,,,2,,,71,0
32964,note_on,0,0,5,,,,,,,,2,,,71,64
32964,note_on,12,0,5,,,,,,,,2,,,69,0
32973,note_on,45,0,10,,,,,,,,3,,,62,0
32973,note_on,45,0,9,,,,,,,,3,,,66,0
32973,note_on,45,0,6,,,,,,,,2,,,54,0
32973,note_on,45,0,8,,,,,,,,3,,,69,0
32976,note_on,3,0,8,,,,,,,,3,,,69,43
32976,note_on,3,0,9,,,,,,,,3,,,66,43
32976,note_on,3,0,6,,,,,,,,2,,,54,64
32976,note_on,3,0,10,,,,,,,,3,,,62,43
32976,note_on,12,0,5,,,,,,,,2,,,71,0
32976,note_on,0,0,5,,,,,,,,2,,,69,64
32988,note_on,12,0,5,,,,,,,,2,,,69,0
32988,note_on,0,0,5,,,,,,,,2,,,71,64
33000,note_on,0,0,5,,,,,,,,2,,,69,64
33000,note_on,12,0,5,,,,,,,,2,,,71,0
33009,note_on,9,0,5,,,,,,,,2,,,69,0
33021,note_on,45,0,8,,,,,,,,3,,,69,0
33021,note_on,45,0,9,,,,,,,,3,,,66,0
33021,note_on,45,0,10,,,,,,,,3,,,62,0
33021,note_on,45,0,6,,,,,,,,2,,,54,0
33024,note_on,3,0,8,,,,,,,,3,,,71,43
33024,note_on,3,0,9,,,,,,,,3,,,67,43
33024,note_on,2215,0,11,,,,,,,,3,,,43,43
33024,note_on,3,0,10,,,,,,,,3,,,62,43
33024,note_on,3,0,6,,,,,,,,2,,,55,64
33024,note_on,15,0,5,,,,,,,,2,,,71,72
33047,note_on,23,0,5,,,,,,,,2,,,71,0
33048,note_on,1,0,5,,,,,,,,2,,,67,73
33063,note_on,39,0,8,,,,,,,,3,,,71,0
33063,note_on,39,0,11,,,,,,,,3,,,43,0
33063,note_on,39,0,10,,,,,,,,3,,,62,0
33063,note_on,39,0,9,,,,,,,,3,,,67,0
33071,note_on,23,0,5,,,,,,,,2,,,67,0
33072,note_on,1,0,5,,,,,,,,2,,,69,75
33095,note_on,23,0,5,,,,,,,,2,,,69,0
33096,note_on,1,0,5,,,,,,,,2,,,71,76
33113,note_on,89,0,6,,,,,,,,2,,,55,0
33119,note_on,23,0,5,,,,,,,,2,,,71,0
33120,note_on,57,0,8,,,,,,,,3,,,69,43
33120,note_on,1,0,5,,,,,,,,2,,,72,77
33120,note_on,57,0,10,,,,,,,,3,,,60,43
33120,note_on,57,0,11,,,,,,,,3,,,45,43
33120,note_on,7,0,6,,,,,,,,2,,,57,71
33120,note_on,57,0,9,,,,,,,,3,,,66,43
33143,note_on,23,0,5,,,,,,,,2,,,72,0
33144,note_on,1,0,5,,,,,,,,2,,,74,78
33159,note_on,39,0,10,,,,,,,,3,,,60,0
33159,note_on,39,0,11,,,,,,,,3,,,45,0
33159,note_on,39,0,9,,,,,,,,3,,,66,0
33159,note_on,39,0,8,,,,,,,,3,,,69,0
33159,note_on,39,0,6,,,,,,,,2,,,57,0
33167,note_on,23,0,5,,,,,,,,2,,,74,0
33168,note_on,1,0,5,,,,,,,,2,,,76,79
33191,note_on,23,0,5,,,,,,,,2,,,76,0
33192,note_on,1,0,5,,,,,,,,2,,,78,80
33215,note_on,23,0,5,,,,,,,,2,,,78,0
33216,note_on,57,0,10,,,,,,,,3,,,62,43
33216,note_on,57,0,8,,,,,,,,3,,,67,43
33216,note_on,57,0,9,,,,,,,,3,,,64,43
33216,note_on,57,0,6,,,,,,,,2,,,59,78
33216,note_on,57,0,11,,,,,,,,3,,,47,43
33216,note_on,1,0,5,,,,,,,,2,,,79,81
33239,note_on,23,0,5,,,,,,,,2,,,79,0
33240,note_on,1,0,5,,,,,,,,2,,,81,82
33255,note_on,39,0,6,,,,,,,,2,,,59,0
33255,note_on,39,0,8,,,,,,,,3,,,67,0
33255,note_on,39,0,10,,,,,,,,3,,,62,0
33255,note_on,39,0,11,,,,,,,,3,,,47,0
33255,note_on,39,0,9,,,,,,,,3,,,64,0
33263,note_on,23,0,5,,,,,,,,2,,,81,0
33264,note_on,1,0,5,,,,,,,,2,,,83,83
33287,note_on,23,0,5,,,,,,,,2,,,83,0
33288,note_on,1,0,5,,,,,,,,2,,,84,85
33311,note_on,23,0,5,,,,,,,,2,,,84,0
33312,note_on,1,0,5,,,,,,,,2,,,86,80
33357,note_on,45,0,5,,,,,,,,2,,,86,0
33360,note_on,3,0,5,,,,,,,,2,,,77,72
33405,note_on,45,0,5,,,,,,,,2,,,77,0
33408,note_on,0,0,10,,,,,,,,3,,,60,43
33408,note_on,153,0,10,,,,,,,,3,,,64,43
33408,note_on,3,0,5,,,,,,,,2,,,76,64
33408,note_on,153,0,6,,,,,,,,2,,,64,64
33408,note_on,153,0,11,,,,,,,,3,,,48,43
33408,note_on,153,0,9,,,,,,,,3,,,56,43
33408,note_on,153,0,8,,,,,,,,3,,,68,43
33408,note_on,0,0,6,,,,,,,,2,,,60,64
33414,note_on,6,0,8,,,,,,,,3,,,68,0
33414,note_on,0,0,8,,,,,,,,3,,,69,43
33414,note_on,0,0,9,,,,,,,,3,,,57,43
33414,note_on,6,0,9,,,,,,,,3,,,56,0
33431,note_on,23,0,5,,,,,,,,2,,,76,0
33432,note_on,1,0,5,,,,,,,,2,,,81,65
33453,note_on,39,0,9,,,,,,,,3,,,57,0
33453,note_on,39,0,8,,,,,,,,3,,,69,0
33455,note_on,23,0,5,,,,,,,,2,,,81,0
33456,note_on,1,0,5,,,,,,,,2,,,78,66
33479,note_on,23,0,5,,,,,,,,2,,,78,0
33480,note_on,1,0,5,,,,,,,,2,,,79,67
33497,note_on,89,0,6,,,,,,,,2,,,60,0
33497,note_on,0,0,6,,,,,,,,2,,,64,0
33503,note_on,23,0,5,,,,,,,,2,,,79,0
33504,note_on,7,0,6,,,,,,,,2,,,64,69
33504,note_on,0,0,6,,,,,,,,2,,,60,69
33504,note_on,1,0,5,,,,,,,,2,,,81,69
33504,note_on,51,0,8,,,,,,,,3,,,71,43
33504,note_on,51,0,9,,,,,,,,3,,,59,43
33510,note_on,0,0,8,,,,,,,,3,,,72,43
33510,note_on,6,0,9,,,,,,,,3,,,59,0
33510,note_on,0,0,9,,,,,,,,3,,,60,43
33510,note_on,6,0,8,,,,,,,,3,,,71,0
33527,note_on,23,0,5,,,,,,,,2,,,81,0
33528,note_on,1,0,5,,,,,,,,2,,,79,70
33549,note_on,39,0,9,,,,,,,,3,,,60,0
33549,note_on,39,0,8,,,,,,,,3,,,72,0
33551,note_on,23,0,5,,,,,,,,2,,,79,0
33552,note_on,1,0,5,,,,,,,,2,,,78,71
33575,note_on,23,0,5,,,,,,,,2,,,78,0
33576,note_on,1,0,5,,,,,,,,2,,,79,73
33593,note_on,89,0,6,,,,,,,,2,,,60,0
33593,note_on,0,0,6,,,,,,,,2,,,64,0
33599,note_on,23,0,5,,,,,,,,2,,,79,0
33600,note_on,7,0,6,,,,,,,,2,,,64,74
33600,note_on,0,0,6,,,,,,,,2,,,60,74
33600,note_on,1,0,5,,,,,,,,2,,,83,74
33600,note_on,51,0,9,,,,,,,,3,,,63,43
33600,note_on,51,0,8,,,,,,,,3,,,75,43
33606,note_on,6,0,8,,,,,,,,3,,,75,0
33606,note_on,0,0,8,,,,,,,,3,,,76,43
33606,note_on,0,0,9,,,,,,,,3,,,64,43
33606,note_on,6,0,9,,,,,,,,3,,,63,0
33623,note_on,23,0,5,,,,,,,,2,,,83,0
33624,note_on,1,0,5,,,,,,,,2,,,79,75
33645,note_on,39,0,8,,,,,,,,3,,,76,0
33645,note_on,39,0,9,,,,,,,,3,,,64,0
33647,note_on,23,0,5,,,,,,,,2,,,79,0
33648,note_on,1,0,5,,,,,,,,2,,,78,77
33671,note_on,23,0,5,,,,,,,,2,,,78,0
33672,note_on,1,0,5,,,,,,,,2,,,79,78
33689,note_on,0,0,6,,,,,,,,2,,,64,0
33689,note_on,89,0,6,,,,,,,,2,,,60,0
33695,note_on,23,0,5,,,,,,,,2,,,79,0
33696,note_on,51,0,9,,,,,,,,3,,,68,43
33696,note_on,0,0,6,,,,,,,,2,,,60,79
33696,note_on,7,0,6,,,,,,,,2,,,64,79
33696,note_on,1,0,5,,,,,,,,2,,,81,79
33696,note_on,51,0,8,,,,,,,,3,,,80,43
33702,note_on,6,0,9,,,,,,,,3,,,68,0
33702,note_on,0,0,9,,,,,,,,3,,,69,43
33702,note_on,6,0,8,,,,,,,,3,,,80,0
33702,note_on,0,0,8,,,,,,,,3,,,81,43
33719,note_on,23,0,5,,,,,,,,2,,,81,0
33720,note_on,1,0,5,,,,,,,,2,,,79,81
33741,note_on,39,0,8,,,,,,,,3,,,81,0
33741,note_on,39,0,9,,,,,,,,3,,,69,0
33743,note_on,23,0,5,,,,,,,,2,,,79,0
33744,note_on,1,0,5,,,,,,,,2,,,78,82
33762,note_on,354,0,11,,,,,,,,3,,,48,0
33762,note_on,0,0,10,,,,,,,,3,,,64,0
33762,note_on,354,0,10,,,,,,,,3,,,60,0
33767,note_on,23,0,5,,,,,,,,2,,,78,0
33768,note_on,1,0,5,,,,,,,,2,,,79,83
33785,note_on,0,0,6,,,,,,,,2,,,64,0
33785,note_on,89,0,6,,,,,,,,2,,,60,0
33791,note_on,23,0,5,,,,,,,,2,,,79,0
33792,note_on,7,0,6,,,,,,,,2,,,62,64
33792,note_on,1,0,5,,,,,,,,2,,,81,85
33792,note_on,30,0,11,,,,,,,,3,,,50,43
33815,note_on,23,0,6,,,,,,,,2,,,62,0
33816,note_on,1,0,6,,,,,,,,2,,,71,64
33839,note_on,23,0,6,,,,,,,,2,,,71,0
33840,note_on,99,0,8,,,,,,,,3,,,74,43
33840,note_on,78,0,10,,,,,,,,3,,,62,43
33840,note_on,1,0,6,,,,,,,,2,,,67,64
33840,note_on,99,0,9,,,,,,,,3,,,71,43
33859,note_on,67,0,5,,,,,,,,2,,,81,0
33863,note_on,23,0,6,,,,,,,,2,,,67,0
33864,note_on,5,0,5,,,,,,,,2,,,77,85
33864,note_on,1,0,6,,,,,,,,2,,,71,64
33881,note_on,89,0,11,,,,,,,,3,,,50,0
33885,note_on,45,0,10,,,,,,,,3,,,62,0
33885,note_on,45,0,9,,,,,,,,3,,,71,0
33885,note_on,45,0,8,,,,,,,,3,,,74,0
33887,note_on,23,0,6,,,,,,,,2,,,71,0
33887,note_on,23,0,5,,,,,,,,2,,,77,0
33888,note_on,1,0,5,,,,,,,,2,,,86,85
33888,note_on,3,0,9,,,,,,,,3,,,71,43
33888,note_on,3,0,10,,,,,,,,3,,,62,43
33888,note_on,1,0,6,,,,,,,,2,,,62,64
33888,note_on,3,0,8,,,,,,,,3,,,74,43
33911,note_on,23,0,6,,,,,,,,2,,,62,0
33912,note_on,1,0,6,,,,,,,,2,,,71,64
33933,note_on,45,0,10,,,,,,,,3,,,62,0
33933,note_on,45,0,8,,,,,,,,3,,,74,0
33933,note_on,45,0,9,,,,,,,,3,,,71,0
33935,note_on,23,0,6,,,,,,,,2,,,71,0
33936,note_on,3,0,8,,,,,,,,3,,,74,43
33936,note_on,3,0,9,,,,,,,,3,,,71,43
33936,note_on,1,0,6,,,,,,,,2,,,67,64
33936,note_on,3,0,10,,,,,,,,3,,,62,43
33959,note_on,23,0,6,,,,,,,,2,,,67,0
33960,note_on,1,0,6,,,,,,,,2,,,71,64
33981,note_on,45,0,10,,,,,,,,3,,,62,0
33981,note_on,45,0,9,,,,,,,,3,,,71,0
33981,note_on,45,0,8,,,,,,,,3,,,74,0
33983,note_on,23,0,6,,,,,,,,2,,,71,0
33984,note_on,1,0,6,,,,,,,,2,,,62,64
33984,note_on,3,0,9,,,,,,,,3,,,67,43
33984,note_on,3,0,10,,,,,,,,3,,,62,43
33984,note_on,2023,0,1,,,,,,,,0,,,83,43
33984,note_on,103,0,11,,,,,,,,3,,,50,43
33984,note_on,3,0,8,,,,,,,,3,,,71,43
33984,note_on,0,0,1,,,,,,,,0,,,79,43
34007,note_on,23,0,6,,,,,,,,2,,,62,0
34008,note_on,1,0,6,,,,,,,,2,,,71,64
34029,note_on,45,0,10,,,,,,,,3,,,62,0
34029,note_on,45,0,9,,,,,,,,3,,,67,0
34029,note_on,45,0,8,,,,,,,,3,,,71,0
34031,note_on,23,0,6,,,,,,,,2,,,71,0
34032,note_on,3,0,9,,,,,,,,3,,,67,43
34032,note_on,3,0,8,,,,,,,,3,,,71,43
34032,note_on,1,0,6,,,,,,,,2,,,67,64
34032,note_on,3,0,10,,,,,,,,3,,,62,43
34055,note_on,23,0,6,,,,,,,,2,,,67,0
34056,note_on,1,0,6,,,,,,,,2,,,71,64
34065,note_on,177,0,5,,,,,,,,2,,,86,0
34073,note_on,89,0,11,,,,,,,,3,,,50,0
34077,note_on,45,0,10,,,,,,,,3,,,62,0
34077,note_on,45,0,9,,,,,,,,3,,,67,0
34077,note_on,45,0,8,,,,,,,,3,,,71,0
34079,note_on,23,0,6,,,,,,,,2,,,71,0
34080,note_on,3,0,9,,,,,,,,3,,,67,43
34080,note_on,1,0,6,,,,,,,,2,,,62,64
34080,note_on,15,0,5,,,,,,,,2,,,84,85
34080,note_on,3,0,8,,,,,,,,3,,,71,43
34080,note_on,3,0,10,,,,,,,,3,,,62,43
34086,note_on,6,0,5,,,,,,,,2,,,84,0
34086,note_on,0,0,5,,,,,,,,2,,,83,85
34103,note_on,23,0,6,,,,,,,,2,,,62,0
34104,note_on,1,0,6,,,,,,,,2,,,71,64
34125,note_on,45,0,8,,,,,,,,3,,,71,0
34125,note_on,39,0,5,,,,,,,,2,,,83,0
34125,note_on,45,0,10,,,,,,,,3,,,62,0
34125,note_on,45,0,9,,,,,,,,3,,,67,0
34127,note_on,23,0,6,,,,,,,,2,,,71,0
34128,note_on,3,0,5,,,,,,,,2,,,81,64
34128,note_on,1,0,6,,,,,,,,2,,,67,64
34128,note_on,3,0,9,,,,,,,,3,,,67,43
34128,note_on,3,0,10,,,,,,,,3,,,62,43
34128,note_on,3,0,8,,,,,,,,3,,,71,43
34151,note_on,23,0,5,,,,,,,,2,,,81,0
34151,note_on,23,0,6,,,,,,,,2,,,67,0
34152,note_on,1,0,5,,,,,,,,2,,,79,64
34152,note_on,1,0,6,,,,,,,,2,,,71,64
34161,note_on,0,0,1,,,,,,,,0,,,83,0
34161,note_on,177,0,1,,,,,,,,0,,,79,0
34173,note_on,45,0,10,,,,,,,,3,,,62,0
34173,note_on,45,0,9,,,,,,,,3,,,67,0
34173,note_on,45,0,8,,,,,,,,3,,,71,0
34175,note_on,23,0,6,,,,,,,,2,,,71,0
34175,note_on,23,0,5,,,,,,,,2,,,79,0
34176,note_on,1,0,5,,,,,,,,2,,,81,64
34176,note_on,5022,0,4,,,,,,,,1,,,71,43
34176,note_on,3,0,8,,,,,,,,3,,,72,43
34176,note_on,1,0,6,,,,,,,,2,,,62,64
34176,note_on,15,0,1,,,,,,,,0,,,84,43
34176,note_on,0,0,1,,,,,,,,0,,,78,43
34176,note_on,103,0,11,,,,,,,,3,,,38,43
34176,note_on,2215,0,3,,,,,,,,1,,,74,43
34176,note_on,3,0,10,,,,,,,,3,,,62,43
34176,note_on,3,0,9,,,,,,,,3,,,66,43
34188,note_on,0,0,5,,,,,,,,2,,,83,64
34188,note_on,12,0,5,,,,,,,,2,,,81,0
34199,note_on,23,0,9,,,,,,,,3,,,66,0
34199,note_on,23,0,6,,,,,,,,2,,,62,0
34199,note_on,23,0,8,,,,,,,,3,,,72,0
34200,note_on,1,0,9,,,,,,,,3,,,66,44
34200,note_on,1,0,8,,,,,,,,3,,,72,44
34200,note_on,1,0,6,,,,,,,,2,,,72,65
34200,note_on,0,0,5,,,,,,,,2,,,81,64
34200,note_on,12,0,5,,,,,,,,2,,,83,0
34212,note_on,0,0,5,,,,,,,,2,,,83,64
34212,note_on,12,0,5,,,,,,,,2,,,81,0
34221,note_on,45,0,10,,,,,,,,3,,,62,0
34221,note_on,45,0,11,,,,,,,,3,,,38,0
34223,note_on,23,0,9,,,,,,,,3,,,66,0
34223,note_on,23,0,8,,,,,,,,3,,,72,0
34223,note_on,23,0,6,,,,,,,,2,,,72,0
34224,note_on,1,0,8,,,,,,,,3,,,72,45
34224,note_on,1,0,6,,,,,,,,2,,,66,66
34224,note_on,12,0,5,,,,,,,,2,,,83,0
34224,note_on,0,0,5,,,,,,,,2,,,81,64
34224,note_on,1,0,9,,,,,,,,3,,,66,45
34224,note_on,3,0,10,,,,,,,,3,,,62,45
34224,note_on,3,0,11,,,,,,,,3,,,38,43
34236,note_on,0,0,5,,,,,,,,2,,,83,64
34236,note_on,12,0,5,,,,,,,,2,,,81,0
34247,note_on,23,0,8,,,,,,,,3,,,72,0
34247,note_on,23,0,9,,,,,,,,3,,,66,0
34247,note_on,23,0,6,,,,,,,,2,,,66,0
34248,note_on,1,0,9,,,,,,,,3,,,66,46
34248,note_on,0,0,5,,,,,,,,2,,,81,64
34248,note_on,12,0,5,,,,,,,,2,,,83,0
34248,note_on,1,0,8,,,,,,,,3,,,72,46
34248,note_on,1,0,6,,,,,,,,2,,,72,67
34260,note_on,0,0,5,,,,,,,,2,,,83,64
34260,note_on,12,0,5,,,,,,,,2,,,81,0
34269,note_on,45,0,10,,,,,,,,3,,,62,0
34269,note_on,45,0,11,,,,,,,,3,,,38,0
34271,note_on,23,0,6,,,,,,,,2,,,72,0
34271,note_on,23,0,8,,,,,,,,3,,,72,0
34271,note_on,23,0,9,,,,,,,,3,,,66,0
34272,note_on,1,0,9,,,,,,,,3,,,66,48
34272,note_on,3,0,11,,,,,,,,3,,,38,44
34272,note_on,1,0,6,,,,,,,,2,,,62,69
34272,note_on,1,0,8,,,,,,,,3,,,72,48
34272,note_on,12,0,5,,,,,,,,2,,,83,0
34272,note_on,0,0,5,,,,,,,,2,,,81,64
34272,note_on,3,0,10,,,,,,,,3,,,62,48
34284,note_on,12,0,5,,,,,,,,2,,,81,0
34284,note_on,0,0,5,,,,,,,,2,,,83,64
34295,note_on,23,0,6,,,,,,,,2,,,62,0
34295,note_on,23,0,9,,,,,,,,3,,,66,0
34295,note_on,23,0,8,,,,,,,,3,,,72,0
34296,note_on,1,0,6,,,,,,,,2,,,72,70
34296,note_on,0,0,5,,,,,,,,2,,,81,64
34296,note_on,12,0,5,,,,,,,,2,,,83,0
34296,note_on,1,0,9,,,,,,,,3,,,66,49
34296,note_on,1,0,8,,,,,,,,3,,,72,49
34308,note_on,12,0,5,,,,,,,,2,,,81,0
34308,note_on,0,0,5,,,,,,,,2,,,83,64
34317,note_on,45,0,10,,,,,,,,3,,,62,0
34317,note_on,45,0,11,,,,,,,,3,,,38,0
34319,note_on,23,0,9,,,,,,,,3,,,66,0
34319,note_on,23,0,8,,,,,,,,3,,,72,0
34319,note_on,23,0,6,,,,,,,,2,,,72,0
34320,note_on,1,0,6,,,,,,,,2,,,66,71
34320,note_on,1,0,9,,,,,,,,3,,,66,50
34320,note_on,3,0,11,,,,,,,,3,,,38,45
34320,note_on,12,0,5,,,,,,,,2,,,83,0
34320,note_on,0,0,5,,,,,,,,2,,,81,64
34320,note_on,1,0,8,,,,,,,,3,,,72,50
34320,note_on,3,0,10,,,,,,,,3,,,62,50
34332,note_on,12,0,5,,,,,,,,2,,,81,0
34332,note_on,0,0,5,,,,,,,,2,,,83,64
34343,note_on,23,0,9,,,,,,,,3,,,66,0
34343,note_on,23,0,8,,,,,,,,3,,,72,0
34343,note_on,23,0,6,,,,,,,,2,,,66,0
34344,note_on,1,0,8,,,,,,,,3,,,72,52
34344,note_on,1,0,9,,,,,,,,3,,,66,52
34344,note_on,1,0,6,,,,,,,,2,,,72,73
34344,note_on,12,0,5,,,,,,,,2,,,83,0
34344,note_on,0,0,5,,,,,,,,2,,,81,64
34353,note_on,177,0,1,,,,,,,,0,,,78,0
34353,note_on,0,0,1,,,,,,,,0,,,84,0
34356,note_on,12,0,5,,,,,,,,2,,,81,0
34356,note_on,0,0,5,,,,,,,,2,,,83,64
34365,note_on,45,0,10,,,,,,,,3,,,62,0
34365,note_on,45,0,11,,,,,,,,3,,,38,0
34367,note_on,23,0,6,,,,,,,,2,,,72,0
34367,note_on,23,0,9,,,,,,,,3,,,66,0
34367,note_on,23,0,8,,,,,,,,3,,,72,0
34368,note_on,3,0,11,,,,,,,,3,,,38,46
34368,note_on,1,0,9,,,,,,,,3,,,72,53
34368,note_on,1,0,6,,,,,,,,2,,,62,74
34368,note_on,0,0,1,,,,,,,,0,,,72,46
34368,note_on,1,0,8,,,,,,,,3,,,78,53
34368,note_on,0,0,5,,,,,,,,2,,,81,64
34368,note_on,12,0,5,,,,,,,,2,,,83,0
34368,note_on,3,0,10,,,,,,,,3,,,62,53
34368,note_on,15,0,1,,,,,,,,0,,,78,46
34380,note_on,0,0,5,,,,,,,,2,,,83,64
34380,note_on,12,0,5,,,,,,,,2,,,81,0
34391,note_on,23,0,9,,,,,,,,3,,,72,0
34391,note_on,23,0,6,,,,,,,,2,,,62,0
34391,note_on,23,0,8,,,,,,,,3,,,78,0
34392,note_on,1,0,8,,,,,,,,3,,,78,54
34392,note_on,1,0,9,,,,,,,,3,,,72,54
34392,note_on,12,0,5,,,,,,,,2,,,83,0
34392,note_on,0,0,5,,,,,,,,2,,,81,64
34392,note_on,1,0,6,,,,,,,,2,,,72,75
34404,note_on,12,0,5,,,,,,,,2,,,81,0
34404,note_on,0,0,5,,,,,,,,2,,,83,64
34413,note_on,45,0,11,,,,,,,,3,,,38,0
34413,note_on,45,0,10,,,,,,,,3,,,62,0
34415,note_on,23,0,8,,,,,,,,3,,,78,0
34415,note_on,23,0,6,,,,,,,,2,,,72,0
34415,note_on,23,0,9,,,,,,,,3,,,72,0
34416,note_on,1,0,8,,,,,,,,3,,,78,56
34416,note_on,3,0,11,,,,,,,,3,,,38,46
34416,note_on,1,0,9,,,,,,,,3,,,72,56
34416,note_on,3,0,10,,,,,,,,3,,,62,56
34416,note_on,12,0,5,,,,,,,,2,,,83,0
34416,note_on,0,0,5,,,,,,,,2,,,81,64
34416,note_on,1,0,6,,,,,,,,2,,,66,77
34428,note_on,12,0,5,,,,,,,,2,,,81,0
34428,note_on,0,0,5,,,,,,,,2,,,83,64
34439,note_on,23,0,9,,,,,,,,3,,,72,0
34439,note_on,23,0,8,,,,,,,,3,,,78,0
34439,note_on,23,0,6,,,,,,,,2,,,66,0
34440,note_on,1,0,9,,,,,,,,3,,,72,57
34440,note_on,1,0,8,,,,,,,,3,,,78,57
34440,note_on,12,0,5,,,,,,,,2,,,83,0
34440,note_on,0,0,5,,,,,,,,2,,,81,64
34440,note_on,1,0,6,,,,,,,,2,,,72,78
34452,note_on,0,0,5,,,,,,,,2,,,83,64
34452,note_on,12,0,5,,,,,,,,2,,,81,0
34461,note_on,45,0,11,,,,,,,,3,,,38,0
34461,note_on,45,0,10,,,,,,,,3,,,62,0
34463,note_on,23,0,8,,,,,,,,3,,,78,0
34463,note_on,23,0,9,,,,,,,,3,,,72,0
34463,note_on,23,0,6,,,,,,,,2,,,72,0
34464,note_on,3,0,10,,,,,,,,3,,,62,58
34464,note_on,12,0,5,,,,,,,,2,,,83,0
34464,note_on,1,0,9,,,,,,,,3,,,72,58
34464,note_on,1,0,8,,,,,,,,3,,,78,58
34464,note_on,0,0,5,,,,,,,,2,,,81,64
34464,note_on,3,0,11,,,,,,,,3,,,38,47
34464,note_on,1,0,6,,,,,,,,2,,,62,79
34476,note_on,0,0,5,,,,,,,,2,,,83,64
34476,note_on,12,0,5,,,,,,,,2,,,81,0
34487,note_on,23,0,8,,,,,,,,3,,,78,0
34487,note_on,23,0,6,,,,,,,,2,,,62,0
34487,note_on,23,0,9,,,,,,,,3,,,72,0
34488,note_on,1,0,8,,,,,,,,3,,,78,60
34488,note_on,12,0,5,,,,,,,,2,,,83,0
34488,note_on,1,0,6,,,,,,,,2,,,72,81
34488,note_on,1,0,9,,,,,,,,3,,,72,60
34488,note_on,0,0,5,,,,,,,,2,,,81,64
34500,note_on,0,0,5,,,,,,,,2,,,83,64
34500,note_on,12,0,5,,,,,,,,2,,,81,0
34509,note_on,45,0,11,,,,,,,,3,,,38,0
34509,note_on,45,0,10,,,,,,,,3,,,62,0
34511,note_on,23,0,9,,,,,,,,3,,,72,0
34511,note_on,23,0,8,,,,,,,,3,,,78,0
34511,note_on,23,0,6,,,,,,,,2,,,72,0
34512,note_on,0,0,5,,,,,,,,2,,,81,64
34512,note_on,1,0,6,,,,,,,,2,,,66,82
34512,note_on,1,0,8,,,,,,,,3,,,78,61
34512,note_on,3,0,11,,,,,,,,3,,,38,48
34512,note_on,3,0,10,,,,,,,,3,,,62,61
34512,note_on,1,0,9,,,,,,,,3,,,72,61
34512,note_on,12,0,5,,,,,,,,2,,,83,0
34524,note_on,0,0,5,,,,,,,,2,,,83,64
34524,note_on,12,0,5,,,,,,,,2,,,81,0
34530,note_on,354,0,3,,,,,,,,1,,,74,0
34530,note_on,354,0,4,,,,,,,,1,,,71,0
34530,note_on,6,0,5,,,,,,,,2,,,83,0
34535,note_on,23,0,6,,,,,,,,2,,,66,0
34535,note_on,23,0,8,,,,,,,,3,,,78,0
34535,note_on,23,0,9,,,,,,,,3,,,72,0
34536,note_on,1,0,6,,,,,,,,2,,,72,83
34536,note_on,1,0,8,,,,,,,,3,,,78,62
34536,note_on,1,0,9,,,,,,,,3,,,72,62
34545,note_on,177,0,1,,,,,,,,0,,,72,0
34545,note_on,0,0,1,,,,,,,,0,,,78,0
34557,note_on,45,0,11,,,,,,,,3,,,38,0
34557,note_on,45,0,10,,,,,,,,3,,,62,0
34559,note_on,23,0,9,,,,,,,,3,,,72,0
34559,note_on,23,0,8,,,,,,,,3,,,78,0
34559,note_on,23,0,6,,,,,,,,2,,,72,0
34560,note_on,1,0,6,,,,,,,,2,,,71,85
34560,note_on,3,0,11,,,,,,,,3,,,43,64
34560,note_on,30,0,3,,,,,,,,1,,,74,57
34560,note_on,0,0,1,,,,,,,,0,,,71,64
34560,note_on,15,0,1,,,,,,,,0,,,79,64
34560,note_on,0,0,6,,,,,,,,2,,,67,85
34560,note_on,30,0,5,,,,,,,,2,,,79,64
34560,note_on,30,0,4,,,,,,,,1,,,67,57
34560,note_on,3,0,10,,,,,,,,3,,,62,85
34560,note_on,1,0,8,,,,,,,,3,,,79,85
34560,note_on,1,0,9,,,,,,,,3,,,71,85
34583,note_on,23,0,9,,,,,,,,3,,,71,0
34584,note_on,1,0,9,,,,,,,,3,,,67,85
34605,note_on,45,0,10,,,,,,,,3,,,62,0
34605,note_on,45,0,11,,,,,,,,3,,,43,0
34607,note_on,23,0,9,,,,,,,,3,,,67,0
34608,note_on,3,0,10,,,,,,,,3,,,62,85
34608,note_on,1,0,9,,,,,,,,3,,,66,85
34608,note_on,3,0,11,,,,,,,,3,,,43,64
34618,note_on,10,0,9,,,,,,,,3,,,66,0
34632,note_on,14,0,9,,,,,,,,3,,,67,85
34642,note_on,10,0,9,,,,,,,,3,,,67,0
34649,note_on,89,0,6,,,,,,,,2,,,67,0
34649,note_on,0,0,6,,,,,,,,2,,,71,0
34649,note_on,89,0,5,,,,,,,,2,,,79,0
34653,note_on,45,0,11,,,,,,,,3,,,43,0
34653,note_on,45,0,10,,,,,,,,3,,,62,0
34656,note_on,3,0,10,,,,,,,,3,,,62,85
34656,note_on,14,0,9,,,,,,,,3,,,69,85
34656,note_on,3,0,11,,,,,,,,3,,,43,64
34679,note_on,23,0,9,,,,,,,,3,,,69,0
34680,note_on,1,0,9,,,,,,,,3,,,67,85
34693,note_on,133,0,8,,,,,,,,3,,,79,0
34701,note_on,45,0,10,,,,,,,,3,,,62,0
34701,note_on,45,0,11,,,,,,,,3,,,43,0
34703,note_on,23,0,9,,,,,,,,3,,,67,0
34704,note_on,3,0,11,,,,,,,,3,,,43,64
34704,note_on,1,0,9,,,,,,,,3,,,66,85
34704,note_on,11,0,8,,,,,,,,3,,,74,85
34704,note_on,3,0,10,,,,,,,,3,,,62,85
34714,note_on,10,0,9,,,,,,,,3,,,66,0
34716,note_on,12,0,8,,,,,,,,3,,,74,0
34716,note_on,0,0,8,,,,,,,,3,,,76,85
34727,note_on,11,0,8,,,,,,,,3,,,76,0
34728,note_on,14,0,9,,,,,,,,3,,,67,85
34728,note_on,1,0,8,,,,,,,,3,,,73,85
34738,note_on,10,0,9,,,,,,,,3,,,67,0
34740,note_on,0,0,8,,,,,,,,3,,,74,85
34740,note_on,12,0,8,,,,,,,,3,,,73,0
34749,note_on,45,0,11,,,,,,,,3,,,43,0
34749,note_on,45,0,10,,,,,,,,3,,,62,0
34752,note_on,3,0,11,,,,,,,,3,,,47,64
34752,note_on,0,0,8,,,,,,,,3,,,71,85
34752,note_on,3,0,10,,,,,,,,3,,,59,85
34752,note_on,14,0,9,,,,,,,,3,,,62,85
34752,note_on,12,0,8,,,,,,,,3,,,74,0
34772,note_on,20,0,8,,,,,,,,3,,,71,0
34775,note_on,23,0,9,,,,,,,,3,,,62,0
34776,note_on,1,0,9,,,,,,,,3,,,67,85
34797,note_on,237,0,3,,,,,,,,1,,,74,0
34797,note_on,45,0,10,,,,,,,,3,,,59,0
34797,note_on,237,0,4,,,,,,,,1,,,67,0
34797,note_on,45,0,11,,,,,,,,3,,,47,0
34799,note_on,23,0,9,,,,,,,,3,,,67,0
34800,note_on,1,0,9,,,,,,,,3,,,66,85
34800,note_on,3,0,4,,,,,,,,1,,,67,64
34800,note_on,28,0,8,,,,,,,,3,,,67,85
34800,note_on,3,0,10,,,,,,,,3,,,59,85
34800,note_on,3,0,11,,,,,,,,3,,,47,64
34800,note_on,3,0,3,,,,,,,,1,,,74,64
34810,note_on,10,0,9,,,,,,,,3,,,66,0
34820,note_on,20,0,8,,,,,,,,3,,,67,0
34824,note_on,14,0,9,,,,,,,,3,,,67,85
34825,note_on,0,0,1,,,,,,,,0,,,79,0
34825,note_on,265,0,1,,,,,,,,0,,,71,0
34834,note_on,10,0,9,,,,,,,,3,,,67,0
34845,note_on,45,0,10,,,,,,,,3,,,59,0
34845,note_on,45,0,11,,,,,,,,3,,,47,0
34845,note_on,45,0,4,,,,,,,,1,,,67,0
34845,note_on,45,0,3,,,,,,,,1,,,74,0
34848,note_on,0,0,1,,,,,,,,0,,,74,64
34848,note_on,23,0,1,,,,,,,,0,,,77,64
34848,note_on,28,0,8,,,,,,,,3,,,77,85
34848,note_on,14,0,9,,,,,,,,3,,,69,85
34848,note_on,3,0,4,,,,,,,,1,,,67,64
34848,note_on,3,0,11,,,,,,,,3,,,47,64
34848,note_on,3,0,10,,,,,,,,3,,,59,85
34848,note_on,3,0,3,,,,,,,,1,,,74,64
34868,note_on,20,0,8,,,,,,,,3,,,77,0
34871,note_on,23,0,9,,,,,,,,3,,,69,0
34872,note_on,1,0,9,,,,,,,,3,,,67,85
34893,note_on,45,0,3,,,,,,,,1,,,74,0
34893,note_on,45,0,4,,,,,,,,1,,,67,0
34893,note_on,45,0,11,,,,,,,,3,,,47,0
34893,note_on,45,0,10,,,,,,,,3,,,59,0
34895,note_on,23,0,9,,,,,,,,3,,,67,0
34896,note_on,3,0,4,,,,,,,,1,,,67,64
34896,note_on,3,0,11,,,,,,,,3,,,47,64
34896,note_on,3,0,10,,,,,,,,3,,,59,85
34896,note_on,28,0,8,,,,,,,,3,,,74,85
34896,note_on,3,0,3,,,,,,,,1,,,74,64
34896,note_on,1,0,9,,,,,,,,3,,,66,85
34906,note_on,10,0,9,,,,,,,,3,,,66,0
34916,note_on,20,0,8,,,,,,,,3,,,74,0
34920,note_on,14,0,9,,,,,,,,3,,,67,85
34930,note_on,10,0,9,,,,,,,,3,,,67,0
34937,note_on,0,0,1,,,,,,,,0,,,77,0
34937,note_on,89,0,1,,,,,,,,0,,,74,0
34941,note_on,45,0,3,,,,,,,,1,,,74,0
34941,note_on,45,0,10,,,,,,,,3,,,59,0
34941,note_on,45,0,4,,,,,,,,1,,,67,0
34941,note_on,45,0,11,,,,,,,,3,,,47,0
34944,note_on,28,0,8,,,,,,,,3,,,76,85
34944,note_on,3,0,11,,,,,,,,3,,,48,64
34944,note_on,14,0,9,,,,,,,,3,,,60,85
34944,note_on,3,0,3,,,,,,,,1,,,76,64
34944,note_on,7,0,1,,,,,,,,0,,,76,64
34944,note_on,0,0,1,,,,,,,,0,,,72,64
34944,note_on,3,0,4,,,,,,,,1,,,72,64
34944,note_on,3,0,10,,,,,,,,3,,,60,85
34967,note_on,23,0,9,,,,,,,,3,,,60,0
34968,note_on,1,0,9,,,,,,,,3,,,67,85
34989,note_on,45,0,11,,,,,,,,3,,,48,0
34989,note_on,45,0,10,,,,,,,,3,,,60,0
34991,note_on,23,0,9,,,,,,,,3,,,67,0
34992,note_on,1,0,9,,,,,,,,3,,,66,85
34992,note_on,3,0,10,,,,,,,,3,,,60,85
34992,note_on,3,0,11,,,,,,,,3,,,48,64
35002,note_on,10,0,9,,,,,,,,3,,,66,0
35016,note_on,14,0,9,,,,,,,,3,,,67,85
35026,note_on,10,0,9,,,,,,,,3,,,67,0
35037,note_on,45,0,11,,,,,,,,3,,,48,0
35037,note_on,45,0,10,,,,,,,,3,,,60,0
35040,note_on,3,0,11,,,,,,,,3,,,48,64
35040,note_on,14,0,9,,,,,,,,3,,,69,85
35040,note_on,3,0,10,,,,,,,,3,,,60,85
35063,note_on,23,0,9,,,,,,,,3,,,69,0
35064,note_on,1,0,9,,,,,,,,3,,,67,85
35077,note_on,133,0,8,,,,,,,,3,,,76,0
35085,note_on,45,0,10,,,,,,,,3,,,60,0
35085,note_on,45,0,11,,,,,,,,3,,,48,0
35087,note_on,23,0,9,,,,,,,,3,,,67,0
35088,note_on,3,0,10,,,,,,,,3,,,60,85
35088,note_on,1,0,9,,,,,,,,3,,,66,85
35088,note_on,3,0,11,,,,,,,,3,,,48,64
35088,note_on,11,0,8,,,,,,,,3,,,72,85
35098,note_on,10,0,9,,,,,,,,3,,,66,0
35100,note_on,0,0,8,,,,,,,,3,,,74,85
35100,note_on,12,0,8,,,,,,,,3,,,72,0
35111,note_on,11,0,8,,,,,,,,3,,,74,0
35112,note_on,1,0,8,,,,,,,,3,,,71,85
35112,note_on,14,0,9,,,,,,,,3,,,67,85
35122,note_on,10,0,9,,,,,,,,3,,,67,0
35124,note_on,12,0,8,,,,,,,,3,,,71,0
35124,note_on,0,0,8,,,,,,,,3,,,72,85
35133,note_on,45,0,10,,,,,,,,3,,,60,0
35133,note_on,45,0,11,,,,,,,,3,,,48,0
35136,note_on,12,0,8,,,,,,,,3,,,72,0
35136,note_on,0,0,8,,,,,,,,3,,,69,85
35136,note_on,3,0,11,,,,,,,,3,,,48,64
35136,note_on,3,0,10,,,,,,,,3,,,60,85
35136,note_on,14,0,9,,,,,,,,3,,,64,85
35156,note_on,20,0,8,,,,,,,,3,,,69,0
35159,note_on,23,0,9,,,,,,,,3,,,64,0
35160,note_on,1,0,9,,,,,,,,3,,,67,85
35181,note_on,237,0,3,,,,,,,,1,,,76,0
35181,note_on,237,0,4,,,,,,,,1,,,72,0
35181,note_on,45,0,11,,,,,,,,3,,,48,0
35181,note_on,45,0,10,,,,,,,,3,,,60,0
35183,note_on,23,0,9,,,,,,,,3,,,67,0
35184,note_on,1,0,9,,,,,,,,3,,,66,85
35184,note_on,3,0,3,,,,,,,,1,,,76,64
35184,note_on,3,0,10,,,,,,,,3,,,60,85
35184,note_on,28,0,8,,,,,,,,3,,,64,85
35184,note_on,3,0,11,,,,,,,,3,,,48,64
35184,note_on,3,0,4,,,,,,,,1,,,72,64
35194,note_on,10,0,9,,,,,,,,3,,,66,0
35204,note_on,20,0,8,,,,,,,,3,,,64,0
35208,note_on,14,0,9,,,,,,,,3,,,67,85
35209,note_on,265,0,1,,,,,,,,0,,,72,0
35209,note_on,0,0,1,,,,,,,,0,,,76,0
35218,note_on,10,0,9,,,,,,,,3,,,67,0
35229,note_on,45,0,11,,,,,,,,3,,,48,0
35229,note_on,45,0,10,,,,,,,,3,,,60,0
35229,note_on,45,0,3,,,,,,,,1,,,76,0
35229,note_on,45,0,4,,,,,,,,1,,,72,0
35232,note_on,3,0,4,,,,,,,,1,,,72,64
35232,note_on,14,0,9,,,,,,,,3,,,69,85
35232,note_on,3,0,3,,,,,,,,1,,,76,64
35232,note_on,0,0,1,,,,,,,,0,,,69,64
35232,note_on,23,0,1,,,,,,,,0,,,72,64
35232,note_on,3,0,10,,,,,,,,3,,,60,85
35232,note_on,28,0,8,,,,,,,,3,,,76,85
35232,note_on,3,0,11,,,,,,,,3,,,48,64
35252,note_on,20,0,8,,,,,,,,3,,,76,0
35255,note_on,23,0,9,,,,,,,,3,,,69,0
35256,note_on,1,0,9,,,,,,,,3,,,67,85
35277,note_on,45,0,11,,,,,,,,3,,,48,0
35277,note_on,45,0,10,,,,,,,,3,,,60,0
35277,note_on,45,0,3,,,,,,,,1,,,76,0
35277,note_on,45,0,4,,,,,,,,1,,,72,0
35279,note_on,23,0,9,,,,,,,,3,,,67,0
35280,note_on,1,0,9,,,,,,,,3,,,66,85
35280,note_on,28,0,8,,,,,,,,3,,,72,85
35280,note_on,3,0,3,,,,,,,,1,,,76,64
35280,note_on,3,0,4,,,,,,,,1,,,72,64
35280,note_on,3,0,11,,,,,,,,3,,,48,64
35280,note_on,3,0,10,,,,,,,,3,,,60,85
35290,note_on,10,0,9,,,,,,,,3,,,66,0
35300,note_on,20,0,8,,,,,,,,3,,,72,0
35304,note_on,14,0,9,,,,,,,,3,,,67,85
35314,note_on,10,0,9,,,,,,,,3,,,67,0
35321,note_on,89,0,1,,,,,,,,0,,,69,0
35321,note_on,0,0,1,,,,,,,,0,,,72,0
35325,note_on,45,0,10,,,,,,,,3,,,60,0
35325,note_on,45,0,3,,,,,,,,1,,,76,0
35325,note_on,45,0,11,,,,,,,,3,,,48,0
35325,note_on,45,0,4,,,,,,,,1,,,72,0
35328,note_on,3,0,11,,,,,,,,3,,,50,64
35328,note_on,3,0,10,,,,,,,,3,,,62,85
35328,note_on,28,0,8,,,,,,,,3,,,71,85
35328,note_on,3,0,3,,,,,,,,1,,,74,64
35328,note_on,3,0,4,,,,,,,,1,,,74,64
35328,note_on,7,0,1,,,,,,,,0,,,71,64
35328,note_on,14,0,9,,,,,,,,3,,,67,85
35328,note_on,0,0,1,,,,,,,,0,,,67,64
35351,note_on,0,0,1,,,,,,,,0,,,71,0
35351,note_on,23,0,9,,,,,,,,3,,,67,0
35351,note_on,23,0,1,,,,,,,,0,,,67,0
35351,note_on,23,0,8,,,,,,,,3,,,71,0
35352,note_on,1,0,8,,,,,,,,3,,,72,85
35352,note_on,0,0,1,,,,,,,,0,,,69,64
35352,note_on,1,0,9,,,,,,,,3,,,69,85
35352,note_on,1,0,1,,,,,,,,0,,,72,64
35373,note_on,45,0,11,,,,,,,,3,,,50,0
35373,note_on,45,0,10,,,,,,,,3,,,62,0
35375,note_on,23,0,9,,,,,,,,3,,,69,0
35375,note_on,23,0,8,,,,,,,,3,,,72,0
35375,note_on,0,0,1,,,,,,,,0,,,72,0
35375,note_on,23,0,1,,,,,,,,0,,,69,0
35376,note_on,1,0,9,,,,,,,,3,,,71,85
35376,note_on,3,0,10,,,,,,,,3,,,62,85
35376,note_on,1,0,8,,,,,,,,3,,,74,85
35376,note_on,3,0,11,,,,,,,,3,,,50,64
35376,note_on,0,0,1,,,,,,,,0,,,71,64
35376,note_on,1,0,1,,,,,,,,0,,,74,64
35386,note_on,10,0,8,,,,,,,,3,,,74,0
35386,note_on,10,0,9,,,,,,,,3,,,71,0
35399,note_on,0,0,1,,,,,,,,0,,,74,0
35399,note_on,23,0,1,,,,,,,,0,,,71,0
35400,note_on,14,0,9,,,,,,,,3,,,71,85
35400,note_on,14,0,8,,,,,,,,3,,,74,85
35400,note_on,1,0,1,,,,,,,,0,,,74,64
35400,note_on,0,0,1,,,,,,,,0,,,71,64
35410,note_on,10,0,9,,,,,,,,3,,,71,0
35410,note_on,10,0,8,,,,,,,,3,,,74,0
35417,note_on,89,0,4,,,,,,,,1,,,74,0
35417,note_on,89,0,3,,,,,,,,1,,,74,0
35421,note_on,45,0,11,,,,,,,,3,,,50,0
35421,note_on,45,0,10,,,,,,,,3,,,62,0
35423,note_on,0,0,1,,,,,,,,0,,,74,0
35423,note_on,23,0,1,,,,,,,,0,,,71,0
35424,note_on,3,0,11,,,,,,,,3,,,50,64
35424,note_on,14,0,9,,,,,,,,3,,,71,85
35424,note_on,7,0,3,,,,,,,,1,,,74,64
35424,note_on,3,0,10,,,,,,,,3,,,62,85
35424,note_on,7,0,4,,,,,,,,1,,,74,64
35424,note_on,0,0,1,,,,,,,,0,,,71,64
35424,note_on,1,0,1,,,,,,,,0,,,74,64
35424,note_on,14,0,8,,,,,,,,3,,,74,85
35447,note_on,23,0,8,,,,,,,,3,,,74,0
35447,note_on,23,0,9,,,,,,,,3,,,71,0
35448,note_on,1,0,9,,,,,,,,3,,,71,85
35448,note_on,1,0,8,,,,,,,,3,,,74,85
35469,note_on,45,0,3,,,,,,,,1,,,74,0
35469,note_on,45,0,10,,,,,,,,3,,,62,0
35469,note_on,45,0,11,,,,,,,,3,,,50,0
35469,note_on,45,0,4,,,,,,,,1,,,74,0
35471,note_on,23,0,9,,,,,,,,3,,,71,0
35471,note_on,23,0,8,,,,,,,,3,,,74,0
35472,note_on,3,0,4,,,,,,,,1,,,74,64
35472,note_on,1,0,8,,,,,,,,3,,,74,85
35472,note_on,3,0,10,,,,,,,,3,,,62,85
35472,note_on,3,0,3,,,,,,,,1,,,74,64
35472,note_on,3,0,11,,,,,,,,3,,,50,64
35472,note_on,1,0,9,,,,,,,,3,,,71,85
35495,note_on,23,0,9,,,,,,,,3,,,71,0
35495,note_on,23,0,8,,,,,,,,3,,,74,0
35496,note_on,1,0,8,,,,,,,,3,,,74,85
35496,note_on,1,0,9,,,,,,,,3,,,71,85
35517,note_on,45,0,3,,,,,,,,1,,,74,0
35517,note_on,45,0,4,,,,,,,,1,,,74,0
35517,note_on,45,0,11,,,,,,,,3,,,50,0
35517,note_on,45,0,10,,,,,,,,3,,,62,0
35519,note_on,23,0,8,,,,,,,,3,,,74,0
35519,note_on,23,0,9,,,,,,,,3,,,71,0
35520,note_on,3,0,3,,,,,,,,1,,,74,64
35520,note_on,1,0,8,,,,,,,,3,,,74,85
35520,note_on,3,0,11,,,,,,,,3,,,38,64
35520,note_on,1,0,9,,,,,,,,3,,,71,85
35520,note_on,3,0,10,,,,,,,,3,,,62,85
35520,note_on,3,0,4,,,,,,,,1,,,74,64
35557,note_on,133,0,1,,,,,,,,0,,,71,0
35557,note_on,0,0,1,,,,,,,,0,,,74,0
35565,note_on,45,0,8,,,,,,,,3,,,74,0
35565,note_on,45,0,10,,,,,,,,3,,,62,0
35565,note_on,45,0,9,,,,,,,,3,,,71,0
35565,note_on,45,0,11,,,,,,,,3,,,38,0
35568,note_on,0,0,1,,,,,,,,0,,,69,64
35568,note_on,3,0,9,,,,,,,,3,,,69,85
35568,note_on,3,0,10,,,,,,,,3,,,62,85
35568,note_on,11,0,1,,,,,,,,0,,,72,64
35568,note_on,3,0,11,,,,,,,,3,,,38,64
35568,note_on,3,0,8,,,,,,,,3,,,72,85
35609,note_on,89,0,4,,,,,,,,1,,,74,0
35609,note_on,89,0,3,,,,,,,,1,,,74,0
35613,note_on,45,0,8,,,,,,,,3,,,72,0
35613,note_on,45,0,10,,,,,,,,3,,,62,0
35613,note_on,45,0,9,,,,,,,,3,,,69,0
35613,note_on,45,0,1,,,,,,,,0,,,69,0
35613,note_on,0,0,1,,,,,,,,0,,,72,0
35613,note_on,45,0,11,,,,,,,,3,,,38,0
35616,note_on,3,0,10,,,,,,,,3,,,62,85
35616,note_on,0,0,1,,,,,,,,0,,,67,64
35616,note_on,3,0,1,,,,,,,,0,,,71,64
35616,note_on,3,0,8,,,,,,,,3,,,71,85
35616,note_on,7,0,3,,,,,,,,1,,,74,64
35616,note_on,3,0,9,,,,,,,,3,,,67,85
35616,note_on,7,0,4,,,,,,,,1,,,74,64
35616,note_on,3,0,11,,,,,,,,3,,,38,64
35636,note_on,20,0,9,,,,,,,,3,,,67,0
35636,note_on,20,0,8,,,,,,,,3,,,71,0
35661,note_on,45,0,11,,,,,,,,3,,,38,0
35661,note_on,0,0,1,,,,,,,,0,,,71,0
35661,note_on,45,0,1,,,,,,,,0,,,67,0
35661,note_on,45,0,10,,,,,,,,3,,,62,0
35664,note_on,3,0,11,,,,,,,,3,,,38,64
35664,note_on,28,0,9,,,,,,,,3,,,66,85
35664,note_on,3,0,1,,,,,,,,0,,,69,64
35664,note_on,0,0,1,,,,,,,,0,,,66,64
35664,note_on,28,0,8,,,,,,,,3,,,69,85
35664,note_on,3,0,10,,,,,,,,3,,,62,85
35684,note_on,20,0,8,,,,,,,,3,,,69,0
35684,note_on,20,0,9,,,,,,,,3,,,66,0
35705,note_on,89,0,3,,,,,,,,1,,,74,0
35705,note_on,89,0,4,,,,,,,,1,,,74,0
35709,note_on,45,0,10,,,,,,,,3,,,62,0
35709,note_on,45,0,11,,,,,,,,3,,,38,0
35709,note_on,45,0,1,,,,,,,,0,,,66,0
35709,note_on,0,0,1,,,,,,,,0,,,69,0
35712,note_on,3,0,11,,,,,,,,3,,,47,64
35712,note_on,3,0,1,,,,,,,,0,,,79,64
35712,note_on,0,0,1,,,,,,,,0,,,62,64
35712,note_on,28,0,8,,,,,,,,3,,,79,85
35712,note_on,28,0,9,,,,,,,,3,,,62,85
35712,note_on,7,0,4,,,,,,,,1,,,67,64
35712,note_on,7,0,3,,,,,,,,1,,,74,64
35712,note_on,3,0,10,,,,,,,,3,,,59,85
35735,note_on,23,0,9,,,,,,,,3,,,62,0
35736,note_on,1,0,9,,,,,,,,3,,,67,85
35757,note_on,45,0,10,,,,,,,,3,,,59,0
35757,note_on,45,0,11,,,,,,,,3,,,47,0
35759,note_on,23,0,9,,,,,,,,3,,,67,0
35760,note_on,3,0,10,,,,,,,,3,,,59,85
35760,note_on,1,0,9,,,,,,,,3,,,66,85
35760,note_on,3,0,11,,,,,,,,3,,,47,64
35770,note_on,10,0,9,,,,,,,,3,,,66,0
35784,note_on,14,0,9,,,,,,,,3,,,67,85
35794,note_on,10,0,9,,,,,,,,3,,,67,0
35805,note_on,45,0,10,,,,,,,,3,,,59,0
35805,note_on,45,0,11,,,,,,,,3,,,47,0
35808,note_on,3,0,10,,,,,,,,3,,,59,85
35808,note_on,14,0,9,,,,,,,,3,,,69,85
35808,note_on,3,0,11,,,,,,,,3,,,47,64
35831,note_on,23,0,9,,,,,,,,3,,,69,0
35832,note_on,1,0,9,,,,,,,,3,,,67,85
35845,note_on,133,0,8,,,,,,,,3,,,79,0
35853,note_on,45,0,10,,,,,,,,3,,,59,0
35853,note_on,45,0,11,,,,,,,,3,,,47,0
35855,note_on,23,0,9,,,,,,,,3,,,67,0
35856,note_on,3,0,11,,,,,,,,3,,,47,64
35856,note_on,11,0,8,,,,,,,,3,,,74,85
35856,note_on,1,0,9,,,,,,,,3,,,66,85
35856,note_on,3,0,10,,,,,,,,3,,,59,85
35866,note_on,10,0,9,,,,,,,,3,,,66,0
35868,note_on,12,0,8,,,,,,,,3,,,74,0
35868,note_on,0,0,8,,,,,,,,3,,,76,85
35879,note_on,11,0,8,,,,,,,,3,,,76,0
35880,note_on,14,0,9,,,,,,,,3,,,67,85
35880,note_on,1,0,8,,,,,,,,3,,,73,85
35890,note_on,10,0,9,,,,,,,,3,,,67,0
35892,note_on,0,0,8,,,,,,,,3,,,74,85
35892,note_on,12,0,8,,,,,,,,3,,,73,0
35901,note_on,45,0,11,,,,,,,,3,,,47,0
35901,note_on,45,0,10,,,,,,,,3,,,59,0
35904,note_on,3,0,10,,,,,,,,3,,,59,85
35904,note_on,0,0,8,,,,,,,,3,,,71,85
35904,note_on,12,0,8,,,,,,,,3,,,74,0
35904,note_on,14,0,9,,,,,,,,3,,,62,85
35904,note_on,3,0,11,,,,,,,,3,,,47,64
35924,note_on,20,0,8,,,,,,,,3,,,71,0
35927,note_on,23,0,9,,,,,,,,3,,,62,0
35928,note_on,1,0,9,,,,,,,,3,,,67,85
35949,note_on,45,0,10,,,,,,,,3,,,59,0
35949,note_on,45,0,11,,,,,,,,3,,,47,0
35949,note_on,237,0,4,,,,,,,,1,,,67,0
35949,note_on,237,0,3,,,,,,,,1,,,74,0
35951,note_on,23,0,9,,,,,,,,3,,,67,0
35952,note_on,3,0,4,,,,,,,,1,,,67,64
35952,note_on,1,0,9,,,,,,,,3,,,66,85
35952,note_on,3,0,11,,,,,,,,3,,,47,64
35952,note_on,28,0,8,,,,,,,,3,,,67,85
35952,note_on,3,0,10,,,,,,,,3,,,59,85
35952,note_on,3,0,3,,,,,,,,1,,,74,64
35962,note_on,10,0,9,,,,,,,,3,,,66,0
35972,note_on,20,0,8,,,,,,,,3,,,67,0
35976,note_on,14,0,9,,,,,,,,3,,,67,85
35977,note_on,0,0,1,,,,,,,,0,,,79,0
35977,note_on,265,0,1,,,,,,,,0,,,62,0
35986,note_on,10,0,9,,,,,,,,3,,,67,0
35997,note_on,45,0,3,,,,,,,,1,,,74,0
35997,note_on,45,0,10,,,,,,,,3,,,59,0
35997,note_on,45,0,4,,,,,,,,1,,,67,0
35997,note_on,45,0,11,,,,,,,,3,,,47,0
36000,note_on,3,0,4,,,,,,,,1,,,67,64
36000,note_on,3,0,11,,,,,,,,3,,,47,64
36000,note_on,3,0,10,,,,,,,,3,,,59,85
36000,note_on,0,0,1,,,,,,,,0,,,74,64
36000,note_on,28,0,8,,,,,,,,3,,,77,85
36000,note_on,14,0,9,,,,,,,,3,,,69,85
36000,note_on,3,0,3,,,,,,,,1,,,74,64
36000,note_on,23,0,1,,,,,,,,0,,,77,64
36020,note_on,20,0,8,,,,,,,,3,,,77,0
36023,note_on,23,0,9,,,,,,,,3,,,69,0
36024,note_on,1,0,9,,,,,,,,3,,,67,85
36045,note_on,45,0,3,,,,,,,,1,,,74,0
36045,note_on,45,0,11,,,,,,,,3,,,47,0
36045,note_on,45,0,4,,,,,,,,1,,,67,0
36045,note_on,45,0,10,,,,,,,,3,,,59,0
36047,note_on,23,0,9,,,,,,,,3,,,67,0
36048,note_on,3,0,4,,,,,,,,1,,,67,64
36048,note_on,1,0,9,,,,,,,,3,,,66,85
36048,note_on,3,0,11,,,,,,,,3,,,47,64
36048,note_on,3,0,10,,,,,,,,3,,,59,85
36048,note_on,28,0,8,,,,,,,,3,,,74,85
36048,note_on,3,0,3,,,,,,,,1,,,74,64
36058,note_on,10,0,9,,,,,,,,3,,,66,0
36068,note_on,20,0,8,,,,,,,,3,,,74,0
36072,note_on,14,0,9,,,,,,,,3,,,67,85
36082,note_on,10,0,9,,,,,,,,3,,,67,0
36089,note_on,89,0,1,,,,,,,,0,,,74,0
36089,note_on,0,0,1,,,,,,,,0,,,77,0
36093,note_on,45,0,11,,,,,,,,3,,,47,0
36093,note_on,45,0,3,,,,,,,,1,,,74,0
36093,note_on,45,0,4,,,,,,,,1,,,67,0
36093,note_on,45,0,10,,,,,,,,3,,,59,0
36096,note_on,14,0,9,,,,,,,,3,,,60,85
36096,note_on,28,0,8,,,,,,,,3,,,76,85
36096,note_on,3,0,10,,,,,,,,3,,,60,85
36096,note_on,3,0,11,,,,,,,,3,,,48,64
36096,note_on,3,0,3,,,,,,,,1,,,76,64
36096,note_on,0,0,1,,,,,,,,0,,,72,64
36096,note_on,7,0,1,,,,,,,,0,,,76,64
36096,note_on,3,0,4,,,,,,,,1,,,72,64
36119,note_on,23,0,9,,,,,,,,3,,,60,0
36120,note_on,1,0,9,,,,,,,,3,,,67,85
36141,note_on,45,0,11,,,,,,,,3,,,48,0
36141,note_on,45,0,10,,,,,,,,3,,,60,0
36143,note_on,23,0,9,,,,,,,,3,,,67,0
36144,note_on,3,0,11,,,,,,,,3,,,48,64
36144,note_on,1,0,9,,,,,,,,3,,,66,85
36144,note_on,3,0,10,,,,,,,,3,,,60,85
36154,note_on,10,0,9,,,,,,,,3,,,66,0
36168,note_on,14,0,9,,,,,,,,3,,,67,85
36178,note_on,10,0,9,,,,,,,,3,,,67,0
36189,note_on,45,0,10,,,,,,,,3,,,60,0
36189,note_on,45,0,11,,,,,,,,3,,,48,0
36192,note_on,3,0,10,,,,,,,,3,,,60,85
36192,note_on,3,0,11,,,,,,,,3,,,48,64
36192,note_on,14,0,9,,,,,,,,3,,,69,85
36215,note_on,23,0,9,,,,,,,,3,,,69,0
36216,note_on,1,0,9,,,,,,,,3,,,67,85
36229,note_on,133,0,8,,,,,,,,3,,,76,0
36237,note_on,45,0,11,,,,,,,,3,,,48,0
36237,note_on,45,0,10,,,,,,,,3,,,60,0
36239,note_on,23,0,9,,,,,,,,3,,,67,0
36240,note_on,1,0,9,,,,,,,,3,,,66,85
36240,note_on,11,0,8,,,,,,,,3,,,72,85
36240,note_on,3,0,10,,,,,,,,3,,,60,85
36240,note_on,3,0,11,,,,,,,,3,,,48,64
36250,note_on,10,0,9,,,,,,,,3,,,66,0
36252,note_on,12,0,8,,,,,,,,3,,,72,0
36252,note_on,0,0,8,,,,,,,,3,,,74,85
36263,note_on,11,0,8,,,,,,,,3,,,74,0
36264,note_on,1,0,8,,,,,,,,3,,,71,85
36264,note_on,14,0,9,,,,,,,,3,,,67,85
36274,note_on,10,0,9,,,,,,,,3,,,67,0
36276,note_on,12,0,8,,,,,,,,3,,,71,0
36276,note_on,0,0,8,,,,,,,,3,,,72,85
36285,note_on,45,0,11,,,,,,,,3,,,48,0
36285,note_on,45,0,10,,,,,,,,3,,,60,0
36288,note_on,0,0,8,,,,,,,,3,,,81,85
36288,note_on,14,0,9,,,,,,,,3,,,64,85
36288,note_on,3,0,10,,,,,,,,3,,,60,85
36288,note_on,12,0,8,,,,,,,,3,,,72,0
36288,note_on,3,0,11,,,,,,,,3,,,48,64
36308,note_on,20,0,8,,,,,,,,3,,,81,0
36311,note_on,23,0,9,,,,,,,,3,,,64,0
36312,note_on,1,0,9,,,,,,,,3,,,67,85
36333,note_on,45,0,11,,,,,,,,3,,,48,0
36333,note_on,237,0,3,,,,,,,,1,,,76,0
36333,note_on,237,0,4,,,,,,,,1,,,72,0
36333,note_on,45,0,10,,,,,,,,3,,,60,0
36335,note_on,23,0,9,,,,,,,,3,,,67,0
36336,note_on,3,0,3,,,,,,,,1,,,76,64
36336,note_on,3,0,4,,,,,,,,1,,,72,64
36336,note_on,28,0,8,,,,,,,,3,,,76,85
36336,note_on,1,0,9,,,,,,,,3,,,66,85
36336,note_on,3,0,11,,,,,,,,3,,,48,64
36336,note_on,3,0,10,,,,,,,,3,,,60,85
36346,note_on,10,0,9,,,,,,,,3,,,66,0
36356,note_on,20,0,8,,,,,,,,3,,,76,0
36360,note_on,14,0,9,,,,,,,,3,,,67,85
36361,note_on,265,0,1,,,,,,,,0,,,72,0
36361,note_on,0,0,1,,,,,,,,0,,,76,0
36370,note_on,10,0,9,,,,,,,,3,,,67,0
36381,note_on,45,0,10,,,,,,,,3,,,60,0
36381,note_on,45,0,3,,,,,,,,1,,,76,0
36381,note_on,45,0,11,,,,,,,,3,,,48,0
36381,note_on,45,0,4,,,,,,,,1,,,72,0
36384,note_on,28,0,8,,,,,,,,3,,,84,85
36384,note_on,14,0,9,,,,,,,,3,,,69,85
36384,note_on,0,0,1,,,,,,,,0,,,81,64
36384,note_on,3,0,11,,,,,,,,3,,,48,64
36384,note_on,3,0,4,,,,,,,,1,,,72,64
36384,note_on,23,0,1,,,,,,,,0,,,84,64
36384,note_on,3,0,10,,,,,,,,3,,,60,85
36384,note_on,3,0,3,,,,,,,,1,,,76,64
36404,note_on,20,0,8,,,,,,,,3,,,84,0
36407,note_on,23,0,9,,,,,,,,3,,,69,0
36408,note_on,1,0,9,,,,,,,,3,,,67,85
36429,note_on,45,0,11,,,,,,,,3,,,48,0
36429,note_on,45,0,4,,,,,,,,1,,,72,0
36429,note_on,45,0,10,,,,,,,,3,,,60,0
36429,note_on,45,0,3,,,,,,,,1,,,76,0
36431,note_on,23,0,9,,,,,,,,3,,,67,0
36432,note_on,3,0,3,,,,,,,,1,,,76,64
36432,note_on,3,0,11,,,,,,,,3,,,48,64
36432,note_on,28,0,8,,,,,,,,3,,,81,85
36432,note_on,3,0,4,,,,,,,,1,,,72,64
36432,note_on,1,0,9,,,,,,,,3,,,66,85
36432,note_on,3,0,10,,,,,,,,3,,,60,85
36442,note_on,10,0,9,,,,,,,,3,,,66,0
36452,note_on,20,0,8,,,,,,,,3,,,81,0
36456,note_on,14,0,9,,,,,,,,3,,,67,85
36466,note_on,10,0,9,,,,,,,,3,,,67,0
36473,note_on,0,0,1,,,,,,,,0,,,84,0
36473,note_on,89,0,1,,,,,,,,0,,,81,0
36477,note_on,45,0,11,,,,,,,,3,,,48,0
36477,note_on,45,0,4,,,,,,,,1,,,72,0
36477,note_on,45,0,10,,,,,,,,3,,,60,0
36477,note_on,45,0,3,,,,,,,,1,,,76,0
36480,note_on,7,0,1,,,,,,,,0,,,83,64
36480,note_on,14,0,9,,,,,,,,3,,,67,85
36480,note_on,3,0,11,,,,,,,,3,,,50,64
36480,note_on,3,0,4,,,,,,,,1,,,74,64
36480,note_on,28,0,8,,,,,,,,3,,,83,85
36480,note_on,3,0,3,,,,,,,,1,,,74,64
36480,note_on,3,0,10,,,,,,,,3,,,62,85
36480,note_on,0,0,1,,,,,,,,0,,,79,64
36503,note_on,23,0,9,,,,,,,,3,,,67,0
36503,note_on,23,0,1,,,,,,,,0,,,79,0
36503,note_on,23,0,8,,,,,,,,3,,,83,0
36503,note_on,0,0,1,,,,,,,,0,,,83,0
36504,note_on,1,0,9,,,,,,,,3,,,69,85
36504,note_on,1,0,8,,,,,,,,3,,,84,85
36504,note_on,0,0,1,,,,,,,,0,,,81,64
36504,note_on,1,0,1,,,,,,,,0,,,84,64
36525,note_on,45,0,10,,,,,,,,3,,,62,0
36525,note_on,45,0,11,,,,,,,,3,,,50,0
36527,note_on,23,0,8,,,,,,,,3,,,84,0
36527,note_on,23,0,9,,,,,,,,3,,,69,0
36527,note_on,23,0,1,,,,,,,,0,,,81,0
36527,note_on,0,0,1,,,,,,,,0,,,84,0
36528,note_on,1,0,9,,,,,,,,3,,,71,85
36528,note_on,3,0,10,,,,,,,,3,,,62,85
36528,note_on,1,0,8,,,,,,,,3,,,86,85
36528,note_on,1,0,1,,,,,,,,0,,,86,64
36528,note_on,3,0,11,,,,,,,,3,,,50,64
36528,note_on,0,0,1,,,,,,,,0,,,83,64
36538,note_on,10,0,8,,,,,,,,3,,,86,0
36538,note_on,10,0,9,,,,,,,,3,,,71,0
36551,note_on,23,0,1,,,,,,,,0,,,83,0
36551,note_on,0,0,1,,,,,,,,0,,,86,0
36552,note_on,14,0,9,,,,,,,,3,,,71,85
36552,note_on,14,0,8,,,,,,,,3,,,86,85
36552,note_on,0,0,1,,,,,,,,0,,,83,64
36552,note_on,1,0,1,,,,,,,,0,,,86,64
36562,note_on,10,0,9,,,,,,,,3,,,71,0
36562,note_on,10,0,8,,,,,,,,3,,,86,0
36569,note_on,89,0,4,,,,,,,,1,,,74,0
36569,note_on,89,0,3,,,,,,,,1,,,74,0
36573,note_on,45,0,11,,,,,,,,3,,,50,0
36573,note_on,45,0,10,,,,,,,,3,,,62,0
36575,note_on,23,0,1,,,,,,,,0,,,83,0
36575,note_on,0,0,1,,,,,,,,0,,,86,0
36576,note_on,14,0,8,,,,,,,,3,,,86,85
36576,note_on,3,0,10,,,,,,,,3,,,62,85
36576,note_on,3,0,11,,,,,,,,3,,,50,64
36576,note_on,7,0,4,,,,,,,,1,,,74,64
36576,note_on,7,0,3,,,,,,,,1,,,74,64
36576,note_on,1,0,1,,,,,,,,0,,,86,64
36576,note_on,0,0,1,,,,,,,,0,,,83,64
36576,note_on,14,0,9,,,,,,,,3,,,71,85
36599,note_on,23,0,8,,,,,,,,3,,,86,0
36599,note_on,23,0,9,,,,,,,,3,,,71,0
36600,note_on,1,0,9,,,,,,,,3,,,71,85
36600,note_on,1,0,8,,,,,,,,3,,,86,85
36621,note_on,45,0,10,,,,,,,,3,,,62,0
36621,note_on,45,0,11,,,,,,,,3,,,50,0
36621,note_on,45,0,3,,,,,,,,1,,,74,0
36621,note_on,45,0,4,,,,,,,,1,,,74,0
36623,note_on,23,0,8,,,,,,,,3,,,86,0
36623,note_on,23,0,9,,,,,,,,3,,,71,0
36624,note_on,3,0,10,,,,,,,,3,,,62,85
36624,note_on,1,0,9,,,,,,,,3,,,71,85
36624,note_on,3,0,4,,,,,,,,1,,,74,64
36624,note_on,1,0,8,,,,,,,,3,,,86,85
36624,note_on,3,0,11,,,,,,,,3,,,50,64
36624,note_on,3,0,3,,,,,,,,1,,,74,64
36647,note_on,23,0,9,,,,,,,,3,,,71,0
36647,note_on,23,0,8,,,,,,,,3,,,86,0
36648,note_on,1,0,8,,,,,,,,3,,,86,85
36648,note_on,1,0,9,,,,,,,,3,,,71,85
36669,note_on,45,0,4,,,,,,,,1,,,74,0
36669,note_on,45,0,10,,,,,,,,3,,,62,0
36669,note_on,45,0,3,,,,,,,,1,,,74,0
36669,note_on,45,0,11,,,,,,,,3,,,50,0
36671,note_on,23,0,9,,,,,,,,3,,,71,0
36671,note_on,23,0,8,,,,,,,,3,,,86,0
36672,note_on,1,0,9,,,,,,,,3,,,71,85
36672,note_on,3,0,3,,,,,,,,1,,,74,64
36672,note_on,3,0,10,,,,,,,,3,,,62,85
36672,note_on,3,0,4,,,,,,,,1,,,74,64
36672,note_on,3,0,11,,,,,,,,3,,,38,64
36672,note_on,1,0,8,,,,,,,,3,,,86,85
36709,note_on,133,0,1,,,,,,,,0,,,83,0
36709,note_on,0,0,1,,,,,,,,0,,,86,0
36717,note_on,45,0,11,,,,,,,,3,,,38,0
36717,note_on,45,0,10,,,,,,,,3,,,62,0
36717,note_on,45,0,8,,,,,,,,3,,,86,0
36717,note_on,45,0,9,,,,,,,,3,,,71,0
36720,note_on,3,0,9,,,,,,,,3,,,69,85
36720,note_on,3,0,11,,,,,,,,3,,,38,64
36720,note_on,3,0,8,,,,,,,,3,,,84,85
36720,note_on,3,0,10,,,,,,,,3,,,62,85
36720,note_on,11,0,1,,,,,,,,0,,,84,64
36720,note_on,0,0,1,,,,,,,,0,,,81,64
36761,note_on,89,0,3,,,,,,,,1,,,74,0
36761,note_on,89,0,4,,,,,,,,1,,,74,0
36765,note_on,45,0,8,,,,,,,,3,,,84,0
36765,note_on,45,0,10,,,,,,,,3,,,62,0
36765,note_on,0,0,1,,,,,,,,0,,,84,0
36765,note_on,45,0,1,,,,,,,,0,,,81,0
36765,note_on,45,0,9,,,,,,,,3,,,69,0
36765,note_on,45,0,11,,,,,,,,3,,,38,0
36768,note_on,3,0,8,,,,,,,,3,,,83,85
36768,note_on,3,0,9,,,,,,,,3,,,67,85
36768,note_on,7,0,4,,,,,,,,1,,,74,64
36768,note_on,0,0,1,,,,,,,,0,,,79,64
36768,note_on,3,0,10,,,,,,,,3,,,62,85
36768,note_on,3,0,1,,,,,,,,0,,,83,64
36768,note_on,7,0,3,,,,,,,,1,,,74,64
36768,note_on,3,0,11,,,,,,,,3,,,38,64
36788,note_on,20,0,9,,,,,,,,3,,,67,0
36788,note_on,20,0,8,,,,,,,,3,,,83,0
36813,note_on,0,0,1,,,,,,,,0,,,83,0
36813,note_on,45,0,1,,,,,,,,0,,,79,0
36813,note_on,45,0,10,,,,,,,,3,,,62,0
36813,note_on,45,0,11,,,,,,,,3,,,38,0
36816,note_on,3,0,1,,,,,,,,0,,,81,64
36816,note_on,28,0,8,,,,,,,,3,,,81,85
36816,note_on,3,0,10,,,,,,,,3,,,62,85
36816,note_on,0,0,1,,,,,,,,0,,,78,64
36816,note_on,28,0,9,,,,,,,,3,,,66,85
36816,note_on,3,0,11,,,,,,,,3,,,38,64
36836,note_on,20,0,9,,,,,,,,3,,,66,0
36836,note_on,20,0,8,,,,,,,,3,,,81,0
36857,note_on,89,0,3,,,,,,,,1,,,74,0
36857,note_on,89,0,4,,,,,,,,1,,,74,0
36861,note_on,45,0,11,,,,,,,,3,,,38,0
36861,note_on,45,0,1,,,,,,,,0,,,78,0
36861,note_on,0,0,1,,,,,,,,0,,,81,0
36861,note_on,45,0,10,,,,,,,,3,,,62,0
36864,note_on,7,0,3,,,,,,,,1,,,74,64
36864,note_on,28,0,8,,,,,,,,3,,,79,85
36864,note_on,3,0,11,,,,,,,,3,,,43,64
36864,note_on,7,0,4,,,,,,,,1,,,67,64
36864,note_on,3,0,10,,,,,,,,3,,,62,85
36864,note_on,28,0,9,,,,,,,,3,,,67,85
36864,note_on,3,0,1,,,,,,,,0,,,79,64
36864,note_on,0,0,10,,,,,,,,3,,,59,85
36884,note_on,20,0,8,,,,,,,,3,,,79,0
36884,note_on,20,0,9,,,,,,,,3,,,67,0
36909,note_on,45,0,4,,,,,,,,1,,,67,0
36909,note_on,45,0,3,,,,,,,,1,,,74,0
36909,note_on,0,0,10,,,,,,,,3,,,62,0
36909,note_on,45,0,10,,,,,,,,3,,,59,0
36909,note_on,45,0,11,,,,,,,,3,,,43,0
36909,note_on,45,0,1,,,,,,,,0,,,79,0
36960,note_on,76,0,8,,,,,,,,3,,,74,43
36960,note_on,76,0,9,,,,,,,,3,,,71,43
37027,note_on,67,0,8,,,,,,,,3,,,74,0
37027,note_on,67,0,9,,,,,,,,3,,,71,0
37032,note_on,5,0,9,,,,,,,,3,,,72,43
37032,note_on,5,0,8,,,,,,,,3,,,76,43
37055,note_on,23,0,9,,,,,,,,3,,,72,0
37055,note_on,23,0,8,,,,,,,,3,,,76,0
37056,note_on,147,0,11,,,,,,,,3,,,38,43
37056,note_on,147,0,10,,,,,,,,3,,,62,43
37056,note_on,1,0,9,,,,,,,,3,,,69,43
37056,note_on,1,0,8,,,,,,,,3,,,72,43
37076,note_on,20,0,8,,,,,,,,3,,,72,0
37076,note_on,20,0,11,,,,,,,,3,,,38,0
37076,note_on,20,0,10,,,,,,,,3,,,62,0
37076,note_on,20,0,9,,,,,,,,3,,,69,0
37152,note_on,76,0,8,,,,,,,,3,,,72,43
37152,note_on,76,0,9,,,,,,,,3,,,69,43
37219,note_on,67,0,8,,,,,,,,3,,,72,0
37219,note_on,67,0,9,,,,,,,,3,,,69,0
37224,note_on,5,0,8,,,,,,,,3,,,74,43
37224,note_on,5,0,9,,,,,,,,3,,,71,43
37247,note_on,23,0,8,,,,,,,,3,,,74,0
37247,note_on,23,0,9,,,,,,,,3,,,71,0
37248,note_on,172,0,10,,,,,,,,3,,,62,43
37248,note_on,172,0,11,,,,,,,,3,,,31,43
37248,note_on,1,0,8,,,,,,,,3,,,71,43
37248,note_on,1,0,9,,,,,,,,3,,,67,43
37268,note_on,20,0,8,,,,,,,,3,,,71,0
37268,note_on,20,0,9,,,,,,,,3,,,67,0
37268,note_on,20,0,11,,,,,,,,3,,,31,0
37268,note_on,20,0,10,,,,,,,,3,,,62,0
37344,note_on,435,0,4,,,,,,,,1,,,67,85
37344,note_on,76,0,10,,,,,,,,3,,,59,85
37344,note_on,435,0,3,,,,,,,,1,,,74,85
37344,note_on,0,0,1,,,,,,,,0,,,74,64
37344,note_on,76,0,9,,,,,,,,3,,,62,85
37344,note_on,76,0,8,,,,,,,,3,,,67,85
37344,note_on,76,0,11,,,,,,,,3,,,47,64
37344,note_on,435,0,1,,,,,,,,0,,,79,64
37367,note_on,23,0,8,,,,,,,,3,,,67,0
37368,note_on,1,0,8,,,,,,,,3,,,66,85
37391,note_on,23,0,8,,,,,,,,3,,,66,0
37392,note_on,1,0,8,,,,,,,,3,,,67,85
37402,note_on,10,0,8,,,,,,,,3,,,67,0
37416,note_on,14,0,8,,,,,,,,3,,,71,85
37426,note_on,10,0,8,,,,,,,,3,,,71,0
37433,note_on,89,0,11,,,,,,,,3,,,47,0
37433,note_on,89,0,3,,,,,,,,1,,,74,0
37433,note_on,89,0,9,,,,,,,,3,,,62,0
37433,note_on,0,0,1,,,,,,,,0,,,79,0
37433,note_on,89,0,10,,,,,,,,3,,,59,0
37433,note_on,89,0,4,,,,,,,,1,,,67,0
37433,note_on,89,0,1,,,,,,,,0,,,74,0
37440,note_on,7,0,1,,,,,,,,0,,,81,64
37440,note_on,0,0,1,,,,,,,,0,,,76,64
37440,note_on,7,0,3,,,,,,,,1,,,76,85
37440,note_on,7,0,10,,,,,,,,3,,,60,85
37440,note_on,7,0,11,,,,,,,,3,,,48,64
37440,note_on,7,0,9,,,,,,,,3,,,64,85
37440,note_on,7,0,4,,,,,,,,1,,,72,85
37440,note_on,14,0,8,,,,,,,,3,,,69,85
37485,note_on,45,0,8,,,,,,,,3,,,69,0
37488,note_on,3,0,8,,,,,,,,3,,,72,85
37529,note_on,89,0,11,,,,,,,,3,,,48,0
37529,note_on,89,0,9,,,,,,,,3,,,64,0
37529,note_on,89,0,1,,,,,,,,0,,,76,0
37529,note_on,89,0,10,,,,,,,,3,,,60,0
37529,note_on,89,0,3,,,,,,,,1,,,76,0
37529,note_on,0,0,1,,,,,,,,0,,,81,0
37529,note_on,89,0,4,,,,,,,,1,,,72,0
37533,note_on,45,0,8,,,,,,,,3,,,72,0
37536,note_on,7,0,10,,,,,,,,3,,,62,85
37536,note_on,7,0,4,,,,,,,,1,,,74,85
37536,note_on,7,0,9,,,,,,,,3,,,60,85
37536,note_on,7,0,1,,,,,,,,0,,,78,64
37536,note_on,3,0,8,,,,,,,,3,,,66,85
37536,note_on,0,0,1,,,,,,,,0,,,72,64
37536,note_on,7,0,11,,,,,,,,3,,,50,64
37536,note_on,7,0,3,,,,,,,,1,,,74,85
37559,note_on,23,0,8,,,,,,,,3,,,66,0
37560,note_on,1,0,8,,,,,,,,3,,,64,85
37583,note_on,23,0,8,,,,,,,,3,,,64,0
37584,note_on,1,0,8,,,,,,,,3,,,66,85
37594,note_on,10,0,8,,,,,,,,3,,,66,0
37608,note_on,14,0,8,,,,,,,,3,,,69,85
37618,note_on,10,0,8,,,,,,,,3,,,69,0
37625,note_on,89,0,3,,,,,,,,1,,,74,0
37625,note_on,89,0,9,,,,,,,,3,,,60,0
37625,note_on,89,0,11,,,,,,,,3,,,50,0
37625,note_on,0,0,1,,,,,,,,0,,,78,0
37625,note_on,89,0,4,,,,,,,,1,,,74,0
37625,note_on,89,0,10,,,,,,,,3,,,62,0
37625,note_on,89,0,1,,,,,,,,0,,,72,0
37632,note_on,7,0,1,,,,,,,,0,,,79,64
37632,note_on,0,0,1,,,,,,,,0,,,71,64
37632,note_on,7,0,10,,,,,,,,3,,,62,85
37632,note_on,14,0,8,,,,,,,,3,,,67,85
37632,note_on,7,0,11,,,,,,,,3,,,43,64
37632,note_on,7,0,4,,,,,,,,1,,,67,85
37632,note_on,7,0,9,,,,,,,,3,,,59,85
37632,note_on,7,0,3,,,,,,,,1,,,74,85
37721,note_on,0,0,1,,,,,,,,0,,,79,0
37721,note_on,89,0,11,,,,,,,,3,,,43,0
37721,note_on,89,0,4,,,,,,,,1,,,67,0
37721,note_on,89,0,9,,,,,,,,3,,,59,0
37721,note_on,89,0,10,,,,,,,,3,,,62,0
37721,note_on,89,0,1,,,,,,,,0,,,71,0
37721,note_on,89,0,8,,,,,,,,3,,,67,0
37721,note_on,89,0,3,,,,,,,,1,,,74,0
37728,note_on,3079,0,5,,,,,,,,2,,,74,64
37728,note_on,3079,0,6,,,,,,,,2,,,71,64
37751,note_on,23,0,6,,,,,,,,2,,,71,0
37751,note_on,23,0,5,,,,,,,,2,,,74,0
37752,note_on,1,0,6,,,,,,,,2,,,69,64
37752,note_on,1,0,5,,,,,,,,2,,,72,64
37775,note_on,23,0,5,,,,,,,,2,,,72,0
37775,note_on,23,0,6,,,,,,,,2,,,69,0
37776,note_on,1,0,6,,,,,,,,2,,,71,64
37776,note_on,1,0,5,,,,,,,,2,,,74,64
37799,note_on,23,0,6,,,,,,,,2,,,71,0
37799,note_on,23,0,5,,,,,,,,2,,,74,0
37800,note_on,1,0,5,,,,,,,,2,,,76,64
37800,note_on,1,0,6,,,,,,,,2,,,67,64
37823,note_on,23,0,5,,,,,,,,2,,,76,0
37823,note_on,23,0,6,,,,,,,,2,,,67,0
37824,note_on,1,0,5,,,,,,,,2,,,72,64
37824,note_on,1,0,6,,,,,,,,2,,,69,64
37844,note_on,20,0,5,,,,,,,,2,,,72,0
37844,note_on,20,0,6,,,,,,,,2,,,69,0
37920,note_on,76,0,6,,,,,,,,2,,,69,64
37920,note_on,76,0,5,,,,,,,,2,,,72,64
37943,note_on,23,0,6,,,,,,,,2,,,69,0
37943,note_on,23,0,5,,,,,,,,2,,,72,0
37944,note_on,1,0,6,,,,,,,,2,,,67,64
37944,note_on,1,0,5,,,,,,,,2,,,71,64
37967,note_on,23,0,5,,,,,,,,2,,,71,0
37967,note_on,23,0,6,,,,,,,,2,,,67,0
37968,note_on,1,0,6,,,,,,,,2,,,69,64
37968,note_on,1,0,5,,,,,,,,2,,,72,64
37991,note_on,23,0,5,,,,,,,,2,,,72,0
37991,note_on,23,0,6,,,,,,,,2,,,69,0
37992,note_on,1,0,6,,,,,,,,2,,,66,64
37992,note_on,1,0,5,,,,,,,,2,,,74,64
38015,note_on,23,0,6,,,,,,,,2,,,66,0
38015,note_on,23,0,5,,,,,,,,2,,,74,0
38016,note_on,1,0,5,,,,,,,,2,,,71,64
38016,note_on,1,0,6,,,,,,,,2,,,67,64
38036,note_on,20,0,5,,,,,,,,2,,,71,0
38036,note_on,20,0,6,,,,,,,,2,,,67,0
38112,note_on,76,0,5,,,,,,,,2,,,79,85
38112,note_on,76,0,6,,,,,,,,2,,,71,85
38135,note_on,23,0,5,,,,,,,,2,,,79,0
38136,note_on,1,0,5,,,,,,,,2,,,78,85
38157,note_on,45,0,6,,,,,,,,2,,,71,0
38159,note_on,23,0,5,,,,,,,,2,,,78,0
38160,note_on,1,0,5,,,,,,,,2,,,79,85
38183,note_on,23,0,5,,,,,,,,2,,,79,0
38184,note_on,1,0,5,,,,,,,,2,,,83,85
38207,note_on,23,0,5,,,,,,,,2,,,83,0
38208,note_on,51,0,6,,,,,,,,2,,,72,85
38208,note_on,1,0,5,,,,,,,,2,,,81,85
38231,note_on,23,0,5,,,,,,,,2,,,81,0
38232,note_on,1,0,5,,,,,,,,2,,,79,85
38253,note_on,45,0,6,,,,,,,,2,,,72,0
38255,note_on,23,0,5,,,,,,,,2,,,79,0
38256,note_on,1,0,5,,,,,,,,2,,,81,85
38279,note_on,23,0,5,,,,,,,,2,,,81,0
38280,note_on,1,0,5,,,,,,,,2,,,84,85
38303,note_on,23,0,5,,,,,,,,2,,,84,0
38304,note_on,1,0,5,,,,,,,,2,,,78,85
38304,note_on,51,0,6,,,,,,,,2,,,74,85
38327,note_on,23,0,5,,,,,,,,2,,,78,0
38328,note_on,1,0,5,,,,,,,,2,,,76,85
38349,note_on,45,0,6,,,,,,,,2,,,74,0
38351,note_on,23,0,5,,,,,,,,2,,,76,0
38352,note_on,1,0,5,,,,,,,,2,,,78,85
38375,note_on,23,0,5,,,,,,,,2,,,78,0
38376,note_on,1,0,5,,,,,,,,2,,,81,85
38399,note_on,23,0,5,,,,,,,,2,,,81,0
38400,note_on,51,0,6,,,,,,,,2,,,55,64
38400,note_on,679,0,11,,,,,,,,3,,,43,43
38400,note_on,1,0,5,,,,,,,,2,,,79,85
38423,note_on,23,0,6,,,,,,,,2,,,55,0
38424,note_on,1,0,6,,,,,,,,2,,,62,64
38447,note_on,23,0,6,,,,,,,,2,,,62,0
38448,note_on,727,0,9,,,,,,,,3,,,71,43
38448,note_on,727,0,10,,,,,,,,3,,,67,43
38448,note_on,1,0,6,,,,,,,,2,,,59,64
38448,note_on,727,0,8,,,,,,,,3,,,74,43
38471,note_on,23,0,6,,,,,,,,2,,,59,0
38472,note_on,1,0,6,,,,,,,,2,,,62,64
38489,note_on,89,0,11,,,,,,,,3,,,43,0
38495,note_on,23,0,6,,,,,,,,2,,,62,0
38496,note_on,1,0,6,,,,,,,,2,,,55,64
38519,note_on,23,0,6,,,,,,,,2,,,55,0
38520,note_on,1,0,6,,,,,,,,2,,,62,64
38533,note_on,133,0,5,,,,,,,,2,,,79,0
38537,note_on,89,0,10,,,,,,,,3,,,67,0
38537,note_on,89,0,9,,,,,,,,3,,,71,0
38537,note_on,89,0,8,,,,,,,,3,,,74,0
38543,note_on,23,0,6,,,,,,,,2,,,62,0
38544,note_on,7,0,8,,,,,,,,3,,,74,43
38544,note_on,11,0,5,,,,,,,,2,,,74,85
38544,note_on,1,0,6,,,,,,,,2,,,59,64
38544,note_on,7,0,10,,,,,,,,3,,,67,43
38544,note_on,7,0,9,,,,,,,,3,,,71,43
38567,note_on,23,0,6,,,,,,,,2,,,59,0
38568,note_on,1,0,6,,,,,,,,2,,,62,64
38589,note_on,45,0,5,,,,,,,,2,,,74,0
38591,note_on,23,0,6,,,,,,,,2,,,62,0
38592,note_on,3,0,5,,,,,,,,2,,,83,85
38592,note_on,103,0,11,,,,,,,,3,,,43,43
38592,note_on,1,0,6,,,,,,,,2,,,55,64
38615,note_on,23,0,6,,,,,,,,2,,,55,0
38616,note_on,1,0,6,,,,,,,,2,,,62,64
38633,note_on,89,0,8,,,,,,,,3,,,74,0
38633,note_on,89,0,10,,,,,,,,3,,,67,0
38633,note_on,89,0,9,,,,,,,,3,,,71,0
38639,note_on,23,0,6,,,,,,,,2,,,62,0
38640,note_on,7,0,8,,,,,,,,3,,,74,43
38640,note_on,1,0,6,,,,,,,,2,,,59,64
38640,note_on,7,0,10,,,,,,,,3,,,67,43
38640,note_on,7,0,9,,,,,,,,3,,,71,43
38663,note_on,23,0,6,,,,,,,,2,,,59,0
38664,note_on,1,0,6,,,,,,,,2,,,62,64
38681,note_on,89,0,11,,,,,,,,3,,,43,0
38687,note_on,23,0,6,,,,,,,,2,,,62,0
38688,note_on,1,0,6,,,,,,,,2,,,55,64
38711,note_on,23,0,6,,,,,,,,2,,,55,0
38712,note_on,1,0,6,,,,,,,,2,,,62,64
38725,note_on,133,0,5,,,,,,,,2,,,83,0
38729,note_on,89,0,8,,,,,,,,3,,,74,0
38729,note_on,89,0,9,,,,,,,,3,,,71,0
38729,note_on,89,0,10,,,,,,,,3,,,67,0
38735,note_on,23,0,6,,,,,,,,2,,,62,0
38736,note_on,7,0,9,,,,,,,,3,,,71,43
38736,note_on,11,0,5,,,,,,,,2,,,79,85
38736,note_on,7,0,10,,,,,,,,3,,,67,43
38736,note_on,1,0,6,,,,,,,,2,,,59,64
38736,note_on,7,0,8,,,,,,,,3,,,74,43
38759,note_on,23,0,6,,,,,,,,2,,,59,0
38760,note_on,1,0,6,,,,,,,,2,,,62,64
38781,note_on,45,0,9,,,,,,,,3,,,71,0
38781,note_on,45,0,5,,,,,,,,2,,,79,0
38781,note_on,45,0,10,,,,,,,,3,,,67,0
38781,note_on,45,0,8,,,,,,,,3,,,74,0
38783,note_on,23,0,6,,,,,,,,2,,,62,0
38784,note_on,3,0,5,,,,,,,,2,,,86,85
38784,note_on,1,0,6,,,,,,,,2,,,54,64
38784,note_on,103,0,11,,,,,,,,3,,,42,43
38807,note_on,23,0,6,,,,,,,,2,,,54,0
38808,note_on,1,0,6,,,,,,,,2,,,62,64
38829,note_on,45,0,5,,,,,,,,2,,,86,0
38831,note_on,23,0,6,,,,,,,,2,,,62,0
38832,note_on,51,0,8,,,,,,,,3,,,74,43
38832,note_on,1,0,6,,,,,,,,2,,,57,64
38832,note_on,51,0,9,,,,,,,,3,,,72,43
38832,note_on,51,0,10,,,,,,,,3,,,69,43
38832,note_on,3,0,5,,,,,,,,2,,,84,85
38832,note_on,0,0,10,,,,,,,,3,,,66,43
38855,note_on,23,0,6,,,,,,,,2,,,57,0
38856,note_on,1,0,6,,,,,,,,2,,,62,64
38873,note_on,89,0,11,,,,,,,,3,,,42,0
38877,note_on,45,0,5,,,,,,,,2,,,84,0
38879,note_on,23,0,6,,,,,,,,2,,,62,0
38880,note_on,3,0,5,,,,,,,,2,,,81,85
38880,note_on,1,0,6,,,,,,,,2,,,54,64
38903,note_on,23,0,6,,,,,,,,2,,,54,0
38904,note_on,1,0,6,,,,,,,,2,,,62,64
38921,note_on,89,0,10,,,,,,,,3,,,66,0
38921,note_on,0,0,10,,,,,,,,3,,,69,0
38921,note_on,89,0,8,,,,,,,,3,,,74,0
38921,note_on,89,0,9,,,,,,,,3,,,72,0
38925,note_on,45,0,5,,,,,,,,2,,,81,0
38927,note_on,23,0,6,,,,,,,,2,,,62,0
38928,note_on,3,0,5,,,,,,,,2,,,78,85
38928,note_on,7,0,9,,,,,,,,3,,,72,43
38928,note_on,7,0,8,,,,,,,,3,,,74,43
38928,note_on,1,0,6,,,,,,,,2,,,57,64
38928,note_on,0,0,10,,,,,,,,3,,,66,43
38928,note_on,7,0,10,,,,,,,,3,,,69,43
38951,note_on,23,0,6,,,,,,,,2,,,57,0
38952,note_on,1,0,6,,,,,,,,2,,,62,64
38973,note_on,45,0,5,,,,,,,,2,,,78,0
38975,note_on,23,0,6,,,,,,,,2,,,62,0
38976,note_on,3,0,5,,,,,,,,2,,,74,85
38976,note_on,103,0,11,,,,,,,,3,,,42,43
38976,note_on,1,0,6,,,,,,,,2,,,54,64
38999,note_on,23,0,6,,,,,,,,2,,,54,0
39000,note_on,1,0,6,,,,,,,,2,,,62,64
39017,note_on,89,0,9,,,,,,,,3,,,72,0
39017,note_on,0,0,10,,,,,,,,3,,,69,0
39017,note_on,89,0,8,,,,,,,,3,,,74,0
39017,note_on,89,0,10,,,,,,,,3,,,66,0
39021,note_on,45,0,5,,,,,,,,2,,,74,0
39023,note_on,23,0,6,,,,,,,,2,,,62,0
39024,note_on,0,0,10,,,,,,,,3,,,66,43
39024,note_on,7,0,10,,,,,,,,3,,,69,43
39024,note_on,3,0,5,,,,,,,,2,,,72,85
39024,note_on,7,0,8,,,,,,,,3,,,74,43
39024,note_on,7,0,9,,,,,,,,3,,,72,43
39024,note_on,1,0,6,,,,,,,,2,,,57,64
39047,note_on,23,0,6,,,,,,,,2,,,57,0
39048,note_on,1,0,6,,,,,,,,2,,,62,64
39065,note_on,89,0,11,,,,,,,,3,,,42,0
39069,note_on,45,0,5,,,,,,,,2,,,72,0
39071,note_on,23,0,6,,,,,,,,2,,,62,0
39072,note_on,1,0,6,,,,,,,,2,,,54,64
39072,note_on,3,0,5,,,,,,,,2,,,69,85
39095,note_on,23,0,6,,,,,,,,2,,,54,0
39096,note_on,1,0,6,,,,,,,,2,,,62,64
39113,note_on,0,0,10,,,,,,,,3,,,69,0
39113,note_on,89,0,10,,,,,,,,3,,,66,0
39113,note_on,89,0,8,,,,,,,,3,,,74,0
39113,note_on,89,0,9,,,,,,,,3,,,72,0
39117,note_on,45,0,5,,,,,,,,2,,,69,0
39119,note_on,23,0,6,,,,,,,,2,,,62,0
39120,note_on,0,0,10,,,,,,,,3,,,66,43
39120,note_on,7,0,8,,,,,,,,3,,,74,43
39120,note_on,7,0,10,,,,,,,,3,,,69,43
39120,note_on,3,0,5,,,,,,,,2,,,72,85
39120,note_on,1,0,6,,,,,,,,2,,,57,64
39120,note_on,7,0,9,,,,,,,,3,,,72,43
39143,note_on,23,0,6,,,,,,,,2,,,57,0
39144,note_on,1,0,6,,,,,,,,2,,,62,64
39165,note_on,45,0,10,,,,,,,,3,,,66,0
39165,note_on,45,0,9,,,,,,,,3,,,72,0
39165,note_on,45,0,8,,,,,,,,3,,,74,0
39165,note_on,45,0,5,,,,,,,,2,,,72,0
39165,note_on,0,0,10,,,,,,,,3,,,69,0
39167,note_on,23,0,6,,,,,,,,2,,,62,0
39168,note_on,3,0,5,,,,,,,,2,,,71,85
39168,note_on,103,0,11,,,,,,,,3,,,43,43
39168,note_on,1,0,6,,,,,,,,2,,,55,64
39191,note_on,23,0,6,,,,,,,,2,,,55,0
39192,note_on,1,0,6,,,,,,,,2,,,62,64
39215,note_on,23,0,6,,,,,,,,2,,,62,0
39216,note_on,51,0,8,,,,,,,,3,,,74,43
39216,note_on,51,0,9,,,,,,,,3,,,71,43
39216,note_on,51,0,10,,,,,,,,3,,,67,43
39216,note_on,1,0,6,,,,,,,,2,,,59,64
39235,note_on,67,0,5,,,,,,,,2,,,71,0
39239,note_on,23,0,6,,,,,,,,2,,,59,0
39240,note_on,1,0,6,,,,,,,,2,,,62,64
39240,note_on,5,0,5,,,,,,,,2,,,67,85
39257,note_on,89,0,11,,,,,,,,3,,,43,0
39263,note_on,23,0,6,,,,,,,,2,,,62,0
39263,note_on,23,0,5,,,,,,,,2,,,67,0
39264,note_on,1,0,5,,,,,,,,2,,,74,85
39264,note_on,1,0,6,,,,,,,,2,,,55,64
39287,note_on,23,0,6,,,,,,,,2,,,55,0
39288,note_on,1,0,6,,,,,,,,2,,,62,64
39305,note_on,89,0,9,,,,,,,,3,,,71,0
39305,note_on,89,0,8,,,,,,,,3,,,74,0
39305,note_on,89,0,10,,,,,,,,3,,,67,0
39311,note_on,23,0,6,,,,,,,,2,,,62,0
39312,note_on,7,0,9,,,,,,,,3,,,71,43
39312,note_on,7,0,8,,,,,,,,3,,,74,43
39312,note_on,7,0,10,,,,,,,,3,,,67,43
39312,note_on,1,0,6,,,,,,,,2,,,59,64
39331,note_on,67,0,5,,,,,,,,2,,,74,0
39335,note_on,23,0,6,,,,,,,,2,,,59,0
39336,note_on,5,0,5,,,,,,,,2,,,71,85
39336,note_on,1,0,6,,,,,,,,2,,,62,64
39359,note_on,23,0,6,,,,,,,,2,,,62,0
39359,note_on,23,0,5,,,,,,,,2,,,71,0
39360,note_on,103,0,11,,,,,,,,3,,,43,43
39360,note_on,1,0,6,,,,,,,,2,,,55,64
39360,note_on,1,0,5,,,,,,,,2,,,79,85
39383,note_on,23,0,6,,,,,,,,2,,,55,0
39384,note_on,1,0,6,,,,,,,,2,,,62,64
39401,note_on,89,0,8,,,,,,,,3,,,74,0
39401,note_on,89,0,9,,,,,,,,3,,,71,0
39401,note_on,89,0,10,,,,,,,,3,,,67,0
39407,note_on,23,0,6,,,,,,,,2,,,62,0
39408,note_on,1,0,6,,,,,,,,2,,,59,64
39408,note_on,7,0,8,,,,,,,,3,,,74,43
39408,note_on,7,0,10,,,,,,,,3,,,67,43
39408,note_on,7,0,9,,,,,,,,3,,,71,43
39427,note_on,67,0,5,,,,,,,,2,,,79,0
39431,note_on,23,0,6,,,,,,,,2,,,59,0
39432,note_on,1,0,6,,,,,,,,2,,,62,64
39432,note_on,5,0,5,,,,,,,,2,,,74,85
39449,note_on,89,0,11,,,,,,,,3,,,43,0
39455,note_on,23,0,6,,,,,,,,2,,,62,0
39455,note_on,23,0,5,,,,,,,,2,,,74,0
39456,note_on,1,0,6,,,,,,,,2,,,55,64
39456,note_on,1,0,5,,,,,,,,2,,,83,85
39479,note_on,23,0,6,,,,,,,,2,,,55,0
39480,note_on,1,0,6,,,,,,,,2,,,62,64
39497,note_on,89,0,9,,,,,,,,3,,,71,0
39497,note_on,89,0,10,,,,,,,,3,,,67,0
39497,note_on,89,0,8,,,,,,,,3,,,74,0
39503,note_on,23,0,6,,,,,,,,2,,,62,0
39504,note_on,1,0,6,,,,,,,,2,,,59,64
39504,note_on,7,0,9,,,,,,,,3,,,71,43
39504,note_on,7,0,8,,,,,,,,3,,,74,43
39504,note_on,7,0,10,,,,,,,,3,,,67,43
39523,note_on,67,0,5,,,,,,,,2,,,83,0
39527,note_on,23,0,6,,,,,,,,2,,,59,0
39528,note_on,1,0,6,,,,,,,,2,,,62,64
39528,note_on,5,0,5,,,,,,,,2,,,79,85
39549,note_on,45,0,8,,,,,,,,3,,,74,0
39549,note_on,45,0,9,,,,,,,,3,,,71,0
39549,note_on,45,0,10,,,,,,,,3,,,67,0
39551,note_on,23,0,6,,,,,,,,2,,,62,0
39551,note_on,23,0,5,,,,,,,,2,,,79,0
39552,note_on,1,0,6,,,,,,,,2,,,62,85
39552,note_on,0,0,6,,,,,,,,2,,,57,85
39552,note_on,0,0,6,,,,,,,,2,,,54,85
39552,note_on,1,0,5,,,,,,,,2,,,84,85
39552,note_on,103,0,11,,,,,,,,3,,,42,43
39575,note_on,23,0,5,,,,,,,,2,,,84,0
39576,note_on,1,0,5,,,,,,,,2,,,86,85
39599,note_on,23,0,5,,,,,,,,2,,,86,0
39600,note_on,51,0,8,,,,,,,,3,,,74,43
39600,note_on,51,0,10,,,,,,,,3,,,69,43
39600,note_on,51,0,9,,,,,,,,3,,,72,43
39600,note_on,1,0,5,,,,,,,,2,,,84,85
39600,note_on,0,0,10,,,,,,,,3,,,66,43
39623,note_on,23,0,5,,,,,,,,2,,,84,0
39624,note_on,1,0,5,,,,,,,,2,,,83,85
39641,note_on,89,0,11,,,,,,,,3,,,42,0
39641,note_on,0,0,6,,,,,,,,2,,,62,0
39641,note_on,0,0,6,,,,,,,,2,,,57,0
39641,note_on,89,0,6,,,,,,,,2,,,54,0
39647,note_on,23,0,5,,,,,,,,2,,,83,0
39648,note_on,1,0,5,,,,,,,,2,,,81,85
39671,note_on,23,0,5,,,,,,,,2,,,81,0
39672,note_on,1,0,5,,,,,,,,2,,,83,85
39689,note_on,0,0,10,,,,,,,,3,,,69,0
39689,note_on,89,0,8,,,,,,,,3,,,74,0
39689,note_on,89,0,9,,,,,,,,3,,,72,0
39689,note_on,89,0,10,,,,,,,,3,,,66,0
39695,note_on,23,0,5,,,,,,,,2,,,83,0
39696,note_on,7,0,10,,,,,,,,3,,,69,43
39696,note_on,0,0,10,,,,,,,,3,,,66,43
39696,note_on,1,0,5,,,,,,,,2,,,81,85
39696,note_on,7,0,9,,,,,,,,3,,,72,43
39696,note_on,7,0,8,,,,,,,,3,,,74,43
39719,note_on,23,0,5,,,,,,,,2,,,81,0
39720,note_on,1,0,5,,,,,,,,2,,,79,85
39743,note_on,23,0,5,,,,,,,,2,,,79,0
39744,note_on,103,0,11,,,,,,,,3,,,42,43
39744,note_on,103,0,6,,,,,,,,2,,,62,85
39744,note_on,1,0,5,,,,,,,,2,,,78,85
39744,note_on,0,0,6,,,,,,,,2,,,57,85
39744,note_on,0,0,6,,,,,,,,2,,,50,85
39767,note_on,23,0,5,,,,,,,,2,,,78,0
39768,note_on,1,0,5,,,,,,,,2,,,79,85
39785,note_on,0,0,10,,,,,,,,3,,,69,0
39785,note_on,89,0,9,,,,,,,,3,,,72,0
39785,note_on,89,0,10,,,,,,,,3,,,66,0
39785,note_on,89,0,8,,,,,,,,3,,,74,0
39791,note_on,23,0,5,,,,,,,,2,,,79,0
39792,note_on,7,0,8,,,,,,,,3,,,74,43
39792,note_on,7,0,10,,,,,,,,3,,,69,43
39792,note_on,0,0,10,,,,,,,,3,,,66,43
39792,note_on,1,0,5,,,,,,,,2,,,78,85
39792,note_on,7,0,9,,,,,,,,3,,,72,43
39815,note_on,23,0,5,,,,,,,,2,,,78,0
39816,note_on,1,0,5,,,,,,,,2,,,76,85
39833,note_on,89,0,6,,,,,,,,2,,,50,0
39833,note_on,0,0,6,,,,,,,,2,,,57,0
39833,note_on,89,0,11,,,,,,,,3,,,42,0
39833,note_on,0,0,6,,,,,,,,2,,,62,0
39839,note_on,23,0,5,,,,,,,,2,,,76,0
39840,note_on,1,0,5,,,,,,,,2,,,74,85
39863,note_on,23,0,5,,,,,,,,2,,,74,0
39864,note_on,1,0,5,,,,,,,,2,,,76,85
39881,note_on,89,0,8,,,,,,,,3,,,74,0
39881,note_on,89,0,10,,,,,,,,3,,,66,0
39881,note_on,0,0,10,,,,,,,,3,,,69,0
39881,note_on,89,0,9,,,,,,,,3,,,72,0
39887,note_on,23,0,5,,,,,,,,2,,,76,0
39888,note_on,7,0,9,,,,,,,,3,,,72,43
39888,note_on,1,0,5,,,,,,,,2,,,74,85
39888,note_on,7,0,10,,,,,,,,3,,,69,43
39888,note_on,7,0,8,,,,,,,,3,,,74,43
39888,note_on,0,0,10,,,,,,,,3,,,66,43
39911,note_on,23,0,5,,,,,,,,2,,,74,0
39912,note_on,1,0,5,,,,,,,,2,,,72,85
39933,note_on,45,0,10,,,,,,,,3,,,66,0
39933,note_on,0,0,10,,,,,,,,3,,,69,0
39935,note_on,23,0,5,,,,,,,,2,,,72,0
39936,note_on,103,0,6,,,,,,,,2,,,55,64
39936,note_on,103,0,11,,,,,,,,3,,,43,43
39936,note_on,1,0,5,,,,,,,,2,,,71,64
39936,note_on,3,0,10,,,,,,,,3,,,67,43
39959,note_on,23,0,5,,,,,,,,2,,,71,0
39960,note_on,1,0,5,,,,,,,,2,,,74,64
39981,note_on,45,0,6,,,,,,,,2,,,55,0
39981,note_on,93,0,9,,,,,,,,3,,,72,0
39981,note_on,93,0,8,,,,,,,,3,,,74,0
39981,note_on,45,0,11,,,,,,,,3,,,43,0
39981,note_on,45,0,10,,,,,,,,3,,,67,0
39983,note_on,23,0,5,,,,,,,,2,,,74,0
39984,note_on,1,0,5,,,,,,,,2,,,79,64
40007,note_on,23,0,5,,,,,,,,2,,,79,0
40008,note_on,1,0,5,,,,,,,,2,,,78,64
40031,note_on,23,0,5,,,,,,,,2,,,78,0
40032,note_on,51,0,6,,,,,,,,2,,,59,64
40032,note_on,51,0,11,,,,,,,,3,,,47,43
40032,note_on,1,0,5,,,,,,,,2,,,79,64
40032,note_on,51,0,8,,,,,,,,3,,,71,43
40032,note_on,51,0,9,,,,,,,,3,,,67,43
40032,note_on,51,0,10,,,,,,,,3,,,62,43
40055,note_on,23,0,5,,,,,,,,2,,,79,0
40056,note_on,1,0,5,,,,,,,,2,,,74,64
40077,note_on,45,0,6,,,,,,,,2,,,59,0
40077,note_on,45,0,10,,,,,,,,3,,,62,0
40077,note_on,45,0,11,,,,,,,,3,,,47,0
40077,note_on,45,0,8,,,,,,,,3,,,71,0
40077,note_on,45,0,9,,,,,,,,3,,,67,0
40079,note_on,23,0,5,,,,,,,,2,,,74,0
40080,note_on,1,0,5,,,,,,,,2,,,72,64
40103,note_on,23,0,5,,,,,,,,2,,,72,0
40104,note_on,1,0,5,,,,,,,,2,,,71,64
40127,note_on,23,0,5,,,,,,,,2,,,71,0
40128,note_on,1,0,5,,,,,,,,2,,,69,64
40128,note_on,51,0,11,,,,,,,,3,,,48,43
40128,note_on,51,0,6,,,,,,,,2,,,60,64
40128,note_on,51,0,9,,,,,,,,3,,,67,43
40128,note_on,51,0,10,,,,,,,,3,,,64,43
40128,note_on,51,0,8,,,,,,,,3,,,69,43
40151,note_on,23,0,5,,,,,,,,2,,,69,0
40152,note_on,1,0,5,,,,,,,,2,,,71,64
40173,note_on,45,0,9,,,,,,,,3,,,67,0
40173,note_on,45,0,8,,,,,,,,3,,,69,0
40173,note_on,45,0,10,,,,,,,,3,,,64,0
40173,note_on,45,0,11,,,,,,,,3,,,48,0
40173,note_on,45,0,6,,,,,,,,2,,,60,0
40175,note_on,23,0,5,,,,,,,,2,,,71,0
40176,note_on,1,0,5,,,,,,,,2,,,72,64
40199,note_on,23,0,5,,,,,,,,2,,,72,0
40200,note_on,1,0,5,,,,,,,,2,,,71,64
40223,note_on,23,0,5,,,,,,,,2,,,71,0
40224,note_on,1,0,5,,,,,,,,2,,,72,64
40224,note_on,51,0,10,,,,,,,,3,,,62,43
40224,note_on,51,0,9,,,,,,,,3,,,66,43
40224,note_on,51,0,6,,,,,,,,2,,,62,64
40224,note_on,51,0,11,,,,,,,,3,,,50,43
40224,note_on,51,0,8,,,,,,,,3,,,69,43
40247,note_on,23,0,5,,,,,,,,2,,,72,0
40248,note_on,1,0,5,,,,,,,,2,,,69,64
40269,note_on,45,0,9,,,,,,,,3,,,66,0
40269,note_on,45,0,11,,,,,,,,3,,,50,0
40269,note_on,45,0,10,,,,,,,,3,,,62,0
40269,note_on,45,0,6,,,,,,,,2,,,62,0
40269,note_on,45,0,8,,,,,,,,3,,,69,0
40271,note_on,23,0,5,,,,,,,,2,,,69,0
40272,note_on,1,0,5,,,,,,,,2,,,67,64
40295,note_on,23,0,5,,,,,,,,2,,,67,0
40296,note_on,1,0,5,,,,,,,,2,,,66,64
40319,note_on,23,0,5,,,,,,,,2,,,66,0
40320,note_on,51,0,8,,,,,,,,3,,,67,43
40320,note_on,51,0,10,,,,,,,,3,,,62,43
40320,note_on,51,0,9,,,,,,,,3,,,67,43
40320,note_on,51,0,6,,,,,,,,2,,,59,64
40320,note_on,51,0,11,,,,,,,,3,,,43,43
40320,note_on,0,0,6,,,,,,,,2,,,55,64
40320,note_on,1,0,5,,,,,,,,2,,,67,64
40365,note_on,45,0,11,,,,,,,,3,,,43,0
40365,note_on,45,0,10,,,,,,,,3,,,62,0
40365,note_on,45,0,9,,,,,,,,3,,,67,0
40365,note_on,45,0,8,,,,,,,,3,,,67,0
40368,note_on,3,0,9,,,,,,,,3,,,67,85
40368,note_on,2647,0,1,,,,,,,,0,,,79,64
40368,note_on,3,0,11,,,,,,,,3,,,43,64
40368,note_on,3,0,8,,,,,,,,3,,,67,85
40368,note_on,3,0,10,,,,,,,,3,,,67,85
40388,note_on,20,0,9,,,,,,,,3,,,67,0
40388,note_on,20,0,11,,,,,,,,3,,,43,0
40388,note_on,20,0,10,,,,,,,,3,,,67,0
40409,note_on,89,0,5,,,,,,,,2,,,67,0
40409,note_on,0,0,6,,,,,,,,2,,,59,0
40409,note_on,89,0,6,,,,,,,,2,,,55,0
40413,note_on,45,0,1,,,,,,,,0,,,79,0
40413,note_on,45,0,8,,,,,,,,3,,,67,0
40416,note_on,3,0,8,,,,,,,,3,,,59,85
40416,note_on,3,0,1,,,,,,,,0,,,71,64
40416,note_on,28,0,10,,,,,,,,3,,,59,85
40416,note_on,28,0,11,,,,,,,,3,,,35,64
40416,note_on,28,0,9,,,,,,,,3,,,59,85
40436,note_on,20,0,11,,,,,,,,3,,,35,0
40436,note_on,20,0,9,,,,,,,,3,,,59,0
40436,note_on,20,0,10,,,,,,,,3,,,59,0
40436,note_on,20,0,8,,,,,,,,3,,,59,0
40436,note_on,20,0,1,,,,,,,,0,,,71,0
40464,note_on,28,0,8,,,,,,,,3,,,67,85
40464,note_on,28,0,9,,,,,,,,3,,,67,85
40464,note_on,28,0,1,,,,,,,,0,,,79,64
40464,note_on,28,0,11,,,,,,,,3,,,43,64
40464,note_on,28,0,10,,,,,,,,3,,,67,85
40484,note_on,20,0,9,,,,,,,,3,,,67,0
40484,note_on,20,0,10,,,,,,,,3,,,67,0
40484,note_on,20,0,8,,,,,,,,3,,,67,0
40484,note_on,20,0,11,,,,,,,,3,,,43,0
40484,note_on,20,0,1,,,,,,,,0,,,79,0
40512,note_on,28,0,9,,,,,,,,3,,,60,85
40512,note_on,28,0,11,,,,,,,,3,,,36,64
40512,note_on,28,0,10,,,,,,,,3,,,60,85
40512,note_on,28,0,8,,,,,,,,3,,,60,85
40512,note_on,28,0,1,,,,,,,,0,,,72,64
40532,note_on,20,0,11,,,,,,,,3,,,36,0
40532,note_on,20,0,9,,,,,,,,3,,,60,0
40532,note_on,20,0,8,,,,,,,,3,,,60,0
40532,note_on,20,0,1,,,,,,,,0,,,72,0
40532,note_on,20,0,10,,,,,,,,3,,,60,0
40560,note_on,28,0,10,,,,,,,,3,,,69,85
40560,note_on,28,0,8,,,,,,,,3,,,69,85
40560,note_on,28,0,11,,,,,,,,3,,,45,64
40560,note_on,28,0,1,,,,,,,,0,,,81,64
40560,note_on,28,0,9,,,,,,,,3,,,69,85
40580,note_on,20,0,1,,,,,,,,0,,,81,0
40580,note_on,20,0,8,,,,,,,,3,,,69,0
40580,note_on,20,0,10,,,,,,,,3,,,69,0
40580,note_on,20,0,9,,,,,,,,3,,,69,0
40580,note_on,20,0,11,,,,,,,,3,,,45,0
40608,note_on,28,0,9,,,,,,,,3,,,62,85
40608,note_on,28,0,8,,,,,,,,3,,,62,85
40608,note_on,28,0,11,,,,,,,,3,,,38,64
40608,note_on,28,0,1,,,,,,,,0,,,74,64
40608,note_on,28,0,10,,,,,,,,3,,,62,85
40628,note_on,20,0,9,,,,,,,,3,,,62,0
40628,note_on,20,0,11,,,,,,,,3,,,38,0
40628,note_on,20,0,1,,,,,,,,0,,,74,0
40628,note_on,20,0,8,,,,,,,,3,,,62,0
40628,note_on,20,0,10,,,,,,,,3,,,62,0
40656,note_on,28,0,10,,,,,,,,3,,,66,85
40656,note_on,28,0,9,,,,,,,,3,,,66,85
40656,note_on,28,0,8,,,,,,,,3,,,66,85
40656,note_on,28,0,1,,,,,,,,0,,,78,64
40656,note_on,28,0,11,,,,,,,,3,,,42,64
40676,note_on,20,0,8,,,,,,,,3,,,66,0
40676,note_on,20,0,11,,,,,,,,3,,,42,0
40676,note_on,20,0,9,,,,,,,,3,,,66,0
40676,note_on,20,0,1,,,,,,,,0,,,78,0
40676,note_on,20,0,10,,,,,,,,3,,,66,0
40704,note_on,28,0,8,,,,,,,,3,,,67,85
40704,note_on,295,0,6,,,,,,,,2,,,55,85
40704,note_on,28,0,1,,,,,,,,0,,,79,64
40704,note_on,0,0,6,,,,,,,,2,,,43,85
40704,note_on,28,0,9,,,,,,,,3,,,67,85
40704,note_on,28,0,11,,,,,,,,3,,,43,64
40704,note_on,28,0,10,,,,,,,,3,,,67,85
40728,note_on,319,0,5,,,,,,,,2,,,67,64
40751,note_on,23,0,5,,,,,,,,2,,,67,0
40752,note_on,1,0,5,,,,,,,,2,,,70,67
40775,note_on,23,0,5,,,,,,,,2,,,70,0
40776,note_on,1,0,5,,,,,,,,2,,,74,70
40793,note_on,89,0,1,,,,,,,,0,,,79,0
40793,note_on,89,0,8,,,,,,,,3,,,67,0
40793,note_on,89,0,9,,,,,,,,3,,,67,0
40799,note_on,23,0,5,,,,,,,,2,,,74,0
40800,note_on,7,0,8,,,,,,,,3,,,70,43
40800,note_on,1,0,5,,,,,,,,2,,,79,73
40800,note_on,7,0,9,,,,,,,,3,,,67,43
40823,note_on,23,0,5,,,,,,,,2,,,79,0
40824,note_on,1,0,5,,,,,,,,2,,,74,76
40847,note_on,23,0,5,,,,,,,,2,,,74,0
40848,note_on,1,0,5,,,,,,,,2,,,70,79
40871,note_on,23,0,5,,,,,,,,2,,,70,0
40872,note_on,1,0,5,,,,,,,,2,,,74,82
40881,note_on,177,0,11,,,,,,,,3,,,43,0
40881,note_on,177,0,6,,,,,,,,2,,,43,0
40881,note_on,177,0,10,,,,,,,,3,,,67,0
40881,note_on,0,0,6,,,,,,,,2,,,55,0
40895,note_on,23,0,5,,,,,,,,2,,,74,0
40896,note_on,0,0,6,,,,,,,,2,,,41,85
40896,note_on,15,0,10,,,,,,,,3,,,62,43
40896,note_on,15,0,6,,,,,,,,2,,,53,85
40896,note_on,15,0,11,,,,,,,,3,,,41,43
40920,note_on,25,0,5,,,,,,,,2,,,67,85
40943,note_on,23,0,5,,,,,,,,2,,,67,0
40944,note_on,1,0,5,,,,,,,,2,,,70,85
40967,note_on,23,0,5,,,,,,,,2,,,70,0
40968,note_on,1,0,5,,,,,,,,2,,,74,85
40977,note_on,177,0,8,,,,,,,,3,,,70,0
40977,note_on,177,0,9,,,,,,,,3,,,67,0
40991,note_on,23,0,5,,,,,,,,2,,,74,0
40992,note_on,1,0,5,,,,,,,,2,,,79,85
40992,note_on,15,0,8,,,,,,,,3,,,70,43
40992,note_on,15,0,9,,,,,,,,3,,,67,43
41015,note_on,23,0,5,,,,,,,,2,,,79,0
41016,note_on,1,0,5,,,,,,,,2,,,74,85
41039,note_on,23,0,5,,,,,,,,2,,,74,0
41040,note_on,1,0,5,,,,,,,,2,,,70,85
41063,note_on,23,0,5,,,,,,,,2,,,70,0
41064,note_on,1,0,5,,,,,,,,2,,,74,85
41073,note_on,177,0,6,,,,,,,,2,,,41,0
41073,note_on,0,0,6,,,,,,,,2,,,53,0
41073,note_on,177,0,10,,,,,,,,3,,,62,0
41073,note_on,177,0,11,,,,,,,,3,,,41,0
41087,note_on,23,0,5,,,,,,,,2,,,74,0
41088,note_on,15,0,6,,,,,,,,2,,,52,85
41088,note_on,15,0,10,,,,,,,,3,,,61,43
41088,note_on,0,0,6,,,,,,,,2,,,40,85
41088,note_on,15,0,11,,,,,,,,3,,,40,43
41112,note_on,25,0,5,,,,,,,,2,,,67,85
41135,note_on,23,0,5,,,,,,,,2,,,67,0
41136,note_on,1,0,5,,,,,,,,2,,,70,85
41159,note_on,23,0,5,,,,,,,,2,,,70,0
41160,note_on,1,0,5,,,,,,,,2,,,73,85
41177,note_on,185,0,9,,,,,,,,3,,,67,0
41177,note_on,185,0,8,,,,,,,,3,,,70,0
41183,note_on,23,0,5,,,,,,,,2,,,73,0
41184,note_on,7,0,9,,,,,,,,3,,,67,43
41184,note_on,1,0,5,,,,,,,,2,,,77,85
41184,note_on,7,0,8,,,,,,,,3,,,70,43
41207,note_on,23,0,5,,,,,,,,2,,,77,0
41208,note_on,1,0,5,,,,,,,,2,,,73,85
41231,note_on,23,0,5,,,,,,,,2,,,73,0
41232,note_on,1,0,5,,,,,,,,2,,,70,85
41255,note_on,23,0,5,,,,,,,,2,,,70,0
41256,note_on,1,0,5,,,,,,,,2,,,73,85
41265,note_on,0,0,6,,,,,,,,2,,,52,0
41265,note_on,177,0,10,,,,,,,,3,,,61,0
41265,note_on,177,0,11,,,,,,,,3,,,40,0
41265,note_on,177,0,6,,,,,,,,2,,,40,0
41279,note_on,23,0,5,,,,,,,,2,,,73,0
41280,note_on,15,0,11,,,,,,,,3,,,38,43
41280,note_on,0,0,6,,,,,,,,2,,,38,85
41280,note_on,15,0,6,,,,,,,,2,,,50,85
41280,note_on,15,0,10,,,,,,,,3,,,62,43
41304,note_on,25,0,5,,,,,,,,2,,,67,85
41327,note_on,23,0,5,,,,,,,,2,,,67,0
41328,note_on,1,0,5,,,,,,,,2,,,70,85
41351,note_on,23,0,5,,,,,,,,2,,,70,0
41352,note_on,1,0,5,,,,,,,,2,,,74,85
41361,note_on,177,0,8,,,,,,,,3,,,70,0
41361,note_on,177,0,9,,,,,,,,3,,,67,0
41375,note_on,23,0,5,,,,,,,,2,,,74,0
41376,note_on,1,0,5,,,,,,,,2,,,79,85
41376,note_on,15,0,9,,,,,,,,3,,,67,43
41376,note_on,15,0,8,,,,,,,,3,,,70,43
41399,note_on,23,0,5,,,,,,,,2,,,79,0
41400,note_on,1,0,5,,,,,,,,2,,,74,85
41423,note_on,23,0,5,,,,,,,,2,,,74,0
41424,note_on,1,0,5,,,,,,,,2,,,70,85
41447,note_on,23,0,5,,,,,,,,2,,,70,0
41448,note_on,1,0,5,,,,,,,,2,,,74,85
41457,note_on,177,0,6,,,,,,,,2,,,38,0
41457,note_on,0,0,6,,,,,,,,2,,,50,0
41457,note_on,177,0,10,,,,,,,,3,,,62,0
41457,note_on,177,0,11,,,,,,,,3,,,38,0
41465,note_on,89,0,8,,,,,,,,3,,,70,0
41465,note_on,89,0,9,,,,,,,,3,,,67,0
41471,note_on,23,0,5,,,,,,,,2,,,74,0
41472,note_on,1,0,5,,,,,,,,2,,,69,64
41472,note_on,15,0,10,,,,,,,,3,,,64,43
41472,note_on,0,0,10,,,,,,,,3,,,61,43
41472,note_on,7,0,9,,,,,,,,3,,,67,43
41472,note_on,15,0,11,,,,,,,,3,,,37,43
41472,note_on,7,0,8,,,,,,,,3,,,69,43
41520,note_on,0,0,6,,,,,,,,2,,,61,64
41520,note_on,63,0,6,,,,,,,,2,,,64,64
41561,note_on,89,0,10,,,,,,,,3,,,61,0
41561,note_on,0,0,10,,,,,,,,3,,,64,0
41561,note_on,89,0,5,,,,,,,,2,,,69,0
41561,note_on,89,0,11,,,,,,,,3,,,37,0
41561,note_on,89,0,9,,,,,,,,3,,,67,0
41561,note_on,89,0,8,,,,,,,,3,,,69,0
41565,note_on,0,0,6,,,,,,,,2,,,64,0
41565,note_on,45,0,6,,,,,,,,2,,,61,0
41568,note_on,3,0,6,,,,,,,,2,,,64,64
41568,note_on,0,0,6,,,,,,,,2,,,61,64
41568,note_on,7,0,5,,,,,,,,2,,,88,64
41613,note_on,0,0,6,,,,,,,,2,,,64,0
41613,note_on,45,0,6,,,,,,,,2,,,61,0
41616,note_on,0,0,6,,,,,,,,2,,,61,64
41616,note_on,3,0,6,,,,,,,,2,,,64,64
41661,note_on,45,0,6,,,,,,,,2,,,61,0
41661,note_on,0,0,6,,,,,,,,2,,,64,0
41664,note_on,3,0,6,,,,,,,,2,,,69,64
41664,note_on,0,0,6,,,,,,,,2,,,61,64
41687,note_on,119,0,5,,,,,,,,2,,,88,0
41688,note_on,1,0,5,,,,,,,,2,,,86,64
41709,note_on,45,0,6,,,,,,,,2,,,61,0
41709,note_on,0,0,6,,,,,,,,2,,,69,0
41711,note_on,23,0,5,,,,,,,,2,,,86,0
41712,note_on,1,0,5,,,,,,,,2,,,85,64
41712,note_on,3,0,6,,,,,,,,2,,,69,64
41712,note_on,0,0,6,,,,,,,,2,,,61,64
41735,note_on,23,0,5,,,,,,,,2,,,85,0
41736,note_on,1,0,5,,,,,,,,2,,,82,64
41757,note_on,45,0,6,,,,,,,,2,,,61,0
41757,note_on,0,0,6,,,,,,,,2,,,69,0
41759,note_on,23,0,5,,,,,,,,2,,,82,0
41760,note_on,3,0,6,,,,,,,,2,,,69,64
41760,note_on,1,0,5,,,,,,,,2,,,81,64
41760,note_on,0,0,6,,,,,,,,2,,,61,64
41783,note_on,23,0,5,,,,,,,,2,,,81,0
41784,note_on,1,0,5,,,,,,,,2,,,79,64
41805,note_on,45,0,6,,,,,,,,2,,,61,0
41805,note_on,0,0,6,,,,,,,,2,,,69,0
41807,note_on,23,0,5,,,,,,,,2,,,79,0
41808,note_on,1,0,5,,,,,,,,2,,,77,64
41808,note_on,0,0,6,,,,,,,,2,,,61,64
41808,note_on,3,0,6,,,,,,,,2,,,69,64
41831,note_on,23,0,5,,,,,,,,2,,,77,0
41832,note_on,1,0,5,,,,,,,,2,,,76,64
41853,note_on,0,0,6,,,,,,,,2,,,69,0
41853,note_on,45,0,6,,,,,,,,2,,,61,0
41855,note_on,23,0,5,,,,,,,,2,,,76,0
41856,note_on,295,0,8,,,,,,,,3,,,69,43
41856,note_on,3,0,6,,,,,,,,2,,,62,85
41856,note_on,295,0,9,,,,,,,,3,,,65,43
41856,note_on,0,0,6,,,,,,,,2,,,50,85
41856,note_on,295,0,11,,,,,,,,3,,,50,43
41856,note_on,295,0,10,,,,,,,,3,,,62,43
41880,note_on,25,0,5,,,,,,,,2,,,65,64
41903,note_on,23,0,5,,,,,,,,2,,,65,0
41904,note_on,1,0,5,,,,,,,,2,,,69,64
41927,note_on,23,0,5,,,,,,,,2,,,69,0
41928,note_on,1,0,5,,,,,,,,2,,,74,64
41945,note_on,89,0,10,,,,,,,,3,,,62,0
41945,note_on,89,0,9,,,,,,,,3,,,65,0
41951,note_on,23,0,5,,,,,,,,2,,,74,0
41952,note_on,7,0,10,,,,,,,,3,,,62,43
41952,note_on,7,0,9,,,,,,,,3,,,65,43
41952,note_on,1,0,5,,,,,,,,2,,,77,64
41975,note_on,23,0,5,,,,,,,,2,,,77,0
41976,note_on,1,0,5,,,,,,,,2,,,74,64
41999,note_on,23,0,5,,,,,,,,2,,,74,0
42000,note_on,1,0,5,,,,,,,,2,,,69,64
42023,note_on,23,0,5,,,,,,,,2,,,69,0
42024,note_on,1,0,5,,,,,,,,2,,,74,64
42033,note_on,177,0,6,,,,,,,,2,,,50,0
42033,note_on,0,0,6,,,,,,,,2,,,62,0
42033,note_on,177,0,11,,,,,,,,3,,,50,0
42047,note_on,23,0,5,,,,,,,,2,,,74,0
42048,note_on,15,0,11,,,,,,,,3,,,48,43
42048,note_on,0,0,6,,,,,,,,2,,,48,85
42048,note_on,15,0,6,,,,,,,,2,,,60,85
42072,note_on,25,0,5,,,,,,,,2,,,65,64
42095,note_on,23,0,5,,,,,,,,2,,,65,0
42096,note_on,1,0,5,,,,,,,,2,,,69,64
42119,note_on,23,0,5,,,,,,,,2,,,69,0
42120,note_on,1,0,5,,,,,,,,2,,,74,64
42129,note_on,177,0,10,,,,,,,,3,,,62,0
42129,note_on,177,0,9,,,,,,,,3,,,65,0
42143,note_on,23,0,5,,,,,,,,2,,,74,0
42144,note_on,15,0,9,,,,,,,,3,,,65,43
42144,note_on,1,0,5,,,,,,,,2,,,77,64
42144,note_on,15,0,10,,,,,,,,3,,,62,43
42167,note_on,23,0,5,,,,,,,,2,,,77,0
42168,note_on,1,0,5,,,,,,,,2,,,74,64
42191,note_on,23,0,5,,,,,,,,2,,,74,0
42192,note_on,1,0,5,,,,,,,,2,,,69,64
42210,note_on,354,0,8,,,,,,,,3,,,69,0
42215,note_on,23,0,5,,,,,,,,2,,,69,0
42216,note_on,1,0,5,,,,,,,,2,,,74,64
42225,note_on,177,0,11,,,,,,,,3,,,48,0
42225,note_on,177,0,6,,,,,,,,2,,,48,0
42225,note_on,0,0,6,,,,,,,,2,,,60,0
42239,note_on,23,0,5,,,,,,,,2,,,74,0
42240,note_on,15,0,6,,,,,,,,2,,,59,85
42240,note_on,30,0,8,,,,,,,,3,,,68,43
42240,note_on,0,0,6,,,,,,,,2,,,47,85
42240,note_on,15,0,11,,,,,,,,3,,,47,43
42264,note_on,25,0,5,,,,,,,,2,,,65,64
42287,note_on,23,0,5,,,,,,,,2,,,65,0
42288,note_on,1,0,5,,,,,,,,2,,,68,64
42311,note_on,23,0,5,,,,,,,,2,,,68,0
42312,note_on,1,0,5,,,,,,,,2,,,74,64
42329,note_on,185,0,10,,,,,,,,3,,,62,0
42329,note_on,185,0,9,,,,,,,,3,,,65,0
42335,note_on,23,0,5,,,,,,,,2,,,74,0
42336,note_on,7,0,9,,,,,,,,3,,,65,43
42336,note_on,1,0,5,,,,,,,,2,,,77,64
42336,note_on,7,0,10,,,,,,,,3,,,62,43
42359,note_on,23,0,5,,,,,,,,2,,,77,0
42360,note_on,1,0,5,,,,,,,,2,,,74,65
42383,note_on,23,0,5,,,,,,,,2,,,74,0
42384,note_on,1,0,5,,,,,,,,2,,,68,67
42407,note_on,23,0,5,,,,,,,,2,,,68,0
42408,note_on,1,0,5,,,,,,,,2,,,74,69
42417,note_on,177,0,6,,,,,,,,2,,,47,0
42417,note_on,0,0,6,,,,,,,,2,,,59,0
42417,note_on,177,0,8,,,,,,,,3,,,68,0
42417,note_on,177,0,11,,,,,,,,3,,,47,0
42431,note_on,23,0,5,,,,,,,,2,,,74,0
42432,note_on,15,0,11,,,,,,,,3,,,45,43
42432,note_on,0,0,6,,,,,,,,2,,,45,85
42432,note_on,15,0,6,,,,,,,,2,,,57,85
42432,note_on,15,0,8,,,,,,,,3,,,69,43
42456,note_on,25,0,5,,,,,,,,2,,,65,72
42479,note_on,23,0,5,,,,,,,,2,,,65,0
42480,note_on,1,0,5,,,,,,,,2,,,69,74
42503,note_on,23,0,5,,,,,,,,2,,,69,0
42504,note_on,1,0,5,,,,,,,,2,,,74,76
42513,note_on,177,0,10,,,,,,,,3,,,62,0
42513,note_on,177,0,9,,,,,,,,3,,,65,0
42527,note_on,23,0,5,,,,,,,,2,,,74,0
42528,note_on,15,0,10,,,,,,,,3,,,62,43
42528,note_on,1,0,5,,,,,,,,2,,,77,78
42528,note_on,15,0,9,,,,,,,,3,,,65,43
42551,note_on,23,0,5,,,,,,,,2,,,77,0
42552,note_on,1,0,5,,,,,,,,2,,,74,79
42575,note_on,23,0,5,,,,,,,,2,,,74,0
42576,note_on,1,0,5,,,,,,,,2,,,69,81
42599,note_on,23,0,5,,,,,,,,2,,,69,0
42600,note_on,1,0,5,,,,,,,,2,,,74,83
42609,note_on,177,0,6,,,,,,,,2,,,45,0
42609,note_on,177,0,8,,,,,,,,3,,,69,0
42609,note_on,0,0,6,,,,,,,,2,,,57,0
42609,note_on,177,0,11,,,,,,,,3,,,45,0
42617,note_on,89,0,9,,,,,,,,3,,,65,0
42617,note_on,89,0,10,,,,,,,,3,,,62,0
42623,note_on,23,0,5,,,,,,,,2,,,74,0
42624,note_on,7,0,10,,,,,,,,3,,,62,43
42624,note_on,7,0,9,,,,,,,,3,,,64,43
42624,note_on,15,0,8,,,,,,,,3,,,71,43
42624,note_on,15,0,11,,,,,,,,3,,,44,43
42624,note_on,1,0,5,,,,,,,,2,,,71,85
42672,note_on,63,0,6,,,,,,,,2,,,59,85
42672,note_on,0,0,6,,,,,,,,2,,,56,85
42713,note_on,89,0,9,,,,,,,,3,,,64,0
42713,note_on,89,0,11,,,,,,,,3,,,44,0
42713,note_on,89,0,5,,,,,,,,2,,,71,0
42713,note_on,89,0,8,,,,,,,,3,,,71,0
42713,note_on,89,0,10,,,,,,,,3,,,62,0
42717,note_on,45,0,6,,,,,,,,2,,,56,0
42717,note_on,0,0,6,,,,,,,,2,,,59,0
42720,note_on,3,0,6,,,,,,,,2,,,59,85
42720,note_on,0,0,6,,,,,,,,2,,,56,85
42720,note_on,7,0,5,,,,,,,,2,,,86,85
42765,note_on,45,0,6,,,,,,,,2,,,56,0
42765,note_on,0,0,6,,,,,,,,2,,,59,0
42768,note_on,3,0,6,,,,,,,,2,,,59,85
42768,note_on,0,0,6,,,,,,,,2,,,56,85
42813,note_on,0,0,6,,,,,,,,2,,,59,0
42813,note_on,45,0,6,,,,,,,,2,,,56,0
42816,note_on,0,0,6,,,,,,,,2,,,56,85
42816,note_on,3,0,6,,,,,,,,2,,,64,85
42839,note_on,119,0,5,,,,,,,,2,,,86,0
42840,note_on,1,0,5,,,,,,,,2,,,84,85
42861,note_on,45,0,6,,,,,,,,2,,,56,0
42861,note_on,0,0,6,,,,,,,,2,,,64,0
42863,note_on,23,0,5,,,,,,,,2,,,84,0
42864,note_on,1,0,5,,,,,,,,2,,,83,85
42864,note_on,3,0,6,,,,,,,,2,,,64,85
42864,note_on,0,0,6,,,,,,,,2,,,56,85
42887,note_on,23,0,5,,,,,,,,2,,,83,0
42888,note_on,1,0,5,,,,,,,,2,,,81,85
42909,note_on,0,0,6,,,,,,,,2,,,64,0
42909,note_on,45,0,6,,,,,,,,2,,,56,0
42911,note_on,23,0,5,,,,,,,,2,,,81,0
42912,note_on,3,0,6,,,,,,,,2,,,64,85
42912,note_on,1,0,5,,,,,,,,2,,,80,85
42912,note_on,0,0,6,,,,,,,,2,,,56,85
42935,note_on,23,0,5,,,,,,,,2,,,80,0
42936,note_on,1,0,5,,,,,,,,2,,,77,85
42957,note_on,0,0,6,,,,,,,,2,,,64,0
42957,note_on,45,0,6,,,,,,,,2,,,56,0
42959,note_on,23,0,5,,,,,,,,2,,,77,0
42960,note_on,3,0,6,,,,,,,,2,,,64,85
42960,note_on,0,0,6,,,,,,,,2,,,56,85
42960,note_on,1,0,5,,,,,,,,2,,,76,85
42983,note_on,23,0,5,,,,,,,,2,,,76,0
42984,note_on,1,0,5,,,,,,,,2,,,74,85
43005,note_on,45,0,6,,,,,,,,2,,,56,0
43005,note_on,0,0,6,,,,,,,,2,,,64,0
43007,note_on,23,0,5,,,,,,,,2,,,74,0
43008,note_on,1,0,5,,,,,,,,2,,,72,85
43008,note_on,0,0,6,,,,,,,,2,,,57,85
43008,note_on,3,0,6,,,,,,,,2,,,64,85
43008,note_on,295,0,10,,,,,,,,3,,,57,43
43008,note_on,295,0,11,,,,,,,,3,,,45,43
43053,note_on,45,0,11,,,,,,,,3,,,45,0
43053,note_on,45,0,10,,,,,,,,3,,,57,0
43097,note_on,89,0,5,,,,,,,,2,,,72,0
43097,note_on,89,0,6,,,,,,,,2,,,57,0
43097,note_on,0,0,6,,,,,,,,2,,,64,0
43104,note_on,391,0,9,,,,,,,,3,,,72,43
43104,note_on,391,0,8,,,,,,,,3,,,76,43
43171,note_on,67,0,9,,,,,,,,3,,,72,0
43171,note_on,67,0,8,,,,,,,,3,,,76,0
43176,note_on,5,0,9,,,,,,,,3,,,74,43
43176,note_on,5,0,8,,,,,,,,3,,,77,43
43199,note_on,23,0,9,,,,,,,,3,,,74,0
43199,note_on,23,0,8,,,,,,,,3,,,77,0
43200,note_on,1,0,8,,,,,,,,3,,,74,43
43200,note_on,147,0,10,,,,,,,,3,,,64,43
43200,note_on,1,0,9,,,,,,,,3,,,71,43
43200,note_on,147,0,11,,,,,,,,3,,,40,43
43220,note_on,20,0,10,,,,,,,,3,,,64,0
43220,note_on,20,0,9,,,,,,,,3,,,71,0
43220,note_on,20,0,8,,,,,,,,3,,,74,0
43220,note_on,20,0,11,,,,,,,,3,,,40,0
43296,note_on,76,0,8,,,,,,,,3,,,74,43
43296,note_on,76,0,9,,,,,,,,3,,,71,43
43363,note_on,67,0,8,,,,,,,,3,,,74,0
43363,note_on,67,0,9,,,,,,,,3,,,71,0
43368,note_on,5,0,8,,,,,,,,3,,,76,43
43368,note_on,5,0,9,,,,,,,,3,,,72,43
43391,note_on,23,0,9,,,,,,,,3,,,72,0
43391,note_on,23,0,8,,,,,,,,3,,,76,0
43392,note_on,1,0,8,,,,,,,,3,,,72,43
43392,note_on,1,0,9,,,,,,,,3,,,69,43
43392,note_on,172,0,10,,,,,,,,3,,,64,43
43392,note_on,172,0,11,,,,,,,,3,,,33,43
43412,note_on,20,0,11,,,,,,,,3,,,33,0
43412,note_on,20,0,8,,,,,,,,3,,,72,0
43412,note_on,20,0,9,,,,,,,,3,,,69,0
43412,note_on,20,0,10,,,,,,,,3,,,64,0
43488,note_on,5767,0,4,,,,,,,,1,,,72,64
43488,note_on,0,0,1,,,,,,,,0,,,76,64
43488,note_on,76,0,10,,,,,,,,3,,,60,85
43488,note_on,76,0,8,,,,,,,,3,,,69,85
43488,note_on,2695,0,1,,,,,,,,0,,,81,64
43488,note_on,76,0,11,,,,,,,,3,,,48,64
43488,note_on,5767,0,3,,,,,,,,1,,,72,64
43488,note_on,76,0,9,,,,,,,,3,,,64,85
43511,note_on,23,0,8,,,,,,,,3,,,69,0
43512,note_on,1,0,8,,,,,,,,3,,,68,85
43535,note_on,23,0,8,,,,,,,,3,,,68,0
43536,note_on,1,0,8,,,,,,,,3,,,69,85
43546,note_on,10,0,8,,,,,,,,3,,,69,0
43560,note_on,14,0,8,,,,,,,,3,,,72,85
43570,note_on,10,0,8,,,,,,,,3,,,72,0
43577,note_on,89,0,11,,,,,,,,3,,,48,0
43577,note_on,89,0,1,,,,,,,,0,,,76,0
43577,note_on,89,0,3,,,,,,,,1,,,72,0
43577,note_on,89,0,9,,,,,,,,3,,,64,0
43577,note_on,89,0,4,,,,,,,,1,,,72,0
43577,note_on,0,0,1,,,,,,,,0,,,81,0
43577,note_on,89,0,10,,,,,,,,3,,,60,0
43584,note_on,14,0,8,,,,,,,,3,,,71,85
43584,note_on,0,0,1,,,,,,,,0,,,77,64
43584,note_on,7,0,1,,,,,,,,0,,,83,64
43584,note_on,7,0,4,,,,,,,,1,,,74,64
43584,note_on,7,0,3,,,,,,,,1,,,74,64
43584,note_on,7,0,11,,,,,,,,3,,,50,64
43584,note_on,7,0,9,,,,,,,,3,,,65,85
43584,note_on,7,0,10,,,,,,,,3,,,62,85
43629,note_on,45,0,8,,,,,,,,3,,,71,0
43632,note_on,3,0,8,,,,,,,,3,,,74,85
43673,note_on,89,0,9,,,,,,,,3,,,65,0
43673,note_on,89,0,3,,,,,,,,1,,,74,0
43673,note_on,0,0,1,,,,,,,,0,,,83,0
43673,note_on,89,0,11,,,,,,,,3,,,50,0
43673,note_on,89,0,4,,,,,,,,1,,,74,0
43673,note_on,89,0,10,,,,,,,,3,,,62,0
43673,note_on,89,0,1,,,,,,,,0,,,77,0
43677,note_on,45,0,8,,,,,,,,3,,,74,0
43680,note_on,7,0,11,,,,,,,,3,,,52,64
43680,note_on,7,0,4,,,,,,,,1,,,76,64
43680,note_on,7,0,3,,,,,,,,1,,,76,64
43680,note_on,7,0,10,,,,,,,,3,,,64,85
43680,note_on,7,0,1,,,,,,,,0,,,80,64
43680,note_on,0,0,1,,,,,,,,0,,,74,64
43680,note_on,7,0,9,,,,,,,,3,,,62,85
43680,note_on,3,0,8,,,,,,,,3,,,68,85
43703,note_on,23,0,8,,,,,,,,3,,,68,0
43704,note_on,1,0,8,,,,,,,,3,,,66,85
43727,note_on,23,0,8,,,,,,,,3,,,66,0
43728,note_on,1,0,8,,,,,,,,3,,,68,85
43738,note_on,10,0,8,,,,,,,,3,,,68,0
43752,note_on,14,0,8,,,,,,,,3,,,71,85
43762,note_on,10,0,8,,,,,,,,3,,,71,0
43769,note_on,89,0,1,,,,,,,,0,,,74,0
43769,note_on,0,0,1,,,,,,,,0,,,80,0
43769,note_on,89,0,4,,,,,,,,1,,,76,0
43769,note_on,89,0,11,,,,,,,,3,,,52,0
43769,note_on,89,0,9,,,,,,,,3,,,62,0
43769,note_on,89,0,3,,,,,,,,1,,,76,0
43769,note_on,89,0,10,,,,,,,,3,,,64,0
43776,note_on,7,0,3,,,,,,,,1,,,76,64
43776,note_on,7,0,4,,,,,,,,1,,,72,64
43776,note_on,7,0,1,,,,,,,,0,,,81,64
43776,note_on,0,0,1,,,,,,,,0,,,72,64
43776,note_on,7,0,9,,,,,,,,3,,,60,85
43776,note_on,14,0,8,,,,,,,,3,,,69,85
43776,note_on,7,0,10,,,,,,,,3,,,64,85
43776,note_on,7,0,11,,,,,,,,3,,,45,64
43865,note_on,89,0,9,,,,,,,,3,,,60,0
43865,note_on,89,0,10,,,,,,,,3,,,64,0
43865,note_on,89,0,3,,,,,,,,1,,,76,0
43865,note_on,89,0,11,,,,,,,,3,,,45,0
43865,note_on,89,0,8,,,,,,,,3,,,69,0
43865,note_on,0,0,1,,,,,,,,0,,,81,0
43865,note_on,89,0,1,,,,,,,,0,,,72,0
43865,note_on,89,0,4,,,,,,,,1,,,72,0
43872,note_on,775,0,6,,,,,,,,2,,,72,64
43872,note_on,775,0,5,,,,,,,,2,,,76,64
43895,note_on,23,0,6,,,,,,,,2,,,72,0
43895,note_on,23,0,5,,,,,,,,2,,,76,0
43896,note_on,1,0,6,,,,,,,,2,,,71,64
43896,note_on,1,0,5,,,,,,,,2,,,74,64
43919,note_on,23,0,6,,,,,,,,2,,,71,0
43919,note_on,23,0,5,,,,,,,,2,,,74,0
43920,note_on,1,0,6,,,,,,,,2,,,72,64
43920,note_on,1,0,5,,,,,,,,2,,,76,64
43943,note_on,23,0,5,,,,,,,,2,,,76,0
43943,note_on,23,0,6,,,,,,,,2,,,72,0
43944,note_on,1,0,5,,,,,,,,2,,,77,64
43944,note_on,1,0,6,,,,,,,,2,,,69,64
43967,note_on,23,0,5,,,,,,,,2,,,77,0
43967,note_on,23,0,6,,,,,,,,2,,,69,0
43968,note_on,1,0,5,,,,,,,,2,,,74,64
43968,note_on,1,0,6,,,,,,,,2,,,71,64
44013,note_on,45,0,5,,,,,,,,2,,,74,0
44013,note_on,45,0,6,,,,,,,,2,,,71,0
44064,note_on,51,0,5,,,,,,,,2,,,74,64
44064,note_on,51,0,6,,,,,,,,2,,,71,64
44087,note_on,23,0,6,,,,,,,,2,,,71,0
44087,note_on,23,0,5,,,,,,,,2,,,74,0
44088,note_on,1,0,5,,,,,,,,2,,,72,64
44088,note_on,1,0,6,,,,,,,,2,,,69,64
44111,note_on,23,0,6,,,,,,,,2,,,69,0
44111,note_on,23,0,5,,,,,,,,2,,,72,0
44112,note_on,1,0,6,,,,,,,,2,,,71,64
44112,note_on,1,0,5,,,,,,,,2,,,74,64
44135,note_on,23,0,6,,,,,,,,2,,,71,0
44135,note_on,23,0,5,,,,,,,,2,,,74,0
44136,note_on,1,0,6,,,,,,,,2,,,68,64
44136,note_on,1,0,5,,,,,,,,2,,,76,64
44159,note_on,23,0,6,,,,,,,,2,,,68,0
44159,note_on,23,0,5,,,,,,,,2,,,76,0
44160,note_on,1,0,6,,,,,,,,2,,,69,64
44160,note_on,1,0,5,,,,,,,,2,,,72,64
44180,note_on,20,0,5,,,,,,,,2,,,72,0
44180,note_on,20,0,6,,,,,,,,2,,,69,0
44256,note_on,76,0,6,,,,,,,,2,,,72,64
44256,note_on,76,0,5,,,,,,,,2,,,81,64
44279,note_on,23,0,5,,,,,,,,2,,,81,0
44280,note_on,1,0,5,,,,,,,,2,,,80,64
44301,note_on,45,0,6,,,,,,,,2,,,72,0
44303,note_on,23,0,5,,,,,,,,2,,,80,0
44304,note_on,1,0,5,,,,,,,,2,,,81,64
44327,note_on,23,0,5,,,,,,,,2,,,81,0
44328,note_on,1,0,5,,,,,,,,2,,,84,64
44351,note_on,23,0,5,,,,,,,,2,,,84,0
44352,note_on,51,0,6,,,,,,,,2,,,74,64
44352,note_on,1,0,5,,,,,,,,2,,,83,64
44375,note_on,23,0,5,,,,,,,,2,,,83,0
44376,note_on,1,0,5,,,,,,,,2,,,81,64
44397,note_on,45,0,6,,,,,,,,2,,,74,0
44399,note_on,23,0,5,,,,,,,,2,,,81,0
44400,note_on,1,0,5,,,,,,,,2,,,83,64
44423,note_on,23,0,5,,,,,,,,2,,,83,0
44424,note_on,1,0,5,,,,,,,,2,,,86,64
44447,note_on,23,0,5,,,,,,,,2,,,86,0
44448,note_on,1,0,5,,,,,,,,2,,,80,64
44448,note_on,51,0,6,,,,,,,,2,,,76,64
44471,note_on,23,0,5,,,,,,,,2,,,80,0
44472,note_on,1,0,5,,,,,,,,2,,,78,64
44493,note_on,45,0,6,,,,,,,,2,,,76,0
44495,note_on,23,0,5,,,,,,,,2,,,78,0
44496,note_on,1,0,5,,,,,,,,2,,,80,64
44519,note_on,23,0,5,,,,,,,,2,,,80,0
44520,note_on,1,0,5,,,,,,,,2,,,83,64
44543,note_on,23,0,5,,,,,,,,2,,,83,0
44544,note_on,1,0,5,,,,,,,,2,,,81,64
44592,note_on,99,0,6,,,,,,,,2,,,72,69
44592,note_on,0,0,6,,,,,,,,2,,,69,69
44637,note_on,45,0,6,,,,,,,,2,,,69,0
44637,note_on,0,0,6,,,,,,,,2,,,72,0
44640,note_on,3,0,6,,,,,,,,2,,,72,74
44640,note_on,0,0,6,,,,,,,,2,,,69,74
44677,note_on,133,0,5,,,,,,,,2,,,81,0
44685,note_on,45,0,6,,,,,,,,2,,,69,0
44685,note_on,0,0,6,,,,,,,,2,,,72,0
44688,note_on,0,0,6,,,,,,,,2,,,69,79
44688,note_on,11,0,5,,,,,,,,2,,,83,82
44688,note_on,3,0,6,,,,,,,,2,,,72,79
44711,note_on,23,0,5,,,,,,,,2,,,83,0
44712,note_on,1,0,5,,,,,,,,2,,,84,85
44733,note_on,45,0,6,,,,,,,,2,,,69,0
44733,note_on,0,0,6,,,,,,,,2,,,72,0
44735,note_on,23,0,5,,,,,,,,2,,,84,0
44736,note_on,1,0,5,,,,,,,,2,,,83,82
44736,note_on,3,0,6,,,,,,,,2,,,72,85
44736,note_on,0,0,6,,,,,,,,2,,,69,85
44781,note_on,0,0,6,,,,,,,,2,,,72,0
44781,note_on,45,0,6,,,,,,,,2,,,69,0
44781,note_on,45,0,5,,,,,,,,2,,,83,0
44784,note_on,0,0,6,,,,,,,,2,,,69,79
44784,note_on,3,0,6,,,,,,,,2,,,72,79
44784,note_on,3,0,5,,,,,,,,2,,,81,78
44829,note_on,0,0,6,,,,,,,,2,,,72,0
44829,note_on,45,0,6,,,,,,,,2,,,69,0
44829,note_on,45,0,5,,,,,,,,2,,,81,0
44832,note_on,0,0,6,,,,,,,,2,,,69,74
44832,note_on,3,0,6,,,,,,,,2,,,72,74
44832,note_on,3,0,5,,,,,,,,2,,,79,73
44877,note_on,45,0,6,,,,,,,,2,,,69,0
44877,note_on,0,0,6,,,,,,,,2,,,72,0
44877,note_on,45,0,5,,,,,,,,2,,,79,0
44880,note_on,0,0,6,,,,,,,,2,,,69,69
44880,note_on,3,0,6,,,,,,,,2,,,72,69
44880,note_on,3,0,5,,,,,,,,2,,,77,68
44925,note_on,45,0,5,,,,,,,,2,,,77,0
44925,note_on,45,0,6,,,,,,,,2,,,69,0
44925,note_on,0,0,6,,,,,,,,2,,,72,0
44928,note_on,3,0,5,,,,,,,,2,,,76,64
44928,note_on,3,0,6,,,,,,,,2,,,72,64
44928,note_on,0,0,6,,,,,,,,2,,,69,64
44973,note_on,0,0,6,,,,,,,,2,,,72,0
44973,note_on,45,0,6,,,,,,,,2,,,69,0
44973,note_on,45,0,5,,,,,,,,2,,,76,0
44976,note_on,0,0,6,,,,,,,,2,,,69,64
44976,note_on,3,0,6,,,,,,,,2,,,72,64
44976,note_on,3,0,5,,,,,,,,2,,,75,64
45021,note_on,45,0,5,,,,,,,,2,,,75,0
45021,note_on,45,0,6,,,,,,,,2,,,69,0
45021,note_on,0,0,6,,,,,,,,2,,,72,0
45024,note_on,3,0,5,,,,,,,,2,,,75,64
45024,note_on,0,0,6,,,,,,,,2,,,69,64
45024,note_on,3,0,6,,,,,,,,2,,,72,64
45036,note_on,12,0,5,,,,,,,,2,,,75,0
45036,note_on,0,0,5,,,,,,,,2,,,76,64
45048,note_on,0,0,5,,,,,,,,2,,,75,64
45048,note_on,12,0,5,,,,,,,,2,,,76,0
45060,note_on,12,0,5,,,,,,,,2,,,75,0
45060,note_on,0,0,5,,,,,,,,2,,,76,64
45069,note_on,45,0,6,,,,,,,,2,,,69,0
45069,note_on,0,0,6,,,,,,,,2,,,72,0
45072,note_on,3,0,6,,,,,,,,2,,,72,64
45072,note_on,0,0,6,,,,,,,,2,,,69,64
45072,note_on,12,0,5,,,,,,,,2,,,76,0
45072,note_on,0,0,5,,,,,,,,2,,,75,64
45084,note_on,0,0,5,,,,,,,,2,,,76,64
45084,note_on,12,0,5,,,,,,,,2,,,75,0
45096,note_on,0,0,5,,,,,,,,2,,,75,64
45096,note_on,12,0,5,,,,,,,,2,,,76,0
45108,note_on,0,0,5,,,,,,,,2,,,76,64
45108,note_on,12,0,5,,,,,,,,2,,,75,0
45117,note_on,45,0,6,,,,,,,,2,,,69,0
45117,note_on,0,0,6,,,,,,,,2,,,72,0
45120,note_on,0,0,5,,,,,,,,2,,,75,64
45120,note_on,0,0,6,,,,,,,,2,,,69,64
45120,note_on,3,0,6,,,,,,,,2,,,71,64
45120,note_on,12,0,5,,,,,,,,2,,,76,0
45132,note_on,0,0,5,,,,,,,,2,,,76,64
45132,note_on,12,0,5,,,,,,,,2,,,75,0
45144,note_on,0,0,5,,,,,,,,2,,,75,64
45144,note_on,12,0,5,,,,,,,,2,,,76,0
45156,note_on,0,0,5,,,,,,,,2,,,76,64
45156,note_on,12,0,5,,,,,,,,2,,,75,0
45165,note_on,45,0,6,,,,,,,,2,,,69,0
45165,note_on,0,0,6,,,,,,,,2,,,71,0
45168,note_on,3,0,6,,,,,,,,2,,,71,64
45168,note_on,0,0,6,,,,,,,,2,,,69,64
45168,note_on,12,0,5,,,,,,,,2,,,76,0
45168,note_on,0,0,5,,,,,,,,2,,,75,64
45180,note_on,0,0,5,,,,,,,,2,,,76,64
45180,note_on,12,0,5,,,,,,,,2,,,75,0
45192,note_on,0,0,5,,,,,,,,2,,,75,64
45192,note_on,12,0,5,,,,,,,,2,,,76,0
45204,note_on,0,0,5,,,,,,,,2,,,76,64
45204,note_on,12,0,5,,,,,,,,2,,,75,0
45213,note_on,0,0,6,,,,,,,,2,,,71,0
45213,note_on,45,0,6,,,,,,,,2,,,69,0
45216,note_on,12,0,5,,,,,,,,2,,,76,0
45216,note_on,0,0,6,,,,,,,,2,,,69,64
45216,note_on,3,0,6,,,,,,,,2,,,71,64
45216,note_on,0,0,5,,,,,,,,2,,,75,64
45228,note_on,12,0,5,,,,,,,,2,,,75,0
45228,note_on,0,0,5,,,,,,,,2,,,76,64
45240,note_on,12,0,5,,,,,,,,2,,,76,0
45240,note_on,0,0,5,,,,,,,,2,,,75,64
45252,note_on,0,0,5,,,,,,,,2,,,76,64
45252,note_on,12,0,5,,,,,,,,2,,,75,0
45261,note_on,0,0,6,,,,,,,,2,,,71,0
45261,note_on,45,0,6,,,,,,,,2,,,69,0
45264,note_on,0,0,5,,,,,,,,2,,,75,64
45264,note_on,0,0,6,,,,,,,,2,,,69,64
45264,note_on,12,0,5,,,,,,,,2,,,76,0
45264,note_on,3,0,6,,,,,,,,2,,,71,64
45276,note_on,0,0,5,,,,,,,,2,,,76,64
45276,note_on,12,0,5,,,,,,,,2,,,75,0
45288,note_on,0,0,5,,,,,,,,2,,,75,64
45288,note_on,12,0,5,,,,,,,,2,,,76,0
45289,note_on,1,0,5,,,,,,,,2,,,75,0
45309,note_on,45,0,6,,,,,,,,2,,,69,0
45309,note_on,0,0,6,,,,,,,,2,,,71,0
45312,note_on,23,0,5,,,,,,,,2,,,76,64
45335,note_on,23,0,5,,,,,,,,2,,,76,0
45336,note_on,1,0,5,,,,,,,,2,,,75,67
45359,note_on,23,0,5,,,,,,,,2,,,75,0
45360,note_on,1,0,5,,,,,,,,2,,,76,71
45360,note_on,51,0,6,,,,,,,,2,,,71,64
45360,note_on,0,0,6,,,,,,,,2,,,67,64
45383,note_on,23,0,5,,,,,,,,2,,,76,0
45384,note_on,1,0,5,,,,,,,,2,,,78,74
45405,note_on,45,0,6,,,,,,,,2,,,67,0
45405,note_on,0,0,6,,,,,,,,2,,,71,0
45407,note_on,23,0,5,,,,,,,,2,,,78,0
45408,note_on,1,0,5,,,,,,,,2,,,79,78
45408,note_on,3,0,6,,,,,,,,2,,,71,71
45408,note_on,0,0,6,,,,,,,,2,,,67,71
45431,note_on,23,0,5,,,,,,,,2,,,79,0
45432,note_on,1,0,5,,,,,,,,2,,,78,81
45453,note_on,45,0,6,,,,,,,,2,,,67,0
45453,note_on,0,0,6,,,,,,,,2,,,71,0
45455,note_on,23,0,5,,,,,,,,2,,,78,0
45456,note_on,0,0,6,,,,,,,,2,,,67,78
45456,note_on,3,0,6,,,,,,,,2,,,71,78
45456,note_on,1,0,5,,,,,,,,2,,,81,85
45479,note_on,23,0,5,,,,,,,,2,,,81,0
45480,note_on,1,0,5,,,,,,,,2,,,79,82
45501,note_on,45,0,6,,,,,,,,2,,,67,0
45501,note_on,0,0,6,,,,,,,,2,,,71,0
45503,note_on,23,0,5,,,,,,,,2,,,79,0
45504,note_on,1,0,5,,,,,,,,2,,,82,80
45504,note_on,3,0,6,,,,,,,,2,,,70,85
45504,note_on,0,0,6,,,,,,,,2,,,67,85
45549,note_on,45,0,6,,,,,,,,2,,,67,0
45549,note_on,45,0,5,,,,,,,,2,,,82,0
45549,note_on,0,0,6,,,,,,,,2,,,70,0
45552,note_on,3,0,5,,,,,,,,2,,,79,76
45552,note_on,3,0,6,,,,,,,,2,,,70,79
45552,note_on,0,0,6,,,,,,,,2,,,67,79
45597,note_on,45,0,6,,,,,,,,2,,,67,0
45597,note_on,45,0,5,,,,,,,,2,,,79,0
45597,note_on,0,0,6,,,,,,,,2,,,70,0
45600,note_on,3,0,6,,,,,,,,2,,,70,74
45600,note_on,0,0,6,,,,,,,,2,,,67,74
45600,note_on,3,0,5,,,,,,,,2,,,76,72
45645,note_on,45,0,6,,,,,,,,2,,,67,0
45645,note_on,45,0,5,,,,,,,,2,,,76,0
45645,note_on,0,0,6,,,,,,,,2,,,70,0
45648,note_on,3,0,6,,,,,,,,2,,,70,69
45648,note_on,0,0,6,,,,,,,,2,,,67,69
45648,note_on,3,0,5,,,,,,,,2,,,74,68
45693,note_on,45,0,5,,,,,,,,2,,,74,0
45693,note_on,0,0,6,,,,,,,,2,,,70,0
45693,note_on,45,0,6,,,,,,,,2,,,67,0
45696,note_on,3,0,5,,,,,,,,2,,,74,64
45741,note_on,45,0,5,,,,,,,,2,,,74,0
45744,note_on,3,0,5,,,,,,,,2,,,73,64
45744,note_on,51,0,6,,,,,,,,2,,,70,64
45744,note_on,0,0,6,,,,,,,,2,,,67,64
45789,note_on,45,0,5,,,,,,,,2,,,73,0
45789,note_on,45,0,6,,,,,,,,2,,,67,0
45789,note_on,0,0,6,,,,,,,,2,,,70,0
45792,note_on,3,0,5,,,,,,,,2,,,73,64
45792,note_on,0,0,6,,,,,,,,2,,,67,64
45792,note_on,3,0,6,,,,,,,,2,,,70,64
45804,note_on,12,0,5,,,,,,,,2,,,73,0
45804,note_on,0,0,5,,,,,,,,2,,,74,64
45816,note_on,0,0,5,,,,,,,,2,,,73,64
45816,note_on,12,0,5,,,,,,,,2,,,74,0
45828,note_on,12,0,5,,,,,,,,2,,,73,0
45828,note_on,0,0,5,,,,,,,,2,,,74,64
45837,note_on,0,0,6,,,,,,,,2,,,70,0
45837,note_on,45,0,6,,,,,,,,2,,,67,0
45840,note_on,12,0,5,,,,,,,,2,,,74,0
45840,note_on,0,0,5,,,,,,,,2,,,73,64
45840,note_on,0,0,6,,,,,,,,2,,,67,64
45840,note_on,3,0,6,,,,,,,,2,,,70,64
45852,note_on,12,0,5,,,,,,,,2,,,73,0
45852,note_on,0,0,5,,,,,,,,2,,,74,64
45864,note_on,12,0,5,,,,,,,,2,,,74,0
45864,note_on,0,0,5,,,,,,,,2,,,73,64
45876,note_on,0,0,5,,,,,,,,2,,,74,64
45876,note_on,12,0,5,,,,,,,,2,,,73,0
45885,note_on,45,0,6,,,,,,,,2,,,67,0
45885,note_on,0,0,6,,,,,,,,2,,,70,0
45888,note_on,0,0,6,,,,,,,,2,,,67,64
45888,note_on,0,0,5,,,,,,,,2,,,73,64
45888,note_on,12,0,5,,,,,,,,2,,,74,0
45888,note_on,3,0,6,,,,,,,,2,,,69,64
45900,note_on,0,0,5,,,,,,,,2,,,74,64
45900,note_on,12,0,5,,,,,,,,2,,,73,0
45912,note_on,12,0,5,,,,,,,,2,,,74,0
45912,note_on,0,0,5,,,,,,,,2,,,73,64
45924,note_on,0,0,5,,,,,,,,2,,,74,64
45924,note_on,12,0,5,,,,,,,,2,,,73,0
45933,note_on,45,0,6,,,,,,,,2,,,67,0
45933,note_on,0,0,6,,,,,,,,2,,,69,0
45936,note_on,3,0,6,,,,,,,,2,,,69,64
45936,note_on,0,0,5,,,,,,,,2,,,73,64
45936,note_on,0,0,6,,,,,,,,2,,,67,64
45936,note_on,12,0,5,,,,,,,,2,,,74,0
45948,note_on,12,0,5,,,,,,,,2,,,73,0
45948,note_on,0,0,5,,,,,,,,2,,,74,64
45960,note_on,12,0,5,,,,,,,,2,,,74,0
45960,note_on,0,0,5,,,,,,,,2,,,73,64
45972,note_on,12,0,5,,,,,,,,2,,,73,0
45972,note_on,0,0,5,,,,,,,,2,,,74,64
45981,note_on,45,0,6,,,,,,,,2,,,67,0
45981,note_on,0,0,6,,,,,,,,2,,,69,0
45984,note_on,3,0,6,,,,,,,,2,,,69,64
45984,note_on,0,0,6,,,,,,,,2,,,67,64
45984,note_on,12,0,5,,,,,,,,2,,,74,0
45984,note_on,0,0,5,,,,,,,,2,,,73,64
45996,note_on,12,0,5,,,,,,,,2,,,73,0
45996,note_on,0,0,5,,,,,,,,2,,,74,64
46008,note_on,12,0,5,,,,,,,,2,,,74,0
46008,note_on,0,0,5,,,,,,,,2,,,73,64
46020,note_on,0,0,5,,,,,,,,2,,,74,64
46020,note_on,12,0,5,,,,,,,,2,,,73,0
46029,note_on,45,0,6,,,,,,,,2,,,67,0
46029,note_on,0,0,6,,,,,,,,2,,,69,0
46032,note_on,0,0,5,,,,,,,,2,,,73,64
46032,note_on,12,0,5,,,,,,,,2,,,74,0
46032,note_on,0,0,6,,,,,,,,2,,,67,64
46032,note_on,3,0,6,,,,,,,,2,,,69,64
46044,note_on,12,0,5,,,,,,,,2,,,73,0
46044,note_on,0,0,5,,,,,,,,2,,,74,64
46056,note_on,12,0,5,,,,,,,,2,,,74,0
46056,note_on,0,0,5,,,,,,,,2,,,73,64
46057,note_on,1,0,5,,,,,,,,2,,,73,0
46077,note_on,0,0,6,,,,,,,,2,,,69,0
46077,note_on,45,0,6,,,,,,,,2,,,67,0
46080,note_on,23,0,5,,,,,,,,2,,,74,64
46103,note_on,23,0,5,,,,,,,,2,,,74,0
46104,note_on,1,0,5,,,,,,,,2,,,73,67
46127,note_on,23,0,5,,,,,,,,2,,,73,0
46128,note_on,1,0,5,,,,,,,,2,,,74,71
46128,note_on,0,0,6,,,,,,,,2,,,53,71
46128,note_on,51,0,6,,,,,,,,2,,,57,71
46151,note_on,23,0,5,,,,,,,,2,,,74,0
46152,note_on,1,0,5,,,,,,,,2,,,69,74
46173,note_on,45,0,6,,,,,,,,2,,,53,0
46173,note_on,0,0,6,,,,,,,,2,,,57,0
46175,note_on,23,0,5,,,,,,,,2,,,69,0
46176,note_on,1,0,5,,,,,,,,2,,,77,78
46176,note_on,0,0,6,,,,,,,,2,,,53,78
46176,note_on,3,0,6,,,,,,,,2,,,57,78
46199,note_on,23,0,5,,,,,,,,2,,,77,0
46200,note_on,1,0,5,,,,,,,,2,,,76,81
46221,note_on,45,0,6,,,,,,,,2,,,53,0
46221,note_on,0,0,6,,,,,,,,2,,,57,0
46223,note_on,23,0,5,,,,,,,,2,,,76,0
46224,note_on,3,0,6,,,,,,,,2,,,57,85
46224,note_on,0,0,6,,,,,,,,2,,,53,85
46224,note_on,1,0,5,,,,,,,,2,,,77,85
46247,note_on,23,0,5,,,,,,,,2,,,77,0
46248,note_on,1,0,5,,,,,,,,2,,,74,82
46269,note_on,45,0,6,,,,,,,,2,,,53,0
46269,note_on,0,0,6,,,,,,,,2,,,57,0
46271,note_on,23,0,5,,,,,,,,2,,,74,0
46272,note_on,1,0,5,,,,,,,,2,,,81,80
46272,note_on,3,0,6,,,,,,,,2,,,57,80
46272,note_on,0,0,6,,,,,,,,2,,,53,80
46317,note_on,0,0,6,,,,,,,,2,,,57,0
46317,note_on,45,0,5,,,,,,,,2,,,81,0
46317,note_on,45,0,6,,,,,,,,2,,,53,0
46320,note_on,3,0,6,,,,,,,,2,,,57,76
46320,note_on,0,0,6,,,,,,,,2,,,53,76
46320,note_on,3,0,5,,,,,,,,2,,,76,76
46365,note_on,45,0,5,,,,,,,,2,,,76,0
46365,note_on,45,0,6,,,,,,,,2,,,53,0
46365,note_on,0,0,6,,,,,,,,2,,,57,0
46368,note_on,3,0,5,,,,,,,,2,,,77,72
46368,note_on,0,0,6,,,,,,,,2,,,53,72
46368,note_on,3,0,6,,,,,,,,2,,,57,72
46413,note_on,0,0,6,,,,,,,,2,,,57,0
46413,note_on,45,0,6,,,,,,,,2,,,53,0
46413,note_on,45,0,5,,,,,,,,2,,,77,0
46416,note_on,0,0,6,,,,,,,,2,,,53,68
46416,note_on,3,0,6,,,,,,,,2,,,57,68
46416,note_on,3,0,5,,,,,,,,2,,,74,68
46461,note_on,0,0,6,,,,,,,,2,,,57,0
46461,note_on,45,0,5,,,,,,,,2,,,74,0
46461,note_on,45,0,6,,,,,,,,2,,,53,0
46464,note_on,3,0,5,,,,,,,,2,,,72,64
46509,note_on,45,0,5,,,,,,,,2,,,72,0
46512,note_on,51,0,6,,,,,,,,2,,,56,64
46512,note_on,0,0,6,,,,,,,,2,,,53,64
46512,note_on,3,0,5,,,,,,,,2,,,71,64
46557,note_on,45,0,5,,,,,,,,2,,,71,0
46557,note_on,45,0,6,,,,,,,,2,,,53,0
46557,note_on,0,0,6,,,,,,,,2,,,56,0
46560,note_on,3,0,5,,,,,,,,2,,,71,64
46560,note_on,3,0,6,,,,,,,,2,,,56,64
46560,note_on,0,0,6,,,,,,,,2,,,53,64
46572,note_on,0,0,5,,,,,,,,2,,,72,64
46572,note_on,12,0,5,,,,,,,,2,,,71,0
46584,note_on,0,0,5,,,,,,,,2,,,71,64
46584,note_on,12,0,5,,,,,,,,2,,,72,0
46596,note_on,0,0,5,,,,,,,,2,,,72,64
46596,note_on,12,0,5,,,,,,,,2,,,71,0
46605,note_on,0,0,6,,,,,,,,2,,,56,0
46605,note_on,45,0,6,,,,,,,,2,,,53,0
46608,note_on,0,0,6,,,,,,,,2,,,53,64
46608,note_on,3,0,6,,,,,,,,2,,,56,64
46608,note_on,0,0,5,,,,,,,,2,,,71,64
46608,note_on,12,0,5,,,,,,,,2,,,72,0
46620,note_on,0,0,5,,,,,,,,2,,,72,64
46620,note_on,12,0,5,,,,,,,,2,,,71,0
46632,note_on,0,0,5,,,,,,,,2,,,71,64
46632,note_on,12,0,5,,,,,,,,2,,,72,0
46644,note_on,12,0,5,,,,,,,,2,,,71,0
46644,note_on,0,0,5,,,,,,,,2,,,72,64
46653,note_on,45,0,6,,,,,,,,2,,,53,0
46653,note_on,0,0,6,,,,,,,,2,,,56,0
46656,note_on,0,0,5,,,,,,,,2,,,71,64
46656,note_on,0,0,6,,,,,,,,2,,,53,64
46656,note_on,3,0,6,,,,,,,,2,,,55,64
46656,note_on,12,0,5,,,,,,,,2,,,72,0
46668,note_on,12,0,5,,,,,,,,2,,,71,0
46668,note_on,0,0,5,,,,,,,,2,,,72,64
46680,note_on,12,0,5,,,,,,,,2,,,72,0
46680,note_on,0,0,5,,,,,,,,2,,,71,64
46692,note_on,12,0,5,,,,,,,,2,,,71,0
46692,note_on,0,0,5,,,,,,,,2,,,72,64
46701,note_on,0,0,6,,,,,,,,2,,,55,0
46701,note_on,45,0,6,,,,,,,,2,,,53,0
46704,note_on,0,0,6,,,,,,,,2,,,53,64
46704,note_on,0,0,5,,,,,,,,2,,,71,64
46704,note_on,3,0,6,,,,,,,,2,,,55,64
46704,note_on,12,0,5,,,,,,,,2,,,72,0
46716,note_on,0,0,5,,,,,,,,2,,,72,64
46716,note_on,12,0,5,,,,,,,,2,,,71,0
46728,note_on,12,0,5,,,,,,,,2,,,72,0
46728,note_on,0,0,5,,,,,,,,2,,,71,64
46740,note_on,0,0,5,,,,,,,,2,,,72,64
46740,note_on,12,0,5,,,,,,,,2,,,71,0
46749,note_on,0,0,6,,,,,,,,2,,,55,0
46749,note_on,45,0,6,,,,,,,,2,,,53,0
46752,note_on,12,0,5,,,,,,,,2,,,72,0
46752,note_on,0,0,5,,,,,,,,2,,,71,64
46752,note_on,0,0,6,,,,,,,,2,,,53,64
46752,note_on,3,0,6,,,,,,,,2,,,55,64
46764,note_on,12,0,5,,,,,,,,2,,,71,0
46764,note_on,0,0,5,,,,,,,,2,,,72,64
46776,note_on,12,0,5,,,,,,,,2,,,72,0
46776,note_on,0,0,5,,,,,,,,2,,,71,64
46788,note_on,0,0,5,,,,,,,,2,,,72,64
46788,note_on,12,0,5,,,,,,,,2,,,71,0
46797,note_on,45,0,6,,,,,,,,2,,,53,0
46797,note_on,0,0,6,,,,,,,,2,,,55,0
46800,note_on,3,0,6,,,,,,,,2,,,55,64
46800,note_on,0,0,6,,,,,,,,2,,,53,64
46800,note_on,0,0,5,,,,,,,,2,,,71,64
46800,note_on,12,0,5,,,,,,,,2,,,72,0
46812,note_on,12,0,5,,,,,,,,2,,,71,0
46812,note_on,0,0,5,,,,,,,,2,,,72,64
46824,note_on,0,0,5,,,,,,,,2,,,71,64
46824,note_on,12,0,5,,,,,,,,2,,,72,0
46825,note_on,1,0,5,,,,,,,,2,,,71,0
46845,note_on,45,0,6,,,,,,,,2,,,53,0
46845,note_on,0,0,6,,,,,,,,2,,,55,0
46848,note_on,3,0,6,,,,,,,,2,,,55,64
46848,note_on,2983,0,10,,,,,,,,3,,,64,43
46848,note_on,23,0,5,,,,,,,,2,,,72,64
46848,note_on,2983,0,11,,,,,,,,3,,,40,43
46848,note_on,2983,0,9,,,,,,,,3,,,67,43
46848,note_on,2983,0,8,,,,,,,,3,,,72,43
46848,note_on,0,0,6,,,,,,,,2,,,52,64
46871,note_on,23,0,5,,,,,,,,2,,,72,0
46872,note_on,1,0,5,,,,,,,,2,,,74,64
46895,note_on,23,0,5,,,,,,,,2,,,74,0
46896,note_on,1,0,5,,,,,,,,2,,,72,64
46919,note_on,23,0,5,,,,,,,,2,,,72,0
46920,note_on,1,0,5,,,,,,,,2,,,71,64
46937,note_on,89,0,8,,,,,,,,3,,,72,0
46937,note_on,89,0,6,,,,,,,,2,,,52,0
46937,note_on,0,0,6,,,,,,,,2,,,55,0
46937,note_on,89,0,11,,,,,,,,3,,,40,0
46937,note_on,89,0,10,,,,,,,,3,,,64,0
46937,note_on,89,0,9,,,,,,,,3,,,67,0
46943,note_on,23,0,5,,,,,,,,2,,,71,0
46944,note_on,1,0,5,,,,,,,,2,,,72,64
46967,note_on,23,0,5,,,,,,,,2,,,72,0
46968,note_on,1,0,5,,,,,,,,2,,,67,64
46991,note_on,23,0,5,,,,,,,,2,,,67,0
46992,note_on,1,0,5,,,,,,,,2,,,72,64
47015,note_on,23,0,5,,,,,,,,2,,,72,0
47016,note_on,1,0,5,,,,,,,,2,,,76,64
47039,note_on,23,0,5,,,,,,,,2,,,76,0
47040,note_on,103,0,10,,,,,,,,3,,,59,43
47040,note_on,103,0,9,,,,,,,,3,,,67,43
47040,note_on,1,0,5,,,,,,,,2,,,74,64
47040,note_on,103,0,11,,,,,,,,3,,,35,43
47040,note_on,0,0,6,,,,,,,,2,,,47,64
47040,note_on,103,0,6,,,,,,,,2,,,55,64
47040,note_on,103,0,8,,,,,,,,3,,,74,43
47063,note_on,23,0,5,,,,,,,,2,,,74,0
47064,note_on,1,0,5,,,,,,,,2,,,76,64
47087,note_on,23,0,5,,,,,,,,2,,,76,0
47088,note_on,1,0,5,,,,,,,,2,,,74,64
47111,note_on,23,0,5,,,,,,,,2,,,74,0
47112,note_on,1,0,5,,,,,,,,2,,,73,64
47129,note_on,89,0,11,,,,,,,,3,,,35,0
47129,note_on,89,0,9,,,,,,,,3,,,67,0
47129,note_on,89,0,8,,,,,,,,3,,,74,0
47129,note_on,89,0,6,,,,,,,,2,,,47,0
47129,note_on,89,0,10,,,,,,,,3,,,59,0
47129,note_on,0,0,6,,,,,,,,2,,,55,0
47135,note_on,23,0,5,,,,,,,,2,,,73,0
47136,note_on,1,0,5,,,,,,,,2,,,74,64
47159,note_on,23,0,5,,,,,,,,2,,,74,0
47160,note_on,1,0,5,,,,,,,,2,,,67,64
47183,note_on,23,0,5,,,,,,,,2,,,67,0
47184,note_on,1,0,5,,,,,,,,2,,,74,64
47207,note_on,23,0,5,,,,,,,,2,,,74,0
47208,note_on,1,0,5,,,,,,,,2,,,77,64
47231,note_on,23,0,5,,,,,,,,2,,,77,0
47232,note_on,103,0,11,,,,,,,,3,,,36,43
47232,note_on,1,0,5,,,,,,,,2,,,76,64
47232,note_on,0,0,6,,,,,,,,2,,,48,64
47232,note_on,103,0,8,,,,,,,,3,,,76,43
47232,note_on,103,0,9,,,,,,,,3,,,67,43
47232,note_on,103,0,10,,,,,,,,3,,,60,43
47232,note_on,103,0,6,,,,,,,,2,,,60,64
47255,note_on,23,0,5,,,,,,,,2,,,76,0
47256,note_on,1,0,5,,,,,,,,2,,,77,65
47279,note_on,23,0,5,,,,,,,,2,,,77,0
47280,note_on,1,0,5,,,,,,,,2,,,76,66
47303,note_on,23,0,5,,,,,,,,2,,,76,0
47304,note_on,1,0,5,,,,,,,,2,,,74,67
47321,note_on,89,0,6,,,,,,,,2,,,48,0
47321,note_on,0,0,6,,,,,,,,2,,,60,0
47321,note_on,89,0,10,,,,,,,,3,,,60,0
47321,note_on,89,0,9,,,,,,,,3,,,67,0
47321,note_on,89,0,11,,,,,,,,3,,,36,0
47327,note_on,23,0,5,,,,,,,,2,,,74,0
47328,note_on,1,0,5,,,,,,,,2,,,76,68
47328,note_on,7,0,6,,,,,,,,2,,,58,74
47328,note_on,0,0,6,,,,,,,,2,,,46,74
47328,note_on,7,0,10,,,,,,,,3,,,67,43
47328,note_on,7,0,9,,,,,,,,3,,,72,43
47328,note_on,7,0,11,,,,,,,,3,,,46,43
47351,note_on,23,0,5,,,,,,,,2,,,76,0
47352,note_on,1,0,5,,,,,,,,2,,,72,69
47375,note_on,23,0,5,,,,,,,,2,,,72,0
47376,note_on,1,0,5,,,,,,,,2,,,76,70
47399,note_on,23,0,5,,,,,,,,2,,,76,0
47400,note_on,1,0,5,,,,,,,,2,,,79,71
47409,note_on,177,0,8,,,,,,,,3,,,76,0
47417,note_on,89,0,6,,,,,,,,2,,,46,0
47417,note_on,89,0,10,,,,,,,,3,,,67,0
47417,note_on,89,0,11,,,,,,,,3,,,46,0
47417,note_on,0,0,6,,,,,,,,2,,,58,0
47423,note_on,23,0,5,,,,,,,,2,,,79,0
47424,note_on,7,0,11,,,,,,,,3,,,45,43
47424,note_on,15,0,8,,,,,,,,3,,,77,43
47424,note_on,1,0,5,,,,,,,,2,,,77,72
47424,note_on,0,0,6,,,,,,,,2,,,45,85
47424,note_on,7,0,10,,,,,,,,3,,,65,43
47424,note_on,7,0,6,,,,,,,,2,,,57,85
47447,note_on,23,0,5,,,,,,,,2,,,77,0
47448,note_on,1,0,5,,,,,,,,2,,,79,73
47471,note_on,23,0,5,,,,,,,,2,,,79,0
47472,note_on,1,0,5,,,,,,,,2,,,77,75
47495,note_on,23,0,5,,,,,,,,2,,,77,0
47496,note_on,1,0,5,,,,,,,,2,,,76,76
47505,note_on,177,0,9,,,,,,,,3,,,72,0
47513,note_on,0,0,6,,,,,,,,2,,,57,0
47513,note_on,89,0,8,,,,,,,,3,,,77,0
47513,note_on,89,0,6,,,,,,,,2,,,45,0
47513,note_on,89,0,11,,,,,,,,3,,,45,0
47519,note_on,23,0,5,,,,,,,,2,,,76,0
47520,note_on,15,0,9,,,,,,,,3,,,72,43
47520,note_on,7,0,11,,,,,,,,3,,,41,43
47520,note_on,0,0,6,,,,,,,,2,,,41,85
47520,note_on,7,0,6,,,,,,,,2,,,53,85
47520,note_on,7,0,8,,,,,,,,3,,,81,43
47520,note_on,1,0,5,,,,,,,,2,,,77,77
47543,note_on,23,0,5,,,,,,,,2,,,77,0
47544,note_on,1,0,5,,,,,,,,2,,,72,78
47567,note_on,23,0,5,,,,,,,,2,,,72,0
47568,note_on,1,0,5,,,,,,,,2,,,77,79
47591,note_on,23,0,5,,,,,,,,2,,,77,0
47592,note_on,1,0,5,,,,,,,,2,,,81,80
47601,note_on,177,0,10,,,,,,,,3,,,65,0
47609,note_on,89,0,8,,,,,,,,3,,,81,0
47609,note_on,89,0,11,,,,,,,,3,,,41,0
47609,note_on,89,0,6,,,,,,,,2,,,41,0
47609,note_on,0,0,6,,,,,,,,2,,,53,0
47609,note_on,89,0,9,,,,,,,,3,,,72,0
47615,note_on,23,0,5,,,,,,,,2,,,81,0
47616,note_on,7,0,8,,,,,,,,3,,,79,43
47616,note_on,7,0,11,,,,,,,,3,,,40,43
47616,note_on,0,0,6,,,,,,,,2,,,40,85
47616,note_on,15,0,10,,,,,,,,3,,,64,43
47616,note_on,7,0,6,,,,,,,,2,,,52,85
47616,note_on,1,0,5,,,,,,,,2,,,79,81
47616,note_on,7,0,9,,,,,,,,3,,,72,43
47639,note_on,23,0,5,,,,,,,,2,,,79,0
47640,note_on,1,0,5,,,,,,,,2,,,81,82
47663,note_on,23,0,5,,,,,,,,2,,,81,0
47664,note_on,1,0,5,,,,,,,,2,,,79,83
47687,note_on,23,0,5,,,,,,,,2,,,79,0
47688,note_on,1,0,5,,,,,,,,2,,,78,85
47705,note_on,89,0,11,,,,,,,,3,,,40,0
47705,note_on,89,0,8,,,,,,,,3,,,79,0
47705,note_on,89,0,9,,,,,,,,3,,,72,0
47705,note_on,89,0,6,,,,,,,,2,,,40,0
47705,note_on,0,0,6,,,,,,,,2,,,52,0
47705,note_on,89,0,10,,,,,,,,3,,,64,0
47711,note_on,23,0,5,,,,,,,,2,,,78,0
47712,note_on,1,0,5,,,,,,,,2,,,79,84
47735,note_on,23,0,5,,,,,,,,2,,,79,0
47736,note_on,1,0,5,,,,,,,,2,,,72,83
47759,note_on,23,0,5,,,,,,,,2,,,72,0
47760,note_on,55,0,6,,,,,,,,2,,,64,85
47760,note_on,1,0,5,,,,,,,,2,,,79,82
47783,note_on,23,0,5,,,,,,,,2,,,79,0
47784,note_on,1,0,5,,,,,,,,2,,,82,81
47805,note_on,45,0,6,,,,,,,,2,,,64,0
47807,note_on,23,0,5,,,,,,,,2,,,82,0
47808,note_on,3,0,6,,,,,,,,2,,,65,85
47808,note_on,1,0,5,,,,,,,,2,,,81,80
47831,note_on,23,0,5,,,,,,,,2,,,81,0
47832,note_on,1,0,5,,,,,,,,2,,,77,79
47855,note_on,23,0,5,,,,,,,,2,,,77,0
47856,note_on,1,0,5,,,,,,,,2,,,81,78
47879,note_on,23,0,5,,,,,,,,2,,,81,0
47880,note_on,1,0,5,,,,,,,,2,,,84,77
47897,note_on,89,0,6,,,,,,,,2,,,65,0
47903,note_on,23,0,5,,,,,,,,2,,,84,0
47904,note_on,1,0,5,,,,,,,,2,,,83,76
47904,note_on,7,0,6,,,,,,,,2,,,65,85
47927,note_on,23,0,5,,,,,,,,2,,,83,0
47928,note_on,1,0,5,,,,,,,,2,,,79,75
47951,note_on,23,0,5,,,,,,,,2,,,79,0
47952,note_on,1,0,5,,,,,,,,2,,,83,74
47975,note_on,23,0,5,,,,,,,,2,,,83,0
47976,note_on,1,0,5,,,,,,,,2,,,86,73
47993,note_on,89,0,6,,,,,,,,2,,,65,0
47999,note_on,23,0,5,,,,,,,,2,,,86,0
48000,note_on,1,0,5,,,,,,,,2,,,84,72
48000,note_on,7,0,6,,,,,,,,2,,,64,85
48023,note_on,23,0,5,,,,,,,,2,,,84,0
48024,note_on,1,0,5,,,,,,,,2,,,83,71
48047,note_on,23,0,5,,,,,,,,2,,,83,0
48048,note_on,1,0,5,,,,,,,,2,,,81,70
48071,note_on,23,0,5,,,,,,,,2,,,81,0
48072,note_on,1,0,5,,,,,,,,2,,,79,69
48089,note_on,89,0,6,,,,,,,,2,,,64,0
48095,note_on,23,0,5,,,,,,,,2,,,79,0
48096,note_on,1,0,5,,,,,,,,2,,,77,68
48119,note_on,23,0,5,,,,,,,,2,,,77,0
48120,note_on,1,0,5,,,,,,,,2,,,76,67
48143,note_on,23,0,5,,,,,,,,2,,,76,0
48144,note_on,1,0,5,,,,,,,,2,,,74,66
48167,note_on,23,0,5,,,,,,,,2,,,74,0
48168,note_on,1,0,5,,,,,,,,2,,,72,65
48191,note_on,23,0,5,,,,,,,,2,,,72,0
48192,note_on,487,0,10,,,,,,,,3,,,67,43
48192,note_on,1,0,5,,,,,,,,2,,,77,64
48192,note_on,0,0,5,,,,,,,,2,,,74,64
48192,note_on,103,0,6,,,,,,,,2,,,59,64
48192,note_on,487,0,9,,,,,,,,3,,,74,43
48192,note_on,487,0,8,,,,,,,,3,,,77,43
48192,note_on,487,0,11,,,,,,,,3,,,47,43
48281,note_on,89,0,6,,,,,,,,2,,,59,0
48281,note_on,89,0,9,,,,,,,,3,,,74,0
48281,note_on,89,0,8,,,,,,,,3,,,77,0
48281,note_on,89,0,10,,,,,,,,3,,,67,0
48281,note_on,89,0,11,,,,,,,,3,,,47,0
48281,note_on,0,0,5,,,,,,,,2,,,77,0
48281,note_on,89,0,5,,,,,,,,2,,,74,0
48288,note_on,7,0,9,,,,,,,,3,,,72,43
48288,note_on,7,0,11,,,,,,,,3,,,48,43
48288,note_on,7,0,8,,,,,,,,3,,,76,43
48288,note_on,7,0,6,,,,,,,,2,,,60,64
48288,note_on,7,0,10,,,,,,,,3,,,67,43
48288,note_on,0,0,5,,,,,,,,2,,,72,64
48288,note_on,7,0,5,,,,,,,,2,,,76,64
48377,note_on,89,0,6,,,,,,,,2,,,60,0
48377,note_on,89,0,8,,,,,,,,3,,,76,0
48377,note_on,89,0,11,,,,,,,,3,,,48,0
48377,note_on,89,0,9,,,,,,,,3,,,72,0
48377,note_on,89,0,10,,,,,,,,3,,,67,0
48377,note_on,89,0,5,,,,,,,,2,,,72,0
48377,note_on,0,0,5,,,,,,,,2,,,76,0
48384,note_on,7,0,6,,,,,,,,2,,,55,64
48384,note_on,7,0,11,,,,,,,,3,,,43,43
48384,note_on,7,0,10,,,,,,,,3,,,67,43
48384,note_on,7,0,9,,,,,,,,3,,,71,43
48384,note_on,7,0,8,,,,,,,,3,,,74,43
48384,note_on,7,0,5,,,,,,,,2,,,74,64
48384,note_on,0,0,5,,,,,,,,2,,,71,64
48407,note_on,23,0,6,,,,,,,,2,,,55,0
48408,note_on,1,0,6,,,,,,,,2,,,67,64
48429,note_on,45,0,5,,,,,,,,2,,,71,0
48429,note_on,0,0,5,,,,,,,,2,,,74,0
48431,note_on,23,0,6,,,,,,,,2,,,67,0
48432,note_on,1,0,6,,,,,,,,2,,,66,64
48455,note_on,23,0,6,,,,,,,,2,,,66,0
48456,note_on,1,0,6,,,,,,,,2,,,67,64
48473,note_on,89,0,10,,,,,,,,3,,,67,0
48473,note_on,89,0,9,,,,,,,,3,,,71,0
48473,note_on,89,0,11,,,,,,,,3,,,43,0
48473,note_on,89,0,8,,,,,,,,3,,,74,0
48479,note_on,23,0,6,,,,,,,,2,,,67,0
48480,note_on,1,0,6,,,,,,,,2,,,69,64
48503,note_on,23,0,6,,,,,,,,2,,,69,0
48504,note_on,1,0,6,,,,,,,,2,,,67,64
48527,note_on,23,0,6,,,,,,,,2,,,67,0
48528,note_on,1,0,6,,,,,,,,2,,,66,64
48551,note_on,23,0,6,,,,,,,,2,,,66,0
48552,note_on,1,0,6,,,,,,,,2,,,67,64
48575,note_on,23,0,6,,,,,,,,2,,,67,0
48576,note_on,1,0,6,,,,,,,,2,,,55,64
48576,note_on,0,0,5,,,,,,,,2,,,83,64
48576,note_on,147,0,5,,,,,,,,2,,,86,64
48599,note_on,23,0,6,,,,,,,,2,,,55,0
48600,note_on,1,0,6,,,,,,,,2,,,67,64
48621,note_on,45,0,5,,,,,,,,2,,,83,0
48621,note_on,0,0,5,,,,,,,,2,,,86,0
48623,note_on,23,0,6,,,,,,,,2,,,67,0
48624,note_on,1,0,6,,,,,,,,2,,,66,64
48647,note_on,23,0,6,,,,,,,,2,,,66,0
48648,note_on,1,0,6,,,,,,,,2,,,67,64
48671,note_on,23,0,6,,,,,,,,2,,,67,0
48672,note_on,1,0,6,,,,,,,,2,,,69,64
48672,note_on,51,0,5,,,,,,,,2,,,77,64
48672,note_on,0,0,5,,,,,,,,2,,,74,64
48695,note_on,23,0,6,,,,,,,,2,,,69,0
48696,note_on,1,0,6,,,,,,,,2,,,67,64
48717,note_on,0,0,5,,,,,,,,2,,,77,0
48717,note_on,45,0,5,,,,,,,,2,,,74,0
48719,note_on,23,0,6,,,,,,,,2,,,67,0
48720,note_on,1,0,6,,,,,,,,2,,,66,64
48743,note_on,23,0,6,,,,,,,,2,,,66,0
48744,note_on,1,0,6,,,,,,,,2,,,67,64
48767,note_on,23,0,6,,,,,,,,2,,,67,0
48768,note_on,1,0,6,,,,,,,,2,,,55,64
48768,note_on,0,0,5,,,,,,,,2,,,72,64
48768,note_on,51,0,5,,,,,,,,2,,,76,64
48791,note_on,23,0,6,,,,,,,,2,,,55,0
48792,note_on,1,0,6,,,,,,,,2,,,67,64
48813,note_on,0,0,5,,,,,,,,2,,,76,0
48813,note_on,45,0,5,,,,,,,,2,,,72,0
48815,note_on,23,0,6,,,,,,,,2,,,67,0
48816,note_on,1,0,6,,,,,,,,2,,,66,64
48839,note_on,23,0,6,,,,,,,,2,,,66,0
48840,note_on,1,0,6,,,,,,,,2,,,67,64
48863,note_on,23,0,6,,,,,,,,2,,,67,0
48864,note_on,1,0,6,,,,,,,,2,,,69,64
48864,note_on,0,0,5,,,,,,,,2,,,76,64
48864,note_on,51,0,5,,,,,,,,2,,,79,64
48887,note_on,23,0,6,,,,,,,,2,,,69,0
48888,note_on,1,0,6,,,,,,,,2,,,67,64
48909,note_on,0,0,5,,,,,,,,2,,,79,0
48909,note_on,45,0,5,,,,,,,,2,,,76,0
48911,note_on,23,0,6,,,,,,,,2,,,67,0
48912,note_on,1,0,6,,,,,,,,2,,,66,64
48935,note_on,23,0,6,,,,,,,,2,,,66,0
48936,note_on,1,0,6,,,,,,,,2,,,67,64
48959,note_on,23,0,6,,,,,,,,2,,,67,0
48960,note_on,51,0,5,,,,,,,,2,,,84,64
48960,note_on,0,0,5,,,,,,,,2,,,76,64
48960,note_on,1,0,6,,,,,,,,2,,,55,64
48983,note_on,23,0,6,,,,,,,,2,,,55,0
48984,note_on,1,0,6,,,,,,,,2,,,67,64
49005,note_on,45,0,5,,,,,,,,2,,,76,0
49005,note_on,0,0,5,,,,,,,,2,,,84,0
49007,note_on,23,0,6,,,,,,,,2,,,67,0
49008,note_on,1,0,6,,,,,,,,2,,,66,64
49031,note_on,23,0,6,,,,,,,,2,,,66,0
49032,note_on,1,0,6,,,,,,,,2,,,67,64
49055,note_on,23,0,6,,,,,,,,2,,,67,0
49056,note_on,1,0,6,,,,,,,,2,,,69,64
49056,note_on,0,0,5,,,,,,,,2,,,72,64
49056,note_on,51,0,5,,,,,,,,2,,,76,64
49079,note_on,23,0,6,,,,,,,,2,,,69,0
49080,note_on,1,0,6,,,,,,,,2,,,67,64
49101,note_on,0,0,5,,,,,,,,2,,,76,0
49101,note_on,45,0,5,,,,,,,,2,,,72,0
49103,note_on,23,0,6,,,,,,,,2,,,67,0
49104,note_on,1,0,6,,,,,,,,2,,,66,64
49127,note_on,23,0,6,,,,,,,,2,,,66,0
49128,note_on,1,0,6,,,,,,,,2,,,67,64
49151,note_on,23,0,6,,,,,,,,2,,,67,0
49152,note_on,0,0,5,,,,,,,,2,,,71,64
49152,note_on,51,0,5,,,,,,,,2,,,74,64
49152,note_on,1,0,6,,,,,,,,2,,,55,64
49175,note_on,23,0,6,,,,,,,,2,,,55,0
49176,note_on,1,0,6,,,,,,,,2,,,67,64
49197,note_on,45,0,5,,,,,,,,2,,,71,0
49197,note_on,0,0,5,,,,,,,,2,,,74,0
49199,note_on,23,0,6,,,,,,,,2,,,67,0
49200,note_on,1,0,6,,,,,,,,2,,,66,64
49223,note_on,23,0,6,,,,,,,,2,,,66,0
49224,note_on,1,0,6,,,,,,,,2,,,67,64
49247,note_on,23,0,6,,,,,,,,2,,,67,0
49248,note_on,1,0,6,,,,,,,,2,,,69,64
49271,note_on,23,0,6,,,,,,,,2,,,69,0
49272,note_on,1,0,6,,,,,,,,2,,,67,64
49295,note_on,23,0,6,,,,,,,,2,,,67,0
49296,note_on,1,0,6,,,,,,,,2,,,66,64
49319,note_on,23,0,6,,,,,,,,2,,,66,0
49320,note_on,1,0,6,,,,,,,,2,,,67,64
49343,note_on,23,0,6,,,,,,,,2,,,67,0
49344,note_on,1,0,6,,,,,,,,2,,,55,64
49344,note_on,5479,0,1,,,,,,,,0,,,77,43
49344,note_on,27943,0,2,,,,,,,,0,,,71,43
49344,note_on,147,0,5,,,,,,,,2,,,86,64
49344,note_on,0,0,5,,,,,,,,2,,,83,64
49367,note_on,23,0,6,,,,,,,,2,,,55,0
49368,note_on,1,0,6,,,,,,,,2,,,67,64
49389,note_on,45,0,5,,,,,,,,2,,,83,0
49389,note_on,0,0,5,,,,,,,,2,,,86,0
49391,note_on,23,0,6,,,,,,,,2,,,67,0
49392,note_on,1,0,6,,,,,,,,2,,,66,64
49415,note_on,23,0,6,,,,,,,,2,,,66,0
49416,note_on,1,0,6,,,,,,,,2,,,67,64
49439,note_on,23,0,6,,,,,,,,2,,,67,0
49440,note_on,1,0,6,,,,,,,,2,,,69,64
49440,note_on,0,0,5,,,,,,,,2,,,74,64
49440,note_on,51,0,5,,,,,,,,2,,,77,64
49463,note_on,23,0,6,,,,,,,,2,,,69,0
49464,note_on,1,0,6,,,,,,,,2,,,67,64
49485,note_on,0,0,5,,,,,,,,2,,,77,0
49485,note_on,45,0,5,,,,,,,,2,,,74,0
49487,note_on,23,0,6,,,,,,,,2,,,67,0
49488,note_on,1,0,6,,,,,,,,2,,,66,64
49511,note_on,23,0,6,,,,,,,,2,,,66,0
49512,note_on,1,0,6,,,,,,,,2,,,67,64
49521,note_on,177,0,2,,,,,,,,0,,,71,0
49521,note_on,177,0,1,,,,,,,,0,,,77,0
49535,note_on,23,0,6,,,,,,,,2,,,67,0
49536,note_on,0,0,5,,,,,,,,2,,,72,64
49536,note_on,15,0,1,,,,,,,,0,,,76,43
49536,note_on,1,0,6,,,,,,,,2,,,55,64
49536,note_on,15,0,2,,,,,,,,0,,,72,43
49536,note_on,51,0,5,,,,,,,,2,,,76,64
49559,note_on,23,0,6,,,,,,,,2,,,55,0
49560,note_on,1,0,6,,,,,,,,2,,,67,64
49581,note_on,45,0,5,,,,,,,,2,,,72,0
49581,note_on,0,0,5,,,,,,,,2,,,76,0
49583,note_on,23,0,6,,,,,,,,2,,,67,0
49584,note_on,1,0,6,,,,,,,,2,,,66,64
49607,note_on,23,0,6,,,,,,,,2,,,66,0
49608,note_on,1,0,6,,,,,,,,2,,,67,64
49631,note_on,23,0,6,,,,,,,,2,,,67,0
49632,note_on,51,0,5,,,,,,,,2,,,79,64
49632,note_on,1,0,6,,,,,,,,2,,,69,64
49632,note_on,0,0,5,,,,,,,,2,,,76,64
49655,note_on,23,0,6,,,,,,,,2,,,69,0
49656,note_on,1,0,6,,,,,,,,2,,,67,64
49677,note_on,45,0,5,,,,,,,,2,,,76,0
49677,note_on,0,0,5,,,,,,,,2,,,79,0
49679,note_on,23,0,6,,,,,,,,2,,,67,0
49680,note_on,1,0,6,,,,,,,,2,,,66,64
49703,note_on,23,0,6,,,,,,,,2,,,66,0
49704,note_on,1,0,6,,,,,,,,2,,,67,64
49727,note_on,23,0,6,,,,,,,,2,,,67,0
49728,note_on,1,0,6,,,,,,,,2,,,55,64
49728,note_on,0,0,5,,,,,,,,2,,,76,64
49728,note_on,51,0,5,,,,,,,,2,,,84,64
49751,note_on,23,0,6,,,,,,,,2,,,55,0
49752,note_on,1,0,6,,,,,,,,2,,,67,64
49773,note_on,0,0,5,,,,,,,,2,,,84,0
49773,note_on,45,0,5,,,,,,,,2,,,76,0
49775,note_on,23,0,6,,,,,,,,2,,,67,0
49776,note_on,1,0,6,,,,,,,,2,,,66,64
49799,note_on,23,0,6,,,,,,,,2,,,66,0
49800,note_on,1,0,6,,,,,,,,2,,,67,64
49801,note_on,265,0,1,,,,,,,,0,,,76,0
49823,note_on,23,0,6,,,,,,,,2,,,67,0
49824,note_on,23,0,1,,,,,,,,0,,,78,43
49824,note_on,1,0,6,,,,,,,,2,,,69,64
49824,note_on,51,0,5,,,,,,,,2,,,78,64
49824,note_on,0,0,5,,,,,,,,2,,,72,64
49847,note_on,23,0,6,,,,,,,,2,,,69,0
49848,note_on,1,0,6,,,,,,,,2,,,67,64
49869,note_on,0,0,5,,,,,,,,2,,,78,0
49869,note_on,45,0,5,,,,,,,,2,,,72,0
49871,note_on,23,0,6,,,,,,,,2,,,67,0
49872,note_on,1,0,6,,,,,,,,2,,,66,64
49890,note_on,354,0,2,,,,,,,,0,,,72,0
49895,note_on,23,0,6,,,,,,,,2,,,66,0
49896,note_on,1,0,6,,,,,,,,2,,,67,64
49913,note_on,89,0,1,,,,,,,,0,,,78,0
49919,note_on,23,0,6,,,,,,,,2,,,67,0
49920,note_on,51,0,5,,,,,,,,2,,,79,64
49920,note_on,0,0,5,,,,,,,,2,,,71,64
49920,note_on,7,0,1,,,,,,,,0,,,79,43
49920,note_on,30,0,2,,,,,,,,0,,,71,43
49944,note_on,25,0,6,,,,,,,,2,,,43,64
49967,note_on,23,0,6,,,,,,,,2,,,43,0
49968,note_on,1,0,6,,,,,,,,2,,,45,64
49991,note_on,23,0,6,,,,,,,,2,,,45,0
49992,note_on,1,0,6,,,,,,,,2,,,47,64
50009,note_on,89,0,2,,,,,,,,0,,,71,0
50009,note_on,89,0,1,,,,,,,,0,,,79,0
50009,note_on,0,0,5,,,,,,,,2,,,79,0
50009,note_on,89,0,5,,,,,,,,2,,,71,0
50015,note_on,23,0,6,,,,,,,,2,,,47,0
50016,note_on,1,0,6,,,,,,,,2,,,48,64
50039,note_on,23,0,6,,,,,,,,2,,,48,0
50040,note_on,1,0,6,,,,,,,,2,,,50,64
50063,note_on,23,0,6,,,,,,,,2,,,50,0
50064,note_on,1,0,6,,,,,,,,2,,,52,64
50087,note_on,23,0,6,,,,,,,,2,,,52,0
50088,note_on,1,0,6,,,,,,,,2,,,54,64
50111,note_on,23,0,6,,,,,,,,2,,,54,0
50112,note_on,1,0,6,,,,,,,,2,,,55,64
50136,note_on,127,0,5,,,,,,,,2,,,67,64
50159,note_on,23,0,5,,,,,,,,2,,,67,0
50160,note_on,1,0,5,,,,,,,,2,,,69,64
50183,note_on,23,0,5,,,,,,,,2,,,69,0
50184,note_on,1,0,5,,,,,,,,2,,,71,65
50201,note_on,89,0,6,,,,,,,,2,,,55,0
50207,note_on,23,0,5,,,,,,,,2,,,71,0
50208,note_on,1,0,5,,,,,,,,2,,,72,66
50231,note_on,23,0,5,,,,,,,,2,,,72,0
50232,note_on,1,0,5,,,,,,,,2,,,74,67
50255,note_on,23,0,5,,,,,,,,2,,,74,0
50256,note_on,1,0,5,,,,,,,,2,,,76,67
50279,note_on,23,0,5,,,,,,,,2,,,76,0
50280,note_on,1,0,5,,,,,,,,2,,,77,68
50303,note_on,23,0,5,,,,,,,,2,,,77,0
50304,note_on,1,0,5,,,,,,,,2,,,79,69
50327,note_on,23,0,5,,,,,,,,2,,,79,0
50328,note_on,1,0,5,,,,,,,,2,,,81,70
50351,note_on,23,0,5,,,,,,,,2,,,81,0
50352,note_on,1,0,5,,,,,,,,2,,,83,71
50375,note_on,23,0,5,,,,,,,,2,,,83,0
50376,note_on,1,0,5,,,,,,,,2,,,84,71
50399,note_on,23,0,5,,,,,,,,2,,,84,0
50400,note_on,1,0,5,,,,,,,,2,,,86,72
50423,note_on,23,0,5,,,,,,,,2,,,86,0
50424,note_on,1,0,5,,,,,,,,2,,,84,73
50447,note_on,23,0,5,,,,,,,,2,,,84,0
50448,note_on,1,0,5,,,,,,,,2,,,83,74
50471,note_on,23,0,5,,,,,,,,2,,,83,0
50472,note_on,1,0,5,,,,,,,,2,,,81,74
50495,note_on,23,0,5,,,,,,,,2,,,81,0
50496,note_on,1,0,5,,,,,,,,2,,,79,75
50519,note_on,23,0,5,,,,,,,,2,,,79,0
50520,note_on,1,0,5,,,,,,,,2,,,78,76
50543,note_on,23,0,5,,,,,,,,2,,,78,0
50544,note_on,1,0,5,,,,,,,,2,,,79,77
50567,note_on,23,0,5,,,,,,,,2,,,79,0
50568,note_on,1,0,5,,,,,,,,2,,,81,78
50591,note_on,23,0,5,,,,,,,,2,,,81,0
50592,note_on,1,0,5,,,,,,,,2,,,79,78
50615,note_on,23,0,5,,,,,,,,2,,,79,0
50616,note_on,1,0,5,,,,,,,,2,,,77,79
50639,note_on,23,0,5,,,,,,,,2,,,77,0
50640,note_on,1,0,5,,,,,,,,2,,,76,80
50663,note_on,23,0,5,,,,,,,,2,,,76,0
50664,note_on,1,0,5,,,,,,,,2,,,74,81
50687,note_on,23,0,5,,,,,,,,2,,,74,0
50688,note_on,0,0,9,,,,,,,,3,,,55,85
50688,note_on,2215,0,11,,,,,,,,3,,,36,64
50688,note_on,0,0,10,,,,,,,,3,,,48,85
50688,note_on,2215,0,10,,,,,,,,3,,,60,85
50688,note_on,679,0,2,,,,,,,,0,,,72,64
50688,note_on,2215,0,8,,,,,,,,3,,,72,85
50688,note_on,0,0,8,,,,,,,,3,,,64,85
50688,note_on,2215,0,9,,,,,,,,3,,,64,85
50688,note_on,0,0,3,,,,,,,,1,,,60,85
50688,note_on,1,0,5,,,,,,,,2,,,72,81
50688,note_on,679,0,1,,,,,,,,0,,,72,64
50688,note_on,0,0,8,,,,,,,,3,,,55,85
50688,note_on,6823,0,3,,,,,,,,1,,,72,85
50777,note_on,89,0,5,,,,,,,,2,,,72,0
50865,note_on,177,0,3,,,,,,,,1,,,60,0
50865,note_on,0,0,10,,,,,,,,3,,,60,0
50865,note_on,0,0,9,,,,,,,,3,,,64,0
50865,note_on,177,0,11,,,,,,,,3,,,36,0
50865,note_on,177,0,8,,,,,,,,3,,,55,0
50865,note_on,177,0,9,,,,,,,,3,,,55,0
50865,note_on,177,0,10,,,,,,,,3,,,48,0
50865,note_on,177,0,2,,,,,,,,0,,,72,0
50865,note_on,0,0,3,,,,,,,,1,,,72,0
50865,note_on,0,0,8,,,,,,,,3,,,64,0
50865,note_on,0,0,8,,,,,,,,3,,,72,0
50865,note_on,177,0,1,,,,,,,,0,,,72,0
50880,note_on,15,0,1,,,,,,,,0,,,76,64
50880,note_on,15,0,8,,,,,,,,3,,,76,85
50880,note_on,15,0,2,,,,,,,,0,,,76,64
50919,note_on,39,0,8,,,,,,,,3,,,76,0
50919,note_on,39,0,1,,,,,,,,0,,,76,0
50919,note_on,39,0,2,,,,,,,,0,,,76,0
50976,note_on,57,0,8,,,,,,,,3,,,79,85
50976,note_on,57,0,2,,,,,,,,0,,,79,64
50976,note_on,57,0,1,,,,,,,,0,,,79,64
51015,note_on,39,0,2,,,,,,,,0,,,79,0
51015,note_on,39,0,8,,,,,,,,3,,,79,0
51015,note_on,39,0,1,,,,,,,,0,,,79,0
51072,note_on,207,0,3,,,,,,,,1,,,76,85
51072,note_on,0,0,9,,,,,,,,3,,,55,85
51072,note_on,207,0,9,,,,,,,,3,,,64,85
51072,note_on,7207,0,4,,,,,,,,1,,,72,85
51072,note_on,57,0,1,,,,,,,,0,,,84,64
51072,note_on,207,0,10,,,,,,,,3,,,60,85
51072,note_on,57,0,2,,,,,,,,0,,,79,64
51072,note_on,57,0,8,,,,,,,,3,,,84,85
51072,note_on,207,0,11,,,,,,,,3,,,36,64
51117,note_on,45,0,1,,,,,,,,0,,,84,0
51117,note_on,45,0,9,,,,,,,,3,,,55,0
51117,note_on,0,0,9,,,,,,,,3,,,64,0
51117,note_on,45,0,11,,,,,,,,3,,,36,0
51117,note_on,45,0,10,,,,,,,,3,,,60,0
51117,note_on,45,0,8,,,,,,,,3,,,84,0
51120,note_on,3,0,1,,,,,,,,0,,,79,64
51120,note_on,0,0,9,,,,,,,,3,,,55,85
51120,note_on,3,0,9,,,,,,,,3,,,64,85
51120,note_on,3,0,8,,,,,,,,3,,,79,85
51120,note_on,3,0,10,,,,,,,,3,,,60,85
51120,note_on,3,0,11,,,,,,,,3,,,36,64
51161,note_on,89,0,4,,,,,,,,1,,,72,0
51161,note_on,89,0,3,,,,,,,,1,,,76,0
51165,note_on,45,0,10,,,,,,,,3,,,60,0
51165,note_on,45,0,8,,,,,,,,3,,,79,0
51165,note_on,45,0,1,,,,,,,,0,,,79,0
51165,note_on,45,0,11,,,,,,,,3,,,36,0
51168,note_on,7,0,3,,,,,,,,1,,,76,85
51168,note_on,3,0,1,,,,,,,,0,,,79,64
51168,note_on,3,0,11,,,,,,,,3,,,36,64
51168,note_on,3,0,10,,,,,,,,3,,,60,85
51168,note_on,7,0,4,,,,,,,,1,,,72,85
51168,note_on,3,0,8,,,,,,,,3,,,79,85
51209,note_on,0,0,9,,,,,,,,3,,,64,0
51209,note_on,89,0,9,,,,,,,,3,,,55,0
51213,note_on,45,0,11,,,,,,,,3,,,36,0
51213,note_on,45,0,10,,,,,,,,3,,,60,0
51216,note_on,7,0,9,,,,,,,,3,,,64,85
51216,note_on,3,0,10,,,,,,,,3,,,60,85
51216,note_on,3,0,11,,,,,,,,3,,,36,64
51216,note_on,0,0,9,,,,,,,,3,,,55,85
51235,note_on,67,0,4,,,,,,,,1,,,72,0
51235,note_on,67,0,3,,,,,,,,1,,,76,0
51240,note_on,5,0,4,,,,,,,,1,,,72,85
51240,note_on,5,0,3,,,,,,,,1,,,76,85
51261,note_on,45,0,10,,,,,,,,3,,,60,0
51261,note_on,45,0,11,,,,,,,,3,,,36,0
51263,note_on,23,0,4,,,,,,,,1,,,72,0
51263,note_on,23,0,3,,,,,,,,1,,,76,0
51264,note_on,3,0,10,,,,,,,,3,,,60,85
51264,note_on,1,0,4,,,,,,,,1,,,72,85
51264,note_on,3,0,11,,,,,,,,3,,,36,64
51264,note_on,1,0,3,,,,,,,,1,,,76,85
51305,note_on,0,0,9,,,,,,,,3,,,64,0
51305,note_on,89,0,9,,,,,,,,3,,,55,0
51309,note_on,45,0,10,,,,,,,,3,,,60,0
51309,note_on,45,0,11,,,,,,,,3,,,36,0
51312,note_on,3,0,11,,,,,,,,3,,,36,64
51312,note_on,3,0,10,,,,,,,,3,,,60,85
51312,note_on,7,0,9,,,,,,,,3,,,64,85
51345,note_on,177,0,8,,,,,,,,3,,,79,0
51345,note_on,177,0,1,,,,,,,,0,,,79,0
51353,note_on,89,0,4,,,,,,,,1,,,72,0
51353,note_on,89,0,3,,,,,,,,1,,,76,0
51357,note_on,45,0,9,,,,,,,,3,,,64,0
51357,note_on,45,0,10,,,,,,,,3,,,60,0
51357,note_on,45,0,11,,,,,,,,3,,,36,0
51360,note_on,3,0,11,,,,,,,,3,,,36,64
51360,note_on,3,0,10,,,,,,,,3,,,60,85
51360,note_on,7,0,3,,,,,,,,1,,,77,85
51360,note_on,15,0,1,,,,,,,,0,,,81,64
51360,note_on,3,0,9,,,,,,,,3,,,65,85
51360,note_on,15,0,8,,,,,,,,3,,,81,85
51360,note_on,7,0,4,,,,,,,,1,,,72,85
51383,note_on,23,0,8,,,,,,,,3,,,81,0
51383,note_on,23,0,1,,,,,,,,0,,,81,0
51384,note_on,1,0,8,,,,,,,,3,,,79,85
51384,note_on,1,0,1,,,,,,,,0,,,79,64
51405,note_on,45,0,11,,,,,,,,3,,,36,0
51405,note_on,45,0,9,,,,,,,,3,,,65,0
51405,note_on,45,0,10,,,,,,,,3,,,60,0
51407,note_on,23,0,1,,,,,,,,0,,,79,0
51407,note_on,23,0,8,,,,,,,,3,,,79,0
51408,note_on,1,0,1,,,,,,,,0,,,81,64
51408,note_on,3,0,11,,,,,,,,3,,,36,64
51408,note_on,3,0,10,,,,,,,,3,,,60,85
51408,note_on,3,0,9,,,,,,,,3,,,65,85
51408,note_on,1,0,8,,,,,,,,3,,,81,85
51431,note_on,23,0,1,,,,,,,,0,,,81,0
51431,note_on,23,0,8,,,,,,,,3,,,81,0
51432,note_on,1,0,1,,,,,,,,0,,,83,64
51432,note_on,1,0,8,,,,,,,,3,,,83,85
51449,note_on,89,0,4,,,,,,,,1,,,72,0
51449,note_on,89,0,3,,,,,,,,1,,,77,0
51453,note_on,45,0,11,,,,,,,,3,,,36,0
51453,note_on,45,0,9,,,,,,,,3,,,65,0
51453,note_on,45,0,10,,,,,,,,3,,,60,0
51455,note_on,23,0,8,,,,,,,,3,,,83,0
51455,note_on,23,0,1,,,,,,,,0,,,83,0
51456,note_on,3,0,9,,,,,,,,3,,,64,85
51456,note_on,1,0,8,,,,,,,,3,,,84,85
51456,note_on,3,0,11,,,,,,,,3,,,36,64
51456,note_on,7,0,4,,,,,,,,1,,,72,85
51456,note_on,1,0,1,,,,,,,,0,,,84,64
51456,note_on,3,0,10,,,,,,,,3,,,60,85
51456,note_on,7,0,3,,,,,,,,1,,,76,85
51476,note_on,20,0,8,,,,,,,,3,,,84,0
51476,note_on,20,0,1,,,,,,,,0,,,84,0
51501,note_on,45,0,11,,,,,,,,3,,,36,0
51501,note_on,45,0,10,,,,,,,,3,,,60,0
51501,note_on,45,0,9,,,,,,,,3,,,64,0
51504,note_on,3,0,10,,,,,,,,3,,,60,85
51504,note_on,28,0,1,,,,,,,,0,,,79,64
51504,note_on,28,0,8,,,,,,,,3,,,79,85
51504,note_on,3,0,11,,,,,,,,3,,,36,64
51504,note_on,3,0,9,,,,,,,,3,,,64,85
51524,note_on,20,0,8,,,,,,,,3,,,79,0
51524,note_on,20,0,1,,,,,,,,0,,,79,0
51545,note_on,89,0,3,,,,,,,,1,,,76,0
51545,note_on,89,0,4,,,,,,,,1,,,72,0
51549,note_on,45,0,11,,,,,,,,3,,,36,0
51549,note_on,45,0,9,,,,,,,,3,,,64,0
51549,note_on,45,0,10,,,,,,,,3,,,60,0
51552,note_on,3,0,9,,,,,,,,3,,,65,85
51552,note_on,28,0,8,,,,,,,,3,,,81,85
51552,note_on,28,0,1,,,,,,,,0,,,81,64
51552,note_on,7,0,3,,,,,,,,1,,,77,85
51552,note_on,3,0,11,,,,,,,,3,,,36,64
51552,note_on,3,0,10,,,,,,,,3,,,60,85
51552,note_on,7,0,4,,,,,,,,1,,,72,85
51575,note_on,23,0,1,,,,,,,,0,,,81,0
51575,note_on,23,0,8,,,,,,,,3,,,81,0
51576,note_on,1,0,1,,,,,,,,0,,,79,64
51576,note_on,1,0,8,,,,,,,,3,,,79,85
51597,note_on,45,0,10,,,,,,,,3,,,60,0
51597,note_on,45,0,9,,,,,,,,3,,,65,0
51597,note_on,45,0,11,,,,,,,,3,,,36,0
51599,note_on,23,0,8,,,,,,,,3,,,79,0
51599,note_on,23,0,1,,,,,,,,0,,,79,0
51600,note_on,3,0,9,,,,,,,,3,,,65,85
51600,note_on,1,0,8,,,,,,,,3,,,81,85
51600,note_on,1,0,1,,,,,,,,0,,,81,64
51600,note_on,3,0,11,,,,,,,,3,,,36,64
51600,note_on,3,0,10,,,,,,,,3,,,60,85
51623,note_on,23,0,1,,,,,,,,0,,,81,0
51623,note_on,23,0,8,,,,,,,,3,,,81,0
51624,note_on,1,0,8,,,,,,,,3,,,83,85
51624,note_on,1,0,1,,,,,,,,0,,,83,64
51641,note_on,89,0,4,,,,,,,,1,,,72,0
51641,note_on,89,0,3,,,,,,,,1,,,77,0
51645,note_on,45,0,11,,,,,,,,3,,,36,0
51645,note_on,45,0,9,,,,,,,,3,,,65,0
51645,note_on,45,0,10,,,,,,,,3,,,60,0
51647,note_on,23,0,8,,,,,,,,3,,,83,0
51647,note_on,23,0,1,,,,,,,,0,,,83,0
51648,note_on,7,0,4,,,,,,,,1,,,72,85
51648,note_on,1,0,8,,,,,,,,3,,,84,85
51648,note_on,7,0,3,,,,,,,,1,,,76,85
51648,note_on,3,0,11,,,,,,,,3,,,36,64
51648,note_on,3,0,9,,,,,,,,3,,,64,85
51648,note_on,1,0,1,,,,,,,,0,,,84,64
51648,note_on,3,0,10,,,,,,,,3,,,60,85
51668,note_on,20,0,8,,,,,,,,3,,,84,0
51668,note_on,20,0,1,,,,,,,,0,,,84,0
51693,note_on,45,0,9,,,,,,,,3,,,64,0
51693,note_on,45,0,10,,,,,,,,3,,,60,0
51693,note_on,45,0,11,,,,,,,,3,,,36,0
51696,note_on,28,0,8,,,,,,,,3,,,79,85
51696,note_on,28,0,1,,,,,,,,0,,,79,64
51696,note_on,3,0,10,,,,,,,,3,,,60,85
51696,note_on,3,0,11,,,,,,,,3,,,36,64
51696,note_on,3,0,9,,,,,,,,3,,,64,85
51716,note_on,20,0,1,,,,,,,,0,,,79,0
51716,note_on,20,0,8,,,,,,,,3,,,79,0
51737,note_on,89,0,4,,,,,,,,1,,,72,0
51737,note_on,89,0,3,,,,,,,,1,,,76,0
51741,note_on,45,0,10,,,,,,,,3,,,60,0
51741,note_on,45,0,9,,,,,,,,3,,,64,0
51741,note_on,45,0,11,,,,,,,,3,,,36,0
51744,note_on,28,0,8,,,,,,,,3,,,81,85
51744,note_on,3,0,10,,,,,,,,3,,,60,85
51744,note_on,28,0,1,,,,,,,,0,,,81,64
51744,note_on,3,0,11,,,,,,,,3,,,36,64
51744,note_on,3,0,9,,,,,,,,3,,,65,85
51744,note_on,7,0,3,,,,,,,,1,,,77,85
51744,note_on,7,0,4,,,,,,,,1,,,72,85
51767,note_on,23,0,1,,,,,,,,0,,,81,0
51767,note_on,23,0,8,,,,,,,,3,,,81,0
51768,note_on,1,0,8,,,,,,,,3,,,79,85
51768,note_on,1,0,1,,,,,,,,0,,,79,64
51789,note_on,45,0,9,,,,,,,,3,,,65,0
51789,note_on,45,0,10,,,,,,,,3,,,60,0
51789,note_on,45,0,11,,,,,,,,3,,,36,0
51791,note_on,23,0,1,,,,,,,,0,,,79,0
51791,note_on,23,0,8,,,,,,,,3,,,79,0
51792,note_on,3,0,10,,,,,,,,3,,,60,85
51792,note_on,1,0,1,,,,,,,,0,,,81,64
51792,note_on,3,0,9,,,,,,,,3,,,65,85
51792,note_on,1,0,8,,,,,,,,3,,,81,85
51792,note_on,3,0,11,,,,,,,,3,,,36,64
51815,note_on,23,0,8,,,,,,,,3,,,81,0
51815,note_on,23,0,1,,,,,,,,0,,,81,0
51816,note_on,1,0,8,,,,,,,,3,,,83,85
51816,note_on,1,0,1,,,,,,,,0,,,83,64
51833,note_on,89,0,4,,,,,,,,1,,,72,0
51833,note_on,89,0,3,,,,,,,,1,,,77,0
51837,note_on,45,0,11,,,,,,,,3,,,36,0
51837,note_on,45,0,10,,,,,,,,3,,,60,0
51837,note_on,45,0,9,,,,,,,,3,,,65,0
51839,note_on,23,0,1,,,,,,,,0,,,83,0
51839,note_on,23,0,8,,,,,,,,3,,,83,0
51840,note_on,3,0,9,,,,,,,,3,,,64,85
51840,note_on,7,0,3,,,,,,,,1,,,76,85
51840,note_on,1,0,1,,,,,,,,0,,,84,64
51840,note_on,3,0,10,,,,,,,,3,,,60,85
51840,note_on,7,0,4,,,,,,,,1,,,72,85
51840,note_on,1,0,8,,,,,,,,3,,,84,85
51840,note_on,3,0,11,,,,,,,,3,,,36,64
51885,note_on,813,0,2,,,,,,,,0,,,79,0
51885,note_on,45,0,3,,,,,,,,1,,,76,0
51885,note_on,45,0,1,,,,,,,,0,,,84,0
51885,note_on,45,0,11,,,,,,,,3,,,36,0
51885,note_on,45,0,10,,,,,,,,3,,,60,0
51885,note_on,45,0,8,,,,,,,,3,,,84,0
51885,note_on,45,0,4,,,,,,,,1,,,72,0
51888,note_on,3,0,4,,,,,,,,1,,,72,85
51888,note_on,3,0,1,,,,,,,,0,,,79,64
51888,note_on,3,0,10,,,,,,,,3,,,72,85
51888,note_on,3,0,2,,,,,,,,0,,,76,64
51888,note_on,3,0,3,,,,,,,,1,,,72,85
51888,note_on,3,0,8,,,,,,,,3,,,79,85
51888,note_on,3,0,11,,,,,,,,3,,,48,64
51929,note_on,89,0,9,,,,,,,,3,,,64,0
51933,note_on,45,0,1,,,,,,,,0,,,79,0
51933,note_on,45,0,10,,,,,,,,3,,,72,0
51933,note_on,45,0,3,,,,,,,,1,,,72,0
51933,note_on,45,0,2,,,,,,,,0,,,76,0
51933,note_on,45,0,4,,,,,,,,1,,,72,0
51933,note_on,45,0,11,,,,,,,,3,,,48,0
51933,note_on,45,0,8,,,,,,,,3,,,79,0
51936,note_on,7,0,9,,,,,,,,3,,,72,85
51936,note_on,0,0,9,,,,,,,,3,,,64,85
51936,note_on,0,0,9,,,,,,,,3,,,55,85
51936,note_on,3,0,3,,,,,,,,1,,,67,85
51936,note_on,3,0,10,,,,,,,,3,,,67,85
51936,note_on,3,0,2,,,,,,,,0,,,76,64
51936,note_on,3,0,11,,,,,,,,3,,,43,64
51936,note_on,3,0,4,,,,,,,,1,,,67,85
51936,note_on,3,0,8,,,,,,,,3,,,79,85
51936,note_on,3,0,1,,,,,,,,0,,,79,64
51981,note_on,45,0,3,,,,,,,,1,,,67,0
51981,note_on,45,0,10,,,,,,,,3,,,67,0
51981,note_on,45,0,4,,,,,,,,1,,,67,0
51981,note_on,45,0,11,,,,,,,,3,,,43,0
51984,note_on,3,0,10,,,,,,,,3,,,64,85
51984,note_on,3,0,11,,,,,,,,3,,,40,64
51984,note_on,3,0,4,,,,,,,,1,,,64,85
51984,note_on,3,0,3,,,,,,,,1,,,64,85
52025,note_on,0,0,9,,,,,,,,3,,,64,0
52025,note_on,0,0,9,,,,,,,,3,,,72,0
52025,note_on,89,0,9,,,,,,,,3,,,55,0
52029,note_on,45,0,4,,,,,,,,1,,,64,0
52029,note_on,45,0,3,,,,,,,,1,,,64,0
52029,note_on,45,0,10,,,,,,,,3,,,64,0
52029,note_on,45,0,11,,,,,,,,3,,,40,0
52032,note_on,3,0,4,,,,,,,,1,,,60,85
52032,note_on,3,0,10,,,,,,,,3,,,60,85
52032,note_on,3,0,3,,,,,,,,1,,,60,85
52032,note_on,3,0,11,,,,,,,,3,,,36,64
52032,note_on,7,0,9,,,,,,,,3,,,76,85
52032,note_on,0,0,9,,,,,,,,3,,,72,85
52032,note_on,0,0,9,,,,,,,,3,,,67,85
52069,note_on,133,0,8,,,,,,,,3,,,79,0
52080,note_on,11,0,8,,,,,,,,3,,,81,85
52103,note_on,23,0,8,,,,,,,,3,,,81,0
52104,note_on,1,0,8,,,,,,,,3,,,79,85
52113,note_on,177,0,2,,,,,,,,0,,,76,0
52113,note_on,177,0,1,,,,,,,,0,,,79,0
52121,note_on,0,0,9,,,,,,,,3,,,76,0
52121,note_on,89,0,3,,,,,,,,1,,,60,0
52121,note_on,89,0,4,,,,,,,,1,,,60,0
52121,note_on,89,0,9,,,,,,,,3,,,67,0
52121,note_on,0,0,9,,,,,,,,3,,,72,0
52121,note_on,89,0,11,,,,,,,,3,,,36,0
52121,note_on,89,0,10,,,,,,,,3,,,60,0
52127,note_on,23,0,8,,,,,,,,3,,,79,0
52128,note_on,1,0,8,,,,,,,,3,,,77,85
52151,note_on,23,0,8,,,,,,,,3,,,77,0
52152,note_on,1,0,8,,,,,,,,3,,,76,85
52175,note_on,23,0,8,,,,,,,,3,,,76,0
52176,note_on,1,0,8,,,,,,,,3,,,74,85
52186,note_on,10,0,8,,,,,,,,3,,,74,0
52200,note_on,14,0,8,,,,,,,,3,,,72,85
52210,note_on,10,0,8,,,,,,,,3,,,72,0
52224,note_on,14,0,8,,,,,,,,3,,,71,43
52224,note_on,103,0,3,,,,,,,,1,,,67,49
52224,note_on,103,0,4,,,,,,,,1,,,55,49
52224,note_on,103,0,9,,,,,,,,3,,,65,43
52269,note_on,45,0,9,,,,,,,,3,,,65,0
52272,note_on,3,0,9,,,,,,,,3,,,55,43
52317,note_on,45,0,9,,,,,,,,3,,,55,0
52320,note_on,3,0,9,,,,,,,,3,,,65,43
52365,note_on,45,0,9,,,,,,,,3,,,65,0
52368,note_on,3,0,9,,,,,,,,3,,,55,43
52401,note_on,177,0,8,,,,,,,,3,,,71,0
52413,note_on,45,0,9,,,,,,,,3,,,55,0
52416,note_on,3,0,9,,,,,,,,3,,,64,43
52416,note_on,15,0,8,,,,,,,,3,,,72,43
52428,note_on,0,0,8,,,,,,,,3,,,74,43
52428,note_on,12,0,8,,,,,,,,3,,,72,0
52440,note_on,0,0,8,,,,,,,,3,,,72,43
52440,note_on,12,0,8,,,,,,,,3,,,74,0
52452,note_on,12,0,8,,,,,,,,3,,,72,0
52452,note_on,0,0,8,,,,,,,,3,,,74,43
52461,note_on,45,0,9,,,,,,,,3,,,64,0
52464,note_on,0,0,8,,,,,,,,3,,,72,43
52464,note_on,12,0,8,,,,,,,,3,,,74,0
52464,note_on,3,0,9,,,,,,,,3,,,55,43
52476,note_on,0,0,8,,,,,,,,3,,,74,43
52476,note_on,12,0,8,,,,,,,,3,,,72,0
52488,note_on,12,0,8,,,,,,,,3,,,74,0
52488,note_on,0,0,8,,,,,,,,3,,,72,43
52500,note_on,12,0,8,,,,,,,,3,,,72,0
52500,note_on,0,0,8,,,,,,,,3,,,74,43
52509,note_on,45,0,9,,,,,,,,3,,,55,0
52512,note_on,3,0,9,,,,,,,,3,,,64,43
52512,note_on,12,0,8,,,,,,,,3,,,74,0
52512,note_on,0,0,8,,,,,,,,3,,,72,43
52524,note_on,12,0,8,,,,,,,,3,,,72,0
52524,note_on,0,0,8,,,,,,,,3,,,74,43
52536,note_on,0,0,8,,,,,,,,3,,,72,43
52536,note_on,12,0,8,,,,,,,,3,,,74,0
52548,note_on,12,0,8,,,,,,,,3,,,72,0
52548,note_on,0,0,8,,,,,,,,3,,,74,43
52549,note_on,1,0,8,,,,,,,,3,,,74,0
52557,note_on,45,0,9,,,,,,,,3,,,64,0
52560,note_on,3,0,9,,,,,,,,3,,,55,43
52560,note_on,11,0,8,,,,,,,,3,,,71,43
52583,note_on,23,0,8,,,,,,,,3,,,71,0
52584,note_on,1,0,8,,,,,,,,3,,,72,43
52605,note_on,45,0,9,,,,,,,,3,,,55,0
52607,note_on,23,0,8,,,,,,,,3,,,72,0
52608,note_on,1,0,8,,,,,,,,3,,,74,43
52608,note_on,3,0,9,,,,,,,,3,,,59,43
52608,note_on,487,0,10,,,,,,,,3,,,65,43
52653,note_on,45,0,9,,,,,,,,3,,,59,0
52653,note_on,45,0,10,,,,,,,,3,,,65,0
52656,note_on,3,0,10,,,,,,,,3,,,55,43
52656,note_on,3,0,9,,,,,,,,3,,,55,43
52701,note_on,45,0,9,,,,,,,,3,,,55,0
52701,note_on,45,0,10,,,,,,,,3,,,55,0
52704,note_on,3,0,9,,,,,,,,3,,,59,43
52704,note_on,3,0,10,,,,,,,,3,,,65,43
52749,note_on,45,0,9,,,,,,,,3,,,59,0
52749,note_on,45,0,10,,,,,,,,3,,,65,0
52752,note_on,3,0,10,,,,,,,,3,,,55,43
52752,note_on,3,0,9,,,,,,,,3,,,55,43
52785,note_on,177,0,8,,,,,,,,3,,,74,0
52797,note_on,45,0,9,,,,,,,,3,,,55,0
52797,note_on,45,0,10,,,,,,,,3,,,55,0
52800,note_on,3,0,10,,,,,,,,3,,,64,43
52800,note_on,15,0,8,,,,,,,,3,,,76,43
52800,note_on,3,0,9,,,,,,,,3,,,60,43
52812,note_on,0,0,8,,,,,,,,3,,,77,43
52812,note_on,12,0,8,,,,,,,,3,,,76,0
52824,note_on,0,0,8,,,,,,,,3,,,76,43
52824,note_on,12,0,8,,,,,,,,3,,,77,0
52836,note_on,12,0,8,,,,,,,,3,,,76,0
52836,note_on,0,0,8,,,,,,,,3,,,77,43
52845,note_on,45,0,9,,,,,,,,3,,,60,0
52845,note_on,45,0,10,,,,,,,,3,,,64,0
52848,note_on,12,0,8,,,,,,,,3,,,77,0
52848,note_on,3,0,10,,,,,,,,3,,,55,43
52848,note_on,0,0,8,,,,,,,,3,,,76,43
52848,note_on,3,0,9,,,,,,,,3,,,55,43
52860,note_on,0,0,8,,,,,,,,3,,,77,43
52860,note_on,12,0,8,,,,,,,,3,,,76,0
52872,note_on,12,0,8,,,,,,,,3,,,77,0
52872,note_on,0,0,8,,,,,,,,3,,,76,43
52884,note_on,0,0,8,,,,,,,,3,,,77,43
52884,note_on,12,0,8,,,,,,,,3,,,76,0
52893,note_on,45,0,10,,,,,,,,3,,,55,0
52893,note_on,45,0,9,,,,,,,,3,,,55,0
52896,note_on,3,0,9,,,,,,,,3,,,60,43
52896,note_on,3,0,10,,,,,,,,3,,,64,43
52896,note_on,0,0,8,,,,,,,,3,,,76,43
52896,note_on,12,0,8,,,,,,,,3,,,77,0
52908,note_on,12,0,8,,,,,,,,3,,,76,0
52908,note_on,0,0,8,,,,,,,,3,,,77,43
52920,note_on,0,0,8,,,,,,,,3,,,76,43
52920,note_on,12,0,8,,,,,,,,3,,,77,0
52932,note_on,0,0,8,,,,,,,,3,,,77,43
52932,note_on,12,0,8,,,,,,,,3,,,76,0
52933,note_on,1,0,8,,,,,,,,3,,,77,0
52941,note_on,45,0,10,,,,,,,,3,,,64,0
52941,note_on,45,0,9,,,,,,,,3,,,60,0
52944,note_on,11,0,8,,,,,,,,3,,,74,43
52944,note_on,3,0,10,,,,,,,,3,,,55,43
52944,note_on,3,0,9,,,,,,,,3,,,55,43
52962,note_on,738,0,3,,,,,,,,1,,,67,0
52962,note_on,738,0,4,,,,,,,,1,,,55,0
52967,note_on,23,0,8,,,,,,,,3,,,74,0
52968,note_on,1,0,8,,,,,,,,3,,,76,43
52989,note_on,45,0,9,,,,,,,,3,,,55,0
52989,note_on,45,0,10,,,,,,,,3,,,55,0
52991,note_on,23,0,8,,,,,,,,3,,,76,0
52992,note_on,879,0,2,,,,,,,,0,,,77,64
52992,note_on,0,0,9,,,,,,,,3,,,55,85
52992,note_on,0,0,3,,,,,,,,1,,,67,85
52992,note_on,30,0,3,,,,,,,,1,,,74,85
52992,note_on,1,0,8,,,,,,,,3,,,77,85
52992,note_on,871,0,11,,,,,,,,3,,,47,64
52992,note_on,879,0,1,,,,,,,,0,,,79,64
52992,note_on,3,0,10,,,,,,,,3,,,62,85
52992,note_on,3,0,9,,,,,,,,3,,,67,85
53031,note_on,39,0,8,,,,,,,,3,,,77,0
53031,note_on,39,0,10,,,,,,,,3,,,62,0
53031,note_on,39,0,11,,,,,,,,3,,,47,0
53081,note_on,0,0,3,,,,,,,,1,,,74,0
53081,note_on,89,0,2,,,,,,,,0,,,77,0
53081,note_on,0,0,9,,,,,,,,3,,,67,0
53081,note_on,89,0,9,,,,,,,,3,,,55,0
53081,note_on,89,0,3,,,,,,,,1,,,67,0
53088,note_on,57,0,11,,,,,,,,3,,,48,64
53088,note_on,0,0,9,,,,,,,,3,,,55,85
53088,note_on,7,0,9,,,,,,,,3,,,67,85
53088,note_on,57,0,10,,,,,,,,3,,,60,85
53088,note_on,0,0,3,,,,,,,,1,,,72,85
53088,note_on,7,0,2,,,,,,,,0,,,76,64
53088,note_on,57,0,8,,,,,,,,3,,,76,85
53088,note_on,7,0,3,,,,,,,,1,,,76,85
53127,note_on,39,0,10,,,,,,,,3,,,60,0
53127,note_on,39,0,11,,,,,,,,3,,,48,0
53127,note_on,39,0,8,,,,,,,,3,,,76,0
53169,note_on,177,0,1,,,,,,,,0,,,79,0
53177,note_on,89,0,9,,,,,,,,3,,,55,0
53177,note_on,0,0,9,,,,,,,,3,,,67,0
53177,note_on,89,0,2,,,,,,,,0,,,76,0
53177,note_on,89,0,3,,,,,,,,1,,,72,0
53177,note_on,0,0,3,,,,,,,,1,,,76,0
53184,note_on,57,0,8,,,,,,,,3,,,76,85
53184,note_on,15,0,1,,,,,,,,0,,,79,64
53184,note_on,57,0,10,,,,,,,,3,,,57,85
53184,note_on,7,0,3,,,,,,,,1,,,76,85
53184,note_on,7,0,9,,,,,,,,3,,,67,85
53184,note_on,57,0,11,,,,,,,,3,,,41,64
53184,note_on,7,0,2,,,,,,,,0,,,76,64
53190,note_on,6,0,3,,,,,,,,1,,,76,0
53190,note_on,0,0,8,,,,,,,,3,,,74,85
53190,note_on,6,0,8,,,,,,,,3,,,76,0
53190,note_on,6,0,9,,,,,,,,3,,,67,0
53190,note_on,6,0,2,,,,,,,,0,,,76,0
53190,note_on,0,0,2,,,,,,,,0,,,74,64
53190,note_on,0,0,3,,,,,,,,1,,,77,85
53190,note_on,0,0,3,,,,,,,,1,,,74,85
53190,note_on,6,0,1,,,,,,,,0,,,79,0
53190,note_on,0,0,9,,,,,,,,3,,,65,85
53190,note_on,0,0,1,,,,,,,,0,,,77,64
53223,note_on,39,0,11,,,,,,,,3,,,41,0
53223,note_on,39,0,10,,,,,,,,3,,,57,0
53273,note_on,83,0,2,,,,,,,,0,,,74,0
53273,note_on,83,0,9,,,,,,,,3,,,65,0
53273,note_on,83,0,1,,,,,,,,0,,,77,0
53273,note_on,83,0,8,,,,,,,,3,,,74,0
53273,note_on,0,0,3,,,,,,,,1,,,77,0
53273,note_on,83,0,3,,,,,,,,1,,,74,0
53280,note_on,7,0,9,,,,,,,,3,,,64,85
53280,note_on,57,0,10,,,,,,,,3,,,55,85
53280,note_on,57,0,11,,,,,,,,3,,,43,64
53280,note_on,0,0,3,,,,,,,,1,,,72,85
53280,note_on,7,0,3,,,,,,,,1,,,76,85
53280,note_on,7,0,2,,,,,,,,0,,,72,64
53280,note_on,7,0,8,,,,,,,,3,,,72,85
53280,note_on,7,0,1,,,,,,,,0,,,76,64
53300,note_on,0,0,3,,,,,,,,1,,,76,0
53300,note_on,20,0,3,,,,,,,,1,,,72,0
53300,note_on,20,0,2,,,,,,,,0,,,72,0
53300,note_on,20,0,9,,,,,,,,3,,,64,0
53300,note_on,20,0,1,,,,,,,,0,,,76,0
53300,note_on,20,0,8,,,,,,,,3,,,72,0
53319,note_on,39,0,10,,,,,,,,3,,,55,0
53319,note_on,39,0,11,,,,,,,,3,,,43,0
53328,note_on,28,0,9,,,,,,,,3,,,62,85
53328,note_on,28,0,2,,,,,,,,0,,,71,64
53328,note_on,28,0,8,,,,,,,,3,,,71,85
53328,note_on,28,0,1,,,,,,,,0,,,74,64
53328,note_on,28,0,3,,,,,,,,1,,,74,85
53328,note_on,0,0,3,,,,,,,,1,,,67,85
53348,note_on,20,0,1,,,,,,,,0,,,74,0
53348,note_on,20,0,9,,,,,,,,3,,,62,0
53348,note_on,0,0,3,,,,,,,,1,,,74,0
53348,note_on,20,0,3,,,,,,,,1,,,67,0
53348,note_on,20,0,2,,,,,,,,0,,,71,0
53348,note_on,20,0,8,,,,,,,,3,,,71,0
53376,note_on,28,0,9,,,,,,,,3,,,64,85
53376,note_on,28,0,1,,,,,,,,0,,,72,64
53376,note_on,28,0,2,,,,,,,,0,,,72,64
53376,note_on,0,0,3,,,,,,,,1,,,64,85
53376,note_on,28,0,8,,,,,,,,3,,,72,85
53376,note_on,57,0,10,,,,,,,,3,,,55,85
53376,note_on,57,0,11,,,,,,,,3,,,36,64
53376,note_on,28,0,3,,,,,,,,1,,,72,85
53424,note_on,3223,0,6,,,,,,,,2,,,72,64
53424,note_on,2647,0,5,,,,,,,,2,,,84,64
53465,note_on,89,0,11,,,,,,,,3,,,36,0
53465,note_on,0,0,3,,,,,,,,1,,,72,0
53465,note_on,89,0,8,,,,,,,,3,,,72,0
53465,note_on,89,0,3,,,,,,,,1,,,64,0
53465,note_on,89,0,9,,,,,,,,3,,,64,0
53465,note_on,89,0,1,,,,,,,,0,,,72,0
53465,note_on,89,0,10,,,,,,,,3,,,55,0
53465,note_on,89,0,2,,,,,,,,0,,,72,0
53469,note_on,45,0,6,,,,,,,,2,,,72,0
53469,note_on,45,0,5,,,,,,,,2,,,84,0
53472,note_on,3,0,6,,,,,,,,2,,,71,64
53472,note_on,3,0,5,,,,,,,,2,,,83,64
53517,note_on,45,0,6,,,,,,,,2,,,71,0
53517,note_on,45,0,5,,,,,,,,2,,,83,0
53520,note_on,3,0,6,,,,,,,,2,,,69,64
53520,note_on,3,0,5,,,,,,,,2,,,81,64
53565,note_on,45,0,5,,,,,,,,2,,,81,0
53565,note_on,45,0,6,,,,,,,,2,,,69,0
53568,note_on,3,0,6,,,,,,,,2,,,66,64
53568,note_on,3,0,5,,,,,,,,2,,,78,64
53613,note_on,45,0,5,,,,,,,,2,,,78,0
53613,note_on,45,0,6,,,,,,,,2,,,66,0
53616,note_on,3,0,6,,,,,,,,2,,,67,64
53616,note_on,3,0,5,,,,,,,,2,,,79,64
53661,note_on,45,0,6,,,,,,,,2,,,67,0
53661,note_on,45,0,5,,,,,,,,2,,,79,0
53664,note_on,3,0,5,,,,,,,,2,,,81,64
53664,note_on,3,0,6,,,,,,,,2,,,69,64
53709,note_on,45,0,6,,,,,,,,2,,,69,0
53709,note_on,45,0,5,,,,,,,,2,,,81,0
53712,note_on,3,0,6,,,,,,,,2,,,67,64
53712,note_on,3,0,5,,,,,,,,2,,,79,64
53757,note_on,45,0,5,,,,,,,,2,,,79,0
53757,note_on,45,0,6,,,,,,,,2,,,67,0
53760,note_on,3,0,5,,,,,,,,2,,,79,64
53760,note_on,295,0,8,,,,,,,,3,,,79,43
53760,note_on,3,0,6,,,,,,,,2,,,55,64
53766,note_on,6,0,5,,,,,,,,2,,,79,0
53766,note_on,0,0,5,,,,,,,,2,,,71,64
53783,note_on,23,0,6,,,,,,,,2,,,55,0
53784,note_on,1,0,6,,,,,,,,2,,,67,64
53807,note_on,23,0,6,,,,,,,,2,,,67,0
53808,note_on,1,0,6,,,,,,,,2,,,65,64
53831,note_on,23,0,6,,,,,,,,2,,,65,0
53832,note_on,1,0,6,,,,,,,,2,,,67,64
53855,note_on,23,0,6,,,,,,,,2,,,67,0
53856,note_on,1,0,6,,,,,,,,2,,,55,64
53879,note_on,23,0,6,,,,,,,,2,,,55,0
53880,note_on,1,0,6,,,,,,,,2,,,67,64
53903,note_on,23,0,6,,,,,,,,2,,,67,0
53904,note_on,1,0,6,,,,,,,,2,,,65,64
53927,note_on,23,0,6,,,,,,,,2,,,65,0
53928,note_on,1,0,6,,,,,,,,2,,,67,64
53937,note_on,171,0,5,,,,,,,,2,,,71,0
53951,note_on,23,0,6,,,,,,,,2,,,67,0
53952,note_on,1,0,6,,,,,,,,2,,,55,64
53952,note_on,15,0,5,,,,,,,,2,,,72,64
53964,note_on,0,0,5,,,,,,,,2,,,74,64
53964,note_on,12,0,5,,,,,,,,2,,,72,0
53975,note_on,23,0,6,,,,,,,,2,,,55,0
53976,note_on,0,0,5,,,,,,,,2,,,72,64
53976,note_on,12,0,5,,,,,,,,2,,,74,0
53976,note_on,1,0,6,,,,,,,,2,,,67,64
53988,note_on,12,0,5,,,,,,,,2,,,72,0
53988,note_on,0,0,5,,,,,,,,2,,,74,64
53999,note_on,23,0,6,,,,,,,,2,,,67,0
54000,note_on,1,0,6,,,,,,,,2,,,65,64
54000,note_on,12,0,5,,,,,,,,2,,,74,0
54000,note_on,0,0,5,,,,,,,,2,,,72,64
54012,note_on,0,0,5,,,,,,,,2,,,74,64
54012,note_on,12,0,5,,,,,,,,2,,,72,0
54023,note_on,23,0,6,,,,,,,,2,,,65,0
54024,note_on,0,0,5,,,,,,,,2,,,72,64
54024,note_on,1,0,6,,,,,,,,2,,,67,64
54024,note_on,12,0,5,,,,,,,,2,,,74,0
54036,note_on,12,0,5,,,,,,,,2,,,72,0
54036,note_on,0,0,5,,,,,,,,2,,,74,64
54047,note_on,23,0,6,,,,,,,,2,,,67,0
54048,note_on,12,0,5,,,,,,,,2,,,74,0
54048,note_on,0,0,5,,,,,,,,2,,,72,64
54048,note_on,1,0,6,,,,,,,,2,,,55,64
54060,note_on,12,0,5,,,,,,,,2,,,72,0
54060,note_on,0,0,5,,,,,,,,2,,,74,64
54071,note_on,23,0,6,,,,,,,,2,,,55,0
54072,note_on,1,0,6,,,,,,,,2,,,67,64
54072,note_on,0,0,5,,,,,,,,2,,,72,64
54072,note_on,12,0,5,,,,,,,,2,,,74,0
54084,note_on,0,0,5,,,,,,,,2,,,74,64
54084,note_on,12,0,5,,,,,,,,2,,,72,0
54085,note_on,1,0,5,,,,,,,,2,,,74,0
54095,note_on,23,0,6,,,,,,,,2,,,67,0
54096,note_on,1,0,6,,,,,,,,2,,,65,64
54096,note_on,11,0,5,,,,,,,,2,,,71,64
54119,note_on,23,0,5,,,,,,,,2,,,71,0
54119,note_on,23,0,6,,,,,,,,2,,,65,0
54120,note_on,1,0,5,,,,,,,,2,,,72,64
54120,note_on,1,0,6,,,,,,,,2,,,67,64
54143,note_on,23,0,5,,,,,,,,2,,,72,0
54143,note_on,23,0,6,,,,,,,,2,,,67,0
54144,note_on,1,0,5,,,,,,,,2,,,73,64
54144,note_on,1,0,6,,,,,,,,2,,,55,64
54144,note_on,679,0,9,,,,,,,,3,,,65,43
54150,note_on,6,0,5,,,,,,,,2,,,73,0
54150,note_on,0,0,5,,,,,,,,2,,,74,64
54167,note_on,23,0,6,,,,,,,,2,,,55,0
54168,note_on,1,0,6,,,,,,,,2,,,67,64
54189,note_on,45,0,9,,,,,,,,3,,,65,0
54191,note_on,23,0,6,,,,,,,,2,,,67,0
54192,note_on,3,0,9,,,,,,,,3,,,55,43
54192,note_on,1,0,6,,,,,,,,2,,,59,64
54215,note_on,23,0,6,,,,,,,,2,,,59,0
54216,note_on,1,0,6,,,,,,,,2,,,67,64
54237,note_on,45,0,9,,,,,,,,3,,,55,0
54239,note_on,23,0,6,,,,,,,,2,,,67,0
54240,note_on,1,0,6,,,,,,,,2,,,55,64
54240,note_on,3,0,9,,,,,,,,3,,,65,43
54263,note_on,23,0,6,,,,,,,,2,,,55,0
54264,note_on,1,0,6,,,,,,,,2,,,67,64
54285,note_on,45,0,9,,,,,,,,3,,,65,0
54287,note_on,23,0,6,,,,,,,,2,,,67,0
54288,note_on,1,0,6,,,,,,,,2,,,59,64
54288,note_on,3,0,9,,,,,,,,3,,,55,43
54311,note_on,23,0,6,,,,,,,,2,,,59,0
54312,note_on,1,0,6,,,,,,,,2,,,67,64
54321,note_on,171,0,5,,,,,,,,2,,,74,0
54333,note_on,45,0,9,,,,,,,,3,,,55,0
54335,note_on,23,0,6,,,,,,,,2,,,67,0
54336,note_on,3,0,9,,,,,,,,3,,,64,43
54336,note_on,15,0,5,,,,,,,,2,,,76,64
54336,note_on,1,0,6,,,,,,,,2,,,55,64
54348,note_on,0,0,5,,,,,,,,2,,,77,64
54348,note_on,12,0,5,,,,,,,,2,,,76,0
54359,note_on,23,0,6,,,,,,,,2,,,55,0
54360,note_on,0,0,5,,,,,,,,2,,,76,64
54360,note_on,12,0,5,,,,,,,,2,,,77,0
54360,note_on,1,0,6,,,,,,,,2,,,67,64
54372,note_on,12,0,5,,,,,,,,2,,,76,0
54372,note_on,0,0,5,,,,,,,,2,,,77,64
54381,note_on,45,0,9,,,,,,,,3,,,64,0
54383,note_on,23,0,6,,,,,,,,2,,,67,0
54384,note_on,1,0,6,,,,,,,,2,,,60,65
54384,note_on,3,0,9,,,,,,,,3,,,55,43
54384,note_on,0,0,5,,,,,,,,2,,,76,64
54384,note_on,12,0,5,,,,,,,,2,,,77,0
54396,note_on,0,0,5,,,,,,,,2,,,77,64
54396,note_on,12,0,5,,,,,,,,2,,,76,0
54407,note_on,23,0,6,,,,,,,,2,,,60,0
54408,note_on,0,0,5,,,,,,,,2,,,76,64
54408,note_on,12,0,5,,,,,,,,2,,,77,0
54408,note_on,1,0,6,,,,,,,,2,,,67,66
54420,note_on,12,0,5,,,,,,,,2,,,76,0
54420,note_on,0,0,5,,,,,,,,2,,,77,64
54429,note_on,45,0,9,,,,,,,,3,,,55,0
54431,note_on,23,0,6,,,,,,,,2,,,67,0
54432,note_on,3,0,9,,,,,,,,3,,,64,43
54432,note_on,1,0,6,,,,,,,,2,,,55,67
54432,note_on,12,0,5,,,,,,,,2,,,77,0
54432,note_on,0,0,5,,,,,,,,2,,,76,64
54444,note_on,0,0,5,,,,,,,,2,,,77,64
54444,note_on,12,0,5,,,,,,,,2,,,76,0
54455,note_on,23,0,6,,,,,,,,2,,,55,0
54456,note_on,12,0,5,,,,,,,,2,,,77,0
54456,note_on,0,0,5,,,,,,,,2,,,76,64
54456,note_on,1,0,6,,,,,,,,2,,,67,67
54468,note_on,12,0,5,,,,,,,,2,,,76,0
54468,note_on,0,0,5,,,,,,,,2,,,77,64
54469,note_on,1,0,5,,,,,,,,2,,,77,0
54477,note_on,45,0,9,,,,,,,,3,,,64,0
54479,note_on,23,0,6,,,,,,,,2,,,67,0
54480,note_on,3,0,9,,,,,,,,3,,,55,43
54480,note_on,11,0,5,,,,,,,,2,,,74,68
54480,note_on,1,0,6,,,,,,,,2,,,60,68
54503,note_on,23,0,5,,,,,,,,2,,,74,0
54503,note_on,23,0,6,,,,,,,,2,,,60,0
54504,note_on,1,0,5,,,,,,,,2,,,76,69
54504,note_on,1,0,6,,,,,,,,2,,,67,69
54525,note_on,45,0,9,,,,,,,,3,,,55,0
54527,note_on,23,0,5,,,,,,,,2,,,76,0
54527,note_on,23,0,6,,,,,,,,2,,,67,0
54528,note_on,1,0,5,,,,,,,,2,,,77,70
54528,note_on,3,0,9,,,,,,,,3,,,62,43
54528,note_on,0,0,6,,,,,,,,2,,,47,70
54528,note_on,1,0,6,,,,,,,,2,,,59,70
54551,note_on,23,0,5,,,,,,,,2,,,77,0
54552,note_on,1,0,5,,,,,,,,2,,,79,70
54575,note_on,23,0,5,,,,,,,,2,,,79,0
54576,note_on,1,0,5,,,,,,,,2,,,81,71
54599,note_on,23,0,5,,,,,,,,2,,,81,0
54600,note_on,1,0,5,,,,,,,,2,,,77,72
54617,note_on,89,0,9,,,,,,,,3,,,62,0
54617,note_on,89,0,6,,,,,,,,2,,,47,0
54617,note_on,0,0,6,,,,,,,,2,,,59,0
54617,note_on,857,0,8,,,,,,,,3,,,79,0
54623,note_on,23,0,5,,,,,,,,2,,,77,0
54624,note_on,7,0,8,,,,,,,,3,,,67,43
54624,note_on,0,0,6,,,,,,,,2,,,48,73
54624,note_on,7,0,6,,,,,,,,2,,,60,73
54624,note_on,1,0,5,,,,,,,,2,,,76,73
54624,note_on,7,0,9,,,,,,,,3,,,64,43
54647,note_on,23,0,5,,,,,,,,2,,,76,0
54648,note_on,1,0,5,,,,,,,,2,,,77,73
54671,note_on,23,0,5,,,,,,,,2,,,77,0
54672,note_on,1,0,5,,,,,,,,2,,,79,74
54695,note_on,23,0,5,,,,,,,,2,,,79,0
54696,note_on,1,0,5,,,,,,,,2,,,76,75
54713,note_on,0,0,6,,,,,,,,2,,,60,0
54713,note_on,89,0,6,,,,,,,,2,,,48,0
54713,note_on,89,0,9,,,,,,,,3,,,64,0
54713,note_on,89,0,8,,,,,,,,3,,,67,0
54719,note_on,23,0,5,,,,,,,,2,,,76,0
54720,note_on,1,0,5,,,,,,,,2,,,76,76
54720,note_on,7,0,8,,,,,,,,3,,,67,43
54720,note_on,7,0,9,,,,,,,,3,,,64,43
54720,note_on,7,0,6,,,,,,,,2,,,53,76
54726,note_on,0,0,9,,,,,,,,3,,,62,43
54726,note_on,0,0,5,,,,,,,,2,,,74,76
54726,note_on,6,0,5,,,,,,,,2,,,76,0
54726,note_on,0,0,8,,,,,,,,3,,,65,43
54726,note_on,6,0,8,,,,,,,,3,,,67,0
54726,note_on,6,0,9,,,,,,,,3,,,64,0
54809,note_on,83,0,5,,,,,,,,2,,,74,0
54809,note_on,83,0,9,,,,,,,,3,,,62,0
54809,note_on,83,0,8,,,,,,,,3,,,65,0
54809,note_on,89,0,6,,,,,,,,2,,,53,0
54816,note_on,7,0,6,,,,,,,,2,,,55,79
54816,note_on,7,0,8,,,,,,,,3,,,64,43
54816,note_on,7,0,5,,,,,,,,2,,,72,79
54816,note_on,7,0,9,,,,,,,,3,,,60,43
54836,note_on,20,0,5,,,,,,,,2,,,72,0
54836,note_on,20,0,8,,,,,,,,3,,,64,0
54836,note_on,20,0,9,,,,,,,,3,,,60,0
54864,note_on,28,0,5,,,,,,,,2,,,71,80
54864,note_on,28,0,9,,,,,,,,3,,,59,43
54864,note_on,28,0,8,,,,,,,,3,,,62,43
54884,note_on,20,0,5,,,,,,,,2,,,71,0
54884,note_on,20,0,9,,,,,,,,3,,,59,0
54884,note_on,20,0,8,,,,,,,,3,,,62,0
54905,note_on,89,0,6,,,,,,,,2,,,55,0
54912,note_on,28,0,5,,,,,,,,2,,,72,82
54912,note_on,1447,0,1,,,,,,,,0,,,81,64
54912,note_on,28,0,8,,,,,,,,3,,,60,85
54912,note_on,28,0,9,,,,,,,,3,,,60,85
54912,note_on,7,0,6,,,,,,,,2,,,48,82
54935,note_on,23,0,9,,,,,,,,3,,,60,0
54936,note_on,1,0,9,,,,,,,,3,,,60,85
54959,note_on,23,0,9,,,,,,,,3,,,60,0
54960,note_on,1,0,9,,,,,,,,3,,,60,85
54960,note_on,1495,0,11,,,,,,,,3,,,36,64
54983,note_on,23,0,9,,,,,,,,3,,,60,0
54984,note_on,1,0,9,,,,,,,,3,,,60,85
55001,note_on,89,0,6,,,,,,,,2,,,48,0
55001,note_on,89,0,5,,,,,,,,2,,,72,0
55001,note_on,89,0,8,,,,,,,,3,,,60,0
55005,note_on,45,0,11,,,,,,,,3,,,36,0
55007,note_on,23,0,9,,,,,,,,3,,,60,0
55008,note_on,1543,0,3,,,,,,,,1,,,72,85
55008,note_on,3,0,11,,,,,,,,3,,,40,64
55008,note_on,1543,0,10,,,,,,,,3,,,55,85
55008,note_on,1543,0,2,,,,,,,,0,,,72,64
55008,note_on,7,0,8,,,,,,,,3,,,60,85
55008,note_on,0,0,3,,,,,,,,1,,,60,85
55008,note_on,1,0,9,,,,,,,,3,,,60,85
55028,note_on,20,0,8,,,,,,,,3,,,60,0
55028,note_on,20,0,2,,,,,,,,0,,,72,0
55031,note_on,23,0,9,,,,,,,,3,,,60,0
55031,note_on,23,0,10,,,,,,,,3,,,55,0
55032,note_on,1,0,9,,,,,,,,3,,,60,85
55032,note_on,1,0,10,,,,,,,,3,,,55,85
55053,note_on,0,0,3,,,,,,,,1,,,72,0
55053,note_on,45,0,11,,,,,,,,3,,,40,0
55053,note_on,45,0,3,,,,,,,,1,,,60,0
55055,note_on,23,0,10,,,,,,,,3,,,55,0
55055,note_on,23,0,9,,,,,,,,3,,,60,0
55056,note_on,28,0,8,,,,,,,,3,,,58,85
55056,note_on,1,0,10,,,,,,,,3,,,55,85
55056,note_on,3,0,11,,,,,,,,3,,,36,64
55056,note_on,28,0,2,,,,,,,,0,,,70,64
55056,note_on,3,0,3,,,,,,,,1,,,72,85
55056,note_on,0,0,3,,,,,,,,1,,,60,85
55056,note_on,1,0,9,,,,,,,,3,,,60,85
55076,note_on,20,0,8,,,,,,,,3,,,58,0
55076,note_on,20,0,2,,,,,,,,0,,,70,0
55079,note_on,23,0,9,,,,,,,,3,,,60,0
55079,note_on,23,0,10,,,,,,,,3,,,55,0
55080,note_on,1,0,9,,,,,,,,3,,,60,85
55080,note_on,1,0,10,,,,,,,,3,,,55,85
55101,note_on,45,0,3,,,,,,,,1,,,60,0
55101,note_on,0,0,3,,,,,,,,1,,,72,0
55101,note_on,45,0,11,,,,,,,,3,,,36,0
55103,note_on,23,0,9,,,,,,,,3,,,60,0
55103,note_on,23,0,10,,,,,,,,3,,,55,0
55104,note_on,0,0,3,,,,,,,,1,,,60,85
55104,note_on,3,0,11,,,,,,,,3,,,41,64
55104,note_on,3,0,3,,,,,,,,1,,,72,85
55104,note_on,28,0,2,,,,,,,,0,,,69,64
55104,note_on,28,0,8,,,,,,,,3,,,57,85
55104,note_on,1,0,10,,,,,,,,3,,,53,85
55104,note_on,1,0,9,,,,,,,,3,,,60,85
55124,note_on,20,0,8,,,,,,,,3,,,57,0
55127,note_on,23,0,10,,,,,,,,3,,,53,0
55127,note_on,23,0,9,,,,,,,,3,,,60,0
55128,note_on,1,0,9,,,,,,,,3,,,60,85
55128,note_on,1,0,10,,,,,,,,3,,,53,85
55149,note_on,45,0,2,,,,,,,,0,,,69,0
55149,note_on,45,0,11,,,,,,,,3,,,41,0
55151,note_on,23,0,10,,,,,,,,3,,,53,0
55151,note_on,23,0,9,,,,,,,,3,,,60,0
55152,note_on,1,0,9,,,,,,,,3,,,60,85
55152,note_on,3,0,11,,,,,,,,3,,,36,64
55152,note_on,1,0,10,,,,,,,,3,,,53,85
55175,note_on,23,0,9,,,,,,,,3,,,60,0
55175,note_on,23,0,10,,,,,,,,3,,,53,0
55176,note_on,52,0,8,,,,,,,,3,,,72,85
55176,note_on,1,0,10,,,,,,,,3,,,53,85
55176,note_on,27,0,2,,,,,,,,0,,,72,64
55176,note_on,1,0,9,,,,,,,,3,,,60,85
55197,note_on,45,0,11,,,,,,,,3,,,36,0
55199,note_on,23,0,9,,,,,,,,3,,,60,0
55199,note_on,23,0,10,,,,,,,,3,,,53,0
55199,note_on,23,0,8,,,,,,,,3,,,72,0
55199,note_on,23,0,2,,,,,,,,0,,,72,0
55200,note_on,3,0,11,,,,,,,,3,,,45,64
55200,note_on,1,0,10,,,,,,,,3,,,53,85
55200,note_on,1,0,9,,,,,,,,3,,,60,85
55200,note_on,1,0,8,,,,,,,,3,,,77,85
55200,note_on,1,0,2,,,,,,,,0,,,77,64
55223,note_on,23,0,10,,,,,,,,3,,,53,0
55223,note_on,23,0,2,,,,,,,,0,,,77,0
55223,note_on,23,0,9,,,,,,,,3,,,60,0
55223,note_on,23,0,8,,,,,,,,3,,,77,0
55224,note_on,1,0,9,,,,,,,,3,,,60,85
55224,note_on,1,0,10,,,,,,,,3,,,53,85
55224,note_on,1,0,2,,,,,,,,0,,,72,64
55224,note_on,1,0,8,,,,,,,,3,,,72,85
55245,note_on,45,0,11,,,,,,,,3,,,45,0
55247,note_on,23,0,10,,,,,,,,3,,,53,0
55247,note_on,23,0,9,,,,,,,,3,,,60,0
55247,note_on,23,0,8,,,,,,,,3,,,72,0
55247,note_on,23,0,2,,,,,,,,0,,,72,0
55248,note_on,1,0,10,,,,,,,,3,,,53,85
55248,note_on,1,0,9,,,,,,,,3,,,60,85
55248,note_on,1,0,2,,,,,,,,0,,,77,64
55248,note_on,3,0,11,,,,,,,,3,,,41,64
55248,note_on,1,0,8,,,,,,,,3,,,77,85
55258,note_on,10,0,8,,,,,,,,3,,,77,0
55258,note_on,10,0,2,,,,,,,,0,,,77,0
55271,note_on,23,0,9,,,,,,,,3,,,60,0
55271,note_on,23,0,10,,,,,,,,3,,,53,0
55272,note_on,1,0,9,,,,,,,,3,,,60,85
55272,note_on,14,0,2,,,,,,,,0,,,81,64
55272,note_on,1,0,10,,,,,,,,3,,,53,85
55272,note_on,14,0,8,,,,,,,,3,,,81,85
55282,note_on,10,0,2,,,,,,,,0,,,81,0
55282,note_on,10,0,8,,,,,,,,3,,,81,0
55293,note_on,45,0,11,,,,,,,,3,,,41,0
55295,note_on,23,0,9,,,,,,,,3,,,60,0
55295,note_on,23,0,10,,,,,,,,3,,,53,0
55296,note_on,3,0,11,,,,,,,,3,,,48,64
55296,note_on,14,0,2,,,,,,,,0,,,79,64
55296,note_on,1,0,9,,,,,,,,3,,,60,85
55296,note_on,1,0,10,,,,,,,,3,,,52,85
55296,note_on,14,0,8,,,,,,,,3,,,79,85
55319,note_on,23,0,9,,,,,,,,3,,,60,0
55319,note_on,23,0,10,,,,,,,,3,,,52,0
55320,note_on,1,0,10,,,,,,,,3,,,52,85
55320,note_on,1,0,9,,,,,,,,3,,,60,85
55341,note_on,45,0,11,,,,,,,,3,,,48,0
55343,note_on,23,0,10,,,,,,,,3,,,52,0
55343,note_on,23,0,9,,,,,,,,3,,,60,0
55344,note_on,1,0,9,,,,,,,,3,,,60,85
55344,note_on,3,0,11,,,,,,,,3,,,36,64
55344,note_on,1,0,10,,,,,,,,3,,,52,85
55367,note_on,23,0,10,,,,,,,,3,,,52,0
55367,note_on,23,0,9,,,,,,,,3,,,60,0
55368,note_on,1,0,9,,,,,,,,3,,,60,85
55368,note_on,1,0,10,,,,,,,,3,,,52,85
55385,note_on,89,0,2,,,,,,,,0,,,79,0
55385,note_on,89,0,8,,,,,,,,3,,,79,0
55385,note_on,281,0,3,,,,,,,,1,,,60,0
55385,note_on,0,0,3,,,,,,,,1,,,72,0
55389,note_on,45,0,11,,,,,,,,3,,,36,0
55391,note_on,23,0,10,,,,,,,,3,,,52,0
55391,note_on,23,0,9,,,,,,,,3,,,60,0
55392,note_on,1,0,9,,,,,,,,3,,,60,85
55392,note_on,7,0,2,,,,,,,,0,,,72,64
55392,note_on,0,0,3,,,,,,,,1,,,60,85
55392,note_on,7,0,3,,,,,,,,1,,,72,85
55392,note_on,1,0,10,,,,,,,,3,,,55,85
55392,note_on,7,0,8,,,,,,,,3,,,60,85
55392,note_on,3,0,11,,,,,,,,3,,,40,64
55412,note_on,20,0,2,,,,,,,,0,,,72,0
55412,note_on,20,0,8,,,,,,,,3,,,60,0
55415,note_on,23,0,9,,,,,,,,3,,,60,0
55415,note_on,23,0,10,,,,,,,,3,,,55,0
55416,note_on,1,0,10,,,,,,,,3,,,55,85
55416,note_on,1,0,9,,,,,,,,3,,,60,85
55437,note_on,0,0,3,,,,,,,,1,,,72,0
55437,note_on,45,0,3,,,,,,,,1,,,60,0
55437,note_on,45,0,11,,,,,,,,3,,,40,0
55439,note_on,23,0,9,,,,,,,,3,,,60,0
55439,note_on,23,0,10,,,,,,,,3,,,55,0
55440,note_on,1,0,9,,,,,,,,3,,,60,85
55440,note_on,28,0,8,,,,,,,,3,,,58,85
55440,note_on,1,0,10,,,,,,,,3,,,55,85
55440,note_on,3,0,3,,,,,,,,1,,,72,85
55440,note_on,3,0,11,,,,,,,,3,,,36,64
55440,note_on,0,0,3,,,,,,,,1,,,60,85
55440,note_on,28,0,2,,,,,,,,0,,,70,64
55460,note_on,20,0,2,,,,,,,,0,,,70,0
55460,note_on,20,0,8,,,,,,,,3,,,58,0
55463,note_on,23,0,9,,,,,,,,3,,,60,0
55463,note_on,23,0,10,,,,,,,,3,,,55,0
55464,note_on,1,0,9,,,,,,,,3,,,60,85
55464,note_on,1,0,10,,,,,,,,3,,,55,85
55485,note_on,45,0,11,,,,,,,,3,,,36,0
55485,note_on,0,0,3,,,,,,,,1,,,72,0
55485,note_on,45,0,3,,,,,,,,1,,,60,0
55487,note_on,23,0,9,,,,,,,,3,,,60,0
55487,note_on,23,0,10,,,,,,,,3,,,55,0
55488,note_on,1,0,10,,,,,,,,3,,,53,85
55488,note_on,3,0,3,,,,,,,,1,,,72,85
55488,note_on,3,0,11,,,,,,,,3,,,41,64
55488,note_on,28,0,2,,,,,,,,0,,,69,64
55488,note_on,1,0,9,,,,,,,,3,,,60,85
55488,note_on,0,0,3,,,,,,,,1,,,60,85
55488,note_on,28,0,8,,,,,,,,3,,,57,85
55508,note_on,20,0,8,,,,,,,,3,,,57,0
55511,note_on,23,0,9,,,,,,,,3,,,60,0
55511,note_on,23,0,10,,,,,,,,3,,,53,0
55512,note_on,1,0,10,,,,,,,,3,,,53,85
55512,note_on,1,0,9,,,,,,,,3,,,60,85
55533,note_on,45,0,11,,,,,,,,3,,,41,0
55533,note_on,45,0,2,,,,,,,,0,,,69,0
55535,note_on,23,0,9,,,,,,,,3,,,60,0
55535,note_on,23,0,10,,,,,,,,3,,,53,0
55536,note_on,1,0,9,,,,,,,,3,,,60,85
55536,note_on,3,0,11,,,,,,,,3,,,36,64
55536,note_on,1,0,10,,,,,,,,3,,,53,85
55559,note_on,23,0,9,,,,,,,,3,,,60,0
55559,note_on,23,0,10,,,,,,,,3,,,53,0
55560,note_on,27,0,2,,,,,,,,0,,,72,64
55560,note_on,52,0,8,,,,,,,,3,,,72,85
55560,note_on,1,0,9,,,,,,,,3,,,60,85
55560,note_on,1,0,10,,,,,,,,3,,,53,85
55581,note_on,45,0,11,,,,,,,,3,,,36,0
55583,note_on,23,0,2,,,,,,,,0,,,72,0
55583,note_on,23,0,8,,,,,,,,3,,,72,0
55583,note_on,23,0,10,,,,,,,,3,,,53,0
55583,note_on,23,0,9,,,,,,,,3,,,60,0
55584,note_on,1,0,10,,,,,,,,3,,,53,85
55584,note_on,1,0,8,,,,,,,,3,,,77,85
55584,note_on,1,0,2,,,,,,,,0,,,77,64
55584,note_on,3,0,11,,,,,,,,3,,,45,64
55584,note_on,1,0,9,,,,,,,,3,,,60,85
55607,note_on,23,0,10,,,,,,,,3,,,53,0
55607,note_on,23,0,2,,,,,,,,0,,,77,0
55607,note_on,23,0,8,,,,,,,,3,,,77,0
55607,note_on,23,0,9,,,,,,,,3,,,60,0
55608,note_on,1,0,8,,,,,,,,3,,,72,85
55608,note_on,1,0,10,,,,,,,,3,,,53,85
55608,note_on,1,0,2,,,,,,,,0,,,72,64
55608,note_on,1,0,9,,,,,,,,3,,,60,85
55629,note_on,45,0,11,,,,,,,,3,,,45,0
55631,note_on,23,0,2,,,,,,,,0,,,72,0
55631,note_on,23,0,9,,,,,,,,3,,,60,0
55631,note_on,23,0,8,,,,,,,,3,,,72,0
55631,note_on,23,0,10,,,,,,,,3,,,53,0
55632,note_on,1,0,9,,,,,,,,3,,,60,85
55632,note_on,3,0,11,,,,,,,,3,,,41,64
55632,note_on,1,0,10,,,,,,,,3,,,53,85
55632,note_on,1,0,8,,,,,,,,3,,,77,85
55632,note_on,1,0,2,,,,,,,,0,,,77,64
55642,note_on,10,0,2,,,,,,,,0,,,77,0
55642,note_on,10,0,8,,,,,,,,3,,,77,0
55655,note_on,23,0,9,,,,,,,,3,,,60,0
55655,note_on,23,0,10,,,,,,,,3,,,53,0
55656,note_on,14,0,8,,,,,,,,3,,,81,85
55656,note_on,1,0,10,,,,,,,,3,,,53,85
55656,note_on,14,0,2,,,,,,,,0,,,81,64
55656,note_on,1,0,9,,,,,,,,3,,,60,85
55666,note_on,10,0,2,,,,,,,,0,,,81,0
55666,note_on,10,0,8,,,,,,,,3,,,81,0
55677,note_on,45,0,11,,,,,,,,3,,,41,0
55679,note_on,23,0,9,,,,,,,,3,,,60,0
55679,note_on,23,0,10,,,,,,,,3,,,53,0
55680,note_on,1,0,9,,,,,,,,3,,,60,85
55680,note_on,14,0,8,,,,,,,,3,,,79,85
55680,note_on,14,0,2,,,,,,,,0,,,79,64
55680,note_on,1,0,10,,,,,,,,3,,,52,85
55680,note_on,3,0,11,,,,,,,,3,,,48,64
55725,note_on,45,0,11,,,,,,,,3,,,48,0
55728,note_on,727,0,6,,,,,,,,2,,,60,64
55769,note_on,89,0,2,,,,,,,,0,,,79,0
55769,note_on,89,0,8,,,,,,,,3,,,79,0
55769,note_on,89,0,9,,,,,,,,3,,,60,0
55769,note_on,0,0,3,,,,,,,,1,,,72,0
55769,note_on,281,0,3,,,,,,,,1,,,60,0
55769,note_on,857,0,1,,,,,,,,0,,,81,0
55769,note_on,89,0,10,,,,,,,,3,,,52,0
55773,note_on,45,0,6,,,,,,,,2,,,60,0
55776,note_on,0,0,6,,,,,,,,2,,,72,64
55776,note_on,3,0,6,,,,,,,,2,,,76,64
55776,note_on,775,0,5,,,,,,,,2,,,79,64
55788,note_on,0,0,5,,,,,,,,2,,,81,64
55788,note_on,12,0,5,,,,,,,,2,,,79,0
55800,note_on,12,0,5,,,,,,,,2,,,81,0
55800,note_on,0,0,5,,,,,,,,2,,,79,64
55821,note_on,21,0,5,,,,,,,,2,,,79,0
55821,note_on,45,0,6,,,,,,,,2,,,72,0
55821,note_on,0,0,6,,,,,,,,2,,,76,0
55824,note_on,0,0,6,,,,,,,,2,,,71,64
55824,note_on,3,0,5,,,,,,,,2,,,79,64
55824,note_on,3,0,6,,,,,,,,2,,,74,64
55869,note_on,0,0,6,,,,,,,,2,,,74,0
55869,note_on,45,0,6,,,,,,,,2,,,71,0
55869,note_on,45,0,5,,,,,,,,2,,,79,0
55872,note_on,0,0,6,,,,,,,,2,,,69,64
55872,note_on,3,0,6,,,,,,,,2,,,72,64
55872,note_on,3,0,5,,,,,,,,2,,,79,64
55878,note_on,6,0,5,,,,,,,,2,,,79,0
55878,note_on,0,0,5,,,,,,,,2,,,77,64
55892,note_on,14,0,5,,,,,,,,2,,,77,0
55920,note_on,28,0,5,,,,,,,,2,,,77,64
55940,note_on,20,0,5,,,,,,,,2,,,77,0
55961,note_on,0,0,6,,,,,,,,2,,,72,0
55961,note_on,89,0,6,,,,,,,,2,,,69,0
55968,note_on,0,0,6,,,,,,,,2,,,67,64
55968,note_on,7,0,6,,,,,,,,2,,,71,64
56016,note_on,76,0,5,,,,,,,,2,,,76,64
56057,note_on,0,0,6,,,,,,,,2,,,71,0
56057,note_on,89,0,6,,,,,,,,2,,,67,0
56061,note_on,45,0,5,,,,,,,,2,,,76,0
56064,note_on,3,0,5,,,,,,,,2,,,76,64
56064,note_on,7,0,6,,,,,,,,2,,,69,64
56064,note_on,0,0,6,,,,,,,,2,,,65,64
56070,note_on,0,0,5,,,,,,,,2,,,74,64
56070,note_on,6,0,5,,,,,,,,2,,,76,0
56084,note_on,14,0,5,,,,,,,,2,,,74,0
56112,note_on,28,0,5,,,,,,,,2,,,74,64
56132,note_on,20,0,5,,,,,,,,2,,,74,0
56153,note_on,89,0,6,,,,,,,,2,,,65,0
56153,note_on,0,0,6,,,,,,,,2,,,69,0
56160,note_on,7,0,6,,,,,,,,2,,,67,64
56160,note_on,0,0,6,,,,,,,,2,,,64,64
56208,note_on,76,0,5,,,,,,,,2,,,72,64
56249,note_on,89,0,6,,,,,,,,2,,,64,0
56249,note_on,0,0,6,,,,,,,,2,,,67,0
56253,note_on,45,0,5,,,,,,,,2,,,72,0
56256,note_on,7,0,6,,,,,,,,2,,,65,64
56256,note_on,0,0,6,,,,,,,,2,,,62,64
56256,note_on,3,0,5,,,,,,,,2,,,72,64
56262,note_on,0,0,5,,,,,,,,2,,,71,64
56262,note_on,6,0,5,,,,,,,,2,,,72,0
56276,note_on,14,0,5,,,,,,,,2,,,71,0
56304,note_on,28,0,5,,,,,,,,2,,,71,64
56324,note_on,20,0,5,,,,,,,,2,,,71,0
56345,note_on,89,0,6,,,,,,,,2,,,62,0
56345,note_on,0,0,6,,,,,,,,2,,,65,0
56352,note_on,7,0,6,,,,,,,,2,,,64,64
56352,note_on,0,0,6,,,,,,,,2,,,60,64
56400,note_on,76,0,5,,,,,,,,2,,,74,64
56412,note_on,0,0,5,,,,,,,,2,,,72,64
56412,note_on,12,0,5,,,,,,,,2,,,74,0
56424,note_on,0,0,5,,,,,,,,2,,,71,64
56424,note_on,12,0,5,,,,,,,,2,,,72,0
56436,note_on,12,0,5,,,,,,,,2,,,71,0
56436,note_on,0,0,5,,,,,,,,2,,,72,64
56441,note_on,0,0,6,,,,,,,,2,,,64,0
56441,note_on,89,0,6,,,,,,,,2,,,60,0
56448,note_on,0,0,6,,,,,,,,2,,,55,85
56448,note_on,7,0,6,,,,,,,,2,,,59,85
56448,note_on,0,0,5,,,,,,,,2,,,73,85
56448,note_on,12,0,5,,,,,,,,2,,,72,0
56493,note_on,45,0,5,,,,,,,,2,,,73,0
56496,note_on,3,0,5,,,,,,,,2,,,74,85
56537,note_on,89,0,6,,,,,,,,2,,,55,0
56537,note_on,0,0,6,,,,,,,,2,,,59,0
56541,note_on,45,0,5,,,,,,,,2,,,74,0
56544,note_on,775,0,9,,,,,,,,3,,,67,43
56544,note_on,3,0,5,,,,,,,,2,,,72,64
56544,note_on,7,0,6,,,,,,,,2,,,64,64
56544,note_on,775,0,10,,,,,,,,3,,,64,43
56544,note_on,775,0,8,,,,,,,,3,,,72,43
56567,note_on,23,0,5,,,,,,,,2,,,72,0
56568,note_on,1,0,5,,,,,,,,2,,,76,64
56589,note_on,45,0,10,,,,,,,,3,,,64,0
56589,note_on,45,0,8,,,,,,,,3,,,72,0
56589,note_on,45,0,6,,,,,,,,2,,,64,0
56591,note_on,23,0,5,,,,,,,,2,,,76,0
56592,note_on,1,0,5,,,,,,,,2,,,79,64
56592,note_on,3,0,10,,,,,,,,3,,,60,43
56592,note_on,3,0,6,,,,,,,,2,,,60,64
56592,note_on,3,0,8,,,,,,,,3,,,76,43
56615,note_on,23,0,5,,,,,,,,2,,,79,0
56616,note_on,1,0,5,,,,,,,,2,,,84,64
56633,note_on,89,0,9,,,,,,,,3,,,67,0
56637,note_on,45,0,8,,,,,,,,3,,,76,0
56637,note_on,45,0,6,,,,,,,,2,,,60,0
56637,note_on,45,0,10,,,,,,,,3,,,60,0
56639,note_on,23,0,5,,,,,,,,2,,,84,0
56640,note_on,3,0,6,,,,,,,,2,,,72,64
56640,note_on,1,0,5,,,,,,,,2,,,79,64
56640,note_on,3,0,10,,,,,,,,3,,,69,43
56640,note_on,0,0,6,,,,,,,,2,,,69,64
56640,note_on,7,0,9,,,,,,,,3,,,72,43
56663,note_on,23,0,5,,,,,,,,2,,,79,0
56664,note_on,1,0,5,,,,,,,,2,,,77,64
56687,note_on,23,0,5,,,,,,,,2,,,77,0
56688,note_on,51,0,8,,,,,,,,3,,,77,43
56688,note_on,1,0,5,,,,,,,,2,,,76,64
56711,note_on,23,0,5,,,,,,,,2,,,76,0
56712,note_on,1,0,5,,,,,,,,2,,,77,64
56729,note_on,89,0,9,,,,,,,,3,,,72,0
56729,note_on,0,0,6,,,,,,,,2,,,72,0
56729,note_on,89,0,6,,,,,,,,2,,,69,0
56729,note_on,89,0,10,,,,,,,,3,,,69,0
56733,note_on,45,0,8,,,,,,,,3,,,77,0
56735,note_on,23,0,5,,,,,,,,2,,,77,0
56736,note_on,1,0,5,,,,,,,,2,,,77,64
56736,note_on,0,0,6,,,,,,,,2,,,67,64
56736,note_on,7,0,6,,,,,,,,2,,,71,64
56736,note_on,7,0,9,,,,,,,,3,,,71,43
56736,note_on,7,0,10,,,,,,,,3,,,67,43
56759,note_on,23,0,5,,,,,,,,2,,,77,0
56760,note_on,1,0,5,,,,,,,,2,,,76,64
56783,note_on,23,0,5,,,,,,,,2,,,76,0
56784,note_on,51,0,8,,,,,,,,3,,,76,43
56784,note_on,1,0,5,,,,,,,,2,,,75,64
56807,note_on,23,0,5,,,,,,,,2,,,75,0
56808,note_on,1,0,5,,,,,,,,2,,,76,64
56825,note_on,0,0,6,,,,,,,,2,,,71,0
56825,note_on,89,0,6,,,,,,,,2,,,67,0
56825,note_on,89,0,9,,,,,,,,3,,,71,0
56825,note_on,89,0,10,,,,,,,,3,,,67,0
56829,note_on,45,0,8,,,,,,,,3,,,76,0
56831,note_on,23,0,5,,,,,,,,2,,,76,0
56832,note_on,1,0,5,,,,,,,,2,,,76,64
56832,note_on,7,0,10,,,,,,,,3,,,65,43
56832,note_on,7,0,6,,,,,,,,2,,,69,64
56832,note_on,0,0,6,,,,,,,,2,,,65,64
56832,note_on,7,0,9,,,,,,,,3,,,69,43
56855,note_on,23,0,5,,,,,,,,2,,,76,0
56856,note_on,1,0,5,,,,,,,,2,,,74,65
56879,note_on,23,0,5,,,,,,,,2,,,74,0
56880,note_on,51,0,8,,,,,,,,3,,,74,43
56880,note_on,1,0,5,,,,,,,,2,,,73,66
56903,note_on,23,0,5,,,,,,,,2,,,73,0
56904,note_on,1,0,5,,,,,,,,2,,,74,67
56921,note_on,89,0,10,,,,,,,,3,,,65,0
56921,note_on,89,0,9,,,,,,,,3,,,69,0
56921,note_on,0,0,6,,,,,,,,2,,,69,0
56921,note_on,89,0,6,,,,,,,,2,,,65,0
56925,note_on,45,0,8,,,,,,,,3,,,74,0
56927,note_on,23,0,5,,,,,,,,2,,,74,0
56928,note_on,0,0,6,,,,,,,,2,,,64,64
56928,note_on,1,0,5,,,,,,,,2,,,74,68
56928,note_on,7,0,9,,,,,,,,3,,,67,43
56928,note_on,7,0,10,,,,,,,,3,,,64,43
56928,note_on,7,0,6,,,,,,,,2,,,67,64
56951,note_on,23,0,5,,,,,,,,2,,,74,0
56952,note_on,1,0,5,,,,,,,,2,,,72,69
56975,note_on,23,0,5,,,,,,,,2,,,72,0
56976,note_on,51,0,8,,,,,,,,3,,,72,43
56976,note_on,1,0,5,,,,,,,,2,,,71,70
56999,note_on,23,0,5,,,,,,,,2,,,71,0
57000,note_on,1,0,5,,,,,,,,2,,,72,71
57017,note_on,89,0,6,,,,,,,,2,,,64,0
57017,note_on,89,0,9,,,,,,,,3,,,67,0
57017,note_on,0,0,6,,,,,,,,2,,,67,0
57017,note_on,89,0,10,,,,,,,,3,,,64,0
57021,note_on,45,0,8,,,,,,,,3,,,72,0
57023,note_on,23,0,5,,,,,,,,2,,,72,0
57024,note_on,7,0,6,,,,,,,,2,,,65,64
57024,note_on,7,0,9,,,,,,,,3,,,65,43
57024,note_on,0,0,6,,,,,,,,2,,,62,64
57024,note_on,7,0,10,,,,,,,,3,,,62,43
57024,note_on,1,0,5,,,,,,,,2,,,72,72
57047,note_on,23,0,5,,,,,,,,2,,,72,0
57048,note_on,1,0,5,,,,,,,,2,,,71,73
57063,note_on,39,0,9,,,,,,,,3,,,65,0
57071,note_on,23,0,5,,,,,,,,2,,,71,0
57072,note_on,51,0,8,,,,,,,,3,,,71,43
57072,note_on,1,0,5,,,,,,,,2,,,69,74
57092,note_on,20,0,8,,,,,,,,3,,,71,0
57095,note_on,23,0,5,,,,,,,,2,,,69,0
57096,note_on,1,0,5,,,,,,,,2,,,71,75
57113,note_on,89,0,6,,,,,,,,2,,,62,0
57113,note_on,0,0,6,,,,,,,,2,,,65,0
57113,note_on,89,0,10,,,,,,,,3,,,62,0
57119,note_on,23,0,5,,,,,,,,2,,,71,0
57120,note_on,1,0,5,,,,,,,,2,,,72,76
57120,note_on,7,0,6,,,,,,,,2,,,64,85
57120,note_on,28,0,8,,,,,,,,3,,,72,43
57120,note_on,7,0,10,,,,,,,,3,,,60,43
57120,note_on,57,0,9,,,,,,,,3,,,64,43
57140,note_on,20,0,8,,,,,,,,3,,,72,0
57140,note_on,20,0,9,,,,,,,,3,,,64,0
57140,note_on,20,0,6,,,,,,,,2,,,64,0
57143,note_on,23,0,5,,,,,,,,2,,,72,0
57144,note_on,1,0,5,,,,,,,,2,,,67,77
57167,note_on,23,0,5,,,,,,,,2,,,67,0
57168,note_on,28,0,9,,,,,,,,3,,,60,43
57168,note_on,1,0,5,,,,,,,,2,,,72,78
57168,note_on,28,0,6,,,,,,,,2,,,60,85
57168,note_on,28,0,8,,,,,,,,3,,,76,43
57188,note_on,20,0,6,,,,,,,,2,,,60,0
57188,note_on,20,0,9,,,,,,,,3,,,60,0
57188,note_on,20,0,8,,,,,,,,3,,,76,0
57191,note_on,23,0,5,,,,,,,,2,,,72,0
57192,note_on,1,0,5,,,,,,,,2,,,76,79
57209,note_on,89,0,10,,,,,,,,3,,,60,0
57215,note_on,23,0,5,,,,,,,,2,,,76,0
57216,note_on,28,0,6,,,,,,,,2,,,55,85
57216,note_on,28,0,9,,,,,,,,3,,,59,43
57216,note_on,1,0,5,,,,,,,,2,,,74,80
57216,note_on,0,0,5,,,,,,,,2,,,71,80
57216,note_on,1491,0,11,,,,,,,,3,,,43,64
57216,note_on,7,0,10,,,,,,,,3,,,59,43
57216,note_on,28,0,8,,,,,,,,3,,,74,43
57236,note_on,20,0,9,,,,,,,,3,,,59,0
57239,note_on,23,0,11,,,,,,,,3,,,43,0
57239,note_on,23,0,10,,,,,,,,3,,,59,0
57240,note_on,1,0,10,,,,,,,,3,,,57,85
57240,note_on,1,0,11,,,,,,,,3,,,45,64
57261,note_on,45,0,8,,,,,,,,3,,,74,0
57263,note_on,23,0,11,,,,,,,,3,,,45,0
57263,note_on,23,0,10,,,,,,,,3,,,57,0
57264,note_on,1,0,11,,,,,,,,3,,,47,64
57264,note_on,28,0,9,,,,,,,,3,,,67,43
57264,note_on,1,0,10,,,,,,,,3,,,55,85
57284,note_on,20,0,9,,,,,,,,3,,,67,0
57287,note_on,23,0,10,,,,,,,,3,,,55,0
57287,note_on,23,0,11,,,,,,,,3,,,47,0
57288,note_on,1,0,10,,,,,,,,3,,,57,85
57288,note_on,1,0,11,,,,,,,,3,,,45,64
57305,note_on,89,0,6,,,,,,,,2,,,55,0
57305,note_on,0,0,5,,,,,,,,2,,,74,0
57305,note_on,89,0,5,,,,,,,,2,,,71,0
57311,note_on,23,0,10,,,,,,,,3,,,57,0
57311,note_on,23,0,11,,,,,,,,3,,,45,0
57312,note_on,0,0,3,,,,,,,,1,,,67,64
57312,note_on,1543,0,1,,,,,,,,0,,,79,64
57312,note_on,51,0,8,,,,,,,,3,,,79,85
57312,note_on,1,0,10,,,,,,,,3,,,59,85
57312,note_on,1543,0,2,,,,,,,,0,,,77,64
57312,note_on,1543,0,3,,,,,,,,1,,,74,64
57312,note_on,1,0,11,,,,,,,,3,,,43,64
57312,note_on,28,0,9,,,,,,,,3,,,77,85
57332,note_on,20,0,8,,,,,,,,3,,,79,0
57332,note_on,20,0,9,,,,,,,,3,,,77,0
57335,note_on,23,0,11,,,,,,,,3,,,43,0
57335,note_on,23,0,10,,,,,,,,3,,,59,0
57336,note_on,1,0,10,,,,,,,,3,,,60,85
57336,note_on,1,0,11,,,,,,,,3,,,45,64
57357,note_on,45,0,3,,,,,,,,1,,,67,0
57357,note_on,0,0,3,,,,,,,,1,,,74,0
57359,note_on,23,0,10,,,,,,,,3,,,60,0
57359,note_on,23,0,11,,,,,,,,3,,,45,0
57360,note_on,1,0,10,,,,,,,,3,,,62,85
57360,note_on,3,0,3,,,,,,,,1,,,74,64
57360,note_on,0,0,3,,,,,,,,1,,,67,64
57360,note_on,28,0,8,,,,,,,,3,,,79,85
57360,note_on,28,0,9,,,,,,,,3,,,77,85
57360,note_on,1,0,11,,,,,,,,3,,,47,64
57380,note_on,20,0,9,,,,,,,,3,,,77,0
57380,note_on,20,0,8,,,,,,,,3,,,79,0
57383,note_on,23,0,10,,,,,,,,3,,,62,0
57383,note_on,23,0,11,,,,,,,,3,,,47,0
57384,note_on,1,0,11,,,,,,,,3,,,43,64
57384,note_on,1,0,10,,,,,,,,3,,,59,85
57401,note_on,89,0,2,,,,,,,,0,,,77,0
57405,note_on,0,0,3,,,,,,,,1,,,74,0
57405,note_on,45,0,3,,,,,,,,1,,,67,0
57407,note_on,23,0,11,,,,,,,,3,,,43,0
57407,note_on,23,0,10,,,,,,,,3,,,59,0
57408,note_on,1,0,10,,,,,,,,3,,,60,85
57408,note_on,28,0,8,,,,,,,,3,,,79,85
57408,note_on,1,0,11,,,,,,,,3,,,48,64
57408,note_on,28,0,9,,,,,,,,3,,,76,85
57408,note_on,0,0,3,,,,,,,,1,,,72,64
57408,note_on,3,0,3,,,,,,,,1,,,76,64
57408,note_on,7,0,2,,,,,,,,0,,,76,64
57418,note_on,10,0,9,,,,,,,,3,,,76,0
57431,note_on,23,0,11,,,,,,,,3,,,48,0
57432,note_on,14,0,9,,,,,,,,3,,,74,85
57432,note_on,1,0,11,,,,,,,,3,,,50,64
57442,note_on,10,0,9,,,,,,,,3,,,74,0
57453,note_on,45,0,10,,,,,,,,3,,,60,0
57455,note_on,23,0,11,,,,,,,,3,,,50,0
57456,note_on,3,0,10,,,,,,,,3,,,67,85
57456,note_on,1,0,11,,,,,,,,3,,,52,64
57456,note_on,14,0,9,,,,,,,,3,,,72,85
57466,note_on,10,0,9,,,,,,,,3,,,72,0
57479,note_on,23,0,11,,,,,,,,3,,,52,0
57479,note_on,23,0,10,,,,,,,,3,,,67,0
57480,note_on,1,0,11,,,,,,,,3,,,50,64
57480,note_on,14,0,9,,,,,,,,3,,,74,85
57480,note_on,1,0,10,,,,,,,,3,,,65,85
57490,note_on,10,0,9,,,,,,,,3,,,74,0
57503,note_on,23,0,11,,,,,,,,3,,,50,0
57503,note_on,23,0,10,,,,,,,,3,,,65,0
57504,note_on,14,0,9,,,,,,,,3,,,76,85
57504,note_on,1,0,10,,,,,,,,3,,,64,85
57504,note_on,1,0,11,,,,,,,,3,,,48,64
57514,note_on,10,0,9,,,,,,,,3,,,76,0
57527,note_on,23,0,11,,,,,,,,3,,,48,0
57527,note_on,23,0,10,,,,,,,,3,,,64,0
57528,note_on,1,0,10,,,,,,,,3,,,62,85
57528,note_on,1,0,11,,,,,,,,3,,,50,64
57528,note_on,14,0,9,,,,,,,,3,,,77,85
57538,note_on,10,0,9,,,,,,,,3,,,77,0
57541,note_on,133,0,2,,,,,,,,0,,,76,0
57541,note_on,133,0,3,,,,,,,,1,,,72,0
57541,note_on,133,0,8,,,,,,,,3,,,79,0
57541,note_on,0,0,3,,,,,,,,1,,,76,0
57549,note_on,237,0,1,,,,,,,,0,,,79,0
57551,note_on,23,0,10,,,,,,,,3,,,62,0
57551,note_on,23,0,11,,,,,,,,3,,,50,0
57552,note_on,1,0,11,,,,,,,,3,,,52,64
57552,note_on,11,0,2,,,,,,,,0,,,72,64
57552,note_on,14,0,9,,,,,,,,3,,,79,85
57552,note_on,0,0,3,,,,,,,,1,,,72,64
57552,note_on,1,0,10,,,,,,,,3,,,60,85
57552,note_on,11,0,8,,,,,,,,3,,,84,85
57552,note_on,11,0,3,,,,,,,,1,,,76,64
57552,note_on,3,0,1,,,,,,,,0,,,76,64
57562,note_on,10,0,9,,,,,,,,3,,,79,0
57575,note_on,23,0,11,,,,,,,,3,,,52,0
57575,note_on,23,0,10,,,,,,,,3,,,60,0
57576,note_on,1,0,11,,,,,,,,3,,,48,64
57576,note_on,14,0,9,,,,,,,,3,,,76,85
57576,note_on,1,0,10,,,,,,,,3,,,64,85
57586,note_on,10,0,9,,,,,,,,3,,,76,0
57597,note_on,45,0,3,,,,,,,,1,,,72,0
57597,note_on,0,0,3,,,,,,,,1,,,76,0
57597,note_on,45,0,2,,,,,,,,0,,,72,0
57597,note_on,45,0,1,,,,,,,,0,,,76,0
57597,note_on,45,0,8,,,,,,,,3,,,84,0
57599,note_on,23,0,10,,,,,,,,3,,,64,0
57599,note_on,23,0,11,,,,,,,,3,,,48,0
57600,note_on,0,0,3,,,,,,,,1,,,67,64
57600,note_on,14,0,9,,,,,,,,3,,,74,85
57600,note_on,3,0,2,,,,,,,,0,,,71,64
57600,note_on,3,0,3,,,,,,,,1,,,74,64
57600,note_on,3,0,1,,,,,,,,0,,,74,64
57600,note_on,3,0,8,,,,,,,,3,,,83,85
57600,note_on,1,0,10,,,,,,,,3,,,67,85
57600,note_on,1,0,11,,,,,,,,3,,,43,64
57612,note_on,0,0,8,,,,,,,,3,,,81,85
57612,note_on,12,0,8,,,,,,,,3,,,83,0
57620,note_on,20,0,9,,,,,,,,3,,,74,0
57623,note_on,23,0,11,,,,,,,,3,,,43,0
57624,note_on,1,0,11,,,,,,,,3,,,45,64
57624,note_on,0,0,8,,,,,,,,3,,,79,85
57624,note_on,12,0,8,,,,,,,,3,,,81,0
57645,note_on,45,0,10,,,,,,,,3,,,67,0
57647,note_on,23,0,11,,,,,,,,3,,,45,0
57648,note_on,3,0,10,,,,,,,,3,,,55,85
57648,note_on,28,0,9,,,,,,,,3,,,67,85
57648,note_on,1,0,11,,,,,,,,3,,,47,64
57668,note_on,20,0,9,,,,,,,,3,,,67,0
57671,note_on,23,0,10,,,,,,,,3,,,55,0
57671,note_on,23,0,11,,,,,,,,3,,,47,0
57672,note_on,1,0,10,,,,,,,,3,,,57,85
57672,note_on,1,0,11,,,,,,,,3,,,45,64
57689,note_on,0,0,3,,,,,,,,1,,,74,0
57689,note_on,89,0,2,,,,,,,,0,,,71,0
57689,note_on,89,0,1,,,,,,,,0,,,74,0
57689,note_on,89,0,3,,,,,,,,1,,,67,0
57691,note_on,67,0,8,,,,,,,,3,,,79,0
57695,note_on,23,0,11,,,,,,,,3,,,45,0
57695,note_on,23,0,10,,,,,,,,3,,,57,0
57696,note_on,5,0,8,,,,,,,,3,,,79,85
57696,note_on,0,0,3,,,,,,,,1,,,67,64
57696,note_on,7,0,1,,,,,,,,0,,,79,64
57696,note_on,1,0,10,,,,,,,,3,,,59,85
57696,note_on,1,0,11,,,,,,,,3,,,43,64
57696,note_on,28,0,9,,,,,,,,3,,,77,85
57696,note_on,7,0,2,,,,,,,,0,,,77,64
57696,note_on,7,0,3,,,,,,,,1,,,74,64
57716,note_on,20,0,9,,,,,,,,3,,,77,0
57716,note_on,20,0,8,,,,,,,,3,,,79,0
57719,note_on,23,0,11,,,,,,,,3,,,43,0
57719,note_on,23,0,10,,,,,,,,3,,,59,0
57720,note_on,1,0,11,,,,,,,,3,,,45,64
57720,note_on,1,0,10,,,,,,,,3,,,60,85
57741,note_on,0,0,3,,,,,,,,1,,,74,0
57741,note_on,45,0,3,,,,,,,,1,,,67,0
57743,note_on,23,0,11,,,,,,,,3,,,45,0
57743,note_on,23,0,10,,,,,,,,3,,,60,0
57744,note_on,1,0,11,,,,,,,,3,,,47,64
57744,note_on,0,0,3,,,,,,,,1,,,67,64
57744,note_on,3,0,3,,,,,,,,1,,,74,64
57744,note_on,1,0,10,,,,,,,,3,,,62,85
57744,note_on,28,0,8,,,,,,,,3,,,79,85
57744,note_on,28,0,9,,,,,,,,3,,,77,85
57764,note_on,20,0,8,,,,,,,,3,,,79,0
57764,note_on,20,0,9,,,,,,,,3,,,77,0
57767,note_on,23,0,11,,,,,,,,3,,,47,0
57767,note_on,23,0,10,,,,,,,,3,,,62,0
57768,note_on,1,0,10,,,,,,,,3,,,59,85
57768,note_on,1,0,11,,,,,,,,3,,,43,64
57785,note_on,89,0,2,,,,,,,,0,,,77,0
57789,note_on,0,0,3,,,,,,,,1,,,74,0
57789,note_on,45,0,3,,,,,,,,1,,,67,0
57791,note_on,23,0,10,,,,,,,,3,,,59,0
57791,note_on,23,0,11,,,,,,,,3,,,43,0
57792,note_on,1,0,11,,,,,,,,3,,,48,64
57792,note_on,1,0,10,,,,,,,,3,,,60,85
57792,note_on,3,0,3,,,,,,,,1,,,76,64
57792,note_on,0,0,3,,,,,,,,1,,,72,64
57792,note_on,28,0,8,,,,,,,,3,,,79,85
57792,note_on,7,0,2,,,,,,,,0,,,76,64
57792,note_on,28,0,9,,,,,,,,3,,,76,85
57815,note_on,23,0,11,,,,,,,,3,,,48,0
57815,note_on,23,0,9,,,,,,,,3,,,76,0
57816,note_on,1,0,9,,,,,,,,3,,,74,85
57816,note_on,1,0,11,,,,,,,,3,,,50,64
57837,note_on,45,0,10,,,,,,,,3,,,60,0
57839,note_on,23,0,9,,,,,,,,3,,,74,0
57839,note_on,23,0,11,,,,,,,,3,,,50,0
57840,note_on,1,0,11,,,,,,,,3,,,52,64
57840,note_on,1,0,9,,,,,,,,3,,,72,85
57840,note_on,3,0,10,,,,,,,,3,,,67,85
57863,note_on,23,0,9,,,,,,,,3,,,72,0
57863,note_on,23,0,10,,,,,,,,3,,,67,0
57863,note_on,23,0,11,,,,,,,,3,,,52,0
57864,note_on,1,0,9,,,,,,,,3,,,74,85
57864,note_on,1,0,10,,,,,,,,3,,,65,85
57864,note_on,1,0,11,,,,,,,,3,,,50,64
57887,note_on,23,0,11,,,,,,,,3,,,50,0
57887,note_on,23,0,10,,,,,,,,3,,,65,0
57887,note_on,23,0,9,,,,,,,,3,,,74,0
57888,note_on,1,0,11,,,,,,,,3,,,48,64
57888,note_on,1,0,10,,,,,,,,3,,,64,85
57888,note_on,1,0,9,,,,,,,,3,,,76,85
57911,note_on,23,0,9,,,,,,,,3,,,76,0
57911,note_on,23,0,11,,,,,,,,3,,,48,0
57911,note_on,23,0,10,,,,,,,,3,,,64,0
57912,note_on,1,0,11,,,,,,,,3,,,50,64
57912,note_on,1,0,9,,,,,,,,3,,,77,85
57912,note_on,1,0,10,,,,,,,,3,,,62,85
57925,note_on,133,0,8,,,,,,,,3,,,79,0
57925,note_on,133,0,2,,,,,,,,0,,,76,0
57925,note_on,133,0,3,,,,,,,,1,,,72,0
57925,note_on,0,0,3,,,,,,,,1,,,76,0
57933,note_on,237,0,1,,,,,,,,0,,,79,0
57935,note_on,23,0,11,,,,,,,,3,,,50,0
57935,note_on,23,0,9,,,,,,,,3,,,77,0
57935,note_on,23,0,10,,,,,,,,3,,,62,0
57936,note_on,0,0,3,,,,,,,,1,,,72,64
57936,note_on,1,0,11,,,,,,,,3,,,52,64
57936,note_on,11,0,3,,,,,,,,1,,,76,64
57936,note_on,3,0,1,,,,,,,,0,,,76,64
57936,note_on,11,0,8,,,,,,,,3,,,84,85
57936,note_on,1,0,10,,,,,,,,3,,,60,85
57936,note_on,1,0,9,,,,,,,,3,,,79,85
57936,note_on,11,0,2,,,,,,,,0,,,72,64
57959,note_on,23,0,10,,,,,,,,3,,,60,0
57959,note_on,23,0,11,,,,,,,,3,,,52,0
57959,note_on,23,0,9,,,,,,,,3,,,79,0
57960,note_on,1,0,10,,,,,,,,3,,,64,85
57960,note_on,1,0,11,,,,,,,,3,,,48,64
57960,note_on,1,0,9,,,,,,,,3,,,76,85
57981,note_on,45,0,3,,,,,,,,1,,,72,0
57981,note_on,45,0,2,,,,,,,,0,,,72,0
57981,note_on,45,0,8,,,,,,,,3,,,84,0
57981,note_on,0,0,3,,,,,,,,1,,,76,0
57983,note_on,23,0,10,,,,,,,,3,,,64,0
57983,note_on,23,0,9,,,,,,,,3,,,76,0
57983,note_on,23,0,11,,,,,,,,3,,,48,0
57984,note_on,1,0,10,,,,,,,,3,,,67,85
57984,note_on,3,0,8,,,,,,,,3,,,83,85
57984,note_on,0,0,3,,,,,,,,1,,,67,64
57984,note_on,1,0,9,,,,,,,,3,,,74,85
57984,note_on,3,0,2,,,,,,,,0,,,71,64
57984,note_on,0,0,1,,,,,,,,0,,,74,64
57984,note_on,48,0,1,,,,,,,,0,,,76,0
57984,note_on,1,0,11,,,,,,,,3,,,43,64
57984,note_on,3,0,3,,,,,,,,1,,,74,64
57996,note_on,0,0,9,,,,,,,,3,,,72,85
57996,note_on,12,0,9,,,,,,,,3,,,74,0
57996,note_on,12,0,8,,,,,,,,3,,,83,0
57996,note_on,0,0,8,,,,,,,,3,,,81,85
58008,note_on,12,0,8,,,,,,,,3,,,81,0
58008,note_on,0,0,9,,,,,,,,3,,,71,85
58008,note_on,0,0,8,,,,,,,,3,,,79,85
58008,note_on,12,0,9,,,,,,,,3,,,72,0
58073,note_on,89,0,10,,,,,,,,3,,,67,0
58073,note_on,0,0,3,,,,,,,,1,,,74,0
58073,note_on,89,0,3,,,,,,,,1,,,67,0
58073,note_on,89,0,2,,,,,,,,0,,,71,0
58073,note_on,89,0,11,,,,,,,,3,,,43,0
58073,note_on,89,0,1,,,,,,,,0,,,74,0
58075,note_on,67,0,9,,,,,,,,3,,,71,0
58075,note_on,67,0,8,,,,,,,,3,,,79,0
58176,note_on,101,0,8,,,,,,,,3,,,83,85
58176,note_on,101,0,9,,,,,,,,3,,,74,85
58176,note_on,103,0,2,,,,,,,,0,,,71,64
58176,note_on,103,0,3,,,,,,,,1,,,74,64
58176,note_on,0,0,3,,,,,,,,1,,,67,64
58176,note_on,103,0,1,,,,,,,,0,,,74,64
58176,note_on,103,0,11,,,,,,,,3,,,43,64
58176,note_on,103,0,10,,,,,,,,3,,,67,85
58188,note_on,0,0,9,,,,,,,,3,,,72,85
58188,note_on,12,0,9,,,,,,,,3,,,74,0
58188,note_on,0,0,8,,,,,,,,3,,,81,85
58188,note_on,12,0,8,,,,,,,,3,,,83,0
58200,note_on,0,0,8,,,,,,,,3,,,79,85
58200,note_on,0,0,9,,,,,,,,3,,,71,85
58200,note_on,12,0,9,,,,,,,,3,,,72,0
58200,note_on,12,0,8,,,,,,,,3,,,81,0
58265,note_on,0,0,3,,,,,,,,1,,,74,0
58265,note_on,89,0,11,,,,,,,,3,,,43,0
58265,note_on,89,0,1,,,,,,,,0,,,74,0
58265,note_on,89,0,2,,,,,,,,0,,,71,0
58265,note_on,89,0,3,,,,,,,,1,,,67,0
58265,note_on,89,0,10,,,,,,,,3,,,67,0
58267,note_on,67,0,8,,,,,,,,3,,,79,0
58267,note_on,67,0,9,,,,,,,,3,,,71,0
58368,note_on,101,0,8,,,,,,,,3,,,64,43
58368,note_on,1063,0,5,,,,,,,,2,,,64,85
58368,note_on,103,0,10,,,,,,,,3,,,60,43
58368,note_on,101,0,9,,,,,,,,3,,,55,43
58368,note_on,1063,0,6,,,,,,,,2,,,48,64
58413,note_on,45,0,6,,,,,,,,2,,,48,0
58416,note_on,3,0,6,,,,,,,,2,,,55,64
58457,note_on,89,0,10,,,,,,,,3,,,60,0
58457,note_on,89,0,9,,,,,,,,3,,,55,0
58457,note_on,89,0,8,,,,,,,,3,,,64,0
58461,note_on,45,0,6,,,,,,,,2,,,55,0
58464,note_on,3,0,6,,,,,,,,2,,,52,64
58501,note_on,133,0,5,,,,,,,,2,,,64,0
58509,note_on,45,0,6,,,,,,,,2,,,52,0
58512,note_on,3,0,6,,,,,,,,2,,,55,64
58512,note_on,11,0,5,,,,,,,,2,,,65,64
58557,note_on,45,0,5,,,,,,,,2,,,65,0
58557,note_on,45,0,6,,,,,,,,2,,,55,0
58560,note_on,3,0,6,,,,,,,,2,,,47,64
58560,note_on,103,0,10,,,,,,,,3,,,59,43
58560,note_on,3,0,5,,,,,,,,2,,,66,64
58560,note_on,103,0,9,,,,,,,,3,,,62,43
58560,note_on,103,0,8,,,,,,,,3,,,67,43
58605,note_on,45,0,5,,,,,,,,2,,,66,0
58605,note_on,45,0,6,,,,,,,,2,,,47,0
58608,note_on,3,0,6,,,,,,,,2,,,55,64
58608,note_on,3,0,5,,,,,,,,2,,,67,64
58649,note_on,89,0,9,,,,,,,,3,,,62,0
58649,note_on,89,0,8,,,,,,,,3,,,67,0
58649,note_on,89,0,10,,,,,,,,3,,,59,0
58653,note_on,45,0,5,,,,,,,,2,,,67,0
58653,note_on,45,0,6,,,,,,,,2,,,55,0
58656,note_on,3,0,5,,,,,,,,2,,,69,64
58656,note_on,3,0,6,,,,,,,,2,,,50,64
58701,note_on,45,0,6,,,,,,,,2,,,50,0
58701,note_on,45,0,5,,,,,,,,2,,,69,0
58704,note_on,3,0,6,,,,,,,,2,,,55,64
58704,note_on,3,0,5,,,,,,,,2,,,71,64
58749,note_on,45,0,6,,,,,,,,2,,,55,0
58749,note_on,45,0,5,,,,,,,,2,,,71,0
58752,note_on,3,0,5,,,,,,,,2,,,71,64
58752,note_on,103,0,8,,,,,,,,3,,,72,43
58752,note_on,3,0,6,,,,,,,,2,,,45,64
58752,note_on,103,0,9,,,,,,,,3,,,64,43
58752,note_on,103,0,10,,,,,,,,3,,,57,43
58797,note_on,45,0,5,,,,,,,,2,,,71,0
58797,note_on,45,0,6,,,,,,,,2,,,45,0
58800,note_on,3,0,5,,,,,,,,2,,,72,64
58800,note_on,3,0,6,,,,,,,,2,,,52,64
58841,note_on,89,0,10,,,,,,,,3,,,57,0
58841,note_on,89,0,9,,,,,,,,3,,,64,0
58841,note_on,89,0,8,,,,,,,,3,,,72,0
58845,note_on,45,0,6,,,,,,,,2,,,52,0
58845,note_on,45,0,5,,,,,,,,2,,,72,0
58848,note_on,3,0,5,,,,,,,,2,,,72,64
58848,note_on,3,0,6,,,,,,,,2,,,48,64
58893,note_on,45,0,6,,,,,,,,2,,,48,0
58896,note_on,3,0,6,,,,,,,,2,,,52,64
58941,note_on,45,0,6,,,,,,,,2,,,52,0
58944,note_on,103,0,10,,,,,,,,3,,,65,43
58944,note_on,103,0,8,,,,,,,,3,,,69,43
58944,note_on,103,0,9,,,,,,,,3,,,60,43
58944,note_on,3,0,6,,,,,,,,2,,,41,64
58989,note_on,45,0,6,,,,,,,,2,,,41,0
58992,note_on,3,0,6,,,,,,,,2,,,48,64
59025,note_on,177,0,5,,,,,,,,2,,,72,0
59033,note_on,89,0,8,,,,,,,,3,,,69,0
59033,note_on,89,0,9,,,,,,,,3,,,60,0
59033,note_on,89,0,10,,,,,,,,3,,,65,0
59037,note_on,45,0,6,,,,,,,,2,,,48,0
59040,note_on,3,0,6,,,,,,,,2,,,45,64
59040,note_on,15,0,5,,,,,,,,2,,,74,64
59046,note_on,0,0,5,,,,,,,,2,,,72,64
59046,note_on,6,0,5,,,,,,,,2,,,74,0
59085,note_on,39,0,5,,,,,,,,2,,,72,0
59085,note_on,45,0,6,,,,,,,,2,,,45,0
59088,note_on,3,0,5,,,,,,,,2,,,71,64
59088,note_on,3,0,6,,,,,,,,2,,,48,64
59111,note_on,23,0,5,,,,,,,,2,,,71,0
59112,note_on,1,0,5,,,,,,,,2,,,69,64
59133,note_on,45,0,6,,,,,,,,2,,,48,0
59135,note_on,23,0,5,,,,,,,,2,,,69,0
59136,note_on,103,0,8,,,,,,,,3,,,60,43
59136,note_on,103,0,10,,,,,,,,3,,,52,43
59136,note_on,1,0,5,,,,,,,,2,,,69,64
59136,note_on,871,0,11,,,,,,,,3,,,31,43
59136,note_on,103,0,9,,,,,,,,3,,,55,43
59136,note_on,3,0,6,,,,,,,,2,,,43,64
59142,note_on,0,0,5,,,,,,,,2,,,67,64
59142,note_on,6,0,5,,,,,,,,2,,,69,0
59181,note_on,39,0,5,,,,,,,,2,,,67,0
59181,note_on,45,0,6,,,,,,,,2,,,43,0
59184,note_on,3,0,6,,,,,,,,2,,,52,64
59184,note_on,3,0,5,,,,,,,,2,,,66,64
59207,note_on,23,0,5,,,,,,,,2,,,66,0
59208,note_on,1,0,5,,,,,,,,2,,,67,64
59229,note_on,45,0,6,,,,,,,,2,,,52,0
59231,note_on,23,0,5,,,,,,,,2,,,67,0
59232,note_on,3,0,6,,,,,,,,2,,,48,64
59232,note_on,1,0,5,,,,,,,,2,,,66,64
59255,note_on,23,0,5,,,,,,,,2,,,66,0
59256,note_on,1,0,5,,,,,,,,2,,,67,64
59277,note_on,45,0,6,,,,,,,,2,,,48,0
59279,note_on,23,0,5,,,,,,,,2,,,67,0
59280,note_on,3,0,6,,,,,,,,2,,,52,64
59280,note_on,1,0,5,,,,,,,,2,,,69,64
59303,note_on,23,0,5,,,,,,,,2,,,69,0
59304,note_on,1,0,5,,,,,,,,2,,,67,64
59313,note_on,177,0,10,,,,,,,,3,,,52,0
59313,note_on,177,0,9,,,,,,,,3,,,55,0
59313,note_on,177,0,8,,,,,,,,3,,,60,0
59325,note_on,45,0,6,,,,,,,,2,,,52,0
59327,note_on,23,0,5,,,,,,,,2,,,67,0
59328,note_on,3,0,6,,,,,,,,2,,,43,64
59328,note_on,1,0,5,,,,,,,,2,,,67,64
59328,note_on,15,0,9,,,,,,,,3,,,59,43
59328,note_on,15,0,10,,,,,,,,3,,,50,43
59328,note_on,15,0,8,,,,,,,,3,,,65,43
59334,note_on,0,0,5,,,,,,,,2,,,65,64
59334,note_on,6,0,5,,,,,,,,2,,,67,0
59373,note_on,39,0,5,,,,,,,,2,,,65,0
59373,note_on,45,0,6,,,,,,,,2,,,43,0
59376,note_on,3,0,5,,,,,,,,2,,,64,64
59376,note_on,3,0,6,,,,,,,,2,,,50,64
59399,note_on,23,0,5,,,,,,,,2,,,64,0
59400,note_on,1,0,5,,,,,,,,2,,,65,64
59421,note_on,45,0,6,,,,,,,,2,,,50,0
59423,note_on,23,0,5,,,,,,,,2,,,65,0
59424,note_on,1,0,5,,,,,,,,2,,,64,64
59424,note_on,3,0,6,,,,,,,,2,,,47,64
59447,note_on,23,0,5,,,,,,,,2,,,64,0
59448,note_on,1,0,5,,,,,,,,2,,,65,64
59469,note_on,45,0,6,,,,,,,,2,,,47,0
59471,note_on,23,0,5,,,,,,,,2,,,65,0
59472,note_on,3,0,6,,,,,,,,2,,,50,64
59472,note_on,1,0,5,,,,,,,,2,,,67,64
59490,note_on,354,0,11,,,,,,,,3,,,31,0
59495,note_on,23,0,5,,,,,,,,2,,,67,0
59496,note_on,1,0,5,,,,,,,,2,,,65,64
59505,note_on,177,0,8,,,,,,,,3,,,65,0
59505,note_on,177,0,10,,,,,,,,3,,,50,0
59505,note_on,177,0,9,,,,,,,,3,,,59,0
59517,note_on,45,0,6,,,,,,,,2,,,50,0
59519,note_on,23,0,5,,,,,,,,2,,,65,0
59520,note_on,15,0,10,,,,,,,,3,,,48,43
59520,note_on,15,0,9,,,,,,,,3,,,60,43
59520,note_on,30,0,11,,,,,,,,3,,,36,43
59520,note_on,3,0,6,,,,,,,,2,,,48,64
59520,note_on,15,0,8,,,,,,,,3,,,64,43
59520,note_on,1,0,5,,,,,,,,2,,,65,64
59543,note_on,23,0,5,,,,,,,,2,,,65,0
59544,note_on,1,0,5,,,,,,,,2,,,64,64
59567,note_on,23,0,5,,,,,,,,2,,,64,0
59568,note_on,1,0,5,,,,,,,,2,,,69,64
59591,note_on,23,0,5,,,,,,,,2,,,69,0
59592,note_on,1,0,5,,,,,,,,2,,,67,64
59609,note_on,89,0,11,,,,,,,,3,,,36,0
59609,note_on,89,0,9,,,,,,,,3,,,60,0
59609,note_on,89,0,8,,,,,,,,3,,,64,0
59609,note_on,89,0,6,,,,,,,,2,,,48,0
59609,note_on,89,0,10,,,,,,,,3,,,48,0
59615,note_on,23,0,5,,,,,,,,2,,,67,0
59616,note_on,1,0,5,,,,,,,,2,,,67,64
59664,note_on,55,0,11,,,,,,,,3,,,43,43
59664,note_on,55,0,8,,,,,,,,3,,,67,43
59664,note_on,55,0,10,,,,,,,,3,,,67,43
59664,note_on,55,0,9,,,,,,,,3,,,67,43
59684,note_on,20,0,11,,,,,,,,3,,,43,0
59684,note_on,20,0,9,,,,,,,,3,,,67,0
59684,note_on,20,0,10,,,,,,,,3,,,67,0
59684,note_on,20,0,8,,,,,,,,3,,,67,0
59705,note_on,89,0,5,,,,,,,,2,,,67,0
59712,note_on,28,0,11,,,,,,,,3,,,41,85
59712,note_on,28,0,10,,,,,,,,3,,,65,85
59712,note_on,28,0,9,,,,,,,,3,,,65,85
59712,note_on,28,0,8,,,,,,,,3,,,65,85
59732,note_on,20,0,11,,,,,,,,3,,,41,0
59732,note_on,20,0,10,,,,,,,,3,,,65,0
59732,note_on,20,0,9,,,,,,,,3,,,65,0
59732,note_on,20,0,8,,,,,,,,3,,,65,0
59760,note_on,28,0,9,,,,,,,,3,,,62,85
59760,note_on,28,0,10,,,,,,,,3,,,62,85
59760,note_on,28,0,11,,,,,,,,3,,,38,85
59760,note_on,28,0,8,,,,,,,,3,,,62,85
59780,note_on,20,0,8,,,,,,,,3,,,62,0
59780,note_on,20,0,10,,,,,,,,3,,,62,0
59780,note_on,20,0,11,,,,,,,,3,,,38,0
59780,note_on,20,0,9,,,,,,,,3,,,62,0
59808,note_on,28,0,8,,,,,,,,3,,,59,85
59808,note_on,28,0,9,,,,,,,,3,,,59,85
59808,note_on,28,0,10,,,,,,,,3,,,59,85
59808,note_on,28,0,11,,,,,,,,3,,,35,85
59828,note_on,20,0,10,,,,,,,,3,,,59,0
59828,note_on,20,0,8,,,,,,,,3,,,59,0
59828,note_on,20,0,11,,,,,,,,3,,,35,0
59828,note_on,20,0,9,,,,,,,,3,,,59,0
59856,note_on,28,0,11,,,,,,,,3,,,31,85
59856,note_on,28,0,8,,,,,,,,3,,,55,85
59856,note_on,28,0,9,,,,,,,,3,,,55,85
59856,note_on,28,0,10,,,,,,,,3,,,55,85
59876,note_on,20,0,10,,,,,,,,3,,,55,0
59876,note_on,20,0,9,,,,,,,,3,,,55,0
59876,note_on,20,0,8,,,,,,,,3,,,55,0
59876,note_on,20,0,11,,,,,,,,3,,,31,0
59904,note_on,28,0,11,,,,,,,,3,,,36,43
59904,note_on,295,0,6,,,,,,,,2,,,60,64
59904,note_on,28,0,9,,,,,,,,3,,,67,43
59904,note_on,28,0,10,,,,,,,,3,,,60,43
59904,note_on,199,0,5,,,,,,,,2,,,76,64
59904,note_on,28,0,8,,,,,,,,3,,,76,43
59949,note_on,45,0,6,,,,,,,,2,,,60,0
59952,note_on,3,0,6,,,,,,,,2,,,67,64
59993,note_on,89,0,11,,,,,,,,3,,,36,0
59993,note_on,89,0,10,,,,,,,,3,,,60,0
59993,note_on,89,0,9,,,,,,,,3,,,67,0
59993,note_on,89,0,8,,,,,,,,3,,,76,0
59997,note_on,45,0,6,,,,,,,,2,,,67,0
60000,note_on,3,0,6,,,,,,,,2,,,64,64
60037,note_on,133,0,5,,,,,,,,2,,,76,0
60045,note_on,45,0,6,,,,,,,,2,,,64,0
60048,note_on,11,0,5,,,,,,,,2,,,79,70
60048,note_on,3,0,6,,,,,,,,2,,,67,64
60060,note_on,12,0,5,,,,,,,,2,,,79,0
60060,note_on,0,0,5,,,,,,,,2,,,77,70
60072,note_on,12,0,5,,,,,,,,2,,,77,0
60072,note_on,0,0,5,,,,,,,,2,,,76,70
60084,note_on,0,0,5,,,,,,,,2,,,77,70
60084,note_on,12,0,5,,,,,,,,2,,,76,0
60093,note_on,45,0,6,,,,,,,,2,,,67,0
60096,note_on,103,0,9,,,,,,,,3,,,67,43
60096,note_on,0,0,5,,,,,,,,2,,,78,72
60096,note_on,3,0,6,,,,,,,,2,,,59,64
60096,note_on,12,0,5,,,,,,,,2,,,77,0
60096,note_on,103,0,10,,,,,,,,3,,,59,43
60096,note_on,103,0,8,,,,,,,,3,,,74,43
60141,note_on,45,0,5,,,,,,,,2,,,78,0
60141,note_on,45,0,6,,,,,,,,2,,,59,0
60144,note_on,3,0,5,,,,,,,,2,,,79,75
60144,note_on,3,0,6,,,,,,,,2,,,67,64
60185,note_on,89,0,8,,,,,,,,3,,,74,0
60185,note_on,89,0,10,,,,,,,,3,,,59,0
60185,note_on,89,0,9,,,,,,,,3,,,67,0
60189,note_on,45,0,6,,,,,,,,2,,,67,0
60189,note_on,45,0,5,,,,,,,,2,,,79,0
60192,note_on,3,0,5,,,,,,,,2,,,81,77
60192,note_on,3,0,6,,,,,,,,2,,,62,64
60237,note_on,45,0,5,,,,,,,,2,,,81,0
60237,note_on,45,0,6,,,,,,,,2,,,62,0
60240,note_on,3,0,5,,,,,,,,2,,,83,79
60240,note_on,3,0,6,,,,,,,,2,,,67,64
60285,note_on,45,0,5,,,,,,,,2,,,83,0
60285,note_on,45,0,6,,,,,,,,2,,,67,0
60288,note_on,103,0,9,,,,,,,,3,,,64,43
60288,note_on,3,0,5,,,,,,,,2,,,83,81
60288,note_on,103,0,10,,,,,,,,3,,,57,43
60288,note_on,103,0,8,,,,,,,,3,,,72,43
60288,note_on,3,0,6,,,,,,,,2,,,57,64
60333,note_on,45,0,5,,,,,,,,2,,,83,0
60333,note_on,45,0,6,,,,,,,,2,,,57,0
60336,note_on,3,0,5,,,,,,,,2,,,86,83
60336,note_on,3,0,6,,,,,,,,2,,,64,69
60359,note_on,23,0,5,,,,,,,,2,,,86,0
60360,note_on,1,0,5,,,,,,,,2,,,84,85
60377,note_on,89,0,10,,,,,,,,3,,,57,0
60377,note_on,89,0,9,,,,,,,,3,,,64,0
60377,note_on,89,0,8,,,,,,,,3,,,72,0
60381,note_on,45,0,6,,,,,,,,2,,,64,0
60383,note_on,23,0,5,,,,,,,,2,,,84,0
60384,note_on,1,0,5,,,,,,,,2,,,84,106
60384,note_on,3,0,6,,,,,,,,2,,,60,74
60429,note_on,45,0,6,,,,,,,,2,,,60,0
60432,note_on,2167,0,1,,,,,,,,0,,,79,64
60432,note_on,3,0,6,,,,,,,,2,,,64,79
60452,note_on,20,0,1,,,,,,,,0,,,79,0
60477,note_on,45,0,6,,,,,,,,2,,,64,0
60480,note_on,103,0,8,,,,,,,,3,,,81,43
60480,note_on,103,0,10,,,,,,,,3,,,53,43
60480,note_on,103,0,9,,,,,,,,3,,,72,43
60480,note_on,28,0,1,,,,,,,,0,,,77,64
60480,note_on,3,0,6,,,,,,,,2,,,53,85
60500,note_on,20,0,1,,,,,,,,0,,,77,0
60517,note_on,133,0,5,,,,,,,,2,,,84,0
60525,note_on,45,0,6,,,,,,,,2,,,53,0
60528,note_on,3,0,6,,,,,,,,2,,,60,85
60528,note_on,11,0,5,,,,,,,,2,,,83,106
60528,note_on,28,0,1,,,,,,,,0,,,74,64
60548,note_on,20,0,1,,,,,,,,0,,,74,0
60551,note_on,23,0,5,,,,,,,,2,,,83,0
60552,note_on,1,0,5,,,,,,,,2,,,84,105
60569,note_on,89,0,10,,,,,,,,3,,,53,0
60569,note_on,89,0,8,,,,,,,,3,,,81,0
60569,note_on,89,0,9,,,,,,,,3,,,72,0
60573,note_on,45,0,6,,,,,,,,2,,,60,0
60575,note_on,23,0,5,,,,,,,,2,,,84,0
60576,note_on,28,0,1,,,,,,,,0,,,71,64
60576,note_on,3,0,6,,,,,,,,2,,,57,85
60576,note_on,1,0,5,,,,,,,,2,,,86,104
60582,note_on,0,0,5,,,,,,,,2,,,84,104
60582,note_on,6,0,5,,,,,,,,2,,,86,0
60596,note_on,20,0,1,,,,,,,,0,,,71,0
60621,note_on,39,0,5,,,,,,,,2,,,84,0
60621,note_on,45,0,6,,,,,,,,2,,,57,0
60624,note_on,28,0,1,,,,,,,,0,,,67,64
60624,note_on,3,0,6,,,,,,,,2,,,60,85
60624,note_on,3,0,5,,,,,,,,2,,,83,102
60644,note_on,20,0,1,,,,,,,,0,,,67,0
60647,note_on,23,0,5,,,,,,,,2,,,83,0
60648,note_on,1,0,5,,,,,,,,2,,,81,101
60669,note_on,45,0,6,,,,,,,,2,,,60,0
60671,note_on,23,0,5,,,,,,,,2,,,81,0
60672,note_on,103,0,9,,,,,,,,3,,,76,43
60672,note_on,1,0,5,,,,,,,,2,,,79,100
60672,note_on,679,0,11,,,,,,,,3,,,43,43
60672,note_on,103,0,8,,,,,,,,3,,,79,43
60672,note_on,103,0,10,,,,,,,,3,,,55,43
60672,note_on,28,0,1,,,,,,,,0,,,72,64
60672,note_on,29967,0,7,,,,,,,,2,,,55,85
60672,note_on,3,0,6,,,,,,,,2,,,64,85
60695,note_on,23,0,5,,,,,,,,2,,,79,0
60696,note_on,1,0,5,,,,,,,,2,,,77,99
60719,note_on,23,0,5,,,,,,,,2,,,77,0
60720,note_on,1,0,5,,,,,,,,2,,,76,99
60743,note_on,23,0,5,,,,,,,,2,,,76,0
60744,note_on,1,0,5,,,,,,,,2,,,77,98
60761,note_on,89,0,8,,,,,,,,3,,,79,0
60761,note_on,89,0,6,,,,,,,,2,,,64,0
60761,note_on,89,0,9,,,,,,,,3,,,76,0
60761,note_on,89,0,1,,,,,,,,0,,,72,0
60767,note_on,23,0,5,,,,,,,,2,,,77,0
60768,note_on,1,0,5,,,,,,,,2,,,79,97
60768,note_on,7,0,8,,,,,,,,3,,,76,43
60768,note_on,7,0,6,,,,,,,,2,,,60,85
60768,note_on,7,0,9,,,,,,,,3,,,72,43
60791,note_on,23,0,5,,,,,,,,2,,,79,0
60792,note_on,1,0,5,,,,,,,,2,,,81,96
60815,note_on,23,0,5,,,,,,,,2,,,81,0
60816,note_on,1,0,5,,,,,,,,2,,,83,95
60839,note_on,23,0,5,,,,,,,,2,,,83,0
60840,note_on,1,0,5,,,,,,,,2,,,84,94
60857,note_on,89,0,9,,,,,,,,3,,,72,0
60857,note_on,89,0,6,,,,,,,,2,,,60,0
60857,note_on,89,0,8,,,,,,,,3,,,76,0
60863,note_on,23,0,5,,,,,,,,2,,,84,0
60864,note_on,7,0,9,,,,,,,,3,,,74,43
60864,note_on,1,0,5,,,,,,,,2,,,83,93
60864,note_on,7,0,6,,,,,,,,2,,,62,85
60864,note_on,7,0,8,,,,,,,,3,,,77,43
60887,note_on,23,0,5,,,,,,,,2,,,83,0
60888,note_on,1,0,5,,,,,,,,2,,,84,92
60911,note_on,23,0,5,,,,,,,,2,,,84,0
60912,note_on,1,0,5,,,,,,,,2,,,86,92
60935,note_on,23,0,5,,,,,,,,2,,,86,0
60936,note_on,1,0,5,,,,,,,,2,,,83,91
60953,note_on,89,0,6,,,,,,,,2,,,62,0
60953,note_on,89,0,9,,,,,,,,3,,,74,0
60953,note_on,89,0,8,,,,,,,,3,,,77,0
60959,note_on,23,0,5,,,,,,,,2,,,83,0
60960,note_on,1,0,5,,,,,,,,2,,,74,90
60960,note_on,7,0,8,,,,,,,,3,,,74,43
60960,note_on,7,0,6,,,,,,,,2,,,59,85
60960,note_on,7,0,9,,,,,,,,3,,,71,43
60983,note_on,23,0,5,,,,,,,,2,,,74,0
60984,note_on,1,0,5,,,,,,,,2,,,76,89
61007,note_on,23,0,5,,,,,,,,2,,,76,0
61008,note_on,1,0,5,,,,,,,,2,,,77,88
61026,note_on,354,0,10,,,,,,,,3,,,55,0
61026,note_on,354,0,11,,,,,,,,3,,,43,0
61026,note_on,354,0,7,,,,,,,,2,,,55,0
61031,note_on,23,0,5,,,,,,,,2,,,77,0
61032,note_on,1,0,5,,,,,,,,2,,,74,87
61049,note_on,89,0,8,,,,,,,,3,,,74,0
61049,note_on,89,0,6,,,,,,,,2,,,59,0
61049,note_on,89,0,9,,,,,,,,3,,,71,0
61055,note_on,23,0,5,,,,,,,,2,,,74,0
61056,note_on,1,0,5,,,,,,,,2,,,76,86
61056,note_on,30,0,10,,,,,,,,3,,,60,43
61056,note_on,30,0,11,,,,,,,,3,,,36,43
61056,note_on,7,0,8,,,,,,,,3,,,76,43
61056,note_on,7,0,9,,,,,,,,3,,,72,43
61056,note_on,7,0,6,,,,,,,,2,,,60,64
61079,note_on,23,0,6,,,,,,,,2,,,60,0
61080,note_on,1,0,6,,,,,,,,2,,,72,64
61101,note_on,45,0,5,,,,,,,,2,,,76,0
61101,note_on,45,0,8,,,,,,,,3,,,76,0
61103,note_on,23,0,6,,,,,,,,2,,,72,0
61104,note_on,1,0,6,,,,,,,,2,,,71,64
61127,note_on,23,0,6,,,,,,,,2,,,71,0
61128,note_on,1,0,6,,,,,,,,2,,,72,64
61145,note_on,89,0,11,,,,,,,,3,,,36,0
61145,note_on,89,0,10,,,,,,,,3,,,60,0
61151,note_on,23,0,6,,,,,,,,2,,,72,0
61152,note_on,51,0,5,,,,,,,,2,,,79,85
61152,note_on,7,0,10,,,,,,,,3,,,64,43
61152,note_on,51,0,8,,,,,,,,3,,,83,43
61152,note_on,1,0,6,,,,,,,,2,,,64,64
61158,note_on,0,0,8,,,,,,,,3,,,84,43
61158,note_on,6,0,8,,,,,,,,3,,,83,0
61175,note_on,23,0,6,,,,,,,,2,,,64,0
61176,note_on,1,0,6,,,,,,,,2,,,72,64
61197,note_on,45,0,5,,,,,,,,2,,,79,0
61197,note_on,39,0,8,,,,,,,,3,,,84,0
61199,note_on,23,0,6,,,,,,,,2,,,72,0
61200,note_on,1,0,6,,,,,,,,2,,,71,64
61223,note_on,23,0,6,,,,,,,,2,,,71,0
61224,note_on,1,0,6,,,,,,,,2,,,72,64
61241,note_on,89,0,10,,,,,,,,3,,,64,0
61247,note_on,23,0,6,,,,,,,,2,,,72,0
61248,note_on,7,0,10,,,,,,,,3,,,60,43
61248,note_on,51,0,8,,,,,,,,3,,,83,43
61248,note_on,1,0,6,,,,,,,,2,,,60,64
61254,note_on,0,0,8,,,,,,,,3,,,84,43
61254,note_on,6,0,8,,,,,,,,3,,,83,0
61271,note_on,23,0,6,,,,,,,,2,,,60,0
61272,note_on,1,0,6,,,,,,,,2,,,72,64
61293,note_on,39,0,8,,,,,,,,3,,,84,0
61295,note_on,23,0,6,,,,,,,,2,,,72,0
61296,note_on,1,0,6,,,,,,,,2,,,71,64
61296,note_on,99,0,5,,,,,,,,2,,,86,85
61302,note_on,0,0,5,,,,,,,,2,,,84,85
61302,note_on,6,0,5,,,,,,,,2,,,86,0
61319,note_on,23,0,6,,,,,,,,2,,,71,0
61319,note_on,17,0,5,,,,,,,,2,,,84,0
61320,note_on,1,0,5,,,,,,,,2,,,83,85
61320,note_on,1,0,6,,,,,,,,2,,,72,64
61337,note_on,89,0,10,,,,,,,,3,,,60,0
61343,note_on,23,0,5,,,,,,,,2,,,83,0
61343,note_on,23,0,6,,,,,,,,2,,,72,0
61344,note_on,1,0,6,,,,,,,,2,,,64,64
61344,note_on,51,0,8,,,,,,,,3,,,83,43
61344,note_on,1,0,5,,,,,,,,2,,,84,85
61344,note_on,7,0,10,,,,,,,,3,,,64,43
61350,note_on,6,0,8,,,,,,,,3,,,83,0
61350,note_on,0,0,8,,,,,,,,3,,,84,43
61367,note_on,23,0,6,,,,,,,,2,,,64,0
61368,note_on,1,0,6,,,,,,,,2,,,72,64
61389,note_on,39,0,8,,,,,,,,3,,,84,0
61389,note_on,45,0,5,,,,,,,,2,,,84,0
61391,note_on,23,0,6,,,,,,,,2,,,72,0
61392,note_on,1,0,6,,,,,,,,2,,,71,64
61392,note_on,3,0,5,,,,,,,,2,,,82,85
61412,note_on,20,0,5,,,,,,,,2,,,82,0
61415,note_on,23,0,6,,,,,,,,2,,,71,0
61416,note_on,1,0,6,,,,,,,,2,,,72,64
61433,note_on,89,0,10,,,,,,,,3,,,64,0
61439,note_on,23,0,6,,,,,,,,2,,,72,0
61440,note_on,1,0,6,,,,,,,,2,,,60,64
61440,note_on,28,0,5,,,,,,,,2,,,80,85
61440,note_on,7,0,10,,,,,,,,3,,,60,43
61463,note_on,23,0,5,,,,,,,,2,,,80,0
61463,note_on,23,0,6,,,,,,,,2,,,60,0
61464,note_on,1,0,5,,,,,,,,2,,,81,85
61464,note_on,1,0,6,,,,,,,,2,,,72,64
61487,note_on,23,0,6,,,,,,,,2,,,72,0
61488,note_on,1,0,6,,,,,,,,2,,,71,64
61511,note_on,23,0,6,,,,,,,,2,,,71,0
61512,note_on,1,0,6,,,,,,,,2,,,72,64
61529,note_on,89,0,10,,,,,,,,3,,,60,0
61531,note_on,67,0,5,,,,,,,,2,,,81,0
61535,note_on,23,0,6,,,,,,,,2,,,72,0
61536,note_on,1,0,6,,,,,,,,2,,,65,64
61536,note_on,147,0,8,,,,,,,,3,,,83,43
61536,note_on,7,0,10,,,,,,,,3,,,65,43
61536,note_on,5,0,5,,,,,,,,2,,,81,85
61542,note_on,6,0,8,,,,,,,,3,,,83,0
61542,note_on,0,0,8,,,,,,,,3,,,84,43
61559,note_on,23,0,6,,,,,,,,2,,,65,0
61560,note_on,1,0,6,,,,,,,,2,,,72,64
61581,note_on,39,0,8,,,,,,,,3,,,84,0
61583,note_on,23,0,6,,,,,,,,2,,,72,0
61584,note_on,1,0,6,,,,,,,,2,,,71,64
61607,note_on,23,0,6,,,,,,,,2,,,71,0
61608,note_on,1,0,6,,,,,,,,2,,,72,64
61625,note_on,89,0,10,,,,,,,,3,,,65,0
61631,note_on,23,0,6,,,,,,,,2,,,72,0
61632,note_on,7,0,10,,,,,,,,3,,,60,43
61632,note_on,51,0,8,,,,,,,,3,,,83,43
61632,note_on,1,0,6,,,,,,,,2,,,60,64
61638,note_on,6,0,8,,,,,,,,3,,,83,0
61638,note_on,0,0,8,,,,,,,,3,,,84,43
61655,note_on,23,0,6,,,,,,,,2,,,60,0
61656,note_on,1,0,6,,,,,,,,2,,,72,64
61669,note_on,133,0,5,,,,,,,,2,,,81,0
61677,note_on,39,0,8,,,,,,,,3,,,84,0
61679,note_on,23,0,6,,,,,,,,2,,,72,0
61680,note_on,1,0,6,,,,,,,,2,,,71,64
61680,note_on,11,0,5,,,,,,,,2,,,83,85
61703,note_on,23,0,6,,,,,,,,2,,,71,0
61703,note_on,23,0,5,,,,,,,,2,,,83,0
61704,note_on,1,0,5,,,,,,,,2,,,84,85
61704,note_on,1,0,6,,,,,,,,2,,,72,64
61721,note_on,89,0,10,,,,,,,,3,,,60,0
61727,note_on,23,0,6,,,,,,,,2,,,72,0
61727,note_on,23,0,5,,,,,,,,2,,,84,0
61728,note_on,1,0,6,,,,,,,,2,,,65,64
61728,note_on,51,0,8,,,,,,,,3,,,83,43
61728,note_on,1,0,5,,,,,,,,2,,,83,85
61728,note_on,7,0,10,,,,,,,,3,,,65,43
61734,note_on,6,0,8,,,,,,,,3,,,83,0
61734,note_on,0,0,8,,,,,,,,3,,,84,43
61751,note_on,23,0,6,,,,,,,,2,,,65,0
61752,note_on,1,0,6,,,,,,,,2,,,72,64
61773,note_on,45,0,5,,,,,,,,2,,,83,0
61773,note_on,39,0,8,,,,,,,,3,,,84,0
61775,note_on,23,0,6,,,,,,,,2,,,72,0
61776,note_on,1,0,6,,,,,,,,2,,,71,64
61776,note_on,3,0,5,,,,,,,,2,,,81,85
61796,note_on,20,0,5,,,,,,,,2,,,81,0
61799,note_on,23,0,6,,,,,,,,2,,,71,0
61800,note_on,1,0,6,,,,,,,,2,,,72,64
61817,note_on,89,0,10,,,,,,,,3,,,65,0
61823,note_on,23,0,6,,,,,,,,2,,,72,0
61824,note_on,7,0,10,,,,,,,,3,,,60,43
61824,note_on,28,0,5,,,,,,,,2,,,78,85
61824,note_on,1,0,6,,,,,,,,2,,,60,64
61847,note_on,23,0,6,,,,,,,,2,,,60,0
61848,note_on,1,0,6,,,,,,,,2,,,72,64
61869,note_on,45,0,5,,,,,,,,2,,,78,0
61871,note_on,23,0,6,,,,,,,,2,,,72,0
61872,note_on,1,0,6,,,,,,,,2,,,71,64
61872,note_on,3,0,5,,,,,,,,2,,,79,85
61895,note_on,23,0,6,,,,,,,,2,,,71,0
61896,note_on,1,0,6,,,,,,,,2,,,72,64
61913,note_on,89,0,10,,,,,,,,3,,,60,0
61917,note_on,45,0,5,,,,,,,,2,,,79,0
61919,note_on,23,0,6,,,,,,,,2,,,72,0
61920,note_on,7,0,10,,,,,,,,3,,,64,43
61920,note_on,1,0,6,,,,,,,,2,,,64,64
61920,note_on,3,0,5,,,,,,,,2,,,79,85
61920,note_on,147,0,8,,,,,,,,3,,,83,43
61926,note_on,0,0,8,,,,,,,,3,,,84,43
61926,note_on,6,0,8,,,,,,,,3,,,83,0
61943,note_on,23,0,6,,,,,,,,2,,,64,0
61944,note_on,1,0,6,,,,,,,,2,,,72,64
61965,note_on,39,0,8,,,,,,,,3,,,84,0
61967,note_on,23,0,6,,,,,,,,2,,,72,0
61968,note_on,1,0,6,,,,,,,,2,,,71,64
61991,note_on,23,0,6,,,,,,,,2,,,71,0
61992,note_on,1,0,6,,,,,,,,2,,,72,64
62009,note_on,89,0,10,,,,,,,,3,,,64,0
62015,note_on,23,0,6,,,,,,,,2,,,72,0
62016,note_on,1,0,6,,,,,,,,2,,,60,64
62016,note_on,51,0,8,,,,,,,,3,,,83,43
62016,note_on,7,0,10,,,,,,,,3,,,60,43
62022,note_on,6,0,8,,,,,,,,3,,,83,0
62022,note_on,0,0,8,,,,,,,,3,,,84,43
62039,note_on,23,0,6,,,,,,,,2,,,60,0
62040,note_on,1,0,6,,,,,,,,2,,,72,64
62053,note_on,133,0,5,,,,,,,,2,,,79,0
62061,note_on,39,0,8,,,,,,,,3,,,84,0
62063,note_on,23,0,6,,,,,,,,2,,,72,0
62064,note_on,1,0,6,,,,,,,,2,,,71,64
62064,note_on,11,0,5,,,,,,,,2,,,76,64
62087,note_on,23,0,6,,,,,,,,2,,,71,0
62088,note_on,1,0,6,,,,,,,,2,,,72,64
62105,note_on,89,0,10,,,,,,,,3,,,60,0
62109,note_on,45,0,5,,,,,,,,2,,,76,0
62111,note_on,23,0,6,,,,,,,,2,,,72,0
62112,note_on,3,0,5,,,,,,,,2,,,84,64
62112,note_on,1,0,6,,,,,,,,2,,,64,64
62112,note_on,51,0,8,,,,,,,,3,,,83,43
62112,note_on,7,0,10,,,,,,,,3,,,64,43
62118,note_on,6,0,8,,,,,,,,3,,,83,0
62118,note_on,0,0,8,,,,,,,,3,,,84,43
62135,note_on,23,0,6,,,,,,,,2,,,64,0
62136,note_on,1,0,6,,,,,,,,2,,,72,64
62157,note_on,45,0,5,,,,,,,,2,,,84,0
62157,note_on,39,0,8,,,,,,,,3,,,84,0
62159,note_on,23,0,6,,,,,,,,2,,,72,0
62160,note_on,3,0,5,,,,,,,,2,,,82,64
62160,note_on,1,0,6,,,,,,,,2,,,71,64
62183,note_on,23,0,6,,,,,,,,2,,,71,0
62184,note_on,1,0,6,,,,,,,,2,,,72,64
62201,note_on,89,0,10,,,,,,,,3,,,64,0
62205,note_on,45,0,5,,,,,,,,2,,,82,0
62207,note_on,23,0,6,,,,,,,,2,,,72,0
62208,note_on,7,0,10,,,,,,,,3,,,60,43
62208,note_on,1,0,6,,,,,,,,2,,,60,64
62208,note_on,3,0,5,,,,,,,,2,,,80,64
62231,note_on,23,0,6,,,,,,,,2,,,60,0
62232,note_on,1,0,6,,,,,,,,2,,,72,64
62253,note_on,45,0,5,,,,,,,,2,,,80,0
62255,note_on,23,0,6,,,,,,,,2,,,72,0
62256,note_on,1,0,6,,,,,,,,2,,,71,64
62256,note_on,3,0,5,,,,,,,,2,,,81,64
62279,note_on,23,0,6,,,,,,,,2,,,71,0
62280,note_on,1,0,6,,,,,,,,2,,,72,64
62297,note_on,89,0,10,,,,,,,,3,,,60,0
62303,note_on,23,0,6,,,,,,,,2,,,72,0
62304,note_on,1,0,6,,,,,,,,2,,,65,64
62304,note_on,7,0,10,,,,,,,,3,,,65,43
62304,note_on,147,0,8,,,,,,,,3,,,83,43
62310,note_on,6,0,8,,,,,,,,3,,,83,0
62310,note_on,0,0,8,,,,,,,,3,,,84,43
62327,note_on,71,0,5,,,,,,,,2,,,81,0
62327,note_on,23,0,6,,,,,,,,2,,,65,0
62328,note_on,1,0,6,,,,,,,,2,,,72,64
62328,note_on,1,0,5,,,,,,,,2,,,77,64
62349,note_on,39,0,8,,,,,,,,3,,,84,0
62351,note_on,23,0,5,,,,,,,,2,,,77,0
62351,note_on,23,0,6,,,,,,,,2,,,72,0
62352,note_on,1,0,6,,,,,,,,2,,,71,64
62352,note_on,1,0,5,,,,,,,,2,,,72,64
62375,note_on,23,0,5,,,,,,,,2,,,72,0
62375,note_on,23,0,6,,,,,,,,2,,,71,0
62376,note_on,1,0,5,,,,,,,,2,,,77,64
62376,note_on,1,0,6,,,,,,,,2,,,72,64
62393,note_on,89,0,10,,,,,,,,3,,,65,0
62399,note_on,23,0,5,,,,,,,,2,,,77,0
62399,note_on,23,0,6,,,,,,,,2,,,72,0
62400,note_on,1,0,6,,,,,,,,2,,,60,64
62400,note_on,51,0,8,,,,,,,,3,,,83,43
62400,note_on,1,0,5,,,,,,,,2,,,81,64
62400,note_on,7,0,10,,,,,,,,3,,,60,43
62406,note_on,6,0,8,,,,,,,,3,,,83,0
62406,note_on,0,0,8,,,,,,,,3,,,84,43
62423,note_on,23,0,6,,,,,,,,2,,,60,0
62424,note_on,1,0,6,,,,,,,,2,,,72,64
62445,note_on,45,0,5,,,,,,,,2,,,81,0
62445,note_on,39,0,8,,,,,,,,3,,,84,0
62447,note_on,23,0,6,,,,,,,,2,,,72,0
62448,note_on,1,0,6,,,,,,,,2,,,71,64
62448,note_on,3,0,5,,,,,,,,2,,,77,64
62471,note_on,23,0,6,,,,,,,,2,,,71,0
62472,note_on,1,0,6,,,,,,,,2,,,72,64
62489,note_on,89,0,10,,,,,,,,3,,,60,0
62493,note_on,45,0,5,,,,,,,,2,,,77,0
62495,note_on,23,0,6,,,,,,,,2,,,72,0
62496,note_on,51,0,8,,,,,,,,3,,,83,43
62496,note_on,1,0,6,,,,,,,,2,,,65,64
62496,note_on,3,0,5,,,,,,,,2,,,84,64
62496,note_on,7,0,10,,,,,,,,3,,,65,43
62502,note_on,6,0,8,,,,,,,,3,,,83,0
62502,note_on,0,0,8,,,,,,,,3,,,84,43
62519,note_on,23,0,6,,,,,,,,2,,,65,0
62520,note_on,1,0,6,,,,,,,,2,,,72,64
62541,note_on,39,0,8,,,,,,,,3,,,84,0
62541,note_on,45,0,5,,,,,,,,2,,,84,0
62543,note_on,23,0,6,,,,,,,,2,,,72,0
62544,note_on,1,0,6,,,,,,,,2,,,71,64
62544,note_on,3,0,5,,,,,,,,2,,,81,64
62567,note_on,23,0,6,,,,,,,,2,,,71,0
62568,note_on,1,0,6,,,,,,,,2,,,72,64
62585,note_on,89,0,10,,,,,,,,3,,,65,0
62589,note_on,45,0,5,,,,,,,,2,,,81,0
62591,note_on,23,0,6,,,,,,,,2,,,72,0
62592,note_on,7,0,10,,,,,,,,3,,,60,43
62592,note_on,3,0,5,,,,,,,,2,,,79,64
62592,note_on,1,0,6,,,,,,,,2,,,60,64
62615,note_on,23,0,6,,,,,,,,2,,,60,0
62616,note_on,1,0,6,,,,,,,,2,,,72,65
62639,note_on,23,0,6,,,,,,,,2,,,72,0
62640,note_on,1,0,6,,,,,,,,2,,,71,67
62659,note_on,67,0,5,,,,,,,,2,,,79,0
62663,note_on,23,0,6,,,,,,,,2,,,71,0
62664,note_on,1,0,6,,,,,,,,2,,,72,69
62664,note_on,5,0,5,,,,,,,,2,,,76,71
62681,note_on,89,0,10,,,,,,,,3,,,60,0
62687,note_on,23,0,6,,,,,,,,2,,,72,0
62687,note_on,23,0,5,,,,,,,,2,,,76,0
62688,note_on,147,0,8,,,,,,,,3,,,83,43
62688,note_on,7,0,10,,,,,,,,3,,,64,43
62688,note_on,1,0,5,,,,,,,,2,,,84,74
62688,note_on,1,0,6,,,,,,,,2,,,64,71
62694,note_on,6,0,8,,,,,,,,3,,,83,0
62694,note_on,0,0,8,,,,,,,,3,,,84,43
62711,note_on,23,0,6,,,,,,,,2,,,64,0
62712,note_on,1,0,6,,,,,,,,2,,,72,72
62733,note_on,39,0,8,,,,,,,,3,,,84,0
62735,note_on,23,0,6,,,,,,,,2,,,72,0
62736,note_on,1,0,6,,,,,,,,2,,,71,74
62755,note_on,67,0,5,,,,,,,,2,,,84,0
62759,note_on,23,0,6,,,,,,,,2,,,71,0
62760,note_on,1,0,6,,,,,,,,2,,,72,76
62760,note_on,5,0,5,,,,,,,,2,,,79,82
62769,note_on,1713,0,9,,,,,,,,3,,,72,0
62777,note_on,89,0,10,,,,,,,,3,,,64,0
62783,note_on,23,0,6,,,,,,,,2,,,72,0
62783,note_on,23,0,5,,,,,,,,2,,,79,0
62784,note_on,15,0,9,,,,,,,,3,,,76,43
62784,note_on,1,0,6,,,,,,,,2,,,60,78
62784,note_on,51,0,8,,,,,,,,3,,,79,43
62784,note_on,1,0,5,,,,,,,,2,,,88,85
62784,note_on,7,0,10,,,,,,,,3,,,60,43
62807,note_on,23,0,5,,,,,,,,2,,,88,0
62808,note_on,1,0,5,,,,,,,,2,,,86,82
62831,note_on,23,0,5,,,,,,,,2,,,86,0
62832,note_on,1,0,5,,,,,,,,2,,,84,79
62855,note_on,23,0,5,,,,,,,,2,,,84,0
62856,note_on,1,0,5,,,,,,,,2,,,83,77
62873,note_on,89,0,10,,,,,,,,3,,,60,0
62873,note_on,89,0,9,,,,,,,,3,,,76,0
62873,note_on,89,0,6,,,,,,,,2,,,60,0
62873,note_on,89,0,8,,,,,,,,3,,,79,0
62879,note_on,23,0,5,,,,,,,,2,,,83,0
62880,note_on,7,0,8,,,,,,,,3,,,76,43
62880,note_on,7,0,9,,,,,,,,3,,,67,43
62880,note_on,1,0,5,,,,,,,,2,,,81,74
62903,note_on,23,0,5,,,,,,,,2,,,81,0
62904,note_on,1,0,5,,,,,,,,2,,,79,71
62927,note_on,23,0,5,,,,,,,,2,,,79,0
62928,note_on,1,0,5,,,,,,,,2,,,77,69
62951,note_on,23,0,5,,,,,,,,2,,,77,0
62952,note_on,1,0,5,,,,,,,,2,,,76,66
62969,note_on,89,0,9,,,,,,,,3,,,67,0
62969,note_on,89,0,8,,,,,,,,3,,,76,0
62975,note_on,23,0,5,,,,,,,,2,,,76,0
62976,note_on,1,0,5,,,,,,,,2,,,74,64
62976,note_on,103,0,6,,,,,,,,2,,,57,64
62976,note_on,0,0,6,,,,,,,,2,,,53,64
62976,note_on,7,0,8,,,,,,,,3,,,74,43
62976,note_on,1831,0,11,,,,,,,,3,,,41,43
62976,note_on,103,0,10,,,,,,,,3,,,65,43
62976,note_on,7,0,9,,,,,,,,3,,,69,43
62999,note_on,23,0,5,,,,,,,,2,,,74,0
63000,note_on,1,0,5,,,,,,,,2,,,73,66
63023,note_on,23,0,5,,,,,,,,2,,,73,0
63024,note_on,1,0,5,,,,,,,,2,,,76,69
63047,note_on,23,0,5,,,,,,,,2,,,76,0
63048,note_on,1,0,5,,,,,,,,2,,,74,71
63065,note_on,89,0,8,,,,,,,,3,,,74,0
63065,note_on,89,0,6,,,,,,,,2,,,53,0
63065,note_on,0,0,6,,,,,,,,2,,,57,0
63065,note_on,89,0,11,,,,,,,,3,,,41,0
63065,note_on,89,0,9,,,,,,,,3,,,69,0
63065,note_on,89,0,10,,,,,,,,3,,,65,0
63071,note_on,23,0,5,,,,,,,,2,,,74,0
63072,note_on,1,0,5,,,,,,,,2,,,77,74
63095,note_on,23,0,5,,,,,,,,2,,,77,0
63096,note_on,1,0,5,,,,,,,,2,,,76,77
63119,note_on,23,0,5,,,,,,,,2,,,76,0
63120,note_on,1,0,5,,,,,,,,2,,,79,79
63143,note_on,23,0,5,,,,,,,,2,,,79,0
63144,note_on,1,0,5,,,,,,,,2,,,77,82
63167,note_on,23,0,5,,,,,,,,2,,,77,0
63168,note_on,1,0,5,,,,,,,,2,,,81,85
63191,note_on,23,0,5,,,,,,,,2,,,81,0
63192,note_on,1,0,5,,,,,,,,2,,,79,82
63215,note_on,23,0,5,,,,,,,,2,,,79,0
63216,note_on,1,0,5,,,,,,,,2,,,77,79
63239,note_on,23,0,5,,,,,,,,2,,,77,0
63240,note_on,1,0,5,,,,,,,,2,,,76,77
63263,note_on,23,0,5,,,,,,,,2,,,76,0
63264,note_on,1,0,5,,,,,,,,2,,,74,74
63264,note_on,199,0,9,,,,,,,,3,,,69,43
63264,note_on,199,0,6,,,,,,,,2,,,62,85
63264,note_on,0,0,6,,,,,,,,2,,,54,85
63264,note_on,199,0,8,,,,,,,,3,,,72,43
63264,note_on,199,0,10,,,,,,,,3,,,62,43
63264,note_on,199,0,11,,,,,,,,3,,,42,43
63287,note_on,23,0,5,,,,,,,,2,,,74,0
63288,note_on,1,0,5,,,,,,,,2,,,72,71
63311,note_on,23,0,5,,,,,,,,2,,,72,0
63312,note_on,1,0,5,,,,,,,,2,,,71,69
63335,note_on,23,0,5,,,,,,,,2,,,71,0
63336,note_on,1,0,5,,,,,,,,2,,,72,66
63353,note_on,89,0,10,,,,,,,,3,,,62,0
63353,note_on,89,0,8,,,,,,,,3,,,72,0
63353,note_on,0,0,6,,,,,,,,2,,,62,0
63353,note_on,89,0,6,,,,,,,,2,,,54,0
63353,note_on,89,0,11,,,,,,,,3,,,42,0
63353,note_on,89,0,9,,,,,,,,3,,,69,0
63359,note_on,23,0,5,,,,,,,,2,,,72,0
63360,note_on,7,0,11,,,,,,,,3,,,43,43
63360,note_on,7,0,8,,,,,,,,3,,,71,43
63360,note_on,7,0,6,,,,,,,,2,,,55,64
63360,note_on,7,0,10,,,,,,,,3,,,62,43
63360,note_on,7,0,9,,,,,,,,3,,,67,43
63360,note_on,1,0,5,,,,,,,,2,,,71,64
63383,note_on,23,0,6,,,,,,,,2,,,55,0
63384,note_on,1,0,6,,,,,,,,2,,,62,64
63407,note_on,23,0,6,,,,,,,,2,,,62,0
63408,note_on,1,0,6,,,,,,,,2,,,59,64
63431,note_on,23,0,6,,,,,,,,2,,,59,0
63432,note_on,1,0,6,,,,,,,,2,,,62,64
63449,note_on,89,0,10,,,,,,,,3,,,62,0
63449,note_on,89,0,5,,,,,,,,2,,,71,0
63449,note_on,89,0,8,,,,,,,,3,,,71,0
63449,note_on,89,0,9,,,,,,,,3,,,67,0
63455,note_on,23,0,6,,,,,,,,2,,,62,0
63456,note_on,1,0,6,,,,,,,,2,,,55,64
63456,note_on,7,0,9,,,,,,,,3,,,71,43
63456,note_on,7,0,8,,,,,,,,3,,,74,43
63456,note_on,7,0,10,,,,,,,,3,,,59,43
63456,note_on,7,0,5,,,,,,,,2,,,79,64
63476,note_on,20,0,5,,,,,,,,2,,,79,0
63479,note_on,23,0,6,,,,,,,,2,,,55,0
63480,note_on,1,0,6,,,,,,,,2,,,65,64
63503,note_on,23,0,6,,,,,,,,2,,,65,0
63504,note_on,1,0,6,,,,,,,,2,,,62,64
63504,note_on,28,0,5,,,,,,,,2,,,79,64
63524,note_on,20,0,5,,,,,,,,2,,,79,0
63527,note_on,23,0,6,,,,,,,,2,,,62,0
63528,note_on,1,0,6,,,,,,,,2,,,65,64
63545,note_on,89,0,9,,,,,,,,3,,,71,0
63545,note_on,89,0,8,,,,,,,,3,,,74,0
63545,note_on,89,0,10,,,,,,,,3,,,59,0
63551,note_on,23,0,6,,,,,,,,2,,,65,0
63552,note_on,28,0,5,,,,,,,,2,,,79,64
63552,note_on,7,0,10,,,,,,,,3,,,67,43
63552,note_on,7,0,8,,,,,,,,3,,,76,43
63552,note_on,7,0,9,,,,,,,,3,,,72,43
63552,note_on,1,0,6,,,,,,,,2,,,55,64
63575,note_on,23,0,6,,,,,,,,2,,,55,0
63576,note_on,1,0,6,,,,,,,,2,,,64,64
63599,note_on,23,0,6,,,,,,,,2,,,64,0
63600,note_on,1,0,6,,,,,,,,2,,,60,64
63623,note_on,23,0,6,,,,,,,,2,,,60,0
63624,note_on,1,0,6,,,,,,,,2,,,64,64
63641,note_on,89,0,9,,,,,,,,3,,,72,0
63641,note_on,89,0,10,,,,,,,,3,,,67,0
63641,note_on,89,0,8,,,,,,,,3,,,76,0
63647,note_on,23,0,6,,,,,,,,2,,,64,0
63648,note_on,1,0,6,,,,,,,,2,,,55,64
63648,note_on,7,0,8,,,,,,,,3,,,79,43
63648,note_on,7,0,10,,,,,,,,3,,,64,43
63648,note_on,7,0,9,,,,,,,,3,,,76,43
63671,note_on,23,0,6,,,,,,,,2,,,55,0
63672,note_on,1,0,6,,,,,,,,2,,,64,64
63685,note_on,133,0,5,,,,,,,,2,,,79,0
63695,note_on,23,0,6,,,,,,,,2,,,64,0
63696,note_on,1,0,6,,,,,,,,2,,,60,64
63696,note_on,11,0,5,,,,,,,,2,,,84,64
63719,note_on,23,0,6,,,,,,,,2,,,60,0
63720,note_on,1,0,6,,,,,,,,2,,,64,64
63737,note_on,89,0,10,,,,,,,,3,,,64,0
63737,note_on,89,0,8,,,,,,,,3,,,79,0
63737,note_on,89,0,9,,,,,,,,3,,,76,0
63741,note_on,45,0,5,,,,,,,,2,,,84,0
63743,note_on,23,0,6,,,,,,,,2,,,64,0
63744,note_on,7,0,9,,,,,,,,3,,,67,43
63744,note_on,7,0,10,,,,,,,,3,,,62,43
63744,note_on,1,0,6,,,,,,,,2,,,55,64
63744,note_on,3,0,5,,,,,,,,2,,,83,64
63744,note_on,7,0,8,,,,,,,,3,,,71,43
63756,note_on,0,0,5,,,,,,,,2,,,81,64
63756,note_on,12,0,5,,,,,,,,2,,,83,0
63767,note_on,23,0,6,,,,,,,,2,,,55,0
63768,note_on,0,0,5,,,,,,,,2,,,79,64
63768,note_on,12,0,5,,,,,,,,2,,,81,0
63768,note_on,1,0,6,,,,,,,,2,,,65,64
63791,note_on,23,0,6,,,,,,,,2,,,65,0
63792,note_on,1,0,6,,,,,,,,2,,,62,64
63815,note_on,23,0,6,,,,,,,,2,,,62,0
63816,note_on,1,0,6,,,,,,,,2,,,65,64
63833,note_on,89,0,9,,,,,,,,3,,,67,0
63833,note_on,89,0,8,,,,,,,,3,,,71,0
63833,note_on,89,0,10,,,,,,,,3,,,62,0
63835,note_on,67,0,5,,,,,,,,2,,,79,0
63839,note_on,23,0,6,,,,,,,,2,,,65,0
63840,note_on,7,0,10,,,,,,,,3,,,59,43
63840,note_on,7,0,8,,,,,,,,3,,,74,43
63840,note_on,7,0,9,,,,,,,,3,,,71,43
63840,note_on,1,0,6,,,,,,,,2,,,55,64
63840,note_on,5,0,5,,,,,,,,2,,,79,64
63860,note_on,20,0,5,,,,,,,,2,,,79,0
63863,note_on,23,0,6,,,,,,,,2,,,55,0
63864,note_on,1,0,6,,,,,,,,2,,,65,64
63887,note_on,23,0,6,,,,,,,,2,,,65,0
63888,note_on,28,0,5,,,,,,,,2,,,79,64
63888,note_on,1,0,6,,,,,,,,2,,,62,64
63908,note_on,20,0,5,,,,,,,,2,,,79,0
63911,note_on,23,0,6,,,,,,,,2,,,62,0
63912,note_on,1,0,6,,,,,,,,2,,,65,64
63929,note_on,89,0,9,,,,,,,,3,,,71,0
63929,note_on,89,0,8,,,,,,,,3,,,74,0
63929,note_on,89,0,10,,,,,,,,3,,,59,0
63935,note_on,23,0,6,,,,,,,,2,,,65,0
63936,note_on,7,0,8,,,,,,,,3,,,76,43
63936,note_on,28,0,5,,,,,,,,2,,,79,64
63936,note_on,1,0,6,,,,,,,,2,,,55,64
63936,note_on,7,0,9,,,,,,,,3,,,72,43
63936,note_on,7,0,10,,,,,,,,3,,,67,43
63959,note_on,23,0,6,,,,,,,,2,,,55,0
63960,note_on,1,0,6,,,,,,,,2,,,64,64
63983,note_on,23,0,6,,,,,,,,2,,,64,0
63984,note_on,1,0,6,,,,,,,,2,,,60,64
64007,note_on,23,0,6,,,,,,,,2,,,60,0
64008,note_on,1,0,6,,,,,,,,2,,,64,64
64025,note_on,89,0,8,,,,,,,,3,,,76,0
64025,note_on,89,0,9,,,,,,,,3,,,72,0
64025,note_on,89,0,10,,,,,,,,3,,,67,0
64031,note_on,23,0,6,,,,,,,,2,,,64,0
64032,note_on,7,0,10,,,,,,,,3,,,64,43
64032,note_on,7,0,8,,,,,,,,3,,,79,43
64032,note_on,7,0,9,,,,,,,,3,,,76,43
64032,note_on,1,0,6,,,,,,,,2,,,55,64
64055,note_on,23,0,6,,,,,,,,2,,,55,0
64056,note_on,1,0,6,,,,,,,,2,,,64,64
64069,note_on,133,0,5,,,,,,,,2,,,79,0
64079,note_on,23,0,6,,,,,,,,2,,,64,0
64080,note_on,1,0,6,,,,,,,,2,,,60,64
64080,note_on,11,0,5,,,,,,,,2,,,84,64
64103,note_on,23,0,6,,,,,,,,2,,,60,0
64104,note_on,1,0,6,,,,,,,,2,,,64,64
64121,note_on,89,0,8,,,,,,,,3,,,79,0
64121,note_on,89,0,10,,,,,,,,3,,,64,0
64121,note_on,89,0,9,,,,,,,,3,,,76,0
64125,note_on,45,0,5,,,,,,,,2,,,84,0
64127,note_on,23,0,6,,,,,,,,2,,,64,0
64128,note_on,7,0,10,,,,,,,,3,,,55,43
64128,note_on,7,0,9,,,,,,,,3,,,71,43
64128,note_on,3,0,5,,,,,,,,2,,,83,85
64128,note_on,1,0,6,,,,,,,,2,,,62,85
64128,note_on,7,0,8,,,,,,,,3,,,74,43
64128,note_on,0,0,6,,,,,,,,2,,,55,85
64128,note_on,0,0,6,,,,,,,,2,,,59,85
64140,note_on,12,0,5,,,,,,,,2,,,83,0
64140,note_on,0,0,5,,,,,,,,2,,,81,85
64152,note_on,0,0,5,,,,,,,,2,,,79,64
64152,note_on,12,0,5,,,,,,,,2,,,81,0
64217,note_on,89,0,6,,,,,,,,2,,,55,0
64217,note_on,0,0,6,,,,,,,,2,,,59,0
64217,note_on,0,0,6,,,,,,,,2,,,62,0
64217,note_on,89,0,10,,,,,,,,3,,,55,0
64217,note_on,857,0,11,,,,,,,,3,,,43,0
64217,note_on,89,0,8,,,,,,,,3,,,74,0
64217,note_on,89,0,9,,,,,,,,3,,,71,0
64219,note_on,67,0,5,,,,,,,,2,,,79,0
64320,note_on,103,0,10,,,,,,,,3,,,67,43
64320,note_on,103,0,9,,,,,,,,3,,,74,43
64320,note_on,103,0,8,,,,,,,,3,,,83,43
64332,note_on,0,0,8,,,,,,,,3,,,81,43
64332,note_on,12,0,8,,,,,,,,3,,,83,0
64332,note_on,12,0,9,,,,,,,,3,,,74,0
64332,note_on,0,0,9,,,,,,,,3,,,72,43
64344,note_on,0,0,9,,,,,,,,3,,,71,43
64344,note_on,12,0,9,,,,,,,,3,,,72,0
64344,note_on,0,0,8,,,,,,,,3,,,79,43
64344,note_on,12,0,8,,,,,,,,3,,,81,0
64409,note_on,89,0,10,,,,,,,,3,,,67,0
64411,note_on,67,0,8,,,,,,,,3,,,79,0
64411,note_on,67,0,9,,,,,,,,3,,,71,0
64512,note_on,293,0,5,,,,,,,,2,,,79,64
64557,note_on,45,0,5,,,,,,,,2,,,79,0
64560,note_on,3,0,5,,,,,,,,2,,,78,67
64605,note_on,45,0,5,,,,,,,,2,,,78,0
64608,note_on,3,0,5,,,,,,,,2,,,79,70
64653,note_on,45,0,5,,,,,,,,2,,,79,0
64656,note_on,3,0,5,,,,,,,,2,,,78,73
64701,note_on,45,0,5,,,,,,,,2,,,78,0
64704,note_on,3,0,5,,,,,,,,2,,,79,76
64704,note_on,293,0,8,,,,,,,,3,,,67,43
64749,note_on,45,0,8,,,,,,,,3,,,67,0
64752,note_on,3,0,8,,,,,,,,3,,,66,43
64797,note_on,45,0,8,,,,,,,,3,,,66,0
64800,note_on,3,0,8,,,,,,,,3,,,67,43
64837,note_on,133,0,5,,,,,,,,2,,,79,0
64845,note_on,45,0,8,,,,,,,,3,,,67,0
64848,note_on,11,0,5,,,,,,,,2,,,76,64
64848,note_on,3,0,8,,,,,,,,3,,,66,43
64893,note_on,45,0,8,,,,,,,,3,,,66,0
64893,note_on,45,0,5,,,,,,,,2,,,76,0
64896,note_on,0,0,1,,,,,,,,0,,,67,43
64896,note_on,4135,0,1,,,,,,,,0,,,79,43
64896,note_on,3,0,5,,,,,,,,2,,,72,64
64896,note_on,485,0,9,,,,,,,,3,,,60,43
64896,note_on,487,0,10,,,,,,,,3,,,55,43
64896,note_on,679,0,6,,,,,,,,2,,,52,64
64896,note_on,3,0,8,,,,,,,,3,,,67,43
64896,note_on,0,0,5,,,,,,,,2,,,67,64
64896,note_on,0,0,3,,,,,,,,1,,,64,49
64896,note_on,679,0,11,,,,,,,,3,,,40,43
64896,note_on,6631,0,3,,,,,,,,1,,,72,49
64916,note_on,20,0,9,,,,,,,,3,,,60,0
64916,note_on,20,0,11,,,,,,,,3,,,40,0
64916,note_on,20,0,10,,,,,,,,3,,,55,0
64941,note_on,45,0,6,,,,,,,,2,,,52,0
64941,note_on,45,0,5,,,,,,,,2,,,67,0
64941,note_on,0,0,3,,,,,,,,1,,,72,0
64941,note_on,45,0,3,,,,,,,,1,,,64,0
64941,note_on,0,0,5,,,,,,,,2,,,72,0
64992,note_on,51,0,3,,,,,,,,1,,,74,49
64992,note_on,51,0,5,,,,,,,,2,,,74,64
64992,note_on,0,0,5,,,,,,,,2,,,71,64
64992,note_on,76,0,9,,,,,,,,3,,,62,43
64992,note_on,76,0,10,,,,,,,,3,,,59,43
64992,note_on,51,0,6,,,,,,,,2,,,55,64
64992,note_on,0,0,3,,,,,,,,1,,,71,49
64992,note_on,76,0,11,,,,,,,,3,,,43,43
65012,note_on,20,0,11,,,,,,,,3,,,43,0
65012,note_on,20,0,9,,,,,,,,3,,,62,0
65012,note_on,20,0,10,,,,,,,,3,,,59,0
65037,note_on,45,0,6,,,,,,,,2,,,55,0
65037,note_on,0,0,3,,,,,,,,1,,,74,0
65037,note_on,0,0,5,,,,,,,,2,,,74,0
65037,note_on,45,0,5,,,,,,,,2,,,71,0
65037,note_on,45,0,3,,,,,,,,1,,,71,0
65088,note_on,51,0,3,,,,,,,,1,,,74,49
65088,note_on,51,0,6,,,,,,,,2,,,60,64
65088,note_on,76,0,11,,,,,,,,3,,,48,43
65088,note_on,76,0,10,,,,,,,,3,,,62,43
65088,note_on,76,0,9,,,,,,,,3,,,65,43
65088,note_on,51,0,5,,,,,,,,2,,,74,64
65094,note_on,0,0,5,,,,,,,,2,,,76,64
65094,note_on,6,0,5,,,,,,,,2,,,74,0
65094,note_on,6,0,3,,,,,,,,1,,,74,0
65094,note_on,6,0,10,,,,,,,,3,,,62,0
65094,note_on,0,0,10,,,,,,,,3,,,60,43
65094,note_on,0,0,5,,,,,,,,2,,,72,64
65094,note_on,0,0,9,,,,,,,,3,,,64,43
65094,note_on,0,0,3,,,,,,,,1,,,76,49
65094,note_on,0,0,3,,,,,,,,1,,,72,49
65094,note_on,6,0,9,,,,,,,,3,,,65,0
65108,note_on,20,0,11,,,,,,,,3,,,48,0
65108,note_on,14,0,10,,,,,,,,3,,,60,0
65108,note_on,14,0,9,,,,,,,,3,,,64,0
65133,note_on,0,0,5,,,,,,,,2,,,76,0
65133,note_on,45,0,6,,,,,,,,2,,,60,0
65133,note_on,39,0,3,,,,,,,,1,,,72,0
65133,note_on,0,0,3,,,,,,,,1,,,76,0
65133,note_on,39,0,5,,,,,,,,2,,,72,0
65184,note_on,51,0,5,,,,,,,,2,,,74,64
65184,note_on,0,0,5,,,,,,,,2,,,71,64
65184,note_on,76,0,10,,,,,,,,3,,,59,43
65184,note_on,51,0,3,,,,,,,,1,,,74,49
65184,note_on,0,0,3,,,,,,,,1,,,67,49
65184,note_on,51,0,6,,,,,,,,2,,,55,64
65184,note_on,76,0,11,,,,,,,,3,,,43,43
65184,note_on,76,0,9,,,,,,,,3,,,62,43
65204,note_on,20,0,10,,,,,,,,3,,,59,0
65204,note_on,20,0,11,,,,,,,,3,,,43,0
65204,note_on,20,0,9,,,,,,,,3,,,62,0
65229,note_on,45,0,6,,,,,,,,2,,,55,0
65229,note_on,45,0,5,,,,,,,,2,,,71,0
65229,note_on,0,0,3,,,,,,,,1,,,74,0
65229,note_on,45,0,3,,,,,,,,1,,,67,0
65229,note_on,0,0,5,,,,,,,,2,,,74,0
65250,note_on,354,0,8,,,,,,,,3,,,67,0
65250,note_on,354,0,1,,,,,,,,0,,,67,0
65250,note_on,0,0,1,,,,,,,,0,,,79,0
65280,note_on,51,0,5,,,,,,,,2,,,79,85
65325,note_on,45,0,5,,,,,,,,2,,,79,0
65328,note_on,3,0,5,,,,,,,,2,,,78,85
65373,note_on,45,0,5,,,,,,,,2,,,78,0
65376,note_on,3,0,5,,,,,,,,2,,,79,85
65421,note_on,45,0,5,,,,,,,,2,,,79,0
65424,note_on,3,0,5,,,,,,,,2,,,78,85
65469,note_on,45,0,5,,,,,,,,2,,,78,0
65472,note_on,222,0,8,,,,,,,,3,,,67,43
65472,note_on,3,0,5,,,,,,,,2,,,79,64
65517,note_on,45,0,8,,,,,,,,3,,,67,0
65520,note_on,3,0,8,,,,,,,,3,,,66,43
65565,note_on,45,0,8,,,,,,,,3,,,66,0
65568,note_on,3,0,8,,,,,,,,3,,,67,43
65605,note_on,133,0,5,,,,,,,,2,,,79,0
65613,note_on,45,0,8,,,,,,,,3,,,67,0
65616,note_on,11,0,5,,,,,,,,2,,,81,64
65616,note_on,3,0,8,,,,,,,,3,,,66,43
65661,note_on,45,0,8,,,,,,,,3,,,66,0
65661,note_on,45,0,5,,,,,,,,2,,,81,0
65664,note_on,3,0,5,,,,,,,,2,,,74,64
65664,note_on,0,0,5,,,,,,,,2,,,71,64
65664,note_on,0,0,3,,,,,,,,1,,,67,49
65664,note_on,460,0,9,,,,,,,,3,,,62,43
65664,note_on,460,0,11,,,,,,,,3,,,53,43
65664,note_on,435,0,3,,,,,,,,1,,,74,49
65664,note_on,435,0,6,,,,,,,,2,,,65,64
65664,note_on,3,0,8,,,,,,,,3,,,67,43
65664,note_on,0,0,1,,,,,,,,0,,,67,43
65664,note_on,414,0,1,,,,,,,,0,,,79,43
65664,note_on,460,0,10,,,,,,,,3,,,59,43
65684,note_on,20,0,9,,,,,,,,3,,,62,0
65684,note_on,20,0,10,,,,,,,,3,,,59,0
65684,note_on,20,0,11,,,,,,,,3,,,53,0
65709,note_on,45,0,3,,,,,,,,1,,,67,0
65709,note_on,0,0,3,,,,,,,,1,,,74,0
65709,note_on,45,0,5,,,,,,,,2,,,71,0
65709,note_on,0,0,5,,,,,,,,2,,,74,0
65709,note_on,45,0,6,,,,,,,,2,,,65,0
65760,note_on,51,0,5,,,,,,,,2,,,76,64
65760,note_on,0,0,5,,,,,,,,2,,,72,64
65760,note_on,76,0,11,,,,,,,,3,,,52,43
65760,note_on,51,0,6,,,,,,,,2,,,64,64
65760,note_on,76,0,10,,,,,,,,3,,,60,43
65760,note_on,76,0,9,,,,,,,,3,,,64,43
65760,note_on,0,0,3,,,,,,,,1,,,72,49
65760,note_on,51,0,3,,,,,,,,1,,,76,49
65780,note_on,20,0,11,,,,,,,,3,,,52,0
65780,note_on,20,0,9,,,,,,,,3,,,64,0
65780,note_on,20,0,10,,,,,,,,3,,,60,0
65805,note_on,45,0,3,,,,,,,,1,,,72,0
65805,note_on,0,0,3,,,,,,,,1,,,76,0
65805,note_on,45,0,6,,,,,,,,2,,,64,0
65805,note_on,0,0,5,,,,,,,,2,,,76,0
65805,note_on,45,0,5,,,,,,,,2,,,72,0
65856,note_on,76,0,9,,,,,,,,3,,,67,43
65856,note_on,76,0,10,,,,,,,,3,,,60,43
65856,note_on,51,0,5,,,,,,,,2,,,76,64
65856,note_on,51,0,6,,,,,,,,2,,,59,64
65856,note_on,51,0,3,,,,,,,,1,,,76,49
65856,note_on,76,0,11,,,,,,,,3,,,47,43
65862,note_on,0,0,3,,,,,,,,1,,,77,49
65862,note_on,0,0,5,,,,,,,,2,,,74,64
65862,note_on,0,0,5,,,,,,,,2,,,77,64
65862,note_on,6,0,5,,,,,,,,2,,,76,0
65862,note_on,6,0,3,,,,,,,,1,,,76,0
65862,note_on,6,0,9,,,,,,,,3,,,67,0
65862,note_on,0,0,9,,,,,,,,3,,,65,43
65862,note_on,0,0,10,,,,,,,,3,,,62,43
65862,note_on,6,0,10,,,,,,,,3,,,60,0
65862,note_on,0,0,3,,,,,,,,1,,,74,49
65876,note_on,14,0,10,,,,,,,,3,,,62,0
65876,note_on,14,0,9,,,,,,,,3,,,65,0
65876,note_on,20,0,11,,,,,,,,3,,,47,0
65901,note_on,0,0,3,,,,,,,,1,,,77,0
65901,note_on,39,0,3,,,,,,,,1,,,74,0
65901,note_on,0,0,5,,,,,,,,2,,,77,0
65901,note_on,39,0,5,,,,,,,,2,,,74,0
65901,note_on,45,0,6,,,,,,,,2,,,59,0
65952,note_on,51,0,3,,,,,,,,1,,,76,49
65952,note_on,0,0,5,,,,,,,,2,,,72,64
65952,note_on,51,0,5,,,,,,,,2,,,76,64
65952,note_on,51,0,6,,,,,,,,2,,,60,64
65952,note_on,76,0,11,,,,,,,,3,,,48,43
65952,note_on,76,0,10,,,,,,,,3,,,60,43
65952,note_on,0,0,3,,,,,,,,1,,,71,49
65952,note_on,76,0,9,,,,,,,,3,,,64,43
65972,note_on,20,0,10,,,,,,,,3,,,60,0
65972,note_on,20,0,11,,,,,,,,3,,,48,0
65972,note_on,20,0,9,,,,,,,,3,,,64,0
65997,note_on,45,0,6,,,,,,,,2,,,60,0
65997,note_on,45,0,3,,,,,,,,1,,,71,0
65997,note_on,45,0,5,,,,,,,,2,,,72,0
65997,note_on,0,0,5,,,,,,,,2,,,76,0
65997,note_on,0,0,3,,,,,,,,1,,,76,0
66018,note_on,354,0,8,,,,,,,,3,,,67,0
66018,note_on,0,0,1,,,,,,,,0,,,79,0
66018,note_on,354,0,1,,,,,,,,0,,,67,0
66048,note_on,51,0,5,,,,,,,,2,,,84,64
66093,note_on,45,0,5,,,,,,,,2,,,84,0
66096,note_on,3,0,5,,,,,,,,2,,,83,64
66141,note_on,45,0,5,,,,,,,,2,,,83,0
66144,note_on,3,0,5,,,,,,,,2,,,84,64
66189,note_on,45,0,5,,,,,,,,2,,,84,0
66192,note_on,3,0,5,,,,,,,,2,,,83,64
66237,note_on,45,0,5,,,,,,,,2,,,83,0
66240,note_on,243,0,6,,,,,,,,2,,,64,64
66240,note_on,3,0,5,,,,,,,,2,,,84,64
66263,note_on,23,0,6,,,,,,,,2,,,64,0
66264,note_on,1,0,6,,,,,,,,2,,,72,64
66287,note_on,23,0,6,,,,,,,,2,,,72,0
66288,note_on,1,0,6,,,,,,,,2,,,71,64
66311,note_on,23,0,6,,,,,,,,2,,,71,0
66312,note_on,1,0,6,,,,,,,,2,,,72,64
66335,note_on,23,0,6,,,,,,,,2,,,72,0
66336,note_on,1,0,6,,,,,,,,2,,,64,64
66359,note_on,23,0,6,,,,,,,,2,,,64,0
66360,note_on,1,0,6,,,,,,,,2,,,72,64
66373,note_on,133,0,5,,,,,,,,2,,,84,0
66383,note_on,23,0,6,,,,,,,,2,,,72,0
66384,note_on,11,0,5,,,,,,,,2,,,86,64
66384,note_on,1,0,6,,,,,,,,2,,,71,64
66407,note_on,23,0,6,,,,,,,,2,,,71,0
66408,note_on,1,0,6,,,,,,,,2,,,72,64
66429,note_on,45,0,5,,,,,,,,2,,,86,0
66431,note_on,23,0,6,,,,,,,,2,,,72,0
66432,note_on,3,0,5,,,,,,,,2,,,84,64
66432,note_on,1,0,6,,,,,,,,2,,,64,64
66455,note_on,23,0,6,,,,,,,,2,,,64,0
66456,note_on,1,0,6,,,,,,,,2,,,72,64
66477,note_on,45,0,5,,,,,,,,2,,,84,0
66479,note_on,23,0,6,,,,,,,,2,,,72,0
66480,note_on,1,0,6,,,,,,,,2,,,71,64
66480,note_on,3,0,5,,,,,,,,2,,,82,69
66503,note_on,23,0,6,,,,,,,,2,,,71,0
66504,note_on,1,0,6,,,,,,,,2,,,72,64
66525,note_on,45,0,5,,,,,,,,2,,,82,0
66527,note_on,23,0,6,,,,,,,,2,,,72,0
66528,note_on,3,0,5,,,,,,,,2,,,81,74
66528,note_on,1,0,6,,,,,,,,2,,,64,64
66551,note_on,23,0,6,,,,,,,,2,,,64,0
66552,note_on,1,0,6,,,,,,,,2,,,72,64
66573,note_on,45,0,5,,,,,,,,2,,,81,0
66575,note_on,23,0,6,,,,,,,,2,,,72,0
66576,note_on,3,0,5,,,,,,,,2,,,80,79
66576,note_on,1,0,6,,,,,,,,2,,,71,64
66599,note_on,23,0,6,,,,,,,,2,,,71,0
66600,note_on,1,0,6,,,,,,,,2,,,72,64
66621,note_on,45,0,5,,,,,,,,2,,,80,0
66623,note_on,23,0,6,,,,,,,,2,,,72,0
66624,note_on,1,0,6,,,,,,,,2,,,65,64
66624,note_on,3,0,5,,,,,,,,2,,,80,85
66647,note_on,23,0,6,,,,,,,,2,,,65,0
66648,note_on,1,0,6,,,,,,,,2,,,72,64
66671,note_on,23,0,6,,,,,,,,2,,,72,0
66672,note_on,1,0,6,,,,,,,,2,,,71,64
66695,note_on,23,0,6,,,,,,,,2,,,71,0
66696,note_on,1,0,6,,,,,,,,2,,,72,64
66713,note_on,89,0,5,,,,,,,,2,,,80,0
66719,note_on,23,0,6,,,,,,,,2,,,72,0
66720,note_on,7,0,5,,,,,,,,2,,,81,64
66720,note_on,1,0,6,,,,,,,,2,,,65,64
66743,note_on,23,0,6,,,,,,,,2,,,65,0
66744,note_on,1,0,6,,,,,,,,2,,,72,64
66765,note_on,45,0,5,,,,,,,,2,,,81,0
66767,note_on,23,0,6,,,,,,,,2,,,72,0
66768,note_on,1,0,6,,,,,,,,2,,,71,64
66791,note_on,23,0,6,,,,,,,,2,,,71,0
66792,note_on,1,0,6,,,,,,,,2,,,72,64
66815,note_on,23,0,6,,,,,,,,2,,,72,0
66816,note_on,1,0,6,,,,,,,,2,,,72,64
66816,note_on,51,0,5,,,,,,,,2,,,81,64
66816,note_on,0,0,6,,,,,,,,2,,,65,64
66816,note_on,844,0,9,,,,,,,,3,,,81,43
66816,note_on,844,0,10,,,,,,,,3,,,65,43
66816,note_on,798,0,8,,,,,,,,3,,,84,43
66828,note_on,0,0,5,,,,,,,,2,,,83,64
66828,note_on,12,0,5,,,,,,,,2,,,81,0
66840,note_on,0,0,5,,,,,,,,2,,,84,85
66840,note_on,12,0,5,,,,,,,,2,,,83,0
66905,note_on,89,0,9,,,,,,,,3,,,81,0
66905,note_on,89,0,6,,,,,,,,2,,,65,0
66905,note_on,89,0,10,,,,,,,,3,,,65,0
66905,note_on,89,0,8,,,,,,,,3,,,84,0
66905,note_on,0,0,6,,,,,,,,2,,,72,0
66907,note_on,67,0,5,,,,,,,,2,,,84,0
66912,note_on,5,0,5,,,,,,,,2,,,83,85
66912,note_on,7,0,8,,,,,,,,3,,,81,43
66912,note_on,7,0,9,,,,,,,,3,,,77,43
66918,note_on,0,0,5,,,,,,,,2,,,81,85
66918,note_on,6,0,5,,,,,,,,2,,,83,0
66957,note_on,45,0,8,,,,,,,,3,,,81,0
66957,note_on,45,0,9,,,,,,,,3,,,77,0
66957,note_on,39,0,5,,,,,,,,2,,,81,0
66960,note_on,3,0,5,,,,,,,,2,,,79,85
66983,note_on,23,0,5,,,,,,,,2,,,79,0
66984,note_on,1,0,5,,,,,,,,2,,,77,85
67007,note_on,23,0,5,,,,,,,,2,,,77,0
67008,note_on,1,0,5,,,,,,,,2,,,77,85
67008,note_on,0,0,6,,,,,,,,2,,,65,64
67008,note_on,51,0,9,,,,,,,,3,,,77,43
67008,note_on,103,0,6,,,,,,,,2,,,69,64
67008,note_on,51,0,8,,,,,,,,3,,,81,43
67008,note_on,103,0,10,,,,,,,,3,,,65,43
67020,note_on,12,0,5,,,,,,,,2,,,77,0
67020,note_on,0,0,5,,,,,,,,2,,,79,85
67032,note_on,12,0,5,,,,,,,,2,,,79,0
67032,note_on,0,0,5,,,,,,,,2,,,81,85
67097,note_on,89,0,10,,,,,,,,3,,,65,0
67097,note_on,0,0,6,,,,,,,,2,,,69,0
67097,note_on,89,0,6,,,,,,,,2,,,65,0
67097,note_on,89,0,8,,,,,,,,3,,,81,0
67097,note_on,89,0,9,,,,,,,,3,,,77,0
67099,note_on,67,0,5,,,,,,,,2,,,81,0
67104,note_on,5,0,5,,,,,,,,2,,,79,85
67104,note_on,7,0,8,,,,,,,,3,,,77,43
67104,note_on,7,0,9,,,,,,,,3,,,74,43
67110,note_on,6,0,5,,,,,,,,2,,,79,0
67110,note_on,0,0,5,,,,,,,,2,,,77,85
67149,note_on,45,0,8,,,,,,,,3,,,77,0
67149,note_on,45,0,9,,,,,,,,3,,,74,0
67149,note_on,39,0,5,,,,,,,,2,,,77,0
67152,note_on,3,0,5,,,,,,,,2,,,76,85
67175,note_on,23,0,5,,,,,,,,2,,,76,0
67176,note_on,1,0,5,,,,,,,,2,,,74,85
67199,note_on,23,0,5,,,,,,,,2,,,74,0
67200,note_on,1,0,5,,,,,,,,2,,,73,85
67245,note_on,45,0,5,,,,,,,,2,,,73,0
67248,note_on,3,0,5,,,,,,,,2,,,74,92
67293,note_on,45,0,5,,,,,,,,2,,,74,0
67296,note_on,199,0,6,,,,,,,,2,,,62,85
67296,note_on,199,0,10,,,,,,,,3,,,62,43
67296,note_on,147,0,9,,,,,,,,3,,,65,43
67296,note_on,147,0,8,,,,,,,,3,,,69,43
67296,note_on,6270,0,7,,,,,,,,2,,,53,85
67296,note_on,3,0,5,,,,,,,,2,,,77,99
67296,note_on,1324,0,11,,,,,,,,3,,,41,43
67341,note_on,45,0,5,,,,,,,,2,,,77,0
67344,note_on,3,0,5,,,,,,,,2,,,74,106
67385,note_on,89,0,8,,,,,,,,3,,,69,0
67385,note_on,89,0,7,,,,,,,,2,,,53,0
67385,note_on,89,0,9,,,,,,,,3,,,65,0
67385,note_on,89,0,6,,,,,,,,2,,,62,0
67385,note_on,89,0,11,,,,,,,,3,,,41,0
67385,note_on,89,0,10,,,,,,,,3,,,62,0
67389,note_on,45,0,5,,,,,,,,2,,,74,0
67392,note_on,7,0,7,,,,,,,,2,,,55,64
67392,note_on,7,0,10,,,,,,,,3,,,67,43
67392,note_on,7,0,8,,,,,,,,3,,,72,43
67392,note_on,3,0,5,,,,,,,,2,,,72,64
67392,note_on,7,0,9,,,,,,,,3,,,64,43
67392,note_on,7,0,11,,,,,,,,3,,,43,43
67392,note_on,7,0,6,,,,,,,,2,,,64,64
67481,note_on,89,0,10,,,,,,,,3,,,67,0
67481,note_on,89,0,9,,,,,,,,3,,,64,0
67481,note_on,89,0,5,,,,,,,,2,,,72,0
67481,note_on,89,0,6,,,,,,,,2,,,64,0
67481,note_on,89,0,8,,,,,,,,3,,,72,0
67488,note_on,7,0,10,,,,,,,,3,,,59,43
67488,note_on,7,0,6,,,,,,,,2,,,59,64
67488,note_on,7,0,8,,,,,,,,3,,,76,43
67488,note_on,7,0,5,,,,,,,,2,,,76,64
67488,note_on,7,0,9,,,,,,,,3,,,67,43
67494,note_on,0,0,9,,,,,,,,3,,,65,43
67494,note_on,6,0,8,,,,,,,,3,,,76,0
67494,note_on,0,0,8,,,,,,,,3,,,74,43
67494,note_on,6,0,9,,,,,,,,3,,,67,0
67494,note_on,6,0,5,,,,,,,,2,,,76,0
67494,note_on,0,0,5,,,,,,,,2,,,74,64
67569,note_on,177,0,7,,,,,,,,2,,,55,0
67569,end_of_track,0,1,7,,,,,,,,,,,,
67569,note_on,177,0,11,,,,,,,,3,,,43,0
67577,note_on,83,0,9,,,,,,,,3,,,65,0
67577,note_on,89,0,10,,,,,,,,3,,,59,0
67577,note_on,89,0,6,,,,,,,,2,,,59,0
67577,note_on,83,0,5,,,,,,,,2,,,74,0
67577,note_on,83,0,8,,,,,,,,3,,,74,0
67584,note_on,7,0,5,,,,,,,,2,,,72,64
67584,note_on,7,0,10,,,,,,,,3,,,60,43
67584,note_on,7,0,6,,,,,,,,2,,,60,64
67584,note_on,7,0,8,,,,,,,,3,,,71,43
67584,note_on,7,0,9,,,,,,,,3,,,64,43
67584,note_on,0,0,1,,,,,,,,0,,,72,43
67584,note_on,15,0,11,,,,,,,,3,,,36,43
67584,note_on,1566,0,1,,,,,,,,0,,,84,43
67607,note_on,23,0,5,,,,,,,,2,,,72,0
67608,note_on,1,0,5,,,,,,,,2,,,84,64
67631,note_on,23,0,5,,,,,,,,2,,,84,0
67632,note_on,1,0,5,,,,,,,,2,,,83,64
67655,note_on,23,0,5,,,,,,,,2,,,83,0
67656,note_on,1,0,5,,,,,,,,2,,,84,64
67673,note_on,89,0,6,,,,,,,,2,,,60,0
67673,note_on,89,0,8,,,,,,,,3,,,71,0
67673,note_on,89,0,10,,,,,,,,3,,,60,0
67673,note_on,89,0,11,,,,,,,,3,,,36,0
67673,note_on,89,0,9,,,,,,,,3,,,64,0
67679,note_on,23,0,5,,,,,,,,2,,,84,0
67680,note_on,1,0,5,,,,,,,,2,,,86,64
67703,note_on,23,0,5,,,,,,,,2,,,86,0
67704,note_on,1,0,5,,,,,,,,2,,,84,64
67727,note_on,23,0,5,,,,,,,,2,,,84,0
67728,note_on,1,0,5,,,,,,,,2,,,83,64
67751,note_on,23,0,5,,,,,,,,2,,,83,0
67752,note_on,1,0,5,,,,,,,,2,,,84,64
67775,note_on,23,0,5,,,,,,,,2,,,84,0
67776,note_on,1,0,5,,,,,,,,2,,,88,64
67799,note_on,23,0,5,,,,,,,,2,,,88,0
67800,note_on,1,0,5,,,,,,,,2,,,84,64
67823,note_on,23,0,5,,,,,,,,2,,,84,0
67824,note_on,1,0,5,,,,,,,,2,,,83,64
67847,note_on,23,0,5,,,,,,,,2,,,83,0
67848,note_on,1,0,5,,,,,,,,2,,,84,64
67871,note_on,23,0,5,,,,,,,,2,,,84,0
67872,note_on,199,0,9,,,,,,,,3,,,79,43
67872,note_on,1,0,5,,,,,,,,2,,,79,64
67872,note_on,199,0,10,,,,,,,,3,,,76,43
67872,note_on,199,0,6,,,,,,,,2,,,76,85
67872,note_on,199,0,8,,,,,,,,3,,,84,43
67892,note_on,20,0,9,,,,,,,,3,,,79,0
67892,note_on,20,0,6,,,,,,,,2,,,76,0
67892,note_on,20,0,10,,,,,,,,3,,,76,0
67892,note_on,20,0,8,,,,,,,,3,,,84,0
67895,note_on,23,0,5,,,,,,,,2,,,79,0
67896,note_on,1,0,5,,,,,,,,2,,,84,64
67919,note_on,23,0,5,,,,,,,,2,,,84,0
67920,note_on,28,0,8,,,,,,,,3,,,84,43
67920,note_on,28,0,10,,,,,,,,3,,,77,43
67920,note_on,28,0,9,,,,,,,,3,,,81,43
67920,note_on,1,0,5,,,,,,,,2,,,81,64
67920,note_on,28,0,6,,,,,,,,2,,,77,85
67940,note_on,20,0,6,,,,,,,,2,,,77,0
67940,note_on,20,0,9,,,,,,,,3,,,81,0
67940,note_on,20,0,8,,,,,,,,3,,,84,0
67940,note_on,20,0,10,,,,,,,,3,,,77,0
67943,note_on,23,0,5,,,,,,,,2,,,81,0
67944,note_on,1,0,5,,,,,,,,2,,,84,64
67967,note_on,23,0,5,,,,,,,,2,,,84,0
67968,note_on,28,0,6,,,,,,,,2,,,76,85
67968,note_on,28,0,8,,,,,,,,3,,,84,43
67968,note_on,28,0,10,,,,,,,,3,,,76,43
67968,note_on,28,0,9,,,,,,,,3,,,79,43
67968,note_on,1,0,5,,,,,,,,2,,,79,64
67991,note_on,23,0,5,,,,,,,,2,,,79,0
67992,note_on,1,0,5,,,,,,,,2,,,84,64
68007,note_on,39,0,6,,,,,,,,2,,,76,0
68007,note_on,39,0,8,,,,,,,,3,,,84,0
68007,note_on,39,0,10,,,,,,,,3,,,76,0
68007,note_on,39,0,9,,,,,,,,3,,,79,0
68015,note_on,23,0,5,,,,,,,,2,,,84,0
68016,note_on,1,0,5,,,,,,,,2,,,83,64
68039,note_on,23,0,5,,,,,,,,2,,,83,0
68040,note_on,1,0,5,,,,,,,,2,,,84,64
68063,note_on,23,0,5,,,,,,,,2,,,84,0
68064,note_on,1,0,5,,,,,,,,2,,,86,64
68087,note_on,23,0,5,,,,,,,,2,,,86,0
68088,note_on,1,0,5,,,,,,,,2,,,84,64
68111,note_on,23,0,5,,,,,,,,2,,,84,0
68112,note_on,1,0,5,,,,,,,,2,,,83,64
68135,note_on,23,0,5,,,,,,,,2,,,83,0
68136,note_on,1,0,5,,,,,,,,2,,,84,64
68159,note_on,23,0,5,,,,,,,,2,,,84,0
68160,note_on,1,0,5,,,,,,,,2,,,88,64
68183,note_on,23,0,5,,,,,,,,2,,,88,0
68184,note_on,1,0,5,,,,,,,,2,,,84,64
68207,note_on,23,0,5,,,,,,,,2,,,84,0
68208,note_on,1,0,5,,,,,,,,2,,,83,64
68231,note_on,23,0,5,,,,,,,,2,,,83,0
68232,note_on,1,0,5,,,,,,,,2,,,84,64
68255,note_on,23,0,5,,,,,,,,2,,,84,0
68256,note_on,249,0,10,,,,,,,,3,,,67,43
68256,note_on,249,0,6,,,,,,,,2,,,67,85
68256,note_on,249,0,9,,,,,,,,3,,,76,43
68256,note_on,249,0,8,,,,,,,,3,,,84,43
68256,note_on,1,0,5,,,,,,,,2,,,76,64
68276,note_on,20,0,8,,,,,,,,3,,,84,0
68276,note_on,20,0,10,,,,,,,,3,,,67,0
68276,note_on,20,0,9,,,,,,,,3,,,76,0
68276,note_on,20,0,6,,,,,,,,2,,,67,0
68279,note_on,23,0,5,,,,,,,,2,,,76,0
68280,note_on,1,0,5,,,,,,,,2,,,84,64
68303,note_on,23,0,5,,,,,,,,2,,,84,0
68304,note_on,28,0,9,,,,,,,,3,,,77,43
68304,note_on,28,0,6,,,,,,,,2,,,69,85
68304,note_on,1,0,5,,,,,,,,2,,,77,64
68304,note_on,28,0,10,,,,,,,,3,,,69,43
68304,note_on,28,0,8,,,,,,,,3,,,84,43
68324,note_on,20,0,9,,,,,,,,3,,,77,0
68324,note_on,20,0,6,,,,,,,,2,,,69,0
68324,note_on,20,0,10,,,,,,,,3,,,69,0
68324,note_on,20,0,8,,,,,,,,3,,,84,0
68327,note_on,23,0,5,,,,,,,,2,,,77,0
68328,note_on,1,0,5,,,,,,,,2,,,84,64
68351,note_on,23,0,5,,,,,,,,2,,,84,0
68352,note_on,0,0,3,,,,,,,,1,,,60,43
68352,note_on,28,0,8,,,,,,,,3,,,84,43
68352,note_on,28,0,9,,,,,,,,3,,,76,43
68352,note_on,28,0,10,,,,,,,,3,,,67,43
68352,note_on,28,0,6,,,,,,,,2,,,67,85
68352,note_on,2355,0,3,,,,,,,,1,,,72,43
68352,note_on,1,0,5,,,,,,,,2,,,76,64
68375,note_on,23,0,5,,,,,,,,2,,,76,0
68376,note_on,1,0,5,,,,,,,,2,,,84,64
68391,note_on,39,0,9,,,,,,,,3,,,76,0
68391,note_on,39,0,10,,,,,,,,3,,,67,0
68391,note_on,39,0,8,,,,,,,,3,,,84,0
68399,note_on,23,0,5,,,,,,,,2,,,84,0
68400,note_on,1,0,5,,,,,,,,2,,,83,64
68423,note_on,23,0,5,,,,,,,,2,,,83,0
68424,note_on,1,0,5,,,,,,,,2,,,84,64
68441,note_on,89,0,6,,,,,,,,2,,,67,0
68447,note_on,23,0,5,,,,,,,,2,,,84,0
68448,note_on,1,0,5,,,,,,,,2,,,86,64
68471,note_on,23,0,5,,,,,,,,2,,,86,0
68472,note_on,1,0,5,,,,,,,,2,,,84,64
68495,note_on,23,0,5,,,,,,,,2,,,84,0
68496,note_on,1,0,5,,,,,,,,2,,,83,64
68519,note_on,23,0,5,,,,,,,,2,,,83,0
68520,note_on,1,0,5,,,,,,,,2,,,84,64
68543,note_on,23,0,5,,,,,,,,2,,,84,0
68544,note_on,1,0,5,,,,,,,,2,,,88,64
68567,note_on,23,0,5,,,,,,,,2,,,88,0
68568,note_on,1,0,5,,,,,,,,2,,,84,64
68591,note_on,23,0,5,,,,,,,,2,,,84,0
68592,note_on,1,0,5,,,,,,,,2,,,83,64
68615,note_on,23,0,5,,,,,,,,2,,,83,0
68616,note_on,1,0,5,,,,,,,,2,,,84,64
68639,note_on,23,0,5,,,,,,,,2,,,84,0
68640,note_on,1,0,5,,,,,,,,2,,,79,64
68640,note_on,249,0,8,,,,,,,,3,,,84,43
68640,note_on,249,0,9,,,,,,,,3,,,67,43
68640,note_on,199,0,6,,,,,,,,2,,,64,85
68640,note_on,249,0,10,,,,,,,,3,,,64,43
68660,note_on,20,0,6,,,,,,,,2,,,64,0
68660,note_on,20,0,8,,,,,,,,3,,,84,0
68660,note_on,20,0,9,,,,,,,,3,,,67,0
68660,note_on,20,0,10,,,,,,,,3,,,64,0
68663,note_on,23,0,5,,,,,,,,2,,,79,0
68664,note_on,1,0,5,,,,,,,,2,,,84,64
68687,note_on,23,0,5,,,,,,,,2,,,84,0
68688,note_on,28,0,10,,,,,,,,3,,,65,43
68688,note_on,1,0,5,,,,,,,,2,,,81,64
68688,note_on,28,0,9,,,,,,,,3,,,69,43
68688,note_on,28,0,8,,,,,,,,3,,,84,43
68688,note_on,28,0,6,,,,,,,,2,,,65,85
68708,note_on,20,0,10,,,,,,,,3,,,65,0
68708,note_on,20,0,6,,,,,,,,2,,,65,0
68708,note_on,20,0,8,,,,,,,,3,,,84,0
68708,note_on,20,0,9,,,,,,,,3,,,69,0
68711,note_on,23,0,5,,,,,,,,2,,,81,0
68712,note_on,1,0,5,,,,,,,,2,,,84,64
68735,note_on,23,0,5,,,,,,,,2,,,84,0
68736,note_on,1,0,5,,,,,,,,2,,,79,64
68736,note_on,28,0,6,,,,,,,,2,,,64,64
68736,note_on,28,0,10,,,,,,,,3,,,64,43
68736,note_on,28,0,9,,,,,,,,3,,,67,43
68736,note_on,28,0,8,,,,,,,,3,,,84,43
68759,note_on,23,0,6,,,,,,,,2,,,64,0
68760,note_on,1,0,6,,,,,,,,2,,,72,64
68775,note_on,39,0,10,,,,,,,,3,,,64,0
68783,note_on,23,0,6,,,,,,,,2,,,72,0
68784,note_on,1,0,6,,,,,,,,2,,,67,64
68807,note_on,23,0,6,,,,,,,,2,,,67,0
68808,note_on,1,0,6,,,,,,,,2,,,72,64
68825,note_on,0,0,1,,,,,,,,0,,,84,0
68825,note_on,473,0,3,,,,,,,,1,,,60,0
68825,note_on,0,0,3,,,,,,,,1,,,72,0
68825,note_on,1241,0,1,,,,,,,,0,,,72,0
68825,note_on,89,0,8,,,,,,,,3,,,84,0
68825,note_on,89,0,9,,,,,,,,3,,,67,0
68825,note_on,89,0,5,,,,,,,,2,,,79,0
68831,note_on,23,0,6,,,,,,,,2,,,72,0
68832,note_on,7,0,5,,,,,,,,2,,,84,64
68832,note_on,1,0,6,,,,,,,,2,,,64,64
68855,note_on,23,0,6,,,,,,,,2,,,64,0
68856,note_on,1,0,6,,,,,,,,2,,,72,64
68879,note_on,23,0,6,,,,,,,,2,,,72,0
68880,note_on,1,0,6,,,,,,,,2,,,67,64
68903,note_on,23,0,6,,,,,,,,2,,,67,0
68904,note_on,1,0,6,,,,,,,,2,,,72,64
68927,note_on,23,0,6,,,,,,,,2,,,72,0
68928,note_on,1,0,6,,,,,,,,2,,,64,64
68951,note_on,23,0,6,,,,,,,,2,,,64,0
68952,note_on,1,0,6,,,,,,,,2,,,72,64
68965,note_on,133,0,5,,,,,,,,2,,,84,0
68975,note_on,23,0,6,,,,,,,,2,,,72,0
68976,note_on,1,0,6,,,,,,,,2,,,67,64
68976,note_on,11,0,5,,,,,,,,2,,,82,64
68999,note_on,23,0,6,,,,,,,,2,,,67,0
69000,note_on,1,0,6,,,,,,,,2,,,72,64
69021,note_on,45,0,5,,,,,,,,2,,,82,0
69023,note_on,23,0,6,,,,,,,,2,,,72,0
69024,note_on,3,0,5,,,,,,,,2,,,84,64
69024,note_on,1,0,6,,,,,,,,2,,,64,64
69030,note_on,6,0,5,,,,,,,,2,,,84,0
69030,note_on,0,0,5,,,,,,,,2,,,82,64
69047,note_on,23,0,6,,,,,,,,2,,,64,0
69048,note_on,1,0,6,,,,,,,,2,,,72,64
69069,note_on,39,0,5,,,,,,,,2,,,82,0
69071,note_on,23,0,6,,,,,,,,2,,,72,0
69072,note_on,3,0,5,,,,,,,,2,,,81,64
69072,note_on,1,0,6,,,,,,,,2,,,67,64
69095,note_on,23,0,5,,,,,,,,2,,,81,0
69095,note_on,23,0,6,,,,,,,,2,,,67,0
69096,note_on,1,0,6,,,,,,,,2,,,72,64
69096,note_on,1,0,5,,,,,,,,2,,,82,64
69119,note_on,23,0,6,,,,,,,,2,,,72,0
69119,note_on,23,0,5,,,,,,,,2,,,82,0
69120,note_on,295,0,8,,,,,,,,3,,,81,43
69120,note_on,345,0,10,,,,,,,,3,,,65,43
69120,note_on,1,0,6,,,,,,,,2,,,65,64
69120,note_on,1,0,5,,,,,,,,2,,,80,64
69120,note_on,295,0,9,,,,,,,,3,,,72,43
69126,note_on,6,0,5,,,,,,,,2,,,80,0
69126,note_on,0,0,5,,,,,,,,2,,,81,64
69143,note_on,23,0,6,,,,,,,,2,,,65,0
69144,note_on,1,0,6,,,,,,,,2,,,72,64
69167,note_on,23,0,6,,,,,,,,2,,,72,0
69168,note_on,1,0,6,,,,,,,,2,,,69,64
69191,note_on,23,0,6,,,,,,,,2,,,69,0
69192,note_on,1,0,6,,,,,,,,2,,,72,64
69209,note_on,89,0,8,,,,,,,,3,,,81,0
69209,note_on,83,0,5,,,,,,,,2,,,81,0
69209,note_on,89,0,9,,,,,,,,3,,,72,0
69209,note_on,89,0,10,,,,,,,,3,,,65,0
69215,note_on,23,0,6,,,,,,,,2,,,72,0
69216,note_on,7,0,5,,,,,,,,2,,,81,85
69216,note_on,1,0,6,,,,,,,,2,,,65,64
69239,note_on,23,0,6,,,,,,,,2,,,65,0
69240,note_on,1,0,6,,,,,,,,2,,,72,64
69263,note_on,23,0,6,,,,,,,,2,,,72,0
69264,note_on,1,0,6,,,,,,,,2,,,69,64
69287,note_on,23,0,6,,,,,,,,2,,,69,0
69288,note_on,1,0,6,,,,,,,,2,,,72,64
69311,note_on,23,0,6,,,,,,,,2,,,72,0
69312,note_on,1,0,6,,,,,,,,2,,,53,64
69335,note_on,23,0,6,,,,,,,,2,,,53,0
69336,note_on,1,0,6,,,,,,,,2,,,60,64
69349,note_on,133,0,5,,,,,,,,2,,,81,0
69359,note_on,23,0,6,,,,,,,,2,,,60,0
69360,note_on,1,0,6,,,,,,,,2,,,57,64
69360,note_on,11,0,5,,,,,,,,2,,,84,64
69383,note_on,23,0,6,,,,,,,,2,,,57,0
69384,note_on,1,0,6,,,,,,,,2,,,60,64
69405,note_on,45,0,5,,,,,,,,2,,,84,0
69407,note_on,23,0,6,,,,,,,,2,,,60,0
69408,note_on,1,0,6,,,,,,,,2,,,53,64
69408,note_on,3,0,5,,,,,,,,2,,,83,64
69431,note_on,23,0,6,,,,,,,,2,,,53,0
69432,note_on,1,0,6,,,,,,,,2,,,62,64
69453,note_on,45,0,5,,,,,,,,2,,,83,0
69455,note_on,23,0,6,,,,,,,,2,,,62,0
69456,note_on,3,0,5,,,,,,,,2,,,81,64
69456,note_on,1,0,6,,,,,,,,2,,,57,64
69479,note_on,23,0,6,,,,,,,,2,,,57,0
69480,note_on,1,0,6,,,,,,,,2,,,62,64
69501,note_on,45,0,5,,,,,,,,2,,,81,0
69503,note_on,23,0,6,,,,,,,,2,,,62,0
69504,note_on,0,0,6,,,,,,,,2,,,55,64
69504,note_on,3,0,5,,,,,,,,2,,,79,64
69504,note_on,295,0,9,,,,,,,,3,,,72,43
69504,note_on,295,0,10,,,,,,,,3,,,67,43
69504,note_on,1,0,6,,,,,,,,2,,,64,64
69504,note_on,295,0,8,,,,,,,,3,,,76,43
69549,note_on,45,0,9,,,,,,,,3,,,72,0
69549,note_on,45,0,6,,,,,,,,2,,,55,0
69549,note_on,45,0,8,,,,,,,,3,,,76,0
69549,note_on,0,0,6,,,,,,,,2,,,64,0
69549,note_on,45,0,5,,,,,,,,2,,,79,0
69549,note_on,45,0,10,,,,,,,,3,,,67,0
69552,note_on,3,0,6,,,,,,,,2,,,64,64
69552,note_on,3,0,9,,,,,,,,3,,,72,43
69552,note_on,3,0,8,,,,,,,,3,,,76,43
69552,note_on,0,0,6,,,,,,,,2,,,55,64
69552,note_on,3,0,5,,,,,,,,2,,,81,64
69552,note_on,3,0,10,,,,,,,,3,,,67,43
69575,note_on,23,0,5,,,,,,,,2,,,81,0
69576,note_on,1,0,5,,,,,,,,2,,,79,64
69597,note_on,45,0,9,,,,,,,,3,,,72,0
69597,note_on,45,0,8,,,,,,,,3,,,76,0
69597,note_on,0,0,6,,,,,,,,2,,,64,0
69597,note_on,45,0,6,,,,,,,,2,,,55,0
69597,note_on,45,0,10,,,,,,,,3,,,67,0
69599,note_on,23,0,5,,,,,,,,2,,,79,0
69600,note_on,3,0,9,,,,,,,,3,,,72,43
69600,note_on,3,0,6,,,,,,,,2,,,60,64
69600,note_on,1,0,5,,,,,,,,2,,,77,64
69600,note_on,3,0,10,,,,,,,,3,,,67,43
69600,note_on,0,0,6,,,,,,,,2,,,55,64
69600,note_on,3,0,8,,,,,,,,3,,,76,43
69623,note_on,23,0,5,,,,,,,,2,,,77,0
69624,note_on,1,0,5,,,,,,,,2,,,76,64
69645,note_on,45,0,9,,,,,,,,3,,,72,0
69645,note_on,45,0,10,,,,,,,,3,,,67,0
69645,note_on,0,0,6,,,,,,,,2,,,60,0
69645,note_on,45,0,6,,,,,,,,2,,,55,0
69645,note_on,45,0,8,,,,,,,,3,,,76,0
69647,note_on,23,0,5,,,,,,,,2,,,76,0
69648,note_on,1,0,5,,,,,,,,2,,,74,64
69648,note_on,3,0,6,,,,,,,,2,,,60,64
69648,note_on,3,0,9,,,,,,,,3,,,72,43
69648,note_on,0,0,6,,,,,,,,2,,,55,64
69648,note_on,3,0,10,,,,,,,,3,,,67,43
69648,note_on,3,0,8,,,,,,,,3,,,76,43
69671,note_on,23,0,5,,,,,,,,2,,,74,0
69672,note_on,1,0,5,,,,,,,,2,,,72,64
69693,note_on,45,0,10,,,,,,,,3,,,67,0
69693,note_on,45,0,6,,,,,,,,2,,,55,0
69693,note_on,45,0,8,,,,,,,,3,,,76,0
69693,note_on,45,0,9,,,,,,,,3,,,72,0
69693,note_on,0,0,6,,,,,,,,2,,,60,0
69695,note_on,23,0,5,,,,,,,,2,,,72,0
69696,note_on,3,0,10,,,,,,,,3,,,67,43
69696,note_on,3,0,9,,,,,,,,3,,,72,43
69696,note_on,0,0,6,,,,,,,,2,,,55,64
69696,note_on,1,0,5,,,,,,,,2,,,74,64
69696,note_on,3,0,8,,,,,,,,3,,,74,43
69696,note_on,3,0,6,,,,,,,,2,,,60,64
69708,note_on,0,0,5,,,,,,,,2,,,76,64
69708,note_on,12,0,5,,,,,,,,2,,,74,0
69720,note_on,0,0,5,,,,,,,,2,,,74,64
69720,note_on,12,0,5,,,,,,,,2,,,76,0
69732,note_on,0,0,5,,,,,,,,2,,,76,64
69732,note_on,12,0,5,,,,,,,,2,,,74,0
69741,note_on,45,0,6,,,,,,,,2,,,55,0
69741,note_on,0,0,6,,,,,,,,2,,,60,0
69741,note_on,45,0,10,,,,,,,,3,,,67,0
69741,note_on,45,0,8,,,,,,,,3,,,74,0
69741,note_on,45,0,9,,,,,,,,3,,,72,0
69744,note_on,3,0,10,,,,,,,,3,,,67,43
69744,note_on,3,0,6,,,,,,,,2,,,60,66
69744,note_on,0,0,6,,,,,,,,2,,,55,66
69744,note_on,3,0,8,,,,,,,,3,,,74,43
69744,note_on,12,0,5,,,,,,,,2,,,76,0
69744,note_on,0,0,5,,,,,,,,2,,,74,64
69744,note_on,3,0,9,,,,,,,,3,,,72,43
69756,note_on,12,0,5,,,,,,,,2,,,74,0
69756,note_on,0,0,5,,,,,,,,2,,,76,64
69768,note_on,0,0,5,,,,,,,,2,,,74,64
69768,note_on,12,0,5,,,,,,,,2,,,76,0
69780,note_on,0,0,5,,,,,,,,2,,,76,64
69780,note_on,12,0,5,,,,,,,,2,,,74,0
69789,note_on,45,0,9,,,,,,,,3,,,72,0
69789,note_on,0,0,6,,,,,,,,2,,,60,0
69789,note_on,45,0,8,,,,,,,,3,,,74,0
69789,note_on,45,0,6,,,,,,,,2,,,55,0
69789,note_on,45,0,10,,,,,,,,3,,,67,0
69792,note_on,12,0,5,,,,,,,,2,,,76,0
69792,note_on,0,0,6,,,,,,,,2,,,55,69
69792,note_on,3,0,6,,,,,,,,2,,,59,69
69792,note_on,0,0,5,,,,,,,,2,,,74,64
69792,note_on,3,0,10,,,,,,,,3,,,67,43
69792,note_on,3,0,8,,,,,,,,3,,,74,43
69792,note_on,3,0,9,,,,,,,,3,,,71,43
69804,note_on,0,0,5,,,,,,,,2,,,76,64
69804,note_on,12,0,5,,,,,,,,2,,,74,0
69816,note_on,12,0,5,,,,,,,,2,,,76,0
69816,note_on,0,0,5,,,,,,,,2,,,74,64
69828,note_on,0,0,5,,,,,,,,2,,,76,64
69828,note_on,12,0,5,,,,,,,,2,,,74,0
69837,note_on,45,0,10,,,,,,,,3,,,67,0
69837,note_on,45,0,8,,,,,,,,3,,,74,0
69837,note_on,0,0,6,,,,,,,,2,,,59,0
69837,note_on,45,0,6,,,,,,,,2,,,55,0
69837,note_on,45,0,9,,,,,,,,3,,,71,0
69840,note_on,3,0,8,,,,,,,,3,,,74,43
69840,note_on,12,0,5,,,,,,,,2,,,76,0
69840,note_on,3,0,9,,,,,,,,3,,,71,43
69840,note_on,3,0,6,,,,,,,,2,,,59,71
69840,note_on,0,0,6,,,,,,,,2,,,55,71
69840,note_on,3,0,10,,,,,,,,3,,,67,43
69840,note_on,0,0,5,,,,,,,,2,,,74,64
69852,note_on,0,0,5,,,,,,,,2,,,76,64
69852,note_on,12,0,5,,,,,,,,2,,,74,0
69864,note_on,12,0,5,,,,,,,,2,,,76,0
69864,note_on,0,0,5,,,,,,,,2,,,74,64
69873,note_on,9,0,5,,,,,,,,2,,,74,0
69885,note_on,0,0,6,,,,,,,,2,,,59,0
69885,note_on,45,0,8,,,,,,,,3,,,74,0
69885,note_on,45,0,6,,,,,,,,2,,,55,0
69885,note_on,45,0,9,,,,,,,,3,,,71,0
69885,note_on,45,0,10,,,,,,,,3,,,67,0
69888,note_on,3,0,9,,,,,,,,3,,,72,43
69888,note_on,3,0,10,,,,,,,,3,,,67,43
69888,note_on,0,0,6,,,,,,,,2,,,48,74
69888,note_on,2215,0,11,,,,,,,,3,,,36,43
69888,note_on,3,0,8,,,,,,,,3,,,76,43
69888,note_on,15,0,5,,,,,,,,2,,,76,76
69888,note_on,3,0,6,,,,,,,,2,,,60,74
69911,note_on,23,0,5,,,,,,,,2,,,76,0
69912,note_on,1,0,5,,,,,,,,2,,,72,78
69927,note_on,39,0,10,,,,,,,,3,,,67,0
69927,note_on,39,0,8,,,,,,,,3,,,76,0
69927,note_on,39,0,11,,,,,,,,3,,,36,0
69927,note_on,39,0,9,,,,,,,,3,,,72,0
69935,note_on,23,0,5,,,,,,,,2,,,72,0
69936,note_on,1,0,5,,,,,,,,2,,,74,80
69959,note_on,23,0,5,,,,,,,,2,,,74,0
69960,note_on,1,0,5,,,,,,,,2,,,76,81
69977,note_on,0,0,6,,,,,,,,2,,,60,0
69977,note_on,89,0,6,,,,,,,,2,,,48,0
69983,note_on,23,0,5,,,,,,,,2,,,76,0
69984,note_on,0,0,6,,,,,,,,2,,,50,79
69984,note_on,7,0,6,,,,,,,,2,,,62,79
69984,note_on,57,0,8,,,,,,,,3,,,74,43
69984,note_on,57,0,9,,,,,,,,3,,,71,43
69984,note_on,57,0,10,,,,,,,,3,,,65,43
69984,note_on,57,0,11,,,,,,,,3,,,38,43
69984,note_on,1,0,5,,,,,,,,2,,,77,83
70007,note_on,23,0,5,,,,,,,,2,,,77,0
70008,note_on,1,0,5,,,,,,,,2,,,79,85
70023,note_on,39,0,10,,,,,,,,3,,,65,0
70023,note_on,39,0,11,,,,,,,,3,,,38,0
70023,note_on,39,0,9,,,,,,,,3,,,71,0
70023,note_on,39,0,8,,,,,,,,3,,,74,0
70031,note_on,23,0,5,,,,,,,,2,,,79,0
70032,note_on,1,0,5,,,,,,,,2,,,81,83
70055,note_on,23,0,5,,,,,,,,2,,,81,0
70056,note_on,1,0,5,,,,,,,,2,,,83,81
70073,note_on,89,0,6,,,,,,,,2,,,50,0
70073,note_on,0,0,6,,,,,,,,2,,,62,0
70079,note_on,23,0,5,,,,,,,,2,,,83,0
70080,note_on,0,0,6,,,,,,,,2,,,52,85
70080,note_on,7,0,6,,,,,,,,2,,,64,85
70080,note_on,1,0,5,,,,,,,,2,,,84,79
70080,note_on,57,0,9,,,,,,,,3,,,72,43
70080,note_on,57,0,11,,,,,,,,3,,,40,43
70080,note_on,57,0,10,,,,,,,,3,,,67,43
70080,note_on,57,0,8,,,,,,,,3,,,72,43
70103,note_on,23,0,5,,,,,,,,2,,,84,0
70104,note_on,1,0,5,,,,,,,,2,,,83,77
70119,note_on,39,0,9,,,,,,,,3,,,72,0
70119,note_on,39,0,10,,,,,,,,3,,,67,0
70119,note_on,39,0,11,,,,,,,,3,,,40,0
70119,note_on,39,0,8,,,,,,,,3,,,72,0
70127,note_on,23,0,5,,,,,,,,2,,,83,0
70128,note_on,1,0,5,,,,,,,,2,,,84,75
70151,note_on,23,0,5,,,,,,,,2,,,84,0
70152,note_on,1,0,5,,,,,,,,2,,,86,73
70169,note_on,0,0,6,,,,,,,,2,,,64,0
70169,note_on,89,0,6,,,,,,,,2,,,52,0
70175,note_on,23,0,5,,,,,,,,2,,,86,0
70176,note_on,1,0,5,,,,,,,,2,,,84,71
70199,note_on,23,0,5,,,,,,,,2,,,84,0
70200,note_on,1,0,5,,,,,,,,2,,,82,69
70223,note_on,23,0,5,,,,,,,,2,,,82,0
70224,note_on,1,0,5,,,,,,,,2,,,81,67
70247,note_on,23,0,5,,,,,,,,2,,,81,0
70248,note_on,1,0,5,,,,,,,,2,,,80,65
70271,note_on,23,0,5,,,,,,,,2,,,80,0
70272,note_on,153,0,9,,,,,,,,3,,,56,43
70272,note_on,1,0,5,,,,,,,,2,,,81,64
70272,note_on,153,0,10,,,,,,,,3,,,69,43
70272,note_on,153,0,11,,,,,,,,3,,,41,43
70272,note_on,0,0,10,,,,,,,,3,,,65,43
70272,note_on,153,0,8,,,,,,,,3,,,68,43
70272,note_on,0,0,6,,,,,,,,2,,,53,64
70272,note_on,103,0,6,,,,,,,,2,,,57,64
70278,note_on,6,0,9,,,,,,,,3,,,56,0
70278,note_on,0,0,9,,,,,,,,3,,,57,43
70278,note_on,6,0,8,,,,,,,,3,,,68,0
70278,note_on,0,0,8,,,,,,,,3,,,69,43
70295,note_on,23,0,5,,,,,,,,2,,,81,0
70296,note_on,1,0,5,,,,,,,,2,,,83,64
70317,note_on,39,0,9,,,,,,,,3,,,57,0
70317,note_on,39,0,8,,,,,,,,3,,,69,0
70319,note_on,23,0,5,,,,,,,,2,,,83,0
70320,note_on,1,0,5,,,,,,,,2,,,84,64
70343,note_on,23,0,5,,,,,,,,2,,,84,0
70344,note_on,1,0,5,,,,,,,,2,,,81,64
70361,note_on,89,0,6,,,,,,,,2,,,53,0
70361,note_on,0,0,6,,,,,,,,2,,,57,0
70367,note_on,23,0,5,,,,,,,,2,,,81,0
70368,note_on,1,0,5,,,,,,,,2,,,77,64
70368,note_on,7,0,6,,,,,,,,2,,,57,64
70368,note_on,0,0,6,,,,,,,,2,,,53,64
70368,note_on,51,0,9,,,,,,,,3,,,61,43
70368,note_on,51,0,8,,,,,,,,3,,,73,43
70374,note_on,0,0,8,,,,,,,,3,,,74,43
70374,note_on,6,0,8,,,,,,,,3,,,73,0
70374,note_on,6,0,9,,,,,,,,3,,,61,0
70374,note_on,0,0,9,,,,,,,,3,,,62,43
70391,note_on,23,0,5,,,,,,,,2,,,77,0
70392,note_on,1,0,5,,,,,,,,2,,,79,64
70413,note_on,39,0,9,,,,,,,,3,,,62,0
70413,note_on,39,0,8,,,,,,,,3,,,74,0
70415,note_on,23,0,5,,,,,,,,2,,,79,0
70416,note_on,1,0,5,,,,,,,,2,,,81,64
70439,note_on,23,0,5,,,,,,,,2,,,81,0
70440,note_on,1,0,5,,,,,,,,2,,,77,64
70457,note_on,0,0,6,,,,,,,,2,,,57,0
70457,note_on,89,0,6,,,,,,,,2,,,53,0
70463,note_on,23,0,5,,,,,,,,2,,,77,0
70464,note_on,51,0,9,,,,,,,,3,,,64,43
70464,note_on,0,0,6,,,,,,,,2,,,53,64
70464,note_on,51,0,8,,,,,,,,3,,,76,43
70464,note_on,7,0,6,,,,,,,,2,,,57,64
70464,note_on,1,0,5,,,,,,,,2,,,74,64
70470,note_on,0,0,8,,,,,,,,3,,,77,43
70470,note_on,6,0,8,,,,,,,,3,,,76,0
70470,note_on,0,0,9,,,,,,,,3,,,65,43
70470,note_on,6,0,9,,,,,,,,3,,,64,0
70487,note_on,23,0,5,,,,,,,,2,,,74,0
70488,note_on,1,0,5,,,,,,,,2,,,76,64
70509,note_on,39,0,8,,,,,,,,3,,,77,0
70509,note_on,39,0,9,,,,,,,,3,,,65,0
70511,note_on,23,0,5,,,,,,,,2,,,76,0
70512,note_on,1,0,5,,,,,,,,2,,,77,64
70535,note_on,23,0,5,,,,,,,,2,,,77,0
70536,note_on,1,0,5,,,,,,,,2,,,74,64
70553,note_on,89,0,6,,,,,,,,2,,,53,0
70553,note_on,0,0,6,,,,,,,,2,,,57,0
70559,note_on,23,0,5,,,,,,,,2,,,74,0
70560,note_on,1,0,5,,,,,,,,2,,,80,64
70560,note_on,51,0,9,,,,,,,,3,,,68,43
70560,note_on,0,0,6,,,,,,,,2,,,53,64
70560,note_on,7,0,6,,,,,,,,2,,,57,64
70560,note_on,51,0,8,,,,,,,,3,,,80,43
70566,note_on,6,0,9,,,,,,,,3,,,68,0
70566,note_on,0,0,8,,,,,,,,3,,,81,43
70566,note_on,6,0,8,,,,,,,,3,,,80,0
70566,note_on,0,0,9,,,,,,,,3,,,69,43
70583,note_on,23,0,5,,,,,,,,2,,,80,0
70584,note_on,1,0,5,,,,,,,,2,,,81,64
70605,note_on,39,0,8,,,,,,,,3,,,81,0
70605,note_on,39,0,9,,,,,,,,3,,,69,0
70607,note_on,23,0,5,,,,,,,,2,,,81,0
70608,note_on,1,0,5,,,,,,,,2,,,77,64
70626,note_on,354,0,10,,,,,,,,3,,,65,0
70626,note_on,354,0,11,,,,,,,,3,,,41,0
70626,note_on,0,0,10,,,,,,,,3,,,69,0
70631,note_on,23,0,5,,,,,,,,2,,,77,0
70632,note_on,1,0,5,,,,,,,,2,,,74,64
70649,note_on,0,0,6,,,,,,,,2,,,57,0
70649,note_on,89,0,6,,,,,,,,2,,,53,0
70655,note_on,23,0,5,,,,,,,,2,,,74,0
70656,note_on,30,0,11,,,,,,,,3,,,43,43
70656,note_on,7,0,6,,,,,,,,2,,,55,64
70656,note_on,1,0,5,,,,,,,,2,,,76,64
70679,note_on,23,0,6,,,,,,,,2,,,55,0
70680,note_on,1,0,6,,,,,,,,2,,,64,64
70703,note_on,23,0,6,,,,,,,,2,,,64,0
70704,note_on,99,0,9,,,,,,,,3,,,76,43
70704,note_on,78,0,10,,,,,,,,3,,,67,43
70704,note_on,1,0,6,,,,,,,,2,,,60,64
70704,note_on,99,0,8,,,,,,,,3,,,79,43
70723,note_on,67,0,5,,,,,,,,2,,,76,0
70727,note_on,23,0,6,,,,,,,,2,,,60,0
70728,note_on,1,0,6,,,,,,,,2,,,64,64
70728,note_on,5,0,5,,,,,,,,2,,,72,68
70745,note_on,89,0,11,,,,,,,,3,,,43,0
70749,note_on,45,0,8,,,,,,,,3,,,79,0
70749,note_on,45,0,10,,,,,,,,3,,,67,0
70749,note_on,45,0,9,,,,,,,,3,,,76,0
70751,note_on,23,0,6,,,,,,,,2,,,64,0
70751,note_on,23,0,5,,,,,,,,2,,,72,0
70752,note_on,1,0,6,,,,,,,,2,,,55,64
70752,note_on,1,0,5,,,,,,,,2,,,79,69
70752,note_on,3,0,8,,,,,,,,3,,,79,43
70752,note_on,3,0,9,,,,,,,,3,,,76,43
70752,note_on,3,0,10,,,,,,,,3,,,67,43
70775,note_on,23,0,6,,,,,,,,2,,,55,0
70776,note_on,1,0,6,,,,,,,,2,,,64,64
70797,note_on,45,0,9,,,,,,,,3,,,76,0
70797,note_on,45,0,10,,,,,,,,3,,,67,0
70797,note_on,45,0,8,,,,,,,,3,,,79,0
70799,note_on,23,0,6,,,,,,,,2,,,64,0
70800,note_on,3,0,9,,,,,,,,3,,,76,43
70800,note_on,3,0,10,,,,,,,,3,,,67,43
70800,note_on,1,0,6,,,,,,,,2,,,60,64
70800,note_on,3,0,8,,,,,,,,3,,,79,43
70819,note_on,67,0,5,,,,,,,,2,,,79,0
70823,note_on,23,0,6,,,,,,,,2,,,60,0
70824,note_on,5,0,5,,,,,,,,2,,,76,73
70824,note_on,1,0,6,,,,,,,,2,,,64,64
70845,note_on,45,0,8,,,,,,,,3,,,79,0
70845,note_on,45,0,10,,,,,,,,3,,,67,0
70845,note_on,45,0,9,,,,,,,,3,,,76,0
70847,note_on,23,0,5,,,,,,,,2,,,76,0
70847,note_on,23,0,6,,,,,,,,2,,,64,0
70848,note_on,2023,0,1,,,,,,,,0,,,76,43
70848,note_on,103,0,11,,,,,,,,3,,,43,43
70848,note_on,1,0,5,,,,,,,,2,,,84,75
70848,note_on,17886,0,4,,,,,,,,1,,,72,43
70848,note_on,3,0,8,,,,,,,,3,,,76,43
70848,note_on,3,0,10,,,,,,,,3,,,67,43
70848,note_on,12583,0,2,,,,,,,,0,,,72,43
70848,note_on,1,0,6,,,,,,,,2,,,55,64
70848,note_on,3,0,9,,,,,,,,3,,,72,43
70848,note_on,2023,0,3,,,,,,,,1,,,76,43
70871,note_on,23,0,6,,,,,,,,2,,,55,0
70871,note_on,23,0,5,,,,,,,,2,,,84,0
70872,note_on,1,0,5,,,,,,,,2,,,83,76
70872,note_on,1,0,6,,,,,,,,2,,,64,64
70893,note_on,45,0,10,,,,,,,,3,,,67,0
70893,note_on,45,0,8,,,,,,,,3,,,76,0
70893,note_on,45,0,9,,,,,,,,3,,,72,0
70895,note_on,23,0,6,,,,,,,,2,,,64,0
70895,note_on,23,0,5,,,,,,,,2,,,83,0
70896,note_on,1,0,6,,,,,,,,2,,,60,64
70896,note_on,3,0,10,,,,,,,,3,,,67,43
70896,note_on,3,0,9,,,,,,,,3,,,72,43
70896,note_on,1,0,5,,,,,,,,2,,,81,78
70896,note_on,3,0,8,,,,,,,,3,,,76,43
70919,note_on,23,0,6,,,,,,,,2,,,60,0
70919,note_on,23,0,5,,,,,,,,2,,,81,0
70920,note_on,1,0,6,,,,,,,,2,,,64,64
70920,note_on,1,0,5,,,,,,,,2,,,79,79
70937,note_on,89,0,11,,,,,,,,3,,,43,0
70941,note_on,45,0,10,,,,,,,,3,,,67,0
70941,note_on,45,0,8,,,,,,,,3,,,76,0
70941,note_on,45,0,9,,,,,,,,3,,,72,0
70943,note_on,23,0,6,,,,,,,,2,,,64,0
70943,note_on,23,0,5,,,,,,,,2,,,79,0
70944,note_on,1,0,6,,,,,,,,2,,,55,64
70944,note_on,3,0,8,,,,,,,,3,,,76,43
70944,note_on,3,0,9,,,,,,,,3,,,72,43
70944,note_on,1,0,5,,,,,,,,2,,,77,80
70944,note_on,3,0,10,,,,,,,,3,,,67,43
70967,note_on,23,0,6,,,,,,,,2,,,55,0
70967,note_on,23,0,5,,,,,,,,2,,,77,0
70968,note_on,1,0,6,,,,,,,,2,,,64,64
70968,note_on,1,0,5,,,,,,,,2,,,76,82
70989,note_on,45,0,9,,,,,,,,3,,,72,0
70989,note_on,45,0,10,,,,,,,,3,,,67,0
70989,note_on,45,0,8,,,,,,,,3,,,76,0
70991,note_on,23,0,5,,,,,,,,2,,,76,0
70991,note_on,23,0,6,,,,,,,,2,,,64,0
70992,note_on,3,0,10,,,,,,,,3,,,67,43
70992,note_on,1,0,5,,,,,,,,2,,,74,83
70992,note_on,1,0,6,,,,,,,,2,,,60,64
70992,note_on,3,0,9,,,,,,,,3,,,72,43
70992,note_on,3,0,8,,,,,,,,3,,,76,43
71015,note_on,23,0,5,,,,,,,,2,,,74,0
71015,note_on,23,0,6,,,,,,,,2,,,60,0
71016,note_on,1,0,5,,,,,,,,2,,,72,64
71016,note_on,1,0,6,,,,,,,,2,,,64,64
71025,note_on,177,0,1,,,,,,,,0,,,76,0
71025,note_on,177,0,2,,,,,,,,0,,,72,0
71025,note_on,177,0,3,,,,,,,,1,,,76,0
71025,note_on,177,0,4,,,,,,,,1,,,72,0
71037,note_on,45,0,10,,,,,,,,3,,,67,0
71037,note_on,45,0,9,,,,,,,,3,,,72,0
71037,note_on,45,0,8,,,,,,,,3,,,76,0
71039,note_on,23,0,6,,,,,,,,2,,,64,0
71039,note_on,23,0,5,,,,,,,,2,,,72,0
71040,note_on,1,0,5,,,,,,,,2,,,74,64
71040,note_on,1,0,6,,,,,,,,2,,,55,64
71040,note_on,15,0,4,,,,,,,,1,,,67,43
71040,note_on,3,0,8,,,,,,,,3,,,77,43
71040,note_on,103,0,11,,,,,,,,3,,,43,43
71040,note_on,3,0,10,,,,,,,,3,,,55,43
71040,note_on,15,0,3,,,,,,,,1,,,74,43
71040,note_on,15,0,2,,,,,,,,0,,,71,43
71040,note_on,3,0,9,,,,,,,,3,,,71,43
71040,note_on,15,0,1,,,,,,,,0,,,77,43
71052,note_on,12,0,5,,,,,,,,2,,,74,0
71052,note_on,0,0,5,,,,,,,,2,,,76,64
71063,note_on,23,0,9,,,,,,,,3,,,71,0
71063,note_on,23,0,8,,,,,,,,3,,,77,0
71063,note_on,23,0,6,,,,,,,,2,,,55,0
71064,note_on,1,0,9,,,,,,,,3,,,71,44
71064,note_on,1,0,6,,,,,,,,2,,,65,65
71064,note_on,0,0,5,,,,,,,,2,,,74,64
71064,note_on,12,0,5,,,,,,,,2,,,76,0
71064,note_on,1,0,8,,,,,,,,3,,,77,44
71076,note_on,0,0,5,,,,,,,,2,,,76,64
71076,note_on,12,0,5,,,,,,,,2,,,74,0
71085,note_on,45,0,10,,,,,,,,3,,,55,0
71085,note_on,45,0,11,,,,,,,,3,,,43,0
71087,note_on,23,0,6,,,,,,,,2,,,65,0
71087,note_on,23,0,9,,,,,,,,3,,,71,0
71087,note_on,23,0,8,,,,,,,,3,,,77,0
71088,note_on,1,0,8,,,,,,,,3,,,77,45
71088,note_on,1,0,9,,,,,,,,3,,,71,45
71088,note_on,3,0,11,,,,,,,,3,,,43,45
71088,note_on,1,0,6,,,,,,,,2,,,59,66
71088,note_on,12,0,5,,,,,,,,2,,,76,0
71088,note_on,3,0,10,,,,,,,,3,,,55,45
71088,note_on,0,0,5,,,,,,,,2,,,74,64
71100,note_on,0,0,5,,,,,,,,2,,,76,64
71100,note_on,12,0,5,,,,,,,,2,,,74,0
71111,note_on,23,0,9,,,,,,,,3,,,71,0
71111,note_on,23,0,8,,,,,,,,3,,,77,0
71111,note_on,23,0,6,,,,,,,,2,,,59,0
71112,note_on,0,0,5,,,,,,,,2,,,74,64
71112,note_on,1,0,8,,,,,,,,3,,,77,46
71112,note_on,1,0,9,,,,,,,,3,,,71,46
71112,note_on,12,0,5,,,,,,,,2,,,76,0
71112,note_on,1,0,6,,,,,,,,2,,,65,67
71124,note_on,12,0,5,,,,,,,,2,,,74,0
71124,note_on,0,0,5,,,,,,,,2,,,76,64
71133,note_on,45,0,11,,,,,,,,3,,,43,0
71133,note_on,45,0,10,,,,,,,,3,,,55,0
71135,note_on,23,0,6,,,,,,,,2,,,65,0
71135,note_on,23,0,8,,,,,,,,3,,,77,0
71135,note_on,23,0,9,,,,,,,,3,,,71,0
71136,note_on,12,0,5,,,,,,,,2,,,76,0
71136,note_on,0,0,5,,,,,,,,2,,,74,64
71136,note_on,3,0,11,,,,,,,,3,,,43,48
71136,note_on,1,0,9,,,,,,,,3,,,71,48
71136,note_on,1,0,6,,,,,,,,2,,,55,68
71136,note_on,3,0,10,,,,,,,,3,,,55,48
71136,note_on,1,0,8,,,,,,,,3,,,77,48
71148,note_on,0,0,5,,,,,,,,2,,,76,64
71148,note_on,12,0,5,,,,,,,,2,,,74,0
71159,note_on,23,0,9,,,,,,,,3,,,71,0
71159,note_on,23,0,6,,,,,,,,2,,,55,0
71159,note_on,23,0,8,,,,,,,,3,,,77,0
71160,note_on,1,0,9,,,,,,,,3,,,71,49
71160,note_on,12,0,5,,,,,,,,2,,,76,0
71160,note_on,1,0,6,,,,,,,,2,,,65,69
71160,note_on,1,0,8,,,,,,,,3,,,77,49
71160,note_on,0,0,5,,,,,,,,2,,,74,64
71172,note_on,12,0,5,,,,,,,,2,,,74,0
71172,note_on,0,0,5,,,,,,,,2,,,76,64
71181,note_on,45,0,10,,,,,,,,3,,,55,0
71181,note_on,45,0,11,,,,,,,,3,,,43,0
71183,note_on,23,0,9,,,,,,,,3,,,71,0
71183,note_on,23,0,8,,,,,,,,3,,,77,0
71183,note_on,23,0,6,,,,,,,,2,,,65,0
71184,note_on,3,0,10,,,,,,,,3,,,55,50
71184,note_on,1,0,9,,,,,,,,3,,,71,50
71184,note_on,12,0,5,,,,,,,,2,,,76,0
71184,note_on,0,0,5,,,,,,,,2,,,74,64
71184,note_on,3,0,11,,,,,,,,3,,,43,50
71184,note_on,1,0,6,,,,,,,,2,,,59,70
71184,note_on,1,0,8,,,,,,,,3,,,77,50
71196,note_on,0,0,5,,,,,,,,2,,,76,64
71196,note_on,12,0,5,,,,,,,,2,,,74,0
71207,note_on,23,0,6,,,,,,,,2,,,59,0
71207,note_on,23,0,8,,,,,,,,3,,,77,0
71207,note_on,23,0,9,,,,,,,,3,,,71,0
71208,note_on,12,0,5,,,,,,,,2,,,76,0
71208,note_on,0,0,5,,,,,,,,2,,,74,64
71208,note_on,1,0,9,,,,,,,,3,,,71,52
71208,note_on,1,0,6,,,,,,,,2,,,65,71
71208,note_on,1,0,8,,,,,,,,3,,,77,52
71217,note_on,177,0,1,,,,,,,,0,,,77,0
71217,note_on,177,0,2,,,,,,,,0,,,71,0
71220,note_on,0,0,5,,,,,,,,2,,,76,64
71220,note_on,12,0,5,,,,,,,,2,,,74,0
71229,note_on,45,0,10,,,,,,,,3,,,55,0
71229,note_on,45,0,11,,,,,,,,3,,,43,0
71231,note_on,23,0,8,,,,,,,,3,,,77,0
71231,note_on,23,0,9,,,,,,,,3,,,71,0
71231,note_on,23,0,6,,,,,,,,2,,,65,0
71232,note_on,15,0,2,,,,,,,,0,,,77,46
71232,note_on,12,0,5,,,,,,,,2,,,76,0
71232,note_on,3,0,10,,,,,,,,3,,,55,53
71232,note_on,1,0,9,,,,,,,,3,,,65,53
71232,note_on,15,0,1,,,,,,,,0,,,83,46
71232,note_on,1,0,6,,,,,,,,2,,,55,72
71232,note_on,0,0,5,,,,,,,,2,,,74,64
71232,note_on,1,0,8,,,,,,,,3,,,71,53
71232,note_on,3,0,11,,,,,,,,3,,,43,53
71244,note_on,12,0,5,,,,,,,,2,,,74,0
71244,note_on,0,0,5,,,,,,,,2,,,76,64
71255,note_on,23,0,6,,,,,,,,2,,,55,0
71255,note_on,23,0,9,,,,,,,,3,,,65,0
71255,note_on,23,0,8,,,,,,,,3,,,71,0
71256,note_on,12,0,5,,,,,,,,2,,,76,0
71256,note_on,0,0,5,,,,,,,,2,,,74,64
71256,note_on,1,0,9,,,,,,,,3,,,65,54
71256,note_on,1,0,8,,,,,,,,3,,,71,54
71256,note_on,1,0,6,,,,,,,,2,,,65,73
71268,note_on,12,0,5,,,,,,,,2,,,74,0
71268,note_on,0,0,5,,,,,,,,2,,,76,64
71277,note_on,45,0,10,,,,,,,,3,,,55,0
71277,note_on,45,0,11,,,,,,,,3,,,43,0
71279,note_on,23,0,8,,,,,,,,3,,,71,0
71279,note_on,23,0,9,,,,,,,,3,,,65,0
71279,note_on,23,0,6,,,,,,,,2,,,65,0
71280,note_on,3,0,10,,,,,,,,3,,,55,56
71280,note_on,1,0,6,,,,,,,,2,,,59,74
71280,note_on,1,0,8,,,,,,,,3,,,71,56
71280,note_on,1,0,9,,,,,,,,3,,,65,56
71280,note_on,12,0,5,,,,,,,,2,,,76,0
71280,note_on,3,0,11,,,,,,,,3,,,43,56
71280,note_on,0,0,5,,,,,,,,2,,,74,64
71292,note_on,0,0,5,,,,,,,,2,,,76,64
71292,note_on,12,0,5,,,,,,,,2,,,74,0
71303,note_on,23,0,6,,,,,,,,2,,,59,0
71303,note_on,23,0,9,,,,,,,,3,,,65,0
71303,note_on,23,0,8,,,,,,,,3,,,71,0
71304,note_on,1,0,6,,,,,,,,2,,,65,75
71304,note_on,0,0,5,,,,,,,,2,,,74,64
71304,note_on,1,0,8,,,,,,,,3,,,71,57
71304,note_on,1,0,9,,,,,,,,3,,,65,57
71304,note_on,12,0,5,,,,,,,,2,,,76,0
71316,note_on,0,0,5,,,,,,,,2,,,76,64
71316,note_on,12,0,5,,,,,,,,2,,,74,0
71325,note_on,45,0,10,,,,,,,,3,,,55,0
71325,note_on,45,0,11,,,,,,,,3,,,43,0
71327,note_on,23,0,9,,,,,,,,3,,,65,0
71327,note_on,23,0,8,,,,,,,,3,,,71,0
71327,note_on,23,0,6,,,,,,,,2,,,65,0
71328,note_on,1,0,6,,,,,,,,2,,,55,76
71328,note_on,1,0,9,,,,,,,,3,,,65,58
71328,note_on,1,0,8,,,,,,,,3,,,71,58
71328,note_on,3,0,11,,,,,,,,3,,,43,58
71328,note_on,3,0,10,,,,,,,,3,,,55,58
71328,note_on,12,0,5,,,,,,,,2,,,76,0
71328,note_on,0,0,5,,,,,,,,2,,,74,64
71340,note_on,0,0,5,,,,,,,,2,,,76,64
71340,note_on,12,0,5,,,,,,,,2,,,74,0
71351,note_on,23,0,9,,,,,,,,3,,,65,0
71351,note_on,23,0,8,,,,,,,,3,,,71,0
71351,note_on,23,0,6,,,,,,,,2,,,55,0
71352,note_on,12,0,5,,,,,,,,2,,,76,0
71352,note_on,1,0,9,,,,,,,,3,,,65,60
71352,note_on,1,0,8,,,,,,,,3,,,71,60
71352,note_on,1,0,6,,,,,,,,2,,,65,77
71352,note_on,0,0,5,,,,,,,,2,,,74,64
71364,note_on,12,0,5,,,,,,,,2,,,74,0
71364,note_on,0,0,5,,,,,,,,2,,,76,64
71373,note_on,45,0,10,,,,,,,,3,,,55,0
71373,note_on,45,0,11,,,,,,,,3,,,43,0
71375,note_on,23,0,9,,,,,,,,3,,,65,0
71375,note_on,23,0,6,,,,,,,,2,,,65,0
71375,note_on,23,0,8,,,,,,,,3,,,71,0
71376,note_on,1,0,8,,,,,,,,3,,,71,61
71376,note_on,0,0,5,,,,,,,,2,,,74,64
71376,note_on,12,0,5,,,,,,,,2,,,76,0
71376,note_on,3,0,10,,,,,,,,3,,,55,61
71376,note_on,3,0,11,,,,,,,,3,,,43,61
71376,note_on,1,0,6,,,,,,,,2,,,59,78
71376,note_on,1,0,9,,,,,,,,3,,,65,61
71388,note_on,12,0,5,,,,,,,,2,,,74,0
71388,note_on,0,0,5,,,,,,,,2,,,76,64
71394,note_on,6,0,5,,,,,,,,2,,,76,0
71394,note_on,354,0,3,,,,,,,,1,,,74,0
71394,note_on,354,0,4,,,,,,,,1,,,67,0
71399,note_on,23,0,9,,,,,,,,3,,,65,0
71399,note_on,23,0,6,,,,,,,,2,,,59,0
71399,note_on,23,0,8,,,,,,,,3,,,71,0
71400,note_on,1,0,6,,,,,,,,2,,,65,79
71400,note_on,1,0,8,,,,,,,,3,,,71,62
71400,note_on,1,0,9,,,,,,,,3,,,65,62
71409,note_on,177,0,1,,,,,,,,0,,,83,0
71409,note_on,177,0,2,,,,,,,,0,,,77,0
71421,note_on,45,0,11,,,,,,,,3,,,43,0
71421,note_on,45,0,10,,,,,,,,3,,,55,0
71423,note_on,23,0,8,,,,,,,,3,,,71,0
71423,note_on,23,0,9,,,,,,,,3,,,65,0
71423,note_on,23,0,6,,,,,,,,2,,,65,0
71424,note_on,3,0,10,,,,,,,,3,,,55,85
71424,note_on,30,0,5,,,,,,,,2,,,72,80
71424,note_on,15,0,1,,,,,,,,0,,,84,64
71424,note_on,30,0,3,,,,,,,,1,,,72,64
71424,note_on,1,0,9,,,,,,,,3,,,72,85
71424,note_on,1,0,6,,,,,,,,2,,,64,80
71424,note_on,30,0,4,,,,,,,,1,,,60,64
71424,note_on,3,0,11,,,,,,,,3,,,36,64
71424,note_on,1,0,8,,,,,,,,3,,,72,85
71424,note_on,15,0,2,,,,,,,,0,,,76,64
71513,note_on,89,0,5,,,,,,,,2,,,72,0
71513,note_on,89,0,8,,,,,,,,3,,,72,0
71513,note_on,89,0,9,,,,,,,,3,,,72,0
71513,note_on,89,0,10,,,,,,,,3,,,55,0
71513,note_on,89,0,1,,,,,,,,0,,,84,0
71513,note_on,89,0,2,,,,,,,,0,,,76,0
71513,note_on,89,0,3,,,,,,,,1,,,72,0
71513,note_on,89,0,6,,,,,,,,2,,,64,0
71513,note_on,89,0,4,,,,,,,,1,,,60,0
71513,note_on,89,0,11,,,,,,,,3,,,36,0
71520,note_on,7,0,10,,,,,,,,3,,,64,85
71520,note_on,7,0,8,,,,,,,,3,,,76,85
71520,note_on,7,0,1,,,,,,,,0,,,76,64
71520,note_on,7,0,9,,,,,,,,3,,,76,85
71520,note_on,7,0,3,,,,,,,,1,,,76,64
71520,note_on,7,0,11,,,,,,,,3,,,52,64
71543,note_on,23,0,1,,,,,,,,0,,,76,0
71543,note_on,23,0,10,,,,,,,,3,,,64,0
71543,note_on,23,0,8,,,,,,,,3,,,76,0
71543,note_on,23,0,11,,,,,,,,3,,,52,0
71543,note_on,23,0,9,,,,,,,,3,,,76,0
71544,note_on,1,0,8,,,,,,,,3,,,72,85
71544,note_on,1,0,10,,,,,,,,3,,,60,85
71544,note_on,1,0,9,,,,,,,,3,,,72,85
71544,note_on,1,0,11,,,,,,,,3,,,48,64
71544,note_on,1,0,1,,,,,,,,0,,,72,64
71565,note_on,45,0,3,,,,,,,,1,,,76,0
71567,note_on,23,0,10,,,,,,,,3,,,60,0
71567,note_on,23,0,8,,,,,,,,3,,,72,0
71567,note_on,23,0,9,,,,,,,,3,,,72,0
71567,note_on,23,0,1,,,,,,,,0,,,72,0
71567,note_on,23,0,11,,,,,,,,3,,,48,0
71568,note_on,1,0,11,,,,,,,,3,,,52,64
71568,note_on,1,0,1,,,,,,,,0,,,76,64
71568,note_on,1,0,9,,,,,,,,3,,,76,85
71568,note_on,3,0,3,,,,,,,,1,,,76,64
71568,note_on,1,0,8,,,,,,,,3,,,76,85
71568,note_on,1,0,10,,,,,,,,3,,,64,85
71578,note_on,10,0,10,,,,,,,,3,,,64,0
71578,note_on,10,0,1,,,,,,,,0,,,76,0
71578,note_on,10,0,8,,,,,,,,3,,,76,0
71578,note_on,10,0,11,,,,,,,,3,,,52,0
71578,note_on,10,0,9,,,,,,,,3,,,76,0
71591,note_on,23,0,3,,,,,,,,1,,,76,0
71592,note_on,14,0,8,,,,,,,,3,,,72,85
71592,note_on,14,0,1,,,,,,,,0,,,72,64
71592,note_on,14,0,11,,,,,,,,3,,,48,64
71592,note_on,14,0,9,,,,,,,,3,,,72,85
71592,note_on,14,0,10,,,,,,,,3,,,60,85
71592,note_on,1,0,3,,,,,,,,1,,,72,64
71602,note_on,10,0,10,,,,,,,,3,,,60,0
71602,note_on,10,0,1,,,,,,,,0,,,72,0
71602,note_on,10,0,11,,,,,,,,3,,,48,0
71602,note_on,10,0,8,,,,,,,,3,,,72,0
71602,note_on,10,0,9,,,,,,,,3,,,72,0
71615,note_on,23,0,3,,,,,,,,1,,,72,0
71616,note_on,14,0,8,,,,,,,,3,,,67,85
71616,note_on,14,0,1,,,,,,,,0,,,67,64
71616,note_on,14,0,11,,,,,,,,3,,,43,64
71616,note_on,1,0,3,,,,,,,,1,,,67,64
71616,note_on,14,0,10,,,,,,,,3,,,55,85
71616,note_on,14,0,9,,,,,,,,3,,,67,85
71661,note_on,45,0,3,,,,,,,,1,,,67,0
71661,note_on,45,0,11,,,,,,,,3,,,43,0
71661,note_on,45,0,10,,,,,,,,3,,,55,0
71661,note_on,45,0,1,,,,,,,,0,,,67,0
71661,note_on,45,0,8,,,,,,,,3,,,67,0
71661,note_on,45,0,9,,,,,,,,3,,,67,0
71664,note_on,3,0,9,,,,,,,,3,,,72,85
71664,note_on,3,0,1,,,,,,,,0,,,72,64
71664,note_on,3,0,8,,,,,,,,3,,,72,85
71664,note_on,3,0,10,,,,,,,,3,,,60,85
71664,note_on,3,0,11,,,,,,,,3,,,48,64
71664,note_on,3,0,3,,,,,,,,1,,,72,64
71709,note_on,45,0,9,,,,,,,,3,,,72,0
71709,note_on,45,0,1,,,,,,,,0,,,72,0
71709,note_on,45,0,8,,,,,,,,3,,,72,0
71709,note_on,45,0,10,,,,,,,,3,,,60,0
71709,note_on,45,0,11,,,,,,,,3,,,48,0
71709,note_on,45,0,3,,,,,,,,1,,,72,0
71712,note_on,3,0,8,,,,,,,,3,,,67,85
71712,note_on,3,0,11,,,,,,,,3,,,43,64
71712,note_on,3,0,3,,,,,,,,1,,,67,64
71712,note_on,3,0,10,,,,,,,,3,,,55,85
71712,note_on,3,0,9,,,,,,,,3,,,67,85
71712,note_on,3,0,1,,,,,,,,0,,,67,64
71735,note_on,23,0,1,,,,,,,,0,,,67,0
71735,note_on,23,0,11,,,,,,,,3,,,43,0
71735,note_on,23,0,8,,,,,,,,3,,,67,0
71735,note_on,23,0,9,,,,,,,,3,,,67,0
71735,note_on,23,0,10,,,,,,,,3,,,55,0
71736,note_on,1,0,8,,,,,,,,3,,,64,85
71736,note_on,1,0,10,,,,,,,,3,,,52,85
71736,note_on,1,0,11,,,,,,,,3,,,40,64
71736,note_on,1,0,9,,,,,,,,3,,,64,85
71736,note_on,1,0,1,,,,,,,,0,,,64,64
71757,note_on,45,0,3,,,,,,,,1,,,67,0
71759,note_on,23,0,10,,,,,,,,3,,,52,0
71759,note_on,23,0,9,,,,,,,,3,,,64,0
71759,note_on,23,0,1,,,,,,,,0,,,64,0
71759,note_on,23,0,11,,,,,,,,3,,,40,0
71759,note_on,23,0,8,,,,,,,,3,,,64,0
71760,note_on,1,0,1,,,,,,,,0,,,67,64
71760,note_on,1,0,8,,,,,,,,3,,,67,85
71760,note_on,1,0,10,,,,,,,,3,,,55,85
71760,note_on,1,0,11,,,,,,,,3,,,43,64
71760,note_on,1,0,9,,,,,,,,3,,,67,85
71760,note_on,3,0,3,,,,,,,,1,,,67,64
71770,note_on,10,0,8,,,,,,,,3,,,67,0
71770,note_on,10,0,1,,,,,,,,0,,,67,0
71770,note_on,10,0,10,,,,,,,,3,,,55,0
71770,note_on,10,0,11,,,,,,,,3,,,43,0
71770,note_on,10,0,9,,,,,,,,3,,,67,0
71783,note_on,23,0,3,,,,,,,,1,,,67,0
71784,note_on,14,0,8,,,,,,,,3,,,64,85
71784,note_on,14,0,1,,,,,,,,0,,,64,64
71784,note_on,14,0,10,,,,,,,,3,,,52,85
71784,note_on,14,0,11,,,,,,,,3,,,40,64
71784,note_on,1,0,3,,,,,,,,1,,,64,64
71784,note_on,14,0,9,,,,,,,,3,,,64,85
71794,note_on,10,0,8,,,,,,,,3,,,64,0
71794,note_on,10,0,9,,,,,,,,3,,,64,0
71794,note_on,10,0,1,,,,,,,,0,,,64,0
71794,note_on,10,0,11,,,,,,,,3,,,40,0
71794,note_on,10,0,10,,,,,,,,3,,,52,0
71807,note_on,23,0,3,,,,,,,,1,,,64,0
71808,note_on,14,0,10,,,,,,,,3,,,48,85
71808,note_on,14,0,1,,,,,,,,0,,,60,64
71808,note_on,1,0,3,,,,,,,,1,,,60,64
71808,note_on,14,0,9,,,,,,,,3,,,60,85
71808,note_on,14,0,8,,,,,,,,3,,,60,85
71808,note_on,14,0,11,,,,,,,,3,,,36,64
71897,note_on,89,0,3,,,,,,,,1,,,60,0
71897,note_on,89,0,8,,,,,,,,3,,,60,0
71897,note_on,89,0,10,,,,,,,,3,,,48,0
71897,note_on,89,0,11,,,,,,,,3,,,36,0
71897,note_on,89,0,1,,,,,,,,0,,,60,0
71897,note_on,89,0,9,,,,,,,,3,,,60,0
71904,note_on,391,0,5,,,,,,,,2,,,72,64
71904,note_on,391,0,6,,,,,,,,2,,,64,64
71924,note_on,20,0,6,,,,,,,,2,,,64,0
71924,note_on,20,0,5,,,,,,,,2,,,72,0
71952,note_on,0,0,5,,,,,,,,2,,,71,64
71952,note_on,28,0,5,,,,,,,,2,,,74,64
71952,note_on,28,0,6,,,,,,,,2,,,65,64
71952,note_on,0,0,6,,,,,,,,2,,,59,64
71972,note_on,0,0,5,,,,,,,,2,,,74,0
71972,note_on,20,0,5,,,,,,,,2,,,71,0
71972,note_on,0,0,6,,,,,,,,2,,,65,0
71972,note_on,20,0,6,,,,,,,,2,,,59,0
72000,note_on,0,0,5,,,,,,,,2,,,72,64
72000,note_on,28,0,5,,,,,,,,2,,,76,64
72000,note_on,0,0,6,,,,,,,,2,,,60,64
72000,note_on,28,0,6,,,,,,,,2,,,67,64
72020,note_on,0,0,6,,,,,,,,2,,,67,0
72020,note_on,0,0,5,,,,,,,,2,,,76,0
72020,note_on,20,0,5,,,,,,,,2,,,72,0
72020,note_on,20,0,6,,,,,,,,2,,,60,0
72096,note_on,76,0,5,,,,,,,,2,,,76,64
72096,note_on,0,0,6,,,,,,,,2,,,60,64
72096,note_on,0,0,5,,,,,,,,2,,,72,64
72096,note_on,76,0,6,,,,,,,,2,,,64,64
72116,note_on,0,0,5,,,,,,,,2,,,76,0
72116,note_on,20,0,5,,,,,,,,2,,,72,0
72116,note_on,20,0,6,,,,,,,,2,,,60,0
72116,note_on,0,0,6,,,,,,,,2,,,64,0
72144,note_on,28,0,6,,,,,,,,2,,,65,64
72144,note_on,0,0,6,,,,,,,,2,,,62,64
72144,note_on,0,0,5,,,,,,,,2,,,74,64
72144,note_on,28,0,5,,,,,,,,2,,,77,64
72164,note_on,0,0,5,,,,,,,,2,,,77,0
72164,note_on,20,0,5,,,,,,,,2,,,74,0
72164,note_on,20,0,6,,,,,,,,2,,,62,0
72164,note_on,0,0,6,,,,,,,,2,,,65,0
72192,note_on,295,0,10,,,,,,,,3,,,61,43
72192,note_on,295,0,9,,,,,,,,3,,,61,43
72192,note_on,0,0,6,,,,,,,,2,,,64,64
72192,note_on,0,0,5,,,,,,,,2,,,76,64
72192,note_on,28,0,6,,,,,,,,2,,,67,64
72192,note_on,295,0,11,,,,,,,,3,,,37,43
72192,note_on,295,0,8,,,,,,,,3,,,61,43
72192,note_on,28,0,5,,,,,,,,2,,,79,64
72212,note_on,20,0,6,,,,,,,,2,,,64,0
72212,note_on,0,0,5,,,,,,,,2,,,79,0
72212,note_on,20,0,5,,,,,,,,2,,,76,0
72212,note_on,0,0,6,,,,,,,,2,,,67,0
72240,note_on,28,0,6,,,,,,,,2,,,69,66
72240,note_on,28,0,5,,,,,,,,2,,,81,67
72246,note_on,6,0,5,,,,,,,,2,,,81,0
72246,note_on,0,0,5,,,,,,,,2,,,79,67
72246,note_on,0,0,6,,,,,,,,2,,,67,66
72246,note_on,6,0,6,,,,,,,,2,,,69,0
72263,note_on,17,0,6,,,,,,,,2,,,67,0
72263,note_on,17,0,5,,,,,,,,2,,,79,0
72264,note_on,1,0,5,,,,,,,,2,,,78,68
72264,note_on,1,0,6,,,,,,,,2,,,66,67
72281,note_on,89,0,8,,,,,,,,3,,,61,0
72281,note_on,89,0,11,,,,,,,,3,,,37,0
72281,note_on,89,0,9,,,,,,,,3,,,61,0
72281,note_on,89,0,10,,,,,,,,3,,,61,0
72287,note_on,23,0,6,,,,,,,,2,,,66,0
72287,note_on,23,0,5,,,,,,,,2,,,78,0
72288,note_on,1,0,6,,,,,,,,2,,,67,69
72288,note_on,1,0,5,,,,,,,,2,,,79,70
72333,note_on,45,0,5,,,,,,,,2,,,79,0
72333,note_on,45,0,6,,,,,,,,2,,,67,0
72336,note_on,3,0,5,,,,,,,,2,,,81,73
72336,note_on,3,0,6,,,,,,,,2,,,69,71
72381,note_on,45,0,5,,,,,,,,2,,,81,0
72381,note_on,45,0,6,,,,,,,,2,,,69,0
72384,note_on,0,0,5,,,,,,,,2,,,76,76
72384,note_on,103,0,10,,,,,,,,3,,,62,43
72384,note_on,3,0,6,,,,,,,,2,,,67,74
72384,note_on,3,0,5,,,,,,,,2,,,79,76
72384,note_on,103,0,11,,,,,,,,3,,,38,43
72384,note_on,0,0,6,,,,,,,,2,,,64,74
72384,note_on,103,0,8,,,,,,,,3,,,62,43
72384,note_on,103,0,9,,,,,,,,3,,,62,43
72473,note_on,0,0,6,,,,,,,,2,,,67,0
72473,note_on,89,0,10,,,,,,,,3,,,62,0
72473,note_on,89,0,8,,,,,,,,3,,,62,0
72473,note_on,89,0,9,,,,,,,,3,,,62,0
72473,note_on,89,0,11,,,,,,,,3,,,38,0
72473,note_on,89,0,5,,,,,,,,2,,,76,0
72473,note_on,0,0,5,,,,,,,,2,,,79,0
72473,note_on,89,0,6,,,,,,,,2,,,64,0
72480,note_on,0,0,5,,,,,,,,2,,,74,82
72480,note_on,7,0,5,,,,,,,,2,,,78,82
72480,note_on,7,0,6,,,,,,,,2,,,66,79
72480,note_on,0,0,6,,,,,,,,2,,,62,79
72525,note_on,45,0,5,,,,,,,,2,,,74,0
72525,note_on,0,0,6,,,,,,,,2,,,66,0
72525,note_on,45,0,6,,,,,,,,2,,,62,0
72525,note_on,0,0,5,,,,,,,,2,,,78,0
72576,note_on,0,0,5,,,,,,,,2,,,74,85
72576,note_on,51,0,5,,,,,,,,2,,,77,85
72576,note_on,103,0,8,,,,,,,,3,,,59,43
72576,note_on,0,0,6,,,,,,,,2,,,62,85
72576,note_on,103,0,9,,,,,,,,3,,,59,43
72576,note_on,51,0,6,,,,,,,,2,,,65,85
72576,note_on,103,0,11,,,,,,,,3,,,35,43
72576,note_on,103,0,10,,,,,,,,3,,,59,43
72621,note_on,0,0,6,,,,,,,,2,,,65,0
72621,note_on,45,0,6,,,,,,,,2,,,62,0
72621,note_on,45,0,5,,,,,,,,2,,,74,0
72621,note_on,0,0,5,,,,,,,,2,,,77,0
72624,note_on,3,0,6,,,,,,,,2,,,67,85
72624,note_on,3,0,5,,,,,,,,2,,,79,85
72630,note_on,6,0,6,,,,,,,,2,,,67,0
72630,note_on,0,0,6,,,,,,,,2,,,65,85
72630,note_on,0,0,5,,,,,,,,2,,,77,85
72630,note_on,6,0,5,,,,,,,,2,,,79,0
72647,note_on,17,0,5,,,,,,,,2,,,77,0
72647,note_on,17,0,6,,,,,,,,2,,,65,0
72648,note_on,1,0,6,,,,,,,,2,,,64,85
72648,note_on,1,0,5,,,,,,,,2,,,76,85
72665,note_on,89,0,8,,,,,,,,3,,,59,0
72665,note_on,89,0,9,,,,,,,,3,,,59,0
72665,note_on,89,0,10,,,,,,,,3,,,59,0
72665,note_on,89,0,11,,,,,,,,3,,,35,0
72671,note_on,23,0,6,,,,,,,,2,,,64,0
72671,note_on,23,0,5,,,,,,,,2,,,76,0
72672,note_on,1,0,5,,,,,,,,2,,,77,85
72672,note_on,1,0,6,,,,,,,,2,,,65,85
72717,note_on,45,0,5,,,,,,,,2,,,77,0
72717,note_on,45,0,6,,,,,,,,2,,,65,0
72720,note_on,3,0,5,,,,,,,,2,,,79,85
72720,note_on,3,0,6,,,,,,,,2,,,67,85
72765,note_on,45,0,6,,,,,,,,2,,,67,0
72765,note_on,45,0,5,,,,,,,,2,,,79,0
72768,note_on,3,0,6,,,,,,,,2,,,65,85
72768,note_on,0,0,5,,,,,,,,2,,,74,85
72768,note_on,3,0,5,,,,,,,,2,,,77,85
72768,note_on,103,0,10,,,,,,,,3,,,60,43
72768,note_on,103,0,11,,,,,,,,3,,,36,43
72768,note_on,103,0,8,,,,,,,,3,,,60,43
72768,note_on,103,0,9,,,,,,,,3,,,60,43
72768,note_on,0,0,6,,,,,,,,2,,,62,85
72857,note_on,0,0,5,,,,,,,,2,,,77,0
72857,note_on,89,0,5,,,,,,,,2,,,74,0
72857,note_on,89,0,8,,,,,,,,3,,,60,0
72857,note_on,89,0,9,,,,,,,,3,,,60,0
72857,note_on,89,0,6,,,,,,,,2,,,62,0
72857,note_on,0,0,6,,,,,,,,2,,,65,0
72857,note_on,89,0,11,,,,,,,,3,,,36,0
72857,note_on,89,0,10,,,,,,,,3,,,60,0
72864,note_on,7,0,6,,,,,,,,2,,,64,85
72864,note_on,0,0,5,,,,,,,,2,,,72,85
72864,note_on,7,0,5,,,,,,,,2,,,76,85
72864,note_on,0,0,6,,,,,,,,2,,,60,85
72909,note_on,0,0,5,,,,,,,,2,,,76,0
72909,note_on,45,0,5,,,,,,,,2,,,72,0
72909,note_on,0,0,6,,,,,,,,2,,,64,0
72909,note_on,45,0,6,,,,,,,,2,,,60,0
72960,note_on,103,0,8,,,,,,,,3,,,83,85
72960,note_on,103,0,11,,,,,,,,3,,,43,64
72960,note_on,103,0,10,,,,,,,,3,,,67,85
72960,note_on,1063,0,3,,,,,,,,1,,,74,64
72960,note_on,0,0,9,,,,,,,,3,,,74,85
72960,note_on,1063,0,1,,,,,,,,0,,,83,64
72960,note_on,1447,0,2,,,,,,,,0,,,77,64
72960,note_on,103,0,9,,,,,,,,3,,,77,85
72960,note_on,1447,0,4,,,,,,,,1,,,67,64
73005,note_on,45,0,9,,,,,,,,3,,,74,0
73005,note_on,45,0,11,,,,,,,,3,,,43,0
73005,note_on,0,0,9,,,,,,,,3,,,77,0
73005,note_on,45,0,8,,,,,,,,3,,,83,0
73005,note_on,45,0,10,,,,,,,,3,,,67,0
73008,note_on,3,0,11,,,,,,,,3,,,43,64
73008,note_on,3,0,9,,,,,,,,3,,,77,85
73008,note_on,0,0,9,,,,,,,,3,,,74,85
73008,note_on,3,0,10,,,,,,,,3,,,67,85
73008,note_on,3,0,8,,,,,,,,3,,,83,85
73053,note_on,45,0,10,,,,,,,,3,,,67,0
73053,note_on,45,0,11,,,,,,,,3,,,43,0
73056,note_on,3,0,10,,,,,,,,3,,,67,85
73056,note_on,3,0,11,,,,,,,,3,,,43,64
73097,note_on,89,0,8,,,,,,,,3,,,83,0
73097,note_on,0,0,9,,,,,,,,3,,,77,0
73097,note_on,89,0,9,,,,,,,,3,,,74,0
73101,note_on,45,0,10,,,,,,,,3,,,67,0
73101,note_on,45,0,11,,,,,,,,3,,,43,0
73104,note_on,3,0,11,,,,,,,,3,,,43,64
73104,note_on,7,0,8,,,,,,,,3,,,83,85
73104,note_on,0,0,9,,,,,,,,3,,,74,85
73104,note_on,7,0,9,,,,,,,,3,,,77,85
73104,note_on,3,0,10,,,,,,,,3,,,67,85
73137,note_on,177,0,3,,,,,,,,1,,,74,0
73137,note_on,177,0,4,,,,,,,,1,,,67,0
73149,note_on,45,0,11,,,,,,,,3,,,43,0
73149,note_on,45,0,10,,,,,,,,3,,,67,0
73152,note_on,3,0,11,,,,,,,,3,,,44,64
73152,note_on,15,0,3,,,,,,,,1,,,77,64
73152,note_on,15,0,4,,,,,,,,1,,,74,64
73152,note_on,3,0,10,,,,,,,,3,,,68,85
73193,note_on,89,0,8,,,,,,,,3,,,83,0
73193,note_on,89,0,9,,,,,,,,3,,,74,0
73193,note_on,0,0,9,,,,,,,,3,,,77,0
73197,note_on,45,0,11,,,,,,,,3,,,44,0
73197,note_on,45,0,10,,,,,,,,3,,,68,0
73200,note_on,3,0,11,,,,,,,,3,,,44,64
73200,note_on,7,0,8,,,,,,,,3,,,83,85
73200,note_on,3,0,10,,,,,,,,3,,,68,85
73200,note_on,7,0,9,,,,,,,,3,,,77,85
73200,note_on,0,0,9,,,,,,,,3,,,74,85
73245,note_on,45,0,10,,,,,,,,3,,,68,0
73245,note_on,45,0,11,,,,,,,,3,,,44,0
73248,note_on,3,0,10,,,,,,,,3,,,68,85
73248,note_on,3,0,11,,,,,,,,3,,,44,64
73289,note_on,0,0,9,,,,,,,,3,,,77,0
73289,note_on,89,0,8,,,,,,,,3,,,83,0
73289,note_on,89,0,9,,,,,,,,3,,,74,0
73293,note_on,45,0,10,,,,,,,,3,,,68,0
73293,note_on,45,0,11,,,,,,,,3,,,44,0
73296,note_on,3,0,11,,,,,,,,3,,,44,64
73296,note_on,0,0,9,,,,,,,,3,,,74,85
73296,note_on,7,0,8,,,,,,,,3,,,83,85
73296,note_on,7,0,9,,,,,,,,3,,,77,85
73296,note_on,3,0,10,,,,,,,,3,,,68,85
73314,note_on,354,0,2,,,,,,,,0,,,77,0
73314,note_on,354,0,1,,,,,,,,0,,,83,0
73329,note_on,177,0,3,,,,,,,,1,,,77,0
73329,note_on,177,0,4,,,,,,,,1,,,74,0
73341,note_on,45,0,10,,,,,,,,3,,,68,0
73341,note_on,45,0,11,,,,,,,,3,,,44,0
73341,note_on,0,0,9,,,,,,,,3,,,77,0
73341,note_on,45,0,8,,,,,,,,3,,,83,0
73341,note_on,45,0,9,,,,,,,,3,,,74,0
73344,note_on,3,0,8,,,,,,,,3,,,84,85
73344,note_on,3,0,11,,,,,,,,3,,,45,64
73344,note_on,0,0,9,,,,,,,,3,,,72,85
73344,note_on,15,0,3,,,,,,,,1,,,76,64
73344,note_on,3,0,9,,,,,,,,3,,,76,85
73344,note_on,30,0,2,,,,,,,,0,,,76,64
73344,note_on,30,0,1,,,,,,,,0,,,84,64
73344,note_on,15,0,4,,,,,,,,1,,,69,64
73344,note_on,3,0,10,,,,,,,,3,,,69,85
73367,note_on,23,0,8,,,,,,,,3,,,84,0
73368,note_on,1,0,8,,,,,,,,3,,,83,85
73389,note_on,45,0,11,,,,,,,,3,,,45,0
73389,note_on,0,0,9,,,,,,,,3,,,76,0
73389,note_on,45,0,9,,,,,,,,3,,,72,0
73389,note_on,45,0,10,,,,,,,,3,,,69,0
73391,note_on,23,0,8,,,,,,,,3,,,83,0
73392,note_on,3,0,9,,,,,,,,3,,,76,85
73392,note_on,3,0,11,,,,,,,,3,,,45,64
73392,note_on,0,0,9,,,,,,,,3,,,72,85
73392,note_on,1,0,8,,,,,,,,3,,,84,85
73392,note_on,3,0,10,,,,,,,,3,,,69,85
73415,note_on,23,0,8,,,,,,,,3,,,84,0
73416,note_on,1,0,8,,,,,,,,3,,,86,85
73433,note_on,89,0,3,,,,,,,,1,,,76,0
73433,note_on,89,0,4,,,,,,,,1,,,69,0
73437,note_on,45,0,11,,,,,,,,3,,,45,0
73437,note_on,45,0,10,,,,,,,,3,,,69,0
73439,note_on,23,0,8,,,,,,,,3,,,86,0
73440,note_on,7,0,3,,,,,,,,1,,,72,64
73440,note_on,7,0,4,,,,,,,,1,,,60,64
73440,note_on,1,0,8,,,,,,,,3,,,84,85
73440,note_on,3,0,10,,,,,,,,3,,,69,85
73440,note_on,3,0,11,,,,,,,,3,,,45,64
73460,note_on,20,0,8,,,,,,,,3,,,84,0
73481,note_on,0,0,9,,,,,,,,3,,,76,0
73481,note_on,89,0,9,,,,,,,,3,,,72,0
73485,note_on,45,0,10,,,,,,,,3,,,69,0
73485,note_on,45,0,11,,,,,,,,3,,,45,0
73488,note_on,3,0,11,,,,,,,,3,,,45,64
73488,note_on,28,0,8,,,,,,,,3,,,84,85
73488,note_on,0,0,9,,,,,,,,3,,,72,85
73488,note_on,7,0,9,,,,,,,,3,,,76,85
73488,note_on,3,0,10,,,,,,,,3,,,69,85
73507,note_on,67,0,4,,,,,,,,1,,,60,0
73507,note_on,67,0,3,,,,,,,,1,,,72,0
73508,note_on,20,0,8,,,,,,,,3,,,84,0
73512,note_on,5,0,3,,,,,,,,1,,,72,64
73512,note_on,5,0,4,,,,,,,,1,,,60,64
73521,note_on,177,0,1,,,,,,,,0,,,84,0
73533,note_on,0,0,9,,,,,,,,3,,,76,0
73533,note_on,45,0,9,,,,,,,,3,,,72,0
73533,note_on,45,0,10,,,,,,,,3,,,69,0
73533,note_on,45,0,11,,,,,,,,3,,,45,0
73535,note_on,23,0,4,,,,,,,,1,,,60,0
73535,note_on,23,0,3,,,,,,,,1,,,72,0
73536,note_on,3,0,9,,,,,,,,3,,,76,85
73536,note_on,3,0,11,,,,,,,,3,,,43,64
73536,note_on,1,0,3,,,,,,,,1,,,72,64
73536,note_on,15,0,1,,,,,,,,0,,,82,64
73536,note_on,1,0,4,,,,,,,,1,,,60,64
73536,note_on,0,0,9,,,,,,,,3,,,72,85
73536,note_on,28,0,8,,,,,,,,3,,,82,85
73536,note_on,3,0,10,,,,,,,,3,,,67,85
73559,note_on,23,0,8,,,,,,,,3,,,82,0
73560,note_on,1,0,8,,,,,,,,3,,,81,85
73581,note_on,45,0,9,,,,,,,,3,,,72,0
73581,note_on,45,0,10,,,,,,,,3,,,67,0
73581,note_on,45,0,11,,,,,,,,3,,,43,0
73581,note_on,0,0,9,,,,,,,,3,,,76,0
73583,note_on,23,0,8,,,,,,,,3,,,81,0
73584,note_on,3,0,10,,,,,,,,3,,,67,85
73584,note_on,3,0,11,,,,,,,,3,,,43,64
73584,note_on,3,0,9,,,,,,,,3,,,76,85
73584,note_on,0,0,9,,,,,,,,3,,,72,85
73584,note_on,1,0,8,,,,,,,,3,,,82,85
73607,note_on,23,0,8,,,,,,,,3,,,82,0
73608,note_on,1,0,8,,,,,,,,3,,,84,85
73625,note_on,89,0,3,,,,,,,,1,,,72,0
73625,note_on,89,0,4,,,,,,,,1,,,60,0
73629,note_on,45,0,11,,,,,,,,3,,,43,0
73629,note_on,45,0,10,,,,,,,,3,,,67,0
73631,note_on,23,0,8,,,,,,,,3,,,84,0
73632,note_on,1,0,8,,,,,,,,3,,,82,85
73632,note_on,3,0,11,,,,,,,,3,,,43,64
73632,note_on,3,0,10,,,,,,,,3,,,67,85
73632,note_on,7,0,3,,,,,,,,1,,,72,64
73632,note_on,7,0,4,,,,,,,,1,,,60,64
73652,note_on,20,0,8,,,,,,,,3,,,82,0
73673,note_on,89,0,9,,,,,,,,3,,,72,0
73673,note_on,0,0,9,,,,,,,,3,,,76,0
73677,note_on,45,0,11,,,,,,,,3,,,43,0
73677,note_on,45,0,10,,,,,,,,3,,,67,0
73680,note_on,3,0,11,,,,,,,,3,,,43,64
73680,note_on,7,0,9,,,,,,,,3,,,76,85
73680,note_on,3,0,10,,,,,,,,3,,,67,85
73680,note_on,28,0,8,,,,,,,,3,,,82,85
73680,note_on,0,0,9,,,,,,,,3,,,72,85
73698,note_on,354,0,2,,,,,,,,0,,,76,0
73699,note_on,67,0,4,,,,,,,,1,,,60,0
73699,note_on,67,0,3,,,,,,,,1,,,72,0
73700,note_on,20,0,8,,,,,,,,3,,,82,0
73704,note_on,5,0,4,,,,,,,,1,,,60,64
73704,note_on,5,0,3,,,,,,,,1,,,72,64
73713,note_on,177,0,1,,,,,,,,0,,,82,0
73725,note_on,45,0,9,,,,,,,,3,,,72,0
73725,note_on,0,0,9,,,,,,,,3,,,76,0
73725,note_on,45,0,11,,,,,,,,3,,,43,0
73725,note_on,45,0,10,,,,,,,,3,,,67,0
73727,note_on,23,0,3,,,,,,,,1,,,72,0
73727,note_on,23,0,4,,,,,,,,1,,,60,0
73728,note_on,1,0,3,,,,,,,,1,,,72,64
73728,note_on,3,0,9,,,,,,,,3,,,77,85
73728,note_on,3,0,11,,,,,,,,3,,,41,64
73728,note_on,15,0,1,,,,,,,,0,,,81,64
73728,note_on,3,0,10,,,,,,,,3,,,65,85
73728,note_on,30,0,2,,,,,,,,0,,,77,64
73728,note_on,28,0,8,,,,,,,,3,,,81,85
73728,note_on,1,0,4,,,,,,,,1,,,60,64
73750,note_on,22,0,11,,,,,,,,3,,,41,0
73750,note_on,22,0,10,,,,,,,,3,,,65,0
73751,note_on,23,0,9,,,,,,,,3,,,77,0
73751,note_on,23,0,8,,,,,,,,3,,,81,0
73752,note_on,2,0,10,,,,,,,,3,,,65,85
73752,note_on,1,0,8,,,,,,,,3,,,79,85
73752,note_on,1,0,9,,,,,,,,3,,,72,85
73752,note_on,2,0,11,,,,,,,,3,,,41,64
73773,note_on,45,0,2,,,,,,,,0,,,77,0
73774,note_on,22,0,10,,,,,,,,3,,,65,0
73774,note_on,22,0,11,,,,,,,,3,,,41,0
73775,note_on,23,0,9,,,,,,,,3,,,72,0
73775,note_on,23,0,8,,,,,,,,3,,,79,0
73776,note_on,1,0,9,,,,,,,,3,,,72,85
73776,note_on,2,0,11,,,,,,,,3,,,41,64
73776,note_on,2,0,10,,,,,,,,3,,,65,85
73776,note_on,1,0,8,,,,,,,,3,,,81,85
73776,note_on,3,0,2,,,,,,,,0,,,72,64
73798,note_on,22,0,10,,,,,,,,3,,,65,0
73798,note_on,22,0,11,,,,,,,,3,,,41,0
73799,note_on,23,0,9,,,,,,,,3,,,72,0
73799,note_on,23,0,8,,,,,,,,3,,,81,0
73800,note_on,1,0,8,,,,,,,,3,,,82,85
73800,note_on,2,0,11,,,,,,,,3,,,41,64
73800,note_on,1,0,9,,,,,,,,3,,,72,85
73800,note_on,2,0,10,,,,,,,,3,,,65,85
73817,note_on,89,0,4,,,,,,,,1,,,60,0
73817,note_on,89,0,3,,,,,,,,1,,,72,0
73821,note_on,45,0,2,,,,,,,,0,,,72,0
73822,note_on,22,0,11,,,,,,,,3,,,41,0
73822,note_on,22,0,10,,,,,,,,3,,,65,0
73823,note_on,23,0,8,,,,,,,,3,,,82,0
73823,note_on,23,0,9,,,,,,,,3,,,72,0
73824,note_on,1,0,9,,,,,,,,3,,,72,85
73824,note_on,3,0,2,,,,,,,,0,,,72,64
73824,note_on,2,0,10,,,,,,,,3,,,65,85
73824,note_on,1,0,8,,,,,,,,3,,,81,85
73824,note_on,7,0,4,,,,,,,,1,,,60,64
73824,note_on,2,0,11,,,,,,,,3,,,41,64
73824,note_on,7,0,3,,,,,,,,1,,,72,64
73844,note_on,20,0,8,,,,,,,,3,,,81,0
73846,note_on,22,0,10,,,,,,,,3,,,65,0
73846,note_on,22,0,11,,,,,,,,3,,,41,0
73846,note_on,22,0,9,,,,,,,,3,,,72,0
73848,note_on,2,0,11,,,,,,,,3,,,41,64
73848,note_on,2,0,9,,,,,,,,3,,,72,85
73848,note_on,2,0,10,,,,,,,,3,,,65,85
73870,note_on,22,0,11,,,,,,,,3,,,41,0
73870,note_on,22,0,9,,,,,,,,3,,,72,0
73870,note_on,22,0,10,,,,,,,,3,,,65,0
73872,note_on,2,0,11,,,,,,,,3,,,41,64
73872,note_on,2,0,9,,,,,,,,3,,,72,85
73872,note_on,2,0,10,,,,,,,,3,,,65,85
73872,note_on,28,0,8,,,,,,,,3,,,81,85
73891,note_on,67,0,4,,,,,,,,1,,,60,0
73891,note_on,67,0,3,,,,,,,,1,,,72,0
73892,note_on,20,0,8,,,,,,,,3,,,81,0
73894,note_on,22,0,11,,,,,,,,3,,,41,0
73894,note_on,22,0,9,,,,,,,,3,,,72,0
73894,note_on,22,0,10,,,,,,,,3,,,65,0
73896,note_on,2,0,11,,,,,,,,3,,,41,64
73896,note_on,2,0,9,,,,,,,,3,,,72,85
73896,note_on,5,0,4,,,,,,,,1,,,60,64
73896,note_on,2,0,10,,,,,,,,3,,,65,85
73896,note_on,5,0,3,,,,,,,,1,,,72,64
73905,note_on,177,0,1,,,,,,,,0,,,81,0
73918,note_on,22,0,11,,,,,,,,3,,,41,0
73918,note_on,22,0,9,,,,,,,,3,,,72,0
73918,note_on,22,0,10,,,,,,,,3,,,65,0
73919,note_on,23,0,3,,,,,,,,1,,,72,0
73919,note_on,23,0,4,,,,,,,,1,,,60,0
73920,note_on,2,0,9,,,,,,,,3,,,72,85
73920,note_on,1,0,4,,,,,,,,1,,,60,64
73920,note_on,2,0,11,,,,,,,,3,,,40,64
73920,note_on,2,0,10,,,,,,,,3,,,64,85
73920,note_on,1,0,3,,,,,,,,1,,,72,64
73920,note_on,15,0,1,,,,,,,,0,,,79,64
73920,note_on,28,0,8,,,,,,,,3,,,79,85
73942,note_on,22,0,9,,,,,,,,3,,,72,0
73942,note_on,22,0,11,,,,,,,,3,,,40,0
73942,note_on,22,0,10,,,,,,,,3,,,64,0
73943,note_on,23,0,8,,,,,,,,3,,,79,0
73944,note_on,2,0,10,,,,,,,,3,,,64,85
73944,note_on,1,0,8,,,,,,,,3,,,78,85
73944,note_on,2,0,11,,,,,,,,3,,,40,64
73944,note_on,2,0,9,,,,,,,,3,,,72,85
73966,note_on,22,0,10,,,,,,,,3,,,64,0
73966,note_on,22,0,9,,,,,,,,3,,,72,0
73966,note_on,22,0,11,,,,,,,,3,,,40,0
73967,note_on,23,0,8,,,,,,,,3,,,78,0
73968,note_on,1,0,8,,,,,,,,3,,,79,85
73968,note_on,2,0,9,,,,,,,,3,,,72,85
73968,note_on,2,0,10,,,,,,,,3,,,64,85
73968,note_on,2,0,11,,,,,,,,3,,,40,64
73990,note_on,22,0,11,,,,,,,,3,,,40,0
73990,note_on,22,0,9,,,,,,,,3,,,72,0
73990,note_on,22,0,10,,,,,,,,3,,,64,0
73991,note_on,23,0,8,,,,,,,,3,,,79,0
73992,note_on,2,0,10,,,,,,,,3,,,64,85
73992,note_on,1,0,8,,,,,,,,3,,,81,85
73992,note_on,2,0,9,,,,,,,,3,,,72,85
73992,note_on,2,0,11,,,,,,,,3,,,40,64
74001,note_on,177,0,2,,,,,,,,0,,,72,0
74009,note_on,89,0,3,,,,,,,,1,,,72,0
74009,note_on,89,0,4,,,,,,,,1,,,60,0
74014,note_on,22,0,10,,,,,,,,3,,,64,0
74014,note_on,22,0,11,,,,,,,,3,,,40,0
74014,note_on,22,0,9,,,,,,,,3,,,72,0
74015,note_on,23,0,8,,,,,,,,3,,,81,0
74016,note_on,2,0,11,,,,,,,,3,,,40,64
74016,note_on,1,0,8,,,,,,,,3,,,79,85
74016,note_on,15,0,2,,,,,,,,0,,,72,64
74016,note_on,7,0,4,,,,,,,,1,,,60,64
74016,note_on,2,0,9,,,,,,,,3,,,72,85
74016,note_on,2,0,10,,,,,,,,3,,,64,85
74016,note_on,7,0,3,,,,,,,,1,,,72,64
74036,note_on,20,0,8,,,,,,,,3,,,79,0
74038,note_on,22,0,9,,,,,,,,3,,,72,0
74038,note_on,22,0,11,,,,,,,,3,,,40,0
74038,note_on,22,0,10,,,,,,,,3,,,64,0
74040,note_on,2,0,11,,,,,,,,3,,,40,64
74040,note_on,2,0,9,,,,,,,,3,,,72,85
74040,note_on,2,0,10,,,,,,,,3,,,64,85
74062,note_on,22,0,10,,,,,,,,3,,,64,0
74062,note_on,22,0,11,,,,,,,,3,,,40,0
74062,note_on,22,0,9,,,,,,,,3,,,72,0
74064,note_on,2,0,10,,,,,,,,3,,,64,85
74064,note_on,2,0,11,,,,,,,,3,,,40,64
74064,note_on,2,0,9,,,,,,,,3,,,72,85
74064,note_on,28,0,8,,,,,,,,3,,,79,85
74083,note_on,67,0,3,,,,,,,,1,,,72,0
74083,note_on,67,0,4,,,,,,,,1,,,60,0
74084,note_on,20,0,8,,,,,,,,3,,,79,0
74086,note_on,22,0,11,,,,,,,,3,,,40,0
74086,note_on,22,0,10,,,,,,,,3,,,64,0
74086,note_on,22,0,9,,,,,,,,3,,,72,0
74088,note_on,5,0,4,,,,,,,,1,,,60,64
74088,note_on,2,0,10,,,,,,,,3,,,64,85
74088,note_on,2,0,9,,,,,,,,3,,,72,85
74088,note_on,2,0,11,,,,,,,,3,,,40,64
74088,note_on,5,0,3,,,,,,,,1,,,72,64
74097,note_on,177,0,1,,,,,,,,0,,,79,0
74105,note_on,89,0,2,,,,,,,,0,,,72,0
74110,note_on,22,0,9,,,,,,,,3,,,72,0
74110,note_on,22,0,11,,,,,,,,3,,,40,0
74110,note_on,22,0,10,,,,,,,,3,,,64,0
74111,note_on,23,0,4,,,,,,,,1,,,60,0
74111,note_on,23,0,3,,,,,,,,1,,,72,0
74112,note_on,2,0,9,,,,,,,,3,,,72,85
74112,note_on,1,0,3,,,,,,,,1,,,72,64
74112,note_on,7,0,2,,,,,,,,0,,,77,64
74112,note_on,15,0,1,,,,,,,,0,,,77,64
74112,note_on,28,0,8,,,,,,,,3,,,77,85
74112,note_on,2,0,10,,,,,,,,3,,,69,85
74112,note_on,2,0,11,,,,,,,,3,,,45,64
74112,note_on,1,0,4,,,,,,,,1,,,60,64
74134,note_on,22,0,9,,,,,,,,3,,,72,0
74136,note_on,2,0,9,,,,,,,,3,,,72,85
74151,note_on,39,0,10,,,,,,,,3,,,69,0
74151,note_on,39,0,11,,,,,,,,3,,,45,0
74151,note_on,39,0,2,,,,,,,,0,,,77,0
74151,note_on,39,0,8,,,,,,,,3,,,77,0
74157,note_on,45,0,1,,,,,,,,0,,,77,0
74158,note_on,22,0,9,,,,,,,,3,,,72,0
74160,note_on,2,0,9,,,,,,,,3,,,72,85
74160,note_on,3,0,1,,,,,,,,0,,,84,64
74182,note_on,22,0,9,,,,,,,,3,,,72,0
74184,note_on,2,0,9,,,,,,,,3,,,72,85
74201,note_on,89,0,4,,,,,,,,1,,,60,0
74201,note_on,89,0,3,,,,,,,,1,,,72,0
74205,note_on,45,0,1,,,,,,,,0,,,84,0
74206,note_on,22,0,9,,,,,,,,3,,,72,0
74208,note_on,3,0,1,,,,,,,,0,,,84,64
74208,note_on,57,0,2,,,,,,,,0,,,76,64
74208,note_on,7,0,4,,,,,,,,1,,,60,64
74208,note_on,57,0,10,,,,,,,,3,,,67,85
74208,note_on,57,0,8,,,,,,,,3,,,76,85
74208,note_on,7,0,3,,,,,,,,1,,,72,64
74208,note_on,2,0,9,,,,,,,,3,,,72,85
74208,note_on,57,0,11,,,,,,,,3,,,43,64
74230,note_on,22,0,9,,,,,,,,3,,,72,0
74232,note_on,2,0,9,,,,,,,,3,,,72,85
74247,note_on,39,0,10,,,,,,,,3,,,67,0
74247,note_on,39,0,8,,,,,,,,3,,,76,0
74247,note_on,39,0,11,,,,,,,,3,,,43,0
74247,note_on,39,0,2,,,,,,,,0,,,76,0
74254,note_on,22,0,9,,,,,,,,3,,,72,0
74256,note_on,2,0,9,,,,,,,,3,,,72,85
74278,note_on,22,0,9,,,,,,,,3,,,72,0
74280,note_on,2,0,9,,,,,,,,3,,,72,85
74297,note_on,89,0,3,,,,,,,,1,,,72,0
74297,note_on,89,0,4,,,,,,,,1,,,60,0
74302,note_on,22,0,9,,,,,,,,3,,,72,0
74304,note_on,57,0,8,,,,,,,,3,,,77,85
74304,note_on,57,0,11,,,,,,,,3,,,45,64
74304,note_on,2,0,9,,,,,,,,3,,,72,85
74304,note_on,7,0,4,,,,,,,,1,,,60,64
74304,note_on,57,0,2,,,,,,,,0,,,77,64
74304,note_on,57,0,10,,,,,,,,3,,,69,85
74304,note_on,7,0,3,,,,,,,,1,,,72,64
74326,note_on,22,0,9,,,,,,,,3,,,72,0
74328,note_on,2,0,9,,,,,,,,3,,,72,85
74343,note_on,39,0,11,,,,,,,,3,,,45,0
74343,note_on,39,0,8,,,,,,,,3,,,77,0
74343,note_on,39,0,10,,,,,,,,3,,,69,0
74343,note_on,39,0,2,,,,,,,,0,,,77,0
74350,note_on,22,0,9,,,,,,,,3,,,72,0
74352,note_on,2,0,9,,,,,,,,3,,,72,85
74374,note_on,22,0,9,,,,,,,,3,,,72,0
74376,note_on,2,0,9,,,,,,,,3,,,72,85
74385,note_on,177,0,1,,,,,,,,0,,,84,0
74393,note_on,89,0,4,,,,,,,,1,,,60,0
74393,note_on,89,0,3,,,,,,,,1,,,72,0
74398,note_on,22,0,9,,,,,,,,3,,,72,0
74400,note_on,7,0,4,,,,,,,,1,,,60,64
74400,note_on,57,0,8,,,,,,,,3,,,74,85
74400,note_on,57,0,11,,,,,,,,3,,,42,64
74400,note_on,7,0,3,,,,,,,,1,,,72,64
74400,note_on,57,0,10,,,,,,,,3,,,66,85
74400,note_on,2,0,9,,,,,,,,3,,,72,85
74400,note_on,57,0,2,,,,,,,,0,,,74,64
74400,note_on,15,0,1,,,,,,,,0,,,84,64
74422,note_on,22,0,9,,,,,,,,3,,,72,0
74424,note_on,2,0,9,,,,,,,,3,,,72,85
74439,note_on,39,0,10,,,,,,,,3,,,66,0
74439,note_on,39,0,2,,,,,,,,0,,,74,0
74439,note_on,39,0,8,,,,,,,,3,,,74,0
74439,note_on,39,0,11,,,,,,,,3,,,42,0
74446,note_on,22,0,9,,,,,,,,3,,,72,0
74448,note_on,2,0,9,,,,,,,,3,,,72,85
74470,note_on,22,0,9,,,,,,,,3,,,72,0
74472,note_on,2,0,9,,,,,,,,3,,,72,85
74489,note_on,89,0,3,,,,,,,,1,,,72,0
74489,note_on,89,0,1,,,,,,,,0,,,84,0
74489,note_on,89,0,4,,,,,,,,1,,,60,0
74494,note_on,22,0,9,,,,,,,,3,,,72,0
74496,note_on,1587,0,6,,,,,,,,2,,,55,64
74496,note_on,0,0,9,,,,,,,,3,,,64,85
74496,note_on,7,0,3,,,,,,,,1,,,67,64
74496,note_on,57,0,2,,,,,,,,0,,,76,64
74496,note_on,57,0,8,,,,,,,,3,,,76,85
74496,note_on,7,0,4,,,,,,,,1,,,67,64
74496,note_on,57,0,10,,,,,,,,3,,,67,85
74496,note_on,57,0,11,,,,,,,,3,,,43,64
74496,note_on,7,0,1,,,,,,,,0,,,84,64
74496,note_on,0,0,5,,,,,,,,2,,,72,64
74496,note_on,0,0,8,,,,,,,,3,,,72,85
74496,note_on,2,0,9,,,,,,,,3,,,72,85
74496,note_on,1587,0,5,,,,,,,,2,,,76,64
74496,note_on,0,0,9,,,,,,,,3,,,55,85
74673,note_on,177,0,5,,,,,,,,2,,,72,0
74673,note_on,177,0,1,,,,,,,,0,,,84,0
74673,note_on,177,0,8,,,,,,,,3,,,72,0
74673,note_on,0,0,5,,,,,,,,2,,,76,0
74673,note_on,177,0,2,,,,,,,,0,,,76,0
74673,note_on,0,0,8,,,,,,,,3,,,76,0
74673,note_on,177,0,4,,,,,,,,1,,,67,0
74673,note_on,177,0,11,,,,,,,,3,,,43,0
74673,note_on,0,0,9,,,,,,,,3,,,72,0
74673,note_on,0,0,9,,,,,,,,3,,,64,0
74673,note_on,177,0,9,,,,,,,,3,,,55,0
74673,note_on,177,0,3,,,,,,,,1,,,67,0
74673,note_on,177,0,10,,,,,,,,3,,,67,0
74673,note_on,177,0,6,,,,,,,,2,,,55,0
74688,note_on,15,0,6,,,,,,,,2,,,59,64
74688,note_on,15,0,5,,,,,,,,2,,,74,64
74688,note_on,0,0,6,,,,,,,,2,,,55,64
74700,note_on,0,0,5,,,,,,,,2,,,76,64
74700,note_on,12,0,5,,,,,,,,2,,,74,0
74712,note_on,12,0,5,,,,,,,,2,,,76,0
74712,note_on,0,0,5,,,,,,,,2,,,74,64
74724,note_on,12,0,5,,,,,,,,2,,,74,0
74724,note_on,0,0,5,,,,,,,,2,,,76,64
74736,note_on,0,0,5,,,,,,,,2,,,74,64
74736,note_on,12,0,5,,,,,,,,2,,,76,0
74748,note_on,0,0,5,,,,,,,,2,,,76,64
74748,note_on,12,0,5,,,,,,,,2,,,74,0
74760,note_on,0,0,5,,,,,,,,2,,,74,64
74760,note_on,12,0,5,,,,,,,,2,,,76,0
74772,note_on,0,0,5,,,,,,,,2,,,76,64
74772,note_on,12,0,5,,,,,,,,2,,,74,0
74784,note_on,0,0,5,,,,,,,,2,,,74,64
74784,note_on,12,0,5,,,,,,,,2,,,76,0
74796,note_on,0,0,5,,,,,,,,2,,,76,64
74796,note_on,12,0,5,,,,,,,,2,,,74,0
74808,note_on,0,0,5,,,,,,,,2,,,74,64
74808,note_on,12,0,5,,,,,,,,2,,,76,0
74820,note_on,0,0,5,,,,,,,,2,,,76,64
74820,note_on,12,0,5,,,,,,,,2,,,74,0
74832,note_on,12,0,5,,,,,,,,2,,,76,0
74832,note_on,0,0,5,,,,,,,,2,,,74,64
74844,note_on,0,0,5,,,,,,,,2,,,76,64
74844,note_on,12,0,5,,,,,,,,2,,,74,0
74856,note_on,12,0,5,,,,,,,,2,,,76,0
74856,note_on,0,0,5,,,,,,,,2,,,74,64
74865,note_on,9,0,5,,,,,,,,2,,,74,0
74865,note_on,177,0,6,,,,,,,,2,,,55,0
74865,note_on,0,0,6,,,,,,,,2,,,59,0
74880,note_on,15,0,5,,,,,,,,2,,,72,78
74880,note_on,207,0,10,,,,,,,,3,,,60,85
74880,note_on,207,0,11,,,,,,,,3,,,36,64
74880,note_on,207,0,4,,,,,,,,1,,,60,64
74880,note_on,207,0,2,,,,,,,,0,,,64,64
74880,note_on,15,0,6,,,,,,,,2,,,60,78
74880,note_on,207,0,1,,,,,,,,0,,,84,64
74880,note_on,207,0,8,,,,,,,,3,,,72,85
74880,note_on,207,0,9,,,,,,,,3,,,64,85
74880,note_on,207,0,3,,,,,,,,1,,,72,64
74903,note_on,23,0,9,,,,,,,,3,,,64,0
74904,note_on,1,0,9,,,,,,,,3,,,72,85
74925,note_on,45,0,11,,,,,,,,3,,,36,0
74925,note_on,45,0,10,,,,,,,,3,,,60,0
74927,note_on,23,0,9,,,,,,,,3,,,72,0
74928,note_on,3,0,10,,,,,,,,3,,,60,85
74928,note_on,1,0,9,,,,,,,,3,,,71,85
74928,note_on,3,0,11,,,,,,,,3,,,36,64
74938,note_on,10,0,9,,,,,,,,3,,,71,0
74952,note_on,14,0,9,,,,,,,,3,,,72,85
74962,note_on,10,0,9,,,,,,,,3,,,72,0
74969,note_on,89,0,5,,,,,,,,2,,,72,0
74969,end_of_track,0,1,5,,,,,,,,,,,,
74969,end_of_track,0,1,6,,,,,,,,,,,,
74969,note_on,89,0,6,,,,,,,,2,,,60,0
74973,note_on,45,0,10,,,,,,,,3,,,60,0
74973,note_on,45,0,11,,,,,,,,3,,,36,0
74976,note_on,3,0,10,,,,,,,,3,,,60,85
74976,note_on,14,0,9,,,,,,,,3,,,74,85
74976,note_on,3,0,11,,,,,,,,3,,,36,64
74999,note_on,23,0,9,,,,,,,,3,,,74,0
75000,note_on,1,0,9,,,,,,,,3,,,72,85
75013,note_on,133,0,8,,,,,,,,3,,,72,0
75021,note_on,45,0,11,,,,,,,,3,,,36,0
75021,note_on,45,0,10,,,,,,,,3,,,60,0
75023,note_on,23,0,9,,,,,,,,3,,,72,0
75024,note_on,3,0,10,,,,,,,,3,,,60,85
75024,note_on,1,0,9,,,,,,,,3,,,71,85
75024,note_on,3,0,11,,,,,,,,3,,,36,64
75024,note_on,11,0,8,,,,,,,,3,,,79,85
75034,note_on,10,0,9,,,,,,,,3,,,71,0
75036,note_on,12,0,8,,,,,,,,3,,,79,0
75036,note_on,0,0,8,,,,,,,,3,,,81,85
75047,note_on,11,0,8,,,,,,,,3,,,81,0
75048,note_on,1,0,8,,,,,,,,3,,,78,85
75048,note_on,14,0,9,,,,,,,,3,,,72,85
75057,note_on,177,0,2,,,,,,,,0,,,64,0
75058,note_on,10,0,9,,,,,,,,3,,,72,0
75060,note_on,12,0,8,,,,,,,,3,,,78,0
75060,note_on,0,0,8,,,,,,,,3,,,79,85
75069,note_on,45,0,10,,,,,,,,3,,,60,0
75069,note_on,45,0,11,,,,,,,,3,,,36,0
75072,note_on,0,0,8,,,,,,,,3,,,76,85
75072,note_on,3,0,10,,,,,,,,3,,,64,85
75072,note_on,14,0,9,,,,,,,,3,,,67,85
75072,note_on,15,0,2,,,,,,,,0,,,67,64
75072,note_on,3,0,11,,,,,,,,3,,,40,64
75072,note_on,12,0,8,,,,,,,,3,,,79,0
75092,note_on,20,0,8,,,,,,,,3,,,76,0
75095,note_on,23,0,9,,,,,,,,3,,,67,0
75096,note_on,1,0,9,,,,,,,,3,,,72,85
75117,note_on,45,0,11,,,,,,,,3,,,40,0
75117,note_on,45,0,10,,,,,,,,3,,,64,0
75117,note_on,237,0,3,,,,,,,,1,,,72,0
75117,note_on,237,0,4,,,,,,,,1,,,60,0
75119,note_on,23,0,9,,,,,,,,3,,,72,0
75120,note_on,3,0,3,,,,,,,,1,,,72,64
75120,note_on,28,0,8,,,,,,,,3,,,72,85
75120,note_on,3,0,10,,,,,,,,3,,,64,85
75120,note_on,1,0,9,,,,,,,,3,,,71,85
75120,note_on,3,0,11,,,,,,,,3,,,40,64
75120,note_on,3,0,4,,,,,,,,1,,,60,64
75130,note_on,10,0,9,,,,,,,,3,,,71,0
75140,note_on,20,0,8,,,,,,,,3,,,72,0
75144,note_on,14,0,9,,,,,,,,3,,,72,85
75145,note_on,265,0,1,,,,,,,,0,,,84,0
75154,note_on,10,0,9,,,,,,,,3,,,72,0
75161,note_on,89,0,2,,,,,,,,0,,,67,0
75165,note_on,45,0,11,,,,,,,,3,,,40,0
75165,note_on,45,0,4,,,,,,,,1,,,60,0
75165,note_on,45,0,10,,,,,,,,3,,,64,0
75165,note_on,45,0,3,,,,,,,,1,,,72,0
75168,note_on,14,0,9,,,,,,,,3,,,74,85
75168,note_on,3,0,11,,,,,,,,3,,,40,64
75168,note_on,3,0,3,,,,,,,,1,,,72,64
75168,note_on,7,0,2,,,,,,,,0,,,79,64
75168,note_on,3,0,4,,,,,,,,1,,,60,64
75168,note_on,28,0,8,,,,,,,,3,,,82,85
75168,note_on,23,0,1,,,,,,,,0,,,82,64
75168,note_on,3,0,10,,,,,,,,3,,,64,85
75188,note_on,20,0,8,,,,,,,,3,,,82,0
75191,note_on,23,0,9,,,,,,,,3,,,74,0
75192,note_on,1,0,9,,,,,,,,3,,,72,85
75213,note_on,45,0,3,,,,,,,,1,,,72,0
75213,note_on,45,0,11,,,,,,,,3,,,40,0
75213,note_on,45,0,10,,,,,,,,3,,,64,0
75213,note_on,45,0,4,,,,,,,,1,,,60,0
75215,note_on,23,0,9,,,,,,,,3,,,72,0
75216,note_on,3,0,10,,,,,,,,3,,,64,85
75216,note_on,1,0,9,,,,,,,,3,,,71,85
75216,note_on,3,0,3,,,,,,,,1,,,72,64
75216,note_on,28,0,8,,,,,,,,3,,,79,85
75216,note_on,3,0,4,,,,,,,,1,,,60,64
75216,note_on,3,0,11,,,,,,,,3,,,40,64
75226,note_on,10,0,9,,,,,,,,3,,,71,0
75236,note_on,20,0,8,,,,,,,,3,,,79,0
75240,note_on,14,0,9,,,,,,,,3,,,72,85
75250,note_on,10,0,9,,,,,,,,3,,,72,0
75257,note_on,89,0,1,,,,,,,,0,,,82,0
75257,note_on,89,0,2,,,,,,,,0,,,79,0
75261,note_on,45,0,10,,,,,,,,3,,,64,0
75261,note_on,45,0,3,,,,,,,,1,,,72,0
75261,note_on,45,0,11,,,,,,,,3,,,40,0
75261,note_on,45,0,4,,,,,,,,1,,,60,0
75264,note_on,3,0,4,,,,,,,,1,,,60,64
75264,note_on,28,0,8,,,,,,,,3,,,81,85
75264,note_on,14,0,9,,,,,,,,3,,,65,85
75264,note_on,7,0,2,,,,,,,,0,,,77,64
75264,note_on,7,0,1,,,,,,,,0,,,81,64
75264,note_on,3,0,10,,,,,,,,3,,,65,85
75264,note_on,3,0,11,,,,,,,,3,,,41,64
75264,note_on,3,0,3,,,,,,,,1,,,72,64
75287,note_on,23,0,9,,,,,,,,3,,,65,0
75288,note_on,1,0,9,,,,,,,,3,,,72,85
75309,note_on,45,0,11,,,,,,,,3,,,41,0
75309,note_on,45,0,10,,,,,,,,3,,,65,0
75311,note_on,23,0,9,,,,,,,,3,,,72,0
75312,note_on,3,0,10,,,,,,,,3,,,65,85
75312,note_on,1,0,9,,,,,,,,3,,,71,85
75312,note_on,3,0,11,,,,,,,,3,,,41,64
75322,note_on,10,0,9,,,,,,,,3,,,71,0
75336,note_on,14,0,9,,,,,,,,3,,,72,85
75346,note_on,10,0,9,,,,,,,,3,,,72,0
75357,note_on,45,0,11,,,,,,,,3,,,41,0
75357,note_on,45,0,10,,,,,,,,3,,,65,0
75360,note_on,14,0,9,,,,,,,,3,,,74,85
75360,note_on,3,0,10,,,,,,,,3,,,65,85
75360,note_on,3,0,11,,,,,,,,3,,,41,64
75383,note_on,23,0,9,,,,,,,,3,,,74,0
75384,note_on,1,0,9,,,,,,,,3,,,72,85
75397,note_on,133,0,8,,,,,,,,3,,,81,0
75405,note_on,45,0,10,,,,,,,,3,,,65,0
75405,note_on,45,0,11,,,,,,,,3,,,41,0
75407,note_on,23,0,9,,,,,,,,3,,,72,0
75408,note_on,1,0,9,,,,,,,,3,,,71,85
75408,note_on,3,0,10,,,,,,,,3,,,65,85
75408,note_on,3,0,11,,,,,,,,3,,,41,64
75408,note_on,11,0,8,,,,,,,,3,,,77,85
75418,note_on,10,0,9,,,,,,,,3,,,71,0
75420,note_on,12,0,8,,,,,,,,3,,,77,0
75420,note_on,0,0,8,,,,,,,,3,,,79,85
75431,note_on,11,0,8,,,,,,,,3,,,79,0
75432,note_on,1,0,8,,,,,,,,3,,,76,85
75432,note_on,14,0,9,,,,,,,,3,,,72,85
75442,note_on,10,0,9,,,,,,,,3,,,72,0
75444,note_on,12,0,8,,,,,,,,3,,,76,0
75444,note_on,0,0,8,,,,,,,,3,,,77,85
75453,note_on,45,0,10,,,,,,,,3,,,65,0
75453,note_on,45,0,11,,,,,,,,3,,,41,0
75456,note_on,3,0,10,,,,,,,,3,,,65,85
75456,note_on,14,0,9,,,,,,,,3,,,69,85
75456,note_on,3,0,11,,,,,,,,3,,,41,64
75456,note_on,12,0,8,,,,,,,,3,,,77,0
75456,note_on,0,0,8,,,,,,,,3,,,72,85
75476,note_on,20,0,8,,,,,,,,3,,,72,0
75479,note_on,23,0,9,,,,,,,,3,,,69,0
75480,note_on,1,0,9,,,,,,,,3,,,72,85
75501,note_on,237,0,3,,,,,,,,1,,,72,0
75501,note_on,45,0,11,,,,,,,,3,,,41,0
75501,note_on,45,0,10,,,,,,,,3,,,65,0
75501,note_on,237,0,4,,,,,,,,1,,,60,0
75503,note_on,23,0,9,,,,,,,,3,,,72,0
75504,note_on,3,0,10,,,,,,,,3,,,65,85
75504,note_on,3,0,3,,,,,,,,1,,,74,64
75504,note_on,3,0,11,,,,,,,,3,,,41,64
75504,note_on,3,0,4,,,,,,,,1,,,72,64
75504,note_on,1,0,9,,,,,,,,3,,,71,85
75504,note_on,28,0,8,,,,,,,,3,,,69,85
75514,note_on,10,0,9,,,,,,,,3,,,71,0
75524,note_on,20,0,8,,,,,,,,3,,,69,0
75528,note_on,14,0,9,,,,,,,,3,,,72,85
75529,note_on,265,0,1,,,,,,,,0,,,81,0
75529,note_on,265,0,2,,,,,,,,0,,,77,0
75538,note_on,10,0,9,,,,,,,,3,,,72,0
75549,note_on,45,0,10,,,,,,,,3,,,65,0
75549,note_on,45,0,4,,,,,,,,1,,,72,0
75549,note_on,45,0,3,,,,,,,,1,,,74,0
75549,note_on,45,0,11,,,,,,,,3,,,41,0
75552,note_on,3,0,3,,,,,,,,1,,,74,64
75552,note_on,14,0,9,,,,,,,,3,,,74,85
75552,note_on,28,0,8,,,,,,,,3,,,81,85
75552,note_on,23,0,2,,,,,,,,0,,,74,64
75552,note_on,23,0,1,,,,,,,,0,,,77,64
75552,note_on,3,0,4,,,,,,,,1,,,72,64
75552,note_on,3,0,11,,,,,,,,3,,,41,64
75552,note_on,3,0,10,,,,,,,,3,,,65,85
75572,note_on,20,0,8,,,,,,,,3,,,81,0
75575,note_on,23,0,9,,,,,,,,3,,,74,0
75576,note_on,1,0,9,,,,,,,,3,,,72,85
75597,note_on,45,0,4,,,,,,,,1,,,72,0
75597,note_on,45,0,11,,,,,,,,3,,,41,0
75597,note_on,45,0,10,,,,,,,,3,,,65,0
75597,note_on,45,0,3,,,,,,,,1,,,74,0
75599,note_on,23,0,9,,,,,,,,3,,,72,0
75600,note_on,1,0,9,,,,,,,,3,,,71,85
75600,note_on,28,0,8,,,,,,,,3,,,77,85
75600,note_on,3,0,3,,,,,,,,1,,,74,64
75600,note_on,3,0,10,,,,,,,,3,,,65,85
75600,note_on,3,0,4,,,,,,,,1,,,72,64
75600,note_on,3,0,11,,,,,,,,3,,,41,64
75610,note_on,10,0,9,,,,,,,,3,,,71,0
75620,note_on,20,0,8,,,,,,,,3,,,77,0
75624,note_on,14,0,9,,,,,,,,3,,,72,85
75634,note_on,10,0,9,,,,,,,,3,,,72,0
75641,note_on,89,0,2,,,,,,,,0,,,74,0
75641,note_on,89,0,1,,,,,,,,0,,,77,0
75645,note_on,45,0,4,,,,,,,,1,,,72,0
75645,note_on,45,0,10,,,,,,,,3,,,65,0
75645,note_on,45,0,11,,,,,,,,3,,,41,0
75645,note_on,45,0,3,,,,,,,,1,,,74,0
75648,note_on,3,0,10,,,,,,,,3,,,67,85
75648,note_on,3,0,4,,,,,,,,1,,,72,64
75648,note_on,3,0,3,,,,,,,,1,,,76,64
75648,note_on,7,0,2,,,,,,,,0,,,72,64
75648,note_on,3,0,11,,,,,,,,3,,,43,64
75648,note_on,28,0,8,,,,,,,,3,,,76,85
75648,note_on,7,0,1,,,,,,,,0,,,76,64
75648,note_on,14,0,9,,,,,,,,3,,,60,85
75671,note_on,23,0,2,,,,,,,,0,,,72,0
75671,note_on,23,0,1,,,,,,,,0,,,76,0
75671,note_on,23,0,8,,,,,,,,3,,,76,0
75671,note_on,23,0,9,,,,,,,,3,,,60,0
75672,note_on,1,0,8,,,,,,,,3,,,77,85
75672,note_on,1,0,2,,,,,,,,0,,,74,64
75672,note_on,1,0,9,,,,,,,,3,,,62,85
75672,note_on,1,0,1,,,,,,,,0,,,77,64
75693,note_on,45,0,10,,,,,,,,3,,,67,0
75693,note_on,45,0,11,,,,,,,,3,,,43,0
75695,note_on,23,0,2,,,,,,,,0,,,74,0
75695,note_on,23,0,9,,,,,,,,3,,,62,0
75695,note_on,23,0,8,,,,,,,,3,,,77,0
75695,note_on,23,0,1,,,,,,,,0,,,77,0
75696,note_on,3,0,11,,,,,,,,3,,,43,64
75696,note_on,1,0,9,,,,,,,,3,,,64,85
75696,note_on,3,0,10,,,,,,,,3,,,67,85
75696,note_on,1,0,2,,,,,,,,0,,,76,64
75696,note_on,1,0,1,,,,,,,,0,,,79,64
75696,note_on,1,0,8,,,,,,,,3,,,79,85
75706,note_on,10,0,1,,,,,,,,0,,,79,0
75706,note_on,10,0,8,,,,,,,,3,,,79,0
75706,note_on,10,0,2,,,,,,,,0,,,76,0
75706,note_on,10,0,9,,,,,,,,3,,,64,0
75720,note_on,14,0,2,,,,,,,,0,,,76,64
75720,note_on,14,0,9,,,,,,,,3,,,64,85
75720,note_on,14,0,8,,,,,,,,3,,,79,85
75720,note_on,14,0,1,,,,,,,,0,,,79,64
75730,note_on,10,0,2,,,,,,,,0,,,76,0
75730,note_on,10,0,8,,,,,,,,3,,,79,0
75730,note_on,10,0,9,,,,,,,,3,,,64,0
75730,note_on,10,0,1,,,,,,,,0,,,79,0
75737,note_on,89,0,4,,,,,,,,1,,,72,0
75737,note_on,89,0,3,,,,,,,,1,,,76,0
75741,note_on,45,0,11,,,,,,,,3,,,43,0
75741,note_on,45,0,10,,,,,,,,3,,,67,0
75744,note_on,7,0,4,,,,,,,,1,,,60,64
75744,note_on,14,0,1,,,,,,,,0,,,79,64
75744,note_on,14,0,8,,,,,,,,3,,,79,85
75744,note_on,3,0,10,,,,,,,,3,,,67,85
75744,note_on,7,0,3,,,,,,,,1,,,72,64
75744,note_on,3,0,11,,,,,,,,3,,,43,64
75744,note_on,14,0,9,,,,,,,,3,,,64,85
75744,note_on,14,0,2,,,,,,,,0,,,76,64
75754,note_on,10,0,8,,,,,,,,3,,,79,0
75754,note_on,10,0,9,,,,,,,,3,,,64,0
75768,note_on,14,0,8,,,,,,,,3,,,79,85
75768,note_on,14,0,9,,,,,,,,3,,,64,85
75778,note_on,10,0,9,,,,,,,,3,,,64,0
75778,note_on,10,0,8,,,,,,,,3,,,79,0
75789,note_on,45,0,10,,,,,,,,3,,,67,0
75789,note_on,45,0,3,,,,,,,,1,,,72,0
75789,note_on,45,0,11,,,,,,,,3,,,43,0
75789,note_on,45,0,4,,,,,,,,1,,,60,0
75792,note_on,3,0,10,,,,,,,,3,,,67,85
75792,note_on,14,0,9,,,,,,,,3,,,64,85
75792,note_on,3,0,11,,,,,,,,3,,,43,64
75792,note_on,3,0,3,,,,,,,,1,,,76,64
75792,note_on,3,0,4,,,,,,,,1,,,64,64
75792,note_on,14,0,8,,,,,,,,3,,,79,85
75802,note_on,10,0,8,,,,,,,,3,,,79,0
75802,note_on,10,0,9,,,,,,,,3,,,64,0
75816,note_on,14,0,9,,,,,,,,3,,,64,85
75816,note_on,14,0,8,,,,,,,,3,,,79,85
75826,note_on,10,0,8,,,,,,,,3,,,79,0
75826,note_on,10,0,9,,,,,,,,3,,,64,0
75837,note_on,45,0,3,,,,,,,,1,,,76,0
75837,note_on,45,0,11,,,,,,,,3,,,43,0
75837,note_on,45,0,10,,,,,,,,3,,,67,0
75837,note_on,45,0,4,,,,,,,,1,,,64,0
75840,note_on,3,0,11,,,,,,,,3,,,31,64
75840,note_on,3,0,3,,,,,,,,1,,,79,64
75840,note_on,3,0,4,,,,,,,,1,,,67,64
75840,note_on,3,0,10,,,,,,,,3,,,55,85
75840,note_on,14,0,8,,,,,,,,3,,,79,85
75840,note_on,14,0,9,,,,,,,,3,,,64,85
75877,note_on,133,0,2,,,,,,,,0,,,76,0
75877,note_on,133,0,1,,,,,,,,0,,,79,0
75885,note_on,45,0,11,,,,,,,,3,,,31,0
75885,note_on,45,0,10,,,,,,,,3,,,55,0
75885,note_on,45,0,8,,,,,,,,3,,,79,0
75885,note_on,45,0,9,,,,,,,,3,,,64,0
75888,note_on,11,0,2,,,,,,,,0,,,74,64
75888,note_on,11,0,1,,,,,,,,0,,,77,64
75888,note_on,3,0,11,,,,,,,,3,,,31,64
75888,note_on,3,0,10,,,,,,,,3,,,55,85
75888,note_on,3,0,9,,,,,,,,3,,,62,85
75888,note_on,3,0,8,,,,,,,,3,,,77,85
75908,note_on,20,0,1,,,,,,,,0,,,77,0
75908,note_on,20,0,2,,,,,,,,0,,,74,0
75929,note_on,89,0,4,,,,,,,,1,,,67,0
75929,note_on,89,0,3,,,,,,,,1,,,79,0
75933,note_on,45,0,11,,,,,,,,3,,,31,0
75933,note_on,45,0,8,,,,,,,,3,,,77,0
75933,note_on,45,0,9,,,,,,,,3,,,62,0
75933,note_on,45,0,10,,,,,,,,3,,,55,0
75936,note_on,3,0,8,,,,,,,,3,,,76,85
75936,note_on,3,0,11,,,,,,,,3,,,31,64
75936,note_on,7,0,4,,,,,,,,1,,,55,64
75936,note_on,28,0,2,,,,,,,,0,,,72,64
75936,note_on,28,0,1,,,,,,,,0,,,76,64
75936,note_on,3,0,10,,,,,,,,3,,,55,85
75936,note_on,7,0,3,,,,,,,,1,,,67,64
75936,note_on,3,0,9,,,,,,,,3,,,60,85
75956,note_on,20,0,8,,,,,,,,3,,,76,0
75956,note_on,20,0,2,,,,,,,,0,,,72,0
75956,note_on,20,0,9,,,,,,,,3,,,60,0
75956,note_on,20,0,1,,,,,,,,0,,,76,0
75981,note_on,45,0,10,,,,,,,,3,,,55,0
75981,note_on,45,0,11,,,,,,,,3,,,31,0
75984,note_on,28,0,9,,,,,,,,3,,,59,85
75984,note_on,3,0,11,,,,,,,,3,,,31,64
75984,note_on,28,0,2,,,,,,,,0,,,71,64
75984,note_on,28,0,1,,,,,,,,0,,,74,64
75984,note_on,3,0,10,,,,,,,,3,,,55,85
75984,note_on,28,0,8,,,,,,,,3,,,74,85
76004,note_on,20,0,8,,,,,,,,3,,,74,0
76004,note_on,20,0,9,,,,,,,,3,,,59,0
76004,note_on,20,0,1,,,,,,,,0,,,74,0
76004,note_on,20,0,2,,,,,,,,0,,,71,0
76025,note_on,89,0,4,,,,,,,,1,,,55,0
76025,note_on,89,0,3,,,,,,,,1,,,67,0
76029,note_on,45,0,11,,,,,,,,3,,,31,0
76029,note_on,45,0,10,,,,,,,,3,,,55,0
76032,note_on,28,0,2,,,,,,,,0,,,67,64
76032,note_on,28,0,1,,,,,,,,0,,,84,64
76032,note_on,28,0,8,,,,,,,,3,,,84,85
76032,note_on,7,0,3,,,,,,,,1,,,72,64
76032,note_on,3,0,11,,,,,,,,3,,,40,64
76032,note_on,7,0,4,,,,,,,,1,,,60,64
76032,note_on,28,0,9,,,,,,,,3,,,67,85
76032,note_on,3,0,10,,,,,,,,3,,,64,85
76055,note_on,23,0,9,,,,,,,,3,,,67,0
76056,note_on,1,0,9,,,,,,,,3,,,72,85
76077,note_on,45,0,10,,,,,,,,3,,,64,0
76077,note_on,45,0,11,,,,,,,,3,,,40,0
76079,note_on,23,0,9,,,,,,,,3,,,72,0
76080,note_on,3,0,10,,,,,,,,3,,,64,85
76080,note_on,1,0,9,,,,,,,,3,,,71,85
76080,note_on,3,0,11,,,,,,,,3,,,40,64
76090,note_on,10,0,9,,,,,,,,3,,,71,0
76104,note_on,14,0,9,,,,,,,,3,,,72,85
76114,note_on,10,0,9,,,,,,,,3,,,72,0
76125,note_on,45,0,11,,,,,,,,3,,,40,0
76125,note_on,45,0,10,,,,,,,,3,,,64,0
76128,note_on,3,0,11,,,,,,,,3,,,40,64
76128,note_on,14,0,9,,,,,,,,3,,,74,85
76128,note_on,3,0,10,,,,,,,,3,,,64,85
76151,note_on,23,0,9,,,,,,,,3,,,74,0
76152,note_on,1,0,9,,,,,,,,3,,,72,85
76165,note_on,133,0,8,,,,,,,,3,,,84,0
76173,note_on,45,0,10,,,,,,,,3,,,64,0
76173,note_on,45,0,11,,,,,,,,3,,,40,0
76175,note_on,23,0,9,,,,,,,,3,,,72,0
76176,note_on,1,0,9,,,,,,,,3,,,71,85
76176,note_on,3,0,10,,,,,,,,3,,,64,85
76176,note_on,11,0,8,,,,,,,,3,,,79,85
76176,note_on,3,0,11,,,,,,,,3,,,40,64
76186,note_on,10,0,9,,,,,,,,3,,,71,0
76188,note_on,0,0,8,,,,,,,,3,,,81,85
76188,note_on,12,0,8,,,,,,,,3,,,79,0
76199,note_on,11,0,8,,,,,,,,3,,,81,0
76200,note_on,14,0,9,,,,,,,,3,,,72,85
76200,note_on,1,0,8,,,,,,,,3,,,78,85
76210,note_on,10,0,9,,,,,,,,3,,,72,0
76212,note_on,12,0,8,,,,,,,,3,,,78,0
76212,note_on,0,0,8,,,,,,,,3,,,79,85
76221,note_on,45,0,11,,,,,,,,3,,,40,0
76221,note_on,45,0,10,,,,,,,,3,,,64,0
76224,note_on,12,0,8,,,,,,,,3,,,79,0
76224,note_on,0,0,8,,,,,,,,3,,,76,85
76224,note_on,3,0,11,,,,,,,,3,,,40,64
76224,note_on,3,0,10,,,,,,,,3,,,64,85
76224,note_on,14,0,9,,,,,,,,3,,,67,85
76244,note_on,20,0,8,,,,,,,,3,,,76,0
76247,note_on,23,0,9,,,,,,,,3,,,67,0
76248,note_on,1,0,9,,,,,,,,3,,,72,85
76269,note_on,45,0,10,,,,,,,,3,,,64,0
76269,note_on,45,0,11,,,,,,,,3,,,40,0
76269,note_on,237,0,3,,,,,,,,1,,,72,0
76269,note_on,237,0,4,,,,,,,,1,,,60,0
76271,note_on,23,0,9,,,,,,,,3,,,72,0
76272,note_on,3,0,10,,,,,,,,3,,,64,85
76272,note_on,3,0,4,,,,,,,,1,,,60,64
76272,note_on,3,0,3,,,,,,,,1,,,72,64
76272,note_on,3,0,11,,,,,,,,3,,,40,64
76272,note_on,1,0,9,,,,,,,,3,,,71,85
76272,note_on,28,0,8,,,,,,,,3,,,72,85
76282,note_on,10,0,9,,,,,,,,3,,,71,0
76292,note_on,20,0,8,,,,,,,,3,,,72,0
76296,note_on,14,0,9,,,,,,,,3,,,72,85
76297,note_on,265,0,1,,,,,,,,0,,,84,0
76297,note_on,265,0,2,,,,,,,,0,,,67,0
76306,note_on,10,0,9,,,,,,,,3,,,72,0
76317,note_on,45,0,4,,,,,,,,1,,,60,0
76317,note_on,45,0,3,,,,,,,,1,,,72,0
76317,note_on,45,0,11,,,,,,,,3,,,40,0
76317,note_on,45,0,10,,,,,,,,3,,,64,0
76320,note_on,3,0,10,,,,,,,,3,,,64,85
76320,note_on,3,0,3,,,,,,,,1,,,72,64
76320,note_on,23,0,1,,,,,,,,0,,,82,64
76320,note_on,23,0,2,,,,,,,,0,,,79,64
76320,note_on,3,0,4,,,,,,,,1,,,60,64
76320,note_on,28,0,8,,,,,,,,3,,,82,85
76320,note_on,3,0,11,,,,,,,,3,,,40,64
76320,note_on,14,0,9,,,,,,,,3,,,74,85
76340,note_on,20,0,8,,,,,,,,3,,,82,0
76343,note_on,23,0,9,,,,,,,,3,,,74,0
76344,note_on,1,0,9,,,,,,,,3,,,72,85
76365,note_on,45,0,4,,,,,,,,1,,,60,0
76365,note_on,45,0,3,,,,,,,,1,,,72,0
76365,note_on,45,0,10,,,,,,,,3,,,64,0
76365,note_on,45,0,11,,,,,,,,3,,,40,0
76367,note_on,23,0,9,,,,,,,,3,,,72,0
76368,note_on,3,0,4,,,,,,,,1,,,60,64
76368,note_on,28,0,8,,,,,,,,3,,,79,85
76368,note_on,3,0,11,,,,,,,,3,,,40,64
76368,note_on,1,0,9,,,,,,,,3,,,71,85
76368,note_on,3,0,10,,,,,,,,3,,,64,85
76368,note_on,3,0,3,,,,,,,,1,,,72,64
76378,note_on,10,0,9,,,,,,,,3,,,71,0
76388,note_on,20,0,8,,,,,,,,3,,,79,0
76392,note_on,14,0,9,,,,,,,,3,,,72,85
76402,note_on,10,0,9,,,,,,,,3,,,72,0
76409,note_on,89,0,2,,,,,,,,0,,,79,0
76409,note_on,89,0,1,,,,,,,,0,,,82,0
76413,note_on,45,0,11,,,,,,,,3,,,40,0
76413,note_on,45,0,4,,,,,,,,1,,,60,0
76413,note_on,45,0,3,,,,,,,,1,,,72,0
76413,note_on,45,0,10,,,,,,,,3,,,64,0
76416,note_on,3,0,4,,,,,,,,1,,,60,64
76416,note_on,14,0,9,,,,,,,,3,,,65,85
76416,note_on,3,0,10,,,,,,,,3,,,65,85
76416,note_on,28,0,8,,,,,,,,3,,,81,85
76416,note_on,3,0,3,,,,,,,,1,,,72,64
76416,note_on,3,0,11,,,,,,,,3,,,41,64
76416,note_on,7,0,2,,,,,,,,0,,,77,64
76416,note_on,7,0,1,,,,,,,,0,,,81,64
76439,note_on,23,0,9,,,,,,,,3,,,65,0
76440,note_on,1,0,9,,,,,,,,3,,,72,85
76461,note_on,45,0,11,,,,,,,,3,,,41,0
76461,note_on,45,0,10,,,,,,,,3,,,65,0
76463,note_on,23,0,9,,,,,,,,3,,,72,0
76464,note_on,3,0,10,,,,,,,,3,,,65,85
76464,note_on,3,0,11,,,,,,,,3,,,41,64
76464,note_on,1,0,9,,,,,,,,3,,,71,85
76474,note_on,10,0,9,,,,,,,,3,,,71,0
76488,note_on,14,0,9,,,,,,,,3,,,72,85
76498,note_on,10,0,9,,,,,,,,3,,,72,0
76509,note_on,45,0,10,,,,,,,,3,,,65,0
76509,note_on,45,0,11,,,,,,,,3,,,41,0
76512,note_on,14,0,9,,,,,,,,3,,,74,85
76512,note_on,3,0,10,,,,,,,,3,,,65,85
76512,note_on,3,0,11,,,,,,,,3,,,41,64
76535,note_on,23,0,9,,,,,,,,3,,,74,0
76536,note_on,1,0,9,,,,,,,,3,,,72,85
76549,note_on,133,0,8,,,,,,,,3,,,81,0
76557,note_on,45,0,10,,,,,,,,3,,,65,0
76557,note_on,45,0,11,,,,,,,,3,,,41,0
76559,note_on,23,0,9,,,,,,,,3,,,72,0
76560,note_on,3,0,11,,,,,,,,3,,,41,64
76560,note_on,3,0,10,,,,,,,,3,,,65,85
76560,note_on,11,0,8,,,,,,,,3,,,77,85
76560,note_on,1,0,9,,,,,,,,3,,,71,85
76570,note_on,10,0,9,,,,,,,,3,,,71,0
76572,note_on,12,0,8,,,,,,,,3,,,77,0
76572,note_on,0,0,8,,,,,,,,3,,,79,85
76583,note_on,11,0,8,,,,,,,,3,,,79,0
76584,note_on,14,0,9,,,,,,,,3,,,72,85
76584,note_on,1,0,8,,,,,,,,3,,,76,85
76594,note_on,10,0,9,,,,,,,,3,,,72,0
76596,note_on,0,0,8,,,,,,,,3,,,77,85
76596,note_on,12,0,8,,,,,,,,3,,,76,0
76605,note_on,45,0,11,,,,,,,,3,,,41,0
76605,note_on,45,0,10,,,,,,,,3,,,65,0
76608,note_on,14,0,9,,,,,,,,3,,,69,85
76608,note_on,3,0,10,,,,,,,,3,,,65,85
76608,note_on,12,0,8,,,,,,,,3,,,77,0
76608,note_on,0,0,8,,,,,,,,3,,,72,85
76608,note_on,3,0,11,,,,,,,,3,,,41,64
76628,note_on,20,0,8,,,,,,,,3,,,72,0
76631,note_on,23,0,9,,,,,,,,3,,,69,0
76632,note_on,1,0,9,,,,,,,,3,,,72,85
76653,note_on,45,0,10,,,,,,,,3,,,65,0
76653,note_on,237,0,3,,,,,,,,1,,,72,0
76653,note_on,45,0,11,,,,,,,,3,,,41,0
76653,note_on,237,0,4,,,,,,,,1,,,60,0
76655,note_on,23,0,9,,,,,,,,3,,,72,0
76656,note_on,3,0,3,,,,,,,,1,,,74,64
76656,note_on,1,0,9,,,,,,,,3,,,71,85
76656,note_on,28,0,8,,,,,,,,3,,,69,85
76656,note_on,3,0,10,,,,,,,,3,,,65,85
76656,note_on,3,0,4,,,,,,,,1,,,72,64
76656,note_on,3,0,11,,,,,,,,3,,,41,64
76666,note_on,10,0,9,,,,,,,,3,,,71,0
76676,note_on,20,0,8,,,,,,,,3,,,69,0
76680,note_on,14,0,9,,,,,,,,3,,,72,85
76681,note_on,265,0,2,,,,,,,,0,,,77,0
76681,note_on,265,0,1,,,,,,,,0,,,81,0
76690,note_on,10,0,9,,,,,,,,3,,,72,0
76701,note_on,45,0,4,,,,,,,,1,,,72,0
76701,note_on,45,0,10,,,,,,,,3,,,65,0
76701,note_on,45,0,11,,,,,,,,3,,,41,0
76701,note_on,45,0,3,,,,,,,,1,,,74,0
76704,note_on,3,0,3,,,,,,,,1,,,74,64
76704,note_on,14,0,9,,,,,,,,3,,,74,85
76704,note_on,23,0,1,,,,,,,,0,,,77,64
76704,note_on,28,0,8,,,,,,,,3,,,81,85
76704,note_on,3,0,11,,,,,,,,3,,,41,64
76704,note_on,23,0,2,,,,,,,,0,,,74,64
76704,note_on,3,0,4,,,,,,,,1,,,72,64
76704,note_on,3,0,10,,,,,,,,3,,,65,85
76724,note_on,20,0,8,,,,,,,,3,,,81,0
76727,note_on,23,0,9,,,,,,,,3,,,74,0
76728,note_on,1,0,9,,,,,,,,3,,,72,85
76749,note_on,45,0,3,,,,,,,,1,,,74,0
76749,note_on,45,0,11,,,,,,,,3,,,41,0
76749,note_on,45,0,4,,,,,,,,1,,,72,0
76749,note_on,45,0,10,,,,,,,,3,,,65,0
76751,note_on,23,0,9,,,,,,,,3,,,72,0
76752,note_on,3,0,10,,,,,,,,3,,,65,85
76752,note_on,28,0,8,,,,,,,,3,,,77,85
76752,note_on,1,0,9,,,,,,,,3,,,71,85
76752,note_on,3,0,3,,,,,,,,1,,,74,64
76752,note_on,3,0,11,,,,,,,,3,,,41,64
76752,note_on,3,0,4,,,,,,,,1,,,72,64
76762,note_on,10,0,9,,,,,,,,3,,,71,0
76772,note_on,20,0,8,,,,,,,,3,,,77,0
76776,note_on,14,0,9,,,,,,,,3,,,72,85
76786,note_on,10,0,9,,,,,,,,3,,,72,0
76793,note_on,89,0,2,,,,,,,,0,,,74,0
76793,note_on,89,0,1,,,,,,,,0,,,77,0
76797,note_on,45,0,11,,,,,,,,3,,,41,0
76797,note_on,45,0,10,,,,,,,,3,,,65,0
76797,note_on,45,0,4,,,,,,,,1,,,72,0
76797,note_on,45,0,3,,,,,,,,1,,,74,0
76800,note_on,28,0,8,,,,,,,,3,,,76,85
76800,note_on,7,0,2,,,,,,,,0,,,72,64
76800,note_on,3,0,11,,,,,,,,3,,,43,64
76800,note_on,3,0,4,,,,,,,,1,,,72,64
76800,note_on,3,0,3,,,,,,,,1,,,76,64
76800,note_on,14,0,9,,,,,,,,3,,,60,85
76800,note_on,7,0,1,,,,,,,,0,,,76,64
76800,note_on,3,0,10,,,,,,,,3,,,67,85
76823,note_on,23,0,9,,,,,,,,3,,,60,0
76823,note_on,23,0,8,,,,,,,,3,,,76,0
76823,note_on,23,0,2,,,,,,,,0,,,72,0
76823,note_on,23,0,1,,,,,,,,0,,,76,0
76824,note_on,1,0,8,,,,,,,,3,,,77,85
76824,note_on,1,0,1,,,,,,,,0,,,77,64
76824,note_on,1,0,9,,,,,,,,3,,,62,85
76824,note_on,1,0,2,,,,,,,,0,,,74,64
76845,note_on,45,0,11,,,,,,,,3,,,43,0
76845,note_on,45,0,10,,,,,,,,3,,,67,0
76847,note_on,23,0,2,,,,,,,,0,,,74,0
76847,note_on,23,0,9,,,,,,,,3,,,62,0
76847,note_on,23,0,8,,,,,,,,3,,,77,0
76847,note_on,23,0,1,,,,,,,,0,,,77,0
76848,note_on,1,0,1,,,,,,,,0,,,79,64
76848,note_on,3,0,11,,,,,,,,3,,,43,64
76848,note_on,1,0,9,,,,,,,,3,,,64,85
76848,note_on,3,0,10,,,,,,,,3,,,67,85
76848,note_on,1,0,8,,,,,,,,3,,,79,85
76848,note_on,1,0,2,,,,,,,,0,,,76,64
76858,note_on,10,0,9,,,,,,,,3,,,64,0
76858,note_on,10,0,8,,,,,,,,3,,,79,0
76858,note_on,10,0,2,,,,,,,,0,,,76,0
76858,note_on,10,0,1,,,,,,,,0,,,79,0
76872,note_on,14,0,8,,,,,,,,3,,,79,85
76872,note_on,14,0,1,,,,,,,,0,,,79,64
76872,note_on,14,0,9,,,,,,,,3,,,64,85
76872,note_on,14,0,2,,,,,,,,0,,,76,64
76882,note_on,10,0,8,,,,,,,,3,,,79,0
76882,note_on,10,0,1,,,,,,,,0,,,79,0
76882,note_on,10,0,9,,,,,,,,3,,,64,0
76882,note_on,10,0,2,,,,,,,,0,,,76,0
76889,note_on,89,0,3,,,,,,,,1,,,76,0
76889,note_on,89,0,4,,,,,,,,1,,,72,0
76893,note_on,45,0,11,,,,,,,,3,,,43,0
76893,note_on,45,0,10,,,,,,,,3,,,67,0
76896,note_on,3,0,11,,,,,,,,3,,,43,64
76896,note_on,3,0,10,,,,,,,,3,,,67,85
76896,note_on,14,0,2,,,,,,,,0,,,76,64
76896,note_on,14,0,9,,,,,,,,3,,,64,85
76896,note_on,7,0,4,,,,,,,,1,,,60,64
76896,note_on,14,0,8,,,,,,,,3,,,79,85
76896,note_on,7,0,3,,,,,,,,1,,,72,64
76896,note_on,14,0,1,,,,,,,,0,,,79,64
76906,note_on,10,0,8,,,,,,,,3,,,79,0
76906,note_on,10,0,9,,,,,,,,3,,,64,0
76920,note_on,14,0,8,,,,,,,,3,,,79,85
76920,note_on,14,0,9,,,,,,,,3,,,64,85
76930,note_on,10,0,8,,,,,,,,3,,,79,0
76930,note_on,10,0,9,,,,,,,,3,,,64,0
76941,note_on,45,0,11,,,,,,,,3,,,43,0
76941,note_on,45,0,10,,,,,,,,3,,,67,0
76941,note_on,45,0,3,,,,,,,,1,,,72,0
76941,note_on,45,0,4,,,,,,,,1,,,60,0
76944,note_on,14,0,9,,,,,,,,3,,,64,85
76944,note_on,14,0,8,,,,,,,,3,,,79,85
76944,note_on,3,0,11,,,,,,,,3,,,43,64
76944,note_on,3,0,3,,,,,,,,1,,,76,64
76944,note_on,3,0,10,,,,,,,,3,,,67,85
76944,note_on,3,0,4,,,,,,,,1,,,64,64
76954,note_on,10,0,8,,,,,,,,3,,,79,0
76954,note_on,10,0,9,,,,,,,,3,,,64,0
76968,note_on,14,0,8,,,,,,,,3,,,79,85
76968,note_on,14,0,9,,,,,,,,3,,,64,85
76978,note_on,10,0,9,,,,,,,,3,,,64,0
76978,note_on,10,0,8,,,,,,,,3,,,79,0
76989,note_on,45,0,4,,,,,,,,1,,,64,0
76989,note_on,45,0,11,,,,,,,,3,,,43,0
76989,note_on,45,0,3,,,,,,,,1,,,76,0
76989,note_on,45,0,10,,,,,,,,3,,,67,0
76992,note_on,3,0,4,,,,,,,,1,,,67,64
76992,note_on,3,0,10,,,,,,,,3,,,55,85
76992,note_on,14,0,8,,,,,,,,3,,,79,85
76992,note_on,3,0,3,,,,,,,,1,,,79,64
76992,note_on,14,0,9,,,,,,,,3,,,64,85
76992,note_on,3,0,11,,,,,,,,3,,,31,64
77029,note_on,133,0,1,,,,,,,,0,,,79,0
77029,note_on,133,0,2,,,,,,,,0,,,76,0
77037,note_on,45,0,8,,,,,,,,3,,,79,0
77037,note_on,45,0,10,,,,,,,,3,,,55,0
77037,note_on,45,0,11,,,,,,,,3,,,31,0
77037,note_on,45,0,9,,,,,,,,3,,,64,0
77040,note_on,3,0,8,,,,,,,,3,,,77,85
77040,note_on,3,0,11,,,,,,,,3,,,31,64
77040,note_on,11,0,1,,,,,,,,0,,,77,64
77040,note_on,3,0,10,,,,,,,,3,,,55,85
77040,note_on,3,0,9,,,,,,,,3,,,62,85
77040,note_on,11,0,2,,,,,,,,0,,,74,64
77060,note_on,20,0,1,,,,,,,,0,,,77,0
77060,note_on,20,0,2,,,,,,,,0,,,74,0
77081,note_on,89,0,3,,,,,,,,1,,,79,0
77081,note_on,89,0,4,,,,,,,,1,,,67,0
77085,note_on,45,0,9,,,,,,,,3,,,62,0
77085,note_on,45,0,10,,,,,,,,3,,,55,0
77085,note_on,45,0,11,,,,,,,,3,,,31,0
77085,note_on,45,0,8,,,,,,,,3,,,77,0
77088,note_on,3,0,11,,,,,,,,3,,,31,64
77088,note_on,7,0,3,,,,,,,,1,,,67,64
77088,note_on,28,0,1,,,,,,,,0,,,76,64
77088,note_on,28,0,2,,,,,,,,0,,,72,64
77088,note_on,3,0,10,,,,,,,,3,,,55,85
77088,note_on,3,0,8,,,,,,,,3,,,76,85
77088,note_on,3,0,9,,,,,,,,3,,,60,85
77088,note_on,7,0,4,,,,,,,,1,,,55,64
77108,note_on,20,0,1,,,,,,,,0,,,76,0
77108,note_on,20,0,2,,,,,,,,0,,,72,0
77108,note_on,20,0,8,,,,,,,,3,,,76,0
77108,note_on,20,0,9,,,,,,,,3,,,60,0
77133,note_on,45,0,11,,,,,,,,3,,,31,0
77133,note_on,45,0,10,,,,,,,,3,,,55,0
77136,note_on,28,0,2,,,,,,,,0,,,71,64
77136,note_on,28,0,9,,,,,,,,3,,,59,85
77136,note_on,28,0,1,,,,,,,,0,,,74,64
77136,note_on,28,0,8,,,,,,,,3,,,74,85
77136,note_on,3,0,11,,,,,,,,3,,,31,64
77136,note_on,3,0,10,,,,,,,,3,,,55,85
77156,note_on,20,0,2,,,,,,,,0,,,71,0
77156,note_on,20,0,8,,,,,,,,3,,,74,0
77156,note_on,20,0,1,,,,,,,,0,,,74,0
77156,note_on,20,0,9,,,,,,,,3,,,59,0
77177,note_on,89,0,4,,,,,,,,1,,,55,0
77177,note_on,89,0,3,,,,,,,,1,,,67,0
77181,note_on,45,0,10,,,,,,,,3,,,55,0
77181,note_on,45,0,11,,,,,,,,3,,,31,0
77184,note_on,28,0,9,,,,,,,,3,,,60,85
77184,note_on,28,0,8,,,,,,,,3,,,72,85
77184,note_on,7,0,3,,,,,,,,1,,,72,64
77184,note_on,7,0,4,,,,,,,,1,,,60,64
77184,note_on,28,0,2,,,,,,,,0,,,72,64
77184,note_on,3,0,11,,,,,,,,3,,,36,64
77184,note_on,3,0,10,,,,,,,,3,,,60,85
77184,note_on,28,0,1,,,,,,,,0,,,72,64
77273,note_on,89,0,11,,,,,,,,3,,,36,0
77273,note_on,89,0,2,,,,,,,,0,,,72,0
77273,note_on,89,0,1,,,,,,,,0,,,72,0
77273,note_on,89,0,8,,,,,,,,3,,,72,0
77273,note_on,89,0,3,,,,,,,,1,,,72,0
77273,note_on,89,0,9,,,,,,,,3,,,60,0
77273,note_on,89,0,4,,,,,,,,1,,,60,0
77273,note_on,89,0,10,,,,,,,,3,,,60,0
77280,note_on,7,0,1,,,,,,,,0,,,76,64
77280,note_on,7,0,9,,,,,,,,3,,,76,85
77280,note_on,7,0,10,,,,,,,,3,,,76,85
77280,note_on,7,0,8,,,,,,,,3,,,76,85
77280,note_on,7,0,11,,,,,,,,3,,,52,64
77280,note_on,7,0,3,,,,,,,,1,,,76,64
77303,note_on,23,0,1,,,,,,,,0,,,76,0
77303,note_on,23,0,11,,,,,,,,3,,,52,0
77303,note_on,23,0,9,,,,,,,,3,,,76,0
77303,note_on,23,0,10,,,,,,,,3,,,76,0
77303,note_on,23,0,8,,,,,,,,3,,,76,0
77304,note_on,1,0,8,,,,,,,,3,,,72,85
77304,note_on,1,0,11,,,,,,,,3,,,48,64
77304,note_on,1,0,10,,,,,,,,3,,,72,85
77304,note_on,1,0,1,,,,,,,,0,,,72,64
77304,note_on,1,0,9,,,,,,,,3,,,72,85
77325,note_on,45,0,3,,,,,,,,1,,,76,0
77327,note_on,23,0,10,,,,,,,,3,,,72,0
77327,note_on,23,0,9,,,,,,,,3,,,72,0
77327,note_on,23,0,1,,,,,,,,0,,,72,0
77327,note_on,23,0,11,,,,,,,,3,,,48,0
77327,note_on,23,0,8,,,,,,,,3,,,72,0
77328,note_on,3,0,3,,,,,,,,1,,,76,64
77328,note_on,1,0,11,,,,,,,,3,,,52,64
77328,note_on,1,0,1,,,,,,,,0,,,76,64
77328,note_on,1,0,9,,,,,,,,3,,,76,85
77328,note_on,1,0,10,,,,,,,,3,,,76,85
77328,note_on,1,0,8,,,,,,,,3,,,76,85
77338,note_on,10,0,9,,,,,,,,3,,,76,0
77338,note_on,10,0,10,,,,,,,,3,,,76,0
77338,note_on,10,0,8,,,,,,,,3,,,76,0
77338,note_on,10,0,11,,,,,,,,3,,,52,0
77338,note_on,10,0,1,,,,,,,,0,,,76,0
77351,note_on,23,0,3,,,,,,,,1,,,76,0
77352,note_on,14,0,9,,,,,,,,3,,,72,85
77352,note_on,14,0,11,,,,,,,,3,,,48,64
77352,note_on,14,0,10,,,,,,,,3,,,72,85
77352,note_on,1,0,3,,,,,,,,1,,,72,64
77352,note_on,14,0,1,,,,,,,,0,,,72,64
77352,note_on,14,0,8,,,,,,,,3,,,72,85
77362,note_on,10,0,10,,,,,,,,3,,,72,0
77362,note_on,10,0,9,,,,,,,,3,,,72,0
77362,note_on,10,0,11,,,,,,,,3,,,48,0
77362,note_on,10,0,1,,,,,,,,0,,,72,0
77362,note_on,10,0,8,,,,,,,,3,,,72,0
77375,note_on,23,0,3,,,,,,,,1,,,72,0
77376,note_on,14,0,9,,,,,,,,3,,,67,85
77376,note_on,1,0,3,,,,,,,,1,,,67,64
77376,note_on,14,0,1,,,,,,,,0,,,67,64
77376,note_on,14,0,10,,,,,,,,3,,,67,85
77376,note_on,14,0,11,,,,,,,,3,,,43,64
77376,note_on,14,0,8,,,,,,,,3,,,67,85
77421,note_on,45,0,9,,,,,,,,3,,,67,0
77421,note_on,45,0,11,,,,,,,,3,,,43,0
77421,note_on,45,0,8,,,,,,,,3,,,67,0
77421,note_on,45,0,3,,,,,,,,1,,,67,0
77421,note_on,45,0,1,,,,,,,,0,,,67,0
77421,note_on,45,0,10,,,,,,,,3,,,67,0
77424,note_on,3,0,1,,,,,,,,0,,,72,64
77424,note_on,3,0,10,,,,,,,,3,,,72,85
77424,note_on,3,0,9,,,,,,,,3,,,72,85
77424,note_on,3,0,8,,,,,,,,3,,,72,85
77424,note_on,3,0,11,,,,,,,,3,,,48,64
77424,note_on,3,0,3,,,,,,,,1,,,72,64
77469,note_on,45,0,3,,,,,,,,1,,,72,0
77469,note_on,45,0,10,,,,,,,,3,,,72,0
77469,note_on,45,0,9,,,,,,,,3,,,72,0
77469,note_on,45,0,8,,,,,,,,3,,,72,0
77469,note_on,45,0,11,,,,,,,,3,,,48,0
77469,note_on,45,0,1,,,,,,,,0,,,72,0
77472,note_on,3,0,8,,,,,,,,3,,,67,85
77472,note_on,3,0,3,,,,,,,,1,,,67,64
77472,note_on,3,0,9,,,,,,,,3,,,67,85
77472,note_on,3,0,1,,,,,,,,0,,,67,64
77472,note_on,3,0,10,,,,,,,,3,,,67,85
77472,note_on,3,0,11,,,,,,,,3,,,43,64
77495,note_on,23,0,8,,,,,,,,3,,,67,0
77495,note_on,23,0,9,,,,,,,,3,,,67,0
77495,note_on,23,0,10,,,,,,,,3,,,67,0
77495,note_on,23,0,11,,,,,,,,3,,,43,0
77495,note_on,23,0,1,,,,,,,,0,,,67,0
77496,note_on,1,0,9,,,,,,,,3,,,64,85
77496,note_on,1,0,10,,,,,,,,3,,,64,85
77496,note_on,1,0,8,,,,,,,,3,,,64,85
77496,note_on,1,0,1,,,,,,,,0,,,64,64
77496,note_on,1,0,11,,,,,,,,3,,,40,64
77517,note_on,45,0,3,,,,,,,,1,,,67,0
77519,note_on,23,0,9,,,,,,,,3,,,64,0
77519,note_on,23,0,11,,,,,,,,3,,,40,0
77519,note_on,23,0,1,,,,,,,,0,,,64,0
77519,note_on,23,0,10,,,,,,,,3,,,64,0
77519,note_on,23,0,8,,,,,,,,3,,,64,0
77520,note_on,1,0,9,,,,,,,,3,,,67,85
77520,note_on,3,0,3,,,,,,,,1,,,67,64
77520,note_on,1,0,11,,,,,,,,3,,,43,64
77520,note_on,1,0,1,,,,,,,,0,,,67,64
77520,note_on,1,0,10,,,,,,,,3,,,67,85
77520,note_on,1,0,8,,,,,,,,3,,,67,85
77530,note_on,10,0,9,,,,,,,,3,,,67,0
77530,note_on,10,0,1,,,,,,,,0,,,67,0
77530,note_on,10,0,8,,,,,,,,3,,,67,0
77530,note_on,10,0,10,,,,,,,,3,,,67,0
77530,note_on,10,0,11,,,,,,,,3,,,43,0
77543,note_on,23,0,3,,,,,,,,1,,,67,0
77544,note_on,14,0,8,,,,,,,,3,,,64,85
77544,note_on,14,0,10,,,,,,,,3,,,64,85
77544,note_on,14,0,1,,,,,,,,0,,,64,64
77544,note_on,14,0,11,,,,,,,,3,,,40,64
77544,note_on,1,0,3,,,,,,,,1,,,64,64
77544,note_on,14,0,9,,,,,,,,3,,,64,85
77554,note_on,10,0,11,,,,,,,,3,,,40,0
77554,note_on,10,0,8,,,,,,,,3,,,64,0
77554,note_on,10,0,10,,,,,,,,3,,,64,0
77554,note_on,10,0,1,,,,,,,,0,,,64,0
77554,note_on,10,0,9,,,,,,,,3,,,64,0
77567,note_on,23,0,3,,,,,,,,1,,,64,0
77568,note_on,14,0,11,,,,,,,,3,,,36,64
77568,note_on,14,0,9,,,,,,,,3,,,60,85
77568,note_on,14,0,1,,,,,,,,0,,,60,64
77568,note_on,295,0,4,,,,,,,,1,,,60,64
77568,note_on,1,0,3,,,,,,,,1,,,60,64
77568,note_on,14,0,8,,,,,,,,3,,,60,85
77568,note_on,295,0,2,,,,,,,,0,,,60,64
77568,note_on,14,0,10,,,,,,,,3,,,60,85
77657,note_on,89,0,3,,,,,,,,1,,,60,0
77657,note_on,89,0,2,,,,,,,,0,,,60,0
77657,note_on,89,0,8,,,,,,,,3,,,60,0
77657,note_on,89,0,10,,,,,,,,3,,,60,0
77657,note_on,89,0,11,,,,,,,,3,,,36,0
77657,note_on,89,0,9,,,,,,,,3,,,60,0
77657,note_on,89,0,1,,,,,,,,0,,,60,0
77657,note_on,89,0,4,,,,,,,,1,,,60,0
77657,end_of_track,0,1,2,,,,,,,,,,,,
77664,note_on,7,0,4,,,,,,,,1,,,64,64
77664,note_on,7,0,9,,,,,,,,3,,,72,85
77664,note_on,0,0,9,,,,,,,,3,,,64,85
77664,note_on,7,0,10,,,,,,,,3,,,72,85
77664,note_on,7,0,11,,,,,,,,3,,,48,64
77664,note_on,7,0,8,,,,,,,,3,,,72,85
77664,note_on,0,0,8,,,,,,,,3,,,64,85
77664,note_on,0,0,8,,,,,,,,3,,,55,85
77664,note_on,7,0,3,,,,,,,,1,,,72,64
77664,note_on,0,0,9,,,,,,,,3,,,55,85
77664,note_on,7,0,1,,,,,,,,0,,,72,64
77753,note_on,89,0,11,,,,,,,,3,,,48,0
77753,note_on,89,0,4,,,,,,,,1,,,64,0
77753,note_on,0,0,8,,,,,,,,3,,,64,0
77753,note_on,89,0,3,,,,,,,,1,,,72,0
77753,note_on,89,0,10,,,,,,,,3,,,72,0
77753,note_on,89,0,9,,,,,,,,3,,,55,0
77753,note_on,0,0,9,,,,,,,,3,,,64,0
77753,note_on,0,0,9,,,,,,,,3,,,72,0
77753,note_on,0,0,8,,,,,,,,3,,,72,0
77753,note_on,89,0,1,,,,,,,,0,,,72,0
77753,note_on,89,0,8,,,,,,,,3,,,55,0
77760,note_on,7,0,3,,,,,,,,1,,,72,64
77760,note_on,7,0,4,,,,,,,,1,,,64,64
77760,note_on,0,0,9,,,,,,,,3,,,55,85
77760,note_on,0,0,9,,,,,,,,3,,,64,85
77760,note_on,7,0,10,,,,,,,,3,,,60,85
77760,note_on,7,0,8,,,,,,,,3,,,72,85
77760,note_on,0,0,8,,,,,,,,3,,,64,85
77760,note_on,0,0,8,,,,,,,,3,,,55,85
77760,note_on,7,0,11,,,,,,,,3,,,36,64
77760,note_on,7,0,9,,,,,,,,3,,,72,85
77760,note_on,7,0,1,,,,,,,,0,,,72,64
77849,note_on,89,0,9,,,,,,,,3,,,55,0
77849,note_on,89,0,11,,,,,,,,3,,,36,0
77849,end_of_track,0,1,11,,,,,,,,,,,,
77849,note_on,0,0,9,,,,,,,,3,,,64,0
77849,note_on,89,0,3,,,,,,,,1,,,72,0
77849,end_of_track,0,1,1,,,,,,,,,,,,
77849,end_of_track,0,1,3,,,,,,,,,,,,
77849,note_on,89,0,4,,,,,,,,1,,,64,0
77849,end_of_track,0,1,4,,,,,,,,,,,,
77849,end_of_track,0,1,9,,,,,,,,,,,,
77849,note_on,89,0,8,,,,,,,,3,,,55,0
77849,note_on,0,0,8,,,,,,,,3,,,64,0
77849,note_on,0,0,8,,,,,,,,3,,,72,0
77849,end_of_track,0,1,8,,,,,,,,,,,,
77849,end_of_track,0,1,10,,,,,,,,,,,,
77849,note_on,89,0,10,,,,,,,,3,,,60,0
77849,note_on,89,0,1,,,,,,,,0,,,72,0
77849,note_on,0,0,9,,,,,,,,3,,,72,0
