tick,type,time,meta,track,numerator,denominator,clocks_per_click,notated_32nd_notes_per_beat,key,tempo,control,value,channel,program,pitch,note,velocity
0,track_name,0,1,0,,,,,,,,,,,,,
0,pitchwheel,0,0,4,,,,,,,,,4,,0,,
0,control_change,0,0,4,,,,,,,64,0,4,,,,
0,control_change,0,0,4,,,,,,,93,28,4,,,,
0,control_change,0,0,4,,,,,,,91,100,4,,,,
0,control_change,0,0,4,,,,,,,10,55,4,,,,
0,program_change,0,0,4,,,,,,,,,4,0,,,
0,control_change,0,0,4,,,,,,,32,0,4,,,,
0,control_change,0,0,4,,,,,,,0,0,4,,,,
0,track_name,0,1,4,,,,,,,,,,,,,
0,control_change,0,0,3,,,,,,,7,112,3,,,,
0,control_change,0,0,3,,,,,,,1,0,3,,,,
0,control_change,0,0,3,,,,,,,1,0,3,,,,
0,control_change,0,0,3,,,,,,,93,18,3,,,,
0,pitchwheel,0,0,3,,,,,,,,,3,,0,,
0,pitchwheel,0,0,3,,,,,,,,,3,,0,,
0,pitchwheel,0,0,4,,,,,,,,,4,,0,,
0,pitchwheel,0,0,3,,,,,,,,,3,,0,,
0,pitchwheel,0,0,4,,,,,,,,,4,,0,,
0,control_change,0,0,4,,,,,,,1,0,4,,,,
0,control_change,0,0,5,,,,,,,1,0,5,,,,
0,control_change,0,0,5,,,,,,,93,18,5,,,,
0,pitchwheel,0,0,5,,,,,,,,,5,,0,,
0,pitchwheel,0,0,5,,,,,,,,,5,,0,,
0,pitchwheel,0,0,5,,,,,,,,,5,,0,,
0,control_change,0,0,5,,,,,,,64,0,5,,,,
0,control_change,0,0,5,,,,,,,93,28,5,,,,
0,control_change,0,0,5,,,,,,,91,100,5,,,,
0,control_change,0,0,5,,,,,,,10,55,5,,,,
0,program_change,0,0,5,,,,,,,,,5,0,,,
0,control_change,0,0,5,,,,,,,32,0,5,,,,
0,control_change,0,0,5,,,,,,,0,0,5,,,,
0,track_name,0,1,5,,,,,,,,,,,,,
0,control_change,0,0,4,,,,,,,7,120,4,,,,
0,control_change,0,0,4,,,,,,,1,0,4,,,,
0,control_change,0,0,4,,,,,,,93,18,4,,,,
0,control_change,0,0,5,,,,,,,1,0,5,,,,
0,control_change,0,0,3,,,,,,,64,0,3,,,,
0,control_change,0,0,3,,,,,,,91,100,3,,,,
0,control_change,0,0,2,,,,,,,0,0,2,,,,
0,track_name,0,1,2,,,,,,,,,,,,,
0,pitchwheel,0,0,1,,,,,,,,,1,,0,,
0,pitchwheel,0,0,1,,,,,,,,,1,,0,,
0,pitchwheel,0,0,1,,,,,,,,,1,,0,,
0,program_change,0,0,1,,,,,,,,,1,0,,,
0,control_change,0,0,1,,,,,,,10,73,1,,,,
0,control_change,0,0,1,,,,,,,91,100,1,,,,
0,control_change,0,0,1,,,,,,,93,28,1,,,,
0,control_change,0,0,1,,,,,,,64,0,1,,,,
0,control_change,0,0,1,,,,,,,93,18,1,,,,
0,control_change,0,0,1,,,,,,,1,0,1,,,,
0,control_change,0,0,1,,,,,,,1,0,1,,,,
0,control_change,0,0,1,,,,,,,7,127,1,,,,
0,control_change,0,0,1,,,,,,,32,0,1,,,,
0,control_change,0,0,2,,,,,,,32,0,2,,,,
0,control_change,0,0,3,,,,,,,93,28,3,,,,
0,program_change,0,0,2,,,,,,,,,2,0,,,
0,control_change,0,0,2,,,,,,,91,100,2,,,,
0,control_change,0,0,3,,,,,,,10,64,3,,,,
0,program_change,0,0,3,,,,,,,,,3,0,,,
0,control_change,0,0,3,,,,,,,32,0,3,,,,
0,control_change,0,0,3,,,,,,,0,0,3,,,,
0,track_name,0,1,3,,,,,,,,,,,,,
0,control_change,0,0,1,,,,,,,0,0,1,,,,
0,control_change,0,0,2,,,,,,,7,122,2,,,,
0,control_change,0,0,2,,,,,,,1,0,2,,,,
0,control_change,0,0,2,,,,,,,1,0,2,,,,
0,control_change,0,0,2,,,,,,,93,18,2,,,,
0,pitchwheel,0,0,2,,,,,,,,,2,,0,,
0,pitchwheel,0,0,2,,,,,,,,,2,,0,,
0,pitchwheel,0,0,2,,,,,,,,,2,,0,,
0,control_change,0,0,2,,,,,,,64,0,2,,,,
0,control_change,0,0,2,,,,,,,93,28,2,,,,
0,control_change,0,0,2,,,,,,,10,73,2,,,,
0,control_change,0,0,5,,,,,,,7,125,5,,,,
0,track_name,0,1,1,,,,,,,,,,,,,
0,time_signature,0,1,0,4,4,24,8,,,,,,,,,
0,marker,0,1,0,,,,,,,,,,,,,
0,set_tempo,0,1,0,,,,,,500000,,,,,,,
0,key_signature,0,1,0,,,,,C,,,,,,,,
1920,set_tempo,1920,1,0,,,,,,400000,,,,,,,
1920,note_on,1920,0,5,,,,,,,,,5,,,50,79
1920,note_on,0,0,5,,,,,,,,,5,,,38,79
1920,marker,0,1,0,,,,,,,,,,,,,
1920,note_on,1920,0,2,,,,,,,,,2,,,62,79
1960,note_on,40,0,2,,,,,,,,,2,,,66,79
2000,note_on,40,0,2,,,,,,,,,2,,,69,79
2040,note_on,2040,0,1,,,,,,,,,1,,,74,79
2160,set_tempo,240,1,0,,,,,,402684,,,,,,,
2400,note_off,480,0,5,,,,,,,,,5,,,38,0
2400,note_off,360,0,1,,,,,,,,,1,,,74,0
2400,note_off,0,0,5,,,,,,,,,5,,,50,0
2400,note_off,400,0,2,,,,,,,,,2,,,69,0
2400,note_off,0,0,2,,,,,,,,,2,,,62,0
2405,note_off,5,0,2,,,,,,,,,2,,,66,0
2880,set_tempo,720,1,0,,,,,,400000,,,,,,,
2880,note_on,480,0,5,,,,,,,,,5,,,55,73
2880,note_on,480,0,1,,,,,,,,,1,,,67,73
3000,note_off,120,0,1,,,,,,,,,1,,,67,0
3000,note_off,120,0,5,,,,,,,,,5,,,55,0
3000,note_on,0,0,5,,,,,,,,,5,,,54,74
3000,note_on,0,0,1,,,,,,,,,1,,,66,74
3120,note_on,0,0,1,,,,,,,,,1,,,64,75
3120,note_off,120,0,5,,,,,,,,,5,,,54,0
3120,note_on,0,0,5,,,,,,,,,5,,,52,75
3120,note_off,120,0,1,,,,,,,,,1,,,66,0
3240,note_off,120,0,1,,,,,,,,,1,,,64,0
3240,note_on,0,0,1,,,,,,,,,1,,,62,75
3240,note_off,120,0,5,,,,,,,,,5,,,52,0
3240,note_on,0,0,5,,,,,,,,,5,,,50,75
3335,note_off,95,0,1,,,,,,,,,1,,,62,0
3340,note_off,100,0,5,,,,,,,,,5,,,50,0
3360,note_on,20,0,5,,,,,,,,,5,,,55,76
3360,note_on,25,0,1,,,,,,,,,1,,,67,76
3480,note_off,120,0,1,,,,,,,,,1,,,67,0
3480,note_on,0,0,1,,,,,,,,,1,,,66,77
3480,note_on,0,0,5,,,,,,,,,5,,,54,77
3480,note_off,120,0,5,,,,,,,,,5,,,55,0
3600,note_on,0,0,5,,,,,,,,,5,,,52,77
3600,note_off,120,0,1,,,,,,,,,1,,,66,0
3600,note_on,0,0,1,,,,,,,,,1,,,64,77
3600,note_off,120,0,5,,,,,,,,,5,,,54,0
3720,note_on,0,0,5,,,,,,,,,5,,,50,78
3720,note_off,120,0,5,,,,,,,,,5,,,52,0
3720,note_off,120,0,1,,,,,,,,,1,,,64,0
3720,note_on,0,0,1,,,,,,,,,1,,,62,78
3820,note_off,100,0,5,,,,,,,,,5,,,50,0
3820,note_off,100,0,1,,,,,,,,,1,,,62,0
3840,note_on,20,0,5,,,,,,,,,5,,,57,79
3840,set_tempo,960,1,0,,,,,,402684,,,,,,,
3840,note_on,20,0,1,,,,,,,,,1,,,69,79
3840,marker,0,1,0,,,,,,,,,,,,,
4128,note_off,288,0,1,,,,,,,,,1,,,69,0
4128,note_off,288,0,5,,,,,,,,,5,,,57,0
4320,note_on,192,0,1,,,,,,,,,1,,,66,81
4320,note_on,192,0,5,,,,,,,,,5,,,54,81
4608,note_off,288,0,1,,,,,,,,,1,,,66,0
4608,note_off,288,0,5,,,,,,,,,5,,,54,0
4620,set_tempo,780,1,0,,,,,,419580,,,,,,,
4800,note_on,192,0,5,,,,,,,,,5,,,59,84
4800,note_on,192,0,1,,,,,,,,,1,,,71,84
5185,note_off,385,0,5,,,,,,,,,5,,,59,0
5280,note_off,480,0,1,,,,,,,,,1,,,71,0
5520,note_on,335,0,5,,,,,,,,,5,,,54,83
5520,note_on,240,0,1,,,,,,,,,1,,,66,83
5520,set_tempo,900,1,0,,,,,,402684,,,,,,,
5640,note_off,120,0,5,,,,,,,,,5,,,54,0
5640,note_off,120,0,1,,,,,,,,,1,,,66,0
5760,marker,240,1,0,,,,,,,,,,,,,
5760,note_on,120,0,5,,,,,,,,,5,,,55,81
5760,note_on,120,0,1,,,,,,,,,1,,,67,81
5880,note_off,120,0,5,,,,,,,,,5,,,55,0
5880,note_off,120,0,1,,,,,,,,,1,,,67,0
6000,note_on,120,0,5,,,,,,,,,5,,,52,79
6000,note_on,120,0,1,,,,,,,,,1,,,64,79
6120,note_off,120,0,1,,,,,,,,,1,,,64,0
6120,note_off,120,0,5,,,,,,,,,5,,,52,0
6240,note_on,120,0,5,,,,,,,,,5,,,57,78
6240,note_on,120,0,1,,,,,,,,,1,,,69,77
6360,note_off,120,0,5,,,,,,,,,5,,,57,0
6360,note_off,120,0,1,,,,,,,,,1,,,69,0
6480,note_on,120,0,5,,,,,,,,,5,,,54,76
6480,note_on,120,0,1,,,,,,,,,1,,,66,75
6600,note_off,120,0,5,,,,,,,,,5,,,54,0
6600,note_off,120,0,1,,,,,,,,,1,,,66,0
6720,note_on,120,0,5,,,,,,,,,5,,,50,74
6720,note_on,120,0,1,,,,,,,,,1,,,62,74
6840,note_off,120,0,5,,,,,,,,,5,,,50,0
6840,note_off,120,0,1,,,,,,,,,1,,,62,0
6960,note_on,120,0,5,,,,,,,,,5,,,47,72
6960,note_on,120,0,1,,,,,,,,,1,,,59,72
7080,note_off,120,0,1,,,,,,,,,1,,,59,0
7080,note_off,120,0,5,,,,,,,,,5,,,47,0
7200,note_on,120,0,5,,,,,,,,,5,,,52,70
7200,note_on,120,0,1,,,,,,,,,1,,,64,70
7320,note_off,120,0,5,,,,,,,,,5,,,52,0
7320,note_off,120,0,1,,,,,,,,,1,,,64,0
7440,note_on,120,0,5,,,,,,,,,5,,,49,68
7440,note_on,120,0,1,,,,,,,,,1,,,61,68
7560,note_off,120,0,5,,,,,,,,,5,,,49,0
7560,set_tempo,1800,1,0,,,,,,413793,,,,,,,
7560,note_off,120,0,1,,,,,,,,,1,,,61,0
7680,note_on,120,0,5,,,,,,,,,5,,,45,70
7680,set_tempo,120,1,0,,,,,,400000,,,,,,,
7680,note_on,120,0,1,,,,,,,,,1,,,57,70
7920,note_on,7920,0,4,,,,,,,,,4,,,57,40
8124,note_off,444,0,5,,,,,,,,,5,,,45,0
8160,note_off,240,0,4,,,,,,,,,4,,,57,0
8160,note_on,36,0,5,,,,,,,,,5,,,45,41
8160,note_off,480,0,1,,,,,,,,,1,,,57,0
8400,note_on,240,0,4,,,,,,,,,4,,,57,42
8604,note_off,444,0,5,,,,,,,,,5,,,45,0
8640,note_off,240,0,4,,,,,,,,,4,,,57,0
8640,note_on,36,0,5,,,,,,,,,5,,,45,43
8880,note_on,6475,0,2,,,,,,,,,2,,,66,46
8880,note_on,720,0,1,,,,,,,,,1,,,74,46
8880,note_on,240,0,4,,,,,,,,,4,,,57,46
9035,note_off,155,0,2,,,,,,,,,2,,,66,0
9035,note_off,155,0,1,,,,,,,,,1,,,74,0
9084,note_off,444,0,5,,,,,,,,,5,,,45,0
9120,note_on,36,0,5,,,,,,,,,5,,,45,50
9120,note_on,85,0,2,,,,,,,,,2,,,66,50
9120,note_on,85,0,1,,,,,,,,,1,,,74,50
9120,note_off,240,0,4,,,,,,,,,4,,,57,0
9275,note_off,155,0,2,,,,,,,,,2,,,66,0
9275,note_off,155,0,1,,,,,,,,,1,,,74,0
9360,note_on,85,0,1,,,,,,,,,1,,,74,54
9360,note_on,240,0,4,,,,,,,,,4,,,57,55
9360,note_on,85,0,2,,,,,,,,,2,,,66,54
9515,note_off,155,0,1,,,,,,,,,1,,,74,0
9515,note_off,155,0,2,,,,,,,,,2,,,66,0
9564,note_off,444,0,5,,,,,,,,,5,,,45,0
9600,note_on,85,0,1,,,,,,,,,1,,,74,60
9600,note_off,240,0,4,,,,,,,,,4,,,57,0
9600,note_on,36,0,5,,,,,,,,,5,,,45,60
9600,note_on,85,0,2,,,,,,,,,2,,,66,60
9840,note_on,0,0,1,,,,,,,,,1,,,73,56
9840,note_on,240,0,4,,,,,,,,,4,,,57,56
9840,note_on,0,0,2,,,,,,,,,2,,,64,56
9840,note_off,240,0,1,,,,,,,,,1,,,74,0
9840,note_off,240,0,2,,,,,,,,,2,,,66,0
9995,note_off,155,0,1,,,,,,,,,1,,,73,0
9995,note_off,155,0,2,,,,,,,,,2,,,64,0
10044,note_off,444,0,5,,,,,,,,,5,,,45,0
10080,note_on,36,0,5,,,,,,,,,5,,,45,54
10080,note_off,240,0,4,,,,,,,,,4,,,57,0
10080,note_on,85,0,1,,,,,,,,,1,,,73,54
10080,note_on,85,0,2,,,,,,,,,2,,,64,54
10320,note_on,240,0,4,,,,,,,,,4,,,57,51
10524,note_off,444,0,5,,,,,,,,,5,,,45,0
10560,note_off,480,0,2,,,,,,,,,2,,,64,0
10560,note_on,36,0,5,,,,,,,,,5,,,45,50
10560,note_off,480,0,1,,,,,,,,,1,,,73,0
10560,note_off,240,0,4,,,,,,,,,4,,,57,0
10800,note_on,240,0,2,,,,,,,,,2,,,74,52
10800,note_on,240,0,4,,,,,,,,,4,,,57,52
10800,note_on,240,0,1,,,,,,,,,1,,,78,52
10955,note_off,155,0,2,,,,,,,,,2,,,74,0
10955,note_off,155,0,1,,,,,,,,,1,,,78,0
11004,note_off,444,0,5,,,,,,,,,5,,,45,0
11040,note_off,240,0,4,,,,,,,,,4,,,57,0
11040,note_on,36,0,5,,,,,,,,,5,,,45,55
11040,note_on,85,0,2,,,,,,,,,2,,,74,55
11040,note_on,85,0,1,,,,,,,,,1,,,78,55
11195,note_off,155,0,2,,,,,,,,,2,,,74,0
11195,note_off,155,0,1,,,,,,,,,1,,,78,0
11280,note_on,85,0,2,,,,,,,,,2,,,74,59
11280,note_on,85,0,1,,,,,,,,,1,,,78,59
11280,note_on,240,0,4,,,,,,,,,4,,,57,59
11435,note_off,155,0,2,,,,,,,,,2,,,74,0
11435,note_off,155,0,1,,,,,,,,,1,,,78,0
11484,note_off,444,0,5,,,,,,,,,5,,,45,0
11520,note_on,36,0,5,,,,,,,,,5,,,45,69
11520,note_off,240,0,4,,,,,,,,,4,,,57,0
11520,note_on,85,0,2,,,,,,,,,2,,,74,69
11520,note_on,85,0,1,,,,,,,,,1,,,78,69
11760,note_off,240,0,2,,,,,,,,,2,,,74,0
11760,note_on,0,0,2,,,,,,,,,2,,,73,65
11760,note_on,0,0,1,,,,,,,,,1,,,76,65
11760,note_on,240,0,4,,,,,,,,,4,,,57,65
11760,note_off,240,0,1,,,,,,,,,1,,,78,0
11915,note_off,155,0,1,,,,,,,,,1,,,76,0
11915,note_off,155,0,2,,,,,,,,,2,,,73,0
11964,note_off,444,0,5,,,,,,,,,5,,,45,0
12000,note_on,85,0,1,,,,,,,,,1,,,76,62
12000,note_off,240,0,4,,,,,,,,,4,,,57,0
12000,note_on,36,0,5,,,,,,,,,5,,,45,62
12000,note_on,85,0,2,,,,,,,,,2,,,73,62
12240,note_on,240,0,4,,,,,,,,,4,,,57,59
12444,note_off,444,0,5,,,,,,,,,5,,,45,0
12480,note_off,240,0,4,,,,,,,,,4,,,57,0
12480,note_off,480,0,1,,,,,,,,,1,,,76,0
12480,note_on,36,0,5,,,,,,,,,5,,,45,57
12480,note_off,480,0,2,,,,,,,,,2,,,73,0
12720,note_on,240,0,1,,,,,,,,,1,,,81,60
12720,note_on,240,0,2,,,,,,,,,2,,,78,60
12720,note_on,240,0,4,,,,,,,,,4,,,57,60
12875,note_off,155,0,2,,,,,,,,,2,,,78,0
12875,note_off,155,0,1,,,,,,,,,1,,,81,0
12924,note_off,444,0,5,,,,,,,,,5,,,45,0
12960,note_off,240,0,4,,,,,,,,,4,,,57,0
12960,note_on,36,0,5,,,,,,,,,5,,,45,64
12960,note_on,85,0,2,,,,,,,,,2,,,78,64
12960,note_on,85,0,1,,,,,,,,,1,,,81,64
13115,note_off,155,0,2,,,,,,,,,2,,,78,0
13115,note_off,155,0,1,,,,,,,,,1,,,81,0
13200,note_on,240,0,4,,,,,,,,,4,,,57,68
13200,note_on,85,0,1,,,,,,,,,1,,,81,68
13200,note_on,85,0,2,,,,,,,,,2,,,78,68
13320,set_tempo,5640,1,0,,,,,,408163,,,,,,,
13355,note_off,155,0,1,,,,,,,,,1,,,81,0
13355,note_off,155,0,2,,,,,,,,,2,,,78,0
13404,note_off,444,0,5,,,,,,,,,5,,,45,0
13440,note_off,240,0,4,,,,,,,,,4,,,57,0
13440,set_tempo,120,1,0,,,,,,400000,,,,,,,
13440,note_on,36,0,5,,,,,,,,,5,,,45,70
13440,note_on,85,0,1,,,,,,,,,1,,,79,70
13560,note_off,120,0,1,,,,,,,,,1,,,79,0
13560,note_on,0,0,1,,,,,,,,,1,,,78,71
13680,note_off,120,0,1,,,,,,,,,1,,,78,0
13680,note_on,0,0,1,,,,,,,,,1,,,79,71
13800,note_on,0,0,1,,,,,,,,,1,,,81,71
13800,note_off,120,0,1,,,,,,,,,1,,,79,0
13920,note_on,0,0,1,,,,,,,,,1,,,83,72
13920,note_off,120,0,1,,,,,,,,,1,,,81,0
13920,note_off,480,0,5,,,,,,,,,5,,,45,0
14040,note_on,0,0,1,,,,,,,,,1,,,81,72
14040,note_off,120,0,1,,,,,,,,,1,,,83,0
14160,note_on,0,0,1,,,,,,,,,1,,,79,73
14160,note_off,120,0,1,,,,,,,,,1,,,81,0
14280,note_on,0,0,1,,,,,,,,,1,,,78,73
14280,note_off,120,0,1,,,,,,,,,1,,,79,0
14400,note_off,120,0,1,,,,,,,,,1,,,78,0
14400,note_on,0,0,1,,,,,,,,,1,,,76,73
14520,note_off,120,0,1,,,,,,,,,1,,,76,0
14520,note_on,0,0,1,,,,,,,,,1,,,75,74
14640,note_on,0,0,1,,,,,,,,,1,,,76,74
14640,note_off,120,0,1,,,,,,,,,1,,,75,0
14760,note_off,120,0,1,,,,,,,,,1,,,76,0
14760,note_on,0,0,1,,,,,,,,,1,,,78,74
14880,note_off,120,0,1,,,,,,,,,1,,,78,0
14880,note_on,0,0,1,,,,,,,,,1,,,79,75
15000,note_on,0,0,1,,,,,,,,,1,,,78,75
15000,note_off,120,0,1,,,,,,,,,1,,,79,0
15120,note_off,120,0,1,,,,,,,,,1,,,78,0
15120,note_on,0,0,1,,,,,,,,,1,,,76,76
15240,note_on,0,0,1,,,,,,,,,1,,,74,76
15240,note_off,120,0,1,,,,,,,,,1,,,76,0
15300,set_tempo,1860,1,0,,,,,,402684,,,,,,,
15360,note_off,120,0,1,,,,,,,,,1,,,74,0
15360,note_on,0,0,1,,,,,,,,,1,,,73,76
15360,set_tempo,60,1,0,,,,,,400000,,,,,,,
15360,note_on,1440,0,5,,,,,,,,,5,,,61,77
15480,note_off,120,0,5,,,,,,,,,5,,,61,0
15480,note_on,0,0,5,,,,,,,,,5,,,59,77
15480,note_on,0,0,1,,,,,,,,,1,,,71,77
15480,note_off,120,0,1,,,,,,,,,1,,,73,0
15600,note_on,0,0,1,,,,,,,,,1,,,73,77
15600,note_off,120,0,1,,,,,,,,,1,,,71,0
15600,note_off,120,0,5,,,,,,,,,5,,,59,0
15600,note_on,0,0,5,,,,,,,,,5,,,61,77
15720,note_on,0,0,5,,,,,,,,,5,,,62,78
15720,note_off,120,0,5,,,,,,,,,5,,,61,0
15720,note_off,120,0,1,,,,,,,,,1,,,73,0
15720,note_on,0,0,1,,,,,,,,,1,,,74,78
15840,note_off,120,0,5,,,,,,,,,5,,,62,0
15840,note_off,120,0,1,,,,,,,,,1,,,74,0
15840,note_on,0,0,5,,,,,,,,,5,,,64,78
15840,note_on,0,0,1,,,,,,,,,1,,,76,78
15960,note_off,120,0,5,,,,,,,,,5,,,64,0
15960,note_on,0,0,5,,,,,,,,,5,,,62,79
15960,note_on,0,0,1,,,,,,,,,1,,,74,78
15960,note_off,120,0,1,,,,,,,,,1,,,76,0
16080,note_on,0,0,5,,,,,,,,,5,,,61,79
16080,note_off,120,0,1,,,,,,,,,1,,,74,0
16080,note_on,0,0,1,,,,,,,,,1,,,73,79
16080,note_off,120,0,5,,,,,,,,,5,,,62,0
16200,note_off,120,0,1,,,,,,,,,1,,,73,0
16200,note_on,0,0,5,,,,,,,,,5,,,59,80
16200,note_off,120,0,5,,,,,,,,,5,,,61,0
16200,note_on,0,0,1,,,,,,,,,1,,,71,79
16320,note_off,120,0,1,,,,,,,,,1,,,71,0
16320,note_on,0,0,1,,,,,,,,,1,,,69,80
16320,note_off,120,0,5,,,,,,,,,5,,,59,0
16320,note_on,0,0,5,,,,,,,,,5,,,57,80
16440,note_off,120,0,1,,,,,,,,,1,,,69,0
16440,note_on,0,0,1,,,,,,,,,1,,,68,80
16440,note_on,0,0,5,,,,,,,,,5,,,56,80
16440,note_off,120,0,5,,,,,,,,,5,,,57,0
16560,note_on,0,0,1,,,,,,,,,1,,,69,80
16560,note_off,120,0,1,,,,,,,,,1,,,68,0
16560,note_on,0,0,5,,,,,,,,,5,,,57,81
16560,note_off,120,0,5,,,,,,,,,5,,,56,0
16680,note_off,120,0,1,,,,,,,,,1,,,69,0
16680,note_on,0,0,5,,,,,,,,,5,,,59,81
16680,note_on,0,0,1,,,,,,,,,1,,,71,81
16680,note_off,120,0,5,,,,,,,,,5,,,57,0
16800,note_off,120,0,5,,,,,,,,,5,,,59,0
16800,note_on,0,0,5,,,,,,,,,5,,,57,82
16800,note_off,120,0,1,,,,,,,,,1,,,71,0
16800,note_on,0,0,1,,,,,,,,,1,,,69,81
16920,note_on,0,0,5,,,,,,,,,5,,,55,82
16920,note_off,120,0,5,,,,,,,,,5,,,57,0
16920,note_off,120,0,1,,,,,,,,,1,,,69,0
16920,note_on,0,0,1,,,,,,,,,1,,,67,82
17040,note_on,0,0,5,,,,,,,,,5,,,54,82
17040,note_off,120,0,5,,,,,,,,,5,,,55,0
17040,note_on,0,0,1,,,,,,,,,1,,,66,82
17040,note_off,120,0,1,,,,,,,,,1,,,67,0
17160,note_off,120,0,5,,,,,,,,,5,,,54,0
17160,note_on,0,0,1,,,,,,,,,1,,,64,82
17160,note_on,0,0,5,,,,,,,,,5,,,52,83
17160,set_tempo,1800,1,0,,,,,,402684,,,,,,,
17160,note_off,120,0,1,,,,,,,,,1,,,66,0
17265,note_off,105,0,1,,,,,,,,,1,,,64,0
17265,note_off,105,0,5,,,,,,,,,5,,,52,0
17280,note_on,15,0,5,,,,,,,,,5,,,50,83
17280,set_tempo,120,1,0,,,,,,400000,,,,,,,
17280,note_on,15,0,1,,,,,,,,,1,,,62,83
17760,note_on,0,0,5,,,,,,,,,5,,,50,45
17760,note_off,480,0,5,,,,,,,,,5,,,50,0
17950,note_off,190,0,5,,,,,,,,,5,,,50,0
18000,note_on,50,0,5,,,,,,,,,5,,,50,48
18190,note_off,190,0,5,,,,,,,,,5,,,50,0
18240,note_off,960,0,1,,,,,,,,,1,,,62,0
18240,note_on,0,0,1,,,,,,,,,1,,,64,50
18240,note_on,50,0,5,,,,,,,,,5,,,50,50
18430,note_off,190,0,5,,,,,,,,,5,,,50,0
18480,note_on,50,0,5,,,,,,,,,5,,,50,53
18670,note_off,190,0,5,,,,,,,,,5,,,50,0
18720,note_off,480,0,1,,,,,,,,,1,,,64,0
18720,note_on,0,0,1,,,,,,,,,1,,,66,55
18720,note_on,50,0,5,,,,,,,,,5,,,50,55
18910,note_off,190,0,5,,,,,,,,,5,,,50,0
18960,note_on,50,0,5,,,,,,,,,5,,,50,58
19150,note_off,190,0,5,,,,,,,,,5,,,50,0
19200,note_on,50,0,5,,,,,,,,,5,,,50,62
19200,note_on,0,0,1,,,,,,,,,1,,,67,62
19200,note_off,480,0,1,,,,,,,,,1,,,66,0
19390,note_off,190,0,5,,,,,,,,,5,,,50,0
19440,note_on,50,0,5,,,,,,,,,5,,,50,61
19560,note_on,0,0,1,,,,,,,,,1,,,69,60
19560,note_off,360,0,1,,,,,,,,,1,,,67,0
19620,note_on,0,0,1,,,,,,,,,1,,,71,59
19620,note_off,60,0,1,,,,,,,,,1,,,69,0
19630,note_off,190,0,5,,,,,,,,,5,,,50,0
19680,note_on,50,0,5,,,,,,,,,5,,,50,59
19680,note_on,0,0,1,,,,,,,,,1,,,69,59
19680,note_off,60,0,1,,,,,,,,,1,,,71,0
19870,note_off,190,0,5,,,,,,,,,5,,,50,0
19920,note_off,240,0,1,,,,,,,,,1,,,69,0
19920,note_on,0,0,1,,,,,,,,,1,,,67,57
19920,note_on,50,0,5,,,,,,,,,5,,,50,57
20110,note_off,190,0,5,,,,,,,,,5,,,50,0
20160,note_on,50,0,5,,,,,,,,,5,,,50,56
20160,note_off,240,0,1,,,,,,,,,1,,,67,0
20160,note_on,0,0,1,,,,,,,,,1,,,66,56
20350,note_off,190,0,5,,,,,,,,,5,,,50,0
20400,note_on,50,0,5,,,,,,,,,5,,,50,54
20590,note_off,190,0,5,,,,,,,,,5,,,50,0
20640,note_off,480,0,1,,,,,,,,,1,,,66,0
20640,note_on,50,0,5,,,,,,,,,5,,,50,52
20830,note_off,190,0,5,,,,,,,,,5,,,50,0
20880,note_on,50,0,5,,,,,,,,,5,,,50,50
21000,set_tempo,3720,1,0,,,,,,402684,,,,,,,
21070,note_off,190,0,5,,,,,,,,,5,,,50,0
21120,note_on,7765,0,2,,,,,,,,,2,,,62,51
21120,note_on,480,0,1,,,,,,,,,1,,,66,51
21120,note_on,50,0,5,,,,,,,,,5,,,38,51
21120,set_tempo,120,1,0,,,,,,400000,,,,,,,
21360,note_on,240,0,5,,,,,,,,,5,,,50,50
21550,note_off,190,0,5,,,,,,,,,5,,,50,0
21600,note_on,50,0,5,,,,,,,,,5,,,50,52
21790,note_off,190,0,5,,,,,,,,,5,,,50,0
21840,note_on,50,0,5,,,,,,,,,5,,,50,55
22030,note_off,190,0,5,,,,,,,,,5,,,50,0
22080,note_off,960,0,2,,,,,,,,,2,,,62,0
22080,note_on,0,0,1,,,,,,,,,1,,,67,58
22080,note_off,960,0,1,,,,,,,,,1,,,66,0
22080,note_on,50,0,5,,,,,,,,,5,,,50,58
22080,note_on,0,0,2,,,,,,,,,2,,,64,58
22270,note_off,190,0,5,,,,,,,,,5,,,50,0
22320,note_on,50,0,5,,,,,,,,,5,,,50,60
22510,note_off,190,0,5,,,,,,,,,5,,,50,0
22560,note_on,50,0,5,,,,,,,,,5,,,50,63
22560,note_on,0,0,2,,,,,,,,,2,,,66,63
22560,note_off,480,0,1,,,,,,,,,1,,,67,0
22560,note_off,480,0,2,,,,,,,,,2,,,64,0
22560,note_on,0,0,1,,,,,,,,,1,,,69,63
22750,note_off,190,0,5,,,,,,,,,5,,,50,0
22800,note_on,50,0,5,,,,,,,,,5,,,50,66
22990,note_off,190,0,5,,,,,,,,,5,,,50,0
23040,note_on,50,0,5,,,,,,,,,5,,,50,71
23040,note_on,0,0,2,,,,,,,,,2,,,67,71
23040,note_off,480,0,1,,,,,,,,,1,,,69,0
23040,note_on,0,0,1,,,,,,,,,1,,,71,71
23040,note_off,480,0,2,,,,,,,,,2,,,66,0
23230,note_off,190,0,5,,,,,,,,,5,,,50,0
23280,note_on,50,0,5,,,,,,,,,5,,,50,69
23400,note_on,0,0,1,,,,,,,,,1,,,73,68
23400,note_off,360,0,1,,,,,,,,,1,,,71,0
23460,note_off,60,0,1,,,,,,,,,1,,,73,0
23460,note_on,0,0,1,,,,,,,,,1,,,74,67
23470,note_off,190,0,5,,,,,,,,,5,,,50,0
23520,note_off,60,0,1,,,,,,,,,1,,,74,0
23520,note_on,0,0,1,,,,,,,,,1,,,73,67
23520,note_on,50,0,5,,,,,,,,,5,,,50,67
23710,note_off,190,0,5,,,,,,,,,5,,,50,0
23760,note_on,0,0,1,,,,,,,,,1,,,71,65
23760,note_on,50,0,5,,,,,,,,,5,,,50,65
23760,note_off,240,0,1,,,,,,,,,1,,,73,0
23950,note_off,190,0,5,,,,,,,,,5,,,50,0
24000,note_off,960,0,2,,,,,,,,,2,,,67,0
24000,note_off,240,0,1,,,,,,,,,1,,,71,0
24000,note_on,0,0,1,,,,,,,,,1,,,69,63
24000,note_on,50,0,5,,,,,,,,,5,,,50,63
24000,note_on,0,0,2,,,,,,,,,2,,,66,63
24190,note_off,190,0,5,,,,,,,,,5,,,50,0
24240,note_on,50,0,5,,,,,,,,,5,,,50,61
24430,note_off,190,0,5,,,,,,,,,5,,,50,0
24480,note_off,480,0,2,,,,,,,,,2,,,66,0
24480,note_on,50,0,5,,,,,,,,,5,,,50,59
24480,note_off,480,0,1,,,,,,,,,1,,,69,0
24670,note_off,190,0,5,,,,,,,,,5,,,50,0
24720,note_on,50,0,5,,,,,,,,,5,,,50,57
24720,note_on,240,0,1,,,,,,,,,1,,,78,57
24840,set_tempo,3720,1,0,,,,,,402684,,,,,,,
24910,note_off,190,0,5,,,,,,,,,5,,,50,0
24912,note_off,2,0,5,,,,,,,,,5,,,38,0
24960,set_tempo,120,1,0,,,,,,400000,,,,,,,
24960,note_on,48,0,5,,,,,,,,,5,,,43,66
24960,note_on,0,0,5,,,,,,,,,5,,,55,66
24960,note_off,240,0,1,,,,,,,,,1,,,78,0
24960,note_on,0,0,1,,,,,,,,,1,,,76,66
25080,note_on,600,0,2,,,,,,,,,2,,,86,66
25164,note_off,204,0,1,,,,,,,,,1,,,76,0
25200,note_off,120,0,2,,,,,,,,,2,,,86,0
25200,note_on,36,0,1,,,,,,,,,1,,,76,67
25320,note_on,120,0,2,,,,,,,,,2,,,86,67
25345,note_off,385,0,5,,,,,,,,,5,,,55,0
25345,note_off,0,0,5,,,,,,,,,5,,,43,0
25404,note_off,204,0,1,,,,,,,,,1,,,76,0
25440,note_off,120,0,2,,,,,,,,,2,,,86,0
25440,note_on,36,0,1,,,,,,,,,1,,,76,68
25440,note_on,95,0,5,,,,,,,,,5,,,62,68
25440,note_on,0,0,5,,,,,,,,,5,,,50,68
25560,note_on,120,0,2,,,,,,,,,2,,,86,68
25644,note_off,204,0,1,,,,,,,,,1,,,76,0
25680,note_on,36,0,1,,,,,,,,,1,,,76,68
25680,note_off,120,0,2,,,,,,,,,2,,,86,0
25800,note_on,120,0,2,,,,,,,,,2,,,86,69
25825,note_off,385,0,5,,,,,,,,,5,,,50,0
25825,note_off,0,0,5,,,,,,,,,5,,,62,0
25884,note_off,204,0,1,,,,,,,,,1,,,76,0
25920,note_on,36,0,1,,,,,,,,,1,,,76,69
25920,note_on,0,0,5,,,,,,,,,5,,,59,69
25920,note_on,95,0,5,,,,,,,,,5,,,47,69
25920,note_off,120,0,2,,,,,,,,,2,,,86,0
26040,note_on,120,0,2,,,,,,,,,2,,,86,70
26124,note_off,204,0,1,,,,,,,,,1,,,76,0
26160,note_off,120,0,2,,,,,,,,,2,,,86,0
26160,note_on,36,0,1,,,,,,,,,1,,,76,70
26280,note_on,120,0,2,,,,,,,,,2,,,86,70
26305,note_off,0,0,5,,,,,,,,,5,,,47,0
26305,note_off,385,0,5,,,,,,,,,5,,,59,0
26364,note_off,204,0,1,,,,,,,,,1,,,76,0
26400,note_on,36,0,1,,,,,,,,,1,,,76,71
26400,note_on,95,0,5,,,,,,,,,5,,,43,71
26400,note_off,120,0,2,,,,,,,,,2,,,86,0
26400,note_on,0,0,5,,,,,,,,,5,,,55,71
26520,note_on,120,0,2,,,,,,,,,2,,,86,71
26604,note_off,204,0,1,,,,,,,,,1,,,76,0
26640,note_on,36,0,1,,,,,,,,,1,,,76,72
26640,note_off,120,0,2,,,,,,,,,2,,,86,0
26760,note_on,120,0,2,,,,,,,,,2,,,86,72
26785,note_off,385,0,5,,,,,,,,,5,,,55,0
26785,note_off,0,0,5,,,,,,,,,5,,,43,0
26844,note_off,204,0,1,,,,,,,,,1,,,76,0
26880,note_on,95,0,5,,,,,,,,,5,,,45,72
26880,note_on,0,0,5,,,,,,,,,5,,,57,72
26880,note_on,36,0,1,,,,,,,,,1,,,78,72
26880,note_off,120,0,2,,,,,,,,,2,,,86,0
27000,note_on,120,0,2,,,,,,,,,2,,,86,73
27084,note_off,204,0,1,,,,,,,,,1,,,78,0
27120,note_on,36,0,1,,,,,,,,,1,,,78,73
27120,note_off,120,0,2,,,,,,,,,2,,,86,0
27240,note_on,120,0,2,,,,,,,,,2,,,86,74
27265,note_off,385,0,5,,,,,,,,,5,,,57,0
27265,note_off,0,0,5,,,,,,,,,5,,,45,0
27324,note_off,204,0,1,,,,,,,,,1,,,78,0
27360,note_on,0,0,5,,,,,,,,,5,,,50,74
27360,note_on,95,0,5,,,,,,,,,5,,,62,74
27360,note_on,36,0,1,,,,,,,,,1,,,78,74
27360,note_off,120,0,2,,,,,,,,,2,,,86,0
27480,note_on,120,0,2,,,,,,,,,2,,,86,74
27564,note_off,204,0,1,,,,,,,,,1,,,78,0
27600,note_on,36,0,1,,,,,,,,,1,,,78,75
27600,note_off,120,0,2,,,,,,,,,2,,,86,0
27720,note_on,120,0,2,,,,,,,,,2,,,86,75
27745,note_off,385,0,5,,,,,,,,,5,,,50,0
27745,note_off,0,0,5,,,,,,,,,5,,,62,0
27804,note_off,204,0,1,,,,,,,,,1,,,78,0
27840,note_on,0,0,5,,,,,,,,,5,,,48,76
27840,note_on,36,0,1,,,,,,,,,1,,,78,76
27840,note_off,120,0,2,,,,,,,,,2,,,86,0
27840,note_on,95,0,5,,,,,,,,,5,,,60,76
27960,note_on,120,0,2,,,,,,,,,2,,,86,76
28044,note_off,204,0,1,,,,,,,,,1,,,78,0
28080,note_on,36,0,1,,,,,,,,,1,,,78,76
28080,note_off,120,0,2,,,,,,,,,2,,,86,0
28200,note_on,120,0,2,,,,,,,,,2,,,86,77
28225,note_off,385,0,5,,,,,,,,,5,,,48,0
28225,note_off,0,0,5,,,,,,,,,5,,,60,0
28284,note_off,204,0,1,,,,,,,,,1,,,78,0
28320,note_off,120,0,2,,,,,,,,,2,,,86,0
28320,note_on,0,0,5,,,,,,,,,5,,,45,77
28320,note_on,36,0,1,,,,,,,,,1,,,78,77
28320,note_on,95,0,5,,,,,,,,,5,,,57,77
28440,note_on,120,0,2,,,,,,,,,2,,,86,78
28524,note_off,204,0,1,,,,,,,,,1,,,78,0
28560,note_on,36,0,1,,,,,,,,,1,,,78,78
28560,note_off,120,0,2,,,,,,,,,2,,,86,0
28680,set_tempo,3720,1,0,,,,,,402684,,,,,,,
28680,note_on,120,0,2,,,,,,,,,2,,,86,78
28705,note_off,0,0,5,,,,,,,,,5,,,57,0
28705,note_off,385,0,5,,,,,,,,,5,,,45,0
28764,note_off,204,0,1,,,,,,,,,1,,,78,0
28800,set_tempo,120,1,0,,,,,,400000,,,,,,,
28800,note_on,36,0,1,,,,,,,,,1,,,79,79
28800,note_on,95,0,5,,,,,,,,,5,,,59,79
28800,note_on,0,0,5,,,,,,,,,5,,,47,79
28800,note_off,120,0,2,,,,,,,,,2,,,86,0
28920,note_on,120,0,2,,,,,,,,,2,,,86,79
29004,note_off,204,0,1,,,,,,,,,1,,,79,0
29040,note_on,36,0,1,,,,,,,,,1,,,79,80
29040,note_off,120,0,2,,,,,,,,,2,,,86,0
29160,note_on,120,0,2,,,,,,,,,2,,,86,80
29185,note_off,385,0,5,,,,,,,,,5,,,47,0
29185,note_off,0,0,5,,,,,,,,,5,,,59,0
29244,note_off,204,0,1,,,,,,,,,1,,,79,0
29280,note_on,36,0,1,,,,,,,,,1,,,79,80
29280,note_on,0,0,5,,,,,,,,,5,,,55,80
29280,note_off,120,0,2,,,,,,,,,2,,,86,0
29280,note_on,95,0,5,,,,,,,,,5,,,67,80
29400,note_on,120,0,2,,,,,,,,,2,,,86,81
29484,note_off,204,0,1,,,,,,,,,1,,,79,0
29520,note_on,36,0,1,,,,,,,,,1,,,79,81
29520,note_off,120,0,2,,,,,,,,,2,,,86,0
29640,note_on,120,0,2,,,,,,,,,2,,,86,82
29665,note_off,0,0,5,,,,,,,,,5,,,67,0
29665,note_off,385,0,5,,,,,,,,,5,,,55,0
29724,note_off,204,0,1,,,,,,,,,1,,,79,0
29760,note_off,120,0,2,,,,,,,,,2,,,86,0
29760,note_on,0,0,5,,,,,,,,,5,,,50,82
29760,note_on,36,0,1,,,,,,,,,1,,,79,82
29760,note_on,95,0,5,,,,,,,,,5,,,62,82
29880,note_on,120,0,2,,,,,,,,,2,,,86,82
29964,note_off,204,0,1,,,,,,,,,1,,,79,0
30000,note_off,120,0,2,,,,,,,,,2,,,86,0
30000,note_on,36,0,1,,,,,,,,,1,,,79,83
30120,note_on,120,0,2,,,,,,,,,2,,,86,83
30145,note_off,0,0,5,,,,,,,,,5,,,62,0
30145,note_off,385,0,5,,,,,,,,,5,,,50,0
30204,note_off,204,0,1,,,,,,,,,1,,,79,0
30240,note_off,120,0,2,,,,,,,,,2,,,86,0
30240,note_on,95,0,5,,,,,,,,,5,,,47,84
30240,note_on,0,0,5,,,,,,,,,5,,,59,84
30240,note_on,36,0,1,,,,,,,,,1,,,79,84
30360,note_on,120,0,2,,,,,,,,,2,,,86,84
30444,note_off,204,0,1,,,,,,,,,1,,,79,0
30480,note_on,36,0,1,,,,,,,,,1,,,79,84
30480,note_off,120,0,2,,,,,,,,,2,,,86,0
30600,note_on,120,0,2,,,,,,,,,2,,,86,85
30625,note_off,385,0,5,,,,,,,,,5,,,59,0
30625,note_off,0,0,5,,,,,,,,,5,,,47,0
30684,note_off,204,0,1,,,,,,,,,1,,,79,0
30720,note_on,0,0,5,,,,,,,,,5,,,58,85
30720,note_on,36,0,1,,,,,,,,,1,,,80,85
30720,note_off,120,0,2,,,,,,,,,2,,,86,0
30720,note_on,0,0,2,,,,,,,,,2,,,74,85
30720,note_on,95,0,5,,,,,,,,,5,,,46,85
30840,note_on,120,0,2,,,,,,,,,2,,,86,85
30924,note_off,84,0,2,,,,,,,,,2,,,74,0
30924,note_off,204,0,1,,,,,,,,,1,,,80,0
30960,note_on,0,0,2,,,,,,,,,2,,,74,86
30960,note_on,36,0,1,,,,,,,,,1,,,80,86
30960,note_off,36,0,2,,,,,,,,,2,,,86,0
31080,note_on,120,0,2,,,,,,,,,2,,,86,86
31105,note_off,385,0,5,,,,,,,,,5,,,58,0
31105,note_off,0,0,5,,,,,,,,,5,,,46,0
31164,note_off,84,0,2,,,,,,,,,2,,,74,0
31164,note_off,204,0,1,,,,,,,,,1,,,80,0
31200,note_on,36,0,1,,,,,,,,,1,,,80,87
31200,note_on,95,0,5,,,,,,,,,5,,,65,87
31200,note_on,0,0,5,,,,,,,,,5,,,53,87
31200,note_off,36,0,2,,,,,,,,,2,,,86,0
31200,note_on,0,0,2,,,,,,,,,2,,,74,87
31320,note_on,120,0,2,,,,,,,,,2,,,86,87
31404,note_off,84,0,2,,,,,,,,,2,,,74,0
31404,note_off,204,0,1,,,,,,,,,1,,,80,0
31440,note_on,0,0,2,,,,,,,,,2,,,74,87
31440,note_off,36,0,2,,,,,,,,,2,,,86,0
31440,note_on,36,0,1,,,,,,,,,1,,,80,87
31560,note_on,120,0,2,,,,,,,,,2,,,86,88
31585,note_off,385,0,5,,,,,,,,,5,,,53,0
31585,note_off,0,0,5,,,,,,,,,5,,,65,0
31644,note_off,204,0,1,,,,,,,,,1,,,80,0
31644,note_off,84,0,2,,,,,,,,,2,,,74,0
31680,note_on,0,0,2,,,,,,,,,2,,,74,88
31680,note_off,36,0,2,,,,,,,,,2,,,86,0
31680,note_on,95,0,5,,,,,,,,,5,,,62,88
31680,note_on,36,0,1,,,,,,,,,1,,,80,88
31680,note_on,0,0,5,,,,,,,,,5,,,50,88
31800,note_on,120,0,2,,,,,,,,,2,,,86,89
31884,note_off,84,0,2,,,,,,,,,2,,,74,0
31884,note_off,204,0,1,,,,,,,,,1,,,80,0
31920,note_off,36,0,2,,,,,,,,,2,,,86,0
31920,note_on,0,0,2,,,,,,,,,2,,,74,89
31920,note_on,36,0,1,,,,,,,,,1,,,80,89
32040,note_on,120,0,2,,,,,,,,,2,,,86,89
32065,note_off,0,0,5,,,,,,,,,5,,,62,0
32065,note_off,385,0,5,,,,,,,,,5,,,50,0
32124,note_off,84,0,2,,,,,,,,,2,,,74,0
32124,note_off,204,0,1,,,,,,,,,1,,,80,0
32160,note_on,0,0,5,,,,,,,,,5,,,58,90
32160,note_on,95,0,5,,,,,,,,,5,,,46,90
32160,note_off,36,0,2,,,,,,,,,2,,,86,0
32160,note_on,0,0,2,,,,,,,,,2,,,74,90
32160,note_on,36,0,1,,,,,,,,,1,,,80,90
32280,note_on,120,0,2,,,,,,,,,2,,,86,90
32364,note_off,84,0,2,,,,,,,,,2,,,74,0
32364,note_off,204,0,1,,,,,,,,,1,,,80,0
32400,note_off,36,0,2,,,,,,,,,2,,,86,0
32400,note_on,0,0,2,,,,,,,,,2,,,74,91
32400,note_on,36,0,1,,,,,,,,,1,,,80,91
32520,note_on,120,0,2,,,,,,,,,2,,,86,91
32520,set_tempo,3720,1,0,,,,,,402684,,,,,,,
32545,note_off,385,0,5,,,,,,,,,5,,,58,0
32545,note_off,0,0,5,,,,,,,,,5,,,46,0
32604,note_off,204,0,1,,,,,,,,,1,,,80,0
32604,note_off,84,0,2,,,,,,,,,2,,,74,0
32640,note_on,36,0,1,,,,,,,,,1,,,81,87
32640,note_on,0,0,2,,,,,,,,,2,,,85,87
32640,note_off,36,0,2,,,,,,,,,2,,,86,0
32640,note_on,95,0,5,,,,,,,,,5,,,57,87
32640,note_on,0,0,2,,,,,,,,,2,,,76,87
32735,note_off,95,0,5,,,,,,,,,5,,,57,0
32760,set_tempo,240,1,0,,,,,,400000,,,,,,,
32760,note_on,32760,0,3,,,,,,,,,3,,,69,83
32880,note_on,145,0,5,,,,,,,,,5,,,68,83
32880,note_off,120,0,3,,,,,,,,,3,,,69,0
33000,note_on,120,0,3,,,,,,,,,3,,,69,83
33000,note_off,120,0,5,,,,,,,,,5,,,68,0
33120,note_off,480,0,2,,,,,,,,,2,,,76,0
33120,note_off,0,0,2,,,,,,,,,2,,,85,0
33120,note_off,480,0,1,,,,,,,,,1,,,81,0
33120,note_off,120,0,3,,,,,,,,,3,,,69,0
33120,note_on,120,0,5,,,,,,,,,5,,,71,83
33240,note_on,120,0,3,,,,,,,,,3,,,69,83
33240,note_off,120,0,5,,,,,,,,,5,,,71,0
33360,note_on,120,0,5,,,,,,,,,5,,,66,83
33360,set_tempo,600,1,0,,,,,,400000,,,,,,,
33360,note_on,240,0,1,,,,,,,,,1,,,81,83
33360,note_off,120,0,3,,,,,,,,,3,,,69,0
33480,note_on,120,0,3,,,,,,,,,3,,,69,83
33480,note_off,120,0,5,,,,,,,,,5,,,66,0
33515,note_off,155,0,1,,,,,,,,,1,,,81,0
33600,note_on,85,0,1,,,,,,,,,1,,,79,83
33600,note_off,120,0,3,,,,,,,,,3,,,69,0
33600,note_on,120,0,5,,,,,,,,,5,,,64,83
33720,note_off,120,0,5,,,,,,,,,5,,,64,0
33720,note_on,120,0,3,,,,,,,,,3,,,69,82
33755,note_off,155,0,1,,,,,,,,,1,,,79,0
33840,note_off,120,0,3,,,,,,,,,3,,,69,0
33840,note_on,85,0,1,,,,,,,,,1,,,78,82
33840,note_on,120,0,5,,,,,,,,,5,,,62,82
33960,note_on,120,0,3,,,,,,,,,3,,,69,82
33960,note_off,120,0,5,,,,,,,,,5,,,62,0
33995,note_off,155,0,1,,,,,,,,,1,,,78,0
34080,note_off,120,0,3,,,,,,,,,3,,,69,0
34080,note_on,85,0,1,,,,,,,,,1,,,76,82
34080,note_on,120,0,5,,,,,,,,,5,,,61,82
34200,note_off,120,0,5,,,,,,,,,5,,,61,0
34200,note_on,120,0,3,,,,,,,,,3,,,69,82
34235,note_off,155,0,1,,,,,,,,,1,,,76,0
34320,note_on,85,0,1,,,,,,,,,1,,,74,82
34320,note_off,120,0,3,,,,,,,,,3,,,69,0
34320,note_on,120,0,5,,,,,,,,,5,,,59,82
34440,note_on,120,0,3,,,,,,,,,3,,,69,82
34440,note_off,120,0,5,,,,,,,,,5,,,59,0
34475,note_off,155,0,1,,,,,,,,,1,,,74,0
34560,note_off,120,0,3,,,,,,,,,3,,,69,0
34560,note_on,85,0,1,,,,,,,,,1,,,73,82
34560,note_on,120,0,5,,,,,,,,,5,,,57,82
34680,note_on,120,0,3,,,,,,,,,3,,,69,82
34680,note_off,120,0,5,,,,,,,,,5,,,57,0
34715,note_off,155,0,1,,,,,,,,,1,,,73,0
34800,note_on,85,0,1,,,,,,,,,1,,,74,81
34800,note_on,120,0,5,,,,,,,,,5,,,59,81
34800,note_off,120,0,3,,,,,,,,,3,,,69,0
34920,note_on,120,0,3,,,,,,,,,3,,,69,81
34920,note_off,120,0,5,,,,,,,,,5,,,59,0
34955,note_off,155,0,1,,,,,,,,,1,,,74,0
35040,note_on,120,0,5,,,,,,,,,5,,,61,81
35040,note_off,120,0,3,,,,,,,,,3,,,69,0
35040,note_on,85,0,1,,,,,,,,,1,,,76,81
35160,note_on,120,0,3,,,,,,,,,3,,,69,81
35160,note_off,120,0,5,,,,,,,,,5,,,61,0
35195,note_off,155,0,1,,,,,,,,,1,,,76,0
35280,note_off,120,0,3,,,,,,,,,3,,,69,0
35280,note_on,120,0,5,,,,,,,,,5,,,62,81
35280,note_on,85,0,1,,,,,,,,,1,,,78,81
35400,note_off,120,0,5,,,,,,,,,5,,,62,0
35400,note_on,120,0,3,,,,,,,,,3,,,69,81
35435,note_off,155,0,1,,,,,,,,,1,,,78,0
35520,note_on,85,0,1,,,,,,,,,1,,,81,81
35520,note_off,120,0,3,,,,,,,,,3,,,69,0
35520,note_on,120,0,5,,,,,,,,,5,,,64,81
35640,note_off,120,0,5,,,,,,,,,5,,,64,0
35640,note_on,0,0,1,,,,,,,,,1,,,79,81
35640,note_off,120,0,1,,,,,,,,,1,,,81,0
35640,note_on,120,0,3,,,,,,,,,3,,,69,81
35760,note_on,0,0,1,,,,,,,,,1,,,78,80
35760,note_off,120,0,1,,,,,,,,,1,,,79,0
35760,note_on,120,0,5,,,,,,,,,5,,,61,80
35760,note_off,120,0,3,,,,,,,,,3,,,69,0
35880,note_on,120,0,3,,,,,,,,,3,,,69,80
35880,note_off,120,0,5,,,,,,,,,5,,,61,0
35880,note_on,0,0,1,,,,,,,,,1,,,76,80
35880,note_off,120,0,1,,,,,,,,,1,,,78,0
35985,note_off,105,0,1,,,,,,,,,1,,,76,0
36000,note_on,15,0,1,,,,,,,,,1,,,79,80
36000,note_off,120,0,3,,,,,,,,,3,,,69,0
36000,note_on,120,0,5,,,,,,,,,5,,,62,80
36120,note_on,120,0,3,,,,,,,,,3,,,69,80
36120,note_off,120,0,1,,,,,,,,,1,,,79,0
36120,note_off,120,0,5,,,,,,,,,5,,,62,0
36120,note_on,0,0,1,,,,,,,,,1,,,78,80
36240,note_on,120,0,5,,,,,,,,,5,,,59,80
36240,note_off,120,0,3,,,,,,,,,3,,,69,0
36240,note_on,0,0,1,,,,,,,,,1,,,76,80
36240,note_off,120,0,1,,,,,,,,,1,,,78,0
36360,note_off,120,0,5,,,,,,,,,5,,,59,0
36360,note_on,0,0,1,,,,,,,,,1,,,74,80
36360,note_off,120,0,1,,,,,,,,,1,,,76,0
36360,note_on,120,0,3,,,,,,,,,3,,,69,80
36360,set_tempo,3000,1,0,,,,,,402684,,,,,,,
36455,note_off,95,0,1,,,,,,,,,1,,,74,0
36480,note_on,120,0,5,,,,,,,,,5,,,57,80
36480,note_on,3360,0,2,,,,,,,,,2,,,73,80
36480,note_off,120,0,3,,,,,,,,,3,,,69,0
36520,note_on,40,0,2,,,,,,,,,2,,,76,80
36560,note_on,105,0,1,,,,,,,,,1,,,81,80
36575,note_off,95,0,5,,,,,,,,,5,,,57,0
36600,set_tempo,240,1,0,,,,,,400000,,,,,,,
36600,note_on,120,0,3,,,,,,,,,3,,,69,80
36720,note_on,145,0,5,,,,,,,,,5,,,68,79
36720,note_off,120,0,3,,,,,,,,,3,,,69,0
36840,note_off,120,0,5,,,,,,,,,5,,,68,0
36840,note_on,120,0,3,,,,,,,,,3,,,69,79
36960,note_off,120,0,3,,,,,,,,,3,,,69,0
36960,note_on,120,0,5,,,,,,,,,5,,,71,79
36965,note_off,0,0,2,,,,,,,,,2,,,73,0
36965,note_off,445,0,2,,,,,,,,,2,,,76,0
36975,note_off,415,0,1,,,,,,,,,1,,,81,0
37080,note_on,120,0,3,,,,,,,,,3,,,69,79
37080,note_off,120,0,5,,,,,,,,,5,,,71,0
37200,note_on,120,0,5,,,,,,,,,5,,,66,79
37200,note_off,120,0,3,,,,,,,,,3,,,69,0
37200,note_on,225,0,1,,,,,,,,,1,,,81,79
37200,set_tempo,600,1,0,,,,,,400000,,,,,,,
37320,note_on,120,0,3,,,,,,,,,3,,,69,79
37320,note_off,120,0,5,,,,,,,,,5,,,66,0
37355,note_off,155,0,1,,,,,,,,,1,,,81,0
37440,note_on,120,0,5,,,,,,,,,5,,,64,79
37440,note_off,120,0,3,,,,,,,,,3,,,69,0
37440,note_on,85,0,1,,,,,,,,,1,,,79,79
37560,note_on,120,0,3,,,,,,,,,3,,,69,79
37560,note_off,120,0,5,,,,,,,,,5,,,64,0
37595,note_off,155,0,1,,,,,,,,,1,,,79,0
37680,note_off,120,0,3,,,,,,,,,3,,,69,0
37680,note_on,85,0,1,,,,,,,,,1,,,78,79
37680,note_on,120,0,5,,,,,,,,,5,,,62,79
37800,note_on,120,0,3,,,,,,,,,3,,,69,78
37800,note_off,120,0,5,,,,,,,,,5,,,62,0
37835,note_off,155,0,1,,,,,,,,,1,,,78,0
37920,note_on,85,0,1,,,,,,,,,1,,,76,78
37920,note_on,120,0,5,,,,,,,,,5,,,61,78
37920,note_off,120,0,3,,,,,,,,,3,,,69,0
38040,note_off,120,0,5,,,,,,,,,5,,,61,0
38040,note_on,120,0,3,,,,,,,,,3,,,69,78
38075,note_off,155,0,1,,,,,,,,,1,,,76,0
38160,note_off,120,0,3,,,,,,,,,3,,,69,0
38160,note_on,85,0,1,,,,,,,,,1,,,74,78
38160,note_on,120,0,5,,,,,,,,,5,,,59,78
38280,note_off,120,0,5,,,,,,,,,5,,,59,0
38280,note_on,120,0,3,,,,,,,,,3,,,69,78
38315,note_off,155,0,1,,,,,,,,,1,,,74,0
38400,note_on,120,0,5,,,,,,,,,5,,,57,78
38400,note_off,120,0,3,,,,,,,,,3,,,69,0
38400,note_on,85,0,1,,,,,,,,,1,,,73,78
38520,note_on,120,0,3,,,,,,,,,3,,,69,78
38520,note_off,120,0,5,,,,,,,,,5,,,57,0
38555,note_off,155,0,1,,,,,,,,,1,,,73,0
38640,note_off,120,0,3,,,,,,,,,3,,,69,0
38640,note_on,120,0,5,,,,,,,,,5,,,59,78
38640,note_on,85,0,1,,,,,,,,,1,,,74,78
38760,note_on,120,0,3,,,,,,,,,3,,,69,77
38760,note_off,120,0,5,,,,,,,,,5,,,59,0
38795,note_off,155,0,1,,,,,,,,,1,,,74,0
38880,note_on,85,0,1,,,,,,,,,1,,,76,77
38880,note_on,120,0,5,,,,,,,,,5,,,61,77
38880,note_off,120,0,3,,,,,,,,,3,,,69,0
39000,note_off,120,0,5,,,,,,,,,5,,,61,0
39000,note_on,120,0,3,,,,,,,,,3,,,69,77
39035,note_off,155,0,1,,,,,,,,,1,,,76,0
39120,note_on,120,0,5,,,,,,,,,5,,,62,77
39120,note_on,85,0,1,,,,,,,,,1,,,78,77
39120,note_off,120,0,3,,,,,,,,,3,,,69,0
39240,note_off,120,0,5,,,,,,,,,5,,,62,0
39240,note_on,120,0,3,,,,,,,,,3,,,69,77
39275,note_off,155,0,1,,,,,,,,,1,,,78,0
39360,note_off,120,0,3,,,,,,,,,3,,,69,0
39360,note_on,85,0,1,,,,,,,,,1,,,81,77
39360,note_on,120,0,5,,,,,,,,,5,,,64,77
39480,note_off,120,0,1,,,,,,,,,1,,,81,0
39480,note_off,120,0,5,,,,,,,,,5,,,64,0
39480,note_on,0,0,1,,,,,,,,,1,,,79,77
39480,note_on,120,0,3,,,,,,,,,3,,,69,77
39600,note_on,120,0,5,,,,,,,,,5,,,61,77
39600,note_off,120,0,3,,,,,,,,,3,,,69,0
39600,note_on,0,0,1,,,,,,,,,1,,,78,77
39600,note_off,120,0,1,,,,,,,,,1,,,79,0
39720,note_on,120,0,3,,,,,,,,,3,,,69,76
39720,note_off,120,0,5,,,,,,,,,5,,,61,0
39720,note_off,120,0,1,,,,,,,,,1,,,78,0
39720,note_on,0,0,1,,,,,,,,,1,,,76,76
39825,note_off,105,0,1,,,,,,,,,1,,,76,0
39840,note_off,120,0,3,,,,,,,,,3,,,69,0
39840,note_on,120,0,5,,,,,,,,,5,,,62,76
39840,note_on,15,0,1,,,,,,,,,1,,,79,76
39960,note_off,120,0,1,,,,,,,,,1,,,79,0
39960,note_on,120,0,3,,,,,,,,,3,,,69,76
39960,note_off,120,0,5,,,,,,,,,5,,,62,0
39960,note_on,0,0,1,,,,,,,,,1,,,78,76
40080,note_on,0,0,1,,,,,,,,,1,,,76,76
40080,note_on,120,0,5,,,,,,,,,5,,,59,76
40080,note_off,120,0,3,,,,,,,,,3,,,69,0
40080,note_off,120,0,1,,,,,,,,,1,,,78,0
40200,note_off,120,0,1,,,,,,,,,1,,,76,0
40200,note_on,0,0,1,,,,,,,,,1,,,74,76
40200,note_on,120,0,3,,,,,,,,,3,,,69,76
40200,note_off,120,0,5,,,,,,,,,5,,,59,0
40280,set_tempo,3080,1,0,,,,,,402684,,,,,,,
40305,note_off,105,0,1,,,,,,,,,1,,,74,0
40320,set_tempo,40,1,0,,,,,,408163,,,,,,,
40320,note_off,120,0,3,,,,,,,,,3,,,69,0
40320,note_on,120,0,5,,,,,,,,,5,,,57,76
40320,note_on,3355,0,2,,,,,,,,,2,,,73,76
40360,note_on,40,0,2,,,,,,,,,2,,,76,76
40400,note_on,95,0,1,,,,,,,,,1,,,81,76
40560,set_tempo,240,1,0,,,,,,413793,,,,,,,
40705,note_off,385,0,5,,,,,,,,,5,,,57,0
40800,note_on,95,0,5,,,,,,,,,5,,,57,74
40800,note_on,0,0,4,,,,,,,,,4,,,64,74
40800,note_on,27360,0,4,,,,,,,,,4,,,61,74
40805,note_off,445,0,2,,,,,,,,,2,,,73,0
40815,note_off,415,0,1,,,,,,,,,1,,,81,0
40840,note_on,25,0,1,,,,,,,,,1,,,76,76
40840,note_off,35,0,2,,,,,,,,,2,,,76,0
40920,note_on,0,0,1,,,,,,,,,1,,,73,73
40920,note_off,80,0,1,,,,,,,,,1,,,76,0
41040,note_off,120,0,1,,,,,,,,,1,,,73,0
41040,note_on,0,0,1,,,,,,,,,1,,,76,72
41160,note_on,0,0,1,,,,,,,,,1,,,73,70
41160,note_off,120,0,1,,,,,,,,,1,,,76,0
41185,note_off,385,0,4,,,,,,,,,4,,,64,0
41185,note_off,0,0,4,,,,,,,,,4,,,61,0
41185,note_off,385,0,5,,,,,,,,,5,,,57,0
41280,note_on,0,0,4,,,,,,,,,4,,,64,69
41280,note_on,95,0,4,,,,,,,,,4,,,61,69
41280,note_on,95,0,5,,,,,,,,,5,,,57,69
41280,note_off,120,0,1,,,,,,,,,1,,,73,0
41280,note_on,0,0,1,,,,,,,,,1,,,69,69
41660,note_off,380,0,1,,,,,,,,,1,,,69,0
41665,note_off,385,0,5,,,,,,,,,5,,,57,0
41665,note_off,0,0,4,,,,,,,,,4,,,61,0
41665,note_off,385,0,4,,,,,,,,,4,,,64,0
41760,set_tempo,1200,1,0,,,,,,526315,,,,,,,
42240,note_on,580,0,1,,,,,,,,,1,,,76,54
42240,set_tempo,480,1,0,,,,,,408163,,,,,,,
42720,note_on,0,0,1,,,,,,,,,1,,,81,57
42720,note_off,480,0,1,,,,,,,,,1,,,76,0
42960,note_on,0,0,1,,,,,,,,,1,,,80,59
42960,note_off,240,0,1,,,,,,,,,1,,,81,0
43200,note_off,240,0,1,,,,,,,,,1,,,80,0
43200,note_on,0,0,1,,,,,,,,,1,,,83,61
43440,note_off,240,0,1,,,,,,,,,1,,,83,0
43440,note_on,0,0,1,,,,,,,,,1,,,81,60
43680,note_off,240,0,1,,,,,,,,,1,,,81,0
43680,note_on,0,0,1,,,,,,,,,1,,,80,59
43920,note_off,240,0,1,,,,,,,,,1,,,80,0
43920,note_on,0,0,1,,,,,,,,,1,,,78,58
44100,set_tempo,1860,1,0,,,,,,413793,,,,,,,
44135,note_off,215,0,1,,,,,,,,,1,,,78,0
44160,note_on,3840,0,3,,,,,,,,,3,,,71,57
44160,note_on,25,0,1,,,,,,,,,1,,,78,61
44160,note_on,2495,0,4,,,,,,,,,4,,,68,57
44160,set_tempo,60,1,0,,,,,,402684,,,,,,,
44220,note_off,60,0,1,,,,,,,,,1,,,78,0
44220,note_on,0,0,1,,,,,,,,,1,,,80,60
44280,note_on,0,0,1,,,,,,,,,1,,,78,58
44280,note_off,60,0,1,,,,,,,,,1,,,80,0
44350,note_off,190,0,4,,,,,,,,,4,,,68,0
44350,note_off,190,0,3,,,,,,,,,3,,,71,0
44380,note_off,100,0,1,,,,,,,,,1,,,78,0
44400,note_on,50,0,3,,,,,,,,,3,,,71,57
44400,note_on,50,0,4,,,,,,,,,4,,,68,57
44400,note_on,20,0,1,,,,,,,,,1,,,76,56
44590,note_off,190,0,4,,,,,,,,,4,,,68,0
44590,note_off,190,0,3,,,,,,,,,3,,,71,0
44625,note_off,225,0,1,,,,,,,,,1,,,76,0
44640,note_on,15,0,1,,,,,,,,,1,,,76,55
44640,note_on,50,0,3,,,,,,,,,3,,,71,56
44640,note_on,50,0,4,,,,,,,,,4,,,68,56
44830,note_off,190,0,3,,,,,,,,,3,,,71,0
44830,note_off,190,0,4,,,,,,,,,4,,,68,0
44880,note_on,50,0,3,,,,,,,,,3,,,71,56
44880,note_on,50,0,4,,,,,,,,,4,,,68,56
45070,note_off,190,0,4,,,,,,,,,4,,,68,0
45070,note_off,190,0,3,,,,,,,,,3,,,71,0
45120,note_on,50,0,4,,,,,,,,,4,,,68,55
45120,note_on,50,0,3,,,,,,,,,3,,,71,55
45295,note_off,655,0,1,,,,,,,,,1,,,76,0
45300,note_on,5,0,1,,,,,,,,,1,,,78,55
45310,note_off,190,0,4,,,,,,,,,4,,,68,0
45310,note_off,190,0,3,,,,,,,,,3,,,71,0
45360,note_on,0,0,1,,,,,,,,,1,,,76,55
45360,note_on,50,0,4,,,,,,,,,4,,,68,55
45360,note_on,50,0,3,,,,,,,,,3,,,71,55
45360,note_off,60,0,1,,,,,,,,,1,,,78,0
45480,note_on,0,0,1,,,,,,,,,1,,,75,54
45480,note_off,120,0,1,,,,,,,,,1,,,76,0
45550,note_off,190,0,4,,,,,,,,,4,,,68,0
45550,note_off,190,0,3,,,,,,,,,3,,,71,0
45575,note_off,95,0,1,,,,,,,,,1,,,75,0
45600,note_on,50,0,3,,,,,,,,,3,,,71,54
45600,note_on,25,0,1,,,,,,,,,1,,,76,54
45600,note_on,50,0,4,,,,,,,,,4,,,68,54
45755,note_off,155,0,1,,,,,,,,,1,,,76,0
45790,note_off,190,0,4,,,,,,,,,4,,,68,0
45790,note_off,190,0,3,,,,,,,,,3,,,71,0
45840,note_on,50,0,3,,,,,,,,,3,,,71,54
45840,note_on,85,0,1,,,,,,,,,1,,,78,54
45840,note_on,50,0,4,,,,,,,,,4,,,68,54
45995,note_off,155,0,1,,,,,,,,,1,,,78,0
46020,set_tempo,1860,1,0,,,,,,408163,,,,,,,
46030,note_off,190,0,3,,,,,,,,,3,,,71,0
46030,note_off,190,0,4,,,,,,,,,4,,,68,0
46080,note_on,85,0,1,,,,,,,,,1,,,76,57
46080,note_on,50,0,3,,,,,,,,,3,,,69,53
46080,note_on,50,0,4,,,,,,,,,4,,,66,53
46080,set_tempo,60,1,0,,,,,,402684,,,,,,,
46270,note_off,190,0,3,,,,,,,,,3,,,69,0
46270,note_off,190,0,4,,,,,,,,,4,,,66,0
46320,note_on,0,0,1,,,,,,,,,1,,,74,53
46320,note_on,50,0,4,,,,,,,,,4,,,66,53
46320,note_on,50,0,3,,,,,,,,,3,,,69,53
46320,note_off,240,0,1,,,,,,,,,1,,,76,0
46510,note_off,190,0,3,,,,,,,,,3,,,69,0
46510,note_off,190,0,4,,,,,,,,,4,,,66,0
46560,note_on,50,0,3,,,,,,,,,3,,,69,52
46560,note_on,50,0,4,,,,,,,,,4,,,66,52
46750,note_off,190,0,4,,,,,,,,,4,,,66,0
46750,note_off,190,0,3,,,,,,,,,3,,,69,0
46800,note_off,480,0,1,,,,,,,,,1,,,74,0
46800,note_on,0,0,1,,,,,,,,,1,,,78,52
46800,note_on,50,0,3,,,,,,,,,3,,,69,52
46800,note_on,50,0,4,,,,,,,,,4,,,66,52
46990,note_off,190,0,3,,,,,,,,,3,,,69,0
46990,note_off,190,0,4,,,,,,,,,4,,,66,0
47015,note_off,215,0,1,,,,,,,,,1,,,78,0
47040,note_on,50,0,4,,,,,,,,,4,,,64,51
47040,note_on,50,0,3,,,,,,,,,3,,,68,51
47040,note_on,25,0,1,,,,,,,,,1,,,74,54
47230,note_off,190,0,3,,,,,,,,,3,,,68,0
47230,note_off,190,0,4,,,,,,,,,4,,,64,0
47280,note_on,50,0,3,,,,,,,,,3,,,68,51
47280,note_on,50,0,4,,,,,,,,,4,,,64,51
47280,note_on,0,0,1,,,,,,,,,1,,,73,51
47280,note_off,240,0,1,,,,,,,,,1,,,74,0
47470,note_off,190,0,4,,,,,,,,,4,,,64,0
47470,note_off,190,0,3,,,,,,,,,3,,,68,0
47520,note_on,50,0,4,,,,,,,,,4,,,64,50
47520,note_on,50,0,3,,,,,,,,,3,,,68,50
47710,note_off,190,0,3,,,,,,,,,3,,,68,0
47710,note_off,190,0,4,,,,,,,,,4,,,64,0
47760,note_off,480,0,1,,,,,,,,,1,,,73,0
47760,note_on,50,0,3,,,,,,,,,3,,,68,50
47760,note_on,0,0,1,,,,,,,,,1,,,76,50
47760,note_on,50,0,4,,,,,,,,,4,,,64,50
47940,set_tempo,1860,1,0,,,,,,408163,,,,,,,
47950,note_off,190,0,3,,,,,,,,,3,,,68,0
47950,note_off,190,0,4,,,,,,,,,4,,,64,0
47975,note_off,215,0,1,,,,,,,,,1,,,76,0
48000,note_on,25,0,1,,,,,,,,,1,,,73,49
48000,note_on,50,0,3,,,,,,,,,3,,,66,49
48000,set_tempo,60,1,0,,,,,,400000,,,,,,,
48000,note_on,50,0,4,,,,,,,,,4,,,62,49
48120,note_off,120,0,1,,,,,,,,,1,,,73,0
48120,note_on,0,0,1,,,,,,,,,1,,,71,49
48190,note_off,190,0,4,,,,,,,,,4,,,62,0
48190,note_off,190,0,3,,,,,,,,,3,,,66,0
48240,note_on,50,0,3,,,,,,,,,3,,,66,49
48240,note_on,50,0,4,,,,,,,,,4,,,62,49
48240,note_off,120,0,1,,,,,,,,,1,,,71,0
48240,note_on,0,0,1,,,,,,,,,1,,,74,49
48360,note_off,120,0,1,,,,,,,,,1,,,74,0
48360,note_on,0,0,1,,,,,,,,,1,,,73,48
48430,note_off,190,0,4,,,,,,,,,4,,,62,0
48430,note_off,190,0,3,,,,,,,,,3,,,66,0
48480,note_on,50,0,4,,,,,,,,,4,,,62,48
48480,note_off,120,0,1,,,,,,,,,1,,,73,0
48480,note_on,0,0,1,,,,,,,,,1,,,76,48
48480,note_on,50,0,3,,,,,,,,,3,,,66,48
48600,note_off,120,0,1,,,,,,,,,1,,,76,0
48600,note_on,0,0,1,,,,,,,,,1,,,74,48
48670,note_off,190,0,4,,,,,,,,,4,,,62,0
48670,note_off,190,0,3,,,,,,,,,3,,,66,0
48720,note_on,0,0,1,,,,,,,,,1,,,73,48
48720,note_off,120,0,1,,,,,,,,,1,,,74,0
48720,note_on,50,0,3,,,,,,,,,3,,,66,48
48720,note_on,50,0,4,,,,,,,,,4,,,62,48
48840,note_off,120,0,1,,,,,,,,,1,,,73,0
48840,note_on,0,0,1,,,,,,,,,1,,,71,47
48910,note_off,190,0,3,,,,,,,,,3,,,66,0
48910,note_off,190,0,4,,,,,,,,,4,,,62,0
48960,note_on,0,0,1,,,,,,,,,1,,,69,46
48960,note_on,50,0,3,,,,,,,,,3,,,64,46
48960,note_on,50,0,4,,,,,,,,,4,,,61,46
48960,note_off,120,0,1,,,,,,,,,1,,,71,0
49080,note_on,0,0,1,,,,,,,,,1,,,71,46
49080,note_off,120,0,1,,,,,,,,,1,,,69,0
49200,note_on,0,0,1,,,,,,,,,1,,,69,47
49200,note_off,120,0,1,,,,,,,,,1,,,71,0
49320,note_on,0,0,1,,,,,,,,,1,,,68,48
49320,note_off,120,0,1,,,,,,,,,1,,,69,0
49440,note_off,120,0,1,,,,,,,,,1,,,68,0
49440,note_on,0,0,1,,,,,,,,,1,,,69,49
49440,note_off,480,0,4,,,,,,,,,4,,,61,0
49440,note_off,480,0,3,,,,,,,,,3,,,64,0
49560,note_on,0,0,1,,,,,,,,,1,,,71,50
49560,note_off,120,0,1,,,,,,,,,1,,,69,0
49680,note_off,120,0,1,,,,,,,,,1,,,71,0
49680,note_on,0,0,1,,,,,,,,,1,,,73,51
49800,note_off,120,0,1,,,,,,,,,1,,,73,0
49800,note_on,0,0,1,,,,,,,,,1,,,74,51
49920,note_off,120,0,1,,,,,,,,,1,,,74,0
49920,note_on,0,0,1,,,,,,,,,1,,,75,52
50040,note_off,120,0,1,,,,,,,,,1,,,75,0
50040,note_on,0,0,1,,,,,,,,,1,,,76,53
50160,note_off,120,0,1,,,,,,,,,1,,,76,0
50160,note_on,0,0,1,,,,,,,,,1,,,78,54
50280,note_on,0,0,1,,,,,,,,,1,,,76,55
50280,note_off,120,0,1,,,,,,,,,1,,,78,0
50400,note_off,120,0,1,,,,,,,,,1,,,76,0
50400,note_on,0,0,1,,,,,,,,,1,,,80,56
50520,note_on,0,0,1,,,,,,,,,1,,,78,57
50520,note_off,120,0,1,,,,,,,,,1,,,80,0
50640,note_on,0,0,1,,,,,,,,,1,,,81,57
50640,note_off,120,0,1,,,,,,,,,1,,,78,0
50760,set_tempo,2760,1,0,,,,,,408163,,,,,,,
50760,note_off,120,0,1,,,,,,,,,1,,,81,0
50760,note_on,0,0,1,,,,,,,,,1,,,80,58
50880,note_off,120,0,1,,,,,,,,,1,,,80,0
50880,note_on,0,0,1,,,,,,,,,1,,,83,60
51120,note_on,0,0,1,,,,,,,,,1,,,81,57
51120,note_off,240,0,1,,,,,,,,,1,,,83,0
51360,note_off,240,0,1,,,,,,,,,1,,,81,0
51360,note_on,0,0,1,,,,,,,,,1,,,80,55
51600,note_off,240,0,1,,,,,,,,,1,,,80,0
51600,note_on,0,0,1,,,,,,,,,1,,,78,52
51780,set_tempo,1020,1,0,,,,,,413793,,,,,,,
51815,note_off,215,0,1,,,,,,,,,1,,,78,0
51840,note_on,25,0,1,,,,,,,,,1,,,75,59
51840,set_tempo,60,1,0,,,,,,402684,,,,,,,
51840,note_on,2400,0,3,,,,,,,,,3,,,71,57
51840,note_on,2400,0,4,,,,,,,,,4,,,68,57
52030,note_off,190,0,4,,,,,,,,,4,,,68,0
52030,note_off,190,0,3,,,,,,,,,3,,,71,0
52080,note_off,240,0,1,,,,,,,,,1,,,75,0
52080,note_on,50,0,4,,,,,,,,,4,,,68,57
52080,note_on,0,0,1,,,,,,,,,1,,,78,57
52080,note_on,50,0,3,,,,,,,,,3,,,71,57
52200,note_on,0,0,1,,,,,,,,,1,,,76,56
52200,note_off,120,0,1,,,,,,,,,1,,,78,0
52270,note_off,190,0,4,,,,,,,,,4,,,68,0
52270,note_off,190,0,3,,,,,,,,,3,,,71,0
52300,note_off,100,0,1,,,,,,,,,1,,,76,0
52320,note_on,50,0,3,,,,,,,,,3,,,71,56
52320,note_on,20,0,1,,,,,,,,,1,,,76,55
52320,note_on,50,0,4,,,,,,,,,4,,,68,56
52510,note_off,190,0,4,,,,,,,,,4,,,68,0
52510,note_off,190,0,3,,,,,,,,,3,,,71,0
52560,note_on,50,0,3,,,,,,,,,3,,,71,55
52560,note_on,50,0,4,,,,,,,,,4,,,68,55
52750,note_off,190,0,4,,,,,,,,,4,,,68,0
52750,note_off,190,0,3,,,,,,,,,3,,,71,0
52800,note_on,50,0,3,,,,,,,,,3,,,71,54
52800,note_on,50,0,4,,,,,,,,,4,,,68,54
52905,note_off,585,0,1,,,,,,,,,1,,,76,0
52920,note_on,15,0,1,,,,,,,,,1,,,78,54
52990,note_off,190,0,4,,,,,,,,,4,,,68,0
52990,note_off,190,0,3,,,,,,,,,3,,,71,0
53040,note_off,120,0,1,,,,,,,,,1,,,78,0
53040,note_on,0,0,1,,,,,,,,,1,,,76,54
53040,note_on,50,0,3,,,,,,,,,3,,,71,54
53040,note_on,50,0,4,,,,,,,,,4,,,68,54
53160,note_on,0,0,1,,,,,,,,,1,,,75,53
53160,note_off,120,0,1,,,,,,,,,1,,,76,0
53230,note_off,190,0,4,,,,,,,,,4,,,68,0
53230,note_off,190,0,3,,,,,,,,,3,,,71,0
53280,note_off,120,0,1,,,,,,,,,1,,,75,0
53280,note_on,0,0,1,,,,,,,,,1,,,76,53
53280,note_on,50,0,4,,,,,,,,,4,,,68,53
53280,note_on,50,0,3,,,,,,,,,3,,,71,53
53435,note_off,155,0,1,,,,,,,,,1,,,76,0
53470,note_off,190,0,3,,,,,,,,,3,,,71,0
53470,note_off,190,0,4,,,,,,,,,4,,,68,0
53520,note_on,85,0,1,,,,,,,,,1,,,76,52
53520,note_on,50,0,3,,,,,,,,,3,,,71,52
53520,note_on,50,0,4,,,,,,,,,4,,,68,52
53700,set_tempo,1860,1,0,,,,,,408163,,,,,,,
53710,note_off,190,0,4,,,,,,,,,4,,,68,0
53710,note_off,190,0,3,,,,,,,,,3,,,71,0
53760,set_tempo,60,1,0,,,,,,402684,,,,,,,
53760,note_on,50,0,3,,,,,,,,,3,,,69,51
53760,note_on,50,0,4,,,,,,,,,4,,,66,51
53950,note_off,190,0,4,,,,,,,,,4,,,66,0
53950,note_off,190,0,3,,,,,,,,,3,,,69,0
54000,note_on,50,0,4,,,,,,,,,4,,,66,51
54000,note_on,0,0,1,,,,,,,,,1,,,73,54
54000,note_off,480,0,1,,,,,,,,,1,,,76,0
54000,note_on,50,0,3,,,,,,,,,3,,,69,51
54190,note_off,190,0,3,,,,,,,,,3,,,69,0
54190,note_off,190,0,4,,,,,,,,,4,,,66,0
54240,note_on,50,0,4,,,,,,,,,4,,,66,50
54240,note_on,50,0,3,,,,,,,,,3,,,69,50
54430,note_off,190,0,3,,,,,,,,,3,,,69,0
54430,note_off,190,0,4,,,,,,,,,4,,,66,0
54480,note_on,50,0,4,,,,,,,,,4,,,66,49
54480,note_on,0,0,1,,,,,,,,,1,,,74,49
54480,note_off,480,0,1,,,,,,,,,1,,,73,0
54480,note_on,50,0,3,,,,,,,,,3,,,69,49
54670,note_off,190,0,4,,,,,,,,,4,,,66,0
54670,note_off,190,0,3,,,,,,,,,3,,,69,0
54720,note_on,50,0,4,,,,,,,,,4,,,64,48
54720,note_on,50,0,3,,,,,,,,,3,,,68,48
54910,note_off,190,0,3,,,,,,,,,3,,,68,0
54910,note_off,190,0,4,,,,,,,,,4,,,64,0
54960,note_on,50,0,4,,,,,,,,,4,,,64,48
54960,note_off,480,0,1,,,,,,,,,1,,,74,0
54960,note_on,0,0,1,,,,,,,,,1,,,72,52
54960,note_on,50,0,3,,,,,,,,,3,,,68,48
55150,note_off,190,0,4,,,,,,,,,4,,,64,0
55150,note_off,190,0,3,,,,,,,,,3,,,68,0
55200,note_on,50,0,4,,,,,,,,,4,,,64,47
55200,note_on,50,0,3,,,,,,,,,3,,,68,47
55390,note_off,190,0,4,,,,,,,,,4,,,64,0
55390,note_off,190,0,3,,,,,,,,,3,,,68,0
55440,note_on,0,0,1,,,,,,,,,1,,,73,46
55440,note_on,50,0,3,,,,,,,,,3,,,68,46
55440,note_on,50,0,4,,,,,,,,,4,,,64,46
55440,note_off,480,0,1,,,,,,,,,1,,,72,0
55620,set_tempo,1860,1,0,,,,,,408163,,,,,,,
55630,note_off,190,0,3,,,,,,,,,3,,,68,0
55630,note_off,190,0,4,,,,,,,,,4,,,64,0
55680,note_on,50,0,3,,,,,,,,,3,,,66,45
55680,set_tempo,60,1,0,,,,,,402684,,,,,,,
55680,note_on,50,0,4,,,,,,,,,4,,,62,45
55870,note_off,190,0,3,,,,,,,,,3,,,66,0
55870,note_off,190,0,4,,,,,,,,,4,,,62,0
55920,note_on,50,0,4,,,,,,,,,4,,,62,45
55920,note_off,480,0,1,,,,,,,,,1,,,73,0
55920,note_on,50,0,3,,,,,,,,,3,,,66,45
55920,note_on,0,0,1,,,,,,,,,1,,,70,48
56110,note_off,190,0,4,,,,,,,,,4,,,62,0
56110,note_off,190,0,3,,,,,,,,,3,,,66,0
56160,note_on,50,0,4,,,,,,,,,4,,,62,44
56160,note_on,50,0,3,,,,,,,,,3,,,66,44
56350,note_off,190,0,4,,,,,,,,,4,,,62,0
56350,note_off,190,0,3,,,,,,,,,3,,,66,0
56400,note_on,0,0,1,,,,,,,,,1,,,71,43
56400,note_on,50,0,4,,,,,,,,,4,,,62,43
56400,note_on,50,0,3,,,,,,,,,3,,,66,43
56400,note_off,480,0,1,,,,,,,,,1,,,70,0
56590,note_off,190,0,3,,,,,,,,,3,,,66,0
56590,note_off,190,0,4,,,,,,,,,4,,,62,0
56640,note_on,50,0,3,,,,,,,,,3,,,64,42
56640,note_on,50,0,4,,,,,,,,,4,,,61,42
56760,note_on,360,0,1,,,,,,,,,1,,,68,42
56765,note_off,5,0,1,,,,,,,,,1,,,71,0
56880,note_off,115,0,1,,,,,,,,,1,,,68,0
56880,note_on,0,0,1,,,,,,,,,1,,,71,42
57000,note_off,120,0,1,,,,,,,,,1,,,71,0
57000,note_on,0,0,1,,,,,,,,,1,,,69,41
57120,note_off,480,0,4,,,,,,,,,4,,,61,0
57120,note_off,120,0,1,,,,,,,,,1,,,69,0
57120,note_on,0,0,1,,,,,,,,,1,,,78,41
57120,note_off,480,0,3,,,,,,,,,3,,,64,0
57240,note_off,120,0,1,,,,,,,,,1,,,78,0
57240,note_on,0,0,1,,,,,,,,,1,,,76,41
57360,note_off,120,0,1,,,,,,,,,1,,,76,0
57360,note_on,0,0,1,,,,,,,,,1,,,74,40
57480,note_on,0,0,1,,,,,,,,,1,,,73,40
57480,note_off,120,0,1,,,,,,,,,1,,,74,0
57540,set_tempo,1860,1,0,,,,,,402684,,,,,,,
57580,note_off,100,0,1,,,,,,,,,1,,,73,0
57600,set_tempo,60,1,0,,,,,,400000,,,,,,,
57600,note_on,15935,0,5,,,,,,,,,5,,,62,60
57600,note_on,0,0,5,,,,,,,,,5,,,50,60
57600,note_on,20,0,1,,,,,,,,,1,,,71,60
57720,note_on,16880,0,2,,,,,,,,,2,,,81,60
57779,note_off,179,0,1,,,,,,,,,1,,,71,0
57790,note_off,190,0,5,,,,,,,,,5,,,50,0
57790,note_off,0,0,5,,,,,,,,,5,,,62,0
57815,note_off,95,0,2,,,,,,,,,2,,,81,0
57840,note_on,50,0,5,,,,,,,,,5,,,49,60
57840,note_on,61,0,1,,,,,,,,,1,,,70,60
57840,note_on,0,0,5,,,,,,,,,5,,,61,60
57960,note_on,145,0,2,,,,,,,,,2,,,81,60
58019,note_off,179,0,1,,,,,,,,,1,,,70,0
58030,note_off,190,0,5,,,,,,,,,5,,,61,0
58030,note_off,0,0,5,,,,,,,,,5,,,49,0
58055,note_off,95,0,2,,,,,,,,,2,,,81,0
58080,note_on,61,0,1,,,,,,,,,1,,,71,60
58080,note_on,0,0,5,,,,,,,,,5,,,62,60
58080,note_on,50,0,5,,,,,,,,,5,,,50,60
58200,note_on,145,0,2,,,,,,,,,2,,,81,61
58259,note_off,179,0,1,,,,,,,,,1,,,71,0
58270,note_off,0,0,5,,,,,,,,,5,,,50,0
58270,note_off,190,0,5,,,,,,,,,5,,,62,0
58295,note_off,95,0,2,,,,,,,,,2,,,81,0
58320,note_on,0,0,5,,,,,,,,,5,,,61,61
58320,note_on,61,0,1,,,,,,,,,1,,,70,61
58320,note_on,50,0,5,,,,,,,,,5,,,49,61
58440,note_on,145,0,2,,,,,,,,,2,,,81,61
58499,note_off,179,0,1,,,,,,,,,1,,,70,0
58510,note_off,0,0,5,,,,,,,,,5,,,49,0
58510,note_off,190,0,5,,,,,,,,,5,,,61,0
58535,note_off,95,0,2,,,,,,,,,2,,,81,0
58560,note_on,50,0,5,,,,,,,,,5,,,62,61
58560,note_on,0,0,5,,,,,,,,,5,,,50,61
58560,note_on,61,0,1,,,,,,,,,1,,,71,61
58680,note_off,120,0,1,,,,,,,,,1,,,71,0
58680,note_on,0,0,1,,,,,,,,,1,,,74,62
58800,note_on,0,0,1,,,,,,,,,1,,,78,62
58800,note_off,120,0,1,,,,,,,,,1,,,74,0
58920,note_on,0,0,1,,,,,,,,,1,,,76,62
58920,note_off,120,0,1,,,,,,,,,1,,,78,0
59040,note_off,120,0,1,,,,,,,,,1,,,76,0
59040,note_on,0,0,1,,,,,,,,,1,,,79,62
59040,note_off,480,0,5,,,,,,,,,5,,,50,0
59040,note_off,0,0,5,,,,,,,,,5,,,62,0
59160,note_off,120,0,1,,,,,,,,,1,,,79,0
59160,note_on,0,0,1,,,,,,,,,1,,,78,62
59280,note_off,120,0,1,,,,,,,,,1,,,78,0
59280,note_on,0,0,1,,,,,,,,,1,,,76,63
59400,note_off,120,0,1,,,,,,,,,1,,,76,0
59400,note_on,0,0,1,,,,,,,,,1,,,74,63
59460,set_tempo,1860,1,0,,,,,,402684,,,,,,,
59500,note_off,100,0,1,,,,,,,,,1,,,74,0
59520,note_on,20,0,1,,,,,,,,,1,,,73,63
59520,note_on,480,0,5,,,,,,,,,5,,,52,63
59520,note_on,0,0,5,,,,,,,,,5,,,64,63
59520,set_tempo,60,1,0,,,,,,400000,,,,,,,
59640,note_on,1105,0,2,,,,,,,,,2,,,81,63
59687,note_off,167,0,1,,,,,,,,,1,,,73,0
59710,note_off,0,0,5,,,,,,,,,5,,,52,0
59710,note_off,190,0,5,,,,,,,,,5,,,64,0
59735,note_off,95,0,2,,,,,,,,,2,,,81,0
59760,note_on,0,0,5,,,,,,,,,5,,,63,63
59760,note_on,50,0,5,,,,,,,,,5,,,51,63
59760,note_on,73,0,1,,,,,,,,,1,,,72,63
59880,note_on,145,0,2,,,,,,,,,2,,,81,64
59927,note_off,167,0,1,,,,,,,,,1,,,72,0
59950,note_off,0,0,5,,,,,,,,,5,,,51,0
59950,note_off,190,0,5,,,,,,,,,5,,,63,0
59975,note_off,95,0,2,,,,,,,,,2,,,81,0
60000,note_on,0,0,5,,,,,,,,,5,,,52,64
60000,note_on,50,0,5,,,,,,,,,5,,,64,64
60000,note_on,73,0,1,,,,,,,,,1,,,73,64
60120,note_on,145,0,2,,,,,,,,,2,,,81,64
60167,note_off,167,0,1,,,,,,,,,1,,,73,0
60190,note_off,0,0,5,,,,,,,,,5,,,64,0
60190,note_off,190,0,5,,,,,,,,,5,,,52,0
60215,note_off,95,0,2,,,,,,,,,2,,,81,0
60240,note_on,73,0,1,,,,,,,,,1,,,72,64
60240,note_on,50,0,5,,,,,,,,,5,,,63,64
60240,note_on,0,0,5,,,,,,,,,5,,,51,64
60360,note_on,145,0,2,,,,,,,,,2,,,81,64
60407,note_off,167,0,1,,,,,,,,,1,,,72,0
60430,note_off,190,0,5,,,,,,,,,5,,,51,0
60430,note_off,0,0,5,,,,,,,,,5,,,63,0
60455,note_off,95,0,2,,,,,,,,,2,,,81,0
60480,note_on,50,0,5,,,,,,,,,5,,,52,65
60480,note_on,0,0,5,,,,,,,,,5,,,64,65
60480,note_on,73,0,1,,,,,,,,,1,,,73,65
60600,note_on,0,0,1,,,,,,,,,1,,,76,65
60600,note_off,120,0,1,,,,,,,,,1,,,73,0
60720,note_on,0,0,1,,,,,,,,,1,,,79,65
60720,note_off,120,0,1,,,,,,,,,1,,,76,0
60840,note_off,120,0,1,,,,,,,,,1,,,79,0
60840,note_on,0,0,1,,,,,,,,,1,,,78,65
60960,note_off,0,0,5,,,,,,,,,5,,,52,0
60960,note_off,480,0,5,,,,,,,,,5,,,64,0
60960,note_on,0,0,1,,,,,,,,,1,,,81,66
60960,note_off,120,0,1,,,,,,,,,1,,,78,0
61080,note_off,120,0,1,,,,,,,,,1,,,81,0
61080,note_on,0,0,1,,,,,,,,,1,,,79,66
61200,note_on,0,0,1,,,,,,,,,1,,,78,66
61200,note_off,120,0,1,,,,,,,,,1,,,79,0
61320,note_on,0,0,1,,,,,,,,,1,,,76,66
61320,note_off,120,0,1,,,,,,,,,1,,,78,0
61380,set_tempo,1860,1,0,,,,,,402684,,,,,,,
61420,note_off,100,0,1,,,,,,,,,1,,,76,0
61440,set_tempo,60,1,0,,,,,,400000,,,,,,,
61440,note_on,20,0,1,,,,,,,,,1,,,74,66
61440,note_on,480,0,5,,,,,,,,,5,,,54,66
61440,note_on,0,0,5,,,,,,,,,5,,,66,66
61560,note_on,1105,0,2,,,,,,,,,2,,,81,67
61583,note_off,143,0,1,,,,,,,,,1,,,74,0
61630,note_off,190,0,5,,,,,,,,,5,,,66,0
61630,note_off,0,0,5,,,,,,,,,5,,,54,0
61655,note_off,95,0,2,,,,,,,,,2,,,81,0
61680,note_on,97,0,1,,,,,,,,,1,,,73,67
61680,note_on,0,0,5,,,,,,,,,5,,,65,67
61680,note_on,50,0,5,,,,,,,,,5,,,53,67
61800,note_on,145,0,2,,,,,,,,,2,,,81,67
61823,note_off,143,0,1,,,,,,,,,1,,,73,0
61870,note_off,190,0,5,,,,,,,,,5,,,65,0
61870,note_off,0,0,5,,,,,,,,,5,,,53,0
61895,note_off,95,0,2,,,,,,,,,2,,,81,0
61920,note_on,50,0,5,,,,,,,,,5,,,54,67
61920,note_on,0,0,5,,,,,,,,,5,,,66,67
61920,note_on,97,0,1,,,,,,,,,1,,,74,67
62040,note_on,145,0,2,,,,,,,,,2,,,81,67
62063,note_off,143,0,1,,,,,,,,,1,,,74,0
62110,note_off,0,0,5,,,,,,,,,5,,,54,0
62110,note_off,190,0,5,,,,,,,,,5,,,66,0
62135,note_off,95,0,2,,,,,,,,,2,,,81,0
62160,note_on,97,0,1,,,,,,,,,1,,,73,68
62160,note_on,0,0,5,,,,,,,,,5,,,65,68
62160,note_on,50,0,5,,,,,,,,,5,,,53,68
62280,note_on,145,0,2,,,,,,,,,2,,,81,68
62303,note_off,143,0,1,,,,,,,,,1,,,73,0
62350,note_off,0,0,5,,,,,,,,,5,,,53,0
62350,note_off,190,0,5,,,,,,,,,5,,,65,0
62375,note_off,95,0,2,,,,,,,,,2,,,81,0
62400,note_on,97,0,1,,,,,,,,,1,,,74,68
62400,note_on,50,0,5,,,,,,,,,5,,,54,68
62400,note_on,0,0,5,,,,,,,,,5,,,66,68
62520,note_off,120,0,1,,,,,,,,,1,,,74,0
62520,note_on,0,0,1,,,,,,,,,1,,,78,68
62640,note_off,120,0,1,,,,,,,,,1,,,78,0
62640,note_on,0,0,1,,,,,,,,,1,,,81,69
62760,note_on,0,0,1,,,,,,,,,1,,,80,69
62760,note_off,120,0,1,,,,,,,,,1,,,81,0
62880,note_on,0,0,1,,,,,,,,,1,,,83,69
62880,note_off,120,0,1,,,,,,,,,1,,,80,0
62880,note_off,0,0,5,,,,,,,,,5,,,54,0
62880,note_off,480,0,5,,,,,,,,,5,,,66,0
63000,note_on,0,0,1,,,,,,,,,1,,,81,69
63000,note_off,120,0,1,,,,,,,,,1,,,83,0
63120,note_on,0,0,1,,,,,,,,,1,,,80,69
63120,note_off,120,0,1,,,,,,,,,1,,,81,0
63240,note_off,120,0,1,,,,,,,,,1,,,80,0
63240,note_on,0,0,1,,,,,,,,,1,,,81,70
63320,set_tempo,1880,1,0,,,,,,402684,,,,,,,
63335,note_off,95,0,1,,,,,,,,,1,,,81,0
63360,note_on,25,0,1,,,,,,,,,1,,,75,70
63360,note_on,0,0,4,,,,,,,,,4,,,53,70
63360,control_change,6240,0,4,,,,,,,64,127,4,,,,
63360,control_change,6240,0,3,,,,,,,64,127,3,,,,
63360,set_tempo,40,1,0,,,,,,400000,,,,,,,
63480,note_on,120,0,3,,,,,,,,,3,,,57,70
63575,note_off,95,0,3,,,,,,,,,3,,,57,0
63600,note_on,25,0,3,,,,,,,,,3,,,60,70
63600,note_off,240,0,1,,,,,,,,,1,,,75,0
63600,note_on,0,0,1,,,,,,,,,1,,,81,71
63695,note_off,335,0,4,,,,,,,,,4,,,53,0
63695,note_off,95,0,3,,,,,,,,,3,,,60,0
63720,note_on,25,0,3,,,,,,,,,3,,,63,70
63780,control_change,60,0,3,,,,,,,64,0,3,,,,
63780,control_change,85,0,4,,,,,,,64,0,4,,,,
63815,note_off,35,0,3,,,,,,,,,3,,,63,0
63840,note_on,0,0,4,,,,,,,,,4,,,53,71
63840,control_change,25,0,3,,,,,,,64,127,3,,,,
63840,control_change,60,0,4,,,,,,,64,127,4,,,,
63960,note_on,120,0,3,,,,,,,,,3,,,57,71
64055,note_off,95,0,3,,,,,,,,,3,,,57,0
64080,note_on,0,0,1,,,,,,,,,1,,,84,75
64080,note_off,480,0,1,,,,,,,,,1,,,81,0
64080,note_on,25,0,3,,,,,,,,,3,,,60,71
64175,note_off,335,0,4,,,,,,,,,4,,,53,0
64175,note_off,95,0,3,,,,,,,,,3,,,60,0
64200,note_on,25,0,3,,,,,,,,,3,,,63,71
64260,control_change,60,0,3,,,,,,,64,0,3,,,,
64260,control_change,85,0,4,,,,,,,64,0,4,,,,
64295,note_off,35,0,3,,,,,,,,,3,,,63,0
64320,note_on,0,0,4,,,,,,,,,4,,,53,72
64320,control_change,25,0,3,,,,,,,64,127,3,,,,
64320,control_change,60,0,4,,,,,,,64,127,4,,,,
64440,note_on,120,0,3,,,,,,,,,3,,,57,72
64535,note_off,95,0,3,,,,,,,,,3,,,57,0
64560,note_on,25,0,3,,,,,,,,,3,,,60,72
64560,note_on,0,0,1,,,,,,,,,1,,,83,73
64560,note_off,480,0,1,,,,,,,,,1,,,84,0
64655,note_off,335,0,4,,,,,,,,,4,,,53,0
64655,note_off,95,0,3,,,,,,,,,3,,,60,0
64680,note_on,25,0,3,,,,,,,,,3,,,63,72
64740,control_change,85,0,4,,,,,,,64,0,4,,,,
64740,control_change,60,0,3,,,,,,,64,0,3,,,,
64775,note_off,35,0,3,,,,,,,,,3,,,63,0
64800,control_change,25,0,3,,,,,,,64,127,3,,,,
64800,note_on,0,0,4,,,,,,,,,4,,,53,72
64800,control_change,60,0,4,,,,,,,64,127,4,,,,
64920,note_on,120,0,3,,,,,,,,,3,,,57,73
65015,note_off,95,0,3,,,,,,,,,3,,,57,0
65040,note_on,25,0,3,,,,,,,,,3,,,60,73
65040,note_off,480,0,1,,,,,,,,,1,,,83,0
65040,note_on,0,0,1,,,,,,,,,1,,,81,72
65135,note_off,95,0,3,,,,,,,,,3,,,60,0
65135,note_off,335,0,4,,,,,,,,,4,,,53,0
65160,note_on,25,0,3,,,,,,,,,3,,,63,73
65220,control_change,85,0,4,,,,,,,64,0,4,,,,
65220,control_change,60,0,3,,,,,,,64,0,3,,,,
65240,set_tempo,1880,1,0,,,,,,408163,,,,,,,
65255,note_off,35,0,3,,,,,,,,,3,,,63,0
65280,note_on,2400,0,5,,,,,,,,,5,,,52,73
65280,note_on,0,0,1,,,,,,,,,1,,,80,71
65280,note_off,240,0,1,,,,,,,,,1,,,81,0
65435,note_off,155,0,5,,,,,,,,,5,,,52,0
65520,note_on,85,0,5,,,,,,,,,5,,,64,55
65675,note_off,155,0,5,,,,,,,,,5,,,64,0
65760,note_on,540,0,4,,,,,,,,,4,,,68,55
65760,note_on,85,0,5,,,,,,,,,5,,,64,55
65760,note_off,480,0,1,,,,,,,,,1,,,80,0
65950,note_off,190,0,5,,,,,,,,,5,,,64,0
65950,note_off,190,0,4,,,,,,,,,4,,,68,0
66000,note_on,50,0,4,,,,,,,,,4,,,68,55
66000,note_on,240,0,1,,,,,,,,,1,,,76,55
66000,note_on,50,0,5,,,,,,,,,5,,,64,55
66155,note_off,155,0,1,,,,,,,,,1,,,76,0
66190,note_off,190,0,5,,,,,,,,,5,,,64,0
66190,note_off,190,0,4,,,,,,,,,4,,,68,0
66240,note_on,50,0,5,,,,,,,,,5,,,64,55
66240,note_on,85,0,1,,,,,,,,,1,,,77,58
66240,note_on,3865,0,2,,,,,,,,,2,,,73,58
66240,note_on,50,0,4,,,,,,,,,4,,,70,55
66430,note_off,190,0,5,,,,,,,,,5,,,64,0
66430,note_off,190,0,4,,,,,,,,,4,,,70,0
66480,note_off,240,0,1,,,,,,,,,1,,,77,0
66480,note_on,50,0,4,,,,,,,,,4,,,70,54
66480,note_on,0,0,1,,,,,,,,,1,,,78,54
66480,note_on,50,0,5,,,,,,,,,5,,,64,54
66635,note_off,155,0,1,,,,,,,,,1,,,78,0
66670,note_off,190,0,5,,,,,,,,,5,,,64,0
66670,note_off,190,0,4,,,,,,,,,4,,,70,0
66720,note_on,50,0,5,,,,,,,,,5,,,64,54
66720,note_on,50,0,4,,,,,,,,,4,,,71,54
66720,note_on,0,0,2,,,,,,,,,2,,,74,54
66720,note_off,480,0,2,,,,,,,,,2,,,73,0
66910,note_off,190,0,5,,,,,,,,,5,,,64,0
66910,note_off,190,0,4,,,,,,,,,4,,,71,0
66960,note_on,50,0,4,,,,,,,,,4,,,71,54
66960,note_on,325,0,1,,,,,,,,,1,,,78,54
66960,note_on,50,0,5,,,,,,,,,5,,,64,54
67115,note_off,155,0,1,,,,,,,,,1,,,78,0
67150,note_off,190,0,4,,,,,,,,,4,,,71,0
67150,note_off,190,0,5,,,,,,,,,5,,,64,0
67200,note_on,85,0,1,,,,,,,,,1,,,75,59
67200,note_on,50,0,4,,,,,,,,,4,,,68,54
67200,note_on,50,0,5,,,,,,,,,5,,,64,54
67390,note_off,190,0,4,,,,,,,,,4,,,68,0
67390,note_off,190,0,5,,,,,,,,,5,,,64,0
67440,note_on,50,0,5,,,,,,,,,5,,,64,53
67440,note_on,0,0,1,,,,,,,,,1,,,76,53
67440,note_on,50,0,4,,,,,,,,,4,,,68,53
67440,note_off,240,0,1,,,,,,,,,1,,,75,0
67595,note_off,155,0,1,,,,,,,,,1,,,76,0
67630,note_off,190,0,4,,,,,,,,,4,,,68,0
67630,note_off,190,0,5,,,,,,,,,5,,,64,0
67680,note_on,50,0,5,,,,,,,,,5,,,64,53
67680,note_on,50,0,4,,,,,,,,,4,,,69,53
67680,note_off,960,0,2,,,,,,,,,2,,,74,0
67680,note_on,0,0,2,,,,,,,,,2,,,73,53
67870,note_off,190,0,4,,,,,,,,,4,,,69,0
67870,note_off,190,0,5,,,,,,,,,5,,,64,0
67920,note_on,50,0,4,,,,,,,,,4,,,69,53
67920,note_on,50,0,5,,,,,,,,,5,,,64,53
67920,note_on,325,0,1,,,,,,,,,1,,,76,53
68075,note_off,155,0,1,,,,,,,,,1,,,76,0
68110,note_off,190,0,5,,,,,,,,,5,,,64,0
68110,note_off,190,0,4,,,,,,,,,4,,,69,0
68160,note_on,85,0,1,,,,,,,,,1,,,81,58
68160,note_on,50,0,4,,,,,,,,,4,,,66,53
68160,note_on,50,0,5,,,,,,,,,5,,,64,53
68350,note_off,190,0,4,,,,,,,,,4,,,66,0
68350,note_off,190,0,5,,,,,,,,,5,,,64,0
68400,note_on,50,0,5,,,,,,,,,5,,,64,52
68400,note_on,0,0,1,,,,,,,,,1,,,74,52
68400,note_off,240,0,1,,,,,,,,,1,,,81,0
68400,note_on,50,0,4,,,,,,,,,4,,,66,52
68555,note_off,155,0,1,,,,,,,,,1,,,74,0
68590,note_off,190,0,4,,,,,,,,,4,,,66,0
68590,note_off,190,0,5,,,,,,,,,5,,,64,0
68640,note_on,0,0,2,,,,,,,,,2,,,71,52
68640,note_off,960,0,2,,,,,,,,,2,,,73,0
68640,note_on,50,0,4,,,,,,,,,4,,,68,52
68640,note_on,50,0,5,,,,,,,,,5,,,64,52
68830,note_off,190,0,5,,,,,,,,,5,,,64,0
68830,note_off,190,0,4,,,,,,,,,4,,,68,0
68880,note_on,50,0,5,,,,,,,,,5,,,64,52
68880,note_on,50,0,4,,,,,,,,,4,,,68,52
68880,note_on,325,0,1,,,,,,,,,1,,,74,52
69035,note_off,155,0,1,,,,,,,,,1,,,74,0
69070,note_off,190,0,5,,,,,,,,,5,,,64,0
69070,note_off,190,0,4,,,,,,,,,4,,,68,0
69120,note_on,85,0,1,,,,,,,,,1,,,72,55
69120,note_on,50,0,5,,,,,,,,,5,,,64,52
69120,note_on,50,0,4,,,,,,,,,4,,,69,52
69120,note_off,480,0,2,,,,,,,,,2,,,71,0
69310,note_off,190,0,4,,,,,,,,,4,,,69,0
69310,note_off,190,0,5,,,,,,,,,5,,,64,0
69360,note_on,0,0,1,,,,,,,,,1,,,73,51
69360,note_on,50,0,5,,,,,,,,,5,,,64,51
69360,note_on,50,0,4,,,,,,,,,4,,,69,51
69360,note_off,240,0,1,,,,,,,,,1,,,72,0
69515,note_off,155,0,1,,,,,,,,,1,,,73,0
69550,note_off,190,0,5,,,,,,,,,5,,,64,0
69550,note_off,190,0,4,,,,,,,,,4,,,69,0
69600,note_on,50,0,4,,,,,,,,,4,,,73,51
69600,note_on,50,0,5,,,,,,,,,5,,,64,51
69790,note_off,190,0,4,,,,,,,,,4,,,73,0
69790,note_off,190,0,5,,,,,,,,,5,,,64,0
69840,note_on,50,0,4,,,,,,,,,4,,,73,51
69840,note_on,50,0,5,,,,,,,,,5,,,64,51
69840,note_on,325,0,1,,,,,,,,,1,,,76,51
69995,note_off,155,0,1,,,,,,,,,1,,,76,0
70020,set_tempo,4780,1,0,,,,,,413793,,,,,,,
70030,note_off,190,0,4,,,,,,,,,4,,,73,0
70030,note_off,190,0,5,,,,,,,,,5,,,64,0
70080,note_on,85,0,1,,,,,,,,,1,,,78,51
70080,note_on,50,0,4,,,,,,,,,4,,,74,51
70080,note_on,50,0,5,,,,,,,,,5,,,64,51
70080,set_tempo,60,1,0,,,,,,402684,,,,,,,
70200,note_off,120,0,1,,,,,,,,,1,,,78,0
70200,note_on,0,0,1,,,,,,,,,1,,,80,50
70320,note_on,0,0,1,,,,,,,,,1,,,81,50
70320,note_off,120,0,1,,,,,,,,,1,,,80,0
70440,note_off,120,0,1,,,,,,,,,1,,,81,0
70440,note_on,0,0,1,,,,,,,,,1,,,80,50
70560,note_off,120,0,1,,,,,,,,,1,,,80,0
70560,note_on,0,0,1,,,,,,,,,1,,,83,50
70680,note_off,120,0,1,,,,,,,,,1,,,83,0
70680,note_on,0,0,1,,,,,,,,,1,,,81,50
70800,note_off,120,0,1,,,,,,,,,1,,,81,0
70800,note_on,0,0,1,,,,,,,,,1,,,80,50
70850,note_off,770,0,5,,,,,,,,,5,,,64,0
70850,note_off,770,0,4,,,,,,,,,4,,,74,0
70920,note_on,0,0,1,,,,,,,,,1,,,78,50
70920,note_off,120,0,1,,,,,,,,,1,,,80,0
70980,set_tempo,900,1,0,,,,,,408163,,,,,,,
71040,set_tempo,60,1,0,,,,,,402684,,,,,,,
71040,note_on,190,0,5,,,,,,,,,5,,,64,50
71040,note_off,120,0,1,,,,,,,,,1,,,78,0
71040,note_on,190,0,4,,,,,,,,,4,,,73,50
71040,note_on,0,0,1,,,,,,,,,1,,,76,50
71160,note_off,120,0,1,,,,,,,,,1,,,76,0
71160,note_on,0,0,1,,,,,,,,,1,,,81,49
71280,note_off,120,0,1,,,,,,,,,1,,,81,0
71280,note_on,0,0,1,,,,,,,,,1,,,85,49
71400,note_off,120,0,1,,,,,,,,,1,,,85,0
71400,note_on,0,0,1,,,,,,,,,1,,,80,49
71520,note_off,120,0,1,,,,,,,,,1,,,80,0
71520,note_on,0,0,4,,,,,,,,,4,,,69,49
71520,note_off,480,0,4,,,,,,,,,4,,,73,0
71520,note_on,0,0,1,,,,,,,,,1,,,81,49
71640,note_off,120,0,1,,,,,,,,,1,,,81,0
71640,note_on,0,0,1,,,,,,,,,1,,,76,49
71760,note_on,0,0,1,,,,,,,,,1,,,78,49
71760,note_off,120,0,1,,,,,,,,,1,,,76,0
71880,note_on,0,0,1,,,,,,,,,1,,,73,49
71880,note_off,120,0,1,,,,,,,,,1,,,78,0
72000,note_off,120,0,1,,,,,,,,,1,,,73,0
72000,note_on,0,0,1,,,,,,,,,1,,,74,49
72000,note_on,0,0,4,,,,,,,,,4,,,71,49
72000,note_off,480,0,4,,,,,,,,,4,,,69,0
72120,note_off,120,0,1,,,,,,,,,1,,,74,0
72120,note_on,0,0,1,,,,,,,,,1,,,76,48
72240,note_off,120,0,1,,,,,,,,,1,,,76,0
72240,note_on,0,0,1,,,,,,,,,1,,,78,48
72360,note_off,120,0,1,,,,,,,,,1,,,78,0
72360,note_on,0,0,1,,,,,,,,,1,,,76,48
72480,note_off,480,0,4,,,,,,,,,4,,,71,0
72480,note_on,0,0,4,,,,,,,,,4,,,68,48
72480,note_on,0,0,1,,,,,,,,,1,,,80,48
72480,note_off,120,0,1,,,,,,,,,1,,,76,0
72575,note_off,1535,0,5,,,,,,,,,5,,,64,0
72600,note_off,120,0,1,,,,,,,,,1,,,80,0
72600,note_on,0,0,1,,,,,,,,,1,,,78,48
72720,note_off,120,0,1,,,,,,,,,1,,,78,0
72720,note_on,0,0,1,,,,,,,,,1,,,76,48
72840,note_off,120,0,1,,,,,,,,,1,,,76,0
72840,note_on,0,0,1,,,,,,,,,1,,,74,48
72920,set_tempo,1880,1,0,,,,,,408163,,,,,,,
72945,note_off,105,0,1,,,,,,,,,1,,,74,0
72960,set_tempo,40,1,0,,,,,,400000,,,,,,,
72960,note_off,480,0,4,,,,,,,,,4,,,68,0
72960,note_on,15,0,1,,,,,,,,,1,,,73,64
73055,note_off,95,0,1,,,,,,,,,1,,,73,0
73080,note_on,25,0,1,,,,,,,,,1,,,76,64
73175,note_off,95,0,1,,,,,,,,,1,,,76,0
73200,note_on,25,0,1,,,,,,,,,1,,,81,64
73295,note_off,95,0,1,,,,,,,,,1,,,81,0
73320,note_on,25,0,1,,,,,,,,,1,,,80,65
73415,note_off,95,0,1,,,,,,,,,1,,,80,0
73440,note_on,25,0,1,,,,,,,,,1,,,81,65
73535,note_off,95,0,1,,,,,,,,,1,,,81,0
73560,note_on,25,0,1,,,,,,,,,1,,,76,65
73655,note_off,95,0,1,,,,,,,,,1,,,76,0
73680,note_on,25,0,1,,,,,,,,,1,,,73,66
73680,note_on,1105,0,5,,,,,,,,,5,,,33,66
73680,note_on,0,0,5,,,,,,,,,5,,,45,66
73775,note_off,95,0,1,,,,,,,,,1,,,73,0
73800,note_on,25,0,1,,,,,,,,,1,,,69,66
73835,note_off,155,0,5,,,,,,,,,5,,,45,0
73835,note_off,0,0,5,,,,,,,,,5,,,33,0
73895,note_off,95,0,1,,,,,,,,,1,,,69,0
73920,note_on,85,0,5,,,,,,,,,5,,,37,66
73920,note_on,25,0,1,,,,,,,,,1,,,81,66
73920,note_on,0,0,5,,,,,,,,,5,,,49,66
74015,note_off,95,0,1,,,,,,,,,1,,,81,0
74040,note_on,25,0,1,,,,,,,,,1,,,76,67
74075,note_off,155,0,5,,,,,,,,,5,,,49,0
74075,note_off,0,0,5,,,,,,,,,5,,,37,0
74135,note_off,95,0,1,,,,,,,,,1,,,76,0
74160,note_on,85,0,5,,,,,,,,,5,,,40,67
74160,note_on,0,0,5,,,,,,,,,5,,,52,67
74160,note_on,25,0,1,,,,,,,,,1,,,73,67
74255,note_off,95,0,1,,,,,,,,,1,,,73,0
74280,note_on,25,0,1,,,,,,,,,1,,,69,68
74315,note_off,0,0,5,,,,,,,,,5,,,40,0
74315,note_off,155,0,5,,,,,,,,,5,,,52,0
74375,note_off,95,0,1,,,,,,,,,1,,,69,0
74400,note_on,85,0,5,,,,,,,,,5,,,57,68
74400,note_on,0,0,5,,,,,,,,,5,,,45,68
74400,note_on,25,0,1,,,,,,,,,1,,,81,68
74495,note_off,95,0,1,,,,,,,,,1,,,81,0
74520,note_on,25,0,1,,,,,,,,,1,,,76,68
74615,note_off,95,0,1,,,,,,,,,1,,,76,0
74640,note_on,25,0,1,,,,,,,,,1,,,73,69
74735,note_off,95,0,1,,,,,,,,,1,,,73,0
74760,note_on,25,0,1,,,,,,,,,1,,,69,69
74820,set_tempo,1860,1,0,,,,,,402684,,,,,,,
74855,note_off,95,0,1,,,,,,,,,1,,,69,0
74880,note_off,0,0,5,,,,,,,,,5,,,57,0
74880,note_off,480,0,5,,,,,,,,,5,,,45,0
74880,note_on,25,0,1,,,,,,,,,1,,,78,69
74880,set_tempo,60,1,0,,,,,,400000,,,,,,,
74975,note_off,95,0,1,,,,,,,,,1,,,78,0
75000,note_on,25,0,1,,,,,,,,,1,,,80,70
75095,note_off,95,0,1,,,,,,,,,1,,,80,0
75120,note_on,25,0,1,,,,,,,,,1,,,81,70
75215,note_off,95,0,1,,,,,,,,,1,,,81,0
75240,note_on,25,0,1,,,,,,,,,1,,,80,70
75335,note_off,95,0,1,,,,,,,,,1,,,80,0
75360,note_on,25,0,1,,,,,,,,,1,,,81,71
75455,note_off,95,0,1,,,,,,,,,1,,,81,0
75480,note_on,25,0,1,,,,,,,,,1,,,78,71
75575,note_off,95,0,1,,,,,,,,,1,,,78,0
75600,note_on,0,0,5,,,,,,,,,5,,,50,72
75600,note_on,720,0,5,,,,,,,,,5,,,38,72
75600,note_on,25,0,1,,,,,,,,,1,,,74,72
75695,note_off,95,0,1,,,,,,,,,1,,,74,0
75720,note_on,25,0,1,,,,,,,,,1,,,69,72
75755,note_off,0,0,5,,,,,,,,,5,,,38,0
75755,note_off,155,0,5,,,,,,,,,5,,,50,0
75815,note_off,95,0,1,,,,,,,,,1,,,69,0
75840,note_on,85,0,5,,,,,,,,,5,,,54,72
75840,note_on,25,0,1,,,,,,,,,1,,,81,72
75840,note_on,0,0,5,,,,,,,,,5,,,42,72
75935,note_off,95,0,1,,,,,,,,,1,,,81,0
75960,note_on,25,0,1,,,,,,,,,1,,,78,73
75995,note_off,155,0,5,,,,,,,,,5,,,42,0
75995,note_off,0,0,5,,,,,,,,,5,,,54,0
76055,note_off,95,0,1,,,,,,,,,1,,,78,0
76080,note_on,85,0,5,,,,,,,,,5,,,45,73
76080,note_on,0,0,5,,,,,,,,,5,,,57,73
76080,note_on,25,0,1,,,,,,,,,1,,,74,73
76175,note_off,95,0,1,,,,,,,,,1,,,74,0
76200,note_on,25,0,1,,,,,,,,,1,,,69,73
76235,note_off,155,0,5,,,,,,,,,5,,,57,0
76235,note_off,0,0,5,,,,,,,,,5,,,45,0
76295,note_off,95,0,1,,,,,,,,,1,,,69,0
76320,note_on,25,0,1,,,,,,,,,1,,,81,74
76320,note_on,85,0,5,,,,,,,,,5,,,50,74
76320,note_on,0,0,5,,,,,,,,,5,,,62,74
76415,note_off,95,0,1,,,,,,,,,1,,,81,0
76440,note_on,25,0,1,,,,,,,,,1,,,78,74
76535,note_off,95,0,1,,,,,,,,,1,,,78,0
76560,note_on,25,0,1,,,,,,,,,1,,,74,74
76655,note_off,95,0,1,,,,,,,,,1,,,74,0
76680,note_on,25,0,1,,,,,,,,,1,,,69,75
76760,set_tempo,1880,1,0,,,,,,402684,,,,,,,
76775,note_off,95,0,1,,,,,,,,,1,,,69,0
76800,note_off,480,0,5,,,,,,,,,5,,,62,0
76800,note_on,25,0,1,,,,,,,,,1,,,76,77
76800,note_on,7680,0,2,,,,,,,,,2,,,73,77
76800,note_off,0,0,5,,,,,,,,,5,,,50,0
76800,note_on,0,0,5,,,,,,,,,5,,,52,75
76800,note_on,0,0,5,,,,,,,,,5,,,64,75
76990,note_off,0,0,5,,,,,,,,,5,,,52,0
76990,note_off,190,0,5,,,,,,,,,5,,,64,0
77040,note_on,0,0,5,,,,,,,,,5,,,64,74
77040,note_on,50,0,5,,,,,,,,,5,,,52,74
77160,note_on,0,0,1,,,,,,,,,1,,,78,71
77160,note_off,360,0,1,,,,,,,,,1,,,76,0
77160,note_on,0,0,2,,,,,,,,,2,,,74,71
77160,note_off,360,0,2,,,,,,,,,2,,,73,0
77220,note_on,0,0,1,,,,,,,,,1,,,74,70
77220,note_off,60,0,2,,,,,,,,,2,,,74,0
77220,note_on,0,0,2,,,,,,,,,2,,,71,70
77220,note_off,60,0,1,,,,,,,,,1,,,78,0
77230,note_off,0,0,5,,,,,,,,,5,,,52,0
77230,note_off,190,0,5,,,,,,,,,5,,,64,0
77280,note_off,60,0,2,,,,,,,,,2,,,71,0
77280,note_on,0,0,2,,,,,,,,,2,,,69,69
77280,note_on,0,0,1,,,,,,,,,1,,,73,69
77280,note_on,50,0,5,,,,,,,,,5,,,64,71
77280,note_off,60,0,1,,,,,,,,,1,,,74,0
77280,note_on,0,0,5,,,,,,,,,5,,,52,71
77470,note_off,190,0,5,,,,,,,,,5,,,52,0
77470,note_off,0,0,5,,,,,,,,,5,,,64,0
77520,note_on,0,0,5,,,,,,,,,5,,,52,69
77520,note_on,50,0,5,,,,,,,,,5,,,64,69
77710,note_off,190,0,5,,,,,,,,,5,,,52,0
77710,note_off,0,0,5,,,,,,,,,5,,,64,0
77760,note_on,0,0,5,,,,,,,,,5,,,64,66
77760,note_on,50,0,5,,,,,,,,,5,,,52,66
77950,note_off,0,0,5,,,,,,,,,5,,,52,0
77950,note_off,190,0,5,,,,,,,,,5,,,64,0
78000,note_off,720,0,1,,,,,,,,,1,,,73,0
78000,note_on,0,0,2,,,,,,,,,2,,,73,67
78000,note_on,0,0,1,,,,,,,,,1,,,76,67
78000,note_on,0,0,5,,,,,,,,,5,,,52,64
78000,note_off,720,0,2,,,,,,,,,2,,,69,0
78000,note_on,50,0,5,,,,,,,,,5,,,64,64
78190,note_off,0,0,5,,,,,,,,,5,,,64,0
78190,note_off,190,0,5,,,,,,,,,5,,,52,0
78240,note_off,240,0,2,,,,,,,,,2,,,73,0
78240,note_on,0,0,1,,,,,,,,,1,,,74,63
78240,note_on,0,0,5,,,,,,,,,5,,,52,62
78240,note_on,50,0,5,,,,,,,,,5,,,64,62
78240,note_on,0,0,2,,,,,,,,,2,,,71,63
78240,note_off,240,0,1,,,,,,,,,1,,,76,0
78430,note_off,0,0,5,,,,,,,,,5,,,64,0
78430,note_off,190,0,5,,,,,,,,,5,,,52,0
78480,note_on,0,0,2,,,,,,,,,2,,,68,60
78480,note_on,0,0,5,,,,,,,,,5,,,52,59
78480,note_on,50,0,5,,,,,,,,,5,,,64,59
78480,note_off,240,0,2,,,,,,,,,2,,,71,0
78480,note_on,0,0,1,,,,,,,,,1,,,71,60
78480,note_off,240,0,1,,,,,,,,,1,,,74,0
78670,note_off,190,0,5,,,,,,,,,5,,,52,0
78670,note_off,0,0,5,,,,,,,,,5,,,64,0
78680,set_tempo,1920,1,0,,,,,,402684,,,,,,,
78720,note_off,240,0,2,,,,,,,,,2,,,68,0
78720,set_tempo,40,1,0,,,,,,400000,,,,,,,
78720,note_on,0,0,1,,,,,,,,,1,,,73,72
78720,note_off,240,0,1,,,,,,,,,1,,,71,0
78815,note_off,95,0,1,,,,,,,,,1,,,73,0
78840,note_on,25,0,1,,,,,,,,,1,,,76,72
78935,note_off,95,0,1,,,,,,,,,1,,,76,0
78960,note_on,25,0,1,,,,,,,,,1,,,81,72
79055,note_off,95,0,1,,,,,,,,,1,,,81,0
79080,note_on,25,0,1,,,,,,,,,1,,,80,73
79175,note_off,95,0,1,,,,,,,,,1,,,80,0
79200,note_on,25,0,1,,,,,,,,,1,,,81,73
79295,note_off,95,0,1,,,,,,,,,1,,,81,0
79320,note_on,25,0,1,,,,,,,,,1,,,76,74
79415,note_off,95,0,1,,,,,,,,,1,,,76,0
79440,note_on,25,0,1,,,,,,,,,1,,,73,74
79440,note_on,0,0,5,,,,,,,,,5,,,33,74
79440,note_on,770,0,5,,,,,,,,,5,,,45,74
79535,note_off,95,0,1,,,,,,,,,1,,,73,0
79560,note_on,25,0,1,,,,,,,,,1,,,69,74
79595,note_off,0,0,5,,,,,,,,,5,,,45,0
79595,note_off,155,0,5,,,,,,,,,5,,,33,0
79655,note_off,95,0,1,,,,,,,,,1,,,69,0
79680,note_on,25,0,1,,,,,,,,,1,,,81,75
79680,note_on,85,0,5,,,,,,,,,5,,,49,75
79680,note_on,0,0,5,,,,,,,,,5,,,37,75
79775,note_off,95,0,1,,,,,,,,,1,,,81,0
79800,note_on,25,0,1,,,,,,,,,1,,,76,75
79835,note_off,0,0,5,,,,,,,,,5,,,49,0
79835,note_off,155,0,5,,,,,,,,,5,,,37,0
79895,note_off,95,0,1,,,,,,,,,1,,,76,0
79920,note_on,0,0,5,,,,,,,,,5,,,40,75
79920,note_on,85,0,5,,,,,,,,,5,,,52,75
79920,note_on,25,0,1,,,,,,,,,1,,,73,75
80015,note_off,95,0,1,,,,,,,,,1,,,73,0
80040,note_on,25,0,1,,,,,,,,,1,,,69,76
80075,note_off,0,0,5,,,,,,,,,5,,,52,0
80075,note_off,155,0,5,,,,,,,,,5,,,40,0
80135,note_off,95,0,1,,,,,,,,,1,,,69,0
80160,note_on,85,0,5,,,,,,,,,5,,,45,76
80160,note_on,0,0,5,,,,,,,,,5,,,57,76
80160,note_on,25,0,1,,,,,,,,,1,,,81,76
80255,note_off,95,0,1,,,,,,,,,1,,,81,0
80280,note_on,25,0,1,,,,,,,,,1,,,76,76
80375,note_off,95,0,1,,,,,,,,,1,,,76,0
80400,note_on,25,0,1,,,,,,,,,1,,,73,77
80495,note_off,95,0,1,,,,,,,,,1,,,73,0
80520,note_on,25,0,1,,,,,,,,,1,,,69,77
80580,set_tempo,1860,1,0,,,,,,402684,,,,,,,
80615,note_off,95,0,1,,,,,,,,,1,,,69,0
80640,note_off,0,0,5,,,,,,,,,5,,,45,0
80640,set_tempo,60,1,0,,,,,,400000,,,,,,,
80640,note_on,25,0,1,,,,,,,,,1,,,78,77
80640,note_off,480,0,5,,,,,,,,,5,,,57,0
80735,note_off,95,0,1,,,,,,,,,1,,,78,0
80760,note_on,25,0,1,,,,,,,,,1,,,80,78
80855,note_off,95,0,1,,,,,,,,,1,,,80,0
80880,note_on,25,0,1,,,,,,,,,1,,,81,78
80975,note_off,95,0,1,,,,,,,,,1,,,81,0
81000,note_on,25,0,1,,,,,,,,,1,,,80,79
81095,note_off,95,0,1,,,,,,,,,1,,,80,0
81120,note_on,25,0,1,,,,,,,,,1,,,81,79
81215,note_off,95,0,1,,,,,,,,,1,,,81,0
81240,note_on,25,0,1,,,,,,,,,1,,,78,79
81335,note_off,95,0,1,,,,,,,,,1,,,78,0
81360,note_on,720,0,5,,,,,,,,,5,,,50,80
81360,note_on,25,0,1,,,,,,,,,1,,,74,80
81360,note_on,0,0,5,,,,,,,,,5,,,38,80
81455,note_off,95,0,1,,,,,,,,,1,,,74,0
81480,note_on,25,0,1,,,,,,,,,1,,,69,80
81515,note_off,155,0,5,,,,,,,,,5,,,38,0
81515,note_off,0,0,5,,,,,,,,,5,,,50,0
81575,note_off,95,0,1,,,,,,,,,1,,,69,0
81600,note_on,25,0,1,,,,,,,,,1,,,81,80
81600,note_on,0,0,5,,,,,,,,,5,,,54,80
81600,note_on,85,0,5,,,,,,,,,5,,,42,80
81695,note_off,95,0,1,,,,,,,,,1,,,81,0
81720,note_on,25,0,1,,,,,,,,,1,,,78,81
81755,note_off,155,0,5,,,,,,,,,5,,,54,0
81755,note_off,0,0,5,,,,,,,,,5,,,42,0
81815,note_off,95,0,1,,,,,,,,,1,,,78,0
81840,note_on,85,0,5,,,,,,,,,5,,,57,81
81840,note_on,0,0,5,,,,,,,,,5,,,45,81
81840,note_on,25,0,1,,,,,,,,,1,,,74,81
81935,note_off,95,0,1,,,,,,,,,1,,,74,0
81960,note_on,25,0,1,,,,,,,,,1,,,69,81
81995,note_off,0,0,5,,,,,,,,,5,,,57,0
81995,note_off,155,0,5,,,,,,,,,5,,,45,0
82055,note_off,95,0,1,,,,,,,,,1,,,69,0
82080,note_on,85,0,5,,,,,,,,,5,,,62,82
82080,note_on,0,0,5,,,,,,,,,5,,,50,82
82080,note_on,25,0,1,,,,,,,,,1,,,81,82
82175,note_off,95,0,1,,,,,,,,,1,,,81,0
82200,note_on,25,0,1,,,,,,,,,1,,,78,82
82295,note_off,95,0,1,,,,,,,,,1,,,78,0
82320,note_on,25,0,1,,,,,,,,,1,,,74,82
82415,note_off,95,0,1,,,,,,,,,1,,,74,0
82440,note_on,25,0,1,,,,,,,,,1,,,69,83
82520,set_tempo,1880,1,0,,,,,,402684,,,,,,,
82535,note_off,95,0,1,,,,,,,,,1,,,69,0
82560,note_off,0,0,5,,,,,,,,,5,,,62,0
82560,note_on,0,0,5,,,,,,,,,5,,,64,85
82560,note_on,0,0,5,,,,,,,,,5,,,52,85
82560,note_on,3840,0,2,,,,,,,,,2,,,73,86
82560,note_on,25,0,1,,,,,,,,,1,,,76,86
82560,note_off,480,0,5,,,,,,,,,5,,,50,0
82750,note_off,190,0,5,,,,,,,,,5,,,52,0
82750,note_off,0,0,5,,,,,,,,,5,,,64,0
82800,note_on,50,0,5,,,,,,,,,5,,,64,82
82800,note_on,0,0,5,,,,,,,,,5,,,52,82
82920,note_off,360,0,2,,,,,,,,,2,,,73,0
82920,note_on,0,0,1,,,,,,,,,1,,,78,80
82920,note_off,360,0,1,,,,,,,,,1,,,76,0
82920,note_on,0,0,2,,,,,,,,,2,,,74,80
82980,note_on,0,0,1,,,,,,,,,1,,,74,79
82980,note_off,60,0,2,,,,,,,,,2,,,74,0
82980,note_on,0,0,2,,,,,,,,,2,,,71,79
82980,note_off,60,0,1,,,,,,,,,1,,,78,0
82990,note_off,190,0,5,,,,,,,,,5,,,52,0
82990,note_off,0,0,5,,,,,,,,,5,,,64,0
83040,note_off,60,0,1,,,,,,,,,1,,,74,0
83040,note_on,0,0,1,,,,,,,,,1,,,73,78
83040,note_off,60,0,2,,,,,,,,,2,,,71,0
83040,note_on,0,0,5,,,,,,,,,5,,,64,79
83040,note_on,0,0,2,,,,,,,,,2,,,69,78
83040,note_on,50,0,5,,,,,,,,,5,,,52,79
83230,note_off,190,0,5,,,,,,,,,5,,,64,0
83230,note_off,0,0,5,,,,,,,,,5,,,52,0
83280,note_on,50,0,5,,,,,,,,,5,,,52,76
83280,note_on,0,0,5,,,,,,,,,5,,,64,76
83470,note_off,190,0,5,,,,,,,,,5,,,64,0
83470,note_off,0,0,5,,,,,,,,,5,,,52,0
83520,note_on,50,0,5,,,,,,,,,5,,,64,73
83520,note_on,0,0,5,,,,,,,,,5,,,52,73
83710,note_off,190,0,5,,,,,,,,,5,,,52,0
83710,note_off,0,0,5,,,,,,,,,5,,,64,0
83760,note_on,0,0,2,,,,,,,,,2,,,73,73
83760,note_on,0,0,1,,,,,,,,,1,,,76,73
83760,note_off,720,0,1,,,,,,,,,1,,,73,0
83760,note_on,50,0,5,,,,,,,,,5,,,52,70
83760,note_on,0,0,5,,,,,,,,,5,,,64,70
83760,note_off,720,0,2,,,,,,,,,2,,,69,0
83950,note_off,0,0,5,,,,,,,,,5,,,52,0
83950,note_off,190,0,5,,,,,,,,,5,,,64,0
84000,note_off,240,0,2,,,,,,,,,2,,,73,0
84000,note_on,0,0,1,,,,,,,,,1,,,74,69
84000,note_off,240,0,1,,,,,,,,,1,,,76,0
84000,note_on,0,0,2,,,,,,,,,2,,,71,69
84000,note_on,50,0,5,,,,,,,,,5,,,52,67
84000,note_on,0,0,5,,,,,,,,,5,,,64,67
84190,note_off,190,0,5,,,,,,,,,5,,,64,0
84190,note_off,0,0,5,,,,,,,,,5,,,52,0
84240,note_on,0,0,2,,,,,,,,,2,,,68,65
84240,note_off,240,0,2,,,,,,,,,2,,,71,0
84240,note_off,240,0,1,,,,,,,,,1,,,74,0
84240,note_on,0,0,1,,,,,,,,,1,,,71,65
84240,note_on,0,0,5,,,,,,,,,5,,,64,64
84240,note_on,50,0,5,,,,,,,,,5,,,52,64
84430,note_off,190,0,5,,,,,,,,,5,,,64,0
84430,note_off,0,0,5,,,,,,,,,5,,,52,0
84440,set_tempo,1920,1,0,,,,,,413793,,,,,,,
84480,set_tempo,40,1,0,,,,,,413793,,,,,,,
84480,note_off,240,0,1,,,,,,,,,1,,,71,0
84480,note_on,0,0,1,,,,,,,,,1,,,69,83
84480,note_on,50,0,5,,,,,,,,,5,,,57,83
84480,note_off,240,0,2,,,,,,,,,2,,,68,0
84840,note_on,0,0,1,,,,,,,,,1,,,71,81
84840,note_off,360,0,1,,,,,,,,,1,,,69,0
84840,note_off,360,0,5,,,,,,,,,5,,,57,0
84840,note_on,0,0,5,,,,,,,,,5,,,59,81
84900,note_off,60,0,1,,,,,,,,,1,,,71,0
84900,note_on,0,0,1,,,,,,,,,1,,,68,81
84900,note_on,0,0,5,,,,,,,,,5,,,56,81
84900,note_off,60,0,5,,,,,,,,,5,,,59,0
84960,note_on,0,0,1,,,,,,,,,1,,,66,80
84960,note_off,60,0,1,,,,,,,,,1,,,68,0
84960,note_off,60,0,5,,,,,,,,,5,,,56,0
84960,note_on,0,0,5,,,,,,,,,5,,,54,80
85320,note_on,0,0,1,,,,,,,,,1,,,68,78
85320,note_off,360,0,5,,,,,,,,,5,,,54,0
85320,note_off,360,0,1,,,,,,,,,1,,,66,0
85320,note_on,0,0,5,,,,,,,,,5,,,56,78
85380,note_on,0,0,1,,,,,,,,,1,,,64,78
85380,note_off,60,0,1,,,,,,,,,1,,,68,0
85380,note_off,60,0,5,,,,,,,,,5,,,56,0
85380,note_on,0,0,5,,,,,,,,,5,,,52,78
85440,note_on,0,0,1,,,,,,,,,1,,,62,78
85440,note_off,60,0,1,,,,,,,,,1,,,64,0
85440,note_on,0,0,5,,,,,,,,,5,,,50,78
85440,note_off,60,0,5,,,,,,,,,5,,,52,0
85800,note_off,360,0,1,,,,,,,,,1,,,62,0
85800,note_on,0,0,1,,,,,,,,,1,,,64,76
85800,note_off,360,0,5,,,,,,,,,5,,,50,0
85800,note_on,0,0,5,,,,,,,,,5,,,52,76
85860,note_off,60,0,5,,,,,,,,,5,,,52,0
85860,note_on,0,0,5,,,,,,,,,5,,,49,75
85860,note_off,60,0,1,,,,,,,,,1,,,64,0
85860,note_on,0,0,1,,,,,,,,,1,,,61,75
85920,note_on,0,0,5,,,,,,,,,5,,,47,75
85920,note_off,60,0,1,,,,,,,,,1,,,61,0
85920,note_on,0,0,1,,,,,,,,,1,,,59,75
85920,note_off,60,0,5,,,,,,,,,5,,,49,0
86280,note_on,0,0,5,,,,,,,,,5,,,49,73
86280,note_off,360,0,5,,,,,,,,,5,,,47,0
86280,note_on,0,0,1,,,,,,,,,1,,,61,73
86280,note_off,360,0,1,,,,,,,,,1,,,59,0
86340,set_tempo,1860,1,0,,,,,,425531,,,,,,,
86340,note_off,60,0,1,,,,,,,,,1,,,61,0
86340,note_on,0,0,1,,,,,,,,,1,,,57,72
86340,note_on,0,0,5,,,,,,,,,5,,,45,72
86340,note_off,60,0,5,,,,,,,,,5,,,49,0
86400,note_off,60,0,1,,,,,,,,,1,,,57,0
86400,note_on,0,0,5,,,,,,,,,5,,,44,73
86400,note_off,60,0,5,,,,,,,,,5,,,45,0
86400,note_on,0,0,1,,,,,,,,,1,,,56,73
86880,note_on,2400,0,2,,,,,,,,,2,,,76,68
86880,note_off,480,0,5,,,,,,,,,5,,,44,0
86880,note_off,480,0,1,,,,,,,,,1,,,56,0
86940,note_on,60,0,2,,,,,,,,,2,,,80,67
87000,note_on,60,0,2,,,,,,,,,2,,,83,66
87060,note_on,180,0,1,,,,,,,,,1,,,86,66
87360,note_on,480,0,5,,,,,,,,,5,,,57,63
87360,note_on,0,0,5,,,,,,,,,5,,,45,63
87360,set_tempo,1020,1,0,,,,,,434782,,,,,,,
87360,note_off,360,0,2,,,,,,,,,2,,,76,0
87365,note_off,305,0,1,,,,,,,,,1,,,86,0
87365,note_off,5,0,2,,,,,,,,,2,,,83,0
87365,note_off,0,0,2,,,,,,,,,2,,,80,0
87840,note_off,480,0,5,,,,,,,,,5,,,45,0
87840,note_off,0,0,5,,,,,,,,,5,,,57,0
87840,note_on,475,0,2,,,,,,,,,2,,,76,57
87900,note_on,60,0,2,,,,,,,,,2,,,81,57
87960,note_on,595,0,1,,,,,,,,,1,,,85,56
88080,set_tempo,720,1,0,,,,,,652173,,,,,,,
88310,note_off,350,0,1,,,,,,,,,1,,,85,0
88320,note_on,15360,0,4,,,,,,,,,4,,,69,47
88320,set_tempo,240,1,0,,,,,,408163,,,,,,,
88320,note_on,480,0,5,,,,,,,,,5,,,62,47
88325,note_off,425,0,2,,,,,,,,,2,,,81,0
88325,note_off,0,0,2,,,,,,,,,2,,,76,0
88560,note_on,250,0,1,,,,,,,,,1,,,78,48
88800,note_off,480,0,4,,,,,,,,,4,,,69,0
88800,note_off,480,0,5,,,,,,,,,5,,,62,0
88800,note_off,240,0,1,,,,,,,,,1,,,78,0
88800,note_on,0,0,1,,,,,,,,,1,,,77,49
89040,note_on,0,0,1,,,,,,,,,1,,,78,50
89040,note_off,240,0,1,,,,,,,,,1,,,77,0
89280,note_off,240,0,1,,,,,,,,,1,,,78,0
89280,note_on,0,0,1,,,,,,,,,1,,,77,51
89520,note_off,240,0,1,,,,,,,,,1,,,77,0
89520,note_on,0,0,1,,,,,,,,,1,,,78,52
89760,note_off,240,0,1,,,,,,,,,1,,,78,0
89760,note_on,0,0,1,,,,,,,,,1,,,80,53
90000,note_on,0,0,1,,,,,,,,,1,,,81,54
90000,note_off,240,0,1,,,,,,,,,1,,,80,0
90180,set_tempo,1860,1,0,,,,,,413793,,,,,,,
90200,note_off,200,0,1,,,,,,,,,1,,,81,0
90240,note_on,1440,0,4,,,,,,,,,4,,,72,55
90240,set_tempo,60,1,0,,,,,,408163,,,,,,,
90240,note_on,1440,0,5,,,,,,,,,5,,,63,55
90480,note_on,280,0,1,,,,,,,,,1,,,81,56
90720,note_off,480,0,5,,,,,,,,,5,,,63,0
90720,note_off,480,0,4,,,,,,,,,4,,,72,0
90720,note_on,0,0,1,,,,,,,,,1,,,80,57
90720,note_off,240,0,1,,,,,,,,,1,,,81,0
90960,note_on,0,0,1,,,,,,,,,1,,,81,59
90960,note_off,240,0,1,,,,,,,,,1,,,80,0
91200,note_on,0,0,1,,,,,,,,,1,,,80,60
91200,note_off,240,0,1,,,,,,,,,1,,,81,0
91440,note_on,0,0,1,,,,,,,,,1,,,81,61
91440,note_off,240,0,1,,,,,,,,,1,,,80,0
91680,note_on,0,0,1,,,,,,,,,1,,,83,62
91680,note_off,240,0,1,,,,,,,,,1,,,81,0
91905,set_tempo,1665,1,0,,,,,,413793,,,,,,,
91920,note_on,0,0,1,,,,,,,,,1,,,84,63
91920,note_off,240,0,1,,,,,,,,,1,,,83,0
92130,note_off,210,0,1,,,,,,,,,1,,,84,0
92160,note_on,30,0,1,,,,,,,,,1,,,85,70
92160,set_tempo,255,1,0,,,,,,402684,,,,,,,
92160,note_on,0,0,4,,,,,,,,,4,,,52,70
92160,control_change,26905,0,3,,,,,,,64,127,3,,,,
92160,control_change,1440,0,4,,,,,,,64,127,4,,,,
92280,note_on,120,0,3,,,,,,,,,3,,,61,70
92280,note_on,3955,0,2,,,,,,,,,2,,,88,70
92400,note_off,120,0,3,,,,,,,,,3,,,61,0
92400,note_on,0,0,3,,,,,,,,,3,,,57,71
92400,note_on,0,0,2,,,,,,,,,2,,,85,71
92400,note_off,120,0,2,,,,,,,,,2,,,88,0
92520,control_change,120,0,3,,,,,,,64,127,3,,,,
92520,note_on,0,0,2,,,,,,,,,2,,,81,71
92520,note_off,120,0,2,,,,,,,,,2,,,85,0
92520,note_on,0,0,3,,,,,,,,,3,,,61,71
92520,note_off,0,0,4,,,,,,,,,4,,,52,0
92520,control_change,360,0,4,,,,,,,64,127,4,,,,
92520,note_off,360,0,1,,,,,,,,,1,,,85,0
92520,note_off,0,0,3,,,,,,,,,3,,,57,0
92580,control_change,60,0,4,,,,,,,64,127,4,,,,
92580,control_change,60,0,3,,,,,,,64,127,3,,,,
92615,note_off,95,0,2,,,,,,,,,2,,,81,0
92640,note_on,60,0,4,,,,,,,,,4,,,52,72
92640,note_off,60,0,3,,,,,,,,,3,,,61,0
92640,note_on,120,0,1,,,,,,,,,1,,,81,72
92760,note_on,120,0,3,,,,,,,,,3,,,61,72
92760,note_on,145,0,2,,,,,,,,,2,,,85,72
92880,note_on,0,0,3,,,,,,,,,3,,,57,73
92880,note_off,120,0,3,,,,,,,,,3,,,61,0
92880,note_on,0,0,2,,,,,,,,,2,,,81,73
92880,note_off,120,0,2,,,,,,,,,2,,,85,0
93000,note_off,360,0,4,,,,,,,,,4,,,52,0
93000,note_on,0,0,2,,,,,,,,,2,,,76,73
93000,note_off,120,0,2,,,,,,,,,2,,,81,0
93000,note_off,360,0,1,,,,,,,,,1,,,81,0
93000,note_off,120,0,3,,,,,,,,,3,,,57,0
93000,note_on,0,0,3,,,,,,,,,3,,,61,73
93060,control_change,60,0,4,,,,,,,64,127,4,,,,
93060,control_change,60,0,3,,,,,,,64,127,3,,,,
93100,note_off,100,0,2,,,,,,,,,2,,,76,0
93120,control_change,60,0,4,,,,,,,64,127,4,,,,
93120,note_on,0,0,4,,,,,,,,,4,,,52,74
93120,note_on,120,0,1,,,,,,,,,1,,,76,74
93120,note_off,0,0,3,,,,,,,,,3,,,61,0
93120,control_change,60,0,3,,,,,,,64,127,3,,,,
93240,note_on,140,0,2,,,,,,,,,2,,,81,74
93240,note_on,120,0,3,,,,,,,,,3,,,61,74
93360,note_off,120,0,3,,,,,,,,,3,,,61,0
93360,note_on,0,0,3,,,,,,,,,3,,,57,75
93360,note_off,120,0,2,,,,,,,,,2,,,81,0
93360,note_on,0,0,2,,,,,,,,,2,,,76,75
93480,note_on,0,0,2,,,,,,,,,2,,,73,75
93480,note_off,360,0,4,,,,,,,,,4,,,52,0
93480,note_off,360,0,1,,,,,,,,,1,,,76,0
93480,note_off,120,0,3,,,,,,,,,3,,,57,0
93480,note_on,0,0,3,,,,,,,,,3,,,61,75
93480,note_off,120,0,2,,,,,,,,,2,,,76,0
93540,control_change,60,0,4,,,,,,,64,127,4,,,,
93540,control_change,60,0,3,,,,,,,64,127,3,,,,
93580,note_off,100,0,2,,,,,,,,,2,,,73,0
93600,note_on,120,0,1,,,,,,,,,1,,,73,76
93600,control_change,60,0,3,,,,,,,64,127,3,,,,
93600,note_off,0,0,3,,,,,,,,,3,,,61,0
93600,note_on,0,0,4,,,,,,,,,4,,,52,76
93600,control_change,60,0,4,,,,,,,64,127,4,,,,
93720,note_on,120,0,3,,,,,,,,,3,,,61,76
93720,note_on,140,0,2,,,,,,,,,2,,,76,76
93840,note_on,0,0,3,,,,,,,,,3,,,57,76
93840,note_off,120,0,3,,,,,,,,,3,,,61,0
93840,note_off,120,0,2,,,,,,,,,2,,,76,0
93840,note_on,0,0,2,,,,,,,,,2,,,73,76
93960,note_on,0,0,3,,,,,,,,,3,,,61,77
93960,note_off,120,0,3,,,,,,,,,3,,,57,0
93960,note_off,360,0,1,,,,,,,,,1,,,73,0
93960,note_off,120,0,2,,,,,,,,,2,,,73,0
93960,note_on,0,0,2,,,,,,,,,2,,,69,77
93960,note_off,360,0,4,,,,,,,,,4,,,52,0
94020,control_change,60,0,3,,,,,,,64,127,3,,,,
94020,control_change,60,0,4,,,,,,,64,127,4,,,,
94040,set_tempo,1880,1,0,,,,,,408163,,,,,,,
94060,note_off,100,0,2,,,,,,,,,2,,,69,0
94080,note_on,20,0,2,,,,,,,,,2,,,73,77
94080,control_change,60,0,3,,,,,,,64,127,3,,,,
94080,note_off,0,0,3,,,,,,,,,3,,,61,0
94080,note_on,0,0,4,,,,,,,,,4,,,52,77
94080,control_change,60,0,4,,,,,,,64,127,4,,,,
94160,note_off,80,0,2,,,,,,,,,2,,,73,0
94160,note_on,0,0,2,,,,,,,,,2,,,71,78
94200,note_on,120,0,3,,,,,,,,,3,,,62,78
94240,note_off,80,0,2,,,,,,,,,2,,,71,0
94240,note_on,0,0,2,,,,,,,,,2,,,73,78
94320,note_off,120,0,3,,,,,,,,,3,,,62,0
94320,note_on,0,0,2,,,,,,,,,2,,,71,78
94320,note_off,80,0,2,,,,,,,,,2,,,73,0
94320,note_on,0,0,3,,,,,,,,,3,,,56,78
94400,note_on,0,0,2,,,,,,,,,2,,,73,79
94400,note_off,80,0,2,,,,,,,,,2,,,71,0
94440,note_off,360,0,4,,,,,,,,,4,,,52,0
94440,note_off,120,0,3,,,,,,,,,3,,,56,0
94440,note_on,0,0,3,,,,,,,,,3,,,62,79
94480,note_on,0,0,2,,,,,,,,,2,,,71,79
94480,note_off,80,0,2,,,,,,,,,2,,,73,0
94500,control_change,60,0,4,,,,,,,64,127,4,,,,
94500,control_change,60,0,3,,,,,,,64,127,3,,,,
94560,control_change,60,0,4,,,,,,,64,127,4,,,,
94560,note_on,0,0,4,,,,,,,,,4,,,52,79
94560,note_off,0,0,3,,,,,,,,,3,,,62,0
94560,control_change,60,0,3,,,,,,,64,127,3,,,,
94560,note_on,0,0,2,,,,,,,,,2,,,73,79
94560,note_off,80,0,2,,,,,,,,,2,,,71,0
94640,note_on,0,0,2,,,,,,,,,2,,,71,80
94640,note_off,80,0,2,,,,,,,,,2,,,73,0
94680,note_on,120,0,3,,,,,,,,,3,,,62,80
94720,note_on,0,0,2,,,,,,,,,2,,,73,80
94720,note_off,80,0,2,,,,,,,,,2,,,71,0
94800,note_on,0,0,3,,,,,,,,,3,,,56,80
94800,note_off,80,0,2,,,,,,,,,2,,,73,0
94800,note_on,0,0,2,,,,,,,,,2,,,71,80
94800,note_off,120,0,3,,,,,,,,,3,,,62,0
94880,note_off,80,0,2,,,,,,,,,2,,,71,0
94880,note_on,0,0,2,,,,,,,,,2,,,73,81
94920,note_off,120,0,3,,,,,,,,,3,,,56,0
94920,note_off,360,0,4,,,,,,,,,4,,,52,0
94920,note_on,0,0,3,,,,,,,,,3,,,62,81
94960,note_off,80,0,2,,,,,,,,,2,,,73,0
94960,note_on,0,0,2,,,,,,,,,2,,,71,81
94980,control_change,60,0,4,,,,,,,64,127,4,,,,
94980,control_change,60,0,3,,,,,,,64,127,3,,,,
95040,control_change,60,0,4,,,,,,,64,127,4,,,,
95040,note_on,0,0,4,,,,,,,,,4,,,52,81
95040,note_on,0,0,2,,,,,,,,,2,,,73,81
95040,note_off,80,0,2,,,,,,,,,2,,,71,0
95040,control_change,60,0,3,,,,,,,64,127,3,,,,
95040,note_off,0,0,3,,,,,,,,,3,,,62,0
95120,note_off,80,0,2,,,,,,,,,2,,,73,0
95120,note_on,0,0,2,,,,,,,,,2,,,71,81
95160,note_on,120,0,3,,,,,,,,,3,,,62,82
95200,note_off,80,0,2,,,,,,,,,2,,,71,0
95200,note_on,0,0,2,,,,,,,,,2,,,73,82
95280,note_off,80,0,2,,,,,,,,,2,,,73,0
95280,note_on,0,0,2,,,,,,,,,2,,,71,82
95280,note_off,120,0,3,,,,,,,,,3,,,62,0
95280,note_on,0,0,3,,,,,,,,,3,,,56,82
95360,note_off,80,0,2,,,,,,,,,2,,,71,0
95360,note_on,0,0,2,,,,,,,,,2,,,73,82
95400,note_off,120,0,3,,,,,,,,,3,,,56,0
95400,note_on,0,0,3,,,,,,,,,3,,,62,83
95400,note_off,360,0,4,,,,,,,,,4,,,52,0
95440,note_on,0,0,2,,,,,,,,,2,,,71,83
95440,note_off,80,0,2,,,,,,,,,2,,,73,0
95460,control_change,60,0,4,,,,,,,64,127,4,,,,
95460,control_change,60,0,3,,,,,,,64,127,3,,,,
95520,note_on,0,0,2,,,,,,,,,2,,,73,83
95520,control_change,60,0,4,,,,,,,64,127,4,,,,
95520,note_on,0,0,4,,,,,,,,,4,,,52,83
95520,note_off,80,0,2,,,,,,,,,2,,,71,0
95520,control_change,60,0,3,,,,,,,64,127,3,,,,
95520,note_off,0,0,3,,,,,,,,,3,,,62,0
95640,note_on,0,0,2,,,,,,,,,2,,,71,83
95640,note_on,120,0,3,,,,,,,,,3,,,62,83
95640,note_off,120,0,2,,,,,,,,,2,,,73,0
95760,note_off,120,0,3,,,,,,,,,3,,,62,0
95760,note_on,0,0,3,,,,,,,,,3,,,56,84
95760,note_off,120,0,2,,,,,,,,,2,,,71,0
95760,note_on,0,0,2,,,,,,,,,2,,,69,84
95880,note_on,0,0,3,,,,,,,,,3,,,62,84
95880,note_on,0,0,2,,,,,,,,,2,,,71,84
95880,note_off,360,0,4,,,,,,,,,4,,,52,0
95880,note_off,120,0,3,,,,,,,,,3,,,56,0
95880,note_off,120,0,2,,,,,,,,,2,,,69,0
95940,control_change,60,0,3,,,,,,,64,0,3,,,,
95940,control_change,60,0,4,,,,,,,64,0,4,,,,
95960,set_tempo,1920,1,0,,,,,,413793,,,,,,,
96000,note_off,120,0,2,,,,,,,,,2,,,71,0
96000,note_on,5280,0,5,,,,,,,,,5,,,57,85
96000,set_tempo,40,1,0,,,,,,408163,,,,,,,
96000,note_on,2040,0,1,,,,,,,,,1,,,69,85
96000,note_off,60,0,3,,,,,,,,,3,,,62,0
96000,note_on,60,0,4,,,,,,,,,4,,,61,85
96720,note_off,720,0,1,,,,,,,,,1,,,69,0
96720,note_off,720,0,5,,,,,,,,,5,,,57,0
96720,note_on,0,0,5,,,,,,,,,5,,,61,80
96720,set_tempo,720,1,0,,,,,,413793,,,,,,,
96720,note_off,720,0,4,,,,,,,,,4,,,61,0
96720,note_on,0,0,1,,,,,,,,,1,,,73,80
96840,note_on,0,0,1,,,,,,,,,1,,,69,79
96840,note_off,120,0,5,,,,,,,,,5,,,61,0
96840,note_on,0,0,5,,,,,,,,,5,,,57,79
96840,note_off,120,0,1,,,,,,,,,1,,,73,0
96940,note_off,100,0,5,,,,,,,,,5,,,57,0
96945,note_off,105,0,1,,,,,,,,,1,,,69,0
96960,note_on,20,0,5,,,,,,,,,5,,,62,78
96960,note_on,15,0,1,,,,,,,,,1,,,74,78
97200,note_on,0,0,1,,,,,,,,,1,,,71,76
97200,note_off,240,0,1,,,,,,,,,1,,,74,0
97200,note_off,240,0,5,,,,,,,,,5,,,62,0
97200,note_on,0,0,5,,,,,,,,,5,,,59,76
97320,note_on,0,0,1,,,,,,,,,1,,,68,75
97320,note_off,120,0,1,,,,,,,,,1,,,71,0
97320,note_off,120,0,5,,,,,,,,,5,,,59,0
97320,note_on,0,0,5,,,,,,,,,5,,,56,75
97420,note_off,100,0,5,,,,,,,,,5,,,56,0
97420,note_off,100,0,1,,,,,,,,,1,,,68,0
97440,note_on,20,0,1,,,,,,,,,1,,,69,73
97440,note_on,20,0,5,,,,,,,,,5,,,57,73
97680,note_on,0,0,1,,,,,,,,,1,,,66,71
97680,note_off,240,0,1,,,,,,,,,1,,,69,0
97680,note_off,240,0,5,,,,,,,,,5,,,57,0
97680,note_on,0,0,5,,,,,,,,,5,,,54,71
97800,note_on,0,0,5,,,,,,,,,5,,,51,70
97800,note_off,120,0,1,,,,,,,,,1,,,66,0
97800,note_on,0,0,1,,,,,,,,,1,,,63,70
97800,note_off,120,0,5,,,,,,,,,5,,,54,0
97900,note_off,100,0,1,,,,,,,,,1,,,63,0
97900,note_off,100,0,5,,,,,,,,,5,,,51,0
97920,note_on,20,0,5,,,,,,,,,5,,,52,70
97920,note_on,20,0,1,,,,,,,,,1,,,64,70
97920,set_tempo,1200,1,0,,,,,,425531,,,,,,,
98300,note_off,380,0,1,,,,,,,,,1,,,64,0
98305,note_off,385,0,5,,,,,,,,,5,,,52,0
98400,note_on,0,0,5,,,,,,,,,5,,,52,63
98400,note_on,95,0,5,,,,,,,,,5,,,40,63
98400,note_on,2400,0,2,,,,,,,,,2,,,71,63
98440,note_on,40,0,2,,,,,,,,,2,,,74,62
98480,note_on,40,0,2,,,,,,,,,2,,,76,62
98520,note_on,220,0,1,,,,,,,,,1,,,80,61
98640,set_tempo,720,1,0,,,,,,472440,,,,,,,
98785,note_off,385,0,5,,,,,,,,,5,,,52,0
98785,note_off,0,0,5,,,,,,,,,5,,,40,0
98820,note_off,340,0,2,,,,,,,,,2,,,71,0
98820,note_off,300,0,1,,,,,,,,,1,,,80,0
98825,note_off,0,0,2,,,,,,,,,2,,,74,0
98825,note_off,5,0,2,,,,,,,,,2,,,76,0
98880,note_on,95,0,5,,,,,,,,,5,,,33,56
98880,note_on,0,0,5,,,,,,,,,5,,,45,56
98880,note_on,55,0,2,,,,,,,,,2,,,69,56
98920,note_on,40,0,2,,,,,,,,,2,,,73,55
98960,note_on,40,0,2,,,,,,,,,2,,,76,55
99000,note_on,180,0,1,,,,,,,,,1,,,81,54
99265,note_off,385,0,5,,,,,,,,,5,,,45,0
99265,note_off,0,0,5,,,,,,,,,5,,,33,0
99305,note_off,345,0,2,,,,,,,,,2,,,73,0
99305,note_off,0,0,2,,,,,,,,,2,,,69,0
99305,note_off,305,0,1,,,,,,,,,1,,,81,0
99315,note_off,10,0,2,,,,,,,,,2,,,76,0
99360,set_tempo,720,1,0,,,,,,517241,,,,,,,
99840,set_tempo,480,1,0,,,,,,400000,,,,,,,
99840,note_on,0,0,1,,,,,,,,,1,,,69,87
99840,control_change,535,0,1,,,,,,,64,0,1,,,,
99840,note_on,575,0,5,,,,,,,,,5,,,45,87
99840,note_on,0,0,5,,,,,,,,,5,,,57,87
99960,note_on,3240,0,4,,,,,,,,,4,,,81,87
100007,note_off,167,0,1,,,,,,,,,1,,,69,0
100055,note_off,95,0,4,,,,,,,,,4,,,81,0
100080,note_on,25,0,4,,,,,,,,,4,,,80,87
100175,note_off,95,0,4,,,,,,,,,4,,,80,0
100200,note_on,25,0,4,,,,,,,,,4,,,81,87
100225,note_off,385,0,5,,,,,,,,,5,,,57,0
100225,note_off,0,0,5,,,,,,,,,5,,,45,0
100295,note_off,95,0,4,,,,,,,,,4,,,81,0
100320,note_on,95,0,5,,,,,,,,,5,,,60,87
100320,note_on,313,0,1,,,,,,,,,1,,,69,87
100440,note_on,145,0,4,,,,,,,,,4,,,81,87
100487,note_off,167,0,1,,,,,,,,,1,,,69,0
100510,note_off,190,0,5,,,,,,,,,5,,,60,0
100535,note_off,95,0,4,,,,,,,,,4,,,81,0
100560,note_on,73,0,1,,,,,,,,,1,,,71,86
100560,note_on,50,0,5,,,,,,,,,5,,,62,86
100680,note_on,145,0,4,,,,,,,,,4,,,81,86
100727,note_off,167,0,1,,,,,,,,,1,,,71,0
100750,note_off,190,0,5,,,,,,,,,5,,,62,0
100775,note_off,95,0,4,,,,,,,,,4,,,81,0
100800,note_on,50,0,5,,,,,,,,,5,,,64,86
100800,note_on,73,0,1,,,,,,,,,1,,,72,86
100920,note_on,145,0,4,,,,,,,,,4,,,81,86
100967,note_off,167,0,1,,,,,,,,,1,,,72,0
100990,note_off,190,0,5,,,,,,,,,5,,,64,0
101015,note_off,95,0,4,,,,,,,,,4,,,81,0
101040,note_on,73,0,1,,,,,,,,,1,,,74,86
101040,note_on,50,0,5,,,,,,,,,5,,,65,86
101160,note_on,145,0,4,,,,,,,,,4,,,81,86
101207,note_off,167,0,1,,,,,,,,,1,,,74,0
101230,note_off,190,0,5,,,,,,,,,5,,,65,0
101255,note_off,95,0,4,,,,,,,,,4,,,81,0
101280,note_on,73,0,1,,,,,,,,,1,,,72,85
101280,note_on,50,0,5,,,,,,,,,5,,,64,85
101400,note_on,145,0,4,,,,,,,,,4,,,81,85
101447,note_off,167,0,1,,,,,,,,,1,,,72,0
101470,note_off,190,0,5,,,,,,,,,5,,,64,0
101495,note_off,95,0,4,,,,,,,,,4,,,81,0
101520,note_on,50,0,5,,,,,,,,,5,,,62,85
101520,note_on,73,0,1,,,,,,,,,1,,,71,85
101640,note_on,145,0,4,,,,,,,,,4,,,81,85
101687,note_off,167,0,1,,,,,,,,,1,,,71,0
101710,note_off,190,0,5,,,,,,,,,5,,,62,0
101735,note_off,95,0,4,,,,,,,,,4,,,81,0
101760,note_on,73,0,1,,,,,,,,,1,,,69,85
101760,note_on,50,0,5,,,,,,,,,5,,,60,85
101880,note_on,145,0,4,,,,,,,,,4,,,81,85
101927,note_off,167,0,1,,,,,,,,,1,,,69,0
101975,note_off,95,0,4,,,,,,,,,4,,,81,0
102000,note_on,25,0,4,,,,,,,,,4,,,80,85
102095,note_off,95,0,4,,,,,,,,,4,,,80,0
102120,note_on,25,0,4,,,,,,,,,4,,,81,84
102145,note_off,385,0,5,,,,,,,,,5,,,60,0
102215,note_off,95,0,4,,,,,,,,,4,,,81,0
102240,note_on,313,0,1,,,,,,,,,1,,,84,84
102240,note_on,25,0,4,,,,,,,,,4,,,69,84
102335,note_off,95,0,4,,,,,,,,,4,,,69,0
102360,note_on,215,0,5,,,,,,,,,5,,,81,84
102430,note_off,190,0,1,,,,,,,,,1,,,84,0
102455,note_off,95,0,5,,,,,,,,,5,,,81,0
102480,note_on,50,0,1,,,,,,,,,1,,,83,84
102480,note_on,145,0,4,,,,,,,,,4,,,69,84
102575,note_off,95,0,4,,,,,,,,,4,,,69,0
102600,note_on,145,0,5,,,,,,,,,5,,,79,84
102670,note_off,190,0,1,,,,,,,,,1,,,83,0
102695,note_off,95,0,5,,,,,,,,,5,,,79,0
102720,note_on,50,0,1,,,,,,,,,1,,,81,84
102720,note_on,145,0,4,,,,,,,,,4,,,69,84
102815,note_off,95,0,4,,,,,,,,,4,,,69,0
102840,note_on,145,0,5,,,,,,,,,5,,,78,83
102910,note_off,190,0,1,,,,,,,,,1,,,81,0
102935,note_off,95,0,5,,,,,,,,,5,,,78,0
102960,note_on,50,0,1,,,,,,,,,1,,,83,83
102960,note_on,145,0,4,,,,,,,,,4,,,69,83
103055,note_off,95,0,4,,,,,,,,,4,,,69,0
103080,note_on,145,0,5,,,,,,,,,5,,,79,83
103150,note_off,190,0,1,,,,,,,,,1,,,83,0
103175,note_off,95,0,5,,,,,,,,,5,,,79,0
103200,note_on,145,0,4,,,,,,,,,4,,,69,83
103200,note_on,50,0,1,,,,,,,,,1,,,81,83
103295,note_off,95,0,4,,,,,,,,,4,,,69,0
103320,note_on,145,0,5,,,,,,,,,5,,,78,83
103390,note_off,190,0,1,,,,,,,,,1,,,81,0
103415,note_off,95,0,5,,,,,,,,,5,,,78,0
103440,note_on,50,0,1,,,,,,,,,1,,,79,83
103440,note_on,145,0,4,,,,,,,,,4,,,69,83
103535,note_off,95,0,4,,,,,,,,,4,,,69,0
103560,note_on,145,0,5,,,,,,,,,5,,,76,82
103630,note_off,190,0,1,,,,,,,,,1,,,79,0
103655,note_off,95,0,5,,,,,,,,,5,,,76,0
103680,note_on,50,0,1,,,,,,,,,1,,,78,82
103680,note_on,25,0,5,,,,,,,,,5,,,75,82
103775,note_off,95,0,5,,,,,,,,,5,,,75,0
103800,note_on,265,0,4,,,,,,,,,4,,,83,82
103870,note_off,190,0,1,,,,,,,,,1,,,78,0
103895,note_off,95,0,4,,,,,,,,,4,,,83,0
103920,note_on,25,0,4,,,,,,,,,4,,,82,82
104015,note_off,95,0,4,,,,,,,,,4,,,82,0
104040,note_on,25,0,4,,,,,,,,,4,,,83,82
104135,note_off,95,0,4,,,,,,,,,4,,,83,0
104160,note_on,385,0,5,,,,,,,,,5,,,66,82
104160,note_on,290,0,1,,,,,,,,,1,,,75,82
104280,note_on,145,0,4,,,,,,,,,4,,,83,82
104315,note_off,155,0,1,,,,,,,,,1,,,75,0
104350,note_off,190,0,5,,,,,,,,,5,,,66,0
104375,note_off,95,0,4,,,,,,,,,4,,,83,0
104400,note_on,50,0,5,,,,,,,,,5,,,67,81
104400,note_on,85,0,1,,,,,,,,,1,,,76,81
104520,note_on,145,0,4,,,,,,,,,4,,,83,81
104555,note_off,155,0,1,,,,,,,,,1,,,76,0
104590,note_off,190,0,5,,,,,,,,,5,,,67,0
104615,note_off,95,0,4,,,,,,,,,4,,,83,0
104640,note_on,50,0,5,,,,,,,,,5,,,69,81
104640,note_on,85,0,1,,,,,,,,,1,,,78,81
104760,note_on,145,0,4,,,,,,,,,4,,,83,81
104795,note_off,155,0,1,,,,,,,,,1,,,78,0
104830,note_off,190,0,5,,,,,,,,,5,,,69,0
104855,note_off,95,0,4,,,,,,,,,4,,,83,0
104880,note_on,85,0,1,,,,,,,,,1,,,79,81
104880,note_on,50,0,5,,,,,,,,,5,,,71,81
105000,note_on,145,0,4,,,,,,,,,4,,,83,81
105035,note_off,155,0,1,,,,,,,,,1,,,79,0
105070,note_off,190,0,5,,,,,,,,,5,,,71,0
105095,note_off,95,0,4,,,,,,,,,4,,,83,0
105120,note_on,50,0,5,,,,,,,,,5,,,69,80
105120,note_on,85,0,1,,,,,,,,,1,,,78,80
105240,note_on,145,0,4,,,,,,,,,4,,,83,80
105275,note_off,155,0,1,,,,,,,,,1,,,78,0
105310,note_off,190,0,5,,,,,,,,,5,,,69,0
105335,note_off,95,0,4,,,,,,,,,4,,,83,0
105360,note_on,50,0,5,,,,,,,,,5,,,67,80
105360,note_on,85,0,1,,,,,,,,,1,,,76,80
105480,note_on,145,0,4,,,,,,,,,4,,,83,80
105515,note_off,155,0,1,,,,,,,,,1,,,76,0
105550,note_off,190,0,5,,,,,,,,,5,,,67,0
105575,note_off,95,0,4,,,,,,,,,4,,,83,0
105600,note_on,50,0,5,,,,,,,,,5,,,66,80
105600,note_on,85,0,1,,,,,,,,,1,,,75,80
105720,note_on,145,0,4,,,,,,,,,4,,,83,80
105755,note_off,155,0,1,,,,,,,,,1,,,75,0
105815,note_off,95,0,4,,,,,,,,,4,,,83,0
105840,note_on,25,0,4,,,,,,,,,4,,,82,80
105935,note_off,95,0,4,,,,,,,,,4,,,82,0
105960,note_on,25,0,4,,,,,,,,,4,,,83,79
105985,note_off,385,0,5,,,,,,,,,5,,,66,0
106055,note_off,95,0,4,,,,,,,,,4,,,83,0
106080,note_on,325,0,1,,,,,,,,,1,,,84,79
106080,note_on,25,0,4,,,,,,,,,4,,,71,79
106175,note_off,95,0,4,,,,,,,,,4,,,71,0
106200,note_on,215,0,5,,,,,,,,,5,,,81,79
106270,note_off,190,0,1,,,,,,,,,1,,,84,0
106295,note_off,95,0,5,,,,,,,,,5,,,81,0
106320,note_on,145,0,4,,,,,,,,,4,,,71,79
106320,note_on,50,0,1,,,,,,,,,1,,,83,79
106415,note_off,95,0,4,,,,,,,,,4,,,71,0
106440,note_on,145,0,5,,,,,,,,,5,,,79,79
106510,note_off,190,0,1,,,,,,,,,1,,,83,0
106535,note_off,95,0,5,,,,,,,,,5,,,79,0
106560,note_on,50,0,1,,,,,,,,,1,,,81,79
106560,note_on,145,0,4,,,,,,,,,4,,,71,79
106655,note_off,95,0,4,,,,,,,,,4,,,71,0
106680,note_on,145,0,5,,,,,,,,,5,,,78,78
106750,note_off,190,0,1,,,,,,,,,1,,,81,0
106775,note_off,95,0,5,,,,,,,,,5,,,78,0
106800,note_on,145,0,4,,,,,,,,,4,,,71,78
106800,note_on,50,0,1,,,,,,,,,1,,,79,78
106895,note_off,95,0,4,,,,,,,,,4,,,71,0
106920,note_on,145,0,5,,,,,,,,,5,,,76,78
106990,note_off,190,0,1,,,,,,,,,1,,,79,0
107015,note_off,95,0,5,,,,,,,,,5,,,76,0
107040,note_on,145,0,4,,,,,,,,,4,,,71,78
107040,note_on,50,0,1,,,,,,,,,1,,,78,78
107135,note_off,95,0,4,,,,,,,,,4,,,71,0
107160,note_on,145,0,5,,,,,,,,,5,,,75,78
107230,note_off,190,0,1,,,,,,,,,1,,,78,0
107255,note_off,95,0,5,,,,,,,,,5,,,75,0
107280,note_on,50,0,1,,,,,,,,,1,,,81,78
107280,note_on,145,0,4,,,,,,,,,4,,,71,78
107375,note_off,95,0,4,,,,,,,,,4,,,71,0
107400,note_on,145,0,5,,,,,,,,,5,,,78,77
107470,note_off,190,0,1,,,,,,,,,1,,,81,0
107495,note_off,95,0,5,,,,,,,,,5,,,78,0
107520,note_on,145,0,4,,,,,,,,,4,,,71,77
107520,note_on,50,0,1,,,,,,,,,1,,,79,77
107615,note_off,95,0,4,,,,,,,,,4,,,71,0
107640,note_on,25,0,4,,,,,,,,,4,,,76,77
107710,note_off,190,0,1,,,,,,,,,1,,,79,0
107735,note_off,95,0,4,,,,,,,,,4,,,76,0
107760,note_on,25,0,4,,,,,,,,,4,,,75,77
107855,note_off,95,0,4,,,,,,,,,4,,,75,0
107880,note_on,25,0,4,,,,,,,,,4,,,76,77
107975,note_off,95,0,4,,,,,,,,,4,,,76,0
108000,note_on,290,0,1,,,,,,,,,1,,,64,77
108000,note_on,505,0,5,,,,,,,,,5,,,55,77
108120,note_on,145,0,4,,,,,,,,,4,,,76,77
108179,note_off,179,0,1,,,,,,,,,1,,,64,0
108190,note_off,190,0,5,,,,,,,,,5,,,55,0
108215,note_off,95,0,4,,,,,,,,,4,,,76,0
108240,note_on,50,0,5,,,,,,,,,5,,,57,76
108240,note_on,61,0,1,,,,,,,,,1,,,66,76
108360,note_on,145,0,4,,,,,,,,,4,,,76,76
108419,note_off,179,0,1,,,,,,,,,1,,,66,0
108430,note_off,190,0,5,,,,,,,,,5,,,57,0
108455,note_off,95,0,4,,,,,,,,,4,,,76,0
108480,note_on,50,0,5,,,,,,,,,5,,,59,76
108480,note_on,61,0,1,,,,,,,,,1,,,67,76
108600,note_on,145,0,4,,,,,,,,,4,,,76,76
108659,note_off,179,0,1,,,,,,,,,1,,,67,0
108670,note_off,190,0,5,,,,,,,,,5,,,59,0
108695,note_off,95,0,4,,,,,,,,,4,,,76,0
108720,note_on,61,0,1,,,,,,,,,1,,,69,76
108720,note_on,50,0,5,,,,,,,,,5,,,60,76
108840,note_on,145,0,4,,,,,,,,,4,,,76,76
108899,note_off,179,0,1,,,,,,,,,1,,,69,0
108910,note_off,190,0,5,,,,,,,,,5,,,60,0
108935,note_off,95,0,4,,,,,,,,,4,,,76,0
108960,note_on,50,0,5,,,,,,,,,5,,,59,75
108960,note_on,61,0,1,,,,,,,,,1,,,67,75
109080,note_on,145,0,4,,,,,,,,,4,,,76,75
109139,note_off,179,0,1,,,,,,,,,1,,,67,0
109150,note_off,190,0,5,,,,,,,,,5,,,59,0
109175,note_off,95,0,4,,,,,,,,,4,,,76,0
109200,note_on,61,0,1,,,,,,,,,1,,,66,75
109200,note_on,50,0,5,,,,,,,,,5,,,57,75
109320,note_on,145,0,4,,,,,,,,,4,,,76,75
109379,note_off,179,0,1,,,,,,,,,1,,,66,0
109390,note_off,190,0,5,,,,,,,,,5,,,57,0
109415,note_off,95,0,4,,,,,,,,,4,,,76,0
109440,note_on,50,0,5,,,,,,,,,5,,,55,75
109440,note_on,61,0,1,,,,,,,,,1,,,64,75
109560,note_on,145,0,4,,,,,,,,,4,,,76,75
109619,note_off,179,0,1,,,,,,,,,1,,,64,0
109655,note_off,95,0,4,,,,,,,,,4,,,76,0
109680,note_on,25,0,4,,,,,,,,,4,,,75,74
109775,note_off,95,0,4,,,,,,,,,4,,,75,0
109800,note_on,25,0,4,,,,,,,,,4,,,76,74
109825,note_off,385,0,5,,,,,,,,,5,,,55,0
109895,note_off,95,0,4,,,,,,,,,4,,,76,0
109920,note_on,25,0,4,,,,,,,,,4,,,64,74
109920,note_on,301,0,1,,,,,,,,,1,,,79,74
110015,note_off,95,0,4,,,,,,,,,4,,,64,0
110040,note_on,215,0,5,,,,,,,,,5,,,76,74
110110,note_off,190,0,1,,,,,,,,,1,,,79,0
110135,note_off,95,0,5,,,,,,,,,5,,,76,0
110160,note_on,145,0,4,,,,,,,,,4,,,64,74
110160,note_on,50,0,1,,,,,,,,,1,,,78,74
110255,note_off,95,0,4,,,,,,,,,4,,,64,0
110280,note_on,145,0,5,,,,,,,,,5,,,74,74
110350,note_off,190,0,1,,,,,,,,,1,,,78,0
110375,note_off,95,0,5,,,,,,,,,5,,,74,0
110400,note_on,145,0,4,,,,,,,,,4,,,64,74
110400,note_on,50,0,1,,,,,,,,,1,,,76,74
110495,note_off,95,0,4,,,,,,,,,4,,,64,0
110520,note_on,145,0,5,,,,,,,,,5,,,73,73
110590,note_off,190,0,1,,,,,,,,,1,,,76,0
110615,note_off,95,0,5,,,,,,,,,5,,,73,0
110640,note_on,145,0,4,,,,,,,,,4,,,64,73
110640,note_on,50,0,1,,,,,,,,,1,,,78,73
110735,note_off,95,0,4,,,,,,,,,4,,,64,0
110760,note_on,145,0,5,,,,,,,,,5,,,74,73
110830,note_off,190,0,1,,,,,,,,,1,,,78,0
110855,note_off,95,0,5,,,,,,,,,5,,,74,0
110880,note_on,50,0,1,,,,,,,,,1,,,76,73
110880,note_on,145,0,4,,,,,,,,,4,,,64,73
110975,note_off,95,0,4,,,,,,,,,4,,,64,0
111000,note_on,145,0,5,,,,,,,,,5,,,73,73
111070,note_off,190,0,1,,,,,,,,,1,,,76,0
111095,note_off,95,0,5,,,,,,,,,5,,,73,0
111120,note_on,50,0,1,,,,,,,,,1,,,74,73
111120,note_on,145,0,4,,,,,,,,,4,,,64,73
111215,note_off,95,0,4,,,,,,,,,4,,,64,0
111240,note_on,145,0,5,,,,,,,,,5,,,71,72
111310,note_off,190,0,1,,,,,,,,,1,,,74,0
111335,note_off,95,0,5,,,,,,,,,5,,,71,0
111360,note_on,25,0,5,,,,,,,,,5,,,70,72
111360,note_on,50,0,1,,,,,,,,,1,,,73,72
111455,note_off,95,0,5,,,,,,,,,5,,,70,0
111480,note_on,265,0,4,,,,,,,,,4,,,78,72
111550,note_off,190,0,1,,,,,,,,,1,,,73,0
111575,note_off,95,0,4,,,,,,,,,4,,,78,0
111600,note_on,25,0,4,,,,,,,,,4,,,77,72
111695,note_off,95,0,4,,,,,,,,,4,,,77,0
111720,note_on,25,0,4,,,,,,,,,4,,,78,72
111815,note_off,95,0,4,,,,,,,,,4,,,78,0
111840,note_on,385,0,5,,,,,,,,,5,,,66,72
111840,note_on,290,0,1,,,,,,,,,1,,,70,72
111960,note_on,145,0,4,,,,,,,,,4,,,78,71
112019,note_off,179,0,1,,,,,,,,,1,,,70,0
112030,note_off,190,0,5,,,,,,,,,5,,,66,0
112055,note_off,95,0,4,,,,,,,,,4,,,78,0
112080,note_on,50,0,5,,,,,,,,,5,,,68,71
112080,note_on,61,0,1,,,,,,,,,1,,,71,71
112200,note_on,145,0,4,,,,,,,,,4,,,78,71
112259,note_off,179,0,1,,,,,,,,,1,,,71,0
112270,note_off,190,0,5,,,,,,,,,5,,,68,0
112295,note_off,95,0,4,,,,,,,,,4,,,78,0
112320,note_on,61,0,1,,,,,,,,,1,,,73,71
112320,note_on,50,0,5,,,,,,,,,5,,,70,71
112440,note_on,145,0,4,,,,,,,,,4,,,78,71
112499,note_off,179,0,1,,,,,,,,,1,,,73,0
112510,note_off,190,0,5,,,,,,,,,5,,,70,0
112535,note_off,95,0,4,,,,,,,,,4,,,78,0
112560,note_on,61,0,1,,,,,,,,,1,,,74,71
112560,note_on,50,0,5,,,,,,,,,5,,,71,71
112680,note_on,145,0,4,,,,,,,,,4,,,78,71
112739,note_off,179,0,1,,,,,,,,,1,,,74,0
112750,note_off,190,0,5,,,,,,,,,5,,,71,0
112775,note_off,95,0,4,,,,,,,,,4,,,78,0
112800,note_on,50,0,5,,,,,,,,,5,,,70,70
112800,note_on,61,0,1,,,,,,,,,1,,,73,70
112920,note_on,145,0,4,,,,,,,,,4,,,78,70
112979,note_off,179,0,1,,,,,,,,,1,,,73,0
112990,note_off,190,0,5,,,,,,,,,5,,,70,0
113015,note_off,95,0,4,,,,,,,,,4,,,78,0
113040,note_on,50,0,5,,,,,,,,,5,,,68,70
113040,note_on,61,0,1,,,,,,,,,1,,,71,70
113160,note_on,145,0,4,,,,,,,,,4,,,78,70
113219,note_off,179,0,1,,,,,,,,,1,,,71,0
113230,note_off,190,0,5,,,,,,,,,5,,,68,0
113255,note_off,95,0,4,,,,,,,,,4,,,78,0
113280,note_on,61,0,1,,,,,,,,,1,,,70,70
113280,note_on,13965,0,2,,,,,,,,,2,,,66,70
113400,note_on,145,0,4,,,,,,,,,4,,,78,70
113459,note_off,179,0,1,,,,,,,,,1,,,70,0
113495,note_off,95,0,4,,,,,,,,,4,,,78,0
113520,note_on,25,0,4,,,,,,,,,4,,,77,69
113615,note_off,95,0,4,,,,,,,,,4,,,77,0
113640,note_on,25,0,4,,,,,,,,,4,,,78,69
113665,note_off,385,0,2,,,,,,,,,2,,,66,0
113735,note_off,95,0,4,,,,,,,,,4,,,78,0
113760,note_on,301,0,1,,,,,,,,,1,,,79,69
113760,note_on,25,0,4,,,,,,,,,4,,,66,69
113855,note_off,95,0,4,,,,,,,,,4,,,66,0
113880,note_on,650,0,5,,,,,,,,,5,,,76,69
113950,note_off,190,0,1,,,,,,,,,1,,,79,0
113975,note_off,95,0,5,,,,,,,,,5,,,76,0
114000,note_on,145,0,4,,,,,,,,,4,,,66,69
114000,note_on,50,0,1,,,,,,,,,1,,,78,69
114095,note_off,95,0,4,,,,,,,,,4,,,66,0
114120,note_on,145,0,5,,,,,,,,,5,,,74,69
114190,note_off,190,0,1,,,,,,,,,1,,,78,0
114215,note_off,95,0,5,,,,,,,,,5,,,74,0
114240,note_on,145,0,4,,,,,,,,,4,,,66,68
114240,note_on,50,0,1,,,,,,,,,1,,,76,68
114335,note_off,95,0,4,,,,,,,,,4,,,66,0
114360,note_on,145,0,5,,,,,,,,,5,,,73,68
114430,note_off,190,0,1,,,,,,,,,1,,,76,0
114455,note_off,95,0,5,,,,,,,,,5,,,73,0
114480,note_on,50,0,1,,,,,,,,,1,,,74,68
114480,note_on,145,0,4,,,,,,,,,4,,,66,68
114575,note_off,95,0,4,,,,,,,,,4,,,66,0
114600,note_on,145,0,5,,,,,,,,,5,,,71,68
114670,note_off,190,0,1,,,,,,,,,1,,,74,0
114695,note_off,95,0,5,,,,,,,,,5,,,71,0
114720,note_on,50,0,1,,,,,,,,,1,,,73,68
114720,note_on,145,0,4,,,,,,,,,4,,,66,68
114815,note_off,95,0,4,,,,,,,,,4,,,66,0
114840,note_on,145,0,5,,,,,,,,,5,,,70,68
114910,note_off,190,0,1,,,,,,,,,1,,,73,0
114935,note_off,95,0,5,,,,,,,,,5,,,70,0
114960,note_on,145,0,4,,,,,,,,,4,,,66,68
114960,note_on,50,0,1,,,,,,,,,1,,,76,68
115055,note_off,95,0,4,,,,,,,,,4,,,66,0
115080,note_on,145,0,5,,,,,,,,,5,,,73,67
115150,note_off,190,0,1,,,,,,,,,1,,,76,0
115160,set_tempo,15320,1,0,,,,,,402684,,,,,,,
115175,note_off,95,0,5,,,,,,,,,5,,,73,0
115200,control_change,19200,0,3,,,,,,,64,127,3,,,,
115200,control_change,25,0,5,,,,,,,64,127,5,,,,
115200,note_on,0,0,5,,,,,,,,,5,,,59,64
115200,note_on,50,0,1,,,,,,,,,1,,,74,64
115200,set_tempo,40,1,0,,,,,,400000,,,,,,,
115320,note_on,120,0,3,,,,,,,,,3,,,66,68
115440,note_on,0,0,3,,,,,,,,,3,,,62,72
115440,note_off,120,0,3,,,,,,,,,3,,,66,0
115536,note_off,336,0,5,,,,,,,,,5,,,59,0
115560,note_off,120,0,3,,,,,,,,,3,,,62,0
115560,note_on,0,0,3,,,,,,,,,3,,,66,75
115580,note_off,380,0,1,,,,,,,,,1,,,74,0
115620,control_change,60,0,3,,,,,,,64,0,3,,,,
115620,control_change,84,0,5,,,,,,,64,0,5,,,,
115680,note_on,100,0,1,,,,,,,,,1,,,86,79
115680,control_change,60,0,5,,,,,,,64,127,5,,,,
115680,note_off,0,0,3,,,,,,,,,3,,,66,0
115680,note_on,0,0,5,,,,,,,,,5,,,59,79
115680,control_change,60,0,3,,,,,,,64,127,3,,,,
115800,note_on,120,0,3,,,,,,,,,3,,,67,76
115920,note_on,0,0,3,,,,,,,,,3,,,62,74
115920,note_off,120,0,3,,,,,,,,,3,,,67,0
116016,note_off,336,0,5,,,,,,,,,5,,,59,0
116040,note_off,120,0,3,,,,,,,,,3,,,62,0
116040,note_on,0,0,3,,,,,,,,,3,,,67,72
116100,control_change,84,0,5,,,,,,,64,0,5,,,,
116100,control_change,60,0,3,,,,,,,64,0,3,,,,
116160,note_on,0,0,5,,,,,,,,,5,,,59,70
116160,control_change,60,0,5,,,,,,,64,127,5,,,,
116160,note_off,0,0,3,,,,,,,,,3,,,67,0
116160,control_change,60,0,3,,,,,,,64,127,3,,,,
116280,note_on,120,0,3,,,,,,,,,3,,,67,68
116360,note_off,680,0,1,,,,,,,,,1,,,86,0
116400,note_off,120,0,3,,,,,,,,,3,,,67,0
116400,note_on,0,0,3,,,,,,,,,3,,,62,65
116400,note_on,40,0,1,,,,,,,,,1,,,83,65
116496,note_off,336,0,5,,,,,,,,,5,,,59,0
116520,note_off,120,0,3,,,,,,,,,3,,,62,0
116520,note_on,0,0,3,,,,,,,,,3,,,67,63
116580,control_change,84,0,5,,,,,,,64,0,5,,,,
116580,control_change,60,0,3,,,,,,,64,0,3,,,,
116640,note_off,240,0,1,,,,,,,,,1,,,83,0
116640,note_on,0,0,1,,,,,,,,,1,,,79,61
116640,control_change,60,0,5,,,,,,,64,127,5,,,,
116640,control_change,60,0,3,,,,,,,64,127,3,,,,
116640,note_off,0,0,3,,,,,,,,,3,,,67,0
116640,note_on,0,0,5,,,,,,,,,5,,,59,61
116760,note_on,120,0,3,,,,,,,,,3,,,67,59
116880,note_on,0,0,3,,,,,,,,,3,,,62,57
116880,note_off,120,0,3,,,,,,,,,3,,,67,0
116880,note_off,240,0,1,,,,,,,,,1,,,79,0
116880,note_on,0,0,1,,,,,,,,,1,,,78,57
116976,note_off,336,0,5,,,,,,,,,5,,,59,0
117000,note_off,120,0,3,,,,,,,,,3,,,62,0
117000,note_on,0,0,3,,,,,,,,,3,,,67,55
117060,control_change,60,0,3,,,,,,,64,0,3,,,,
117060,control_change,84,0,5,,,,,,,64,0,5,,,,
117080,set_tempo,1880,1,0,,,,,,402684,,,,,,,
117100,note_off,40,0,3,,,,,,,,,3,,,67,0
117105,note_off,225,0,1,,,,,,,,,1,,,78,0
117120,note_on,0,0,5,,,,,,,,,5,,,59,54
117120,set_tempo,40,1,0,,,,,,400000,,,,,,,
117120,control_change,60,0,5,,,,,,,64,127,5,,,,
117240,note_on,120,0,5,,,,,,,,,5,,,77,55
117360,note_off,120,0,5,,,,,,,,,5,,,77,0
117360,note_on,0,0,5,,,,,,,,,5,,,80,56
117480,note_on,0,0,5,,,,,,,,,5,,,77,58
117480,note_off,120,0,5,,,,,,,,,5,,,80,0
117540,control_change,60,0,5,,,,,,,64,0,5,,,,
117600,note_on,495,0,1,,,,,,,,,1,,,83,59
117600,control_change,60,0,5,,,,,,,64,127,5,,,,
117600,note_off,0,0,5,,,,,,,,,5,,,59,0
117600,note_off,0,0,5,,,,,,,,,5,,,77,0
117720,note_on,120,0,5,,,,,,,,,5,,,77,60
117840,note_on,0,0,5,,,,,,,,,5,,,80,61
117840,note_off,120,0,5,,,,,,,,,5,,,77,0
117960,note_on,0,0,5,,,,,,,,,5,,,77,62
117960,note_off,120,0,5,,,,,,,,,5,,,80,0
118020,control_change,60,0,5,,,,,,,64,0,5,,,,
118080,note_off,480,0,1,,,,,,,,,1,,,83,0
118080,note_off,0,0,5,,,,,,,,,5,,,77,0
118080,note_on,0,0,1,,,,,,,,,1,,,85,63
118080,control_change,60,0,5,,,,,,,64,127,5,,,,
118200,note_on,120,0,5,,,,,,,,,5,,,77,64
118320,note_off,120,0,5,,,,,,,,,5,,,77,0
118320,note_on,0,0,5,,,,,,,,,5,,,80,65
118440,note_off,120,0,5,,,,,,,,,5,,,80,0
118440,note_on,0,0,5,,,,,,,,,5,,,77,67
118500,control_change,60,0,5,,,,,,,64,0,5,,,,
118560,note_off,480,0,1,,,,,,,,,1,,,85,0
118560,control_change,60,0,5,,,,,,,64,127,5,,,,
118560,note_off,0,0,5,,,,,,,,,5,,,77,0
118560,note_on,0,0,1,,,,,,,,,1,,,86,68
118680,note_on,120,0,5,,,,,,,,,5,,,77,69
118800,note_on,0,0,5,,,,,,,,,5,,,80,70
118800,note_off,120,0,5,,,,,,,,,5,,,77,0
118920,note_on,0,0,5,,,,,,,,,5,,,77,71
118920,note_off,120,0,5,,,,,,,,,5,,,80,0
118980,control_change,60,0,5,,,,,,,64,0,5,,,,
119000,set_tempo,1880,1,0,,,,,,402684,,,,,,,
119025,note_off,45,0,5,,,,,,,,,5,,,77,0
119025,note_off,465,0,1,,,,,,,,,1,,,86,0
119040,note_on,15,0,1,,,,,,,,,1,,,78,72
119040,control_change,15,0,5,,,,,,,64,127,5,,,,
119040,control_change,1940,0,3,,,,,,,64,127,3,,,,
119040,set_tempo,40,1,0,,,,,,400000,,,,,,,
119040,note_on,0,0,5,,,,,,,,,5,,,57,72
119160,note_on,120,0,3,,,,,,,,,3,,,66,73
119280,note_off,120,0,3,,,,,,,,,3,,,66,0
119280,note_on,0,0,3,,,,,,,,,3,,,61,75
119388,note_off,348,0,5,,,,,,,,,5,,,57,0
119400,note_off,120,0,3,,,,,,,,,3,,,61,0
119400,note_on,0,0,3,,,,,,,,,3,,,66,76
119425,note_off,385,0,1,,,,,,,,,1,,,78,0
119460,control_change,60,0,3,,,,,,,64,0,3,,,,
119460,control_change,72,0,5,,,,,,,64,0,5,,,,
119520,note_off,0,0,3,,,,,,,,,3,,,66,0
119520,control_change,60,0,3,,,,,,,64,127,3,,,,
119520,note_on,95,0,1,,,,,,,,,1,,,84,77
119520,note_on,0,0,5,,,,,,,,,5,,,57,77
119520,control_change,60,0,5,,,,,,,64,127,5,,,,
119640,note_on,120,0,3,,,,,,,,,3,,,66,74
119760,note_off,120,0,3,,,,,,,,,3,,,66,0
119760,note_on,0,0,3,,,,,,,,,3,,,60,72
119868,note_off,348,0,5,,,,,,,,,5,,,57,0
119880,note_off,120,0,3,,,,,,,,,3,,,60,0
119880,note_on,0,0,3,,,,,,,,,3,,,66,70
119940,control_change,72,0,5,,,,,,,64,0,5,,,,
119940,control_change,60,0,3,,,,,,,64,0,3,,,,
120000,control_change,60,0,5,,,,,,,64,127,5,,,,
120000,note_off,0,0,3,,,,,,,,,3,,,66,0
120000,note_on,0,0,5,,,,,,,,,5,,,57,67
120000,control_change,60,0,3,,,,,,,64,127,3,,,,
120095,note_off,575,0,1,,,,,,,,,1,,,84,0
120120,note_on,120,0,3,,,,,,,,,3,,,66,65
120240,note_off,120,0,3,,,,,,,,,3,,,66,0
120240,note_on,145,0,1,,,,,,,,,1,,,81,63
120240,note_on,0,0,3,,,,,,,,,3,,,60,63
120348,note_off,348,0,5,,,,,,,,,5,,,57,0
120360,note_off,120,0,3,,,,,,,,,3,,,60,0
120360,note_on,0,0,3,,,,,,,,,3,,,66,61
120420,control_change,60,0,3,,,,,,,64,0,3,,,,
120420,control_change,72,0,5,,,,,,,64,0,5,,,,
120480,note_on,0,0,5,,,,,,,,,5,,,57,58
120480,control_change,60,0,3,,,,,,,64,127,3,,,,
120480,note_off,0,0,3,,,,,,,,,3,,,66,0
120480,note_off,240,0,1,,,,,,,,,1,,,81,0
120480,control_change,60,0,5,,,,,,,64,127,5,,,,
120480,note_on,0,0,1,,,,,,,,,1,,,78,58
120600,note_on,120,0,3,,,,,,,,,3,,,66,56
120720,note_on,0,0,3,,,,,,,,,3,,,60,54
120720,note_off,120,0,3,,,,,,,,,3,,,66,0
120720,note_off,240,0,1,,,,,,,,,1,,,78,0
120720,note_on,0,0,1,,,,,,,,,1,,,76,54
120828,note_off,348,0,5,,,,,,,,,5,,,57,0
120840,note_off,120,0,3,,,,,,,,,3,,,60,0
120840,note_on,0,0,3,,,,,,,,,3,,,66,52
120900,control_change,72,0,5,,,,,,,64,0,5,,,,
120900,control_change,60,0,3,,,,,,,64,0,3,,,,
120920,set_tempo,1880,1,0,,,,,,402684,,,,,,,
120945,note_off,225,0,1,,,,,,,,,1,,,76,0
120945,note_off,45,0,3,,,,,,,,,3,,,66,0
120960,control_change,60,0,5,,,,,,,64,127,5,,,,
120960,note_on,0,0,5,,,,,,,,,5,,,57,50
120960,set_tempo,40,1,0,,,,,,400000,,,,,,,
121080,note_on,120,0,5,,,,,,,,,5,,,75,51
121200,note_off,120,0,5,,,,,,,,,5,,,75,0
121200,note_on,0,0,5,,,,,,,,,5,,,78,52
121320,note_off,120,0,5,,,,,,,,,5,,,78,0
121320,note_on,0,0,5,,,,,,,,,5,,,75,54
121380,control_change,60,0,5,,,,,,,64,0,5,,,,
121440,note_off,0,0,5,,,,,,,,,5,,,75,0
121440,note_off,0,0,5,,,,,,,,,5,,,57,0
121440,control_change,60,0,5,,,,,,,64,127,5,,,,
121440,note_on,495,0,1,,,,,,,,,1,,,81,55
121560,note_on,120,0,5,,,,,,,,,5,,,75,56
121680,note_off,120,0,5,,,,,,,,,5,,,75,0
121680,note_on,0,0,5,,,,,,,,,5,,,78,57
121800,note_off,120,0,5,,,,,,,,,5,,,78,0
121800,note_on,0,0,5,,,,,,,,,5,,,75,58
121860,control_change,60,0,5,,,,,,,64,0,5,,,,
121920,note_off,0,0,5,,,,,,,,,5,,,75,0
121920,control_change,60,0,5,,,,,,,64,127,5,,,,
121920,note_off,480,0,1,,,,,,,,,1,,,81,0
121920,note_on,0,0,1,,,,,,,,,1,,,83,59
122040,note_on,120,0,5,,,,,,,,,5,,,75,60
122160,note_on,0,0,5,,,,,,,,,5,,,78,62
122160,note_off,120,0,5,,,,,,,,,5,,,75,0
122280,note_on,0,0,5,,,,,,,,,5,,,75,63
122280,note_off,120,0,5,,,,,,,,,5,,,78,0
122340,control_change,60,0,5,,,,,,,64,0,5,,,,
122400,control_change,60,0,5,,,,,,,64,127,5,,,,
122400,note_off,480,0,1,,,,,,,,,1,,,83,0
122400,note_on,0,0,1,,,,,,,,,1,,,84,64
122400,note_off,0,0,5,,,,,,,,,5,,,75,0
122520,note_on,120,0,5,,,,,,,,,5,,,75,65
122640,note_on,0,0,5,,,,,,,,,5,,,78,66
122640,note_off,120,0,5,,,,,,,,,5,,,75,0
122760,note_on,0,0,5,,,,,,,,,5,,,75,67
122760,note_off,120,0,5,,,,,,,,,5,,,78,0
122820,control_change,60,0,5,,,,,,,64,0,5,,,,
122840,set_tempo,1880,1,0,,,,,,402684,,,,,,,
122865,note_off,45,0,5,,,,,,,,,5,,,75,0
122865,note_off,465,0,1,,,,,,,,,1,,,84,0
122880,note_on,0,0,5,,,,,,,,,5,,,55,68
122880,control_change,15,0,5,,,,,,,64,127,5,,,,
122880,set_tempo,40,1,0,,,,,,400000,,,,,,,
122880,note_on,15,0,1,,,,,,,,,1,,,76,68
122880,control_change,1935,0,3,,,,,,,64,127,3,,,,
123000,note_on,120,0,3,,,,,,,,,3,,,64,70
123120,note_on,0,0,3,,,,,,,,,3,,,59,71
123120,note_off,120,0,3,,,,,,,,,3,,,64,0
123240,note_off,120,0,3,,,,,,,,,3,,,59,0
123240,note_on,0,0,3,,,,,,,,,3,,,64,72
123240,note_off,360,0,5,,,,,,,,,5,,,55,0
123265,note_off,385,0,1,,,,,,,,,1,,,76,0
123300,control_change,60,0,5,,,,,,,64,0,5,,,,
123300,control_change,60,0,3,,,,,,,64,0,3,,,,
123360,note_on,0,0,5,,,,,,,,,5,,,55,73
123360,note_on,95,0,1,,,,,,,,,1,,,82,73
123360,control_change,60,0,3,,,,,,,64,127,3,,,,
123360,control_change,60,0,5,,,,,,,64,127,5,,,,
123360,note_off,0,0,3,,,,,,,,,3,,,64,0
123480,note_on,120,0,3,,,,,,,,,3,,,64,70
123600,note_on,0,0,3,,,,,,,,,3,,,58,68
123600,note_off,120,0,3,,,,,,,,,3,,,64,0
123720,note_off,360,0,5,,,,,,,,,5,,,55,0
123720,note_on,0,0,3,,,,,,,,,3,,,64,65
123720,note_off,120,0,3,,,,,,,,,3,,,58,0
123780,control_change,60,0,3,,,,,,,64,0,3,,,,
123780,control_change,60,0,5,,,,,,,64,0,5,,,,
123840,control_change,60,0,5,,,,,,,64,127,5,,,,
123840,note_on,0,0,5,,,,,,,,,5,,,55,63
123840,note_off,0,0,3,,,,,,,,,3,,,64,0
123840,control_change,60,0,3,,,,,,,64,127,3,,,,
123935,note_off,575,0,1,,,,,,,,,1,,,82,0
123960,note_on,120,0,3,,,,,,,,,3,,,64,60
124080,note_on,145,0,1,,,,,,,,,1,,,79,58
124080,note_on,0,0,3,,,,,,,,,3,,,58,58
124080,note_off,120,0,3,,,,,,,,,3,,,64,0
124200,note_on,0,0,3,,,,,,,,,3,,,64,56
124200,note_off,120,0,3,,,,,,,,,3,,,58,0
124200,note_off,360,0,5,,,,,,,,,5,,,55,0
124260,control_change,60,0,5,,,,,,,64,0,5,,,,
124260,control_change,60,0,3,,,,,,,64,0,3,,,,
124320,note_off,0,0,3,,,,,,,,,3,,,64,0
124320,note_on,0,0,5,,,,,,,,,5,,,55,53
124320,control_change,60,0,5,,,,,,,64,127,5,,,,
124320,note_off,240,0,1,,,,,,,,,1,,,79,0
124320,note_on,0,0,1,,,,,,,,,1,,,76,53
124320,control_change,60,0,3,,,,,,,64,127,3,,,,
124440,note_on,120,0,3,,,,,,,,,3,,,64,51
124560,note_off,120,0,3,,,,,,,,,3,,,64,0
124560,note_on,0,0,3,,,,,,,,,3,,,58,49
124560,note_on,0,0,1,,,,,,,,,1,,,74,49
124560,note_off,240,0,1,,,,,,,,,1,,,76,0
124680,note_off,360,0,5,,,,,,,,,5,,,55,0
124680,note_off,120,0,3,,,,,,,,,3,,,58,0
124680,note_on,0,0,3,,,,,,,,,3,,,64,46
124740,control_change,60,0,3,,,,,,,64,0,3,,,,
124740,control_change,60,0,5,,,,,,,64,0,5,,,,
124760,set_tempo,1880,1,0,,,,,,402684,,,,,,,
124780,note_off,40,0,3,,,,,,,,,3,,,64,0
124780,note_off,220,0,1,,,,,,,,,1,,,74,0
124800,set_tempo,40,1,0,,,,,,400000,,,,,,,
124800,control_change,60,0,5,,,,,,,64,127,5,,,,
124800,note_on,0,0,5,,,,,,,,,5,,,55,44
124920,note_on,120,0,5,,,,,,,,,5,,,73,46
125040,note_off,120,0,5,,,,,,,,,5,,,73,0
125040,note_on,0,0,5,,,,,,,,,5,,,76,47
125160,note_off,120,0,5,,,,,,,,,5,,,76,0
125160,note_on,0,0,5,,,,,,,,,5,,,73,48
125180,note_off,20,0,5,,,,,,,,,5,,,55,0
125220,control_change,40,0,5,,,,,,,64,0,5,,,,
125280,note_on,500,0,1,,,,,,,,,1,,,79,50
125280,note_off,0,0,5,,,,,,,,,5,,,73,0
125280,control_change,60,0,5,,,,,,,64,127,5,,,,
125400,note_on,120,0,5,,,,,,,,,5,,,73,51
125520,note_off,120,0,5,,,,,,,,,5,,,73,0
125520,note_on,0,0,5,,,,,,,,,5,,,76,52
125640,note_off,120,0,5,,,,,,,,,5,,,76,0
125640,note_on,0,0,5,,,,,,,,,5,,,73,54
125700,control_change,60,0,5,,,,,,,64,0,5,,,,
125760,control_change,60,0,5,,,,,,,64,127,5,,,,
125760,note_on,0,0,1,,,,,,,,,1,,,81,55
125760,note_off,480,0,1,,,,,,,,,1,,,79,0
125760,note_off,0,0,5,,,,,,,,,5,,,73,0
125880,note_on,120,0,5,,,,,,,,,5,,,73,56
126000,note_off,120,0,5,,,,,,,,,5,,,73,0
126000,note_on,0,0,5,,,,,,,,,5,,,76,57
126120,note_on,0,0,5,,,,,,,,,5,,,73,59
126120,note_off,120,0,5,,,,,,,,,5,,,76,0
126180,control_change,60,0,5,,,,,,,64,0,5,,,,
126240,note_off,0,0,5,,,,,,,,,5,,,73,0
126240,note_on,0,0,1,,,,,,,,,1,,,82,60
126240,note_off,480,0,1,,,,,,,,,1,,,81,0
126240,control_change,60,0,5,,,,,,,64,127,5,,,,
126360,note_on,120,0,5,,,,,,,,,5,,,73,61
126480,note_on,0,0,5,,,,,,,,,5,,,76,63
126480,note_off,120,0,5,,,,,,,,,5,,,73,0
126600,note_off,120,0,5,,,,,,,,,5,,,76,0
126600,note_on,0,0,5,,,,,,,,,5,,,73,64
126660,control_change,60,0,5,,,,,,,64,0,5,,,,
126680,set_tempo,1880,1,0,,,,,,402684,,,,,,,
126700,note_off,40,0,5,,,,,,,,,5,,,73,0
126700,note_off,460,0,1,,,,,,,,,1,,,82,0
126720,set_tempo,40,1,0,,,,,,400000,,,,,,,
126720,note_on,20,0,5,,,,,,,,,5,,,66,67
126720,note_on,0,0,5,,,,,,,,,5,,,69,67
126720,control_change,13055,0,2,,,,,,,64,127,2,,,,
126840,note_on,120,0,2,,,,,,,,,2,,,74,65
126960,note_on,0,0,2,,,,,,,,,2,,,86,64
126960,note_off,120,0,2,,,,,,,,,2,,,74,0
127030,note_off,310,0,5,,,,,,,,,5,,,69,0
127030,note_off,0,0,5,,,,,,,,,5,,,66,0
127080,note_on,0,0,2,,,,,,,,,2,,,74,64
127080,note_off,120,0,2,,,,,,,,,2,,,86,0
127140,control_change,60,0,2,,,,,,,64,0,2,,,,
127200,control_change,60,0,2,,,,,,,64,127,2,,,,
127200,note_on,0,0,5,,,,,,,,,5,,,67,64
127200,note_on,170,0,5,,,,,,,,,5,,,64,64
127200,note_off,0,0,2,,,,,,,,,2,,,74,0
127320,note_on,120,0,2,,,,,,,,,2,,,73,63
127440,note_off,120,0,2,,,,,,,,,2,,,73,0
127440,note_on,0,0,2,,,,,,,,,2,,,85,63
127510,note_off,0,0,5,,,,,,,,,5,,,64,0
127510,note_off,310,0,5,,,,,,,,,5,,,67,0
127560,note_off,120,0,2,,,,,,,,,2,,,85,0
127560,note_on,0,0,2,,,,,,,,,2,,,73,62
127620,control_change,60,0,2,,,,,,,64,0,2,,,,
127680,control_change,60,0,2,,,,,,,64,127,2,,,,
127680,note_off,0,0,2,,,,,,,,,2,,,73,0
127680,note_on,170,0,5,,,,,,,,,5,,,66,62
127680,note_on,0,0,5,,,,,,,,,5,,,69,62
127800,note_on,120,0,2,,,,,,,,,2,,,74,61
127920,note_on,0,0,2,,,,,,,,,2,,,86,61
127920,note_off,120,0,2,,,,,,,,,2,,,74,0
127990,note_off,310,0,5,,,,,,,,,5,,,69,0
127990,note_off,0,0,5,,,,,,,,,5,,,66,0
128040,note_on,0,0,2,,,,,,,,,2,,,74,61
128040,note_off,120,0,2,,,,,,,,,2,,,86,0
128100,control_change,60,0,2,,,,,,,64,0,2,,,,
128120,set_tempo,1400,1,0,,,,,,402684,,,,,,,
128160,set_tempo,40,1,0,,,,,,400000,,,,,,,
128160,note_off,0,0,2,,,,,,,,,2,,,74,0
128160,control_change,60,0,2,,,,,,,64,127,2,,,,
128160,note_on,170,0,5,,,,,,,,,5,,,61,60
128160,note_on,0,0,5,,,,,,,,,5,,,64,60
128280,note_on,120,0,2,,,,,,,,,2,,,69,60
128400,note_on,0,0,2,,,,,,,,,2,,,81,59
128400,note_off,120,0,2,,,,,,,,,2,,,69,0
128470,note_off,0,0,5,,,,,,,,,5,,,61,0
128470,note_off,310,0,5,,,,,,,,,5,,,64,0
128520,note_off,120,0,2,,,,,,,,,2,,,81,0
128520,note_on,0,0,2,,,,,,,,,2,,,69,59
128580,control_change,60,0,2,,,,,,,64,0,2,,,,
128616,note_off,36,0,2,,,,,,,,,2,,,69,0
128640,control_change,24,0,2,,,,,,,64,127,2,,,,
128640,note_on,0,0,5,,,,,,,,,5,,,65,58
128640,note_on,170,0,5,,,,,,,,,5,,,62,58
128760,note_on,120,0,2,,,,,,,,,2,,,70,58
128880,note_on,0,0,2,,,,,,,,,2,,,82,58
128880,note_off,120,0,2,,,,,,,,,2,,,70,0
128950,note_off,310,0,5,,,,,,,,,5,,,65,0
128950,note_off,0,0,5,,,,,,,,,5,,,62,0
129000,note_on,0,0,2,,,,,,,,,2,,,70,57
129000,note_off,120,0,2,,,,,,,,,2,,,82,0
129060,control_change,60,0,2,,,,,,,64,0,2,,,,
129120,note_on,170,0,5,,,,,,,,,5,,,61,57
129120,note_on,0,0,5,,,,,,,,,5,,,64,57
129120,control_change,60,0,2,,,,,,,64,127,2,,,,
129120,note_off,0,0,2,,,,,,,,,2,,,70,0
129240,note_on,120,0,2,,,,,,,,,2,,,69,56
129360,note_on,0,0,2,,,,,,,,,2,,,81,56
129360,note_off,120,0,2,,,,,,,,,2,,,69,0
129430,note_off,0,0,5,,,,,,,,,5,,,61,0
129430,note_off,310,0,5,,,,,,,,,5,,,64,0
129480,note_on,0,0,2,,,,,,,,,2,,,69,55
129480,note_off,120,0,2,,,,,,,,,2,,,81,0
129540,control_change,60,0,2,,,,,,,64,0,2,,,,
129600,note_off,0,0,2,,,,,,,,,2,,,69,0
129600,note_on,170,0,5,,,,,,,,,5,,,62,55
129600,control_change,60,0,2,,,,,,,64,127,2,,,,
129600,note_on,0,0,5,,,,,,,,,5,,,65,55
129720,note_on,120,0,2,,,,,,,,,2,,,70,54
129840,note_on,0,0,2,,,,,,,,,2,,,82,54
129840,note_off,120,0,2,,,,,,,,,2,,,70,0
129910,note_off,310,0,5,,,,,,,,,5,,,65,0
129910,note_off,0,0,5,,,,,,,,,5,,,62,0
129960,note_off,120,0,2,,,,,,,,,2,,,82,0
129960,note_on,0,0,2,,,,,,,,,2,,,70,54
130020,control_change,60,0,2,,,,,,,64,0,2,,,,
130040,set_tempo,1880,1,0,,,,,,402684,,,,,,,
130080,control_change,60,0,2,,,,,,,64,127,2,,,,
130080,note_off,0,0,2,,,,,,,,,2,,,70,0
130080,set_tempo,40,1,0,,,,,,400000,,,,,,,
130080,note_on,170,0,5,,,,,,,,,5,,,57,53
130080,note_on,0,0,5,,,,,,,,,5,,,60,53
130200,note_on,120,0,2,,,,,,,,,2,,,66,53
130320,note_on,0,0,2,,,,,,,,,2,,,78,52
130320,note_off,120,0,2,,,,,,,,,2,,,66,0
130390,note_off,310,0,5,,,,,,,,,5,,,60,0
130390,note_off,0,0,5,,,,,,,,,5,,,57,0
130440,note_on,0,0,2,,,,,,,,,2,,,66,52
130440,note_off,120,0,2,,,,,,,,,2,,,78,0
130500,control_change,60,0,2,,,,,,,64,0,2,,,,
130536,note_off,36,0,2,,,,,,,,,2,,,66,0
130560,note_on,170,0,5,,,,,,,,,5,,,58,51
130560,note_on,0,0,5,,,,,,,,,5,,,62,51
130560,control_change,24,0,2,,,,,,,64,127,2,,,,
130680,note_on,120,0,2,,,,,,,,,2,,,67,51
130800,note_on,120,0,2,,,,,,,,,2,,,79,51
130812,note_off,12,0,2,,,,,,,,,2,,,67,0
130870,note_off,0,0,5,,,,,,,,,5,,,58,0
130870,note_off,310,0,5,,,,,,,,,5,,,62,0
130920,note_on,0,0,2,,,,,,,,,2,,,67,50
130920,note_off,108,0,2,,,,,,,,,2,,,79,0
130980,control_change,60,0,2,,,,,,,64,0,2,,,,
131040,control_change,60,0,2,,,,,,,64,127,2,,,,
131040,note_on,0,0,5,,,,,,,,,5,,,60,50
131040,note_on,170,0,5,,,,,,,,,5,,,57,50
131052,note_off,12,0,2,,,,,,,,,2,,,67,0
131160,note_on,108,0,2,,,,,,,,,2,,,66,49
131280,note_on,120,0,2,,,,,,,,,2,,,78,49
131292,note_off,12,0,2,,,,,,,,,2,,,66,0
131350,note_off,310,0,5,,,,,,,,,5,,,60,0
131350,note_off,0,0,5,,,,,,,,,5,,,57,0
131400,note_off,108,0,2,,,,,,,,,2,,,78,0
131400,note_on,0,0,2,,,,,,,,,2,,,66,48
131460,control_change,60,0,2,,,,,,,64,0,2,,,,
131520,note_on,170,0,5,,,,,,,,,5,,,58,48
131520,note_on,0,0,5,,,,,,,,,5,,,62,48
131520,control_change,60,0,2,,,,,,,64,127,2,,,,
131532,note_off,12,0,2,,,,,,,,,2,,,66,0
131640,note_on,108,0,2,,,,,,,,,2,,,67,48
131760,note_on,120,0,2,,,,,,,,,2,,,79,47
131772,note_off,12,0,2,,,,,,,,,2,,,67,0
131830,note_off,310,0,5,,,,,,,,,5,,,62,0
131830,note_off,0,0,5,,,,,,,,,5,,,58,0
131880,note_off,108,0,2,,,,,,,,,2,,,79,0
131880,note_on,0,0,2,,,,,,,,,2,,,67,47
131940,control_change,60,0,2,,,,,,,64,0,2,,,,
132000,note_on,0,0,5,,,,,,,,,5,,,60,46
132000,control_change,60,0,2,,,,,,,64,127,2,,,,
132000,note_on,170,0,5,,,,,,,,,5,,,57,46
132012,note_off,12,0,2,,,,,,,,,2,,,67,0
132120,note_on,108,0,2,,,,,,,,,2,,,65,46
132240,note_on,120,0,2,,,,,,,,,2,,,77,45
132252,note_off,12,0,2,,,,,,,,,2,,,65,0
132310,note_off,310,0,5,,,,,,,,,5,,,60,0
132310,note_off,0,0,5,,,,,,,,,5,,,57,0
132360,note_on,0,0,2,,,,,,,,,2,,,65,45
132360,note_off,108,0,2,,,,,,,,,2,,,77,0
132420,control_change,60,0,2,,,,,,,64,0,2,,,,
132480,note_off,0,0,2,,,,,,,,,2,,,65,0
132480,note_on,0,0,5,,,,,,,,,5,,,58,45
132480,note_on,170,0,5,,,,,,,,,5,,,55,45
132480,control_change,60,0,2,,,,,,,64,127,2,,,,
132600,note_on,120,0,2,,,,,,,,,2,,,63,44
132720,note_on,0,0,2,,,,,,,,,2,,,75,44
132720,note_off,120,0,2,,,,,,,,,2,,,63,0
132790,note_off,310,0,5,,,,,,,,,5,,,58,0
132790,note_off,0,0,5,,,,,,,,,5,,,55,0
132840,note_on,0,0,2,,,,,,,,,2,,,63,43
132840,note_off,120,0,2,,,,,,,,,2,,,75,0
132900,control_change,60,0,2,,,,,,,64,0,2,,,,
132960,control_change,60,0,2,,,,,,,64,127,2,,,,
132960,note_off,0,0,2,,,,,,,,,2,,,63,0
132960,note_on,170,0,5,,,,,,,,,5,,,54,43
132960,note_on,0,0,5,,,,,,,,,5,,,57,43
133080,note_on,120,0,2,,,,,,,,,2,,,62,42
133200,note_off,120,0,2,,,,,,,,,2,,,62,0
133200,note_on,0,0,2,,,,,,,,,2,,,74,42
133270,note_off,0,0,5,,,,,,,,,5,,,54,0
133270,note_off,310,0,5,,,,,,,,,5,,,57,0
133320,note_off,120,0,2,,,,,,,,,2,,,74,0
133320,note_on,0,0,2,,,,,,,,,2,,,62,42
133380,control_change,60,0,2,,,,,,,64,0,2,,,,
133440,note_on,170,0,5,,,,,,,,,5,,,58,41
133440,control_change,60,0,2,,,,,,,64,127,2,,,,
133440,note_off,0,0,2,,,,,,,,,2,,,62,0
133440,note_on,0,0,5,,,,,,,,,5,,,55,41
133560,note_on,120,0,2,,,,,,,,,2,,,63,41
133680,note_on,0,0,2,,,,,,,,,2,,,75,40
133680,note_off,120,0,2,,,,,,,,,2,,,63,0
133750,note_off,0,0,5,,,,,,,,,5,,,58,0
133750,note_off,310,0,5,,,,,,,,,5,,,55,0
133800,note_off,120,0,2,,,,,,,,,2,,,75,0
133800,note_on,0,0,2,,,,,,,,,2,,,63,40
133860,control_change,60,0,2,,,,,,,64,0,2,,,,
133920,control_change,60,0,2,,,,,,,64,127,2,,,,
133920,note_off,0,0,2,,,,,,,,,2,,,63,0
133920,note_on,0,0,5,,,,,,,,,5,,,56,39
133920,note_on,170,0,5,,,,,,,,,5,,,59,39
134040,note_on,120,0,2,,,,,,,,,2,,,62,39
134160,note_off,120,0,2,,,,,,,,,2,,,62,0
134160,note_on,0,0,2,,,,,,,,,2,,,74,39
134230,note_off,0,0,5,,,,,,,,,5,,,59,0
134230,note_off,310,0,5,,,,,,,,,5,,,56,0
134280,note_off,120,0,2,,,,,,,,,2,,,74,0
134280,note_on,0,0,2,,,,,,,,,2,,,62,38
134340,control_change,60,0,2,,,,,,,64,0,2,,,,
134360,set_tempo,4280,1,0,,,,,,402684,,,,,,,
134400,note_off,60,0,2,,,,,,,,,2,,,62,0
134400,set_tempo,40,1,0,,,,,,400000,,,,,,,
134400,note_on,170,0,5,,,,,,,,,5,,,45,38
134400,note_on,0,0,5,,,,,,,,,5,,,57,38
134400,note_on,7700,0,1,,,,,,,,,1,,,73,38
134520,note_off,120,0,1,,,,,,,,,1,,,73,0
134520,note_on,0,0,1,,,,,,,,,1,,,71,40
134640,note_off,120,0,1,,,,,,,,,1,,,71,0
134640,note_on,0,0,1,,,,,,,,,1,,,69,41
134760,note_off,120,0,1,,,,,,,,,1,,,69,0
134760,note_on,0,0,1,,,,,,,,,1,,,68,42
134780,note_off,380,0,5,,,,,,,,,5,,,57,0
134780,note_off,0,0,5,,,,,,,,,5,,,45,0
134880,note_on,0,0,1,,,,,,,,,1,,,69,43
134880,note_off,120,0,1,,,,,,,,,1,,,68,0
135000,note_off,120,0,1,,,,,,,,,1,,,69,0
135000,note_on,0,0,1,,,,,,,,,1,,,71,45
135120,note_off,120,0,1,,,,,,,,,1,,,71,0
135120,note_on,0,0,1,,,,,,,,,1,,,73,46
135240,note_on,0,0,1,,,,,,,,,1,,,74,47
135240,note_off,120,0,1,,,,,,,,,1,,,73,0
135360,note_off,120,0,1,,,,,,,,,1,,,74,0
135360,note_on,0,0,1,,,,,,,,,1,,,76,48
135480,note_off,120,0,1,,,,,,,,,1,,,76,0
135480,note_on,0,0,1,,,,,,,,,1,,,74,50
135600,note_off,120,0,1,,,,,,,,,1,,,74,0
135600,note_on,0,0,1,,,,,,,,,1,,,73,51
135720,note_off,120,0,1,,,,,,,,,1,,,73,0
135720,note_on,0,0,1,,,,,,,,,1,,,71,52
135840,note_off,120,0,1,,,,,,,,,1,,,71,0
135840,note_on,0,0,1,,,,,,,,,1,,,73,53
135960,note_off,120,0,1,,,,,,,,,1,,,73,0
135960,note_on,0,0,1,,,,,,,,,1,,,74,55
136080,note_off,120,0,1,,,,,,,,,1,,,74,0
136080,note_on,0,0,1,,,,,,,,,1,,,76,56
136200,note_on,0,0,1,,,,,,,,,1,,,78,57
136200,note_off,120,0,1,,,,,,,,,1,,,76,0
136320,note_off,120,0,1,,,,,,,,,1,,,78,0
136320,note_on,0,0,1,,,,,,,,,1,,,79,58
136440,note_on,0,0,1,,,,,,,,,1,,,78,60
136440,note_off,120,0,1,,,,,,,,,1,,,79,0
136560,note_on,0,0,1,,,,,,,,,1,,,76,61
136560,note_off,120,0,1,,,,,,,,,1,,,78,0
136680,note_off,120,0,1,,,,,,,,,1,,,76,0
136680,note_on,0,0,1,,,,,,,,,1,,,78,62
136800,note_on,0,0,1,,,,,,,,,1,,,76,64
136800,note_off,120,0,1,,,,,,,,,1,,,78,0
136920,note_on,0,0,1,,,,,,,,,1,,,74,65
136920,note_off,120,0,1,,,,,,,,,1,,,76,0
137040,note_on,0,0,1,,,,,,,,,1,,,73,66
137040,note_off,120,0,1,,,,,,,,,1,,,74,0
137160,note_off,120,0,1,,,,,,,,,1,,,73,0
137160,note_on,0,0,1,,,,,,,,,1,,,74,67
137280,note_off,120,0,1,,,,,,,,,1,,,74,0
137280,note_on,0,0,1,,,,,,,,,1,,,73,69
137400,note_off,120,0,1,,,,,,,,,1,,,73,0
137400,note_on,0,0,1,,,,,,,,,1,,,71,70
137520,note_off,120,0,1,,,,,,,,,1,,,71,0
137520,note_on,0,0,1,,,,,,,,,1,,,69,71
137640,note_on,0,0,1,,,,,,,,,1,,,71,72
137640,note_off,120,0,1,,,,,,,,,1,,,69,0
137760,note_off,120,0,1,,,,,,,,,1,,,71,0
137760,note_on,0,0,1,,,,,,,,,1,,,69,74
137880,note_off,120,0,1,,,,,,,,,1,,,69,0
137880,note_on,0,0,1,,,,,,,,,1,,,67,75
138000,note_off,120,0,1,,,,,,,,,1,,,67,0
138000,note_on,0,0,1,,,,,,,,,1,,,66,76
138120,note_off,120,0,1,,,,,,,,,1,,,66,0
138120,note_on,0,0,1,,,,,,,,,1,,,64,77
138180,set_tempo,3780,1,0,,,,,,402684,,,,,,,
138240,note_on,3460,0,5,,,,,,,,,5,,,50,79
138240,note_off,120,0,1,,,,,,,,,1,,,64,0
138240,set_tempo,60,1,0,,,,,,400000,,,,,,,
138240,note_on,3840,0,2,,,,,,,,,2,,,62,79
138240,note_on,0,0,5,,,,,,,,,5,,,38,79
138280,note_on,40,0,2,,,,,,,,,2,,,66,79
138320,note_on,40,0,2,,,,,,,,,2,,,69,80
138360,note_on,120,0,1,,,,,,,,,1,,,74,80
138480,set_tempo,240,1,0,,,,,,402684,,,,,,,
138720,note_off,480,0,5,,,,,,,,,5,,,38,0
138720,note_off,0,0,5,,,,,,,,,5,,,50,0
138720,note_off,400,0,2,,,,,,,,,2,,,69,0
138720,note_off,0,0,2,,,,,,,,,2,,,62,0
138720,note_off,360,0,1,,,,,,,,,1,,,74,0
138725,note_off,5,0,2,,,,,,,,,2,,,66,0
139200,note_on,480,0,5,,,,,,,,,5,,,55,66
139200,set_tempo,720,1,0,,,,,,400000,,,,,,,
139200,note_on,480,0,1,,,,,,,,,1,,,67,66
139320,note_on,0,0,1,,,,,,,,,1,,,66,67
139320,note_off,120,0,1,,,,,,,,,1,,,67,0
139320,note_off,120,0,5,,,,,,,,,5,,,55,0
139320,note_on,0,0,5,,,,,,,,,5,,,54,67
139440,note_off,120,0,1,,,,,,,,,1,,,66,0
139440,note_off,120,0,5,,,,,,,,,5,,,54,0
139440,note_on,0,0,5,,,,,,,,,5,,,52,68
139440,note_on,0,0,1,,,,,,,,,1,,,64,68
139560,note_off,120,0,5,,,,,,,,,5,,,52,0
139560,note_on,0,0,5,,,,,,,,,5,,,50,69
139560,note_on,0,0,1,,,,,,,,,1,,,62,69
139560,note_off,120,0,1,,,,,,,,,1,,,64,0
139660,note_off,100,0,1,,,,,,,,,1,,,62,0
139665,note_off,105,0,5,,,,,,,,,5,,,50,0
139680,note_on,20,0,1,,,,,,,,,1,,,67,70
139680,note_on,15,0,5,,,,,,,,,5,,,55,70
139800,note_off,120,0,1,,,,,,,,,1,,,67,0
139800,note_off,120,0,5,,,,,,,,,5,,,55,0
139800,note_on,0,0,5,,,,,,,,,5,,,54,71
139800,note_on,0,0,1,,,,,,,,,1,,,66,71
139920,note_on,0,0,1,,,,,,,,,1,,,64,72
139920,note_on,0,0,5,,,,,,,,,5,,,52,72
139920,note_off,120,0,5,,,,,,,,,5,,,54,0
139920,note_off,120,0,1,,,,,,,,,1,,,66,0
140040,note_off,120,0,1,,,,,,,,,1,,,64,0
140040,note_on,0,0,1,,,,,,,,,1,,,62,73
140040,note_off,120,0,5,,,,,,,,,5,,,52,0
140040,note_on,0,0,5,,,,,,,,,5,,,50,73
140140,note_off,100,0,1,,,,,,,,,1,,,62,0
140145,note_off,105,0,5,,,,,,,,,5,,,50,0
140160,set_tempo,960,1,0,,,,,,402684,,,,,,,
140160,note_on,20,0,1,,,,,,,,,1,,,69,74
140160,note_on,15,0,5,,,,,,,,,5,,,57,74
140448,note_off,288,0,1,,,,,,,,,1,,,69,0
140448,note_off,288,0,5,,,,,,,,,5,,,57,0
140640,note_on,192,0,5,,,,,,,,,5,,,54,78
140640,note_on,192,0,1,,,,,,,,,1,,,66,78
140928,note_off,288,0,1,,,,,,,,,1,,,66,0
140928,note_off,288,0,5,,,,,,,,,5,,,54,0
140940,set_tempo,780,1,0,,,,,,419580,,,,,,,
141120,note_on,192,0,5,,,,,,,,,5,,,59,82
141120,note_on,192,0,1,,,,,,,,,1,,,71,82
141505,note_off,385,0,5,,,,,,,,,5,,,59,0
141505,note_off,385,0,1,,,,,,,,,1,,,71,0
141840,note_on,335,0,1,,,,,,,,,1,,,66,80
141840,set_tempo,900,1,0,,,,,,402684,,,,,,,
141840,note_on,335,0,5,,,,,,,,,5,,,54,80
141960,note_off,120,0,5,,,,,,,,,5,,,54,0
141960,note_off,120,0,1,,,,,,,,,1,,,66,0
142080,note_on,120,0,5,,,,,,,,,5,,,55,78
142080,note_on,120,0,1,,,,,,,,,1,,,67,78
142200,note_off,120,0,5,,,,,,,,,5,,,55,0
142200,note_off,120,0,1,,,,,,,,,1,,,67,0
142320,note_on,120,0,1,,,,,,,,,1,,,64,77
142320,note_on,120,0,5,,,,,,,,,5,,,52,77
142440,note_off,120,0,1,,,,,,,,,1,,,64,0
142440,note_off,120,0,5,,,,,,,,,5,,,52,0
142560,note_on,120,0,5,,,,,,,,,5,,,57,75
142560,note_on,120,0,1,,,,,,,,,1,,,69,75
142680,note_off,120,0,1,,,,,,,,,1,,,69,0
142680,note_off,120,0,5,,,,,,,,,5,,,57,0
142800,note_on,120,0,1,,,,,,,,,1,,,66,74
142800,note_on,120,0,5,,,,,,,,,5,,,54,74
142920,note_off,120,0,1,,,,,,,,,1,,,66,0
142920,note_off,120,0,5,,,,,,,,,5,,,54,0
143040,note_on,120,0,1,,,,,,,,,1,,,62,72
143040,note_on,120,0,5,,,,,,,,,5,,,50,72
143160,note_off,120,0,1,,,,,,,,,1,,,62,0
143160,note_off,120,0,5,,,,,,,,,5,,,50,0
143280,note_on,120,0,1,,,,,,,,,1,,,59,71
143280,note_on,120,0,5,,,,,,,,,5,,,47,71
143400,note_off,120,0,1,,,,,,,,,1,,,59,0
143400,note_off,120,0,5,,,,,,,,,5,,,47,0
143520,note_on,120,0,1,,,,,,,,,1,,,64,69
143520,note_on,120,0,5,,,,,,,,,5,,,52,69
143640,note_off,120,0,1,,,,,,,,,1,,,64,0
143640,note_off,120,0,5,,,,,,,,,5,,,52,0
143760,note_on,120,0,1,,,,,,,,,1,,,61,68
143760,note_on,120,0,5,,,,,,,,,5,,,49,68
143880,note_off,120,0,5,,,,,,,,,5,,,49,0
143880,set_tempo,2040,1,0,,,,,,413793,,,,,,,
143880,note_off,120,0,1,,,,,,,,,1,,,61,0
144000,set_tempo,120,1,0,,,,,,400000,,,,,,,
144000,note_on,120,0,5,,,,,,,,,5,,,45,66
144000,note_on,120,0,1,,,,,,,,,1,,,57,66
144240,note_on,29185,0,4,,,,,,,,,4,,,57,46
144432,note_off,432,0,5,,,,,,,,,5,,,45,0
144480,note_on,48,0,5,,,,,,,,,5,,,45,47
144480,note_off,480,0,1,,,,,,,,,1,,,57,0
144480,note_off,240,0,4,,,,,,,,,4,,,57,0
144720,note_on,240,0,4,,,,,,,,,4,,,57,48
144912,note_off,432,0,5,,,,,,,,,5,,,45,0
144960,note_off,240,0,4,,,,,,,,,4,,,57,0
144960,note_on,48,0,5,,,,,,,,,5,,,45,49
145200,note_on,240,0,4,,,,,,,,,4,,,57,50
145200,note_on,6475,0,2,,,,,,,,,2,,,66,50
145200,note_on,720,0,1,,,,,,,,,1,,,74,50
145355,note_off,155,0,1,,,,,,,,,1,,,74,0
145355,note_off,155,0,2,,,,,,,,,2,,,66,0
145392,note_off,432,0,5,,,,,,,,,5,,,45,0
145440,note_on,48,0,5,,,,,,,,,5,,,45,54
145440,note_on,85,0,1,,,,,,,,,1,,,74,54
145440,note_on,85,0,2,,,,,,,,,2,,,66,54
145440,note_off,240,0,4,,,,,,,,,4,,,57,0
145595,note_off,155,0,1,,,,,,,,,1,,,74,0
145595,note_off,155,0,2,,,,,,,,,2,,,66,0
145680,note_on,85,0,2,,,,,,,,,2,,,66,58
145680,note_on,85,0,1,,,,,,,,,1,,,74,58
145680,note_on,240,0,4,,,,,,,,,4,,,57,58
145835,note_off,155,0,2,,,,,,,,,2,,,66,0
145835,note_off,155,0,1,,,,,,,,,1,,,74,0
145872,note_off,432,0,5,,,,,,,,,5,,,45,0
145920,note_on,48,0,5,,,,,,,,,5,,,45,67
145920,note_on,85,0,2,,,,,,,,,2,,,66,67
145920,note_on,85,0,1,,,,,,,,,1,,,74,67
145920,note_off,240,0,4,,,,,,,,,4,,,57,0
146160,note_off,240,0,1,,,,,,,,,1,,,74,0
146160,note_on,0,0,1,,,,,,,,,1,,,73,61
146160,note_on,0,0,2,,,,,,,,,2,,,64,61
146160,note_off,240,0,2,,,,,,,,,2,,,66,0
146160,note_on,240,0,4,,,,,,,,,4,,,57,61
146315,note_off,155,0,2,,,,,,,,,2,,,64,0
146315,note_off,155,0,1,,,,,,,,,1,,,73,0
146352,note_off,432,0,5,,,,,,,,,5,,,45,0
146400,note_on,85,0,1,,,,,,,,,1,,,73,59
146400,note_on,48,0,5,,,,,,,,,5,,,45,59
146400,note_on,85,0,2,,,,,,,,,2,,,64,59
146400,note_off,240,0,4,,,,,,,,,4,,,57,0
146640,note_on,240,0,4,,,,,,,,,4,,,57,56
146832,note_off,432,0,5,,,,,,,,,5,,,45,0
146880,note_on,48,0,5,,,,,,,,,5,,,45,57
146880,note_off,240,0,4,,,,,,,,,4,,,57,0
146880,note_off,480,0,2,,,,,,,,,2,,,64,0
146880,note_off,480,0,1,,,,,,,,,1,,,73,0
147120,note_on,240,0,1,,,,,,,,,1,,,78,58
147120,note_on,240,0,4,,,,,,,,,4,,,57,58
147120,note_on,240,0,2,,,,,,,,,2,,,74,58
147275,note_off,155,0,2,,,,,,,,,2,,,74,0
147275,note_off,155,0,1,,,,,,,,,1,,,78,0
147312,note_off,432,0,5,,,,,,,,,5,,,45,0
147360,note_on,85,0,2,,,,,,,,,2,,,74,62
147360,note_on,48,0,5,,,,,,,,,5,,,45,62
147360,note_on,85,0,1,,,,,,,,,1,,,78,62
147360,note_off,240,0,4,,,,,,,,,4,,,57,0
147515,note_off,155,0,2,,,,,,,,,2,,,74,0
147515,note_off,155,0,1,,,,,,,,,1,,,78,0
147600,note_on,85,0,2,,,,,,,,,2,,,74,67
147600,note_on,85,0,1,,,,,,,,,1,,,78,67
147600,note_on,240,0,4,,,,,,,,,4,,,57,68
147755,note_off,155,0,2,,,,,,,,,2,,,74,0
147755,note_off,155,0,1,,,,,,,,,1,,,78,0
147792,note_off,432,0,5,,,,,,,,,5,,,45,0
147840,note_on,85,0,1,,,,,,,,,1,,,78,73
147840,note_on,85,0,2,,,,,,,,,2,,,74,73
147840,note_off,240,0,4,,,,,,,,,4,,,57,0
147840,note_on,48,0,5,,,,,,,,,5,,,45,73
148080,note_off,240,0,1,,,,,,,,,1,,,78,0
148080,note_off,240,0,2,,,,,,,,,2,,,74,0
148080,note_on,0,0,1,,,,,,,,,1,,,76,70
148080,note_on,240,0,4,,,,,,,,,4,,,57,70
148080,note_on,0,0,2,,,,,,,,,2,,,73,70
148235,note_off,155,0,2,,,,,,,,,2,,,73,0
148235,note_off,155,0,1,,,,,,,,,1,,,76,0
148272,note_off,432,0,5,,,,,,,,,5,,,45,0
148320,note_off,240,0,4,,,,,,,,,4,,,57,0
148320,note_on,48,0,5,,,,,,,,,5,,,45,67
148320,note_on,85,0,2,,,,,,,,,2,,,73,67
148320,note_on,85,0,1,,,,,,,,,1,,,76,67
148560,note_on,240,0,4,,,,,,,,,4,,,57,65
148752,note_off,432,0,5,,,,,,,,,5,,,45,0
148800,note_off,480,0,1,,,,,,,,,1,,,76,0
148800,note_off,240,0,4,,,,,,,,,4,,,57,0
148800,note_on,48,0,5,,,,,,,,,5,,,45,66
148800,note_off,480,0,2,,,,,,,,,2,,,73,0
149040,note_on,240,0,4,,,,,,,,,4,,,57,67
149040,note_on,240,0,1,,,,,,,,,1,,,81,67
149040,note_on,240,0,2,,,,,,,,,2,,,78,67
149195,note_off,155,0,2,,,,,,,,,2,,,78,0
149195,note_off,155,0,1,,,,,,,,,1,,,81,0
149232,note_off,432,0,5,,,,,,,,,5,,,45,0
149280,note_off,240,0,4,,,,,,,,,4,,,57,0
149280,note_on,48,0,5,,,,,,,,,5,,,45,71
149280,note_on,85,0,2,,,,,,,,,2,,,78,71
149280,note_on,85,0,1,,,,,,,,,1,,,81,71
149435,note_off,155,0,2,,,,,,,,,2,,,78,0
149435,note_off,155,0,1,,,,,,,,,1,,,81,0
149520,note_on,85,0,2,,,,,,,,,2,,,78,76
149520,note_on,240,0,4,,,,,,,,,4,,,57,76
149520,note_on,85,0,1,,,,,,,,,1,,,81,76
149640,set_tempo,5640,1,0,,,,,,408163,,,,,,,
149675,note_off,155,0,1,,,,,,,,,1,,,81,0
149675,note_off,155,0,2,,,,,,,,,2,,,78,0
149712,note_off,432,0,5,,,,,,,,,5,,,45,0
149760,set_tempo,120,1,0,,,,,,400000,,,,,,,
149760,note_off,240,0,4,,,,,,,,,4,,,57,0
149760,note_on,48,0,5,,,,,,,,,5,,,45,81
149760,note_on,85,0,1,,,,,,,,,1,,,79,81
149880,note_off,120,0,1,,,,,,,,,1,,,79,0
149880,note_on,0,0,1,,,,,,,,,1,,,78,81
150000,note_off,120,0,1,,,,,,,,,1,,,78,0
150000,note_on,0,0,1,,,,,,,,,1,,,79,80
150120,note_off,120,0,1,,,,,,,,,1,,,79,0
150120,note_on,0,0,1,,,,,,,,,1,,,81,80
150240,note_off,480,0,5,,,,,,,,,5,,,45,0
150240,note_on,0,0,1,,,,,,,,,1,,,83,80
150240,note_off,120,0,1,,,,,,,,,1,,,81,0
150360,note_on,0,0,1,,,,,,,,,1,,,81,79
150360,note_off,120,0,1,,,,,,,,,1,,,83,0
150480,note_on,0,0,1,,,,,,,,,1,,,79,79
150480,note_off,120,0,1,,,,,,,,,1,,,81,0
150600,note_on,0,0,1,,,,,,,,,1,,,78,78
150600,note_off,120,0,1,,,,,,,,,1,,,79,0
150720,note_off,120,0,1,,,,,,,,,1,,,78,0
150720,note_on,0,0,1,,,,,,,,,1,,,76,78
150840,note_off,120,0,1,,,,,,,,,1,,,76,0
150840,note_on,0,0,1,,,,,,,,,1,,,75,77
150960,note_off,120,0,1,,,,,,,,,1,,,75,0
150960,note_on,0,0,1,,,,,,,,,1,,,76,77
151080,note_on,0,0,1,,,,,,,,,1,,,78,77
151080,note_off,120,0,1,,,,,,,,,1,,,76,0
151200,note_off,120,0,1,,,,,,,,,1,,,78,0
151200,note_on,0,0,1,,,,,,,,,1,,,79,76
151320,note_on,0,0,1,,,,,,,,,1,,,78,76
151320,note_off,120,0,1,,,,,,,,,1,,,79,0
151440,note_off,120,0,1,,,,,,,,,1,,,78,0
151440,note_on,0,0,1,,,,,,,,,1,,,76,75
151560,note_off,120,0,1,,,,,,,,,1,,,76,0
151560,note_on,0,0,1,,,,,,,,,1,,,74,75
151620,set_tempo,1860,1,0,,,,,,402684,,,,,,,
151680,set_tempo,60,1,0,,,,,,400000,,,,,,,
151680,note_on,1440,0,5,,,,,,,,,5,,,61,75
151680,note_off,120,0,1,,,,,,,,,1,,,74,0
151680,note_on,0,0,1,,,,,,,,,1,,,73,75
151800,note_on,0,0,5,,,,,,,,,5,,,59,74
151800,note_on,0,0,1,,,,,,,,,1,,,71,74
151800,note_off,120,0,1,,,,,,,,,1,,,73,0
151800,note_off,120,0,5,,,,,,,,,5,,,61,0
151920,note_on,0,0,1,,,,,,,,,1,,,73,74
151920,note_off,120,0,5,,,,,,,,,5,,,59,0
151920,note_on,0,0,5,,,,,,,,,5,,,61,74
151920,note_off,120,0,1,,,,,,,,,1,,,71,0
152040,note_off,120,0,1,,,,,,,,,1,,,73,0
152040,note_on,0,0,1,,,,,,,,,1,,,74,73
152040,note_off,120,0,5,,,,,,,,,5,,,61,0
152040,note_on,0,0,5,,,,,,,,,5,,,62,73
152160,note_off,120,0,1,,,,,,,,,1,,,74,0
152160,note_on,0,0,1,,,,,,,,,1,,,76,73
152160,note_off,120,0,5,,,,,,,,,5,,,62,0
152160,note_on,0,0,5,,,,,,,,,5,,,64,73
152280,note_off,120,0,1,,,,,,,,,1,,,76,0
152280,note_on,0,0,5,,,,,,,,,5,,,62,73
152280,note_off,120,0,5,,,,,,,,,5,,,64,0
152280,note_on,0,0,1,,,,,,,,,1,,,74,73
152400,note_off,120,0,5,,,,,,,,,5,,,62,0
152400,note_on,0,0,5,,,,,,,,,5,,,61,72
152400,note_on,0,0,1,,,,,,,,,1,,,73,72
152400,note_off,120,0,1,,,,,,,,,1,,,74,0
152520,note_on,0,0,1,,,,,,,,,1,,,71,72
152520,note_on,0,0,5,,,,,,,,,5,,,59,72
152520,note_off,120,0,5,,,,,,,,,5,,,61,0
152520,note_off,120,0,1,,,,,,,,,1,,,73,0
152640,note_on,0,0,1,,,,,,,,,1,,,69,71
152640,note_off,120,0,1,,,,,,,,,1,,,71,0
152640,note_off,120,0,5,,,,,,,,,5,,,59,0
152640,note_on,0,0,5,,,,,,,,,5,,,57,71
152760,note_on,0,0,5,,,,,,,,,5,,,56,71
152760,note_off,120,0,5,,,,,,,,,5,,,57,0
152760,note_off,120,0,1,,,,,,,,,1,,,69,0
152760,note_on,0,0,1,,,,,,,,,1,,,68,71
152880,note_on,0,0,5,,,,,,,,,5,,,57,70
152880,note_off,120,0,1,,,,,,,,,1,,,68,0
152880,note_on,0,0,1,,,,,,,,,1,,,69,70
152880,note_off,120,0,5,,,,,,,,,5,,,56,0
153000,note_on,0,0,5,,,,,,,,,5,,,59,70
153000,note_off,120,0,5,,,,,,,,,5,,,57,0
153000,note_off,120,0,1,,,,,,,,,1,,,69,0
153000,note_on,0,0,1,,,,,,,,,1,,,71,70
153120,note_off,120,0,1,,,,,,,,,1,,,71,0
153120,note_on,0,0,1,,,,,,,,,1,,,69,70
153120,note_off,120,0,5,,,,,,,,,5,,,59,0
153120,note_on,0,0,5,,,,,,,,,5,,,57,70
153240,note_off,120,0,5,,,,,,,,,5,,,57,0
153240,note_on,0,0,5,,,,,,,,,5,,,55,69
153240,note_off,120,0,1,,,,,,,,,1,,,69,0
153240,note_on,0,0,1,,,,,,,,,1,,,67,69
153360,note_off,120,0,5,,,,,,,,,5,,,55,0
153360,note_on,0,0,5,,,,,,,,,5,,,54,69
153360,note_off,120,0,1,,,,,,,,,1,,,67,0
153360,note_on,0,0,1,,,,,,,,,1,,,66,69
153480,note_off,120,0,5,,,,,,,,,5,,,54,0
153480,note_on,0,0,5,,,,,,,,,5,,,52,68
153480,note_off,120,0,1,,,,,,,,,1,,,66,0
153480,set_tempo,1800,1,0,,,,,,402684,,,,,,,
153480,note_on,0,0,1,,,,,,,,,1,,,64,68
153600,set_tempo,120,1,0,,,,,,400000,,,,,,,
153600,note_on,0,0,1,,,,,,,,,1,,,62,68
153600,note_on,0,0,5,,,,,,,,,5,,,50,68
153600,note_off,120,0,5,,,,,,,,,5,,,52,0
153600,note_off,120,0,1,,,,,,,,,1,,,64,0
154080,note_on,0,0,5,,,,,,,,,5,,,50,44
154080,note_off,480,0,5,,,,,,,,,5,,,50,0
154270,note_off,190,0,5,,,,,,,,,5,,,50,0
154320,note_on,50,0,5,,,,,,,,,5,,,50,46
154510,note_off,190,0,5,,,,,,,,,5,,,50,0
154560,note_off,960,0,1,,,,,,,,,1,,,62,0
154560,note_on,0,0,1,,,,,,,,,1,,,64,51
154560,note_on,50,0,5,,,,,,,,,5,,,50,48
154750,note_off,190,0,5,,,,,,,,,5,,,50,0
154800,note_on,50,0,5,,,,,,,,,5,,,50,49
154990,note_off,190,0,5,,,,,,,,,5,,,50,0
155040,note_on,50,0,5,,,,,,,,,5,,,50,51
155040,note_off,480,0,1,,,,,,,,,1,,,64,0
155040,note_on,0,0,1,,,,,,,,,1,,,66,53
155230,note_off,190,0,5,,,,,,,,,5,,,50,0
155280,note_on,50,0,5,,,,,,,,,5,,,50,53
155470,note_off,190,0,5,,,,,,,,,5,,,50,0
155500,note_off,460,0,1,,,,,,,,,1,,,66,0
155520,note_on,20,0,1,,,,,,,,,1,,,67,58
155520,note_on,50,0,5,,,,,,,,,5,,,50,58
155710,note_off,190,0,5,,,,,,,,,5,,,50,0
155760,note_on,50,0,5,,,,,,,,,5,,,50,57
155880,note_on,0,0,1,,,,,,,,,1,,,69,56
155880,note_off,360,0,1,,,,,,,,,1,,,67,0
155940,note_off,60,0,1,,,,,,,,,1,,,69,0
155940,note_on,0,0,1,,,,,,,,,1,,,71,56
155950,note_off,190,0,5,,,,,,,,,5,,,50,0
156000,note_off,60,0,1,,,,,,,,,1,,,71,0
156000,note_on,50,0,5,,,,,,,,,5,,,50,55
156000,note_on,0,0,1,,,,,,,,,1,,,69,55
156190,note_off,190,0,5,,,,,,,,,5,,,50,0
156240,note_on,0,0,1,,,,,,,,,1,,,67,54
156240,note_off,240,0,1,,,,,,,,,1,,,69,0
156240,note_on,50,0,5,,,,,,,,,5,,,50,54
156430,note_off,190,0,5,,,,,,,,,5,,,50,0
156480,note_off,240,0,1,,,,,,,,,1,,,67,0
156480,note_on,0,0,1,,,,,,,,,1,,,66,52
156480,note_on,50,0,5,,,,,,,,,5,,,50,52
156670,note_off,190,0,5,,,,,,,,,5,,,50,0
156720,note_on,50,0,5,,,,,,,,,5,,,50,50
156910,note_off,190,0,5,,,,,,,,,5,,,50,0
156935,note_off,455,0,1,,,,,,,,,1,,,66,0
156960,note_on,50,0,5,,,,,,,,,5,,,50,49
157150,note_off,190,0,5,,,,,,,,,5,,,50,0
157200,note_on,50,0,5,,,,,,,,,5,,,50,47
157320,set_tempo,3720,1,0,,,,,,402684,,,,,,,
157390,note_off,190,0,5,,,,,,,,,5,,,50,0
157440,note_on,7765,0,2,,,,,,,,,2,,,62,49
157440,note_on,50,0,5,,,,,,,,,5,,,38,49
157440,note_on,505,0,1,,,,,,,,,1,,,66,49
157440,set_tempo,120,1,0,,,,,,400000,,,,,,,
157680,note_on,240,0,5,,,,,,,,,5,,,50,49
157870,note_off,190,0,5,,,,,,,,,5,,,50,0
157920,note_on,50,0,5,,,,,,,,,5,,,50,50
158110,note_off,190,0,5,,,,,,,,,5,,,50,0
158160,note_on,50,0,5,,,,,,,,,5,,,50,51
158350,note_off,190,0,5,,,,,,,,,5,,,50,0
158400,note_on,0,0,2,,,,,,,,,2,,,64,53
158400,note_on,0,0,1,,,,,,,,,1,,,67,53
158400,note_on,50,0,5,,,,,,,,,5,,,50,53
158400,note_off,960,0,1,,,,,,,,,1,,,66,0
158400,note_off,960,0,2,,,,,,,,,2,,,62,0
158590,note_off,190,0,5,,,,,,,,,5,,,50,0
158640,note_on,50,0,5,,,,,,,,,5,,,50,54
158830,note_off,190,0,5,,,,,,,,,5,,,50,0
158880,note_on,0,0,2,,,,,,,,,2,,,66,56
158880,note_on,50,0,5,,,,,,,,,5,,,50,56
158880,note_on,0,0,1,,,,,,,,,1,,,69,56
158880,note_off,480,0,1,,,,,,,,,1,,,67,0
158880,note_off,480,0,2,,,,,,,,,2,,,64,0
159070,note_off,190,0,5,,,,,,,,,5,,,50,0
159120,note_on,50,0,5,,,,,,,,,5,,,50,57
159310,note_off,190,0,5,,,,,,,,,5,,,50,0
159335,note_off,455,0,2,,,,,,,,,2,,,66,0
159340,note_off,460,0,1,,,,,,,,,1,,,69,0
159360,note_on,20,0,1,,,,,,,,,1,,,71,62
159360,note_on,25,0,2,,,,,,,,,2,,,67,62
159360,note_on,50,0,5,,,,,,,,,5,,,50,62
159550,note_off,190,0,5,,,,,,,,,5,,,50,0
159600,note_on,50,0,5,,,,,,,,,5,,,50,61
159720,note_on,0,0,1,,,,,,,,,1,,,73,60
159720,note_off,360,0,1,,,,,,,,,1,,,71,0
159780,note_on,0,0,1,,,,,,,,,1,,,74,59
159780,note_off,60,0,1,,,,,,,,,1,,,73,0
159790,note_off,190,0,5,,,,,,,,,5,,,50,0
159840,note_on,50,0,5,,,,,,,,,5,,,50,59
159840,note_on,0,0,1,,,,,,,,,1,,,73,59
159840,note_off,60,0,1,,,,,,,,,1,,,74,0
160030,note_off,190,0,5,,,,,,,,,5,,,50,0
160080,note_on,50,0,5,,,,,,,,,5,,,50,57
160080,note_off,240,0,1,,,,,,,,,1,,,73,0
160080,note_on,0,0,1,,,,,,,,,1,,,71,57
160270,note_off,190,0,5,,,,,,,,,5,,,50,0
160320,note_on,0,0,1,,,,,,,,,1,,,69,56
160320,note_off,960,0,2,,,,,,,,,2,,,67,0
160320,note_off,240,0,1,,,,,,,,,1,,,71,0
160320,note_on,50,0,5,,,,,,,,,5,,,50,56
160320,note_on,0,0,2,,,,,,,,,2,,,66,56
160510,note_off,190,0,5,,,,,,,,,5,,,50,0
160560,note_on,50,0,5,,,,,,,,,5,,,50,54
160750,note_off,190,0,5,,,,,,,,,5,,,50,0
160785,note_off,465,0,1,,,,,,,,,1,,,69,0
160785,note_off,465,0,2,,,,,,,,,2,,,66,0
160800,note_on,50,0,5,,,,,,,,,5,,,50,52
160990,note_off,190,0,5,,,,,,,,,5,,,50,0
161040,note_on,50,0,5,,,,,,,,,5,,,50,50
161040,note_on,255,0,1,,,,,,,,,1,,,78,50
161160,set_tempo,3720,1,0,,,,,,402684,,,,,,,
161230,note_off,190,0,5,,,,,,,,,5,,,50,0
161244,note_off,14,0,5,,,,,,,,,5,,,38,0
161280,note_on,0,0,5,,,,,,,,,5,,,43,64
161280,note_on,0,0,1,,,,,,,,,1,,,76,64
161280,note_off,240,0,1,,,,,,,,,1,,,78,0
161280,note_on,36,0,5,,,,,,,,,5,,,55,64
161280,set_tempo,120,1,0,,,,,,400000,,,,,,,
161400,note_on,615,0,2,,,,,,,,,2,,,86,64
161484,note_off,204,0,1,,,,,,,,,1,,,76,0
161520,note_on,36,0,1,,,,,,,,,1,,,76,64
161520,note_off,120,0,2,,,,,,,,,2,,,86,0
161640,note_on,120,0,2,,,,,,,,,2,,,86,65
161665,note_off,385,0,5,,,,,,,,,5,,,43,0
161665,note_off,0,0,5,,,,,,,,,5,,,55,0
161724,note_off,204,0,1,,,,,,,,,1,,,76,0
161760,note_on,0,0,5,,,,,,,,,5,,,62,65
161760,note_on,95,0,5,,,,,,,,,5,,,50,65
161760,note_on,36,0,1,,,,,,,,,1,,,76,65
161760,note_off,120,0,2,,,,,,,,,2,,,86,0
161880,note_on,120,0,2,,,,,,,,,2,,,86,65
161964,note_off,204,0,1,,,,,,,,,1,,,76,0
162000,note_off,120,0,2,,,,,,,,,2,,,86,0
162000,note_on,36,0,1,,,,,,,,,1,,,76,66
162120,note_on,120,0,2,,,,,,,,,2,,,86,66
162145,note_off,0,0,5,,,,,,,,,5,,,50,0
162145,note_off,385,0,5,,,,,,,,,5,,,62,0
162204,note_off,204,0,1,,,,,,,,,1,,,76,0
162240,note_on,0,0,5,,,,,,,,,5,,,47,66
162240,note_on,95,0,5,,,,,,,,,5,,,59,66
162240,note_on,36,0,1,,,,,,,,,1,,,76,66
162240,note_off,120,0,2,,,,,,,,,2,,,86,0
162360,note_on,120,0,2,,,,,,,,,2,,,86,67
162444,note_off,204,0,1,,,,,,,,,1,,,76,0
162480,note_on,36,0,1,,,,,,,,,1,,,76,67
162480,note_off,120,0,2,,,,,,,,,2,,,86,0
162600,note_on,120,0,2,,,,,,,,,2,,,86,67
162625,note_off,0,0,5,,,,,,,,,5,,,59,0
162625,note_off,385,0,5,,,,,,,,,5,,,47,0
162684,note_off,204,0,1,,,,,,,,,1,,,76,0
162720,note_off,120,0,2,,,,,,,,,2,,,86,0
162720,note_on,0,0,5,,,,,,,,,5,,,43,68
162720,note_on,36,0,1,,,,,,,,,1,,,76,68
162720,note_on,95,0,5,,,,,,,,,5,,,55,68
162840,note_on,120,0,2,,,,,,,,,2,,,86,68
162924,note_off,204,0,1,,,,,,,,,1,,,76,0
162960,note_off,120,0,2,,,,,,,,,2,,,86,0
162960,note_on,36,0,1,,,,,,,,,1,,,76,68
163080,note_on,120,0,2,,,,,,,,,2,,,86,69
163105,note_off,0,0,5,,,,,,,,,5,,,55,0
163105,note_off,385,0,5,,,,,,,,,5,,,43,0
163164,note_off,204,0,1,,,,,,,,,1,,,76,0
163200,note_on,36,0,1,,,,,,,,,1,,,78,69
163200,note_on,0,0,5,,,,,,,,,5,,,45,69
163200,note_off,120,0,2,,,,,,,,,2,,,86,0
163200,note_on,95,0,5,,,,,,,,,5,,,57,69
163320,note_on,120,0,2,,,,,,,,,2,,,86,69
163404,note_off,204,0,1,,,,,,,,,1,,,78,0
163440,note_on,36,0,1,,,,,,,,,1,,,78,70
163440,note_off,120,0,2,,,,,,,,,2,,,86,0
163560,note_on,120,0,2,,,,,,,,,2,,,86,70
163585,note_off,0,0,5,,,,,,,,,5,,,57,0
163585,note_off,385,0,5,,,,,,,,,5,,,45,0
163644,note_off,204,0,1,,,,,,,,,1,,,78,0
163680,note_on,36,0,1,,,,,,,,,1,,,78,70
163680,note_on,95,0,5,,,,,,,,,5,,,62,70
163680,note_on,0,0,5,,,,,,,,,5,,,50,70
163680,note_off,120,0,2,,,,,,,,,2,,,86,0
163800,note_on,120,0,2,,,,,,,,,2,,,86,71
163884,note_off,204,0,1,,,,,,,,,1,,,78,0
163920,note_off,120,0,2,,,,,,,,,2,,,86,0
163920,note_on,36,0,1,,,,,,,,,1,,,78,71
164040,note_on,120,0,2,,,,,,,,,2,,,86,71
164065,note_off,385,0,5,,,,,,,,,5,,,50,0
164065,note_off,0,0,5,,,,,,,,,5,,,62,0
164124,note_off,204,0,1,,,,,,,,,1,,,78,0
164160,note_on,36,0,1,,,,,,,,,1,,,78,72
164160,note_on,95,0,5,,,,,,,,,5,,,60,72
164160,note_on,0,0,5,,,,,,,,,5,,,48,72
164160,note_off,120,0,2,,,,,,,,,2,,,86,0
164280,note_on,120,0,2,,,,,,,,,2,,,86,72
164364,note_off,204,0,1,,,,,,,,,1,,,78,0
164400,note_on,36,0,1,,,,,,,,,1,,,78,72
164400,note_off,120,0,2,,,,,,,,,2,,,86,0
164520,note_on,120,0,2,,,,,,,,,2,,,86,73
164545,note_off,0,0,5,,,,,,,,,5,,,60,0
164545,note_off,385,0,5,,,,,,,,,5,,,48,0
164604,note_off,204,0,1,,,,,,,,,1,,,78,0
164640,note_on,36,0,1,,,,,,,,,1,,,78,73
164640,note_on,95,0,5,,,,,,,,,5,,,45,73
164640,note_on,0,0,5,,,,,,,,,5,,,57,73
164640,note_off,120,0,2,,,,,,,,,2,,,86,0
164760,note_on,120,0,2,,,,,,,,,2,,,86,73
164844,note_off,204,0,1,,,,,,,,,1,,,78,0
164880,note_off,120,0,2,,,,,,,,,2,,,86,0
164880,note_on,36,0,1,,,,,,,,,1,,,78,74
165000,set_tempo,3720,1,0,,,,,,402684,,,,,,,
165000,note_on,120,0,2,,,,,,,,,2,,,86,74
165025,note_off,0,0,5,,,,,,,,,5,,,45,0
165025,note_off,385,0,5,,,,,,,,,5,,,57,0
165084,note_off,204,0,1,,,,,,,,,1,,,78,0
165120,note_on,36,0,1,,,,,,,,,1,,,79,74
165120,set_tempo,120,1,0,,,,,,400000,,,,,,,
165120,note_on,95,0,5,,,,,,,,,5,,,47,74
165120,note_on,0,0,5,,,,,,,,,5,,,59,74
165120,note_off,120,0,2,,,,,,,,,2,,,86,0
165240,note_on,120,0,2,,,,,,,,,2,,,86,75
165324,note_off,204,0,1,,,,,,,,,1,,,79,0
165360,note_off,120,0,2,,,,,,,,,2,,,86,0
165360,note_on,36,0,1,,,,,,,,,1,,,79,75
165480,note_on,120,0,2,,,,,,,,,2,,,86,75
165505,note_off,385,0,5,,,,,,,,,5,,,59,0
165505,note_off,0,0,5,,,,,,,,,5,,,47,0
165564,note_off,204,0,1,,,,,,,,,1,,,79,0
165600,note_on,0,0,5,,,,,,,,,5,,,55,76
165600,note_off,120,0,2,,,,,,,,,2,,,86,0
165600,note_on,95,0,5,,,,,,,,,5,,,67,76
165600,note_on,36,0,1,,,,,,,,,1,,,79,76
165720,note_on,120,0,2,,,,,,,,,2,,,86,76
165804,note_off,204,0,1,,,,,,,,,1,,,79,0
165840,note_off,120,0,2,,,,,,,,,2,,,86,0
165840,note_on,36,0,1,,,,,,,,,1,,,79,76
165960,note_on,120,0,2,,,,,,,,,2,,,86,77
165985,note_off,385,0,5,,,,,,,,,5,,,55,0
165985,note_off,0,0,5,,,,,,,,,5,,,67,0
166044,note_off,204,0,1,,,,,,,,,1,,,79,0
166080,note_on,95,0,5,,,,,,,,,5,,,62,77
166080,note_on,36,0,1,,,,,,,,,1,,,79,77
166080,note_off,120,0,2,,,,,,,,,2,,,86,0
166080,note_on,0,0,5,,,,,,,,,5,,,50,77
166200,note_on,120,0,2,,,,,,,,,2,,,86,78
166284,note_off,204,0,1,,,,,,,,,1,,,79,0
166320,note_on,36,0,1,,,,,,,,,1,,,79,78
166320,note_off,120,0,2,,,,,,,,,2,,,86,0
166440,note_on,120,0,2,,,,,,,,,2,,,86,78
166465,note_off,385,0,5,,,,,,,,,5,,,50,0
166465,note_off,0,0,5,,,,,,,,,5,,,62,0
166524,note_off,204,0,1,,,,,,,,,1,,,79,0
166560,note_on,36,0,1,,,,,,,,,1,,,79,79
166560,note_off,120,0,2,,,,,,,,,2,,,86,0
166560,note_on,95,0,5,,,,,,,,,5,,,59,79
166560,note_on,0,0,5,,,,,,,,,5,,,47,79
166680,note_on,120,0,2,,,,,,,,,2,,,86,79
166764,note_off,204,0,1,,,,,,,,,1,,,79,0
166800,note_on,36,0,1,,,,,,,,,1,,,79,79
166800,note_off,120,0,2,,,,,,,,,2,,,86,0
166920,note_on,120,0,2,,,,,,,,,2,,,86,80
166945,note_off,0,0,5,,,,,,,,,5,,,59,0
166945,note_off,385,0,5,,,,,,,,,5,,,47,0
167004,note_off,204,0,1,,,,,,,,,1,,,79,0
167040,note_on,0,0,2,,,,,,,,,2,,,74,80
167040,note_on,36,0,1,,,,,,,,,1,,,80,80
167040,note_on,95,0,5,,,,,,,,,5,,,58,80
167040,note_on,0,0,5,,,,,,,,,5,,,46,80
167040,note_off,120,0,2,,,,,,,,,2,,,86,0
167160,note_on,120,0,2,,,,,,,,,2,,,86,80
167244,note_off,204,0,1,,,,,,,,,1,,,80,0
167244,note_off,84,0,2,,,,,,,,,2,,,74,0
167280,note_off,36,0,2,,,,,,,,,2,,,86,0
167280,note_on,0,0,2,,,,,,,,,2,,,74,81
167280,note_on,36,0,1,,,,,,,,,1,,,80,81
167400,note_on,120,0,2,,,,,,,,,2,,,86,81
167425,note_off,385,0,5,,,,,,,,,5,,,46,0
167425,note_off,0,0,5,,,,,,,,,5,,,58,0
167484,note_off,84,0,2,,,,,,,,,2,,,74,0
167484,note_off,204,0,1,,,,,,,,,1,,,80,0
167520,note_off,36,0,2,,,,,,,,,2,,,86,0
167520,note_on,0,0,5,,,,,,,,,5,,,53,81
167520,note_on,36,0,1,,,,,,,,,1,,,80,81
167520,note_on,95,0,5,,,,,,,,,5,,,65,81
167520,note_on,0,0,2,,,,,,,,,2,,,74,81
167640,note_on,120,0,2,,,,,,,,,2,,,86,82
167724,note_off,84,0,2,,,,,,,,,2,,,74,0
167724,note_off,204,0,1,,,,,,,,,1,,,80,0
167760,note_on,0,0,2,,,,,,,,,2,,,74,82
167760,note_off,36,0,2,,,,,,,,,2,,,86,0
167760,note_on,36,0,1,,,,,,,,,1,,,80,82
167880,note_on,120,0,2,,,,,,,,,2,,,86,82
167905,note_off,0,0,5,,,,,,,,,5,,,65,0
167905,note_off,385,0,5,,,,,,,,,5,,,53,0
167964,note_off,204,0,1,,,,,,,,,1,,,80,0
167964,note_off,84,0,2,,,,,,,,,2,,,74,0
168000,note_off,36,0,2,,,,,,,,,2,,,86,0
168000,note_on,0,0,2,,,,,,,,,2,,,74,83
168000,note_on,95,0,5,,,,,,,,,5,,,50,83
168000,note_on,36,0,1,,,,,,,,,1,,,80,83
168000,note_on,0,0,5,,,,,,,,,5,,,62,83
168120,note_on,120,0,2,,,,,,,,,2,,,86,83
168204,note_off,204,0,1,,,,,,,,,1,,,80,0
168204,note_off,84,0,2,,,,,,,,,2,,,74,0
168240,note_on,36,0,1,,,,,,,,,1,,,80,83
168240,note_on,0,0,2,,,,,,,,,2,,,74,83
168240,note_off,36,0,2,,,,,,,,,2,,,86,0
168360,note_on,120,0,2,,,,,,,,,2,,,86,84
168385,note_off,385,0,5,,,,,,,,,5,,,62,0
168385,note_off,0,0,5,,,,,,,,,5,,,50,0
168444,note_off,204,0,1,,,,,,,,,1,,,80,0
168444,note_off,84,0,2,,,,,,,,,2,,,74,0
168480,note_off,36,0,2,,,,,,,,,2,,,86,0
168480,note_on,95,0,5,,,,,,,,,5,,,58,84
168480,note_on,0,0,5,,,,,,,,,5,,,46,84
168480,note_on,0,0,2,,,,,,,,,2,,,74,84
168480,note_on,36,0,1,,,,,,,,,1,,,80,84
168600,note_on,120,0,2,,,,,,,,,2,,,86,84
168684,note_off,84,0,2,,,,,,,,,2,,,74,0
168684,note_off,204,0,1,,,,,,,,,1,,,80,0
168720,note_on,36,0,1,,,,,,,,,1,,,80,85
168720,note_on,0,0,2,,,,,,,,,2,,,74,85
168720,note_off,36,0,2,,,,,,,,,2,,,86,0
168840,note_on,120,0,2,,,,,,,,,2,,,86,85
168840,set_tempo,3720,1,0,,,,,,402684,,,,,,,
168865,note_off,385,0,5,,,,,,,,,5,,,46,0
168865,note_off,0,0,5,,,,,,,,,5,,,58,0
168924,note_off,204,0,1,,,,,,,,,1,,,80,0
168924,note_off,84,0,2,,,,,,,,,2,,,74,0
168960,note_on,0,0,2,,,,,,,,,2,,,85,85
168960,note_on,0,0,2,,,,,,,,,2,,,76,85
168960,note_off,36,0,2,,,,,,,,,2,,,86,0
168960,note_on,36,0,1,,,,,,,,,1,,,81,85
168960,note_on,95,0,5,,,,,,,,,5,,,57,85
169055,note_off,95,0,5,,,,,,,,,5,,,57,0
169080,note_on,44300,0,3,,,,,,,,,3,,,69,81
169080,set_tempo,240,1,0,,,,,,400000,,,,,,,
169200,note_on,145,0,5,,,,,,,,,5,,,68,81
169200,note_off,120,0,3,,,,,,,,,3,,,69,0
169320,note_off,120,0,5,,,,,,,,,5,,,68,0
169320,note_on,120,0,3,,,,,,,,,3,,,69,81
169440,note_off,0,0,2,,,,,,,,,2,,,76,0
169440,note_on,120,0,5,,,,,,,,,5,,,71,80
169440,note_off,480,0,2,,,,,,,,,2,,,85,0
169440,note_off,480,0,1,,,,,,,,,1,,,81,0
169440,note_off,120,0,3,,,,,,,,,3,,,69,0
169560,note_off,120,0,5,,,,,,,,,5,,,71,0
169560,note_on,120,0,3,,,,,,,,,3,,,69,80
169680,note_on,120,0,5,,,,,,,,,5,,,66,80
169680,note_on,240,0,1,,,,,,,,,1,,,81,80
169680,set_tempo,600,1,0,,,,,,400000,,,,,,,
169680,note_off,120,0,3,,,,,,,,,3,,,69,0
169800,note_on,120,0,3,,,,,,,,,3,,,69,80
169800,note_off,120,0,5,,,,,,,,,5,,,66,0
169835,note_off,155,0,1,,,,,,,,,1,,,81,0
169920,note_off,120,0,3,,,,,,,,,3,,,69,0
169920,note_on,85,0,1,,,,,,,,,1,,,79,80
169920,note_on,120,0,5,,,,,,,,,5,,,64,80
170040,note_on,120,0,3,,,,,,,,,3,,,69,79
170040,note_off,120,0,5,,,,,,,,,5,,,64,0
170075,note_off,155,0,1,,,,,,,,,1,,,79,0
170160,note_off,120,0,3,,,,,,,,,3,,,69,0
170160,note_on,85,0,1,,,,,,,,,1,,,78,79
170160,note_on,120,0,5,,,,,,,,,5,,,62,79
170280,note_off,120,0,5,,,,,,,,,5,,,62,0
170280,note_on,120,0,3,,,,,,,,,3,,,69,79
170315,note_off,155,0,1,,,,,,,,,1,,,78,0
170400,note_off,120,0,3,,,,,,,,,3,,,69,0
170400,note_on,120,0,5,,,,,,,,,5,,,61,79
170400,note_on,85,0,1,,,,,,,,,1,,,76,79
170520,note_on,120,0,3,,,,,,,,,3,,,69,79
170520,note_off,120,0,5,,,,,,,,,5,,,61,0
170555,note_off,155,0,1,,,,,,,,,1,,,76,0
170640,note_off,120,0,3,,,,,,,,,3,,,69,0
170640,note_on,120,0,5,,,,,,,,,5,,,59,78
170640,note_on,85,0,1,,,,,,,,,1,,,74,78
170760,note_on,120,0,3,,,,,,,,,3,,,69,78
170760,note_off,120,0,5,,,,,,,,,5,,,59,0
170795,note_off,155,0,1,,,,,,,,,1,,,74,0
170880,note_on,85,0,1,,,,,,,,,1,,,73,78
170880,note_off,120,0,3,,,,,,,,,3,,,69,0
170880,note_on,120,0,5,,,,,,,,,5,,,57,78
171000,note_on,120,0,3,,,,,,,,,3,,,69,78
171000,note_off,120,0,5,,,,,,,,,5,,,57,0
171035,note_off,155,0,1,,,,,,,,,1,,,73,0
171120,note_on,85,0,1,,,,,,,,,1,,,74,77
171120,note_on,120,0,5,,,,,,,,,5,,,59,77
171120,note_off,120,0,3,,,,,,,,,3,,,69,0
171240,note_off,120,0,5,,,,,,,,,5,,,59,0
171240,note_on,120,0,3,,,,,,,,,3,,,69,77
171275,note_off,155,0,1,,,,,,,,,1,,,74,0
171360,note_on,85,0,1,,,,,,,,,1,,,76,77
171360,note_off,120,0,3,,,,,,,,,3,,,69,0
171360,note_on,120,0,5,,,,,,,,,5,,,61,77
171480,note_on,120,0,3,,,,,,,,,3,,,69,77
171480,note_off,120,0,5,,,,,,,,,5,,,61,0
171515,note_off,155,0,1,,,,,,,,,1,,,76,0
171600,note_on,120,0,5,,,,,,,,,5,,,62,77
171600,note_off,120,0,3,,,,,,,,,3,,,69,0
171600,note_on,85,0,1,,,,,,,,,1,,,78,77
171720,note_on,120,0,3,,,,,,,,,3,,,69,76
171720,note_off,120,0,5,,,,,,,,,5,,,62,0
171755,note_off,155,0,1,,,,,,,,,1,,,78,0
171840,note_on,85,0,1,,,,,,,,,1,,,81,76
171840,note_on,120,0,5,,,,,,,,,5,,,64,76
171840,note_off,120,0,3,,,,,,,,,3,,,69,0
171960,note_off,120,0,1,,,,,,,,,1,,,81,0
171960,note_off,120,0,5,,,,,,,,,5,,,64,0
171960,note_on,0,0,1,,,,,,,,,1,,,79,76
171960,note_on,120,0,3,,,,,,,,,3,,,69,76
172080,note_off,120,0,1,,,,,,,,,1,,,79,0
172080,note_on,0,0,1,,,,,,,,,1,,,78,76
172080,note_on,120,0,5,,,,,,,,,5,,,61,76
172080,note_off,120,0,3,,,,,,,,,3,,,69,0
172200,note_on,120,0,3,,,,,,,,,3,,,69,76
172200,note_off,120,0,5,,,,,,,,,5,,,61,0
172200,note_off,120,0,1,,,,,,,,,1,,,78,0
172200,note_on,0,0,1,,,,,,,,,1,,,76,76
172305,note_off,105,0,1,,,,,,,,,1,,,76,0
172320,note_off,120,0,3,,,,,,,,,3,,,69,0
172320,note_on,15,0,1,,,,,,,,,1,,,79,75
172320,note_on,120,0,5,,,,,,,,,5,,,62,75
172440,note_on,0,0,1,,,,,,,,,1,,,78,75
172440,note_off,120,0,1,,,,,,,,,1,,,79,0
172440,note_on,120,0,3,,,,,,,,,3,,,69,75
172440,note_off,120,0,5,,,,,,,,,5,,,62,0
172560,note_off,120,0,3,,,,,,,,,3,,,69,0
172560,note_on,120,0,5,,,,,,,,,5,,,59,75
172560,note_on,0,0,1,,,,,,,,,1,,,76,75
172560,note_off,120,0,1,,,,,,,,,1,,,78,0
172680,set_tempo,3000,1,0,,,,,,402684,,,,,,,
172680,note_off,120,0,1,,,,,,,,,1,,,76,0
172680,note_on,120,0,3,,,,,,,,,3,,,69,75
172680,note_off,120,0,5,,,,,,,,,5,,,59,0
172680,note_on,0,0,1,,,,,,,,,1,,,74,75
172785,note_off,105,0,1,,,,,,,,,1,,,74,0
172800,note_on,3360,0,2,,,,,,,,,2,,,73,74
172800,note_on,120,0,5,,,,,,,,,5,,,57,74
172800,note_off,120,0,3,,,,,,,,,3,,,69,0
172840,note_on,40,0,2,,,,,,,,,2,,,76,74
172880,note_on,95,0,1,,,,,,,,,1,,,81,74
172895,note_off,95,0,5,,,,,,,,,5,,,57,0
172920,note_on,120,0,3,,,,,,,,,3,,,69,74
172920,set_tempo,240,1,0,,,,,,400000,,,,,,,
173040,note_off,120,0,3,,,,,,,,,3,,,69,0
173040,note_on,145,0,5,,,,,,,,,5,,,68,74
173160,note_off,120,0,5,,,,,,,,,5,,,68,0
173160,note_on,120,0,3,,,,,,,,,3,,,69,74
173280,note_on,120,0,5,,,,,,,,,5,,,71,74
173280,note_off,120,0,3,,,,,,,,,3,,,69,0
173285,note_off,0,0,2,,,,,,,,,2,,,73,0
173285,note_off,445,0,2,,,,,,,,,2,,,76,0
173295,note_off,415,0,1,,,,,,,,,1,,,81,0
173400,note_on,120,0,3,,,,,,,,,3,,,69,73
173400,note_off,120,0,5,,,,,,,,,5,,,71,0
173520,note_off,120,0,3,,,,,,,,,3,,,69,0
173520,note_on,120,0,5,,,,,,,,,5,,,66,73
173520,note_on,225,0,1,,,,,,,,,1,,,81,73
173520,set_tempo,600,1,0,,,,,,400000,,,,,,,
173640,note_off,120,0,5,,,,,,,,,5,,,66,0
173640,note_on,120,0,3,,,,,,,,,3,,,69,73
173675,note_off,155,0,1,,,,,,,,,1,,,81,0
173760,note_on,85,0,1,,,,,,,,,1,,,79,73
173760,note_on,120,0,5,,,,,,,,,5,,,64,73
173760,note_off,120,0,3,,,,,,,,,3,,,69,0
173880,note_off,120,0,5,,,,,,,,,5,,,64,0
173880,note_on,120,0,3,,,,,,,,,3,,,69,72
173915,note_off,155,0,1,,,,,,,,,1,,,79,0
174000,note_on,85,0,1,,,,,,,,,1,,,78,72
174000,note_off,120,0,3,,,,,,,,,3,,,69,0
174000,note_on,120,0,5,,,,,,,,,5,,,62,72
174120,note_on,120,0,3,,,,,,,,,3,,,69,72
174120,note_off,120,0,5,,,,,,,,,5,,,62,0
174155,note_off,155,0,1,,,,,,,,,1,,,78,0
174240,note_on,85,0,1,,,,,,,,,1,,,76,72
174240,note_on,120,0,5,,,,,,,,,5,,,61,72
174240,note_off,120,0,3,,,,,,,,,3,,,69,0
174360,note_off,120,0,5,,,,,,,,,5,,,61,0
174360,note_on,120,0,3,,,,,,,,,3,,,69,72
174395,note_off,155,0,1,,,,,,,,,1,,,76,0
174480,note_on,85,0,1,,,,,,,,,1,,,74,71
174480,note_off,120,0,3,,,,,,,,,3,,,69,0
174480,note_on,120,0,5,,,,,,,,,5,,,59,71
174600,note_off,120,0,5,,,,,,,,,5,,,59,0
174600,note_on,120,0,3,,,,,,,,,3,,,69,71
174635,note_off,155,0,1,,,,,,,,,1,,,74,0
174720,note_on,85,0,1,,,,,,,,,1,,,73,71
174720,note_off,120,0,3,,,,,,,,,3,,,69,0
174720,note_on,120,0,5,,,,,,,,,5,,,57,71
174840,note_off,120,0,5,,,,,,,,,5,,,57,0
174840,note_on,120,0,3,,,,,,,,,3,,,69,71
174875,note_off,155,0,1,,,,,,,,,1,,,73,0
174960,note_on,120,0,5,,,,,,,,,5,,,59,71
174960,note_on,85,0,1,,,,,,,,,1,,,74,71
174960,note_off,120,0,3,,,,,,,,,3,,,69,0
175080,note_off,120,0,5,,,,,,,,,5,,,59,0
175080,note_on,120,0,3,,,,,,,,,3,,,69,70
175115,note_off,155,0,1,,,,,,,,,1,,,74,0
175200,note_off,120,0,3,,,,,,,,,3,,,69,0
175200,note_on,85,0,1,,,,,,,,,1,,,76,70
175200,note_on,120,0,5,,,,,,,,,5,,,61,70
175320,note_on,120,0,3,,,,,,,,,3,,,69,70
175320,note_off,120,0,5,,,,,,,,,5,,,61,0
175355,note_off,155,0,1,,,,,,,,,1,,,76,0
175440,note_off,120,0,3,,,,,,,,,3,,,69,0
175440,note_on,85,0,1,,,,,,,,,1,,,78,70
175440,note_on,120,0,5,,,,,,,,,5,,,62,70
175560,note_off,120,0,5,,,,,,,,,5,,,62,0
175560,note_on,120,0,3,,,,,,,,,3,,,69,69
175595,note_off,155,0,1,,,,,,,,,1,,,78,0
175680,note_on,85,0,1,,,,,,,,,1,,,81,69
175680,note_off,120,0,3,,,,,,,,,3,,,69,0
175680,note_on,120,0,5,,,,,,,,,5,,,64,69
175800,note_off,120,0,1,,,,,,,,,1,,,81,0
175800,note_off,120,0,5,,,,,,,,,5,,,64,0
175800,note_on,0,0,1,,,,,,,,,1,,,79,69
175800,note_on,120,0,3,,,,,,,,,3,,,69,69
175920,note_off,120,0,1,,,,,,,,,1,,,79,0
175920,note_on,0,0,1,,,,,,,,,1,,,78,69
175920,note_off,120,0,3,,,,,,,,,3,,,69,0
175920,note_on,120,0,5,,,,,,,,,5,,,61,69
176040,note_on,0,0,1,,,,,,,,,1,,,76,69
176040,note_off,120,0,5,,,,,,,,,5,,,61,0
176040,note_on,120,0,3,,,,,,,,,3,,,69,69
176040,note_off,120,0,1,,,,,,,,,1,,,78,0
176145,note_off,105,0,1,,,,,,,,,1,,,76,0
176160,note_on,120,0,5,,,,,,,,,5,,,62,68
176160,note_off,120,0,3,,,,,,,,,3,,,69,0
176160,note_on,15,0,1,,,,,,,,,1,,,79,68
176280,note_off,120,0,1,,,,,,,,,1,,,79,0
176280,note_on,0,0,1,,,,,,,,,1,,,78,68
176280,note_off,120,0,5,,,,,,,,,5,,,62,0
176280,note_on,120,0,3,,,,,,,,,3,,,69,68
176400,note_off,120,0,3,,,,,,,,,3,,,69,0
176400,note_off,120,0,1,,,,,,,,,1,,,78,0
176400,note_on,120,0,5,,,,,,,,,5,,,59,68
176400,note_on,0,0,1,,,,,,,,,1,,,76,68
176520,note_off,120,0,5,,,,,,,,,5,,,59,0
176520,note_on,0,0,1,,,,,,,,,1,,,74,68
176520,note_on,120,0,3,,,,,,,,,3,,,69,68
176520,note_off,120,0,1,,,,,,,,,1,,,76,0
176600,set_tempo,3080,1,0,,,,,,402684,,,,,,,
176625,note_off,105,0,1,,,,,,,,,1,,,74,0
176640,note_on,120,0,5,,,,,,,,,5,,,57,69
176640,note_on,3355,0,2,,,,,,,,,2,,,73,69
176640,note_off,120,0,3,,,,,,,,,3,,,69,0
176640,set_tempo,40,1,0,,,,,,408163,,,,,,,
176680,note_on,40,0,2,,,,,,,,,2,,,76,69
176720,note_on,95,0,1,,,,,,,,,1,,,81,68
176880,set_tempo,240,1,0,,,,,,413793,,,,,,,
177025,note_off,385,0,5,,,,,,,,,5,,,57,0
177120,note_on,27360,0,4,,,,,,,,,4,,,64,65
177120,note_on,0,0,4,,,,,,,,,4,,,61,65
177120,note_on,95,0,5,,,,,,,,,5,,,57,65
177125,note_off,445,0,2,,,,,,,,,2,,,73,0
177135,note_off,415,0,1,,,,,,,,,1,,,81,0
177160,note_on,25,0,1,,,,,,,,,1,,,76,69
177160,note_off,35,0,2,,,,,,,,,2,,,76,0
177240,note_off,80,0,1,,,,,,,,,1,,,76,0
177240,note_on,0,0,1,,,,,,,,,1,,,73,64
177360,note_on,0,0,1,,,,,,,,,1,,,76,63
177360,note_off,120,0,1,,,,,,,,,1,,,73,0
177480,note_off,120,0,1,,,,,,,,,1,,,76,0
177480,note_on,0,0,1,,,,,,,,,1,,,73,62
177505,note_off,0,0,4,,,,,,,,,4,,,64,0
177505,note_off,385,0,5,,,,,,,,,5,,,57,0
177505,note_off,385,0,4,,,,,,,,,4,,,61,0
177600,note_on,95,0,5,,,,,,,,,5,,,57,61
177600,note_on,0,0,1,,,,,,,,,1,,,69,61
177600,note_off,120,0,1,,,,,,,,,1,,,73,0
177600,note_on,440,0,2,,,,,,,,,2,,,61,61
177600,note_on,0,0,2,,,,,,,,,2,,,64,61
177985,note_off,385,0,2,,,,,,,,,2,,,64,0
177985,note_off,0,0,2,,,,,,,,,2,,,61,0
177985,note_off,385,0,5,,,,,,,,,5,,,57,0
178080,set_tempo,1200,1,0,,,,,,526315,,,,,,,
178080,note_off,480,0,1,,,,,,,,,1,,,69,0
178560,set_tempo,480,1,0,,,,,,408163,,,,,,,
178560,note_on,480,0,1,,,,,,,,,1,,,69,56
179040,note_off,480,0,1,,,,,,,,,1,,,69,0
179040,note_on,0,0,1,,,,,,,,,1,,,74,60
179280,note_on,0,0,1,,,,,,,,,1,,,73,61
179280,note_off,240,0,1,,,,,,,,,1,,,74,0
179520,note_off,240,0,1,,,,,,,,,1,,,73,0
179520,note_on,0,0,1,,,,,,,,,1,,,76,63
179760,note_off,240,0,1,,,,,,,,,1,,,76,0
179760,note_on,0,0,1,,,,,,,,,1,,,74,60
180000,note_on,0,0,1,,,,,,,,,1,,,73,58
180000,note_off,240,0,1,,,,,,,,,1,,,74,0
180240,note_on,0,0,1,,,,,,,,,1,,,71,56
180240,note_off,240,0,1,,,,,,,,,1,,,73,0
180420,set_tempo,1860,1,0,,,,,,413793,,,,,,,
180465,note_off,225,0,1,,,,,,,,,1,,,71,0
180480,note_on,2975,0,4,,,,,,,,,4,,,61,63
180480,note_on,15,0,1,,,,,,,,,1,,,71,65
180480,note_on,3840,0,3,,,,,,,,,3,,,64,63
180480,set_tempo,60,1,0,,,,,,402684,,,,,,,
180540,note_off,60,0,1,,,,,,,,,1,,,71,0
180540,note_on,0,0,1,,,,,,,,,1,,,73,64
180600,note_on,60,0,1,,,,,,,,,1,,,71,63
180605,note_off,5,0,1,,,,,,,,,1,,,73,0
180670,note_off,190,0,4,,,,,,,,,4,,,61,0
180670,note_off,190,0,3,,,,,,,,,3,,,64,0
180705,note_off,100,0,1,,,,,,,,,1,,,71,0
180720,note_on,50,0,4,,,,,,,,,4,,,61,62
180720,note_on,50,0,3,,,,,,,,,3,,,64,62
180720,note_on,15,0,1,,,,,,,,,1,,,69,62
180910,note_off,190,0,3,,,,,,,,,3,,,64,0
180910,note_off,190,0,4,,,,,,,,,4,,,61,0
180960,note_on,50,0,3,,,,,,,,,3,,,64,61
180960,note_on,50,0,4,,,,,,,,,4,,,61,61
180960,note_on,0,0,1,,,,,,,,,1,,,69,58
180960,note_off,240,0,1,,,,,,,,,1,,,69,0
181150,note_off,190,0,3,,,,,,,,,3,,,64,0
181150,note_off,190,0,4,,,,,,,,,4,,,61,0
181200,note_on,50,0,4,,,,,,,,,4,,,61,61
181200,note_on,50,0,3,,,,,,,,,3,,,64,61
181390,note_off,190,0,3,,,,,,,,,3,,,64,0
181390,note_off,190,0,4,,,,,,,,,4,,,61,0
181440,note_on,50,0,4,,,,,,,,,4,,,61,60
181440,note_on,50,0,3,,,,,,,,,3,,,64,60
181620,note_on,660,0,1,,,,,,,,,1,,,71,59
181630,note_off,190,0,3,,,,,,,,,3,,,64,0
181630,note_off,190,0,4,,,,,,,,,4,,,61,0
181640,note_off,20,0,1,,,,,,,,,1,,,69,0
181680,note_on,40,0,1,,,,,,,,,1,,,69,59
181680,note_on,50,0,3,,,,,,,,,3,,,64,59
181680,note_on,50,0,4,,,,,,,,,4,,,61,59
181685,note_off,5,0,1,,,,,,,,,1,,,71,0
181800,note_off,115,0,1,,,,,,,,,1,,,69,0
181800,note_on,0,0,1,,,,,,,,,1,,,68,58
181870,note_off,190,0,4,,,,,,,,,4,,,61,0
181870,note_off,190,0,3,,,,,,,,,3,,,64,0
181905,note_off,105,0,1,,,,,,,,,1,,,68,0
181920,note_on,50,0,4,,,,,,,,,4,,,61,58
181920,note_on,15,0,1,,,,,,,,,1,,,69,58
181920,note_on,50,0,3,,,,,,,,,3,,,64,58
182075,note_off,155,0,1,,,,,,,,,1,,,69,0
182110,note_off,190,0,4,,,,,,,,,4,,,61,0
182110,note_off,190,0,3,,,,,,,,,3,,,64,0
182160,note_on,50,0,3,,,,,,,,,3,,,64,57
182160,note_on,85,0,1,,,,,,,,,1,,,71,57
182160,note_on,50,0,4,,,,,,,,,4,,,61,57
182315,note_off,155,0,1,,,,,,,,,1,,,71,0
182340,set_tempo,1860,1,0,,,,,,408163,,,,,,,
182350,note_off,190,0,4,,,,,,,,,4,,,61,0
182350,note_off,190,0,3,,,,,,,,,3,,,64,0
182400,note_on,50,0,3,,,,,,,,,3,,,62,56
182400,note_on,85,0,1,,,,,,,,,1,,,69,56
182400,note_on,50,0,4,,,,,,,,,4,,,59,56
182400,set_tempo,60,1,0,,,,,,402684,,,,,,,
182590,note_off,190,0,4,,,,,,,,,4,,,59,0
182590,note_off,190,0,3,,,,,,,,,3,,,62,0
182640,note_on,0,0,1,,,,,,,,,1,,,67,58
182640,note_on,50,0,3,,,,,,,,,3,,,62,55
182640,note_off,240,0,1,,,,,,,,,1,,,69,0
182640,note_on,50,0,4,,,,,,,,,4,,,59,55
182830,note_off,190,0,4,,,,,,,,,4,,,59,0
182830,note_off,190,0,3,,,,,,,,,3,,,62,0
182880,note_on,50,0,4,,,,,,,,,4,,,59,54
182880,note_on,50,0,3,,,,,,,,,3,,,62,54
183070,note_off,190,0,3,,,,,,,,,3,,,62,0
183070,note_off,190,0,4,,,,,,,,,4,,,59,0
183120,note_off,480,0,1,,,,,,,,,1,,,67,0
183120,note_on,0,0,1,,,,,,,,,1,,,71,54
183120,note_on,50,0,4,,,,,,,,,4,,,59,54
183120,note_on,50,0,3,,,,,,,,,3,,,62,54
183310,note_off,190,0,3,,,,,,,,,3,,,62,0
183310,note_off,190,0,4,,,,,,,,,4,,,59,0
183345,note_off,225,0,1,,,,,,,,,1,,,71,0
183360,note_on,50,0,3,,,,,,,,,3,,,61,53
183360,note_on,15,0,1,,,,,,,,,1,,,67,53
183360,note_on,50,0,4,,,,,,,,,4,,,57,53
183550,note_off,190,0,3,,,,,,,,,3,,,61,0
183550,note_off,190,0,4,,,,,,,,,4,,,57,0
183600,note_on,50,0,3,,,,,,,,,3,,,61,52
183600,note_on,0,0,1,,,,,,,,,1,,,66,57
183600,note_on,50,0,4,,,,,,,,,4,,,57,52
183600,note_off,240,0,1,,,,,,,,,1,,,67,0
183790,note_off,190,0,4,,,,,,,,,4,,,57,0
183790,note_off,190,0,3,,,,,,,,,3,,,61,0
183840,note_on,50,0,4,,,,,,,,,4,,,57,51
183840,note_on,50,0,3,,,,,,,,,3,,,61,51
184030,note_off,190,0,3,,,,,,,,,3,,,61,0
184030,note_off,190,0,4,,,,,,,,,4,,,57,0
184080,note_on,0,0,1,,,,,,,,,1,,,69,50
184080,note_off,480,0,1,,,,,,,,,1,,,66,0
184080,note_on,50,0,3,,,,,,,,,3,,,61,50
184080,note_on,50,0,4,,,,,,,,,4,,,57,50
184260,set_tempo,1860,1,0,,,,,,408163,,,,,,,
184270,note_off,190,0,4,,,,,,,,,4,,,57,0
184270,note_off,190,0,3,,,,,,,,,3,,,61,0
184305,note_off,225,0,1,,,,,,,,,1,,,69,0
184320,note_on,15,0,1,,,,,,,,,1,,,66,49
184320,set_tempo,60,1,0,,,,,,400000,,,,,,,
184320,note_on,50,0,3,,,,,,,,,3,,,59,49
184320,note_on,50,0,4,,,,,,,,,4,,,55,49
184440,note_on,0,0,1,,,,,,,,,1,,,64,49
184440,note_off,120,0,1,,,,,,,,,1,,,66,0
184510,note_off,190,0,3,,,,,,,,,3,,,59,0
184510,note_off,190,0,4,,,,,,,,,4,,,55,0
184560,note_on,50,0,4,,,,,,,,,4,,,55,48
184560,note_on,0,0,1,,,,,,,,,1,,,67,48
184560,note_on,50,0,3,,,,,,,,,3,,,59,48
184560,note_off,120,0,1,,,,,,,,,1,,,64,0
184680,note_on,0,0,1,,,,,,,,,1,,,66,48
184680,note_off,120,0,1,,,,,,,,,1,,,67,0
184750,note_off,190,0,4,,,,,,,,,4,,,55,0
184750,note_off,190,0,3,,,,,,,,,3,,,59,0
184800,note_on,50,0,4,,,,,,,,,4,,,55,48
184800,note_on,0,0,1,,,,,,,,,1,,,69,48
184800,note_off,120,0,1,,,,,,,,,1,,,66,0
184800,note_on,50,0,3,,,,,,,,,3,,,59,48
184920,note_on,0,0,1,,,,,,,,,1,,,67,47
184920,note_off,120,0,1,,,,,,,,,1,,,69,0
184990,note_off,190,0,3,,,,,,,,,3,,,59,0
184990,note_off,190,0,4,,,,,,,,,4,,,55,0
185040,note_on,0,0,1,,,,,,,,,1,,,66,47
185040,note_off,120,0,1,,,,,,,,,1,,,67,0
185040,note_on,50,0,4,,,,,,,,,4,,,55,47
185040,note_on,50,0,3,,,,,,,,,3,,,59,47
185160,note_off,120,0,1,,,,,,,,,1,,,66,0
185160,note_on,0,0,1,,,,,,,,,1,,,64,46
185230,note_off,190,0,4,,,,,,,,,4,,,55,0
185230,note_off,190,0,3,,,,,,,,,3,,,59,0
185280,note_off,120,0,1,,,,,,,,,1,,,64,0
185280,note_on,50,0,4,,,,,,,,,4,,,54,44
185280,note_on,0,0,1,,,,,,,,,1,,,62,44
185280,note_on,50,0,3,,,,,,,,,3,,,57,44
185400,note_on,0,0,1,,,,,,,,,1,,,64,44
185400,note_off,120,0,1,,,,,,,,,1,,,62,0
185520,note_off,120,0,1,,,,,,,,,1,,,64,0
185520,note_on,0,0,1,,,,,,,,,1,,,62,45
185640,note_off,120,0,1,,,,,,,,,1,,,62,0
185640,note_on,0,0,1,,,,,,,,,1,,,61,46
185660,note_off,380,0,3,,,,,,,,,3,,,57,0
185660,note_off,380,0,4,,,,,,,,,4,,,54,0
185760,note_on,0,0,1,,,,,,,,,1,,,62,47
185760,note_off,120,0,1,,,,,,,,,1,,,61,0
185880,note_on,0,0,1,,,,,,,,,1,,,64,47
185880,note_off,120,0,1,,,,,,,,,1,,,62,0
186000,note_on,0,0,1,,,,,,,,,1,,,66,48
186000,note_off,120,0,1,,,,,,,,,1,,,64,0
186120,note_on,0,0,1,,,,,,,,,1,,,67,49
186120,note_off,120,0,1,,,,,,,,,1,,,66,0
186240,note_on,0,0,1,,,,,,,,,1,,,68,49
186240,note_off,120,0,1,,,,,,,,,1,,,67,0
186360,note_on,0,0,1,,,,,,,,,1,,,69,50
186360,note_off,120,0,1,,,,,,,,,1,,,68,0
186480,note_off,120,0,1,,,,,,,,,1,,,69,0
186480,note_on,0,0,1,,,,,,,,,1,,,71,51
186600,note_off,120,0,1,,,,,,,,,1,,,71,0
186600,note_on,0,0,1,,,,,,,,,1,,,69,52
186720,note_off,120,0,1,,,,,,,,,1,,,69,0
186720,note_on,0,0,1,,,,,,,,,1,,,73,52
186840,note_off,120,0,1,,,,,,,,,1,,,73,0
186840,note_on,0,0,1,,,,,,,,,1,,,71,53
186960,note_off,120,0,1,,,,,,,,,1,,,71,0
186960,note_on,0,0,1,,,,,,,,,1,,,74,54
187080,note_off,120,0,1,,,,,,,,,1,,,74,0
187080,note_on,0,0,1,,,,,,,,,1,,,73,54
187200,note_off,120,0,1,,,,,,,,,1,,,73,0
187200,note_on,0,0,1,,,,,,,,,1,,,76,55
187320,note_on,0,0,1,,,,,,,,,1,,,74,56
187320,note_off,120,0,1,,,,,,,,,1,,,76,0
187440,note_on,0,0,1,,,,,,,,,1,,,78,57
187440,note_off,120,0,1,,,,,,,,,1,,,74,0
187560,note_on,0,0,1,,,,,,,,,1,,,76,57
187560,note_off,120,0,1,,,,,,,,,1,,,78,0
187680,note_on,0,0,1,,,,,,,,,1,,,79,58
187680,note_off,120,0,1,,,,,,,,,1,,,76,0
187800,note_on,0,0,1,,,,,,,,,1,,,78,59
187800,note_off,120,0,1,,,,,,,,,1,,,79,0
187920,note_on,0,0,1,,,,,,,,,1,,,81,60
187920,note_off,120,0,1,,,,,,,,,1,,,78,0
188040,note_on,0,0,1,,,,,,,,,1,,,79,60
188040,note_off,120,0,1,,,,,,,,,1,,,81,0
188160,note_off,120,0,1,,,,,,,,,1,,,79,0
188160,note_on,0,0,1,,,,,,,,,1,,,80,61
188280,note_on,0,0,1,,,,,,,,,1,,,81,62
188280,note_off,120,0,1,,,,,,,,,1,,,80,0
188400,note_off,120,0,1,,,,,,,,,1,,,81,0
188400,note_on,0,0,1,,,,,,,,,1,,,83,62
188520,note_off,120,0,1,,,,,,,,,1,,,83,0
188520,note_on,0,0,1,,,,,,,,,1,,,81,63
188640,note_off,120,0,1,,,,,,,,,1,,,81,0
188640,note_on,0,0,1,,,,,,,,,1,,,85,64
188760,note_off,120,0,1,,,,,,,,,1,,,85,0
188760,note_on,0,0,1,,,,,,,,,1,,,83,65
188880,note_off,120,0,1,,,,,,,,,1,,,83,0
188880,note_on,0,0,1,,,,,,,,,1,,,86,65
189000,set_tempo,4680,1,0,,,,,,408163,,,,,,,
189000,note_on,0,0,1,,,,,,,,,1,,,85,66
189000,note_off,120,0,1,,,,,,,,,1,,,86,0
189120,note_on,0,0,1,,,,,,,,,1,,,88,67
189120,note_off,120,0,1,,,,,,,,,1,,,85,0
189360,note_off,240,0,1,,,,,,,,,1,,,88,0
189360,note_on,0,0,1,,,,,,,,,1,,,86,62
189600,note_off,240,0,1,,,,,,,,,1,,,86,0
189600,note_on,0,0,1,,,,,,,,,1,,,85,60
189840,note_off,240,0,1,,,,,,,,,1,,,85,0
189840,note_on,0,0,1,,,,,,,,,1,,,83,57
190020,set_tempo,1020,1,0,,,,,,413793,,,,,,,
190050,note_off,210,0,1,,,,,,,,,1,,,83,0
190080,note_on,4420,0,4,,,,,,,,,4,,,73,63
190080,note_on,30,0,1,,,,,,,,,1,,,80,66
190080,note_on,4420,0,3,,,,,,,,,3,,,76,63
190080,set_tempo,60,1,0,,,,,,402684,,,,,,,
190270,note_off,190,0,4,,,,,,,,,4,,,73,0
190270,note_off,190,0,3,,,,,,,,,3,,,76,0
190320,note_on,50,0,4,,,,,,,,,4,,,73,63
190320,note_on,50,0,3,,,,,,,,,3,,,76,63
190320,note_on,0,0,1,,,,,,,,,1,,,83,63
190320,note_off,240,0,1,,,,,,,,,1,,,80,0
190440,note_on,0,0,1,,,,,,,,,1,,,81,62
190440,note_off,120,0,1,,,,,,,,,1,,,83,0
190510,note_off,190,0,3,,,,,,,,,3,,,76,0
190510,note_off,190,0,4,,,,,,,,,4,,,73,0
190530,note_off,90,0,1,,,,,,,,,1,,,81,0
190560,note_on,50,0,3,,,,,,,,,3,,,76,62
190560,note_on,30,0,1,,,,,,,,,1,,,81,61
190560,note_on,50,0,4,,,,,,,,,4,,,73,62
190750,note_off,190,0,4,,,,,,,,,4,,,73,0
190750,note_off,190,0,3,,,,,,,,,3,,,76,0
190800,note_on,50,0,3,,,,,,,,,3,,,76,61
190800,note_on,50,0,4,,,,,,,,,4,,,73,61
190990,note_off,190,0,3,,,,,,,,,3,,,76,0
190990,note_off,190,0,4,,,,,,,,,4,,,73,0
191040,note_on,50,0,4,,,,,,,,,4,,,73,61
191040,note_on,50,0,3,,,,,,,,,3,,,76,61
191160,note_on,600,0,1,,,,,,,,,1,,,83,60
191175,note_off,15,0,1,,,,,,,,,1,,,81,0
191230,note_off,190,0,4,,,,,,,,,4,,,73,0
191230,note_off,190,0,3,,,,,,,,,3,,,76,0
191280,note_on,50,0,3,,,,,,,,,3,,,76,60
191280,note_on,0,0,1,,,,,,,,,1,,,81,60
191280,note_off,105,0,1,,,,,,,,,1,,,83,0
191280,note_on,50,0,4,,,,,,,,,4,,,73,60
191400,note_on,0,0,1,,,,,,,,,1,,,80,60
191400,note_off,120,0,1,,,,,,,,,1,,,81,0
191470,note_off,190,0,3,,,,,,,,,3,,,76,0
191470,note_off,190,0,4,,,,,,,,,4,,,73,0
191505,note_off,105,0,1,,,,,,,,,1,,,80,0
191520,note_on,50,0,3,,,,,,,,,3,,,76,59
191520,note_on,15,0,1,,,,,,,,,1,,,81,59
191520,note_on,50,0,4,,,,,,,,,4,,,73,59
191675,note_off,155,0,1,,,,,,,,,1,,,81,0
191710,note_off,190,0,3,,,,,,,,,3,,,76,0
191710,note_off,190,0,4,,,,,,,,,4,,,73,0
191760,note_on,50,0,3,,,,,,,,,3,,,76,59
191760,note_on,50,0,4,,,,,,,,,4,,,73,59
191760,note_on,85,0,1,,,,,,,,,1,,,81,59
191940,set_tempo,1860,1,0,,,,,,408163,,,,,,,
191950,note_off,190,0,3,,,,,,,,,3,,,76,0
191950,note_off,190,0,4,,,,,,,,,4,,,73,0
192000,note_on,50,0,4,,,,,,,,,4,,,71,58
192000,note_on,50,0,3,,,,,,,,,3,,,74,58
192000,set_tempo,60,1,0,,,,,,402684,,,,,,,
192190,note_off,190,0,3,,,,,,,,,3,,,74,0
192190,note_off,190,0,4,,,,,,,,,4,,,71,0
192240,note_on,480,0,1,,,,,,,,,1,,,78,60
192240,note_on,50,0,4,,,,,,,,,4,,,71,57
192240,note_on,50,0,3,,,,,,,,,3,,,74,57
192255,note_off,15,0,1,,,,,,,,,1,,,81,0
192430,note_off,190,0,3,,,,,,,,,3,,,74,0
192430,note_off,190,0,4,,,,,,,,,4,,,71,0
192480,note_on,50,0,4,,,,,,,,,4,,,71,57
192480,note_on,50,0,3,,,,,,,,,3,,,74,57
192670,note_off,190,0,4,,,,,,,,,4,,,71,0
192670,note_off,190,0,3,,,,,,,,,3,,,74,0
192720,note_on,50,0,4,,,,,,,,,4,,,71,56
192720,note_on,0,0,1,,,,,,,,,1,,,79,56
192720,note_on,50,0,3,,,,,,,,,3,,,74,56
192720,note_off,465,0,1,,,,,,,,,1,,,78,0
192910,note_off,190,0,4,,,,,,,,,4,,,71,0
192910,note_off,190,0,3,,,,,,,,,3,,,74,0
192960,note_on,50,0,4,,,,,,,,,4,,,69,55
192960,note_on,50,0,3,,,,,,,,,3,,,73,55
193150,note_off,190,0,3,,,,,,,,,3,,,73,0
193150,note_off,190,0,4,,,,,,,,,4,,,69,0
193200,note_on,50,0,3,,,,,,,,,3,,,73,55
193200,note_off,480,0,1,,,,,,,,,1,,,79,0
193200,note_on,0,0,1,,,,,,,,,1,,,77,57
193200,note_on,50,0,4,,,,,,,,,4,,,69,55
193390,note_off,190,0,4,,,,,,,,,4,,,69,0
193390,note_off,190,0,3,,,,,,,,,3,,,73,0
193440,note_on,50,0,3,,,,,,,,,3,,,73,54
193440,note_on,50,0,4,,,,,,,,,4,,,69,54
193630,note_off,190,0,4,,,,,,,,,4,,,69,0
193630,note_off,190,0,3,,,,,,,,,3,,,73,0
193680,note_on,50,0,4,,,,,,,,,4,,,69,53
193680,note_on,0,0,1,,,,,,,,,1,,,78,53
193680,note_off,480,0,1,,,,,,,,,1,,,77,0
193680,note_on,50,0,3,,,,,,,,,3,,,73,53
193860,set_tempo,1860,1,0,,,,,,408163,,,,,,,
193870,note_off,190,0,3,,,,,,,,,3,,,73,0
193870,note_off,190,0,4,,,,,,,,,4,,,69,0
193920,note_on,50,0,4,,,,,,,,,4,,,67,53
193920,note_on,50,0,3,,,,,,,,,3,,,71,53
193920,set_tempo,60,1,0,,,,,,402684,,,,,,,
194110,note_off,190,0,3,,,,,,,,,3,,,71,0
194110,note_off,190,0,4,,,,,,,,,4,,,67,0
194160,note_off,480,0,1,,,,,,,,,1,,,78,0
194160,note_on,50,0,4,,,,,,,,,4,,,67,52
194160,note_on,0,0,1,,,,,,,,,1,,,75,57
194160,note_on,50,0,3,,,,,,,,,3,,,71,52
194350,note_off,190,0,4,,,,,,,,,4,,,67,0
194350,note_off,190,0,3,,,,,,,,,3,,,71,0
194400,note_on,50,0,4,,,,,,,,,4,,,67,51
194400,note_on,50,0,3,,,,,,,,,3,,,71,51
194590,note_off,190,0,4,,,,,,,,,4,,,67,0
194590,note_off,190,0,3,,,,,,,,,3,,,71,0
194640,note_on,50,0,3,,,,,,,,,3,,,71,51
194640,note_on,50,0,4,,,,,,,,,4,,,67,51
194640,note_off,480,0,1,,,,,,,,,1,,,75,0
194640,note_on,0,0,1,,,,,,,,,1,,,76,51
194830,note_off,190,0,3,,,,,,,,,3,,,71,0
194830,note_off,190,0,4,,,,,,,,,4,,,67,0
194880,note_on,50,0,3,,,,,,,,,3,,,69,50
194880,note_on,50,0,4,,,,,,,,,4,,,66,50
195000,note_on,0,0,1,,,,,,,,,1,,,73,50
195000,note_off,360,0,1,,,,,,,,,1,,,76,0
195120,note_off,120,0,1,,,,,,,,,1,,,73,0
195120,note_on,0,0,1,,,,,,,,,1,,,76,49
195240,note_on,0,0,1,,,,,,,,,1,,,74,49
195240,note_off,120,0,1,,,,,,,,,1,,,76,0
195265,note_off,385,0,3,,,,,,,,,3,,,69,0
195265,note_off,385,0,4,,,,,,,,,4,,,66,0
195360,note_off,120,0,1,,,,,,,,,1,,,74,0
195360,note_on,0,0,1,,,,,,,,,1,,,83,49
195480,note_on,0,0,1,,,,,,,,,1,,,81,48
195480,note_off,120,0,1,,,,,,,,,1,,,83,0
195600,note_off,120,0,1,,,,,,,,,1,,,81,0
195600,note_on,0,0,1,,,,,,,,,1,,,79,48
195720,note_off,120,0,1,,,,,,,,,1,,,79,0
195720,note_on,0,0,1,,,,,,,,,1,,,78,48
195780,set_tempo,1860,1,0,,,,,,408163,,,,,,,
195815,note_off,95,0,1,,,,,,,,,1,,,78,0
195840,note_on,0,0,5,,,,,,,,,5,,,55,68
195840,set_tempo,60,1,0,,,,,,400000,,,,,,,
195840,note_on,25,0,1,,,,,,,,,1,,,76,68
195840,note_on,17855,0,5,,,,,,,,,5,,,43,68
195960,note_on,17975,0,2,,,,,,,,,2,,,88,68
196019,note_off,179,0,1,,,,,,,,,1,,,76,0
196030,note_off,190,0,5,,,,,,,,,5,,,55,0
196030,note_off,0,0,5,,,,,,,,,5,,,43,0
196055,note_off,95,0,2,,,,,,,,,2,,,88,0
196080,note_on,50,0,5,,,,,,,,,5,,,54,68
196080,note_on,0,0,5,,,,,,,,,5,,,42,68
196080,note_on,61,0,1,,,,,,,,,1,,,75,68
196200,note_on,145,0,2,,,,,,,,,2,,,88,68
196259,note_off,179,0,1,,,,,,,,,1,,,75,0
196270,note_off,190,0,5,,,,,,,,,5,,,42,0
196270,note_off,0,0,5,,,,,,,,,5,,,54,0
196295,note_off,95,0,2,,,,,,,,,2,,,88,0
196320,note_on,0,0,5,,,,,,,,,5,,,55,68
196320,note_on,50,0,5,,,,,,,,,5,,,43,68
196320,note_on,61,0,1,,,,,,,,,1,,,76,68
196440,note_on,145,0,2,,,,,,,,,2,,,88,69
196499,note_off,179,0,1,,,,,,,,,1,,,76,0
196510,note_off,190,0,5,,,,,,,,,5,,,55,0
196510,note_off,0,0,5,,,,,,,,,5,,,43,0
196535,note_off,95,0,2,,,,,,,,,2,,,88,0
196560,note_on,50,0,5,,,,,,,,,5,,,42,69
196560,note_on,61,0,1,,,,,,,,,1,,,75,69
196560,note_on,0,0,5,,,,,,,,,5,,,54,69
196680,note_on,145,0,2,,,,,,,,,2,,,88,69
196739,note_off,179,0,1,,,,,,,,,1,,,75,0
196750,note_off,190,0,5,,,,,,,,,5,,,54,0
196750,note_off,0,0,5,,,,,,,,,5,,,42,0
196775,note_off,95,0,2,,,,,,,,,2,,,88,0
196800,note_on,50,0,5,,,,,,,,,5,,,55,69
196800,note_on,61,0,1,,,,,,,,,1,,,76,69
196800,note_on,0,0,5,,,,,,,,,5,,,43,69
196920,note_on,0,0,1,,,,,,,,,1,,,79,70
196920,note_off,120,0,1,,,,,,,,,1,,,76,0
197040,note_on,0,0,1,,,,,,,,,1,,,83,70
197040,note_off,120,0,1,,,,,,,,,1,,,79,0
197160,note_on,0,0,1,,,,,,,,,1,,,81,70
197160,note_off,120,0,1,,,,,,,,,1,,,83,0
197280,note_off,480,0,5,,,,,,,,,5,,,43,0
197280,note_off,0,0,5,,,,,,,,,5,,,55,0
197280,note_off,120,0,1,,,,,,,,,1,,,81,0
197280,note_on,0,0,1,,,,,,,,,1,,,84,70
197400,note_off,120,0,1,,,,,,,,,1,,,84,0
197400,note_on,0,0,1,,,,,,,,,1,,,83,70
197520,note_off,120,0,1,,,,,,,,,1,,,83,0
197520,note_on,0,0,1,,,,,,,,,1,,,81,71
197640,note_off,120,0,1,,,,,,,,,1,,,81,0
197640,note_on,0,0,1,,,,,,,,,1,,,79,71
197700,set_tempo,1860,1,0,,,,,,402684,,,,,,,
197760,note_on,0,0,5,,,,,,,,,5,,,57,71
197760,set_tempo,60,1,0,,,,,,400000,,,,,,,
197760,note_on,480,0,5,,,,,,,,,5,,,45,71
197760,note_on,0,0,1,,,,,,,,,1,,,78,71
197760,note_off,120,0,1,,,,,,,,,1,,,79,0
197880,note_on,1105,0,2,,,,,,,,,2,,,86,71
197950,note_off,190,0,5,,,,,,,,,5,,,57,0
197950,note_off,0,0,5,,,,,,,,,5,,,45,0
197951,note_off,191,0,1,,,,,,,,,1,,,78,0
197975,note_off,95,0,2,,,,,,,,,2,,,86,0
198000,note_on,50,0,5,,,,,,,,,5,,,44,71
198000,note_on,0,0,5,,,,,,,,,5,,,56,71
198000,note_on,49,0,1,,,,,,,,,1,,,77,71
198120,note_on,145,0,2,,,,,,,,,2,,,86,72
198190,note_off,190,0,5,,,,,,,,,5,,,56,0
198190,note_off,0,0,5,,,,,,,,,5,,,44,0
198191,note_off,191,0,1,,,,,,,,,1,,,77,0
198215,note_off,95,0,2,,,,,,,,,2,,,86,0
198240,note_on,50,0,5,,,,,,,,,5,,,57,72
198240,note_on,49,0,1,,,,,,,,,1,,,78,72
198240,note_on,0,0,5,,,,,,,,,5,,,45,72
198360,note_on,145,0,2,,,,,,,,,2,,,86,72
198430,note_off,0,0,5,,,,,,,,,5,,,57,0
198430,note_off,190,0,5,,,,,,,,,5,,,45,0
198431,note_off,191,0,1,,,,,,,,,1,,,78,0
198455,note_off,95,0,2,,,,,,,,,2,,,86,0
198480,note_on,49,0,1,,,,,,,,,1,,,77,72
198480,note_on,0,0,5,,,,,,,,,5,,,56,72
198480,note_on,50,0,5,,,,,,,,,5,,,44,72
198600,note_on,145,0,2,,,,,,,,,2,,,86,73
198670,note_off,0,0,5,,,,,,,,,5,,,44,0
198670,note_off,190,0,5,,,,,,,,,5,,,56,0
198671,note_off,191,0,1,,,,,,,,,1,,,77,0
198695,note_off,95,0,2,,,,,,,,,2,,,86,0
198720,note_on,0,0,5,,,,,,,,,5,,,57,73
198720,note_on,50,0,5,,,,,,,,,5,,,45,73
198720,note_on,49,0,1,,,,,,,,,1,,,78,73
198840,note_off,120,0,1,,,,,,,,,1,,,78,0
198840,note_on,0,0,1,,,,,,,,,1,,,81,73
198960,note_off,120,0,1,,,,,,,,,1,,,81,0
198960,note_on,0,0,1,,,,,,,,,1,,,84,73
199080,note_off,120,0,1,,,,,,,,,1,,,84,0
199080,note_on,0,0,1,,,,,,,,,1,,,83,73
199200,note_off,120,0,1,,,,,,,,,1,,,83,0
199200,note_off,0,0,5,,,,,,,,,5,,,45,0
199200,note_off,480,0,5,,,,,,,,,5,,,57,0
199200,note_on,0,0,1,,,,,,,,,1,,,86,74
199320,note_on,0,0,1,,,,,,,,,1,,,84,74
199320,note_off,120,0,1,,,,,,,,,1,,,86,0
199440,note_off,120,0,1,,,,,,,,,1,,,84,0
199440,note_on,0,0,1,,,,,,,,,1,,,83,74
199560,note_off,120,0,1,,,,,,,,,1,,,83,0
199560,note_on,0,0,1,,,,,,,,,1,,,81,74
199620,set_tempo,1860,1,0,,,,,,402684,,,,,,,
199680,set_tempo,60,1,0,,,,,,400000,,,,,,,
199680,note_on,0,0,5,,,,,,,,,5,,,59,74
199680,note_on,480,0,5,,,,,,,,,5,,,47,74
199680,note_on,0,0,1,,,,,,,,,1,,,79,74
199680,note_off,120,0,1,,,,,,,,,1,,,81,0
199800,note_on,1105,0,2,,,,,,,,,2,,,86,75
199847,note_off,167,0,1,,,,,,,,,1,,,79,0
199870,note_off,0,0,5,,,,,,,,,5,,,47,0
199870,note_off,190,0,5,,,,,,,,,5,,,59,0
199895,note_off,95,0,2,,,,,,,,,2,,,86,0
199920,note_on,50,0,5,,,,,,,,,5,,,46,75
199920,note_on,0,0,5,,,,,,,,,5,,,58,75
199920,note_on,73,0,1,,,,,,,,,1,,,78,75
200040,note_on,145,0,2,,,,,,,,,2,,,86,75
200087,note_off,167,0,1,,,,,,,,,1,,,78,0
200110,note_off,190,0,5,,,,,,,,,5,,,58,0
200110,note_off,0,0,5,,,,,,,,,5,,,46,0
200135,note_off,95,0,2,,,,,,,,,2,,,86,0
200160,note_on,73,0,1,,,,,,,,,1,,,79,75
200160,note_on,0,0,5,,,,,,,,,5,,,59,75
200160,note_on,50,0,5,,,,,,,,,5,,,47,75
200280,note_on,145,0,2,,,,,,,,,2,,,86,75
200327,note_off,167,0,1,,,,,,,,,1,,,79,0
200350,note_off,190,0,5,,,,,,,,,5,,,59,0
200350,note_off,0,0,5,,,,,,,,,5,,,47,0
200375,note_off,95,0,2,,,,,,,,,2,,,86,0
200400,note_on,50,0,5,,,,,,,,,5,,,46,76
200400,note_on,0,0,5,,,,,,,,,5,,,58,76
200400,note_on,73,0,1,,,,,,,,,1,,,78,76
200520,note_on,145,0,2,,,,,,,,,2,,,86,76
200567,note_off,167,0,1,,,,,,,,,1,,,78,0
200590,note_off,190,0,5,,,,,,,,,5,,,58,0
200590,note_off,0,0,5,,,,,,,,,5,,,46,0
200615,note_off,95,0,2,,,,,,,,,2,,,86,0
200640,note_on,0,0,5,,,,,,,,,5,,,47,76
200640,note_on,73,0,1,,,,,,,,,1,,,79,76
200640,note_on,50,0,5,,,,,,,,,5,,,59,76
200760,note_off,120,0,1,,,,,,,,,1,,,79,0
200760,note_on,0,0,1,,,,,,,,,1,,,83,76
200880,note_off,120,0,1,,,,,,,,,1,,,83,0
200880,note_on,0,0,1,,,,,,,,,1,,,86,77
201000,note_on,0,0,1,,,,,,,,,1,,,85,77
201000,note_off,120,0,1,,,,,,,,,1,,,86,0
201120,note_on,0,0,1,,,,,,,,,1,,,86,77
201120,note_off,0,0,5,,,,,,,,,5,,,59,0
201120,note_off,480,0,5,,,,,,,,,5,,,47,0
201120,note_off,120,0,1,,,,,,,,,1,,,85,0
201240,note_off,120,0,1,,,,,,,,,1,,,86,0
201240,note_on,0,0,1,,,,,,,,,1,,,85,77
201360,note_off,120,0,1,,,,,,,,,1,,,85,0
201360,note_on,0,0,1,,,,,,,,,1,,,83,77
201480,note_off,120,0,1,,,,,,,,,1,,,83,0
201480,note_on,0,0,1,,,,,,,,,1,,,81,78
201560,set_tempo,1880,1,0,,,,,,402684,,,,,,,
201600,note_on,0,0,3,,,,,,,,,3,,,58,78
201600,set_tempo,40,1,0,,,,,,400000,,,,,,,
201600,control_change,6335,0,3,,,,,,,64,127,3,,,,
201600,control_change,6335,0,4,,,,,,,64,127,4,,,,
201600,note_on,0,0,1,,,,,,,,,1,,,80,78
201600,note_off,120,0,1,,,,,,,,,1,,,81,0
201720,note_on,120,0,3,,,,,,,,,3,,,62,78
201755,note_off,155,0,1,,,,,,,,,1,,,80,0
201840,note_on,120,0,3,,,,,,,,,3,,,65,78
201840,note_on,85,0,1,,,,,,,,,1,,,74,78
201875,note_off,35,0,3,,,,,,,,,3,,,62,0
201960,note_on,85,0,3,,,,,,,,,3,,,68,78
201995,note_off,0,0,3,,,,,,,,,3,,,58,0
201995,note_off,35,0,3,,,,,,,,,3,,,65,0
202020,control_change,420,0,4,,,,,,,64,0,4,,,,
202020,control_change,25,0,3,,,,,,,64,0,3,,,,
202080,note_on,0,0,3,,,,,,,,,3,,,58,79
202080,control_change,60,0,3,,,,,,,64,127,3,,,,
202080,control_change,60,0,4,,,,,,,64,127,4,,,,
202115,note_off,35,0,3,,,,,,,,,3,,,68,0
202200,note_on,85,0,3,,,,,,,,,3,,,62,79
202320,note_on,120,0,3,,,,,,,,,3,,,65,79
202320,note_on,0,0,1,,,,,,,,,1,,,77,79
202320,note_off,480,0,1,,,,,,,,,1,,,74,0
202355,note_off,35,0,3,,,,,,,,,3,,,62,0
202440,note_on,85,0,3,,,,,,,,,3,,,68,79
202475,note_off,0,0,3,,,,,,,,,3,,,58,0
202475,note_off,35,0,3,,,,,,,,,3,,,65,0
202500,control_change,420,0,4,,,,,,,64,0,4,,,,
202500,control_change,25,0,3,,,,,,,64,0,3,,,,
202560,note_on,0,0,3,,,,,,,,,3,,,58,80
202560,control_change,60,0,3,,,,,,,64,127,3,,,,
202560,control_change,60,0,4,,,,,,,64,127,4,,,,
202595,note_off,35,0,3,,,,,,,,,3,,,68,0
202680,note_on,85,0,3,,,,,,,,,3,,,62,80
202800,note_off,480,0,1,,,,,,,,,1,,,77,0
202800,note_on,120,0,3,,,,,,,,,3,,,65,80
202800,note_on,0,0,1,,,,,,,,,1,,,76,80
202835,note_off,35,0,3,,,,,,,,,3,,,62,0
202920,note_on,85,0,3,,,,,,,,,3,,,68,80
202955,note_off,35,0,3,,,,,,,,,3,,,65,0
202955,note_off,0,0,3,,,,,,,,,3,,,58,0
202980,control_change,420,0,4,,,,,,,64,0,4,,,,
202980,control_change,25,0,3,,,,,,,64,0,3,,,,
203040,control_change,60,0,4,,,,,,,64,127,4,,,,
203040,note_on,0,0,3,,,,,,,,,3,,,58,80
203040,control_change,60,0,3,,,,,,,64,127,3,,,,
203075,note_off,35,0,3,,,,,,,,,3,,,68,0
203160,note_on,85,0,3,,,,,,,,,3,,,62,81
203280,note_on,120,0,3,,,,,,,,,3,,,65,81
203280,note_off,480,0,1,,,,,,,,,1,,,76,0
203280,note_on,0,0,1,,,,,,,,,1,,,74,81
203315,note_off,35,0,3,,,,,,,,,3,,,62,0
203400,note_on,85,0,3,,,,,,,,,3,,,68,81
203435,note_off,0,0,3,,,,,,,,,3,,,58,0
203435,note_off,35,0,3,,,,,,,,,3,,,65,0
203460,control_change,25,0,3,,,,,,,64,0,3,,,,
203460,control_change,420,0,4,,,,,,,64,0,4,,,,
203480,set_tempo,1880,1,0,,,,,,408163,,,,,,,
203519,note_off,59,0,3,,,,,,,,,3,,,68,0
203520,note_on,2400,0,5,,,,,,,,,5,,,57,81
203520,note_on,60,0,4,,,,,,,,,4,,,69,81
203520,note_off,240,0,1,,,,,,,,,1,,,74,0
203520,note_on,0,0,1,,,,,,,,,1,,,73,81
203675,note_off,155,0,4,,,,,,,,,4,,,69,0
203675,note_off,155,0,5,,,,,,,,,5,,,57,0
203760,note_on,85,0,5,,,,,,,,,5,,,57,57
203915,note_off,155,0,5,,,,,,,,,5,,,57,0
204000,note_on,325,0,4,,,,,,,,,4,,,61,57
204000,note_on,85,0,5,,,,,,,,,5,,,57,57
204000,note_off,480,0,1,,,,,,,,,1,,,73,0
204190,note_off,190,0,4,,,,,,,,,4,,,61,0
204190,note_off,190,0,5,,,,,,,,,5,,,57,0
204240,note_on,50,0,4,,,,,,,,,4,,,61,56
204240,note_on,50,0,5,,,,,,,,,5,,,57,56
204240,note_on,240,0,1,,,,,,,,,1,,,69,56
204395,note_off,155,0,1,,,,,,,,,1,,,69,0
204430,note_off,190,0,4,,,,,,,,,4,,,61,0
204430,note_off,190,0,5,,,,,,,,,5,,,57,0
204480,note_on,85,0,1,,,,,,,,,1,,,70,60
204480,note_on,50,0,4,,,,,,,,,4,,,63,56
204480,note_on,3865,0,2,,,,,,,,,2,,,66,60
204480,note_on,50,0,5,,,,,,,,,5,,,57,56
204670,note_off,190,0,5,,,,,,,,,5,,,57,0
204670,note_off,190,0,4,,,,,,,,,4,,,63,0
204720,note_on,50,0,5,,,,,,,,,5,,,57,55
204720,note_on,50,0,4,,,,,,,,,4,,,63,55
204720,note_off,240,0,1,,,,,,,,,1,,,70,0
204720,note_on,0,0,1,,,,,,,,,1,,,71,55
204875,note_off,155,0,1,,,,,,,,,1,,,71,0
204910,note_off,190,0,4,,,,,,,,,4,,,63,0
204910,note_off,190,0,5,,,,,,,,,5,,,57,0
204960,note_on,50,0,5,,,,,,,,,5,,,57,55
204960,note_off,480,0,2,,,,,,,,,2,,,66,0
204960,note_on,50,0,4,,,,,,,,,4,,,64,55
204960,note_on,0,0,2,,,,,,,,,2,,,67,55
205150,note_off,190,0,5,,,,,,,,,5,,,57,0
205150,note_off,190,0,4,,,,,,,,,4,,,64,0
205200,note_on,325,0,1,,,,,,,,,1,,,71,54
205200,note_on,50,0,5,,,,,,,,,5,,,57,54
205200,note_on,50,0,4,,,,,,,,,4,,,64,54
205355,note_off,155,0,1,,,,,,,,,1,,,71,0
205390,note_off,190,0,5,,,,,,,,,5,,,57,0
205390,note_off,190,0,4,,,,,,,,,4,,,64,0
205440,note_on,50,0,4,,,,,,,,,4,,,61,54
205440,note_on,85,0,1,,,,,,,,,1,,,68,58
205440,note_on,50,0,5,,,,,,,,,5,,,57,54
205630,note_off,190,0,5,,,,,,,,,5,,,57,0
205630,note_off,190,0,4,,,,,,,,,4,,,61,0
205680,note_on,50,0,5,,,,,,,,,5,,,57,53
205680,note_on,50,0,4,,,,,,,,,4,,,61,53
205680,note_off,240,0,1,,,,,,,,,1,,,68,0
205680,note_on,0,0,1,,,,,,,,,1,,,69,53
205835,note_off,155,0,1,,,,,,,,,1,,,69,0
205870,note_off,190,0,4,,,,,,,,,4,,,61,0
205870,note_off,190,0,5,,,,,,,,,5,,,57,0
205920,note_on,50,0,4,,,,,,,,,4,,,62,53
205920,note_on,50,0,5,,,,,,,,,5,,,57,53
205920,note_off,960,0,2,,,,,,,,,2,,,67,0
205920,note_on,0,0,2,,,,,,,,,2,,,66,53
206110,note_off,190,0,4,,,,,,,,,4,,,62,0
206110,note_off,190,0,5,,,,,,,,,5,,,57,0
206160,note_on,50,0,4,,,,,,,,,4,,,62,52
206160,note_on,50,0,5,,,,,,,,,5,,,57,52
206160,note_on,325,0,1,,,,,,,,,1,,,69,52
206315,note_off,155,0,1,,,,,,,,,1,,,69,0
206350,note_off,190,0,4,,,,,,,,,4,,,62,0
206350,note_off,190,0,5,,,,,,,,,5,,,57,0
206400,note_on,50,0,5,,,,,,,,,5,,,57,52
206400,note_on,85,0,1,,,,,,,,,1,,,74,58
206400,note_on,50,0,4,,,,,,,,,4,,,59,52
206590,note_off,190,0,5,,,,,,,,,5,,,57,0
206590,note_off,190,0,4,,,,,,,,,4,,,59,0
206640,note_on,50,0,5,,,,,,,,,5,,,57,51
206640,note_on,50,0,4,,,,,,,,,4,,,59,51
206640,note_on,0,0,1,,,,,,,,,1,,,67,51
206640,note_off,240,0,1,,,,,,,,,1,,,74,0
206795,note_off,155,0,1,,,,,,,,,1,,,67,0
206830,note_off,190,0,4,,,,,,,,,4,,,59,0
206830,note_off,190,0,5,,,,,,,,,5,,,57,0
206880,note_on,0,0,2,,,,,,,,,2,,,64,51
206880,note_off,960,0,2,,,,,,,,,2,,,66,0
206880,note_on,50,0,5,,,,,,,,,5,,,57,51
206880,note_on,50,0,4,,,,,,,,,4,,,61,51
207070,note_off,190,0,5,,,,,,,,,5,,,57,0
207070,note_off,190,0,4,,,,,,,,,4,,,61,0
207120,note_on,50,0,5,,,,,,,,,5,,,57,50
207120,note_on,50,0,4,,,,,,,,,4,,,61,50
207120,note_on,325,0,1,,,,,,,,,1,,,67,50
207275,note_off,155,0,1,,,,,,,,,1,,,67,0
207310,note_off,190,0,5,,,,,,,,,5,,,57,0
207310,note_off,190,0,4,,,,,,,,,4,,,61,0
207360,note_off,480,0,2,,,,,,,,,2,,,64,0
207360,note_on,50,0,4,,,,,,,,,4,,,62,50
207360,note_on,50,0,5,,,,,,,,,5,,,57,50
207360,note_on,85,0,1,,,,,,,,,1,,,65,54
207550,note_off,190,0,4,,,,,,,,,4,,,62,0
207550,note_off,190,0,5,,,,,,,,,5,,,57,0
207600,note_off,240,0,1,,,,,,,,,1,,,65,0
207600,note_on,50,0,5,,,,,,,,,5,,,57,49
207600,note_on,0,0,1,,,,,,,,,1,,,66,49
207600,note_on,50,0,4,,,,,,,,,4,,,62,49
207755,note_off,155,0,1,,,,,,,,,1,,,66,0
207790,note_off,190,0,4,,,,,,,,,4,,,62,0
207790,note_off,190,0,5,,,,,,,,,5,,,57,0
207840,note_on,50,0,4,,,,,,,,,4,,,66,49
207840,note_on,50,0,5,,,,,,,,,5,,,57,49
208030,note_off,190,0,4,,,,,,,,,4,,,66,0
208030,note_off,190,0,5,,,,,,,,,5,,,57,0
208080,note_on,50,0,5,,,,,,,,,5,,,57,48
208080,note_on,50,0,4,,,,,,,,,4,,,69,48
208080,note_on,0,0,4,,,,,,,,,4,,,66,48
208235,note_off,155,0,4,,,,,,,,,4,,,69,0
208260,set_tempo,4780,1,0,,,,,,413793,,,,,,,
208270,note_off,190,0,5,,,,,,,,,5,,,57,0
208270,note_off,35,0,4,,,,,,,,,4,,,66,0
208320,note_on,50,0,5,,,,,,,,,5,,,57,48
208320,set_tempo,60,1,0,,,,,,402684,,,,,,,
208320,note_on,50,0,4,,,,,,,,,4,,,67,48
208320,note_on,565,0,1,,,,,,,,,1,,,83,48
208440,note_off,120,0,1,,,,,,,,,1,,,83,0
208440,note_on,0,0,1,,,,,,,,,1,,,85,47
208560,note_on,0,0,1,,,,,,,,,1,,,86,47
208560,note_off,120,0,1,,,,,,,,,1,,,85,0
208680,note_on,0,0,1,,,,,,,,,1,,,85,47
208680,note_off,120,0,1,,,,,,,,,1,,,86,0
208800,note_off,120,0,1,,,,,,,,,1,,,85,0
208800,note_on,0,0,1,,,,,,,,,1,,,88,46
208920,note_off,120,0,1,,,,,,,,,1,,,88,0
208920,note_on,0,0,1,,,,,,,,,1,,,86,46
209040,note_on,0,0,1,,,,,,,,,1,,,85,46
209040,note_off,120,0,1,,,,,,,,,1,,,86,0
209090,note_off,770,0,5,,,,,,,,,5,,,57,0
209090,note_off,770,0,4,,,,,,,,,4,,,67,0
209160,note_off,120,0,1,,,,,,,,,1,,,85,0
209160,note_on,0,0,1,,,,,,,,,1,,,83,46
209220,set_tempo,900,1,0,,,,,,408163,,,,,,,
209280,note_on,190,0,5,,,,,,,,,5,,,57,45
209280,note_on,190,0,4,,,,,,,,,4,,,66,45
209280,set_tempo,60,1,0,,,,,,402684,,,,,,,
209280,note_off,120,0,1,,,,,,,,,1,,,83,0
209280,note_on,0,0,1,,,,,,,,,1,,,81,45
209400,note_off,120,0,1,,,,,,,,,1,,,81,0
209400,note_on,0,0,1,,,,,,,,,1,,,85,45
209520,note_off,120,0,1,,,,,,,,,1,,,85,0
209520,note_on,0,0,1,,,,,,,,,1,,,86,45
209640,note_off,120,0,1,,,,,,,,,1,,,86,0
209640,note_on,0,0,1,,,,,,,,,1,,,85,45
209760,note_on,0,0,4,,,,,,,,,4,,,62,44
209760,note_off,480,0,4,,,,,,,,,4,,,66,0
209760,note_on,0,0,1,,,,,,,,,1,,,86,44
209760,note_off,120,0,1,,,,,,,,,1,,,85,0
209880,note_on,0,0,1,,,,,,,,,1,,,81,44
209880,note_off,120,0,1,,,,,,,,,1,,,86,0
210000,note_on,0,0,1,,,,,,,,,1,,,83,44
210000,note_off,120,0,1,,,,,,,,,1,,,81,0
210120,note_off,120,0,1,,,,,,,,,1,,,83,0
210120,note_on,0,0,1,,,,,,,,,1,,,78,44
210240,note_off,480,0,4,,,,,,,,,4,,,62,0
210240,note_on,0,0,1,,,,,,,,,1,,,79,43
210240,note_off,120,0,1,,,,,,,,,1,,,78,0
210240,note_on,0,0,4,,,,,,,,,4,,,64,43
210360,note_off,120,0,1,,,,,,,,,1,,,79,0
210360,note_on,0,0,1,,,,,,,,,1,,,81,43
210480,note_off,120,0,1,,,,,,,,,1,,,81,0
210480,note_on,0,0,1,,,,,,,,,1,,,83,43
210600,note_off,120,0,1,,,,,,,,,1,,,83,0
210600,note_on,0,0,1,,,,,,,,,1,,,81,43
210720,note_on,0,0,4,,,,,,,,,4,,,61,42
210720,note_off,480,0,4,,,,,,,,,4,,,64,0
210720,note_off,120,0,1,,,,,,,,,1,,,81,0
210720,note_on,0,0,1,,,,,,,,,1,,,85,42
210840,note_on,0,0,1,,,,,,,,,1,,,83,42
210840,note_off,120,0,1,,,,,,,,,1,,,85,0
210960,note_on,0,0,1,,,,,,,,,1,,,81,42
210960,note_off,120,0,1,,,,,,,,,1,,,83,0
211080,note_off,120,0,1,,,,,,,,,1,,,81,0
211080,note_on,0,0,1,,,,,,,,,1,,,79,42
211160,set_tempo,1880,1,0,,,,,,408163,,,,,,,
211180,note_off,460,0,4,,,,,,,,,4,,,61,0
211185,note_off,105,0,1,,,,,,,,,1,,,79,0
211185,note_off,1905,0,5,,,,,,,,,5,,,57,0
211200,set_tempo,40,1,0,,,,,,400000,,,,,,,
211200,note_on,15,0,1,,,,,,,,,1,,,78,68
211295,note_off,95,0,1,,,,,,,,,1,,,78,0
211320,note_on,25,0,1,,,,,,,,,1,,,81,68
211415,note_off,95,0,1,,,,,,,,,1,,,81,0
211440,note_on,25,0,1,,,,,,,,,1,,,86,68
211535,note_off,95,0,1,,,,,,,,,1,,,86,0
211560,note_on,25,0,1,,,,,,,,,1,,,85,68
211655,note_off,95,0,1,,,,,,,,,1,,,85,0
211680,note_on,25,0,1,,,,,,,,,1,,,86,68
211775,note_off,95,0,1,,,,,,,,,1,,,86,0
211800,note_on,25,0,1,,,,,,,,,1,,,81,68
211895,note_off,95,0,1,,,,,,,,,1,,,81,0
211920,note_on,25,0,1,,,,,,,,,1,,,78,69
211920,note_on,735,0,5,,,,,,,,,5,,,38,69
211920,note_on,0,0,5,,,,,,,,,5,,,50,69
212015,note_off,95,0,1,,,,,,,,,1,,,78,0
212040,note_on,25,0,1,,,,,,,,,1,,,74,69
212075,note_off,0,0,5,,,,,,,,,5,,,38,0
212075,note_off,155,0,5,,,,,,,,,5,,,50,0
212135,note_off,95,0,1,,,,,,,,,1,,,74,0
212160,note_on,85,0,5,,,,,,,,,5,,,54,69
212160,note_on,25,0,1,,,,,,,,,1,,,86,69
212160,note_on,0,0,5,,,,,,,,,5,,,42,69
212255,note_off,95,0,1,,,,,,,,,1,,,86,0
212280,note_on,25,0,1,,,,,,,,,1,,,81,69
212315,note_off,0,0,5,,,,,,,,,5,,,54,0
212315,note_off,155,0,5,,,,,,,,,5,,,42,0
212375,note_off,95,0,1,,,,,,,,,1,,,81,0
212400,note_on,85,0,5,,,,,,,,,5,,,57,69
212400,note_on,0,0,5,,,,,,,,,5,,,45,69
212400,note_on,25,0,1,,,,,,,,,1,,,78,69
212495,note_off,95,0,1,,,,,,,,,1,,,78,0
212520,note_on,25,0,1,,,,,,,,,1,,,74,70
212555,note_off,155,0,5,,,,,,,,,5,,,45,0
212555,note_off,0,0,5,,,,,,,,,5,,,57,0
212615,note_off,95,0,1,,,,,,,,,1,,,74,0
212640,note_on,85,0,5,,,,,,,,,5,,,62,70
212640,note_on,0,0,5,,,,,,,,,5,,,50,70
212640,note_on,25,0,1,,,,,,,,,1,,,86,70
212735,note_off,95,0,1,,,,,,,,,1,,,86,0
212760,note_on,25,0,1,,,,,,,,,1,,,81,70
212855,note_off,95,0,1,,,,,,,,,1,,,81,0
212880,note_on,25,0,1,,,,,,,,,1,,,78,70
212975,note_off,95,0,1,,,,,,,,,1,,,78,0
213000,note_on,25,0,1,,,,,,,,,1,,,74,70
213060,set_tempo,1860,1,0,,,,,,402684,,,,,,,
213095,note_off,95,0,1,,,,,,,,,1,,,74,0
213100,note_off,460,0,5,,,,,,,,,5,,,62,0
213105,note_off,5,0,5,,,,,,,,,5,,,50,0
213120,note_on,25,0,1,,,,,,,,,1,,,83,71
213120,set_tempo,60,1,0,,,,,,400000,,,,,,,
213215,note_off,95,0,1,,,,,,,,,1,,,83,0
213240,note_on,25,0,1,,,,,,,,,1,,,85,71
213335,note_off,95,0,1,,,,,,,,,1,,,85,0
213360,note_on,25,0,1,,,,,,,,,1,,,86,71
213455,note_off,95,0,1,,,,,,,,,1,,,86,0
213480,note_on,25,0,1,,,,,,,,,1,,,85,71
213575,note_off,95,0,1,,,,,,,,,1,,,85,0
213600,note_on,25,0,1,,,,,,,,,1,,,86,71
213695,note_off,95,0,1,,,,,,,,,1,,,86,0
213720,note_on,25,0,1,,,,,,,,,1,,,83,71
213815,note_off,95,0,1,,,,,,,,,1,,,83,0
213840,note_on,0,0,5,,,,,,,,,5,,,43,72
213840,note_on,735,0,5,,,,,,,,,5,,,55,72
213840,note_on,25,0,1,,,,,,,,,1,,,79,72
213935,note_off,95,0,1,,,,,,,,,1,,,79,0
213960,note_on,25,0,1,,,,,,,,,1,,,74,72
213995,note_off,0,0,5,,,,,,,,,5,,,55,0
213995,note_off,155,0,5,,,,,,,,,5,,,43,0
214055,note_off,95,0,1,,,,,,,,,1,,,74,0
214080,note_on,0,0,5,,,,,,,,,5,,,47,72
214080,note_on,25,0,1,,,,,,,,,1,,,86,72
214080,note_on,85,0,5,,,,,,,,,5,,,59,72
214175,note_off,95,0,1,,,,,,,,,1,,,86,0
214200,note_on,25,0,1,,,,,,,,,1,,,83,72
214235,note_off,0,0,5,,,,,,,,,5,,,59,0
214235,note_off,155,0,5,,,,,,,,,5,,,47,0
214295,note_off,95,0,1,,,,,,,,,1,,,83,0
214320,note_on,0,0,5,,,,,,,,,5,,,62,72
214320,note_on,25,0,1,,,,,,,,,1,,,79,72
214320,note_on,85,0,5,,,,,,,,,5,,,50,72
214415,note_off,95,0,1,,,,,,,,,1,,,79,0
214440,note_on,25,0,1,,,,,,,,,1,,,74,73
214475,note_off,0,0,5,,,,,,,,,5,,,50,0
214475,note_off,155,0,5,,,,,,,,,5,,,62,0
214535,note_off,95,0,1,,,,,,,,,1,,,74,0
214560,note_on,0,0,5,,,,,,,,,5,,,55,73
214560,note_on,85,0,5,,,,,,,,,5,,,67,73
214560,note_on,25,0,1,,,,,,,,,1,,,86,73
214655,note_off,95,0,1,,,,,,,,,1,,,86,0
214680,note_on,25,0,1,,,,,,,,,1,,,83,73
214775,note_off,95,0,1,,,,,,,,,1,,,83,0
214800,note_on,25,0,1,,,,,,,,,1,,,79,73
214895,note_off,95,0,1,,,,,,,,,1,,,79,0
214920,note_on,25,0,1,,,,,,,,,1,,,74,73
215000,set_tempo,1880,1,0,,,,,,402684,,,,,,,
215015,note_off,95,0,1,,,,,,,,,1,,,74,0
215020,note_off,460,0,5,,,,,,,,,5,,,55,0
215020,note_off,0,0,5,,,,,,,,,5,,,67,0
215040,note_on,25,0,1,,,,,,,,,1,,,81,75
215040,note_on,0,0,5,,,,,,,,,5,,,57,75
215040,note_on,20,0,5,,,,,,,,,5,,,45,75
215040,note_on,7680,0,2,,,,,,,,,2,,,78,75
215230,note_off,190,0,5,,,,,,,,,5,,,57,0
215230,note_off,0,0,5,,,,,,,,,5,,,45,0
215280,note_on,0,0,5,,,,,,,,,5,,,45,72
215280,note_on,50,0,5,,,,,,,,,5,,,57,72
215400,note_off,360,0,2,,,,,,,,,2,,,78,0
215400,note_on,0,0,2,,,,,,,,,2,,,79,71
215400,note_off,360,0,1,,,,,,,,,1,,,81,0
215400,note_on,0,0,1,,,,,,,,,1,,,83,71
215460,note_off,60,0,1,,,,,,,,,1,,,83,0
215460,note_on,0,0,2,,,,,,,,,2,,,76,70
215460,note_off,60,0,2,,,,,,,,,2,,,79,0
215460,note_on,0,0,1,,,,,,,,,1,,,79,70
215470,note_off,190,0,5,,,,,,,,,5,,,45,0
215470,note_off,0,0,5,,,,,,,,,5,,,57,0
215520,note_on,0,0,1,,,,,,,,,1,,,78,69
215520,note_off,60,0,1,,,,,,,,,1,,,79,0
215520,note_off,60,0,2,,,,,,,,,2,,,76,0
215520,note_on,0,0,2,,,,,,,,,2,,,74,69
215520,note_on,50,0,5,,,,,,,,,5,,,57,70
215520,note_on,0,0,5,,,,,,,,,5,,,45,70
215710,note_off,0,0,5,,,,,,,,,5,,,57,0
215710,note_off,190,0,5,,,,,,,,,5,,,45,0
215760,note_on,0,0,5,,,,,,,,,5,,,45,67
215760,note_on,50,0,5,,,,,,,,,5,,,57,67
215950,note_off,190,0,5,,,,,,,,,5,,,45,0
215950,note_off,0,0,5,,,,,,,,,5,,,57,0
216000,note_on,50,0,5,,,,,,,,,5,,,45,64
216000,note_on,0,0,5,,,,,,,,,5,,,57,64
216190,note_off,190,0,5,,,,,,,,,5,,,57,0
216190,note_off,0,0,5,,,,,,,,,5,,,45,0
216240,note_on,50,0,5,,,,,,,,,5,,,57,61
216240,note_on,0,0,2,,,,,,,,,2,,,78,65
216240,note_on,0,0,5,,,,,,,,,5,,,45,61
216240,note_on,0,0,1,,,,,,,,,1,,,81,65
216240,note_off,720,0,1,,,,,,,,,1,,,78,0
216240,note_off,720,0,2,,,,,,,,,2,,,74,0
216430,note_off,190,0,5,,,,,,,,,5,,,45,0
216430,note_off,0,0,5,,,,,,,,,5,,,57,0
216480,note_on,0,0,1,,,,,,,,,1,,,79,62
216480,note_off,240,0,1,,,,,,,,,1,,,81,0
216480,note_on,50,0,5,,,,,,,,,5,,,57,59
216480,note_on,0,0,5,,,,,,,,,5,,,45,59
216480,note_on,0,0,2,,,,,,,,,2,,,76,62
216480,note_off,240,0,2,,,,,,,,,2,,,78,0
216670,note_off,0,0,5,,,,,,,,,5,,,57,0
216670,note_off,190,0,5,,,,,,,,,5,,,45,0
216720,note_off,240,0,2,,,,,,,,,2,,,76,0
216720,note_on,0,0,2,,,,,,,,,2,,,73,59
216720,note_on,0,0,5,,,,,,,,,5,,,45,56
216720,note_on,50,0,5,,,,,,,,,5,,,57,56
216720,note_off,240,0,1,,,,,,,,,1,,,79,0
216720,note_on,0,0,1,,,,,,,,,1,,,76,59
216910,note_off,0,0,5,,,,,,,,,5,,,57,0
216910,note_off,190,0,5,,,,,,,,,5,,,45,0
216920,set_tempo,1920,1,0,,,,,,402684,,,,,,,
216940,note_off,220,0,1,,,,,,,,,1,,,76,0
216945,note_off,225,0,2,,,,,,,,,2,,,73,0
216960,note_on,20,0,1,,,,,,,,,1,,,78,76
216960,set_tempo,40,1,0,,,,,,400000,,,,,,,
217055,note_off,95,0,1,,,,,,,,,1,,,78,0
217080,note_on,25,0,1,,,,,,,,,1,,,81,77
217175,note_off,95,0,1,,,,,,,,,1,,,81,0
217200,note_on,25,0,1,,,,,,,,,1,,,86,77
217295,note_off,95,0,1,,,,,,,,,1,,,86,0
217320,note_on,25,0,1,,,,,,,,,1,,,85,77
217415,note_off,95,0,1,,,,,,,,,1,,,85,0
217440,note_on,25,0,1,,,,,,,,,1,,,86,77
217535,note_off,95,0,1,,,,,,,,,1,,,86,0
217560,note_on,25,0,1,,,,,,,,,1,,,81,77
217655,note_off,95,0,1,,,,,,,,,1,,,81,0
217680,note_on,0,0,5,,,,,,,,,5,,,38,78
217680,note_on,770,0,5,,,,,,,,,5,,,50,78
217680,note_on,25,0,1,,,,,,,,,1,,,78,78
217775,note_off,95,0,1,,,,,,,,,1,,,78,0
217800,note_on,25,0,1,,,,,,,,,1,,,74,78
217835,note_off,0,0,5,,,,,,,,,5,,,50,0
217835,note_off,155,0,5,,,,,,,,,5,,,38,0
217895,note_off,95,0,1,,,,,,,,,1,,,74,0
217920,note_on,85,0,5,,,,,,,,,5,,,42,78
217920,note_on,25,0,1,,,,,,,,,1,,,86,78
217920,note_on,0,0,5,,,,,,,,,5,,,54,78
218015,note_off,95,0,1,,,,,,,,,1,,,86,0
218040,note_on,25,0,1,,,,,,,,,1,,,81,78
218075,note_off,0,0,5,,,,,,,,,5,,,42,0
218075,note_off,155,0,5,,,,,,,,,5,,,54,0
218135,note_off,95,0,1,,,,,,,,,1,,,81,0
218160,note_on,0,0,5,,,,,,,,,5,,,57,78
218160,note_on,85,0,5,,,,,,,,,5,,,45,78
218160,note_on,25,0,1,,,,,,,,,1,,,78,78
218255,note_off,95,0,1,,,,,,,,,1,,,78,0
218280,note_on,25,0,1,,,,,,,,,1,,,74,78
218315,note_off,155,0,5,,,,,,,,,5,,,57,0
218315,note_off,0,0,5,,,,,,,,,5,,,45,0
218375,note_off,95,0,1,,,,,,,,,1,,,74,0
218400,note_on,85,0,5,,,,,,,,,5,,,62,79
218400,note_on,25,0,1,,,,,,,,,1,,,86,79
218400,note_on,0,0,5,,,,,,,,,5,,,50,79
218495,note_off,95,0,1,,,,,,,,,1,,,86,0
218520,note_on,25,0,1,,,,,,,,,1,,,81,79
218615,note_off,95,0,1,,,,,,,,,1,,,81,0
218640,note_on,25,0,1,,,,,,,,,1,,,78,79
218735,note_off,95,0,1,,,,,,,,,1,,,78,0
218760,note_on,25,0,1,,,,,,,,,1,,,74,79
218820,set_tempo,1860,1,0,,,,,,402684,,,,,,,
218855,note_off,95,0,1,,,,,,,,,1,,,74,0
218860,note_off,460,0,5,,,,,,,,,5,,,62,0
218865,note_off,5,0,5,,,,,,,,,5,,,50,0
218880,note_on,25,0,1,,,,,,,,,1,,,83,79
218880,set_tempo,60,1,0,,,,,,400000,,,,,,,
218975,note_off,95,0,1,,,,,,,,,1,,,83,0
219000,note_on,25,0,1,,,,,,,,,1,,,85,80
219095,note_off,95,0,1,,,,,,,,,1,,,85,0
219120,note_on,25,0,1,,,,,,,,,1,,,86,80
219215,note_off,95,0,1,,,,,,,,,1,,,86,0
219240,note_on,25,0,1,,,,,,,,,1,,,85,80
219335,note_off,95,0,1,,,,,,,,,1,,,85,0
219360,note_on,25,0,1,,,,,,,,,1,,,86,80
219455,note_off,95,0,1,,,,,,,,,1,,,86,0
219480,note_on,25,0,1,,,,,,,,,1,,,83,80
219575,note_off,95,0,1,,,,,,,,,1,,,83,0
219600,note_on,25,0,1,,,,,,,,,1,,,79,80
219600,note_on,735,0,5,,,,,,,,,5,,,43,80
219600,note_on,0,0,5,,,,,,,,,5,,,55,80
219695,note_off,95,0,1,,,,,,,,,1,,,79,0
219720,note_on,25,0,1,,,,,,,,,1,,,74,81
219755,note_off,155,0,5,,,,,,,,,5,,,55,0
219755,note_off,0,0,5,,,,,,,,,5,,,43,0
219815,note_off,95,0,1,,,,,,,,,1,,,74,0
219840,note_on,25,0,1,,,,,,,,,1,,,86,81
219840,note_on,0,0,5,,,,,,,,,5,,,59,81
219840,note_on,85,0,5,,,,,,,,,5,,,47,81
219935,note_off,95,0,1,,,,,,,,,1,,,86,0
219960,note_on,25,0,1,,,,,,,,,1,,,83,81
219995,note_off,0,0,5,,,,,,,,,5,,,47,0
219995,note_off,155,0,5,,,,,,,,,5,,,59,0
220055,note_off,95,0,1,,,,,,,,,1,,,83,0
220080,note_on,85,0,5,,,,,,,,,5,,,62,81
220080,note_on,0,0,5,,,,,,,,,5,,,50,81
220080,note_on,25,0,1,,,,,,,,,1,,,79,81
220175,note_off,95,0,1,,,,,,,,,1,,,79,0
220200,note_on,25,0,1,,,,,,,,,1,,,74,81
220235,note_off,155,0,5,,,,,,,,,5,,,50,0
220235,note_off,0,0,5,,,,,,,,,5,,,62,0
220295,note_off,95,0,1,,,,,,,,,1,,,74,0
220320,note_on,25,0,1,,,,,,,,,1,,,86,82
220320,note_on,85,0,5,,,,,,,,,5,,,67,82
220320,note_on,0,0,5,,,,,,,,,5,,,55,82
220415,note_off,95,0,1,,,,,,,,,1,,,86,0
220440,note_on,25,0,1,,,,,,,,,1,,,83,82
220535,note_off,95,0,1,,,,,,,,,1,,,83,0
220560,note_on,25,0,1,,,,,,,,,1,,,79,82
220655,note_off,95,0,1,,,,,,,,,1,,,79,0
220680,note_on,25,0,1,,,,,,,,,1,,,74,82
220760,set_tempo,1880,1,0,,,,,,402684,,,,,,,
220770,note_off,450,0,5,,,,,,,,,5,,,55,0
220775,note_off,95,0,1,,,,,,,,,1,,,74,0
220775,note_off,5,0,5,,,,,,,,,5,,,67,0
220800,note_on,3855,0,2,,,,,,,,,2,,,78,85
220800,note_on,25,0,1,,,,,,,,,1,,,81,85
220800,note_on,0,0,5,,,,,,,,,5,,,45,85
220800,note_on,25,0,5,,,,,,,,,5,,,57,85
220990,note_off,0,0,5,,,,,,,,,5,,,57,0
220990,note_off,190,0,5,,,,,,,,,5,,,45,0
221040,note_on,0,0,5,,,,,,,,,5,,,57,83
221040,note_on,50,0,5,,,,,,,,,5,,,45,83
221160,note_on,0,0,1,,,,,,,,,1,,,83,82
221160,note_off,360,0,2,,,,,,,,,2,,,78,0
221160,note_off,360,0,1,,,,,,,,,1,,,81,0
221160,note_on,0,0,2,,,,,,,,,2,,,79,82
221220,note_on,0,0,2,,,,,,,,,2,,,76,81
221220,note_off,60,0,2,,,,,,,,,2,,,79,0
221220,note_off,60,0,1,,,,,,,,,1,,,83,0
221220,note_on,0,0,1,,,,,,,,,1,,,79,81
221230,note_off,0,0,5,,,,,,,,,5,,,45,0
221230,note_off,190,0,5,,,,,,,,,5,,,57,0
221280,note_on,0,0,2,,,,,,,,,2,,,74,81
221280,note_off,60,0,1,,,,,,,,,1,,,79,0
221280,note_on,0,0,5,,,,,,,,,5,,,57,81
221280,note_on,0,0,1,,,,,,,,,1,,,78,81
221280,note_on,50,0,5,,,,,,,,,5,,,45,81
221280,note_off,60,0,2,,,,,,,,,2,,,76,0
221470,note_off,0,0,5,,,,,,,,,5,,,45,0
221470,note_off,190,0,5,,,,,,,,,5,,,57,0
221520,note_on,50,0,5,,,,,,,,,5,,,45,78
221520,note_on,0,0,5,,,,,,,,,5,,,57,78
221710,note_off,0,0,5,,,,,,,,,5,,,45,0
221710,note_off,190,0,5,,,,,,,,,5,,,57,0
221760,note_on,0,0,5,,,,,,,,,5,,,45,76
221760,note_on,50,0,5,,,,,,,,,5,,,57,76
221950,note_off,0,0,5,,,,,,,,,5,,,57,0
221950,note_off,190,0,5,,,,,,,,,5,,,45,0
222000,note_on,0,0,5,,,,,,,,,5,,,57,73
222000,note_on,50,0,5,,,,,,,,,5,,,45,73
222000,note_on,0,0,1,,,,,,,,,1,,,81,75
222000,note_off,720,0,1,,,,,,,,,1,,,78,0
222000,note_off,720,0,2,,,,,,,,,2,,,74,0
222000,note_on,0,0,2,,,,,,,,,2,,,78,75
222190,note_off,0,0,5,,,,,,,,,5,,,45,0
222190,note_off,190,0,5,,,,,,,,,5,,,57,0
222240,note_on,50,0,5,,,,,,,,,5,,,45,71
222240,note_on,0,0,5,,,,,,,,,5,,,57,71
222240,note_on,0,0,1,,,,,,,,,1,,,76,72
222240,note_off,240,0,1,,,,,,,,,1,,,81,0
222240,note_off,240,0,2,,,,,,,,,2,,,78,0
222240,note_on,0,0,1,,,,,,,,,1,,,79,72
222430,note_off,190,0,5,,,,,,,,,5,,,57,0
222430,note_off,0,0,5,,,,,,,,,5,,,45,0
222480,note_on,0,0,1,,,,,,,,,1,,,76,68
222480,note_off,0,0,1,,,,,,,,,1,,,76,0
222480,note_off,240,0,1,,,,,,,,,1,,,79,0
222480,note_on,240,0,2,,,,,,,,,2,,,73,68
222480,note_on,0,0,5,,,,,,,,,5,,,57,69
222480,note_on,50,0,5,,,,,,,,,5,,,45,69
222670,note_off,0,0,5,,,,,,,,,5,,,45,0
222670,note_off,190,0,5,,,,,,,,,5,,,57,0
222680,set_tempo,1920,1,0,,,,,,413793,,,,,,,
222720,note_off,240,0,2,,,,,,,,,2,,,73,0
222720,note_off,240,0,1,,,,,,,,,1,,,76,0
222720,set_tempo,40,1,0,,,,,,413793,,,,,,,
222720,note_on,50,0,5,,,,,,,,,5,,,62,85
222720,note_on,0,0,1,,,,,,,,,1,,,74,85
223080,note_off,360,0,5,,,,,,,,,5,,,62,0
223080,note_on,0,0,1,,,,,,,,,1,,,76,82
223080,note_off,360,0,1,,,,,,,,,1,,,74,0
223080,note_on,0,0,5,,,,,,,,,5,,,64,82
223130,note_off,50,0,5,,,,,,,,,5,,,64,0
223140,note_on,0,0,1,,,,,,,,,1,,,73,82
223140,note_off,60,0,1,,,,,,,,,1,,,76,0
223140,note_on,10,0,5,,,,,,,,,5,,,61,82
223190,note_off,50,0,5,,,,,,,,,5,,,61,0
223200,note_on,0,0,1,,,,,,,,,1,,,71,81
223200,note_on,10,0,5,,,,,,,,,5,,,59,81
223200,note_off,60,0,1,,,,,,,,,1,,,73,0
223560,note_on,0,0,5,,,,,,,,,5,,,61,79
223560,note_off,360,0,5,,,,,,,,,5,,,59,0
223560,note_on,0,0,1,,,,,,,,,1,,,73,79
223560,note_off,360,0,1,,,,,,,,,1,,,71,0
223610,note_off,50,0,5,,,,,,,,,5,,,61,0
223620,note_on,10,0,5,,,,,,,,,5,,,57,78
223620,note_on,0,0,1,,,,,,,,,1,,,69,78
223620,note_off,60,0,1,,,,,,,,,1,,,73,0
223670,note_off,50,0,5,,,,,,,,,5,,,57,0
223680,note_on,10,0,5,,,,,,,,,5,,,55,78
223680,note_off,60,0,1,,,,,,,,,1,,,69,0
223680,note_on,0,0,1,,,,,,,,,1,,,67,78
224040,note_off,360,0,5,,,,,,,,,5,,,55,0
224040,note_off,360,0,1,,,,,,,,,1,,,67,0
224040,note_on,0,0,1,,,,,,,,,1,,,69,75
224040,note_on,0,0,5,,,,,,,,,5,,,57,75
224090,note_off,50,0,5,,,,,,,,,5,,,57,0
224100,note_off,60,0,1,,,,,,,,,1,,,69,0
224100,note_on,10,0,5,,,,,,,,,5,,,54,75
224100,note_on,0,0,1,,,,,,,,,1,,,66,75
224150,note_off,50,0,5,,,,,,,,,5,,,54,0
224160,note_off,60,0,1,,,,,,,,,1,,,66,0
224160,note_on,0,0,1,,,,,,,,,1,,,64,74
224160,note_on,10,0,5,,,,,,,,,5,,,52,74
224520,note_off,360,0,5,,,,,,,,,5,,,52,0
224520,note_on,0,0,5,,,,,,,,,5,,,54,72
224520,note_off,360,0,1,,,,,,,,,1,,,64,0
224520,note_on,0,0,1,,,,,,,,,1,,,66,72
224570,note_off,50,0,5,,,,,,,,,5,,,54,0
224580,note_off,60,0,1,,,,,,,,,1,,,66,0
224580,note_on,0,0,1,,,,,,,,,1,,,62,71
224580,set_tempo,1860,1,0,,,,,,425531,,,,,,,
224580,note_on,10,0,5,,,,,,,,,5,,,50,71
224630,note_off,50,0,5,,,,,,,,,5,,,50,0
224640,note_on,0,0,1,,,,,,,,,1,,,61,71
224640,note_on,10,0,5,,,,,,,,,5,,,49,71
224640,note_off,60,0,1,,,,,,,,,1,,,62,0
225025,note_off,385,0,5,,,,,,,,,5,,,49,0
225120,note_off,480,0,1,,,,,,,,,1,,,61,0
225120,note_on,2400,0,2,,,,,,,,,2,,,69,66
225160,note_on,40,0,2,,,,,,,,,2,,,73,65
225200,note_on,40,0,2,,,,,,,,,2,,,76,65
225240,note_on,120,0,1,,,,,,,,,1,,,79,64
225540,note_off,0,0,2,,,,,,,,,2,,,73,0
225540,note_off,340,0,2,,,,,,,,,2,,,76,0
225545,note_off,305,0,1,,,,,,,,,1,,,79,0
225555,note_off,15,0,2,,,,,,,,,2,,,69,0
225600,set_tempo,1020,1,0,,,,,,441176,,,,,,,
225600,note_on,14420,0,4,,,,,,,,,4,,,62,60
225600,note_on,575,0,5,,,,,,,,,5,,,50,60
225985,note_off,385,0,5,,,,,,,,,5,,,50,0
225985,note_off,385,0,4,,,,,,,,,4,,,62,0
226080,note_on,525,0,2,,,,,,,,,2,,,66,54
226120,note_on,40,0,2,,,,,,,,,2,,,69,54
226160,note_on,40,0,2,,,,,,,,,2,,,74,53
226200,note_on,655,0,1,,,,,,,,,1,,,78,53
226440,set_tempo,840,1,0,,,,,,487804,,,,,,,
226485,note_off,325,0,2,,,,,,,,,2,,,66,0
226490,note_off,5,0,2,,,,,,,,,2,,,74,0
226490,note_off,0,0,2,,,,,,,,,2,,,69,0
226505,note_off,305,0,1,,,,,,,,,1,,,78,0
226560,note_on,575,0,5,,,,,,,,,5,,,55,51
226560,set_tempo,120,1,0,,,,,,408163,,,,,,,
226560,note_on,575,0,4,,,,,,,,,4,,,62,51
226800,note_on,295,0,1,,,,,,,,,1,,,71,53
226945,note_off,385,0,5,,,,,,,,,5,,,55,0
226945,note_off,385,0,4,,,,,,,,,4,,,62,0
227040,note_on,0,0,1,,,,,,,,,1,,,70,54
227040,note_off,240,0,1,,,,,,,,,1,,,71,0
227280,note_on,0,0,1,,,,,,,,,1,,,71,56
227280,note_off,240,0,1,,,,,,,,,1,,,70,0
227475,note_off,195,0,1,,,,,,,,,1,,,71,0
227520,note_on,575,0,5,,,,,,,,,5,,,56,57
227520,note_on,575,0,4,,,,,,,,,4,,,65,57
227760,note_on,285,0,1,,,,,,,,,1,,,74,59
227905,note_off,385,0,5,,,,,,,,,5,,,56,0
227905,note_off,385,0,4,,,,,,,,,4,,,65,0
228000,note_off,240,0,1,,,,,,,,,1,,,74,0
228000,note_on,0,0,1,,,,,,,,,1,,,73,61
228240,note_on,0,0,1,,,,,,,,,1,,,74,62
228240,note_off,240,0,1,,,,,,,,,1,,,73,0
228420,set_tempo,1860,1,0,,,,,,413793,,,,,,,
228440,note_off,200,0,1,,,,,,,,,1,,,74,0
228480,control_change,24961,0,3,,,,,,,64,127,3,,,,
228480,set_tempo,60,1,0,,,,,,402684,,,,,,,
228480,note_on,40,0,1,,,,,,,,,1,,,69,72
228480,control_change,575,0,4,,,,,,,64,127,4,,,,
228480,note_on,0,0,4,,,,,,,,,4,,,57,72
228600,note_on,120,0,3,,,,,,,,,3,,,66,73
228720,note_on,0,0,3,,,,,,,,,3,,,62,73
228720,note_off,120,0,3,,,,,,,,,3,,,66,0
228828,note_off,348,0,4,,,,,,,,,4,,,57,0
228840,note_off,120,0,3,,,,,,,,,3,,,62,0
228840,note_on,0,0,3,,,,,,,,,3,,,66,74
228900,control_change,72,0,4,,,,,,,64,0,4,,,,
228900,control_change,60,0,3,,,,,,,64,0,3,,,,
228960,note_on,0,0,4,,,,,,,,,4,,,57,74
228960,note_off,0,0,3,,,,,,,,,3,,,66,0
228960,control_change,60,0,3,,,,,,,64,127,3,,,,
228960,control_change,60,0,4,,,,,,,64,127,4,,,,
229080,note_on,120,0,3,,,,,,,,,3,,,66,75
229200,note_on,0,0,3,,,,,,,,,3,,,62,76
229200,note_off,120,0,3,,,,,,,,,3,,,66,0
229308,note_off,348,0,4,,,,,,,,,4,,,57,0
229320,note_on,0,0,3,,,,,,,,,3,,,66,76
229320,note_off,120,0,3,,,,,,,,,3,,,62,0
229380,control_change,60,0,3,,,,,,,64,0,3,,,,
229380,set_tempo,900,1,0,,,,,,408163,,,,,,,
229380,control_change,72,0,4,,,,,,,64,0,4,,,,
229440,note_on,0,0,1,,,,,,,,,1,,,76,77
229440,note_off,960,0,1,,,,,,,,,1,,,69,0
229440,control_change,60,0,3,,,,,,,64,127,3,,,,
229440,note_on,0,0,4,,,,,,,,,4,,,57,77
229440,control_change,60,0,4,,,,,,,64,127,4,,,,
229440,note_off,0,0,3,,,,,,,,,3,,,66,0
229520,note_off,80,0,1,,,,,,,,,1,,,76,0
229520,note_on,0,0,1,,,,,,,,,1,,,78,77
229560,note_on,120,0,3,,,,,,,,,3,,,67,77
229600,note_on,0,0,1,,,,,,,,,1,,,76,77
229600,note_off,80,0,1,,,,,,,,,1,,,78,0
229680,note_on,0,0,3,,,,,,,,,3,,,61,78
229680,note_on,0,0,1,,,,,,,,,1,,,78,78
229680,note_off,80,0,1,,,,,,,,,1,,,76,0
229680,note_off,120,0,3,,,,,,,,,3,,,67,0
229760,note_on,0,0,1,,,,,,,,,1,,,76,78
229760,note_off,80,0,1,,,,,,,,,1,,,78,0
229788,note_off,348,0,4,,,,,,,,,4,,,57,0
229800,note_off,120,0,3,,,,,,,,,3,,,61,0
229800,note_on,0,0,3,,,,,,,,,3,,,67,78
229840,note_on,0,0,1,,,,,,,,,1,,,78,79
229840,note_off,80,0,1,,,,,,,,,1,,,76,0
229860,control_change,72,0,4,,,,,,,64,0,4,,,,
229860,control_change,60,0,3,,,,,,,64,0,3,,,,
229920,control_change,60,0,3,,,,,,,64,127,3,,,,
229920,note_off,0,0,3,,,,,,,,,3,,,67,0
229920,note_off,80,0,1,,,,,,,,,1,,,78,0
229920,note_on,0,0,4,,,,,,,,,4,,,57,79
229920,control_change,60,0,4,,,,,,,64,127,4,,,,
229920,note_on,0,0,1,,,,,,,,,1,,,76,79
230000,note_off,80,0,1,,,,,,,,,1,,,76,0
230000,note_on,0,0,1,,,,,,,,,1,,,78,79
230040,note_on,120,0,3,,,,,,,,,3,,,67,80
230080,note_on,0,0,1,,,,,,,,,1,,,76,80
230080,note_off,80,0,1,,,,,,,,,1,,,78,0
230160,note_off,80,0,1,,,,,,,,,1,,,76,0
230160,note_off,120,0,3,,,,,,,,,3,,,67,0
230160,note_on,0,0,3,,,,,,,,,3,,,61,80
230160,note_on,0,0,1,,,,,,,,,1,,,74,80
230268,note_off,348,0,4,,,,,,,,,4,,,57,0
230280,note_off,120,0,3,,,,,,,,,3,,,61,0
230280,note_on,0,0,3,,,,,,,,,3,,,67,81
230280,note_off,120,0,1,,,,,,,,,1,,,74,0
230280,note_on,0,0,1,,,,,,,,,1,,,76,81
230340,control_change,60,0,3,,,,,,,64,0,3,,,,
230340,set_tempo,960,1,0,,,,,,413793,,,,,,,
230340,control_change,72,0,4,,,,,,,64,0,4,,,,
230400,note_off,60,0,3,,,,,,,,,3,,,67,0
230400,note_on,0,0,5,,,,,,,,,5,,,50,84
230400,set_tempo,60,1,0,,,,,,402684,,,,,,,
230400,note_on,2495,0,5,,,,,,,,,5,,,62,84
230400,note_off,120,0,1,,,,,,,,,1,,,76,0
230400,note_on,0,0,1,,,,,,,,,1,,,74,84
230495,note_off,95,0,1,,,,,,,,,1,,,74,0
230520,note_on,25,0,1,,,,,,,,,1,,,78,83
230615,note_off,95,0,1,,,,,,,,,1,,,78,0
230640,note_on,25,0,1,,,,,,,,,1,,,74,82
230735,note_off,95,0,1,,,,,,,,,1,,,74,0
230760,note_on,25,0,1,,,,,,,,,1,,,73,81
230785,note_off,385,0,5,,,,,,,,,5,,,50,0
230785,note_off,0,0,5,,,,,,,,,5,,,62,0
230855,note_off,95,0,1,,,,,,,,,1,,,73,0
230880,note_on,25,0,1,,,,,,,,,1,,,71,80
230880,note_on,95,0,5,,,,,,,,,5,,,47,80
230880,note_on,0,0,5,,,,,,,,,5,,,59,80
230975,note_off,95,0,1,,,,,,,,,1,,,71,0
231000,note_on,25,0,1,,,,,,,,,1,,,74,79
231095,note_off,95,0,1,,,,,,,,,1,,,74,0
231120,note_on,25,0,1,,,,,,,,,1,,,71,78
231215,note_off,95,0,1,,,,,,,,,1,,,71,0
231240,note_on,25,0,1,,,,,,,,,1,,,69,77
231265,note_off,0,0,5,,,,,,,,,5,,,47,0
231265,note_off,385,0,5,,,,,,,,,5,,,59,0
231335,note_off,95,0,1,,,,,,,,,1,,,69,0
231360,note_on,0,0,5,,,,,,,,,5,,,55,76
231360,note_on,95,0,5,,,,,,,,,5,,,43,76
231360,note_on,25,0,1,,,,,,,,,1,,,67,76
231455,note_off,95,0,1,,,,,,,,,1,,,67,0
231480,note_on,25,0,1,,,,,,,,,1,,,71,76
231575,note_off,95,0,1,,,,,,,,,1,,,71,0
231600,note_on,25,0,1,,,,,,,,,1,,,67,75
231695,note_off,95,0,1,,,,,,,,,1,,,67,0
231720,note_on,25,0,1,,,,,,,,,1,,,66,74
231745,note_off,0,0,5,,,,,,,,,5,,,43,0
231745,note_off,385,0,5,,,,,,,,,5,,,55,0
231815,note_off,95,0,1,,,,,,,,,1,,,66,0
231840,note_on,95,0,5,,,,,,,,,5,,,52,73
231840,note_on,25,0,1,,,,,,,,,1,,,64,73
231840,note_on,0,0,5,,,,,,,,,5,,,40,73
231935,note_off,95,0,1,,,,,,,,,1,,,64,0
231960,note_on,25,0,1,,,,,,,,,1,,,67,72
232055,note_off,95,0,1,,,,,,,,,1,,,67,0
232080,note_on,25,0,1,,,,,,,,,1,,,64,71
232175,note_off,95,0,1,,,,,,,,,1,,,64,0
232200,note_on,25,0,1,,,,,,,,,1,,,62,70
232225,note_off,385,0,5,,,,,,,,,5,,,40,0
232225,note_off,0,0,5,,,,,,,,,5,,,52,0
232280,set_tempo,1880,1,0,,,,,,408163,,,,,,,
232295,note_off,95,0,1,,,,,,,,,1,,,62,0
232320,note_on,25,0,1,,,,,,,,,1,,,61,67
232320,note_on,95,0,5,,,,,,,,,5,,,37,67
232320,note_on,0,0,5,,,,,,,,,5,,,49,67
232510,note_off,190,0,1,,,,,,,,,1,,,61,0
232680,note_on,170,0,1,,,,,,,,,1,,,69,63
232705,note_off,385,0,5,,,,,,,,,5,,,49,0
232705,note_off,0,0,5,,,,,,,,,5,,,37,0
232730,note_off,50,0,1,,,,,,,,,1,,,69,0
232740,note_on,10,0,1,,,,,,,,,1,,,76,62
232790,note_off,50,0,1,,,,,,,,,1,,,76,0
232800,note_on,10,0,1,,,,,,,,,1,,,79,61
232955,note_off,155,0,1,,,,,,,,,1,,,79,0
233040,note_on,85,0,1,,,,,,,,,1,,,79,58
233160,note_on,455,0,5,,,,,,,,,5,,,49,57
233160,note_on,0,0,5,,,,,,,,,5,,,61,57
233195,note_off,155,0,1,,,,,,,,,1,,,79,0
233220,set_tempo,940,1,0,,,,,,413793,,,,,,,
233255,note_off,0,0,5,,,,,,,,,5,,,49,0
233255,note_off,95,0,5,,,,,,,,,5,,,61,0
233280,note_on,0,0,5,,,,,,,,,5,,,62,55
233280,note_on,25,0,5,,,,,,,,,5,,,50,55
233640,note_on,445,0,1,,,,,,,,,1,,,69,51
233665,note_off,0,0,5,,,,,,,,,5,,,50,0
233665,note_off,385,0,5,,,,,,,,,5,,,62,0
233690,note_off,50,0,1,,,,,,,,,1,,,69,0
233700,note_on,10,0,1,,,,,,,,,1,,,74,50
233750,note_off,50,0,1,,,,,,,,,1,,,74,0
233760,note_on,10,0,1,,,,,,,,,1,,,78,49
233915,note_off,155,0,1,,,,,,,,,1,,,78,0
234000,note_on,85,0,1,,,,,,,,,1,,,78,46
234120,note_on,455,0,5,,,,,,,,,5,,,62,44
234120,note_on,0,0,5,,,,,,,,,5,,,50,44
234155,note_off,155,0,1,,,,,,,,,1,,,78,0
234200,set_tempo,980,1,0,,,,,,425531,,,,,,,
234215,note_off,95,0,5,,,,,,,,,5,,,50,0
234215,note_off,0,0,5,,,,,,,,,5,,,62,0
234240,note_on,25,0,5,,,,,,,,,5,,,43,44
234240,note_on,0,0,5,,,,,,,,,5,,,55,44
234240,set_tempo,40,1,0,,,,,,408163,,,,,,,
234480,note_on,325,0,1,,,,,,,,,1,,,83,46
234480,note_on,7990,0,2,,,,,,,,,2,,,71,46
234625,note_off,385,0,5,,,,,,,,,5,,,55,0
234625,note_off,0,0,5,,,,,,,,,5,,,43,0
234720,note_off,240,0,1,,,,,,,,,1,,,83,0
234720,note_on,0,0,1,,,,,,,,,1,,,82,48
234720,note_off,240,0,2,,,,,,,,,2,,,71,0
234720,note_on,0,0,2,,,,,,,,,2,,,70,48
234960,note_off,240,0,1,,,,,,,,,1,,,82,0
234960,note_on,0,0,1,,,,,,,,,1,,,83,49
234960,note_on,0,0,2,,,,,,,,,2,,,71,49
234960,note_off,240,0,2,,,,,,,,,2,,,70,0
235200,note_off,240,0,2,,,,,,,,,2,,,71,0
235200,note_off,240,0,1,,,,,,,,,1,,,83,0
235200,note_on,0,0,2,,,,,,,,,2,,,70,51
235200,note_on,0,0,1,,,,,,,,,1,,,82,51
235440,note_on,0,0,2,,,,,,,,,2,,,71,53
235440,note_off,240,0,1,,,,,,,,,1,,,82,0
235440,note_on,0,0,1,,,,,,,,,1,,,83,53
235440,note_off,240,0,2,,,,,,,,,2,,,70,0
235680,note_off,240,0,2,,,,,,,,,2,,,71,0
235680,note_on,0,0,2,,,,,,,,,2,,,73,55
235680,note_on,0,0,1,,,,,,,,,1,,,85,55
235680,note_off,240,0,1,,,,,,,,,1,,,83,0
235920,note_off,240,0,2,,,,,,,,,2,,,73,0
235920,note_on,0,0,2,,,,,,,,,2,,,74,56
235920,note_on,0,0,1,,,,,,,,,1,,,86,56
235920,note_off,240,0,1,,,,,,,,,1,,,85,0
236100,set_tempo,1860,1,0,,,,,,413793,,,,,,,
236115,note_off,195,0,2,,,,,,,,,2,,,74,0
236115,note_off,195,0,1,,,,,,,,,1,,,86,0
236160,note_on,1535,0,5,,,,,,,,,5,,,56,58
236160,note_on,0,0,4,,,,,,,,,4,,,59,58
236160,note_on,5820,0,4,,,,,,,,,4,,,65,58
236160,set_tempo,60,1,0,,,,,,408163,,,,,,,
236400,note_on,285,0,2,,,,,,,,,2,,,74,60
236400,note_on,285,0,1,,,,,,,,,1,,,86,60
236545,note_off,385,0,4,,,,,,,,,4,,,59,0
236545,note_off,0,0,4,,,,,,,,,4,,,65,0
236545,note_off,385,0,5,,,,,,,,,5,,,56,0
236640,note_off,240,0,1,,,,,,,,,1,,,86,0
236640,note_on,0,0,1,,,,,,,,,1,,,85,61
236640,note_off,240,0,2,,,,,,,,,2,,,74,0
236640,note_on,0,0,2,,,,,,,,,2,,,73,61
236880,note_on,0,0,1,,,,,,,,,1,,,86,63
236880,note_off,240,0,1,,,,,,,,,1,,,85,0
236880,note_on,0,0,2,,,,,,,,,2,,,74,63
236880,note_off,240,0,2,,,,,,,,,2,,,73,0
237120,note_off,240,0,2,,,,,,,,,2,,,74,0
237120,note_on,0,0,2,,,,,,,,,2,,,73,65
237120,note_off,240,0,1,,,,,,,,,1,,,86,0
237120,note_on,0,0,1,,,,,,,,,1,,,85,65
237360,note_off,240,0,2,,,,,,,,,2,,,73,0
237360,note_on,0,0,2,,,,,,,,,2,,,74,67
237360,note_on,0,0,1,,,,,,,,,1,,,86,67
237360,note_off,240,0,1,,,,,,,,,1,,,85,0
237600,note_off,240,0,2,,,,,,,,,2,,,74,0
237600,note_off,240,0,1,,,,,,,,,1,,,86,0
237600,note_on,0,0,1,,,,,,,,,1,,,88,68
237600,note_on,0,0,2,,,,,,,,,2,,,76,68
237825,set_tempo,1665,1,0,,,,,,413793,,,,,,,
237840,note_off,240,0,1,,,,,,,,,1,,,88,0
237840,note_on,0,0,1,,,,,,,,,1,,,89,70
237840,note_off,240,0,2,,,,,,,,,2,,,76,0
237840,note_on,0,0,2,,,,,,,,,2,,,77,70
238040,note_off,200,0,2,,,,,,,,,2,,,77,0
238045,note_off,205,0,1,,,,,,,,,1,,,89,0
238080,control_change,7680,0,3,,,,,,,64,127,3,,,,
238080,control_change,1535,0,4,,,,,,,64,127,4,,,,
238080,note_on,0,0,4,,,,,,,,,4,,,57,78
238080,set_tempo,255,1,0,,,,,,402684,,,,,,,
238080,note_on,35,0,1,,,,,,,,,1,,,81,78
238200,note_on,0,0,1,,,,,,,,,1,,,86,78
238200,note_on,120,0,3,,,,,,,,,3,,,66,78
238200,note_off,120,0,1,,,,,,,,,1,,,81,0
238320,note_off,120,0,1,,,,,,,,,1,,,86,0
238320,note_on,0,0,1,,,,,,,,,1,,,81,78
238320,note_off,120,0,3,,,,,,,,,3,,,66,0
238320,note_on,0,0,3,,,,,,,,,3,,,62,78
238428,note_off,348,0,4,,,,,,,,,4,,,57,0
238440,note_on,0,0,3,,,,,,,,,3,,,66,78
238440,note_off,120,0,3,,,,,,,,,3,,,62,0
238440,note_off,120,0,1,,,,,,,,,1,,,81,0
238440,note_on,0,0,1,,,,,,,,,1,,,78,78
238500,control_change,60,0,3,,,,,,,64,0,3,,,,
238500,control_change,72,0,4,,,,,,,64,0,4,,,,
238540,note_off,100,0,1,,,,,,,,,1,,,78,0
238560,note_on,20,0,1,,,,,,,,,1,,,78,79
238560,note_off,0,0,3,,,,,,,,,3,,,66,0
238560,control_change,60,0,3,,,,,,,64,127,3,,,,
238560,control_change,60,0,4,,,,,,,64,127,4,,,,
238560,note_on,0,0,4,,,,,,,,,4,,,57,79
238680,note_on,0,0,1,,,,,,,,,1,,,81,79
238680,note_off,120,0,1,,,,,,,,,1,,,78,0
238680,note_on,120,0,3,,,,,,,,,3,,,66,79
238800,note_on,0,0,3,,,,,,,,,3,,,62,79
238800,note_on,0,0,1,,,,,,,,,1,,,78,79
238800,note_off,120,0,1,,,,,,,,,1,,,81,0
238800,note_off,120,0,3,,,,,,,,,3,,,66,0
238908,note_off,348,0,4,,,,,,,,,4,,,57,0
238920,note_off,120,0,1,,,,,,,,,1,,,78,0
238920,note_on,0,0,3,,,,,,,,,3,,,66,79
238920,note_on,0,0,1,,,,,,,,,1,,,74,79
238920,note_off,120,0,3,,,,,,,,,3,,,62,0
238980,control_change,72,0,4,,,,,,,64,0,4,,,,
238980,control_change,60,0,3,,,,,,,64,0,3,,,,
239015,note_off,95,0,1,,,,,,,,,1,,,74,0
239040,note_off,0,0,3,,,,,,,,,3,,,66,0
239040,control_change,60,0,3,,,,,,,64,127,3,,,,
239040,control_change,60,0,4,,,,,,,64,127,4,,,,
239040,note_on,0,0,4,,,,,,,,,4,,,57,80
239040,note_on,25,0,1,,,,,,,,,1,,,81,80
239160,note_on,120,0,3,,,,,,,,,3,,,66,80
239160,note_on,0,0,1,,,,,,,,,1,,,86,80
239160,note_off,120,0,1,,,,,,,,,1,,,81,0
239280,note_on,0,0,3,,,,,,,,,3,,,62,80
239280,note_on,0,0,1,,,,,,,,,1,,,81,80
239280,note_off,120,0,1,,,,,,,,,1,,,86,0
239280,note_off,120,0,3,,,,,,,,,3,,,66,0
239388,note_off,348,0,4,,,,,,,,,4,,,57,0
239400,note_on,0,0,3,,,,,,,,,3,,,66,80
239400,note_on,0,0,1,,,,,,,,,1,,,78,80
239400,note_off,120,0,3,,,,,,,,,3,,,62,0
239400,note_off,120,0,1,,,,,,,,,1,,,81,0
239460,control_change,60,0,3,,,,,,,64,0,3,,,,
239460,control_change,72,0,4,,,,,,,64,0,4,,,,
239505,note_off,105,0,1,,,,,,,,,1,,,78,0
239520,note_off,0,0,3,,,,,,,,,3,,,66,0
239520,note_on,15,0,1,,,,,,,,,1,,,78,80
239520,note_on,0,0,4,,,,,,,,,4,,,57,80
239520,control_change,60,0,4,,,,,,,64,127,4,,,,
239520,control_change,60,0,3,,,,,,,64,127,3,,,,
239640,note_off,120,0,1,,,,,,,,,1,,,78,0
239640,note_on,120,0,3,,,,,,,,,3,,,66,81
239640,note_on,0,0,1,,,,,,,,,1,,,81,81
239760,note_off,120,0,1,,,,,,,,,1,,,81,0
239760,note_on,0,0,1,,,,,,,,,1,,,78,81
239760,note_on,0,0,3,,,,,,,,,3,,,62,81
239760,note_off,120,0,3,,,,,,,,,3,,,66,0
239868,note_off,348,0,4,,,,,,,,,4,,,57,0
239880,note_off,120,0,1,,,,,,,,,1,,,78,0
239880,note_on,0,0,3,,,,,,,,,3,,,66,81
239880,note_on,0,0,1,,,,,,,,,1,,,74,81
239880,note_off,120,0,3,,,,,,,,,3,,,62,0
239940,control_change,72,0,4,,,,,,,64,0,4,,,,
239940,control_change,60,0,3,,,,,,,64,0,3,,,,
239960,set_tempo,1880,1,0,,,,,,408163,,,,,,,
239975,note_off,95,0,1,,,,,,,,,1,,,74,0
240000,control_change,60,0,3,,,,,,,64,127,3,,,,
240000,note_on,0,0,4,,,,,,,,,4,,,57,81
240000,control_change,60,0,4,,,,,,,64,127,4,,,,
240000,note_on,25,0,1,,,,,,,,,1,,,76,81
240000,note_off,0,0,3,,,,,,,,,3,,,66,0
240080,note_on,0,0,1,,,,,,,,,1,,,78,82
240080,note_off,80,0,1,,,,,,,,,1,,,76,0
240120,note_on,120,0,3,,,,,,,,,3,,,67,82
240160,note_off,80,0,1,,,,,,,,,1,,,78,0
240160,note_on,0,0,1,,,,,,,,,1,,,76,82
240240,note_on,0,0,1,,,,,,,,,1,,,78,82
240240,note_off,80,0,1,,,,,,,,,1,,,76,0
240240,note_off,120,0,3,,,,,,,,,3,,,67,0
240240,note_on,0,0,3,,,,,,,,,3,,,61,82
240320,note_on,0,0,1,,,,,,,,,1,,,76,82
240320,note_off,80,0,1,,,,,,,,,1,,,78,0
240348,note_off,348,0,4,,,,,,,,,4,,,57,0
240360,note_on,0,0,3,,,,,,,,,3,,,67,82
240360,note_off,120,0,3,,,,,,,,,3,,,61,0
240400,note_on,0,0,1,,,,,,,,,1,,,78,82
240400,note_off,80,0,1,,,,,,,,,1,,,76,0
240420,control_change,60,0,3,,,,,,,64,0,3,,,,
240420,control_change,72,0,4,,,,,,,64,0,4,,,,
240480,note_on,0,0,1,,,,,,,,,1,,,76,82
240480,note_off,80,0,1,,,,,,,,,1,,,78,0
240480,control_change,60,0,3,,,,,,,64,127,3,,,,
240480,note_off,0,0,3,,,,,,,,,3,,,67,0
240480,note_on,0,0,4,,,,,,,,,4,,,57,82
240480,control_change,60,0,4,,,,,,,64,127,4,,,,
240560,note_off,80,0,1,,,,,,,,,1,,,76,0
240560,note_on,0,0,1,,,,,,,,,1,,,78,82
240600,note_on,120,0,3,,,,,,,,,3,,,67,82
240640,note_on,0,0,1,,,,,,,,,1,,,76,83
240640,note_off,80,0,1,,,,,,,,,1,,,78,0
240720,note_on,0,0,1,,,,,,,,,1,,,78,83
240720,note_on,0,0,3,,,,,,,,,3,,,61,83
240720,note_off,80,0,1,,,,,,,,,1,,,76,0
240720,note_off,120,0,3,,,,,,,,,3,,,67,0
240800,note_off,80,0,1,,,,,,,,,1,,,78,0
240800,note_on,0,0,1,,,,,,,,,1,,,76,83
240828,note_off,348,0,4,,,,,,,,,4,,,57,0
240840,note_on,0,0,3,,,,,,,,,3,,,67,83
240840,note_off,120,0,3,,,,,,,,,3,,,61,0
240880,note_off,80,0,1,,,,,,,,,1,,,76,0
240880,note_on,0,0,1,,,,,,,,,1,,,78,83
240900,control_change,60,0,3,,,,,,,64,0,3,,,,
240900,control_change,72,0,4,,,,,,,64,0,4,,,,
240960,control_change,60,0,3,,,,,,,64,127,3,,,,
240960,note_off,0,0,3,,,,,,,,,3,,,67,0
240960,note_off,80,0,1,,,,,,,,,1,,,78,0
240960,note_on,0,0,1,,,,,,,,,1,,,76,83
240960,note_on,0,0,4,,,,,,,,,4,,,57,83
240960,control_change,60,0,4,,,,,,,64,127,4,,,,
241040,note_off,80,0,1,,,,,,,,,1,,,76,0
241040,note_on,0,0,1,,,,,,,,,1,,,78,83
241080,note_on,120,0,3,,,,,,,,,3,,,67,83
241120,note_off,80,0,1,,,,,,,,,1,,,78,0
241120,note_on,0,0,1,,,,,,,,,1,,,76,83
241200,note_on,0,0,3,,,,,,,,,3,,,61,84
241200,note_off,120,0,3,,,,,,,,,3,,,67,0
241200,note_on,0,0,1,,,,,,,,,1,,,78,84
241200,note_off,80,0,1,,,,,,,,,1,,,76,0
241280,note_on,0,0,1,,,,,,,,,1,,,76,84
241280,note_off,80,0,1,,,,,,,,,1,,,78,0
241308,note_off,348,0,4,,,,,,,,,4,,,57,0
241320,note_off,120,0,3,,,,,,,,,3,,,61,0
241320,note_on,0,0,3,,,,,,,,,3,,,67,84
241360,note_off,80,0,1,,,,,,,,,1,,,76,0
241360,note_on,0,0,1,,,,,,,,,1,,,78,84
241380,control_change,60,0,3,,,,,,,64,0,3,,,,
241380,control_change,72,0,4,,,,,,,64,0,4,,,,
241440,note_off,80,0,1,,,,,,,,,1,,,78,0
241440,control_change,60,0,3,,,,,,,64,127,3,,,,
241440,control_change,60,0,4,,,,,,,64,127,4,,,,
241440,note_on,0,0,4,,,,,,,,,4,,,57,84
241440,note_on,0,0,1,,,,,,,,,1,,,76,84
241440,note_off,0,0,3,,,,,,,,,3,,,67,0
241520,note_on,0,0,1,,,,,,,,,1,,,78,84
241520,note_off,80,0,1,,,,,,,,,1,,,76,0
241560,note_on,120,0,3,,,,,,,,,3,,,67,84
241600,note_off,80,0,1,,,,,,,,,1,,,78,0
241600,note_on,0,0,1,,,,,,,,,1,,,76,84
241680,note_off,80,0,1,,,,,,,,,1,,,76,0
241680,note_on,0,0,1,,,,,,,,,1,,,74,85
241680,note_off,120,0,3,,,,,,,,,3,,,67,0
241680,note_on,0,0,3,,,,,,,,,3,,,61,85
241788,note_off,348,0,4,,,,,,,,,4,,,57,0
241800,note_on,0,0,3,,,,,,,,,3,,,67,85
241800,note_off,120,0,3,,,,,,,,,3,,,61,0
241800,note_off,120,0,1,,,,,,,,,1,,,74,0
241800,note_on,0,0,1,,,,,,,,,1,,,76,85
241860,control_change,72,0,4,,,,,,,64,0,4,,,,
241860,control_change,60,0,3,,,,,,,64,0,3,,,,
241880,set_tempo,1920,1,0,,,,,,413793,,,,,,,
241920,note_off,60,0,3,,,,,,,,,3,,,67,0
241920,note_on,5375,0,5,,,,,,,,,5,,,62,85
241920,note_on,0,0,5,,,,,,,,,5,,,50,85
241920,note_on,0,0,1,,,,,,,,,1,,,74,85
241920,set_tempo,40,1,0,,,,,,408163,,,,,,,
241920,note_off,120,0,1,,,,,,,,,1,,,76,0
242640,note_on,0,0,1,,,,,,,,,1,,,66,82
242640,note_on,0,0,5,,,,,,,,,5,,,54,82
242640,note_off,0,0,5,,,,,,,,,5,,,62,0
242640,set_tempo,720,1,0,,,,,,413793,,,,,,,
242640,note_off,720,0,5,,,,,,,,,5,,,50,0
242640,note_off,720,0,1,,,,,,,,,1,,,74,0
242760,note_off,120,0,5,,,,,,,,,5,,,54,0
242760,note_off,120,0,1,,,,,,,,,1,,,66,0
242760,note_on,0,0,1,,,,,,,,,1,,,62,81
242760,note_on,0,0,5,,,,,,,,,5,,,50,81
242880,note_off,120,0,1,,,,,,,,,1,,,62,0
242880,note_on,0,0,1,,,,,,,,,1,,,67,80
242880,note_on,0,0,5,,,,,,,,,5,,,55,80
242880,note_off,120,0,5,,,,,,,,,5,,,50,0
243120,note_off,240,0,1,,,,,,,,,1,,,67,0
243120,note_on,0,0,1,,,,,,,,,1,,,64,79
243120,note_on,0,0,5,,,,,,,,,5,,,52,79
243120,note_off,240,0,5,,,,,,,,,5,,,55,0
243240,note_on,0,0,5,,,,,,,,,5,,,49,78
243240,note_off,120,0,5,,,,,,,,,5,,,52,0
243240,note_on,0,0,1,,,,,,,,,1,,,61,78
243240,note_off,120,0,1,,,,,,,,,1,,,64,0
243360,note_on,0,0,1,,,,,,,,,1,,,62,77
243360,note_off,120,0,1,,,,,,,,,1,,,61,0
243360,note_off,120,0,5,,,,,,,,,5,,,49,0
243360,note_on,0,0,5,,,,,,,,,5,,,50,77
243600,note_off,240,0,1,,,,,,,,,1,,,62,0
243600,note_on,0,0,1,,,,,,,,,1,,,59,75
243600,note_off,240,0,5,,,,,,,,,5,,,50,0
243600,note_on,0,0,5,,,,,,,,,5,,,47,75
243720,note_off,120,0,5,,,,,,,,,5,,,47,0
243720,note_on,0,0,5,,,,,,,,,5,,,44,75
243720,note_on,0,0,1,,,,,,,,,1,,,56,75
243720,note_off,120,0,1,,,,,,,,,1,,,59,0
243840,note_off,120,0,5,,,,,,,,,5,,,44,0
243840,note_on,0,0,5,,,,,,,,,5,,,45,75
243840,set_tempo,1200,1,0,,,,,,425531,,,,,,,
243840,note_on,0,0,1,,,,,,,,,1,,,57,75
243840,note_off,120,0,1,,,,,,,,,1,,,56,0
244225,note_off,385,0,5,,,,,,,,,5,,,45,0
244320,note_on,95,0,5,,,,,,,,,5,,,57,67
244320,note_on,0,0,5,,,,,,,,,5,,,45,67
244320,note_off,480,0,1,,,,,,,,,1,,,57,0
244320,note_on,6280,0,2,,,,,,,,,2,,,76,67
244360,note_on,40,0,2,,,,,,,,,2,,,79,66
244400,note_on,40,0,2,,,,,,,,,2,,,81,65
244440,set_tempo,600,1,0,,,,,,500000,,,,,,,
244440,note_on,120,0,1,,,,,,,,,1,,,85,65
244705,note_off,385,0,5,,,,,,,,,5,,,45,0
244705,note_off,0,0,5,,,,,,,,,5,,,57,0
244740,note_off,340,0,2,,,,,,,,,2,,,81,0
244740,note_off,300,0,1,,,,,,,,,1,,,85,0
244745,note_off,0,0,2,,,,,,,,,2,,,76,0
244745,note_off,5,0,2,,,,,,,,,2,,,79,0
244800,note_on,55,0,2,,,,,,,,,2,,,74,56
244800,note_on,0,0,5,,,,,,,,,5,,,38,56
244800,note_on,95,0,5,,,,,,,,,5,,,50,56
244840,note_on,40,0,2,,,,,,,,,2,,,78,55
244880,note_on,40,0,2,,,,,,,,,2,,,81,55
244920,note_on,180,0,1,,,,,,,,,1,,,86,54
245160,set_tempo,720,1,0,,,,,,2727272,,,,,,,
245185,note_off,0,0,5,,,,,,,,,5,,,50,0
245185,note_off,385,0,5,,,,,,,,,5,,,38,0
245210,note_off,330,0,2,,,,,,,,,2,,,81,0
245220,note_off,0,0,2,,,,,,,,,2,,,74,0
245220,note_off,10,0,2,,,,,,,,,2,,,78,0
245225,note_off,305,0,1,,,,,,,,,1,,,86,0
245760,set_tempo,0,1,0,,,,,,869565,,,,,,,
245760,control_change,3900,0,4,,,,,,,64,0,4,,,,
245760,note_on,0,0,4,,,,,,,,,4,,,61,56
245760,marker,0,1,0,,,,,,,,,,,,,
245760,time_signature,600,1,0,3,4,24,8,,,,,,,,,
245760,note_on,0,0,1,,,,,,,,,1,,,69,56
245760,control_change,3840,0,3,,,,,,,64,0,3,,,,
245760,control_change,575,0,5,,,,,,,64,0,5,,,,
245760,control_change,540,0,2,,,,,,,64,0,2,,,,
245760,note_on,0,0,5,,,,,,,,,5,,,57,56
245760,control_change,535,0,1,,,,,,,64,0,1,,,,
246720,note_on,0,0,4,,,,,,,,,4,,,62,60
246720,note_off,960,0,4,,,,,,,,,4,,,61,0
246720,note_on,0,0,1,,,,,,,,,1,,,71,60
246720,note_off,960,0,1,,,,,,,,,1,,,69,0
246720,note_on,0,0,5,,,,,,,,,5,,,52,60
246720,note_off,960,0,5,,,,,,,,,5,,,57,0
247080,note_off,360,0,1,,,,,,,,,1,,,71,0
247080,note_on,0,0,1,,,,,,,,,1,,,68,56
247147,set_tempo,1387,1,0,,,,,,895522,,,,,,,
247200,note_on,0,0,1,,,,,,,,,1,,,69,54
247200,note_off,120,0,1,,,,,,,,,1,,,68,0
247200,note_off,480,0,5,,,,,,,,,5,,,52,0
247200,note_on,0,0,5,,,,,,,,,5,,,57,54
247200,note_off,480,0,4,,,,,,,,,4,,,62,0
247200,note_on,0,0,4,,,,,,,,,4,,,61,54
247355,note_off,155,0,4,,,,,,,,,4,,,61,0
247355,note_off,155,0,1,,,,,,,,,1,,,69,0
247355,note_off,155,0,5,,,,,,,,,5,,,57,0
247440,note_on,85,0,1,,,,,,,,,1,,,64,48
247440,note_on,85,0,5,,,,,,,,,5,,,61,48
247680,note_off,240,0,1,,,,,,,,,1,,,64,0
247680,note_off,240,0,5,,,,,,,,,5,,,61,0
247680,note_on,0,0,5,,,,,,,,,5,,,60,46
247680,note_on,0,0,1,,,,,,,,,1,,,63,46
247920,note_on,0,0,5,,,,,,,,,5,,,61,45
247920,note_off,240,0,5,,,,,,,,,5,,,60,0
247920,note_on,0,0,1,,,,,,,,,1,,,64,45
247920,note_off,240,0,1,,,,,,,,,1,,,63,0
248160,note_on,0,0,1,,,,,,,,,1,,,62,43
248160,note_off,240,0,1,,,,,,,,,1,,,64,0
248160,note_off,240,0,5,,,,,,,,,5,,,61,0
248160,note_on,0,0,5,,,,,,,,,5,,,59,43
248400,note_off,240,0,5,,,,,,,,,5,,,59,0
248400,note_on,0,0,5,,,,,,,,,5,,,57,41
248400,note_on,0,0,1,,,,,,,,,1,,,61,41
248400,note_off,240,0,1,,,,,,,,,1,,,62,0
248580,set_tempo,1433,1,0,,,,,,952380,,,,,,,
248605,note_off,205,0,5,,,,,,,,,5,,,57,0
248605,note_off,205,0,1,,,,,,,,,1,,,61,0
248640,note_on,1285,0,4,,,,,,,,,4,,,56,58
248640,set_tempo,60,1,0,,,,,,869565,,,,,,,
248640,note_on,35,0,1,,,,,,,,,1,,,71,58
248640,note_on,35,0,5,,,,,,,,,5,,,52,58
249600,note_on,0,0,1,,,,,,,,,1,,,73,62
249600,note_on,0,0,4,,,,,,,,,4,,,64,62
249600,note_off,960,0,5,,,,,,,,,5,,,52,0
249600,note_on,0,0,5,,,,,,,,,5,,,57,62
249600,note_off,960,0,1,,,,,,,,,1,,,71,0
249600,note_off,960,0,4,,,,,,,,,4,,,56,0
249960,note_off,360,0,1,,,,,,,,,1,,,73,0
249960,note_on,0,0,1,,,,,,,,,1,,,69,58
250020,set_tempo,1380,1,0,,,,,,895522,,,,,,,
250080,note_off,120,0,1,,,,,,,,,1,,,69,0
250080,note_on,0,0,1,,,,,,,,,1,,,74,57
250080,note_off,480,0,4,,,,,,,,,4,,,64,0
250080,note_off,480,0,5,,,,,,,,,5,,,57,0
250080,note_on,0,0,4,,,,,,,,,4,,,64,57
250080,note_on,0,0,5,,,,,,,,,5,,,56,57
250235,note_off,155,0,1,,,,,,,,,1,,,74,0
250235,note_off,155,0,4,,,,,,,,,4,,,64,0
250235,note_off,155,0,5,,,,,,,,,5,,,56,0
250320,note_on,85,0,1,,,,,,,,,1,,,62,50
250320,note_on,85,0,5,,,,,,,,,5,,,59,50
250560,note_off,240,0,5,,,,,,,,,5,,,59,0
250560,note_off,240,0,1,,,,,,,,,1,,,62,0
250560,note_on,0,0,5,,,,,,,,,5,,,58,47
250560,note_on,0,0,1,,,,,,,,,1,,,61,47
250800,note_on,0,0,1,,,,,,,,,1,,,62,45
250800,note_off,240,0,5,,,,,,,,,5,,,58,0
250800,note_on,0,0,5,,,,,,,,,5,,,59,43
250800,note_off,240,0,1,,,,,,,,,1,,,61,0
251040,note_on,0,0,1,,,,,,,,,1,,,61,43
251040,note_on,0,0,5,,,,,,,,,5,,,57,40
251040,note_off,240,0,1,,,,,,,,,1,,,62,0
251040,note_off,240,0,5,,,,,,,,,5,,,59,0
251240,note_off,200,0,5,,,,,,,,,5,,,57,0
251280,note_on,40,0,5,,,,,,,,,5,,,56,40
251280,note_off,240,0,1,,,,,,,,,1,,,61,0
251280,note_on,0,0,1,,,,,,,,,1,,,59,40
251460,set_tempo,1440,1,0,,,,,,983606,,,,,,,
251484,note_off,204,0,5,,,,,,,,,5,,,56,0
251485,note_off,205,0,1,,,,,,,,,1,,,59,0
251520,set_tempo,60,1,0,,,,,,869565,,,,,,,
251520,note_on,35,0,1,,,,,,,,,1,,,76,51
252000,note_on,516,0,5,,,,,,,,,5,,,61,50
252000,note_on,0,0,4,,,,,,,,,4,,,64,50
252000,note_on,1765,0,4,,,,,,,,,4,,,69,50
252240,note_on,0,0,1,,,,,,,,,1,,,78,63
252240,note_off,720,0,1,,,,,,,,,1,,,76,0
252300,note_off,60,0,1,,,,,,,,,1,,,78,0
252300,note_on,0,0,1,,,,,,,,,1,,,76,61
252360,note_on,0,0,1,,,,,,,,,1,,,74,60
252360,note_off,60,0,1,,,,,,,,,1,,,76,0
252415,note_off,415,0,4,,,,,,,,,4,,,64,0
252415,note_off,415,0,5,,,,,,,,,5,,,61,0
252415,note_off,0,0,4,,,,,,,,,4,,,69,0
252420,note_off,60,0,1,,,,,,,,,1,,,74,0
252420,note_on,0,0,1,,,,,,,,,1,,,73,58
252480,note_on,65,0,4,,,,,,,,,4,,,64,57
252480,note_off,60,0,1,,,,,,,,,1,,,73,0
252480,note_on,0,0,1,,,,,,,,,1,,,74,57
252480,note_on,65,0,5,,,,,,,,,5,,,59,57
252480,note_on,0,0,4,,,,,,,,,4,,,68,57
252635,note_off,155,0,1,,,,,,,,,1,,,74,0
252720,note_on,85,0,1,,,,,,,,,1,,,74,51
252865,note_off,385,0,4,,,,,,,,,4,,,68,0
252865,note_off,0,0,4,,,,,,,,,4,,,64,0
252865,note_off,385,0,5,,,,,,,,,5,,,59,0
252875,note_off,155,0,1,,,,,,,,,1,,,74,0
252920,set_tempo,1400,1,0,,,,,,895522,,,,,,,
252960,set_tempo,40,1,0,,,,,,869565,,,,,,,
252960,note_on,85,0,1,,,,,,,,,1,,,73,51
253440,note_on,575,0,5,,,,,,,,,5,,,57,49
253440,note_on,0,0,4,,,,,,,,,4,,,61,49
253440,note_on,575,0,4,,,,,,,,,4,,,64,49
253680,note_off,720,0,1,,,,,,,,,1,,,73,0
253680,note_on,0,0,1,,,,,,,,,1,,,74,60
253740,note_off,60,0,1,,,,,,,,,1,,,74,0
253740,note_on,0,0,1,,,,,,,,,1,,,73,58
253800,note_on,0,0,1,,,,,,,,,1,,,71,56
253800,note_off,60,0,1,,,,,,,,,1,,,73,0
253825,note_off,385,0,4,,,,,,,,,4,,,61,0
253825,note_off,0,0,4,,,,,,,,,4,,,64,0
253825,note_off,385,0,5,,,,,,,,,5,,,57,0
253860,note_on,0,0,1,,,,,,,,,1,,,69,54
253860,note_off,60,0,1,,,,,,,,,1,,,71,0
253920,note_off,60,0,1,,,,,,,,,1,,,69,0
253920,note_on,95,0,5,,,,,,,,,5,,,50,52
253920,note_on,0,0,1,,,,,,,,,1,,,68,52
253920,note_on,95,0,4,,,,,,,,,4,,,52,52
253920,note_on,0,0,4,,,,,,,,,4,,,59,52
254075,note_off,155,0,1,,,,,,,,,1,,,68,0
254160,note_on,85,0,1,,,,,,,,,1,,,68,46
254305,note_off,385,0,4,,,,,,,,,4,,,59,0
254305,note_off,385,0,5,,,,,,,,,5,,,50,0
254305,note_off,0,0,4,,,,,,,,,4,,,52,0
254315,note_off,155,0,1,,,,,,,,,1,,,68,0
254346,set_tempo,1386,1,0,,,,,,895522,,,,,,,
254400,note_on,85,0,1,,,,,,,,,1,,,69,47
254400,set_tempo,54,1,0,,,,,,869565,,,,,,,
254640,note_on,335,0,5,,,,,,,,,5,,,49,49
254880,note_on,0,0,5,,,,,,,,,5,,,61,52
254880,note_off,240,0,5,,,,,,,,,5,,,49,0
255070,note_off,190,0,5,,,,,,,,,5,,,61,0
255120,note_on,9360,0,2,,,,,,,,,2,,,68,56
255120,note_on,0,0,1,,,,,,,,,1,,,71,56
255120,note_off,720,0,1,,,,,,,,,1,,,69,0
255120,note_on,50,0,5,,,,,,,,,5,,,62,56
255120,note_on,815,0,4,,,,,,,,,4,,,64,56
255310,note_off,190,0,2,,,,,,,,,2,,,68,0
255310,note_off,190,0,4,,,,,,,,,4,,,64,0
255310,note_off,190,0,1,,,,,,,,,1,,,71,0
255310,note_off,190,0,5,,,,,,,,,5,,,62,0
255360,note_on,50,0,5,,,,,,,,,5,,,61,60
255360,note_on,50,0,4,,,,,,,,,4,,,64,60
255360,note_on,50,0,2,,,,,,,,,2,,,69,60
255360,note_on,50,0,1,,,,,,,,,1,,,73,60
255550,note_off,190,0,5,,,,,,,,,5,,,61,0
255550,note_off,190,0,2,,,,,,,,,2,,,69,0
255550,note_off,190,0,1,,,,,,,,,1,,,73,0
255550,note_off,190,0,4,,,,,,,,,4,,,64,0
255600,note_on,50,0,2,,,,,,,,,2,,,71,64
255600,note_on,50,0,5,,,,,,,,,5,,,59,64
255600,note_on,50,0,4,,,,,,,,,4,,,64,64
255600,note_on,50,0,1,,,,,,,,,1,,,74,64
255780,set_tempo,1380,1,0,,,,,,895522,,,,,,,
255790,note_off,190,0,4,,,,,,,,,4,,,64,0
255790,note_off,190,0,2,,,,,,,,,2,,,71,0
255790,note_off,190,0,1,,,,,,,,,1,,,74,0
255790,note_off,190,0,5,,,,,,,,,5,,,59,0
255840,note_on,50,0,4,,,,,,,,,4,,,64,66
255840,note_on,50,0,5,,,,,,,,,5,,,57,66
255840,note_on,50,0,2,,,,,,,,,2,,,73,66
255840,note_on,50,0,1,,,,,,,,,1,,,75,66
255960,note_off,120,0,1,,,,,,,,,1,,,75,0
255960,note_on,0,0,1,,,,,,,,,1,,,76,63
256030,note_off,190,0,2,,,,,,,,,2,,,73,0
256080,note_off,240,0,4,,,,,,,,,4,,,64,0
256080,note_on,50,0,2,,,,,,,,,2,,,74,59
256080,note_on,0,0,5,,,,,,,,,5,,,62,59
256080,note_off,240,0,5,,,,,,,,,5,,,57,0
256080,note_off,120,0,1,,,,,,,,,1,,,76,0
256080,note_on,0,0,1,,,,,,,,,1,,,78,59
256200,note_on,0,0,2,,,,,,,,,2,,,71,56
256200,note_on,0,0,1,,,,,,,,,1,,,74,56
256200,note_off,120,0,1,,,,,,,,,1,,,78,0
256200,note_off,120,0,2,,,,,,,,,2,,,74,0
256270,note_off,190,0,5,,,,,,,,,5,,,62,0
256295,note_off,95,0,2,,,,,,,,,2,,,71,0
256300,note_off,100,0,1,,,,,,,,,1,,,74,0
256320,note_on,50,0,5,,,,,,,,,5,,,64,52
256320,note_on,20,0,1,,,,,,,,,1,,,73,52
256320,note_on,25,0,2,,,,,,,,,2,,,69,52
256740,set_tempo,960,1,0,,,,,,923076,,,,,,,
256800,note_on,0,0,5,,,,,,,,,5,,,52,40
256800,note_off,480,0,5,,,,,,,,,5,,,64,0
256800,note_on,0,0,1,,,,,,,,,1,,,71,40
256800,note_off,480,0,1,,,,,,,,,1,,,73,0
256800,note_on,0,0,2,,,,,,,,,2,,,68,40
256800,note_off,480,0,2,,,,,,,,,2,,,69,0
256800,set_tempo,60,1,0,,,,,,1071428,,,,,,,
257185,note_off,385,0,5,,,,,,,,,5,,,52,0
257185,note_off,385,0,1,,,,,,,,,1,,,71,0
257185,note_off,385,0,2,,,,,,,,,2,,,68,0
257280,note_on,95,0,1,,,,,,,,,1,,,69,56
257280,set_tempo,480,1,0,,,,,,869565,,,,,,,
257760,note_on,575,0,5,,,,,,,,,5,,,57,59
257760,note_on,1680,0,4,,,,,,,,,4,,,61,59
257920,note_on,640,0,1,,,,,,,,,1,,,64,59
257930,note_off,10,0,1,,,,,,,,,1,,,69,0
258080,note_off,150,0,1,,,,,,,,,1,,,64,0
258080,note_on,0,0,1,,,,,,,,,1,,,73,58
258145,note_off,385,0,5,,,,,,,,,5,,,57,0
258145,note_off,385,0,4,,,,,,,,,4,,,61,0
258240,note_on,95,0,5,,,,,,,,,5,,,52,56
258240,note_on,0,0,1,,,,,,,,,1,,,74,56
258240,note_off,160,0,1,,,,,,,,,1,,,73,0
258240,note_on,95,0,4,,,,,,,,,4,,,59,56
258400,note_on,0,0,1,,,,,,,,,1,,,71,55
258400,note_off,160,0,1,,,,,,,,,1,,,74,0
258480,note_off,240,0,4,,,,,,,,,4,,,59,0
258480,note_on,0,0,4,,,,,,,,,4,,,62,54
258560,note_off,160,0,1,,,,,,,,,1,,,71,0
258560,note_on,0,0,1,,,,,,,,,1,,,68,54
258625,note_off,385,0,5,,,,,,,,,5,,,52,0
258666,set_tempo,1386,1,0,,,,,,895522,,,,,,,
258720,note_off,240,0,4,,,,,,,,,4,,,62,0
258720,note_on,0,0,4,,,,,,,,,4,,,61,52
258720,note_on,95,0,5,,,,,,,,,5,,,57,52
258720,note_off,160,0,1,,,,,,,,,1,,,68,0
258720,note_on,0,0,1,,,,,,,,,1,,,69,52
258825,note_off,105,0,1,,,,,,,,,1,,,69,0
258875,note_off,155,0,4,,,,,,,,,4,,,61,0
258875,note_off,155,0,5,,,,,,,,,5,,,57,0
258960,note_on,135,0,1,,,,,,,,,1,,,64,48
258960,note_on,85,0,5,,,,,,,,,5,,,61,48
259200,note_on,0,0,1,,,,,,,,,1,,,63,46
259200,note_off,240,0,1,,,,,,,,,1,,,64,0
259200,note_off,240,0,5,,,,,,,,,5,,,61,0
259200,note_on,0,0,5,,,,,,,,,5,,,60,46
259440,note_off,240,0,1,,,,,,,,,1,,,63,0
259440,note_off,240,0,5,,,,,,,,,5,,,60,0
259440,note_on,0,0,5,,,,,,,,,5,,,61,44
259440,note_on,0,0,1,,,,,,,,,1,,,64,44
259680,note_on,0,0,5,,,,,,,,,5,,,59,42
259680,note_off,240,0,5,,,,,,,,,5,,,61,0
259680,note_on,0,0,1,,,,,,,,,1,,,62,42
259680,note_off,240,0,1,,,,,,,,,1,,,64,0
259920,note_on,0,0,5,,,,,,,,,5,,,57,40
259920,note_off,240,0,5,,,,,,,,,5,,,59,0
259920,note_off,240,0,1,,,,,,,,,1,,,62,0
259920,note_on,0,0,1,,,,,,,,,1,,,61,40
260112,set_tempo,1446,1,0,,,,,,895522,,,,,,,
260125,note_off,205,0,5,,,,,,,,,5,,,57,0
260125,note_off,205,0,1,,,,,,,,,1,,,61,0
260160,set_tempo,48,1,0,,,,,,869565,,,,,,,
260160,note_on,35,0,1,,,,,,,,,1,,,71,60
260640,note_on,515,0,5,,,,,,,,,5,,,52,64
260640,note_on,1765,0,4,,,,,,,,,4,,,56,64
260800,note_on,640,0,1,,,,,,,,,1,,,64,67
260810,note_off,10,0,1,,,,,,,,,1,,,71,0
260960,note_on,0,0,1,,,,,,,,,1,,,74,65
260960,note_off,150,0,1,,,,,,,,,1,,,64,0
261025,note_off,385,0,5,,,,,,,,,5,,,52,0
261025,note_off,385,0,4,,,,,,,,,4,,,56,0
261120,note_on,0,0,1,,,,,,,,,1,,,73,64
261120,note_on,95,0,4,,,,,,,,,4,,,64,64
261120,note_on,95,0,5,,,,,,,,,5,,,57,64
261120,note_off,160,0,1,,,,,,,,,1,,,74,0
261280,note_on,0,0,1,,,,,,,,,1,,,69,63
261280,note_off,160,0,1,,,,,,,,,1,,,73,0
261440,note_off,160,0,1,,,,,,,,,1,,,69,0
261440,note_on,0,0,1,,,,,,,,,1,,,78,61
261505,note_off,385,0,5,,,,,,,,,5,,,57,0
261505,note_off,385,0,4,,,,,,,,,4,,,64,0
261560,set_tempo,1400,1,0,,,,,,895522,,,,,,,
261600,note_off,160,0,1,,,,,,,,,1,,,78,0
261600,note_on,0,0,1,,,,,,,,,1,,,76,60
261720,note_on,120,0,1,,,,,,,,,1,,,74,58
261725,note_off,5,0,1,,,,,,,,,1,,,76,0
261810,note_off,85,0,1,,,,,,,,,1,,,74,0
261840,note_on,335,0,5,,,,,,,,,5,,,59,52
261840,note_on,30,0,1,,,,,,,,,1,,,62,52
262080,note_on,0,0,1,,,,,,,,,1,,,61,50
262080,note_off,240,0,1,,,,,,,,,1,,,62,0
262080,note_off,240,0,5,,,,,,,,,5,,,59,0
262080,note_on,0,0,5,,,,,,,,,5,,,58,50
262320,note_on,0,0,1,,,,,,,,,1,,,62,48
262320,note_off,240,0,1,,,,,,,,,1,,,61,0
262320,note_off,240,0,5,,,,,,,,,5,,,58,0
262320,note_on,0,0,5,,,,,,,,,5,,,59,48
262560,note_off,240,0,1,,,,,,,,,1,,,62,0
262560,note_on,0,0,1,,,,,,,,,1,,,61,46
262560,note_off,240,0,5,,,,,,,,,5,,,59,0
262560,note_on,0,0,5,,,,,,,,,5,,,57,46
262800,note_off,240,0,5,,,,,,,,,5,,,57,0
262800,note_on,0,0,5,,,,,,,,,5,,,56,44
262800,note_off,240,0,1,,,,,,,,,1,,,61,0
262800,note_on,0,0,1,,,,,,,,,1,,,59,44
262980,set_tempo,1420,1,0,,,,,,952380,,,,,,,
262995,note_off,195,0,1,,,,,,,,,1,,,59,0
263000,note_off,200,0,5,,,,,,,,,5,,,56,0
263040,note_on,45,0,1,,,,,,,,,1,,,76,53
263040,set_tempo,60,1,0,,,,,,869565,,,,,,,
263520,note_on,2015,0,4,,,,,,,,,4,,,69,59
263520,note_on,520,0,5,,,,,,,,,5,,,61,59
263640,note_on,600,0,1,,,,,,,,,1,,,77,65
263655,note_off,15,0,1,,,,,,,,,1,,,76,0
263760,note_off,105,0,1,,,,,,,,,1,,,77,0
263760,note_on,0,0,1,,,,,,,,,1,,,78,62
263880,note_off,120,0,1,,,,,,,,,1,,,78,0
263880,note_on,0,0,1,,,,,,,,,1,,,73,60
263905,note_off,385,0,5,,,,,,,,,5,,,61,0
263905,note_off,385,0,4,,,,,,,,,4,,,69,0
264000,note_off,120,0,1,,,,,,,,,1,,,73,0
264000,note_on,0,0,1,,,,,,,,,1,,,76,57
264000,note_on,95,0,5,,,,,,,,,5,,,59,57
264000,note_on,95,0,4,,,,,,,,,4,,,68,57
264060,note_on,60,0,1,,,,,,,,,1,,,74,56
264090,note_off,30,0,1,,,,,,,,,1,,,76,0
264180,note_off,90,0,1,,,,,,,,,1,,,74,0
264240,note_on,60,0,1,,,,,,,,,1,,,74,52
264385,note_off,385,0,4,,,,,,,,,4,,,68,0
264385,note_off,385,0,5,,,,,,,,,5,,,59,0
264425,note_off,185,0,1,,,,,,,,,1,,,74,0
264426,set_tempo,1386,1,0,,,,,,895522,,,,,,,
264480,note_on,55,0,1,,,,,,,,,1,,,73,52
264480,set_tempo,54,1,0,,,,,,869565,,,,,,,
264960,note_on,575,0,5,,,,,,,,,5,,,57,60
264960,note_on,575,0,4,,,,,,,,,4,,,64,60
265080,note_on,0,0,1,,,,,,,,,1,,,74,62
265080,note_off,600,0,1,,,,,,,,,1,,,73,0
265200,note_on,0,0,1,,,,,,,,,1,,,76,60
265200,note_off,120,0,1,,,,,,,,,1,,,74,0
265320,note_off,120,0,1,,,,,,,,,1,,,76,0
265320,note_on,0,0,1,,,,,,,,,1,,,69,58
265345,note_off,385,0,5,,,,,,,,,5,,,57,0
265345,note_off,385,0,4,,,,,,,,,4,,,64,0
265440,note_on,0,0,1,,,,,,,,,1,,,69,56
265440,note_off,120,0,1,,,,,,,,,1,,,69,0
265440,note_on,95,0,4,,,,,,,,,4,,,64,56
265440,note_on,95,0,5,,,,,,,,,5,,,62,56
265500,note_off,60,0,1,,,,,,,,,1,,,69,0
265500,note_on,0,0,1,,,,,,,,,1,,,68,55
265620,note_off,120,0,1,,,,,,,,,1,,,68,0
265680,note_on,60,0,1,,,,,,,,,1,,,68,52
265825,note_off,385,0,5,,,,,,,,,5,,,62,0
265825,note_off,385,0,4,,,,,,,,,4,,,64,0
265860,note_off,180,0,1,,,,,,,,,1,,,68,0
265866,set_tempo,1386,1,0,,,,,,895522,,,,,,,
265920,note_on,60,0,1,,,,,,,,,1,,,69,51
265920,note_on,95,0,5,,,,,,,,,5,,,61,51
265920,note_on,95,0,4,,,,,,,,,4,,,64,51
265920,set_tempo,54,1,0,,,,,,869565,,,,,,,
266040,note_on,0,0,1,,,,,,,,,1,,,71,53
266040,note_off,120,0,1,,,,,,,,,1,,,69,0
266160,note_on,0,0,1,,,,,,,,,1,,,73,54
266160,note_off,120,0,1,,,,,,,,,1,,,71,0
266280,note_off,120,0,1,,,,,,,,,1,,,73,0
266280,note_on,0,0,1,,,,,,,,,1,,,74,56
266305,note_off,385,0,5,,,,,,,,,5,,,61,0
266305,note_off,385,0,4,,,,,,,,,4,,,64,0
266400,note_on,95,0,5,,,,,,,,,5,,,49,58
266400,note_on,0,0,1,,,,,,,,,1,,,76,58
266400,note_on,95,0,4,,,,,,,,,4,,,57,58
266400,note_off,120,0,1,,,,,,,,,1,,,74,0
266520,note_off,120,0,1,,,,,,,,,1,,,76,0
266520,note_on,0,0,1,,,,,,,,,1,,,78,60
266640,note_off,120,0,1,,,,,,,,,1,,,78,0
266640,note_on,0,0,1,,,,,,,,,1,,,80,62
266760,note_off,120,0,1,,,,,,,,,1,,,80,0
266760,note_on,0,0,1,,,,,,,,,1,,,81,65
266880,note_off,120,0,1,,,,,,,,,1,,,81,0
266880,note_on,0,0,1,,,,,,,,,1,,,80,66
266880,note_off,480,0,5,,,,,,,,,5,,,49,0
266880,note_on,0,0,5,,,,,,,,,5,,,50,66
267000,note_on,0,0,1,,,,,,,,,1,,,78,63
267000,note_off,120,0,1,,,,,,,,,1,,,80,0
267120,note_off,120,0,1,,,,,,,,,1,,,78,0
267120,note_on,0,0,1,,,,,,,,,1,,,76,59
267240,note_off,120,0,1,,,,,,,,,1,,,76,0
267240,note_on,0,0,1,,,,,,,,,1,,,74,56
267260,note_off,860,0,4,,,,,,,,,4,,,57,0
267265,note_off,385,0,5,,,,,,,,,5,,,50,0
267306,set_tempo,1386,1,0,,,,,,895522,,,,,,,
267340,note_off,100,0,1,,,,,,,,,1,,,74,0
267360,note_on,20,0,1,,,,,,,,,1,,,73,58
267360,note_on,95,0,5,,,,,,,,,5,,,52,58
267360,note_on,100,0,4,,,,,,,,,4,,,57,58
267480,note_on,0,0,1,,,,,,,,,1,,,76,55
267480,note_off,120,0,1,,,,,,,,,1,,,73,0
267600,note_on,0,0,4,,,,,,,,,4,,,56,52
267600,note_on,0,0,1,,,,,,,,,1,,,74,52
267600,note_off,120,0,1,,,,,,,,,1,,,76,0
267600,note_off,240,0,4,,,,,,,,,4,,,57,0
267720,note_on,0,0,1,,,,,,,,,1,,,71,49
267720,note_off,120,0,1,,,,,,,,,1,,,74,0
267745,note_off,385,0,5,,,,,,,,,5,,,52,0
267780,set_tempo,474,1,0,,,,,,923076,,,,,,,
267790,note_off,190,0,4,,,,,,,,,4,,,56,0
267840,note_on,0,0,1,,,,,,,,,1,,,71,46
267840,note_on,10655,0,2,,,,,,,,,2,,,64,46
267840,note_on,0,0,2,,,,,,,,,2,,,62,46
267840,note_off,120,0,1,,,,,,,,,1,,,71,0
267840,note_on,95,0,5,,,,,,,,,5,,,57,46
267995,note_off,155,0,5,,,,,,,,,5,,,57,0
268080,note_on,85,0,5,,,,,,,,,5,,,52,41
268235,note_off,155,0,5,,,,,,,,,5,,,52,0
268260,set_tempo,480,1,0,,,,,,952380,,,,,,,
268320,note_off,480,0,1,,,,,,,,,1,,,71,0
268320,note_on,85,0,5,,,,,,,,,5,,,45,36
268320,note_off,480,0,2,,,,,,,,,2,,,62,0
268320,note_on,0,0,2,,,,,,,,,2,,,61,36
268320,note_on,0,0,1,,,,,,,,,1,,,69,36
268620,note_off,300,0,1,,,,,,,,,1,,,69,0
268620,note_off,300,0,2,,,,,,,,,2,,,61,0
268620,note_off,0,0,2,,,,,,,,,2,,,64,0
268620,note_off,300,0,5,,,,,,,,,5,,,45,0
268746,set_tempo,486,1,0,,,,,,1304347,,,,,,,
268800,set_tempo,54,1,0,,,,,,869565,,,,,,,
268800,note_on,1010,0,4,,,,,,,,,4,,,57,38
268800,note_on,180,0,1,,,,,,,,,1,,,69,38
268920,note_on,23160,0,3,,,,,,,,,3,,,64,39
268992,note_off,192,0,4,,,,,,,,,4,,,57,0
269040,note_on,48,0,4,,,,,,,,,4,,,62,40
269040,note_off,120,0,3,,,,,,,,,3,,,64,0
269160,note_on,120,0,3,,,,,,,,,3,,,64,41
269232,note_off,192,0,4,,,,,,,,,4,,,62,0
269280,note_off,120,0,3,,,,,,,,,3,,,64,0
269280,note_on,48,0,4,,,,,,,,,4,,,61,42
269400,note_on,120,0,3,,,,,,,,,3,,,64,43
269472,note_off,192,0,4,,,,,,,,,4,,,61,0
269520,note_on,0,0,1,,,,,,,,,1,,,68,40
269520,note_on,48,0,4,,,,,,,,,4,,,62,44
269520,note_off,120,0,3,,,,,,,,,3,,,64,0
269520,note_off,720,0,1,,,,,,,,,1,,,69,0
269560,note_off,40,0,1,,,,,,,,,1,,,68,0
269560,note_on,0,0,1,,,,,,,,,1,,,69,40
269600,note_off,40,0,1,,,,,,,,,1,,,69,0
269600,note_on,0,0,1,,,,,,,,,1,,,68,41
269640,note_on,120,0,3,,,,,,,,,3,,,64,44
269640,note_off,40,0,1,,,,,,,,,1,,,68,0
269640,note_on,0,0,1,,,,,,,,,1,,,66,42
269700,note_on,0,0,1,,,,,,,,,1,,,68,43
269700,note_off,60,0,1,,,,,,,,,1,,,66,0
269712,note_off,192,0,4,,,,,,,,,4,,,62,0
269760,note_off,60,0,1,,,,,,,,,1,,,68,0
269760,note_on,0,0,1,,,,,,,,,1,,,69,45
269760,note_on,48,0,4,,,,,,,,,4,,,61,45
269760,note_off,120,0,3,,,,,,,,,3,,,64,0
269880,note_on,120,0,3,,,,,,,,,3,,,64,46
269952,note_off,192,0,4,,,,,,,,,4,,,61,0
270000,note_on,0,0,1,,,,,,,,,1,,,68,44
270000,note_on,48,0,4,,,,,,,,,4,,,62,47
270000,note_off,240,0,1,,,,,,,,,1,,,69,0
270000,note_off,120,0,3,,,,,,,,,3,,,64,0
270040,note_off,40,0,1,,,,,,,,,1,,,68,0
270040,note_on,0,0,1,,,,,,,,,1,,,69,45
270080,note_on,0,0,1,,,,,,,,,1,,,68,45
270080,note_off,40,0,1,,,,,,,,,1,,,69,0
270120,note_on,0,0,1,,,,,,,,,1,,,66,46
270120,note_off,40,0,1,,,,,,,,,1,,,68,0
270120,note_on,120,0,3,,,,,,,,,3,,,64,48
270180,note_on,0,0,1,,,,,,,,,1,,,68,48
270180,note_off,60,0,1,,,,,,,,,1,,,66,0
270192,note_off,192,0,4,,,,,,,,,4,,,62,0
270240,note_on,48,0,4,,,,,,,,,4,,,61,49
270240,note_off,120,0,3,,,,,,,,,3,,,64,0
270240,note_on,0,0,1,,,,,,,,,1,,,69,49
270240,note_off,60,0,1,,,,,,,,,1,,,68,0
270360,note_on,120,0,3,,,,,,,,,3,,,64,50
270420,note_off,180,0,4,,,,,,,,,4,,,61,0
270480,note_on,60,0,4,,,,,,,,,4,,,56,51
270480,note_off,240,0,1,,,,,,,,,1,,,69,0
270480,note_off,120,0,3,,,,,,,,,3,,,64,0
270480,note_on,0,0,1,,,,,,,,,1,,,71,47
270520,note_on,0,0,1,,,,,,,,,1,,,73,48
270520,note_off,40,0,1,,,,,,,,,1,,,71,0
270560,note_off,40,0,1,,,,,,,,,1,,,73,0
270560,note_on,0,0,1,,,,,,,,,1,,,71,49
270600,note_off,40,0,1,,,,,,,,,1,,,71,0
270600,note_on,0,0,1,,,,,,,,,1,,,69,50
270600,note_on,120,0,3,,,,,,,,,3,,,64,52
270660,note_on,0,0,1,,,,,,,,,1,,,71,51
270660,note_off,60,0,1,,,,,,,,,1,,,69,0
270660,note_off,180,0,4,,,,,,,,,4,,,56,0
270720,note_off,60,0,1,,,,,,,,,1,,,71,0
270720,note_on,60,0,4,,,,,,,,,4,,,57,53
270720,note_off,120,0,3,,,,,,,,,3,,,64,0
270720,note_on,0,0,1,,,,,,,,,1,,,73,52
270840,note_on,120,0,3,,,,,,,,,3,,,64,52
270900,note_off,180,0,4,,,,,,,,,4,,,57,0
270960,note_off,240,0,1,,,,,,,,,1,,,73,0
270960,note_on,0,0,1,,,,,,,,,1,,,76,57
270960,note_off,120,0,3,,,,,,,,,3,,,64,0
270960,note_on,60,0,4,,,,,,,,,4,,,59,54
271080,note_on,120,0,3,,,,,,,,,3,,,64,52
271080,note_on,120,0,1,,,,,,,,,1,,,74,54
271085,note_off,5,0,1,,,,,,,,,1,,,76,0
271140,note_off,180,0,4,,,,,,,,,4,,,59,0
271160,set_tempo,2360,1,0,,,,,,882352,,,,,,,
271175,note_off,90,0,1,,,,,,,,,1,,,74,0
271200,note_off,120,0,3,,,,,,,,,3,,,64,0
271200,note_on,60,0,4,,,,,,,,,4,,,57,50
271200,note_on,25,0,1,,,,,,,,,1,,,73,50
271320,note_on,120,0,3,,,,,,,,,3,,,64,47
271380,note_off,180,0,4,,,,,,,,,4,,,57,0
271440,note_off,240,0,1,,,,,,,,,1,,,73,0
271440,note_on,60,0,4,,,,,,,,,4,,,56,45
271440,note_off,120,0,3,,,,,,,,,3,,,64,0
271440,note_on,0,0,1,,,,,,,,,1,,,71,45
271560,note_on,120,0,3,,,,,,,,,3,,,64,43
271620,note_off,180,0,4,,,,,,,,,4,,,56,0
271620,set_tempo,460,1,0,,,,,,952380,,,,,,,
271655,note_off,95,0,3,,,,,,,,,3,,,64,0
271660,note_off,220,0,1,,,,,,,,,1,,,71,0
271680,note_on,60,0,4,,,,,,,,,4,,,52,44
271680,set_tempo,60,1,0,,,,,,869565,,,,,,,
271680,note_on,20,0,1,,,,,,,,,1,,,71,44
271800,note_on,145,0,3,,,,,,,,,3,,,64,45
271860,note_off,180,0,4,,,,,,,,,4,,,52,0
271920,note_off,120,0,3,,,,,,,,,3,,,64,0
271920,note_on,60,0,4,,,,,,,,,4,,,54,46
272040,note_on,120,0,3,,,,,,,,,3,,,64,47
272100,note_off,180,0,4,,,,,,,,,4,,,54,0
272160,note_on,60,0,4,,,,,,,,,4,,,56,48
272160,note_off,120,0,3,,,,,,,,,3,,,64,0
272280,note_on,120,0,3,,,,,,,,,3,,,64,49
272340,note_off,180,0,4,,,,,,,,,4,,,56,0
272400,note_on,60,0,4,,,,,,,,,4,,,54,50
272400,note_off,720,0,1,,,,,,,,,1,,,71,0
272400,note_on,0,0,1,,,,,,,,,1,,,70,46
272400,note_off,120,0,3,,,,,,,,,3,,,64,0
272440,note_off,40,0,1,,,,,,,,,1,,,70,0
272440,note_on,0,0,1,,,,,,,,,1,,,71,47
272480,note_off,40,0,1,,,,,,,,,1,,,71,0
272480,note_on,0,0,1,,,,,,,,,1,,,70,48
272520,note_on,120,0,3,,,,,,,,,3,,,64,51
272520,note_on,0,0,1,,,,,,,,,1,,,68,49
272520,note_off,40,0,1,,,,,,,,,1,,,70,0
272580,note_off,60,0,1,,,,,,,,,1,,,68,0
272580,note_off,180,0,4,,,,,,,,,4,,,54,0
272580,note_on,0,0,1,,,,,,,,,1,,,70,50
272640,note_off,120,0,3,,,,,,,,,3,,,64,0
272640,note_on,60,0,4,,,,,,,,,4,,,56,52
272640,note_off,60,0,1,,,,,,,,,1,,,70,0
272640,note_on,0,0,1,,,,,,,,,1,,,71,52
272760,note_on,120,0,3,,,,,,,,,3,,,64,53
272820,note_off,180,0,4,,,,,,,,,4,,,56,0
272880,note_on,0,0,1,,,,,,,,,1,,,70,50
272880,note_on,60,0,4,,,,,,,,,4,,,54,54
272880,note_off,120,0,3,,,,,,,,,3,,,64,0
272880,note_off,240,0,1,,,,,,,,,1,,,71,0
272920,note_off,40,0,1,,,,,,,,,1,,,70,0
272920,note_on,0,0,1,,,,,,,,,1,,,71,51
272960,note_off,40,0,1,,,,,,,,,1,,,71,0
272960,note_on,0,0,1,,,,,,,,,1,,,70,52
273000,note_off,40,0,1,,,,,,,,,1,,,70,0
273000,note_on,120,0,3,,,,,,,,,3,,,64,55
273000,note_on,0,0,1,,,,,,,,,1,,,68,53
273060,note_off,180,0,4,,,,,,,,,4,,,54,0
273060,note_on,0,0,1,,,,,,,,,1,,,70,55
273060,note_off,60,0,1,,,,,,,,,1,,,68,0
273120,note_on,60,0,4,,,,,,,,,4,,,56,56
273120,note_off,120,0,3,,,,,,,,,3,,,64,0
273120,note_on,0,0,1,,,,,,,,,1,,,71,56
273120,note_off,60,0,1,,,,,,,,,1,,,70,0
273240,note_on,120,0,3,,,,,,,,,3,,,64,57
273300,note_off,180,0,4,,,,,,,,,4,,,56,0
273360,note_off,120,0,3,,,,,,,,,3,,,64,0
273360,note_on,60,0,4,,,,,,,,,4,,,57,59
273360,note_off,240,0,1,,,,,,,,,1,,,71,0
273360,note_on,0,0,1,,,,,,,,,1,,,73,55
273400,note_off,40,0,1,,,,,,,,,1,,,73,0
273400,note_on,0,0,1,,,,,,,,,1,,,74,56
273440,note_on,0,0,1,,,,,,,,,1,,,73,57
273440,note_off,40,0,1,,,,,,,,,1,,,74,0
273480,note_on,0,0,1,,,,,,,,,1,,,71,58
273480,note_on,120,0,3,,,,,,,,,3,,,64,60
273480,note_off,40,0,1,,,,,,,,,1,,,73,0
273540,note_off,180,0,4,,,,,,,,,4,,,57,0
273540,note_off,60,0,1,,,,,,,,,1,,,71,0
273540,note_on,0,0,1,,,,,,,,,1,,,73,59
273600,note_on,0,0,1,,,,,,,,,1,,,74,61
273600,note_off,120,0,3,,,,,,,,,3,,,64,0
273600,note_off,60,0,1,,,,,,,,,1,,,73,0
273600,note_on,60,0,4,,,,,,,,,4,,,59,61
273720,note_on,120,0,3,,,,,,,,,3,,,64,60
273780,note_off,180,0,4,,,,,,,,,4,,,59,0
273840,note_off,240,0,1,,,,,,,,,1,,,74,0
273840,note_off,120,0,3,,,,,,,,,3,,,64,0
273840,note_on,0,0,1,,,,,,,,,1,,,78,66
273840,note_on,60,0,4,,,,,,,,,4,,,61,61
273960,note_on,120,0,1,,,,,,,,,1,,,76,62
273960,note_on,120,0,3,,,,,,,,,3,,,64,59
273965,note_off,5,0,1,,,,,,,,,1,,,78,0
274020,note_off,180,0,4,,,,,,,,,4,,,61,0
274030,set_tempo,2350,1,0,,,,,,882352,,,,,,,
274050,note_off,85,0,1,,,,,,,,,1,,,76,0
274080,note_on,30,0,1,,,,,,,,,1,,,74,59
274080,note_off,120,0,3,,,,,,,,,3,,,64,0
274080,note_on,60,0,4,,,,,,,,,4,,,59,57
274200,note_on,120,0,3,,,,,,,,,3,,,64,55
274260,note_off,180,0,4,,,,,,,,,4,,,59,0
274320,note_on,0,0,1,,,,,,,,,1,,,73,53
274320,note_off,240,0,1,,,,,,,,,1,,,74,0
274320,note_off,120,0,3,,,,,,,,,3,,,64,0
274320,note_on,60,0,4,,,,,,,,,4,,,57,53
274440,note_on,120,0,3,,,,,,,,,3,,,64,51
274500,note_off,180,0,4,,,,,,,,,4,,,57,0
274506,set_tempo,476,1,0,,,,,,1000000,,,,,,,
274535,note_off,215,0,1,,,,,,,,,1,,,73,0
274540,note_off,100,0,3,,,,,,,,,3,,,64,0
274560,set_tempo,54,1,0,,,,,,895522,,,,,,,
274560,note_on,25,0,1,,,,,,,,,1,,,73,69
274620,note_on,60,0,1,,,,,,,,,1,,,85,71
274685,note_off,65,0,1,,,,,,,,,1,,,73,0
274785,note_off,100,0,1,,,,,,,,,1,,,85,0
274800,note_on,15,0,1,,,,,,,,,1,,,85,74
274800,note_on,300,0,4,,,,,,,,,4,,,64,67
274800,note_on,6180,0,5,,,,,,,,,5,,,57,67
274990,note_off,190,0,4,,,,,,,,,4,,,64,0
274990,note_off,190,0,5,,,,,,,,,5,,,57,0
275040,note_on,50,0,4,,,,,,,,,4,,,64,56
275040,note_on,50,0,5,,,,,,,,,5,,,57,56
275280,note_off,480,0,1,,,,,,,,,1,,,85,0
275280,note_on,0,0,1,,,,,,,,,1,,,83,60
275280,set_tempo,720,1,0,,,,,,882352,,,,,,,
275340,note_off,60,0,1,,,,,,,,,1,,,83,0
275340,note_on,0,0,1,,,,,,,,,1,,,81,59
275425,note_off,385,0,5,,,,,,,,,5,,,57,0
275425,note_off,385,0,4,,,,,,,,,4,,,64,0
275510,note_off,170,0,1,,,,,,,,,1,,,81,0
275520,note_on,10,0,1,,,,,,,,,1,,,80,56
275580,note_on,0,0,1,,,,,,,,,1,,,78,55
275580,note_off,60,0,1,,,,,,,,,1,,,80,0
275745,note_off,165,0,1,,,,,,,,,1,,,78,0
275760,note_on,15,0,1,,,,,,,,,1,,,77,52
275820,note_on,0,0,1,,,,,,,,,1,,,78,51
275820,note_off,60,0,1,,,,,,,,,1,,,77,0
275940,set_tempo,660,1,0,,,,,,952380,,,,,,,
275985,note_off,165,0,1,,,,,,,,,1,,,78,0
276000,set_tempo,60,1,0,,,,,,895522,,,,,,,
276000,note_on,15,0,1,,,,,,,,,1,,,69,63
276060,note_on,60,0,1,,,,,,,,,1,,,81,66
276125,note_off,65,0,1,,,,,,,,,1,,,69,0
276225,note_off,100,0,1,,,,,,,,,1,,,81,0
276240,note_on,815,0,5,,,,,,,,,5,,,54,62
276240,note_on,0,0,4,,,,,,,,,4,,,59,62
276240,note_on,815,0,4,,,,,,,,,4,,,63,62
276240,note_on,15,0,1,,,,,,,,,1,,,81,71
276430,note_off,190,0,5,,,,,,,,,5,,,54,0
276430,note_off,0,0,4,,,,,,,,,4,,,63,0
276430,note_off,190,0,4,,,,,,,,,4,,,59,0
276480,note_on,50,0,5,,,,,,,,,5,,,54,56
276480,note_on,50,0,4,,,,,,,,,4,,,63,56
276480,note_on,0,0,4,,,,,,,,,4,,,59,56
276720,note_on,0,0,1,,,,,,,,,1,,,80,56
276720,set_tempo,720,1,0,,,,,,882352,,,,,,,
276720,note_off,480,0,1,,,,,,,,,1,,,81,0
276780,note_off,60,0,1,,,,,,,,,1,,,80,0
276780,note_on,0,0,1,,,,,,,,,1,,,78,55
276865,note_off,385,0,4,,,,,,,,,4,,,59,0
276865,note_off,0,0,4,,,,,,,,,4,,,63,0
276865,note_off,385,0,5,,,,,,,,,5,,,54,0
276945,note_off,165,0,1,,,,,,,,,1,,,78,0
276960,note_on,15,0,1,,,,,,,,,1,,,76,53
277020,note_on,0,0,1,,,,,,,,,1,,,75,52
277020,note_off,60,0,1,,,,,,,,,1,,,76,0
277190,note_off,170,0,1,,,,,,,,,1,,,75,0
277200,note_on,10,0,1,,,,,,,,,1,,,73,50
277260,note_on,0,0,1,,,,,,,,,1,,,71,49
277260,note_off,60,0,1,,,,,,,,,1,,,73,0
277386,set_tempo,666,1,0,,,,,,952380,,,,,,,
277425,note_off,165,0,1,,,,,,,,,1,,,71,0
277440,note_on,15,0,1,,,,,,,,,1,,,71,49
277440,set_tempo,54,1,0,,,,,,923076,,,,,,,
277680,note_off,240,0,1,,,,,,,,,1,,,71,0
277680,note_on,0,0,1,,,,,,,,,1,,,76,51
277920,note_on,1055,0,4,,,,,,,,,4,,,64,49
277920,note_on,1055,0,5,,,,,,,,,5,,,56,49
278130,note_off,450,0,1,,,,,,,,,1,,,76,0
278160,note_on,30,0,1,,,,,,,,,1,,,71,47
278305,note_off,385,0,5,,,,,,,,,5,,,56,0
278305,note_off,385,0,4,,,,,,,,,4,,,64,0
278400,note_on,95,0,5,,,,,,,,,5,,,57,45
278400,note_on,0,0,1,,,,,,,,,1,,,73,45
278400,note_on,95,0,4,,,,,,,,,4,,,64,45
278400,note_off,240,0,1,,,,,,,,,1,,,71,0
278640,note_off,240,0,1,,,,,,,,,1,,,73,0
278640,note_on,0,0,1,,,,,,,,,1,,,69,42
278785,note_off,385,0,4,,,,,,,,,4,,,64,0
278785,note_off,385,0,5,,,,,,,,,5,,,57,0
278826,set_tempo,1386,1,0,,,,,,952380,,,,,,,
278840,note_off,200,0,1,,,,,,,,,1,,,69,0
278880,note_on,40,0,1,,,,,,,,,1,,,68,40
279120,note_on,0,0,1,,,,,,,,,1,,,71,45
279120,note_off,240,0,1,,,,,,,,,1,,,68,0
279360,note_on,575,0,4,,,,,,,,,4,,,63,42
279360,note_on,575,0,5,,,,,,,,,5,,,59,42
279590,note_off,470,0,1,,,,,,,,,1,,,71,0
279600,note_on,10,0,1,,,,,,,,,1,,,70,39
279745,note_off,385,0,4,,,,,,,,,4,,,63,0
279745,note_off,385,0,5,,,,,,,,,5,,,59,0
279780,set_tempo,954,1,0,,,,,,983606,,,,,,,
279840,note_off,240,0,1,,,,,,,,,1,,,70,0
279840,note_on,95,0,5,,,,,,,,,5,,,47,35
279840,note_on,0,0,1,,,,,,,,,1,,,69,35
280080,note_off,240,0,1,,,,,,,,,1,,,69,0
280080,note_on,0,0,1,,,,,,,,,1,,,66,32
280200,set_tempo,420,1,0,,,,,,1111111,,,,,,,
280225,note_off,385,0,5,,,,,,,,,5,,,47,0
280280,note_off,200,0,1,,,,,,,,,1,,,66,0
280320,note_on,40,0,1,,,,,,,,,1,,,68,50
280320,note_on,575,0,4,,,,,,,,,4,,,52,50
280320,set_tempo,120,1,0,,,,,,869565,,,,,,,
280440,note_on,0,0,1,,,,,,,,,1,,,71,51
280440,note_off,120,0,1,,,,,,,,,1,,,68,0
280440,note_on,5900,0,3,,,,,,,,,3,,,59,51
280560,note_on,0,0,3,,,,,,,,,3,,,56,51
280560,note_off,120,0,3,,,,,,,,,3,,,59,0
280560,note_off,120,0,1,,,,,,,,,1,,,71,0
280560,note_on,0,0,1,,,,,,,,,1,,,73,51
280680,note_off,360,0,4,,,,,,,,,4,,,52,0
280680,note_on,120,0,3,,,,,,,,,3,,,59,52
280680,note_off,120,0,1,,,,,,,,,1,,,73,0
280680,note_on,0,0,1,,,,,,,,,1,,,75,52
280740,note_off,60,0,3,,,,,,,,,3,,,56,0
280800,note_on,120,0,4,,,,,,,,,4,,,52,53
280800,note_on,0,0,1,,,,,,,,,1,,,76,53
280800,note_off,60,0,3,,,,,,,,,3,,,59,0
280800,note_off,120,0,1,,,,,,,,,1,,,75,0
280920,note_on,120,0,3,,,,,,,,,3,,,59,54
280920,note_on,0,0,1,,,,,,,,,1,,,78,54
280920,note_off,120,0,1,,,,,,,,,1,,,76,0
281040,note_off,120,0,1,,,,,,,,,1,,,78,0
281040,note_on,0,0,1,,,,,,,,,1,,,80,54
281040,note_off,120,0,3,,,,,,,,,3,,,59,0
281040,note_on,0,0,3,,,,,,,,,3,,,56,54
281160,note_off,120,0,1,,,,,,,,,1,,,80,0
281160,note_off,360,0,4,,,,,,,,,4,,,52,0
281160,note_on,120,0,3,,,,,,,,,3,,,59,55
281160,note_on,0,0,1,,,,,,,,,1,,,81,55
281220,note_off,60,0,3,,,,,,,,,3,,,56,0
281280,note_off,60,0,3,,,,,,,,,3,,,59,0
281280,note_on,120,0,4,,,,,,,,,4,,,52,56
281280,note_off,120,0,1,,,,,,,,,1,,,81,0
281280,note_on,0,0,1,,,,,,,,,1,,,83,56
281400,note_on,120,0,3,,,,,,,,,3,,,59,57
281400,note_off,120,0,1,,,,,,,,,1,,,83,0
281400,note_on,0,0,1,,,,,,,,,1,,,85,57
281520,note_on,0,0,3,,,,,,,,,3,,,56,57
281520,note_on,0,0,1,,,,,,,,,1,,,83,57
281520,note_off,120,0,3,,,,,,,,,3,,,59,0
281520,note_off,120,0,1,,,,,,,,,1,,,85,0
281640,note_off,360,0,4,,,,,,,,,4,,,52,0
281640,note_on,120,0,3,,,,,,,,,3,,,59,58
281640,note_on,0,0,1,,,,,,,,,1,,,80,58
281640,note_off,120,0,1,,,,,,,,,1,,,83,0
281700,note_off,60,0,3,,,,,,,,,3,,,56,0
281735,note_off,35,0,3,,,,,,,,,3,,,59,0
281740,note_off,100,0,1,,,,,,,,,1,,,80,0
281760,note_on,120,0,4,,,,,,,,,4,,,54,61
281760,note_on,20,0,1,,,,,,,,,1,,,81,61
281880,note_on,145,0,3,,,,,,,,,3,,,59,58
281880,note_off,120,0,1,,,,,,,,,1,,,81,0
281880,note_on,0,0,1,,,,,,,,,1,,,83,58
282000,note_off,120,0,3,,,,,,,,,3,,,59,0
282000,note_off,120,0,1,,,,,,,,,1,,,83,0
282000,note_on,0,0,1,,,,,,,,,1,,,81,57
282000,note_on,0,0,3,,,,,,,,,3,,,57,57
282120,note_off,360,0,4,,,,,,,,,4,,,54,0
282120,note_off,120,0,3,,,,,,,,,3,,,57,0
282120,note_off,120,0,1,,,,,,,,,1,,,81,0
282120,note_on,0,0,1,,,,,,,,,1,,,78,55
282120,note_on,0,0,3,,,,,,,,,3,,,59,55
282225,note_off,105,0,1,,,,,,,,,1,,,78,0
282240,note_off,120,0,3,,,,,,,,,3,,,59,0
282240,note_on,15,0,1,,,,,,,,,1,,,75,53
282240,note_on,120,0,4,,,,,,,,,4,,,54,53
282360,note_on,0,0,1,,,,,,,,,1,,,76,52
282360,note_off,120,0,1,,,,,,,,,1,,,75,0
282360,note_on,120,0,3,,,,,,,,,3,,,59,52
282480,note_on,0,0,1,,,,,,,,,1,,,75,50
282480,note_off,120,0,1,,,,,,,,,1,,,76,0
282480,note_on,0,0,3,,,,,,,,,3,,,57,50
282480,note_off,120,0,3,,,,,,,,,3,,,59,0
282600,note_on,0,0,1,,,,,,,,,1,,,71,48
282600,note_on,0,0,3,,,,,,,,,3,,,59,48
282600,note_off,120,0,3,,,,,,,,,3,,,57,0
282600,note_off,360,0,4,,,,,,,,,4,,,54,0
282600,note_off,120,0,1,,,,,,,,,1,,,75,0
282705,note_off,105,0,1,,,,,,,,,1,,,71,0
282720,note_off,120,0,3,,,,,,,,,3,,,59,0
282720,note_on,120,0,4,,,,,,,,,4,,,51,47
282720,note_on,15,0,1,,,,,,,,,1,,,69,47
282840,note_off,120,0,1,,,,,,,,,1,,,69,0
282840,note_on,0,0,1,,,,,,,,,1,,,71,45
282840,note_on,120,0,3,,,,,,,,,3,,,59,45
282900,note_off,180,0,4,,,,,,,,,4,,,51,0
282960,note_on,60,0,4,,,,,,,,,4,,,54,43
282960,note_on,0,0,1,,,,,,,,,1,,,69,43
282960,note_off,120,0,1,,,,,,,,,1,,,71,0
282960,note_off,120,0,3,,,,,,,,,3,,,59,0
283080,note_on,120,0,3,,,,,,,,,3,,,59,42
283080,note_off,120,0,1,,,,,,,,,1,,,69,0
283080,note_on,0,0,1,,,,,,,,,1,,,66,42
283140,note_off,180,0,4,,,,,,,,,4,,,54,0
283146,set_tempo,2826,1,0,,,,,,895522,,,,,,,
283175,note_off,95,0,1,,,,,,,,,1,,,66,0
283180,note_off,100,0,3,,,,,,,,,3,,,59,0
283200,note_on,60,0,4,,,,,,,,,4,,,52,38
283200,set_tempo,54,1,0,,,,,,869565,,,,,,,
283200,note_on,25,0,1,,,,,,,,,1,,,68,38
283320,note_off,120,0,1,,,,,,,,,1,,,68,0
283320,note_on,140,0,3,,,,,,,,,3,,,59,40
283320,note_on,0,0,1,,,,,,,,,1,,,71,40
283440,note_on,0,0,1,,,,,,,,,1,,,73,41
283440,note_off,120,0,1,,,,,,,,,1,,,71,0
283440,note_on,0,0,3,,,,,,,,,3,,,56,41
283440,note_off,120,0,3,,,,,,,,,3,,,59,0
283560,note_off,120,0,1,,,,,,,,,1,,,73,0
283560,note_on,0,0,1,,,,,,,,,1,,,75,42
283560,note_on,120,0,3,,,,,,,,,3,,,59,42
283560,note_off,360,0,4,,,,,,,,,4,,,52,0
283620,note_off,60,0,3,,,,,,,,,3,,,56,0
283680,note_off,60,0,3,,,,,,,,,3,,,59,0
283680,note_off,120,0,1,,,,,,,,,1,,,75,0
283680,note_on,0,0,1,,,,,,,,,1,,,76,43
283680,note_on,120,0,4,,,,,,,,,4,,,52,43
283800,note_off,120,0,1,,,,,,,,,1,,,76,0
283800,note_on,0,0,1,,,,,,,,,1,,,78,44
283800,note_on,120,0,3,,,,,,,,,3,,,59,44
283920,note_on,0,0,1,,,,,,,,,1,,,80,46
283920,note_off,120,0,1,,,,,,,,,1,,,78,0
283920,note_off,120,0,3,,,,,,,,,3,,,59,0
283920,note_on,0,0,3,,,,,,,,,3,,,56,46
284040,note_off,120,0,1,,,,,,,,,1,,,80,0
284040,note_off,360,0,4,,,,,,,,,4,,,52,0
284040,note_on,0,0,1,,,,,,,,,1,,,81,47
284040,note_on,120,0,3,,,,,,,,,3,,,59,47
284100,note_off,60,0,3,,,,,,,,,3,,,56,0
284160,note_on,120,0,4,,,,,,,,,4,,,52,48
284160,note_off,60,0,3,,,,,,,,,3,,,59,0
284160,note_on,0,0,1,,,,,,,,,1,,,83,48
284160,note_off,120,0,1,,,,,,,,,1,,,81,0
284280,note_on,120,0,3,,,,,,,,,3,,,59,49
284280,note_on,0,0,1,,,,,,,,,1,,,85,49
284280,note_off,120,0,1,,,,,,,,,1,,,83,0
284400,note_on,0,0,3,,,,,,,,,3,,,56,50
284400,note_off,120,0,3,,,,,,,,,3,,,59,0
284400,note_on,0,0,1,,,,,,,,,1,,,83,50
284400,note_off,120,0,1,,,,,,,,,1,,,85,0
284520,note_off,120,0,1,,,,,,,,,1,,,83,0
284520,note_on,0,0,1,,,,,,,,,1,,,80,52
284520,note_off,360,0,4,,,,,,,,,4,,,52,0
284520,note_on,120,0,3,,,,,,,,,3,,,59,52
284580,note_off,60,0,3,,,,,,,,,3,,,56,0
284625,note_off,105,0,1,,,,,,,,,1,,,80,0
284625,note_off,45,0,3,,,,,,,,,3,,,59,0
284640,note_on,15,0,1,,,,,,,,,1,,,81,54
284640,note_on,120,0,4,,,,,,,,,4,,,54,54
284760,note_off,120,0,1,,,,,,,,,1,,,81,0
284760,note_on,0,0,1,,,,,,,,,1,,,83,53
284760,note_on,135,0,3,,,,,,,,,3,,,59,53
284880,note_off,120,0,3,,,,,,,,,3,,,59,0
284880,note_on,0,0,3,,,,,,,,,3,,,57,51
284880,note_on,0,0,1,,,,,,,,,1,,,81,51
284880,note_off,120,0,1,,,,,,,,,1,,,83,0
285000,note_on,0,0,3,,,,,,,,,3,,,59,49
285000,note_off,120,0,3,,,,,,,,,3,,,57,0
285000,note_off,120,0,1,,,,,,,,,1,,,81,0
285000,note_on,0,0,1,,,,,,,,,1,,,78,49
285000,note_off,360,0,4,,,,,,,,,4,,,54,0
285100,note_off,100,0,1,,,,,,,,,1,,,78,0
285120,note_off,120,0,3,,,,,,,,,3,,,59,0
285120,note_on,120,0,4,,,,,,,,,4,,,54,48
285120,note_on,20,0,1,,,,,,,,,1,,,75,48
285240,note_on,120,0,3,,,,,,,,,3,,,59,46
285240,note_on,0,0,1,,,,,,,,,1,,,76,46
285240,note_off,120,0,1,,,,,,,,,1,,,75,0
285360,note_on,0,0,3,,,,,,,,,3,,,57,44
285360,note_off,120,0,3,,,,,,,,,3,,,59,0
285360,note_off,120,0,1,,,,,,,,,1,,,76,0
285360,note_on,0,0,1,,,,,,,,,1,,,75,44
285480,note_off,120,0,1,,,,,,,,,1,,,75,0
285480,note_off,120,0,3,,,,,,,,,3,,,57,0
285480,note_off,360,0,4,,,,,,,,,4,,,54,0
285480,note_on,0,0,3,,,,,,,,,3,,,59,43
285480,note_on,0,0,1,,,,,,,,,1,,,71,43
285580,note_off,100,0,1,,,,,,,,,1,,,71,0
285600,note_on,20,0,1,,,,,,,,,1,,,69,41
285600,note_off,120,0,3,,,,,,,,,3,,,59,0
285600,note_on,120,0,4,,,,,,,,,4,,,51,41
285720,note_on,120,0,3,,,,,,,,,3,,,59,39
285720,note_off,120,0,1,,,,,,,,,1,,,69,0
285720,note_on,0,0,1,,,,,,,,,1,,,71,39
285780,note_off,180,0,4,,,,,,,,,4,,,51,0
285840,note_off,120,0,1,,,,,,,,,1,,,71,0
285840,note_on,0,0,1,,,,,,,,,1,,,69,38
285840,note_on,60,0,4,,,,,,,,,4,,,54,38
285840,note_off,120,0,3,,,,,,,,,3,,,59,0
285960,note_off,120,0,1,,,,,,,,,1,,,69,0
285960,note_on,0,0,1,,,,,,,,,1,,,66,36
285960,note_on,120,0,3,,,,,,,,,3,,,59,36
286020,note_off,180,0,4,,,,,,,,,4,,,54,0
286020,set_tempo,2820,1,0,,,,,,895522,,,,,,,
286055,note_off,95,0,3,,,,,,,,,3,,,59,0
286065,note_off,105,0,1,,,,,,,,,1,,,66,0
286080,note_on,5855,0,5,,,,,,,,,5,,,52,45
286080,note_on,15,0,1,,,,,,,,,1,,,68,45
286080,set_tempo,60,1,0,,,,,,869565,,,,,,,
286200,note_on,0,0,1,,,,,,,,,1,,,71,50
286200,note_off,120,0,1,,,,,,,,,1,,,68,0
286320,note_on,0,0,1,,,,,,,,,1,,,76,59
286320,note_off,120,0,1,,,,,,,,,1,,,71,0
286440,note_on,0,0,1,,,,,,,,,1,,,75,55
286440,note_off,120,0,1,,,,,,,,,1,,,76,0
286465,note_off,385,0,5,,,,,,,,,5,,,52,0
286545,note_off,105,0,1,,,,,,,,,1,,,75,0
286560,note_on,95,0,5,,,,,,,,,5,,,57,51
286560,note_on,15,0,1,,,,,,,,,1,,,75,51
286680,note_on,0,0,1,,,,,,,,,1,,,73,56
286680,note_off,120,0,1,,,,,,,,,1,,,75,0
286800,note_on,0,0,1,,,,,,,,,1,,,81,69
286800,note_off,120,0,1,,,,,,,,,1,,,73,0
286920,note_on,0,0,1,,,,,,,,,1,,,80,66
286920,note_off,120,0,1,,,,,,,,,1,,,81,0
286945,note_off,385,0,5,,,,,,,,,5,,,57,0
287025,note_off,105,0,1,,,,,,,,,1,,,80,0
287040,note_on,15,0,1,,,,,,,,,1,,,80,63
287160,note_off,120,0,1,,,,,,,,,1,,,80,0
287160,note_on,0,0,1,,,,,,,,,1,,,78,61
287280,note_off,120,0,1,,,,,,,,,1,,,78,0
287280,note_on,0,0,1,,,,,,,,,1,,,85,74
287400,note_on,0,0,1,,,,,,,,,1,,,83,70
287400,note_off,120,0,1,,,,,,,,,1,,,85,0
287460,set_tempo,1380,1,0,,,,,,895522,,,,,,,
287495,note_off,95,0,1,,,,,,,,,1,,,83,0
287520,note_on,25,0,1,,,,,,,,,1,,,83,66
287640,note_on,0,0,1,,,,,,,,,1,,,81,63
287640,note_off,120,0,1,,,,,,,,,1,,,83,0
287735,note_off,95,0,1,,,,,,,,,1,,,81,0
287760,note_on,1740,0,4,,,,,,,,,4,,,63,61
287760,note_on,19140,0,2,,,,,,,,,2,,,69,61
287760,note_on,25,0,1,,,,,,,,,1,,,80,61
287760,note_on,815,0,5,,,,,,,,,5,,,59,61
287880,note_on,0,0,1,,,,,,,,,1,,,78,59
287880,note_off,120,0,1,,,,,,,,,1,,,80,0
287950,note_off,190,0,4,,,,,,,,,4,,,63,0
287950,note_off,190,0,5,,,,,,,,,5,,,59,0
287950,note_off,190,0,2,,,,,,,,,2,,,69,0
287975,note_off,95,0,1,,,,,,,,,1,,,78,0
288000,note_on,50,0,2,,,,,,,,,2,,,69,57
288000,note_on,25,0,1,,,,,,,,,1,,,78,57
288000,note_on,50,0,5,,,,,,,,,5,,,64,57
288155,note_off,155,0,5,,,,,,,,,5,,,64,0
288240,note_on,85,0,5,,,,,,,,,5,,,59,50
288395,note_off,395,0,2,,,,,,,,,2,,,69,0
288395,note_off,155,0,5,,,,,,,,,5,,,59,0
288420,set_tempo,960,1,0,,,,,,923076,,,,,,,
288480,note_on,85,0,5,,,,,,,,,5,,,52,43
288480,note_on,85,0,2,,,,,,,,,2,,,68,43
288480,note_on,0,0,1,,,,,,,,,1,,,76,46
288480,note_off,480,0,1,,,,,,,,,1,,,78,0
288775,note_off,295,0,5,,,,,,,,,5,,,52,0
288775,note_off,295,0,2,,,,,,,,,2,,,68,0
288780,note_off,300,0,1,,,,,,,,,1,,,76,0
288840,set_tempo,420,1,0,,,,,,1276595,,,,,,,
288960,note_on,180,0,1,,,,,,,,,1,,,76,43
288960,set_tempo,120,1,0,,,,,,869565,,,,,,,
289080,note_on,0,0,1,,,,,,,,,1,,,69,49
289080,note_off,120,0,1,,,,,,,,,1,,,76,0
289440,note_on,1490,0,4,,,,,,,,,4,,,61,46
289440,note_on,665,0,5,,,,,,,,,5,,,57,46
289825,note_off,385,0,4,,,,,,,,,4,,,61,0
289825,note_off,385,0,5,,,,,,,,,5,,,57,0
289905,note_off,825,0,1,,,,,,,,,1,,,69,0
289920,note_on,15,0,1,,,,,,,,,1,,,71,42
289920,note_on,95,0,5,,,,,,,,,5,,,52,42
289920,note_on,95,0,4,,,,,,,,,4,,,62,42
290040,note_off,120,0,1,,,,,,,,,1,,,71,0
290040,note_on,0,0,1,,,,,,,,,1,,,69,41
290160,note_on,0,0,1,,,,,,,,,1,,,71,40
290160,note_off,120,0,1,,,,,,,,,1,,,69,0
290280,note_on,0,0,1,,,,,,,,,1,,,68,39
290280,note_off,120,0,1,,,,,,,,,1,,,71,0
290305,note_off,385,0,5,,,,,,,,,5,,,52,0
290305,note_off,385,0,4,,,,,,,,,4,,,62,0
290340,set_tempo,1380,1,0,,,,,,895522,,,,,,,
290400,note_on,0,0,1,,,,,,,,,1,,,69,38
290400,note_on,95,0,4,,,,,,,,,4,,,61,38
290400,note_off,120,0,1,,,,,,,,,1,,,68,0
290400,note_on,95,0,5,,,,,,,,,5,,,57,38
290555,note_off,155,0,5,,,,,,,,,5,,,57,0
290555,note_off,155,0,4,,,,,,,,,4,,,61,0
290555,note_off,155,0,1,,,,,,,,,1,,,69,0
290640,note_on,85,0,1,,,,,,,,,1,,,76,58
290640,note_on,85,0,4,,,,,,,,,4,,,61,58
290640,note_on,85,0,5,,,,,,,,,5,,,49,58
290640,note_on,1865,0,2,,,,,,,,,2,,,64,58
290880,note_off,240,0,4,,,,,,,,,4,,,61,0
290880,note_on,0,0,4,,,,,,,,,4,,,60,56
290880,note_on,0,0,1,,,,,,,,,1,,,75,56
290880,note_on,0,0,2,,,,,,,,,2,,,63,56
290880,note_on,0,0,5,,,,,,,,,5,,,48,56
290880,note_off,240,0,5,,,,,,,,,5,,,49,0
290880,note_off,240,0,1,,,,,,,,,1,,,76,0
290880,note_off,240,0,2,,,,,,,,,2,,,64,0
291120,note_off,240,0,2,,,,,,,,,2,,,63,0
291120,note_on,0,0,2,,,,,,,,,2,,,64,54
291120,note_off,240,0,4,,,,,,,,,4,,,60,0
291120,note_on,0,0,4,,,,,,,,,4,,,61,54
291120,note_on,0,0,5,,,,,,,,,5,,,49,54
291120,note_off,240,0,5,,,,,,,,,5,,,48,0
291120,note_off,240,0,1,,,,,,,,,1,,,75,0
291120,note_on,0,0,1,,,,,,,,,1,,,76,54
291360,note_on,0,0,1,,,,,,,,,1,,,74,52
291360,note_off,240,0,4,,,,,,,,,4,,,61,0
291360,note_on,0,0,4,,,,,,,,,4,,,59,52
291360,note_off,240,0,5,,,,,,,,,5,,,49,0
291360,note_off,240,0,2,,,,,,,,,2,,,64,0
291360,note_on,0,0,2,,,,,,,,,2,,,62,52
291360,note_on,0,0,5,,,,,,,,,5,,,47,52
291360,note_off,240,0,1,,,,,,,,,1,,,76,0
291600,note_off,240,0,1,,,,,,,,,1,,,74,0
291600,note_off,240,0,2,,,,,,,,,2,,,62,0
291600,note_off,240,0,4,,,,,,,,,4,,,59,0
291600,note_on,0,0,4,,,,,,,,,4,,,57,51
291600,note_on,0,0,5,,,,,,,,,5,,,45,51
291600,note_off,240,0,5,,,,,,,,,5,,,47,0
291600,note_on,0,0,2,,,,,,,,,2,,,61,51
291600,note_on,0,0,1,,,,,,,,,1,,,73,51
291786,set_tempo,1446,1,0,,,,,,923076,,,,,,,
291815,note_off,215,0,4,,,,,,,,,4,,,57,0
291815,note_off,215,0,5,,,,,,,,,5,,,45,0
291815,note_off,215,0,2,,,,,,,,,2,,,61,0
291820,note_off,220,0,1,,,,,,,,,1,,,73,0
291840,set_tempo,54,1,0,,,,,,869565,,,,,,,
291840,note_on,20,0,1,,,,,,,,,1,,,76,45
291960,note_on,0,0,1,,,,,,,,,1,,,71,49
291960,note_off,120,0,1,,,,,,,,,1,,,76,0
292320,note_on,505,0,4,,,,,,,,,4,,,64,46
292320,note_on,505,0,5,,,,,,,,,5,,,56,46
292705,note_off,385,0,5,,,,,,,,,5,,,56,0
292705,note_off,385,0,4,,,,,,,,,4,,,64,0
292785,note_off,825,0,1,,,,,,,,,1,,,71,0
292800,note_on,15,0,1,,,,,,,,,1,,,73,42
292800,note_on,95,0,4,,,,,,,,,4,,,64,42
292800,note_on,95,0,5,,,,,,,,,5,,,57,42
292920,note_on,0,0,1,,,,,,,,,1,,,71,40
292920,note_off,120,0,1,,,,,,,,,1,,,73,0
293040,note_off,120,0,1,,,,,,,,,1,,,71,0
293040,note_on,0,0,1,,,,,,,,,1,,,73,39
293160,note_off,120,0,1,,,,,,,,,1,,,73,0
293160,note_on,0,0,1,,,,,,,,,1,,,69,38
293185,note_off,385,0,4,,,,,,,,,4,,,64,0
293185,note_off,385,0,5,,,,,,,,,5,,,57,0
293220,set_tempo,1380,1,0,,,,,,895522,,,,,,,
293280,note_on,95,0,4,,,,,,,,,4,,,64,36
293280,note_on,95,0,5,,,,,,,,,5,,,59,36
293280,note_on,0,0,1,,,,,,,,,1,,,74,36
293280,note_off,120,0,1,,,,,,,,,1,,,69,0
293435,note_off,155,0,4,,,,,,,,,4,,,64,0
293435,note_off,155,0,5,,,,,,,,,5,,,59,0
293470,note_off,190,0,1,,,,,,,,,1,,,74,0
293520,note_on,50,0,1,,,,,,,,,1,,,74,61
293520,note_on,85,0,4,,,,,,,,,4,,,59,61
293520,note_on,85,0,5,,,,,,,,,5,,,47,61
293520,note_on,1705,0,2,,,,,,,,,2,,,62,61
293760,note_on,0,0,5,,,,,,,,,5,,,46,59
293760,note_off,240,0,5,,,,,,,,,5,,,47,0
293760,note_off,240,0,1,,,,,,,,,1,,,74,0
293760,note_off,240,0,2,,,,,,,,,2,,,62,0
293760,note_on,0,0,2,,,,,,,,,2,,,61,59
293760,note_on,0,0,4,,,,,,,,,4,,,58,59
293760,note_off,240,0,4,,,,,,,,,4,,,59,0
293760,note_on,0,0,1,,,,,,,,,1,,,73,59
294000,note_off,240,0,1,,,,,,,,,1,,,73,0
294000,note_off,240,0,2,,,,,,,,,2,,,61,0
294000,note_on,0,0,2,,,,,,,,,2,,,62,57
294000,note_on,0,0,1,,,,,,,,,1,,,74,57
294000,note_off,240,0,5,,,,,,,,,5,,,46,0
294000,note_off,240,0,4,,,,,,,,,4,,,58,0
294000,note_on,0,0,5,,,,,,,,,5,,,47,57
294000,note_on,0,0,4,,,,,,,,,4,,,59,57
294240,note_off,240,0,2,,,,,,,,,2,,,62,0
294240,note_off,240,0,5,,,,,,,,,5,,,47,0
294240,note_on,0,0,1,,,,,,,,,1,,,73,54
294240,note_off,240,0,1,,,,,,,,,1,,,74,0
294240,note_on,0,0,4,,,,,,,,,4,,,57,54
294240,note_off,240,0,4,,,,,,,,,4,,,59,0
294240,note_on,0,0,5,,,,,,,,,5,,,45,54
294240,note_on,0,0,2,,,,,,,,,2,,,61,54
294480,note_off,240,0,1,,,,,,,,,1,,,73,0
294480,note_on,0,0,2,,,,,,,,,2,,,59,52
294480,note_off,240,0,5,,,,,,,,,5,,,45,0
294480,note_off,240,0,4,,,,,,,,,4,,,57,0
294480,note_on,0,0,4,,,,,,,,,4,,,56,52
294480,note_on,0,0,5,,,,,,,,,5,,,44,52
294480,note_off,240,0,2,,,,,,,,,2,,,61,0
294480,note_on,0,0,1,,,,,,,,,1,,,71,52
294666,set_tempo,1446,1,0,,,,,,967741,,,,,,,
294695,note_off,215,0,2,,,,,,,,,2,,,59,0
294695,note_off,215,0,4,,,,,,,,,4,,,56,0
294700,note_off,220,0,1,,,,,,,,,1,,,71,0
294700,note_off,220,0,5,,,,,,,,,5,,,44,0
294720,note_on,20,0,1,,,,,,,,,1,,,75,63
294720,set_tempo,54,1,0,,,,,,895522,,,,,,,
294760,note_off,40,0,1,,,,,,,,,1,,,75,0
294760,note_on,0,0,1,,,,,,,,,1,,,76,59
294800,note_off,40,0,1,,,,,,,,,1,,,76,0
294800,note_on,0,0,1,,,,,,,,,1,,,78,59
294840,note_on,0,0,1,,,,,,,,,1,,,76,58
294840,note_off,40,0,1,,,,,,,,,1,,,78,0
294880,note_on,0,0,1,,,,,,,,,1,,,78,57
294880,note_off,40,0,1,,,,,,,,,1,,,76,0
294920,note_off,40,0,1,,,,,,,,,1,,,78,0
294920,note_on,0,0,1,,,,,,,,,1,,,76,56
294960,note_off,40,0,1,,,,,,,,,1,,,76,0
294960,note_on,0,0,1,,,,,,,,,1,,,78,55
295000,note_off,40,0,1,,,,,,,,,1,,,78,0
295000,note_on,0,0,1,,,,,,,,,1,,,76,55
295040,note_off,40,0,1,,,,,,,,,1,,,76,0
295040,note_on,0,0,1,,,,,,,,,1,,,78,54
295080,note_off,40,0,1,,,,,,,,,1,,,78,0
295080,note_on,0,0,1,,,,,,,,,1,,,76,53
295120,note_off,40,0,1,,,,,,,,,1,,,76,0
295120,note_on,0,0,1,,,,,,,,,1,,,78,52
295160,note_on,0,0,1,,,,,,,,,1,,,76,51
295160,note_off,40,0,1,,,,,,,,,1,,,78,0
295200,note_on,500,0,5,,,,,,,,,5,,,49,54
295200,note_off,40,0,1,,,,,,,,,1,,,76,0
295200,note_on,0,0,1,,,,,,,,,1,,,78,51
295200,note_on,505,0,4,,,,,,,,,4,,,61,54
295240,note_off,40,0,1,,,,,,,,,1,,,78,0
295240,note_on,0,0,1,,,,,,,,,1,,,76,50
295280,note_off,40,0,1,,,,,,,,,1,,,76,0
295280,note_on,0,0,1,,,,,,,,,1,,,78,49
295320,note_off,40,0,1,,,,,,,,,1,,,78,0
295320,note_on,0,0,1,,,,,,,,,1,,,76,48
295360,note_on,0,0,1,,,,,,,,,1,,,78,47
295360,note_off,40,0,1,,,,,,,,,1,,,76,0
295400,note_off,40,0,1,,,,,,,,,1,,,78,0
295400,note_on,0,0,1,,,,,,,,,1,,,76,47
295440,note_off,40,0,1,,,,,,,,,1,,,76,0
295440,note_on,0,0,1,,,,,,,,,1,,,78,46
295500,note_off,60,0,1,,,,,,,,,1,,,78,0
295500,note_on,0,0,1,,,,,,,,,1,,,76,44
295560,note_on,0,0,1,,,,,,,,,1,,,75,43
295560,note_off,60,0,1,,,,,,,,,1,,,76,0
295585,note_off,385,0,4,,,,,,,,,4,,,61,0
295585,note_off,385,0,5,,,,,,,,,5,,,49,0
295620,note_off,60,0,1,,,,,,,,,1,,,75,0
295620,note_on,0,0,1,,,,,,,,,1,,,76,42
295640,set_tempo,920,1,0,,,,,,923076,,,,,,,
295680,set_tempo,40,1,0,,,,,,895522,,,,,,,
295680,note_on,95,0,5,,,,,,,,,5,,,47,46
295680,note_off,60,0,1,,,,,,,,,1,,,76,0
295680,note_on,0,0,1,,,,,,,,,1,,,78,46
295680,note_on,95,0,4,,,,,,,,,4,,,59,46
295740,note_off,60,0,1,,,,,,,,,1,,,78,0
295740,note_on,0,0,1,,,,,,,,,1,,,74,45
295925,note_off,185,0,1,,,,,,,,,1,,,74,0
296065,note_off,385,0,5,,,,,,,,,5,,,47,0
296065,note_off,385,0,4,,,,,,,,,4,,,59,0
296106,set_tempo,426,1,0,,,,,,923076,,,,,,,
296160,set_tempo,54,1,0,,,,,,895522,,,,,,,
296160,note_on,235,0,1,,,,,,,,,1,,,71,58
296200,note_off,40,0,1,,,,,,,,,1,,,71,0
296200,note_on,0,0,1,,,,,,,,,1,,,73,55
296240,note_off,40,0,1,,,,,,,,,1,,,73,0
296240,note_on,0,0,1,,,,,,,,,1,,,74,55
296280,note_off,40,0,1,,,,,,,,,1,,,74,0
296280,note_on,0,0,1,,,,,,,,,1,,,73,54
296320,note_off,40,0,1,,,,,,,,,1,,,73,0
296320,note_on,0,0,1,,,,,,,,,1,,,74,53
296360,note_off,40,0,1,,,,,,,,,1,,,74,0
296360,note_on,0,0,1,,,,,,,,,1,,,73,52
296400,note_off,40,0,1,,,,,,,,,1,,,73,0
296400,note_on,0,0,1,,,,,,,,,1,,,74,52
296440,note_off,40,0,1,,,,,,,,,1,,,74,0
296440,note_on,0,0,1,,,,,,,,,1,,,73,51
296480,note_off,40,0,1,,,,,,,,,1,,,73,0
296480,note_on,0,0,1,,,,,,,,,1,,,74,50
296520,note_off,40,0,1,,,,,,,,,1,,,74,0
296520,note_on,0,0,1,,,,,,,,,1,,,73,50
296560,note_off,40,0,1,,,,,,,,,1,,,73,0
296560,note_on,0,0,1,,,,,,,,,1,,,74,49
296600,note_on,0,0,1,,,,,,,,,1,,,73,48
296600,note_off,40,0,1,,,,,,,,,1,,,74,0
296640,note_on,575,0,4,,,,,,,,,4,,,64,49
296640,note_on,575,0,5,,,,,,,,,5,,,52,49
296640,note_off,40,0,1,,,,,,,,,1,,,73,0
296640,note_on,0,0,1,,,,,,,,,1,,,74,48
296680,note_off,40,0,1,,,,,,,,,1,,,74,0
296680,note_on,0,0,1,,,,,,,,,1,,,73,47
296720,note_off,40,0,1,,,,,,,,,1,,,73,0
296720,note_on,0,0,1,,,,,,,,,1,,,74,46
296760,note_off,40,0,1,,,,,,,,,1,,,74,0
296760,note_on,0,0,1,,,,,,,,,1,,,73,45
296800,note_off,40,0,1,,,,,,,,,1,,,73,0
296800,note_on,0,0,1,,,,,,,,,1,,,74,45
296840,note_off,40,0,1,,,,,,,,,1,,,74,0
296840,note_on,0,0,1,,,,,,,,,1,,,73,44
296880,note_off,40,0,1,,,,,,,,,1,,,73,0
296880,note_on,0,0,1,,,,,,,,,1,,,74,43
296940,note_off,60,0,1,,,,,,,,,1,,,74,0
296940,note_on,0,0,1,,,,,,,,,1,,,73,42
297000,note_on,0,0,1,,,,,,,,,1,,,71,41
297000,note_off,60,0,1,,,,,,,,,1,,,73,0
297025,note_off,385,0,5,,,,,,,,,5,,,52,0
297025,note_off,385,0,4,,,,,,,,,4,,,64,0
297060,note_off,60,0,1,,,,,,,,,1,,,71,0
297060,note_on,0,0,1,,,,,,,,,1,,,73,40
297080,set_tempo,920,1,0,,,,,,923076,,,,,,,
297120,note_on,95,0,5,,,,,,,,,5,,,50,43
297120,note_on,95,0,4,,,,,,,,,4,,,62,43
297120,set_tempo,40,1,0,,,,,,895522,,,,,,,
297120,note_on,0,0,1,,,,,,,,,1,,,74,43
297120,note_off,60,0,1,,,,,,,,,1,,,73,0
297180,note_off,60,0,1,,,,,,,,,1,,,74,0
297180,note_on,0,0,1,,,,,,,,,1,,,71,40
297365,note_off,185,0,1,,,,,,,,,1,,,71,0
297505,note_off,385,0,5,,,,,,,,,5,,,50,0
297505,note_off,385,0,4,,,,,,,,,4,,,62,0
297546,set_tempo,426,1,0,,,,,,952380,,,,,,,
297600,note_on,235,0,1,,,,,,,,,1,,,69,43
297600,set_tempo,54,1,0,,,,,,895522,,,,,,,
297600,note_on,95,0,4,,,,,,,,,4,,,61,43
297600,note_on,95,0,5,,,,,,,,,5,,,49,43
297780,note_on,0,0,1,,,,,,,,,1,,,71,45
297780,note_off,180,0,1,,,,,,,,,1,,,69,0
297840,note_on,60,0,1,,,,,,,,,1,,,69,46
297845,note_off,5,0,1,,,,,,,,,1,,,71,0
297985,note_off,385,0,4,,,,,,,,,4,,,61,0
297985,note_off,385,0,5,,,,,,,,,5,,,49,0
298020,note_on,0,0,1,,,,,,,,,1,,,68,49
298020,note_off,175,0,1,,,,,,,,,1,,,69,0
298080,note_off,60,0,1,,,,,,,,,1,,,68,0
298080,note_on,0,0,1,,,,,,,,,1,,,69,50
298270,note_off,190,0,1,,,,,,,,,1,,,69,0
298320,note_on,335,0,5,,,,,,,,,5,,,62,53
298320,note_on,50,0,1,,,,,,,,,1,,,71,53
298320,note_on,3625,0,2,,,,,,,,,2,,,68,53
298510,note_off,190,0,5,,,,,,,,,5,,,62,0
298510,note_off,190,0,1,,,,,,,,,1,,,71,0
298510,note_off,190,0,2,,,,,,,,,2,,,68,0
298560,note_on,50,0,1,,,,,,,,,1,,,73,56
298560,note_on,50,0,5,,,,,,,,,5,,,61,56
298560,note_on,50,0,2,,,,,,,,,2,,,69,56
298750,note_off,190,0,1,,,,,,,,,1,,,73,0
298750,note_off,190,0,2,,,,,,,,,2,,,69,0
298750,note_off,190,0,5,,,,,,,,,5,,,61,0
298800,note_on,50,0,5,,,,,,,,,5,,,59,60
298800,note_on,50,0,1,,,,,,,,,1,,,74,60
298800,note_on,50,0,2,,,,,,,,,2,,,71,60
298980,set_tempo,1380,1,0,,,,,,923076,,,,,,,
298990,note_off,190,0,5,,,,,,,,,5,,,59,0
298990,note_off,190,0,2,,,,,,,,,2,,,71,0
298990,note_off,190,0,1,,,,,,,,,1,,,74,0
299040,note_on,50,0,2,,,,,,,,,2,,,73,63
299040,note_on,50,0,1,,,,,,,,,1,,,76,63
299040,note_on,50,0,5,,,,,,,,,5,,,57,63
299230,note_off,190,0,5,,,,,,,,,5,,,57,0
299280,note_on,50,0,5,,,,,,,,,5,,,37,60
299280,note_on,1295,0,4,,,,,,,,,4,,,49,60
299425,note_off,385,0,2,,,,,,,,,2,,,73,0
299425,note_off,385,0,1,,,,,,,,,1,,,76,0
299460,set_tempo,480,1,0,,,,,,952380,,,,,,,
299470,note_off,190,0,5,,,,,,,,,5,,,37,0
299470,note_off,190,0,4,,,,,,,,,4,,,49,0
299520,note_on,50,0,4,,,,,,,,,4,,,52,61
299520,note_on,95,0,1,,,,,,,,,1,,,78,61
299520,note_on,50,0,5,,,,,,,,,5,,,40,61
299520,note_on,95,0,2,,,,,,,,,2,,,74,61
299640,note_on,0,0,1,,,,,,,,,1,,,76,58
299640,note_off,120,0,1,,,,,,,,,1,,,78,0
299640,note_off,120,0,2,,,,,,,,,2,,,74,0
299640,note_on,0,0,2,,,,,,,,,2,,,73,58
299760,note_on,0,0,1,,,,,,,,,1,,,74,54
299760,note_off,120,0,2,,,,,,,,,2,,,73,0
299760,note_on,0,0,2,,,,,,,,,2,,,71,54
299760,note_off,120,0,1,,,,,,,,,1,,,76,0
299880,note_off,120,0,2,,,,,,,,,2,,,71,0
299880,note_on,0,0,2,,,,,,,,,2,,,69,51
299880,note_off,120,0,1,,,,,,,,,1,,,74,0
299880,note_on,0,0,1,,,,,,,,,1,,,73,51
300000,note_off,120,0,2,,,,,,,,,2,,,69,0
300000,note_on,0,0,1,,,,,,,,,1,,,71,47
300000,note_off,120,0,1,,,,,,,,,1,,,73,0
300000,note_on,0,0,2,,,,,,,,,2,,,68,47
300240,set_tempo,780,1,0,,,,,,1071428,,,,,,,
300290,note_off,770,0,4,,,,,,,,,4,,,52,0
300290,note_off,770,0,5,,,,,,,,,5,,,40,0
300385,note_off,385,0,2,,,,,,,,,2,,,68,0
300385,note_off,385,0,1,,,,,,,,,1,,,71,0
300480,set_tempo,240,1,0,,,,,,869565,,,,,,,
300480,note_on,95,0,1,,,,,,,,,1,,,69,59
300960,note_on,670,0,5,,,,,,,,,5,,,57,57
300960,note_on,670,0,4,,,,,,,,,4,,,61,57
301080,note_on,0,0,1,,,,,,,,,1,,,64,57
301080,note_off,600,0,1,,,,,,,,,1,,,69,0
301160,note_off,80,0,1,,,,,,,,,1,,,64,0
301200,note_on,40,0,1,,,,,,,,,1,,,73,56
301280,note_off,80,0,1,,,,,,,,,1,,,73,0
301320,note_on,40,0,1,,,,,,,,,1,,,73,56
301345,note_off,385,0,4,,,,,,,,,4,,,61,0
301345,note_off,385,0,5,,,,,,,,,5,,,57,0
301400,note_off,80,0,1,,,,,,,,,1,,,73,0
301440,note_on,95,0,5,,,,,,,,,5,,,52,56
301440,note_on,40,0,1,,,,,,,,,1,,,73,56
301440,note_on,95,0,4,,,,,,,,,4,,,59,56
301560,note_off,120,0,1,,,,,,,,,1,,,73,0
301560,note_on,0,0,1,,,,,,,,,1,,,74,55
301680,note_off,240,0,4,,,,,,,,,4,,,59,0
301680,note_off,120,0,1,,,,,,,,,1,,,74,0
301680,note_on,0,0,1,,,,,,,,,1,,,71,55
301680,note_on,0,0,4,,,,,,,,,4,,,62,55
301800,note_off,120,0,1,,,,,,,,,1,,,71,0
301800,note_on,0,0,1,,,,,,,,,1,,,68,54
301825,note_off,385,0,5,,,,,,,,,5,,,52,0
301860,set_tempo,1380,1,0,,,,,,895522,,,,,,,
301920,note_off,240,0,4,,,,,,,,,4,,,62,0
301920,note_on,95,0,5,,,,,,,,,5,,,61,54
301920,note_off,120,0,1,,,,,,,,,1,,,68,0
301920,note_on,0,0,1,,,,,,,,,1,,,69,54
302075,note_off,155,0,5,,,,,,,,,5,,,61,0
302110,note_off,190,0,1,,,,,,,,,1,,,69,0
302160,note_on,85,0,5,,,,,,,,,5,,,64,49
302160,note_on,50,0,1,,,,,,,,,1,,,85,49
302400,note_off,240,0,1,,,,,,,,,1,,,85,0
302400,note_on,0,0,5,,,,,,,,,5,,,63,47
302400,note_off,240,0,5,,,,,,,,,5,,,64,0
302400,note_on,0,0,1,,,,,,,,,1,,,84,47
302640,note_on,0,0,1,,,,,,,,,1,,,85,44
302640,note_off,240,0,5,,,,,,,,,5,,,63,0
302640,note_on,0,0,5,,,,,,,,,5,,,64,44
302640,note_off,240,0,1,,,,,,,,,1,,,84,0
302880,note_on,0,0,1,,,,,,,,,1,,,83,42
302880,note_off,240,0,1,,,,,,,,,1,,,85,0
302880,note_on,0,0,5,,,,,,,,,5,,,62,42
302880,note_off,240,0,5,,,,,,,,,5,,,64,0
303120,note_off,240,0,5,,,,,,,,,5,,,62,0
303120,note_on,0,0,5,,,,,,,,,5,,,61,39
303120,note_off,240,0,1,,,,,,,,,1,,,83,0
303120,note_on,0,0,1,,,,,,,,,1,,,81,39
303300,set_tempo,1440,1,0,,,,,,923076,,,,,,,
303320,note_off,200,0,1,,,,,,,,,1,,,81,0
303325,note_off,205,0,5,,,,,,,,,5,,,61,0
303360,note_on,40,0,1,,,,,,,,,1,,,71,65
303360,set_tempo,60,1,0,,,,,,869565,,,,,,,
303840,note_on,515,0,5,,,,,,,,,5,,,52,62
303840,note_on,1920,0,4,,,,,,,,,4,,,56,62
303960,note_off,600,0,1,,,,,,,,,1,,,71,0
303960,note_on,0,0,1,,,,,,,,,1,,,64,62
304040,note_off,80,0,1,,,,,,,,,1,,,64,0
304080,note_on,40,0,1,,,,,,,,,1,,,74,61
304160,note_off,80,0,1,,,,,,,,,1,,,74,0
304200,note_on,40,0,1,,,,,,,,,1,,,74,61
304225,note_off,385,0,5,,,,,,,,,5,,,52,0
304225,note_off,385,0,4,,,,,,,,,4,,,56,0
304280,note_off,80,0,1,,,,,,,,,1,,,74,0
304320,note_on,40,0,1,,,,,,,,,1,,,74,60
304320,note_on,95,0,4,,,,,,,,,4,,,57,60
304320,note_on,95,0,5,,,,,,,,,5,,,52,60
304440,note_off,120,0,1,,,,,,,,,1,,,74,0
304440,note_on,0,0,1,,,,,,,,,1,,,73,60
304560,note_on,0,0,1,,,,,,,,,1,,,76,59
304560,note_off,120,0,1,,,,,,,,,1,,,73,0
304680,note_on,0,0,1,,,,,,,,,1,,,73,58
304680,note_off,120,0,1,,,,,,,,,1,,,76,0
304705,note_off,385,0,5,,,,,,,,,5,,,52,0
304705,note_off,385,0,4,,,,,,,,,4,,,57,0
304740,set_tempo,1380,1,0,,,,,,895522,,,,,,,
304800,note_on,95,0,5,,,,,,,,,5,,,52,58
304800,note_off,120,0,1,,,,,,,,,1,,,73,0
304800,note_on,95,0,4,,,,,,,,,4,,,56,58
304800,note_on,0,0,1,,,,,,,,,1,,,71,58
304955,note_off,155,0,5,,,,,,,,,5,,,52,0
304955,note_off,155,0,4,,,,,,,,,4,,,56,0
304990,note_off,190,0,1,,,,,,,,,1,,,71,0
305040,note_on,85,0,5,,,,,,,,,5,,,62,52
305040,note_on,50,0,1,,,,,,,,,1,,,83,52
305280,note_on,0,0,1,,,,,,,,,1,,,82,50
305280,note_on,0,0,5,,,,,,,,,5,,,61,50
305280,note_off,240,0,5,,,,,,,,,5,,,62,0
305280,note_off,240,0,1,,,,,,,,,1,,,83,0
305520,note_on,0,0,5,,,,,,,,,5,,,62,47
305520,note_off,240,0,5,,,,,,,,,5,,,61,0
305520,note_on,0,0,1,,,,,,,,,1,,,83,47
305520,note_off,240,0,1,,,,,,,,,1,,,82,0
305760,note_on,0,0,5,,,,,,,,,5,,,61,45
305760,note_off,240,0,5,,,,,,,,,5,,,62,0
305760,note_on,0,0,1,,,,,,,,,1,,,81,45
305760,note_off,240,0,1,,,,,,,,,1,,,83,0
306000,note_on,0,0,1,,,,,,,,,1,,,80,43
306000,note_off,240,0,1,,,,,,,,,1,,,81,0
306000,note_on,0,0,5,,,,,,,,,5,,,59,43
306000,note_off,240,0,5,,,,,,,,,5,,,61,0
306180,set_tempo,1440,1,0,,,,,,952380,,,,,,,
306190,note_off,190,0,5,,,,,,,,,5,,,59,0
306205,note_off,205,0,1,,,,,,,,,1,,,80,0
306240,note_on,35,0,1,,,,,,,,,1,,,76,46
306240,set_tempo,60,1,0,,,,,,869565,,,,,,,
306720,note_on,530,0,5,,,,,,,,,5,,,61,64
306720,note_on,1765,0,4,,,,,,,,,4,,,64,64
306720,note_on,0,0,4,,,,,,,,,4,,,69,64
306800,note_on,0,0,1,,,,,,,,,1,,,78,62
306800,note_off,560,0,1,,,,,,,,,1,,,76,0
306850,note_off,50,0,1,,,,,,,,,1,,,78,0
306880,note_on,30,0,1,,,,,,,,,1,,,80,60
306930,note_off,50,0,1,,,,,,,,,1,,,80,0
306960,note_on,30,0,1,,,,,,,,,1,,,81,59
307010,note_off,50,0,1,,,,,,,,,1,,,81,0
307040,note_on,30,0,1,,,,,,,,,1,,,83,57
307090,note_off,50,0,1,,,,,,,,,1,,,83,0
307120,note_on,30,0,1,,,,,,,,,1,,,85,56
307170,note_off,50,0,1,,,,,,,,,1,,,85,0
307200,note_on,30,0,1,,,,,,,,,1,,,86,54
307200,note_on,0,0,5,,,,,,,,,5,,,59,52
307200,note_off,480,0,5,,,,,,,,,5,,,61,0
307200,note_off,480,0,4,,,,,,,,,4,,,69,0
307200,note_off,0,0,4,,,,,,,,,4,,,64,0
307200,note_on,0,0,4,,,,,,,,,4,,,68,52
307200,note_on,0,0,4,,,,,,,,,4,,,64,52
307305,note_off,105,0,1,,,,,,,,,1,,,86,0
307560,note_on,255,0,1,,,,,,,,,1,,,74,47
307585,note_off,385,0,5,,,,,,,,,5,,,59,0
307585,note_off,0,0,4,,,,,,,,,4,,,64,0
307585,note_off,385,0,4,,,,,,,,,4,,,68,0
307620,set_tempo,1380,1,0,,,,,,895522,,,,,,,
307655,note_off,95,0,1,,,,,,,,,1,,,74,0
307680,note_on,25,0,1,,,,,,,,,1,,,73,46
307680,set_tempo,60,1,0,,,,,,869565,,,,,,,
308160,note_on,0,0,4,,,,,,,,,4,,,61,58
308160,note_on,575,0,5,,,,,,,,,5,,,57,58
308160,note_on,575,0,4,,,,,,,,,4,,,64,58
308240,note_on,560,0,1,,,,,,,,,1,,,74,57
308255,note_off,15,0,1,,,,,,,,,1,,,73,0
308290,note_off,35,0,1,,,,,,,,,1,,,74,0
308320,note_on,30,0,1,,,,,,,,,1,,,76,55
308370,note_off,50,0,1,,,,,,,,,1,,,76,0
308400,note_on,30,0,1,,,,,,,,,1,,,78,54
308450,note_off,50,0,1,,,,,,,,,1,,,78,0
308480,note_on,30,0,1,,,,,,,,,1,,,80,53
308530,note_off,50,0,1,,,,,,,,,1,,,80,0
308545,note_off,385,0,4,,,,,,,,,4,,,61,0
308545,note_off,0,0,4,,,,,,,,,4,,,64,0
308545,note_off,385,0,5,,,,,,,,,5,,,57,0
308560,note_on,30,0,1,,,,,,,,,1,,,81,51
308610,note_off,50,0,1,,,,,,,,,1,,,81,0
308640,note_on,95,0,5,,,,,,,,,5,,,50,46
308640,note_on,95,0,4,,,,,,,,,4,,,56,46
308640,note_on,0,0,4,,,,,,,,,4,,,52,46
308640,note_on,30,0,1,,,,,,,,,1,,,83,50
308745,note_off,105,0,1,,,,,,,,,1,,,83,0
309000,note_on,255,0,1,,,,,,,,,1,,,80,51
309025,note_off,0,0,4,,,,,,,,,4,,,56,0
309025,note_off,385,0,4,,,,,,,,,4,,,52,0
309025,note_off,385,0,5,,,,,,,,,5,,,50,0
309072,set_tempo,1392,1,0,,,,,,895522,,,,,,,
309095,note_off,95,0,1,,,,,,,,,1,,,80,0
309120,set_tempo,48,1,0,,,,,,895522,,,,,,,
309120,note_on,25,0,1,,,,,,,,,1,,,83,53
309240,note_off,120,0,1,,,,,,,,,1,,,83,0
309240,note_on,0,0,1,,,,,,,,,1,,,81,52
309360,note_on,335,0,4,,,,,,,,,4,,,52,51
309360,note_on,0,0,4,,,,,,,,,4,,,57,51
309360,note_on,335,0,5,,,,,,,,,5,,,49,51
309480,note_off,240,0,1,,,,,,,,,1,,,81,0
309480,note_on,0,0,1,,,,,,,,,1,,,76,50
309550,note_off,190,0,5,,,,,,,,,5,,,49,0
309550,note_off,190,0,4,,,,,,,,,4,,,57,0
309550,note_off,0,0,4,,,,,,,,,4,,,52,0
309585,note_off,105,0,1,,,,,,,,,1,,,76,0
309600,note_on,15,0,1,,,,,,,,,1,,,80,49
309720,note_on,0,0,1,,,,,,,,,1,,,78,48
309720,note_off,120,0,1,,,,,,,,,1,,,80,0
309840,note_on,290,0,5,,,,,,,,,5,,,50,48
309840,note_on,290,0,4,,,,,,,,,4,,,54,48
309840,note_on,0,0,4,,,,,,,,,4,,,57,48
309960,note_on,0,0,1,,,,,,,,,1,,,73,47
309960,note_off,240,0,1,,,,,,,,,1,,,78,0
310030,note_off,0,0,4,,,,,,,,,4,,,54,0
310030,note_off,190,0,4,,,,,,,,,4,,,57,0
310030,note_off,190,0,5,,,,,,,,,5,,,50,0
310060,note_off,100,0,1,,,,,,,,,1,,,73,0
310080,note_on,20,0,1,,,,,,,,,1,,,76,46
310200,note_off,120,0,1,,,,,,,,,1,,,76,0
310200,note_on,0,0,1,,,,,,,,,1,,,74,45
310320,note_on,290,0,4,,,,,,,,,4,,,62,44
310320,note_on,0,0,4,,,,,,,,,4,,,57,44
310320,note_on,290,0,5,,,,,,,,,5,,,54,44
310440,note_off,240,0,1,,,,,,,,,1,,,74,0
310440,note_on,0,0,1,,,,,,,,,1,,,69,43
310500,set_tempo,1380,1,0,,,,,,923076,,,,,,,
310510,note_off,0,0,4,,,,,,,,,4,,,62,0
310510,note_off,190,0,4,,,,,,,,,4,,,57,0
310510,note_off,190,0,5,,,,,,,,,5,,,54,0
310530,note_off,90,0,1,,,,,,,,,1,,,69,0
310560,note_on,30,0,1,,,,,,,,,1,,,73,42
310680,note_on,0,0,1,,,,,,,,,1,,,71,41
310680,note_off,120,0,1,,,,,,,,,1,,,73,0
310800,note_on,290,0,4,,,,,,,,,4,,,62,40
310800,note_on,290,0,5,,,,,,,,,5,,,52,40
310920,note_off,240,0,1,,,,,,,,,1,,,71,0
310920,note_on,0,0,1,,,,,,,,,1,,,68,39
310990,note_off,190,0,5,,,,,,,,,5,,,52,0
310990,note_off,190,0,4,,,,,,,,,4,,,62,0
311000,note_off,80,0,1,,,,,,,,,1,,,68,0
311000,set_tempo,500,1,0,,,,,,923076,,,,,,,
311040,note_on,50,0,5,,,,,,,,,5,,,57,38
311040,note_on,10655,0,2,,,,,,,,,2,,,62,38
311040,note_on,40,0,1,,,,,,,,,1,,,68,38
311195,note_off,155,0,5,,,,,,,,,5,,,57,0
311280,note_on,85,0,5,,,,,,,,,5,,,52,36
311435,note_off,155,0,5,,,,,,,,,5,,,52,0
311520,note_on,0,0,2,,,,,,,,,2,,,61,35
311520,note_on,0,0,1,,,,,,,,,1,,,69,35
311520,note_off,480,0,2,,,,,,,,,2,,,62,0
311520,set_tempo,520,1,0,,,,,,1111111,,,,,,,
311520,note_off,480,0,1,,,,,,,,,1,,,68,0
311520,note_on,85,0,5,,,,,,,,,5,,,45,35
311675,note_off,155,0,5,,,,,,,,,5,,,45,0
311710,note_off,190,0,2,,,,,,,,,2,,,61,0
311710,note_off,190,0,1,,,,,,,,,1,,,69,0
311760,note_on,50,0,1,,,,,,,,,1,,,65,47
311760,set_tempo,240,1,0,,,,,,923076,,,,,,,
311940,set_tempo,180,1,0,,,,,,1132075,,,,,,,
311950,note_off,190,0,1,,,,,,,,,1,,,65,0
312000,note_on,1010,0,4,,,,,,,,,4,,,54,54
312000,set_tempo,60,1,0,,,,,,869565,,,,,,,
312000,note_on,50,0,1,,,,,,,,,1,,,66,54
312120,note_on,26065,0,3,,,,,,,,,3,,,61,49
312240,note_on,0,0,3,,,,,,,,,3,,,57,48
312240,note_off,120,0,3,,,,,,,,,3,,,61,0
312360,note_off,120,0,3,,,,,,,,,3,,,57,0
312360,note_on,0,0,3,,,,,,,,,3,,,61,48
312360,note_off,360,0,4,,,,,,,,,4,,,54,0
312385,note_off,385,0,1,,,,,,,,,1,,,66,0
312480,note_off,120,0,3,,,,,,,,,3,,,61,0
312480,note_on,120,0,4,,,,,,,,,4,,,54,47
312600,note_on,120,0,3,,,,,,,,,3,,,61,46
312600,note_on,215,0,1,,,,,,,,,1,,,73,46
312680,note_off,80,0,1,,,,,,,,,1,,,73,0
312720,note_on,40,0,1,,,,,,,,,1,,,73,45
312720,note_off,120,0,3,,,,,,,,,3,,,61,0
312720,note_on,0,0,3,,,,,,,,,3,,,57,45
312800,note_off,80,0,1,,,,,,,,,1,,,73,0
312840,note_off,360,0,4,,,,,,,,,4,,,54,0
312840,note_on,40,0,1,,,,,,,,,1,,,73,45
312840,note_off,120,0,3,,,,,,,,,3,,,57,0
312840,note_on,0,0,3,,,,,,,,,3,,,61,45
312920,note_off,80,0,1,,,,,,,,,1,,,73,0
312960,note_on,120,0,4,,,,,,,,,4,,,54,44
312960,note_on,40,0,1,,,,,,,,,1,,,73,44
312960,note_off,120,0,3,,,,,,,,,3,,,61,0
313040,note_off,80,0,1,,,,,,,,,1,,,73,0
313080,note_on,40,0,1,,,,,,,,,1,,,73,43
313080,note_on,120,0,3,,,,,,,,,3,,,61,43
313160,note_off,80,0,1,,,,,,,,,1,,,73,0
313200,note_off,120,0,3,,,,,,,,,3,,,61,0
313200,note_on,0,0,3,,,,,,,,,3,,,57,43
313200,note_on,40,0,1,,,,,,,,,1,,,73,43
313280,note_off,80,0,1,,,,,,,,,1,,,73,0
313320,note_off,120,0,3,,,,,,,,,3,,,57,0
313320,note_on,0,0,3,,,,,,,,,3,,,61,42
313320,note_on,40,0,1,,,,,,,,,1,,,73,42
313320,note_off,360,0,4,,,,,,,,,4,,,54,0
313380,set_tempo,1380,1,0,,,,,,895522,,,,,,,
313400,note_off,80,0,1,,,,,,,,,1,,,73,0
313440,set_tempo,60,1,0,,,,,,869565,,,,,,,
313440,note_on,40,0,1,,,,,,,,,1,,,73,59
313440,note_on,120,0,4,,,,,,,,,4,,,53,59
313440,note_off,120,0,3,,,,,,,,,3,,,61,0
313480,note_off,40,0,1,,,,,,,,,1,,,73,0
313480,note_on,0,0,1,,,,,,,,,1,,,74,55
313520,note_off,40,0,1,,,,,,,,,1,,,74,0
313520,note_on,0,0,1,,,,,,,,,1,,,73,55
313560,note_off,40,0,1,,,,,,,,,1,,,73,0
313560,note_on,0,0,1,,,,,,,,,1,,,74,54
313560,note_on,120,0,3,,,,,,,,,3,,,59,55
313600,note_off,40,0,1,,,,,,,,,1,,,74,0
313600,note_on,0,0,1,,,,,,,,,1,,,73,54
313640,note_off,40,0,1,,,,,,,,,1,,,73,0
313640,note_on,0,0,1,,,,,,,,,1,,,74,53
313680,note_on,0,0,1,,,,,,,,,1,,,73,53
313680,note_off,40,0,1,,,,,,,,,1,,,74,0
313680,note_off,120,0,3,,,,,,,,,3,,,59,0
313680,note_on,0,0,3,,,,,,,,,3,,,56,54
313720,note_off,40,0,1,,,,,,,,,1,,,73,0
313720,note_on,0,0,1,,,,,,,,,1,,,74,52
313760,note_off,40,0,1,,,,,,,,,1,,,74,0
313760,note_on,0,0,1,,,,,,,,,1,,,73,51
313800,note_off,360,0,4,,,,,,,,,4,,,53,0
313800,note_off,40,0,1,,,,,,,,,1,,,73,0
313800,note_on,0,0,1,,,,,,,,,1,,,74,51
313800,note_on,0,0,3,,,,,,,,,3,,,59,53
313800,note_off,120,0,3,,,,,,,,,3,,,56,0
313840,note_on,0,0,1,,,,,,,,,1,,,73,50
313840,note_off,40,0,1,,,,,,,,,1,,,74,0
313880,note_on,0,0,1,,,,,,,,,1,,,74,50
313880,note_off,40,0,1,,,,,,,,,1,,,73,0
313920,note_on,0,0,1,,,,,,,,,1,,,73,53
313920,note_off,40,0,1,,,,,,,,,1,,,74,0
313920,note_off,120,0,3,,,,,,,,,3,,,59,0
313920,note_on,120,0,4,,,,,,,,,4,,,53,53
313995,note_off,75,0,1,,,,,,,,,1,,,73,0
314040,note_on,120,0,3,,,,,,,,,3,,,59,52
314040,note_on,45,0,1,,,,,,,,,1,,,73,52
314120,note_off,80,0,1,,,,,,,,,1,,,73,0
314160,note_on,0,0,3,,,,,,,,,3,,,56,51
314160,note_off,120,0,3,,,,,,,,,3,,,59,0
314160,note_on,40,0,1,,,,,,,,,1,,,73,51
314240,note_off,80,0,1,,,,,,,,,1,,,73,0
314280,note_on,40,0,1,,,,,,,,,1,,,73,51
314280,note_off,120,0,3,,,,,,,,,3,,,56,0
314280,note_off,360,0,4,,,,,,,,,4,,,53,0
314280,note_on,0,0,3,,,,,,,,,3,,,59,51
314360,note_off,80,0,1,,,,,,,,,1,,,73,0
314400,note_on,40,0,1,,,,,,,,,1,,,73,50
314400,note_on,120,0,4,,,,,,,,,4,,,53,50
314400,note_off,120,0,3,,,,,,,,,3,,,59,0
314480,note_off,80,0,1,,,,,,,,,1,,,73,0
314520,note_on,120,0,3,,,,,,,,,3,,,59,49
314520,note_on,40,0,1,,,,,,,,,1,,,73,49
314600,note_off,80,0,1,,,,,,,,,1,,,73,0
314640,note_on,40,0,1,,,,,,,,,1,,,73,49
314640,note_on,0,0,3,,,,,,,,,3,,,56,49
314640,note_off,120,0,3,,,,,,,,,3,,,59,0
314720,note_off,80,0,1,,,,,,,,,1,,,73,0
314760,note_on,40,0,1,,,,,,,,,1,,,73,48
314760,note_off,120,0,3,,,,,,,,,3,,,56,0
314760,note_off,360,0,4,,,,,,,,,4,,,53,0
314760,note_on,0,0,3,,,,,,,,,3,,,59,48
314820,set_tempo,1380,1,0,,,,,,895522,,,,,,,
314840,note_off,80,0,1,,,,,,,,,1,,,73,0
314880,note_on,40,0,1,,,,,,,,,1,,,73,63
314880,note_off,120,0,3,,,,,,,,,3,,,59,0
314880,note_on,120,0,4,,,,,,,,,4,,,52,63
314880,set_tempo,60,1,0,,,,,,869565,,,,,,,
314920,note_off,40,0,1,,,,,,,,,1,,,73,0
314920,note_on,0,0,1,,,,,,,,,1,,,74,59
314960,note_on,0,0,1,,,,,,,,,1,,,73,59
314960,note_off,40,0,1,,,,,,,,,1,,,74,0
315000,note_on,0,0,1,,,,,,,,,1,,,74,58
315000,note_off,40,0,1,,,,,,,,,1,,,73,0
315000,note_on,120,0,3,,,,,,,,,3,,,58,61
315040,note_off,40,0,1,,,,,,,,,1,,,74,0
315040,note_on,0,0,1,,,,,,,,,1,,,73,58
315080,note_off,40,0,1,,,,,,,,,1,,,73,0
315080,note_on,0,0,1,,,,,,,,,1,,,74,57
315120,note_on,0,0,1,,,,,,,,,1,,,73,56
315120,note_off,40,0,1,,,,,,,,,1,,,74,0
315120,note_off,120,0,3,,,,,,,,,3,,,58,0
315120,note_on,0,0,3,,,,,,,,,3,,,55,60
315160,note_on,0,0,1,,,,,,,,,1,,,74,56
315160,note_off,40,0,1,,,,,,,,,1,,,73,0
315200,note_on,0,0,1,,,,,,,,,1,,,73,55
315200,note_off,40,0,1,,,,,,,,,1,,,74,0
315240,note_off,360,0,4,,,,,,,,,4,,,52,0
315240,note_on,0,0,3,,,,,,,,,3,,,58,59
315240,note_off,40,0,1,,,,,,,,,1,,,73,0
315240,note_on,0,0,1,,,,,,,,,1,,,74,55
315240,note_off,120,0,3,,,,,,,,,3,,,55,0
315280,note_off,40,0,1,,,,,,,,,1,,,74,0
315280,note_on,0,0,1,,,,,,,,,1,,,73,54
315320,note_on,0,0,1,,,,,,,,,1,,,74,54
315320,note_off,40,0,1,,,,,,,,,1,,,73,0
315360,note_off,40,0,1,,,,,,,,,1,,,74,0
315360,note_on,0,0,1,,,,,,,,,1,,,73,59
315360,note_on,120,0,4,,,,,,,,,4,,,52,59
315360,note_off,120,0,3,,,,,,,,,3,,,58,0
315435,note_off,75,0,1,,,,,,,,,1,,,73,0
315480,note_on,45,0,1,,,,,,,,,1,,,73,58
315480,note_on,120,0,3,,,,,,,,,3,,,58,58
315560,note_off,80,0,1,,,,,,,,,1,,,73,0
315600,note_off,120,0,3,,,,,,,,,3,,,58,0
315600,note_on,0,0,3,,,,,,,,,3,,,55,57
315600,note_on,40,0,1,,,,,,,,,1,,,73,57
315680,note_off,80,0,1,,,,,,,,,1,,,73,0
315720,note_off,360,0,4,,,,,,,,,4,,,52,0
315720,note_off,120,0,3,,,,,,,,,3,,,55,0
315720,note_on,0,0,3,,,,,,,,,3,,,58,57
315720,note_on,40,0,1,,,,,,,,,1,,,73,57
315800,note_off,80,0,1,,,,,,,,,1,,,73,0
315840,note_on,40,0,1,,,,,,,,,1,,,73,56
315840,note_on,120,0,4,,,,,,,,,4,,,52,56
315840,note_off,120,0,3,,,,,,,,,3,,,58,0
315920,note_off,80,0,1,,,,,,,,,1,,,73,0
315960,note_on,120,0,3,,,,,,,,,3,,,58,55
315960,note_on,40,0,1,,,,,,,,,1,,,73,55
316040,note_off,80,0,1,,,,,,,,,1,,,73,0
316080,note_off,120,0,3,,,,,,,,,3,,,58,0
316080,note_on,40,0,1,,,,,,,,,1,,,73,54
316080,note_on,0,0,3,,,,,,,,,3,,,55,54
316160,note_off,80,0,1,,,,,,,,,1,,,73,0
316200,note_on,40,0,1,,,,,,,,,1,,,73,54
316200,note_off,120,0,3,,,,,,,,,3,,,55,0
316200,note_on,0,0,3,,,,,,,,,3,,,58,54
316200,note_off,360,0,4,,,,,,,,,4,,,52,0
316260,set_tempo,1380,1,0,,,,,,895522,,,,,,,
316280,note_off,80,0,1,,,,,,,,,1,,,73,0
316320,note_on,120,0,4,,,,,,,,,4,,,51,69
316320,set_tempo,60,1,0,,,,,,869565,,,,,,,
316320,note_on,40,0,1,,,,,,,,,1,,,78,70
316320,note_off,120,0,3,,,,,,,,,3,,,58,0
316440,note_on,120,0,3,,,,,,,,,3,,,59,65
316560,note_on,0,0,3,,,,,,,,,3,,,54,63
316560,note_off,120,0,3,,,,,,,,,3,,,59,0
316680,note_off,120,0,3,,,,,,,,,3,,,54,0
316680,note_on,0,0,1,,,,,,,,,1,,,75,62
316680,note_off,360,0,4,,,,,,,,,4,,,51,0
316680,note_off,360,0,1,,,,,,,,,1,,,78,0
316680,note_on,0,0,3,,,,,,,,,3,,,59,62
316800,note_off,120,0,3,,,,,,,,,3,,,59,0
316800,note_off,120,0,1,,,,,,,,,1,,,75,0
316800,note_on,120,0,4,,,,,,,,,4,,,51,61
316800,note_on,0,0,1,,,,,,,,,1,,,71,61
316920,note_on,120,0,3,,,,,,,,,3,,,59,60
317040,note_off,120,0,3,,,,,,,,,3,,,59,0
317040,note_on,0,0,3,,,,,,,,,3,,,54,58
317160,note_off,360,0,4,,,,,,,,,4,,,51,0
317160,note_off,120,0,3,,,,,,,,,3,,,54,0
317160,note_on,0,0,3,,,,,,,,,3,,,59,57
317185,note_off,385,0,1,,,,,,,,,1,,,71,0
317280,note_on,120,0,4,,,,,,,,,4,,,51,56
317280,note_off,120,0,3,,,,,,,,,3,,,59,0
317400,note_on,120,0,3,,,,,,,,,3,,,59,54
317520,note_on,0,0,3,,,,,,,,,3,,,54,53
317520,note_off,120,0,3,,,,,,,,,3,,,59,0
317640,note_off,360,0,4,,,,,,,,,4,,,51,0
317640,note_on,0,0,3,,,,,,,,,3,,,59,52
317640,note_off,120,0,3,,,,,,,,,3,,,54,0
317706,set_tempo,1386,1,0,,,,,,895522,,,,,,,
317760,note_on,120,0,4,,,,,,,,,4,,,50,75
317760,note_on,575,0,1,,,,,,,,,1,,,81,75
317760,note_off,120,0,3,,,,,,,,,3,,,59,0
317880,note_on,120,0,3,,,,,,,,,3,,,60,69
318000,note_off,120,0,3,,,,,,,,,3,,,60,0
318000,note_on,0,0,3,,,,,,,,,3,,,54,67
318120,note_on,0,0,1,,,,,,,,,1,,,78,66
318120,note_on,0,0,3,,,,,,,,,3,,,60,66
318120,note_off,360,0,4,,,,,,,,,4,,,50,0
318120,note_off,360,0,1,,,,,,,,,1,,,81,0
318120,note_off,120,0,3,,,,,,,,,3,,,54,0
318240,note_on,120,0,4,,,,,,,,,4,,,50,65
318240,note_on,0,0,1,,,,,,,,,1,,,72,65
318240,note_off,120,0,1,,,,,,,,,1,,,78,0
318240,note_off,120,0,3,,,,,,,,,3,,,60,0
318360,note_on,120,0,3,,,,,,,,,3,,,60,64
318480,note_off,120,0,3,,,,,,,,,3,,,60,0
318480,note_on,0,0,3,,,,,,,,,3,,,54,62
318600,note_off,120,0,3,,,,,,,,,3,,,54,0
318600,note_on,0,0,3,,,,,,,,,3,,,60,61
318600,note_off,360,0,4,,,,,,,,,4,,,50,0
318625,note_off,385,0,1,,,,,,,,,1,,,72,0
318720,note_off,120,0,3,,,,,,,,,3,,,60,0
318720,note_on,120,0,4,,,,,,,,,4,,,50,60
318840,note_on,120,0,3,,,,,,,,,3,,,60,58
318960,note_on,335,0,1,,,,,,,,,1,,,72,57
318960,note_on,0,0,3,,,,,,,,,3,,,54,57
318960,note_off,120,0,3,,,,,,,,,3,,,60,0
319080,note_off,120,0,3,,,,,,,,,3,,,54,0
319080,note_on,0,0,3,,,,,,,,,3,,,60,56
319080,note_off,360,0,4,,,,,,,,,4,,,50,0
319160,set_tempo,1454,1,0,,,,,,923076,,,,,,,
319200,note_off,240,0,1,,,,,,,,,1,,,72,0
319200,note_on,0,0,1,,,,,,,,,1,,,73,55
319200,note_off,120,0,3,,,,,,,,,3,,,60,0
319200,note_on,0,0,3,,,,,,,,,3,,,53,55
319200,note_on,7525,0,5,,,,,,,,,5,,,49,55
319295,note_off,95,0,1,,,,,,,,,1,,,73,0
319320,note_on,25,0,1,,,,,,,,,1,,,61,53
319440,note_on,0,0,1,,,,,,,,,1,,,60,52
319440,note_off,120,0,1,,,,,,,,,1,,,61,0
319560,note_on,0,0,1,,,,,,,,,1,,,61,51
319560,note_off,120,0,1,,,,,,,,,1,,,60,0
319680,note_off,480,0,5,,,,,,,,,5,,,49,0
319680,note_off,120,0,1,,,,,,,,,1,,,61,0
319680,note_off,480,0,3,,,,,,,,,3,,,53,0
319680,note_on,0,0,1,,,,,,,,,1,,,60,49
319800,note_on,0,0,1,,,,,,,,,1,,,61,48
319800,note_off,120,0,1,,,,,,,,,1,,,60,0
319920,note_off,120,0,1,,,,,,,,,1,,,61,0
319920,note_on,0,0,1,,,,,,,,,1,,,60,47
320040,note_on,0,0,1,,,,,,,,,1,,,61,46
320040,note_off,120,0,1,,,,,,,,,1,,,60,0
320160,note_off,120,0,1,,,,,,,,,1,,,61,0
320160,note_on,0,0,1,,,,,,,,,1,,,60,45
320280,note_off,120,0,1,,,,,,,,,1,,,60,0
320280,note_on,0,0,1,,,,,,,,,1,,,61,43
320360,set_tempo,1200,1,0,,,,,,952380,,,,,,,
320400,note_off,120,0,1,,,,,,,,,1,,,61,0
320400,note_on,0,0,1,,,,,,,,,1,,,60,41
320480,set_tempo,120,1,0,,,,,,1071428,,,,,,,
320520,note_on,0,0,1,,,,,,,,,1,,,61,39
320520,note_off,120,0,1,,,,,,,,,1,,,60,0
320600,set_tempo,120,1,0,,,,,,1818181,,,,,,,
320640,set_tempo,40,1,0,,,,,,869565,,,,,,,
320640,note_on,1560,0,4,,,,,,,,,4,,,50,48
320640,note_on,0,0,1,,,,,,,,,1,,,62,48
320640,note_off,120,0,1,,,,,,,,,1,,,61,0
320760,note_on,1080,0,3,,,,,,,,,3,,,57,49
320820,note_off,180,0,4,,,,,,,,,4,,,50,0
320880,note_on,60,0,4,,,,,,,,,4,,,52,49
320880,note_off,120,0,3,,,,,,,,,3,,,57,0
321000,note_on,120,0,3,,,,,,,,,3,,,57,50
321060,note_off,180,0,4,,,,,,,,,4,,,52,0
321120,note_on,60,0,4,,,,,,,,,4,,,54,51
321120,note_off,120,0,3,,,,,,,,,3,,,57,0
321240,note_on,120,0,3,,,,,,,,,3,,,57,51
321300,note_off,660,0,1,,,,,,,,,1,,,62,0
321300,note_off,180,0,4,,,,,,,,,4,,,54,0
321360,note_on,60,0,1,,,,,,,,,1,,,61,47
321360,note_on,60,0,4,,,,,,,,,4,,,55,52
321360,note_off,120,0,3,,,,,,,,,3,,,57,0
321400,note_on,0,0,1,,,,,,,,,1,,,62,48
321400,note_off,40,0,1,,,,,,,,,1,,,61,0
321440,note_on,0,0,1,,,,,,,,,1,,,61,49
321440,note_off,40,0,1,,,,,,,,,1,,,62,0
321480,note_on,120,0,3,,,,,,,,,3,,,57,53
321480,note_off,40,0,1,,,,,,,,,1,,,61,0
321480,note_on,0,0,1,,,,,,,,,1,,,59,50
321540,note_on,0,0,1,,,,,,,,,1,,,61,52
321540,note_off,60,0,1,,,,,,,,,1,,,59,0
321540,note_off,180,0,4,,,,,,,,,4,,,55,0
321600,note_on,0,0,1,,,,,,,,,1,,,62,53
321600,note_off,60,0,1,,,,,,,,,1,,,61,0
321600,note_off,120,0,3,,,,,,,,,3,,,57,0
321600,note_on,60,0,4,,,,,,,,,4,,,54,54
321720,note_on,120,0,3,,,,,,,,,3,,,57,54
321780,note_off,180,0,4,,,,,,,,,4,,,54,0
321790,note_off,190,0,1,,,,,,,,,1,,,62,0
321840,note_on,60,0,4,,,,,,,,,4,,,52,55
321840,note_on,50,0,1,,,,,,,,,1,,,61,51
321840,note_off,120,0,3,,,,,,,,,3,,,57,0
321880,note_on,0,0,1,,,,,,,,,1,,,62,52
321880,note_off,40,0,1,,,,,,,,,1,,,61,0
321920,note_on,0,0,1,,,,,,,,,1,,,61,53
321920,note_off,40,0,1,,,,,,,,,1,,,62,0
321960,note_on,120,0,3,,,,,,,,,3,,,57,56
321960,note_on,0,0,1,,,,,,,,,1,,,59,54
321960,note_off,40,0,1,,,,,,,,,1,,,61,0
322020,note_off,180,0,4,,,,,,,,,4,,,52,0
322020,note_off,60,0,1,,,,,,,,,1,,,59,0
322020,note_on,0,0,1,,,,,,,,,1,,,61,56
322080,note_off,60,0,1,,,,,,,,,1,,,61,0
322080,note_on,0,0,1,,,,,,,,,1,,,62,57
322080,note_off,120,0,3,,,,,,,,,3,,,57,0
322080,note_on,60,0,4,,,,,,,,,4,,,54,57
322200,note_on,120,0,3,,,,,,,,,3,,,57,57
322260,note_off,180,0,4,,,,,,,,,4,,,54,0
322270,note_off,190,0,1,,,,,,,,,1,,,62,0
322320,note_off,120,0,3,,,,,,,,,3,,,57,0
322320,note_on,60,0,4,,,,,,,,,4,,,49,58
322320,note_on,50,0,1,,,,,,,,,1,,,64,55
322360,note_on,0,0,1,,,,,,,,,1,,,66,55
322360,note_off,40,0,1,,,,,,,,,1,,,64,0
322400,note_off,40,0,1,,,,,,,,,1,,,66,0
322400,note_on,0,0,1,,,,,,,,,1,,,64,56
322440,note_off,40,0,1,,,,,,,,,1,,,64,0
322440,note_on,0,0,1,,,,,,,,,1,,,62,57
322440,note_on,120,0,3,,,,,,,,,3,,,57,59
322500,note_off,180,0,4,,,,,,,,,4,,,49,0
322500,note_off,60,0,1,,,,,,,,,1,,,62,0
322500,note_on,0,0,1,,,,,,,,,1,,,64,58
322560,note_off,60,0,1,,,,,,,,,1,,,64,0
322560,note_on,0,0,1,,,,,,,,,1,,,66,59
322560,note_on,60,0,4,,,,,,,,,4,,,50,59
322560,note_off,120,0,3,,,,,,,,,3,,,57,0
322680,note_on,120,0,3,,,,,,,,,3,,,57,58
322740,note_off,180,0,4,,,,,,,,,4,,,50,0
322740,set_tempo,2100,1,0,,,,,,882352,,,,,,,
322750,note_off,190,0,1,,,,,,,,,1,,,66,0
322800,note_on,50,0,1,,,,,,,,,1,,,69,65
322800,note_off,120,0,3,,,,,,,,,3,,,57,0
322800,note_on,60,0,4,,,,,,,,,4,,,52,61
322920,note_on,120,0,1,,,,,,,,,1,,,67,62
322920,note_on,120,0,3,,,,,,,,,3,,,57,59
322935,note_off,15,0,1,,,,,,,,,1,,,69,0
322980,note_off,180,0,4,,,,,,,,,4,,,52,0
323010,note_off,75,0,1,,,,,,,,,1,,,67,0
323040,note_on,30,0,1,,,,,,,,,1,,,66,59
323040,note_off,120,0,3,,,,,,,,,3,,,57,0
323040,note_on,60,0,4,,,,,,,,,4,,,50,58
323160,note_on,120,0,3,,,,,,,,,3,,,57,56
323220,note_off,180,0,4,,,,,,,,,4,,,50,0
323230,note_off,190,0,1,,,,,,,,,1,,,66,0
323280,note_on,50,0,1,,,,,,,,,1,,,64,55
323280,note_on,60,0,4,,,,,,,,,4,,,49,55
323280,note_off,120,0,3,,,,,,,,,3,,,57,0
323400,note_on,120,0,3,,,,,,,,,3,,,57,53
323435,note_off,155,0,1,,,,,,,,,1,,,64,0
323460,note_off,180,0,4,,,,,,,,,4,,,49,0
323460,set_tempo,720,1,0,,,,,,923076,,,,,,,
323520,set_tempo,60,1,0,,,,,,869565,,,,,,,
323520,note_off,120,0,3,,,,,,,,,3,,,57,0
323520,note_on,60,0,4,,,,,,,,,4,,,45,40
323520,note_on,85,0,1,,,,,,,,,1,,,64,44
323640,note_on,120,0,3,,,,,,,,,3,,,57,41
323700,note_off,180,0,4,,,,,,,,,4,,,45,0
323760,note_on,60,0,4,,,,,,,,,4,,,47,41
323760,note_off,120,0,3,,,,,,,,,3,,,57,0
323880,note_on,120,0,3,,,,,,,,,3,,,57,42
323940,note_off,180,0,4,,,,,,,,,4,,,47,0
324000,note_on,60,0,4,,,,,,,,,4,,,49,43
324000,note_off,120,0,3,,,,,,,,,3,,,57,0
324120,note_on,120,0,3,,,,,,,,,3,,,57,44
324180,note_off,180,0,4,,,,,,,,,4,,,49,0
324185,note_off,665,0,1,,,,,,,,,1,,,64,0
324240,note_on,60,0,4,,,,,,,,,4,,,47,45
324240,note_on,55,0,1,,,,,,,,,1,,,63,41
324240,note_off,120,0,3,,,,,,,,,3,,,57,0
324280,note_off,40,0,1,,,,,,,,,1,,,63,0
324280,note_on,0,0,1,,,,,,,,,1,,,64,42
324320,note_on,0,0,1,,,,,,,,,1,,,63,43
324320,note_off,40,0,1,,,,,,,,,1,,,64,0
324360,note_off,40,0,1,,,,,,,,,1,,,63,0
324360,note_on,0,0,1,,,,,,,,,1,,,61,44
324360,note_on,120,0,3,,,,,,,,,3,,,57,46
324420,note_off,60,0,1,,,,,,,,,1,,,61,0
324420,note_off,180,0,4,,,,,,,,,4,,,47,0
324420,note_on,0,0,1,,,,,,,,,1,,,63,46
324480,note_on,0,0,1,,,,,,,,,1,,,64,47
324480,note_on,60,0,4,,,,,,,,,4,,,49,47
324480,note_off,120,0,3,,,,,,,,,3,,,57,0
324480,note_off,60,0,1,,,,,,,,,1,,,63,0
324600,note_on,120,0,3,,,,,,,,,3,,,57,47
324660,note_off,180,0,4,,,,,,,,,4,,,49,0
324670,note_off,190,0,1,,,,,,,,,1,,,64,0
324720,note_on,50,0,1,,,,,,,,,1,,,63,44
324720,note_on,60,0,4,,,,,,,,,4,,,47,48
324720,note_off,120,0,3,,,,,,,,,3,,,57,0
324760,note_on,0,0,1,,,,,,,,,1,,,64,45
324760,note_off,40,0,1,,,,,,,,,1,,,63,0
324800,note_off,40,0,1,,,,,,,,,1,,,64,0
324800,note_on,0,0,1,,,,,,,,,1,,,63,46
324840,note_on,0,0,1,,,,,,,,,1,,,61,47
324840,note_off,40,0,1,,,,,,,,,1,,,63,0
324840,note_on,120,0,3,,,,,,,,,3,,,57,49
324900,note_on,0,0,1,,,,,,,,,1,,,63,48
324900,note_off,60,0,1,,,,,,,,,1,,,61,0
324900,note_off,180,0,4,,,,,,,,,4,,,47,0
324960,note_off,60,0,1,,,,,,,,,1,,,63,0
324960,note_off,120,0,3,,,,,,,,,3,,,57,0
324960,note_on,60,0,4,,,,,,,,,4,,,49,50
324960,note_on,0,0,1,,,,,,,,,1,,,64,50
325080,note_on,120,0,3,,,,,,,,,3,,,57,51
325140,note_off,180,0,4,,,,,,,,,4,,,49,0
325150,note_off,190,0,1,,,,,,,,,1,,,64,0
325200,note_on,50,0,1,,,,,,,,,1,,,66,48
325200,note_on,60,0,4,,,,,,,,,4,,,50,52
325200,note_off,120,0,3,,,,,,,,,3,,,57,0
325240,note_on,0,0,1,,,,,,,,,1,,,67,49
325240,note_off,40,0,1,,,,,,,,,1,,,66,0
325280,note_off,40,0,1,,,,,,,,,1,,,67,0
325280,note_on,0,0,1,,,,,,,,,1,,,66,50
325320,note_on,0,0,1,,,,,,,,,1,,,64,51
325320,note_off,40,0,1,,,,,,,,,1,,,66,0
325320,note_on,120,0,3,,,,,,,,,3,,,57,52
325380,note_on,0,0,1,,,,,,,,,1,,,66,52
325380,note_off,60,0,1,,,,,,,,,1,,,64,0
325380,note_off,180,0,4,,,,,,,,,4,,,50,0
325440,note_off,120,0,3,,,,,,,,,3,,,57,0
325440,note_off,60,0,1,,,,,,,,,1,,,66,0
325440,note_on,60,0,4,,,,,,,,,4,,,52,53
325440,note_on,0,0,1,,,,,,,,,1,,,67,53
325560,note_on,120,0,3,,,,,,,,,3,,,57,52
325620,note_off,180,0,4,,,,,,,,,4,,,52,0
325620,set_tempo,2100,1,0,,,,,,882352,,,,,,,
325630,note_off,190,0,1,,,,,,,,,1,,,67,0
325680,note_on,50,0,1,,,,,,,,,1,,,71,59
325680,note_on,60,0,4,,,,,,,,,4,,,54,55
325680,note_off,120,0,3,,,,,,,,,3,,,57,0
325800,note_on,120,0,3,,,,,,,,,3,,,57,53
325800,note_off,120,0,1,,,,,,,,,1,,,71,0
325800,note_on,0,0,1,,,,,,,,,1,,,69,56
325860,note_off,180,0,4,,,,,,,,,4,,,54,0
325895,note_off,95,0,1,,,,,,,,,1,,,69,0
325920,note_on,25,0,1,,,,,,,,,1,,,67,53
325920,note_off,120,0,3,,,,,,,,,3,,,57,0
325920,note_on,60,0,4,,,,,,,,,4,,,52,51
326040,note_on,120,0,3,,,,,,,,,3,,,57,49
326100,note_off,180,0,4,,,,,,,,,4,,,52,0
326110,note_off,190,0,1,,,,,,,,,1,,,67,0
326160,note_on,50,0,1,,,,,,,,,1,,,66,47
326160,note_off,120,0,3,,,,,,,,,3,,,57,0
326160,note_on,60,0,4,,,,,,,,,4,,,50,48
326280,note_on,120,0,3,,,,,,,,,3,,,57,46
326315,note_off,155,0,1,,,,,,,,,1,,,66,0
326340,note_off,180,0,4,,,,,,,,,4,,,50,0
326340,set_tempo,720,1,0,,,,,,952380,,,,,,,
326400,note_on,85,0,1,,,,,,,,,1,,,66,73
326400,note_off,120,0,3,,,,,,,,,3,,,57,0
326400,set_tempo,60,1,0,,,,,,869565,,,,,,,
326460,note_on,60,0,1,,,,,,,,,1,,,78,72
326520,note_off,60,0,1,,,,,,,,,1,,,66,0
326630,note_off,110,0,1,,,,,,,,,1,,,78,0
326640,note_on,0,0,4,,,,,,,,,4,,,57,74
326640,note_on,300,0,4,,,,,,,,,4,,,54,74
326640,note_on,10,0,1,,,,,,,,,1,,,78,74
326640,note_on,6960,0,5,,,,,,,,,5,,,50,74
326830,note_off,0,0,4,,,,,,,,,4,,,54,0
326830,note_off,190,0,4,,,,,,,,,4,,,57,0
326830,note_off,190,0,5,,,,,,,,,5,,,50,0
326880,note_on,50,0,5,,,,,,,,,5,,,50,63
326880,note_on,0,0,4,,,,,,,,,4,,,57,63
326880,note_on,50,0,4,,,,,,,,,4,,,54,63
327120,note_off,480,0,1,,,,,,,,,1,,,78,0
327120,note_on,0,0,1,,,,,,,,,1,,,76,62
327180,note_on,0,0,1,,,,,,,,,1,,,74,61
327180,note_off,60,0,1,,,,,,,,,1,,,76,0
327265,note_off,0,0,4,,,,,,,,,4,,,54,0
327265,note_off,385,0,5,,,,,,,,,5,,,50,0
327265,note_off,385,0,4,,,,,,,,,4,,,57,0
327345,note_off,165,0,1,,,,,,,,,1,,,74,0
327360,note_on,15,0,1,,,,,,,,,1,,,73,57
327420,note_off,60,0,1,,,,,,,,,1,,,73,0
327420,note_on,0,0,1,,,,,,,,,1,,,71,56
327600,note_on,180,0,1,,,,,,,,,1,,,70,52
327605,note_off,5,0,1,,,,,,,,,1,,,71,0
327660,note_off,55,0,1,,,,,,,,,1,,,70,0
327660,note_on,0,0,1,,,,,,,,,1,,,71,51
327780,set_tempo,1380,1,0,,,,,,895522,,,,,,,
327830,note_off,170,0,1,,,,,,,,,1,,,71,0
327840,note_on,10,0,1,,,,,,,,,1,,,62,67
327900,note_on,60,0,1,,,,,,,,,1,,,74,67
327960,note_off,60,0,1,,,,,,,,,1,,,62,0
328050,note_off,90,0,1,,,,,,,,,1,,,74,0
328080,note_on,30,0,1,,,,,,,,,1,,,74,69
328080,note_on,0,0,4,,,,,,,,,4,,,52,69
328080,note_on,815,0,5,,,,,,,,,5,,,47,69
328080,note_on,815,0,4,,,,,,,,,4,,,56,69
328270,note_off,190,0,5,,,,,,,,,5,,,47,0
328270,note_off,0,0,4,,,,,,,,,4,,,56,0
328270,note_off,190,0,4,,,,,,,,,4,,,52,0
328320,note_on,50,0,4,,,,,,,,,4,,,56,57
328320,note_on,50,0,5,,,,,,,,,5,,,47,57
328320,note_on,0,0,4,,,,,,,,,4,,,52,57
328560,note_off,480,0,1,,,,,,,,,1,,,74,0
328560,note_on,0,0,1,,,,,,,,,1,,,73,57
328620,note_on,0,0,1,,,,,,,,,1,,,71,56
328620,note_off,60,0,1,,,,,,,,,1,,,73,0
328705,note_off,385,0,5,,,,,,,,,5,,,47,0
328705,note_off,0,0,4,,,,,,,,,4,,,56,0
328705,note_off,385,0,4,,,,,,,,,4,,,52,0
328790,note_off,170,0,1,,,,,,,,,1,,,71,0
328800,note_on,10,0,1,,,,,,,,,1,,,69,53
328860,note_off,60,0,1,,,,,,,,,1,,,69,0
328860,note_on,0,0,1,,,,,,,,,1,,,68,52
329030,note_off,170,0,1,,,,,,,,,1,,,68,0
329040,note_on,10,0,1,,,,,,,,,1,,,66,50
329100,note_off,60,0,1,,,,,,,,,1,,,66,0
329100,note_on,0,0,1,,,,,,,,,1,,,64,49
329214,set_tempo,1434,1,0,,,,,,923076,,,,,,,
329265,note_off,165,0,1,,,,,,,,,1,,,64,0
329280,set_tempo,66,1,0,,,,,,895522,,,,,,,
329280,note_on,15,0,1,,,,,,,,,1,,,64,53
329520,note_on,0,0,1,,,,,,,,,1,,,76,59
329520,note_off,240,0,1,,,,,,,,,1,,,64,0
329760,note_on,1055,0,5,,,,,,,,,5,,,49,56
329760,note_on,0,0,4,,,,,,,,,4,,,52,56
329760,note_on,1055,0,4,,,,,,,,,4,,,57,56
329955,note_off,435,0,1,,,,,,,,,1,,,76,0
330000,note_on,45,0,1,,,,,,,,,1,,,69,54
330145,note_off,385,0,4,,,,,,,,,4,,,52,0
330145,note_off,385,0,5,,,,,,,,,5,,,49,0
330145,note_off,0,0,4,,,,,,,,,4,,,57,0
330240,note_on,95,0,4,,,,,,,,,4,,,57,52
330240,note_on,95,0,5,,,,,,,,,5,,,54,52
330240,note_on,0,0,1,,,,,,,,,1,,,81,52
330240,note_off,240,0,1,,,,,,,,,1,,,69,0
330480,note_on,0,0,1,,,,,,,,,1,,,78,50
330480,note_off,240,0,1,,,,,,,,,1,,,81,0
330625,note_off,385,0,4,,,,,,,,,4,,,57,0
330625,note_off,385,0,5,,,,,,,,,5,,,54,0
330666,set_tempo,1386,1,0,,,,,,923076,,,,,,,
330685,note_off,205,0,1,,,,,,,,,1,,,78,0
330720,note_on,35,0,1,,,,,,,,,1,,,73,48
330960,note_off,240,0,1,,,,,,,,,1,,,73,0
330960,note_on,0,0,1,,,,,,,,,1,,,76,52
331200,note_on,575,0,5,,,,,,,,,5,,,52,49
331200,note_on,575,0,4,,,,,,,,,4,,,56,49
331395,note_off,435,0,1,,,,,,,,,1,,,76,0
331440,note_on,45,0,1,,,,,,,,,1,,,75,47
331585,note_off,385,0,4,,,,,,,,,4,,,56,0
331585,note_off,385,0,5,,,,,,,,,5,,,52,0
331680,note_off,240,0,1,,,,,,,,,1,,,75,0
331680,note_on,0,0,1,,,,,,,,,1,,,74,44
331680,note_on,95,0,5,,,,,,,,,5,,,40,42
331920,note_on,0,0,1,,,,,,,,,1,,,71,41
331920,note_off,240,0,1,,,,,,,,,1,,,74,0
331920,set_tempo,1254,1,0,,,,,,1071428,,,,,,,
332040,set_tempo,120,1,0,,,,,,1111111,,,,,,,
332065,note_off,385,0,5,,,,,,,,,5,,,40,0
332125,note_off,205,0,1,,,,,,,,,1,,,71,0
332160,note_on,575,0,4,,,,,,,,,4,,,57,52
332160,note_on,35,0,1,,,,,,,,,1,,,73,52
332160,set_tempo,120,1,0,,,,,,869565,,,,,,,
332280,note_off,120,0,1,,,,,,,,,1,,,73,0
332280,note_on,5880,0,3,,,,,,,,,3,,,64,53
332280,note_on,0,0,1,,,,,,,,,1,,,76,53
332400,note_off,120,0,1,,,,,,,,,1,,,76,0
332400,note_on,0,0,1,,,,,,,,,1,,,78,54
332400,note_off,120,0,3,,,,,,,,,3,,,64,0
332400,note_on,0,0,3,,,,,,,,,3,,,61,54
332520,note_off,120,0,1,,,,,,,,,1,,,78,0
332520,note_on,0,0,1,,,,,,,,,1,,,80,55
332520,note_off,360,0,4,,,,,,,,,4,,,57,0
332520,note_off,120,0,3,,,,,,,,,3,,,61,0
332520,note_on,0,0,3,,,,,,,,,3,,,64,55
332640,note_on,120,0,4,,,,,,,,,4,,,57,56
332640,note_off,120,0,1,,,,,,,,,1,,,80,0
332640,note_on,0,0,1,,,,,,,,,1,,,81,56
332640,note_off,120,0,3,,,,,,,,,3,,,64,0
332760,note_on,120,0,3,,,,,,,,,3,,,64,57
332760,note_off,120,0,1,,,,,,,,,1,,,81,0
332760,note_on,0,0,1,,,,,,,,,1,,,83,57
332880,note_off,120,0,3,,,,,,,,,3,,,64,0
332880,note_off,120,0,1,,,,,,,,,1,,,83,0
332880,note_on,0,0,1,,,,,,,,,1,,,85,58
332880,note_on,0,0,3,,,,,,,,,3,,,61,58
333000,note_off,360,0,4,,,,,,,,,4,,,57,0
333000,note_on,0,0,3,,,,,,,,,3,,,64,58
333000,note_on,0,0,1,,,,,,,,,1,,,86,58
333000,note_off,120,0,1,,,,,,,,,1,,,85,0
333000,note_off,120,0,3,,,,,,,,,3,,,61,0
333120,note_off,120,0,3,,,,,,,,,3,,,64,0
333120,note_on,120,0,4,,,,,,,,,4,,,57,59
333120,note_on,120,0,1,,,,,,,,,1,,,88,59
333125,note_off,5,0,1,,,,,,,,,1,,,86,0
333240,note_on,0,0,1,,,,,,,,,1,,,85,60
333240,note_off,115,0,1,,,,,,,,,1,,,88,0
333240,note_on,120,0,3,,,,,,,,,3,,,64,60
333360,note_off,120,0,3,,,,,,,,,3,,,64,0
333360,note_on,0,0,3,,,,,,,,,3,,,61,61
333360,note_on,0,0,1,,,,,,,,,1,,,80,61
333360,note_off,120,0,1,,,,,,,,,1,,,85,0
333480,note_on,0,0,1,,,,,,,,,1,,,81,62
333480,note_off,360,0,4,,,,,,,,,4,,,57,0
333480,note_off,120,0,1,,,,,,,,,1,,,80,0
333480,note_on,0,0,3,,,,,,,,,3,,,64,62
333480,note_off,120,0,3,,,,,,,,,3,,,61,0
333580,note_off,100,0,1,,,,,,,,,1,,,81,0
333600,note_on,20,0,1,,,,,,,,,1,,,86,65
333600,note_off,120,0,3,,,,,,,,,3,,,64,0
333600,note_on,120,0,4,,,,,,,,,4,,,59,65
333720,note_off,120,0,1,,,,,,,,,1,,,86,0
333720,note_on,120,0,3,,,,,,,,,3,,,64,63
333720,note_on,0,0,1,,,,,,,,,1,,,83,63
333840,note_on,0,0,1,,,,,,,,,1,,,78,62
333840,note_off,120,0,3,,,,,,,,,3,,,64,0
333840,note_on,0,0,3,,,,,,,,,3,,,62,62
333840,note_off,120,0,1,,,,,,,,,1,,,83,0
333960,note_off,120,0,3,,,,,,,,,3,,,62,0
333960,note_on,0,0,1,,,,,,,,,1,,,80,60
333960,note_on,0,0,3,,,,,,,,,3,,,64,60
333960,note_off,120,0,1,,,,,,,,,1,,,78,0
333960,note_off,360,0,4,,,,,,,,,4,,,59,0
334060,note_off,100,0,1,,,,,,,,,1,,,80,0
334080,note_off,120,0,3,,,,,,,,,3,,,64,0
334080,note_on,20,0,1,,,,,,,,,1,,,83,59
334080,note_on,120,0,4,,,,,,,,,4,,,56,59
334200,note_on,120,0,3,,,,,,,,,3,,,64,57
334200,note_off,120,0,1,,,,,,,,,1,,,83,0
334200,note_on,0,0,1,,,,,,,,,1,,,80,57
334320,note_off,120,0,3,,,,,,,,,3,,,64,0
334320,note_on,0,0,3,,,,,,,,,3,,,59,55
334320,note_off,120,0,1,,,,,,,,,1,,,80,0
334320,note_on,0,0,1,,,,,,,,,1,,,75,55
334440,note_off,360,0,4,,,,,,,,,4,,,56,0
334440,note_on,0,0,1,,,,,,,,,1,,,76,54
334440,note_on,0,0,3,,,,,,,,,3,,,64,54
334440,note_off,120,0,3,,,,,,,,,3,,,59,0
334440,note_off,120,0,1,,,,,,,,,1,,,75,0
334545,note_off,105,0,1,,,,,,,,,1,,,76,0
334560,note_off,120,0,3,,,,,,,,,3,,,64,0
334560,note_on,120,0,4,,,,,,,,,4,,,52,52
334560,note_on,15,0,1,,,,,,,,,1,,,78,52
334680,note_on,120,0,3,,,,,,,,,3,,,64,51
334680,note_off,120,0,1,,,,,,,,,1,,,78,0
334680,note_on,0,0,1,,,,,,,,,1,,,74,51
334740,note_off,180,0,4,,,,,,,,,4,,,52,0
334800,note_on,60,0,4,,,,,,,,,4,,,56,49
334800,note_off,120,0,3,,,,,,,,,3,,,64,0
334800,note_off,120,0,1,,,,,,,,,1,,,74,0
334800,note_on,0,0,1,,,,,,,,,1,,,70,49
334920,note_on,0,0,1,,,,,,,,,1,,,71,48
334920,note_on,120,0,3,,,,,,,,,3,,,64,48
334920,note_off,120,0,1,,,,,,,,,1,,,70,0
334980,note_off,180,0,4,,,,,,,,,4,,,56,0
334986,set_tempo,2826,1,0,,,,,,895522,,,,,,,
335020,note_off,100,0,1,,,,,,,,,1,,,71,0
335025,note_off,105,0,3,,,,,,,,,3,,,64,0
335040,note_on,20,0,1,,,,,,,,,1,,,73,44
335040,set_tempo,54,1,0,,,,,,869565,,,,,,,
335040,note_on,60,0,4,,,,,,,,,4,,,57,44
335160,note_off,120,0,1,,,,,,,,,1,,,73,0
335160,note_on,135,0,3,,,,,,,,,3,,,64,45
335160,note_on,0,0,1,,,,,,,,,1,,,76,45
335280,note_off,120,0,3,,,,,,,,,3,,,64,0
335280,note_on,0,0,3,,,,,,,,,3,,,61,45
335280,note_off,120,0,1,,,,,,,,,1,,,76,0
335280,note_on,0,0,1,,,,,,,,,1,,,78,45
335400,note_off,120,0,1,,,,,,,,,1,,,78,0
335400,note_on,0,0,1,,,,,,,,,1,,,80,46
335400,note_off,120,0,3,,,,,,,,,3,,,61,0
335400,note_on,0,0,3,,,,,,,,,3,,,64,46
335400,note_off,360,0,4,,,,,,,,,4,,,57,0
335520,note_off,120,0,3,,,,,,,,,3,,,64,0
335520,note_on,120,0,4,,,,,,,,,4,,,57,47
335520,note_on,0,0,1,,,,,,,,,1,,,81,47
335520,note_off,120,0,1,,,,,,,,,1,,,80,0
335640,note_on,120,0,3,,,,,,,,,3,,,64,48
335640,note_on,0,0,1,,,,,,,,,1,,,83,48
335640,note_off,120,0,1,,,,,,,,,1,,,81,0
335760,note_off,120,0,3,,,,,,,,,3,,,64,0
335760,note_on,0,0,1,,,,,,,,,1,,,85,48
335760,note_off,120,0,1,,,,,,,,,1,,,83,0
335760,note_on,0,0,3,,,,,,,,,3,,,61,48
335880,note_on,0,0,3,,,,,,,,,3,,,64,49
335880,note_off,120,0,3,,,,,,,,,3,,,61,0
335880,note_off,360,0,4,,,,,,,,,4,,,57,0
335880,note_off,120,0,1,,,,,,,,,1,,,85,0
335880,note_on,0,0,1,,,,,,,,,1,,,86,49
336000,note_on,120,0,4,,,,,,,,,4,,,57,50
336000,note_off,120,0,1,,,,,,,,,1,,,86,0
336000,note_on,0,0,1,,,,,,,,,1,,,88,50
336000,note_off,120,0,3,,,,,,,,,3,,,64,0
336120,note_on,0,0,1,,,,,,,,,1,,,85,51
336120,note_off,120,0,1,,,,,,,,,1,,,88,0
336120,note_on,120,0,3,,,,,,,,,3,,,64,51
336240,note_on,0,0,1,,,,,,,,,1,,,80,52
336240,note_off,120,0,1,,,,,,,,,1,,,85,0
336240,note_off,120,0,3,,,,,,,,,3,,,64,0
336240,note_on,0,0,3,,,,,,,,,3,,,61,52
336360,note_on,0,0,3,,,,,,,,,3,,,64,52
336360,note_off,120,0,3,,,,,,,,,3,,,61,0
336360,note_on,0,0,1,,,,,,,,,1,,,81,52
336360,note_off,120,0,1,,,,,,,,,1,,,80,0
336360,note_off,360,0,4,,,,,,,,,4,,,57,0
336455,note_off,95,0,1,,,,,,,,,1,,,81,0
336480,note_off,120,0,3,,,,,,,,,3,,,64,0
336480,note_on,25,0,1,,,,,,,,,1,,,86,52
336480,note_on,120,0,4,,,,,,,,,4,,,59,52
336600,note_on,120,0,3,,,,,,,,,3,,,64,51
336600,note_on,0,0,1,,,,,,,,,1,,,83,51
336600,note_off,120,0,1,,,,,,,,,1,,,86,0
336720,note_on,0,0,3,,,,,,,,,3,,,62,50
336720,note_on,0,0,1,,,,,,,,,1,,,78,50
336720,note_off,120,0,3,,,,,,,,,3,,,64,0
336720,note_off,120,0,1,,,,,,,,,1,,,83,0
336840,note_on,0,0,1,,,,,,,,,1,,,80,49
336840,note_off,360,0,4,,,,,,,,,4,,,59,0
336840,note_off,120,0,3,,,,,,,,,3,,,62,0
336840,note_off,120,0,1,,,,,,,,,1,,,78,0
336840,note_on,0,0,3,,,,,,,,,3,,,64,49
336940,note_off,100,0,1,,,,,,,,,1,,,80,0
336960,note_on,120,0,4,,,,,,,,,4,,,56,47
336960,note_on,20,0,1,,,,,,,,,1,,,83,47
336960,note_off,120,0,3,,,,,,,,,3,,,64,0
337080,note_off,120,0,1,,,,,,,,,1,,,83,0
337080,note_on,120,0,3,,,,,,,,,3,,,64,46
337080,note_on,0,0,1,,,,,,,,,1,,,80,46
337200,note_off,120,0,1,,,,,,,,,1,,,80,0
337200,note_on,0,0,1,,,,,,,,,1,,,75,45
337200,note_on,0,0,3,,,,,,,,,3,,,59,45
337200,note_off,120,0,3,,,,,,,,,3,,,64,0
337320,note_off,120,0,3,,,,,,,,,3,,,59,0
337320,note_off,120,0,1,,,,,,,,,1,,,75,0
337320,note_on,0,0,1,,,,,,,,,1,,,76,43
337320,note_off,360,0,4,,,,,,,,,4,,,56,0
337320,note_on,0,0,3,,,,,,,,,3,,,64,43
337420,note_off,100,0,1,,,,,,,,,1,,,76,0
337440,note_on,120,0,4,,,,,,,,,4,,,52,42
337440,note_off,120,0,3,,,,,,,,,3,,,64,0
337440,note_on,20,0,1,,,,,,,,,1,,,78,42
337560,note_on,0,0,1,,,,,,,,,1,,,74,41
337560,note_off,120,0,1,,,,,,,,,1,,,78,0
337560,note_on,120,0,3,,,,,,,,,3,,,64,41
337680,note_off,120,0,3,,,,,,,,,3,,,64,0
337680,note_on,0,0,3,,,,,,,,,3,,,56,40
337680,note_on,0,0,1,,,,,,,,,1,,,70,40
337680,note_off,120,0,1,,,,,,,,,1,,,74,0
337800,note_off,120,0,3,,,,,,,,,3,,,56,0
337800,note_on,0,0,3,,,,,,,,,3,,,64,38
337800,note_off,360,0,4,,,,,,,,,4,,,52,0
337800,note_off,120,0,1,,,,,,,,,1,,,70,0
337800,note_on,0,0,1,,,,,,,,,1,,,71,38
337866,set_tempo,2826,1,0,,,,,,923076,,,,,,,
337900,note_off,100,0,1,,,,,,,,,1,,,71,0
337900,note_off,100,0,3,,,,,,,,,3,,,64,0
337920,note_on,20,0,1,,,,,,,,,1,,,73,46
337920,note_on,20,0,3,,,,,,,,,3,,,61,46
337920,set_tempo,54,1,0,,,,,,869565,,,,,,,
337920,note_on,5855,0,5,,,,,,,,,5,,,57,46
338040,note_off,120,0,1,,,,,,,,,1,,,73,0
338040,note_on,0,0,1,,,,,,,,,1,,,76,52
338160,note_on,0,0,1,,,,,,,,,1,,,81,60
338160,note_off,120,0,1,,,,,,,,,1,,,76,0
338280,note_on,0,0,1,,,,,,,,,1,,,80,56
338280,note_off,120,0,1,,,,,,,,,1,,,81,0
338305,note_off,385,0,5,,,,,,,,,5,,,57,0
338305,note_off,385,0,3,,,,,,,,,3,,,61,0
338380,note_off,100,0,1,,,,,,,,,1,,,80,0
338400,note_on,95,0,5,,,,,,,,,5,,,50,52
338400,note_on,20,0,1,,,,,,,,,1,,,80,52
338400,note_on,600,0,4,,,,,,,,,4,,,57,52
338520,note_off,120,0,1,,,,,,,,,1,,,80,0
338520,note_on,0,0,1,,,,,,,,,1,,,78,58
338640,note_off,120,0,1,,,,,,,,,1,,,78,0
338640,note_on,0,0,1,,,,,,,,,1,,,86,68
338760,note_off,120,0,1,,,,,,,,,1,,,86,0
338760,note_on,0,0,1,,,,,,,,,1,,,85,63
338785,note_off,385,0,4,,,,,,,,,4,,,57,0
338785,note_off,385,0,5,,,,,,,,,5,,,50,0
338855,note_off,95,0,1,,,,,,,,,1,,,85,0
338880,note_on,95,0,4,,,,,,,,,4,,,54,58
338880,note_on,25,0,1,,,,,,,,,1,,,85,58
338880,note_on,95,0,5,,,,,,,,,5,,,51,58
339000,note_off,120,0,1,,,,,,,,,1,,,85,0
339000,note_on,0,0,1,,,,,,,,,1,,,83,62
339095,note_off,95,0,1,,,,,,,,,1,,,83,0
339120,note_on,25,0,1,,,,,,,,,1,,,83,74
339240,note_on,0,0,1,,,,,,,,,1,,,81,70
339240,note_off,120,0,1,,,,,,,,,1,,,83,0
339265,note_off,385,0,4,,,,,,,,,4,,,54,0
339265,note_off,385,0,5,,,,,,,,,5,,,51,0
339300,set_tempo,1380,1,0,,,,,,895522,,,,,,,
339335,note_off,95,0,1,,,,,,,,,1,,,81,0
339360,note_on,95,0,4,,,,,,,,,4,,,56,67
339360,note_on,25,0,1,,,,,,,,,1,,,81,67
339360,note_on,95,0,5,,,,,,,,,5,,,52,67
339480,note_off,120,0,1,,,,,,,,,1,,,81,0
339480,note_on,0,0,1,,,,,,,,,1,,,80,64
339575,note_off,95,0,1,,,,,,,,,1,,,80,0
339600,note_on,25,0,1,,,,,,,,,1,,,80,61
339720,note_off,120,0,1,,,,,,,,,1,,,80,0
339720,note_on,0,0,1,,,,,,,,,1,,,78,58
339745,note_off,385,0,5,,,,,,,,,5,,,52,0
339745,note_off,385,0,4,,,,,,,,,4,,,56,0
339815,note_off,95,0,1,,,,,,,,,1,,,78,0
339840,note_on,95,0,5,,,,,,,,,5,,,54,56
339840,note_on,25,0,1,,,,,,,,,1,,,78,58
339840,note_on,95,0,4,,,,,,,,,4,,,57,56
339960,note_on,0,0,1,,,,,,,,,1,,,76,54
339960,note_off,120,0,1,,,,,,,,,1,,,78,0
340055,note_off,95,0,1,,,,,,,,,1,,,76,0
340080,note_on,25,0,1,,,,,,,,,1,,,76,50
340200,note_on,0,0,1,,,,,,,,,1,,,75,45
340200,note_off,120,0,1,,,,,,,,,1,,,76,0
340225,note_off,385,0,4,,,,,,,,,4,,,57,0
340225,note_off,385,0,5,,,,,,,,,5,,,54,0
340295,note_off,95,0,1,,,,,,,,,1,,,75,0
340674,set_tempo,1374,1,0,,,,,,923076,,,,,,,
340800,note_on,575,0,5,,,,,,,,,5,,,66,47
340800,note_on,575,0,4,,,,,,,,,4,,,69,47
340800,note_on,505,0,1,,,,,,,,,1,,,78,47
340920,note_off,120,0,1,,,,,,,,,1,,,78,0
340920,note_on,0,0,1,,,,,,,,,1,,,76,43
341015,note_off,95,0,1,,,,,,,,,1,,,76,0
341040,note_on,25,0,1,,,,,,,,,1,,,76,39
341160,note_on,0,0,1,,,,,,,,,1,,,75,36
341160,note_off,120,0,1,,,,,,,,,1,,,76,0
341185,note_off,385,0,4,,,,,,,,,4,,,69,0
341185,note_off,385,0,5,,,,,,,,,5,,,66,0
341255,note_off,95,0,1,,,,,,,,,1,,,75,0
341280,note_on,25,0,1,,,,,,,,,1,,,78,37
341280,note_on,95,0,4,,,,,,,,,4,,,71,37
341280,note_on,95,0,5,,,,,,,,,5,,,68,37
341400,note_off,120,0,1,,,,,,,,,1,,,78,0
341400,note_on,0,0,1,,,,,,,,,1,,,76,35
341495,note_off,95,0,1,,,,,,,,,1,,,76,0
341520,note_on,25,0,1,,,,,,,,,1,,,76,31
341640,note_off,120,0,1,,,,,,,,,1,,,76,0
341640,note_on,0,0,1,,,,,,,,,1,,,74,28
341665,note_off,385,0,5,,,,,,,,,5,,,68,0
341665,note_off,385,0,4,,,,,,,,,4,,,71,0
341730,note_off,90,0,1,,,,,,,,,1,,,74,0
342126,set_tempo,1452,1,0,,,,,,1034482,,,,,,,
342240,note_on,30530,0,2,,,,,,,,,2,,,72,75
342240,note_on,510,0,1,,,,,,,,,1,,,81,75
342240,note_on,0,0,5,,,,,,,,,5,,,69,75
342240,note_on,575,0,5,,,,,,,,,5,,,57,75
342360,note_on,0,0,5,,,,,,,,,5,,,55,73
342360,note_on,0,0,5,,,,,,,,,5,,,67,73
342360,note_off,0,0,5,,,,,,,,,5,,,57,0
342360,note_off,120,0,5,,,,,,,,,5,,,69,0
342455,note_off,95,0,5,,,,,,,,,5,,,67,0
342455,note_off,0,0,5,,,,,,,,,5,,,55,0
342480,note_on,25,0,5,,,,,,,,,5,,,55,71
342480,note_on,0,0,5,,,,,,,,,5,,,67,71
342600,note_off,120,0,5,,,,,,,,,5,,,67,0
342600,note_off,0,0,5,,,,,,,,,5,,,55,0
342600,note_on,0,0,5,,,,,,,,,5,,,65,69
342600,note_on,0,0,5,,,,,,,,,5,,,53,69
342625,note_off,385,0,1,,,,,,,,,1,,,81,0
342625,note_off,385,0,2,,,,,,,,,2,,,72,0
342695,note_off,95,0,5,,,,,,,,,5,,,53,0
342695,note_off,0,0,5,,,,,,,,,5,,,65,0
342720,note_on,25,0,5,,,,,,,,,5,,,53,67
342720,note_on,95,0,2,,,,,,,,,2,,,81,67
342720,note_on,95,0,1,,,,,,,,,1,,,84,67
342720,note_on,0,0,5,,,,,,,,,5,,,65,67
342840,note_off,120,0,5,,,,,,,,,5,,,65,0
342840,note_off,0,0,5,,,,,,,,,5,,,53,0
342840,note_on,0,0,5,,,,,,,,,5,,,52,65
342840,note_on,0,0,5,,,,,,,,,5,,,64,65
342935,note_off,95,0,5,,,,,,,,,5,,,64,0
342935,note_off,0,0,5,,,,,,,,,5,,,52,0
342960,note_on,25,0,5,,,,,,,,,5,,,52,63
342960,note_on,0,0,5,,,,,,,,,5,,,64,63
343080,note_off,120,0,5,,,,,,,,,5,,,64,0
343080,note_on,0,0,5,,,,,,,,,5,,,51,61
343080,note_on,0,0,5,,,,,,,,,5,,,63,61
343080,set_tempo,954,1,0,,,,,,1071428,,,,,,,
343080,note_off,0,0,5,,,,,,,,,5,,,52,0
343105,note_off,385,0,2,,,,,,,,,2,,,81,0
343105,note_off,385,0,1,,,,,,,,,1,,,84,0
343185,note_off,105,0,5,,,,,,,,,5,,,63,0
343185,note_off,0,0,5,,,,,,,,,5,,,51,0
343560,set_tempo,480,1,0,,,,,,1224489,,,,,,,
343680,note_on,2015,0,4,,,,,,,,,4,,,60,42
343680,note_on,575,0,2,,,,,,,,,2,,,69,42
343680,note_on,495,0,5,,,,,,,,,5,,,52,42
343680,note_on,575,0,1,,,,,,,,,1,,,75,42
344160,note_off,480,0,1,,,,,,,,,1,,,75,0
344160,note_off,480,0,2,,,,,,,,,2,,,69,0
344160,note_on,0,0,2,,,,,,,,,2,,,68,30
344160,note_on,0,0,4,,,,,,,,,4,,,59,30
344160,note_off,480,0,4,,,,,,,,,4,,,60,0
344160,note_on,0,0,1,,,,,,,,,1,,,76,30
344540,note_off,860,0,5,,,,,,,,,5,,,52,0
344545,note_off,385,0,4,,,,,,,,,4,,,59,0
344545,note_off,385,0,1,,,,,,,,,1,,,76,0
344545,note_off,385,0,2,,,,,,,,,2,,,68,0
344630,set_tempo,1070,1,0,,,,,,1500000,,,,,,,
345120,set_tempo,490,1,0,,,,,,869565,,,,,,,
345120,note_on,580,0,5,,,,,,,,,5,,,57,69
345120,note_on,575,0,1,,,,,,,,,1,,,69,69
345160,note_on,0,0,1,,,,,,,,,1,,,71,63
345160,note_off,40,0,1,,,,,,,,,1,,,69,0
345200,note_on,0,0,1,,,,,,,,,1,,,69,63
345200,note_off,40,0,1,,,,,,,,,1,,,71,0
345240,note_on,6935,0,3,,,,,,,,,3,,,64,65
345240,note_on,0,0,1,,,,,,,,,1,,,71,63
345240,note_off,40,0,1,,,,,,,,,1,,,69,0
345280,note_on,0,0,1,,,,,,,,,1,,,69,62
345280,note_off,40,0,1,,,,,,,,,1,,,71,0
345320,note_off,40,0,1,,,,,,,,,1,,,69,0
345320,note_on,0,0,1,,,,,,,,,1,,,71,62
345360,note_off,120,0,3,,,,,,,,,3,,,64,0
345360,note_on,0,0,3,,,,,,,,,3,,,61,64
345360,note_on,0,0,1,,,,,,,,,1,,,69,62
345360,note_off,40,0,1,,,,,,,,,1,,,71,0
345400,note_on,0,0,1,,,,,,,,,1,,,71,61
345400,note_off,40,0,1,,,,,,,,,1,,,69,0
345440,note_off,40,0,1,,,,,,,,,1,,,71,0
345440,note_on,0,0,1,,,,,,,,,1,,,69,61
345480,note_off,120,0,3,,,,,,,,,3,,,61,0
345480,note_on,0,0,3,,,,,,,,,3,,,64,63
345480,note_off,40,0,1,,,,,,,,,1,,,69,0
345480,note_off,360,0,5,,,,,,,,,5,,,57,0
345480,note_on,0,0,1,,,,,,,,,1,,,71,61
345520,note_off,40,0,1,,,,,,,,,1,,,71,0
345520,note_on,0,0,1,,,,,,,,,1,,,69,60
345560,note_off,40,0,1,,,,,,,,,1,,,69,0
345560,note_on,0,0,1,,,,,,,,,1,,,71,60
345600,note_off,40,0,1,,,,,,,,,1,,,71,0
345600,note_on,0,0,1,,,,,,,,,1,,,69,59
345600,note_on,120,0,5,,,,,,,,,5,,,57,63
345600,note_off,120,0,3,,,,,,,,,3,,,64,0
345640,note_off,40,0,1,,,,,,,,,1,,,69,0
345640,note_on,0,0,1,,,,,,,,,1,,,71,59
345680,note_off,40,0,1,,,,,,,,,1,,,71,0
345680,note_on,0,0,1,,,,,,,,,1,,,69,59
345720,note_on,120,0,3,,,,,,,,,3,,,64,62
345720,note_on,0,0,1,,,,,,,,,1,,,71,58
345720,note_off,40,0,1,,,,,,,,,1,,,69,0
345760,note_off,40,0,1,,,,,,,,,1,,,71,0
345760,note_on,0,0,1,,,,,,,,,1,,,69,58
345800,note_off,40,0,1,,,,,,,,,1,,,69,0
345800,note_on,0,0,1,,,,,,,,,1,,,71,58
345840,note_off,120,0,3,,,,,,,,,3,,,64,0
345840,note_on,0,0,3,,,,,,,,,3,,,61,61
345840,note_off,40,0,1,,,,,,,,,1,,,71,0
345840,note_on,0,0,1,,,,,,,,,1,,,69,57
345880,note_off,40,0,1,,,,,,,,,1,,,69,0
345880,note_on,0,0,1,,,,,,,,,1,,,71,57
345920,note_on,0,0,1,,,,,,,,,1,,,69,57
345920,note_off,40,0,1,,,,,,,,,1,,,71,0
345960,note_on,0,0,3,,,,,,,,,3,,,64,60
345960,note_on,0,0,1,,,,,,,,,1,,,68,56
345960,note_off,360,0,5,,,,,,,,,5,,,57,0
345960,note_off,120,0,3,,,,,,,,,3,,,61,0
345960,note_off,40,0,1,,,,,,,,,1,,,69,0
346020,note_off,60,0,1,,,,,,,,,1,,,68,0
346020,note_on,0,0,1,,,,,,,,,1,,,69,56
346080,note_on,120,0,5,,,,,,,,,5,,,52,60
346080,note_off,120,0,3,,,,,,,,,3,,,64,0
346080,note_on,0,0,1,,,,,,,,,1,,,68,60
346080,note_off,60,0,1,,,,,,,,,1,,,69,0
346140,note_on,0,0,1,,,,,,,,,1,,,64,59
346140,note_off,60,0,1,,,,,,,,,1,,,68,0
346200,note_on,0,0,1,,,,,,,,,1,,,71,59
346200,note_on,120,0,3,,,,,,,,,3,,,62,59
346200,note_off,60,0,1,,,,,,,,,1,,,64,0
346260,note_off,60,0,1,,,,,,,,,1,,,71,0
346260,note_on,0,0,1,,,,,,,,,1,,,68,58
346320,note_on,0,0,3,,,,,,,,,3,,,59,58
346320,note_on,0,0,1,,,,,,,,,1,,,74,58
346320,note_off,60,0,1,,,,,,,,,1,,,68,0
346320,note_off,120,0,3,,,,,,,,,3,,,62,0
346380,note_off,60,0,1,,,,,,,,,1,,,74,0
346380,note_on,0,0,1,,,,,,,,,1,,,71,58
346440,note_off,60,0,1,,,,,,,,,1,,,71,0
346440,note_on,0,0,1,,,,,,,,,1,,,69,57
346440,note_on,0,0,3,,,,,,,,,3,,,62,57
346440,note_off,120,0,3,,,,,,,,,3,,,59,0
346440,note_off,360,0,5,,,,,,,,,5,,,52,0
346500,note_off,60,0,1,,,,,,,,,1,,,69,0
346500,set_tempo,1380,1,0,,,,,,895522,,,,,,,
346500,note_on,0,0,1,,,,,,,,,1,,,68,57
346560,note_on,120,0,5,,,,,,,,,5,,,57,56
346560,note_on,0,0,3,,,,,,,,,3,,,61,56
346560,note_off,120,0,3,,,,,,,,,3,,,62,0
346560,note_on,0,0,1,,,,,,,,,1,,,69,56
346560,note_off,60,0,1,,,,,,,,,1,,,68,0
346656,note_off,96,0,5,,,,,,,,,5,,,57,0
346656,note_off,96,0,1,,,,,,,,,1,,,69,0
346656,note_off,96,0,3,,,,,,,,,3,,,61,0
346680,note_on,2135,0,4,,,,,,,,,4,,,64,51
346680,note_on,24,0,5,,,,,,,,,5,,,61,51
346800,note_on,0,0,5,,,,,,,,,5,,,60,50
346800,note_off,120,0,4,,,,,,,,,4,,,64,0
346800,note_on,0,0,4,,,,,,,,,4,,,63,50
346800,note_off,120,0,5,,,,,,,,,5,,,61,0
346920,note_off,120,0,4,,,,,,,,,4,,,63,0
346920,note_off,120,0,5,,,,,,,,,5,,,60,0
346920,note_on,0,0,5,,,,,,,,,5,,,61,50
346920,note_on,0,0,4,,,,,,,,,4,,,64,50
347040,note_on,0,0,5,,,,,,,,,5,,,62,49
347040,note_off,120,0,5,,,,,,,,,5,,,61,0
347040,note_on,0,0,4,,,,,,,,,4,,,66,49
347040,note_off,120,0,4,,,,,,,,,4,,,64,0
347160,note_on,0,0,5,,,,,,,,,5,,,61,48
347160,note_off,120,0,5,,,,,,,,,5,,,62,0
347160,note_on,0,0,4,,,,,,,,,4,,,64,48
347160,note_off,120,0,4,,,,,,,,,4,,,66,0
347280,note_off,120,0,4,,,,,,,,,4,,,64,0
347280,note_on,0,0,4,,,,,,,,,4,,,63,48
347280,note_on,0,0,5,,,,,,,,,5,,,60,48
347280,note_off,120,0,5,,,,,,,,,5,,,61,0
347400,note_on,0,0,5,,,,,,,,,5,,,61,47
347400,note_off,120,0,4,,,,,,,,,4,,,63,0
347400,note_on,0,0,4,,,,,,,,,4,,,64,47
347400,note_off,120,0,5,,,,,,,,,5,,,60,0
347520,note_on,0,0,5,,,,,,,,,5,,,59,46
347520,note_off,120,0,5,,,,,,,,,5,,,61,0
347520,note_on,0,0,4,,,,,,,,,4,,,62,46
347520,note_off,120,0,4,,,,,,,,,4,,,64,0
347640,note_off,120,0,5,,,,,,,,,5,,,59,0
347640,note_on,0,0,4,,,,,,,,,4,,,61,45
347640,note_off,120,0,4,,,,,,,,,4,,,62,0
347640,note_on,0,0,5,,,,,,,,,5,,,57,45
347760,note_on,0,0,4,,,,,,,,,4,,,60,45
347760,note_off,120,0,4,,,,,,,,,4,,,61,0
347760,note_on,0,0,5,,,,,,,,,5,,,56,45
347760,note_off,120,0,5,,,,,,,,,5,,,57,0
347880,note_on,0,0,4,,,,,,,,,4,,,61,44
347880,note_off,120,0,4,,,,,,,,,4,,,60,0
347880,note_on,0,0,5,,,,,,,,,5,,,57,44
347880,note_off,120,0,5,,,,,,,,,5,,,56,0
347940,set_tempo,1440,1,0,,,,,,967741,,,,,,,
347976,note_off,96,0,4,,,,,,,,,4,,,61,0
347976,note_off,96,0,5,,,,,,,,,5,,,57,0
348000,note_on,24,0,5,,,,,,,,,5,,,52,61
348000,note_on,1344,0,1,,,,,,,,,1,,,71,61
348000,set_tempo,60,1,0,,,,,,869565,,,,,,,
348040,note_off,40,0,1,,,,,,,,,1,,,71,0
348040,note_on,0,0,1,,,,,,,,,1,,,73,57
348080,note_on,0,0,1,,,,,,,,,1,,,71,57
348080,note_off,40,0,1,,,,,,,,,1,,,73,0
348120,note_off,40,0,1,,,,,,,,,1,,,71,0
348120,note_on,1464,0,3,,,,,,,,,3,,,59,59
348120,note_on,0,0,1,,,,,,,,,1,,,73,56
348160,note_on,0,0,1,,,,,,,,,1,,,71,56
348160,note_off,40,0,1,,,,,,,,,1,,,73,0
348200,note_off,40,0,1,,,,,,,,,1,,,71,0
348200,note_on,0,0,1,,,,,,,,,1,,,73,56
348240,note_off,120,0,3,,,,,,,,,3,,,59,0
348240,note_on,0,0,3,,,,,,,,,3,,,56,58
348240,note_off,40,0,1,,,,,,,,,1,,,73,0
348240,note_on,0,0,1,,,,,,,,,1,,,71,55
348280,note_off,40,0,1,,,,,,,,,1,,,71,0
348280,note_on,0,0,1,,,,,,,,,1,,,73,55
348320,note_off,40,0,1,,,,,,,,,1,,,73,0
348320,note_on,0,0,1,,,,,,,,,1,,,71,54
348360,note_off,40,0,1,,,,,,,,,1,,,71,0
348360,note_on,0,0,1,,,,,,,,,1,,,73,54
348360,note_on,0,0,3,,,,,,,,,3,,,59,58
348360,note_off,120,0,3,,,,,,,,,3,,,56,0
348360,note_off,360,0,5,,,,,,,,,5,,,52,0
348400,note_off,40,0,1,,,,,,,,,1,,,73,0
348400,note_on,0,0,1,,,,,,,,,1,,,71,53
348440,note_off,40,0,1,,,,,,,,,1,,,71,0
348440,note_on,0,0,1,,,,,,,,,1,,,73,53
348480,note_off,120,0,3,,,,,,,,,3,,,59,0
348480,note_off,40,0,1,,,,,,,,,1,,,73,0
348480,note_on,0,0,1,,,,,,,,,1,,,71,52
348480,note_on,120,0,5,,,,,,,,,5,,,52,57
348520,note_off,40,0,1,,,,,,,,,1,,,71,0
348520,note_on,0,0,1,,,,,,,,,1,,,73,52
348560,note_off,40,0,1,,,,,,,,,1,,,73,0
348560,note_on,0,0,1,,,,,,,,,1,,,71,52
348600,note_off,40,0,1,,,,,,,,,1,,,71,0
348600,note_on,120,0,3,,,,,,,,,3,,,59,56
348600,note_on,0,0,1,,,,,,,,,1,,,73,51
348640,note_on,0,0,1,,,,,,,,,1,,,71,51
348640,note_off,40,0,1,,,,,,,,,1,,,73,0
348680,note_off,40,0,1,,,,,,,,,1,,,71,0
348680,note_on,0,0,1,,,,,,,,,1,,,73,50
348720,note_on,0,0,3,,,,,,,,,3,,,56,56
348720,note_off,40,0,1,,,,,,,,,1,,,73,0
348720,note_on,0,0,1,,,,,,,,,1,,,71,50
348720,note_off,120,0,3,,,,,,,,,3,,,59,0
348760,note_off,40,0,1,,,,,,,,,1,,,71,0
348760,note_on,0,0,1,,,,,,,,,1,,,73,49
348800,note_off,40,0,1,,,,,,,,,1,,,73,0
348800,note_on,0,0,1,,,,,,,,,1,,,71,49
348840,note_off,360,0,5,,,,,,,,,5,,,52,0
348840,note_on,0,0,3,,,,,,,,,3,,,59,55
348840,note_off,120,0,3,,,,,,,,,3,,,56,0
348840,note_off,40,0,1,,,,,,,,,1,,,71,0
348840,note_on,0,0,1,,,,,,,,,1,,,70,48
348900,note_on,0,0,1,,,,,,,,,1,,,71,48
348900,note_off,60,0,1,,,,,,,,,1,,,70,0
348960,note_on,120,0,5,,,,,,,,,5,,,52,54
348960,note_off,120,0,3,,,,,,,,,3,,,59,0
348960,note_on,0,0,1,,,,,,,,,1,,,73,54
348960,note_off,60,0,1,,,,,,,,,1,,,71,0
349020,note_on,0,0,1,,,,,,,,,1,,,69,54
349020,note_off,60,0,1,,,,,,,,,1,,,73,0
349080,note_on,120,0,3,,,,,,,,,3,,,61,54
349080,note_on,0,0,1,,,,,,,,,1,,,76,54
349080,note_off,60,0,1,,,,,,,,,1,,,69,0
349140,note_off,60,0,1,,,,,,,,,1,,,76,0
349140,note_on,0,0,1,,,,,,,,,1,,,73,53
349200,note_on,0,0,3,,,,,,,,,3,,,57,53
349200,note_off,120,0,3,,,,,,,,,3,,,61,0
349200,note_off,60,0,1,,,,,,,,,1,,,73,0
349200,note_on,0,0,1,,,,,,,,,1,,,81,53
349260,note_off,60,0,1,,,,,,,,,1,,,81,0
349260,note_on,0,0,1,,,,,,,,,1,,,76,53
349320,note_on,0,0,1,,,,,,,,,1,,,73,52
349320,note_on,0,0,3,,,,,,,,,3,,,61,52
349320,note_off,120,0,3,,,,,,,,,3,,,57,0
349320,note_off,60,0,1,,,,,,,,,1,,,76,0
349320,note_off,360,0,5,,,,,,,,,5,,,52,0
349380,note_off,60,0,1,,,,,,,,,1,,,73,0
349380,note_on,0,0,1,,,,,,,,,1,,,69,52
349380,set_tempo,1380,1,0,,,,,,895522,,,,,,,
349440,note_off,120,0,3,,,,,,,,,3,,,61,0
349440,note_on,120,0,5,,,,,,,,,5,,,56,52
349440,note_on,0,0,1,,,,,,,,,1,,,74,52
349440,note_off,60,0,1,,,,,,,,,1,,,69,0
349536,note_off,96,0,5,,,,,,,,,5,,,56,0
349536,note_off,96,0,1,,,,,,,,,1,,,74,0
349560,note_on,1584,0,4,,,,,,,,,4,,,62,45
349560,note_on,24,0,5,,,,,,,,,5,,,59,45
349680,note_off,120,0,5,,,,,,,,,5,,,59,0
349680,note_off,120,0,4,,,,,,,,,4,,,62,0
349680,note_on,0,0,5,,,,,,,,,5,,,58,44
349680,note_on,0,0,4,,,,,,,,,4,,,61,44
349800,note_off,120,0,5,,,,,,,,,5,,,58,0
349800,note_on,0,0,5,,,,,,,,,5,,,59,43
349800,note_off,120,0,4,,,,,,,,,4,,,61,0
349800,note_on,0,0,4,,,,,,,,,4,,,62,43
349920,note_off,120,0,5,,,,,,,,,5,,,59,0
349920,note_on,0,0,5,,,,,,,,,5,,,61,42
349920,note_on,0,0,4,,,,,,,,,4,,,64,42
349920,note_off,120,0,4,,,,,,,,,4,,,62,0
350040,note_off,120,0,5,,,,,,,,,5,,,61,0
350040,note_on,0,0,4,,,,,,,,,4,,,62,41
350040,note_off,120,0,4,,,,,,,,,4,,,64,0
350040,note_on,0,0,5,,,,,,,,,5,,,59,41
350160,note_on,0,0,4,,,,,,,,,4,,,61,40
350160,note_off,120,0,5,,,,,,,,,5,,,59,0
350160,note_on,0,0,5,,,,,,,,,5,,,58,40
350160,note_off,120,0,4,,,,,,,,,4,,,62,0
350280,note_on,0,0,5,,,,,,,,,5,,,59,39
350280,note_off,120,0,5,,,,,,,,,5,,,58,0
350280,note_off,120,0,4,,,,,,,,,4,,,61,0
350280,note_on,0,0,4,,,,,,,,,4,,,62,39
350400,note_on,0,0,5,,,,,,,,,5,,,57,38
350400,note_off,120,0,5,,,,,,,,,5,,,59,0
350400,note_on,0,0,4,,,,,,,,,4,,,61,38
350400,note_off,120,0,4,,,,,,,,,4,,,62,0
350520,note_on,0,0,5,,,,,,,,,5,,,56,38
350520,note_on,0,0,4,,,,,,,,,4,,,59,38
350520,note_off,120,0,4,,,,,,,,,4,,,61,0
350520,note_off,120,0,5,,,,,,,,,5,,,57,0
350640,note_off,120,0,5,,,,,,,,,5,,,56,0
350640,note_on,0,0,5,,,,,,,,,5,,,55,37
350640,note_on,0,0,4,,,,,,,,,4,,,58,37
350640,note_off,120,0,4,,,,,,,,,4,,,59,0
350760,note_on,0,0,4,,,,,,,,,4,,,59,36
350760,note_on,0,0,5,,,,,,,,,5,,,56,36
350760,note_off,120,0,5,,,,,,,,,5,,,55,0
350760,note_off,120,0,4,,,,,,,,,4,,,58,0
350820,set_tempo,1440,1,0,,,,,,1000000,,,,,,,
350856,note_off,96,0,5,,,,,,,,,5,,,56,0
350856,note_off,96,0,4,,,,,,,,,4,,,59,0
350880,note_on,24,0,5,,,,,,,,,5,,,61,38
350880,note_on,1344,0,1,,,,,,,,,1,,,76,38
350880,set_tempo,60,1,0,,,,,,869565,,,,,,,
351000,note_on,1560,0,3,,,,,,,,,3,,,69,39
351120,note_on,0,0,3,,,,,,,,,3,,,64,41
351120,note_off,120,0,3,,,,,,,,,3,,,69,0
351240,note_on,0,0,3,,,,,,,,,3,,,69,43
351240,note_off,120,0,3,,,,,,,,,3,,,64,0
351240,note_off,360,0,5,,,,,,,,,5,,,61,0
351360,note_off,480,0,1,,,,,,,,,1,,,76,0
351360,note_on,120,0,5,,,,,,,,,5,,,61,46
351360,note_off,120,0,3,,,,,,,,,3,,,69,0
351360,note_on,0,0,1,,,,,,,,,1,,,78,46
351440,note_off,80,0,1,,,,,,,,,1,,,78,0
351440,note_on,0,0,1,,,,,,,,,1,,,76,47
351480,note_on,120,0,3,,,,,,,,,3,,,69,48
351520,note_off,80,0,1,,,,,,,,,1,,,76,0
351520,note_on,0,0,1,,,,,,,,,1,,,75,48
351600,note_off,80,0,1,,,,,,,,,1,,,75,0
351600,note_on,0,0,1,,,,,,,,,1,,,76,50
351600,note_on,0,0,3,,,,,,,,,3,,,64,50
351600,note_off,120,0,3,,,,,,,,,3,,,69,0
351720,note_on,0,0,3,,,,,,,,,3,,,69,52
351720,note_on,0,0,1,,,,,,,,,1,,,78,52
351720,note_off,360,0,5,,,,,,,,,5,,,61,0
351720,note_off,120,0,1,,,,,,,,,1,,,76,0
351720,note_off,120,0,3,,,,,,,,,3,,,64,0
351816,note_off,96,0,1,,,,,,,,,1,,,78,0
351840,note_on,120,0,5,,,,,,,,,5,,,59,57
351840,note_on,24,0,1,,,,,,,,,1,,,76,57
351840,note_off,120,0,3,,,,,,,,,3,,,69,0
351960,note_on,120,0,3,,,,,,,,,3,,,68,54
352080,note_on,0,0,1,,,,,,,,,1,,,74,52
352080,note_off,240,0,1,,,,,,,,,1,,,76,0
352080,note_on,0,0,3,,,,,,,,,3,,,64,52
352080,note_off,120,0,3,,,,,,,,,3,,,68,0
352200,note_on,0,0,3,,,,,,,,,3,,,68,50
352200,note_off,120,0,3,,,,,,,,,3,,,64,0
352200,note_off,360,0,5,,,,,,,,,5,,,59,0
352260,set_tempo,1380,1,0,,,,,,895522,,,,,,,
352272,note_off,192,0,1,,,,,,,,,1,,,74,0
352296,note_off,96,0,3,,,,,,,,,3,,,68,0
352320,note_on,120,0,5,,,,,,,,,5,,,57,46
352320,note_on,48,0,1,,,,,,,,,1,,,73,46
352320,set_tempo,60,1,0,,,,,,869565,,,,,,,
352440,note_on,144,0,3,,,,,,,,,3,,,69,49
352560,note_off,120,0,3,,,,,,,,,3,,,69,0
352560,note_on,0,0,3,,,,,,,,,3,,,64,51
352680,note_off,120,0,3,,,,,,,,,3,,,64,0
352680,note_on,0,0,3,,,,,,,,,3,,,69,53
352680,note_off,360,0,5,,,,,,,,,5,,,57,0
352800,note_on,0,0,1,,,,,,,,,1,,,74,55
352800,note_off,480,0,1,,,,,,,,,1,,,73,0
352800,note_off,120,0,3,,,,,,,,,3,,,69,0
352800,note_on,120,0,5,,,,,,,,,5,,,57,55
352880,note_off,80,0,1,,,,,,,,,1,,,74,0
352880,note_on,0,0,1,,,,,,,,,1,,,73,56
352920,note_on,120,0,3,,,,,,,,,3,,,64,57
352960,note_off,80,0,1,,,,,,,,,1,,,73,0
352960,note_on,0,0,1,,,,,,,,,1,,,71,58
353040,note_off,120,0,3,,,,,,,,,3,,,64,0
353040,note_on,0,0,3,,,,,,,,,3,,,61,59
353040,note_off,80,0,1,,,,,,,,,1,,,71,0
353040,note_on,0,0,1,,,,,,,,,1,,,73,59
353160,note_off,120,0,3,,,,,,,,,3,,,61,0
353160,note_off,360,0,5,,,,,,,,,5,,,57,0
353160,note_off,120,0,1,,,,,,,,,1,,,73,0
353160,note_on,0,0,1,,,,,,,,,1,,,76,61
353160,note_on,0,0,3,,,,,,,,,3,,,64,61
353256,note_off,96,0,1,,,,,,,,,1,,,76,0
353280,note_on,24,0,1,,,,,,,,,1,,,69,66
353280,note_on,120,0,5,,,,,,,,,5,,,50,63
353280,note_off,120,0,3,,,,,,,,,3,,,64,0
353400,note_on,120,0,3,,,,,,,,,3,,,59,62
353460,note_off,180,0,5,,,,,,,,,5,,,50,0
353520,note_off,240,0,1,,,,,,,,,1,,,69,0
353520,note_on,0,0,1,,,,,,,,,1,,,68,59
353520,note_off,120,0,3,,,,,,,,,3,,,59,0
353520,note_on,60,0,5,,,,,,,,,5,,,52,59
353640,note_on,120,0,3,,,,,,,,,3,,,59,57
353700,set_tempo,1380,1,0,,,,,,923076,,,,,,,
353700,note_off,180,0,5,,,,,,,,,5,,,52,0
353712,note_off,192,0,1,,,,,,,,,1,,,68,0
353736,note_off,96,0,3,,,,,,,,,3,,,59,0
353760,note_on,60,0,5,,,,,,,,,5,,,49,67
353760,set_tempo,60,1,0,,,,,,869565,,,,,,,
353760,note_on,2904,0,4,,,,,,,,,4,,,57,67
353760,note_on,0,0,4,,,,,,,,,4,,,52,67
353760,note_on,48,0,1,,,,,,,,,1,,,69,67
353940,note_off,180,0,1,,,,,,,,,1,,,69,0
353940,note_on,0,0,1,,,,,,,,,1,,,71,65
354000,note_off,60,0,1,,,,,,,,,1,,,71,0
354000,note_on,0,0,1,,,,,,,,,1,,,69,64
354180,note_on,0,0,1,,,,,,,,,1,,,68,61
354180,note_off,180,0,1,,,,,,,,,1,,,69,0
354240,note_off,60,0,1,,,,,,,,,1,,,68,0
354240,note_off,480,0,4,,,,,,,,,4,,,52,0
354240,note_off,480,0,5,,,,,,,,,5,,,49,0
354240,note_off,0,0,4,,,,,,,,,4,,,57,0
354240,note_on,0,0,1,,,,,,,,,1,,,69,60
354384,note_off,144,0,1,,,,,,,,,1,,,69,0
354420,note_on,9875,0,2,,,,,,,,,2,,,64,58
354480,note_on,240,0,5,,,,,,,,,5,,,50,57
354480,note_on,0,0,2,,,,,,,,,2,,,68,57
354480,note_off,60,0,2,,,,,,,,,2,,,64,0
354480,note_on,240,0,4,,,,,,,,,4,,,62,57
354480,note_on,96,0,1,,,,,,,,,1,,,71,57
354660,note_off,180,0,2,,,,,,,,,2,,,68,0
354660,note_off,180,0,1,,,,,,,,,1,,,71,0
354660,note_on,0,0,2,,,,,,,,,2,,,64,60
354720,note_on,60,0,1,,,,,,,,,1,,,73,61
354720,note_on,0,0,5,,,,,,,,,5,,,49,61
354720,note_off,240,0,5,,,,,,,,,5,,,50,0
354720,note_on,0,0,2,,,,,,,,,2,,,69,61
354720,note_on,0,0,4,,,,,,,,,4,,,61,61
354720,note_off,240,0,4,,,,,,,,,4,,,62,0
354720,note_off,60,0,2,,,,,,,,,2,,,64,0
354900,note_off,180,0,2,,,,,,,,,2,,,69,0
354900,note_on,0,0,2,,,,,,,,,2,,,64,66
354900,note_off,180,0,1,,,,,,,,,1,,,73,0
354960,note_off,240,0,4,,,,,,,,,4,,,61,0
354960,note_off,240,0,5,,,,,,,,,5,,,49,0
354960,note_on,0,0,5,,,,,,,,,5,,,47,67
354960,note_off,60,0,2,,,,,,,,,2,,,64,0
354960,note_on,60,0,1,,,,,,,,,1,,,74,67
354960,note_on,0,0,2,,,,,,,,,2,,,71,67
354960,note_on,0,0,4,,,,,,,,,4,,,59,67
355140,set_tempo,1380,1,0,,,,,,895522,,,,,,,
355140,note_off,180,0,1,,,,,,,,,1,,,74,0
355140,note_on,0,0,2,,,,,,,,,2,,,64,72
355140,note_off,180,0,2,,,,,,,,,2,,,71,0
355200,note_on,0,0,4,,,,,,,,,4,,,57,73
355200,note_on,0,0,2,,,,,,,,,2,,,73,73
355200,note_off,240,0,4,,,,,,,,,4,,,59,0
355200,note_off,240,0,5,,,,,,,,,5,,,47,0
355200,note_on,0,0,5,,,,,,,,,5,,,45,73
355200,note_on,60,0,1,,,,,,,,,1,,,76,73
355200,note_off,60,0,2,,,,,,,,,2,,,64,0
355356,note_off,156,0,5,,,,,,,,,5,,,45,0
355356,note_off,156,0,4,,,,,,,,,4,,,57,0
355440,note_on,84,0,5,,,,,,,,,5,,,37,71
355440,note_on,84,0,4,,,,,,,,,4,,,49,71
355596,note_off,156,0,4,,,,,,,,,4,,,49,0
355596,note_off,156,0,5,,,,,,,,,5,,,37,0
355620,set_tempo,480,1,0,,,,,,923076,,,,,,,
355680,note_on,84,0,5,,,,,,,,,5,,,40,66
355680,note_on,84,0,4,,,,,,,,,4,,,52,66
355800,note_off,600,0,1,,,,,,,,,1,,,76,0
355800,note_on,0,0,1,,,,,,,,,1,,,75,66
355807,note_off,607,0,2,,,,,,,,,2,,,73,0
355860,note_off,60,0,1,,,,,,,,,1,,,75,0
355860,note_on,0,0,1,,,,,,,,,1,,,76,62
355920,note_off,60,0,1,,,,,,,,,1,,,76,0
355920,note_on,0,0,1,,,,,,,,,1,,,78,59
355980,note_off,60,0,1,,,,,,,,,1,,,78,0
355980,note_on,0,0,1,,,,,,,,,1,,,76,55
356040,note_off,60,0,1,,,,,,,,,1,,,76,0
356040,note_on,0,0,1,,,,,,,,,1,,,74,52
356100,note_off,60,0,1,,,,,,,,,1,,,74,0
356100,note_on,0,0,1,,,,,,,,,1,,,73,49
356160,set_tempo,540,1,0,,,,,,952380,,,,,,,
356160,note_off,60,0,1,,,,,,,,,1,,,73,0
356160,note_on,0,0,1,,,,,,,,,1,,,71,45
356400,note_off,240,0,1,,,,,,,,,1,,,71,0
356640,note_off,960,0,4,,,,,,,,,4,,,52,0
356640,note_off,960,0,5,,,,,,,,,5,,,40,0
356640,note_on,833,0,2,,,,,,,,,2,,,61,56
356640,note_on,0,0,5,,,,,,,,,5,,,45,56
356640,set_tempo,480,1,0,,,,,,869565,,,,,,,
356640,note_on,0,0,5,,,,,,,,,5,,,57,56
356720,note_on,320,0,1,,,,,,,,,1,,,69,56
356760,note_off,120,0,2,,,,,,,,,2,,,61,0
356800,note_on,40,0,2,,,,,,,,,2,,,64,57
356840,note_off,120,0,1,,,,,,,,,1,,,69,0
356880,note_on,0,0,2,,,,,,,,,2,,,61,57
356880,note_off,80,0,2,,,,,,,,,2,,,64,0
356960,note_on,120,0,1,,,,,,,,,1,,,69,58
357000,note_off,360,0,5,,,,,,,,,5,,,57,0
357000,note_off,0,0,5,,,,,,,,,5,,,45,0
357000,note_off,120,0,2,,,,,,,,,2,,,61,0
357040,note_on,40,0,2,,,,,,,,,2,,,64,58
357080,note_off,120,0,1,,,,,,,,,1,,,69,0
357120,note_on,0,0,5,,,,,,,,,5,,,37,58
357120,note_on,0,0,2,,,,,,,,,2,,,61,58
357120,note_off,80,0,2,,,,,,,,,2,,,64,0
357120,note_on,120,0,5,,,,,,,,,5,,,49,58
357200,note_on,120,0,1,,,,,,,,,1,,,69,59
357240,note_off,120,0,2,,,,,,,,,2,,,61,0
357280,note_on,40,0,2,,,,,,,,,2,,,64,59
357320,note_off,120,0,1,,,,,,,,,1,,,69,0
357360,note_on,0,0,2,,,,,,,,,2,,,61,60
357360,note_off,80,0,2,,,,,,,,,2,,,64,0
357440,note_on,120,0,1,,,,,,,,,1,,,69,60
357480,note_off,0,0,5,,,,,,,,,5,,,49,0
357480,note_off,120,0,2,,,,,,,,,2,,,61,0
357480,note_off,360,0,5,,,,,,,,,5,,,37,0
357520,note_on,40,0,2,,,,,,,,,2,,,64,61
357560,note_off,120,0,1,,,,,,,,,1,,,69,0
357600,note_off,80,0,2,,,,,,,,,2,,,64,0
357600,note_on,0,0,2,,,,,,,,,2,,,62,61
357600,note_on,0,0,5,,,,,,,,,5,,,40,61
357600,note_on,120,0,5,,,,,,,,,5,,,52,61
357680,note_on,120,0,1,,,,,,,,,1,,,71,62
357720,note_off,120,0,2,,,,,,,,,2,,,62,0
357760,note_on,40,0,2,,,,,,,,,2,,,64,62
357800,note_off,120,0,1,,,,,,,,,1,,,71,0
357840,note_off,80,0,2,,,,,,,,,2,,,64,0
357840,note_on,0,0,2,,,,,,,,,2,,,62,62
357920,note_on,120,0,1,,,,,,,,,1,,,68,63
357960,note_off,120,0,2,,,,,,,,,2,,,62,0
357960,note_off,0,0,5,,,,,,,,,5,,,52,0
357960,note_off,360,0,5,,,,,,,,,5,,,40,0
358000,note_on,40,0,2,,,,,,,,,2,,,64,63
358020,set_tempo,1380,1,0,,,,,,895522,,,,,,,
358040,note_off,120,0,1,,,,,,,,,1,,,68,0
358064,note_off,64,0,2,,,,,,,,,2,,,64,0
358080,note_on,120,0,5,,,,,,,,,5,,,57,48
358080,note_on,40,0,1,,,,,,,,,1,,,69,48
358160,note_on,4424,0,3,,,,,,,,,3,,,64,48
358236,note_off,156,0,1,,,,,,,,,1,,,69,0
358240,note_off,80,0,3,,,,,,,,,3,,,64,0
358240,note_on,0,0,3,,,,,,,,,3,,,61,48
358260,note_off,180,0,5,,,,,,,,,5,,,57,0
358320,note_on,60,0,5,,,,,,,,,5,,,59,49
358320,note_off,80,0,3,,,,,,,,,3,,,61,0
358400,note_on,80,0,3,,,,,,,,,3,,,64,49
358480,note_on,0,0,3,,,,,,,,,3,,,62,49
358480,note_off,80,0,3,,,,,,,,,3,,,64,0
358500,note_off,180,0,5,,,,,,,,,5,,,59,0
358500,note_on,264,0,1,,,,,,,,,1,,,68,49
358539,note_off,39,0,1,,,,,,,,,1,,,68,0
358560,note_on,21,0,1,,,,,,,,,1,,,69,50
358560,note_on,60,0,5,,,,,,,,,5,,,57,50
358560,note_off,80,0,3,,,,,,,,,3,,,62,0
358640,note_on,80,0,3,,,,,,,,,3,,,64,50
358716,note_off,156,0,1,,,,,,,,,1,,,69,0
358720,note_off,80,0,3,,,,,,,,,3,,,64,0
358720,note_on,0,0,3,,,,,,,,,3,,,61,50
358740,note_off,180,0,5,,,,,,,,,5,,,57,0
358800,note_off,80,0,3,,,,,,,,,3,,,61,0
358800,note_on,60,0,5,,,,,,,,,5,,,56,51
358880,note_on,80,0,3,,,,,,,,,3,,,64,51
358960,note_off,80,0,3,,,,,,,,,3,,,64,0
358960,note_on,0,0,3,,,,,,,,,3,,,59,51
358980,note_off,180,0,5,,,,,,,,,5,,,56,0
358980,note_on,264,0,1,,,,,,,,,1,,,71,51
359019,note_off,39,0,1,,,,,,,,,1,,,71,0
359040,note_on,60,0,5,,,,,,,,,5,,,57,52
359040,note_on,21,0,1,,,,,,,,,1,,,73,52
359040,note_off,80,0,3,,,,,,,,,3,,,59,0
359120,note_on,80,0,3,,,,,,,,,3,,,64,52
359196,note_off,156,0,1,,,,,,,,,1,,,73,0
359200,note_on,0,0,3,,,,,,,,,3,,,61,52
359200,note_off,80,0,3,,,,,,,,,3,,,64,0
359220,note_off,180,0,5,,,,,,,,,5,,,57,0
359280,note_off,80,0,3,,,,,,,,,3,,,61,0
359280,note_on,60,0,5,,,,,,,,,5,,,57,52
359360,note_on,80,0,3,,,,,,,,,3,,,64,53
359440,note_on,0,0,3,,,,,,,,,3,,,61,53
359440,note_off,80,0,3,,,,,,,,,3,,,64,0
359460,set_tempo,1440,1,0,,,,,,952380,,,,,,,
359460,note_off,180,0,5,,,,,,,,,5,,,57,0
359504,note_off,64,0,3,,,,,,,,,3,,,61,0
359520,note_on,1456,0,2,,,,,,,,,2,,,62,66
359520,set_tempo,60,1,0,,,,,,869565,,,,,,,
359520,note_on,0,0,5,,,,,,,,,5,,,44,66
359520,note_on,60,0,5,,,,,,,,,5,,,56,66
359600,note_on,404,0,1,,,,,,,,,1,,,71,66
359640,note_off,120,0,2,,,,,,,,,2,,,62,0
359680,note_on,40,0,2,,,,,,,,,2,,,64,67
359720,note_off,120,0,1,,,,,,,,,1,,,71,0
359760,note_on,0,0,2,,,,,,,,,2,,,62,67
359760,note_off,80,0,2,,,,,,,,,2,,,64,0
359840,note_on,120,0,1,,,,,,,,,1,,,71,68
359880,note_off,120,0,2,,,,,,,,,2,,,62,0
359880,note_off,0,0,5,,,,,,,,,5,,,56,0
359880,note_off,360,0,5,,,,,,,,,5,,,44,0
359920,note_on,40,0,2,,,,,,,,,2,,,64,68
359960,note_off,120,0,1,,,,,,,,,1,,,71,0
360000,note_on,0,0,2,,,,,,,,,2,,,62,68
360000,note_on,0,0,5,,,,,,,,,5,,,52,68
360000,note_on,120,0,5,,,,,,,,,5,,,40,68
360000,note_off,80,0,2,,,,,,,,,2,,,64,0
360080,note_on,120,0,1,,,,,,,,,1,,,71,69
360120,note_off,120,0,2,,,,,,,,,2,,,62,0
360160,note_on,40,0,2,,,,,,,,,2,,,64,69
360200,note_off,120,0,1,,,,,,,,,1,,,71,0
360240,note_on,0,0,2,,,,,,,,,2,,,62,70
360240,note_off,80,0,2,,,,,,,,,2,,,64,0
360320,note_on,120,0,1,,,,,,,,,1,,,68,70
360360,note_off,360,0,5,,,,,,,,,5,,,52,0
360360,note_off,0,0,5,,,,,,,,,5,,,40,0
360360,note_off,120,0,2,,,,,,,,,2,,,62,0
360400,note_on,40,0,2,,,,,,,,,2,,,64,71
360440,note_off,120,0,1,,,,,,,,,1,,,68,0
360480,note_on,120,0,5,,,,,,,,,5,,,57,71
360480,note_on,0,0,5,,,,,,,,,5,,,45,71
360480,note_on,0,0,2,,,,,,,,,2,,,61,71
360480,note_off,80,0,2,,,,,,,,,2,,,64,0
360560,note_on,120,0,1,,,,,,,,,1,,,69,72
360600,note_off,120,0,2,,,,,,,,,2,,,61,0
360640,note_on,40,0,2,,,,,,,,,2,,,64,72
360680,note_off,120,0,1,,,,,,,,,1,,,69,0
360720,note_on,0,0,2,,,,,,,,,2,,,61,73
360720,note_off,80,0,2,,,,,,,,,2,,,64,0
360800,note_on,120,0,1,,,,,,,,,1,,,73,73
360840,note_off,360,0,5,,,,,,,,,5,,,45,0
360840,note_off,120,0,2,,,,,,,,,2,,,61,0
360840,note_off,0,0,5,,,,,,,,,5,,,57,0
360880,note_on,40,0,2,,,,,,,,,2,,,69,73
360900,set_tempo,1380,1,0,,,,,,895522,,,,,,,
360920,note_off,120,0,1,,,,,,,,,1,,,73,0
360944,note_off,64,0,2,,,,,,,,,2,,,69,0
360960,note_on,40,0,1,,,,,,,,,1,,,71,59
360960,note_on,120,0,5,,,,,,,,,5,,,56,59
361040,note_on,1536,0,3,,,,,,,,,3,,,64,60
361116,note_off,156,0,1,,,,,,,,,1,,,71,0
361120,note_on,0,0,3,,,,,,,,,3,,,59,60
361120,note_off,80,0,3,,,,,,,,,3,,,64,0
361140,note_off,180,0,5,,,,,,,,,5,,,56,0
361200,note_off,80,0,3,,,,,,,,,3,,,59,0
361200,note_on,60,0,5,,,,,,,,,5,,,57,60
361280,note_on,80,0,3,,,,,,,,,3,,,64,60
361360,note_off,80,0,3,,,,,,,,,3,,,64,0
361360,note_on,0,0,3,,,,,,,,,3,,,61,61
361380,note_on,264,0,1,,,,,,,,,1,,,69,61
361380,note_off,180,0,5,,,,,,,,,5,,,57,0
361419,note_off,39,0,1,,,,,,,,,1,,,69,0
361440,note_off,80,0,3,,,,,,,,,3,,,61,0
361440,note_on,60,0,5,,,,,,,,,5,,,59,61
361440,note_on,21,0,1,,,,,,,,,1,,,68,61
361520,note_on,80,0,3,,,,,,,,,3,,,64,61
361596,note_off,156,0,1,,,,,,,,,1,,,68,0
361600,note_on,0,0,3,,,,,,,,,3,,,62,62
361600,note_off,80,0,3,,,,,,,,,3,,,64,0
361620,note_off,180,0,5,,,,,,,,,5,,,59,0
361680,note_on,60,0,5,,,,,,,,,5,,,57,62
361680,note_off,80,0,3,,,,,,,,,3,,,62,0
361760,note_on,80,0,3,,,,,,,,,3,,,64,62
361840,note_on,0,0,3,,,,,,,,,3,,,61,63
361840,note_off,80,0,3,,,,,,,,,3,,,64,0
361860,note_on,264,0,1,,,,,,,,,1,,,69,63
361860,note_off,180,0,5,,,,,,,,,5,,,57,0
361899,note_off,39,0,1,,,,,,,,,1,,,69,0
361920,note_off,80,0,3,,,,,,,,,3,,,61,0
361920,note_on,21,0,1,,,,,,,,,1,,,74,63
361920,note_on,60,0,5,,,,,,,,,5,,,56,63
362000,note_on,80,0,3,,,,,,,,,3,,,64,63
362076,note_off,156,0,1,,,,,,,,,1,,,74,0
362080,note_on,0,0,3,,,,,,,,,3,,,59,64
362080,note_off,80,0,3,,,,,,,,,3,,,64,0
362100,note_off,180,0,5,,,,,,,,,5,,,56,0
362160,note_off,80,0,3,,,,,,,,,3,,,59,0
362160,note_on,60,0,5,,,,,,,,,5,,,52,64
362240,note_on,80,0,3,,,,,,,,,3,,,64,64
362320,note_on,0,0,3,,,,,,,,,3,,,56,65
362320,note_off,80,0,3,,,,,,,,,3,,,64,0
362340,set_tempo,1440,1,0,,,,,,967741,,,,,,,
362340,note_off,180,0,5,,,,,,,,,5,,,52,0
362384,note_off,64,0,3,,,,,,,,,3,,,56,0
362400,set_tempo,60,1,0,,,,,,869565,,,,,,,
362400,note_on,0,0,5,,,,,,,,,5,,,61,65
362400,note_on,60,0,5,,,,,,,,,5,,,49,65
362520,note_on,1576,0,2,,,,,,,,,2,,,76,65
362520,note_on,444,0,1,,,,,,,,,1,,,88,65
362592,note_off,0,0,5,,,,,,,,,5,,,49,0
362592,note_off,192,0,5,,,,,,,,,5,,,61,0
362640,note_on,0,0,1,,,,,,,,,1,,,87,65
362640,note_off,120,0,1,,,,,,,,,1,,,88,0
362640,note_off,120,0,2,,,,,,,,,2,,,76,0
362640,note_on,0,0,2,,,,,,,,,2,,,75,65
362760,note_on,0,0,1,,,,,,,,,1,,,88,64
362760,note_off,120,0,1,,,,,,,,,1,,,87,0
362760,note_off,120,0,2,,,,,,,,,2,,,75,0
362760,note_on,0,0,2,,,,,,,,,2,,,76,64
362856,note_off,96,0,2,,,,,,,,,2,,,76,0
362856,note_off,96,0,1,,,,,,,,,1,,,88,0
362880,note_on,0,0,5,,,,,,,,,5,,,61,64
362880,note_on,288,0,5,,,,,,,,,5,,,49,64
363000,note_on,144,0,2,,,,,,,,,2,,,69,63
363000,note_on,144,0,1,,,,,,,,,1,,,81,63
363072,note_off,192,0,5,,,,,,,,,5,,,61,0
363072,note_off,0,0,5,,,,,,,,,5,,,49,0
363120,note_off,120,0,2,,,,,,,,,2,,,69,0
363120,note_on,0,0,2,,,,,,,,,2,,,68,63
363120,note_off,120,0,1,,,,,,,,,1,,,81,0
363120,note_on,0,0,1,,,,,,,,,1,,,80,63
363240,note_off,120,0,1,,,,,,,,,1,,,80,0
363240,note_on,0,0,1,,,,,,,,,1,,,81,62
363240,note_off,120,0,2,,,,,,,,,2,,,68,0
363240,note_on,0,0,2,,,,,,,,,2,,,69,62
363336,note_off,96,0,2,,,,,,,,,2,,,69,0
363336,note_off,96,0,1,,,,,,,,,1,,,81,0
363360,note_on,0,0,5,,,,,,,,,5,,,59,77
363360,note_on,288,0,5,,,,,,,,,5,,,47,77
363480,note_on,144,0,1,,,,,,,,,1,,,80,73
363480,note_on,144,0,2,,,,,,,,,2,,,68,73
363552,note_off,0,0,5,,,,,,,,,5,,,47,0
363552,note_off,192,0,5,,,,,,,,,5,,,59,0
363600,note_on,0,0,2,,,,,,,,,2,,,71,70
363600,note_off,120,0,2,,,,,,,,,2,,,68,0
363600,note_on,0,0,1,,,,,,,,,1,,,83,70
363600,note_off,120,0,1,,,,,,,,,1,,,80,0
363720,note_on,0,0,2,,,,,,,,,2,,,74,67
363720,note_off,120,0,1,,,,,,,,,1,,,83,0
363720,note_on,0,0,1,,,,,,,,,1,,,86,67
363720,note_off,120,0,2,,,,,,,,,2,,,71,0
363780,set_tempo,1380,1,0,,,,,,895522,,,,,,,
363816,note_off,96,0,1,,,,,,,,,1,,,86,0
363816,note_off,96,0,2,,,,,,,,,2,,,74,0
363840,set_tempo,60,1,0,,,,,,869565,,,,,,,
363840,note_on,288,0,5,,,,,,,,,5,,,57,64
363840,note_on,0,0,5,,,,,,,,,5,,,45,64
363960,note_on,144,0,2,,,,,,,,,2,,,73,60
363960,note_on,144,0,1,,,,,,,,,1,,,85,60
364032,note_off,192,0,5,,,,,,,,,5,,,45,0
364032,note_off,0,0,5,,,,,,,,,5,,,57,0
364080,note_on,0,0,2,,,,,,,,,2,,,72,59
364080,note_off,120,0,2,,,,,,,,,2,,,73,0
364080,note_off,120,0,1,,,,,,,,,1,,,85,0
364080,note_on,0,0,1,,,,,,,,,1,,,84,59
364200,note_off,120,0,2,,,,,,,,,2,,,72,0
364200,note_off,120,0,1,,,,,,,,,1,,,84,0
364200,note_on,0,0,2,,,,,,,,,2,,,73,59
364200,note_on,0,0,1,,,,,,,,,1,,,85,59
364296,note_off,96,0,1,,,,,,,,,1,,,85,0
364296,note_off,96,0,2,,,,,,,,,2,,,73,0
364320,note_on,0,0,5,,,,,,,,,5,,,45,58
364320,note_on,288,0,5,,,,,,,,,5,,,57,58
364440,note_on,144,0,1,,,,,,,,,1,,,88,58
364440,note_on,144,0,2,,,,,,,,,2,,,76,58
364512,note_off,192,0,5,,,,,,,,,5,,,45,0
364512,note_off,0,0,5,,,,,,,,,5,,,57,0
364560,note_off,120,0,1,,,,,,,,,1,,,88,0
364560,note_on,0,0,1,,,,,,,,,1,,,87,58
364560,note_off,120,0,2,,,,,,,,,2,,,76,0
364560,note_on,0,0,2,,,,,,,,,2,,,75,58
364680,note_on,0,0,1,,,,,,,,,1,,,88,57
364680,note_off,120,0,1,,,,,,,,,1,,,87,0
364680,note_on,0,0,2,,,,,,,,,2,,,76,57
364680,note_off,120,0,2,,,,,,,,,2,,,75,0
364776,note_off,96,0,1,,,,,,,,,1,,,88,0
364776,note_off,96,0,2,,,,,,,,,2,,,76,0
364800,note_on,0,0,5,,,,,,,,,5,,,50,66
364800,note_on,288,0,5,,,,,,,,,5,,,62,66
364920,note_on,144,0,2,,,,,,,,,2,,,64,63
364920,note_on,144,0,1,,,,,,,,,1,,,76,63
364992,note_off,192,0,5,,,,,,,,,5,,,50,0
364992,note_off,0,0,5,,,,,,,,,5,,,62,0
365040,note_off,120,0,1,,,,,,,,,1,,,76,0
365040,note_on,0,0,1,,,,,,,,,1,,,80,59
365040,note_on,0,0,2,,,,,,,,,2,,,68,59
365040,note_off,120,0,2,,,,,,,,,2,,,64,0
365160,note_off,120,0,2,,,,,,,,,2,,,68,0
365160,note_on,0,0,1,,,,,,,,,1,,,83,55
365160,note_on,0,0,2,,,,,,,,,2,,,71,55
365160,note_off,120,0,1,,,,,,,,,1,,,80,0
365220,set_tempo,1380,1,0,,,,,,895522,,,,,,,
365256,note_off,96,0,1,,,,,,,,,1,,,83,0
365256,note_off,96,0,2,,,,,,,,,2,,,71,0
365280,note_on,24,0,1,,,,,,,,,1,,,81,51
365280,set_tempo,60,1,0,,,,,,869565,,,,,,,
365320,note_off,40,0,1,,,,,,,,,1,,,81,0
365320,note_on,0,0,1,,,,,,,,,1,,,83,51
365360,note_off,40,0,1,,,,,,,,,1,,,83,0
365360,note_on,0,0,1,,,,,,,,,1,,,81,52
365400,note_off,40,0,1,,,,,,,,,1,,,81,0
365400,note_on,0,0,1,,,,,,,,,1,,,80,53
365460,note_off,60,0,1,,,,,,,,,1,,,80,0
365460,note_on,0,0,1,,,,,,,,,1,,,81,55
365520,note_on,528,0,5,,,,,,,,,5,,,49,54
365520,note_on,0,0,4,,,,,,,,,4,,,52,54
365520,note_off,60,0,1,,,,,,,,,1,,,81,0
365520,note_on,0,0,1,,,,,,,,,1,,,85,56
365520,note_on,8880,0,4,,,,,,,,,4,,,57,54
365640,note_off,120,0,1,,,,,,,,,1,,,85,0
365700,note_on,60,0,1,,,,,,,,,1,,,76,53
365712,note_off,192,0,5,,,,,,,,,5,,,49,0
365712,note_off,0,0,4,,,,,,,,,4,,,57,0
365712,note_off,192,0,4,,,,,,,,,4,,,52,0
365760,note_on,0,0,1,,,,,,,,,1,,,78,48
365760,note_off,60,0,1,,,,,,,,,1,,,76,0
365800,note_on,0,0,1,,,,,,,,,1,,,80,49
365800,note_off,40,0,1,,,,,,,,,1,,,78,0
365840,note_on,0,0,1,,,,,,,,,1,,,78,50
365840,note_off,40,0,1,,,,,,,,,1,,,80,0
365880,note_on,0,0,1,,,,,,,,,1,,,77,51
365880,note_off,40,0,1,,,,,,,,,1,,,78,0
365940,note_on,0,0,1,,,,,,,,,1,,,78,53
365940,note_off,60,0,1,,,,,,,,,1,,,77,0
366000,note_off,60,0,1,,,,,,,,,1,,,78,0
366000,note_on,288,0,5,,,,,,,,,5,,,50,52
366000,note_on,0,0,4,,,,,,,,,4,,,57,52
366000,note_on,288,0,4,,,,,,,,,4,,,54,52
366000,note_on,0,0,1,,,,,,,,,1,,,81,55
366120,note_off,120,0,1,,,,,,,,,1,,,81,0
366180,note_on,60,0,1,,,,,,,,,1,,,73,52
366192,note_off,192,0,5,,,,,,,,,5,,,50,0
366192,note_off,192,0,4,,,,,,,,,4,,,57,0
366192,note_off,0,0,4,,,,,,,,,4,,,54,0
366240,note_off,60,0,1,,,,,,,,,1,,,73,0
366240,note_on,0,0,1,,,,,,,,,1,,,74,46
366280,note_on,0,0,1,,,,,,,,,1,,,76,47
366280,note_off,40,0,1,,,,,,,,,1,,,74,0
366320,note_on,0,0,1,,,,,,,,,1,,,74,47
366320,note_off,40,0,1,,,,,,,,,1,,,76,0
366360,note_on,0,0,1,,,,,,,,,1,,,73,48
366360,note_off,40,0,1,,,,,,,,,1,,,74,0
366420,note_on,0,0,1,,,,,,,,,1,,,74,49
366420,note_off,60,0,1,,,,,,,,,1,,,73,0
366480,note_on,0,0,1,,,,,,,,,1,,,78,50
366480,note_off,60,0,1,,,,,,,,,1,,,74,0
366480,note_on,0,0,4,,,,,,,,,4,,,62,51
366480,note_on,288,0,5,,,,,,,,,5,,,54,51
366480,note_on,288,0,4,,,,,,,,,4,,,57,51
366600,note_off,120,0,1,,,,,,,,,1,,,78,0
366660,note_on,60,0,1,,,,,,,,,1,,,71,50
366660,set_tempo,1380,1,0,,,,,,923076,,,,,,,
366672,note_off,192,0,4,,,,,,,,,4,,,62,0
366672,note_off,0,0,4,,,,,,,,,4,,,57,0
366672,note_off,192,0,5,,,,,,,,,5,,,54,0
366720,note_on,0,0,1,,,,,,,,,1,,,73,65
366720,note_on,48,0,4,,,,,,,,,4,,,61,65
366720,note_on,0,0,4,,,,,,,,,4,,,57,65
366720,note_on,48,0,5,,,,,,,,,5,,,52,65
366720,set_tempo,60,1,0,,,,,,869565,,,,,,,
366720,note_off,60,0,1,,,,,,,,,1,,,71,0
366800,note_off,80,0,1,,,,,,,,,1,,,73,0
366800,note_on,0,0,1,,,,,,,,,1,,,69,62
366880,note_off,80,0,1,,,,,,,,,1,,,69,0
366880,note_on,0,0,1,,,,,,,,,1,,,76,61
366960,note_off,240,0,4,,,,,,,,,4,,,57,0
366960,note_on,0,0,4,,,,,,,,,4,,,62,60
366960,note_off,0,0,4,,,,,,,,,4,,,61,0
366960,note_off,80,0,1,,,,,,,,,1,,,76,0
366960,note_on,0,0,1,,,,,,,,,1,,,74,60
366960,note_on,0,0,4,,,,,,,,,4,,,59,60
367040,note_off,80,0,1,,,,,,,,,1,,,74,0
367040,note_on,0,0,1,,,,,,,,,1,,,71,59
367120,note_off,80,0,1,,,,,,,,,1,,,71,0
367120,note_on,0,0,1,,,,,,,,,1,,,68,58
367152,note_off,0,0,4,,,,,,,,,4,,,62,0
367152,note_off,192,0,4,,,,,,,,,4,,,59,0
367155,note_off,435,0,5,,,,,,,,,5,,,52,0
367184,note_off,64,0,1,,,,,,,,,1,,,68,0
367200,note_on,16,0,1,,,,,,,,,1,,,68,56
367200,note_on,45,0,5,,,,,,,,,5,,,53,56
367200,note_on,0,0,4,,,,,,,,,4,,,62,56
367200,note_on,48,0,4,,,,,,,,,4,,,59,56
367680,note_on,0,0,4,,,,,,,,,4,,,61,49
367680,note_on,0,0,4,,,,,,,,,4,,,57,49
367680,note_off,0,0,4,,,,,,,,,4,,,59,0
367680,note_off,480,0,4,,,,,,,,,4,,,62,0
367680,note_off,480,0,1,,,,,,,,,1,,,68,0
367680,note_on,0,0,5,,,,,,,,,5,,,54,49
367680,note_on,0,0,1,,,,,,,,,1,,,69,49
367680,note_off,480,0,5,,,,,,,,,5,,,53,0
367920,note_off,0,0,4,,,,,,,,,4,,,57,0
367920,note_off,240,0,5,,,,,,,,,5,,,54,0
367920,note_on,0,0,1,,,,,,,,,1,,,67,45
367920,note_off,240,0,1,,,,,,,,,1,,,69,0
367920,note_on,0,0,5,,,,,,,,,5,,,52,45
367920,note_on,0,0,4,,,,,,,,,4,,,58,45
367920,note_off,240,0,4,,,,,,,,,4,,,61,0
367920,note_on,0,0,4,,,,,,,,,4,,,61,45
368076,note_off,156,0,1,,,,,,,,,1,,,67,0
368076,note_off,156,0,4,,,,,,,,,4,,,58,0
368076,note_off,0,0,4,,,,,,,,,4,,,61,0
368076,note_off,156,0,5,,,,,,,,,5,,,52,0
368100,set_tempo,1380,1,0,,,,,,895522,,,,,,,
368160,note_on,84,0,1,,,,,,,,,1,,,66,45
368160,note_on,0,0,4,,,,,,,,,4,,,54,45
368160,note_on,84,0,4,,,,,,,,,4,,,59,45
368160,note_on,84,0,5,,,,,,,,,5,,,50,45
368352,note_off,192,0,5,,,,,,,,,5,,,50,0
368352,note_off,0,0,4,,,,,,,,,4,,,59,0
368352,note_off,192,0,4,,,,,,,,,4,,,54,0
368400,note_off,240,0,1,,,,,,,,,1,,,66,0
368400,note_on,0,0,1,,,,,,,,,1,,,78,49
368592,note_off,192,0,1,,,,,,,,,1,,,78,0
368640,note_on,0,0,4,,,,,,,,,4,,,59,47
368640,note_on,288,0,4,,,,,,,,,4,,,56,47
368640,note_on,288,0,5,,,,,,,,,5,,,52,47
368832,note_off,0,0,4,,,,,,,,,4,,,56,0
368832,note_off,192,0,4,,,,,,,,,4,,,59,0
368832,note_off,192,0,5,,,,,,,,,5,,,52,0
368880,note_on,288,0,1,,,,,,,,,1,,,76,45
369000,note_off,120,0,1,,,,,,,,,1,,,76,0
369000,note_on,0,0,1,,,,,,,,,1,,,74,43
369096,note_off,96,0,1,,,,,,,,,1,,,74,0
369120,note_on,288,0,4,,,,,,,,,4,,,56,43
369120,note_on,0,0,4,,,,,,,,,4,,,62,43
369120,note_on,288,0,5,,,,,,,,,5,,,52,43
369312,note_off,192,0,5,,,,,,,,,5,,,52,0
369312,note_off,192,0,4,,,,,,,,,4,,,62,0
369312,note_off,0,0,4,,,,,,,,,4,,,56,0
369360,note_on,264,0,1,,,,,,,,,1,,,73,41
369480,note_off,120,0,1,,,,,,,,,1,,,73,0
369480,note_on,0,0,1,,,,,,,,,1,,,71,40
369540,set_tempo,1440,1,0,,,,,,923076,,,,,,,
369576,note_off,96,0,1,,,,,,,,,1,,,71,0
369600,note_on,288,0,5,,,,,,,,,5,,,52,49
369600,set_tempo,60,1,0,,,,,,869565,,,,,,,
369600,note_on,288,0,4,,,,,,,,,4,,,57,49
369600,note_on,0,0,4,,,,,,,,,4,,,61,49
369600,note_on,24,0,1,,,,,,,,,1,,,73,49
369680,note_off,80,0,1,,,,,,,,,1,,,73,0
369680,note_on,0,0,1,,,,,,,,,1,,,69,48
369760,note_on,0,0,1,,,,,,,,,1,,,76,47
369760,note_off,80,0,1,,,,,,,,,1,,,69,0
369840,note_on,0,0,1,,,,,,,,,1,,,74,47
369840,note_off,80,0,1,,,,,,,,,1,,,76,0
369840,note_on,0,0,4,,,,,,,,,4,,,59,47
369840,note_off,0,0,4,,,,,,,,,4,,,57,0
369840,note_off,240,0,4,,,,,,,,,4,,,61,0
369840,note_on,0,0,4,,,,,,,,,4,,,62,47
369920,note_off,80,0,1,,,,,,,,,1,,,74,0
369920,note_on,0,0,1,,,,,,,,,1,,,71,46
370000,note_on,0,0,1,,,,,,,,,1,,,68,45
370000,note_off,80,0,1,,,,,,,,,1,,,71,0
370032,note_off,192,0,4,,,,,,,,,4,,,62,0
370032,note_off,0,0,4,,,,,,,,,4,,,59,0
370035,note_off,435,0,5,,,,,,,,,5,,,52,0
370064,note_off,64,0,1,,,,,,,,,1,,,68,0
370080,note_on,45,0,5,,,,,,,,,5,,,53,44
370080,note_on,48,0,4,,,,,,,,,4,,,62,44
370080,note_on,0,0,4,,,,,,,,,4,,,59,44
370080,note_on,16,0,1,,,,,,,,,1,,,68,44
370560,note_off,0,0,4,,,,,,,,,4,,,62,0
370560,note_off,480,0,4,,,,,,,,,4,,,59,0
370560,note_on,0,0,5,,,,,,,,,5,,,54,39
370560,note_off,480,0,5,,,,,,,,,5,,,53,0
370560,note_on,0,0,4,,,,,,,,,4,,,61,39
370560,note_off,480,0,1,,,,,,,,,1,,,68,0
370560,note_on,0,0,4,,,,,,,,,4,,,57,39
370560,note_on,0,0,1,,,,,,,,,1,,,69,39
370800,note_on,0,0,1,,,,,,,,,1,,,67,36
370800,note_on,0,0,5,,,,,,,,,5,,,52,36
370800,note_off,240,0,5,,,,,,,,,5,,,54,0
370800,note_on,0,0,4,,,,,,,,,4,,,58,36
370800,note_off,0,0,4,,,,,,,,,4,,,61,0
370800,note_off,240,0,4,,,,,,,,,4,,,57,0
370800,note_on,0,0,4,,,,,,,,,4,,,61,36
370800,note_off,240,0,1,,,,,,,,,1,,,69,0
370956,note_off,156,0,5,,,,,,,,,5,,,52,0
370956,note_off,156,0,4,,,,,,,,,4,,,61,0
370956,note_off,0,0,4,,,,,,,,,4,,,58,0
370956,note_off,156,0,1,,,,,,,,,1,,,67,0
370980,set_tempo,1380,1,0,,,,,,895522,,,,,,,
371040,note_on,84,0,5,,,,,,,,,5,,,50,37
371040,note_on,84,0,1,,,,,,,,,1,,,66,37
371040,note_on,0,0,4,,,,,,,,,4,,,54,37
371040,note_on,84,0,4,,,,,,,,,4,,,59,37
371232,note_off,192,0,5,,,,,,,,,5,,,50,0
371232,note_off,192,0,4,,,,,,,,,4,,,54,0
371232,note_off,0,0,4,,,,,,,,,4,,,59,0
371280,note_off,240,0,1,,,,,,,,,1,,,66,0
371280,note_on,0,0,1,,,,,,,,,1,,,78,39
371472,note_off,192,0,1,,,,,,,,,1,,,78,0
371520,note_on,6264,0,2,,,,,,,,,2,,,58,37
371520,note_on,288,0,5,,,,,,,,,5,,,50,37
371640,note_off,120,0,2,,,,,,,,,2,,,58,0
371640,note_on,0,0,2,,,,,,,,,2,,,59,34
371712,note_off,192,0,5,,,,,,,,,5,,,50,0
371736,note_off,96,0,2,,,,,,,,,2,,,59,0
371760,note_on,288,0,1,,,,,,,,,1,,,76,35
371880,note_on,0,0,1,,,,,,,,,1,,,74,33
371880,note_off,120,0,1,,,,,,,,,1,,,76,0
371976,note_off,96,0,1,,,,,,,,,1,,,74,0
372000,note_on,264,0,2,,,,,,,,,2,,,61,32
372000,note_on,288,0,5,,,,,,,,,5,,,50,32
372120,note_off,120,0,2,,,,,,,,,2,,,61,0
372120,note_on,0,0,2,,,,,,,,,2,,,62,31
372192,note_off,192,0,5,,,,,,,,,5,,,50,0
372216,note_off,96,0,2,,,,,,,,,2,,,62,0
372240,note_on,264,0,1,,,,,,,,,1,,,73,30
372360,note_off,120,0,1,,,,,,,,,1,,,73,0
372360,note_on,0,0,1,,,,,,,,,1,,,71,29
372420,set_tempo,1440,1,0,,,,,,923076,,,,,,,
372456,note_off,96,0,1,,,,,,,,,1,,,71,0
372480,note_on,264,0,2,,,,,,,,,2,,,61,29
372480,note_on,288,0,5,,,,,,,,,5,,,52,29
372480,note_on,0,0,5,,,,,,,,,5,,,58,29
372600,note_off,120,0,5,,,,,,,,,5,,,58,0
372600,note_on,0,0,5,,,,,,,,,5,,,59,27
372600,note_on,0,0,2,,,,,,,,,2,,,62,27
372600,note_off,120,0,2,,,,,,,,,2,,,61,0
372672,note_off,72,0,5,,,,,,,,,5,,,52,0
372696,note_off,96,0,2,,,,,,,,,2,,,62,0
372696,note_off,24,0,5,,,,,,,,,5,,,59,0
372720,note_on,264,0,1,,,,,,,,,1,,,69,25
372780,set_tempo,360,1,0,,,,,,952380,,,,,,,
372840,note_on,0,0,1,,,,,,,,,1,,,68,23
372840,note_off,120,0,1,,,,,,,,,1,,,69,0
372936,note_off,96,0,1,,,,,,,,,1,,,68,0
372960,set_tempo,180,1,0,,,,,,1000000,,,,,,,
373920,note_on,984,0,1,,,,,,,,,1,,,69,43
373920,set_tempo,960,1,0,,,,,,869565,,,,,,,
374040,note_off,120,0,1,,,,,,,,,1,,,69,0
374040,note_on,0,0,1,,,,,,,,,1,,,71,45
374160,note_off,120,0,1,,,,,,,,,1,,,71,0
374160,note_on,0,0,1,,,,,,,,,1,,,73,46
374280,note_on,0,0,1,,,,,,,,,1,,,74,48
374280,note_off,120,0,1,,,,,,,,,1,,,73,0
374400,note_off,120,0,1,,,,,,,,,1,,,74,0
374400,note_on,0,0,1,,,,,,,,,1,,,76,50
374400,note_on,1704,0,5,,,,,,,,,5,,,49,50
374400,note_on,3168,0,4,,,,,,,,,4,,,57,50
374520,note_off,120,0,1,,,,,,,,,1,,,76,0
374520,note_on,0,0,1,,,,,,,,,1,,,78,52
374640,note_off,120,0,1,,,,,,,,,1,,,78,0
374640,note_on,0,0,1,,,,,,,,,1,,,80,53
374760,note_on,0,0,1,,,,,,,,,1,,,81,55
374760,note_off,360,0,4,,,,,,,,,4,,,57,0
374760,note_off,120,0,1,,,,,,,,,1,,,80,0
374760,note_off,360,0,5,,,,,,,,,5,,,49,0
374880,note_on,0,0,1,,,,,,,,,1,,,80,57
374880,note_off,120,0,1,,,,,,,,,1,,,81,0
374880,note_on,120,0,4,,,,,,,,,4,,,57,57
374880,note_on,120,0,5,,,,,,,,,5,,,50,57
375000,note_off,120,0,1,,,,,,,,,1,,,80,0
375000,note_on,0,0,1,,,,,,,,,1,,,78,59
375120,note_off,120,0,1,,,,,,,,,1,,,78,0
375120,note_on,0,0,1,,,,,,,,,1,,,76,61
375240,note_off,360,0,4,,,,,,,,,4,,,57,0
375240,note_on,0,0,1,,,,,,,,,1,,,74,62
375240,note_off,120,0,1,,,,,,,,,1,,,76,0
375240,note_off,360,0,5,,,,,,,,,5,,,50,0
375300,set_tempo,1380,1,0,,,,,,895522,,,,,,,
375336,note_off,96,0,1,,,,,,,,,1,,,74,0
375360,note_on,24,0,1,,,,,,,,,1,,,73,67
375360,note_on,120,0,5,,,,,,,,,5,,,52,67
375360,set_tempo,60,1,0,,,,,,869565,,,,,,,
375360,note_on,120,0,4,,,,,,,,,4,,,57,67
375480,note_on,0,0,1,,,,,,,,,1,,,76,65
375480,note_off,120,0,1,,,,,,,,,1,,,73,0
375600,note_on,0,0,1,,,,,,,,,1,,,74,64
375600,note_off,120,0,1,,,,,,,,,1,,,76,0
375600,note_off,240,0,4,,,,,,,,,4,,,57,0
375600,note_on,0,0,4,,,,,,,,,4,,,56,64
375720,note_on,0,0,1,,,,,,,,,1,,,71,62
375720,note_off,120,0,1,,,,,,,,,1,,,74,0
375780,set_tempo,420,1,0,,,,,,895522,,,,,,,
375792,note_off,192,0,4,,,,,,,,,4,,,56,0
375802,note_off,442,0,5,,,,,,,,,5,,,52,0
375816,note_off,96,0,1,,,,,,,,,1,,,71,0
375840,note_on,38,0,5,,,,,,,,,5,,,57,61
375840,note_on,24,0,1,,,,,,,,,1,,,71,61
375840,note_on,3144,0,2,,,,,,,,,2,,,64,61
375840,note_on,0,0,2,,,,,,,,,2,,,62,61
376080,note_off,240,0,5,,,,,,,,,5,,,57,0
376080,note_on,0,0,5,,,,,,,,,5,,,52,57
376260,set_tempo,480,1,0,,,,,,952380,,,,,,,
376320,note_off,240,0,5,,,,,,,,,5,,,52,0
376320,note_on,0,0,5,,,,,,,,,5,,,45,50
376320,note_off,480,0,1,,,,,,,,,1,,,71,0
376320,note_on,0,0,2,,,,,,,,,2,,,61,50
376320,note_off,480,0,2,,,,,,,,,2,,,62,0
376320,note_on,0,0,1,,,,,,,,,1,,,69,50
376560,set_tempo,300,1,0,,,,,,1034482,,,,,,,
376680,note_off,360,0,5,,,,,,,,,5,,,45,0
376680,note_off,360,0,2,,,,,,,,,2,,,61,0
376680,note_off,0,0,2,,,,,,,,,2,,,64,0
376680,note_off,360,0,1,,,,,,,,,1,,,69,0
376800,set_tempo,240,1,0,,,,,,1000000,,,,,,,
376800,note_on,120,0,1,,,,,,,,,1,,,61,46
376800,note_on,120,0,2,,,,,,,,,2,,,57,46
376920,note_on,0,0,1,,,,,,,,,1,,,64,44
376920,note_off,120,0,1,,,,,,,,,1,,,61,0
376920,note_on,0,0,2,,,,,,,,,2,,,61,44
376920,note_off,120,0,2,,,,,,,,,2,,,57,0
377040,note_on,0,0,1,,,,,,,,,1,,,62,42
377040,note_off,120,0,1,,,,,,,,,1,,,64,0
377040,note_off,120,0,2,,,,,,,,,2,,,61,0
377040,note_on,0,0,2,,,,,,,,,2,,,59,42
377090,set_tempo,290,1,0,,,,,,1034482,,,,,,,
377160,note_on,0,0,2,,,,,,,,,2,,,56,40
377160,note_on,0,0,1,,,,,,,,,1,,,59,40
377160,note_off,120,0,1,,,,,,,,,1,,,62,0
377160,note_off,120,0,2,,,,,,,,,2,,,59,0
377160,set_tempo,70,1,0,,,,,,1363636,,,,,,,
377256,note_off,96,0,2,,,,,,,,,2,,,56,0
377256,note_off,96,0,1,,,,,,,,,1,,,59,0
377280,note_on,0,0,4,,,,,,,,,4,,,50,38
377280,note_on,600,0,5,,,,,,,,,5,,,45,38
377280,note_on,0,0,1,,,,,,,,,1,,,56,38
377280,note_on,24,0,1,,,,,,,,,1,,,59,38
377280,note_on,1488,0,4,,,,,,,,,4,,,52,38
377280,set_tempo,120,1,0,,,,,,1666666,,,,,,,
377760,set_tempo,480,1,0,,,,,,1818181,,,,,,,
377760,note_off,0,0,1,,,,,,,,,1,,,59,0
377760,note_on,0,0,1,,,,,,,,,1,,,57,29
377760,note_on,0,0,4,,,,,,,,,4,,,52,29
377760,note_off,0,0,4,,,,,,,,,4,,,52,0
377760,note_off,480,0,4,,,,,,,,,4,,,50,0
377760,note_off,480,0,1,,,,,,,,,1,,,56,0
377760,note_on,0,0,4,,,,,,,,,4,,,49,29
378000,note_off,0,0,4,,,,,,,,,4,,,49,0
378000,note_off,240,0,4,,,,,,,,,4,,,52,0
378000,note_off,240,0,1,,,,,,,,,1,,,57,0
378007,note_off,727,0,5,,,,,,,,,5,,,45,0
378240,control_change,240,0,4,,,,,,,64,0,4,,,,
378240,control_change,15856,0,3,,,,,,,64,0,3,,,,
378240,control_change,233,0,5,,,,,,,64,0,5,,,,
378240,control_change,240,0,1,,,,,,,64,0,1,,,,
378240,time_signature,480,1,0,4,4,24,8,,,,,,,,,
378240,marker,0,1,0,,,,,,,,,,,,,
378240,control_change,984,0,2,,,,,,,64,0,2,,,,
379200,control_change,960,0,1,,,,,,,64,0,1,,,,
379200,note_on,0,0,1,,,,,,,,,1,,,69,39
379200,control_change,960,0,2,,,,,,,64,0,2,,,,
379200,control_change,960,0,3,,,,,,,64,0,3,,,,
379200,set_tempo,960,1,0,,,,,,705882,,,,,,,
379200,control_change,960,0,4,,,,,,,64,0,4,,,,
379200,control_change,960,0,5,,,,,,,64,0,5,,,,
379510,note_off,310,0,1,,,,,,,,,1,,,69,0
379680,note_on,170,0,1,,,,,,,,,1,,,69,41
379990,note_off,310,0,1,,,,,,,,,1,,,69,0
380040,set_tempo,840,1,0,,,,,,731707,,,,,,,
380160,control_change,960,0,5,,,,,,,64,0,5,,,,
380160,note_on,0,0,4,,,,,,,,,4,,,62,43
380160,control_change,960,0,3,,,,,,,64,0,3,,,,
380160,control_change,960,0,4,,,,,,,64,0,4,,,,
380160,note_on,0,0,1,,,,,,,,,1,,,74,43
380160,control_change,170,0,1,,,,,,,64,0,1,,,,
380160,set_tempo,120,1,0,,,,,,689655,,,,,,,
380220,control_change,60,0,4,,,,,,,64,127,4,,,,
380220,control_change,60,0,3,,,,,,,64,127,3,,,,
380220,control_change,60,0,5,,,,,,,64,127,5,,,,
380400,note_on,180,0,3,,,,,,,,,3,,,69,43
380400,note_off,180,0,4,,,,,,,,,4,,,62,0
380640,note_on,0,0,3,,,,,,,,,3,,,66,44
380640,note_off,240,0,3,,,,,,,,,3,,,69,0
380880,note_off,240,0,3,,,,,,,,,3,,,66,0
380880,note_on,0,0,3,,,,,,,,,3,,,69,45
381060,control_change,660,0,4,,,,,,,64,0,4,,,,
381060,control_change,840,0,5,,,,,,,64,0,5,,,,
381060,control_change,180,0,3,,,,,,,64,0,3,,,,
381080,note_off,20,0,3,,,,,,,,,3,,,69,0
381080,note_off,920,0,1,,,,,,,,,1,,,74,0
381120,control_change,40,0,3,,,,,,,64,127,3,,,,
381120,note_on,40,0,1,,,,,,,,,1,,,73,46
381120,note_on,0,0,4,,,,,,,,,4,,,59,46
381120,control_change,60,0,4,,,,,,,64,127,4,,,,
381120,control_change,60,0,5,,,,,,,64,127,5,,,,
381360,note_on,240,0,3,,,,,,,,,3,,,66,47
381360,note_off,240,0,4,,,,,,,,,4,,,59,0
381360,note_off,240,0,1,,,,,,,,,1,,,73,0
381360,note_on,0,0,1,,,,,,,,,1,,,74,47
381600,note_on,0,0,1,,,,,,,,,1,,,76,47
381600,note_on,0,0,3,,,,,,,,,3,,,62,47
381600,note_off,240,0,1,,,,,,,,,1,,,74,0
381600,note_off,240,0,3,,,,,,,,,3,,,66,0
381840,note_off,240,0,1,,,,,,,,,1,,,76,0
381840,note_on,0,0,1,,,,,,,,,1,,,78,48
381840,note_on,0,0,3,,,,,,,,,3,,,66,48
381840,note_off,240,0,3,,,,,,,,,3,,,62,0
382020,control_change,180,0,3,,,,,,,64,0,3,,,,
382020,control_change,900,0,5,,,,,,,64,0,5,,,,
382020,control_change,660,0,4,,,,,,,64,0,4,,,,
382020,set_tempo,1860,1,0,,,,,,705882,,,,,,,
382045,note_off,205,0,1,,,,,,,,,1,,,78,0
382045,note_off,25,0,3,,,,,,,,,3,,,66,0
382080,control_change,60,0,4,,,,,,,64,127,4,,,,
382080,note_on,0,0,4,,,,,,,,,4,,,55,51
382080,set_tempo,60,1,0,,,,,,689655,,,,,,,
382080,control_change,35,0,3,,,,,,,64,127,3,,,,
382080,note_on,35,0,1,,,,,,,,,1,,,79,51
382080,control_change,60,0,5,,,,,,,64,127,5,,,,
382320,note_on,240,0,3,,,,,,,,,3,,,64,46
382320,note_on,0,0,1,,,,,,,,,1,,,76,46
382320,note_off,240,0,1,,,,,,,,,1,,,79,0
382320,note_off,240,0,4,,,,,,,,,4,,,55,0
382510,note_off,190,0,1,,,,,,,,,1,,,76,0
382560,note_on,50,0,1,,,,,,,,,1,,,79,48
382560,note_on,0,0,3,,,,,,,,,3,,,59,48
382560,note_off,240,0,3,,,,,,,,,3,,,64,0
382800,note_on,0,0,3,,,,,,,,,3,,,64,45
382800,note_off,240,0,3,,,,,,,,,3,,,59,0
382800,note_on,0,0,1,,,,,,,,,1,,,76,45
382800,note_off,240,0,1,,,,,,,,,1,,,79,0
382980,control_change,660,0,4,,,,,,,64,0,4,,,,
382980,control_change,180,0,3,,,,,,,64,0,3,,,,
382980,control_change,900,0,5,,,,,,,64,0,5,,,,
382990,note_off,190,0,1,,,,,,,,,1,,,76,0
383000,note_off,20,0,3,,,,,,,,,3,,,64,0
383040,note_on,50,0,1,,,,,,,,,1,,,74,49
383040,note_on,0,0,4,,,,,,,,,4,,,57,49
383040,control_change,60,0,5,,,,,,,64,127,5,,,,
383040,control_change,60,0,4,,,,,,,64,127,4,,,,
383040,control_change,40,0,3,,,,,,,64,127,3,,,,
383280,note_on,240,0,3,,,,,,,,,3,,,67,47
383280,note_on,0,0,1,,,,,,,,,1,,,73,47
383280,note_off,240,0,1,,,,,,,,,1,,,74,0
383280,note_off,240,0,4,,,,,,,,,4,,,57,0
383520,note_off,240,0,3,,,,,,,,,3,,,67,0
383520,note_on,0,0,3,,,,,,,,,3,,,64,45
383520,note_on,0,0,1,,,,,,,,,1,,,71,45
383520,note_off,240,0,1,,,,,,,,,1,,,73,0
383760,note_off,240,0,1,,,,,,,,,1,,,71,0
383760,note_on,0,0,1,,,,,,,,,1,,,69,42
383760,note_on,0,0,3,,,,,,,,,3,,,67,42
383760,note_off,240,0,3,,,,,,,,,3,,,64,0
383940,control_change,660,0,4,,,,,,,64,0,4,,,,
383940,control_change,180,0,3,,,,,,,64,0,3,,,,
383940,control_change,900,0,5,,,,,,,64,0,5,,,,
383960,note_off,200,0,1,,,,,,,,,1,,,69,0
383960,set_tempo,1880,1,0,,,,,,722891,,,,,,,
383965,note_off,25,0,3,,,,,,,,,3,,,67,0
384000,note_on,0,0,4,,,,,,,,,4,,,62,53
384000,control_change,60,0,5,,,,,,,64,127,5,,,,
384000,note_on,40,0,1,,,,,,,,,1,,,81,53
384000,set_tempo,40,1,0,,,,,,689655,,,,,,,
384000,control_change,60,0,4,,,,,,,64,127,4,,,,
384000,control_change,35,0,3,,,,,,,64,127,3,,,,
384240,note_off,240,0,1,,,,,,,,,1,,,81,0
384240,note_off,240,0,4,,,,,,,,,4,,,62,0
384240,note_on,240,0,3,,,,,,,,,3,,,69,50
384240,note_on,0,0,1,,,,,,,,,1,,,78,50
384445,note_off,205,0,1,,,,,,,,,1,,,78,0
384480,note_on,0,0,3,,,,,,,,,3,,,66,48
384480,note_off,240,0,3,,,,,,,,,3,,,69,0
384480,note_on,35,0,1,,,,,,,,,1,,,81,48
384720,note_off,240,0,1,,,,,,,,,1,,,81,0
384720,note_on,0,0,1,,,,,,,,,1,,,78,46
384720,note_off,240,0,3,,,,,,,,,3,,,66,0
384720,note_on,0,0,3,,,,,,,,,3,,,69,46
384900,control_change,180,0,3,,,,,,,64,0,3,,,,
384900,control_change,660,0,4,,,,,,,64,0,4,,,,
384900,control_change,900,0,5,,,,,,,64,0,5,,,,
384920,note_off,20,0,3,,,,,,,,,3,,,69,0
384920,note_off,200,0,1,,,,,,,,,1,,,78,0
384960,note_on,0,0,4,,,,,,,,,4,,,55,56
384960,control_change,40,0,3,,,,,,,64,127,3,,,,
384960,control_change,60,0,5,,,,,,,64,127,5,,,,
384960,control_change,60,0,4,,,,,,,64,127,4,,,,
384960,note_on,40,0,1,,,,,,,,,1,,,83,56
385200,note_on,0,0,1,,,,,,,,,1,,,79,55
385200,note_off,240,0,1,,,,,,,,,1,,,83,0
385200,note_off,240,0,4,,,,,,,,,4,,,55,0
385200,note_on,240,0,3,,,,,,,,,3,,,64,55
385400,note_off,200,0,1,,,,,,,,,1,,,79,0
385440,note_on,0,0,3,,,,,,,,,3,,,59,53
385440,note_off,240,0,3,,,,,,,,,3,,,64,0
385440,note_on,40,0,1,,,,,,,,,1,,,83,53
385680,note_on,0,0,3,,,,,,,,,3,,,64,51
385680,note_off,240,0,1,,,,,,,,,1,,,83,0
385680,note_on,0,0,1,,,,,,,,,1,,,79,51
385680,note_off,240,0,3,,,,,,,,,3,,,59,0
385860,control_change,660,0,4,,,,,,,64,0,4,,,,
385860,control_change,180,0,3,,,,,,,64,0,3,,,,
385860,control_change,900,0,5,,,,,,,64,0,5,,,,
385880,set_tempo,1880,1,0,,,,,,705882,,,,,,,
385880,note_off,200,0,1,,,,,,,,,1,,,79,0
385885,note_off,25,0,3,,,,,,,,,3,,,64,0
385920,note_on,60,0,4,,,,,,,,,4,,,62,60
385920,note_on,40,0,1,,,,,,,,,1,,,78,60
385920,note_on,60,0,5,,,,,,,,,5,,,57,60
386400,note_on,0,0,1,,,,,,,,,1,,,76,48
386400,set_tempo,520,1,0,,,,,,769230,,,,,,,
386400,note_off,480,0,4,,,,,,,,,4,,,62,0
386400,note_on,0,0,4,,,,,,,,,4,,,61,48
386400,note_off,480,0,1,,,,,,,,,1,,,78,0
386785,note_off,385,0,4,,,,,,,,,4,,,61,0
386785,note_off,385,0,1,,,,,,,,,1,,,76,0
386785,note_off,865,0,5,,,,,,,,,5,,,57,0
386880,note_on,95,0,1,,,,,,,,,1,,,69,55
386880,set_tempo,480,1,0,,,,,,705882,,,,,,,
387190,note_off,310,0,1,,,,,,,,,1,,,69,0
387360,note_on,170,0,1,,,,,,,,,1,,,69,58
387670,note_off,310,0,1,,,,,,,,,1,,,69,0
387720,set_tempo,840,1,0,,,,,,731707,,,,,,,
387840,note_on,170,0,1,,,,,,,,,1,,,74,61
387840,set_tempo,120,1,0,,,,,,689655,,,,,,,
387840,note_on,0,0,4,,,,,,,,,4,,,54,61
387840,control_change,1055,0,4,,,,,,,64,0,4,,,,
387840,control_change,1955,0,3,,,,,,,64,0,3,,,,
387840,control_change,1055,0,5,,,,,,,64,0,5,,,,
387900,control_change,60,0,5,,,,,,,64,127,5,,,,
387900,control_change,60,0,3,,,,,,,64,127,3,,,,
387900,control_change,60,0,4,,,,,,,64,127,4,,,,
388080,note_on,180,0,3,,,,,,,,,3,,,62,61
388080,note_off,180,0,4,,,,,,,,,4,,,54,0
388320,note_on,0,0,3,,,,,,,,,3,,,57,62
388320,note_off,240,0,3,,,,,,,,,3,,,62,0
388560,note_on,0,0,3,,,,,,,,,3,,,62,63
388560,note_off,240,0,3,,,,,,,,,3,,,57,0
388740,control_change,180,0,3,,,,,,,64,0,3,,,,
388740,control_change,660,0,4,,,,,,,64,0,4,,,,
388740,control_change,840,0,5,,,,,,,64,0,5,,,,
388760,note_off,20,0,3,,,,,,,,,3,,,62,0
388760,note_off,920,0,1,,,,,,,,,1,,,74,0
388800,note_on,40,0,1,,,,,,,,,1,,,78,61
388800,control_change,60,0,5,,,,,,,64,127,5,,,,
388800,control_change,40,0,3,,,,,,,64,127,3,,,,
388800,control_change,60,0,4,,,,,,,64,127,4,,,,
388800,note_on,0,0,4,,,,,,,,,4,,,50,63
389040,note_on,240,0,3,,,,,,,,,3,,,59,64
389040,note_off,240,0,4,,,,,,,,,4,,,50,0
389040,note_on,0,0,1,,,,,,,,,1,,,76,61
389040,note_off,240,0,1,,,,,,,,,1,,,78,0
389280,note_off,240,0,3,,,,,,,,,3,,,59,0
389280,note_on,0,0,3,,,,,,,,,3,,,54,65
389280,note_on,0,0,1,,,,,,,,,1,,,74,62
389280,note_off,240,0,1,,,,,,,,,1,,,76,0
389520,note_on,0,0,1,,,,,,,,,1,,,73,63
389520,note_off,240,0,3,,,,,,,,,3,,,54,0
389520,note_on,0,0,3,,,,,,,,,3,,,59,65
389520,note_off,240,0,1,,,,,,,,,1,,,74,0
389700,control_change,180,0,3,,,,,,,64,0,3,,,,
389700,control_change,660,0,4,,,,,,,64,0,4,,,,
389700,control_change,900,0,5,,,,,,,64,0,5,,,,
389700,set_tempo,1860,1,0,,,,,,705882,,,,,,,
389720,note_off,200,0,1,,,,,,,,,1,,,73,0
389725,note_off,25,0,3,,,,,,,,,3,,,59,0
389760,note_on,0,0,4,,,,,,,,,4,,,52,66
389760,control_change,60,0,5,,,,,,,64,127,5,,,,
389760,note_on,40,0,1,,,,,,,,,1,,,71,66
389760,set_tempo,60,1,0,,,,,,689655,,,,,,,
389760,control_change,35,0,3,,,,,,,64,127,3,,,,
389760,control_change,60,0,4,,,,,,,64,127,4,,,,
390000,note_off,240,0,1,,,,,,,,,1,,,71,0
390000,note_off,240,0,4,,,,,,,,,4,,,52,0
390000,note_on,240,0,3,,,,,,,,,3,,,59,63
390000,note_on,0,0,1,,,,,,,,,1,,,74,63
390205,note_off,205,0,1,,,,,,,,,1,,,74,0
390240,note_off,240,0,3,,,,,,,,,3,,,59,0
390240,note_on,35,0,1,,,,,,,,,1,,,71,69
390240,note_on,0,0,3,,,,,,,,,3,,,56,69
390480,note_on,0,0,1,,,,,,,,,1,,,74,65
390480,note_off,240,0,1,,,,,,,,,1,,,71,0
390480,note_on,0,0,3,,,,,,,,,3,,,59,65
390480,note_off,240,0,3,,,,,,,,,3,,,56,0
390660,control_change,660,0,4,,,,,,,64,0,4,,,,
390660,control_change,900,0,5,,,,,,,64,0,5,,,,
390660,control_change,180,0,3,,,,,,,64,0,3,,,,
390680,note_off,200,0,1,,,,,,,,,1,,,74,0
390685,note_off,25,0,3,,,,,,,,,3,,,59,0
390720,control_change,35,0,3,,,,,,,64,127,3,,,,
390720,note_on,0,0,4,,,,,,,,,4,,,56,73
390720,note_on,40,0,1,,,,,,,,,1,,,83,73
390720,control_change,60,0,5,,,,,,,64,127,5,,,,
390720,control_change,60,0,4,,,,,,,64,127,4,,,,
390960,note_off,240,0,4,,,,,,,,,4,,,56,0
390960,note_on,240,0,3,,,,,,,,,3,,,62,70
390960,note_off,240,0,1,,,,,,,,,1,,,83,0
390960,note_on,0,0,1,,,,,,,,,1,,,81,70
391200,note_on,0,0,1,,,,,,,,,1,,,80,67
391200,note_off,240,0,1,,,,,,,,,1,,,81,0
391200,note_on,0,0,3,,,,,,,,,3,,,59,67
391200,note_off,240,0,3,,,,,,,,,3,,,62,0
391440,note_off,240,0,1,,,,,,,,,1,,,80,0
391440,note_on,0,0,3,,,,,,,,,3,,,62,65
391440,note_off,240,0,3,,,,,,,,,3,,,59,0
391440,note_on,0,0,1,,,,,,,,,1,,,78,65
391620,control_change,180,0,3,,,,,,,64,0,3,,,,
391620,control_change,900,0,5,,,,,,,64,0,5,,,,
391620,control_change,660,0,4,,,,,,,64,0,4,,,,
391640,note_off,20,0,3,,,,,,,,,3,,,62,0
391640,set_tempo,1880,1,0,,,,,,705882,,,,,,,
391645,note_off,205,0,1,,,,,,,,,1,,,78,0
391680,note_on,35,0,1,,,,,,,,,1,,,76,77
391680,note_on,60,0,5,,,,,,,,,5,,,57,77
391680,set_tempo,40,1,0,,,,,,689655,,,,,,,
391680,note_on,60,0,4,,,,,,,,,4,,,61,77
391920,note_on,0,0,1,,,,,,,,,1,,,81,74
391920,note_off,240,0,1,,,,,,,,,1,,,76,0
391990,note_off,310,0,4,,,,,,,,,4,,,61,0
391990,note_off,310,0,5,,,,,,,,,5,,,57,0
392160,note_off,240,0,1,,,,,,,,,1,,,81,0
392160,note_on,0,0,1,,,,,,,,,1,,,78,71
392160,note_on,170,0,4,,,,,,,,,4,,,59,71
392160,note_on,170,0,5,,,,,,,,,5,,,50,71
392400,note_off,240,0,1,,,,,,,,,1,,,78,0
392400,note_on,0,0,1,,,,,,,,,1,,,74,69
392470,note_off,310,0,4,,,,,,,,,4,,,59,0
392470,note_off,310,0,5,,,,,,,,,5,,,50,0
392600,note_off,200,0,1,,,,,,,,,1,,,74,0
392640,note_on,170,0,4,,,,,,,,,4,,,57,72
392640,note_on,170,0,5,,,,,,,,,5,,,52,72
392640,note_on,40,0,1,,,,,,,,,1,,,73,72
392880,note_off,240,0,1,,,,,,,,,1,,,73,0
392880,note_on,0,0,1,,,,,,,,,1,,,76,69
392950,note_off,310,0,4,,,,,,,,,4,,,57,0
392950,note_off,310,0,5,,,,,,,,,5,,,52,0
393120,note_on,0,0,1,,,,,,,,,1,,,74,67
393120,note_on,170,0,5,,,,,,,,,5,,,52,67
393120,note_off,240,0,1,,,,,,,,,1,,,76,0
393120,note_on,170,0,4,,,,,,,,,4,,,56,67
393360,note_on,0,0,1,,,,,,,,,1,,,71,64
393360,note_off,240,0,1,,,,,,,,,1,,,74,0
393360,note_on,240,0,4,,,,,,,,,4,,,62,64
393430,note_off,310,0,5,,,,,,,,,5,,,52,0
393430,note_off,70,0,4,,,,,,,,,4,,,56,0
393560,set_tempo,1880,1,0,,,,,,722891,,,,,,,
393565,note_off,205,0,1,,,,,,,,,1,,,71,0
393565,note_off,135,0,4,,,,,,,,,4,,,62,0
393600,note_on,35,0,1,,,,,,,,,1,,,71,68
393600,set_tempo,40,1,0,,,,,,705882,,,,,,,
393600,note_on,35,0,4,,,,,,,,,4,,,52,68
393600,note_on,0,0,4,,,,,,,,,4,,,57,68
393600,note_on,0,0,4,,,,,,,,,4,,,62,68
393600,note_on,170,0,5,,,,,,,,,5,,,45,68
394080,note_on,0,0,1,,,,,,,,,1,,,69,56
394080,note_on,0,0,4,,,,,,,,,4,,,61,56
394080,set_tempo,480,1,0,,,,,,845070,,,,,,,
394080,note_off,480,0,1,,,,,,,,,1,,,71,0
394080,note_off,480,0,4,,,,,,,,,4,,,62,0
394435,note_off,835,0,5,,,,,,,,,5,,,45,0
394440,note_off,0,0,4,,,,,,,,,4,,,52,0
394440,note_off,360,0,1,,,,,,,,,1,,,69,0
394440,note_off,0,0,4,,,,,,,,,4,,,57,0
394440,note_off,360,0,4,,,,,,,,,4,,,61,0
394440,set_tempo,360,1,0,,,,,,1132075,,,,,,,
394560,control_change,15360,0,2,,,,,,,64,0,2,,,,
394560,note_on,0,0,1,,,,,,,,,1,,,69,39
394560,set_tempo,120,1,0,,,,,,705882,,,,,,,
394560,control_change,120,0,4,,,,,,,64,0,4,,,,
394560,control_change,2920,0,3,,,,,,,64,0,3,,,,
394560,control_change,125,0,5,,,,,,,64,0,5,,,,
394560,control_change,120,0,1,,,,,,,64,0,1,,,,
394870,note_off,310,0,1,,,,,,,,,1,,,69,0
395040,note_on,170,0,1,,,,,,,,,1,,,69,41
395350,note_off,310,0,1,,,,,,,,,1,,,69,0
395400,set_tempo,840,1,0,,,,,,731707,,,,,,,
395520,set_tempo,120,1,0,,,,,,689655,,,,,,,
395520,control_change,960,0,5,,,,,,,64,0,5,,,,
395520,note_on,0,0,1,,,,,,,,,1,,,74,43
395520,control_change,170,0,1,,,,,,,64,0,1,,,,
395520,control_change,960,0,4,,,,,,,64,0,4,,,,
395520,note_on,0,0,4,,,,,,,,,4,,,62,43
395520,control_change,960,0,3,,,,,,,64,0,3,,,,
395580,control_change,60,0,5,,,,,,,64,127,5,,,,
395580,control_change,60,0,4,,,,,,,64,127,4,,,,
395580,control_change,60,0,3,,,,,,,64,127,3,,,,
395760,note_on,180,0,3,,,,,,,,,3,,,69,43
395760,note_off,180,0,4,,,,,,,,,4,,,62,0
396000,note_off,240,0,3,,,,,,,,,3,,,69,0
396000,note_on,0,0,3,,,,,,,,,3,,,66,44
396240,note_off,240,0,3,,,,,,,,,3,,,66,0
396240,note_on,0,0,3,,,,,,,,,3,,,69,45
396420,control_change,840,0,5,,,,,,,64,0,5,,,,
396420,control_change,660,0,4,,,,,,,64,0,4,,,,
396420,control_change,180,0,3,,,,,,,64,0,3,,,,
396440,note_off,20,0,3,,,,,,,,,3,,,69,0
396440,note_off,920,0,1,,,,,,,,,1,,,74,0
396480,control_change,40,0,3,,,,,,,64,127,3,,,,
396480,control_change,60,0,5,,,,,,,64,127,5,,,,
396480,control_change,60,0,4,,,,,,,64,127,4,,,,
396480,note_on,0,0,4,,,,,,,,,4,,,59,46
396480,note_on,40,0,1,,,,,,,,,1,,,73,46
396720,note_off,240,0,1,,,,,,,,,1,,,73,0
396720,note_off,240,0,4,,,,,,,,,4,,,59,0
396720,note_on,240,0,3,,,,,,,,,3,,,66,47
396720,note_on,0,0,1,,,,,,,,,1,,,74,47
396960,note_on,0,0,3,,,,,,,,,3,,,62,47
396960,note_off,240,0,3,,,,,,,,,3,,,66,0
396960,note_off,240,0,1,,,,,,,,,1,,,74,0
396960,note_on,0,0,1,,,,,,,,,1,,,76,47
397200,note_on,0,0,1,,,,,,,,,1,,,78,48
397200,note_on,0,0,3,,,,,,,,,3,,,66,48
397200,note_off,240,0,3,,,,,,,,,3,,,62,0
397200,note_off,240,0,1,,,,,,,,,1,,,76,0
397380,set_tempo,1860,1,0,,,,,,705882,,,,,,,
397380,control_change,900,0,5,,,,,,,64,0,5,,,,
397380,control_change,180,0,3,,,,,,,64,0,3,,,,
397380,control_change,660,0,4,,,,,,,64,0,4,,,,
397405,note_off,25,0,3,,,,,,,,,3,,,66,0
397405,note_off,205,0,1,,,,,,,,,1,,,78,0
397440,set_tempo,60,1,0,,,,,,689655,,,,,,,
397440,control_change,60,0,4,,,,,,,64,127,4,,,,
397440,note_on,0,0,4,,,,,,,,,4,,,55,51
397440,note_on,35,0,1,,,,,,,,,1,,,79,51
397440,control_change,35,0,3,,,,,,,64,127,3,,,,
397440,control_change,60,0,5,,,,,,,64,127,5,,,,
397680,note_on,240,0,3,,,,,,,,,3,,,64,46
397680,note_off,240,0,4,,,,,,,,,4,,,55,0
397680,note_off,240,0,1,,,,,,,,,1,,,79,0
397680,note_on,0,0,1,,,,,,,,,1,,,76,46
397870,note_off,190,0,1,,,,,,,,,1,,,76,0
397920,note_on,50,0,1,,,,,,,,,1,,,79,48
397920,note_on,0,0,3,,,,,,,,,3,,,59,48
397920,note_off,240,0,3,,,,,,,,,3,,,64,0
398160,note_on,0,0,1,,,,,,,,,1,,,76,45
398160,note_on,0,0,3,,,,,,,,,3,,,64,45
398160,note_off,240,0,1,,,,,,,,,1,,,79,0
398160,note_off,240,0,3,,,,,,,,,3,,,59,0
398340,control_change,660,0,4,,,,,,,64,0,4,,,,
398340,control_change,180,0,3,,,,,,,64,0,3,,,,
398340,control_change,900,0,5,,,,,,,64,0,5,,,,
398350,note_off,190,0,1,,,,,,,,,1,,,76,0
398360,note_off,20,0,3,,,,,,,,,3,,,64,0
398400,control_change,60,0,5,,,,,,,64,127,5,,,,
398400,note_on,50,0,1,,,,,,,,,1,,,74,49
398400,note_on,0,0,4,,,,,,,,,4,,,57,49
398400,control_change,60,0,4,,,,,,,64,127,4,,,,
398400,control_change,40,0,3,,,,,,,64,127,3,,,,
398640,note_off,240,0,1,,,,,,,,,1,,,74,0
398640,note_on,0,0,1,,,,,,,,,1,,,73,47
398640,note_on,240,0,3,,,,,,,,,3,,,67,47
398640,note_off,240,0,4,,,,,,,,,4,,,57,0
398880,note_off,240,0,3,,,,,,,,,3,,,67,0
398880,note_on,0,0,3,,,,,,,,,3,,,64,45
398880,note_on,0,0,1,,,,,,,,,1,,,71,45
398880,note_off,240,0,1,,,,,,,,,1,,,73,0
399120,note_off,240,0,3,,,,,,,,,3,,,64,0
399120,note_on,0,0,3,,,,,,,,,3,,,67,42
399120,note_on,0,0,1,,,,,,,,,1,,,69,42
399120,note_off,240,0,1,,,,,,,,,1,,,71,0
399300,control_change,180,0,3,,,,,,,64,0,3,,,,
399300,control_change,660,0,4,,,,,,,64,0,4,,,,
399300,control_change,900,0,5,,,,,,,64,0,5,,,,
399320,set_tempo,1880,1,0,,,,,,722891,,,,,,,
399320,note_off,200,0,1,,,,,,,,,1,,,69,0
399325,note_off,25,0,3,,,,,,,,,3,,,67,0
399360,set_tempo,40,1,0,,,,,,689655,,,,,,,
399360,control_change,35,0,3,,,,,,,64,127,3,,,,
399360,note_on,40,0,1,,,,,,,,,1,,,81,53
399360,control_change,60,0,4,,,,,,,64,127,4,,,,
399360,note_on,0,0,4,,,,,,,,,4,,,62,53
399360,control_change,60,0,5,,,,,,,64,127,5,,,,
399600,note_on,240,0,3,,,,,,,,,3,,,69,50
399600,note_off,240,0,4,,,,,,,,,4,,,62,0
399600,note_on,0,0,1,,,,,,,,,1,,,78,50
399600,note_off,240,0,1,,,,,,,,,1,,,81,0
399805,note_off,205,0,1,,,,,,,,,1,,,78,0
399840,note_on,35,0,1,,,,,,,,,1,,,81,48
399840,note_on,0,0,3,,,,,,,,,3,,,66,48
399840,note_off,240,0,3,,,,,,,,,3,,,69,0
400080,note_off,240,0,3,,,,,,,,,3,,,66,0
400080,note_on,0,0,3,,,,,,,,,3,,,69,46
400080,note_off,240,0,1,,,,,,,,,1,,,81,0
400080,note_on,0,0,1,,,,,,,,,1,,,78,46
400260,control_change,180,0,3,,,,,,,64,0,3,,,,
400260,control_change,660,0,4,,,,,,,64,0,4,,,,
400260,control_change,900,0,5,,,,,,,64,0,5,,,,
400280,note_off,20,0,3,,,,,,,,,3,,,69,0
400280,note_off,200,0,1,,,,,,,,,1,,,78,0
400320,control_change,40,0,3,,,,,,,64,127,3,,,,
400320,control_change,60,0,4,,,,,,,64,127,4,,,,
400320,note_on,0,0,4,,,,,,,,,4,,,55,56
400320,note_on,40,0,1,,,,,,,,,1,,,83,56
400320,control_change,60,0,5,,,,,,,64,127,5,,,,
400560,note_on,0,0,1,,,,,,,,,1,,,79,55
400560,note_on,240,0,3,,,,,,,,,3,,,64,55
400560,note_off,240,0,1,,,,,,,,,1,,,83,0
400560,note_off,240,0,4,,,,,,,,,4,,,55,0
400760,note_off,200,0,1,,,,,,,,,1,,,79,0
400800,note_on,0,0,3,,,,,,,,,3,,,59,53
400800,note_off,240,0,3,,,,,,,,,3,,,64,0
400800,note_on,40,0,1,,,,,,,,,1,,,83,53
401040,note_off,240,0,1,,,,,,,,,1,,,83,0
401040,note_on,0,0,3,,,,,,,,,3,,,64,51
401040,note_on,0,0,1,,,,,,,,,1,,,79,51
401040,note_off,240,0,3,,,,,,,,,3,,,59,0
401220,control_change,900,0,5,,,,,,,64,0,5,,,,
401220,control_change,180,0,3,,,,,,,64,0,3,,,,
401220,control_change,660,0,4,,,,,,,64,0,4,,,,
401240,note_off,200,0,1,,,,,,,,,1,,,79,0
401240,set_tempo,1880,1,0,,,,,,705882,,,,,,,
401245,note_off,25,0,3,,,,,,,,,3,,,64,0
401280,note_on,40,0,1,,,,,,,,,1,,,78,60
401280,note_on,60,0,4,,,,,,,,,4,,,62,60
401280,note_on,60,0,5,,,,,,,,,5,,,57,60
401760,note_off,480,0,1,,,,,,,,,1,,,78,0
401760,note_on,0,0,1,,,,,,,,,1,,,76,48
401760,note_on,0,0,4,,,,,,,,,4,,,61,48
401760,set_tempo,520,1,0,,,,,,769230,,,,,,,
401760,note_off,480,0,4,,,,,,,,,4,,,62,0
402145,note_off,865,0,5,,,,,,,,,5,,,57,0
402145,note_off,385,0,4,,,,,,,,,4,,,61,0
402145,note_off,385,0,1,,,,,,,,,1,,,76,0
402240,note_on,95,0,1,,,,,,,,,1,,,69,55
402240,set_tempo,480,1,0,,,,,,705882,,,,,,,
402550,note_off,310,0,1,,,,,,,,,1,,,69,0
402720,note_on,170,0,1,,,,,,,,,1,,,69,58
403030,note_off,310,0,1,,,,,,,,,1,,,69,0
403080,set_tempo,840,1,0,,,,,,731707,,,,,,,
403200,control_change,1955,0,3,,,,,,,64,0,3,,,,
403200,note_on,0,0,4,,,,,,,,,4,,,54,61
403200,set_tempo,120,1,0,,,,,,689655,,,,,,,
403200,control_change,1055,0,5,,,,,,,64,0,5,,,,
403200,note_on,170,0,1,,,,,,,,,1,,,74,61
403200,control_change,1055,0,4,,,,,,,64,0,4,,,,
403260,control_change,60,0,4,,,,,,,64,127,4,,,,
403260,control_change,60,0,3,,,,,,,64,127,3,,,,
403260,control_change,60,0,5,,,,,,,64,127,5,,,,
403440,note_off,180,0,4,,,,,,,,,4,,,54,0
403440,note_on,180,0,3,,,,,,,,,3,,,62,61
403680,note_off,240,0,3,,,,,,,,,3,,,62,0
403680,note_on,0,0,3,,,,,,,,,3,,,57,62
403920,note_off,240,0,3,,,,,,,,,3,,,57,0
403920,note_on,0,0,3,,,,,,,,,3,,,62,63
404100,control_change,840,0,5,,,,,,,64,0,5,,,,
404100,control_change,660,0,4,,,,,,,64,0,4,,,,
404100,control_change,180,0,3,,,,,,,64,0,3,,,,
404120,note_off,20,0,3,,,,,,,,,3,,,62,0
404120,note_off,920,0,1,,,,,,,,,1,,,74,0
404160,note_on,40,0,1,,,,,,,,,1,,,78,61
404160,control_change,60,0,5,,,,,,,64,127,5,,,,
404160,control_change,40,0,3,,,,,,,64,127,3,,,,
404160,control_change,60,0,4,,,,,,,64,127,4,,,,
404160,note_on,0,0,4,,,,,,,,,4,,,50,63
404400,note_off,240,0,4,,,,,,,,,4,,,50,0
404400,note_on,240,0,3,,,,,,,,,3,,,59,64
404400,note_off,240,0,1,,,,,,,,,1,,,78,0
404400,note_on,0,0,1,,,,,,,,,1,,,76,61
404640,note_on,0,0,1,,,,,,,,,1,,,74,62
404640,note_off,240,0,1,,,,,,,,,1,,,76,0
404640,note_on,0,0,3,,,,,,,,,3,,,54,65
404640,note_off,240,0,3,,,,,,,,,3,,,59,0
404880,note_off,240,0,1,,,,,,,,,1,,,74,0
404880,note_on,0,0,3,,,,,,,,,3,,,59,65
404880,note_off,240,0,3,,,,,,,,,3,,,54,0
404880,note_on,0,0,1,,,,,,,,,1,,,73,63
405060,control_change,660,0,4,,,,,,,64,0,4,,,,
405060,set_tempo,1860,1,0,,,,,,705882,,,,,,,
405060,control_change,180,0,3,,,,,,,64,0,3,,,,
405060,control_change,900,0,5,,,,,,,64,0,5,,,,
405080,note_off,200,0,1,,,,,,,,,1,,,73,0
405085,note_off,25,0,3,,,,,,,,,3,,,59,0
405120,note_on,0,0,4,,,,,,,,,4,,,52,66
405120,control_change,60,0,4,,,,,,,64,127,4,,,,
405120,control_change,35,0,3,,,,,,,64,127,3,,,,
405120,control_change,60,0,5,,,,,,,64,127,5,,,,
405120,note_on,40,0,1,,,,,,,,,1,,,71,66
405120,set_tempo,60,1,0,,,,,,689655,,,,,,,
405360,note_off,240,0,4,,,,,,,,,4,,,52,0
405360,note_off,240,0,1,,,,,,,,,1,,,71,0
405360,note_on,0,0,1,,,,,,,,,1,,,74,63
405360,note_on,240,0,3,,,,,,,,,3,,,59,63
405565,note_off,205,0,1,,,,,,,,,1,,,74,0
405600,note_on,0,0,3,,,,,,,,,3,,,56,69
405600,note_on,35,0,1,,,,,,,,,1,,,71,69
405600,note_off,240,0,3,,,,,,,,,3,,,59,0
405840,note_on,0,0,1,,,,,,,,,1,,,74,65
405840,note_off,240,0,3,,,,,,,,,3,,,56,0
405840,note_on,0,0,3,,,,,,,,,3,,,59,65
405840,note_off,240,0,1,,,,,,,,,1,,,71,0
406020,control_change,660,0,4,,,,,,,64,0,4,,,,
406020,control_change,900,0,5,,,,,,,64,0,5,,,,
406020,control_change,180,0,3,,,,,,,64,0,3,,,,
406040,note_off,200,0,1,,,,,,,,,1,,,74,0
406045,note_off,25,0,3,,,,,,,,,3,,,59,0
406080,note_on,40,0,1,,,,,,,,,1,,,83,73
406080,control_change,35,0,3,,,,,,,64,127,3,,,,
406080,note_on,0,0,4,,,,,,,,,4,,,56,73
406080,control_change,60,0,4,,,,,,,64,127,4,,,,
406080,control_change,60,0,5,,,,,,,64,127,5,,,,
406320,note_on,240,0,3,,,,,,,,,3,,,62,70
406320,note_off,240,0,1,,,,,,,,,1,,,83,0
406320,note_on,0,0,1,,,,,,,,,1,,,81,70
406320,note_off,240,0,4,,,,,,,,,4,,,56,0
406560,note_on,0,0,3,,,,,,,,,3,,,59,67
406560,note_off,240,0,3,,,,,,,,,3,,,62,0
406560,note_off,240,0,1,,,,,,,,,1,,,81,0
406560,note_on,0,0,1,,,,,,,,,1,,,80,67
406800,note_off,240,0,1,,,,,,,,,1,,,80,0
406800,note_on,0,0,1,,,,,,,,,1,,,78,65
406800,note_on,0,0,3,,,,,,,,,3,,,62,65
406800,note_off,240,0,3,,,,,,,,,3,,,59,0
406980,control_change,660,0,4,,,,,,,64,0,4,,,,
406980,control_change,900,0,5,,,,,,,64,0,5,,,,
406980,control_change,180,0,3,,,,,,,64,0,3,,,,
407000,note_off,20,0,3,,,,,,,,,3,,,62,0
407000,set_tempo,1880,1,0,,,,,,705882,,,,,,,
407005,note_off,205,0,1,,,,,,,,,1,,,78,0
407040,note_on,35,0,1,,,,,,,,,1,,,76,77
407040,note_on,60,0,5,,,,,,,,,5,,,57,77
407040,set_tempo,40,1,0,,,,,,689655,,,,,,,
407040,note_on,60,0,4,,,,,,,,,4,,,61,77
407280,note_off,240,0,1,,,,,,,,,1,,,76,0
407280,note_on,0,0,1,,,,,,,,,1,,,81,74
407350,note_off,310,0,5,,,,,,,,,5,,,57,0
407350,note_off,310,0,4,,,,,,,,,4,,,61,0
407520,note_off,240,0,1,,,,,,,,,1,,,81,0
407520,note_on,0,0,1,,,,,,,,,1,,,78,71
407520,note_on,170,0,4,,,,,,,,,4,,,59,71
407520,note_on,170,0,5,,,,,,,,,5,,,50,71
407760,note_off,240,0,1,,,,,,,,,1,,,78,0
407760,note_on,0,0,1,,,,,,,,,1,,,74,69
407830,note_off,310,0,5,,,,,,,,,5,,,50,0
407830,note_off,310,0,4,,,,,,,,,4,,,59,0
407960,note_off,200,0,1,,,,,,,,,1,,,74,0
408000,note_on,170,0,4,,,,,,,,,4,,,57,72
408000,note_on,40,0,1,,,,,,,,,1,,,73,72
408000,note_on,170,0,5,,,,,,,,,5,,,52,72
408240,note_off,240,0,1,,,,,,,,,1,,,73,0
408240,note_on,0,0,1,,,,,,,,,1,,,76,69
408310,note_off,310,0,4,,,,,,,,,4,,,57,0
408310,note_off,310,0,5,,,,,,,,,5,,,52,0
408480,note_off,240,0,1,,,,,,,,,1,,,76,0
408480,note_on,170,0,5,,,,,,,,,5,,,52,67
408480,note_on,0,0,1,,,,,,,,,1,,,74,67
408480,note_on,170,0,4,,,,,,,,,4,,,56,67
408720,note_on,240,0,4,,,,,,,,,4,,,62,64
408720,note_on,0,0,1,,,,,,,,,1,,,71,64
408720,note_off,240,0,1,,,,,,,,,1,,,74,0
408790,note_off,310,0,5,,,,,,,,,5,,,52,0
408790,note_off,70,0,4,,,,,,,,,4,,,56,0
408920,set_tempo,1880,1,0,,,,,,722891,,,,,,,
408925,note_off,135,0,4,,,,,,,,,4,,,62,0
408925,note_off,205,0,1,,,,,,,,,1,,,71,0
408960,note_on,35,0,1,,,,,,,,,1,,,71,68
408960,note_on,35,0,4,,,,,,,,,4,,,62,68
408960,note_on,0,0,4,,,,,,,,,4,,,52,68
408960,note_on,170,0,5,,,,,,,,,5,,,45,68
408960,set_tempo,40,1,0,,,,,,705882,,,,,,,
408960,note_on,0,0,4,,,,,,,,,4,,,57,68
409440,note_off,480,0,4,,,,,,,,,4,,,62,0
409440,note_off,480,0,1,,,,,,,,,1,,,71,0
409440,set_tempo,480,1,0,,,,,,845070,,,,,,,
409440,note_on,0,0,4,,,,,,,,,4,,,61,56
409440,note_on,0,0,1,,,,,,,,,1,,,69,56
409795,note_off,835,0,5,,,,,,,,,5,,,45,0
409800,note_off,0,0,4,,,,,,,,,4,,,57,0
409800,note_off,360,0,1,,,,,,,,,1,,,69,0
409800,note_off,360,0,4,,,,,,,,,4,,,61,0
409800,note_off,0,0,4,,,,,,,,,4,,,52,0
409920,control_change,2920,0,3,,,,,,,64,0,3,,,,
409920,control_change,120,0,4,,,,,,,64,0,4,,,,
409920,note_on,0,0,1,,,,,,,,,1,,,81,46
409920,control_change,120,0,1,,,,,,,64,0,1,,,,
409920,set_tempo,480,1,0,,,,,,689655,,,,,,,
409920,control_change,125,0,5,,,,,,,64,0,5,,,,
409920,control_change,15360,0,2,,,,,,,64,0,2,,,,
410160,note_on,0,0,1,,,,,,,,,1,,,80,47
410160,note_off,240,0,1,,,,,,,,,1,,,81,0
410400,note_on,0,0,1,,,,,,,,,1,,,81,48
410400,note_off,240,0,1,,,,,,,,,1,,,80,0
410640,note_off,240,0,1,,,,,,,,,1,,,81,0
410640,note_on,0,0,1,,,,,,,,,1,,,80,49
410820,set_tempo,900,1,0,,,,,,705882,,,,,,,
410835,note_off,195,0,1,,,,,,,,,1,,,80,0
410880,set_tempo,60,1,0,,,,,,689655,,,,,,,
410880,note_on,960,0,5,,,,,,,,,5,,,59,53
410880,note_on,960,0,4,,,,,,,,,4,,,63,53
410880,note_on,45,0,1,,,,,,,,,1,,,81,53
411120,note_off,240,0,1,,,,,,,,,1,,,81,0
411120,note_on,0,0,1,,,,,,,,,1,,,83,50
411360,note_on,0,0,5,,,,,,,,,5,,,52,48
411360,note_off,240,0,1,,,,,,,,,1,,,83,0
411360,note_off,480,0,5,,,,,,,,,5,,,59,0
411360,note_on,0,0,4,,,,,,,,,4,,,64,48
411360,note_off,480,0,4,,,,,,,,,4,,,63,0
411360,note_on,0,0,1,,,,,,,,,1,,,80,48
411600,note_on,0,0,1,,,,,,,,,1,,,76,45
411600,note_off,240,0,1,,,,,,,,,1,,,80,0
411745,note_off,385,0,4,,,,,,,,,4,,,64,0
411745,note_off,385,0,5,,,,,,,,,5,,,52,0
411800,note_off,200,0,1,,,,,,,,,1,,,76,0
411840,note_on,95,0,5,,,,,,,,,5,,,57,50
411840,note_on,40,0,1,,,,,,,,,1,,,79,50
411840,note_on,95,0,4,,,,,,,,,4,,,61,50
412080,note_off,240,0,1,,,,,,,,,1,,,79,0
412080,note_on,0,0,1,,,,,,,,,1,,,81,46
412320,note_on,0,0,1,,,,,,,,,1,,,78,44
412320,note_off,480,0,5,,,,,,,,,5,,,57,0
412320,note_off,480,0,4,,,,,,,,,4,,,61,0
412320,note_on,0,0,4,,,,,,,,,4,,,62,44
412320,note_on,0,0,5,,,,,,,,,5,,,50,44
412320,note_off,240,0,1,,,,,,,,,1,,,81,0
412560,note_on,0,0,1,,,,,,,,,1,,,74,41
412560,note_off,240,0,1,,,,,,,,,1,,,78,0
412705,note_off,385,0,5,,,,,,,,,5,,,50,0
412705,note_off,385,0,4,,,,,,,,,4,,,62,0
412760,set_tempo,1880,1,0,,,,,,722891,,,,,,,
412765,note_off,205,0,1,,,,,,,,,1,,,74,0
412800,note_on,95,0,5,,,,,,,,,5,,,71,62
412800,note_on,35,0,1,,,,,,,,,1,,,86,62
412800,set_tempo,40,1,0,,,,,,689655,,,,,,,
413040,note_on,0,0,5,,,,,,,,,5,,,69,60
413040,note_on,0,0,1,,,,,,,,,1,,,85,60
413040,note_off,240,0,1,,,,,,,,,1,,,86,0
413040,note_off,240,0,5,,,,,,,,,5,,,71,0
413280,note_on,0,0,1,,,,,,,,,1,,,83,57
413280,note_off,240,0,1,,,,,,,,,1,,,85,0
413280,note_on,0,0,5,,,,,,,,,5,,,67,57
413280,note_off,240,0,5,,,,,,,,,5,,,69,0
413520,note_off,240,0,1,,,,,,,,,1,,,83,0
413520,note_on,0,0,1,,,,,,,,,1,,,82,55
413520,note_off,240,0,5,,,,,,,,,5,,,67,0
413520,note_on,0,0,5,,,,,,,,,5,,,66,55
413720,note_off,200,0,1,,,,,,,,,1,,,82,0
413720,note_off,200,0,5,,,,,,,,,5,,,66,0
413760,note_on,40,0,1,,,,,,,,,1,,,83,58
413760,note_on,40,0,5,,,,,,,,,5,,,67,58
414000,note_off,240,0,5,,,,,,,,,5,,,67,0
414000,note_off,240,0,1,,,,,,,,,1,,,83,0
414000,note_on,0,0,1,,,,,,,,,1,,,81,54
414000,note_on,0,0,5,,,,,,,,,5,,,66,54
414240,note_off,240,0,5,,,,,,,,,5,,,66,0
414240,note_off,240,0,1,,,,,,,,,1,,,81,0
414240,note_on,0,0,1,,,,,,,,,1,,,79,50
414240,note_on,0,0,5,,,,,,,,,5,,,64,50
414480,note_on,0,0,1,,,,,,,,,1,,,78,47
414480,note_off,240,0,1,,,,,,,,,1,,,79,0
414480,note_off,240,0,5,,,,,,,,,5,,,64,0
414480,note_on,0,0,5,,,,,,,,,5,,,62,47
414680,note_off,200,0,5,,,,,,,,,5,,,62,0
414680,note_off,200,0,1,,,,,,,,,1,,,78,0
414680,set_tempo,1880,1,0,,,,,,705882,,,,,,,
414720,note_on,4800,0,2,,,,,,,,,2,,,76,38
414720,note_on,40,0,5,,,,,,,,,5,,,61,38
414720,note_on,40,0,1,,,,,,,,,1,,,79,38
414720,note_on,2015,0,4,,,,,,,,,4,,,69,38
415105,note_off,385,0,2,,,,,,,,,2,,,76,0
415105,note_off,385,0,5,,,,,,,,,5,,,61,0
415105,note_off,385,0,1,,,,,,,,,1,,,79,0
415200,note_on,95,0,5,,,,,,,,,5,,,62,41
415200,note_on,95,0,1,,,,,,,,,1,,,78,41
415200,note_on,95,0,2,,,,,,,,,2,,,74,41
415585,note_off,385,0,1,,,,,,,,,1,,,78,0
415585,note_off,385,0,5,,,,,,,,,5,,,62,0
415585,note_off,385,0,2,,,,,,,,,2,,,74,0
415680,note_on,95,0,1,,,,,,,,,1,,,76,44
415680,note_on,95,0,5,,,,,,,,,5,,,61,44
416055,note_off,1335,0,4,,,,,,,,,4,,,69,0
416065,note_off,385,0,5,,,,,,,,,5,,,61,0
416065,note_off,385,0,1,,,,,,,,,1,,,76,0
416160,note_on,95,0,5,,,,,,,,,5,,,59,55
416160,note_on,95,0,1,,,,,,,,,1,,,74,55
416160,note_on,105,0,4,,,,,,,,,4,,,68,55
416545,note_off,385,0,4,,,,,,,,,4,,,68,0
416545,note_off,385,0,5,,,,,,,,,5,,,59,0
416545,note_off,385,0,1,,,,,,,,,1,,,74,0
416550,set_tempo,1870,1,0,,,,,,750000,,,,,,,
416640,note_on,95,0,1,,,,,,,,,1,,,78,61
416640,set_tempo,90,1,0,,,,,,731707,,,,,,,
416640,note_on,0,0,4,,,,,,,,,4,,,69,61
416640,note_on,95,0,4,,,,,,,,,4,,,62,61
416640,note_on,95,0,5,,,,,,,,,5,,,57,61
417600,note_on,0,0,1,,,,,,,,,1,,,76,41
417600,note_off,960,0,1,,,,,,,,,1,,,78,0
417600,set_tempo,960,1,0,,,,,,769230,,,,,,,
417600,note_off,960,0,4,,,,,,,,,4,,,69,0
417600,note_off,0,0,4,,,,,,,,,4,,,62,0
417600,note_on,0,0,4,,,,,,,,,4,,,69,41
417600,note_on,0,0,4,,,,,,,,,4,,,61,41
418015,note_off,415,0,1,,,,,,,,,1,,,76,0
418015,note_off,415,0,4,,,,,,,,,4,,,69,0
418020,note_off,5,0,4,,,,,,,,,4,,,61,0
418025,note_off,1385,0,5,,,,,,,,,5,,,57,0
418560,set_tempo,960,1,0,,,,,,689655,,,,,,,
419520,note_on,1505,0,1,,,,,,,,,1,,,69,54
419520,set_tempo,960,1,0,,,,,,705882,,,,,,,
419830,note_off,310,0,1,,,,,,,,,1,,,69,0
420000,note_on,170,0,1,,,,,,,,,1,,,69,57
420310,note_off,310,0,1,,,,,,,,,1,,,69,0
420345,set_tempo,825,1,0,,,,,,731707,,,,,,,
420480,control_change,10560,0,3,,,,,,,64,0,3,,,,
420480,control_change,2455,0,5,,,,,,,64,0,5,,,,
420480,note_on,170,0,1,,,,,,,,,1,,,74,59
420480,control_change,2460,0,4,,,,,,,64,0,4,,,,
420480,note_on,0,0,4,,,,,,,,,4,,,62,59
420480,set_tempo,135,1,0,,,,,,689655,,,,,,,
420540,control_change,60,0,5,,,,,,,64,127,5,,,,
420540,control_change,60,0,3,,,,,,,64,127,3,,,,
420540,control_change,60,0,4,,,,,,,64,127,4,,,,
420720,note_off,180,0,4,,,,,,,,,4,,,62,0
420720,note_on,180,0,3,,,,,,,,,3,,,69,59
420960,note_off,240,0,3,,,,,,,,,3,,,69,0
420960,note_on,0,0,3,,,,,,,,,3,,,66,59
421200,note_off,240,0,3,,,,,,,,,3,,,66,0
421200,note_on,0,0,3,,,,,,,,,3,,,69,60
421240,note_off,760,0,1,,,,,,,,,1,,,74,0
421380,control_change,660,0,4,,,,,,,64,0,4,,,,
421380,control_change,840,0,5,,,,,,,64,0,5,,,,
421380,control_change,180,0,3,,,,,,,64,0,3,,,,
421415,note_off,35,0,3,,,,,,,,,3,,,69,0
421440,control_change,60,0,5,,,,,,,64,127,5,,,,
421440,control_change,25,0,3,,,,,,,64,127,3,,,,
421440,note_on,200,0,1,,,,,,,,,1,,,73,61
421440,note_on,0,0,4,,,,,,,,,4,,,59,61
421440,control_change,60,0,4,,,,,,,64,127,4,,,,
421680,note_on,240,0,3,,,,,,,,,3,,,66,61
421680,note_off,240,0,4,,,,,,,,,4,,,59,0
421680,note_on,0,0,1,,,,,,,,,1,,,74,61
421680,note_off,240,0,1,,,,,,,,,1,,,73,0
421920,note_off,240,0,1,,,,,,,,,1,,,74,0
421920,note_on,0,0,1,,,,,,,,,1,,,76,62
421920,note_off,240,0,3,,,,,,,,,3,,,66,0
421920,note_on,0,0,3,,,,,,,,,3,,,62,62
422160,note_off,240,0,3,,,,,,,,,3,,,62,0
422160,note_on,0,0,3,,,,,,,,,3,,,66,62
422160,note_on,0,0,1,,,,,,,,,1,,,78,62
422160,note_off,240,0,1,,,,,,,,,1,,,76,0
422340,control_change,180,0,3,,,,,,,64,0,3,,,,
422340,set_tempo,1860,1,0,,,,,,705882,,,,,,,
422340,control_change,900,0,5,,,,,,,64,0,5,,,,
422340,control_change,660,0,4,,,,,,,64,0,4,,,,
422370,note_off,210,0,1,,,,,,,,,1,,,78,0
422375,note_off,35,0,3,,,,,,,,,3,,,66,0
422400,control_change,25,0,3,,,,,,,64,127,3,,,,
422400,control_change,60,0,5,,,,,,,64,127,5,,,,
422400,note_on,30,0,1,,,,,,,,,1,,,79,67
422400,set_tempo,60,1,0,,,,,,689655,,,,,,,
422400,note_on,0,0,4,,,,,,,,,4,,,55,67
422400,control_change,60,0,4,,,,,,,64,127,4,,,,
422640,note_off,240,0,1,,,,,,,,,1,,,79,0
422640,note_on,0,0,1,,,,,,,,,1,,,76,61
422640,note_on,240,0,3,,,,,,,,,3,,,64,61
422640,note_off,240,0,4,,,,,,,,,4,,,55,0
422830,note_off,190,0,1,,,,,,,,,1,,,76,0
422880,note_on,0,0,3,,,,,,,,,3,,,59,65
422880,note_on,50,0,1,,,,,,,,,1,,,79,65
422880,note_off,240,0,3,,,,,,,,,3,,,64,0
423120,note_off,240,0,3,,,,,,,,,3,,,59,0
423120,note_on,0,0,1,,,,,,,,,1,,,76,60
423120,note_on,0,0,3,,,,,,,,,3,,,64,60
423120,note_off,240,0,1,,,,,,,,,1,,,79,0
423300,control_change,660,0,4,,,,,,,64,0,4,,,,
423300,control_change,900,0,5,,,,,,,64,0,5,,,,
423300,control_change,180,0,3,,,,,,,64,0,3,,,,
423310,note_off,190,0,1,,,,,,,,,1,,,76,0
423330,note_off,30,0,3,,,,,,,,,3,,,64,0
423360,control_change,30,0,3,,,,,,,64,127,3,,,,
423360,control_change,60,0,4,,,,,,,64,127,4,,,,
423360,note_on,0,0,4,,,,,,,,,4,,,57,65
423360,control_change,60,0,5,,,,,,,64,127,5,,,,
423360,note_on,50,0,1,,,,,,,,,1,,,74,65
423600,note_off,240,0,4,,,,,,,,,4,,,57,0
423600,note_on,0,0,1,,,,,,,,,1,,,73,62
423600,note_off,240,0,1,,,,,,,,,1,,,74,0
423600,note_on,240,0,3,,,,,,,,,3,,,67,62
423840,note_off,240,0,3,,,,,,,,,3,,,67,0
423840,note_on,0,0,3,,,,,,,,,3,,,64,60
423840,note_on,0,0,1,,,,,,,,,1,,,71,60
423840,note_off,240,0,1,,,,,,,,,1,,,73,0
424080,note_off,240,0,3,,,,,,,,,3,,,64,0
424080,note_on,0,0,3,,,,,,,,,3,,,67,57
424080,note_on,0,0,1,,,,,,,,,1,,,69,57
424080,note_off,240,0,1,,,,,,,,,1,,,71,0
424260,control_change,180,0,3,,,,,,,64,0,3,,,,
424260,control_change,900,0,5,,,,,,,64,0,5,,,,
424260,control_change,660,0,4,,,,,,,64,0,4,,,,
424280,set_tempo,1880,1,0,,,,,,705882,,,,,,,
424290,note_off,30,0,3,,,,,,,,,3,,,67,0
424290,note_off,210,0,1,,,,,,,,,1,,,69,0
424320,note_on,60,0,5,,,,,,,,,5,,,62,71
424320,note_on,60,0,4,,,,,,,,,4,,,66,71
424320,note_on,30,0,1,,,,,,,,,1,,,81,71
424560,note_on,0,0,1,,,,,,,,,1,,,86,68
424560,note_off,240,0,1,,,,,,,,,1,,,81,0
424630,note_off,310,0,5,,,,,,,,,5,,,62,0
424630,note_off,310,0,4,,,,,,,,,4,,,66,0
424750,note_off,190,0,1,,,,,,,,,1,,,86,0
424800,note_on,170,0,5,,,,,,,,,5,,,55,66
424800,note_on,170,0,4,,,,,,,,,4,,,64,66
424800,note_on,50,0,1,,,,,,,,,1,,,83,66
425040,note_on,0,0,1,,,,,,,,,1,,,79,63
425040,note_off,240,0,1,,,,,,,,,1,,,83,0
425110,note_off,310,0,5,,,,,,,,,5,,,55,0
425110,note_off,310,0,4,,,,,,,,,4,,,64,0
425230,note_off,190,0,1,,,,,,,,,1,,,79,0
425280,note_on,50,0,1,,,,,,,,,1,,,78,69
425280,note_on,170,0,5,,,,,,,,,5,,,57,69
425280,note_on,170,0,4,,,,,,,,,4,,,62,69
425520,note_off,240,0,1,,,,,,,,,1,,,78,0
425520,note_on,0,0,1,,,,,,,,,1,,,81,66
425590,note_off,310,0,5,,,,,,,,,5,,,57,0
425590,note_off,310,0,4,,,,,,,,,4,,,62,0
425710,note_off,190,0,1,,,,,,,,,1,,,81,0
425760,note_on,170,0,4,,,,,,,,,4,,,61,63
425760,note_on,50,0,1,,,,,,,,,1,,,79,63
425760,note_on,170,0,5,,,,,,,,,5,,,57,63
426000,note_on,240,0,4,,,,,,,,,4,,,67,60
426000,note_off,240,0,1,,,,,,,,,1,,,79,0
426000,note_on,0,0,1,,,,,,,,,1,,,76,60
426015,set_tempo,1735,1,0,,,,,,731707,,,,,,,
426070,note_off,310,0,5,,,,,,,,,5,,,57,0
426070,note_off,70,0,4,,,,,,,,,4,,,61,0
426190,note_off,120,0,4,,,,,,,,,4,,,67,0
426190,note_off,190,0,1,,,,,,,,,1,,,76,0
426240,set_tempo,225,1,0,,,,,,750000,,,,,,,
426240,note_on,0,0,4,,,,,,,,,4,,,67,60
426240,note_on,50,0,4,,,,,,,,,4,,,57,60
426240,note_on,50,0,1,,,,,,,,,1,,,76,60
426240,note_on,0,0,4,,,,,,,,,4,,,62,60
426240,note_on,170,0,5,,,,,,,,,5,,,50,60
426720,note_on,0,0,1,,,,,,,,,1,,,74,50
426720,note_off,480,0,1,,,,,,,,,1,,,76,0
426720,note_on,0,0,4,,,,,,,,,4,,,66,50
426720,set_tempo,480,1,0,,,,,,1071428,,,,,,,
426720,note_off,480,0,4,,,,,,,,,4,,,67,0
426952,note_off,712,0,5,,,,,,,,,5,,,50,0
426960,set_tempo,240,1,0,,,,,,2727272,,,,,,,
426960,note_off,240,0,4,,,,,,,,,4,,,66,0
426960,note_off,0,0,4,,,,,,,,,4,,,57,0
426960,note_off,240,0,1,,,,,,,,,1,,,74,0
426967,note_off,7,0,4,,,,,,,,,4,,,62,0
427200,control_change,233,0,4,,,,,,,64,0,4,,,,
427200,control_change,11615,0,2,,,,,,,64,0,2,,,,
427200,set_tempo,240,1,0,,,,,,600000,,,,,,,
427200,control_change,248,0,5,,,,,,,64,0,5,,,,
427200,control_change,2910,0,3,,,,,,,64,0,3,,,,
427200,control_change,240,0,1,,,,,,,64,0,1,,,,
427200,note_on,0,0,1,,,,,,,,,1,,,69,42
427200,marker,0,1,0,,,,,,,,,,,,,
427360,note_off,160,0,1,,,,,,,,,1,,,69,0
427360,note_on,0,0,1,,,,,,,,,1,,,71,42
427520,note_off,160,0,1,,,,,,,,,1,,,71,0
427520,note_on,0,0,1,,,,,,,,,1,,,68,42
427680,note_on,0,0,1,,,,,,,,,1,,,69,43
427680,note_off,160,0,1,,,,,,,,,1,,,68,0
427840,note_on,0,0,1,,,,,,,,,1,,,71,43
427840,note_off,160,0,1,,,,,,,,,1,,,69,0
428000,note_off,160,0,1,,,,,,,,,1,,,71,0
428000,note_on,0,0,1,,,,,,,,,1,,,73,43
428107,set_tempo,907,1,0,,,,,,612244,,,,,,,
428130,note_off,130,0,1,,,,,,,,,1,,,73,0
428160,note_on,960,0,5,,,,,,,,,5,,,50,44
428160,set_tempo,53,1,0,,,,,,588235,,,,,,,
428160,note_on,960,0,4,,,,,,,,,4,,,54,44
428160,note_on,30,0,1,,,,,,,,,1,,,74,44
428320,note_off,160,0,1,,,,,,,,,1,,,74,0
428320,note_on,0,0,1,,,,,,,,,1,,,76,44
428470,note_off,310,0,5,,,,,,,,,5,,,50,0
428470,note_off,310,0,4,,,,,,,,,4,,,54,0
428480,note_off,160,0,1,,,,,,,,,1,,,76,0
428480,note_on,0,0,1,,,,,,,,,1,,,73,44
428640,note_off,160,0,1,,,,,,,,,1,,,73,0
428640,note_on,0,0,1,,,,,,,,,1,,,74,45
428800,note_off,160,0,1,,,,,,,,,1,,,74,0
428800,note_on,0,0,1,,,,,,,,,1,,,76,45
428960,note_off,160,0,1,,,,,,,,,1,,,76,0
428960,note_on,0,0,1,,,,,,,,,1,,,73,45
429090,note_off,130,0,1,,,,,,,,,1,,,73,0
429120,note_on,30,0,1,,,,,,,,,1,,,74,46
429120,note_on,650,0,5,,,,,,,,,5,,,54,46
429120,note_on,650,0,4,,,,,,,,,4,,,57,46
429280,note_off,160,0,1,,,,,,,,,1,,,74,0
429280,note_on,0,0,1,,,,,,,,,1,,,78,46
429430,note_off,310,0,5,,,,,,,,,5,,,54,0
429430,note_off,310,0,4,,,,,,,,,4,,,57,0
429440,note_off,160,0,1,,,,,,,,,1,,,78,0
429440,note_on,0,0,1,,,,,,,,,1,,,76,46
429600,note_off,160,0,1,,,,,,,,,1,,,76,0
429600,note_on,0,0,1,,,,,,,,,1,,,74,46
429760,note_on,0,0,1,,,,,,,,,1,,,76,47
429760,note_off,160,0,1,,,,,,,,,1,,,74,0
429920,note_on,0,0,1,,,,,,,,,1,,,78,47
429920,note_off,160,0,1,,,,,,,,,1,,,76,0
430020,set_tempo,1860,1,0,,,,,,600000,,,,,,,
430050,note_off,130,0,1,,,,,,,,,1,,,78,0
430080,set_tempo,60,1,0,,,,,,588235,,,,,,,
430080,note_on,30,0,1,,,,,,,,,1,,,79,47
430080,note_on,650,0,4,,,,,,,,,4,,,59,47
430080,note_on,650,0,5,,,,,,,,,5,,,52,47
430240,note_off,160,0,1,,,,,,,,,1,,,79,0
430240,note_on,0,0,1,,,,,,,,,1,,,81,48
430390,note_off,310,0,4,,,,,,,,,4,,,59,0
430390,note_off,310,0,5,,,,,,,,,5,,,52,0
430400,note_off,160,0,1,,,,,,,,,1,,,81,0
430400,note_on,0,0,1,,,,,,,,,1,,,78,48
430560,note_off,160,0,1,,,,,,,,,1,,,78,0
430560,note_on,0,0,1,,,,,,,,,1,,,79,48
430720,note_on,0,0,1,,,,,,,,,1,,,76,49
430720,note_off,160,0,1,,,,,,,,,1,,,79,0
430880,note_off,160,0,1,,,,,,,,,1,,,76,0
430880,note_on,0,0,1,,,,,,,,,1,,,74,49
431010,note_off,130,0,1,,,,,,,,,1,,,74,0
431040,note_on,650,0,5,,,,,,,,,5,,,57,49
431040,note_on,30,0,1,,,,,,,,,1,,,73,49
431200,note_off,160,0,1,,,,,,,,,1,,,73,0
431200,note_on,0,0,1,,,,,,,,,1,,,76,50
431350,note_off,310,0,5,,,,,,,,,5,,,57,0
431360,note_off,160,0,1,,,,,,,,,1,,,76,0
431360,note_on,0,0,1,,,,,,,,,1,,,75,50
431520,note_on,0,0,1,,,,,,,,,1,,,76,50
431520,note_off,160,0,1,,,,,,,,,1,,,75,0
431680,note_on,0,0,1,,,,,,,,,1,,,78,51
431680,note_off,160,0,1,,,,,,,,,1,,,76,0
431840,note_off,160,0,1,,,,,,,,,1,,,78,0
431840,note_on,0,0,1,,,,,,,,,1,,,79,51
431940,set_tempo,1860,1,0,,,,,,600000,,,,,,,
431970,note_off,130,0,1,,,,,,,,,1,,,79,0
432000,set_tempo,60,1,0,,,,,,588235,,,,,,,
432000,note_on,650,0,5,,,,,,,,,5,,,54,50
432000,note_on,1610,0,4,,,,,,,,,4,,,62,50
432000,note_on,30,0,1,,,,,,,,,1,,,80,50
432160,note_on,0,0,1,,,,,,,,,1,,,81,52
432160,note_off,160,0,1,,,,,,,,,1,,,80,0
432320,note_off,160,0,1,,,,,,,,,1,,,81,0
432320,note_on,0,0,1,,,,,,,,,1,,,78,54
432450,note_off,130,0,1,,,,,,,,,1,,,78,0
432480,note_on,30,0,1,,,,,,,,,1,,,80,56
432640,note_on,0,0,1,,,,,,,,,1,,,81,57
432640,note_off,160,0,1,,,,,,,,,1,,,80,0
432770,note_off,770,0,5,,,,,,,,,5,,,54,0
432770,note_off,770,0,4,,,,,,,,,4,,,62,0
432800,note_on,0,0,1,,,,,,,,,1,,,78,59
432800,note_off,160,0,1,,,,,,,,,1,,,81,0
432930,note_off,130,0,1,,,,,,,,,1,,,78,0
432960,note_on,190,0,4,,,,,,,,,4,,,62,61
432960,note_on,30,0,1,,,,,,,,,1,,,82,61
432960,note_on,190,0,5,,,,,,,,,5,,,55,61
433120,note_on,0,0,1,,,,,,,,,1,,,83,62
433120,note_off,160,0,1,,,,,,,,,1,,,82,0
433280,note_off,160,0,1,,,,,,,,,1,,,83,0
433280,note_on,0,0,1,,,,,,,,,1,,,79,64
433410,note_off,130,0,1,,,,,,,,,1,,,79,0
433440,note_on,30,0,1,,,,,,,,,1,,,82,66
433600,note_off,160,0,1,,,,,,,,,1,,,82,0
433600,note_on,0,0,1,,,,,,,,,1,,,83,67
433730,note_off,770,0,4,,,,,,,,,4,,,62,0
433730,note_off,770,0,5,,,,,,,,,5,,,55,0
433760,note_off,160,0,1,,,,,,,,,1,,,83,0
433760,note_on,0,0,1,,,,,,,,,1,,,79,69
433867,set_tempo,1867,1,0,,,,,,600000,,,,,,,
433890,note_off,130,0,1,,,,,,,,,1,,,79,0
433920,note_on,190,0,4,,,,,,,,,4,,,62,71
433920,set_tempo,53,1,0,,,,,,600000,,,,,,,
433920,note_on,190,0,5,,,,,,,,,5,,,57,71
433920,note_on,30,0,1,,,,,,,,,1,,,78,71
434400,note_on,0,0,1,,,,,,,,,1,,,76,53
434400,note_on,0,0,4,,,,,,,,,4,,,61,53
434400,note_off,480,0,4,,,,,,,,,4,,,62,0
434400,note_off,480,0,1,,,,,,,,,1,,,78,0
434400,set_tempo,480,1,0,,,,,,638297,,,,,,,
434775,note_off,855,0,5,,,,,,,,,5,,,57,0
434785,note_off,385,0,4,,,,,,,,,4,,,61,0
434785,note_off,385,0,1,,,,,,,,,1,,,76,0
434880,set_tempo,480,1,0,,,,,,588235,,,,,,,
434880,control_change,95,0,1,,,,,,,64,0,1,,,,
434880,note_on,0,0,1,,,,,,,,,1,,,69,64
435040,note_on,160,0,1,,,,,,,,,1,,,71,64
435045,note_off,5,0,1,,,,,,,,,1,,,69,0
435195,note_off,150,0,1,,,,,,,,,1,,,71,0
435200,note_on,5,0,1,,,,,,,,,1,,,68,64
435330,note_off,130,0,1,,,,,,,,,1,,,68,0
435360,note_on,30,0,1,,,,,,,,,1,,,69,64
435515,note_off,155,0,1,,,,,,,,,1,,,69,0
435520,note_on,5,0,1,,,,,,,,,1,,,71,65
435680,note_on,0,0,1,,,,,,,,,1,,,73,65
435680,note_off,160,0,1,,,,,,,,,1,,,71,0
435780,set_tempo,900,1,0,,,,,,600000,,,,,,,
435810,note_off,130,0,1,,,,,,,,,1,,,73,0
435840,set_tempo,60,1,0,,,,,,588235,,,,,,,
435840,note_on,30,0,1,,,,,,,,,1,,,74,65
435995,note_off,155,0,1,,,,,,,,,1,,,74,0
436000,note_on,5,0,1,,,,,,,,,1,,,76,65
436155,note_off,155,0,1,,,,,,,,,1,,,76,0
436160,note_on,5,0,1,,,,,,,,,1,,,73,65
436290,note_off,130,0,1,,,,,,,,,1,,,73,0
436320,note_on,1535,0,4,,,,,,,,,4,,,69,65
436320,note_on,1545,0,5,,,,,,,,,5,,,66,65
436320,note_on,30,0,1,,,,,,,,,1,,,74,65
436450,note_off,130,0,1,,,,,,,,,1,,,74,0
436480,note_on,30,0,1,,,,,,,,,1,,,86,66
436630,note_off,310,0,4,,,,,,,,,4,,,69,0
436630,note_off,310,0,5,,,,,,,,,5,,,66,0
436640,note_off,160,0,1,,,,,,,,,1,,,86,0
436640,note_on,0,0,1,,,,,,,,,1,,,85,66
436800,note_on,0,0,1,,,,,,,,,1,,,83,66
436800,note_off,160,0,1,,,,,,,,,1,,,85,0
436955,note_off,155,0,1,,,,,,,,,1,,,83,0
436960,note_on,5,0,1,,,,,,,,,1,,,85,66
437120,note_off,160,0,1,,,,,,,,,1,,,85,0
437120,note_on,0,0,1,,,,,,,,,1,,,82,66
437280,note_on,160,0,1,,,,,,,,,1,,,83,67
437280,note_on,650,0,5,,,,,,,,,5,,,62,67
437280,note_on,650,0,4,,,,,,,,,4,,,66,67
437285,note_off,5,0,1,,,,,,,,,1,,,82,0
437400,note_off,115,0,1,,,,,,,,,1,,,83,0
437440,note_on,40,0,1,,,,,,,,,1,,,85,67
437590,note_off,310,0,5,,,,,,,,,5,,,62,0
437590,note_off,310,0,4,,,,,,,,,4,,,66,0
437595,note_off,155,0,1,,,,,,,,,1,,,85,0
437600,note_on,5,0,1,,,,,,,,,1,,,81,67
437720,set_tempo,1880,1,0,,,,,,612244,,,,,,,
437760,note_on,160,0,1,,,,,,,,,1,,,80,67
437765,note_off,5,0,1,,,,,,,,,1,,,81,0
437773,set_tempo,53,1,0,,,,,,588235,,,,,,,
437920,note_on,155,0,1,,,,,,,,,1,,,81,67
437930,note_off,10,0,1,,,,,,,,,1,,,80,0
438080,note_off,150,0,1,,,,,,,,,1,,,81,0
438080,note_on,0,0,1,,,,,,,,,1,,,78,68
438240,note_on,160,0,1,,,,,,,,,1,,,80,68
438240,note_on,650,0,4,,,,,,,,,4,,,62,68
438240,note_on,650,0,5,,,,,,,,,5,,,59,68
438245,note_off,5,0,1,,,,,,,,,1,,,78,0
438370,note_off,125,0,1,,,,,,,,,1,,,80,0
438400,note_on,30,0,1,,,,,,,,,1,,,81,68
438550,note_off,310,0,4,,,,,,,,,4,,,62,0
438550,note_off,310,0,5,,,,,,,,,5,,,59,0
438560,note_on,0,0,1,,,,,,,,,1,,,78,68
438560,note_off,160,0,1,,,,,,,,,1,,,81,0
438720,note_on,160,0,1,,,,,,,,,1,,,76,68
438725,note_off,5,0,1,,,,,,,,,1,,,78,0
438850,note_off,125,0,1,,,,,,,,,1,,,76,0
438880,note_on,30,0,1,,,,,,,,,1,,,78,68
439010,note_off,130,0,1,,,,,,,,,1,,,78,0
439040,note_on,30,0,1,,,,,,,,,1,,,75,69
439200,note_on,650,0,4,,,,,,,,,4,,,59,69
439200,note_on,650,0,5,,,,,,,,,5,,,56,69
439200,note_on,160,0,1,,,,,,,,,1,,,76,69
439205,note_off,5,0,1,,,,,,,,,1,,,75,0
439360,note_off,155,0,1,,,,,,,,,1,,,76,0
439360,note_on,0,0,1,,,,,,,,,1,,,78,69
439510,note_off,310,0,5,,,,,,,,,5,,,56,0
439510,note_off,310,0,4,,,,,,,,,4,,,59,0
439520,note_off,160,0,1,,,,,,,,,1,,,78,0
439520,note_on,0,0,1,,,,,,,,,1,,,74,69
439620,set_tempo,1847,1,0,,,,,,600000,,,,,,,
439650,note_off,130,0,1,,,,,,,,,1,,,74,0
439680,note_on,170,0,5,,,,,,,,,5,,,57,68
439680,note_on,30,0,1,,,,,,,,,1,,,73,68
439680,set_tempo,60,1,0,,,,,,588235,,,,,,,
439840,note_on,160,0,1,,,,,,,,,1,,,76,69
439860,note_off,20,0,1,,,,,,,,,1,,,73,0
439990,note_off,310,0,5,,,,,,,,,5,,,57,0
440000,note_off,140,0,1,,,,,,,,,1,,,76,0
440000,note_on,0,0,1,,,,,,,,,1,,,81,70
440130,note_off,130,0,1,,,,,,,,,1,,,81,0
440160,note_on,170,0,5,,,,,,,,,5,,,50,71
440160,note_on,650,0,4,,,,,,,,,4,,,59,71
440160,note_on,30,0,1,,,,,,,,,1,,,77,71
440320,note_on,160,0,1,,,,,,,,,1,,,78,72
440330,note_off,10,0,1,,,,,,,,,1,,,77,0
440470,note_off,310,0,5,,,,,,,,,5,,,50,0
440470,note_off,310,0,4,,,,,,,,,4,,,59,0
440480,note_on,150,0,1,,,,,,,,,1,,,74,73
440490,note_off,10,0,1,,,,,,,,,1,,,78,0
440610,note_off,120,0,1,,,,,,,,,1,,,74,0
440640,note_on,30,0,1,,,,,,,,,1,,,75,74
440640,note_on,170,0,5,,,,,,,,,5,,,52,74
440640,note_on,170,0,4,,,,,,,,,4,,,61,74
440800,note_on,160,0,1,,,,,,,,,1,,,76,75
440805,note_off,5,0,1,,,,,,,,,1,,,75,0
440950,note_off,310,0,4,,,,,,,,,4,,,61,0
440950,note_off,310,0,5,,,,,,,,,5,,,52,0
440960,note_on,155,0,1,,,,,,,,,1,,,73,76
440970,note_off,10,0,1,,,,,,,,,1,,,76,0
441090,note_off,120,0,1,,,,,,,,,1,,,73,0
441120,note_on,170,0,5,,,,,,,,,5,,,52,77
441120,note_on,170,0,4,,,,,,,,,4,,,56,77
441120,note_on,30,0,1,,,,,,,,,1,,,73,77
441120,note_on,0,0,4,,,,,,,,,4,,,62,77
441280,note_on,160,0,1,,,,,,,,,1,,,74,79
441290,note_off,10,0,1,,,,,,,,,1,,,73,0
441430,note_off,310,0,5,,,,,,,,,5,,,52,0
441430,note_off,0,0,4,,,,,,,,,4,,,56,0
441430,note_off,310,0,4,,,,,,,,,4,,,62,0
441440,note_on,0,0,1,,,,,,,,,1,,,71,80
441440,note_off,150,0,1,,,,,,,,,1,,,74,0
441560,set_tempo,1880,1,0,,,,,,600000,,,,,,,
441570,note_off,130,0,1,,,,,,,,,1,,,71,0
441600,note_on,170,0,5,,,,,,,,,5,,,57,79
441600,note_on,170,0,4,,,,,,,,,4,,,62,79
441600,note_on,30,0,1,,,,,,,,,1,,,71,82
441600,set_tempo,40,1,0,,,,,,600000,,,,,,,
442080,set_tempo,480,1,0,,,,,,652173,,,,,,,
442080,note_off,480,0,4,,,,,,,,,4,,,62,0
442080,note_off,480,0,1,,,,,,,,,1,,,71,0
442080,note_on,0,0,4,,,,,,,,,4,,,61,63
442080,note_on,0,0,1,,,,,,,,,1,,,69,63
442460,note_off,860,0,5,,,,,,,,,5,,,57,0
442465,note_off,385,0,1,,,,,,,,,1,,,69,0
442465,note_off,385,0,4,,,,,,,,,4,,,61,0
442560,note_on,0,0,1,,,,,,,,,1,,,69,42
442560,set_tempo,480,1,0,,,,,,600000,,,,,,,
442560,control_change,15360,0,2,,,,,,,64,0,2,,,,
442560,control_change,95,0,4,,,,,,,64,0,4,,,,
442560,control_change,100,0,5,,,,,,,64,0,5,,,,
442560,control_change,15360,0,3,,,,,,,64,0,3,,,,
442560,control_change,95,0,1,,,,,,,64,0,1,,,,
442720,note_on,0,0,1,,,,,,,,,1,,,71,42
442720,note_off,160,0,1,,,,,,,,,1,,,69,0
442880,note_on,0,0,1,,,,,,,,,1,,,68,42
442880,note_off,160,0,1,,,,,,,,,1,,,71,0
443040,note_off,160,0,1,,,,,,,,,1,,,68,0
443040,note_on,0,0,1,,,,,,,,,1,,,69,43
443200,note_off,160,0,1,,,,,,,,,1,,,69,0
443200,note_on,0,0,1,,,,,,,,,1,,,71,43
443360,note_off,160,0,1,,,,,,,,,1,,,71,0
443360,note_on,0,0,1,,,,,,,,,1,,,73,43
443467,set_tempo,907,1,0,,,,,,612244,,,,,,,
443490,note_off,130,0,1,,,,,,,,,1,,,73,0
443520,note_on,960,0,4,,,,,,,,,4,,,54,44
443520,note_on,30,0,1,,,,,,,,,1,,,74,44
443520,note_on,960,0,5,,,,,,,,,5,,,50,44
443520,set_tempo,53,1,0,,,,,,588235,,,,,,,
443680,note_off,160,0,1,,,,,,,,,1,,,74,0
443680,note_on,0,0,1,,,,,,,,,1,,,76,44
443830,note_off,310,0,5,,,,,,,,,5,,,50,0
443830,note_off,310,0,4,,,,,,,,,4,,,54,0
443840,note_off,160,0,1,,,,,,,,,1,,,76,0
443840,note_on,0,0,1,,,,,,,,,1,,,73,44
444000,note_off,160,0,1,,,,,,,,,1,,,73,0
444000,note_on,0,0,1,,,,,,,,,1,,,74,45
444160,note_off,160,0,1,,,,,,,,,1,,,74,0
444160,note_on,0,0,1,,,,,,,,,1,,,76,45
444320,note_on,0,0,1,,,,,,,,,1,,,73,45
444320,note_off,160,0,1,,,,,,,,,1,,,76,0
444450,note_off,130,0,1,,,,,,,,,1,,,73,0
444480,note_on,30,0,1,,,,,,,,,1,,,74,46
444480,note_on,650,0,4,,,,,,,,,4,,,57,46
444480,note_on,650,0,5,,,,,,,,,5,,,54,46
444640,note_off,160,0,1,,,,,,,,,1,,,74,0
444640,note_on,0,0,1,,,,,,,,,1,,,78,46
444790,note_off,310,0,5,,,,,,,,,5,,,54,0
444790,note_off,310,0,4,,,,,,,,,4,,,57,0
444800,note_on,0,0,1,,,,,,,,,1,,,76,46
444800,note_off,160,0,1,,,,,,,,,1,,,78,0
444960,note_off,160,0,1,,,,,,,,,1,,,76,0
444960,note_on,0,0,1,,,,,,,,,1,,,74,46
445120,note_off,160,0,1,,,,,,,,,1,,,74,0
445120,note_on,0,0,1,,,,,,,,,1,,,76,47
445280,note_off,160,0,1,,,,,,,,,1,,,76,0
445280,note_on,0,0,1,,,,,,,,,1,,,78,47
445380,set_tempo,1860,1,0,,,,,,600000,,,,,,,
445410,note_off,130,0,1,,,,,,,,,1,,,78,0
445440,note_on,650,0,5,,,,,,,,,5,,,52,47
445440,set_tempo,60,1,0,,,,,,588235,,,,,,,
445440,note_on,30,0,1,,,,,,,,,1,,,79,47
445440,note_on,650,0,4,,,,,,,,,4,,,59,47
445600,note_on,0,0,1,,,,,,,,,1,,,81,48
445600,note_off,160,0,1,,,,,,,,,1,,,79,0
445750,note_off,310,0,4,,,,,,,,,4,,,59,0
445750,note_off,310,0,5,,,,,,,,,5,,,52,0
445760,note_off,160,0,1,,,,,,,,,1,,,81,0
445760,note_on,0,0,1,,,,,,,,,1,,,78,48
445920,note_on,0,0,1,,,,,,,,,1,,,79,48
445920,note_off,160,0,1,,,,,,,,,1,,,78,0
446080,note_on,0,0,1,,,,,,,,,1,,,76,49
446080,note_off,160,0,1,,,,,,,,,1,,,79,0
446240,note_off,160,0,1,,,,,,,,,1,,,76,0
446240,note_on,0,0,1,,,,,,,,,1,,,74,49
446370,note_off,130,0,1,,,,,,,,,1,,,74,0
446400,note_on,650,0,5,,,,,,,,,5,,,57,49
446400,note_on,30,0,1,,,,,,,,,1,,,73,49
446560,note_off,160,0,1,,,,,,,,,1,,,73,0
446560,note_on,0,0,1,,,,,,,,,1,,,76,50
446710,note_off,310,0,5,,,,,,,,,5,,,57,0
446720,note_off,160,0,1,,,,,,,,,1,,,76,0
446720,note_on,0,0,1,,,,,,,,,1,,,75,50
446880,note_on,0,0,1,,,,,,,,,1,,,76,50
446880,note_off,160,0,1,,,,,,,,,1,,,75,0
447040,note_off,160,0,1,,,,,,,,,1,,,76,0
447040,note_on,0,0,1,,,,,,,,,1,,,78,51
447200,note_on,0,0,1,,,,,,,,,1,,,79,51
447200,note_off,160,0,1,,,,,,,,,1,,,78,0
447300,set_tempo,1860,1,0,,,,,,600000,,,,,,,
447330,note_off,130,0,1,,,,,,,,,1,,,79,0
447360,note_on,650,0,5,,,,,,,,,5,,,54,50
447360,set_tempo,60,1,0,,,,,,588235,,,,,,,
447360,note_on,30,0,1,,,,,,,,,1,,,80,50
447360,note_on,1610,0,4,,,,,,,,,4,,,62,50
447520,note_on,0,0,1,,,,,,,,,1,,,81,52
447520,note_off,160,0,1,,,,,,,,,1,,,80,0
447680,note_off,160,0,1,,,,,,,,,1,,,81,0
447680,note_on,0,0,1,,,,,,,,,1,,,78,54
447810,note_off,130,0,1,,,,,,,,,1,,,78,0
447840,note_on,30,0,1,,,,,,,,,1,,,80,56
448000,note_on,0,0,1,,,,,,,,,1,,,81,57
448000,note_off,160,0,1,,,,,,,,,1,,,80,0
448130,note_off,770,0,4,,,,,,,,,4,,,62,0
448130,note_off,770,0,5,,,,,,,,,5,,,54,0
448160,note_off,160,0,1,,,,,,,,,1,,,81,0
448160,note_on,0,0,1,,,,,,,,,1,,,78,59
448290,note_off,130,0,1,,,,,,,,,1,,,78,0
448320,note_on,190,0,5,,,,,,,,,5,,,55,61
448320,note_on,30,0,1,,,,,,,,,1,,,82,61
448320,note_on,190,0,4,,,,,,,,,4,,,62,61
448480,note_on,0,0,1,,,,,,,,,1,,,83,62
448480,note_off,160,0,1,,,,,,,,,1,,,82,0
448640,note_on,0,0,1,,,,,,,,,1,,,79,64
448640,note_off,160,0,1,,,,,,,,,1,,,83,0
448770,note_off,130,0,1,,,,,,,,,1,,,79,0
448800,note_on,30,0,1,,,,,,,,,1,,,82,66
448960,note_off,160,0,1,,,,,,,,,1,,,82,0
448960,note_on,0,0,1,,,,,,,,,1,,,83,67
449090,note_off,770,0,4,,,,,,,,,4,,,62,0
449090,note_off,770,0,5,,,,,,,,,5,,,55,0
449120,note_off,160,0,1,,,,,,,,,1,,,83,0
449120,note_on,0,0,1,,,,,,,,,1,,,79,69
449227,set_tempo,1867,1,0,,,,,,600000,,,,,,,
449250,note_off,130,0,1,,,,,,,,,1,,,79,0
449280,note_on,190,0,5,,,,,,,,,5,,,57,71
449280,set_tempo,53,1,0,,,,,,600000,,,,,,,
449280,note_on,190,0,4,,,,,,,,,4,,,62,71
449280,note_on,30,0,1,,,,,,,,,1,,,78,71
449760,note_on,0,0,1,,,,,,,,,1,,,76,53
449760,note_off,480,0,1,,,,,,,,,1,,,78,0
449760,note_off,480,0,4,,,,,,,,,4,,,62,0
449760,set_tempo,480,1,0,,,,,,638297,,,,,,,
449760,note_on,0,0,4,,,,,,,,,4,,,61,53
450135,note_off,855,0,5,,,,,,,,,5,,,57,0
450145,note_off,385,0,1,,,,,,,,,1,,,76,0
450145,note_off,385,0,4,,,,,,,,,4,,,61,0
450240,control_change,95,0,1,,,,,,,64,0,1,,,,
450240,note_on,0,0,1,,,,,,,,,1,,,69,64
450240,set_tempo,480,1,0,,,,,,588235,,,,,,,
450400,note_on,160,0,1,,,,,,,,,1,,,71,64
450405,note_off,5,0,1,,,,,,,,,1,,,69,0
450555,note_off,150,0,1,,,,,,,,,1,,,71,0
450560,note_on,5,0,1,,,,,,,,,1,,,68,64
450690,note_off,130,0,1,,,,,,,,,1,,,68,0
450720,note_on,30,0,1,,,,,,,,,1,,,69,64
450875,note_off,155,0,1,,,,,,,,,1,,,69,0
450880,note_on,5,0,1,,,,,,,,,1,,,71,65
451040,note_on,0,0,1,,,,,,,,,1,,,73,65
451040,note_off,160,0,1,,,,,,,,,1,,,71,0
451140,set_tempo,900,1,0,,,,,,600000,,,,,,,
451170,note_off,130,0,1,,,,,,,,,1,,,73,0
451200,set_tempo,60,1,0,,,,,,588235,,,,,,,
451200,note_on,30,0,1,,,,,,,,,1,,,74,65
451355,note_off,155,0,1,,,,,,,,,1,,,74,0
451360,note_on,5,0,1,,,,,,,,,1,,,76,65
451515,note_off,155,0,1,,,,,,,,,1,,,76,0
451520,note_on,5,0,1,,,,,,,,,1,,,73,65
451650,note_off,130,0,1,,,,,,,,,1,,,73,0
451680,note_on,1545,0,5,,,,,,,,,5,,,66,65
451680,note_on,30,0,1,,,,,,,,,1,,,74,65
451680,note_on,1535,0,4,,,,,,,,,4,,,69,65
451810,note_off,130,0,1,,,,,,,,,1,,,74,0
451840,note_on,30,0,1,,,,,,,,,1,,,86,66
451990,note_off,310,0,5,,,,,,,,,5,,,66,0
451990,note_off,310,0,4,,,,,,,,,4,,,69,0
452000,note_off,160,0,1,,,,,,,,,1,,,86,0
452000,note_on,0,0,1,,,,,,,,,1,,,85,66
452160,note_off,160,0,1,,,,,,,,,1,,,85,0
452160,note_on,0,0,1,,,,,,,,,1,,,83,66
452315,note_off,155,0,1,,,,,,,,,1,,,83,0
452320,note_on,5,0,1,,,,,,,,,1,,,85,66
452480,note_off,160,0,1,,,,,,,,,1,,,85,0
452480,note_on,0,0,1,,,,,,,,,1,,,82,66
452640,note_on,650,0,4,,,,,,,,,4,,,66,67
452640,note_on,160,0,1,,,,,,,,,1,,,83,67
452640,note_on,650,0,5,,,,,,,,,5,,,62,67
452645,note_off,5,0,1,,,,,,,,,1,,,82,0
452760,note_off,115,0,1,,,,,,,,,1,,,83,0
452800,note_on,40,0,1,,,,,,,,,1,,,85,67
452950,note_off,310,0,5,,,,,,,,,5,,,62,0
452950,note_off,310,0,4,,,,,,,,,4,,,66,0
452955,note_off,155,0,1,,,,,,,,,1,,,85,0
452960,note_on,5,0,1,,,,,,,,,1,,,81,67
453080,set_tempo,1880,1,0,,,,,,612244,,,,,,,
453120,note_on,160,0,1,,,,,,,,,1,,,80,67
453125,note_off,5,0,1,,,,,,,,,1,,,81,0
453133,set_tempo,53,1,0,,,,,,588235,,,,,,,
453280,note_on,155,0,1,,,,,,,,,1,,,81,67
453290,note_off,10,0,1,,,,,,,,,1,,,80,0
453440,note_on,0,0,1,,,,,,,,,1,,,78,68
453440,note_off,150,0,1,,,,,,,,,1,,,81,0
453600,note_on,160,0,1,,,,,,,,,1,,,80,68
453600,note_on,650,0,5,,,,,,,,,5,,,59,68
453600,note_on,650,0,4,,,,,,,,,4,,,62,68
453605,note_off,5,0,1,,,,,,,,,1,,,78,0
453730,note_off,125,0,1,,,,,,,,,1,,,80,0
453760,note_on,30,0,1,,,,,,,,,1,,,81,68
453910,note_off,310,0,5,,,,,,,,,5,,,59,0
453910,note_off,310,0,4,,,,,,,,,4,,,62,0
453920,note_off,160,0,1,,,,,,,,,1,,,81,0
453920,note_on,0,0,1,,,,,,,,,1,,,78,68
454080,note_on,160,0,1,,,,,,,,,1,,,76,68
454085,note_off,5,0,1,,,,,,,,,1,,,78,0
454210,note_off,125,0,1,,,,,,,,,1,,,76,0
454240,note_on,30,0,1,,,,,,,,,1,,,78,68
454370,note_off,130,0,1,,,,,,,,,1,,,78,0
454400,note_on,30,0,1,,,,,,,,,1,,,75,69
454560,note_on,160,0,1,,,,,,,,,1,,,76,69
454560,note_on,650,0,4,,,,,,,,,4,,,59,69
454560,note_on,650,0,5,,,,,,,,,5,,,56,69
454565,note_off,5,0,1,,,,,,,,,1,,,75,0
454720,note_off,155,0,1,,,,,,,,,1,,,76,0
454720,note_on,0,0,1,,,,,,,,,1,,,78,69
454870,note_off,310,0,4,,,,,,,,,4,,,59,0
454870,note_off,310,0,5,,,,,,,,,5,,,56,0
454880,note_off,160,0,1,,,,,,,,,1,,,78,0
454880,note_on,0,0,1,,,,,,,,,1,,,74,69
454980,set_tempo,1847,1,0,,,,,,600000,,,,,,,
455010,note_off,130,0,1,,,,,,,,,1,,,74,0
455040,note_on,30,0,1,,,,,,,,,1,,,73,68
455040,set_tempo,60,1,0,,,,,,588235,,,,,,,
455040,note_on,170,0,5,,,,,,,,,5,,,57,68
455200,note_on,160,0,1,,,,,,,,,1,,,76,69
455220,note_off,20,0,1,,,,,,,,,1,,,73,0
455350,note_off,310,0,5,,,,,,,,,5,,,57,0
455360,note_on,0,0,1,,,,,,,,,1,,,81,70
455360,note_off,140,0,1,,,,,,,,,1,,,76,0
455490,note_off,130,0,1,,,,,,,,,1,,,81,0
455520,note_on,30,0,1,,,,,,,,,1,,,77,71
455520,note_on,650,0,4,,,,,,,,,4,,,59,71
455520,note_on,170,0,5,,,,,,,,,5,,,50,71
455680,note_on,160,0,1,,,,,,,,,1,,,78,72
455690,note_off,10,0,1,,,,,,,,,1,,,77,0
455830,note_off,310,0,5,,,,,,,,,5,,,50,0
455830,note_off,310,0,4,,,,,,,,,4,,,59,0
455840,note_on,150,0,1,,,,,,,,,1,,,74,73
455850,note_off,10,0,1,,,,,,,,,1,,,78,0
455970,note_off,120,0,1,,,,,,,,,1,,,74,0
456000,note_on,30,0,1,,,,,,,,,1,,,75,74
456000,note_on,170,0,5,,,,,,,,,5,,,52,74
456000,note_on,170,0,4,,,,,,,,,4,,,61,74
456160,note_on,160,0,1,,,,,,,,,1,,,76,75
456165,note_off,5,0,1,,,,,,,,,1,,,75,0
456310,note_off,310,0,4,,,,,,,,,4,,,61,0
456310,note_off,310,0,5,,,,,,,,,5,,,52,0
456320,note_on,155,0,1,,,,,,,,,1,,,73,76
456330,note_off,10,0,1,,,,,,,,,1,,,76,0
456450,note_off,120,0,1,,,,,,,,,1,,,73,0
456480,note_on,30,0,1,,,,,,,,,1,,,73,77
456480,note_on,170,0,4,,,,,,,,,4,,,62,77
456480,note_on,0,0,4,,,,,,,,,4,,,56,77
456480,note_on,170,0,5,,,,,,,,,5,,,52,77
456640,note_on,160,0,1,,,,,,,,,1,,,74,79
456650,note_off,10,0,1,,,,,,,,,1,,,73,0
456790,note_off,310,0,4,,,,,,,,,4,,,56,0
456790,note_off,0,0,4,,,,,,,,,4,,,62,0
456790,note_off,310,0,5,,,,,,,,,5,,,52,0
456800,note_on,0,0,1,,,,,,,,,1,,,71,80
456800,note_off,150,0,1,,,,,,,,,1,,,74,0
456920,set_tempo,1880,1,0,,,,,,600000,,,,,,,
456930,note_off,130,0,1,,,,,,,,,1,,,71,0
456960,note_on,170,0,5,,,,,,,,,5,,,57,79
456960,set_tempo,40,1,0,,,,,,600000,,,,,,,
456960,note_on,30,0,1,,,,,,,,,1,,,71,82
456960,note_on,170,0,4,,,,,,,,,4,,,62,79
457440,note_off,480,0,4,,,,,,,,,4,,,62,0
457440,note_on,0,0,1,,,,,,,,,1,,,69,63
457440,note_on,0,0,4,,,,,,,,,4,,,61,63
457440,note_off,480,0,1,,,,,,,,,1,,,71,0
457440,set_tempo,480,1,0,,,,,,652173,,,,,,,
457820,note_off,860,0,5,,,,,,,,,5,,,57,0
457825,note_off,385,0,1,,,,,,,,,1,,,69,0
457825,note_off,385,0,4,,,,,,,,,4,,,61,0
457920,control_change,95,0,1,,,,,,,64,0,1,,,,
457920,note_on,0,0,1,,,,,,,,,1,,,81,43
457920,control_change,95,0,4,,,,,,,64,0,4,,,,
457920,control_change,15360,0,2,,,,,,,64,0,2,,,,
457920,set_tempo,480,1,0,,,,,,588235,,,,,,,
457920,control_change,100,0,5,,,,,,,64,0,5,,,,
457920,control_change,15360,0,3,,,,,,,64,0,3,,,,
458080,note_off,160,0,1,,,,,,,,,1,,,81,0
458080,note_on,0,0,1,,,,,,,,,1,,,83,44
458240,note_on,0,0,1,,,,,,,,,1,,,80,45
458240,note_off,160,0,1,,,,,,,,,1,,,83,0
458370,note_off,130,0,1,,,,,,,,,1,,,80,0
458400,note_on,30,0,1,,,,,,,,,1,,,81,46
458560,note_on,0,0,1,,,,,,,,,1,,,83,46
458560,note_off,160,0,1,,,,,,,,,1,,,81,0
458720,note_off,160,0,1,,,,,,,,,1,,,83,0
458720,note_on,0,0,1,,,,,,,,,1,,,80,47
458840,set_tempo,920,1,0,,,,,,600000,,,,,,,
458850,note_off,130,0,1,,,,,,,,,1,,,80,0
458880,set_tempo,40,1,0,,,,,,588235,,,,,,,
458880,note_on,960,0,5,,,,,,,,,5,,,63,53
458880,note_on,960,0,4,,,,,,,,,4,,,71,53
458880,note_on,30,0,1,,,,,,,,,1,,,81,53
459040,note_on,0,0,1,,,,,,,,,1,,,78,51
459040,note_off,160,0,1,,,,,,,,,1,,,81,0
459200,note_on,0,0,1,,,,,,,,,1,,,83,50
459200,note_off,160,0,1,,,,,,,,,1,,,78,0
459360,note_on,0,0,5,,,,,,,,,5,,,64,45
459360,note_off,480,0,5,,,,,,,,,5,,,63,0
459360,note_on,0,0,1,,,,,,,,,1,,,80,48
459360,note_off,160,0,1,,,,,,,,,1,,,83,0
459520,note_on,0,0,1,,,,,,,,,1,,,75,46
459520,note_off,160,0,1,,,,,,,,,1,,,80,0
459680,note_off,160,0,1,,,,,,,,,1,,,75,0
459680,note_on,0,0,1,,,,,,,,,1,,,76,45
459740,note_off,860,0,4,,,,,,,,,4,,,71,0
459745,note_off,385,0,5,,,,,,,,,5,,,64,0
459810,note_off,130,0,1,,,,,,,,,1,,,76,0
459840,note_on,100,0,4,,,,,,,,,4,,,69,47
459840,note_on,30,0,1,,,,,,,,,1,,,79,47
459840,note_on,95,0,5,,,,,,,,,5,,,61,47
460000,note_on,0,0,1,,,,,,,,,1,,,76,45
460000,note_off,160,0,1,,,,,,,,,1,,,79,0
460160,note_on,0,0,1,,,,,,,,,1,,,81,43
460160,note_off,160,0,1,,,,,,,,,1,,,76,0
460320,note_off,160,0,1,,,,,,,,,1,,,81,0
460320,note_on,0,0,1,,,,,,,,,1,,,78,40
460320,note_on,0,0,5,,,,,,,,,5,,,62,40
460320,note_off,480,0,5,,,,,,,,,5,,,61,0
460480,note_on,0,0,1,,,,,,,,,1,,,73,38
460480,note_off,160,0,1,,,,,,,,,1,,,78,0
460640,note_on,0,0,1,,,,,,,,,1,,,74,36
460640,note_off,160,0,1,,,,,,,,,1,,,73,0
460695,note_off,855,0,4,,,,,,,,,4,,,69,0
460705,note_off,385,0,5,,,,,,,,,5,,,62,0
460760,set_tempo,1880,1,0,,,,,,600000,,,,,,,
460770,note_off,130,0,1,,,,,,,,,1,,,74,0
460800,note_on,95,0,5,,,,,,,,,5,,,71,67
460800,set_tempo,40,1,0,,,,,,588235,,,,,,,
460800,note_on,30,0,1,,,,,,,,,1,,,74,67
460960,note_on,160,0,1,,,,,,,,,1,,,86,66
460990,note_off,30,0,1,,,,,,,,,1,,,74,0
460990,note_off,190,0,5,,,,,,,,,5,,,71,0
461040,note_on,50,0,5,,,,,,,,,5,,,69,65
461120,note_on,0,0,1,,,,,,,,,1,,,85,65
461120,note_off,130,0,1,,,,,,,,,1,,,86,0
461230,note_off,190,0,5,,,,,,,,,5,,,69,0
461250,note_off,130,0,1,,,,,,,,,1,,,85,0
461280,note_on,30,0,1,,,,,,,,,1,,,71,64
461280,note_on,50,0,5,,,,,,,,,5,,,67,64
461440,note_off,160,0,1,,,,,,,,,1,,,71,0
461440,note_on,0,0,1,,,,,,,,,1,,,83,62
461470,note_off,190,0,5,,,,,,,,,5,,,67,0
461520,note_on,50,0,5,,,,,,,,,5,,,66,62
461600,note_off,160,0,1,,,,,,,,,1,,,83,0
461600,note_on,0,0,1,,,,,,,,,1,,,82,61
461710,note_off,190,0,5,,,,,,,,,5,,,66,0
461730,note_off,130,0,1,,,,,,,,,1,,,82,0
461760,note_on,30,0,1,,,,,,,,,1,,,71,60
461760,note_on,50,0,5,,,,,,,,,5,,,67,60
461920,note_off,160,0,1,,,,,,,,,1,,,71,0
461920,note_on,0,0,1,,,,,,,,,1,,,83,59
461950,note_off,190,0,5,,,,,,,,,5,,,67,0
462000,note_on,50,0,5,,,,,,,,,5,,,66,58
462080,note_on,0,0,1,,,,,,,,,1,,,81,58
462080,note_off,160,0,1,,,,,,,,,1,,,83,0
462190,note_off,190,0,5,,,,,,,,,5,,,66,0
462210,note_off,130,0,1,,,,,,,,,1,,,81,0
462240,note_on,50,0,5,,,,,,,,,5,,,64,57
462240,note_on,30,0,1,,,,,,,,,1,,,67,57
462400,note_on,0,0,1,,,,,,,,,1,,,79,55
462400,note_off,160,0,1,,,,,,,,,1,,,67,0
462430,note_off,190,0,5,,,,,,,,,5,,,64,0
462480,note_on,50,0,5,,,,,,,,,5,,,62,55
462560,note_on,0,0,1,,,,,,,,,1,,,78,54
462560,note_off,160,0,1,,,,,,,,,1,,,79,0
462660,set_tempo,1860,1,0,,,,,,600000,,,,,,,
462670,note_off,190,0,5,,,,,,,,,5,,,62,0
462690,note_off,130,0,1,,,,,,,,,1,,,78,0
462720,note_on,30,0,1,,,,,,,,,1,,,79,49
462720,note_on,50,0,5,,,,,,,,,5,,,61,49
462720,note_on,2025,0,4,,,,,,,,,4,,,69,49
462720,set_tempo,60,1,0,,,,,,588235,,,,,,,
462880,note_on,0,0,1,,,,,,,,,1,,,81,49
462880,note_off,160,0,1,,,,,,,,,1,,,79,0
463040,note_off,160,0,1,,,,,,,,,1,,,81,0
463040,note_on,0,0,1,,,,,,,,,1,,,79,51
463105,note_off,385,0,5,,,,,,,,,5,,,61,0
463175,note_off,135,0,1,,,,,,,,,1,,,79,0
463200,note_on,95,0,5,,,,,,,,,5,,,62,53
463200,note_on,25,0,1,,,,,,,,,1,,,78,53
463360,note_on,0,0,1,,,,,,,,,1,,,79,55
463360,note_off,160,0,1,,,,,,,,,1,,,78,0
463520,note_on,0,0,1,,,,,,,,,1,,,78,57
463520,note_off,160,0,1,,,,,,,,,1,,,79,0
463585,note_off,385,0,5,,,,,,,,,5,,,62,0
463650,note_off,130,0,1,,,,,,,,,1,,,78,0
463680,note_on,30,0,1,,,,,,,,,1,,,76,59
463680,note_on,95,0,5,,,,,,,,,5,,,61,59
463840,note_on,0,0,1,,,,,,,,,1,,,78,61
463840,note_off,160,0,1,,,,,,,,,1,,,76,0
464000,note_off,160,0,1,,,,,,,,,1,,,78,0
464000,note_on,0,0,1,,,,,,,,,1,,,76,63
464065,note_off,385,0,5,,,,,,,,,5,,,61,0
464070,note_off,1350,0,4,,,,,,,,,4,,,69,0
464130,note_off,130,0,1,,,,,,,,,1,,,76,0
464160,note_on,30,0,1,,,,,,,,,1,,,74,63
464160,note_on,95,0,5,,,,,,,,,5,,,59,65
464160,note_on,90,0,4,,,,,,,,,4,,,68,65
464320,note_on,0,0,1,,,,,,,,,1,,,76,67
464320,note_off,160,0,1,,,,,,,,,1,,,74,0
464480,note_on,0,0,1,,,,,,,,,1,,,74,70
464480,note_off,160,0,1,,,,,,,,,1,,,76,0
464540,note_off,380,0,4,,,,,,,,,4,,,68,0
464545,note_off,385,0,5,,,,,,,,,5,,,59,0
464600,set_tempo,1880,1,0,,,,,,600000,,,,,,,
464610,note_off,130,0,1,,,,,,,,,1,,,74,0
464640,note_on,30,0,1,,,,,,,,,1,,,78,74
464640,set_tempo,40,1,0,,,,,,600000,,,,,,,
464640,note_on,95,0,5,,,,,,,,,5,,,57,74
464640,note_on,6720,0,2,,,,,,,,,2,,,69,74
464640,note_on,100,0,4,,,,,,,,,4,,,62,74
465120,note_on,0,0,1,,,,,,,,,1,,,76,51
465120,set_tempo,480,1,0,,,,,,638297,,,,,,,
465120,note_off,480,0,1,,,,,,,,,1,,,78,0
465120,note_off,480,0,4,,,,,,,,,4,,,62,0
465120,note_on,0,0,4,,,,,,,,,4,,,61,51
465360,note_off,720,0,5,,,,,,,,,5,,,57,0
465360,note_off,720,0,2,,,,,,,,,2,,,69,0
465360,note_off,240,0,4,,,,,,,,,4,,,61,0
465360,note_off,240,0,1,,,,,,,,,1,,,76,0
465600,set_tempo,480,1,0,,,,,,600000,,,,,,,
465600,note_on,240,0,1,,,,,,,,,1,,,81,52
465760,note_off,160,0,1,,,,,,,,,1,,,81,0
465760,note_on,0,0,1,,,,,,,,,1,,,83,50
465920,note_off,160,0,1,,,,,,,,,1,,,83,0
465920,note_on,0,0,1,,,,,,,,,1,,,80,48
466080,note_off,160,0,1,,,,,,,,,1,,,80,0
466080,note_on,0,0,1,,,,,,,,,1,,,81,46
466240,note_on,0,0,1,,,,,,,,,1,,,83,44
466240,note_off,160,0,1,,,,,,,,,1,,,81,0
466400,note_off,160,0,1,,,,,,,,,1,,,83,0
466400,note_on,0,0,1,,,,,,,,,1,,,80,42
466520,set_tempo,920,1,0,,,,,,612244,,,,,,,
466560,note_on,0,0,1,,,,,,,,,1,,,81,40
466560,note_off,160,0,1,,,,,,,,,1,,,80,0
466560,set_tempo,40,1,0,,,,,,638297,,,,,,,
466965,note_off,405,0,1,,,,,,,,,1,,,81,0
467040,set_tempo,480,1,0,,,,,,652173,,,,,,,
467520,set_tempo,480,1,0,,,,,,588235,,,,,,,
467520,note_on,555,0,1,,,,,,,,,1,,,69,56
467680,note_on,0,0,1,,,,,,,,,1,,,71,57
467680,note_off,160,0,1,,,,,,,,,1,,,69,0
467840,note_on,0,0,1,,,,,,,,,1,,,68,58
467840,note_off,160,0,1,,,,,,,,,1,,,71,0
468000,note_off,160,0,1,,,,,,,,,1,,,68,0
468000,note_on,0,0,1,,,,,,,,,1,,,69,58
468160,note_on,0,0,1,,,,,,,,,1,,,71,59
468160,note_off,160,0,1,,,,,,,,,1,,,69,0
468320,note_on,0,0,1,,,,,,,,,1,,,73,60
468320,note_off,160,0,1,,,,,,,,,1,,,71,0
468440,set_tempo,920,1,0,,,,,,600000,,,,,,,
468450,note_off,130,0,1,,,,,,,,,1,,,73,0
468480,note_on,3120,0,5,,,,,,,,,5,,,62,60
468480,note_on,30,0,1,,,,,,,,,1,,,74,60
468480,set_tempo,40,1,0,,,,,,588235,,,,,,,
468640,note_on,0,0,1,,,,,,,,,1,,,76,61
468640,note_off,160,0,1,,,,,,,,,1,,,74,0
468800,note_on,0,0,1,,,,,,,,,1,,,73,63
468800,note_off,160,0,1,,,,,,,,,1,,,76,0
468930,note_off,130,0,1,,,,,,,,,1,,,73,0
468960,note_on,3600,0,4,,,,,,,,,4,,,66,64
468960,note_on,0,0,4,,,,,,,,,4,,,69,64
468960,note_on,30,0,1,,,,,,,,,1,,,74,64
469120,note_off,160,0,1,,,,,,,,,1,,,74,0
469120,note_on,0,0,1,,,,,,,,,1,,,77,66
469250,note_off,770,0,5,,,,,,,,,5,,,62,0
469270,note_off,310,0,4,,,,,,,,,4,,,69,0
469270,note_off,0,0,4,,,,,,,,,4,,,66,0
469280,note_off,160,0,1,,,,,,,,,1,,,77,0
469280,note_on,0,0,1,,,,,,,,,1,,,78,67
469410,note_off,130,0,1,,,,,,,,,1,,,78,0
469440,note_on,190,0,5,,,,,,,,,5,,,59,68
469440,note_on,30,0,1,,,,,,,,,1,,,74,68
469600,note_on,0,0,1,,,,,,,,,1,,,82,70
469600,note_off,160,0,1,,,,,,,,,1,,,74,0
469760,note_on,0,0,1,,,,,,,,,1,,,83,71
469760,note_off,160,0,1,,,,,,,,,1,,,82,0
469890,note_off,130,0,1,,,,,,,,,1,,,83,0
469920,note_on,650,0,4,,,,,,,,,4,,,62,72
469920,note_on,0,0,4,,,,,,,,,4,,,66,72
469920,note_on,30,0,1,,,,,,,,,1,,,74,72
470080,note_off,160,0,1,,,,,,,,,1,,,74,0
470080,note_on,0,0,1,,,,,,,,,1,,,85,74
470210,note_off,770,0,5,,,,,,,,,5,,,59,0
470230,note_off,310,0,4,,,,,,,,,4,,,66,0
470230,note_off,0,0,4,,,,,,,,,4,,,62,0
470240,note_off,160,0,1,,,,,,,,,1,,,85,0
470240,note_on,0,0,1,,,,,,,,,1,,,86,75
470360,set_tempo,1880,1,0,,,,,,600000,,,,,,,
470370,note_off,130,0,1,,,,,,,,,1,,,86,0
470400,set_tempo,40,1,0,,,,,,588235,,,,,,,
470400,note_on,190,0,5,,,,,,,,,5,,,55,59
470400,note_on,30,0,1,,,,,,,,,1,,,79,61
470560,note_on,0,0,1,,,,,,,,,1,,,81,56
470560,note_off,160,0,1,,,,,,,,,1,,,79,0
470720,note_off,160,0,1,,,,,,,,,1,,,81,0
470720,note_on,0,0,1,,,,,,,,,1,,,78,55
470850,note_off,130,0,1,,,,,,,,,1,,,78,0
470880,note_on,30,0,1,,,,,,,,,1,,,79,55
470880,note_on,0,0,4,,,,,,,,,4,,,64,55
470880,note_on,650,0,4,,,,,,,,,4,,,59,55
471040,note_off,160,0,1,,,,,,,,,1,,,79,0
471040,note_on,0,0,1,,,,,,,,,1,,,75,54
471170,note_off,770,0,5,,,,,,,,,5,,,55,0
471190,note_off,310,0,4,,,,,,,,,4,,,64,0
471190,note_off,0,0,4,,,,,,,,,4,,,59,0
471200,note_on,0,0,1,,,,,,,,,1,,,76,53
471200,note_off,160,0,1,,,,,,,,,1,,,75,0
471330,note_off,130,0,1,,,,,,,,,1,,,76,0
471360,note_on,30,0,1,,,,,,,,,1,,,79,52
471360,note_on,190,0,5,,,,,,,,,5,,,57,52
471520,note_on,0,0,1,,,,,,,,,1,,,72,51
471520,note_off,160,0,1,,,,,,,,,1,,,79,0
471680,note_on,0,0,1,,,,,,,,,1,,,73,50
471680,note_off,160,0,1,,,,,,,,,1,,,72,0
471810,note_off,130,0,1,,,,,,,,,1,,,73,0
471840,note_on,30,0,1,,,,,,,,,1,,,79,50
471840,note_on,0,0,4,,,,,,,,,4,,,64,50
471840,note_on,650,0,4,,,,,,,,,4,,,61,50
472000,note_on,0,0,1,,,,,,,,,1,,,68,49
472000,note_off,160,0,1,,,,,,,,,1,,,79,0
472130,note_off,770,0,5,,,,,,,,,5,,,57,0
472150,note_off,310,0,4,,,,,,,,,4,,,64,0
472150,note_off,0,0,4,,,,,,,,,4,,,61,0
472160,note_on,0,0,1,,,,,,,,,1,,,69,48
472160,note_off,160,0,1,,,,,,,,,1,,,68,0
472280,set_tempo,1880,1,0,,,,,,600000,,,,,,,
472290,note_off,130,0,1,,,,,,,,,1,,,69,0
472320,note_on,30,0,1,,,,,,,,,1,,,78,70
472320,set_tempo,40,1,0,,,,,,588235,,,,,,,
472320,note_on,190,0,5,,,,,,,,,5,,,62,68
472480,note_off,160,0,1,,,,,,,,,1,,,78,0
472480,note_on,0,0,1,,,,,,,,,1,,,81,71
472630,note_off,310,0,5,,,,,,,,,5,,,62,0
472640,note_off,160,0,1,,,,,,,,,1,,,81,0
472640,note_on,0,0,1,,,,,,,,,1,,,86,72
472770,note_off,130,0,1,,,,,,,,,1,,,86,0
472800,note_on,650,0,4,,,,,,,,,4,,,64,71
472800,note_on,30,0,1,,,,,,,,,1,,,82,73
472800,note_on,170,0,5,,,,,,,,,5,,,55,71
472960,note_off,160,0,1,,,,,,,,,1,,,82,0
472960,note_on,0,0,1,,,,,,,,,1,,,83,74
473110,note_off,310,0,5,,,,,,,,,5,,,55,0
473110,note_off,310,0,4,,,,,,,,,4,,,64,0
473120,note_on,0,0,1,,,,,,,,,1,,,79,75
473120,note_off,160,0,1,,,,,,,,,1,,,83,0
473250,note_off,130,0,1,,,,,,,,,1,,,79,0
473280,note_on,170,0,5,,,,,,,,,5,,,57,75
473280,note_on,170,0,4,,,,,,,,,4,,,62,75
473280,note_on,30,0,1,,,,,,,,,1,,,80,75
473440,note_on,0,0,1,,,,,,,,,1,,,81,76
473440,note_off,160,0,1,,,,,,,,,1,,,80,0
473590,note_off,310,0,5,,,,,,,,,5,,,57,0
473590,note_off,310,0,4,,,,,,,,,4,,,62,0
473600,note_on,0,0,1,,,,,,,,,1,,,78,78
473600,note_off,160,0,1,,,,,,,,,1,,,81,0
473740,note_off,140,0,1,,,,,,,,,1,,,78,0
473760,note_on,170,0,4,,,,,,,,,4,,,61,79
473760,note_on,170,0,5,,,,,,,,,5,,,57,79
473760,note_on,20,0,1,,,,,,,,,1,,,78,80
473920,note_off,160,0,1,,,,,,,,,1,,,78,0
473920,note_on,0,0,1,,,,,,,,,1,,,79,82
474070,note_off,310,0,4,,,,,,,,,4,,,61,0
474070,note_off,310,0,5,,,,,,,,,5,,,57,0
474080,note_off,160,0,1,,,,,,,,,1,,,79,0
474080,note_on,0,0,1,,,,,,,,,1,,,76,84
474200,set_tempo,1880,1,0,,,,,,600000,,,,,,,
474210,note_off,130,0,1,,,,,,,,,1,,,76,0
474240,note_on,30,0,1,,,,,,,,,1,,,76,86
474240,note_on,8880,0,2,,,,,,,,,2,,,67,86
474240,set_tempo,40,1,0,,,,,,625000,,,,,,,
474240,note_on,170,0,4,,,,,,,,,4,,,61,82
474240,note_on,170,0,5,,,,,,,,,5,,,50,82
474720,set_tempo,480,1,0,,,,,,1071428,,,,,,,
474720,note_on,0,0,4,,,,,,,,,4,,,62,62
474720,note_off,480,0,1,,,,,,,,,1,,,76,0
474720,note_on,0,0,1,,,,,,,,,1,,,74,62
474720,note_on,0,0,2,,,,,,,,,2,,,66,62
474720,note_off,480,0,2,,,,,,,,,2,,,67,0
474720,note_off,480,0,4,,,,,,,,,4,,,61,0
474960,note_off,240,0,2,,,,,,,,,2,,,66,0
474960,note_off,240,0,4,,,,,,,,,4,,,62,0
474960,note_off,720,0,5,,,,,,,,,5,,,50,0
474960,set_tempo,240,1,0,,,,,,447761,,,,,,,
474960,note_off,240,0,1,,,,,,,,,1,,,74,0
475200,note_on,0,0,5,,,,,,,,,5,,,57,42
475200,control_change,240,0,5,,,,,,,64,0,5,,,,
475200,control_change,240,0,2,,,,,,,64,0,2,,,,
475200,set_tempo,240,1,0,,,,,,560747,,,,,,,
475200,control_change,240,0,1,,,,,,,64,0,1,,,,
475200,control_change,240,0,4,,,,,,,64,0,4,,,,
475200,marker,0,1,0,,,,,,,,,,,,,
475200,control_change,17280,0,3,,,,,,,64,0,3,,,,
475360,note_off,160,0,5,,,,,,,,,5,,,57,0
475360,note_on,0,0,5,,,,,,,,,5,,,59,42
475520,note_off,160,0,5,,,,,,,,,5,,,59,0
475520,note_on,0,0,5,,,,,,,,,5,,,57,42
475680,note_off,160,0,5,,,,,,,,,5,,,57,0
475680,note_on,0,0,5,,,,,,,,,5,,,55,43
475840,note_on,0,0,5,,,,,,,,,5,,,54,43
475840,note_off,160,0,5,,,,,,,,,5,,,55,0
476000,note_on,0,0,5,,,,,,,,,5,,,52,43
476000,note_off,160,0,5,,,,,,,,,5,,,54,0
476120,set_tempo,920,1,0,,,,,,571428,,,,,,,
476160,note_on,0,0,5,,,,,,,,,5,,,50,43
476160,note_off,160,0,5,,,,,,,,,5,,,52,0
476160,note_on,960,0,1,,,,,,,,,1,,,78,42
476160,set_tempo,40,1,0,,,,,,560747,,,,,,,
476220,note_off,60,0,1,,,,,,,,,1,,,78,0
476220,note_on,0,0,1,,,,,,,,,1,,,79,45
476280,note_off,60,0,1,,,,,,,,,1,,,79,0
476280,note_on,0,0,1,,,,,,,,,1,,,81,48
476640,note_on,360,0,1,,,,,,,,,1,,,79,46
476640,note_off,480,0,5,,,,,,,,,5,,,50,0
476645,note_off,5,0,1,,,,,,,,,1,,,81,0
476760,note_off,115,0,1,,,,,,,,,1,,,79,0
476760,note_on,0,0,1,,,,,,,,,1,,,78,44
476880,note_off,120,0,1,,,,,,,,,1,,,78,0
476880,note_on,0,0,1,,,,,,,,,1,,,76,43
477000,note_off,120,0,1,,,,,,,,,1,,,76,0
477000,note_on,0,0,1,,,,,,,,,1,,,74,42
477095,note_off,95,0,1,,,,,,,,,1,,,74,0
477120,note_on,480,0,5,,,,,,,,,5,,,62,45
477280,note_off,160,0,5,,,,,,,,,5,,,62,0
477280,note_on,0,0,5,,,,,,,,,5,,,64,45
477440,note_off,160,0,5,,,,,,,,,5,,,64,0
477440,note_on,0,0,5,,,,,,,,,5,,,62,45
477600,note_off,160,0,5,,,,,,,,,5,,,62,0
477600,note_on,0,0,5,,,,,,,,,5,,,60,46
477760,note_off,160,0,5,,,,,,,,,5,,,60,0
477760,note_on,0,0,5,,,,,,,,,5,,,59,46
477920,note_off,160,0,5,,,,,,,,,5,,,59,0
477920,note_on,0,0,5,,,,,,,,,5,,,57,46
478040,set_tempo,1880,1,0,,,,,,571428,,,,,,,
478080,note_on,985,0,1,,,,,,,,,1,,,79,46
478080,note_off,160,0,5,,,,,,,,,5,,,57,0
478080,set_tempo,40,1,0,,,,,,560747,,,,,,,
478080,note_on,0,0,5,,,,,,,,,5,,,55,46
478140,note_on,0,0,1,,,,,,,,,1,,,81,48
478140,note_off,60,0,1,,,,,,,,,1,,,79,0
478200,note_off,60,0,1,,,,,,,,,1,,,81,0
478200,note_on,0,0,1,,,,,,,,,1,,,83,51
478560,note_on,360,0,1,,,,,,,,,1,,,81,49
478560,note_off,480,0,5,,,,,,,,,5,,,55,0
478565,note_off,5,0,1,,,,,,,,,1,,,83,0
478680,note_on,0,0,1,,,,,,,,,1,,,79,48
478680,note_off,115,0,1,,,,,,,,,1,,,81,0
478800,note_off,120,0,1,,,,,,,,,1,,,79,0
478800,note_on,0,0,1,,,,,,,,,1,,,78,47
478920,note_off,120,0,1,,,,,,,,,1,,,78,0
478920,note_on,0,0,1,,,,,,,,,1,,,76,46
479015,note_off,95,0,1,,,,,,,,,1,,,76,0
479040,note_on,480,0,5,,,,,,,,,5,,,69,48
479200,note_off,160,0,5,,,,,,,,,5,,,69,0
479200,note_on,0,0,5,,,,,,,,,5,,,71,48
479360,note_on,0,0,5,,,,,,,,,5,,,69,48
479360,note_off,160,0,5,,,,,,,,,5,,,71,0
479520,note_on,505,0,1,,,,,,,,,1,,,76,44
479520,note_on,0,0,5,,,,,,,,,5,,,67,50
479520,note_off,160,0,5,,,,,,,,,5,,,69,0
479520,note_on,4320,0,2,,,,,,,,,2,,,73,44
479650,note_off,130,0,2,,,,,,,,,2,,,73,0
479650,note_off,130,0,1,,,,,,,,,1,,,76,0
479680,note_on,0,0,5,,,,,,,,,5,,,66,51
479680,note_off,160,0,5,,,,,,,,,5,,,67,0
479680,note_on,30,0,2,,,,,,,,,2,,,74,46
479680,note_on,30,0,1,,,,,,,,,1,,,78,46
479810,note_off,130,0,2,,,,,,,,,2,,,74,0
479810,note_off,130,0,1,,,,,,,,,1,,,78,0
479840,note_on,30,0,1,,,,,,,,,1,,,79,48
479840,note_on,30,0,2,,,,,,,,,2,,,76,48
479840,note_off,160,0,5,,,,,,,,,5,,,66,0
479840,note_on,0,0,5,,,,,,,,,5,,,64,51
479960,set_tempo,1880,1,0,,,,,,571428,,,,,,,
479970,note_off,130,0,1,,,,,,,,,1,,,79,0
479970,note_off,130,0,2,,,,,,,,,2,,,76,0
480000,note_on,30,0,1,,,,,,,,,1,,,78,51
480000,set_tempo,40,1,0,,,,,,560747,,,,,,,
480000,note_off,160,0,5,,,,,,,,,5,,,64,0
480000,note_on,0,0,5,,,,,,,,,5,,,62,51
480060,note_on,0,0,1,,,,,,,,,1,,,79,55
480060,note_off,60,0,1,,,,,,,,,1,,,78,0
480120,note_off,60,0,1,,,,,,,,,1,,,79,0
480120,note_on,0,0,1,,,,,,,,,1,,,81,59
480480,note_off,360,0,1,,,,,,,,,1,,,81,0
480480,note_on,0,0,1,,,,,,,,,1,,,79,56
480480,note_off,480,0,5,,,,,,,,,5,,,62,0
480600,note_off,120,0,1,,,,,,,,,1,,,79,0
480600,note_on,0,0,1,,,,,,,,,1,,,78,54
480720,note_off,120,0,1,,,,,,,,,1,,,78,0
480720,note_on,0,0,1,,,,,,,,,1,,,76,53
480840,note_off,120,0,1,,,,,,,,,1,,,76,0
480840,note_on,0,0,1,,,,,,,,,1,,,74,52
480935,note_off,95,0,1,,,,,,,,,1,,,74,0
480960,note_on,480,0,5,,,,,,,,,5,,,55,59
480960,note_on,5760,0,4,,,,,,,,,4,,,67,59
480960,note_on,25,0,1,,,,,,,,,1,,,79,59
481020,note_on,0,0,1,,,,,,,,,1,,,81,63
481020,note_off,60,0,1,,,,,,,,,1,,,79,0
481080,note_on,0,0,1,,,,,,,,,1,,,83,68
481080,note_off,60,0,1,,,,,,,,,1,,,81,0
481440,note_off,480,0,5,,,,,,,,,5,,,55,0
481440,note_off,480,0,4,,,,,,,,,4,,,67,0
481440,note_off,360,0,1,,,,,,,,,1,,,83,0
481440,note_on,0,0,1,,,,,,,,,1,,,81,63
481560,note_off,120,0,1,,,,,,,,,1,,,81,0
481560,note_on,0,0,1,,,,,,,,,1,,,79,61
481680,note_off,120,0,1,,,,,,,,,1,,,79,0
481680,note_on,0,0,1,,,,,,,,,1,,,78,60
481800,note_off,120,0,1,,,,,,,,,1,,,78,0
481800,note_on,0,0,1,,,,,,,,,1,,,76,58
481880,set_tempo,1880,1,0,,,,,,571428,,,,,,,
481895,note_off,95,0,1,,,,,,,,,1,,,76,0
481920,note_on,480,0,5,,,,,,,,,5,,,57,68
481920,note_on,25,0,1,,,,,,,,,1,,,74,68
481920,note_on,480,0,4,,,,,,,,,4,,,66,68
482400,note_off,480,0,1,,,,,,,,,1,,,74,0
482400,note_off,480,0,4,,,,,,,,,4,,,66,0
482400,set_tempo,520,1,0,,,,,,600000,,,,,,,
482400,note_on,0,0,4,,,,,,,,,4,,,64,51
482400,note_on,0,0,1,,,,,,,,,1,,,73,51
482780,note_off,860,0,5,,,,,,,,,5,,,57,0
482785,note_off,385,0,4,,,,,,,,,4,,,64,0
482785,note_off,385,0,1,,,,,,,,,1,,,73,0
482840,set_tempo,440,1,0,,,,,,659340,,,,,,,
482880,set_tempo,40,1,0,,,,,,560747,,,,,,,
482880,note_on,100,0,5,,,,,,,,,5,,,57,58
483040,note_on,0,0,5,,,,,,,,,5,,,59,59
483040,note_off,160,0,5,,,,,,,,,5,,,57,0
483200,note_off,160,0,5,,,,,,,,,5,,,59,0
483200,note_on,0,0,5,,,,,,,,,5,,,57,59
483360,note_on,0,0,5,,,,,,,,,5,,,55,60
483360,note_off,160,0,5,,,,,,,,,5,,,57,0
483520,note_on,0,0,5,,,,,,,,,5,,,54,61
483520,note_off,160,0,5,,,,,,,,,5,,,55,0
483680,note_on,0,0,5,,,,,,,,,5,,,52,61
483680,note_off,160,0,5,,,,,,,,,5,,,54,0
483800,set_tempo,920,1,0,,,,,,571428,,,,,,,
483840,note_on,1055,0,1,,,,,,,,,1,,,74,62
483840,note_off,160,0,5,,,,,,,,,5,,,52,0
483840,note_on,0,0,5,,,,,,,,,5,,,50,62
483840,set_tempo,40,1,0,,,,,,560747,,,,,,,
483900,note_off,60,0,1,,,,,,,,,1,,,74,0
483900,note_on,0,0,1,,,,,,,,,1,,,76,66
483960,note_on,0,0,1,,,,,,,,,1,,,78,70
483960,note_off,60,0,1,,,,,,,,,1,,,76,0
484320,note_off,480,0,5,,,,,,,,,5,,,50,0
484320,note_on,360,0,1,,,,,,,,,1,,,76,67
484325,note_off,5,0,1,,,,,,,,,1,,,78,0
484440,note_on,0,0,1,,,,,,,,,1,,,74,66
484440,note_off,115,0,1,,,,,,,,,1,,,76,0
484560,note_off,120,0,1,,,,,,,,,1,,,74,0
484560,note_on,0,0,1,,,,,,,,,1,,,73,64
484680,note_off,120,0,1,,,,,,,,,1,,,73,0
484680,note_on,0,0,1,,,,,,,,,1,,,71,63
484775,note_off,95,0,1,,,,,,,,,1,,,71,0
484800,note_on,480,0,5,,,,,,,,,5,,,62,66
484960,note_off,160,0,5,,,,,,,,,5,,,62,0
484960,note_on,0,0,5,,,,,,,,,5,,,64,66
485120,note_on,0,0,5,,,,,,,,,5,,,62,67
485120,note_off,160,0,5,,,,,,,,,5,,,64,0
485280,note_off,160,0,5,,,,,,,,,5,,,62,0
485280,note_on,0,0,5,,,,,,,,,5,,,61,67
485440,note_off,160,0,5,,,,,,,,,5,,,61,0
485440,note_on,0,0,5,,,,,,,,,5,,,59,68
485600,note_off,160,0,5,,,,,,,,,5,,,59,0
485600,note_on,0,0,5,,,,,,,,,5,,,57,69
485720,set_tempo,1880,1,0,,,,,,571428,,,,,,,
485760,set_tempo,40,1,0,,,,,,560747,,,,,,,
485760,note_off,160,0,5,,,,,,,,,5,,,57,0
485760,note_on,0,0,5,,,,,,,,,5,,,56,68
485760,note_on,985,0,1,,,,,,,,,1,,,83,68
485820,note_on,0,0,1,,,,,,,,,1,,,85,73
485820,note_off,60,0,1,,,,,,,,,1,,,83,0
485880,note_off,60,0,1,,,,,,,,,1,,,85,0
485880,note_on,0,0,1,,,,,,,,,1,,,86,77
486230,note_off,350,0,1,,,,,,,,,1,,,86,0
486240,note_on,10,0,1,,,,,,,,,1,,,85,73
486240,note_off,480,0,5,,,,,,,,,5,,,56,0
486360,note_off,120,0,1,,,,,,,,,1,,,85,0
486360,note_on,0,0,1,,,,,,,,,1,,,83,72
486480,note_off,120,0,1,,,,,,,,,1,,,83,0
486480,note_on,0,0,1,,,,,,,,,1,,,81,70
486600,note_on,0,0,1,,,,,,,,,1,,,80,68
486600,note_off,120,0,1,,,,,,,,,1,,,81,0
486695,note_off,95,0,1,,,,,,,,,1,,,80,0
486720,note_on,480,0,5,,,,,,,,,5,,,71,77
486780,note_on,0,0,5,,,,,,,,,5,,,73,81
486780,note_off,60,0,5,,,,,,,,,5,,,71,0
486840,note_on,0,0,5,,,,,,,,,5,,,74,84
486840,note_off,60,0,5,,,,,,,,,5,,,73,0
487200,note_on,0,0,5,,,,,,,,,5,,,73,81
487200,note_off,360,0,5,,,,,,,,,5,,,74,0
487320,note_off,120,0,5,,,,,,,,,5,,,73,0
487320,note_on,0,0,5,,,,,,,,,5,,,71,79
487440,note_off,120,0,5,,,,,,,,,5,,,71,0
487440,note_on,0,0,5,,,,,,,,,5,,,69,78
487560,note_off,120,0,5,,,,,,,,,5,,,69,0
487560,note_on,0,0,5,,,,,,,,,5,,,68,76
487640,set_tempo,1880,1,0,,,,,,571428,,,,,,,
487655,note_off,95,0,5,,,,,,,,,5,,,68,0
487680,note_on,985,0,1,,,,,,,,,1,,,76,52
487680,set_tempo,40,1,0,,,,,,560747,,,,,,,
488160,note_on,0,0,1,,,,,,,,,1,,,77,56
488160,note_off,480,0,1,,,,,,,,,1,,,76,0
488640,note_on,0,0,1,,,,,,,,,1,,,78,60
488640,note_off,480,0,1,,,,,,,,,1,,,77,0
489025,note_off,385,0,1,,,,,,,,,1,,,78,0
489080,set_tempo,1400,1,0,,,,,,571428,,,,,,,
489120,note_on,95,0,1,,,,,,,,,1,,,68,75
489120,note_on,0,0,4,,,,,,,,,4,,,62,75
489120,note_on,6335,0,4,,,,,,,,,4,,,59,75
489120,note_on,1465,0,5,,,,,,,,,5,,,52,75
489430,note_off,0,0,4,,,,,,,,,4,,,59,0
489430,note_off,310,0,4,,,,,,,,,4,,,62,0
489430,note_off,310,0,1,,,,,,,,,1,,,68,0
489430,note_off,310,0,5,,,,,,,,,5,,,52,0
489600,note_on,170,0,4,,,,,,,,,4,,,61,79
489600,note_on,170,0,5,,,,,,,,,5,,,57,79
489600,note_on,170,0,1,,,,,,,,,1,,,69,79
489910,note_off,310,0,4,,,,,,,,,4,,,61,0
489910,note_off,310,0,5,,,,,,,,,5,,,57,0
489910,note_off,310,0,1,,,,,,,,,1,,,69,0
490080,note_on,170,0,5,,,,,,,,,5,,,45,58
490080,set_tempo,1000,1,0,,,,,,600000,,,,,,,
490390,note_off,310,0,5,,,,,,,,,5,,,45,0
490560,control_change,650,0,1,,,,,,,64,0,1,,,,
490560,control_change,15360,0,3,,,,,,,64,0,3,,,,
490560,control_change,650,0,4,,,,,,,64,0,4,,,,
490560,set_tempo,480,1,0,,,,,,560747,,,,,,,
490560,control_change,170,0,5,,,,,,,64,0,5,,,,
490560,control_change,10590,0,2,,,,,,,64,0,2,,,,
490560,note_on,0,0,5,,,,,,,,,5,,,57,42
490720,note_on,0,0,5,,,,,,,,,5,,,59,42
490720,note_off,160,0,5,,,,,,,,,5,,,57,0
490880,note_on,0,0,5,,,,,,,,,5,,,57,42
490880,note_off,160,0,5,,,,,,,,,5,,,59,0
491040,note_on,0,0,5,,,,,,,,,5,,,55,43
491040,note_off,160,0,5,,,,,,,,,5,,,57,0
491200,note_off,160,0,5,,,,,,,,,5,,,55,0
491200,note_on,0,0,5,,,,,,,,,5,,,54,43
491360,note_on,0,0,5,,,,,,,,,5,,,52,43
491360,note_off,160,0,5,,,,,,,,,5,,,54,0
491480,set_tempo,920,1,0,,,,,,571428,,,,,,,
491520,note_on,0,0,5,,,,,,,,,5,,,50,43
491520,note_off,160,0,5,,,,,,,,,5,,,52,0
491520,set_tempo,40,1,0,,,,,,560747,,,,,,,
491520,note_on,960,0,1,,,,,,,,,1,,,78,42
491580,note_on,0,0,1,,,,,,,,,1,,,79,45
491580,note_off,60,0,1,,,,,,,,,1,,,78,0
491640,note_on,0,0,1,,,,,,,,,1,,,81,48
491640,note_off,60,0,1,,,,,,,,,1,,,79,0
492000,note_off,480,0,5,,,,,,,,,5,,,50,0
492000,note_on,360,0,1,,,,,,,,,1,,,79,46
492005,note_off,5,0,1,,,,,,,,,1,,,81,0
492120,note_on,0,0,1,,,,,,,,,1,,,78,44
492120,note_off,115,0,1,,,,,,,,,1,,,79,0
492240,note_off,120,0,1,,,,,,,,,1,,,78,0
492240,note_on,0,0,1,,,,,,,,,1,,,76,43
492360,note_on,0,0,1,,,,,,,,,1,,,74,42
492360,note_off,120,0,1,,,,,,,,,1,,,76,0
492455,note_off,95,0,1,,,,,,,,,1,,,74,0
492480,note_on,480,0,5,,,,,,,,,5,,,62,45
492640,note_off,160,0,5,,,,,,,,,5,,,62,0
492640,note_on,0,0,5,,,,,,,,,5,,,64,45
492800,note_off,160,0,5,,,,,,,,,5,,,64,0
492800,note_on,0,0,5,,,,,,,,,5,,,62,45
492960,note_off,160,0,5,,,,,,,,,5,,,62,0
492960,note_on,0,0,5,,,,,,,,,5,,,60,46
493120,note_off,160,0,5,,,,,,,,,5,,,60,0
493120,note_on,0,0,5,,,,,,,,,5,,,59,46
493280,note_off,160,0,5,,,,,,,,,5,,,59,0
493280,note_on,0,0,5,,,,,,,,,5,,,57,46
493400,set_tempo,1880,1,0,,,,,,571428,,,,,,,
493440,note_on,985,0,1,,,,,,,,,1,,,79,46
493440,note_on,0,0,5,,,,,,,,,5,,,55,46
493440,note_off,160,0,5,,,,,,,,,5,,,57,0
493440,set_tempo,40,1,0,,,,,,560747,,,,,,,
493500,note_on,0,0,1,,,,,,,,,1,,,81,48
493500,note_off,60,0,1,,,,,,,,,1,,,79,0
493560,note_off,60,0,1,,,,,,,,,1,,,81,0
493560,note_on,0,0,1,,,,,,,,,1,,,83,51
493920,note_on,360,0,1,,,,,,,,,1,,,81,49
493920,note_off,480,0,5,,,,,,,,,5,,,55,0
493925,note_off,5,0,1,,,,,,,,,1,,,83,0
494040,note_on,0,0,1,,,,,,,,,1,,,79,48
494040,note_off,115,0,1,,,,,,,,,1,,,81,0
494160,note_off,120,0,1,,,,,,,,,1,,,79,0
494160,note_on,0,0,1,,,,,,,,,1,,,78,47
494280,note_on,0,0,1,,,,,,,,,1,,,76,46
494280,note_off,120,0,1,,,,,,,,,1,,,78,0
494375,note_off,95,0,1,,,,,,,,,1,,,76,0
494400,note_on,480,0,5,,,,,,,,,5,,,69,48
494560,note_off,160,0,5,,,,,,,,,5,,,69,0
494560,note_on,0,0,5,,,,,,,,,5,,,71,48
494720,note_on,0,0,5,,,,,,,,,5,,,69,48
494720,note_off,160,0,5,,,,,,,,,5,,,71,0
494880,note_on,0,0,5,,,,,,,,,5,,,67,50
494880,note_off,160,0,5,,,,,,,,,5,,,69,0
494880,note_on,4320,0,2,,,,,,,,,2,,,73,44
494880,note_on,505,0,1,,,,,,,,,1,,,76,44
495010,note_off,130,0,1,,,,,,,,,1,,,76,0
495010,note_off,130,0,2,,,,,,,,,2,,,73,0
495040,note_on,30,0,2,,,,,,,,,2,,,74,46
495040,note_on,30,0,1,,,,,,,,,1,,,78,46
495040,note_off,160,0,5,,,,,,,,,5,,,67,0
495040,note_on,0,0,5,,,,,,,,,5,,,66,51
495170,note_off,130,0,2,,,,,,,,,2,,,74,0
495170,note_off,130,0,1,,,,,,,,,1,,,78,0
495200,note_on,0,0,5,,,,,,,,,5,,,64,51
495200,note_on,30,0,1,,,,,,,,,1,,,79,48
495200,note_off,160,0,5,,,,,,,,,5,,,66,0
495200,note_on,30,0,2,,,,,,,,,2,,,76,48
495320,set_tempo,1880,1,0,,,,,,571428,,,,,,,
495330,note_off,130,0,2,,,,,,,,,2,,,76,0
495330,note_off,130,0,1,,,,,,,,,1,,,79,0
495360,set_tempo,40,1,0,,,,,,560747,,,,,,,
495360,note_on,0,0,5,,,,,,,,,5,,,62,51
495360,note_off,160,0,5,,,,,,,,,5,,,64,0
495360,note_on,30,0,1,,,,,,,,,1,,,78,51
495420,note_on,0,0,1,,,,,,,,,1,,,79,55
495420,note_off,60,0,1,,,,,,,,,1,,,78,0
495480,note_off,60,0,1,,,,,,,,,1,,,79,0
495480,note_on,0,0,1,,,,,,,,,1,,,81,59
495840,note_off,480,0,5,,,,,,,,,5,,,62,0
495840,note_on,0,0,1,,,,,,,,,1,,,79,56
495840,note_off,360,0,1,,,,,,,,,1,,,81,0
495960,note_on,0,0,1,,,,,,,,,1,,,78,54
495960,note_off,120,0,1,,,,,,,,,1,,,79,0
496080,note_on,0,0,1,,,,,,,,,1,,,76,53
496080,note_off,120,0,1,,,,,,,,,1,,,78,0
496200,note_off,120,0,1,,,,,,,,,1,,,76,0
496200,note_on,0,0,1,,,,,,,,,1,,,74,52
496295,note_off,95,0,1,,,,,,,,,1,,,74,0
496320,note_on,25,0,1,,,,,,,,,1,,,79,59
496320,note_on,5760,0,4,,,,,,,,,4,,,67,59
496320,note_on,480,0,5,,,,,,,,,5,,,55,59
496380,note_off,60,0,1,,,,,,,,,1,,,79,0
496380,note_on,0,0,1,,,,,,,,,1,,,81,63
496440,note_off,60,0,1,,,,,,,,,1,,,81,0
496440,note_on,0,0,1,,,,,,,,,1,,,83,68
496800,note_off,480,0,4,,,,,,,,,4,,,67,0
496800,note_off,360,0,1,,,,,,,,,1,,,83,0
496800,note_on,0,0,1,,,,,,,,,1,,,81,63
496800,note_off,480,0,5,,,,,,,,,5,,,55,0
496920,note_on,0,0,1,,,,,,,,,1,,,79,61
496920,note_off,120,0,1,,,,,,,,,1,,,81,0
497040,note_on,0,0,1,,,,,,,,,1,,,78,60
497040,note_off,120,0,1,,,,,,,,,1,,,79,0
497160,note_on,0,0,1,,,,,,,,,1,,,76,58
497160,note_off,120,0,1,,,,,,,,,1,,,78,0
497240,set_tempo,1880,1,0,,,,,,571428,,,,,,,
497255,note_off,95,0,1,,,,,,,,,1,,,76,0
497280,note_on,25,0,1,,,,,,,,,1,,,74,68
497280,note_on,480,0,5,,,,,,,,,5,,,57,68
497280,note_on,480,0,4,,,,,,,,,4,,,66,68
497760,note_off,480,0,1,,,,,,,,,1,,,74,0
497760,note_on,0,0,1,,,,,,,,,1,,,73,51
497760,set_tempo,520,1,0,,,,,,600000,,,,,,,
497760,note_on,0,0,4,,,,,,,,,4,,,64,51
497760,note_off,480,0,4,,,,,,,,,4,,,66,0
498140,note_off,860,0,5,,,,,,,,,5,,,57,0
498145,note_off,385,0,1,,,,,,,,,1,,,73,0
498145,note_off,385,0,4,,,,,,,,,4,,,64,0
498200,set_tempo,440,1,0,,,,,,659340,,,,,,,
498240,set_tempo,40,1,0,,,,,,560747,,,,,,,
498240,note_on,100,0,5,,,,,,,,,5,,,57,58
498400,note_off,160,0,5,,,,,,,,,5,,,57,0
498400,note_on,0,0,5,,,,,,,,,5,,,59,59
498560,note_off,160,0,5,,,,,,,,,5,,,59,0
498560,note_on,0,0,5,,,,,,,,,5,,,57,59
498720,note_on,0,0,5,,,,,,,,,5,,,55,60
498720,note_off,160,0,5,,,,,,,,,5,,,57,0
498880,note_off,160,0,5,,,,,,,,,5,,,55,0
498880,note_on,0,0,5,,,,,,,,,5,,,54,61
499040,note_off,160,0,5,,,,,,,,,5,,,54,0
499040,note_on,0,0,5,,,,,,,,,5,,,52,61
499160,set_tempo,920,1,0,,,,,,571428,,,,,,,
499200,note_off,160,0,5,,,,,,,,,5,,,52,0
499200,note_on,0,0,5,,,,,,,,,5,,,50,62
499200,note_on,1055,0,1,,,,,,,,,1,,,74,62
499200,set_tempo,40,1,0,,,,,,560747,,,,,,,
499260,note_off,60,0,1,,,,,,,,,1,,,74,0
499260,note_on,0,0,1,,,,,,,,,1,,,76,66
499320,note_off,60,0,1,,,,,,,,,1,,,76,0
499320,note_on,0,0,1,,,,,,,,,1,,,78,70
499680,note_off,480,0,5,,,,,,,,,5,,,50,0
499680,note_on,360,0,1,,,,,,,,,1,,,76,67
499685,note_off,5,0,1,,,,,,,,,1,,,78,0
499800,note_on,0,0,1,,,,,,,,,1,,,74,66
499800,note_off,115,0,1,,,,,,,,,1,,,76,0
499920,note_on,0,0,1,,,,,,,,,1,,,73,64
499920,note_off,120,0,1,,,,,,,,,1,,,74,0
500040,note_off,120,0,1,,,,,,,,,1,,,73,0
500040,note_on,0,0,1,,,,,,,,,1,,,71,63
500135,note_off,95,0,1,,,,,,,,,1,,,71,0
500160,note_on,480,0,5,,,,,,,,,5,,,62,66
500320,note_off,160,0,5,,,,,,,,,5,,,62,0
500320,note_on,0,0,5,,,,,,,,,5,,,64,66
500480,note_on,0,0,5,,,,,,,,,5,,,62,67
500480,note_off,160,0,5,,,,,,,,,5,,,64,0
500640,note_on,0,0,5,,,,,,,,,5,,,61,67
500640,note_off,160,0,5,,,,,,,,,5,,,62,0
500800,note_off,160,0,5,,,,,,,,,5,,,61,0
500800,note_on,0,0,5,,,,,,,,,5,,,59,68
500960,note_off,160,0,5,,,,,,,,,5,,,59,0
500960,note_on,0,0,5,,,,,,,,,5,,,57,69
501080,set_tempo,1880,1,0,,,,,,571428,,,,,,,
501120,note_on,985,0,1,,,,,,,,,1,,,83,68
501120,note_on,0,0,5,,,,,,,,,5,,,56,68
501120,note_off,160,0,5,,,,,,,,,5,,,57,0
501120,set_tempo,40,1,0,,,,,,560747,,,,,,,
501180,note_off,60,0,1,,,,,,,,,1,,,83,0
501180,note_on,0,0,1,,,,,,,,,1,,,85,73
501240,note_on,0,0,1,,,,,,,,,1,,,86,77
501240,note_off,60,0,1,,,,,,,,,1,,,85,0
501590,note_off,350,0,1,,,,,,,,,1,,,86,0
501600,note_on,10,0,1,,,,,,,,,1,,,85,73
501600,note_off,480,0,5,,,,,,,,,5,,,56,0
501720,note_on,0,0,1,,,,,,,,,1,,,83,72
501720,note_off,120,0,1,,,,,,,,,1,,,85,0
501840,note_off,120,0,1,,,,,,,,,1,,,83,0
501840,note_on,0,0,1,,,,,,,,,1,,,81,70
501960,note_on,0,0,1,,,,,,,,,1,,,80,68
501960,note_off,120,0,1,,,,,,,,,1,,,81,0
502055,note_off,95,0,1,,,,,,,,,1,,,80,0
502080,note_on,480,0,5,,,,,,,,,5,,,71,77
502140,note_off,60,0,5,,,,,,,,,5,,,71,0
502140,note_on,0,0,5,,,,,,,,,5,,,73,81
502200,note_off,60,0,5,,,,,,,,,5,,,73,0
502200,note_on,0,0,5,,,,,,,,,5,,,74,84
502560,note_on,0,0,5,,,,,,,,,5,,,73,81
502560,note_off,360,0,5,,,,,,,,,5,,,74,0
502680,note_on,0,0,5,,,,,,,,,5,,,71,79
502680,note_off,120,0,5,,,,,,,,,5,,,73,0
502800,note_on,0,0,5,,,,,,,,,5,,,69,78
502800,note_off,120,0,5,,,,,,,,,5,,,71,0
502920,note_off,120,0,5,,,,,,,,,5,,,69,0
502920,note_on,0,0,5,,,,,,,,,5,,,68,76
503000,set_tempo,1880,1,0,,,,,,571428,,,,,,,
503015,note_off,95,0,5,,,,,,,,,5,,,68,0
503040,set_tempo,40,1,0,,,,,,560747,,,,,,,
503040,note_on,985,0,1,,,,,,,,,1,,,76,52
503520,note_off,480,0,1,,,,,,,,,1,,,76,0
503520,note_on,0,0,1,,,,,,,,,1,,,77,56
504000,note_off,480,0,1,,,,,,,,,1,,,77,0
504000,note_on,0,0,1,,,,,,,,,1,,,78,60
504385,note_off,385,0,1,,,,,,,,,1,,,78,0
504440,set_tempo,1400,1,0,,,,,,571428,,,,,,,
504480,note_on,1465,0,5,,,,,,,,,5,,,52,75
504480,note_on,95,0,1,,,,,,,,,1,,,68,75
504480,note_on,0,0,4,,,,,,,,,4,,,59,75
504480,note_on,6335,0,4,,,,,,,,,4,,,62,75
504790,note_off,310,0,1,,,,,,,,,1,,,68,0
504790,note_off,0,0,4,,,,,,,,,4,,,62,0
504790,note_off,310,0,4,,,,,,,,,4,,,59,0
504790,note_off,310,0,5,,,,,,,,,5,,,52,0
504960,note_on,170,0,4,,,,,,,,,4,,,61,79
504960,note_on,170,0,5,,,,,,,,,5,,,57,79
504960,note_on,170,0,1,,,,,,,,,1,,,69,79
505270,note_off,310,0,1,,,,,,,,,1,,,69,0
505270,note_off,310,0,4,,,,,,,,,4,,,61,0
505270,note_off,310,0,5,,,,,,,,,5,,,57,0
505440,set_tempo,1000,1,0,,,,,,600000,,,,,,,
505440,note_on,170,0,5,,,,,,,,,5,,,45,58
505750,note_off,310,0,5,,,,,,,,,5,,,45,0
505920,control_change,15360,0,3,,,,,,,64,0,3,,,,
505920,control_change,650,0,4,,,,,,,64,0,4,,,,
505920,note_on,0,0,1,,,,,,,,,1,,,69,43
505920,control_change,650,0,1,,,,,,,64,0,1,,,,
505920,set_tempo,480,1,0,,,,,,560747,,,,,,,
505920,control_change,10590,0,2,,,,,,,64,0,2,,,,
505920,control_change,170,0,5,,,,,,,64,0,5,,,,
506080,note_on,0,0,1,,,,,,,,,1,,,72,44
506080,note_off,160,0,1,,,,,,,,,1,,,69,0
506240,note_on,0,0,1,,,,,,,,,1,,,75,45
506240,note_off,160,0,1,,,,,,,,,1,,,72,0
506400,note_on,0,0,1,,,,,,,,,1,,,78,46
506400,note_off,160,0,1,,,,,,,,,1,,,75,0
506560,note_off,160,0,1,,,,,,,,,1,,,78,0
506560,note_on,0,0,1,,,,,,,,,1,,,81,47
506720,note_on,0,0,1,,,,,,,,,1,,,84,48
506720,note_off,160,0,1,,,,,,,,,1,,,81,0
506840,set_tempo,920,1,0,,,,,,571428,,,,,,,
506855,note_off,135,0,1,,,,,,,,,1,,,84,0
506880,set_tempo,40,1,0,,,,,,560747,,,,,,,
506880,note_on,960,0,5,,,,,,,,,5,,,59,57
506880,note_on,25,0,1,,,,,,,,,1,,,81,53
506880,note_on,960,0,2,,,,,,,,,2,,,78,53
506940,note_on,0,0,5,,,,,,,,,5,,,61,59
506940,note_off,60,0,5,,,,,,,,,5,,,59,0
507000,note_off,60,0,5,,,,,,,,,5,,,61,0
507000,note_on,0,0,5,,,,,,,,,5,,,63,63
507360,note_off,480,0,2,,,,,,,,,2,,,78,0
507360,note_off,360,0,5,,,,,,,,,5,,,63,0
507360,note_on,0,0,5,,,,,,,,,5,,,64,58
507360,note_off,480,0,1,,,,,,,,,1,,,81,0
507360,note_on,0,0,1,,,,,,,,,1,,,80,50
507360,note_on,0,0,2,,,,,,,,,2,,,76,50
507480,note_off,120,0,5,,,,,,,,,5,,,64,0
507480,note_on,0,0,5,,,,,,,,,5,,,62,55
507600,note_off,120,0,5,,,,,,,,,5,,,62,0
507600,note_on,0,0,5,,,,,,,,,5,,,61,53
507720,note_off,120,0,5,,,,,,,,,5,,,61,0
507720,note_on,0,0,5,,,,,,,,,5,,,59,51
507745,note_off,385,0,1,,,,,,,,,1,,,80,0
507745,note_off,385,0,2,,,,,,,,,2,,,76,0
507815,note_off,95,0,5,,,,,,,,,5,,,59,0
507840,note_on,95,0,1,,,,,,,,,1,,,79,47
507840,note_on,25,0,5,,,,,,,,,5,,,57,51
507840,note_on,95,0,2,,,,,,,,,2,,,76,47
507900,note_off,60,0,5,,,,,,,,,5,,,57,0
507900,note_on,0,0,5,,,,,,,,,5,,,59,53
507960,note_on,0,0,5,,,,,,,,,5,,,61,57
507960,note_off,60,0,5,,,,,,,,,5,,,59,0
508320,note_off,480,0,1,,,,,,,,,1,,,79,0
508320,note_on,0,0,1,,,,,,,,,1,,,78,44
508320,note_off,360,0,5,,,,,,,,,5,,,61,0
508320,note_off,480,0,2,,,,,,,,,2,,,76,0
508320,note_on,0,0,5,,,,,,,,,5,,,62,52
508320,note_on,0,0,2,,,,,,,,,2,,,74,44
508440,note_on,0,0,5,,,,,,,,,5,,,61,51
508440,note_off,120,0,5,,,,,,,,,5,,,62,0
508560,note_on,0,0,5,,,,,,,,,5,,,59,49
508560,note_off,120,0,5,,,,,,,,,5,,,61,0
508680,note_on,0,0,5,,,,,,,,,5,,,58,47
508680,note_off,120,0,5,,,,,,,,,5,,,59,0
508705,note_off,385,0,1,,,,,,,,,1,,,78,0
508705,note_off,385,0,2,,,,,,,,,2,,,74,0
508760,set_tempo,1880,1,0,,,,,,571428,,,,,,,
508775,note_off,95,0,5,,,,,,,,,5,,,58,0
508800,note_on,95,0,1,,,,,,,,,1,,,86,67
508800,set_tempo,40,1,0,,,,,,560747,,,,,,,
508800,note_on,25,0,5,,,,,,,,,5,,,59,67
508920,note_on,0,0,5,,,,,,,,,5,,,57,65
508920,note_off,120,0,5,,,,,,,,,5,,,59,0
508920,note_off,120,0,1,,,,,,,,,1,,,86,0
508920,note_on,0,0,1,,,,,,,,,1,,,85,65
509040,note_on,0,0,5,,,,,,,,,5,,,55,64
509040,note_off,120,0,5,,,,,,,,,5,,,57,0
509040,note_off,120,0,1,,,,,,,,,1,,,85,0
509040,note_on,0,0,1,,,,,,,,,1,,,83,64
509160,note_off,120,0,1,,,,,,,,,1,,,83,0
509160,note_off,120,0,5,,,,,,,,,5,,,55,0
509160,note_on,0,0,1,,,,,,,,,1,,,82,63
509160,note_on,0,0,5,,,,,,,,,5,,,54,63
509280,note_off,120,0,5,,,,,,,,,5,,,54,0
509280,note_off,120,0,1,,,,,,,,,1,,,82,0
509280,note_on,0,0,1,,,,,,,,,1,,,83,61
509280,note_on,0,0,5,,,,,,,,,5,,,55,61
509665,note_off,385,0,1,,,,,,,,,1,,,83,0
509665,note_off,385,0,5,,,,,,,,,5,,,55,0
509760,note_on,95,0,1,,,,,,,,,1,,,83,60
509760,note_on,95,0,5,,,,,,,,,5,,,55,60
509880,note_on,0,0,5,,,,,,,,,5,,,54,59
509880,note_off,120,0,5,,,,,,,,,5,,,55,0
509880,note_on,0,0,1,,,,,,,,,1,,,81,59
509880,note_off,120,0,1,,,,,,,,,1,,,83,0
510000,note_on,0,0,5,,,,,,,,,5,,,52,57
510000,note_off,120,0,5,,,,,,,,,5,,,54,0
510000,note_on,0,0,1,,,,,,,,,1,,,79,57
510000,note_off,120,0,1,,,,,,,,,1,,,81,0
510120,note_on,0,0,5,,,,,,,,,5,,,50,55
510120,note_off,120,0,5,,,,,,,,,5,,,52,0
510120,note_off,120,0,1,,,,,,,,,1,,,79,0
510120,note_on,0,0,1,,,,,,,,,1,,,78,55
510240,note_off,120,0,1,,,,,,,,,1,,,78,0
510240,note_on,0,0,1,,,,,,,,,1,,,79,54
510240,note_on,0,0,5,,,,,,,,,5,,,52,54
510240,note_off,120,0,5,,,,,,,,,5,,,50,0
510625,note_off,385,0,5,,,,,,,,,5,,,52,0
510625,note_off,385,0,1,,,,,,,,,1,,,79,0
510680,set_tempo,1880,1,0,,,,,,571428,,,,,,,
510720,note_on,95,0,1,,,,,,,,,1,,,69,38
510720,set_tempo,40,1,0,,,,,,560747,,,,,,,
511200,note_on,5280,0,4,,,,,,,,,4,,,67,40
511200,note_on,575,0,5,,,,,,,,,5,,,64,40
511440,note_on,720,0,1,,,,,,,,,1,,,71,41
511445,note_off,5,0,1,,,,,,,,,1,,,69,0
511560,note_on,0,0,1,,,,,,,,,1,,,73,41
511560,note_off,115,0,1,,,,,,,,,1,,,71,0
511655,note_off,95,0,1,,,,,,,,,1,,,73,0
511680,note_off,480,0,5,,,,,,,,,5,,,64,0
511680,note_on,0,0,5,,,,,,,,,5,,,62,42
511680,note_on,0,0,4,,,,,,,,,4,,,66,42
511680,note_off,480,0,4,,,,,,,,,4,,,67,0
511680,note_on,25,0,1,,,,,,,,,1,,,74,42
511835,note_off,155,0,1,,,,,,,,,1,,,74,0
511920,note_on,85,0,1,,,,,,,,,1,,,76,43
512075,note_off,155,0,1,,,,,,,,,1,,,76,0
512160,note_on,0,0,4,,,,,,,,,4,,,62,44
512160,note_off,480,0,4,,,,,,,,,4,,,66,0
512160,note_on,85,0,1,,,,,,,,,1,,,78,44
512160,note_on,0,0,5,,,,,,,,,5,,,59,44
512160,note_off,480,0,5,,,,,,,,,5,,,62,0
512315,note_off,155,0,1,,,,,,,,,1,,,78,0
512400,note_on,85,0,1,,,,,,,,,1,,,80,48
512545,note_off,385,0,4,,,,,,,,,4,,,62,0
512545,note_off,385,0,5,,,,,,,,,5,,,59,0
512555,note_off,155,0,1,,,,,,,,,1,,,80,0
512600,set_tempo,1880,1,0,,,,,,571428,,,,,,,
512640,set_tempo,40,1,0,,,,,,560747,,,,,,,
512640,note_on,85,0,1,,,,,,,,,1,,,80,60
512640,note_on,95,0,4,,,,,,,,,4,,,62,60
512640,note_on,95,0,5,,,,,,,,,5,,,57,60
513120,note_off,480,0,1,,,,,,,,,1,,,80,0
513120,note_off,480,0,4,,,,,,,,,4,,,62,0
513120,note_on,0,0,4,,,,,,,,,4,,,61,48
513120,note_on,0,0,1,,,,,,,,,1,,,81,48
513360,note_off,720,0,5,,,,,,,,,5,,,57,0
513360,note_off,240,0,4,,,,,,,,,4,,,61,0
513360,note_off,240,0,1,,,,,,,,,1,,,81,0
513600,note_on,240,0,1,,,,,,,,,1,,,61,66
513600,note_on,240,0,5,,,,,,,,,5,,,49,66
513660,note_off,60,0,5,,,,,,,,,5,,,49,0
513660,note_on,0,0,5,,,,,,,,,5,,,50,70
513660,note_on,0,0,1,,,,,,,,,1,,,62,70
513660,note_off,60,0,1,,,,,,,,,1,,,61,0
513720,note_off,60,0,1,,,,,,,,,1,,,62,0
513720,note_off,60,0,5,,,,,,,,,5,,,50,0
513720,note_on,0,0,5,,,,,,,,,5,,,52,75
513720,note_on,0,0,1,,,,,,,,,1,,,64,74
514080,note_on,360,0,1,,,,,,,,,1,,,62,66
514080,note_on,0,0,5,,,,,,,,,5,,,50,68
514080,note_off,360,0,5,,,,,,,,,5,,,52,0
514085,note_off,5,0,1,,,,,,,,,1,,,64,0
514200,note_off,115,0,1,,,,,,,,,1,,,62,0
514200,note_on,0,0,1,,,,,,,,,1,,,61,64
514200,note_off,120,0,5,,,,,,,,,5,,,50,0
514200,note_on,0,0,5,,,,,,,,,5,,,49,66
514320,note_off,120,0,5,,,,,,,,,5,,,49,0
514320,note_on,0,0,5,,,,,,,,,5,,,47,64
514320,note_on,0,0,1,,,,,,,,,1,,,59,61
514320,note_off,120,0,1,,,,,,,,,1,,,61,0
514440,note_off,120,0,1,,,,,,,,,1,,,59,0
514440,note_on,0,0,1,,,,,,,,,1,,,57,58
514440,note_off,120,0,5,,,,,,,,,5,,,47,0
514440,note_on,0,0,5,,,,,,,,,5,,,45,62
514520,set_tempo,1880,1,0,,,,,,571428,,,,,,,
514535,note_off,95,0,1,,,,,,,,,1,,,57,0
514560,note_on,25,0,1,,,,,,,,,1,,,69,55
514560,note_off,120,0,5,,,,,,,,,5,,,45,0
514560,note_on,0,0,5,,,,,,,,,5,,,57,60
515040,note_off,480,0,1,,,,,,,,,1,,,69,0
515040,note_off,480,0,5,,,,,,,,,5,,,57,0
515040,set_tempo,520,1,0,,,,,,625000,,,,,,,
515520,note_on,480,0,5,,,,,,,,,5,,,69,41
515520,set_tempo,480,1,0,,,,,,560747,,,,,,,
515680,note_off,160,0,5,,,,,,,,,5,,,69,0
515680,note_on,0,0,5,,,,,,,,,5,,,71,42
515840,note_off,160,0,5,,,,,,,,,5,,,71,0
515840,note_on,0,0,5,,,,,,,,,5,,,69,43
516000,note_off,160,0,5,,,,,,,,,5,,,69,0
516000,note_on,0,0,5,,,,,,,,,5,,,67,43
516160,note_off,160,0,5,,,,,,,,,5,,,67,0
516160,note_on,0,0,5,,,,,,,,,5,,,66,44
516320,note_off,160,0,5,,,,,,,,,5,,,66,0
516320,note_on,0,0,5,,,,,,,,,5,,,64,45
516440,set_tempo,920,1,0,,,,,,571428,,,,,,,
516480,note_off,160,0,5,,,,,,,,,5,,,64,0
516480,note_on,0,0,5,,,,,,,,,5,,,62,46
516480,note_on,1440,0,1,,,,,,,,,1,,,78,46
516480,set_tempo,40,1,0,,,,,,560747,,,,,,,
516540,note_off,60,0,1,,,,,,,,,1,,,78,0
516540,note_on,0,0,1,,,,,,,,,1,,,79,50
516600,note_on,0,0,1,,,,,,,,,1,,,81,54
516600,note_off,60,0,1,,,,,,,,,1,,,79,0
516960,note_on,0,0,1,,,,,,,,,1,,,79,52
516960,note_off,360,0,1,,,,,,,,,1,,,81,0
516960,note_off,480,0,5,,,,,,,,,5,,,62,0
517080,note_on,0,0,1,,,,,,,,,1,,,78,51
517080,note_off,120,0,1,,,,,,,,,1,,,79,0
517200,note_on,0,0,1,,,,,,,,,1,,,76,50
517200,note_off,120,0,1,,,,,,,,,1,,,78,0
517320,note_on,0,0,1,,,,,,,,,1,,,74,48
517320,note_off,120,0,1,,,,,,,,,1,,,76,0
517415,note_off,95,0,1,,,,,,,,,1,,,74,0
517440,note_on,480,0,5,,,,,,,,,5,,,62,51
517600,note_on,0,0,5,,,,,,,,,5,,,64,52
517600,note_off,160,0,5,,,,,,,,,5,,,62,0
517760,note_off,160,0,5,,,,,,,,,5,,,64,0
517760,note_on,0,0,5,,,,,,,,,5,,,62,52
517920,note_off,160,0,5,,,,,,,,,5,,,62,0
517920,note_on,0,0,5,,,,,,,,,5,,,60,53
518080,note_off,160,0,5,,,,,,,,,5,,,60,0
518080,note_on,0,0,5,,,,,,,,,5,,,59,54
518240,note_off,160,0,5,,,,,,,,,5,,,59,0
518240,note_on,0,0,5,,,,,,,,,5,,,57,55
518360,set_tempo,1880,1,0,,,,,,571428,,,,,,,
518400,note_off,160,0,5,,,,,,,,,5,,,57,0
518400,note_on,0,0,5,,,,,,,,,5,,,55,56
518400,set_tempo,40,1,0,,,,,,560747,,,,,,,
518400,note_on,985,0,1,,,,,,,,,1,,,79,56
518460,note_off,60,0,1,,,,,,,,,1,,,79,0
518460,note_on,0,0,1,,,,,,,,,1,,,81,60
518520,note_off,60,0,1,,,,,,,,,1,,,81,0
518520,note_on,0,0,1,,,,,,,,,1,,,83,63
518880,note_off,480,0,5,,,,,,,,,5,,,55,0
518880,note_on,360,0,1,,,,,,,,,1,,,81,60
518885,note_off,5,0,1,,,,,,,,,1,,,83,0
519000,note_off,115,0,1,,,,,,,,,1,,,81,0
519000,note_on,0,0,1,,,,,,,,,1,,,79,59
519120,note_off,120,0,1,,,,,,,,,1,,,79,0
519120,note_on,0,0,1,,,,,,,,,1,,,78,58
519240,note_off,120,0,1,,,,,,,,,1,,,78,0
519240,note_on,0,0,1,,,,,,,,,1,,,76,57
519335,note_off,95,0,1,,,,,,,,,1,,,76,0
519360,note_on,480,0,5,,,,,,,,,5,,,64,64
519420,note_on,60,0,5,,,,,,,,,5,,,66,67
519425,note_off,5,0,5,,,,,,,,,5,,,64,0
519480,note_on,0,0,5,,,,,,,,,5,,,67,71
519480,note_off,55,0,5,,,,,,,,,5,,,66,0
519840,note_on,0,0,5,,,,,,,,,5,,,66,69
519840,note_off,360,0,5,,,,,,,,,5,,,67,0
519960,note_on,0,0,5,,,,,,,,,5,,,64,68
519960,note_off,120,0,5,,,,,,,,,5,,,66,0
520080,note_off,120,0,5,,,,,,,,,5,,,64,0
520080,note_on,0,0,5,,,,,,,,,5,,,62,66
520200,note_off,120,0,5,,,,,,,,,5,,,62,0
520200,note_on,0,0,5,,,,,,,,,5,,,61,65
520280,set_tempo,1880,1,0,,,,,,571428,,,,,,,
520295,note_off,95,0,5,,,,,,,,,5,,,61,0
520320,note_on,985,0,1,,,,,,,,,1,,,81,48
520320,set_tempo,40,1,0,,,,,,560747,,,,,,,
520800,note_off,480,0,1,,,,,,,,,1,,,81,0
520800,note_on,0,0,1,,,,,,,,,1,,,82,52
521280,note_off,480,0,1,,,,,,,,,1,,,82,0
521280,note_on,0,0,1,,,,,,,,,1,,,83,56
521590,note_off,310,0,1,,,,,,,,,1,,,83,0
521720,set_tempo,1400,1,0,,,,,,571428,,,,,,,
521760,note_on,8400,0,4,,,,,,,,,4,,,67,73
521760,note_on,1465,0,5,,,,,,,,,5,,,57,73
521760,note_on,170,0,1,,,,,,,,,1,,,73,73
521760,note_on,0,0,4,,,,,,,,,4,,,64,73
522070,note_off,310,0,1,,,,,,,,,1,,,73,0
522070,note_off,0,0,4,,,,,,,,,4,,,67,0
522070,note_off,310,0,4,,,,,,,,,4,,,64,0
522070,note_off,310,0,5,,,,,,,,,5,,,57,0
522240,note_on,170,0,1,,,,,,,,,1,,,74,78
522240,note_on,170,0,4,,,,,,,,,4,,,66,78
522240,set_tempo,520,1,0,,,,,,582524,,,,,,,
522240,note_on,170,0,5,,,,,,,,,5,,,62,78
522550,note_off,310,0,4,,,,,,,,,4,,,66,0
522550,note_off,310,0,1,,,,,,,,,1,,,74,0
522550,note_off,310,0,5,,,,,,,,,5,,,62,0
522705,set_tempo,465,1,0,,,,,,1071428,,,,,,,
522720,note_on,170,0,5,,,,,,,,,5,,,50,55
522876,note_off,156,0,5,,,,,,,,,5,,,50,0
522960,set_tempo,255,1,0,,,,,,1333333,,,,,,,
523200,control_change,324,0,5,,,,,,,64,0,5,,,,
523200,set_tempo,240,1,0,,,,,,508474,,,,,,,
523200,control_change,650,0,4,,,,,,,64,0,4,,,,
523200,marker,0,1,0,,,,,,,,,,,,,
523200,note_on,0,0,1,,,,,,,,,1,,,74,42
523200,control_change,650,0,1,,,,,,,64,0,1,,,,
523200,control_change,14495,0,2,,,,,,,64,0,2,,,,
523200,control_change,17280,0,3,,,,,,,64,0,3,,,,
523320,note_off,120,0,1,,,,,,,,,1,,,74,0
523320,note_on,0,0,1,,,,,,,,,1,,,73,42
523440,note_off,120,0,1,,,,,,,,,1,,,73,0
523440,note_on,0,0,1,,,,,,,,,1,,,76,42
523560,note_off,120,0,1,,,,,,,,,1,,,76,0
523560,note_on,0,0,1,,,,,,,,,1,,,74,42
523680,note_off,120,0,1,,,,,,,,,1,,,74,0
523680,note_on,0,0,1,,,,,,,,,1,,,78,43
523800,note_off,120,0,1,,,,,,,,,1,,,78,0
523800,note_on,0,0,1,,,,,,,,,1,,,76,43
523920,note_on,0,0,1,,,,,,,,,1,,,79,43
523920,note_off,120,0,1,,,,,,,,,1,,,76,0
524040,note_off,120,0,1,,,,,,,,,1,,,79,0
524040,note_on,0,0,1,,,,,,,,,1,,,78,43
524120,set_tempo,920,1,0,,,,,,517241,,,,,,,
524140,note_off,100,0,1,,,,,,,,,1,,,78,0
524160,note_on,960,0,5,,,,,,,,,5,,,66,43
524160,set_tempo,40,1,0,,,,,,508474,,,,,,,
524160,note_on,20,0,1,,,,,,,,,1,,,81,43
524160,note_on,0,0,5,,,,,,,,,5,,,54,43
524280,note_off,120,0,1,,,,,,,,,1,,,81,0
524280,note_on,0,0,1,,,,,,,,,1,,,83,43
524315,note_off,0,0,5,,,,,,,,,5,,,66,0
524315,note_off,155,0,5,,,,,,,,,5,,,54,0
524400,note_on,0,0,1,,,,,,,,,1,,,79,44
524400,note_on,85,0,5,,,,,,,,,5,,,49,44
524400,note_on,0,0,5,,,,,,,,,5,,,61,44
524400,note_off,120,0,1,,,,,,,,,1,,,83,0
524520,note_off,120,0,1,,,,,,,,,1,,,79,0
524520,note_on,0,0,1,,,,,,,,,1,,,81,44
524555,note_off,0,0,5,,,,,,,,,5,,,49,0
524555,note_off,155,0,5,,,,,,,,,5,,,61,0
524640,note_on,0,0,1,,,,,,,,,1,,,78,44
524640,note_on,85,0,5,,,,,,,,,5,,,62,44
524640,note_off,120,0,1,,,,,,,,,1,,,81,0
524640,note_on,0,0,5,,,,,,,,,5,,,50,44
524760,note_on,0,0,1,,,,,,,,,1,,,79,44
524760,note_off,120,0,1,,,,,,,,,1,,,78,0
524795,note_off,155,0,5,,,,,,,,,5,,,50,0
524795,note_off,0,0,5,,,,,,,,,5,,,62,0
524880,note_on,0,0,1,,,,,,,,,1,,,76,44
524880,note_off,120,0,1,,,,,,,,,1,,,79,0
524880,note_on,85,0,5,,,,,,,,,5,,,46,44
524880,note_on,0,0,5,,,,,,,,,5,,,58,44
525000,note_on,0,0,1,,,,,,,,,1,,,78,44
525000,note_off,120,0,1,,,,,,,,,1,,,76,0
525035,note_off,0,0,5,,,,,,,,,5,,,46,0
525035,note_off,155,0,5,,,,,,,,,5,,,58,0
525120,note_on,0,0,5,,,,,,,,,5,,,59,45
525120,note_on,85,0,5,,,,,,,,,5,,,47,45
525120,note_off,120,0,1,,,,,,,,,1,,,78,0
525120,note_on,0,0,1,,,,,,,,,1,,,74,45
525240,note_off,120,0,1,,,,,,,,,1,,,74,0
525240,note_on,0,0,1,,,,,,,,,1,,,76,45
525360,note_off,120,0,1,,,,,,,,,1,,,76,0
525360,note_on,0,0,1,,,,,,,,,1,,,74,45
525430,note_off,0,0,5,,,,,,,,,5,,,47,0
525430,note_off,310,0,5,,,,,,,,,5,,,59,0
525480,note_on,0,0,1,,,,,,,,,1,,,73,45
525480,note_off,120,0,1,,,,,,,,,1,,,74,0
525585,note_off,105,0,1,,,,,,,,,1,,,73,0
525600,note_on,15,0,1,,,,,,,,,1,,,74,45
525720,note_off,120,0,1,,,,,,,,,1,,,74,0
525720,note_on,0,0,1,,,,,,,,,1,,,76,45
525840,note_on,0,0,1,,,,,,,,,1,,,78,46
525840,note_off,120,0,1,,,,,,,,,1,,,76,0
525960,note_off,120,0,1,,,,,,,,,1,,,78,0
525960,note_on,0,0,1,,,,,,,,,1,,,74,46
526040,set_tempo,1880,1,0,,,,,,517241,,,,,,,
526080,note_off,120,0,1,,,,,,,,,1,,,74,0
526080,note_on,0,0,1,,,,,,,,,1,,,79,46
526080,set_tempo,40,1,0,,,,,,508474,,,,,,,
526080,note_on,0,0,5,,,,,,,,,5,,,64,46
526080,note_on,650,0,5,,,,,,,,,5,,,52,46
526200,note_off,120,0,1,,,,,,,,,1,,,79,0
526200,note_on,0,0,1,,,,,,,,,1,,,81,46
526235,note_off,0,0,5,,,,,,,,,5,,,52,0
526235,note_off,155,0,5,,,,,,,,,5,,,64,0
526320,note_on,0,0,5,,,,,,,,,5,,,66,46
526320,note_on,85,0,5,,,,,,,,,5,,,54,46
526320,note_on,0,0,1,,,,,,,,,1,,,78,46
526320,note_off,120,0,1,,,,,,,,,1,,,81,0
526440,note_off,120,0,1,,,,,,,,,1,,,78,0
526440,note_on,0,0,1,,,,,,,,,1,,,79,46
526475,note_off,0,0,5,,,,,,,,,5,,,54,0
526475,note_off,155,0,5,,,,,,,,,5,,,66,0
526560,note_on,0,0,5,,,,,,,,,5,,,55,46
526560,note_on,85,0,5,,,,,,,,,5,,,67,46
526560,note_on,0,0,1,,,,,,,,,1,,,76,46
526560,note_off,120,0,1,,,,,,,,,1,,,79,0
526680,note_off,120,0,1,,,,,,,,,1,,,76,0
526680,note_on,0,0,1,,,,,,,,,1,,,78,47
526715,note_off,0,0,5,,,,,,,,,5,,,67,0
526715,note_off,155,0,5,,,,,,,,,5,,,55,0
526800,note_on,0,0,1,,,,,,,,,1,,,74,47
526800,note_off,120,0,1,,,,,,,,,1,,,78,0
526800,note_on,85,0,5,,,,,,,,,5,,,56,47
526800,note_on,0,0,5,,,,,,,,,5,,,68,47
526920,note_on,0,0,1,,,,,,,,,1,,,76,47
526920,note_off,120,0,1,,,,,,,,,1,,,74,0
526955,note_off,155,0,5,,,,,,,,,5,,,68,0
526955,note_off,0,0,5,,,,,,,,,5,,,56,0
527040,note_on,0,0,5,,,,,,,,,5,,,69,47
527040,note_off,120,0,1,,,,,,,,,1,,,76,0
527040,note_on,85,0,5,,,,,,,,,5,,,57,47
527040,note_on,0,0,1,,,,,,,,,1,,,73,47
527160,note_on,0,0,1,,,,,,,,,1,,,74,47
527160,note_off,120,0,1,,,,,,,,,1,,,73,0
527280,note_on,0,0,1,,,,,,,,,1,,,76,47
527280,note_off,120,0,1,,,,,,,,,1,,,74,0
527350,note_off,310,0,5,,,,,,,,,5,,,69,0
527350,note_off,0,0,5,,,,,,,,,5,,,57,0
527400,note_on,0,0,1,,,,,,,,,1,,,78,48
527400,note_off,120,0,1,,,,,,,,,1,,,76,0
527520,note_off,120,0,1,,,,,,,,,1,,,78,0
527520,note_on,0,0,1,,,,,,,,,1,,,79,48
527640,note_off,120,0,1,,,,,,,,,1,,,79,0
527640,note_on,0,0,1,,,,,,,,,1,,,78,48
527760,note_off,120,0,1,,,,,,,,,1,,,78,0
527760,note_on,0,0,1,,,,,,,,,1,,,79,48
527880,note_on,0,0,1,,,,,,,,,1,,,76,48
527880,note_off,120,0,1,,,,,,,,,1,,,79,0
527960,set_tempo,1880,1,0,,,,,,517241,,,,,,,
527975,note_off,95,0,1,,,,,,,,,1,,,76,0
528000,note_on,25,0,1,,,,,,,,,1,,,78,48
528000,note_on,0,0,4,,,,,,,,,4,,,69,48
528000,set_tempo,40,1,0,,,,,,508474,,,,,,,
528000,note_on,650,0,5,,,,,,,,,5,,,62,48
528000,note_on,4800,0,4,,,,,,,,,4,,,66,48
528120,note_off,120,0,1,,,,,,,,,1,,,78,0
528120,note_on,0,0,1,,,,,,,,,1,,,74,49
528240,note_off,120,0,1,,,,,,,,,1,,,74,0
528240,note_on,0,0,1,,,,,,,,,1,,,79,50
528310,note_off,310,0,5,,,,,,,,,5,,,62,0
528310,note_off,0,0,4,,,,,,,,,4,,,66,0
528310,note_off,310,0,4,,,,,,,,,4,,,69,0
528360,note_off,120,0,1,,,,,,,,,1,,,79,0
528360,note_on,0,0,1,,,,,,,,,1,,,76,51
528480,note_on,0,0,1,,,,,,,,,1,,,81,52
528480,note_off,120,0,1,,,,,,,,,1,,,76,0
528600,note_off,120,0,1,,,,,,,,,1,,,81,0
528600,note_on,0,0,1,,,,,,,,,1,,,80,53
528720,note_off,120,0,1,,,,,,,,,1,,,80,0
528720,note_on,0,0,1,,,,,,,,,1,,,81,54
528840,note_on,0,0,1,,,,,,,,,1,,,78,55
528840,note_off,120,0,1,,,,,,,,,1,,,81,0
528920,set_tempo,920,1,0,,,,,,517241,,,,,,,
528940,note_off,100,0,1,,,,,,,,,1,,,78,0
528960,note_on,20,0,1,,,,,,,,,1,,,79,56
528960,note_on,650,0,5,,,,,,,,,5,,,55,56
528960,set_tempo,40,1,0,,,,,,508474,,,,,,,
528960,note_on,0,0,4,,,,,,,,,4,,,64,56
528960,note_on,650,0,4,,,,,,,,,4,,,59,56
529080,note_off,120,0,1,,,,,,,,,1,,,79,0
529080,note_on,0,0,1,,,,,,,,,1,,,76,59
529200,note_off,120,0,1,,,,,,,,,1,,,76,0
529200,note_on,0,0,1,,,,,,,,,1,,,81,60
529270,note_off,310,0,5,,,,,,,,,5,,,55,0
529270,note_off,310,0,4,,,,,,,,,4,,,64,0
529270,note_off,0,0,4,,,,,,,,,4,,,59,0
529320,note_on,0,0,1,,,,,,,,,1,,,78,62
529320,note_off,120,0,1,,,,,,,,,1,,,81,0
529440,note_on,0,0,1,,,,,,,,,1,,,83,64
529440,note_off,120,0,1,,,,,,,,,1,,,78,0
529560,note_on,0,0,1,,,,,,,,,1,,,82,66
529560,note_off,120,0,1,,,,,,,,,1,,,83,0
529680,note_off,120,0,1,,,,,,,,,1,,,82,0
529680,note_on,0,0,1,,,,,,,,,1,,,83,68
529800,note_on,0,0,1,,,,,,,,,1,,,79,69
529800,note_off,120,0,1,,,,,,,,,1,,,83,0
529880,set_tempo,920,1,0,,,,,,517241,,,,,,,
529895,note_off,95,0,1,,,,,,,,,1,,,79,0
529920,note_on,650,0,4,,,,,,,,,4,,,62,68
529920,note_on,650,0,5,,,,,,,,,5,,,57,68
529920,note_on,25,0,1,,,,,,,,,1,,,78,71
530390,set_tempo,510,1,0,,,,,,540540,,,,,,,
530400,note_on,0,0,4,,,,,,,,,4,,,61,50
530400,note_off,480,0,4,,,,,,,,,4,,,62,0
530400,note_off,480,0,1,,,,,,,,,1,,,78,0
530400,note_on,0,0,1,,,,,,,,,1,,,76,50
530765,note_off,845,0,5,,,,,,,,,5,,,57,0
530765,note_off,365,0,4,,,,,,,,,4,,,61,0
530785,note_off,385,0,1,,,,,,,,,1,,,76,0
530880,set_tempo,490,1,0,,,,,,508474,,,,,,,
530880,note_on,95,0,1,,,,,,,,,1,,,74,58
531000,note_off,120,0,1,,,,,,,,,1,,,74,0
531000,note_on,0,0,1,,,,,,,,,1,,,73,58
531120,note_on,0,0,1,,,,,,,,,1,,,76,58
531120,note_off,120,0,1,,,,,,,,,1,,,73,0
531240,note_off,120,0,1,,,,,,,,,1,,,76,0
531240,note_on,0,0,1,,,,,,,,,1,,,74,59
531360,note_off,120,0,1,,,,,,,,,1,,,74,0
531360,note_on,0,0,1,,,,,,,,,1,,,78,59
531480,note_off,120,0,1,,,,,,,,,1,,,78,0
531480,note_on,0,0,1,,,,,,,,,1,,,76,59
531600,note_off,120,0,1,,,,,,,,,1,,,76,0
531600,note_on,0,0,1,,,,,,,,,1,,,79,59
531720,note_off,120,0,1,,,,,,,,,1,,,79,0
531720,note_on,0,0,1,,,,,,,,,1,,,78,60
531800,set_tempo,920,1,0,,,,,,517241,,,,,,,
531820,note_off,100,0,1,,,,,,,,,1,,,78,0
531840,note_on,0,0,5,,,,,,,,,5,,,54,60
531840,set_tempo,40,1,0,,,,,,508474,,,,,,,
531840,note_on,20,0,1,,,,,,,,,1,,,81,60
531840,note_on,1075,0,5,,,,,,,,,5,,,66,60
531960,note_on,0,0,1,,,,,,,,,1,,,83,60
531960,note_off,120,0,1,,,,,,,,,1,,,81,0
531995,note_off,0,0,5,,,,,,,,,5,,,66,0
531995,note_off,155,0,5,,,,,,,,,5,,,54,0
532080,note_on,0,0,5,,,,,,,,,5,,,61,61
532080,note_on,85,0,5,,,,,,,,,5,,,49,61
532080,note_on,0,0,1,,,,,,,,,1,,,79,61
532080,note_off,120,0,1,,,,,,,,,1,,,83,0
532200,note_on,0,0,1,,,,,,,,,1,,,81,61
532200,note_off,120,0,1,,,,,,,,,1,,,79,0
532235,note_off,155,0,5,,,,,,,,,5,,,61,0
532235,note_off,0,0,5,,,,,,,,,5,,,49,0
532320,note_off,120,0,1,,,,,,,,,1,,,81,0
532320,note_on,0,0,5,,,,,,,,,5,,,50,61
532320,note_on,85,0,5,,,,,,,,,5,,,62,61
532320,note_on,0,0,1,,,,,,,,,1,,,78,61
532440,note_off,120,0,1,,,,,,,,,1,,,78,0
532440,note_on,0,0,1,,,,,,,,,1,,,79,61
532475,note_off,0,0,5,,,,,,,,,5,,,62,0
532475,note_off,155,0,5,,,,,,,,,5,,,50,0
532560,note_on,85,0,5,,,,,,,,,5,,,46,62
532560,note_off,120,0,1,,,,,,,,,1,,,79,0
532560,note_on,0,0,1,,,,,,,,,1,,,76,62
532560,note_on,0,0,5,,,,,,,,,5,,,58,62
532680,note_off,120,0,1,,,,,,,,,1,,,76,0
532680,note_on,0,0,1,,,,,,,,,1,,,78,62
532715,note_off,0,0,5,,,,,,,,,5,,,46,0
532715,note_off,155,0,5,,,,,,,,,5,,,58,0
532800,note_on,0,0,5,,,,,,,,,5,,,47,62
532800,note_on,0,0,1,,,,,,,,,1,,,74,62
532800,note_off,120,0,1,,,,,,,,,1,,,78,0
532800,note_on,85,0,5,,,,,,,,,5,,,59,62
532920,note_on,0,0,1,,,,,,,,,1,,,76,63
532920,note_off,120,0,1,,,,,,,,,1,,,74,0
532955,note_off,155,0,5,,,,,,,,,5,,,47,0
532955,note_off,0,0,5,,,,,,,,,5,,,59,0
533040,note_on,85,0,5,,,,,,,,,5,,,49,63
533040,note_off,120,0,1,,,,,,,,,1,,,76,0
533040,note_on,0,0,1,,,,,,,,,1,,,73,63
533040,note_on,0,0,5,,,,,,,,,5,,,61,63
533160,note_on,0,0,1,,,,,,,,,1,,,74,63
533160,note_off,120,0,1,,,,,,,,,1,,,73,0
533195,note_off,0,0,5,,,,,,,,,5,,,49,0
533195,note_off,155,0,5,,,,,,,,,5,,,61,0
533280,note_off,120,0,1,,,,,,,,,1,,,74,0
533280,note_on,0,0,1,,,,,,,,,1,,,71,63
533280,note_on,0,0,5,,,,,,,,,5,,,50,63
533280,note_on,85,0,5,,,,,,,,,5,,,62,63
533400,note_on,0,0,1,,,,,,,,,1,,,73,64
533400,note_off,120,0,1,,,,,,,,,1,,,71,0
533435,note_off,0,0,5,,,,,,,,,5,,,62,0
533435,note_off,155,0,5,,,,,,,,,5,,,50,0
533520,note_off,120,0,1,,,,,,,,,1,,,73,0
533520,note_on,0,0,5,,,,,,,,,5,,,51,64
533520,note_on,0,0,1,,,,,,,,,1,,,69,64
533520,note_on,85,0,5,,,,,,,,,5,,,63,64
533640,note_on,0,0,1,,,,,,,,,1,,,71,64
533640,note_off,120,0,1,,,,,,,,,1,,,69,0
533675,note_off,0,0,5,,,,,,,,,5,,,63,0
533675,note_off,155,0,5,,,,,,,,,5,,,51,0
533720,set_tempo,1880,1,0,,,,,,517241,,,,,,,
533760,note_off,120,0,1,,,,,,,,,1,,,71,0
533760,note_on,0,0,5,,,,,,,,,5,,,64,65
533760,note_on,85,0,5,,,,,,,,,5,,,52,65
533760,set_tempo,40,1,0,,,,,,508474,,,,,,,
533760,note_on,0,0,1,,,,,,,,,1,,,68,65
533865,note_off,105,0,1,,,,,,,,,1,,,68,0
533880,note_on,15,0,1,,,,,,,,,1,,,80,65
534000,note_on,0,0,1,,,,,,,,,1,,,83,65
534000,note_off,120,0,1,,,,,,,,,1,,,80,0
534070,note_off,310,0,5,,,,,,,,,5,,,64,0
534070,note_off,0,0,5,,,,,,,,,5,,,52,0
534120,note_off,120,0,1,,,,,,,,,1,,,83,0
534120,note_on,0,0,1,,,,,,,,,1,,,81,65
534240,note_off,120,0,1,,,,,,,,,1,,,81,0
534240,note_on,0,0,1,,,,,,,,,1,,,80,66
534360,note_off,120,0,1,,,,,,,,,1,,,80,0
534360,note_on,0,0,1,,,,,,,,,1,,,78,66
534480,note_on,0,0,1,,,,,,,,,1,,,76,66
534480,note_off,120,0,1,,,,,,,,,1,,,78,0
534600,note_on,0,0,1,,,,,,,,,1,,,75,67
534600,note_off,120,0,1,,,,,,,,,1,,,76,0
534680,set_tempo,920,1,0,,,,,,517241,,,,,,,
534720,note_on,3955,0,4,,,,,,,,,4,,,59,67
534720,set_tempo,40,1,0,,,,,,508474,,,,,,,
534720,note_on,650,0,5,,,,,,,,,5,,,56,67
534720,note_off,120,0,1,,,,,,,,,1,,,75,0
534720,note_on,0,0,4,,,,,,,,,4,,,64,67
534720,note_on,0,0,1,,,,,,,,,1,,,74,67
534825,note_off,105,0,1,,,,,,,,,1,,,74,0
534840,note_on,15,0,1,,,,,,,,,1,,,83,67
534960,note_on,0,0,1,,,,,,,,,1,,,86,67
534960,note_off,120,0,1,,,,,,,,,1,,,83,0
535030,note_off,310,0,4,,,,,,,,,4,,,64,0
535030,note_off,0,0,4,,,,,,,,,4,,,59,0
535030,note_off,310,0,5,,,,,,,,,5,,,56,0
535080,note_off,120,0,1,,,,,,,,,1,,,86,0
535080,note_on,0,0,1,,,,,,,,,1,,,85,68
535200,note_off,120,0,1,,,,,,,,,1,,,85,0
535200,note_on,0,0,1,,,,,,,,,1,,,83,68
535320,note_off,120,0,1,,,,,,,,,1,,,83,0
535320,note_on,0,0,1,,,,,,,,,1,,,81,68
535440,note_on,0,0,1,,,,,,,,,1,,,80,68
535440,note_off,120,0,1,,,,,,,,,1,,,81,0
535560,note_off,120,0,1,,,,,,,,,1,,,80,0
535560,note_on,0,0,1,,,,,,,,,1,,,78,69
535640,set_tempo,920,1,0,,,,,,517241,,,,,,,
535665,note_off,105,0,1,,,,,,,,,1,,,78,0
535680,set_tempo,40,1,0,,,,,,508474,,,,,,,
535680,note_on,650,0,4,,,,,,,,,4,,,61,68
535680,note_on,15,0,1,,,,,,,,,1,,,76,68
535680,note_on,650,0,5,,,,,,,,,5,,,57,68
535800,note_off,120,0,1,,,,,,,,,1,,,76,0
535800,note_on,0,0,1,,,,,,,,,1,,,78,69
535920,note_on,0,0,1,,,,,,,,,1,,,80,70
535920,note_off,120,0,1,,,,,,,,,1,,,78,0
535990,note_off,310,0,4,,,,,,,,,4,,,61,0
535990,note_off,310,0,5,,,,,,,,,5,,,57,0
536040,note_off,120,0,1,,,,,,,,,1,,,80,0
536040,note_on,0,0,1,,,,,,,,,1,,,81,72
536160,note_on,170,0,5,,,,,,,,,5,,,50,73
536160,note_on,170,0,4,,,,,,,,,4,,,59,73
536160,note_off,120,0,1,,,,,,,,,1,,,81,0
536160,note_on,0,0,1,,,,,,,,,1,,,80,73
536280,note_off,120,0,1,,,,,,,,,1,,,80,0
536280,note_on,0,0,1,,,,,,,,,1,,,78,74
536400,note_on,0,0,1,,,,,,,,,1,,,76,75
536400,note_off,120,0,1,,,,,,,,,1,,,78,0
536470,note_off,310,0,4,,,,,,,,,4,,,59,0
536470,note_off,310,0,5,,,,,,,,,5,,,50,0
536520,note_off,120,0,1,,,,,,,,,1,,,76,0
536520,note_on,0,0,1,,,,,,,,,1,,,74,76
536620,note_off,100,0,1,,,,,,,,,1,,,74,0
536640,note_on,170,0,5,,,,,,,,,5,,,52,78
536640,note_on,170,0,4,,,,,,,,,4,,,57,78
536640,note_on,20,0,1,,,,,,,,,1,,,73,78
536760,note_off,120,0,1,,,,,,,,,1,,,73,0
536760,note_on,0,0,1,,,,,,,,,1,,,74,79
536880,note_on,0,0,1,,,,,,,,,1,,,76,81
536880,note_off,120,0,1,,,,,,,,,1,,,74,0
536950,note_off,310,0,4,,,,,,,,,4,,,57,0
536950,note_off,310,0,5,,,,,,,,,5,,,52,0
537000,note_off,120,0,1,,,,,,,,,1,,,76,0
537000,note_on,0,0,1,,,,,,,,,1,,,78,82
537120,note_off,120,0,1,,,,,,,,,1,,,78,0
537120,note_on,170,0,5,,,,,,,,,5,,,52,83
537120,note_on,170,0,4,,,,,,,,,4,,,56,83
537120,note_on,0,0,1,,,,,,,,,1,,,76,83
537240,note_off,120,0,1,,,,,,,,,1,,,76,0
537240,note_on,0,0,1,,,,,,,,,1,,,74,85
537360,note_off,120,0,1,,,,,,,,,1,,,74,0
537360,note_on,0,0,1,,,,,,,,,1,,,73,86
537430,note_off,310,0,4,,,,,,,,,4,,,56,0
537430,note_off,310,0,5,,,,,,,,,5,,,52,0
537480,note_on,0,0,1,,,,,,,,,1,,,71,88
537480,note_off,120,0,1,,,,,,,,,1,,,73,0
537560,set_tempo,1880,1,0,,,,,,517241,,,,,,,
537600,note_on,0,0,1,,,,,,,,,1,,,69,89
537600,note_off,120,0,1,,,,,,,,,1,,,71,0
537600,note_on,170,0,5,,,,,,,,,5,,,45,89
537600,set_tempo,40,1,0,,,,,,508474,,,,,,,
537720,note_on,0,0,5,,,,,,,,,5,,,57,84
537720,note_off,120,0,5,,,,,,,,,5,,,45,0
537840,note_on,0,0,5,,,,,,,,,5,,,52,80
537840,note_off,120,0,5,,,,,,,,,5,,,57,0
537960,note_on,0,0,5,,,,,,,,,5,,,49,76
537960,note_off,120,0,5,,,,,,,,,5,,,52,0
538080,note_off,480,0,1,,,,,,,,,1,,,69,0
538080,set_tempo,480,1,0,,,,,,540540,,,,,,,
538080,note_on,0,0,5,,,,,,,,,5,,,45,72
538080,note_off,120,0,5,,,,,,,,,5,,,49,0
538320,note_off,240,0,5,,,,,,,,,5,,,45,0
538560,control_change,15360,0,3,,,,,,,64,0,3,,,,
538560,note_on,0,0,1,,,,,,,,,1,,,74,42
538560,control_change,1130,0,4,,,,,,,64,0,4,,,,
538560,control_change,15360,0,2,,,,,,,64,0,2,,,,
538560,control_change,480,0,1,,,,,,,64,0,1,,,,
538560,control_change,240,0,5,,,,,,,64,0,5,,,,
538560,set_tempo,480,1,0,,,,,,508474,,,,,,,
538680,note_off,120,0,1,,,,,,,,,1,,,74,0
538680,note_on,0,0,1,,,,,,,,,1,,,73,42
538800,note_off,120,0,1,,,,,,,,,1,,,73,0
538800,note_on,0,0,1,,,,,,,,,1,,,76,42
538920,note_off,120,0,1,,,,,,,,,1,,,76,0
538920,note_on,0,0,1,,,,,,,,,1,,,74,42
539040,note_off,120,0,1,,,,,,,,,1,,,74,0
539040,note_on,0,0,1,,,,,,,,,1,,,78,43
539160,note_on,0,0,1,,,,,,,,,1,,,76,43
539160,note_off,120,0,1,,,,,,,,,1,,,78,0
539280,note_on,0,0,1,,,,,,,,,1,,,79,43
539280,note_off,120,0,1,,,,,,,,,1,,,76,0
539400,note_off,120,0,1,,,,,,,,,1,,,79,0
539400,note_on,0,0,1,,,,,,,,,1,,,78,43
539480,set_tempo,920,1,0,,,,,,517241,,,,,,,
539500,note_off,100,0,1,,,,,,,,,1,,,78,0
539520,note_on,0,0,5,,,,,,,,,5,,,66,43
539520,note_on,20,0,1,,,,,,,,,1,,,81,43
539520,note_on,960,0,5,,,,,,,,,5,,,54,43
539520,set_tempo,40,1,0,,,,,,508474,,,,,,,
539640,note_off,120,0,1,,,,,,,,,1,,,81,0
539640,note_on,0,0,1,,,,,,,,,1,,,83,43
539675,note_off,155,0,5,,,,,,,,,5,,,66,0
539675,note_off,0,0,5,,,,,,,,,5,,,54,0
539760,note_on,85,0,5,,,,,,,,,5,,,61,44
539760,note_on,0,0,5,,,,,,,,,5,,,49,44
539760,note_on,0,0,1,,,,,,,,,1,,,79,44
539760,note_off,120,0,1,,,,,,,,,1,,,83,0
539880,note_off,120,0,1,,,,,,,,,1,,,79,0
539880,note_on,0,0,1,,,,,,,,,1,,,81,44
539915,note_off,155,0,5,,,,,,,,,5,,,49,0
539915,note_off,0,0,5,,,,,,,,,5,,,61,0
540000,note_off,120,0,1,,,,,,,,,1,,,81,0
540000,note_on,0,0,1,,,,,,,,,1,,,78,44
540000,note_on,85,0,5,,,,,,,,,5,,,50,44
540000,note_on,0,0,5,,,,,,,,,5,,,62,44
540120,note_on,0,0,1,,,,,,,,,1,,,79,44
540120,note_off,120,0,1,,,,,,,,,1,,,78,0
540155,note_off,0,0,5,,,,,,,,,5,,,50,0
540155,note_off,155,0,5,,,,,,,,,5,,,62,0
540240,note_on,0,0,5,,,,,,,,,5,,,46,44
540240,note_on,85,0,5,,,,,,,,,5,,,58,44
540240,note_on,0,0,1,,,,,,,,,1,,,76,44
540240,note_off,120,0,1,,,,,,,,,1,,,79,0
540360,note_on,0,0,1,,,,,,,,,1,,,78,44
540360,note_off,120,0,1,,,,,,,,,1,,,76,0
540395,note_off,0,0,5,,,,,,,,,5,,,58,0
540395,note_off,155,0,5,,,,,,,,,5,,,46,0
540480,note_off,120,0,1,,,,,,,,,1,,,78,0
540480,note_on,0,0,5,,,,,,,,,5,,,47,45
540480,note_on,0,0,1,,,,,,,,,1,,,74,45
540480,note_on,85,0,5,,,,,,,,,5,,,59,45
540600,note_off,120,0,1,,,,,,,,,1,,,74,0
540600,note_on,0,0,1,,,,,,,,,1,,,76,45
540720,note_off,120,0,1,,,,,,,,,1,,,76,0
540720,note_on,0,0,1,,,,,,,,,1,,,74,45
540790,note_off,0,0,5,,,,,,,,,5,,,59,0
540790,note_off,310,0,5,,,,,,,,,5,,,47,0
540840,note_off,120,0,1,,,,,,,,,1,,,74,0
540840,note_on,0,0,1,,,,,,,,,1,,,73,45
540945,note_off,105,0,1,,,,,,,,,1,,,73,0
540960,note_on,15,0,1,,,,,,,,,1,,,74,45
541080,note_on,0,0,1,,,,,,,,,1,,,76,45
541080,note_off,120,0,1,,,,,,,,,1,,,74,0
541200,note_off,120,0,1,,,,,,,,,1,,,76,0
541200,note_on,0,0,1,,,,,,,,,1,,,78,46
541320,note_off,120,0,1,,,,,,,,,1,,,78,0
541320,note_on,0,0,1,,,,,,,,,1,,,74,46
541400,set_tempo,1880,1,0,,,,,,517241,,,,,,,
541440,note_off,120,0,1,,,,,,,,,1,,,74,0
541440,note_on,0,0,1,,,,,,,,,1,,,79,46
541440,note_on,650,0,5,,,,,,,,,5,,,64,46
541440,set_tempo,40,1,0,,,,,,508474,,,,,,,
541440,note_on,0,0,5,,,,,,,,,5,,,52,46
541560,note_off,120,0,1,,,,,,,,,1,,,79,0
541560,note_on,0,0,1,,,,,,,,,1,,,81,46
541595,note_off,155,0,5,,,,,,,,,5,,,52,0
541595,note_off,0,0,5,,,,,,,,,5,,,64,0
541680,note_on,85,0,5,,,,,,,,,5,,,66,46
541680,note_on,0,0,5,,,,,,,,,5,,,54,46
541680,note_off,120,0,1,,,,,,,,,1,,,81,0
541680,note_on,0,0,1,,,,,,,,,1,,,78,46
541800,note_off,120,0,1,,,,,,,,,1,,,78,0
541800,note_on,0,0,1,,,,,,,,,1,,,79,46
541835,note_off,0,0,5,,,,,,,,,5,,,66,0
541835,note_off,155,0,5,,,,,,,,,5,,,54,0
541920,note_on,85,0,5,,,,,,,,,5,,,55,46
541920,note_off,120,0,1,,,,,,,,,1,,,79,0
541920,note_on,0,0,1,,,,,,,,,1,,,76,46
541920,note_on,0,0,5,,,,,,,,,5,,,67,46
542040,note_off,120,0,1,,,,,,,,,1,,,76,0
542040,note_on,0,0,1,,,,,,,,,1,,,78,47
542075,note_off,0,0,5,,,,,,,,,5,,,55,0
542075,note_off,155,0,5,,,,,,,,,5,,,67,0
542160,note_on,0,0,1,,,,,,,,,1,,,74,47
542160,note_on,0,0,5,,,,,,,,,5,,,56,47
542160,note_on,85,0,5,,,,,,,,,5,,,68,47
542160,note_off,120,0,1,,,,,,,,,1,,,78,0
542280,note_off,120,0,1,,,,,,,,,1,,,74,0
542280,note_on,0,0,1,,,,,,,,,1,,,76,47
542315,note_off,155,0,5,,,,,,,,,5,,,56,0
542315,note_off,0,0,5,,,,,,,,,5,,,68,0
542400,note_off,120,0,1,,,,,,,,,1,,,76,0
542400,note_on,0,0,1,,,,,,,,,1,,,73,47
542400,note_on,85,0,5,,,,,,,,,5,,,69,47
542400,note_on,0,0,5,,,,,,,,,5,,,57,47
542520,note_off,120,0,1,,,,,,,,,1,,,73,0
542520,note_on,0,0,1,,,,,,,,,1,,,74,47
542640,note_off,120,0,1,,,,,,,,,1,,,74,0
542640,note_on,0,0,1,,,,,,,,,1,,,76,47
542710,note_off,310,0,5,,,,,,,,,5,,,57,0
542710,note_off,0,0,5,,,,,,,,,5,,,69,0
542760,note_off,120,0,1,,,,,,,,,1,,,76,0
542760,note_on,0,0,1,,,,,,,,,1,,,78,48
542880,note_on,0,0,1,,,,,,,,,1,,,79,48
542880,note_off,120,0,1,,,,,,,,,1,,,78,0
543000,note_on,0,0,1,,,,,,,,,1,,,78,48
543000,note_off,120,0,1,,,,,,,,,1,,,79,0
543120,note_on,0,0,1,,,,,,,,,1,,,79,48
543120,note_off,120,0,1,,,,,,,,,1,,,78,0
543240,note_on,0,0,1,,,,,,,,,1,,,76,48
543240,note_off,120,0,1,,,,,,,,,1,,,79,0
543320,set_tempo,1880,1,0,,,,,,517241,,,,,,,
543335,note_off,95,0,1,,,,,,,,,1,,,76,0
543360,set_tempo,40,1,0,,,,,,508474,,,,,,,
543360,note_on,0,0,4,,,,,,,,,4,,,66,48
543360,note_on,4800,0,4,,,,,,,,,4,,,69,48
543360,note_on,25,0,1,,,,,,,,,1,,,78,48
543360,note_on,650,0,5,,,,,,,,,5,,,62,48
543480,note_off,120,0,1,,,,,,,,,1,,,78,0
543480,note_on,0,0,1,,,,,,,,,1,,,74,49
543600,note_off,120,0,1,,,,,,,,,1,,,74,0
543600,note_on,0,0,1,,,,,,,,,1,,,79,50
543670,note_off,310,0,4,,,,,,,,,4,,,66,0
543670,note_off,310,0,5,,,,,,,,,5,,,62,0
543670,note_off,0,0,4,,,,,,,,,4,,,69,0
543720,note_on,0,0,1,,,,,,,,,1,,,76,51
543720,note_off,120,0,1,,,,,,,,,1,,,79,0
543840,note_off,120,0,1,,,,,,,,,1,,,76,0
543840,note_on,0,0,1,,,,,,,,,1,,,81,52
543960,note_on,0,0,1,,,,,,,,,1,,,80,53
543960,note_off,120,0,1,,,,,,,,,1,,,81,0
544080,note_off,120,0,1,,,,,,,,,1,,,80,0
544080,note_on,0,0,1,,,,,,,,,1,,,81,54
544200,note_off,120,0,1,,,,,,,,,1,,,81,0
544200,note_on,0,0,1,,,,,,,,,1,,,78,55
544280,set_tempo,920,1,0,,,,,,517241,,,,,,,
544300,note_off,100,0,1,,,,,,,,,1,,,78,0
544320,note_on,20,0,1,,,,,,,,,1,,,79,56
544320,note_on,650,0,4,,,,,,,,,4,,,64,56
544320,set_tempo,40,1,0,,,,,,508474,,,,,,,
544320,note_on,0,0,4,,,,,,,,,4,,,59,56
544320,note_on,650,0,5,,,,,,,,,5,,,55,56
544440,note_on,0,0,1,,,,,,,,,1,,,76,59
544440,note_off,120,0,1,,,,,,,,,1,,,79,0
544560,note_off,120,0,1,,,,,,,,,1,,,76,0
544560,note_on,0,0,1,,,,,,,,,1,,,81,60
544630,note_off,310,0,4,,,,,,,,,4,,,59,0
544630,note_off,0,0,4,,,,,,,,,4,,,64,0
544630,note_off,310,0,5,,,,,,,,,5,,,55,0
544680,note_off,120,0,1,,,,,,,,,1,,,81,0
544680,note_on,0,0,1,,,,,,,,,1,,,78,62
544800,note_on,0,0,1,,,,,,,,,1,,,83,64
544800,note_off,120,0,1,,,,,,,,,1,,,78,0
544920,note_on,0,0,1,,,,,,,,,1,,,82,66
544920,note_off,120,0,1,,,,,,,,,1,,,83,0
545040,note_off,120,0,1,,,,,,,,,1,,,82,0
545040,note_on,0,0,1,,,,,,,,,1,,,83,68
545160,note_off,120,0,1,,,,,,,,,1,,,83,0
545160,note_on,0,0,1,,,,,,,,,1,,,79,69
545240,set_tempo,920,1,0,,,,,,517241,,,,,,,
545255,note_off,95,0,1,,,,,,,,,1,,,79,0
545280,note_on,650,0,4,,,,,,,,,4,,,62,68
545280,note_on,25,0,1,,,,,,,,,1,,,78,71
545280,note_on,650,0,5,,,,,,,,,5,,,57,68
545750,set_tempo,510,1,0,,,,,,540540,,,,,,,
545760,note_off,480,0,1,,,,,,,,,1,,,78,0
545760,note_on,0,0,1,,,,,,,,,1,,,76,50
545760,note_off,480,0,4,,,,,,,,,4,,,62,0
545760,note_on,0,0,4,,,,,,,,,4,,,61,50
546125,note_off,845,0,5,,,,,,,,,5,,,57,0
546125,note_off,365,0,4,,,,,,,,,4,,,61,0
546145,note_off,385,0,1,,,,,,,,,1,,,76,0
546240,set_tempo,490,1,0,,,,,,508474,,,,,,,
546240,note_on,95,0,1,,,,,,,,,1,,,74,58
546360,note_on,0,0,1,,,,,,,,,1,,,73,58
546360,note_off,120,0,1,,,,,,,,,1,,,74,0
546480,note_on,0,0,1,,,,,,,,,1,,,76,58
546480,note_off,120,0,1,,,,,,,,,1,,,73,0
546600,note_on,0,0,1,,,,,,,,,1,,,74,59
546600,note_off,120,0,1,,,,,,,,,1,,,76,0
546720,note_off,120,0,1,,,,,,,,,1,,,74,0
546720,note_on,0,0,1,,,,,,,,,1,,,78,59
546840,note_on,0,0,1,,,,,,,,,1,,,76,59
546840,note_off,120,0,1,,,,,,,,,1,,,78,0
546960,note_on,0,0,1,,,,,,,,,1,,,79,59
546960,note_off,120,0,1,,,,,,,,,1,,,76,0
547080,note_on,0,0,1,,,,,,,,,1,,,78,60
547080,note_off,120,0,1,,,,,,,,,1,,,79,0
547160,set_tempo,920,1,0,,,,,,517241,,,,,,,
547180,note_off,100,0,1,,,,,,,,,1,,,78,0
547200,set_tempo,40,1,0,,,,,,508474,,,,,,,
547200,note_on,1075,0,5,,,,,,,,,5,,,54,60
547200,note_on,0,0,5,,,,,,,,,5,,,66,60
547200,note_on,20,0,1,,,,,,,,,1,,,81,60
547320,note_off,120,0,1,,,,,,,,,1,,,81,0
547320,note_on,0,0,1,,,,,,,,,1,,,83,60
547355,note_off,155,0,5,,,,,,,,,5,,,66,0
547355,note_off,0,0,5,,,,,,,,,5,,,54,0
547440,note_on,0,0,1,,,,,,,,,1,,,79,61
547440,note_off,120,0,1,,,,,,,,,1,,,83,0
547440,note_on,85,0,5,,,,,,,,,5,,,61,61
547440,note_on,0,0,5,,,,,,,,,5,,,49,61
547560,note_off,120,0,1,,,,,,,,,1,,,79,0
547560,note_on,0,0,1,,,,,,,,,1,,,81,61
547595,note_off,0,0,5,,,,,,,,,5,,,61,0
547595,note_off,155,0,5,,,,,,,,,5,,,49,0
547680,note_off,120,0,1,,,,,,,,,1,,,81,0
547680,note_on,0,0,1,,,,,,,,,1,,,78,61
547680,note_on,0,0,5,,,,,,,,,5,,,62,61
547680,note_on,85,0,5,,,,,,,,,5,,,50,61
547800,note_off,120,0,1,,,,,,,,,1,,,78,0
547800,note_on,0,0,1,,,,,,,,,1,,,79,61
547835,note_off,155,0,5,,,,,,,,,5,,,62,0
547835,note_off,0,0,5,,,,,,,,,5,,,50,0
547920,note_on,85,0,5,,,,,,,,,5,,,58,62
547920,note_on,0,0,5,,,,,,,,,5,,,46,62
547920,note_on,0,0,1,,,,,,,,,1,,,76,62
547920,note_off,120,0,1,,,,,,,,,1,,,79,0
548040,note_on,0,0,1,,,,,,,,,1,,,78,62
548040,note_off,120,0,1,,,,,,,,,1,,,76,0
548075,note_off,0,0,5,,,,,,,,,5,,,58,0
548075,note_off,155,0,5,,,,,,,,,5,,,46,0
548160,note_on,0,0,1,,,,,,,,,1,,,74,62
548160,note_on,85,0,5,,,,,,,,,5,,,47,62
548160,note_on,0,0,5,,,,,,,,,5,,,59,62
548160,note_off,120,0,1,,,,,,,,,1,,,78,0
548280,note_off,120,0,1,,,,,,,,,1,,,74,0
548280,note_on,0,0,1,,,,,,,,,1,,,76,63
548315,note_off,0,0,5,,,,,,,,,5,,,47,0
548315,note_off,155,0,5,,,,,,,,,5,,,59,0
548400,note_on,85,0,5,,,,,,,,,5,,,61,63
548400,note_on,0,0,5,,,,,,,,,5,,,49,63
548400,note_off,120,0,1,,,,,,,,,1,,,76,0
548400,note_on,0,0,1,,,,,,,,,1,,,73,63
548520,note_on,0,0,1,,,,,,,,,1,,,74,63
548520,note_off,120,0,1,,,,,,,,,1,,,73,0
548555,note_off,155,0,5,,,,,,,,,5,,,49,0
548555,note_off,0,0,5,,,,,,,,,5,,,61,0
548640,note_on,85,0,5,,,,,,,,,5,,,50,63
548640,note_on,0,0,1,,,,,,,,,1,,,71,63
548640,note_off,120,0,1,,,,,,,,,1,,,74,0
548640,note_on,0,0,5,,,,,,,,,5,,,62,63
548760,note_off,120,0,1,,,,,,,,,1,,,71,0
548760,note_on,0,0,1,,,,,,,,,1,,,73,64
548795,note_off,155,0,5,,,,,,,,,5,,,62,0
548795,note_off,0,0,5,,,,,,,,,5,,,50,0
548880,note_on,0,0,1,,,,,,,,,1,,,69,64
548880,note_off,120,0,1,,,,,,,,,1,,,73,0
548880,note_on,85,0,5,,,,,,,,,5,,,51,64
548880,note_on,0,0,5,,,,,,,,,5,,,63,64
549000,note_off,120,0,1,,,,,,,,,1,,,69,0
549000,note_on,0,0,1,,,,,,,,,1,,,71,64
549035,note_off,155,0,5,,,,,,,,,5,,,63,0
549035,note_off,0,0,5,,,,,,,,,5,,,51,0
549080,set_tempo,1880,1,0,,,,,,517241,,,,,,,
549120,set_tempo,40,1,0,,,,,,508474,,,,,,,
549120,note_on,85,0,5,,,,,,,,,5,,,64,65
549120,note_on,0,0,1,,,,,,,,,1,,,68,65
549120,note_off,120,0,1,,,,,,,,,1,,,71,0
549120,note_on,0,0,5,,,,,,,,,5,,,52,65
549225,note_off,105,0,1,,,,,,,,,1,,,68,0
549240,note_on,15,0,1,,,,,,,,,1,,,80,65
549360,note_on,0,0,1,,,,,,,,,1,,,83,65
549360,note_off,120,0,1,,,,,,,,,1,,,80,0
549430,note_off,0,0,5,,,,,,,,,5,,,64,0
549430,note_off,310,0,5,,,,,,,,,5,,,52,0
549480,note_on,0,0,1,,,,,,,,,1,,,81,65
549480,note_off,120,0,1,,,,,,,,,1,,,83,0
549600,note_on,0,0,1,,,,,,,,,1,,,80,66
549600,note_off,120,0,1,,,,,,,,,1,,,81,0
549720,note_on,0,0,1,,,,,,,,,1,,,78,66
549720,note_off,120,0,1,,,,,,,,,1,,,80,0
549840,note_off,120,0,1,,,,,,,,,1,,,78,0
549840,note_on,0,0,1,,,,,,,,,1,,,76,66
549960,note_on,0,0,1,,,,,,,,,1,,,75,67
549960,note_off,120,0,1,,,,,,,,,1,,,76,0
550040,set_tempo,920,1,0,,,,,,517241,,,,,,,
550080,note_on,0,0,4,,,,,,,,,4,,,59,67
550080,set_tempo,40,1,0,,,,,,508474,,,,,,,
550080,note_on,650,0,5,,,,,,,,,5,,,56,67
550080,note_on,3955,0,4,,,,,,,,,4,,,64,67
550080,note_off,120,0,1,,,,,,,,,1,,,75,0
550080,note_on,0,0,1,,,,,,,,,1,,,74,67
550185,note_off,105,0,1,,,,,,,,,1,,,74,0
550200,note_on,15,0,1,,,,,,,,,1,,,83,67
550320,note_off,120,0,1,,,,,,,,,1,,,83,0
550320,note_on,0,0,1,,,,,,,,,1,,,86,67
550390,note_off,0,0,4,,,,,,,,,4,,,64,0
550390,note_off,310,0,4,,,,,,,,,4,,,59,0
550390,note_off,310,0,5,,,,,,,,,5,,,56,0
550440,note_off,120,0,1,,,,,,,,,1,,,86,0
550440,note_on,0,0,1,,,,,,,,,1,,,85,68
550560,note_on,0,0,1,,,,,,,,,1,,,83,68
550560,note_off,120,0,1,,,,,,,,,1,,,85,0
550680,note_off,120,0,1,,,,,,,,,1,,,83,0
550680,note_on,0,0,1,,,,,,,,,1,,,81,68
550800,note_on,0,0,1,,,,,,,,,1,,,80,68
550800,note_off,120,0,1,,,,,,,,,1,,,81,0
550920,note_on,0,0,1,,,,,,,,,1,,,78,69
550920,note_off,120,0,1,,,,,,,,,1,,,80,0
551000,set_tempo,920,1,0,,,,,,517241,,,,,,,
551025,note_off,105,0,1,,,,,,,,,1,,,78,0
551040,note_on,15,0,1,,,,,,,,,1,,,76,68
551040,note_on,650,0,5,,,,,,,,,5,,,57,68
551040,note_on,650,0,4,,,,,,,,,4,,,61,68
551040,set_tempo,40,1,0,,,,,,508474,,,,,,,
551160,note_off,120,0,1,,,,,,,,,1,,,76,0
551160,note_on,0,0,1,,,,,,,,,1,,,78,69
551280,note_off,120,0,1,,,,,,,,,1,,,78,0
551280,note_on,0,0,1,,,,,,,,,1,,,80,70
551350,note_off,310,0,5,,,,,,,,,5,,,57,0
551350,note_off,310,0,4,,,,,,,,,4,,,61,0
551400,note_off,120,0,1,,,,,,,,,1,,,80,0
551400,note_on,0,0,1,,,,,,,,,1,,,81,72
551520,note_on,170,0,5,,,,,,,,,5,,,50,73
551520,note_off,120,0,1,,,,,,,,,1,,,81,0
551520,note_on,170,0,4,,,,,,,,,4,,,59,73
551520,note_on,0,0,1,,,,,,,,,1,,,80,73
551640,note_on,0,0,1,,,,,,,,,1,,,78,74
551640,note_off,120,0,1,,,,,,,,,1,,,80,0
551760,note_on,0,0,1,,,,,,,,,1,,,76,75
551760,note_off,120,0,1,,,,,,,,,1,,,78,0
551830,note_off,310,0,4,,,,,,,,,4,,,59,0
551830,note_off,310,0,5,,,,,,,,,5,,,50,0
551880,note_off,120,0,1,,,,,,,,,1,,,76,0
551880,note_on,0,0,1,,,,,,,,,1,,,74,76
551980,note_off,100,0,1,,,,,,,,,1,,,74,0
552000,note_on,170,0,4,,,,,,,,,4,,,57,78
552000,note_on,170,0,5,,,,,,,,,5,,,52,78
552000,note_on,20,0,1,,,,,,,,,1,,,73,78
552120,note_off,120,0,1,,,,,,,,,1,,,73,0
552120,note_on,0,0,1,,,,,,,,,1,,,74,79
552240,note_off,120,0,1,,,,,,,,,1,,,74,0
552240,note_on,0,0,1,,,,,,,,,1,,,76,81
552310,note_off,310,0,5,,,,,,,,,5,,,52,0
552310,note_off,310,0,4,,,,,,,,,4,,,57,0
552360,note_on,0,0,1,,,,,,,,,1,,,78,82
552360,note_off,120,0,1,,,,,,,,,1,,,76,0
552480,note_off,120,0,1,,,,,,,,,1,,,78,0
552480,note_on,0,0,1,,,,,,,,,1,,,76,83
552480,note_on,170,0,5,,,,,,,,,5,,,52,83
552480,note_on,170,0,4,,,,,,,,,4,,,56,83
552600,note_off,120,0,1,,,,,,,,,1,,,76,0
552600,note_on,0,0,1,,,,,,,,,1,,,74,85
552720,note_off,120,0,1,,,,,,,,,1,,,74,0
552720,note_on,0,0,1,,,,,,,,,1,,,73,86
552790,note_off,310,0,5,,,,,,,,,5,,,52,0
552790,note_off,310,0,4,,,,,,,,,4,,,56,0
552840,note_off,120,0,1,,,,,,,,,1,,,73,0
552840,note_on,0,0,1,,,,,,,,,1,,,71,88
552920,set_tempo,1880,1,0,,,,,,517241,,,,,,,
552960,note_off,120,0,1,,,,,,,,,1,,,71,0
552960,note_on,170,0,5,,,,,,,,,5,,,45,89
552960,set_tempo,40,1,0,,,,,,508474,,,,,,,
552960,note_on,0,0,1,,,,,,,,,1,,,69,89
553080,note_off,120,0,5,,,,,,,,,5,,,45,0
553080,note_on,0,0,5,,,,,,,,,5,,,57,84
553200,note_off,120,0,5,,,,,,,,,5,,,57,0
553200,note_on,0,0,5,,,,,,,,,5,,,52,80
553320,note_off,120,0,5,,,,,,,,,5,,,52,0
553320,note_on,0,0,5,,,,,,,,,5,,,49,76
553440,set_tempo,480,1,0,,,,,,540540,,,,,,,
553440,note_off,480,0,1,,,,,,,,,1,,,69,0
553440,note_off,120,0,5,,,,,,,,,5,,,49,0
553440,note_on,0,0,5,,,,,,,,,5,,,45,72
553680,note_off,240,0,5,,,,,,,,,5,,,45,0
553920,control_change,480,0,1,,,,,,,64,0,1,,,,
553920,control_change,15360,0,3,,,,,,,64,0,3,,,,
553920,note_on,0,0,1,,,,,,,,,1,,,81,49
553920,control_change,240,0,5,,,,,,,64,0,5,,,,
553920,set_tempo,480,1,0,,,,,,508474,,,,,,,
553920,control_change,15360,0,2,,,,,,,64,0,2,,,,
553920,control_change,1130,0,4,,,,,,,64,0,4,,,,
554040,note_on,0,0,1,,,,,,,,,1,,,83,50
554040,note_off,120,0,1,,,,,,,,,1,,,81,0
554160,note_on,0,0,1,,,,,,,,,1,,,84,51
554160,note_off,120,0,1,,,,,,,,,1,,,83,0
554280,note_on,0,0,1,,,,,,,,,1,,,83,52
554280,note_off,120,0,1,,,,,,,,,1,,,84,0
554400,note_on,0,0,1,,,,,,,,,1,,,81,53
554400,note_off,120,0,1,,,,,,,,,1,,,83,0
554520,note_off,120,0,1,,,,,,,,,1,,,81,0
554520,note_on,0,0,1,,,,,,,,,1,,,79,54
554640,note_off,120,0,1,,,,,,,,,1,,,79,0
554640,note_on,0,0,1,,,,,,,,,1,,,78,55
554760,note_off,120,0,1,,,,,,,,,1,,,78,0
554760,note_on,0,0,1,,,,,,,,,1,,,76,56
554840,set_tempo,920,1,0,,,,,,517241,,,,,,,
554865,note_off,105,0,1,,,,,,,,,1,,,76,0
554880,note_on,15,0,1,,,,,,,,,1,,,75,58
554880,set_tempo,40,1,0,,,,,,508474,,,,,,,
554880,note_on,960,0,5,,,,,,,,,5,,,69,57
554880,note_on,960,0,4,,,,,,,,,4,,,72,57
555000,note_off,120,0,1,,,,,,,,,1,,,75,0
555000,note_on,0,0,1,,,,,,,,,1,,,76,56
555120,note_off,120,0,1,,,,,,,,,1,,,76,0
555120,note_on,0,0,1,,,,,,,,,1,,,78,56
555200,note_off,80,0,1,,,,,,,,,1,,,78,0
555240,note_on,40,0,1,,,,,,,,,1,,,75,55
555320,note_off,80,0,1,,,,,,,,,1,,,75,0
555360,note_on,0,0,5,,,,,,,,,5,,,68,54
555360,note_off,480,0,5,,,,,,,,,5,,,69,0
555360,note_off,480,0,4,,,,,,,,,4,,,72,0
555360,note_on,40,0,1,,,,,,,,,1,,,76,54
555360,note_on,0,0,4,,,,,,,,,4,,,71,54
555480,note_on,0,0,1,,,,,,,,,1,,,80,53
555480,note_off,120,0,1,,,,,,,,,1,,,76,0
555600,note_off,120,0,1,,,,,,,,,1,,,80,0
555600,note_on,0,0,1,,,,,,,,,1,,,83,53
555680,note_off,80,0,1,,,,,,,,,1,,,83,0
555720,note_on,40,0,1,,,,,,,,,1,,,74,52
555800,note_off,80,0,1,,,,,,,,,1,,,74,0
555840,note_on,0,0,5,,,,,,,,,5,,,67,51
555840,note_on,40,0,1,,,,,,,,,1,,,73,51
555840,note_off,480,0,4,,,,,,,,,4,,,71,0
555840,note_off,480,0,5,,,,,,,,,5,,,68,0
555840,note_on,0,0,4,,,,,,,,,4,,,70,51
555960,note_off,120,0,1,,,,,,,,,1,,,73,0
555960,note_on,0,0,1,,,,,,,,,1,,,74,50
556080,note_off,120,0,1,,,,,,,,,1,,,74,0
556080,note_on,0,0,1,,,,,,,,,1,,,76,50
556160,note_off,80,0,1,,,,,,,,,1,,,76,0
556200,note_on,40,0,1,,,,,,,,,1,,,73,49
556280,note_off,80,0,1,,,,,,,,,1,,,73,0
556320,note_on,40,0,1,,,,,,,,,1,,,74,48
556320,note_on,0,0,5,,,,,,,,,5,,,66,48
556320,note_off,480,0,4,,,,,,,,,4,,,70,0
556320,note_on,0,0,4,,,,,,,,,4,,,69,48
556320,note_off,480,0,5,,,,,,,,,5,,,67,0
556440,note_off,120,0,1,,,,,,,,,1,,,74,0
556440,note_on,0,0,1,,,,,,,,,1,,,78,47
556560,note_on,0,0,1,,,,,,,,,1,,,81,47
556560,note_off,120,0,1,,,,,,,,,1,,,78,0
556640,note_off,80,0,1,,,,,,,,,1,,,81,0
556680,note_on,40,0,1,,,,,,,,,1,,,74,46
556760,note_off,80,0,1,,,,,,,,,1,,,74,0
556760,set_tempo,1880,1,0,,,,,,517241,,,,,,,
556800,note_off,480,0,5,,,,,,,,,5,,,66,0
556800,note_on,0,0,4,,,,,,,,,4,,,71,75
556800,set_tempo,40,1,0,,,,,,508474,,,,,,,
556800,note_on,0,0,5,,,,,,,,,5,,,59,75
556800,note_off,480,0,4,,,,,,,,,4,,,69,0
556800,note_on,40,0,1,,,,,,,,,1,,,86,75
556920,note_off,120,0,1,,,,,,,,,1,,,86,0
556920,note_on,0,0,1,,,,,,,,,1,,,88,75
556955,note_off,155,0,4,,,,,,,,,4,,,71,0
556955,note_off,155,0,5,,,,,,,,,5,,,59,0
557040,note_on,85,0,4,,,,,,,,,4,,,69,74
557040,note_off,120,0,1,,,,,,,,,1,,,88,0
557040,note_on,85,0,5,,,,,,,,,5,,,57,74
557040,note_on,0,0,1,,,,,,,,,1,,,85,74
557160,note_on,0,0,1,,,,,,,,,1,,,86,73
557160,note_off,120,0,1,,,,,,,,,1,,,85,0
557195,note_off,155,0,4,,,,,,,,,4,,,69,0
557195,note_off,155,0,5,,,,,,,,,5,,,57,0
557280,note_off,120,0,1,,,,,,,,,1,,,86,0
557280,note_on,85,0,4,,,,,,,,,4,,,67,72
557280,note_on,0,0,1,,,,,,,,,1,,,83,72
557280,note_on,85,0,5,,,,,,,,,5,,,55,72
557400,note_on,0,0,1,,,,,,,,,1,,,85,71
557400,note_off,120,0,1,,,,,,,,,1,,,83,0
557435,note_off,155,0,4,,,,,,,,,4,,,67,0
557435,note_off,155,0,5,,,,,,,,,5,,,55,0
557520,note_on,85,0,4,,,,,,,,,4,,,66,71
557520,note_off,120,0,1,,,,,,,,,1,,,85,0
557520,note_on,85,0,5,,,,,,,,,5,,,54,71
557520,note_on,0,0,1,,,,,,,,,1,,,82,71
557640,note_off,120,0,1,,,,,,,,,1,,,82,0
557640,note_on,0,0,1,,,,,,,,,1,,,85,70
557675,note_off,155,0,5,,,,,,,,,5,,,54,0
557675,note_off,155,0,4,,,,,,,,,4,,,66,0
557740,note_off,100,0,1,,,,,,,,,1,,,85,0
557760,note_on,85,0,5,,,,,,,,,5,,,55,69
557760,note_on,20,0,1,,,,,,,,,1,,,83,69
557760,note_on,85,0,4,,,,,,,,,4,,,67,69
557880,note_off,120,0,1,,,,,,,,,1,,,83,0
557880,note_on,0,0,1,,,,,,,,,1,,,85,68
557915,note_off,155,0,4,,,,,,,,,4,,,67,0
557915,note_off,155,0,5,,,,,,,,,5,,,55,0
558000,note_on,85,0,5,,,,,,,,,5,,,54,68
558000,note_on,85,0,4,,,,,,,,,4,,,66,68
558000,note_on,0,0,1,,,,,,,,,1,,,81,68
558000,note_off,120,0,1,,,,,,,,,1,,,85,0
558120,note_off,120,0,1,,,,,,,,,1,,,81,0
558120,note_on,0,0,1,,,,,,,,,1,,,83,67
558155,note_off,155,0,5,,,,,,,,,5,,,54,0
558155,note_off,155,0,4,,,,,,,,,4,,,66,0
558240,note_on,85,0,5,,,,,,,,,5,,,52,66
558240,note_off,120,0,1,,,,,,,,,1,,,83,0
558240,note_on,0,0,1,,,,,,,,,1,,,79,66
558240,note_on,85,0,4,,,,,,,,,4,,,64,66
558360,note_on,0,0,1,,,,,,,,,1,,,81,65
558360,note_off,120,0,1,,,,,,,,,1,,,79,0
558395,note_off,155,0,4,,,,,,,,,4,,,64,0
558395,note_off,155,0,5,,,,,,,,,5,,,52,0
558480,note_on,0,0,1,,,,,,,,,1,,,78,65
558480,note_on,85,0,4,,,,,,,,,4,,,62,65
558480,note_off,120,0,1,,,,,,,,,1,,,81,0
558480,note_on,85,0,5,,,,,,,,,5,,,50,65
558600,note_off,120,0,1,,,,,,,,,1,,,78,0
558600,note_on,0,0,1,,,,,,,,,1,,,81,64
558635,note_off,155,0,4,,,,,,,,,4,,,62,0
558635,note_off,155,0,5,,,,,,,,,5,,,50,0
558680,set_tempo,1880,1,0,,,,,,517241,,,,,,,
558700,note_off,100,0,1,,,,,,,,,1,,,81,0
558720,note_on,20,0,1,,,,,,,,,1,,,81,42
558720,set_tempo,40,1,0,,,,,,508474,,,,,,,
558720,note_on,85,0,5,,,,,,,,,5,,,64,42
558720,note_on,85,0,4,,,,,,,,,4,,,71,42
558840,note_on,0,0,1,,,,,,,,,1,,,79,43
558840,note_off,120,0,1,,,,,,,,,1,,,81,0
558960,note_on,0,0,1,,,,,,,,,1,,,78,45
558960,note_off,120,0,1,,,,,,,,,1,,,79,0
559080,note_off,120,0,1,,,,,,,,,1,,,78,0
559080,note_on,0,0,1,,,,,,,,,1,,,79,46
559200,note_on,0,0,5,,,,,,,,,5,,,61,47
559200,note_off,480,0,4,,,,,,,,,4,,,71,0
559200,note_off,120,0,1,,,,,,,,,1,,,79,0
559200,note_on,0,0,1,,,,,,,,,1,,,76,47
559200,note_on,0,0,4,,,,,,,,,4,,,69,47
559200,note_off,480,0,5,,,,,,,,,5,,,64,0
559320,note_off,120,0,1,,,,,,,,,1,,,76,0
559320,note_on,0,0,1,,,,,,,,,1,,,78,48
559440,note_off,120,0,1,,,,,,,,,1,,,78,0
559440,note_on,0,0,1,,,,,,,,,1,,,79,50
559560,note_off,120,0,1,,,,,,,,,1,,,79,0
559560,note_on,0,0,1,,,,,,,,,1,,,81,51
559660,note_off,100,0,1,,,,,,,,,1,,,81,0
559680,note_on,20,0,1,,,,,,,,,1,,,79,50
559680,note_on,0,0,5,,,,,,,,,5,,,62,50
559680,note_off,480,0,5,,,,,,,,,5,,,61,0
559800,note_on,0,0,1,,,,,,,,,1,,,78,53
559800,note_off,120,0,1,,,,,,,,,1,,,79,0
559920,note_on,0,0,1,,,,,,,,,1,,,76,55
559920,note_off,120,0,1,,,,,,,,,1,,,78,0
560040,note_on,0,0,1,,,,,,,,,1,,,78,57
560040,note_off,120,0,1,,,,,,,,,1,,,76,0
560160,note_off,480,0,5,,,,,,,,,5,,,62,0
560160,note_on,0,0,5,,,,,,,,,5,,,59,60
560160,note_off,960,0,4,,,,,,,,,4,,,69,0
560160,note_off,120,0,1,,,,,,,,,1,,,78,0
560160,note_on,0,0,4,,,,,,,,,4,,,68,60
560160,note_on,0,0,1,,,,,,,,,1,,,74,60
560280,note_on,0,0,1,,,,,,,,,1,,,76,62
560280,note_off,120,0,1,,,,,,,,,1,,,74,0
560400,note_on,0,0,1,,,,,,,,,1,,,78,64
560400,note_off,120,0,1,,,,,,,,,1,,,76,0
560520,note_off,120,0,1,,,,,,,,,1,,,78,0
560520,note_on,0,0,1,,,,,,,,,1,,,79,68
560600,set_tempo,1880,1,0,,,,,,517241,,,,,,,
560620,note_off,100,0,1,,,,,,,,,1,,,79,0
560620,note_off,460,0,4,,,,,,,,,4,,,68,0
560620,note_off,460,0,5,,,,,,,,,5,,,59,0
560640,set_tempo,40,1,0,,,,,,508474,,,,,,,
560640,note_on,20,0,5,,,,,,,,,5,,,57,73
560640,note_on,20,0,4,,,,,,,,,4,,,62,73
560640,note_on,20,0,1,,,,,,,,,1,,,78,73
561480,note_on,840,0,1,,,,,,,,,1,,,81,46
561495,note_off,15,0,1,,,,,,,,,1,,,78,0
561560,set_tempo,920,1,0,,,,,,517241,,,,,,,
561600,note_off,960,0,4,,,,,,,,,4,,,62,0
561600,note_on,0,0,1,,,,,,,,,1,,,76,42
561600,note_on,0,0,4,,,,,,,,,4,,,61,42
561600,note_off,105,0,1,,,,,,,,,1,,,81,0
561975,note_off,1335,0,5,,,,,,,,,5,,,57,0
561985,note_off,385,0,4,,,,,,,,,4,,,61,0
561985,note_off,385,0,1,,,,,,,,,1,,,76,0
562560,set_tempo,1000,1,0,,,,,,508474,,,,,,,
562800,note_on,815,0,1,,,,,,,,,1,,,69,41
562920,note_off,120,0,1,,,,,,,,,1,,,69,0
562920,note_on,0,0,1,,,,,,,,,1,,,68,41
563040,note_on,0,0,1,,,,,,,,,1,,,71,41
563040,note_off,120,0,1,,,,,,,,,1,,,68,0
563160,note_on,0,0,1,,,,,,,,,1,,,69,41
563160,note_off,120,0,1,,,,,,,,,1,,,71,0
563280,note_off,120,0,1,,,,,,,,,1,,,69,0
563280,note_on,0,0,1,,,,,,,,,1,,,73,42
563400,note_off,120,0,1,,,,,,,,,1,,,73,0
563400,note_on,0,0,1,,,,,,,,,1,,,71,42
563520,note_on,0,0,1,,,,,,,,,1,,,74,42
563520,note_off,120,0,1,,,,,,,,,1,,,71,0
563640,note_on,0,0,1,,,,,,,,,1,,,73,42
563640,note_off,120,0,1,,,,,,,,,1,,,74,0
563760,note_on,0,0,1,,,,,,,,,1,,,76,43
563760,note_off,120,0,1,,,,,,,,,1,,,73,0
563880,note_on,0,0,1,,,,,,,,,1,,,74,43
563880,note_off,120,0,1,,,,,,,,,1,,,76,0
564000,note_on,0,0,1,,,,,,,,,1,,,78,43
564000,note_off,120,0,1,,,,,,,,,1,,,74,0
564120,note_off,120,0,1,,,,,,,,,1,,,78,0
564120,note_on,0,0,1,,,,,,,,,1,,,76,43
564240,note_on,0,0,1,,,,,,,,,1,,,79,44
564240,note_off,120,0,1,,,,,,,,,1,,,76,0
564360,note_on,0,0,1,,,,,,,,,1,,,78,44
564360,note_off,120,0,1,,,,,,,,,1,,,79,0
564440,set_tempo,1880,1,0,,,,,,517241,,,,,,,
564465,note_off,105,0,1,,,,,,,,,1,,,78,0
564480,note_on,15,0,1,,,,,,,,,1,,,81,44
564480,set_tempo,40,1,0,,,,,,508474,,,,,,,
564480,note_on,0,0,5,,,,,,,,,5,,,66,44
564480,note_on,2505,0,5,,,,,,,,,5,,,54,44
564600,note_off,120,0,1,,,,,,,,,1,,,81,0
564600,note_on,0,0,1,,,,,,,,,1,,,83,45
564635,note_off,0,0,5,,,,,,,,,5,,,54,0
564635,note_off,155,0,5,,,,,,,,,5,,,66,0
564720,note_off,120,0,1,,,,,,,,,1,,,83,0
564720,note_on,85,0,5,,,,,,,,,5,,,49,45
564720,note_on,0,0,5,,,,,,,,,5,,,61,45
564720,note_on,0,0,1,,,,,,,,,1,,,79,45
564840,note_off,120,0,1,,,,,,,,,1,,,79,0
564840,note_on,0,0,1,,,,,,,,,1,,,81,45
564875,note_off,0,0,5,,,,,,,,,5,,,49,0
564875,note_off,155,0,5,,,,,,,,,5,,,61,0
564960,note_on,85,0,5,,,,,,,,,5,,,62,45
564960,note_off,120,0,1,,,,,,,,,1,,,81,0
564960,note_on,0,0,1,,,,,,,,,1,,,78,45
564960,note_on,0,0,5,,,,,,,,,5,,,50,45
565080,note_off,120,0,1,,,,,,,,,1,,,78,0
565080,note_on,0,0,1,,,,,,,,,1,,,79,46
565115,note_off,0,0,5,,,,,,,,,5,,,62,0
565115,note_off,155,0,5,,,,,,,,,5,,,50,0
565200,note_on,85,0,5,,,,,,,,,5,,,58,46
565200,note_on,0,0,5,,,,,,,,,5,,,46,46
565200,note_on,0,0,1,,,,,,,,,1,,,76,46
565200,note_off,120,0,1,,,,,,,,,1,,,79,0
565320,note_on,0,0,1,,,,,,,,,1,,,78,46
565320,note_off,120,0,1,,,,,,,,,1,,,76,0
565355,note_off,155,0,5,,,,,,,,,5,,,46,0
565355,note_off,0,0,5,,,,,,,,,5,,,58,0
565440,note_on,0,0,5,,,,,,,,,5,,,47,46
565440,note_on,0,0,1,,,,,,,,,1,,,74,46
565440,note_on,85,0,5,,,,,,,,,5,,,59,46
565440,note_off,120,0,1,,,,,,,,,1,,,78,0
565560,note_on,0,0,1,,,,,,,,,1,,,76,47
565560,note_off,120,0,1,,,,,,,,,1,,,74,0
565680,note_off,120,0,1,,,,,,,,,1,,,76,0
565680,note_on,0,0,1,,,,,,,,,1,,,74,47
565750,note_off,310,0,5,,,,,,,,,5,,,47,0
565750,note_off,0,0,5,,,,,,,,,5,,,59,0
565800,note_off,120,0,1,,,,,,,,,1,,,74,0
565800,note_on,0,0,1,,,,,,,,,1,,,73,47
565900,note_off,100,0,1,,,,,,,,,1,,,73,0
565920,note_on,20,0,1,,,,,,,,,1,,,74,48
566040,note_off,120,0,1,,,,,,,,,1,,,74,0
566040,note_on,0,0,1,,,,,,,,,1,,,76,48
566160,note_on,0,0,1,,,,,,,,,1,,,78,48
566160,note_off,120,0,1,,,,,,,,,1,,,76,0
566280,note_off,120,0,1,,,,,,,,,1,,,78,0
566280,note_on,0,0,1,,,,,,,,,1,,,74,48
566360,set_tempo,1880,1,0,,,,,,517241,,,,,,,
566400,note_on,650,0,5,,,,,,,,,5,,,58,49
566400,note_on,4415,0,4,,,,,,,,,4,,,67,49
566400,note_on,0,0,4,,,,,,,,,4,,,64,49
566400,note_on,0,0,4,,,,,,,,,4,,,61,49
566400,note_off,120,0,1,,,,,,,,,1,,,74,0
566400,note_on,0,0,1,,,,,,,,,1,,,79,49
566400,set_tempo,40,1,0,,,,,,508474,,,,,,,
566520,note_off,120,0,1,,,,,,,,,1,,,79,0
566520,note_on,0,0,1,,,,,,,,,1,,,78,49
566640,note_off,120,0,1,,,,,,,,,1,,,78,0
566640,note_on,0,0,1,,,,,,,,,1,,,76,49
566760,note_off,120,0,1,,,,,,,,,1,,,76,0
566760,note_on,0,0,1,,,,,,,,,1,,,74,49
566880,note_on,0,0,1,,,,,,,,,1,,,73,50
566880,note_off,120,0,1,,,,,,,,,1,,,74,0
567000,note_on,0,0,1,,,,,,,,,1,,,74,50
567000,note_off,120,0,1,,,,,,,,,1,,,73,0
567120,note_on,0,0,1,,,,,,,,,1,,,76,50
567120,note_off,120,0,1,,,,,,,,,1,,,74,0
567170,note_off,770,0,5,,,,,,,,,5,,,58,0
567170,note_off,0,0,4,,,,,,,,,4,,,67,0
567170,note_off,770,0,4,,,,,,,,,4,,,61,0
567170,note_off,0,0,4,,,,,,,,,4,,,64,0
567240,note_off,120,0,1,,,,,,,,,1,,,76,0
567240,note_on,0,0,1,,,,,,,,,1,,,78,50
567320,set_tempo,920,1,0,,,,,,517241,,,,,,,
567345,note_off,105,0,1,,,,,,,,,1,,,78,0
567360,set_tempo,40,1,0,,,,,,508474,,,,,,,
567360,note_on,190,0,4,,,,,,,,,4,,,67,55
567360,note_on,15,0,1,,,,,,,,,1,,,79,52
567360,note_on,0,0,4,,,,,,,,,4,,,64,55
567360,note_on,190,0,5,,,,,,,,,5,,,57,55
567360,note_on,0,0,4,,,,,,,,,4,,,61,55
567480,note_off,120,0,1,,,,,,,,,1,,,79,0
567480,note_on,0,0,1,,,,,,,,,1,,,78,53
567600,note_on,0,0,1,,,,,,,,,1,,,76,54
567600,note_off,120,0,1,,,,,,,,,1,,,78,0
567720,note_on,0,0,1,,,,,,,,,1,,,78,55
567720,note_off,120,0,1,,,,,,,,,1,,,76,0
567840,note_on,0,0,1,,,,,,,,,1,,,79,56
567840,note_off,120,0,1,,,,,,,,,1,,,78,0
567960,note_off,120,0,1,,,,,,,,,1,,,79,0
567960,note_on,0,0,1,,,,,,,,,1,,,81,57
568080,note_on,0,0,1,,,,,,,,,1,,,83,58
568080,note_off,120,0,1,,,,,,,,,1,,,81,0
568130,note_off,0,0,4,,,,,,,,,4,,,67,0
568130,note_off,0,0,4,,,,,,,,,4,,,64,0
568130,note_off,770,0,4,,,,,,,,,4,,,61,0
568130,note_off,770,0,5,,,,,,,,,5,,,57,0
568200,note_on,0,0,1,,,,,,,,,1,,,85,59
568200,note_off,120,0,1,,,,,,,,,1,,,83,0
568280,set_tempo,920,1,0,,,,,,517241,,,,,,,
568305,note_off,105,0,1,,,,,,,,,1,,,85,0
568320,note_on,190,0,4,,,,,,,,,4,,,66,60
568320,set_tempo,40,1,0,,,,,,508474,,,,,,,
568320,note_on,190,0,5,,,,,,,,,5,,,62,60
568320,note_on,15,0,1,,,,,,,,,1,,,86,60
568440,note_on,0,0,1,,,,,,,,,1,,,85,62
568440,note_off,120,0,1,,,,,,,,,1,,,86,0
568560,note_off,120,0,1,,,,,,,,,1,,,85,0
568560,note_on,0,0,1,,,,,,,,,1,,,83,63
568630,note_off,310,0,5,,,,,,,,,5,,,62,0
568630,note_off,310,0,4,,,,,,,,,4,,,66,0
568680,note_on,0,0,1,,,,,,,,,1,,,81,64
568680,note_off,120,0,1,,,,,,,,,1,,,83,0
568800,note_on,0,0,1,,,,,,,,,1,,,79,66
568800,note_off,120,0,1,,,,,,,,,1,,,81,0
568800,note_on,170,0,5,,,,,,,,,5,,,55,66
568800,note_on,170,0,4,,,,,,,,,4,,,64,66
568920,note_off,120,0,1,,,,,,,,,1,,,79,0
568920,note_on,0,0,1,,,,,,,,,1,,,81,67
569040,note_off,120,0,1,,,,,,,,,1,,,81,0
569040,note_on,0,0,1,,,,,,,,,1,,,83,68
569110,note_off,310,0,5,,,,,,,,,5,,,55,0
569110,note_off,310,0,4,,,,,,,,,4,,,64,0
569160,note_off,120,0,1,,,,,,,,,1,,,83,0
569160,note_on,0,0,1,,,,,,,,,1,,,79,69
569280,note_on,0,0,1,,,,,,,,,1,,,78,71
569280,note_on,170,0,5,,,,,,,,,5,,,57,71
569280,note_off,120,0,1,,,,,,,,,1,,,79,0
569280,note_on,170,0,4,,,,,,,,,4,,,62,71
569400,note_on,0,0,1,,,,,,,,,1,,,79,73
569400,note_off,120,0,1,,,,,,,,,1,,,78,0
569520,note_on,0,0,1,,,,,,,,,1,,,81,76
569520,note_off,120,0,1,,,,,,,,,1,,,79,0
569590,note_off,310,0,5,,,,,,,,,5,,,57,0
569590,note_off,310,0,4,,,,,,,,,4,,,62,0
569640,note_off,120,0,1,,,,,,,,,1,,,81,0
569640,note_on,0,0,1,,,,,,,,,1,,,78,78
569760,note_on,0,0,1,,,,,,,,,1,,,76,80
569760,note_on,170,0,5,,,,,,,,,5,,,57,80
569760,note_off,120,0,1,,,,,,,,,1,,,78,0
569760,note_on,170,0,4,,,,,,,,,4,,,61,80
569880,note_on,0,0,1,,,,,,,,,1,,,78,82
569880,note_off,120,0,1,,,,,,,,,1,,,76,0
570000,note_off,120,0,1,,,,,,,,,1,,,78,0
570000,note_on,0,0,1,,,,,,,,,1,,,79,84
570070,note_off,310,0,5,,,,,,,,,5,,,57,0
570070,note_off,310,0,4,,,,,,,,,4,,,61,0
570120,note_off,120,0,1,,,,,,,,,1,,,79,0
570120,note_on,0,0,1,,,,,,,,,1,,,76,86
570200,set_tempo,1880,1,0,,,,,,517241,,,,,,,
570240,note_off,120,0,1,,,,,,,,,1,,,76,0
570240,note_on,170,0,5,,,,,,,,,5,,,50,89
570240,note_on,0,0,1,,,,,,,,,1,,,74,89
570360,note_off,120,0,5,,,,,,,,,5,,,50,0
570360,note_on,0,0,5,,,,,,,,,5,,,62,86
570480,note_on,0,0,5,,,,,,,,,5,,,57,82
570480,note_off,120,0,5,,,,,,,,,5,,,62,0
570600,note_on,0,0,5,,,,,,,,,5,,,54,78
570600,note_off,120,0,5,,,,,,,,,5,,,57,0
570720,note_on,0,0,5,,,,,,,,,5,,,50,75
570720,note_off,120,0,5,,,,,,,,,5,,,54,0
570720,note_off,480,0,1,,,,,,,,,1,,,74,0
571080,set_tempo,880,1,0,,,,,,540540,,,,,,,
571105,note_off,385,0,5,,,,,,,,,5,,,50,0
571200,control_change,480,0,1,,,,,,,64,0,1,,,,
571200,control_change,17280,0,2,,,,,,,64,0,2,,,,
571200,control_change,1130,0,4,,,,,,,64,0,4,,,,
571200,control_change,17280,0,3,,,,,,,64,0,3,,,,
571200,marker,120,1,0,,,,,,,,,,,,,
571200,control_change,95,0,5,,,,,,,64,0,5,,,,
571200,note_on,0,0,5,,,,,,,,,5,,,33,70
571560,set_tempo,360,1,0,,,,,,508474,,,,,,,
571585,note_off,385,0,5,,,,,,,,,5,,,33,0
571680,note_on,480,0,1,,,,,,,,,1,,,69,63
571680,set_tempo,120,1,0,,,,,,500000,,,,,,,
572065,note_off,385,0,1,,,,,,,,,1,,,69,0
572090,set_tempo,410,1,0,,,,,,508474,,,,,,,
572160,note_on,95,0,1,,,,,,,,,1,,,66,59
572160,note_on,575,0,5,,,,,,,,,5,,,50,64
572160,set_tempo,70,1,0,,,,,,500000,,,,,,,
572210,note_off,50,0,1,,,,,,,,,1,,,66,0
572220,note_on,10,0,1,,,,,,,,,1,,,69,61
572270,note_off,50,0,1,,,,,,,,,1,,,69,0
572280,note_on,1080,0,4,,,,,,,,,4,,,54,64
572280,note_on,10,0,1,,,,,,,,,1,,,74,63
572400,note_off,240,0,5,,,,,,,,,5,,,50,0
572400,note_off,120,0,4,,,,,,,,,4,,,54,0
572400,note_on,0,0,4,,,,,,,,,4,,,57,64
572520,note_off,120,0,4,,,,,,,,,4,,,57,0
572520,note_on,0,0,4,,,,,,,,,4,,,62,64
572640,note_on,0,0,4,,,,,,,,,4,,,61,65
572640,note_off,120,0,4,,,,,,,,,4,,,62,0
572760,note_off,120,0,4,,,,,,,,,4,,,61,0
572760,note_on,0,0,4,,,,,,,,,4,,,62,65
572880,note_off,120,0,4,,,,,,,,,4,,,62,0
572880,note_on,0,0,4,,,,,,,,,4,,,61,65
573000,note_off,120,0,4,,,,,,,,,4,,,61,0
573000,note_on,0,0,4,,,,,,,,,4,,,62,65
573095,note_off,815,0,1,,,,,,,,,1,,,74,0
573105,note_off,105,0,4,,,,,,,,,4,,,62,0
573120,note_on,25,0,1,,,,,,,,,1,,,78,66
573120,note_on,1920,0,2,,,,,,,,,2,,,74,66
573120,note_on,720,0,5,,,,,,,,,5,,,47,66
573240,note_on,135,0,4,,,,,,,,,4,,,50,66
573360,note_on,0,0,4,,,,,,,,,4,,,54,66
573360,note_off,120,0,4,,,,,,,,,4,,,50,0
573360,note_off,240,0,5,,,,,,,,,5,,,47,0
573430,note_off,310,0,2,,,,,,,,,2,,,74,0
573430,note_off,310,0,1,,,,,,,,,1,,,78,0
573480,note_off,120,0,4,,,,,,,,,4,,,54,0
573480,note_on,0,0,4,,,,,,,,,4,,,59,66
573600,note_on,170,0,2,,,,,,,,,2,,,66,67
573600,note_on,170,0,1,,,,,,,,,1,,,74,67
573600,note_off,120,0,4,,,,,,,,,4,,,59,0
573600,note_on,0,0,4,,,,,,,,,4,,,58,67
573720,note_off,120,0,4,,,,,,,,,4,,,58,0
573720,note_on,0,0,4,,,,,,,,,4,,,59,67
573840,note_on,0,0,4,,,,,,,,,4,,,58,67
573840,note_off,120,0,4,,,,,,,,,4,,,59,0
573910,note_off,310,0,2,,,,,,,,,2,,,66,0
573910,note_off,310,0,1,,,,,,,,,1,,,74,0
573960,note_on,0,0,4,,,,,,,,,4,,,59,67
573960,note_off,120,0,4,,,,,,,,,4,,,58,0
574040,set_tempo,1880,1,0,,,,,,508474,,,,,,,
574065,note_off,105,0,4,,,,,,,,,4,,,59,0
574080,note_on,170,0,1,,,,,,,,,1,,,79,70
574080,note_on,720,0,5,,,,,,,,,5,,,43,67
574080,set_tempo,40,1,0,,,,,,500000,,,,,,,
574080,note_on,170,0,2,,,,,,,,,2,,,71,70
574200,note_on,135,0,4,,,,,,,,,4,,,47,68
574320,note_on,0,0,4,,,,,,,,,4,,,52,68
574320,note_off,120,0,4,,,,,,,,,4,,,47,0
574320,note_off,240,0,5,,,,,,,,,5,,,43,0
574440,note_off,120,0,4,,,,,,,,,4,,,52,0
574440,note_on,0,0,4,,,,,,,,,4,,,55,68
574560,note_off,120,0,4,,,,,,,,,4,,,55,0
574560,note_on,0,0,4,,,,,,,,,4,,,54,68
574680,note_off,120,0,4,,,,,,,,,4,,,54,0
574680,note_on,0,0,4,,,,,,,,,4,,,55,69
574800,note_off,120,0,4,,,,,,,,,4,,,55,0
574800,note_on,0,0,4,,,,,,,,,4,,,54,69
574800,note_on,0,0,1,,,,,,,,,1,,,76,69
574800,note_off,720,0,1,,,,,,,,,1,,,79,0
574800,note_off,720,0,2,,,,,,,,,2,,,71,0
574920,note_on,0,0,4,,,,,,,,,4,,,55,69
574920,note_off,120,0,4,,,,,,,,,4,,,54,0
574990,note_off,190,0,1,,,,,,,,,1,,,76,0
575025,note_off,105,0,4,,,,,,,,,4,,,55,0
575040,note_on,720,0,5,,,,,,,,,5,,,45,69
575040,note_on,50,0,1,,,,,,,,,1,,,73,69
575160,note_on,135,0,4,,,,,,,,,4,,,49,70
575280,note_on,0,0,4,,,,,,,,,4,,,52,70
575280,note_off,120,0,4,,,,,,,,,4,,,49,0
575280,note_off,240,0,5,,,,,,,,,5,,,45,0
575350,note_off,310,0,1,,,,,,,,,1,,,73,0
575400,note_off,120,0,4,,,,,,,,,4,,,52,0
575400,note_on,0,0,4,,,,,,,,,4,,,57,70
575520,note_on,170,0,1,,,,,,,,,1,,,69,70
575520,note_off,120,0,4,,,,,,,,,4,,,57,0
575520,note_on,0,0,4,,,,,,,,,4,,,56,70
575640,note_off,120,0,4,,,,,,,,,4,,,56,0
575640,note_on,0,0,4,,,,,,,,,4,,,57,71
575760,note_off,120,0,4,,,,,,,,,4,,,57,0
575760,note_on,0,0,4,,,,,,,,,4,,,56,71
575830,note_off,310,0,1,,,,,,,,,1,,,69,0
575880,note_on,0,0,4,,,,,,,,,4,,,57,71
575880,note_off,120,0,4,,,,,,,,,4,,,56,0
575960,set_tempo,1880,1,0,,,,,,508474,,,,,,,
575980,note_off,100,0,4,,,,,,,,,4,,,57,0
576000,note_on,170,0,1,,,,,,,,,1,,,81,72
576000,set_tempo,40,1,0,,,,,,500000,,,,,,,
576000,note_on,720,0,5,,,,,,,,,5,,,54,72
576120,note_on,140,0,4,,,,,,,,,4,,,57,72
576120,note_off,120,0,1,,,,,,,,,1,,,81,0
576120,note_on,0,0,1,,,,,,,,,1,,,78,72
576240,note_on,0,0,4,,,,,,,,,4,,,62,73
576240,note_off,120,0,1,,,,,,,,,1,,,78,0
576240,note_on,0,0,1,,,,,,,,,1,,,74,73
576240,note_off,240,0,5,,,,,,,,,5,,,54,0
576240,note_off,120,0,4,,,,,,,,,4,,,57,0
576360,note_off,120,0,1,,,,,,,,,1,,,74,0
576360,note_on,0,0,1,,,,,,,,,1,,,69,74
576360,note_on,0,0,4,,,,,,,,,4,,,66,74
576360,note_off,120,0,4,,,,,,,,,4,,,62,0
576480,note_off,120,0,4,,,,,,,,,4,,,66,0
576480,note_on,0,0,4,,,,,,,,,4,,,65,75
576480,note_on,0,0,1,,,,,,,,,1,,,68,75
576480,note_off,120,0,1,,,,,,,,,1,,,69,0
576600,note_off,120,0,4,,,,,,,,,4,,,65,0
576600,note_off,120,0,1,,,,,,,,,1,,,68,0
576600,note_on,0,0,1,,,,,,,,,1,,,69,76
576600,note_on,0,0,4,,,,,,,,,4,,,66,76
576720,note_on,0,0,4,,,,,,,,,4,,,65,77
576720,note_on,0,0,1,,,,,,,,,1,,,68,77
576720,note_off,120,0,4,,,,,,,,,4,,,66,0
576720,note_off,120,0,1,,,,,,,,,1,,,69,0
576840,note_off,120,0,4,,,,,,,,,4,,,65,0
576840,note_on,0,0,4,,,,,,,,,4,,,66,78
576840,note_off,120,0,1,,,,,,,,,1,,,68,0
576840,note_on,0,0,1,,,,,,,,,1,,,69,78
576920,set_tempo,920,1,0,,,,,,508474,,,,,,,
576940,note_off,100,0,1,,,,,,,,,1,,,69,0
576940,note_off,100,0,4,,,,,,,,,4,,,66,0
576960,note_on,720,0,5,,,,,,,,,5,,,55,78
576960,set_tempo,40,1,0,,,,,,500000,,,,,,,
576960,note_on,20,0,1,,,,,,,,,1,,,83,78
577080,note_on,0,0,1,,,,,,,,,1,,,79,80
577080,note_on,140,0,4,,,,,,,,,4,,,59,80
577080,note_off,120,0,1,,,,,,,,,1,,,83,0
577200,note_on,0,0,1,,,,,,,,,1,,,74,81
577200,note_off,240,0,5,,,,,,,,,5,,,55,0
577200,note_on,0,0,4,,,,,,,,,4,,,62,81
577200,note_off,120,0,4,,,,,,,,,4,,,59,0
577200,note_off,120,0,1,,,,,,,,,1,,,79,0
577320,note_on,0,0,1,,,,,,,,,1,,,71,82
577320,note_off,120,0,1,,,,,,,,,1,,,74,0
577320,note_on,0,0,4,,,,,,,,,4,,,67,82
577320,note_off,120,0,4,,,,,,,,,4,,,62,0
577440,note_on,0,0,1,,,,,,,,,1,,,70,84
577440,note_off,120,0,1,,,,,,,,,1,,,71,0
577440,note_off,120,0,4,,,,,,,,,4,,,67,0
577440,note_on,0,0,4,,,,,,,,,4,,,66,84
577560,note_off,120,0,4,,,,,,,,,4,,,66,0
577560,note_on,0,0,4,,,,,,,,,4,,,67,85
577560,note_on,0,0,1,,,,,,,,,1,,,71,85
577560,note_off,120,0,1,,,,,,,,,1,,,70,0
577680,note_off,120,0,4,,,,,,,,,4,,,67,0
577680,note_on,0,0,4,,,,,,,,,4,,,66,87
577680,note_on,0,0,1,,,,,,,,,1,,,70,87
577680,note_off,120,0,1,,,,,,,,,1,,,71,0
577800,note_off,120,0,4,,,,,,,,,4,,,66,0
577800,note_on,0,0,4,,,,,,,,,4,,,67,88
577800,note_off,120,0,1,,,,,,,,,1,,,70,0
577800,note_on,0,0,1,,,,,,,,,1,,,71,88
577880,set_tempo,920,1,0,,,,,,508474,,,,,,,
577900,note_off,100,0,1,,,,,,,,,1,,,71,0
577905,note_off,105,0,4,,,,,,,,,4,,,67,0
577920,note_on,15,0,4,,,,,,,,,4,,,66,90
577920,note_on,720,0,5,,,,,,,,,5,,,57,90
577920,note_on,20,0,1,,,,,,,,,1,,,74,90
578400,note_on,0,0,4,,,,,,,,,4,,,64,81
578400,note_off,480,0,4,,,,,,,,,4,,,66,0
578400,note_on,0,0,1,,,,,,,,,1,,,73,81
578400,note_off,480,0,1,,,,,,,,,1,,,74,0
578785,note_off,385,0,4,,,,,,,,,4,,,64,0
578785,note_off,865,0,5,,,,,,,,,5,,,57,0
578785,note_off,385,0,1,,,,,,,,,1,,,73,0
578880,note_on,95,0,5,,,,,,,,,5,,,33,72
578880,set_tempo,1000,1,0,,,,,,550458,,,,,,,
579265,note_off,385,0,5,,,,,,,,,5,,,33,0
579360,note_on,575,0,1,,,,,,,,,1,,,69,63
579360,set_tempo,480,1,0,,,,,,500000,,,,,,,
579745,note_off,385,0,1,,,,,,,,,1,,,69,0
579770,set_tempo,410,1,0,,,,,,508474,,,,,,,
579840,note_on,575,0,5,,,,,,,,,5,,,50,63
579840,note_on,95,0,1,,,,,,,,,1,,,66,60
579840,set_tempo,70,1,0,,,,,,500000,,,,,,,
579890,note_off,50,0,1,,,,,,,,,1,,,66,0
579900,note_on,10,0,1,,,,,,,,,1,,,69,63
579950,note_off,50,0,1,,,,,,,,,1,,,69,0
579960,note_on,1175,0,4,,,,,,,,,4,,,54,64
579960,note_on,10,0,1,,,,,,,,,1,,,74,64
580080,note_off,240,0,5,,,,,,,,,5,,,50,0
580080,note_on,0,0,4,,,,,,,,,4,,,57,64
580080,note_off,120,0,4,,,,,,,,,4,,,54,0
580200,note_off,120,0,4,,,,,,,,,4,,,57,0
580200,note_on,0,0,4,,,,,,,,,4,,,62,64
580320,note_off,120,0,4,,,,,,,,,4,,,62,0
580320,note_on,0,0,4,,,,,,,,,4,,,61,65
580440,note_off,120,0,4,,,,,,,,,4,,,61,0
580440,note_on,0,0,4,,,,,,,,,4,,,62,65
580560,note_off,120,0,4,,,,,,,,,4,,,62,0
580560,note_on,0,0,4,,,,,,,,,4,,,61,65
580680,note_on,0,0,4,,,,,,,,,4,,,62,65
580680,note_off,120,0,4,,,,,,,,,4,,,61,0
580775,note_off,815,0,1,,,,,,,,,1,,,74,0
580785,note_off,105,0,4,,,,,,,,,4,,,62,0
580800,note_on,720,0,5,,,,,,,,,5,,,47,66
580800,note_on,6000,0,2,,,,,,,,,2,,,74,66
580800,note_on,25,0,1,,,,,,,,,1,,,78,66
580920,note_on,135,0,4,,,,,,,,,4,,,50,66
581040,note_off,240,0,5,,,,,,,,,5,,,47,0
581040,note_off,120,0,4,,,,,,,,,4,,,50,0
581040,note_on,0,0,4,,,,,,,,,4,,,54,66
581110,note_off,310,0,2,,,,,,,,,2,,,74,0
581110,note_off,310,0,1,,,,,,,,,1,,,78,0
581160,note_off,120,0,4,,,,,,,,,4,,,54,0
581160,note_on,0,0,4,,,,,,,,,4,,,59,67
581280,note_on,170,0,1,,,,,,,,,1,,,74,67
581280,note_off,120,0,4,,,,,,,,,4,,,59,0
581280,note_on,0,0,4,,,,,,,,,4,,,58,67
581280,note_on,170,0,2,,,,,,,,,2,,,66,67
581400,note_off,120,0,4,,,,,,,,,4,,,58,0
581400,note_on,0,0,4,,,,,,,,,4,,,59,67
581520,note_off,120,0,4,,,,,,,,,4,,,59,0
581520,note_on,0,0,4,,,,,,,,,4,,,58,68
581590,note_off,310,0,1,,,,,,,,,1,,,74,0
581590,note_off,310,0,2,,,,,,,,,2,,,66,0
581640,note_on,0,0,4,,,,,,,,,4,,,59,68
581640,note_off,120,0,4,,,,,,,,,4,,,58,0
581720,set_tempo,1880,1,0,,,,,,508474,,,,,,,
581735,note_off,95,0,4,,,,,,,,,4,,,59,0
581760,note_on,720,0,5,,,,,,,,,5,,,44,68
581760,note_on,170,0,2,,,,,,,,,2,,,83,73
581760,set_tempo,40,1,0,,,,,,500000,,,,,,,
581760,note_on,170,0,1,,,,,,,,,1,,,86,73
581880,note_on,145,0,4,,,,,,,,,4,,,47,69
582000,note_off,120,0,4,,,,,,,,,4,,,47,0
582000,note_on,0,0,4,,,,,,,,,4,,,50,69
582000,note_off,240,0,5,,,,,,,,,5,,,44,0
582120,note_on,0,0,4,,,,,,,,,4,,,56,69
582120,note_off,120,0,4,,,,,,,,,4,,,50,0
582240,note_on,0,0,4,,,,,,,,,4,,,54,70
582240,note_off,120,0,4,,,,,,,,,4,,,56,0
582360,note_off,120,0,4,,,,,,,,,4,,,54,0
582360,note_on,0,0,4,,,,,,,,,4,,,56,70
582480,note_off,720,0,2,,,,,,,,,2,,,83,0
582480,note_on,0,0,1,,,,,,,,,1,,,83,70
582480,note_off,720,0,1,,,,,,,,,1,,,86,0
582480,note_on,0,0,4,,,,,,,,,4,,,54,70
582480,note_off,120,0,4,,,,,,,,,4,,,56,0
582480,note_on,0,0,2,,,,,,,,,2,,,80,70
582600,note_on,0,0,4,,,,,,,,,4,,,56,71
582600,note_off,120,0,4,,,,,,,,,4,,,54,0
582670,note_off,190,0,2,,,,,,,,,2,,,80,0
582670,note_off,190,0,1,,,,,,,,,1,,,83,0
582700,note_off,100,0,4,,,,,,,,,4,,,56,0
582720,note_on,50,0,2,,,,,,,,,2,,,71,71
582720,note_on,0,0,2,,,,,,,,,2,,,74,71
582720,note_on,50,0,1,,,,,,,,,1,,,80,71
582720,note_on,720,0,5,,,,,,,,,5,,,40,71
582840,note_on,140,0,4,,,,,,,,,4,,,44,71
582960,note_off,120,0,4,,,,,,,,,4,,,44,0
582960,note_on,0,0,4,,,,,,,,,4,,,47,71
582960,note_off,240,0,5,,,,,,,,,5,,,40,0
583030,note_off,310,0,1,,,,,,,,,1,,,80,0
583030,note_off,0,0,2,,,,,,,,,2,,,71,0
583030,note_off,310,0,2,,,,,,,,,2,,,74,0
583080,note_off,120,0,4,,,,,,,,,4,,,47,0
583080,note_on,0,0,4,,,,,,,,,4,,,52,72
583200,note_on,0,0,4,,,,,,,,,4,,,51,72
583200,note_on,170,0,1,,,,,,,,,1,,,74,72
583200,note_on,170,0,2,,,,,,,,,2,,,71,72
583200,note_on,0,0,2,,,,,,,,,2,,,68,72
583200,note_off,120,0,4,,,,,,,,,4,,,52,0
583320,note_off,120,0,4,,,,,,,,,4,,,51,0
583320,note_on,0,0,4,,,,,,,,,4,,,52,72
583440,note_off,120,0,4,,,,,,,,,4,,,52,0
583440,note_on,0,0,4,,,,,,,,,4,,,51,73
583510,note_off,310,0,1,,,,,,,,,1,,,74,0
583510,note_off,0,0,2,,,,,,,,,2,,,71,0
583510,note_off,310,0,2,,,,,,,,,2,,,68,0
583560,note_off,120,0,4,,,,,,,,,4,,,51,0
583560,note_on,0,0,4,,,,,,,,,4,,,52,73
583640,set_tempo,1880,1,0,,,,,,508474,,,,,,,
583670,note_off,110,0,4,,,,,,,,,4,,,52,0
583680,set_tempo,40,1,0,,,,,,500000,,,,,,,
583680,note_on,170,0,1,,,,,,,,,1,,,76,72
583680,note_on,720,0,5,,,,,,,,,5,,,49,72
583800,note_on,130,0,4,,,,,,,,,4,,,52,73
583800,note_off,120,0,1,,,,,,,,,1,,,76,0
583800,note_on,0,0,1,,,,,,,,,1,,,73,73
583920,note_on,0,0,4,,,,,,,,,4,,,57,74
583920,note_on,0,0,1,,,,,,,,,1,,,69,74
583920,note_off,120,0,1,,,,,,,,,1,,,73,0
583920,note_off,120,0,4,,,,,,,,,4,,,52,0
583920,note_off,240,0,5,,,,,,,,,5,,,49,0
584040,note_off,120,0,4,,,,,,,,,4,,,57,0
584040,note_on,0,0,4,,,,,,,,,4,,,61,75
584040,note_on,0,0,1,,,,,,,,,1,,,64,75
584040,note_off,120,0,1,,,,,,,,,1,,,69,0
584160,note_off,120,0,4,,,,,,,,,4,,,61,0
584160,note_on,0,0,4,,,,,,,,,4,,,60,76
584160,note_off,120,0,1,,,,,,,,,1,,,64,0
584160,note_on,0,0,1,,,,,,,,,1,,,63,76
584280,note_on,0,0,4,,,,,,,,,4,,,61,76
584280,note_off,120,0,4,,,,,,,,,4,,,60,0
584280,note_on,0,0,1,,,,,,,,,1,,,64,76
584280,note_off,120,0,1,,,,,,,,,1,,,63,0
584400,note_on,0,0,1,,,,,,,,,1,,,63,77
584400,note_off,120,0,4,,,,,,,,,4,,,61,0
584400,note_off,120,0,1,,,,,,,,,1,,,64,0
584400,note_on,0,0,4,,,,,,,,,4,,,60,77
584520,note_on,0,0,1,,,,,,,,,1,,,64,78
584520,note_off,120,0,1,,,,,,,,,1,,,63,0
584520,note_off,120,0,4,,,,,,,,,4,,,60,0
584520,note_on,0,0,4,,,,,,,,,4,,,61,78
584600,set_tempo,920,1,0,,,,,,508474,,,,,,,
584620,note_off,100,0,4,,,,,,,,,4,,,61,0
584625,note_off,105,0,1,,,,,,,,,1,,,64,0
584640,set_tempo,40,1,0,,,,,,500000,,,,,,,
584640,note_on,15,0,1,,,,,,,,,1,,,78,79
584640,note_on,720,0,5,,,,,,,,,5,,,50,79
584760,note_off,120,0,1,,,,,,,,,1,,,78,0
584760,note_on,0,0,1,,,,,,,,,1,,,74,80
584760,note_on,140,0,4,,,,,,,,,4,,,54,80
584880,note_off,120,0,4,,,,,,,,,4,,,54,0
584880,note_off,120,0,1,,,,,,,,,1,,,74,0
584880,note_on,0,0,1,,,,,,,,,1,,,69,82
584880,note_off,240,0,5,,,,,,,,,5,,,50,0
584880,note_on,0,0,4,,,,,,,,,4,,,57,82
585000,note_off,120,0,4,,,,,,,,,4,,,57,0
585000,note_on,0,0,4,,,,,,,,,4,,,62,84
585000,note_on,0,0,1,,,,,,,,,1,,,66,84
585000,note_off,120,0,1,,,,,,,,,1,,,69,0
585105,note_off,105,0,4,,,,,,,,,4,,,62,0
585105,note_off,105,0,1,,,,,,,,,1,,,66,0
585120,note_on,240,0,5,,,,,,,,,5,,,40,86
585120,note_on,15,0,1,,,,,,,,,1,,,74,86
585240,note_off,120,0,1,,,,,,,,,1,,,74,0
585240,note_on,135,0,4,,,,,,,,,4,,,44,88
585240,note_on,0,0,1,,,,,,,,,1,,,71,88
585360,note_off,120,0,4,,,,,,,,,4,,,44,0
585360,note_on,0,0,4,,,,,,,,,4,,,47,89
585360,note_on,0,0,1,,,,,,,,,1,,,68,89
585360,note_off,120,0,1,,,,,,,,,1,,,71,0
585360,note_off,240,0,5,,,,,,,,,5,,,40,0
585480,note_off,120,0,4,,,,,,,,,4,,,47,0
585480,note_on,0,0,4,,,,,,,,,4,,,52,91
585480,note_off,120,0,1,,,,,,,,,1,,,68,0
585480,note_on,0,0,1,,,,,,,,,1,,,64,91
585560,set_tempo,920,1,0,,,,,,508474,,,,,,,
585585,note_off,105,0,1,,,,,,,,,1,,,64,0
585585,note_off,105,0,4,,,,,,,,,4,,,52,0
585600,note_on,15,0,1,,,,,,,,,1,,,69,93
585600,note_on,2090,0,2,,,,,,,,,2,,,64,93
585600,note_on,240,0,5,,,,,,,,,5,,,45,93
585600,note_on,0,0,2,,,,,,,,,2,,,61,93
585910,note_off,310,0,5,,,,,,,,,5,,,45,0
586080,note_off,480,0,1,,,,,,,,,1,,,69,0
586080,note_on,170,0,5,,,,,,,,,5,,,57,82
586080,note_off,480,0,2,,,,,,,,,2,,,61,0
586080,note_off,0,0,2,,,,,,,,,2,,,64,0
586390,note_off,310,0,5,,,,,,,,,5,,,57,0
586560,control_change,15360,0,3,,,,,,,64,0,3,,,,
586560,control_change,480,0,1,,,,,,,64,0,1,,,,
586560,control_change,170,0,5,,,,,,,64,0,5,,,,
586560,note_on,0,0,5,,,,,,,,,5,,,33,70
586560,control_change,975,0,4,,,,,,,64,0,4,,,,
586560,control_change,480,0,2,,,,,,,64,0,2,,,,
586920,set_tempo,1360,1,0,,,,,,508474,,,,,,,
586945,note_off,385,0,5,,,,,,,,,5,,,33,0
587040,set_tempo,120,1,0,,,,,,500000,,,,,,,
587040,note_on,480,0,1,,,,,,,,,1,,,69,63
587425,note_off,385,0,1,,,,,,,,,1,,,69,0
587450,set_tempo,410,1,0,,,,,,508474,,,,,,,
587520,note_on,95,0,1,,,,,,,,,1,,,66,59
587520,note_on,575,0,5,,,,,,,,,5,,,50,64
587520,set_tempo,70,1,0,,,,,,500000,,,,,,,
587570,note_off,50,0,1,,,,,,,,,1,,,66,0
587580,note_on,10,0,1,,,,,,,,,1,,,69,61
587630,note_off,50,0,1,,,,,,,,,1,,,69,0
587640,note_on,10,0,1,,,,,,,,,1,,,74,63
587640,note_on,1080,0,4,,,,,,,,,4,,,54,64
587760,note_off,240,0,5,,,,,,,,,5,,,50,0
587760,note_off,120,0,4,,,,,,,,,4,,,54,0
587760,note_on,0,0,4,,,,,,,,,4,,,57,64
587880,note_off,120,0,4,,,,,,,,,4,,,57,0
587880,note_on,0,0,4,,,,,,,,,4,,,62,64
588000,note_on,0,0,4,,,,,,,,,4,,,61,65
588000,note_off,120,0,4,,,,,,,,,4,,,62,0
588120,note_off,120,0,4,,,,,,,,,4,,,61,0
588120,note_on,0,0,4,,,,,,,,,4,,,62,65
588240,note_off,120,0,4,,,,,,,,,4,,,62,0
588240,note_on,0,0,4,,,,,,,,,4,,,61,65
588360,note_off,120,0,4,,,,,,,,,4,,,61,0
588360,note_on,0,0,4,,,,,,,,,4,,,62,65
588455,note_off,815,0,1,,,,,,,,,1,,,74,0
588465,note_off,105,0,4,,,,,,,,,4,,,62,0
588480,note_on,25,0,1,,,,,,,,,1,,,78,66
588480,note_on,720,0,5,,,,,,,,,5,,,47,66
588480,note_on,1920,0,2,,,,,,,,,2,,,74,66
588600,note_on,135,0,4,,,,,,,,,4,,,50,66
588720,note_off,240,0,5,,,,,,,,,5,,,47,0
588720,note_on,0,0,4,,,,,,,,,4,,,54,66
588720,note_off,120,0,4,,,,,,,,,4,,,50,0
588790,note_off,310,0,2,,,,,,,,,2,,,74,0
588790,note_off,310,0,1,,,,,,,,,1,,,78,0
588840,note_off,120,0,4,,,,,,,,,4,,,54,0
588840,note_on,0,0,4,,,,,,,,,4,,,59,66
588960,note_on,170,0,2,,,,,,,,,2,,,66,67
588960,note_on,170,0,1,,,,,,,,,1,,,74,67
588960,note_on,0,0,4,,,,,,,,,4,,,58,67
588960,note_off,120,0,4,,,,,,,,,4,,,59,0
589080,note_off,120,0,4,,,,,,,,,4,,,58,0
589080,note_on,0,0,4,,,,,,,,,4,,,59,67
589200,note_off,120,0,4,,,,,,,,,4,,,59,0
589200,note_on,0,0,4,,,,,,,,,4,,,58,67
589270,note_off,310,0,2,,,,,,,,,2,,,66,0
589270,note_off,310,0,1,,,,,,,,,1,,,74,0
589320,note_off,120,0,4,,,,,,,,,4,,,58,0
589320,note_on,0,0,4,,,,,,,,,4,,,59,67
589400,set_tempo,1880,1,0,,,,,,508474,,,,,,,
589425,note_off,105,0,4,,,,,,,,,4,,,59,0
589440,note_on,170,0,1,,,,,,,,,1,,,79,70
589440,set_tempo,40,1,0,,,,,,500000,,,,,,,
589440,note_on,720,0,5,,,,,,,,,5,,,43,67
589440,note_on,170,0,2,,,,,,,,,2,,,71,70
589560,note_on,135,0,4,,,,,,,,,4,,,47,68
589680,note_off,240,0,5,,,,,,,,,5,,,43,0
589680,note_on,0,0,4,,,,,,,,,4,,,52,68
589680,note_off,120,0,4,,,,,,,,,4,,,47,0
589800,note_on,0,0,4,,,,,,,,,4,,,55,68
589800,note_off,120,0,4,,,,,,,,,4,,,52,0
589920,note_off,120,0,4,,,,,,,,,4,,,55,0
589920,note_on,0,0,4,,,,,,,,,4,,,54,68
590040,note_off,120,0,4,,,,,,,,,4,,,54,0
590040,note_on,0,0,4,,,,,,,,,4,,,55,69
590160,note_off,720,0,1,,,,,,,,,1,,,79,0
590160,note_on,0,0,1,,,,,,,,,1,,,76,69
590160,note_off,720,0,2,,,,,,,,,2,,,71,0
590160,note_on,0,0,4,,,,,,,,,4,,,54,69
590160,note_off,120,0,4,,,,,,,,,4,,,55,0
590280,note_off,120,0,4,,,,,,,,,4,,,54,0
590280,note_on,0,0,4,,,,,,,,,4,,,55,69
590350,note_off,190,0,1,,,,,,,,,1,,,76,0
590385,note_off,105,0,4,,,,,,,,,4,,,55,0
590400,note_on,50,0,1,,,,,,,,,1,,,73,69
590400,note_on,720,0,5,,,,,,,,,5,,,45,69
590520,note_on,135,0,4,,,,,,,,,4,,,49,70
590640,note_off,240,0,5,,,,,,,,,5,,,45,0
590640,note_off,120,0,4,,,,,,,,,4,,,49,0
590640,note_on,0,0,4,,,,,,,,,4,,,52,70
590710,note_off,310,0,1,,,,,,,,,1,,,73,0
590760,note_on,0,0,4,,,,,,,,,4,,,57,70
590760,note_off,120,0,4,,,,,,,,,4,,,52,0
590880,note_off,120,0,4,,,,,,,,,4,,,57,0
590880,note_on,0,0,4,,,,,,,,,4,,,56,70
590880,note_on,170,0,1,,,,,,,,,1,,,69,70
591000,note_off,120,0,4,,,,,,,,,4,,,56,0
591000,note_on,0,0,4,,,,,,,,,4,,,57,71
591120,note_off,120,0,4,,,,,,,,,4,,,57,0
591120,note_on,0,0,4,,,,,,,,,4,,,56,71
591190,note_off,310,0,1,,,,,,,,,1,,,69,0
591240,note_on,0,0,4,,,,,,,,,4,,,57,71
591240,note_off,120,0,4,,,,,,,,,4,,,56,0
591320,set_tempo,1880,1,0,,,,,,508474,,,,,,,
591340,note_off,100,0,4,,,,,,,,,4,,,57,0
591360,note_on,720,0,5,,,,,,,,,5,,,54,72
591360,set_tempo,40,1,0,,,,,,500000,,,,,,,
591360,note_on,170,0,1,,,,,,,,,1,,,81,72
591480,note_off,120,0,1,,,,,,,,,1,,,81,0
591480,note_on,140,0,4,,,,,,,,,4,,,57,72
591480,note_on,0,0,1,,,,,,,,,1,,,78,72
591600,note_off,240,0,5,,,,,,,,,5,,,54,0
591600,note_on,0,0,4,,,,,,,,,4,,,62,73
591600,note_off,120,0,4,,,,,,,,,4,,,57,0
591600,note_off,120,0,1,,,,,,,,,1,,,78,0
591600,note_on,0,0,1,,,,,,,,,1,,,74,73
591720,note_on,0,0,4,,,,,,,,,4,,,66,74
591720,note_off,120,0,4,,,,,,,,,4,,,62,0
591720,note_on,0,0,1,,,,,,,,,1,,,69,74
591720,note_off,120,0,1,,,,,,,,,1,,,74,0
591840,note_on,0,0,1,,,,,,,,,1,,,68,75
591840,note_on,0,0,4,,,,,,,,,4,,,65,75
591840,note_off,120,0,4,,,,,,,,,4,,,66,0
591840,note_off,120,0,1,,,,,,,,,1,,,69,0
591960,note_on,0,0,4,,,,,,,,,4,,,66,76
591960,note_off,120,0,4,,,,,,,,,4,,,65,0
591960,note_on,0,0,1,,,,,,,,,1,,,69,76
591960,note_off,120,0,1,,,,,,,,,1,,,68,0
592080,note_off,120,0,4,,,,,,,,,4,,,66,0
592080,note_on,0,0,4,,,,,,,,,4,,,65,77
592080,note_off,120,0,1,,,,,,,,,1,,,69,0
592080,note_on,0,0,1,,,,,,,,,1,,,68,77
592200,note_off,120,0,1,,,,,,,,,1,,,68,0
592200,note_on,0,0,1,,,,,,,,,1,,,69,78
592200,note_off,120,0,4,,,,,,,,,4,,,65,0
592200,note_on,0,0,4,,,,,,,,,4,,,66,78
592280,set_tempo,920,1,0,,,,,,508474,,,,,,,
592300,note_off,100,0,1,,,,,,,,,1,,,69,0
592300,note_off,100,0,4,,,,,,,,,4,,,66,0
592320,set_tempo,40,1,0,,,,,,500000,,,,,,,
592320,note_on,20,0,1,,,,,,,,,1,,,83,78
592320,note_on,720,0,5,,,,,,,,,5,,,55,78
592440,note_on,0,0,1,,,,,,,,,1,,,79,80
592440,note_off,120,0,1,,,,,,,,,1,,,83,0
592440,note_on,140,0,4,,,,,,,,,4,,,59,80
592560,note_off,120,0,1,,,,,,,,,1,,,79,0
592560,note_on,0,0,1,,,,,,,,,1,,,74,81
592560,note_off,120,0,4,,,,,,,,,4,,,59,0
592560,note_on,0,0,4,,,,,,,,,4,,,62,81
592560,note_off,240,0,5,,,,,,,,,5,,,55,0
592680,note_off,120,0,1,,,,,,,,,1,,,74,0
592680,note_off,120,0,4,,,,,,,,,4,,,62,0
592680,note_on,0,0,4,,,,,,,,,4,,,67,82
592680,note_on,0,0,1,,,,,,,,,1,,,71,82
592800,note_on,0,0,1,,,,,,,,,1,,,70,84
592800,note_off,120,0,1,,,,,,,,,1,,,71,0
592800,note_on,0,0,4,,,,,,,,,4,,,66,84
592800,note_off,120,0,4,,,,,,,,,4,,,67,0
592920,note_on,0,0,4,,,,,,,,,4,,,67,85
592920,note_off,120,0,1,,,,,,,,,1,,,70,0
592920,note_on,0,0,1,,,,,,,,,1,,,71,85
592920,note_off,120,0,4,,,,,,,,,4,,,66,0
593040,note_off,120,0,1,,,,,,,,,1,,,71,0
593040,note_on,0,0,1,,,,,,,,,1,,,70,87
593040,note_on,0,0,4,,,,,,,,,4,,,66,87
593040,note_off,120,0,4,,,,,,,,,4,,,67,0
593160,note_on,0,0,1,,,,,,,,,1,,,71,88
593160,note_off,120,0,1,,,,,,,,,1,,,70,0
593160,note_off,120,0,4,,,,,,,,,4,,,66,0
593160,note_on,0,0,4,,,,,,,,,4,,,67,88
593240,set_tempo,920,1,0,,,,,,508474,,,,,,,
593260,note_off,100,0,1,,,,,,,,,1,,,71,0
593265,note_off,105,0,4,,,,,,,,,4,,,67,0
593280,note_on,15,0,4,,,,,,,,,4,,,66,90
593280,note_on,720,0,5,,,,,,,,,5,,,57,90
593280,note_on,20,0,1,,,,,,,,,1,,,74,90
593760,note_off,480,0,4,,,,,,,,,4,,,66,0
593760,note_off,480,0,1,,,,,,,,,1,,,74,0
593760,note_on,0,0,1,,,,,,,,,1,,,73,81
593760,note_on,0,0,4,,,,,,,,,4,,,64,81
594145,note_off,865,0,5,,,,,,,,,5,,,57,0
594145,note_off,385,0,1,,,,,,,,,1,,,73,0
594145,note_off,385,0,4,,,,,,,,,4,,,64,0
594240,note_on,95,0,5,,,,,,,,,5,,,33,72
594240,set_tempo,1000,1,0,,,,,,550458,,,,,,,
594625,note_off,385,0,5,,,,,,,,,5,,,33,0
594720,note_on,575,0,1,,,,,,,,,1,,,69,63
594720,set_tempo,480,1,0,,,,,,500000,,,,,,,
595105,note_off,385,0,1,,,,,,,,,1,,,69,0
595130,set_tempo,410,1,0,,,,,,508474,,,,,,,
595200,note_on,575,0,5,,,,,,,,,5,,,50,63
595200,set_tempo,70,1,0,,,,,,500000,,,,,,,
595200,note_on,95,0,1,,,,,,,,,1,,,66,60
595250,note_off,50,0,1,,,,,,,,,1,,,66,0
595260,note_on,10,0,1,,,,,,,,,1,,,69,63
595310,note_off,50,0,1,,,,,,,,,1,,,69,0
595320,note_on,10,0,1,,,,,,,,,1,,,74,64
595320,note_on,1175,0,4,,,,,,,,,4,,,54,64
595440,note_on,0,0,4,,,,,,,,,4,,,57,64
595440,note_off,120,0,4,,,,,,,,,4,,,54,0
595440,note_off,240,0,5,,,,,,,,,5,,,50,0
595560,note_on,0,0,4,,,,,,,,,4,,,62,64
595560,note_off,120,0,4,,,,,,,,,4,,,57,0
595680,note_on,0,0,4,,,,,,,,,4,,,61,65
595680,note_off,120,0,4,,,,,,,,,4,,,62,0
595800,note_off,120,0,4,,,,,,,,,4,,,61,0
595800,note_on,0,0,4,,,,,,,,,4,,,62,65
595920,note_on,0,0,4,,,,,,,,,4,,,61,65
595920,note_off,120,0,4,,,,,,,,,4,,,62,0
596040,note_on,0,0,4,,,,,,,,,4,,,62,65
596040,note_off,120,0,4,,,,,,,,,4,,,61,0
596135,note_off,815,0,1,,,,,,,,,1,,,74,0
596145,note_off,105,0,4,,,,,,,,,4,,,62,0
596160,note_on,720,0,5,,,,,,,,,5,,,47,66
596160,note_on,6000,0,2,,,,,,,,,2,,,74,66
596160,note_on,25,0,1,,,,,,,,,1,,,78,66
596280,note_on,135,0,4,,,,,,,,,4,,,50,66
596400,note_off,120,0,4,,,,,,,,,4,,,50,0
596400,note_on,0,0,4,,,,,,,,,4,,,54,66
596400,note_off,240,0,5,,,,,,,,,5,,,47,0
596470,note_off,310,0,2,,,,,,,,,2,,,74,0
596470,note_off,310,0,1,,,,,,,,,1,,,78,0
596520,note_off,120,0,4,,,,,,,,,4,,,54,0
596520,note_on,0,0,4,,,,,,,,,4,,,59,67
596640,note_on,170,0,2,,,,,,,,,2,,,66,67
596640,note_on,170,0,1,,,,,,,,,1,,,74,67
596640,note_off,120,0,4,,,,,,,,,4,,,59,0
596640,note_on,0,0,4,,,,,,,,,4,,,58,67
596760,note_off,120,0,4,,,,,,,,,4,,,58,0
596760,note_on,0,0,4,,,,,,,,,4,,,59,67
596880,note_off,120,0,4,,,,,,,,,4,,,59,0
596880,note_on,0,0,4,,,,,,,,,4,,,58,68
596950,note_off,310,0,1,,,,,,,,,1,,,74,0
596950,note_off,310,0,2,,,,,,,,,2,,,66,0
597000,note_on,0,0,4,,,,,,,,,4,,,59,68
597000,note_off,120,0,4,,,,,,,,,4,,,58,0
597080,set_tempo,1880,1,0,,,,,,508474,,,,,,,
597095,note_off,95,0,4,,,,,,,,,4,,,59,0
597120,set_tempo,40,1,0,,,,,,500000,,,,,,,
597120,note_on,170,0,2,,,,,,,,,2,,,83,73
597120,note_on,170,0,1,,,,,,,,,1,,,86,73
597120,note_on,720,0,5,,,,,,,,,5,,,44,68
597240,note_on,145,0,4,,,,,,,,,4,,,47,69
597360,note_off,240,0,5,,,,,,,,,5,,,44,0
597360,note_off,120,0,4,,,,,,,,,4,,,47,0
597360,note_on,0,0,4,,,,,,,,,4,,,50,69
597480,note_off,120,0,4,,,,,,,,,4,,,50,0
597480,note_on,0,0,4,,,,,,,,,4,,,56,69
597600,note_off,120,0,4,,,,,,,,,4,,,56,0
597600,note_on,0,0,4,,,,,,,,,4,,,54,70
597720,note_off,120,0,4,,,,,,,,,4,,,54,0
597720,note_on,0,0,4,,,,,,,,,4,,,56,70
597840,note_on,0,0,2,,,,,,,,,2,,,80,70
597840,note_on,0,0,4,,,,,,,,,4,,,54,70
597840,note_off,720,0,2,,,,,,,,,2,,,83,0
597840,note_on,0,0,1,,,,,,,,,1,,,83,70
597840,note_off,720,0,1,,,,,,,,,1,,,86,0
597840,note_off,120,0,4,,,,,,,,,4,,,56,0
597960,note_off,120,0,4,,,,,,,,,4,,,54,0
597960,note_on,0,0,4,,,,,,,,,4,,,56,71
598030,note_off,190,0,1,,,,,,,,,1,,,83,0
598030,note_off,190,0,2,,,,,,,,,2,,,80,0
598060,note_off,100,0,4,,,,,,,,,4,,,56,0
598080,note_on,50,0,1,,,,,,,,,1,,,80,71
598080,note_on,50,0,2,,,,,,,,,2,,,74,71
598080,note_on,0,0,2,,,,,,,,,2,,,71,71
598080,note_on,720,0,5,,,,,,,,,5,,,40,71
598200,note_on,140,0,4,,,,,,,,,4,,,44,71
598320,note_on,0,0,4,,,,,,,,,4,,,47,71
598320,note_off,240,0,5,,,,,,,,,5,,,40,0
598320,note_off,120,0,4,,,,,,,,,4,,,44,0
598390,note_off,0,0,2,,,,,,,,,2,,,74,0
598390,note_off,310,0,2,,,,,,,,,2,,,71,0
598390,note_off,310,0,1,,,,,,,,,1,,,80,0
598440,note_on,0,0,4,,,,,,,,,4,,,52,72
598440,note_off,120,0,4,,,,,,,,,4,,,47,0
598560,note_on,170,0,2,,,,,,,,,2,,,68,72
598560,note_on,170,0,1,,,,,,,,,1,,,74,72
598560,note_on,0,0,4,,,,,,,,,4,,,51,72
598560,note_off,120,0,4,,,,,,,,,4,,,52,0
598560,note_on,0,0,2,,,,,,,,,2,,,71,72
598680,note_off,120,0,4,,,,,,,,,4,,,51,0
598680,note_on,0,0,4,,,,,,,,,4,,,52,72
598800,note_off,120,0,4,,,,,,,,,4,,,52,0
598800,note_on,0,0,4,,,,,,,,,4,,,51,73
598870,note_off,310,0,2,,,,,,,,,2,,,71,0
598870,note_off,0,0,2,,,,,,,,,2,,,68,0
598870,note_off,310,0,1,,,,,,,,,1,,,74,0
598920,note_on,0,0,4,,,,,,,,,4,,,52,73
598920,note_off,120,0,4,,,,,,,,,4,,,51,0
599000,set_tempo,1880,1,0,,,,,,508474,,,,,,,
599030,note_off,110,0,4,,,,,,,,,4,,,52,0
599040,set_tempo,40,1,0,,,,,,500000,,,,,,,
599040,note_on,170,0,1,,,,,,,,,1,,,76,72
599040,note_on,720,0,5,,,,,,,,,5,,,49,72
599160,note_off,120,0,1,,,,,,,,,1,,,76,0
599160,note_on,130,0,4,,,,,,,,,4,,,52,73
599160,note_on,0,0,1,,,,,,,,,1,,,73,73
599280,note_on,0,0,4,,,,,,,,,4,,,57,74
599280,note_off,120,0,4,,,,,,,,,4,,,52,0
599280,note_off,240,0,5,,,,,,,,,5,,,49,0
599280,note_on,0,0,1,,,,,,,,,1,,,69,74
599280,note_off,120,0,1,,,,,,,,,1,,,73,0
599400,note_off,120,0,1,,,,,,,,,1,,,69,0
599400,note_on,0,0,1,,,,,,,,,1,,,64,75
599400,note_on,0,0,4,,,,,,,,,4,,,61,75
599400,note_off,120,0,4,,,,,,,,,4,,,57,0
599520,note_on,0,0,4,,,,,,,,,4,,,60,76
599520,note_off,120,0,4,,,,,,,,,4,,,61,0
599520,note_off,120,0,1,,,,,,,,,1,,,64,0
599520,note_on,0,0,1,,,,,,,,,1,,,63,76
599640,note_on,0,0,1,,,,,,,,,1,,,64,76
599640,note_off,120,0,1,,,,,,,,,1,,,63,0
599640,note_on,0,0,4,,,,,,,,,4,,,61,76
599640,note_off,120,0,4,,,,,,,,,4,,,60,0
599760,note_on,0,0,4,,,,,,,,,4,,,60,77
599760,note_off,120,0,4,,,,,,,,,4,,,61,0
599760,note_on,0,0,1,,,,,,,,,1,,,63,77
599760,note_off,120,0,1,,,,,,,,,1,,,64,0
599880,note_on,0,0,4,,,,,,,,,4,,,61,78
599880,note_off,120,0,4,,,,,,,,,4,,,60,0
599880,note_off,120,0,1,,,,,,,,,1,,,63,0
599880,note_on,0,0,1,,,,,,,,,1,,,64,78
599960,set_tempo,920,1,0,,,,,,508474,,,,,,,
599980,note_off,100,0,4,,,,,,,,,4,,,61,0
599985,note_off,105,0,1,,,,,,,,,1,,,64,0
600000,set_tempo,40,1,0,,,,,,500000,,,,,,,
600000,note_on,720,0,5,,,,,,,,,5,,,50,79
600000,note_on,15,0,1,,,,,,,,,1,,,78,79
600120,note_off,120,0,1,,,,,,,,,1,,,78,0
600120,note_on,140,0,4,,,,,,,,,4,,,54,80
600120,note_on,0,0,1,,,,,,,,,1,,,74,80
600240,note_off,240,0,5,,,,,,,,,5,,,50,0
600240,note_on,0,0,4,,,,,,,,,4,,,57,82
600240,note_off,120,0,4,,,,,,,,,4,,,54,0
600240,note_on,0,0,1,,,,,,,,,1,,,69,82
600240,note_off,120,0,1,,,,,,,,,1,,,74,0
600360,note_on,0,0,4,,,,,,,,,4,,,62,84
600360,note_on,0,0,1,,,,,,,,,1,,,66,84
600360,note_off,120,0,4,,,,,,,,,4,,,57,0
600360,note_off,120,0,1,,,,,,,,,1,,,69,0
600465,note_off,105,0,4,,,,,,,,,4,,,62,0
600465,note_off,105,0,1,,,,,,,,,1,,,66,0
600480,note_on,15,0,1,,,,,,,,,1,,,74,86
600480,note_on,240,0,5,,,,,,,,,5,,,40,86
600600,note_off,120,0,1,,,,,,,,,1,,,74,0
600600,note_on,135,0,4,,,,,,,,,4,,,44,88
600600,note_on,0,0,1,,,,,,,,,1,,,71,88
600720,note_off,120,0,4,,,,,,,,,4,,,44,0
600720,note_on,0,0,1,,,,,,,,,1,,,68,89
600720,note_off,120,0,1,,,,,,,,,1,,,71,0
600720,note_on,0,0,4,,,,,,,,,4,,,47,89
600720,note_off,240,0,5,,,,,,,,,5,,,40,0
600840,note_on,0,0,1,,,,,,,,,1,,,64,91
600840,note_off,120,0,1,,,,,,,,,1,,,68,0
600840,note_on,0,0,4,,,,,,,,,4,,,52,91
600840,note_off,120,0,4,,,,,,,,,4,,,47,0
600920,set_tempo,920,1,0,,,,,,508474,,,,,,,
600945,note_off,105,0,1,,,,,,,,,1,,,64,0
600945,note_off,105,0,4,,,,,,,,,4,,,52,0
600960,note_on,240,0,5,,,,,,,,,5,,,45,93
600960,note_on,15,0,1,,,,,,,,,1,,,69,93
600960,note_on,0,0,2,,,,,,,,,2,,,64,93
600960,note_on,2090,0,2,,,,,,,,,2,,,61,93
601270,note_off,310,0,5,,,,,,,,,5,,,45,0
601440,note_off,480,0,2,,,,,,,,,2,,,64,0
601440,note_off,480,0,1,,,,,,,,,1,,,69,0
601440,note_on,170,0,5,,,,,,,,,5,,,57,82
601440,note_off,0,0,2,,,,,,,,,2,,,61,0
601750,note_off,310,0,5,,,,,,,,,5,,,57,0
601920,control_change,170,0,5,,,,,,,64,0,5,,,,
601920,note_on,0,0,5,,,,,,,,,5,,,33,72
601920,control_change,480,0,2,,,,,,,64,0,2,,,,
601920,set_tempo,1000,1,0,,,,,,550458,,,,,,,
601920,control_change,480,0,1,,,,,,,64,0,1,,,,
601920,control_change,15360,0,3,,,,,,,64,0,3,,,,
601920,control_change,975,0,4,,,,,,,64,0,4,,,,
602305,note_off,385,0,5,,,,,,,,,5,,,33,0
602400,note_on,480,0,2,,,,,,,,,2,,,72,44
602400,note_on,95,0,5,,,,,,,,,5,,,69,44
602400,note_on,480,0,1,,,,,,,,,1,,,81,44
602400,set_tempo,480,1,0,,,,,,500000,,,,,,,
602520,note_off,120,0,5,,,,,,,,,5,,,69,0
602520,note_on,0,0,5,,,,,,,,,5,,,67,46
602640,note_off,120,0,5,,,,,,,,,5,,,67,0
602640,note_on,0,0,5,,,,,,,,,5,,,66,48
602760,note_on,0,0,5,,,,,,,,,5,,,64,49
602760,note_off,120,0,5,,,,,,,,,5,,,66,0
602785,note_off,385,0,2,,,,,,,,,2,,,72,0
602880,note_on,0,0,5,,,,,,,,,5,,,63,53
602880,note_off,120,0,5,,,,,,,,,5,,,64,0
602880,note_on,95,0,2,,,,,,,,,2,,,71,53
603000,note_off,120,0,5,,,,,,,,,5,,,63,0
603000,note_on,0,0,5,,,,,,,,,5,,,61,53
603120,note_off,120,0,5,,,,,,,,,5,,,61,0
603120,note_on,0,0,5,,,,,,,,,5,,,63,52
603170,note_off,770,0,1,,,,,,,,,1,,,81,0
603240,note_off,120,0,5,,,,,,,,,5,,,63,0
603240,note_on,0,0,5,,,,,,,,,5,,,59,51
603360,note_off,120,0,5,,,,,,,,,5,,,59,0
603360,note_on,190,0,1,,,,,,,,,1,,,79,51
603360,note_on,0,0,5,,,,,,,,,5,,,64,51
603480,note_off,120,0,5,,,,,,,,,5,,,64,0
603480,note_on,0,0,5,,,,,,,,,5,,,66,50
603600,note_off,120,0,5,,,,,,,,,5,,,66,0
603600,note_on,0,0,5,,,,,,,,,5,,,67,50
603650,note_off,770,0,2,,,,,,,,,2,,,71,0
603720,note_off,120,0,5,,,,,,,,,5,,,67,0
603720,note_on,0,0,5,,,,,,,,,5,,,64,49
603840,note_on,190,0,2,,,,,,,,,2,,,69,48
603840,note_off,120,0,5,,,,,,,,,5,,,64,0
603840,note_on,0,0,5,,,,,,,,,5,,,61,48
603960,note_off,120,0,5,,,,,,,,,5,,,61,0
603960,note_on,0,0,5,,,,,,,,,5,,,59,48
604080,note_off,120,0,5,,,,,,,,,5,,,59,0
604080,note_on,0,0,5,,,,,,,,,5,,,61,47
604130,note_off,770,0,1,,,,,,,,,1,,,79,0
604200,note_on,0,0,5,,,,,,,,,5,,,57,46
604200,note_off,120,0,5,,,,,,,,,5,,,61,0
604320,note_off,120,0,5,,,,,,,,,5,,,57,0
604320,note_on,190,0,1,,,,,,,,,1,,,78,46
604320,note_on,0,0,5,,,,,,,,,5,,,62,46
604440,note_off,120,0,5,,,,,,,,,5,,,62,0
604440,note_on,0,0,5,,,,,,,,,5,,,64,45
604560,note_on,0,0,5,,,,,,,,,5,,,66,45
604560,note_off,120,0,5,,,,,,,,,5,,,64,0
604610,note_off,770,0,2,,,,,,,,,2,,,69,0
604680,note_on,0,0,5,,,,,,,,,5,,,62,44
604680,note_off,120,0,5,,,,,,,,,5,,,66,0
604705,note_off,385,0,1,,,,,,,,,1,,,78,0
604760,set_tempo,2360,1,0,,,,,,508474,,,,,,,
604780,note_off,100,0,5,,,,,,,,,5,,,62,0
604800,set_tempo,40,1,0,,,,,,500000,,,,,,,
604800,note_on,20,0,5,,,,,,,,,5,,,71,81
604800,note_on,95,0,1,,,,,,,,,1,,,86,81
604920,note_off,120,0,5,,,,,,,,,5,,,71,0
604920,note_on,0,0,5,,,,,,,,,5,,,70,80
605040,note_on,0,0,5,,,,,,,,,5,,,71,80
605040,note_off,120,0,5,,,,,,,,,5,,,70,0
605160,note_off,120,0,5,,,,,,,,,5,,,71,0
605160,note_on,0,0,5,,,,,,,,,5,,,66,79
605160,note_off,360,0,1,,,,,,,,,1,,,86,0
605160,note_on,0,0,1,,,,,,,,,1,,,82,79
605255,note_off,95,0,5,,,,,,,,,5,,,66,0
605265,note_off,105,0,1,,,,,,,,,1,,,82,0
605280,note_on,25,0,5,,,,,,,,,5,,,67,78
605280,note_on,15,0,1,,,,,,,,,1,,,83,78
605400,note_on,0,0,5,,,,,,,,,5,,,66,77
605400,note_off,120,0,5,,,,,,,,,5,,,67,0
605520,note_on,0,0,5,,,,,,,,,5,,,67,77
605520,note_off,120,0,5,,,,,,,,,5,,,66,0
605640,note_off,120,0,5,,,,,,,,,5,,,67,0
605640,note_on,0,0,5,,,,,,,,,5,,,62,76
605640,note_off,360,0,1,,,,,,,,,1,,,83,0
605640,note_on,0,0,1,,,,,,,,,1,,,78,76
605740,note_off,100,0,1,,,,,,,,,1,,,78,0
605745,note_off,105,0,5,,,,,,,,,5,,,62,0
605760,note_on,20,0,1,,,,,,,,,1,,,79,75
605760,note_on,15,0,5,,,,,,,,,5,,,64,75
605880,note_on,0,0,5,,,,,,,,,5,,,62,74
605880,note_off,120,0,5,,,,,,,,,5,,,64,0
606000,note_on,0,0,5,,,,,,,,,5,,,64,74
606000,note_off,120,0,5,,,,,,,,,5,,,62,0
606120,note_on,0,0,1,,,,,,,,,1,,,74,73
606120,note_off,360,0,1,,,,,,,,,1,,,79,0
606120,note_off,120,0,5,,,,,,,,,5,,,64,0
606120,note_on,0,0,5,,,,,,,,,5,,,59,73
606220,note_off,100,0,5,,,,,,,,,5,,,59,0
606225,note_off,105,0,1,,,,,,,,,1,,,74,0
606240,note_on,20,0,5,,,,,,,,,5,,,61,72
606240,note_on,15,0,1,,,,,,,,,1,,,76,72
606360,note_off,120,0,5,,,,,,,,,5,,,61,0
606360,note_on,0,0,5,,,,,,,,,5,,,59,71
606480,note_off,120,0,5,,,,,,,,,5,,,59,0
606480,note_on,0,0,5,,,,,,,,,5,,,61,71
606600,note_off,360,0,1,,,,,,,,,1,,,76,0
606600,note_off,120,0,5,,,,,,,,,5,,,61,0
606600,note_on,0,0,5,,,,,,,,,5,,,56,70
606600,note_on,0,0,1,,,,,,,,,1,,,71,70
606680,set_tempo,1880,1,0,,,,,,508474,,,,,,,
606695,note_off,95,0,1,,,,,,,,,1,,,71,0
606705,note_off,105,0,5,,,,,,,,,5,,,56,0
606720,note_on,25,0,1,,,,,,,,,1,,,73,69
606720,set_tempo,40,1,0,,,,,,500000,,,,,,,
606720,note_on,15,0,5,,,,,,,,,5,,,57,69
606840,note_on,0,0,5,,,,,,,,,5,,,55,69
606840,note_off,120,0,5,,,,,,,,,5,,,57,0
606960,note_on,0,0,5,,,,,,,,,5,,,54,68
606960,note_off,120,0,5,,,,,,,,,5,,,55,0
607080,note_on,0,0,5,,,,,,,,,5,,,52,67
607080,note_off,120,0,5,,,,,,,,,5,,,54,0
607105,note_off,385,0,1,,,,,,,,,1,,,73,0
607200,note_on,95,0,1,,,,,,,,,1,,,79,70
607200,note_on,0,0,2,,,,,,,,,2,,,69,70
607200,note_on,2590,0,2,,,,,,,,,2,,,76,70
607200,note_on,120,0,5,,,,,,,,,5,,,50,66
607205,note_off,5,0,5,,,,,,,,,5,,,52,0
607320,note_off,115,0,5,,,,,,,,,5,,,50,0
607320,note_on,0,0,5,,,,,,,,,5,,,49,66
607440,note_off,120,0,5,,,,,,,,,5,,,49,0
607440,note_on,0,0,5,,,,,,,,,5,,,47,65
607560,note_off,120,0,5,,,,,,,,,5,,,47,0
607560,note_on,0,0,5,,,,,,,,,5,,,45,64
607660,note_off,100,0,5,,,,,,,,,5,,,45,0
607680,note_on,20,0,5,,,,,,,,,5,,,50,63
607800,note_off,120,0,5,,,,,,,,,5,,,50,0
607800,note_on,0,0,5,,,,,,,,,5,,,49,63
607920,note_on,0,0,5,,,,,,,,,5,,,50,62
607920,note_off,120,0,5,,,,,,,,,5,,,49,0
607970,note_off,770,0,1,,,,,,,,,1,,,79,0
607970,note_off,0,0,2,,,,,,,,,2,,,76,0
607970,note_off,770,0,2,,,,,,,,,2,,,69,0
608040,note_off,120,0,5,,,,,,,,,5,,,50,0
608040,note_on,0,0,5,,,,,,,,,5,,,52,61
608160,note_on,0,0,5,,,,,,,,,5,,,54,60
608160,note_off,120,0,5,,,,,,,,,5,,,52,0
608160,note_on,190,0,2,,,,,,,,,2,,,74,56
608160,note_on,190,0,1,,,,,,,,,1,,,78,56
608240,note_off,80,0,1,,,,,,,,,1,,,78,0
608240,note_on,0,0,1,,,,,,,,,1,,,79,57
608280,note_on,0,0,5,,,,,,,,,5,,,52,60
608280,note_off,120,0,5,,,,,,,,,5,,,54,0
608320,note_off,80,0,1,,,,,,,,,1,,,79,0
608320,note_on,0,0,1,,,,,,,,,1,,,78,58
608400,note_off,80,0,1,,,,,,,,,1,,,78,0
608400,note_on,0,0,5,,,,,,,,,5,,,54,59
608400,note_on,0,0,1,,,,,,,,,1,,,76,59
608400,note_off,120,0,5,,,,,,,,,5,,,52,0
608520,note_off,120,0,1,,,,,,,,,1,,,76,0
608520,note_on,0,0,1,,,,,,,,,1,,,78,60
608520,note_on,0,0,5,,,,,,,,,5,,,55,58
608520,note_off,120,0,5,,,,,,,,,5,,,54,0
608545,note_off,385,0,2,,,,,,,,,2,,,74,0
608600,set_tempo,1880,1,0,,,,,,508474,,,,,,,
608620,note_off,100,0,5,,,,,,,,,5,,,55,0
608620,note_off,100,0,1,,,,,,,,,1,,,78,0
608640,note_on,95,0,2,,,,,,,,,2,,,73,61
608640,note_on,20,0,5,,,,,,,,,5,,,57,59
608640,set_tempo,40,1,0,,,,,,500000,,,,,,,
608640,note_on,20,0,1,,,,,,,,,1,,,76,61
608760,note_off,120,0,5,,,,,,,,,5,,,57,0
608760,note_on,0,0,5,,,,,,,,,5,,,61,61
608880,note_off,120,0,5,,,,,,,,,5,,,61,0
608880,note_on,0,0,5,,,,,,,,,5,,,64,62
609000,note_on,0,0,5,,,,,,,,,5,,,69,64
609000,note_off,120,0,5,,,,,,,,,5,,,64,0
609025,note_off,385,0,1,,,,,,,,,1,,,76,0
609025,note_off,385,0,2,,,,,,,,,2,,,73,0
609120,note_off,120,0,5,,,,,,,,,5,,,69,0
609120,note_on,0,0,5,,,,,,,,,5,,,68,66
609240,note_on,0,0,5,,,,,,,,,5,,,69,67
609240,note_off,120,0,5,,,,,,,,,5,,,68,0
609360,note_on,0,0,5,,,,,,,,,5,,,68,69
609360,note_off,120,0,5,,,,,,,,,5,,,69,0
609480,note_on,0,0,5,,,,,,,,,5,,,69,70
609480,note_off,120,0,5,,,,,,,,,5,,,68,0
609580,note_off,100,0,5,,,,,,,,,5,,,69,0
609600,note_on,575,0,1,,,,,,,,,1,,,69,72
609600,note_on,20,0,5,,,,,,,,,5,,,57,72
609720,note_on,0,0,1,,,,,,,,,1,,,73,75
609720,note_off,120,0,1,,,,,,,,,1,,,69,0
609840,note_off,120,0,1,,,,,,,,,1,,,73,0
609840,note_on,0,0,1,,,,,,,,,1,,,76,77
609960,note_on,0,0,1,,,,,,,,,1,,,81,80
609960,note_off,120,0,1,,,,,,,,,1,,,76,0
609985,note_off,385,0,5,,,,,,,,,5,,,57,0
610080,note_on,0,0,1,,,,,,,,,1,,,80,83
610080,note_off,120,0,1,,,,,,,,,1,,,81,0
610200,note_off,120,0,1,,,,,,,,,1,,,80,0
610200,note_on,0,0,1,,,,,,,,,1,,,81,86
610320,note_on,0,0,1,,,,,,,,,1,,,80,90
610320,note_off,120,0,1,,,,,,,,,1,,,81,0
610440,note_on,0,0,1,,,,,,,,,1,,,81,94
610440,note_off,120,0,1,,,,,,,,,1,,,80,0
610520,set_tempo,1880,1,0,,,,,,508474,,,,,,,
610540,note_off,100,0,1,,,,,,,,,1,,,81,0
610560,note_on,20,0,1,,,,,,,,,1,,,69,98
610945,note_off,385,0,1,,,,,,,,,1,,,69,0
611040,note_on,1055,0,5,,,,,,,,,5,,,57,82
611425,note_off,385,0,5,,,,,,,,,5,,,57,0
611520,note_on,95,0,5,,,,,,,,,5,,,33,74
611520,set_tempo,1000,1,0,,,,,,550458,,,,,,,
611905,note_off,385,0,5,,,,,,,,,5,,,33,0
612000,note_on,1055,0,1,,,,,,,,,1,,,69,66
612000,set_tempo,480,1,0,,,,,,500000,,,,,,,
612385,note_off,385,0,1,,,,,,,,,1,,,69,0
612410,set_tempo,410,1,0,,,,,,508474,,,,,,,
612480,set_tempo,70,1,0,,,,,,500000,,,,,,,
612480,note_on,575,0,5,,,,,,,,,5,,,50,63
612480,note_on,95,0,1,,,,,,,,,1,,,66,61
612530,note_off,50,0,1,,,,,,,,,1,,,66,0
612540,note_on,10,0,1,,,,,,,,,1,,,69,62
612590,note_off,50,0,1,,,,,,,,,1,,,69,0
612600,note_on,10,0,1,,,,,,,,,1,,,74,64
612600,note_on,10680,0,4,,,,,,,,,4,,,54,63
612720,note_off,240,0,5,,,,,,,,,5,,,50,0
612720,note_on,0,0,4,,,,,,,,,4,,,57,64
612720,note_off,120,0,4,,,,,,,,,4,,,54,0
612840,note_on,0,0,4,,,,,,,,,4,,,62,64
612840,note_off,120,0,4,,,,,,,,,4,,,57,0
612960,note_off,120,0,4,,,,,,,,,4,,,62,0
612960,note_on,0,0,4,,,,,,,,,4,,,61,64
613080,note_on,0,0,4,,,,,,,,,4,,,62,64
613080,note_off,120,0,4,,,,,,,,,4,,,61,0
613200,note_off,120,0,4,,,,,,,,,4,,,62,0
613200,note_on,0,0,4,,,,,,,,,4,,,61,65
613320,note_on,0,0,4,,,,,,,,,4,,,62,65
613320,note_off,120,0,4,,,,,,,,,4,,,61,0
613415,note_off,815,0,1,,,,,,,,,1,,,74,0
613425,note_off,105,0,4,,,,,,,,,4,,,62,0
613440,note_on,4415,0,2,,,,,,,,,2,,,74,70
613440,note_on,720,0,5,,,,,,,,,5,,,47,65
613440,note_on,25,0,1,,,,,,,,,1,,,78,70
613560,note_on,135,0,4,,,,,,,,,4,,,50,65
613680,note_off,240,0,5,,,,,,,,,5,,,47,0
613680,note_off,120,0,4,,,,,,,,,4,,,50,0
613680,note_on,0,0,4,,,,,,,,,4,,,54,66
613750,note_off,310,0,2,,,,,,,,,2,,,74,0
613750,note_off,310,0,1,,,,,,,,,1,,,78,0
613800,note_on,0,0,4,,,,,,,,,4,,,59,66
613800,note_off,120,0,4,,,,,,,,,4,,,54,0
613920,note_on,170,0,1,,,,,,,,,1,,,74,66
613920,note_off,120,0,4,,,,,,,,,4,,,59,0
613920,note_on,0,0,4,,,,,,,,,4,,,58,66
613920,note_on,170,0,2,,,,,,,,,2,,,66,66
614040,note_on,0,0,4,,,,,,,,,4,,,59,66
614040,note_off,120,0,4,,,,,,,,,4,,,58,0
614160,note_off,120,0,4,,,,,,,,,4,,,59,0
614160,note_on,0,0,4,,,,,,,,,4,,,58,67
614230,note_off,310,0,1,,,,,,,,,1,,,74,0
614230,note_off,310,0,2,,,,,,,,,2,,,66,0
614280,note_off,120,0,4,,,,,,,,,4,,,58,0
614280,note_on,0,0,4,,,,,,,,,4,,,59,67
614360,set_tempo,1880,1,0,,,,,,508474,,,,,,,
614375,note_off,95,0,4,,,,,,,,,4,,,59,0
614400,note_on,720,0,5,,,,,,,,,5,,,43,67
614400,note_on,170,0,1,,,,,,,,,1,,,79,67
614400,set_tempo,40,1,0,,,,,,500000,,,,,,,
614400,note_on,170,0,2,,,,,,,,,2,,,71,67
614520,note_on,145,0,4,,,,,,,,,4,,,47,67
614640,note_off,240,0,5,,,,,,,,,5,,,43,0
614640,note_on,0,0,4,,,,,,,,,4,,,52,68
614640,note_off,120,0,4,,,,,,,,,4,,,47,0
614760,note_off,120,0,4,,,,,,,,,4,,,52,0
614760,note_on,0,0,4,,,,,,,,,4,,,55,68
614880,note_off,120,0,4,,,,,,,,,4,,,55,0
614880,note_on,0,0,4,,,,,,,,,4,,,54,68
615000,note_off,120,0,4,,,,,,,,,4,,,54,0
615000,note_on,0,0,4,,,,,,,,,4,,,55,68
615120,note_on,0,0,1,,,,,,,,,1,,,76,69
615120,note_off,720,0,1,,,,,,,,,1,,,79,0
615120,note_off,120,0,4,,,,,,,,,4,,,55,0
615120,note_on,0,0,4,,,,,,,,,4,,,54,69
615120,note_off,720,0,2,,,,,,,,,2,,,71,0
615240,note_off,120,0,4,,,,,,,,,4,,,54,0
615240,note_on,0,0,4,,,,,,,,,4,,,55,69
615310,note_off,190,0,1,,,,,,,,,1,,,76,0
615340,note_off,100,0,4,,,,,,,,,4,,,55,0
615360,note_on,50,0,1,,,,,,,,,1,,,73,69
615360,note_on,720,0,5,,,,,,,,,5,,,45,69
615480,note_on,140,0,4,,,,,,,,,4,,,49,69
615600,note_on,0,0,4,,,,,,,,,4,,,52,70
615600,note_off,120,0,4,,,,,,,,,4,,,49,0
615600,note_off,240,0,5,,,,,,,,,5,,,45,0
615670,note_off,310,0,1,,,,,,,,,1,,,73,0
615720,note_on,0,0,4,,,,,,,,,4,,,57,70
615720,note_off,120,0,4,,,,,,,,,4,,,52,0
615840,note_on,0,0,4,,,,,,,,,4,,,56,70
615840,note_off,120,0,4,,,,,,,,,4,,,57,0
615840,note_on,170,0,1,,,,,,,,,1,,,69,70
615960,note_on,0,0,4,,,,,,,,,4,,,57,70
615960,note_off,120,0,4,,,,,,,,,4,,,56,0
616080,note_off,120,0,4,,,,,,,,,4,,,57,0
616080,note_on,0,0,4,,,,,,,,,4,,,56,71
616150,note_off,310,0,1,,,,,,,,,1,,,69,0
616200,note_off,120,0,4,,,,,,,,,4,,,56,0
616200,note_on,0,0,4,,,,,,,,,4,,,57,71
616280,set_tempo,1880,1,0,,,,,,508474,,,,,,,
616305,note_off,105,0,4,,,,,,,,,4,,,57,0
616320,note_on,170,0,1,,,,,,,,,1,,,81,70
616320,note_on,720,0,5,,,,,,,,,5,,,54,70
616320,set_tempo,40,1,0,,,,,,500000,,,,,,,
616440,note_off,120,0,1,,,,,,,,,1,,,81,0
616440,note_on,135,0,4,,,,,,,,,4,,,57,71
616440,note_on,0,0,1,,,,,,,,,1,,,78,71
616560,note_off,240,0,5,,,,,,,,,5,,,54,0
616560,note_on,0,0,1,,,,,,,,,1,,,74,72
616560,note_off,120,0,4,,,,,,,,,4,,,57,0
616560,note_on,0,0,4,,,,,,,,,4,,,62,72
616560,note_off,120,0,1,,,,,,,,,1,,,78,0
616680,note_off,120,0,1,,,,,,,,,1,,,74,0
616680,note_on,0,0,1,,,,,,,,,1,,,69,74
616680,note_on,0,0,4,,,,,,,,,4,,,66,74
616680,note_off,120,0,4,,,,,,,,,4,,,62,0
616800,note_off,120,0,1,,,,,,,,,1,,,69,0
616800,note_on,0,0,1,,,,,,,,,1,,,68,75
616800,note_off,120,0,4,,,,,,,,,4,,,66,0
616800,note_on,0,0,4,,,,,,,,,4,,,65,75
616920,note_off,120,0,1,,,,,,,,,1,,,68,0
616920,note_on,0,0,1,,,,,,,,,1,,,69,76
616920,note_on,0,0,4,,,,,,,,,4,,,66,76
616920,note_off,120,0,4,,,,,,,,,4,,,65,0
617040,note_on,0,0,4,,,,,,,,,4,,,65,77
617040,note_off,120,0,4,,,,,,,,,4,,,66,0
617040,note_off,120,0,1,,,,,,,,,1,,,69,0
617040,note_on,0,0,1,,,,,,,,,1,,,68,77
617160,note_on,0,0,1,,,,,,,,,1,,,69,78
617160,note_off,120,0,4,,,,,,,,,4,,,65,0
617160,note_on,0,0,4,,,,,,,,,4,,,66,78
617160,note_off,120,0,1,,,,,,,,,1,,,68,0
617240,set_tempo,920,1,0,,,,,,508474,,,,,,,
617265,note_off,105,0,4,,,,,,,,,4,,,66,0
617265,note_off,105,0,1,,,,,,,,,1,,,69,0
617280,set_tempo,40,1,0,,,,,,500000,,,,,,,
617280,note_on,720,0,5,,,,,,,,,5,,,55,80
617280,note_on,15,0,1,,,,,,,,,1,,,83,80
617400,note_off,120,0,1,,,,,,,,,1,,,83,0
617400,note_on,0,0,1,,,,,,,,,1,,,79,82
617400,note_on,135,0,4,,,,,,,,,4,,,59,82
617520,note_off,240,0,5,,,,,,,,,5,,,55,0
617520,note_on,0,0,1,,,,,,,,,1,,,74,85
617520,note_off,120,0,1,,,,,,,,,1,,,79,0
617520,note_on,0,0,4,,,,,,,,,4,,,62,85
617520,note_off,120,0,4,,,,,,,,,4,,,59,0
617640,note_off,120,0,1,,,,,,,,,1,,,74,0
617640,note_off,120,0,4,,,,,,,,,4,,,62,0
617640,note_on,0,0,4,,,,,,,,,4,,,67,87
617640,note_on,0,0,1,,,,,,,,,1,,,71,87
617740,note_off,100,0,4,,,,,,,,,4,,,67,0
617740,note_off,100,0,1,,,,,,,,,1,,,71,0
617760,note_on,20,0,1,,,,,,,,,1,,,79,89
617760,note_on,240,0,5,,,,,,,,,5,,,45,89
617880,note_off,120,0,1,,,,,,,,,1,,,79,0
617880,note_on,0,0,1,,,,,,,,,1,,,76,92
617880,note_on,140,0,4,,,,,,,,,4,,,49,92
618000,note_on,0,0,1,,,,,,,,,1,,,73,95
618000,note_off,120,0,1,,,,,,,,,1,,,76,0
618000,note_on,0,0,4,,,,,,,,,4,,,52,95
618000,note_off,240,0,5,,,,,,,,,5,,,45,0
618000,note_off,120,0,4,,,,,,,,,4,,,49,0
618120,note_off,120,0,4,,,,,,,,,4,,,52,0
618120,note_off,120,0,1,,,,,,,,,1,,,73,0
618120,note_on,0,0,1,,,,,,,,,1,,,69,99
618120,note_on,0,0,4,,,,,,,,,4,,,57,99
618200,set_tempo,920,1,0,,,,,,508474,,,,,,,
618220,note_off,100,0,1,,,,,,,,,1,,,69,0
618240,note_on,20,0,1,,,,,,,,,1,,,74,102
618240,note_off,120,0,4,,,,,,,,,4,,,57,0
618240,note_on,240,0,5,,,,,,,,,5,,,50,102
618240,note_on,3120,0,2,,,,,,,,,2,,,69,102
618240,note_on,0,0,2,,,,,,,,,2,,,66,102
618550,note_off,310,0,5,,,,,,,,,5,,,50,0
618625,note_off,385,0,1,,,,,,,,,1,,,74,0
618625,note_off,385,0,2,,,,,,,,,2,,,66,0
618625,note_off,0,0,2,,,,,,,,,2,,,69,0
618680,set_tempo,480,1,0,,,,,,550458,,,,,,,
618720,note_on,170,0,5,,,,,,,,,5,,,62,81
618960,set_tempo,280,1,0,,,,,,582524,,,,,,,
619008,note_off,288,0,5,,,,,,,,,5,,,62,0
619200,control_change,17280,0,3,,,,,,,64,0,3,,,,
619200,marker,0,1,0,,,,,,,,,,,,,
619200,control_change,575,0,2,,,,,,,64,0,2,,,,
619200,control_change,960,0,4,,,,,,,64,0,4,,,,
619200,set_tempo,240,1,0,,,,,,487804,,,,,,,
619200,note_on,0,0,1,,,,,,,,,1,,,81,44
619200,control_change,575,0,1,,,,,,,64,0,1,,,,
619200,control_change,192,0,5,,,,,,,64,0,5,,,,
619355,note_off,155,0,1,,,,,,,,,1,,,81,0
619440,note_on,85,0,1,,,,,,,,,1,,,81,45
619595,note_off,155,0,1,,,,,,,,,1,,,81,0
619680,note_on,85,0,1,,,,,,,,,1,,,81,47
619835,note_off,155,0,1,,,,,,,,,1,,,81,0
619920,note_on,85,0,1,,,,,,,,,1,,,81,49
620075,note_off,155,0,1,,,,,,,,,1,,,81,0
620120,set_tempo,920,1,0,,,,,,495867,,,,,,,
620160,note_on,960,0,5,,,,,,,,,5,,,66,45
620160,note_on,0,0,5,,,,,,,,,5,,,62,45
620160,note_on,85,0,1,,,,,,,,,1,,,81,51
620160,set_tempo,40,1,0,,,,,,487804,,,,,,,
620400,note_off,240,0,5,,,,,,,,,5,,,62,0
620400,note_off,0,0,5,,,,,,,,,5,,,66,0
620400,note_on,0,0,5,,,,,,,,,5,,,67,46
620400,note_on,0,0,5,,,,,,,,,5,,,64,46
620640,note_off,480,0,1,,,,,,,,,1,,,81,0
620640,note_on,0,0,1,,,,,,,,,1,,,74,46
620640,note_off,0,0,5,,,,,,,,,5,,,67,0
620640,note_on,0,0,5,,,,,,,,,5,,,66,46
620640,note_on,0,0,5,,,,,,,,,5,,,69,46
620640,note_off,240,0,5,,,,,,,,,5,,,64,0
620880,note_off,240,0,1,,,,,,,,,1,,,74,0
620880,note_on,0,0,5,,,,,,,,,5,,,66,46
620880,note_off,240,0,5,,,,,,,,,5,,,69,0
620880,note_off,0,0,5,,,,,,,,,5,,,66,0
620880,note_on,0,0,5,,,,,,,,,5,,,62,46
621080,note_off,200,0,5,,,,,,,,,5,,,62,0
621085,note_off,5,0,5,,,,,,,,,5,,,66,0
621120,note_on,0,0,5,,,,,,,,,5,,,62,47
621120,note_on,35,0,5,,,,,,,,,5,,,59,47
621120,note_on,240,0,1,,,,,,,,,1,,,86,47
621275,note_off,155,0,1,,,,,,,,,1,,,86,0
621360,note_on,0,0,5,,,,,,,,,5,,,64,47
621360,note_off,0,0,5,,,,,,,,,5,,,59,0
621360,note_off,240,0,5,,,,,,,,,5,,,62,0
621360,note_on,0,0,5,,,,,,,,,5,,,61,47
621360,note_on,85,0,1,,,,,,,,,1,,,86,47
621515,note_off,155,0,1,,,,,,,,,1,,,86,0
621600,note_on,85,0,1,,,,,,,,,1,,,86,49
621600,note_off,240,0,5,,,,,,,,,5,,,64,0
621600,note_off,0,0,5,,,,,,,,,5,,,61,0
621600,note_on,0,0,5,,,,,,,,,5,,,66,47
621600,note_on,0,0,5,,,,,,,,,5,,,62,47
621755,note_off,155,0,1,,,,,,,,,1,,,86,0
621840,note_on,85,0,1,,,,,,,,,1,,,86,50
621840,note_off,240,0,5,,,,,,,,,5,,,62,0
621840,note_off,0,0,5,,,,,,,,,5,,,66,0
621840,note_on,0,0,5,,,,,,,,,5,,,59,48
621840,note_on,0,0,5,,,,,,,,,5,,,62,48
621995,note_off,155,0,1,,,,,,,,,1,,,86,0
622040,set_tempo,1880,1,0,,,,,,495867,,,,,,,
622055,note_off,0,0,5,,,,,,,,,5,,,62,0
622055,note_off,215,0,5,,,,,,,,,5,,,59,0
622080,note_on,0,0,5,,,,,,,,,5,,,55,48
622080,set_tempo,40,1,0,,,,,,487804,,,,,,,
622080,note_on,85,0,1,,,,,,,,,1,,,86,52
622080,note_on,25,0,5,,,,,,,,,5,,,59,48
622320,note_on,0,0,5,,,,,,,,,5,,,57,48
622320,note_on,0,0,5,,,,,,,,,5,,,61,48
622320,note_off,0,0,5,,,,,,,,,5,,,59,0
622320,note_off,240,0,5,,,,,,,,,5,,,55,0
622560,note_off,480,0,1,,,,,,,,,1,,,86,0
622560,note_on,0,0,1,,,,,,,,,1,,,76,49
622560,note_on,0,0,5,,,,,,,,,5,,,62,49
622560,note_on,0,0,5,,,,,,,,,5,,,59,49
622560,note_off,0,0,5,,,,,,,,,5,,,61,0
622560,note_off,240,0,5,,,,,,,,,5,,,57,0
622800,note_off,0,0,5,,,,,,,,,5,,,59,0
622800,note_on,0,0,5,,,,,,,,,5,,,59,49
622800,note_on,0,0,5,,,,,,,,,5,,,55,49
622800,note_off,240,0,5,,,,,,,,,5,,,62,0
622800,note_off,240,0,1,,,,,,,,,1,,,76,0
623005,note_off,205,0,5,,,,,,,,,5,,,59,0
623010,note_off,5,0,5,,,,,,,,,5,,,55,0
623040,note_on,30,0,5,,,,,,,,,5,,,57,49
623040,note_on,0,0,5,,,,,,,,,5,,,61,49
623040,note_on,240,0,1,,,,,,,,,1,,,79,48
623195,note_off,155,0,1,,,,,,,,,1,,,79,0
623280,note_on,85,0,1,,,,,,,,,1,,,79,50
623280,note_on,0,0,5,,,,,,,,,5,,,62,50
623280,note_on,0,0,5,,,,,,,,,5,,,59,50
623280,note_off,240,0,5,,,,,,,,,5,,,61,0
623280,note_off,0,0,5,,,,,,,,,5,,,57,0
623435,note_off,155,0,1,,,,,,,,,1,,,79,0
623520,note_on,85,0,1,,,,,,,,,1,,,79,51
623520,note_off,0,0,5,,,,,,,,,5,,,59,0
623520,note_on,0,0,5,,,,,,,,,5,,,64,50
623520,note_on,0,0,5,,,,,,,,,5,,,61,50
623520,note_off,240,0,5,,,,,,,,,5,,,62,0
623675,note_off,155,0,1,,,,,,,,,1,,,79,0
623760,note_on,0,0,5,,,,,,,,,5,,,57,50
623760,note_on,0,0,5,,,,,,,,,5,,,61,50
623760,note_off,0,0,5,,,,,,,,,5,,,61,0
623760,note_off,240,0,5,,,,,,,,,5,,,64,0
623760,note_on,85,0,1,,,,,,,,,1,,,79,53
623915,note_off,155,0,1,,,,,,,,,1,,,79,0
623960,set_tempo,1880,1,0,,,,,,495867,,,,,,,
623980,note_off,0,0,5,,,,,,,,,5,,,61,0
623980,note_off,220,0,5,,,,,,,,,5,,,57,0
624000,note_on,85,0,1,,,,,,,,,1,,,78,54
624000,set_tempo,40,1,0,,,,,,487804,,,,,,,
624000,note_on,20,0,5,,,,,,,,,5,,,62,50
624360,note_off,360,0,1,,,,,,,,,1,,,78,0
624360,note_on,0,0,1,,,,,,,,,1,,,74,53
624480,note_on,480,0,5,,,,,,,,,5,,,60,54
624480,note_off,120,0,1,,,,,,,,,1,,,74,0
624480,note_on,0,0,1,,,,,,,,,1,,,81,54
624840,note_off,360,0,1,,,,,,,,,1,,,81,0
624840,note_on,0,0,1,,,,,,,,,1,,,78,57
624885,note_off,405,0,5,,,,,,,,,5,,,60,0
624960,note_off,120,0,1,,,,,,,,,1,,,78,0
624960,note_on,0,0,1,,,,,,,,,1,,,79,58
624960,note_on,75,0,5,,,,,,,,,5,,,59,58
625320,note_off,360,0,1,,,,,,,,,1,,,79,0
625320,note_on,0,0,1,,,,,,,,,1,,,74,60
625340,note_off,380,0,5,,,,,,,,,5,,,62,0
625345,note_off,5,0,5,,,,,,,,,5,,,59,0
625440,note_on,6240,0,2,,,,,,,,,2,,,79,61
625440,note_on,95,0,5,,,,,,,,,5,,,55,61
625440,note_on,0,0,1,,,,,,,,,1,,,83,61
625440,note_off,120,0,1,,,,,,,,,1,,,74,0
625440,note_on,6240,0,4,,,,,,,,,4,,,59,61
625800,note_on,0,0,2,,,,,,,,,2,,,76,64
625800,note_on,0,0,1,,,,,,,,,1,,,79,64
625800,note_off,360,0,1,,,,,,,,,1,,,83,0
625800,note_off,360,0,2,,,,,,,,,2,,,79,0
625825,note_off,385,0,4,,,,,,,,,4,,,59,0
625825,note_off,385,0,5,,,,,,,,,5,,,55,0
625880,set_tempo,1880,1,0,,,,,,495867,,,,,,,
625900,note_off,100,0,1,,,,,,,,,1,,,79,0
625905,note_off,105,0,2,,,,,,,,,2,,,76,0
625920,note_on,95,0,5,,,,,,,,,5,,,57,65
625920,note_on,20,0,1,,,,,,,,,1,,,78,65
625920,note_on,15,0,2,,,,,,,,,2,,,74,65
626400,note_off,480,0,2,,,,,,,,,2,,,74,0
626400,note_off,480,0,1,,,,,,,,,1,,,78,0
626400,note_on,0,0,1,,,,,,,,,1,,,76,50
626400,note_on,0,0,2,,,,,,,,,2,,,73,50
626640,set_tempo,760,1,0,,,,,,517241,,,,,,,
626690,note_off,290,0,2,,,,,,,,,2,,,73,0
626695,note_off,295,0,1,,,,,,,,,1,,,76,0
626710,note_off,790,0,5,,,,,,,,,5,,,57,0
626880,note_on,185,0,1,,,,,,,,,1,,,81,46
626880,set_tempo,240,1,0,,,,,,487804,,,,,,,
627035,note_off,155,0,1,,,,,,,,,1,,,81,0
627120,note_on,85,0,1,,,,,,,,,1,,,81,47
627275,note_off,155,0,1,,,,,,,,,1,,,81,0
627360,note_on,85,0,1,,,,,,,,,1,,,81,49
627515,note_off,155,0,1,,,,,,,,,1,,,81,0
627600,note_on,85,0,1,,,,,,,,,1,,,81,52
627755,note_off,155,0,1,,,,,,,,,1,,,81,0
627800,set_tempo,920,1,0,,,,,,495867,,,,,,,
627840,note_on,85,0,1,,,,,,,,,1,,,81,54
627840,set_tempo,40,1,0,,,,,,487804,,,,,,,
627840,note_on,0,0,5,,,,,,,,,5,,,62,49
627840,note_on,1130,0,5,,,,,,,,,5,,,66,49
628080,note_on,0,0,5,,,,,,,,,5,,,64,49
628080,note_on,0,0,5,,,,,,,,,5,,,67,49
628080,note_off,0,0,5,,,,,,,,,5,,,66,0
628080,note_off,240,0,5,,,,,,,,,5,,,62,0
628320,note_off,0,0,5,,,,,,,,,5,,,67,0
628320,note_off,240,0,5,,,,,,,,,5,,,64,0
628320,note_on,480,0,1,,,,,,,,,1,,,74,50
628320,note_on,0,0,5,,,,,,,,,5,,,66,50
628320,note_on,0,0,5,,,,,,,,,5,,,69,50
628325,note_off,5,0,1,,,,,,,,,1,,,81,0
628560,note_on,0,0,5,,,,,,,,,5,,,64,51
628560,note_off,240,0,5,,,,,,,,,5,,,69,0
628560,note_off,0,0,5,,,,,,,,,5,,,66,0
628560,note_off,235,0,1,,,,,,,,,1,,,74,0
628560,note_on,0,0,5,,,,,,,,,5,,,67,51
628770,note_off,210,0,5,,,,,,,,,5,,,64,0
628770,note_off,0,0,5,,,,,,,,,5,,,67,0
628800,note_on,240,0,1,,,,,,,,,1,,,86,52
628800,note_on,0,0,5,,,,,,,,,5,,,62,52
628800,note_on,30,0,5,,,,,,,,,5,,,66,52
628955,note_off,155,0,1,,,,,,,,,1,,,86,0
629040,note_on,0,0,5,,,,,,,,,5,,,61,54
629040,note_off,0,0,5,,,,,,,,,5,,,66,0
629040,note_off,240,0,5,,,,,,,,,5,,,62,0
629040,note_on,85,0,1,,,,,,,,,1,,,86,55
629040,note_on,0,0,5,,,,,,,,,5,,,64,54
629195,note_off,155,0,1,,,,,,,,,1,,,86,0
629280,note_on,0,0,5,,,,,,,,,5,,,59,55
629280,note_off,0,0,5,,,,,,,,,5,,,61,0
629280,note_on,0,0,5,,,,,,,,,5,,,62,55
629280,note_on,85,0,1,,,,,,,,,1,,,86,57
629280,note_off,240,0,5,,,,,,,,,5,,,64,0
629435,note_off,155,0,1,,,,,,,,,1,,,86,0
629520,note_on,0,0,5,,,,,,,,,5,,,57,56
629520,note_on,0,0,5,,,,,,,,,5,,,61,56
629520,note_off,0,0,5,,,,,,,,,5,,,59,0
629520,note_off,240,0,5,,,,,,,,,5,,,62,0
629520,note_on,85,0,1,,,,,,,,,1,,,86,60
629675,note_off,155,0,1,,,,,,,,,1,,,86,0
629720,set_tempo,1880,1,0,,,,,,495867,,,,,,,
629730,note_off,210,0,5,,,,,,,,,5,,,61,0
629735,note_off,5,0,5,,,,,,,,,5,,,57,0
629760,note_on,0,0,5,,,,,,,,,5,,,59,57
629760,note_on,25,0,5,,,,,,,,,5,,,56,57
629760,set_tempo,40,1,0,,,,,,487804,,,,,,,
629760,note_on,85,0,1,,,,,,,,,1,,,86,62
630000,note_on,0,0,5,,,,,,,,,5,,,54,58
630000,note_on,0,0,5,,,,,,,,,5,,,57,58
630000,note_off,240,0,5,,,,,,,,,5,,,59,0
630000,note_off,0,0,5,,,,,,,,,5,,,56,0
630240,note_on,0,0,5,,,,,,,,,5,,,56,60
630240,note_on,0,0,5,,,,,,,,,5,,,52,60
630240,note_off,0,0,5,,,,,,,,,5,,,54,0
630240,note_on,0,0,1,,,,,,,,,1,,,80,60
630240,note_off,480,0,1,,,,,,,,,1,,,86,0
630240,note_off,240,0,5,,,,,,,,,5,,,57,0
630480,note_off,240,0,1,,,,,,,,,1,,,80,0
630480,note_off,0,0,5,,,,,,,,,5,,,56,0
630480,note_on,0,0,5,,,,,,,,,5,,,57,61
630480,note_off,240,0,5,,,,,,,,,5,,,52,0
630480,note_on,0,0,5,,,,,,,,,5,,,54,61
630685,note_off,205,0,5,,,,,,,,,5,,,54,0
630690,note_off,5,0,5,,,,,,,,,5,,,57,0
630720,note_on,30,0,5,,,,,,,,,5,,,59,62
630720,note_on,0,0,5,,,,,,,,,5,,,56,62
630720,note_on,240,0,1,,,,,,,,,1,,,83,68
630960,note_off,0,0,5,,,,,,,,,5,,,59,0
630960,note_on,0,0,5,,,,,,,,,5,,,61,63
630960,note_on,0,0,5,,,,,,,,,5,,,57,63
630960,note_off,240,0,5,,,,,,,,,5,,,56,0
631200,note_on,0,0,1,,,,,,,,,1,,,76,64
631200,note_off,480,0,1,,,,,,,,,1,,,83,0
631200,note_off,0,0,5,,,,,,,,,5,,,57,0
631200,note_on,0,0,5,,,,,,,,,5,,,59,64
631200,note_off,240,0,5,,,,,,,,,5,,,61,0
631200,note_on,0,0,5,,,,,,,,,5,,,62,64
631440,note_off,0,0,5,,,,,,,,,5,,,62,0
631440,note_off,240,0,5,,,,,,,,,5,,,59,0
631440,note_on,0,0,5,,,,,,,,,5,,,61,66
631440,note_off,240,0,1,,,,,,,,,1,,,76,0
631440,note_on,0,0,5,,,,,,,,,5,,,57,66
631640,set_tempo,1880,1,0,,,,,,495867,,,,,,,
631655,note_off,215,0,5,,,,,,,,,5,,,61,0
631660,note_off,5,0,5,,,,,,,,,5,,,57,0
631680,note_on,20,0,5,,,,,,,,,5,,,57,68
631680,note_on,240,0,1,,,,,,,,,1,,,76,68
631680,set_tempo,40,1,0,,,,,,487804,,,,,,,
631680,note_on,5855,0,4,,,,,,,,,4,,,61,68
631990,note_off,310,0,5,,,,,,,,,5,,,57,0
631990,note_off,310,0,4,,,,,,,,,4,,,61,0
632040,note_on,0,0,1,,,,,,,,,1,,,81,71
632040,note_off,360,0,1,,,,,,,,,1,,,76,0
632140,note_off,100,0,1,,,,,,,,,1,,,81,0
632160,note_on,170,0,5,,,,,,,,,5,,,50,71
632160,note_on,20,0,1,,,,,,,,,1,,,78,71
632160,note_on,170,0,4,,,,,,,,,4,,,59,71
632470,note_off,310,0,4,,,,,,,,,4,,,59,0
632470,note_off,310,0,5,,,,,,,,,5,,,50,0
632520,note_off,360,0,1,,,,,,,,,1,,,78,0
632520,note_on,0,0,1,,,,,,,,,1,,,74,74
632625,note_off,105,0,1,,,,,,,,,1,,,74,0
632640,note_on,15,0,1,,,,,,,,,1,,,73,74
632640,note_on,170,0,4,,,,,,,,,4,,,57,74
632640,note_on,170,0,5,,,,,,,,,5,,,52,74
632950,note_off,310,0,4,,,,,,,,,4,,,57,0
632950,note_off,310,0,5,,,,,,,,,5,,,52,0
633000,note_on,0,0,1,,,,,,,,,1,,,76,77
633000,note_off,360,0,1,,,,,,,,,1,,,73,0
633105,note_off,105,0,1,,,,,,,,,1,,,76,0
633120,note_on,170,0,5,,,,,,,,,5,,,52,78
633120,note_on,15,0,1,,,,,,,,,1,,,74,78
633120,note_on,170,0,4,,,,,,,,,4,,,56,78
633430,note_off,310,0,4,,,,,,,,,4,,,56,0
633430,note_off,310,0,5,,,,,,,,,5,,,52,0
633480,note_off,360,0,1,,,,,,,,,1,,,74,0
633480,note_on,0,0,1,,,,,,,,,1,,,71,80
633560,set_tempo,1880,1,0,,,,,,495867,,,,,,,
633580,note_off,100,0,1,,,,,,,,,1,,,71,0
633600,note_on,170,0,5,,,,,,,,,5,,,56,81
633600,note_on,20,0,1,,,,,,,,,1,,,71,81
633660,note_on,60,0,5,,,,,,,,,5,,,57,81
633660,note_on,60,0,1,,,,,,,,,1,,,69,81
633675,note_off,15,0,5,,,,,,,,,5,,,56,0
633675,note_off,15,0,1,,,,,,,,,1,,,71,0
633960,note_off,285,0,5,,,,,,,,,5,,,57,0
633960,note_off,285,0,1,,,,,,,,,1,,,69,0
634080,note_on,120,0,5,,,,,,,,,5,,,45,69
634090,set_tempo,530,1,0,,,,,,517241,,,,,,,
634390,note_off,310,0,5,,,,,,,,,5,,,45,0
634560,control_change,1130,0,4,,,,,,,64,0,4,,,,
634560,control_change,15360,0,3,,,,,,,64,0,3,,,,
634560,control_change,7870,0,2,,,,,,,64,0,2,,,,
634560,set_tempo,470,1,0,,,,,,487804,,,,,,,
634560,control_change,170,0,5,,,,,,,64,0,5,,,,
634560,control_change,600,0,1,,,,,,,64,0,1,,,,
634560,note_on,0,0,1,,,,,,,,,1,,,81,44
634715,note_off,155,0,1,,,,,,,,,1,,,81,0
634800,note_on,85,0,1,,,,,,,,,1,,,81,45
634955,note_off,155,0,1,,,,,,,,,1,,,81,0
635040,note_on,85,0,1,,,,,,,,,1,,,81,47
635195,note_off,155,0,1,,,,,,,,,1,,,81,0
635280,note_on,85,0,1,,,,,,,,,1,,,81,49
635435,note_off,155,0,1,,,,,,,,,1,,,81,0
635480,set_tempo,920,1,0,,,,,,495867,,,,,,,
635520,note_on,960,0,5,,,,,,,,,5,,,62,45
635520,note_on,85,0,1,,,,,,,,,1,,,81,51
635520,note_on,0,0,5,,,,,,,,,5,,,66,45
635520,set_tempo,40,1,0,,,,,,487804,,,,,,,
635760,note_off,240,0,5,,,,,,,,,5,,,66,0
635760,note_off,0,0,5,,,,,,,,,5,,,62,0
635760,note_on,0,0,5,,,,,,,,,5,,,64,46
635760,note_on,0,0,5,,,,,,,,,5,,,67,46
636000,note_off,0,0,5,,,,,,,,,5,,,64,0
636000,note_on,0,0,5,,,,,,,,,5,,,69,46
636000,note_on,0,0,5,,,,,,,,,5,,,66,46
636000,note_off,240,0,5,,,,,,,,,5,,,67,0
636000,note_off,480,0,1,,,,,,,,,1,,,81,0
636000,note_on,0,0,1,,,,,,,,,1,,,74,46
636240,note_on,0,0,5,,,,,,,,,5,,,66,46
636240,note_off,240,0,1,,,,,,,,,1,,,74,0
636240,note_off,0,0,5,,,,,,,,,5,,,69,0
636240,note_off,240,0,5,,,,,,,,,5,,,66,0
636240,note_on,0,0,5,,,,,,,,,5,,,62,46
636440,note_off,200,0,5,,,,,,,,,5,,,62,0
636445,note_off,5,0,5,,,,,,,,,5,,,66,0
636480,note_on,240,0,1,,,,,,,,,1,,,86,47
636480,note_on,0,0,5,,,,,,,,,5,,,59,47
636480,note_on,35,0,5,,,,,,,,,5,,,62,47
636635,note_off,155,0,1,,,,,,,,,1,,,86,0
636720,note_off,0,0,5,,,,,,,,,5,,,62,0
636720,note_on,0,0,5,,,,,,,,,5,,,64,47
636720,note_on,85,0,1,,,,,,,,,1,,,86,47
636720,note_off,240,0,5,,,,,,,,,5,,,59,0
636720,note_on,0,0,5,,,,,,,,,5,,,61,47
636875,note_off,155,0,1,,,,,,,,,1,,,86,0
636960,note_on,0,0,5,,,,,,,,,5,,,62,47
636960,note_on,0,0,5,,,,,,,,,5,,,66,47
636960,note_off,240,0,5,,,,,,,,,5,,,61,0
636960,note_off,0,0,5,,,,,,,,,5,,,64,0
636960,note_on,85,0,1,,,,,,,,,1,,,86,49
637115,note_off,155,0,1,,,,,,,,,1,,,86,0
637200,note_on,0,0,5,,,,,,,,,5,,,62,48
637200,note_off,0,0,5,,,,,,,,,5,,,62,0
637200,note_on,0,0,5,,,,,,,,,5,,,59,48
637200,note_off,240,0,5,,,,,,,,,5,,,66,0
637200,note_on,85,0,1,,,,,,,,,1,,,86,50
637355,note_off,155,0,1,,,,,,,,,1,,,86,0
637400,set_tempo,1880,1,0,,,,,,495867,,,,,,,
637415,note_off,0,0,5,,,,,,,,,5,,,59,0
637415,note_off,215,0,5,,,,,,,,,5,,,62,0
637440,note_on,85,0,1,,,,,,,,,1,,,86,52
637440,note_on,25,0,5,,,,,,,,,5,,,55,48
637440,note_on,0,0,5,,,,,,,,,5,,,59,48
637440,set_tempo,40,1,0,,,,,,487804,,,,,,,
637680,note_off,240,0,5,,,,,,,,,5,,,59,0
637680,note_off,0,0,5,,,,,,,,,5,,,55,0
637680,note_on,0,0,5,,,,,,,,,5,,,61,48
637680,note_on,0,0,5,,,,,,,,,5,,,57,48
637920,note_off,0,0,5,,,,,,,,,5,,,57,0
637920,note_on,0,0,5,,,,,,,,,5,,,62,49
637920,note_on,0,0,1,,,,,,,,,1,,,76,49
637920,note_off,480,0,1,,,,,,,,,1,,,86,0
637920,note_off,240,0,5,,,,,,,,,5,,,61,0
637920,note_on,0,0,5,,,,,,,,,5,,,59,49
638160,note_off,240,0,5,,,,,,,,,5,,,59,0
638160,note_on,0,0,5,,,,,,,,,5,,,59,49
638160,note_on,0,0,5,,,,,,,,,5,,,55,49
638160,note_off,0,0,5,,,,,,,,,5,,,62,0
638160,note_off,240,0,1,,,,,,,,,1,,,76,0
638365,note_off,205,0,5,,,,,,,,,5,,,59,0
638370,note_off,5,0,5,,,,,,,,,5,,,55,0
638400,note_on,30,0,5,,,,,,,,,5,,,61,49
638400,note_on,0,0,5,,,,,,,,,5,,,57,49
638400,note_on,240,0,1,,,,,,,,,1,,,79,48
638555,note_off,155,0,1,,,,,,,,,1,,,79,0
638640,note_on,0,0,5,,,,,,,,,5,,,59,50
638640,note_on,0,0,5,,,,,,,,,5,,,62,50
638640,note_on,85,0,1,,,,,,,,,1,,,79,50
638640,note_off,240,0,5,,,,,,,,,5,,,57,0
638640,note_off,0,0,5,,,,,,,,,5,,,61,0
638795,note_off,155,0,1,,,,,,,,,1,,,79,0
638880,note_off,240,0,5,,,,,,,,,5,,,59,0
638880,note_off,0,0,5,,,,,,,,,5,,,62,0
638880,note_on,85,0,1,,,,,,,,,1,,,79,51
638880,note_on,0,0,5,,,,,,,,,5,,,61,50
638880,note_on,0,0,5,,,,,,,,,5,,,64,50
639035,note_off,155,0,1,,,,,,,,,1,,,79,0
639120,note_off,240,0,5,,,,,,,,,5,,,61,0
639120,note_off,0,0,5,,,,,,,,,5,,,64,0
639120,note_on,0,0,5,,,,,,,,,5,,,57,50
639120,note_on,0,0,5,,,,,,,,,5,,,61,50
639120,note_on,85,0,1,,,,,,,,,1,,,79,53
639275,note_off,155,0,1,,,,,,,,,1,,,79,0
639320,set_tempo,1880,1,0,,,,,,495867,,,,,,,
639340,note_off,0,0,5,,,,,,,,,5,,,57,0
639340,note_off,220,0,5,,,,,,,,,5,,,61,0
639360,note_on,20,0,5,,,,,,,,,5,,,62,50
639360,note_on,85,0,1,,,,,,,,,1,,,78,54
639360,set_tempo,40,1,0,,,,,,487804,,,,,,,
639720,note_off,360,0,1,,,,,,,,,1,,,78,0
639720,note_on,0,0,1,,,,,,,,,1,,,74,53
639840,note_on,480,0,5,,,,,,,,,5,,,60,54
639840,note_off,120,0,1,,,,,,,,,1,,,74,0
639840,note_on,0,0,1,,,,,,,,,1,,,81,54
640200,note_on,0,0,1,,,,,,,,,1,,,78,57
640200,note_off,360,0,1,,,,,,,,,1,,,81,0
640245,note_off,405,0,5,,,,,,,,,5,,,60,0
640320,note_on,0,0,1,,,,,,,,,1,,,79,58
640320,note_off,120,0,1,,,,,,,,,1,,,78,0
640320,note_on,75,0,5,,,,,,,,,5,,,59,58
640680,note_off,360,0,1,,,,,,,,,1,,,79,0
640680,note_on,0,0,1,,,,,,,,,1,,,74,60
640700,note_off,380,0,5,,,,,,,,,5,,,62,0
640705,note_off,5,0,5,,,,,,,,,5,,,59,0
640800,note_on,95,0,5,,,,,,,,,5,,,55,61
640800,note_off,120,0,1,,,,,,,,,1,,,74,0
640800,note_on,0,0,1,,,,,,,,,1,,,83,61
640800,note_on,6240,0,4,,,,,,,,,4,,,59,61
640800,note_on,6240,0,2,,,,,,,,,2,,,79,61
641160,note_on,0,0,2,,,,,,,,,2,,,76,64
641160,note_off,360,0,1,,,,,,,,,1,,,83,0
641160,note_off,360,0,2,,,,,,,,,2,,,79,0
641160,note_on,0,0,1,,,,,,,,,1,,,79,64
641185,note_off,385,0,5,,,,,,,,,5,,,55,0
641185,note_off,385,0,4,,,,,,,,,4,,,59,0
641240,set_tempo,1880,1,0,,,,,,495867,,,,,,,
641260,note_off,100,0,1,,,,,,,,,1,,,79,0
641265,note_off,105,0,2,,,,,,,,,2,,,76,0
641280,note_on,20,0,1,,,,,,,,,1,,,78,65
641280,note_on,95,0,5,,,,,,,,,5,,,57,65
641280,note_on,15,0,2,,,,,,,,,2,,,74,65
641760,note_on,0,0,2,,,,,,,,,2,,,73,50
641760,note_off,480,0,2,,,,,,,,,2,,,74,0
641760,note_on,0,0,1,,,,,,,,,1,,,76,50
641760,note_off,480,0,1,,,,,,,,,1,,,78,0
642000,set_tempo,760,1,0,,,,,,517241,,,,,,,
642050,note_off,290,0,2,,,,,,,,,2,,,73,0
642055,note_off,295,0,1,,,,,,,,,1,,,76,0
642070,note_off,790,0,5,,,,,,,,,5,,,57,0
642240,set_tempo,240,1,0,,,,,,487804,,,,,,,
642240,note_on,185,0,1,,,,,,,,,1,,,81,46
642395,note_off,155,0,1,,,,,,,,,1,,,81,0
642480,note_on,85,0,1,,,,,,,,,1,,,81,47
642635,note_off,155,0,1,,,,,,,,,1,,,81,0
642720,note_on,85,0,1,,,,,,,,,1,,,81,49
642875,note_off,155,0,1,,,,,,,,,1,,,81,0
642960,note_on,85,0,1,,,,,,,,,1,,,81,52
643115,note_off,155,0,1,,,,,,,,,1,,,81,0
643160,set_tempo,920,1,0,,,,,,495867,,,,,,,
643200,set_tempo,40,1,0,,,,,,487804,,,,,,,
643200,note_on,0,0,5,,,,,,,,,5,,,66,49
643200,note_on,1130,0,5,,,,,,,,,5,,,62,49
643200,note_on,85,0,1,,,,,,,,,1,,,81,54
643440,note_on,0,0,5,,,,,,,,,5,,,67,49
643440,note_on,0,0,5,,,,,,,,,5,,,64,49
643440,note_off,0,0,5,,,,,,,,,5,,,62,0
643440,note_off,240,0,5,,,,,,,,,5,,,66,0
643680,note_on,480,0,1,,,,,,,,,1,,,74,50
643680,note_on,0,0,5,,,,,,,,,5,,,66,50
643680,note_on,0,0,5,,,,,,,,,5,,,69,50
643680,note_off,0,0,5,,,,,,,,,5,,,64,0
643680,note_off,240,0,5,,,,,,,,,5,,,67,0
643685,note_off,5,0,1,,,,,,,,,1,,,81,0
643920,note_off,0,0,5,,,,,,,,,5,,,69,0
643920,note_off,240,0,5,,,,,,,,,5,,,66,0
643920,note_off,235,0,1,,,,,,,,,1,,,74,0
643920,note_on,0,0,5,,,,,,,,,5,,,64,51
643920,note_on,0,0,5,,,,,,,,,5,,,67,51
644130,note_off,0,0,5,,,,,,,,,5,,,64,0
644130,note_off,210,0,5,,,,,,,,,5,,,67,0
644160,note_on,240,0,1,,,,,,,,,1,,,86,52
644160,note_on,30,0,5,,,,,,,,,5,,,62,52
644160,note_on,0,0,5,,,,,,,,,5,,,66,52
644315,note_off,155,0,1,,,,,,,,,1,,,86,0
644400,note_on,0,0,5,,,,,,,,,5,,,61,54
644400,note_on,0,0,5,,,,,,,,,5,,,64,54
644400,note_off,240,0,5,,,,,,,,,5,,,66,0
644400,note_off,0,0,5,,,,,,,,,5,,,62,0
644400,note_on,85,0,1,,,,,,,,,1,,,86,55
644555,note_off,155,0,1,,,,,,,,,1,,,86,0
644640,note_on,0,0,5,,,,,,,,,5,,,59,55
644640,note_on,0,0,5,,,,,,,,,5,,,62,55
644640,note_off,0,0,5,,,,,,,,,5,,,64,0
644640,note_off,240,0,5,,,,,,,,,5,,,61,0
644640,note_on,85,0,1,,,,,,,,,1,,,86,57
644795,note_off,155,0,1,,,,,,,,,1,,,86,0
644880,note_on,85,0,1,,,,,,,,,1,,,86,60
644880,note_on,0,0,5,,,,,,,,,5,,,61,56
644880,note_on,0,0,5,,,,,,,,,5,,,57,56
644880,note_off,0,0,5,,,,,,,,,5,,,62,0
644880,note_off,240,0,5,,,,,,,,,5,,,59,0
645035,note_off,155,0,1,,,,,,,,,1,,,86,0
645080,set_tempo,1880,1,0,,,,,,495867,,,,,,,
645090,note_off,210,0,5,,,,,,,,,5,,,61,0
645095,note_off,5,0,5,,,,,,,,,5,,,57,0
645120,note_on,25,0,5,,,,,,,,,5,,,59,57
645120,set_tempo,40,1,0,,,,,,487804,,,,,,,
645120,note_on,85,0,1,,,,,,,,,1,,,86,62
645120,note_on,0,0,5,,,,,,,,,5,,,56,57
645360,note_on,0,0,5,,,,,,,,,5,,,57,58
645360,note_on,0,0,5,,,,,,,,,5,,,54,58
645360,note_off,0,0,5,,,,,,,,,5,,,59,0
645360,note_off,240,0,5,,,,,,,,,5,,,56,0
645600,note_off,240,0,5,,,,,,,,,5,,,54,0
645600,note_off,0,0,5,,,,,,,,,5,,,57,0
645600,note_on,0,0,5,,,,,,,,,5,,,52,60
645600,note_on,0,0,5,,,,,,,,,5,,,56,60
645600,note_on,0,0,1,,,,,,,,,1,,,80,60
645600,note_off,480,0,1,,,,,,,,,1,,,86,0
645840,note_off,240,0,1,,,,,,,,,1,,,80,0
645840,note_on,0,0,5,,,,,,,,,5,,,54,61
645840,note_on,0,0,5,,,,,,,,,5,,,57,61
645840,note_off,0,0,5,,,,,,,,,5,,,52,0
645840,note_off,240,0,5,,,,,,,,,5,,,56,0
646045,note_off,205,0,5,,,,,,,,,5,,,54,0
646050,note_off,5,0,5,,,,,,,,,5,,,57,0
646080,note_on,0,0,5,,,,,,,,,5,,,59,62
646080,note_on,240,0,1,,,,,,,,,1,,,83,68
646080,note_on,30,0,5,,,,,,,,,5,,,56,62
646320,note_on,0,0,5,,,,,,,,,5,,,57,63
646320,note_off,240,0,5,,,,,,,,,5,,,59,0
646320,note_on,0,0,5,,,,,,,,,5,,,61,63
646320,note_off,0,0,5,,,,,,,,,5,,,56,0
646560,note_on,0,0,5,,,,,,,,,5,,,62,64
646560,note_on,0,0,1,,,,,,,,,1,,,76,64
646560,note_off,0,0,5,,,,,,,,,5,,,61,0
646560,note_off,240,0,5,,,,,,,,,5,,,57,0
646560,note_off,480,0,1,,,,,,,,,1,,,83,0
646560,note_on,0,0,5,,,,,,,,,5,,,59,64
646800,note_off,240,0,1,,,,,,,,,1,,,76,0
646800,note_off,240,0,5,,,,,,,,,5,,,62,0
646800,note_off,0,0,5,,,,,,,,,5,,,59,0
646800,note_on,0,0,5,,,,,,,,,5,,,57,66
646800,note_on,0,0,5,,,,,,,,,5,,,61,66
647000,set_tempo,1880,1,0,,,,,,495867,,,,,,,
647015,note_off,215,0,5,,,,,,,,,5,,,61,0
647020,note_off,5,0,5,,,,,,,,,5,,,57,0
647040,note_on,5855,0,4,,,,,,,,,4,,,61,68
647040,set_tempo,40,1,0,,,,,,487804,,,,,,,
647040,note_on,240,0,1,,,,,,,,,1,,,76,68
647040,note_on,20,0,5,,,,,,,,,5,,,57,68
647350,note_off,310,0,4,,,,,,,,,4,,,61,0
647350,note_off,310,0,5,,,,,,,,,5,,,57,0
647400,note_off,360,0,1,,,,,,,,,1,,,76,0
647400,note_on,0,0,1,,,,,,,,,1,,,81,71
647500,note_off,100,0,1,,,,,,,,,1,,,81,0
647520,note_on,170,0,4,,,,,,,,,4,,,59,71
647520,note_on,170,0,5,,,,,,,,,5,,,50,71
647520,note_on,20,0,1,,,,,,,,,1,,,78,71
647830,note_off,310,0,4,,,,,,,,,4,,,59,0
647830,note_off,310,0,5,,,,,,,,,5,,,50,0
647880,note_on,0,0,1,,,,,,,,,1,,,74,74
647880,note_off,360,0,1,,,,,,,,,1,,,78,0
647985,note_off,105,0,1,,,,,,,,,1,,,74,0
648000,note_on,170,0,5,,,,,,,,,5,,,52,74
648000,note_on,15,0,1,,,,,,,,,1,,,73,74
648000,note_on,170,0,4,,,,,,,,,4,,,57,74
648310,note_off,310,0,5,,,,,,,,,5,,,52,0
648310,note_off,310,0,4,,,,,,,,,4,,,57,0
648360,note_off,360,0,1,,,,,,,,,1,,,73,0
648360,note_on,0,0,1,,,,,,,,,1,,,76,77
648465,note_off,105,0,1,,,,,,,,,1,,,76,0
648480,note_on,170,0,4,,,,,,,,,4,,,56,78
648480,note_on,170,0,5,,,,,,,,,5,,,52,78
648480,note_on,15,0,1,,,,,,,,,1,,,74,78
648790,note_off,310,0,5,,,,,,,,,5,,,52,0
648790,note_off,310,0,4,,,,,,,,,4,,,56,0
648840,note_off,360,0,1,,,,,,,,,1,,,74,0
648840,note_on,0,0,1,,,,,,,,,1,,,71,80
648920,set_tempo,1880,1,0,,,,,,495867,,,,,,,
648940,note_off,100,0,1,,,,,,,,,1,,,71,0
648960,note_on,20,0,1,,,,,,,,,1,,,71,81
648960,note_on,170,0,5,,,,,,,,,5,,,56,81
649020,note_on,60,0,1,,,,,,,,,1,,,69,81
649020,note_on,60,0,5,,,,,,,,,5,,,57,81
649035,note_off,15,0,1,,,,,,,,,1,,,71,0
649035,note_off,15,0,5,,,,,,,,,5,,,56,0
649320,note_off,285,0,1,,,,,,,,,1,,,69,0
649320,note_off,285,0,5,,,,,,,,,5,,,57,0
649440,note_on,120,0,5,,,,,,,,,5,,,45,69
649450,set_tempo,530,1,0,,,,,,517241,,,,,,,
649750,note_off,310,0,5,,,,,,,,,5,,,45,0
649920,control_change,7870,0,2,,,,,,,64,0,2,,,,
649920,note_on,0,0,1,,,,,,,,,1,,,84,49
649920,control_change,600,0,1,,,,,,,64,0,1,,,,
649920,control_change,1130,0,4,,,,,,,64,0,4,,,,
649920,control_change,15360,0,3,,,,,,,64,0,3,,,,
649920,set_tempo,470,1,0,,,,,,487804,,,,,,,
649920,control_change,170,0,5,,,,,,,64,0,5,,,,
650075,note_off,155,0,1,,,,,,,,,1,,,84,0
650160,note_on,85,0,1,,,,,,,,,1,,,84,51
650315,note_off,155,0,1,,,,,,,,,1,,,84,0
650400,note_on,85,0,1,,,,,,,,,1,,,84,54
650555,note_off,155,0,1,,,,,,,,,1,,,84,0
650640,note_on,85,0,1,,,,,,,,,1,,,84,56
650795,note_off,155,0,1,,,,,,,,,1,,,84,0
650840,set_tempo,920,1,0,,,,,,495867,,,,,,,
650880,note_on,0,0,5,,,,,,,,,5,,,69,57
650880,note_on,85,0,1,,,,,,,,,1,,,75,59
650880,set_tempo,40,1,0,,,,,,487804,,,,,,,
650880,note_on,960,0,5,,,,,,,,,5,,,72,57
651120,note_on,0,0,5,,,,,,,,,5,,,68,54
651120,note_on,0,0,5,,,,,,,,,5,,,71,54
651120,note_off,0,0,5,,,,,,,,,5,,,72,0
651120,note_off,240,0,1,,,,,,,,,1,,,75,0
651120,note_off,240,0,5,,,,,,,,,5,,,69,0
651120,note_on,0,0,1,,,,,,,,,1,,,76,54
651310,note_off,190,0,1,,,,,,,,,1,,,76,0
651310,note_off,190,0,5,,,,,,,,,5,,,68,0
651310,note_off,0,0,5,,,,,,,,,5,,,71,0
651360,note_on,50,0,1,,,,,,,,,1,,,82,52
651600,note_off,240,0,1,,,,,,,,,1,,,82,0
651600,note_on,0,0,1,,,,,,,,,1,,,83,50
651790,note_off,190,0,1,,,,,,,,,1,,,83,0
651840,note_on,530,0,5,,,,,,,,,5,,,67,48
651840,note_on,50,0,1,,,,,,,,,1,,,73,48
651840,note_on,0,0,5,,,,,,,,,5,,,70,48
652080,note_off,240,0,5,,,,,,,,,5,,,70,0
652080,note_off,0,0,5,,,,,,,,,5,,,67,0
652080,note_on,0,0,5,,,,,,,,,5,,,69,47
652080,note_on,0,0,5,,,,,,,,,5,,,66,47
652080,note_off,240,0,1,,,,,,,,,1,,,73,0
652080,note_on,0,0,1,,,,,,,,,1,,,74,47
652270,note_off,190,0,1,,,,,,,,,1,,,74,0
652270,note_off,0,0,5,,,,,,,,,5,,,69,0
652270,note_off,190,0,5,,,,,,,,,5,,,66,0
652320,note_on,50,0,1,,,,,,,,,1,,,80,45
652560,note_off,240,0,1,,,,,,,,,1,,,80,0
652560,note_on,0,0,1,,,,,,,,,1,,,81,42
652680,set_tempo,1800,1,0,,,,,,495867,,,,,,,
652750,note_off,190,0,1,,,,,,,,,1,,,81,0
652800,note_on,530,0,5,,,,,,,,,5,,,71,71
652800,note_on,0,0,5,,,,,,,,,5,,,74,71
652800,set_tempo,120,1,0,,,,,,487804,,,,,,,
652800,note_on,50,0,1,,,,,,,,,1,,,86,71
652955,note_off,155,0,1,,,,,,,,,1,,,86,0
653040,note_off,240,0,5,,,,,,,,,5,,,74,0
653040,note_on,0,0,5,,,,,,,,,5,,,69,69
653040,note_on,0,0,5,,,,,,,,,5,,,73,69
653040,note_on,85,0,1,,,,,,,,,1,,,86,69
653040,note_off,0,0,5,,,,,,,,,5,,,71,0
653195,note_off,155,0,1,,,,,,,,,1,,,86,0
653280,note_on,85,0,1,,,,,,,,,1,,,86,67
653280,note_on,0,0,5,,,,,,,,,5,,,67,67
653280,note_on,0,0,5,,,,,,,,,5,,,71,67
653280,note_off,0,0,5,,,,,,,,,5,,,73,0
653280,note_off,240,0,5,,,,,,,,,5,,,69,0
653435,note_off,155,0,1,,,,,,,,,1,,,86,0
653520,note_on,0,0,5,,,,,,,,,5,,,66,64
653520,note_on,0,0,5,,,,,,,,,5,,,69,64
653520,note_off,240,0,5,,,,,,,,,5,,,67,0
653520,note_off,0,0,5,,,,,,,,,5,,,71,0
653520,note_on,85,0,1,,,,,,,,,1,,,86,65
653675,note_off,155,0,1,,,,,,,,,1,,,86,0
653735,note_off,215,0,5,,,,,,,,,5,,,69,0
653740,note_off,5,0,5,,,,,,,,,5,,,66,0
653760,note_on,20,0,5,,,,,,,,,5,,,71,66
653760,note_on,85,0,1,,,,,,,,,1,,,86,67
653760,note_on,0,0,5,,,,,,,,,5,,,67,66
653915,note_off,155,0,1,,,,,,,,,1,,,86,0
654000,note_on,0,0,5,,,,,,,,,5,,,69,64
654000,note_off,240,0,5,,,,,,,,,5,,,67,0
654000,note_on,0,0,5,,,,,,,,,5,,,66,64
654000,note_off,0,0,5,,,,,,,,,5,,,71,0
654000,note_on,85,0,1,,,,,,,,,1,,,86,64
654155,note_off,155,0,1,,,,,,,,,1,,,86,0
654240,note_on,0,0,5,,,,,,,,,5,,,64,62
654240,note_on,0,0,5,,,,,,,,,5,,,67,62
654240,note_off,0,0,5,,,,,,,,,5,,,66,0
654240,note_off,240,0,5,,,,,,,,,5,,,69,0
654240,note_on,85,0,1,,,,,,,,,1,,,86,62
654395,note_off,155,0,1,,,,,,,,,1,,,86,0
654480,note_off,0,0,5,,,,,,,,,5,,,67,0
654480,note_on,0,0,5,,,,,,,,,5,,,66,60
654480,note_on,0,0,5,,,,,,,,,5,,,62,60
654480,note_off,240,0,5,,,,,,,,,5,,,64,0
654480,note_on,85,0,1,,,,,,,,,1,,,86,60
654635,note_off,155,0,1,,,,,,,,,1,,,86,0
654680,set_tempo,1880,1,0,,,,,,500000,,,,,,,
654690,note_off,210,0,5,,,,,,,,,5,,,62,0
654690,note_off,0,0,5,,,,,,,,,5,,,66,0
654720,set_tempo,40,1,0,,,,,,487804,,,,,,,
654720,note_on,85,0,1,,,,,,,,,1,,,79,39
654720,note_on,4800,0,4,,,,,,,,,4,,,69,39
654720,note_on,30,0,5,,,,,,,,,5,,,61,39
655080,note_off,360,0,1,,,,,,,,,1,,,79,0
655080,note_on,0,0,1,,,,,,,,,1,,,81,42
655105,note_off,385,0,5,,,,,,,,,5,,,61,0
655180,note_off,100,0,1,,,,,,,,,1,,,81,0
655200,note_on,20,0,1,,,,,,,,,1,,,78,43
655200,note_on,95,0,5,,,,,,,,,5,,,62,43
655560,note_on,0,0,1,,,,,,,,,1,,,74,46
655560,note_off,360,0,1,,,,,,,,,1,,,78,0
655585,note_off,385,0,5,,,,,,,,,5,,,62,0
655665,note_off,105,0,1,,,,,,,,,1,,,74,0
655680,note_on,95,0,5,,,,,,,,,5,,,61,48
655680,note_on,15,0,1,,,,,,,,,1,,,76,48
656040,note_off,360,0,1,,,,,,,,,1,,,76,0
656040,note_on,0,0,1,,,,,,,,,1,,,81,51
656065,note_off,385,0,5,,,,,,,,,5,,,61,0
656145,note_off,105,0,1,,,,,,,,,1,,,81,0
656160,note_on,1440,0,4,,,,,,,,,4,,,62,52
656160,note_on,15,0,1,,,,,,,,,1,,,80,52
656160,note_on,95,0,5,,,,,,,,,5,,,59,52
656175,note_off,15,0,4,,,,,,,,,4,,,69,0
656520,note_on,0,0,4,,,,,,,,,4,,,68,60
656520,note_off,345,0,4,,,,,,,,,4,,,62,0
656520,note_off,360,0,1,,,,,,,,,1,,,80,0
656520,note_on,0,0,1,,,,,,,,,1,,,74,60
656545,note_off,385,0,5,,,,,,,,,5,,,59,0
656600,set_tempo,1880,1,0,,,,,,495867,,,,,,,
656615,note_off,95,0,1,,,,,,,,,1,,,74,0
656615,note_off,95,0,4,,,,,,,,,4,,,68,0
656640,note_on,6720,0,2,,,,,,,,,2,,,74,64
656640,note_on,95,0,5,,,,,,,,,5,,,57,64
656640,note_on,25,0,1,,,,,,,,,1,,,78,64
656640,note_on,25,0,4,,,,,,,,,4,,,69,64
657120,note_off,480,0,1,,,,,,,,,1,,,78,0
657120,note_off,480,0,2,,,,,,,,,2,,,74,0
657120,note_on,0,0,1,,,,,,,,,1,,,76,49
657120,note_on,0,0,2,,,,,,,,,2,,,73,49
657120,set_tempo,520,1,0,,,,,,517241,,,,,,,
657405,note_off,285,0,1,,,,,,,,,1,,,76,0
657405,note_off,285,0,2,,,,,,,,,2,,,73,0
657410,note_off,770,0,5,,,,,,,,,5,,,57,0
657410,note_off,770,0,4,,,,,,,,,4,,,69,0
657600,note_on,195,0,1,,,,,,,,,1,,,88,40
657600,set_tempo,480,1,0,,,,,,487804,,,,,,,
657755,note_off,155,0,1,,,,,,,,,1,,,88,0
657840,note_on,85,0,1,,,,,,,,,1,,,88,42
657995,note_off,155,0,1,,,,,,,,,1,,,88,0
658080,note_on,85,0,1,,,,,,,,,1,,,88,44
658235,note_off,155,0,1,,,,,,,,,1,,,88,0
658320,note_on,85,0,1,,,,,,,,,1,,,88,46
658475,note_off,155,0,1,,,,,,,,,1,,,88,0
658520,set_tempo,920,1,0,,,,,,495867,,,,,,,
658560,note_on,85,0,1,,,,,,,,,1,,,88,51
659040,note_off,480,0,1,,,,,,,,,1,,,88,0
659040,note_on,0,0,1,,,,,,,,,1,,,81,41
659280,set_tempo,760,1,0,,,,,,1935483,,,,,,,
659280,note_off,240,0,1,,,,,,,,,1,,,81,0
659520,note_on,2110,0,5,,,,,,,,,5,,,69,57
659520,set_tempo,240,1,0,,,,,,487804,,,,,,,
659675,note_off,155,0,5,,,,,,,,,5,,,69,0
659760,note_on,85,0,5,,,,,,,,,5,,,69,60
659915,note_off,155,0,5,,,,,,,,,5,,,69,0
660000,note_on,85,0,5,,,,,,,,,5,,,69,63
660155,note_off,155,0,5,,,,,,,,,5,,,69,0
660240,note_on,85,0,5,,,,,,,,,5,,,69,66
660395,note_off,155,0,5,,,,,,,,,5,,,69,0
660440,set_tempo,920,1,0,,,,,,495867,,,,,,,
660480,set_tempo,40,1,0,,,,,,487804,,,,,,,
660480,note_on,1200,0,1,,,,,,,,,1,,,78,60
660480,note_on,85,0,5,,,,,,,,,5,,,69,69
660480,note_on,3075,0,2,,,,,,,,,2,,,74,60
660720,note_on,0,0,1,,,,,,,,,1,,,79,58
660720,note_off,240,0,1,,,,,,,,,1,,,78,0
660720,note_on,0,0,2,,,,,,,,,2,,,76,58
660720,note_off,240,0,2,,,,,,,,,2,,,74,0
660960,note_on,0,0,5,,,,,,,,,5,,,62,60
660960,note_off,480,0,5,,,,,,,,,5,,,69,0
660960,note_on,0,0,1,,,,,,,,,1,,,81,56
660960,note_off,240,0,1,,,,,,,,,1,,,79,0
660960,note_on,0,0,2,,,,,,,,,2,,,78,56
660960,note_off,240,0,2,,,,,,,,,2,,,76,0
661200,note_off,240,0,2,,,,,,,,,2,,,78,0
661200,note_on,0,0,2,,,,,,,,,2,,,79,54
661200,note_off,240,0,1,,,,,,,,,1,,,81,0
661200,note_on,0,0,1,,,,,,,,,1,,,83,54
661200,note_off,240,0,5,,,,,,,,,5,,,62,0
661410,note_off,210,0,1,,,,,,,,,1,,,83,0
661415,note_off,215,0,2,,,,,,,,,2,,,79,0
661440,note_on,240,0,5,,,,,,,,,5,,,62,46
661440,note_on,30,0,1,,,,,,,,,1,,,81,42
661440,note_on,25,0,2,,,,,,,,,2,,,78,42
661595,note_off,155,0,5,,,,,,,,,5,,,62,0
661680,note_on,0,0,2,,,,,,,,,2,,,79,45
661680,note_off,240,0,1,,,,,,,,,1,,,81,0
661680,note_on,0,0,1,,,,,,,,,1,,,83,45
661680,note_off,240,0,2,,,,,,,,,2,,,78,0
661680,note_on,85,0,5,,,,,,,,,5,,,62,49
661835,note_off,155,0,5,,,,,,,,,5,,,62,0
661920,note_on,0,0,1,,,,,,,,,1,,,85,47
661920,note_off,240,0,1,,,,,,,,,1,,,83,0
661920,note_off,240,0,2,,,,,,,,,2,,,79,0
661920,note_on,0,0,2,,,,,,,,,2,,,76,47
661920,note_on,85,0,5,,,,,,,,,5,,,62,53
662075,note_off,155,0,5,,,,,,,,,5,,,62,0
662160,note_off,240,0,2,,,,,,,,,2,,,76,0
662160,note_on,0,0,2,,,,,,,,,2,,,78,49
662160,note_on,0,0,1,,,,,,,,,1,,,86,49
662160,note_on,85,0,5,,,,,,,,,5,,,62,56
662160,note_off,240,0,1,,,,,,,,,1,,,85,0
662315,note_off,155,0,5,,,,,,,,,5,,,62,0
662360,set_tempo,1880,1,0,,,,,,495867,,,,,,,
662370,note_off,210,0,2,,,,,,,,,2,,,78,0
662370,note_off,210,0,1,,,,,,,,,1,,,86,0
662400,note_on,85,0,5,,,,,,,,,5,,,62,61
662400,note_on,30,0,2,,,,,,,,,2,,,79,53
662400,note_on,30,0,1,,,,,,,,,1,,,83,53
662400,set_tempo,40,1,0,,,,,,487804,,,,,,,
662640,note_off,240,0,2,,,,,,,,,2,,,79,0
662640,note_on,0,0,2,,,,,,,,,2,,,81,50
662640,note_on,0,0,1,,,,,,,,,1,,,85,50
662640,note_off,240,0,1,,,,,,,,,1,,,83,0
662880,note_off,240,0,1,,,,,,,,,1,,,85,0
662880,note_on,0,0,1,,,,,,,,,1,,,86,47
662880,note_off,480,0,5,,,,,,,,,5,,,62,0
662880,note_on,0,0,5,,,,,,,,,5,,,55,55
662880,note_off,240,0,2,,,,,,,,,2,,,81,0
662880,note_on,0,0,2,,,,,,,,,2,,,83,47
663120,note_off,240,0,5,,,,,,,,,5,,,55,0
663120,note_on,0,0,2,,,,,,,,,2,,,79,45
663120,note_off,240,0,2,,,,,,,,,2,,,83,0
663120,note_on,0,0,1,,,,,,,,,1,,,83,45
663120,note_off,240,0,1,,,,,,,,,1,,,86,0
663325,note_off,205,0,2,,,,,,,,,2,,,79,0
663325,note_off,205,0,1,,,,,,,,,1,,,83,0
663360,note_on,240,0,5,,,,,,,,,5,,,55,66
663360,note_on,35,0,2,,,,,,,,,2,,,76,66
663360,note_on,35,0,1,,,,,,,,,1,,,79,66
663600,note_off,240,0,1,,,,,,,,,1,,,79,0
663600,note_on,0,0,1,,,,,,,,,1,,,81,68
663600,note_off,240,0,2,,,,,,,,,2,,,76,0
663600,note_on,0,0,2,,,,,,,,,2,,,78,68
663840,note_on,0,0,1,,,,,,,,,1,,,83,70
663840,note_on,0,0,5,,,,,,,,,5,,,49,62
663840,note_off,480,0,5,,,,,,,,,5,,,55,0
663840,note_off,240,0,1,,,,,,,,,1,,,81,0
663840,note_on,0,0,2,,,,,,,,,2,,,79,70
663840,note_off,240,0,2,,,,,,,,,2,,,78,0
664080,note_off,240,0,2,,,,,,,,,2,,,79,0
664080,note_off,240,0,5,,,,,,,,,5,,,49,0
664080,note_off,240,0,1,,,,,,,,,1,,,83,0
664080,note_on,0,0,2,,,,,,,,,2,,,76,72
664080,note_on,0,0,1,,,,,,,,,1,,,79,72
664280,set_tempo,1880,1,0,,,,,,495867,,,,,,,
664295,note_off,215,0,2,,,,,,,,,2,,,76,0
664295,note_off,215,0,1,,,,,,,,,1,,,79,0
664320,note_on,25,0,1,,,,,,,,,1,,,78,74
664320,set_tempo,40,1,0,,,,,,487804,,,,,,,
664320,note_on,25,0,2,,,,,,,,,2,,,74,74
664320,note_on,240,0,5,,,,,,,,,5,,,50,74
664630,note_off,310,0,5,,,,,,,,,5,,,50,0
664680,note_off,360,0,2,,,,,,,,,2,,,74,0
664680,note_on,0,0,1,,,,,,,,,1,,,86,74
664680,note_off,360,0,1,,,,,,,,,1,,,78,0
664785,note_off,105,0,1,,,,,,,,,1,,,86,0
664800,note_on,7390,0,4,,,,,,,,,4,,,64,74
664800,note_on,15,0,1,,,,,,,,,1,,,83,74
664800,note_on,170,0,5,,,,,,,,,5,,,55,74
665110,note_off,310,0,5,,,,,,,,,5,,,55,0
665110,note_off,310,0,4,,,,,,,,,4,,,64,0
665160,note_on,0,0,1,,,,,,,,,1,,,79,75
665160,note_off,360,0,1,,,,,,,,,1,,,83,0
665265,note_off,105,0,1,,,,,,,,,1,,,79,0
665280,note_on,170,0,5,,,,,,,,,5,,,57,76
665280,note_on,170,0,4,,,,,,,,,4,,,62,76
665280,note_on,15,0,1,,,,,,,,,1,,,78,76
665590,note_off,310,0,5,,,,,,,,,5,,,57,0
665590,note_off,310,0,4,,,,,,,,,4,,,62,0
665640,note_off,360,0,1,,,,,,,,,1,,,78,0
665640,note_on,0,0,1,,,,,,,,,1,,,81,77
665740,note_off,100,0,1,,,,,,,,,1,,,81,0
665760,note_on,170,0,4,,,,,,,,,4,,,61,77
665760,note_on,170,0,5,,,,,,,,,5,,,57,77
665760,note_on,20,0,1,,,,,,,,,1,,,79,77
666070,note_off,310,0,4,,,,,,,,,4,,,61,0
666070,note_off,310,0,5,,,,,,,,,5,,,57,0
666120,note_off,360,0,1,,,,,,,,,1,,,79,0
666120,note_on,0,0,1,,,,,,,,,1,,,76,78
666200,set_tempo,1880,1,0,,,,,,495867,,,,,,,
666220,note_off,100,0,1,,,,,,,,,1,,,76,0
666240,note_on,20,0,1,,,,,,,,,1,,,76,81
666240,note_on,170,0,5,,,,,,,,,5,,,61,81
666300,note_off,60,0,1,,,,,,,,,1,,,76,0
666300,note_on,0,0,1,,,,,,,,,1,,,74,80
666300,note_on,60,0,5,,,,,,,,,5,,,62,80
666310,note_off,10,0,5,,,,,,,,,5,,,61,0
666720,note_off,410,0,5,,,,,,,,,5,,,62,0
666720,note_on,0,0,5,,,,,,,,,5,,,50,75
666725,note_off,425,0,1,,,,,,,,,1,,,74,0
667030,note_off,310,0,5,,,,,,,,,5,,,50,0
667080,set_tempo,880,1,0,,,,,,722891,,,,,,,
667200,control_change,1130,0,4,,,,,,,64,0,4,,,,
667200,control_change,17280,0,3,,,,,,,64,0,3,,,,
667200,note_on,0,0,5,,,,,,,,,5,,,45,70
667200,control_change,2520,0,2,,,,,,,64,0,2,,,,
667200,control_change,475,0,1,,,,,,,64,0,1,,,,
667200,control_change,170,0,5,,,,,,,64,0,5,,,,
667200,set_tempo,120,1,0,,,,,,495867,,,,,,,
667200,note_on,0,0,5,,,,,,,,,5,,,57,70
667200,marker,0,1,0,,,,,,,,,,,,,
667510,note_off,0,0,5,,,,,,,,,5,,,57,0
667510,note_off,310,0,5,,,,,,,,,5,,,45,0
667680,note_on,170,0,5,,,,,,,,,5,,,42,64
667680,note_on,0,0,5,,,,,,,,,5,,,54,64
667990,note_off,310,0,5,,,,,,,,,5,,,54,0
667990,note_off,0,0,5,,,,,,,,,5,,,42,0
668040,set_tempo,840,1,0,,,,,,495867,,,,,,,
668160,set_tempo,120,1,0,,,,,,480000,,,,,,,
668160,note_on,170,0,5,,,,,,,,,5,,,50,62
668160,note_on,0,0,5,,,,,,,,,5,,,38,62
668160,control_change,960,0,3,,,,,,,64,127,3,,,,
668280,note_on,120,0,3,,,,,,,,,3,,,62,63
668375,note_off,95,0,3,,,,,,,,,3,,,62,0
668400,note_on,25,0,3,,,,,,,,,3,,,66,63
668470,note_off,310,0,5,,,,,,,,,5,,,38,0
668470,note_off,0,0,5,,,,,,,,,5,,,50,0
668495,note_off,95,0,3,,,,,,,,,3,,,66,0
668520,note_on,25,0,3,,,,,,,,,3,,,62,63
668580,control_change,60,0,3,,,,,,,64,0,3,,,,
668615,note_off,35,0,3,,,,,,,,,3,,,62,0
668640,note_on,1440,0,1,,,,,,,,,1,,,81,64
668640,control_change,25,0,3,,,,,,,64,127,3,,,,
668760,note_on,120,0,3,,,,,,,,,3,,,62,64
668855,note_off,95,0,3,,,,,,,,,3,,,62,0
668880,note_on,25,0,3,,,,,,,,,3,,,66,64
668950,note_off,310,0,1,,,,,,,,,1,,,81,0
668975,note_off,95,0,3,,,,,,,,,3,,,66,0
669000,note_on,25,0,3,,,,,,,,,3,,,62,64
669060,control_change,60,0,3,,,,,,,64,0,3,,,,
669095,note_off,35,0,3,,,,,,,,,3,,,62,0
669120,control_change,25,0,3,,,,,,,64,127,3,,,,
669120,note_on,170,0,1,,,,,,,,,1,,,83,65
669240,note_on,120,0,3,,,,,,,,,3,,,62,65
669335,note_off,95,0,3,,,,,,,,,3,,,62,0
669360,note_on,25,0,3,,,,,,,,,3,,,66,65
669430,note_off,310,0,1,,,,,,,,,1,,,83,0
669455,note_off,95,0,3,,,,,,,,,3,,,66,0
669480,note_on,25,0,3,,,,,,,,,3,,,62,66
669540,control_change,60,0,3,,,,,,,64,0,3,,,,
669575,note_off,35,0,3,,,,,,,,,3,,,62,0
669600,note_on,170,0,1,,,,,,,,,1,,,78,66
669600,control_change,25,0,3,,,,,,,64,127,3,,,,
669720,note_on,120,0,3,,,,,,,,,3,,,63,66
669815,note_off,95,0,3,,,,,,,,,3,,,63,0
669840,note_on,25,0,3,,,,,,,,,3,,,71,67
669910,note_off,310,0,1,,,,,,,,,1,,,78,0
669935,note_off,95,0,3,,,,,,,,,3,,,71,0
669960,note_on,25,0,3,,,,,,,,,3,,,63,67
670020,control_change,60,0,3,,,,,,,64,0,3,,,,
670055,note_off,35,0,3,,,,,,,,,3,,,63,0
670080,control_change,25,0,3,,,,,,,64,127,3,,,,
670080,note_on,170,0,1,,,,,,,,,1,,,79,67
670200,note_on,120,0,3,,,,,,,,,3,,,64,67
670295,note_off,95,0,3,,,,,,,,,3,,,64,0
670320,note_on,25,0,3,,,,,,,,,3,,,71,68
670390,note_off,310,0,1,,,,,,,,,1,,,79,0
670415,note_off,95,0,3,,,,,,,,,3,,,71,0
670440,note_on,25,0,3,,,,,,,,,3,,,64,68
670500,control_change,60,0,3,,,,,,,64,0,3,,,,
670535,note_off,35,0,3,,,,,,,,,3,,,64,0
670560,note_on,0,0,5,,,,,,,,,5,,,40,68
670560,control_change,25,0,3,,,,,,,64,127,3,,,,
670560,note_on,2090,0,5,,,,,,,,,5,,,52,68
670680,note_on,120,0,3,,,,,,,,,3,,,68,69
670775,note_off,95,0,3,,,,,,,,,3,,,68,0
670800,note_on,25,0,3,,,,,,,,,3,,,71,69
670870,note_off,310,0,5,,,,,,,,,5,,,40,0
670870,note_off,0,0,5,,,,,,,,,5,,,52,0
670895,note_off,95,0,3,,,,,,,,,3,,,71,0
670920,note_on,25,0,3,,,,,,,,,3,,,68,69
670980,control_change,60,0,3,,,,,,,64,0,3,,,,
671015,note_off,35,0,3,,,,,,,,,3,,,68,0
671040,note_on,0,0,5,,,,,,,,,5,,,49,70
671040,note_on,170,0,5,,,,,,,,,5,,,37,70
671040,control_change,25,0,3,,,,,,,64,127,3,,,,
671160,note_on,120,0,3,,,,,,,,,3,,,67,70
671255,note_off,95,0,3,,,,,,,,,3,,,67,0
671280,note_on,25,0,3,,,,,,,,,3,,,76,70
671350,note_off,310,0,5,,,,,,,,,5,,,49,0
671350,note_off,0,0,5,,,,,,,,,5,,,37,0
671375,note_off,95,0,3,,,,,,,,,3,,,76,0
671400,note_on,25,0,3,,,,,,,,,3,,,67,70
671460,control_change,60,0,3,,,,,,,64,0,3,,,,
671495,note_off,35,0,3,,,,,,,,,3,,,67,0
671520,note_on,0,0,5,,,,,,,,,5,,,33,71
671520,note_on,170,0,5,,,,,,,,,5,,,45,71
671520,control_change,25,0,3,,,,,,,64,127,3,,,,
671640,note_on,120,0,3,,,,,,,,,3,,,67,71
671735,note_off,95,0,3,,,,,,,,,3,,,67,0
671760,note_on,25,0,3,,,,,,,,,3,,,73,71
671830,note_off,0,0,5,,,,,,,,,5,,,45,0
671830,note_off,310,0,5,,,,,,,,,5,,,33,0
671855,note_off,95,0,3,,,,,,,,,3,,,73,0
671880,note_on,25,0,3,,,,,,,,,3,,,67,72
671940,control_change,60,0,3,,,,,,,64,0,3,,,,
671960,set_tempo,3800,1,0,,,,,,487804,,,,,,,
671975,note_off,35,0,3,,,,,,,,,3,,,67,0
672000,note_on,170,0,5,,,,,,,,,5,,,38,72
672000,note_on,0,0,5,,,,,,,,,5,,,50,72
672000,set_tempo,40,1,0,,,,,,480000,,,,,,,
672000,control_change,25,0,3,,,,,,,64,127,3,,,,
672120,note_on,120,0,3,,,,,,,,,3,,,66,72
672215,note_off,95,0,3,,,,,,,,,3,,,66,0
672240,note_on,25,0,3,,,,,,,,,3,,,74,73
672310,note_off,310,0,5,,,,,,,,,5,,,50,0
672310,note_off,0,0,5,,,,,,,,,5,,,38,0
672335,note_off,95,0,3,,,,,,,,,3,,,74,0
672360,note_on,25,0,3,,,,,,,,,3,,,66,73
672420,control_change,60,0,3,,,,,,,64,0,3,,,,
672455,note_off,35,0,3,,,,,,,,,3,,,66,0
672480,control_change,25,0,3,,,,,,,64,127,3,,,,
672480,note_on,2090,0,1,,,,,,,,,1,,,81,73
672600,note_on,120,0,3,,,,,,,,,3,,,66,74
672695,note_off,95,0,3,,,,,,,,,3,,,66,0
672720,note_on,25,0,3,,,,,,,,,3,,,74,74
672790,note_off,310,0,1,,,,,,,,,1,,,81,0
672815,note_off,95,0,3,,,,,,,,,3,,,74,0
672840,note_on,25,0,3,,,,,,,,,3,,,66,74
672900,control_change,60,0,3,,,,,,,64,0,3,,,,
672920,set_tempo,920,1,0,,,,,,487804,,,,,,,
672935,note_off,35,0,3,,,,,,,,,3,,,66,0
672960,set_tempo,40,1,0,,,,,,480000,,,,,,,
672960,note_on,650,0,5,,,,,,,,,5,,,55,74
672960,note_on,0,0,5,,,,,,,,,5,,,43,74
672960,control_change,25,0,3,,,,,,,64,127,3,,,,
673080,note_on,120,0,3,,,,,,,,,3,,,64,75
673175,note_off,95,0,3,,,,,,,,,3,,,64,0
673200,note_on,25,0,3,,,,,,,,,3,,,74,75
673270,note_off,310,0,5,,,,,,,,,5,,,43,0
673270,note_off,0,0,5,,,,,,,,,5,,,55,0
673295,note_off,95,0,3,,,,,,,,,3,,,74,0
673320,note_on,25,0,3,,,,,,,,,3,,,64,75
673380,control_change,60,0,3,,,,,,,64,0,3,,,,
673415,note_off,35,0,3,,,,,,,,,3,,,64,0
673440,control_change,25,0,3,,,,,,,64,127,3,,,,
673440,note_on,650,0,1,,,,,,,,,1,,,83,76
673560,note_on,120,0,3,,,,,,,,,3,,,64,76
673655,note_off,95,0,3,,,,,,,,,3,,,64,0
673680,note_on,25,0,3,,,,,,,,,3,,,74,76
673750,note_off,310,0,1,,,,,,,,,1,,,83,0
673775,note_off,95,0,3,,,,,,,,,3,,,74,0
673800,note_on,25,0,3,,,,,,,,,3,,,64,77
673860,control_change,60,0,3,,,,,,,64,0,3,,,,
673880,set_tempo,920,1,0,,,,,,487804,,,,,,,
673895,note_off,35,0,3,,,,,,,,,3,,,64,0
673920,note_on,170,0,1,,,,,,,,,1,,,74,82
673920,control_change,25,0,3,,,,,,,64,127,3,,,,
673920,set_tempo,40,1,0,,,,,,480000,,,,,,,
674040,note_on,120,0,3,,,,,,,,,3,,,66,76
674135,note_off,95,0,3,,,,,,,,,3,,,66,0
674160,note_on,25,0,3,,,,,,,,,3,,,69,75
674255,note_off,95,0,3,,,,,,,,,3,,,69,0
674280,note_on,25,0,3,,,,,,,,,3,,,66,74
674340,control_change,60,0,3,,,,,,,64,0,3,,,,
674375,note_off,35,0,3,,,,,,,,,3,,,66,0
674400,note_on,0,0,1,,,,,,,,,1,,,73,73
674400,note_off,480,0,1,,,,,,,,,1,,,74,0
674400,control_change,25,0,3,,,,,,,64,127,3,,,,
674520,note_on,120,0,3,,,,,,,,,3,,,64,72
674615,note_off,95,0,3,,,,,,,,,3,,,64,0
674640,note_on,25,0,3,,,,,,,,,3,,,69,71
674735,note_off,95,0,3,,,,,,,,,3,,,69,0
674760,set_tempo,840,1,0,,,,,,500000,,,,,,,
674760,note_on,25,0,3,,,,,,,,,3,,,64,71
674785,note_off,385,0,1,,,,,,,,,1,,,73,0
674820,control_change,60,0,3,,,,,,,64,0,3,,,,
674855,note_off,35,0,3,,,,,,,,,3,,,64,0
674880,set_tempo,120,1,0,,,,,,495867,,,,,,,
674880,note_on,1610,0,5,,,,,,,,,5,,,57,70
674880,note_on,0,0,5,,,,,,,,,5,,,45,70
675190,note_off,0,0,5,,,,,,,,,5,,,57,0
675190,note_off,310,0,5,,,,,,,,,5,,,45,0
675360,note_on,0,0,5,,,,,,,,,5,,,42,66
675360,note_on,170,0,5,,,,,,,,,5,,,54,66
675670,note_off,0,0,5,,,,,,,,,5,,,54,0
675670,note_off,310,0,5,,,,,,,,,5,,,42,0
675720,set_tempo,840,1,0,,,,,,500000,,,,,,,
675780,control_change,925,0,3,,,,,,,64,0,3,,,,
675840,set_tempo,120,1,0,,,,,,480000,,,,,,,
675840,control_change,60,0,3,,,,,,,64,127,3,,,,
675840,note_on,0,0,5,,,,,,,,,5,,,50,66
675840,note_on,170,0,5,,,,,,,,,5,,,38,66
675960,note_on,120,0,3,,,,,,,,,3,,,66,66
676055,note_off,95,0,3,,,,,,,,,3,,,66,0
676080,note_on,25,0,3,,,,,,,,,3,,,69,67
676150,note_off,310,0,5,,,,,,,,,5,,,50,0
676150,note_off,0,0,5,,,,,,,,,5,,,38,0
676175,note_off,95,0,3,,,,,,,,,3,,,69,0
676200,note_on,25,0,3,,,,,,,,,3,,,66,67
676260,control_change,60,0,3,,,,,,,64,0,3,,,,
676295,note_off,35,0,3,,,,,,,,,3,,,66,0
676320,control_change,25,0,3,,,,,,,64,127,3,,,,
676320,note_on,1535,0,1,,,,,,,,,1,,,86,67
676440,note_on,120,0,3,,,,,,,,,3,,,66,68
676535,note_off,95,0,3,,,,,,,,,3,,,66,0
676560,note_on,25,0,3,,,,,,,,,3,,,69,68
676630,note_off,310,0,1,,,,,,,,,1,,,86,0
676655,note_off,95,0,3,,,,,,,,,3,,,69,0
676680,note_on,25,0,3,,,,,,,,,3,,,66,68
676740,control_change,60,0,3,,,,,,,64,0,3,,,,
676775,note_off,35,0,3,,,,,,,,,3,,,66,0
676800,note_on,170,0,1,,,,,,,,,1,,,83,68
676800,control_change,25,0,3,,,,,,,64,127,3,,,,
676920,note_on,120,0,3,,,,,,,,,3,,,66,69
677015,note_off,95,0,3,,,,,,,,,3,,,66,0
677040,note_on,25,0,3,,,,,,,,,3,,,74,69
677110,note_off,310,0,1,,,,,,,,,1,,,83,0
677135,note_off,95,0,3,,,,,,,,,3,,,74,0
677160,note_on,25,0,3,,,,,,,,,3,,,66,69
677220,control_change,60,0,3,,,,,,,64,0,3,,,,
677255,note_off,35,0,3,,,,,,,,,3,,,66,0
677280,note_on,170,0,1,,,,,,,,,1,,,81,69
677280,control_change,25,0,3,,,,,,,64,127,3,,,,
677400,note_on,120,0,3,,,,,,,,,3,,,66,70
677495,note_off,95,0,3,,,,,,,,,3,,,66,0
677520,note_on,25,0,3,,,,,,,,,3,,,74,70
677590,note_off,310,0,1,,,,,,,,,1,,,81,0
677615,note_off,95,0,3,,,,,,,,,3,,,74,0
677640,note_on,25,0,3,,,,,,,,,3,,,66,70
677700,control_change,60,0,3,,,,,,,64,0,3,,,,
677735,note_off,35,0,3,,,,,,,,,3,,,66,0
677760,control_change,25,0,3,,,,,,,64,127,3,,,,
677760,note_on,170,0,1,,,,,,,,,1,,,80,70
677880,note_on,120,0,3,,,,,,,,,3,,,64,71
677975,note_off,95,0,3,,,,,,,,,3,,,64,0
678000,note_on,25,0,3,,,,,,,,,3,,,74,71
678070,note_off,310,0,1,,,,,,,,,1,,,80,0
678095,note_off,95,0,3,,,,,,,,,3,,,74,0
678120,note_on,25,0,3,,,,,,,,,3,,,64,71
678180,control_change,60,0,3,,,,,,,64,0,3,,,,
678215,note_off,35,0,3,,,,,,,,,3,,,64,0
678240,note_on,0,0,5,,,,,,,,,5,,,35,72
678240,note_on,2090,0,5,,,,,,,,,5,,,47,72
678240,control_change,25,0,3,,,,,,,64,127,3,,,,
678360,note_on,120,0,3,,,,,,,,,3,,,68,72
678455,note_off,95,0,3,,,,,,,,,3,,,68,0
678480,note_on,25,0,3,,,,,,,,,3,,,74,72
678550,note_off,310,0,5,,,,,,,,,5,,,35,0
678550,note_off,0,0,5,,,,,,,,,5,,,47,0
678575,note_off,95,0,3,,,,,,,,,3,,,74,0
678600,note_on,25,0,3,,,,,,,,,3,,,68,72
678660,control_change,60,0,3,,,,,,,64,0,3,,,,
678695,note_off,35,0,3,,,,,,,,,3,,,68,0
678720,note_on,170,0,5,,,,,,,,,5,,,52,73
678720,control_change,25,0,3,,,,,,,64,127,3,,,,
678720,note_on,0,0,5,,,,,,,,,5,,,40,73
678840,note_on,120,0,3,,,,,,,,,3,,,68,73
678935,note_off,95,0,3,,,,,,,,,3,,,68,0
678960,note_on,25,0,3,,,,,,,,,3,,,71,73
679030,note_off,0,0,5,,,,,,,,,5,,,52,0
679030,note_off,310,0,5,,,,,,,,,5,,,40,0
679055,note_off,95,0,3,,,,,,,,,3,,,71,0
679080,note_on,25,0,3,,,,,,,,,3,,,68,73
679140,control_change,60,0,3,,,,,,,64,0,3,,,,
679175,note_off,35,0,3,,,,,,,,,3,,,68,0
679200,note_on,170,0,5,,,,,,,,,5,,,50,74
679200,note_on,0,0,5,,,,,,,,,5,,,38,74
679200,control_change,25,0,3,,,,,,,64,127,3,,,,
679320,note_on,120,0,3,,,,,,,,,3,,,68,74
679415,note_off,95,0,3,,,,,,,,,3,,,68,0
679440,note_on,25,0,3,,,,,,,,,3,,,71,74
679510,note_off,310,0,5,,,,,,,,,5,,,38,0
679510,note_off,0,0,5,,,,,,,,,5,,,50,0
679535,note_off,95,0,3,,,,,,,,,3,,,71,0
679560,note_on,25,0,3,,,,,,,,,3,,,68,75
679620,control_change,60,0,3,,,,,,,64,0,3,,,,
679640,set_tempo,3800,1,0,,,,,,487804,,,,,,,
679655,note_off,35,0,3,,,,,,,,,3,,,68,0
679680,control_change,25,0,3,,,,,,,64,127,3,,,,
679680,set_tempo,40,1,0,,,,,,480000,,,,,,,
679680,note_on,0,0,5,,,,,,,,,5,,,37,75
679680,note_on,170,0,5,,,,,,,,,5,,,49,75
679800,note_on,120,0,3,,,,,,,,,3,,,69,75
679895,note_off,95,0,3,,,,,,,,,3,,,69,0
679920,note_on,25,0,3,,,,,,,,,3,,,73,75
679990,note_off,0,0,5,,,,,,,,,5,,,49,0
679990,note_off,310,0,5,,,,,,,,,5,,,37,0
680015,note_off,95,0,3,,,,,,,,,3,,,73,0
680040,note_on,25,0,3,,,,,,,,,3,,,69,76
680100,control_change,60,0,3,,,,,,,64,0,3,,,,
680135,note_off,35,0,3,,,,,,,,,3,,,69,0
680160,control_change,25,0,3,,,,,,,64,127,3,,,,
680160,note_on,2090,0,1,,,,,,,,,1,,,76,76
680280,note_on,120,0,3,,,,,,,,,3,,,61,76
680375,note_off,95,0,3,,,,,,,,,3,,,61,0
680400,note_on,25,0,3,,,,,,,,,3,,,69,76
680470,note_off,310,0,1,,,,,,,,,1,,,76,0
680495,note_off,95,0,3,,,,,,,,,3,,,69,0
680520,note_on,25,0,3,,,,,,,,,3,,,61,77
680580,control_change,60,0,3,,,,,,,64,0,3,,,,
680600,set_tempo,920,1,0,,,,,,487804,,,,,,,
680615,note_off,35,0,3,,,,,,,,,3,,,61,0
680640,note_on,0,0,5,,,,,,,,,5,,,52,77
680640,note_on,650,0,5,,,,,,,,,5,,,40,77
680640,control_change,25,0,3,,,,,,,64,127,3,,,,
680640,set_tempo,40,1,0,,,,,,480000,,,,,,,
680760,note_on,120,0,3,,,,,,,,,3,,,59,77
680855,note_off,95,0,3,,,,,,,,,3,,,59,0
680880,note_on,25,0,3,,,,,,,,,3,,,68,78
680950,note_off,0,0,5,,,,,,,,,5,,,40,0
680950,note_off,310,0,5,,,,,,,,,5,,,52,0
680975,note_off,95,0,3,,,,,,,,,3,,,68,0
681000,note_on,25,0,3,,,,,,,,,3,,,59,78
681060,control_change,60,0,3,,,,,,,64,0,3,,,,
681095,note_off,35,0,3,,,,,,,,,3,,,59,0
681120,note_on,650,0,1,,,,,,,,,1,,,68,78
681120,control_change,25,0,3,,,,,,,64,127,3,,,,
681240,note_on,120,0,3,,,,,,,,,3,,,59,78
681335,note_off,95,0,3,,,,,,,,,3,,,59,0
681360,note_on,25,0,3,,,,,,,,,3,,,64,79
681430,note_off,310,0,1,,,,,,,,,1,,,68,0
681455,note_off,95,0,3,,,,,,,,,3,,,64,0
681480,note_on,25,0,3,,,,,,,,,3,,,59,79
681540,control_change,60,0,3,,,,,,,64,0,3,,,,
681560,set_tempo,920,1,0,,,,,,487804,,,,,,,
681575,note_off,35,0,3,,,,,,,,,3,,,59,0
681600,control_change,25,0,3,,,,,,,64,127,3,,,,
681600,set_tempo,40,1,0,,,,,,480000,,,,,,,
681600,note_on,170,0,1,,,,,,,,,1,,,71,77
681720,note_on,120,0,3,,,,,,,,,3,,,62,77
681815,note_off,95,0,3,,,,,,,,,3,,,62,0
681840,note_on,25,0,3,,,,,,,,,3,,,64,77
681935,note_off,95,0,3,,,,,,,,,3,,,64,0
681960,note_on,25,0,3,,,,,,,,,3,,,62,76
682020,control_change,60,0,3,,,,,,,64,0,3,,,,
682055,note_off,35,0,3,,,,,,,,,3,,,62,0
682080,control_change,25,0,3,,,,,,,64,127,3,,,,
682080,note_off,480,0,1,,,,,,,,,1,,,71,0
682080,note_on,0,0,1,,,,,,,,,1,,,69,71
682200,note_on,120,0,3,,,,,,,,,3,,,61,76
682295,note_off,95,0,3,,,,,,,,,3,,,61,0
682320,note_on,25,0,3,,,,,,,,,3,,,64,76
682415,note_off,95,0,3,,,,,,,,,3,,,64,0
682440,note_off,360,0,1,,,,,,,,,1,,,69,0
682440,set_tempo,840,1,0,,,,,,495867,,,,,,,
682440,note_on,25,0,3,,,,,,,,,3,,,61,75
682500,control_change,60,0,3,,,,,,,64,0,3,,,,
682535,note_off,35,0,3,,,,,,,,,3,,,61,0
682560,control_change,25,0,3,,,,,,,64,0,3,,,,
682560,control_change,15360,0,2,,,,,,,64,0,2,,,,
682560,control_change,15360,0,4,,,,,,,64,0,4,,,,
682560,set_tempo,120,1,0,,,,,,495867,,,,,,,
682560,note_on,0,0,5,,,,,,,,,5,,,45,70
682560,note_on,0,0,5,,,,,,,,,5,,,57,70
682560,control_change,120,0,1,,,,,,,64,0,1,,,,
682560,control_change,1610,0,5,,,,,,,64,0,5,,,,
682870,note_off,0,0,5,,,,,,,,,5,,,45,0
682870,note_off,310,0,5,,,,,,,,,5,,,57,0
683040,note_on,170,0,5,,,,,,,,,5,,,54,64
683040,note_on,0,0,5,,,,,,,,,5,,,42,64
683350,note_off,310,0,5,,,,,,,,,5,,,42,0
683350,note_off,0,0,5,,,,,,,,,5,,,54,0
683400,set_tempo,840,1,0,,,,,,495867,,,,,,,
683520,control_change,960,0,3,,,,,,,64,127,3,,,,
683520,set_tempo,120,1,0,,,,,,480000,,,,,,,
683520,note_on,170,0,5,,,,,,,,,5,,,38,62
683520,note_on,0,0,5,,,,,,,,,5,,,50,62
683640,note_on,120,0,3,,,,,,,,,3,,,62,63
683735,note_off,95,0,3,,,,,,,,,3,,,62,0
683760,note_on,25,0,3,,,,,,,,,3,,,66,63
683830,note_off,0,0,5,,,,,,,,,5,,,38,0
683830,note_off,310,0,5,,,,,,,,,5,,,50,0
683855,note_off,95,0,3,,,,,,,,,3,,,66,0
683880,note_on,25,0,3,,,,,,,,,3,,,62,63
683940,control_change,60,0,3,,,,,,,64,0,3,,,,
683975,note_off,35,0,3,,,,,,,,,3,,,62,0
684000,control_change,25,0,3,,,,,,,64,127,3,,,,
684000,note_on,1440,0,1,,,,,,,,,1,,,81,64
684120,note_on,120,0,3,,,,,,,,,3,,,62,64
684215,note_off,95,0,3,,,,,,,,,3,,,62,0
684240,note_on,25,0,3,,,,,,,,,3,,,66,64
684310,note_off,310,0,1,,,,,,,,,1,,,81,0
684335,note_off,95,0,3,,,,,,,,,3,,,66,0
684360,note_on,25,0,3,,,,,,,,,3,,,62,64
684420,control_change,60,0,3,,,,,,,64,0,3,,,,
684455,note_off,35,0,3,,,,,,,,,3,,,62,0
684480,control_change,25,0,3,,,,,,,64,127,3,,,,
684480,note_on,170,0,1,,,,,,,,,1,,,83,65
684600,note_on,120,0,3,,,,,,,,,3,,,62,65
684695,note_off,95,0,3,,,,,,,,,3,,,62,0
684720,note_on,25,0,3,,,,,,,,,3,,,66,65
684790,note_off,310,0,1,,,,,,,,,1,,,83,0
684815,note_off,95,0,3,,,,,,,,,3,,,66,0
684840,note_on,25,0,3,,,,,,,,,3,,,62,66
684900,control_change,60,0,3,,,,,,,64,0,3,,,,
684935,note_off,35,0,3,,,,,,,,,3,,,62,0
684960,control_change,25,0,3,,,,,,,64,127,3,,,,
684960,note_on,170,0,1,,,,,,,,,1,,,78,66
685080,note_on,120,0,3,,,,,,,,,3,,,63,66
685175,note_off,95,0,3,,,,,,,,,3,,,63,0
685200,note_on,25,0,3,,,,,,,,,3,,,71,67
685270,note_off,310,0,1,,,,,,,,,1,,,78,0
685295,note_off,95,0,3,,,,,,,,,3,,,71,0
685320,note_on,25,0,3,,,,,,,,,3,,,63,67
685380,control_change,60,0,3,,,,,,,64,0,3,,,,
685415,note_off,35,0,3,,,,,,,,,3,,,63,0
685440,control_change,25,0,3,,,,,,,64,127,3,,,,
685440,note_on,170,0,1,,,,,,,,,1,,,79,67
685560,note_on,120,0,3,,,,,,,,,3,,,64,67
685655,note_off,95,0,3,,,,,,,,,3,,,64,0
685680,note_on,25,0,3,,,,,,,,,3,,,71,68
685750,note_off,310,0,1,,,,,,,,,1,,,79,0
685775,note_off,95,0,3,,,,,,,,,3,,,71,0
685800,note_on,25,0,3,,,,,,,,,3,,,64,68
685860,control_change,60,0,3,,,,,,,64,0,3,,,,
685895,note_off,35,0,3,,,,,,,,,3,,,64,0
685920,control_change,25,0,3,,,,,,,64,127,3,,,,
685920,note_on,0,0,5,,,,,,,,,5,,,52,68
685920,note_on,2090,0,5,,,,,,,,,5,,,40,68
686040,note_on,120,0,3,,,,,,,,,3,,,68,69
686135,note_off,95,0,3,,,,,,,,,3,,,68,0
686160,note_on,25,0,3,,,,,,,,,3,,,71,69
686230,note_off,0,0,5,,,,,,,,,5,,,40,0
686230,note_off,310,0,5,,,,,,,,,5,,,52,0
686255,note_off,95,0,3,,,,,,,,,3,,,71,0
686280,note_on,25,0,3,,,,,,,,,3,,,68,69
686340,control_change,60,0,3,,,,,,,64,0,3,,,,
686375,note_off,35,0,3,,,,,,,,,3,,,68,0
686400,note_on,170,0,5,,,,,,,,,5,,,49,70
686400,control_change,25,0,3,,,,,,,64,127,3,,,,
686400,note_on,0,0,5,,,,,,,,,5,,,37,70
686520,note_on,120,0,3,,,,,,,,,3,,,67,70
686615,note_off,95,0,3,,,,,,,,,3,,,67,0
686640,note_on,25,0,3,,,,,,,,,3,,,76,70
686710,note_off,0,0,5,,,,,,,,,5,,,49,0
686710,note_off,310,0,5,,,,,,,,,5,,,37,0
686735,note_off,95,0,3,,,,,,,,,3,,,76,0
686760,note_on,25,0,3,,,,,,,,,3,,,67,70
686820,control_change,60,0,3,,,,,,,64,0,3,,,,
686855,note_off,35,0,3,,,,,,,,,3,,,67,0
686880,control_change,25,0,3,,,,,,,64,127,3,,,,
686880,note_on,170,0,5,,,,,,,,,5,,,33,71
686880,note_on,0,0,5,,,,,,,,,5,,,45,71
687000,note_on,120,0,3,,,,,,,,,3,,,67,71
687095,note_off,95,0,3,,,,,,,,,3,,,67,0
687120,note_on,25,0,3,,,,,,,,,3,,,73,71
687190,note_off,0,0,5,,,,,,,,,5,,,33,0
687190,note_off,310,0,5,,,,,,,,,5,,,45,0
687215,note_off,95,0,3,,,,,,,,,3,,,73,0
687240,note_on,25,0,3,,,,,,,,,3,,,67,72
687300,control_change,60,0,3,,,,,,,64,0,3,,,,
687320,set_tempo,3800,1,0,,,,,,487804,,,,,,,
687335,note_off,35,0,3,,,,,,,,,3,,,67,0
687360,note_on,0,0,5,,,,,,,,,5,,,38,72
687360,note_on,170,0,5,,,,,,,,,5,,,50,72
687360,control_change,25,0,3,,,,,,,64,127,3,,,,
687360,set_tempo,40,1,0,,,,,,480000,,,,,,,
687480,note_on,120,0,3,,,,,,,,,3,,,66,72
687575,note_off,95,0,3,,,,,,,,,3,,,66,0
687600,note_on,25,0,3,,,,,,,,,3,,,74,73
687670,note_off,0,0,5,,,,,,,,,5,,,50,0
687670,note_off,310,0,5,,,,,,,,,5,,,38,0
687695,note_off,95,0,3,,,,,,,,,3,,,74,0
687720,note_on,25,0,3,,,,,,,,,3,,,66,73
687780,control_change,60,0,3,,,,,,,64,0,3,,,,
687815,note_off,35,0,3,,,,,,,,,3,,,66,0
687840,note_on,2090,0,1,,,,,,,,,1,,,81,73
687840,control_change,25,0,3,,,,,,,64,127,3,,,,
687960,note_on,120,0,3,,,,,,,,,3,,,66,74
688055,note_off,95,0,3,,,,,,,,,3,,,66,0
688080,note_on,25,0,3,,,,,,,,,3,,,74,74
688150,note_off,310,0,1,,,,,,,,,1,,,81,0
688175,note_off,95,0,3,,,,,,,,,3,,,74,0
688200,note_on,25,0,3,,,,,,,,,3,,,66,74
688260,control_change,60,0,3,,,,,,,64,0,3,,,,
688280,set_tempo,920,1,0,,,,,,487804,,,,,,,
688295,note_off,35,0,3,,,,,,,,,3,,,66,0
688320,set_tempo,40,1,0,,,,,,480000,,,,,,,
688320,note_on,650,0,5,,,,,,,,,5,,,43,74
688320,note_on,0,0,5,,,,,,,,,5,,,55,74
688320,control_change,25,0,3,,,,,,,64,127,3,,,,
688440,note_on,120,0,3,,,,,,,,,3,,,64,75
688535,note_off,95,0,3,,,,,,,,,3,,,64,0
688560,note_on,25,0,3,,,,,,,,,3,,,74,75
688630,note_off,0,0,5,,,,,,,,,5,,,43,0
688630,note_off,310,0,5,,,,,,,,,5,,,55,0
688655,note_off,95,0,3,,,,,,,,,3,,,74,0
688680,note_on,25,0,3,,,,,,,,,3,,,64,75
688740,control_change,60,0,3,,,,,,,64,0,3,,,,
688775,note_off,35,0,3,,,,,,,,,3,,,64,0
688800,control_change,25,0,3,,,,,,,64,127,3,,,,
688800,note_on,650,0,1,,,,,,,,,1,,,83,76
688920,note_on,120,0,3,,,,,,,,,3,,,64,76
689015,note_off,95,0,3,,,,,,,,,3,,,64,0
689040,note_on,25,0,3,,,,,,,,,3,,,74,76
689110,note_off,310,0,1,,,,,,,,,1,,,83,0
689135,note_off,95,0,3,,,,,,,,,3,,,74,0
689160,note_on,25,0,3,,,,,,,,,3,,,64,77
689220,control_change,60,0,3,,,,,,,64,0,3,,,,
689240,set_tempo,920,1,0,,,,,,487804,,,,,,,
689255,note_off,35,0,3,,,,,,,,,3,,,64,0
689280,control_change,25,0,3,,,,,,,64,127,3,,,,
689280,note_on,170,0,1,,,,,,,,,1,,,74,82
689280,set_tempo,40,1,0,,,,,,480000,,,,,,,
689400,note_on,120,0,3,,,,,,,,,3,,,66,76
689495,note_off,95,0,3,,,,,,,,,3,,,66,0
689520,note_on,25,0,3,,,,,,,,,3,,,69,75
689615,note_off,95,0,3,,,,,,,,,3,,,69,0
689640,note_on,25,0,3,,,,,,,,,3,,,66,74
689700,control_change,60,0,3,,,,,,,64,0,3,,,,
689735,note_off,35,0,3,,,,,,,,,3,,,66,0
689760,note_off,480,0,1,,,,,,,,,1,,,74,0
689760,note_on,0,0,1,,,,,,,,,1,,,73,73
689760,control_change,25,0,3,,,,,,,64,127,3,,,,
689880,note_on,120,0,3,,,,,,,,,3,,,64,72
689975,note_off,95,0,3,,,,,,,,,3,,,64,0
690000,note_on,25,0,3,,,,,,,,,3,,,69,71
690095,note_off,95,0,3,,,,,,,,,3,,,69,0
690120,set_tempo,840,1,0,,,,,,500000,,,,,,,
690120,note_on,25,0,3,,,,,,,,,3,,,64,71
690145,note_off,385,0,1,,,,,,,,,1,,,73,0
690180,control_change,60,0,3,,,,,,,64,0,3,,,,
690215,note_off,35,0,3,,,,,,,,,3,,,64,0
690240,note_on,0,0,5,,,,,,,,,5,,,57,70
690240,note_on,1610,0,5,,,,,,,,,5,,,45,70
690240,set_tempo,120,1,0,,,,,,495867,,,,,,,
690550,note_off,0,0,5,,,,,,,,,5,,,45,0
690550,note_off,310,0,5,,,,,,,,,5,,,57,0
690720,note_on,0,0,5,,,,,,,,,5,,,54,66
690720,note_on,170,0,5,,,,,,,,,5,,,42,66
691030,note_off,0,0,5,,,,,,,,,5,,,42,0
691030,note_off,310,0,5,,,,,,,,,5,,,54,0
691080,set_tempo,840,1,0,,,,,,500000,,,,,,,
691140,control_change,925,0,3,,,,,,,64,0,3,,,,
691200,control_change,60,0,3,,,,,,,64,127,3,,,,
691200,note_on,0,0,5,,,,,,,,,5,,,38,66
691200,note_on,170,0,5,,,,,,,,,5,,,50,66
691200,set_tempo,120,1,0,,,,,,480000,,,,,,,
691320,note_on,120,0,3,,,,,,,,,3,,,66,66
691415,note_off,95,0,3,,,,,,,,,3,,,66,0
691440,note_on,25,0,3,,,,,,,,,3,,,69,67
691510,note_off,310,0,5,,,,,,,,,5,,,38,0
691510,note_off,0,0,5,,,,,,,,,5,,,50,0
691535,note_off,95,0,3,,,,,,,,,3,,,69,0
691560,note_on,25,0,3,,,,,,,,,3,,,66,67
691620,control_change,60,0,3,,,,,,,64,0,3,,,,
691655,note_off,35,0,3,,,,,,,,,3,,,66,0
691680,control_change,25,0,3,,,,,,,64,127,3,,,,
691680,note_on,1535,0,1,,,,,,,,,1,,,86,67
691800,note_on,120,0,3,,,,,,,,,3,,,66,68
691895,note_off,95,0,3,,,,,,,,,3,,,66,0
691920,note_on,25,0,3,,,,,,,,,3,,,69,68
691990,note_off,310,0,1,,,,,,,,,1,,,86,0
692015,note_off,95,0,3,,,,,,,,,3,,,69,0
692040,note_on,25,0,3,,,,,,,,,3,,,66,68
692100,control_change,60,0,3,,,,,,,64,0,3,,,,
692135,note_off,35,0,3,,,,,,,,,3,,,66,0
692160,note_on,170,0,1,,,,,,,,,1,,,83,68
692160,control_change,25,0,3,,,,,,,64,127,3,,,,
692280,note_on,120,0,3,,,,,,,,,3,,,66,69
692375,note_off,95,0,3,,,,,,,,,3,,,66,0
692400,note_on,25,0,3,,,,,,,,,3,,,74,69
692470,note_off,310,0,1,,,,,,,,,1,,,83,0
692495,note_off,95,0,3,,,,,,,,,3,,,74,0
692520,note_on,25,0,3,,,,,,,,,3,,,66,69
692580,control_change,60,0,3,,,,,,,64,0,3,,,,
692615,note_off,35,0,3,,,,,,,,,3,,,66,0
692640,note_on,170,0,1,,,,,,,,,1,,,81,69
692640,control_change,25,0,3,,,,,,,64,127,3,,,,
692760,note_on,120,0,3,,,,,,,,,3,,,66,70
692855,note_off,95,0,3,,,,,,,,,3,,,66,0
692880,note_on,25,0,3,,,,,,,,,3,,,74,70
692950,note_off,310,0,1,,,,,,,,,1,,,81,0
692975,note_off,95,0,3,,,,,,,,,3,,,74,0
693000,note_on,25,0,3,,,,,,,,,3,,,66,70
693060,control_change,60,0,3,,,,,,,64,0,3,,,,
693095,note_off,35,0,3,,,,,,,,,3,,,66,0
693120,control_change,25,0,3,,,,,,,64,127,3,,,,
693120,note_on,170,0,1,,,,,,,,,1,,,80,70
693240,note_on,120,0,3,,,,,,,,,3,,,64,71
693335,note_off,95,0,3,,,,,,,,,3,,,64,0
693360,note_on,25,0,3,,,,,,,,,3,,,74,71
693430,note_off,310,0,1,,,,,,,,,1,,,80,0
693455,note_off,95,0,3,,,,,,,,,3,,,74,0
693480,note_on,25,0,3,,,,,,,,,3,,,64,71
693540,control_change,60,0,3,,,,,,,64,0,3,,,,
693575,note_off,35,0,3,,,,,,,,,3,,,64,0
693600,control_change,25,0,3,,,,,,,64,127,3,,,,
693600,note_on,2090,0,5,,,,,,,,,5,,,35,72
693600,note_on,0,0,5,,,,,,,,,5,,,47,72
693720,note_on,120,0,3,,,,,,,,,3,,,68,72
693815,note_off,95,0,3,,,,,,,,,3,,,68,0
693840,note_on,25,0,3,,,,,,,,,3,,,74,72
693910,note_off,0,0,5,,,,,,,,,5,,,35,0
693910,note_off,310,0,5,,,,,,,,,5,,,47,0
693935,note_off,95,0,3,,,,,,,,,3,,,74,0
693960,note_on,25,0,3,,,,,,,,,3,,,68,72
694020,control_change,60,0,3,,,,,,,64,0,3,,,,
694055,note_off,35,0,3,,,,,,,,,3,,,68,0
694080,note_on,170,0,5,,,,,,,,,5,,,40,73
694080,note_on,0,0,5,,,,,,,,,5,,,52,73
694080,control_change,25,0,3,,,,,,,64,127,3,,,,
694200,note_on,120,0,3,,,,,,,,,3,,,68,73
694295,note_off,95,0,3,,,,,,,,,3,,,68,0
694320,note_on,25,0,3,,,,,,,,,3,,,71,73
694390,note_off,0,0,5,,,,,,,,,5,,,40,0
694390,note_off,310,0,5,,,,,,,,,5,,,52,0
694415,note_off,95,0,3,,,,,,,,,3,,,71,0
694440,note_on,25,0,3,,,,,,,,,3,,,68,73
694500,control_change,60,0,3,,,,,,,64,0,3,,,,
694535,note_off,35,0,3,,,,,,,,,3,,,68,0
694560,note_on,0,0,5,,,,,,,,,5,,,50,74
694560,control_change,25,0,3,,,,,,,64,127,3,,,,
694560,note_on,170,0,5,,,,,,,,,5,,,38,74
694680,note_on,120,0,3,,,,,,,,,3,,,68,74
694775,note_off,95,0,3,,,,,,,,,3,,,68,0
694800,note_on,25,0,3,,,,,,,,,3,,,71,74
694870,note_off,0,0,5,,,,,,,,,5,,,38,0
694870,note_off,310,0,5,,,,,,,,,5,,,50,0
694895,note_off,95,0,3,,,,,,,,,3,,,71,0
694920,note_on,25,0,3,,,,,,,,,3,,,68,75
694980,control_change,60,0,3,,,,,,,64,0,3,,,,
695000,set_tempo,3800,1,0,,,,,,487804,,,,,,,
695015,note_off,35,0,3,,,,,,,,,3,,,68,0
695040,note_on,170,0,5,,,,,,,,,5,,,37,75
695040,note_on,0,0,5,,,,,,,,,5,,,49,75
695040,control_change,25,0,3,,,,,,,64,127,3,,,,
695040,set_tempo,40,1,0,,,,,,480000,,,,,,,
695160,note_on,120,0,3,,,,,,,,,3,,,69,75
695255,note_off,95,0,3,,,,,,,,,3,,,69,0
695280,note_on,25,0,3,,,,,,,,,3,,,73,75
695350,note_off,0,0,5,,,,,,,,,5,,,37,0
695350,note_off,310,0,5,,,,,,,,,5,,,49,0
695375,note_off,95,0,3,,,,,,,,,3,,,73,0
695400,note_on,25,0,3,,,,,,,,,3,,,69,76
695460,control_change,60,0,3,,,,,,,64,0,3,,,,
695495,note_off,35,0,3,,,,,,,,,3,,,69,0
695520,control_change,25,0,3,,,,,,,64,127,3,,,,
695520,note_on,2090,0,1,,,,,,,,,1,,,76,76
695640,note_on,120,0,3,,,,,,,,,3,,,61,76
695735,note_off,95,0,3,,,,,,,,,3,,,61,0
695760,note_on,25,0,3,,,,,,,,,3,,,69,76
695830,note_off,310,0,1,,,,,,,,,1,,,76,0
695855,note_off,95,0,3,,,,,,,,,3,,,69,0
695880,note_on,25,0,3,,,,,,,,,3,,,61,77
695940,control_change,60,0,3,,,,,,,64,0,3,,,,
695960,set_tempo,920,1,0,,,,,,487804,,,,,,,
695975,note_off,35,0,3,,,,,,,,,3,,,61,0
696000,set_tempo,40,1,0,,,,,,480000,,,,,,,
696000,control_change,25,0,3,,,,,,,64,127,3,,,,
696000,note_on,650,0,5,,,,,,,,,5,,,52,77
696000,note_on,0,0,5,,,,,,,,,5,,,40,77
696120,note_on,120,0,3,,,,,,,,,3,,,59,77
696215,note_off,95,0,3,,,,,,,,,3,,,59,0
696240,note_on,25,0,3,,,,,,,,,3,,,68,78
696310,note_off,310,0,5,,,,,,,,,5,,,40,0
696310,note_off,0,0,5,,,,,,,,,5,,,52,0
696335,note_off,95,0,3,,,,,,,,,3,,,68,0
696360,note_on,25,0,3,,,,,,,,,3,,,59,78
696420,control_change,60,0,3,,,,,,,64,0,3,,,,
696455,note_off,35,0,3,,,,,,,,,3,,,59,0
696480,note_on,650,0,1,,,,,,,,,1,,,68,78
696480,control_change,25,0,3,,,,,,,64,127,3,,,,
696600,note_on,120,0,3,,,,,,,,,3,,,59,78
696695,note_off,95,0,3,,,,,,,,,3,,,59,0
696720,note_on,25,0,3,,,,,,,,,3,,,64,79
696790,note_off,310,0,1,,,,,,,,,1,,,68,0
696815,note_off,95,0,3,,,,,,,,,3,,,64,0
696840,note_on,25,0,3,,,,,,,,,3,,,59,79
696900,control_change,60,0,3,,,,,,,64,0,3,,,,
696920,set_tempo,920,1,0,,,,,,487804,,,,,,,
696935,note_off,35,0,3,,,,,,,,,3,,,59,0
696960,control_change,25,0,3,,,,,,,64,127,3,,,,
696960,set_tempo,40,1,0,,,,,,480000,,,,,,,
696960,note_on,170,0,1,,,,,,,,,1,,,71,77
697080,note_on,120,0,3,,,,,,,,,3,,,62,77
697175,note_off,95,0,3,,,,,,,,,3,,,62,0
697200,note_on,25,0,3,,,,,,,,,3,,,64,77
697295,note_off,95,0,3,,,,,,,,,3,,,64,0
697320,note_on,25,0,3,,,,,,,,,3,,,62,76
697380,control_change,60,0,3,,,,,,,64,0,3,,,,
697415,note_off,35,0,3,,,,,,,,,3,,,62,0
697440,note_off,480,0,1,,,,,,,,,1,,,71,0
697440,note_on,0,0,1,,,,,,,,,1,,,69,71
697440,control_change,25,0,3,,,,,,,64,127,3,,,,
697560,note_on,120,0,3,,,,,,,,,3,,,61,76
697655,note_off,95,0,3,,,,,,,,,3,,,61,0
697680,note_on,25,0,3,,,,,,,,,3,,,64,76
697775,note_off,95,0,3,,,,,,,,,3,,,64,0
697800,set_tempo,840,1,0,,,,,,495867,,,,,,,
697800,note_on,25,0,3,,,,,,,,,3,,,61,75
697800,note_off,360,0,1,,,,,,,,,1,,,69,0
697860,control_change,60,0,3,,,,,,,64,0,3,,,,
697895,note_off,35,0,3,,,,,,,,,3,,,61,0
697920,control_change,25,0,3,,,,,,,64,127,3,,,,
697920,set_tempo,120,1,0,,,,,,480000,,,,,,,
697920,note_on,0,0,1,,,,,,,,,1,,,81,75
697920,control_change,15360,0,4,,,,,,,64,0,4,,,,
697920,control_change,15360,0,2,,,,,,,64,0,2,,,,
697920,control_change,1610,0,5,,,,,,,64,0,5,,,,
697920,control_change,120,0,1,,,,,,,64,0,1,,,,
698040,note_on,120,0,3,,,,,,,,,3,,,69,75
698135,note_off,95,0,3,,,,,,,,,3,,,69,0
698160,note_on,25,0,3,,,,,,,,,3,,,78,75
698230,note_off,310,0,1,,,,,,,,,1,,,81,0
698255,note_off,95,0,3,,,,,,,,,3,,,78,0
698280,note_on,25,0,3,,,,,,,,,3,,,69,74
698340,control_change,60,0,3,,,,,,,64,0,3,,,,
698375,note_off,35,0,3,,,,,,,,,3,,,69,0
698400,control_change,25,0,3,,,,,,,64,127,3,,,,
698400,note_on,170,0,1,,,,,,,,,1,,,84,74
698520,note_on,120,0,3,,,,,,,,,3,,,76,74
698615,note_off,95,0,3,,,,,,,,,3,,,76,0
698640,note_on,25,0,3,,,,,,,,,3,,,81,73
698710,note_off,310,0,1,,,,,,,,,1,,,84,0
698735,note_off,95,0,3,,,,,,,,,3,,,81,0
698760,note_on,25,0,3,,,,,,,,,3,,,76,73
698820,control_change,60,0,3,,,,,,,64,0,3,,,,
698855,note_off,35,0,3,,,,,,,,,3,,,76,0
698880,note_on,170,0,1,,,,,,,,,1,,,83,73
698880,control_change,25,0,3,,,,,,,64,127,3,,,,
699000,note_on,120,0,3,,,,,,,,,3,,,75,73
699095,note_off,95,0,3,,,,,,,,,3,,,75,0
699120,note_on,25,0,3,,,,,,,,,3,,,81,72
699190,note_off,310,0,1,,,,,,,,,1,,,83,0
699215,note_off,95,0,3,,,,,,,,,3,,,81,0
699240,note_on,25,0,3,,,,,,,,,3,,,75,72
699300,control_change,60,0,3,,,,,,,64,0,3,,,,
699335,note_off,35,0,3,,,,,,,,,3,,,75,0
699360,note_on,170,0,1,,,,,,,,,1,,,88,72
699360,control_change,25,0,3,,,,,,,64,127,3,,,,
699480,note_on,120,0,3,,,,,,,,,3,,,74,71
699575,note_off,95,0,3,,,,,,,,,3,,,74,0
699600,note_on,25,0,3,,,,,,,,,3,,,80,71
699670,note_off,310,0,1,,,,,,,,,1,,,88,0
699695,note_off,95,0,3,,,,,,,,,3,,,80,0
699720,note_on,25,0,3,,,,,,,,,3,,,74,71
699780,control_change,60,0,3,,,,,,,64,0,3,,,,
699815,note_off,35,0,3,,,,,,,,,3,,,74,0
699840,note_on,170,0,1,,,,,,,,,1,,,81,71
699840,control_change,25,0,3,,,,,,,64,127,3,,,,
699960,note_on,120,0,3,,,,,,,,,3,,,73,70
700055,note_off,95,0,3,,,,,,,,,3,,,73,0
700080,note_on,25,0,3,,,,,,,,,3,,,79,70
700150,note_off,310,0,1,,,,,,,,,1,,,81,0
700175,note_off,95,0,3,,,,,,,,,3,,,79,0
700200,note_on,25,0,3,,,,,,,,,3,,,73,70
700260,control_change,60,0,3,,,,,,,64,0,3,,,,
700295,note_off,35,0,3,,,,,,,,,3,,,73,0
700320,note_on,170,0,1,,,,,,,,,1,,,86,70
700320,control_change,25,0,3,,,,,,,64,127,3,,,,
700440,note_on,120,0,3,,,,,,,,,3,,,72,69
700535,note_off,95,0,3,,,,,,,,,3,,,72,0
700560,note_on,25,0,3,,,,,,,,,3,,,78,69
700630,note_off,310,0,1,,,,,,,,,1,,,86,0
700655,note_off,95,0,3,,,,,,,,,3,,,78,0
700680,note_on,25,0,3,,,,,,,,,3,,,72,69
700740,control_change,60,0,3,,,,,,,64,0,3,,,,
700760,set_tempo,2840,1,0,,,,,,487804,,,,,,,
700775,note_off,35,0,3,,,,,,,,,3,,,72,0
700800,control_change,25,0,3,,,,,,,64,127,3,,,,
700800,note_on,0,0,5,,,,,,,,,5,,,43,68
700800,note_on,2880,0,5,,,,,,,,,5,,,55,68
700800,set_tempo,40,1,0,,,,,,480000,,,,,,,
700920,note_on,120,0,3,,,,,,,,,3,,,71,68
701015,note_off,95,0,3,,,,,,,,,3,,,71,0
701040,note_on,25,0,3,,,,,,,,,3,,,83,68
701110,note_off,0,0,5,,,,,,,,,5,,,55,0
701110,note_off,310,0,5,,,,,,,,,5,,,43,0
701135,note_off,95,0,3,,,,,,,,,3,,,83,0
701160,note_on,25,0,3,,,,,,,,,3,,,71,68
701220,control_change,60,0,3,,,,,,,64,0,3,,,,
701255,note_off,35,0,3,,,,,,,,,3,,,71,0
701280,note_on,0,0,5,,,,,,,,,5,,,61,67
701280,control_change,25,0,3,,,,,,,64,127,3,,,,
701280,note_on,170,0,5,,,,,,,,,5,,,49,67
701400,note_on,120,0,3,,,,,,,,,3,,,76,67
701495,note_off,95,0,3,,,,,,,,,3,,,76,0
701520,note_on,25,0,3,,,,,,,,,3,,,79,67
701590,note_off,0,0,5,,,,,,,,,5,,,49,0
701590,note_off,310,0,5,,,,,,,,,5,,,61,0
701615,note_off,95,0,3,,,,,,,,,3,,,79,0
701640,note_on,25,0,3,,,,,,,,,3,,,76,66
701700,control_change,60,0,3,,,,,,,64,0,3,,,,
701735,note_off,35,0,3,,,,,,,,,3,,,76,0
701760,control_change,25,0,3,,,,,,,64,127,3,,,,
701760,note_on,170,0,5,,,,,,,,,5,,,42,66
701760,note_on,0,0,5,,,,,,,,,5,,,54,66
701880,note_on,120,0,3,,,,,,,,,3,,,69,66
701975,note_off,95,0,3,,,,,,,,,3,,,69,0
702000,note_on,25,0,3,,,,,,,,,3,,,81,66
702070,note_off,0,0,5,,,,,,,,,5,,,42,0
702070,note_off,310,0,5,,,,,,,,,5,,,54,0
702095,note_off,95,0,3,,,,,,,,,3,,,81,0
702120,note_on,25,0,3,,,,,,,,,3,,,69,65
702180,control_change,60,0,3,,,,,,,64,0,3,,,,
702215,note_off,35,0,3,,,,,,,,,3,,,69,0
702240,control_change,25,0,3,,,,,,,64,127,3,,,,
702240,note_on,170,0,5,,,,,,,,,5,,,47,65
702240,note_on,0,0,5,,,,,,,,,5,,,59,65
702360,note_on,120,0,3,,,,,,,,,3,,,74,65
702455,note_off,95,0,3,,,,,,,,,3,,,74,0
702480,note_on,25,0,3,,,,,,,,,3,,,78,65
702550,note_off,0,0,5,,,,,,,,,5,,,47,0
702550,note_off,310,0,5,,,,,,,,,5,,,59,0
702575,note_off,95,0,3,,,,,,,,,3,,,78,0
702600,note_on,25,0,3,,,,,,,,,3,,,74,64
702660,control_change,60,0,3,,,,,,,64,0,3,,,,
702695,note_off,35,0,3,,,,,,,,,3,,,74,0
702720,note_on,0,0,5,,,,,,,,,5,,,52,64
702720,note_on,170,0,5,,,,,,,,,5,,,40,64
702720,control_change,25,0,3,,,,,,,64,127,3,,,,
702840,note_on,120,0,3,,,,,,,,,3,,,71,64
702935,note_off,95,0,3,,,,,,,,,3,,,71,0
702960,note_on,25,0,3,,,,,,,,,3,,,79,63
703030,note_off,310,0,5,,,,,,,,,5,,,52,0
703030,note_off,0,0,5,,,,,,,,,5,,,40,0
703055,note_off,95,0,3,,,,,,,,,3,,,79,0
703080,note_on,25,0,3,,,,,,,,,3,,,71,63
703140,control_change,60,0,3,,,,,,,64,0,3,,,,
703175,note_off,35,0,3,,,,,,,,,3,,,71,0
703200,control_change,25,0,3,,,,,,,64,127,3,,,,
703200,note_on,2570,0,1,,,,,,,,,1,,,85,63
703320,note_on,120,0,3,,,,,,,,,3,,,69,63
703415,note_off,95,0,3,,,,,,,,,3,,,69,0
703440,note_on,25,0,3,,,,,,,,,3,,,79,62
703510,note_off,310,0,1,,,,,,,,,1,,,85,0
703535,note_off,95,0,3,,,,,,,,,3,,,79,0
703560,note_on,25,0,3,,,,,,,,,3,,,69,62
703620,control_change,60,0,3,,,,,,,64,0,3,,,,
703655,note_off,35,0,3,,,,,,,,,3,,,69,0
703680,control_change,25,0,3,,,,,,,64,127,3,,,,
703680,note_on,170,0,1,,,,,,,,,1,,,86,62
703800,note_on,120,0,3,,,,,,,,,3,,,69,61
703895,note_off,95,0,3,,,,,,,,,3,,,69,0
703920,note_on,25,0,3,,,,,,,,,3,,,78,61
703990,note_off,310,0,1,,,,,,,,,1,,,86,0
704015,note_off,95,0,3,,,,,,,,,3,,,78,0
704040,note_on,25,0,3,,,,,,,,,3,,,69,61
704100,control_change,60,0,3,,,,,,,64,0,3,,,,
704135,note_off,35,0,3,,,,,,,,,3,,,69,0
704160,note_on,170,0,1,,,,,,,,,1,,,74,61
704160,control_change,25,0,3,,,,,,,64,127,3,,,,
704280,note_on,120,0,3,,,,,,,,,3,,,68,60
704375,note_off,95,0,3,,,,,,,,,3,,,68,0
704400,note_on,25,0,3,,,,,,,,,3,,,71,60
704470,note_off,310,0,1,,,,,,,,,1,,,74,0
704495,note_off,95,0,3,,,,,,,,,3,,,71,0
704520,note_on,25,0,3,,,,,,,,,3,,,68,60
704580,control_change,60,0,3,,,,,,,64,0,3,,,,
704615,note_off,35,0,3,,,,,,,,,3,,,68,0
704640,control_change,25,0,3,,,,,,,64,127,3,,,,
704640,note_on,170,0,1,,,,,,,,,1,,,78,60
704760,note_on,120,0,3,,,,,,,,,3,,,69,59
704855,note_off,95,0,3,,,,,,,,,3,,,69,0
704880,note_on,25,0,3,,,,,,,,,3,,,74,59
704975,note_off,95,0,3,,,,,,,,,3,,,74,0
705000,note_on,25,0,3,,,,,,,,,3,,,69,59
705060,control_change,60,0,3,,,,,,,64,0,3,,,,
705095,note_off,35,0,3,,,,,,,,,3,,,69,0
705120,control_change,25,0,3,,,,,,,64,127,3,,,,
705120,note_on,0,0,1,,,,,,,,,1,,,76,58
705120,note_off,480,0,1,,,,,,,,,1,,,78,0
705240,note_on,120,0,3,,,,,,,,,3,,,69,58
705335,note_off,95,0,3,,,,,,,,,3,,,69,0
705360,note_on,25,0,3,,,,,,,,,3,,,73,58
705455,note_off,95,0,3,,,,,,,,,3,,,73,0
705480,set_tempo,4680,1,0,,,,,,500000,,,,,,,
705480,note_on,25,0,3,,,,,,,,,3,,,69,58
705505,note_off,385,0,1,,,,,,,,,1,,,76,0
705540,control_change,60,0,3,,,,,,,64,0,3,,,,
705575,note_off,35,0,3,,,,,,,,,3,,,69,0
705600,note_on,95,0,1,,,,,,,,,1,,,88,67
705600,note_on,7680,0,2,,,,,,,,,2,,,76,67
705910,note_off,310,0,1,,,,,,,,,1,,,88,0
705910,note_off,310,0,2,,,,,,,,,2,,,76,0
706080,note_on,170,0,1,,,,,,,,,1,,,85,66
706080,note_on,170,0,2,,,,,,,,,2,,,73,66
706390,note_off,310,0,1,,,,,,,,,1,,,85,0
706390,note_off,310,0,2,,,,,,,,,2,,,73,0
706560,note_on,170,0,2,,,,,,,,,2,,,69,65
706560,note_on,170,0,1,,,,,,,,,1,,,81,65
706870,note_off,310,0,1,,,,,,,,,1,,,81,0
706870,note_off,310,0,2,,,,,,,,,2,,,69,0
707400,set_tempo,1920,1,0,,,,,,508474,,,,,,,
707480,set_tempo,80,1,0,,,,,,495867,,,,,,,
707520,note_on,4490,0,5,,,,,,,,,5,,,57,62
707520,note_on,0,0,5,,,,,,,,,5,,,45,62
707830,note_off,310,0,5,,,,,,,,,5,,,45,0
707830,note_off,0,0,5,,,,,,,,,5,,,57,0
708000,note_on,170,0,5,,,,,,,,,5,,,54,61
708000,note_on,0,0,5,,,,,,,,,5,,,42,61
708310,note_off,0,0,5,,,,,,,,,5,,,54,0
708310,note_off,310,0,5,,,,,,,,,5,,,42,0
708360,set_tempo,880,1,0,,,,,,495867,,,,,,,
708480,set_tempo,120,1,0,,,,,,480000,,,,,,,
708480,note_on,0,0,5,,,,,,,,,5,,,38,63
708480,note_on,170,0,5,,,,,,,,,5,,,50,63
708600,note_on,3025,0,3,,,,,,,,,3,,,62,64
708695,note_off,95,0,3,,,,,,,,,3,,,62,0
708720,note_on,25,0,3,,,,,,,,,3,,,66,64
708790,note_off,0,0,5,,,,,,,,,5,,,50,0
708790,note_off,310,0,5,,,,,,,,,5,,,38,0
708815,note_off,95,0,3,,,,,,,,,3,,,66,0
708840,note_on,25,0,3,,,,,,,,,3,,,62,65
708935,note_off,95,0,3,,,,,,,,,3,,,62,0
708960,note_on,2090,0,1,,,,,,,,,1,,,81,65
709080,note_on,145,0,3,,,,,,,,,3,,,62,66
709175,note_off,95,0,3,,,,,,,,,3,,,62,0
709200,note_on,25,0,3,,,,,,,,,3,,,66,66
709270,note_off,310,0,1,,,,,,,,,1,,,81,0
709295,note_off,95,0,3,,,,,,,,,3,,,66,0
709320,note_on,25,0,3,,,,,,,,,3,,,62,67
709415,note_off,95,0,3,,,,,,,,,3,,,62,0
709440,note_on,170,0,1,,,,,,,,,1,,,83,67
709560,note_on,145,0,3,,,,,,,,,3,,,62,68
709655,note_off,95,0,3,,,,,,,,,3,,,62,0
709680,note_on,25,0,3,,,,,,,,,3,,,66,68
709750,note_off,310,0,1,,,,,,,,,1,,,83,0
709775,note_off,95,0,3,,,,,,,,,3,,,66,0
709800,note_on,25,0,3,,,,,,,,,3,,,62,69
709895,note_off,95,0,3,,,,,,,,,3,,,62,0
709920,note_on,170,0,1,,,,,,,,,1,,,78,69
710040,note_on,145,0,3,,,,,,,,,3,,,63,70
710135,note_off,95,0,3,,,,,,,,,3,,,63,0
710160,note_on,25,0,3,,,,,,,,,3,,,71,70
710230,note_off,310,0,1,,,,,,,,,1,,,78,0
710255,note_off,95,0,3,,,,,,,,,3,,,71,0
710280,note_on,25,0,3,,,,,,,,,3,,,63,71
710375,note_off,95,0,3,,,,,,,,,3,,,63,0
710400,note_on,170,0,1,,,,,,,,,1,,,79,71
710520,note_on,145,0,3,,,,,,,,,3,,,64,72
710615,note_off,95,0,3,,,,,,,,,3,,,64,0
710640,note_on,25,0,3,,,,,,,,,3,,,71,72
710710,note_off,310,0,1,,,,,,,,,1,,,79,0
710735,note_off,95,0,3,,,,,,,,,3,,,71,0
710760,note_on,25,0,3,,,,,,,,,3,,,64,73
710855,note_off,95,0,3,,,,,,,,,3,,,64,0
710880,note_on,0,0,5,,,,,,,,,5,,,52,73
710880,note_on,2090,0,5,,,,,,,,,5,,,40,73
711000,note_on,145,0,3,,,,,,,,,3,,,68,74
711095,note_off,95,0,3,,,,,,,,,3,,,68,0
711120,note_on,25,0,3,,,,,,,,,3,,,71,74
711190,note_off,0,0,5,,,,,,,,,5,,,40,0
711190,note_off,310,0,5,,,,,,,,,5,,,52,0
711215,note_off,95,0,3,,,,,,,,,3,,,71,0
711240,note_on,25,0,3,,,,,,,,,3,,,68,75
711335,note_off,95,0,3,,,,,,,,,3,,,68,0
711360,note_on,170,0,5,,,,,,,,,5,,,49,75
711360,note_on,0,0,5,,,,,,,,,5,,,37,75
711480,note_on,145,0,3,,,,,,,,,3,,,67,76
711575,note_off,95,0,3,,,,,,,,,3,,,67,0
711600,note_on,25,0,3,,,,,,,,,3,,,76,76
711670,note_off,310,0,5,,,,,,,,,5,,,37,0
711670,note_off,0,0,5,,,,,,,,,5,,,49,0
711695,note_off,95,0,3,,,,,,,,,3,,,76,0
711720,note_on,25,0,3,,,,,,,,,3,,,67,77
711815,note_off,95,0,3,,,,,,,,,3,,,67,0
711840,note_on,0,0,5,,,,,,,,,5,,,45,77
711840,note_on,170,0,5,,,,,,,,,5,,,33,77
711960,note_on,145,0,3,,,,,,,,,3,,,67,78
712055,note_off,95,0,3,,,,,,,,,3,,,67,0
712080,note_on,25,0,3,,,,,,,,,3,,,73,78
712150,note_off,310,0,5,,,,,,,,,5,,,45,0
712150,note_off,0,0,5,,,,,,,,,5,,,33,0
712175,note_off,95,0,3,,,,,,,,,3,,,73,0
712200,note_on,25,0,3,,,,,,,,,3,,,67,79
712280,set_tempo,3800,1,0,,,,,,487804,,,,,,,
712295,note_off,95,0,3,,,,,,,,,3,,,67,0
712320,set_tempo,40,1,0,,,,,,480000,,,,,,,
712320,note_on,0,0,5,,,,,,,,,5,,,38,79
712320,note_on,170,0,5,,,,,,,,,5,,,50,79
712440,note_on,145,0,3,,,,,,,,,3,,,66,80
712535,note_off,95,0,3,,,,,,,,,3,,,66,0
712560,note_on,25,0,3,,,,,,,,,3,,,74,80
712630,note_off,310,0,5,,,,,,,,,5,,,38,0
712630,note_off,0,0,5,,,,,,,,,5,,,50,0
712655,note_off,95,0,3,,,,,,,,,3,,,74,0
712680,note_on,25,0,3,,,,,,,,,3,,,66,81
712775,note_off,95,0,3,,,,,,,,,3,,,66,0
712800,note_on,2090,0,1,,,,,,,,,1,,,83,81
712920,note_on,145,0,3,,,,,,,,,3,,,67,82
713015,note_off,95,0,3,,,,,,,,,3,,,67,0
713040,note_on,25,0,3,,,,,,,,,3,,,74,82
713110,note_off,310,0,1,,,,,,,,,1,,,83,0
713135,note_off,95,0,3,,,,,,,,,3,,,74,0
713160,note_on,25,0,3,,,,,,,,,3,,,67,83
713240,set_tempo,920,1,0,,,,,,487804,,,,,,,
713255,note_off,95,0,3,,,,,,,,,3,,,67,0
713280,note_on,650,0,5,,,,,,,,,5,,,57,83
713280,set_tempo,40,1,0,,,,,,480000,,,,,,,
713280,note_on,0,0,5,,,,,,,,,5,,,45,83
713400,note_on,145,0,3,,,,,,,,,3,,,66,84
713495,note_off,95,0,3,,,,,,,,,3,,,66,0
713520,note_on,25,0,3,,,,,,,,,3,,,74,84
713590,note_off,0,0,5,,,,,,,,,5,,,57,0
713590,note_off,310,0,5,,,,,,,,,5,,,45,0
713615,note_off,95,0,3,,,,,,,,,3,,,74,0
713640,note_on,25,0,3,,,,,,,,,3,,,66,85
713735,note_off,95,0,3,,,,,,,,,3,,,66,0
713760,note_on,650,0,1,,,,,,,,,1,,,73,85
713880,note_on,145,0,3,,,,,,,,,3,,,64,86
713975,note_off,95,0,3,,,,,,,,,3,,,64,0
714000,note_on,25,0,3,,,,,,,,,3,,,69,86
714095,note_off,335,0,1,,,,,,,,,1,,,73,0
714095,note_off,95,0,3,,,,,,,,,3,,,69,0
714120,note_on,25,0,3,,,,,,,,,3,,,64,87
714200,set_tempo,920,1,0,,,,,,487804,,,,,,,
714215,note_off,95,0,3,,,,,,,,,3,,,64,0
714240,note_on,145,0,1,,,,,,,,,1,,,76,88
714360,note_on,145,0,3,,,,,,,,,3,,,67,84
714455,note_off,95,0,3,,,,,,,,,3,,,67,0
714480,note_on,25,0,3,,,,,,,,,3,,,69,80
714575,note_off,95,0,3,,,,,,,,,3,,,69,0
714600,note_on,25,0,3,,,,,,,,,3,,,67,76
714695,note_off,95,0,3,,,,,,,,,3,,,67,0
714720,note_off,480,0,1,,,,,,,,,1,,,76,0
714720,note_on,0,0,1,,,,,,,,,1,,,74,72
714720,set_tempo,520,1,0,,,,,,495867,,,,,,,
714840,note_on,145,0,3,,,,,,,,,3,,,66,68
714935,note_off,95,0,3,,,,,,,,,3,,,66,0
714960,note_on,25,0,3,,,,,,,,,3,,,69,64
715055,note_off,95,0,3,,,,,,,,,3,,,69,0
715080,note_on,25,0,3,,,,,,,,,3,,,66,60
715090,set_tempo,370,1,0,,,,,,1935483,,,,,,,
715105,note_off,385,0,1,,,,,,,,,1,,,74,0
715175,note_off,95,0,3,,,,,,,,,3,,,66,0
715200,control_change,8330,0,2,,,,,,,64,0,2,,,,
715200,control_change,17280,0,4,,,,,,,64,0,4,,,,
715200,control_change,1610,0,5,,,,,,,64,0,5,,,,
715200,note_on,0,0,1,,,,,,,,,1,,,69,38
715200,set_tempo,110,1,0,,,,,,461538,,,,,,,
715200,control_change,95,0,1,,,,,,,64,0,1,,,,
715200,marker,0,1,0,,,,,,,,,,,,,
715200,control_change,25,0,3,,,,,,,64,0,3,,,,
715440,note_off,240,0,1,,,,,,,,,1,,,69,0
715440,note_on,0,0,1,,,,,,,,,1,,,70,38
715680,note_off,240,0,1,,,,,,,,,1,,,70,0
715680,note_on,0,0,1,,,,,,,,,1,,,69,39
715920,note_off,240,0,1,,,,,,,,,1,,,69,0
715920,note_on,0,0,1,,,,,,,,,1,,,73,39
716120,set_tempo,920,1,0,,,,,,465116,,,,,,,
716160,set_tempo,40,1,0,,,,,,461538,,,,,,,
716160,note_on,0,0,1,,,,,,,,,1,,,74,39
716160,note_off,240,0,1,,,,,,,,,1,,,73,0
716400,note_on,0,0,4,,,,,,,,,4,,,65,40
716400,note_on,1200,0,4,,,,,,,,,4,,,69,40
716400,note_on,1200,0,5,,,,,,,,,5,,,62,40
716590,note_off,0,0,4,,,,,,,,,4,,,69,0
716590,note_off,190,0,4,,,,,,,,,4,,,65,0
716590,note_off,190,0,5,,,,,,,,,5,,,62,0
716640,note_on,0,0,4,,,,,,,,,4,,,69,40
716640,note_on,50,0,4,,,,,,,,,4,,,65,40
716640,note_on,50,0,5,,,,,,,,,5,,,62,40
716640,note_off,480,0,1,,,,,,,,,1,,,74,0
716830,note_off,0,0,4,,,,,,,,,4,,,65,0
716830,note_off,190,0,4,,,,,,,,,4,,,69,0
716830,note_off,190,0,5,,,,,,,,,5,,,62,0
716880,note_on,50,0,5,,,,,,,,,5,,,62,41
716880,note_on,50,0,4,,,,,,,,,4,,,65,41
716880,note_on,0,0,4,,,,,,,,,4,,,69,41
717070,note_off,190,0,5,,,,,,,,,5,,,62,0
717070,note_off,0,0,4,,,,,,,,,4,,,65,0
717070,note_off,190,0,4,,,,,,,,,4,,,69,0
717120,note_on,480,0,1,,,,,,,,,1,,,81,37
717200,note_on,80,0,1,,,,,,,,,1,,,82,37
717215,note_off,15,0,1,,,,,,,,,1,,,81,0
717280,note_on,65,0,1,,,,,,,,,1,,,81,38
717295,note_off,15,0,1,,,,,,,,,1,,,82,0
717360,note_on,290,0,5,,,,,,,,,5,,,62,41
717360,note_on,65,0,1,,,,,,,,,1,,,82,39
717360,note_on,0,0,4,,,,,,,,,4,,,65,41
717360,note_on,290,0,4,,,,,,,,,4,,,69,41
717375,note_off,15,0,1,,,,,,,,,1,,,81,0
717440,note_on,65,0,1,,,,,,,,,1,,,81,39
717455,note_off,15,0,1,,,,,,,,,1,,,82,0
717520,note_on,65,0,1,,,,,,,,,1,,,82,40
717535,note_off,15,0,1,,,,,,,,,1,,,81,0
717550,note_off,190,0,5,,,,,,,,,5,,,62,0
717550,note_off,0,0,4,,,,,,,,,4,,,69,0
717550,note_off,190,0,4,,,,,,,,,4,,,65,0
717600,note_on,50,0,5,,,,,,,,,5,,,62,42
717600,note_on,50,0,4,,,,,,,,,4,,,69,42
717600,note_on,0,0,4,,,,,,,,,4,,,65,42
717600,note_on,65,0,1,,,,,,,,,1,,,81,41
717615,note_off,15,0,1,,,,,,,,,1,,,82,0
717680,note_on,65,0,1,,,,,,,,,1,,,82,41
717695,note_off,15,0,1,,,,,,,,,1,,,81,0
717760,note_on,65,0,1,,,,,,,,,1,,,81,42
717775,note_off,15,0,1,,,,,,,,,1,,,82,0
717790,note_off,190,0,5,,,,,,,,,5,,,62,0
717790,note_off,190,0,4,,,,,,,,,4,,,65,0
717790,note_off,0,0,4,,,,,,,,,4,,,69,0
717840,note_on,50,0,5,,,,,,,,,5,,,62,43
717840,note_on,65,0,1,,,,,,,,,1,,,79,42
717840,note_on,0,0,4,,,,,,,,,4,,,69,43
717840,note_on,50,0,4,,,,,,,,,4,,,65,43
717855,note_off,15,0,1,,,,,,,,,1,,,81,0
717960,note_on,0,0,1,,,,,,,,,1,,,77,43
717960,note_off,105,0,1,,,,,,,,,1,,,79,0
718030,note_off,190,0,4,,,,,,,,,4,,,69,0
718030,note_off,190,0,5,,,,,,,,,5,,,62,0
718030,note_off,0,0,4,,,,,,,,,4,,,65,0
718040,set_tempo,1880,1,0,,,,,,465116,,,,,,,
718080,note_on,0,0,1,,,,,,,,,1,,,76,44
718080,note_off,120,0,1,,,,,,,,,1,,,77,0
718080,set_tempo,40,1,0,,,,,,454545,,,,,,,
718320,note_on,290,0,4,,,,,,,,,4,,,58,45
718320,note_on,0,0,4,,,,,,,,,4,,,64,45
718320,note_on,290,0,5,,,,,,,,,5,,,55,45
718510,note_off,190,0,4,,,,,,,,,4,,,64,0
718510,note_off,0,0,4,,,,,,,,,4,,,58,0
718510,note_off,190,0,5,,,,,,,,,5,,,55,0
718560,note_on,50,0,5,,,,,,,,,5,,,55,46
718560,note_on,0,0,4,,,,,,,,,4,,,64,46
718560,note_on,50,0,4,,,,,,,,,4,,,58,46
718560,note_off,480,0,1,,,,,,,,,1,,,76,0
718750,note_off,0,0,4,,,,,,,,,4,,,58,0
718750,note_off,190,0,4,,,,,,,,,4,,,64,0
718750,note_off,190,0,5,,,,,,,,,5,,,55,0
718800,note_on,50,0,4,,,,,,,,,4,,,58,47
718800,note_on,50,0,5,,,,,,,,,5,,,55,47
718800,note_on,0,0,4,,,,,,,,,4,,,64,47
718990,note_off,190,0,4,,,,,,,,,4,,,64,0
718990,note_off,0,0,4,,,,,,,,,4,,,58,0
718990,note_off,190,0,5,,,,,,,,,5,,,55,0
719040,note_on,480,0,1,,,,,,,,,1,,,79,44
719120,note_on,80,0,1,,,,,,,,,1,,,81,45
719135,note_off,15,0,1,,,,,,,,,1,,,79,0
719200,note_on,65,0,1,,,,,,,,,1,,,79,45
719215,note_off,15,0,1,,,,,,,,,1,,,81,0
719280,note_on,290,0,5,,,,,,,,,5,,,57,48
719280,note_on,290,0,4,,,,,,,,,4,,,64,48
719280,note_on,0,0,4,,,,,,,,,4,,,61,48
719280,note_on,65,0,1,,,,,,,,,1,,,81,46
719295,note_off,15,0,1,,,,,,,,,1,,,79,0
719360,note_on,65,0,1,,,,,,,,,1,,,79,46
719375,note_off,15,0,1,,,,,,,,,1,,,81,0
719440,note_on,65,0,1,,,,,,,,,1,,,81,47
719455,note_off,15,0,1,,,,,,,,,1,,,79,0
719470,note_off,190,0,5,,,,,,,,,5,,,57,0
719470,note_off,190,0,4,,,,,,,,,4,,,61,0
719470,note_off,0,0,4,,,,,,,,,4,,,64,0
719520,note_on,65,0,1,,,,,,,,,1,,,79,47
719520,note_on,50,0,4,,,,,,,,,4,,,64,49
719520,note_on,0,0,4,,,,,,,,,4,,,61,49
719520,note_on,50,0,5,,,,,,,,,5,,,57,49
719535,note_off,15,0,1,,,,,,,,,1,,,81,0
719600,note_on,65,0,1,,,,,,,,,1,,,81,47
719615,note_off,15,0,1,,,,,,,,,1,,,79,0
719680,note_on,65,0,1,,,,,,,,,1,,,79,48
719695,note_off,15,0,1,,,,,,,,,1,,,81,0
719710,note_off,190,0,5,,,,,,,,,5,,,57,0
719710,note_off,190,0,4,,,,,,,,,4,,,61,0
719710,note_off,0,0,4,,,,,,,,,4,,,64,0
719760,note_on,0,0,4,,,,,,,,,4,,,61,50
719760,note_on,50,0,4,,,,,,,,,4,,,64,50
719760,note_on,50,0,5,,,,,,,,,5,,,57,50
719760,note_on,65,0,1,,,,,,,,,1,,,77,48
719775,note_off,15,0,1,,,,,,,,,1,,,79,0
719880,note_on,0,0,1,,,,,,,,,1,,,76,49
719880,note_off,105,0,1,,,,,,,,,1,,,77,0
719950,note_off,190,0,4,,,,,,,,,4,,,61,0
719950,note_off,0,0,4,,,,,,,,,4,,,64,0
719950,note_off,190,0,5,,,,,,,,,5,,,57,0
719960,set_tempo,1880,1,0,,,,,,461538,,,,,,,
720000,note_off,120,0,1,,,,,,,,,1,,,76,0
720000,note_on,0,0,1,,,,,,,,,1,,,77,51
720000,note_on,50,0,5,,,,,,,,,5,,,62,51
720000,set_tempo,40,1,0,,,,,,447761,,,,,,,
720000,note_on,0,0,5,,,,,,,,,5,,,50,51
720240,note_on,5040,0,2,,,,,,,,,2,,,74,52
720360,note_off,360,0,1,,,,,,,,,1,,,77,0
720385,note_off,0,0,5,,,,,,,,,5,,,62,0
720385,note_off,385,0,5,,,,,,,,,5,,,50,0
720480,note_off,240,0,2,,,,,,,,,2,,,74,0
720480,note_on,0,0,5,,,,,,,,,5,,,48,54
720480,note_on,120,0,1,,,,,,,,,1,,,78,54
720480,note_on,95,0,5,,,,,,,,,5,,,60,54
720720,note_on,240,0,2,,,,,,,,,2,,,74,56
720840,note_off,360,0,1,,,,,,,,,1,,,78,0
720865,note_off,385,0,5,,,,,,,,,5,,,48,0
720865,note_off,0,0,5,,,,,,,,,5,,,60,0
720960,note_on,120,0,1,,,,,,,,,1,,,79,58
720960,note_on,95,0,5,,,,,,,,,5,,,59,58
720960,note_on,0,0,5,,,,,,,,,5,,,47,58
720960,note_off,240,0,2,,,,,,,,,2,,,74,0
721200,note_on,240,0,2,,,,,,,,,2,,,74,61
721320,note_off,360,0,1,,,,,,,,,1,,,79,0
721345,note_off,385,0,5,,,,,,,,,5,,,47,0
721345,note_off,0,0,5,,,,,,,,,5,,,59,0
721440,note_on,0,0,1,,,,,,,,,1,,,86,65
721440,note_on,120,0,1,,,,,,,,,1,,,80,65
721440,note_on,95,0,5,,,,,,,,,5,,,58,64
721440,note_on,0,0,5,,,,,,,,,5,,,46,64
721440,note_off,240,0,2,,,,,,,,,2,,,74,0
721680,note_on,240,0,2,,,,,,,,,2,,,74,68
721800,note_off,360,0,1,,,,,,,,,1,,,80,0
721825,note_off,385,0,5,,,,,,,,,5,,,46,0
721825,note_off,25,0,1,,,,,,,,,1,,,86,0
721837,note_off,12,0,5,,,,,,,,,5,,,58,0
721880,set_tempo,1880,1,0,,,,,,465116,,,,,,,
721920,note_on,0,0,2,,,,,,,,,2,,,77,75
721920,note_on,95,0,1,,,,,,,,,1,,,86,75
721920,note_on,0,0,5,,,,,,,,,5,,,45,74
721920,note_on,83,0,5,,,,,,,,,5,,,57,74
721920,note_on,0,0,1,,,,,,,,,1,,,81,75
721920,note_off,240,0,2,,,,,,,,,2,,,74,0
722400,note_on,0,0,2,,,,,,,,,2,,,76,56
722400,note_on,480,0,1,,,,,,,,,1,,,85,56
722400,note_off,480,0,2,,,,,,,,,2,,,77,0
722405,note_off,5,0,1,,,,,,,,,1,,,86,0
722410,set_tempo,530,1,0,,,,,,508474,,,,,,,
722760,note_off,355,0,1,,,,,,,,,1,,,85,0
722760,note_off,0,0,1,,,,,,,,,1,,,81,0
722760,note_off,360,0,2,,,,,,,,,2,,,76,0
722765,note_off,0,0,5,,,,,,,,,5,,,57,0
722765,note_off,845,0,5,,,,,,,,,5,,,45,0
722880,note_on,120,0,1,,,,,,,,,1,,,69,46
722880,set_tempo,470,1,0,,,,,,461538,,,,,,,
723120,note_on,0,0,1,,,,,,,,,1,,,70,47
723120,note_off,240,0,1,,,,,,,,,1,,,69,0
723360,note_on,0,0,1,,,,,,,,,1,,,69,47
723360,note_off,240,0,1,,,,,,,,,1,,,70,0
723600,note_off,240,0,1,,,,,,,,,1,,,69,0
723600,note_on,0,0,1,,,,,,,,,1,,,73,48
723800,set_tempo,920,1,0,,,,,,465116,,,,,,,
723840,set_tempo,40,1,0,,,,,,461538,,,,,,,
723840,note_off,240,0,1,,,,,,,,,1,,,73,0
723840,note_on,0,0,1,,,,,,,,,1,,,74,48
724080,note_on,1315,0,5,,,,,,,,,5,,,53,49
724080,note_on,4130,0,4,,,,,,,,,4,,,62,49
724080,note_on,0,0,4,,,,,,,,,4,,,57,49
724270,note_off,190,0,4,,,,,,,,,4,,,57,0
724270,note_off,0,0,4,,,,,,,,,4,,,62,0
724270,note_off,190,0,5,,,,,,,,,5,,,53,0
724320,note_off,480,0,1,,,,,,,,,1,,,74,0
724320,note_on,50,0,5,,,,,,,,,5,,,53,49
724320,note_on,50,0,4,,,,,,,,,4,,,62,49
724320,note_on,0,0,4,,,,,,,,,4,,,57,49
724510,note_off,190,0,5,,,,,,,,,5,,,53,0
724510,note_off,190,0,4,,,,,,,,,4,,,57,0
724510,note_off,0,0,4,,,,,,,,,4,,,62,0
724560,note_on,0,0,4,,,,,,,,,4,,,57,50
724560,note_on,50,0,4,,,,,,,,,4,,,62,50
724560,note_on,50,0,5,,,,,,,,,5,,,53,50
724750,note_off,0,0,4,,,,,,,,,4,,,62,0
724750,note_off,190,0,4,,,,,,,,,4,,,57,0
724750,note_off,190,0,5,,,,,,,,,5,,,53,0
724800,note_on,480,0,1,,,,,,,,,1,,,74,44
724880,note_on,80,0,1,,,,,,,,,1,,,76,46
724895,note_off,15,0,1,,,,,,,,,1,,,74,0
724960,note_on,65,0,1,,,,,,,,,1,,,74,47
724975,note_off,15,0,1,,,,,,,,,1,,,76,0
725040,note_on,290,0,5,,,,,,,,,5,,,53,56
725040,note_on,290,0,4,,,,,,,,,4,,,57,56
725040,note_on,0,0,4,,,,,,,,,4,,,62,56
725040,note_on,65,0,1,,,,,,,,,1,,,76,49
725055,note_off,15,0,1,,,,,,,,,1,,,74,0
725120,note_on,65,0,1,,,,,,,,,1,,,74,50
725135,note_off,15,0,1,,,,,,,,,1,,,76,0
725200,note_on,65,0,1,,,,,,,,,1,,,76,52
725215,note_off,15,0,1,,,,,,,,,1,,,74,0
725230,note_off,0,0,4,,,,,,,,,4,,,57,0
725230,note_off,190,0,4,,,,,,,,,4,,,62,0
725230,note_off,190,0,5,,,,,,,,,5,,,53,0
725280,note_on,50,0,5,,,,,,,,,5,,,53,59
725280,note_on,0,0,4,,,,,,,,,4,,,62,59
725280,note_on,65,0,1,,,,,,,,,1,,,74,53
725280,note_on,50,0,4,,,,,,,,,4,,,57,59
725295,note_off,15,0,1,,,,,,,,,1,,,76,0
725360,note_on,65,0,1,,,,,,,,,1,,,76,55
725375,note_off,15,0,1,,,,,,,,,1,,,74,0
725440,note_on,65,0,1,,,,,,,,,1,,,74,56
725455,note_off,15,0,1,,,,,,,,,1,,,76,0
725470,note_off,190,0,4,,,,,,,,,4,,,62,0
725470,note_off,0,0,4,,,,,,,,,4,,,57,0
725470,note_off,190,0,5,,,,,,,,,5,,,53,0
725520,note_on,50,0,5,,,,,,,,,5,,,53,61
725520,note_on,50,0,4,,,,,,,,,4,,,57,61
725520,note_on,0,0,4,,,,,,,,,4,,,62,61
725520,note_on,65,0,1,,,,,,,,,1,,,72,58
725535,note_off,15,0,1,,,,,,,,,1,,,74,0
725640,note_on,105,0,1,,,,,,,,,1,,,74,60
725665,note_off,25,0,1,,,,,,,,,1,,,72,0
725710,note_off,0,0,4,,,,,,,,,4,,,57,0
725710,note_off,190,0,5,,,,,,,,,5,,,53,0
725710,note_off,190,0,4,,,,,,,,,4,,,62,0
725720,set_tempo,1880,1,0,,,,,,465116,,,,,,,
725760,note_on,95,0,1,,,,,,,,,1,,,75,64
725760,set_tempo,40,1,0,,,,,,454545,,,,,,,
725785,note_off,25,0,1,,,,,,,,,1,,,74,0
726000,note_on,0,0,4,,,,,,,,,4,,,57,67
726000,note_on,290,0,5,,,,,,,,,5,,,53,67
726000,note_on,290,0,4,,,,,,,,,4,,,60,67
726190,note_off,190,0,4,,,,,,,,,4,,,57,0
726190,note_off,190,0,5,,,,,,,,,5,,,53,0
726190,note_off,0,0,4,,,,,,,,,4,,,60,0
726240,note_on,50,0,4,,,,,,,,,4,,,57,69
726240,note_on,0,0,4,,,,,,,,,4,,,60,69
726240,note_off,455,0,1,,,,,,,,,1,,,75,0
726240,note_on,50,0,5,,,,,,,,,5,,,53,69
726430,note_off,190,0,4,,,,,,,,,4,,,60,0
726430,note_off,190,0,5,,,,,,,,,5,,,53,0
726430,note_off,0,0,4,,,,,,,,,4,,,57,0
726480,note_on,50,0,5,,,,,,,,,5,,,53,71
726480,note_on,50,0,4,,,,,,,,,4,,,60,71
726480,note_on,0,0,4,,,,,,,,,4,,,57,71
726670,note_off,190,0,5,,,,,,,,,5,,,53,0
726670,note_off,190,0,4,,,,,,,,,4,,,57,0
726670,note_off,0,0,4,,,,,,,,,4,,,60,0
726720,note_on,480,0,1,,,,,,,,,1,,,75,62
726800,note_on,80,0,1,,,,,,,,,1,,,76,65
726815,note_off,15,0,1,,,,,,,,,1,,,75,0
726880,note_on,65,0,1,,,,,,,,,1,,,75,67
726895,note_off,15,0,1,,,,,,,,,1,,,76,0
726960,note_on,65,0,1,,,,,,,,,1,,,76,69
726960,note_on,290,0,4,,,,,,,,,4,,,60,75
726960,note_on,0,0,4,,,,,,,,,4,,,57,75
726960,note_on,290,0,5,,,,,,,,,5,,,53,75
726975,note_off,15,0,1,,,,,,,,,1,,,75,0
727040,note_on,65,0,1,,,,,,,,,1,,,75,71
727055,note_off,15,0,1,,,,,,,,,1,,,76,0
727120,note_on,65,0,1,,,,,,,,,1,,,76,74
727135,note_off,15,0,1,,,,,,,,,1,,,75,0
727150,note_off,0,0,4,,,,,,,,,4,,,60,0
727150,note_off,190,0,4,,,,,,,,,4,,,57,0
727150,note_off,190,0,5,,,,,,,,,5,,,53,0
727200,note_on,50,0,5,,,,,,,,,5,,,53,79
727200,note_on,50,0,4,,,,,,,,,4,,,60,79
727200,note_on,65,0,1,,,,,,,,,1,,,75,76
727200,note_on,0,0,4,,,,,,,,,4,,,57,79
727215,note_off,15,0,1,,,,,,,,,1,,,76,0
727280,note_on,65,0,1,,,,,,,,,1,,,76,78
727295,note_off,15,0,1,,,,,,,,,1,,,75,0
727360,note_on,65,0,1,,,,,,,,,1,,,75,80
727375,note_off,15,0,1,,,,,,,,,1,,,76,0
727390,note_off,190,0,5,,,,,,,,,5,,,53,0
727390,note_off,0,0,4,,,,,,,,,4,,,60,0
727390,note_off,190,0,4,,,,,,,,,4,,,57,0
727440,note_on,0,0,4,,,,,,,,,4,,,60,84
727440,note_on,65,0,1,,,,,,,,,1,,,74,83
727440,note_on,50,0,4,,,,,,,,,4,,,57,84
727440,note_on,50,0,5,,,,,,,,,5,,,53,84
727455,note_off,15,0,1,,,,,,,,,1,,,75,0
727560,note_on,105,0,1,,,,,,,,,1,,,75,86
727585,note_off,25,0,1,,,,,,,,,1,,,74,0
727630,note_off,190,0,5,,,,,,,,,5,,,53,0
727630,note_off,190,0,4,,,,,,,,,4,,,60,0
727630,note_off,0,0,4,,,,,,,,,4,,,57,0
727640,set_tempo,1880,1,0,,,,,,461538,,,,,,,
727680,note_on,0,0,4,,,,,,,,,4,,,60,90
727680,note_on,95,0,1,,,,,,,,,1,,,76,90
727680,set_tempo,40,1,0,,,,,,454545,,,,,,,
727680,note_on,50,0,5,,,,,,,,,5,,,52,90
727680,note_on,50,0,4,,,,,,,,,4,,,57,90
727705,note_off,25,0,1,,,,,,,,,1,,,75,0
728060,note_off,380,0,4,,,,,,,,,4,,,60,0
728060,note_off,0,0,4,,,,,,,,,4,,,57,0
728060,note_off,380,0,5,,,,,,,,,5,,,52,0
728160,note_off,455,0,1,,,,,,,,,1,,,76,0
728160,note_on,0,0,1,,,,,,,,,1,,,69,66
728640,note_on,0,0,4,,,,,,,,,4,,,59,56
728640,note_on,580,0,5,,,,,,,,,5,,,52,56
728640,note_on,580,0,4,,,,,,,,,4,,,62,56
729120,note_on,0,0,1,,,,,,,,,1,,,71,56
729120,note_off,960,0,1,,,,,,,,,1,,,69,0
729410,note_off,770,0,4,,,,,,,,,4,,,59,0
729410,note_off,0,0,4,,,,,,,,,4,,,62,0
729410,note_off,770,0,5,,,,,,,,,5,,,52,0
729480,note_on,0,0,1,,,,,,,,,1,,,68,61
729480,note_off,360,0,1,,,,,,,,,1,,,71,0
729540,set_tempo,1860,1,0,,,,,,472440,,,,,,,
729600,note_on,190,0,4,,,,,,,,,4,,,60,63
729600,note_off,120,0,1,,,,,,,,,1,,,68,0
729600,note_on,190,0,5,,,,,,,,,5,,,57,63
729600,note_on,0,0,1,,,,,,,,,1,,,69,63
729975,note_off,375,0,1,,,,,,,,,1,,,69,0
729985,note_off,385,0,5,,,,,,,,,5,,,57,0
729985,note_off,385,0,4,,,,,,,,,4,,,60,0
730560,control_change,7800,0,2,,,,,,,64,0,2,,,,
730560,control_change,575,0,5,,,,,,,64,0,5,,,,
730560,set_tempo,1020,1,0,,,,,,461538,,,,,,,
730560,control_change,15360,0,3,,,,,,,64,0,3,,,,
730560,note_on,0,0,1,,,,,,,,,1,,,69,38
730560,control_change,585,0,1,,,,,,,64,0,1,,,,
730560,control_change,575,0,4,,,,,,,64,0,4,,,,
730800,note_off,240,0,1,,,,,,,,,1,,,69,0
730800,note_on,0,0,1,,,,,,,,,1,,,70,38
731040,note_off,240,0,1,,,,,,,,,1,,,70,0
731040,note_on,0,0,1,,,,,,,,,1,,,69,39
731280,note_off,240,0,1,,,,,,,,,1,,,69,0
731280,note_on,0,0,1,,,,,,,,,1,,,73,39
731480,set_tempo,920,1,0,,,,,,465116,,,,,,,
731520,note_on,0,0,1,,,,,,,,,1,,,74,39
731520,note_off,240,0,1,,,,,,,,,1,,,73,0
731520,set_tempo,40,1,0,,,,,,461538,,,,,,,
731760,note_on,0,0,4,,,,,,,,,4,,,69,40
731760,note_on,1200,0,5,,,,,,,,,5,,,62,40
731760,note_on,1200,0,4,,,,,,,,,4,,,65,40
731950,note_off,190,0,4,,,,,,,,,4,,,69,0
731950,note_off,0,0,4,,,,,,,,,4,,,65,0
731950,note_off,190,0,5,,,,,,,,,5,,,62,0
732000,note_off,480,0,1,,,,,,,,,1,,,74,0
732000,note_on,50,0,4,,,,,,,,,4,,,69,40
732000,note_on,0,0,4,,,,,,,,,4,,,65,40
732000,note_on,50,0,5,,,,,,,,,5,,,62,40
732190,note_off,0,0,4,,,,,,,,,4,,,69,0
732190,note_off,190,0,5,,,,,,,,,5,,,62,0
732190,note_off,190,0,4,,,,,,,,,4,,,65,0
732240,note_on,50,0,5,,,,,,,,,5,,,62,41
732240,note_on,50,0,4,,,,,,,,,4,,,69,41
732240,note_on,0,0,4,,,,,,,,,4,,,65,41
732430,note_off,190,0,5,,,,,,,,,5,,,62,0
732430,note_off,0,0,4,,,,,,,,,4,,,69,0
732430,note_off,190,0,4,,,,,,,,,4,,,65,0
732480,note_on,480,0,1,,,,,,,,,1,,,81,37
732560,note_on,80,0,1,,,,,,,,,1,,,82,37
732575,note_off,15,0,1,,,,,,,,,1,,,81,0
732640,note_on,65,0,1,,,,,,,,,1,,,81,38
732655,note_off,15,0,1,,,,,,,,,1,,,82,0
732720,note_on,290,0,4,,,,,,,,,4,,,65,41
732720,note_on,0,0,4,,,,,,,,,4,,,69,41
732720,note_on,290,0,5,,,,,,,,,5,,,62,41
732720,note_on,65,0,1,,,,,,,,,1,,,82,39
732735,note_off,15,0,1,,,,,,,,,1,,,81,0
732800,note_on,65,0,1,,,,,,,,,1,,,81,39
732815,note_off,15,0,1,,,,,,,,,1,,,82,0
732880,note_on,65,0,1,,,,,,,,,1,,,82,40
732895,note_off,15,0,1,,,,,,,,,1,,,81,0
732910,note_off,190,0,5,,,,,,,,,5,,,62,0
732910,note_off,0,0,4,,,,,,,,,4,,,65,0
732910,note_off,190,0,4,,,,,,,,,4,,,69,0
732960,note_on,65,0,1,,,,,,,,,1,,,81,41
732960,note_on,0,0,4,,,,,,,,,4,,,69,42
732960,note_on,50,0,5,,,,,,,,,5,,,62,42
732960,note_on,50,0,4,,,,,,,,,4,,,65,42
732975,note_off,15,0,1,,,,,,,,,1,,,82,0
733040,note_on,65,0,1,,,,,,,,,1,,,82,41
733055,note_off,15,0,1,,,,,,,,,1,,,81,0
733120,note_on,65,0,1,,,,,,,,,1,,,81,42
733135,note_off,15,0,1,,,,,,,,,1,,,82,0
733150,note_off,0,0,4,,,,,,,,,4,,,65,0
733150,note_off,190,0,4,,,,,,,,,4,,,69,0
733150,note_off,190,0,5,,,,,,,,,5,,,62,0
733200,note_on,65,0,1,,,,,,,,,1,,,79,42
733200,note_on,0,0,4,,,,,,,,,4,,,65,43
733200,note_on,50,0,5,,,,,,,,,5,,,62,43
733200,note_on,50,0,4,,,,,,,,,4,,,69,43
733215,note_off,15,0,1,,,,,,,,,1,,,81,0
733320,note_on,0,0,1,,,,,,,,,1,,,77,43
733320,note_off,105,0,1,,,,,,,,,1,,,79,0
733390,note_off,0,0,4,,,,,,,,,4,,,69,0
733390,note_off,190,0,5,,,,,,,,,5,,,62,0
733390,note_off,190,0,4,,,,,,,,,4,,,65,0
733400,set_tempo,1880,1,0,,,,,,465116,,,,,,,
733440,set_tempo,40,1,0,,,,,,454545,,,,,,,
733440,note_on,0,0,1,,,,,,,,,1,,,76,44
733440,note_off,120,0,1,,,,,,,,,1,,,77,0
733680,note_on,290,0,4,,,,,,,,,4,,,64,45
733680,note_on,0,0,4,,,,,,,,,4,,,58,45
733680,note_on,290,0,5,,,,,,,,,5,,,55,45
733870,note_off,190,0,5,,,,,,,,,5,,,55,0
733870,note_off,190,0,4,,,,,,,,,4,,,58,0
733870,note_off,0,0,4,,,,,,,,,4,,,64,0
733920,note_off,480,0,1,,,,,,,,,1,,,76,0
733920,note_on,50,0,4,,,,,,,,,4,,,64,46
733920,note_on,0,0,4,,,,,,,,,4,,,58,46
733920,note_on,50,0,5,,,,,,,,,5,,,55,46
734110,note_off,0,0,4,,,,,,,,,4,,,64,0
734110,note_off,190,0,5,,,,,,,,,5,,,55,0
734110,note_off,190,0,4,,,,,,,,,4,,,58,0
734160,note_on,0,0,4,,,,,,,,,4,,,58,47
734160,note_on,50,0,4,,,,,,,,,4,,,64,47
734160,note_on,50,0,5,,,,,,,,,5,,,55,47
734350,note_off,190,0,5,,,,,,,,,5,,,55,0
734350,note_off,0,0,4,,,,,,,,,4,,,64,0
734350,note_off,190,0,4,,,,,,,,,4,,,58,0
734400,note_on,480,0,1,,,,,,,,,1,,,79,44
734480,note_on,80,0,1,,,,,,,,,1,,,81,45
734495,note_off,15,0,1,,,,,,,,,1,,,79,0
734560,note_on,65,0,1,,,,,,,,,1,,,79,45
734575,note_off,15,0,1,,,,,,,,,1,,,81,0
734640,note_on,290,0,4,,,,,,,,,4,,,61,48
734640,note_on,290,0,5,,,,,,,,,5,,,57,48
734640,note_on,0,0,4,,,,,,,,,4,,,64,48
734640,note_on,65,0,1,,,,,,,,,1,,,81,46
734655,note_off,15,0,1,,,,,,,,,1,,,79,0
734720,note_on,65,0,1,,,,,,,,,1,,,79,46
734735,note_off,15,0,1,,,,,,,,,1,,,81,0
734800,note_on,65,0,1,,,,,,,,,1,,,81,47
734815,note_off,15,0,1,,,,,,,,,1,,,79,0
734830,note_off,190,0,4,,,,,,,,,4,,,64,0
734830,note_off,190,0,5,,,,,,,,,5,,,57,0
734830,note_off,0,0,4,,,,,,,,,4,,,61,0
734880,note_on,50,0,5,,,,,,,,,5,,,57,49
734880,note_on,65,0,1,,,,,,,,,1,,,79,47
734880,note_on,0,0,4,,,,,,,,,4,,,64,49
734880,note_on,50,0,4,,,,,,,,,4,,,61,49
734895,note_off,15,0,1,,,,,,,,,1,,,81,0
734960,note_on,65,0,1,,,,,,,,,1,,,81,47
734975,note_off,15,0,1,,,,,,,,,1,,,79,0
735040,note_on,65,0,1,,,,,,,,,1,,,79,48
735055,note_off,15,0,1,,,,,,,,,1,,,81,0
735070,note_off,190,0,4,,,,,,,,,4,,,64,0
735070,note_off,0,0,4,,,,,,,,,4,,,61,0
735070,note_off,190,0,5,,,,,,,,,5,,,57,0
735120,note_on,50,0,4,,,,,,,,,4,,,61,50
735120,note_on,0,0,4,,,,,,,,,4,,,64,50
735120,note_on,65,0,1,,,,,,,,,1,,,77,48
735120,note_on,50,0,5,,,,,,,,,5,,,57,50
735135,note_off,15,0,1,,,,,,,,,1,,,79,0
735240,note_on,0,0,1,,,,,,,,,1,,,76,49
735240,note_off,105,0,1,,,,,,,,,1,,,77,0
735310,note_off,0,0,4,,,,,,,,,4,,,61,0
735310,note_off,190,0,5,,,,,,,,,5,,,57,0
735310,note_off,190,0,4,,,,,,,,,4,,,64,0
735320,set_tempo,1880,1,0,,,,,,461538,,,,,,,
735360,note_off,120,0,1,,,,,,,,,1,,,76,0
735360,set_tempo,40,1,0,,,,,,447761,,,,,,,
735360,note_on,0,0,5,,,,,,,,,5,,,62,51
735360,note_on,50,0,5,,,,,,,,,5,,,50,51
735360,note_on,0,0,1,,,,,,,,,1,,,77,51
735600,note_on,5040,0,2,,,,,,,,,2,,,74,52
735720,note_off,360,0,1,,,,,,,,,1,,,77,0
735745,note_off,385,0,5,,,,,,,,,5,,,62,0
735745,note_off,0,0,5,,,,,,,,,5,,,50,0
735840,note_on,120,0,1,,,,,,,,,1,,,78,54
735840,note_off,240,0,2,,,,,,,,,2,,,74,0
735840,note_on,95,0,5,,,,,,,,,5,,,48,54
735840,note_on,0,0,5,,,,,,,,,5,,,60,54
736080,note_on,240,0,2,,,,,,,,,2,,,74,56
736200,note_off,360,0,1,,,,,,,,,1,,,78,0
736225,note_off,0,0,5,,,,,,,,,5,,,48,0
736225,note_off,385,0,5,,,,,,,,,5,,,60,0
736320,note_on,95,0,5,,,,,,,,,5,,,47,58
736320,note_off,240,0,2,,,,,,,,,2,,,74,0
736320,note_on,0,0,5,,,,,,,,,5,,,59,58
736320,note_on,120,0,1,,,,,,,,,1,,,79,58
736560,note_on,240,0,2,,,,,,,,,2,,,74,61
736680,note_off,360,0,1,,,,,,,,,1,,,79,0
736705,note_off,385,0,5,,,,,,,,,5,,,59,0
736705,note_off,0,0,5,,,,,,,,,5,,,47,0
736800,note_off,240,0,2,,,,,,,,,2,,,74,0
736800,note_on,0,0,1,,,,,,,,,1,,,80,65
736800,note_on,120,0,1,,,,,,,,,1,,,86,65
736800,note_on,0,0,5,,,,,,,,,5,,,58,64
736800,note_on,95,0,5,,,,,,,,,5,,,46,64
737040,note_on,240,0,2,,,,,,,,,2,,,74,68
737160,note_off,360,0,1,,,,,,,,,1,,,80,0
737185,note_off,385,0,5,,,,,,,,,5,,,46,0
737185,note_off,25,0,1,,,,,,,,,1,,,86,0
737197,note_off,12,0,5,,,,,,,,,5,,,58,0
737240,set_tempo,1880,1,0,,,,,,465116,,,,,,,
737280,note_on,95,0,1,,,,,,,,,1,,,81,75
737280,note_on,0,0,1,,,,,,,,,1,,,86,75
737280,note_off,240,0,2,,,,,,,,,2,,,74,0
737280,note_on,0,0,2,,,,,,,,,2,,,77,75
737280,note_on,0,0,5,,,,,,,,,5,,,57,74
737280,note_on,83,0,5,,,,,,,,,5,,,45,74
737760,note_on,480,0,1,,,,,,,,,1,,,85,56
737760,note_off,480,0,2,,,,,,,,,2,,,77,0
737760,note_on,0,0,2,,,,,,,,,2,,,76,56
737765,note_off,5,0,1,,,,,,,,,1,,,86,0
737770,set_tempo,530,1,0,,,,,,508474,,,,,,,
738120,note_off,0,0,1,,,,,,,,,1,,,81,0
738120,note_off,355,0,1,,,,,,,,,1,,,85,0
738120,note_off,360,0,2,,,,,,,,,2,,,76,0
738125,note_off,845,0,5,,,,,,,,,5,,,57,0
738125,note_off,0,0,5,,,,,,,,,5,,,45,0
738240,set_tempo,470,1,0,,,,,,461538,,,,,,,
738240,note_on,120,0,1,,,,,,,,,1,,,69,46
738480,note_on,0,0,1,,,,,,,,,1,,,70,47
738480,note_off,240,0,1,,,,,,,,,1,,,69,0
738720,note_on,0,0,1,,,,,,,,,1,,,69,47
738720,note_off,240,0,1,,,,,,,,,1,,,70,0
738960,note_on,0,0,1,,,,,,,,,1,,,73,48
738960,note_off,240,0,1,,,,,,,,,1,,,69,0
739160,set_tempo,920,1,0,,,,,,465116,,,,,,,
739200,note_on,0,0,1,,,,,,,,,1,,,74,48
739200,note_off,240,0,1,,,,,,,,,1,,,73,0
739200,set_tempo,40,1,0,,,,,,461538,,,,,,,
739440,note_on,4130,0,4,,,,,,,,,4,,,57,49
739440,note_on,0,0,4,,,,,,,,,4,,,62,49
739440,note_on,1315,0,5,,,,,,,,,5,,,53,49
739630,note_off,190,0,5,,,,,,,,,5,,,53,0
739630,note_off,190,0,4,,,,,,,,,4,,,62,0
739630,note_off,0,0,4,,,,,,,,,4,,,57,0
739680,note_on,50,0,4,,,,,,,,,4,,,57,49
739680,note_on,0,0,4,,,,,,,,,4,,,62,49
739680,note_on,50,0,5,,,,,,,,,5,,,53,49
739680,note_off,480,0,1,,,,,,,,,1,,,74,0
739870,note_off,190,0,5,,,,,,,,,5,,,53,0
739870,note_off,0,0,4,,,,,,,,,4,,,57,0
739870,note_off,190,0,4,,,,,,,,,4,,,62,0
739920,note_on,50,0,4,,,,,,,,,4,,,57,50
739920,note_on,50,0,5,,,,,,,,,5,,,53,50
739920,note_on,0,0,4,,,,,,,,,4,,,62,50
740110,note_off,190,0,5,,,,,,,,,5,,,53,0
740110,note_off,0,0,4,,,,,,,,,4,,,57,0
740110,note_off,190,0,4,,,,,,,,,4,,,62,0
740160,note_on,480,0,1,,,,,,,,,1,,,74,44
740240,note_on,80,0,1,,,,,,,,,1,,,76,46
740255,note_off,15,0,1,,,,,,,,,1,,,74,0
740320,note_on,65,0,1,,,,,,,,,1,,,74,47
740335,note_off,15,0,1,,,,,,,,,1,,,76,0
740400,note_on,0,0,4,,,,,,,,,4,,,57,56
740400,note_on,290,0,4,,,,,,,,,4,,,62,56
740400,note_on,290,0,5,,,,,,,,,5,,,53,56
740400,note_on,65,0,1,,,,,,,,,1,,,76,49
740415,note_off,15,0,1,,,,,,,,,1,,,74,0
740480,note_on,65,0,1,,,,,,,,,1,,,74,50
740495,note_off,15,0,1,,,,,,,,,1,,,76,0
740560,note_on,65,0,1,,,,,,,,,1,,,76,52
740575,note_off,15,0,1,,,,,,,,,1,,,74,0
740590,note_off,190,0,5,,,,,,,,,5,,,53,0
740590,note_off,190,0,4,,,,,,,,,4,,,57,0
740590,note_off,0,0,4,,,,,,,,,4,,,62,0
740640,note_on,65,0,1,,,,,,,,,1,,,74,53
740640,note_on,0,0,4,,,,,,,,,4,,,57,59
740640,note_on,50,0,5,,,,,,,,,5,,,53,59
740640,note_on,50,0,4,,,,,,,,,4,,,62,59
740655,note_off,15,0,1,,,,,,,,,1,,,76,0
740720,note_on,65,0,1,,,,,,,,,1,,,76,55
740735,note_off,15,0,1,,,,,,,,,1,,,74,0
740800,note_on,65,0,1,,,,,,,,,1,,,74,56
740815,note_off,15,0,1,,,,,,,,,1,,,76,0
740830,note_off,0,0,4,,,,,,,,,4,,,62,0
740830,note_off,190,0,4,,,,,,,,,4,,,57,0
740830,note_off,190,0,5,,,,,,,,,5,,,53,0
740880,note_on,65,0,1,,,,,,,,,1,,,72,58
740880,note_on,50,0,5,,,,,,,,,5,,,53,61
740880,note_on,50,0,4,,,,,,,,,4,,,62,61
740880,note_on,0,0,4,,,,,,,,,4,,,57,61
740895,note_off,15,0,1,,,,,,,,,1,,,74,0
741000,note_on,105,0,1,,,,,,,,,1,,,74,60
741025,note_off,25,0,1,,,,,,,,,1,,,72,0
741070,note_off,0,0,4,,,,,,,,,4,,,62,0
741070,note_off,190,0,4,,,,,,,,,4,,,57,0
741070,note_off,190,0,5,,,,,,,,,5,,,53,0
741080,set_tempo,1880,1,0,,,,,,465116,,,,,,,
741120,note_on,95,0,1,,,,,,,,,1,,,75,64
741120,set_tempo,40,1,0,,,,,,454545,,,,,,,
741145,note_off,25,0,1,,,,,,,,,1,,,74,0
741360,note_on,0,0,4,,,,,,,,,4,,,60,67
741360,note_on,290,0,4,,,,,,,,,4,,,57,67
741360,note_on,290,0,5,,,,,,,,,5,,,53,67
741550,note_off,0,0,4,,,,,,,,,4,,,57,0
741550,note_off,190,0,4,,,,,,,,,4,,,60,0
741550,note_off,190,0,5,,,,,,,,,5,,,53,0
741600,note_off,455,0,1,,,,,,,,,1,,,75,0
741600,note_on,50,0,5,,,,,,,,,5,,,53,69
741600,note_on,0,0,4,,,,,,,,,4,,,57,69
741600,note_on,50,0,4,,,,,,,,,4,,,60,69
741790,note_off,0,0,4,,,,,,,,,4,,,60,0
741790,note_off,190,0,5,,,,,,,,,5,,,53,0
741790,note_off,190,0,4,,,,,,,,,4,,,57,0
741840,note_on,0,0,4,,,,,,,,,4,,,60,71
741840,note_on,50,0,4,,,,,,,,,4,,,57,71
741840,note_on,50,0,5,,,,,,,,,5,,,53,71
742030,note_off,0,0,4,,,,,,,,,4,,,57,0
742030,note_off,190,0,5,,,,,,,,,5,,,53,0
742030,note_off,190,0,4,,,,,,,,,4,,,60,0
742080,note_on,480,0,1,,,,,,,,,1,,,75,62
742160,note_on,80,0,1,,,,,,,,,1,,,76,65
742175,note_off,15,0,1,,,,,,,,,1,,,75,0
742240,note_on,65,0,1,,,,,,,,,1,,,75,67
742255,note_off,15,0,1,,,,,,,,,1,,,76,0
742320,note_on,290,0,4,,,,,,,,,4,,,57,75
742320,note_on,0,0,4,,,,,,,,,4,,,60,75
742320,note_on,290,0,5,,,,,,,,,5,,,53,75
742320,note_on,65,0,1,,,,,,,,,1,,,76,69
742335,note_off,15,0,1,,,,,,,,,1,,,75,0
742400,note_on,65,0,1,,,,,,,,,1,,,75,71
742415,note_off,15,0,1,,,,,,,,,1,,,76,0
742480,note_on,65,0,1,,,,,,,,,1,,,76,74
742495,note_off,15,0,1,,,,,,,,,1,,,75,0
742510,note_off,190,0,5,,,,,,,,,5,,,53,0
742510,note_off,190,0,4,,,,,,,,,4,,,60,0
742510,note_off,0,0,4,,,,,,,,,4,,,57,0
742560,note_on,50,0,5,,,,,,,,,5,,,53,79
742560,note_on,65,0,1,,,,,,,,,1,,,75,76
742560,note_on,50,0,4,,,,,,,,,4,,,57,79
742560,note_on,0,0,4,,,,,,,,,4,,,60,79
742575,note_off,15,0,1,,,,,,,,,1,,,76,0
742640,note_on,65,0,1,,,,,,,,,1,,,76,78
742655,note_off,15,0,1,,,,,,,,,1,,,75,0
742720,note_on,65,0,1,,,,,,,,,1,,,75,80
742735,note_off,15,0,1,,,,,,,,,1,,,76,0
742750,note_off,0,0,4,,,,,,,,,4,,,57,0
742750,note_off,190,0,4,,,,,,,,,4,,,60,0
742750,note_off,190,0,5,,,,,,,,,5,,,53,0
742800,note_on,0,0,4,,,,,,,,,4,,,57,84
742800,note_on,50,0,5,,,,,,,,,5,,,53,84
742800,note_on,50,0,4,,,,,,,,,4,,,60,84
742800,note_on,65,0,1,,,,,,,,,1,,,74,83
742815,note_off,15,0,1,,,,,,,,,1,,,75,0
742920,note_on,105,0,1,,,,,,,,,1,,,75,86
742945,note_off,25,0,1,,,,,,,,,1,,,74,0
742990,note_off,190,0,5,,,,,,,,,5,,,53,0
742990,note_off,190,0,4,,,,,,,,,4,,,57,0
742990,note_off,0,0,4,,,,,,,,,4,,,60,0
743000,set_tempo,1880,1,0,,,,,,461538,,,,,,,
743040,set_tempo,40,1,0,,,,,,454545,,,,,,,
743040,note_on,50,0,5,,,,,,,,,5,,,52,90
743040,note_on,95,0,1,,,,,,,,,1,,,76,90
743040,note_on,50,0,4,,,,,,,,,4,,,60,90
743040,note_on,0,0,4,,,,,,,,,4,,,57,90
743065,note_off,25,0,1,,,,,,,,,1,,,75,0
743420,note_off,380,0,4,,,,,,,,,4,,,57,0
743420,note_off,0,0,4,,,,,,,,,4,,,60,0
743420,note_off,380,0,5,,,,,,,,,5,,,52,0
743520,note_on,0,0,1,,,,,,,,,1,,,69,66
743520,note_off,455,0,1,,,,,,,,,1,,,76,0
744000,note_on,580,0,4,,,,,,,,,4,,,59,56
744000,note_on,580,0,5,,,,,,,,,5,,,52,56
744000,note_on,0,0,4,,,,,,,,,4,,,62,56
744480,note_on,0,0,1,,,,,,,,,1,,,71,56
744480,note_off,960,0,1,,,,,,,,,1,,,69,0
744770,note_off,770,0,5,,,,,,,,,5,,,52,0
744770,note_off,770,0,4,,,,,,,,,4,,,62,0
744770,note_off,0,0,4,,,,,,,,,4,,,59,0
744840,note_on,0,0,1,,,,,,,,,1,,,68,61
744840,note_off,360,0,1,,,,,,,,,1,,,71,0
744900,set_tempo,1860,1,0,,,,,,472440,,,,,,,
744960,note_on,0,0,1,,,,,,,,,1,,,69,63
744960,note_off,120,0,1,,,,,,,,,1,,,68,0
744960,note_on,190,0,4,,,,,,,,,4,,,60,63
744960,note_on,190,0,5,,,,,,,,,5,,,57,63
745335,note_off,375,0,1,,,,,,,,,1,,,69,0
745345,note_off,385,0,5,,,,,,,,,5,,,57,0
745345,note_off,385,0,4,,,,,,,,,4,,,60,0
745920,control_change,585,0,1,,,,,,,64,0,1,,,,
745920,control_change,15360,0,3,,,,,,,64,0,3,,,,
745920,control_change,7800,0,2,,,,,,,64,0,2,,,,
745920,set_tempo,1020,1,0,,,,,,461538,,,,,,,
745920,note_on,0,0,1,,,,,,,,,1,,,81,43
745920,control_change,575,0,5,,,,,,,64,0,5,,,,
745920,control_change,575,0,4,,,,,,,64,0,4,,,,
746160,note_on,0,0,1,,,,,,,,,1,,,80,44
746160,note_off,240,0,1,,,,,,,,,1,,,81,0
746400,note_off,240,0,1,,,,,,,,,1,,,80,0
746400,note_on,0,0,1,,,,,,,,,1,,,81,46
746640,note_off,240,0,1,,,,,,,,,1,,,81,0
746640,note_on,0,0,1,,,,,,,,,1,,,83,47
746840,set_tempo,920,1,0,,,,,,465116,,,,,,,
746850,note_off,210,0,1,,,,,,,,,1,,,83,0
746880,note_on,30,0,1,,,,,,,,,1,,,84,51
746880,note_on,960,0,5,,,,,,,,,5,,,66,49
746880,note_on,0,0,5,,,,,,,,,5,,,69,49
746880,set_tempo,40,1,0,,,,,,461538,,,,,,,
747120,note_on,0,0,1,,,,,,,,,1,,,75,48
747120,note_off,240,0,1,,,,,,,,,1,,,84,0
747360,note_on,0,0,1,,,,,,,,,1,,,74,45
747360,note_off,240,0,1,,,,,,,,,1,,,75,0
747360,note_off,480,0,5,,,,,,,,,5,,,69,0
747360,note_off,0,0,5,,,,,,,,,5,,,66,0
747360,note_on,0,0,5,,,,,,,,,5,,,71,42
747360,note_on,0,0,5,,,,,,,,,5,,,67,42
747600,note_on,0,0,1,,,,,,,,,1,,,83,42
747600,note_off,240,0,1,,,,,,,,,1,,,74,0
747745,note_off,0,0,5,,,,,,,,,5,,,71,0
747745,note_off,385,0,5,,,,,,,,,5,,,67,0
747800,note_off,200,0,1,,,,,,,,,1,,,83,0
747840,note_on,95,0,5,,,,,,,,,5,,,67,43
747840,note_on,0,0,5,,,,,,,,,5,,,64,43
747840,note_on,40,0,1,,,,,,,,,1,,,82,45
748080,note_on,0,0,1,,,,,,,,,1,,,73,42
748080,note_off,240,0,1,,,,,,,,,1,,,82,0
748320,note_on,0,0,5,,,,,,,,,5,,,65,36
748320,note_off,0,0,5,,,,,,,,,5,,,67,0
748320,note_on,0,0,5,,,,,,,,,5,,,69,36
748320,note_off,240,0,1,,,,,,,,,1,,,73,0
748320,note_on,0,0,1,,,,,,,,,1,,,74,39
748320,note_off,480,0,5,,,,,,,,,5,,,64,0
748560,note_off,240,0,1,,,,,,,,,1,,,74,0
748560,note_on,0,0,1,,,,,,,,,1,,,81,36
748705,note_off,0,0,5,,,,,,,,,5,,,69,0
748705,note_off,385,0,5,,,,,,,,,5,,,65,0
748760,set_tempo,1880,1,0,,,,,,465116,,,,,,,
748770,note_off,210,0,1,,,,,,,,,1,,,81,0
748800,set_tempo,40,1,0,,,,,,454545,,,,,,,
748800,note_on,2880,0,2,,,,,,,,,2,,,74,71
748800,note_on,95,0,5,,,,,,,,,5,,,58,71
748800,note_on,30,0,1,,,,,,,,,1,,,79,71
749040,note_on,0,0,5,,,,,,,,,5,,,46,66
749040,note_off,240,0,5,,,,,,,,,5,,,58,0
749230,note_off,190,0,5,,,,,,,,,5,,,46,0
749280,note_off,480,0,1,,,,,,,,,1,,,79,0
749280,note_off,480,0,2,,,,,,,,,2,,,74,0
749280,note_on,0,0,1,,,,,,,,,1,,,77,69
749280,note_on,50,0,5,,,,,,,,,5,,,45,69
749280,note_on,0,0,2,,,,,,,,,2,,,72,69
749520,note_on,0,0,5,,,,,,,,,5,,,57,65
749520,note_off,240,0,5,,,,,,,,,5,,,45,0
749710,note_off,190,0,5,,,,,,,,,5,,,57,0
749760,note_off,480,0,2,,,,,,,,,2,,,72,0
749760,note_on,0,0,2,,,,,,,,,2,,,70,67
749760,note_off,480,0,1,,,,,,,,,1,,,77,0
749760,note_on,0,0,1,,,,,,,,,1,,,75,67
749760,note_on,50,0,5,,,,,,,,,5,,,55,67
750000,note_off,240,0,5,,,,,,,,,5,,,55,0
750000,note_on,0,0,5,,,,,,,,,5,,,43,60
750190,note_off,190,0,5,,,,,,,,,5,,,43,0
750240,note_off,480,0,2,,,,,,,,,2,,,70,0
750240,note_on,0,0,2,,,,,,,,,2,,,69,65
750240,note_off,480,0,1,,,,,,,,,1,,,75,0
750240,note_on,0,0,1,,,,,,,,,1,,,74,65
750240,note_on,50,0,5,,,,,,,,,5,,,41,65
750480,note_off,240,0,5,,,,,,,,,5,,,41,0
750480,note_on,0,0,5,,,,,,,,,5,,,53,60
750670,note_off,190,0,5,,,,,,,,,5,,,53,0
750680,set_tempo,1880,1,0,,,,,,465116,,,,,,,
750690,note_off,450,0,2,,,,,,,,,2,,,69,0
750690,note_off,450,0,1,,,,,,,,,1,,,74,0
750720,note_on,30,0,2,,,,,,,,,2,,,67,42
750720,note_on,50,0,5,,,,,,,,,5,,,52,42
750720,note_on,30,0,1,,,,,,,,,1,,,73,42
750720,set_tempo,40,1,0,,,,,,447761,,,,,,,
750960,note_off,240,0,1,,,,,,,,,1,,,73,0
750960,note_off,240,0,5,,,,,,,,,5,,,52,0
750960,note_on,0,0,1,,,,,,,,,1,,,74,44
750960,note_off,240,0,2,,,,,,,,,2,,,67,0
751200,note_on,0,0,1,,,,,,,,,1,,,76,46
751200,note_off,240,0,1,,,,,,,,,1,,,74,0
751440,note_off,240,0,1,,,,,,,,,1,,,76,0
751440,note_on,0,0,1,,,,,,,,,1,,,73,47
751650,note_off,210,0,1,,,,,,,,,1,,,73,0
751680,note_on,30,0,1,,,,,,,,,1,,,74,49
751680,note_on,720,0,5,,,,,,,,,5,,,53,49
751680,note_on,720,0,2,,,,,,,,,2,,,69,49
751920,note_off,240,0,5,,,,,,,,,5,,,53,0
751920,note_on,0,0,1,,,,,,,,,1,,,76,51
751920,note_off,240,0,1,,,,,,,,,1,,,74,0
751920,note_off,240,0,2,,,,,,,,,2,,,69,0
752160,note_off,240,0,1,,,,,,,,,1,,,76,0
752160,note_on,0,0,1,,,,,,,,,1,,,77,52
752400,note_on,0,0,1,,,,,,,,,1,,,74,54
752400,note_off,240,0,1,,,,,,,,,1,,,77,0
752600,set_tempo,1880,1,0,,,,,,465116,,,,,,,
752610,note_off,210,0,1,,,,,,,,,1,,,74,0
752640,note_on,720,0,2,,,,,,,,,2,,,73,56
752640,note_on,30,0,1,,,,,,,,,1,,,76,56
752640,note_on,720,0,5,,,,,,,,,5,,,57,56
753025,note_off,385,0,1,,,,,,,,,1,,,76,0
753025,note_off,385,0,2,,,,,,,,,2,,,73,0
753025,note_off,385,0,5,,,,,,,,,5,,,57,0
753600,note_on,575,0,5,,,,,,,,,5,,,40,66
753840,note_off,240,0,5,,,,,,,,,5,,,40,0
753840,note_on,0,0,5,,,,,,,,,5,,,41,70
754080,note_off,240,0,5,,,,,,,,,5,,,41,0
754080,note_on,0,0,5,,,,,,,,,5,,,40,75
754320,note_off,240,0,5,,,,,,,,,5,,,40,0
754320,note_on,0,0,5,,,,,,,,,5,,,44,79
754520,set_tempo,1920,1,0,,,,,,480000,,,,,,,
754560,note_on,0,0,5,,,,,,,,,5,,,45,86
754560,note_off,240,0,5,,,,,,,,,5,,,44,0
754945,note_off,385,0,5,,,,,,,,,5,,,45,0
755280,set_tempo,760,1,0,,,,,,1276595,,,,,,,
755520,note_on,2495,0,1,,,,,,,,,1,,,69,37
755520,set_tempo,240,1,0,,,,,,461538,,,,,,,
755760,note_off,240,0,1,,,,,,,,,1,,,69,0
755760,note_on,0,0,1,,,,,,,,,1,,,70,37
756000,note_off,240,0,1,,,,,,,,,1,,,70,0
756000,note_on,0,0,1,,,,,,,,,1,,,69,38
756240,note_off,240,0,1,,,,,,,,,1,,,69,0
756240,note_on,0,0,1,,,,,,,,,1,,,73,38
756440,set_tempo,920,1,0,,,,,,465116,,,,,,,
756480,note_on,0,0,1,,,,,,,,,1,,,74,39
756480,set_tempo,40,1,0,,,,,,461538,,,,,,,
756480,note_off,240,0,1,,,,,,,,,1,,,73,0
756720,note_on,1775,0,5,,,,,,,,,5,,,53,40
756720,note_on,0,0,4,,,,,,,,,4,,,62,40
756720,note_on,10800,0,4,,,,,,,,,4,,,57,40
756910,note_off,190,0,5,,,,,,,,,5,,,53,0
756910,note_off,0,0,4,,,,,,,,,4,,,57,0
756910,note_off,190,0,4,,,,,,,,,4,,,62,0
756960,note_on,50,0,5,,,,,,,,,5,,,53,40
756960,note_on,0,0,4,,,,,,,,,4,,,62,40
756960,note_off,480,0,1,,,,,,,,,1,,,74,0
756960,note_on,50,0,4,,,,,,,,,4,,,57,40
757150,note_off,190,0,4,,,,,,,,,4,,,62,0
757150,note_off,0,0,4,,,,,,,,,4,,,57,0
757150,note_off,190,0,5,,,,,,,,,5,,,53,0
757200,note_on,50,0,4,,,,,,,,,4,,,57,41
757200,note_on,50,0,5,,,,,,,,,5,,,53,41
757390,note_off,190,0,4,,,,,,,,,4,,,57,0
757390,note_off,190,0,5,,,,,,,,,5,,,53,0
757440,note_on,480,0,1,,,,,,,,,1,,,76,40
757520,note_on,80,0,1,,,,,,,,,1,,,77,41
757535,note_off,15,0,1,,,,,,,,,1,,,76,0
757600,note_on,65,0,1,,,,,,,,,1,,,76,43
757615,note_off,15,0,1,,,,,,,,,1,,,77,0
757680,note_on,290,0,4,,,,,,,,,4,,,58,47
757680,note_on,0,0,4,,,,,,,,,4,,,62,47
757680,note_on,290,0,5,,,,,,,,,5,,,55,47
757680,note_on,65,0,1,,,,,,,,,1,,,77,44
757695,note_off,15,0,1,,,,,,,,,1,,,76,0
757760,note_on,65,0,1,,,,,,,,,1,,,76,45
757775,note_off,15,0,1,,,,,,,,,1,,,77,0
757840,note_on,65,0,1,,,,,,,,,1,,,77,46
757855,note_off,15,0,1,,,,,,,,,1,,,76,0
757870,note_off,0,0,4,,,,,,,,,4,,,58,0
757870,note_off,190,0,4,,,,,,,,,4,,,62,0
757870,note_off,190,0,5,,,,,,,,,5,,,55,0
757920,note_on,50,0,5,,,,,,,,,5,,,55,49
757920,note_on,0,0,4,,,,,,,,,4,,,62,49
757920,note_on,50,0,4,,,,,,,,,4,,,58,49
757920,note_on,65,0,1,,,,,,,,,1,,,76,47
757935,note_off,15,0,1,,,,,,,,,1,,,77,0
758000,note_on,65,0,1,,,,,,,,,1,,,77,49
758015,note_off,15,0,1,,,,,,,,,1,,,76,0
758080,note_on,65,0,1,,,,,,,,,1,,,76,50
758095,note_off,15,0,1,,,,,,,,,1,,,77,0
758110,note_off,0,0,4,,,,,,,,,4,,,58,0
758110,note_off,190,0,4,,,,,,,,,4,,,62,0
758110,note_off,190,0,5,,,,,,,,,5,,,55,0
758160,note_on,50,0,5,,,,,,,,,5,,,55,52
758160,note_on,0,0,4,,,,,,,,,4,,,62,52
758160,note_on,65,0,1,,,,,,,,,1,,,74,51
758160,note_on,50,0,4,,,,,,,,,4,,,58,52
758175,note_off,15,0,1,,,,,,,,,1,,,76,0
758280,note_on,105,0,1,,,,,,,,,1,,,76,53
758310,note_off,30,0,1,,,,,,,,,1,,,74,0
758350,note_off,190,0,4,,,,,,,,,4,,,62,0
758350,note_off,0,0,4,,,,,,,,,4,,,58,0
758350,note_off,190,0,5,,,,,,,,,5,,,55,0
758360,set_tempo,1880,1,0,,,,,,465116,,,,,,,
758400,set_tempo,40,1,0,,,,,,454545,,,,,,,
758400,note_off,90,0,1,,,,,,,,,1,,,76,0
758400,note_on,0,0,1,,,,,,,,,1,,,78,54
758640,note_on,290,0,5,,,,,,,,,5,,,57,55
758640,note_on,0,0,4,,,,,,,,,4,,,62,55
758640,note_on,290,0,4,,,,,,,,,4,,,60,55
758830,note_off,190,0,5,,,,,,,,,5,,,57,0
758830,note_off,190,0,4,,,,,,,,,4,,,62,0
758830,note_off,0,0,4,,,,,,,,,4,,,60,0
758880,note_on,50,0,5,,,,,,,,,5,,,57,56
758880,note_on,50,0,4,,,,,,,,,4,,,60,56
758880,note_on,0,0,4,,,,,,,,,4,,,62,56
758880,note_off,480,0,1,,,,,,,,,1,,,78,0
759070,note_off,190,0,5,,,,,,,,,5,,,57,0
759070,note_off,190,0,4,,,,,,,,,4,,,62,0
759070,note_off,0,0,4,,,,,,,,,4,,,60,0
759120,note_on,50,0,5,,,,,,,,,5,,,57,57
759120,note_on,50,0,4,,,,,,,,,4,,,60,57
759120,note_on,0,0,4,,,,,,,,,4,,,62,57
759310,note_off,190,0,5,,,,,,,,,5,,,57,0
759310,note_off,190,0,4,,,,,,,,,4,,,62,0
759310,note_off,0,0,4,,,,,,,,,4,,,60,0
759360,note_on,480,0,1,,,,,,,,,1,,,79,54
759440,note_on,80,0,1,,,,,,,,,1,,,81,56
759455,note_off,15,0,1,,,,,,,,,1,,,79,0
759520,note_on,65,0,1,,,,,,,,,1,,,79,58
759535,note_off,15,0,1,,,,,,,,,1,,,81,0
759600,note_on,65,0,1,,,,,,,,,1,,,81,60
759600,note_on,290,0,5,,,,,,,,,5,,,59,63
759600,note_on,290,0,4,,,,,,,,,4,,,62,63
759615,note_off,15,0,1,,,,,,,,,1,,,79,0
759680,note_on,65,0,1,,,,,,,,,1,,,79,62
759695,note_off,15,0,1,,,,,,,,,1,,,81,0
759760,note_on,65,0,1,,,,,,,,,1,,,81,64
759775,note_off,15,0,1,,,,,,,,,1,,,79,0
759790,note_off,190,0,4,,,,,,,,,4,,,62,0
759790,note_off,190,0,5,,,,,,,,,5,,,59,0
759840,note_on,50,0,4,,,,,,,,,4,,,62,69
759840,note_on,65,0,1,,,,,,,,,1,,,79,65
759840,note_on,50,0,5,,,,,,,,,5,,,59,69
759855,note_off,15,0,1,,,,,,,,,1,,,81,0
759920,note_on,65,0,1,,,,,,,,,1,,,81,67
759935,note_off,15,0,1,,,,,,,,,1,,,79,0
760000,note_on,65,0,1,,,,,,,,,1,,,79,69
760015,note_off,15,0,1,,,,,,,,,1,,,81,0
760030,note_off,190,0,4,,,,,,,,,4,,,62,0
760030,note_off,190,0,5,,,,,,,,,5,,,59,0
760080,note_on,50,0,5,,,,,,,,,5,,,59,74
760080,note_on,50,0,4,,,,,,,,,4,,,62,74
760080,note_on,65,0,1,,,,,,,,,1,,,78,71
760095,note_off,15,0,1,,,,,,,,,1,,,79,0
760200,note_on,105,0,1,,,,,,,,,1,,,79,74
760235,note_off,35,0,1,,,,,,,,,1,,,78,0
760270,note_off,190,0,5,,,,,,,,,5,,,59,0
760270,note_off,190,0,4,,,,,,,,,4,,,62,0
760280,set_tempo,1880,1,0,,,,,,461538,,,,,,,
760320,note_on,50,0,5,,,,,,,,,5,,,58,79
760320,note_on,0,0,1,,,,,,,,,1,,,80,79
760320,note_off,85,0,1,,,,,,,,,1,,,79,0
760320,set_tempo,40,1,0,,,,,,500000,,,,,,,
760320,note_on,50,0,4,,,,,,,,,4,,,62,79
760705,note_off,385,0,4,,,,,,,,,4,,,62,0
760705,note_off,385,0,5,,,,,,,,,5,,,58,0
760800,set_tempo,480,1,0,,,,,,461538,,,,,,,
760800,note_off,480,0,1,,,,,,,,,1,,,80,0
760800,note_on,0,0,1,,,,,,,,,1,,,81,88
760800,note_on,95,0,5,,,,,,,,,5,,,57,88
760800,note_on,95,0,4,,,,,,,,,4,,,62,88
760800,note_on,0,0,4,,,,,,,,,4,,,65,88
761570,note_off,770,0,5,,,,,,,,,5,,,57,0
761570,note_off,770,0,4,,,,,,,,,4,,,65,0
761570,note_off,0,0,4,,,,,,,,,4,,,62,0
761760,note_on,190,0,5,,,,,,,,,5,,,57,49
761760,note_on,190,0,4,,,,,,,,,4,,,67,49
761760,note_on,0,0,1,,,,,,,,,1,,,76,49
761760,note_off,960,0,1,,,,,,,,,1,,,81,0
762120,note_on,0,0,4,,,,,,,,,4,,,64,39
762120,note_on,0,0,1,,,,,,,,,1,,,73,39
762120,note_off,360,0,1,,,,,,,,,1,,,76,0
762120,note_off,360,0,4,,,,,,,,,4,,,67,0
762145,note_off,385,0,5,,,,,,,,,5,,,57,0
762200,set_tempo,1400,1,0,,,,,,472440,,,,,,,
762240,note_off,120,0,4,,,,,,,,,4,,,64,0
762240,note_on,0,0,4,,,,,,,,,4,,,65,36
762240,note_off,120,0,1,,,,,,,,,1,,,73,0
762240,note_on,95,0,5,,,,,,,,,5,,,62,36
762240,note_on,0,0,1,,,,,,,,,1,,,74,36
762720,note_off,480,0,4,,,,,,,,,4,,,65,0
762720,note_off,480,0,5,,,,,,,,,5,,,62,0
762720,set_tempo,520,1,0,,,,,,1000000,,,,,,,
762720,note_off,480,0,1,,,,,,,,,1,,,74,0
763200,control_change,480,0,1,,,,,,,64,0,1,,,,
763200,note_on,0,0,1,,,,,,,,,1,,,81,36
763200,set_tempo,480,1,0,,,,,,441176,,,,,,,
763200,control_change,10175,0,2,,,,,,,64,0,2,,,,
763200,note_on,0,0,2,,,,,,,,,2,,,69,36
763200,control_change,480,0,4,,,,,,,64,0,4,,,,
763200,control_change,480,0,5,,,,,,,64,0,5,,,,
763200,control_change,17280,0,3,,,,,,,64,0,3,,,,
763200,marker,0,1,0,,,,,,,,,,,,,
763585,note_off,385,0,1,,,,,,,,,1,,,81,0
763585,note_off,385,0,2,,,,,,,,,2,,,69,0
763680,note_on,95,0,2,,,,,,,,,2,,,69,38
763680,note_on,95,0,1,,,,,,,,,1,,,81,38
763870,note_off,190,0,1,,,,,,,,,1,,,81,0
763870,note_off,190,0,2,,,,,,,,,2,,,69,0
763920,note_on,50,0,1,,,,,,,,,1,,,81,40
763920,note_on,50,0,2,,,,,,,,,2,,,69,40
764110,note_off,190,0,1,,,,,,,,,1,,,81,0
764110,note_off,190,0,2,,,,,,,,,2,,,69,0
764120,set_tempo,920,1,0,,,,,,447761,,,,,,,
764160,note_on,50,0,2,,,,,,,,,2,,,74,42
764160,note_on,50,0,1,,,,,,,,,1,,,86,42
764160,set_tempo,40,1,0,,,,,,441176,,,,,,,
764400,note_on,0,0,5,,,,,,,,,5,,,62,38
764400,note_on,1200,0,5,,,,,,,,,5,,,66,38
764545,note_off,385,0,1,,,,,,,,,1,,,86,0
764545,note_off,385,0,2,,,,,,,,,2,,,74,0
764640,note_on,0,0,5,,,,,,,,,5,,,67,38
764640,note_on,0,0,5,,,,,,,,,5,,,64,38
764640,note_off,240,0,5,,,,,,,,,5,,,62,0
764640,note_off,0,0,5,,,,,,,,,5,,,66,0
764880,note_on,0,0,5,,,,,,,,,5,,,66,39
764880,note_on,0,0,5,,,,,,,,,5,,,69,39
764880,note_off,0,0,5,,,,,,,,,5,,,64,0
764880,note_off,240,0,5,,,,,,,,,5,,,67,0
765090,note_off,210,0,5,,,,,,,,,5,,,69,0
765095,note_off,5,0,5,,,,,,,,,5,,,66,0
765120,note_on,575,0,1,,,,,,,,,1,,,86,39
765120,note_on,575,0,2,,,,,,,,,2,,,74,39
765505,note_off,385,0,1,,,,,,,,,1,,,86,0
765505,note_off,385,0,2,,,,,,,,,2,,,74,0
765600,note_on,95,0,1,,,,,,,,,1,,,86,41
765600,note_on,95,0,2,,,,,,,,,2,,,74,41
765790,note_off,190,0,1,,,,,,,,,1,,,86,0
765790,note_off,190,0,2,,,,,,,,,2,,,74,0
765840,note_on,50,0,1,,,,,,,,,1,,,86,43
765840,note_on,50,0,2,,,,,,,,,2,,,74,43
766030,note_off,190,0,1,,,,,,,,,1,,,86,0
766030,note_off,190,0,2,,,,,,,,,2,,,74,0
766040,set_tempo,1880,1,0,,,,,,447761,,,,,,,
766080,note_on,50,0,1,,,,,,,,,1,,,79,44
766080,set_tempo,40,1,0,,,,,,441176,,,,,,,
766080,note_on,50,0,2,,,,,,,,,2,,,67,44
766320,note_on,1225,0,5,,,,,,,,,5,,,61,41
766320,note_on,0,0,5,,,,,,,,,5,,,57,41
766465,note_off,385,0,1,,,,,,,,,1,,,79,0
766465,note_off,385,0,2,,,,,,,,,2,,,67,0
766560,note_on,0,0,5,,,,,,,,,5,,,62,41
766560,note_off,0,0,5,,,,,,,,,5,,,61,0
766560,note_off,240,0,5,,,,,,,,,5,,,57,0
766560,note_on,0,0,5,,,,,,,,,5,,,59,41
766800,note_on,0,0,5,,,,,,,,,5,,,64,41
766800,note_off,240,0,5,,,,,,,,,5,,,59,0
766800,note_off,0,0,5,,,,,,,,,5,,,62,0
766800,note_on,0,0,5,,,,,,,,,5,,,61,41
767010,note_off,210,0,5,,,,,,,,,5,,,61,0
767015,note_off,5,0,5,,,,,,,,,5,,,64,0
767040,note_on,575,0,1,,,,,,,,,1,,,79,42
767040,note_on,575,0,2,,,,,,,,,2,,,67,42
767425,note_off,385,0,1,,,,,,,,,1,,,79,0
767425,note_off,385,0,2,,,,,,,,,2,,,67,0
767520,note_on,95,0,1,,,,,,,,,1,,,79,43
767520,note_on,95,0,2,,,,,,,,,2,,,67,43
767710,note_off,190,0,1,,,,,,,,,1,,,79,0
767710,note_off,190,0,2,,,,,,,,,2,,,67,0
767760,note_on,50,0,2,,,,,,,,,2,,,67,44
767760,note_on,50,0,1,,,,,,,,,1,,,79,44
767950,note_off,190,0,2,,,,,,,,,2,,,67,0
767950,note_off,190,0,1,,,,,,,,,1,,,79,0
767960,set_tempo,1880,1,0,,,,,,447761,,,,,,,
768000,note_on,50,0,2,,,,,,,,,2,,,66,46
768000,set_tempo,40,1,0,,,,,,441176,,,,,,,
768000,note_on,985,0,5,,,,,,,,,5,,,62,46
768000,note_on,0,0,5,,,,,,,,,5,,,50,46
768000,note_on,50,0,1,,,,,,,,,1,,,78,46
768240,note_on,240,0,2,,,,,,,,,2,,,67,48
768240,note_on,240,0,1,,,,,,,,,1,,,79,48
768255,note_off,15,0,2,,,,,,,,,2,,,66,0
768255,note_off,15,0,1,,,,,,,,,1,,,78,0
768385,note_off,385,0,5,,,,,,,,,5,,,50,0
768385,note_off,0,0,5,,,,,,,,,5,,,62,0
768395,note_off,140,0,2,,,,,,,,,2,,,67,0
768395,note_off,140,0,1,,,,,,,,,1,,,79,0
768480,note_on,85,0,1,,,,,,,,,1,,,80,50
768480,note_on,85,0,2,,,,,,,,,2,,,68,50
768635,note_off,155,0,2,,,,,,,,,2,,,68,0
768635,note_off,155,0,1,,,,,,,,,1,,,80,0
768720,note_on,85,0,1,,,,,,,,,1,,,81,53
768720,note_on,85,0,2,,,,,,,,,2,,,69,53
768875,note_off,155,0,1,,,,,,,,,1,,,81,0
768875,note_off,155,0,2,,,,,,,,,2,,,69,0
768960,note_on,85,0,1,,,,,,,,,1,,,82,55
768960,note_on,85,0,2,,,,,,,,,2,,,70,55
768960,note_on,0,0,5,,,,,,,,,5,,,55,55
768960,note_on,575,0,5,,,,,,,,,5,,,43,55
769115,note_off,155,0,1,,,,,,,,,1,,,82,0
769115,note_off,155,0,2,,,,,,,,,2,,,70,0
769200,note_on,85,0,2,,,,,,,,,2,,,71,57
769200,note_on,85,0,1,,,,,,,,,1,,,83,57
769345,note_off,0,0,5,,,,,,,,,5,,,43,0
769345,note_off,385,0,5,,,,,,,,,5,,,55,0
769355,note_off,155,0,1,,,,,,,,,1,,,83,0
769355,note_off,155,0,2,,,,,,,,,2,,,71,0
769440,note_on,85,0,2,,,,,,,,,2,,,73,60
769440,note_on,85,0,1,,,,,,,,,1,,,85,60
769595,note_off,155,0,2,,,,,,,,,2,,,73,0
769595,note_off,155,0,1,,,,,,,,,1,,,85,0
769680,note_on,85,0,2,,,,,,,,,2,,,74,62
769680,note_on,85,0,1,,,,,,,,,1,,,86,62
769835,note_off,155,0,2,,,,,,,,,2,,,74,0
769835,note_off,155,0,1,,,,,,,,,1,,,86,0
769880,set_tempo,1880,1,0,,,,,,447761,,,,,,,
769920,note_on,0,0,5,,,,,,,,,5,,,57,64
769920,note_on,85,0,2,,,,,,,,,2,,,74,64
769920,note_on,575,0,5,,,,,,,,,5,,,45,64
769920,note_on,85,0,1,,,,,,,,,1,,,78,64
770305,note_off,385,0,5,,,,,,,,,5,,,57,0
770305,note_off,0,0,5,,,,,,,,,5,,,45,0
770400,note_on,0,0,2,,,,,,,,,2,,,73,47
770400,note_on,0,0,1,,,,,,,,,1,,,76,47
770400,note_off,480,0,2,,,,,,,,,2,,,74,0
770400,note_off,480,0,1,,,,,,,,,1,,,78,0
770760,set_tempo,880,1,0,,,,,,461538,,,,,,,
770785,note_off,385,0,1,,,,,,,,,1,,,76,0
770785,note_off,385,0,2,,,,,,,,,2,,,73,0
770880,set_tempo,120,1,0,,,,,,441176,,,,,,,
770880,note_on,0,0,5,,,,,,,,,5,,,45,58
770880,note_on,575,0,5,,,,,,,,,5,,,57,58
771265,note_off,385,0,5,,,,,,,,,5,,,45,0
771265,note_off,0,0,5,,,,,,,,,5,,,57,0
771360,note_on,95,0,5,,,,,,,,,5,,,57,62
771360,note_on,0,0,5,,,,,,,,,5,,,45,62
771550,note_off,190,0,5,,,,,,,,,5,,,45,0
771550,note_off,0,0,5,,,,,,,,,5,,,57,0
771600,note_on,0,0,5,,,,,,,,,5,,,45,64
771600,note_on,50,0,5,,,,,,,,,5,,,57,64
771790,note_off,190,0,5,,,,,,,,,5,,,45,0
771790,note_off,0,0,5,,,,,,,,,5,,,57,0
771800,set_tempo,920,1,0,,,,,,447761,,,,,,,
771840,set_tempo,40,1,0,,,,,,441176,,,,,,,
771840,note_on,50,0,5,,,,,,,,,5,,,62,66
771840,note_on,0,0,5,,,,,,,,,5,,,50,66
772080,note_on,1295,0,1,,,,,,,,,1,,,78,63
772080,note_on,1295,0,2,,,,,,,,,2,,,74,63
772225,note_off,385,0,5,,,,,,,,,5,,,50,0
772225,note_off,0,0,5,,,,,,,,,5,,,62,0
772320,note_on,0,0,2,,,,,,,,,2,,,76,64
772320,note_off,240,0,2,,,,,,,,,2,,,74,0
772320,note_on,0,0,1,,,,,,,,,1,,,79,64
772320,note_off,240,0,1,,,,,,,,,1,,,78,0
772560,note_on,0,0,2,,,,,,,,,2,,,78,66
772560,note_off,240,0,2,,,,,,,,,2,,,76,0
772560,note_on,0,0,1,,,,,,,,,1,,,81,66
772560,note_off,240,0,1,,,,,,,,,1,,,79,0
772770,note_off,210,0,2,,,,,,,,,2,,,78,0
772770,note_off,210,0,1,,,,,,,,,1,,,81,0
772800,note_on,0,0,5,,,,,,,,,5,,,50,66
772800,note_on,575,0,5,,,,,,,,,5,,,62,66
773185,note_off,385,0,5,,,,,,,,,5,,,50,0
773185,note_off,0,0,5,,,,,,,,,5,,,62,0
773280,note_on,0,0,5,,,,,,,,,5,,,50,70
773280,note_on,95,0,5,,,,,,,,,5,,,62,70
773470,note_off,0,0,5,,,,,,,,,5,,,62,0
773470,note_off,190,0,5,,,,,,,,,5,,,50,0
773520,note_on,0,0,5,,,,,,,,,5,,,50,72
773520,note_on,50,0,5,,,,,,,,,5,,,62,72
773710,note_off,190,0,5,,,,,,,,,5,,,50,0
773710,note_off,0,0,5,,,,,,,,,5,,,62,0
773720,set_tempo,1880,1,0,,,,,,447761,,,,,,,
773760,set_tempo,40,1,0,,,,,,441176,,,,,,,
773760,note_on,50,0,5,,,,,,,,,5,,,52,75
773760,note_on,0,0,5,,,,,,,,,5,,,40,75
774000,note_on,1230,0,2,,,,,,,,,2,,,80,72
774000,note_on,1230,0,1,,,,,,,,,1,,,83,72
774145,note_off,385,0,5,,,,,,,,,5,,,40,0
774145,note_off,0,0,5,,,,,,,,,5,,,52,0
774240,note_on,0,0,2,,,,,,,,,2,,,81,73
774240,note_off,240,0,2,,,,,,,,,2,,,80,0
774240,note_off,240,0,1,,,,,,,,,1,,,83,0
774240,note_on,0,0,1,,,,,,,,,1,,,85,73
774480,note_off,240,0,2,,,,,,,,,2,,,81,0
774480,note_on,0,0,2,,,,,,,,,2,,,83,74
774480,note_off,240,0,1,,,,,,,,,1,,,85,0
774480,note_on,0,0,1,,,,,,,,,1,,,86,74
774690,note_off,210,0,2,,,,,,,,,2,,,83,0
774690,note_off,210,0,1,,,,,,,,,1,,,86,0
774720,note_on,30,0,2,,,,,,,,,2,,,64,75
774720,note_on,30,0,1,,,,,,,,,1,,,76,75
774960,note_on,815,0,5,,,,,,,,,5,,,56,76
774960,note_on,0,0,5,,,,,,,,,5,,,59,76
775105,note_off,385,0,2,,,,,,,,,2,,,64,0
775105,note_off,385,0,1,,,,,,,,,1,,,76,0
775200,note_off,0,0,5,,,,,,,,,5,,,56,0
775200,note_off,240,0,5,,,,,,,,,5,,,59,0
775200,note_on,0,0,5,,,,,,,,,5,,,61,77
775200,note_on,95,0,2,,,,,,,,,2,,,64,79
775200,note_on,95,0,1,,,,,,,,,1,,,76,79
775200,note_on,0,0,5,,,,,,,,,5,,,57,77
775390,note_off,190,0,1,,,,,,,,,1,,,76,0
775390,note_off,190,0,2,,,,,,,,,2,,,64,0
775440,note_on,50,0,2,,,,,,,,,2,,,64,81
775440,note_on,50,0,1,,,,,,,,,1,,,76,81
775440,note_off,240,0,5,,,,,,,,,5,,,61,0
775440,note_off,0,0,5,,,,,,,,,5,,,57,0
775440,note_on,0,0,5,,,,,,,,,5,,,62,78
775440,note_on,0,0,5,,,,,,,,,5,,,59,78
775630,note_off,190,0,1,,,,,,,,,1,,,76,0
775630,note_off,190,0,2,,,,,,,,,2,,,64,0
775640,set_tempo,1880,1,0,,,,,,447761,,,,,,,
775650,note_off,210,0,5,,,,,,,,,5,,,59,0
775650,note_off,0,0,5,,,,,,,,,5,,,62,0
775680,set_tempo,40,1,0,,,,,,441176,,,,,,,
775680,note_on,50,0,2,,,,,,,,,2,,,76,84
775680,note_on,50,0,1,,,,,,,,,1,,,88,84
775870,note_off,190,0,2,,,,,,,,,2,,,76,0
775870,note_off,190,0,1,,,,,,,,,1,,,88,0
775920,note_on,270,0,5,,,,,,,,,5,,,57,79
775920,note_on,12720,0,4,,,,,,,,,4,,,61,79
776110,note_off,190,0,4,,,,,,,,,4,,,61,0
776110,note_off,190,0,5,,,,,,,,,5,,,57,0
776160,note_on,290,0,2,,,,,,,,,2,,,74,78
776160,note_on,290,0,1,,,,,,,,,1,,,86,78
776350,note_off,190,0,2,,,,,,,,,2,,,74,0
776350,note_off,190,0,1,,,,,,,,,1,,,86,0
776400,note_on,290,0,5,,,,,,,,,5,,,50,76
776400,note_on,290,0,4,,,,,,,,,4,,,59,76
776590,note_off,190,0,4,,,,,,,,,4,,,59,0
776590,note_off,190,0,5,,,,,,,,,5,,,50,0
776640,note_on,290,0,1,,,,,,,,,1,,,85,75
776640,note_on,290,0,2,,,,,,,,,2,,,73,75
776830,note_off,190,0,1,,,,,,,,,1,,,85,0
776830,note_off,190,0,2,,,,,,,,,2,,,73,0
776880,note_on,290,0,4,,,,,,,,,4,,,57,73
776880,note_on,290,0,5,,,,,,,,,5,,,52,73
777070,note_off,190,0,5,,,,,,,,,5,,,52,0
777070,note_off,190,0,4,,,,,,,,,4,,,57,0
777120,note_on,290,0,1,,,,,,,,,1,,,83,71
777120,note_on,290,0,2,,,,,,,,,2,,,71,71
777310,note_off,190,0,1,,,,,,,,,1,,,83,0
777310,note_off,190,0,2,,,,,,,,,2,,,71,0
777360,note_on,290,0,4,,,,,,,,,4,,,56,70
777360,note_on,290,0,5,,,,,,,,,5,,,52,70
777550,note_off,190,0,5,,,,,,,,,5,,,52,0
777550,note_off,190,0,4,,,,,,,,,4,,,56,0
777570,set_tempo,1890,1,0,,,,,,447761,,,,,,,
777600,note_on,290,0,1,,,,,,,,,1,,,81,68
777600,note_on,290,0,2,,,,,,,,,2,,,69,68
777840,note_on,290,0,5,,,,,,,,,5,,,57,67
777985,note_off,385,0,2,,,,,,,,,2,,,69,0
777985,note_off,385,0,1,,,,,,,,,1,,,81,0
778030,note_off,190,0,5,,,,,,,,,5,,,57,0
778080,note_on,50,0,5,,,,,,,,,5,,,45,65
778390,note_off,310,0,5,,,,,,,,,5,,,45,0
778440,set_tempo,870,1,0,,,,,,461538,,,,,,,
778560,control_change,575,0,1,,,,,,,64,0,1,,,,
778560,set_tempo,120,1,0,,,,,,441176,,,,,,,
778560,control_change,15360,0,3,,,,,,,64,0,3,,,,
778560,control_change,170,0,5,,,,,,,64,0,5,,,,
778560,control_change,1010,0,4,,,,,,,64,0,4,,,,
778560,note_on,0,0,1,,,,,,,,,1,,,81,36
778560,note_on,0,0,2,,,,,,,,,2,,,69,36
778560,control_change,575,0,2,,,,,,,64,0,2,,,,
778945,note_off,385,0,2,,,,,,,,,2,,,69,0
778945,note_off,385,0,1,,,,,,,,,1,,,81,0
779040,note_on,95,0,1,,,,,,,,,1,,,81,38
779040,note_on,95,0,2,,,,,,,,,2,,,69,38
779230,note_off,190,0,2,,,,,,,,,2,,,69,0
779230,note_off,190,0,1,,,,,,,,,1,,,81,0
779280,note_on,50,0,2,,,,,,,,,2,,,69,40
779280,note_on,50,0,1,,,,,,,,,1,,,81,40
779470,note_off,190,0,2,,,,,,,,,2,,,69,0
779470,note_off,190,0,1,,,,,,,,,1,,,81,0
779480,set_tempo,920,1,0,,,,,,447761,,,,,,,
779520,set_tempo,40,1,0,,,,,,441176,,,,,,,
779520,note_on,50,0,2,,,,,,,,,2,,,74,42
779520,note_on,50,0,1,,,,,,,,,1,,,86,42
779760,note_on,1200,0,5,,,,,,,,,5,,,62,38
779760,note_on,0,0,5,,,,,,,,,5,,,66,38
779905,note_off,385,0,1,,,,,,,,,1,,,86,0
779905,note_off,385,0,2,,,,,,,,,2,,,74,0
780000,note_off,0,0,5,,,,,,,,,5,,,62,0
780000,note_on,0,0,5,,,,,,,,,5,,,64,38
780000,note_on,0,0,5,,,,,,,,,5,,,67,38
780000,note_off,240,0,5,,,,,,,,,5,,,66,0
780240,note_on,0,0,5,,,,,,,,,5,,,69,39
780240,note_on,0,0,5,,,,,,,,,5,,,66,39
780240,note_off,0,0,5,,,,,,,,,5,,,67,0
780240,note_off,240,0,5,,,,,,,,,5,,,64,0
780450,note_off,210,0,5,,,,,,,,,5,,,69,0
780455,note_off,5,0,5,,,,,,,,,5,,,66,0
780480,note_on,575,0,2,,,,,,,,,2,,,74,39
780480,note_on,575,0,1,,,,,,,,,1,,,86,39
780865,note_off,385,0,1,,,,,,,,,1,,,86,0
780865,note_off,385,0,2,,,,,,,,,2,,,74,0
780960,note_on,95,0,2,,,,,,,,,2,,,74,41
780960,note_on,95,0,1,,,,,,,,,1,,,86,41
781150,note_off,190,0,1,,,,,,,,,1,,,86,0
781150,note_off,190,0,2,,,,,,,,,2,,,74,0
781200,note_on,50,0,2,,,,,,,,,2,,,74,43
781200,note_on,50,0,1,,,,,,,,,1,,,86,43
781390,note_off,190,0,1,,,,,,,,,1,,,86,0
781390,note_off,190,0,2,,,,,,,,,2,,,74,0
781400,set_tempo,1880,1,0,,,,,,447761,,,,,,,
781440,set_tempo,40,1,0,,,,,,441176,,,,,,,
781440,note_on,50,0,1,,,,,,,,,1,,,79,44
781440,note_on,50,0,2,,,,,,,,,2,,,67,44
781680,note_on,1225,0,5,,,,,,,,,5,,,57,41
781680,note_on,0,0,5,,,,,,,,,5,,,61,41
781825,note_off,385,0,2,,,,,,,,,2,,,67,0
781825,note_off,385,0,1,,,,,,,,,1,,,79,0
781920,note_on,0,0,5,,,,,,,,,5,,,62,41
781920,note_on,0,0,5,,,,,,,,,5,,,59,41
781920,note_off,0,0,5,,,,,,,,,5,,,57,0
781920,note_off,240,0,5,,,,,,,,,5,,,61,0
782160,note_on,0,0,5,,,,,,,,,5,,,61,41
782160,note_on,0,0,5,,,,,,,,,5,,,64,41
782160,note_off,240,0,5,,,,,,,,,5,,,62,0
782160,note_off,0,0,5,,,,,,,,,5,,,59,0
782370,note_off,210,0,5,,,,,,,,,5,,,61,0
782375,note_off,5,0,5,,,,,,,,,5,,,64,0
782400,note_on,575,0,2,,,,,,,,,2,,,67,42
782400,note_on,575,0,1,,,,,,,,,1,,,79,42
782785,note_off,385,0,2,,,,,,,,,2,,,67,0
782785,note_off,385,0,1,,,,,,,,,1,,,79,0
782880,note_on,95,0,2,,,,,,,,,2,,,67,43
782880,note_on,95,0,1,,,,,,,,,1,,,79,43
783070,note_off,190,0,2,,,,,,,,,2,,,67,0
783070,note_off,190,0,1,,,,,,,,,1,,,79,0
783120,note_on,50,0,1,,,,,,,,,1,,,79,44
783120,note_on,50,0,2,,,,,,,,,2,,,67,44
783310,note_off,190,0,1,,,,,,,,,1,,,79,0
783310,note_off,190,0,2,,,,,,,,,2,,,67,0
783320,set_tempo,1880,1,0,,,,,,447761,,,,,,,
783360,note_on,50,0,1,,,,,,,,,1,,,78,46
783360,set_tempo,40,1,0,,,,,,441176,,,,,,,
783360,note_on,50,0,2,,,,,,,,,2,,,66,46
783360,note_on,0,0,5,,,,,,,,,5,,,62,46
783360,note_on,985,0,5,,,,,,,,,5,,,50,46
783600,note_on,240,0,2,,,,,,,,,2,,,67,48
783600,note_on,240,0,1,,,,,,,,,1,,,79,48
783615,note_off,15,0,2,,,,,,,,,2,,,66,0
783615,note_off,15,0,1,,,,,,,,,1,,,78,0
783745,note_off,385,0,5,,,,,,,,,5,,,62,0
783745,note_off,0,0,5,,,,,,,,,5,,,50,0
783755,note_off,140,0,2,,,,,,,,,2,,,67,0
783755,note_off,140,0,1,,,,,,,,,1,,,79,0
783840,note_on,85,0,2,,,,,,,,,2,,,68,50
783840,note_on,85,0,1,,,,,,,,,1,,,80,50
783995,note_off,155,0,1,,,,,,,,,1,,,80,0
783995,note_off,155,0,2,,,,,,,,,2,,,68,0
784080,note_on,85,0,1,,,,,,,,,1,,,81,53
784080,note_on,85,0,2,,,,,,,,,2,,,69,53
784235,note_off,155,0,1,,,,,,,,,1,,,81,0
784235,note_off,155,0,2,,,,,,,,,2,,,69,0
784320,note_on,85,0,2,,,,,,,,,2,,,70,55
784320,note_on,85,0,1,,,,,,,,,1,,,82,55
784320,note_on,0,0,5,,,,,,,,,5,,,43,55
784320,note_on,575,0,5,,,,,,,,,5,,,55,55
784475,note_off,155,0,1,,,,,,,,,1,,,82,0
784475,note_off,155,0,2,,,,,,,,,2,,,70,0
784560,note_on,85,0,1,,,,,,,,,1,,,83,57
784560,note_on,85,0,2,,,,,,,,,2,,,71,57
784705,note_off,385,0,5,,,,,,,,,5,,,43,0
784705,note_off,0,0,5,,,,,,,,,5,,,55,0
784715,note_off,155,0,2,,,,,,,,,2,,,71,0
784715,note_off,155,0,1,,,,,,,,,1,,,83,0
784800,note_on,85,0,1,,,,,,,,,1,,,85,60
784800,note_on,85,0,2,,,,,,,,,2,,,73,60
784955,note_off,155,0,1,,,,,,,,,1,,,85,0
784955,note_off,155,0,2,,,,,,,,,2,,,73,0
785040,note_on,85,0,1,,,,,,,,,1,,,86,62
785040,note_on,85,0,2,,,,,,,,,2,,,74,62
785195,note_off,155,0,1,,,,,,,,,1,,,86,0
785195,note_off,155,0,2,,,,,,,,,2,,,74,0
785240,set_tempo,1880,1,0,,,,,,447761,,,,,,,
785280,note_on,575,0,5,,,,,,,,,5,,,57,64
785280,note_on,0,0,5,,,,,,,,,5,,,45,64
785280,note_on,85,0,1,,,,,,,,,1,,,78,64
785280,note_on,85,0,2,,,,,,,,,2,,,74,64
785665,note_off,0,0,5,,,,,,,,,5,,,57,0
785665,note_off,385,0,5,,,,,,,,,5,,,45,0
785760,note_on,0,0,1,,,,,,,,,1,,,76,47
785760,note_off,480,0,1,,,,,,,,,1,,,78,0
785760,note_off,480,0,2,,,,,,,,,2,,,74,0
785760,note_on,0,0,2,,,,,,,,,2,,,73,47
786120,set_tempo,880,1,0,,,,,,461538,,,,,,,
786145,note_off,385,0,1,,,,,,,,,1,,,76,0
786145,note_off,385,0,2,,,,,,,,,2,,,73,0
786240,set_tempo,120,1,0,,,,,,441176,,,,,,,
786240,note_on,575,0,5,,,,,,,,,5,,,45,58
786240,note_on,0,0,5,,,,,,,,,5,,,57,58
786625,note_off,385,0,5,,,,,,,,,5,,,57,0
786625,note_off,0,0,5,,,,,,,,,5,,,45,0
786720,note_on,95,0,5,,,,,,,,,5,,,45,62
786720,note_on,0,0,5,,,,,,,,,5,,,57,62
786910,note_off,0,0,5,,,,,,,,,5,,,45,0
786910,note_off,190,0,5,,,,,,,,,5,,,57,0
786960,note_on,0,0,5,,,,,,,,,5,,,57,64
786960,note_on,50,0,5,,,,,,,,,5,,,45,64
787150,note_off,190,0,5,,,,,,,,,5,,,57,0
787150,note_off,0,0,5,,,,,,,,,5,,,45,0
787160,set_tempo,920,1,0,,,,,,447761,,,,,,,
787200,set_tempo,40,1,0,,,,,,441176,,,,,,,
787200,note_on,50,0,5,,,,,,,,,5,,,50,66
787200,note_on,0,0,5,,,,,,,,,5,,,62,66
787440,note_on,1295,0,1,,,,,,,,,1,,,78,63
787440,note_on,1295,0,2,,,,,,,,,2,,,74,63
787585,note_off,0,0,5,,,,,,,,,5,,,50,0
787585,note_off,385,0,5,,,,,,,,,5,,,62,0
787680,note_off,240,0,1,,,,,,,,,1,,,78,0
787680,note_on,0,0,2,,,,,,,,,2,,,76,64
787680,note_off,240,0,2,,,,,,,,,2,,,74,0
787680,note_on,0,0,1,,,,,,,,,1,,,79,64
787920,note_off,240,0,1,,,,,,,,,1,,,79,0
787920,note_off,240,0,2,,,,,,,,,2,,,76,0
787920,note_on,0,0,2,,,,,,,,,2,,,78,66
787920,note_on,0,0,1,,,,,,,,,1,,,81,66
788130,note_off,210,0,2,,,,,,,,,2,,,78,0
788130,note_off,210,0,1,,,,,,,,,1,,,81,0
788160,note_on,0,0,5,,,,,,,,,5,,,62,66
788160,note_on,575,0,5,,,,,,,,,5,,,50,66
788545,note_off,0,0,5,,,,,,,,,5,,,50,0
788545,note_off,385,0,5,,,,,,,,,5,,,62,0
788640,note_on,95,0,5,,,,,,,,,5,,,50,70
788640,note_on,0,0,5,,,,,,,,,5,,,62,70
788830,note_off,190,0,5,,,,,,,,,5,,,62,0
788830,note_off,0,0,5,,,,,,,,,5,,,50,0
788880,note_on,0,0,5,,,,,,,,,5,,,62,72
788880,note_on,50,0,5,,,,,,,,,5,,,50,72
789070,note_off,0,0,5,,,,,,,,,5,,,50,0
789070,note_off,190,0,5,,,,,,,,,5,,,62,0
789080,set_tempo,1880,1,0,,,,,,447761,,,,,,,
789120,set_tempo,40,1,0,,,,,,441176,,,,,,,
789120,note_on,0,0,5,,,,,,,,,5,,,52,75
789120,note_on,50,0,5,,,,,,,,,5,,,40,75
789360,note_on,1230,0,2,,,,,,,,,2,,,80,72
789360,note_on,1230,0,1,,,,,,,,,1,,,83,72
789505,note_off,385,0,5,,,,,,,,,5,,,52,0
789505,note_off,0,0,5,,,,,,,,,5,,,40,0
789600,note_on,0,0,2,,,,,,,,,2,,,81,73
789600,note_on,0,0,1,,,,,,,,,1,,,85,73
789600,note_off,240,0,1,,,,,,,,,1,,,83,0
789600,note_off,240,0,2,,,,,,,,,2,,,80,0
789840,note_off,240,0,1,,,,,,,,,1,,,85,0
789840,note_on,0,0,1,,,,,,,,,1,,,86,74
789840,note_off,240,0,2,,,,,,,,,2,,,81,0
789840,note_on,0,0,2,,,,,,,,,2,,,83,74
790050,note_off,210,0,2,,,,,,,,,2,,,83,0
790050,note_off,210,0,1,,,,,,,,,1,,,86,0
790080,note_on,30,0,2,,,,,,,,,2,,,64,75
790080,note_on,30,0,1,,,,,,,,,1,,,76,75
790320,note_on,0,0,5,,,,,,,,,5,,,56,76
790320,note_on,815,0,5,,,,,,,,,5,,,59,76
790465,note_off,385,0,2,,,,,,,,,2,,,64,0
790465,note_off,385,0,1,,,,,,,,,1,,,76,0
790560,note_on,95,0,1,,,,,,,,,1,,,76,79
790560,note_on,0,0,5,,,,,,,,,5,,,57,77
790560,note_off,240,0,5,,,,,,,,,5,,,56,0
790560,note_off,0,0,5,,,,,,,,,5,,,59,0
790560,note_on,0,0,5,,,,,,,,,5,,,61,77
790560,note_on,95,0,2,,,,,,,,,2,,,64,79
790750,note_off,190,0,1,,,,,,,,,1,,,76,0
790750,note_off,190,0,2,,,,,,,,,2,,,64,0
790800,note_on,50,0,2,,,,,,,,,2,,,64,81
790800,note_on,0,0,5,,,,,,,,,5,,,59,78
790800,note_off,0,0,5,,,,,,,,,5,,,61,0
790800,note_on,50,0,1,,,,,,,,,1,,,76,81
790800,note_on,0,0,5,,,,,,,,,5,,,62,78
790800,note_off,240,0,5,,,,,,,,,5,,,57,0
790990,note_off,190,0,1,,,,,,,,,1,,,76,0
790990,note_off,190,0,2,,,,,,,,,2,,,64,0
791000,set_tempo,1880,1,0,,,,,,447761,,,,,,,
791010,note_off,210,0,5,,,,,,,,,5,,,62,0
791010,note_off,0,0,5,,,,,,,,,5,,,59,0
791040,note_on,50,0,2,,,,,,,,,2,,,76,84
791040,note_on,50,0,1,,,,,,,,,1,,,88,84
791040,set_tempo,40,1,0,,,,,,441176,,,,,,,
791230,note_off,190,0,1,,,,,,,,,1,,,88,0
791230,note_off,190,0,2,,,,,,,,,2,,,76,0
791280,note_on,12720,0,4,,,,,,,,,4,,,61,79
791280,note_on,270,0,5,,,,,,,,,5,,,57,79
791470,note_off,190,0,4,,,,,,,,,4,,,61,0
791470,note_off,190,0,5,,,,,,,,,5,,,57,0
791520,note_on,290,0,2,,,,,,,,,2,,,74,78
791520,note_on,290,0,1,,,,,,,,,1,,,86,78
791710,note_off,190,0,2,,,,,,,,,2,,,74,0
791710,note_off,190,0,1,,,,,,,,,1,,,86,0
791760,note_on,290,0,5,,,,,,,,,5,,,50,76
791760,note_on,290,0,4,,,,,,,,,4,,,59,76
791950,note_off,190,0,5,,,,,,,,,5,,,50,0
791950,note_off,190,0,4,,,,,,,,,4,,,59,0
792000,note_on,290,0,1,,,,,,,,,1,,,85,75
792000,note_on,290,0,2,,,,,,,,,2,,,73,75
792190,note_off,190,0,1,,,,,,,,,1,,,85,0
792190,note_off,190,0,2,,,,,,,,,2,,,73,0
792240,note_on,290,0,4,,,,,,,,,4,,,57,73
792240,note_on,290,0,5,,,,,,,,,5,,,52,73
792430,note_off,190,0,4,,,,,,,,,4,,,57,0
792430,note_off,190,0,5,,,,,,,,,5,,,52,0
792480,note_on,290,0,2,,,,,,,,,2,,,71,71
792480,note_on,290,0,1,,,,,,,,,1,,,83,71
792670,note_off,190,0,1,,,,,,,,,1,,,83,0
792670,note_off,190,0,2,,,,,,,,,2,,,71,0
792720,note_on,290,0,5,,,,,,,,,5,,,52,70
792720,note_on,290,0,4,,,,,,,,,4,,,56,70
792910,note_off,190,0,5,,,,,,,,,5,,,52,0
792910,note_off,190,0,4,,,,,,,,,4,,,56,0
792930,set_tempo,1890,1,0,,,,,,447761,,,,,,,
792960,note_on,290,0,1,,,,,,,,,1,,,81,68
792960,note_on,290,0,2,,,,,,,,,2,,,69,68
793200,note_on,290,0,5,,,,,,,,,5,,,57,67
793345,note_off,385,0,2,,,,,,,,,2,,,69,0
793345,note_off,385,0,1,,,,,,,,,1,,,81,0
793390,note_off,190,0,5,,,,,,,,,5,,,57,0
793440,note_on,50,0,5,,,,,,,,,5,,,45,65
793750,note_off,310,0,5,,,,,,,,,5,,,45,0
793800,set_tempo,870,1,0,,,,,,461538,,,,,,,
793920,control_change,575,0,2,,,,,,,64,0,2,,,,
793920,set_tempo,120,1,0,,,,,,441176,,,,,,,
793920,control_change,15360,0,3,,,,,,,64,0,3,,,,
793920,note_on,0,0,2,,,,,,,,,2,,,69,44
793920,control_change,575,0,1,,,,,,,64,0,1,,,,
793920,note_on,0,0,1,,,,,,,,,1,,,81,44
793920,control_change,1010,0,4,,,,,,,64,0,4,,,,
793920,control_change,170,0,5,,,,,,,64,0,5,,,,
794305,note_off,385,0,1,,,,,,,,,1,,,81,0
794305,note_off,385,0,2,,,,,,,,,2,,,69,0
794400,note_on,95,0,1,,,,,,,,,1,,,81,48
794400,note_on,95,0,2,,,,,,,,,2,,,69,48
794590,note_off,190,0,1,,,,,,,,,1,,,81,0
794590,note_off,190,0,2,,,,,,,,,2,,,69,0
794640,note_on,50,0,1,,,,,,,,,1,,,81,51
794640,note_on,50,0,2,,,,,,,,,2,,,69,51
794830,note_off,190,0,1,,,,,,,,,1,,,81,0
794830,note_off,190,0,2,,,,,,,,,2,,,69,0
794840,set_tempo,920,1,0,,,,,,447761,,,,,,,
794880,note_on,50,0,2,,,,,,,,,2,,,72,53
794880,set_tempo,40,1,0,,,,,,441176,,,,,,,
794880,note_on,50,0,1,,,,,,,,,1,,,84,53
795070,note_off,190,0,1,,,,,,,,,1,,,84,0
795070,note_off,190,0,2,,,,,,,,,2,,,72,0
795120,note_on,0,0,5,,,,,,,,,5,,,63,48
795120,note_on,1200,0,5,,,,,,,,,5,,,69,48
795310,note_off,0,0,5,,,,,,,,,5,,,69,0
795310,note_off,190,0,5,,,,,,,,,5,,,63,0
795360,note_on,290,0,1,,,,,,,,,1,,,83,46
795360,note_on,290,0,2,,,,,,,,,2,,,71,46
795550,note_off,190,0,1,,,,,,,,,1,,,83,0
795550,note_off,190,0,2,,,,,,,,,2,,,71,0
795600,note_on,0,0,5,,,,,,,,,5,,,64,44
795600,note_on,290,0,5,,,,,,,,,5,,,68,44
795790,note_off,190,0,5,,,,,,,,,5,,,64,0
795790,note_off,0,0,5,,,,,,,,,5,,,68,0
795840,note_on,290,0,2,,,,,,,,,2,,,70,42
795840,note_on,290,0,1,,,,,,,,,1,,,82,42
796030,note_off,190,0,1,,,,,,,,,1,,,82,0
796030,note_off,190,0,2,,,,,,,,,2,,,70,0
796080,note_on,290,0,5,,,,,,,,,5,,,67,41
796080,note_on,0,0,5,,,,,,,,,5,,,61,41
796270,note_off,190,0,5,,,,,,,,,5,,,61,0
796270,note_off,0,0,5,,,,,,,,,5,,,67,0
796320,note_on,290,0,2,,,,,,,,,2,,,69,39
796320,note_on,290,0,1,,,,,,,,,1,,,81,39
796510,note_off,190,0,2,,,,,,,,,2,,,69,0
796510,note_off,190,0,1,,,,,,,,,1,,,81,0
796560,note_on,0,0,5,,,,,,,,,5,,,62,36
796560,note_on,290,0,5,,,,,,,,,5,,,66,36
796750,note_off,0,0,5,,,,,,,,,5,,,66,0
796750,note_off,190,0,5,,,,,,,,,5,,,62,0
796760,set_tempo,1880,1,0,,,,,,447761,,,,,,,
796800,note_on,290,0,1,,,,,,,,,1,,,85,73
796800,set_tempo,40,1,0,,,,,,441176,,,,,,,
796800,note_on,290,0,2,,,,,,,,,2,,,73,73
797040,note_on,0,0,2,,,,,,,,,2,,,74,71
797040,note_on,0,0,1,,,,,,,,,1,,,86,71
797040,note_off,240,0,2,,,,,,,,,2,,,73,0
797040,note_off,240,0,1,,,,,,,,,1,,,85,0
797230,note_off,190,0,2,,,,,,,,,2,,,74,0
797230,note_off,190,0,1,,,,,,,,,1,,,86,0
797280,note_on,0,0,5,,,,,,,,,5,,,58,69
797280,note_on,530,0,5,,,,,,,,,5,,,70,69
797520,note_on,0,0,5,,,,,,,,,5,,,71,67
797520,note_off,0,0,5,,,,,,,,,5,,,70,0
797520,note_off,240,0,5,,,,,,,,,5,,,58,0
797520,note_on,0,0,5,,,,,,,,,5,,,59,67
797710,note_off,190,0,5,,,,,,,,,5,,,59,0
797710,note_off,0,0,5,,,,,,,,,5,,,71,0
797720,set_tempo,920,1,0,,,,,,447761,,,,,,,
797760,set_tempo,40,1,0,,,,,,441176,,,,,,,
797760,note_on,530,0,2,,,,,,,,,2,,,70,65
797760,note_on,530,0,1,,,,,,,,,1,,,82,65
798000,note_off,240,0,1,,,,,,,,,1,,,82,0
798000,note_on,0,0,1,,,,,,,,,1,,,83,61
798000,note_on,0,0,2,,,,,,,,,2,,,71,61
798000,note_off,240,0,2,,,,,,,,,2,,,70,0
798190,note_off,190,0,1,,,,,,,,,1,,,83,0
798190,note_off,190,0,2,,,,,,,,,2,,,71,0
798240,note_on,530,0,5,,,,,,,,,5,,,66,61
798240,note_on,0,0,5,,,,,,,,,5,,,54,61
798480,note_on,0,0,5,,,,,,,,,5,,,55,59
798480,note_on,0,0,5,,,,,,,,,5,,,67,59
798480,note_off,0,0,5,,,,,,,,,5,,,66,0
798480,note_off,240,0,5,,,,,,,,,5,,,54,0
798660,set_tempo,900,1,0,,,,,,600000,,,,,,,
798670,note_off,0,0,5,,,,,,,,,5,,,67,0
798670,note_off,190,0,5,,,,,,,,,5,,,55,0
798720,note_on,530,0,2,,,,,,,,,2,,,73,45
798720,note_on,0,0,2,,,,,,,,,2,,,67,45
798720,note_on,50,0,5,,,,,,,,,5,,,61,45
798720,set_tempo,60,1,0,,,,,,441176,,,,,,,
798720,note_on,530,0,1,,,,,,,,,1,,,79,45
799200,note_off,480,0,5,,,,,,,,,5,,,61,0
799200,note_on,0,0,5,,,,,,,,,5,,,62,43
799200,note_on,0,0,2,,,,,,,,,2,,,66,43
799200,note_on,0,0,2,,,,,,,,,2,,,74,43
799200,note_off,0,0,2,,,,,,,,,2,,,73,0
799200,note_off,480,0,2,,,,,,,,,2,,,67,0
799200,note_off,480,0,1,,,,,,,,,1,,,79,0
799200,note_on,0,0,1,,,,,,,,,1,,,78,43
799680,note_on,0,0,2,,,,,,,,,2,,,64,41
799680,note_off,0,0,2,,,,,,,,,2,,,74,0
799680,note_off,480,0,2,,,,,,,,,2,,,66,0
799680,note_on,0,0,1,,,,,,,,,1,,,76,41
799680,note_off,480,0,1,,,,,,,,,1,,,78,0
799680,note_on,0,0,2,,,,,,,,,2,,,73,41
799680,note_off,480,0,5,,,,,,,,,5,,,62,0
799680,note_on,0,0,5,,,,,,,,,5,,,61,41
800160,note_on,0,0,1,,,,,,,,,1,,,74,39
800160,note_on,0,0,2,,,,,,,,,2,,,71,39
800160,note_on,0,0,2,,,,,,,,,2,,,62,39
800160,note_off,0,0,2,,,,,,,,,2,,,73,0
800160,note_off,480,0,2,,,,,,,,,2,,,64,0
800160,note_on,0,0,5,,,,,,,,,5,,,59,39
800160,note_off,480,0,5,,,,,,,,,5,,,61,0
800160,note_off,480,0,1,,,,,,,,,1,,,76,0
800585,note_off,425,0,2,,,,,,,,,2,,,62,0
800595,note_off,435,0,5,,,,,,,,,5,,,59,0
800600,set_tempo,1880,1,0,,,,,,461538,,,,,,,
800610,note_off,25,0,2,,,,,,,,,2,,,71,0
800615,note_off,455,0,1,,,,,,,,,1,,,74,0
800640,set_tempo,40,1,0,,,,,,434782,,,,,,,
800640,note_on,45,0,5,,,,,,,,,5,,,62,38
800640,note_on,0,0,5,,,,,,,,,5,,,57,38
800640,note_on,30,0,2,,,,,,,,,2,,,66,38
800640,note_on,25,0,1,,,,,,,,,1,,,78,38
801360,note_on,0,0,1,,,,,,,,,1,,,79,40
801360,note_on,0,0,2,,,,,,,,,2,,,67,40
801360,note_off,720,0,2,,,,,,,,,2,,,66,0
801360,note_off,720,0,1,,,,,,,,,1,,,78,0
801600,note_off,240,0,1,,,,,,,,,1,,,79,0
801600,note_on,0,0,1,,,,,,,,,1,,,80,41
801600,note_off,240,0,2,,,,,,,,,2,,,67,0
801600,note_on,0,0,2,,,,,,,,,2,,,68,41
801840,note_off,240,0,1,,,,,,,,,1,,,80,0
801840,note_on,0,0,1,,,,,,,,,1,,,81,43
801840,note_off,240,0,2,,,,,,,,,2,,,68,0
801840,note_on,0,0,2,,,,,,,,,2,,,69,43
802080,note_off,240,0,1,,,,,,,,,1,,,81,0
802080,note_on,0,0,1,,,,,,,,,1,,,80,44
802080,note_off,240,0,2,,,,,,,,,2,,,69,0
802080,note_on,0,0,2,,,,,,,,,2,,,68,44
802320,note_on,0,0,1,,,,,,,,,1,,,81,46
802320,note_on,0,0,2,,,,,,,,,2,,,69,46
802320,note_off,240,0,1,,,,,,,,,1,,,80,0
802320,note_off,240,0,2,,,,,,,,,2,,,68,0
802520,set_tempo,1880,1,0,,,,,,447761,,,,,,,
802560,note_on,1920,0,5,,,,,,,,,5,,,61,45
802560,note_on,0,0,1,,,,,,,,,1,,,76,45
802560,note_off,240,0,1,,,,,,,,,1,,,81,0
802560,note_on,0,0,2,,,,,,,,,2,,,64,45
802560,note_off,240,0,2,,,,,,,,,2,,,69,0
802565,note_off,5,0,5,,,,,,,,,5,,,62,0
803040,note_off,480,0,1,,,,,,,,,1,,,76,0
803040,note_off,475,0,5,,,,,,,,,5,,,61,0
803040,note_off,480,0,2,,,,,,,,,2,,,64,0
803055,note_off,15,0,5,,,,,,,,,5,,,57,0
803460,set_tempo,940,1,0,,,,,,612244,,,,,,,
803520,set_tempo,60,1,0,,,,,,441176,,,,,,,
803520,note_on,465,0,5,,,,,,,,,5,,,45,64
803520,note_on,0,0,5,,,,,,,,,5,,,33,64
803905,note_off,385,0,5,,,,,,,,,5,,,33,0
803905,note_off,0,0,5,,,,,,,,,5,,,45,0
804000,note_on,95,0,5,,,,,,,,,5,,,45,68
804000,note_on,0,0,5,,,,,,,,,5,,,33,68
804190,note_off,190,0,5,,,,,,,,,5,,,33,0
804190,note_off,0,0,5,,,,,,,,,5,,,45,0
804240,note_on,50,0,5,,,,,,,,,5,,,33,70
804240,note_on,0,0,5,,,,,,,,,5,,,45,70
804430,note_off,190,0,5,,,,,,,,,5,,,45,0
804430,note_off,0,0,5,,,,,,,,,5,,,33,0
804440,set_tempo,920,1,0,,,,,,447761,,,,,,,
804480,set_tempo,40,1,0,,,,,,441176,,,,,,,
804480,note_on,0,0,5,,,,,,,,,5,,,38,72
804480,note_on,50,0,5,,,,,,,,,5,,,50,72
804720,note_on,1680,0,1,,,,,,,,,1,,,78,68
804720,note_on,1680,0,2,,,,,,,,,2,,,74,68
804865,note_off,385,0,5,,,,,,,,,5,,,38,0
804865,note_off,0,0,5,,,,,,,,,5,,,50,0
804960,note_on,0,0,2,,,,,,,,,2,,,76,69
804960,note_off,240,0,1,,,,,,,,,1,,,78,0
804960,note_on,0,0,1,,,,,,,,,1,,,79,69
804960,note_off,240,0,2,,,,,,,,,2,,,74,0
805200,note_off,240,0,2,,,,,,,,,2,,,76,0
805200,note_off,240,0,1,,,,,,,,,1,,,79,0
805200,note_on,0,0,1,,,,,,,,,1,,,81,70
805200,note_on,0,0,2,,,,,,,,,2,,,78,70
805400,note_off,200,0,2,,,,,,,,,2,,,78,0
805410,note_off,210,0,1,,,,,,,,,1,,,81,0
805440,note_on,575,0,5,,,,,,,,,5,,,62,71
805440,note_on,0,0,5,,,,,,,,,5,,,50,71
805825,note_off,385,0,5,,,,,,,,,5,,,50,0
805825,note_off,0,0,5,,,,,,,,,5,,,62,0
805920,note_on,0,0,5,,,,,,,,,5,,,50,74
805920,note_on,95,0,5,,,,,,,,,5,,,62,74
806110,note_off,190,0,5,,,,,,,,,5,,,50,0
806110,note_off,0,0,5,,,,,,,,,5,,,62,0
806160,note_on,50,0,5,,,,,,,,,5,,,62,77
806160,note_on,0,0,5,,,,,,,,,5,,,50,77
806350,note_off,190,0,5,,,,,,,,,5,,,50,0
806350,note_off,0,0,5,,,,,,,,,5,,,62,0
806360,set_tempo,1880,1,0,,,,,,447761,,,,,,,
806400,note_on,50,0,5,,,,,,,,,5,,,55,79
806400,note_on,0,0,5,,,,,,,,,5,,,43,79
806400,set_tempo,40,1,0,,,,,,441176,,,,,,,
806640,note_on,1230,0,1,,,,,,,,,1,,,76,75
806640,note_on,1240,0,2,,,,,,,,,2,,,71,75
806785,note_off,385,0,5,,,,,,,,,5,,,43,0
806785,note_off,0,0,5,,,,,,,,,5,,,55,0
806880,note_off,240,0,2,,,,,,,,,2,,,71,0
806880,note_on,0,0,2,,,,,,,,,2,,,75,76
806880,note_off,240,0,1,,,,,,,,,1,,,76,0
806880,note_on,0,0,1,,,,,,,,,1,,,78,76
807120,note_on,0,0,2,,,,,,,,,2,,,76,77
807120,note_off,240,0,2,,,,,,,,,2,,,75,0
807120,note_on,0,0,1,,,,,,,,,1,,,79,77
807120,note_off,240,0,1,,,,,,,,,1,,,78,0
807320,note_off,200,0,1,,,,,,,,,1,,,79,0
807330,note_off,210,0,2,,,,,,,,,2,,,76,0
807360,note_on,40,0,1,,,,,,,,,1,,,85,78
807360,note_on,30,0,2,,,,,,,,,2,,,73,78
807600,note_on,815,0,5,,,,,,,,,5,,,67,78
807600,note_on,0,0,5,,,,,,,,,5,,,71,78
807745,note_off,385,0,1,,,,,,,,,1,,,85,0
807745,note_off,385,0,2,,,,,,,,,2,,,73,0
807840,note_off,0,0,5,,,,,,,,,5,,,67,0
807840,note_on,95,0,1,,,,,,,,,1,,,85,83
807840,note_on,95,0,2,,,,,,,,,2,,,73,83
807840,note_on,0,0,5,,,,,,,,,5,,,66,79
807840,note_on,0,0,5,,,,,,,,,5,,,69,79
807840,note_off,240,0,5,,,,,,,,,5,,,71,0
808030,note_off,190,0,2,,,,,,,,,2,,,73,0
808030,note_off,190,0,1,,,,,,,,,1,,,85,0
808080,note_on,50,0,2,,,,,,,,,2,,,73,85
808080,note_off,0,0,5,,,,,,,,,5,,,69,0
808080,note_off,240,0,5,,,,,,,,,5,,,66,0
808080,note_on,50,0,1,,,,,,,,,1,,,85,85
808080,note_on,0,0,5,,,,,,,,,5,,,67,80
808080,note_on,0,0,5,,,,,,,,,5,,,64,80
808270,note_off,190,0,1,,,,,,,,,1,,,85,0
808270,note_off,190,0,2,,,,,,,,,2,,,73,0
808280,set_tempo,1880,1,0,,,,,,447761,,,,,,,
808320,note_off,240,0,5,,,,,,,,,5,,,64,0
808320,note_on,50,0,1,,,,,,,,,1,,,86,87
808320,note_on,50,0,2,,,,,,,,,2,,,74,87
808320,set_tempo,40,1,0,,,,,,441176,,,,,,,
808320,note_off,0,0,5,,,,,,,,,5,,,67,0
808510,note_off,190,0,1,,,,,,,,,1,,,86,0
808510,note_off,190,0,2,,,,,,,,,2,,,74,0
808560,note_on,14640,0,4,,,,,,,,,4,,,66,81
808560,note_on,240,0,5,,,,,,,,,5,,,62,81
808750,note_off,190,0,4,,,,,,,,,4,,,66,0
808750,note_off,190,0,5,,,,,,,,,5,,,62,0
808800,note_on,290,0,1,,,,,,,,,1,,,83,80
808800,note_on,290,0,2,,,,,,,,,2,,,71,80
808990,note_off,190,0,2,,,,,,,,,2,,,71,0
808990,note_off,190,0,1,,,,,,,,,1,,,83,0
809040,note_on,290,0,4,,,,,,,,,4,,,64,78
809040,note_on,290,0,5,,,,,,,,,5,,,55,78
809230,note_off,190,0,4,,,,,,,,,4,,,64,0
809230,note_off,190,0,5,,,,,,,,,5,,,55,0
809280,note_on,290,0,1,,,,,,,,,1,,,81,76
809280,note_on,290,0,2,,,,,,,,,2,,,69,76
809470,note_off,190,0,1,,,,,,,,,1,,,81,0
809470,note_off,190,0,2,,,,,,,,,2,,,69,0
809520,note_on,290,0,5,,,,,,,,,5,,,57,75
809520,note_on,290,0,4,,,,,,,,,4,,,66,75
809710,note_off,190,0,5,,,,,,,,,5,,,57,0
809710,note_off,190,0,4,,,,,,,,,4,,,66,0
809760,note_on,290,0,2,,,,,,,,,2,,,73,73
809760,note_on,290,0,1,,,,,,,,,1,,,85,73
809950,note_off,190,0,2,,,,,,,,,2,,,73,0
809950,note_off,190,0,1,,,,,,,,,1,,,85,0
810000,note_on,290,0,4,,,,,,,,,4,,,64,72
810000,note_on,290,0,5,,,,,,,,,5,,,57,72
810190,note_off,190,0,4,,,,,,,,,4,,,64,0
810190,note_off,190,0,5,,,,,,,,,5,,,57,0
810195,set_tempo,1875,1,0,,,,,,461538,,,,,,,
810240,set_tempo,45,1,0,,,,,,480000,,,,,,,
810240,note_on,290,0,2,,,,,,,,,2,,,74,71
810240,note_on,290,0,1,,,,,,,,,1,,,86,71
810480,note_on,290,0,5,,,,,,,,,5,,,62,67
810625,note_off,385,0,1,,,,,,,,,1,,,86,0
810625,note_off,385,0,2,,,,,,,,,2,,,74,0
810670,note_off,190,0,5,,,,,,,,,5,,,62,0
810720,note_on,50,0,5,,,,,,,,,5,,,50,61
811030,note_off,310,0,5,,,,,,,,,5,,,50,0
811080,set_tempo,840,1,0,,,,,,1578947,,,,,,,
811200,control_change,1010,0,4,,,,,,,64,0,4,,,,
811200,control_change,575,0,1,,,,,,,64,0,1,,,,
811200,note_on,0,0,1,,,,,,,,,1,,,69,38
811200,set_tempo,120,1,0,,,,,,434782,,,,,,,
811200,marker,0,1,0,,,,,,,,,,,,,
811200,control_change,17280,0,3,,,,,,,64,0,3,,,,
811200,control_change,575,0,2,,,,,,,64,0,2,,,,
811200,control_change,170,0,5,,,,,,,64,0,5,,,,
811585,note_off,385,0,1,,,,,,,,,1,,,69,0
811680,note_on,95,0,1,,,,,,,,,1,,,69,41
811835,note_off,155,0,1,,,,,,,,,1,,,69,0
811920,note_on,85,0,1,,,,,,,,,1,,,67,42
812075,note_off,155,0,1,,,,,,,,,1,,,67,0
812120,set_tempo,920,1,0,,,,,,441176,,,,,,,
812160,note_on,960,0,5,,,,,,,,,5,,,50,37
812160,note_on,85,0,1,,,,,,,,,1,,,66,44
812160,set_tempo,40,1,0,,,,,,434782,,,,,,,
812315,note_off,155,0,1,,,,,,,,,1,,,66,0
812400,note_on,85,0,1,,,,,,,,,1,,,64,42
812555,note_off,155,0,1,,,,,,,,,1,,,64,0
812640,note_on,85,0,1,,,,,,,,,1,,,62,39
812880,note_on,0,0,5,,,,,,,,,5,,,49,39
812880,note_off,720,0,5,,,,,,,,,5,,,50,0
813120,note_on,0,0,5,,,,,,,,,5,,,47,39
813120,note_off,240,0,5,,,,,,,,,5,,,49,0
813215,note_off,575,0,1,,,,,,,,,1,,,62,0
813360,note_on,145,0,1,,,,,,,,,1,,,64,39
813600,note_off,240,0,1,,,,,,,,,1,,,64,0
813600,note_on,0,0,1,,,,,,,,,1,,,66,40
813840,note_on,0,0,5,,,,,,,,,5,,,45,40
813840,note_off,720,0,5,,,,,,,,,5,,,47,0
814080,note_on,0,0,5,,,,,,,,,5,,,43,41
814080,note_off,240,0,5,,,,,,,,,5,,,45,0
814320,note_off,720,0,1,,,,,,,,,1,,,66,0
814320,note_on,0,0,1,,,,,,,,,1,,,59,41
814560,note_off,240,0,1,,,,,,,,,1,,,59,0
814560,note_on,0,0,1,,,,,,,,,1,,,67,41
814800,note_on,0,0,5,,,,,,,,,5,,,40,42
814800,note_off,720,0,5,,,,,,,,,5,,,43,0
815040,note_off,240,0,5,,,,,,,,,5,,,40,0
815040,note_on,0,0,5,,,,,,,,,5,,,45,42
815280,note_on,0,0,1,,,,,,,,,1,,,61,43
815280,note_off,720,0,1,,,,,,,,,1,,,67,0
815520,note_off,240,0,1,,,,,,,,,1,,,61,0
815520,note_on,0,0,1,,,,,,,,,1,,,64,43
815760,note_on,0,0,5,,,,,,,,,5,,,43,43
815760,note_off,720,0,5,,,,,,,,,5,,,45,0
816000,note_on,0,0,5,,,,,,,,,5,,,42,44
816000,note_off,240,0,5,,,,,,,,,5,,,43,0
816240,note_off,720,0,1,,,,,,,,,1,,,64,0
816240,note_on,0,0,1,,,,,,,,,1,,,57,44
816480,note_on,0,0,1,,,,,,,,,1,,,69,45
816480,note_off,240,0,1,,,,,,,,,1,,,57,0
816720,note_on,0,0,5,,,,,,,,,5,,,38,45
816720,note_off,720,0,5,,,,,,,,,5,,,42,0
816960,note_on,0,0,5,,,,,,,,,5,,,47,46
816960,note_off,240,0,5,,,,,,,,,5,,,38,0
817200,note_on,0,0,1,,,,,,,,,1,,,62,46
817200,note_off,720,0,1,,,,,,,,,1,,,69,0
817440,note_off,240,0,1,,,,,,,,,1,,,62,0
817440,note_on,0,0,1,,,,,,,,,1,,,67,46
817680,note_off,720,0,5,,,,,,,,,5,,,47,0
817680,note_on,0,0,5,,,,,,,,,5,,,43,47
817880,set_tempo,5720,1,0,,,,,,441176,,,,,,,
817920,set_tempo,40,1,0,,,,,,434782,,,,,,,
817920,note_on,0,0,5,,,,,,,,,5,,,45,48
817920,note_on,0,0,5,,,,,,,,,5,,,57,48
817920,note_off,240,0,5,,,,,,,,,5,,,43,0
818160,note_off,720,0,1,,,,,,,,,1,,,67,0
818160,note_on,0,0,1,,,,,,,,,1,,,66,49
818305,note_off,0,0,5,,,,,,,,,5,,,57,0
818305,note_off,385,0,5,,,,,,,,,5,,,45,0
818400,note_on,95,0,5,,,,,,,,,5,,,57,53
818400,note_on,0,0,5,,,,,,,,,5,,,45,53
818400,note_on,0,0,1,,,,,,,,,1,,,64,50
818400,note_off,240,0,1,,,,,,,,,1,,,66,0
818555,note_off,155,0,5,,,,,,,,,5,,,45,0
818555,note_off,0,0,5,,,,,,,,,5,,,57,0
818640,note_on,85,0,5,,,,,,,,,5,,,55,56
818640,note_on,0,0,5,,,,,,,,,5,,,43,56
818795,note_off,155,0,5,,,,,,,,,5,,,43,0
818795,note_off,0,0,5,,,,,,,,,5,,,55,0
818840,set_tempo,920,1,0,,,,,,441176,,,,,,,
818880,note_on,85,0,5,,,,,,,,,5,,,54,61
818880,note_on,0,0,5,,,,,,,,,5,,,42,61
818880,note_off,480,0,1,,,,,,,,,1,,,64,0
818880,note_on,0,0,1,,,,,,,,,1,,,81,52
818880,set_tempo,40,1,0,,,,,,434782,,,,,,,
818880,note_on,7680,0,2,,,,,,,,,2,,,69,52
819035,note_off,155,0,5,,,,,,,,,5,,,42,0
819035,note_off,0,0,5,,,,,,,,,5,,,54,0
819120,note_on,0,0,5,,,,,,,,,5,,,40,57
819120,note_on,85,0,5,,,,,,,,,5,,,52,57
819265,note_off,385,0,1,,,,,,,,,1,,,81,0
819265,note_off,385,0,2,,,,,,,,,2,,,69,0
819275,note_off,0,0,5,,,,,,,,,5,,,52,0
819275,note_off,155,0,5,,,,,,,,,5,,,40,0
819360,note_on,95,0,2,,,,,,,,,2,,,69,56
819360,note_on,0,0,5,,,,,,,,,5,,,50,54
819360,note_on,85,0,5,,,,,,,,,5,,,38,54
819360,note_on,95,0,1,,,,,,,,,1,,,81,56
819515,note_off,155,0,1,,,,,,,,,1,,,81,0
819515,note_off,155,0,2,,,,,,,,,2,,,69,0
819600,note_on,85,0,2,,,,,,,,,2,,,67,58
819600,note_on,85,0,1,,,,,,,,,1,,,79,58
819755,note_off,155,0,2,,,,,,,,,2,,,67,0
819755,note_off,155,0,1,,,,,,,,,1,,,79,0
819840,note_on,85,0,2,,,,,,,,,2,,,66,65
819840,note_on,85,0,1,,,,,,,,,1,,,78,65
819935,note_off,575,0,5,,,,,,,,,5,,,50,0
819935,note_off,0,0,5,,,,,,,,,5,,,38,0
819995,note_off,155,0,2,,,,,,,,,2,,,66,0
819995,note_off,155,0,1,,,,,,,,,1,,,78,0
820080,note_on,0,0,5,,,,,,,,,5,,,49,56
820080,note_on,145,0,5,,,,,,,,,5,,,37,56
820080,note_on,85,0,2,,,,,,,,,2,,,64,62
820080,note_on,85,0,1,,,,,,,,,1,,,76,62
820235,note_off,155,0,2,,,,,,,,,2,,,64,0
820235,note_off,155,0,1,,,,,,,,,1,,,76,0
820235,note_off,155,0,5,,,,,,,,,5,,,49,0
820235,note_off,0,0,5,,,,,,,,,5,,,37,0
820320,note_on,85,0,1,,,,,,,,,1,,,74,60
820320,note_on,85,0,2,,,,,,,,,2,,,62,60
820320,note_on,85,0,5,,,,,,,,,5,,,35,57
820320,note_on,0,0,5,,,,,,,,,5,,,47,57
820475,note_off,155,0,5,,,,,,,,,5,,,47,0
820475,note_off,0,0,5,,,,,,,,,5,,,35,0
820560,note_on,85,0,5,,,,,,,,,5,,,45,58
820560,note_on,0,0,5,,,,,,,,,5,,,33,58
820715,note_off,155,0,5,,,,,,,,,5,,,33,0
820715,note_off,0,0,5,,,,,,,,,5,,,45,0
820800,note_on,85,0,5,,,,,,,,,5,,,44,59
820800,note_on,0,0,5,,,,,,,,,5,,,32,59
820895,note_off,575,0,2,,,,,,,,,2,,,62,0
820895,note_off,575,0,1,,,,,,,,,1,,,74,0
820955,note_off,155,0,5,,,,,,,,,5,,,32,0
820955,note_off,0,0,5,,,,,,,,,5,,,44,0
821040,note_on,85,0,5,,,,,,,,,5,,,45,60
821040,note_on,0,0,5,,,,,,,,,5,,,33,60
821040,note_on,145,0,2,,,,,,,,,2,,,61,60
821040,note_on,145,0,1,,,,,,,,,1,,,73,60
821195,note_off,155,0,1,,,,,,,,,1,,,73,0
821195,note_off,0,0,5,,,,,,,,,5,,,45,0
821195,note_off,155,0,5,,,,,,,,,5,,,33,0
821195,note_off,155,0,2,,,,,,,,,2,,,61,0
821280,note_on,85,0,5,,,,,,,,,5,,,35,60
821280,note_on,85,0,2,,,,,,,,,2,,,59,60
821280,note_on,85,0,1,,,,,,,,,1,,,71,60
821280,note_on,0,0,5,,,,,,,,,5,,,47,60
821435,note_off,155,0,2,,,,,,,,,2,,,59,0
821435,note_off,155,0,1,,,,,,,,,1,,,71,0
821520,note_on,85,0,1,,,,,,,,,1,,,69,61
821520,note_on,85,0,2,,,,,,,,,2,,,57,61
821675,note_off,155,0,2,,,,,,,,,2,,,57,0
821675,note_off,155,0,1,,,,,,,,,1,,,69,0
821760,note_on,85,0,2,,,,,,,,,2,,,56,62
821760,note_on,85,0,1,,,,,,,,,1,,,68,62
821855,note_off,575,0,5,,,,,,,,,5,,,47,0
821855,note_off,0,0,5,,,,,,,,,5,,,35,0
821915,note_off,155,0,1,,,,,,,,,1,,,68,0
821915,note_off,155,0,2,,,,,,,,,2,,,56,0
822000,note_on,85,0,2,,,,,,,,,2,,,57,63
822000,note_on,145,0,5,,,,,,,,,5,,,49,63
822000,note_on,0,0,5,,,,,,,,,5,,,37,63
822000,note_on,85,0,1,,,,,,,,,1,,,69,63
822155,note_off,155,0,5,,,,,,,,,5,,,37,0
822155,note_off,0,0,5,,,,,,,,,5,,,49,0
822155,note_off,155,0,1,,,,,,,,,1,,,69,0
822155,note_off,155,0,2,,,,,,,,,2,,,57,0
822240,note_on,85,0,1,,,,,,,,,1,,,71,64
822240,note_on,85,0,2,,,,,,,,,2,,,59,64
822240,note_on,85,0,5,,,,,,,,,5,,,38,64
822240,note_on,0,0,5,,,,,,,,,5,,,50,64
822395,note_off,155,0,5,,,,,,,,,5,,,50,0
822395,note_off,0,0,5,,,,,,,,,5,,,38,0
822480,note_on,85,0,5,,,,,,,,,5,,,51,65
822480,note_on,0,0,5,,,,,,,,,5,,,39,65
822635,note_off,0,0,5,,,,,,,,,5,,,51,0
822635,note_off,155,0,5,,,,,,,,,5,,,39,0
822720,note_on,0,0,5,,,,,,,,,5,,,40,66
822720,note_on,85,0,5,,,,,,,,,5,,,52,66
822815,note_off,575,0,1,,,,,,,,,1,,,71,0
822815,note_off,575,0,2,,,,,,,,,2,,,59,0
822960,note_on,145,0,1,,,,,,,,,1,,,73,67
822960,note_on,145,0,2,,,,,,,,,2,,,61,67
823105,note_off,385,0,5,,,,,,,,,5,,,40,0
823105,note_off,0,0,5,,,,,,,,,5,,,52,0
823115,note_off,155,0,1,,,,,,,,,1,,,73,0
823115,note_off,155,0,2,,,,,,,,,2,,,61,0
823200,note_on,85,0,1,,,,,,,,,1,,,74,67
823200,note_on,85,0,2,,,,,,,,,2,,,62,67
823355,note_off,155,0,1,,,,,,,,,1,,,74,0
823355,note_off,155,0,2,,,,,,,,,2,,,62,0
823440,note_on,85,0,2,,,,,,,,,2,,,63,68
823440,note_on,85,0,1,,,,,,,,,1,,,75,68
823595,note_off,155,0,2,,,,,,,,,2,,,63,0
823595,note_off,155,0,1,,,,,,,,,1,,,75,0
823640,set_tempo,4760,1,0,,,,,,441176,,,,,,,
823680,set_tempo,40,1,0,,,,,,434782,,,,,,,
823680,note_on,575,0,5,,,,,,,,,5,,,49,57
823920,note_on,325,0,1,,,,,,,,,1,,,76,55
823920,note_on,325,0,2,,,,,,,,,2,,,73,55
824160,note_on,0,0,5,,,,,,,,,5,,,54,53
824160,note_off,480,0,5,,,,,,,,,5,,,49,0
824400,note_off,480,0,2,,,,,,,,,2,,,73,0
824400,note_on,0,0,1,,,,,,,,,1,,,73,51
824400,note_off,480,0,1,,,,,,,,,1,,,76,0
824400,note_on,0,0,2,,,,,,,,,2,,,70,51
824640,note_on,0,0,5,,,,,,,,,5,,,47,49
824640,note_off,480,0,5,,,,,,,,,5,,,54,0
824880,note_on,0,0,2,,,,,,,,,2,,,71,47
824880,note_on,0,0,1,,,,,,,,,1,,,74,47
824880,note_off,480,0,1,,,,,,,,,1,,,73,0
824880,note_off,480,0,2,,,,,,,,,2,,,70,0
825120,note_on,0,0,5,,,,,,,,,5,,,52,45
825120,note_off,480,0,5,,,,,,,,,5,,,47,0
825360,note_off,480,0,1,,,,,,,,,1,,,74,0
825360,note_on,0,0,1,,,,,,,,,1,,,71,43
825360,note_on,0,0,2,,,,,,,,,2,,,68,43
825360,note_off,480,0,2,,,,,,,,,2,,,71,0
825540,set_tempo,1860,1,0,,,,,,441176,,,,,,,
825600,note_off,480,0,5,,,,,,,,,5,,,52,0
825600,note_on,0,0,5,,,,,,,,,5,,,45,41
825840,note_off,480,0,1,,,,,,,,,1,,,71,0
825840,note_on,0,0,1,,,,,,,,,1,,,69,39
825840,note_off,480,0,2,,,,,,,,,2,,,68,0
825910,note_off,310,0,5,,,,,,,,,5,,,45,0
826080,note_on,170,0,5,,,,,,,,,5,,,57,37
826080,note_off,240,0,1,,,,,,,,,1,,,69,0
826390,note_off,310,0,5,,,,,,,,,5,,,57,0
826500,set_tempo,960,1,0,,,,,,461538,,,,,,,
826560,set_tempo,60,1,0,,,,,,434782,,,,,,,
826560,control_change,720,0,2,,,,,,,64,0,2,,,,
826560,control_change,170,0,5,,,,,,,64,0,5,,,,
826560,control_change,15360,0,4,,,,,,,64,0,4,,,,
826560,control_change,15360,0,3,,,,,,,64,0,3,,,,
826560,control_change,480,0,1,,,,,,,64,0,1,,,,
826560,note_on,0,0,1,,,,,,,,,1,,,69,38
826945,note_off,385,0,1,,,,,,,,,1,,,69,0
827040,note_on,95,0,1,,,,,,,,,1,,,69,41
827195,note_off,155,0,1,,,,,,,,,1,,,69,0
827280,note_on,85,0,1,,,,,,,,,1,,,67,42
827435,note_off,155,0,1,,,,,,,,,1,,,67,0
827480,set_tempo,920,1,0,,,,,,441176,,,,,,,
827520,note_on,960,0,5,,,,,,,,,5,,,50,37
827520,note_on,85,0,1,,,,,,,,,1,,,66,44
827520,set_tempo,40,1,0,,,,,,434782,,,,,,,
827675,note_off,155,0,1,,,,,,,,,1,,,66,0
827760,note_on,85,0,1,,,,,,,,,1,,,64,42
827915,note_off,155,0,1,,,,,,,,,1,,,64,0
828000,note_on,85,0,1,,,,,,,,,1,,,62,39
828240,note_on,0,0,5,,,,,,,,,5,,,49,39
828240,note_off,720,0,5,,,,,,,,,5,,,50,0
828480,note_off,240,0,5,,,,,,,,,5,,,49,0
828480,note_on,0,0,5,,,,,,,,,5,,,47,39
828575,note_off,575,0,1,,,,,,,,,1,,,62,0
828720,note_on,145,0,1,,,,,,,,,1,,,64,39
828960,note_off,240,0,1,,,,,,,,,1,,,64,0
828960,note_on,0,0,1,,,,,,,,,1,,,66,40
829200,note_off,720,0,5,,,,,,,,,5,,,47,0
829200,note_on,0,0,5,,,,,,,,,5,,,45,40
829440,note_off,240,0,5,,,,,,,,,5,,,45,0
829440,note_on,0,0,5,,,,,,,,,5,,,43,41
829680,note_off,720,0,1,,,,,,,,,1,,,66,0
829680,note_on,0,0,1,,,,,,,,,1,,,59,41
829920,note_off,240,0,1,,,,,,,,,1,,,59,0
829920,note_on,0,0,1,,,,,,,,,1,,,67,41
830160,note_off,720,0,5,,,,,,,,,5,,,43,0
830160,note_on,0,0,5,,,,,,,,,5,,,40,42
830400,note_off,240,0,5,,,,,,,,,5,,,40,0
830400,note_on,0,0,5,,,,,,,,,5,,,45,42
830640,note_off,720,0,1,,,,,,,,,1,,,67,0
830640,note_on,0,0,1,,,,,,,,,1,,,61,43
830880,note_off,240,0,1,,,,,,,,,1,,,61,0
830880,note_on,0,0,1,,,,,,,,,1,,,64,43
831120,note_off,720,0,5,,,,,,,,,5,,,45,0
831120,note_on,0,0,5,,,,,,,,,5,,,43,43
831360,note_off,240,0,5,,,,,,,,,5,,,43,0
831360,note_on,0,0,5,,,,,,,,,5,,,42,44
831600,note_on,0,0,1,,,,,,,,,1,,,57,44
831600,note_off,720,0,1,,,,,,,,,1,,,64,0
831840,note_off,240,0,1,,,,,,,,,1,,,57,0
831840,note_on,0,0,1,,,,,,,,,1,,,69,45
832080,note_off,720,0,5,,,,,,,,,5,,,42,0
832080,note_on,0,0,5,,,,,,,,,5,,,38,45
832320,note_off,240,0,5,,,,,,,,,5,,,38,0
832320,note_on,0,0,5,,,,,,,,,5,,,47,46
832560,note_off,720,0,1,,,,,,,,,1,,,69,0
832560,note_on,0,0,1,,,,,,,,,1,,,62,46
832800,note_on,0,0,1,,,,,,,,,1,,,67,46
832800,note_off,240,0,1,,,,,,,,,1,,,62,0
833040,note_off,720,0,5,,,,,,,,,5,,,47,0
833040,note_on,0,0,5,,,,,,,,,5,,,43,47
833240,set_tempo,5720,1,0,,,,,,441176,,,,,,,
833280,set_tempo,40,1,0,,,,,,434782,,,,,,,
833280,note_off,240,0,5,,,,,,,,,5,,,43,0
833280,note_on,0,0,5,,,,,,,,,5,,,45,48
833280,note_on,0,0,5,,,,,,,,,5,,,57,48
833520,note_off,720,0,1,,,,,,,,,1,,,67,0
833520,note_on,0,0,1,,,,,,,,,1,,,66,49
833665,note_off,0,0,5,,,,,,,,,5,,,45,0
833665,note_off,385,0,5,,,,,,,,,5,,,57,0
833760,note_on,95,0,5,,,,,,,,,5,,,45,53
833760,note_on,0,0,5,,,,,,,,,5,,,57,53
833760,note_on,0,0,1,,,,,,,,,1,,,64,50
833760,note_off,240,0,1,,,,,,,,,1,,,66,0
833915,note_off,0,0,5,,,,,,,,,5,,,45,0
833915,note_off,155,0,5,,,,,,,,,5,,,57,0
834000,note_on,85,0,5,,,,,,,,,5,,,43,56
834000,note_on,0,0,5,,,,,,,,,5,,,55,56
834155,note_off,155,0,5,,,,,,,,,5,,,55,0
834155,note_off,0,0,5,,,,,,,,,5,,,43,0
834200,set_tempo,920,1,0,,,,,,441176,,,,,,,
834240,note_on,85,0,5,,,,,,,,,5,,,42,61
834240,note_on,7680,0,2,,,,,,,,,2,,,69,52
834240,note_off,480,0,1,,,,,,,,,1,,,64,0
834240,note_on,0,0,5,,,,,,,,,5,,,54,61
834240,set_tempo,40,1,0,,,,,,434782,,,,,,,
834240,note_on,0,0,1,,,,,,,,,1,,,81,52
834395,note_off,0,0,5,,,,,,,,,5,,,42,0
834395,note_off,155,0,5,,,,,,,,,5,,,54,0
834480,note_on,0,0,5,,,,,,,,,5,,,52,57
834480,note_on,85,0,5,,,,,,,,,5,,,40,57
834625,note_off,385,0,2,,,,,,,,,2,,,69,0
834625,note_off,385,0,1,,,,,,,,,1,,,81,0
834635,note_off,0,0,5,,,,,,,,,5,,,40,0
834635,note_off,155,0,5,,,,,,,,,5,,,52,0
834720,note_on,95,0,2,,,,,,,,,2,,,69,56
834720,note_on,95,0,1,,,,,,,,,1,,,81,56
834720,note_on,0,0,5,,,,,,,,,5,,,38,54
834720,note_on,85,0,5,,,,,,,,,5,,,50,54
834875,note_off,155,0,2,,,,,,,,,2,,,69,0
834875,note_off,155,0,1,,,,,,,,,1,,,81,0
834960,note_on,85,0,2,,,,,,,,,2,,,67,58
834960,note_on,85,0,1,,,,,,,,,1,,,79,58
835115,note_off,155,0,1,,,,,,,,,1,,,79,0
835115,note_off,155,0,2,,,,,,,,,2,,,67,0
835200,note_on,85,0,2,,,,,,,,,2,,,66,65
835200,note_on,85,0,1,,,,,,,,,1,,,78,65
835295,note_off,0,0,5,,,,,,,,,5,,,50,0
835295,note_off,575,0,5,,,,,,,,,5,,,38,0
835355,note_off,155,0,2,,,,,,,,,2,,,66,0
835355,note_off,155,0,1,,,,,,,,,1,,,78,0
835440,note_on,145,0,5,,,,,,,,,5,,,49,56
835440,note_on,0,0,5,,,,,,,,,5,,,37,56
835440,note_on,85,0,2,,,,,,,,,2,,,64,62
835440,note_on,85,0,1,,,,,,,,,1,,,76,62
835595,note_off,155,0,1,,,,,,,,,1,,,76,0
835595,note_off,155,0,5,,,,,,,,,5,,,37,0
835595,note_off,0,0,5,,,,,,,,,5,,,49,0
835595,note_off,155,0,2,,,,,,,,,2,,,64,0
835680,note_on,85,0,5,,,,,,,,,5,,,47,57
835680,note_on,0,0,5,,,,,,,,,5,,,35,57
835680,note_on,85,0,1,,,,,,,,,1,,,74,60
835680,note_on,85,0,2,,,,,,,,,2,,,62,60
835835,note_off,0,0,5,,,,,,,,,5,,,47,0
835835,note_off,155,0,5,,,,,,,,,5,,,35,0
835920,note_on,85,0,5,,,,,,,,,5,,,33,58
835920,note_on,0,0,5,,,,,,,,,5,,,45,58
836075,note_off,155,0,5,,,,,,,,,5,,,45,0
836075,note_off,0,0,5,,,,,,,,,5,,,33,0
836160,note_on,0,0,5,,,,,,,,,5,,,44,59
836160,note_on,85,0,5,,,,,,,,,5,,,32,59
836255,note_off,575,0,2,,,,,,,,,2,,,62,0
836255,note_off,575,0,1,,,,,,,,,1,,,74,0
836315,note_off,0,0,5,,,,,,,,,5,,,32,0
836315,note_off,155,0,5,,,,,,,,,5,,,44,0
836400,note_on,85,0,5,,,,,,,,,5,,,33,60
836400,note_on,145,0,1,,,,,,,,,1,,,73,60
836400,note_on,145,0,2,,,,,,,,,2,,,61,60
836400,note_on,0,0,5,,,,,,,,,5,,,45,60
836555,note_off,155,0,2,,,,,,,,,2,,,61,0
836555,note_off,155,0,5,,,,,,,,,5,,,45,0
836555,note_off,155,0,1,,,,,,,,,1,,,73,0
836555,note_off,0,0,5,,,,,,,,,5,,,33,0
836640,note_on,85,0,1,,,,,,,,,1,,,71,60
836640,note_on,85,0,2,,,,,,,,,2,,,59,60
836640,note_on,85,0,5,,,,,,,,,5,,,47,60
836640,note_on,0,0,5,,,,,,,,,5,,,35,60
836795,note_off,155,0,1,,,,,,,,,1,,,71,0
836795,note_off,155,0,2,,,,,,,,,2,,,59,0
836880,note_on,85,0,2,,,,,,,,,2,,,57,61
836880,note_on,85,0,1,,,,,,,,,1,,,69,61
837035,note_off,155,0,1,,,,,,,,,1,,,69,0
837035,note_off,155,0,2,,,,,,,,,2,,,57,0
837120,note_on,85,0,1,,,,,,,,,1,,,68,62
837120,note_on,85,0,2,,,,,,,,,2,,,56,62
837215,note_off,575,0,5,,,,,,,,,5,,,35,0
837215,note_off,0,0,5,,,,,,,,,5,,,47,0
837275,note_off,155,0,2,,,,,,,,,2,,,56,0
837275,note_off,155,0,1,,,,,,,,,1,,,68,0
837360,note_on,145,0,5,,,,,,,,,5,,,37,63
837360,note_on,0,0,5,,,,,,,,,5,,,49,63
837360,note_on,85,0,2,,,,,,,,,2,,,57,63
837360,note_on,85,0,1,,,,,,,,,1,,,69,63
837515,note_off,155,0,5,,,,,,,,,5,,,49,0
837515,note_off,0,0,5,,,,,,,,,5,,,37,0
837515,note_off,155,0,2,,,,,,,,,2,,,57,0
837515,note_off,155,0,1,,,,,,,,,1,,,69,0
837600,note_on,0,0,5,,,,,,,,,5,,,38,64
837600,note_on,85,0,5,,,,,,,,,5,,,50,64
837600,note_on,85,0,2,,,,,,,,,2,,,59,64
837600,note_on,85,0,1,,,,,,,,,1,,,71,64
837755,note_off,0,0,5,,,,,,,,,5,,,50,0
837755,note_off,155,0,5,,,,,,,,,5,,,38,0
837840,note_on,0,0,5,,,,,,,,,5,,,51,65
837840,note_on,85,0,5,,,,,,,,,5,,,39,65
837995,note_off,0,0,5,,,,,,,,,5,,,39,0
837995,note_off,155,0,5,,,,,,,,,5,,,51,0
838080,note_on,85,0,5,,,,,,,,,5,,,40,66
838080,note_on,0,0,5,,,,,,,,,5,,,52,66
838175,note_off,575,0,2,,,,,,,,,2,,,59,0
838175,note_off,575,0,1,,,,,,,,,1,,,71,0
838320,note_on,145,0,2,,,,,,,,,2,,,61,67
838320,note_on,145,0,1,,,,,,,,,1,,,73,67
838465,note_off,385,0,5,,,,,,,,,5,,,52,0
838465,note_off,0,0,5,,,,,,,,,5,,,40,0
838475,note_off,155,0,1,,,,,,,,,1,,,73,0
838475,note_off,155,0,2,,,,,,,,,2,,,61,0
838560,note_on,85,0,2,,,,,,,,,2,,,62,67
838560,note_on,85,0,1,,,,,,,,,1,,,74,67
838715,note_off,155,0,2,,,,,,,,,2,,,62,0
838715,note_off,155,0,1,,,,,,,,,1,,,74,0
838800,note_on,85,0,2,,,,,,,,,2,,,63,68
838800,note_on,85,0,1,,,,,,,,,1,,,75,68
838955,note_off,155,0,2,,,,,,,,,2,,,63,0
838955,note_off,155,0,1,,,,,,,,,1,,,75,0
839000,set_tempo,4760,1,0,,,,,,441176,,,,,,,
839040,note_on,575,0,5,,,,,,,,,5,,,49,57
839040,set_tempo,40,1,0,,,,,,434782,,,,,,,
839280,note_on,325,0,1,,,,,,,,,1,,,76,55
839280,note_on,325,0,2,,,,,,,,,2,,,73,55
839520,note_on,0,0,5,,,,,,,,,5,,,54,53
839520,note_off,480,0,5,,,,,,,,,5,,,49,0
839760,note_on,0,0,1,,,,,,,,,1,,,73,51
839760,note_off,480,0,1,,,,,,,,,1,,,76,0
839760,note_off,480,0,2,,,,,,,,,2,,,73,0
839760,note_on,0,0,2,,,,,,,,,2,,,70,51
840000,note_on,0,0,5,,,,,,,,,5,,,47,49
840000,note_off,480,0,5,,,,,,,,,5,,,54,0
840240,note_off,480,0,2,,,,,,,,,2,,,70,0
840240,note_off,480,0,1,,,,,,,,,1,,,73,0
840240,note_on,0,0,1,,,,,,,,,1,,,74,47
840240,note_on,0,0,2,,,,,,,,,2,,,71,47
840480,note_on,0,0,5,,,,,,,,,5,,,52,45
840480,note_off,480,0,5,,,,,,,,,5,,,47,0
840720,note_on,0,0,1,,,,,,,,,1,,,71,43
840720,note_off,480,0,2,,,,,,,,,2,,,71,0
840720,note_on,0,0,2,,,,,,,,,2,,,68,43
840720,note_off,480,0,1,,,,,,,,,1,,,74,0
840900,set_tempo,1860,1,0,,,,,,441176,,,,,,,
840960,note_off,480,0,5,,,,,,,,,5,,,52,0
840960,note_on,0,0,5,,,,,,,,,5,,,45,41
841200,note_off,480,0,2,,,,,,,,,2,,,68,0
841200,note_off,480,0,1,,,,,,,,,1,,,71,0
841200,note_on,0,0,1,,,,,,,,,1,,,69,39
841270,note_off,310,0,5,,,,,,,,,5,,,45,0
841440,note_on,170,0,5,,,,,,,,,5,,,57,37
841440,note_off,240,0,1,,,,,,,,,1,,,69,0
841750,note_off,310,0,5,,,,,,,,,5,,,57,0
841860,set_tempo,960,1,0,,,,,,461538,,,,,,,
841920,control_change,15360,0,4,,,,,,,64,0,4,,,,
841920,control_change,170,0,5,,,,,,,64,0,5,,,,
841920,set_tempo,60,1,0,,,,,,434782,,,,,,,
841920,note_on,0,0,1,,,,,,,,,1,,,81,40
841920,control_change,480,0,1,,,,,,,64,0,1,,,,
841920,control_change,15360,0,3,,,,,,,64,0,3,,,,
841920,control_change,720,0,2,,,,,,,64,0,2,,,,
842230,note_off,310,0,1,,,,,,,,,1,,,81,0
842400,note_on,170,0,1,,,,,,,,,1,,,81,43
842555,note_off,155,0,1,,,,,,,,,1,,,81,0
842640,note_on,85,0,1,,,,,,,,,1,,,83,45
842795,note_off,155,0,1,,,,,,,,,1,,,83,0
842840,set_tempo,920,1,0,,,,,,441176,,,,,,,
842880,set_tempo,40,1,0,,,,,,434782,,,,,,,
842880,note_on,85,0,1,,,,,,,,,1,,,84,46
842880,note_on,960,0,5,,,,,,,,,5,,,69,43
842880,note_on,0,0,5,,,,,,,,,5,,,63,43
843035,note_off,155,0,1,,,,,,,,,1,,,84,0
843120,note_on,85,0,1,,,,,,,,,1,,,83,43
843275,note_off,155,0,1,,,,,,,,,1,,,83,0
843360,note_off,480,0,5,,,,,,,,,5,,,63,0
843360,note_off,0,0,5,,,,,,,,,5,,,69,0
843360,note_on,85,0,1,,,,,,,,,1,,,88,41
843360,note_on,0,0,5,,,,,,,,,5,,,62,38
843360,note_on,0,0,5,,,,,,,,,5,,,68,38
843840,note_on,0,0,5,,,,,,,,,5,,,67,36
843840,note_off,0,0,5,,,,,,,,,5,,,62,0
843840,note_on,0,0,5,,,,,,,,,5,,,61,36
843840,note_off,480,0,5,,,,,,,,,5,,,68,0
844080,note_off,720,0,1,,,,,,,,,1,,,88,0
844080,note_on,0,0,1,,,,,,,,,1,,,81,35
844320,note_on,0,0,5,,,,,,,,,5,,,60,34
844320,note_on,0,0,5,,,,,,,,,5,,,66,34
844320,note_off,480,0,5,,,,,,,,,5,,,61,0
844320,note_on,0,0,1,,,,,,,,,1,,,86,34
844320,note_off,240,0,1,,,,,,,,,1,,,81,0
844320,note_off,0,0,5,,,,,,,,,5,,,67,0
844760,set_tempo,1880,1,0,,,,,,441176,,,,,,,
844800,note_on,0,0,5,,,,,,,,,5,,,47,63
844800,note_on,0,0,5,,,,,,,,,5,,,59,63
844800,note_off,0,0,5,,,,,,,,,5,,,60,0
844800,note_off,480,0,5,,,,,,,,,5,,,66,0
844800,set_tempo,40,1,0,,,,,,434782,,,,,,,
845040,note_on,0,0,1,,,,,,,,,1,,,82,62
845040,note_on,0,0,1,,,,,,,,,1,,,70,62
845040,note_off,720,0,1,,,,,,,,,1,,,86,0
845280,note_on,0,0,1,,,,,,,,,1,,,83,62
845280,note_on,0,0,1,,,,,,,,,1,,,71,62
845280,note_off,240,0,1,,,,,,,,,1,,,82,0
845280,note_off,0,0,1,,,,,,,,,1,,,70,0
845520,note_on,0,0,5,,,,,,,,,5,,,42,61
845520,note_on,0,0,5,,,,,,,,,5,,,54,61
845520,note_off,0,0,5,,,,,,,,,5,,,59,0
845520,note_off,720,0,5,,,,,,,,,5,,,47,0
845760,note_off,240,0,5,,,,,,,,,5,,,42,0
845760,note_off,0,0,5,,,,,,,,,5,,,54,0
845760,note_on,0,0,5,,,,,,,,,5,,,55,60
845760,note_on,0,0,5,,,,,,,,,5,,,43,60
846000,note_off,0,0,1,,,,,,,,,1,,,83,0
846000,note_on,0,0,1,,,,,,,,,1,,,66,60
846000,note_off,720,0,1,,,,,,,,,1,,,71,0
846000,note_on,0,0,1,,,,,,,,,1,,,78,60
846240,note_on,0,0,1,,,,,,,,,1,,,67,59
846240,note_on,0,0,1,,,,,,,,,1,,,79,59
846240,note_off,0,0,1,,,,,,,,,1,,,66,0
846240,note_off,240,0,1,,,,,,,,,1,,,78,0
846480,note_off,720,0,5,,,,,,,,,5,,,55,0
846480,note_off,0,0,5,,,,,,,,,5,,,43,0
846480,note_on,0,0,5,,,,,,,,,5,,,51,58
846480,note_on,0,0,5,,,,,,,,,5,,,39,58
846720,note_off,240,0,5,,,,,,,,,5,,,39,0
846720,note_off,0,0,5,,,,,,,,,5,,,51,0
846720,note_on,0,0,5,,,,,,,,,5,,,40,58
846720,note_on,0,0,5,,,,,,,,,5,,,52,58
846960,note_off,720,0,1,,,,,,,,,1,,,67,0
846960,note_off,0,0,1,,,,,,,,,1,,,79,0
846960,note_on,0,0,1,,,,,,,,,1,,,57,38
847100,note_off,0,0,5,,,,,,,,,5,,,40,0
847100,note_off,380,0,5,,,,,,,,,5,,,52,0
847200,note_on,100,0,5,,,,,,,,,5,,,49,39
847200,note_on,0,0,1,,,,,,,,,1,,,67,39
847200,note_off,240,0,1,,,,,,,,,1,,,57,0
847680,note_on,0,0,5,,,,,,,,,5,,,50,41
847680,note_off,480,0,5,,,,,,,,,5,,,49,0
847920,note_on,0,0,1,,,,,,,,,1,,,66,43
847920,note_off,720,0,1,,,,,,,,,1,,,67,0
848160,note_on,0,0,5,,,,,,,,,5,,,44,44
848160,note_off,480,0,5,,,,,,,,,5,,,50,0
848160,note_on,0,0,1,,,,,,,,,1,,,71,44
848160,note_off,240,0,1,,,,,,,,,1,,,66,0
848640,note_off,480,0,5,,,,,,,,,5,,,44,0
848640,note_on,0,0,5,,,,,,,,,5,,,45,46
848880,note_off,720,0,1,,,,,,,,,1,,,71,0
848880,note_on,0,0,1,,,,,,,,,1,,,64,43
849120,note_on,0,0,1,,,,,,,,,1,,,64,40
849120,note_off,240,0,1,,,,,,,,,1,,,64,0
849120,note_off,480,0,5,,,,,,,,,5,,,45,0
849560,set_tempo,4760,1,0,,,,,,441176,,,,,,,
849600,note_on,7680,0,2,,,,,,,,,2,,,57,62
849600,note_on,0,0,1,,,,,,,,,1,,,69,62
849600,note_off,480,0,1,,,,,,,,,1,,,64,0
849600,set_tempo,40,1,0,,,,,,434782,,,,,,,
849910,note_off,310,0,2,,,,,,,,,2,,,57,0
849910,note_off,310,0,1,,,,,,,,,1,,,69,0
850080,note_on,170,0,2,,,,,,,,,2,,,57,66
850080,note_on,170,0,1,,,,,,,,,1,,,69,66
850235,note_off,155,0,2,,,,,,,,,2,,,57,0
850235,note_off,155,0,1,,,,,,,,,1,,,69,0
850320,note_on,85,0,2,,,,,,,,,2,,,59,69
850320,note_on,85,0,1,,,,,,,,,1,,,71,69
850475,note_off,155,0,2,,,,,,,,,2,,,59,0
850475,note_off,155,0,1,,,,,,,,,1,,,71,0
850520,set_tempo,920,1,0,,,,,,441176,,,,,,,
850560,note_on,85,0,1,,,,,,,,,1,,,73,70
850560,set_tempo,40,1,0,,,,,,434782,,,,,,,
850560,note_on,85,0,2,,,,,,,,,2,,,61,70
850560,note_on,1440,0,5,,,,,,,,,5,,,57,64
850560,note_on,0,0,5,,,,,,,,,5,,,45,64
850715,note_off,155,0,2,,,,,,,,,2,,,61,0
850715,note_off,155,0,1,,,,,,,,,1,,,73,0
850800,note_on,85,0,1,,,,,,,,,1,,,74,68
850800,note_on,85,0,2,,,,,,,,,2,,,62,68
850945,note_off,385,0,5,,,,,,,,,5,,,45,0
850945,note_off,0,0,5,,,,,,,,,5,,,57,0
850955,note_off,155,0,1,,,,,,,,,1,,,74,0
850955,note_off,155,0,2,,,,,,,,,2,,,62,0
851040,note_on,85,0,2,,,,,,,,,2,,,64,65
851040,note_on,85,0,1,,,,,,,,,1,,,76,65
851040,note_on,95,0,5,,,,,,,,,5,,,45,69
851040,note_on,0,0,5,,,,,,,,,5,,,57,69
851195,note_off,0,0,5,,,,,,,,,5,,,45,0
851195,note_off,155,0,5,,,,,,,,,5,,,57,0
851280,note_on,0,0,5,,,,,,,,,5,,,43,72
851280,note_on,85,0,5,,,,,,,,,5,,,55,72
851425,note_off,385,0,2,,,,,,,,,2,,,64,0
851425,note_off,385,0,1,,,,,,,,,1,,,76,0
851435,note_off,0,0,5,,,,,,,,,5,,,55,0
851435,note_off,155,0,5,,,,,,,,,5,,,43,0
851520,note_on,95,0,2,,,,,,,,,2,,,62,67
851520,note_on,85,0,5,,,,,,,,,5,,,42,76
851520,note_on,0,0,5,,,,,,,,,5,,,54,76
851520,note_on,95,0,1,,,,,,,,,1,,,74,67
851675,note_off,155,0,5,,,,,,,,,5,,,54,0
851675,note_off,0,0,5,,,,,,,,,5,,,42,0
851760,note_on,0,0,5,,,,,,,,,5,,,52,73
851760,note_on,85,0,5,,,,,,,,,5,,,40,73
851905,note_off,385,0,2,,,,,,,,,2,,,62,0
851905,note_off,385,0,1,,,,,,,,,1,,,74,0
851915,note_off,155,0,5,,,,,,,,,5,,,52,0
851915,note_off,0,0,5,,,,,,,,,5,,,40,0
852000,note_on,0,0,5,,,,,,,,,5,,,38,69
852000,note_on,85,0,5,,,,,,,,,5,,,50,69
852000,note_on,95,0,2,,,,,,,,,2,,,62,70
852000,note_on,95,0,1,,,,,,,,,1,,,74,70
852155,note_off,155,0,2,,,,,,,,,2,,,62,0
852155,note_off,155,0,1,,,,,,,,,1,,,74,0
852240,note_on,85,0,1,,,,,,,,,1,,,76,73
852240,note_on,85,0,2,,,,,,,,,2,,,64,73
852385,note_off,0,0,5,,,,,,,,,5,,,50,0
852385,note_off,385,0,5,,,,,,,,,5,,,38,0
852395,note_off,155,0,1,,,,,,,,,1,,,76,0
852395,note_off,155,0,2,,,,,,,,,2,,,64,0
852480,note_on,95,0,5,,,,,,,,,5,,,62,70
852480,note_on,85,0,1,,,,,,,,,1,,,78,77
852480,note_on,85,0,2,,,,,,,,,2,,,66,77
852480,note_on,0,0,5,,,,,,,,,5,,,50,70
852635,note_off,155,0,1,,,,,,,,,1,,,78,0
852635,note_off,155,0,2,,,,,,,,,2,,,66,0
852720,note_on,85,0,2,,,,,,,,,2,,,67,74
852720,note_on,85,0,1,,,,,,,,,1,,,79,74
852865,note_off,385,0,5,,,,,,,,,5,,,50,0
852865,note_off,0,0,5,,,,,,,,,5,,,62,0
852875,note_off,155,0,2,,,,,,,,,2,,,67,0
852875,note_off,155,0,1,,,,,,,,,1,,,79,0
852960,note_on,95,0,5,,,,,,,,,5,,,62,75
852960,note_on,85,0,1,,,,,,,,,1,,,81,72
852960,note_on,0,0,5,,,,,,,,,5,,,50,75
852960,note_on,85,0,2,,,,,,,,,2,,,69,72
853115,note_off,155,0,5,,,,,,,,,5,,,50,0
853115,note_off,0,0,5,,,,,,,,,5,,,62,0
853200,note_on,85,0,5,,,,,,,,,5,,,60,78
853200,note_on,0,0,5,,,,,,,,,5,,,48,78
853345,note_off,385,0,1,,,,,,,,,1,,,81,0
853345,note_off,385,0,2,,,,,,,,,2,,,69,0
853355,note_off,155,0,5,,,,,,,,,5,,,48,0
853355,note_off,0,0,5,,,,,,,,,5,,,60,0
853440,note_on,95,0,1,,,,,,,,,1,,,86,72
853440,note_on,95,0,2,,,,,,,,,2,,,74,72
853440,note_on,85,0,5,,,,,,,,,5,,,59,82
853440,note_on,0,0,5,,,,,,,,,5,,,47,82
853595,note_off,0,0,5,,,,,,,,,5,,,59,0
853595,note_off,155,0,5,,,,,,,,,5,,,47,0
853680,note_on,85,0,5,,,,,,,,,5,,,45,79
853680,note_on,0,0,5,,,,,,,,,5,,,57,79
853825,note_off,385,0,2,,,,,,,,,2,,,74,0
853825,note_off,385,0,1,,,,,,,,,1,,,86,0
853835,note_off,155,0,5,,,,,,,,,5,,,57,0
853835,note_off,0,0,5,,,,,,,,,5,,,45,0
853920,note_on,95,0,2,,,,,,,,,2,,,74,76
853920,note_on,85,0,5,,,,,,,,,5,,,55,76
853920,note_on,95,0,1,,,,,,,,,1,,,86,76
853920,note_on,0,0,5,,,,,,,,,5,,,43,76
854075,note_off,155,0,1,,,,,,,,,1,,,86,0
854075,note_off,155,0,2,,,,,,,,,2,,,74,0
854160,note_on,85,0,1,,,,,,,,,1,,,84,78
854160,note_on,85,0,2,,,,,,,,,2,,,72,78
854315,note_off,155,0,2,,,,,,,,,2,,,72,0
854315,note_off,155,0,1,,,,,,,,,1,,,84,0
854400,note_on,85,0,1,,,,,,,,,1,,,83,83
854400,note_on,85,0,2,,,,,,,,,2,,,71,83
854495,note_off,575,0,5,,,,,,,,,5,,,43,0
854495,note_off,0,0,5,,,,,,,,,5,,,55,0
854555,note_off,155,0,2,,,,,,,,,2,,,71,0
854555,note_off,155,0,1,,,,,,,,,1,,,83,0
854640,note_on,85,0,1,,,,,,,,,1,,,81,81
854640,note_on,145,0,5,,,,,,,,,5,,,54,77
854640,note_on,0,0,5,,,,,,,,,5,,,42,77
854640,note_on,85,0,2,,,,,,,,,2,,,69,81
854795,note_off,155,0,2,,,,,,,,,2,,,69,0
854795,note_off,155,0,1,,,,,,,,,1,,,81,0
854795,note_off,0,0,5,,,,,,,,,5,,,54,0
854795,note_off,155,0,5,,,,,,,,,5,,,42,0
854880,note_on,85,0,2,,,,,,,,,2,,,67,80
854880,note_on,85,0,1,,,,,,,,,1,,,79,80
854880,note_on,85,0,5,,,,,,,,,5,,,55,78
854880,note_on,0,0,5,,,,,,,,,5,,,43,78
855035,note_off,0,0,5,,,,,,,,,5,,,55,0
855035,note_off,155,0,5,,,,,,,,,5,,,43,0
855120,note_on,0,0,5,,,,,,,,,5,,,40,79
855120,note_on,85,0,5,,,,,,,,,5,,,52,79
855275,note_off,155,0,5,,,,,,,,,5,,,40,0
855275,note_off,0,0,5,,,,,,,,,5,,,52,0
855360,note_on,0,0,5,,,,,,,,,5,,,45,80
855360,note_on,85,0,5,,,,,,,,,5,,,57,80
855455,note_off,575,0,1,,,,,,,,,1,,,79,0
855455,note_off,575,0,2,,,,,,,,,2,,,67,0
855600,note_on,145,0,1,,,,,,,,,1,,,78,81
855600,note_on,145,0,2,,,,,,,,,2,,,66,81
855755,note_off,155,0,1,,,,,,,,,1,,,78,0
855755,note_off,155,0,2,,,,,,,,,2,,,66,0
855840,note_on,85,0,1,,,,,,,,,1,,,79,81
855840,note_on,85,0,2,,,,,,,,,2,,,67,81
855935,note_off,575,0,5,,,,,,,,,5,,,45,0
855935,note_off,0,0,5,,,,,,,,,5,,,57,0
855995,note_off,155,0,2,,,,,,,,,2,,,67,0
855995,note_off,155,0,1,,,,,,,,,1,,,79,0
856080,note_on,145,0,5,,,,,,,,,5,,,55,82
856080,note_on,0,0,5,,,,,,,,,5,,,43,82
856080,note_on,85,0,2,,,,,,,,,2,,,64,82
856080,note_on,85,0,1,,,,,,,,,1,,,76,82
856235,note_off,155,0,2,,,,,,,,,2,,,64,0
856235,note_off,155,0,1,,,,,,,,,1,,,76,0
856280,set_tempo,5720,1,0,,,,,,441176,,,,,,,
856320,note_on,0,0,5,,,,,,,,,5,,,54,83
856320,note_on,0,0,5,,,,,,,,,5,,,42,83
856320,note_off,0,0,5,,,,,,,,,5,,,55,0
856320,note_off,240,0,5,,,,,,,,,5,,,43,0
856560,note_on,325,0,1,,,,,,,,,1,,,81,50
856560,note_on,325,0,2,,,,,,,,,2,,,78,50
856705,note_off,0,0,5,,,,,,,,,5,,,42,0
856705,note_off,385,0,5,,,,,,,,,5,,,54,0
856800,note_on,95,0,5,,,,,,,,,5,,,59,52
857040,note_on,0,0,1,,,,,,,,,1,,,78,55
857040,note_off,480,0,1,,,,,,,,,1,,,81,0
857040,note_off,480,0,2,,,,,,,,,2,,,78,0
857040,note_on,0,0,2,,,,,,,,,2,,,75,55
857280,note_on,0,0,5,,,,,,,,,5,,,52,56
857280,note_off,480,0,5,,,,,,,,,5,,,59,0
857520,note_off,480,0,2,,,,,,,,,2,,,75,0
857520,note_off,480,0,1,,,,,,,,,1,,,78,0
857520,note_on,0,0,2,,,,,,,,,2,,,76,60
857520,note_on,0,0,1,,,,,,,,,1,,,79,60
857760,note_off,480,0,5,,,,,,,,,5,,,52,0
857760,note_on,0,0,5,,,,,,,,,5,,,57,61
858000,note_on,0,0,1,,,,,,,,,1,,,76,66
858000,note_off,480,0,2,,,,,,,,,2,,,76,0
858000,note_on,0,0,2,,,,,,,,,2,,,73,66
858000,note_off,480,0,1,,,,,,,,,1,,,79,0
858180,set_tempo,1900,1,0,,,,,,447761,,,,,,,
858240,set_tempo,60,1,0,,,,,,461538,,,,,,,
858240,note_off,480,0,5,,,,,,,,,5,,,57,0
858240,note_on,0,0,5,,,,,,,,,5,,,50,66
858480,note_off,480,0,1,,,,,,,,,1,,,76,0
858480,note_on,0,0,1,,,,,,,,,1,,,74,59
858480,set_tempo,240,1,0,,,,,,500000,,,,,,,
858480,note_off,480,0,2,,,,,,,,,2,,,73,0
858550,note_off,310,0,5,,,,,,,,,5,,,50,0
858720,note_off,240,0,1,,,,,,,,,1,,,74,0
858720,note_on,170,0,5,,,,,,,,,5,,,62,50
858930,set_tempo,450,1,0,,,,,,923076,,,,,,,
859030,note_off,310,0,5,,,,,,,,,5,,,62,0
859200,control_change,17280,0,4,,,,,,,64,0,4,,,,
859200,marker,0,1,0,,,,,,,,,,,,,
859200,set_tempo,270,1,0,,,,,,400000,,,,,,,
859200,control_change,480,0,1,,,,,,,64,0,1,,,,
859200,note_on,0,0,2,,,,,,,,,2,,,69,38
859200,control_change,170,0,5,,,,,,,64,0,5,,,,
859200,control_change,720,0,2,,,,,,,64,0,2,,,,
859200,control_change,17280,0,3,,,,,,,64,0,3,,,,
859320,note_on,120,0,3,,,,,,,,,3,,,81,38
859380,note_off,180,0,2,,,,,,,,,2,,,69,0
859415,note_off,95,0,3,,,,,,,,,3,,,81,0
859440,note_on,60,0,2,,,,,,,,,2,,,69,38
859560,note_on,145,0,3,,,,,,,,,3,,,81,39
859620,note_off,180,0,2,,,,,,,,,2,,,69,0
859655,note_off,95,0,3,,,,,,,,,3,,,81,0
859680,note_on,60,0,2,,,,,,,,,2,,,69,39
859800,note_on,145,0,3,,,,,,,,,3,,,81,39
859860,note_off,180,0,2,,,,,,,,,2,,,69,0
859895,note_off,95,0,3,,,,,,,,,3,,,81,0
859920,note_on,60,0,2,,,,,,,,,2,,,69,39
860040,note_on,145,0,3,,,,,,,,,3,,,81,39
860100,note_off,180,0,2,,,,,,,,,2,,,69,0
860120,set_tempo,920,1,0,,,,,,402684,,,,,,,
860135,note_off,95,0,3,,,,,,,,,3,,,81,0
860160,note_on,60,0,2,,,,,,,,,2,,,69,39
860160,note_on,0,0,5,,,,,,,,,5,,,57,38
860160,set_tempo,40,1,0,,,,,,400000,,,,,,,
860160,note_on,960,0,5,,,,,,,,,5,,,54,38
860280,note_on,145,0,3,,,,,,,,,3,,,81,40
860340,note_off,180,0,2,,,,,,,,,2,,,69,0
860375,note_off,95,0,3,,,,,,,,,3,,,81,0
860400,note_on,60,0,2,,,,,,,,,2,,,69,40
860520,note_on,145,0,3,,,,,,,,,3,,,81,40
860580,note_off,180,0,2,,,,,,,,,2,,,69,0
860615,note_off,95,0,3,,,,,,,,,3,,,81,0
860640,note_on,60,0,2,,,,,,,,,2,,,69,40
860760,note_on,145,0,3,,,,,,,,,3,,,81,40
860820,note_off,180,0,2,,,,,,,,,2,,,69,0
860855,note_off,95,0,3,,,,,,,,,3,,,81,0
860880,note_on,60,0,2,,,,,,,,,2,,,69,41
860930,note_off,770,0,5,,,,,,,,,5,,,57,0
860930,note_off,0,0,5,,,,,,,,,5,,,54,0
861000,note_on,145,0,3,,,,,,,,,3,,,81,41
861060,note_off,180,0,2,,,,,,,,,2,,,69,0
861095,note_off,95,0,3,,,,,,,,,3,,,81,0
861120,note_on,60,0,2,,,,,,,,,2,,,69,41
861120,note_on,190,0,5,,,,,,,,,5,,,57,44
861120,note_on,0,0,5,,,,,,,,,5,,,62,44
861240,note_on,145,0,3,,,,,,,,,3,,,81,41
861300,note_off,180,0,2,,,,,,,,,2,,,69,0
861335,note_off,95,0,3,,,,,,,,,3,,,81,0
861360,note_on,60,0,2,,,,,,,,,2,,,69,41
861480,note_on,145,0,3,,,,,,,,,3,,,81,41
861505,note_off,0,0,5,,,,,,,,,5,,,57,0
861505,note_off,385,0,5,,,,,,,,,5,,,62,0
861540,note_off,180,0,2,,,,,,,,,2,,,69,0
861575,note_off,95,0,3,,,,,,,,,3,,,81,0
861600,note_on,0,0,5,,,,,,,,,5,,,62,46
861600,note_on,95,0,5,,,,,,,,,5,,,66,46
861600,note_on,60,0,2,,,,,,,,,2,,,69,42
861720,note_on,145,0,3,,,,,,,,,3,,,81,42
861780,note_off,180,0,2,,,,,,,,,2,,,69,0
861815,note_off,95,0,3,,,,,,,,,3,,,81,0
861840,note_on,60,0,2,,,,,,,,,2,,,69,42
861960,note_on,145,0,3,,,,,,,,,3,,,81,42
861985,note_off,385,0,5,,,,,,,,,5,,,62,0
861985,note_off,0,0,5,,,,,,,,,5,,,66,0
862020,note_off,180,0,2,,,,,,,,,2,,,69,0
862040,set_tempo,1880,1,0,,,,,,402684,,,,,,,
862055,note_off,95,0,3,,,,,,,,,3,,,81,0
862080,note_on,95,0,5,,,,,,,,,5,,,64,49
862080,note_on,60,0,2,,,,,,,,,2,,,69,42
862080,set_tempo,40,1,0,,,,,,400000,,,,,,,
862080,note_on,0,0,5,,,,,,,,,5,,,61,49
862200,note_on,145,0,3,,,,,,,,,3,,,81,43
862260,note_off,180,0,2,,,,,,,,,2,,,69,0
862295,note_off,95,0,3,,,,,,,,,3,,,81,0
862320,note_on,60,0,2,,,,,,,,,2,,,69,43
862440,note_on,145,0,3,,,,,,,,,3,,,81,43
862500,note_off,180,0,2,,,,,,,,,2,,,69,0
862535,note_off,95,0,3,,,,,,,,,3,,,81,0
862560,note_on,60,0,2,,,,,,,,,2,,,69,43
862680,note_on,145,0,3,,,,,,,,,3,,,81,43
862740,note_off,180,0,2,,,,,,,,,2,,,69,0
862775,note_off,95,0,3,,,,,,,,,3,,,81,0
862800,note_on,0,0,5,,,,,,,,,5,,,66,53
862800,note_on,60,0,2,,,,,,,,,2,,,69,43
862800,note_off,0,0,5,,,,,,,,,5,,,64,0
862800,note_off,720,0,5,,,,,,,,,5,,,61,0
862800,note_on,0,0,5,,,,,,,,,5,,,62,53
862920,note_on,145,0,3,,,,,,,,,3,,,81,44
862980,note_off,180,0,2,,,,,,,,,2,,,69,0
862990,note_off,0,0,5,,,,,,,,,5,,,62,0
862990,note_off,190,0,5,,,,,,,,,5,,,66,0
863015,note_off,95,0,3,,,,,,,,,3,,,81,0
863040,note_on,50,0,5,,,,,,,,,5,,,67,54
863040,note_on,60,0,2,,,,,,,,,2,,,69,44
863040,note_on,0,0,5,,,,,,,,,5,,,64,54
863160,note_on,145,0,3,,,,,,,,,3,,,81,44
863220,note_off,180,0,2,,,,,,,,,2,,,69,0
863255,note_off,95,0,3,,,,,,,,,3,,,81,0
863280,note_on,60,0,2,,,,,,,,,2,,,69,44
863350,note_off,0,0,5,,,,,,,,,5,,,67,0
863350,note_off,310,0,5,,,,,,,,,5,,,64,0
863400,note_on,145,0,3,,,,,,,,,3,,,81,44
863460,note_off,180,0,2,,,,,,,,,2,,,69,0
863495,note_off,95,0,3,,,,,,,,,3,,,81,0
863520,note_on,170,0,5,,,,,,,,,5,,,67,57
863520,note_on,0,0,5,,,,,,,,,5,,,64,57
863520,note_on,60,0,2,,,,,,,,,2,,,69,45
863640,note_on,145,0,3,,,,,,,,,3,,,81,45
863700,note_off,180,0,2,,,,,,,,,2,,,69,0
863735,note_off,95,0,3,,,,,,,,,3,,,81,0
863760,note_on,60,0,2,,,,,,,,,2,,,69,45
863830,note_off,310,0,5,,,,,,,,,5,,,64,0
863830,note_off,0,0,5,,,,,,,,,5,,,67,0
863880,note_on,145,0,3,,,,,,,,,3,,,81,46
863940,note_off,180,0,2,,,,,,,,,2,,,69,0
863960,set_tempo,1880,1,0,,,,,,402684,,,,,,,
863975,note_off,95,0,3,,,,,,,,,3,,,81,0
864000,note_on,60,0,2,,,,,,,,,2,,,69,47
864000,note_on,0,0,5,,,,,,,,,5,,,62,60
864000,note_on,170,0,5,,,,,,,,,5,,,66,60
864000,set_tempo,40,1,0,,,,,,400000,,,,,,,
864120,note_on,145,0,3,,,,,,,,,3,,,81,48
864180,note_off,180,0,2,,,,,,,,,2,,,69,0
864215,note_off,95,0,3,,,,,,,,,3,,,81,0
864240,note_on,60,0,2,,,,,,,,,2,,,69,49
864360,note_on,145,0,3,,,,,,,,,3,,,81,51
864420,note_off,180,0,2,,,,,,,,,2,,,69,0
864455,note_off,95,0,3,,,,,,,,,3,,,81,0
864480,note_on,60,0,2,,,,,,,,,2,,,70,52
864600,note_on,145,0,3,,,,,,,,,3,,,82,53
864660,note_off,180,0,2,,,,,,,,,2,,,70,0
864695,note_off,95,0,3,,,,,,,,,3,,,82,0
864720,note_on,60,0,2,,,,,,,,,2,,,70,54
864770,note_off,0,0,5,,,,,,,,,5,,,66,0
864770,note_off,770,0,5,,,,,,,,,5,,,62,0
864840,note_on,145,0,3,,,,,,,,,3,,,82,55
864900,note_off,180,0,2,,,,,,,,,2,,,70,0
864935,note_off,95,0,3,,,,,,,,,3,,,82,0
864960,note_on,0,0,5,,,,,,,,,5,,,55,65
864960,note_on,190,0,5,,,,,,,,,5,,,67,65
864960,note_on,60,0,2,,,,,,,,,2,,,71,57
865080,note_on,145,0,3,,,,,,,,,3,,,83,58
865140,note_off,180,0,2,,,,,,,,,2,,,71,0
865175,note_off,95,0,3,,,,,,,,,3,,,83,0
865200,note_on,60,0,2,,,,,,,,,2,,,71,59
865320,note_on,145,0,3,,,,,,,,,3,,,83,60
865380,note_off,180,0,2,,,,,,,,,2,,,71,0
865415,note_off,95,0,3,,,,,,,,,3,,,83,0
865440,note_on,60,0,2,,,,,,,,,2,,,76,61
865560,note_on,145,0,3,,,,,,,,,3,,,88,63
865620,note_off,180,0,2,,,,,,,,,2,,,76,0
865655,note_off,95,0,3,,,,,,,,,3,,,88,0
865680,note_on,60,0,2,,,,,,,,,2,,,76,64
865730,note_off,770,0,5,,,,,,,,,5,,,55,0
865730,note_off,0,0,5,,,,,,,,,5,,,67,0
865800,note_on,145,0,3,,,,,,,,,3,,,88,65
865860,note_off,180,0,2,,,,,,,,,2,,,76,0
865880,set_tempo,1880,1,0,,,,,,402684,,,,,,,
865895,note_off,95,0,3,,,,,,,,,3,,,88,0
865920,note_on,60,0,2,,,,,,,,,2,,,74,66
865920,note_on,25,0,3,,,,,,,,,3,,,86,66
865920,note_on,0,0,5,,,,,,,,,5,,,57,71
865920,note_on,190,0,5,,,,,,,,,5,,,66,71
866400,note_off,480,0,2,,,,,,,,,2,,,74,0
866400,note_on,0,0,2,,,,,,,,,2,,,73,55
866400,set_tempo,520,1,0,,,,,,413793,,,,,,,
866400,note_off,480,0,3,,,,,,,,,3,,,86,0
866400,note_on,0,0,3,,,,,,,,,3,,,85,55
866400,note_on,0,0,5,,,,,,,,,5,,,64,59
866400,note_off,480,0,5,,,,,,,,,5,,,66,0
866785,note_off,385,0,2,,,,,,,,,2,,,73,0
866785,note_off,385,0,5,,,,,,,,,5,,,64,0
866785,note_off,385,0,3,,,,,,,,,3,,,85,0
866795,note_off,10,0,5,,,,,,,,,5,,,57,0
866880,set_tempo,480,1,0,,,,,,400000,,,,,,,
866880,note_on,85,0,5,,,,,,,,,5,,,57,64
867000,note_on,7800,0,4,,,,,,,,,4,,,69,65
867060,note_off,180,0,5,,,,,,,,,5,,,57,0
867095,note_off,95,0,4,,,,,,,,,4,,,69,0
867120,note_on,60,0,5,,,,,,,,,5,,,57,65
867240,note_on,145,0,4,,,,,,,,,4,,,69,66
867300,note_off,180,0,5,,,,,,,,,5,,,57,0
867335,note_off,95,0,4,,,,,,,,,4,,,69,0
867360,note_on,60,0,5,,,,,,,,,5,,,55,66
867360,note_on,575,0,2,,,,,,,,,2,,,73,66
867360,note_on,8160,0,1,,,,,,,,,1,,,76,66
867480,note_on,145,0,4,,,,,,,,,4,,,67,66
867540,note_off,180,0,5,,,,,,,,,5,,,55,0
867575,note_off,95,0,4,,,,,,,,,4,,,67,0
867600,note_on,60,0,5,,,,,,,,,5,,,55,67
867720,note_on,145,0,4,,,,,,,,,4,,,67,67
867745,note_off,385,0,2,,,,,,,,,2,,,73,0
867745,note_off,385,0,1,,,,,,,,,1,,,76,0
867780,note_off,180,0,5,,,,,,,,,5,,,55,0
867800,set_tempo,920,1,0,,,,,,402684,,,,,,,
867815,note_off,95,0,4,,,,,,,,,4,,,67,0
867840,set_tempo,40,1,0,,,,,,400000,,,,,,,
867840,note_on,60,0,5,,,,,,,,,5,,,54,68
867840,note_on,95,0,2,,,,,,,,,2,,,69,68
867960,note_on,145,0,4,,,,,,,,,4,,,66,68
868020,note_off,180,0,5,,,,,,,,,5,,,54,0
868055,note_off,95,0,4,,,,,,,,,4,,,66,0
868080,note_on,60,0,5,,,,,,,,,5,,,54,69
868080,note_on,335,0,1,,,,,,,,,1,,,81,69
868200,note_on,145,0,4,,,,,,,,,4,,,66,69
868260,note_off,180,0,5,,,,,,,,,5,,,54,0
868295,note_off,95,0,4,,,,,,,,,4,,,66,0
868320,note_off,480,0,2,,,,,,,,,2,,,69,0
868320,note_on,0,0,2,,,,,,,,,2,,,73,69
868320,note_on,60,0,5,,,,,,,,,5,,,52,69
868440,note_on,145,0,4,,,,,,,,,4,,,64,70
868500,note_off,180,0,5,,,,,,,,,5,,,52,0
868535,note_off,95,0,4,,,,,,,,,4,,,64,0
868560,note_off,480,0,1,,,,,,,,,1,,,81,0
868560,note_on,60,0,5,,,,,,,,,5,,,52,70
868560,note_on,0,0,1,,,,,,,,,1,,,79,70
868680,note_on,145,0,4,,,,,,,,,4,,,64,71
868740,note_off,180,0,5,,,,,,,,,5,,,52,0
868775,note_off,95,0,4,,,,,,,,,4,,,64,0
868800,note_on,60,0,5,,,,,,,,,5,,,50,71
868800,note_off,480,0,2,,,,,,,,,2,,,73,0
868800,note_on,0,0,2,,,,,,,,,2,,,74,71
868920,note_on,145,0,4,,,,,,,,,4,,,62,71
868980,note_off,180,0,5,,,,,,,,,5,,,50,0
869015,note_off,95,0,4,,,,,,,,,4,,,62,0
869040,note_off,480,0,1,,,,,,,,,1,,,79,0
869040,note_on,60,0,5,,,,,,,,,5,,,50,72
869040,note_on,0,0,1,,,,,,,,,1,,,78,72
869160,note_on,145,0,4,,,,,,,,,4,,,62,72
869220,note_off,180,0,5,,,,,,,,,5,,,50,0
869255,note_off,95,0,4,,,,,,,,,4,,,62,0
869280,note_on,0,0,2,,,,,,,,,2,,,70,73
869280,note_off,480,0,2,,,,,,,,,2,,,74,0
869280,note_on,60,0,5,,,,,,,,,5,,,49,73
869400,note_on,145,0,4,,,,,,,,,4,,,61,73
869460,note_off,180,0,5,,,,,,,,,5,,,49,0
869495,note_off,95,0,4,,,,,,,,,4,,,61,0
869520,note_off,480,0,1,,,,,,,,,1,,,78,0
869520,note_on,60,0,5,,,,,,,,,5,,,49,73
869520,note_on,0,0,1,,,,,,,,,1,,,76,73
869640,note_on,145,0,4,,,,,,,,,4,,,61,74
869700,note_off,180,0,5,,,,,,,,,5,,,49,0
869720,set_tempo,1880,1,0,,,,,,402684,,,,,,,
869735,note_off,95,0,4,,,,,,,,,4,,,61,0
869760,note_on,0,0,2,,,,,,,,,2,,,71,74
869760,note_off,480,0,2,,,,,,,,,2,,,70,0
869760,set_tempo,40,1,0,,,,,,400000,,,,,,,
869760,note_on,60,0,5,,,,,,,,,5,,,47,74
869880,note_on,145,0,4,,,,,,,,,4,,,59,75
869940,note_off,180,0,5,,,,,,,,,5,,,47,0
869975,note_off,95,0,4,,,,,,,,,4,,,59,0
870000,note_on,0,0,1,,,,,,,,,1,,,74,75
870000,note_off,480,0,1,,,,,,,,,1,,,76,0
870000,note_on,60,0,5,,,,,,,,,5,,,47,75
870120,note_on,145,0,4,,,,,,,,,4,,,59,75
870180,note_off,180,0,5,,,,,,,,,5,,,47,0
870215,note_off,95,0,4,,,,,,,,,4,,,59,0
870240,note_on,60,0,5,,,,,,,,,5,,,45,76
870240,note_on,0,0,2,,,,,,,,,2,,,72,76
870240,note_off,480,0,2,,,,,,,,,2,,,71,0
870360,note_on,145,0,4,,,,,,,,,4,,,57,76
870420,note_off,180,0,5,,,,,,,,,5,,,45,0
870455,note_off,95,0,4,,,,,,,,,4,,,57,0
870480,note_on,0,0,1,,,,,,,,,1,,,75,77
870480,note_off,480,0,1,,,,,,,,,1,,,74,0
870480,note_on,60,0,5,,,,,,,,,5,,,45,77
870600,note_on,145,0,4,,,,,,,,,4,,,57,77
870660,note_off,180,0,5,,,,,,,,,5,,,45,0
870695,note_off,95,0,4,,,,,,,,,4,,,57,0
870720,note_on,60,0,5,,,,,,,,,5,,,44,78
870720,note_off,480,0,2,,,,,,,,,2,,,72,0
870720,note_on,0,0,2,,,,,,,,,2,,,71,78
870840,note_on,145,0,4,,,,,,,,,4,,,56,78
870900,note_off,180,0,5,,,,,,,,,5,,,44,0
870935,note_off,95,0,4,,,,,,,,,4,,,56,0
870960,note_off,480,0,1,,,,,,,,,1,,,75,0
870960,note_on,60,0,5,,,,,,,,,5,,,44,78
870960,note_on,0,0,1,,,,,,,,,1,,,76,78
871080,note_on,145,0,4,,,,,,,,,4,,,56,79
871140,note_off,180,0,5,,,,,,,,,5,,,44,0
871175,note_off,95,0,4,,,,,,,,,4,,,56,0
871200,note_on,60,0,5,,,,,,,,,5,,,40,79
871200,note_on,0,0,2,,,,,,,,,2,,,68,79
871200,note_off,480,0,2,,,,,,,,,2,,,71,0
871320,note_on,145,0,4,,,,,,,,,4,,,52,80
871380,note_off,180,0,5,,,,,,,,,5,,,40,0
871415,note_off,95,0,4,,,,,,,,,4,,,52,0
871440,note_on,60,0,5,,,,,,,,,5,,,40,80
871440,note_off,480,0,1,,,,,,,,,1,,,76,0
871440,note_on,0,0,1,,,,,,,,,1,,,74,80
871560,note_on,145,0,4,,,,,,,,,4,,,52,80
871620,note_off,180,0,5,,,,,,,,,5,,,40,0
871640,note_off,200,0,1,,,,,,,,,1,,,74,0
871640,set_tempo,1880,1,0,,,,,,402684,,,,,,,
871640,note_off,440,0,2,,,,,,,,,2,,,68,0
871655,note_off,95,0,4,,,,,,,,,4,,,52,0
871680,note_on,40,0,1,,,,,,,,,1,,,61,81
871680,set_tempo,40,1,0,,,,,,400000,,,,,,,
871680,note_on,60,0,5,,,,,,,,,5,,,57,81
871800,note_on,160,0,2,,,,,,,,,2,,,73,80
871860,note_off,180,0,1,,,,,,,,,1,,,61,0
871895,note_off,95,0,2,,,,,,,,,2,,,73,0
871920,note_on,60,0,1,,,,,,,,,1,,,61,79
871990,note_off,310,0,5,,,,,,,,,5,,,57,0
872040,note_on,145,0,2,,,,,,,,,2,,,73,79
872100,note_off,180,0,1,,,,,,,,,1,,,61,0
872135,note_off,95,0,2,,,,,,,,,2,,,73,0
872160,note_on,60,0,1,,,,,,,,,1,,,64,78
872160,note_on,170,0,5,,,,,,,,,5,,,49,78
872280,note_on,145,0,2,,,,,,,,,2,,,76,77
872340,note_off,180,0,1,,,,,,,,,1,,,64,0
872375,note_off,95,0,2,,,,,,,,,2,,,76,0
872400,note_on,60,0,1,,,,,,,,,1,,,64,76
872470,note_off,310,0,5,,,,,,,,,5,,,49,0
872520,note_on,145,0,2,,,,,,,,,2,,,76,75
872580,note_off,180,0,1,,,,,,,,,1,,,64,0
872615,note_off,95,0,2,,,,,,,,,2,,,76,0
872640,note_on,60,0,1,,,,,,,,,1,,,56,75
872640,note_on,170,0,5,,,,,,,,,5,,,52,75
872760,note_on,145,0,2,,,,,,,,,2,,,68,74
872820,note_off,180,0,1,,,,,,,,,1,,,56,0
872855,note_off,95,0,2,,,,,,,,,2,,,68,0
872880,note_on,60,0,1,,,,,,,,,1,,,56,73
872950,note_off,310,0,5,,,,,,,,,5,,,52,0
873000,note_on,145,0,2,,,,,,,,,2,,,68,72
873060,note_off,180,0,1,,,,,,,,,1,,,56,0
873095,note_off,95,0,2,,,,,,,,,2,,,68,0
873120,note_on,60,0,1,,,,,,,,,1,,,59,71
873120,note_on,170,0,5,,,,,,,,,5,,,40,71
873240,note_on,145,0,2,,,,,,,,,2,,,71,71
873300,note_off,180,0,1,,,,,,,,,1,,,59,0
873335,note_off,95,0,2,,,,,,,,,2,,,71,0
873360,note_on,60,0,1,,,,,,,,,1,,,59,70
873430,note_off,310,0,5,,,,,,,,,5,,,40,0
873480,note_on,145,0,2,,,,,,,,,2,,,71,69
873540,note_off,180,0,1,,,,,,,,,1,,,59,0
873560,set_tempo,1880,1,0,,,,,,402684,,,,,,,
873575,note_off,95,0,2,,,,,,,,,2,,,71,0
873600,note_on,60,0,1,,,,,,,,,1,,,57,68
873600,note_on,25,0,2,,,,,,,,,2,,,69,68
873600,note_on,170,0,5,,,,,,,,,5,,,45,68
873910,note_off,310,0,5,,,,,,,,,5,,,45,0
873985,note_off,385,0,2,,,,,,,,,2,,,69,0
873985,note_off,385,0,1,,,,,,,,,1,,,57,0
874080,note_on,170,0,5,,,,,,,,,5,,,33,65
874120,set_tempo,560,1,0,,,,,,413793,,,,,,,
874390,note_off,310,0,5,,,,,,,,,5,,,33,0
874560,set_tempo,440,1,0,,,,,,400000,,,,,,,
874560,control_change,7775,0,3,,,,,,,64,0,3,,,,
874560,control_change,170,0,5,,,,,,,64,0,5,,,,
874560,control_change,2905,0,4,,,,,,,64,0,4,,,,
874560,note_on,0,0,2,,,,,,,,,2,,,69,38
874560,control_change,575,0,2,,,,,,,64,0,2,,,,
874560,control_change,575,0,1,,,,,,,64,0,1,,,,
874680,note_on,120,0,3,,,,,,,,,3,,,81,38
874740,note_off,180,0,2,,,,,,,,,2,,,69,0
874775,note_off,95,0,3,,,,,,,,,3,,,81,0
874800,note_on,60,0,2,,,,,,,,,2,,,69,38
874920,note_on,145,0,3,,,,,,,,,3,,,81,39
874980,note_off,180,0,2,,,,,,,,,2,,,69,0
875015,note_off,95,0,3,,,,,,,,,3,,,81,0
875040,note_on,60,0,2,,,,,,,,,2,,,69,39
875160,note_on,145,0,3,,,,,,,,,3,,,81,39
875220,note_off,180,0,2,,,,,,,,,2,,,69,0
875255,note_off,95,0,3,,,,,,,,,3,,,81,0
875280,note_on,60,0,2,,,,,,,,,2,,,69,39
875400,note_on,145,0,3,,,,,,,,,3,,,81,39
875460,note_off,180,0,2,,,,,,,,,2,,,69,0
875480,set_tempo,920,1,0,,,,,,402684,,,,,,,
875495,note_off,95,0,3,,,,,,,,,3,,,81,0
875520,note_on,960,0,5,,,,,,,,,5,,,57,38
875520,note_on,0,0,5,,,,,,,,,5,,,54,38
875520,set_tempo,40,1,0,,,,,,400000,,,,,,,
875520,note_on,60,0,2,,,,,,,,,2,,,69,39
875640,note_on,145,0,3,,,,,,,,,3,,,81,40
875700,note_off,180,0,2,,,,,,,,,2,,,69,0
875735,note_off,95,0,3,,,,,,,,,3,,,81,0
875760,note_on,60,0,2,,,,,,,,,2,,,69,40
875880,note_on,145,0,3,,,,,,,,,3,,,81,40
875940,note_off,180,0,2,,,,,,,,,2,,,69,0
875975,note_off,95,0,3,,,,,,,,,3,,,81,0
876000,note_on,60,0,2,,,,,,,,,2,,,69,40
876120,note_on,145,0,3,,,,,,,,,3,,,81,40
876180,note_off,180,0,2,,,,,,,,,2,,,69,0
876215,note_off,95,0,3,,,,,,,,,3,,,81,0
876240,note_on,60,0,2,,,,,,,,,2,,,69,41
876290,note_off,0,0,5,,,,,,,,,5,,,57,0
876290,note_off,770,0,5,,,,,,,,,5,,,54,0
876360,note_on,145,0,3,,,,,,,,,3,,,81,41
876420,note_off,180,0,2,,,,,,,,,2,,,69,0
876455,note_off,95,0,3,,,,,,,,,3,,,81,0
876480,note_on,190,0,5,,,,,,,,,5,,,62,44
876480,note_on,0,0,5,,,,,,,,,5,,,57,44
876480,note_on,60,0,2,,,,,,,,,2,,,69,41
876600,note_on,145,0,3,,,,,,,,,3,,,81,41
876660,note_off,180,0,2,,,,,,,,,2,,,69,0
876695,note_off,95,0,3,,,,,,,,,3,,,81,0
876720,note_on,60,0,2,,,,,,,,,2,,,69,41
876840,note_on,145,0,3,,,,,,,,,3,,,81,41
876865,note_off,385,0,5,,,,,,,,,5,,,57,0
876865,note_off,0,0,5,,,,,,,,,5,,,62,0
876900,note_off,180,0,2,,,,,,,,,2,,,69,0
876935,note_off,95,0,3,,,,,,,,,3,,,81,0
876960,note_on,95,0,5,,,,,,,,,5,,,62,46
876960,note_on,60,0,2,,,,,,,,,2,,,69,42
876960,note_on,0,0,5,,,,,,,,,5,,,66,46
877080,note_on,145,0,3,,,,,,,,,3,,,81,42
877140,note_off,180,0,2,,,,,,,,,2,,,69,0
877175,note_off,95,0,3,,,,,,,,,3,,,81,0
877200,note_on,60,0,2,,,,,,,,,2,,,69,42
877320,note_on,145,0,3,,,,,,,,,3,,,81,42
877345,note_off,385,0,5,,,,,,,,,5,,,66,0
877345,note_off,0,0,5,,,,,,,,,5,,,62,0
877380,note_off,180,0,2,,,,,,,,,2,,,69,0
877400,set_tempo,1880,1,0,,,,,,402684,,,,,,,
877415,note_off,95,0,3,,,,,,,,,3,,,81,0
877440,note_on,0,0,5,,,,,,,,,5,,,64,49
877440,note_on,95,0,5,,,,,,,,,5,,,61,49
877440,note_on,60,0,2,,,,,,,,,2,,,69,42
877440,set_tempo,40,1,0,,,,,,400000,,,,,,,
877560,note_on,145,0,3,,,,,,,,,3,,,81,43
877620,note_off,180,0,2,,,,,,,,,2,,,69,0
877655,note_off,95,0,3,,,,,,,,,3,,,81,0
877680,note_on,60,0,2,,,,,,,,,2,,,69,43
877800,note_on,145,0,3,,,,,,,,,3,,,81,43
877860,note_off,180,0,2,,,,,,,,,2,,,69,0
877895,note_off,95,0,3,,,,,,,,,3,,,81,0
877920,note_on,60,0,2,,,,,,,,,2,,,69,43
878040,note_on,145,0,3,,,,,,,,,3,,,81,43
878100,note_off,180,0,2,,,,,,,,,2,,,69,0
878135,note_off,95,0,3,,,,,,,,,3,,,81,0
878160,note_off,720,0,5,,,,,,,,,5,,,64,0
878160,note_off,0,0,5,,,,,,,,,5,,,61,0
878160,note_on,60,0,2,,,,,,,,,2,,,69,43
878160,note_on,0,0,5,,,,,,,,,5,,,66,53
878160,note_on,0,0,5,,,,,,,,,5,,,62,53
878280,note_on,145,0,3,,,,,,,,,3,,,81,44
878340,note_off,180,0,2,,,,,,,,,2,,,69,0
878350,note_off,0,0,5,,,,,,,,,5,,,66,0
878350,note_off,190,0,5,,,,,,,,,5,,,62,0
878375,note_off,95,0,3,,,,,,,,,3,,,81,0
878400,note_on,0,0,5,,,,,,,,,5,,,67,54
878400,note_on,60,0,2,,,,,,,,,2,,,69,44
878400,note_on,50,0,5,,,,,,,,,5,,,64,54
878520,note_on,145,0,3,,,,,,,,,3,,,81,44
878580,note_off,180,0,2,,,,,,,,,2,,,69,0
878615,note_off,95,0,3,,,,,,,,,3,,,81,0
878640,note_on,60,0,2,,,,,,,,,2,,,69,44
878710,note_off,310,0,5,,,,,,,,,5,,,67,0
878710,note_off,0,0,5,,,,,,,,,5,,,64,0
878760,note_on,145,0,3,,,,,,,,,3,,,81,44
878820,note_off,180,0,2,,,,,,,,,2,,,69,0
878855,note_off,95,0,3,,,,,,,,,3,,,81,0
878880,note_on,60,0,2,,,,,,,,,2,,,69,45
878880,note_on,0,0,5,,,,,,,,,5,,,67,57
878880,note_on,170,0,5,,,,,,,,,5,,,64,57
879000,note_on,145,0,3,,,,,,,,,3,,,81,45
879060,note_off,180,0,2,,,,,,,,,2,,,69,0
879095,note_off,95,0,3,,,,,,,,,3,,,81,0
879120,note_on,60,0,2,,,,,,,,,2,,,69,45
879190,note_off,310,0,5,,,,,,,,,5,,,67,0
879190,note_off,0,0,5,,,,,,,,,5,,,64,0
879240,note_on,145,0,3,,,,,,,,,3,,,81,46
879300,note_off,180,0,2,,,,,,,,,2,,,69,0
879320,set_tempo,1880,1,0,,,,,,402684,,,,,,,
879335,note_off,95,0,3,,,,,,,,,3,,,81,0
879360,note_on,0,0,5,,,,,,,,,5,,,66,60
879360,note_on,170,0,5,,,,,,,,,5,,,62,60
879360,note_on,60,0,2,,,,,,,,,2,,,69,47
879360,set_tempo,40,1,0,,,,,,400000,,,,,,,
879480,note_on,145,0,3,,,,,,,,,3,,,81,48
879540,note_off,180,0,2,,,,,,,,,2,,,69,0
879575,note_off,95,0,3,,,,,,,,,3,,,81,0
879600,note_on,60,0,2,,,,,,,,,2,,,69,49
879720,note_on,145,0,3,,,,,,,,,3,,,81,51
879780,note_off,180,0,2,,,,,,,,,2,,,69,0
879815,note_off,95,0,3,,,,,,,,,3,,,81,0
879840,note_on,60,0,2,,,,,,,,,2,,,70,52
879960,note_on,145,0,3,,,,,,,,,3,,,82,53
880020,note_off,180,0,2,,,,,,,,,2,,,70,0
880055,note_off,95,0,3,,,,,,,,,3,,,82,0
880080,note_on,60,0,2,,,,,,,,,2,,,70,54
880130,note_off,770,0,5,,,,,,,,,5,,,66,0
880130,note_off,0,0,5,,,,,,,,,5,,,62,0
880200,note_on,145,0,3,,,,,,,,,3,,,82,55
880260,note_off,180,0,2,,,,,,,,,2,,,70,0
880295,note_off,95,0,3,,,,,,,,,3,,,82,0
880320,note_on,60,0,2,,,,,,,,,2,,,71,57
880320,note_on,0,0,5,,,,,,,,,5,,,67,65
880320,note_on,190,0,5,,,,,,,,,5,,,55,65
880440,note_on,145,0,3,,,,,,,,,3,,,83,58
880500,note_off,180,0,2,,,,,,,,,2,,,71,0
880535,note_off,95,0,3,,,,,,,,,3,,,83,0
880560,note_on,60,0,2,,,,,,,,,2,,,71,59
880680,note_on,145,0,3,,,,,,,,,3,,,83,60
880740,note_off,180,0,2,,,,,,,,,2,,,71,0
880775,note_off,95,0,3,,,,,,,,,3,,,83,0
880800,note_on,60,0,2,,,,,,,,,2,,,76,61
880920,note_on,145,0,3,,,,,,,,,3,,,88,63
880980,note_off,180,0,2,,,,,,,,,2,,,76,0
881015,note_off,95,0,3,,,,,,,,,3,,,88,0
881040,note_on,60,0,2,,,,,,,,,2,,,76,64
881090,note_off,0,0,5,,,,,,,,,5,,,55,0
881090,note_off,770,0,5,,,,,,,,,5,,,67,0
881160,note_on,145,0,3,,,,,,,,,3,,,88,65
881220,note_off,180,0,2,,,,,,,,,2,,,76,0
881240,set_tempo,1880,1,0,,,,,,402684,,,,,,,
881255,note_off,95,0,3,,,,,,,,,3,,,88,0
881280,note_on,25,0,3,,,,,,,,,3,,,86,66
881280,note_on,60,0,2,,,,,,,,,2,,,74,66
881280,note_on,190,0,5,,,,,,,,,5,,,57,71
881280,note_on,0,0,5,,,,,,,,,5,,,66,71
881760,note_on,0,0,3,,,,,,,,,3,,,85,55
881760,note_off,480,0,5,,,,,,,,,5,,,66,0
881760,note_off,480,0,2,,,,,,,,,2,,,74,0
881760,set_tempo,520,1,0,,,,,,413793,,,,,,,
881760,note_on,0,0,5,,,,,,,,,5,,,64,59
881760,note_off,480,0,3,,,,,,,,,3,,,86,0
881760,note_on,0,0,2,,,,,,,,,2,,,73,55
882145,note_off,385,0,5,,,,,,,,,5,,,64,0
882145,note_off,385,0,3,,,,,,,,,3,,,85,0
882145,note_off,385,0,2,,,,,,,,,2,,,73,0
882155,note_off,10,0,5,,,,,,,,,5,,,57,0
882240,note_on,85,0,5,,,,,,,,,5,,,57,64
882240,set_tempo,480,1,0,,,,,,400000,,,,,,,
882360,note_on,7800,0,4,,,,,,,,,4,,,69,65
882420,note_off,180,0,5,,,,,,,,,5,,,57,0
882455,note_off,95,0,4,,,,,,,,,4,,,69,0
882480,note_on,60,0,5,,,,,,,,,5,,,57,65
882600,note_on,145,0,4,,,,,,,,,4,,,69,66
882660,note_off,180,0,5,,,,,,,,,5,,,57,0
882695,note_off,95,0,4,,,,,,,,,4,,,69,0
882720,note_on,60,0,5,,,,,,,,,5,,,55,66
882720,note_on,575,0,2,,,,,,,,,2,,,73,66
882720,note_on,8160,0,1,,,,,,,,,1,,,76,66
882840,note_on,145,0,4,,,,,,,,,4,,,67,66
882900,note_off,180,0,5,,,,,,,,,5,,,55,0
882935,note_off,95,0,4,,,,,,,,,4,,,67,0
882960,note_on,60,0,5,,,,,,,,,5,,,55,67
883080,note_on,145,0,4,,,,,,,,,4,,,67,67
883105,note_off,385,0,1,,,,,,,,,1,,,76,0
883105,note_off,385,0,2,,,,,,,,,2,,,73,0
883140,note_off,180,0,5,,,,,,,,,5,,,55,0
883160,set_tempo,920,1,0,,,,,,402684,,,,,,,
883175,note_off,95,0,4,,,,,,,,,4,,,67,0
883200,note_on,95,0,2,,,,,,,,,2,,,69,68
883200,note_on,60,0,5,,,,,,,,,5,,,54,68
883200,set_tempo,40,1,0,,,,,,400000,,,,,,,
883320,note_on,145,0,4,,,,,,,,,4,,,66,68
883380,note_off,180,0,5,,,,,,,,,5,,,54,0
883415,note_off,95,0,4,,,,,,,,,4,,,66,0
883440,note_on,335,0,1,,,,,,,,,1,,,81,69
883440,note_on,60,0,5,,,,,,,,,5,,,54,69
883560,note_on,145,0,4,,,,,,,,,4,,,66,69
883620,note_off,180,0,5,,,,,,,,,5,,,54,0
883655,note_off,95,0,4,,,,,,,,,4,,,66,0
883680,note_on,60,0,5,,,,,,,,,5,,,52,69
883680,note_off,480,0,2,,,,,,,,,2,,,69,0
883680,note_on,0,0,2,,,,,,,,,2,,,73,69
883800,note_on,145,0,4,,,,,,,,,4,,,64,70
883860,note_off,180,0,5,,,,,,,,,5,,,52,0
883895,note_off,95,0,4,,,,,,,,,4,,,64,0
883920,note_off,480,0,1,,,,,,,,,1,,,81,0
883920,note_on,0,0,1,,,,,,,,,1,,,79,70
883920,note_on,60,0,5,,,,,,,,,5,,,52,70
884040,note_on,145,0,4,,,,,,,,,4,,,64,71
884100,note_off,180,0,5,,,,,,,,,5,,,52,0
884135,note_off,95,0,4,,,,,,,,,4,,,64,0
884160,note_on,0,0,2,,,,,,,,,2,,,74,71
884160,note_on,60,0,5,,,,,,,,,5,,,50,71
884160,note_off,480,0,2,,,,,,,,,2,,,73,0
884280,note_on,145,0,4,,,,,,,,,4,,,62,71
884340,note_off,180,0,5,,,,,,,,,5,,,50,0
884375,note_off,95,0,4,,,,,,,,,4,,,62,0
884400,note_on,60,0,5,,,,,,,,,5,,,50,72
884400,note_on,0,0,1,,,,,,,,,1,,,78,72
884400,note_off,480,0,1,,,,,,,,,1,,,79,0
884520,note_on,145,0,4,,,,,,,,,4,,,62,72
884580,note_off,180,0,5,,,,,,,,,5,,,50,0
884615,note_off,95,0,4,,,,,,,,,4,,,62,0
884640,note_on,60,0,5,,,,,,,,,5,,,49,73
884640,note_on,0,0,2,,,,,,,,,2,,,70,73
884640,note_off,480,0,2,,,,,,,,,2,,,74,0
884760,note_on,145,0,4,,,,,,,,,4,,,61,73
884820,note_off,180,0,5,,,,,,,,,5,,,49,0
884855,note_off,95,0,4,,,,,,,,,4,,,61,0
884880,note_on,60,0,5,,,,,,,,,5,,,49,73
884880,note_on,0,0,1,,,,,,,,,1,,,76,73
884880,note_off,480,0,1,,,,,,,,,1,,,78,0
885000,note_on,145,0,4,,,,,,,,,4,,,61,74
885060,note_off,180,0,5,,,,,,,,,5,,,49,0
885080,set_tempo,1880,1,0,,,,,,402684,,,,,,,
885095,note_off,95,0,4,,,,,,,,,4,,,61,0
885120,note_on,0,0,2,,,,,,,,,2,,,71,74
885120,note_off,480,0,2,,,,,,,,,2,,,70,0
885120,note_on,60,0,5,,,,,,,,,5,,,47,74
885120,set_tempo,40,1,0,,,,,,400000,,,,,,,
885240,note_on,145,0,4,,,,,,,,,4,,,59,75
885300,note_off,180,0,5,,,,,,,,,5,,,47,0
885335,note_off,95,0,4,,,,,,,,,4,,,59,0
885360,note_on,60,0,5,,,,,,,,,5,,,47,75
885360,note_on,0,0,1,,,,,,,,,1,,,74,75
885360,note_off,480,0,1,,,,,,,,,1,,,76,0
885480,note_on,145,0,4,,,,,,,,,4,,,59,75
885540,note_off,180,0,5,,,,,,,,,5,,,47,0
885575,note_off,95,0,4,,,,,,,,,4,,,59,0
885600,note_on,0,0,2,,,,,,,,,2,,,72,76
885600,note_on,60,0,5,,,,,,,,,5,,,45,76
885600,note_off,480,0,2,,,,,,,,,2,,,71,0
885720,note_on,145,0,4,,,,,,,,,4,,,57,76
885780,note_off,180,0,5,,,,,,,,,5,,,45,0
885815,note_off,95,0,4,,,,,,,,,4,,,57,0
885840,note_off,480,0,1,,,,,,,,,1,,,74,0
885840,note_on,0,0,1,,,,,,,,,1,,,75,77
885840,note_on,60,0,5,,,,,,,,,5,,,45,77
885960,note_on,145,0,4,,,,,,,,,4,,,57,77
886020,note_off,180,0,5,,,,,,,,,5,,,45,0
886055,note_off,95,0,4,,,,,,,,,4,,,57,0
886080,note_on,0,0,2,,,,,,,,,2,,,71,78
886080,note_on,60,0,5,,,,,,,,,5,,,44,78
886080,note_off,480,0,2,,,,,,,,,2,,,72,0
886200,note_on,145,0,4,,,,,,,,,4,,,56,78
886260,note_off,180,0,5,,,,,,,,,5,,,44,0
886295,note_off,95,0,4,,,,,,,,,4,,,56,0
886320,note_on,60,0,5,,,,,,,,,5,,,44,78
886320,note_on,0,0,1,,,,,,,,,1,,,76,78
886320,note_off,480,0,1,,,,,,,,,1,,,75,0
886440,note_on,145,0,4,,,,,,,,,4,,,56,79
886500,note_off,180,0,5,,,,,,,,,5,,,44,0
886535,note_off,95,0,4,,,,,,,,,4,,,56,0
886560,note_off,480,0,2,,,,,,,,,2,,,71,0
886560,note_on,60,0,5,,,,,,,,,5,,,40,79
886560,note_on,0,0,2,,,,,,,,,2,,,68,79
886680,note_on,145,0,4,,,,,,,,,4,,,52,80
886740,note_off,180,0,5,,,,,,,,,5,,,40,0
886775,note_off,95,0,4,,,,,,,,,4,,,52,0
886800,note_on,60,0,5,,,,,,,,,5,,,40,80
886800,note_on,0,0,1,,,,,,,,,1,,,74,80
886800,note_off,480,0,1,,,,,,,,,1,,,76,0
886920,note_on,145,0,4,,,,,,,,,4,,,52,80
886980,note_off,180,0,5,,,,,,,,,5,,,40,0
887000,note_off,200,0,1,,,,,,,,,1,,,74,0
887000,set_tempo,1880,1,0,,,,,,402684,,,,,,,
887000,note_off,440,0,2,,,,,,,,,2,,,68,0
887015,note_off,95,0,4,,,,,,,,,4,,,52,0
887040,set_tempo,40,1,0,,,,,,400000,,,,,,,
887040,note_on,40,0,1,,,,,,,,,1,,,61,81
887040,note_on,60,0,5,,,,,,,,,5,,,57,81
887160,note_on,160,0,2,,,,,,,,,2,,,73,80
887220,note_off,180,0,1,,,,,,,,,1,,,61,0
887255,note_off,95,0,2,,,,,,,,,2,,,73,0
887280,note_on,60,0,1,,,,,,,,,1,,,61,79
887350,note_off,310,0,5,,,,,,,,,5,,,57,0
887400,note_on,145,0,2,,,,,,,,,2,,,73,79
887460,note_off,180,0,1,,,,,,,,,1,,,61,0
887495,note_off,95,0,2,,,,,,,,,2,,,73,0
887520,note_on,60,0,1,,,,,,,,,1,,,64,78
887520,note_on,170,0,5,,,,,,,,,5,,,49,78
887640,note_on,145,0,2,,,,,,,,,2,,,76,77
887700,note_off,180,0,1,,,,,,,,,1,,,64,0
887735,note_off,95,0,2,,,,,,,,,2,,,76,0
887760,note_on,60,0,1,,,,,,,,,1,,,64,76
887830,note_off,310,0,5,,,,,,,,,5,,,49,0
887880,note_on,145,0,2,,,,,,,,,2,,,76,75
887940,note_off,180,0,1,,,,,,,,,1,,,64,0
887975,note_off,95,0,2,,,,,,,,,2,,,76,0
888000,note_on,60,0,1,,,,,,,,,1,,,56,75
888000,note_on,170,0,5,,,,,,,,,5,,,52,75
888120,note_on,145,0,2,,,,,,,,,2,,,68,74
888180,note_off,180,0,1,,,,,,,,,1,,,56,0
888215,note_off,95,0,2,,,,,,,,,2,,,68,0
888240,note_on,60,0,1,,,,,,,,,1,,,56,73
888310,note_off,310,0,5,,,,,,,,,5,,,52,0
888360,note_on,145,0,2,,,,,,,,,2,,,68,72
888420,note_off,180,0,1,,,,,,,,,1,,,56,0
888455,note_off,95,0,2,,,,,,,,,2,,,68,0
888480,note_on,170,0,5,,,,,,,,,5,,,40,71
888480,note_on,60,0,1,,,,,,,,,1,,,59,71
888600,note_on,145,0,2,,,,,,,,,2,,,71,71
888660,note_off,180,0,1,,,,,,,,,1,,,59,0
888695,note_off,95,0,2,,,,,,,,,2,,,71,0
888720,note_on,60,0,1,,,,,,,,,1,,,59,70
888790,note_off,310,0,5,,,,,,,,,5,,,40,0
888840,note_on,145,0,2,,,,,,,,,2,,,71,69
888900,note_off,180,0,1,,,,,,,,,1,,,59,0
888920,set_tempo,1880,1,0,,,,,,402684,,,,,,,
888935,note_off,95,0,2,,,,,,,,,2,,,71,0
888960,note_on,25,0,2,,,,,,,,,2,,,69,68
888960,note_on,60,0,1,,,,,,,,,1,,,57,68
888960,note_on,170,0,5,,,,,,,,,5,,,45,68
889270,note_off,310,0,5,,,,,,,,,5,,,45,0
889345,note_off,385,0,2,,,,,,,,,2,,,69,0
889345,note_off,385,0,1,,,,,,,,,1,,,57,0
889440,note_on,170,0,5,,,,,,,,,5,,,33,65
889480,set_tempo,560,1,0,,,,,,413793,,,,,,,
889750,note_off,310,0,5,,,,,,,,,5,,,33,0
889920,control_change,7775,0,3,,,,,,,64,0,3,,,,
889920,control_change,575,0,1,,,,,,,64,0,1,,,,
889920,set_tempo,440,1,0,,,,,,400000,,,,,,,
889920,note_on,0,0,5,,,,,,,,,5,,,66,49
889920,control_change,575,0,2,,,,,,,64,0,2,,,,
889920,control_change,170,0,5,,,,,,,64,0,5,,,,
889920,control_change,2905,0,4,,,,,,,64,0,4,,,,
890040,note_on,120,0,4,,,,,,,,,4,,,78,48
890100,note_off,180,0,5,,,,,,,,,5,,,66,0
890135,note_off,95,0,4,,,,,,,,,4,,,78,0
890160,note_on,60,0,5,,,,,,,,,5,,,66,48
890280,note_on,145,0,4,,,,,,,,,4,,,78,48
890340,note_off,180,0,5,,,,,,,,,5,,,66,0
890375,note_off,95,0,4,,,,,,,,,4,,,78,0
890400,note_on,60,0,5,,,,,,,,,5,,,64,48
890400,note_on,480,0,2,,,,,,,,,2,,,78,48
890400,note_on,480,0,1,,,,,,,,,1,,,81,48
890520,note_on,145,0,4,,,,,,,,,4,,,76,47
890580,note_off,180,0,5,,,,,,,,,5,,,64,0
890615,note_off,95,0,4,,,,,,,,,4,,,76,0
890640,note_on,60,0,5,,,,,,,,,5,,,64,47
890760,note_on,145,0,4,,,,,,,,,4,,,76,47
890785,note_off,385,0,2,,,,,,,,,2,,,78,0
890785,note_off,385,0,1,,,,,,,,,1,,,81,0
890820,note_off,180,0,5,,,,,,,,,5,,,64,0
890840,set_tempo,920,1,0,,,,,,402684,,,,,,,
890855,note_off,95,0,4,,,,,,,,,4,,,76,0
890880,note_on,60,0,5,,,,,,,,,5,,,63,46
890880,note_on,95,0,1,,,,,,,,,1,,,84,53
890880,set_tempo,40,1,0,,,,,,400000,,,,,,,
890880,note_on,95,0,2,,,,,,,,,2,,,81,53
891000,note_on,145,0,4,,,,,,,,,4,,,75,46
891052,note_off,172,0,5,,,,,,,,,5,,,63,0
891095,note_off,95,0,4,,,,,,,,,4,,,75,0
891120,note_on,68,0,5,,,,,,,,,5,,,63,46
891240,note_on,145,0,4,,,,,,,,,4,,,75,45
891322,note_off,202,0,5,,,,,,,,,5,,,63,0
891335,note_off,95,0,4,,,,,,,,,4,,,75,0
891360,note_on,38,0,5,,,,,,,,,5,,,64,45
891360,note_off,480,0,1,,,,,,,,,1,,,84,0
891360,note_on,0,0,1,,,,,,,,,1,,,83,50
891360,note_on,0,0,2,,,,,,,,,2,,,80,50
891360,note_off,480,0,2,,,,,,,,,2,,,81,0
891480,note_on,145,0,4,,,,,,,,,4,,,76,45
891540,note_off,180,0,5,,,,,,,,,5,,,64,0
891575,note_off,95,0,4,,,,,,,,,4,,,76,0
891600,note_on,60,0,5,,,,,,,,,5,,,64,44
891720,note_on,145,0,4,,,,,,,,,4,,,76,44
891780,note_off,180,0,5,,,,,,,,,5,,,64,0
891815,note_off,95,0,4,,,,,,,,,4,,,76,0
891840,note_on,0,0,2,,,,,,,,,2,,,79,48
891840,note_on,0,0,1,,,,,,,,,1,,,82,48
891840,note_off,480,0,1,,,,,,,,,1,,,83,0
891840,note_on,60,0,5,,,,,,,,,5,,,61,44
891840,note_off,480,0,2,,,,,,,,,2,,,80,0
891960,note_on,145,0,4,,,,,,,,,4,,,73,43
892020,note_off,180,0,5,,,,,,,,,5,,,61,0
892055,note_off,95,0,4,,,,,,,,,4,,,73,0
892080,note_on,60,0,5,,,,,,,,,5,,,61,43
892200,note_on,145,0,4,,,,,,,,,4,,,73,43
892260,note_off,180,0,5,,,,,,,,,5,,,61,0
892295,note_off,95,0,4,,,,,,,,,4,,,73,0
892320,note_off,480,0,2,,,,,,,,,2,,,79,0
892320,note_on,60,0,5,,,,,,,,,5,,,62,43
892320,note_on,0,0,1,,,,,,,,,1,,,81,45
892320,note_off,480,0,1,,,,,,,,,1,,,82,0
892320,note_on,0,0,2,,,,,,,,,2,,,78,45
892440,note_on,145,0,4,,,,,,,,,4,,,74,42
892500,note_off,180,0,5,,,,,,,,,5,,,62,0
892535,note_off,95,0,4,,,,,,,,,4,,,74,0
892560,note_on,60,0,5,,,,,,,,,5,,,62,42
892680,note_on,145,0,4,,,,,,,,,4,,,74,42
892740,note_off,180,0,5,,,,,,,,,5,,,62,0
892740,set_tempo,1860,1,0,,,,,,402684,,,,,,,
892760,note_off,440,0,2,,,,,,,,,2,,,78,0
892770,note_off,450,0,1,,,,,,,,,1,,,81,0
892775,note_off,95,0,4,,,,,,,,,4,,,74,0
892800,note_on,30,0,1,,,,,,,,,1,,,74,77
892800,note_on,60,0,5,,,,,,,,,5,,,56,77
892800,set_tempo,60,1,0,,,,,,400000,,,,,,,
892920,note_on,145,0,4,,,,,,,,,4,,,68,77
892920,note_on,160,0,2,,,,,,,,,2,,,86,77
892980,note_off,180,0,5,,,,,,,,,5,,,56,0
892980,note_off,180,0,1,,,,,,,,,1,,,74,0
893015,note_off,95,0,2,,,,,,,,,2,,,86,0
893015,note_off,95,0,4,,,,,,,,,4,,,68,0
893040,note_on,60,0,1,,,,,,,,,1,,,73,76
893040,note_on,60,0,5,,,,,,,,,5,,,57,76
893160,note_on,145,0,4,,,,,,,,,4,,,69,75
893160,note_on,145,0,2,,,,,,,,,2,,,85,75
893220,note_off,180,0,1,,,,,,,,,1,,,73,0
893220,note_off,180,0,5,,,,,,,,,5,,,57,0
893255,note_off,95,0,2,,,,,,,,,2,,,85,0
893255,note_off,95,0,4,,,,,,,,,4,,,69,0
893280,note_on,60,0,5,,,,,,,,,5,,,54,75
893280,note_on,60,0,1,,,,,,,,,1,,,72,75
893400,note_on,145,0,2,,,,,,,,,2,,,84,74
893400,note_on,145,0,4,,,,,,,,,4,,,66,74
893460,note_off,180,0,5,,,,,,,,,5,,,54,0
893467,note_off,187,0,1,,,,,,,,,1,,,72,0
893495,note_off,95,0,4,,,,,,,,,4,,,66,0
893495,note_off,95,0,2,,,,,,,,,2,,,84,0
893520,note_on,60,0,5,,,,,,,,,5,,,55,74
893520,note_on,53,0,1,,,,,,,,,1,,,71,74
893640,note_on,145,0,2,,,,,,,,,2,,,83,73
893640,note_on,145,0,4,,,,,,,,,4,,,67,73
893700,note_off,180,0,1,,,,,,,,,1,,,71,0
893715,note_off,195,0,5,,,,,,,,,5,,,55,0
893735,note_off,95,0,2,,,,,,,,,2,,,83,0
893735,note_off,95,0,4,,,,,,,,,4,,,67,0
893760,note_on,60,0,1,,,,,,,,,1,,,71,72
893760,note_on,45,0,5,,,,,,,,,5,,,53,72
893880,note_on,145,0,2,,,,,,,,,2,,,83,72
893880,note_on,145,0,4,,,,,,,,,4,,,65,72
893940,note_off,180,0,1,,,,,,,,,1,,,71,0
893947,note_off,187,0,5,,,,,,,,,5,,,53,0
893975,note_off,95,0,4,,,,,,,,,4,,,65,0
893975,note_off,95,0,2,,,,,,,,,2,,,83,0
894000,note_on,53,0,5,,,,,,,,,5,,,54,71
894000,note_on,60,0,1,,,,,,,,,1,,,70,71
894120,note_on,145,0,2,,,,,,,,,2,,,82,71
894120,note_on,145,0,4,,,,,,,,,4,,,66,71
894180,note_off,180,0,1,,,,,,,,,1,,,70,0
894195,note_off,195,0,5,,,,,,,,,5,,,54,0
894215,note_off,95,0,2,,,,,,,,,2,,,82,0
894215,note_off,95,0,4,,,,,,,,,4,,,66,0
894240,note_on,45,0,5,,,,,,,,,5,,,51,70
894240,note_on,60,0,1,,,,,,,,,1,,,69,70
894360,note_on,145,0,2,,,,,,,,,2,,,81,70
894360,note_on,145,0,4,,,,,,,,,4,,,63,70
894420,note_off,180,0,5,,,,,,,,,5,,,51,0
894420,note_off,180,0,1,,,,,,,,,1,,,69,0
894455,note_off,95,0,2,,,,,,,,,2,,,81,0
894455,note_off,95,0,4,,,,,,,,,4,,,63,0
894480,note_on,60,0,1,,,,,,,,,1,,,68,69
894480,note_on,60,0,5,,,,,,,,,5,,,52,69
894600,note_on,145,0,4,,,,,,,,,4,,,64,68
894600,note_on,145,0,2,,,,,,,,,2,,,80,68
894660,note_off,180,0,1,,,,,,,,,1,,,68,0
894675,note_off,195,0,5,,,,,,,,,5,,,52,0
894680,set_tempo,1880,1,0,,,,,,402684,,,,,,,
894695,note_off,95,0,2,,,,,,,,,2,,,80,0
894695,note_off,95,0,4,,,,,,,,,4,,,64,0
894720,note_on,25,0,4,,,,,,,,,4,,,61,68
894720,note_on,45,0,5,,,,,,,,,5,,,57,68
894720,set_tempo,40,1,0,,,,,,400000,,,,,,,
894720,note_on,60,0,1,,,,,,,,,1,,,67,68
894840,note_on,145,0,2,,,,,,,,,2,,,79,67
894900,note_off,180,0,1,,,,,,,,,1,,,67,0
894935,note_off,95,0,2,,,,,,,,,2,,,79,0
894960,note_on,60,0,1,,,,,,,,,1,,,67,67
895080,note_on,145,0,2,,,,,,,,,2,,,79,66
895140,note_off,180,0,1,,,,,,,,,1,,,67,0
895175,note_off,95,0,2,,,,,,,,,2,,,79,0
895200,note_off,480,0,4,,,,,,,,,4,,,61,0
895200,note_on,0,0,4,,,,,,,,,4,,,62,60
895200,note_on,0,0,5,,,,,,,,,5,,,59,60
895200,note_off,480,0,5,,,,,,,,,5,,,57,0
895200,note_on,60,0,1,,,,,,,,,1,,,66,65
895320,note_on,145,0,2,,,,,,,,,2,,,78,65
895380,note_off,180,0,1,,,,,,,,,1,,,66,0
895415,note_off,95,0,2,,,,,,,,,2,,,78,0
895440,note_on,60,0,1,,,,,,,,,1,,,66,64
895560,note_on,145,0,2,,,,,,,,,2,,,78,64
895585,note_off,385,0,4,,,,,,,,,4,,,62,0
895585,note_off,385,0,5,,,,,,,,,5,,,59,0
895620,note_off,180,0,1,,,,,,,,,1,,,66,0
895655,note_off,95,0,2,,,,,,,,,2,,,78,0
895680,note_on,60,0,1,,,,,,,,,1,,,64,63
895680,note_on,95,0,4,,,,,,,,,4,,,59,63
895680,note_on,95,0,5,,,,,,,,,5,,,55,63
895800,note_on,145,0,2,,,,,,,,,2,,,76,62
895860,note_off,180,0,1,,,,,,,,,1,,,64,0
895895,note_off,95,0,2,,,,,,,,,2,,,76,0
895920,note_on,60,0,1,,,,,,,,,1,,,64,62
896040,note_on,145,0,2,,,,,,,,,2,,,76,61
896100,note_off,180,0,1,,,,,,,,,1,,,64,0
896135,note_off,95,0,2,,,,,,,,,2,,,76,0
896160,note_on,0,0,5,,,,,,,,,5,,,56,57
896160,note_on,60,0,1,,,,,,,,,1,,,62,61
896160,note_off,480,0,5,,,,,,,,,5,,,55,0
896280,note_on,145,0,2,,,,,,,,,2,,,74,60
896340,note_off,180,0,1,,,,,,,,,1,,,62,0
896375,note_off,95,0,2,,,,,,,,,2,,,74,0
896400,note_on,60,0,1,,,,,,,,,1,,,62,59
896520,note_on,145,0,2,,,,,,,,,2,,,74,59
896525,note_off,845,0,4,,,,,,,,,4,,,59,0
896545,note_off,385,0,5,,,,,,,,,5,,,56,0
896580,note_off,180,0,1,,,,,,,,,1,,,62,0
896600,set_tempo,1880,1,0,,,,,,402684,,,,,,,
896615,note_off,95,0,2,,,,,,,,,2,,,74,0
896640,note_on,60,0,1,,,,,,,,,1,,,61,59
896640,set_tempo,40,1,0,,,,,,400000,,,,,,,
896640,note_on,95,0,5,,,,,,,,,5,,,57,56
896760,note_on,145,0,2,,,,,,,,,2,,,73,57
896820,note_off,180,0,1,,,,,,,,,1,,,61,0
896855,note_off,95,0,2,,,,,,,,,2,,,73,0
896880,note_on,60,0,1,,,,,,,,,1,,,62,56
897000,note_on,145,0,2,,,,,,,,,2,,,74,54
897025,note_off,385,0,5,,,,,,,,,5,,,57,0
897060,note_off,180,0,1,,,,,,,,,1,,,62,0
897095,note_off,95,0,2,,,,,,,,,2,,,74,0
897120,note_on,60,0,1,,,,,,,,,1,,,63,53
897240,note_on,145,0,2,,,,,,,,,2,,,75,51
897300,note_off,180,0,1,,,,,,,,,1,,,63,0
897335,note_off,95,0,2,,,,,,,,,2,,,75,0
897360,note_on,60,0,1,,,,,,,,,1,,,64,49
897480,note_on,145,0,2,,,,,,,,,2,,,76,47
897540,note_off,180,0,1,,,,,,,,,1,,,64,0
897575,note_off,95,0,2,,,,,,,,,2,,,76,0
897600,note_on,60,0,1,,,,,,,,,1,,,65,45
897720,note_on,145,0,2,,,,,,,,,2,,,77,43
897780,note_off,180,0,1,,,,,,,,,1,,,65,0
897815,note_off,95,0,2,,,,,,,,,2,,,77,0
897840,note_on,60,0,1,,,,,,,,,1,,,66,41
897960,note_on,145,0,2,,,,,,,,,2,,,78,39
898020,note_off,180,0,1,,,,,,,,,1,,,66,0
898055,note_off,95,0,2,,,,,,,,,2,,,78,0
898080,note_on,60,0,1,,,,,,,,,1,,,67,37
898200,note_on,145,0,2,,,,,,,,,2,,,79,35
898260,note_off,180,0,1,,,,,,,,,1,,,67,0
898295,note_off,95,0,2,,,,,,,,,2,,,79,0
898320,note_on,60,0,1,,,,,,,,,1,,,68,33
898440,note_on,145,0,2,,,,,,,,,2,,,80,31
898500,note_off,180,0,1,,,,,,,,,1,,,68,0
898520,set_tempo,1880,1,0,,,,,,402684,,,,,,,
898535,note_off,95,0,2,,,,,,,,,2,,,80,0
898560,set_tempo,40,1,0,,,,,,461538,,,,,,,
898560,note_on,60,0,1,,,,,,,,,1,,,69,29
898560,note_on,25,0,2,,,,,,,,,2,,,81,29
898945,note_off,385,0,2,,,,,,,,,2,,,81,0
898945,note_off,385,0,1,,,,,,,,,1,,,69,0
899520,note_on,2495,0,5,,,,,,,,,5,,,57,66
899520,set_tempo,960,1,0,,,,,,400000,,,,,,,
899640,note_on,3115,0,4,,,,,,,,,4,,,69,67
899700,note_off,180,0,5,,,,,,,,,5,,,57,0
899735,note_off,95,0,4,,,,,,,,,4,,,69,0
899760,note_on,60,0,5,,,,,,,,,5,,,57,67
899880,note_on,145,0,4,,,,,,,,,4,,,69,67
899940,note_off,180,0,5,,,,,,,,,5,,,57,0
899975,note_off,95,0,4,,,,,,,,,4,,,69,0
900000,note_on,1055,0,1,,,,,,,,,1,,,76,68
900000,note_on,60,0,5,,,,,,,,,5,,,55,68
900000,note_on,1055,0,2,,,,,,,,,2,,,73,68
900120,note_on,145,0,4,,,,,,,,,4,,,67,68
900180,note_off,180,0,5,,,,,,,,,5,,,55,0
900215,note_off,95,0,4,,,,,,,,,4,,,67,0
900240,note_on,60,0,5,,,,,,,,,5,,,55,69
900360,note_on,145,0,4,,,,,,,,,4,,,67,69
900385,note_off,385,0,1,,,,,,,,,1,,,76,0
900385,note_off,385,0,2,,,,,,,,,2,,,73,0
900420,note_off,180,0,5,,,,,,,,,5,,,55,0
900440,set_tempo,920,1,0,,,,,,402684,,,,,,,
900455,note_off,95,0,4,,,,,,,,,4,,,67,0
900480,set_tempo,40,1,0,,,,,,400000,,,,,,,
900480,note_on,60,0,5,,,,,,,,,5,,,54,69
900480,note_on,95,0,2,,,,,,,,,2,,,69,69
900600,note_on,145,0,4,,,,,,,,,4,,,66,70
900660,note_off,180,0,5,,,,,,,,,5,,,54,0
900695,note_off,95,0,4,,,,,,,,,4,,,66,0
900720,note_on,335,0,1,,,,,,,,,1,,,81,70
900720,note_on,60,0,5,,,,,,,,,5,,,54,70
900840,note_on,145,0,4,,,,,,,,,4,,,66,70
900900,note_off,180,0,5,,,,,,,,,5,,,54,0
900935,note_off,95,0,4,,,,,,,,,4,,,66,0
900960,note_off,480,0,2,,,,,,,,,2,,,69,0
900960,note_on,0,0,2,,,,,,,,,2,,,73,71
900960,note_on,60,0,5,,,,,,,,,5,,,52,71
901080,note_on,145,0,4,,,,,,,,,4,,,64,71
901140,note_off,180,0,5,,,,,,,,,5,,,52,0
901175,note_off,95,0,4,,,,,,,,,4,,,64,0
901200,note_on,0,0,1,,,,,,,,,1,,,79,71
901200,note_on,60,0,5,,,,,,,,,5,,,52,71
901200,note_off,480,0,1,,,,,,,,,1,,,81,0
901320,note_on,145,0,4,,,,,,,,,4,,,64,72
901380,note_off,180,0,5,,,,,,,,,5,,,52,0
901415,note_off,95,0,4,,,,,,,,,4,,,64,0
901440,note_off,480,0,2,,,,,,,,,2,,,73,0
901440,note_on,60,0,5,,,,,,,,,5,,,50,72
901440,note_on,0,0,2,,,,,,,,,2,,,74,72
901560,note_on,145,0,4,,,,,,,,,4,,,62,73
901620,note_off,180,0,5,,,,,,,,,5,,,50,0
901655,note_off,95,0,4,,,,,,,,,4,,,62,0
901680,note_on,60,0,5,,,,,,,,,5,,,50,73
901680,note_on,0,0,1,,,,,,,,,1,,,78,73
901680,note_off,480,0,1,,,,,,,,,1,,,79,0
901800,note_on,145,0,4,,,,,,,,,4,,,62,73
901860,note_off,180,0,5,,,,,,,,,5,,,50,0
901895,note_off,95,0,4,,,,,,,,,4,,,62,0
901920,note_off,480,0,2,,,,,,,,,2,,,74,0
901920,note_on,0,0,2,,,,,,,,,2,,,70,74
901920,note_on,60,0,5,,,,,,,,,5,,,49,74
902040,note_on,145,0,4,,,,,,,,,4,,,61,74
902100,note_off,180,0,5,,,,,,,,,5,,,49,0
902135,note_off,95,0,4,,,,,,,,,4,,,61,0
902160,note_on,0,0,1,,,,,,,,,1,,,76,74
902160,note_on,60,0,5,,,,,,,,,5,,,49,74
902160,note_off,480,0,1,,,,,,,,,1,,,78,0
902280,note_on,145,0,4,,,,,,,,,4,,,61,75
902340,note_off,180,0,5,,,,,,,,,5,,,49,0
902360,set_tempo,1880,1,0,,,,,,402684,,,,,,,
902375,note_off,95,0,4,,,,,,,,,4,,,61,0
902400,note_on,60,0,5,,,,,,,,,5,,,47,75
902400,note_off,240,0,1,,,,,,,,,1,,,76,0
902400,note_on,0,0,1,,,,,,,,,1,,,74,75
902400,note_off,480,0,2,,,,,,,,,2,,,70,0
902400,note_on,0,0,2,,,,,,,,,2,,,71,75
902400,set_tempo,40,1,0,,,,,,400000,,,,,,,
902520,note_on,145,0,4,,,,,,,,,4,,,59,75
902580,note_off,180,0,5,,,,,,,,,5,,,47,0
902615,note_off,95,0,4,,,,,,,,,4,,,59,0
902640,note_off,240,0,1,,,,,,,,,1,,,74,0
902640,note_on,0,0,1,,,,,,,,,1,,,86,76
902640,note_on,60,0,5,,,,,,,,,5,,,47,76
902760,note_on,145,0,4,,,,,,,,,4,,,59,76
902785,note_off,385,0,2,,,,,,,,,2,,,71,0
902820,note_off,180,0,5,,,,,,,,,5,,,47,0
902855,note_off,95,0,4,,,,,,,,,4,,,59,0
902880,note_on,60,0,5,,,,,,,,,5,,,45,77
902880,note_on,95,0,2,,,,,,,,,2,,,78,77
903000,note_on,145,0,4,,,,,,,,,4,,,57,77
903060,note_off,180,0,5,,,,,,,,,5,,,45,0
903095,note_off,95,0,4,,,,,,,,,4,,,57,0
903120,note_on,0,0,1,,,,,,,,,1,,,84,77
903120,note_on,60,0,5,,,,,,,,,5,,,45,77
903120,note_off,480,0,1,,,,,,,,,1,,,86,0
903240,note_on,145,0,4,,,,,,,,,4,,,57,78
903300,note_off,180,0,5,,,,,,,,,5,,,45,0
903335,note_off,95,0,4,,,,,,,,,4,,,57,0
903360,note_on,0,0,2,,,,,,,,,2,,,79,78
903360,note_on,60,0,5,,,,,,,,,5,,,43,78
903360,note_off,480,0,2,,,,,,,,,2,,,78,0
903480,note_on,145,0,4,,,,,,,,,4,,,55,78
903540,note_off,180,0,5,,,,,,,,,5,,,43,0
903575,note_off,95,0,4,,,,,,,,,4,,,55,0
903600,note_on,60,0,5,,,,,,,,,5,,,43,79
903600,note_off,480,0,1,,,,,,,,,1,,,84,0
903600,note_on,0,0,1,,,,,,,,,1,,,83,79
903720,note_on,145,0,4,,,,,,,,,4,,,55,79
903780,note_off,180,0,5,,,,,,,,,5,,,43,0
903815,note_off,95,0,4,,,,,,,,,4,,,55,0
903840,note_on,0,0,2,,,,,,,,,2,,,74,79
903840,note_off,480,0,2,,,,,,,,,2,,,79,0
903840,note_on,60,0,5,,,,,,,,,5,,,42,79
903960,note_on,145,0,4,,,,,,,,,4,,,54,80
904020,note_off,180,0,5,,,,,,,,,5,,,42,0
904055,note_off,95,0,4,,,,,,,,,4,,,54,0
904080,note_off,480,0,1,,,,,,,,,1,,,83,0
904080,note_on,60,0,5,,,,,,,,,5,,,42,80
904080,note_on,0,0,1,,,,,,,,,1,,,82,80
904200,note_on,145,0,4,,,,,,,,,4,,,54,83
904260,note_off,180,0,5,,,,,,,,,5,,,42,0
904280,set_tempo,1880,1,0,,,,,,402684,,,,,,,
904295,note_off,95,0,4,,,,,,,,,4,,,54,0
904320,note_on,0,0,5,,,,,,,,,5,,,55,83
904320,note_on,60,0,5,,,,,,,,,5,,,43,83
904320,note_on,0,0,1,,,,,,,,,1,,,71,83
904320,note_off,240,0,1,,,,,,,,,1,,,82,0
904320,set_tempo,40,1,0,,,,,,400000,,,,,,,
904320,note_off,480,0,2,,,,,,,,,2,,,74,0
904440,note_on,120,0,2,,,,,,,,,2,,,83,82
904500,note_off,180,0,1,,,,,,,,,1,,,71,0
904535,note_off,95,0,2,,,,,,,,,2,,,83,0
904560,note_on,60,0,1,,,,,,,,,1,,,71,81
904680,note_on,145,0,2,,,,,,,,,2,,,83,80
904705,note_off,0,0,5,,,,,,,,,5,,,43,0
904705,note_off,385,0,5,,,,,,,,,5,,,55,0
904740,note_off,180,0,1,,,,,,,,,1,,,71,0
904775,note_off,95,0,2,,,,,,,,,2,,,83,0
904800,note_on,60,0,1,,,,,,,,,1,,,64,79
904920,note_on,145,0,2,,,,,,,,,2,,,76,78
904980,note_off,180,0,1,,,,,,,,,1,,,64,0
905015,note_off,95,0,2,,,,,,,,,2,,,76,0
905040,note_on,60,0,1,,,,,,,,,1,,,64,77
905160,note_on,145,0,2,,,,,,,,,2,,,76,76
905220,note_off,180,0,1,,,,,,,,,1,,,64,0
905255,note_off,95,0,2,,,,,,,,,2,,,76,0
905280,note_on,0,0,5,,,,,,,,,5,,,57,76
905280,note_on,575,0,5,,,,,,,,,5,,,45,76
905280,note_on,60,0,1,,,,,,,,,1,,,67,76
905400,note_on,145,0,2,,,,,,,,,2,,,79,75
905460,note_off,180,0,1,,,,,,,,,1,,,67,0
905495,note_off,95,0,2,,,,,,,,,2,,,79,0
905520,note_on,60,0,1,,,,,,,,,1,,,67,74
905640,note_on,145,0,2,,,,,,,,,2,,,79,73
905665,note_off,0,0,5,,,,,,,,,5,,,45,0
905665,note_off,385,0,5,,,,,,,,,5,,,57,0
905700,note_off,180,0,1,,,,,,,,,1,,,67,0
905735,note_off,95,0,2,,,,,,,,,2,,,79,0
905760,note_on,60,0,1,,,,,,,,,1,,,61,72
905880,note_on,145,0,2,,,,,,,,,2,,,73,71
905940,note_off,180,0,1,,,,,,,,,1,,,61,0
905975,note_off,95,0,2,,,,,,,,,2,,,73,0
906000,note_on,60,0,1,,,,,,,,,1,,,61,70
906120,note_on,145,0,2,,,,,,,,,2,,,73,69
906180,note_off,180,0,1,,,,,,,,,1,,,61,0
906215,note_off,95,0,2,,,,,,,,,2,,,73,0
906240,note_on,25,0,2,,,,,,,,,2,,,74,69
906240,set_tempo,1920,1,0,,,,,,500000,,,,,,,
906240,note_on,575,0,5,,,,,,,,,5,,,50,69
906240,note_on,60,0,1,,,,,,,,,1,,,62,69
906600,note_off,360,0,5,,,,,,,,,5,,,50,0
906625,note_off,385,0,2,,,,,,,,,2,,,74,0
906625,note_off,385,0,1,,,,,,,,,1,,,62,0
906720,note_on,120,0,5,,,,,,,,,5,,,38,65
907030,note_off,310,0,5,,,,,,,,,5,,,38,0
907200,set_tempo,960,1,0,,,,,,1176470,,,,,,,
908160,set_tempo,960,1,0,,,,,,810810,,,,,,,
908160,note_on,0,0,1,,,,,,,,,1,,,81,42
908160,control_change,1535,0,1,,,,,,,64,0,1,,,,
908160,marker,0,1,0,,,,,,,,,,,,,
908640,note_on,0,0,1,,,,,,,,,1,,,79,44
908640,note_off,480,0,1,,,,,,,,,1,,,81,0
909120,note_off,480,0,1,,,,,,,,,1,,,79,0
909120,note_on,0,0,1,,,,,,,,,1,,,78,46
909600,note_off,480,0,1,,,,,,,,,1,,,78,0
909600,note_on,0,0,1,,,,,,,,,1,,,76,48
909970,set_tempo,1810,1,0,,,,,,845070,,,,,,,
910020,note_off,420,0,1,,,,,,,,,1,,,76,0
910080,control_change,3050,0,5,,,,,,,64,0,5,,,,
910080,set_tempo,110,1,0,,,,,,810810,,,,,,,
910080,note_on,60,0,1,,,,,,,,,1,,,76,51
910080,control_change,5785,0,4,,,,,,,64,0,4,,,,
910080,control_change,20160,0,3,,,,,,,64,0,3,,,,
910080,note_on,0,0,4,,,,,,,,,4,,,62,51
910140,control_change,60,0,3,,,,,,,64,127,3,,,,
910140,control_change,60,0,5,,,,,,,64,127,5,,,,
910140,control_change,60,0,4,,,,,,,64,127,4,,,,
910320,note_off,180,0,4,,,,,,,,,4,,,62,0
910320,note_on,180,0,3,,,,,,,,,3,,,66,49
910560,note_off,240,0,3,,,,,,,,,3,,,66,0
910560,note_on,0,0,3,,,,,,,,,3,,,69,48
910560,note_on,0,0,1,,,,,,,,,1,,,74,45
910560,note_off,480,0,1,,,,,,,,,1,,,76,0
910800,note_off,240,0,3,,,,,,,,,3,,,69,0
910800,note_on,0,0,3,,,,,,,,,3,,,66,47
910985,note_off,425,0,1,,,,,,,,,1,,,74,0
911040,note_off,0,0,3,,,,,,,,,3,,,66,0
911040,control_change,720,0,4,,,,,,,64,0,4,,,,
911040,control_change,900,0,5,,,,,,,64,0,5,,,,
911040,note_on,0,0,4,,,,,,,,,4,,,62,46
911040,note_on,55,0,1,,,,,,,,,1,,,74,46
911040,control_change,240,0,3,,,,,,,64,0,3,,,,
911100,control_change,60,0,4,,,,,,,64,127,4,,,,
911100,control_change,60,0,5,,,,,,,64,127,5,,,,
911100,control_change,60,0,3,,,,,,,64,127,3,,,,
911280,note_on,180,0,3,,,,,,,,,3,,,66,45
911280,note_off,180,0,4,,,,,,,,,4,,,62,0
911520,note_on,0,0,3,,,,,,,,,3,,,69,43
911520,note_off,240,0,3,,,,,,,,,3,,,66,0
911760,note_on,0,0,3,,,,,,,,,3,,,66,42
911760,note_off,240,0,3,,,,,,,,,3,,,69,0
911940,control_change,660,0,4,,,,,,,64,0,4,,,,
911940,control_change,180,0,3,,,,,,,64,0,3,,,,
911940,control_change,840,0,5,,,,,,,64,0,5,,,,
911960,set_tempo,1880,1,0,,,,,,821917,,,,,,,
912000,control_change,60,0,3,,,,,,,64,127,3,,,,
912000,note_off,0,0,3,,,,,,,,,3,,,66,0
912000,control_change,60,0,5,,,,,,,64,127,5,,,,
912000,note_on,0,0,4,,,,,,,,,4,,,59,41
912000,set_tempo,40,1,0,,,,,,810810,,,,,,,
912000,control_change,60,0,4,,,,,,,64,127,4,,,,
912240,note_on,240,0,3,,,,,,,,,3,,,62,40
912240,note_off,240,0,4,,,,,,,,,4,,,59,0
912450,note_off,210,0,3,,,,,,,,,3,,,62,0
912455,note_off,1415,0,1,,,,,,,,,1,,,74,0
912480,note_on,30,0,3,,,,,,,,,3,,,66,41
912480,note_on,25,0,1,,,,,,,,,1,,,74,41
912560,note_on,80,0,1,,,,,,,,,1,,,76,41
912590,note_off,30,0,1,,,,,,,,,1,,,74,0
912640,note_on,50,0,1,,,,,,,,,1,,,74,42
912660,note_off,20,0,1,,,,,,,,,1,,,76,0
912720,note_off,240,0,3,,,,,,,,,3,,,66,0
912720,note_on,0,0,3,,,,,,,,,3,,,62,43
912720,note_on,60,0,1,,,,,,,,,1,,,73,42
912735,note_off,15,0,1,,,,,,,,,1,,,74,0
912840,note_on,0,0,1,,,,,,,,,1,,,74,43
912840,note_off,105,0,1,,,,,,,,,1,,,73,0
912960,note_off,0,0,3,,,,,,,,,3,,,62,0
912960,note_off,120,0,1,,,,,,,,,1,,,74,0
912960,control_change,240,0,3,,,,,,,64,0,3,,,,
912960,control_change,960,0,5,,,,,,,64,0,5,,,,
912960,note_on,0,0,4,,,,,,,,,4,,,59,44
912960,control_change,720,0,4,,,,,,,64,0,4,,,,
912960,note_on,0,0,1,,,,,,,,,1,,,76,44
913020,control_change,60,0,4,,,,,,,64,127,4,,,,
913020,control_change,60,0,5,,,,,,,64,127,5,,,,
913020,control_change,60,0,3,,,,,,,64,127,3,,,,
913200,note_on,180,0,3,,,,,,,,,3,,,62,45
913200,note_off,180,0,4,,,,,,,,,4,,,59,0
913440,note_on,0,0,3,,,,,,,,,3,,,66,47
913440,note_off,240,0,3,,,,,,,,,3,,,62,0
913440,note_on,0,0,1,,,,,,,,,1,,,78,47
913440,note_off,480,0,1,,,,,,,,,1,,,76,0
913680,note_off,240,0,3,,,,,,,,,3,,,66,0
913680,note_on,0,0,3,,,,,,,,,3,,,62,48
913860,control_change,840,0,5,,,,,,,64,0,5,,,,
913860,control_change,180,0,3,,,,,,,64,0,3,,,,
913860,control_change,660,0,4,,,,,,,64,0,4,,,,
913880,set_tempo,1880,1,0,,,,,,821917,,,,,,,
913880,note_off,440,0,1,,,,,,,,,1,,,78,0
913895,note_off,35,0,3,,,,,,,,,3,,,62,0
913920,control_change,60,0,4,,,,,,,64,127,4,,,,
913920,control_change,60,0,5,,,,,,,64,127,5,,,,
913920,note_on,0,0,4,,,,,,,,,4,,,55,49
913920,set_tempo,40,1,0,,,,,,810810,,,,,,,
913920,note_on,40,0,1,,,,,,,,,1,,,76,49
913920,control_change,25,0,3,,,,,,,64,127,3,,,,
914160,note_off,240,0,4,,,,,,,,,4,,,55,0
914160,note_on,240,0,3,,,,,,,,,3,,,59,51
914360,note_off,440,0,1,,,,,,,,,1,,,76,0
914400,note_on,40,0,1,,,,,,,,,1,,,81,53
914400,note_on,0,0,3,,,,,,,,,3,,,64,53
914400,note_off,240,0,3,,,,,,,,,3,,,59,0
914640,note_on,240,0,1,,,,,,,,,1,,,79,58
914640,note_on,0,0,3,,,,,,,,,3,,,59,54
914640,note_off,240,0,3,,,,,,,,,3,,,64,0
914655,note_off,15,0,1,,,,,,,,,1,,,81,0
914880,note_on,0,0,4,,,,,,,,,4,,,55,52
914880,control_change,720,0,4,,,,,,,64,0,4,,,,
914880,note_off,0,0,3,,,,,,,,,3,,,59,0
914880,control_change,240,0,3,,,,,,,64,0,3,,,,
914880,control_change,960,0,5,,,,,,,64,0,5,,,,
914940,control_change,60,0,5,,,,,,,64,127,5,,,,
914940,control_change,60,0,4,,,,,,,64,127,4,,,,
914940,control_change,60,0,3,,,,,,,64,127,3,,,,
915120,note_off,180,0,4,,,,,,,,,4,,,55,0
915120,note_on,180,0,3,,,,,,,,,3,,,59,51
915360,note_off,240,0,3,,,,,,,,,3,,,59,0
915360,note_on,0,0,3,,,,,,,,,3,,,64,50
915360,note_off,705,0,1,,,,,,,,,1,,,79,0
915360,note_on,0,0,1,,,,,,,,,1,,,78,52
915600,note_off,240,0,3,,,,,,,,,3,,,64,0
915600,note_on,0,0,3,,,,,,,,,3,,,59,48
915720,note_on,360,0,1,,,,,,,,,1,,,76,50
915725,note_off,5,0,1,,,,,,,,,1,,,78,0
915780,control_change,180,0,3,,,,,,,64,0,3,,,,
915780,control_change,840,0,5,,,,,,,64,0,5,,,,
915780,control_change,660,0,4,,,,,,,64,0,4,,,,
915800,set_tempo,1880,1,0,,,,,,821917,,,,,,,
915815,note_off,35,0,3,,,,,,,,,3,,,59,0
915840,note_off,115,0,1,,,,,,,,,1,,,76,0
915840,note_on,0,0,1,,,,,,,,,1,,,74,49
915840,control_change,60,0,5,,,,,,,64,127,5,,,,
915840,set_tempo,40,1,0,,,,,,810810,,,,,,,
915840,control_change,25,0,3,,,,,,,64,127,3,,,,
915840,control_change,60,0,4,,,,,,,64,127,4,,,,
915840,note_on,0,0,4,,,,,,,,,4,,,57,48
916080,note_on,240,0,3,,,,,,,,,3,,,64,49
916080,note_off,240,0,4,,,,,,,,,4,,,57,0
916320,note_on,0,0,3,,,,,,,,,3,,,67,50
916320,note_off,240,0,3,,,,,,,,,3,,,64,0
916320,note_off,480,0,1,,,,,,,,,1,,,74,0
916320,note_on,0,0,1,,,,,,,,,1,,,73,50
916560,note_off,240,0,3,,,,,,,,,3,,,67,0
916560,note_on,0,0,3,,,,,,,,,3,,,64,51
916800,control_change,720,0,4,,,,,,,64,0,4,,,,
916800,note_on,0,0,1,,,,,,,,,1,,,71,53
916800,note_off,0,0,3,,,,,,,,,3,,,64,0
916800,control_change,240,0,3,,,,,,,64,0,3,,,,
916800,control_change,960,0,5,,,,,,,64,0,5,,,,
916800,note_off,480,0,1,,,,,,,,,1,,,73,0
916800,note_on,0,0,4,,,,,,,,,4,,,57,53
916860,control_change,60,0,5,,,,,,,64,127,5,,,,
916860,control_change,60,0,3,,,,,,,64,127,3,,,,
916860,control_change,60,0,4,,,,,,,64,127,4,,,,
917040,note_on,180,0,3,,,,,,,,,3,,,64,54
917040,note_off,180,0,4,,,,,,,,,4,,,57,0
917280,note_on,0,0,3,,,,,,,,,3,,,67,55
917280,note_off,240,0,3,,,,,,,,,3,,,64,0
917280,note_off,480,0,1,,,,,,,,,1,,,71,0
917280,note_on,0,0,1,,,,,,,,,1,,,69,55
917520,note_on,0,0,3,,,,,,,,,3,,,64,56
917520,note_off,240,0,3,,,,,,,,,3,,,67,0
917700,control_change,180,0,3,,,,,,,64,0,3,,,,
917700,control_change,840,0,5,,,,,,,64,0,5,,,,
917700,control_change,660,0,4,,,,,,,64,0,4,,,,
917720,set_tempo,1880,1,0,,,,,,821917,,,,,,,
917720,note_off,20,0,3,,,,,,,,,3,,,64,0
917730,note_off,450,0,1,,,,,,,,,1,,,69,0
917760,note_on,30,0,1,,,,,,,,,1,,,69,58
917760,control_change,60,0,5,,,,,,,64,127,5,,,,
917760,set_tempo,40,1,0,,,,,,810810,,,,,,,
917760,control_change,40,0,3,,,,,,,64,127,3,,,,
917760,control_change,60,0,4,,,,,,,64,127,4,,,,
917760,note_on,0,0,4,,,,,,,,,4,,,62,58
918000,note_on,240,0,3,,,,,,,,,3,,,66,56
918000,note_off,240,0,4,,,,,,,,,4,,,62,0
918240,note_on,0,0,1,,,,,,,,,1,,,81,53
918240,note_off,240,0,3,,,,,,,,,3,,,66,0
918240,note_on,0,0,3,,,,,,,,,3,,,69,53
918240,note_off,480,0,1,,,,,,,,,1,,,69,0
918480,note_off,240,0,3,,,,,,,,,3,,,69,0
918480,note_on,0,0,3,,,,,,,,,3,,,66,51
918660,control_change,660,0,4,,,,,,,64,0,4,,,,
918660,control_change,900,0,5,,,,,,,64,0,5,,,,
918660,control_change,180,0,3,,,,,,,64,0,3,,,,
918675,note_off,435,0,1,,,,,,,,,1,,,81,0
918690,note_off,30,0,3,,,,,,,,,3,,,66,0
918720,note_on,0,0,4,,,,,,,,,4,,,54,51
918720,control_change,30,0,3,,,,,,,64,127,3,,,,
918720,control_change,60,0,5,,,,,,,64,127,5,,,,
918720,control_change,60,0,4,,,,,,,64,127,4,,,,
918720,note_on,45,0,1,,,,,,,,,1,,,79,51
918960,note_off,240,0,1,,,,,,,,,1,,,79,0
918960,note_on,0,0,1,,,,,,,,,1,,,78,49
918960,note_on,240,0,3,,,,,,,,,3,,,57,52
918960,note_off,240,0,4,,,,,,,,,4,,,54,0
919140,note_off,180,0,1,,,,,,,,,1,,,78,0
919200,note_off,240,0,3,,,,,,,,,3,,,57,0
919200,note_on,0,0,3,,,,,,,,,3,,,62,53
919200,note_on,60,0,1,,,,,,,,,1,,,76,53
919440,note_on,0,0,1,,,,,,,,,1,,,74,51
919440,note_off,240,0,3,,,,,,,,,3,,,62,0
919440,note_on,0,0,3,,,,,,,,,3,,,57,54
919440,note_off,240,0,1,,,,,,,,,1,,,76,0
919620,note_off,180,0,1,,,,,,,,,1,,,74,0
919620,control_change,180,0,3,,,,,,,64,0,3,,,,
919620,control_change,900,0,5,,,,,,,64,0,5,,,,
919620,control_change,660,0,4,,,,,,,64,0,4,,,,
919640,set_tempo,1880,1,0,,,,,,821917,,,,,,,
919650,note_off,30,0,3,,,,,,,,,3,,,57,0
919680,control_change,30,0,3,,,,,,,64,127,3,,,,
919680,set_tempo,40,1,0,,,,,,810810,,,,,,,
919680,control_change,60,0,5,,,,,,,64,127,5,,,,
919680,note_on,0,0,4,,,,,,,,,4,,,55,55
919680,control_change,60,0,4,,,,,,,64,127,4,,,,
919680,note_on,60,0,1,,,,,,,,,1,,,73,55
919920,note_on,240,0,3,,,,,,,,,3,,,59,56
919920,note_off,240,0,4,,,,,,,,,4,,,55,0
919920,note_off,240,0,1,,,,,,,,,1,,,73,0
919920,note_on,0,0,1,,,,,,,,,1,,,71,56
920160,note_on,0,0,1,,,,,,,,,1,,,88,58
920160,note_on,0,0,3,,,,,,,,,3,,,62,58
920160,note_off,240,0,3,,,,,,,,,3,,,59,0
920160,note_off,240,0,1,,,,,,,,,1,,,71,0
920400,note_on,0,0,3,,,,,,,,,3,,,59,59
920400,note_off,240,0,3,,,,,,,,,3,,,62,0
920400,note_on,0,0,1,,,,,,,,,1,,,86,59
920400,note_off,240,0,1,,,,,,,,,1,,,88,0
920580,control_change,180,0,3,,,,,,,64,0,3,,,,
920580,control_change,660,0,4,,,,,,,64,0,4,,,,
920580,control_change,900,0,5,,,,,,,64,0,5,,,,
920615,note_off,35,0,3,,,,,,,,,3,,,59,0
920640,control_change,60,0,5,,,,,,,64,127,5,,,,
920640,note_on,0,0,1,,,,,,,,,1,,,85,60
920640,control_change,60,0,4,,,,,,,64,127,4,,,,
920640,note_on,0,0,4,,,,,,,,,4,,,55,60
920640,control_change,25,0,3,,,,,,,64,127,3,,,,
920640,note_off,240,0,1,,,,,,,,,1,,,86,0
920880,note_off,240,0,1,,,,,,,,,1,,,85,0
920880,note_on,0,0,1,,,,,,,,,1,,,83,61
920880,note_on,240,0,3,,,,,,,,,3,,,59,61
920880,note_off,240,0,4,,,,,,,,,4,,,55,0
921120,note_off,240,0,3,,,,,,,,,3,,,59,0
921120,note_on,0,0,3,,,,,,,,,3,,,64,62
921120,note_off,240,0,1,,,,,,,,,1,,,83,0
921120,note_on,0,0,1,,,,,,,,,1,,,81,62
921360,note_on,0,0,3,,,,,,,,,3,,,59,64
921360,note_on,0,0,1,,,,,,,,,1,,,79,64
921360,note_off,240,0,3,,,,,,,,,3,,,64,0
921360,note_off,240,0,1,,,,,,,,,1,,,81,0
921540,control_change,900,0,5,,,,,,,64,0,5,,,,
921540,control_change,660,0,4,,,,,,,64,0,4,,,,
921540,control_change,180,0,3,,,,,,,64,0,3,,,,
921560,set_tempo,1880,1,0,,,,,,821917,,,,,,,
921570,note_off,210,0,1,,,,,,,,,1,,,79,0
921575,note_off,35,0,3,,,,,,,,,3,,,59,0
921600,note_on,30,0,1,,,,,,,,,1,,,78,69
921600,note_on,0,0,4,,,,,,,,,4,,,57,69
921600,control_change,60,0,5,,,,,,,64,127,5,,,,
921600,control_change,25,0,3,,,,,,,64,127,3,,,,
921600,control_change,60,0,4,,,,,,,64,127,4,,,,
921840,note_off,240,0,4,,,,,,,,,4,,,57,0
921840,note_on,240,0,3,,,,,,,,,3,,,62,68
921900,note_on,300,0,1,,,,,,,,,1,,,79,62
921905,note_off,5,0,1,,,,,,,,,1,,,78,0
921960,note_on,0,0,1,,,,,,,,,1,,,78,63
921960,note_off,55,0,1,,,,,,,,,1,,,79,0
922020,note_off,60,0,1,,,,,,,,,1,,,78,0
922020,note_on,0,0,1,,,,,,,,,1,,,76,65
922080,note_off,60,0,1,,,,,,,,,1,,,76,0
922080,note_on,0,0,1,,,,,,,,,1,,,78,66
922080,note_on,0,0,3,,,,,,,,,3,,,66,66
922080,note_off,240,0,3,,,,,,,,,3,,,62,0
922320,note_on,0,0,1,,,,,,,,,1,,,81,65
922320,note_off,240,0,1,,,,,,,,,1,,,78,0
922320,note_off,240,0,3,,,,,,,,,3,,,66,0
922320,note_on,0,0,3,,,,,,,,,3,,,62,65
922500,control_change,660,0,4,,,,,,,64,0,4,,,,
922500,control_change,180,0,3,,,,,,,64,0,3,,,,
922500,control_change,900,0,5,,,,,,,64,0,5,,,,
922515,note_off,15,0,3,,,,,,,,,3,,,62,0
922520,set_tempo,960,1,0,,,,,,845070,,,,,,,
922530,note_off,210,0,1,,,,,,,,,1,,,81,0
922560,note_on,30,0,1,,,,,,,,,1,,,76,63
922560,note_on,0,0,4,,,,,,,,,4,,,57,63
922560,control_change,60,0,4,,,,,,,64,127,4,,,,
922560,control_change,60,0,5,,,,,,,64,127,5,,,,
922560,control_change,45,0,3,,,,,,,64,127,3,,,,
922800,note_off,240,0,4,,,,,,,,,4,,,57,0
922800,note_on,240,0,3,,,,,,,,,3,,,61,61
923040,note_on,0,0,3,,,,,,,,,3,,,64,60
923040,note_off,240,0,3,,,,,,,,,3,,,61,0
923280,note_off,240,0,3,,,,,,,,,3,,,64,0
923280,note_on,0,0,3,,,,,,,,,3,,,61,58
923460,control_change,180,0,3,,,,,,,64,0,3,,,,
923460,control_change,900,0,5,,,,,,,64,0,5,,,,
923460,control_change,660,0,4,,,,,,,64,0,4,,,,
923475,note_off,15,0,3,,,,,,,,,3,,,61,0
923480,set_tempo,960,1,0,,,,,,869565,,,,,,,
923520,note_on,60,0,4,,,,,,,,,4,,,57,58
923520,set_tempo,40,1,0,,,,,,895522,,,,,,,
923808,note_off,1248,0,1,,,,,,,,,1,,,76,0
923960,set_tempo,440,1,0,,,,,,869565,,,,,,,
924000,note_on,192,0,1,,,,,,,,,1,,,78,52
924480,note_off,960,0,4,,,,,,,,,4,,,57,0
924480,note_off,480,0,1,,,,,,,,,1,,,78,0
924480,note_on,0,0,1,,,,,,,,,1,,,79,49
924960,note_off,480,0,1,,,,,,,,,1,,,79,0
924960,note_on,0,0,1,,,,,,,,,1,,,80,46
925320,set_tempo,1360,1,0,,,,,,895522,,,,,,,
925385,note_off,425,0,1,,,,,,,,,1,,,80,0
925440,note_on,0,0,4,,,,,,,,,4,,,54,49
925440,set_tempo,120,1,0,,,,,,810810,,,,,,,
925440,control_change,960,0,4,,,,,,,64,0,4,,,,
925440,control_change,1965,0,3,,,,,,,64,0,3,,,,
925440,control_change,1980,0,5,,,,,,,64,0,5,,,,
925440,note_on,55,0,1,,,,,,,,,1,,,83,49
925500,control_change,60,0,4,,,,,,,64,127,4,,,,
925500,control_change,60,0,3,,,,,,,64,127,3,,,,
925500,control_change,60,0,5,,,,,,,64,127,5,,,,
925680,note_on,180,0,3,,,,,,,,,3,,,57,50
925680,note_off,180,0,4,,,,,,,,,4,,,54,0
925920,note_off,240,0,3,,,,,,,,,3,,,57,0
925920,note_on,0,0,3,,,,,,,,,3,,,62,51
926160,note_off,240,0,3,,,,,,,,,3,,,62,0
926160,note_on,0,0,3,,,,,,,,,3,,,57,53
926160,note_on,0,0,1,,,,,,,,,1,,,81,53
926160,note_off,720,0,1,,,,,,,,,1,,,83,0
926400,control_change,240,0,3,,,,,,,64,0,3,,,,
926400,note_on,0,0,4,,,,,,,,,4,,,54,54
926400,control_change,720,0,4,,,,,,,64,0,4,,,,
926400,note_off,0,0,3,,,,,,,,,3,,,57,0
926400,control_change,900,0,5,,,,,,,64,0,5,,,,
926400,note_off,240,0,1,,,,,,,,,1,,,81,0
926400,note_on,0,0,1,,,,,,,,,1,,,79,54
926460,control_change,60,0,3,,,,,,,64,127,3,,,,
926460,control_change,60,0,4,,,,,,,64,127,4,,,,
926460,control_change,60,0,5,,,,,,,64,127,5,,,,
926640,note_off,180,0,4,,,,,,,,,4,,,54,0
926640,note_on,180,0,3,,,,,,,,,3,,,57,55
926640,note_off,240,0,1,,,,,,,,,1,,,79,0
926640,note_on,0,0,1,,,,,,,,,1,,,78,55
926880,note_on,0,0,3,,,,,,,,,3,,,62,56
926880,note_off,240,0,3,,,,,,,,,3,,,57,0
926880,note_off,240,0,1,,,,,,,,,1,,,78,0
926880,note_on,0,0,1,,,,,,,,,1,,,76,56
927120,note_off,240,0,3,,,,,,,,,3,,,62,0
927120,note_on,0,0,3,,,,,,,,,3,,,57,58
927120,note_off,240,0,1,,,,,,,,,1,,,76,0
927120,note_on,0,0,1,,,,,,,,,1,,,74,58
927300,control_change,660,0,4,,,,,,,64,0,4,,,,
927300,control_change,840,0,5,,,,,,,64,0,5,,,,
927300,control_change,180,0,3,,,,,,,64,0,3,,,,
927315,note_off,15,0,3,,,,,,,,,3,,,57,0
927320,set_tempo,1880,1,0,,,,,,821917,,,,,,,
927330,note_off,210,0,1,,,,,,,,,1,,,74,0
927360,control_change,45,0,3,,,,,,,64,127,3,,,,
927360,control_change,60,0,5,,,,,,,64,127,5,,,,
927360,control_change,60,0,4,,,,,,,64,127,4,,,,
927360,note_on,0,0,4,,,,,,,,,4,,,53,59
927360,note_on,30,0,1,,,,,,,,,1,,,74,59
927360,set_tempo,40,1,0,,,,,,810810,,,,,,,
927600,note_on,240,0,3,,,,,,,,,3,,,57,60
927600,note_off,240,0,4,,,,,,,,,4,,,53,0
927840,note_off,240,0,3,,,,,,,,,3,,,57,0
927840,note_on,0,0,3,,,,,,,,,3,,,62,61
928080,note_on,0,0,3,,,,,,,,,3,,,57,63
928080,note_on,0,0,1,,,,,,,,,1,,,74,63
928080,note_off,720,0,1,,,,,,,,,1,,,74,0
928080,note_off,240,0,3,,,,,,,,,3,,,62,0
928320,control_change,240,0,3,,,,,,,64,0,3,,,,
928320,note_on,0,0,1,,,,,,,,,1,,,76,61
928320,note_off,240,0,1,,,,,,,,,1,,,74,0
928320,control_change,720,0,4,,,,,,,64,0,4,,,,
928320,note_on,0,0,4,,,,,,,,,4,,,53,64
928320,control_change,960,0,5,,,,,,,64,0,5,,,,
928320,note_off,0,0,3,,,,,,,,,3,,,57,0
928380,note_on,60,0,1,,,,,,,,,1,,,74,61
928380,control_change,60,0,5,,,,,,,64,127,5,,,,
928380,control_change,60,0,4,,,,,,,64,127,4,,,,
928380,control_change,60,0,3,,,,,,,64,127,3,,,,
928400,note_off,20,0,1,,,,,,,,,1,,,76,0
928440,note_on,40,0,1,,,,,,,,,1,,,76,62
928460,note_off,20,0,1,,,,,,,,,1,,,74,0
928500,note_on,40,0,1,,,,,,,,,1,,,74,62
928520,note_off,20,0,1,,,,,,,,,1,,,76,0
928560,note_off,180,0,4,,,,,,,,,4,,,53,0
928560,note_on,40,0,1,,,,,,,,,1,,,76,63
928560,note_on,180,0,3,,,,,,,,,3,,,57,65
928580,note_off,20,0,1,,,,,,,,,1,,,74,0
928620,note_on,40,0,1,,,,,,,,,1,,,74,63
928640,note_off,20,0,1,,,,,,,,,1,,,76,0
928680,note_on,40,0,1,,,,,,,,,1,,,76,64
928700,note_off,20,0,1,,,,,,,,,1,,,74,0
928720,note_on,20,0,1,,,,,,,,,1,,,74,64
928760,note_off,40,0,1,,,,,,,,,1,,,76,0
928800,note_on,0,0,3,,,,,,,,,3,,,62,67
928800,note_on,0,0,1,,,,,,,,,1,,,76,65
928800,note_off,40,0,1,,,,,,,,,1,,,74,0
928800,note_off,240,0,3,,,,,,,,,3,,,57,0
928860,note_on,60,0,1,,,,,,,,,1,,,74,65
928880,note_off,20,0,1,,,,,,,,,1,,,76,0
928920,note_on,40,0,1,,,,,,,,,1,,,76,66
928935,note_off,15,0,1,,,,,,,,,1,,,74,0
928980,note_on,45,0,1,,,,,,,,,1,,,74,66
928995,note_off,15,0,1,,,,,,,,,1,,,76,0
929040,note_on,45,0,1,,,,,,,,,1,,,76,67
929040,note_on,0,0,3,,,,,,,,,3,,,57,68
929040,note_off,240,0,3,,,,,,,,,3,,,62,0
929060,note_off,20,0,1,,,,,,,,,1,,,74,0
929100,note_on,40,0,1,,,,,,,,,1,,,74,67
929120,note_off,20,0,1,,,,,,,,,1,,,76,0
929160,note_on,40,0,1,,,,,,,,,1,,,73,68
929180,note_off,20,0,1,,,,,,,,,1,,,74,0
929220,note_on,40,0,1,,,,,,,,,1,,,74,68
929240,set_tempo,1880,1,0,,,,,,821917,,,,,,,
929240,note_off,20,0,1,,,,,,,,,1,,,73,0
929250,note_off,210,0,3,,,,,,,,,3,,,57,0
929280,set_tempo,40,1,0,,,,,,810810,,,,,,,
929280,note_on,40,0,1,,,,,,,,,1,,,86,69
929280,note_on,0,0,4,,,,,,,,,4,,,52,69
929280,control_change,720,0,4,,,,,,,64,0,4,,,,
929280,control_change,30,0,3,,,,,,,64,0,3,,,,
929280,control_change,900,0,5,,,,,,,64,0,5,,,,
929300,note_off,20,0,1,,,,,,,,,1,,,74,0
929340,control_change,60,0,3,,,,,,,64,127,3,,,,
929340,control_change,60,0,4,,,,,,,64,127,4,,,,
929340,control_change,60,0,5,,,,,,,64,127,5,,,,
929520,note_off,180,0,4,,,,,,,,,4,,,52,0
929520,note_on,180,0,3,,,,,,,,,3,,,56,64
929760,note_on,0,0,3,,,,,,,,,3,,,59,62
929760,note_off,240,0,3,,,,,,,,,3,,,56,0
930000,note_off,240,0,3,,,,,,,,,3,,,59,0
930000,note_on,0,0,3,,,,,,,,,3,,,56,60
930240,note_off,0,0,3,,,,,,,,,3,,,56,0
930240,note_on,0,0,4,,,,,,,,,4,,,52,58
930240,control_change,240,0,3,,,,,,,64,0,3,,,,
930240,control_change,720,0,4,,,,,,,64,0,4,,,,
930240,control_change,900,0,5,,,,,,,64,0,5,,,,
930300,control_change,60,0,3,,,,,,,64,127,3,,,,
930300,control_change,60,0,5,,,,,,,64,127,5,,,,
930300,control_change,60,0,4,,,,,,,64,127,4,,,,
930480,note_on,180,0,3,,,,,,,,,3,,,56,56
930480,note_off,180,0,4,,,,,,,,,4,,,52,0
930600,note_on,1300,0,1,,,,,,,,,1,,,83,55
930605,note_off,5,0,1,,,,,,,,,1,,,86,0
930705,note_off,100,0,1,,,,,,,,,1,,,83,0
930720,note_on,0,0,3,,,,,,,,,3,,,59,54
930720,note_off,240,0,3,,,,,,,,,3,,,56,0
930720,note_on,15,0,1,,,,,,,,,1,,,86,54
930840,note_on,0,0,1,,,,,,,,,1,,,83,53
930840,note_off,120,0,1,,,,,,,,,1,,,86,0
930960,note_on,0,0,1,,,,,,,,,1,,,86,52
930960,note_on,0,0,3,,,,,,,,,3,,,56,52
930960,note_off,240,0,3,,,,,,,,,3,,,59,0
930960,note_off,120,0,1,,,,,,,,,1,,,83,0
931080,note_off,120,0,1,,,,,,,,,1,,,86,0
931080,note_on,0,0,1,,,,,,,,,1,,,83,51
931160,set_tempo,1880,1,0,,,,,,821917,,,,,,,
931160,note_off,200,0,3,,,,,,,,,3,,,56,0
931200,control_change,720,0,4,,,,,,,64,0,4,,,,
931200,control_change,900,0,5,,,,,,,64,0,5,,,,
931200,set_tempo,40,1,0,,,,,,810810,,,,,,,
931200,control_change,40,0,3,,,,,,,64,0,3,,,,
931200,note_off,120,0,1,,,,,,,,,1,,,83,0
931200,note_on,0,0,4,,,,,,,,,4,,,52,50
931200,note_on,0,0,1,,,,,,,,,1,,,80,50
931260,control_change,60,0,5,,,,,,,64,127,5,,,,
931260,control_change,60,0,3,,,,,,,64,127,3,,,,
931260,control_change,60,0,4,,,,,,,64,127,4,,,,
931440,note_on,180,0,3,,,,,,,,,3,,,56,47
931440,note_off,180,0,4,,,,,,,,,4,,,52,0
931680,note_off,480,0,1,,,,,,,,,1,,,80,0
931680,note_on,0,0,3,,,,,,,,,3,,,59,45
931680,note_off,240,0,3,,,,,,,,,3,,,56,0
931920,note_on,0,0,3,,,,,,,,,3,,,56,43
931920,note_off,240,0,3,,,,,,,,,3,,,59,0
932100,control_change,180,0,3,,,,,,,64,0,3,,,,
932100,control_change,660,0,4,,,,,,,64,0,4,,,,
932100,control_change,840,0,5,,,,,,,64,0,5,,,,
932120,note_off,20,0,3,,,,,,,,,3,,,56,0
932160,control_change,60,0,5,,,,,,,64,127,5,,,,
932160,note_on,480,0,1,,,,,,,,,1,,,74,41
932160,control_change,60,0,4,,,,,,,64,127,4,,,,
932160,note_on,0,0,4,,,,,,,,,4,,,56,41
932160,control_change,40,0,3,,,,,,,64,127,3,,,,
932400,note_off,240,0,4,,,,,,,,,4,,,56,0
932400,note_on,240,0,3,,,,,,,,,3,,,59,39
932640,note_on,0,0,3,,,,,,,,,3,,,64,37
932640,note_off,240,0,3,,,,,,,,,3,,,59,0
932640,note_off,480,0,1,,,,,,,,,1,,,74,0
932880,note_off,240,0,3,,,,,,,,,3,,,64,0
932880,note_on,0,0,3,,,,,,,,,3,,,59,35
933000,set_tempo,1800,1,0,,,,,,821917,,,,,,,
933060,control_change,180,0,3,,,,,,,64,0,3,,,,
933060,control_change,660,0,4,,,,,,,64,0,4,,,,
933060,control_change,900,0,5,,,,,,,64,0,5,,,,
933080,note_off,20,0,3,,,,,,,,,3,,,59,0
933120,set_tempo,120,1,0,,,,,,810810,,,,,,,
933120,note_on,480,0,1,,,,,,,,,1,,,73,34
933120,note_on,60,0,4,,,,,,,,,4,,,57,34
933360,note_on,0,0,1,,,,,,,,,1,,,74,40
933360,note_off,240,0,1,,,,,,,,,1,,,73,0
933600,note_off,480,0,4,,,,,,,,,4,,,57,0
933600,note_off,240,0,1,,,,,,,,,1,,,74,0
933600,note_on,0,0,1,,,,,,,,,1,,,75,36
933840,note_off,240,0,1,,,,,,,,,1,,,75,0
933840,note_on,0,0,1,,,,,,,,,1,,,76,46
934080,note_on,480,0,4,,,,,,,,,4,,,50,39
934080,note_on,0,0,1,,,,,,,,,1,,,77,39
934080,note_off,240,0,1,,,,,,,,,1,,,76,0
934320,note_on,0,0,1,,,,,,,,,1,,,78,48
934320,note_off,240,0,1,,,,,,,,,1,,,77,0
934560,note_off,240,0,1,,,,,,,,,1,,,78,0
934560,note_on,0,0,1,,,,,,,,,1,,,80,41
934560,note_off,480,0,4,,,,,,,,,4,,,50,0
934800,note_off,240,0,1,,,,,,,,,1,,,80,0
934800,note_on,0,0,1,,,,,,,,,1,,,81,51
935000,set_tempo,1880,1,0,,,,,,821917,,,,,,,
935010,note_off,210,0,1,,,,,,,,,1,,,81,0
935040,note_on,1960,0,3,,,,,,,,,3,,,57,43
935040,set_tempo,40,1,0,,,,,,810810,,,,,,,
935040,note_on,30,0,1,,,,,,,,,1,,,73,43
935040,note_on,480,0,4,,,,,,,,,4,,,52,43
935280,note_off,240,0,1,,,,,,,,,1,,,73,0
935280,note_on,0,0,1,,,,,,,,,1,,,74,44
935520,note_off,240,0,1,,,,,,,,,1,,,74,0
935520,note_on,0,0,1,,,,,,,,,1,,,75,46
935760,note_off,240,0,1,,,,,,,,,1,,,75,0
935760,note_on,0,0,1,,,,,,,,,1,,,76,48
935960,note_off,200,0,1,,,,,,,,,1,,,76,0
936000,note_off,960,0,4,,,,,,,,,4,,,52,0
936000,note_on,0,0,4,,,,,,,,,4,,,52,50
936000,note_off,960,0,3,,,,,,,,,3,,,57,0
936000,note_on,0,0,3,,,,,,,,,3,,,56,50
936000,note_on,40,0,1,,,,,,,,,1,,,76,50
936240,note_off,240,0,1,,,,,,,,,1,,,76,0
936240,note_on,0,0,1,,,,,,,,,1,,,74,52
936480,note_on,0,0,1,,,,,,,,,1,,,73,53
936480,note_off,240,0,1,,,,,,,,,1,,,74,0
936720,note_off,240,0,1,,,,,,,,,1,,,73,0
936720,note_on,0,0,1,,,,,,,,,1,,,71,55
936770,note_off,770,0,4,,,,,,,,,4,,,52,0
936770,note_off,770,0,3,,,,,,,,,3,,,56,0
936920,set_tempo,1880,1,0,,,,,,845070,,,,,,,
936930,note_off,210,0,1,,,,,,,,,1,,,71,0
936960,note_on,30,0,1,,,,,,,,,1,,,71,57
936960,note_on,30335,0,2,,,,,,,,,2,,,62,57
936960,note_on,0,0,2,,,,,,,,,2,,,64,57
936960,note_on,190,0,4,,,,,,,,,4,,,45,57
936960,note_on,190,0,3,,,,,,,,,3,,,57,57
937920,note_off,960,0,2,,,,,,,,,2,,,62,0
937920,set_tempo,1000,1,0,,,,,,1071428,,,,,,,
937920,note_on,0,0,2,,,,,,,,,2,,,61,43
937920,note_on,0,0,1,,,,,,,,,1,,,69,43
937920,note_off,960,0,1,,,,,,,,,1,,,71,0
938690,note_off,1730,0,4,,,,,,,,,4,,,45,0
938700,note_off,780,0,2,,,,,,,,,2,,,61,0
938705,note_off,1745,0,3,,,,,,,,,3,,,57,0
938705,note_off,785,0,1,,,,,,,,,1,,,69,0
938705,note_off,5,0,2,,,,,,,,,2,,,64,0
938880,set_tempo,960,1,0,,,,,,869565,,,,,,,
938880,note_on,175,0,1,,,,,,,,,1,,,80,37
939120,note_off,240,0,1,,,,,,,,,1,,,80,0
939120,note_on,0,0,1,,,,,,,,,1,,,81,38
939360,note_off,240,0,1,,,,,,,,,1,,,81,0
939360,note_on,0,0,1,,,,,,,,,1,,,83,38
939600,note_off,240,0,1,,,,,,,,,1,,,83,0
939600,note_on,0,0,1,,,,,,,,,1,,,81,39
939800,note_off,200,0,1,,,,,,,,,1,,,81,0
939840,note_on,40,0,1,,,,,,,,,1,,,81,40
940080,note_on,0,0,1,,,,,,,,,1,,,79,41
940080,note_off,240,0,1,,,,,,,,,1,,,81,0
940320,note_off,240,0,1,,,,,,,,,1,,,79,0
940320,note_on,0,0,1,,,,,,,,,1,,,78,42
940560,note_off,240,0,1,,,,,,,,,1,,,78,0
940560,note_on,0,0,1,,,,,,,,,1,,,76,42
940680,set_tempo,1800,1,0,,,,,,952380,,,,,,,
940770,note_off,210,0,1,,,,,,,,,1,,,76,0
940800,set_tempo,120,1,0,,,,,,810810,,,,,,,
940800,control_change,2095,0,3,,,,,,,64,0,3,,,,
940800,note_on,30,0,1,,,,,,,,,1,,,76,45
940800,control_change,2110,0,4,,,,,,,64,0,4,,,,
940800,control_change,7740,0,5,,,,,,,64,0,5,,,,
940800,note_on,0,0,4,,,,,,,,,4,,,62,45
940860,control_change,60,0,3,,,,,,,64,127,3,,,,
940860,control_change,60,0,5,,,,,,,64,127,5,,,,
940860,control_change,60,0,4,,,,,,,64,127,4,,,,
941040,note_on,180,0,3,,,,,,,,,3,,,66,43
941040,note_off,180,0,4,,,,,,,,,4,,,62,0
941280,note_off,240,0,3,,,,,,,,,3,,,66,0
941280,note_on,0,0,3,,,,,,,,,3,,,69,42
941520,note_off,240,0,3,,,,,,,,,3,,,69,0
941520,note_on,0,0,3,,,,,,,,,3,,,66,40
941520,note_on,0,0,1,,,,,,,,,1,,,74,40
941520,note_off,720,0,1,,,,,,,,,1,,,76,0
941730,note_off,210,0,1,,,,,,,,,1,,,74,0
941760,note_on,30,0,1,,,,,,,,,1,,,74,41
941760,control_change,900,0,5,,,,,,,64,0,5,,,,
941760,control_change,240,0,3,,,,,,,64,0,3,,,,
941760,note_off,0,0,3,,,,,,,,,3,,,66,0
941760,note_on,0,0,4,,,,,,,,,4,,,62,39
941760,control_change,720,0,4,,,,,,,64,0,4,,,,
941820,control_change,60,0,4,,,,,,,64,127,4,,,,
941820,control_change,60,0,3,,,,,,,64,127,3,,,,
941820,control_change,60,0,5,,,,,,,64,127,5,,,,
942000,note_on,180,0,3,,,,,,,,,3,,,66,38
942000,note_off,180,0,4,,,,,,,,,4,,,62,0
942240,note_on,0,0,3,,,,,,,,,3,,,69,37
942240,note_off,240,0,3,,,,,,,,,3,,,66,0
942480,note_on,0,0,3,,,,,,,,,3,,,66,36
942480,note_off,240,0,3,,,,,,,,,3,,,69,0
942660,control_change,180,0,3,,,,,,,64,0,3,,,,
942660,control_change,840,0,5,,,,,,,64,0,5,,,,
942660,control_change,660,0,4,,,,,,,64,0,4,,,,
942695,note_off,35,0,3,,,,,,,,,3,,,66,0
942720,set_tempo,1920,1,0,,,,,,821917,,,,,,,
942720,control_change,60,0,4,,,,,,,64,127,4,,,,
942720,control_change,60,0,5,,,,,,,64,127,5,,,,
942720,note_on,0,0,4,,,,,,,,,4,,,59,37
942720,control_change,25,0,3,,,,,,,64,127,3,,,,
942760,set_tempo,40,1,0,,,,,,810810,,,,,,,
942912,note_off,1152,0,1,,,,,,,,,1,,,74,0
942960,note_on,48,0,1,,,,,,,,,1,,,85,38
942960,note_off,240,0,4,,,,,,,,,4,,,59,0
942960,note_on,240,0,3,,,,,,,,,3,,,62,38
943200,note_on,0,0,3,,,,,,,,,3,,,66,40
943200,note_off,240,0,3,,,,,,,,,3,,,62,0
943200,note_off,240,0,1,,,,,,,,,1,,,85,0
943200,note_on,0,0,1,,,,,,,,,1,,,86,40
943440,note_on,0,0,3,,,,,,,,,3,,,62,41
943440,note_on,0,0,1,,,,,,,,,1,,,85,41
943440,note_off,240,0,1,,,,,,,,,1,,,86,0
943440,note_off,240,0,3,,,,,,,,,3,,,66,0
943620,control_change,180,0,3,,,,,,,64,0,3,,,,
943620,control_change,660,0,4,,,,,,,64,0,4,,,,
943620,control_change,900,0,5,,,,,,,64,0,5,,,,
943680,control_change,60,0,3,,,,,,,64,127,3,,,,
943680,note_off,0,0,3,,,,,,,,,3,,,62,0
943680,control_change,60,0,5,,,,,,,64,127,5,,,,
943680,note_on,0,0,4,,,,,,,,,4,,,59,42
943680,control_change,60,0,4,,,,,,,64,127,4,,,,
943680,note_off,240,0,1,,,,,,,,,1,,,85,0
943680,note_on,0,0,1,,,,,,,,,1,,,86,42
943920,note_off,240,0,1,,,,,,,,,1,,,86,0
943920,note_on,240,0,3,,,,,,,,,3,,,62,44
943920,note_on,0,0,1,,,,,,,,,1,,,83,44
943920,note_off,240,0,4,,,,,,,,,4,,,59,0
944160,note_on,0,0,3,,,,,,,,,3,,,66,45
944160,note_off,240,0,3,,,,,,,,,3,,,62,0
944160,note_off,240,0,1,,,,,,,,,1,,,83,0
944160,note_on,0,0,1,,,,,,,,,1,,,86,45
944400,note_off,240,0,1,,,,,,,,,1,,,86,0
944400,note_on,0,0,1,,,,,,,,,1,,,78,47
944400,note_on,0,0,3,,,,,,,,,3,,,62,47
944400,note_off,240,0,3,,,,,,,,,3,,,66,0
944580,control_change,180,0,3,,,,,,,64,0,3,,,,
944580,control_change,660,0,4,,,,,,,64,0,4,,,,
944580,control_change,900,0,5,,,,,,,64,0,5,,,,
944600,set_tempo,1840,1,0,,,,,,821917,,,,,,,
944610,note_off,210,0,1,,,,,,,,,1,,,78,0
944610,note_off,30,0,3,,,,,,,,,3,,,62,0
944640,note_on,30,0,1,,,,,,,,,1,,,76,50
944640,control_change,60,0,5,,,,,,,64,127,5,,,,
944640,control_change,30,0,3,,,,,,,64,127,3,,,,
944640,set_tempo,40,1,0,,,,,,810810,,,,,,,
944640,note_on,0,0,4,,,,,,,,,4,,,55,49
944640,control_change,60,0,4,,,,,,,64,127,4,,,,
944880,note_on,240,0,3,,,,,,,,,3,,,59,48
944880,note_off,240,0,4,,,,,,,,,4,,,55,0
945120,note_on,0,0,3,,,,,,,,,3,,,64,47
945120,note_off,240,0,3,,,,,,,,,3,,,59,0
945240,note_on,0,0,1,,,,,,,,,1,,,78,47
945240,note_off,600,0,1,,,,,,,,,1,,,76,0
945360,note_on,0,0,3,,,,,,,,,3,,,59,46
945360,note_off,240,0,3,,,,,,,,,3,,,64,0
945360,note_on,0,0,1,,,,,,,,,1,,,76,46
945360,note_off,120,0,1,,,,,,,,,1,,,78,0
945480,note_on,0,0,1,,,,,,,,,1,,,75,46
945480,note_off,120,0,1,,,,,,,,,1,,,76,0
945600,note_on,0,0,1,,,,,,,,,1,,,76,45
945600,note_on,0,0,4,,,,,,,,,4,,,55,45
945600,control_change,720,0,4,,,,,,,64,0,4,,,,
945600,control_change,240,0,3,,,,,,,64,0,3,,,,
945600,note_off,0,0,3,,,,,,,,,3,,,59,0
945600,control_change,960,0,5,,,,,,,64,0,5,,,,
945600,note_off,120,0,1,,,,,,,,,1,,,75,0
945660,control_change,60,0,4,,,,,,,64,127,4,,,,
945660,control_change,60,0,5,,,,,,,64,127,5,,,,
945660,control_change,60,0,3,,,,,,,64,127,3,,,,
945720,note_off,120,0,1,,,,,,,,,1,,,76,0
945720,note_on,0,0,1,,,,,,,,,1,,,78,45
945840,note_off,120,0,1,,,,,,,,,1,,,78,0
945840,note_off,180,0,4,,,,,,,,,4,,,55,0
945840,note_on,0,0,1,,,,,,,,,1,,,79,44
945840,note_on,180,0,3,,,,,,,,,3,,,59,44
945960,note_off,120,0,1,,,,,,,,,1,,,79,0
945960,note_on,0,0,1,,,,,,,,,1,,,78,44
946080,note_on,0,0,1,,,,,,,,,1,,,81,43
946080,note_off,120,0,1,,,,,,,,,1,,,78,0
946080,note_on,0,0,3,,,,,,,,,3,,,64,43
946080,note_off,240,0,3,,,,,,,,,3,,,59,0
946200,note_off,120,0,1,,,,,,,,,1,,,81,0
946200,note_on,0,0,1,,,,,,,,,1,,,79,43
946320,note_off,120,0,1,,,,,,,,,1,,,79,0
946320,note_on,0,0,1,,,,,,,,,1,,,78,42
946320,note_off,240,0,3,,,,,,,,,3,,,64,0
946320,note_on,0,0,3,,,,,,,,,3,,,59,42
946440,note_on,0,0,1,,,,,,,,,1,,,76,42
946440,note_off,120,0,1,,,,,,,,,1,,,78,0
946500,control_change,840,0,5,,,,,,,64,0,5,,,,
946500,control_change,660,0,4,,,,,,,64,0,4,,,,
946500,control_change,180,0,3,,,,,,,64,0,3,,,,
946520,set_tempo,1880,1,0,,,,,,821917,,,,,,,
946530,note_off,30,0,3,,,,,,,,,3,,,59,0
946535,note_off,95,0,1,,,,,,,,,1,,,76,0
946560,control_change,60,0,5,,,,,,,64,127,5,,,,
946560,control_change,30,0,3,,,,,,,64,127,3,,,,
946560,control_change,60,0,4,,,,,,,64,127,4,,,,
946560,note_on,0,0,4,,,,,,,,,4,,,57,45
946560,note_on,25,0,1,,,,,,,,,1,,,74,45
946560,set_tempo,40,1,0,,,,,,810810,,,,,,,
946800,note_off,240,0,4,,,,,,,,,4,,,57,0
946800,note_on,240,0,3,,,,,,,,,3,,,64,44
947040,note_on,0,0,1,,,,,,,,,1,,,73,43
947040,note_off,480,0,1,,,,,,,,,1,,,74,0
947040,note_on,0,0,3,,,,,,,,,3,,,67,43
947040,note_off,240,0,3,,,,,,,,,3,,,64,0
947280,note_on,0,0,3,,,,,,,,,3,,,64,42
947280,note_off,240,0,3,,,,,,,,,3,,,67,0
947520,control_change,240,0,3,,,,,,,64,0,3,,,,
947520,note_on,0,0,1,,,,,,,,,1,,,71,41
947520,control_change,720,0,4,,,,,,,64,0,4,,,,
947520,control_change,960,0,5,,,,,,,64,0,5,,,,
947520,note_off,0,0,3,,,,,,,,,3,,,64,0
947520,note_off,480,0,1,,,,,,,,,1,,,73,0
947520,note_on,0,0,4,,,,,,,,,4,,,57,41
947580,control_change,60,0,3,,,,,,,64,127,3,,,,
947580,control_change,60,0,4,,,,,,,64,127,4,,,,
947580,control_change,60,0,5,,,,,,,64,127,5,,,,
947600,note_off,80,0,1,,,,,,,,,1,,,71,0
947600,note_on,0,0,1,,,,,,,,,1,,,73,40
947680,note_off,80,0,1,,,,,,,,,1,,,73,0
947680,note_on,0,0,1,,,,,,,,,1,,,71,40
947760,note_off,80,0,1,,,,,,,,,1,,,71,0
947760,note_off,180,0,4,,,,,,,,,4,,,57,0
947760,note_on,0,0,1,,,,,,,,,1,,,73,40
947760,note_on,180,0,3,,,,,,,,,3,,,64,40
947820,note_on,0,0,1,,,,,,,,,1,,,71,39
947820,note_off,60,0,1,,,,,,,,,1,,,73,0
947880,note_on,0,0,1,,,,,,,,,1,,,69,39
947880,note_off,60,0,1,,,,,,,,,1,,,71,0
947940,note_on,0,0,1,,,,,,,,,1,,,71,39
947940,note_off,60,0,1,,,,,,,,,1,,,69,0
948000,note_off,240,0,3,,,,,,,,,3,,,64,0
948000,note_on,0,0,3,,,,,,,,,3,,,67,39
948000,note_off,60,0,1,,,,,,,,,1,,,71,0
948000,note_on,0,0,1,,,,,,,,,1,,,69,39
948240,note_off,240,0,3,,,,,,,,,3,,,67,0
948240,note_on,0,0,3,,,,,,,,,3,,,64,37
948420,control_change,840,0,5,,,,,,,64,0,5,,,,
948420,control_change,660,0,4,,,,,,,64,0,4,,,,
948420,control_change,180,0,3,,,,,,,64,0,3,,,,
948440,set_tempo,1880,1,0,,,,,,821917,,,,,,,
948455,note_off,455,0,1,,,,,,,,,1,,,69,0
948455,note_off,35,0,3,,,,,,,,,3,,,64,0
948480,control_change,25,0,3,,,,,,,64,127,3,,,,
948480,control_change,60,0,5,,,,,,,64,127,5,,,,
948480,note_on,25,0,1,,,,,,,,,1,,,69,36
948480,set_tempo,40,1,0,,,,,,810810,,,,,,,
948480,control_change,60,0,4,,,,,,,64,127,4,,,,
948480,note_on,0,0,4,,,,,,,,,4,,,62,36
948720,note_on,240,0,1,,,,,,,,,1,,,81,41
948720,note_off,240,0,4,,,,,,,,,4,,,62,0
948720,note_on,240,0,3,,,,,,,,,3,,,66,41
948780,note_off,60,0,1,,,,,,,,,1,,,69,0
948960,note_off,240,0,3,,,,,,,,,3,,,66,0
948960,note_on,0,0,3,,,,,,,,,3,,,69,39
949200,note_off,240,0,3,,,,,,,,,3,,,69,0
949200,note_on,0,0,3,,,,,,,,,3,,,66,38
949380,control_change,660,0,4,,,,,,,64,0,4,,,,
949380,control_change,900,0,5,,,,,,,64,0,5,,,,
949380,control_change,180,0,3,,,,,,,64,0,3,,,,
949400,note_off,620,0,1,,,,,,,,,1,,,81,0
949415,note_off,35,0,3,,,,,,,,,3,,,66,0
949440,control_change,60,0,5,,,,,,,64,127,5,,,,
949440,note_on,0,0,4,,,,,,,,,4,,,54,37
949440,control_change,60,0,4,,,,,,,64,127,4,,,,
949440,note_on,40,0,1,,,,,,,,,1,,,79,37
949440,control_change,25,0,3,,,,,,,64,127,3,,,,
949500,note_on,60,0,1,,,,,,,,,1,,,81,36
949520,note_off,20,0,1,,,,,,,,,1,,,79,0
949560,note_on,40,0,1,,,,,,,,,1,,,79,34
949580,note_off,20,0,1,,,,,,,,,1,,,81,0
949620,note_on,40,0,1,,,,,,,,,1,,,78,33
949640,note_off,20,0,1,,,,,,,,,1,,,79,0
949680,note_off,240,0,4,,,,,,,,,4,,,54,0
949680,note_on,240,0,3,,,,,,,,,3,,,57,35
949910,note_off,270,0,1,,,,,,,,,1,,,78,0
949920,note_on,0,0,3,,,,,,,,,3,,,62,34
949920,note_on,10,0,1,,,,,,,,,1,,,76,34
949920,note_off,240,0,3,,,,,,,,,3,,,57,0
949980,note_on,60,0,1,,,,,,,,,1,,,78,32
950000,note_off,20,0,1,,,,,,,,,1,,,76,0
950040,note_on,40,0,1,,,,,,,,,1,,,76,31
950060,note_off,20,0,1,,,,,,,,,1,,,78,0
950100,note_on,40,0,1,,,,,,,,,1,,,74,30
950120,note_off,20,0,1,,,,,,,,,1,,,76,0
950160,note_on,0,0,3,,,,,,,,,3,,,57,32
950160,note_off,240,0,3,,,,,,,,,3,,,62,0
950360,set_tempo,1880,1,0,,,,,,821917,,,,,,,
950370,note_off,250,0,1,,,,,,,,,1,,,74,0
950375,note_off,215,0,3,,,,,,,,,3,,,57,0
950400,control_change,720,0,4,,,,,,,64,0,4,,,,
950400,note_on,0,0,4,,,,,,,,,4,,,55,34
950400,control_change,960,0,5,,,,,,,64,0,5,,,,
950400,control_change,25,0,3,,,,,,,64,0,3,,,,
950400,note_on,30,0,1,,,,,,,,,1,,,71,31
950460,control_change,60,0,5,,,,,,,64,127,5,,,,
950460,control_change,60,0,4,,,,,,,64,127,4,,,,
950460,control_change,60,0,3,,,,,,,64,127,3,,,,
950460,note_on,60,0,1,,,,,,,,,1,,,74,32
950495,note_off,35,0,1,,,,,,,,,1,,,71,0
950520,note_on,25,0,1,,,,,,,,,1,,,73,33
950555,note_off,35,0,1,,,,,,,,,1,,,74,0
950580,note_on,25,0,1,,,,,,,,,1,,,71,33
950615,note_off,35,0,1,,,,,,,,,1,,,73,0
950640,note_off,180,0,4,,,,,,,,,4,,,55,0
950640,note_on,25,0,1,,,,,,,,,1,,,73,34
950640,note_on,180,0,3,,,,,,,,,3,,,59,37
950675,note_off,35,0,1,,,,,,,,,1,,,71,0
950700,note_on,25,0,1,,,,,,,,,1,,,74,35
950735,note_off,35,0,1,,,,,,,,,1,,,73,0
950760,note_on,25,0,1,,,,,,,,,1,,,76,36
950795,note_off,35,0,1,,,,,,,,,1,,,74,0
950820,note_on,25,0,1,,,,,,,,,1,,,78,37
950855,note_off,35,0,1,,,,,,,,,1,,,76,0
950880,note_on,25,0,1,,,,,,,,,1,,,79,38
950880,note_off,240,0,3,,,,,,,,,3,,,59,0
950880,note_on,0,0,3,,,,,,,,,3,,,62,39
950915,note_off,35,0,1,,,,,,,,,1,,,78,0
950940,note_on,25,0,1,,,,,,,,,1,,,81,38
950975,note_off,35,0,1,,,,,,,,,1,,,79,0
951000,note_on,25,0,1,,,,,,,,,1,,,83,39
951035,note_off,35,0,1,,,,,,,,,1,,,81,0
951060,note_on,25,0,1,,,,,,,,,1,,,85,40
951095,note_off,35,0,1,,,,,,,,,1,,,83,0
951120,note_on,25,0,1,,,,,,,,,1,,,86,41
951120,note_off,240,0,3,,,,,,,,,3,,,62,0
951120,note_on,0,0,3,,,,,,,,,3,,,59,42
951155,note_off,35,0,1,,,,,,,,,1,,,85,0
951180,note_on,25,0,1,,,,,,,,,1,,,85,42
951215,note_off,35,0,1,,,,,,,,,1,,,86,0
951240,note_on,25,0,1,,,,,,,,,1,,,86,43
951275,note_off,35,0,1,,,,,,,,,1,,,85,0
951300,control_change,180,0,3,,,,,,,64,0,3,,,,
951300,control_change,840,0,5,,,,,,,64,0,5,,,,
951300,control_change,660,0,4,,,,,,,64,0,4,,,,
951300,note_on,25,0,1,,,,,,,,,1,,,85,44
951320,note_off,20,0,3,,,,,,,,,3,,,59,0
951335,note_off,35,0,1,,,,,,,,,1,,,86,0
951360,note_on,0,0,4,,,,,,,,,4,,,55,44
951360,control_change,60,0,5,,,,,,,64,127,5,,,,
951360,control_change,60,0,4,,,,,,,64,127,4,,,,
951360,control_change,40,0,3,,,,,,,64,127,3,,,,
951360,note_on,25,0,1,,,,,,,,,1,,,88,44
951395,note_off,35,0,1,,,,,,,,,1,,,85,0
951480,note_off,85,0,1,,,,,,,,,1,,,88,0
951480,note_on,0,0,1,,,,,,,,,1,,,86,46
951560,note_off,80,0,1,,,,,,,,,1,,,86,0
951600,note_on,40,0,1,,,,,,,,,1,,,85,47
951600,note_on,240,0,3,,,,,,,,,3,,,59,47
951600,note_off,240,0,4,,,,,,,,,4,,,55,0
951680,note_off,80,0,1,,,,,,,,,1,,,85,0
951720,note_on,40,0,1,,,,,,,,,1,,,83,48
951800,note_off,80,0,1,,,,,,,,,1,,,83,0
951840,note_on,40,0,1,,,,,,,,,1,,,85,49
951840,note_on,0,0,3,,,,,,,,,3,,,64,49
951840,note_off,240,0,3,,,,,,,,,3,,,59,0
951920,note_off,80,0,1,,,,,,,,,1,,,85,0
951960,note_on,40,0,1,,,,,,,,,1,,,83,51
952040,note_off,80,0,1,,,,,,,,,1,,,83,0
952080,note_on,40,0,1,,,,,,,,,1,,,81,52
952080,note_off,240,0,3,,,,,,,,,3,,,64,0
952080,note_on,0,0,3,,,,,,,,,3,,,59,52
952160,note_off,80,0,1,,,,,,,,,1,,,81,0
952200,note_on,40,0,1,,,,,,,,,1,,,79,53
952260,control_change,900,0,5,,,,,,,64,0,5,,,,
952260,control_change,180,0,3,,,,,,,64,0,3,,,,
952260,control_change,660,0,4,,,,,,,64,0,4,,,,
952275,note_off,15,0,3,,,,,,,,,3,,,59,0
952280,set_tempo,1920,1,0,,,,,,845070,,,,,,,
952280,note_off,80,0,1,,,,,,,,,1,,,79,0
952320,set_tempo,40,1,0,,,,,,810810,,,,,,,
952320,note_on,0,0,4,,,,,,,,,4,,,57,57
952320,control_change,60,0,4,,,,,,,64,127,4,,,,
952320,control_change,45,0,3,,,,,,,64,127,3,,,,
952320,note_on,40,0,1,,,,,,,,,1,,,78,57
952320,control_change,60,0,5,,,,,,,64,127,5,,,,
952560,note_on,240,0,3,,,,,,,,,3,,,62,54
952560,note_off,240,0,4,,,,,,,,,4,,,57,0
952620,note_off,300,0,1,,,,,,,,,1,,,78,0
952620,note_on,0,0,1,,,,,,,,,1,,,79,49
952680,note_on,0,0,1,,,,,,,,,1,,,78,50
952680,note_off,60,0,1,,,,,,,,,1,,,79,0
952740,note_off,60,0,1,,,,,,,,,1,,,78,0
952740,note_on,0,0,1,,,,,,,,,1,,,76,51
952800,note_off,60,0,1,,,,,,,,,1,,,76,0
952800,note_on,0,0,1,,,,,,,,,1,,,78,52
952800,note_on,0,0,3,,,,,,,,,3,,,66,52
952800,note_off,240,0,3,,,,,,,,,3,,,62,0
953040,note_on,0,0,3,,,,,,,,,3,,,62,49
953040,note_off,240,0,1,,,,,,,,,1,,,78,0
953040,note_off,240,0,3,,,,,,,,,3,,,66,0
953040,note_on,0,0,1,,,,,,,,,1,,,79,49
953220,control_change,180,0,3,,,,,,,64,0,3,,,,
953220,control_change,660,0,4,,,,,,,64,0,4,,,,
953220,control_change,900,0,5,,,,,,,64,0,5,,,,
953255,note_off,35,0,3,,,,,,,,,3,,,62,0
953280,control_change,60,0,4,,,,,,,64,127,4,,,,
953280,note_on,0,0,4,,,,,,,,,4,,,57,47
953280,control_change,25,0,3,,,,,,,64,127,3,,,,
953280,control_change,60,0,5,,,,,,,64,127,5,,,,
953280,note_off,240,0,1,,,,,,,,,1,,,79,0
953280,note_on,0,0,1,,,,,,,,,1,,,80,47
953520,note_off,240,0,1,,,,,,,,,1,,,80,0
953520,note_off,240,0,4,,,,,,,,,4,,,57,0
953520,note_on,0,0,1,,,,,,,,,1,,,81,44
953520,note_on,240,0,3,,,,,,,,,3,,,61,44
953760,note_on,0,0,1,,,,,,,,,1,,,76,42
953760,note_off,240,0,1,,,,,,,,,1,,,81,0
953760,note_off,240,0,3,,,,,,,,,3,,,61,0
953760,note_on,0,0,3,,,,,,,,,3,,,64,42
954000,note_on,0,0,3,,,,,,,,,3,,,61,39
954000,note_off,240,0,3,,,,,,,,,3,,,64,0
954180,control_change,180,0,3,,,,,,,64,0,3,,,,
954180,control_change,660,0,4,,,,,,,64,0,4,,,,
954180,control_change,900,0,5,,,,,,,64,0,5,,,,
954215,note_off,35,0,3,,,,,,,,,3,,,61,0
954220,set_tempo,1900,1,0,,,,,,845070,,,,,,,
954240,note_on,60,0,4,,,,,,,,,4,,,57,36
954240,set_tempo,20,1,0,,,,,,869565,,,,,,,
954432,note_off,672,0,1,,,,,,,,,1,,,76,0
954480,note_on,48,0,1,,,,,,,,,1,,,76,38
954720,note_off,240,0,1,,,,,,,,,1,,,76,0
954720,note_on,0,0,1,,,,,,,,,1,,,75,39
954960,note_off,240,0,1,,,,,,,,,1,,,75,0
954960,note_on,0,0,1,,,,,,,,,1,,,76,40
955200,note_off,240,0,1,,,,,,,,,1,,,76,0
955200,note_on,0,0,1,,,,,,,,,1,,,77,42
955200,note_off,960,0,4,,,,,,,,,4,,,57,0
955440,note_off,240,0,1,,,,,,,,,1,,,77,0
955440,note_on,0,0,1,,,,,,,,,1,,,78,43
955680,note_on,0,0,1,,,,,,,,,1,,,79,44
955680,note_off,240,0,1,,,,,,,,,1,,,78,0
955920,note_off,240,0,1,,,,,,,,,1,,,79,0
955920,note_on,0,0,1,,,,,,,,,1,,,80,45
956030,set_tempo,1790,1,0,,,,,,952380,,,,,,,
956120,note_off,200,0,1,,,,,,,,,1,,,80,0
956160,control_change,1945,0,3,,,,,,,64,0,3,,,,
956160,set_tempo,130,1,0,,,,,,810810,,,,,,,
956160,control_change,960,0,4,,,,,,,64,0,4,,,,
956160,note_on,40,0,1,,,,,,,,,1,,,81,47
956160,control_change,1980,0,5,,,,,,,64,0,5,,,,
956160,note_on,0,0,4,,,,,,,,,4,,,54,47
956220,control_change,60,0,4,,,,,,,64,127,4,,,,
956220,control_change,60,0,5,,,,,,,64,127,5,,,,
956220,control_change,60,0,3,,,,,,,64,127,3,,,,
956400,note_on,180,0,3,,,,,,,,,3,,,57,46
956400,note_off,180,0,4,,,,,,,,,4,,,54,0
956640,note_on,0,0,3,,,,,,,,,3,,,62,45
956640,note_off,240,0,3,,,,,,,,,3,,,57,0
956880,note_on,0,0,3,,,,,,,,,3,,,57,43
956880,note_off,720,0,1,,,,,,,,,1,,,81,0
956880,note_on,0,0,1,,,,,,,,,1,,,83,43
956880,note_off,240,0,3,,,,,,,,,3,,,62,0
957000,note_on,0,0,1,,,,,,,,,1,,,81,43
957000,note_off,120,0,1,,,,,,,,,1,,,83,0
957080,note_off,200,0,3,,,,,,,,,3,,,57,0
957120,control_change,40,0,3,,,,,,,64,0,3,,,,
957120,control_change,720,0,4,,,,,,,64,0,4,,,,
957120,note_on,0,0,4,,,,,,,,,4,,,54,42
957120,control_change,900,0,5,,,,,,,64,0,5,,,,
957120,note_off,120,0,1,,,,,,,,,1,,,81,0
957120,note_on,0,0,1,,,,,,,,,1,,,79,42
957180,control_change,60,0,4,,,,,,,64,127,4,,,,
957180,control_change,60,0,3,,,,,,,64,127,3,,,,
957180,control_change,60,0,5,,,,,,,64,127,5,,,,
957360,note_off,180,0,4,,,,,,,,,4,,,54,0
957360,note_on,180,0,3,,,,,,,,,3,,,57,41
957360,note_on,0,0,1,,,,,,,,,1,,,78,41
957360,note_off,240,0,1,,,,,,,,,1,,,79,0
957600,note_off,240,0,3,,,,,,,,,3,,,57,0
957600,note_on,0,0,3,,,,,,,,,3,,,62,39
957600,note_on,0,0,1,,,,,,,,,1,,,76,39
957600,note_off,240,0,1,,,,,,,,,1,,,78,0
957840,note_on,0,0,3,,,,,,,,,3,,,57,38
957840,note_off,240,0,1,,,,,,,,,1,,,76,0
957840,note_on,0,0,1,,,,,,,,,1,,,74,38
957840,note_off,240,0,3,,,,,,,,,3,,,62,0
958020,control_change,660,0,4,,,,,,,64,0,4,,,,
958020,control_change,840,0,5,,,,,,,64,0,5,,,,
958020,control_change,180,0,3,,,,,,,64,0,3,,,,
958040,set_tempo,1880,1,0,,,,,,821917,,,,,,,
958050,note_off,210,0,1,,,,,,,,,1,,,74,0
958050,note_off,30,0,3,,,,,,,,,3,,,57,0
958080,set_tempo,40,1,0,,,,,,810810,,,,,,,
958080,control_change,30,0,3,,,,,,,64,127,3,,,,
958080,note_on,0,0,4,,,,,,,,,4,,,53,40
958080,control_change,60,0,5,,,,,,,64,127,5,,,,
958080,note_on,30,0,1,,,,,,,,,1,,,73,43
958080,control_change,60,0,4,,,,,,,64,127,4,,,,
958140,note_on,60,0,1,,,,,,,,,1,,,74,41
958175,note_off,35,0,1,,,,,,,,,1,,,73,0
958200,note_on,25,0,1,,,,,,,,,1,,,76,41
958235,note_off,35,0,1,,,,,,,,,1,,,74,0
958260,note_on,25,0,1,,,,,,,,,1,,,74,41
958295,note_off,35,0,1,,,,,,,,,1,,,76,0
958320,note_on,240,0,3,,,,,,,,,3,,,57,42
958320,note_on,25,0,1,,,,,,,,,1,,,76,41
958320,note_off,240,0,4,,,,,,,,,4,,,53,0
958355,note_off,35,0,1,,,,,,,,,1,,,74,0
958380,note_on,25,0,1,,,,,,,,,1,,,74,40
958415,note_off,35,0,1,,,,,,,,,1,,,76,0
958440,note_on,25,0,1,,,,,,,,,1,,,76,40
958475,note_off,35,0,1,,,,,,,,,1,,,74,0
958500,note_on,25,0,1,,,,,,,,,1,,,74,40
958535,note_off,35,0,1,,,,,,,,,1,,,76,0
958560,note_on,25,0,1,,,,,,,,,1,,,76,40
958560,note_on,0,0,3,,,,,,,,,3,,,62,43
958560,note_off,240,0,3,,,,,,,,,3,,,57,0
958595,note_off,35,0,1,,,,,,,,,1,,,74,0
958620,note_on,25,0,1,,,,,,,,,1,,,74,39
958655,note_off,35,0,1,,,,,,,,,1,,,76,0
958680,note_on,25,0,1,,,,,,,,,1,,,76,39
958715,note_off,35,0,1,,,,,,,,,1,,,74,0
958740,note_on,25,0,1,,,,,,,,,1,,,74,39
958775,note_off,35,0,1,,,,,,,,,1,,,76,0
958800,note_on,25,0,1,,,,,,,,,1,,,76,39
958800,note_off,240,0,3,,,,,,,,,3,,,62,0
958800,note_on,0,0,3,,,,,,,,,3,,,57,44
958835,note_off,35,0,1,,,,,,,,,1,,,74,0
958860,note_on,25,0,1,,,,,,,,,1,,,74,38
958895,note_off,35,0,1,,,,,,,,,1,,,76,0
958920,note_on,25,0,1,,,,,,,,,1,,,73,38
958955,note_off,35,0,1,,,,,,,,,1,,,74,0
958980,note_on,25,0,1,,,,,,,,,1,,,74,38
959010,note_off,30,0,1,,,,,,,,,1,,,73,0
959040,note_on,0,0,1,,,,,,,,,1,,,74,38
959040,control_change,960,0,5,,,,,,,64,0,5,,,,
959040,note_off,30,0,1,,,,,,,,,1,,,74,0
959040,control_change,240,0,3,,,,,,,64,0,3,,,,
959040,note_off,0,0,3,,,,,,,,,3,,,57,0
959040,control_change,720,0,4,,,,,,,64,0,4,,,,
959040,note_on,0,0,4,,,,,,,,,4,,,53,46
959100,control_change,60,0,3,,,,,,,64,127,3,,,,
959100,note_on,60,0,1,,,,,,,,,1,,,76,39
959100,control_change,60,0,5,,,,,,,64,127,5,,,,
959100,control_change,60,0,4,,,,,,,64,127,4,,,,
959135,note_off,35,0,1,,,,,,,,,1,,,74,0
959160,note_on,25,0,1,,,,,,,,,1,,,74,41
959195,note_off,35,0,1,,,,,,,,,1,,,76,0
959220,note_on,25,0,1,,,,,,,,,1,,,73,43
959255,note_off,35,0,1,,,,,,,,,1,,,74,0
959280,note_off,180,0,4,,,,,,,,,4,,,53,0
959280,note_on,25,0,1,,,,,,,,,1,,,74,45
959280,note_on,180,0,3,,,,,,,,,3,,,57,53
959315,note_off,35,0,1,,,,,,,,,1,,,73,0
959340,note_on,25,0,1,,,,,,,,,1,,,75,48
959375,note_off,35,0,1,,,,,,,,,1,,,74,0
959400,note_on,25,0,1,,,,,,,,,1,,,76,50
959435,note_off,35,0,1,,,,,,,,,1,,,75,0
959460,note_on,25,0,1,,,,,,,,,1,,,77,52
959480,note_off,20,0,1,,,,,,,,,1,,,76,0
959520,note_on,40,0,1,,,,,,,,,1,,,78,54
959520,note_on,0,0,3,,,,,,,,,3,,,62,59
959520,note_off,240,0,3,,,,,,,,,3,,,57,0
959555,note_off,35,0,1,,,,,,,,,1,,,77,0
959580,note_on,25,0,1,,,,,,,,,1,,,79,57
959615,note_off,35,0,1,,,,,,,,,1,,,78,0
959640,note_on,25,0,1,,,,,,,,,1,,,80,59
959675,note_off,35,0,1,,,,,,,,,1,,,79,0
959700,note_on,25,0,1,,,,,,,,,1,,,81,61
959735,note_off,35,0,1,,,,,,,,,1,,,80,0
959760,note_on,25,0,1,,,,,,,,,1,,,82,63
959760,note_off,240,0,3,,,,,,,,,3,,,62,0
959760,note_on,0,0,3,,,,,,,,,3,,,57,66
959795,note_off,35,0,1,,,,,,,,,1,,,81,0
959820,note_on,25,0,1,,,,,,,,,1,,,83,66
959855,note_off,35,0,1,,,,,,,,,1,,,82,0
959880,note_on,25,0,1,,,,,,,,,1,,,84,68
959915,note_off,35,0,1,,,,,,,,,1,,,83,0
959940,control_change,180,0,3,,,,,,,64,0,3,,,,
959940,control_change,840,0,5,,,,,,,64,0,5,,,,
959940,note_on,25,0,1,,,,,,,,,1,,,85,70
959940,control_change,660,0,4,,,,,,,64,0,4,,,,
959960,set_tempo,1880,1,0,,,,,,821917,,,,,,,
959975,note_off,35,0,1,,,,,,,,,1,,,84,0
960000,note_off,25,0,1,,,,,,,,,1,,,85,0
960000,control_change,60,0,4,,,,,,,64,127,4,,,,
960000,set_tempo,40,1,0,,,,,,810810,,,,,,,
960000,note_on,0,0,4,,,,,,,,,4,,,52,73
960000,control_change,60,0,3,,,,,,,64,127,3,,,,
960000,note_off,0,0,3,,,,,,,,,3,,,57,0
960000,note_on,0,0,1,,,,,,,,,1,,,85,73
960000,control_change,60,0,5,,,,,,,64,127,5,,,,
960060,note_on,60,0,1,,,,,,,,,1,,,86,72
960095,note_off,35,0,1,,,,,,,,,1,,,85,0
960120,note_on,25,0,1,,,,,,,,,1,,,88,71
960155,note_off,35,0,1,,,,,,,,,1,,,86,0
960180,note_on,25,0,1,,,,,,,,,1,,,86,70
960215,note_off,35,0,1,,,,,,,,,1,,,88,0
960240,note_off,240,0,4,,,,,,,,,4,,,52,0
960240,note_on,25,0,1,,,,,,,,,1,,,88,68
960240,note_on,240,0,3,,,,,,,,,3,,,56,68
960275,note_off,35,0,1,,,,,,,,,1,,,86,0
960300,note_on,25,0,1,,,,,,,,,1,,,86,67
960335,note_off,35,0,1,,,,,,,,,1,,,88,0
960360,note_on,25,0,1,,,,,,,,,1,,,88,66
960395,note_off,35,0,1,,,,,,,,,1,,,86,0
960420,note_on,25,0,1,,,,,,,,,1,,,86,65
960455,note_off,35,0,1,,,,,,,,,1,,,88,0
960480,note_on,25,0,1,,,,,,,,,1,,,88,64
960480,note_on,0,0,3,,,,,,,,,3,,,59,64
960480,note_off,240,0,3,,,,,,,,,3,,,56,0
960515,note_off,35,0,1,,,,,,,,,1,,,86,0
960540,note_on,25,0,1,,,,,,,,,1,,,86,63
960575,note_off,35,0,1,,,,,,,,,1,,,88,0
960600,note_on,25,0,1,,,,,,,,,1,,,88,62
960635,note_off,35,0,1,,,,,,,,,1,,,86,0
960660,note_on,25,0,1,,,,,,,,,1,,,86,61
960695,note_off,35,0,1,,,,,,,,,1,,,88,0
960720,note_on,0,0,3,,,,,,,,,3,,,56,59
960720,note_off,240,0,3,,,,,,,,,3,,,59,0
960720,note_on,25,0,1,,,,,,,,,1,,,88,59
960755,note_off,35,0,1,,,,,,,,,1,,,86,0
960780,note_on,25,0,1,,,,,,,,,1,,,86,58
960815,note_off,35,0,1,,,,,,,,,1,,,88,0
960840,note_on,25,0,1,,,,,,,,,1,,,85,57
960875,note_off,35,0,1,,,,,,,,,1,,,86,0
960900,note_on,25,0,1,,,,,,,,,1,,,86,56
960920,set_tempo,920,1,0,,,,,,821917,,,,,,,
960935,note_off,35,0,1,,,,,,,,,1,,,85,0
960960,set_tempo,40,1,0,,,,,,810810,,,,,,,
960960,control_change,240,0,3,,,,,,,64,0,3,,,,
960960,control_change,720,0,4,,,,,,,64,0,4,,,,
960960,note_on,0,0,4,,,,,,,,,4,,,52,65
960960,control_change,960,0,5,,,,,,,64,0,5,,,,
960960,note_on,25,0,1,,,,,,,,,1,,,81,65
960975,note_off,15,0,1,,,,,,,,,1,,,86,0
960975,note_off,15,0,3,,,,,,,,,3,,,56,0
961020,control_change,60,0,5,,,,,,,64,127,5,,,,
961020,note_on,45,0,1,,,,,,,,,1,,,83,64
961020,control_change,45,0,3,,,,,,,64,127,3,,,,
961020,control_change,60,0,4,,,,,,,64,127,4,,,,
961055,note_off,35,0,1,,,,,,,,,1,,,81,0
961080,note_on,25,0,1,,,,,,,,,1,,,85,62
961115,note_off,35,0,1,,,,,,,,,1,,,83,0
961140,note_on,25,0,1,,,,,,,,,1,,,83,61
961175,note_off,35,0,1,,,,,,,,,1,,,85,0
961200,note_on,180,0,3,,,,,,,,,3,,,56,60
961200,note_off,180,0,4,,,,,,,,,4,,,52,0
961200,note_on,25,0,1,,,,,,,,,1,,,85,60
961235,note_off,35,0,1,,,,,,,,,1,,,83,0
961260,note_on,25,0,1,,,,,,,,,1,,,83,59
961295,note_off,35,0,1,,,,,,,,,1,,,85,0
961320,note_on,25,0,1,,,,,,,,,1,,,85,57
961355,note_off,35,0,1,,,,,,,,,1,,,83,0
961380,note_on,25,0,1,,,,,,,,,1,,,83,56
961415,note_off,35,0,1,,,,,,,,,1,,,85,0
961440,note_on,0,0,3,,,,,,,,,3,,,59,55
961440,note_off,240,0,3,,,,,,,,,3,,,56,0
961440,note_on,25,0,1,,,,,,,,,1,,,85,55
961475,note_off,35,0,1,,,,,,,,,1,,,83,0
961500,note_on,25,0,1,,,,,,,,,1,,,83,54
961535,note_off,35,0,1,,,,,,,,,1,,,85,0
961560,note_on,25,0,1,,,,,,,,,1,,,85,52
961595,note_off,35,0,1,,,,,,,,,1,,,83,0
961620,note_on,25,0,1,,,,,,,,,1,,,83,51
961655,note_off,35,0,1,,,,,,,,,1,,,85,0
961680,note_on,25,0,1,,,,,,,,,1,,,85,50
961680,note_off,240,0,3,,,,,,,,,3,,,59,0
961680,note_on,0,0,3,,,,,,,,,3,,,56,50
961715,note_off,35,0,1,,,,,,,,,1,,,83,0
961740,note_on,25,0,1,,,,,,,,,1,,,83,49
961775,note_off,35,0,1,,,,,,,,,1,,,85,0
961800,note_on,25,0,1,,,,,,,,,1,,,81,47
961835,note_off,35,0,1,,,,,,,,,1,,,83,0
961860,control_change,180,0,3,,,,,,,64,0,3,,,,
961860,control_change,840,0,5,,,,,,,64,0,5,,,,
961860,note_on,25,0,1,,,,,,,,,1,,,83,46
961860,control_change,660,0,4,,,,,,,64,0,4,,,,
961875,note_off,15,0,3,,,,,,,,,3,,,56,0
961880,set_tempo,920,1,0,,,,,,821917,,,,,,,
961895,note_off,35,0,1,,,,,,,,,1,,,81,0
961920,control_change,45,0,3,,,,,,,64,127,3,,,,
961920,control_change,60,0,4,,,,,,,64,127,4,,,,
961920,note_on,0,0,4,,,,,,,,,4,,,52,55
961920,set_tempo,40,1,0,,,,,,810810,,,,,,,
961920,control_change,60,0,5,,,,,,,64,127,5,,,,
961920,note_on,0,0,1,,,,,,,,,1,,,78,55
961920,note_off,25,0,1,,,,,,,,,1,,,83,0
961980,note_on,60,0,1,,,,,,,,,1,,,80,54
962015,note_off,35,0,1,,,,,,,,,1,,,78,0
962040,note_on,25,0,1,,,,,,,,,1,,,81,53
962075,note_off,35,0,1,,,,,,,,,1,,,80,0
962100,note_on,25,0,1,,,,,,,,,1,,,80,52
962135,note_off,35,0,1,,,,,,,,,1,,,81,0
962160,note_off,240,0,4,,,,,,,,,4,,,52,0
962160,note_on,25,0,1,,,,,,,,,1,,,81,50
962160,note_on,240,0,3,,,,,,,,,3,,,56,50
962195,note_off,35,0,1,,,,,,,,,1,,,80,0
962220,note_on,25,0,1,,,,,,,,,1,,,80,49
962255,note_off,35,0,1,,,,,,,,,1,,,81,0
962280,note_on,25,0,1,,,,,,,,,1,,,81,48
962315,note_off,35,0,1,,,,,,,,,1,,,80,0
962340,note_on,25,0,1,,,,,,,,,1,,,80,47
962375,note_off,35,0,1,,,,,,,,,1,,,81,0
962400,note_on,0,0,3,,,,,,,,,3,,,59,46
962400,note_off,240,0,3,,,,,,,,,3,,,56,0
962400,note_on,25,0,1,,,,,,,,,1,,,81,46
962435,note_off,35,0,1,,,,,,,,,1,,,80,0
962460,note_on,25,0,1,,,,,,,,,1,,,80,45
962495,note_off,35,0,1,,,,,,,,,1,,,81,0
962520,note_on,25,0,1,,,,,,,,,1,,,81,44
962555,note_off,35,0,1,,,,,,,,,1,,,80,0
962580,note_on,25,0,1,,,,,,,,,1,,,80,42
962615,note_off,35,0,1,,,,,,,,,1,,,81,0
962640,note_on,25,0,1,,,,,,,,,1,,,81,41
962640,note_on,0,0,3,,,,,,,,,3,,,56,41
962640,note_off,240,0,3,,,,,,,,,3,,,59,0
962675,note_off,35,0,1,,,,,,,,,1,,,80,0
962700,note_on,25,0,1,,,,,,,,,1,,,80,40
962735,note_off,35,0,1,,,,,,,,,1,,,81,0
962760,note_on,25,0,1,,,,,,,,,1,,,78,39
962795,note_off,35,0,1,,,,,,,,,1,,,80,0
962820,control_change,660,0,4,,,,,,,64,0,4,,,,
962820,control_change,180,0,3,,,,,,,64,0,3,,,,
962820,control_change,900,0,5,,,,,,,64,0,5,,,,
962820,note_on,25,0,1,,,,,,,,,1,,,80,38
962840,set_tempo,920,1,0,,,,,,821917,,,,,,,
962855,note_off,35,0,1,,,,,,,,,1,,,78,0
962870,note_off,50,0,3,,,,,,,,,3,,,56,0
962880,control_change,60,0,5,,,,,,,64,127,5,,,,
962880,control_change,10,0,3,,,,,,,64,127,3,,,,
962880,set_tempo,40,1,0,,,,,,810810,,,,,,,
962880,note_on,0,0,4,,,,,,,,,4,,,56,43
962880,note_on,25,0,1,,,,,,,,,1,,,73,43
962880,control_change,60,0,4,,,,,,,64,127,4,,,,
962885,note_off,5,0,1,,,,,,,,,1,,,80,0
962940,note_on,55,0,1,,,,,,,,,1,,,74,42
962975,note_off,35,0,1,,,,,,,,,1,,,73,0
963000,note_on,25,0,1,,,,,,,,,1,,,76,42
963035,note_off,35,0,1,,,,,,,,,1,,,74,0
963060,note_on,25,0,1,,,,,,,,,1,,,74,41
963095,note_off,35,0,1,,,,,,,,,1,,,76,0
963120,note_on,240,0,3,,,,,,,,,3,,,59,40
963120,note_on,25,0,1,,,,,,,,,1,,,76,40
963120,note_off,240,0,4,,,,,,,,,4,,,56,0
963155,note_off,35,0,1,,,,,,,,,1,,,74,0
963180,note_on,25,0,1,,,,,,,,,1,,,74,39
963215,note_off,35,0,1,,,,,,,,,1,,,76,0
963240,note_on,25,0,1,,,,,,,,,1,,,76,38
963275,note_off,35,0,1,,,,,,,,,1,,,74,0
963300,note_on,25,0,1,,,,,,,,,1,,,74,38
963335,note_off,35,0,1,,,,,,,,,1,,,76,0
963360,note_on,25,0,1,,,,,,,,,1,,,76,37
963360,note_on,0,0,3,,,,,,,,,3,,,64,37
963360,note_off,240,0,3,,,,,,,,,3,,,59,0
963395,note_off,35,0,1,,,,,,,,,1,,,74,0
963420,note_on,25,0,1,,,,,,,,,1,,,74,36
963455,note_off,35,0,1,,,,,,,,,1,,,76,0
963480,note_on,25,0,1,,,,,,,,,1,,,76,35
963515,note_off,35,0,1,,,,,,,,,1,,,74,0
963540,note_on,25,0,1,,,,,,,,,1,,,74,34
963575,note_off,35,0,1,,,,,,,,,1,,,76,0
963600,note_on,25,0,1,,,,,,,,,1,,,76,33
963600,note_off,240,0,3,,,,,,,,,3,,,64,0
963600,note_on,0,0,3,,,,,,,,,3,,,59,33
963635,note_off,35,0,1,,,,,,,,,1,,,74,0
963660,note_on,25,0,1,,,,,,,,,1,,,74,33
963695,note_off,35,0,1,,,,,,,,,1,,,76,0
963720,note_on,25,0,1,,,,,,,,,1,,,73,32
963755,note_off,35,0,1,,,,,,,,,1,,,74,0
963780,control_change,660,0,4,,,,,,,64,0,4,,,,
963780,note_on,25,0,1,,,,,,,,,1,,,74,31
963780,control_change,180,0,3,,,,,,,64,0,3,,,,
963780,control_change,900,0,5,,,,,,,64,0,5,,,,
963800,note_off,20,0,3,,,,,,,,,3,,,59,0
963800,set_tempo,920,1,0,,,,,,821917,,,,,,,
963815,note_off,35,0,1,,,,,,,,,1,,,73,0
963840,note_on,25,0,1,,,,,,,,,1,,,73,30
963840,note_on,60,0,4,,,,,,,,,4,,,57,30
963840,set_tempo,40,1,0,,,,,,810810,,,,,,,
963845,note_off,5,0,1,,,,,,,,,1,,,74,0
963960,note_off,115,0,1,,,,,,,,,1,,,73,0
963960,note_on,0,0,1,,,,,,,,,1,,,74,30
964040,note_off,80,0,1,,,,,,,,,1,,,74,0
964080,note_on,40,0,1,,,,,,,,,1,,,73,31
964160,note_off,80,0,1,,,,,,,,,1,,,73,0
964200,note_on,40,0,1,,,,,,,,,1,,,74,31
964280,note_off,80,0,1,,,,,,,,,1,,,74,0
964320,note_on,40,0,1,,,,,,,,,1,,,75,32
964440,note_off,120,0,1,,,,,,,,,1,,,75,0
964440,note_on,0,0,1,,,,,,,,,1,,,76,33
964520,note_off,80,0,1,,,,,,,,,1,,,76,0
964560,note_on,40,0,1,,,,,,,,,1,,,75,33
964640,note_off,80,0,1,,,,,,,,,1,,,75,0
964680,note_on,40,0,1,,,,,,,,,1,,,76,34
964760,note_off,80,0,1,,,,,,,,,1,,,76,0
964800,note_on,40,0,1,,,,,,,,,1,,,77,34
964800,note_on,0,0,4,,,,,,,,,4,,,50,34
964800,note_off,960,0,4,,,,,,,,,4,,,57,0
964920,note_off,120,0,1,,,,,,,,,1,,,77,0
964920,note_on,0,0,1,,,,,,,,,1,,,78,35
965000,note_off,80,0,1,,,,,,,,,1,,,78,0
965040,note_on,40,0,1,,,,,,,,,1,,,77,36
965120,note_off,80,0,1,,,,,,,,,1,,,77,0
965160,note_on,40,0,1,,,,,,,,,1,,,78,36
965240,note_off,80,0,1,,,,,,,,,1,,,78,0
965280,note_on,40,0,1,,,,,,,,,1,,,80,37
965400,note_off,120,0,1,,,,,,,,,1,,,80,0
965400,note_on,0,0,1,,,,,,,,,1,,,81,38
965480,note_off,80,0,1,,,,,,,,,1,,,81,0
965520,note_on,40,0,1,,,,,,,,,1,,,80,38
965600,note_off,80,0,1,,,,,,,,,1,,,80,0
965640,note_on,40,0,1,,,,,,,,,1,,,81,39
965720,set_tempo,1880,1,0,,,,,,821917,,,,,,,
965720,note_off,80,0,1,,,,,,,,,1,,,81,0
965760,note_off,960,0,4,,,,,,,,,4,,,50,0
965760,note_on,0,0,4,,,,,,,,,4,,,52,38
965760,note_on,40,0,1,,,,,,,,,1,,,73,38
965760,note_on,1960,0,3,,,,,,,,,3,,,57,38
966000,note_off,240,0,1,,,,,,,,,1,,,73,0
966000,note_on,0,0,1,,,,,,,,,1,,,74,39
966240,note_on,0,0,1,,,,,,,,,1,,,75,41
966240,note_off,240,0,1,,,,,,,,,1,,,74,0
966480,note_off,240,0,1,,,,,,,,,1,,,75,0
966480,note_on,0,0,1,,,,,,,,,1,,,76,43
966720,note_off,960,0,4,,,,,,,,,4,,,52,0
966720,note_on,0,0,3,,,,,,,,,3,,,56,44
966720,note_off,960,0,3,,,,,,,,,3,,,57,0
966720,note_on,0,0,1,,,,,,,,,1,,,76,44
966720,note_off,240,0,1,,,,,,,,,1,,,76,0
966720,note_on,0,0,4,,,,,,,,,4,,,52,44
966960,note_off,240,0,1,,,,,,,,,1,,,76,0
966960,note_on,0,0,1,,,,,,,,,1,,,74,46
967200,note_on,0,0,1,,,,,,,,,1,,,73,48
967200,note_off,240,0,1,,,,,,,,,1,,,74,0
967440,note_on,0,0,1,,,,,,,,,1,,,71,49
967440,note_off,240,0,1,,,,,,,,,1,,,73,0
967640,set_tempo,1920,1,0,,,,,,845070,,,,,,,
967680,note_off,960,0,4,,,,,,,,,4,,,52,0
967680,note_on,0,0,4,,,,,,,,,4,,,45,53
967680,note_on,0,0,2,,,,,,,,,2,,,64,53
967680,note_off,960,0,3,,,,,,,,,3,,,56,0
967680,note_on,0,0,1,,,,,,,,,1,,,71,53
967680,note_on,28975,0,2,,,,,,,,,2,,,62,53
967680,note_off,240,0,1,,,,,,,,,1,,,71,0
967680,note_on,0,0,3,,,,,,,,,3,,,57,53
967680,note_on,0,0,3,,,,,,,,,3,,,52,53
968640,set_tempo,1000,1,0,,,,,,967741,,,,,,,
968640,note_on,0,0,1,,,,,,,,,1,,,69,40
968640,note_off,960,0,1,,,,,,,,,1,,,71,0
968640,note_off,960,0,2,,,,,,,,,2,,,62,0
968640,note_on,0,0,2,,,,,,,,,2,,,61,40
969455,note_off,815,0,2,,,,,,,,,2,,,64,0
969465,note_off,10,0,2,,,,,,,,,2,,,61,0
969465,note_off,825,0,1,,,,,,,,,1,,,69,0
969480,note_off,1800,0,3,,,,,,,,,3,,,57,0
969480,note_off,0,0,3,,,,,,,,,3,,,52,0
969480,note_off,1800,0,4,,,,,,,,,4,,,45,0
969600,set_tempo,960,1,0,,,,,,821917,,,,,,,
969600,note_on,135,0,1,,,,,,,,,1,,,81,40
970080,note_off,480,0,1,,,,,,,,,1,,,81,0
970080,note_on,0,0,1,,,,,,,,,1,,,83,43
970560,note_off,480,0,1,,,,,,,,,1,,,83,0
970560,note_on,0,0,1,,,,,,,,,1,,,84,46
971040,note_off,480,0,1,,,,,,,,,1,,,84,0
971040,note_on,0,0,1,,,,,,,,,1,,,76,49
971460,note_off,420,0,1,,,,,,,,,1,,,76,0
971480,set_tempo,1880,1,0,,,,,,845070,,,,,,,
971520,note_on,60,0,1,,,,,,,,,1,,,75,56
971520,note_on,2040,0,4,,,,,,,,,4,,,69,56
971520,note_on,2040,0,3,,,,,,,,,3,,,72,56
971520,set_tempo,40,1,0,,,,,,810810,,,,,,,
972480,note_off,960,0,1,,,,,,,,,1,,,75,0
972480,note_on,0,0,4,,,,,,,,,4,,,68,40
972480,note_off,960,0,4,,,,,,,,,4,,,69,0
972480,note_off,960,0,3,,,,,,,,,3,,,72,0
972480,note_on,0,0,3,,,,,,,,,3,,,71,40
972480,note_on,0,0,1,,,,,,,,,1,,,76,40
972960,note_off,480,0,4,,,,,,,,,4,,,68,0
972960,note_off,480,0,3,,,,,,,,,3,,,71,0
972960,note_off,480,0,1,,,,,,,,,1,,,76,0
973320,note_on,360,0,1,,,,,,,,,1,,,83,54
973400,set_tempo,1880,1,0,,,,,,821917,,,,,,,
973440,note_on,480,0,3,,,,,,,,,3,,,70,56
973440,set_tempo,40,1,0,,,,,,810810,,,,,,,
973440,note_on,0,0,1,,,,,,,,,1,,,73,56
973440,note_off,120,0,1,,,,,,,,,1,,,83,0
973440,note_on,480,0,4,,,,,,,,,4,,,67,56
974400,note_off,960,0,3,,,,,,,,,3,,,70,0
974400,note_on,0,0,4,,,,,,,,,4,,,66,38
974400,note_off,960,0,4,,,,,,,,,4,,,67,0
974400,note_on,0,0,3,,,,,,,,,3,,,69,38
974400,note_off,960,0,1,,,,,,,,,1,,,73,0
974400,note_on,0,0,1,,,,,,,,,1,,,74,38
974880,note_off,480,0,4,,,,,,,,,4,,,66,0
974880,note_off,480,0,1,,,,,,,,,1,,,74,0
974880,note_off,480,0,3,,,,,,,,,3,,,69,0
975240,note_on,360,0,1,,,,,,,,,1,,,81,47
975320,set_tempo,1880,1,0,,,,,,821917,,,,,,,
975360,note_on,480,0,3,,,,,,,,,3,,,74,50
975360,note_on,480,0,4,,,,,,,,,4,,,71,50
975360,set_tempo,40,1,0,,,,,,810810,,,,,,,
975360,note_off,120,0,1,,,,,,,,,1,,,81,0
975360,note_on,0,0,1,,,,,,,,,1,,,86,50
975550,note_off,190,0,1,,,,,,,,,1,,,86,0
975600,note_on,50,0,1,,,,,,,,,1,,,86,49
975840,note_on,0,0,4,,,,,,,,,4,,,69,47
975840,note_off,480,0,4,,,,,,,,,4,,,71,0
976080,note_off,480,0,1,,,,,,,,,1,,,86,0
976080,note_on,0,0,1,,,,,,,,,1,,,85,46
976130,note_off,770,0,3,,,,,,,,,3,,,74,0
976320,note_on,0,0,4,,,,,,,,,4,,,67,45
976320,note_off,480,0,4,,,,,,,,,4,,,69,0
976320,note_on,190,0,3,,,,,,,,,3,,,74,45
976560,note_on,0,0,1,,,,,,,,,1,,,83,44
976560,note_off,480,0,1,,,,,,,,,1,,,85,0
976800,note_on,0,0,4,,,,,,,,,4,,,66,43
976800,note_off,480,0,4,,,,,,,,,4,,,67,0
977040,note_on,0,0,1,,,,,,,,,1,,,82,42
977040,note_off,480,0,1,,,,,,,,,1,,,83,0
977090,note_off,770,0,3,,,,,,,,,3,,,74,0
977240,note_off,440,0,4,,,,,,,,,4,,,66,0
977240,set_tempo,1880,1,0,,,,,,821917,,,,,,,
977280,note_on,190,0,3,,,,,,,,,3,,,74,42
977280,set_tempo,40,1,0,,,,,,810810,,,,,,,
977280,note_on,40,0,4,,,,,,,,,4,,,67,42
977520,note_on,0,0,1,,,,,,,,,1,,,83,44
977520,note_off,480,0,1,,,,,,,,,1,,,82,0
977760,note_off,480,0,4,,,,,,,,,4,,,67,0
977760,note_on,0,0,4,,,,,,,,,4,,,66,45
978000,note_on,0,0,1,,,,,,,,,1,,,81,47
978000,note_off,480,0,1,,,,,,,,,1,,,83,0
978050,note_off,770,0,3,,,,,,,,,3,,,74,0
978240,note_on,0,0,4,,,,,,,,,4,,,64,48
978240,note_off,480,0,4,,,,,,,,,4,,,66,0
978240,note_on,190,0,3,,,,,,,,,3,,,74,48
978480,note_on,0,0,1,,,,,,,,,1,,,79,50
978480,note_off,480,0,1,,,,,,,,,1,,,81,0
978720,note_on,0,0,4,,,,,,,,,4,,,62,51
978720,note_off,480,0,4,,,,,,,,,4,,,64,0
978960,note_off,480,0,1,,,,,,,,,1,,,79,0
978960,note_on,0,0,1,,,,,,,,,1,,,78,53
979010,note_off,770,0,3,,,,,,,,,3,,,74,0
979155,note_off,435,0,4,,,,,,,,,4,,,62,0
979160,set_tempo,1880,1,0,,,,,,821917,,,,,,,
979170,note_off,210,0,1,,,,,,,,,1,,,78,0
979200,control_change,15420,0,5,,,,,,,64,0,5,,,,
979200,control_change,45,0,4,,,,,,,64,0,4,,,,
979200,note_on,0,0,4,,,,,,,,,4,,,61,54
979200,note_on,30,0,1,,,,,,,,,1,,,81,58
979200,control_change,190,0,3,,,,,,,64,0,3,,,,
979200,set_tempo,40,1,0,,,,,,810810,,,,,,,
979260,control_change,60,0,3,,,,,,,64,127,3,,,,
979260,control_change,60,0,4,,,,,,,64,127,4,,,,
979260,control_change,60,0,5,,,,,,,64,127,5,,,,
979440,note_on,180,0,3,,,,,,,,,3,,,69,49
979440,note_off,180,0,4,,,,,,,,,4,,,61,0
979680,note_on,0,0,3,,,,,,,,,3,,,64,46
979680,note_on,0,0,1,,,,,,,,,1,,,79,46
979680,note_off,240,0,3,,,,,,,,,3,,,69,0
979680,note_off,480,0,1,,,,,,,,,1,,,81,0
979920,note_off,240,0,3,,,,,,,,,3,,,64,0
979920,note_on,0,0,3,,,,,,,,,3,,,69,43
980100,control_change,660,0,4,,,,,,,64,0,4,,,,
980100,control_change,840,0,5,,,,,,,64,0,5,,,,
980100,control_change,180,0,3,,,,,,,64,0,3,,,,
980135,note_off,35,0,3,,,,,,,,,3,,,69,0
980160,control_change,60,0,4,,,,,,,64,127,4,,,,
980160,note_off,480,0,1,,,,,,,,,1,,,79,0
980160,control_change,60,0,5,,,,,,,64,127,5,,,,
980160,control_change,25,0,3,,,,,,,64,127,3,,,,
980160,note_on,0,0,4,,,,,,,,,4,,,62,42
980320,note_on,160,0,1,,,,,,,,,1,,,78,44
980400,note_off,240,0,4,,,,,,,,,4,,,62,0
980400,note_on,240,0,3,,,,,,,,,3,,,69,44
980480,note_on,0,0,1,,,,,,,,,1,,,79,45
980480,note_off,160,0,1,,,,,,,,,1,,,78,0
980640,note_on,0,0,1,,,,,,,,,1,,,81,46
980640,note_off,240,0,3,,,,,,,,,3,,,69,0
980640,note_on,0,0,3,,,,,,,,,3,,,66,46
980640,note_off,160,0,1,,,,,,,,,1,,,79,0
980800,note_off,160,0,1,,,,,,,,,1,,,81,0
980800,note_on,0,0,1,,,,,,,,,1,,,79,47
980880,note_on,0,0,3,,,,,,,,,3,,,69,47
980880,note_off,240,0,3,,,,,,,,,3,,,66,0
980960,note_off,160,0,1,,,,,,,,,1,,,79,0
980960,note_on,0,0,1,,,,,,,,,1,,,78,48
981060,control_change,660,0,4,,,,,,,64,0,4,,,,
981060,control_change,900,0,5,,,,,,,64,0,5,,,,
981060,control_change,180,0,3,,,,,,,64,0,3,,,,
981080,set_tempo,1880,1,0,,,,,,821917,,,,,,,
981080,note_off,120,0,1,,,,,,,,,1,,,78,0
981090,note_off,30,0,3,,,,,,,,,3,,,69,0
981120,note_on,0,0,4,,,,,,,,,4,,,61,51
981120,control_change,60,0,4,,,,,,,64,127,4,,,,
981120,control_change,60,0,5,,,,,,,64,127,5,,,,
981120,set_tempo,40,1,0,,,,,,810810,,,,,,,
981120,control_change,30,0,3,,,,,,,64,127,3,,,,
981120,note_on,40,0,1,,,,,,,,,1,,,75,51
981360,note_off,240,0,4,,,,,,,,,4,,,61,0
981360,note_on,240,0,3,,,,,,,,,3,,,69,49
981600,note_on,0,0,3,,,,,,,,,3,,,64,47
981600,note_on,480,0,1,,,,,,,,,1,,,76,47
981600,note_off,240,0,3,,,,,,,,,3,,,69,0
981620,note_off,20,0,1,,,,,,,,,1,,,75,0
981840,note_on,0,0,3,,,,,,,,,3,,,69,45
981840,note_off,240,0,3,,,,,,,,,3,,,64,0
982010,note_off,390,0,1,,,,,,,,,1,,,76,0
982020,control_change,180,0,3,,,,,,,64,0,3,,,,
982020,control_change,900,0,5,,,,,,,64,0,5,,,,
982020,set_tempo,900,1,0,,,,,,845070,,,,,,,
982020,control_change,660,0,4,,,,,,,64,0,4,,,,
982065,note_off,45,0,3,,,,,,,,,3,,,69,0
982080,control_change,15,0,3,,,,,,,64,127,3,,,,
982080,note_on,0,0,4,,,,,,,,,4,,,59,49
982080,control_change,60,0,5,,,,,,,64,127,5,,,,
982080,control_change,60,0,4,,,,,,,64,127,4,,,,
982320,note_on,310,0,1,,,,,,,,,1,,,78,48
982320,note_off,240,0,4,,,,,,,,,4,,,59,0
982320,note_on,240,0,3,,,,,,,,,3,,,68,51
982380,note_on,0,0,1,,,,,,,,,1,,,76,50
982380,note_off,60,0,1,,,,,,,,,1,,,78,0
982440,note_off,60,0,1,,,,,,,,,1,,,76,0
982440,note_on,0,0,1,,,,,,,,,1,,,75,51
982500,note_on,0,0,1,,,,,,,,,1,,,76,52
982500,note_off,60,0,1,,,,,,,,,1,,,75,0
982560,note_on,0,0,1,,,,,,,,,1,,,78,54
982560,note_off,60,0,1,,,,,,,,,1,,,76,0
982560,note_on,0,0,3,,,,,,,,,3,,,64,54
982560,note_off,240,0,3,,,,,,,,,3,,,68,0
982800,note_off,240,0,3,,,,,,,,,3,,,64,0
982800,note_off,240,0,1,,,,,,,,,1,,,78,0
982800,note_on,0,0,1,,,,,,,,,1,,,74,56
982800,note_on,0,0,3,,,,,,,,,3,,,68,56
982980,control_change,660,0,4,,,,,,,64,0,4,,,,
982980,control_change,180,0,3,,,,,,,64,0,3,,,,
982980,control_change,900,0,5,,,,,,,64,0,5,,,,
983000,set_tempo,980,1,0,,,,,,869565,,,,,,,
983010,note_off,210,0,1,,,,,,,,,1,,,74,0
983015,note_off,35,0,3,,,,,,,,,3,,,68,0
983040,note_on,0,0,3,,,,,,,,,3,,,64,59
983040,note_on,25,0,3,,,,,,,,,3,,,69,59
983040,note_on,30,0,1,,,,,,,,,1,,,74,59
983040,note_on,60,0,4,,,,,,,,,4,,,57,59
983040,set_tempo,40,1,0,,,,,,845070,,,,,,,
983280,note_off,240,0,1,,,,,,,,,1,,,74,0
983280,note_on,0,0,1,,,,,,,,,1,,,73,57
983520,note_off,240,0,1,,,,,,,,,1,,,73,0
983520,note_on,0,0,1,,,,,,,,,1,,,78,55
983760,note_off,240,0,1,,,,,,,,,1,,,78,0
983760,note_on,0,0,1,,,,,,,,,1,,,76,53
983940,set_tempo,900,1,0,,,,,,869565,,,,,,,
983955,note_off,915,0,3,,,,,,,,,3,,,64,0
983955,note_off,195,0,1,,,,,,,,,1,,,76,0
983960,note_off,5,0,3,,,,,,,,,3,,,69,0
983960,note_off,920,0,4,,,,,,,,,4,,,57,0
984000,note_on,45,0,1,,,,,,,,,1,,,76,51
984385,note_off,385,0,1,,,,,,,,,1,,,76,0
984420,set_tempo,480,1,0,,,,,,1071428,,,,,,,
984480,note_on,95,0,1,,,,,,,,,1,,,76,49
985200,set_tempo,780,1,0,,,,,,895522,,,,,,,
985200,note_on,0,0,1,,,,,,,,,1,,,77,45
985200,note_off,720,0,1,,,,,,,,,1,,,76,0
985440,note_on,0,0,1,,,,,,,,,1,,,78,43
985440,note_off,240,0,1,,,,,,,,,1,,,77,0
985680,note_on,0,0,1,,,,,,,,,1,,,73,42
985680,note_off,240,0,1,,,,,,,,,1,,,78,0
985920,note_on,0,0,1,,,,,,,,,1,,,74,41
985920,note_off,240,0,1,,,,,,,,,1,,,73,0
986160,note_off,240,0,1,,,,,,,,,1,,,74,0
986160,note_on,0,0,1,,,,,,,,,1,,,70,39
986400,note_off,240,0,1,,,,,,,,,1,,,70,0
986400,note_on,0,0,1,,,,,,,,,1,,,71,38
986640,note_on,0,0,1,,,,,,,,,1,,,68,36
986640,note_off,240,0,1,,,,,,,,,1,,,71,0
986775,set_tempo,1575,1,0,,,,,,952380,,,,,,,
986850,note_off,210,0,1,,,,,,,,,1,,,68,0
986880,note_on,30,0,1,,,,,,,,,1,,,71,41
986880,set_tempo,105,1,0,,,,,,923076,,,,,,,
987120,note_off,240,0,1,,,,,,,,,1,,,71,0
987120,note_on,0,0,1,,,,,,,,,1,,,69,42
987275,note_off,155,0,1,,,,,,,,,1,,,69,0
987360,note_on,85,0,1,,,,,,,,,1,,,69,46
987515,note_off,155,0,1,,,,,,,,,1,,,69,0
987600,note_on,85,0,1,,,,,,,,,1,,,69,49
987755,note_off,155,0,1,,,,,,,,,1,,,69,0
987800,set_tempo,920,1,0,,,,,,952380,,,,,,,
987840,set_tempo,40,1,0,,,,,,923076,,,,,,,
987840,note_on,85,0,1,,,,,,,,,1,,,69,56
988320,set_tempo,480,1,0,,,,,,1132075,,,,,,,
988320,note_off,480,0,1,,,,,,,,,1,,,69,0
988320,note_on,0,0,1,,,,,,,,,1,,,81,61
989180,note_off,860,0,1,,,,,,,,,1,,,81,0
989280,set_tempo,960,1,0,,,,,,923076,,,,,,,
989280,note_on,100,0,1,,,,,,,,,1,,,81,46
989520,note_on,0,0,1,,,,,,,,,1,,,79,41
989520,note_off,240,0,1,,,,,,,,,1,,,81,0
989640,note_off,120,0,1,,,,,,,,,1,,,79,0
989760,note_on,120,0,1,,,,,,,,,1,,,79,42
990000,note_off,240,0,1,,,,,,,,,1,,,79,0
990000,note_on,0,0,1,,,,,,,,,1,,,78,36
990120,note_off,120,0,1,,,,,,,,,1,,,78,0
990240,note_on,120,0,1,,,,,,,,,1,,,78,38
990480,note_off,240,0,1,,,,,,,,,1,,,78,0
990480,note_on,0,0,1,,,,,,,,,1,,,76,32
990600,set_tempo,1320,1,0,,,,,,967741,,,,,,,
990600,note_off,120,0,1,,,,,,,,,1,,,76,0
990720,control_change,6760,0,4,,,,,,,64,0,4,,,,
990720,note_on,120,0,1,,,,,,,,,1,,,76,38
990720,control_change,7740,0,5,,,,,,,64,0,5,,,,
990720,control_change,6760,0,3,,,,,,,64,0,3,,,,
990720,set_tempo,120,1,0,,,,,,810810,,,,,,,
990720,note_on,0,0,4,,,,,,,,,4,,,62,38
990780,control_change,60,0,5,,,,,,,64,127,5,,,,
990780,control_change,60,0,4,,,,,,,64,127,4,,,,
990780,control_change,60,0,3,,,,,,,64,127,3,,,,
990960,note_on,180,0,3,,,,,,,,,3,,,66,38
990960,note_off,180,0,4,,,,,,,,,4,,,62,0
991200,note_on,0,0,3,,,,,,,,,3,,,69,36
991200,note_off,240,0,3,,,,,,,,,3,,,66,0
991440,note_off,720,0,1,,,,,,,,,1,,,76,0
991440,note_off,240,0,3,,,,,,,,,3,,,69,0
991440,note_on,0,0,3,,,,,,,,,3,,,66,36
991440,note_on,0,0,1,,,,,,,,,1,,,74,36
991640,note_off,200,0,1,,,,,,,,,1,,,74,0
991680,note_on,40,0,1,,,,,,,,,1,,,74,38
991680,control_change,240,0,3,,,,,,,64,0,3,,,,
991680,note_off,0,0,3,,,,,,,,,3,,,66,0
991680,control_change,720,0,4,,,,,,,64,0,4,,,,
991680,control_change,900,0,5,,,,,,,64,0,5,,,,
991680,note_on,0,0,4,,,,,,,,,4,,,62,37
991740,control_change,60,0,3,,,,,,,64,127,3,,,,
991740,control_change,60,0,4,,,,,,,64,127,4,,,,
991740,control_change,60,0,5,,,,,,,64,127,5,,,,
991920,note_off,180,0,4,,,,,,,,,4,,,62,0
991920,note_on,180,0,3,,,,,,,,,3,,,66,37
992160,note_on,0,0,3,,,,,,,,,3,,,69,38
992160,note_off,240,0,3,,,,,,,,,3,,,66,0
992400,note_off,240,0,3,,,,,,,,,3,,,69,0
992400,note_on,0,0,3,,,,,,,,,3,,,66,39
992580,control_change,840,0,5,,,,,,,64,0,5,,,,
992580,control_change,180,0,3,,,,,,,64,0,3,,,,
992580,control_change,660,0,4,,,,,,,64,0,4,,,,
992600,set_tempo,1880,1,0,,,,,,821917,,,,,,,
992610,note_off,30,0,3,,,,,,,,,3,,,66,0
992640,note_on,0,0,4,,,,,,,,,4,,,59,39
992640,set_tempo,40,1,0,,,,,,810810,,,,,,,
992640,control_change,60,0,5,,,,,,,64,127,5,,,,
992640,control_change,30,0,3,,,,,,,64,127,3,,,,
992640,control_change,60,0,4,,,,,,,64,127,4,,,,
992880,note_on,240,0,3,,,,,,,,,3,,,62,40
992880,note_off,240,0,4,,,,,,,,,4,,,59,0
993120,note_off,1440,0,1,,,,,,,,,1,,,74,0
993120,note_on,0,0,1,,,,,,,,,1,,,76,36
993120,note_off,240,0,3,,,,,,,,,3,,,62,0
993120,note_on,0,0,3,,,,,,,,,3,,,66,40
993180,note_off,60,0,1,,,,,,,,,1,,,76,0
993180,note_on,0,0,1,,,,,,,,,1,,,74,37
993240,note_off,60,0,1,,,,,,,,,1,,,74,0
993240,note_on,0,0,1,,,,,,,,,1,,,76,37
993300,note_off,60,0,1,,,,,,,,,1,,,76,0
993300,note_on,0,0,1,,,,,,,,,1,,,74,38
993360,note_off,240,0,3,,,,,,,,,3,,,66,0
993360,note_off,60,0,1,,,,,,,,,1,,,74,0
993360,note_on,0,0,1,,,,,,,,,1,,,76,38
993360,note_on,0,0,3,,,,,,,,,3,,,62,41
993420,note_off,60,0,1,,,,,,,,,1,,,76,0
993420,note_on,0,0,1,,,,,,,,,1,,,74,38
993480,note_on,0,0,1,,,,,,,,,1,,,73,39
993480,note_off,60,0,1,,,,,,,,,1,,,74,0
993540,note_on,0,0,1,,,,,,,,,1,,,74,39
993540,note_off,60,0,1,,,,,,,,,1,,,73,0
993600,control_change,720,0,4,,,,,,,64,0,4,,,,
993600,note_on,0,0,4,,,,,,,,,4,,,59,42
993600,control_change,960,0,5,,,,,,,64,0,5,,,,
993600,note_off,0,0,3,,,,,,,,,3,,,62,0
993600,control_change,240,0,3,,,,,,,64,0,3,,,,
993600,note_on,0,0,1,,,,,,,,,1,,,76,40
993600,note_off,60,0,1,,,,,,,,,1,,,74,0
993660,control_change,60,0,3,,,,,,,64,127,3,,,,
993660,control_change,60,0,5,,,,,,,64,127,5,,,,
993660,control_change,60,0,4,,,,,,,64,127,4,,,,
993840,note_off,180,0,4,,,,,,,,,4,,,59,0
993840,note_on,180,0,3,,,,,,,,,3,,,62,42
994080,note_on,0,0,3,,,,,,,,,3,,,66,43
994080,note_off,240,0,3,,,,,,,,,3,,,62,0
994080,note_on,0,0,1,,,,,,,,,1,,,78,43
994080,note_off,480,0,1,,,,,,,,,1,,,76,0
994320,note_off,240,0,3,,,,,,,,,3,,,66,0
994320,note_on,0,0,3,,,,,,,,,3,,,62,43
994500,control_change,660,0,4,,,,,,,64,0,4,,,,
994500,control_change,840,0,5,,,,,,,64,0,5,,,,
994500,control_change,180,0,3,,,,,,,64,0,3,,,,
994520,note_off,20,0,3,,,,,,,,,3,,,62,0
994520,set_tempo,1880,1,0,,,,,,821917,,,,,,,
994520,note_off,440,0,1,,,,,,,,,1,,,78,0
994560,control_change,60,0,5,,,,,,,64,127,5,,,,
994560,control_change,40,0,3,,,,,,,64,127,3,,,,
994560,note_on,0,0,4,,,,,,,,,4,,,55,44
994560,note_on,40,0,1,,,,,,,,,1,,,76,44
994560,set_tempo,40,1,0,,,,,,810810,,,,,,,
994560,control_change,60,0,4,,,,,,,64,127,4,,,,
994640,note_on,80,0,1,,,,,,,,,1,,,78,40
994655,note_off,15,0,1,,,,,,,,,1,,,76,0
994720,note_on,65,0,1,,,,,,,,,1,,,76,42
994725,note_off,5,0,1,,,,,,,,,1,,,78,0
994800,note_on,75,0,1,,,,,,,,,1,,,75,44
994800,note_on,240,0,3,,,,,,,,,3,,,59,45
994800,note_off,240,0,4,,,,,,,,,4,,,55,0
994805,note_off,5,0,1,,,,,,,,,1,,,76,0
994920,note_on,115,0,1,,,,,,,,,1,,,76,46
994935,note_off,15,0,1,,,,,,,,,1,,,75,0
995040,note_off,240,0,3,,,,,,,,,3,,,59,0
995040,note_on,0,0,3,,,,,,,,,3,,,64,47
995040,note_off,105,0,1,,,,,,,,,1,,,76,0
995040,note_on,0,0,1,,,,,,,,,1,,,83,50
995280,note_on,0,0,3,,,,,,,,,3,,,59,46
995280,note_off,240,0,3,,,,,,,,,3,,,64,0
995520,note_on,0,0,4,,,,,,,,,4,,,55,45
995520,control_change,720,0,4,,,,,,,64,0,4,,,,
995520,note_off,0,0,3,,,,,,,,,3,,,59,0
995520,control_change,960,0,5,,,,,,,64,0,5,,,,
995520,control_change,240,0,3,,,,,,,64,0,3,,,,
995580,control_change,60,0,5,,,,,,,64,127,5,,,,
995580,control_change,60,0,4,,,,,,,64,127,4,,,,
995580,control_change,60,0,3,,,,,,,64,127,3,,,,
995760,note_off,180,0,4,,,,,,,,,4,,,55,0
995760,note_on,180,0,3,,,,,,,,,3,,,59,44
996000,note_on,0,0,3,,,,,,,,,3,,,64,44
996000,note_on,0,0,1,,,,,,,,,1,,,79,44
996000,note_off,240,0,3,,,,,,,,,3,,,59,0
996000,note_off,960,0,1,,,,,,,,,1,,,83,0
996240,note_off,240,0,3,,,,,,,,,3,,,64,0
996240,note_on,0,0,3,,,,,,,,,3,,,59,43
996360,note_off,360,0,1,,,,,,,,,1,,,79,0
996360,note_on,0,0,1,,,,,,,,,1,,,76,42
996420,control_change,180,0,3,,,,,,,64,0,3,,,,
996420,control_change,840,0,5,,,,,,,64,0,5,,,,
996420,control_change,660,0,4,,,,,,,64,0,4,,,,
996440,set_tempo,1880,1,0,,,,,,821917,,,,,,,
996440,note_off,20,0,3,,,,,,,,,3,,,59,0
996480,control_change,60,0,5,,,,,,,64,127,5,,,,
996480,note_on,0,0,4,,,,,,,,,4,,,57,42
996480,control_change,40,0,3,,,,,,,64,127,3,,,,
996480,note_on,0,0,1,,,,,,,,,1,,,73,42
996480,set_tempo,40,1,0,,,,,,810810,,,,,,,
996480,control_change,60,0,4,,,,,,,64,127,4,,,,
996480,note_off,120,0,1,,,,,,,,,1,,,76,0
996560,note_on,80,0,1,,,,,,,,,1,,,74,38
996575,note_off,15,0,1,,,,,,,,,1,,,73,0
996640,note_on,65,0,1,,,,,,,,,1,,,73,39
996645,note_off,5,0,1,,,,,,,,,1,,,74,0
996720,note_on,240,0,3,,,,,,,,,3,,,64,41
996720,note_on,75,0,1,,,,,,,,,1,,,71,41
996720,note_off,240,0,4,,,,,,,,,4,,,57,0
996740,note_off,20,0,1,,,,,,,,,1,,,73,0
996840,note_on,100,0,1,,,,,,,,,1,,,73,43
996860,note_off,20,0,1,,,,,,,,,1,,,71,0
996960,note_on,0,0,3,,,,,,,,,3,,,67,40
996960,note_off,240,0,3,,,,,,,,,3,,,64,0
996960,note_on,100,0,1,,,,,,,,,1,,,79,46
996975,note_off,15,0,1,,,,,,,,,1,,,73,0
997200,note_on,0,0,3,,,,,,,,,3,,,64,39
997200,note_off,240,0,3,,,,,,,,,3,,,67,0
997380,control_change,180,0,3,,,,,,,64,0,3,,,,
997380,control_change,900,0,5,,,,,,,64,0,5,,,,
997380,control_change,660,0,4,,,,,,,64,0,4,,,,
997440,note_off,0,0,3,,,,,,,,,3,,,64,0
997440,control_change,60,0,3,,,,,,,64,127,3,,,,
997440,control_change,60,0,4,,,,,,,64,127,4,,,,
997440,control_change,60,0,5,,,,,,,64,127,5,,,,
997440,note_on,0,0,4,,,,,,,,,4,,,57,38
997680,note_on,240,0,3,,,,,,,,,3,,,61,37
997680,note_off,240,0,4,,,,,,,,,4,,,57,0
997920,note_on,0,0,1,,,,,,,,,1,,,76,36
997920,note_off,945,0,1,,,,,,,,,1,,,79,0
997920,note_off,240,0,3,,,,,,,,,3,,,61,0
997920,note_on,0,0,3,,,,,,,,,3,,,64,36
998160,note_on,0,0,3,,,,,,,,,3,,,61,38
998160,note_off,240,0,3,,,,,,,,,3,,,64,0
998280,note_on,0,0,1,,,,,,,,,1,,,67,40
998280,note_off,360,0,1,,,,,,,,,1,,,76,0
998340,control_change,180,0,3,,,,,,,64,0,3,,,,
998340,control_change,900,0,5,,,,,,,64,0,5,,,,
998340,control_change,660,0,4,,,,,,,64,0,4,,,,
998340,set_tempo,1860,1,0,,,,,,845070,,,,,,,
998375,note_off,95,0,1,,,,,,,,,1,,,67,0
998400,note_on,60,0,4,,,,,,,,,4,,,62,40
998400,note_off,60,0,3,,,,,,,,,3,,,61,0
998400,note_on,25,0,1,,,,,,,,,1,,,78,40
998400,note_on,28935,0,2,,,,,,,,,2,,,66,40
998640,note_off,240,0,1,,,,,,,,,1,,,78,0
998640,note_on,0,0,1,,,,,,,,,1,,,79,48
998640,note_on,0,0,2,,,,,,,,,2,,,67,48
998640,note_off,240,0,2,,,,,,,,,2,,,66,0
998880,note_on,0,0,2,,,,,,,,,2,,,68,42
998880,note_off,240,0,1,,,,,,,,,1,,,79,0
998880,note_on,0,0,1,,,,,,,,,1,,,80,42
998880,note_off,240,0,2,,,,,,,,,2,,,67,0
999120,note_on,0,0,1,,,,,,,,,1,,,81,50
999120,note_on,0,0,2,,,,,,,,,2,,,69,50
999120,note_off,240,0,2,,,,,,,,,2,,,68,0
999120,note_off,240,0,1,,,,,,,,,1,,,80,0
999360,note_off,240,0,2,,,,,,,,,2,,,69,0
999360,note_on,0,0,2,,,,,,,,,2,,,70,44
999360,note_off,240,0,1,,,,,,,,,1,,,81,0
999360,note_on,0,0,1,,,,,,,,,1,,,82,44
999360,note_off,960,0,4,,,,,,,,,4,,,62,0
999600,note_off,240,0,2,,,,,,,,,2,,,70,0
999600,note_off,240,0,1,,,,,,,,,1,,,82,0
999600,note_on,0,0,1,,,,,,,,,1,,,83,54
999600,note_on,0,0,2,,,,,,,,,2,,,71,54
999840,note_off,240,0,1,,,,,,,,,1,,,83,0
999840,note_on,0,0,1,,,,,,,,,1,,,85,46
999840,note_on,0,0,2,,,,,,,,,2,,,73,46
999840,note_off,240,0,2,,,,,,,,,2,,,71,0
1000080,note_on,0,0,1,,,,,,,,,1,,,86,56
1000080,note_off,240,0,2,,,,,,,,,2,,,73,0
1000080,note_on,0,0,2,,,,,,,,,2,,,74,56
1000080,note_off,240,0,1,,,,,,,,,1,,,85,0
1000210,set_tempo,1870,1,0,,,,,,1000000,,,,,,,
1000275,note_off,195,0,2,,,,,,,,,2,,,74,0
1000290,note_off,210,0,1,,,,,,,,,1,,,86,0
1000320,note_on,0,0,4,,,,,,,,,4,,,57,48
1000320,control_change,960,0,4,,,,,,,64,0,4,,,,
1000320,control_change,1980,0,5,,,,,,,64,0,5,,,,
1000320,set_tempo,110,1,0,,,,,,810810,,,,,,,
1000320,control_change,1920,0,3,,,,,,,64,0,3,,,,
1000320,note_on,30,0,1,,,,,,,,,1,,,74,44
1000380,control_change,60,0,4,,,,,,,64,127,4,,,,
1000380,control_change,60,0,5,,,,,,,64,127,5,,,,
1000380,control_change,60,0,3,,,,,,,64,127,3,,,,
1000380,note_on,60,0,1,,,,,,,,,1,,,76,44
1000415,note_off,35,0,1,,,,,,,,,1,,,74,0
1000440,note_on,25,0,1,,,,,,,,,1,,,78,45
1000475,note_off,35,0,1,,,,,,,,,1,,,76,0
1000500,note_on,25,0,1,,,,,,,,,1,,,76,45
1000535,note_off,35,0,1,,,,,,,,,1,,,78,0
1000560,note_on,25,0,1,,,,,,,,,1,,,78,45
1000560,note_on,180,0,3,,,,,,,,,3,,,62,49
1000575,note_off,195,0,4,,,,,,,,,4,,,57,0
1000595,note_off,35,0,1,,,,,,,,,1,,,76,0
1000620,note_on,25,0,1,,,,,,,,,1,,,76,46
1000655,note_off,35,0,1,,,,,,,,,1,,,78,0
1000680,note_on,25,0,1,,,,,,,,,1,,,78,46
1000715,note_off,35,0,1,,,,,,,,,1,,,76,0
1000740,note_on,25,0,1,,,,,,,,,1,,,76,46
1000752,note_off,192,0,3,,,,,,,,,3,,,62,0
1000775,note_off,35,0,1,,,,,,,,,1,,,78,0
1000800,note_on,25,0,1,,,,,,,,,1,,,78,47
1000800,note_on,48,0,3,,,,,,,,,3,,,64,50
1000835,note_off,35,0,1,,,,,,,,,1,,,76,0
1000860,note_on,25,0,1,,,,,,,,,1,,,76,47
1000895,note_off,35,0,1,,,,,,,,,1,,,78,0
1000920,note_on,25,0,1,,,,,,,,,1,,,78,47
1000955,note_off,35,0,1,,,,,,,,,1,,,76,0
1000980,note_on,25,0,1,,,,,,,,,1,,,76,48
1000992,note_off,192,0,3,,,,,,,,,3,,,64,0
1001015,note_off,35,0,1,,,,,,,,,1,,,78,0
1001040,note_on,25,0,1,,,,,,,,,1,,,78,48
1001040,note_on,48,0,3,,,,,,,,,3,,,62,50
1001075,note_off,35,0,1,,,,,,,,,1,,,76,0
1001100,note_on,25,0,1,,,,,,,,,1,,,76,48
1001135,note_off,35,0,1,,,,,,,,,1,,,78,0
1001160,note_on,25,0,1,,,,,,,,,1,,,78,49
1001195,note_off,35,0,1,,,,,,,,,1,,,76,0
1001220,note_on,25,0,1,,,,,,,,,1,,,76,49
1001232,note_off,192,0,3,,,,,,,,,3,,,62,0
1001255,note_off,35,0,1,,,,,,,,,1,,,78,0
1001280,control_change,705,0,4,,,,,,,64,0,4,,,,
1001280,control_change,900,0,5,,,,,,,64,0,5,,,,
1001280,control_change,48,0,3,,,,,,,64,0,3,,,,
1001280,note_on,25,0,1,,,,,,,,,1,,,78,49
1001280,note_on,0,0,4,,,,,,,,,4,,,57,51
1001315,note_off,35,0,1,,,,,,,,,1,,,76,0
1001340,control_change,60,0,5,,,,,,,64,127,5,,,,
1001340,note_on,25,0,1,,,,,,,,,1,,,76,50
1001340,control_change,60,0,4,,,,,,,64,127,4,,,,
1001340,control_change,60,0,3,,,,,,,64,127,3,,,,
1001375,note_off,35,0,1,,,,,,,,,1,,,78,0
1001400,note_on,25,0,1,,,,,,,,,1,,,78,50
1001435,note_off,35,0,1,,,,,,,,,1,,,76,0
1001460,note_on,25,0,1,,,,,,,,,1,,,76,50
1001495,note_off,35,0,1,,,,,,,,,1,,,78,0
1001520,note_on,25,0,1,,,,,,,,,1,,,78,51
1001520,note_on,180,0,3,,,,,,,,,3,,,61,52
1001535,note_off,195,0,4,,,,,,,,,4,,,57,0
1001555,note_off,35,0,1,,,,,,,,,1,,,76,0
1001580,note_on,25,0,1,,,,,,,,,1,,,76,51
1001615,note_off,35,0,1,,,,,,,,,1,,,78,0
1001640,note_on,25,0,1,,,,,,,,,1,,,78,51
1001675,note_off,35,0,1,,,,,,,,,1,,,76,0
1001700,note_on,25,0,1,,,,,,,,,1,,,76,52
1001712,note_off,192,0,3,,,,,,,,,3,,,61,0
1001735,note_off,35,0,1,,,,,,,,,1,,,78,0
1001760,note_on,48,0,3,,,,,,,,,3,,,64,53
1001760,note_on,25,0,1,,,,,,,,,1,,,78,52
1001795,note_off,35,0,1,,,,,,,,,1,,,76,0
1001820,note_on,25,0,1,,,,,,,,,1,,,76,52
1001855,note_off,35,0,1,,,,,,,,,1,,,78,0
1001880,note_on,25,0,1,,,,,,,,,1,,,78,53
1001915,note_off,35,0,1,,,,,,,,,1,,,76,0
1001940,note_on,25,0,1,,,,,,,,,1,,,76,53
1001952,note_off,192,0,3,,,,,,,,,3,,,64,0
1001975,note_off,35,0,1,,,,,,,,,1,,,78,0
1002000,note_on,48,0,3,,,,,,,,,3,,,61,54
1002000,note_on,25,0,1,,,,,,,,,1,,,78,53
1002035,note_off,35,0,1,,,,,,,,,1,,,76,0
1002060,note_on,25,0,1,,,,,,,,,1,,,76,54
1002095,note_off,35,0,1,,,,,,,,,1,,,78,0
1002120,note_on,25,0,1,,,,,,,,,1,,,74,54
1002120,set_tempo,1800,1,0,,,,,,821917,,,,,,,
1002155,note_off,35,0,1,,,,,,,,,1,,,76,0
1002180,control_change,180,0,3,,,,,,,64,0,3,,,,
1002180,note_on,25,0,1,,,,,,,,,1,,,76,54
1002180,control_change,840,0,5,,,,,,,64,0,5,,,,
1002180,control_change,645,0,4,,,,,,,64,0,4,,,,
1002192,note_off,12,0,3,,,,,,,,,3,,,61,0
1002215,note_off,35,0,1,,,,,,,,,1,,,74,0
1002240,note_on,60,0,4,,,,,,,,,4,,,50,55
1002240,note_on,1965,0,2,,,,,,,,,2,,,67,55
1002240,note_on,48,0,3,,,,,,,,,3,,,62,55
1002240,note_on,0,0,1,,,,,,,,,1,,,76,54
1002240,note_off,25,0,1,,,,,,,,,1,,,76,0
1002240,note_on,0,0,2,,,,,,,,,2,,,69,55
1003200,note_on,0,0,1,,,,,,,,,1,,,74,39
1003200,note_off,960,0,1,,,,,,,,,1,,,76,0
1003200,note_on,0,0,2,,,,,,,,,2,,,66,39
1003200,note_off,960,0,2,,,,,,,,,2,,,67,0
1003200,set_tempo,1080,1,0,,,,,,1071428,,,,,,,
1003955,note_off,1715,0,3,,,,,,,,,3,,,62,0
1003965,note_off,765,0,2,,,,,,,,,2,,,69,0
1003970,note_off,770,0,1,,,,,,,,,1,,,74,0
1003970,note_off,5,0,2,,,,,,,,,2,,,66,0
1003970,note_off,1730,0,4,,,,,,,,,4,,,50,0
1004160,note_on,190,0,1,,,,,,,,,1,,,81,44
1004160,set_tempo,960,1,0,,,,,,821917,,,,,,,
1004400,note_off,240,0,1,,,,,,,,,1,,,81,0
1004400,note_on,0,0,1,,,,,,,,,1,,,80,46
1004640,note_on,0,0,1,,,,,,,,,1,,,81,47
1004640,note_off,240,0,1,,,,,,,,,1,,,80,0
1004880,note_off,240,0,1,,,,,,,,,1,,,81,0
1004880,note_on,0,0,1,,,,,,,,,1,,,83,48
1005120,note_on,0,0,1,,,,,,,,,1,,,84,50
1005120,note_off,240,0,1,,,,,,,,,1,,,83,0
1005360,note_on,0,0,1,,,,,,,,,1,,,78,51
1005360,note_off,240,0,1,,,,,,,,,1,,,84,0
1005600,note_off,240,0,1,,,,,,,,,1,,,78,0
1005600,note_on,0,0,1,,,,,,,,,1,,,81,52
1005840,note_off,240,0,1,,,,,,,,,1,,,81,0
1005840,note_on,0,0,1,,,,,,,,,1,,,76,54
1006040,set_tempo,1880,1,0,,,,,,869565,,,,,,,
1006040,note_off,200,0,1,,,,,,,,,1,,,76,0
1006080,set_tempo,40,1,0,,,,,,810810,,,,,,,
1006080,note_on,40,0,1,,,,,,,,,1,,,75,60
1006080,note_on,2110,0,4,,,,,,,,,4,,,69,56
1006080,note_on,2125,0,3,,,,,,,,,3,,,72,56
1006800,note_off,720,0,1,,,,,,,,,1,,,75,0
1006800,note_on,0,0,1,,,,,,,,,1,,,76,46
1006920,note_off,120,0,1,,,,,,,,,1,,,76,0
1006920,note_on,0,0,1,,,,,,,,,1,,,78,47
1007025,note_off,105,0,1,,,,,,,,,1,,,78,0
1007040,note_off,960,0,3,,,,,,,,,3,,,72,0
1007040,note_on,15,0,1,,,,,,,,,1,,,76,48
1007040,note_off,960,0,4,,,,,,,,,4,,,69,0
1007040,note_on,0,0,4,,,,,,,,,4,,,67,48
1007040,note_on,0,0,3,,,,,,,,,3,,,71,48
1007160,note_on,0,0,1,,,,,,,,,1,,,77,49
1007160,note_off,120,0,1,,,,,,,,,1,,,76,0
1007280,note_on,0,0,1,,,,,,,,,1,,,78,50
1007280,note_off,120,0,1,,,,,,,,,1,,,77,0
1007400,note_on,0,0,1,,,,,,,,,1,,,79,51
1007400,note_off,120,0,1,,,,,,,,,1,,,78,0
1007520,note_on,0,0,1,,,,,,,,,1,,,80,52
1007520,note_off,480,0,4,,,,,,,,,4,,,67,0
1007520,note_off,480,0,3,,,,,,,,,3,,,71,0
1007520,note_off,120,0,1,,,,,,,,,1,,,79,0
1007640,note_on,0,0,1,,,,,,,,,1,,,81,53
1007640,note_off,120,0,1,,,,,,,,,1,,,80,0
1007720,set_tempo,1640,1,0,,,,,,821917,,,,,,,
1007760,note_off,120,0,1,,,,,,,,,1,,,81,0
1007760,note_on,0,0,1,,,,,,,,,1,,,82,54
1007820,note_off,60,0,1,,,,,,,,,1,,,82,0
1007820,note_on,0,0,1,,,,,,,,,1,,,83,55
1007880,note_on,0,0,1,,,,,,,,,1,,,79,55
1007880,note_off,60,0,1,,,,,,,,,1,,,83,0
1007940,note_off,60,0,1,,,,,,,,,1,,,79,0
1007940,note_on,0,0,1,,,,,,,,,1,,,76,56
1007940,set_tempo,220,1,0,,,,,,845070,,,,,,,
1008000,set_tempo,60,1,0,,,,,,810810,,,,,,,
1008000,note_on,480,0,4,,,,,,,,,4,,,67,58
1008000,note_off,60,0,1,,,,,,,,,1,,,76,0
1008000,note_on,0,0,1,,,,,,,,,1,,,73,58
1008000,note_on,480,0,3,,,,,,,,,3,,,70,58
1008555,note_off,555,0,1,,,,,,,,,1,,,73,0
1008560,note_on,5,0,1,,,,,,,,,1,,,76,53
1008640,note_on,0,0,1,,,,,,,,,1,,,74,53
1008640,note_off,80,0,1,,,,,,,,,1,,,76,0
1008720,note_off,80,0,1,,,,,,,,,1,,,74,0
1008720,note_on,0,0,1,,,,,,,,,1,,,73,52
1008800,note_off,80,0,1,,,,,,,,,1,,,73,0
1008800,note_on,0,0,1,,,,,,,,,1,,,74,52
1008880,note_off,80,0,1,,,,,,,,,1,,,74,0
1008880,note_on,0,0,1,,,,,,,,,1,,,76,52
1008960,note_off,960,0,3,,,,,,,,,3,,,70,0
1008960,note_off,80,0,1,,,,,,,,,1,,,76,0
1008960,note_on,0,0,1,,,,,,,,,1,,,74,51
1008960,note_off,960,0,4,,,,,,,,,4,,,67,0
1008960,note_on,0,0,4,,,,,,,,,4,,,66,51
1008960,note_on,0,0,3,,,,,,,,,3,,,69,51
1009020,note_on,0,0,1,,,,,,,,,1,,,76,51
1009020,note_off,60,0,1,,,,,,,,,1,,,74,0
1009080,note_on,0,0,1,,,,,,,,,1,,,74,51
1009080,note_off,60,0,1,,,,,,,,,1,,,76,0
1009140,note_off,60,0,1,,,,,,,,,1,,,74,0
1009140,note_on,0,0,1,,,,,,,,,1,,,73,50
1009140,set_tempo,1140,1,0,,,,,,821917,,,,,,,
1009200,note_off,60,0,1,,,,,,,,,1,,,73,0
1009200,note_on,0,0,1,,,,,,,,,1,,,74,50
1009260,note_off,60,0,1,,,,,,,,,1,,,74,0
1009260,note_on,0,0,1,,,,,,,,,1,,,75,50
1009320,note_on,0,0,1,,,,,,,,,1,,,76,50
1009320,note_off,60,0,1,,,,,,,,,1,,,75,0
1009380,note_on,0,0,1,,,,,,,,,1,,,77,49
1009380,note_off,60,0,1,,,,,,,,,1,,,76,0
1009440,note_off,60,0,1,,,,,,,,,1,,,77,0
1009440,note_on,0,0,1,,,,,,,,,1,,,78,49
1009440,note_off,480,0,4,,,,,,,,,4,,,66,0
1009440,note_off,480,0,3,,,,,,,,,3,,,69,0
1009500,note_off,60,0,1,,,,,,,,,1,,,78,0
1009500,note_on,0,0,1,,,,,,,,,1,,,79,49
1009560,note_off,60,0,1,,,,,,,,,1,,,79,0
1009560,note_on,0,0,1,,,,,,,,,1,,,80,49
1009620,note_on,0,0,1,,,,,,,,,1,,,81,48
1009620,note_off,60,0,1,,,,,,,,,1,,,80,0
1009680,note_off,60,0,1,,,,,,,,,1,,,81,0
1009680,note_on,0,0,1,,,,,,,,,1,,,82,48
1009740,note_on,0,0,1,,,,,,,,,1,,,83,48
1009740,note_off,60,0,1,,,,,,,,,1,,,82,0
1009800,note_off,60,0,1,,,,,,,,,1,,,83,0
1009800,note_on,0,0,1,,,,,,,,,1,,,84,47
1009860,note_off,60,0,1,,,,,,,,,1,,,84,0
1009860,note_on,0,0,1,,,,,,,,,1,,,85,47
1009880,set_tempo,740,1,0,,,,,,845070,,,,,,,
1009920,control_change,480,0,4,,,,,,,64,0,4,,,,
1009920,control_change,7740,0,5,,,,,,,64,0,5,,,,
1009920,control_change,480,0,3,,,,,,,64,0,3,,,,
1009920,note_on,0,0,4,,,,,,,,,4,,,71,47
1009920,set_tempo,40,1,0,,,,,,810810,,,,,,,
1009920,note_off,60,0,1,,,,,,,,,1,,,85,0
1009920,note_on,0,0,1,,,,,,,,,1,,,86,49
1009980,control_change,60,0,4,,,,,,,64,127,4,,,,
1009980,control_change,60,0,5,,,,,,,64,127,5,,,,
1009980,control_change,60,0,3,,,,,,,64,127,3,,,,
1010160,note_on,180,0,3,,,,,,,,,3,,,74,46
1010160,note_off,240,0,1,,,,,,,,,1,,,86,0
1010160,note_on,0,0,1,,,,,,,,,1,,,88,48
1010160,note_off,180,0,4,,,,,,,,,4,,,71,0
1010280,note_off,120,0,1,,,,,,,,,1,,,88,0
1010280,note_on,0,0,1,,,,,,,,,1,,,86,47
1010400,note_off,0,0,3,,,,,,,,,3,,,74,0
1010400,note_on,0,0,4,,,,,,,,,4,,,69,45
1010400,control_change,420,0,5,,,,,,,64,0,5,,,,
1010400,control_change,240,0,3,,,,,,,64,0,3,,,,
1010400,control_change,240,0,4,,,,,,,64,0,4,,,,
1010460,control_change,60,0,3,,,,,,,64,127,3,,,,
1010460,control_change,60,0,4,,,,,,,64,127,4,,,,
1010460,control_change,60,0,5,,,,,,,64,127,5,,,,
1010640,note_off,180,0,4,,,,,,,,,4,,,69,0
1010640,note_on,0,0,1,,,,,,,,,1,,,85,45
1010640,note_off,360,0,1,,,,,,,,,1,,,86,0
1010640,note_on,180,0,3,,,,,,,,,3,,,74,44
1010880,note_on,0,0,4,,,,,,,,,4,,,67,43
1010880,control_change,420,0,5,,,,,,,64,0,5,,,,
1010880,control_change,240,0,4,,,,,,,64,0,4,,,,
1010880,control_change,240,0,3,,,,,,,64,0,3,,,,
1010880,note_off,0,0,3,,,,,,,,,3,,,74,0
1010940,control_change,60,0,5,,,,,,,64,127,5,,,,
1010940,control_change,60,0,3,,,,,,,64,127,3,,,,
1010940,control_change,60,0,4,,,,,,,64,127,4,,,,
1011120,note_on,180,0,3,,,,,,,,,3,,,74,41
1011120,note_off,180,0,4,,,,,,,,,4,,,67,0
1011120,note_off,480,0,1,,,,,,,,,1,,,85,0
1011120,note_on,0,0,1,,,,,,,,,1,,,85,42
1011240,note_on,0,0,1,,,,,,,,,1,,,83,42
1011240,note_off,120,0,1,,,,,,,,,1,,,85,0
1011360,note_on,0,0,4,,,,,,,,,4,,,66,40
1011360,control_change,240,0,4,,,,,,,64,0,4,,,,
1011360,control_change,240,0,3,,,,,,,64,0,3,,,,
1011360,note_off,0,0,3,,,,,,,,,3,,,74,0
1011360,control_change,420,0,5,,,,,,,64,0,5,,,,
1011420,control_change,60,0,3,,,,,,,64,127,3,,,,
1011420,control_change,60,0,5,,,,,,,64,127,5,,,,
1011420,control_change,60,0,4,,,,,,,64,127,4,,,,
1011600,note_off,180,0,4,,,,,,,,,4,,,66,0
1011600,note_on,360,0,1,,,,,,,,,1,,,82,40
1011600,note_on,180,0,3,,,,,,,,,3,,,74,39
1011605,note_off,5,0,1,,,,,,,,,1,,,83,0
1011780,control_change,180,0,3,,,,,,,64,0,3,,,,
1011780,control_change,360,0,5,,,,,,,64,0,5,,,,
1011780,control_change,180,0,4,,,,,,,64,0,4,,,,
1011800,set_tempo,1880,1,0,,,,,,821917,,,,,,,
1011815,note_off,35,0,3,,,,,,,,,3,,,74,0
1011840,control_change,0,0,4,,,,,,,64,127,4,,,,
1011840,control_change,0,0,3,,,,,,,64,127,3,,,,
1011840,control_change,25,0,3,,,,,,,64,0,3,,,,
1011840,control_change,60,0,4,,,,,,,64,0,4,,,,
1011840,set_tempo,40,1,0,,,,,,810810,,,,,,,
1011840,control_change,0,0,5,,,,,,,64,127,5,,,,
1011840,control_change,60,0,5,,,,,,,64,0,5,,,,
1011840,note_on,0,0,4,,,,,,,,,4,,,67,40
1011900,control_change,60,0,5,,,,,,,64,127,5,,,,
1011900,control_change,60,0,3,,,,,,,64,127,3,,,,
1011900,control_change,60,0,4,,,,,,,64,127,4,,,,
1012080,note_off,180,0,4,,,,,,,,,4,,,67,0
1012080,note_on,180,0,3,,,,,,,,,3,,,74,42
1012080,note_on,0,0,1,,,,,,,,,1,,,85,42
1012080,note_off,475,0,1,,,,,,,,,1,,,82,0
1012200,note_off,120,0,1,,,,,,,,,1,,,85,0
1012200,note_on,0,0,1,,,,,,,,,1,,,83,42
1012320,control_change,240,0,4,,,,,,,64,0,4,,,,
1012320,note_on,0,0,4,,,,,,,,,4,,,66,43
1012320,control_change,420,0,5,,,,,,,64,0,5,,,,
1012320,control_change,240,0,3,,,,,,,64,0,3,,,,
1012320,note_off,0,0,3,,,,,,,,,3,,,74,0
1012380,control_change,60,0,5,,,,,,,64,127,5,,,,
1012380,control_change,60,0,3,,,,,,,64,127,3,,,,
1012380,control_change,60,0,4,,,,,,,64,127,4,,,,
1012560,note_off,180,0,4,,,,,,,,,4,,,66,0
1012560,note_off,360,0,1,,,,,,,,,1,,,83,0
1012560,note_on,180,0,3,,,,,,,,,3,,,74,44
1012560,note_on,0,0,1,,,,,,,,,1,,,81,44
1012800,control_change,420,0,5,,,,,,,64,0,5,,,,
1012800,control_change,240,0,3,,,,,,,64,0,3,,,,
1012800,note_off,0,0,3,,,,,,,,,3,,,74,0
1012800,note_on,0,0,4,,,,,,,,,4,,,64,46
1012800,control_change,240,0,4,,,,,,,64,0,4,,,,
1012860,control_change,60,0,3,,,,,,,64,127,3,,,,
1012860,control_change,60,0,5,,,,,,,64,127,5,,,,
1012860,control_change,60,0,4,,,,,,,64,127,4,,,,
1013040,note_on,0,0,1,,,,,,,,,1,,,81,47
1013040,note_on,180,0,3,,,,,,,,,3,,,74,47
1013040,note_off,180,0,4,,,,,,,,,4,,,64,0
1013040,note_off,480,0,1,,,,,,,,,1,,,81,0
1013160,note_on,0,0,1,,,,,,,,,1,,,79,48
1013160,note_off,120,0,1,,,,,,,,,1,,,81,0
1013280,control_change,240,0,4,,,,,,,64,0,4,,,,
1013280,note_on,0,0,4,,,,,,,,,4,,,62,48
1013280,note_off,0,0,3,,,,,,,,,3,,,74,0
1013280,control_change,240,0,3,,,,,,,64,0,3,,,,
1013280,control_change,420,0,5,,,,,,,64,0,5,,,,
1013340,control_change,60,0,5,,,,,,,64,127,5,,,,
1013340,control_change,60,0,4,,,,,,,64,127,4,,,,
1013340,control_change,60,0,3,,,,,,,64,127,3,,,,
1013505,note_off,345,0,1,,,,,,,,,1,,,79,0
1013520,note_on,15,0,1,,,,,,,,,1,,,78,50
1013520,note_off,180,0,4,,,,,,,,,4,,,62,0
1013520,note_on,180,0,3,,,,,,,,,3,,,74,50
1013700,control_change,180,0,4,,,,,,,64,0,4,,,,
1013700,control_change,360,0,5,,,,,,,64,0,5,,,,
1013700,control_change,180,0,3,,,,,,,64,0,3,,,,
1013720,set_tempo,1880,1,0,,,,,,821917,,,,,,,
1013720,note_off,20,0,3,,,,,,,,,3,,,74,0
1013730,note_off,210,0,1,,,,,,,,,1,,,78,0
1013760,note_on,0,0,4,,,,,,,,,4,,,61,56
1013760,note_on,30,0,1,,,,,,,,,1,,,81,59
1013760,control_change,60,0,4,,,,,,,64,127,4,,,,
1013760,set_tempo,40,1,0,,,,,,810810,,,,,,,
1013760,control_change,60,0,5,,,,,,,64,127,5,,,,
1013760,control_change,40,0,3,,,,,,,64,127,3,,,,
1014000,note_on,240,0,3,,,,,,,,,3,,,69,52
1014000,note_off,240,0,4,,,,,,,,,4,,,61,0
1014120,note_off,360,0,1,,,,,,,,,1,,,81,0
1014120,note_on,0,0,1,,,,,,,,,1,,,83,51
1014180,note_on,0,0,1,,,,,,,,,1,,,81,50
1014180,note_off,60,0,1,,,,,,,,,1,,,83,0
1014240,note_on,0,0,3,,,,,,,,,3,,,64,48
1014240,note_off,240,0,3,,,,,,,,,3,,,69,0
1014240,note_on,0,0,1,,,,,,,,,1,,,79,48
1014240,note_off,60,0,1,,,,,,,,,1,,,81,0
1014480,note_on,0,0,3,,,,,,,,,3,,,69,44
1014480,note_off,240,0,3,,,,,,,,,3,,,64,0
1014660,control_change,180,0,3,,,,,,,64,0,3,,,,
1014660,control_change,660,0,4,,,,,,,64,0,4,,,,
1014660,control_change,900,0,5,,,,,,,64,0,5,,,,
1014680,note_off,440,0,1,,,,,,,,,1,,,79,0
1014690,note_off,30,0,3,,,,,,,,,3,,,69,0
1014720,note_on,0,0,4,,,,,,,,,4,,,62,43
1014720,control_change,60,0,4,,,,,,,64,127,4,,,,
1014720,control_change,30,0,3,,,,,,,64,127,3,,,,
1014720,control_change,60,0,5,,,,,,,64,127,5,,,,
1014960,note_off,240,0,4,,,,,,,,,4,,,62,0
1014960,note_on,240,0,3,,,,,,,,,3,,,69,45
1015200,note_on,520,0,1,,,,,,,,,1,,,78,48
1015200,note_on,0,0,3,,,,,,,,,3,,,66,48
1015200,note_off,240,0,3,,,,,,,,,3,,,69,0
1015440,note_on,0,0,3,,,,,,,,,3,,,69,43
1015440,note_off,240,0,3,,,,,,,,,3,,,66,0
1015620,control_change,660,0,4,,,,,,,64,0,4,,,,
1015620,control_change,180,0,3,,,,,,,64,0,3,,,,
1015620,control_change,900,0,5,,,,,,,64,0,5,,,,
1015625,note_off,5,0,3,,,,,,,,,3,,,69,0
1015640,set_tempo,1880,1,0,,,,,,821917,,,,,,,
1015640,note_off,440,0,1,,,,,,,,,1,,,78,0
1015680,set_tempo,40,1,0,,,,,,810810,,,,,,,
1015680,control_change,55,0,3,,,,,,,64,127,3,,,,
1015680,note_on,0,0,4,,,,,,,,,4,,,61,52
1015680,control_change,60,0,4,,,,,,,64,127,4,,,,
1015680,note_on,40,0,1,,,,,,,,,1,,,75,52
1015680,control_change,60,0,5,,,,,,,64,127,5,,,,
1015920,note_off,240,0,4,,,,,,,,,4,,,61,0
1015920,note_on,240,0,3,,,,,,,,,3,,,69,48
1016160,note_on,0,0,3,,,,,,,,,3,,,64,43
1016160,note_off,240,0,3,,,,,,,,,3,,,69,0
1016160,note_on,0,0,1,,,,,,,,,1,,,76,40
1016160,note_off,480,0,1,,,,,,,,,1,,,75,0
1016400,note_off,240,0,3,,,,,,,,,3,,,64,0
1016400,note_on,0,0,3,,,,,,,,,3,,,69,39
1016580,control_change,180,0,3,,,,,,,64,0,3,,,,
1016580,control_change,660,0,4,,,,,,,64,0,4,,,,
1016580,control_change,900,0,5,,,,,,,64,0,5,,,,
1016585,note_off,5,0,3,,,,,,,,,3,,,69,0
1016640,control_change,60,0,4,,,,,,,64,127,4,,,,
1016640,control_change,60,0,5,,,,,,,64,127,5,,,,
1016640,note_on,0,0,4,,,,,,,,,4,,,59,35
1016640,control_change,55,0,3,,,,,,,64,127,3,,,,
1016720,note_on,0,0,1,,,,,,,,,1,,,78,37
1016720,note_off,560,0,1,,,,,,,,,1,,,76,0
1016800,note_on,0,0,1,,,,,,,,,1,,,80,38
1016800,note_off,80,0,1,,,,,,,,,1,,,78,0
1016880,note_on,240,0,3,,,,,,,,,3,,,68,39
1016880,note_off,80,0,1,,,,,,,,,1,,,80,0
1016880,note_off,240,0,4,,,,,,,,,4,,,59,0
1016880,note_on,0,0,1,,,,,,,,,1,,,81,39
1016960,note_on,0,0,1,,,,,,,,,1,,,83,41
1016960,note_off,80,0,1,,,,,,,,,1,,,81,0
1017040,note_off,80,0,1,,,,,,,,,1,,,83,0
1017040,note_on,0,0,1,,,,,,,,,1,,,85,42
1017120,note_off,80,0,1,,,,,,,,,1,,,85,0
1017120,note_off,240,0,3,,,,,,,,,3,,,68,0
1017120,note_on,0,0,3,,,,,,,,,3,,,64,44
1017120,note_on,0,0,1,,,,,,,,,1,,,86,44
1017200,note_off,80,0,1,,,,,,,,,1,,,86,0
1017200,note_on,0,0,1,,,,,,,,,1,,,83,45
1017280,note_on,0,0,1,,,,,,,,,1,,,80,47
1017280,note_off,80,0,1,,,,,,,,,1,,,83,0
1017360,note_off,80,0,1,,,,,,,,,1,,,80,0
1017360,note_on,0,0,1,,,,,,,,,1,,,76,48
1017360,note_on,0,0,3,,,,,,,,,3,,,68,48
1017360,note_off,240,0,3,,,,,,,,,3,,,64,0
1017440,note_on,0,0,1,,,,,,,,,1,,,78,49
1017440,note_off,80,0,1,,,,,,,,,1,,,76,0
1017520,note_on,0,0,1,,,,,,,,,1,,,74,51
1017520,note_off,80,0,1,,,,,,,,,1,,,78,0
1017540,control_change,660,0,4,,,,,,,64,0,4,,,,
1017540,control_change,180,0,3,,,,,,,64,0,3,,,,
1017540,control_change,900,0,5,,,,,,,64,0,5,,,,
1017560,set_tempo,1880,1,0,,,,,,821917,,,,,,,
1017570,note_off,30,0,3,,,,,,,,,3,,,68,0
1017600,note_on,60,0,4,,,,,,,,,4,,,57,55
1017600,set_tempo,40,1,0,,,,,,845070,,,,,,,
1017600,note_on,0,0,3,,,,,,,,,3,,,64,55
1017600,note_on,0,0,1,,,,,,,,,1,,,74,55
1017600,note_off,80,0,1,,,,,,,,,1,,,74,0
1017600,note_on,30,0,3,,,,,,,,,3,,,69,55
1017840,note_on,0,0,1,,,,,,,,,1,,,73,54
1017840,note_off,240,0,1,,,,,,,,,1,,,74,0
1018080,note_off,240,0,1,,,,,,,,,1,,,73,0
1018080,note_on,0,0,1,,,,,,,,,1,,,78,52
1018320,note_off,240,0,1,,,,,,,,,1,,,78,0
1018320,note_on,0,0,1,,,,,,,,,1,,,76,50
1018500,set_tempo,900,1,0,,,,,,869565,,,,,,,
1018560,set_tempo,60,1,0,,,,,,895522,,,,,,,
1018560,note_on,0,0,1,,,,,,,,,1,,,76,48
1018560,note_off,960,0,3,,,,,,,,,3,,,64,0
1018560,note_off,0,0,3,,,,,,,,,3,,,69,0
1018560,note_off,240,0,1,,,,,,,,,1,,,76,0
1018560,note_off,960,0,4,,,,,,,,,4,,,57,0
1018870,note_off,310,0,1,,,,,,,,,1,,,76,0
1019040,set_tempo,480,1,0,,,,,,1276595,,,,,,,
1019040,note_on,170,0,1,,,,,,,,,1,,,64,45
1019615,note_off,575,0,1,,,,,,,,,1,,,64,0
1019760,set_tempo,720,1,0,,,,,,869565,,,,,,,
1019760,note_on,145,0,1,,,,,,,,,1,,,65,43
1020000,note_off,240,0,1,,,,,,,,,1,,,65,0
1020000,note_on,0,0,1,,,,,,,,,1,,,66,43
1020240,note_on,0,0,1,,,,,,,,,1,,,61,42
1020240,note_off,240,0,1,,,,,,,,,1,,,66,0
1020480,note_on,0,0,1,,,,,,,,,1,,,62,41
1020480,note_off,240,0,1,,,,,,,,,1,,,61,0
1020720,note_on,0,0,1,,,,,,,,,1,,,58,40
1020720,note_off,240,0,1,,,,,,,,,1,,,62,0
1020960,note_off,240,0,1,,,,,,,,,1,,,58,0
1020960,note_on,0,0,1,,,,,,,,,1,,,59,39
1021200,note_off,240,0,1,,,,,,,,,1,,,59,0
1021200,note_on,0,0,1,,,,,,,,,1,,,56,38
1021400,note_off,200,0,1,,,,,,,,,1,,,56,0
1021400,set_tempo,1640,1,0,,,,,,895522,,,,,,,
1021440,set_tempo,40,1,0,,,,,,869565,,,,,,,
1021440,note_on,2880,0,4,,,,,,,,,4,,,45,37
1021440,note_on,40,0,1,,,,,,,,,1,,,59,37
1021440,note_on,2880,0,3,,,,,,,,,3,,,49,37
1021680,note_on,0,0,1,,,,,,,,,1,,,57,36
1021680,note_off,240,0,1,,,,,,,,,1,,,59,0
1021835,note_off,155,0,1,,,,,,,,,1,,,57,0
1021920,note_on,85,0,1,,,,,,,,,1,,,57,36
1022075,note_off,155,0,1,,,,,,,,,1,,,57,0
1022160,note_on,85,0,1,,,,,,,,,1,,,57,35
1022210,note_off,770,0,4,,,,,,,,,4,,,45,0
1022210,note_off,770,0,3,,,,,,,,,3,,,49,0
1022315,note_off,155,0,1,,,,,,,,,1,,,57,0
1022360,set_tempo,920,1,0,,,,,,895522,,,,,,,
1022400,note_on,190,0,3,,,,,,,,,3,,,49,40
1022400,note_on,85,0,1,,,,,,,,,1,,,57,40
1022400,note_on,190,0,4,,,,,,,,,4,,,45,40
1022400,set_tempo,40,1,0,,,,,,2500000,,,,,,,
1022600,set_tempo,200,1,0,,,,,,1071428,,,,,,,
1022680,note_on,280,0,1,,,,,,,,,1,,,59,39
1022690,note_off,10,0,1,,,,,,,,,1,,,57,0
1022720,note_on,30,0,1,,,,,,,,,1,,,61,40
1022730,note_off,10,0,1,,,,,,,,,1,,,59,0
1022760,note_on,30,0,1,,,,,,,,,1,,,62,41
1022775,note_off,15,0,1,,,,,,,,,1,,,61,0
1022800,note_on,25,0,1,,,,,,,,,1,,,64,42
1022805,note_off,5,0,1,,,,,,,,,1,,,62,0
1022840,note_on,35,0,1,,,,,,,,,1,,,66,43
1022845,note_off,5,0,1,,,,,,,,,1,,,64,0
1022880,note_on,35,0,1,,,,,,,,,1,,,68,45
1022895,note_off,15,0,1,,,,,,,,,1,,,66,0
1022920,note_on,25,0,1,,,,,,,,,1,,,69,46
1022930,note_off,10,0,1,,,,,,,,,1,,,68,0
1022960,note_on,30,0,1,,,,,,,,,1,,,71,47
1022970,note_off,10,0,1,,,,,,,,,1,,,69,0
1023000,note_on,30,0,1,,,,,,,,,1,,,73,48
1023015,note_off,15,0,1,,,,,,,,,1,,,71,0
1023040,note_on,25,0,1,,,,,,,,,1,,,74,49
1023050,note_off,10,0,1,,,,,,,,,1,,,73,0
1023080,note_on,30,0,1,,,,,,,,,1,,,76,50
1023100,note_off,20,0,1,,,,,,,,,1,,,74,0
1023120,note_on,20,0,1,,,,,,,,,1,,,78,51
1023135,note_off,15,0,1,,,,,,,,,1,,,76,0
1023160,note_on,25,0,1,,,,,,,,,1,,,80,52
1023170,note_off,770,0,4,,,,,,,,,4,,,45,0
1023170,note_off,770,0,3,,,,,,,,,3,,,49,0
1023170,note_off,10,0,1,,,,,,,,,1,,,78,0
1023200,note_on,30,0,1,,,,,,,,,1,,,81,54
1023210,note_off,10,0,1,,,,,,,,,1,,,80,0
1023240,note_on,30,0,1,,,,,,,,,1,,,83,55
1023255,note_off,15,0,1,,,,,,,,,1,,,81,0
1023280,note_on,25,0,1,,,,,,,,,1,,,85,56
1023295,note_off,15,0,1,,,,,,,,,1,,,83,0
1023320,set_tempo,720,1,0,,,,,,1111111,,,,,,,
1023320,note_on,25,0,1,,,,,,,,,1,,,86,57
1023330,note_off,10,0,1,,,,,,,,,1,,,85,0
1023360,set_tempo,40,1,0,,,,,,821917,,,,,,,
1023360,note_on,190,0,3,,,,,,,,,3,,,61,62
1023360,note_on,190,0,4,,,,,,,,,4,,,57,62
1023360,note_off,30,0,1,,,,,,,,,1,,,86,0
1023360,note_on,0,0,1,,,,,,,,,1,,,88,64
1023400,note_on,40,0,1,,,,,,,,,1,,,90,61
1023440,note_off,40,0,1,,,,,,,,,1,,,88,0
1023440,note_on,0,0,1,,,,,,,,,1,,,88,58
1023480,note_off,40,0,1,,,,,,,,,1,,,90,0
1023565,note_off,85,0,1,,,,,,,,,1,,,88,0
1023600,note_on,35,0,1,,,,,,,,,1,,,86,59
1023725,note_off,125,0,1,,,,,,,,,1,,,86,0
1023840,note_on,115,0,1,,,,,,,,,1,,,85,57
1023880,note_on,40,0,1,,,,,,,,,1,,,86,55
1023920,note_on,0,0,1,,,,,,,,,1,,,85,53
1023920,note_off,40,0,1,,,,,,,,,1,,,85,0
1023960,note_off,40,0,1,,,,,,,,,1,,,86,0
1024040,note_off,80,0,1,,,,,,,,,1,,,85,0
1024080,note_on,40,0,1,,,,,,,,,1,,,83,53
1024130,note_off,770,0,3,,,,,,,,,3,,,61,0
1024130,note_off,770,0,4,,,,,,,,,4,,,57,0
1024205,note_off,125,0,1,,,,,,,,,1,,,83,0
1024320,note_on,190,0,4,,,,,,,,,4,,,57,50
1024320,note_on,190,0,3,,,,,,,,,3,,,61,50
1024320,note_on,115,0,1,,,,,,,,,1,,,81,49
1024360,note_on,40,0,1,,,,,,,,,1,,,83,47
1024400,note_off,40,0,1,,,,,,,,,1,,,81,0
1024400,note_on,0,0,1,,,,,,,,,1,,,81,46
1024440,note_off,40,0,1,,,,,,,,,1,,,83,0
1024520,note_off,80,0,1,,,,,,,,,1,,,81,0
1024560,note_on,40,0,1,,,,,,,,,1,,,79,47
1024680,note_off,120,0,1,,,,,,,,,1,,,79,0
1024800,note_on,120,0,1,,,,,,,,,1,,,78,43
1024840,note_on,40,0,1,,,,,,,,,1,,,79,42
1024880,note_on,0,0,1,,,,,,,,,1,,,78,40
1024880,note_off,40,0,1,,,,,,,,,1,,,78,0
1024920,note_off,40,0,1,,,,,,,,,1,,,79,0
1025000,note_off,80,0,1,,,,,,,,,1,,,78,0
1025040,note_on,40,0,1,,,,,,,,,1,,,76,42
1025090,note_off,770,0,4,,,,,,,,,4,,,57,0
1025090,note_off,770,0,3,,,,,,,,,3,,,61,0
1025165,note_off,125,0,1,,,,,,,,,1,,,76,0
1025240,set_tempo,1880,1,0,,,,,,1111111,,,,,,,
1025280,control_change,190,0,3,,,,,,,64,0,3,,,,
1025280,note_on,115,0,1,,,,,,,,,1,,,74,42
1025280,control_change,7740,0,5,,,,,,,64,0,5,,,,
1025280,note_on,0,0,4,,,,,,,,,4,,,62,42
1025280,control_change,190,0,4,,,,,,,64,0,4,,,,
1025280,set_tempo,40,1,0,,,,,,821917,,,,,,,
1025340,note_off,60,0,1,,,,,,,,,1,,,74,0
1025340,note_on,0,0,1,,,,,,,,,1,,,76,43
1025340,control_change,60,0,3,,,,,,,64,127,3,,,,
1025340,control_change,60,0,5,,,,,,,64,127,5,,,,
1025340,control_change,60,0,4,,,,,,,64,127,4,,,,
1025400,note_off,60,0,1,,,,,,,,,1,,,76,0
1025400,note_on,0,0,1,,,,,,,,,1,,,78,44
1025460,note_off,60,0,1,,,,,,,,,1,,,78,0
1025460,note_on,0,0,1,,,,,,,,,1,,,76,45
1025520,note_on,180,0,3,,,,,,,,,3,,,66,43
1025520,note_off,180,0,4,,,,,,,,,4,,,62,0
1025640,note_off,180,0,1,,,,,,,,,1,,,76,0
1025640,note_on,0,0,1,,,,,,,,,1,,,74,43
1025760,note_off,240,0,3,,,,,,,,,3,,,66,0
1025760,note_on,0,0,1,,,,,,,,,1,,,74,43
1025760,note_on,0,0,3,,,,,,,,,3,,,69,43
1025760,note_off,120,0,1,,,,,,,,,1,,,74,0
1026000,note_off,240,0,3,,,,,,,,,3,,,69,0
1026000,note_on,0,0,3,,,,,,,,,3,,,66,44
1026240,control_change,240,0,3,,,,,,,64,0,3,,,,
1026240,note_off,0,0,3,,,,,,,,,3,,,66,0
1026240,control_change,900,0,5,,,,,,,64,0,5,,,,
1026240,control_change,720,0,4,,,,,,,64,0,4,,,,
1026240,note_on,0,0,4,,,,,,,,,4,,,62,45
1026300,control_change,60,0,3,,,,,,,64,127,3,,,,
1026300,control_change,60,0,5,,,,,,,64,127,5,,,,
1026300,control_change,60,0,4,,,,,,,64,127,4,,,,
1026480,note_on,180,0,3,,,,,,,,,3,,,66,45
1026480,note_off,180,0,4,,,,,,,,,4,,,62,0
1026705,note_off,945,0,1,,,,,,,,,1,,,74,0
1026720,note_on,0,0,3,,,,,,,,,3,,,69,46
1026720,note_on,15,0,1,,,,,,,,,1,,,74,46
1026720,note_off,240,0,3,,,,,,,,,3,,,66,0
1026960,note_off,240,0,3,,,,,,,,,3,,,69,0
1026960,note_on,0,0,3,,,,,,,,,3,,,66,47
1027140,control_change,840,0,5,,,,,,,64,0,5,,,,
1027140,control_change,660,0,4,,,,,,,64,0,4,,,,
1027140,control_change,180,0,3,,,,,,,64,0,3,,,,
1027160,set_tempo,1880,1,0,,,,,,821917,,,,,,,
1027170,note_off,30,0,3,,,,,,,,,3,,,66,0
1027200,control_change,60,0,5,,,,,,,64,127,5,,,,
1027200,control_change,60,0,4,,,,,,,64,127,4,,,,
1027200,control_change,30,0,3,,,,,,,64,127,3,,,,
1027200,set_tempo,40,1,0,,,,,,810810,,,,,,,
1027200,note_on,0,0,4,,,,,,,,,4,,,59,47
1027415,note_off,695,0,1,,,,,,,,,1,,,74,0
1027440,note_on,25,0,1,,,,,,,,,1,,,85,42
1027440,note_on,240,0,3,,,,,,,,,3,,,62,47
1027440,note_off,240,0,4,,,,,,,,,4,,,59,0
1027470,note_off,30,0,1,,,,,,,,,1,,,85,0
1027480,note_on,10,0,1,,,,,,,,,1,,,86,43
1027510,note_off,30,0,1,,,,,,,,,1,,,86,0
1027520,note_on,10,0,1,,,,,,,,,1,,,85,44
1027550,note_off,30,0,1,,,,,,,,,1,,,85,0
1027560,note_on,10,0,1,,,,,,,,,1,,,83,45
1027610,note_off,50,0,1,,,,,,,,,1,,,83,0
1027620,note_on,10,0,1,,,,,,,,,1,,,85,46
1027670,note_off,50,0,1,,,,,,,,,1,,,85,0
1027680,note_on,0,0,3,,,,,,,,,3,,,66,49
1027680,note_off,240,0,3,,,,,,,,,3,,,62,0
1027680,note_on,10,0,1,,,,,,,,,1,,,86,48
1027870,note_off,190,0,1,,,,,,,,,1,,,86,0
1027920,note_on,0,0,3,,,,,,,,,3,,,62,50
1027920,note_off,240,0,3,,,,,,,,,3,,,66,0
1027920,note_on,50,0,1,,,,,,,,,1,,,85,45
1027950,note_off,30,0,1,,,,,,,,,1,,,85,0
1027960,note_on,10,0,1,,,,,,,,,1,,,86,46
1027990,note_off,30,0,1,,,,,,,,,1,,,86,0
1028000,note_on,10,0,1,,,,,,,,,1,,,85,47
1028030,note_off,30,0,1,,,,,,,,,1,,,85,0
1028040,note_on,10,0,1,,,,,,,,,1,,,83,48
1028090,note_off,50,0,1,,,,,,,,,1,,,83,0
1028100,note_on,10,0,1,,,,,,,,,1,,,85,49
1028150,note_off,50,0,1,,,,,,,,,1,,,85,0
1028160,note_off,0,0,3,,,,,,,,,3,,,62,0
1028160,control_change,240,0,3,,,,,,,64,0,3,,,,
1028160,note_on,0,0,4,,,,,,,,,4,,,59,52
1028160,control_change,720,0,4,,,,,,,64,0,4,,,,
1028160,control_change,960,0,5,,,,,,,64,0,5,,,,
1028160,note_on,10,0,1,,,,,,,,,1,,,86,51
1028220,control_change,60,0,3,,,,,,,64,127,3,,,,
1028220,control_change,60,0,4,,,,,,,64,127,4,,,,
1028220,control_change,60,0,5,,,,,,,64,127,5,,,,
1028350,note_off,190,0,1,,,,,,,,,1,,,86,0
1028400,note_on,180,0,3,,,,,,,,,3,,,62,54
1028400,note_on,50,0,1,,,,,,,,,1,,,85,49
1028400,note_off,180,0,4,,,,,,,,,4,,,59,0
1028430,note_off,30,0,1,,,,,,,,,1,,,85,0
1028440,note_on,10,0,1,,,,,,,,,1,,,86,50
1028470,note_off,30,0,1,,,,,,,,,1,,,86,0
1028480,note_on,10,0,1,,,,,,,,,1,,,85,52
1028510,note_off,30,0,1,,,,,,,,,1,,,85,0
1028520,note_on,10,0,1,,,,,,,,,1,,,83,53
1028570,note_off,50,0,1,,,,,,,,,1,,,83,0
1028580,note_on,10,0,1,,,,,,,,,1,,,85,54
1028630,note_off,50,0,1,,,,,,,,,1,,,85,0
1028640,note_off,240,0,3,,,,,,,,,3,,,62,0
1028640,note_on,10,0,1,,,,,,,,,1,,,86,56
1028640,note_on,0,0,3,,,,,,,,,3,,,66,55
1028830,note_off,190,0,1,,,,,,,,,1,,,86,0
1028880,note_on,0,0,3,,,,,,,,,3,,,62,57
1028880,note_on,50,0,1,,,,,,,,,1,,,78,52
1028880,note_off,240,0,3,,,,,,,,,3,,,66,0
1029060,control_change,840,0,5,,,,,,,64,0,5,,,,
1029060,control_change,180,0,3,,,,,,,64,0,3,,,,
1029060,control_change,660,0,4,,,,,,,64,0,4,,,,
1029070,note_off,190,0,1,,,,,,,,,1,,,78,0
1029080,set_tempo,1880,1,0,,,,,,845070,,,,,,,
1029080,note_off,20,0,3,,,,,,,,,3,,,62,0
1029120,note_on,0,0,4,,,,,,,,,4,,,55,59
1029120,set_tempo,40,1,0,,,,,,821917,,,,,,,
1029120,control_change,40,0,3,,,,,,,64,127,3,,,,
1029120,control_change,60,0,5,,,,,,,64,127,5,,,,
1029120,control_change,60,0,4,,,,,,,64,127,4,,,,
1029120,note_on,50,0,1,,,,,,,,,1,,,76,57
1029180,note_off,60,0,1,,,,,,,,,1,,,76,0
1029180,note_on,0,0,1,,,,,,,,,1,,,79,60
1029240,note_on,0,0,1,,,,,,,,,1,,,83,63
1029240,note_off,60,0,1,,,,,,,,,1,,,79,0
1029360,note_on,240,0,3,,,,,,,,,3,,,59,56
1029360,note_off,240,0,4,,,,,,,,,4,,,55,0
1029600,note_off,240,0,3,,,,,,,,,3,,,59,0
1029600,note_on,0,0,3,,,,,,,,,3,,,64,52
1029840,note_off,240,0,3,,,,,,,,,3,,,64,0
1029840,note_on,0,0,3,,,,,,,,,3,,,59,50
1030080,note_on,0,0,4,,,,,,,,,4,,,55,48
1030080,control_change,960,0,5,,,,,,,64,0,5,,,,
1030080,note_off,0,0,3,,,,,,,,,3,,,59,0
1030080,control_change,240,0,3,,,,,,,64,0,3,,,,
1030080,control_change,720,0,4,,,,,,,64,0,4,,,,
1030140,control_change,60,0,4,,,,,,,64,127,4,,,,
1030140,control_change,60,0,3,,,,,,,64,127,3,,,,
1030140,control_change,60,0,5,,,,,,,64,127,5,,,,
1030320,note_off,180,0,4,,,,,,,,,4,,,55,0
1030320,note_on,180,0,3,,,,,,,,,3,,,59,45
1030560,note_off,240,0,3,,,,,,,,,3,,,59,0
1030560,note_on,0,0,3,,,,,,,,,3,,,64,43
1030685,note_off,1445,0,1,,,,,,,,,1,,,83,0
1030740,note_on,55,0,1,,,,,,,,,1,,,81,42
1030800,note_off,240,0,3,,,,,,,,,3,,,64,0
1030800,note_on,0,0,3,,,,,,,,,3,,,59,41
1030800,note_off,60,0,1,,,,,,,,,1,,,81,0
1030800,note_on,0,0,1,,,,,,,,,1,,,79,41
1030860,note_off,60,0,1,,,,,,,,,1,,,79,0
1030860,note_on,0,0,1,,,,,,,,,1,,,78,41
1030920,note_off,60,0,1,,,,,,,,,1,,,78,0
1030920,note_on,0,0,1,,,,,,,,,1,,,76,40
1030980,control_change,840,0,5,,,,,,,64,0,5,,,,
1030980,control_change,180,0,3,,,,,,,64,0,3,,,,
1030980,note_off,60,0,1,,,,,,,,,1,,,76,0
1030980,control_change,660,0,4,,,,,,,64,0,4,,,,
1030980,note_on,0,0,1,,,,,,,,,1,,,74,40
1031000,set_tempo,1880,1,0,,,,,,845070,,,,,,,
1031010,note_off,30,0,3,,,,,,,,,3,,,59,0
1031040,control_change,60,0,5,,,,,,,64,127,5,,,,
1031040,note_on,0,0,1,,,,,,,,,1,,,73,41
1031040,note_off,60,0,1,,,,,,,,,1,,,74,0
1031040,control_change,60,0,4,,,,,,,64,127,4,,,,
1031040,control_change,30,0,3,,,,,,,64,127,3,,,,
1031040,note_on,0,0,4,,,,,,,,,4,,,57,45
1031040,set_tempo,40,1,0,,,,,,821917,,,,,,,
1031100,note_off,60,0,1,,,,,,,,,1,,,73,0
1031100,note_on,0,0,1,,,,,,,,,1,,,76,43
1031160,note_off,60,0,1,,,,,,,,,1,,,76,0
1031160,note_on,0,0,1,,,,,,,,,1,,,79,46
1031280,note_off,240,0,4,,,,,,,,,4,,,57,0
1031280,note_on,240,0,3,,,,,,,,,3,,,61,44
1031520,note_on,0,0,3,,,,,,,,,3,,,64,42
1031520,note_off,240,0,3,,,,,,,,,3,,,61,0
1031760,note_off,240,0,3,,,,,,,,,3,,,64,0
1031760,note_on,0,0,3,,,,,,,,,3,,,61,41
1032000,control_change,240,0,3,,,,,,,64,0,3,,,,
1032000,note_off,0,0,3,,,,,,,,,3,,,61,0
1032000,control_change,720,0,4,,,,,,,64,0,4,,,,
1032000,note_on,0,0,4,,,,,,,,,4,,,57,39
1032000,control_change,960,0,5,,,,,,,64,0,5,,,,
1032060,control_change,60,0,5,,,,,,,64,127,5,,,,
1032060,control_change,60,0,3,,,,,,,64,127,3,,,,
1032060,control_change,60,0,4,,,,,,,64,127,4,,,,
1032240,note_off,180,0,4,,,,,,,,,4,,,57,0
1032240,note_on,180,0,3,,,,,,,,,3,,,61,37
1032480,note_on,0,0,3,,,,,,,,,3,,,64,36
1032480,note_off,240,0,3,,,,,,,,,3,,,61,0
1032585,note_off,1425,0,1,,,,,,,,,1,,,79,0
1032600,set_tempo,1560,1,0,,,,,,845070,,,,,,,
1032660,note_on,75,0,1,,,,,,,,,1,,,78,38
1032720,note_off,60,0,1,,,,,,,,,1,,,78,0
1032720,note_on,0,0,1,,,,,,,,,1,,,76,38
1032720,note_off,240,0,3,,,,,,,,,3,,,64,0
1032720,note_on,0,0,3,,,,,,,,,3,,,61,34
1032760,note_off,40,0,1,,,,,,,,,1,,,76,0
1032760,note_on,0,0,1,,,,,,,,,1,,,74,37
1032800,note_off,40,0,1,,,,,,,,,1,,,74,0
1032800,note_on,0,0,1,,,,,,,,,1,,,73,37
1032840,set_tempo,240,1,0,,,,,,869565,,,,,,,
1032840,note_off,40,0,1,,,,,,,,,1,,,73,0
1032840,note_on,0,0,1,,,,,,,,,1,,,71,37
1032880,note_off,40,0,1,,,,,,,,,1,,,71,0
1032880,note_on,0,0,1,,,,,,,,,1,,,69,36
1032900,control_change,840,0,5,,,,,,,64,0,5,,,,
1032900,control_change,180,0,3,,,,,,,64,0,3,,,,
1032900,control_change,660,0,4,,,,,,,64,0,4,,,,
1032920,note_on,0,0,1,,,,,,,,,1,,,67,36
1032920,note_off,40,0,1,,,,,,,,,1,,,69,0
1032920,note_off,20,0,3,,,,,,,,,3,,,61,0
1032920,set_tempo,80,1,0,,,,,,895522,,,,,,,
1032960,note_off,40,0,1,,,,,,,,,1,,,67,0
1032960,note_on,60,0,4,,,,,,,,,4,,,62,33
1032960,set_tempo,40,1,0,,,,,,845070,,,,,,,
1032960,note_on,28990,0,2,,,,,,,,,2,,,66,36
1033080,note_on,120,0,1,,,,,,,,,1,,,78,38
1033140,note_off,180,0,2,,,,,,,,,2,,,66,0
1033200,note_on,60,0,2,,,,,,,,,2,,,67,39
1033200,note_off,120,0,1,,,,,,,,,1,,,78,0
1033320,note_on,120,0,1,,,,,,,,,1,,,79,40
1033380,note_off,180,0,2,,,,,,,,,2,,,67,0
1033440,note_on,60,0,2,,,,,,,,,2,,,68,42
1033440,note_off,120,0,1,,,,,,,,,1,,,79,0
1033560,note_on,120,0,1,,,,,,,,,1,,,80,43
1033620,note_off,180,0,2,,,,,,,,,2,,,68,0
1033680,note_on,60,0,2,,,,,,,,,2,,,69,45
1033680,note_off,120,0,1,,,,,,,,,1,,,80,0
1033800,note_on,120,0,1,,,,,,,,,1,,,81,46
1033860,note_off,180,0,2,,,,,,,,,2,,,69,0
1033920,note_off,120,0,1,,,,,,,,,1,,,81,0
1033920,note_off,960,0,4,,,,,,,,,4,,,62,0
1033920,note_on,60,0,2,,,,,,,,,2,,,70,47
1034040,note_on,120,0,1,,,,,,,,,1,,,82,50
1034100,note_off,180,0,2,,,,,,,,,2,,,70,0
1034160,note_off,120,0,1,,,,,,,,,1,,,82,0
1034160,note_on,60,0,2,,,,,,,,,2,,,71,52
1034280,note_on,120,0,1,,,,,,,,,1,,,83,54
1034340,note_off,180,0,2,,,,,,,,,2,,,71,0
1034400,note_on,60,0,2,,,,,,,,,2,,,73,57
1034400,note_off,120,0,1,,,,,,,,,1,,,83,0
1034520,note_on,120,0,1,,,,,,,,,1,,,85,59
1034580,note_off,180,0,2,,,,,,,,,2,,,73,0
1034600,set_tempo,1640,1,0,,,,,,869565,,,,,,,
1034640,note_on,60,0,2,,,,,,,,,2,,,74,61
1034640,note_off,120,0,1,,,,,,,,,1,,,85,0
1034760,set_tempo,160,1,0,,,,,,1428571,,,,,,,
1034760,note_on,120,0,1,,,,,,,,,1,,,86,64
1034820,note_off,180,0,2,,,,,,,,,2,,,74,0
1034880,set_tempo,120,1,0,,,,,,821917,,,,,,,
1034880,note_on,0,0,1,,,,,,,,,1,,,74,58
1034880,note_off,120,0,1,,,,,,,,,1,,,86,0
1034880,control_change,1980,0,5,,,,,,,64,0,5,,,,
1034880,control_change,960,0,4,,,,,,,64,0,4,,,,
1034880,note_on,0,0,4,,,,,,,,,4,,,57,58
1034880,control_change,1960,0,3,,,,,,,64,0,3,,,,
1034940,note_on,60,0,1,,,,,,,,,1,,,76,48
1034940,control_change,60,0,3,,,,,,,64,127,3,,,,
1034940,control_change,60,0,4,,,,,,,64,127,4,,,,
1034940,control_change,60,0,5,,,,,,,64,127,5,,,,
1034975,note_off,35,0,1,,,,,,,,,1,,,74,0
1035000,note_on,25,0,1,,,,,,,,,1,,,78,48
1035035,note_off,35,0,1,,,,,,,,,1,,,76,0
1035060,note_on,25,0,1,,,,,,,,,1,,,76,49
1035095,note_off,35,0,1,,,,,,,,,1,,,78,0
1035120,note_on,180,0,3,,,,,,,,,3,,,62,53
1035120,note_on,25,0,1,,,,,,,,,1,,,78,50
1035125,note_off,185,0,4,,,,,,,,,4,,,57,0
1035155,note_off,35,0,1,,,,,,,,,1,,,76,0
1035180,note_on,25,0,1,,,,,,,,,1,,,76,50
1035215,note_off,35,0,1,,,,,,,,,1,,,78,0
1035240,note_on,25,0,1,,,,,,,,,1,,,78,51
1035275,note_off,35,0,1,,,,,,,,,1,,,76,0
1035300,note_on,25,0,1,,,,,,,,,1,,,76,52
1035312,note_off,192,0,3,,,,,,,,,3,,,62,0
1035335,note_off,35,0,1,,,,,,,,,1,,,78,0
1035360,note_on,25,0,1,,,,,,,,,1,,,78,52
1035360,note_on,48,0,3,,,,,,,,,3,,,64,55
1035395,note_off,35,0,1,,,,,,,,,1,,,76,0
1035420,note_on,25,0,1,,,,,,,,,1,,,76,53
1035455,note_off,35,0,1,,,,,,,,,1,,,78,0
1035480,note_on,25,0,1,,,,,,,,,1,,,78,54
1035515,note_off,35,0,1,,,,,,,,,1,,,76,0
1035540,note_on,25,0,1,,,,,,,,,1,,,76,54
1035552,note_off,192,0,3,,,,,,,,,3,,,64,0
1035575,note_off,35,0,1,,,,,,,,,1,,,78,0
1035600,note_on,48,0,3,,,,,,,,,3,,,62,58
1035600,note_on,25,0,1,,,,,,,,,1,,,78,55
1035635,note_off,35,0,1,,,,,,,,,1,,,76,0
1035660,note_on,25,0,1,,,,,,,,,1,,,76,55
1035695,note_off,35,0,1,,,,,,,,,1,,,78,0
1035720,note_on,25,0,1,,,,,,,,,1,,,78,56
1035755,note_off,35,0,1,,,,,,,,,1,,,76,0
1035780,note_on,25,0,1,,,,,,,,,1,,,76,57
1035780,control_change,180,0,3,,,,,,,64,0,3,,,,
1035780,control_change,840,0,5,,,,,,,64,0,5,,,,
1035780,control_change,655,0,4,,,,,,,64,0,4,,,,
1035792,note_off,12,0,3,,,,,,,,,3,,,62,0
1035815,note_off,35,0,1,,,,,,,,,1,,,78,0
1035840,control_change,48,0,3,,,,,,,64,127,3,,,,
1035840,control_change,60,0,4,,,,,,,64,127,4,,,,
1035840,control_change,60,0,5,,,,,,,64,127,5,,,,
1035840,note_on,0,0,4,,,,,,,,,4,,,57,60
1035840,note_on,25,0,1,,,,,,,,,1,,,78,57
1035875,note_off,35,0,1,,,,,,,,,1,,,76,0
1035900,note_on,25,0,1,,,,,,,,,1,,,76,58
1035935,note_off,35,0,1,,,,,,,,,1,,,78,0
1035960,note_on,25,0,1,,,,,,,,,1,,,78,59
1035995,note_off,35,0,1,,,,,,,,,1,,,76,0
1036020,note_on,25,0,1,,,,,,,,,1,,,76,59
1036055,note_off,35,0,1,,,,,,,,,1,,,78,0
1036080,note_on,240,0,3,,,,,,,,,3,,,61,62
1036080,note_on,25,0,1,,,,,,,,,1,,,78,60
1036095,note_off,255,0,4,,,,,,,,,4,,,57,0
1036115,note_off,35,0,1,,,,,,,,,1,,,76,0
1036140,note_on,25,0,1,,,,,,,,,1,,,76,61
1036175,note_off,35,0,1,,,,,,,,,1,,,78,0
1036200,note_on,25,0,1,,,,,,,,,1,,,78,61
1036235,note_off,35,0,1,,,,,,,,,1,,,76,0
1036260,note_on,25,0,1,,,,,,,,,1,,,76,62
1036272,note_off,192,0,3,,,,,,,,,3,,,61,0
1036295,note_off,35,0,1,,,,,,,,,1,,,78,0
1036320,note_on,25,0,1,,,,,,,,,1,,,78,63
1036320,note_on,48,0,3,,,,,,,,,3,,,64,64
1036355,note_off,35,0,1,,,,,,,,,1,,,76,0
1036380,note_on,25,0,1,,,,,,,,,1,,,76,63
1036415,note_off,35,0,1,,,,,,,,,1,,,78,0
1036440,note_on,25,0,1,,,,,,,,,1,,,78,64
1036475,note_off,35,0,1,,,,,,,,,1,,,76,0
1036500,note_on,25,0,1,,,,,,,,,1,,,76,65
1036512,note_off,192,0,3,,,,,,,,,3,,,64,0
1036535,note_off,35,0,1,,,,,,,,,1,,,78,0
1036560,note_on,48,0,3,,,,,,,,,3,,,61,66
1036560,note_on,25,0,1,,,,,,,,,1,,,78,65
1036595,note_off,35,0,1,,,,,,,,,1,,,76,0
1036620,note_on,25,0,1,,,,,,,,,1,,,76,66
1036655,note_off,35,0,1,,,,,,,,,1,,,78,0
1036680,note_on,25,0,1,,,,,,,,,1,,,74,66
1036680,set_tempo,1800,1,0,,,,,,923076,,,,,,,
1036715,note_off,35,0,1,,,,,,,,,1,,,76,0
1036740,control_change,180,0,3,,,,,,,64,0,3,,,,
1036740,control_change,645,0,4,,,,,,,64,0,4,,,,
1036740,note_on,25,0,1,,,,,,,,,1,,,76,67
1036740,control_change,900,0,5,,,,,,,64,0,5,,,,
1036752,note_off,12,0,3,,,,,,,,,3,,,61,0
1036775,note_off,35,0,1,,,,,,,,,1,,,74,0
1036800,note_off,25,0,1,,,,,,,,,1,,,76,0
1036800,note_on,0,0,1,,,,,,,,,1,,,76,67
1036800,note_on,60,0,4,,,,,,,,,4,,,50,68
1036800,set_tempo,120,1,0,,,,,,1111111,,,,,,,
1036800,note_on,48,0,3,,,,,,,,,3,,,57,68
1036800,note_on,0,0,3,,,,,,,,,3,,,62,68
1036800,note_on,0,0,2,,,,,,,,,2,,,69,68
1036800,note_on,1980,0,2,,,,,,,,,2,,,67,68
1037760,note_on,0,0,2,,,,,,,,,2,,,66,39
1037760,note_off,960,0,1,,,,,,,,,1,,,76,0
1037760,note_on,0,0,1,,,,,,,,,1,,,74,39
1037760,set_tempo,960,1,0,,,,,,1132075,,,,,,,
1037760,note_off,960,0,2,,,,,,,,,2,,,67,0
1038525,note_off,1725,0,4,,,,,,,,,4,,,50,0
1038525,note_off,1725,0,3,,,,,,,,,3,,,62,0
1038525,note_off,765,0,2,,,,,,,,,2,,,69,0
1038530,note_off,770,0,1,,,,,,,,,1,,,74,0
1038530,note_off,5,0,3,,,,,,,,,3,,,57,0
1038530,note_off,5,0,2,,,,,,,,,2,,,66,0
1038720,set_tempo,0,1,0,,,,,,571428,,,,,,,
1038720,time_signature,960,1,0,3,4,24,8,,,,,,,,,
1039665,marker,945,1,0,,,,,,,,,,,,,
1039680,note_on,1150,0,1,,,,,,,,,1,,,81,42
1039680,set_tempo,15,1,0,,,,,,400000,,,,,,,
1039895,note_off,215,0,1,,,,,,,,,1,,,81,0
1039920,note_on,25,0,1,,,,,,,,,1,,,73,44
1040105,note_off,185,0,1,,,,,,,,,1,,,73,0
1040160,note_on,55,0,1,,,,,,,,,1,,,76,46
1040160,control_change,1630,0,3,,,,,,,64,0,3,,,,
1040160,control_change,1635,0,4,,,,,,,64,0,4,,,,
1040160,control_change,3420,0,5,,,,,,,64,0,5,,,,
1040160,note_on,0,0,5,,,,,,,,,5,,,62,43
1040220,control_change,60,0,3,,,,,,,64,127,3,,,,
1040220,control_change,60,0,4,,,,,,,64,127,4,,,,
1040220,control_change,60,0,5,,,,,,,64,127,5,,,,
1040400,note_on,240,0,1,,,,,,,,,1,,,74,43
1040400,note_off,180,0,5,,,,,,,,,5,,,62,0
1040400,note_on,180,0,3,,,,,,,,,3,,,66,43
1040405,note_off,5,0,1,,,,,,,,,1,,,76,0
1040615,note_off,210,0,1,,,,,,,,,1,,,74,0
1040640,note_on,25,0,1,,,,,,,,,1,,,74,44
1040640,note_off,240,0,3,,,,,,,,,3,,,66,0
1040640,note_on,0,0,3,,,,,,,,,3,,,69,44
1040880,note_off,240,0,3,,,,,,,,,3,,,69,0
1040880,note_on,0,0,3,,,,,,,,,3,,,66,44
1041025,note_off,385,0,1,,,,,,,,,1,,,74,0
1041120,note_on,95,0,1,,,,,,,,,1,,,74,45
1041120,note_off,240,0,3,,,,,,,,,3,,,66,0
1041120,note_on,0,0,3,,,,,,,,,3,,,62,45
1041360,note_on,0,0,3,,,,,,,,,3,,,66,45
1041360,note_off,240,0,3,,,,,,,,,3,,,62,0
1041505,note_off,385,0,1,,,,,,,,,1,,,74,0
1041540,control_change,1320,0,4,,,,,,,64,0,4,,,,
1041540,control_change,180,0,3,,,,,,,64,0,3,,,,
1041540,control_change,1140,0,5,,,,,,,64,0,5,,,,
1041575,note_off,35,0,3,,,,,,,,,3,,,66,0
1041600,control_change,25,0,3,,,,,,,64,127,3,,,,
1041600,note_on,95,0,1,,,,,,,,,1,,,76,50
1041600,note_on,0,0,5,,,,,,,,,5,,,61,46
1041600,control_change,60,0,5,,,,,,,64,127,5,,,,
1041600,control_change,60,0,4,,,,,,,64,127,4,,,,
1041840,note_on,240,0,3,,,,,,,,,3,,,67,46
1041840,note_off,240,0,5,,,,,,,,,5,,,61,0
1042080,note_on,0,0,3,,,,,,,,,3,,,69,47
1042080,note_on,0,0,1,,,,,,,,,1,,,79,47
1042080,note_off,480,0,1,,,,,,,,,1,,,76,0
1042080,note_off,240,0,3,,,,,,,,,3,,,67,0
1042320,note_off,240,0,3,,,,,,,,,3,,,69,0
1042320,note_on,0,0,3,,,,,,,,,3,,,67,47
1042465,note_off,385,0,1,,,,,,,,,1,,,79,0
1042560,note_on,95,0,1,,,,,,,,,1,,,73,48
1042560,note_off,240,0,3,,,,,,,,,3,,,67,0
1042560,note_on,0,0,3,,,,,,,,,3,,,64,48
1042800,note_off,240,0,1,,,,,,,,,1,,,73,0
1042800,note_on,0,0,1,,,,,,,,,1,,,69,49
1042800,note_off,240,0,3,,,,,,,,,3,,,64,0
1042800,note_on,0,0,3,,,,,,,,,3,,,67,48
1042980,control_change,1140,0,5,,,,,,,64,0,5,,,,
1042980,control_change,180,0,3,,,,,,,64,0,3,,,,
1042980,control_change,1380,0,4,,,,,,,64,0,4,,,,
1043000,note_off,200,0,1,,,,,,,,,1,,,69,0
1043010,note_off,30,0,3,,,,,,,,,3,,,67,0
1043040,note_on,0,0,5,,,,,,,,,5,,,62,48
1043040,control_change,30,0,3,,,,,,,64,127,3,,,,
1043040,control_change,60,0,4,,,,,,,64,127,4,,,,
1043040,note_on,40,0,1,,,,,,,,,1,,,78,52
1043040,control_change,60,0,5,,,,,,,64,127,5,,,,
1043280,note_off,240,0,5,,,,,,,,,5,,,62,0
1043280,note_on,240,0,3,,,,,,,,,3,,,69,49
1043520,note_off,240,0,3,,,,,,,,,3,,,69,0
1043520,note_off,480,0,1,,,,,,,,,1,,,78,0
1043520,note_on,0,0,1,,,,,,,,,1,,,81,49
1043520,note_on,0,0,3,,,,,,,,,3,,,66,49
1043760,note_off,240,0,3,,,,,,,,,3,,,66,0
1043760,note_on,0,0,3,,,,,,,,,3,,,62,50
1043905,note_off,385,0,1,,,,,,,,,1,,,81,0
1043940,control_change,900,0,4,,,,,,,64,0,4,,,,
1043940,control_change,660,0,5,,,,,,,64,0,5,,,,
1043940,control_change,180,0,3,,,,,,,64,0,3,,,,
1044000,control_change,60,0,5,,,,,,,64,127,5,,,,
1044000,control_change,60,0,4,,,,,,,64,127,4,,,,
1044000,note_on,0,0,5,,,,,,,,,5,,,55,50
1044000,note_on,95,0,1,,,,,,,,,1,,,83,50
1044000,control_change,60,0,3,,,,,,,64,127,3,,,,
1044000,note_off,0,0,3,,,,,,,,,3,,,62,0
1044000,note_on,0,0,3,,,,,,,,,3,,,67,50
1044240,note_off,240,0,5,,,,,,,,,5,,,55,0
1044240,note_off,240,0,3,,,,,,,,,3,,,67,0
1044240,note_on,0,0,3,,,,,,,,,3,,,62,51
1044240,note_on,0,0,1,,,,,,,,,1,,,79,51
1044240,note_off,240,0,1,,,,,,,,,1,,,83,0
1044420,control_change,180,0,3,,,,,,,64,0,3,,,,
1044420,control_change,420,0,4,,,,,,,64,0,4,,,,
1044420,control_change,180,0,5,,,,,,,64,0,5,,,,
1044440,note_off,200,0,1,,,,,,,,,1,,,79,0
1044450,note_off,30,0,3,,,,,,,,,3,,,62,0
1044480,note_on,40,0,1,,,,,,,,,1,,,78,55
1044480,note_on,60,0,5,,,,,,,,,5,,,57,53
1044480,note_on,60,0,4,,,,,,,,,4,,,62,53
1044960,note_on,0,0,1,,,,,,,,,1,,,76,47
1044960,note_on,0,0,4,,,,,,,,,4,,,61,47
1044960,note_off,480,0,4,,,,,,,,,4,,,62,0
1044960,note_off,480,0,1,,,,,,,,,1,,,78,0
1045340,note_off,860,0,5,,,,,,,,,5,,,57,0
1045345,note_off,385,0,1,,,,,,,,,1,,,76,0
1045345,note_off,385,0,4,,,,,,,,,4,,,61,0
1045400,set_tempo,5720,1,0,,,,,,402684,,,,,,,
1045440,set_tempo,40,1,0,,,,,,400000,,,,,,,
1045440,note_on,95,0,1,,,,,,,,,1,,,81,58
1045680,note_on,0,0,1,,,,,,,,,1,,,73,60
1045680,note_off,240,0,1,,,,,,,,,1,,,81,0
1045920,note_on,0,0,5,,,,,,,,,5,,,54,59
1045920,control_change,580,0,5,,,,,,,64,0,5,,,,
1045920,note_on,0,0,1,,,,,,,,,1,,,76,64
1045920,note_off,240,0,1,,,,,,,,,1,,,73,0
1045920,control_change,575,0,4,,,,,,,64,0,4,,,,
1045920,control_change,1470,0,3,,,,,,,64,0,3,,,,
1045980,control_change,60,0,5,,,,,,,64,127,5,,,,
1045980,control_change,60,0,4,,,,,,,64,127,4,,,,
1045980,control_change,60,0,3,,,,,,,64,127,3,,,,
1046160,note_on,240,0,1,,,,,,,,,1,,,74,60
1046160,note_off,180,0,5,,,,,,,,,5,,,54,0
1046160,note_on,180,0,3,,,,,,,,,3,,,57,60
1046165,note_off,5,0,1,,,,,,,,,1,,,76,0
1046370,note_off,205,0,1,,,,,,,,,1,,,74,0
1046400,note_off,240,0,3,,,,,,,,,3,,,57,0
1046400,note_on,0,0,3,,,,,,,,,3,,,62,60
1046400,note_on,30,0,1,,,,,,,,,1,,,74,60
1046640,note_off,240,0,3,,,,,,,,,3,,,62,0
1046640,note_on,0,0,3,,,,,,,,,3,,,57,61
1046785,note_off,385,0,1,,,,,,,,,1,,,74,0
1046820,control_change,840,0,4,,,,,,,64,0,4,,,,
1046820,control_change,180,0,3,,,,,,,64,0,3,,,,
1046820,control_change,660,0,5,,,,,,,64,0,5,,,,
1046880,control_change,60,0,5,,,,,,,64,127,5,,,,
1046880,note_on,0,0,5,,,,,,,,,5,,,53,62
1046880,note_on,95,0,1,,,,,,,,,1,,,74,62
1046880,control_change,60,0,4,,,,,,,64,127,4,,,,
1046880,control_change,60,0,3,,,,,,,64,127,3,,,,
1046880,note_off,0,0,3,,,,,,,,,3,,,57,0
1047120,note_off,240,0,5,,,,,,,,,5,,,53,0
1047120,note_on,240,0,3,,,,,,,,,3,,,57,62
1047265,note_off,385,0,1,,,,,,,,,1,,,74,0
1047300,control_change,180,0,5,,,,,,,64,0,5,,,,
1047300,control_change,420,0,4,,,,,,,64,0,4,,,,
1047300,control_change,180,0,3,,,,,,,64,0,3,,,,
1047330,note_off,30,0,3,,,,,,,,,3,,,57,0
1047360,note_on,60,0,5,,,,,,,,,5,,,52,63
1047360,note_on,60,0,4,,,,,,,,,4,,,56,63
1047360,note_on,0,0,4,,,,,,,,,4,,,59,63
1047360,note_on,95,0,1,,,,,,,,,1,,,86,69
1047360,set_tempo,1920,1,0,,,,,,400000,,,,,,,
1047360,note_on,8830,0,2,,,,,,,,,2,,,74,69
1047360,note_on,0,0,2,,,,,,,,,2,,,80,69
1047735,note_off,375,0,2,,,,,,,,,2,,,80,0
1047745,note_off,0,0,4,,,,,,,,,4,,,56,0
1047745,note_off,10,0,2,,,,,,,,,2,,,74,0
1047745,note_off,385,0,1,,,,,,,,,1,,,86,0
1047745,note_off,385,0,5,,,,,,,,,5,,,52,0
1047745,note_off,385,0,4,,,,,,,,,4,,,59,0
1048200,note_on,455,0,1,,,,,,,,,1,,,74,52
1048320,note_off,120,0,1,,,,,,,,,1,,,74,0
1048320,note_on,0,0,1,,,,,,,,,1,,,76,51
1048680,note_on,0,0,1,,,,,,,,,1,,,78,50
1048680,note_off,360,0,1,,,,,,,,,1,,,76,0
1048800,note_off,120,0,1,,,,,,,,,1,,,78,0
1048800,note_on,0,0,1,,,,,,,,,1,,,76,50
1049280,note_off,480,0,1,,,,,,,,,1,,,76,0
1049280,note_on,0,0,4,,,,,,,,,4,,,59,48
1049280,note_on,1535,0,4,,,,,,,,,4,,,62,48
1049280,note_on,1535,0,5,,,,,,,,,5,,,52,48
1049640,note_on,360,0,1,,,,,,,,,1,,,74,47
1049665,note_off,385,0,4,,,,,,,,,4,,,59,0
1049665,note_off,0,0,4,,,,,,,,,4,,,62,0
1049665,note_off,385,0,5,,,,,,,,,5,,,52,0
1049760,note_on,0,0,1,,,,,,,,,1,,,71,47
1049760,note_off,120,0,1,,,,,,,,,1,,,74,0
1050120,note_off,360,0,1,,,,,,,,,1,,,71,0
1050120,note_on,0,0,1,,,,,,,,,1,,,68,46
1050240,note_on,0,0,1,,,,,,,,,1,,,69,46
1050240,note_off,120,0,1,,,,,,,,,1,,,68,0
1050720,note_off,480,0,1,,,,,,,,,1,,,69,0
1050720,note_on,1055,0,4,,,,,,,,,4,,,61,44
1050720,note_on,1055,0,5,,,,,,,,,5,,,57,44
1051040,set_tempo,3680,1,0,,,,,,402684,,,,,,,
1051080,note_on,360,0,1,,,,,,,,,1,,,80,56
1051080,set_tempo,40,1,0,,,,,,400000,,,,,,,
1051105,note_off,385,0,4,,,,,,,,,4,,,61,0
1051105,note_off,385,0,5,,,,,,,,,5,,,57,0
1051200,note_off,120,0,1,,,,,,,,,1,,,80,0
1051200,note_on,0,0,1,,,,,,,,,1,,,81,57
1051560,note_off,360,0,1,,,,,,,,,1,,,81,0
1051560,note_on,0,0,1,,,,,,,,,1,,,73,60
1051680,note_on,575,0,5,,,,,,,,,5,,,50,60
1051680,note_on,0,0,1,,,,,,,,,1,,,74,61
1051680,note_off,120,0,1,,,,,,,,,1,,,73,0
1051800,note_on,695,0,4,,,,,,,,,4,,,62,60
1051835,note_off,155,0,1,,,,,,,,,1,,,74,0
1051895,note_off,95,0,4,,,,,,,,,4,,,62,0
1051920,note_on,85,0,1,,,,,,,,,1,,,78,62
1051920,note_on,25,0,4,,,,,,,,,4,,,61,61
1052015,note_off,95,0,4,,,,,,,,,4,,,61,0
1052040,note_off,360,0,5,,,,,,,,,5,,,50,0
1052040,note_on,25,0,4,,,,,,,,,4,,,62,61
1052040,note_on,0,0,1,,,,,,,,,1,,,81,64
1052040,note_off,120,0,1,,,,,,,,,1,,,78,0
1052135,note_off,95,0,4,,,,,,,,,4,,,62,0
1052160,note_on,120,0,5,,,,,,,,,5,,,47,61
1052160,note_off,120,0,1,,,,,,,,,1,,,81,0
1052160,note_on,0,0,1,,,,,,,,,1,,,86,65
1052280,note_on,145,0,4,,,,,,,,,4,,,59,61
1052375,note_off,95,0,4,,,,,,,,,4,,,59,0
1052400,note_on,25,0,4,,,,,,,,,4,,,58,61
1052470,note_off,310,0,1,,,,,,,,,1,,,86,0
1052495,note_off,95,0,4,,,,,,,,,4,,,58,0
1052520,note_on,25,0,4,,,,,,,,,4,,,59,61
1052520,note_off,360,0,5,,,,,,,,,5,,,47,0
1052615,note_off,95,0,4,,,,,,,,,4,,,59,0
1052640,note_on,120,0,5,,,,,,,,,5,,,42,61
1052760,note_on,145,0,4,,,,,,,,,4,,,54,62
1052855,note_off,95,0,4,,,,,,,,,4,,,54,0
1052880,note_on,410,0,1,,,,,,,,,1,,,74,62
1052880,note_on,25,0,4,,,,,,,,,4,,,52,62
1052975,note_off,95,0,4,,,,,,,,,4,,,52,0
1053000,note_on,25,0,4,,,,,,,,,4,,,54,62
1053000,note_off,360,0,5,,,,,,,,,5,,,42,0
1053070,note_off,190,0,1,,,,,,,,,1,,,74,0
1053095,note_off,95,0,4,,,,,,,,,4,,,54,0
1053120,note_on,120,0,5,,,,,,,,,5,,,43,62
1053120,note_on,50,0,1,,,,,,,,,1,,,76,62
1053240,note_on,145,0,4,,,,,,,,,4,,,55,62
1053275,note_off,155,0,1,,,,,,,,,1,,,76,0
1053335,note_off,95,0,4,,,,,,,,,4,,,55,0
1053360,note_on,85,0,1,,,,,,,,,1,,,79,67
1053360,note_on,25,0,4,,,,,,,,,4,,,54,62
1053455,note_off,95,0,4,,,,,,,,,4,,,54,0
1053480,note_off,120,0,1,,,,,,,,,1,,,79,0
1053480,note_on,0,0,1,,,,,,,,,1,,,76,68
1053480,note_off,360,0,5,,,,,,,,,5,,,43,0
1053480,note_on,25,0,4,,,,,,,,,4,,,55,62
1053575,note_off,95,0,4,,,,,,,,,4,,,55,0
1053600,note_on,120,0,5,,,,,,,,,5,,,40,62
1053600,note_off,120,0,1,,,,,,,,,1,,,76,0
1053600,note_on,0,0,1,,,,,,,,,1,,,83,70
1053720,note_off,120,0,1,,,,,,,,,1,,,83,0
1053720,note_on,145,0,4,,,,,,,,,4,,,52,63
1053815,note_off,95,0,4,,,,,,,,,4,,,52,0
1053840,note_on,25,0,4,,,,,,,,,4,,,51,63
1053840,note_on,120,0,1,,,,,,,,,1,,,79,63
1053935,note_off,95,0,4,,,,,,,,,4,,,51,0
1053960,note_off,120,0,1,,,,,,,,,1,,,79,0
1053960,note_on,0,0,1,,,,,,,,,1,,,76,63
1053960,note_off,360,0,5,,,,,,,,,5,,,40,0
1053960,note_on,25,0,4,,,,,,,,,4,,,52,63
1054055,note_off,95,0,4,,,,,,,,,4,,,52,0
1054080,note_on,0,0,1,,,,,,,,,1,,,73,63
1054080,note_off,120,0,1,,,,,,,,,1,,,76,0
1054080,note_on,120,0,5,,,,,,,,,5,,,45,63
1054200,note_on,145,0,4,,,,,,,,,4,,,57,63
1054200,note_off,120,0,1,,,,,,,,,1,,,73,0
1054295,note_off,95,0,4,,,,,,,,,4,,,57,0
1054320,note_on,120,0,1,,,,,,,,,1,,,76,63
1054320,note_on,25,0,4,,,,,,,,,4,,,56,63
1054415,note_off,95,0,4,,,,,,,,,4,,,56,0
1054440,note_on,25,0,4,,,,,,,,,4,,,57,63
1054440,note_off,360,0,5,,,,,,,,,5,,,45,0
1054440,note_on,0,0,1,,,,,,,,,1,,,69,63
1054440,note_off,120,0,1,,,,,,,,,1,,,76,0
1054535,note_off,95,0,4,,,,,,,,,4,,,57,0
1054560,note_off,120,0,1,,,,,,,,,1,,,69,0
1054560,note_on,0,0,1,,,,,,,,,1,,,81,64
1054560,note_on,120,0,5,,,,,,,,,5,,,42,64
1054680,note_off,120,0,1,,,,,,,,,1,,,81,0
1054680,note_on,145,0,4,,,,,,,,,4,,,54,64
1054775,note_off,95,0,4,,,,,,,,,4,,,54,0
1054800,note_on,25,0,4,,,,,,,,,4,,,52,64
1054800,note_on,120,0,1,,,,,,,,,1,,,78,66
1054895,note_off,95,0,4,,,,,,,,,4,,,52,0
1054920,note_on,25,0,4,,,,,,,,,4,,,54,64
1054920,note_off,360,0,5,,,,,,,,,5,,,42,0
1054920,note_on,0,0,1,,,,,,,,,1,,,74,67
1054920,note_off,120,0,1,,,,,,,,,1,,,78,0
1055015,note_off,95,0,4,,,,,,,,,4,,,54,0
1055040,note_off,120,0,1,,,,,,,,,1,,,74,0
1055040,note_on,0,0,1,,,,,,,,,1,,,86,68
1055040,note_on,120,0,5,,,,,,,,,5,,,47,64
1055160,note_on,145,0,4,,,,,,,,,4,,,59,64
1055255,note_off,95,0,4,,,,,,,,,4,,,59,0
1055280,note_on,25,0,4,,,,,,,,,4,,,58,64
1055280,note_off,240,0,1,,,,,,,,,1,,,86,0
1055375,note_off,95,0,4,,,,,,,,,4,,,58,0
1055400,note_off,360,0,5,,,,,,,,,5,,,47,0
1055400,note_on,25,0,4,,,,,,,,,4,,,59,64
1055495,note_off,95,0,4,,,,,,,,,4,,,59,0
1055520,note_on,120,0,5,,,,,,,,,5,,,43,65
1055640,note_on,145,0,4,,,,,,,,,4,,,55,65
1055735,note_off,95,0,4,,,,,,,,,4,,,55,0
1055760,note_on,25,0,4,,,,,,,,,4,,,54,65
1055760,note_on,8015,0,2,,,,,,,,,2,,,76,65
1055760,note_on,480,0,1,,,,,,,,,1,,,79,65
1055855,note_off,95,0,4,,,,,,,,,4,,,54,0
1055880,note_on,25,0,4,,,,,,,,,4,,,55,65
1055880,note_off,360,0,5,,,,,,,,,5,,,43,0
1055915,note_off,155,0,2,,,,,,,,,2,,,76,0
1055915,note_off,155,0,1,,,,,,,,,1,,,79,0
1055975,note_off,95,0,4,,,,,,,,,4,,,55,0
1056000,note_on,85,0,1,,,,,,,,,1,,,78,69
1056000,note_on,85,0,2,,,,,,,,,2,,,74,69
1056000,note_on,120,0,5,,,,,,,,,5,,,45,65
1056120,note_on,145,0,4,,,,,,,,,4,,,57,65
1056215,note_off,95,0,4,,,,,,,,,4,,,57,0
1056240,note_on,25,0,4,,,,,,,,,4,,,56,65
1056335,note_off,95,0,4,,,,,,,,,4,,,56,0
1056360,note_off,360,0,5,,,,,,,,,5,,,45,0
1056360,note_on,25,0,4,,,,,,,,,4,,,57,65
1056455,note_off,95,0,4,,,,,,,,,4,,,57,0
1056480,note_off,480,0,2,,,,,,,,,2,,,74,0
1056480,note_on,120,0,5,,,,,,,,,5,,,45,66
1056480,note_on,0,0,2,,,,,,,,,2,,,73,61
1056480,note_off,480,0,1,,,,,,,,,1,,,78,0
1056480,note_on,0,0,1,,,,,,,,,1,,,76,61
1056600,note_on,145,0,4,,,,,,,,,4,,,57,66
1056660,note_off,180,0,5,,,,,,,,,5,,,45,0
1056695,note_off,95,0,4,,,,,,,,,4,,,57,0
1056720,note_on,60,0,5,,,,,,,,,5,,,43,66
1056840,note_on,145,0,4,,,,,,,,,4,,,55,66
1056865,note_off,385,0,2,,,,,,,,,2,,,73,0
1056865,note_off,385,0,1,,,,,,,,,1,,,76,0
1056900,note_off,180,0,5,,,,,,,,,5,,,43,0
1056935,note_off,95,0,4,,,,,,,,,4,,,55,0
1056960,note_on,60,0,5,,,,,,,,,5,,,42,66
1057080,note_on,145,0,4,,,,,,,,,4,,,54,66
1057140,note_off,180,0,5,,,,,,,,,5,,,42,0
1057175,note_off,95,0,4,,,,,,,,,4,,,54,0
1057200,note_on,60,0,5,,,,,,,,,5,,,40,66
1057320,note_on,145,0,4,,,,,,,,,4,,,52,67
1057380,note_off,180,0,5,,,,,,,,,5,,,40,0
1057400,set_tempo,6320,1,0,,,,,,402684,,,,,,,
1057415,note_off,95,0,4,,,,,,,,,4,,,52,0
1057440,note_on,60,0,5,,,,,,,,,5,,,42,67
1057440,set_tempo,40,1,0,,,,,,400000,,,,,,,
1057440,note_on,575,0,1,,,,,,,,,1,,,74,67
1057535,note_off,95,0,1,,,,,,,,,1,,,74,0
1057560,note_on,145,0,4,,,,,,,,,4,,,54,67
1057655,note_off,95,0,4,,,,,,,,,4,,,54,0
1057680,note_on,25,0,4,,,,,,,,,4,,,52,67
1057680,note_on,145,0,1,,,,,,,,,1,,,78,68
1057775,note_off,95,0,4,,,,,,,,,4,,,52,0
1057775,note_off,95,0,1,,,,,,,,,1,,,78,0
1057800,note_on,25,0,4,,,,,,,,,4,,,54,67
1057800,note_off,360,0,5,,,,,,,,,5,,,42,0
1057800,note_on,25,0,1,,,,,,,,,1,,,81,70
1057895,note_off,95,0,4,,,,,,,,,4,,,54,0
1057895,note_off,95,0,1,,,,,,,,,1,,,81,0
1057920,note_on,25,0,1,,,,,,,,,1,,,86,72
1057920,note_on,120,0,5,,,,,,,,,5,,,50,67
1058040,note_on,145,0,4,,,,,,,,,4,,,62,67
1058100,note_off,180,0,5,,,,,,,,,5,,,50,0
1058110,note_off,190,0,1,,,,,,,,,1,,,86,0
1058135,note_off,95,0,4,,,,,,,,,4,,,62,0
1058160,note_on,60,0,5,,,,,,,,,5,,,49,67
1058280,note_on,145,0,4,,,,,,,,,4,,,61,68
1058340,note_off,180,0,5,,,,,,,,,5,,,49,0
1058375,note_off,95,0,4,,,,,,,,,4,,,61,0
1058400,note_on,60,0,5,,,,,,,,,5,,,47,68
1058520,note_on,145,0,4,,,,,,,,,4,,,59,68
1058580,note_off,180,0,5,,,,,,,,,5,,,47,0
1058615,note_off,95,0,4,,,,,,,,,4,,,59,0
1058640,note_on,60,0,5,,,,,,,,,5,,,45,68
1058640,note_on,530,0,1,,,,,,,,,1,,,74,68
1058735,note_off,95,0,1,,,,,,,,,1,,,74,0
1058760,note_on,145,0,4,,,,,,,,,4,,,57,68
1058820,note_off,180,0,5,,,,,,,,,5,,,45,0
1058855,note_off,95,0,4,,,,,,,,,4,,,57,0
1058880,note_on,145,0,1,,,,,,,,,1,,,74,68
1058880,note_on,60,0,5,,,,,,,,,5,,,44,68
1058975,note_off,95,0,1,,,,,,,,,1,,,74,0
1059000,note_on,145,0,4,,,,,,,,,4,,,56,68
1059095,note_off,95,0,4,,,,,,,,,4,,,56,0
1059120,note_on,145,0,1,,,,,,,,,1,,,80,70
1059120,note_on,25,0,4,,,,,,,,,4,,,54,69
1059215,note_off,95,0,4,,,,,,,,,4,,,54,0
1059215,note_off,95,0,1,,,,,,,,,1,,,80,0
1059240,note_on,25,0,1,,,,,,,,,1,,,83,71
1059240,note_off,360,0,5,,,,,,,,,5,,,44,0
1059240,note_on,25,0,4,,,,,,,,,4,,,56,69
1059335,note_off,95,0,4,,,,,,,,,4,,,56,0
1059335,note_off,95,0,1,,,,,,,,,1,,,83,0
1059360,note_on,120,0,5,,,,,,,,,5,,,47,69
1059360,note_on,25,0,1,,,,,,,,,1,,,86,72
1059480,note_on,145,0,4,,,,,,,,,4,,,59,69
1059540,note_off,180,0,5,,,,,,,,,5,,,47,0
1059550,note_off,190,0,1,,,,,,,,,1,,,86,0
1059575,note_off,95,0,4,,,,,,,,,4,,,59,0
1059600,note_on,60,0,5,,,,,,,,,5,,,45,69
1059720,note_on,145,0,4,,,,,,,,,4,,,57,69
1059780,note_off,180,0,5,,,,,,,,,5,,,45,0
1059815,note_off,95,0,4,,,,,,,,,4,,,57,0
1059840,note_on,60,0,5,,,,,,,,,5,,,44,69
1059960,note_on,145,0,4,,,,,,,,,4,,,56,69
1060020,note_off,180,0,5,,,,,,,,,5,,,44,0
1060055,note_off,95,0,4,,,,,,,,,4,,,56,0
1060080,note_on,530,0,1,,,,,,,,,1,,,74,70
1060080,note_on,60,0,5,,,,,,,,,5,,,40,70
1060175,note_off,95,0,1,,,,,,,,,1,,,74,0
1060200,note_on,145,0,4,,,,,,,,,4,,,52,70
1060260,note_off,180,0,5,,,,,,,,,5,,,40,0
1060295,note_off,95,0,4,,,,,,,,,4,,,52,0
1060320,note_on,145,0,1,,,,,,,,,1,,,73,76
1060320,note_on,60,0,5,,,,,,,,,5,,,45,70
1060440,note_on,145,0,4,,,,,,,,,4,,,57,70
1060535,note_off,95,0,4,,,,,,,,,4,,,57,0
1060560,note_on,25,0,4,,,,,,,,,4,,,56,70
1060655,note_off,95,0,4,,,,,,,,,4,,,56,0
1060680,note_off,360,0,5,,,,,,,,,5,,,45,0
1060680,note_on,25,0,4,,,,,,,,,4,,,57,70
1060775,note_off,95,0,4,,,,,,,,,4,,,57,0
1060800,note_off,480,0,1,,,,,,,,,1,,,73,0
1060800,note_on,0,0,1,,,,,,,,,1,,,76,70
1060800,note_on,120,0,5,,,,,,,,,5,,,37,70
1060920,note_on,145,0,4,,,,,,,,,4,,,49,71
1061015,note_off,95,0,4,,,,,,,,,4,,,49,0
1061040,note_on,25,0,4,,,,,,,,,4,,,47,71
1061135,note_off,95,0,4,,,,,,,,,4,,,47,0
1061160,note_on,25,0,4,,,,,,,,,4,,,49,71
1061160,note_off,360,0,5,,,,,,,,,5,,,37,0
1061185,note_off,385,0,1,,,,,,,,,1,,,76,0
1061255,note_off,95,0,4,,,,,,,,,4,,,49,0
1061280,note_on,120,0,5,,,,,,,,,5,,,40,71
1061280,note_on,25,0,4,,,,,,,,,4,,,59,71
1061280,note_on,4415,0,2,,,,,,,,,2,,,62,71
1061280,note_on,95,0,1,,,,,,,,,1,,,68,71
1061400,note_on,120,0,4,,,,,,,,,4,,,52,71
1061495,note_off,95,0,4,,,,,,,,,4,,,52,0
1061520,note_on,25,0,4,,,,,,,,,4,,,51,71
1061615,note_off,95,0,4,,,,,,,,,4,,,51,0
1061640,note_off,360,0,5,,,,,,,,,5,,,40,0
1061640,note_on,25,0,4,,,,,,,,,4,,,52,71
1061665,note_off,385,0,2,,,,,,,,,2,,,62,0
1061665,note_off,25,0,4,,,,,,,,,4,,,59,0
1061665,note_off,385,0,1,,,,,,,,,1,,,68,0
1061720,set_tempo,4280,1,0,,,,,,402684,,,,,,,
1061735,note_off,70,0,4,,,,,,,,,4,,,52,0
1061760,set_tempo,40,1,0,,,,,,400000,,,,,,,
1061760,note_on,95,0,2,,,,,,,,,2,,,61,70
1061760,note_on,120,0,5,,,,,,,,,5,,,45,70
1061760,note_on,95,0,1,,,,,,,,,1,,,69,70
1061880,note_on,120,0,5,,,,,,,,,5,,,57,68
1061975,note_off,95,0,5,,,,,,,,,5,,,57,0
1062000,note_on,25,0,5,,,,,,,,,5,,,52,67
1062095,note_off,95,0,5,,,,,,,,,5,,,52,0
1062120,note_on,0,0,5,,,,,,,,,5,,,49,66
1062120,note_off,25,0,5,,,,,,,,,5,,,45,0
1062145,note_off,385,0,1,,,,,,,,,1,,,69,0
1062145,note_off,385,0,2,,,,,,,,,2,,,61,0
1062215,note_off,95,0,5,,,,,,,,,5,,,49,0
1062240,note_on,25,0,5,,,,,,,,,5,,,45,65
1062620,note_off,380,0,5,,,,,,,,,5,,,45,0
1062680,set_tempo,920,1,0,,,,,,402684,,,,,,,
1062720,set_tempo,40,1,0,,,,,,402684,,,,,,,
1062720,note_on,575,0,1,,,,,,,,,1,,,81,55
1062960,note_off,240,0,1,,,,,,,,,1,,,81,0
1062960,note_on,0,0,1,,,,,,,,,1,,,78,50
1063150,note_off,190,0,1,,,,,,,,,1,,,78,0
1063200,note_on,0,0,5,,,,,,,,,5,,,71,53
1063200,note_on,580,0,5,,,,,,,,,5,,,69,53
1063200,note_on,50,0,1,,,,,,,,,1,,,75,53
1063440,note_off,240,0,5,,,,,,,,,5,,,71,0
1063440,note_off,0,0,5,,,,,,,,,5,,,69,0
1063440,note_on,0,0,5,,,,,,,,,5,,,68,49
1063440,note_on,0,0,5,,,,,,,,,5,,,71,49
1063440,note_off,240,0,1,,,,,,,,,1,,,75,0
1063440,note_on,0,0,1,,,,,,,,,1,,,76,48
1063630,note_off,190,0,5,,,,,,,,,5,,,71,0
1063630,note_off,0,0,5,,,,,,,,,5,,,68,0
1063630,note_off,190,0,1,,,,,,,,,1,,,76,0
1063680,note_on,50,0,1,,,,,,,,,1,,,82,51
1063920,note_on,0,0,1,,,,,,,,,1,,,83,46
1063920,note_off,240,0,1,,,,,,,,,1,,,82,0
1064110,note_off,190,0,1,,,,,,,,,1,,,83,0
1064160,note_on,50,0,1,,,,,,,,,1,,,73,49
1064160,note_on,530,0,5,,,,,,,,,5,,,67,49
1064160,note_on,0,0,5,,,,,,,,,5,,,69,49
1064400,note_off,240,0,1,,,,,,,,,1,,,73,0
1064400,note_off,0,0,5,,,,,,,,,5,,,67,0
1064400,note_on,0,0,5,,,,,,,,,5,,,69,46
1064400,note_on,0,0,5,,,,,,,,,5,,,66,46
1064400,note_on,0,0,1,,,,,,,,,1,,,74,44
1064400,note_off,240,0,5,,,,,,,,,5,,,69,0
1064590,note_off,190,0,5,,,,,,,,,5,,,66,0
1064590,note_off,0,0,5,,,,,,,,,5,,,69,0
1064590,note_off,190,0,1,,,,,,,,,1,,,74,0
1064600,set_tempo,1880,1,0,,,,,,413793,,,,,,,
1064640,note_on,50,0,5,,,,,,,,,5,,,47,77
1064640,note_on,0,0,5,,,,,,,,,5,,,59,77
1064640,set_tempo,40,1,0,,,,,,400000,,,,,,,
1064880,note_on,0,0,1,,,,,,,,,1,,,86,75
1064880,note_on,290,0,1,,,,,,,,,1,,,74,75
1065120,note_on,0,0,5,,,,,,,,,5,,,57,73
1065120,note_on,0,0,5,,,,,,,,,5,,,45,73
1065120,note_off,0,0,5,,,,,,,,,5,,,47,0
1065120,note_off,480,0,5,,,,,,,,,5,,,59,0
1065360,note_on,0,0,1,,,,,,,,,1,,,85,72
1065360,note_off,0,0,1,,,,,,,,,1,,,74,0
1065360,note_off,480,0,1,,,,,,,,,1,,,86,0
1065360,note_on,0,0,1,,,,,,,,,1,,,73,72
1065600,note_on,0,0,5,,,,,,,,,5,,,43,70
1065600,note_off,480,0,5,,,,,,,,,5,,,57,0
1065600,note_on,0,0,5,,,,,,,,,5,,,55,70
1065600,note_off,0,0,5,,,,,,,,,5,,,45,0
1065840,note_off,480,0,1,,,,,,,,,1,,,73,0
1065840,note_off,0,0,1,,,,,,,,,1,,,85,0
1065840,note_on,0,0,1,,,,,,,,,1,,,71,68
1065840,note_on,0,0,1,,,,,,,,,1,,,83,68
1066020,note_off,420,0,5,,,,,,,,,5,,,43,0
1066025,note_off,5,0,5,,,,,,,,,5,,,55,0
1066080,note_on,55,0,5,,,,,,,,,5,,,66,66
1066080,note_on,0,0,5,,,,,,,,,5,,,54,66
1066320,note_on,0,0,1,,,,,,,,,1,,,81,65
1066320,note_off,0,0,1,,,,,,,,,1,,,71,0
1066320,note_off,480,0,1,,,,,,,,,1,,,83,0
1066320,note_on,0,0,1,,,,,,,,,1,,,69,65
1066560,note_off,0,0,5,,,,,,,,,5,,,66,0
1066560,note_off,480,0,5,,,,,,,,,5,,,54,0
1066560,note_on,0,0,5,,,,,,,,,5,,,64,63
1066560,note_on,0,0,5,,,,,,,,,5,,,52,63
1066800,note_off,480,0,1,,,,,,,,,1,,,81,0
1066800,note_off,0,0,1,,,,,,,,,1,,,69,0
1066800,note_on,0,0,1,,,,,,,,,1,,,67,61
1066800,note_on,0,0,1,,,,,,,,,1,,,79,61
1067040,note_off,480,0,5,,,,,,,,,5,,,52,0
1067040,note_off,0,0,5,,,,,,,,,5,,,64,0
1067040,note_on,0,0,5,,,,,,,,,5,,,62,59
1067040,note_on,0,0,5,,,,,,,,,5,,,50,59
1067280,note_on,0,0,1,,,,,,,,,1,,,78,57
1067280,note_on,0,0,1,,,,,,,,,1,,,66,57
1067280,note_off,480,0,1,,,,,,,,,1,,,79,0
1067280,note_off,0,0,1,,,,,,,,,1,,,67,0
1067475,note_off,195,0,1,,,,,,,,,1,,,66,0
1067475,note_off,435,0,5,,,,,,,,,5,,,50,0
1067475,note_off,0,0,5,,,,,,,,,5,,,62,0
1067480,note_off,5,0,1,,,,,,,,,1,,,78,0
1067480,set_tempo,2840,1,0,,,,,,402684,,,,,,,
1067520,note_on,40,0,1,,,,,,,,,1,,,81,60
1067520,note_on,45,0,5,,,,,,,,,5,,,66,61
1067520,note_on,0,0,5,,,,,,,,,5,,,57,61
1067520,set_tempo,40,1,0,,,,,,400000,,,,,,,
1067520,note_on,0,0,1,,,,,,,,,1,,,69,60
1068720,note_off,1200,0,5,,,,,,,,,5,,,66,0
1068720,note_on,0,0,5,,,,,,,,,5,,,64,47
1068720,note_on,1200,0,1,,,,,,,,,1,,,79,45
1068720,set_tempo,1200,1,0,,,,,,600000,,,,,,,
1068725,note_off,5,0,1,,,,,,,,,1,,,81,0
1068780,note_on,0,0,1,,,,,,,,,1,,,78,45
1068780,note_off,55,0,1,,,,,,,,,1,,,79,0
1068780,note_off,60,0,5,,,,,,,,,5,,,64,0
1068780,note_on,0,0,5,,,,,,,,,5,,,62,47
1068840,note_off,60,0,1,,,,,,,,,1,,,78,0
1068840,note_off,60,0,5,,,,,,,,,5,,,62,0
1068840,note_on,0,0,5,,,,,,,,,5,,,61,46
1068840,note_on,0,0,1,,,,,,,,,1,,,76,44
1068900,note_on,0,0,5,,,,,,,,,5,,,62,45
1068900,note_on,0,0,1,,,,,,,,,1,,,78,43
1068900,note_off,60,0,5,,,,,,,,,5,,,61,0
1068900,note_off,60,0,1,,,,,,,,,1,,,76,0
1068960,set_tempo,240,1,0,,,,,,500000,,,,,,,
1068960,note_on,0,0,5,,,,,,,,,5,,,61,45
1068960,note_off,60,0,5,,,,,,,,,5,,,62,0
1068960,note_off,60,0,1,,,,,,,,,1,,,78,0
1068960,note_on,0,0,1,,,,,,,,,1,,,76,42
1069170,note_off,210,0,5,,,,,,,,,5,,,57,0
1069200,note_off,30,0,5,,,,,,,,,5,,,61,0
1069200,note_off,240,0,1,,,,,,,,,1,,,76,0
1069205,note_off,5,0,1,,,,,,,,,1,,,69,0
1069920,note_on,715,0,1,,,,,,,,,1,,,81,64
1069920,set_tempo,960,1,0,,,,,,400000,,,,,,,
1070160,note_off,240,0,1,,,,,,,,,1,,,81,0
1070160,note_on,0,0,1,,,,,,,,,1,,,73,65
1070355,note_off,195,0,1,,,,,,,,,1,,,73,0
1070400,control_change,1200,0,5,,,,,,,64,0,5,,,,
1070400,control_change,23070,0,3,,,,,,,64,0,3,,,,
1070400,control_change,8665,0,4,,,,,,,64,0,4,,,,
1070400,note_on,45,0,1,,,,,,,,,1,,,76,68
1070400,note_on,0,0,5,,,,,,,,,5,,,54,66
1070460,control_change,60,0,3,,,,,,,64,127,3,,,,
1070460,control_change,60,0,5,,,,,,,64,127,5,,,,
1070460,control_change,60,0,4,,,,,,,64,127,4,,,,
1070640,note_off,180,0,5,,,,,,,,,5,,,54,0
1070640,note_on,180,0,3,,,,,,,,,3,,,57,67
1070640,note_off,240,0,1,,,,,,,,,1,,,76,0
1070640,note_on,0,0,1,,,,,,,,,1,,,74,67
1070840,note_off,200,0,1,,,,,,,,,1,,,74,0
1070880,note_on,40,0,1,,,,,,,,,1,,,74,68
1070880,note_on,0,0,3,,,,,,,,,3,,,62,68
1070880,note_off,240,0,3,,,,,,,,,3,,,57,0
1071120,note_off,240,0,3,,,,,,,,,3,,,62,0
1071120,note_on,0,0,3,,,,,,,,,3,,,57,69
1071265,note_off,385,0,1,,,,,,,,,1,,,74,0
1071360,note_on,95,0,1,,,,,,,,,1,,,74,70
1071360,note_off,240,0,3,,,,,,,,,3,,,57,0
1071360,note_on,0,0,3,,,,,,,,,3,,,54,70
1071600,note_on,0,0,3,,,,,,,,,3,,,57,71
1071600,note_off,240,0,3,,,,,,,,,3,,,54,0
1071745,note_off,385,0,1,,,,,,,,,1,,,74,0
1071780,control_change,1140,0,5,,,,,,,64,0,5,,,,
1071780,control_change,180,0,3,,,,,,,64,0,3,,,,
1071780,control_change,1320,0,4,,,,,,,64,0,4,,,,
1071795,note_off,15,0,3,,,,,,,,,3,,,57,0
1071795,end_of_track,0,1,3,,,,,,,,,,,,,
1071840,set_tempo,1920,1,0,,,,,,408163,,,,,,,
1071840,note_on,9695,0,2,,,,,,,,,2,,,76,72
1071840,note_on,0,0,2,,,,,,,,,2,,,74,72
1071840,note_on,60,0,4,,,,,,,,,4,,,62,72
1071840,note_on,0,0,4,,,,,,,,,4,,,59,72
1071840,note_on,60,0,5,,,,,,,,,5,,,55,72
1071840,note_on,95,0,1,,,,,,,,,1,,,83,72
1072225,note_off,0,0,4,,,,,,,,,4,,,62,0
1072225,note_off,385,0,4,,,,,,,,,4,,,59,0
1072225,note_off,385,0,1,,,,,,,,,1,,,83,0
1072225,note_off,385,0,2,,,,,,,,,2,,,74,0
1072225,note_off,385,0,5,,,,,,,,,5,,,55,0
1072225,note_off,0,0,2,,,,,,,,,2,,,76,0
1072680,set_tempo,840,1,0,,,,,,400000,,,,,,,
1072680,note_on,455,0,1,,,,,,,,,1,,,76,48
1072800,note_off,120,0,1,,,,,,,,,1,,,76,0
1072800,note_on,0,0,1,,,,,,,,,1,,,78,48
1073160,note_on,0,0,1,,,,,,,,,1,,,79,46
1073160,note_off,360,0,1,,,,,,,,,1,,,78,0
1073280,note_off,120,0,1,,,,,,,,,1,,,79,0
1073280,note_on,0,0,1,,,,,,,,,1,,,81,46
1073760,note_off,480,0,1,,,,,,,,,1,,,81,0
1073760,note_on,1535,0,4,,,,,,,,,4,,,61,44
1073760,note_on,1535,0,5,,,,,,,,,5,,,57,44
1074120,note_on,360,0,1,,,,,,,,,1,,,79,42
1074145,note_off,385,0,4,,,,,,,,,4,,,61,0
1074145,note_off,385,0,5,,,,,,,,,5,,,57,0
1074240,note_off,120,0,1,,,,,,,,,1,,,79,0
1074240,note_on,0,0,1,,,,,,,,,1,,,76,41
1074600,note_off,360,0,1,,,,,,,,,1,,,76,0
1074600,note_on,0,0,1,,,,,,,,,1,,,73,40
1074720,note_off,120,0,1,,,,,,,,,1,,,73,0
1074720,note_on,0,0,1,,,,,,,,,1,,,74,39
1075200,note_on,1055,0,5,,,,,,,,,5,,,50,37
1075200,note_on,0,0,4,,,,,,,,,4,,,57,37
1075200,note_on,1055,0,4,,,,,,,,,4,,,62,37
1075200,note_off,480,0,1,,,,,,,,,1,,,74,0
1075520,set_tempo,2840,1,0,,,,,,402684,,,,,,,
1075560,set_tempo,40,1,0,,,,,,400000,,,,,,,
1075560,note_on,360,0,1,,,,,,,,,1,,,69,63
1075585,note_off,0,0,4,,,,,,,,,4,,,62,0
1075585,note_off,385,0,4,,,,,,,,,4,,,57,0
1075585,note_off,385,0,5,,,,,,,,,5,,,50,0
1075680,note_off,120,0,1,,,,,,,,,1,,,69,0
1075680,note_on,0,0,1,,,,,,,,,1,,,74,63
1076040,note_off,360,0,1,,,,,,,,,1,,,74,0
1076040,note_on,0,0,1,,,,,,,,,1,,,78,65
1076145,note_off,105,0,1,,,,,,,,,1,,,78,0
1076160,note_on,3935,0,2,,,,,,,,,2,,,78,66
1076160,note_on,15,0,1,,,,,,,,,1,,,81,66
1076160,note_on,575,0,5,,,,,,,,,5,,,51,69
1076255,note_off,95,0,5,,,,,,,,,5,,,51,0
1076280,note_on,25,0,5,,,,,,,,,5,,,63,67
1076375,note_off,95,0,5,,,,,,,,,5,,,63,0
1076400,note_on,25,0,5,,,,,,,,,5,,,52,64
1076400,note_off,240,0,1,,,,,,,,,1,,,81,0
1076400,note_on,0,0,1,,,,,,,,,1,,,79,61
1076400,note_on,0,0,2,,,,,,,,,2,,,76,61
1076400,note_off,240,0,2,,,,,,,,,2,,,78,0
1076495,note_off,95,0,5,,,,,,,,,5,,,52,0
1076520,note_on,25,0,5,,,,,,,,,5,,,64,61
1076590,note_off,190,0,1,,,,,,,,,1,,,79,0
1076590,note_off,190,0,2,,,,,,,,,2,,,76,0
1076615,note_off,95,0,5,,,,,,,,,5,,,64,0
1076640,note_on,50,0,1,,,,,,,,,1,,,84,68
1076640,note_on,25,0,5,,,,,,,,,5,,,57,69
1076640,note_on,50,0,2,,,,,,,,,2,,,75,68
1076735,note_off,95,0,5,,,,,,,,,5,,,57,0
1076760,note_on,25,0,5,,,,,,,,,5,,,69,66
1076855,note_off,95,0,5,,,,,,,,,5,,,69,0
1076880,note_on,25,0,5,,,,,,,,,5,,,55,64
1076880,note_off,240,0,2,,,,,,,,,2,,,75,0
1076880,note_off,240,0,1,,,,,,,,,1,,,84,0
1076880,note_on,0,0,1,,,,,,,,,1,,,83,62
1076880,note_on,0,0,2,,,,,,,,,2,,,76,62
1076975,note_off,95,0,5,,,,,,,,,5,,,55,0
1077000,note_on,25,0,5,,,,,,,,,5,,,67,61
1077070,note_off,190,0,2,,,,,,,,,2,,,76,0
1077070,note_off,190,0,1,,,,,,,,,1,,,83,0
1077095,note_off,95,0,5,,,,,,,,,5,,,67,0
1077120,note_on,50,0,2,,,,,,,,,2,,,76,71
1077120,note_on,50,0,1,,,,,,,,,1,,,79,71
1077120,note_on,25,0,5,,,,,,,,,5,,,49,71
1077215,note_off,95,0,5,,,,,,,,,5,,,49,0
1077240,note_on,25,0,5,,,,,,,,,5,,,61,70
1077335,note_off,95,0,5,,,,,,,,,5,,,61,0
1077360,note_off,240,0,1,,,,,,,,,1,,,79,0
1077360,note_on,0,0,2,,,,,,,,,2,,,74,67
1077360,note_off,240,0,2,,,,,,,,,2,,,76,0
1077360,note_on,25,0,5,,,,,,,,,5,,,50,68
1077360,note_on,0,0,1,,,,,,,,,1,,,78,67
1077455,note_off,95,0,5,,,,,,,,,5,,,50,0
1077480,note_on,25,0,5,,,,,,,,,5,,,62,66
1077550,note_off,190,0,2,,,,,,,,,2,,,74,0
1077550,note_off,190,0,1,,,,,,,,,1,,,78,0
1077575,note_off,95,0,5,,,,,,,,,5,,,62,0
1077600,note_on,50,0,2,,,,,,,,,2,,,73,75
1077600,note_on,25,0,5,,,,,,,,,5,,,55,75
1077600,note_on,50,0,1,,,,,,,,,1,,,82,75
1077695,note_off,95,0,5,,,,,,,,,5,,,55,0
1077720,note_on,25,0,5,,,,,,,,,5,,,67,71
1077815,note_off,95,0,5,,,,,,,,,5,,,67,0
1077840,note_on,0,0,2,,,,,,,,,2,,,74,63
1077840,note_off,240,0,1,,,,,,,,,1,,,82,0
1077840,note_on,0,0,1,,,,,,,,,1,,,81,63
1077840,note_off,240,0,2,,,,,,,,,2,,,73,0
1077840,note_on,25,0,5,,,,,,,,,5,,,54,65
1077935,note_off,95,0,5,,,,,,,,,5,,,54,0
1077960,note_on,25,0,5,,,,,,,,,5,,,66,60
1078030,note_off,190,0,2,,,,,,,,,2,,,74,0
1078030,note_off,190,0,1,,,,,,,,,1,,,81,0
1078040,set_tempo,2480,1,0,,,,,,402684,,,,,,,
1078055,note_off,95,0,5,,,,,,,,,5,,,66,0
1078080,set_tempo,40,1,0,,,,,,400000,,,,,,,
1078080,note_on,50,0,1,,,,,,,,,1,,,74,54
1078200,note_on,170,0,2,,,,,,,,,2,,,86,54
1078260,note_off,180,0,1,,,,,,,,,1,,,74,0
1078295,note_off,95,0,2,,,,,,,,,2,,,86,0
1078320,note_on,25,0,2,,,,,,,,,2,,,85,53
1078415,note_off,95,0,2,,,,,,,,,2,,,85,0
1078440,note_on,25,0,2,,,,,,,,,2,,,86,52
1078535,note_off,95,0,2,,,,,,,,,2,,,86,0
1078560,note_on,300,0,1,,,,,,,,,1,,,72,52
1078560,note_on,505,0,5,,,,,,,,,5,,,54,52
1078560,note_on,2975,0,4,,,,,,,,,4,,,62,52
1078680,note_on,145,0,2,,,,,,,,,2,,,84,51
1078740,note_off,180,0,1,,,,,,,,,1,,,72,0
1078775,note_off,95,0,2,,,,,,,,,2,,,84,0
1078800,note_on,25,0,2,,,,,,,,,2,,,83,51
1078895,note_off,95,0,2,,,,,,,,,2,,,83,0
1078920,note_on,25,0,2,,,,,,,,,2,,,84,50
1078945,note_off,385,0,4,,,,,,,,,4,,,62,0
1078945,note_off,385,0,5,,,,,,,,,5,,,54,0
1079015,note_off,95,0,2,,,,,,,,,2,,,84,0
1079040,note_on,95,0,5,,,,,,,,,5,,,55,49
1079040,note_on,300,0,1,,,,,,,,,1,,,70,49
1079040,note_on,95,0,4,,,,,,,,,4,,,62,49
1079160,note_on,145,0,2,,,,,,,,,2,,,82,49
1079220,note_off,180,0,1,,,,,,,,,1,,,70,0
1079255,note_off,95,0,2,,,,,,,,,2,,,82,0
1079280,note_on,25,0,2,,,,,,,,,2,,,81,48
1079375,note_off,95,0,2,,,,,,,,,2,,,81,0
1079400,note_on,25,0,2,,,,,,,,,2,,,82,48
1079495,note_off,95,0,2,,,,,,,,,2,,,82,0
1079520,note_on,300,0,1,,,,,,,,,1,,,69,47
1079520,note_on,0,0,5,,,,,,,,,5,,,57,47
1079520,note_off,480,0,5,,,,,,,,,5,,,55,0
1079640,note_on,145,0,2,,,,,,,,,2,,,81,46
1079700,note_off,180,0,1,,,,,,,,,1,,,69,0
1079735,note_off,95,0,2,,,,,,,,,2,,,81,0
1079760,note_on,25,0,2,,,,,,,,,2,,,80,46
1079855,note_off,95,0,2,,,,,,,,,2,,,80,0
1079880,note_on,25,0,2,,,,,,,,,2,,,81,45
1079975,note_off,95,0,2,,,,,,,,,2,,,81,0
1080000,note_off,480,0,5,,,,,,,,,5,,,57,0
1080000,note_on,0,0,5,,,,,,,,,5,,,58,45
1080000,note_on,300,0,1,,,,,,,,,1,,,68,45
1080120,note_on,145,0,2,,,,,,,,,2,,,80,44
1080180,note_off,180,0,1,,,,,,,,,1,,,68,0
1080215,note_off,95,0,2,,,,,,,,,2,,,80,0
1080240,note_on,25,0,2,,,,,,,,,2,,,79,43
1080335,note_off,95,0,2,,,,,,,,,2,,,79,0
1080360,note_on,25,0,2,,,,,,,,,2,,,80,43
1080440,set_tempo,2360,1,0,,,,,,402684,,,,,,,
1080455,note_off,95,0,2,,,,,,,,,2,,,80,0
1080470,note_off,1430,0,4,,,,,,,,,4,,,62,0
1080480,note_on,10,0,4,,,,,,,,,4,,,61,42
1080480,note_on,300,0,1,,,,,,,,,1,,,81,42
1080480,set_tempo,40,1,0,,,,,,408163,,,,,,,
1080480,note_on,0,0,5,,,,,,,,,5,,,57,42
1080480,note_off,480,0,5,,,,,,,,,5,,,58,0
1080865,note_off,385,0,1,,,,,,,,,1,,,81,0
1080870,note_off,390,0,4,,,,,,,,,4,,,61,0
1080885,note_off,405,0,5,,,,,,,,,5,,,57,0
1080920,set_tempo,440,1,0,,,,,,402684,,,,,,,
1080960,note_on,0,0,5,,,,,,,,,5,,,45,40
1080960,note_on,75,0,5,,,,,,,,,5,,,33,40
1081440,note_off,480,0,5,,,,,,,,,5,,,45,0
1081440,note_on,0,0,5,,,,,,,,,5,,,34,38
1081440,note_off,0,0,5,,,,,,,,,5,,,33,0
1081440,note_on,0,0,5,,,,,,,,,5,,,46,38
1081860,set_tempo,940,1,0,,,,,,408163,,,,,,,
1081920,note_on,0,0,5,,,,,,,,,5,,,32,35
1081920,set_tempo,60,1,0,,,,,,402684,,,,,,,
1081920,note_on,0,0,5,,,,,,,,,5,,,44,35
1081920,note_off,480,0,5,,,,,,,,,5,,,46,0
1081920,note_off,0,0,5,,,,,,,,,5,,,34,0
1082400,note_off,480,0,5,,,,,,,,,5,,,44,0
1082400,note_off,0,0,5,,,,,,,,,5,,,32,0
1082400,note_on,0,0,5,,,,,,,,,5,,,33,33
1082400,note_on,0,0,5,,,,,,,,,5,,,45,33
1082785,note_off,385,0,5,,,,,,,,,5,,,45,0
1082785,note_off,0,0,5,,,,,,,,,5,,,33,0
1082840,set_tempo,920,1,0,,,,,,2500000,,,,,,,
1082880,set_tempo,40,1,0,,,,,,400000,,,,,,,
1082880,note_on,2015,0,1,,,,,,,,,1,,,69,68
1083240,note_off,360,0,1,,,,,,,,,1,,,69,0
1083240,note_on,0,0,1,,,,,,,,,1,,,73,68
1083360,note_on,575,0,5,,,,,,,,,5,,,50,68
1083360,note_off,120,0,1,,,,,,,,,1,,,73,0
1083360,note_on,0,0,1,,,,,,,,,1,,,74,68
1083480,note_off,120,0,1,,,,,,,,,1,,,74,0
1083480,note_on,2610,0,4,,,,,,,,,4,,,62,68
1083575,note_off,95,0,4,,,,,,,,,4,,,62,0
1083600,note_on,25,0,4,,,,,,,,,4,,,61,69
1083600,note_on,120,0,1,,,,,,,,,1,,,78,70
1083695,note_off,95,0,4,,,,,,,,,4,,,61,0
1083720,note_off,360,0,5,,,,,,,,,5,,,50,0
1083720,note_on,25,0,4,,,,,,,,,4,,,62,69
1083720,note_off,120,0,1,,,,,,,,,1,,,78,0
1083720,note_on,0,0,1,,,,,,,,,1,,,81,72
1083815,note_off,95,0,4,,,,,,,,,4,,,62,0
1083840,note_on,0,0,1,,,,,,,,,1,,,86,73
1083840,note_off,120,0,1,,,,,,,,,1,,,81,0
1083840,note_on,120,0,5,,,,,,,,,5,,,47,69
1083960,note_on,145,0,4,,,,,,,,,4,,,59,69
1084055,note_off,95,0,4,,,,,,,,,4,,,59,0
1084080,note_off,240,0,1,,,,,,,,,1,,,86,0
1084080,note_on,25,0,4,,,,,,,,,4,,,57,69
1084175,note_off,95,0,4,,,,,,,,,4,,,57,0
1084200,note_off,360,0,5,,,,,,,,,5,,,47,0
1084200,note_on,25,0,4,,,,,,,,,4,,,59,69
1084295,note_off,95,0,4,,,,,,,,,4,,,59,0
1084320,note_on,120,0,5,,,,,,,,,5,,,42,69
1084440,note_on,145,0,4,,,,,,,,,4,,,54,69
1084535,note_off,95,0,4,,,,,,,,,4,,,54,0
1084560,note_on,25,0,4,,,,,,,,,4,,,52,70
1084655,note_off,95,0,4,,,,,,,,,4,,,52,0
1084680,note_on,600,0,1,,,,,,,,,1,,,74,70
1084680,note_off,360,0,5,,,,,,,,,5,,,42,0
1084680,note_on,25,0,4,,,,,,,,,4,,,54,70
1084775,note_off,95,0,4,,,,,,,,,4,,,54,0
1084800,note_off,120,0,1,,,,,,,,,1,,,74,0
1084800,note_on,0,0,1,,,,,,,,,1,,,76,70
1084800,note_on,120,0,5,,,,,,,,,5,,,43,70
1084920,note_off,120,0,1,,,,,,,,,1,,,76,0
1084920,note_on,145,0,4,,,,,,,,,4,,,55,70
1085015,note_off,95,0,4,,,,,,,,,4,,,55,0
1085040,note_on,120,0,1,,,,,,,,,1,,,79,72
1085040,note_on,25,0,4,,,,,,,,,4,,,54,70
1085135,note_off,95,0,4,,,,,,,,,4,,,54,0
1085160,note_off,360,0,5,,,,,,,,,5,,,43,0
1085160,note_on,0,0,1,,,,,,,,,1,,,76,73
1085160,note_off,120,0,1,,,,,,,,,1,,,79,0
1085160,note_on,25,0,4,,,,,,,,,4,,,55,70
1085255,note_off,95,0,4,,,,,,,,,4,,,55,0
1085280,note_on,0,0,1,,,,,,,,,1,,,83,74
1085280,note_on,120,0,5,,,,,,,,,5,,,40,70
1085280,note_off,120,0,1,,,,,,,,,1,,,76,0
1085400,note_on,145,0,4,,,,,,,,,4,,,52,71
1085400,note_off,120,0,1,,,,,,,,,1,,,83,0
1085495,note_off,95,0,4,,,,,,,,,4,,,52,0
1085520,note_on,25,0,4,,,,,,,,,4,,,51,71
1085520,note_on,120,0,1,,,,,,,,,1,,,79,71
1085615,note_off,95,0,4,,,,,,,,,4,,,51,0
1085640,note_off,120,0,1,,,,,,,,,1,,,79,0
1085640,note_on,25,0,4,,,,,,,,,4,,,52,71
1085640,note_off,360,0,5,,,,,,,,,5,,,40,0
1085640,note_on,0,0,1,,,,,,,,,1,,,76,71
1085735,note_off,95,0,4,,,,,,,,,4,,,52,0
1085760,note_on,120,0,5,,,,,,,,,5,,,45,71
1085760,note_on,0,0,1,,,,,,,,,1,,,73,71
1085760,note_off,120,0,1,,,,,,,,,1,,,76,0
1085880,note_off,120,0,1,,,,,,,,,1,,,73,0
1085880,note_on,145,0,4,,,,,,,,,4,,,57,71
1085975,note_off,95,0,4,,,,,,,,,4,,,57,0
1086000,note_on,120,0,1,,,,,,,,,1,,,76,71
1086000,note_on,25,0,4,,,,,,,,,4,,,56,71
1086095,note_off,95,0,4,,,,,,,,,4,,,56,0
1086120,note_off,360,0,5,,,,,,,,,5,,,45,0
1086120,note_off,120,0,1,,,,,,,,,1,,,76,0
1086120,note_on,0,0,1,,,,,,,,,1,,,69,71
1086120,note_on,25,0,4,,,,,,,,,4,,,57,71
1086215,note_off,95,0,4,,,,,,,,,4,,,57,0
1086240,note_on,120,0,5,,,,,,,,,5,,,42,71
1086240,note_off,120,0,1,,,,,,,,,1,,,69,0
1086240,note_on,0,0,1,,,,,,,,,1,,,81,71
1086360,note_on,145,0,4,,,,,,,,,4,,,54,72
1086360,note_off,120,0,1,,,,,,,,,1,,,81,0
1086455,note_off,95,0,4,,,,,,,,,4,,,54,0
1086480,note_on,120,0,1,,,,,,,,,1,,,78,73
1086480,note_on,25,0,4,,,,,,,,,4,,,52,72
1086575,note_off,95,0,4,,,,,,,,,4,,,52,0
1086600,note_off,360,0,5,,,,,,,,,5,,,42,0
1086600,note_off,120,0,1,,,,,,,,,1,,,78,0
1086600,note_on,25,0,4,,,,,,,,,4,,,54,72
1086600,note_on,0,0,1,,,,,,,,,1,,,74,74
1086695,note_off,95,0,4,,,,,,,,,4,,,54,0
1086720,note_on,120,0,5,,,,,,,,,5,,,43,72
1086720,note_off,120,0,1,,,,,,,,,1,,,74,0
1086720,note_on,0,0,1,,,,,,,,,1,,,83,76
1086840,note_on,145,0,4,,,,,,,,,4,,,55,72
1086935,note_off,95,0,4,,,,,,,,,4,,,55,0
1086960,note_on,25,0,4,,,,,,,,,4,,,54,72
1086960,note_off,240,0,1,,,,,,,,,1,,,83,0
1087055,note_off,95,0,4,,,,,,,,,4,,,54,0
1087080,note_off,360,0,5,,,,,,,,,5,,,43,0
1087080,note_on,25,0,4,,,,,,,,,4,,,55,72
1087175,note_off,95,0,4,,,,,,,,,4,,,55,0
1087200,note_on,0,0,2,,,,,,,,,2,,,64,72
1087200,note_on,240,0,1,,,,,,,,,1,,,73,72
1087200,note_on,6745,0,2,,,,,,,,,2,,,69,72
1087200,note_on,120,0,5,,,,,,,,,5,,,45,72
1087320,note_on,145,0,4,,,,,,,,,4,,,57,73
1087415,note_off,95,0,4,,,,,,,,,4,,,57,0
1087440,note_on,25,0,4,,,,,,,,,4,,,56,73
1087440,note_off,240,0,2,,,,,,,,,2,,,64,0
1087440,note_off,0,0,2,,,,,,,,,2,,,69,0
1087440,note_off,240,0,1,,,,,,,,,1,,,73,0
1087535,note_off,95,0,4,,,,,,,,,4,,,56,0
1087560,note_on,25,0,4,,,,,,,,,4,,,57,73
1087560,note_off,360,0,5,,,,,,,,,5,,,45,0
1087640,set_tempo,4760,1,0,,,,,,402684,,,,,,,
1087655,note_off,95,0,4,,,,,,,,,4,,,57,0
1087680,note_on,240,0,1,,,,,,,,,1,,,74,73
1087680,set_tempo,40,1,0,,,,,,400000,,,,,,,
1087680,note_on,120,0,5,,,,,,,,,5,,,47,73
1087800,note_on,145,0,4,,,,,,,,,4,,,59,73
1087800,note_off,120,0,1,,,,,,,,,1,,,74,0
1087895,note_off,95,0,4,,,,,,,,,4,,,59,0
1087920,note_on,25,0,4,,,,,,,,,4,,,57,73
1087920,note_on,120,0,1,,,,,,,,,1,,,80,73
1088015,note_off,95,0,4,,,,,,,,,4,,,57,0
1088040,note_on,0,0,1,,,,,,,,,1,,,86,73
1088040,note_off,120,0,1,,,,,,,,,1,,,80,0
1088040,note_off,360,0,5,,,,,,,,,5,,,47,0
1088040,note_on,25,0,4,,,,,,,,,4,,,59,73
1088135,note_off,95,0,4,,,,,,,,,4,,,59,0
1088160,note_on,120,0,5,,,,,,,,,5,,,45,74
1088160,note_on,0,0,1,,,,,,,,,1,,,76,74
1088160,note_off,120,0,1,,,,,,,,,1,,,86,0
1088280,note_on,145,0,4,,,,,,,,,4,,,57,74
1088280,note_off,120,0,1,,,,,,,,,1,,,76,0
1088375,note_off,95,0,4,,,,,,,,,4,,,57,0
1088400,note_on,120,0,1,,,,,,,,,1,,,81,74
1088400,note_on,25,0,4,,,,,,,,,4,,,56,74
1088495,note_off,95,0,4,,,,,,,,,4,,,56,0
1088520,note_off,120,0,1,,,,,,,,,1,,,81,0
1088520,note_off,360,0,5,,,,,,,,,5,,,45,0
1088520,note_on,25,0,4,,,,,,,,,4,,,57,74
1088520,note_on,0,0,1,,,,,,,,,1,,,85,74
1088615,note_off,95,0,4,,,,,,,,,4,,,57,0
1088640,note_on,0,0,1,,,,,,,,,1,,,73,74
1088640,note_on,120,0,5,,,,,,,,,5,,,43,74
1088640,note_off,120,0,1,,,,,,,,,1,,,85,0
1088760,note_on,145,0,4,,,,,,,,,4,,,55,74
1088760,note_off,120,0,1,,,,,,,,,1,,,73,0
1088855,note_off,95,0,4,,,,,,,,,4,,,55,0
1088880,note_on,120,0,1,,,,,,,,,1,,,76,74
1088880,note_on,25,0,4,,,,,,,,,4,,,54,74
1088975,note_off,95,0,4,,,,,,,,,4,,,54,0
1089000,note_off,120,0,1,,,,,,,,,1,,,76,0
1089000,note_on,25,0,4,,,,,,,,,4,,,55,74
1089000,note_off,360,0,5,,,,,,,,,5,,,43,0
1089000,note_on,0,0,1,,,,,,,,,1,,,83,74
1089095,note_off,95,0,4,,,,,,,,,4,,,55,0
1089120,note_off,120,0,1,,,,,,,,,1,,,83,0
1089120,note_on,0,0,1,,,,,,,,,1,,,74,75
1089120,note_on,120,0,5,,,,,,,,,5,,,42,75
1089240,note_off,120,0,1,,,,,,,,,1,,,74,0
1089240,note_on,145,0,4,,,,,,,,,4,,,54,75
1089335,note_off,95,0,4,,,,,,,,,4,,,54,0
1089360,note_on,25,0,4,,,,,,,,,4,,,52,75
1089360,note_on,120,0,1,,,,,,,,,1,,,78,75
1089455,note_off,95,0,4,,,,,,,,,4,,,52,0
1089480,note_on,25,0,4,,,,,,,,,4,,,54,75
1089480,note_on,0,0,1,,,,,,,,,1,,,81,75
1089480,note_off,120,0,1,,,,,,,,,1,,,78,0
1089480,note_off,360,0,5,,,,,,,,,5,,,42,0
1089575,note_off,95,0,4,,,,,,,,,4,,,54,0
1089600,note_on,120,0,5,,,,,,,,,5,,,43,75
1089600,note_on,0,0,1,,,,,,,,,1,,,79,75
1089600,note_off,120,0,1,,,,,,,,,1,,,81,0
1089600,note_on,2160,0,2,,,,,,,,,2,,,76,75
1089600,note_on,0,0,2,,,,,,,,,2,,,71,75
1089720,note_on,145,0,4,,,,,,,,,4,,,55,75
1089815,note_off,95,0,4,,,,,,,,,4,,,55,0
1089840,note_off,240,0,2,,,,,,,,,2,,,71,0
1089840,note_off,0,0,2,,,,,,,,,2,,,76,0
1089840,note_on,25,0,4,,,,,,,,,4,,,54,75
1089840,note_off,240,0,1,,,,,,,,,1,,,79,0
1089935,note_off,95,0,4,,,,,,,,,4,,,54,0
1089960,note_on,25,0,4,,,,,,,,,4,,,55,76
1089960,note_off,360,0,5,,,,,,,,,5,,,43,0
1090055,note_off,95,0,4,,,,,,,,,4,,,55,0
1090080,note_on,240,0,2,,,,,,,,,2,,,73,76
1090080,note_on,240,0,1,,,,,,,,,1,,,76,76
1090080,note_on,0,0,2,,,,,,,,,2,,,69,76
1090080,note_on,120,0,5,,,,,,,,,5,,,45,76
1090200,note_on,145,0,4,,,,,,,,,4,,,57,76
1090295,note_off,95,0,4,,,,,,,,,4,,,57,0
1090320,note_off,240,0,1,,,,,,,,,1,,,76,0
1090320,note_off,240,0,2,,,,,,,,,2,,,69,0
1090320,note_off,0,0,2,,,,,,,,,2,,,73,0
1090320,note_on,25,0,4,,,,,,,,,4,,,56,76
1090415,note_off,95,0,4,,,,,,,,,4,,,56,0
1090440,note_off,360,0,5,,,,,,,,,5,,,45,0
1090440,note_on,25,0,4,,,,,,,,,4,,,57,76
1090520,set_tempo,2840,1,0,,,,,,402684,,,,,,,
1090535,note_off,95,0,4,,,,,,,,,4,,,57,0
1090560,set_tempo,40,1,0,,,,,,400000,,,,,,,
1090560,note_on,240,0,1,,,,,,,,,1,,,74,76
1090560,note_on,120,0,5,,,,,,,,,5,,,47,76
1090680,note_off,120,0,1,,,,,,,,,1,,,74,0
1090680,note_on,145,0,4,,,,,,,,,4,,,59,76
1090775,note_off,95,0,4,,,,,,,,,4,,,59,0
1090800,note_on,25,0,4,,,,,,,,,4,,,57,76
1090800,note_on,120,0,1,,,,,,,,,1,,,80,76
1090895,note_off,95,0,4,,,,,,,,,4,,,57,0
1090920,note_off,360,0,5,,,,,,,,,5,,,47,0
1090920,note_off,120,0,1,,,,,,,,,1,,,80,0
1090920,note_on,25,0,4,,,,,,,,,4,,,59,77
1090920,note_on,0,0,1,,,,,,,,,1,,,86,77
1091015,note_off,95,0,4,,,,,,,,,4,,,59,0
1091040,note_off,120,0,1,,,,,,,,,1,,,86,0
1091040,note_on,0,0,1,,,,,,,,,1,,,76,77
1091040,note_on,120,0,5,,,,,,,,,5,,,45,77
1091160,note_on,145,0,4,,,,,,,,,4,,,57,77
1091160,note_off,120,0,1,,,,,,,,,1,,,76,0
1091255,note_off,95,0,4,,,,,,,,,4,,,57,0
1091280,note_on,25,0,4,,,,,,,,,4,,,56,77
1091280,note_on,120,0,1,,,,,,,,,1,,,81,77
1091375,note_off,95,0,4,,,,,,,,,4,,,56,0
1091400,note_on,25,0,4,,,,,,,,,4,,,57,77
1091400,note_off,120,0,1,,,,,,,,,1,,,81,0
1091400,note_off,360,0,5,,,,,,,,,5,,,45,0
1091400,note_on,0,0,1,,,,,,,,,1,,,85,77
1091495,note_off,95,0,4,,,,,,,,,4,,,57,0
1091520,note_off,120,0,1,,,,,,,,,1,,,85,0
1091520,note_on,120,0,5,,,,,,,,,5,,,43,77
1091520,note_on,0,0,1,,,,,,,,,1,,,73,77
1091640,note_off,120,0,1,,,,,,,,,1,,,73,0
1091640,note_on,145,0,4,,,,,,,,,4,,,55,77
1091735,note_off,95,0,4,,,,,,,,,4,,,55,0
1091760,note_on,25,0,4,,,,,,,,,4,,,54,77
1091760,note_on,120,0,1,,,,,,,,,1,,,76,77
1091855,note_off,95,0,4,,,,,,,,,4,,,54,0
1091880,note_on,25,0,4,,,,,,,,,4,,,55,78
1091880,note_off,120,0,1,,,,,,,,,1,,,76,0
1091880,note_on,0,0,1,,,,,,,,,1,,,83,78
1091880,note_off,360,0,5,,,,,,,,,5,,,43,0
1091975,note_off,95,0,4,,,,,,,,,4,,,55,0
1092000,note_on,0,0,1,,,,,,,,,1,,,74,78
1092000,note_on,120,0,5,,,,,,,,,5,,,42,78
1092000,note_off,120,0,1,,,,,,,,,1,,,83,0
1092120,note_off,120,0,1,,,,,,,,,1,,,74,0
1092120,note_on,145,0,4,,,,,,,,,4,,,54,78
1092215,note_off,95,0,4,,,,,,,,,4,,,54,0
1092240,note_on,25,0,4,,,,,,,,,4,,,52,78
1092240,note_on,120,0,1,,,,,,,,,1,,,78,78
1092335,note_off,95,0,4,,,,,,,,,4,,,52,0
1092360,note_off,360,0,5,,,,,,,,,5,,,42,0
1092360,note_off,120,0,1,,,,,,,,,1,,,78,0
1092360,note_on,25,0,4,,,,,,,,,4,,,54,78
1092360,note_on,0,0,1,,,,,,,,,1,,,81,78
1092455,note_off,95,0,4,,,,,,,,,4,,,54,0
1092480,note_on,120,0,5,,,,,,,,,5,,,43,78
1092480,note_on,2160,0,2,,,,,,,,,2,,,76,78
1092480,note_on,0,0,2,,,,,,,,,2,,,71,78
1092480,note_on,0,0,1,,,,,,,,,1,,,79,78
1092480,note_off,120,0,1,,,,,,,,,1,,,81,0
1092600,note_on,145,0,4,,,,,,,,,4,,,55,78
1092695,note_off,95,0,4,,,,,,,,,4,,,55,0
1092720,note_off,240,0,1,,,,,,,,,1,,,79,0
1092720,note_off,240,0,2,,,,,,,,,2,,,71,0
1092720,note_on,25,0,4,,,,,,,,,4,,,54,79
1092720,note_off,0,0,2,,,,,,,,,2,,,76,0
1092815,note_off,95,0,4,,,,,,,,,4,,,54,0
1092840,note_off,360,0,5,,,,,,,,,5,,,43,0
1092840,note_on,25,0,4,,,,,,,,,4,,,55,79
1092935,note_off,95,0,4,,,,,,,,,4,,,55,0
1092960,note_on,120,0,5,,,,,,,,,5,,,45,79
1092960,note_on,240,0,2,,,,,,,,,2,,,69,79
1092960,note_on,0,0,2,,,,,,,,,2,,,73,79
1092960,note_on,240,0,1,,,,,,,,,1,,,76,79
1093080,note_on,145,0,4,,,,,,,,,4,,,57,79
1093175,note_off,95,0,4,,,,,,,,,4,,,57,0
1093200,note_off,240,0,1,,,,,,,,,1,,,76,0
1093200,note_off,0,0,2,,,,,,,,,2,,,69,0
1093200,note_off,240,0,2,,,,,,,,,2,,,73,0
1093200,note_on,25,0,4,,,,,,,,,4,,,56,79
1093295,note_off,95,0,4,,,,,,,,,4,,,56,0
1093320,note_on,25,0,4,,,,,,,,,4,,,57,79
1093320,note_off,360,0,5,,,,,,,,,5,,,45,0
1093400,set_tempo,2840,1,0,,,,,,402684,,,,,,,
1093415,note_off,95,0,4,,,,,,,,,4,,,57,0
1093440,set_tempo,40,1,0,,,,,,400000,,,,,,,
1093440,note_on,120,0,5,,,,,,,,,5,,,38,78
1093440,note_on,240,0,1,,,,,,,,,1,,,62,78
1093560,note_on,145,0,4,,,,,,,,,4,,,50,79
1093560,note_on,360,0,2,,,,,,,,,2,,,74,79
1093655,note_off,95,0,4,,,,,,,,,4,,,50,0
1093680,note_on,25,0,4,,,,,,,,,4,,,49,80
1093680,note_on,0,0,2,,,,,,,,,2,,,73,80
1093680,note_off,120,0,2,,,,,,,,,2,,,74,0
1093775,note_off,95,0,4,,,,,,,,,4,,,49,0
1093800,note_off,360,0,5,,,,,,,,,5,,,38,0
1093800,note_off,360,0,1,,,,,,,,,1,,,62,0
1093800,note_off,120,0,2,,,,,,,,,2,,,73,0
1093800,note_on,0,0,2,,,,,,,,,2,,,74,80
1093800,note_on,25,0,4,,,,,,,,,4,,,50,80
1093895,note_off,95,0,4,,,,,,,,,4,,,50,0
1093920,note_off,120,0,2,,,,,,,,,2,,,74,0
1093920,note_on,120,0,1,,,,,,,,,1,,,66,81
1093920,note_on,120,0,5,,,,,,,,,5,,,42,81
1094040,note_on,120,0,2,,,,,,,,,2,,,78,82
1094040,note_on,145,0,4,,,,,,,,,4,,,54,82
1094135,note_off,95,0,4,,,,,,,,,4,,,54,0
1094160,note_on,25,0,4,,,,,,,,,4,,,53,83
1094160,note_on,0,0,2,,,,,,,,,2,,,77,83
1094160,note_off,120,0,2,,,,,,,,,2,,,78,0
1094255,note_off,95,0,4,,,,,,,,,4,,,53,0
1094280,note_on,25,0,4,,,,,,,,,4,,,54,84
1094280,note_on,0,0,2,,,,,,,,,2,,,78,84
1094280,note_off,120,0,2,,,,,,,,,2,,,77,0
1094280,note_off,360,0,1,,,,,,,,,1,,,66,0
1094280,note_off,360,0,5,,,,,,,,,5,,,42,0
1094375,note_off,95,0,4,,,,,,,,,4,,,54,0
1094400,note_on,120,0,5,,,,,,,,,5,,,45,84
1094400,note_on,120,0,1,,,,,,,,,1,,,69,84
1094400,note_off,120,0,2,,,,,,,,,2,,,78,0
1094520,note_on,120,0,2,,,,,,,,,2,,,81,85
1094520,note_on,145,0,4,,,,,,,,,4,,,57,85
1094615,note_off,95,0,4,,,,,,,,,4,,,57,0
1094640,note_on,0,0,2,,,,,,,,,2,,,80,86
1094640,note_on,25,0,4,,,,,,,,,4,,,56,86
1094640,note_off,120,0,2,,,,,,,,,2,,,81,0
1094720,set_tempo,1280,1,0,,,,,,402684,,,,,,,
1094735,note_off,95,0,4,,,,,,,,,4,,,56,0
1094760,note_off,360,0,5,,,,,,,,,5,,,45,0
1094760,note_off,120,0,2,,,,,,,,,2,,,80,0
1094760,note_on,0,0,2,,,,,,,,,2,,,81,87
1094760,note_off,360,0,1,,,,,,,,,1,,,69,0
1094760,note_on,25,0,4,,,,,,,,,4,,,57,87
1094770,set_tempo,50,1,0,,,,,,550458,,,,,,,
1094855,note_off,95,0,4,,,,,,,,,4,,,57,0
1094880,note_on,0,0,2,,,,,,,,,2,,,81,88
1094880,note_on,0,0,2,,,,,,,,,2,,,86,88
1094880,note_on,0,0,2,,,,,,,,,2,,,78,88
1094880,note_off,120,0,2,,,,,,,,,2,,,81,0
1094880,note_on,120,0,1,,,,,,,,,1,,,74,88
1094880,set_tempo,110,1,0,,,,,,750000,,,,,,,
1094880,end_of_track,0,1,0,,,,,,,,,,,,,
1094880,note_on,120,0,5,,,,,,,,,5,,,50,88
1094880,note_on,25,0,4,,,,,,,,,4,,,62,88
1095360,end_of_track,0,1,5,,,,,,,,,,,,,
1095360,note_off,480,0,1,,,,,,,,,1,,,74,0
1095360,end_of_track,0,1,1,,,,,,,,,,,,,
1095360,note_off,480,0,5,,,,,,,,,5,,,50,0
1095360,note_off,480,0,2,,,,,,,,,2,,,81,0
1095360,note_off,0,0,2,,,,,,,,,2,,,86,0
1095360,note_off,0,0,2,,,,,,,,,2,,,78,0
1095360,end_of_track,0,1,2,,,,,,,,,,,,,
1095365,end_of_track,0,1,4,,,,,,,,,,,,,
1095365,note_off,485,0,4,,,,,,,,,4,,,62,0
