,note,step,duration,channel,velocity
0,50.0,192,180,5.0,0.0
1,74.0,0,180,4.0,0.0
2,62.0,0,180,4.0,0.0
3,62.0,0,180,3.0,0.0
4,50.0,0,180,3.0,0.0
5,50.0,0,180,2.0,0.0
6,74.0,0,180,1.0,0.0
7,38.0,0,180,12.0,0.0
8,50.0,0,180,11.0,0.0
9,62.0,0,180,10.0,0.0
10,78.0,0,180,8.0,0.0
11,69.0,0,180,8.0,0.0
12,62.0,0,180,8.0,0.0
13,86.0,0,180,7.0,0.0
14,74.0,0,180,7.0,0.0
15,62.0,0,180,7.0,0.0
16,86.0,0,180,0.0,0.0
17,50.0,0,150,11.0,0.0
18,38.0,0,150,12.0,0.0
19,50.0,0,150,5.0,0.0
20,62.0,84,150,3.0,0.0
21,62.0,0,150,8.0,0.0
22,74.0,0,150,0.0,0.0
23,50.0,0,150,3.0,0.0
24,62.0,0,150,4.0,0.0
25,74.0,0,150,4.0,0.0
26,62.0,0,150,7.0,0.0
27,50.0,0,150,2.0,0.0
28,74.0,0,150,1.0,0.0
29,50.0,0,150,10.0,0.0
30,62.0,0,40,4.0,0.0
31,74.0,0,40,1.0,0.0
32,50.0,0,40,10.0,0.0
33,50.0,0,40,11.0,0.0
34,74.0,0,40,0.0,0.0
35,74.0,0,40,4.0,0.0
36,50.0,0,40,3.0,0.0
37,62.0,0,40,7.0,0.0
38,38.0,0,40,12.0,0.0
39,62.0,0,40,3.0,0.0
40,50.0,0,40,2.0,0.0
41,50.0,0,40,5.0,0.0
42,62.0,204,40,8.0,0.0
43,74.0,0,180,0.0,0.0
44,62.0,0,180,8.0,0.0
45,50.0,0,180,11.0,0.0
46,50.0,0,180,10.0,0.0
47,62.0,0,180,4.0,0.0
48,74.0,0,180,4.0,0.0
49,50.0,0,180,5.0,0.0
50,38.0,240,180,12.0,0.0
51,50.0,0,180,2.0,0.0
52,62.0,0,180,3.0,0.0
53,50.0,0,180,3.0,0.0
54,62.0,0,180,7.0,0.0
55,74.0,0,180,1.0,0.0
56,62.0,0,180,8.0,0.0
57,50.0,96,180,3.0,0.0
58,50.0,0,180,10.0,0.0
59,74.0,0,180,0.0,0.0
60,50.0,0,180,5.0,0.0
61,62.0,0,180,7.0,0.0
62,62.0,0,180,3.0,0.0
63,74.0,0,180,1.0,0.0
64,50.0,0,180,11.0,0.0
65,74.0,0,180,4.0,0.0
66,50.0,0,180,2.0,0.0
67,38.0,0,180,12.0,0.0
68,62.0,0,180,4.0,0.0
69,50.0,0,1740,3.0,0.0
70,62.0,0,1740,3.0,0.0
71,62.0,0,570,7.0,0.0
72,62.0,48,40,8.0,0.0
73,38.0,12,90,12.0,0.0
74,74.0,12,570,0.0,0.0
75,50.0,0,40,10.0,0.0
76,50.0,24,180,5.0,0.0
77,74.0,24,390,4.0,0.0
78,62.0,0,390,4.0,0.0
79,74.0,0,390,1.0,0.0
80,50.0,0,90,2.0,0.0
81,50.0,0,90,11.0,0.0
82,57.0,60,40,8.0,0.0
83,54.0,0,40,10.0,0.0
84,57.0,0,40,8.0,0.0
85,50.0,0,90,2.0,0.0
86,54.0,24,40,10.0,0.0
87,50.0,12,90,11.0,0.0
88,38.0,0,90,12.0,0.0
89,57.0,60,40,8.0,0.0
90,54.0,0,40,10.0,0.0
91,38.0,12,90,12.0,0.0
92,50.0,0,90,2.0,0.0
93,54.0,48,40,10.0,0.0
94,50.0,0,90,11.0,0.0
95,57.0,0,40,8.0,0.0
96,57.0,36,40,8.0,0.0
97,54.0,0,40,10.0,0.0
98,50.0,0,90,11.0,0.0
99,54.0,48,40,10.0,0.0
100,57.0,0,40,8.0,0.0
101,50.0,0,90,2.0,0.0
102,38.0,12,90,12.0,0.0
103,57.0,60,40,8.0,0.0
104,54.0,0,40,10.0,0.0
105,54.0,48,40,10.0,0.0
106,38.0,0,90,12.0,0.0
107,57.0,0,40,8.0,0.0
108,50.0,0,90,11.0,0.0
109,50.0,0,90,2.0,0.0
110,54.0,60,40,10.0,0.0
111,57.0,0,40,8.0,0.0
112,57.0,0,40,8.0,0.0
113,54.0,48,40,10.0,0.0
114,50.0,12,90,11.0,0.0
115,38.0,0,90,12.0,0.0
116,50.0,0,90,2.0,0.0
117,57.0,0,40,8.0,0.0
118,54.0,36,40,10.0,0.0
119,76.0,0,20,0.0,0.0
120,64.0,24,20,7.0,0.0
121,50.0,0,90,2.0,0.0
122,38.0,12,90,12.0,0.0
123,54.0,0,40,10.0,0.0
124,50.0,0,90,11.0,0.0
125,57.0,6,40,8.0,0.0
126,62.0,0,20,7.0,0.0
127,74.0,30,20,0.0,0.0
128,57.0,0,40,8.0,0.0
129,64.0,0,20,7.0,0.0
130,54.0,6,40,10.0,0.0
131,76.0,12,20,0.0,0.0
132,74.0,0,20,0.0,0.0
133,62.0,54,20,7.0,0.0
134,50.0,0,90,2.0,0.0
135,38.0,0,90,12.0,0.0
136,54.0,0,40,10.0,0.0
137,73.0,48,40,0.0,0.0
138,50.0,12,90,11.0,0.0
139,61.0,0,40,7.0,0.0
140,57.0,0,40,8.0,0.0
141,74.0,0,40,0.0,0.0
142,62.0,0,40,7.0,0.0
143,57.0,0,40,8.0,0.0
144,54.0,60,40,10.0,0.0
145,50.0,12,90,2.0,0.0
146,50.0,0,90,11.0,0.0
147,76.0,0,90,0.0,0.0
148,55.0,48,40,10.0,0.0
149,64.0,0,90,7.0,0.0
150,38.0,0,90,12.0,0.0
151,59.0,0,40,8.0,0.0
152,59.0,0,40,8.0,0.0
153,55.0,60,40,10.0,0.0
154,55.0,48,40,10.0,0.0
155,50.0,0,90,2.0,0.0
156,38.0,0,90,12.0,0.0
157,50.0,12,90,11.0,0.0
158,59.0,0,40,8.0,0.0
159,59.0,60,40,8.0,0.0
160,55.0,0,40,10.0,0.0
161,50.0,0,90,2.0,0.0
162,55.0,0,40,10.0,0.0
163,76.0,12,90,0.0,0.0
164,59.0,48,40,8.0,0.0
165,64.0,0,90,7.0,0.0
166,50.0,0,90,11.0,0.0
167,38.0,0,90,12.0,0.0
168,59.0,60,40,8.0,0.0
169,55.0,0,40,10.0,0.0
170,38.0,0,90,12.0,0.0
171,55.0,48,40,10.0,0.0
172,50.0,12,90,2.0,0.0
173,50.0,0,90,11.0,0.0
174,59.0,0,40,8.0,0.0
175,59.0,0,40,8.0,0.0
176,55.0,60,40,10.0,0.0
177,50.0,0,90,2.0,0.0
178,60.0,0,40,8.0,0.0
179,57.0,48,40,10.0,0.0
180,66.0,0,90,7.0,0.0
181,38.0,12,90,12.0,0.0
182,50.0,0,90,11.0,0.0
183,78.0,0,90,0.0,0.0
184,60.0,60,40,8.0,0.0
185,57.0,0,40,10.0,0.0
186,50.0,0,90,11.0,0.0
187,38.0,0,90,12.0,0.0
188,50.0,12,90,2.0,0.0
189,57.0,0,40,10.0,0.0
190,60.0,48,40,8.0,0.0
191,57.0,60,40,10.0,0.0
192,60.0,0,40,8.0,0.0
193,38.0,0,90,12.0,0.0
194,78.0,0,90,0.0,0.0
195,50.0,12,90,11.0,0.0
196,50.0,0,90,2.0,0.0
197,66.0,0,90,7.0,0.0
198,57.0,0,40,10.0,0.0
199,60.0,48,40,8.0,0.0
200,57.0,60,40,10.0,0.0
201,60.0,0,40,8.0,0.0
202,57.0,0,40,10.0,0.0
203,50.0,0,90,2.0,0.0
204,38.0,12,90,12.0,0.0
205,50.0,0,90,11.0,0.0
206,60.0,48,40,8.0,0.0
207,60.0,60,40,8.0,0.0
208,57.0,0,40,10.0,0.0
209,50.0,0,90,11.0,0.0
210,55.0,48,40,10.0,0.0
211,50.0,48,1740,3.0,0.0
212,50.0,24,180,5.0,0.0
213,59.0,0,40,8.0,0.0
214,62.0,0,1740,3.0,0.0
215,79.0,0,390,1.0,0.0
216,67.0,12,570,7.0,0.0
217,79.0,0,570,0.0,0.0
218,67.0,0,390,1.0,0.0
219,62.0,24,390,4.0,0.0
220,50.0,0,90,2.0,0.0
221,55.0,0,570,7.0,0.0
222,74.0,0,390,4.0,0.0
223,38.0,12,90,12.0,0.0
224,59.0,0,40,8.0,0.0
225,55.0,60,40,10.0,0.0
226,55.0,24,40,10.0,0.0
227,38.0,0,90,12.0,0.0
228,59.0,0,40,8.0,0.0
229,50.0,12,90,11.0,0.0
230,50.0,0,90,2.0,0.0
231,59.0,0,40,8.0,0.0
232,55.0,60,40,10.0,0.0
233,59.0,0,40,8.0,0.0
234,50.0,0,90,11.0,0.0
235,50.0,0,90,2.0,0.0
236,38.0,12,90,12.0,0.0
237,55.0,48,40,10.0,0.0
238,59.0,0,40,8.0,0.0
239,55.0,36,40,10.0,0.0
240,50.0,12,90,2.0,0.0
241,50.0,0,90,11.0,0.0
242,59.0,48,40,8.0,0.0
243,38.0,0,90,12.0,0.0
244,55.0,0,40,10.0,0.0
245,55.0,0,40,10.0,0.0
246,59.0,60,40,8.0,0.0
247,50.0,0,90,2.0,0.0
248,59.0,48,40,8.0,0.0
249,55.0,0,40,10.0,0.0
250,38.0,0,90,12.0,0.0
251,50.0,0,90,11.0,0.0
252,59.0,0,40,8.0,0.0
253,55.0,60,40,10.0,0.0
254,50.0,0,90,11.0,0.0
255,50.0,12,90,2.0,0.0
256,59.0,0,40,8.0,0.0
257,55.0,48,40,10.0,0.0
258,38.0,0,90,12.0,0.0
259,59.0,0,40,8.0,0.0
260,55.0,36,40,10.0,0.0
261,67.0,0,20,7.0,0.0
262,60.0,0,40,8.0,0.0
263,57.0,6,40,10.0,0.0
264,38.0,12,90,12.0,0.0
265,50.0,0,90,2.0,0.0
266,79.0,24,20,0.0,0.0
267,50.0,0,90,11.0,0.0
268,78.0,30,20,0.0,0.0
269,66.0,0,20,7.0,0.0
270,60.0,6,40,8.0,0.0
271,67.0,0,20,7.0,0.0
272,57.0,0,40,10.0,0.0
273,79.0,12,20,0.0,0.0
274,78.0,54,20,0.0,0.0
275,66.0,0,20,7.0,0.0
276,50.0,0,90,2.0,0.0
277,60.0,0,40,8.0,0.0
278,57.0,48,40,10.0,0.0
279,50.0,0,90,11.0,0.0
280,76.0,0,40,0.0,0.0
281,64.0,0,40,7.0,0.0
282,38.0,12,90,12.0,0.0
283,78.0,0,40,0.0,0.0
284,57.0,0,40,10.0,0.0
285,66.0,0,40,7.0,0.0
286,60.0,60,40,8.0,0.0
287,59.0,0,40,10.0,0.0
288,67.0,0,90,7.0,0.0
289,38.0,0,90,12.0,0.0
290,59.0,48,40,8.0,0.0
291,50.0,12,90,2.0,0.0
292,50.0,0,90,11.0,0.0
293,79.0,0,90,0.0,0.0
294,59.0,0,40,10.0,0.0
295,59.0,60,40,8.0,0.0
296,38.0,12,90,12.0,0.0
297,59.0,0,40,10.0,0.0
298,50.0,0,90,11.0,0.0
299,50.0,0,90,2.0,0.0
300,59.0,48,40,8.0,0.0
301,59.0,0,40,8.0,0.0
302,59.0,60,40,10.0,0.0
303,50.0,0,90,2.0,0.0
304,50.0,0,90,11.0,0.0
305,38.0,0,90,12.0,0.0
306,79.0,0,90,0.0,0.0
307,59.0,0,40,8.0,0.0
308,59.0,48,40,10.0,0.0
309,67.0,12,90,7.0,0.0
310,59.0,0,40,8.0,0.0
311,59.0,60,40,10.0,0.0
312,38.0,0,90,12.0,0.0
313,59.0,48,40,10.0,0.0
314,59.0,0,40,8.0,0.0
315,50.0,0,90,11.0,0.0
316,50.0,12,90,2.0,0.0
317,59.0,60,40,8.0,0.0
318,59.0,0,40,10.0,0.0
319,66.0,0,40,8.0,0.0
320,50.0,0,90,2.0,0.0
321,81.0,12,90,0.0,0.0
322,69.0,0,90,7.0,0.0
323,50.0,0,90,11.0,0.0
324,60.0,48,40,10.0,0.0
325,38.0,0,90,12.0,0.0
326,60.0,0,40,10.0,0.0
327,66.0,60,40,8.0,0.0
328,60.0,48,40,10.0,0.0
329,50.0,12,90,11.0,0.0
330,66.0,0,40,8.0,0.0
331,38.0,0,90,12.0,0.0
332,50.0,0,90,2.0,0.0
333,60.0,0,40,10.0,0.0
334,66.0,60,40,8.0,0.0
335,50.0,0,90,2.0,0.0
336,81.0,12,90,0.0,0.0
337,60.0,0,40,10.0,0.0
338,38.0,0,90,12.0,0.0
339,69.0,0,90,7.0,0.0
340,66.0,0,40,8.0,0.0
341,50.0,0,90,11.0,0.0
342,60.0,0,40,10.0,0.0
343,66.0,60,40,8.0,0.0
344,66.0,0,40,8.0,0.0
345,38.0,0,90,12.0,0.0
346,60.0,48,40,10.0,0.0
347,50.0,12,90,11.0,0.0
348,50.0,0,90,2.0,0.0
349,60.0,60,40,10.0,0.0
350,66.0,0,40,8.0,0.0
351,38.0,12,90,12.0,0.0
352,50.0,0,90,11.0,0.0
353,55.0,0,570,7.0,0.0
354,71.0,0,570,7.0,0.0
355,62.0,0,570,7.0,0.0
356,83.0,0,570,0.0,0.0
357,74.0,0,390,4.0,0.0
358,62.0,0,390,4.0,0.0
359,59.0,0,40,10.0,0.0
360,67.0,48,40,8.0,0.0
361,50.0,0,90,2.0,0.0
362,83.0,0,390,1.0,0.0
363,71.0,24,390,1.0,0.0
364,62.0,24,3060,3.0,0.0
365,50.0,0,3060,3.0,0.0
366,50.0,24,180,5.0,0.0
367,59.0,0,40,10.0,0.0
368,67.0,60,40,8.0,0.0
369,38.0,12,90,12.0,0.0
370,59.0,24,40,10.0,0.0
371,67.0,0,40,8.0,0.0
372,50.0,0,90,11.0,0.0
373,50.0,0,90,2.0,0.0
374,67.0,60,40,8.0,0.0
375,59.0,0,40,10.0,0.0
376,67.0,48,40,8.0,0.0
377,59.0,0,40,10.0,0.0
378,38.0,0,90,12.0,0.0
379,50.0,0,90,2.0,0.0
380,50.0,12,90,11.0,0.0
381,59.0,36,40,10.0,0.0
382,67.0,0,40,8.0,0.0
383,38.0,12,90,12.0,0.0
384,50.0,0,90,11.0,0.0
385,67.0,48,40,8.0,0.0
386,50.0,0,90,2.0,0.0
387,59.0,0,40,10.0,0.0
388,59.0,0,40,10.0,0.0
389,67.0,60,40,8.0,0.0
390,59.0,0,40,10.0,0.0
391,50.0,0,90,2.0,0.0
392,38.0,0,90,12.0,0.0
393,50.0,12,90,11.0,0.0
394,67.0,48,40,8.0,0.0
395,59.0,0,40,10.0,0.0
396,67.0,60,40,8.0,0.0
397,50.0,0,90,2.0,0.0
398,38.0,0,90,12.0,0.0
399,59.0,0,40,10.0,0.0
400,50.0,12,90,11.0,0.0
401,67.0,48,40,8.0,0.0
402,67.0,36,40,8.0,0.0
403,59.0,0,40,10.0,0.0
404,66.0,6,40,8.0,0.0
405,60.0,0,40,10.0,0.0
406,83.0,0,20,0.0,0.0
407,71.0,24,20,7.0,0.0
408,50.0,0,90,11.0,0.0
409,38.0,12,90,12.0,0.0
410,50.0,0,90,2.0,0.0
411,69.0,30,20,7.0,0.0
412,81.0,0,20,0.0,0.0
413,60.0,0,40,10.0,0.0
414,71.0,12,20,7.0,0.0
415,83.0,0,20,0.0,0.0
416,66.0,6,40,8.0,0.0
417,69.0,0,20,7.0,0.0
418,81.0,54,20,0.0,0.0
419,38.0,0,90,12.0,0.0
420,67.0,48,40,7.0,0.0
421,79.0,0,40,0.0,0.0
422,50.0,12,90,11.0,0.0
423,60.0,0,40,10.0,0.0
424,66.0,0,40,8.0,0.0
425,50.0,0,90,2.0,0.0
426,69.0,0,40,7.0,0.0
427,66.0,0,40,8.0,0.0
428,81.0,60,40,0.0,0.0
429,60.0,0,40,10.0,0.0
430,71.0,0,90,7.0,0.0
431,67.0,48,40,8.0,0.0
432,38.0,0,90,12.0,0.0
433,83.0,12,90,0.0,0.0
434,59.0,0,40,10.0,0.0
435,50.0,0,90,2.0,0.0
436,50.0,0,90,11.0,0.0
437,59.0,60,40,10.0,0.0
438,67.0,0,40,8.0,0.0
439,38.0,0,90,12.0,0.0
440,50.0,12,90,11.0,0.0
441,67.0,0,40,8.0,0.0
442,59.0,48,40,10.0,0.0
443,50.0,0,90,2.0,0.0
444,67.0,0,40,8.0,0.0
445,59.0,60,40,10.0,0.0
446,50.0,0,90,11.0,0.0
447,59.0,48,40,10.0,0.0
448,38.0,12,90,12.0,0.0
449,50.0,0,90,2.0,0.0
450,83.0,0,90,0.0,0.0
451,67.0,0,40,8.0,0.0
452,71.0,0,90,7.0,0.0
453,59.0,60,40,10.0,0.0
454,67.0,0,40,8.0,0.0
455,50.0,0,90,11.0,0.0
456,50.0,12,90,2.0,0.0
457,67.0,0,40,8.0,0.0
458,38.0,0,90,12.0,0.0
459,59.0,48,40,10.0,0.0
460,67.0,60,40,8.0,0.0
461,59.0,0,40,10.0,0.0
462,67.0,0,40,8.0,0.0
463,85.0,0,90,0.0,0.0
464,73.0,0,90,7.0,0.0
465,50.0,0,90,11.0,0.0
466,64.0,48,40,10.0,0.0
467,50.0,12,90,2.0,0.0
468,38.0,0,90,12.0,0.0
469,64.0,60,40,10.0,0.0
470,67.0,0,40,8.0,0.0
471,50.0,12,90,2.0,0.0
472,38.0,0,90,12.0,0.0
473,67.0,48,40,8.0,0.0
474,64.0,0,40,10.0,0.0
475,50.0,0,90,11.0,0.0
476,64.0,0,40,10.0,0.0
477,67.0,60,40,8.0,0.0
478,38.0,0,90,12.0,0.0
479,50.0,0,90,11.0,0.0
480,85.0,0,90,0.0,0.0
481,67.0,0,40,8.0,0.0
482,73.0,0,90,7.0,0.0
483,64.0,48,40,10.0,0.0
484,50.0,12,90,2.0,0.0
485,64.0,0,40,10.0,0.0
486,67.0,60,40,8.0,0.0
487,50.0,0,90,11.0,0.0
488,50.0,0,90,2.0,0.0
489,38.0,12,90,12.0,0.0
490,64.0,0,40,10.0,0.0
491,67.0,48,40,8.0,0.0
492,64.0,0,40,10.0,0.0
493,67.0,60,40,8.0,0.0
494,86.0,24,180,0.0,0.0
495,50.0,12,90,2.0,0.0
496,66.0,0,40,8.0,0.0
497,62.0,48,40,10.0,0.0
498,38.0,0,90,12.0,0.0
499,50.0,0,90,11.0,0.0
500,74.0,0,40,7.0,0.0
501,66.0,0,40,8.0,0.0
502,74.0,60,40,7.0,0.0
503,62.0,0,40,10.0,0.0
504,50.0,0,90,2.0,0.0
505,50.0,12,90,11.0,0.0
506,66.0,0,40,8.0,0.0
507,62.0,0,40,10.0,0.0
508,38.0,0,90,12.0,0.0
509,74.0,24,40,7.0,0.0
510,74.0,0,40,7.0,0.0
511,62.0,0,40,10.0,0.0
512,66.0,60,40,8.0,0.0
513,62.0,0,40,10.0,0.0
514,38.0,0,90,12.0,0.0
515,50.0,12,90,2.0,0.0
516,50.0,0,90,11.0,0.0
517,74.0,24,180,0.0,0.0
518,74.0,0,40,7.0,0.0
519,74.0,48,40,8.0,0.0
520,62.0,0,40,10.0,0.0
521,74.0,0,40,7.0,0.0
522,74.0,60,40,8.0,0.0
523,50.0,0,90,11.0,0.0
524,62.0,0,40,10.0,0.0
525,74.0,0,40,7.0,0.0
526,50.0,12,90,2.0,0.0
527,74.0,24,40,8.0,0.0
528,38.0,0,90,12.0,0.0
529,74.0,60,40,7.0,0.0
530,74.0,0,40,8.0,0.0
531,62.0,0,40,10.0,0.0
532,62.0,48,40,10.0,0.0
533,50.0,12,90,2.0,0.0
534,76.0,0,40,7.0,0.0
535,50.0,0,90,11.0,0.0
536,38.0,0,90,12.0,0.0
537,73.0,0,40,8.0,0.0
538,76.0,24,180,0.0,0.0
539,76.0,0,40,7.0,0.0
540,62.0,0,40,10.0,0.0
541,73.0,60,40,8.0,0.0
542,73.0,24,40,8.0,0.0
543,38.0,0,90,12.0,0.0
544,50.0,12,90,2.0,0.0
545,50.0,0,90,11.0,0.0
546,76.0,0,40,7.0,0.0
547,62.0,0,40,10.0,0.0
548,62.0,0,40,10.0,0.0
549,76.0,60,40,7.0,0.0
550,73.0,0,40,8.0,0.0
551,50.0,12,90,11.0,0.0
552,62.0,0,40,10.0,0.0
553,74.0,0,40,8.0,0.0
554,78.0,24,180,0.0,0.0
555,50.0,0,90,2.0,0.0
556,38.0,0,90,12.0,0.0
557,78.0,48,40,7.0,0.0
558,78.0,0,40,7.0,0.0
559,62.0,0,40,10.0,0.0
560,74.0,60,40,8.0,0.0
561,62.0,0,40,10.0,0.0
562,74.0,24,40,8.0,0.0
563,38.0,12,90,12.0,0.0
564,50.0,0,90,2.0,0.0
565,78.0,0,40,7.0,0.0
566,50.0,0,90,11.0,0.0
567,78.0,0,40,7.0,0.0
568,62.0,0,40,10.0,0.0
569,74.0,60,40,8.0,0.0
570,74.0,24,390,4.0,0.0
571,62.0,0,390,4.0,0.0
572,79.0,0,180,0.0,0.0
573,62.0,0,40,10.0,0.0
574,50.0,0,90,2.0,0.0
575,76.0,48,40,8.0,0.0
576,79.0,0,40,7.0,0.0
577,38.0,0,90,12.0,0.0
578,50.0,12,90,11.0,0.0
579,79.0,0,40,7.0,0.0
580,62.0,0,40,10.0,0.0
581,76.0,60,40,8.0,0.0
582,38.0,0,90,12.0,0.0
583,62.0,0,40,10.0,0.0
584,50.0,0,90,11.0,0.0
585,50.0,12,90,2.0,0.0
586,76.0,24,40,8.0,0.0
587,79.0,0,40,7.0,0.0
588,79.0,0,40,7.0,0.0
589,62.0,60,40,10.0,0.0
590,76.0,0,40,8.0,0.0
591,81.0,0,40,7.0,0.0
592,38.0,0,90,12.0,0.0
593,50.0,0,90,2.0,0.0
594,81.0,0,180,0.0,0.0
595,78.0,0,180,1.0,0.0
596,69.0,24,180,1.0,0.0
597,62.0,0,40,10.0,0.0
598,50.0,12,90,11.0,0.0
599,78.0,48,40,8.0,0.0
600,81.0,36,40,7.0,0.0
601,78.0,0,40,8.0,0.0
602,62.0,0,40,10.0,0.0
603,50.0,12,90,2.0,0.0
604,38.0,0,90,12.0,0.0
605,50.0,0,90,11.0,0.0
606,62.0,0,40,10.0,0.0
607,81.0,24,40,7.0,0.0
608,78.0,0,40,8.0,0.0
609,78.0,60,40,8.0,0.0
610,81.0,0,40,7.0,0.0
611,62.0,0,40,10.0,0.0
612,74.0,0,180,4.0,0.0
613,62.0,0,180,4.0,0.0
614,50.0,0,90,11.0,0.0
615,71.0,0,180,1.0,0.0
616,38.0,12,90,12.0,0.0
617,83.0,0,40,7.0,0.0
618,79.0,48,40,8.0,0.0
619,50.0,0,90,2.0,0.0
620,83.0,24,180,0.0,0.0
621,62.0,0,40,10.0,0.0
622,79.0,0,180,1.0,0.0
623,83.0,0,40,7.0,0.0
624,62.0,0,40,10.0,0.0
625,79.0,60,40,8.0,0.0
626,50.0,0,90,11.0,0.0
627,38.0,0,90,12.0,0.0
628,83.0,24,40,7.0,0.0
629,79.0,0,40,8.0,0.0
630,62.0,0,40,10.0,0.0
631,50.0,12,90,2.0,0.0
632,79.0,0,40,8.0,0.0
633,62.0,60,40,10.0,0.0
634,83.0,0,40,7.0,0.0
635,62.0,0,15,3.0,0.0
636,50.0,0,15,3.0,0.0
637,76.0,0,180,1.0,0.0
638,38.0,0,90,12.0,0.0
639,74.0,0,180,4.0,0.0
640,62.0,24,180,4.0,0.0
641,73.0,0,180,1.0,0.0
642,62.0,0,40,10.0,0.0
643,50.0,12,90,11.0,0.0
644,85.0,0,180,0.0,0.0
645,50.0,0,90,2.0,0.0
646,76.0,0,40,8.0,0.0
647,85.0,48,40,7.0,0.0
648,85.0,60,40,7.0,0.0
649,76.0,0,40,8.0,0.0
650,62.0,0,40,10.0,0.0
651,85.0,24,40,7.0,0.0
652,50.0,12,90,11.0,0.0
653,62.0,0,40,10.0,0.0
654,76.0,0,40,8.0,0.0
655,38.0,0,90,12.0,0.0
656,50.0,0,90,2.0,0.0
657,76.0,0,40,8.0,0.0
658,85.0,204,40,7.0,0.0
659,62.0,0,40,10.0,0.0
660,62.0,0,15,3.0,0.0
661,50.0,0,15,3.0,0.0
662,86.0,0,390,7.0,0.0
663,78.0,0,390,8.0,0.0
664,50.0,0,390,3.0,0.0
665,62.0,0,390,3.0,0.0
666,38.0,0,180,12.0,0.0
667,78.0,0,780,1.0,0.0
668,50.0,0,180,5.0,0.0
669,74.0,84,390,4.0,0.0
670,74.0,144,780,1.0,0.0
671,50.0,0,180,2.0,0.0
672,50.0,192,180,11.0,0.0
673,86.0,0,780,0.0,0.0
674,62.0,0,390,4.0,0.0
675,62.0,0,180,10.0,0.0
676,50.0,0,150,5.0,0.0
677,50.0,204,40,5.0,0.0
678,50.0,0,180,5.0,0.0
679,66.0,0,180,4.0,0.0
680,54.0,0,180,3.0,0.0
681,66.0,0,300,8.0,0.0
682,74.0,0,300,7.0,0.0
683,78.0,0,180,4.0,0.0
684,66.0,96,180,3.0,0.0
685,50.0,0,180,3.0,0.0
686,62.0,36,180,3.0,0.0
687,74.0,0,180,4.0,0.0
688,62.0,0,180,4.0,0.0
689,50.0,0,180,5.0,0.0
690,86.0,0,40,7.0,0.0
691,78.0,108,40,8.0,0.0
692,69.0,0,390,4.0,0.0
693,81.0,0,390,4.0,0.0
694,73.0,0,390,10.0,0.0
695,76.0,48,780,1.0,0.0
696,76.0,96,90,8.0,0.0
697,85.0,0,780,0.0,0.0
698,85.0,0,90,7.0,0.0
699,69.0,0,390,3.0,0.0
700,57.0,0,390,3.0,0.0
701,45.0,0,390,12.0,0.0
702,57.0,0,390,11.0,0.0
703,45.0,36,180,5.0,0.0
704,57.0,84,390,2.0,0.0
705,73.0,0,780,1.0,0.0
706,74.0,0,40,8.0,0.0
707,83.0,108,40,7.0,0.0
708,73.0,0,90,8.0,0.0
709,81.0,48,90,7.0,0.0
710,71.0,108,40,8.0,0.0
711,79.0,0,40,7.0,0.0
712,45.0,0,300,11.0,0.0
713,45.0,0,300,2.0,0.0
714,78.0,132,90,7.0,0.0
715,69.0,0,90,8.0,0.0
716,61.0,0,300,10.0,0.0
717,33.0,0,300,12.0,0.0
718,76.0,0,40,7.0,0.0
719,67.0,60,40,8.0,0.0
720,74.0,132,90,7.0,0.0
721,66.0,0,90,8.0,0.0
722,73.0,0,40,7.0,0.0
723,45.0,0,40,12.0,0.0
724,69.0,0,40,10.0,0.0
725,57.0,108,40,2.0,0.0
726,57.0,0,40,11.0,0.0
727,64.0,0,40,8.0,0.0
728,83.0,48,780,0.0,0.0
729,50.0,0,180,5.0,0.0
730,71.0,0,780,1.0,0.0
731,71.0,96,570,7.0,0.0
732,79.0,0,780,1.0,0.0
733,55.0,0,90,11.0,0.0
734,71.0,96,90,10.0,0.0
735,55.0,0,90,2.0,0.0
736,62.0,36,180,4.0,0.0
737,74.0,0,180,4.0,0.0
738,43.0,0,90,12.0,0.0
739,62.0,0,180,3.0,0.0
740,55.0,0,570,8.0,0.0
741,50.0,0,180,3.0,0.0
742,67.0,0,570,8.0,0.0
743,42.0,0,40,12.0,0.0
744,54.0,0,40,11.0,0.0
745,54.0,0,40,2.0,0.0
746,69.0,108,40,10.0,0.0
747,62.0,0,150,4.0,0.0
748,52.0,0,90,11.0,0.0
749,67.0,48,90,10.0,0.0
750,50.0,0,150,5.0,0.0
751,50.0,0,150,3.0,0.0
752,62.0,84,150,3.0,0.0
753,52.0,0,90,2.0,0.0
754,40.0,0,90,12.0,0.0
755,74.0,0,150,4.0,0.0
756,50.0,0,40,5.0,0.0
757,66.0,0,40,10.0,0.0
758,50.0,0,40,2.0,0.0
759,50.0,0,40,11.0,0.0
760,50.0,0,40,3.0,0.0
761,62.0,0,40,3.0,0.0
762,62.0,0,40,4.0,0.0
763,74.0,0,40,4.0,0.0
764,38.0,108,40,12.0,0.0
765,64.0,0,90,10.0,0.0
766,62.0,0,180,3.0,0.0
767,50.0,0,180,3.0,0.0
768,37.0,0,90,12.0,0.0
769,49.0,0,90,11.0,0.0
770,74.0,0,180,4.0,0.0
771,62.0,0,180,4.0,0.0
772,49.0,0,90,2.0,0.0
773,50.0,36,180,5.0,0.0
774,47.0,0,40,11.0,0.0
775,62.0,0,40,10.0,0.0
776,47.0,60,40,2.0,0.0
777,35.0,0,40,12.0,0.0
778,62.0,36,180,3.0,0.0
779,50.0,0,180,3.0,0.0
780,61.0,0,90,10.0,0.0
781,33.0,96,90,12.0,0.0
782,45.0,0,90,11.0,0.0
783,74.0,0,180,4.0,0.0
784,62.0,0,180,4.0,0.0
785,50.0,0,180,5.0,0.0
786,45.0,0,90,2.0,0.0
787,43.0,0,40,2.0,0.0
788,59.0,0,40,10.0,0.0
789,31.0,0,40,12.0,0.0
790,83.0,0,40,7.0,0.0
791,74.0,0,40,8.0,0.0
792,43.0,108,40,11.0,0.0
793,42.0,0,570,11.0,0.0
794,78.0,96,90,8.0,0.0
795,50.0,36,180,5.0,0.0
796,42.0,0,570,2.0,0.0
797,81.0,0,90,7.0,0.0
798,74.0,84,390,4.0,0.0
799,30.0,132,570,12.0,0.0
800,50.0,0,390,3.0,0.0
801,81.0,48,780,0.0,0.0
802,62.0,0,570,10.0,0.0
803,62.0,0,390,4.0,0.0
804,69.0,0,780,1.0,0.0
805,74.0,0,780,1.0,0.0
806,62.0,0,390,3.0,0.0
807,76.0,108,40,8.0,0.0
808,79.0,0,40,7.0,0.0
809,78.0,0,90,7.0,0.0
810,74.0,48,90,8.0,0.0
811,73.0,0,40,8.0,0.0
812,76.0,108,40,7.0,0.0
813,74.0,0,90,7.0,0.0
814,71.0,0,90,8.0,0.0
815,69.0,0,40,8.0,0.0
816,73.0,60,40,7.0,0.0
817,67.0,0,90,8.0,0.0
818,71.0,132,90,7.0,0.0
819,54.0,108,40,12.0,0.0
820,66.0,0,40,11.0,0.0
821,66.0,0,40,8.0,0.0
822,69.0,0,40,7.0,0.0
823,66.0,0,40,2.0,0.0
824,62.0,0,40,10.0,0.0
825,67.0,48,780,1.0,0.0
826,69.0,0,180,4.0,0.0
827,67.0,0,570,7.0,0.0
828,55.0,0,570,7.0,0.0
829,73.0,0,780,1.0,0.0
830,64.0,36,180,3.0,0.0
831,79.0,0,780,0.0,0.0
832,64.0,0,90,11.0,0.0
833,57.0,0,180,3.0,0.0
834,45.0,0,180,5.0,0.0
835,61.0,96,570,8.0,0.0
836,64.0,0,90,2.0,0.0
837,67.0,96,90,10.0,0.0
838,52.0,0,90,12.0,0.0
839,66.0,0,40,10.0,0.0
840,62.0,108,40,2.0,0.0
841,62.0,0,40,11.0,0.0
842,50.0,0,40,12.0,0.0
843,57.0,84,150,3.0,0.0
844,69.0,0,150,4.0,0.0
845,61.0,0,90,2.0,0.0
846,64.0,0,90,10.0,0.0
847,45.0,0,150,5.0,0.0
848,61.0,0,90,11.0,0.0
849,64.0,0,150,3.0,0.0
850,49.0,48,90,12.0,0.0
851,59.0,0,40,2.0,0.0
852,45.0,0,40,5.0,0.0
853,57.0,0,40,3.0,0.0
854,69.0,0,40,4.0,0.0
855,47.0,0,40,12.0,0.0
856,62.0,0,40,10.0,0.0
857,59.0,0,40,11.0,0.0
858,64.0,108,40,3.0,0.0
859,57.0,0,180,3.0,0.0
860,64.0,0,180,3.0,0.0
861,45.0,0,90,12.0,0.0
862,61.0,0,90,10.0,0.0
863,45.0,36,180,5.0,0.0
864,57.0,0,90,11.0,0.0
865,69.0,0,180,4.0,0.0
866,57.0,0,90,2.0,0.0
867,43.0,0,40,12.0,0.0
868,55.0,60,40,2.0,0.0
869,55.0,0,40,11.0,0.0
870,59.0,0,40,10.0,0.0
871,42.0,0,90,12.0,0.0
872,54.0,0,90,2.0,0.0
873,45.0,36,180,5.0,0.0
874,57.0,0,90,10.0,0.0
875,54.0,96,90,11.0,0.0
876,64.0,0,180,3.0,0.0
877,57.0,0,180,3.0,0.0
878,69.0,0,180,4.0,0.0
879,79.0,108,40,7.0,0.0
880,52.0,0,40,2.0,0.0
881,73.0,0,40,8.0,0.0
882,52.0,0,40,11.0,0.0
883,55.0,0,40,10.0,0.0
884,40.0,0,40,12.0,0.0
885,57.0,0,90,10.0,0.0
886,38.0,72,90,12.0,0.0
887,50.0,24,180,3.0,0.0
888,62.0,0,180,3.0,0.0
889,74.0,0,90,8.0,0.0
890,50.0,0,90,2.0,0.0
891,78.0,0,90,7.0,0.0
892,50.0,0,90,11.0,0.0
893,69.0,0,180,4.0,0.0
894,66.0,0,180,4.0,0.0
895,66.0,0,180,1.0,0.0
896,78.0,24,390,0.0,0.0
897,74.0,0,180,1.0,0.0
898,50.0,0,180,5.0,0.0
899,50.0,0,90,11.0,0.0
900,38.0,0,90,12.0,0.0
901,74.0,24,40,7.0,0.0
902,74.0,0,40,8.0,0.0
903,50.0,12,90,2.0,0.0
904,62.0,0,90,10.0,0.0
905,76.0,0,40,7.0,0.0
906,76.0,60,40,8.0,0.0
907,38.0,0,90,12.0,0.0
908,79.0,0,40,7.0,0.0
909,62.0,0,90,10.0,0.0
910,74.0,48,300,1.0,0.0
911,50.0,12,90,2.0,0.0
912,79.0,48,40,8.0,0.0
913,50.0,0,90,11.0,0.0
914,78.0,0,40,8.0,0.0
915,78.0,36,40,7.0,0.0
916,50.0,0,90,2.0,0.0
917,76.0,48,40,8.0,0.0
918,62.0,12,90,10.0,0.0
919,50.0,0,90,11.0,0.0
920,76.0,0,40,7.0,0.0
921,38.0,0,90,12.0,0.0
922,78.0,0,40,8.0,0.0
923,78.0,60,40,7.0,0.0
924,64.0,0,90,10.0,0.0
925,79.0,0,90,7.0,0.0
926,40.0,0,90,12.0,0.0
927,79.0,0,90,8.0,0.0
928,52.0,0,90,2.0,0.0
929,52.0,72,90,11.0,0.0
930,79.0,24,390,0.0,0.0
931,40.0,0,90,12.0,0.0
932,64.0,12,90,10.0,0.0
933,52.0,0,90,2.0,0.0
934,73.0,0,90,1.0,0.0
935,76.0,48,40,7.0,0.0
936,76.0,0,40,8.0,0.0
937,52.0,0,90,11.0,0.0
938,78.0,60,40,8.0,0.0
939,78.0,0,40,7.0,0.0
940,52.0,0,90,11.0,0.0
941,81.0,48,40,8.0,0.0
942,81.0,0,40,7.0,0.0
943,52.0,12,90,2.0,0.0
944,40.0,0,90,12.0,0.0
945,64.0,0,90,10.0,0.0
946,76.0,0,330,1.0,0.0
947,79.0,36,40,7.0,0.0
948,79.0,0,40,8.0,0.0
949,40.0,0,90,12.0,0.0
950,52.0,12,90,11.0,0.0
951,78.0,48,40,8.0,0.0
952,78.0,0,40,7.0,0.0
953,64.0,0,90,10.0,0.0
954,52.0,0,90,2.0,0.0
955,79.0,108,40,8.0,0.0
956,79.0,0,40,7.0,0.0
957,81.0,24,390,0.0,0.0
958,42.0,0,90,12.0,0.0
959,81.0,0,90,8.0,0.0
960,81.0,0,90,7.0,0.0
961,54.0,0,90,11.0,0.0
962,66.0,0,90,10.0,0.0
963,54.0,72,90,2.0,0.0
964,66.0,0,90,10.0,0.0
965,74.0,0,90,1.0,0.0
966,78.0,48,40,7.0,0.0
967,54.0,12,90,11.0,0.0
968,42.0,0,90,12.0,0.0
969,54.0,0,90,2.0,0.0
970,78.0,0,40,8.0,0.0
971,79.0,60,40,8.0,0.0
972,79.0,0,40,7.0,0.0
973,78.0,0,330,1.0,0.0
974,83.0,48,40,7.0,0.0
975,42.0,12,90,12.0,0.0
976,66.0,0,90,10.0,0.0
977,54.0,0,90,11.0,0.0
978,54.0,0,90,2.0,0.0
979,83.0,0,40,8.0,0.0
980,81.0,0,40,7.0,0.0
981,81.0,36,40,8.0,0.0
982,54.0,0,90,11.0,0.0
983,79.0,0,40,8.0,0.0
984,66.0,0,90,10.0,0.0
985,79.0,48,40,7.0,0.0
986,54.0,0,90,2.0,0.0
987,42.0,12,90,12.0,0.0
988,81.0,0,40,8.0,0.0
989,81.0,108,40,7.0,0.0
990,83.0,0,180,7.0,0.0
991,67.0,0,90,10.0,0.0
992,83.0,24,180,0.0,0.0
993,55.0,0,90,2.0,0.0
994,55.0,96,90,11.0,0.0
995,83.0,0,180,8.0,0.0
996,43.0,0,90,12.0,0.0
997,76.0,24,180,1.0,0.0
998,67.0,96,90,10.0,0.0
999,55.0,0,90,2.0,0.0
1000,55.0,0,90,11.0,0.0
1001,43.0,0,90,12.0,0.0
1002,64.0,0,180,8.0,0.0
1003,76.0,24,180,4.0,0.0
1004,74.0,0,180,8.0,0.0
1005,74.0,0,180,0.0,0.0
1006,56.0,0,90,11.0,0.0
1007,64.0,0,180,7.0,0.0
1008,56.0,96,90,2.0,0.0
1009,68.0,0,90,10.0,0.0
1010,74.0,0,180,7.0,0.0
1011,64.0,0,180,3.0,0.0
1012,44.0,0,90,12.0,0.0
1013,68.0,0,90,10.0,0.0
1014,74.0,0,90,1.0,0.0
1015,44.0,72,90,12.0,0.0
1016,56.0,0,90,2.0,0.0
1017,56.0,0,90,11.0,0.0
1018,57.0,0,180,11.0,0.0
1019,69.0,0,180,10.0,0.0
1020,64.0,0,180,3.0,0.0
1021,57.0,0,180,3.0,0.0
1022,73.0,0,180,1.0,0.0
1023,81.0,0,180,1.0,0.0
1024,57.0,0,180,2.0,0.0
1025,45.0,0,180,12.0,0.0
1026,81.0,0,180,0.0,0.0
1027,64.0,0,180,7.0,0.0
1028,45.0,0,180,5.0,0.0
1029,81.0,60,40,8.0,0.0
1030,81.0,0,180,7.0,0.0
1031,76.0,0,180,4.0,0.0
1032,69.0,0,40,8.0,0.0
1033,69.0,0,180,4.0,0.0
1034,73.0,36,180,7.0,0.0
1035,69.0,0,40,8.0,0.0
1036,81.0,60,40,8.0,0.0
1037,81.0,0,40,8.0,0.0
1038,69.0,24,40,8.0,0.0
1039,81.0,0,40,8.0,0.0
1040,69.0,60,40,8.0,0.0
1041,69.0,60,40,8.0,0.0
1042,81.0,0,40,8.0,0.0
1043,81.0,60,40,8.0,0.0
1044,69.0,0,40,8.0,0.0
1045,81.0,60,40,8.0,0.0
1046,69.0,0,40,8.0,0.0
1047,69.0,60,40,8.0,0.0
1048,81.0,0,40,8.0,0.0
1049,81.0,60,40,8.0,0.0
1050,69.0,0,40,8.0,0.0
1051,69.0,60,40,8.0,0.0
1052,81.0,0,40,8.0,0.0
1053,81.0,60,40,8.0,0.0
1054,69.0,0,40,8.0,0.0
1055,69.0,60,40,8.0,0.0
1056,81.0,0,40,8.0,0.0
1057,73.0,12,90,1.0,0.0
1058,57.0,0,90,3.0,0.0
1059,64.0,0,90,3.0,0.0
1060,81.0,48,40,8.0,0.0
1061,69.0,0,40,8.0,0.0
1062,76.0,0,90,4.0,0.0
1063,69.0,0,90,4.0,0.0
1064,79.0,0,90,1.0,0.0
1065,81.0,60,40,8.0,0.0
1066,69.0,0,40,8.0,0.0
1067,69.0,0,40,8.0,0.0
1068,81.0,60,40,8.0,0.0
1069,81.0,60,40,8.0,0.0
1070,69.0,0,40,8.0,0.0
1071,74.0,0,90,1.0,0.0
1072,78.0,0,90,1.0,0.0
1073,69.0,0,40,8.0,0.0
1074,81.0,48,40,8.0,0.0
1075,78.0,0,90,4.0,0.0
1076,74.0,0,90,4.0,0.0
1077,62.0,0,90,3.0,0.0
1078,66.0,12,90,3.0,0.0
1079,81.0,60,40,8.0,0.0
1080,69.0,0,40,8.0,0.0
1081,81.0,0,40,8.0,0.0
1082,69.0,60,40,8.0,0.0
1083,81.0,60,40,8.0,0.0
1084,69.0,0,40,8.0,0.0
1085,69.0,0,40,8.0,0.0
1086,81.0,48,40,8.0,0.0
1087,64.0,0,90,3.0,0.0
1088,73.0,12,90,1.0,0.0
1089,76.0,0,90,1.0,0.0
1090,57.0,0,90,3.0,0.0
1091,69.0,0,90,4.0,0.0
1092,76.0,0,90,4.0,0.0
1093,81.0,60,40,8.0,0.0
1094,69.0,0,40,8.0,0.0
1095,81.0,0,40,8.0,0.0
1096,69.0,60,40,8.0,0.0
1097,69.0,60,40,8.0,0.0
1098,81.0,0,40,8.0,0.0
1099,74.0,0,90,4.0,0.0
1100,66.0,0,90,4.0,0.0
1101,69.0,0,40,8.0,0.0
1102,81.0,48,40,8.0,0.0
1103,74.0,12,90,1.0,0.0
1104,62.0,0,90,3.0,0.0
1105,54.0,0,90,3.0,0.0
1106,69.0,0,90,1.0,0.0
1107,81.0,60,40,8.0,0.0
1108,69.0,0,40,8.0,0.0
1109,81.0,0,40,8.0,0.0
1110,69.0,60,40,8.0,0.0
1111,81.0,0,40,8.0,0.0
1112,69.0,60,40,8.0,0.0
1113,78.0,0,180,4.0,0.0
1114,74.0,0,180,1.0,0.0
1115,78.0,36,180,1.0,0.0
1116,38.0,0,180,12.0,0.0
1117,74.0,0,40,0.0,0.0
1118,66.0,0,180,3.0,0.0
1119,50.0,0,180,2.0,0.0
1120,74.0,0,180,4.0,0.0
1121,50.0,0,180,11.0,0.0
1122,81.0,0,40,8.0,0.0
1123,69.0,0,40,8.0,0.0
1124,62.0,0,180,10.0,0.0
1125,62.0,0,180,3.0,0.0
1126,50.0,0,180,5.0,0.0
1127,74.0,60,40,7.0,0.0
1128,81.0,0,40,8.0,0.0
1129,78.0,0,40,0.0,0.0
1130,78.0,60,40,7.0,0.0
1131,69.0,0,40,8.0,0.0
1132,81.0,0,40,0.0,0.0
1133,81.0,0,40,8.0,0.0
1134,81.0,24,40,7.0,0.0
1135,69.0,0,40,8.0,0.0
1136,86.0,0,40,7.0,0.0
1137,81.0,60,40,8.0,0.0
1138,69.0,0,40,8.0,0.0
1139,86.0,0,40,0.0,0.0
1140,69.0,0,40,8.0,0.0
1141,69.0,0,180,4.0,0.0
1142,86.0,60,40,0.0,0.0
1143,64.0,0,180,3.0,0.0
1144,76.0,0,180,1.0,0.0
1145,73.0,0,180,1.0,0.0
1146,57.0,0,180,2.0,0.0
1147,57.0,36,180,11.0,0.0
1148,57.0,0,180,3.0,0.0
1149,45.0,0,180,5.0,0.0
1150,86.0,0,40,7.0,0.0
1151,45.0,0,180,12.0,0.0
1152,81.0,0,40,8.0,0.0
1153,69.0,0,180,10.0,0.0
1154,76.0,0,180,4.0,0.0
1155,81.0,0,40,8.0,0.0
1156,85.0,60,40,7.0,0.0
1157,85.0,0,40,0.0,0.0
1158,69.0,0,40,8.0,0.0
1159,83.0,0,40,0.0,0.0
1160,83.0,24,40,7.0,0.0
1161,81.0,0,40,8.0,0.0
1162,69.0,0,40,8.0,0.0
1163,69.0,60,40,8.0,0.0
1164,81.0,0,40,8.0,0.0
1165,81.0,0,40,0.0,0.0
1166,81.0,0,40,7.0,0.0
1167,81.0,36,180,0.0,0.0
1168,81.0,0,180,7.0,0.0
1169,69.0,60,40,8.0,0.0
1170,81.0,0,40,8.0,0.0
1171,81.0,60,40,8.0,0.0
1172,69.0,0,40,8.0,0.0
1173,69.0,24,40,8.0,0.0
1174,81.0,0,40,8.0,0.0
1175,69.0,60,40,8.0,0.0
1176,81.0,0,40,8.0,0.0
1177,69.0,0,40,8.0,0.0
1178,81.0,60,40,8.0,0.0
1179,81.0,0,40,8.0,0.0
1180,69.0,60,40,8.0,0.0
1181,69.0,60,40,8.0,0.0
1182,81.0,0,40,8.0,0.0
1183,81.0,60,40,8.0,0.0
1184,69.0,0,40,8.0,0.0
1185,76.0,0,90,4.0,0.0
1186,69.0,0,40,8.0,0.0
1187,64.0,0,90,3.0,0.0
1188,57.0,0,90,3.0,0.0
1189,73.0,0,90,1.0,0.0
1190,69.0,12,90,4.0,0.0
1191,81.0,48,40,8.0,0.0
1192,79.0,0,90,1.0,0.0
1193,81.0,60,40,8.0,0.0
1194,69.0,0,40,8.0,0.0
1195,69.0,0,40,8.0,0.0
1196,81.0,60,40,8.0,0.0
1197,69.0,0,40,8.0,0.0
1198,81.0,60,40,8.0,0.0
1199,78.0,0,90,1.0,0.0
1200,74.0,0,90,1.0,0.0
1201,62.0,12,90,3.0,0.0
1202,66.0,0,90,3.0,0.0
1203,69.0,0,40,8.0,0.0
1204,78.0,0,90,4.0,0.0
1205,81.0,48,40,8.0,0.0
1206,74.0,0,90,4.0,0.0
1207,69.0,60,40,8.0,0.0
1208,81.0,0,40,8.0,0.0
1209,69.0,0,40,8.0,0.0
1210,81.0,60,40,8.0,0.0
1211,81.0,60,40,8.0,0.0
1212,69.0,0,40,8.0,0.0
1213,69.0,48,40,8.0,0.0
1214,81.0,0,40,8.0,0.0
1215,73.0,0,90,1.0,0.0
1216,69.0,12,90,4.0,0.0
1217,76.0,0,90,1.0,0.0
1218,76.0,0,90,4.0,0.0
1219,64.0,0,90,3.0,0.0
1220,57.0,0,90,3.0,0.0
1221,69.0,60,40,8.0,0.0
1222,81.0,0,40,8.0,0.0
1223,81.0,60,40,8.0,0.0
1224,69.0,0,40,8.0,0.0
1225,69.0,60,40,8.0,0.0
1226,81.0,0,40,8.0,0.0
1227,62.0,0,90,3.0,0.0
1228,81.0,0,40,8.0,0.0
1229,54.0,12,90,3.0,0.0
1230,74.0,0,90,1.0,0.0
1231,69.0,0,90,1.0,0.0
1232,74.0,0,90,4.0,0.0
1233,66.0,0,90,4.0,0.0
1234,69.0,48,40,8.0,0.0
1235,81.0,60,40,8.0,0.0
1236,69.0,0,40,8.0,0.0
1237,81.0,0,40,8.0,0.0
1238,69.0,60,40,8.0,0.0
1239,69.0,60,40,8.0,0.0
1240,81.0,0,40,8.0,0.0
1241,38.0,0,180,12.0,0.0
1242,50.0,0,180,11.0,0.0
1243,74.0,60,40,7.0,0.0
1244,62.0,0,180,3.0,0.0
1245,74.0,0,180,1.0,0.0
1246,74.0,0,40,0.0,0.0
1247,78.0,0,180,1.0,0.0
1248,69.0,0,40,8.0,0.0
1249,62.0,0,180,10.0,0.0
1250,50.0,0,180,5.0,0.0
1251,81.0,0,40,8.0,0.0
1252,78.0,36,180,4.0,0.0
1253,50.0,0,180,2.0,0.0
1254,74.0,0,180,4.0,0.0
1255,66.0,0,180,3.0,0.0
1256,78.0,0,40,7.0,0.0
1257,81.0,60,40,8.0,0.0
1258,78.0,0,40,0.0,0.0
1259,69.0,0,40,8.0,0.0
1260,69.0,0,40,8.0,0.0
1261,81.0,0,40,0.0,0.0
1262,81.0,0,40,8.0,0.0
1263,81.0,24,40,7.0,0.0
1264,69.0,60,40,8.0,0.0
1265,86.0,0,40,7.0,0.0
1266,81.0,0,40,8.0,0.0
1267,86.0,0,40,0.0,0.0
1268,86.0,0,40,7.0,0.0
1269,69.0,0,180,10.0,0.0
1270,73.0,0,180,1.0,0.0
1271,69.0,0,180,4.0,0.0
1272,57.0,0,180,11.0,0.0
1273,76.0,0,180,1.0,0.0
1274,64.0,0,180,3.0,0.0
1275,57.0,36,180,3.0,0.0
1276,45.0,0,180,5.0,0.0
1277,76.0,0,180,4.0,0.0
1278,45.0,0,180,12.0,0.0
1279,57.0,0,180,2.0,0.0
1280,86.0,0,40,0.0,0.0
1281,69.0,60,40,8.0,0.0
1282,81.0,0,40,8.0,0.0
1283,69.0,0,40,8.0,0.0
1284,81.0,0,40,8.0,0.0
1285,85.0,0,40,0.0,0.0
1286,85.0,60,40,7.0,0.0
1287,83.0,24,40,7.0,0.0
1288,81.0,0,40,8.0,0.0
1289,69.0,0,40,8.0,0.0
1290,83.0,0,40,0.0,0.0
1291,81.0,0,40,7.0,0.0
1292,69.0,0,40,8.0,0.0
1293,81.0,60,40,8.0,0.0
1294,81.0,0,40,0.0,0.0
1295,69.0,60,40,8.0,0.0
1296,81.0,0,180,0.0,0.0
1297,81.0,0,40,8.0,0.0
1298,81.0,36,180,7.0,0.0
1299,81.0,60,40,8.0,0.0
1300,69.0,0,40,8.0,0.0
1301,81.0,0,40,8.0,0.0
1302,69.0,24,40,8.0,0.0
1303,69.0,0,40,8.0,0.0
1304,81.0,60,40,8.0,0.0
1305,81.0,0,40,8.0,0.0
1306,69.0,60,40,8.0,0.0
1307,81.0,0,40,8.0,0.0
1308,69.0,60,40,8.0,0.0
1309,81.0,0,40,8.0,0.0
1310,69.0,60,40,8.0,0.0
1311,81.0,60,40,8.0,0.0
1312,69.0,0,40,8.0,0.0
1313,81.0,48,40,8.0,0.0
1314,79.0,0,90,1.0,0.0
1315,73.0,0,90,1.0,0.0
1316,69.0,0,40,8.0,0.0
1317,64.0,0,90,3.0,0.0
1318,57.0,0,90,3.0,0.0
1319,69.0,0,90,4.0,0.0
1320,76.0,12,90,4.0,0.0
1321,81.0,0,40,8.0,0.0
1322,69.0,60,40,8.0,0.0
1323,69.0,60,40,8.0,0.0
1324,81.0,0,40,8.0,0.0
1325,69.0,0,40,8.0,0.0
1326,81.0,60,40,8.0,0.0
1327,78.0,0,90,4.0,0.0
1328,66.0,12,90,3.0,0.0
1329,74.0,0,90,4.0,0.0
1330,62.0,0,90,3.0,0.0
1331,81.0,48,40,8.0,0.0
1332,74.0,0,90,1.0,0.0
1333,78.0,0,90,1.0,0.0
1334,69.0,0,40,8.0,0.0
1335,81.0,0,40,8.0,0.0
1336,69.0,60,40,8.0,0.0
1337,69.0,60,40,8.0,0.0
1338,81.0,0,40,8.0,0.0
1339,81.0,0,40,8.0,0.0
1340,69.0,60,40,8.0,0.0
1341,73.0,0,90,1.0,0.0
1342,57.0,0,90,3.0,0.0
1343,69.0,0,40,8.0,0.0
1344,64.0,0,90,3.0,0.0
1345,76.0,0,90,4.0,0.0
1346,76.0,0,90,1.0,0.0
1347,69.0,12,90,4.0,0.0
1348,81.0,48,40,8.0,0.0
1349,69.0,0,40,8.0,0.0
1350,81.0,60,40,8.0,0.0
1351,81.0,60,40,8.0,0.0
1352,69.0,0,40,8.0,0.0
1353,81.0,60,40,8.0,0.0
1354,69.0,0,40,8.0,0.0
1355,69.0,0,40,8.0,0.0
1356,54.0,0,90,3.0,0.0
1357,62.0,0,90,3.0,0.0
1358,66.0,0,90,4.0,0.0
1359,74.0,12,90,4.0,0.0
1360,81.0,48,40,8.0,0.0
1361,69.0,0,90,1.0,0.0
1362,74.0,0,90,1.0,0.0
1363,69.0,60,40,8.0,0.0
1364,81.0,0,40,8.0,0.0
1365,69.0,60,40,8.0,0.0
1366,81.0,0,40,8.0,0.0
1367,81.0,0,40,8.0,0.0
1368,69.0,60,40,8.0,0.0
1369,78.0,0,180,1.0,0.0
1370,74.0,0,180,1.0,0.0
1371,62.0,0,180,3.0,0.0
1372,66.0,0,180,3.0,0.0
1373,74.0,0,40,0.0,0.0
1374,78.0,0,180,4.0,0.0
1375,69.0,0,40,8.0,0.0
1376,38.0,0,180,12.0,0.0
1377,74.0,0,180,4.0,0.0
1378,50.0,0,180,11.0,0.0
1379,81.0,60,40,8.0,0.0
1380,62.0,36,180,10.0,0.0
1381,50.0,0,180,5.0,0.0
1382,50.0,0,180,2.0,0.0
1383,74.0,0,40,7.0,0.0
1384,69.0,0,40,8.0,0.0
1385,81.0,0,40,8.0,0.0
1386,78.0,60,40,0.0,0.0
1387,78.0,0,40,7.0,0.0
1388,69.0,0,40,8.0,0.0
1389,81.0,0,40,8.0,0.0
1390,81.0,24,40,7.0,0.0
1391,81.0,0,40,0.0,0.0
1392,86.0,204,40,0.0,0.0
1393,81.0,0,40,8.0,0.0
1394,69.0,0,40,8.0,0.0
1395,86.0,0,40,7.0,0.0
1396,57.0,0,180,11.0,0.0
1397,64.0,0,180,3.0,0.0
1398,69.0,0,180,8.0,0.0
1399,81.0,0,180,8.0,0.0
1400,57.0,0,180,3.0,0.0
1401,76.0,0,180,1.0,0.0
1402,73.0,0,180,1.0,0.0
1403,85.0,0,180,0.0,0.0
1404,85.0,0,180,7.0,0.0
1405,45.0,0,180,12.0,0.0
1406,69.0,0,180,10.0,0.0
1407,45.0,0,180,5.0,0.0
1408,69.0,96,180,4.0,0.0
1409,57.0,0,180,2.0,0.0
1410,76.0,0,180,4.0,0.0
1411,57.0,0,180,2.0,0.0
1412,57.0,0,180,3.0,0.0
1413,64.0,0,180,3.0,0.0
1414,73.0,0,180,1.0,0.0
1415,69.0,60,40,0.0,0.0
1416,69.0,0,40,8.0,0.0
1417,81.0,36,180,1.0,0.0
1418,73.0,60,40,8.0,0.0
1419,73.0,0,40,0.0,0.0
1420,76.0,24,40,0.0,0.0
1421,76.0,0,40,8.0,0.0
1422,81.0,204,40,8.0,0.0
1423,81.0,0,40,0.0,0.0
1424,78.0,96,180,8.0,0.0
1425,62.0,0,180,3.0,0.0
1426,66.0,0,180,3.0,0.0
1427,62.0,0,180,2.0,0.0
1428,78.0,0,180,1.0,0.0
1429,74.0,0,180,1.0,0.0
1430,78.0,0,180,0.0,0.0
1431,62.0,0,180,10.0,0.0
1432,50.0,0,180,2.0,0.0
1433,50.0,0,180,11.0,0.0
1434,74.0,60,40,0.0,0.0
1435,38.0,36,180,12.0,0.0
1436,74.0,0,180,1.0,0.0
1437,78.0,0,180,4.0,0.0
1438,62.0,0,180,3.0,0.0
1439,66.0,0,180,3.0,0.0
1440,78.0,0,180,1.0,0.0
1441,74.0,0,40,7.0,0.0
1442,74.0,0,180,4.0,0.0
1443,50.0,0,180,5.0,0.0
1444,78.0,60,40,0.0,0.0
1445,78.0,0,40,7.0,0.0
1446,81.0,24,40,7.0,0.0
1447,81.0,0,40,0.0,0.0
1448,86.0,0,40,7.0,0.0
1449,86.0,204,40,0.0,0.0
1450,45.0,0,180,5.0,0.0
1451,85.0,0,180,7.0,0.0
1452,69.0,0,180,10.0,0.0
1453,57.0,0,180,3.0,0.0
1454,69.0,0,180,4.0,0.0
1455,73.0,0,180,1.0,0.0
1456,76.0,0,180,4.0,0.0
1457,57.0,0,180,11.0,0.0
1458,85.0,0,180,0.0,0.0
1459,45.0,0,180,12.0,0.0
1460,57.0,96,180,2.0,0.0
1461,76.0,0,180,1.0,0.0
1462,64.0,0,180,3.0,0.0
1463,57.0,0,180,2.0,0.0
1464,69.0,0,40,0.0,0.0
1465,57.0,36,180,3.0,0.0
1466,64.0,0,180,3.0,0.0
1467,81.0,0,180,1.0,0.0
1468,73.0,0,180,1.0,0.0
1469,69.0,60,40,8.0,0.0
1470,73.0,60,40,0.0,0.0
1471,73.0,0,40,8.0,0.0
1472,76.0,0,40,0.0,0.0
1473,76.0,24,40,8.0,0.0
1474,81.0,0,40,0.0,0.0
1475,81.0,204,40,8.0,0.0
1476,62.0,0,180,3.0,0.0
1477,66.0,0,180,3.0,0.0
1478,74.0,0,180,1.0,0.0
1479,78.0,0,180,1.0,0.0
1480,78.0,0,180,8.0,0.0
1481,62.0,0,180,2.0,0.0
1482,78.0,96,180,0.0,0.0
1483,74.0,0,40,7.0,0.0
1484,78.0,0,180,1.0,0.0
1485,74.0,0,180,1.0,0.0
1486,62.0,0,180,3.0,0.0
1487,50.0,0,180,11.0,0.0
1488,62.0,36,180,10.0,0.0
1489,74.0,0,180,4.0,0.0
1490,78.0,0,180,4.0,0.0
1491,74.0,60,40,0.0,0.0
1492,50.0,0,180,5.0,0.0
1493,50.0,0,180,2.0,0.0
1494,38.0,0,180,12.0,0.0
1495,66.0,0,180,3.0,0.0
1496,78.0,60,40,7.0,0.0
1497,78.0,0,40,0.0,0.0
1498,81.0,0,40,0.0,0.0
1499,81.0,24,40,7.0,0.0
1500,86.0,204,40,0.0,0.0
1501,86.0,0,40,7.0,0.0
1502,85.0,0,180,0.0,0.0
1503,57.0,0,180,3.0,0.0
1504,64.0,0,180,3.0,0.0
1505,45.0,0,180,12.0,0.0
1506,69.0,240,180,10.0,0.0
1507,57.0,0,180,2.0,0.0
1508,69.0,0,180,4.0,0.0
1509,76.0,0,180,4.0,0.0
1510,85.0,0,180,7.0,0.0
1511,76.0,0,180,1.0,0.0
1512,73.0,0,180,1.0,0.0
1513,57.0,0,180,11.0,0.0
1514,45.0,0,180,5.0,0.0
1515,62.0,0,180,10.0,0.0
1516,66.0,0,180,3.0,0.0
1517,50.0,0,180,5.0,0.0
1518,74.0,0,180,8.0,0.0
1519,78.0,0,180,8.0,0.0
1520,78.0,0,180,4.0,0.0
1521,74.0,0,180,1.0,0.0
1522,78.0,0,180,1.0,0.0
1523,74.0,0,180,4.0,0.0
1524,50.0,0,180,11.0,0.0
1525,62.0,0,180,3.0,0.0
1526,86.0,0,180,7.0,0.0
1527,50.0,0,180,2.0,0.0
1528,78.0,0,180,7.0,0.0
1529,86.0,0,180,0.0,0.0
1530,38.0,240,180,12.0,0.0
1531,85.0,240,180,7.0,0.0
1532,76.0,0,180,8.0,0.0
1533,73.0,0,180,8.0,0.0
1534,76.0,0,180,7.0,0.0
1535,69.0,0,180,10.0,0.0
1536,57.0,0,180,2.0,0.0
1537,76.0,0,180,4.0,0.0
1538,69.0,0,180,4.0,0.0
1539,45.0,0,180,5.0,0.0
1540,45.0,0,180,12.0,0.0
1541,57.0,0,180,11.0,0.0
1542,85.0,0,180,0.0,0.0
1543,73.0,0,180,1.0,0.0
1544,64.0,0,180,3.0,0.0
1545,76.0,0,180,1.0,0.0
1546,57.0,0,180,3.0,0.0
1547,50.0,144,180,11.0,0.0
1548,78.0,0,180,8.0,0.0
1549,74.0,0,180,1.0,0.0
1550,86.0,0,180,7.0,0.0
1551,78.0,0,180,7.0,0.0
1552,74.0,0,180,8.0,0.0
1553,78.0,0,180,1.0,0.0
1554,50.0,0,180,5.0,0.0
1555,66.0,0,180,3.0,0.0
1556,86.0,0,180,0.0,0.0
1557,74.0,0,180,4.0,0.0
1558,78.0,0,180,4.0,0.0
1559,38.0,0,180,12.0,0.0
1560,50.0,0,180,2.0,0.0
1561,62.0,0,180,10.0,0.0
1562,62.0,0,180,3.0,0.0
1563,73.0,0,180,8.0,0.0
1564,81.0,0,180,8.0,0.0
1565,73.0,0,180,1.0,0.0
1566,57.0,0,180,2.0,0.0
1567,76.0,0,180,1.0,0.0
1568,57.0,0,180,3.0,0.0
1569,64.0,0,180,3.0,0.0
1570,45.0,24,180,12.0,0.0
1571,85.0,0,180,0.0,0.0
1572,69.0,0,180,4.0,0.0
1573,85.0,0,180,7.0,0.0
1574,69.0,0,180,10.0,0.0
1575,57.0,96,90,11.0,0.0
1576,76.0,0,180,7.0,0.0
1577,45.0,0,180,5.0,0.0
1578,76.0,0,180,4.0,0.0
1579,57.0,120,90,11.0,0.0
1580,57.0,120,90,11.0,0.0
1581,57.0,120,90,11.0,0.0
1582,57.0,120,90,11.0,0.0
1583,57.0,72,90,11.0,0.0
1584,57.0,12,90,11.0,0.0
1585,69.0,48,40,7.0,0.0
1586,71.0,60,40,7.0,0.0
1587,69.0,48,40,7.0,0.0
1588,57.0,12,90,11.0,0.0
1589,71.0,108,40,7.0,0.0
1590,73.0,0,90,7.0,0.0
1591,57.0,120,90,11.0,0.0
1592,57.0,120,90,11.0,0.0
1593,73.0,24,180,7.0,0.0
1594,57.0,96,90,11.0,0.0
1595,57.0,120,90,11.0,0.0
1596,57.0,120,90,11.0,0.0
1597,76.0,0,90,7.0,0.0
1598,57.0,120,90,11.0,0.0
1599,57.0,96,90,11.0,0.0
1600,76.0,24,180,7.0,0.0
1601,57.0,120,90,11.0,0.0
1602,45.0,0,5940,3.0,0.0
1603,57.0,24,180,10.0,0.0
1604,73.0,0,180,7.0,0.0
1605,57.0,96,90,11.0,0.0
1606,33.0,0,180,12.0,0.0
1607,57.0,24,5940,3.0,0.0
1608,57.0,72,90,11.0,0.0
1609,76.0,0,180,1.0,0.0
1610,61.0,24,180,2.0,0.0
1611,57.0,12,90,11.0,0.0
1612,81.0,48,40,0.0,0.0
1613,64.0,0,180,2.0,0.0
1614,73.0,0,180,1.0,0.0
1615,80.0,60,40,0.0,0.0
1616,81.0,24,40,0.0,0.0
1617,57.0,12,90,11.0,0.0
1618,80.0,108,40,0.0,0.0
1619,61.0,0,180,2.0,0.0
1620,69.0,0,180,1.0,0.0
1621,57.0,0,180,2.0,0.0
1622,73.0,24,180,1.0,0.0
1623,81.0,0,180,0.0,0.0
1624,57.0,96,90,11.0,0.0
1625,57.0,72,90,11.0,0.0
1626,73.0,48,40,7.0,0.0
1627,57.0,12,90,11.0,0.0
1628,69.0,0,40,8.0,0.0
1629,74.0,0,40,7.0,0.0
1630,71.0,60,40,8.0,0.0
1631,69.0,0,40,8.0,0.0
1632,73.0,48,40,7.0,0.0
1633,57.0,12,90,11.0,0.0
1634,71.0,0,40,8.0,0.0
1635,74.0,108,40,7.0,0.0
1636,73.0,0,90,8.0,0.0
1637,76.0,0,90,7.0,0.0
1638,57.0,120,90,11.0,0.0
1639,57.0,120,90,11.0,0.0
1640,57.0,96,90,11.0,0.0
1641,73.0,0,180,8.0,0.0
1642,76.0,24,180,7.0,0.0
1643,57.0,120,90,11.0,0.0
1644,79.0,0,90,7.0,0.0
1645,57.0,0,90,11.0,0.0
1646,76.0,120,90,8.0,0.0
1647,57.0,120,90,11.0,0.0
1648,57.0,96,90,11.0,0.0
1649,79.0,0,180,7.0,0.0
1650,76.0,24,180,8.0,0.0
1651,57.0,120,90,11.0,0.0
1652,57.0,96,90,11.0,0.0
1653,76.0,0,180,7.0,0.0
1654,33.0,0,180,12.0,0.0
1655,73.0,24,180,8.0,0.0
1656,57.0,0,180,10.0,0.0
1657,57.0,72,90,11.0,0.0
1658,67.0,0,180,2.0,0.0
1659,64.0,24,180,2.0,0.0
1660,76.0,0,180,1.0,0.0
1661,57.0,12,90,11.0,0.0
1662,81.0,48,40,0.0,0.0
1663,79.0,0,180,1.0,0.0
1664,80.0,60,40,0.0,0.0
1665,81.0,24,40,0.0,0.0
1666,57.0,12,90,11.0,0.0
1667,80.0,108,40,0.0,0.0
1668,57.0,96,90,11.0,0.0
1669,61.0,0,180,2.0,0.0
1670,64.0,0,180,2.0,0.0
1671,81.0,0,180,0.0,0.0
1672,73.0,0,180,1.0,0.0
1673,76.0,24,180,1.0,0.0
1674,57.0,72,90,11.0,0.0
1675,76.0,0,40,7.0,0.0
1676,73.0,48,40,8.0,0.0
1677,57.0,12,90,11.0,0.0
1678,74.0,60,40,8.0,0.0
1679,78.0,0,40,7.0,0.0
1680,73.0,0,40,8.0,0.0
1681,57.0,12,90,11.0,0.0
1682,76.0,48,40,7.0,0.0
1683,78.0,0,40,7.0,0.0
1684,74.0,108,40,8.0,0.0
1685,57.0,0,90,11.0,0.0
1686,76.0,96,90,8.0,0.0
1687,33.0,24,180,12.0,0.0
1688,79.0,0,90,7.0,0.0
1689,57.0,0,180,10.0,0.0
1690,57.0,120,90,11.0,0.0
1691,79.0,24,180,7.0,0.0
1692,57.0,96,90,11.0,0.0
1693,76.0,0,180,8.0,0.0
1694,57.0,120,90,11.0,0.0
1695,83.0,120,90,7.0,0.0
1696,79.0,0,90,8.0,0.0
1697,57.0,0,90,11.0,0.0
1698,57.0,72,90,11.0,0.0
1699,83.0,0,180,7.0,0.0
1700,79.0,24,180,8.0,0.0
1701,57.0,12,90,11.0,0.0
1702,88.0,48,40,0.0,0.0
1703,87.0,60,40,0.0,0.0
1704,57.0,12,90,11.0,0.0
1705,88.0,24,40,0.0,0.0
1706,86.0,108,40,0.0,0.0
1707,76.0,96,90,7.0,0.0
1708,73.0,0,90,8.0,0.0
1709,57.0,0,90,11.0,0.0
1710,33.0,24,180,12.0,0.0
1711,85.0,0,570,0.0,0.0
1712,57.0,0,180,10.0,0.0
1713,57.0,72,90,11.0,0.0
1714,79.0,48,40,1.0,0.0
1715,76.0,0,40,1.0,0.0
1716,73.0,0,180,8.0,0.0
1717,76.0,24,180,7.0,0.0
1718,57.0,12,90,11.0,0.0
1719,75.0,60,40,1.0,0.0
1720,78.0,0,40,1.0,0.0
1721,76.0,24,40,1.0,0.0
1722,57.0,12,90,11.0,0.0
1723,79.0,0,40,1.0,0.0
1724,78.0,108,40,1.0,0.0
1725,74.0,0,40,1.0,0.0
1726,76.0,24,660,1.0,0.0
1727,79.0,120,90,7.0,0.0
1728,73.0,0,660,1.0,0.0
1729,57.0,0,90,11.0,0.0
1730,76.0,0,90,8.0,0.0
1731,57.0,72,90,11.0,0.0
1732,76.0,0,180,8.0,0.0
1733,83.0,48,40,0.0,0.0
1734,57.0,12,90,11.0,0.0
1735,79.0,24,180,7.0,0.0
1736,82.0,60,40,0.0,0.0
1737,83.0,24,40,0.0,0.0
1738,57.0,12,90,11.0,0.0
1739,81.0,108,40,0.0,0.0
1740,33.0,0,180,12.0,0.0
1741,64.0,0,90,8.0,0.0
1742,57.0,96,90,11.0,0.0
1743,73.0,0,90,7.0,0.0
1744,57.0,0,180,10.0,0.0
1745,79.0,0,570,0.0,0.0
1746,57.0,72,90,11.0,0.0
1747,64.0,24,180,8.0,0.0
1748,67.0,48,40,1.0,0.0
1749,71.0,0,40,1.0,0.0
1750,73.0,0,180,7.0,0.0
1751,57.0,12,90,11.0,0.0
1752,66.0,0,40,1.0,0.0
1753,69.0,60,40,1.0,0.0
1754,57.0,12,90,11.0,0.0
1755,71.0,0,40,1.0,0.0
1756,67.0,24,40,1.0,0.0
1757,66.0,108,40,1.0,0.0
1758,69.0,0,40,1.0,0.0
1759,64.0,0,660,1.0,0.0
1760,67.0,0,660,1.0,0.0
1761,57.0,0,90,11.0,0.0
1762,76.0,0,90,7.0,0.0
1763,67.0,120,90,8.0,0.0
1764,57.0,72,90,11.0,0.0
1765,76.0,48,40,0.0,0.0
1766,64.0,0,90,2.0,0.0
1767,61.0,0,90,2.0,0.0
1768,57.0,12,90,11.0,0.0
1769,76.0,24,180,7.0,0.0
1770,67.0,0,180,8.0,0.0
1771,75.0,60,40,0.0,0.0
1772,62.0,0,90,2.0,0.0
1773,76.0,24,40,0.0,0.0
1774,66.0,0,90,2.0,0.0
1775,57.0,12,90,11.0,0.0
1776,74.0,108,40,0.0,0.0
1777,64.0,0,90,2.0,0.0
1778,67.0,96,90,2.0,0.0
1779,61.0,0,780,10.0,0.0
1780,67.0,0,780,7.0,0.0
1781,33.0,48,780,12.0,0.0
1782,73.0,0,90,0.0,0.0
1783,64.0,0,780,8.0,0.0
1784,57.0,0,780,11.0,0.0
1785,66.0,120,90,2.0,0.0
1786,62.0,0,90,2.0,0.0
1787,74.0,0,90,0.0,0.0
1788,76.0,0,90,0.0,0.0
1789,61.0,0,90,2.0,0.0
1790,64.0,120,90,2.0,0.0
1791,62.0,0,90,2.0,0.0
1792,59.0,0,90,2.0,0.0
1793,78.0,120,90,0.0,0.0
1794,57.0,0,90,2.0,0.0
1795,79.0,120,90,0.0,0.0
1796,61.0,0,90,2.0,0.0
1797,55.0,0,90,2.0,0.0
1798,59.0,0,90,2.0,0.0
1799,81.0,72,90,0.0,0.0
1800,57.0,0,90,2.0,0.0
1801,83.0,120,90,0.0,0.0
1802,54.0,0,90,2.0,0.0
1803,52.0,0,90,2.0,0.0
1804,55.0,0,90,2.0,0.0
1805,85.0,120,90,0.0,0.0
1806,50.0,0,180,2.0,0.0
1807,86.0,0,180,0.0,0.0
1808,62.0,0,390,3.0,0.0
1809,54.0,0,390,3.0,0.0
1810,66.0,96,90,7.0,0.0
1811,50.0,0,180,11.0,0.0
1812,74.0,48,390,1.0,0.0
1813,54.0,0,180,2.0,0.0
1814,62.0,0,90,8.0,0.0
1815,38.0,24,180,12.0,0.0
1816,62.0,0,180,10.0,0.0
1817,69.0,0,390,1.0,0.0
1818,62.0,120,90,7.0,0.0
1819,57.0,0,90,8.0,0.0
1820,50.0,24,180,11.0,0.0
1821,38.0,0,180,12.0,0.0
1822,62.0,48,90,8.0,0.0
1823,66.0,0,90,7.0,0.0
1824,57.0,48,390,10.0,0.0
1825,69.0,120,90,7.0,0.0
1826,66.0,0,90,8.0,0.0
1827,62.0,48,90,8.0,0.0
1828,38.0,0,180,12.0,0.0
1829,50.0,24,180,11.0,0.0
1830,66.0,0,90,7.0,0.0
1831,62.0,0,390,3.0,0.0
1832,66.0,0,390,3.0,0.0
1833,78.0,0,390,1.0,0.0
1834,74.0,48,390,1.0,0.0
1835,62.0,0,90,7.0,0.0
1836,57.0,120,90,8.0,0.0
1837,38.0,24,180,12.0,0.0
1838,50.0,0,180,11.0,0.0
1839,62.0,0,90,8.0,0.0
1840,66.0,48,90,7.0,0.0
1841,57.0,0,420,10.0,0.0
1842,66.0,120,90,8.0,0.0
1843,69.0,0,90,7.0,0.0
1844,69.0,0,300,3.0,0.0
1845,38.0,0,180,12.0,0.0
1846,66.0,0,90,7.0,0.0
1847,50.0,24,180,11.0,0.0
1848,81.0,48,300,1.0,0.0
1849,78.0,0,300,1.0,0.0
1850,62.0,96,90,8.0,0.0
1851,66.0,0,300,3.0,0.0
1852,62.0,72,90,7.0,0.0
1853,57.0,0,90,8.0,0.0
1854,62.0,96,90,8.0,0.0
1855,57.0,48,390,10.0,0.0
1856,66.0,0,90,7.0,0.0
1857,38.0,0,180,12.0,0.0
1858,50.0,24,180,11.0,0.0
1859,74.0,0,90,1.0,0.0
1860,69.0,120,90,7.0,0.0
1861,66.0,0,90,8.0,0.0
1862,62.0,0,90,3.0,0.0
1863,78.0,0,90,1.0,0.0
1864,66.0,0,90,3.0,0.0
1865,66.0,0,90,7.0,0.0
1866,38.0,0,180,12.0,0.0
1867,50.0,0,180,11.0,0.0
1868,54.0,0,180,3.0,0.0
1869,62.0,24,180,3.0,0.0
1870,62.0,48,90,8.0,0.0
1871,69.0,0,180,1.0,0.0
1872,74.0,0,180,1.0,0.0
1873,62.0,0,90,7.0,0.0
1874,57.0,120,90,8.0,0.0
1875,62.0,0,90,8.0,0.0
1876,69.0,0,180,1.0,0.0
1877,74.0,0,180,1.0,0.0
1878,66.0,96,90,7.0,0.0
1879,62.0,0,180,3.0,0.0
1880,54.0,0,180,3.0,0.0
1881,50.0,0,180,11.0,0.0
1882,38.0,0,180,12.0,0.0
1883,57.0,24,180,10.0,0.0
1884,69.0,48,90,7.0,0.0
1885,66.0,0,90,8.0,0.0
1886,76.0,30,20,7.0,0.0
1887,76.0,0,20,0.0,0.0
1888,69.0,12,180,10.0,0.0
1889,57.0,48,780,11.0,0.0
1890,45.0,0,780,12.0,0.0
1891,63.0,96,90,8.0,0.0
1892,78.0,0,20,0.0,0.0
1893,78.0,42,20,7.0,0.0
1894,79.0,12,150,0.0,0.0
1895,79.0,0,150,7.0,0.0
1896,64.0,120,90,8.0,0.0
1897,69.0,72,390,10.0,0.0
1898,78.0,0,90,7.0,0.0
1899,78.0,120,90,0.0,0.0
1900,66.0,0,90,8.0,0.0
1901,67.0,0,90,8.0,0.0
1902,76.0,120,90,0.0,0.0
1903,76.0,0,90,7.0,0.0
1904,66.0,0,90,8.0,0.0
1905,75.0,48,90,7.0,0.0
1906,75.0,0,90,0.0,0.0
1907,67.0,0,90,8.0,0.0
1908,76.0,0,90,0.0,0.0
1909,76.0,72,90,7.0,0.0
1910,66.0,0,90,8.0,0.0
1911,75.0,0,90,7.0,0.0
1912,75.0,120,90,0.0,0.0
1913,69.0,12,420,10.0,0.0
1914,76.0,0,90,7.0,0.0
1915,76.0,48,90,0.0,0.0
1916,67.0,0,90,8.0,0.0
1917,63.0,96,90,8.0,0.0
1918,33.0,0,780,12.0,0.0
1919,76.0,0,20,7.0,0.0
1920,76.0,30,20,0.0,0.0
1921,45.0,48,780,11.0,0.0
1922,78.0,42,20,0.0,0.0
1923,78.0,0,20,7.0,0.0
1924,79.0,12,150,0.0,0.0
1925,79.0,0,150,7.0,0.0
1926,64.0,120,90,8.0,0.0
1927,78.0,0,90,0.0,0.0
1928,78.0,120,90,7.0,0.0
1929,69.0,72,390,10.0,0.0
1930,66.0,0,90,8.0,0.0
1931,76.0,120,90,0.0,0.0
1932,76.0,0,90,7.0,0.0
1933,67.0,0,90,8.0,0.0
1934,76.0,48,90,7.0,0.0
1935,67.0,0,90,8.0,0.0
1936,76.0,0,90,0.0,0.0
1937,66.0,72,90,8.0,0.0
1938,74.0,0,90,0.0,0.0
1939,74.0,0,90,7.0,0.0
1940,69.0,24,180,10.0,0.0
1941,74.0,0,90,0.0,0.0
1942,66.0,0,90,8.0,0.0
1943,74.0,96,90,7.0,0.0
1944,73.0,0,90,0.0,0.0
1945,64.0,120,90,8.0,0.0
1946,73.0,0,90,7.0,0.0
1947,66.0,96,90,8.0,0.0
1948,74.0,0,90,7.0,0.0
1949,38.0,0,180,12.0,0.0
1950,74.0,0,390,1.0,0.0
1951,69.0,0,390,1.0,0.0
1952,57.0,0,180,10.0,0.0
1953,50.0,24,180,11.0,0.0
1954,54.0,0,390,3.0,0.0
1955,62.0,48,390,3.0,0.0
1956,62.0,0,90,7.0,0.0
1957,57.0,120,90,8.0,0.0
1958,57.0,48,390,10.0,0.0
1959,38.0,0,180,12.0,0.0
1960,66.0,48,90,7.0,0.0
1961,62.0,0,90,8.0,0.0
1962,50.0,24,180,11.0,0.0
1963,66.0,120,90,8.0,0.0
1964,69.0,0,90,7.0,0.0
1965,74.0,0,390,1.0,0.0
1966,66.0,48,90,7.0,0.0
1967,66.0,48,390,3.0,0.0
1968,38.0,24,180,12.0,0.0
1969,62.0,0,390,3.0,0.0
1970,50.0,0,180,11.0,0.0
1971,62.0,0,90,8.0,0.0
1972,78.0,0,390,1.0,0.0
1973,57.0,0,90,8.0,0.0
1974,62.0,120,90,7.0,0.0
1975,50.0,0,180,11.0,0.0
1976,57.0,0,420,10.0,0.0
1977,66.0,0,90,7.0,0.0
1978,38.0,24,180,12.0,0.0
1979,62.0,48,90,8.0,0.0
1980,69.0,0,90,7.0,0.0
1981,66.0,120,90,8.0,0.0
1982,66.0,48,300,3.0,0.0
1983,69.0,0,300,3.0,0.0
1984,62.0,96,90,8.0,0.0
1985,81.0,0,300,1.0,0.0
1986,78.0,0,300,1.0,0.0
1987,38.0,0,180,12.0,0.0
1988,66.0,0,90,7.0,0.0
1989,50.0,24,180,11.0,0.0
1990,62.0,72,90,7.0,0.0
1991,57.0,0,90,8.0,0.0
1992,57.0,48,390,10.0,0.0
1993,62.0,96,90,8.0,0.0
1994,38.0,24,180,12.0,0.0
1995,50.0,0,180,11.0,0.0
1996,66.0,0,90,7.0,0.0
1997,66.0,0,90,3.0,0.0
1998,74.0,0,90,1.0,0.0
1999,78.0,0,90,1.0,0.0
2000,62.0,120,90,3.0,0.0
2001,69.0,0,90,7.0,0.0
2002,66.0,0,90,8.0,0.0
2003,74.0,0,180,1.0,0.0
2004,66.0,48,90,7.0,0.0
2005,62.0,0,180,3.0,0.0
2006,54.0,0,180,3.0,0.0
2007,69.0,0,180,1.0,0.0
2008,62.0,0,90,8.0,0.0
2009,38.0,24,180,12.0,0.0
2010,50.0,0,180,11.0,0.0
2011,62.0,120,90,7.0,0.0
2012,57.0,0,90,8.0,0.0
2013,57.0,0,180,10.0,0.0
2014,38.0,0,180,12.0,0.0
2015,62.0,96,90,8.0,0.0
2016,62.0,0,180,3.0,0.0
2017,74.0,24,180,1.0,0.0
2018,50.0,0,180,11.0,0.0
2019,54.0,0,180,3.0,0.0
2020,66.0,0,90,7.0,0.0
2021,69.0,0,180,1.0,0.0
2022,69.0,48,90,7.0,0.0
2023,66.0,0,90,8.0,0.0
2024,76.0,30,20,0.0,0.0
2025,57.0,48,780,11.0,0.0
2026,45.0,0,780,12.0,0.0
2027,76.0,0,20,7.0,0.0
2028,63.0,96,90,8.0,0.0
2029,69.0,12,180,10.0,0.0
2030,78.0,42,20,0.0,0.0
2031,78.0,0,20,7.0,0.0
2032,79.0,0,150,0.0,0.0
2033,79.0,12,150,7.0,0.0
2034,64.0,120,90,8.0,0.0
2035,78.0,0,90,7.0,0.0
2036,69.0,72,390,10.0,0.0
2037,66.0,0,90,8.0,0.0
2038,78.0,120,90,0.0,0.0
2039,76.0,120,90,0.0,0.0
2040,67.0,0,90,8.0,0.0
2041,76.0,0,90,7.0,0.0
2042,75.0,48,90,7.0,0.0
2043,75.0,0,90,0.0,0.0
2044,66.0,0,90,8.0,0.0
2045,67.0,0,90,8.0,0.0
2046,76.0,0,90,0.0,0.0
2047,76.0,72,90,7.0,0.0
2048,66.0,0,90,8.0,0.0
2049,69.0,12,420,10.0,0.0
2050,75.0,0,90,7.0,0.0
2051,75.0,120,90,0.0,0.0
2052,76.0,0,90,0.0,0.0
2053,67.0,48,90,8.0,0.0
2054,76.0,0,90,7.0,0.0
2055,76.0,0,20,0.0,0.0
2056,63.0,96,90,8.0,0.0
2057,76.0,30,20,7.0,0.0
2058,45.0,0,780,11.0,0.0
2059,33.0,48,780,12.0,0.0
2060,78.0,42,20,0.0,0.0
2061,78.0,0,20,7.0,0.0
2062,79.0,0,150,7.0,0.0
2063,79.0,12,150,0.0,0.0
2064,64.0,120,90,8.0,0.0
2065,78.0,0,90,7.0,0.0
2066,66.0,0,90,8.0,0.0
2067,78.0,120,90,0.0,0.0
2068,69.0,72,390,10.0,0.0
2069,67.0,0,90,8.0,0.0
2070,76.0,120,90,7.0,0.0
2071,76.0,0,90,0.0,0.0
2072,76.0,0,90,0.0,0.0
2073,67.0,48,90,8.0,0.0
2074,76.0,0,90,7.0,0.0
2075,74.0,72,90,0.0,0.0
2076,74.0,0,90,7.0,0.0
2077,66.0,0,90,8.0,0.0
2078,74.0,0,90,0.0,0.0
2079,66.0,0,90,8.0,0.0
2080,69.0,24,180,10.0,0.0
2081,74.0,96,90,7.0,0.0
2082,73.0,0,90,7.0,0.0
2083,64.0,0,90,8.0,0.0
2084,73.0,120,90,0.0,0.0
2085,74.0,96,90,7.0,0.0
2086,50.0,0,180,2.0,0.0
2087,66.0,0,180,8.0,0.0
2088,69.0,0,180,10.0,0.0
2089,38.0,0,180,12.0,0.0
2090,50.0,0,180,11.0,0.0
2091,74.0,120,180,0.0,0.0
2092,74.0,120,180,7.0,0.0
2093,67.0,120,180,10.0,0.0
2094,40.0,0,180,12.0,0.0
2095,52.0,0,180,11.0,0.0
2096,52.0,0,180,2.0,0.0
2097,74.0,120,180,7.0,0.0
2098,69.0,0,180,10.0,0.0
2099,42.0,120,180,12.0,0.0
2100,54.0,0,180,11.0,0.0
2101,54.0,0,180,2.0,0.0
2102,74.0,120,180,7.0,0.0
2103,55.0,0,180,2.0,0.0
2104,55.0,0,180,11.0,0.0
2105,43.0,0,180,12.0,0.0
2106,71.0,144,180,10.0,0.0
2107,74.0,0,210,7.0,0.0
2108,64.0,48,390,10.0,0.0
2109,45.0,0,180,12.0,0.0
2110,57.0,96,90,8.0,0.0
2111,57.0,0,180,2.0,0.0
2112,57.0,120,180,11.0,0.0
2113,69.0,72,180,8.0,0.0
2114,73.0,0,180,7.0,0.0
2115,55.0,0,180,2.0,0.0
2116,43.0,120,180,12.0,0.0
2117,55.0,0,180,11.0,0.0
2118,69.0,0,180,8.0,0.0
2119,72.0,120,180,7.0,0.0
2120,54.0,0,180,2.0,0.0
2121,42.0,0,180,12.0,0.0
2122,54.0,120,180,11.0,0.0
2123,62.0,0,180,10.0,0.0
2124,69.0,0,180,8.0,0.0
2125,72.0,120,180,7.0,0.0
2126,63.0,0,180,10.0,0.0
2127,53.0,0,180,11.0,0.0
2128,41.0,144,180,12.0,0.0
2129,53.0,0,180,2.0,0.0
2130,69.0,96,210,8.0,0.0
2131,72.0,0,210,7.0,0.0
2132,64.0,24,780,10.0,0.0
2133,52.0,120,180,2.0,0.0
2134,40.0,0,180,12.0,0.0
2135,52.0,0,180,11.0,0.0
2136,67.0,0,180,8.0,0.0
2137,71.0,120,180,7.0,0.0
2138,50.0,0,180,11.0,0.0
2139,50.0,120,180,2.0,0.0
2140,38.0,0,180,12.0,0.0
2141,68.0,0,180,8.0,0.0
2142,76.0,120,180,7.0,0.0
2143,49.0,0,180,2.0,0.0
2144,49.0,96,180,11.0,0.0
2145,37.0,0,180,12.0,0.0
2146,76.0,120,180,7.0,0.0
2147,69.0,0,180,8.0,0.0
2148,36.0,0,180,12.0,0.0
2149,48.0,0,180,2.0,0.0
2150,48.0,144,180,11.0,0.0
2151,69.0,0,210,8.0,0.0
2152,76.0,96,210,7.0,0.0
2153,47.0,120,180,2.0,0.0
2154,66.0,48,390,10.0,0.0
2155,47.0,0,180,11.0,0.0
2156,35.0,0,180,12.0,0.0
2157,71.0,0,180,8.0,0.0
2158,75.0,72,180,7.0,0.0
2159,45.0,0,180,12.0,0.0
2160,57.0,0,180,2.0,0.0
2161,57.0,120,180,11.0,0.0
2162,74.0,0,180,7.0,0.0
2163,71.0,120,180,8.0,0.0
2164,44.0,0,180,12.0,0.0
2165,56.0,0,180,11.0,0.0
2166,56.0,0,180,2.0,0.0
2167,64.0,120,180,10.0,0.0
2168,71.0,120,180,8.0,0.0
2169,74.0,0,180,7.0,0.0
2170,65.0,0,180,10.0,0.0
2171,55.0,0,180,2.0,0.0
2172,43.0,0,180,12.0,0.0
2173,55.0,144,180,11.0,0.0
2174,71.0,96,210,8.0,0.0
2175,74.0,0,210,7.0,0.0
2176,54.0,0,180,2.0,0.0
2177,54.0,120,180,11.0,0.0
2178,42.0,0,180,12.0,0.0
2179,66.0,24,780,10.0,0.0
2180,73.0,120,180,7.0,0.0
2181,69.0,0,180,8.0,0.0
2182,52.0,0,180,11.0,0.0
2183,40.0,120,180,12.0,0.0
2184,52.0,0,180,2.0,0.0
2185,70.0,0,180,8.0,0.0
2186,78.0,120,180,7.0,0.0
2187,51.0,0,180,11.0,0.0
2188,51.0,0,180,2.0,0.0
2189,39.0,96,180,12.0,0.0
2190,71.0,120,180,8.0,0.0
2191,78.0,0,180,7.0,0.0
2192,50.0,144,180,11.0,0.0
2193,38.0,0,180,12.0,0.0
2194,50.0,0,180,2.0,0.0
2195,72.0,0,210,8.0,0.0
2196,78.0,96,210,7.0,0.0
2197,68.0,0,180,10.0,0.0
2198,49.0,0,180,11.0,0.0
2199,37.0,0,180,12.0,0.0
2200,49.0,120,180,2.0,0.0
2201,73.0,0,180,8.0,0.0
2202,77.0,120,180,7.0,0.0
2203,61.0,48,390,10.0,0.0
2204,59.0,0,180,2.0,0.0
2205,59.0,120,180,11.0,0.0
2206,47.0,0,180,12.0,0.0
2207,76.0,72,180,7.0,0.0
2208,67.0,0,180,8.0,0.0
2209,58.0,0,180,2.0,0.0
2210,46.0,24,180,12.0,0.0
2211,58.0,0,180,11.0,0.0
2212,76.0,24,180,7.0,0.0
2213,66.0,96,90,8.0,0.0
2214,66.0,0,420,10.0,0.0
2215,54.0,0,180,11.0,0.0
2216,54.0,0,180,2.0,0.0
2217,42.0,144,180,12.0,0.0
2218,70.0,96,90,8.0,0.0
2219,73.0,0,210,8.0,0.0
2220,76.0,96,210,7.0,0.0
2221,35.0,0,180,12.0,0.0
2222,47.0,0,180,11.0,0.0
2223,47.0,120,180,2.0,0.0
2224,75.0,0,180,7.0,0.0
2225,71.0,120,180,8.0,0.0
2226,45.0,120,180,12.0,0.0
2227,57.0,0,180,2.0,0.0
2228,59.0,48,390,10.0,0.0
2229,57.0,0,180,11.0,0.0
2230,74.0,72,180,7.0,0.0
2231,65.0,0,180,8.0,0.0
2232,56.0,0,180,11.0,0.0
2233,56.0,24,180,2.0,0.0
2234,44.0,0,180,12.0,0.0
2235,74.0,24,180,7.0,0.0
2236,64.0,96,90,8.0,0.0
2237,52.0,0,180,2.0,0.0
2238,68.0,96,90,8.0,0.0
2239,64.0,120,420,10.0,0.0
2240,52.0,0,180,11.0,0.0
2241,40.0,144,180,12.0,0.0
2242,71.0,96,210,8.0,0.0
2243,74.0,0,210,7.0,0.0
2244,45.0,0,180,11.0,0.0
2245,33.0,0,180,12.0,0.0
2246,45.0,0,180,2.0,0.0
2247,73.0,120,180,7.0,0.0
2248,69.0,0,180,8.0,0.0
2249,43.0,0,180,12.0,0.0
2250,55.0,120,180,2.0,0.0
2251,57.0,48,390,10.0,0.0
2252,55.0,0,180,11.0,0.0
2253,72.0,0,180,7.0,0.0
2254,63.0,72,180,8.0,0.0
2255,54.0,0,180,2.0,0.0
2256,54.0,24,180,11.0,0.0
2257,42.0,0,180,12.0,0.0
2258,72.0,24,180,7.0,0.0
2259,62.0,96,90,8.0,0.0
2260,38.0,0,180,12.0,0.0
2261,62.0,120,420,10.0,0.0
2262,66.0,96,90,8.0,0.0
2263,50.0,0,180,11.0,0.0
2264,50.0,144,180,2.0,0.0
2265,72.0,0,210,7.0,0.0
2266,69.0,96,210,8.0,0.0
2267,55.0,0,180,11.0,0.0
2268,55.0,0,180,2.0,0.0
2269,43.0,0,180,12.0,0.0
2270,67.0,0,180,8.0,0.0
2271,71.0,120,180,7.0,0.0
2272,71.0,0,180,10.0,0.0
2273,43.0,0,180,12.0,0.0
2274,55.0,120,180,11.0,0.0
2275,55.0,0,180,2.0,0.0
2276,67.0,0,180,8.0,0.0
2277,76.0,120,180,7.0,0.0
2278,57.0,0,180,11.0,0.0
2279,45.0,0,180,12.0,0.0
2280,69.0,0,180,10.0,0.0
2281,57.0,120,180,2.0,0.0
2282,66.0,120,180,8.0,0.0
2283,74.0,0,180,7.0,0.0
2284,33.0,0,180,12.0,0.0
2285,45.0,0,180,11.0,0.0
2286,69.0,24,180,10.0,0.0
2287,45.0,0,180,2.0,0.0
2288,73.0,216,90,7.0,0.0
2289,64.0,0,90,8.0,0.0
2290,50.0,0,180,11.0,0.0
2291,50.0,24,180,2.0,0.0
2292,38.0,0,180,12.0,0.0
2293,66.0,0,180,10.0,0.0
2294,74.0,120,90,7.0,0.0
2295,74.0,0,90,0.0,0.0
2296,62.0,0,90,1.0,0.0
2297,62.0,0,90,8.0,0.0
2298,86.0,0,90,0.0,0.0
2299,74.0,0,90,8.0,0.0
2300,74.0,120,90,1.0,0.0
2301,86.0,0,90,7.0,0.0
2302,74.0,120,90,8.0,0.0
2303,86.0,0,90,7.0,0.0
2304,86.0,0,90,0.0,0.0
2305,74.0,0,90,1.0,0.0
2306,74.0,0,90,8.0,0.0
2307,74.0,0,90,1.0,0.0
2308,86.0,120,90,7.0,0.0
2309,86.0,0,90,0.0,0.0
2310,74.0,0,90,1.0,0.0
2311,74.0,0,90,8.0,0.0
2312,86.0,120,90,7.0,0.0
2313,86.0,0,90,0.0,0.0
2314,74.0,120,90,1.0,0.0
2315,86.0,0,90,0.0,0.0
2316,74.0,0,90,8.0,0.0
2317,86.0,0,90,7.0,0.0
2318,74.0,0,90,1.0,0.0
2319,74.0,0,90,8.0,0.0
2320,86.0,216,90,0.0,0.0
2321,86.0,0,90,7.0,0.0
2322,57.0,0,390,3.0,0.0
2323,85.0,0,390,7.0,0.0
2324,64.0,72,390,3.0,0.0
2325,85.0,0,390,0.0,0.0
2326,45.0,24,180,5.0,0.0
2327,69.0,0,390,4.0,0.0
2328,73.0,0,390,1.0,0.0
2329,73.0,0,390,8.0,0.0
2330,45.0,0,90,2.0,0.0
2331,57.0,120,90,10.0,0.0
2332,33.0,0,90,12.0,0.0
2333,45.0,0,90,11.0,0.0
2334,57.0,0,90,11.0,0.0
2335,45.0,0,90,12.0,0.0
2336,57.0,0,90,2.0,0.0
2337,69.0,48,90,10.0,0.0
2338,45.0,0,90,12.0,0.0
2339,57.0,0,90,11.0,0.0
2340,57.0,0,90,2.0,0.0
2341,69.0,120,90,10.0,0.0
2342,72.0,48,390,1.0,0.0
2343,57.0,0,180,3.0,0.0
2344,84.0,0,390,7.0,0.0
2345,64.0,24,180,3.0,0.0
2346,57.0,0,90,2.0,0.0
2347,72.0,0,390,8.0,0.0
2348,84.0,0,390,0.0,0.0
2349,45.0,0,90,12.0,0.0
2350,69.0,0,90,10.0,0.0
2351,57.0,96,90,11.0,0.0
2352,57.0,120,90,11.0,0.0
2353,57.0,0,90,2.0,0.0
2354,45.0,0,90,12.0,0.0
2355,69.0,0,90,10.0,0.0
2356,45.0,0,90,12.0,0.0
2357,57.0,0,90,2.0,0.0
2358,64.0,0,180,3.0,0.0
2359,57.0,48,90,11.0,0.0
2360,69.0,0,90,10.0,0.0
2361,57.0,24,180,3.0,0.0
2362,45.0,0,90,12.0,0.0
2363,69.0,120,90,10.0,0.0
2364,57.0,0,90,2.0,0.0
2365,57.0,0,90,11.0,0.0
2366,71.0,96,90,8.0,0.0
2367,56.0,0,390,2.0,0.0
2368,83.0,0,90,0.0,0.0
2369,64.0,24,180,3.0,0.0
2370,76.0,0,390,4.0,0.0
2371,68.0,0,390,10.0,0.0
2372,44.0,72,390,12.0,0.0
2373,56.0,0,390,11.0,0.0
2374,83.0,0,90,7.0,0.0
2375,71.0,0,90,1.0,0.0
2376,64.0,0,90,1.0,0.0
2377,64.0,0,90,8.0,0.0
2378,76.0,0,90,0.0,0.0
2379,76.0,120,90,7.0,0.0
2380,76.0,0,90,1.0,0.0
2381,88.0,0,90,0.0,0.0
2382,88.0,0,90,7.0,0.0
2383,76.0,48,90,8.0,0.0
2384,88.0,0,90,7.0,0.0
2385,88.0,0,90,0.0,0.0
2386,76.0,120,90,8.0,0.0
2387,76.0,0,90,1.0,0.0
2388,67.0,0,390,10.0,0.0
2389,88.0,0,90,7.0,0.0
2390,55.0,0,390,2.0,0.0
2391,76.0,0,90,1.0,0.0
2392,43.0,72,390,12.0,0.0
2393,76.0,120,90,8.0,0.0
2394,88.0,0,90,0.0,0.0
2395,55.0,0,390,11.0,0.0
2396,76.0,0,90,1.0,0.0
2397,88.0,0,90,0.0,0.0
2398,76.0,120,90,8.0,0.0
2399,88.0,0,90,7.0,0.0
2400,88.0,0,90,7.0,0.0
2401,76.0,0,90,1.0,0.0
2402,88.0,0,90,0.0,0.0
2403,76.0,48,90,8.0,0.0
2404,76.0,0,90,8.0,0.0
2405,88.0,0,90,0.0,0.0
2406,88.0,120,90,7.0,0.0
2407,76.0,0,90,1.0,0.0
2408,75.0,0,390,8.0,0.0
2409,66.0,0,390,3.0,0.0
2410,54.0,0,390,3.0,0.0
2411,54.0,120,90,11.0,0.0
2412,78.0,0,390,4.0,0.0
2413,66.0,0,390,4.0,0.0
2414,87.0,72,390,0.0,0.0
2415,87.0,0,390,7.0,0.0
2416,54.0,0,90,2.0,0.0
2417,75.0,0,390,1.0,0.0
2418,42.0,0,90,12.0,0.0
2419,66.0,0,90,10.0,0.0
2420,59.0,0,90,10.0,0.0
2421,47.0,0,90,11.0,0.0
2422,47.0,120,90,2.0,0.0
2423,35.0,0,90,12.0,0.0
2424,47.0,48,90,12.0,0.0
2425,71.0,0,90,10.0,0.0
2426,59.0,0,90,2.0,0.0
2427,59.0,0,90,11.0,0.0
2428,59.0,0,90,2.0,0.0
2429,71.0,0,90,10.0,0.0
2430,59.0,0,90,11.0,0.0
2431,47.0,120,90,12.0,0.0
2432,71.0,96,90,10.0,0.0
2433,86.0,48,390,7.0,0.0
2434,66.0,24,180,3.0,0.0
2435,86.0,0,390,0.0,0.0
2436,47.0,0,90,12.0,0.0
2437,74.0,0,390,1.0,0.0
2438,74.0,0,390,8.0,0.0
2439,59.0,0,90,11.0,0.0
2440,59.0,0,90,2.0,0.0
2441,54.0,0,180,3.0,0.0
2442,59.0,0,90,11.0,0.0
2443,71.0,0,90,10.0,0.0
2444,47.0,0,90,12.0,0.0
2445,59.0,120,90,2.0,0.0
2446,47.0,0,90,12.0,0.0
2447,71.0,0,90,10.0,0.0
2448,54.0,0,180,3.0,0.0
2449,59.0,0,90,2.0,0.0
2450,59.0,48,90,11.0,0.0
2451,66.0,24,180,3.0,0.0
2452,59.0,0,90,2.0,0.0
2453,71.0,0,90,10.0,0.0
2454,59.0,120,90,11.0,0.0
2455,47.0,0,90,12.0,0.0
2456,73.0,0,90,1.0,0.0
2457,85.0,0,90,7.0,0.0
2458,73.0,0,90,8.0,0.0
2459,70.0,72,390,10.0,0.0
2460,46.0,0,390,12.0,0.0
2461,58.0,0,390,11.0,0.0
2462,78.0,0,390,4.0,0.0
2463,85.0,120,90,0.0,0.0
2464,66.0,0,390,4.0,0.0
2465,58.0,0,390,2.0,0.0
2466,66.0,0,780,3.0,0.0
2467,54.0,48,780,3.0,0.0
2468,66.0,0,90,1.0,0.0
2469,66.0,120,90,7.0,0.0
2470,66.0,0,90,8.0,0.0
2471,66.0,0,90,0.0,0.0
2472,78.0,0,90,8.0,0.0
2473,78.0,0,90,1.0,0.0
2474,78.0,0,90,0.0,0.0
2475,78.0,48,90,7.0,0.0
2476,78.0,120,90,1.0,0.0
2477,78.0,0,90,8.0,0.0
2478,78.0,0,90,7.0,0.0
2479,78.0,0,90,0.0,0.0
2480,69.0,0,390,10.0,0.0
2481,78.0,0,90,1.0,0.0
2482,78.0,0,90,8.0,0.0
2483,78.0,120,90,0.0,0.0
2484,57.0,0,390,11.0,0.0
2485,78.0,0,90,7.0,0.0
2486,45.0,72,390,12.0,0.0
2487,57.0,0,390,2.0,0.0
2488,78.0,0,90,7.0,0.0
2489,78.0,72,90,1.0,0.0
2490,78.0,0,90,0.0,0.0
2491,78.0,0,90,8.0,0.0
2492,78.0,0,90,8.0,0.0
2493,78.0,0,90,7.0,0.0
2494,78.0,48,90,0.0,0.0
2495,78.0,0,90,1.0,0.0
2496,78.0,0,90,1.0,0.0
2497,78.0,0,90,7.0,0.0
2498,78.0,0,90,8.0,0.0
2499,78.0,216,90,0.0,0.0
2500,76.0,0,180,8.0,0.0
2501,73.0,0,180,8.0,0.0
2502,69.0,0,180,4.0,0.0
2503,76.0,0,180,4.0,0.0
2504,45.0,0,180,5.0,0.0
2505,69.0,24,180,7.0,0.0
2506,79.0,0,180,7.0,0.0
2507,45.0,0,90,11.0,0.0
2508,33.0,0,90,12.0,0.0
2509,45.0,0,90,2.0,0.0
2510,64.0,0,90,3.0,0.0
2511,57.0,0,90,3.0,0.0
2512,57.0,0,90,10.0,0.0
2513,76.0,0,90,1.0,0.0
2514,85.0,120,90,0.0,0.0
2515,79.0,0,90,1.0,0.0
2516,57.0,0,90,2.0,0.0
2517,57.0,0,90,3.0,0.0
2518,79.0,0,90,1.0,0.0
2519,76.0,0,90,1.0,0.0
2520,64.0,0,90,3.0,0.0
2521,85.0,0,90,0.0,0.0
2522,57.0,0,90,11.0,0.0
2523,45.0,0,90,12.0,0.0
2524,69.0,120,90,10.0,0.0
2525,64.0,0,90,3.0,0.0
2526,57.0,0,90,3.0,0.0
2527,85.0,120,90,0.0,0.0
2528,79.0,0,90,1.0,0.0
2529,69.0,0,90,10.0,0.0
2530,57.0,0,90,11.0,0.0
2531,45.0,0,90,12.0,0.0
2532,57.0,0,90,2.0,0.0
2533,76.0,0,90,1.0,0.0
2534,45.0,120,90,12.0,0.0
2535,76.0,0,90,1.0,0.0
2536,79.0,0,90,1.0,0.0
2537,57.0,0,90,11.0,0.0
2538,85.0,0,90,0.0,0.0
2539,57.0,0,90,2.0,0.0
2540,57.0,0,90,3.0,0.0
2541,64.0,0,90,3.0,0.0
2542,69.0,0,90,10.0,0.0
2543,69.0,0,90,10.0,0.0
2544,57.0,0,90,2.0,0.0
2545,57.0,0,90,11.0,0.0
2546,79.0,0,90,1.0,0.0
2547,76.0,0,90,1.0,0.0
2548,85.0,0,90,0.0,0.0
2549,64.0,120,90,3.0,0.0
2550,57.0,0,90,3.0,0.0
2551,45.0,0,90,12.0,0.0
2552,79.0,120,90,1.0,0.0
2553,85.0,0,90,0.0,0.0
2554,57.0,0,90,11.0,0.0
2555,45.0,0,90,12.0,0.0
2556,57.0,0,90,2.0,0.0
2557,76.0,0,90,1.0,0.0
2558,69.0,0,90,10.0,0.0
2559,57.0,0,90,3.0,0.0
2560,64.0,0,90,3.0,0.0
2561,57.0,0,90,2.0,0.0
2562,69.0,0,90,10.0,0.0
2563,79.0,0,90,1.0,0.0
2564,76.0,0,90,1.0,0.0
2565,57.0,0,90,11.0,0.0
2566,85.0,216,90,0.0,0.0
2567,64.0,0,90,3.0,0.0
2568,57.0,0,90,3.0,0.0
2569,45.0,0,90,12.0,0.0
2570,74.0,0,180,8.0,0.0
2571,62.0,24,180,7.0,0.0
2572,62.0,0,180,8.0,0.0
2573,74.0,0,180,7.0,0.0
2574,74.0,0,180,4.0,0.0
2575,66.0,0,180,4.0,0.0
2576,78.0,0,180,7.0,0.0
2577,50.0,0,180,5.0,0.0
2578,47.0,0,90,2.0,0.0
2579,35.0,0,90,12.0,0.0
2580,59.0,0,90,10.0,0.0
2581,74.0,0,90,1.0,0.0
2582,78.0,0,90,1.0,0.0
2583,47.0,120,90,11.0,0.0
2584,62.0,0,90,3.0,0.0
2585,66.0,0,90,3.0,0.0
2586,86.0,0,90,0.0,0.0
2587,59.0,0,90,11.0,0.0
2588,47.0,0,90,12.0,0.0
2589,74.0,0,90,1.0,0.0
2590,78.0,0,90,1.0,0.0
2591,71.0,0,90,10.0,0.0
2592,86.0,0,90,0.0,0.0
2593,59.0,120,90,2.0,0.0
2594,62.0,0,90,3.0,0.0
2595,66.0,0,90,3.0,0.0
2596,78.0,0,90,1.0,0.0
2597,71.0,0,90,10.0,0.0
2598,47.0,0,90,12.0,0.0
2599,62.0,0,90,3.0,0.0
2600,66.0,0,90,3.0,0.0
2601,59.0,0,90,2.0,0.0
2602,74.0,0,90,1.0,0.0
2603,59.0,120,90,11.0,0.0
2604,86.0,0,90,0.0,0.0
2605,59.0,0,90,11.0,0.0
2606,59.0,0,90,2.0,0.0
2607,78.0,120,90,1.0,0.0
2608,74.0,0,90,1.0,0.0
2609,86.0,0,90,0.0,0.0
2610,47.0,0,90,12.0,0.0
2611,62.0,0,90,3.0,0.0
2612,71.0,0,90,10.0,0.0
2613,66.0,0,90,3.0,0.0
2614,86.0,0,90,0.0,0.0
2615,71.0,0,90,10.0,0.0
2616,59.0,0,90,2.0,0.0
2617,47.0,120,90,12.0,0.0
2618,62.0,0,90,3.0,0.0
2619,66.0,0,90,3.0,0.0
2620,59.0,0,90,11.0,0.0
2621,78.0,0,90,1.0,0.0
2622,74.0,0,90,1.0,0.0
2623,62.0,0,90,3.0,0.0
2624,74.0,0,90,1.0,0.0
2625,47.0,0,90,12.0,0.0
2626,78.0,0,90,1.0,0.0
2627,71.0,120,90,10.0,0.0
2628,66.0,0,90,3.0,0.0
2629,59.0,0,90,11.0,0.0
2630,59.0,0,90,2.0,0.0
2631,86.0,0,90,0.0,0.0
2632,66.0,0,90,3.0,0.0
2633,62.0,0,90,3.0,0.0
2634,86.0,216,90,0.0,0.0
2635,78.0,0,90,1.0,0.0
2636,47.0,0,90,12.0,0.0
2637,59.0,0,90,11.0,0.0
2638,59.0,0,90,2.0,0.0
2639,71.0,0,90,10.0,0.0
2640,74.0,0,90,1.0,0.0
2641,74.0,24,180,7.0,0.0
2642,67.0,0,180,8.0,0.0
2643,74.0,0,180,8.0,0.0
2644,83.0,0,180,8.0,0.0
2645,83.0,0,180,7.0,0.0
2646,67.0,0,180,7.0,0.0
2647,50.0,0,180,5.0,0.0
2648,62.0,0,180,4.0,0.0
2649,74.0,0,180,4.0,0.0
2650,67.0,0,90,10.0,0.0
2651,64.0,0,90,3.0,0.0
2652,62.0,0,90,3.0,0.0
2653,55.0,0,90,11.0,0.0
2654,71.0,120,90,1.0,0.0
2655,55.0,0,90,2.0,0.0
2656,76.0,0,90,1.0,0.0
2657,83.0,0,90,0.0,0.0
2658,43.0,0,90,12.0,0.0
2659,76.0,0,90,1.0,0.0
2660,71.0,0,90,1.0,0.0
2661,64.0,0,90,3.0,0.0
2662,55.0,0,90,2.0,0.0
2663,55.0,0,90,11.0,0.0
2664,67.0,0,90,10.0,0.0
2665,62.0,120,90,3.0,0.0
2666,83.0,0,90,0.0,0.0
2667,43.0,0,90,12.0,0.0
2668,67.0,216,90,10.0,0.0
2669,55.0,0,90,2.0,0.0
2670,55.0,0,90,11.0,0.0
2671,76.0,0,90,1.0,0.0
2672,71.0,0,90,1.0,0.0
2673,43.0,0,90,12.0,0.0
2674,83.0,0,90,0.0,0.0
2675,62.0,0,90,3.0,0.0
2676,64.0,0,90,3.0,0.0
2677,73.0,0,180,8.0,0.0
2678,45.0,0,180,5.0,0.0
2679,69.0,0,180,4.0,0.0
2680,57.0,0,180,7.0,0.0
2681,64.0,24,180,7.0,0.0
2682,57.0,0,180,8.0,0.0
2683,64.0,0,180,8.0,0.0
2684,73.0,0,180,7.0,0.0
2685,57.0,120,90,3.0,0.0
2686,64.0,0,90,3.0,0.0
2687,73.0,0,90,1.0,0.0
2688,67.0,0,90,1.0,0.0
2689,57.0,0,90,11.0,0.0
2690,45.0,0,90,12.0,0.0
2691,57.0,0,90,2.0,0.0
2692,85.0,0,90,0.0,0.0
2693,69.0,0,90,10.0,0.0
2694,45.0,0,90,12.0,0.0
2695,57.0,0,90,2.0,0.0
2696,69.0,0,90,10.0,0.0
2697,73.0,0,90,1.0,0.0
2698,57.0,0,90,3.0,0.0
2699,57.0,0,90,11.0,0.0
2700,67.0,120,90,1.0,0.0
2701,85.0,0,90,0.0,0.0
2702,64.0,0,90,3.0,0.0
2703,73.0,0,90,1.0,0.0
2704,67.0,0,90,1.0,0.0
2705,57.0,0,90,3.0,0.0
2706,69.0,0,90,10.0,0.0
2707,64.0,216,90,3.0,0.0
2708,57.0,0,90,2.0,0.0
2709,85.0,0,90,0.0,0.0
2710,57.0,0,90,11.0,0.0
2711,45.0,0,90,12.0,0.0
2712,62.0,192,180,10.0,0.0
2713,50.0,0,180,5.0,0.0
2714,50.0,0,180,11.0,0.0
2715,66.0,0,180,4.0,0.0
2716,57.0,0,180,8.0,0.0
2717,74.0,0,180,4.0,0.0
2718,74.0,0,180,1.0,0.0
2719,62.0,0,180,7.0,0.0
2720,66.0,0,180,1.0,0.0
2721,38.0,0,180,12.0,0.0
2722,62.0,0,180,3.0,0.0
2723,50.0,0,180,2.0,0.0
2724,74.0,0,180,7.0,0.0
2725,74.0,0,180,8.0,0.0
2726,86.0,0,180,0.0,0.0
2727,54.0,0,180,3.0,0.0
2728,66.0,0,180,8.0,0.0
2729,50.0,0,150,3.0,0.0
2730,80.0,0,150,1.0,0.0
2731,50.0,0,150,5.0,0.0
2732,80.0,0,150,8.0,0.0
2733,59.0,0,150,11.0,0.0
2734,62.0,0,150,3.0,0.0
2735,59.0,0,150,2.0,0.0
2736,80.0,0,150,7.0,0.0
2737,71.0,84,150,10.0,0.0
2738,74.0,0,150,4.0,0.0
2739,62.0,0,150,4.0,0.0
2740,47.0,0,150,12.0,0.0
2741,80.0,0,150,0.0,0.0
2742,80.0,0,40,8.0,0.0
2743,62.0,0,40,4.0,0.0
2744,50.0,0,40,5.0,0.0
2745,71.0,0,40,10.0,0.0
2746,74.0,0,40,4.0,0.0
2747,80.0,0,40,1.0,0.0
2748,59.0,0,40,11.0,0.0
2749,50.0,0,40,3.0,0.0
2750,47.0,0,40,12.0,0.0
2751,59.0,0,40,2.0,0.0
2752,80.0,0,40,0.0,0.0
2753,62.0,0,40,3.0,0.0
2754,80.0,204,40,7.0,0.0
2755,59.0,0,180,11.0,0.0
2756,71.0,0,180,10.0,0.0
2757,50.0,0,180,3.0,0.0
2758,80.0,0,180,1.0,0.0
2759,62.0,0,180,3.0,0.0
2760,47.0,0,180,12.0,0.0
2761,62.0,0,180,4.0,0.0
2762,80.0,0,180,8.0,0.0
2763,80.0,0,180,7.0,0.0
2764,59.0,0,180,2.0,0.0
2765,50.0,0,180,5.0,0.0
2766,74.0,240,180,4.0,0.0
2767,80.0,0,180,0.0,0.0
2768,71.0,0,180,10.0,0.0
2769,62.0,0,180,4.0,0.0
2770,74.0,0,180,4.0,0.0
2771,80.0,0,180,0.0,0.0
2772,59.0,0,180,2.0,0.0
2773,80.0,0,180,8.0,0.0
2774,50.0,240,180,3.0,0.0
2775,62.0,0,180,3.0,0.0
2776,47.0,0,180,12.0,0.0
2777,80.0,0,180,7.0,0.0
2778,50.0,0,180,5.0,0.0
2779,59.0,0,180,11.0,0.0
2780,80.0,0,180,1.0,0.0
2781,50.0,0,390,3.0,0.0
2782,59.0,0,390,11.0,0.0
2783,50.0,192,180,5.0,0.0
2784,80.0,0,390,7.0,0.0
2785,80.0,0,390,8.0,0.0
2786,47.0,0,390,12.0,0.0
2787,74.0,0,390,4.0,0.0
2788,62.0,120,390,3.0,0.0
2789,62.0,0,390,4.0,0.0
2790,59.0,0,390,2.0,0.0
2791,80.0,0,390,1.0,0.0
2792,80.0,0,390,0.0,0.0
2793,71.0,0,390,10.0,0.0
2794,74.0,24,390,4.0,0.0
2795,62.0,0,390,4.0,0.0
2796,50.0,0,390,3.0,0.0
2797,62.0,0,390,3.0,0.0
2798,83.0,30,20,8.0,0.0
2799,57.0,0,390,11.0,0.0
2800,45.0,0,390,12.0,0.0
2801,50.0,12,180,5.0,0.0
2802,83.0,0,20,1.0,0.0
2803,69.0,0,390,10.0,0.0
2804,83.0,0,20,7.0,0.0
2805,83.0,0,20,0.0,0.0
2806,57.0,0,390,2.0,0.0
2807,81.0,0,20,8.0,0.0
2808,81.0,0,20,7.0,0.0
2809,81.0,0,20,1.0,0.0
2810,81.0,30,20,0.0,0.0
2811,83.0,0,20,0.0,0.0
2812,83.0,0,20,8.0,0.0
2813,83.0,30,20,1.0,0.0
2814,83.0,0,20,7.0,0.0
2815,81.0,0,20,1.0,0.0
2816,81.0,0,20,0.0,0.0
2817,81.0,0,20,7.0,0.0
2818,81.0,30,20,8.0,0.0
2819,83.0,0,20,8.0,0.0
2820,83.0,30,20,1.0,0.0
2821,83.0,0,20,0.0,0.0
2822,83.0,0,20,7.0,0.0
2823,81.0,0,20,7.0,0.0
2824,81.0,0,20,1.0,0.0
2825,81.0,18,20,0.0,0.0
2826,81.0,0,20,8.0,0.0
2827,83.0,0,20,0.0,0.0
2828,83.0,30,20,8.0,0.0
2829,83.0,0,20,7.0,0.0
2830,83.0,0,20,1.0,0.0
2831,81.0,0,20,8.0,0.0
2832,81.0,0,20,7.0,0.0
2833,81.0,0,20,1.0,0.0
2834,81.0,30,20,0.0,0.0
2835,83.0,0,20,1.0,0.0
2836,83.0,0,20,8.0,0.0
2837,83.0,0,20,7.0,0.0
2838,83.0,30,20,0.0,0.0
2839,81.0,0,20,8.0,0.0
2840,81.0,0,20,7.0,0.0
2841,81.0,0,20,1.0,0.0
2842,81.0,30,20,0.0,0.0
2843,83.0,30,20,8.0,0.0
2844,83.0,0,20,7.0,0.0
2845,83.0,0,20,1.0,0.0
2846,83.0,0,20,0.0,0.0
2847,81.0,30,20,8.0,0.0
2848,81.0,0,20,0.0,0.0
2849,81.0,0,20,7.0,0.0
2850,81.0,0,20,1.0,0.0
2851,80.0,0,40,7.0,0.0
2852,80.0,0,40,1.0,0.0
2853,80.0,0,40,0.0,0.0
2854,80.0,60,40,8.0,0.0
2855,81.0,0,40,1.0,0.0
2856,81.0,0,40,0.0,0.0
2857,81.0,0,40,7.0,0.0
2858,81.0,204,40,8.0,0.0
2859,56.0,0,180,2.0,0.0
2860,50.0,0,180,3.0,0.0
2861,62.0,0,180,3.0,0.0
2862,44.0,0,180,12.0,0.0
2863,56.0,0,180,11.0,0.0
2864,83.0,0,180,0.0,0.0
2865,50.0,0,180,5.0,0.0
2866,62.0,0,180,4.0,0.0
2867,74.0,0,180,4.0,0.0
2868,83.0,0,180,8.0,0.0
2869,68.0,0,180,10.0,0.0
2870,83.0,0,180,7.0,0.0
2871,83.0,864,180,1.0,0.0
2872,74.0,96,570,7.0,0.0
2873,57.0,24,180,10.0,0.0
2874,66.0,96,90,8.0,0.0
2875,69.0,120,90,8.0,0.0
2876,57.0,24,180,10.0,0.0
2877,66.0,96,90,8.0,0.0
2878,69.0,120,90,8.0,0.0
2879,66.0,0,90,8.0,0.0
2880,57.0,24,180,10.0,0.0
2881,69.0,120,90,8.0,0.0
2882,67.0,0,90,8.0,0.0
2883,78.0,96,90,7.0,0.0
2884,57.0,24,180,10.0,0.0
2885,76.0,216,90,7.0,0.0
2886,69.0,0,90,8.0,0.0
2887,74.0,240,180,7.0,0.0
2888,66.0,0,180,8.0,0.0
2889,62.0,0,180,10.0,0.0
2890,77.0,0,180,1.0,0.0
2891,59.0,0,180,2.0,0.0
2892,47.0,0,180,2.0,0.0
2893,62.0,240,180,3.0,0.0
2894,74.0,0,180,1.0,0.0
2895,80.0,0,180,0.0,0.0
2896,50.0,0,180,3.0,0.0
2897,74.0,0,180,1.0,0.0
2898,59.0,0,180,2.0,0.0
2899,47.0,0,180,2.0,0.0
2900,80.0,0,180,0.0,0.0
2901,62.0,0,180,3.0,0.0
2902,50.0,240,180,3.0,0.0
2903,77.0,0,180,1.0,0.0
2904,59.0,0,180,2.0,0.0
2905,62.0,0,180,3.0,0.0
2906,74.0,0,180,1.0,0.0
2907,80.0,0,180,0.0,0.0
2908,77.0,0,180,1.0,0.0
2909,47.0,0,180,2.0,0.0
2910,50.0,432,180,3.0,0.0
2911,77.0,6,780,1.0,0.0
2912,74.0,0,780,1.0,0.0
2913,50.0,0,1140,3.0,0.0
2914,62.0,0,1140,3.0,0.0
2915,47.0,120,390,2.0,0.0
2916,59.0,0,390,2.0,0.0
2917,80.0,0,390,0.0,0.0
2918,45.0,24,390,2.0,0.0
2919,57.0,0,390,2.0,0.0
2920,83.0,30,20,0.0,0.0
2921,81.0,30,20,0.0,0.0
2922,83.0,30,20,0.0,0.0
2923,81.0,30,20,0.0,0.0
2924,83.0,30,20,0.0,0.0
2925,81.0,30,20,0.0,0.0
2926,83.0,30,20,0.0,0.0
2927,81.0,30,20,0.0,0.0
2928,83.0,24,20,0.0,0.0
2929,81.0,30,20,0.0,0.0
2930,83.0,30,20,0.0,0.0
2931,81.0,30,20,0.0,0.0
2932,80.0,60,40,0.0,0.0
2933,81.0,204,40,0.0,0.0
2934,44.0,0,180,2.0,0.0
2935,56.0,0,180,2.0,0.0
2936,76.0,0,180,1.0,0.0
2937,83.0,0,180,0.0,0.0
2938,74.0,864,180,1.0,0.0
2939,57.0,24,180,10.0,0.0
2940,66.0,96,90,8.0,0.0
2941,74.0,96,570,7.0,0.0
2942,69.0,120,90,8.0,0.0
2943,57.0,24,180,10.0,0.0
2944,66.0,96,90,8.0,0.0
2945,69.0,120,90,8.0,0.0
2946,57.0,24,180,10.0,0.0
2947,66.0,0,90,8.0,0.0
2948,69.0,120,90,8.0,0.0
2949,57.0,24,180,10.0,0.0
2950,78.0,0,90,7.0,0.0
2951,67.0,96,90,8.0,0.0
2952,69.0,0,90,8.0,0.0
2953,76.0,72,90,7.0,0.0
2954,50.0,0,390,3.0,0.0
2955,74.0,24,390,1.0,0.0
2956,50.0,0,90,11.0,0.0
2957,74.0,24,180,7.0,0.0
2958,66.0,48,40,8.0,0.0
2959,62.0,0,1350,10.0,0.0
2960,62.0,0,390,3.0,0.0
2961,86.0,0,4020,0.0,0.0
2962,38.0,0,90,12.0,0.0
2963,50.0,12,90,2.0,0.0
2964,69.0,60,40,8.0,0.0
2965,66.0,24,40,8.0,0.0
2966,50.0,0,90,2.0,0.0
2967,50.0,12,90,11.0,0.0
2968,38.0,0,90,12.0,0.0
2969,69.0,60,40,8.0,0.0
2970,50.0,0,90,11.0,0.0
2971,50.0,0,90,2.0,0.0
2972,66.0,48,40,8.0,0.0
2973,38.0,12,90,12.0,0.0
2974,69.0,36,40,8.0,0.0
2975,50.0,0,90,11.0,0.0
2976,50.0,0,90,2.0,0.0
2977,69.0,48,40,7.0,0.0
2978,38.0,12,90,12.0,0.0
2979,66.0,0,40,8.0,0.0
2980,74.0,60,40,7.0,0.0
2981,69.0,0,40,8.0,0.0
2982,66.0,48,40,8.0,0.0
2983,78.0,24,390,1.0,0.0
2984,38.0,12,90,12.0,0.0
2985,66.0,0,390,3.0,0.0
2986,54.0,0,390,3.0,0.0
2987,50.0,0,90,2.0,0.0
2988,50.0,0,90,11.0,0.0
2989,78.0,24,180,7.0,0.0
2990,69.0,60,40,8.0,0.0
2991,66.0,24,40,8.0,0.0
2992,50.0,0,90,11.0,0.0
2993,38.0,0,90,12.0,0.0
2994,50.0,12,90,2.0,0.0
2995,69.0,60,40,8.0,0.0
2996,66.0,48,40,8.0,0.0
2997,38.0,0,90,12.0,0.0
2998,50.0,0,90,2.0,0.0
2999,50.0,12,90,11.0,0.0
3000,69.0,36,40,8.0,0.0
3001,38.0,12,90,12.0,0.0
3002,50.0,0,90,2.0,0.0
3003,50.0,0,90,11.0,0.0
3004,74.0,0,40,7.0,0.0
3005,66.0,48,40,8.0,0.0
3006,78.0,0,40,7.0,0.0
3007,69.0,60,40,8.0,0.0
3008,81.0,24,180,7.0,0.0
3009,50.0,0,90,2.0,0.0
3010,57.0,0,390,3.0,0.0
3011,69.0,24,390,3.0,0.0
3012,66.0,48,40,8.0,0.0
3013,50.0,12,90,11.0,0.0
3014,81.0,0,390,1.0,0.0
3015,38.0,0,90,12.0,0.0
3016,69.0,60,40,8.0,0.0
3017,38.0,0,90,12.0,0.0
3018,66.0,24,40,8.0,0.0
3019,50.0,12,90,2.0,0.0
3020,50.0,0,90,11.0,0.0
3021,69.0,60,40,8.0,0.0
3022,50.0,12,90,11.0,0.0
3023,38.0,0,90,12.0,0.0
3024,66.0,48,40,8.0,0.0
3025,50.0,0,90,2.0,0.0
3026,69.0,36,40,8.0,0.0
3027,50.0,0,90,2.0,0.0
3028,38.0,0,90,12.0,0.0
3029,78.0,0,40,7.0,0.0
3030,50.0,12,90,11.0,0.0
3031,66.0,48,40,8.0,0.0
3032,74.0,0,40,7.0,0.0
3033,69.0,60,40,8.0,0.0
3034,61.0,24,180,10.0,0.0
3035,38.0,0,90,12.0,0.0
3036,69.0,0,390,1.0,0.0
3037,67.0,48,40,8.0,0.0
3038,50.0,12,90,11.0,0.0
3039,76.0,0,180,7.0,0.0
3040,45.0,0,390,3.0,0.0
3041,57.0,24,390,3.0,0.0
3042,50.0,0,90,2.0,0.0
3043,69.0,60,40,8.0,0.0
3044,50.0,12,90,11.0,0.0
3045,67.0,24,40,8.0,0.0
3046,38.0,0,90,12.0,0.0
3047,50.0,0,90,2.0,0.0
3048,69.0,60,40,8.0,0.0
3049,50.0,12,90,2.0,0.0
3050,67.0,48,40,8.0,0.0
3051,38.0,0,90,12.0,0.0
3052,64.0,24,180,10.0,0.0
3053,50.0,0,90,11.0,0.0
3054,69.0,36,40,8.0,0.0
3055,38.0,0,90,12.0,0.0
3056,50.0,0,90,2.0,0.0
3057,67.0,24,40,8.0,0.0
3058,73.0,0,40,7.0,0.0
3059,50.0,12,90,11.0,0.0
3060,69.0,60,40,8.0,0.0
3061,69.0,0,40,7.0,0.0
3062,74.0,24,390,1.0,0.0
3063,74.0,0,90,7.0,0.0
3064,50.0,0,90,2.0,0.0
3065,66.0,48,40,8.0,0.0
3066,50.0,12,90,11.0,0.0
3067,62.0,24,1350,10.0,0.0
3068,38.0,0,90,12.0,0.0
3069,62.0,0,390,3.0,0.0
3070,50.0,0,390,3.0,0.0
3071,69.0,60,40,8.0,0.0
3072,66.0,48,40,8.0,0.0
3073,38.0,0,90,12.0,0.0
3074,74.0,0,90,7.0,0.0
3075,50.0,0,90,2.0,0.0
3076,50.0,12,90,11.0,0.0
3077,69.0,60,40,8.0,0.0
3078,66.0,48,40,8.0,0.0
3079,50.0,12,90,2.0,0.0
3080,38.0,0,90,12.0,0.0
3081,50.0,0,90,11.0,0.0
3082,69.0,36,40,8.0,0.0
3083,50.0,0,90,11.0,0.0
3084,66.0,48,40,8.0,0.0
3085,50.0,0,90,2.0,0.0
3086,69.0,0,40,7.0,0.0
3087,38.0,12,90,12.0,0.0
3088,69.0,0,40,8.0,0.0
3089,74.0,60,40,7.0,0.0
3090,50.0,0,90,11.0,0.0
3091,50.0,0,90,2.0,0.0
3092,38.0,0,90,12.0,0.0
3093,66.0,48,40,8.0,0.0
3094,78.0,12,90,7.0,0.0
3095,66.0,24,390,3.0,0.0
3096,54.0,0,390,3.0,0.0
3097,78.0,0,390,1.0,0.0
3098,69.0,60,40,8.0,0.0
3099,66.0,48,40,8.0,0.0
3100,50.0,0,90,2.0,0.0
3101,38.0,0,90,12.0,0.0
3102,50.0,12,90,11.0,0.0
3103,78.0,0,90,7.0,0.0
3104,69.0,60,40,8.0,0.0
3105,50.0,0,90,2.0,0.0
3106,50.0,12,90,11.0,0.0
3107,38.0,0,90,12.0,0.0
3108,66.0,48,40,8.0,0.0
3109,69.0,36,40,8.0,0.0
3110,50.0,0,90,2.0,0.0
3111,50.0,0,90,11.0,0.0
3112,66.0,48,40,8.0,0.0
3113,38.0,12,90,12.0,0.0
3114,74.0,0,40,7.0,0.0
3115,78.0,0,40,7.0,0.0
3116,69.0,60,40,8.0,0.0
3117,50.0,12,90,11.0,0.0
3118,81.0,0,390,1.0,0.0
3119,50.0,0,90,2.0,0.0
3120,38.0,0,90,12.0,0.0
3121,81.0,0,90,7.0,0.0
3122,69.0,0,390,3.0,0.0
3123,57.0,0,390,3.0,0.0
3124,66.0,48,40,8.0,0.0
3125,69.0,60,40,8.0,0.0
3126,38.0,0,90,12.0,0.0
3127,50.0,0,90,11.0,0.0
3128,50.0,0,90,2.0,0.0
3129,66.0,48,40,8.0,0.0
3130,81.0,12,90,7.0,0.0
3131,69.0,60,40,8.0,0.0
3132,50.0,12,90,2.0,0.0
3133,38.0,0,90,12.0,0.0
3134,50.0,0,90,11.0,0.0
3135,66.0,48,40,8.0,0.0
3136,69.0,36,40,8.0,0.0
3137,50.0,0,90,2.0,0.0
3138,66.0,48,40,8.0,0.0
3139,50.0,12,90,11.0,0.0
3140,38.0,0,90,12.0,0.0
3141,78.0,0,40,7.0,0.0
3142,74.0,60,40,7.0,0.0
3143,69.0,0,40,8.0,0.0
3144,69.0,0,390,1.0,0.0
3145,61.0,24,180,10.0,0.0
3146,45.0,0,390,3.0,0.0
3147,76.0,0,90,7.0,0.0
3148,67.0,48,40,8.0,0.0
3149,38.0,12,90,12.0,0.0
3150,57.0,24,390,3.0,0.0
3151,50.0,0,90,2.0,0.0
3152,50.0,0,90,11.0,0.0
3153,69.0,60,40,8.0,0.0
3154,50.0,0,90,2.0,0.0
3155,76.0,0,90,7.0,0.0
3156,38.0,12,90,12.0,0.0
3157,50.0,0,90,11.0,0.0
3158,67.0,24,40,8.0,0.0
3159,69.0,60,40,8.0,0.0
3160,38.0,12,90,12.0,0.0
3161,67.0,48,40,8.0,0.0
3162,50.0,0,90,2.0,0.0
3163,64.0,24,180,10.0,0.0
3164,50.0,0,90,11.0,0.0
3165,69.0,36,40,8.0,0.0
3166,50.0,12,90,11.0,0.0
3167,76.0,0,40,7.0,0.0
3168,38.0,0,90,12.0,0.0
3169,50.0,0,90,2.0,0.0
3170,67.0,24,40,8.0,0.0
3171,73.0,204,40,7.0,0.0
3172,69.0,0,40,8.0,0.0
3173,50.0,0,180,2.0,0.0
3174,50.0,0,180,3.0,0.0
3175,38.0,0,180,12.0,0.0
3176,74.0,0,180,7.0,0.0
3177,62.0,0,180,3.0,0.0
3178,62.0,192,180,10.0,0.0
3179,50.0,0,180,11.0,0.0
3180,66.0,0,180,8.0,0.0
3181,74.0,0,180,1.0,0.0
3182,69.0,84,150,1.0,0.0
3183,57.0,0,150,3.0,0.0
3184,81.0,0,150,8.0,0.0
3185,69.0,0,150,8.0,0.0
3186,45.0,0,150,5.0,0.0
3187,69.0,0,150,4.0,0.0
3188,81.0,0,150,0.0,0.0
3189,45.0,0,150,12.0,0.0
3190,69.0,0,150,10.0,0.0
3191,69.0,0,150,7.0,0.0
3192,81.0,0,150,7.0,0.0
3193,57.0,0,150,2.0,0.0
3194,57.0,0,150,11.0,0.0
3195,81.0,0,40,7.0,0.0
3196,45.0,0,40,5.0,0.0
3197,81.0,0,40,0.0,0.0
3198,69.0,0,40,1.0,0.0
3199,69.0,0,40,8.0,0.0
3200,81.0,0,40,8.0,0.0
3201,69.0,0,40,10.0,0.0
3202,57.0,0,40,2.0,0.0
3203,45.0,0,40,12.0,0.0
3204,69.0,0,40,7.0,0.0
3205,57.0,0,40,3.0,0.0
3206,57.0,0,40,11.0,0.0
3207,69.0,204,40,4.0,0.0
3208,81.0,0,300,7.0,0.0
3209,69.0,120,300,7.0,0.0
3210,69.0,0,300,10.0,0.0
3211,57.0,0,300,11.0,0.0
3212,57.0,96,180,3.0,0.0
3213,81.0,0,300,8.0,0.0
3214,45.0,0,300,12.0,0.0
3215,69.0,0,180,4.0,0.0
3216,81.0,0,300,0.0,0.0
3217,45.0,0,180,5.0,0.0
3218,69.0,0,300,1.0,0.0
3219,69.0,0,300,8.0,0.0
3220,57.0,0,300,2.0,0.0
3221,83.0,0,40,8.0,0.0
3222,59.0,60,40,11.0,0.0
3223,47.0,0,40,12.0,0.0
3224,71.0,0,40,10.0,0.0
3225,71.0,0,40,1.0,0.0
3226,83.0,0,40,0.0,0.0
3227,59.0,0,40,2.0,0.0
3228,83.0,0,40,7.0,0.0
3229,49.0,204,40,12.0,0.0
3230,61.0,0,40,11.0,0.0
3231,61.0,0,40,2.0,0.0
3232,73.0,0,40,10.0,0.0
3233,85.0,0,40,0.0,0.0
3234,85.0,0,40,8.0,0.0
3235,73.0,0,40,1.0,0.0
3236,85.0,0,40,7.0,0.0
3237,86.0,0,180,7.0,0.0
3238,86.0,192,180,0.0,0.0
3239,62.0,0,180,2.0,0.0
3240,86.0,0,180,8.0,0.0
3241,62.0,0,180,11.0,0.0
3242,62.0,0,180,3.0,0.0
3243,50.0,0,180,12.0,0.0
3244,74.0,0,180,1.0,0.0
3245,74.0,0,180,10.0,0.0
3246,81.0,84,150,7.0,0.0
3247,69.0,0,150,8.0,0.0
3248,81.0,0,150,8.0,0.0
3249,45.0,0,150,12.0,0.0
3250,69.0,0,150,7.0,0.0
3251,69.0,0,150,4.0,0.0
3252,69.0,0,150,10.0,0.0
3253,57.0,0,150,11.0,0.0
3254,81.0,0,150,0.0,0.0
3255,69.0,0,150,1.0,0.0
3256,57.0,0,150,3.0,0.0
3257,45.0,0,150,5.0,0.0
3258,57.0,0,150,2.0,0.0
3259,69.0,0,40,7.0,0.0
3260,81.0,0,40,8.0,0.0
3261,81.0,0,40,7.0,0.0
3262,69.0,0,40,8.0,0.0
3263,81.0,0,40,0.0,0.0
3264,57.0,0,40,11.0,0.0
3265,69.0,0,40,10.0,0.0
3266,57.0,0,40,3.0,0.0
3267,69.0,0,40,4.0,0.0
3268,45.0,0,40,5.0,0.0
3269,45.0,0,40,12.0,0.0
3270,57.0,0,40,2.0,0.0
3271,69.0,204,40,1.0,0.0
3272,81.0,0,300,8.0,0.0
3273,81.0,0,300,0.0,0.0
3274,81.0,0,300,7.0,0.0
3275,69.0,0,300,1.0,0.0
3276,69.0,0,300,7.0,0.0
3277,69.0,0,300,8.0,0.0
3278,45.0,0,300,12.0,0.0
3279,57.0,0,180,3.0,0.0
3280,69.0,0,300,10.0,0.0
3281,45.0,0,180,5.0,0.0
3282,57.0,120,300,11.0,0.0
3283,57.0,0,300,2.0,0.0
3284,69.0,96,180,4.0,0.0
3285,59.0,60,40,11.0,0.0
3286,47.0,0,40,12.0,0.0
3287,71.0,0,40,10.0,0.0
3288,83.0,0,40,0.0,0.0
3289,83.0,0,40,8.0,0.0
3290,71.0,0,40,1.0,0.0
3291,59.0,0,40,2.0,0.0
3292,83.0,0,40,7.0,0.0
3293,85.0,0,40,7.0,0.0
3294,49.0,0,40,12.0,0.0
3295,73.0,204,40,10.0,0.0
3296,85.0,0,40,8.0,0.0
3297,85.0,0,40,0.0,0.0
3298,61.0,0,40,11.0,0.0
3299,61.0,0,40,2.0,0.0
3300,73.0,0,40,1.0,0.0
3301,66.0,0,180,3.0,0.0
3302,78.0,0,180,4.0,0.0
3303,86.0,0,180,8.0,0.0
3304,74.0,0,180,1.0,0.0
3305,50.0,0,180,12.0,0.0
3306,86.0,192,180,0.0,0.0
3307,50.0,0,180,5.0,0.0
3308,62.0,0,180,11.0,0.0
3309,74.0,0,180,4.0,0.0
3310,62.0,0,180,2.0,0.0
3311,62.0,0,180,3.0,0.0
3312,74.0,0,180,10.0,0.0
3313,86.0,0,180,7.0,0.0
3314,74.0,48,150,8.0,0.0
3315,78.0,4,180,4.0,0.0
3316,74.0,0,180,4.0,0.0
3317,38.0,0,150,12.0,0.0
3318,50.0,0,150,11.0,0.0
3319,74.0,0,150,1.0,0.0
3320,62.0,0,150,10.0,0.0
3321,66.0,0,150,3.0,0.0
3322,50.0,0,150,2.0,0.0
3323,74.0,0,150,0.0,0.0
3324,62.0,0,150,3.0,0.0
3325,50.0,0,180,5.0,0.0
3326,74.0,0,150,7.0,0.0
3327,52.0,20,15,2.0,0.0
3328,76.0,0,15,7.0,0.0
3329,64.0,0,15,10.0,0.0
3330,76.0,0,15,8.0,0.0
3331,66.0,8,40,3.0,0.0
3332,52.0,0,15,11.0,0.0
3333,76.0,0,15,1.0,0.0
3334,76.0,0,15,0.0,0.0
3335,62.0,0,40,3.0,0.0
3336,40.0,0,15,12.0,0.0
3337,54.0,0,15,11.0,0.0
3338,54.0,0,15,2.0,0.0
3339,66.0,0,15,10.0,0.0
3340,78.0,12,15,8.0,0.0
3341,78.0,0,15,7.0,0.0
3342,78.0,0,15,0.0,0.0
3343,42.0,0,15,12.0,0.0
3344,78.0,0,15,1.0,0.0
3345,79.0,0,15,7.0,0.0
3346,43.0,0,15,12.0,0.0
3347,55.0,0,15,11.0,0.0
3348,55.0,0,15,2.0,0.0
3349,79.0,0,15,8.0,0.0
3350,79.0,0,15,0.0,0.0
3351,79.0,0,15,1.0,0.0
3352,67.0,196,15,10.0,0.0
3353,57.0,0,180,2.0,0.0
3354,45.0,0,180,5.0,0.0
3355,76.0,0,180,4.0,0.0
3356,69.0,0,180,4.0,0.0
3357,81.0,0,180,1.0,0.0
3358,81.0,0,180,7.0,0.0
3359,45.0,0,180,12.0,0.0
3360,69.0,192,180,10.0,0.0
3361,64.0,0,180,3.0,0.0
3362,57.0,0,180,3.0,0.0
3363,81.0,0,180,8.0,0.0
3364,57.0,0,180,11.0,0.0
3365,81.0,0,180,0.0,0.0
3366,45.0,0,180,5.0,0.0
3367,45.0,0,150,2.0,0.0
3368,57.0,0,150,10.0,0.0
3369,45.0,0,150,11.0,0.0
3370,57.0,0,150,3.0,0.0
3371,69.0,12,180,4.0,0.0
3372,81.0,48,150,0.0,0.0
3373,33.0,0,150,12.0,0.0
3374,76.0,0,180,4.0,0.0
3375,69.0,0,150,1.0,0.0
3376,69.0,0,150,8.0,0.0
3377,64.0,0,150,3.0,0.0
3378,69.0,0,150,7.0,0.0
3379,64.0,0,40,3.0,0.0
3380,71.0,0,20,1.0,0.0
3381,59.0,0,20,10.0,0.0
3382,71.0,24,20,8.0,0.0
3383,57.0,6,40,3.0,0.0
3384,71.0,0,20,7.0,0.0
3385,83.0,0,20,0.0,0.0
3386,47.0,0,20,11.0,0.0
3387,47.0,0,20,2.0,0.0
3388,35.0,0,20,12.0,0.0
3389,73.0,0,20,1.0,0.0
3390,85.0,0,20,0.0,0.0
3391,61.0,0,20,10.0,0.0
3392,49.0,0,20,11.0,0.0
3393,49.0,198,20,2.0,0.0
3394,37.0,0,20,12.0,0.0
3395,73.0,0,20,7.0,0.0
3396,73.0,0,20,8.0,0.0
3397,74.0,0,180,4.0,0.0
3398,66.0,0,180,4.0,0.0
3399,86.0,0,180,0.0,0.0
3400,50.0,0,180,5.0,0.0
3401,74.0,0,180,8.0,0.0
3402,62.0,0,180,3.0,0.0
3403,54.0,0,180,3.0,0.0
3404,74.0,0,180,7.0,0.0
3405,50.0,0,180,2.0,0.0
3406,38.0,0,180,12.0,0.0
3407,50.0,192,180,11.0,0.0
3408,62.0,0,180,10.0,0.0
3409,74.0,0,180,1.0,0.0
3410,62.0,0,150,7.0,0.0
3411,74.0,0,150,1.0,0.0
3412,62.0,0,150,4.0,0.0
3413,74.0,0,150,0.0,0.0
3414,62.0,0,150,10.0,0.0
3415,50.0,0,150,11.0,0.0
3416,50.0,0,150,3.0,0.0
3417,38.0,0,150,12.0,0.0
3418,50.0,0,150,2.0,0.0
3419,50.0,0,150,5.0,0.0
3420,62.0,84,150,8.0,0.0
3421,50.0,0,40,5.0,0.0
3422,62.0,0,40,10.0,0.0
3423,62.0,0,40,4.0,0.0
3424,50.0,0,40,2.0,0.0
3425,62.0,0,40,7.0,0.0
3426,50.0,0,40,11.0,0.0
3427,50.0,0,40,3.0,0.0
3428,74.0,204,40,0.0,0.0
3429,62.0,0,40,8.0,0.0
3430,74.0,0,40,1.0,0.0
3431,38.0,0,40,12.0,0.0
3432,74.0,480,180,1.0,0.0
3433,50.0,0,180,2.0,0.0
3434,62.0,0,180,8.0,0.0
3435,62.0,0,180,4.0,0.0
3436,50.0,0,180,11.0,0.0
3437,62.0,0,180,10.0,0.0
3438,38.0,0,180,12.0,0.0
3439,62.0,0,180,7.0,0.0
3440,50.0,0,180,5.0,0.0
3441,74.0,0,180,0.0,0.0
3442,50.0,0,180,3.0,0.0
3443,74.0,0,180,6.0,0.0
3444,81.0,0,180,6.0,0.0
3445,86.0,0,180,6.0,0.0
3446,78.0,0,180,6.0,0.0
3447,50.0,192,180,6.0,0.0
3448,62.0,0,180,6.0,0.0
3449,50.0,0,150,6.0,0.0
3450,38.0,84,150,6.0,0.0
3451,62.0,0,150,6.0,0.0
3452,62.0,0,40,6.0,0.0
3453,38.0,204,40,6.0,0.0
3454,50.0,0,40,6.0,0.0
3455,62.0,0,180,6.0,0.0
3456,38.0,0,180,6.0,0.0
3457,50.0,240,180,6.0,0.0
3458,38.0,0,180,6.0,0.0
3459,50.0,0,180,6.0,0.0
3460,62.0,156,180,6.0,0.0
3461,62.0,24,390,6.0,0.0
3462,38.0,60,40,6.0,0.0
3463,40.0,60,40,6.0,0.0
3464,42.0,60,40,6.0,0.0
3465,43.0,60,40,6.0,0.0
3466,45.0,36,40,6.0,0.0
3467,47.0,60,40,6.0,0.0
3468,49.0,120,40,6.0,0.0
3469,50.0,24,390,6.0,0.0
3470,62.0,60,40,6.0,0.0
3471,61.0,60,40,6.0,0.0
3472,62.0,60,40,6.0,0.0
3473,54.0,36,180,6.0,0.0
3474,64.0,60,40,6.0,0.0
3475,62.0,36,40,6.0,0.0
3476,61.0,24,40,6.0,0.0
3477,62.0,60,40,6.0,0.0
3478,61.0,60,40,6.0,0.0
3479,50.0,24,390,6.0,0.0
3480,55.0,0,390,6.0,0.0
3481,64.0,60,40,6.0,0.0
3482,62.0,60,40,6.0,0.0
3483,64.0,60,40,6.0,0.0
3484,66.0,60,40,6.0,0.0
3485,64.0,36,40,6.0,0.0
3486,62.0,60,40,6.0,0.0
3487,64.0,60,40,6.0,0.0
3488,60.0,60,40,6.0,0.0
3489,50.0,24,390,6.0,0.0
3490,57.0,0,390,6.0,0.0
3491,66.0,60,40,6.0,0.0
3492,64.0,60,40,6.0,0.0
3493,66.0,60,40,6.0,0.0
3494,67.0,60,40,6.0,0.0
3495,66.0,36,40,6.0,0.0
3496,64.0,60,40,6.0,0.0
3497,66.0,120,40,6.0,0.0
3498,67.0,0,390,6.0,0.0
3499,62.0,24,390,6.0,0.0
3500,59.0,0,390,6.0,0.0
3501,38.0,60,40,6.0,0.0
3502,40.0,60,40,6.0,0.0
3503,42.0,60,40,6.0,0.0
3504,43.0,60,40,6.0,0.0
3505,45.0,36,40,6.0,0.0
3506,47.0,60,40,6.0,0.0
3507,49.0,120,40,6.0,0.0
3508,50.0,24,390,6.0,0.0
3509,67.0,60,40,6.0,0.0
3510,66.0,60,40,6.0,0.0
3511,67.0,60,40,6.0,0.0
3512,49.0,36,180,6.0,0.0
3513,69.0,60,40,6.0,0.0
3514,67.0,36,40,6.0,0.0
3515,66.0,24,40,6.0,0.0
3516,67.0,60,40,6.0,0.0
3517,50.0,24,390,6.0,0.0
3518,47.0,0,390,6.0,0.0
3519,62.0,60,40,6.0,0.0
3520,67.0,60,40,6.0,0.0
3521,66.0,60,40,6.0,0.0
3522,67.0,60,40,6.0,0.0
3523,69.0,60,40,6.0,0.0
3524,67.0,36,40,6.0,0.0
3525,66.0,60,40,6.0,0.0
3526,67.0,60,40,6.0,0.0
3527,45.0,0,390,6.0,0.0
3528,50.0,24,390,6.0,0.0
3529,66.0,60,40,6.0,0.0
3530,69.0,60,40,6.0,0.0
3531,67.0,60,40,6.0,0.0
3532,69.0,60,40,6.0,0.0
3533,71.0,60,40,6.0,0.0
3534,69.0,36,40,6.0,0.0
3535,67.0,60,40,6.0,0.0
3536,69.0,120,40,6.0,0.0
3537,67.0,0,390,6.0,0.0
3538,71.0,24,390,6.0,0.0
3539,62.0,0,390,6.0,0.0
3540,38.0,60,40,6.0,0.0
3541,40.0,60,40,6.0,0.0
3542,42.0,60,40,6.0,0.0
3543,43.0,60,40,6.0,0.0
3544,45.0,36,40,6.0,0.0
3545,47.0,60,40,6.0,0.0
3546,49.0,120,40,6.0,0.0
3547,50.0,24,390,6.0,0.0
3548,69.0,60,40,6.0,0.0
3549,67.0,60,40,6.0,0.0
3550,69.0,60,40,6.0,0.0
3551,54.0,36,180,6.0,0.0
3552,71.0,60,40,6.0,0.0
3553,69.0,36,40,6.0,0.0
3554,67.0,24,40,6.0,0.0
3555,69.0,60,40,6.0,0.0
3556,55.0,24,390,6.0,0.0
3557,50.0,0,390,6.0,0.0
3558,67.0,60,40,6.0,0.0
3559,71.0,60,40,6.0,0.0
3560,69.0,60,40,6.0,0.0
3561,71.0,60,40,6.0,0.0
3562,72.0,60,40,6.0,0.0
3563,71.0,36,40,6.0,0.0
3564,69.0,60,40,6.0,0.0
3565,71.0,60,40,6.0,0.0
3566,52.0,0,390,6.0,0.0
3567,50.0,24,390,6.0,0.0
3568,67.0,60,40,6.0,0.0
3569,73.0,60,40,6.0,0.0
3570,71.0,60,40,6.0,0.0
3571,73.0,60,40,6.0,0.0
3572,74.0,60,40,6.0,0.0
3573,73.0,36,40,6.0,0.0
3574,71.0,60,40,6.0,0.0
3575,73.0,108,40,6.0,0.0
3576,74.0,96,90,6.0,0.0
3577,54.0,36,180,6.0,0.0
3578,50.0,0,180,6.0,0.0
3579,74.0,60,40,6.0,0.0
3580,62.0,60,40,6.0,0.0
3581,66.0,60,40,6.0,0.0
3582,69.0,60,40,6.0,0.0
3583,74.0,60,40,6.0,0.0
3584,64.0,60,40,6.0,0.0
3585,67.0,60,40,6.0,0.0
3586,73.0,60,40,6.0,0.0
3587,76.0,60,40,6.0,0.0
3588,66.0,60,40,6.0,0.0
3589,69.0,60,40,6.0,0.0
3590,74.0,60,40,6.0,0.0
3591,78.0,60,40,6.0,0.0
3592,67.0,60,40,6.0,0.0
3593,71.0,60,40,6.0,0.0
3594,74.0,60,40,6.0,0.0
3595,79.0,60,40,6.0,0.0
3596,69.0,60,40,6.0,0.0
3597,74.0,60,40,6.0,0.0
3598,78.0,60,40,6.0,0.0
3599,81.0,60,40,6.0,0.0
3600,71.0,60,40,6.0,0.0
3601,74.0,60,40,6.0,0.0
3602,79.0,60,40,6.0,0.0
3603,83.0,60,40,6.0,0.0
3604,73.0,60,40,6.0,0.0
3605,76.0,60,40,6.0,0.0
3606,79.0,60,40,6.0,0.0
3607,85.0,120,40,6.0,0.0
3608,78.0,24,390,8.0,0.0
3609,81.0,0,180,6.0,0.0
3610,86.0,0,390,7.0,0.0
3611,74.0,36,180,6.0,0.0
3612,78.0,0,180,6.0,0.0
3613,86.0,0,180,6.0,0.0
3614,50.0,60,40,6.0,0.0
3615,52.0,24,40,6.0,0.0
3616,54.0,60,40,6.0,0.0
3617,55.0,60,40,6.0,0.0
3618,57.0,36,40,6.0,0.0
3619,59.0,60,40,6.0,0.0
3620,61.0,60,40,6.0,0.0
3621,74.0,0,300,7.0,0.0
3622,62.0,60,40,6.0,0.0
3623,66.0,60,300,8.0,0.0
3624,57.0,60,40,6.0,0.0
3625,54.0,60,40,6.0,0.0
3626,57.0,60,40,6.0,0.0
3627,62.0,0,40,6.0,0.0
3628,57.0,60,40,6.0,0.0
3629,54.0,60,40,6.0,0.0
3630,50.0,108,40,6.0,0.0
3631,78.0,0,40,8.0,0.0
3632,86.0,0,40,7.0,0.0
3633,85.0,12,90,7.0,0.0
3634,57.0,36,180,6.0,0.0
3635,57.0,0,390,11.0,0.0
3636,76.0,0,90,8.0,0.0
3637,73.0,24,390,10.0,0.0
3638,69.0,60,40,6.0,0.0
3639,71.0,24,40,6.0,0.0
3640,83.0,0,40,7.0,0.0
3641,73.0,0,40,6.0,0.0
3642,74.0,60,40,8.0,0.0
3643,73.0,0,90,8.0,0.0
3644,74.0,48,40,6.0,0.0
3645,81.0,12,90,7.0,0.0
3646,76.0,36,40,6.0,0.0
3647,78.0,60,40,6.0,0.0
3648,71.0,0,40,8.0,0.0
3649,80.0,0,40,6.0,0.0
3650,79.0,60,40,7.0,0.0
3651,61.0,0,300,10.0,0.0
3652,69.0,0,90,8.0,0.0
3653,81.0,48,40,6.0,0.0
3654,45.0,48,300,11.0,0.0
3655,78.0,12,90,7.0,0.0
3656,76.0,60,40,6.0,0.0
3657,73.0,60,40,6.0,0.0
3658,67.0,0,40,8.0,0.0
3659,76.0,60,40,6.0,0.0
3660,76.0,0,40,7.0,0.0
3661,74.0,0,90,7.0,0.0
3662,81.0,0,40,6.0,0.0
3663,66.0,12,90,8.0,0.0
3664,76.0,60,40,6.0,0.0
3665,73.0,60,40,6.0,0.0
3666,69.0,108,40,10.0,0.0
3667,57.0,0,40,11.0,0.0
3668,73.0,0,40,7.0,0.0
3669,69.0,0,40,6.0,0.0
3670,64.0,0,40,8.0,0.0
3671,71.0,0,90,10.0,0.0
3672,55.0,12,90,11.0,0.0
3673,79.0,36,180,6.0,0.0
3674,74.0,0,180,6.0,0.0
3675,71.0,0,180,6.0,0.0
3676,67.0,12,570,8.0,0.0
3677,71.0,0,570,7.0,0.0
3678,83.0,0,180,6.0,0.0
3679,43.0,60,40,6.0,0.0
3680,45.0,24,40,6.0,0.0
3681,47.0,0,40,6.0,0.0
3682,69.0,60,40,10.0,0.0
3683,54.0,0,40,11.0,0.0
3684,52.0,0,90,11.0,0.0
3685,67.0,12,90,10.0,0.0
3686,48.0,48,40,6.0,0.0
3687,50.0,60,40,6.0,0.0
3688,52.0,60,40,6.0,0.0
3689,50.0,0,40,11.0,0.0
3690,54.0,0,40,6.0,0.0
3691,66.0,60,40,10.0,0.0
3692,64.0,0,90,10.0,0.0
3693,55.0,48,40,6.0,0.0
3694,49.0,0,90,11.0,0.0
3695,50.0,60,40,6.0,0.0
3696,47.0,60,40,6.0,0.0
3697,50.0,0,40,6.0,0.0
3698,62.0,60,40,10.0,0.0
3699,47.0,0,40,11.0,0.0
3700,61.0,12,90,10.0,0.0
3701,45.0,0,90,11.0,0.0
3702,55.0,48,40,6.0,0.0
3703,50.0,60,40,6.0,0.0
3704,47.0,60,40,6.0,0.0
3705,83.0,108,40,7.0,0.0
3706,43.0,0,40,11.0,0.0
3707,74.0,0,40,8.0,0.0
3708,59.0,0,40,10.0,0.0
3709,43.0,0,40,6.0,0.0
3710,78.0,0,90,8.0,0.0
3711,81.0,12,90,7.0,0.0
3712,42.0,36,180,6.0,0.0
3713,62.0,0,570,10.0,0.0
3714,42.0,0,570,11.0,0.0
3715,62.0,60,40,6.0,0.0
3716,64.0,24,40,6.0,0.0
3717,79.0,60,40,7.0,0.0
3718,66.0,0,40,6.0,0.0
3719,76.0,0,40,8.0,0.0
3720,74.0,0,90,8.0,0.0
3721,67.0,48,40,6.0,0.0
3722,78.0,12,90,7.0,0.0
3723,69.0,60,40,6.0,0.0
3724,71.0,60,40,6.0,0.0
3725,73.0,0,40,8.0,0.0
3726,73.0,60,40,6.0,0.0
3727,76.0,0,40,7.0,0.0
3728,74.0,48,40,6.0,0.0
3729,71.0,0,90,8.0,0.0
3730,74.0,12,90,7.0,0.0
3731,69.0,60,40,6.0,0.0
3732,66.0,60,40,6.0,0.0
3733,73.0,0,40,7.0,0.0
3734,69.0,60,40,8.0,0.0
3735,69.0,0,40,6.0,0.0
3736,67.0,0,90,8.0,0.0
3737,74.0,48,40,6.0,0.0
3738,71.0,12,90,7.0,0.0
3739,69.0,60,40,6.0,0.0
3740,66.0,60,40,6.0,0.0
3741,62.0,108,40,10.0,0.0
3742,66.0,0,40,11.0,0.0
3743,62.0,0,40,6.0,0.0
3744,66.0,0,40,8.0,0.0
3745,69.0,0,40,7.0,0.0
3746,67.0,12,570,7.0,0.0
3747,55.0,0,180,6.0,0.0
3748,52.0,36,180,6.0,0.0
3749,67.0,72,90,10.0,0.0
3750,61.0,0,90,6.0,0.0
3751,64.0,0,90,11.0,0.0
3752,61.0,0,570,8.0,0.0
3753,62.0,24,40,6.0,0.0
3754,62.0,0,40,11.0,0.0
3755,66.0,0,40,10.0,0.0
3756,64.0,60,40,6.0,0.0
3757,66.0,48,40,6.0,0.0
3758,64.0,0,90,10.0,0.0
3759,61.0,12,90,11.0,0.0
3760,67.0,60,40,6.0,0.0
3761,69.0,60,40,6.0,0.0
3762,59.0,0,40,11.0,0.0
3763,62.0,0,40,10.0,0.0
3764,71.0,60,40,6.0,0.0
3765,57.0,0,90,11.0,0.0
3766,61.0,0,90,10.0,0.0
3767,73.0,48,40,6.0,0.0
3768,74.0,60,40,6.0,0.0
3769,76.0,60,40,6.0,0.0
3770,55.0,0,40,11.0,0.0
3771,78.0,0,40,6.0,0.0
3772,59.0,60,40,10.0,0.0
3773,54.0,0,90,11.0,0.0
3774,79.0,48,40,6.0,0.0
3775,57.0,12,90,10.0,0.0
3776,81.0,60,40,6.0,0.0
3777,83.0,60,40,6.0,0.0
3778,52.0,0,40,11.0,0.0
3779,73.0,0,40,8.0,0.0
3780,79.0,0,40,7.0,0.0
3781,55.0,108,40,10.0,0.0
3782,85.0,0,40,6.0,0.0
3783,74.0,0,90,8.0,0.0
3784,38.0,72,90,6.0,0.0
3785,57.0,24,390,10.0,0.0
3786,78.0,0,90,7.0,0.0
3787,50.0,0,390,11.0,0.0
3788,86.0,0,300,6.0,0.0
3789,40.0,60,40,6.0,0.0
3790,76.0,0,40,7.0,0.0
3791,42.0,60,40,6.0,0.0
3792,73.0,0,40,8.0,0.0
3793,43.0,48,40,6.0,0.0
3794,71.0,0,90,8.0,0.0
3795,74.0,12,90,7.0,0.0
3796,45.0,36,40,6.0,0.0
3797,47.0,48,40,6.0,0.0
3798,81.0,0,90,6.0,0.0
3799,78.0,12,90,6.0,0.0
3800,73.0,0,40,7.0,0.0
3801,49.0,60,40,6.0,0.0
3802,69.0,0,40,8.0,0.0
3803,78.0,0,390,6.0,0.0
3804,67.0,0,90,8.0,0.0
3805,71.0,12,90,7.0,0.0
3806,81.0,24,390,6.0,0.0
3807,50.0,48,40,6.0,0.0
3808,52.0,60,40,6.0,0.0
3809,54.0,60,40,6.0,0.0
3810,55.0,0,40,6.0,0.0
3811,66.0,60,40,8.0,0.0
3812,69.0,0,40,7.0,0.0
3813,64.0,0,90,8.0,0.0
3814,67.0,12,90,7.0,0.0
3815,57.0,48,40,6.0,0.0
3816,59.0,36,40,6.0,0.0
3817,61.0,60,40,6.0,0.0
3818,62.0,60,40,8.0,0.0
3819,62.0,0,40,6.0,0.0
3820,66.0,0,40,7.0,0.0
3821,79.0,60,40,6.0,0.0
3822,64.0,0,180,7.0,0.0
3823,55.0,0,180,6.0,0.0
3824,76.0,0,40,6.0,0.0
3825,55.0,36,180,8.0,0.0
3826,81.0,0,40,6.0,0.0
3827,78.0,60,40,6.0,0.0
3828,83.0,24,40,6.0,0.0
3829,79.0,0,40,6.0,0.0
3830,81.0,0,40,6.0,0.0
3831,78.0,204,40,6.0,0.0
3832,79.0,0,390,6.0,0.0
3833,76.0,48,390,6.0,0.0
3834,55.0,192,180,6.0,0.0
3835,55.0,240,180,6.0,0.0
3836,74.0,0,180,6.0,0.0
3837,78.0,112,180,6.0,0.0
3838,56.0,0,180,6.0,0.0
3839,57.0,0,4020,6.0,0.0
3840,76.0,80,60,6.0,0.0
3841,73.0,0,60,6.0,0.0
3842,69.0,80,60,6.0,0.0
3843,81.0,80,60,6.0,0.0
3844,80.0,80,60,6.0,0.0
3845,59.0,32,180,6.0,0.0
3846,69.0,48,60,6.0,0.0
3847,81.0,80,60,6.0,0.0
3848,79.0,80,60,6.0,0.0
3849,61.0,32,180,6.0,0.0
3850,69.0,48,60,6.0,0.0
3851,81.0,80,60,6.0,0.0
3852,78.0,80,60,6.0,0.0
3853,62.0,32,420,6.0,0.0
3854,69.0,80,60,6.0,0.0
3855,81.0,80,60,6.0,0.0
3856,77.0,80,60,6.0,0.0
3857,69.0,48,60,6.0,0.0
3858,81.0,80,60,6.0,0.0
3859,76.0,80,60,6.0,0.0
3860,64.0,32,180,6.0,0.0
3861,69.0,48,60,6.0,0.0
3862,81.0,80,60,6.0,0.0
3863,75.0,80,60,6.0,0.0
3864,66.0,32,180,6.0,0.0
3865,69.0,48,60,6.0,0.0
3866,81.0,80,60,6.0,0.0
3867,74.0,80,60,6.0,0.0
3868,65.0,32,180,6.0,0.0
3869,69.0,48,60,6.0,0.0
3870,81.0,80,60,6.0,0.0
3871,64.0,0,180,6.0,0.0
3872,57.0,0,2100,11.0,0.0
3873,69.0,32,180,7.0,0.0
3874,69.0,0,2100,10.0,0.0
3875,73.0,80,60,6.0,0.0
3876,69.0,0,180,8.0,0.0
3877,69.0,48,60,6.0,0.0
3878,81.0,80,60,6.0,0.0
3879,68.0,0,180,8.0,0.0
3880,80.0,80,60,6.0,0.0
3881,59.0,32,180,6.0,0.0
3882,71.0,0,180,7.0,0.0
3883,69.0,48,60,6.0,0.0
3884,81.0,80,60,6.0,0.0
3885,79.0,80,60,6.0,0.0
3886,67.0,0,180,8.0,0.0
3887,61.0,32,180,6.0,0.0
3888,73.0,0,180,7.0,0.0
3889,69.0,48,60,6.0,0.0
3890,81.0,80,60,6.0,0.0
3891,66.0,32,180,8.0,0.0
3892,62.0,0,420,6.0,0.0
3893,78.0,80,60,6.0,0.0
3894,74.0,32,420,7.0,0.0
3895,69.0,48,60,6.0,0.0
3896,81.0,80,60,6.0,0.0
3897,65.0,0,180,8.0,0.0
3898,77.0,80,60,6.0,0.0
3899,69.0,48,60,6.0,0.0
3900,81.0,80,60,6.0,0.0
3901,76.0,80,60,6.0,0.0
3902,64.0,0,180,8.0,0.0
3903,79.0,32,180,7.0,0.0
3904,64.0,0,180,6.0,0.0
3905,69.0,48,60,6.0,0.0
3906,81.0,80,60,6.0,0.0
3907,63.0,32,180,8.0,0.0
3908,75.0,80,60,6.0,0.0
3909,78.0,0,180,7.0,0.0
3910,66.0,0,180,6.0,0.0
3911,69.0,48,60,6.0,0.0
3912,81.0,80,60,6.0,0.0
3913,74.0,80,60,6.0,0.0
3914,62.0,0,180,8.0,0.0
3915,77.0,0,180,7.0,0.0
3916,65.0,32,180,6.0,0.0
3917,69.0,48,60,6.0,0.0
3918,81.0,208,60,6.0,0.0
3919,73.0,192,180,6.0,0.0
3920,61.0,0,180,8.0,0.0
3921,64.0,0,180,6.0,0.0
3922,76.0,0,180,7.0,0.0
3923,57.0,0,150,11.0,0.0
3924,69.0,0,150,4.0,0.0
3925,69.0,0,150,10.0,0.0
3926,81.0,0,150,0.0,0.0
3927,69.0,0,150,8.0,0.0
3928,57.0,84,150,3.0,0.0
3929,57.0,0,150,2.0,0.0
3930,69.0,0,150,7.0,0.0
3931,45.0,0,150,5.0,0.0
3932,45.0,0,150,12.0,0.0
3933,45.0,0,40,12.0,0.0
3934,69.0,0,40,7.0,0.0
3935,57.0,0,40,11.0,0.0
3936,45.0,0,40,5.0,0.0
3937,69.0,204,40,10.0,0.0
3938,69.0,0,40,4.0,0.0
3939,57.0,0,40,3.0,0.0
3940,57.0,0,40,2.0,0.0
3941,69.0,0,40,8.0,0.0
3942,81.0,0,40,0.0,0.0
3943,57.0,0,180,11.0,0.0
3944,69.0,0,180,10.0,0.0
3945,45.0,0,180,12.0,0.0
3946,69.0,0,180,8.0,0.0
3947,57.0,0,180,2.0,0.0
3948,45.0,0,180,5.0,0.0
3949,57.0,240,180,3.0,0.0
3950,81.0,0,180,0.0,0.0
3951,69.0,0,180,7.0,0.0
3952,69.0,0,180,4.0,0.0
3953,81.0,0,180,0.0,0.0
3954,69.0,0,180,8.0,0.0
3955,69.0,0,180,4.0,0.0
3956,57.0,0,180,3.0,0.0
3957,45.0,0,180,5.0,0.0
3958,45.0,0,180,12.0,0.0
3959,69.0,0,180,7.0,0.0
3960,57.0,0,180,11.0,0.0
3961,69.0,240,180,10.0,0.0
3962,57.0,0,180,2.0,0.0
3963,69.0,96,180,4.0,0.0
3964,45.0,0,300,12.0,0.0
3965,81.0,0,300,0.0,0.0
3966,57.0,0,300,11.0,0.0
3967,57.0,0,180,3.0,0.0
3968,69.0,120,300,7.0,0.0
3969,45.0,0,180,5.0,0.0
3970,69.0,0,300,10.0,0.0
3971,57.0,0,300,2.0,0.0
3972,69.0,0,300,8.0,0.0
3973,61.0,0,40,2.0,0.0
3974,49.0,0,40,12.0,0.0
3975,85.0,0,40,0.0,0.0
3976,73.0,0,40,7.0,0.0
3977,61.0,60,40,11.0,0.0
3978,73.0,0,40,8.0,0.0
3979,73.0,0,40,10.0,0.0
3980,45.0,204,40,12.0,0.0
3981,69.0,0,40,10.0,0.0
3982,69.0,0,40,7.0,0.0
3983,81.0,0,40,0.0,0.0
3984,69.0,0,40,8.0,0.0
3985,57.0,0,40,11.0,0.0
3986,57.0,0,40,2.0,0.0
3987,66.0,240,180,8.0,0.0
3988,54.0,0,180,2.0,0.0
3989,42.0,0,180,12.0,0.0
3990,54.0,0,180,11.0,0.0
3991,78.0,0,180,0.0,0.0
3992,66.0,0,180,3.0,0.0
3993,54.0,0,180,3.0,0.0
3994,78.0,0,180,1.0,0.0
3995,66.0,0,180,10.0,0.0
3996,66.0,0,180,7.0,0.0
3997,66.0,0,180,4.0,0.0
3998,66.0,0,180,10.0,0.0
3999,54.0,0,180,11.0,0.0
4000,54.0,0,180,3.0,0.0
4001,66.0,0,180,3.0,0.0
4002,66.0,0,180,4.0,0.0
4003,66.0,0,180,7.0,0.0
4004,42.0,0,180,12.0,0.0
4005,54.0,0,180,2.0,0.0
4006,66.0,0,180,8.0,0.0
4007,78.0,0,180,0.0,0.0
4008,78.0,240,180,1.0,0.0
4009,42.0,0,180,12.0,0.0
4010,42.0,0,390,6.0,0.0
4011,66.0,0,180,4.0,0.0
4012,54.0,192,180,2.0,0.0
4013,54.0,0,180,11.0,0.0
4014,66.0,0,180,8.0,0.0
4015,54.0,48,390,6.0,0.0
4016,54.0,0,180,3.0,0.0
4017,78.0,0,180,0.0,0.0
4018,66.0,0,180,3.0,0.0
4019,78.0,0,180,6.0,0.0
4020,73.0,0,180,6.0,0.0
4021,70.0,0,180,6.0,0.0
4022,66.0,0,180,7.0,0.0
4023,66.0,0,180,6.0,0.0
4024,78.0,32,3060,1.0,0.0
4025,66.0,0,180,10.0,0.0
4026,66.0,336,180,6.0,0.0
4027,52.0,0,390,6.0,0.0
4028,40.0,24,390,6.0,0.0
4029,58.0,60,40,6.0,0.0
4030,61.0,36,40,6.0,0.0
4031,66.0,60,40,6.0,0.0
4032,70.0,204,40,6.0,0.0
4033,50.0,24,390,6.0,0.0
4034,38.0,0,390,6.0,0.0
4035,71.0,96,180,6.0,0.0
4036,59.0,60,40,6.0,0.0
4037,62.0,36,40,6.0,0.0
4038,66.0,60,40,6.0,0.0
4039,71.0,204,40,6.0,0.0
4040,37.0,0,390,6.0,0.0
4041,49.0,24,390,6.0,0.0
4042,73.0,96,180,6.0,0.0
4043,61.0,60,40,6.0,0.0
4044,64.0,36,40,6.0,0.0
4045,70.0,60,40,6.0,0.0
4046,73.0,204,40,6.0,0.0
4047,35.0,24,390,6.0,0.0
4048,47.0,0,390,6.0,0.0
4049,74.0,96,180,6.0,0.0
4050,62.0,60,40,6.0,0.0
4051,66.0,36,40,6.0,0.0
4052,71.0,60,40,6.0,0.0
4053,74.0,204,40,6.0,0.0
4054,34.0,24,390,6.0,0.0
4055,46.0,0,390,6.0,0.0
4056,76.0,96,180,6.0,0.0
4057,64.0,60,40,6.0,0.0
4058,70.0,36,40,6.0,0.0
4059,73.0,60,40,6.0,0.0
4060,76.0,76,40,6.0,0.0
4061,47.0,0,180,6.0,0.0
4062,74.0,48,390,8.0,0.0
4063,74.0,80,60,6.0,0.0
4064,78.0,0,390,7.0,0.0
4065,78.0,48,60,6.0,0.0
4066,83.0,80,60,6.0,0.0
4067,50.0,32,180,6.0,0.0
4068,78.0,80,60,6.0,0.0
4069,83.0,0,60,6.0,0.0
4070,86.0,80,60,6.0,0.0
4071,73.0,48,390,8.0,0.0
4072,54.0,32,180,6.0,0.0
4073,85.0,80,60,6.0,0.0
4074,76.0,0,390,7.0,0.0
4075,83.0,48,60,6.0,0.0
4076,82.0,80,60,6.0,0.0
4077,58.0,32,180,6.0,0.0
4078,79.0,80,60,6.0,0.0
4079,78.0,0,60,6.0,0.0
4080,76.0,112,60,6.0,0.0
4081,74.0,0,180,6.0,0.0
4082,71.0,0,90,8.0,0.0
4083,59.0,24,180,6.0,0.0
4084,74.0,96,90,7.0,0.0
4085,59.0,0,90,11.0,0.0
4086,47.0,0,90,12.0,0.0
4087,59.0,0,90,2.0,0.0
4088,83.0,0,90,0.0,0.0
4089,71.0,0,90,8.0,0.0
4090,71.0,0,90,10.0,0.0
4091,71.0,120,90,7.0,0.0
4092,74.0,0,90,8.0,0.0
4093,50.0,0,90,12.0,0.0
4094,86.0,0,90,0.0,0.0
4095,62.0,0,90,2.0,0.0
4096,74.0,0,90,7.0,0.0
4097,74.0,0,90,10.0,0.0
4098,62.0,120,90,11.0,0.0
4099,49.0,0,90,12.0,0.0
4100,73.0,0,90,8.0,0.0
4101,73.0,120,90,7.0,0.0
4102,61.0,0,90,11.0,0.0
4103,61.0,0,90,2.0,0.0
4104,85.0,0,90,0.0,0.0
4105,73.0,0,90,10.0,0.0
4106,83.0,0,90,0.0,0.0
4107,71.0,0,90,10.0,0.0
4108,59.0,0,90,2.0,0.0
4109,59.0,0,90,11.0,0.0
4110,71.0,120,90,7.0,0.0
4111,71.0,0,90,8.0,0.0
4112,47.0,0,90,12.0,0.0
4113,45.0,120,90,12.0,0.0
4114,81.0,0,90,0.0,0.0
4115,69.0,0,90,7.0,0.0
4116,69.0,0,90,8.0,0.0
4117,57.0,0,90,11.0,0.0
4118,57.0,0,90,2.0,0.0
4119,69.0,0,90,10.0,0.0
4120,68.0,0,90,7.0,0.0
4121,80.0,0,90,0.0,0.0
4122,56.0,0,90,11.0,0.0
4123,68.0,0,90,8.0,0.0
4124,56.0,0,90,2.0,0.0
4125,68.0,0,90,10.0,0.0
4126,44.0,120,90,12.0,0.0
4127,54.0,0,90,11.0,0.0
4128,78.0,216,90,0.0,0.0
4129,54.0,0,90,2.0,0.0
4130,66.0,0,90,8.0,0.0
4131,66.0,0,90,10.0,0.0
4132,66.0,0,90,7.0,0.0
4133,42.0,0,90,12.0,0.0
4134,40.0,48,390,6.0,0.0
4135,52.0,0,180,11.0,0.0
4136,76.0,0,180,6.0,0.0
4137,71.0,0,180,6.0,0.0
4138,76.0,192,180,0.0,0.0
4139,64.0,0,180,6.0,0.0
4140,52.0,0,390,6.0,0.0
4141,68.0,0,180,6.0,0.0
4142,40.0,0,180,12.0,0.0
4143,76.0,0,3270,1.0,0.0
4144,52.0,0,180,2.0,0.0
4145,64.0,0,180,10.0,0.0
4146,64.0,0,180,7.0,0.0
4147,64.0,0,180,8.0,0.0
4148,64.0,336,180,6.0,0.0
4149,50.0,24,390,6.0,0.0
4150,38.0,0,390,6.0,0.0
4151,56.0,60,40,6.0,0.0
4152,59.0,36,40,6.0,0.0
4153,64.0,60,40,6.0,0.0
4154,68.0,60,40,6.0,0.0
4155,69.0,60,40,6.0,0.0
4156,49.0,60,40,6.0,0.0
4157,52.0,60,40,6.0,0.0
4158,56.0,60,40,6.0,0.0
4159,57.0,60,40,6.0,0.0
4160,61.0,60,40,6.0,0.0
4161,64.0,60,40,6.0,0.0
4162,69.0,60,40,6.0,0.0
4163,71.0,60,40,6.0,0.0
4164,44.0,60,40,6.0,0.0
4165,47.0,60,40,6.0,0.0
4166,52.0,60,40,6.0,0.0
4167,56.0,60,40,6.0,0.0
4168,64.0,60,40,6.0,0.0
4169,68.0,60,40,6.0,0.0
4170,71.0,60,40,6.0,0.0
4171,73.0,60,40,6.0,0.0
4172,45.0,60,40,6.0,0.0
4173,49.0,60,40,6.0,0.0
4174,52.0,60,40,6.0,0.0
4175,57.0,60,40,6.0,0.0
4176,64.0,60,40,6.0,0.0
4177,69.0,60,40,6.0,0.0
4178,73.0,60,40,6.0,0.0
4179,74.0,60,40,6.0,0.0
4180,47.0,60,40,6.0,0.0
4181,50.0,60,40,6.0,0.0
4182,56.0,60,40,6.0,0.0
4183,59.0,60,40,6.0,0.0
4184,68.0,60,40,6.0,0.0
4185,71.0,60,40,6.0,0.0
4186,74.0,60,40,6.0,0.0
4187,88.0,0,390,0.0,0.0
4188,61.0,0,390,6.0,0.0
4189,76.0,60,40,6.0,0.0
4190,64.0,0,1140,2.0,0.0
4191,61.0,24,390,2.0,0.0
4192,78.0,60,40,6.0,0.0
4193,80.0,60,40,6.0,0.0
4194,81.0,60,40,6.0,0.0
4195,83.0,60,40,6.0,0.0
4196,85.0,36,40,6.0,0.0
4197,86.0,60,40,6.0,0.0
4198,88.0,36,40,6.0,0.0
4199,88.0,24,20,0.0,0.0
4200,59.0,12,180,6.0,0.0
4201,86.0,6,40,6.0,0.0
4202,59.0,0,180,2.0,0.0
4203,78.0,0,180,1.0,0.0
4204,86.0,30,20,0.0,0.0
4205,85.0,6,40,6.0,0.0
4206,88.0,24,20,0.0,0.0
4207,86.0,30,20,0.0,0.0
4208,88.0,24,20,0.0,0.0
4209,83.0,6,40,6.0,0.0
4210,86.0,18,20,0.0,0.0
4211,88.0,24,20,0.0,0.0
4212,81.0,6,40,6.0,0.0
4213,86.0,30,20,0.0,0.0
4214,52.0,0,180,6.0,0.0
4215,80.0,0,180,1.0,0.0
4216,80.0,6,40,6.0,0.0
4217,88.0,24,20,0.0,0.0
4218,52.0,36,180,2.0,0.0
4219,86.0,30,20,0.0,0.0
4220,88.0,24,20,0.0,0.0
4221,78.0,6,40,6.0,0.0
4222,86.0,54,20,0.0,0.0
4223,85.0,0,40,0.0,0.0
4224,76.0,24,40,6.0,0.0
4225,74.0,0,40,6.0,0.0
4226,86.0,60,40,0.0,0.0
4227,81.0,36,180,1.0,0.0
4228,57.0,24,390,11.0,0.0
4229,73.0,0,180,6.0,0.0
4230,57.0,0,180,2.0,0.0
4231,57.0,0,180,6.0,0.0
4232,45.0,0,390,12.0,0.0
4233,61.0,0,40,10.0,0.0
4234,64.0,60,40,8.0,0.0
4235,85.0,0,390,7.0,0.0
4236,85.0,0,180,0.0,0.0
4237,64.0,60,40,8.0,0.0
4238,61.0,0,40,10.0,0.0
4239,61.0,0,40,10.0,0.0
4240,64.0,24,40,8.0,0.0
4241,61.0,0,40,10.0,0.0
4242,64.0,60,40,8.0,0.0
4243,61.0,0,40,10.0,0.0
4244,64.0,60,40,8.0,0.0
4245,61.0,0,40,10.0,0.0
4246,64.0,36,40,8.0,0.0
4247,61.0,60,40,10.0,0.0
4248,64.0,0,40,8.0,0.0
4249,61.0,36,40,10.0,0.0
4250,64.0,0,40,8.0,0.0
4251,44.0,12,180,12.0,0.0
4252,65.0,0,40,8.0,0.0
4253,85.0,24,20,7.0,0.0
4254,61.0,6,40,10.0,0.0
4255,56.0,0,180,11.0,0.0
4256,83.0,30,20,7.0,0.0
4257,85.0,24,20,7.0,0.0
4258,61.0,0,40,10.0,0.0
4259,65.0,6,40,8.0,0.0
4260,83.0,30,20,7.0,0.0
4261,65.0,0,40,8.0,0.0
4262,85.0,24,20,7.0,0.0
4263,61.0,6,40,10.0,0.0
4264,83.0,18,20,7.0,0.0
4265,61.0,0,40,10.0,0.0
4266,85.0,24,20,7.0,0.0
4267,65.0,6,40,8.0,0.0
4268,83.0,30,20,7.0,0.0
4269,61.0,6,40,10.0,0.0
4270,65.0,0,40,8.0,0.0
4271,85.0,24,20,7.0,0.0
4272,37.0,0,180,12.0,0.0
4273,49.0,36,180,11.0,0.0
4274,83.0,30,20,7.0,0.0
4275,85.0,24,20,7.0,0.0
4276,65.0,0,40,8.0,0.0
4277,61.0,6,40,10.0,0.0
4278,83.0,54,20,7.0,0.0
4279,61.0,0,40,10.0,0.0
4280,81.0,0,40,7.0,0.0
4281,65.0,24,40,8.0,0.0
4282,61.0,60,40,10.0,0.0
4283,83.0,0,40,7.0,0.0
4284,65.0,0,40,8.0,0.0
4285,57.0,0,1140,2.0,0.0
4286,54.0,0,180,11.0,0.0
4287,81.0,36,180,7.0,0.0
4288,69.0,60,40,6.0,0.0
4289,54.0,0,390,2.0,0.0
4290,42.0,0,180,12.0,0.0
4291,54.0,24,390,6.0,0.0
4292,61.0,0,180,10.0,0.0
4293,69.0,0,390,1.0,0.0
4294,81.0,0,390,0.0,0.0
4295,66.0,0,180,8.0,0.0
4296,71.0,60,40,6.0,0.0
4297,73.0,24,40,6.0,0.0
4298,74.0,60,40,6.0,0.0
4299,76.0,60,40,6.0,0.0
4300,78.0,36,40,6.0,0.0
4301,79.0,60,40,6.0,0.0
4302,81.0,36,40,6.0,0.0
4303,52.0,12,180,2.0,0.0
4304,79.0,6,40,6.0,0.0
4305,52.0,0,180,6.0,0.0
4306,71.0,0,180,1.0,0.0
4307,81.0,24,20,0.0,0.0
4308,79.0,30,20,0.0,0.0
4309,78.0,6,40,6.0,0.0
4310,81.0,24,20,0.0,0.0
4311,79.0,30,20,0.0,0.0
4312,81.0,24,20,0.0,0.0
4313,76.0,6,40,6.0,0.0
4314,79.0,18,20,0.0,0.0
4315,81.0,24,20,0.0,0.0
4316,74.0,6,40,6.0,0.0
4317,79.0,30,20,0.0,0.0
4318,45.0,36,180,6.0,0.0
4319,45.0,0,180,2.0,0.0
4320,73.0,0,180,1.0,0.0
4321,81.0,24,20,0.0,0.0
4322,73.0,6,40,6.0,0.0
4323,79.0,30,20,0.0,0.0
4324,71.0,6,40,6.0,0.0
4325,81.0,24,20,0.0,0.0
4326,79.0,54,20,0.0,0.0
4327,78.0,24,40,0.0,0.0
4328,69.0,0,40,6.0,0.0
4329,79.0,60,40,0.0,0.0
4330,67.0,0,40,6.0,0.0
4331,50.0,36,180,6.0,0.0
4332,74.0,0,180,1.0,0.0
4333,66.0,0,180,6.0,0.0
4334,50.0,0,180,2.0,0.0
4335,78.0,0,180,0.0,0.0
4336,50.0,0,390,12.0,0.0
4337,54.0,0,390,3.0,0.0
4338,69.0,60,40,8.0,0.0
4339,66.0,24,390,3.0,0.0
4340,78.0,0,390,7.0,0.0
4341,66.0,0,40,10.0,0.0
4342,62.0,0,390,11.0,0.0
4343,66.0,0,40,10.0,0.0
4344,69.0,60,40,8.0,0.0
4345,66.0,0,40,10.0,0.0
4346,69.0,24,40,8.0,0.0
4347,66.0,0,40,10.0,0.0
4348,69.0,60,40,8.0,0.0
4349,69.0,0,40,8.0,0.0
4350,66.0,60,40,10.0,0.0
4351,69.0,36,40,8.0,0.0
4352,66.0,0,40,10.0,0.0
4353,66.0,0,40,10.0,0.0
4354,69.0,60,40,8.0,0.0
4355,66.0,0,40,10.0,0.0
4356,69.0,36,40,8.0,0.0
4357,54.0,0,180,3.0,0.0
4358,66.0,0,40,10.0,0.0
4359,78.0,24,20,7.0,0.0
4360,70.0,6,40,8.0,0.0
4361,49.0,0,180,12.0,0.0
4362,66.0,12,180,3.0,0.0
4363,61.0,0,180,11.0,0.0
4364,76.0,30,20,7.0,0.0
4365,66.0,0,40,10.0,0.0
4366,70.0,6,40,8.0,0.0
4367,78.0,24,20,7.0,0.0
4368,76.0,30,20,7.0,0.0
4369,70.0,6,40,8.0,0.0
4370,66.0,0,40,10.0,0.0
4371,78.0,24,20,7.0,0.0
4372,76.0,18,20,7.0,0.0
4373,66.0,6,40,10.0,0.0
4374,70.0,0,40,8.0,0.0
4375,78.0,24,20,7.0,0.0
4376,76.0,30,20,7.0,0.0
4377,70.0,6,40,8.0,0.0
4378,54.0,0,180,11.0,0.0
4379,42.0,36,180,12.0,0.0
4380,66.0,0,40,10.0,0.0
4381,78.0,24,20,7.0,0.0
4382,66.0,0,180,3.0,0.0
4383,54.0,0,180,3.0,0.0
4384,76.0,30,20,7.0,0.0
4385,66.0,0,40,10.0,0.0
4386,70.0,6,40,8.0,0.0
4387,78.0,24,20,7.0,0.0
4388,76.0,54,20,7.0,0.0
4389,70.0,0,40,8.0,0.0
4390,74.0,0,40,7.0,0.0
4391,66.0,0,40,10.0,0.0
4392,76.0,60,40,7.0,0.0
4393,70.0,0,40,8.0,0.0
4394,59.0,36,180,11.0,0.0
4395,59.0,0,40,6.0,0.0
4396,74.0,0,180,7.0,0.0
4397,86.0,0,390,0.0,0.0
4398,74.0,60,40,6.0,0.0
4399,66.0,0,180,10.0,0.0
4400,54.0,0,180,3.0,0.0
4401,66.0,0,180,3.0,0.0
4402,47.0,0,180,12.0,0.0
4403,59.0,24,390,2.0,0.0
4404,71.0,0,180,8.0,0.0
4405,74.0,0,390,1.0,0.0
4406,61.0,0,40,6.0,0.0
4407,76.0,60,40,6.0,0.0
4408,78.0,24,40,6.0,0.0
4409,62.0,0,40,6.0,0.0
4410,80.0,0,40,6.0,0.0
4411,64.0,60,40,6.0,0.0
4412,66.0,60,40,6.0,0.0
4413,81.0,0,40,6.0,0.0
4414,83.0,36,40,6.0,0.0
4415,68.0,0,40,6.0,0.0
4416,69.0,60,40,6.0,0.0
4417,85.0,0,40,6.0,0.0
4418,86.0,0,40,6.0,0.0
4419,71.0,36,40,6.0,0.0
4420,69.0,6,40,6.0,0.0
4421,85.0,0,40,6.0,0.0
4422,86.0,24,20,0.0,0.0
4423,76.0,24,390,1.0,0.0
4424,61.0,0,390,2.0,0.0
4425,85.0,30,20,0.0,0.0
4426,68.0,0,40,6.0,0.0
4427,83.0,6,40,6.0,0.0
4428,86.0,24,20,0.0,0.0
4429,85.0,30,20,0.0,0.0
4430,66.0,6,40,6.0,0.0
4431,86.0,24,20,0.0,0.0
4432,81.0,0,40,6.0,0.0
4433,85.0,30,20,0.0,0.0
4434,80.0,0,40,6.0,0.0
4435,86.0,24,20,0.0,0.0
4436,64.0,6,40,6.0,0.0
4437,85.0,30,20,0.0,0.0
4438,78.0,0,40,6.0,0.0
4439,62.0,6,40,6.0,0.0
4440,86.0,24,20,0.0,0.0
4441,85.0,30,20,0.0,0.0
4442,61.0,6,40,6.0,0.0
4443,76.0,0,40,6.0,0.0
4444,86.0,24,20,0.0,0.0
4445,85.0,30,20,0.0,0.0
4446,74.0,60,40,6.0,0.0
4447,59.0,0,40,6.0,0.0
4448,83.0,0,40,0.0,0.0
4449,57.0,120,40,6.0,0.0
4450,73.0,0,40,6.0,0.0
4451,85.0,0,40,0.0,0.0
4452,78.0,0,780,1.0,0.0
4453,83.0,0,390,0.0,0.0
4454,62.0,36,180,6.0,0.0
4455,62.0,24,390,2.0,0.0
4456,71.0,60,40,6.0,0.0
4457,74.0,24,40,6.0,0.0
4458,78.0,60,40,6.0,0.0
4459,83.0,60,40,6.0,0.0
4460,78.0,36,40,6.0,0.0
4461,74.0,60,40,6.0,0.0
4462,71.0,120,40,6.0,0.0
4463,81.0,24,390,0.0,0.0
4464,63.0,36,180,6.0,0.0
4465,63.0,0,390,2.0,0.0
4466,69.0,60,40,6.0,0.0
4467,75.0,24,40,6.0,0.0
4468,78.0,60,40,6.0,0.0
4469,81.0,60,40,6.0,0.0
4470,78.0,36,40,6.0,0.0
4471,75.0,60,40,6.0,0.0
4472,69.0,60,40,6.0,0.0
4473,80.0,36,180,0.0,0.0
4474,64.0,0,180,2.0,0.0
4475,52.0,0,180,6.0,0.0
4476,76.0,0,180,1.0,0.0
4477,68.0,60,40,6.0,0.0
4478,64.0,0,4020,3.0,0.0
4479,64.0,60,40,6.0,0.0
4480,66.0,24,40,6.0,0.0
4481,68.0,60,40,6.0,0.0
4482,69.0,60,40,6.0,0.0
4483,71.0,60,40,6.0,0.0
4484,73.0,60,40,6.0,0.0
4485,75.0,108,40,6.0,0.0
4486,76.0,72,90,6.0,0.0
4487,78.0,60,40,6.0,0.0
4488,80.0,60,40,6.0,0.0
4489,86.0,0,90,0.0,0.0
4490,71.0,0,90,8.0,0.0
4491,74.0,0,90,7.0,0.0
4492,68.0,12,90,10.0,0.0
4493,81.0,48,40,6.0,0.0
4494,83.0,60,40,6.0,0.0
4495,85.0,60,40,6.0,0.0
4496,86.0,60,40,6.0,0.0
4497,73.0,12,90,7.0,0.0
4498,69.0,0,90,10.0,0.0
4499,69.0,0,90,8.0,0.0
4500,85.0,0,90,0.0,0.0
4501,88.0,48,40,6.0,0.0
4502,76.0,60,40,6.0,0.0
4503,88.0,60,40,6.0,0.0
4504,76.0,60,40,6.0,0.0
4505,71.0,0,90,7.0,0.0
4506,88.0,48,40,6.0,0.0
4507,64.0,0,90,10.0,0.0
4508,68.0,12,90,8.0,0.0
4509,83.0,0,90,0.0,0.0
4510,76.0,60,40,6.0,0.0
4511,88.0,60,40,6.0,0.0
4512,76.0,60,40,6.0,0.0
4513,88.0,48,40,6.0,0.0
4514,81.0,0,90,0.0,0.0
4515,69.0,0,90,7.0,0.0
4516,64.0,0,90,8.0,0.0
4517,61.0,12,90,10.0,0.0
4518,76.0,60,40,6.0,0.0
4519,88.0,60,40,6.0,0.0
4520,76.0,60,40,6.0,0.0
4521,69.0,12,90,8.0,0.0
4522,85.0,0,90,0.0,0.0
4523,88.0,48,40,6.0,0.0
4524,73.0,0,90,7.0,0.0
4525,64.0,0,90,10.0,0.0
4526,45.0,0,180,12.0,0.0
4527,57.0,36,180,11.0,0.0
4528,76.0,60,40,6.0,0.0
4529,88.0,24,40,6.0,0.0
4530,76.0,108,40,6.0,0.0
4531,64.0,0,180,10.0,0.0
4532,52.0,0,180,11.0,0.0
4533,40.0,0,180,12.0,0.0
4534,71.0,0,180,7.0,0.0
4535,68.0,0,180,8.0,0.0
4536,88.0,72,90,6.0,0.0
4537,83.0,36,180,0.0,0.0
4538,87.0,24,40,6.0,0.0
4539,85.0,60,40,6.0,0.0
4540,83.0,60,40,6.0,0.0
4541,81.0,60,40,6.0,0.0
4542,80.0,60,40,6.0,0.0
4543,78.0,108,40,6.0,0.0
4544,76.0,72,90,6.0,0.0
4545,75.0,60,40,6.0,0.0
4546,73.0,60,40,6.0,0.0
4547,74.0,0,90,7.0,0.0
4548,71.0,48,40,6.0,0.0
4549,86.0,0,90,0.0,0.0
4550,68.0,12,90,10.0,0.0
4551,71.0,0,90,8.0,0.0
4552,69.0,60,40,6.0,0.0
4553,68.0,60,40,6.0,0.0
4554,66.0,60,40,6.0,0.0
4555,69.0,0,90,10.0,0.0
4556,76.0,48,40,6.0,0.0
4557,85.0,0,90,0.0,0.0
4558,69.0,0,90,8.0,0.0
4559,73.0,12,90,7.0,0.0
4560,64.0,60,40,6.0,0.0
4561,76.0,60,40,6.0,0.0
4562,64.0,60,40,6.0,0.0
4563,83.0,0,90,0.0,0.0
4564,68.0,0,90,8.0,0.0
4565,64.0,0,90,10.0,0.0
4566,71.0,12,90,7.0,0.0
4567,76.0,48,40,6.0,0.0
4568,64.0,60,40,6.0,0.0
4569,76.0,60,40,6.0,0.0
4570,64.0,60,40,6.0,0.0
4571,61.0,0,90,10.0,0.0
4572,69.0,0,90,7.0,0.0
4573,76.0,48,40,6.0,0.0
4574,64.0,12,90,8.0,0.0
4575,81.0,0,90,0.0,0.0
4576,64.0,60,40,6.0,0.0
4577,76.0,60,40,6.0,0.0
4578,64.0,60,40,6.0,0.0
4579,76.0,48,40,6.0,0.0
4580,85.0,0,90,0.0,0.0
4581,73.0,0,90,7.0,0.0
4582,64.0,0,90,10.0,0.0
4583,57.0,0,180,11.0,0.0
4584,45.0,36,180,12.0,0.0
4585,69.0,12,90,8.0,0.0
4586,64.0,60,40,6.0,0.0
4587,76.0,24,40,6.0,0.0
4588,64.0,204,40,6.0,0.0
4589,64.0,0,180,10.0,0.0
4590,52.0,96,180,11.0,0.0
4591,83.0,0,180,0.0,0.0
4592,68.0,0,180,8.0,0.0
4593,64.0,0,180,6.0,0.0
4594,71.0,0,180,7.0,0.0
4595,40.0,0,180,12.0,0.0
4596,64.0,0,40,6.0,0.0
4597,56.0,0,180,8.0,0.0
4598,68.0,0,180,1.0,0.0
4599,71.0,0,180,1.0,0.0
4600,59.0,36,180,7.0,0.0
4601,52.0,60,40,6.0,0.0
4602,56.0,0,40,6.0,0.0
4603,68.0,60,40,6.0,0.0
4604,59.0,24,40,6.0,0.0
4605,71.0,0,40,6.0,0.0
4606,76.0,0,40,6.0,0.0
4607,64.0,204,40,6.0,0.0
4608,61.0,0,180,6.0,0.0
4609,73.0,0,180,1.0,0.0
4610,61.0,0,180,7.0,0.0
4611,73.0,0,180,6.0,0.0
4612,69.0,0,180,1.0,0.0
4613,57.0,96,180,8.0,0.0
4614,73.0,0,180,7.0,0.0
4615,69.0,0,180,8.0,0.0
4616,57.0,0,180,11.0,0.0
4617,45.0,0,180,12.0,0.0
4618,57.0,36,180,6.0,0.0
4619,69.0,60,40,1.0,0.0
4620,57.0,0,180,2.0,0.0
4621,61.0,0,180,2.0,0.0
4622,73.0,0,40,0.0,0.0
4623,85.0,0,180,6.0,0.0
4624,81.0,0,180,6.0,0.0
4625,76.0,0,180,6.0,0.0
4626,64.0,0,180,10.0,0.0
4627,76.0,60,40,0.0,0.0
4628,73.0,0,40,1.0,0.0
4629,81.0,0,40,0.0,0.0
4630,76.0,24,40,1.0,0.0
4631,85.0,204,40,0.0,0.0
4632,81.0,0,40,1.0,0.0
4633,59.0,0,180,2.0,0.0
4634,83.0,0,180,6.0,0.0
4635,76.0,0,180,6.0,0.0
4636,71.0,0,180,7.0,0.0
4637,83.0,0,180,0.0,0.0
4638,64.0,0,180,10.0,0.0
4639,80.0,0,180,6.0,0.0
4640,40.0,0,180,12.0,0.0
4641,68.0,0,180,8.0,0.0
4642,80.0,0,180,1.0,0.0
4643,52.0,96,180,11.0,0.0
4644,52.0,0,180,6.0,0.0
4645,56.0,0,180,2.0,0.0
4646,71.0,0,180,1.0,0.0
4647,59.0,36,180,7.0,0.0
4648,56.0,0,180,8.0,0.0
4649,64.0,60,40,6.0,0.0
4650,68.0,0,180,1.0,0.0
4651,52.0,0,40,6.0,0.0
4652,68.0,0,40,6.0,0.0
4653,56.0,60,40,6.0,0.0
4654,71.0,24,40,6.0,0.0
4655,59.0,0,40,6.0,0.0
4656,76.0,204,40,6.0,0.0
4657,64.0,0,40,6.0,0.0
4658,61.0,0,180,6.0,0.0
4659,73.0,0,180,6.0,0.0
4660,61.0,0,180,7.0,0.0
4661,73.0,0,180,1.0,0.0
4662,69.0,0,180,1.0,0.0
4663,57.0,96,180,8.0,0.0
4664,69.0,0,40,1.0,0.0
4665,64.0,0,180,10.0,0.0
4666,57.0,0,180,6.0,0.0
4667,85.0,0,180,6.0,0.0
4668,76.0,0,180,6.0,0.0
4669,81.0,0,180,6.0,0.0
4670,73.0,0,180,7.0,0.0
4671,45.0,0,180,12.0,0.0
4672,73.0,60,40,0.0,0.0
4673,69.0,0,180,8.0,0.0
4674,61.0,36,180,2.0,0.0
4675,57.0,0,180,11.0,0.0
4676,57.0,0,180,2.0,0.0
4677,73.0,0,40,1.0,0.0
4678,76.0,60,40,0.0,0.0
4679,76.0,24,40,1.0,0.0
4680,81.0,0,40,0.0,0.0
4681,85.0,0,40,0.0,0.0
4682,81.0,60,40,1.0,0.0
4683,52.0,36,180,6.0,0.0
4684,71.0,0,180,7.0,0.0
4685,59.0,0,180,2.0,0.0
4686,56.0,0,180,2.0,0.0
4687,68.0,0,180,8.0,0.0
4688,52.0,0,180,11.0,0.0
4689,40.0,0,180,12.0,0.0
4690,71.0,60,40,6.0,0.0
4691,80.0,0,180,1.0,0.0
4692,64.0,0,180,10.0,0.0
4693,83.0,0,180,0.0,0.0
4694,76.0,0,1140,1.0,0.0
4695,76.0,60,40,6.0,0.0
4696,80.0,24,40,6.0,0.0
4697,83.0,60,40,6.0,0.0
4698,57.0,0,180,2.0,0.0
4699,85.0,0,180,0.0,0.0
4700,45.0,36,180,12.0,0.0
4701,57.0,0,180,6.0,0.0
4702,61.0,0,180,2.0,0.0
4703,81.0,0,180,1.0,0.0
4704,73.0,0,180,7.0,0.0
4705,64.0,0,180,10.0,0.0
4706,73.0,60,40,6.0,0.0
4707,69.0,0,180,8.0,0.0
4708,57.0,0,180,11.0,0.0
4709,76.0,60,40,6.0,0.0
4710,81.0,24,40,6.0,0.0
4711,85.0,60,40,6.0,0.0
4712,40.0,0,180,12.0,0.0
4713,80.0,0,180,1.0,0.0
4714,59.0,0,180,2.0,0.0
4715,71.0,60,40,6.0,0.0
4716,83.0,0,180,0.0,0.0
4717,56.0,0,180,2.0,0.0
4718,71.0,36,180,7.0,0.0
4719,68.0,0,180,8.0,0.0
4720,52.0,0,180,11.0,0.0
4721,64.0,0,180,10.0,0.0
4722,52.0,0,180,6.0,0.0
4723,76.0,60,40,6.0,0.0
4724,80.0,24,40,6.0,0.0
4725,83.0,60,40,6.0,0.0
4726,81.0,36,180,1.0,0.0
4727,64.0,0,180,10.0,0.0
4728,61.0,0,180,2.0,0.0
4729,57.0,0,180,2.0,0.0
4730,69.0,0,180,8.0,0.0
4731,57.0,0,180,11.0,0.0
4732,45.0,0,180,12.0,0.0
4733,73.0,0,180,7.0,0.0
4734,57.0,0,180,6.0,0.0
4735,85.0,0,180,0.0,0.0
4736,73.0,60,40,6.0,0.0
4737,76.0,60,40,6.0,0.0
4738,81.0,24,40,6.0,0.0
4739,85.0,108,40,6.0,0.0
4740,52.0,0,180,11.0,0.0
4741,68.0,96,90,8.0,0.0
4742,71.0,0,90,7.0,0.0
4743,52.0,0,180,6.0,0.0
4744,59.0,0,180,2.0,0.0
4745,64.0,0,90,10.0,0.0
4746,83.0,0,180,6.0,0.0
4747,80.0,0,180,6.0,0.0
4748,80.0,0,180,1.0,0.0
4749,40.0,0,180,12.0,0.0
4750,83.0,0,180,0.0,0.0
4751,56.0,24,180,2.0,0.0
4752,52.0,0,90,10.0,0.0
4753,64.0,120,90,8.0,0.0
4754,64.0,0,90,7.0,0.0
4755,64.0,0,90,7.0,0.0
4756,64.0,120,90,8.0,0.0
4757,52.0,0,90,10.0,0.0
4758,52.0,120,90,10.0,0.0
4759,64.0,0,90,8.0,0.0
4760,64.0,0,90,7.0,0.0
4761,64.0,0,90,8.0,0.0
4762,52.0,120,90,10.0,0.0
4763,64.0,0,90,7.0,0.0
4764,64.0,0,90,8.0,0.0
4765,64.0,72,90,7.0,0.0
4766,52.0,0,90,10.0,0.0
4767,52.0,12,90,10.0,0.0
4768,76.0,48,40,0.0,0.0
4769,64.0,0,90,8.0,0.0
4770,64.0,0,90,7.0,0.0
4771,78.0,60,40,0.0,0.0
4772,52.0,12,90,10.0,0.0
4773,76.0,48,40,0.0,0.0
4774,64.0,0,90,7.0,0.0
4775,64.0,0,90,8.0,0.0
4776,78.0,108,40,0.0,0.0
4777,52.0,0,90,10.0,0.0
4778,80.0,0,90,0.0,0.0
4779,64.0,0,90,7.0,0.0
4780,64.0,120,90,8.0,0.0
4781,64.0,0,90,7.0,0.0
4782,52.0,0,90,10.0,0.0
4783,64.0,120,90,8.0,0.0
4784,52.0,96,90,10.0,0.0
4785,64.0,0,90,7.0,0.0
4786,80.0,24,180,0.0,0.0
4787,64.0,0,90,8.0,0.0
4788,64.0,120,90,7.0,0.0
4789,52.0,0,90,10.0,0.0
4790,64.0,0,90,8.0,0.0
4791,64.0,0,90,7.0,0.0
4792,64.0,0,90,8.0,0.0
4793,52.0,120,90,10.0,0.0
4794,83.0,0,90,0.0,0.0
4795,64.0,0,90,7.0,0.0
4796,64.0,0,90,8.0,0.0
4797,52.0,120,90,10.0,0.0
4798,64.0,0,90,8.0,0.0
4799,52.0,96,90,10.0,0.0
4800,64.0,0,90,7.0,0.0
4801,83.0,24,180,0.0,0.0
4802,64.0,0,90,7.0,0.0
4803,52.0,0,90,10.0,0.0
4804,64.0,120,90,8.0,0.0
4805,40.0,0,180,12.0,0.0
4806,64.0,96,90,7.0,0.0
4807,64.0,0,90,8.0,0.0
4808,52.0,0,180,11.0,0.0
4809,52.0,0,90,10.0,0.0
4810,80.0,24,180,0.0,0.0
4811,52.0,72,90,10.0,0.0
4812,64.0,0,90,8.0,0.0
4813,64.0,0,90,7.0,0.0
4814,64.0,0,90,8.0,0.0
4815,52.0,0,90,10.0,0.0
4816,68.0,24,180,6.0,0.0
4817,71.0,0,180,6.0,0.0
4818,64.0,12,90,7.0,0.0
4819,88.0,48,40,6.0,0.0
4820,87.0,60,40,6.0,0.0
4821,64.0,12,90,7.0,0.0
4822,52.0,0,90,10.0,0.0
4823,64.0,0,90,8.0,0.0
4824,88.0,24,40,6.0,0.0
4825,87.0,108,40,6.0,0.0
4826,88.0,24,180,6.0,0.0
4827,64.0,96,90,8.0,0.0
4828,52.0,0,90,10.0,0.0
4829,68.0,0,180,6.0,0.0
4830,64.0,0,180,6.0,0.0
4831,64.0,0,90,7.0,0.0
4832,64.0,0,90,7.0,0.0
4833,64.0,0,90,8.0,0.0
4834,52.0,72,90,10.0,0.0
4835,64.0,0,90,7.0,0.0
4836,80.0,48,40,0.0,0.0
4837,76.0,0,40,1.0,0.0
4838,52.0,12,90,10.0,0.0
4839,64.0,0,90,8.0,0.0
4840,78.0,60,40,1.0,0.0
4841,81.0,0,40,0.0,0.0
4842,76.0,0,40,1.0,0.0
4843,64.0,0,90,8.0,0.0
4844,64.0,12,90,7.0,0.0
4845,52.0,0,90,10.0,0.0
4846,80.0,48,40,0.0,0.0
4847,81.0,0,40,0.0,0.0
4848,78.0,108,40,1.0,0.0
4849,80.0,0,90,1.0,0.0
4850,64.0,0,90,7.0,0.0
4851,52.0,0,90,10.0,0.0
4852,64.0,120,90,8.0,0.0
4853,83.0,0,90,0.0,0.0
4854,52.0,0,90,10.0,0.0
4855,64.0,0,90,7.0,0.0
4856,64.0,120,90,8.0,0.0
4857,83.0,24,180,0.0,0.0
4858,80.0,0,180,1.0,0.0
4859,64.0,0,90,7.0,0.0
4860,52.0,96,90,10.0,0.0
4861,64.0,0,90,8.0,0.0
4862,52.0,120,90,10.0,0.0
4863,64.0,0,90,7.0,0.0
4864,64.0,0,90,8.0,0.0
4865,64.0,0,90,7.0,0.0
4866,83.0,0,90,1.0,0.0
4867,64.0,0,90,8.0,0.0
4868,52.0,0,90,10.0,0.0
4869,86.0,120,90,0.0,0.0
4870,52.0,0,90,10.0,0.0
4871,64.0,0,90,7.0,0.0
4872,64.0,120,90,8.0,0.0
4873,86.0,0,180,0.0,0.0
4874,64.0,0,90,7.0,0.0
4875,64.0,96,90,8.0,0.0
4876,83.0,24,180,1.0,0.0
4877,52.0,0,90,10.0,0.0
4878,52.0,0,90,10.0,0.0
4879,64.0,120,90,7.0,0.0
4880,64.0,0,90,8.0,0.0
4881,52.0,0,90,10.0,0.0
4882,40.0,24,180,12.0,0.0
4883,64.0,0,90,7.0,0.0
4884,64.0,96,90,8.0,0.0
4885,52.0,0,180,11.0,0.0
4886,80.0,0,180,1.0,0.0
4887,83.0,0,180,0.0,0.0
4888,64.0,0,90,7.0,0.0
4889,64.0,72,90,8.0,0.0
4890,52.0,0,90,10.0,0.0
4891,64.0,0,90,7.0,0.0
4892,64.0,0,90,8.0,0.0
4893,71.0,24,180,6.0,0.0
4894,88.0,48,40,6.0,0.0
4895,52.0,12,90,10.0,0.0
4896,74.0,0,180,6.0,0.0
4897,87.0,60,40,6.0,0.0
4898,52.0,12,90,10.0,0.0
4899,88.0,24,40,6.0,0.0
4900,64.0,0,90,7.0,0.0
4901,64.0,0,90,8.0,0.0
4902,87.0,108,40,6.0,0.0
4903,52.0,96,90,10.0,0.0
4904,68.0,0,180,6.0,0.0
4905,71.0,24,180,6.0,0.0
4906,88.0,0,180,6.0,0.0
4907,64.0,0,90,8.0,0.0
4908,64.0,0,90,7.0,0.0
4909,64.0,0,90,8.0,0.0
4910,64.0,0,90,7.0,0.0
4911,52.0,72,90,10.0,0.0
4912,64.0,12,90,7.0,0.0
4913,83.0,48,40,0.0,0.0
4914,64.0,0,90,8.0,0.0
4915,52.0,0,90,10.0,0.0
4916,80.0,0,40,1.0,0.0
4917,81.0,0,40,1.0,0.0
4918,85.0,60,40,0.0,0.0
4919,64.0,0,90,7.0,0.0
4920,83.0,0,40,0.0,0.0
4921,80.0,48,40,1.0,0.0
4922,64.0,12,90,8.0,0.0
4923,52.0,0,90,10.0,0.0
4924,81.0,0,40,1.0,0.0
4925,85.0,108,40,0.0,0.0
4926,86.0,0,90,0.0,0.0
4927,64.0,0,90,8.0,0.0
4928,83.0,0,90,1.0,0.0
4929,52.0,0,90,10.0,0.0
4930,64.0,120,90,7.0,0.0
4931,64.0,0,90,8.0,0.0
4932,64.0,120,90,7.0,0.0
4933,52.0,0,90,10.0,0.0
4934,64.0,0,90,7.0,0.0
4935,52.0,0,90,10.0,0.0
4936,64.0,96,90,8.0,0.0
4937,86.0,0,180,0.0,0.0
4938,83.0,24,180,1.0,0.0
4939,64.0,120,90,7.0,0.0
4940,64.0,0,90,8.0,0.0
4941,52.0,0,90,10.0,0.0
4942,64.0,0,90,8.0,0.0
4943,86.0,0,90,1.0,0.0
4944,90.0,0,90,0.0,0.0
4945,64.0,0,90,7.0,0.0
4946,52.0,120,90,10.0,0.0
4947,64.0,0,90,7.0,0.0
4948,52.0,0,90,10.0,0.0
4949,64.0,72,90,8.0,0.0
4950,86.0,24,180,1.0,0.0
4951,90.0,0,180,0.0,0.0
4952,64.0,0,90,7.0,0.0
4953,64.0,12,90,8.0,0.0
4954,83.0,48,40,6.0,0.0
4955,52.0,0,90,10.0,0.0
4956,82.0,60,40,6.0,0.0
4957,52.0,0,90,10.0,0.0
4958,64.0,0,90,8.0,0.0
4959,64.0,12,90,7.0,0.0
4960,83.0,24,40,6.0,0.0
4961,81.0,108,40,6.0,0.0
4962,64.0,96,90,7.0,0.0
4963,40.0,24,180,12.0,0.0
4964,52.0,0,180,11.0,0.0
4965,83.0,0,90,0.0,0.0
4966,52.0,0,90,10.0,0.0
4967,80.0,0,90,1.0,0.0
4968,80.0,96,570,6.0,0.0
4969,64.0,0,90,8.0,0.0
4970,64.0,72,90,7.0,0.0
4971,64.0,0,90,8.0,0.0
4972,52.0,0,90,10.0,0.0
4973,80.0,24,180,1.0,0.0
4974,64.0,0,90,8.0,0.0
4975,52.0,12,90,10.0,0.0
4976,83.0,0,180,0.0,0.0
4977,74.0,0,40,6.0,0.0
4978,64.0,0,90,7.0,0.0
4979,71.0,48,40,6.0,0.0
4980,73.0,60,40,6.0,0.0
4981,70.0,0,40,6.0,0.0
4982,52.0,0,90,10.0,0.0
4983,64.0,12,90,7.0,0.0
4984,64.0,0,90,8.0,0.0
4985,71.0,0,40,6.0,0.0
4986,74.0,24,40,6.0,0.0
4987,69.0,0,40,6.0,0.0
4988,73.0,108,40,6.0,0.0
4989,68.0,24,660,6.0,0.0
4990,86.0,0,90,0.0,0.0
4991,71.0,0,660,6.0,0.0
4992,52.0,0,180,11.0,0.0
4993,40.0,24,180,12.0,0.0
4994,52.0,0,90,10.0,0.0
4995,83.0,0,90,1.0,0.0
4996,64.0,0,90,8.0,0.0
4997,64.0,0,90,7.0,0.0
4998,64.0,0,90,7.0,0.0
4999,64.0,0,90,8.0,0.0
5000,52.0,72,90,10.0,0.0
5001,52.0,12,90,10.0,0.0
5002,64.0,0,90,8.0,0.0
5003,78.0,48,40,6.0,0.0
5004,64.0,0,90,7.0,0.0
5005,83.0,0,180,1.0,0.0
5006,86.0,24,180,0.0,0.0
5007,77.0,60,40,6.0,0.0
5008,64.0,0,90,8.0,0.0
5009,52.0,12,90,10.0,0.0
5010,78.0,24,40,6.0,0.0
5011,64.0,0,90,7.0,0.0
5012,76.0,108,40,6.0,0.0
5013,40.0,0,180,12.0,0.0
5014,64.0,0,90,7.0,0.0
5015,71.0,0,90,1.0,0.0
5016,52.0,0,180,11.0,0.0
5017,80.0,0,90,0.0,0.0
5018,64.0,96,90,8.0,0.0
5019,74.0,0,570,6.0,0.0
5020,52.0,0,90,10.0,0.0
5021,52.0,0,90,10.0,0.0
5022,64.0,0,90,8.0,0.0
5023,64.0,72,90,7.0,0.0
5024,64.0,0,90,8.0,0.0
5025,64.0,0,90,7.0,0.0
5026,66.0,48,40,6.0,0.0
5027,52.0,12,90,10.0,0.0
5028,71.0,0,180,1.0,0.0
5029,62.0,0,40,6.0,0.0
5030,80.0,24,180,0.0,0.0
5031,61.0,0,40,6.0,0.0
5032,65.0,60,40,6.0,0.0
5033,66.0,0,40,6.0,0.0
5034,62.0,24,40,6.0,0.0
5035,52.0,0,90,10.0,0.0
5036,64.0,12,90,8.0,0.0
5037,64.0,0,90,7.0,0.0
5038,64.0,108,40,6.0,0.0
5039,61.0,0,40,6.0,0.0
5040,40.0,24,180,12.0,0.0
5041,64.0,0,90,7.0,0.0
5042,62.0,0,390,6.0,0.0
5043,74.0,96,90,1.0,0.0
5044,64.0,0,90,8.0,0.0
5045,59.0,24,390,6.0,0.0
5046,52.0,0,90,10.0,0.0
5047,83.0,0,90,0.0,0.0
5048,52.0,0,180,11.0,0.0
5049,64.0,0,90,8.0,0.0
5050,64.0,0,90,7.0,0.0
5051,52.0,72,90,10.0,0.0
5052,64.0,0,90,7.0,0.0
5053,83.0,24,180,0.0,0.0
5054,52.0,0,90,10.0,0.0
5055,71.0,48,40,6.0,0.0
5056,64.0,12,90,8.0,0.0
5057,74.0,0,180,1.0,0.0
5058,70.0,36,40,6.0,0.0
5059,52.0,0,90,10.0,0.0
5060,64.0,0,90,7.0,0.0
5061,64.0,12,90,8.0,0.0
5062,71.0,24,40,6.0,0.0
5063,69.0,108,40,6.0,0.0
5064,59.0,48,780,6.0,0.0
5065,62.0,0,780,6.0,0.0
5066,52.0,0,780,6.0,0.0
5067,68.0,96,90,6.0,0.0
5068,40.0,0,780,12.0,0.0
5069,68.0,0,780,7.0,0.0
5070,52.0,0,780,11.0,0.0
5071,62.0,0,780,8.0,0.0
5072,74.0,24,180,0.0,0.0
5073,68.0,0,180,1.0,0.0
5074,59.0,0,780,10.0,0.0
5075,69.0,120,90,6.0,0.0
5076,71.0,120,90,6.0,0.0
5077,73.0,120,90,6.0,0.0
5078,74.0,120,90,6.0,0.0
5079,76.0,72,90,6.0,0.0
5080,78.0,120,90,6.0,0.0
5081,80.0,120,90,6.0,0.0
5082,69.0,96,90,7.0,0.0
5083,57.0,0,180,6.0,0.0
5084,61.0,0,180,6.0,0.0
5085,81.0,0,390,0.0,0.0
5086,57.0,48,780,10.0,0.0
5087,81.0,0,180,6.0,0.0
5088,61.0,24,180,8.0,0.0
5089,57.0,0,180,11.0,0.0
5090,45.0,0,180,12.0,0.0
5091,69.0,48,390,1.0,0.0
5092,64.0,120,90,7.0,0.0
5093,45.0,0,180,12.0,0.0
5094,57.0,0,90,8.0,0.0
5095,57.0,24,180,11.0,0.0
5096,61.0,48,90,7.0,0.0
5097,64.0,120,90,7.0,0.0
5098,61.0,0,90,8.0,0.0
5099,57.0,24,180,11.0,0.0
5100,61.0,96,90,7.0,0.0
5101,45.0,0,180,12.0,0.0
5102,73.0,48,390,1.0,0.0
5103,57.0,0,90,8.0,0.0
5104,85.0,0,390,0.0,0.0
5105,61.0,72,90,8.0,0.0
5106,64.0,0,90,7.0,0.0
5107,57.0,0,180,11.0,0.0
5108,61.0,48,90,7.0,0.0
5109,45.0,24,180,12.0,0.0
5110,57.0,0,90,8.0,0.0
5111,61.0,0,90,8.0,0.0
5112,64.0,120,90,7.0,0.0
5113,57.0,48,780,10.0,0.0
5114,88.0,0,300,0.0,0.0
5115,76.0,48,300,1.0,0.0
5116,45.0,24,180,12.0,0.0
5117,57.0,0,90,8.0,0.0
5118,61.0,96,90,7.0,0.0
5119,57.0,0,180,11.0,0.0
5120,64.0,0,90,7.0,0.0
5121,61.0,72,90,8.0,0.0
5122,61.0,0,90,7.0,0.0
5123,57.0,24,180,11.0,0.0
5124,45.0,0,180,12.0,0.0
5125,57.0,96,90,8.0,0.0
5126,85.0,0,90,0.0,0.0
5127,64.0,120,90,7.0,0.0
5128,73.0,0,90,1.0,0.0
5129,61.0,0,90,8.0,0.0
5130,57.0,0,180,11.0,0.0
5131,81.0,24,180,0.0,0.0
5132,69.0,0,180,1.0,0.0
5133,61.0,0,90,7.0,0.0
5134,57.0,96,90,8.0,0.0
5135,45.0,0,180,12.0,0.0
5136,61.0,0,90,8.0,0.0
5137,64.0,72,90,7.0,0.0
5138,69.0,24,180,1.0,0.0
5139,57.0,0,180,11.0,0.0
5140,45.0,0,180,12.0,0.0
5141,57.0,96,90,8.0,0.0
5142,81.0,0,180,0.0,0.0
5143,61.0,0,90,7.0,0.0
5144,64.0,48,90,7.0,0.0
5145,61.0,0,90,8.0,0.0
5146,40.0,0,780,12.0,0.0
5147,71.0,0,20,7.0,0.0
5148,83.0,30,20,0.0,0.0
5149,76.0,0,1740,1.0,0.0
5150,52.0,48,780,11.0,0.0
5151,64.0,0,780,10.0,0.0
5152,58.0,108,90,8.0,0.0
5153,85.0,42,20,0.0,0.0
5154,73.0,0,20,7.0,0.0
5155,86.0,12,150,0.0,0.0
5156,74.0,0,150,7.0,0.0
5157,59.0,120,90,8.0,0.0
5158,73.0,0,90,7.0,0.0
5159,61.0,0,90,8.0,0.0
5160,85.0,120,90,0.0,0.0
5161,62.0,0,90,8.0,0.0
5162,71.0,120,90,7.0,0.0
5163,83.0,0,90,0.0,0.0
5164,82.0,0,90,0.0,0.0
5165,61.0,0,90,8.0,0.0
5166,70.0,120,90,7.0,0.0
5167,83.0,0,90,0.0,0.0
5168,62.0,72,90,8.0,0.0
5169,71.0,0,90,7.0,0.0
5170,70.0,0,90,7.0,0.0
5171,82.0,0,90,0.0,0.0
5172,61.0,120,90,8.0,0.0
5173,62.0,0,90,8.0,0.0
5174,83.0,48,90,0.0,0.0
5175,71.0,0,90,7.0,0.0
5176,64.0,0,780,10.0,0.0
5177,52.0,0,780,11.0,0.0
5178,40.0,48,780,12.0,0.0
5179,71.0,30,20,7.0,0.0
5180,83.0,0,20,0.0,0.0
5181,58.0,108,90,8.0,0.0
5182,73.0,42,20,7.0,0.0
5183,85.0,0,20,0.0,0.0
5184,86.0,0,150,0.0,0.0
5185,74.0,12,150,7.0,0.0
5186,59.0,120,90,8.0,0.0
5187,85.0,0,90,0.0,0.0
5188,61.0,0,90,8.0,0.0
5189,73.0,120,90,7.0,0.0
5190,71.0,0,90,7.0,0.0
5191,62.0,0,90,8.0,0.0
5192,83.0,120,90,0.0,0.0
5193,83.0,120,90,0.0,0.0
5194,71.0,0,90,7.0,0.0
5195,62.0,0,90,8.0,0.0
5196,69.0,0,90,7.0,0.0
5197,81.0,72,90,0.0,0.0
5198,61.0,0,90,8.0,0.0
5199,61.0,120,90,8.0,0.0
5200,81.0,0,90,0.0,0.0
5201,69.0,0,90,7.0,0.0
5202,59.0,120,90,8.0,0.0
5203,68.0,0,90,7.0,0.0
5204,80.0,0,90,0.0,0.0
5205,57.0,24,180,11.0,0.0
5206,57.0,48,780,6.0,0.0
5207,61.0,0,90,6.0,0.0
5208,69.0,96,90,6.0,0.0
5209,57.0,48,390,8.0,0.0
5210,69.0,0,390,7.0,0.0
5211,45.0,0,180,12.0,0.0
5212,57.0,48,1740,10.0,0.0
5213,64.0,0,90,6.0,0.0
5214,81.0,120,90,6.0,0.0
5215,61.0,0,90,6.0,0.0
5216,45.0,24,180,12.0,0.0
5217,81.0,48,90,6.0,0.0
5218,57.0,0,180,11.0,0.0
5219,81.0,0,90,6.0,0.0
5220,64.0,120,90,6.0,0.0
5221,57.0,0,180,11.0,0.0
5222,73.0,0,90,6.0,0.0
5223,61.0,48,390,8.0,0.0
5224,73.0,0,390,7.0,0.0
5225,45.0,24,180,12.0,0.0
5226,61.0,96,90,6.0,0.0
5227,85.0,0,90,6.0,0.0
5228,64.0,72,90,6.0,0.0
5229,85.0,0,90,6.0,0.0
5230,57.0,0,180,11.0,0.0
5231,45.0,24,180,12.0,0.0
5232,61.0,48,90,6.0,0.0
5233,64.0,0,90,6.0,0.0
5234,85.0,120,90,6.0,0.0
5235,57.0,0,780,6.0,0.0
5236,76.0,0,90,6.0,0.0
5237,61.0,96,90,6.0,0.0
5238,45.0,24,180,12.0,0.0
5239,76.0,48,300,7.0,0.0
5240,57.0,0,180,11.0,0.0
5241,64.0,0,300,8.0,0.0
5242,64.0,0,90,6.0,0.0
5243,88.0,72,90,6.0,0.0
5244,88.0,96,90,6.0,0.0
5245,45.0,24,180,12.0,0.0
5246,57.0,0,180,11.0,0.0
5247,61.0,0,90,6.0,0.0
5248,85.0,0,90,6.0,0.0
5249,61.0,0,90,8.0,0.0
5250,64.0,120,90,6.0,0.0
5251,73.0,0,90,7.0,0.0
5252,57.0,0,180,11.0,0.0
5253,69.0,0,180,7.0,0.0
5254,69.0,0,90,6.0,0.0
5255,57.0,0,180,8.0,0.0
5256,61.0,96,90,6.0,0.0
5257,45.0,24,180,12.0,0.0
5258,81.0,0,90,6.0,0.0
5259,64.0,72,90,6.0,0.0
5260,57.0,24,180,8.0,0.0
5261,69.0,0,180,7.0,0.0
5262,45.0,0,180,12.0,0.0
5263,69.0,0,90,6.0,0.0
5264,61.0,96,90,6.0,0.0
5265,57.0,0,180,11.0,0.0
5266,64.0,0,90,6.0,0.0
5267,81.0,48,90,6.0,0.0
5268,40.0,0,1740,12.0,0.0
5269,64.0,48,3660,10.0,0.0
5270,62.0,48,1740,8.0,0.0
5271,62.0,108,90,6.0,0.0
5272,52.0,48,780,6.0,0.0
5273,76.0,0,1740,0.0,0.0
5274,71.0,30,20,7.0,0.0
5275,52.0,0,1740,11.0,0.0
5276,83.0,0,20,6.0,0.0
5277,73.0,0,20,7.0,0.0
5278,85.0,42,20,6.0,0.0
5279,86.0,0,150,6.0,0.0
5280,74.0,12,150,7.0,0.0
5281,64.0,120,90,6.0,0.0
5282,85.0,0,90,6.0,0.0
5283,62.0,120,90,6.0,0.0
5284,73.0,0,90,7.0,0.0
5285,71.0,120,90,7.0,0.0
5286,83.0,0,90,6.0,0.0
5287,64.0,0,90,6.0,0.0
5288,62.0,0,90,6.0,0.0
5289,82.0,120,90,6.0,0.0
5290,70.0,0,90,7.0,0.0
5291,64.0,72,90,6.0,0.0
5292,83.0,0,90,6.0,0.0
5293,71.0,0,90,7.0,0.0
5294,70.0,0,90,7.0,0.0
5295,62.0,120,90,6.0,0.0
5296,82.0,0,90,6.0,0.0
5297,64.0,0,90,6.0,0.0
5298,71.0,48,90,7.0,0.0
5299,83.0,0,90,6.0,0.0
5300,83.0,30,20,6.0,0.0
5301,52.0,0,780,6.0,0.0
5302,62.0,108,90,6.0,0.0
5303,71.0,0,20,7.0,0.0
5304,85.0,0,20,6.0,0.0
5305,73.0,42,20,7.0,0.0
5306,86.0,12,150,6.0,0.0
5307,74.0,0,150,7.0,0.0
5308,64.0,120,90,6.0,0.0
5309,73.0,0,90,7.0,0.0
5310,85.0,0,90,6.0,0.0
5311,62.0,120,90,6.0,0.0
5312,71.0,120,90,7.0,0.0
5313,64.0,0,90,6.0,0.0
5314,83.0,0,90,6.0,0.0
5315,83.0,0,90,6.0,0.0
5316,71.0,0,90,7.0,0.0
5317,62.0,120,90,6.0,0.0
5318,81.0,0,90,6.0,0.0
5319,69.0,0,90,7.0,0.0
5320,64.0,72,90,6.0,0.0
5321,69.0,120,90,7.0,0.0
5322,81.0,0,90,6.0,0.0
5323,62.0,0,90,6.0,0.0
5324,68.0,0,90,7.0,0.0
5325,80.0,0,90,6.0,0.0
5326,64.0,120,90,6.0,0.0
5327,57.0,0,1740,3.0,0.0
5328,81.0,96,90,6.0,0.0
5329,69.0,0,90,7.0,0.0
5330,81.0,0,390,0.0,0.0
5331,45.0,0,180,12.0,0.0
5332,45.0,0,1740,3.0,0.0
5333,57.0,0,180,11.0,0.0
5334,57.0,72,390,2.0,0.0
5335,60.0,0,180,6.0,0.0
5336,60.0,0,180,8.0,0.0
5337,69.0,0,390,1.0,0.0
5338,57.0,24,180,6.0,0.0
5339,64.0,120,90,7.0,0.0
5340,60.0,48,90,7.0,0.0
5341,57.0,0,90,8.0,0.0
5342,88.0,0,90,6.0,0.0
5343,64.0,0,90,7.0,0.0
5344,60.0,120,90,8.0,0.0
5345,60.0,0,390,2.0,0.0
5346,72.0,0,390,1.0,0.0
5347,84.0,0,90,6.0,0.0
5348,57.0,0,90,8.0,0.0
5349,60.0,120,90,7.0,0.0
5350,84.0,72,390,0.0,0.0
5351,60.0,120,90,8.0,0.0
5352,64.0,0,90,7.0,0.0
5353,57.0,48,90,8.0,0.0
5354,60.0,0,90,7.0,0.0
5355,81.0,0,90,6.0,0.0
5356,64.0,120,90,7.0,0.0
5357,60.0,0,90,8.0,0.0
5358,76.0,120,90,6.0,0.0
5359,88.0,48,300,0.0,0.0
5360,57.0,0,90,8.0,0.0
5361,64.0,0,300,2.0,0.0
5362,60.0,0,90,7.0,0.0
5363,76.0,0,300,1.0,0.0
5364,64.0,72,90,7.0,0.0
5365,60.0,0,90,8.0,0.0
5366,60.0,0,90,7.0,0.0
5367,57.0,0,90,8.0,0.0
5368,72.0,120,90,6.0,0.0
5369,60.0,0,90,8.0,0.0
5370,84.0,0,90,0.0,0.0
5371,72.0,0,90,1.0,0.0
5372,64.0,0,90,7.0,0.0
5373,60.0,120,90,2.0,0.0
5374,60.0,0,90,7.0,0.0
5375,57.0,96,90,8.0,0.0
5376,57.0,0,180,2.0,0.0
5377,69.0,0,90,6.0,0.0
5378,81.0,24,180,0.0,0.0
5379,69.0,0,180,1.0,0.0
5380,64.0,0,90,7.0,0.0
5381,60.0,72,90,8.0,0.0
5382,60.0,96,90,7.0,0.0
5383,64.0,0,90,6.0,0.0
5384,69.0,24,180,1.0,0.0
5385,57.0,0,180,2.0,0.0
5386,57.0,0,90,8.0,0.0
5387,81.0,0,180,0.0,0.0
5388,60.0,408,90,8.0,0.0
5389,64.0,0,90,7.0,0.0
5390,64.0,0,390,6.0,0.0
5391,79.0,0,390,6.0,0.0
5392,72.0,0,390,6.0,0.0
5393,67.0,480,390,6.0,0.0
5394,60.0,0,390,6.0,0.0
5395,55.0,0,390,6.0,0.0
5396,52.0,0,390,6.0,0.0
5397,71.0,0,390,6.0,0.0
5398,67.0,480,390,6.0,0.0
5399,74.0,0,390,6.0,0.0
5400,77.0,0,390,6.0,0.0
5401,59.0,0,390,6.0,0.0
5402,53.0,0,390,6.0,0.0
5403,50.0,0,390,6.0,0.0
5404,62.0,0,390,6.0,0.0
5405,48.0,0,390,6.0,0.0
5406,64.0,0,390,6.0,0.0
5407,72.0,0,390,6.0,0.0
5408,76.0,0,390,6.0,0.0
5409,67.0,480,390,6.0,0.0
5410,60.0,0,390,6.0,0.0
5411,55.0,0,390,6.0,0.0
5412,52.0,0,390,6.0,0.0
5413,69.0,0,390,6.0,0.0
5414,65.0,0,390,6.0,0.0
5415,62.0,0,390,6.0,0.0
5416,41.0,0,390,6.0,0.0
5417,45.0,0,390,6.0,0.0
5418,74.0,0,390,6.0,0.0
5419,50.0,480,390,6.0,0.0
5420,53.0,0,390,6.0,0.0
5421,67.0,0,390,6.0,0.0
5422,64.0,0,390,6.0,0.0
5423,60.0,0,390,6.0,0.0
5424,55.0,0,390,6.0,0.0
5425,52.0,0,390,6.0,0.0
5426,48.0,0,390,6.0,0.0
5427,43.0,0,390,6.0,0.0
5428,72.0,480,390,6.0,0.0
5429,59.0,0,390,6.0,0.0
5430,56.0,0,390,6.0,0.0
5431,62.0,235,390,6.0,0.0
5432,47.0,0,390,6.0,0.0
5433,50.0,0,390,6.0,0.0
5434,44.0,0,390,6.0,0.0
5435,65.0,0,390,6.0,0.0
5436,71.0,0,390,6.0,0.0
5437,76.0,72,390,0.0,0.0
5438,45.0,19,180,6.0,0.0
5439,72.0,0,390,1.0,0.0
5440,57.0,0,180,6.0,0.0
5441,72.0,24,20,6.0,0.0
5442,74.0,24,20,6.0,0.0
5443,72.0,5,20,6.0,0.0
5444,71.0,24,20,6.0,0.0
5445,72.0,101,20,6.0,0.0
5446,76.0,48,90,6.0,0.0
5447,72.0,163,90,6.0,0.0
5448,59.0,0,180,6.0,0.0
5449,71.0,0,390,1.0,0.0
5450,74.0,72,390,0.0,0.0
5451,50.0,19,180,6.0,0.0
5452,71.0,24,20,6.0,0.0
5453,72.0,24,20,6.0,0.0
5454,71.0,5,20,6.0,0.0
5455,70.0,24,20,6.0,0.0
5456,71.0,101,20,6.0,0.0
5457,74.0,48,90,6.0,0.0
5458,71.0,163,90,6.0,0.0
5459,72.0,0,390,0.0,0.0
5460,52.0,19,180,6.0,0.0
5461,69.0,72,390,1.0,0.0
5462,60.0,0,180,6.0,0.0
5463,69.0,24,20,6.0,0.0
5464,71.0,24,20,6.0,0.0
5465,69.0,5,20,6.0,0.0
5466,68.0,24,20,6.0,0.0
5467,69.0,101,20,6.0,0.0
5468,72.0,48,90,6.0,0.0
5469,69.0,163,90,6.0,0.0
5470,52.0,0,180,6.0,0.0
5471,71.0,0,390,0.0,0.0
5472,59.0,19,180,6.0,0.0
5473,68.0,72,390,1.0,0.0
5474,68.0,24,20,6.0,0.0
5475,69.0,24,20,6.0,0.0
5476,68.0,5,20,6.0,0.0
5477,66.0,24,20,6.0,0.0
5478,68.0,101,20,6.0,0.0
5479,71.0,48,90,6.0,0.0
5480,68.0,120,90,6.0,0.0
5481,33.0,0,180,12.0,0.0
5482,57.0,0,180,6.0,0.0
5483,69.0,0,180,1.0,0.0
5484,61.0,0,180,10.0,0.0
5485,45.0,0,180,2.0,0.0
5486,69.0,0,180,0.0,0.0
5487,57.0,96,90,7.0,0.0
5488,69.0,0,180,6.0,0.0
5489,45.0,120,180,11.0,0.0
5490,69.0,120,180,7.0,0.0
5491,47.0,0,180,2.0,0.0
5492,47.0,0,180,11.0,0.0
5493,62.0,0,180,10.0,0.0
5494,35.0,120,180,12.0,0.0
5495,69.0,120,180,7.0,0.0
5496,37.0,0,180,12.0,0.0
5497,49.0,120,180,2.0,0.0
5498,49.0,0,180,11.0,0.0
5499,64.0,0,180,10.0,0.0
5500,69.0,120,180,7.0,0.0
5501,66.0,144,180,10.0,0.0
5502,50.0,0,180,2.0,0.0
5503,50.0,0,180,11.0,0.0
5504,38.0,0,180,12.0,0.0
5505,69.0,96,210,7.0,0.0
5506,64.0,0,90,8.0,0.0
5507,40.0,0,180,12.0,0.0
5508,59.0,48,390,10.0,0.0
5509,52.0,0,180,11.0,0.0
5510,52.0,120,180,2.0,0.0
5511,64.0,0,180,8.0,0.0
5512,68.0,72,180,7.0,0.0
5513,50.0,0,180,11.0,0.0
5514,38.0,0,180,12.0,0.0
5515,50.0,120,180,2.0,0.0
5516,64.0,0,180,8.0,0.0
5517,67.0,120,180,7.0,0.0
5518,37.0,120,180,12.0,0.0
5519,57.0,0,180,10.0,0.0
5520,49.0,0,180,2.0,0.0
5521,49.0,0,180,11.0,0.0
5522,64.0,120,180,8.0,0.0
5523,67.0,0,180,7.0,0.0
5524,36.0,0,180,12.0,0.0
5525,48.0,0,180,11.0,0.0
5526,58.0,0,180,10.0,0.0
5527,48.0,96,180,2.0,0.0
5528,67.0,12,210,7.0,0.0
5529,64.0,0,210,8.0,0.0
5530,47.0,0,180,2.0,0.0
5531,47.0,36,180,11.0,0.0
5532,59.0,24,780,10.0,0.0
5533,35.0,0,180,12.0,0.0
5534,47.0,48,40,6.0,0.0
5535,59.0,60,40,6.0,0.0
5536,62.0,36,180,8.0,0.0
5537,66.0,0,180,7.0,0.0
5538,58.0,24,40,6.0,0.0
5539,59.0,60,40,6.0,0.0
5540,57.0,0,180,11.0,0.0
5541,57.0,36,180,2.0,0.0
5542,45.0,24,40,6.0,0.0
5543,45.0,0,180,12.0,0.0
5544,57.0,60,40,6.0,0.0
5545,63.0,0,180,8.0,0.0
5546,56.0,24,40,6.0,0.0
5547,71.0,36,180,7.0,0.0
5548,57.0,60,40,6.0,0.0
5549,44.0,24,40,6.0,0.0
5550,44.0,0,180,12.0,0.0
5551,56.0,0,180,11.0,0.0
5552,56.0,36,180,2.0,0.0
5553,56.0,60,40,6.0,0.0
5554,54.0,24,40,6.0,0.0
5555,64.0,0,180,8.0,0.0
5556,71.0,36,180,7.0,0.0
5557,56.0,60,40,6.0,0.0
5558,55.0,0,180,11.0,0.0
5559,55.0,36,180,2.0,0.0
5560,43.0,0,40,6.0,0.0
5561,43.0,0,180,12.0,0.0
5562,55.0,60,40,6.0,0.0
5563,65.0,0,210,8.0,0.0
5564,71.0,12,210,7.0,0.0
5565,54.0,24,40,6.0,0.0
5566,55.0,60,40,6.0,0.0
5567,54.0,0,180,2.0,0.0
5568,54.0,0,180,11.0,0.0
5569,42.0,48,40,6.0,0.0
5570,42.0,36,180,12.0,0.0
5571,61.0,24,390,10.0,0.0
5572,54.0,60,40,6.0,0.0
5573,66.0,36,180,8.0,0.0
5574,70.0,0,180,7.0,0.0
5575,53.0,24,40,6.0,0.0
5576,54.0,60,40,6.0,0.0
5577,52.0,0,180,11.0,0.0
5578,52.0,36,180,2.0,0.0
5579,40.0,0,180,12.0,0.0
5580,40.0,24,40,6.0,0.0
5581,52.0,36,40,6.0,0.0
5582,69.0,36,180,7.0,0.0
5583,66.0,0,180,8.0,0.0
5584,51.0,24,40,6.0,0.0
5585,52.0,60,40,6.0,0.0
5586,59.0,0,180,10.0,0.0
5587,51.0,0,180,11.0,0.0
5588,39.0,36,180,12.0,0.0
5589,39.0,24,40,6.0,0.0
5590,51.0,0,180,2.0,0.0
5591,51.0,60,40,6.0,0.0
5592,66.0,36,180,8.0,0.0
5593,49.0,24,40,6.0,0.0
5594,69.0,0,180,7.0,0.0
5595,51.0,60,40,6.0,0.0
5596,60.0,0,180,10.0,0.0
5597,50.0,36,180,2.0,0.0
5598,50.0,0,180,11.0,0.0
5599,38.0,0,180,12.0,0.0
5600,38.0,24,40,6.0,0.0
5601,50.0,60,40,6.0,0.0
5602,69.0,0,210,7.0,0.0
5603,49.0,24,40,6.0,0.0
5604,66.0,12,210,8.0,0.0
5605,50.0,60,40,6.0,0.0
5606,37.0,48,40,6.0,0.0
5607,37.0,36,180,12.0,0.0
5608,61.0,24,780,10.0,0.0
5609,49.0,0,180,11.0,0.0
5610,49.0,0,180,2.0,0.0
5611,49.0,60,40,6.0,0.0
5612,48.0,24,40,6.0,0.0
5613,64.0,0,180,8.0,0.0
5614,67.0,36,180,7.0,0.0
5615,49.0,60,40,6.0,0.0
5616,35.0,24,40,6.0,0.0
5617,59.0,0,180,2.0,0.0
5618,47.0,0,180,12.0,0.0
5619,59.0,36,180,11.0,0.0
5620,47.0,60,40,6.0,0.0
5621,73.0,0,180,7.0,0.0
5622,46.0,24,40,6.0,0.0
5623,65.0,36,180,8.0,0.0
5624,47.0,60,40,6.0,0.0
5625,58.0,36,180,11.0,0.0
5626,34.0,24,40,6.0,0.0
5627,46.0,0,180,12.0,0.0
5628,58.0,0,180,2.0,0.0
5629,46.0,60,40,6.0,0.0
5630,66.0,0,180,8.0,0.0
5631,73.0,36,180,7.0,0.0
5632,44.0,24,40,6.0,0.0
5633,46.0,60,40,6.0,0.0
5634,57.0,0,180,11.0,0.0
5635,57.0,0,180,2.0,0.0
5636,45.0,36,180,12.0,0.0
5637,33.0,0,40,6.0,0.0
5638,45.0,60,40,6.0,0.0
5639,67.0,12,210,8.0,0.0
5640,44.0,24,40,6.0,0.0
5641,73.0,0,210,7.0,0.0
5642,45.0,108,40,6.0,0.0
5643,56.0,36,180,11.0,0.0
5644,44.0,0,180,6.0,0.0
5645,56.0,0,180,2.0,0.0
5646,44.0,0,180,12.0,0.0
5647,63.0,0,180,10.0,0.0
5648,68.0,60,40,6.0,0.0
5649,72.0,0,180,7.0,0.0
5650,68.0,36,180,8.0,0.0
5651,72.0,24,40,6.0,0.0
5652,75.0,60,40,6.0,0.0
5653,54.0,36,180,2.0,0.0
5654,54.0,0,180,11.0,0.0
5655,80.0,24,40,6.0,0.0
5656,56.0,24,390,10.0,0.0
5657,42.0,0,180,12.0,0.0
5658,54.0,0,180,6.0,0.0
5659,68.0,60,40,6.0,0.0
5660,62.0,0,180,8.0,0.0
5661,71.0,36,180,7.0,0.0
5662,71.0,24,40,6.0,0.0
5663,74.0,69,40,6.0,0.0
5664,53.0,0,180,2.0,0.0
5665,53.0,0,180,11.0,0.0
5666,53.0,0,180,6.0,0.0
5667,41.0,24,180,12.0,0.0
5668,80.0,15,60,6.0,0.0
5669,73.0,36,40,6.0,0.0
5670,77.0,24,40,6.0,0.0
5671,61.0,12,90,8.0,0.0
5672,71.0,24,180,7.0,0.0
5673,80.0,60,40,6.0,0.0
5674,49.0,36,180,2.0,0.0
5675,64.0,12,90,8.0,0.0
5676,49.0,0,180,11.0,0.0
5677,49.0,0,180,6.0,0.0
5678,61.0,0,420,10.0,0.0
5679,85.0,24,40,6.0,0.0
5680,37.0,0,180,12.0,0.0
5681,80.0,60,40,6.0,0.0
5682,71.0,0,210,7.0,0.0
5683,68.0,12,210,8.0,0.0
5684,77.0,24,40,6.0,0.0
5685,73.0,108,40,6.0,0.0
5686,54.0,0,180,11.0,0.0
5687,54.0,0,180,2.0,0.0
5688,42.0,36,180,6.0,0.0
5689,42.0,0,180,12.0,0.0
5690,66.0,60,40,6.0,0.0
5691,70.0,0,180,7.0,0.0
5692,66.0,36,180,8.0,0.0
5693,70.0,24,40,6.0,0.0
5694,73.0,60,40,6.0,0.0
5695,52.0,36,180,2.0,0.0
5696,78.0,24,40,6.0,0.0
5697,40.0,0,180,12.0,0.0
5698,52.0,0,180,6.0,0.0
5699,54.0,24,390,10.0,0.0
5700,52.0,0,180,11.0,0.0
5701,66.0,60,40,6.0,0.0
5702,60.0,36,180,8.0,0.0
5703,69.0,24,40,6.0,0.0
5704,69.0,0,180,7.0,0.0
5705,72.0,69,40,6.0,0.0
5706,51.0,0,180,11.0,0.0
5707,78.0,15,60,6.0,0.0
5708,51.0,0,180,6.0,0.0
5709,39.0,0,180,12.0,0.0
5710,51.0,24,180,2.0,0.0
5711,71.0,36,40,6.0,0.0
5712,69.0,24,180,7.0,0.0
5713,75.0,24,40,6.0,0.0
5714,59.0,12,90,8.0,0.0
5715,78.0,60,40,6.0,0.0
5716,63.0,12,90,8.0,0.0
5717,47.0,0,180,2.0,0.0
5718,47.0,36,180,11.0,0.0
5719,35.0,0,180,12.0,0.0
5720,59.0,36,420,10.0,0.0
5721,83.0,24,40,6.0,0.0
5722,47.0,0,180,6.0,0.0
5723,78.0,60,40,6.0,0.0
5724,75.0,24,40,6.0,0.0
5725,66.0,12,210,8.0,0.0
5726,69.0,0,210,7.0,0.0
5727,71.0,108,40,6.0,0.0
5728,52.0,0,180,2.0,0.0
5729,40.0,0,180,6.0,0.0
5730,52.0,0,180,11.0,0.0
5731,40.0,0,180,12.0,0.0
5732,64.0,60,40,6.0,0.0
5733,68.0,24,40,6.0,0.0
5734,68.0,36,180,7.0,0.0
5735,64.0,0,180,8.0,0.0
5736,71.0,60,40,6.0,0.0
5737,50.0,0,180,2.0,0.0
5738,76.0,24,40,6.0,0.0
5739,52.0,24,390,10.0,0.0
5740,50.0,0,180,11.0,0.0
5741,50.0,36,180,6.0,0.0
5742,38.0,0,180,12.0,0.0
5743,64.0,60,40,6.0,0.0
5744,58.0,36,180,8.0,0.0
5745,67.0,24,40,6.0,0.0
5746,67.0,0,180,7.0,0.0
5747,70.0,69,40,6.0,0.0
5748,49.0,0,180,11.0,0.0
5749,49.0,24,180,6.0,0.0
5750,49.0,0,180,2.0,0.0
5751,37.0,0,180,12.0,0.0
5752,76.0,15,60,6.0,0.0
5753,69.0,36,40,6.0,0.0
5754,57.0,12,90,8.0,0.0
5755,73.0,24,40,6.0,0.0
5756,67.0,24,180,7.0,0.0
5757,76.0,60,40,6.0,0.0
5758,33.0,0,180,12.0,0.0
5759,57.0,0,420,10.0,0.0
5760,45.0,0,180,2.0,0.0
5761,45.0,36,180,11.0,0.0
5762,45.0,0,180,6.0,0.0
5763,61.0,12,90,8.0,0.0
5764,81.0,24,40,6.0,0.0
5765,76.0,60,40,6.0,0.0
5766,64.0,0,210,8.0,0.0
5767,67.0,12,210,7.0,0.0
5768,73.0,24,40,6.0,0.0
5769,69.0,108,40,6.0,0.0
5770,50.0,0,180,2.0,0.0
5771,50.0,36,180,6.0,0.0
5772,50.0,0,180,11.0,0.0
5773,38.0,0,180,12.0,0.0
5774,69.0,60,40,6.0,0.0
5775,66.0,0,180,7.0,0.0
5776,62.0,36,180,8.0,0.0
5777,78.0,24,40,6.0,0.0
5778,74.0,84,40,6.0,0.0
5779,50.0,36,180,11.0,0.0
5780,66.0,0,180,10.0,0.0
5781,38.0,0,180,12.0,0.0
5782,50.0,0,180,6.0,0.0
5783,50.0,0,180,2.0,0.0
5784,66.0,60,40,6.0,0.0
5785,62.0,0,180,8.0,0.0
5786,71.0,36,180,7.0,0.0
5787,74.0,24,40,6.0,0.0
5788,71.0,84,40,6.0,0.0
5789,52.0,0,180,11.0,0.0
5790,64.0,0,180,10.0,0.0
5791,52.0,0,180,2.0,0.0
5792,40.0,0,180,12.0,0.0
5793,52.0,36,180,6.0,0.0
5794,64.0,60,40,6.0,0.0
5795,69.0,36,180,7.0,0.0
5796,73.0,24,40,6.0,0.0
5797,61.0,0,180,8.0,0.0
5798,69.0,84,40,6.0,0.0
5799,52.0,0,180,2.0,0.0
5800,52.0,0,180,11.0,0.0
5801,40.0,0,180,12.0,0.0
5802,64.0,24,180,10.0,0.0
5803,52.0,0,180,6.0,0.0
5804,62.0,60,40,6.0,0.0
5805,59.0,0,90,8.0,0.0
5806,71.0,24,40,6.0,0.0
5807,68.0,12,90,7.0,0.0
5808,68.0,108,40,6.0,0.0
5809,33.0,0,180,12.0,0.0
5810,45.0,24,180,2.0,0.0
5811,45.0,0,180,11.0,0.0
5812,69.0,12,90,7.0,0.0
5813,64.0,0,180,10.0,0.0
5814,45.0,0,180,6.0,0.0
5815,61.0,0,90,8.0,0.0
5816,57.0,60,40,6.0,0.0
5817,57.0,12,90,8.0,0.0
5818,59.0,24,40,6.0,0.0
5819,69.0,0,90,7.0,0.0
5820,61.0,60,40,6.0,0.0
5821,81.0,0,90,7.0,0.0
5822,69.0,12,90,8.0,0.0
5823,62.0,48,40,6.0,0.0
5824,64.0,60,40,6.0,0.0
5825,81.0,0,90,7.0,0.0
5826,69.0,12,90,8.0,0.0
5827,66.0,48,40,6.0,0.0
5828,68.0,60,40,6.0,0.0
5829,69.0,48,40,6.0,0.0
5830,69.0,0,90,8.0,0.0
5831,81.0,12,90,7.0,0.0
5832,71.0,60,40,6.0,0.0
5833,81.0,0,90,7.0,0.0
5834,73.0,48,40,6.0,0.0
5835,69.0,12,90,8.0,0.0
5836,74.0,60,40,6.0,0.0
5837,76.0,48,40,6.0,0.0
5838,81.0,0,90,7.0,0.0
5839,69.0,12,90,8.0,0.0
5840,78.0,60,40,6.0,0.0
5841,69.0,12,90,8.0,0.0
5842,81.0,0,90,7.0,0.0
5843,80.0,48,40,6.0,0.0
5844,81.0,120,40,6.0,0.0
5845,80.0,0,390,7.0,0.0
5846,80.0,0,390,6.0,0.0
5847,68.0,24,390,8.0,0.0
5848,40.0,60,40,6.0,0.0
5849,52.0,12,90,10.0,0.0
5850,52.0,0,90,11.0,0.0
5851,40.0,0,90,12.0,0.0
5852,42.0,48,40,6.0,0.0
5853,44.0,60,40,6.0,0.0
5854,64.0,0,90,11.0,0.0
5855,64.0,12,90,10.0,0.0
5856,45.0,48,40,6.0,0.0
5857,52.0,0,90,12.0,0.0
5858,47.0,36,40,6.0,0.0
5859,52.0,12,90,12.0,0.0
5860,64.0,0,90,10.0,0.0
5861,64.0,0,90,11.0,0.0
5862,49.0,48,40,6.0,0.0
5863,51.0,60,40,6.0,0.0
5864,52.0,48,40,6.0,0.0
5865,79.0,0,390,6.0,0.0
5866,64.0,0,90,11.0,0.0
5867,64.0,0,90,10.0,0.0
5868,52.0,12,90,12.0,0.0
5869,67.0,24,390,8.0,0.0
5870,79.0,0,390,7.0,0.0
5871,54.0,60,40,6.0,0.0
5872,64.0,12,90,10.0,0.0
5873,64.0,0,90,11.0,0.0
5874,55.0,48,40,6.0,0.0
5875,52.0,0,90,12.0,0.0
5876,57.0,60,40,6.0,0.0
5877,52.0,0,90,12.0,0.0
5878,64.0,0,90,10.0,0.0
5879,59.0,48,40,6.0,0.0
5880,64.0,12,90,11.0,0.0
5881,61.0,36,40,6.0,0.0
5882,64.0,0,90,11.0,0.0
5883,52.0,0,90,12.0,0.0
5884,64.0,12,90,10.0,0.0
5885,63.0,48,40,6.0,0.0
5886,64.0,108,40,6.0,0.0
5887,63.0,0,390,11.0,0.0
5888,63.0,0,390,10.0,0.0
5889,78.0,12,90,7.0,0.0
5890,63.0,0,390,6.0,0.0
5891,51.0,24,390,12.0,0.0
5892,66.0,0,90,8.0,0.0
5893,71.0,60,40,6.0,0.0
5894,71.0,12,90,7.0,0.0
5895,59.0,0,90,8.0,0.0
5896,70.0,48,40,6.0,0.0
5897,71.0,60,40,6.0,0.0
5898,71.0,12,90,8.0,0.0
5899,83.0,0,90,7.0,0.0
5900,72.0,48,40,6.0,0.0
5901,73.0,36,40,6.0,0.0
5902,71.0,0,90,8.0,0.0
5903,83.0,12,90,7.0,0.0
5904,74.0,48,40,6.0,0.0
5905,75.0,60,40,6.0,0.0
5906,62.0,0,390,6.0,0.0
5907,62.0,0,390,11.0,0.0
5908,62.0,0,390,10.0,0.0
5909,76.0,48,40,6.0,0.0
5910,50.0,24,390,12.0,0.0
5911,83.0,0,90,7.0,0.0
5912,71.0,12,90,8.0,0.0
5913,77.0,60,40,6.0,0.0
5914,71.0,0,90,8.0,0.0
5915,83.0,12,90,7.0,0.0
5916,78.0,48,40,6.0,0.0
5917,79.0,60,40,6.0,0.0
5918,71.0,12,90,8.0,0.0
5919,80.0,48,40,6.0,0.0
5920,83.0,0,90,7.0,0.0
5921,81.0,36,40,6.0,0.0
5922,82.0,48,40,6.0,0.0
5923,83.0,12,90,7.0,0.0
5924,71.0,0,90,8.0,0.0
5925,83.0,108,40,6.0,0.0
5926,82.0,24,390,6.0,0.0
5927,61.0,12,90,10.0,0.0
5928,70.0,0,390,8.0,0.0
5929,61.0,0,90,11.0,0.0
5930,49.0,0,90,12.0,0.0
5931,82.0,0,390,7.0,0.0
5932,54.0,60,40,6.0,0.0
5933,42.0,0,90,12.0,0.0
5934,54.0,0,90,11.0,0.0
5935,54.0,12,90,10.0,0.0
5936,53.0,48,40,6.0,0.0
5937,54.0,60,40,6.0,0.0
5938,54.0,0,90,12.0,0.0
5939,66.0,0,90,11.0,0.0
5940,66.0,12,90,10.0,0.0
5941,55.0,48,40,6.0,0.0
5942,56.0,36,40,6.0,0.0
5943,57.0,48,40,6.0,0.0
5944,66.0,0,90,11.0,0.0
5945,54.0,12,90,12.0,0.0
5946,66.0,0,90,10.0,0.0
5947,58.0,60,40,6.0,0.0
5948,66.0,0,90,10.0,0.0
5949,81.0,0,390,7.0,0.0
5950,54.0,0,90,12.0,0.0
5951,81.0,24,390,6.0,0.0
5952,59.0,48,40,6.0,0.0
5953,66.0,12,90,11.0,0.0
5954,69.0,0,390,8.0,0.0
5955,60.0,60,40,6.0,0.0
5956,54.0,12,90,12.0,0.0
5957,66.0,0,90,11.0,0.0
5958,66.0,0,90,10.0,0.0
5959,61.0,48,40,6.0,0.0
5960,62.0,60,40,6.0,0.0
5961,63.0,48,40,6.0,0.0
5962,66.0,0,90,11.0,0.0
5963,66.0,12,90,10.0,0.0
5964,54.0,0,90,12.0,0.0
5965,64.0,36,40,6.0,0.0
5966,54.0,0,90,12.0,0.0
5967,66.0,0,90,11.0,0.0
5968,66.0,12,90,10.0,0.0
5969,65.0,48,40,6.0,0.0
5970,66.0,108,40,6.0,0.0
5971,68.0,0,90,8.0,0.0
5972,65.0,0,390,11.0,0.0
5973,65.0,0,390,6.0,0.0
5974,53.0,24,390,12.0,0.0
5975,65.0,0,390,10.0,0.0
5976,80.0,12,90,7.0,0.0
5977,73.0,60,40,6.0,0.0
5978,72.0,48,40,6.0,0.0
5979,61.0,12,90,8.0,0.0
5980,73.0,0,90,7.0,0.0
5981,73.0,60,40,6.0,0.0
5982,74.0,48,40,6.0,0.0
5983,73.0,0,90,8.0,0.0
5984,85.0,12,90,7.0,0.0
5985,75.0,36,40,6.0,0.0
5986,76.0,48,40,6.0,0.0
5987,85.0,0,90,7.0,0.0
5988,73.0,12,90,8.0,0.0
5989,77.0,60,40,6.0,0.0
5990,85.0,0,90,7.0,0.0
5991,78.0,48,40,6.0,0.0
5992,52.0,0,390,12.0,0.0
5993,64.0,0,390,6.0,0.0
5994,64.0,0,390,10.0,0.0
5995,73.0,12,90,8.0,0.0
5996,64.0,24,390,11.0,0.0
5997,79.0,60,40,6.0,0.0
5998,73.0,12,90,8.0,0.0
5999,80.0,48,40,6.0,0.0
6000,85.0,0,90,7.0,0.0
6001,81.0,60,40,6.0,0.0
6002,73.0,0,90,8.0,0.0
6003,85.0,12,90,7.0,0.0
6004,82.0,48,40,6.0,0.0
6005,83.0,36,40,6.0,0.0
6006,85.0,0,90,7.0,0.0
6007,73.0,12,90,8.0,0.0
6008,84.0,48,40,6.0,0.0
6009,85.0,60,40,6.0,0.0
6010,52.0,0,180,11.0,0.0
6011,40.0,0,180,12.0,0.0
6012,86.0,60,40,6.0,0.0
6013,86.0,0,180,7.0,0.0
6014,71.0,36,180,10.0,0.0
6015,80.0,0,180,8.0,0.0
6016,56.0,0,390,6.0,0.0
6017,52.0,0,390,6.0,0.0
6018,59.0,24,390,6.0,0.0
6019,85.0,60,40,6.0,0.0
6020,83.0,24,40,6.0,0.0
6021,81.0,60,40,6.0,0.0
6022,80.0,60,40,6.0,0.0
6023,78.0,36,40,6.0,0.0
6024,76.0,60,40,6.0,0.0
6025,74.0,60,40,6.0,0.0
6026,69.0,0,180,10.0,0.0
6027,54.0,24,390,6.0,0.0
6028,85.0,0,180,7.0,0.0
6029,81.0,36,180,8.0,0.0
6030,54.0,0,180,11.0,0.0
6031,42.0,0,180,12.0,0.0
6032,57.0,0,390,6.0,0.0
6033,73.0,60,40,6.0,0.0
6034,71.0,60,40,6.0,0.0
6035,69.0,24,40,6.0,0.0
6036,68.0,60,40,6.0,0.0
6037,66.0,60,40,6.0,0.0
6038,64.0,36,40,6.0,0.0
6039,62.0,60,40,6.0,0.0
6040,61.0,76,40,6.0,0.0
6041,78.0,0,3660,1.0,0.0
6042,62.0,0,3660,3.0,0.0
6043,38.0,0,180,12.0,0.0
6044,83.0,0,180,7.0,0.0
6045,78.0,0,180,8.0,0.0
6046,62.0,0,180,10.0,0.0
6047,71.0,0,3660,1.0,0.0
6048,83.0,0,3660,0.0,0.0
6049,50.0,16,3660,3.0,0.0
6050,59.0,80,60,6.0,0.0
6051,50.0,32,180,11.0,0.0
6052,50.0,48,60,6.0,0.0
6053,38.0,0,60,6.0,0.0
6054,42.0,80,60,6.0,0.0
6055,54.0,0,60,6.0,0.0
6056,59.0,0,60,6.0,0.0
6057,47.0,80,60,6.0,0.0
6058,42.0,80,60,6.0,0.0
6059,54.0,0,60,6.0,0.0
6060,47.0,80,60,6.0,0.0
6061,59.0,0,60,6.0,0.0
6062,62.0,0,60,6.0,0.0
6063,50.0,80,60,6.0,0.0
6064,42.0,80,60,6.0,0.0
6065,54.0,0,60,6.0,0.0
6066,47.0,80,60,6.0,0.0
6067,59.0,0,60,6.0,0.0
6068,62.0,80,60,6.0,0.0
6069,50.0,0,60,6.0,0.0
6070,47.0,80,60,6.0,0.0
6071,59.0,0,60,6.0,0.0
6072,50.0,0,60,6.0,0.0
6073,62.0,80,60,6.0,0.0
6074,66.0,0,60,6.0,0.0
6075,54.0,80,60,6.0,0.0
6076,59.0,0,60,6.0,0.0
6077,47.0,80,60,6.0,0.0
6078,62.0,80,60,6.0,0.0
6079,50.0,0,60,6.0,0.0
6080,66.0,80,60,6.0,0.0
6081,54.0,0,60,6.0,0.0
6082,62.0,80,60,6.0,0.0
6083,50.0,0,60,6.0,0.0
6084,54.0,0,60,6.0,0.0
6085,66.0,80,60,6.0,0.0
6086,71.0,80,60,6.0,0.0
6087,59.0,0,60,6.0,0.0
6088,50.0,0,60,6.0,0.0
6089,62.0,80,60,6.0,0.0
6090,66.0,80,60,6.0,0.0
6091,54.0,0,60,6.0,0.0
6092,59.0,80,60,6.0,0.0
6093,71.0,0,60,6.0,0.0
6094,66.0,80,60,6.0,0.0
6095,54.0,0,60,6.0,0.0
6096,71.0,80,60,6.0,0.0
6097,59.0,0,60,6.0,0.0
6098,62.0,32,180,6.0,0.0
6099,74.0,80,60,6.0,0.0
6100,66.0,48,60,6.0,0.0
6101,71.0,80,60,6.0,0.0
6102,74.0,32,60,6.0,0.0
6103,59.0,48,90,7.0,0.0
6104,71.0,80,60,6.0,0.0
6105,74.0,80,60,6.0,0.0
6106,78.0,32,60,6.0,0.0
6107,62.0,0,90,7.0,0.0
6108,59.0,48,90,8.0,0.0
6109,71.0,80,60,6.0,0.0
6110,74.0,80,60,6.0,0.0
6111,66.0,0,90,7.0,0.0
6112,62.0,48,90,8.0,0.0
6113,78.0,32,60,6.0,0.0
6114,74.0,80,60,6.0,0.0
6115,78.0,80,60,6.0,0.0
6116,71.0,0,90,7.0,0.0
6117,66.0,48,90,8.0,0.0
6118,83.0,32,60,6.0,0.0
6119,74.0,80,60,6.0,0.0
6120,78.0,80,60,6.0,0.0
6121,74.0,48,90,7.0,0.0
6122,71.0,0,90,8.0,0.0
6123,83.0,32,60,6.0,0.0
6124,78.0,80,60,6.0,0.0
6125,83.0,80,60,6.0,0.0
6126,74.0,0,90,8.0,0.0
6127,86.0,32,60,6.0,0.0
6128,78.0,48,90,7.0,0.0
6129,83.0,80,60,6.0,0.0
6130,78.0,64,60,6.0,0.0
6131,78.0,0,90,8.0,0.0
6132,83.0,48,90,7.0,0.0
6133,83.0,32,60,6.0,0.0
6134,78.0,80,60,6.0,0.0
6135,74.0,80,60,6.0,0.0
6136,45.0,0,1740,3.0,0.0
6137,57.0,0,1740,3.0,0.0
6138,51.0,16,780,11.0,0.0
6139,84.0,32,180,7.0,0.0
6140,72.0,0,180,10.0,0.0
6141,69.0,0,180,10.0,0.0
6142,81.0,0,180,8.0,0.0
6143,39.0,80,60,6.0,0.0
6144,39.0,0,780,12.0,0.0
6145,84.0,0,60,6.0,0.0
6146,81.0,48,60,6.0,0.0
6147,42.0,0,60,6.0,0.0
6148,78.0,80,60,6.0,0.0
6149,45.0,0,60,6.0,0.0
6150,48.0,32,60,6.0,0.0
6151,75.0,0,60,6.0,0.0
6152,69.0,0,90,10.0,0.0
6153,66.0,0,90,10.0,0.0
6154,78.0,0,90,8.0,0.0
6155,81.0,48,90,7.0,0.0
6156,51.0,80,60,6.0,0.0
6157,72.0,0,60,6.0,0.0
6158,69.0,0,60,6.0,0.0
6159,54.0,80,60,6.0,0.0
6160,81.0,0,180,1.0,0.0
6161,57.0,0,60,6.0,0.0
6162,84.0,0,180,1.0,0.0
6163,60.0,32,180,2.0,0.0
6164,66.0,80,60,6.0,0.0
6165,84.0,0,180,0.0,0.0
6166,57.0,0,180,2.0,0.0
6167,69.0,48,60,6.0,0.0
6168,54.0,0,60,6.0,0.0
6169,51.0,0,60,6.0,0.0
6170,72.0,64,60,6.0,0.0
6171,57.0,0,90,2.0,0.0
6172,54.0,0,90,2.0,0.0
6173,81.0,0,90,1.0,0.0
6174,78.0,48,90,1.0,0.0
6175,48.0,0,60,6.0,0.0
6176,81.0,0,90,0.0,0.0
6177,75.0,32,60,6.0,0.0
6178,78.0,0,60,6.0,0.0
6179,45.0,80,60,6.0,0.0
6180,81.0,0,60,6.0,0.0
6181,42.0,80,60,6.0,0.0
6182,39.0,80,60,6.0,0.0
6183,81.0,0,180,8.0,0.0
6184,72.0,0,180,10.0,0.0
6185,69.0,0,180,10.0,0.0
6186,51.0,0,780,11.0,0.0
6187,84.0,32,180,7.0,0.0
6188,39.0,16,780,12.0,0.0
6189,84.0,0,60,6.0,0.0
6190,81.0,48,60,6.0,0.0
6191,42.0,0,60,6.0,0.0
6192,78.0,0,60,6.0,0.0
6193,45.0,80,60,6.0,0.0
6194,66.0,0,90,10.0,0.0
6195,69.0,48,90,10.0,0.0
6196,78.0,0,90,8.0,0.0
6197,75.0,0,60,6.0,0.0
6198,81.0,0,90,7.0,0.0
6199,48.0,32,60,6.0,0.0
6200,72.0,0,60,6.0,0.0
6201,51.0,80,60,6.0,0.0
6202,54.0,80,60,6.0,0.0
6203,69.0,0,60,6.0,0.0
6204,57.0,0,180,2.0,0.0
6205,60.0,0,180,2.0,0.0
6206,81.0,32,180,1.0,0.0
6207,84.0,0,180,1.0,0.0
6208,66.0,80,60,6.0,0.0
6209,57.0,0,60,6.0,0.0
6210,84.0,0,180,0.0,0.0
6211,69.0,0,60,6.0,0.0
6212,54.0,48,60,6.0,0.0
6213,72.0,0,60,6.0,0.0
6214,51.0,64,60,6.0,0.0
6215,81.0,48,90,0.0,0.0
6216,48.0,32,60,6.0,0.0
6217,78.0,0,90,1.0,0.0
6218,81.0,0,90,1.0,0.0
6219,57.0,0,90,2.0,0.0
6220,54.0,0,90,2.0,0.0
6221,75.0,0,60,6.0,0.0
6222,45.0,0,60,6.0,0.0
6223,78.0,80,60,6.0,0.0
6224,42.0,0,60,6.0,0.0
6225,81.0,80,60,6.0,0.0
6226,84.0,80,60,6.0,0.0
6227,39.0,0,180,6.0,0.0
6228,60.0,32,180,10.0,0.0
6229,51.0,0,180,11.0,0.0
6230,39.0,0,180,12.0,0.0
6231,80.0,48,60,6.0,0.0
6232,81.0,80,60,6.0,0.0
6233,66.0,48,90,7.0,0.0
6234,57.0,0,90,8.0,0.0
6235,84.0,32,60,6.0,0.0
6236,77.0,80,60,6.0,0.0
6237,78.0,80,60,6.0,0.0
6238,84.0,32,60,6.0,0.0
6239,69.0,48,90,7.0,0.0
6240,66.0,0,90,8.0,0.0
6241,74.0,80,60,6.0,0.0
6242,75.0,80,60,6.0,0.0
6243,84.0,32,60,6.0,0.0
6244,69.0,48,90,8.0,0.0
6245,72.0,0,90,7.0,0.0
6246,71.0,80,60,6.0,0.0
6247,72.0,80,60,6.0,0.0
6248,84.0,32,60,6.0,0.0
6249,75.0,0,90,7.0,0.0
6250,69.0,0,780,1.0,0.0
6251,72.0,48,90,8.0,0.0
6252,72.0,48,780,1.0,0.0
6253,84.0,0,780,0.0,0.0
6254,68.0,80,60,6.0,0.0
6255,69.0,80,60,6.0,0.0
6256,84.0,32,60,6.0,0.0
6257,75.0,0,90,8.0,0.0
6258,78.0,48,90,7.0,0.0
6259,65.0,80,60,6.0,0.0
6260,66.0,112,60,6.0,0.0
6261,51.0,0,180,6.0,0.0
6262,81.0,0,90,7.0,0.0
6263,39.0,96,180,6.0,0.0
6264,78.0,96,90,8.0,0.0
6265,78.0,192,180,6.0,0.0
6266,81.0,0,180,6.0,0.0
6267,72.0,0,180,6.0,0.0
6268,81.0,0,90,8.0,0.0
6269,84.0,96,90,7.0,0.0
6270,69.0,0,180,6.0,0.0
6271,45.0,0,150,6.0,0.0
6272,49.0,48,150,6.0,0.0
6273,40.0,0,180,12.0,0.0
6274,85.0,0,2700,0.0,0.0
6275,52.0,0,180,11.0,0.0
6276,64.0,0,3660,3.0,0.0
6277,73.0,0,2700,1.0,0.0
6278,69.0,0,2700,1.0,0.0
6279,64.0,0,180,7.0,0.0
6280,64.0,0,180,8.0,0.0
6281,52.0,36,180,10.0,0.0
6282,50.0,76,40,6.0,0.0
6283,47.0,0,40,6.0,0.0
6284,49.0,80,60,6.0,0.0
6285,52.0,0,60,6.0,0.0
6286,50.0,80,60,6.0,0.0
6287,54.0,0,60,6.0,0.0
6288,56.0,80,60,6.0,0.0
6289,52.0,0,60,6.0,0.0
6290,57.0,0,60,6.0,0.0
6291,54.0,80,60,6.0,0.0
6292,56.0,80,60,6.0,0.0
6293,59.0,0,60,6.0,0.0
6294,57.0,80,60,6.0,0.0
6295,61.0,0,60,6.0,0.0
6296,62.0,0,60,6.0,0.0
6297,59.0,80,60,6.0,0.0
6298,64.0,0,60,6.0,0.0
6299,61.0,80,60,6.0,0.0
6300,62.0,80,60,6.0,0.0
6301,66.0,0,60,6.0,0.0
6302,64.0,80,60,6.0,0.0
6303,68.0,0,60,6.0,0.0
6304,69.0,0,60,6.0,0.0
6305,66.0,80,60,6.0,0.0
6306,71.0,80,60,6.0,0.0
6307,68.0,0,60,6.0,0.0
6308,73.0,80,60,6.0,0.0
6309,69.0,0,60,6.0,0.0
6310,74.0,80,60,6.0,0.0
6311,71.0,0,60,6.0,0.0
6312,73.0,80,60,6.0,0.0
6313,76.0,0,60,6.0,0.0
6314,74.0,80,60,6.0,0.0
6315,78.0,0,60,6.0,0.0
6316,76.0,0,60,6.0,0.0
6317,80.0,80,60,6.0,0.0
6318,81.0,80,60,6.0,0.0
6319,78.0,0,60,6.0,0.0
6320,83.0,80,60,6.0,0.0
6321,80.0,0,60,6.0,0.0
6322,81.0,80,60,6.0,0.0
6323,85.0,0,60,6.0,0.0
6324,86.0,80,60,6.0,0.0
6325,83.0,0,60,6.0,0.0
6326,88.0,0,60,6.0,0.0
6327,61.0,16,780,2.0,0.0
6328,57.0,0,780,2.0,0.0
6329,85.0,80,60,6.0,0.0
6330,83.0,80,60,6.0,0.0
6331,86.0,0,60,6.0,0.0
6332,85.0,80,60,6.0,0.0
6333,81.0,0,60,6.0,0.0
6334,80.0,0,60,6.0,0.0
6335,83.0,80,60,6.0,0.0
6336,81.0,80,60,6.0,0.0
6337,78.0,0,60,6.0,0.0
6338,76.0,80,60,6.0,0.0
6339,80.0,0,60,6.0,0.0
6340,74.0,0,60,6.0,0.0
6341,78.0,80,60,6.0,0.0
6342,76.0,0,60,6.0,0.0
6343,73.0,80,60,6.0,0.0
6344,74.0,64,60,6.0,0.0
6345,71.0,0,60,6.0,0.0
6346,73.0,80,60,6.0,0.0
6347,69.0,0,60,6.0,0.0
6348,71.0,80,60,6.0,0.0
6349,69.0,40,60,6.0,0.0
6350,73.0,30,20,6.0,0.0
6351,68.0,0,780,1.0,0.0
6352,56.0,6,780,2.0,0.0
6353,71.0,0,780,1.0,0.0
6354,83.0,0,780,0.0,0.0
6355,59.0,0,780,2.0,0.0
6356,52.0,20,60,6.0,0.0
6357,71.0,10,20,6.0,0.0
6358,73.0,30,20,6.0,0.0
6359,56.0,30,60,6.0,0.0
6360,71.0,30,20,6.0,0.0
6361,73.0,0,20,6.0,0.0
6362,71.0,30,20,6.0,0.0
6363,62.0,10,60,6.0,0.0
6364,73.0,20,20,6.0,0.0
6365,71.0,30,20,6.0,0.0
6366,52.0,20,60,6.0,0.0
6367,73.0,30,20,6.0,0.0
6368,71.0,10,20,6.0,0.0
6369,73.0,30,20,6.0,0.0
6370,56.0,30,60,6.0,0.0
6371,71.0,30,20,6.0,0.0
6372,73.0,0,20,6.0,0.0
6373,71.0,30,20,6.0,0.0
6374,62.0,10,60,6.0,0.0
6375,73.0,20,20,6.0,0.0
6376,71.0,30,20,6.0,0.0
6377,73.0,30,20,6.0,0.0
6378,52.0,20,60,6.0,0.0
6379,71.0,10,20,6.0,0.0
6380,73.0,30,20,6.0,0.0
6381,56.0,30,60,6.0,0.0
6382,71.0,30,20,6.0,0.0
6383,73.0,0,20,6.0,0.0
6384,71.0,30,20,6.0,0.0
6385,62.0,10,60,6.0,0.0
6386,73.0,20,20,6.0,0.0
6387,71.0,30,20,6.0,0.0
6388,52.0,20,60,6.0,0.0
6389,73.0,24,20,6.0,0.0
6390,71.0,10,20,6.0,0.0
6391,73.0,30,20,6.0,0.0
6392,56.0,0,60,6.0,0.0
6393,71.0,30,20,6.0,0.0
6394,73.0,30,20,6.0,0.0
6395,71.0,30,20,6.0,0.0
6396,62.0,10,60,6.0,0.0
6397,69.0,20,20,6.0,0.0
6398,71.0,198,20,6.0,0.0
6399,73.0,0,390,8.0,0.0
6400,81.0,384,390,0.0,0.0
6401,57.0,0,780,3.0,0.0
6402,57.0,0,180,2.0,0.0
6403,61.0,0,180,6.0,0.0
6404,57.0,0,180,6.0,0.0
6405,81.0,0,390,7.0,0.0
6406,45.0,0,180,5.0,0.0
6407,69.0,0,180,6.0,0.0
6408,69.0,0,390,1.0,0.0
6409,76.0,0,180,4.0,0.0
6410,69.0,192,180,4.0,0.0
6411,69.0,96,300,7.0,0.0
6412,73.0,0,390,1.0,0.0
6413,61.0,0,300,8.0,0.0
6414,81.0,84,390,1.0,0.0
6415,85.0,0,390,0.0,0.0
6416,73.0,108,40,8.0,0.0
6417,81.0,0,40,7.0,0.0
6418,68.0,84,390,10.0,0.0
6419,71.0,0,780,1.0,0.0
6420,64.0,0,390,11.0,0.0
6421,71.0,0,90,8.0,0.0
6422,64.0,0,780,3.0,0.0
6423,64.0,0,390,2.0,0.0
6424,76.0,36,180,4.0,0.0
6425,52.0,0,390,12.0,0.0
6426,80.0,96,90,7.0,0.0
6427,80.0,0,780,1.0,0.0
6428,88.0,0,780,0.0,0.0
6429,69.0,108,40,8.0,0.0
6430,78.0,0,40,7.0,0.0
6431,68.0,0,90,8.0,0.0
6432,76.0,48,90,7.0,0.0
6433,74.0,108,40,7.0,0.0
6434,66.0,0,40,8.0,0.0
6435,52.0,0,300,2.0,0.0
6436,52.0,0,300,11.0,0.0
6437,73.0,0,90,7.0,0.0
6438,64.0,132,90,8.0,0.0
6439,56.0,0,300,10.0,0.0
6440,40.0,48,300,12.0,0.0
6441,71.0,0,40,7.0,0.0
6442,62.0,60,40,8.0,0.0
6443,61.0,0,90,8.0,0.0
6444,69.0,132,90,7.0,0.0
6445,59.0,0,40,8.0,0.0
6446,64.0,108,40,10.0,0.0
6447,52.0,0,40,12.0,0.0
6448,64.0,0,40,11.0,0.0
6449,68.0,0,40,7.0,0.0
6450,64.0,0,40,2.0,0.0
6451,62.0,132,570,8.0,0.0
6452,78.0,0,780,0.0,0.0
6453,66.0,0,780,1.0,0.0
6454,50.0,36,180,5.0,0.0
6455,69.0,0,780,1.0,0.0
6456,62.0,48,780,3.0,0.0
6457,74.0,0,180,4.0,0.0
6458,50.0,0,780,3.0,0.0
6459,66.0,0,90,10.0,0.0
6460,66.0,0,570,7.0,0.0
6461,62.0,0,90,11.0,0.0
6462,50.0,96,90,12.0,0.0
6463,62.0,0,180,4.0,0.0
6464,62.0,0,90,2.0,0.0
6465,61.0,0,40,11.0,0.0
6466,61.0,0,40,2.0,0.0
6467,49.0,108,40,12.0,0.0
6468,64.0,0,40,10.0,0.0
6469,59.0,0,90,2.0,0.0
6470,62.0,0,90,10.0,0.0
6471,59.0,132,90,11.0,0.0
6472,47.0,0,90,12.0,0.0
6473,57.0,0,40,11.0,0.0
6474,57.0,0,40,2.0,0.0
6475,45.0,0,40,12.0,0.0
6476,61.0,108,40,10.0,0.0
6477,44.0,0,90,12.0,0.0
6478,56.0,0,90,2.0,0.0
6479,59.0,0,90,10.0,0.0
6480,56.0,0,90,11.0,0.0
6481,57.0,0,40,10.0,0.0
6482,54.0,0,40,2.0,0.0
6483,42.0,0,40,12.0,0.0
6484,54.0,60,40,11.0,0.0
6485,56.0,0,90,10.0,0.0
6486,52.0,132,90,2.0,0.0
6487,40.0,0,90,12.0,0.0
6488,52.0,0,90,11.0,0.0
6489,38.0,0,40,12.0,0.0
6490,54.0,108,40,10.0,0.0
6491,78.0,0,40,7.0,0.0
6492,69.0,0,40,8.0,0.0
6493,50.0,0,40,2.0,0.0
6494,50.0,0,40,11.0,0.0
6495,76.0,36,180,4.0,0.0
6496,69.0,0,180,4.0,0.0
6497,76.0,0,90,7.0,0.0
6498,69.0,0,780,1.0,0.0
6499,73.0,96,90,8.0,0.0
6500,45.0,0,180,5.0,0.0
6501,76.0,48,780,1.0,0.0
6502,49.0,0,570,11.0,0.0
6503,81.0,0,780,0.0,0.0
6504,49.0,0,570,2.0,0.0
6505,57.0,0,570,10.0,0.0
6506,57.0,0,780,3.0,0.0
6507,37.0,132,570,12.0,0.0
6508,71.0,0,40,8.0,0.0
6509,74.0,108,40,7.0,0.0
6510,69.0,0,90,8.0,0.0
6511,73.0,132,90,7.0,0.0
6512,68.0,0,40,8.0,0.0
6513,71.0,108,40,7.0,0.0
6514,66.0,0,90,8.0,0.0
6515,69.0,0,90,7.0,0.0
6516,64.0,60,40,8.0,0.0
6517,68.0,0,40,7.0,0.0
6518,66.0,0,90,7.0,0.0
6519,62.0,132,90,8.0,0.0
6520,61.0,0,40,8.0,0.0
6521,49.0,0,40,12.0,0.0
6522,61.0,0,40,11.0,0.0
6523,61.0,108,40,2.0,0.0
6524,64.0,0,40,7.0,0.0
6525,57.0,0,40,10.0,0.0
6526,62.0,0,180,4.0,0.0
6527,62.0,0,570,7.0,0.0
6528,59.0,0,90,2.0,0.0
6529,50.0,0,180,5.0,0.0
6530,62.0,0,780,3.0,0.0
6531,80.0,48,780,1.0,0.0
6532,50.0,0,780,3.0,0.0
6533,59.0,0,90,11.0,0.0
6534,62.0,0,90,10.0,0.0
6535,86.0,0,780,0.0,0.0
6536,74.0,0,780,1.0,0.0
6537,47.0,96,90,12.0,0.0
6538,56.0,0,570,8.0,0.0
6539,74.0,36,180,4.0,0.0
6540,61.0,108,40,10.0,0.0
6541,57.0,0,40,2.0,0.0
6542,57.0,0,40,11.0,0.0
6543,45.0,0,40,12.0,0.0
6544,59.0,132,90,10.0,0.0
6545,44.0,0,90,12.0,0.0
6546,56.0,0,90,11.0,0.0
6547,56.0,0,90,2.0,0.0
6548,69.0,0,40,10.0,0.0
6549,54.0,108,40,11.0,0.0
6550,42.0,0,40,12.0,0.0
6551,54.0,0,40,2.0,0.0
6552,68.0,0,90,10.0,0.0
6553,52.0,0,90,11.0,0.0
6554,52.0,0,90,2.0,0.0
6555,40.0,132,90,12.0,0.0
6556,50.0,0,40,11.0,0.0
6557,66.0,0,40,10.0,0.0
6558,50.0,60,40,2.0,0.0
6559,38.0,0,40,12.0,0.0
6560,49.0,0,90,2.0,0.0
6561,49.0,0,90,11.0,0.0
6562,64.0,0,90,10.0,0.0
6563,37.0,132,90,12.0,0.0
6564,80.0,0,40,8.0,0.0
6565,47.0,0,40,11.0,0.0
6566,35.0,108,40,12.0,0.0
6567,86.0,0,40,7.0,0.0
6568,62.0,0,40,10.0,0.0
6569,47.0,0,40,2.0,0.0
6570,69.0,24,180,4.0,0.0
6571,33.0,0,90,12.0,0.0
6572,85.0,48,300,7.0,0.0
6573,85.0,24,390,0.0,0.0
6574,45.0,0,180,5.0,0.0
6575,73.0,0,90,1.0,0.0
6576,81.0,0,90,1.0,0.0
6577,45.0,0,90,11.0,0.0
6578,57.0,0,180,3.0,0.0
6579,81.0,0,90,8.0,0.0
6580,45.0,0,90,2.0,0.0
6581,64.0,96,90,10.0,0.0
6582,77.0,0,90,1.0,0.0
6583,77.0,0,90,8.0,0.0
6584,45.0,72,90,12.0,0.0
6585,69.0,0,90,10.0,0.0
6586,57.0,0,90,2.0,0.0
6587,57.0,0,90,11.0,0.0
6588,78.0,0,300,8.0,0.0
6589,45.0,0,90,12.0,0.0
6590,78.0,48,300,1.0,0.0
6591,69.0,48,90,10.0,0.0
6592,57.0,0,90,11.0,0.0
6593,57.0,0,90,2.0,0.0
6594,57.0,0,90,2.0,0.0
6595,69.0,0,90,10.0,0.0
6596,45.0,0,90,12.0,0.0
6597,78.0,36,40,7.0,0.0
6598,57.0,18,90,11.0,0.0
6599,80.0,12,20,7.0,0.0
6600,81.0,54,20,7.0,0.0
6601,44.0,120,90,12.0,0.0
6602,83.0,24,390,0.0,0.0
6603,56.0,0,90,11.0,0.0
6604,56.0,0,90,2.0,0.0
6605,68.0,0,90,10.0,0.0
6606,83.0,48,300,7.0,0.0
6607,44.0,0,90,12.0,0.0
6608,75.0,0,90,1.0,0.0
6609,75.0,0,90,8.0,0.0
6610,56.0,0,90,11.0,0.0
6611,56.0,0,90,2.0,0.0
6612,68.0,72,90,10.0,0.0
6613,44.0,48,90,12.0,0.0
6614,76.0,0,330,1.0,0.0
6615,76.0,0,330,8.0,0.0
6616,68.0,0,90,10.0,0.0
6617,56.0,0,90,2.0,0.0
6618,56.0,0,90,11.0,0.0
6619,56.0,18,90,11.0,0.0
6620,68.0,0,90,10.0,0.0
6621,44.0,0,90,12.0,0.0
6622,76.0,36,40,7.0,0.0
6623,56.0,0,90,2.0,0.0
6624,78.0,12,20,7.0,0.0
6625,80.0,102,20,7.0,0.0
6626,54.0,120,90,11.0,0.0
6627,66.0,0,90,10.0,0.0
6628,42.0,0,90,12.0,0.0
6629,81.0,48,300,7.0,0.0
6630,54.0,0,90,2.0,0.0
6631,81.0,24,390,0.0,0.0
6632,73.0,0,90,8.0,0.0
6633,66.0,0,90,10.0,0.0
6634,54.0,72,90,2.0,0.0
6635,54.0,0,90,11.0,0.0
6636,73.0,0,90,1.0,0.0
6637,42.0,0,90,12.0,0.0
6638,54.0,48,90,11.0,0.0
6639,74.0,48,300,8.0,0.0
6640,66.0,0,90,10.0,0.0
6641,42.0,0,90,12.0,0.0
6642,54.0,0,90,2.0,0.0
6643,74.0,0,300,1.0,0.0
6644,54.0,0,90,2.0,0.0
6645,74.0,36,40,7.0,0.0
6646,54.0,0,90,11.0,0.0
6647,42.0,18,90,12.0,0.0
6648,66.0,0,90,10.0,0.0
6649,76.0,12,20,7.0,0.0
6650,78.0,54,20,7.0,0.0
6651,79.0,48,300,7.0,0.0
6652,40.0,0,90,12.0,0.0
6653,79.0,24,390,0.0,0.0
6654,52.0,0,90,11.0,0.0
6655,64.0,120,90,10.0,0.0
6656,52.0,0,90,2.0,0.0
6657,40.0,0,90,12.0,0.0
6658,71.0,0,90,1.0,0.0
6659,64.0,72,90,10.0,0.0
6660,71.0,0,90,8.0,0.0
6661,52.0,0,90,2.0,0.0
6662,52.0,0,90,11.0,0.0
6663,52.0,48,90,11.0,0.0
6664,40.0,0,90,12.0,0.0
6665,73.0,0,330,8.0,0.0
6666,73.0,120,330,1.0,0.0
6667,64.0,0,90,10.0,0.0
6668,52.0,0,90,2.0,0.0
6669,73.0,36,40,7.0,0.0
6670,52.0,0,90,2.0,0.0
6671,40.0,0,90,12.0,0.0
6672,52.0,18,90,11.0,0.0
6673,64.0,0,90,10.0,0.0
6674,74.0,12,20,7.0,0.0
6675,76.0,102,20,7.0,0.0
6676,38.0,0,90,12.0,0.0
6677,78.0,24,390,0.0,0.0
6678,50.0,0,90,2.0,0.0
6679,50.0,0,90,11.0,0.0
6680,78.0,48,300,7.0,0.0
6681,62.0,0,90,10.0,0.0
6682,50.0,0,90,11.0,0.0
6683,38.0,72,90,12.0,0.0
6684,70.0,0,90,8.0,0.0
6685,70.0,0,90,1.0,0.0
6686,62.0,0,90,10.0,0.0
6687,50.0,0,90,2.0,0.0
6688,62.0,0,90,10.0,0.0
6689,71.0,48,300,1.0,0.0
6690,50.0,48,90,11.0,0.0
6691,50.0,0,90,2.0,0.0
6692,71.0,0,300,8.0,0.0
6693,38.0,0,90,12.0,0.0
6694,71.0,36,40,7.0,0.0
6695,62.0,18,90,10.0,0.0
6696,50.0,0,90,11.0,0.0
6697,50.0,0,90,2.0,0.0
6698,38.0,0,90,12.0,0.0
6699,73.0,12,20,7.0,0.0
6700,74.0,54,20,7.0,0.0
6701,37.0,0,90,12.0,0.0
6702,49.0,120,90,2.0,0.0
6703,76.0,24,390,0.0,0.0
6704,76.0,48,300,7.0,0.0
6705,49.0,0,90,11.0,0.0
6706,61.0,0,90,10.0,0.0
6707,37.0,0,90,12.0,0.0
6708,49.0,0,90,11.0,0.0
6709,61.0,72,90,10.0,0.0
6710,49.0,0,90,2.0,0.0
6711,68.0,0,90,1.0,0.0
6712,68.0,0,90,8.0,0.0
6713,37.0,48,90,12.0,0.0
6714,69.0,0,180,1.0,0.0
6715,69.0,12,180,8.0,0.0
6716,61.0,0,90,10.0,0.0
6717,49.0,0,90,2.0,0.0
6718,49.0,0,90,11.0,0.0
6719,61.0,0,90,10.0,0.0
6720,37.0,0,90,12.0,0.0
6721,49.0,18,90,11.0,0.0
6722,49.0,0,90,2.0,0.0
6723,69.0,24,40,7.0,0.0
6724,71.0,12,20,7.0,0.0
6725,73.0,102,20,7.0,0.0
6726,74.0,0,390,0.0,0.0
6727,78.0,0,390,1.0,0.0
6728,59.0,0,180,10.0,0.0
6729,35.0,0,180,12.0,0.0
6730,74.0,72,90,8.0,0.0
6731,69.0,24,390,1.0,0.0
6732,66.0,0,390,3.0,0.0
6733,62.0,0,390,3.0,0.0
6734,47.0,36,180,11.0,0.0
6735,74.0,0,90,7.0,0.0
6736,47.0,0,180,2.0,0.0
6737,78.0,0,40,7.0,0.0
6738,78.0,24,40,8.0,0.0
6739,76.0,0,40,7.0,0.0
6740,76.0,60,40,8.0,0.0
6741,74.0,0,40,8.0,0.0
6742,74.0,60,40,7.0,0.0
6743,73.0,0,40,8.0,0.0
6744,73.0,36,40,7.0,0.0
6745,71.0,0,40,8.0,0.0
6746,71.0,60,40,7.0,0.0
6747,69.0,0,40,8.0,0.0
6748,69.0,108,40,7.0,0.0
6749,80.0,0,390,1.0,0.0
6750,68.0,72,90,8.0,0.0
6751,68.0,0,90,7.0,0.0
6752,71.0,24,390,1.0,0.0
6753,64.0,0,180,10.0,0.0
6754,40.0,0,180,12.0,0.0
6755,52.0,36,180,11.0,0.0
6756,86.0,0,390,0.0,0.0
6757,64.0,0,390,3.0,0.0
6758,52.0,0,180,2.0,0.0
6759,71.0,24,40,7.0,0.0
6760,71.0,0,40,8.0,0.0
6761,69.0,60,40,7.0,0.0
6762,69.0,0,40,8.0,0.0
6763,68.0,0,40,8.0,0.0
6764,68.0,60,40,7.0,0.0
6765,66.0,36,40,7.0,0.0
6766,66.0,0,40,8.0,0.0
6767,64.0,0,40,7.0,0.0
6768,64.0,60,40,8.0,0.0
6769,62.0,0,40,7.0,0.0
6770,62.0,108,40,8.0,0.0
6771,85.0,0,90,0.0,0.0
6772,69.0,0,180,4.0,0.0
6773,76.0,0,180,4.0,0.0
6774,81.0,96,90,1.0,0.0
6775,61.0,0,180,7.0,0.0
6776,45.0,24,180,5.0,0.0
6777,61.0,0,180,8.0,0.0
6778,64.0,0,90,3.0,0.0
6779,57.0,0,90,3.0,0.0
6780,73.0,0,90,1.0,0.0
6781,85.0,0,90,0.0,0.0
6782,33.0,0,90,12.0,0.0
6783,57.0,0,90,10.0,0.0
6784,81.0,0,90,1.0,0.0
6785,45.0,0,90,2.0,0.0
6786,45.0,0,90,11.0,0.0
6787,73.0,120,90,1.0,0.0
6788,64.0,0,90,3.0,0.0
6789,57.0,0,90,3.0,0.0
6790,57.0,0,90,3.0,0.0
6791,64.0,0,90,3.0,0.0
6792,73.0,0,90,1.0,0.0
6793,85.0,120,90,0.0,0.0
6794,81.0,0,90,1.0,0.0
6795,45.0,0,90,12.0,0.0
6796,69.0,0,90,10.0,0.0
6797,57.0,0,90,2.0,0.0
6798,57.0,0,90,11.0,0.0
6799,57.0,0,90,11.0,0.0
6800,57.0,0,90,2.0,0.0
6801,81.0,0,90,1.0,0.0
6802,73.0,216,90,1.0,0.0
6803,85.0,0,90,0.0,0.0
6804,45.0,0,90,12.0,0.0
6805,69.0,0,90,10.0,0.0
6806,64.0,0,90,3.0,0.0
6807,57.0,0,90,3.0,0.0
6808,73.0,0,180,8.0,0.0
6809,66.0,0,180,8.0,0.0
6810,66.0,0,180,7.0,0.0
6811,73.0,0,180,7.0,0.0
6812,78.0,0,180,4.0,0.0
6813,81.0,0,180,7.0,0.0
6814,81.0,0,180,8.0,0.0
6815,45.0,0,180,5.0,0.0
6816,69.0,24,180,4.0,0.0
6817,73.0,0,90,1.0,0.0
6818,54.0,0,90,2.0,0.0
6819,54.0,120,90,11.0,0.0
6820,66.0,0,90,3.0,0.0
6821,66.0,0,90,10.0,0.0
6822,81.0,0,90,0.0,0.0
6823,57.0,0,90,3.0,0.0
6824,69.0,0,90,1.0,0.0
6825,42.0,0,90,12.0,0.0
6826,66.0,0,90,10.0,0.0
6827,57.0,0,90,3.0,0.0
6828,66.0,0,90,3.0,0.0
6829,69.0,0,90,1.0,0.0
6830,54.0,0,90,2.0,0.0
6831,54.0,0,90,11.0,0.0
6832,73.0,120,90,1.0,0.0
6833,42.0,0,90,12.0,0.0
6834,81.0,0,90,0.0,0.0
6835,66.0,0,90,3.0,0.0
6836,81.0,0,90,0.0,0.0
6837,57.0,216,90,3.0,0.0
6838,73.0,0,90,1.0,0.0
6839,42.0,0,90,12.0,0.0
6840,54.0,0,90,11.0,0.0
6841,66.0,0,90,10.0,0.0
6842,54.0,0,90,2.0,0.0
6843,69.0,0,90,1.0,0.0
6844,62.0,0,180,8.0,0.0
6845,78.0,0,180,7.0,0.0
6846,74.0,0,180,4.0,0.0
6847,78.0,0,180,8.0,0.0
6848,62.0,0,180,7.0,0.0
6849,69.0,0,180,7.0,0.0
6850,78.0,0,180,4.0,0.0
6851,69.0,24,180,8.0,0.0
6852,50.0,0,90,2.0,0.0
6853,62.0,0,90,3.0,0.0
6854,66.0,0,90,3.0,0.0
6855,50.0,0,90,11.0,0.0
6856,38.0,0,90,12.0,0.0
6857,86.0,0,90,0.0,0.0
6858,62.0,120,90,10.0,0.0
6859,78.0,0,90,1.0,0.0
6860,81.0,0,90,1.0,0.0
6861,50.0,0,90,2.0,0.0
6862,38.0,0,90,12.0,0.0
6863,86.0,0,90,0.0,0.0
6864,66.0,0,90,3.0,0.0
6865,62.0,0,90,10.0,0.0
6866,62.0,0,90,3.0,0.0
6867,50.0,0,90,11.0,0.0
6868,81.0,0,90,1.0,0.0
6869,78.0,120,90,1.0,0.0
6870,66.0,0,90,3.0,0.0
6871,62.0,0,90,3.0,0.0
6872,50.0,0,90,2.0,0.0
6873,81.0,216,90,1.0,0.0
6874,62.0,0,90,10.0,0.0
6875,86.0,0,90,0.0,0.0
6876,50.0,0,90,11.0,0.0
6877,38.0,0,90,12.0,0.0
6878,78.0,0,90,1.0,0.0
6879,68.0,24,180,7.0,0.0
6880,76.0,0,180,4.0,0.0
6881,59.0,0,180,7.0,0.0
6882,59.0,0,180,8.0,0.0
6883,68.0,0,180,8.0,0.0
6884,40.0,0,90,12.0,0.0
6885,64.0,0,90,3.0,0.0
6886,80.0,0,90,0.0,0.0
6887,74.0,0,90,1.0,0.0
6888,71.0,0,90,1.0,0.0
6889,52.0,0,90,2.0,0.0
6890,52.0,0,90,11.0,0.0
6891,64.0,120,90,10.0,0.0
6892,64.0,0,90,3.0,0.0
6893,80.0,0,90,0.0,0.0
6894,74.0,0,90,1.0,0.0
6895,40.0,0,90,12.0,0.0
6896,71.0,0,90,1.0,0.0
6897,52.0,120,90,2.0,0.0
6898,64.0,0,90,10.0,0.0
6899,52.0,0,90,11.0,0.0
6900,52.0,0,90,2.0,0.0
6901,64.0,0,90,10.0,0.0
6902,80.0,0,90,0.0,0.0
6903,40.0,0,90,12.0,0.0
6904,64.0,0,90,3.0,0.0
6905,74.0,216,90,1.0,0.0
6906,71.0,0,90,1.0,0.0
6907,52.0,0,90,11.0,0.0
6908,45.0,0,180,2.0,0.0
6909,73.0,0,180,1.0,0.0
6910,69.0,0,180,1.0,0.0
6911,33.0,0,180,12.0,0.0
6912,81.0,0,180,0.0,0.0
6913,64.0,192,180,3.0,0.0
6914,45.0,0,180,5.0,0.0
6915,57.0,0,180,10.0,0.0
6916,76.0,0,180,4.0,0.0
6917,64.0,0,180,7.0,0.0
6918,73.0,0,180,7.0,0.0
6919,73.0,0,180,8.0,0.0
6920,57.0,0,180,8.0,0.0
6921,64.0,0,180,8.0,0.0
6922,45.0,0,180,11.0,0.0
6923,57.0,0,180,7.0,0.0
6924,75.0,0,150,8.0,0.0
6925,54.0,84,150,11.0,0.0
6926,66.0,0,150,10.0,0.0
6927,69.0,0,150,4.0,0.0
6928,75.0,0,150,7.0,0.0
6929,42.0,0,150,12.0,0.0
6930,45.0,0,150,5.0,0.0
6931,57.0,0,150,3.0,0.0
6932,75.0,0,150,1.0,0.0
6933,54.0,0,150,2.0,0.0
6934,66.0,0,40,10.0,0.0
6935,57.0,0,40,3.0,0.0
6936,54.0,0,40,2.0,0.0
6937,75.0,0,40,8.0,0.0
6938,75.0,0,40,7.0,0.0
6939,54.0,0,40,11.0,0.0
6940,69.0,0,40,4.0,0.0
6941,75.0,204,40,1.0,0.0
6942,45.0,0,40,5.0,0.0
6943,42.0,0,40,12.0,0.0
6944,45.0,0,180,5.0,0.0
6945,57.0,0,180,3.0,0.0
6946,66.0,0,180,10.0,0.0
6947,75.0,0,180,8.0,0.0
6948,75.0,0,180,1.0,0.0
6949,69.0,0,180,4.0,0.0
6950,54.0,0,180,2.0,0.0
6951,54.0,0,180,11.0,0.0
6952,75.0,240,180,7.0,0.0
6953,42.0,0,180,12.0,0.0
6954,54.0,0,180,11.0,0.0
6955,75.0,0,180,7.0,0.0
6956,75.0,0,180,1.0,0.0
6957,66.0,72,180,10.0,0.0
6958,42.0,0,180,12.0,0.0
6959,57.0,0,180,3.0,0.0
6960,54.0,0,180,2.0,0.0
6961,69.0,0,180,4.0,0.0
6962,45.0,0,180,5.0,0.0
6963,75.0,0,180,8.0,0.0
6964,54.0,30,390,11.0,0.0
6965,75.0,0,390,1.0,0.0
6966,45.0,30,20,5.0,0.0
6967,54.0,0,390,2.0,0.0
6968,75.0,0,390,8.0,0.0
6969,69.0,0,390,4.0,0.0
6970,75.0,0,390,7.0,0.0
6971,42.0,0,390,12.0,0.0
6972,66.0,0,390,10.0,0.0
6973,57.0,0,390,3.0,0.0
6974,45.0,30,20,5.0,0.0
6975,45.0,30,20,5.0,0.0
6976,45.0,30,20,5.0,0.0
6977,45.0,30,20,5.0,0.0
6978,45.0,30,20,5.0,0.0
6979,45.0,30,20,5.0,0.0
6980,45.0,30,20,5.0,0.0
6981,45.0,30,20,5.0,0.0
6982,45.0,30,20,5.0,0.0
6983,45.0,30,20,5.0,0.0
6984,45.0,30,20,5.0,0.0
6985,45.0,0,20,5.0,0.0
6986,45.0,30,20,5.0,0.0
6987,45.0,30,20,5.0,0.0
6988,45.0,30,20,5.0,0.0
6989,64.0,0,390,10.0,0.0
6990,78.0,0,20,7.0,0.0
6991,78.0,0,20,8.0,0.0
6992,45.0,0,20,5.0,0.0
6993,57.0,0,390,3.0,0.0
6994,52.0,0,390,11.0,0.0
6995,40.0,0,390,12.0,0.0
6996,52.0,0,390,2.0,0.0
6997,78.0,30,20,1.0,0.0
6998,69.0,0,390,4.0,0.0
6999,45.0,0,20,5.0,0.0
7000,76.0,30,20,7.0,0.0
7001,76.0,0,20,8.0,0.0
7002,76.0,0,20,1.0,0.0
7003,45.0,0,20,5.0,0.0
7004,78.0,0,20,8.0,0.0
7005,78.0,0,20,1.0,0.0
7006,78.0,30,20,7.0,0.0
7007,76.0,0,20,8.0,0.0
7008,76.0,0,20,1.0,0.0
7009,76.0,30,20,7.0,0.0
7010,45.0,0,20,5.0,0.0
7011,78.0,30,20,8.0,0.0
7012,78.0,0,20,1.0,0.0
7013,78.0,0,20,7.0,0.0
7014,45.0,0,20,5.0,0.0
7015,76.0,0,20,7.0,0.0
7016,45.0,30,20,5.0,0.0
7017,76.0,0,20,8.0,0.0
7018,76.0,0,20,1.0,0.0
7019,78.0,0,20,1.0,0.0
7020,78.0,30,20,7.0,0.0
7021,78.0,0,20,8.0,0.0
7022,45.0,0,20,5.0,0.0
7023,76.0,0,20,8.0,0.0
7024,45.0,0,20,5.0,0.0
7025,76.0,0,20,1.0,0.0
7026,76.0,30,20,7.0,0.0
7027,45.0,0,20,5.0,0.0
7028,78.0,0,20,8.0,0.0
7029,78.0,30,20,7.0,0.0
7030,78.0,0,20,1.0,0.0
7031,45.0,30,20,5.0,0.0
7032,76.0,0,20,1.0,0.0
7033,76.0,0,20,7.0,0.0
7034,76.0,0,20,8.0,0.0
7035,78.0,0,20,1.0,0.0
7036,78.0,0,20,7.0,0.0
7037,78.0,0,20,8.0,0.0
7038,45.0,30,20,5.0,0.0
7039,76.0,0,20,7.0,0.0
7040,76.0,0,20,8.0,0.0
7041,45.0,30,20,5.0,0.0
7042,76.0,0,20,1.0,0.0
7043,45.0,24,20,5.0,0.0
7044,75.0,0,40,7.0,0.0
7045,75.0,6,40,8.0,0.0
7046,75.0,0,40,1.0,0.0
7047,45.0,54,20,5.0,0.0
7048,76.0,204,40,7.0,0.0
7049,76.0,0,40,1.0,0.0
7050,45.0,0,40,5.0,0.0
7051,76.0,0,40,8.0,0.0
7052,57.0,0,180,3.0,0.0
7053,78.0,864,180,1.0,0.0
7054,45.0,0,180,5.0,0.0
7055,69.0,0,180,4.0,0.0
7056,51.0,0,180,11.0,0.0
7057,78.0,0,180,7.0,0.0
7058,39.0,0,180,12.0,0.0
7059,63.0,0,180,10.0,0.0
7060,78.0,0,180,8.0,0.0
7061,51.0,0,180,2.0,0.0
7062,52.0,24,180,10.0,0.0
7063,61.0,96,90,8.0,0.0
7064,69.0,0,570,7.0,0.0
7065,64.0,120,90,8.0,0.0
7066,52.0,24,180,10.0,0.0
7067,61.0,96,90,8.0,0.0
7068,64.0,120,90,8.0,0.0
7069,52.0,24,180,10.0,0.0
7070,61.0,96,90,8.0,0.0
7071,64.0,120,90,8.0,0.0
7072,52.0,24,180,10.0,0.0
7073,62.0,0,90,8.0,0.0
7074,73.0,96,90,7.0,0.0
7075,71.0,0,90,7.0,0.0
7076,64.0,216,90,8.0,0.0
7077,57.0,0,180,10.0,0.0
7078,69.0,0,180,7.0,0.0
7079,61.0,240,180,8.0,0.0
7080,75.0,0,180,0.0,0.0
7081,57.0,0,180,3.0,0.0
7082,72.0,0,180,1.0,0.0
7083,69.0,0,180,1.0,0.0
7084,66.0,240,180,2.0,0.0
7085,54.0,0,180,2.0,0.0
7086,75.0,0,180,0.0,0.0
7087,69.0,240,180,1.0,0.0
7088,72.0,0,180,1.0,0.0
7089,54.0,0,180,2.0,0.0
7090,66.0,0,180,2.0,0.0
7091,57.0,0,180,3.0,0.0
7092,75.0,0,180,0.0,0.0
7093,57.0,432,180,3.0,0.0
7094,66.0,0,180,2.0,0.0
7095,72.0,0,180,1.0,0.0
7096,54.0,0,180,2.0,0.0
7097,69.0,0,180,1.0,0.0
7098,66.0,0,390,2.0,0.0
7099,54.0,0,390,2.0,0.0
7100,75.0,120,390,0.0,0.0
7101,69.0,0,1140,1.0,0.0
7102,72.0,6,780,1.0,0.0
7103,57.0,0,1140,3.0,0.0
7104,64.0,24,390,2.0,0.0
7105,78.0,30,20,0.0,0.0
7106,52.0,0,390,2.0,0.0
7107,76.0,30,20,0.0,0.0
7108,78.0,30,20,0.0,0.0
7109,76.0,30,20,0.0,0.0
7110,78.0,30,20,0.0,0.0
7111,76.0,30,20,0.0,0.0
7112,78.0,30,20,0.0,0.0
7113,76.0,30,20,0.0,0.0
7114,78.0,24,20,0.0,0.0
7115,76.0,30,20,0.0,0.0
7116,78.0,30,20,0.0,0.0
7117,76.0,30,20,0.0,0.0
7118,75.0,60,40,0.0,0.0
7119,76.0,204,40,0.0,0.0
7120,51.0,0,180,2.0,0.0
7121,78.0,0,180,0.0,0.0
7122,63.0,0,180,2.0,0.0
7123,71.0,240,180,1.0,0.0
7124,78.0,240,180,6.0,0.0
7125,63.0,0,180,6.0,0.0
7126,71.0,0,180,6.0,0.0
7127,69.0,0,180,6.0,0.0
7128,63.0,240,180,6.0,0.0
7129,69.0,0,180,6.0,0.0
7130,78.0,0,180,6.0,0.0
7131,71.0,0,180,6.0,0.0
7132,71.0,0,180,6.0,0.0
7133,63.0,432,180,6.0,0.0
7134,78.0,0,180,6.0,0.0
7135,69.0,0,180,6.0,0.0
7136,63.0,0,390,6.0,0.0
7137,69.0,0,390,6.0,0.0
7138,71.0,0,390,6.0,0.0
7139,78.0,120,390,6.0,0.0
7140,76.0,0,390,6.0,0.0
7141,81.0,30,20,6.0,0.0
7142,67.0,0,390,6.0,0.0
7143,71.0,24,390,6.0,0.0
7144,64.0,0,390,6.0,0.0
7145,79.0,30,20,6.0,0.0
7146,81.0,30,20,6.0,0.0
7147,79.0,30,20,6.0,0.0
7148,81.0,30,20,6.0,0.0
7149,79.0,30,20,6.0,0.0
7150,81.0,30,20,6.0,0.0
7151,79.0,30,20,6.0,0.0
7152,81.0,30,20,6.0,0.0
7153,79.0,30,20,6.0,0.0
7154,81.0,30,20,6.0,0.0
7155,79.0,30,20,6.0,0.0
7156,78.0,60,40,6.0,0.0
7157,79.0,204,40,6.0,0.0
7158,75.0,240,180,6.0,0.0
7159,81.0,0,180,6.0,0.0
7160,69.0,0,180,6.0,0.0
7161,66.0,0,180,6.0,0.0
7162,78.0,0,180,1.0,0.0
7163,66.0,0,180,2.0,0.0
7164,81.0,240,180,0.0,0.0
7165,69.0,0,180,1.0,0.0
7166,81.0,0,180,0.0,0.0
7167,69.0,240,180,1.0,0.0
7168,78.0,0,180,1.0,0.0
7169,66.0,0,180,2.0,0.0
7170,69.0,432,180,1.0,0.0
7171,81.0,0,180,0.0,0.0
7172,78.0,0,180,1.0,0.0
7173,66.0,0,180,2.0,0.0
7174,81.0,0,390,0.0,0.0
7175,78.0,0,390,1.0,0.0
7176,69.0,0,390,1.0,0.0
7177,66.0,120,390,2.0,0.0
7178,64.0,24,390,2.0,0.0
7179,84.0,0,20,0.0,0.0
7180,81.0,30,20,1.0,0.0
7181,67.0,0,390,1.0,0.0
7182,83.0,0,20,0.0,0.0
7183,79.0,30,20,1.0,0.0
7184,81.0,30,20,1.0,0.0
7185,84.0,0,20,0.0,0.0
7186,79.0,0,20,1.0,0.0
7187,83.0,30,20,0.0,0.0
7188,84.0,0,20,0.0,0.0
7189,81.0,30,20,1.0,0.0
7190,79.0,30,20,1.0,0.0
7191,83.0,0,20,0.0,0.0
7192,84.0,0,20,0.0,0.0
7193,81.0,30,20,1.0,0.0
7194,79.0,30,20,1.0,0.0
7195,83.0,0,20,0.0,0.0
7196,84.0,0,20,0.0,0.0
7197,81.0,30,20,1.0,0.0
7198,83.0,0,20,0.0,0.0
7199,79.0,30,20,1.0,0.0
7200,81.0,30,20,1.0,0.0
7201,84.0,0,20,0.0,0.0
7202,83.0,30,20,0.0,0.0
7203,79.0,0,20,1.0,0.0
7204,78.0,0,40,1.0,0.0
7205,81.0,60,40,0.0,0.0
7206,79.0,0,40,1.0,0.0
7207,83.0,156,40,0.0,0.0
7208,63.0,0,780,2.0,0.0
7209,47.0,0,1740,2.0,0.0
7210,81.0,16,780,1.0,0.0
7211,66.0,0,780,1.0,0.0
7212,47.0,16,1740,6.0,0.0
7213,35.0,0,1740,6.0,0.0
7214,84.0,0,780,0.0,0.0
7215,69.0,80,60,6.0,0.0
7216,72.0,80,60,6.0,0.0
7217,75.0,80,60,6.0,0.0
7218,78.0,80,60,6.0,0.0
7219,81.0,80,60,6.0,0.0
7220,84.0,80,60,6.0,0.0
7221,81.0,80,60,6.0,0.0
7222,78.0,64,60,6.0,0.0
7223,75.0,80,60,6.0,0.0
7224,72.0,80,60,6.0,0.0
7225,69.0,80,60,6.0,0.0
7226,83.0,80,60,6.0,0.0
7227,79.0,0,390,1.0,0.0
7228,67.0,0,390,1.0,0.0
7229,83.0,0,390,0.0,0.0
7230,64.0,0,390,2.0,0.0
7231,79.0,80,60,6.0,0.0
7232,76.0,80,60,6.0,0.0
7233,71.0,80,60,6.0,0.0
7234,67.0,80,60,6.0,0.0
7235,64.0,80,60,6.0,0.0
7236,81.0,80,60,6.0,0.0
7237,78.0,0,390,1.0,0.0
7238,81.0,0,390,0.0,0.0
7239,66.0,0,390,2.0,0.0
7240,75.0,0,390,1.0,0.0
7241,78.0,80,60,6.0,0.0
7242,75.0,64,60,6.0,0.0
7243,69.0,80,60,6.0,0.0
7244,66.0,80,60,6.0,0.0
7245,63.0,208,60,6.0,0.0
7246,67.0,240,180,2.0,0.0
7247,76.0,0,180,1.0,0.0
7248,52.0,0,180,2.0,0.0
7249,79.0,0,180,0.0,0.0
7250,40.0,0,180,6.0,0.0
7251,64.0,0,180,6.0,0.0
7252,52.0,0,180,6.0,0.0
7253,79.0,0,180,1.0,0.0
7254,49.0,0,180,2.0,0.0
7255,61.0,0,180,2.0,0.0
7256,64.0,0,180,3.0,0.0
7257,82.0,0,180,0.0,0.0
7258,76.0,240,180,1.0,0.0
7259,82.0,0,180,0.0,0.0
7260,49.0,0,180,2.0,0.0
7261,61.0,0,180,2.0,0.0
7262,64.0,0,180,3.0,0.0
7263,76.0,0,180,1.0,0.0
7264,79.0,240,180,1.0,0.0
7265,61.0,0,180,2.0,0.0
7266,49.0,0,180,2.0,0.0
7267,76.0,0,180,1.0,0.0
7268,82.0,0,180,0.0,0.0
7269,64.0,0,180,3.0,0.0
7270,79.0,432,180,1.0,0.0
7271,64.0,0,1140,3.0,0.0
7272,49.0,0,390,2.0,0.0
7273,61.0,0,390,2.0,0.0
7274,79.0,6,780,1.0,0.0
7275,82.0,120,390,0.0,0.0
7276,76.0,0,1140,1.0,0.0
7277,47.0,24,390,2.0,0.0
7278,85.0,30,20,0.0,0.0
7279,59.0,0,390,2.0,0.0
7280,83.0,30,20,0.0,0.0
7281,85.0,30,20,0.0,0.0
7282,83.0,30,20,0.0,0.0
7283,85.0,30,20,0.0,0.0
7284,83.0,30,20,0.0,0.0
7285,85.0,30,20,0.0,0.0
7286,83.0,30,20,0.0,0.0
7287,85.0,24,20,0.0,0.0
7288,83.0,30,20,0.0,0.0
7289,85.0,30,20,0.0,0.0
7290,83.0,30,20,0.0,0.0
7291,82.0,60,40,0.0,0.0
7292,83.0,204,40,0.0,0.0
7293,58.0,0,180,2.0,0.0
7294,46.0,0,180,2.0,0.0
7295,85.0,240,180,0.0,0.0
7296,78.0,0,180,1.0,0.0
7297,73.0,0,180,6.0,0.0
7298,70.0,0,180,6.0,0.0
7299,66.0,240,180,6.0,0.0
7300,64.0,0,180,6.0,0.0
7301,66.0,0,180,6.0,0.0
7302,64.0,0,180,6.0,0.0
7303,73.0,0,180,6.0,0.0
7304,70.0,240,180,6.0,0.0
7305,66.0,0,180,6.0,0.0
7306,64.0,432,180,6.0,0.0
7307,73.0,0,180,6.0,0.0
7308,70.0,0,180,6.0,0.0
7309,64.0,0,390,6.0,0.0
7310,66.0,6,780,6.0,0.0
7311,70.0,120,390,6.0,0.0
7312,73.0,0,390,6.0,0.0
7313,71.0,0,390,6.0,0.0
7314,76.0,30,20,6.0,0.0
7315,62.0,24,390,6.0,0.0
7316,74.0,30,20,6.0,0.0
7317,76.0,30,20,6.0,0.0
7318,74.0,30,20,6.0,0.0
7319,76.0,30,20,6.0,0.0
7320,74.0,30,20,6.0,0.0
7321,76.0,30,20,6.0,0.0
7322,74.0,30,20,6.0,0.0
7323,76.0,24,20,6.0,0.0
7324,74.0,30,20,6.0,0.0
7325,76.0,30,20,6.0,0.0
7326,74.0,30,20,6.0,0.0
7327,73.0,60,40,6.0,0.0
7328,74.0,204,40,6.0,0.0
7329,61.0,0,180,6.0,0.0
7330,64.0,0,180,6.0,0.0
7331,73.0,240,180,6.0,0.0
7332,76.0,0,180,6.0,0.0
7333,76.0,0,180,0.0,0.0
7334,61.0,0,180,2.0,0.0
7335,64.0,0,180,2.0,0.0
7336,73.0,240,180,1.0,0.0
7337,73.0,0,180,1.0,0.0
7338,61.0,0,180,2.0,0.0
7339,64.0,0,180,2.0,0.0
7340,76.0,240,180,0.0,0.0
7341,76.0,0,180,0.0,0.0
7342,73.0,0,180,1.0,0.0
7343,64.0,432,180,2.0,0.0
7344,61.0,0,180,2.0,0.0
7345,73.0,0,390,1.0,0.0
7346,61.0,0,390,2.0,0.0
7347,76.0,120,390,0.0,0.0
7348,64.0,0,390,2.0,0.0
7349,76.0,30,20,1.0,0.0
7350,59.0,0,390,2.0,0.0
7351,62.0,24,390,2.0,0.0
7352,79.0,0,20,0.0,0.0
7353,74.0,30,20,1.0,0.0
7354,78.0,0,20,0.0,0.0
7355,79.0,0,20,0.0,0.0
7356,76.0,30,20,1.0,0.0
7357,78.0,0,20,0.0,0.0
7358,74.0,30,20,1.0,0.0
7359,79.0,0,20,0.0,0.0
7360,76.0,30,20,1.0,0.0
7361,78.0,30,20,0.0,0.0
7362,74.0,0,20,1.0,0.0
7363,76.0,30,20,1.0,0.0
7364,79.0,0,20,0.0,0.0
7365,74.0,0,20,1.0,0.0
7366,78.0,30,20,0.0,0.0
7367,76.0,30,20,1.0,0.0
7368,79.0,0,20,0.0,0.0
7369,74.0,0,20,1.0,0.0
7370,78.0,30,20,0.0,0.0
7371,76.0,30,20,1.0,0.0
7372,79.0,0,20,0.0,0.0
7373,78.0,30,20,0.0,0.0
7374,74.0,0,20,1.0,0.0
7375,73.0,0,40,1.0,0.0
7376,76.0,60,40,0.0,0.0
7377,78.0,0,40,0.0,0.0
7378,74.0,156,40,1.0,0.0
7379,30.0,0,1740,6.0,0.0
7380,61.0,16,780,2.0,0.0
7381,58.0,0,780,2.0,0.0
7382,54.0,0,2100,3.0,0.0
7383,79.0,0,780,0.0,0.0
7384,42.0,16,1740,6.0,0.0
7385,66.0,0,1740,1.0,0.0
7386,76.0,0,780,1.0,0.0
7387,64.0,80,60,6.0,0.0
7388,67.0,80,60,6.0,0.0
7389,70.0,80,60,6.0,0.0
7390,73.0,80,60,6.0,0.0
7391,76.0,80,60,6.0,0.0
7392,79.0,80,60,6.0,0.0
7393,76.0,80,60,6.0,0.0
7394,73.0,64,60,6.0,0.0
7395,70.0,80,60,6.0,0.0
7396,67.0,80,60,6.0,0.0
7397,64.0,80,60,6.0,0.0
7398,78.0,0,390,0.0,0.0
7399,59.0,0,390,2.0,0.0
7400,74.0,0,390,1.0,0.0
7401,62.0,80,390,2.0,0.0
7402,78.0,80,60,6.0,0.0
7403,74.0,80,60,6.0,0.0
7404,71.0,80,60,6.0,0.0
7405,66.0,80,60,6.0,0.0
7406,62.0,0,60,6.0,0.0
7407,59.0,80,60,6.0,0.0
7408,76.0,80,60,6.0,0.0
7409,70.0,0,390,1.0,0.0
7410,76.0,0,390,0.0,0.0
7411,61.0,0,390,2.0,0.0
7412,64.0,0,390,2.0,0.0
7413,73.0,80,60,6.0,0.0
7414,70.0,64,60,6.0,0.0
7415,64.0,80,60,6.0,0.0
7416,61.0,80,60,6.0,0.0
7417,58.0,124,60,6.0,0.0
7418,59.0,0,570,11.0,0.0
7419,74.0,36,180,0.0,0.0
7420,62.0,0,180,2.0,0.0
7421,59.0,0,180,2.0,0.0
7422,47.0,12,570,12.0,0.0
7423,71.0,0,180,1.0,0.0
7424,66.0,0,180,1.0,0.0
7425,54.0,24,390,10.0,0.0
7426,47.0,0,570,6.0,0.0
7427,35.0,0,570,6.0,0.0
7428,59.0,60,40,6.0,0.0
7429,62.0,24,40,6.0,0.0
7430,66.0,60,40,6.0,0.0
7431,62.0,0,180,7.0,0.0
7432,59.0,36,180,8.0,0.0
7433,71.0,60,40,6.0,0.0
7434,62.0,36,40,6.0,0.0
7435,66.0,24,40,6.0,0.0
7436,71.0,60,40,6.0,0.0
7437,74.0,48,40,6.0,0.0
7438,74.0,36,660,7.0,0.0
7439,66.0,24,390,10.0,0.0
7440,71.0,0,660,8.0,0.0
7441,66.0,60,40,6.0,0.0
7442,71.0,60,40,6.0,0.0
7443,74.0,60,40,6.0,0.0
7444,45.0,0,180,12.0,0.0
7445,57.0,36,180,11.0,0.0
7446,45.0,0,180,6.0,0.0
7447,78.0,60,40,6.0,0.0
7448,71.0,36,40,6.0,0.0
7449,74.0,24,40,6.0,0.0
7450,78.0,60,40,6.0,0.0
7451,64.0,0,1740,10.0,0.0
7452,44.0,0,180,12.0,0.0
7453,83.0,60,40,6.0,0.0
7454,44.0,0,180,6.0,0.0
7455,56.0,0,180,11.0,0.0
7456,76.0,60,40,6.0,0.0
7457,80.0,24,40,6.0,0.0
7458,83.0,60,40,6.0,0.0
7459,86.0,60,40,6.0,0.0
7460,80.0,0,180,7.0,0.0
7461,59.0,36,180,11.0,0.0
7462,74.0,24,390,8.0,0.0
7463,47.0,0,180,6.0,0.0
7464,47.0,0,180,12.0,0.0
7465,83.0,60,40,6.0,0.0
7466,86.0,24,40,6.0,0.0
7467,83.0,60,40,6.0,0.0
7468,52.0,36,180,11.0,0.0
7469,86.0,60,40,6.0,0.0
7470,40.0,0,180,12.0,0.0
7471,83.0,0,180,7.0,0.0
7472,40.0,0,180,6.0,0.0
7473,84.0,36,40,6.0,0.0
7474,83.0,24,40,6.0,0.0
7475,81.0,60,40,6.0,0.0
7476,56.0,0,180,11.0,0.0
7477,80.0,60,40,6.0,0.0
7478,44.0,0,180,6.0,0.0
7479,71.0,36,180,8.0,0.0
7480,74.0,0,180,7.0,0.0
7481,44.0,0,180,12.0,0.0
7482,77.0,60,40,6.0,0.0
7483,76.0,24,40,6.0,0.0
7484,74.0,120,40,6.0,0.0
7485,72.0,0,180,7.0,0.0
7486,69.0,36,180,8.0,0.0
7487,45.0,0,570,6.0,0.0
7488,33.0,0,570,6.0,0.0
7489,57.0,12,570,11.0,0.0
7490,45.0,0,570,12.0,0.0
7491,57.0,60,40,6.0,0.0
7492,60.0,24,40,6.0,0.0
7493,64.0,60,40,6.0,0.0
7494,57.0,36,180,8.0,0.0
7495,69.0,60,40,6.0,0.0
7496,60.0,0,180,7.0,0.0
7497,60.0,60,40,6.0,0.0
7498,64.0,24,40,6.0,0.0
7499,69.0,60,40,6.0,0.0
7500,72.0,48,40,6.0,0.0
7501,72.0,0,660,7.0,0.0
7502,69.0,36,660,8.0,0.0
7503,64.0,60,40,6.0,0.0
7504,69.0,60,40,6.0,0.0
7505,72.0,60,40,6.0,0.0
7506,43.0,0,180,12.0,0.0
7507,43.0,0,180,6.0,0.0
7508,76.0,60,40,6.0,0.0
7509,55.0,36,180,11.0,0.0
7510,69.0,60,40,6.0,0.0
7511,72.0,24,40,6.0,0.0
7512,76.0,60,40,6.0,0.0
7513,81.0,60,40,6.0,0.0
7514,62.0,0,1140,10.0,0.0
7515,54.0,0,180,11.0,0.0
7516,42.0,0,180,12.0,0.0
7517,42.0,0,180,6.0,0.0
7518,74.0,60,40,6.0,0.0
7519,78.0,24,40,6.0,0.0
7520,81.0,60,40,6.0,0.0
7521,45.0,0,180,12.0,0.0
7522,72.0,24,390,8.0,0.0
7523,45.0,0,180,6.0,0.0
7524,57.0,36,180,11.0,0.0
7525,64.0,60,40,6.0,0.0
7526,78.0,0,180,7.0,0.0
7527,60.0,60,40,6.0,0.0
7528,64.0,24,40,6.0,0.0
7529,60.0,60,40,6.0,0.0
7530,81.0,36,180,7.0,0.0
7531,38.0,0,180,12.0,0.0
7532,64.0,60,40,6.0,0.0
7533,38.0,0,180,6.0,0.0
7534,50.0,0,180,11.0,0.0
7535,83.0,36,40,6.0,0.0
7536,81.0,24,40,6.0,0.0
7537,79.0,60,40,6.0,0.0
7538,42.0,0,180,6.0,0.0
7539,69.0,0,180,8.0,0.0
7540,78.0,60,40,6.0,0.0
7541,54.0,36,180,11.0,0.0
7542,42.0,0,180,12.0,0.0
7543,72.0,0,180,7.0,0.0
7544,76.0,60,40,6.0,0.0
7545,74.0,24,40,6.0,0.0
7546,72.0,120,40,6.0,0.0
7547,43.0,36,180,6.0,0.0
7548,67.0,0,180,8.0,0.0
7549,55.0,0,180,11.0,0.0
7550,71.0,0,180,7.0,0.0
7551,43.0,0,180,12.0,0.0
7552,71.0,60,40,6.0,0.0
7553,74.0,24,40,6.0,0.0
7554,79.0,60,40,6.0,0.0
7555,71.0,0,390,8.0,0.0
7556,67.0,0,390,10.0,0.0
7557,83.0,24,390,7.0,0.0
7558,83.0,60,40,6.0,0.0
7559,79.0,60,40,6.0,0.0
7560,74.0,60,40,6.0,0.0
7561,71.0,120,40,6.0,0.0
7562,67.0,36,180,6.0,0.0
7563,71.0,36,40,6.0,0.0
7564,74.0,24,40,6.0,0.0
7565,83.0,120,40,6.0,0.0
7566,82.0,0,180,7.0,0.0
7567,66.0,36,180,6.0,0.0
7568,66.0,0,180,10.0,0.0
7569,70.0,0,180,8.0,0.0
7570,70.0,60,40,6.0,0.0
7571,74.0,24,40,6.0,0.0
7572,82.0,120,40,6.0,0.0
7573,67.0,36,180,6.0,0.0
7574,71.0,24,390,8.0,0.0
7575,83.0,0,390,7.0,0.0
7576,67.0,0,390,10.0,0.0
7577,71.0,60,40,6.0,0.0
7578,74.0,24,40,6.0,0.0
7579,83.0,120,40,6.0,0.0
7580,67.0,36,180,6.0,0.0
7581,71.0,36,40,6.0,0.0
7582,74.0,24,40,6.0,0.0
7583,83.0,120,40,6.0,0.0
7584,72.0,0,180,8.0,0.0
7585,84.0,36,180,7.0,0.0
7586,69.0,0,180,10.0,0.0
7587,69.0,0,180,6.0,0.0
7588,72.0,60,40,6.0,0.0
7589,75.0,24,40,6.0,0.0
7590,84.0,120,40,6.0,0.0
7591,67.0,0,180,10.0,0.0
7592,71.0,36,180,8.0,0.0
7593,83.0,0,180,7.0,0.0
7594,67.0,0,180,6.0,0.0
7595,71.0,60,40,6.0,0.0
7596,76.0,24,40,6.0,0.0
7597,83.0,120,40,6.0,0.0
7598,69.0,0,570,8.0,0.0
7599,66.0,12,570,10.0,0.0
7600,66.0,24,390,6.0,0.0
7601,81.0,0,570,7.0,0.0
7602,86.0,0,1740,0.0,0.0
7603,74.0,60,1740,1.0,0.0
7604,69.0,60,40,6.0,0.0
7605,74.0,60,40,6.0,0.0
7606,78.0,60,40,6.0,0.0
7607,81.0,60,40,6.0,0.0
7608,78.0,36,40,6.0,0.0
7609,74.0,60,40,6.0,0.0
7610,69.0,108,40,6.0,0.0
7611,66.0,36,180,6.0,0.0
7612,69.0,60,40,6.0,0.0
7613,74.0,24,40,6.0,0.0
7614,81.0,120,40,6.0,0.0
7615,68.0,0,180,8.0,0.0
7616,80.0,0,180,7.0,0.0
7617,65.0,0,180,10.0,0.0
7618,65.0,36,180,6.0,0.0
7619,68.0,60,40,6.0,0.0
7620,74.0,24,40,6.0,0.0
7621,80.0,120,40,6.0,0.0
7622,66.0,36,180,6.0,0.0
7623,69.0,0,180,8.0,0.0
7624,81.0,0,180,7.0,0.0
7625,66.0,24,390,10.0,0.0
7626,69.0,60,40,6.0,0.0
7627,74.0,24,40,6.0,0.0
7628,81.0,120,40,6.0,0.0
7629,82.0,0,180,7.0,0.0
7630,66.0,0,180,6.0,0.0
7631,70.0,36,180,8.0,0.0
7632,70.0,36,40,6.0,0.0
7633,74.0,24,40,6.0,0.0
7634,82.0,120,40,6.0,0.0
7635,71.0,0,180,8.0,0.0
7636,67.0,36,180,10.0,0.0
7637,83.0,0,180,7.0,0.0
7638,67.0,0,180,6.0,0.0
7639,71.0,60,40,6.0,0.0
7640,74.0,24,40,6.0,0.0
7641,83.0,60,40,6.0,0.0
7642,66.0,0,180,10.0,0.0
7643,69.0,36,180,8.0,0.0
7644,66.0,0,180,6.0,0.0
7645,81.0,0,180,7.0,0.0
7646,69.0,60,40,6.0,0.0
7647,74.0,24,40,6.0,0.0
7648,81.0,120,40,6.0,0.0
7649,79.0,0,390,1.0,0.0
7650,91.0,24,390,0.0,0.0
7651,64.0,0,390,11.0,0.0
7652,52.0,0,390,6.0,0.0
7653,64.0,0,390,6.0,0.0
7654,67.0,60,40,6.0,0.0
7655,73.0,60,40,6.0,0.0
7656,76.0,60,40,6.0,0.0
7657,79.0,60,40,6.0,0.0
7658,67.0,0,180,8.0,0.0
7659,79.0,0,180,7.0,0.0
7660,61.0,36,180,10.0,0.0
7661,76.0,36,40,6.0,0.0
7662,73.0,24,40,6.0,0.0
7663,67.0,120,40,6.0,0.0
7664,78.0,0,390,1.0,0.0
7665,50.0,0,390,6.0,0.0
7666,62.0,0,390,6.0,0.0
7667,62.0,0,390,11.0,0.0
7668,90.0,24,390,0.0,0.0
7669,66.0,60,40,6.0,0.0
7670,71.0,60,40,6.0,0.0
7671,74.0,60,40,6.0,0.0
7672,78.0,36,180,7.0,0.0
7673,71.0,0,180,8.0,0.0
7674,66.0,0,180,10.0,0.0
7675,78.0,60,40,6.0,0.0
7676,74.0,36,40,6.0,0.0
7677,71.0,24,40,6.0,0.0
7678,66.0,120,40,6.0,0.0
7679,88.0,0,390,0.0,0.0
7680,61.0,0,390,11.0,0.0
7681,76.0,24,390,1.0,0.0
7682,61.0,0,390,6.0,0.0
7683,49.0,0,390,6.0,0.0
7684,64.0,60,40,6.0,0.0
7685,69.0,60,40,6.0,0.0
7686,73.0,60,40,6.0,0.0
7687,57.0,0,180,10.0,0.0
7688,76.0,36,180,7.0,0.0
7689,76.0,60,40,6.0,0.0
7690,64.0,0,180,8.0,0.0
7691,73.0,36,40,6.0,0.0
7692,69.0,24,40,6.0,0.0
7693,64.0,120,40,6.0,0.0
7694,59.0,0,390,11.0,0.0
7695,74.0,0,390,1.0,0.0
7696,86.0,24,390,0.0,0.0
7697,47.0,0,390,6.0,0.0
7698,59.0,0,390,6.0,0.0
7699,62.0,60,40,6.0,0.0
7700,68.0,60,40,6.0,0.0
7701,71.0,60,40,6.0,0.0
7702,62.0,0,180,10.0,0.0
7703,68.0,36,180,8.0,0.0
7704,74.0,0,180,7.0,0.0
7705,74.0,60,40,6.0,0.0
7706,71.0,36,40,6.0,0.0
7707,68.0,24,40,6.0,0.0
7708,62.0,60,40,6.0,0.0
7709,73.0,0,180,7.0,0.0
7710,45.0,0,4020,3.0,0.0
7711,57.0,0,4020,3.0,0.0
7712,85.0,0,180,0.0,0.0
7713,64.0,0,180,10.0,0.0
7714,45.0,0,780,6.0,0.0
7715,61.0,60,40,6.0,0.0
7716,33.0,0,180,12.0,0.0
7717,73.0,36,180,1.0,0.0
7718,69.0,0,180,8.0,0.0
7719,57.0,0,180,11.0,0.0
7720,33.0,0,780,6.0,0.0
7721,57.0,60,40,6.0,0.0
7722,61.0,24,40,6.0,0.0
7723,57.0,60,40,6.0,0.0
7724,64.0,60,40,6.0,0.0
7725,64.0,24,390,10.0,0.0
7726,61.0,0,390,8.0,0.0
7727,69.0,0,390,7.0,0.0
7728,61.0,60,40,6.0,0.0
7729,69.0,60,40,6.0,0.0
7730,64.0,60,40,6.0,0.0
7731,73.0,60,40,6.0,0.0
7732,69.0,36,40,6.0,0.0
7733,76.0,60,40,6.0,0.0
7734,73.0,60,40,6.0,0.0
7735,69.0,0,180,7.0,0.0
7736,81.0,60,40,6.0,0.0
7737,64.0,0,180,10.0,0.0
7738,61.0,36,180,8.0,0.0
7739,76.0,60,40,6.0,0.0
7740,85.0,24,40,6.0,0.0
7741,81.0,60,40,6.0,0.0
7742,80.0,60,40,6.0,0.0
7743,45.0,0,180,11.0,0.0
7744,33.0,0,780,6.0,0.0
7745,45.0,60,780,6.0,0.0
7746,33.0,36,180,12.0,0.0
7747,83.0,60,40,6.0,0.0
7748,86.0,24,40,6.0,0.0
7749,83.0,60,40,6.0,0.0
7750,80.0,60,40,6.0,0.0
7751,62.0,0,390,10.0,0.0
7752,68.0,0,390,8.0,0.0
7753,71.0,24,390,7.0,0.0
7754,83.0,60,40,6.0,0.0
7755,74.0,60,40,6.0,0.0
7756,80.0,60,40,6.0,0.0
7757,71.0,60,40,6.0,0.0
7758,74.0,36,40,6.0,0.0
7759,68.0,60,40,6.0,0.0
7760,71.0,60,40,6.0,0.0
7761,71.0,0,180,7.0,0.0
7762,68.0,0,180,8.0,0.0
7763,62.0,36,180,10.0,0.0
7764,62.0,0,40,6.0,0.0
7765,68.0,60,40,6.0,0.0
7766,71.0,24,40,6.0,0.0
7767,74.0,60,40,6.0,0.0
7768,73.0,60,40,6.0,0.0
7769,45.0,0,180,11.0,0.0
7770,45.0,0,780,6.0,0.0
7771,33.0,0,780,6.0,0.0
7772,33.0,36,180,12.0,0.0
7773,76.0,60,40,6.0,0.0
7774,79.0,24,40,6.0,0.0
7775,76.0,60,40,6.0,0.0
7776,64.0,0,390,10.0,0.0
7777,73.0,60,40,6.0,0.0
7778,73.0,24,390,7.0,0.0
7779,67.0,0,390,8.0,0.0
7780,76.0,60,40,6.0,0.0
7781,70.0,60,40,6.0,0.0
7782,73.0,60,40,6.0,0.0
7783,67.0,60,40,6.0,0.0
7784,70.0,36,40,6.0,0.0
7785,64.0,60,40,6.0,0.0
7786,67.0,60,40,6.0,0.0
7787,61.0,60,40,6.0,0.0
7788,73.0,0,180,7.0,0.0
7789,64.0,0,180,10.0,0.0
7790,67.0,36,180,8.0,0.0
7791,70.0,60,40,6.0,0.0
7792,69.0,24,40,6.0,0.0
7793,67.0,60,40,6.0,0.0
7794,45.0,60,780,6.0,0.0
7795,33.0,0,780,6.0,0.0
7796,65.0,60,40,6.0,0.0
7797,33.0,36,180,12.0,0.0
7798,45.0,0,180,11.0,0.0
7799,69.0,60,40,6.0,0.0
7800,74.0,24,40,6.0,0.0
7801,69.0,60,40,6.0,0.0
7802,62.0,24,390,10.0,0.0
7803,65.0,60,40,6.0,0.0
7804,74.0,0,180,7.0,0.0
7805,65.0,36,180,8.0,0.0
7806,69.0,60,40,6.0,0.0
7807,62.0,24,40,6.0,0.0
7808,65.0,60,40,6.0,0.0
7809,58.0,60,40,6.0,0.0
7810,77.0,36,180,7.0,0.0
7811,74.0,0,180,8.0,0.0
7812,62.0,36,40,6.0,0.0
7813,57.0,24,40,6.0,0.0
7814,62.0,60,40,6.0,0.0
7815,62.0,0,180,8.0,0.0
7816,56.0,0,40,6.0,0.0
7817,59.0,0,180,10.0,0.0
7818,68.0,36,180,7.0,0.0
7819,65.0,60,40,6.0,0.0
7820,64.0,24,40,6.0,0.0
7821,62.0,60,40,6.0,0.0
7822,45.0,0,180,11.0,0.0
7823,33.0,60,40,6.0,0.0
7824,69.0,0,180,7.0,0.0
7825,33.0,0,180,12.0,0.0
7826,61.0,36,180,6.0,0.0
7827,64.0,0,180,10.0,0.0
7828,61.0,0,180,8.0,0.0
7829,45.0,60,40,6.0,0.0
7830,44.0,24,40,6.0,0.0
7831,45.0,60,40,6.0,0.0
7832,57.0,12,90,6.0,0.0
7833,33.0,48,40,6.0,0.0
7834,45.0,60,40,6.0,0.0
7835,35.0,48,40,6.0,0.0
7836,59.0,12,90,6.0,0.0
7837,47.0,60,40,6.0,0.0
7838,61.0,12,90,6.0,0.0
7839,37.0,48,40,6.0,0.0
7840,49.0,60,40,6.0,0.0
7841,62.0,12,90,6.0,0.0
7842,38.0,48,40,6.0,0.0
7843,50.0,60,40,6.0,0.0
7844,40.0,48,40,6.0,0.0
7845,64.0,12,90,6.0,0.0
7846,52.0,60,40,6.0,0.0
7847,62.0,12,90,6.0,0.0
7848,38.0,48,40,6.0,0.0
7849,50.0,60,40,6.0,0.0
7850,37.0,60,40,6.0,0.0
7851,61.0,36,180,6.0,0.0
7852,49.0,60,40,6.0,0.0
7853,48.0,24,40,6.0,0.0
7854,49.0,60,40,6.0,0.0
7855,61.0,12,90,6.0,0.0
7856,37.0,48,40,6.0,0.0
7857,49.0,60,40,6.0,0.0
7858,38.0,48,40,6.0,0.0
7859,62.0,12,90,6.0,0.0
7860,50.0,60,40,6.0,0.0
7861,64.0,12,90,6.0,0.0
7862,40.0,48,40,6.0,0.0
7863,52.0,60,40,6.0,0.0
7864,66.0,12,90,6.0,0.0
7865,42.0,48,40,6.0,0.0
7866,54.0,60,40,6.0,0.0
7867,67.0,12,90,6.0,0.0
7868,43.0,48,40,6.0,0.0
7869,55.0,60,40,6.0,0.0
7870,42.0,48,40,6.0,0.0
7871,66.0,12,90,6.0,0.0
7872,54.0,60,40,6.0,0.0
7873,40.0,60,40,6.0,0.0
7874,64.0,36,180,6.0,0.0
7875,52.0,60,40,6.0,0.0
7876,51.0,24,40,6.0,0.0
7877,52.0,60,40,6.0,0.0
7878,40.0,48,40,6.0,0.0
7879,76.0,0,90,1.0,0.0
7880,64.0,0,90,1.0,0.0
7881,64.0,0,90,6.0,0.0
7882,76.0,12,90,0.0,0.0
7883,40.0,0,90,2.0,0.0
7884,52.0,0,90,2.0,0.0
7885,52.0,60,40,6.0,0.0
7886,42.0,0,90,2.0,0.0
7887,54.0,0,90,2.0,0.0
7888,66.0,0,90,6.0,0.0
7889,42.0,48,40,6.0,0.0
7890,66.0,12,90,1.0,0.0
7891,78.0,0,90,1.0,0.0
7892,78.0,0,90,0.0,0.0
7893,54.0,60,40,6.0,0.0
7894,43.0,0,90,2.0,0.0
7895,55.0,0,90,2.0,0.0
7896,43.0,48,40,6.0,0.0
7897,67.0,12,90,6.0,0.0
7898,79.0,0,90,0.0,0.0
7899,79.0,0,90,1.0,0.0
7900,67.0,0,90,1.0,0.0
7901,55.0,60,40,6.0,0.0
7902,81.0,0,90,1.0,0.0
7903,69.0,0,90,1.0,0.0
7904,45.0,48,40,6.0,0.0
7905,69.0,12,90,6.0,0.0
7906,45.0,0,90,2.0,0.0
7907,57.0,0,90,2.0,0.0
7908,81.0,0,90,0.0,0.0
7909,57.0,60,40,6.0,0.0
7910,47.0,0,90,2.0,0.0
7911,71.0,0,90,6.0,0.0
7912,71.0,0,90,1.0,0.0
7913,83.0,0,90,1.0,0.0
7914,47.0,48,40,6.0,0.0
7915,59.0,12,90,2.0,0.0
7916,83.0,0,90,0.0,0.0
7917,59.0,60,40,6.0,0.0
7918,45.0,48,40,6.0,0.0
7919,45.0,0,90,2.0,0.0
7920,81.0,0,90,0.0,0.0
7921,81.0,0,90,1.0,0.0
7922,69.0,0,90,1.0,0.0
7923,57.0,0,90,2.0,0.0
7924,69.0,12,90,6.0,0.0
7925,57.0,60,40,6.0,0.0
7926,79.0,0,90,1.0,0.0
7927,67.0,0,90,1.0,0.0
7928,55.0,12,90,2.0,0.0
7929,43.0,0,90,2.0,0.0
7930,79.0,0,90,0.0,0.0
7931,43.0,48,40,6.0,0.0
7932,67.0,0,90,6.0,0.0
7933,55.0,60,40,6.0,0.0
7934,66.0,0,90,1.0,0.0
7935,54.0,12,90,2.0,0.0
7936,66.0,0,90,6.0,0.0
7937,42.0,0,90,2.0,0.0
7938,78.0,0,90,1.0,0.0
7939,78.0,0,90,0.0,0.0
7940,42.0,48,40,6.0,0.0
7941,54.0,60,40,6.0,0.0
7942,43.0,12,90,2.0,0.0
7943,55.0,0,90,2.0,0.0
7944,43.0,48,40,6.0,0.0
7945,79.0,0,90,0.0,0.0
7946,79.0,0,90,1.0,0.0
7947,67.0,0,90,6.0,0.0
7948,67.0,0,90,1.0,0.0
7949,55.0,60,40,6.0,0.0
7950,81.0,0,90,1.0,0.0
7951,69.0,0,90,1.0,0.0
7952,45.0,48,40,6.0,0.0
7953,69.0,0,90,6.0,0.0
7954,81.0,12,90,0.0,0.0
7955,45.0,0,90,2.0,0.0
7956,57.0,0,90,2.0,0.0
7957,57.0,60,40,6.0,0.0
7958,47.0,0,90,2.0,0.0
7959,83.0,0,90,0.0,0.0
7960,47.0,48,40,6.0,0.0
7961,83.0,0,90,1.0,0.0
7962,71.0,0,90,1.0,0.0
7963,71.0,12,90,6.0,0.0
7964,59.0,0,90,2.0,0.0
7965,59.0,60,40,6.0,0.0
7966,45.0,48,40,6.0,0.0
7967,69.0,0,90,1.0,0.0
7968,81.0,12,90,1.0,0.0
7969,57.0,0,90,2.0,0.0
7970,45.0,0,90,2.0,0.0
7971,81.0,0,90,0.0,0.0
7972,69.0,0,90,6.0,0.0
7973,57.0,60,40,6.0,0.0
7974,47.0,0,90,2.0,0.0
7975,47.0,48,40,6.0,0.0
7976,59.0,0,90,2.0,0.0
7977,83.0,0,90,0.0,0.0
7978,71.0,0,90,1.0,0.0
7979,83.0,12,90,1.0,0.0
7980,71.0,0,90,6.0,0.0
7981,59.0,60,40,6.0,0.0
7982,61.0,0,90,2.0,0.0
7983,73.0,0,90,1.0,0.0
7984,49.0,48,40,6.0,0.0
7985,73.0,12,90,6.0,0.0
7986,85.0,0,90,1.0,0.0
7987,85.0,0,90,0.0,0.0
7988,49.0,0,90,2.0,0.0
7989,61.0,204,40,6.0,0.0
7990,74.0,0,180,1.0,0.0
7991,86.0,0,180,0.0,0.0
7992,50.0,0,180,11.0,0.0
7993,62.0,192,180,8.0,0.0
7994,74.0,0,180,4.0,0.0
7995,62.0,0,180,10.0,0.0
7996,62.0,0,180,4.0,0.0
7997,74.0,0,180,7.0,0.0
7998,62.0,0,180,3.0,0.0
7999,50.0,0,180,3.0,0.0
8000,50.0,0,180,2.0,0.0
8001,62.0,0,180,2.0,0.0
8002,86.0,0,180,7.0,0.0
8003,50.0,0,180,5.0,0.0
8004,62.0,0,180,7.0,0.0
8005,50.0,0,180,6.0,0.0
8006,74.0,0,180,6.0,0.0
8007,78.0,0,180,8.0,0.0
8008,69.0,0,180,8.0,0.0
8009,62.0,0,180,6.0,0.0
8010,86.0,0,180,1.0,0.0
8011,38.0,0,180,12.0,0.0
8012,74.0,0,150,1.0,0.0
8013,62.0,0,150,8.0,0.0
8014,74.0,0,150,4.0,0.0
8015,62.0,0,150,3.0,0.0
8016,62.0,0,150,4.0,0.0
8017,50.0,0,150,11.0,0.0
8018,74.0,0,150,0.0,0.0
8019,50.0,0,150,2.0,0.0
8020,50.0,0,150,5.0,0.0
8021,50.0,0,150,10.0,0.0
8022,62.0,0,150,7.0,0.0
8023,50.0,84,150,3.0,0.0
8024,38.0,0,150,12.0,0.0
8025,62.0,0,40,7.0,0.0
8026,62.0,0,40,4.0,0.0
8027,50.0,0,40,5.0,0.0
8028,50.0,0,40,11.0,0.0
8029,38.0,0,40,12.0,0.0
8030,50.0,0,40,3.0,0.0
8031,74.0,0,40,4.0,0.0
8032,74.0,0,40,0.0,0.0
8033,74.0,0,40,1.0,0.0
8034,62.0,0,40,8.0,0.0
8035,50.0,0,40,2.0,0.0
8036,62.0,204,40,3.0,0.0
8037,50.0,0,40,10.0,0.0
8038,50.0,0,180,10.0,0.0
8039,62.0,0,180,8.0,0.0
8040,74.0,240,180,1.0,0.0
8041,50.0,0,180,2.0,0.0
8042,50.0,0,180,3.0,0.0
8043,74.0,0,180,0.0,0.0
8044,62.0,0,180,4.0,0.0
8045,62.0,0,180,3.0,0.0
8046,74.0,0,180,4.0,0.0
8047,50.0,0,180,5.0,0.0
8048,50.0,0,180,11.0,0.0
8049,62.0,0,180,7.0,0.0
8050,38.0,0,180,12.0,0.0
8051,74.0,0,180,4.0,0.0
8052,74.0,0,180,0.0,0.0
8053,38.0,0,180,12.0,0.0
8054,50.0,0,180,3.0,0.0
8055,62.0,0,180,3.0,0.0
8056,74.0,96,180,1.0,0.0
8057,62.0,0,180,4.0,0.0
8058,50.0,0,180,5.0,0.0
8059,50.0,0,180,10.0,0.0
8060,62.0,0,180,7.0,0.0
8061,50.0,0,180,2.0,0.0
8062,62.0,0,180,8.0,0.0
8063,50.0,0,180,11.0,0.0
8064,62.0,0,180,4.0,0.0
8065,74.0,0,180,4.0,0.0
8066,38.0,0,90,12.0,0.0
8067,50.0,24,180,5.0,0.0
8068,74.0,0,570,0.0,0.0
8069,50.0,0,90,11.0,0.0
8070,74.0,24,390,1.0,0.0
8071,62.0,0,1740,3.0,0.0
8072,50.0,48,1740,3.0,0.0
8073,62.0,48,40,8.0,0.0
8074,62.0,0,570,7.0,0.0
8075,50.0,0,40,10.0,0.0
8076,50.0,12,90,2.0,0.0
8077,57.0,0,40,8.0,0.0
8078,62.0,0,40,6.0,0.0
8079,54.0,60,40,10.0,0.0
8080,38.0,0,90,12.0,0.0
8081,54.0,0,40,10.0,0.0
8082,50.0,0,90,11.0,0.0
8083,57.0,0,40,8.0,0.0
8084,64.0,24,40,6.0,0.0
8085,50.0,12,90,2.0,0.0
8086,54.0,60,40,10.0,0.0
8087,57.0,0,40,8.0,0.0
8088,66.0,0,40,6.0,0.0
8089,54.0,0,40,10.0,0.0
8090,50.0,0,90,11.0,0.0
8091,67.0,48,40,6.0,0.0
8092,50.0,0,90,2.0,0.0
8093,38.0,12,90,12.0,0.0
8094,57.0,0,40,8.0,0.0
8095,54.0,0,40,10.0,0.0
8096,69.0,0,40,6.0,0.0
8097,57.0,36,40,8.0,0.0
8098,38.0,12,90,12.0,0.0
8099,54.0,0,40,10.0,0.0
8100,71.0,0,40,6.0,0.0
8101,50.0,0,90,2.0,0.0
8102,57.0,48,40,8.0,0.0
8103,50.0,0,90,11.0,0.0
8104,54.0,0,40,10.0,0.0
8105,73.0,60,40,6.0,0.0
8106,57.0,0,40,8.0,0.0
8107,38.0,0,90,12.0,0.0
8108,74.0,0,40,6.0,0.0
8109,50.0,12,90,2.0,0.0
8110,50.0,0,90,11.0,0.0
8111,57.0,0,40,8.0,0.0
8112,54.0,48,40,10.0,0.0
8113,54.0,60,40,10.0,0.0
8114,76.0,0,40,6.0,0.0
8115,57.0,0,40,8.0,0.0
8116,50.0,0,90,2.0,0.0
8117,57.0,0,40,8.0,0.0
8118,50.0,12,90,11.0,0.0
8119,38.0,0,90,12.0,0.0
8120,54.0,48,40,10.0,0.0
8121,78.0,0,40,6.0,0.0
8122,57.0,36,40,8.0,0.0
8123,79.0,0,40,6.0,0.0
8124,54.0,0,40,10.0,0.0
8125,54.0,0,40,10.0,0.0
8126,38.0,12,90,12.0,0.0
8127,50.0,0,90,2.0,0.0
8128,64.0,24,20,7.0,0.0
8129,81.0,0,40,6.0,0.0
8130,57.0,6,40,8.0,0.0
8131,50.0,0,90,11.0,0.0
8132,76.0,0,20,0.0,0.0
8133,62.0,30,20,7.0,0.0
8134,74.0,0,20,0.0,0.0
8135,83.0,6,40,6.0,0.0
8136,64.0,12,20,7.0,0.0
8137,57.0,0,40,8.0,0.0
8138,76.0,0,20,0.0,0.0
8139,54.0,0,40,10.0,0.0
8140,74.0,0,20,0.0,0.0
8141,62.0,54,20,7.0,0.0
8142,85.0,0,40,6.0,0.0
8143,73.0,0,40,0.0,0.0
8144,54.0,0,40,10.0,0.0
8145,50.0,12,90,11.0,0.0
8146,50.0,0,90,2.0,0.0
8147,61.0,0,40,7.0,0.0
8148,57.0,48,40,8.0,0.0
8149,38.0,0,90,12.0,0.0
8150,57.0,0,40,8.0,0.0
8151,74.0,0,40,0.0,0.0
8152,86.0,0,40,6.0,0.0
8153,62.0,60,40,7.0,0.0
8154,54.0,0,40,10.0,0.0
8155,50.0,0,90,2.0,0.0
8156,64.0,0,90,7.0,0.0
8157,50.0,0,90,11.0,0.0
8158,76.0,12,90,0.0,0.0
8159,74.0,24,180,6.0,0.0
8160,38.0,0,90,12.0,0.0
8161,59.0,0,40,8.0,0.0
8162,55.0,48,40,10.0,0.0
8163,55.0,0,40,10.0,0.0
8164,59.0,60,40,8.0,0.0
8165,55.0,24,40,10.0,0.0
8166,38.0,0,90,12.0,0.0
8167,59.0,0,40,8.0,0.0
8168,50.0,0,90,2.0,0.0
8169,50.0,12,90,11.0,0.0
8170,55.0,0,40,10.0,0.0
8171,59.0,60,40,8.0,0.0
8172,55.0,48,40,10.0,0.0
8173,59.0,0,40,8.0,0.0
8174,38.0,0,90,12.0,0.0
8175,76.0,0,90,0.0,0.0
8176,50.0,0,90,11.0,0.0
8177,50.0,0,90,2.0,0.0
8178,64.0,12,90,7.0,0.0
8179,55.0,60,40,10.0,0.0
8180,59.0,0,40,8.0,0.0
8181,55.0,48,40,10.0,0.0
8182,59.0,0,40,8.0,0.0
8183,50.0,0,90,2.0,0.0
8184,38.0,12,90,12.0,0.0
8185,50.0,0,90,11.0,0.0
8186,59.0,0,40,8.0,0.0
8187,55.0,60,40,10.0,0.0
8188,57.0,0,40,10.0,0.0
8189,38.0,0,90,12.0,0.0
8190,60.0,48,40,8.0,0.0
8191,50.0,0,90,2.0,0.0
8192,50.0,12,90,11.0,0.0
8193,78.0,0,90,0.0,0.0
8194,66.0,0,90,7.0,0.0
8195,60.0,60,40,8.0,0.0
8196,57.0,0,40,10.0,0.0
8197,57.0,0,40,10.0,0.0
8198,60.0,48,40,8.0,0.0
8199,38.0,12,90,12.0,0.0
8200,50.0,0,90,2.0,0.0
8201,50.0,0,90,11.0,0.0
8202,57.0,60,40,10.0,0.0
8203,60.0,0,40,8.0,0.0
8204,60.0,0,40,8.0,0.0
8205,78.0,0,90,0.0,0.0
8206,50.0,0,90,11.0,0.0
8207,66.0,0,90,7.0,0.0
8208,57.0,0,40,10.0,0.0
8209,50.0,0,90,2.0,0.0
8210,38.0,12,90,12.0,0.0
8211,57.0,0,40,10.0,0.0
8212,60.0,60,40,8.0,0.0
8213,38.0,0,90,12.0,0.0
8214,50.0,0,90,2.0,0.0
8215,50.0,12,90,11.0,0.0
8216,60.0,48,40,8.0,0.0
8217,57.0,0,40,10.0,0.0
8218,60.0,60,40,8.0,0.0
8219,57.0,0,40,10.0,0.0
8220,79.0,0,570,0.0,0.0
8221,50.0,24,180,5.0,0.0
8222,50.0,0,90,11.0,0.0
8223,59.0,48,40,8.0,0.0
8224,67.0,0,570,7.0,0.0
8225,55.0,0,40,10.0,0.0
8226,67.0,0,390,1.0,0.0
8227,50.0,0,1740,3.0,0.0
8228,62.0,48,1740,3.0,0.0
8229,74.0,0,180,4.0,0.0
8230,62.0,0,180,4.0,0.0
8231,50.0,0,90,2.0,0.0
8232,38.0,12,90,12.0,0.0
8233,55.0,0,570,7.0,0.0
8234,79.0,24,390,1.0,0.0
8235,55.0,60,40,10.0,0.0
8236,59.0,0,40,8.0,0.0
8237,62.0,0,40,6.0,0.0
8238,38.0,12,90,12.0,0.0
8239,55.0,0,40,10.0,0.0
8240,64.0,24,40,6.0,0.0
8241,59.0,0,40,8.0,0.0
8242,50.0,0,90,2.0,0.0
8243,50.0,0,90,11.0,0.0
8244,66.0,0,40,6.0,0.0
8245,59.0,60,40,8.0,0.0
8246,55.0,0,40,10.0,0.0
8247,38.0,0,90,12.0,0.0
8248,59.0,0,40,8.0,0.0
8249,55.0,0,40,10.0,0.0
8250,67.0,48,40,6.0,0.0
8251,50.0,0,90,2.0,0.0
8252,50.0,12,90,11.0,0.0
8253,59.0,0,40,8.0,0.0
8254,55.0,0,40,10.0,0.0
8255,69.0,36,40,6.0,0.0
8256,50.0,0,90,2.0,0.0
8257,71.0,0,40,6.0,0.0
8258,59.0,48,40,8.0,0.0
8259,38.0,0,90,12.0,0.0
8260,50.0,12,90,11.0,0.0
8261,55.0,0,40,10.0,0.0
8262,55.0,0,40,10.0,0.0
8263,73.0,60,40,6.0,0.0
8264,59.0,0,40,8.0,0.0
8265,74.0,0,40,6.0,0.0
8266,50.0,12,90,11.0,0.0
8267,59.0,48,40,8.0,0.0
8268,55.0,0,40,10.0,0.0
8269,38.0,0,90,12.0,0.0
8270,50.0,0,90,2.0,0.0
8271,55.0,60,40,10.0,0.0
8272,76.0,0,40,6.0,0.0
8273,59.0,0,40,8.0,0.0
8274,50.0,12,90,2.0,0.0
8275,38.0,0,90,12.0,0.0
8276,55.0,0,40,10.0,0.0
8277,59.0,48,40,8.0,0.0
8278,50.0,0,90,11.0,0.0
8279,78.0,0,40,6.0,0.0
8280,59.0,0,40,8.0,0.0
8281,55.0,36,40,10.0,0.0
8282,79.0,0,40,6.0,0.0
8283,57.0,0,40,10.0,0.0
8284,81.0,6,40,6.0,0.0
8285,67.0,0,20,7.0,0.0
8286,38.0,0,90,12.0,0.0
8287,50.0,0,90,11.0,0.0
8288,60.0,0,40,8.0,0.0
8289,79.0,24,20,0.0,0.0
8290,50.0,12,90,2.0,0.0
8291,78.0,30,20,0.0,0.0
8292,66.0,0,20,7.0,0.0
8293,57.0,6,40,10.0,0.0
8294,79.0,12,20,0.0,0.0
8295,83.0,0,40,6.0,0.0
8296,67.0,0,20,7.0,0.0
8297,60.0,0,40,8.0,0.0
8298,78.0,0,20,0.0,0.0
8299,66.0,54,20,7.0,0.0
8300,50.0,0,90,2.0,0.0
8301,38.0,0,90,12.0,0.0
8302,85.0,0,40,6.0,0.0
8303,60.0,0,40,8.0,0.0
8304,57.0,0,40,10.0,0.0
8305,76.0,48,40,0.0,0.0
8306,64.0,0,40,7.0,0.0
8307,50.0,12,90,11.0,0.0
8308,86.0,0,40,6.0,0.0
8309,57.0,0,40,10.0,0.0
8310,60.0,0,40,8.0,0.0
8311,66.0,60,40,7.0,0.0
8312,78.0,0,40,0.0,0.0
8313,74.0,24,180,6.0,0.0
8314,59.0,0,40,8.0,0.0
8315,50.0,12,90,11.0,0.0
8316,50.0,0,90,2.0,0.0
8317,55.0,48,40,10.0,0.0
8318,67.0,0,90,7.0,0.0
8319,38.0,0,90,12.0,0.0
8320,79.0,0,90,0.0,0.0
8321,59.0,60,40,8.0,0.0
8322,55.0,0,40,10.0,0.0
8323,59.0,0,40,8.0,0.0
8324,38.0,12,90,12.0,0.0
8325,55.0,24,40,10.0,0.0
8326,50.0,0,90,11.0,0.0
8327,50.0,0,90,2.0,0.0
8328,55.0,60,40,10.0,0.0
8329,59.0,0,40,8.0,0.0
8330,38.0,12,90,12.0,0.0
8331,50.0,0,90,2.0,0.0
8332,59.0,48,40,8.0,0.0
8333,79.0,0,90,0.0,0.0
8334,67.0,0,90,7.0,0.0
8335,55.0,0,40,10.0,0.0
8336,50.0,0,90,11.0,0.0
8337,59.0,0,40,8.0,0.0
8338,55.0,60,40,10.0,0.0
8339,50.0,0,90,2.0,0.0
8340,50.0,12,90,11.0,0.0
8341,55.0,0,40,10.0,0.0
8342,59.0,48,40,8.0,0.0
8343,38.0,0,90,12.0,0.0
8344,55.0,60,40,10.0,0.0
8345,59.0,0,40,8.0,0.0
8346,69.0,0,90,7.0,0.0
8347,81.0,0,90,0.0,0.0
8348,66.0,48,40,8.0,0.0
8349,38.0,0,90,12.0,0.0
8350,50.0,0,90,11.0,0.0
8351,50.0,12,90,2.0,0.0
8352,60.0,0,40,10.0,0.0
8353,60.0,0,40,10.0,0.0
8354,66.0,60,40,8.0,0.0
8355,38.0,12,90,12.0,0.0
8356,66.0,48,40,8.0,0.0
8357,50.0,0,90,2.0,0.0
8358,50.0,0,90,11.0,0.0
8359,60.0,0,40,10.0,0.0
8360,66.0,0,40,8.0,0.0
8361,60.0,60,40,10.0,0.0
8362,38.0,0,90,12.0,0.0
8363,69.0,12,90,7.0,0.0
8364,81.0,0,90,0.0,0.0
8365,60.0,0,40,10.0,0.0
8366,50.0,0,90,2.0,0.0
8367,50.0,0,90,11.0,0.0
8368,66.0,0,40,8.0,0.0
8369,66.0,0,40,8.0,0.0
8370,60.0,60,40,10.0,0.0
8371,60.0,0,40,10.0,0.0
8372,38.0,12,90,12.0,0.0
8373,50.0,0,90,11.0,0.0
8374,50.0,0,90,2.0,0.0
8375,66.0,48,40,8.0,0.0
8376,60.0,60,40,10.0,0.0
8377,66.0,0,40,8.0,0.0
8378,38.0,0,90,12.0,0.0
8379,50.0,12,90,11.0,0.0
8380,59.0,48,40,10.0,0.0
8381,62.0,0,570,7.0,0.0
8382,71.0,0,570,7.0,0.0
8383,55.0,0,570,7.0,0.0
8384,50.0,0,90,2.0,0.0
8385,62.0,32,4020,3.0,0.0
8386,71.0,24,390,1.0,0.0
8387,74.0,0,180,4.0,0.0
8388,62.0,24,180,4.0,0.0
8389,83.0,0,390,1.0,0.0
8390,50.0,0,4020,3.0,0.0
8391,67.0,0,40,8.0,0.0
8392,83.0,0,570,0.0,0.0
8393,50.0,0,180,5.0,0.0
8394,67.0,0,40,8.0,0.0
8395,62.0,60,40,6.0,0.0
8396,59.0,0,40,10.0,0.0
8397,59.0,0,40,10.0,0.0
8398,64.0,0,40,6.0,0.0
8399,67.0,24,40,8.0,0.0
8400,38.0,0,90,12.0,0.0
8401,50.0,12,90,11.0,0.0
8402,50.0,0,90,2.0,0.0
8403,59.0,0,40,10.0,0.0
8404,67.0,60,40,8.0,0.0
8405,66.0,0,40,6.0,0.0
8406,59.0,0,40,10.0,0.0
8407,50.0,0,90,11.0,0.0
8408,38.0,0,90,12.0,0.0
8409,67.0,48,40,6.0,0.0
8410,67.0,0,40,8.0,0.0
8411,50.0,12,90,2.0,0.0
8412,67.0,0,40,8.0,0.0
8413,59.0,0,40,10.0,0.0
8414,69.0,36,40,6.0,0.0
8415,71.0,0,40,6.0,0.0
8416,50.0,0,90,11.0,0.0
8417,59.0,48,40,10.0,0.0
8418,38.0,0,90,12.0,0.0
8419,67.0,0,40,8.0,0.0
8420,50.0,12,90,2.0,0.0
8421,59.0,0,40,10.0,0.0
8422,73.0,60,40,6.0,0.0
8423,67.0,0,40,8.0,0.0
8424,50.0,0,90,11.0,0.0
8425,50.0,0,90,2.0,0.0
8426,38.0,12,90,12.0,0.0
8427,59.0,0,40,10.0,0.0
8428,67.0,0,40,8.0,0.0
8429,74.0,48,40,6.0,0.0
8430,67.0,0,40,8.0,0.0
8431,76.0,60,40,6.0,0.0
8432,59.0,0,40,10.0,0.0
8433,59.0,48,40,10.0,0.0
8434,78.0,0,40,6.0,0.0
8435,50.0,12,90,11.0,0.0
8436,38.0,0,90,12.0,0.0
8437,67.0,0,40,8.0,0.0
8438,50.0,0,90,2.0,0.0
8439,79.0,0,40,6.0,0.0
8440,67.0,0,40,8.0,0.0
8441,59.0,36,40,10.0,0.0
8442,50.0,12,90,2.0,0.0
8443,66.0,0,40,8.0,0.0
8444,50.0,0,90,11.0,0.0
8445,60.0,0,40,10.0,0.0
8446,38.0,0,90,12.0,0.0
8447,81.0,6,40,6.0,0.0
8448,83.0,0,20,0.0,0.0
8449,71.0,24,20,7.0,0.0
8450,69.0,30,20,7.0,0.0
8451,81.0,0,20,0.0,0.0
8452,60.0,0,40,10.0,0.0
8453,83.0,12,20,0.0,0.0
8454,66.0,0,40,8.0,0.0
8455,83.0,6,40,6.0,0.0
8456,71.0,0,20,7.0,0.0
8457,69.0,54,20,7.0,0.0
8458,81.0,0,20,0.0,0.0
8459,85.0,0,40,6.0,0.0
8460,67.0,0,40,7.0,0.0
8461,66.0,0,40,8.0,0.0
8462,38.0,0,90,12.0,0.0
8463,79.0,0,40,0.0,0.0
8464,50.0,12,90,2.0,0.0
8465,50.0,0,90,11.0,0.0
8466,60.0,48,40,10.0,0.0
8467,86.0,0,40,6.0,0.0
8468,81.0,60,40,0.0,0.0
8469,69.0,0,40,7.0,0.0
8470,66.0,0,40,8.0,0.0
8471,60.0,0,40,10.0,0.0
8472,83.0,0,90,0.0,0.0
8473,67.0,48,40,8.0,0.0
8474,38.0,12,90,12.0,0.0
8475,74.0,24,180,6.0,0.0
8476,71.0,0,90,7.0,0.0
8477,50.0,0,90,11.0,0.0
8478,59.0,0,40,10.0,0.0
8479,50.0,0,90,2.0,0.0
8480,59.0,60,40,10.0,0.0
8481,67.0,0,40,8.0,0.0
8482,50.0,0,90,11.0,0.0
8483,50.0,0,90,2.0,0.0
8484,59.0,0,40,10.0,0.0
8485,38.0,12,90,12.0,0.0
8486,67.0,24,40,8.0,0.0
8487,67.0,0,40,8.0,0.0
8488,59.0,60,40,10.0,0.0
8489,67.0,0,40,8.0,0.0
8490,50.0,12,90,11.0,0.0
8491,59.0,48,40,10.0,0.0
8492,50.0,0,90,2.0,0.0
8493,38.0,0,90,12.0,0.0
8494,83.0,0,90,0.0,0.0
8495,71.0,0,90,7.0,0.0
8496,59.0,0,40,10.0,0.0
8497,67.0,60,40,8.0,0.0
8498,67.0,48,40,8.0,0.0
8499,59.0,0,40,10.0,0.0
8500,50.0,0,90,11.0,0.0
8501,50.0,12,90,2.0,0.0
8502,38.0,0,90,12.0,0.0
8503,59.0,60,40,10.0,0.0
8504,67.0,0,40,8.0,0.0
8505,73.0,0,90,7.0,0.0
8506,50.0,12,90,2.0,0.0
8507,64.0,0,40,10.0,0.0
8508,67.0,48,40,8.0,0.0
8509,38.0,0,90,12.0,0.0
8510,50.0,0,90,11.0,0.0
8511,85.0,0,90,0.0,0.0
8512,67.0,0,40,8.0,0.0
8513,64.0,60,40,10.0,0.0
8514,50.0,12,90,11.0,0.0
8515,38.0,0,90,12.0,0.0
8516,67.0,48,40,8.0,0.0
8517,64.0,0,40,10.0,0.0
8518,50.0,0,90,2.0,0.0
8519,64.0,0,40,10.0,0.0
8520,67.0,60,40,8.0,0.0
8521,67.0,48,40,8.0,0.0
8522,50.0,0,90,11.0,0.0
8523,50.0,0,90,2.0,0.0
8524,38.0,0,90,12.0,0.0
8525,73.0,0,90,7.0,0.0
8526,64.0,0,40,10.0,0.0
8527,85.0,12,90,0.0,0.0
8528,64.0,60,40,10.0,0.0
8529,67.0,0,40,8.0,0.0
8530,50.0,0,90,11.0,0.0
8531,50.0,12,90,2.0,0.0
8532,64.0,48,40,10.0,0.0
8533,67.0,0,40,8.0,0.0
8534,38.0,0,90,12.0,0.0
8535,67.0,0,40,8.0,0.0
8536,64.0,108,40,10.0,0.0
8537,74.0,12,90,7.0,0.0
8538,86.0,0,180,0.0,0.0
8539,62.0,0,90,10.0,0.0
8540,38.0,36,180,12.0,0.0
8541,50.0,0,180,11.0,0.0
8542,62.0,48,1740,6.0,0.0
8543,66.0,0,90,8.0,0.0
8544,50.0,0,180,2.0,0.0
8545,74.0,60,40,6.0,0.0
8546,73.0,24,40,6.0,0.0
8547,74.0,60,40,6.0,0.0
8548,74.0,0,90,7.0,0.0
8549,66.0,0,90,10.0,0.0
8550,76.0,48,40,6.0,0.0
8551,74.0,12,90,8.0,0.0
8552,74.0,60,40,6.0,0.0
8553,73.0,60,40,6.0,0.0
8554,74.0,60,40,6.0,0.0
8555,78.0,48,40,6.0,0.0
8556,76.0,0,90,7.0,0.0
8557,73.0,12,90,8.0,0.0
8558,67.0,0,90,10.0,0.0
8559,73.0,36,180,6.0,0.0
8560,76.0,60,40,6.0,0.0
8561,74.0,24,40,6.0,0.0
8562,76.0,60,40,6.0,0.0
8563,69.0,0,90,10.0,0.0
8564,79.0,48,40,6.0,0.0
8565,78.0,0,90,7.0,0.0
8566,72.0,12,90,8.0,0.0
8567,72.0,36,180,6.0,0.0
8568,78.0,60,40,6.0,0.0
8569,76.0,24,40,6.0,0.0
8570,78.0,60,40,6.0,0.0
8571,81.0,48,40,6.0,0.0
8572,71.0,0,90,8.0,0.0
8573,79.0,12,90,7.0,0.0
8574,67.0,0,90,10.0,0.0
8575,71.0,36,180,6.0,0.0
8576,79.0,60,40,6.0,0.0
8577,78.0,24,40,6.0,0.0
8578,79.0,60,40,6.0,0.0
8579,66.0,36,180,6.0,0.0
8580,74.0,0,90,8.0,0.0
8581,66.0,12,90,10.0,0.0
8582,83.0,48,40,6.0,0.0
8583,81.0,0,90,7.0,0.0
8584,81.0,60,40,6.0,0.0
8585,79.0,24,40,6.0,0.0
8586,81.0,60,40,6.0,0.0
8587,84.0,48,40,6.0,0.0
8588,67.0,36,180,6.0,0.0
8589,74.0,0,90,8.0,0.0
8590,83.0,12,90,7.0,0.0
8591,67.0,0,90,10.0,0.0
8592,83.0,60,40,6.0,0.0
8593,81.0,24,40,6.0,0.0
8594,83.0,60,40,6.0,0.0
8595,86.0,0,40,6.0,0.0
8596,64.0,36,180,6.0,0.0
8597,64.0,12,90,10.0,0.0
8598,85.0,0,90,7.0,0.0
8599,79.0,0,90,8.0,0.0
8600,85.0,60,40,6.0,0.0
8601,83.0,24,40,6.0,0.0
8602,85.0,156,40,6.0,0.0
8603,86.0,80,390,7.0,0.0
8604,86.0,0,180,6.0,0.0
8605,78.0,0,390,8.0,0.0
8606,62.0,0,180,10.0,0.0
8607,38.0,48,60,6.0,0.0
8608,42.0,80,60,6.0,0.0
8609,45.0,80,60,6.0,0.0
8610,50.0,0,60,6.0,0.0
8611,54.0,80,60,6.0,0.0
8612,57.0,80,60,6.0,0.0
8613,66.0,0,300,8.0,0.0
8614,74.0,16,300,7.0,0.0
8615,54.0,80,60,6.0,0.0
8616,50.0,64,60,6.0,0.0
8617,45.0,80,60,6.0,0.0
8618,42.0,80,60,6.0,0.0
8619,38.0,4,60,6.0,0.0
8620,78.0,108,40,8.0,0.0
8621,86.0,0,40,7.0,0.0
8622,73.0,0,390,10.0,0.0
8623,85.0,48,90,7.0,0.0
8624,45.0,32,180,6.0,0.0
8625,57.0,0,390,11.0,0.0
8626,76.0,0,90,8.0,0.0
8627,69.0,48,60,6.0,0.0
8628,73.0,4,60,6.0,0.0
8629,74.0,0,40,8.0,0.0
8630,83.0,76,40,7.0,0.0
8631,76.0,32,60,6.0,0.0
8632,73.0,0,90,8.0,0.0
8633,81.0,48,90,7.0,0.0
8634,81.0,80,60,6.0,0.0
8635,85.0,4,60,6.0,0.0
8636,71.0,0,40,8.0,0.0
8637,79.0,76,40,7.0,0.0
8638,45.0,0,300,11.0,0.0
8639,61.0,16,300,10.0,0.0
8640,78.0,0,90,7.0,0.0
8641,88.0,32,60,6.0,0.0
8642,69.0,48,90,8.0,0.0
8643,85.0,80,60,6.0,0.0
8644,81.0,4,60,6.0,0.0
8645,76.0,0,40,7.0,0.0
8646,67.0,60,40,8.0,0.0
8647,76.0,32,60,6.0,0.0
8648,74.0,48,90,7.0,0.0
8649,66.0,0,90,8.0,0.0
8650,73.0,80,60,6.0,0.0
8651,69.0,4,60,6.0,0.0
8652,64.0,0,40,8.0,0.0
8653,69.0,108,40,10.0,0.0
8654,73.0,0,40,7.0,0.0
8655,57.0,0,40,11.0,0.0
8656,55.0,0,90,11.0,0.0
8657,71.0,0,570,7.0,0.0
8658,67.0,0,570,8.0,0.0
8659,71.0,32,180,6.0,0.0
8660,71.0,48,90,10.0,0.0
8661,43.0,48,60,6.0,0.0
8662,47.0,4,60,6.0,0.0
8663,69.0,76,40,10.0,0.0
8664,54.0,0,40,11.0,0.0
8665,50.0,32,60,6.0,0.0
8666,52.0,48,90,11.0,0.0
8667,67.0,0,90,10.0,0.0
8668,55.0,80,60,6.0,0.0
8669,59.0,4,60,6.0,0.0
8670,50.0,0,40,11.0,0.0
8671,66.0,76,40,10.0,0.0
8672,64.0,0,90,10.0,0.0
8673,62.0,32,60,6.0,0.0
8674,48.0,48,90,11.0,0.0
8675,59.0,80,60,6.0,0.0
8676,55.0,4,60,6.0,0.0
8677,62.0,76,40,10.0,0.0
8678,47.0,0,40,11.0,0.0
8679,45.0,48,90,11.0,0.0
8680,60.0,0,90,10.0,0.0
8681,50.0,32,60,6.0,0.0
8682,47.0,80,60,6.0,0.0
8683,43.0,4,60,6.0,0.0
8684,74.0,108,40,8.0,0.0
8685,83.0,0,40,7.0,0.0
8686,59.0,0,40,10.0,0.0
8687,43.0,0,40,11.0,0.0
8688,42.0,0,570,11.0,0.0
8689,81.0,0,90,7.0,0.0
8690,62.0,0,570,10.0,0.0
8691,42.0,32,180,6.0,0.0
8692,78.0,48,90,8.0,0.0
8693,62.0,48,60,6.0,0.0
8694,66.0,4,60,6.0,0.0
8695,79.0,76,40,7.0,0.0
8696,76.0,0,40,8.0,0.0
8697,69.0,32,60,6.0,0.0
8698,74.0,48,90,8.0,0.0
8699,78.0,0,90,7.0,0.0
8700,74.0,80,60,6.0,0.0
8701,78.0,4,60,6.0,0.0
8702,73.0,0,40,8.0,0.0
8703,76.0,76,40,7.0,0.0
8704,71.0,0,90,8.0,0.0
8705,81.0,32,60,6.0,0.0
8706,74.0,48,90,7.0,0.0
8707,78.0,80,60,6.0,0.0
8708,74.0,4,60,6.0,0.0
8709,69.0,0,40,8.0,0.0
8710,73.0,76,40,7.0,0.0
8711,67.0,0,90,8.0,0.0
8712,71.0,48,90,7.0,0.0
8713,69.0,32,60,6.0,0.0
8714,66.0,80,60,6.0,0.0
8715,62.0,4,60,6.0,0.0
8716,62.0,0,40,10.0,0.0
8717,66.0,0,40,11.0,0.0
8718,66.0,0,40,8.0,0.0
8719,69.0,108,40,7.0,0.0
8720,64.0,0,90,11.0,0.0
8721,61.0,32,180,6.0,0.0
8722,61.0,0,570,8.0,0.0
8723,67.0,48,90,10.0,0.0
8724,67.0,0,570,7.0,0.0
8725,40.0,48,60,6.0,0.0
8726,43.0,4,60,6.0,0.0
8727,62.0,0,40,11.0,0.0
8728,66.0,76,40,10.0,0.0
8729,45.0,32,60,6.0,0.0
8730,64.0,0,90,10.0,0.0
8731,61.0,48,90,11.0,0.0
8732,49.0,80,60,6.0,0.0
8733,52.0,4,60,6.0,0.0
8734,62.0,0,40,10.0,0.0
8735,59.0,76,40,11.0,0.0
8736,61.0,0,90,10.0,0.0
8737,55.0,32,60,6.0,0.0
8738,57.0,48,90,11.0,0.0
8739,52.0,80,60,6.0,0.0
8740,49.0,4,60,6.0,0.0
8741,59.0,0,40,10.0,0.0
8742,55.0,76,40,11.0,0.0
8743,54.0,48,90,11.0,0.0
8744,57.0,0,90,10.0,0.0
8745,45.0,32,60,6.0,0.0
8746,43.0,80,60,6.0,0.0
8747,40.0,4,60,6.0,0.0
8748,73.0,108,40,8.0,0.0
8749,79.0,0,40,7.0,0.0
8750,52.0,0,40,11.0,0.0
8751,55.0,0,40,10.0,0.0
8752,50.0,24,390,11.0,0.0
8753,57.0,0,390,10.0,0.0
8754,38.0,36,180,6.0,0.0
8755,78.0,12,90,7.0,0.0
8756,74.0,0,90,8.0,0.0
8757,62.0,60,40,6.0,0.0
8758,64.0,24,40,6.0,0.0
8759,76.0,0,40,7.0,0.0
8760,73.0,60,40,8.0,0.0
8761,66.0,0,40,6.0,0.0
8762,67.0,48,40,6.0,0.0
8763,71.0,12,90,8.0,0.0
8764,74.0,0,90,7.0,0.0
8765,69.0,36,40,6.0,0.0
8766,71.0,60,40,6.0,0.0
8767,69.0,0,40,8.0,0.0
8768,73.0,60,40,6.0,0.0
8769,73.0,0,40,7.0,0.0
8770,67.0,12,90,8.0,0.0
8771,74.0,48,40,6.0,0.0
8772,71.0,0,90,7.0,0.0
8773,76.0,60,40,6.0,0.0
8774,78.0,60,40,6.0,0.0
8775,69.0,0,40,7.0,0.0
8776,66.0,60,40,8.0,0.0
8777,79.0,0,40,6.0,0.0
8778,67.0,12,90,7.0,0.0
8779,64.0,0,90,8.0,0.0
8780,81.0,48,40,6.0,0.0
8781,83.0,60,40,6.0,0.0
8782,85.0,60,40,6.0,0.0
8783,62.0,0,40,8.0,0.0
8784,66.0,0,40,7.0,0.0
8785,86.0,60,40,6.0,0.0
8786,55.0,36,180,8.0,0.0
8787,83.0,60,40,6.0,0.0
8788,64.0,0,180,7.0,0.0
8789,55.0,12,570,6.0,0.0
8790,59.0,0,570,6.0,0.0
8791,85.0,60,40,6.0,0.0
8792,86.0,24,40,6.0,0.0
8793,83.0,60,40,6.0,0.0
8794,79.0,60,40,6.0,0.0
8795,81.0,60,40,6.0,0.0
8796,83.0,60,40,6.0,0.0
8797,79.0,60,40,6.0,0.0
8798,76.0,48,40,6.0,0.0
8799,78.0,60,40,6.0,0.0
8800,79.0,60,40,6.0,0.0
8801,76.0,60,40,6.0,0.0
8802,64.0,36,180,6.0,0.0
8803,56.0,0,180,6.0,0.0
8804,71.0,60,40,6.0,0.0
8805,73.0,60,40,6.0,0.0
8806,74.0,24,40,6.0,0.0
8807,71.0,60,40,6.0,0.0
8808,73.0,60,40,6.0,0.0
8809,64.0,36,180,6.0,0.0
8810,57.0,0,180,6.0,0.0
8811,69.0,60,40,6.0,0.0
8812,71.0,24,40,6.0,0.0
8813,73.0,60,40,6.0,0.0
8814,74.0,60,40,6.0,0.0
8815,76.0,60,40,6.0,0.0
8816,78.0,60,40,6.0,0.0
8817,80.0,60,40,6.0,0.0
8818,81.0,60,40,6.0,0.0
8819,69.0,60,40,6.0,0.0
8820,81.0,60,40,6.0,0.0
8821,69.0,60,40,6.0,0.0
8822,81.0,48,40,6.0,0.0
8823,73.0,0,90,1.0,0.0
8824,79.0,0,90,1.0,0.0
8825,64.0,12,90,8.0,0.0
8826,57.0,0,90,3.0,0.0
8827,64.0,0,90,3.0,0.0
8828,67.0,0,90,7.0,0.0
8829,61.0,0,90,10.0,0.0
8830,69.0,60,40,6.0,0.0
8831,81.0,60,40,6.0,0.0
8832,69.0,60,40,6.0,0.0
8833,78.0,0,90,1.0,0.0
8834,74.0,0,90,1.0,0.0
8835,66.0,0,90,3.0,0.0
8836,62.0,0,90,3.0,0.0
8837,66.0,12,90,7.0,0.0
8838,62.0,0,90,10.0,0.0
8839,62.0,0,90,8.0,0.0
8840,81.0,48,40,6.0,0.0
8841,69.0,60,40,6.0,0.0
8842,81.0,60,40,6.0,0.0
8843,69.0,60,40,6.0,0.0
8844,57.0,0,90,3.0,0.0
8845,57.0,0,90,10.0,0.0
8846,64.0,0,90,7.0,0.0
8847,64.0,0,90,3.0,0.0
8848,76.0,0,90,1.0,0.0
8849,73.0,12,90,1.0,0.0
8850,81.0,48,40,6.0,0.0
8851,61.0,0,90,8.0,0.0
8852,69.0,60,40,6.0,0.0
8853,81.0,60,40,6.0,0.0
8854,69.0,60,40,6.0,0.0
8855,54.0,0,90,3.0,0.0
8856,62.0,0,90,7.0,0.0
8857,69.0,0,90,1.0,0.0
8858,74.0,0,90,1.0,0.0
8859,57.0,0,90,8.0,0.0
8860,54.0,0,90,10.0,0.0
8861,81.0,48,40,6.0,0.0
8862,62.0,12,90,3.0,0.0
8863,69.0,60,40,6.0,0.0
8864,81.0,60,40,6.0,0.0
8865,69.0,60,40,6.0,0.0
8866,62.0,0,90,3.0,0.0
8867,50.0,0,180,11.0,0.0
8868,62.0,0,90,8.0,0.0
8869,38.0,36,180,12.0,0.0
8870,57.0,0,90,10.0,0.0
8871,74.0,0,90,1.0,0.0
8872,78.0,0,90,1.0,0.0
8873,74.0,48,40,0.0,0.0
8874,81.0,0,40,6.0,0.0
8875,66.0,12,90,3.0,0.0
8876,66.0,0,90,7.0,0.0
8877,78.0,0,40,0.0,0.0
8878,69.0,60,40,6.0,0.0
8879,81.0,0,40,6.0,0.0
8880,81.0,24,40,0.0,0.0
8881,69.0,60,40,6.0,0.0
8882,86.0,0,40,0.0,0.0
8883,73.0,0,180,1.0,0.0
8884,76.0,0,180,1.0,0.0
8885,81.0,0,40,6.0,0.0
8886,86.0,60,40,0.0,0.0
8887,45.0,0,180,12.0,0.0
8888,57.0,0,180,10.0,0.0
8889,64.0,36,180,3.0,0.0
8890,57.0,0,180,3.0,0.0
8891,57.0,0,180,11.0,0.0
8892,64.0,0,180,7.0,0.0
8893,61.0,0,180,8.0,0.0
8894,83.0,60,40,6.0,0.0
8895,85.0,0,40,0.0,0.0
8896,85.0,24,40,6.0,0.0
8897,83.0,0,40,0.0,0.0
8898,86.0,60,40,6.0,0.0
8899,81.0,0,40,0.0,0.0
8900,88.0,60,40,6.0,0.0
8901,81.0,36,180,0.0,0.0
8902,85.0,60,40,6.0,0.0
8903,86.0,24,40,6.0,0.0
8904,83.0,36,40,6.0,0.0
8905,83.0,30,20,6.0,0.0
8906,81.0,30,20,6.0,0.0
8907,83.0,30,20,6.0,0.0
8908,81.0,30,20,6.0,0.0
8909,83.0,30,20,6.0,0.0
8910,81.0,30,20,6.0,0.0
8911,83.0,30,20,6.0,0.0
8912,81.0,30,20,6.0,0.0
8913,67.0,0,90,7.0,0.0
8914,64.0,0,90,3.0,0.0
8915,57.0,0,90,3.0,0.0
8916,61.0,0,90,10.0,0.0
8917,83.0,30,20,6.0,0.0
8918,64.0,18,90,8.0,0.0
8919,73.0,0,90,1.0,0.0
8920,79.0,0,90,1.0,0.0
8921,81.0,30,20,6.0,0.0
8922,83.0,12,20,6.0,0.0
8923,81.0,30,20,6.0,0.0
8924,83.0,30,20,6.0,0.0
8925,81.0,30,20,6.0,0.0
8926,83.0,30,20,6.0,0.0
8927,81.0,30,20,6.0,0.0
8928,83.0,30,20,6.0,0.0
8929,62.0,0,90,8.0,0.0
8930,78.0,0,90,1.0,0.0
8931,74.0,0,90,1.0,0.0
8932,62.0,0,90,3.0,0.0
8933,66.0,18,90,3.0,0.0
8934,62.0,0,90,10.0,0.0
8935,66.0,0,90,7.0,0.0
8936,81.0,30,20,6.0,0.0
8937,83.0,12,20,6.0,0.0
8938,81.0,30,20,6.0,0.0
8939,83.0,30,20,6.0,0.0
8940,81.0,30,20,6.0,0.0
8941,83.0,30,20,6.0,0.0
8942,81.0,30,20,6.0,0.0
8943,57.0,0,90,3.0,0.0
8944,61.0,18,90,8.0,0.0
8945,83.0,30,20,6.0,0.0
8946,57.0,0,90,10.0,0.0
8947,64.0,0,90,3.0,0.0
8948,64.0,0,90,7.0,0.0
8949,73.0,0,90,1.0,0.0
8950,76.0,0,90,1.0,0.0
8951,81.0,30,20,6.0,0.0
8952,83.0,12,20,6.0,0.0
8953,81.0,30,20,6.0,0.0
8954,83.0,30,20,6.0,0.0
8955,81.0,30,20,6.0,0.0
8956,83.0,30,20,6.0,0.0
8957,81.0,30,20,6.0,0.0
8958,57.0,0,90,8.0,0.0
8959,54.0,0,90,10.0,0.0
8960,83.0,30,20,6.0,0.0
8961,62.0,0,90,7.0,0.0
8962,74.0,0,90,1.0,0.0
8963,54.0,0,90,3.0,0.0
8964,69.0,18,90,1.0,0.0
8965,62.0,0,90,3.0,0.0
8966,81.0,30,20,6.0,0.0
8967,83.0,12,20,6.0,0.0
8968,81.0,30,20,6.0,0.0
8969,83.0,30,20,6.0,0.0
8970,81.0,30,20,6.0,0.0
8971,83.0,30,20,6.0,0.0
8972,81.0,30,20,6.0,0.0
8973,62.0,0,90,8.0,0.0
8974,74.0,6,40,0.0,0.0
8975,83.0,24,20,6.0,0.0
8976,50.0,12,180,11.0,0.0
8977,66.0,0,90,7.0,0.0
8978,78.0,0,90,1.0,0.0
8979,62.0,0,90,3.0,0.0
8980,38.0,0,180,12.0,0.0
8981,74.0,0,90,1.0,0.0
8982,57.0,0,90,10.0,0.0
8983,66.0,12,90,3.0,0.0
8984,81.0,30,20,6.0,0.0
8985,78.0,6,40,0.0,0.0
8986,83.0,12,20,6.0,0.0
8987,81.0,30,20,6.0,0.0
8988,83.0,24,20,6.0,0.0
8989,81.0,6,40,0.0,0.0
8990,81.0,18,20,6.0,0.0
8991,86.0,6,40,0.0,0.0
8992,80.0,24,20,6.0,0.0
8993,81.0,198,20,6.0,0.0
8994,76.0,96,180,1.0,0.0
8995,57.0,0,180,10.0,0.0
8996,73.0,0,180,1.0,0.0
8997,85.0,0,180,0.0,0.0
8998,57.0,0,180,3.0,0.0
8999,45.0,0,180,12.0,0.0
9000,64.0,0,180,3.0,0.0
9001,64.0,0,180,7.0,0.0
9002,81.0,0,180,6.0,0.0
9003,57.0,0,180,11.0,0.0
9004,61.0,0,180,8.0,0.0
9005,64.0,0,180,2.0,0.0
9006,76.0,0,180,7.0,0.0
9007,57.0,0,40,6.0,0.0
9008,61.0,0,180,2.0,0.0
9009,73.0,36,180,8.0,0.0
9010,69.0,60,40,6.0,0.0
9011,61.0,60,40,6.0,0.0
9012,73.0,0,40,6.0,0.0
9013,64.0,24,40,6.0,0.0
9014,76.0,0,40,6.0,0.0
9015,69.0,204,40,6.0,0.0
9016,81.0,0,40,6.0,0.0
9017,62.0,0,180,2.0,0.0
9018,66.0,0,180,2.0,0.0
9019,78.0,0,180,7.0,0.0
9020,78.0,0,180,6.0,0.0
9021,74.0,96,180,8.0,0.0
9022,66.0,0,180,6.0,0.0
9023,62.0,0,180,6.0,0.0
9024,74.0,60,40,0.0,0.0
9025,38.0,36,180,12.0,0.0
9026,66.0,0,180,7.0,0.0
9027,50.0,0,180,11.0,0.0
9028,66.0,0,40,1.0,0.0
9029,62.0,0,180,8.0,0.0
9030,62.0,0,180,3.0,0.0
9031,57.0,0,180,10.0,0.0
9032,86.0,0,180,6.0,0.0
9033,78.0,0,180,6.0,0.0
9034,66.0,0,180,3.0,0.0
9035,78.0,60,40,0.0,0.0
9036,69.0,0,40,1.0,0.0
9037,81.0,0,40,0.0,0.0
9038,74.0,24,40,1.0,0.0
9039,86.0,0,40,0.0,0.0
9040,78.0,204,40,1.0,0.0
9041,45.0,0,180,12.0,0.0
9042,57.0,0,180,10.0,0.0
9043,85.0,0,180,0.0,0.0
9044,57.0,0,180,11.0,0.0
9045,64.0,0,180,3.0,0.0
9046,57.0,0,180,3.0,0.0
9047,61.0,0,180,8.0,0.0
9048,57.0,0,180,6.0,0.0
9049,76.0,0,180,1.0,0.0
9050,76.0,0,180,6.0,0.0
9051,85.0,0,180,6.0,0.0
9052,81.0,96,180,6.0,0.0
9053,64.0,0,180,7.0,0.0
9054,69.0,60,40,6.0,0.0
9055,61.0,0,180,2.0,0.0
9056,64.0,0,180,2.0,0.0
9057,73.0,36,180,8.0,0.0
9058,76.0,0,180,7.0,0.0
9059,57.0,0,40,6.0,0.0
9060,73.0,60,40,6.0,0.0
9061,61.0,0,40,6.0,0.0
9062,64.0,24,40,6.0,0.0
9063,76.0,0,40,6.0,0.0
9064,69.0,204,40,6.0,0.0
9065,81.0,0,40,6.0,0.0
9066,78.0,0,180,7.0,0.0
9067,78.0,0,180,6.0,0.0
9068,74.0,96,180,8.0,0.0
9069,66.0,0,180,6.0,0.0
9070,66.0,0,180,2.0,0.0
9071,62.0,0,180,2.0,0.0
9072,62.0,0,180,8.0,0.0
9073,78.0,0,180,6.0,0.0
9074,50.0,0,180,11.0,0.0
9075,62.0,0,180,3.0,0.0
9076,38.0,0,180,12.0,0.0
9077,66.0,60,40,1.0,0.0
9078,62.0,36,180,6.0,0.0
9079,86.0,0,180,6.0,0.0
9080,57.0,0,180,10.0,0.0
9081,66.0,0,180,3.0,0.0
9082,74.0,0,40,0.0,0.0
9083,66.0,0,180,7.0,0.0
9084,78.0,60,40,0.0,0.0
9085,69.0,0,40,1.0,0.0
9086,74.0,0,40,1.0,0.0
9087,81.0,24,40,0.0,0.0
9088,86.0,0,40,0.0,0.0
9089,78.0,60,40,1.0,0.0
9090,57.0,0,180,6.0,0.0
9091,45.0,0,180,12.0,0.0
9092,64.0,0,180,3.0,0.0
9093,57.0,0,180,3.0,0.0
9094,81.0,0,780,1.0,0.0
9095,57.0,0,90,10.0,0.0
9096,85.0,0,180,0.0,0.0
9097,76.0,36,180,1.0,0.0
9098,64.0,0,90,7.0,0.0
9099,61.0,12,90,8.0,0.0
9100,57.0,0,180,11.0,0.0
9101,73.0,48,40,6.0,0.0
9102,76.0,60,40,6.0,0.0
9103,81.0,24,40,6.0,0.0
9104,85.0,60,40,6.0,0.0
9105,62.0,0,90,8.0,0.0
9106,38.0,0,180,12.0,0.0
9107,66.0,12,90,7.0,0.0
9108,57.0,0,90,10.0,0.0
9109,66.0,0,180,3.0,0.0
9110,86.0,0,180,0.0,0.0
9111,74.0,48,40,6.0,0.0
9112,78.0,36,180,1.0,0.0
9113,62.0,0,180,6.0,0.0
9114,50.0,0,180,11.0,0.0
9115,62.0,0,180,3.0,0.0
9116,78.0,60,40,6.0,0.0
9117,81.0,24,40,6.0,0.0
9118,86.0,60,40,6.0,0.0
9119,76.0,36,180,1.0,0.0
9120,45.0,0,180,12.0,0.0
9121,57.0,0,180,11.0,0.0
9122,85.0,0,180,0.0,0.0
9123,57.0,0,90,10.0,0.0
9124,61.0,12,90,8.0,0.0
9125,57.0,0,180,3.0,0.0
9126,64.0,0,90,7.0,0.0
9127,73.0,48,40,6.0,0.0
9128,57.0,0,180,6.0,0.0
9129,64.0,0,180,3.0,0.0
9130,76.0,60,40,6.0,0.0
9131,81.0,24,40,6.0,0.0
9132,85.0,60,40,6.0,0.0
9133,78.0,36,180,1.0,0.0
9134,38.0,0,180,12.0,0.0
9135,50.0,0,180,11.0,0.0
9136,86.0,0,180,0.0,0.0
9137,57.0,0,90,10.0,0.0
9138,66.0,0,90,7.0,0.0
9139,62.0,0,180,3.0,0.0
9140,62.0,12,90,8.0,0.0
9141,62.0,0,180,6.0,0.0
9142,74.0,48,40,6.0,0.0
9143,66.0,0,180,3.0,0.0
9144,78.0,60,40,6.0,0.0
9145,81.0,24,40,6.0,0.0
9146,86.0,108,40,6.0,0.0
9147,76.0,0,180,1.0,0.0
9148,57.0,96,90,10.0,0.0
9149,85.0,24,180,0.0,0.0
9150,57.0,0,180,6.0,0.0
9151,45.0,0,180,12.0,0.0
9152,64.0,0,180,3.0,0.0
9153,81.0,0,180,1.0,0.0
9154,57.0,0,180,3.0,0.0
9155,64.0,0,90,7.0,0.0
9156,85.0,0,180,6.0,0.0
9157,81.0,0,180,6.0,0.0
9158,76.0,0,180,6.0,0.0
9159,61.0,0,90,8.0,0.0
9160,57.0,0,180,11.0,0.0
9161,57.0,0,90,8.0,0.0
9162,57.0,120,90,7.0,0.0
9163,57.0,0,90,10.0,0.0
9164,57.0,120,90,7.0,0.0
9165,57.0,0,90,10.0,0.0
9166,57.0,0,90,8.0,0.0
9167,57.0,120,90,10.0,0.0
9168,57.0,0,90,8.0,0.0
9169,57.0,0,90,7.0,0.0
9170,57.0,0,90,8.0,0.0
9171,57.0,120,90,10.0,0.0
9172,57.0,0,90,7.0,0.0
9173,57.0,0,90,8.0,0.0
9174,57.0,0,90,10.0,0.0
9175,57.0,72,90,7.0,0.0
9176,57.0,0,90,7.0,0.0
9177,57.0,0,40,6.0,0.0
9178,57.0,12,90,8.0,0.0
9179,69.0,48,40,6.0,0.0
9180,57.0,0,90,10.0,0.0
9181,59.0,60,40,6.0,0.0
9182,71.0,0,40,6.0,0.0
9183,69.0,48,40,6.0,0.0
9184,57.0,0,90,8.0,0.0
9185,57.0,0,40,6.0,0.0
9186,57.0,12,90,10.0,0.0
9187,57.0,0,90,7.0,0.0
9188,71.0,0,40,6.0,0.0
9189,59.0,108,40,6.0,0.0
9190,57.0,0,90,7.0,0.0
9191,57.0,0,90,8.0,0.0
9192,57.0,0,90,10.0,0.0
9193,73.0,0,90,6.0,0.0
9194,61.0,120,90,6.0,0.0
9195,57.0,0,90,7.0,0.0
9196,57.0,120,90,10.0,0.0
9197,57.0,0,90,8.0,0.0
9198,73.0,0,180,6.0,0.0
9199,61.0,24,180,6.0,0.0
9200,57.0,0,90,7.0,0.0
9201,57.0,0,90,8.0,0.0
9202,57.0,96,90,10.0,0.0
9203,57.0,120,90,10.0,0.0
9204,57.0,0,90,8.0,0.0
9205,57.0,0,90,7.0,0.0
9206,57.0,120,90,7.0,0.0
9207,76.0,0,90,6.0,0.0
9208,64.0,0,90,6.0,0.0
9209,57.0,0,90,10.0,0.0
9210,57.0,0,90,8.0,0.0
9211,57.0,120,90,8.0,0.0
9212,57.0,0,90,7.0,0.0
9213,57.0,0,90,10.0,0.0
9214,57.0,0,90,10.0,0.0
9215,57.0,96,90,7.0,0.0
9216,64.0,24,180,6.0,0.0
9217,57.0,0,90,8.0,0.0
9218,76.0,0,180,6.0,0.0
9219,57.0,0,90,8.0,0.0
9220,57.0,120,90,7.0,0.0
9221,57.0,0,90,10.0,0.0
9222,45.0,0,5940,3.0,0.0
9223,73.0,0,180,6.0,0.0
9224,57.0,0,90,8.0,0.0
9225,57.0,0,5940,3.0,0.0
9226,33.0,24,180,12.0,0.0
9227,57.0,96,90,7.0,0.0
9228,45.0,0,180,11.0,0.0
9229,61.0,0,180,6.0,0.0
9230,57.0,0,90,10.0,0.0
9231,57.0,0,90,10.0,0.0
9232,57.0,0,90,7.0,0.0
9233,57.0,72,90,8.0,0.0
9234,57.0,0,90,8.0,0.0
9235,81.0,48,40,0.0,0.0
9236,57.0,0,90,10.0,0.0
9237,61.0,0,180,2.0,0.0
9238,64.0,0,180,2.0,0.0
9239,57.0,12,90,7.0,0.0
9240,73.0,0,180,1.0,0.0
9241,76.0,24,180,1.0,0.0
9242,80.0,60,40,0.0,0.0
9243,57.0,0,90,7.0,0.0
9244,81.0,24,40,0.0,0.0
9245,57.0,12,90,8.0,0.0
9246,57.0,0,90,10.0,0.0
9247,80.0,108,40,0.0,0.0
9248,57.0,0,90,8.0,0.0
9249,69.0,0,180,1.0,0.0
9250,81.0,24,180,0.0,0.0
9251,57.0,0,180,2.0,0.0
9252,61.0,0,180,2.0,0.0
9253,57.0,96,90,7.0,0.0
9254,73.0,0,180,1.0,0.0
9255,57.0,0,90,10.0,0.0
9256,57.0,72,90,8.0,0.0
9257,57.0,0,90,7.0,0.0
9258,57.0,0,90,10.0,0.0
9259,69.0,24,180,6.0,0.0
9260,57.0,0,180,6.0,0.0
9261,57.0,12,90,7.0,0.0
9262,57.0,0,90,8.0,0.0
9263,61.0,48,40,6.0,0.0
9264,73.0,0,40,6.0,0.0
9265,57.0,0,90,10.0,0.0
9266,62.0,0,40,6.0,0.0
9267,74.0,60,40,6.0,0.0
9268,57.0,12,90,8.0,0.0
9269,73.0,0,40,6.0,0.0
9270,61.0,24,40,6.0,0.0
9271,57.0,0,90,7.0,0.0
9272,57.0,0,90,10.0,0.0
9273,74.0,0,40,6.0,0.0
9274,62.0,108,40,6.0,0.0
9275,57.0,0,90,8.0,0.0
9276,64.0,0,90,6.0,0.0
9277,61.0,0,90,6.0,0.0
9278,57.0,0,90,7.0,0.0
9279,57.0,120,90,10.0,0.0
9280,73.0,0,90,6.0,0.0
9281,76.0,0,90,6.0,0.0
9282,57.0,0,90,10.0,0.0
9283,57.0,0,90,7.0,0.0
9284,57.0,120,90,8.0,0.0
9285,61.0,24,180,6.0,0.0
9286,57.0,96,90,8.0,0.0
9287,64.0,0,180,6.0,0.0
9288,73.0,0,180,6.0,0.0
9289,57.0,0,90,10.0,0.0
9290,76.0,0,180,6.0,0.0
9291,57.0,0,90,7.0,0.0
9292,57.0,0,90,10.0,0.0
9293,57.0,120,90,8.0,0.0
9294,57.0,0,90,7.0,0.0
9295,67.0,0,90,6.0,0.0
9296,57.0,0,90,8.0,0.0
9297,76.0,0,90,6.0,0.0
9298,79.0,0,90,6.0,0.0
9299,57.0,0,90,10.0,0.0
9300,57.0,120,90,7.0,0.0
9301,64.0,0,90,6.0,0.0
9302,57.0,120,90,7.0,0.0
9303,57.0,0,90,8.0,0.0
9304,57.0,0,90,10.0,0.0
9305,64.0,24,180,6.0,0.0
9306,57.0,96,90,7.0,0.0
9307,79.0,0,180,6.0,0.0
9308,76.0,0,180,6.0,0.0
9309,67.0,0,180,6.0,0.0
9310,57.0,0,90,8.0,0.0
9311,57.0,0,90,10.0,0.0
9312,57.0,120,90,8.0,0.0
9313,57.0,0,90,7.0,0.0
9314,57.0,0,90,10.0,0.0
9315,73.0,0,180,6.0,0.0
9316,45.0,0,180,11.0,0.0
9317,76.0,0,180,6.0,0.0
9318,57.0,0,90,7.0,0.0
9319,61.0,0,180,6.0,0.0
9320,33.0,24,180,12.0,0.0
9321,64.0,0,180,6.0,0.0
9322,57.0,0,90,8.0,0.0
9323,57.0,96,90,10.0,0.0
9324,57.0,72,90,7.0,0.0
9325,57.0,0,90,10.0,0.0
9326,57.0,0,90,8.0,0.0
9327,57.0,12,90,8.0,0.0
9328,81.0,48,40,0.0,0.0
9329,79.0,0,180,1.0,0.0
9330,57.0,0,90,10.0,0.0
9331,76.0,0,180,1.0,0.0
9332,67.0,24,180,2.0,0.0
9333,57.0,0,90,7.0,0.0
9334,64.0,0,180,2.0,0.0
9335,80.0,60,40,0.0,0.0
9336,57.0,12,90,10.0,0.0
9337,81.0,24,40,0.0,0.0
9338,57.0,0,90,8.0,0.0
9339,57.0,0,90,7.0,0.0
9340,80.0,108,40,0.0,0.0
9341,73.0,0,180,1.0,0.0
9342,57.0,0,90,7.0,0.0
9343,57.0,0,90,8.0,0.0
9344,64.0,0,180,2.0,0.0
9345,61.0,0,180,2.0,0.0
9346,76.0,24,180,1.0,0.0
9347,81.0,0,180,0.0,0.0
9348,57.0,96,90,10.0,0.0
9349,57.0,0,90,7.0,0.0
9350,57.0,72,90,8.0,0.0
9351,57.0,0,90,10.0,0.0
9352,57.0,0,90,10.0,0.0
9353,76.0,48,40,6.0,0.0
9354,64.0,0,40,6.0,0.0
9355,57.0,0,90,8.0,0.0
9356,57.0,12,90,7.0,0.0
9357,61.0,24,180,6.0,0.0
9358,73.0,0,180,6.0,0.0
9359,66.0,60,40,6.0,0.0
9360,78.0,0,40,6.0,0.0
9361,57.0,0,90,10.0,0.0
9362,64.0,0,40,6.0,0.0
9363,57.0,0,90,8.0,0.0
9364,76.0,24,40,6.0,0.0
9365,57.0,12,90,7.0,0.0
9366,66.0,108,40,6.0,0.0
9367,78.0,0,40,6.0,0.0
9368,57.0,0,90,7.0,0.0
9369,79.0,0,90,6.0,0.0
9370,76.0,0,90,6.0,0.0
9371,57.0,0,90,10.0,0.0
9372,64.0,0,90,6.0,0.0
9373,67.0,120,90,6.0,0.0
9374,57.0,0,90,8.0,0.0
9375,57.0,0,90,10.0,0.0
9376,57.0,0,90,7.0,0.0
9377,57.0,120,90,8.0,0.0
9378,79.0,0,180,6.0,0.0
9379,57.0,96,90,10.0,0.0
9380,67.0,0,180,6.0,0.0
9381,64.0,0,180,6.0,0.0
9382,57.0,0,90,8.0,0.0
9383,57.0,0,90,7.0,0.0
9384,76.0,24,180,6.0,0.0
9385,57.0,0,90,10.0,0.0
9386,57.0,120,90,8.0,0.0
9387,57.0,0,90,7.0,0.0
9388,57.0,120,90,8.0,0.0
9389,79.0,0,90,6.0,0.0
9390,83.0,0,90,6.0,0.0
9391,57.0,0,90,7.0,0.0
9392,71.0,0,90,6.0,0.0
9393,67.0,0,90,6.0,0.0
9394,57.0,0,90,10.0,0.0
9395,57.0,0,90,7.0,0.0
9396,57.0,72,90,10.0,0.0
9397,57.0,0,90,8.0,0.0
9398,57.0,12,90,8.0,0.0
9399,57.0,0,90,10.0,0.0
9400,67.0,24,180,6.0,0.0
9401,88.0,48,40,0.0,0.0
9402,79.0,0,180,6.0,0.0
9403,83.0,0,180,6.0,0.0
9404,57.0,0,90,7.0,0.0
9405,71.0,0,180,6.0,0.0
9406,87.0,60,40,0.0,0.0
9407,57.0,0,90,7.0,0.0
9408,57.0,12,90,10.0,0.0
9409,88.0,24,40,0.0,0.0
9410,57.0,0,90,8.0,0.0
9411,86.0,108,40,0.0,0.0
9412,73.0,0,90,6.0,0.0
9413,76.0,0,90,6.0,0.0
9414,45.0,0,180,11.0,0.0
9415,64.0,0,90,6.0,0.0
9416,61.0,0,90,6.0,0.0
9417,85.0,0,570,0.0,0.0
9418,57.0,0,90,10.0,0.0
9419,57.0,96,90,7.0,0.0
9420,33.0,24,180,12.0,0.0
9421,57.0,0,90,8.0,0.0
9422,57.0,0,90,7.0,0.0
9423,57.0,72,90,10.0,0.0
9424,57.0,0,90,8.0,0.0
9425,64.0,24,180,6.0,0.0
9426,61.0,0,180,6.0,0.0
9427,57.0,0,90,7.0,0.0
9428,73.0,0,180,6.0,0.0
9429,76.0,48,40,1.0,0.0
9430,79.0,0,40,1.0,0.0
9431,76.0,0,180,6.0,0.0
9432,57.0,0,90,8.0,0.0
9433,57.0,12,90,10.0,0.0
9434,78.0,60,40,1.0,0.0
9435,75.0,0,40,1.0,0.0
9436,57.0,12,90,8.0,0.0
9437,57.0,0,90,10.0,0.0
9438,57.0,0,90,7.0,0.0
9439,76.0,0,40,1.0,0.0
9440,79.0,24,40,1.0,0.0
9441,78.0,108,40,1.0,0.0
9442,74.0,0,40,1.0,0.0
9443,57.0,0,90,10.0,0.0
9444,76.0,0,90,6.0,0.0
9445,79.0,0,90,6.0,0.0
9446,67.0,0,90,6.0,0.0
9447,57.0,96,90,7.0,0.0
9448,64.0,0,90,6.0,0.0
9449,33.0,0,180,12.0,0.0
9450,73.0,0,660,1.0,0.0
9451,76.0,0,660,1.0,0.0
9452,57.0,0,90,8.0,0.0
9453,45.0,24,180,11.0,0.0
9454,57.0,0,90,10.0,0.0
9455,57.0,0,90,8.0,0.0
9456,57.0,72,90,7.0,0.0
9457,83.0,48,40,0.0,0.0
9458,67.0,0,180,6.0,0.0
9459,64.0,0,180,6.0,0.0
9460,57.0,12,90,10.0,0.0
9461,57.0,0,90,8.0,0.0
9462,76.0,24,180,6.0,0.0
9463,79.0,0,180,6.0,0.0
9464,57.0,0,90,7.0,0.0
9465,82.0,60,40,0.0,0.0
9466,57.0,12,90,8.0,0.0
9467,83.0,24,40,0.0,0.0
9468,57.0,0,90,7.0,0.0
9469,57.0,0,90,10.0,0.0
9470,81.0,108,40,0.0,0.0
9471,45.0,0,180,11.0,0.0
9472,73.0,0,90,6.0,0.0
9473,33.0,24,180,12.0,0.0
9474,79.0,0,570,0.0,0.0
9475,67.0,0,90,6.0,0.0
9476,55.0,0,90,6.0,0.0
9477,57.0,0,90,8.0,0.0
9478,57.0,0,90,10.0,0.0
9479,57.0,96,90,7.0,0.0
9480,61.0,0,90,6.0,0.0
9481,57.0,0,90,10.0,0.0
9482,57.0,72,90,8.0,0.0
9483,57.0,0,90,7.0,0.0
9484,55.0,0,180,6.0,0.0
9485,73.0,24,180,6.0,0.0
9486,61.0,0,180,6.0,0.0
9487,57.0,12,90,8.0,0.0
9488,71.0,0,40,1.0,0.0
9489,57.0,0,90,7.0,0.0
9490,67.0,0,180,6.0,0.0
9491,57.0,0,90,10.0,0.0
9492,67.0,48,40,1.0,0.0
9493,66.0,0,40,1.0,0.0
9494,69.0,60,40,1.0,0.0
9495,57.0,0,90,7.0,0.0
9496,71.0,0,40,1.0,0.0
9497,57.0,0,90,10.0,0.0
9498,67.0,24,40,1.0,0.0
9499,57.0,12,90,8.0,0.0
9500,66.0,108,40,1.0,0.0
9501,69.0,0,40,1.0,0.0
9502,61.0,0,90,6.0,0.0
9503,57.0,0,90,8.0,0.0
9504,64.0,0,90,6.0,0.0
9505,45.0,24,180,11.0,0.0
9506,76.0,96,90,6.0,0.0
9507,57.0,0,90,10.0,0.0
9508,64.0,24,390,1.0,0.0
9509,67.0,0,390,1.0,0.0
9510,33.0,0,180,12.0,0.0
9511,73.0,0,90,6.0,0.0
9512,57.0,0,90,7.0,0.0
9513,57.0,72,90,10.0,0.0
9514,57.0,0,90,7.0,0.0
9515,57.0,0,90,8.0,0.0
9516,64.0,0,180,6.0,0.0
9517,76.0,0,180,6.0,0.0
9518,73.0,24,180,6.0,0.0
9519,57.0,0,90,10.0,0.0
9520,61.0,0,180,6.0,0.0
9521,64.0,0,90,2.0,0.0
9522,57.0,0,90,8.0,0.0
9523,57.0,0,90,7.0,0.0
9524,76.0,48,40,0.0,0.0
9525,61.0,12,90,2.0,0.0
9526,75.0,36,40,0.0,0.0
9527,62.0,0,90,2.0,0.0
9528,57.0,12,90,8.0,0.0
9529,66.0,0,90,2.0,0.0
9530,57.0,0,90,10.0,0.0
9531,57.0,0,90,7.0,0.0
9532,76.0,24,40,0.0,0.0
9533,74.0,108,40,0.0,0.0
9534,33.0,0,780,12.0,0.0
9535,73.0,96,90,0.0,0.0
9536,49.0,0,780,6.0,0.0
9537,57.0,0,780,10.0,0.0
9538,57.0,0,780,7.0,0.0
9539,55.0,0,780,6.0,0.0
9540,52.0,0,780,6.0,0.0
9541,45.0,0,780,6.0,0.0
9542,57.0,0,780,8.0,0.0
9543,67.0,48,780,6.0,0.0
9544,64.0,24,180,1.0,0.0
9545,64.0,0,780,6.0,0.0
9546,45.0,0,780,11.0,0.0
9547,61.0,0,780,6.0,0.0
9548,64.0,0,90,2.0,0.0
9549,67.0,0,180,1.0,0.0
9550,67.0,0,90,2.0,0.0
9551,62.0,0,90,2.0,0.0
9552,66.0,0,90,2.0,0.0
9553,74.0,120,90,0.0,0.0
9554,64.0,0,90,2.0,0.0
9555,61.0,0,90,2.0,0.0
9556,76.0,120,90,0.0,0.0
9557,78.0,0,90,0.0,0.0
9558,59.0,0,90,2.0,0.0
9559,62.0,120,90,2.0,0.0
9560,79.0,0,90,0.0,0.0
9561,57.0,0,90,2.0,0.0
9562,61.0,120,90,2.0,0.0
9563,59.0,0,90,2.0,0.0
9564,55.0,72,90,2.0,0.0
9565,81.0,0,90,0.0,0.0
9566,54.0,0,90,2.0,0.0
9567,57.0,120,90,2.0,0.0
9568,83.0,0,90,0.0,0.0
9569,85.0,0,90,0.0,0.0
9570,52.0,0,90,2.0,0.0
9571,55.0,120,90,2.0,0.0
9572,86.0,0,180,0.0,0.0
9573,62.0,48,390,3.0,0.0
9574,50.0,0,180,2.0,0.0
9575,54.0,0,390,3.0,0.0
9576,57.0,0,180,10.0,0.0
9577,54.0,0,180,2.0,0.0
9578,66.0,96,90,7.0,0.0
9579,62.0,24,180,6.0,0.0
9580,54.0,0,180,6.0,0.0
9581,62.0,0,90,8.0,0.0
9582,69.0,0,390,1.0,0.0
9583,74.0,0,390,1.0,0.0
9584,38.0,0,180,12.0,0.0
9585,66.0,0,180,6.0,0.0
9586,50.0,0,180,11.0,0.0
9587,50.0,0,180,6.0,0.0
9588,57.0,0,90,8.0,0.0
9589,62.0,120,90,7.0,0.0
9590,62.0,48,90,8.0,0.0
9591,50.0,24,180,11.0,0.0
9592,38.0,0,180,12.0,0.0
9593,57.0,48,390,10.0,0.0
9594,66.0,0,90,7.0,0.0
9595,69.0,0,90,7.0,0.0
9596,66.0,120,90,8.0,0.0
9597,78.0,0,390,1.0,0.0
9598,50.0,0,180,11.0,0.0
9599,62.0,48,90,8.0,0.0
9600,66.0,48,390,3.0,0.0
9601,66.0,0,90,7.0,0.0
9602,74.0,0,390,1.0,0.0
9603,62.0,0,390,3.0,0.0
9604,38.0,24,180,12.0,0.0
9605,57.0,0,90,8.0,0.0
9606,62.0,120,90,7.0,0.0
9607,50.0,24,180,11.0,0.0
9608,38.0,0,180,12.0,0.0
9609,57.0,0,420,10.0,0.0
9610,62.0,0,90,8.0,0.0
9611,66.0,48,90,7.0,0.0
9612,69.0,0,90,7.0,0.0
9613,66.0,120,90,8.0,0.0
9614,38.0,0,180,12.0,0.0
9615,62.0,96,90,8.0,0.0
9616,66.0,0,300,3.0,0.0
9617,69.0,0,300,3.0,0.0
9618,81.0,48,300,1.0,0.0
9619,50.0,24,180,11.0,0.0
9620,66.0,0,90,7.0,0.0
9621,78.0,0,300,1.0,0.0
9622,62.0,0,90,7.0,0.0
9623,57.0,72,90,8.0,0.0
9624,57.0,48,390,10.0,0.0
9625,38.0,24,180,12.0,0.0
9626,66.0,96,90,7.0,0.0
9627,50.0,0,180,11.0,0.0
9628,62.0,0,90,8.0,0.0
9629,66.0,0,90,8.0,0.0
9630,69.0,0,90,7.0,0.0
9631,62.0,0,90,3.0,0.0
9632,74.0,120,90,1.0,0.0
9633,66.0,0,90,3.0,0.0
9634,78.0,0,90,1.0,0.0
9635,69.0,0,180,1.0,0.0
9636,74.0,0,180,1.0,0.0
9637,50.0,0,180,11.0,0.0
9638,66.0,0,90,7.0,0.0
9639,62.0,0,180,3.0,0.0
9640,54.0,24,180,3.0,0.0
9641,38.0,0,180,12.0,0.0
9642,62.0,48,90,8.0,0.0
9643,62.0,0,90,7.0,0.0
9644,57.0,120,90,8.0,0.0
9645,54.0,0,180,3.0,0.0
9646,38.0,0,180,12.0,0.0
9647,66.0,96,90,7.0,0.0
9648,69.0,0,180,1.0,0.0
9649,74.0,0,180,1.0,0.0
9650,57.0,24,180,10.0,0.0
9651,50.0,0,180,11.0,0.0
9652,62.0,0,180,3.0,0.0
9653,62.0,0,90,8.0,0.0
9654,66.0,48,90,8.0,0.0
9655,69.0,0,90,7.0,0.0
9656,57.0,48,780,11.0,0.0
9657,45.0,0,780,12.0,0.0
9658,69.0,0,1740,10.0,0.0
9659,63.0,108,90,8.0,0.0
9660,76.0,0,20,7.0,0.0
9661,76.0,30,20,0.0,0.0
9662,78.0,0,20,0.0,0.0
9663,78.0,42,20,7.0,0.0
9664,79.0,0,150,7.0,0.0
9665,79.0,12,150,0.0,0.0
9666,64.0,120,90,8.0,0.0
9667,78.0,0,90,7.0,0.0
9668,66.0,0,90,8.0,0.0
9669,78.0,120,90,0.0,0.0
9670,76.0,0,90,7.0,0.0
9671,67.0,120,90,8.0,0.0
9672,76.0,0,90,0.0,0.0
9673,66.0,0,90,8.0,0.0
9674,75.0,120,90,0.0,0.0
9675,75.0,0,90,7.0,0.0
9676,76.0,72,90,7.0,0.0
9677,76.0,0,90,0.0,0.0
9678,67.0,0,90,8.0,0.0
9679,75.0,0,90,0.0,0.0
9680,66.0,0,90,8.0,0.0
9681,75.0,120,90,7.0,0.0
9682,76.0,48,90,0.0,0.0
9683,67.0,0,90,8.0,0.0
9684,76.0,0,90,7.0,0.0
9685,76.0,0,20,7.0,0.0
9686,33.0,0,780,12.0,0.0
9687,76.0,30,20,0.0,0.0
9688,63.0,108,90,8.0,0.0
9689,45.0,48,780,11.0,0.0
9690,78.0,0,20,7.0,0.0
9691,78.0,42,20,0.0,0.0
9692,79.0,12,150,7.0,0.0
9693,79.0,0,150,0.0,0.0
9694,64.0,120,90,8.0,0.0
9695,78.0,0,90,0.0,0.0
9696,66.0,120,90,8.0,0.0
9697,78.0,0,90,7.0,0.0
9698,76.0,0,90,7.0,0.0
9699,67.0,120,90,8.0,0.0
9700,76.0,0,90,0.0,0.0
9701,76.0,120,90,7.0,0.0
9702,67.0,0,90,8.0,0.0
9703,76.0,0,90,0.0,0.0
9704,66.0,0,90,8.0,0.0
9705,74.0,0,90,0.0,0.0
9706,74.0,72,90,7.0,0.0
9707,66.0,0,90,8.0,0.0
9708,74.0,0,90,7.0,0.0
9709,74.0,120,90,0.0,0.0
9710,64.0,120,90,8.0,0.0
9711,73.0,0,90,0.0,0.0
9712,73.0,0,90,7.0,0.0
9713,74.0,0,90,7.0,0.0
9714,54.0,96,90,6.0,0.0
9715,62.0,0,390,3.0,0.0
9716,50.0,0,180,11.0,0.0
9717,74.0,0,390,1.0,0.0
9718,62.0,0,90,6.0,0.0
9719,66.0,0,90,8.0,0.0
9720,69.0,0,390,1.0,0.0
9721,57.0,0,180,10.0,0.0
9722,50.0,48,780,6.0,0.0
9723,38.0,24,180,12.0,0.0
9724,54.0,48,390,3.0,0.0
9725,62.0,0,90,7.0,0.0
9726,57.0,0,90,6.0,0.0
9727,74.0,0,90,6.0,0.0
9728,57.0,120,90,8.0,0.0
9729,38.0,0,180,12.0,0.0
9730,50.0,24,180,11.0,0.0
9731,57.0,48,390,10.0,0.0
9732,74.0,0,90,6.0,0.0
9733,62.0,48,90,8.0,0.0
9734,54.0,0,90,6.0,0.0
9735,66.0,0,90,7.0,0.0
9736,74.0,0,90,6.0,0.0
9737,69.0,120,90,7.0,0.0
9738,66.0,0,90,8.0,0.0
9739,57.0,0,90,6.0,0.0
9740,66.0,0,90,6.0,0.0
9741,50.0,24,180,11.0,0.0
9742,62.0,0,90,8.0,0.0
9743,66.0,0,390,3.0,0.0
9744,74.0,0,390,1.0,0.0
9745,38.0,0,180,12.0,0.0
9746,66.0,0,90,7.0,0.0
9747,78.0,48,390,1.0,0.0
9748,54.0,48,90,6.0,0.0
9749,62.0,0,390,3.0,0.0
9750,57.0,0,90,8.0,0.0
9751,62.0,0,90,7.0,0.0
9752,78.0,72,90,6.0,0.0
9753,57.0,0,90,6.0,0.0
9754,62.0,48,90,8.0,0.0
9755,50.0,24,180,11.0,0.0
9756,66.0,0,90,7.0,0.0
9757,38.0,0,180,12.0,0.0
9758,54.0,0,90,6.0,0.0
9759,57.0,0,420,10.0,0.0
9760,78.0,0,90,6.0,0.0
9761,66.0,0,90,8.0,0.0
9762,69.0,120,90,7.0,0.0
9763,57.0,0,90,6.0,0.0
9764,78.0,0,90,6.0,0.0
9765,66.0,96,90,7.0,0.0
9766,50.0,24,180,11.0,0.0
9767,50.0,48,780,6.0,0.0
9768,81.0,0,300,1.0,0.0
9769,69.0,0,300,3.0,0.0
9770,66.0,48,300,3.0,0.0
9771,54.0,0,90,6.0,0.0
9772,38.0,0,180,12.0,0.0
9773,62.0,0,90,8.0,0.0
9774,69.0,0,90,6.0,0.0
9775,78.0,0,300,1.0,0.0
9776,57.0,72,90,6.0,0.0
9777,81.0,0,90,6.0,0.0
9778,57.0,0,90,8.0,0.0
9779,62.0,0,90,7.0,0.0
9780,57.0,48,390,10.0,0.0
9781,66.0,0,90,7.0,0.0
9782,38.0,0,180,12.0,0.0
9783,81.0,0,90,6.0,0.0
9784,54.0,0,90,6.0,0.0
9785,62.0,96,90,8.0,0.0
9786,50.0,24,180,11.0,0.0
9787,74.0,0,90,1.0,0.0
9788,57.0,0,90,6.0,0.0
9789,78.0,120,90,1.0,0.0
9790,66.0,0,90,3.0,0.0
9791,62.0,0,90,3.0,0.0
9792,66.0,0,90,8.0,0.0
9793,69.0,0,90,7.0,0.0
9794,81.0,0,90,6.0,0.0
9795,54.0,0,180,3.0,0.0
9796,62.0,0,90,8.0,0.0
9797,74.0,0,90,6.0,0.0
9798,62.0,0,180,3.0,0.0
9799,69.0,0,180,1.0,0.0
9800,74.0,0,180,1.0,0.0
9801,50.0,24,180,11.0,0.0
9802,66.0,0,90,7.0,0.0
9803,38.0,0,180,12.0,0.0
9804,54.0,48,90,6.0,0.0
9805,86.0,72,90,6.0,0.0
9806,62.0,0,90,7.0,0.0
9807,57.0,0,90,6.0,0.0
9808,57.0,0,90,8.0,0.0
9809,54.0,96,90,6.0,0.0
9810,54.0,0,180,3.0,0.0
9811,62.0,24,180,3.0,0.0
9812,86.0,0,90,6.0,0.0
9813,74.0,0,180,1.0,0.0
9814,62.0,0,90,8.0,0.0
9815,50.0,0,180,11.0,0.0
9816,38.0,0,180,12.0,0.0
9817,57.0,0,180,10.0,0.0
9818,66.0,0,90,7.0,0.0
9819,69.0,0,180,1.0,0.0
9820,69.0,0,90,7.0,0.0
9821,86.0,48,90,6.0,0.0
9822,66.0,0,90,8.0,0.0
9823,57.0,0,90,6.0,0.0
9824,76.0,0,20,6.0,0.0
9825,88.0,72,390,0.0,0.0
9826,57.0,0,780,6.0,0.0
9827,67.0,108,90,6.0,0.0
9828,69.0,0,1740,10.0,0.0
9829,57.0,0,780,11.0,0.0
9830,61.0,48,780,8.0,0.0
9831,76.0,30,20,1.0,0.0
9832,67.0,0,780,7.0,0.0
9833,64.0,0,780,8.0,0.0
9834,45.0,0,780,12.0,0.0
9835,78.0,42,20,1.0,0.0
9836,78.0,0,20,6.0,0.0
9837,79.0,12,150,6.0,0.0
9838,79.0,0,150,1.0,0.0
9839,69.0,120,90,6.0,0.0
9840,78.0,48,90,6.0,0.0
9841,78.0,0,90,1.0,0.0
9842,67.0,0,90,6.0,0.0
9843,69.0,120,90,6.0,0.0
9844,76.0,0,90,6.0,0.0
9845,76.0,0,90,1.0,0.0
9846,75.0,120,90,1.0,0.0
9847,75.0,0,90,6.0,0.0
9848,87.0,0,90,0.0,0.0
9849,67.0,0,90,6.0,0.0
9850,76.0,72,90,1.0,0.0
9851,76.0,0,90,6.0,0.0
9852,69.0,0,90,6.0,0.0
9853,88.0,0,90,0.0,0.0
9854,75.0,120,90,6.0,0.0
9855,75.0,0,90,1.0,0.0
9856,67.0,0,90,6.0,0.0
9857,87.0,0,90,0.0,0.0
9858,76.0,48,90,1.0,0.0
9859,69.0,0,90,6.0,0.0
9860,88.0,0,90,0.0,0.0
9861,76.0,0,90,6.0,0.0
9862,76.0,0,20,6.0,0.0
9863,88.0,72,390,0.0,0.0
9864,67.0,108,90,6.0,0.0
9865,57.0,0,780,6.0,0.0
9866,64.0,0,780,8.0,0.0
9867,61.0,0,780,8.0,0.0
9868,45.0,0,780,11.0,0.0
9869,33.0,48,780,12.0,0.0
9870,76.0,30,20,1.0,0.0
9871,67.0,0,780,7.0,0.0
9872,78.0,0,20,1.0,0.0
9873,78.0,42,20,6.0,0.0
9874,79.0,0,150,6.0,0.0
9875,79.0,12,150,1.0,0.0
9876,69.0,120,90,6.0,0.0
9877,78.0,0,90,6.0,0.0
9878,67.0,0,90,6.0,0.0
9879,78.0,48,90,1.0,0.0
9880,69.0,120,90,6.0,0.0
9881,76.0,0,90,6.0,0.0
9882,76.0,0,90,1.0,0.0
9883,76.0,120,90,6.0,0.0
9884,67.0,0,90,6.0,0.0
9885,88.0,0,90,0.0,0.0
9886,76.0,0,90,1.0,0.0
9887,69.0,72,90,6.0,0.0
9888,74.0,0,90,6.0,0.0
9889,74.0,0,90,1.0,0.0
9890,86.0,0,90,0.0,0.0
9891,74.0,0,90,1.0,0.0
9892,67.0,120,90,6.0,0.0
9893,74.0,0,90,6.0,0.0
9894,86.0,0,90,0.0,0.0
9895,85.0,0,90,0.0,0.0
9896,73.0,0,90,6.0,0.0
9897,69.0,0,90,6.0,0.0
9898,73.0,120,90,1.0,0.0
9899,50.0,0,1530,3.0,0.0
9900,53.0,0,1740,10.0,0.0
9901,74.0,0,90,6.0,0.0
9902,86.0,96,1530,0.0,0.0
9903,57.0,0,1740,10.0,0.0
9904,50.0,0,390,2.0,0.0
9905,65.0,0,90,7.0,0.0
9906,62.0,0,1530,3.0,0.0
9907,62.0,0,390,1.0,0.0
9908,38.0,48,1740,12.0,0.0
9909,62.0,24,180,6.0,0.0
9910,65.0,0,180,6.0,0.0
9911,74.0,72,390,1.0,0.0
9912,62.0,96,90,8.0,0.0
9913,50.0,0,1740,11.0,0.0
9914,62.0,0,90,7.0,0.0
9915,57.0,120,90,8.0,0.0
9916,62.0,0,90,8.0,0.0
9917,65.0,48,90,7.0,0.0
9918,74.0,0,90,6.0,0.0
9919,57.0,0,90,8.0,0.0
9920,62.0,120,90,7.0,0.0
9921,62.0,0,90,8.0,0.0
9922,81.0,120,90,6.0,0.0
9923,53.0,0,390,2.0,0.0
9924,65.0,0,390,1.0,0.0
9925,65.0,0,90,7.0,0.0
9926,77.0,72,390,1.0,0.0
9927,62.0,0,90,7.0,0.0
9928,57.0,120,90,8.0,0.0
9929,77.0,0,90,6.0,0.0
9930,62.0,0,90,8.0,0.0
9931,65.0,48,90,7.0,0.0
9932,62.0,120,90,7.0,0.0
9933,57.0,0,90,8.0,0.0
9934,69.0,48,300,1.0,0.0
9935,81.0,0,300,1.0,0.0
9936,74.0,0,90,6.0,0.0
9937,57.0,0,300,2.0,0.0
9938,65.0,120,90,7.0,0.0
9939,62.0,0,90,8.0,0.0
9940,57.0,72,90,8.0,0.0
9941,62.0,0,90,7.0,0.0
9942,69.0,0,90,6.0,0.0
9943,62.0,120,90,8.0,0.0
9944,65.0,0,90,7.0,0.0
9945,62.0,0,90,7.0,0.0
9946,77.0,0,90,1.0,0.0
9947,65.0,0,90,1.0,0.0
9948,53.0,120,90,2.0,0.0
9949,57.0,0,90,8.0,0.0
9950,62.0,0,180,1.0,0.0
9951,62.0,0,90,8.0,0.0
9952,50.0,0,180,2.0,0.0
9953,65.0,0,90,6.0,0.0
9954,65.0,0,90,7.0,0.0
9955,74.0,24,180,1.0,0.0
9956,62.0,72,90,7.0,0.0
9957,57.0,0,90,8.0,0.0
9958,62.0,96,90,6.0,0.0
9959,50.0,24,180,2.0,0.0
9960,62.0,0,90,8.0,0.0
9961,74.0,0,180,1.0,0.0
9962,65.0,0,90,7.0,0.0
9963,62.0,0,180,1.0,0.0
9964,57.0,408,90,8.0,0.0
9965,62.0,0,90,7.0,0.0
9966,72.0,0,390,6.0,0.0
9967,84.0,0,390,6.0,0.0
9968,77.0,480,390,6.0,0.0
9969,57.0,0,390,6.0,0.0
9970,53.0,0,390,6.0,0.0
9971,48.0,0,390,6.0,0.0
9972,45.0,0,390,6.0,0.0
9973,52.0,0,390,6.0,0.0
9974,48.0,0,390,6.0,0.0
9975,55.0,0,390,6.0,0.0
9976,43.0,0,390,6.0,0.0
9977,76.0,0,390,6.0,0.0
9978,82.0,480,390,6.0,0.0
9979,79.0,0,390,6.0,0.0
9980,72.0,0,390,6.0,0.0
9981,45.0,0,390,6.0,0.0
9982,48.0,0,390,6.0,0.0
9983,41.0,0,390,6.0,0.0
9984,53.0,0,390,6.0,0.0
9985,69.0,0,390,6.0,0.0
9986,81.0,0,390,6.0,0.0
9987,72.0,480,390,6.0,0.0
9988,77.0,0,390,6.0,0.0
9989,74.0,0,390,6.0,0.0
9990,79.0,0,390,6.0,0.0
9991,46.0,0,390,6.0,0.0
9992,55.0,0,390,6.0,0.0
9993,67.0,0,390,6.0,0.0
9994,70.0,0,390,6.0,0.0
9995,58.0,0,390,6.0,0.0
9996,50.0,480,390,6.0,0.0
9997,65.0,0,390,6.0,0.0
9998,69.0,0,390,6.0,0.0
9999,77.0,0,390,6.0,0.0
10000,72.0,0,390,6.0,0.0
10001,60.0,0,390,6.0,0.0
10002,57.0,0,390,6.0,0.0
10003,53.0,0,390,6.0,0.0
10004,48.0,480,390,6.0,0.0
10005,49.0,235,390,6.0,0.0
10006,58.0,0,390,6.0,0.0
10007,52.0,0,390,6.0,0.0
10008,76.0,0,390,6.0,0.0
10009,70.0,0,390,6.0,0.0
10010,67.0,0,390,6.0,0.0
10011,55.0,0,390,6.0,0.0
10012,64.0,0,390,6.0,0.0
10013,81.0,72,390,0.0,0.0
10014,77.0,0,390,1.0,0.0
10015,57.0,19,180,6.0,0.0
10016,50.0,0,180,6.0,0.0
10017,77.0,24,20,6.0,0.0
10018,79.0,24,20,6.0,0.0
10019,77.0,5,20,6.0,0.0
10020,76.0,24,20,6.0,0.0
10021,77.0,101,20,6.0,0.0
10022,81.0,48,90,6.0,0.0
10023,77.0,163,90,6.0,0.0
10024,76.0,0,390,1.0,0.0
10025,55.0,19,180,6.0,0.0
10026,58.0,0,180,6.0,0.0
10027,79.0,72,390,0.0,0.0
10028,76.0,24,20,6.0,0.0
10029,77.0,24,20,6.0,0.0
10030,76.0,5,20,6.0,0.0
10031,74.0,24,20,6.0,0.0
10032,76.0,101,20,6.0,0.0
10033,79.0,48,90,6.0,0.0
10034,76.0,163,90,6.0,0.0
10035,57.0,19,180,6.0,0.0
10036,65.0,0,180,6.0,0.0
10037,77.0,72,390,0.0,0.0
10038,74.0,0,390,1.0,0.0
10039,74.0,24,20,6.0,0.0
10040,76.0,24,20,6.0,0.0
10041,74.0,5,20,6.0,0.0
10042,73.0,24,20,6.0,0.0
10043,74.0,101,20,6.0,0.0
10044,77.0,48,90,6.0,0.0
10045,74.0,163,90,6.0,0.0
10046,73.0,0,390,1.0,0.0
10047,76.0,72,390,0.0,0.0
10048,64.0,0,180,6.0,0.0
10049,57.0,19,180,6.0,0.0
10050,73.0,24,20,6.0,0.0
10051,74.0,24,20,6.0,0.0
10052,73.0,5,20,6.0,0.0
10053,71.0,24,20,6.0,0.0
10054,73.0,101,20,6.0,0.0
10055,76.0,48,90,6.0,0.0
10056,73.0,120,90,6.0,0.0
10057,62.0,0,180,6.0,0.0
10058,74.0,0,180,0.0,0.0
10059,74.0,0,180,6.0,0.0
10060,66.0,120,180,10.0,0.0
10061,50.0,0,780,3.0,0.0
10062,38.0,0,180,12.0,0.0
10063,62.0,96,90,7.0,0.0
10064,74.0,0,180,1.0,0.0
10065,50.0,0,180,11.0,0.0
10066,62.0,24,780,3.0,0.0
10067,74.0,120,180,7.0,0.0
10068,52.0,0,180,11.0,0.0
10069,40.0,0,180,12.0,0.0
10070,67.0,120,180,10.0,0.0
10071,74.0,120,180,7.0,0.0
10072,69.0,96,180,10.0,0.0
10073,54.0,0,180,11.0,0.0
10074,42.0,0,180,12.0,0.0
10075,74.0,120,180,7.0,0.0
10076,55.0,144,180,11.0,0.0
10077,71.0,0,180,10.0,0.0
10078,43.0,0,180,12.0,0.0
10079,74.0,96,210,7.0,0.0
10080,57.0,0,180,11.0,0.0
10081,57.0,0,90,8.0,0.0
10082,69.0,0,180,3.0,0.0
10083,57.0,120,180,3.0,0.0
10084,45.0,0,180,12.0,0.0
10085,69.0,0,780,1.0,0.0
10086,45.0,24,780,2.0,0.0
10087,57.0,0,780,2.0,0.0
10088,64.0,48,390,10.0,0.0
10089,69.0,0,180,8.0,0.0
10090,73.0,72,180,7.0,0.0
10091,55.0,0,180,11.0,0.0
10092,43.0,120,180,12.0,0.0
10093,69.0,120,180,8.0,0.0
10094,72.0,0,180,7.0,0.0
10095,62.0,0,180,10.0,0.0
10096,42.0,0,180,12.0,0.0
10097,54.0,96,180,11.0,0.0
10098,72.0,0,180,7.0,0.0
10099,69.0,120,180,8.0,0.0
10100,53.0,0,180,11.0,0.0
10101,41.0,96,180,12.0,0.0
10102,63.0,0,180,10.0,0.0
10103,69.0,0,210,8.0,0.0
10104,72.0,12,210,7.0,0.0
10105,52.0,48,40,6.0,0.0
10106,76.0,24,780,1.0,0.0
10107,64.0,36,180,2.0,0.0
10108,52.0,0,780,2.0,0.0
10109,52.0,0,180,11.0,0.0
10110,40.0,0,180,12.0,0.0
10111,64.0,0,780,10.0,0.0
10112,64.0,0,780,1.0,0.0
10113,64.0,60,40,6.0,0.0
10114,67.0,0,180,8.0,0.0
10115,63.0,24,40,6.0,0.0
10116,71.0,36,180,7.0,0.0
10117,64.0,60,40,6.0,0.0
10118,50.0,0,180,11.0,0.0
10119,38.0,36,180,12.0,0.0
10120,50.0,24,40,6.0,0.0
10121,62.0,60,40,6.0,0.0
10122,68.0,36,180,8.0,0.0
10123,61.0,24,40,6.0,0.0
10124,76.0,0,180,7.0,0.0
10125,62.0,60,40,6.0,0.0
10126,49.0,24,40,6.0,0.0
10127,37.0,36,180,12.0,0.0
10128,49.0,0,180,11.0,0.0
10129,61.0,60,40,6.0,0.0
10130,69.0,36,180,8.0,0.0
10131,59.0,24,40,6.0,0.0
10132,76.0,0,180,7.0,0.0
10133,61.0,60,40,6.0,0.0
10134,36.0,0,180,12.0,0.0
10135,48.0,0,40,6.0,0.0
10136,48.0,36,180,11.0,0.0
10137,60.0,60,40,6.0,0.0
10138,69.0,0,210,8.0,0.0
10139,76.0,12,210,7.0,0.0
10140,59.0,24,40,6.0,0.0
10141,60.0,60,40,6.0,0.0
10142,83.0,0,180,1.0,0.0
10143,47.0,0,180,11.0,0.0
10144,66.0,24,390,10.0,0.0
10145,83.0,24,780,0.0,0.0
10146,59.0,36,180,2.0,0.0
10147,47.0,48,40,6.0,0.0
10148,35.0,0,180,12.0,0.0
10149,71.0,0,780,1.0,0.0
10150,59.0,60,40,6.0,0.0
10151,71.0,36,180,8.0,0.0
10152,58.0,24,40,6.0,0.0
10153,75.0,0,180,7.0,0.0
10154,59.0,60,40,6.0,0.0
10155,57.0,0,180,11.0,0.0
10156,45.0,24,40,6.0,0.0
10157,45.0,36,180,12.0,0.0
10158,57.0,36,40,6.0,0.0
10159,74.0,0,180,7.0,0.0
10160,56.0,24,40,6.0,0.0
10161,71.0,36,180,8.0,0.0
10162,57.0,60,40,6.0,0.0
10163,64.0,0,180,10.0,0.0
10164,44.0,24,40,6.0,0.0
10165,56.0,0,180,11.0,0.0
10166,44.0,36,180,12.0,0.0
10167,56.0,60,40,6.0,0.0
10168,54.0,24,40,6.0,0.0
10169,71.0,36,180,8.0,0.0
10170,74.0,0,180,7.0,0.0
10171,56.0,60,40,6.0,0.0
10172,55.0,0,180,11.0,0.0
10173,65.0,36,180,10.0,0.0
10174,43.0,0,40,6.0,0.0
10175,43.0,0,180,12.0,0.0
10176,55.0,60,40,6.0,0.0
10177,74.0,0,210,7.0,0.0
10178,54.0,24,40,6.0,0.0
10179,71.0,12,210,8.0,0.0
10180,55.0,60,40,6.0,0.0
10181,42.0,48,40,6.0,0.0
10182,54.0,0,180,11.0,0.0
10183,42.0,0,180,12.0,0.0
10184,78.0,0,780,1.0,0.0
10185,90.0,36,180,0.0,0.0
10186,66.0,0,780,10.0,0.0
10187,66.0,0,780,2.0,0.0
10188,54.0,60,40,6.0,0.0
10189,69.0,0,180,8.0,0.0
10190,73.0,36,180,7.0,0.0
10191,53.0,24,40,6.0,0.0
10192,54.0,60,40,6.0,0.0
10193,40.0,24,40,6.0,0.0
10194,52.0,36,180,11.0,0.0
10195,40.0,0,180,12.0,0.0
10196,52.0,60,40,6.0,0.0
10197,51.0,24,40,6.0,0.0
10198,70.0,36,180,8.0,0.0
10199,78.0,0,180,7.0,0.0
10200,52.0,60,40,6.0,0.0
10201,39.0,24,40,6.0,0.0
10202,39.0,36,180,12.0,0.0
10203,51.0,0,180,11.0,0.0
10204,51.0,60,40,6.0,0.0
10205,71.0,36,180,8.0,0.0
10206,78.0,0,180,7.0,0.0
10207,49.0,24,40,6.0,0.0
10208,51.0,60,40,6.0,0.0
10209,50.0,36,180,11.0,0.0
10210,38.0,0,180,12.0,0.0
10211,38.0,24,40,6.0,0.0
10212,50.0,60,40,6.0,0.0
10213,78.0,0,210,7.0,0.0
10214,72.0,12,210,8.0,0.0
10215,49.0,24,40,6.0,0.0
10216,50.0,108,40,6.0,0.0
10217,37.0,36,180,12.0,0.0
10218,49.0,0,180,11.0,0.0
10219,49.0,0,180,6.0,0.0
10220,61.0,0,180,2.0,0.0
10221,68.0,0,180,10.0,0.0
10222,85.0,0,180,1.0,0.0
10223,73.0,0,180,1.0,0.0
10224,61.0,60,40,6.0,0.0
10225,73.0,0,180,8.0,0.0
10226,77.0,36,180,7.0,0.0
10227,65.0,24,40,6.0,0.0
10228,68.0,60,40,6.0,0.0
10229,61.0,24,390,10.0,0.0
10230,47.0,0,180,6.0,0.0
10231,59.0,0,180,11.0,0.0
10232,47.0,36,180,12.0,0.0
10233,73.0,24,40,6.0,0.0
10234,61.0,60,40,6.0,0.0
10235,76.0,36,180,7.0,0.0
10236,67.0,0,180,8.0,0.0
10237,64.0,24,40,6.0,0.0
10238,67.0,60,40,6.0,0.0
10239,73.0,0,390,1.0,0.0
10240,88.0,0,390,0.0,0.0
10241,61.0,24,390,2.0,0.0
10242,76.0,0,390,1.0,0.0
10243,73.0,24,40,6.0,0.0
10244,46.0,0,180,6.0,0.0
10245,58.0,0,180,11.0,0.0
10246,46.0,24,180,12.0,0.0
10247,64.0,0,390,2.0,0.0
10248,66.0,36,40,6.0,0.0
10249,70.0,24,40,6.0,0.0
10250,66.0,12,90,8.0,0.0
10251,76.0,24,180,7.0,0.0
10252,73.0,60,40,6.0,0.0
10253,42.0,0,180,12.0,0.0
10254,42.0,36,180,6.0,0.0
10255,54.0,0,180,11.0,0.0
10256,66.0,0,420,10.0,0.0
10257,70.0,12,90,8.0,0.0
10258,78.0,24,40,6.0,0.0
10259,73.0,36,40,6.0,0.0
10260,70.0,24,40,6.0,0.0
10261,76.0,0,210,7.0,0.0
10262,73.0,12,210,8.0,0.0
10263,66.0,108,40,6.0,0.0
10264,71.0,0,180,1.0,0.0
10265,63.0,0,180,2.0,0.0
10266,87.0,36,180,0.0,0.0
10267,47.0,0,180,11.0,0.0
10268,35.0,0,180,12.0,0.0
10269,47.0,0,180,6.0,0.0
10270,59.0,0,180,2.0,0.0
10271,75.0,0,180,1.0,0.0
10272,71.0,60,40,6.0,0.0
10273,71.0,36,180,8.0,0.0
10274,75.0,0,180,7.0,0.0
10275,75.0,24,40,6.0,0.0
10276,78.0,60,40,6.0,0.0
10277,45.0,36,180,12.0,0.0
10278,83.0,24,40,6.0,0.0
10279,57.0,0,180,11.0,0.0
10280,59.0,24,390,10.0,0.0
10281,45.0,0,180,6.0,0.0
10282,71.0,60,40,6.0,0.0
10283,74.0,24,40,6.0,0.0
10284,74.0,0,180,7.0,0.0
10285,65.0,36,180,8.0,0.0
10286,77.0,60,40,6.0,0.0
10287,74.0,0,390,1.0,0.0
10288,71.0,0,390,1.0,0.0
10289,62.0,0,390,2.0,0.0
10290,59.0,0,390,2.0,0.0
10291,44.0,0,180,6.0,0.0
10292,86.0,24,390,0.0,0.0
10293,56.0,24,180,11.0,0.0
10294,44.0,0,180,12.0,0.0
10295,83.0,24,40,6.0,0.0
10296,76.0,36,40,6.0,0.0
10297,80.0,24,40,6.0,0.0
10298,64.0,12,90,8.0,0.0
10299,74.0,24,180,7.0,0.0
10300,83.0,60,40,6.0,0.0
10301,52.0,0,180,11.0,0.0
10302,40.0,36,180,12.0,0.0
10303,40.0,0,180,6.0,0.0
10304,64.0,0,420,10.0,0.0
10305,88.0,24,40,6.0,0.0
10306,68.0,12,90,8.0,0.0
10307,83.0,36,40,6.0,0.0
10308,71.0,0,210,8.0,0.0
10309,80.0,24,40,6.0,0.0
10310,74.0,12,210,7.0,0.0
10311,76.0,108,40,6.0,0.0
10312,57.0,0,180,2.0,0.0
10313,61.0,0,180,2.0,0.0
10314,45.0,0,180,6.0,0.0
10315,85.0,36,180,0.0,0.0
10316,45.0,0,180,11.0,0.0
10317,33.0,0,180,12.0,0.0
10318,73.0,0,180,1.0,0.0
10319,69.0,0,180,1.0,0.0
10320,69.0,60,40,6.0,0.0
10321,69.0,36,180,8.0,0.0
10322,73.0,24,40,6.0,0.0
10323,73.0,0,180,7.0,0.0
10324,76.0,60,40,6.0,0.0
10325,81.0,24,40,6.0,0.0
10326,55.0,36,180,11.0,0.0
10327,57.0,24,390,10.0,0.0
10328,43.0,0,180,6.0,0.0
10329,43.0,0,180,12.0,0.0
10330,69.0,60,40,6.0,0.0
10331,63.0,36,180,8.0,0.0
10332,72.0,24,40,6.0,0.0
10333,72.0,0,180,7.0,0.0
10334,75.0,60,40,6.0,0.0
10335,60.0,0,390,2.0,0.0
10336,42.0,0,180,6.0,0.0
10337,69.0,0,390,1.0,0.0
10338,72.0,0,390,1.0,0.0
10339,81.0,24,40,6.0,0.0
10340,57.0,0,390,2.0,0.0
10341,42.0,24,180,12.0,0.0
10342,84.0,24,390,0.0,0.0
10343,54.0,0,180,11.0,0.0
10344,74.0,36,40,6.0,0.0
10345,62.0,12,90,8.0,0.0
10346,72.0,24,180,7.0,0.0
10347,78.0,24,40,6.0,0.0
10348,81.0,60,40,6.0,0.0
10349,62.0,0,420,10.0,0.0
10350,86.0,24,40,6.0,0.0
10351,38.0,36,180,6.0,0.0
10352,38.0,0,180,12.0,0.0
10353,50.0,0,180,11.0,0.0
10354,66.0,12,90,8.0,0.0
10355,81.0,36,40,6.0,0.0
10356,78.0,24,40,6.0,0.0
10357,69.0,0,210,8.0,0.0
10358,72.0,12,210,7.0,0.0
10359,74.0,108,40,6.0,0.0
10360,67.0,0,90,1.0,0.0
10361,59.0,0,90,2.0,0.0
10362,83.0,0,90,0.0,0.0
10363,71.0,0,90,1.0,0.0
10364,31.0,0,180,12.0,0.0
10365,43.0,36,180,6.0,0.0
10366,55.0,0,90,2.0,0.0
10367,43.0,0,180,11.0,0.0
10368,74.0,60,40,6.0,0.0
10369,67.0,0,180,8.0,0.0
10370,83.0,24,40,6.0,0.0
10371,71.0,24,180,7.0,0.0
10372,79.0,84,40,6.0,0.0
10373,64.0,0,90,2.0,0.0
10374,67.0,12,90,2.0,0.0
10375,55.0,0,180,11.0,0.0
10376,55.0,0,180,6.0,0.0
10377,88.0,0,90,0.0,0.0
10378,43.0,0,180,12.0,0.0
10379,79.0,0,90,1.0,0.0
10380,71.0,36,180,10.0,0.0
10381,76.0,0,90,1.0,0.0
10382,71.0,60,40,6.0,0.0
10383,67.0,24,180,8.0,0.0
10384,76.0,0,180,7.0,0.0
10385,79.0,24,40,6.0,0.0
10386,76.0,84,40,6.0,0.0
10387,66.0,12,90,2.0,0.0
10388,62.0,0,90,2.0,0.0
10389,78.0,0,90,1.0,0.0
10390,57.0,0,180,11.0,0.0
10391,57.0,0,180,6.0,0.0
10392,86.0,0,90,0.0,0.0
10393,45.0,36,180,12.0,0.0
10394,69.0,0,180,10.0,0.0
10395,74.0,0,90,1.0,0.0
10396,69.0,60,40,6.0,0.0
10397,78.0,24,40,6.0,0.0
10398,66.0,0,180,8.0,0.0
10399,74.0,24,180,7.0,0.0
10400,74.0,84,40,6.0,0.0
10401,85.0,12,90,0.0,0.0
10402,64.0,0,90,2.0,0.0
10403,73.0,0,90,1.0,0.0
10404,76.0,0,90,1.0,0.0
10405,45.0,0,180,11.0,0.0
10406,61.0,0,90,2.0,0.0
10407,33.0,24,180,12.0,0.0
10408,45.0,0,180,6.0,0.0
10409,69.0,0,180,10.0,0.0
10410,67.0,60,40,6.0,0.0
10411,73.0,0,90,7.0,0.0
10412,64.0,12,90,8.0,0.0
10413,76.0,24,40,6.0,0.0
10414,73.0,108,40,6.0,0.0
10415,69.0,0,180,10.0,0.0
10416,50.0,0,180,6.0,0.0
10417,86.0,0,180,0.0,0.0
10418,38.0,24,180,12.0,0.0
10419,50.0,0,180,11.0,0.0
10420,62.0,0,180,2.0,0.0
10421,74.0,0,180,1.0,0.0
10422,66.0,0,90,8.0,0.0
10423,74.0,12,90,7.0,0.0
10424,62.0,60,40,6.0,0.0
10425,64.0,24,40,6.0,0.0
10426,62.0,12,90,8.0,0.0
10427,74.0,0,90,7.0,0.0
10428,66.0,60,40,6.0,0.0
10429,86.0,12,90,7.0,0.0
10430,67.0,48,40,6.0,0.0
10431,74.0,0,90,8.0,0.0
10432,69.0,60,40,6.0,0.0
10433,86.0,0,90,7.0,0.0
10434,74.0,12,90,8.0,0.0
10435,71.0,48,40,6.0,0.0
10436,73.0,60,40,6.0,0.0
10437,74.0,0,90,8.0,0.0
10438,74.0,48,40,6.0,0.0
10439,86.0,12,90,7.0,0.0
10440,76.0,60,40,6.0,0.0
10441,86.0,0,90,7.0,0.0
10442,78.0,48,40,6.0,0.0
10443,74.0,12,90,8.0,0.0
10444,79.0,60,40,6.0,0.0
10445,86.0,0,90,7.0,0.0
10446,74.0,12,90,8.0,0.0
10447,81.0,48,40,6.0,0.0
10448,83.0,60,40,6.0,0.0
10449,86.0,0,90,7.0,0.0
10450,85.0,48,40,6.0,0.0
10451,74.0,12,90,8.0,0.0
10452,86.0,120,40,6.0,0.0
10453,85.0,0,390,6.0,0.0
10454,85.0,24,390,7.0,0.0
10455,73.0,0,390,8.0,0.0
10456,45.0,60,40,6.0,0.0
10457,45.0,0,90,11.0,0.0
10458,57.0,12,90,10.0,0.0
10459,47.0,48,40,6.0,0.0
10460,49.0,60,40,6.0,0.0
10461,50.0,48,40,6.0,0.0
10462,57.0,0,90,11.0,0.0
10463,69.0,12,90,10.0,0.0
10464,52.0,36,40,6.0,0.0
10465,57.0,12,90,11.0,0.0
10466,69.0,0,90,10.0,0.0
10467,54.0,48,40,6.0,0.0
10468,56.0,60,40,6.0,0.0
10469,84.0,24,390,6.0,0.0
10470,72.0,0,390,8.0,0.0
10471,84.0,0,390,7.0,0.0
10472,57.0,48,40,6.0,0.0
10473,57.0,12,90,11.0,0.0
10474,69.0,0,90,10.0,0.0
10475,59.0,60,40,6.0,0.0
10476,61.0,48,40,6.0,0.0
10477,57.0,0,90,11.0,0.0
10478,69.0,12,90,10.0,0.0
10479,62.0,60,40,6.0,0.0
10480,64.0,48,40,6.0,0.0
10481,57.0,12,90,11.0,0.0
10482,69.0,0,90,10.0,0.0
10483,66.0,36,40,6.0,0.0
10484,69.0,12,90,10.0,0.0
10485,57.0,0,90,11.0,0.0
10486,68.0,48,40,6.0,0.0
10487,69.0,108,40,6.0,0.0
10488,68.0,0,390,6.0,0.0
10489,68.0,0,390,10.0,0.0
10490,56.0,24,390,11.0,0.0
10491,71.0,0,90,8.0,0.0
10492,83.0,12,90,7.0,0.0
10493,76.0,60,40,6.0,0.0
10494,76.0,0,90,7.0,0.0
10495,75.0,48,40,6.0,0.0
10496,64.0,12,90,8.0,0.0
10497,76.0,60,40,6.0,0.0
10498,77.0,48,40,6.0,0.0
10499,88.0,12,90,7.0,0.0
10500,76.0,0,90,8.0,0.0
10501,78.0,36,40,6.0,0.0
10502,79.0,48,40,6.0,0.0
10503,76.0,0,90,8.0,0.0
10504,88.0,12,90,7.0,0.0
10505,80.0,60,40,6.0,0.0
10506,67.0,24,390,6.0,0.0
10507,88.0,12,90,7.0,0.0
10508,55.0,0,390,11.0,0.0
10509,67.0,0,390,10.0,0.0
10510,76.0,0,90,8.0,0.0
10511,81.0,48,40,6.0,0.0
10512,82.0,60,40,6.0,0.0
10513,76.0,12,90,8.0,0.0
10514,83.0,48,40,6.0,0.0
10515,88.0,0,90,7.0,0.0
10516,84.0,60,40,6.0,0.0
10517,85.0,48,40,6.0,0.0
10518,88.0,0,90,7.0,0.0
10519,76.0,12,90,8.0,0.0
10520,86.0,36,40,6.0,0.0
10521,87.0,48,40,6.0,0.0
10522,76.0,0,90,8.0,0.0
10523,88.0,12,90,7.0,0.0
10524,88.0,108,40,6.0,0.0
10525,87.0,24,390,6.0,0.0
10526,75.0,0,390,8.0,0.0
10527,87.0,0,390,7.0,0.0
10528,54.0,12,90,11.0,0.0
10529,66.0,0,90,10.0,0.0
10530,47.0,60,40,6.0,0.0
10531,47.0,0,90,11.0,0.0
10532,46.0,48,40,6.0,0.0
10533,59.0,12,90,10.0,0.0
10534,47.0,60,40,6.0,0.0
10535,71.0,12,90,10.0,0.0
10536,59.0,0,90,11.0,0.0
10537,48.0,48,40,6.0,0.0
10538,49.0,36,40,6.0,0.0
10539,59.0,12,90,11.0,0.0
10540,71.0,0,90,10.0,0.0
10541,50.0,48,40,6.0,0.0
10542,51.0,60,40,6.0,0.0
10543,86.0,24,390,7.0,0.0
10544,52.0,48,40,6.0,0.0
10545,59.0,12,90,11.0,0.0
10546,71.0,0,90,10.0,0.0
10547,74.0,0,390,8.0,0.0
10548,86.0,0,390,6.0,0.0
10549,53.0,60,40,6.0,0.0
10550,71.0,12,90,10.0,0.0
10551,59.0,0,90,11.0,0.0
10552,54.0,48,40,6.0,0.0
10553,55.0,60,40,6.0,0.0
10554,56.0,48,40,6.0,0.0
10555,59.0,0,90,11.0,0.0
10556,71.0,12,90,10.0,0.0
10557,57.0,36,40,6.0,0.0
10558,59.0,12,90,11.0,0.0
10559,58.0,48,40,6.0,0.0
10560,71.0,0,90,10.0,0.0
10561,59.0,108,40,6.0,0.0
10562,58.0,24,390,6.0,0.0
10563,58.0,0,390,11.0,0.0
10564,85.0,0,90,7.0,0.0
10565,70.0,0,390,10.0,0.0
10566,73.0,12,90,8.0,0.0
10567,66.0,60,40,6.0,0.0
10568,66.0,12,90,8.0,0.0
10569,66.0,0,90,7.0,0.0
10570,65.0,48,40,6.0,0.0
10571,66.0,60,40,6.0,0.0
10572,67.0,48,40,6.0,0.0
10573,78.0,12,90,7.0,0.0
10574,66.0,0,90,8.0,0.0
10575,68.0,36,40,6.0,0.0
10576,66.0,12,90,8.0,0.0
10577,78.0,0,90,7.0,0.0
10578,69.0,48,40,6.0,0.0
10579,70.0,60,40,6.0,0.0
10580,69.0,24,390,10.0,0.0
10581,78.0,12,90,7.0,0.0
10582,66.0,0,90,8.0,0.0
10583,57.0,0,390,6.0,0.0
10584,71.0,48,40,6.0,0.0
10585,57.0,0,390,11.0,0.0
10586,72.0,60,40,6.0,0.0
10587,73.0,48,40,6.0,0.0
10588,66.0,12,90,8.0,0.0
10589,78.0,0,90,7.0,0.0
10590,74.0,60,40,6.0,0.0
10591,75.0,48,40,6.0,0.0
10592,78.0,0,90,7.0,0.0
10593,66.0,12,90,8.0,0.0
10594,76.0,36,40,6.0,0.0
10595,78.0,12,90,7.0,0.0
10596,77.0,48,40,6.0,0.0
10597,66.0,0,90,8.0,0.0
10598,78.0,120,40,6.0,0.0
10599,85.0,0,180,0.0,0.0
10600,57.0,36,180,2.0,0.0
10601,64.0,0,180,3.0,0.0
10602,57.0,0,180,3.0,0.0
10603,73.0,0,180,1.0,0.0
10604,67.0,0,180,8.0,0.0
10605,79.0,0,180,1.0,0.0
10606,79.0,0,180,7.0,0.0
10607,45.0,0,180,11.0,0.0
10608,79.0,0,180,6.0,0.0
10609,33.0,0,180,12.0,0.0
10610,61.0,0,180,10.0,0.0
10611,45.0,60,40,6.0,0.0
10612,49.0,24,40,6.0,0.0
10613,52.0,60,40,6.0,0.0
10614,79.0,0,150,1.0,0.0
10615,73.0,0,150,1.0,0.0
10616,57.0,60,40,6.0,0.0
10617,85.0,24,150,0.0,0.0
10618,64.0,0,150,3.0,0.0
10619,57.0,0,150,3.0,0.0
10620,57.0,0,150,2.0,0.0
10621,61.0,36,40,6.0,0.0
10622,64.0,60,40,6.0,0.0
10623,79.0,0,40,1.0,0.0
10624,85.0,0,40,0.0,0.0
10625,73.0,0,40,1.0,0.0
10626,69.0,120,40,6.0,0.0
10627,57.0,0,40,2.0,0.0
10628,64.0,0,40,3.0,0.0
10629,57.0,0,40,3.0,0.0
10630,57.0,36,180,3.0,0.0
10631,79.0,0,180,1.0,0.0
10632,73.0,0,180,1.0,0.0
10633,57.0,0,180,2.0,0.0
10634,57.0,0,180,6.0,0.0
10635,64.0,0,180,3.0,0.0
10636,85.0,0,180,0.0,0.0
10637,64.0,60,40,6.0,0.0
10638,67.0,24,40,6.0,0.0
10639,69.0,60,40,6.0,0.0
10640,73.0,0,180,1.0,0.0
10641,79.0,0,180,1.0,0.0
10642,45.0,0,180,12.0,0.0
10643,57.0,36,180,11.0,0.0
10644,73.0,0,180,8.0,0.0
10645,73.0,60,40,6.0,0.0
10646,64.0,0,180,3.0,0.0
10647,57.0,0,180,3.0,0.0
10648,64.0,0,180,10.0,0.0
10649,57.0,0,180,2.0,0.0
10650,79.0,0,180,7.0,0.0
10651,85.0,0,180,0.0,0.0
10652,76.0,60,40,6.0,0.0
10653,79.0,24,40,6.0,0.0
10654,85.0,120,40,6.0,0.0
10655,78.0,0,180,1.0,0.0
10656,62.0,0,180,10.0,0.0
10657,78.0,0,180,7.0,0.0
10658,86.0,0,180,0.0,0.0
10659,66.0,0,180,3.0,0.0
10660,59.0,0,180,2.0,0.0
10661,47.0,36,180,12.0,0.0
10662,74.0,0,180,8.0,0.0
10663,86.0,0,180,6.0,0.0
10664,62.0,0,180,3.0,0.0
10665,74.0,0,180,1.0,0.0
10666,59.0,0,180,11.0,0.0
10667,47.0,60,40,6.0,0.0
10668,50.0,24,40,6.0,0.0
10669,54.0,60,40,6.0,0.0
10670,66.0,0,150,3.0,0.0
10671,62.0,24,150,3.0,0.0
10672,74.0,0,150,1.0,0.0
10673,78.0,0,150,1.0,0.0
10674,59.0,60,40,6.0,0.0
10675,86.0,0,150,0.0,0.0
10676,59.0,0,150,2.0,0.0
10677,62.0,36,40,6.0,0.0
10678,66.0,60,40,6.0,0.0
10679,74.0,0,40,1.0,0.0
10680,71.0,0,40,6.0,0.0
10681,59.0,0,40,2.0,0.0
10682,78.0,0,40,1.0,0.0
10683,66.0,120,40,3.0,0.0
10684,62.0,0,40,3.0,0.0
10685,86.0,0,40,0.0,0.0
10686,74.0,0,180,1.0,0.0
10687,78.0,0,180,1.0,0.0
10688,62.0,0,180,3.0,0.0
10689,66.0,0,180,3.0,0.0
10690,59.0,36,180,6.0,0.0
10691,59.0,0,180,2.0,0.0
10692,86.0,0,180,0.0,0.0
10693,62.0,60,40,6.0,0.0
10694,66.0,24,40,6.0,0.0
10695,71.0,60,40,6.0,0.0
10696,74.0,0,180,1.0,0.0
10697,78.0,0,180,1.0,0.0
10698,62.0,0,180,3.0,0.0
10699,66.0,0,180,3.0,0.0
10700,59.0,36,180,2.0,0.0
10701,86.0,0,180,0.0,0.0
10702,59.0,0,180,11.0,0.0
10703,74.0,0,180,8.0,0.0
10704,62.0,0,180,10.0,0.0
10705,47.0,0,180,12.0,0.0
10706,78.0,0,180,7.0,0.0
10707,74.0,60,40,6.0,0.0
10708,78.0,60,40,6.0,0.0
10709,83.0,24,40,6.0,0.0
10710,86.0,120,40,6.0,0.0
10711,83.0,0,180,0.0,0.0
10712,76.0,36,180,7.0,0.0
10713,67.0,0,180,10.0,0.0
10714,52.0,0,180,11.0,0.0
10715,71.0,0,180,8.0,0.0
10716,62.0,0,180,3.0,0.0
10717,55.0,0,180,2.0,0.0
10718,76.0,0,180,1.0,0.0
10719,83.0,0,180,6.0,0.0
10720,40.0,0,180,12.0,0.0
10721,71.0,0,180,1.0,0.0
10722,64.0,0,180,3.0,0.0
10723,55.0,60,40,6.0,0.0
10724,59.0,24,40,6.0,0.0
10725,64.0,120,40,6.0,0.0
10726,83.0,24,150,0.0,0.0
10727,64.0,0,150,3.0,0.0
10728,62.0,0,150,3.0,0.0
10729,55.0,0,150,2.0,0.0
10730,76.0,0,150,1.0,0.0
10731,67.0,36,180,6.0,0.0
10732,71.0,0,150,1.0,0.0
10733,83.0,36,40,6.0,0.0
10734,79.0,24,40,6.0,0.0
10735,76.0,0,40,6.0,0.0
10736,76.0,120,40,1.0,0.0
10737,71.0,0,40,1.0,0.0
10738,64.0,0,40,3.0,0.0
10739,62.0,0,40,3.0,0.0
10740,83.0,0,40,0.0,0.0
10741,55.0,0,40,2.0,0.0
10742,67.0,0,180,1.0,0.0
10743,69.0,0,180,1.0,0.0
10744,57.0,0,180,11.0,0.0
10745,67.0,36,180,8.0,0.0
10746,57.0,24,150,3.0,0.0
10747,64.0,0,150,3.0,0.0
10748,64.0,0,180,10.0,0.0
10749,73.0,0,180,6.0,0.0
10750,57.0,0,180,2.0,0.0
10751,73.0,0,180,0.0,0.0
10752,73.0,0,180,7.0,0.0
10753,45.0,0,180,12.0,0.0
10754,57.0,36,40,6.0,0.0
10755,61.0,24,40,6.0,0.0
10756,64.0,0,40,6.0,0.0
10757,64.0,0,40,3.0,0.0
10758,57.0,120,40,3.0,0.0
10759,57.0,36,180,3.0,0.0
10760,73.0,0,150,0.0,0.0
10761,69.0,0,180,6.0,0.0
10762,69.0,0,150,1.0,0.0
10763,57.0,0,150,2.0,0.0
10764,67.0,24,150,1.0,0.0
10765,64.0,0,180,3.0,0.0
10766,79.0,36,40,6.0,0.0
10767,76.0,24,40,6.0,0.0
10768,73.0,0,40,0.0,0.0
10769,73.0,0,40,6.0,0.0
10770,57.0,0,40,2.0,0.0
10771,67.0,204,40,1.0,0.0
10772,69.0,0,40,1.0,0.0
10773,66.0,0,180,1.0,0.0
10774,69.0,0,180,1.0,0.0
10775,50.0,0,180,2.0,0.0
10776,50.0,0,180,11.0,0.0
10777,50.0,0,180,3.0,0.0
10778,62.0,0,180,3.0,0.0
10779,74.0,0,180,0.0,0.0
10780,62.0,192,180,10.0,0.0
10781,62.0,0,180,6.0,0.0
10782,74.0,0,180,7.0,0.0
10783,66.0,0,180,8.0,0.0
10784,74.0,0,180,6.0,0.0
10785,38.0,0,180,12.0,0.0
10786,62.0,0,150,4.0,0.0
10787,59.0,0,150,2.0,0.0
10788,62.0,0,150,3.0,0.0
10789,80.0,0,150,7.0,0.0
10790,50.0,0,150,3.0,0.0
10791,71.0,84,150,10.0,0.0
10792,80.0,0,150,1.0,0.0
10793,80.0,0,150,8.0,0.0
10794,47.0,0,150,12.0,0.0
10795,59.0,0,150,11.0,0.0
10796,74.0,0,150,4.0,0.0
10797,80.0,0,150,0.0,0.0
10798,50.0,0,150,5.0,0.0
10799,62.0,0,40,4.0,0.0
10800,47.0,0,40,12.0,0.0
10801,50.0,0,40,3.0,0.0
10802,80.0,0,40,1.0,0.0
10803,59.0,0,40,11.0,0.0
10804,71.0,0,40,10.0,0.0
10805,80.0,204,40,0.0,0.0
10806,80.0,0,40,7.0,0.0
10807,50.0,0,40,5.0,0.0
10808,59.0,0,40,2.0,0.0
10809,74.0,0,40,4.0,0.0
10810,62.0,0,40,3.0,0.0
10811,80.0,0,40,8.0,0.0
10812,50.0,0,180,3.0,0.0
10813,80.0,0,180,1.0,0.0
10814,62.0,0,180,3.0,0.0
10815,47.0,0,180,12.0,0.0
10816,74.0,240,180,4.0,0.0
10817,80.0,0,180,8.0,0.0
10818,71.0,0,180,10.0,0.0
10819,59.0,0,180,11.0,0.0
10820,80.0,0,180,0.0,0.0
10821,80.0,0,180,7.0,0.0
10822,59.0,0,180,2.0,0.0
10823,50.0,0,180,5.0,0.0
10824,62.0,0,180,4.0,0.0
10825,71.0,0,180,10.0,0.0
10826,80.0,0,180,7.0,0.0
10827,80.0,0,180,1.0,0.0
10828,62.0,0,180,3.0,0.0
10829,59.0,0,180,11.0,0.0
10830,50.0,0,180,5.0,0.0
10831,80.0,432,180,8.0,0.0
10832,62.0,0,180,4.0,0.0
10833,74.0,0,180,4.0,0.0
10834,59.0,0,180,2.0,0.0
10835,47.0,0,180,12.0,0.0
10836,50.0,0,180,3.0,0.0
10837,80.0,0,180,0.0,0.0
10838,62.0,0,390,3.0,0.0
10839,50.0,0,390,3.0,0.0
10840,59.0,0,390,2.0,0.0
10841,59.0,0,390,11.0,0.0
10842,62.0,0,390,4.0,0.0
10843,74.0,0,390,4.0,0.0
10844,50.0,0,390,5.0,0.0
10845,80.0,120,390,7.0,0.0
10846,80.0,0,390,1.0,0.0
10847,80.0,0,390,0.0,0.0
10848,71.0,0,390,10.0,0.0
10849,47.0,0,390,12.0,0.0
10850,80.0,0,390,8.0,0.0
10851,57.0,0,390,2.0,0.0
10852,83.0,0,20,8.0,0.0
10853,45.0,0,390,12.0,0.0
10854,69.0,0,390,10.0,0.0
10855,50.0,0,390,5.0,0.0
10856,83.0,0,20,0.0,0.0
10857,50.0,0,390,3.0,0.0
10858,62.0,0,390,3.0,0.0
10859,62.0,24,390,4.0,0.0
10860,74.0,0,390,4.0,0.0
10861,57.0,0,390,11.0,0.0
10862,83.0,30,20,1.0,0.0
10863,83.0,0,20,7.0,0.0
10864,81.0,0,20,0.0,0.0
10865,81.0,0,20,8.0,0.0
10866,81.0,30,20,7.0,0.0
10867,81.0,0,20,1.0,0.0
10868,83.0,30,20,0.0,0.0
10869,83.0,0,20,1.0,0.0
10870,83.0,0,20,8.0,0.0
10871,83.0,0,20,7.0,0.0
10872,81.0,30,20,0.0,0.0
10873,81.0,0,20,8.0,0.0
10874,81.0,0,20,7.0,0.0
10875,81.0,0,20,1.0,0.0
10876,83.0,0,20,8.0,0.0
10877,83.0,30,20,7.0,0.0
10878,83.0,0,20,0.0,0.0
10879,83.0,0,20,1.0,0.0
10880,81.0,30,20,0.0,0.0
10881,81.0,0,20,8.0,0.0
10882,81.0,0,20,7.0,0.0
10883,81.0,0,20,1.0,0.0
10884,83.0,0,20,8.0,0.0
10885,83.0,30,20,1.0,0.0
10886,83.0,0,20,0.0,0.0
10887,83.0,0,20,7.0,0.0
10888,81.0,0,20,0.0,0.0
10889,81.0,0,20,1.0,0.0
10890,81.0,0,20,8.0,0.0
10891,81.0,30,20,7.0,0.0
10892,83.0,0,20,7.0,0.0
10893,83.0,0,20,8.0,0.0
10894,83.0,0,20,0.0,0.0
10895,83.0,30,20,1.0,0.0
10896,81.0,0,20,0.0,0.0
10897,81.0,0,20,7.0,0.0
10898,81.0,30,20,8.0,0.0
10899,81.0,0,20,1.0,0.0
10900,83.0,0,20,0.0,0.0
10901,83.0,0,20,7.0,0.0
10902,83.0,30,20,8.0,0.0
10903,83.0,0,20,1.0,0.0
10904,81.0,0,20,0.0,0.0
10905,81.0,0,20,1.0,0.0
10906,81.0,0,20,7.0,0.0
10907,81.0,30,20,8.0,0.0
10908,80.0,60,40,1.0,0.0
10909,80.0,0,40,0.0,0.0
10910,80.0,0,40,8.0,0.0
10911,80.0,0,40,7.0,0.0
10912,81.0,204,40,8.0,0.0
10913,81.0,0,40,0.0,0.0
10914,81.0,0,40,1.0,0.0
10915,81.0,0,40,7.0,0.0
10916,62.0,0,180,4.0,0.0
10917,74.0,0,180,4.0,0.0
10918,44.0,0,180,12.0,0.0
10919,83.0,0,180,0.0,0.0
10920,83.0,0,180,7.0,0.0
10921,56.0,0,180,2.0,0.0
10922,50.0,0,180,5.0,0.0
10923,68.0,0,180,10.0,0.0
10924,83.0,864,180,8.0,0.0
10925,50.0,0,180,3.0,0.0
10926,62.0,0,180,3.0,0.0
10927,56.0,0,180,11.0,0.0
10928,83.0,0,180,1.0,0.0
10929,66.0,120,90,6.0,0.0
10930,57.0,48,780,6.0,0.0
10931,74.0,0,570,6.0,0.0
10932,69.0,120,90,6.0,0.0
10933,66.0,120,90,6.0,0.0
10934,69.0,120,90,6.0,0.0
10935,66.0,120,90,6.0,0.0
10936,69.0,72,90,6.0,0.0
10937,78.0,120,90,6.0,0.0
10938,67.0,0,90,6.0,0.0
10939,69.0,0,90,6.0,0.0
10940,76.0,216,90,6.0,0.0
10941,66.0,0,180,6.0,0.0
10942,62.0,0,180,6.0,0.0
10943,74.0,240,180,6.0,0.0
10944,50.0,0,180,3.0,0.0
10945,77.0,0,180,1.0,0.0
10946,74.0,0,180,1.0,0.0
10947,59.0,0,180,2.0,0.0
10948,62.0,0,180,3.0,0.0
10949,80.0,0,180,0.0,0.0
10950,47.0,240,180,2.0,0.0
10951,62.0,0,180,3.0,0.0
10952,74.0,0,180,1.0,0.0
10953,59.0,0,180,2.0,0.0
10954,80.0,0,180,0.0,0.0
10955,47.0,240,180,2.0,0.0
10956,50.0,0,180,3.0,0.0
10957,77.0,0,180,1.0,0.0
10958,59.0,0,180,2.0,0.0
10959,77.0,0,180,1.0,0.0
10960,74.0,0,180,1.0,0.0
10961,47.0,0,180,2.0,0.0
10962,80.0,0,180,0.0,0.0
10963,50.0,0,180,3.0,0.0
10964,62.0,432,180,3.0,0.0
10965,50.0,0,1140,3.0,0.0
10966,74.0,6,780,1.0,0.0
10967,77.0,0,780,1.0,0.0
10968,47.0,120,390,2.0,0.0
10969,59.0,0,390,2.0,0.0
10970,62.0,0,1140,3.0,0.0
10971,80.0,0,390,0.0,0.0
10972,57.0,0,390,2.0,0.0
10973,45.0,24,390,2.0,0.0
10974,83.0,30,20,0.0,0.0
10975,81.0,30,20,0.0,0.0
10976,83.0,30,20,0.0,0.0
10977,81.0,30,20,0.0,0.0
10978,83.0,30,20,0.0,0.0
10979,81.0,30,20,0.0,0.0
10980,83.0,30,20,0.0,0.0
10981,81.0,30,20,0.0,0.0
10982,83.0,24,20,0.0,0.0
10983,81.0,30,20,0.0,0.0
10984,83.0,30,20,0.0,0.0
10985,81.0,30,20,0.0,0.0
10986,80.0,60,40,0.0,0.0
10987,81.0,204,40,0.0,0.0
10988,44.0,0,180,2.0,0.0
10989,83.0,240,180,0.0,0.0
10990,76.0,0,180,1.0,0.0
10991,74.0,0,180,1.0,0.0
10992,56.0,0,180,2.0,0.0
10993,64.0,0,180,6.0,0.0
10994,56.0,0,180,6.0,0.0
10995,83.0,0,180,6.0,0.0
10996,62.0,240,180,6.0,0.0
10997,56.0,0,180,6.0,0.0
10998,64.0,240,180,6.0,0.0
10999,62.0,0,180,6.0,0.0
11000,83.0,0,180,6.0,0.0
11001,56.0,0,180,6.0,0.0
11002,62.0,0,180,6.0,0.0
11003,64.0,0,180,6.0,0.0
11004,83.0,432,180,6.0,0.0
11005,64.0,6,780,6.0,0.0
11006,56.0,0,390,6.0,0.0
11007,83.0,0,390,6.0,0.0
11008,62.0,120,390,6.0,0.0
11009,57.0,24,390,6.0,0.0
11010,86.0,30,20,6.0,0.0
11011,61.0,0,390,6.0,0.0
11012,85.0,30,20,6.0,0.0
11013,86.0,30,20,6.0,0.0
11014,85.0,30,20,6.0,0.0
11015,86.0,30,20,6.0,0.0
11016,85.0,30,20,6.0,0.0
11017,86.0,30,20,6.0,0.0
11018,85.0,30,20,6.0,0.0
11019,86.0,24,20,6.0,0.0
11020,85.0,30,20,6.0,0.0
11021,86.0,30,20,6.0,0.0
11022,85.0,30,20,6.0,0.0
11023,83.0,60,40,6.0,0.0
11024,85.0,396,40,6.0,0.0
11025,86.0,48,390,6.0,0.0
11026,62.0,0,180,6.0,0.0
11027,68.0,144,180,6.0,0.0
11028,58.0,0,180,6.0,0.0
11029,58.0,36,180,6.0,0.0
11030,68.0,0,180,6.0,0.0
11031,62.0,0,180,6.0,0.0
11032,86.0,48,90,6.0,0.0
11033,88.0,30,20,6.0,0.0
11034,86.0,18,20,6.0,0.0
11035,85.0,108,40,6.0,0.0
11036,68.0,24,180,6.0,0.0
11037,58.0,0,180,6.0,0.0
11038,86.0,96,90,6.0,0.0
11039,62.0,0,180,6.0,0.0
11040,88.0,216,90,6.0,0.0
11041,89.0,144,180,6.0,0.0
11042,80.0,96,90,6.0,0.0
11043,58.0,240,180,6.0,0.0
11044,62.0,0,180,6.0,0.0
11045,89.0,144,180,6.0,0.0
11046,62.0,0,180,6.0,0.0
11047,58.0,336,180,6.0,0.0
11048,80.0,96,90,6.0,0.0
11049,81.0,80,540,6.0,0.0
11050,78.0,144,300,1.0,0.0
11051,81.0,0,300,1.0,0.0
11052,57.0,24,180,6.0,0.0
11053,62.0,0,180,6.0,0.0
11054,66.0,0,180,6.0,0.0
11055,74.0,88,90,1.0,0.0
11056,78.0,0,90,1.0,0.0
11057,62.0,32,180,6.0,0.0
11058,66.0,0,180,6.0,0.0
11059,57.0,0,180,6.0,0.0
11060,78.0,0,180,1.0,0.0
11061,81.0,0,180,1.0,0.0
11062,86.0,48,60,6.0,0.0
11063,85.0,80,60,6.0,0.0
11064,84.0,80,60,6.0,0.0
11065,83.0,80,60,6.0,0.0
11066,82.0,304,60,6.0,0.0
11067,81.0,80,540,6.0,0.0
11068,81.0,0,300,1.0,0.0
11069,78.0,144,300,1.0,0.0
11070,62.0,24,180,6.0,0.0
11071,66.0,0,180,6.0,0.0
11072,57.0,0,180,6.0,0.0
11073,74.0,88,90,1.0,0.0
11074,78.0,0,90,1.0,0.0
11075,66.0,0,180,6.0,0.0
11076,57.0,0,180,6.0,0.0
11077,62.0,0,180,6.0,0.0
11078,78.0,32,180,1.0,0.0
11079,81.0,0,180,1.0,0.0
11080,86.0,48,60,6.0,0.0
11081,85.0,80,60,6.0,0.0
11082,84.0,80,60,6.0,0.0
11083,83.0,80,60,6.0,0.0
11084,82.0,80,60,6.0,0.0
11085,81.0,0,90,1.0,0.0
11086,66.0,0,180,6.0,0.0
11087,57.0,24,180,6.0,0.0
11088,62.0,0,180,6.0,0.0
11089,78.0,48,90,1.0,0.0
11090,81.0,32,480,6.0,0.0
11091,86.0,48,60,6.0,0.0
11092,78.0,0,90,1.0,0.0
11093,74.0,8,90,1.0,0.0
11094,85.0,80,60,6.0,0.0
11095,84.0,80,60,6.0,0.0
11096,83.0,80,60,6.0,0.0
11097,82.0,80,60,6.0,0.0
11098,78.0,0,90,1.0,0.0
11099,62.0,0,180,6.0,0.0
11100,57.0,0,180,6.0,0.0
11101,66.0,24,180,6.0,0.0
11102,81.0,48,90,1.0,0.0
11103,81.0,80,480,6.0,0.0
11104,86.0,48,60,6.0,0.0
11105,74.0,0,90,1.0,0.0
11106,78.0,8,90,1.0,0.0
11107,85.0,80,60,6.0,0.0
11108,84.0,80,60,6.0,0.0
11109,83.0,80,60,6.0,0.0
11110,82.0,80,60,6.0,0.0
11111,62.0,0,180,6.0,0.0
11112,81.0,0,180,1.0,0.0
11113,78.0,32,180,1.0,0.0
11114,57.0,0,180,6.0,0.0
11115,66.0,0,180,6.0,0.0
11116,86.0,48,60,6.0,0.0
11117,77.0,80,60,6.0,0.0
11118,78.0,80,60,6.0,0.0
11119,81.0,80,60,6.0,0.0
11120,73.0,80,60,6.0,0.0
11121,74.0,80,60,6.0,0.0
11122,78.0,80,60,6.0,0.0
11123,68.0,80,60,6.0,0.0
11124,69.0,80,60,6.0,0.0
11125,74.0,80,60,6.0,0.0
11126,65.0,64,60,6.0,0.0
11127,66.0,60,40,6.0,0.0
11128,74.0,0,390,0.0,0.0
11129,62.0,0,390,3.0,0.0
11130,74.0,24,390,1.0,0.0
11131,62.0,0,390,1.0,0.0
11132,50.0,0,390,3.0,0.0
11133,62.0,0,40,6.0,0.0
11134,50.0,60,40,6.0,0.0
11135,64.0,60,40,6.0,0.0
11136,52.0,0,40,6.0,0.0
11137,54.0,0,40,6.0,0.0
11138,66.0,60,40,6.0,0.0
11139,67.0,0,40,6.0,0.0
11140,55.0,60,40,6.0,0.0
11141,69.0,0,40,6.0,0.0
11142,57.0,36,40,6.0,0.0
11143,71.0,60,40,6.0,0.0
11144,59.0,0,40,6.0,0.0
11145,61.0,60,40,6.0,0.0
11146,73.0,0,40,6.0,0.0
11147,54.0,24,390,3.0,0.0
11148,78.0,0,390,0.0,0.0
11149,66.0,0,390,3.0,0.0
11150,62.0,0,40,6.0,0.0
11151,78.0,0,390,1.0,0.0
11152,66.0,0,390,1.0,0.0
11153,74.0,60,40,6.0,0.0
11154,54.0,60,40,6.0,0.0
11155,66.0,0,40,6.0,0.0
11156,67.0,0,40,6.0,0.0
11157,55.0,60,40,6.0,0.0
11158,69.0,60,40,6.0,0.0
11159,57.0,0,40,6.0,0.0
11160,71.0,0,40,6.0,0.0
11161,59.0,60,40,6.0,0.0
11162,73.0,0,40,6.0,0.0
11163,61.0,36,40,6.0,0.0
11164,74.0,0,40,6.0,0.0
11165,62.0,60,40,6.0,0.0
11166,76.0,60,40,6.0,0.0
11167,64.0,0,40,6.0,0.0
11168,69.0,0,180,1.0,0.0
11169,66.0,60,40,6.0,0.0
11170,81.0,36,180,1.0,0.0
11171,78.0,0,40,6.0,0.0
11172,69.0,0,180,3.0,0.0
11173,81.0,0,180,0.0,0.0
11174,57.0,0,180,3.0,0.0
11175,69.0,0,40,6.0,0.0
11176,57.0,60,40,6.0,0.0
11177,71.0,0,40,6.0,0.0
11178,59.0,24,40,6.0,0.0
11179,73.0,60,40,6.0,0.0
11180,61.0,0,40,6.0,0.0
11181,62.0,60,40,6.0,0.0
11182,57.0,0,180,3.0,0.0
11183,69.0,0,180,3.0,0.0
11184,81.0,36,180,0.0,0.0
11185,81.0,0,180,1.0,0.0
11186,69.0,0,180,1.0,0.0
11187,74.0,0,40,6.0,0.0
11188,64.0,0,40,6.0,0.0
11189,76.0,60,40,6.0,0.0
11190,78.0,24,40,6.0,0.0
11191,66.0,0,40,6.0,0.0
11192,79.0,60,40,6.0,0.0
11193,67.0,0,40,6.0,0.0
11194,57.0,0,180,3.0,0.0
11195,69.0,36,180,3.0,0.0
11196,81.0,0,180,1.0,0.0
11197,81.0,0,180,0.0,0.0
11198,69.0,0,180,1.0,0.0
11199,81.0,60,40,6.0,0.0
11200,69.0,0,40,6.0,0.0
11201,68.0,0,40,6.0,0.0
11202,80.0,60,40,6.0,0.0
11203,69.0,24,40,6.0,0.0
11204,81.0,0,40,6.0,0.0
11205,80.0,0,40,6.0,0.0
11206,68.0,60,40,6.0,0.0
11207,69.0,0,180,1.0,0.0
11208,69.0,0,40,6.0,0.0
11209,81.0,0,180,0.0,0.0
11210,69.0,36,180,3.0,0.0
11211,57.0,0,180,3.0,0.0
11212,81.0,0,180,1.0,0.0
11213,81.0,60,40,6.0,0.0
11214,68.0,0,40,6.0,0.0
11215,80.0,60,40,6.0,0.0
11216,81.0,0,40,6.0,0.0
11217,69.0,24,40,6.0,0.0
11218,80.0,76,40,6.0,0.0
11219,68.0,0,40,6.0,0.0
11220,81.0,80,60,6.0,0.0
11221,69.0,80,4230,3.0,0.0
11222,69.0,32,180,6.0,0.0
11223,57.0,0,4230,3.0,0.0
11224,45.0,32,4020,2.0,0.0
11225,57.0,0,4020,2.0,0.0
11226,81.0,0,4230,1.0,0.0
11227,81.0,0,4230,0.0,0.0
11228,69.0,0,4230,1.0,0.0
11229,86.0,48,60,6.0,0.0
11230,85.0,80,60,6.0,0.0
11231,83.0,80,60,6.0,0.0
11232,81.0,80,60,6.0,0.0
11233,80.0,80,60,6.0,0.0
11234,81.0,80,60,6.0,0.0
11235,83.0,80,60,6.0,0.0
11236,74.0,0,60,6.0,0.0
11237,81.0,0,60,6.0,0.0
11238,73.0,80,60,6.0,0.0
11239,79.0,0,60,6.0,0.0
11240,71.0,80,60,6.0,0.0
11241,78.0,80,60,6.0,0.0
11242,69.0,0,60,6.0,0.0
11243,68.0,0,60,6.0,0.0
11244,77.0,80,60,6.0,0.0
11245,78.0,80,60,6.0,0.0
11246,69.0,0,60,6.0,0.0
11247,71.0,0,60,6.0,0.0
11248,79.0,80,60,6.0,0.0
11249,78.0,0,60,6.0,0.0
11250,69.0,80,60,6.0,0.0
11251,76.0,0,60,6.0,0.0
11252,67.0,80,60,6.0,0.0
11253,74.0,0,60,6.0,0.0
11254,66.0,80,60,6.0,0.0
11255,73.0,80,60,6.0,0.0
11256,64.0,0,60,6.0,0.0
11257,66.0,0,60,6.0,0.0
11258,74.0,80,60,6.0,0.0
11259,66.0,80,60,6.0,0.0
11260,74.0,0,60,6.0,0.0
11261,64.0,80,60,6.0,0.0
11262,73.0,0,60,6.0,0.0
11263,71.0,0,60,6.0,0.0
11264,62.0,80,60,6.0,0.0
11265,69.0,80,60,6.0,0.0
11266,61.0,0,60,6.0,0.0
11267,59.0,0,60,6.0,0.0
11268,68.0,80,60,6.0,0.0
11269,69.0,0,60,6.0,0.0
11270,61.0,80,60,6.0,0.0
11271,71.0,80,60,6.0,0.0
11272,62.0,0,60,6.0,0.0
11273,69.0,80,60,6.0,0.0
11274,61.0,0,60,6.0,0.0
11275,67.0,80,60,6.0,0.0
11276,59.0,0,60,6.0,0.0
11277,66.0,0,60,6.0,0.0
11278,57.0,80,60,6.0,0.0
11279,65.0,80,60,6.0,0.0
11280,56.0,0,60,6.0,0.0
11281,66.0,80,60,6.0,0.0
11282,57.0,0,60,6.0,0.0
11283,59.0,80,60,6.0,0.0
11284,67.0,0,60,6.0,0.0
11285,66.0,0,60,6.0,0.0
11286,57.0,80,60,6.0,0.0
11287,64.0,0,60,6.0,0.0
11288,55.0,80,60,6.0,0.0
11289,62.0,0,60,6.0,0.0
11290,54.0,80,60,6.0,0.0
11291,61.0,0,60,6.0,0.0
11292,52.0,80,60,6.0,0.0
11293,62.0,80,60,6.0,0.0
11294,54.0,0,60,6.0,0.0
11295,62.0,80,60,6.0,0.0
11296,54.0,0,60,6.0,0.0
11297,52.0,0,60,6.0,0.0
11298,61.0,80,60,6.0,0.0
11299,59.0,80,60,6.0,0.0
11300,50.0,0,60,6.0,0.0
11301,49.0,80,60,6.0,0.0
11302,57.0,0,60,6.0,0.0
11303,56.0,80,60,6.0,0.0
11304,47.0,0,60,6.0,0.0
11305,49.0,80,60,6.0,0.0
11306,57.0,0,60,6.0,0.0
11307,50.0,0,60,6.0,0.0
11308,59.0,80,60,6.0,0.0
11309,57.0,80,60,6.0,0.0
11310,49.0,0,60,6.0,0.0
11311,47.0,0,60,6.0,0.0
11312,55.0,80,60,6.0,0.0
11313,45.0,0,60,6.0,0.0
11314,54.0,80,60,6.0,0.0
11315,53.0,80,60,6.0,0.0
11316,44.0,0,60,6.0,0.0
11317,45.0,0,60,6.0,0.0
11318,54.0,80,60,6.0,0.0
11319,55.0,48,60,6.0,0.0
11320,47.0,0,60,6.0,0.0
11321,54.0,80,60,6.0,0.0
11322,45.0,0,60,6.0,0.0
11323,52.0,80,60,6.0,0.0
11324,43.0,0,60,6.0,0.0
11325,42.0,0,60,6.0,0.0
11326,50.0,0,60,6.0,0.0
11327,40.0,0,60,6.0,0.0
11328,49.0,124,60,6.0,0.0
11329,74.0,0,1620,1.0,0.0
11330,86.0,0,1620,0.0,0.0
11331,54.0,0,390,2.0,0.0
11332,42.0,24,390,2.0,0.0
11333,78.0,24,1620,1.0,0.0
11334,62.0,0,1260,3.0,0.0
11335,30.0,36,180,6.0,0.0
11336,66.0,0,1260,3.0,0.0
11337,42.0,0,180,6.0,0.0
11338,50.0,60,40,6.0,0.0
11339,49.0,24,40,6.0,0.0
11340,50.0,60,40,6.0,0.0
11341,52.0,60,40,6.0,0.0
11342,54.0,36,40,6.0,0.0
11343,55.0,60,40,6.0,0.0
11344,57.0,60,40,6.0,0.0
11345,43.0,0,180,6.0,0.0
11346,31.0,36,180,6.0,0.0
11347,55.0,0,390,2.0,0.0
11348,43.0,24,390,2.0,0.0
11349,59.0,60,40,6.0,0.0
11350,61.0,60,40,6.0,0.0
11351,62.0,24,40,6.0,0.0
11352,64.0,60,40,6.0,0.0
11353,66.0,60,40,6.0,0.0
11354,67.0,36,40,6.0,0.0
11355,69.0,60,40,6.0,0.0
11356,71.0,60,40,6.0,0.0
11357,44.0,0,390,2.0,0.0
11358,56.0,24,390,2.0,0.0
11359,44.0,0,180,6.0,0.0
11360,32.0,36,180,6.0,0.0
11361,73.0,60,40,6.0,0.0
11362,74.0,60,40,6.0,0.0
11363,76.0,24,40,6.0,0.0
11364,78.0,60,40,6.0,0.0
11365,80.0,60,40,6.0,0.0
11366,81.0,36,40,6.0,0.0
11367,83.0,60,40,6.0,0.0
11368,85.0,76,40,6.0,0.0
11369,57.0,80,60,6.0,0.0
11370,45.0,0,180,12.0,0.0
11371,86.0,0,180,6.0,0.0
11372,57.0,0,180,11.0,0.0
11373,62.0,16,780,3.0,0.0
11374,66.0,0,780,3.0,0.0
11375,57.0,0,1740,2.0,0.0
11376,45.0,6,1740,2.0,0.0
11377,62.0,48,60,6.0,0.0
11378,66.0,8,90,7.0,0.0
11379,62.0,0,90,8.0,0.0
11380,57.0,0,90,10.0,0.0
11381,66.0,80,60,6.0,0.0
11382,57.0,0,90,10.0,0.0
11383,57.0,24,180,11.0,0.0
11384,45.0,0,180,12.0,0.0
11385,81.0,16,300,6.0,0.0
11386,66.0,0,90,7.0,0.0
11387,62.0,48,90,8.0,0.0
11388,57.0,32,60,6.0,0.0
11389,62.0,48,60,6.0,0.0
11390,57.0,0,90,10.0,0.0
11391,62.0,8,90,8.0,0.0
11392,66.0,0,90,7.0,0.0
11393,66.0,64,60,6.0,0.0
11394,66.0,0,90,7.0,0.0
11395,57.0,24,180,11.0,0.0
11396,62.0,48,90,8.0,0.0
11397,57.0,0,90,10.0,0.0
11398,45.0,0,180,12.0,0.0
11399,57.0,32,60,6.0,0.0
11400,62.0,24,60,6.0,0.0
11401,62.0,0,90,8.0,0.0
11402,57.0,8,90,10.0,0.0
11403,66.0,0,90,7.0,0.0
11404,83.0,24,40,6.0,0.0
11405,66.0,4,60,6.0,0.0
11406,81.0,60,40,6.0,0.0
11407,57.0,12,90,10.0,0.0
11408,62.0,0,90,8.0,0.0
11409,79.0,0,40,6.0,0.0
11410,45.0,0,180,12.0,0.0
11411,66.0,0,90,7.0,0.0
11412,57.0,24,180,11.0,0.0
11413,57.0,32,60,6.0,0.0
11414,78.0,36,40,6.0,0.0
11415,62.0,24,60,6.0,0.0
11416,76.0,24,40,6.0,0.0
11417,66.0,8,90,7.0,0.0
11418,62.0,0,90,8.0,0.0
11419,57.0,0,90,10.0,0.0
11420,66.0,4,60,6.0,0.0
11421,74.0,36,40,6.0,0.0
11422,76.0,0,180,1.0,0.0
11423,73.0,0,180,1.0,0.0
11424,85.0,0,180,0.0,0.0
11425,78.0,30,20,6.0,0.0
11426,57.0,0,780,3.0,0.0
11427,64.0,0,780,3.0,0.0
11428,57.0,20,60,6.0,0.0
11429,45.0,0,180,11.0,0.0
11430,33.0,12,180,12.0,0.0
11431,76.0,10,20,6.0,0.0
11432,78.0,30,20,6.0,0.0
11433,61.0,0,60,6.0,0.0
11434,76.0,30,20,6.0,0.0
11435,78.0,30,20,6.0,0.0
11436,55.0,8,90,10.0,0.0
11437,61.0,0,90,8.0,0.0
11438,64.0,0,90,7.0,0.0
11439,76.0,18,20,6.0,0.0
11440,67.0,10,60,6.0,0.0
11441,78.0,12,20,6.0,0.0
11442,76.0,30,20,6.0,0.0
11443,64.0,0,90,7.0,0.0
11444,33.0,0,180,12.0,0.0
11445,57.0,20,60,6.0,0.0
11446,55.0,18,90,10.0,0.0
11447,61.0,0,90,8.0,0.0
11448,45.0,12,180,11.0,0.0
11449,78.0,30,20,6.0,0.0
11450,76.0,10,20,6.0,0.0
11451,78.0,12,20,6.0,0.0
11452,61.0,30,60,6.0,0.0
11453,76.0,30,20,6.0,0.0
11454,78.0,0,20,6.0,0.0
11455,55.0,8,90,10.0,0.0
11456,64.0,0,90,7.0,0.0
11457,61.0,0,90,8.0,0.0
11458,76.0,18,20,6.0,0.0
11459,67.0,10,60,6.0,0.0
11460,78.0,12,20,6.0,0.0
11461,76.0,30,20,6.0,0.0
11462,55.0,18,90,10.0,0.0
11463,61.0,0,90,8.0,0.0
11464,64.0,0,90,7.0,0.0
11465,57.0,20,60,6.0,0.0
11466,33.0,0,180,12.0,0.0
11467,78.0,30,20,6.0,0.0
11468,45.0,12,180,11.0,0.0
11469,76.0,10,20,6.0,0.0
11470,78.0,12,20,6.0,0.0
11471,61.0,0,60,6.0,0.0
11472,76.0,30,20,6.0,0.0
11473,55.0,0,90,10.0,0.0
11474,61.0,8,90,8.0,0.0
11475,78.0,30,20,6.0,0.0
11476,64.0,0,90,7.0,0.0
11477,76.0,18,20,6.0,0.0
11478,67.0,10,60,6.0,0.0
11479,78.0,12,20,6.0,0.0
11480,76.0,30,20,6.0,0.0
11481,78.0,24,20,6.0,0.0
11482,64.0,0,90,7.0,0.0
11483,61.0,0,90,8.0,0.0
11484,57.0,20,60,6.0,0.0
11485,33.0,12,180,12.0,0.0
11486,45.0,0,180,11.0,0.0
11487,55.0,18,90,10.0,0.0
11488,76.0,10,20,6.0,0.0
11489,78.0,12,20,6.0,0.0
11490,61.0,30,60,6.0,0.0
11491,76.0,30,20,6.0,0.0
11492,64.0,0,90,7.0,0.0
11493,61.0,8,90,8.0,0.0
11494,55.0,0,90,10.0,0.0
11495,78.0,0,20,6.0,0.0
11496,76.0,18,20,6.0,0.0
11497,67.0,10,60,6.0,0.0
11498,74.0,12,20,6.0,0.0
11499,76.0,30,20,6.0,0.0
11500,62.0,0,390,3.0,0.0
11501,50.0,0,390,3.0,0.0
11502,62.0,0,20,7.0,0.0
11503,74.0,0,390,4.0,0.0
11504,50.0,192,180,2.0,0.0
11505,62.0,48,390,4.0,0.0
11506,66.0,0,180,6.0,0.0
11507,50.0,0,180,5.0,0.0
11508,54.0,0,180,10.0,0.0
11509,78.0,0,780,1.0,0.0
11510,74.0,0,780,1.0,0.0
11511,50.0,0,180,11.0,0.0
11512,74.0,0,180,6.0,0.0
11513,86.0,144,780,0.0,0.0
11514,62.0,0,180,6.0,0.0
11515,62.0,30,20,8.0,0.0
11516,38.0,0,180,12.0,0.0
11517,69.0,0,20,8.0,0.0
11518,74.0,138,20,7.0,0.0
11519,86.0,36,360,7.0,0.0
11520,78.0,0,360,8.0,0.0
11521,50.0,0,150,5.0,0.0
11522,50.0,204,40,5.0,0.0
11523,74.0,0,300,7.0,0.0
11524,50.0,0,180,5.0,0.0
11525,78.0,0,180,4.0,0.0
11526,66.0,0,300,8.0,0.0
11527,66.0,96,180,4.0,0.0
11528,54.0,0,180,3.0,0.0
11529,66.0,0,180,3.0,0.0
11530,50.0,0,180,3.0,0.0
11531,74.0,0,180,4.0,0.0
11532,50.0,36,180,5.0,0.0
11533,62.0,0,180,3.0,0.0
11534,62.0,0,180,4.0,0.0
11535,86.0,0,40,7.0,0.0
11536,78.0,108,40,8.0,0.0
11537,69.0,0,390,4.0,0.0
11538,81.0,0,390,4.0,0.0
11539,45.0,36,180,5.0,0.0
11540,69.0,84,390,3.0,0.0
11541,85.0,96,90,7.0,0.0
11542,76.0,0,780,1.0,0.0
11543,73.0,0,780,1.0,0.0
11544,76.0,0,90,8.0,0.0
11545,57.0,0,390,11.0,0.0
11546,45.0,0,390,12.0,0.0
11547,73.0,0,390,10.0,0.0
11548,85.0,0,780,0.0,0.0
11549,57.0,0,390,3.0,0.0
11550,57.0,0,390,2.0,0.0
11551,83.0,108,40,7.0,0.0
11552,74.0,0,40,8.0,0.0
11553,81.0,48,90,7.0,0.0
11554,73.0,0,90,8.0,0.0
11555,79.0,0,40,7.0,0.0
11556,71.0,108,40,8.0,0.0
11557,45.0,0,300,11.0,0.0
11558,45.0,0,300,2.0,0.0
11559,61.0,0,300,10.0,0.0
11560,33.0,48,300,12.0,0.0
11561,69.0,0,90,8.0,0.0
11562,78.0,132,90,7.0,0.0
11563,67.0,0,40,8.0,0.0
11564,76.0,60,40,7.0,0.0
11565,74.0,0,90,7.0,0.0
11566,66.0,132,90,8.0,0.0
11567,69.0,0,40,10.0,0.0
11568,57.0,0,40,11.0,0.0
11569,64.0,0,40,8.0,0.0
11570,73.0,108,40,7.0,0.0
11571,57.0,0,40,2.0,0.0
11572,45.0,0,40,12.0,0.0
11573,62.0,0,180,3.0,0.0
11574,71.0,0,780,1.0,0.0
11575,79.0,48,780,1.0,0.0
11576,67.0,96,570,8.0,0.0
11577,55.0,0,570,8.0,0.0
11578,50.0,0,180,5.0,0.0
11579,74.0,0,180,4.0,0.0
11580,62.0,0,180,4.0,0.0
11581,43.0,0,90,12.0,0.0
11582,71.0,0,90,10.0,0.0
11583,83.0,0,780,0.0,0.0
11584,55.0,96,90,11.0,0.0
11585,50.0,36,180,3.0,0.0
11586,55.0,0,90,2.0,0.0
11587,71.0,0,570,7.0,0.0
11588,54.0,0,40,2.0,0.0
11589,69.0,0,40,10.0,0.0
11590,54.0,108,40,11.0,0.0
11591,42.0,0,40,12.0,0.0
11592,40.0,0,90,12.0,0.0
11593,74.0,0,150,4.0,0.0
11594,50.0,0,150,5.0,0.0
11595,67.0,0,90,10.0,0.0
11596,52.0,48,90,2.0,0.0
11597,62.0,0,150,3.0,0.0
11598,50.0,84,150,3.0,0.0
11599,62.0,0,150,4.0,0.0
11600,52.0,0,90,11.0,0.0
11601,66.0,0,40,10.0,0.0
11602,50.0,0,40,5.0,0.0
11603,50.0,0,40,3.0,0.0
11604,74.0,0,40,4.0,0.0
11605,38.0,0,40,12.0,0.0
11606,62.0,0,40,4.0,0.0
11607,50.0,108,40,11.0,0.0
11608,62.0,0,40,3.0,0.0
11609,50.0,0,40,2.0,0.0
11610,49.0,0,90,2.0,0.0
11611,62.0,0,180,4.0,0.0
11612,62.0,0,180,3.0,0.0
11613,50.0,0,180,5.0,0.0
11614,49.0,0,90,11.0,0.0
11615,50.0,0,180,3.0,0.0
11616,37.0,0,90,12.0,0.0
11617,74.0,36,180,4.0,0.0
11618,64.0,0,90,10.0,0.0
11619,47.0,60,40,2.0,0.0
11620,47.0,0,40,11.0,0.0
11621,35.0,0,40,12.0,0.0
11622,62.0,0,40,10.0,0.0
11623,50.0,0,180,3.0,0.0
11624,62.0,0,180,4.0,0.0
11625,74.0,36,180,4.0,0.0
11626,45.0,96,90,2.0,0.0
11627,33.0,0,90,12.0,0.0
11628,50.0,0,180,5.0,0.0
11629,61.0,0,90,10.0,0.0
11630,45.0,0,90,11.0,0.0
11631,62.0,0,180,3.0,0.0
11632,59.0,0,40,10.0,0.0
11633,43.0,0,40,11.0,0.0
11634,43.0,0,40,2.0,0.0
11635,31.0,0,40,12.0,0.0
11636,74.0,108,40,8.0,0.0
11637,83.0,0,40,7.0,0.0
11638,74.0,0,780,1.0,0.0
11639,42.0,0,570,11.0,0.0
11640,62.0,0,570,10.0,0.0
11641,50.0,0,390,3.0,0.0
11642,62.0,0,390,3.0,0.0
11643,69.0,0,780,1.0,0.0
11644,78.0,0,90,8.0,0.0
11645,81.0,48,780,0.0,0.0
11646,42.0,0,570,2.0,0.0
11647,81.0,96,90,7.0,0.0
11648,50.0,36,180,5.0,0.0
11649,62.0,84,390,4.0,0.0
11650,74.0,0,390,4.0,0.0
11651,30.0,0,570,12.0,0.0
11652,76.0,108,40,8.0,0.0
11653,79.0,0,40,7.0,0.0
11654,78.0,0,90,7.0,0.0
11655,74.0,48,90,8.0,0.0
11656,76.0,0,40,7.0,0.0
11657,73.0,108,40,8.0,0.0
11658,74.0,132,90,7.0,0.0
11659,71.0,0,90,8.0,0.0
11660,69.0,0,40,8.0,0.0
11661,73.0,60,40,7.0,0.0
11662,71.0,132,90,7.0,0.0
11663,67.0,0,90,8.0,0.0
11664,66.0,0,40,8.0,0.0
11665,54.0,0,40,12.0,0.0
11666,62.0,0,40,10.0,0.0
11667,66.0,0,40,2.0,0.0
11668,69.0,0,40,7.0,0.0
11669,66.0,108,40,11.0,0.0
11670,64.0,0,90,11.0,0.0
11671,73.0,0,780,1.0,0.0
11672,67.0,48,780,1.0,0.0
11673,79.0,0,780,0.0,0.0
11674,64.0,96,90,2.0,0.0
11675,55.0,0,570,7.0,0.0
11676,61.0,96,570,8.0,0.0
11677,67.0,0,570,7.0,0.0
11678,52.0,0,90,12.0,0.0
11679,67.0,0,90,10.0,0.0
11680,45.0,0,180,5.0,0.0
11681,69.0,0,180,4.0,0.0
11682,57.0,0,180,3.0,0.0
11683,64.0,36,180,3.0,0.0
11684,62.0,0,40,2.0,0.0
11685,62.0,108,40,11.0,0.0
11686,50.0,0,40,12.0,0.0
11687,66.0,0,40,10.0,0.0
11688,64.0,0,90,10.0,0.0
11689,61.0,0,90,11.0,0.0
11690,69.0,84,150,4.0,0.0
11691,45.0,0,150,5.0,0.0
11692,61.0,0,90,2.0,0.0
11693,57.0,0,150,3.0,0.0
11694,64.0,0,150,3.0,0.0
11695,49.0,48,90,12.0,0.0
11696,45.0,0,40,5.0,0.0
11697,59.0,0,40,2.0,0.0
11698,62.0,0,40,10.0,0.0
11699,59.0,0,40,11.0,0.0
11700,57.0,0,40,3.0,0.0
11701,69.0,108,40,4.0,0.0
11702,47.0,0,40,12.0,0.0
11703,64.0,0,40,3.0,0.0
11704,64.0,36,180,3.0,0.0
11705,45.0,0,90,12.0,0.0
11706,57.0,0,90,2.0,0.0
11707,57.0,0,180,3.0,0.0
11708,61.0,0,90,10.0,0.0
11709,69.0,0,180,4.0,0.0
11710,57.0,0,90,11.0,0.0
11711,45.0,0,180,5.0,0.0
11712,55.0,0,40,2.0,0.0
11713,59.0,0,40,10.0,0.0
11714,43.0,60,40,12.0,0.0
11715,55.0,0,40,11.0,0.0
11716,45.0,0,180,5.0,0.0
11717,57.0,0,180,3.0,0.0
11718,54.0,0,90,2.0,0.0
11719,42.0,0,90,12.0,0.0
11720,54.0,0,90,11.0,0.0
11721,69.0,0,180,4.0,0.0
11722,64.0,36,180,3.0,0.0
11723,57.0,96,90,10.0,0.0
11724,40.0,0,40,12.0,0.0
11725,52.0,0,40,11.0,0.0
11726,52.0,0,40,2.0,0.0
11727,73.0,0,40,8.0,0.0
11728,55.0,108,40,10.0,0.0
11729,79.0,0,40,7.0,0.0
11730,50.0,0,180,5.0,0.0
11731,78.0,0,90,7.0,0.0
11732,50.0,72,90,11.0,0.0
11733,74.0,24,180,1.0,0.0
11734,66.0,0,180,1.0,0.0
11735,62.0,0,180,3.0,0.0
11736,50.0,0,180,3.0,0.0
11737,69.0,0,180,4.0,0.0
11738,66.0,0,180,4.0,0.0
11739,78.0,24,390,0.0,0.0
11740,50.0,0,90,2.0,0.0
11741,38.0,0,90,12.0,0.0
11742,57.0,0,90,10.0,0.0
11743,74.0,0,90,8.0,0.0
11744,74.0,0,40,7.0,0.0
11745,50.0,12,90,2.0,0.0
11746,62.0,0,90,10.0,0.0
11747,74.0,24,40,8.0,0.0
11748,50.0,0,90,11.0,0.0
11749,38.0,0,90,12.0,0.0
11750,76.0,60,40,8.0,0.0
11751,76.0,0,40,7.0,0.0
11752,79.0,0,40,7.0,0.0
11753,79.0,48,40,8.0,0.0
11754,62.0,0,90,10.0,0.0
11755,74.0,48,300,1.0,0.0
11756,38.0,0,90,12.0,0.0
11757,50.0,0,90,11.0,0.0
11758,50.0,12,90,2.0,0.0
11759,78.0,0,40,8.0,0.0
11760,78.0,36,40,7.0,0.0
11761,76.0,48,40,8.0,0.0
11762,50.0,0,90,2.0,0.0
11763,50.0,12,90,11.0,0.0
11764,76.0,0,40,7.0,0.0
11765,38.0,0,90,12.0,0.0
11766,62.0,0,90,10.0,0.0
11767,78.0,60,40,7.0,0.0
11768,78.0,0,40,8.0,0.0
11769,79.0,0,90,8.0,0.0
11770,79.0,72,90,7.0,0.0
11771,64.0,0,90,10.0,0.0
11772,52.0,0,90,2.0,0.0
11773,40.0,0,90,12.0,0.0
11774,52.0,0,90,11.0,0.0
11775,79.0,24,390,0.0,0.0
11776,76.0,48,40,7.0,0.0
11777,64.0,0,90,10.0,0.0
11778,73.0,0,90,1.0,0.0
11779,52.0,0,90,2.0,0.0
11780,52.0,0,90,11.0,0.0
11781,40.0,12,90,12.0,0.0
11782,76.0,0,40,8.0,0.0
11783,78.0,60,40,8.0,0.0
11784,78.0,0,40,7.0,0.0
11785,81.0,48,40,7.0,0.0
11786,64.0,0,90,10.0,0.0
11787,81.0,0,40,8.0,0.0
11788,52.0,0,90,11.0,0.0
11789,52.0,0,90,2.0,0.0
11790,40.0,12,90,12.0,0.0
11791,76.0,0,330,1.0,0.0
11792,79.0,0,40,8.0,0.0
11793,79.0,36,40,7.0,0.0
11794,52.0,0,90,2.0,0.0
11795,64.0,0,90,10.0,0.0
11796,78.0,48,40,7.0,0.0
11797,40.0,12,90,12.0,0.0
11798,52.0,0,90,11.0,0.0
11799,78.0,0,40,8.0,0.0
11800,79.0,0,40,8.0,0.0
11801,79.0,108,40,7.0,0.0
11802,42.0,0,90,12.0,0.0
11803,81.0,24,390,0.0,0.0
11804,54.0,0,90,10.0,0.0
11805,81.0,0,90,7.0,0.0
11806,54.0,0,90,2.0,0.0
11807,54.0,0,90,11.0,0.0
11808,81.0,72,90,8.0,0.0
11809,78.0,48,40,7.0,0.0
11810,54.0,0,90,10.0,0.0
11811,74.0,0,90,1.0,0.0
11812,54.0,12,90,2.0,0.0
11813,78.0,0,40,8.0,0.0
11814,54.0,0,90,11.0,0.0
11815,42.0,0,90,12.0,0.0
11816,79.0,0,40,7.0,0.0
11817,79.0,60,40,8.0,0.0
11818,83.0,48,40,7.0,0.0
11819,42.0,0,90,12.0,0.0
11820,83.0,0,40,8.0,0.0
11821,54.0,0,90,11.0,0.0
11822,54.0,0,90,10.0,0.0
11823,54.0,12,90,2.0,0.0
11824,78.0,0,330,1.0,0.0
11825,81.0,0,40,8.0,0.0
11826,81.0,36,40,7.0,0.0
11827,54.0,0,90,2.0,0.0
11828,79.0,0,40,7.0,0.0
11829,42.0,0,90,12.0,0.0
11830,79.0,48,40,8.0,0.0
11831,54.0,0,90,10.0,0.0
11832,54.0,12,90,11.0,0.0
11833,81.0,0,40,8.0,0.0
11834,81.0,108,40,7.0,0.0
11835,83.0,0,180,7.0,0.0
11836,55.0,0,90,2.0,0.0
11837,55.0,96,90,11.0,0.0
11838,55.0,0,90,10.0,0.0
11839,83.0,24,180,0.0,0.0
11840,83.0,0,180,8.0,0.0
11841,43.0,0,90,12.0,0.0
11842,55.0,0,90,10.0,0.0
11843,55.0,96,90,2.0,0.0
11844,76.0,24,180,1.0,0.0
11845,55.0,0,90,11.0,0.0
11846,43.0,0,90,12.0,0.0
11847,44.0,96,90,12.0,0.0
11848,56.0,0,90,10.0,0.0
11849,74.0,0,180,7.0,0.0
11850,64.0,0,180,7.0,0.0
11851,64.0,0,180,3.0,0.0
11852,74.0,24,180,0.0,0.0
11853,76.0,0,180,4.0,0.0
11854,64.0,0,180,8.0,0.0
11855,56.0,0,90,11.0,0.0
11856,74.0,0,180,8.0,0.0
11857,56.0,0,90,2.0,0.0
11858,56.0,0,90,11.0,0.0
11859,56.0,0,90,10.0,0.0
11860,74.0,0,90,1.0,0.0
11861,56.0,216,90,2.0,0.0
11862,44.0,0,90,12.0,0.0
11863,57.0,0,180,3.0,0.0
11864,64.0,0,180,3.0,0.0
11865,64.0,96,180,7.0,0.0
11866,73.0,0,180,1.0,0.0
11867,45.0,0,180,12.0,0.0
11868,81.0,0,180,0.0,0.0
11869,81.0,0,180,1.0,0.0
11870,73.0,0,180,7.0,0.0
11871,69.0,0,180,4.0,0.0
11872,76.0,0,180,4.0,0.0
11873,57.0,0,180,10.0,0.0
11874,64.0,0,180,8.0,0.0
11875,57.0,0,180,11.0,0.0
11876,45.0,0,180,5.0,0.0
11877,57.0,0,180,2.0,0.0
11878,57.0,0,180,7.0,0.0
11879,73.0,0,180,8.0,0.0
11880,57.0,0,180,8.0,0.0
11881,81.0,0,180,1.0,0.0
11882,69.0,60,40,0.0,0.0
11883,69.0,0,40,8.0,0.0
11884,57.0,0,180,3.0,0.0
11885,64.0,36,180,3.0,0.0
11886,57.0,0,180,2.0,0.0
11887,73.0,0,180,1.0,0.0
11888,73.0,0,40,8.0,0.0
11889,73.0,60,40,0.0,0.0
11890,76.0,24,40,8.0,0.0
11891,76.0,0,40,0.0,0.0
11892,81.0,204,40,8.0,0.0
11893,81.0,0,40,0.0,0.0
11894,66.0,96,180,3.0,0.0
11895,78.0,0,180,1.0,0.0
11896,78.0,0,180,0.0,0.0
11897,62.0,0,180,3.0,0.0
11898,74.0,0,180,1.0,0.0
11899,78.0,0,180,8.0,0.0
11900,62.0,0,180,2.0,0.0
11901,50.0,0,180,10.0,0.0
11902,74.0,0,40,0.0,0.0
11903,78.0,0,180,4.0,0.0
11904,74.0,60,40,7.0,0.0
11905,50.0,0,180,2.0,0.0
11906,74.0,0,180,4.0,0.0
11907,38.0,0,180,12.0,0.0
11908,66.0,0,180,3.0,0.0
11909,62.0,0,180,3.0,0.0
11910,50.0,0,180,5.0,0.0
11911,50.0,36,180,11.0,0.0
11912,74.0,0,180,1.0,0.0
11913,78.0,0,180,1.0,0.0
11914,78.0,0,40,7.0,0.0
11915,78.0,60,40,0.0,0.0
11916,81.0,0,40,7.0,0.0
11917,81.0,24,40,0.0,0.0
11918,86.0,204,40,7.0,0.0
11919,86.0,0,40,0.0,0.0
11920,69.0,0,180,4.0,0.0
11921,57.0,0,180,11.0,0.0
11922,73.0,0,180,1.0,0.0
11923,45.0,0,180,5.0,0.0
11924,45.0,0,180,12.0,0.0
11925,85.0,0,180,7.0,0.0
11926,85.0,0,180,0.0,0.0
11927,76.0,0,180,1.0,0.0
11928,57.0,0,180,10.0,0.0
11929,57.0,0,180,2.0,0.0
11930,76.0,0,180,4.0,0.0
11931,57.0,0,180,3.0,0.0
11932,64.0,96,180,3.0,0.0
11933,57.0,36,180,2.0,0.0
11934,73.0,0,180,1.0,0.0
11935,69.0,0,40,0.0,0.0
11936,81.0,0,180,1.0,0.0
11937,69.0,60,40,8.0,0.0
11938,64.0,0,180,3.0,0.0
11939,57.0,0,180,3.0,0.0
11940,73.0,0,40,0.0,0.0
11941,73.0,60,40,8.0,0.0
11942,76.0,24,40,0.0,0.0
11943,76.0,0,40,8.0,0.0
11944,81.0,204,40,0.0,0.0
11945,81.0,0,40,8.0,0.0
11946,78.0,0,180,8.0,0.0
11947,62.0,96,180,2.0,0.0
11948,62.0,0,180,3.0,0.0
11949,66.0,0,180,3.0,0.0
11950,78.0,0,180,0.0,0.0
11951,74.0,0,180,1.0,0.0
11952,78.0,0,180,1.0,0.0
11953,66.0,0,180,3.0,0.0
11954,78.0,36,180,4.0,0.0
11955,50.0,0,180,10.0,0.0
11956,74.0,60,40,0.0,0.0
11957,38.0,0,180,12.0,0.0
11958,50.0,0,180,11.0,0.0
11959,74.0,0,180,1.0,0.0
11960,78.0,0,180,1.0,0.0
11961,50.0,0,180,2.0,0.0
11962,74.0,0,40,7.0,0.0
11963,62.0,0,180,3.0,0.0
11964,74.0,0,180,4.0,0.0
11965,50.0,0,180,5.0,0.0
11966,78.0,60,40,0.0,0.0
11967,78.0,0,40,7.0,0.0
11968,81.0,0,40,7.0,0.0
11969,81.0,24,40,0.0,0.0
11970,86.0,108,40,0.0,0.0
11971,86.0,0,40,7.0,0.0
11972,69.0,0,180,4.0,0.0
11973,73.0,0,180,1.0,0.0
11974,76.0,0,180,1.0,0.0
11975,57.0,96,90,2.0,0.0
11976,76.0,0,180,4.0,0.0
11977,57.0,0,180,3.0,0.0
11978,85.0,0,180,7.0,0.0
11979,64.0,0,180,3.0,0.0
11980,85.0,0,180,0.0,0.0
11981,45.0,0,90,12.0,0.0
11982,57.0,0,90,10.0,0.0
11983,45.0,24,180,5.0,0.0
11984,57.0,0,90,11.0,0.0
11985,57.0,0,90,2.0,0.0
11986,57.0,48,90,11.0,0.0
11987,45.0,0,90,12.0,0.0
11988,57.0,0,90,10.0,0.0
11989,69.0,0,150,4.0,0.0
11990,55.0,18,90,10.0,0.0
11991,57.0,12,180,3.0,0.0
11992,45.0,0,150,5.0,0.0
11993,74.0,0,20,8.0,0.0
11994,73.0,0,180,1.0,0.0
11995,55.0,0,90,2.0,0.0
11996,85.0,0,180,0.0,0.0
11997,78.0,30,20,7.0,0.0
11998,43.0,0,90,12.0,0.0
11999,55.0,0,90,11.0,0.0
12000,64.0,0,180,3.0,0.0
12001,76.0,0,180,1.0,0.0
12002,73.0,0,20,8.0,0.0
12003,76.0,30,20,7.0,0.0
12004,78.0,0,20,7.0,0.0
12005,74.0,12,20,8.0,0.0
12006,76.0,0,20,7.0,0.0
12007,73.0,30,20,8.0,0.0
12008,74.0,30,20,8.0,0.0
12009,78.0,0,20,7.0,0.0
12010,57.0,0,90,11.0,0.0
12011,57.0,12,90,10.0,0.0
12012,45.0,0,90,12.0,0.0
12013,57.0,0,90,2.0,0.0
12014,76.0,0,20,7.0,0.0
12015,73.0,18,20,8.0,0.0
12016,45.0,0,40,5.0,0.0
12017,74.0,0,20,7.0,0.0
12018,69.0,6,40,4.0,0.0
12019,71.0,12,20,8.0,0.0
12020,73.0,0,20,8.0,0.0
12021,76.0,102,20,7.0,0.0
12022,66.0,0,180,3.0,0.0
12023,54.0,0,90,11.0,0.0
12024,78.0,0,180,7.0,0.0
12025,42.0,0,90,12.0,0.0
12026,62.0,0,180,3.0,0.0
12027,54.0,96,90,2.0,0.0
12028,78.0,0,180,1.0,0.0
12029,45.0,0,180,5.0,0.0
12030,86.0,0,180,0.0,0.0
12031,54.0,0,90,10.0,0.0
12032,74.0,0,180,1.0,0.0
12033,74.0,24,180,8.0,0.0
12034,69.0,0,180,4.0,0.0
12035,57.0,120,90,2.0,0.0
12036,45.0,0,90,12.0,0.0
12037,57.0,0,90,10.0,0.0
12038,57.0,0,90,11.0,0.0
12039,78.0,0,180,8.0,0.0
12040,86.0,0,180,7.0,0.0
12041,54.0,96,90,10.0,0.0
12042,54.0,0,90,2.0,0.0
12043,54.0,0,90,11.0,0.0
12044,66.0,0,180,3.0,0.0
12045,78.0,0,180,1.0,0.0
12046,86.0,0,180,0.0,0.0
12047,45.0,0,180,5.0,0.0
12048,42.0,0,90,12.0,0.0
12049,74.0,0,180,1.0,0.0
12050,69.0,0,180,4.0,0.0
12051,62.0,24,180,3.0,0.0
12052,38.0,0,90,12.0,0.0
12053,50.0,0,90,11.0,0.0
12054,50.0,216,90,10.0,0.0
12055,50.0,0,90,2.0,0.0
12056,45.0,0,390,2.0,0.0
12057,69.0,0,390,0.0,0.0
12058,45.0,192,180,5.0,0.0
12059,45.0,0,390,11.0,0.0
12060,66.0,0,390,3.0,0.0
12061,45.0,0,390,10.0,0.0
12062,69.0,768,390,4.0,0.0
12063,62.0,0,390,3.0,0.0
12064,57.0,0,390,8.0,0.0
12065,33.0,0,1140,6.0,0.0
12066,45.0,0,1140,6.0,0.0
12067,57.0,0,390,7.0,0.0
12068,74.0,0,390,1.0,0.0
12069,78.0,0,390,1.0,0.0
12070,33.0,0,390,12.0,0.0
12071,57.0,336,1140,6.0,0.0
12072,57.0,60,40,6.0,0.0
12073,59.0,60,40,6.0,0.0
12074,61.0,60,40,6.0,0.0
12075,62.0,60,40,6.0,0.0
12076,64.0,60,40,6.0,0.0
12077,66.0,60,40,6.0,0.0
12078,67.0,60,40,6.0,0.0
12079,69.0,60,40,6.0,0.0
12080,71.0,60,40,6.0,0.0
12081,73.0,60,40,6.0,0.0
12082,74.0,60,40,6.0,0.0
12083,76.0,50,40,6.0,0.0
12084,78.0,48,40,6.0,0.0
12085,79.0,48,40,6.0,0.0
12086,81.0,48,40,6.0,0.0
12087,83.0,48,40,6.0,0.0
12088,85.0,394,40,6.0,0.0
12089,86.0,288,390,6.0,0.0
12090,74.0,276,180,6.0,0.0
12091,86.0,156,40,6.0,0.0
12092,85.0,84,150,6.0,0.0
12093,69.0,84,390,6.0,0.0
12094,83.0,156,40,6.0,0.0
12095,81.0,0,150,6.0,0.0
12096,79.0,156,40,6.0,0.0
12097,78.0,84,150,6.0,0.0
12098,57.0,48,330,6.0,0.0
12099,76.0,108,40,6.0,0.0
12100,74.0,84,150,6.0,0.0
12101,69.0,0,40,6.0,0.0
12102,73.0,156,40,6.0,0.0
12103,67.0,84,150,6.0,0.0
12104,71.0,0,390,6.0,0.0
12105,66.0,156,40,6.0,0.0
12106,64.0,84,150,6.0,0.0
12107,62.0,156,40,6.0,0.0
12108,61.0,84,150,6.0,0.0
12109,59.0,156,40,6.0,0.0
12110,57.0,84,150,6.0,0.0
12111,55.0,60,40,6.0,0.0
12112,83.0,0,40,6.0,0.0
12113,81.0,60,40,6.0,0.0
12114,54.0,24,390,6.0,0.0
12115,83.0,60,40,6.0,0.0
12116,79.0,60,40,6.0,0.0
12117,81.0,60,40,6.0,0.0
12118,78.0,60,40,6.0,0.0
12119,79.0,36,40,6.0,0.0
12120,76.0,60,40,6.0,0.0
12121,78.0,60,40,6.0,0.0
12122,74.0,60,40,6.0,0.0
12123,76.0,60,40,6.0,0.0
12124,73.0,60,40,6.0,0.0
12125,74.0,60,40,6.0,0.0
12126,71.0,60,40,6.0,0.0
12127,73.0,60,40,6.0,0.0
12128,69.0,60,40,6.0,0.0
12129,66.0,0,40,6.0,0.0
12130,71.0,60,40,6.0,0.0
12131,67.0,24,390,6.0,0.0
12132,64.0,60,40,6.0,0.0
12133,66.0,60,40,6.0,0.0
12134,62.0,60,40,6.0,0.0
12135,64.0,60,40,6.0,0.0
12136,61.0,60,40,6.0,0.0
12137,62.0,36,40,6.0,0.0
12138,59.0,60,40,6.0,0.0
12139,61.0,60,40,6.0,0.0
12140,57.0,60,40,6.0,0.0
12141,59.0,60,40,6.0,0.0
12142,55.0,60,40,6.0,0.0
12143,57.0,60,40,6.0,0.0
12144,54.0,60,40,6.0,0.0
12145,55.0,60,40,6.0,0.0
12146,52.0,60,40,6.0,0.0
12147,54.0,0,40,6.0,0.0
12148,79.0,76,40,6.0,0.0
12149,78.0,80,390,6.0,0.0
12150,50.0,80,60,6.0,0.0
12151,54.0,80,60,6.0,0.0
12152,57.0,80,60,6.0,0.0
12153,62.0,80,60,6.0,0.0
12154,86.0,0,390,6.0,0.0
12155,66.0,0,60,6.0,0.0
12156,69.0,80,60,6.0,0.0
12157,76.0,0,390,6.0,0.0
12158,46.0,80,60,6.0,0.0
12159,49.0,80,60,6.0,0.0
12160,54.0,80,60,6.0,0.0
12161,58.0,80,60,6.0,0.0
12162,85.0,32,180,6.0,0.0
12163,61.0,48,60,6.0,0.0
12164,66.0,80,60,6.0,0.0
12165,75.0,80,390,6.0,0.0
12166,45.0,80,60,6.0,0.0
12167,48.0,80,60,6.0,0.0
12168,54.0,80,60,6.0,0.0
12169,57.0,80,60,6.0,0.0
12170,84.0,80,390,6.0,0.0
12171,60.0,0,60,6.0,0.0
12172,66.0,80,60,6.0,0.0
12173,44.0,80,60,6.0,0.0
12174,76.0,48,390,6.0,0.0
12175,47.0,0,60,6.0,0.0
12176,52.0,80,60,6.0,0.0
12177,83.0,32,180,6.0,0.0
12178,56.0,80,60,6.0,0.0
12179,59.0,0,60,6.0,0.0
12180,64.0,80,60,6.0,0.0
12181,73.0,80,390,6.0,0.0
12182,43.0,80,60,6.0,0.0
12183,46.0,80,60,6.0,0.0
12184,52.0,80,60,6.0,0.0
12185,55.0,80,60,6.0,0.0
12186,82.0,80,390,6.0,0.0
12187,58.0,0,60,6.0,0.0
12188,64.0,80,60,6.0,0.0
12189,42.0,80,60,6.0,0.0
12190,74.0,48,390,6.0,0.0
12191,45.0,0,60,6.0,0.0
12192,50.0,80,60,6.0,0.0
12193,54.0,80,60,6.0,0.0
12194,81.0,32,180,6.0,0.0
12195,57.0,0,60,6.0,0.0
12196,62.0,80,60,6.0,0.0
12197,69.0,80,390,6.0,0.0
12198,41.0,80,60,6.0,0.0
12199,75.0,0,390,6.0,0.0
12200,45.0,80,60,6.0,0.0
12201,48.0,80,60,6.0,0.0
12202,81.0,0,390,6.0,0.0
12203,53.0,80,60,6.0,0.0
12204,57.0,0,60,6.0,0.0
12205,60.0,80,60,6.0,0.0
12206,71.0,0,390,6.0,0.0
12207,40.0,80,60,6.0,0.0
12208,74.0,0,390,6.0,0.0
12209,44.0,80,60,6.0,0.0
12210,47.0,80,60,6.0,0.0
12211,80.0,32,180,6.0,0.0
12212,52.0,80,60,6.0,0.0
12213,56.0,48,60,6.0,0.0
12214,59.0,80,60,6.0,0.0
12215,34.0,80,60,6.0,0.0
12216,73.0,80,390,6.0,0.0
12217,76.0,0,390,6.0,0.0
12218,37.0,80,60,6.0,0.0
12219,40.0,80,60,6.0,0.0
12220,46.0,80,60,6.0,0.0
12221,79.0,0,390,6.0,0.0
12222,49.0,0,60,6.0,0.0
12223,52.0,80,60,6.0,0.0
12224,74.0,48,390,6.0,0.0
12225,71.0,0,390,6.0,0.0
12226,35.0,80,60,6.0,0.0
12227,38.0,80,60,6.0,0.0
12228,42.0,80,60,6.0,0.0
12229,78.0,32,180,6.0,0.0
12230,47.0,80,60,6.0,0.0
12231,50.0,0,60,6.0,0.0
12232,54.0,160,60,6.0,0.0
12233,43.0,32,180,6.0,0.0
12234,55.0,0,180,6.0,0.0
12235,64.0,48,60,6.0,0.0
12236,74.0,80,60,6.0,0.0
12237,76.0,80,60,6.0,0.0
12238,79.0,32,180,6.0,0.0
12239,74.0,48,60,6.0,0.0
12240,64.0,80,60,6.0,0.0
12241,83.0,32,180,6.0,0.0
12242,76.0,80,60,6.0,0.0
12243,74.0,48,60,6.0,0.0
12244,64.0,80,60,6.0,0.0
12245,76.0,80,60,6.0,0.0
12246,79.0,32,180,6.0,0.0
12247,74.0,48,60,6.0,0.0
12248,64.0,160,60,6.0,0.0
12249,55.0,0,180,6.0,0.0
12250,43.0,32,180,6.0,0.0
12251,64.0,48,60,6.0,0.0
12252,74.0,80,60,6.0,0.0
12253,76.0,32,60,6.0,0.0
12254,83.0,48,90,6.0,0.0
12255,74.0,72,60,6.0,0.0
12256,79.0,8,90,6.0,0.0
12257,64.0,80,60,6.0,0.0
12258,76.0,80,60,6.0,0.0
12259,55.0,0,180,6.0,0.0
12260,43.0,32,180,6.0,0.0
12261,74.0,48,60,6.0,0.0
12262,64.0,80,60,6.0,0.0
12263,83.0,48,90,6.0,0.0
12264,76.0,32,60,6.0,0.0
12265,74.0,72,60,6.0,0.0
12266,79.0,8,90,6.0,0.0
12267,64.0,160,60,6.0,0.0
12268,57.0,32,180,6.0,0.0
12269,45.0,0,180,6.0,0.0
12270,66.0,48,60,6.0,0.0
12271,74.0,80,60,6.0,0.0
12272,81.0,32,180,6.0,0.0
12273,78.0,80,60,6.0,0.0
12274,74.0,48,60,6.0,0.0
12275,66.0,80,60,6.0,0.0
12276,78.0,80,60,6.0,0.0
12277,84.0,32,180,6.0,0.0
12278,74.0,48,60,6.0,0.0
12279,66.0,80,60,6.0,0.0
12280,78.0,80,60,6.0,0.0
12281,81.0,32,180,6.0,0.0
12282,74.0,48,60,6.0,0.0
12283,66.0,160,60,6.0,0.0
12284,45.0,32,180,6.0,0.0
12285,57.0,0,180,6.0,0.0
12286,66.0,48,60,6.0,0.0
12287,74.0,80,60,6.0,0.0
12288,84.0,48,90,6.0,0.0
12289,78.0,32,60,6.0,0.0
12290,74.0,72,60,6.0,0.0
12291,81.0,8,90,6.0,0.0
12292,66.0,80,60,6.0,0.0
12293,78.0,80,60,6.0,0.0
12294,45.0,32,180,6.0,0.0
12295,57.0,0,180,6.0,0.0
12296,74.0,48,60,6.0,0.0
12297,66.0,80,60,6.0,0.0
12298,84.0,48,90,6.0,0.0
12299,78.0,32,60,6.0,0.0
12300,74.0,72,60,6.0,0.0
12301,81.0,8,90,6.0,0.0
12302,66.0,160,60,6.0,0.0
12303,58.0,32,180,6.0,0.0
12304,46.0,0,180,6.0,0.0
12305,67.0,48,60,6.0,0.0
12306,74.0,80,60,6.0,0.0
12307,79.0,80,60,6.0,0.0
12308,86.0,32,180,6.0,0.0
12309,74.0,48,60,6.0,0.0
12310,70.0,80,60,6.0,0.0
12311,79.0,80,60,6.0,0.0
12312,85.0,32,180,6.0,0.0
12313,76.0,48,60,6.0,0.0
12314,69.0,80,60,6.0,0.0
12315,84.0,32,180,6.0,0.0
12316,78.0,80,60,6.0,0.0
12317,74.0,48,60,6.0,0.0
12318,69.0,80,60,6.0,0.0
12319,79.0,80,60,6.0,0.0
12320,83.0,32,180,6.0,0.0
12321,74.0,48,60,6.0,0.0
12322,71.0,80,60,6.0,0.0
12323,82.0,80,60,6.0,0.0
12324,50.0,32,180,6.0,0.0
12325,62.0,0,180,6.0,0.0
12326,79.0,48,60,6.0,0.0
12327,74.0,80,60,6.0,0.0
12328,49.0,0,180,6.0,0.0
12329,61.0,32,180,6.0,0.0
12330,81.0,80,60,6.0,0.0
12331,79.0,48,60,6.0,0.0
12332,76.0,80,60,6.0,0.0
12333,48.0,32,180,6.0,0.0
12334,60.0,0,180,6.0,0.0
12335,81.0,80,60,6.0,0.0
12336,78.0,48,60,6.0,0.0
12337,74.0,80,60,6.0,0.0
12338,47.0,32,180,6.0,0.0
12339,59.0,0,180,6.0,0.0
12340,79.0,80,60,6.0,0.0
12341,74.0,48,60,6.0,0.0
12342,71.0,80,60,6.0,0.0
12343,86.0,32,180,6.0,0.0
12344,79.0,80,60,6.0,0.0
12345,74.0,48,60,6.0,0.0
12346,70.0,80,60,6.0,0.0
12347,79.0,80,60,6.0,0.0
12348,85.0,32,180,6.0,0.0
12349,76.0,48,60,6.0,0.0
12350,69.0,80,60,6.0,0.0
12351,84.0,32,180,6.0,0.0
12352,78.0,80,60,6.0,0.0
12353,74.0,48,60,6.0,0.0
12354,69.0,80,60,6.0,0.0
12355,79.0,80,60,6.0,0.0
12356,83.0,32,180,6.0,0.0
12357,74.0,48,60,6.0,0.0
12358,71.0,80,60,6.0,0.0
12359,82.0,80,60,6.0,0.0
12360,62.0,0,180,6.0,0.0
12361,50.0,32,180,6.0,0.0
12362,79.0,48,60,6.0,0.0
12363,74.0,80,60,6.0,0.0
12364,81.0,80,60,6.0,0.0
12365,49.0,0,180,6.0,0.0
12366,61.0,32,180,6.0,0.0
12367,79.0,48,60,6.0,0.0
12368,76.0,80,60,6.0,0.0
12369,48.0,32,180,6.0,0.0
12370,60.0,0,180,6.0,0.0
12371,81.0,80,60,6.0,0.0
12372,78.0,48,60,6.0,0.0
12373,74.0,80,60,6.0,0.0
12374,47.0,32,180,6.0,0.0
12375,80.0,80,60,6.0,0.0
12376,59.0,0,180,6.0,0.0
12377,74.0,48,60,6.0,0.0
12378,68.0,80,60,6.0,0.0
12379,46.0,0,180,6.0,0.0
12380,58.0,32,180,6.0,0.0
12381,79.0,80,60,6.0,0.0
12382,74.0,48,60,6.0,0.0
12383,67.0,80,60,6.0,0.0
12384,78.0,80,60,6.0,0.0
12385,57.0,0,390,6.0,0.0
12386,45.0,0,390,6.0,0.0
12387,74.0,80,60,6.0,0.0
12388,66.0,80,60,6.0,0.0
12389,77.0,80,60,6.0,0.0
12390,74.0,80,60,6.0,0.0
12391,65.0,80,60,6.0,0.0
12392,89.0,80,60,6.0,0.0
12393,44.0,0,60,6.0,0.0
12394,47.0,0,60,6.0,0.0
12395,86.0,80,60,6.0,0.0
12396,50.0,80,60,6.0,0.0
12397,83.0,0,60,6.0,0.0
12398,80.0,0,60,6.0,0.0
12399,53.0,80,60,6.0,0.0
12400,56.0,0,60,6.0,0.0
12401,77.0,80,60,6.0,0.0
12402,74.0,80,60,6.0,0.0
12403,59.0,0,60,6.0,0.0
12404,62.0,0,60,6.0,0.0
12405,71.0,80,60,6.0,0.0
12406,74.0,80,60,6.0,0.0
12407,59.0,0,60,6.0,0.0
12408,77.0,80,60,6.0,0.0
12409,56.0,0,60,6.0,0.0
12410,80.0,0,60,6.0,0.0
12411,53.0,80,60,6.0,0.0
12412,50.0,0,60,6.0,0.0
12413,83.0,80,60,6.0,0.0
12414,86.0,80,60,6.0,0.0
12415,47.0,0,60,6.0,0.0
12416,89.0,0,60,6.0,0.0
12417,44.0,80,60,6.0,0.0
12418,47.0,0,60,6.0,0.0
12419,86.0,80,60,6.0,0.0
12420,50.0,0,60,6.0,0.0
12421,83.0,80,60,6.0,0.0
12422,53.0,0,60,6.0,0.0
12423,80.0,80,60,6.0,0.0
12424,77.0,80,60,6.0,0.0
12425,56.0,0,60,6.0,0.0
12426,74.0,0,60,6.0,0.0
12427,59.0,80,60,6.0,0.0
12428,62.0,80,60,6.0,0.0
12429,71.0,0,60,6.0,0.0
12430,59.0,0,60,6.0,0.0
12431,74.0,80,60,6.0,0.0
12432,77.0,80,60,6.0,0.0
12433,56.0,0,60,6.0,0.0
12434,53.0,80,60,6.0,0.0
12435,80.0,0,60,6.0,0.0
12436,50.0,80,60,6.0,0.0
12437,83.0,0,60,6.0,0.0
12438,47.0,0,60,6.0,0.0
12439,86.0,80,60,6.0,0.0
12440,44.0,32,180,6.0,0.0
12441,89.0,80,60,6.0,0.0
12442,85.0,48,60,6.0,0.0
12443,86.0,80,60,6.0,0.0
12444,89.0,80,60,6.0,0.0
12445,82.0,80,60,6.0,0.0
12446,83.0,80,60,6.0,0.0
12447,89.0,80,60,6.0,0.0
12448,79.0,80,60,6.0,0.0
12449,80.0,80,60,6.0,0.0
12450,89.0,80,60,6.0,0.0
12451,76.0,80,60,6.0,0.0
12452,77.0,80,60,6.0,0.0
12453,89.0,80,60,6.0,0.0
12454,73.0,80,60,6.0,0.0
12455,74.0,80,60,6.0,0.0
12456,89.0,80,60,6.0,0.0
12457,70.0,80,60,6.0,0.0
12458,71.0,208,60,6.0,0.0
12459,68.0,0,180,6.0,0.0
12460,56.0,0,180,6.0,0.0
12461,44.0,240,180,6.0,0.0
12462,74.0,0,180,6.0,0.0
12463,86.0,0,180,6.0,0.0
12464,77.0,0,180,6.0,0.0
12465,59.0,0,180,6.0,0.0
12466,65.0,240,180,6.0,0.0
12467,62.0,0,180,6.0,0.0
12468,83.0,0,180,6.0,0.0
12469,56.0,0,180,6.0,0.0
12470,45.0,192,180,6.0,0.0
12471,57.0,0,180,6.0,0.0
12472,33.0,0,180,6.0,0.0
12473,50.0,0,150,6.0,0.0
12474,54.0,84,150,6.0,0.0
12475,55.0,0,40,6.0,0.0
12476,52.0,76,40,6.0,0.0
12477,57.0,0,60,6.0,0.0
12478,54.0,80,60,6.0,0.0
12479,59.0,0,60,6.0,0.0
12480,55.0,80,60,6.0,0.0
12481,61.0,0,60,6.0,0.0
12482,52.0,80,60,6.0,0.0
12483,62.0,80,60,6.0,0.0
12484,54.0,0,60,6.0,0.0
12485,54.0,0,60,6.0,0.0
12486,57.0,80,60,6.0,0.0
12487,59.0,80,60,6.0,0.0
12488,55.0,0,60,6.0,0.0
12489,57.0,80,60,6.0,0.0
12490,61.0,0,60,6.0,0.0
12491,59.0,0,60,6.0,0.0
12492,62.0,80,60,6.0,0.0
12493,61.0,0,60,6.0,0.0
12494,64.0,80,60,6.0,0.0
12495,62.0,80,60,6.0,0.0
12496,66.0,0,60,6.0,0.0
12497,61.0,0,60,6.0,0.0
12498,57.0,80,60,6.0,0.0
12499,62.0,0,60,6.0,0.0
12500,59.0,80,60,6.0,0.0
12501,64.0,0,60,6.0,0.0
12502,61.0,80,60,6.0,0.0
12503,66.0,80,60,6.0,0.0
12504,62.0,0,60,6.0,0.0
12505,64.0,0,60,6.0,0.0
12506,67.0,80,60,6.0,0.0
12507,66.0,0,60,6.0,0.0
12508,69.0,80,60,6.0,0.0
12509,66.0,0,60,6.0,0.0
12510,62.0,80,60,6.0,0.0
12511,64.0,80,60,6.0,0.0
12512,67.0,0,60,6.0,0.0
12513,69.0,0,60,6.0,0.0
12514,66.0,80,60,6.0,0.0
12515,71.0,80,60,6.0,0.0
12516,67.0,0,60,6.0,0.0
12517,73.0,0,60,6.0,0.0
12518,64.0,80,60,6.0,0.0
12519,74.0,0,60,6.0,0.0
12520,66.0,80,60,6.0,0.0
12521,66.0,80,60,6.0,0.0
12522,69.0,0,60,6.0,0.0
12523,67.0,0,60,6.0,0.0
12524,71.0,80,60,6.0,0.0
12525,69.0,0,60,6.0,0.0
12526,73.0,80,60,6.0,0.0
12527,71.0,80,60,6.0,0.0
12528,74.0,0,60,6.0,0.0
12529,73.0,80,60,6.0,0.0
12530,76.0,0,60,6.0,0.0
12531,78.0,0,60,6.0,0.0
12532,74.0,80,60,6.0,0.0
12533,69.0,0,60,6.0,0.0
12534,73.0,80,60,6.0,0.0
12535,74.0,80,60,6.0,0.0
12536,71.0,0,60,6.0,0.0
12537,76.0,0,60,6.0,0.0
12538,73.0,80,60,6.0,0.0
12539,74.0,0,60,6.0,0.0
12540,78.0,80,60,6.0,0.0
12541,79.0,80,60,6.0,0.0
12542,76.0,0,60,6.0,0.0
12543,78.0,0,60,6.0,0.0
12544,81.0,80,60,6.0,0.0
12545,74.0,80,60,6.0,0.0
12546,78.0,0,60,6.0,0.0
12547,79.0,80,60,6.0,0.0
12548,76.0,0,60,6.0,0.0
12549,81.0,0,60,6.0,0.0
12550,78.0,80,60,6.0,0.0
12551,79.0,80,60,6.0,0.0
12552,83.0,0,60,6.0,0.0
12553,85.0,80,60,6.0,0.0
12554,76.0,0,60,6.0,0.0
12555,78.0,32,180,6.0,0.0
12556,86.0,80,60,6.0,0.0
12557,86.0,48,60,6.0,0.0
12558,85.0,80,60,6.0,0.0
12559,84.0,80,60,6.0,0.0
12560,83.0,80,60,6.0,0.0
12561,82.0,448,60,6.0,0.0
12562,81.0,80,540,6.0,0.0
12563,57.0,0,180,6.0,0.0
12564,66.0,112,180,6.0,0.0
12565,62.0,0,180,6.0,0.0
12566,62.0,0,180,6.0,0.0
12567,57.0,0,180,6.0,0.0
12568,66.0,32,180,6.0,0.0
12569,86.0,48,60,6.0,0.0
12570,85.0,80,60,6.0,0.0
12571,84.0,80,60,6.0,0.0
12572,83.0,80,60,6.0,0.0
12573,82.0,80,60,6.0,0.0
12574,66.0,0,180,6.0,0.0
12575,62.0,0,180,6.0,0.0
12576,57.0,32,180,6.0,0.0
12577,81.0,80,15,6.0,0.0
12578,86.0,48,60,6.0,0.0
12579,85.0,80,60,6.0,0.0
12580,84.0,80,60,6.0,0.0
12581,83.0,80,60,6.0,0.0
12582,82.0,80,60,6.0,0.0
12583,66.0,32,180,6.0,0.0
12584,57.0,0,180,6.0,0.0
12585,62.0,0,180,6.0,0.0
12586,81.0,80,15,6.0,0.0
12587,86.0,48,60,6.0,0.0
12588,85.0,80,60,6.0,0.0
12589,84.0,80,60,6.0,0.0
12590,83.0,80,60,6.0,0.0
12591,82.0,80,60,6.0,0.0
12592,81.0,80,60,6.0,0.0
12593,86.0,80,60,6.0,0.0
12594,77.0,80,60,6.0,0.0
12595,78.0,80,60,6.0,0.0
12596,81.0,80,60,6.0,0.0
12597,73.0,80,60,6.0,0.0
12598,74.0,80,60,6.0,0.0
12599,78.0,80,60,6.0,0.0
12600,68.0,80,60,6.0,0.0
12601,69.0,80,60,6.0,0.0
12602,57.0,0,60,6.0,0.0
12603,74.0,0,60,6.0,0.0
12604,62.0,80,60,6.0,0.0
12605,65.0,80,60,6.0,0.0
12606,53.0,0,60,6.0,0.0
12607,54.0,0,60,6.0,0.0
12608,66.0,80,60,6.0,0.0
12609,57.0,80,60,6.0,0.0
12610,69.0,0,60,6.0,0.0
12611,49.0,0,60,6.0,0.0
12612,61.0,80,60,6.0,0.0
12613,50.0,80,60,6.0,0.0
12614,62.0,0,60,6.0,0.0
12615,54.0,0,60,6.0,0.0
12616,66.0,80,60,6.0,0.0
12617,56.0,80,60,6.0,0.0
12618,44.0,0,60,6.0,0.0
12619,45.0,0,60,6.0,0.0
12620,57.0,80,60,6.0,0.0
12621,50.0,0,60,6.0,0.0
12622,62.0,80,60,6.0,0.0
12623,53.0,0,60,6.0,0.0
12624,41.0,80,60,6.0,0.0
12625,54.0,80,60,6.0,0.0
12626,42.0,0,60,6.0,0.0
12627,57.0,0,60,6.0,0.0
12628,45.0,80,60,6.0,0.0
12629,38.0,0,60,6.0,0.0
12630,50.0,592,60,6.0,0.0
12631,45.0,0,570,6.0,0.0
12632,33.0,176,570,6.0,0.0
12633,45.0,40,30,6.0,0.0
12634,49.0,40,30,6.0,0.0
12635,47.0,40,30,6.0,0.0
12636,45.0,40,30,6.0,0.0
12637,47.0,40,30,6.0,0.0
12638,49.0,40,30,6.0,0.0
12639,50.0,40,30,6.0,0.0
12640,52.0,40,30,6.0,0.0
12641,54.0,40,30,6.0,0.0
12642,55.0,40,30,6.0,0.0
12643,57.0,40,30,6.0,0.0
12644,59.0,40,30,6.0,0.0
12645,61.0,40,30,6.0,0.0
12646,62.0,40,30,6.0,0.0
12647,64.0,40,30,6.0,0.0
12648,66.0,40,30,6.0,0.0
12649,67.0,40,30,6.0,0.0
12650,69.0,40,30,6.0,0.0
12651,71.0,40,30,6.0,0.0
12652,73.0,40,30,6.0,0.0
12653,74.0,40,30,6.0,0.0
12654,76.0,40,30,6.0,0.0
12655,78.0,40,30,6.0,0.0
12656,79.0,40,30,6.0,0.0
12657,81.0,40,30,6.0,0.0
12658,83.0,40,30,6.0,0.0
12659,85.0,104,30,6.0,0.0
12660,86.0,252,90,6.0,0.0
12661,74.0,36,40,6.0,0.0
12662,74.0,30,20,6.0,0.0
12663,76.0,30,20,6.0,0.0
12664,78.0,30,20,6.0,0.0
12665,76.0,30,20,6.0,0.0
12666,78.0,30,20,6.0,0.0
12667,76.0,30,20,6.0,0.0
12668,78.0,30,20,6.0,0.0
12669,76.0,30,20,6.0,0.0
12670,78.0,30,20,6.0,0.0
12671,76.0,30,20,6.0,0.0
12672,78.0,30,20,6.0,0.0
12673,76.0,30,20,6.0,0.0
12674,78.0,30,20,6.0,0.0
12675,76.0,30,20,6.0,0.0
12676,78.0,30,20,6.0,0.0
12677,76.0,30,20,6.0,0.0
12678,78.0,30,20,6.0,0.0
12679,57.0,0,390,6.0,0.0
12680,61.0,0,390,6.0,0.0
12681,67.0,0,390,6.0,0.0
12682,76.0,30,20,6.0,0.0
12683,78.0,30,20,6.0,0.0
12684,76.0,30,20,6.0,0.0
12685,78.0,30,20,6.0,0.0
12686,76.0,30,20,6.0,0.0
12687,78.0,30,20,6.0,0.0
12688,76.0,30,20,6.0,0.0
12689,78.0,30,20,6.0,0.0
12690,76.0,30,20,6.0,0.0
12691,78.0,30,20,6.0,0.0
12692,76.0,30,20,6.0,0.0
12693,78.0,30,20,6.0,0.0
12694,76.0,30,20,6.0,0.0
12695,74.0,30,20,6.0,0.0
12696,76.0,54,20,6.0,0.0
12697,62.0,24,1350,10.0,0.0
12698,86.0,0,4020,0.0,0.0
12699,66.0,24,180,6.0,0.0
12700,62.0,0,180,6.0,0.0
12701,74.0,0,180,7.0,0.0
12702,62.0,24,390,3.0,0.0
12703,50.0,0,390,3.0,0.0
12704,50.0,12,90,2.0,0.0
12705,74.0,0,390,1.0,0.0
12706,66.0,48,40,8.0,0.0
12707,50.0,0,90,11.0,0.0
12708,38.0,0,90,12.0,0.0
12709,74.0,0,180,6.0,0.0
12710,69.0,60,40,8.0,0.0
12711,66.0,24,40,8.0,0.0
12712,50.0,12,90,11.0,0.0
12713,38.0,0,90,12.0,0.0
12714,50.0,0,90,2.0,0.0
12715,69.0,60,40,8.0,0.0
12716,38.0,0,90,12.0,0.0
12717,50.0,12,90,2.0,0.0
12718,50.0,0,90,11.0,0.0
12719,66.0,48,40,8.0,0.0
12720,69.0,36,40,8.0,0.0
12721,38.0,0,90,12.0,0.0
12722,50.0,0,90,2.0,0.0
12723,50.0,12,90,11.0,0.0
12724,69.0,48,40,7.0,0.0
12725,66.0,0,40,8.0,0.0
12726,69.0,0,40,8.0,0.0
12727,74.0,60,40,7.0,0.0
12728,66.0,48,40,8.0,0.0
12729,78.0,24,390,1.0,0.0
12730,38.0,0,90,12.0,0.0
12731,66.0,0,390,3.0,0.0
12732,50.0,0,90,2.0,0.0
12733,50.0,12,90,11.0,0.0
12734,78.0,24,180,7.0,0.0
12735,54.0,0,390,3.0,0.0
12736,69.0,60,40,8.0,0.0
12737,66.0,24,40,8.0,0.0
12738,50.0,0,90,11.0,0.0
12739,50.0,12,90,2.0,0.0
12740,38.0,0,90,12.0,0.0
12741,69.0,60,40,8.0,0.0
12742,38.0,12,90,12.0,0.0
12743,50.0,0,90,2.0,0.0
12744,66.0,48,40,8.0,0.0
12745,50.0,0,90,11.0,0.0
12746,69.0,36,40,8.0,0.0
12747,38.0,0,90,12.0,0.0
12748,74.0,0,40,7.0,0.0
12749,50.0,12,90,2.0,0.0
12750,66.0,48,40,8.0,0.0
12751,50.0,0,90,11.0,0.0
12752,78.0,0,40,7.0,0.0
12753,69.0,60,40,8.0,0.0
12754,50.0,0,90,11.0,0.0
12755,81.0,24,180,7.0,0.0
12756,81.0,0,390,1.0,0.0
12757,57.0,0,390,3.0,0.0
12758,66.0,48,40,8.0,0.0
12759,69.0,0,390,3.0,0.0
12760,50.0,12,90,2.0,0.0
12761,38.0,0,90,12.0,0.0
12762,69.0,60,40,8.0,0.0
12763,38.0,12,90,12.0,0.0
12764,50.0,0,90,11.0,0.0
12765,50.0,0,90,2.0,0.0
12766,66.0,24,40,8.0,0.0
12767,69.0,60,40,8.0,0.0
12768,50.0,0,90,11.0,0.0
12769,66.0,48,40,8.0,0.0
12770,38.0,0,90,12.0,0.0
12771,50.0,12,90,2.0,0.0
12772,69.0,36,40,8.0,0.0
12773,50.0,12,90,2.0,0.0
12774,78.0,48,40,7.0,0.0
12775,38.0,0,90,12.0,0.0
12776,50.0,0,90,11.0,0.0
12777,66.0,0,40,8.0,0.0
12778,74.0,60,40,7.0,0.0
12779,69.0,0,40,8.0,0.0
12780,50.0,0,90,11.0,0.0
12781,57.0,0,390,3.0,0.0
12782,45.0,24,390,3.0,0.0
12783,69.0,0,390,1.0,0.0
12784,50.0,0,90,2.0,0.0
12785,67.0,48,40,8.0,0.0
12786,76.0,0,180,7.0,0.0
12787,61.0,24,180,10.0,0.0
12788,38.0,12,90,12.0,0.0
12789,69.0,60,40,8.0,0.0
12790,50.0,0,90,11.0,0.0
12791,50.0,0,90,2.0,0.0
12792,38.0,12,90,12.0,0.0
12793,67.0,24,40,8.0,0.0
12794,69.0,60,40,8.0,0.0
12795,64.0,24,180,10.0,0.0
12796,50.0,0,90,11.0,0.0
12797,50.0,12,90,2.0,0.0
12798,67.0,48,40,8.0,0.0
12799,38.0,0,90,12.0,0.0
12800,69.0,36,40,8.0,0.0
12801,50.0,0,90,2.0,0.0
12802,67.0,0,40,8.0,0.0
12803,73.0,24,40,7.0,0.0
12804,38.0,12,90,12.0,0.0
12805,50.0,0,90,11.0,0.0
12806,69.0,60,40,7.0,0.0
12807,69.0,0,40,8.0,0.0
12808,74.0,0,390,1.0,0.0
12809,38.0,0,90,12.0,0.0
12810,74.0,0,90,7.0,0.0
12811,50.0,0,90,11.0,0.0
12812,62.0,24,1350,10.0,0.0
12813,50.0,24,390,3.0,0.0
12814,62.0,0,390,3.0,0.0
12815,66.0,48,40,8.0,0.0
12816,50.0,12,90,2.0,0.0
12817,69.0,60,40,8.0,0.0
12818,38.0,0,90,12.0,0.0
12819,66.0,48,40,8.0,0.0
12820,50.0,0,90,2.0,0.0
12821,74.0,12,90,7.0,0.0
12822,50.0,0,90,11.0,0.0
12823,69.0,60,40,8.0,0.0
12824,50.0,0,90,11.0,0.0
12825,38.0,0,90,12.0,0.0
12826,66.0,48,40,8.0,0.0
12827,50.0,12,90,2.0,0.0
12828,69.0,36,40,8.0,0.0
12829,50.0,0,90,2.0,0.0
12830,50.0,12,90,11.0,0.0
12831,66.0,0,40,8.0,0.0
12832,69.0,48,40,7.0,0.0
12833,38.0,0,90,12.0,0.0
12834,69.0,0,40,8.0,0.0
12835,74.0,60,40,7.0,0.0
12836,78.0,12,90,7.0,0.0
12837,78.0,24,390,1.0,0.0
12838,38.0,0,90,12.0,0.0
12839,66.0,0,390,3.0,0.0
12840,54.0,0,390,3.0,0.0
12841,66.0,48,40,8.0,0.0
12842,50.0,0,90,2.0,0.0
12843,50.0,0,90,11.0,0.0
12844,69.0,60,40,8.0,0.0
12845,50.0,0,90,11.0,0.0
12846,50.0,0,90,2.0,0.0
12847,66.0,48,40,8.0,0.0
12848,38.0,0,90,12.0,0.0
12849,78.0,12,90,7.0,0.0
12850,69.0,60,40,8.0,0.0
12851,50.0,12,90,2.0,0.0
12852,50.0,0,90,11.0,0.0
12853,66.0,48,40,8.0,0.0
12854,38.0,0,90,12.0,0.0
12855,69.0,36,40,8.0,0.0
12856,38.0,12,90,12.0,0.0
12857,66.0,48,40,8.0,0.0
12858,74.0,0,40,7.0,0.0
12859,50.0,0,90,11.0,0.0
12860,50.0,0,90,2.0,0.0
12861,78.0,0,40,7.0,0.0
12862,69.0,60,40,8.0,0.0
12863,81.0,0,390,1.0,0.0
12864,81.0,0,90,7.0,0.0
12865,50.0,12,90,11.0,0.0
12866,66.0,48,40,8.0,0.0
12867,38.0,0,90,12.0,0.0
12868,50.0,0,90,2.0,0.0
12869,57.0,0,390,3.0,0.0
12870,69.0,0,390,3.0,0.0
12871,69.0,60,40,8.0,0.0
12872,81.0,0,90,7.0,0.0
12873,38.0,0,90,12.0,0.0
12874,66.0,48,40,8.0,0.0
12875,50.0,0,90,2.0,0.0
12876,50.0,12,90,11.0,0.0
12877,69.0,60,40,8.0,0.0
12878,50.0,0,90,11.0,0.0
12879,38.0,12,90,12.0,0.0
12880,50.0,0,90,2.0,0.0
12881,66.0,48,40,8.0,0.0
12882,69.0,36,40,8.0,0.0
12883,50.0,0,90,11.0,0.0
12884,50.0,0,90,2.0,0.0
12885,78.0,48,40,7.0,0.0
12886,66.0,0,40,8.0,0.0
12887,38.0,12,90,12.0,0.0
12888,69.0,0,40,8.0,0.0
12889,74.0,60,40,7.0,0.0
12890,57.0,0,390,3.0,0.0
12891,61.0,24,180,10.0,0.0
12892,50.0,0,90,11.0,0.0
12893,67.0,48,40,8.0,0.0
12894,76.0,12,90,7.0,0.0
12895,45.0,24,390,3.0,0.0
12896,50.0,0,90,2.0,0.0
12897,69.0,0,390,1.0,0.0
12898,38.0,0,90,12.0,0.0
12899,69.0,60,40,8.0,0.0
12900,67.0,24,40,8.0,0.0
12901,50.0,12,90,11.0,0.0
12902,50.0,0,90,2.0,0.0
12903,38.0,0,90,12.0,0.0
12904,76.0,0,90,7.0,0.0
12905,69.0,60,40,8.0,0.0
12906,64.0,24,180,10.0,0.0
12907,38.0,0,90,12.0,0.0
12908,50.0,0,90,2.0,0.0
12909,50.0,12,90,11.0,0.0
12910,67.0,48,40,8.0,0.0
12911,69.0,36,40,8.0,0.0
12912,50.0,12,90,11.0,0.0
12913,50.0,0,90,2.0,0.0
12914,67.0,24,40,8.0,0.0
12915,38.0,0,90,12.0,0.0
12916,73.0,0,40,7.0,0.0
12917,69.0,204,40,8.0,0.0
12918,69.0,0,40,7.0,0.0
12919,66.0,0,180,8.0,0.0
12920,62.0,0,180,3.0,0.0
12921,50.0,0,180,3.0,0.0
12922,50.0,0,180,2.0,0.0
12923,38.0,0,180,12.0,0.0
12924,62.0,192,180,10.0,0.0
12925,74.0,0,180,7.0,0.0
12926,50.0,0,180,11.0,0.0
12927,74.0,0,180,1.0,0.0
12928,69.0,0,150,7.0,0.0
12929,81.0,0,150,7.0,0.0
12930,69.0,0,150,8.0,0.0
12931,81.0,0,150,8.0,0.0
12932,45.0,0,150,5.0,0.0
12933,45.0,0,150,12.0,0.0
12934,69.0,0,150,4.0,0.0
12935,81.0,84,150,0.0,0.0
12936,57.0,0,150,2.0,0.0
12937,69.0,0,150,10.0,0.0
12938,57.0,0,150,3.0,0.0
12939,69.0,0,150,1.0,0.0
12940,57.0,0,150,11.0,0.0
12941,81.0,0,40,8.0,0.0
12942,69.0,0,40,10.0,0.0
12943,69.0,0,40,4.0,0.0
12944,45.0,0,40,5.0,0.0
12945,69.0,0,40,7.0,0.0
12946,81.0,0,40,7.0,0.0
12947,45.0,0,40,12.0,0.0
12948,57.0,0,40,3.0,0.0
12949,57.0,204,40,2.0,0.0
12950,69.0,0,40,8.0,0.0
12951,69.0,0,40,1.0,0.0
12952,81.0,0,40,0.0,0.0
12953,57.0,0,40,11.0,0.0
12954,45.0,96,180,5.0,0.0
12955,57.0,0,180,3.0,0.0
12956,69.0,0,300,10.0,0.0
12957,81.0,0,300,8.0,0.0
12958,57.0,0,300,2.0,0.0
12959,69.0,0,300,8.0,0.0
12960,69.0,0,180,4.0,0.0
12961,69.0,0,300,7.0,0.0
12962,57.0,0,300,11.0,0.0
12963,81.0,0,300,0.0,0.0
12964,69.0,0,300,1.0,0.0
12965,81.0,120,300,7.0,0.0
12966,45.0,0,300,12.0,0.0
12967,47.0,0,40,12.0,0.0
12968,83.0,0,40,0.0,0.0
12969,83.0,0,40,7.0,0.0
12970,59.0,0,40,11.0,0.0
12971,71.0,0,40,1.0,0.0
12972,83.0,0,40,8.0,0.0
12973,71.0,0,40,10.0,0.0
12974,59.0,60,40,2.0,0.0
12975,73.0,0,40,10.0,0.0
12976,73.0,0,40,1.0,0.0
12977,61.0,0,40,11.0,0.0
12978,61.0,0,40,2.0,0.0
12979,85.0,204,40,0.0,0.0
12980,49.0,0,40,12.0,0.0
12981,85.0,0,40,7.0,0.0
12982,85.0,0,40,8.0,0.0
12983,74.0,0,180,1.0,0.0
12984,62.0,0,180,2.0,0.0
12985,50.0,0,180,12.0,0.0
12986,86.0,0,180,7.0,0.0
12987,86.0,0,180,0.0,0.0
12988,62.0,192,180,11.0,0.0
12989,62.0,0,180,3.0,0.0
12990,74.0,0,180,10.0,0.0
12991,86.0,0,180,8.0,0.0
12992,81.0,0,150,8.0,0.0
12993,45.0,0,150,5.0,0.0
12994,69.0,0,150,8.0,0.0
12995,81.0,0,150,7.0,0.0
12996,69.0,0,150,7.0,0.0
12997,69.0,0,150,1.0,0.0
12998,57.0,0,150,11.0,0.0
12999,69.0,84,150,10.0,0.0
13000,81.0,0,150,0.0,0.0
13001,69.0,0,150,4.0,0.0
13002,57.0,0,150,3.0,0.0
13003,45.0,0,150,12.0,0.0
13004,57.0,0,150,2.0,0.0
13005,57.0,0,40,2.0,0.0
13006,69.0,0,40,10.0,0.0
13007,45.0,0,40,12.0,0.0
13008,81.0,0,40,0.0,0.0
13009,69.0,0,40,8.0,0.0
13010,69.0,0,40,1.0,0.0
13011,57.0,0,40,11.0,0.0
13012,57.0,0,40,3.0,0.0
13013,45.0,0,40,5.0,0.0
13014,69.0,0,40,4.0,0.0
13015,81.0,0,40,7.0,0.0
13016,81.0,204,40,8.0,0.0
13017,69.0,0,40,7.0,0.0
13018,57.0,0,300,2.0,0.0
13019,45.0,0,180,5.0,0.0
13020,57.0,0,180,3.0,0.0
13021,69.0,0,300,10.0,0.0
13022,69.0,0,300,1.0,0.0
13023,45.0,0,300,12.0,0.0
13024,69.0,0,300,8.0,0.0
13025,81.0,0,300,8.0,0.0
13026,69.0,96,180,4.0,0.0
13027,81.0,0,300,0.0,0.0
13028,81.0,0,300,7.0,0.0
13029,57.0,120,300,11.0,0.0
13030,69.0,0,300,7.0,0.0
13031,71.0,0,40,10.0,0.0
13032,83.0,0,40,0.0,0.0
13033,59.0,0,40,2.0,0.0
13034,47.0,0,40,12.0,0.0
13035,59.0,0,40,11.0,0.0
13036,83.0,0,40,8.0,0.0
13037,83.0,0,40,7.0,0.0
13038,71.0,60,40,1.0,0.0
13039,85.0,0,40,7.0,0.0
13040,61.0,0,40,2.0,0.0
13041,85.0,0,40,0.0,0.0
13042,49.0,0,40,12.0,0.0
13043,85.0,0,40,8.0,0.0
13044,61.0,0,40,11.0,0.0
13045,73.0,204,40,10.0,0.0
13046,73.0,0,40,1.0,0.0
13047,62.0,0,180,2.0,0.0
13048,86.0,0,180,0.0,0.0
13049,74.0,0,180,4.0,0.0
13050,74.0,192,180,1.0,0.0
13051,78.0,0,180,4.0,0.0
13052,62.0,0,180,3.0,0.0
13053,66.0,0,180,3.0,0.0
13054,62.0,0,180,11.0,0.0
13055,50.0,0,180,5.0,0.0
13056,74.0,0,180,10.0,0.0
13057,50.0,0,180,12.0,0.0
13058,86.0,0,180,8.0,0.0
13059,86.0,0,180,7.0,0.0
13060,74.0,0,150,8.0,0.0
13061,74.0,0,150,7.0,0.0
13062,78.0,0,180,4.0,0.0
13063,74.0,0,150,0.0,0.0
13064,74.0,4,180,4.0,0.0
13065,74.0,0,150,1.0,0.0
13066,62.0,0,150,10.0,0.0
13067,62.0,0,150,3.0,0.0
13068,66.0,48,150,3.0,0.0
13069,50.0,0,150,11.0,0.0
13070,50.0,0,180,5.0,0.0
13071,50.0,0,150,2.0,0.0
13072,38.0,0,150,12.0,0.0
13073,62.0,8,40,3.0,0.0
13074,76.0,0,15,8.0,0.0
13075,76.0,20,15,1.0,0.0
13076,76.0,0,15,7.0,0.0
13077,64.0,0,15,10.0,0.0
13078,76.0,0,15,0.0,0.0
13079,40.0,0,15,12.0,0.0
13080,52.0,0,15,11.0,0.0
13081,52.0,0,15,2.0,0.0
13082,66.0,0,40,3.0,0.0
13083,78.0,0,15,0.0,0.0
13084,42.0,12,15,12.0,0.0
13085,66.0,0,15,10.0,0.0
13086,78.0,0,15,7.0,0.0
13087,78.0,0,15,1.0,0.0
13088,54.0,0,15,2.0,0.0
13089,54.0,0,15,11.0,0.0
13090,78.0,0,15,8.0,0.0
13091,43.0,0,15,12.0,0.0
13092,67.0,0,15,10.0,0.0
13093,55.0,0,15,2.0,0.0
13094,79.0,0,15,0.0,0.0
13095,79.0,0,15,1.0,0.0
13096,79.0,196,15,7.0,0.0
13097,79.0,0,15,8.0,0.0
13098,55.0,0,15,11.0,0.0
13099,64.0,0,180,3.0,0.0
13100,57.0,0,180,11.0,0.0
13101,81.0,0,180,8.0,0.0
13102,57.0,0,180,3.0,0.0
13103,45.0,0,180,5.0,0.0
13104,81.0,0,180,7.0,0.0
13105,57.0,0,180,2.0,0.0
13106,69.0,0,180,10.0,0.0
13107,45.0,0,180,12.0,0.0
13108,76.0,0,180,4.0,0.0
13109,69.0,0,180,4.0,0.0
13110,81.0,0,180,1.0,0.0
13111,81.0,192,180,0.0,0.0
13112,33.0,0,150,12.0,0.0
13113,76.0,12,180,4.0,0.0
13114,57.0,0,150,3.0,0.0
13115,64.0,0,150,3.0,0.0
13116,57.0,0,150,10.0,0.0
13117,45.0,0,150,2.0,0.0
13118,69.0,0,180,4.0,0.0
13119,45.0,0,180,5.0,0.0
13120,69.0,0,150,7.0,0.0
13121,69.0,0,150,1.0,0.0
13122,81.0,0,150,0.0,0.0
13123,45.0,0,150,11.0,0.0
13124,69.0,48,150,8.0,0.0
13125,83.0,0,20,0.0,0.0
13126,35.0,0,20,12.0,0.0
13127,47.0,0,20,11.0,0.0
13128,71.0,0,20,7.0,0.0
13129,47.0,0,20,2.0,0.0
13130,64.0,0,40,3.0,0.0
13131,71.0,0,20,1.0,0.0
13132,59.0,24,20,10.0,0.0
13133,57.0,6,40,3.0,0.0
13134,71.0,0,20,8.0,0.0
13135,49.0,0,20,2.0,0.0
13136,73.0,0,20,1.0,0.0
13137,73.0,0,20,7.0,0.0
13138,61.0,0,20,10.0,0.0
13139,37.0,0,20,12.0,0.0
13140,49.0,198,20,11.0,0.0
13141,85.0,0,20,0.0,0.0
13142,73.0,0,20,8.0,0.0
13143,86.0,0,180,0.0,0.0
13144,62.0,0,180,10.0,0.0
13145,62.0,0,180,3.0,0.0
13146,74.0,0,180,7.0,0.0
13147,74.0,0,180,8.0,0.0
13148,74.0,0,180,4.0,0.0
13149,38.0,0,180,12.0,0.0
13150,50.0,0,180,5.0,0.0
13151,50.0,0,180,2.0,0.0
13152,54.0,0,180,3.0,0.0
13153,66.0,192,180,4.0,0.0
13154,50.0,0,180,11.0,0.0
13155,74.0,0,180,1.0,0.0
13156,62.0,0,150,1.0,0.0
13157,50.0,0,150,5.0,0.0
13158,50.0,0,150,2.0,0.0
13159,38.0,0,150,12.0,0.0
13160,62.0,0,150,8.0,0.0
13161,50.0,0,150,11.0,0.0
13162,62.0,0,150,4.0,0.0
13163,62.0,0,150,10.0,0.0
13164,62.0,0,150,7.0,0.0
13165,50.0,84,150,3.0,0.0
13166,74.0,0,150,0.0,0.0
13167,62.0,0,40,4.0,0.0
13168,38.0,0,40,12.0,0.0
13169,62.0,204,40,10.0,0.0
13170,50.0,0,40,2.0,0.0
13171,62.0,0,40,8.0,0.0
13172,50.0,0,40,11.0,0.0
13173,62.0,0,40,7.0,0.0
13174,50.0,0,40,3.0,0.0
13175,74.0,0,40,0.0,0.0
13176,62.0,0,40,1.0,0.0
13177,50.0,0,40,5.0,0.0
13178,62.0,0,180,7.0,0.0
13179,74.0,0,180,0.0,0.0
13180,50.0,0,180,5.0,0.0
13181,50.0,0,180,3.0,0.0
13182,62.0,0,180,10.0,0.0
13183,50.0,0,180,11.0,0.0
13184,62.0,0,180,8.0,0.0
13185,50.0,0,180,2.0,0.0
13186,62.0,0,180,1.0,0.0
13187,38.0,0,180,12.0,0.0
13188,62.0,0,180,4.0,0.0
