,note,step,duration,channel,velocity
0,58.0,0,45,3.0,85.0
1,46.0,0,45,3.0,85.0
2,58.0,0,45,3.0,85.0
3,46.0,0,45,3.0,85.0
4,62.0,48,89,3.0,85.0
5,58.0,48,45,3.0,85.0
6,46.0,0,45,3.0,85.0
7,70.0,0,177,0.0,64.0
8,70.0,0,177,3.0,85.0
9,46.0,0,45,3.0,85.0
10,58.0,48,45,3.0,85.0
11,65.0,0,89,3.0,85.0
12,58.0,0,45,3.0,85.0
13,46.0,48,45,3.0,85.0
14,74.0,0,89,0.0,64.0
15,74.0,0,89,3.0,85.0
16,46.0,0,45,3.0,85.0
17,58.0,48,45,3.0,85.0
18,62.0,0,89,3.0,85.0
19,46.0,0,45,3.0,85.0
20,58.0,0,45,3.0,85.0
21,62.0,0,354,1.0,64.0
22,70.0,0,354,1.0,64.0
23,70.0,48,89,3.0,85.0
24,70.0,0,89,0.0,64.0
25,46.0,0,45,3.0,85.0
26,58.0,0,45,3.0,85.0
27,65.0,48,93,3.0,85.0
28,45.0,0,45,3.0,85.0
29,57.0,0,45,3.0,85.0
30,45.0,0,45,3.0,85.0
31,57.0,48,45,3.0,85.0
32,65.0,0,89,3.0,85.0
33,57.0,0,45,3.0,85.0
34,45.0,48,45,3.0,85.0
35,77.0,0,163,3.0,85.0
36,77.0,0,163,0.0,64.0
37,65.0,0,177,1.0,64.0
38,72.0,48,177,1.0,64.0
39,57.0,48,45,3.0,85.0
40,45.0,0,45,3.0,85.0
41,79.0,24,23,3.0,85.0
42,79.0,0,23,0.0,64.0
43,77.0,0,39,0.0,64.0
44,72.0,0,89,3.0,85.0
45,45.0,0,45,3.0,85.0
46,57.0,0,45,3.0,85.0
47,72.0,0,89,1.0,64.0
48,65.0,0,89,1.0,64.0
49,77.0,24,89,3.0,85.0
50,57.0,0,45,3.0,85.0
51,45.0,48,45,3.0,85.0
52,69.0,0,89,3.0,85.0
53,57.0,48,45,3.0,85.0
54,45.0,0,45,3.0,85.0
55,77.0,0,45,3.0,64.0
56,57.0,48,45,3.0,64.0
57,72.0,0,45,3.0,64.0
58,45.0,0,45,3.0,64.0
59,55.0,0,45,3.0,64.0
60,43.0,0,45,3.0,64.0
61,70.0,0,45,3.0,64.0
62,67.0,0,45,3.0,64.0
63,70.0,0,45,3.0,64.0
64,43.0,48,45,3.0,64.0
65,67.0,48,45,3.0,64.0
66,70.0,0,45,3.0,64.0
67,43.0,0,45,3.0,64.0
68,75.0,48,177,3.0,64.0
69,70.0,0,45,3.0,64.0
70,67.0,0,45,3.0,64.0
71,43.0,48,45,3.0,64.0
72,41.0,48,45,3.0,64.0
73,69.0,0,45,3.0,64.0
74,65.0,0,45,3.0,64.0
75,74.0,0,89,3.0,64.0
76,65.0,0,45,3.0,64.0
77,41.0,0,45,3.0,64.0
78,69.0,48,45,3.0,64.0
79,67.0,0,45,3.0,64.0
80,63.0,0,45,3.0,64.0
81,39.0,0,45,3.0,64.0
82,79.0,48,89,3.0,64.0
83,39.0,0,45,3.0,64.0
84,67.0,48,45,3.0,64.0
85,63.0,0,45,3.0,64.0
86,65.0,0,45,3.0,64.0
87,62.0,0,45,3.0,64.0
88,41.0,0,45,3.0,64.0
89,70.0,48,89,3.0,64.0
90,62.0,48,45,3.0,64.0
91,65.0,0,45,3.0,64.0
92,41.0,0,45,3.0,64.0
93,39.0,48,45,3.0,64.0
94,65.0,0,45,3.0,64.0
95,60.0,0,45,3.0,64.0
96,69.0,0,89,3.0,64.0
97,65.0,0,45,3.0,64.0
98,39.0,0,45,3.0,64.0
99,60.0,48,45,3.0,64.0
100,65.0,0,45,3.0,64.0
101,58.0,0,45,3.0,64.0
102,70.0,0,41,3.0,85.0
103,38.0,48,89,3.0,64.0
104,70.0,0,45,0.0,49.0
105,72.0,48,45,0.0,49.0
106,69.0,0,45,0.0,49.0
107,69.0,0,45,3.0,85.0
108,72.0,0,45,3.0,85.0
109,74.0,0,45,0.0,49.0
110,70.0,0,45,3.0,85.0
111,74.0,0,45,3.0,85.0
112,70.0,48,45,0.0,49.0
113,67.0,48,6,3.0,85.0
114,75.0,6,39,3.0,85.0
115,72.0,0,45,3.0,85.0
116,36.0,0,45,3.0,85.0
117,72.0,0,89,0.0,49.0
118,75.0,0,89,0.0,49.0
119,36.0,0,45,3.0,85.0
120,63.0,42,89,3.0,85.0
121,67.0,0,89,3.0,85.0
122,36.0,48,45,3.0,85.0
123,72.0,0,89,0.0,49.0
124,67.0,0,89,0.0,49.0
125,36.0,0,45,3.0,85.0
126,75.0,0,133,3.0,85.0
127,72.0,48,89,3.0,85.0
128,67.0,0,89,3.0,85.0
129,48.0,48,45,3.0,85.0
130,75.0,0,89,0.0,49.0
131,72.0,0,89,0.0,49.0
132,48.0,0,45,3.0,85.0
133,79.0,0,45,3.0,85.0
134,60.0,0,89,3.0,85.0
135,63.0,48,89,3.0,85.0
136,75.0,0,45,3.0,85.0
137,48.0,48,45,3.0,85.0
138,72.0,0,20,3.0,85.0
139,75.0,0,89,0.0,49.0
140,79.0,0,89,0.0,49.0
141,67.0,0,45,3.0,85.0
142,48.0,0,45,3.0,85.0
143,63.0,48,45,3.0,85.0
144,41.0,48,45,3.0,85.0
145,70.0,0,45,3.0,85.0
146,63.0,0,45,3.0,85.0
147,60.0,0,45,3.0,85.0
148,65.0,0,89,1.0,64.0
149,41.0,48,45,3.0,85.0
150,69.0,0,45,3.0,85.0
151,63.0,0,89,3.0,85.0
152,72.0,0,89,3.0,85.0
153,41.0,0,45,3.0,85.0
154,69.0,48,89,0.0,49.0
155,72.0,0,89,0.0,49.0
156,41.0,0,45,3.0,85.0
157,69.0,48,85,3.0,85.0
158,75.0,0,89,3.0,85.0
159,41.0,48,45,3.0,85.0
160,72.0,0,177,1.0,64.0
161,65.0,0,177,1.0,64.0
162,81.0,0,89,0.0,49.0
163,75.0,0,89,0.0,49.0
164,63.0,0,45,3.0,85.0
165,81.0,48,45,3.0,85.0
166,41.0,0,45,3.0,85.0
167,60.0,0,45,3.0,85.0
168,62.0,0,45,3.0,85.0
169,82.0,0,45,3.0,85.0
170,34.0,0,45,3.0,85.0
171,58.0,0,45,3.0,85.0
172,77.0,0,20,3.0,85.0
173,70.0,0,20,3.0,85.0
174,74.0,0,89,0.0,49.0
175,82.0,48,89,0.0,49.0
176,74.0,0,89,1.0,64.0
177,70.0,0,89,1.0,64.0
178,74.0,48,45,3.0,85.0
179,34.0,0,45,3.0,85.0
180,74.0,0,45,3.0,85.0
181,39.0,48,45,3.0,85.0
182,78.0,0,45,3.0,85.0
183,70.0,0,45,3.0,85.0
184,58.0,0,89,1.0,64.0
185,70.0,0,89,1.0,64.0
186,58.0,48,45,3.0,85.0
187,75.0,0,45,3.0,85.0
188,39.0,0,45,3.0,85.0
189,79.0,0,45,3.0,85.0
190,67.0,0,23,3.0,85.0
191,75.0,0,23,3.0,85.0
192,39.0,48,45,3.0,85.0
193,63.0,24,21,3.0,85.0
194,72.0,0,23,3.0,85.0
195,75.0,24,23,3.0,85.0
196,67.0,0,23,3.0,85.0
197,72.0,0,89,0.0,49.0
198,75.0,0,89,0.0,49.0
199,39.0,0,45,3.0,85.0
200,60.0,0,45,3.0,85.0
201,72.0,0,23,3.0,85.0
202,63.0,24,23,3.0,85.0
203,70.0,0,39,3.0,85.0
204,62.0,0,39,3.0,85.0
205,65.0,24,45,3.0,85.0
206,70.0,0,89,0.0,49.0
207,65.0,0,89,1.0,64.0
208,41.0,0,89,3.0,85.0
209,74.0,0,89,0.0,49.0
210,65.0,48,45,3.0,85.0
211,72.0,0,39,3.0,85.0
212,69.0,48,39,3.0,85.0
213,65.0,0,45,3.0,85.0
214,65.0,48,20,3.0,85.0
215,69.0,0,89,0.0,49.0
216,29.0,0,89,3.0,85.0
217,65.0,0,89,1.0,64.0
218,72.0,0,89,0.0,49.0
219,65.0,0,20,3.0,64.0
220,65.0,0,45,1.0,49.0
221,65.0,0,20,3.0,64.0
222,72.0,48,133,3.0,64.0
223,65.0,0,45,1.0,49.0
224,65.0,0,20,3.0,64.0
225,69.0,0,177,3.0,64.0
226,65.0,0,45,1.0,49.0
227,73.0,48,45,3.0,64.0
228,70.0,0,20,1.0,49.0
229,70.0,0,20,3.0,64.0
230,74.0,0,39,3.0,64.0
231,65.0,0,20,1.0,49.0
232,65.0,48,20,3.0,64.0
233,62.0,0,20,1.0,49.0
234,62.0,48,20,3.0,64.0
235,58.0,0,20,1.0,49.0
236,58.0,0,20,3.0,64.0
237,67.0,48,6,3.0,85.0
238,60.0,0,45,3.0,85.0
239,36.0,0,45,3.0,85.0
240,75.0,0,89,0.0,64.0
241,67.0,0,89,0.0,64.0
242,55.0,0,89,3.0,85.0
243,75.0,6,83,3.0,85.0
244,63.0,0,89,3.0,85.0
245,60.0,42,45,3.0,85.0
246,36.0,0,45,3.0,85.0
247,36.0,0,45,3.0,85.0
248,60.0,48,45,3.0,85.0
249,36.0,48,45,3.0,85.0
250,60.0,0,45,3.0,85.0
251,60.0,0,20,3.0,85.0
252,48.0,48,20,3.0,85.0
253,75.0,0,133,0.0,64.0
254,75.0,0,133,3.0,85.0
255,63.0,0,133,3.0,85.0
256,72.0,0,133,0.0,64.0
257,50.0,0,20,3.0,85.0
258,62.0,48,20,3.0,85.0
259,77.0,0,45,3.0,85.0
260,77.0,0,45,0.0,64.0
261,70.0,0,45,0.0,64.0
262,70.0,0,45,1.0,64.0
263,58.0,0,45,1.0,64.0
264,65.0,0,45,3.0,85.0
265,63.0,0,20,3.0,85.0
266,51.0,0,20,3.0,85.0
267,79.0,0,45,3.0,85.0
268,70.0,0,45,0.0,64.0
269,67.0,0,45,3.0,85.0
270,58.0,48,45,1.0,64.0
271,70.0,0,45,1.0,64.0
272,79.0,0,45,0.0,64.0
273,60.0,0,20,3.0,85.0
274,48.0,0,20,3.0,85.0
275,65.0,0,45,1.0,64.0
276,69.0,0,45,3.0,85.0
277,81.0,0,45,3.0,85.0
278,75.0,48,45,0.0,64.0
279,81.0,0,45,0.0,64.0
280,77.0,48,39,0.0,64.0
281,50.0,0,39,3.0,85.0
282,65.0,0,39,3.0,85.0
283,82.0,0,39,0.0,64.0
284,70.0,0,45,3.0,85.0
285,82.0,0,45,3.0,85.0
286,74.0,48,23,3.0,85.0
287,86.0,0,23,3.0,85.0
288,70.0,0,89,1.0,64.0
289,58.0,0,89,1.0,64.0
290,70.0,0,23,3.0,85.0
291,82.0,24,23,3.0,85.0
292,63.0,24,39,3.0,85.0
293,79.0,0,39,0.0,49.0
294,75.0,0,39,0.0,49.0
295,51.0,0,39,3.0,85.0
296,67.0,0,45,3.0,85.0
297,79.0,0,45,3.0,85.0
298,70.0,48,23,3.0,85.0
299,82.0,0,23,3.0,85.0
300,58.0,0,89,1.0,49.0
301,70.0,0,89,1.0,49.0
302,67.0,24,23,3.0,85.0
303,79.0,0,23,3.0,85.0
304,75.0,0,45,3.0,85.0
305,63.0,24,45,3.0,85.0
306,67.0,48,23,3.0,85.0
307,79.0,0,23,3.0,85.0
308,63.0,24,23,3.0,85.0
309,75.0,0,23,3.0,85.0
310,72.0,0,45,3.0,85.0
311,60.0,24,45,3.0,85.0
312,75.0,48,23,3.0,85.0
313,63.0,0,23,3.0,85.0
314,60.0,0,23,3.0,85.0
315,72.0,24,23,3.0,85.0
316,77.0,24,45,3.0,64.0
317,58.0,0,89,3.0,64.0
318,38.0,0,89,3.0,64.0
319,76.0,48,45,3.0,64.0
320,75.0,0,45,3.0,64.0
321,43.0,0,89,3.0,64.0
322,74.0,48,45,3.0,64.0
323,72.0,0,12,3.0,64.0
324,74.0,12,12,3.0,64.0
325,72.0,12,12,3.0,64.0
326,74.0,12,12,3.0,64.0
327,72.0,12,12,3.0,64.0
328,74.0,12,12,3.0,64.0
329,67.0,48,177,3.0,64.0
330,70.0,0,177,3.0,64.0
331,72.0,12,12,3.0,64.0
332,39.0,48,89,3.0,64.0
333,74.0,12,12,3.0,64.0
334,72.0,0,12,3.0,64.0
335,74.0,12,12,3.0,64.0
336,72.0,12,12,3.0,64.0
337,65.0,0,45,3.0,64.0
338,74.0,12,12,3.0,64.0
339,72.0,12,12,3.0,64.0
340,74.0,12,12,3.0,64.0
341,72.0,12,9,3.0,64.0
342,41.0,0,89,3.0,64.0
343,69.0,12,89,3.0,64.0
344,63.0,0,45,3.0,64.0
345,70.0,0,23,3.0,85.0
346,34.0,0,45,3.0,85.0
347,65.0,24,23,3.0,85.0
348,62.0,24,23,3.0,85.0
349,70.0,0,89,0.0,64.0
350,34.0,0,45,3.0,85.0
351,65.0,24,23,3.0,85.0
352,58.0,0,20,3.0,85.0
353,74.0,24,20,0.0,64.0
354,74.0,0,20,3.0,85.0
355,34.0,0,45,3.0,85.0
356,58.0,0,20,3.0,85.0
357,74.0,0,20,3.0,85.0
358,74.0,0,20,0.0,64.0
359,34.0,0,45,3.0,85.0
360,74.0,0,45,3.0,85.0
361,59.0,0,45,3.0,85.0
362,74.0,0,45,0.0,64.0
363,34.0,48,45,3.0,85.0
364,75.0,0,45,0.0,64.0
365,60.0,0,45,3.0,85.0
366,75.0,0,45,3.0,85.0
367,34.0,0,45,3.0,85.0
368,60.0,0,20,3.0,85.0
369,75.0,0,20,0.0,64.0
370,75.0,0,20,3.0,85.0
371,34.0,0,45,3.0,85.0
372,60.0,0,20,3.0,85.0
373,75.0,48,20,0.0,64.0
374,75.0,0,20,3.0,85.0
375,34.0,0,45,3.0,85.0
376,34.0,48,45,3.0,85.0
377,76.0,0,45,0.0,64.0
378,76.0,0,45,3.0,85.0
379,61.0,0,45,3.0,85.0
380,77.0,48,45,0.0,64.0
381,62.0,0,45,3.0,85.0
382,34.0,0,45,3.0,85.0
383,77.0,0,45,3.0,85.0
384,62.0,0,20,3.0,85.0
385,77.0,48,20,3.0,85.0
386,77.0,0,20,0.0,64.0
387,34.0,0,45,3.0,85.0
388,62.0,0,20,3.0,85.0
389,77.0,0,20,3.0,85.0
390,77.0,48,20,0.0,64.0
391,34.0,0,45,3.0,85.0
392,78.0,0,45,0.0,64.0
393,62.0,0,45,3.0,85.0
394,78.0,0,45,3.0,85.0
395,34.0,48,45,3.0,85.0
396,82.0,0,649,0.0,64.0
397,34.0,0,45,3.0,85.0
398,63.0,0,45,3.0,85.0
399,79.0,0,45,0.0,64.0
400,79.0,48,45,3.0,85.0
401,79.0,48,45,3.0,85.0
402,63.0,0,45,3.0,85.0
403,34.0,0,45,3.0,85.0
404,79.0,0,45,0.0,64.0
405,75.0,0,89,0.0,64.0
406,81.0,0,45,0.0,64.0
407,34.0,0,45,3.0,85.0
408,60.0,0,45,3.0,85.0
409,81.0,48,45,3.0,85.0
410,62.0,0,20,3.0,85.0
411,34.0,0,45,3.0,85.0
412,74.0,0,45,0.0,64.0
413,82.0,0,45,3.0,85.0
414,82.0,0,89,0.0,64.0
415,80.0,0,45,0.0,64.0
416,41.0,0,45,3.0,85.0
417,80.0,48,45,3.0,85.0
418,62.0,0,45,3.0,85.0
419,70.0,0,89,3.0,85.0
420,79.0,0,45,3.0,85.0
421,63.0,0,45,3.0,85.0
422,79.0,0,45,0.0,64.0
423,39.0,48,45,3.0,85.0
424,58.0,0,20,3.0,85.0
425,78.0,0,45,0.0,64.0
426,38.0,0,45,3.0,85.0
427,78.0,0,45,3.0,85.0
428,79.0,0,23,3.0,85.0
429,70.0,48,89,3.0,85.0
430,58.0,0,45,3.0,85.0
431,39.0,48,45,3.0,85.0
432,77.0,24,23,3.0,85.0
433,75.0,0,10,3.0,85.0
434,58.0,0,1033,1.0,64.0
435,70.0,0,1033,1.0,64.0
436,70.0,0,177,0.0,64.0
437,74.0,24,10,3.0,85.0
438,79.0,0,89,0.0,64.0
439,63.0,0,45,3.0,85.0
440,39.0,0,45,3.0,85.0
441,72.0,0,23,3.0,85.0
442,67.0,24,89,3.0,85.0
443,64.0,0,45,3.0,85.0
444,40.0,0,45,3.0,85.0
445,70.0,24,23,3.0,85.0
446,69.0,0,10,3.0,85.0
447,70.0,24,10,3.0,85.0
448,70.0,0,89,0.0,64.0
449,72.0,0,89,1.0,64.0
450,70.0,24,89,1.0,64.0
451,67.0,0,89,0.0,64.0
452,67.0,0,45,3.0,85.0
453,60.0,24,45,3.0,85.0
454,40.0,0,45,3.0,85.0
455,65.0,0,45,3.0,85.0
456,72.0,0,45,1.0,64.0
457,65.0,0,45,1.0,64.0
458,60.0,0,45,3.0,85.0
459,65.0,0,45,0.0,64.0
460,69.0,0,45,0.0,64.0
461,69.0,24,45,3.0,85.0
462,41.0,0,89,3.0,85.0
463,65.0,0,45,1.0,64.0
464,75.0,0,89,3.0,85.0
465,81.0,0,89,0.0,64.0
466,81.0,48,89,3.0,85.0
467,75.0,0,89,0.0,64.0
468,72.0,0,89,3.0,85.0
469,65.0,48,45,1.0,64.0
470,65.0,48,45,1.0,64.0
471,70.0,0,89,3.0,85.0
472,74.0,0,89,3.0,85.0
473,74.0,0,89,0.0,64.0
474,82.0,0,89,3.0,85.0
475,82.0,0,89,0.0,64.0
476,79.0,48,6,3.0,85.0
477,58.0,0,20,3.0,85.0
478,53.0,0,45,3.0,85.0
479,77.0,6,39,3.0,85.0
480,74.0,0,45,0.0,64.0
481,77.0,0,45,0.0,64.0
482,74.0,0,45,3.0,85.0
483,79.0,0,6,0.0,64.0
484,75.0,0,6,0.0,64.0
485,75.0,0,6,3.0,85.0
486,62.0,0,20,3.0,85.0
487,53.0,0,45,3.0,85.0
488,77.0,42,45,3.0,85.0
489,74.0,0,39,3.0,85.0
490,77.0,0,39,0.0,64.0
491,74.0,6,39,0.0,64.0
492,65.0,42,20,3.0,85.0
493,72.0,0,23,0.0,64.0
494,75.0,0,23,0.0,64.0
495,72.0,0,23,3.0,85.0
496,75.0,0,23,3.0,85.0
497,53.0,0,45,3.0,85.0
498,74.0,0,23,3.0,85.0
499,70.0,0,23,0.0,64.0
500,74.0,24,23,0.0,64.0
501,70.0,0,23,3.0,85.0
502,69.0,0,45,0.0,64.0
503,65.0,48,237,1.0,64.0
504,69.0,0,45,3.0,85.0
505,53.0,0,45,3.0,85.0
506,72.0,0,45,3.0,85.0
507,72.0,24,45,0.0,64.0
508,41.0,0,89,3.0,85.0
509,65.0,0,45,1.0,64.0
510,72.0,48,89,3.0,85.0
511,75.0,0,89,3.0,85.0
512,75.0,0,89,0.0,64.0
513,81.0,0,89,3.0,85.0
514,81.0,0,89,0.0,64.0
515,65.0,48,45,1.0,64.0
516,65.0,0,45,1.0,64.0
517,82.0,0,89,0.0,64.0
518,74.0,48,89,0.0,64.0
519,74.0,0,89,3.0,85.0
520,70.0,0,89,3.0,85.0
521,82.0,0,89,3.0,85.0
522,79.0,0,6,0.0,64.0
523,75.0,0,6,0.0,64.0
524,58.0,0,20,3.0,85.0
525,53.0,0,45,3.0,85.0
526,77.0,6,39,0.0,64.0
527,74.0,0,39,0.0,64.0
528,74.0,48,45,3.0,85.0
529,77.0,0,45,3.0,85.0
530,75.0,0,6,3.0,85.0
531,62.0,0,20,3.0,85.0
532,74.0,6,39,3.0,85.0
533,77.0,42,45,3.0,85.0
534,53.0,0,45,3.0,85.0
535,74.0,0,45,0.0,64.0
536,77.0,0,45,0.0,64.0
537,65.0,0,20,3.0,85.0
538,72.0,0,23,3.0,85.0
539,72.0,0,23,0.0,64.0
540,75.0,0,23,3.0,85.0
541,75.0,42,23,0.0,64.0
542,53.0,0,45,3.0,85.0
543,74.0,0,23,0.0,64.0
544,70.0,0,23,3.0,85.0
545,70.0,24,23,0.0,64.0
546,74.0,0,23,3.0,85.0
547,72.0,0,89,3.0,85.0
548,65.0,48,281,1.0,64.0
549,69.0,24,89,3.0,85.0
550,53.0,0,89,3.0,85.0
551,69.0,0,89,0.0,49.0
552,41.0,0,89,3.0,85.0
553,72.0,0,89,0.0,49.0
554,65.0,96,133,3.0,64.0
555,67.0,48,45,3.0,64.0
556,57.0,96,133,3.0,64.0
557,51.0,0,177,3.0,64.0
558,39.0,0,177,3.0,64.0
559,60.0,48,45,3.0,64.0
560,65.0,48,141,3.0,64.0
561,67.0,48,45,3.0,64.0
562,58.0,0,133,3.0,64.0
563,38.0,48,177,3.0,64.0
564,50.0,0,177,3.0,64.0
565,62.0,48,45,3.0,64.0
566,65.0,48,133,3.0,64.0
567,77.0,48,45,3.0,64.0
568,60.0,0,133,3.0,64.0
569,57.0,0,177,3.0,64.0
570,33.0,48,177,3.0,64.0
571,72.0,48,45,3.0,64.0
572,75.0,48,141,3.0,64.0
573,77.0,48,45,3.0,64.0
574,65.0,48,133,3.0,64.0
575,58.0,0,177,3.0,64.0
576,34.0,0,177,3.0,64.0
577,62.0,48,45,3.0,64.0
578,74.0,48,133,3.0,64.0
579,75.0,48,45,3.0,64.0
580,67.0,48,133,3.0,64.0
581,39.0,0,177,3.0,64.0
582,51.0,0,177,3.0,64.0
583,63.0,48,45,3.0,64.0
584,72.0,48,141,3.0,64.0
585,74.0,48,45,3.0,64.0
586,62.0,0,133,3.0,64.0
587,41.0,0,177,3.0,64.0
588,53.0,48,177,3.0,64.0
589,65.0,48,45,3.0,64.0
590,70.0,48,133,3.0,64.0
591,72.0,48,45,3.0,64.0
592,63.0,48,133,3.0,64.0
593,53.0,0,177,3.0,64.0
594,41.0,0,177,3.0,64.0
595,69.0,48,89,3.0,64.0
596,60.0,48,45,3.0,64.0
597,62.0,0,10,3.0,64.0
598,70.0,0,20,3.0,64.0
599,65.0,24,10,3.0,64.0
600,34.0,0,45,3.0,64.0
601,53.0,48,45,3.0,64.0
602,62.0,24,10,3.0,64.0
603,65.0,24,10,3.0,64.0
604,62.0,24,10,3.0,64.0
605,65.0,24,10,3.0,64.0
606,70.0,0,45,3.0,64.0
607,62.0,24,10,3.0,64.0
608,65.0,24,10,3.0,64.0
609,69.0,0,45,3.0,64.0
610,62.0,0,10,3.0,64.0
611,72.0,0,20,3.0,64.0
612,65.0,24,10,3.0,64.0
613,41.0,0,45,3.0,64.0
614,57.0,24,45,3.0,64.0
615,62.0,24,10,3.0,64.0
616,65.0,24,10,3.0,64.0
617,62.0,0,10,3.0,64.0
618,65.0,24,10,3.0,64.0
619,72.0,24,45,3.0,64.0
620,62.0,24,10,3.0,64.0
621,65.0,24,10,3.0,64.0
622,70.0,0,45,3.0,64.0
623,74.0,24,20,3.0,64.0
624,62.0,0,23,3.0,64.0
625,58.0,0,45,3.0,64.0
626,46.0,0,45,3.0,64.0
627,65.0,24,23,3.0,64.0
628,62.0,24,23,3.0,64.0
629,65.0,24,23,3.0,64.0
630,58.0,0,23,3.0,64.0
631,74.0,24,45,3.0,64.0
632,65.0,24,23,3.0,64.0
633,58.0,0,23,3.0,64.0
634,72.0,24,45,3.0,64.0
635,65.0,24,23,3.0,64.0
636,75.0,0,20,3.0,85.0
637,60.0,0,23,3.0,85.0
638,45.0,24,45,3.0,85.0
639,69.0,0,45,3.0,85.0
640,65.0,24,23,3.0,85.0
641,75.0,0,20,3.0,85.0
642,60.0,0,23,3.0,85.0
643,45.0,0,45,3.0,85.0
644,69.0,24,45,3.0,85.0
645,65.0,24,23,3.0,85.0
646,77.0,24,6,3.0,85.0
647,60.0,0,23,3.0,85.0
648,69.0,0,45,3.0,85.0
649,45.0,0,45,3.0,85.0
650,75.0,6,39,3.0,85.0
651,65.0,18,23,3.0,85.0
652,74.0,24,23,3.0,85.0
653,63.0,0,23,3.0,85.0
654,65.0,0,177,1.0,64.0
655,72.0,0,177,1.0,64.0
656,84.0,0,177,0.0,64.0
657,75.0,0,177,0.0,64.0
658,45.0,0,45,3.0,85.0
659,69.0,0,45,3.0,85.0
660,72.0,0,23,3.0,85.0
661,65.0,24,23,3.0,85.0
662,70.0,0,20,3.0,85.0
663,62.0,0,23,3.0,85.0
664,46.0,0,45,3.0,85.0
665,82.0,0,45,0.0,64.0
666,58.0,0,45,1.0,64.0
667,74.0,0,45,0.0,64.0
668,70.0,0,45,1.0,64.0
669,65.0,24,23,3.0,85.0
670,62.0,24,23,3.0,49.0
671,65.0,24,23,3.0,49.0
672,70.0,24,23,3.0,64.0
673,62.0,0,23,3.0,49.0
674,69.0,24,23,3.0,64.0
675,65.0,0,23,3.0,49.0
676,70.0,24,23,3.0,64.0
677,62.0,0,23,3.0,49.0
678,65.0,0,23,3.0,49.0
679,69.0,24,23,3.0,64.0
680,72.0,0,20,3.0,64.0
681,63.0,0,23,3.0,49.0
682,57.0,24,45,3.0,64.0
683,41.0,0,45,3.0,64.0
684,65.0,24,23,3.0,49.0
685,63.0,24,23,3.0,49.0
686,65.0,24,23,3.0,49.0
687,72.0,24,23,3.0,64.0
688,63.0,0,23,3.0,49.0
689,65.0,24,23,3.0,49.0
690,70.0,0,23,3.0,64.0
691,63.0,24,23,3.0,49.0
692,72.0,0,23,3.0,64.0
693,65.0,0,23,3.0,49.0
694,70.0,24,23,3.0,64.0
695,74.0,0,20,3.0,64.0
696,62.0,0,23,3.0,49.0
697,58.0,0,45,3.0,64.0
698,34.0,24,45,3.0,64.0
699,65.0,24,23,3.0,49.0
700,62.0,24,23,3.0,49.0
701,65.0,24,23,3.0,49.0
702,74.0,24,23,3.0,64.0
703,58.0,0,23,3.0,49.0
704,72.0,24,23,3.0,64.0
705,65.0,0,23,3.0,49.0
706,74.0,24,23,3.0,64.0
707,58.0,0,23,3.0,49.0
708,65.0,0,23,3.0,49.0
709,72.0,24,23,3.0,64.0
710,60.0,0,23,3.0,85.0
711,45.0,0,45,3.0,85.0
712,69.0,0,45,3.0,85.0
713,75.0,24,45,3.0,85.0
714,65.0,24,23,3.0,85.0
715,60.0,0,23,3.0,85.0
716,45.0,0,45,3.0,85.0
717,75.0,24,45,3.0,85.0
718,69.0,0,45,3.0,85.0
719,65.0,24,23,3.0,85.0
720,77.0,24,6,3.0,85.0
721,60.0,0,23,3.0,85.0
722,75.0,6,39,3.0,85.0
723,45.0,0,45,3.0,85.0
724,69.0,0,45,3.0,85.0
725,65.0,18,23,3.0,85.0
726,63.0,24,23,3.0,85.0
727,74.0,0,23,3.0,85.0
728,45.0,0,45,3.0,85.0
729,69.0,0,45,3.0,85.0
730,72.0,0,23,3.0,85.0
731,65.0,24,23,3.0,85.0
732,72.0,0,192,1.0,64.0
733,84.0,0,192,0.0,64.0
734,75.0,0,192,0.0,64.0
735,65.0,0,192,1.0,64.0
736,46.0,0,45,3.0,85.0
737,70.0,0,45,3.0,85.0
738,82.0,0,45,0.0,64.0
739,74.0,24,45,0.0,64.0
740,58.0,0,45,1.0,64.0
741,62.0,0,45,3.0,85.0
742,70.0,0,45,1.0,64.0
743,70.0,96,45,3.0,64.0
744,82.0,0,45,3.0,64.0
745,80.0,48,45,3.0,64.0
746,68.0,0,45,3.0,64.0
747,78.0,0,45,3.0,64.0
748,66.0,48,45,3.0,64.0
749,67.0,0,45,3.0,64.0
750,79.0,48,45,3.0,64.0
751,64.0,48,45,3.0,64.0
752,76.0,0,45,3.0,64.0
753,77.0,48,45,3.0,64.0
754,65.0,0,45,3.0,64.0
755,74.0,0,45,3.0,64.0
756,62.0,48,45,3.0,64.0
757,75.0,48,45,3.0,64.0
758,63.0,0,45,3.0,64.0
759,61.0,48,45,3.0,64.0
760,73.0,0,45,3.0,64.0
761,62.0,48,45,3.0,64.0
762,74.0,0,45,3.0,64.0
763,62.0,0,45,3.0,85.0
764,41.0,48,45,3.0,85.0
765,80.0,0,45,0.0,64.0
766,68.0,0,45,3.0,85.0
767,83.0,0,45,0.0,64.0
768,71.0,0,45,3.0,85.0
769,39.0,0,45,3.0,64.0
770,79.0,0,45,0.0,49.0
771,63.0,0,45,3.0,64.0
772,67.0,0,45,3.0,64.0
773,73.0,48,45,3.0,64.0
774,84.0,0,45,0.0,49.0
775,78.0,48,45,3.0,64.0
776,79.0,48,45,3.0,64.0
777,60.0,48,45,3.0,85.0
778,69.0,0,45,3.0,85.0
779,39.0,0,45,3.0,85.0
780,78.0,0,45,0.0,64.0
781,81.0,0,45,0.0,64.0
782,66.0,0,45,3.0,85.0
783,77.0,0,45,0.0,49.0
784,65.0,0,45,3.0,64.0
785,82.0,48,45,0.0,49.0
786,62.0,0,45,3.0,64.0
787,70.0,0,45,3.0,64.0
788,38.0,0,45,3.0,64.0
789,76.0,48,45,3.0,64.0
790,77.0,48,45,3.0,64.0
791,70.0,0,39,1.0,64.0
792,70.0,0,39,0.0,64.0
793,58.0,0,39,1.0,64.0
794,82.0,0,39,0.0,64.0
795,82.0,0,67,3.0,85.0
796,70.0,0,67,3.0,85.0
797,46.0,0,67,3.0,85.0
798,70.0,0,23,3.0,85.0
799,46.0,0,23,3.0,85.0
800,82.0,72,23,3.0,85.0
801,74.0,0,39,0.0,64.0
802,62.0,0,39,1.0,64.0
803,74.0,0,39,1.0,64.0
804,86.0,0,39,0.0,64.0
805,86.0,0,67,3.0,85.0
806,74.0,0,67,3.0,85.0
807,50.0,0,67,3.0,85.0
808,74.0,0,23,3.0,85.0
809,86.0,0,23,3.0,85.0
810,50.0,0,23,3.0,85.0
811,77.0,0,89,3.0,85.0
812,53.0,0,89,3.0,85.0
813,77.0,0,89,0.0,64.0
814,77.0,24,89,1.0,64.0
815,65.0,0,89,1.0,64.0
816,65.0,0,89,3.0,85.0
817,74.0,96,67,1.0,64.0
818,74.0,0,67,0.0,64.0
819,74.0,0,67,3.0,85.0
820,62.0,0,67,1.0,64.0
821,50.0,0,67,3.0,85.0
822,62.0,0,67,3.0,85.0
823,58.0,0,23,3.0,85.0
824,70.0,0,23,3.0,85.0
825,58.0,0,23,1.0,64.0
826,70.0,0,23,1.0,64.0
827,46.0,0,23,3.0,85.0
828,70.0,0,23,0.0,64.0
829,65.0,0,89,3.0,85.0
830,53.0,0,89,3.0,85.0
831,77.0,0,89,0.0,64.0
832,65.0,0,89,1.0,64.0
833,77.0,0,89,3.0,85.0
834,77.0,0,89,1.0,64.0
835,65.0,96,89,1.0,64.0
836,65.0,0,89,0.0,64.0
837,41.0,0,89,3.0,85.0
838,53.0,0,89,3.0,85.0
839,65.0,0,89,3.0,85.0
840,53.0,0,89,1.0,64.0
841,46.0,0,89,3.0,85.0
842,70.0,0,89,3.0,85.0
843,62.0,0,89,3.0,85.0
844,58.0,0,89,1.0,64.0
845,58.0,0,89,3.0,85.0
846,70.0,0,89,0.0,64.0
847,70.0,0,89,1.0,64.0
848,70.0,96,133,3.0,85.0
849,62.0,0,133,3.0,85.0
850,69.0,0,10,3.0,64.0
851,60.0,48,10,3.0,64.0
852,70.0,0,10,3.0,64.0
853,62.0,24,10,3.0,64.0
854,63.0,24,10,3.0,64.0
855,72.0,0,23,3.0,64.0
856,60.0,0,10,3.0,64.0
857,69.0,24,23,3.0,64.0
858,63.0,24,10,3.0,64.0
859,72.0,0,10,3.0,64.0
860,65.0,0,177,1.0,64.0
861,41.0,0,177,3.0,85.0
862,65.0,96,177,3.0,85.0
863,69.0,0,10,3.0,64.0
864,60.0,24,10,3.0,64.0
865,69.0,0,89,0.0,49.0
866,75.0,0,89,0.0,49.0
867,70.0,0,89,1.0,49.0
868,58.0,0,89,3.0,64.0
869,74.0,0,89,0.0,49.0
870,70.0,24,89,3.0,64.0
871,70.0,0,89,0.0,49.0
872,62.0,0,89,1.0,49.0
873,36.0,0,89,3.0,64.0
874,62.0,0,89,3.0,64.0
875,74.0,96,133,3.0,85.0
876,65.0,0,37,3.0,85.0
877,62.0,0,133,3.0,85.0
878,69.0,0,10,3.0,64.0
879,72.0,48,10,3.0,64.0
880,74.0,0,10,3.0,64.0
881,70.0,24,10,3.0,64.0
882,72.0,24,10,3.0,64.0
883,75.0,0,23,3.0,64.0
884,69.0,0,10,3.0,64.0
885,72.0,24,23,3.0,64.0
886,75.0,0,10,3.0,64.0
887,72.0,24,10,3.0,64.0
888,43.0,0,177,3.0,85.0
889,65.0,0,177,1.0,64.0
890,72.0,24,10,3.0,64.0
891,69.0,0,10,3.0,64.0
892,81.0,0,89,0.0,49.0
893,75.0,0,89,0.0,49.0
894,46.0,0,39,3.0,64.0
895,70.0,0,39,3.0,64.0
896,70.0,0,89,1.0,49.0
897,74.0,0,89,0.0,49.0
898,82.0,0,89,0.0,49.0
899,65.0,0,39,3.0,85.0
900,74.0,0,39,3.0,85.0
901,74.0,0,39,0.0,64.0
902,65.0,0,39,1.0,64.0
903,41.0,0,39,3.0,85.0
904,77.0,0,39,0.0,64.0
905,77.0,0,89,3.0,85.0
906,70.0,96,89,3.0,85.0
907,38.0,0,39,3.0,85.0
908,62.0,0,39,1.0,64.0
909,62.0,0,39,3.0,85.0
910,77.0,0,39,0.0,64.0
911,74.0,0,39,3.0,85.0
912,77.0,0,39,3.0,85.0
913,82.0,0,39,3.0,85.0
914,70.0,0,39,3.0,85.0
915,82.0,0,39,0.0,64.0
916,34.0,0,39,3.0,85.0
917,58.0,0,39,1.0,64.0
918,74.0,0,39,3.0,85.0
919,82.0,0,39,3.0,85.0
920,77.0,0,39,3.0,85.0
921,86.0,0,39,3.0,85.0
922,58.0,0,39,3.0,85.0
923,86.0,96,39,0.0,64.0
924,82.0,0,39,0.0,64.0
925,58.0,0,10,3.0,64.0
926,65.0,24,10,3.0,64.0
927,46.0,0,45,3.0,64.0
928,58.0,24,10,3.0,64.0
929,65.0,24,10,3.0,64.0
930,67.0,0,89,3.0,64.0
931,62.0,0,89,3.0,64.0
932,74.0,96,89,0.0,49.0
933,57.0,24,10,3.0,64.0
934,69.0,0,23,3.0,64.0
935,65.0,24,10,3.0,64.0
936,77.0,0,89,0.0,49.0
937,65.0,0,45,1.0,49.0
938,72.0,0,45,1.0,49.0
939,41.0,0,45,3.0,64.0
940,72.0,0,23,3.0,64.0
941,57.0,0,10,3.0,64.0
942,70.0,24,23,3.0,64.0
943,65.0,24,10,3.0,64.0
944,63.0,0,89,3.0,64.0
945,75.0,0,89,0.0,49.0
946,81.0,0,45,0.0,49.0
947,69.0,0,23,3.0,64.0
948,58.0,0,10,3.0,64.0
949,65.0,24,10,3.0,64.0
950,46.0,0,45,3.0,64.0
951,70.0,0,45,1.0,49.0
952,82.0,0,45,0.0,49.0
953,74.0,0,45,1.0,49.0
954,58.0,0,10,3.0,64.0
955,65.0,24,10,3.0,64.0
956,67.0,0,89,3.0,64.0
957,74.0,24,89,0.0,49.0
958,62.0,0,89,3.0,64.0
959,57.0,24,10,3.0,64.0
960,69.0,0,23,3.0,64.0
961,65.0,24,10,3.0,64.0
962,77.0,24,89,0.0,49.0
963,65.0,0,45,1.0,49.0
964,72.0,0,45,1.0,49.0
965,41.0,0,45,3.0,64.0
966,72.0,0,23,3.0,64.0
967,57.0,24,10,3.0,64.0
968,70.0,0,23,3.0,64.0
969,65.0,24,10,3.0,64.0
970,75.0,0,89,0.0,49.0
971,63.0,0,89,3.0,64.0
972,81.0,0,45,0.0,49.0
973,69.0,0,23,3.0,64.0
974,58.0,24,10,3.0,64.0
975,70.0,0,20,3.0,64.0
976,65.0,24,10,3.0,64.0
977,46.0,0,45,3.0,64.0
978,62.0,0,45,1.0,49.0
979,82.0,0,45,0.0,49.0
980,70.0,0,45,1.0,49.0
981,58.0,0,10,3.0,64.0
982,70.0,0,20,3.0,64.0
983,65.0,24,10,3.0,64.0
984,62.0,0,89,3.0,64.0
985,74.0,0,89,0.0,49.0
986,57.0,0,10,3.0,64.0
987,72.0,24,23,3.0,64.0
988,65.0,0,10,3.0,64.0
989,77.0,24,89,0.0,49.0
990,72.0,0,45,1.0,49.0
991,41.0,0,45,3.0,64.0
992,65.0,0,45,1.0,49.0
993,75.0,24,23,3.0,64.0
994,57.0,0,10,3.0,64.0
995,74.0,24,23,3.0,64.0
996,65.0,24,10,3.0,64.0
997,63.0,0,89,3.0,64.0
998,75.0,0,89,0.0,49.0
999,81.0,0,45,0.0,49.0
1000,72.0,0,23,3.0,64.0
1001,62.0,0,45,1.0,49.0
1002,70.0,0,45,1.0,49.0
1003,58.0,0,89,3.0,64.0
1004,74.0,0,89,0.0,49.0
1005,62.0,0,89,3.0,64.0
1006,82.0,0,89,0.0,49.0
1007,34.0,0,89,3.0,64.0
1008,70.0,24,89,3.0,64.0
1009,58.0,0,23,2.0,64.0
1010,65.0,24,23,2.0,64.0
1011,62.0,24,23,2.0,64.0
1012,65.0,24,23,2.0,64.0
1013,58.0,24,23,2.0,64.0
1014,65.0,24,23,2.0,64.0
1015,62.0,24,23,2.0,64.0
1016,70.0,192,177,2.0,85.0
1017,65.0,24,23,2.0,64.0
1018,58.0,24,23,2.0,64.0
1019,65.0,24,23,2.0,64.0
1020,62.0,24,23,2.0,64.0
1021,74.0,0,89,2.0,85.0
1022,65.0,24,23,2.0,64.0
1023,58.0,24,23,2.0,64.0
1024,65.0,24,23,2.0,64.0
1025,62.0,24,23,2.0,64.0
1026,70.0,0,89,2.0,85.0
1027,65.0,24,23,2.0,64.0
1028,57.0,24,23,2.0,64.0
1029,65.0,24,23,2.0,64.0
1030,60.0,24,23,2.0,64.0
1031,65.0,24,23,2.0,64.0
1032,57.0,24,23,2.0,64.0
1033,65.0,24,23,2.0,64.0
1034,77.0,0,163,2.0,85.0
1035,60.0,24,23,2.0,64.0
1036,65.0,0,23,2.0,64.0
1037,79.0,24,23,2.0,85.0
1038,57.0,24,23,2.0,64.0
1039,65.0,24,23,2.0,64.0
1040,60.0,24,23,2.0,64.0
1041,77.0,0,89,2.0,85.0
1042,65.0,24,23,2.0,64.0
1043,57.0,24,23,2.0,64.0
1044,65.0,24,23,2.0,64.0
1045,60.0,0,23,2.0,64.0
1046,77.0,24,45,2.0,85.0
1047,65.0,24,23,2.0,64.0
1048,55.0,0,23,2.0,64.0
1049,63.0,24,23,2.0,64.0
1050,58.0,24,23,2.0,64.0
1051,63.0,24,23,2.0,64.0
1052,55.0,24,23,2.0,64.0
1053,63.0,24,23,2.0,64.0
1054,58.0,24,23,2.0,64.0
1055,75.0,24,177,2.0,85.0
1056,63.0,24,23,2.0,64.0
1057,53.0,24,23,2.0,64.0
1058,62.0,24,23,2.0,64.0
1059,57.0,24,23,2.0,64.0
1060,74.0,0,89,2.0,85.0
1061,62.0,24,23,2.0,64.0
1062,51.0,24,23,2.0,64.0
1063,79.0,0,39,2.0,85.0
1064,60.0,24,23,2.0,64.0
1065,55.0,24,23,2.0,64.0
1066,60.0,24,23,2.0,64.0
1067,53.0,24,23,2.0,64.0
1068,62.0,24,23,2.0,64.0
1069,58.0,24,23,2.0,64.0
1070,74.0,0,89,2.0,85.0
1071,62.0,24,23,2.0,64.0
1072,72.0,0,12,2.0,85.0
1073,51.0,24,23,2.0,64.0
1074,74.0,12,12,2.0,85.0
1075,72.0,0,12,2.0,85.0
1076,60.0,12,23,2.0,64.0
1077,74.0,12,12,2.0,85.0
1078,72.0,0,12,2.0,85.0
1079,53.0,12,23,2.0,64.0
1080,74.0,12,12,2.0,85.0
1081,72.0,0,12,2.0,85.0
1082,74.0,12,5,2.0,85.0
1083,60.0,12,23,2.0,64.0
1084,70.0,12,20,2.0,85.0
1085,50.0,0,89,2.0,64.0
1086,70.0,48,45,2.0,85.0
1087,70.0,0,45,3.0,49.0
1088,72.0,48,45,2.0,85.0
1089,69.0,0,45,3.0,49.0
1090,72.0,0,45,3.0,49.0
1091,70.0,48,45,3.0,49.0
1092,74.0,0,45,2.0,85.0
1093,74.0,0,45,3.0,49.0
1094,72.0,0,6,2.0,85.0
1095,48.0,48,23,2.0,64.0
1096,75.0,0,45,3.0,49.0
1097,72.0,0,45,3.0,49.0
1098,60.0,18,23,2.0,64.0
1099,59.0,24,23,2.0,64.0
1100,75.0,6,83,2.0,85.0
1101,67.0,0,89,3.0,49.0
1102,36.0,0,89,3.0,49.0
1103,60.0,24,23,2.0,64.0
1104,62.0,0,23,2.0,64.0
1105,67.0,0,45,3.0,49.0
1106,63.0,0,45,3.0,49.0
1107,60.0,24,23,2.0,64.0
1108,59.0,24,23,2.0,64.0
1109,60.0,24,23,2.0,64.0
1110,48.0,0,23,2.0,64.0
1111,75.0,24,133,2.0,85.0
1112,67.0,24,45,3.0,49.0
1113,72.0,0,45,3.0,49.0
1114,60.0,24,23,2.0,64.0
1115,59.0,0,23,2.0,64.0
1116,63.0,0,89,3.0,49.0
1117,39.0,0,89,3.0,49.0
1118,79.0,24,45,2.0,85.0
1119,60.0,24,23,2.0,64.0
1120,62.0,24,23,2.0,64.0
1121,75.0,0,45,2.0,85.0
1122,79.0,0,45,3.0,49.0
1123,72.0,0,45,3.0,49.0
1124,60.0,24,23,2.0,64.0
1125,59.0,24,23,2.0,64.0
1126,72.0,0,45,2.0,85.0
1127,60.0,24,23,2.0,64.0
1128,70.0,0,23,2.0,85.0
1129,41.0,0,45,3.0,49.0
1130,53.0,24,45,2.0,64.0
1131,69.0,24,23,2.0,85.0
1132,74.0,24,23,2.0,85.0
1133,57.0,0,45,2.0,64.0
1134,72.0,24,23,2.0,85.0
1135,70.0,24,23,2.0,85.0
1136,69.0,0,89,3.0,49.0
1137,60.0,0,89,3.0,49.0
1138,65.0,0,89,3.0,49.0
1139,39.0,0,45,3.0,49.0
1140,51.0,0,45,2.0,64.0
1141,69.0,24,23,2.0,85.0
1142,67.0,0,23,2.0,85.0
1143,65.0,0,45,3.0,49.0
1144,69.0,0,45,3.0,49.0
1145,60.0,24,45,3.0,49.0
1146,60.0,0,45,2.0,64.0
1147,65.0,24,23,2.0,85.0
1148,70.0,0,23,2.0,85.0
1149,50.0,24,45,2.0,64.0
1150,72.0,24,23,2.0,85.0
1151,74.0,0,23,2.0,85.0
1152,38.0,0,89,3.0,49.0
1153,53.0,24,45,2.0,64.0
1154,75.0,24,23,2.0,85.0
1155,77.0,0,23,2.0,85.0
1156,62.0,0,89,3.0,49.0
1157,70.0,0,89,3.0,49.0
1158,65.0,0,89,3.0,49.0
1159,58.0,24,45,2.0,64.0
1160,79.0,24,23,2.0,85.0
1161,81.0,0,23,2.0,85.0
1162,62.0,0,45,3.0,49.0
1163,65.0,0,45,3.0,49.0
1164,70.0,24,45,3.0,49.0
1165,50.0,0,45,2.0,64.0
1166,82.0,24,23,2.0,85.0
1167,78.0,0,23,2.0,85.0
1168,51.0,24,45,2.0,64.0
1169,79.0,24,23,2.0,85.0
1170,74.0,0,23,2.0,85.0
1171,39.0,0,89,3.0,49.0
1172,72.0,24,45,3.0,85.0
1173,55.0,0,45,2.0,64.0
1174,63.0,0,45,3.0,85.0
1175,75.0,24,23,2.0,85.0
1176,71.0,24,23,2.0,85.0
1177,55.0,0,89,3.0,49.0
1178,75.0,0,45,3.0,49.0
1179,60.0,0,45,2.0,64.0
1180,67.0,0,45,3.0,49.0
1181,72.0,24,23,2.0,85.0
1182,75.0,0,23,2.0,85.0
1183,63.0,24,45,3.0,49.0
1184,67.0,0,45,3.0,49.0
1185,72.0,0,45,3.0,49.0
1186,51.0,0,45,2.0,64.0
1187,72.0,24,23,2.0,85.0
1188,62.0,24,39,3.0,49.0
1189,70.0,0,39,3.0,49.0
1190,53.0,0,45,2.0,64.0
1191,70.0,0,89,2.0,85.0
1192,65.0,0,89,3.0,49.0
1193,41.0,0,89,3.0,49.0
1194,62.0,48,45,2.0,64.0
1195,69.0,0,39,3.0,49.0
1196,72.0,48,39,3.0,49.0
1197,53.0,0,45,2.0,64.0
1198,72.0,0,89,2.0,85.0
1199,53.0,0,89,3.0,49.0
1200,57.0,48,45,2.0,64.0
1201,65.0,0,20,2.0,64.0
1202,65.0,0,20,3.0,49.0
1203,65.0,0,20,3.0,49.0
1204,65.0,48,20,2.0,64.0
1205,72.0,0,133,2.0,85.0
1206,65.0,0,20,2.0,64.0
1207,65.0,0,20,3.0,49.0
1208,69.0,48,177,2.0,64.0
1209,73.0,48,45,2.0,85.0
1210,70.0,0,20,3.0,49.0
1211,70.0,0,20,2.0,64.0
1212,65.0,0,20,2.0,64.0
1213,65.0,0,20,3.0,49.0
1214,74.0,0,89,2.0,85.0
1215,62.0,0,20,3.0,49.0
1216,62.0,48,20,2.0,64.0
1217,58.0,0,20,3.0,49.0
1218,58.0,0,20,2.0,64.0
1219,72.0,0,6,2.0,85.0
1220,75.0,0,20,3.0,49.0
1221,67.0,0,20,3.0,49.0
1222,48.0,48,23,2.0,64.0
1223,60.0,18,23,2.0,64.0
1224,59.0,24,23,2.0,64.0
1225,36.0,0,89,3.0,49.0
1226,60.0,0,89,3.0,49.0
1227,75.0,6,83,2.0,85.0
1228,60.0,24,23,2.0,64.0
1229,63.0,0,20,3.0,49.0
1230,67.0,24,20,3.0,49.0
1231,62.0,0,23,2.0,64.0
1232,60.0,24,23,2.0,64.0
1233,59.0,24,23,2.0,64.0
1234,60.0,24,23,2.0,64.0
1235,67.0,0,20,3.0,49.0
1236,72.0,0,20,3.0,49.0
1237,51.0,24,23,2.0,64.0
1238,75.0,0,133,2.0,85.0
1239,60.0,24,23,2.0,64.0
1240,59.0,0,23,2.0,64.0
1241,39.0,0,89,3.0,49.0
1242,63.0,0,89,3.0,49.0
1243,79.0,24,45,2.0,85.0
1244,60.0,24,23,2.0,64.0
1245,75.0,24,20,3.0,49.0
1246,79.0,0,20,3.0,49.0
1247,77.0,0,23,2.0,85.0
1248,62.0,0,23,2.0,64.0
1249,75.0,0,23,2.0,85.0
1250,60.0,24,23,2.0,64.0
1251,74.0,24,10,2.0,85.0
1252,59.0,0,23,2.0,64.0
1253,72.0,24,10,2.0,85.0
1254,60.0,0,23,2.0,64.0
1255,70.0,0,23,2.0,85.0
1256,53.0,24,45,2.0,64.0
1257,41.0,0,45,3.0,49.0
1258,69.0,24,23,2.0,85.0
1259,86.0,24,23,2.0,85.0
1260,57.0,0,45,2.0,64.0
1261,84.0,24,23,2.0,85.0
1262,82.0,24,23,2.0,85.0
1263,65.0,0,89,3.0,49.0
1264,69.0,0,89,3.0,49.0
1265,60.0,0,89,3.0,49.0
1266,51.0,0,45,2.0,64.0
1267,39.0,0,45,3.0,49.0
1268,81.0,24,23,2.0,85.0
1269,79.0,0,23,2.0,85.0
1270,69.0,0,45,3.0,49.0
1271,60.0,0,45,2.0,64.0
1272,60.0,0,45,3.0,49.0
1273,65.0,24,45,3.0,49.0
1274,77.0,24,23,2.0,85.0
1275,81.0,0,23,2.0,85.0
1276,50.0,0,45,2.0,64.0
1277,82.0,24,23,2.0,85.0
1278,84.0,0,23,2.0,85.0
1279,38.0,24,89,3.0,49.0
1280,58.0,0,45,2.0,64.0
1281,65.0,24,45,3.0,49.0
1282,82.0,24,23,2.0,85.0
1283,81.0,24,23,2.0,85.0
1284,70.0,0,89,3.0,49.0
1285,62.0,0,89,3.0,49.0
1286,55.0,0,45,2.0,64.0
1287,67.0,0,45,3.0,49.0
1288,79.0,24,23,2.0,85.0
1289,77.0,0,23,2.0,85.0
1290,43.0,0,89,3.0,49.0
1291,55.0,0,45,3.0,49.0
1292,58.0,24,45,2.0,64.0
1293,63.0,0,45,3.0,49.0
1294,75.0,24,23,2.0,85.0
1295,74.0,24,23,2.0,85.0
1296,70.0,0,93,3.0,49.0
1297,65.0,0,45,3.0,49.0
1298,41.0,0,45,3.0,49.0
1299,53.0,0,45,3.0,49.0
1300,53.0,0,45,2.0,64.0
1301,75.0,24,23,2.0,85.0
1302,77.0,0,23,2.0,85.0
1303,62.0,0,45,2.0,64.0
1304,79.0,24,23,2.0,85.0
1305,77.0,0,23,2.0,85.0
1306,70.0,0,89,3.0,49.0
1307,74.0,24,89,3.0,49.0
1308,58.0,0,45,2.0,64.0
1309,65.0,0,45,3.0,49.0
1310,41.0,24,45,3.0,49.0
1311,79.0,24,23,2.0,85.0
1312,81.0,0,23,2.0,85.0
1313,74.0,0,45,3.0,49.0
1314,62.0,24,45,2.0,64.0
1315,77.0,0,45,3.0,49.0
1316,82.0,24,23,2.0,85.0
1317,72.0,0,12,2.0,85.0
1318,74.0,12,12,2.0,85.0
1319,72.0,12,12,2.0,85.0
1320,53.0,0,45,2.0,64.0
1321,41.0,0,45,3.0,49.0
1322,75.0,0,45,3.0,49.0
1323,72.0,24,45,3.0,49.0
1324,65.0,0,45,3.0,49.0
1325,74.0,12,12,2.0,85.0
1326,72.0,0,12,2.0,85.0
1327,74.0,12,12,2.0,85.0
1328,72.0,12,12,2.0,85.0
1329,63.0,0,45,2.0,64.0
1330,74.0,12,12,2.0,85.0
1331,72.0,0,12,2.0,85.0
1332,74.0,12,12,2.0,85.0
1333,72.0,12,12,2.0,85.0
1334,63.0,0,89,3.0,49.0
1335,72.0,12,89,3.0,49.0
1336,41.0,0,45,3.0,49.0
1337,57.0,12,45,2.0,64.0
1338,65.0,0,45,3.0,49.0
1339,74.0,12,12,2.0,85.0
1340,72.0,0,12,2.0,85.0
1341,74.0,12,12,2.0,85.0
1342,72.0,12,9,2.0,85.0
1343,63.0,0,45,2.0,64.0
1344,60.0,12,45,3.0,49.0
1345,69.0,0,45,3.0,49.0
1346,62.0,0,89,3.0,49.0
1347,62.0,0,89,2.0,64.0
1348,70.0,0,89,2.0,85.0
1349,70.0,24,89,3.0,49.0
1350,46.0,0,89,3.0,49.0
1351,58.0,0,89,2.0,64.0
1352,65.0,0,89,3.0,49.0
1353,70.0,96,133,3.0,85.0
1354,62.0,0,133,3.0,85.0
1355,69.0,48,10,3.0,49.0
1356,60.0,0,10,3.0,49.0
1357,70.0,24,10,3.0,49.0
1358,62.0,0,10,3.0,49.0
1359,63.0,24,23,3.0,49.0
1360,72.0,0,23,3.0,49.0
1361,60.0,0,23,3.0,49.0
1362,69.0,24,23,3.0,49.0
1363,72.0,24,10,3.0,49.0
1364,63.0,0,10,3.0,49.0
1365,41.0,0,177,3.0,85.0
1366,65.0,0,177,1.0,64.0
1367,65.0,96,177,3.0,85.0
1368,69.0,0,10,3.0,49.0
1369,60.0,24,10,3.0,49.0
1370,69.0,0,89,0.0,49.0
1371,75.0,0,89,0.0,49.0
1372,62.0,24,89,3.0,49.0
1373,70.0,0,89,1.0,49.0
1374,70.0,0,89,0.0,49.0
1375,70.0,0,89,3.0,49.0
1376,62.0,0,89,1.0,49.0
1377,34.0,0,89,3.0,49.0
1378,74.0,0,89,0.0,49.0
1379,62.0,96,133,3.0,85.0
1380,74.0,0,133,3.0,85.0
1381,69.0,48,10,3.0,49.0
1382,72.0,0,10,3.0,49.0
1383,74.0,24,10,3.0,49.0
1384,70.0,0,10,3.0,49.0
1385,72.0,0,23,3.0,49.0
1386,75.0,24,23,3.0,49.0
1387,69.0,0,23,3.0,49.0
1388,72.0,24,23,3.0,49.0
1389,72.0,24,10,3.0,49.0
1390,75.0,0,10,3.0,49.0
1391,65.0,0,177,3.0,85.0
1392,41.0,0,177,3.0,85.0
1393,65.0,0,177,1.0,64.0
1394,69.0,0,10,3.0,49.0
1395,72.0,24,10,3.0,49.0
1396,75.0,0,89,0.0,49.0
1397,81.0,0,89,0.0,49.0
1398,58.0,0,45,2.0,64.0
1399,74.0,0,89,3.0,49.0
1400,70.0,0,89,3.0,49.0
1401,58.0,0,89,3.0,49.0
1402,82.0,0,89,0.0,49.0
1403,58.0,24,89,1.0,49.0
1404,46.0,0,89,3.0,49.0
1405,70.0,0,89,1.0,49.0
1406,74.0,0,89,0.0,49.0
1407,74.0,48,45,2.0,64.0
1408,70.0,0,45,2.0,64.0
1409,74.0,0,45,2.0,64.0
1410,70.0,0,45,2.0,64.0
1411,74.0,48,45,2.0,64.0
1412,70.0,0,45,2.0,64.0
1413,77.0,48,133,2.0,85.0
1414,70.0,0,45,2.0,64.0
1415,74.0,48,45,2.0,64.0
1416,79.0,0,23,2.0,85.0
1417,70.0,48,45,2.0,64.0
1418,74.0,0,45,2.0,64.0
1419,81.0,24,23,2.0,85.0
1420,84.0,24,6,2.0,85.0
1421,82.0,6,39,2.0,85.0
1422,74.0,0,45,2.0,64.0
1423,70.0,0,45,2.0,64.0
1424,81.0,0,23,2.0,85.0
1425,70.0,42,45,2.0,64.0
1426,74.0,0,45,2.0,64.0
1427,79.0,24,23,2.0,85.0
1428,76.0,0,12,2.0,85.0
1429,77.0,12,12,2.0,85.0
1430,76.0,12,12,2.0,85.0
1431,70.0,0,45,2.0,64.0
1432,72.0,24,45,2.0,64.0
1433,77.0,12,12,2.0,85.0
1434,76.0,0,12,2.0,85.0
1435,77.0,12,12,2.0,85.0
1436,76.0,12,12,2.0,85.0
1437,70.0,12,45,2.0,64.0
1438,72.0,0,45,2.0,64.0
1439,77.0,12,12,2.0,85.0
1440,76.0,0,12,2.0,85.0
1441,77.0,12,12,2.0,85.0
1442,76.0,12,12,2.0,85.0
1443,77.0,12,1,2.0,85.0
1444,70.0,0,45,2.0,64.0
1445,72.0,12,45,2.0,64.0
1446,77.0,0,23,2.0,85.0
1447,70.0,0,45,2.0,64.0
1448,72.0,12,45,2.0,64.0
1449,79.0,24,23,2.0,85.0
1450,72.0,24,45,2.0,64.0
1451,69.0,0,45,2.0,64.0
1452,77.0,0,89,2.0,85.0
1453,69.0,48,45,2.0,64.0
1454,72.0,0,45,2.0,64.0
1455,69.0,48,45,2.0,64.0
1456,72.0,0,45,2.0,64.0
1457,69.0,0,45,2.0,64.0
1458,72.0,0,45,2.0,64.0
1459,77.0,48,45,2.0,85.0
1460,84.0,0,45,2.0,85.0
1461,74.0,48,45,2.0,64.0
1462,67.0,0,45,2.0,64.0
1463,82.0,0,45,2.0,85.0
1464,67.0,0,45,2.0,64.0
1465,74.0,48,45,2.0,64.0
1466,67.0,0,45,2.0,64.0
1467,74.0,48,45,2.0,64.0
1468,67.0,0,45,2.0,64.0
1469,74.0,48,45,2.0,64.0
1470,82.0,0,133,2.0,85.0
1471,74.0,0,45,2.0,64.0
1472,67.0,48,45,2.0,64.0
1473,82.0,0,12,2.0,85.0
1474,84.0,12,12,2.0,85.0
1475,82.0,12,12,2.0,85.0
1476,67.0,48,45,2.0,64.0
1477,84.0,12,9,2.0,85.0
1478,74.0,0,45,2.0,64.0
1479,65.0,0,45,2.0,64.0
1480,74.0,0,45,2.0,64.0
1481,84.0,12,45,2.0,85.0
1482,65.0,0,45,2.0,64.0
1483,74.0,48,45,2.0,64.0
1484,86.0,0,45,2.0,85.0
1485,64.0,0,45,2.0,64.0
1486,67.0,0,45,2.0,64.0
1487,67.0,0,45,2.0,64.0
1488,64.0,48,45,2.0,64.0
1489,84.0,48,133,2.0,85.0
1490,67.0,0,45,2.0,64.0
1491,64.0,48,45,2.0,64.0
1492,86.0,0,23,2.0,85.0
1493,64.0,0,45,2.0,64.0
1494,67.0,48,45,2.0,64.0
1495,82.0,24,23,2.0,85.0
1496,72.0,0,45,2.0,64.0
1497,65.0,0,45,2.0,64.0
1498,81.0,24,89,2.0,85.0
1499,72.0,0,45,2.0,64.0
1500,65.0,48,45,2.0,64.0
1501,65.0,48,45,2.0,64.0
1502,72.0,0,45,2.0,64.0
1503,72.0,0,45,2.0,64.0
1504,81.0,0,45,2.0,85.0
1505,65.0,48,45,2.0,64.0
1506,81.0,0,23,2.0,85.0
1507,65.0,0,45,3.0,49.0
1508,34.0,48,45,3.0,49.0
1509,62.0,0,45,3.0,49.0
1510,58.0,0,45,2.0,64.0
1511,67.0,0,45,3.0,49.0
1512,79.0,24,23,2.0,85.0
1513,78.0,0,23,2.0,85.0
1514,65.0,24,45,2.0,64.0
1515,79.0,24,23,2.0,85.0
1516,78.0,0,23,2.0,85.0
1517,62.0,24,45,2.0,64.0
1518,79.0,24,23,2.0,85.0
1519,78.0,0,23,2.0,85.0
1520,65.0,24,45,2.0,64.0
1521,79.0,24,23,2.0,85.0
1522,82.0,0,23,2.0,85.0
1523,60.0,0,45,2.0,64.0
1524,63.0,0,45,3.0,49.0
1525,36.0,24,45,3.0,49.0
1526,65.0,0,45,3.0,49.0
1527,81.0,24,23,2.0,85.0
1528,80.0,0,23,2.0,85.0
1529,69.0,0,89,3.0,49.0
1530,65.0,24,45,2.0,64.0
1531,81.0,24,23,2.0,85.0
1532,80.0,24,23,2.0,85.0
1533,63.0,0,45,2.0,64.0
1534,81.0,24,23,2.0,85.0
1535,80.0,24,23,2.0,85.0
1536,65.0,0,45,2.0,64.0
1537,81.0,24,23,2.0,85.0
1538,84.0,0,23,2.0,85.0
1539,62.0,24,45,3.0,49.0
1540,70.0,0,45,3.0,49.0
1541,62.0,0,45,2.0,64.0
1542,65.0,0,45,3.0,49.0
1543,38.0,0,45,3.0,49.0
1544,82.0,24,23,2.0,85.0
1545,81.0,0,23,2.0,85.0
1546,65.0,24,45,2.0,64.0
1547,82.0,24,23,2.0,85.0
1548,84.0,0,23,2.0,85.0
1549,65.0,0,45,3.0,49.0
1550,62.0,24,45,2.0,64.0
1551,71.0,0,45,3.0,49.0
1552,62.0,0,45,3.0,49.0
1553,83.0,24,23,2.0,85.0
1554,81.0,0,23,2.0,85.0
1555,65.0,24,45,2.0,64.0
1556,83.0,24,23,2.0,85.0
1557,84.0,0,23,2.0,85.0
1558,45.0,0,45,3.0,49.0
1559,72.0,24,45,3.0,49.0
1560,57.0,0,45,3.0,49.0
1561,57.0,0,45,2.0,64.0
1562,65.0,0,45,3.0,49.0
1563,82.0,24,23,2.0,85.0
1564,81.0,24,23,2.0,85.0
1565,65.0,0,45,2.0,64.0
1566,79.0,24,23,2.0,85.0
1567,77.0,0,23,2.0,85.0
1568,75.0,0,45,3.0,49.0
1569,65.0,0,45,3.0,49.0
1570,72.0,24,45,3.0,49.0
1571,57.0,0,45,2.0,64.0
1572,75.0,24,23,2.0,85.0
1573,74.0,24,23,2.0,85.0
1574,65.0,0,45,2.0,64.0
1575,75.0,24,23,2.0,85.0
1576,74.0,0,45,2.0,85.0
1577,58.0,0,89,2.0,64.0
1578,65.0,0,89,2.0,64.0
1579,46.0,0,89,3.0,49.0
1580,74.0,0,89,3.0,49.0
1581,65.0,0,89,3.0,49.0
1582,70.0,24,89,3.0,49.0
1583,85.0,48,45,2.0,85.0
1584,86.0,48,45,2.0,85.0
1585,78.0,48,45,2.0,85.0
1586,79.0,48,45,2.0,85.0
1587,82.0,48,45,2.0,85.0
1588,74.0,48,45,2.0,85.0
1589,79.0,48,45,2.0,85.0
1590,77.0,48,89,2.0,85.0
1591,72.0,0,20,3.0,85.0
1592,76.0,96,89,2.0,85.0
1593,60.0,0,45,2.0,64.0
1594,48.0,0,45,3.0,85.0
1595,71.0,0,45,3.0,85.0
1596,47.0,0,45,3.0,85.0
1597,59.0,0,45,2.0,64.0
1598,72.0,0,45,3.0,85.0
1599,60.0,48,45,2.0,64.0
1600,48.0,0,45,3.0,85.0
1601,71.0,0,45,3.0,85.0
1602,47.0,0,45,3.0,85.0
1603,59.0,48,45,2.0,64.0
1604,60.0,0,45,2.0,64.0
1605,48.0,0,45,3.0,85.0
1606,72.0,0,45,3.0,85.0
1607,72.0,24,23,2.0,85.0
1608,71.0,24,23,2.0,85.0
1609,60.0,0,89,3.0,85.0
1610,60.0,48,89,2.0,64.0
1611,36.0,0,89,3.0,85.0
1612,72.0,24,23,2.0,85.0
1613,74.0,24,23,2.0,85.0
1614,72.0,24,23,2.0,85.0
1615,76.0,24,23,2.0,85.0
1616,70.0,0,45,2.0,64.0
1617,72.0,24,23,2.0,85.0
1618,77.0,24,23,2.0,85.0
1619,69.0,0,45,2.0,64.0
1620,72.0,24,23,2.0,85.0
1621,79.0,0,23,2.0,85.0
1622,64.0,24,45,2.0,64.0
1623,72.0,24,23,2.0,85.0
1624,81.0,24,23,2.0,85.0
1625,65.0,0,45,2.0,64.0
1626,72.0,24,23,2.0,85.0
1627,82.0,24,23,2.0,85.0
1628,67.0,0,45,2.0,64.0
1629,72.0,24,23,2.0,85.0
1630,65.0,0,23,2.0,64.0
1631,81.0,24,45,2.0,85.0
1632,72.0,24,23,2.0,64.0
1633,71.0,24,23,2.0,64.0
1634,72.0,24,23,2.0,64.0
1635,86.0,0,20,2.0,85.0
1636,70.0,24,23,2.0,64.0
1637,72.0,24,23,2.0,64.0
1638,84.0,0,20,2.0,85.0
1639,69.0,24,23,2.0,64.0
1640,72.0,24,23,2.0,64.0
1641,82.0,0,12,2.0,85.0
1642,67.0,24,23,2.0,64.0
1643,84.0,12,12,2.0,85.0
1644,82.0,12,12,2.0,85.0
1645,84.0,12,9,2.0,85.0
1646,72.0,0,23,2.0,64.0
1647,65.0,12,23,2.0,64.0
1648,81.0,0,45,2.0,85.0
1649,72.0,24,23,2.0,64.0
1650,79.0,24,12,2.0,85.0
1651,64.0,0,23,2.0,64.0
1652,81.0,12,12,2.0,85.0
1653,79.0,12,12,2.0,85.0
1654,81.0,12,9,2.0,85.0
1655,72.0,0,23,2.0,64.0
1656,62.0,0,23,2.0,64.0
1657,77.0,12,45,2.0,85.0
1658,72.0,24,23,2.0,64.0
1659,76.0,24,23,2.0,85.0
1660,72.0,24,23,2.0,85.0
1661,71.0,24,23,2.0,85.0
1662,60.0,0,89,2.0,64.0
1663,72.0,24,23,2.0,85.0
1664,74.0,24,23,2.0,85.0
1665,72.0,24,23,2.0,85.0
1666,76.0,0,23,2.0,85.0
1667,70.0,24,45,2.0,64.0
1668,72.0,24,23,2.0,85.0
1669,77.0,24,23,2.0,85.0
1670,69.0,0,45,2.0,64.0
1671,72.0,24,23,2.0,85.0
1672,79.0,24,23,2.0,85.0
1673,64.0,0,45,2.0,64.0
1674,72.0,24,23,2.0,85.0
1675,81.0,0,23,2.0,85.0
1676,65.0,24,45,2.0,64.0
1677,72.0,24,23,2.0,85.0
1678,82.0,24,23,2.0,85.0
1679,67.0,0,45,2.0,64.0
1680,72.0,24,23,2.0,85.0
1681,65.0,0,23,2.0,64.0
1682,81.0,24,45,2.0,85.0
1683,72.0,24,23,2.0,64.0
1684,71.0,24,23,2.0,64.0
1685,72.0,24,23,2.0,64.0
1686,86.0,24,20,2.0,85.0
1687,70.0,0,23,2.0,64.0
1688,72.0,24,23,2.0,64.0
1689,84.0,0,20,2.0,85.0
1690,69.0,24,23,2.0,64.0
1691,72.0,24,23,2.0,64.0
1692,82.0,0,12,2.0,85.0
1693,67.0,24,23,2.0,64.0
1694,84.0,12,12,2.0,85.0
1695,82.0,12,12,2.0,85.0
1696,84.0,12,9,2.0,85.0
1697,72.0,0,23,2.0,64.0
1698,65.0,12,23,2.0,64.0
1699,81.0,0,45,2.0,85.0
1700,72.0,24,23,2.0,64.0
1701,79.0,0,12,2.0,85.0
1702,64.0,24,23,2.0,64.0
1703,81.0,12,12,2.0,85.0
1704,79.0,0,12,2.0,85.0
1705,81.0,12,9,2.0,85.0
1706,72.0,12,23,2.0,64.0
1707,65.0,0,23,2.0,64.0
1708,77.0,12,45,2.0,85.0
1709,72.0,24,23,2.0,64.0
1710,69.0,24,23,2.0,64.0
1711,70.0,0,23,2.0,64.0
1712,74.0,0,89,2.0,85.0
1713,58.0,24,89,3.0,85.0
1714,74.0,24,45,3.0,49.0
1715,69.0,24,23,2.0,64.0
1716,70.0,24,45,3.0,49.0
1717,81.0,24,23,2.0,85.0
1718,67.0,24,20,3.0,49.0
1719,82.0,0,23,2.0,85.0
1720,70.0,0,89,2.0,64.0
1721,79.0,0,45,3.0,49.0
1722,79.0,24,23,2.0,85.0
1723,76.0,24,45,3.0,49.0
1724,71.0,24,23,2.0,64.0
1725,72.0,24,20,3.0,49.0
1726,72.0,0,23,2.0,64.0
1727,76.0,0,89,2.0,85.0
1728,60.0,0,89,3.0,85.0
1729,76.0,0,45,3.0,49.0
1730,71.0,24,23,2.0,64.0
1731,72.0,24,45,3.0,49.0
1732,83.0,24,23,2.0,85.0
1733,69.0,0,20,3.0,49.0
1734,84.0,24,23,2.0,85.0
1735,72.0,0,89,2.0,64.0
1736,81.0,0,45,3.0,49.0
1737,81.0,24,23,2.0,85.0
1738,77.0,24,45,3.0,49.0
1739,73.0,24,23,2.0,64.0
1740,74.0,0,20,3.0,49.0
1741,74.0,24,23,2.0,64.0
1742,62.0,0,89,3.0,85.0
1743,77.0,0,89,2.0,85.0
1744,77.0,0,45,3.0,49.0
1745,73.0,24,23,2.0,64.0
1746,74.0,24,45,3.0,49.0
1747,85.0,24,23,2.0,85.0
1748,70.0,0,20,3.0,49.0
1749,86.0,24,23,2.0,85.0
1750,74.0,0,89,2.0,64.0
1751,82.0,0,45,3.0,49.0
1752,82.0,24,23,2.0,85.0
1753,79.0,24,45,3.0,49.0
1754,75.0,24,23,2.0,64.0
1755,76.0,24,23,2.0,64.0
1756,79.0,0,89,2.0,85.0
1757,64.0,0,89,3.0,85.0
1758,79.0,0,45,3.0,49.0
1759,76.0,0,45,3.0,49.0
1760,75.0,24,23,2.0,64.0
1761,76.0,0,45,3.0,49.0
1762,83.0,24,23,2.0,85.0
1763,79.0,0,20,3.0,49.0
1764,84.0,0,23,2.0,85.0
1765,76.0,24,89,2.0,64.0
1766,64.0,0,45,3.0,85.0
1767,72.0,0,45,3.0,49.0
1768,82.0,24,45,3.0,49.0
1769,82.0,24,23,2.0,85.0
1770,81.0,0,23,2.0,85.0
1771,77.0,0,45,2.0,64.0
1772,84.0,24,23,2.0,85.0
1773,81.0,24,23,2.0,85.0
1774,72.0,0,89,3.0,49.0
1775,81.0,0,89,3.0,49.0
1776,65.0,24,89,3.0,85.0
1777,77.0,0,89,3.0,49.0
1778,77.0,24,23,2.0,85.0
1779,76.0,0,23,2.0,85.0
1780,70.0,0,45,2.0,64.0
1781,79.0,24,23,2.0,85.0
1782,76.0,24,23,2.0,85.0
1783,72.0,24,23,2.0,85.0
1784,77.0,24,23,2.0,85.0
1785,69.0,0,45,2.0,64.0
1786,72.0,24,23,2.0,85.0
1787,69.0,24,23,2.0,85.0
1788,84.0,24,177,3.0,49.0
1789,77.0,0,45,3.0,49.0
1790,65.0,0,45,2.0,64.0
1791,72.0,24,23,2.0,85.0
1792,72.0,0,20,3.0,49.0
1793,70.0,0,23,2.0,85.0
1794,76.0,0,45,3.0,49.0
1795,67.0,24,45,2.0,64.0
1796,72.0,24,23,2.0,85.0
1797,72.0,0,20,3.0,49.0
1798,79.0,24,20,3.0,49.0
1799,67.0,0,23,2.0,85.0
1800,64.0,0,45,2.0,64.0
1801,72.0,24,23,2.0,85.0
1802,69.0,24,23,2.0,85.0
1803,65.0,0,45,2.0,64.0
1804,72.0,24,23,2.0,85.0
1805,69.0,24,23,2.0,85.0
1806,72.0,0,89,3.0,49.0
1807,69.0,0,89,3.0,49.0
1808,65.0,24,23,2.0,85.0
1809,64.0,0,23,2.0,85.0
1810,58.0,24,45,2.0,64.0
1811,67.0,24,23,2.0,85.0
1812,64.0,24,23,2.0,85.0
1813,60.0,24,23,2.0,85.0
1814,65.0,0,23,2.0,85.0
1815,57.0,24,45,2.0,64.0
1816,60.0,24,23,2.0,85.0
1817,57.0,24,23,2.0,85.0
1818,72.0,0,177,3.0,49.0
1819,65.0,0,45,3.0,49.0
1820,53.0,0,45,2.0,64.0
1821,60.0,24,23,2.0,85.0
1822,60.0,0,20,3.0,49.0
1823,58.0,0,23,2.0,85.0
1824,64.0,24,45,3.0,49.0
1825,55.0,0,45,2.0,64.0
1826,60.0,24,23,2.0,85.0
1827,60.0,0,20,3.0,49.0
1828,58.0,0,20,3.0,49.0
1829,55.0,0,23,2.0,85.0
1830,52.0,24,45,2.0,64.0
1831,60.0,24,23,2.0,85.0
1832,57.0,0,20,2.0,85.0
1833,53.0,0,89,2.0,64.0
1834,57.0,24,89,3.0,49.0
1835,60.0,0,89,3.0,49.0
1836,60.0,48,45,2.0,85.0
1837,65.0,48,45,2.0,85.0
1838,69.0,48,45,2.0,85.0
1839,72.0,48,45,2.0,85.0
1840,77.0,48,45,2.0,85.0
1841,81.0,48,45,2.0,85.0
1842,84.0,48,20,2.0,85.0
1843,57.0,0,23,2.0,64.0
1844,53.0,0,45,3.0,85.0
1845,63.0,0,45,3.0,49.0
1846,60.0,48,45,3.0,49.0
1847,65.0,24,23,2.0,64.0
1848,60.0,0,23,2.0,64.0
1849,33.0,0,89,3.0,49.0
1850,65.0,24,23,2.0,64.0
1851,57.0,0,23,2.0,64.0
1852,63.0,24,89,3.0,49.0
1853,53.0,0,89,3.0,85.0
1854,60.0,0,89,3.0,49.0
1855,65.0,24,23,2.0,64.0
1856,60.0,0,23,2.0,64.0
1857,87.0,0,177,2.0,85.0
1858,33.0,24,89,3.0,49.0
1859,65.0,24,23,2.0,64.0
1860,75.0,0,12,2.0,85.0
1861,57.0,24,23,2.0,64.0
1862,77.0,12,12,2.0,85.0
1863,75.0,12,12,2.0,85.0
1864,63.0,0,89,3.0,49.0
1865,60.0,0,89,3.0,49.0
1866,53.0,24,89,3.0,85.0
1867,65.0,0,23,2.0,64.0
1868,77.0,12,12,2.0,85.0
1869,75.0,0,12,2.0,85.0
1870,60.0,0,23,2.0,64.0
1871,77.0,12,12,2.0,85.0
1872,75.0,12,12,2.0,85.0
1873,33.0,0,89,3.0,49.0
1874,65.0,0,23,2.0,64.0
1875,77.0,12,12,2.0,85.0
1876,75.0,0,12,2.0,85.0
1877,57.0,12,23,2.0,64.0
1878,77.0,12,12,2.0,85.0
1879,75.0,0,12,2.0,85.0
1880,63.0,12,89,3.0,49.0
1881,53.0,0,89,3.0,85.0
1882,60.0,0,89,3.0,49.0
1883,65.0,12,23,2.0,64.0
1884,77.0,12,12,2.0,85.0
1885,75.0,0,12,2.0,85.0
1886,72.0,0,354,0.0,49.0
1887,75.0,0,354,0.0,49.0
1888,65.0,0,354,1.0,49.0
1889,60.0,12,23,2.0,64.0
1890,77.0,12,12,2.0,85.0
1891,75.0,0,9,2.0,85.0
1892,33.0,0,89,3.0,49.0
1893,60.0,0,45,3.0,49.0
1894,63.0,0,45,3.0,49.0
1895,53.0,0,45,3.0,85.0
1896,65.0,12,23,2.0,64.0
1897,74.0,0,23,2.0,85.0
1898,76.0,24,23,2.0,85.0
1899,77.0,24,23,2.0,85.0
1900,65.0,0,89,1.0,49.0
1901,70.0,24,89,0.0,49.0
1902,74.0,0,89,0.0,49.0
1903,62.0,0,89,3.0,49.0
1904,53.0,0,89,3.0,85.0
1905,58.0,0,89,2.0,64.0
1906,34.0,0,89,3.0,49.0
1907,58.0,0,89,3.0,49.0
1908,58.0,0,89,1.0,49.0
1909,76.0,24,23,2.0,85.0
1910,77.0,24,23,2.0,85.0
1911,78.0,24,23,2.0,85.0
1912,79.0,24,23,2.0,85.0
1913,78.0,24,23,2.0,85.0
1914,79.0,24,23,2.0,85.0
1915,81.0,24,23,2.0,85.0
1916,82.0,24,23,2.0,85.0
1917,81.0,24,23,2.0,85.0
1918,84.0,24,6,2.0,85.0
1919,82.0,6,39,2.0,85.0
1920,81.0,42,23,2.0,85.0
1921,79.0,24,23,2.0,85.0
1922,57.0,0,45,2.0,64.0
1923,84.0,24,67,2.0,85.0
1924,65.0,48,45,2.0,64.0
1925,77.0,24,23,2.0,85.0
1926,62.0,0,45,2.0,64.0
1927,82.0,24,67,2.0,85.0
1928,70.0,0,89,3.0,49.0
1929,65.0,48,45,2.0,64.0
1930,79.0,24,23,2.0,85.0
1931,79.0,0,12,2.0,85.0
1932,81.0,12,12,2.0,85.0
1933,79.0,12,12,2.0,85.0
1934,58.0,24,45,2.0,64.0
1935,81.0,12,12,2.0,85.0
1936,79.0,12,12,2.0,85.0
1937,81.0,12,12,2.0,85.0
1938,77.0,0,177,3.0,49.0
1939,79.0,12,12,2.0,85.0
1940,74.0,0,89,3.0,49.0
1941,65.0,0,45,2.0,64.0
1942,81.0,12,12,2.0,85.0
1943,79.0,12,12,2.0,85.0
1944,81.0,12,12,2.0,85.0
1945,79.0,12,12,2.0,85.0
1946,60.0,0,45,2.0,64.0
1947,72.0,0,45,3.0,49.0
1948,81.0,12,12,2.0,85.0
1949,79.0,0,12,2.0,85.0
1950,81.0,12,12,2.0,85.0
1951,79.0,12,9,2.0,85.0
1952,76.0,0,89,3.0,49.0
1953,70.0,0,45,3.0,49.0
1954,64.0,12,45,2.0,64.0
1955,53.0,0,89,2.0,64.0
1956,77.0,0,89,2.0,85.0
1957,69.0,0,89,3.0,49.0
1958,65.0,24,89,2.0,64.0
1959,77.0,0,89,3.0,49.0
1960,72.0,96,133,3.0,49.0
1961,74.0,48,45,3.0,49.0
1962,64.0,0,133,3.0,85.0
1963,58.0,0,177,3.0,85.0
1964,46.0,96,177,3.0,85.0
1965,67.0,48,45,3.0,85.0
1966,72.0,48,141,3.0,49.0
1967,74.0,48,45,3.0,49.0
1968,65.0,48,133,3.0,85.0
1969,45.0,0,177,3.0,85.0
1970,57.0,0,177,3.0,85.0
1971,69.0,48,45,3.0,85.0
1972,72.0,48,133,3.0,49.0
1973,84.0,48,45,3.0,49.0
1974,67.0,0,133,3.0,85.0
1975,40.0,48,177,3.0,85.0
1976,52.0,0,177,3.0,85.0
1977,60.0,48,45,3.0,85.0
1978,82.0,48,141,3.0,49.0
1979,53.0,48,89,3.0,85.0
1980,41.0,0,89,3.0,85.0
1981,69.0,0,89,3.0,85.0
1982,80.0,48,45,3.0,49.0
1983,60.0,0,133,2.0,64.0
1984,53.0,0,177,2.0,64.0
1985,81.0,48,89,3.0,49.0
1986,65.0,48,45,2.0,64.0
1987,72.0,0,133,2.0,85.0
1988,74.0,48,45,2.0,85.0
1989,64.0,48,133,2.0,64.0
1990,58.0,0,177,2.0,64.0
1991,67.0,48,45,2.0,64.0
1992,72.0,48,141,2.0,85.0
1993,74.0,48,45,2.0,85.0
1994,65.0,0,133,2.0,64.0
1995,57.0,48,177,2.0,64.0
1996,60.0,48,45,2.0,64.0
1997,72.0,48,133,2.0,85.0
1998,84.0,48,45,2.0,85.0
1999,67.0,48,133,2.0,64.0
2000,64.0,0,177,2.0,64.0
2001,72.0,48,45,2.0,64.0
2002,82.0,48,141,2.0,85.0
2003,72.0,0,45,3.0,49.0
2004,84.0,48,45,2.0,85.0
2005,65.0,0,45,3.0,49.0
2006,69.0,0,20,3.0,49.0
2007,72.0,0,133,2.0,64.0
2008,65.0,48,177,2.0,64.0
2009,72.0,48,45,3.0,49.0
2010,69.0,0,45,2.0,64.0
2011,74.0,0,20,3.0,49.0
2012,81.0,0,133,2.0,85.0
2013,70.0,0,45,3.0,49.0
2014,62.0,48,45,3.0,49.0
2015,82.0,0,45,2.0,85.0
2016,67.0,0,20,3.0,49.0
2017,62.0,0,133,2.0,64.0
2018,58.0,48,177,3.0,49.0
2019,58.0,0,177,2.0,64.0
2020,70.0,48,45,3.0,49.0
2021,70.0,0,45,2.0,64.0
2022,72.0,0,20,3.0,49.0
2023,79.0,0,141,2.0,85.0
2024,69.0,0,45,3.0,49.0
2025,60.0,48,45,3.0,49.0
2026,81.0,0,45,2.0,85.0
2027,65.0,0,20,3.0,49.0
2028,69.0,0,133,2.0,64.0
2029,60.0,0,177,2.0,64.0
2030,69.0,48,45,3.0,49.0
2031,65.0,0,45,2.0,64.0
2032,70.0,0,20,3.0,49.0
2033,77.0,0,133,2.0,85.0
2034,67.0,0,45,3.0,49.0
2035,81.0,48,6,2.0,85.0
2036,79.0,6,39,2.0,85.0
2037,58.0,0,45,3.0,49.0
2038,60.0,0,20,3.0,49.0
2039,70.0,48,133,2.0,64.0
2040,64.0,42,45,3.0,49.0
2041,60.0,0,177,2.0,64.0
2042,76.0,0,89,2.0,85.0
2043,67.0,48,45,2.0,64.0
2044,67.0,0,45,3.0,49.0
2045,57.0,0,10,3.0,49.0
2046,60.0,24,10,3.0,49.0
2047,41.0,0,45,3.0,34.0
2048,65.0,48,45,3.0,49.0
2049,57.0,24,10,3.0,49.0
2050,60.0,24,10,3.0,49.0
2051,77.0,0,89,2.0,85.0
2052,69.0,0,89,2.0,64.0
2053,65.0,0,89,2.0,64.0
2054,57.0,24,10,3.0,49.0
2055,60.0,24,10,3.0,49.0
2056,65.0,0,45,3.0,49.0
2057,57.0,0,10,3.0,49.0
2058,60.0,24,10,3.0,49.0
2059,64.0,24,45,3.0,49.0
2060,58.0,24,10,3.0,49.0
2061,67.0,0,20,3.0,49.0
2062,60.0,24,10,3.0,49.0
2063,36.0,0,45,3.0,34.0
2064,64.0,0,45,3.0,49.0
2065,58.0,24,10,3.0,49.0
2066,60.0,24,10,3.0,49.0
2067,58.0,0,10,3.0,49.0
2068,60.0,24,10,3.0,49.0
2069,67.0,24,45,3.0,49.0
2070,58.0,24,10,3.0,49.0
2071,60.0,24,10,3.0,49.0
2072,65.0,0,45,3.0,49.0
2073,57.0,0,10,3.0,49.0
2074,69.0,24,20,3.0,49.0
2075,60.0,24,10,3.0,49.0
2076,65.0,0,45,3.0,49.0
2077,41.0,0,45,3.0,34.0
2078,57.0,24,10,3.0,49.0
2079,60.0,24,10,3.0,49.0
2080,65.0,24,10,3.0,49.0
2081,60.0,24,10,3.0,49.0
2082,69.0,0,45,3.0,49.0
2083,65.0,24,10,3.0,49.0
2084,60.0,24,10,3.0,49.0
2085,67.0,0,45,3.0,49.0
2086,67.0,0,10,3.0,49.0
2087,60.0,24,10,3.0,85.0
2088,64.0,0,45,3.0,85.0
2089,40.0,24,45,3.0,85.0
2090,70.0,0,45,3.0,85.0
2091,67.0,0,10,3.0,85.0
2092,60.0,24,10,3.0,85.0
2093,70.0,0,45,3.0,85.0
2094,40.0,24,45,3.0,85.0
2095,64.0,0,45,3.0,85.0
2096,72.0,24,6,3.0,85.0
2097,55.0,0,10,3.0,85.0
2098,60.0,18,10,3.0,85.0
2099,40.0,0,45,3.0,85.0
2100,70.0,6,39,3.0,85.0
2101,64.0,0,45,3.0,85.0
2102,58.0,0,10,3.0,85.0
2103,69.0,0,23,3.0,85.0
2104,72.0,0,177,1.0,64.0
2105,82.0,0,177,0.0,85.0
2106,79.0,0,177,0.0,85.0
2107,60.0,24,10,3.0,85.0
2108,64.0,0,45,3.0,85.0
2109,40.0,24,45,3.0,85.0
2110,67.0,0,23,3.0,85.0
2111,65.0,0,23,2.0,64.0
2112,65.0,0,45,1.0,49.0
2113,65.0,0,45,3.0,49.0
2114,41.0,0,45,3.0,49.0
2115,81.0,0,45,0.0,49.0
2116,77.0,0,45,0.0,49.0
2117,57.0,0,45,3.0,49.0
2118,72.0,24,23,2.0,64.0
2119,69.0,24,23,2.0,64.0
2120,72.0,24,23,2.0,64.0
2121,77.0,0,23,2.0,85.0
2122,69.0,24,23,2.0,64.0
2123,72.0,0,23,2.0,64.0
2124,76.0,24,23,2.0,85.0
2125,77.0,24,23,2.0,85.0
2126,69.0,0,23,2.0,64.0
2127,76.0,24,23,2.0,85.0
2128,72.0,0,23,2.0,64.0
2129,64.0,0,23,2.0,64.0
2130,64.0,0,45,3.0,49.0
2131,70.0,0,45,3.0,49.0
2132,79.0,0,45,2.0,85.0
2133,48.0,24,45,3.0,49.0
2134,60.0,0,45,3.0,49.0
2135,72.0,24,23,2.0,64.0
2136,70.0,24,23,2.0,64.0
2137,72.0,24,23,2.0,64.0
2138,70.0,0,23,2.0,64.0
2139,79.0,24,23,2.0,85.0
2140,72.0,24,23,2.0,64.0
2141,77.0,0,23,2.0,85.0
2142,79.0,24,23,2.0,85.0
2143,70.0,0,23,2.0,64.0
2144,77.0,0,23,2.0,85.0
2145,72.0,24,23,2.0,64.0
2146,65.0,24,23,2.0,64.0
2147,69.0,0,45,3.0,49.0
2148,81.0,0,45,2.0,85.0
2149,60.0,0,45,3.0,49.0
2150,41.0,0,45,3.0,49.0
2151,65.0,0,45,3.0,49.0
2152,72.0,24,23,2.0,64.0
2153,69.0,24,23,2.0,64.0
2154,72.0,24,23,2.0,64.0
2155,81.0,0,23,2.0,85.0
2156,69.0,24,23,2.0,64.0
2157,72.0,24,23,2.0,64.0
2158,79.0,0,23,2.0,85.0
2159,81.0,0,23,2.0,85.0
2160,69.0,24,23,2.0,64.0
2161,72.0,0,23,2.0,64.0
2162,79.0,24,23,2.0,85.0
2163,82.0,0,20,2.0,85.0
2164,64.0,0,23,2.0,64.0
2165,48.0,0,45,3.0,49.0
2166,72.0,24,23,2.0,64.0
2167,82.0,24,20,2.0,85.0
2168,67.0,0,23,2.0,64.0
2169,72.0,24,23,2.0,64.0
2170,84.0,24,6,2.0,85.0
2171,64.0,0,23,2.0,64.0
2172,82.0,6,39,2.0,85.0
2173,36.0,0,45,3.0,49.0
2174,72.0,18,23,2.0,64.0
2175,67.0,0,23,2.0,64.0
2176,81.0,24,23,2.0,85.0
2177,76.0,0,177,3.0,49.0
2178,82.0,24,177,3.0,49.0
2179,67.0,0,177,3.0,49.0
2180,79.0,0,23,2.0,85.0
2181,72.0,24,23,2.0,64.0
2182,81.0,0,23,2.0,85.0
2183,82.0,24,23,2.0,85.0
2184,84.0,24,23,2.0,85.0
2185,65.0,0,89,3.0,49.0
2186,41.0,0,89,3.0,49.0
2187,77.0,0,89,3.0,49.0
2188,65.0,0,89,2.0,64.0
2189,81.0,24,89,3.0,49.0
2190,81.0,24,23,2.0,85.0
2191,77.0,24,23,2.0,85.0
2192,79.0,24,23,2.0,85.0
2193,81.0,24,23,2.0,85.0
2194,77.0,24,23,2.0,85.0
2195,74.0,24,23,2.0,85.0
2196,76.0,24,23,2.0,85.0
2197,77.0,24,23,2.0,85.0
2198,74.0,24,23,2.0,85.0
2199,70.0,24,23,2.0,85.0
2200,72.0,24,23,2.0,85.0
2201,74.0,24,23,2.0,85.0
2202,70.0,24,23,2.0,85.0
2203,67.0,0,23,2.0,85.0
2204,66.0,24,23,2.0,85.0
2205,67.0,24,23,2.0,85.0
2206,67.0,0,89,3.0,49.0
2207,66.0,24,23,2.0,85.0
2208,67.0,24,23,3.0,49.0
2209,58.0,0,23,2.0,64.0
2210,57.0,24,23,2.0,64.0
2211,66.0,0,23,3.0,49.0
2212,58.0,24,23,2.0,64.0
2213,67.0,0,23,3.0,49.0
2214,46.0,0,177,3.0,49.0
2215,62.0,24,177,3.0,49.0
2216,70.0,0,89,3.0,49.0
2217,57.0,0,23,2.0,64.0
2218,66.0,24,23,3.0,49.0
2219,67.0,0,141,2.0,85.0
2220,74.0,0,89,3.0,49.0
2221,58.0,0,89,3.0,49.0
2222,74.0,48,45,2.0,85.0
2223,72.0,48,6,2.0,85.0
2224,70.0,6,39,2.0,85.0
2225,69.0,42,23,2.0,85.0
2226,67.0,0,177,3.0,49.0
2227,34.0,0,177,3.0,49.0
2228,58.0,24,177,2.0,64.0
2229,64.0,0,89,3.0,49.0
2230,60.0,0,89,3.0,49.0
2231,67.0,24,23,2.0,85.0
2232,72.0,24,45,2.0,85.0
2233,60.0,0,89,3.0,49.0
2234,33.0,0,89,3.0,49.0
2235,57.0,0,89,2.0,64.0
2236,65.0,0,89,3.0,49.0
2237,71.0,48,45,2.0,85.0
2238,70.0,0,45,2.0,85.0
2239,65.0,0,81,3.0,49.0
2240,57.0,48,89,2.0,64.0
2241,38.0,0,89,3.0,49.0
2242,62.0,0,89,3.0,49.0
2243,69.0,48,45,2.0,85.0
2244,67.0,0,12,2.0,85.0
2245,69.0,12,12,2.0,85.0
2246,67.0,12,12,2.0,85.0
2247,69.0,12,12,2.0,85.0
2248,67.0,12,12,2.0,85.0
2249,69.0,12,12,2.0,85.0
2250,65.0,0,177,2.0,64.0
2251,67.0,12,12,2.0,85.0
2252,34.0,0,89,3.0,49.0
2253,53.0,0,89,2.0,64.0
2254,62.0,48,89,3.0,49.0
2255,58.0,0,89,3.0,49.0
2256,69.0,12,12,2.0,85.0
2257,67.0,0,12,2.0,85.0
2258,69.0,12,12,2.0,85.0
2259,67.0,12,12,2.0,85.0
2260,69.0,12,12,2.0,85.0
2261,67.0,12,12,2.0,85.0
2262,69.0,12,12,2.0,85.0
2263,67.0,12,9,2.0,85.0
2264,55.0,0,89,2.0,64.0
2265,60.0,0,89,3.0,49.0
2266,55.0,0,89,3.0,49.0
2267,36.0,0,89,3.0,49.0
2268,64.0,0,89,3.0,49.0
2269,64.0,12,89,2.0,64.0
2270,84.0,24,23,2.0,85.0
2271,83.0,24,23,2.0,85.0
2272,84.0,24,23,2.0,85.0
2273,80.0,24,23,2.0,85.0
2274,81.0,24,23,2.0,85.0
2275,80.0,24,23,2.0,85.0
2276,81.0,24,23,2.0,85.0
2277,76.0,24,23,2.0,85.0
2278,77.0,24,23,2.0,85.0
2279,76.0,24,23,2.0,85.0
2280,77.0,24,23,2.0,85.0
2281,73.0,24,23,2.0,85.0
2282,74.0,24,23,2.0,85.0
2283,73.0,24,23,2.0,85.0
2284,74.0,24,23,2.0,85.0
2285,69.0,24,23,2.0,85.0
2286,70.0,0,23,2.0,85.0
2287,69.0,24,23,2.0,85.0
2288,70.0,24,23,2.0,85.0
2289,67.0,24,89,3.0,49.0
2290,66.0,24,23,2.0,85.0
2291,46.0,0,119,3.0,49.0
2292,62.0,0,119,3.0,49.0
2293,58.0,0,23,2.0,64.0
2294,67.0,24,23,3.0,49.0
2295,66.0,0,23,3.0,49.0
2296,60.0,0,23,3.0,49.0
2297,57.0,0,23,2.0,64.0
2298,45.0,24,23,3.0,49.0
2299,58.0,0,23,3.0,49.0
2300,43.0,0,23,3.0,49.0
2301,67.0,24,23,3.0,49.0
2302,55.0,0,23,2.0,64.0
2303,70.0,0,89,3.0,49.0
2304,41.0,0,23,3.0,49.0
2305,57.0,24,23,3.0,49.0
2306,69.0,0,23,3.0,49.0
2307,53.0,0,23,2.0,64.0
2308,67.0,0,141,2.0,85.0
2309,40.0,0,89,3.0,49.0
2310,52.0,24,89,2.0,64.0
2311,74.0,0,89,3.0,49.0
2312,55.0,0,89,3.0,49.0
2313,70.0,0,89,3.0,49.0
2314,86.0,48,45,2.0,85.0
2315,84.0,48,6,2.0,85.0
2316,82.0,6,39,2.0,85.0
2317,81.0,42,23,2.0,85.0
2318,64.0,0,89,3.0,49.0
2319,64.0,0,89,2.0,64.0
2320,58.0,0,89,2.0,64.0
2321,67.0,0,89,3.0,49.0
2322,58.0,0,89,3.0,49.0
2323,79.0,24,23,2.0,85.0
2324,84.0,24,45,2.0,85.0
2325,57.0,0,89,3.0,49.0
2326,57.0,0,89,2.0,64.0
2327,65.0,0,89,2.0,64.0
2328,65.0,0,89,3.0,49.0
2329,83.0,48,45,2.0,85.0
2330,82.0,48,45,2.0,85.0
2331,62.0,0,89,3.0,49.0
2332,62.0,0,89,2.0,64.0
2333,81.0,48,45,2.0,85.0
2334,79.0,0,12,2.0,85.0
2335,81.0,12,12,2.0,85.0
2336,79.0,12,12,2.0,85.0
2337,81.0,12,12,2.0,85.0
2338,79.0,12,12,2.0,85.0
2339,81.0,12,12,2.0,85.0
2340,65.0,0,177,2.0,64.0
2341,77.0,0,177,3.0,49.0
2342,79.0,12,12,2.0,85.0
2343,58.0,0,89,3.0,49.0
2344,74.0,48,89,3.0,49.0
2345,58.0,0,89,2.0,64.0
2346,81.0,12,12,2.0,85.0
2347,79.0,12,12,2.0,85.0
2348,81.0,12,12,2.0,85.0
2349,79.0,12,12,2.0,85.0
2350,81.0,12,12,2.0,85.0
2351,79.0,12,12,2.0,85.0
2352,81.0,12,12,2.0,85.0
2353,79.0,12,9,2.0,85.0
2354,60.0,0,89,3.0,49.0
2355,60.0,0,89,2.0,64.0
2356,64.0,0,89,2.0,64.0
2357,76.0,0,89,3.0,49.0
2358,72.0,0,89,3.0,49.0
2359,57.0,0,23,2.0,64.0
2360,65.0,24,23,2.0,64.0
2361,60.0,24,23,2.0,64.0
2362,84.0,0,89,2.0,85.0
2363,65.0,24,23,2.0,64.0
2364,56.0,24,23,2.0,64.0
2365,65.0,24,23,2.0,64.0
2366,59.0,0,23,2.0,64.0
2367,83.0,24,45,2.0,85.0
2368,65.0,24,23,2.0,64.0
2369,57.0,24,23,2.0,64.0
2370,65.0,24,23,2.0,64.0
2371,60.0,24,23,2.0,64.0
2372,84.0,0,89,2.0,85.0
2373,65.0,24,23,2.0,64.0
2374,56.0,24,23,2.0,64.0
2375,65.0,24,23,2.0,64.0
2376,59.0,0,23,2.0,64.0
2377,83.0,24,45,2.0,85.0
2378,65.0,24,23,2.0,64.0
2379,57.0,0,23,2.0,64.0
2380,84.0,24,45,2.0,85.0
2381,65.0,24,23,2.0,64.0
2382,56.0,0,23,2.0,64.0
2383,83.0,24,45,2.0,85.0
2384,65.0,24,23,2.0,64.0
2385,57.0,0,23,2.0,64.0
2386,84.0,24,45,2.0,85.0
2387,65.0,24,23,2.0,64.0
2388,56.0,24,23,2.0,64.0
2389,83.0,0,45,2.0,85.0
2390,65.0,24,23,2.0,64.0
2391,57.0,24,23,2.0,64.0
2392,84.0,0,45,2.0,85.0
2393,65.0,24,23,2.0,64.0
2394,56.0,24,23,2.0,64.0
2395,83.0,0,45,2.0,85.0
2396,65.0,24,23,2.0,64.0
2397,57.0,24,23,2.0,64.0
2398,84.0,0,45,2.0,85.0
2399,65.0,24,23,2.0,64.0
2400,56.0,24,23,2.0,64.0
2401,83.0,0,45,2.0,85.0
2402,65.0,24,23,2.0,64.0
2403,84.0,0,45,2.0,85.0
2404,77.0,0,813,0.0,49.0
2405,65.0,0,813,1.0,49.0
2406,65.0,24,813,0.0,49.0
2407,65.0,24,89,2.0,64.0
2408,57.0,0,89,2.0,64.0
2409,83.0,48,45,2.0,85.0
2410,84.0,48,45,2.0,85.0
2411,85.0,48,45,2.0,85.0
2412,86.0,48,45,2.0,85.0
2413,87.0,48,45,2.0,85.0
2414,88.0,48,45,2.0,85.0
2415,89.0,48,45,2.0,85.0
2416,48.0,0,23,2.0,64.0
2417,60.0,0,45,2.0,85.0
2418,48.0,48,45,3.0,49.0
2419,60.0,0,45,3.0,49.0
2420,69.0,0,45,3.0,49.0
2421,65.0,0,45,3.0,49.0
2422,57.0,24,23,2.0,64.0
2423,62.0,0,23,2.0,85.0
2424,53.0,0,23,2.0,64.0
2425,65.0,0,45,3.0,49.0
2426,60.0,0,45,3.0,49.0
2427,48.0,24,45,3.0,49.0
2428,69.0,0,45,3.0,49.0
2429,64.0,0,23,2.0,85.0
2430,57.0,24,23,2.0,64.0
2431,65.0,0,23,2.0,85.0
2432,48.0,0,23,2.0,64.0
2433,69.0,0,45,3.0,49.0
2434,60.0,24,45,3.0,49.0
2435,65.0,0,45,3.0,49.0
2436,48.0,0,45,3.0,49.0
2437,57.0,0,23,2.0,64.0
2438,67.0,24,23,2.0,85.0
2439,53.0,0,23,2.0,64.0
2440,69.0,24,23,2.0,85.0
2441,69.0,0,45,3.0,49.0
2442,65.0,0,45,3.0,49.0
2443,48.0,0,45,3.0,49.0
2444,60.0,0,45,3.0,49.0
2445,70.0,0,23,2.0,85.0
2446,57.0,24,23,2.0,64.0
2447,48.0,0,23,2.0,64.0
2448,72.0,0,23,2.0,85.0
2449,65.0,0,45,3.0,49.0
2450,60.0,0,45,3.0,49.0
2451,48.0,0,45,3.0,49.0
2452,69.0,24,45,3.0,49.0
2453,57.0,0,23,2.0,64.0
2454,74.0,24,23,2.0,85.0
2455,53.0,0,23,2.0,64.0
2456,76.0,0,23,2.0,85.0
2457,48.0,24,45,3.0,49.0
2458,60.0,0,45,3.0,49.0
2459,65.0,0,45,3.0,49.0
2460,69.0,0,45,3.0,49.0
2461,77.0,24,23,2.0,85.0
2462,57.0,0,23,2.0,64.0
2463,48.0,0,23,2.0,64.0
2464,79.0,0,23,2.0,85.0
2465,65.0,24,45,3.0,49.0
2466,69.0,0,45,3.0,49.0
2467,60.0,0,45,3.0,49.0
2468,48.0,0,45,3.0,49.0
2469,57.0,24,23,2.0,64.0
2470,81.0,0,23,2.0,85.0
2471,53.0,0,23,2.0,64.0
2472,82.0,0,23,2.0,85.0
2473,69.0,0,45,3.0,49.0
2474,48.0,0,45,3.0,49.0
2475,60.0,0,45,3.0,49.0
2476,65.0,24,45,3.0,49.0
2477,84.0,0,23,2.0,85.0
2478,57.0,24,23,2.0,64.0
2479,79.0,0,12,2.0,85.0
2480,67.0,0,23,3.0,34.0
2481,64.0,24,23,3.0,34.0
2482,48.0,0,23,2.0,64.0
2483,81.0,12,12,2.0,85.0
2484,79.0,0,12,2.0,85.0
2485,60.0,0,45,3.0,34.0
2486,36.0,0,45,3.0,34.0
2487,67.0,0,23,3.0,35.0
2488,58.0,0,23,2.0,64.0
2489,64.0,12,23,3.0,35.0
2490,81.0,12,12,2.0,85.0
2491,79.0,12,12,2.0,85.0
2492,64.0,0,23,3.0,37.0
2493,67.0,0,23,3.0,37.0
2494,52.0,0,23,2.0,64.0
2495,81.0,12,12,2.0,85.0
2496,79.0,0,12,2.0,85.0
2497,60.0,0,45,3.0,37.0
2498,36.0,0,45,3.0,37.0
2499,58.0,0,23,2.0,64.0
2500,64.0,12,23,3.0,39.0
2501,67.0,0,23,3.0,39.0
2502,81.0,12,12,2.0,85.0
2503,79.0,0,12,2.0,85.0
2504,64.0,0,23,3.0,41.0
2505,48.0,12,23,2.0,64.0
2506,67.0,0,23,3.0,41.0
2507,81.0,12,12,2.0,85.0
2508,79.0,0,12,2.0,85.0
2509,60.0,0,45,3.0,41.0
2510,36.0,0,45,3.0,41.0
2511,64.0,0,23,3.0,43.0
2512,58.0,12,23,2.0,64.0
2513,67.0,0,23,3.0,43.0
2514,81.0,12,12,2.0,85.0
2515,79.0,0,12,2.0,85.0
2516,64.0,12,23,3.0,45.0
2517,52.0,0,23,2.0,64.0
2518,67.0,0,23,3.0,45.0
2519,81.0,12,12,2.0,85.0
2520,79.0,0,12,2.0,85.0
2521,60.0,0,45,3.0,45.0
2522,36.0,0,45,3.0,45.0
2523,58.0,0,23,2.0,64.0
2524,67.0,12,23,3.0,47.0
2525,64.0,0,23,3.0,47.0
2526,81.0,12,12,2.0,85.0
2527,79.0,0,12,2.0,85.0
2528,70.0,0,23,3.0,49.0
2529,48.0,0,23,2.0,64.0
2530,76.0,0,23,3.0,49.0
2531,81.0,12,12,2.0,85.0
2532,79.0,0,12,2.0,85.0
2533,36.0,0,45,3.0,49.0
2534,60.0,12,45,3.0,49.0
2535,76.0,0,23,3.0,50.0
2536,58.0,0,23,2.0,64.0
2537,70.0,12,23,3.0,50.0
2538,81.0,12,12,2.0,85.0
2539,79.0,0,12,2.0,85.0
2540,70.0,0,23,3.0,52.0
2541,52.0,0,23,2.0,64.0
2542,76.0,12,23,3.0,52.0
2543,81.0,12,12,2.0,85.0
2544,79.0,0,12,2.0,85.0
2545,36.0,0,45,3.0,52.0
2546,60.0,0,45,3.0,52.0
2547,70.0,0,23,3.0,54.0
2548,58.0,0,23,2.0,64.0
2549,76.0,12,23,3.0,54.0
2550,81.0,12,12,2.0,85.0
2551,79.0,0,12,2.0,85.0
2552,76.0,0,23,3.0,56.0
2553,48.0,0,23,2.0,64.0
2554,70.0,0,23,3.0,56.0
2555,81.0,12,12,2.0,85.0
2556,79.0,12,12,2.0,85.0
2557,60.0,12,45,3.0,56.0
2558,36.0,0,45,3.0,56.0
2559,58.0,0,23,2.0,64.0
2560,76.0,0,23,3.0,58.0
2561,70.0,0,23,3.0,58.0
2562,81.0,12,12,2.0,85.0
2563,79.0,0,12,2.0,85.0
2564,81.0,12,6,2.0,85.0
2565,76.0,0,23,3.0,60.0
2566,70.0,12,23,3.0,60.0
2567,52.0,0,23,2.0,64.0
2568,79.0,0,177,0.0,64.0
2569,76.0,0,177,0.0,64.0
2570,60.0,0,45,3.0,60.0
2571,36.0,0,45,3.0,60.0
2572,70.0,0,23,3.0,62.0
2573,76.0,0,23,3.0,62.0
2574,58.0,12,23,2.0,64.0
2575,69.0,0,23,3.0,85.0
2576,41.0,0,45,3.0,85.0
2577,60.0,24,45,3.0,85.0
2578,70.0,24,23,3.0,85.0
2579,72.0,24,23,3.0,85.0
2580,57.0,0,89,2.0,64.0
2581,53.0,0,89,2.0,64.0
2582,77.0,0,89,2.0,85.0
2583,77.0,0,89,0.0,64.0
2584,77.0,0,89,3.0,85.0
2585,57.0,0,45,3.0,85.0
2586,41.0,0,45,3.0,85.0
2587,69.0,24,23,3.0,85.0
2588,65.0,0,20,3.0,85.0
2589,69.0,0,20,0.0,64.0
2590,69.0,0,20,3.0,85.0
2591,41.0,0,45,3.0,85.0
2592,69.0,0,20,3.0,85.0
2593,65.0,0,20,3.0,85.0
2594,69.0,0,20,0.0,64.0
2595,41.0,48,45,3.0,85.0
2596,41.0,48,45,3.0,85.0
2597,66.0,0,45,3.0,85.0
2598,69.0,0,45,3.0,85.0
2599,69.0,0,45,0.0,64.0
2600,67.0,0,45,3.0,85.0
2601,41.0,0,45,3.0,85.0
2602,70.0,0,45,3.0,85.0
2603,70.0,0,45,0.0,64.0
2604,70.0,0,20,3.0,85.0
2605,67.0,0,20,3.0,85.0
2606,70.0,0,45,0.0,64.0
2607,41.0,48,45,3.0,85.0
2608,67.0,0,20,3.0,85.0
2609,70.0,0,20,3.0,85.0
2610,70.0,0,45,0.0,64.0
2611,41.0,48,45,3.0,85.0
2612,71.0,0,45,3.0,85.0
2613,68.0,0,45,3.0,85.0
2614,41.0,0,45,3.0,85.0
2615,71.0,0,45,0.0,64.0
2616,69.0,0,45,3.0,85.0
2617,72.0,0,45,0.0,64.0
2618,41.0,0,45,3.0,85.0
2619,72.0,48,45,3.0,85.0
2620,72.0,0,20,0.0,64.0
2621,69.0,0,20,3.0,85.0
2622,72.0,0,20,3.0,85.0
2623,41.0,0,45,3.0,85.0
2624,72.0,48,20,3.0,85.0
2625,69.0,0,20,3.0,85.0
2626,72.0,0,20,0.0,64.0
2627,41.0,0,45,3.0,85.0
2628,73.0,0,45,3.0,85.0
2629,69.0,0,45,3.0,85.0
2630,41.0,48,45,3.0,85.0
2631,73.0,0,45,0.0,64.0
2632,77.0,0,265,0.0,64.0
2633,70.0,0,45,3.0,85.0
2634,74.0,48,45,3.0,85.0
2635,74.0,0,45,0.0,64.0
2636,41.0,0,45,3.0,85.0
2637,74.0,0,45,3.0,85.0
2638,41.0,0,45,3.0,85.0
2639,70.0,0,45,3.0,85.0
2640,74.0,48,45,0.0,64.0
2641,82.0,0,89,0.0,64.0
2642,76.0,0,45,3.0,85.0
2643,67.0,0,45,3.0,85.0
2644,76.0,0,45,0.0,64.0
2645,41.0,0,45,3.0,85.0
2646,77.0,0,45,3.0,85.0
2647,66.0,48,45,3.0,85.0
2648,41.0,0,45,3.0,85.0
2649,77.0,0,45,0.0,64.0
2650,65.0,0,813,1.0,64.0
2651,69.0,0,45,3.0,85.0
2652,81.0,0,89,0.0,64.0
2653,77.0,0,45,3.0,49.0
2654,65.0,96,45,3.0,49.0
2655,63.0,48,45,3.0,49.0
2656,75.0,0,45,3.0,49.0
2657,61.0,48,45,3.0,49.0
2658,73.0,0,45,3.0,49.0
2659,62.0,0,45,3.0,49.0
2660,74.0,48,45,3.0,49.0
2661,59.0,48,45,3.0,49.0
2662,71.0,0,45,3.0,49.0
2663,73.0,48,45,3.0,49.0
2664,60.0,0,45,3.0,49.0
2665,57.0,48,45,3.0,49.0
2666,69.0,0,45,3.0,49.0
2667,70.0,48,45,3.0,49.0
2668,58.0,0,45,3.0,49.0
2669,56.0,48,45,3.0,49.0
2670,68.0,0,45,3.0,49.0
2671,57.0,48,45,3.0,49.0
2672,69.0,0,45,3.0,49.0
2673,66.0,0,45,3.0,85.0
2674,76.0,0,45,0.0,64.0
2675,57.0,0,45,3.0,85.0
2676,48.0,0,45,3.0,85.0
2677,78.0,0,45,0.0,64.0
2678,63.0,48,45,3.0,85.0
2679,79.0,0,45,0.0,49.0
2680,46.0,0,45,3.0,49.0
2681,62.0,48,45,3.0,49.0
2682,74.0,0,45,0.0,49.0
2683,58.0,0,45,3.0,49.0
2684,67.0,0,45,3.0,49.0
2685,73.0,48,45,3.0,49.0
2686,74.0,48,45,3.0,49.0
2687,76.0,0,45,0.0,64.0
2688,46.0,0,45,3.0,85.0
2689,61.0,48,45,3.0,85.0
2690,73.0,0,45,0.0,64.0
2691,55.0,0,45,3.0,85.0
2692,64.0,0,45,3.0,85.0
2693,57.0,0,45,3.0,49.0
2694,65.0,0,45,3.0,49.0
2695,72.0,0,45,0.0,49.0
2696,60.0,48,45,3.0,49.0
2697,45.0,0,45,3.0,49.0
2698,77.0,0,45,0.0,49.0
2699,71.0,48,45,3.0,49.0
2700,72.0,48,45,3.0,49.0
2701,77.0,0,67,3.0,85.0
2702,41.0,0,67,3.0,85.0
2703,65.0,0,67,3.0,85.0
2704,77.0,0,89,0.0,64.0
2705,65.0,0,89,1.0,64.0
2706,65.0,0,23,3.0,85.0
2707,41.0,72,23,3.0,85.0
2708,77.0,0,23,3.0,85.0
2709,69.0,0,67,3.0,85.0
2710,81.0,24,67,3.0,85.0
2711,45.0,0,67,3.0,85.0
2712,81.0,0,89,0.0,64.0
2713,81.0,72,23,3.0,85.0
2714,69.0,0,23,3.0,85.0
2715,45.0,0,23,3.0,85.0
2716,72.0,0,89,3.0,85.0
2717,48.0,0,89,3.0,85.0
2718,72.0,0,89,1.0,64.0
2719,84.0,0,89,0.0,64.0
2720,81.0,0,67,0.0,64.0
2721,69.0,0,67,3.0,85.0
2722,45.0,0,67,3.0,85.0
2723,65.0,0,23,3.0,85.0
2724,41.0,0,23,3.0,85.0
2725,77.0,72,23,0.0,64.0
2726,60.0,0,89,3.0,85.0
2727,84.0,0,89,0.0,64.0
2728,72.0,24,89,1.0,64.0
2729,72.0,0,89,3.0,85.0
2730,48.0,0,89,3.0,85.0
2731,60.0,0,89,3.0,85.0
2732,72.0,0,89,0.0,64.0
2733,48.0,0,89,3.0,85.0
2734,36.0,0,89,3.0,85.0
2735,72.0,96,89,1.0,64.0
2736,57.0,0,89,3.0,85.0
2737,72.0,96,89,1.0,64.0
2738,65.0,0,89,3.0,85.0
2739,41.0,0,89,3.0,85.0
2740,53.0,0,89,3.0,85.0
2741,69.0,0,89,0.0,49.0
2742,77.0,0,89,0.0,64.0
2743,65.0,0,89,1.0,85.0
2744,69.0,0,133,3.0,85.0
2745,77.0,96,133,3.0,85.0
2746,67.0,48,23,3.0,49.0
2747,76.0,0,23,3.0,49.0
2748,77.0,0,23,3.0,49.0
2749,69.0,24,23,3.0,49.0
2750,79.0,24,23,3.0,49.0
2751,70.0,0,23,3.0,49.0
2752,67.0,24,23,3.0,49.0
2753,76.0,0,23,3.0,49.0
2754,70.0,0,10,3.0,49.0
2755,79.0,24,10,3.0,49.0
2756,48.0,0,177,3.0,85.0
2757,72.0,0,177,1.0,64.0
2758,60.0,96,177,3.0,85.0
2759,67.0,0,10,3.0,49.0
2760,76.0,24,10,3.0,49.0
2761,64.0,0,89,0.0,49.0
2762,70.0,0,89,0.0,49.0
2763,65.0,0,45,1.0,34.0
2764,69.0,24,89,3.0,49.0
2765,77.0,0,89,3.0,49.0
2766,65.0,0,89,3.0,49.0
2767,41.0,0,89,3.0,49.0
2768,65.0,0,89,0.0,49.0
2769,69.0,0,89,0.0,49.0
2770,72.0,0,89,1.0,64.0
2771,81.0,0,133,3.0,85.0
2772,77.0,0,133,3.0,85.0
2773,72.0,96,133,3.0,85.0
2774,76.0,48,23,3.0,49.0
2775,79.0,0,23,3.0,49.0
2776,77.0,0,23,3.0,49.0
2777,81.0,24,23,3.0,49.0
2778,79.0,24,23,3.0,49.0
2779,82.0,0,23,3.0,49.0
2780,76.0,24,23,3.0,49.0
2781,79.0,0,23,3.0,49.0
2782,79.0,0,10,3.0,49.0
2783,82.0,24,10,3.0,49.0
2784,36.0,0,177,3.0,85.0
2785,60.0,96,177,3.0,85.0
2786,72.0,0,177,1.0,64.0
2787,79.0,24,10,3.0,49.0
2788,76.0,0,10,3.0,49.0
2789,76.0,0,89,0.0,34.0
2790,70.0,0,89,0.0,34.0
2791,69.0,0,89,0.0,64.0
2792,65.0,24,89,3.0,85.0
2793,65.0,0,89,1.0,64.0
2794,77.0,0,89,3.0,49.0
2795,41.0,0,89,3.0,85.0
2796,72.0,0,89,1.0,64.0
2797,77.0,0,89,0.0,64.0
2798,77.0,0,39,0.0,64.0
2799,72.0,0,39,1.0,64.0
2800,65.0,0,39,3.0,85.0
2801,72.0,0,39,3.0,85.0
2802,69.0,0,39,3.0,85.0
2803,36.0,0,39,3.0,85.0
2804,65.0,0,39,1.0,64.0
2805,69.0,0,39,0.0,64.0
2806,77.0,0,39,3.0,85.0
2807,33.0,0,39,3.0,85.0
2808,69.0,0,39,3.0,85.0
2809,81.0,0,39,0.0,64.0
2810,65.0,0,39,1.0,64.0
2811,77.0,0,39,0.0,64.0
2812,77.0,0,39,3.0,85.0
2813,72.0,0,39,1.0,64.0
2814,81.0,0,39,3.0,85.0
2815,72.0,0,39,3.0,85.0
2816,69.0,0,39,3.0,85.0
2817,84.0,0,39,3.0,85.0
2818,65.0,0,39,1.0,64.0
2819,72.0,96,39,3.0,85.0
2820,81.0,0,39,3.0,85.0
2821,29.0,0,39,3.0,85.0
2822,65.0,0,39,3.0,85.0
2823,81.0,0,39,0.0,64.0
2824,72.0,0,39,1.0,64.0
2825,84.0,0,39,0.0,64.0
2826,65.0,0,10,3.0,49.0
2827,60.0,24,10,3.0,49.0
2828,41.0,0,45,3.0,85.0
2829,65.0,0,45,1.0,49.0
2830,65.0,24,10,3.0,49.0
2831,60.0,24,10,3.0,49.0
2832,69.0,0,89,0.0,49.0
2833,57.0,96,89,3.0,85.0
2834,64.0,24,10,3.0,49.0
2835,67.0,0,23,3.0,49.0
2836,60.0,24,10,3.0,49.0
2837,72.0,0,89,0.0,49.0
2838,72.0,0,45,1.0,49.0
2839,36.0,0,45,3.0,85.0
2840,70.0,0,23,3.0,49.0
2841,64.0,0,10,3.0,49.0
2842,69.0,0,23,3.0,49.0
2843,60.0,0,10,3.0,49.0
2844,70.0,0,89,0.0,49.0
2845,58.0,0,89,3.0,85.0
2846,76.0,24,45,0.0,49.0
2847,67.0,24,23,3.0,49.0
2848,65.0,0,10,3.0,49.0
2849,60.0,24,10,3.0,49.0
2850,65.0,0,45,1.0,49.0
2851,77.0,0,45,0.0,49.0
2852,41.0,0,45,3.0,85.0
2853,65.0,24,10,3.0,49.0
2854,60.0,24,10,3.0,49.0
2855,69.0,0,89,0.0,49.0
2856,57.0,24,89,3.0,85.0
2857,64.0,0,10,3.0,49.0
2858,67.0,24,23,3.0,49.0
2859,60.0,0,10,3.0,49.0
2860,72.0,0,89,0.0,49.0
2861,72.0,0,45,1.0,49.0
2862,36.0,0,45,3.0,85.0
2863,70.0,24,23,3.0,49.0
2864,64.0,24,10,3.0,49.0
2865,69.0,0,23,3.0,49.0
2866,60.0,0,10,3.0,49.0
2867,70.0,0,89,0.0,49.0
2868,58.0,0,89,3.0,85.0
2869,76.0,0,45,0.0,49.0
2870,67.0,24,23,3.0,49.0
2871,65.0,0,10,3.0,49.0
2872,60.0,24,10,3.0,49.0
2873,77.0,0,45,0.0,49.0
2874,65.0,0,45,1.0,49.0
2875,41.0,0,45,3.0,85.0
2876,65.0,0,10,3.0,49.0
2877,60.0,24,10,3.0,49.0
2878,57.0,24,89,3.0,85.0
2879,69.0,0,89,0.0,49.0
2880,64.0,0,10,3.0,49.0
2881,67.0,0,23,3.0,49.0
2882,60.0,24,10,3.0,49.0
2883,72.0,0,89,0.0,49.0
2884,72.0,0,45,1.0,49.0
2885,36.0,0,45,3.0,85.0
2886,70.0,0,23,3.0,49.0
2887,64.0,0,10,3.0,49.0
2888,69.0,24,23,3.0,49.0
2889,60.0,0,10,3.0,49.0
2890,58.0,0,89,3.0,85.0
2891,70.0,24,89,0.0,49.0
2892,76.0,0,45,0.0,49.0
2893,67.0,24,23,3.0,49.0
2894,77.0,24,45,0.0,49.0
2895,65.0,0,89,1.0,49.0
2896,29.0,0,89,3.0,85.0
2897,65.0,0,89,3.0,49.0
2898,69.0,0,89,0.0,49.0
2899,57.0,0,89,3.0,85.0
2900,72.0,48,89,0.0,49.0
2901,76.0,96,45,0.0,49.0
2902,69.0,0,45,2.0,64.0
2903,65.0,48,45,2.0,64.0
2904,69.0,48,45,2.0,64.0
2905,65.0,0,45,2.0,64.0
2906,72.0,0,133,2.0,85.0
2907,69.0,0,45,2.0,64.0
2908,65.0,48,45,2.0,64.0
2909,74.0,48,23,2.0,85.0
2910,69.0,0,45,2.0,64.0
2911,65.0,0,45,2.0,64.0
2912,71.0,24,23,2.0,85.0
2913,72.0,24,45,2.0,85.0
2914,65.0,0,45,2.0,64.0
2915,69.0,0,45,2.0,64.0
2916,74.0,48,23,2.0,85.0
2917,69.0,0,45,2.0,64.0
2918,65.0,0,45,2.0,64.0
2919,76.0,24,23,2.0,85.0
2920,77.0,24,23,2.0,85.0
2921,69.0,0,45,2.0,64.0
2922,65.0,0,45,2.0,64.0
2923,79.0,24,23,2.0,85.0
2924,81.0,24,23,2.0,85.0
2925,65.0,0,45,2.0,64.0
2926,69.0,0,45,2.0,64.0
2927,77.0,24,23,2.0,85.0
2928,76.0,0,45,0.0,49.0
2929,72.0,0,45,0.0,49.0
2930,82.0,0,45,2.0,85.0
2931,67.0,24,89,2.0,64.0
2932,64.0,0,89,2.0,64.0
2933,79.0,0,45,0.0,49.0
2934,79.0,48,45,2.0,85.0
2935,76.0,0,45,0.0,49.0
2936,60.0,0,133,3.0,49.0
2937,64.0,0,133,3.0,49.0
2938,55.0,0,133,3.0,49.0
2939,76.0,0,45,2.0,85.0
2940,48.0,0,177,3.0,49.0
2941,67.0,0,45,3.0,49.0
2942,52.0,48,45,3.0,49.0
2943,64.0,0,45,3.0,49.0
2944,72.0,0,45,2.0,85.0
2945,64.0,0,45,3.0,49.0
2946,67.0,0,45,3.0,49.0
2947,70.0,0,45,2.0,85.0
2948,82.0,48,177,0.0,49.0
2949,79.0,0,177,0.0,49.0
2950,36.0,0,89,3.0,49.0
2951,48.0,48,89,3.0,49.0
2952,67.0,0,45,3.0,49.0
2953,60.0,0,45,2.0,64.0
2954,67.0,0,45,2.0,85.0
2955,48.0,48,45,2.0,64.0
2956,70.0,0,45,3.0,49.0
2957,59.0,48,45,2.0,64.0
2958,47.0,0,45,2.0,64.0
2959,48.0,48,45,2.0,64.0
2960,60.0,0,45,2.0,64.0
2961,57.0,48,45,3.0,49.0
2962,57.0,0,45,2.0,64.0
2963,72.0,0,67,2.0,85.0
2964,65.0,0,45,3.0,49.0
2965,65.0,48,45,2.0,64.0
2966,77.0,0,45,3.0,49.0
2967,73.0,24,23,2.0,85.0
2968,75.0,0,6,2.0,85.0
2969,58.0,24,45,2.0,64.0
2970,58.0,0,45,3.0,49.0
2971,74.0,6,39,2.0,85.0
2972,72.0,42,23,2.0,85.0
2973,70.0,0,45,3.0,49.0
2974,65.0,0,45,2.0,64.0
2975,67.0,0,45,3.0,49.0
2976,70.0,24,23,2.0,85.0
2977,60.0,24,45,3.0,49.0
2978,60.0,0,45,2.0,64.0
2979,69.0,0,89,2.0,85.0
2980,65.0,0,45,3.0,49.0
2981,69.0,48,45,3.0,49.0
2982,65.0,0,45,2.0,64.0
2983,60.0,0,45,3.0,49.0
2984,60.0,48,45,2.0,64.0
2985,67.0,0,89,2.0,85.0
2986,67.0,0,45,3.0,49.0
2987,64.0,48,45,3.0,49.0
2988,64.0,0,45,2.0,64.0
2989,72.0,0,45,0.0,49.0
2990,76.0,0,45,0.0,49.0
2991,82.0,0,45,2.0,85.0
2992,64.0,0,89,2.0,64.0
2993,60.0,0,89,2.0,64.0
2994,79.0,48,45,2.0,85.0
2995,76.0,0,45,0.0,49.0
2996,79.0,0,45,0.0,49.0
2997,64.0,0,133,3.0,49.0
2998,60.0,48,133,3.0,49.0
2999,55.0,0,133,3.0,49.0
3000,76.0,48,45,2.0,85.0
3001,48.0,0,177,3.0,49.0
3002,67.0,0,45,3.0,49.0
3003,72.0,0,45,2.0,85.0
3004,64.0,48,45,3.0,49.0
3005,52.0,0,45,3.0,49.0
3006,70.0,0,45,2.0,85.0
3007,67.0,0,45,3.0,49.0
3008,64.0,0,45,3.0,49.0
3009,82.0,0,177,0.0,49.0
3010,79.0,0,177,0.0,49.0
3011,36.0,0,89,3.0,49.0
3012,48.0,48,89,3.0,49.0
3013,67.0,0,45,2.0,85.0
3014,60.0,0,45,2.0,64.0
3015,67.0,0,45,3.0,49.0
3016,70.0,48,45,3.0,49.0
3017,48.0,0,45,2.0,64.0
3018,47.0,0,45,2.0,64.0
3019,59.0,48,45,2.0,64.0
3020,48.0,0,45,2.0,64.0
3021,60.0,48,45,2.0,64.0
3022,81.0,0,23,2.0,85.0
3023,72.0,0,45,0.0,49.0
3024,76.0,48,45,0.0,49.0
3025,82.0,24,23,2.0,85.0
3026,78.0,0,23,2.0,85.0
3027,79.0,0,45,0.0,49.0
3028,76.0,24,45,0.0,49.0
3029,79.0,24,23,2.0,85.0
3030,75.0,0,23,2.0,85.0
3031,60.0,0,133,3.0,49.0
3032,55.0,0,133,3.0,49.0
3033,64.0,0,133,3.0,49.0
3034,75.0,24,23,2.0,85.0
3035,71.0,0,23,2.0,85.0
3036,48.0,0,177,3.0,49.0
3037,52.0,0,45,3.0,49.0
3038,64.0,24,45,3.0,49.0
3039,67.0,0,45,3.0,49.0
3040,72.0,24,23,2.0,85.0
3041,70.0,0,45,2.0,85.0
3042,64.0,0,45,3.0,49.0
3043,67.0,0,45,3.0,49.0
3044,79.0,0,177,0.0,49.0
3045,82.0,24,177,0.0,49.0
3046,48.0,24,89,3.0,49.0
3047,36.0,0,89,3.0,49.0
3048,48.0,0,45,2.0,64.0
3049,60.0,0,45,2.0,64.0
3050,67.0,0,45,2.0,85.0
3051,67.0,0,45,3.0,49.0
3052,70.0,48,45,3.0,49.0
3053,47.0,0,45,2.0,64.0
3054,59.0,48,45,2.0,64.0
3055,60.0,48,45,2.0,64.0
3056,48.0,0,45,2.0,64.0
3057,72.0,48,23,2.0,85.0
3058,57.0,0,45,3.0,49.0
3059,57.0,0,45,2.0,64.0
3060,74.0,24,23,2.0,85.0
3061,76.0,0,23,2.0,85.0
3062,65.0,24,45,2.0,64.0
3063,77.0,0,45,3.0,49.0
3064,65.0,0,45,3.0,49.0
3065,77.0,24,23,2.0,85.0
3066,76.0,0,23,2.0,85.0
3067,58.0,24,45,2.0,64.0
3068,58.0,0,45,3.0,49.0
3069,74.0,24,23,2.0,85.0
3070,72.0,24,23,2.0,85.0
3071,65.0,0,45,3.0,49.0
3072,65.0,0,45,2.0,64.0
3073,70.0,0,45,3.0,49.0
3074,70.0,24,23,2.0,85.0
3075,69.0,0,23,2.0,85.0
3076,60.0,0,45,3.0,49.0
3077,60.0,24,45,2.0,64.0
3078,70.0,24,23,2.0,85.0
3079,72.0,0,23,2.0,85.0
3080,65.0,24,45,3.0,49.0
3081,69.0,0,45,3.0,49.0
3082,65.0,0,45,2.0,64.0
3083,74.0,24,23,2.0,85.0
3084,72.0,24,23,2.0,85.0
3085,60.0,0,45,2.0,64.0
3086,60.0,0,45,3.0,49.0
3087,70.0,24,23,2.0,85.0
3088,69.0,0,23,2.0,85.0
3089,64.0,0,45,2.0,64.0
3090,67.0,0,45,3.0,49.0
3091,64.0,24,45,3.0,49.0
3092,67.0,24,23,2.0,85.0
3093,65.0,0,23,3.0,106.0
3094,41.0,0,23,3.0,106.0
3095,43.0,0,23,3.0,106.0
3096,67.0,0,23,3.0,106.0
3097,45.0,24,23,3.0,106.0
3098,69.0,0,23,3.0,106.0
3099,65.0,0,89,2.0,85.0
3100,60.0,24,89,2.0,64.0
3101,53.0,0,89,2.0,64.0
3102,70.0,0,23,3.0,106.0
3103,46.0,0,23,3.0,106.0
3104,69.0,0,23,3.0,106.0
3105,45.0,0,23,3.0,106.0
3106,67.0,0,23,3.0,106.0
3107,43.0,24,23,3.0,106.0
3108,41.0,0,23,3.0,106.0
3109,65.0,0,23,3.0,106.0
3110,63.0,0,23,3.0,106.0
3111,39.0,0,23,3.0,106.0
3112,62.0,0,23,3.0,106.0
3113,38.0,0,23,3.0,106.0
3114,63.0,0,23,3.0,106.0
3115,39.0,24,23,3.0,106.0
3116,65.0,0,23,3.0,106.0
3117,41.0,0,23,3.0,106.0
3118,67.0,0,23,3.0,106.0
3119,43.0,24,23,3.0,106.0
3120,41.0,0,23,3.0,106.0
3121,65.0,0,23,3.0,106.0
3122,63.0,0,23,3.0,106.0
3123,39.0,0,23,3.0,106.0
3124,62.0,0,23,3.0,106.0
3125,38.0,0,23,3.0,106.0
3126,36.0,0,23,3.0,106.0
3127,60.0,0,23,3.0,106.0
3128,77.0,24,23,2.0,85.0
3129,80.0,24,23,2.0,85.0
3130,35.0,0,89,3.0,85.0
3131,59.0,0,89,3.0,85.0
3132,35.0,0,89,2.0,64.0
3133,47.0,0,89,2.0,64.0
3134,77.0,24,23,2.0,85.0
3135,74.0,0,23,2.0,85.0
3136,77.0,24,23,2.0,85.0
3137,71.0,24,23,2.0,85.0
3138,74.0,24,23,2.0,85.0
3139,68.0,24,23,2.0,85.0
3140,71.0,24,23,2.0,85.0
3141,65.0,24,23,2.0,85.0
3142,77.0,24,177,0.0,64.0
3143,80.0,0,177,0.0,64.0
3144,68.0,24,23,2.0,85.0
3145,62.0,0,23,2.0,85.0
3146,65.0,24,23,2.0,85.0
3147,59.0,24,23,2.0,85.0
3148,74.0,0,89,0.0,64.0
3149,77.0,24,89,0.0,64.0
3150,62.0,24,23,2.0,85.0
3151,79.0,24,23,2.0,85.0
3152,84.0,24,23,2.0,85.0
3153,60.0,0,89,3.0,85.0
3154,36.0,24,89,3.0,85.0
3155,36.0,0,89,2.0,64.0
3156,48.0,0,89,2.0,64.0
3157,79.0,24,23,2.0,85.0
3158,75.0,0,23,2.0,85.0
3159,79.0,24,23,2.0,85.0
3160,72.0,24,23,2.0,85.0
3161,75.0,24,23,2.0,85.0
3162,67.0,24,23,2.0,85.0
3163,72.0,24,23,2.0,85.0
3164,63.0,24,23,2.0,85.0
3165,79.0,24,177,0.0,64.0
3166,75.0,0,177,0.0,64.0
3167,67.0,24,23,2.0,85.0
3168,60.0,0,23,2.0,85.0
3169,63.0,24,23,2.0,85.0
3170,55.0,24,23,2.0,85.0
3171,72.0,24,89,0.0,64.0
3172,75.0,0,89,0.0,64.0
3173,60.0,24,23,2.0,85.0
3174,79.0,24,23,2.0,85.0
3175,82.0,24,23,2.0,85.0
3176,61.0,0,89,3.0,85.0
3177,49.0,24,89,2.0,64.0
3178,37.0,0,89,2.0,64.0
3179,37.0,0,89,3.0,85.0
3180,79.0,24,23,2.0,85.0
3181,76.0,24,23,2.0,85.0
3182,79.0,24,23,2.0,85.0
3183,73.0,24,23,2.0,85.0
3184,76.0,24,23,2.0,85.0
3185,70.0,24,23,2.0,85.0
3186,73.0,24,23,2.0,85.0
3187,67.0,24,23,2.0,85.0
3188,82.0,0,177,0.0,64.0
3189,79.0,0,177,0.0,64.0
3190,70.0,24,23,2.0,85.0
3191,64.0,0,23,2.0,85.0
3192,67.0,24,23,2.0,85.0
3193,61.0,24,23,2.0,85.0
3194,75.0,0,89,0.0,64.0
3195,79.0,24,89,0.0,64.0
3196,64.0,24,23,2.0,85.0
3197,50.0,0,23,2.0,64.0
3198,78.0,0,45,0.0,64.0
3199,74.0,0,45,0.0,64.0
3200,62.0,24,23,2.0,64.0
3201,61.0,24,23,2.0,64.0
3202,62.0,0,89,3.0,85.0
3203,38.0,0,89,3.0,85.0
3204,74.0,0,45,2.0,85.0
3205,62.0,24,23,2.0,64.0
3206,60.0,0,23,2.0,64.0
3207,81.0,24,45,2.0,85.0
3208,62.0,24,23,2.0,64.0
3209,58.0,24,23,2.0,64.0
3210,79.0,0,45,2.0,85.0
3211,62.0,24,23,2.0,64.0
3212,57.0,0,23,2.0,64.0
3213,78.0,24,45,2.0,85.0
3214,62.0,24,23,2.0,64.0
3215,55.0,0,23,2.0,64.0
3216,75.0,24,45,2.0,85.0
3217,62.0,24,23,2.0,64.0
3218,54.0,24,23,2.0,64.0
3219,74.0,0,45,2.0,85.0
3220,62.0,24,23,2.0,64.0
3221,50.0,24,23,2.0,64.0
3222,72.0,0,45,2.0,85.0
3223,62.0,24,23,2.0,64.0
3224,55.0,24,23,2.0,64.0
3225,70.0,0,45,2.0,85.0
3226,62.0,24,23,2.0,64.0
3227,58.0,24,23,2.0,64.0
3228,74.0,0,45,2.0,85.0
3229,86.0,0,45,2.0,85.0
3230,62.0,24,23,2.0,64.0
3231,57.0,24,23,2.0,64.0
3232,73.0,0,45,2.0,85.0
3233,85.0,0,45,2.0,85.0
3234,62.0,24,23,2.0,64.0
3235,54.0,24,23,2.0,64.0
3236,72.0,0,45,2.0,85.0
3237,84.0,0,45,2.0,85.0
3238,62.0,24,23,2.0,64.0
3239,55.0,0,23,2.0,64.0
3240,71.0,24,45,2.0,85.0
3241,83.0,0,45,2.0,85.0
3242,62.0,24,23,2.0,64.0
3243,51.0,0,23,2.0,64.0
3244,70.0,0,45,2.0,85.0
3245,82.0,24,45,2.0,85.0
3246,55.0,24,23,2.0,64.0
3247,48.0,24,23,2.0,64.0
3248,69.0,0,45,2.0,85.0
3249,81.0,0,45,2.0,85.0
3250,57.0,24,23,2.0,64.0
3251,49.0,0,23,2.0,64.0
3252,67.0,0,45,2.0,85.0
3253,79.0,24,45,2.0,85.0
3254,57.0,24,23,2.0,64.0
3255,50.0,0,23,2.0,64.0
3256,66.0,0,45,2.0,85.0
3257,78.0,24,45,2.0,85.0
3258,62.0,24,23,2.0,64.0
3259,61.0,0,23,2.0,64.0
3260,74.0,24,45,2.0,85.0
3261,62.0,24,23,2.0,64.0
3262,81.0,24,23,2.0,85.0
3263,60.0,0,23,2.0,64.0
3264,82.0,0,23,2.0,85.0
3265,62.0,24,23,2.0,64.0
3266,79.0,0,23,2.0,85.0
3267,58.0,24,23,2.0,64.0
3268,81.0,24,23,2.0,85.0
3269,62.0,0,23,2.0,64.0
3270,78.0,24,23,2.0,85.0
3271,57.0,0,23,2.0,64.0
3272,62.0,24,23,2.0,64.0
3273,79.0,0,23,2.0,85.0
3274,55.0,0,23,2.0,64.0
3275,75.0,24,23,2.0,85.0
3276,62.0,24,23,2.0,64.0
3277,77.0,0,23,2.0,85.0
3278,54.0,0,23,2.0,64.0
3279,74.0,24,23,2.0,85.0
3280,62.0,0,23,2.0,64.0
3281,75.0,24,23,2.0,85.0
3282,50.0,0,23,2.0,64.0
3283,72.0,24,23,2.0,85.0
3284,62.0,0,23,2.0,64.0
3285,74.0,24,23,2.0,85.0
3286,55.0,24,23,2.0,64.0
3287,70.0,0,45,2.0,85.0
3288,62.0,24,23,2.0,64.0
3289,58.0,0,23,2.0,64.0
3290,74.0,24,23,2.0,85.0
3291,62.0,24,23,2.0,64.0
3292,86.0,0,23,2.0,85.0
3293,57.0,24,23,2.0,64.0
3294,73.0,0,23,2.0,85.0
3295,62.0,0,23,2.0,64.0
3296,85.0,24,23,2.0,85.0
3297,72.0,24,23,2.0,85.0
3298,54.0,0,23,2.0,64.0
3299,84.0,24,23,2.0,85.0
3300,62.0,0,23,2.0,64.0
3301,71.0,24,23,2.0,85.0
3302,55.0,0,23,2.0,64.0
3303,62.0,0,23,2.0,64.0
3304,83.0,24,23,2.0,85.0
3305,51.0,0,23,2.0,64.0
3306,70.0,24,23,2.0,85.0
3307,55.0,0,23,2.0,64.0
3308,82.0,24,23,2.0,85.0
3309,48.0,24,23,2.0,64.0
3310,69.0,0,23,2.0,85.0
3311,81.0,0,23,2.0,85.0
3312,57.0,24,23,2.0,64.0
3313,49.0,24,23,2.0,64.0
3314,67.0,0,23,2.0,85.0
3315,79.0,0,23,2.0,85.0
3316,58.0,24,23,2.0,64.0
3317,78.0,0,23,2.0,85.0
3318,79.0,24,23,2.0,85.0
3319,81.0,24,23,2.0,85.0
3320,50.0,0,89,2.0,64.0
3321,57.0,0,89,2.0,64.0
3322,62.0,0,41,3.0,49.0
3323,57.0,0,45,3.0,49.0
3324,79.0,24,23,2.0,85.0
3325,79.0,0,6,2.0,85.0
3326,66.0,0,45,3.0,49.0
3327,78.0,6,39,2.0,85.0
3328,62.0,24,45,3.0,49.0
3329,76.0,0,23,2.0,85.0
3330,69.0,0,45,3.0,49.0
3331,66.0,42,45,3.0,49.0
3332,74.0,24,23,2.0,85.0
3333,78.0,0,23,2.0,85.0
3334,79.0,24,23,2.0,85.0
3335,81.0,24,23,2.0,85.0
3336,60.0,24,89,3.0,85.0
3337,50.0,0,89,2.0,64.0
3338,48.0,0,89,2.0,64.0
3339,57.0,0,89,2.0,64.0
3340,54.0,0,89,2.0,64.0
3341,66.0,0,45,3.0,49.0
3342,62.0,0,45,3.0,49.0
3343,79.0,24,23,2.0,85.0
3344,79.0,0,6,2.0,85.0
3345,66.0,0,45,3.0,49.0
3346,69.0,24,45,3.0,49.0
3347,78.0,6,39,2.0,85.0
3348,76.0,0,23,2.0,85.0
3349,69.0,0,45,3.0,49.0
3350,74.0,42,45,3.0,49.0
3351,74.0,24,23,2.0,85.0
3352,86.0,0,23,2.0,85.0
3353,58.0,24,45,2.0,64.0
3354,74.0,0,45,3.0,49.0
3355,43.0,0,45,3.0,49.0
3356,58.0,0,45,3.0,85.0
3357,55.0,0,45,2.0,64.0
3358,82.0,0,45,3.0,49.0
3359,82.0,24,23,2.0,85.0
3360,81.0,0,23,2.0,85.0
3361,60.0,0,45,3.0,85.0
3362,45.0,0,45,3.0,49.0
3363,72.0,0,45,3.0,49.0
3364,57.0,0,45,2.0,64.0
3365,81.0,24,45,3.0,49.0
3366,60.0,0,45,2.0,64.0
3367,84.0,24,23,2.0,85.0
3368,82.0,0,23,2.0,85.0
3369,58.0,0,45,2.0,64.0
3370,62.0,0,45,2.0,64.0
3371,62.0,0,45,3.0,85.0
3372,46.0,24,45,3.0,49.0
3373,70.0,0,45,3.0,49.0
3374,79.0,0,45,3.0,49.0
3375,79.0,24,23,2.0,85.0
3376,78.0,0,23,2.0,85.0
3377,63.0,24,45,2.0,64.0
3378,60.0,0,45,2.0,64.0
3379,69.0,0,45,3.0,49.0
3380,78.0,0,45,3.0,49.0
3381,48.0,0,45,3.0,49.0
3382,63.0,0,45,3.0,85.0
3383,81.0,24,23,2.0,85.0
3384,79.0,0,23,2.0,85.0
3385,78.0,24,23,2.0,85.0
3386,79.0,24,23,2.0,85.0
3387,79.0,24,89,3.0,49.0
3388,62.0,0,89,3.0,85.0
3389,62.0,0,89,2.0,64.0
3390,46.0,0,89,3.0,49.0
3391,58.0,0,89,2.0,64.0
3392,67.0,0,89,3.0,49.0
3393,78.0,24,23,2.0,85.0
3394,79.0,0,23,2.0,85.0
3395,80.0,24,23,2.0,85.0
3396,79.0,24,23,2.0,85.0
3397,59.0,24,89,2.0,64.0
3398,80.0,24,23,2.0,85.0
3399,79.0,24,23,2.0,85.0
3400,75.0,0,45,3.0,49.0
3401,51.0,0,45,3.0,85.0
3402,67.0,0,45,3.0,49.0
3403,36.0,0,45,3.0,49.0
3404,63.0,0,45,2.0,64.0
3405,60.0,0,45,2.0,64.0
3406,75.0,24,23,2.0,85.0
3407,74.0,0,23,2.0,85.0
3408,62.0,0,45,2.0,64.0
3409,65.0,0,45,2.0,64.0
3410,38.0,0,45,3.0,49.0
3411,65.0,24,45,3.0,49.0
3412,53.0,0,45,3.0,85.0
3413,74.0,0,45,3.0,49.0
3414,77.0,24,23,2.0,85.0
3415,75.0,0,23,2.0,85.0
3416,39.0,24,45,3.0,49.0
3417,63.0,0,45,3.0,49.0
3418,63.0,0,45,2.0,64.0
3419,67.0,0,45,2.0,64.0
3420,55.0,0,45,3.0,85.0
3421,72.0,0,45,3.0,49.0
3422,72.0,24,23,2.0,85.0
3423,70.0,0,23,2.0,85.0
3424,65.0,0,45,2.0,64.0
3425,41.0,0,45,3.0,49.0
3426,68.0,0,45,2.0,64.0
3427,62.0,0,45,3.0,49.0
3428,56.0,0,45,3.0,85.0
3429,71.0,24,45,3.0,49.0
3430,74.0,24,23,2.0,85.0
3431,72.0,0,23,2.0,85.0
3432,70.0,24,23,2.0,85.0
3433,72.0,24,23,2.0,85.0
3434,67.0,24,89,2.0,64.0
3435,63.0,0,89,2.0,64.0
3436,55.0,0,89,3.0,85.0
3437,72.0,0,89,3.0,49.0
3438,60.0,0,89,3.0,49.0
3439,39.0,0,89,3.0,49.0
3440,70.0,24,23,2.0,85.0
3441,72.0,24,23,2.0,85.0
3442,74.0,24,23,2.0,85.0
3443,72.0,24,23,2.0,85.0
3444,74.0,24,23,2.0,85.0
3445,75.0,24,23,2.0,85.0
3446,60.0,0,45,2.0,64.0
3447,74.0,24,23,2.0,85.0
3448,75.0,24,23,2.0,85.0
3449,67.0,0,45,2.0,64.0
3450,74.0,24,23,2.0,85.0
3451,77.0,0,6,2.0,85.0
3452,36.0,24,45,3.0,49.0
3453,72.0,0,45,3.0,49.0
3454,63.0,0,45,3.0,85.0
3455,60.0,0,45,2.0,64.0
3456,69.0,0,45,3.0,49.0
3457,75.0,6,39,2.0,85.0
3458,74.0,0,23,2.0,85.0
3459,69.0,42,45,2.0,64.0
3460,72.0,24,23,2.0,85.0
3461,62.0,0,45,3.0,85.0
3462,70.0,0,45,3.0,49.0
3463,67.0,0,45,3.0,49.0
3464,38.0,0,45,3.0,49.0
3465,62.0,24,45,2.0,64.0
3466,70.0,0,89,2.0,85.0
3467,67.0,48,45,2.0,64.0
3468,62.0,48,45,3.0,85.0
3469,62.0,0,45,2.0,64.0
3470,69.0,0,45,3.0,49.0
3471,66.0,0,45,3.0,49.0
3472,38.0,0,45,3.0,49.0
3473,69.0,0,89,2.0,85.0
3474,66.0,48,45,2.0,64.0
3475,86.0,48,23,2.0,85.0
3476,82.0,0,45,2.0,64.0
3477,87.0,24,23,2.0,85.0
3478,84.0,24,23,2.0,85.0
3479,78.0,0,45,2.0,64.0
3480,81.0,24,23,2.0,85.0
3481,82.0,0,23,2.0,85.0
3482,79.0,24,45,2.0,64.0
3483,84.0,24,23,2.0,85.0
3484,81.0,0,23,2.0,85.0
3485,86.0,0,177,0.0,49.0
3486,74.0,24,45,2.0,64.0
3487,78.0,24,23,2.0,85.0
3488,79.0,0,23,2.0,85.0
3489,75.0,0,23,2.0,64.0
3490,78.0,0,23,2.0,85.0
3491,74.0,24,23,2.0,64.0
3492,79.0,24,23,2.0,85.0
3493,75.0,0,23,2.0,64.0
3494,78.0,0,23,2.0,85.0
3495,74.0,24,23,2.0,64.0
3496,79.0,0,23,2.0,85.0
3497,75.0,24,23,2.0,64.0
3498,74.0,0,23,2.0,64.0
3499,78.0,24,23,2.0,85.0
3500,75.0,24,23,2.0,64.0
3501,79.0,0,23,2.0,85.0
3502,74.0,24,23,2.0,64.0
3503,78.0,0,23,2.0,85.0
3504,79.0,0,23,2.0,85.0
3505,75.0,24,45,2.0,64.0
3506,80.0,24,23,2.0,85.0
3507,77.0,0,23,2.0,85.0
3508,70.0,24,45,2.0,64.0
3509,74.0,24,23,2.0,85.0
3510,75.0,24,23,2.0,85.0
3511,72.0,0,45,2.0,64.0
3512,77.0,24,23,2.0,85.0
3513,74.0,0,23,2.0,85.0
3514,79.0,24,369,0.0,49.0
3515,65.0,24,45,2.0,64.0
3516,71.0,24,23,2.0,85.0
3517,63.0,24,23,2.0,64.0
3518,72.0,0,23,2.0,85.0
3519,62.0,24,23,2.0,64.0
3520,71.0,0,23,2.0,85.0
3521,72.0,0,23,2.0,85.0
3522,63.0,24,23,2.0,64.0
3523,71.0,24,23,2.0,85.0
3524,62.0,0,23,2.0,64.0
3525,63.0,24,23,2.0,64.0
3526,72.0,0,23,2.0,85.0
3527,62.0,0,23,2.0,64.0
3528,71.0,24,23,2.0,85.0
3529,63.0,24,23,2.0,64.0
3530,72.0,0,23,2.0,85.0
3531,71.0,24,23,2.0,85.0
3532,62.0,0,23,2.0,64.0
3533,72.0,24,23,2.0,85.0
3534,63.0,0,45,2.0,64.0
3535,74.0,24,23,2.0,85.0
3536,75.0,0,23,2.0,85.0
3537,72.0,0,281,0.0,49.0
3538,67.0,0,45,2.0,64.0
3539,63.0,0,45,3.0,85.0
3540,67.0,0,45,3.0,49.0
3541,72.0,24,45,3.0,49.0
3542,77.0,24,23,2.0,85.0
3543,78.0,0,23,2.0,85.0
3544,63.0,0,45,3.0,85.0
3545,60.0,0,45,2.0,64.0
3546,72.0,0,45,3.0,49.0
3547,69.0,0,45,3.0,49.0
3548,79.0,24,23,2.0,85.0
3549,75.0,0,23,2.0,85.0
3550,84.0,0,89,0.0,49.0
3551,81.0,24,89,0.0,49.0
3552,63.0,0,45,3.0,85.0
3553,69.0,0,45,2.0,64.0
3554,69.0,0,45,3.0,49.0
3555,72.0,24,45,3.0,49.0
3556,72.0,24,23,2.0,85.0
3557,67.0,0,45,3.0,49.0
3558,62.0,0,45,2.0,64.0
3559,70.0,0,45,3.0,49.0
3560,62.0,0,45,3.0,85.0
3561,82.0,24,89,0.0,49.0
3562,79.0,0,89,0.0,49.0
3563,70.0,0,89,2.0,85.0
3564,62.0,0,45,3.0,85.0
3565,67.0,48,45,2.0,64.0
3566,67.0,0,45,3.0,49.0
3567,70.0,0,45,3.0,49.0
3568,69.0,0,12,2.0,85.0
3569,70.0,12,12,2.0,85.0
3570,69.0,12,12,2.0,85.0
3571,62.0,0,45,3.0,85.0
3572,62.0,0,45,2.0,64.0
3573,69.0,0,45,3.0,49.0
3574,66.0,0,45,3.0,49.0
3575,70.0,12,12,2.0,85.0
3576,69.0,0,12,2.0,85.0
3577,70.0,12,12,2.0,85.0
3578,69.0,12,12,2.0,85.0
3579,81.0,48,89,0.0,49.0
3580,78.0,0,89,0.0,49.0
3581,70.0,12,5,2.0,85.0
3582,62.0,0,45,3.0,85.0
3583,66.0,12,45,2.0,64.0
3584,69.0,0,45,3.0,49.0
3585,66.0,0,45,3.0,49.0
3586,55.0,0,23,2.0,64.0
3587,62.0,24,23,2.0,64.0
3588,58.0,24,23,2.0,64.0
3589,62.0,0,89,3.0,85.0
3590,58.0,0,89,3.0,85.0
3591,79.0,0,89,0.0,49.0
3592,67.0,0,89,3.0,49.0
3593,67.0,0,89,2.0,85.0
3594,62.0,24,23,2.0,64.0
3595,69.0,24,23,2.0,85.0
3596,46.0,0,23,2.0,64.0
3597,60.0,0,23,2.0,64.0
3598,72.0,24,23,2.0,85.0
3599,54.0,24,23,2.0,64.0
3600,70.0,0,23,2.0,85.0
3601,69.0,0,23,2.0,85.0
3602,60.0,24,23,2.0,64.0
3603,55.0,24,23,2.0,64.0
3604,62.0,24,23,2.0,64.0
3605,58.0,24,23,2.0,64.0
3606,67.0,0,89,2.0,85.0
3607,62.0,24,23,2.0,64.0
3608,50.0,24,23,2.0,64.0
3609,69.0,0,23,2.0,85.0
3610,72.0,24,23,2.0,85.0
3611,60.0,0,23,2.0,64.0
3612,70.0,24,23,2.0,85.0
3613,54.0,0,23,2.0,64.0
3614,69.0,0,23,2.0,85.0
3615,60.0,24,23,2.0,64.0
3616,55.0,0,23,2.0,64.0
3617,67.0,24,45,2.0,85.0
3618,62.0,24,23,2.0,64.0
3619,58.0,24,23,2.0,64.0
3620,67.0,0,45,2.0,85.0
3621,62.0,24,23,2.0,64.0
3622,69.0,0,23,2.0,85.0
3623,50.0,24,23,2.0,64.0
3624,72.0,24,23,2.0,85.0
3625,60.0,0,23,2.0,64.0
3626,70.0,24,23,2.0,85.0
3627,54.0,0,23,2.0,64.0
3628,69.0,0,23,2.0,85.0
3629,60.0,24,23,2.0,64.0
3630,58.0,0,10,3.0,49.0
3631,62.0,24,10,3.0,49.0
3632,70.0,0,45,1.0,49.0
3633,62.0,0,45,1.0,49.0
3634,43.0,0,45,3.0,49.0
3635,58.0,24,10,3.0,49.0
3636,62.0,24,10,3.0,49.0
3637,70.0,0,89,0.0,49.0
3638,58.0,0,89,2.0,64.0
3639,70.0,24,89,3.0,49.0
3640,67.0,0,89,2.0,85.0
3641,55.0,0,89,2.0,64.0
3642,74.0,0,45,0.0,49.0
3643,57.0,0,10,3.0,49.0
3644,72.0,0,23,3.0,49.0
3645,65.0,0,10,3.0,49.0
3646,72.0,24,45,1.0,49.0
3647,41.0,0,45,3.0,49.0
3648,72.0,0,45,0.0,49.0
3649,65.0,0,45,1.0,49.0
3650,75.0,24,23,3.0,49.0
3651,57.0,24,10,3.0,49.0
3652,74.0,0,23,3.0,49.0
3653,65.0,0,10,3.0,49.0
3654,75.0,0,89,0.0,49.0
3655,63.0,0,89,3.0,49.0
3656,81.0,0,45,0.0,49.0
3657,72.0,24,23,3.0,49.0
3658,58.0,0,10,3.0,49.0
3659,65.0,24,10,3.0,49.0
3660,46.0,0,45,3.0,49.0
3661,74.0,24,45,1.0,49.0
3662,70.0,0,45,1.0,49.0
3663,82.0,0,45,0.0,49.0
3664,58.0,24,10,3.0,49.0
3665,65.0,24,10,3.0,49.0
3666,62.0,0,89,3.0,49.0
3667,74.0,0,89,0.0,49.0
3668,70.0,0,89,3.0,49.0
3669,57.0,24,10,3.0,49.0
3670,72.0,0,23,3.0,49.0
3671,65.0,0,10,3.0,49.0
3672,77.0,0,89,0.0,49.0
3673,72.0,0,45,1.0,49.0
3674,41.0,0,45,3.0,49.0
3675,65.0,0,45,1.0,49.0
3676,75.0,24,23,3.0,49.0
3677,57.0,24,10,3.0,49.0
3678,74.0,0,23,3.0,49.0
3679,65.0,24,10,3.0,49.0
3680,63.0,0,89,3.0,49.0
3681,75.0,0,89,0.0,49.0
3682,81.0,0,45,0.0,49.0
3683,72.0,0,23,3.0,49.0
3684,58.0,0,10,3.0,49.0
3685,70.0,0,20,3.0,49.0
3686,65.0,24,10,3.0,49.0
3687,46.0,0,45,3.0,49.0
3688,62.0,0,45,1.0,49.0
3689,82.0,24,45,0.0,49.0
3690,70.0,0,45,1.0,49.0
3691,58.0,0,10,3.0,49.0
3692,70.0,24,20,3.0,49.0
3693,65.0,24,10,3.0,49.0
3694,62.0,0,89,3.0,49.0
3695,74.0,0,89,0.0,49.0
3696,57.0,0,10,3.0,49.0
3697,72.0,0,23,3.0,49.0
3698,65.0,24,10,3.0,49.0
3699,77.0,0,89,0.0,49.0
3700,65.0,24,45,1.0,49.0
3701,41.0,0,45,3.0,49.0
3702,72.0,0,45,1.0,49.0
3703,75.0,0,23,3.0,49.0
3704,57.0,0,10,3.0,49.0
3705,74.0,0,23,3.0,49.0
3706,65.0,0,10,3.0,49.0
3707,75.0,0,89,0.0,49.0
3708,63.0,0,89,3.0,49.0
3709,81.0,24,45,0.0,49.0
3710,72.0,24,23,3.0,49.0
3711,58.0,0,23,2.0,64.0
3712,65.0,24,23,2.0,64.0
3713,62.0,24,23,2.0,64.0
3714,82.0,24,89,0.0,49.0
3715,34.0,0,89,3.0,49.0
3716,70.0,0,89,2.0,85.0
3717,62.0,0,89,3.0,49.0
3718,70.0,0,89,1.0,49.0
3719,74.0,0,89,0.0,49.0
3720,58.0,0,89,3.0,49.0
3721,70.0,0,89,3.0,49.0
3722,62.0,0,89,1.0,49.0
3723,65.0,24,23,2.0,64.0
3724,80.0,0,23,2.0,85.0
3725,62.0,24,23,2.0,64.0
3726,70.0,0,23,2.0,64.0
3727,84.0,24,23,2.0,85.0
3728,65.0,24,23,2.0,64.0
3729,82.0,0,23,2.0,85.0
3730,70.0,24,23,2.0,64.0
3731,80.0,0,23,2.0,85.0
3732,80.0,24,23,2.0,85.0
3733,63.0,0,23,2.0,64.0
3734,79.0,0,23,2.0,85.0
3735,70.0,24,23,2.0,64.0
3736,67.0,0,23,2.0,64.0
3737,78.0,24,23,2.0,85.0
3738,70.0,0,23,2.0,64.0
3739,79.0,24,23,2.0,85.0
3740,59.0,0,23,2.0,64.0
3741,77.0,24,23,2.0,85.0
3742,80.0,24,23,2.0,85.0
3743,67.0,0,23,2.0,64.0
3744,62.0,0,23,2.0,64.0
3745,79.0,24,23,2.0,85.0
3746,77.0,24,23,2.0,85.0
3747,67.0,0,23,2.0,64.0
3748,77.0,24,23,2.0,85.0
3749,60.0,0,23,2.0,64.0
3750,75.0,0,23,2.0,85.0
3751,67.0,24,23,2.0,64.0
3752,74.0,0,23,2.0,85.0
3753,63.0,24,23,2.0,64.0
3754,75.0,24,23,2.0,85.0
3755,67.0,0,23,2.0,64.0
3756,50.0,0,23,2.0,64.0
3757,74.0,24,23,2.0,85.0
3758,77.0,0,23,2.0,85.0
3759,59.0,24,23,2.0,64.0
3760,75.0,24,23,2.0,85.0
3761,53.0,0,23,2.0,64.0
3762,74.0,24,23,2.0,85.0
3763,59.0,0,23,2.0,64.0
3764,74.0,24,23,2.0,85.0
3765,51.0,0,23,2.0,64.0
3766,72.0,0,23,2.0,85.0
3767,60.0,24,23,2.0,64.0
3768,55.0,0,23,2.0,64.0
3769,71.0,24,23,2.0,85.0
3770,72.0,0,23,2.0,85.0
3771,60.0,24,23,2.0,64.0
3772,52.0,0,23,2.0,64.0
3773,70.0,24,23,2.0,85.0
3774,60.0,24,23,2.0,64.0
3775,74.0,0,23,2.0,85.0
3776,72.0,24,23,2.0,85.0
3777,55.0,0,23,2.0,64.0
3778,60.0,24,23,2.0,64.0
3779,70.0,0,23,2.0,85.0
3780,69.0,0,23,2.0,85.0
3781,77.0,24,23,2.0,85.0
3782,76.0,24,23,2.0,85.0
3783,53.0,24,89,2.0,64.0
3784,77.0,24,23,2.0,85.0
3785,79.0,24,23,2.0,85.0
3786,77.0,24,23,2.0,85.0
3787,69.0,0,23,2.0,85.0
3788,65.0,24,45,3.0,49.0
3789,65.0,0,45,2.0,64.0
3790,77.0,0,45,3.0,49.0
3791,69.0,0,45,3.0,49.0
3792,77.0,24,23,2.0,85.0
3793,67.0,24,20,2.0,64.0
3794,70.0,0,20,3.0,49.0
3795,67.0,0,20,3.0,49.0
3796,70.0,0,23,2.0,85.0
3797,77.0,0,45,3.0,49.0
3798,77.0,24,23,2.0,85.0
3799,69.0,24,20,2.0,64.0
3800,72.0,0,20,3.0,49.0
3801,69.0,0,20,3.0,49.0
3802,72.0,0,23,2.0,85.0
3803,77.0,0,45,3.0,49.0
3804,77.0,24,23,2.0,85.0
3805,70.0,0,20,3.0,49.0
3806,74.0,0,20,3.0,49.0
3807,70.0,0,20,2.0,64.0
3808,74.0,24,23,2.0,85.0
3809,77.0,0,45,3.0,49.0
3810,77.0,24,23,2.0,85.0
3811,72.0,0,20,3.0,49.0
3812,75.0,0,20,3.0,49.0
3813,72.0,0,20,2.0,64.0
3814,75.0,24,23,2.0,85.0
3815,77.0,0,45,3.0,49.0
3816,77.0,24,23,2.0,85.0
3817,74.0,0,23,2.0,85.0
3818,77.0,24,23,2.0,85.0
3819,76.0,24,23,2.0,85.0
3820,77.0,0,89,3.0,49.0
3821,74.0,0,89,3.0,49.0
3822,70.0,24,89,2.0,64.0
3823,77.0,24,23,2.0,85.0
3824,79.0,24,23,2.0,85.0
3825,77.0,24,23,2.0,85.0
3826,74.0,0,23,2.0,85.0
3827,82.0,0,45,3.0,49.0
3828,74.0,24,45,3.0,49.0
3829,77.0,0,45,3.0,49.0
3830,82.0,0,45,2.0,64.0
3831,77.0,24,23,2.0,85.0
3832,81.0,0,20,2.0,64.0
3833,72.0,0,20,3.0,49.0
3834,81.0,0,20,3.0,49.0
3835,72.0,24,23,2.0,85.0
3836,77.0,0,45,3.0,49.0
3837,77.0,24,23,2.0,85.0
3838,74.0,0,20,3.0,49.0
3839,82.0,0,20,2.0,64.0
3840,82.0,24,20,3.0,49.0
3841,74.0,0,23,2.0,85.0
3842,77.0,0,45,3.0,49.0
3843,77.0,24,23,2.0,85.0
3844,81.0,0,20,2.0,64.0
3845,81.0,0,20,3.0,49.0
3846,72.0,24,20,3.0,49.0
3847,72.0,0,23,2.0,85.0
3848,77.0,0,45,3.0,49.0
3849,77.0,24,23,2.0,85.0
3850,79.0,0,20,3.0,49.0
3851,79.0,0,20,2.0,64.0
3852,70.0,24,20,3.0,49.0
3853,70.0,0,23,2.0,85.0
3854,77.0,0,45,3.0,49.0
3855,77.0,24,23,2.0,85.0
3856,69.0,0,23,2.0,85.0
3857,65.0,24,23,2.0,85.0
3858,64.0,24,23,2.0,85.0
3859,77.0,0,89,2.0,64.0
3860,77.0,0,89,3.0,49.0
3861,69.0,24,89,3.0,49.0
3862,65.0,24,23,2.0,85.0
3863,67.0,24,23,2.0,85.0
3864,65.0,24,23,2.0,85.0
3865,57.0,24,23,2.0,85.0
3866,77.0,0,45,3.0,49.0
3867,57.0,0,45,3.0,49.0
3868,53.0,0,45,2.0,64.0
3869,53.0,0,45,3.0,49.0
3870,65.0,24,23,2.0,85.0
3871,55.0,0,20,3.0,49.0
3872,55.0,0,20,2.0,64.0
3873,58.0,0,20,3.0,49.0
3874,58.0,24,23,2.0,85.0
3875,77.0,0,45,3.0,49.0
3876,65.0,24,23,2.0,85.0
3877,57.0,0,20,2.0,64.0
3878,57.0,24,20,3.0,49.0
3879,60.0,0,20,3.0,49.0
3880,60.0,0,23,2.0,85.0
3881,77.0,0,45,3.0,49.0
3882,65.0,24,23,2.0,85.0
3883,62.0,0,20,3.0,49.0
3884,58.0,0,20,2.0,64.0
3885,58.0,0,20,3.0,49.0
3886,62.0,24,23,2.0,85.0
3887,77.0,0,45,3.0,49.0
3888,65.0,24,23,2.0,85.0
3889,63.0,0,20,3.0,49.0
3890,60.0,0,20,2.0,64.0
3891,60.0,24,20,3.0,49.0
3892,63.0,0,23,2.0,85.0
3893,77.0,0,45,3.0,49.0
3894,65.0,24,23,2.0,85.0
3895,62.0,0,23,2.0,85.0
3896,65.0,24,23,2.0,85.0
3897,64.0,24,23,2.0,85.0
3898,58.0,0,89,3.0,49.0
3899,77.0,24,89,3.0,49.0
3900,58.0,0,89,2.0,64.0
3901,62.0,0,89,3.0,49.0
3902,65.0,24,23,2.0,85.0
3903,67.0,24,23,2.0,85.0
3904,65.0,24,23,2.0,85.0
3905,62.0,24,23,2.0,85.0
3906,62.0,0,45,3.0,49.0
3907,77.0,0,45,3.0,49.0
3908,70.0,0,45,3.0,49.0
3909,65.0,24,23,2.0,85.0
3910,69.0,0,20,3.0,49.0
3911,60.0,24,20,3.0,49.0
3912,60.0,0,23,2.0,85.0
3913,77.0,0,45,3.0,49.0
3914,65.0,24,23,2.0,85.0
3915,62.0,0,20,3.0,49.0
3916,70.0,0,20,3.0,49.0
3917,62.0,0,23,2.0,85.0
3918,77.0,24,45,3.0,49.0
3919,65.0,24,23,2.0,85.0
3920,69.0,0,20,3.0,49.0
3921,60.0,0,20,3.0,49.0
3922,60.0,0,23,2.0,85.0
3923,77.0,24,45,3.0,49.0
3924,65.0,24,23,2.0,85.0
3925,58.0,0,20,3.0,49.0
3926,67.0,24,20,3.0,49.0
3927,58.0,0,23,2.0,85.0
3928,77.0,0,45,3.0,49.0
3929,65.0,24,23,2.0,85.0
3930,53.0,0,23,2.0,64.0
3931,77.0,0,45,2.0,85.0
3932,65.0,24,23,2.0,64.0
3933,52.0,0,23,2.0,64.0
3934,65.0,0,89,3.0,49.0
3935,57.0,0,89,3.0,49.0
3936,77.0,24,89,3.0,49.0
3937,76.0,24,45,2.0,85.0
3938,64.0,24,23,2.0,64.0
3939,53.0,0,23,2.0,64.0
3940,77.0,24,45,2.0,85.0
3941,65.0,24,23,2.0,64.0
3942,54.0,24,23,2.0,64.0
3943,78.0,0,45,2.0,85.0
3944,66.0,24,23,2.0,64.0
3945,79.0,24,12,2.0,85.0
3946,55.0,0,23,2.0,64.0
3947,81.0,12,12,2.0,85.0
3948,79.0,12,12,2.0,85.0
3949,81.0,12,9,2.0,85.0
3950,67.0,0,23,2.0,64.0
3951,54.0,0,23,2.0,64.0
3952,78.0,12,45,2.0,85.0
3953,66.0,24,23,2.0,64.0
3954,55.0,0,23,2.0,64.0
3955,79.0,24,45,2.0,85.0
3956,67.0,24,23,2.0,64.0
3957,47.0,0,23,2.0,64.0
3958,71.0,24,45,2.0,85.0
3959,59.0,24,23,2.0,64.0
3960,48.0,24,23,2.0,64.0
3961,72.0,0,45,2.0,85.0
3962,60.0,24,23,2.0,64.0
3963,47.0,0,23,2.0,64.0
3964,71.0,24,45,2.0,85.0
3965,59.0,24,23,2.0,64.0
3966,48.0,0,23,2.0,64.0
3967,72.0,24,45,2.0,85.0
3968,60.0,24,23,2.0,64.0
3969,50.0,24,23,2.0,64.0
3970,74.0,0,45,2.0,85.0
3971,62.0,24,23,2.0,64.0
3972,75.0,24,12,2.0,85.0
3973,51.0,0,23,2.0,64.0
3974,77.0,12,12,2.0,85.0
3975,75.0,0,12,2.0,85.0
3976,77.0,12,9,2.0,85.0
3977,63.0,12,23,2.0,64.0
3978,50.0,12,23,2.0,64.0
3979,74.0,0,45,2.0,85.0
3980,62.0,24,23,2.0,64.0
3981,51.0,0,23,2.0,64.0
3982,75.0,24,45,2.0,85.0
3983,60.0,24,23,2.0,64.0
3984,45.0,0,23,2.0,64.0
3985,69.0,24,45,2.0,85.0
3986,57.0,24,23,2.0,64.0
3987,58.0,0,45,3.0,85.0
3988,70.0,0,89,2.0,85.0
3989,46.0,0,89,3.0,85.0
3990,65.0,0,89,2.0,85.0
3991,62.0,24,89,2.0,85.0
3992,46.0,0,89,2.0,64.0
3993,58.0,0,89,2.0,64.0
3994,62.0,0,89,3.0,85.0
3995,70.0,0,177,0.0,64.0
3996,70.0,0,177,3.0,85.0
3997,46.0,48,89,3.0,85.0
3998,65.0,0,89,3.0,85.0
3999,74.0,0,89,3.0,85.0
4000,46.0,0,89,3.0,85.0
4001,74.0,48,89,0.0,64.0
4002,62.0,0,89,3.0,85.0
4003,62.0,0,354,1.0,64.0
4004,70.0,0,354,1.0,64.0
4005,46.0,0,89,3.0,85.0
4006,70.0,48,89,3.0,85.0
4007,70.0,0,89,0.0,64.0
4008,65.0,0,93,3.0,85.0
4009,46.0,0,89,3.0,85.0
4010,60.0,0,89,3.0,85.0
4011,69.0,48,89,3.0,85.0
4012,77.0,48,163,0.0,64.0
4013,77.0,0,163,3.0,85.0
4014,72.0,0,177,1.0,64.0
4015,65.0,0,177,1.0,64.0
4016,46.0,48,89,3.0,85.0
4017,79.0,24,23,0.0,64.0
4018,79.0,0,23,3.0,85.0
4019,57.0,0,23,2.0,64.0
4020,77.0,24,39,0.0,64.0
4021,57.0,48,89,3.0,85.0
4022,72.0,0,89,3.0,85.0
4023,65.0,24,23,2.0,64.0
4024,60.0,0,23,2.0,64.0
4025,65.0,0,89,1.0,64.0
4026,77.0,0,89,3.0,85.0
4027,46.0,0,89,3.0,85.0
4028,72.0,0,89,1.0,64.0
4029,53.0,24,45,3.0,85.0
4030,65.0,24,23,2.0,64.0
4031,57.0,0,23,2.0,64.0
4032,69.0,0,89,3.0,85.0
4033,65.0,24,23,2.0,64.0
4034,60.0,0,23,2.0,64.0
4035,46.0,0,89,3.0,85.0
4036,57.0,24,89,3.0,85.0
4037,77.0,24,45,2.0,85.0
4038,65.0,0,45,3.0,85.0
4039,65.0,24,23,2.0,64.0
4040,55.0,24,23,2.0,64.0
4041,45.0,0,45,3.0,85.0
4042,63.0,24,23,2.0,64.0
4043,58.0,24,23,2.0,64.0
4044,45.0,0,45,3.0,85.0
4045,63.0,24,23,2.0,64.0
4046,55.0,0,23,2.0,64.0
4047,45.0,24,45,3.0,85.0
4048,63.0,24,23,2.0,64.0
4049,58.0,24,23,2.0,64.0
4050,75.0,0,177,2.0,85.0
4051,45.0,0,45,3.0,85.0
4052,63.0,24,23,2.0,64.0
4053,53.0,0,23,2.0,64.0
4054,62.0,24,23,2.0,64.0
4055,57.0,24,23,2.0,64.0
4056,45.0,24,89,3.0,85.0
4057,74.0,0,89,2.0,85.0
4058,62.0,24,23,2.0,64.0
4059,51.0,24,23,2.0,64.0
4060,60.0,24,23,2.0,64.0
4061,55.0,24,23,2.0,64.0
4062,79.0,0,89,2.0,85.0
4063,60.0,24,23,2.0,64.0
4064,53.0,0,23,2.0,64.0
4065,62.0,24,23,2.0,64.0
4066,58.0,24,23,2.0,64.0
4067,70.0,24,89,2.0,85.0
4068,62.0,24,23,2.0,64.0
4069,69.0,24,12,2.0,85.0
4070,51.0,0,23,2.0,64.0
4071,70.0,12,12,2.0,85.0
4072,69.0,12,12,2.0,85.0
4073,60.0,0,23,2.0,64.0
4074,70.0,12,12,2.0,85.0
4075,69.0,0,12,2.0,85.0
4076,53.0,12,23,2.0,64.0
4077,70.0,12,12,2.0,85.0
4078,69.0,12,12,2.0,85.0
4079,70.0,12,5,2.0,85.0
4080,60.0,0,23,2.0,64.0
4081,50.0,0,89,2.0,64.0
4082,70.0,12,89,2.0,85.0
4083,58.0,0,89,2.0,64.0
4084,53.0,0,89,2.0,64.0
4085,70.0,0,45,0.0,64.0
4086,70.0,0,45,3.0,85.0
4087,72.0,0,45,0.0,64.0
4088,69.0,48,45,0.0,64.0
4089,69.0,0,45,3.0,85.0
4090,72.0,0,45,3.0,85.0
4091,74.0,0,45,3.0,85.0
4092,70.0,0,45,0.0,64.0
4093,70.0,0,45,3.0,85.0
4094,74.0,48,45,0.0,64.0
4095,67.0,0,6,3.0,85.0
4096,75.0,0,39,0.0,64.0
4097,72.0,48,39,0.0,64.0
4098,72.0,0,45,3.0,85.0
4099,36.0,0,45,3.0,85.0
4100,75.0,6,83,3.0,85.0
4101,36.0,0,45,3.0,85.0
4102,63.0,0,89,3.0,85.0
4103,67.0,42,89,3.0,85.0
4104,36.0,48,45,3.0,85.0
4105,72.0,0,89,0.0,64.0
4106,67.0,0,89,0.0,64.0
4107,36.0,0,45,3.0,85.0
4108,75.0,0,133,3.0,85.0
4109,72.0,48,89,3.0,85.0
4110,67.0,0,89,3.0,85.0
4111,48.0,0,45,3.0,85.0
4112,75.0,48,89,0.0,64.0
4113,72.0,0,89,0.0,64.0
4114,48.0,48,45,3.0,85.0
4115,79.0,0,45,3.0,85.0
4116,63.0,0,89,3.0,85.0
4117,60.0,0,89,3.0,85.0
4118,75.0,0,45,3.0,85.0
4119,48.0,48,45,3.0,85.0
4120,72.0,48,20,3.0,85.0
4121,79.0,0,89,0.0,64.0
4122,75.0,0,89,0.0,64.0
4123,67.0,0,45,3.0,85.0
4124,63.0,0,45,3.0,85.0
4125,48.0,0,45,3.0,85.0
4126,60.0,0,45,3.0,85.0
4127,41.0,48,45,3.0,85.0
4128,63.0,0,45,3.0,85.0
4129,70.0,0,45,3.0,85.0
4130,65.0,0,89,1.0,64.0
4131,41.0,0,45,3.0,85.0
4132,69.0,48,45,3.0,85.0
4133,63.0,0,89,3.0,85.0
4134,72.0,0,89,3.0,85.0
4135,41.0,0,45,3.0,85.0
4136,72.0,0,89,0.0,64.0
4137,69.0,48,89,0.0,64.0
4138,41.0,0,45,3.0,85.0
4139,69.0,0,133,3.0,85.0
4140,72.0,0,89,3.0,85.0
4141,75.0,48,89,3.0,85.0
4142,41.0,0,45,3.0,85.0
4143,65.0,0,177,1.0,64.0
4144,72.0,0,177,1.0,64.0
4145,81.0,0,89,0.0,64.0
4146,75.0,48,89,0.0,64.0
4147,63.0,48,45,3.0,85.0
4148,81.0,0,45,3.0,85.0
4149,60.0,0,45,3.0,85.0
4150,41.0,0,45,3.0,85.0
4151,34.0,0,45,3.0,85.0
4152,58.0,0,45,3.0,85.0
4153,62.0,0,45,3.0,85.0
4154,82.0,0,45,3.0,85.0
4155,70.0,0,20,3.0,85.0
4156,74.0,0,89,1.0,64.0
4157,74.0,48,89,0.0,64.0
4158,70.0,0,89,1.0,64.0
4159,82.0,0,89,0.0,64.0
4160,77.0,0,45,3.0,85.0
4161,34.0,0,45,3.0,85.0
4162,74.0,48,45,3.0,85.0
4163,74.0,0,45,3.0,85.0
4164,39.0,0,45,3.0,85.0
4165,78.0,48,45,3.0,85.0
4166,70.0,0,45,3.0,85.0
4167,58.0,0,89,1.0,64.0
4168,70.0,0,89,1.0,64.0
4169,79.0,48,45,3.0,85.0
4170,39.0,0,45,3.0,85.0
4171,58.0,0,45,3.0,85.0
4172,75.0,0,45,3.0,85.0
4173,67.0,0,23,3.0,85.0
4174,75.0,0,23,3.0,85.0
4175,72.0,48,39,0.0,64.0
4176,75.0,0,39,0.0,64.0
4177,63.0,0,21,3.0,85.0
4178,39.0,0,45,3.0,85.0
4179,72.0,24,23,3.0,85.0
4180,67.0,0,23,3.0,85.0
4181,75.0,0,23,3.0,85.0
4182,39.0,24,45,3.0,85.0
4183,60.0,0,45,3.0,85.0
4184,72.0,0,23,3.0,85.0
4185,63.0,24,23,3.0,85.0
4186,74.0,0,39,0.0,64.0
4187,70.0,0,39,3.0,85.0
4188,70.0,24,39,0.0,64.0
4189,65.0,0,45,3.0,85.0
4190,41.0,0,89,3.0,85.0
4191,65.0,0,89,1.0,64.0
4192,62.0,0,89,3.0,85.0
4193,65.0,48,45,3.0,85.0
4194,72.0,0,39,3.0,85.0
4195,72.0,0,39,0.0,64.0
4196,69.0,0,39,3.0,85.0
4197,69.0,0,39,0.0,64.0
4198,65.0,48,45,3.0,85.0
4199,65.0,0,89,1.0,64.0
4200,29.0,0,89,3.0,85.0
4201,65.0,48,45,3.0,85.0
4202,65.0,0,20,1.0,49.0
4203,65.0,48,20,3.0,49.0
4204,65.0,0,20,1.0,49.0
4205,65.0,0,20,3.0,49.0
4206,72.0,0,133,3.0,49.0
4207,65.0,48,20,3.0,49.0
4208,65.0,0,20,1.0,49.0
4209,69.0,48,177,3.0,49.0
4210,73.0,0,45,3.0,49.0
4211,70.0,0,20,1.0,49.0
4212,70.0,0,20,3.0,49.0
4213,65.0,0,20,1.0,49.0
4214,65.0,0,20,3.0,49.0
4215,74.0,0,89,3.0,49.0
4216,62.0,0,20,3.0,49.0
4217,62.0,0,20,1.0,49.0
4218,58.0,0,20,1.0,49.0
4219,58.0,48,20,3.0,49.0
4220,75.0,0,12,2.0,85.0
4221,48.0,0,23,2.0,64.0
4222,77.0,12,12,2.0,85.0
4223,75.0,0,12,2.0,85.0
4224,75.0,48,45,3.0,49.0
4225,67.0,0,45,3.0,49.0
4226,60.0,12,23,2.0,64.0
4227,77.0,12,12,2.0,85.0
4228,75.0,12,12,2.0,85.0
4229,59.0,0,23,2.0,64.0
4230,77.0,12,12,2.0,85.0
4231,75.0,12,12,2.0,85.0
4232,36.0,0,89,3.0,49.0
4233,77.0,12,5,2.0,85.0
4234,60.0,0,89,3.0,49.0
4235,60.0,0,23,2.0,64.0
4236,62.0,12,23,2.0,64.0
4237,63.0,0,45,3.0,49.0
4238,67.0,0,45,3.0,49.0
4239,60.0,24,23,2.0,64.0
4240,59.0,24,23,2.0,64.0
4241,60.0,24,23,2.0,64.0
4242,51.0,0,23,2.0,64.0
4243,75.0,0,133,2.0,85.0
4244,72.0,0,45,3.0,49.0
4245,67.0,24,45,3.0,49.0
4246,60.0,24,23,2.0,64.0
4247,59.0,0,23,2.0,64.0
4248,63.0,0,89,3.0,49.0
4249,39.0,0,89,3.0,49.0
4250,79.0,24,45,2.0,85.0
4251,60.0,24,23,2.0,64.0
4252,62.0,0,23,2.0,64.0
4253,77.0,0,23,2.0,85.0
4254,79.0,0,45,3.0,49.0
4255,75.0,24,45,3.0,49.0
4256,60.0,24,23,2.0,64.0
4257,75.0,0,23,2.0,85.0
4258,74.0,24,10,2.0,85.0
4259,59.0,0,23,2.0,64.0
4260,72.0,24,10,2.0,85.0
4261,60.0,0,23,2.0,64.0
4262,70.0,0,23,2.0,85.0
4263,53.0,24,45,2.0,64.0
4264,41.0,0,45,3.0,49.0
4265,69.0,24,23,2.0,85.0
4266,86.0,0,23,2.0,85.0
4267,57.0,0,45,2.0,64.0
4268,84.0,24,23,2.0,85.0
4269,82.0,24,23,2.0,85.0
4270,69.0,24,89,3.0,49.0
4271,65.0,0,89,3.0,49.0
4272,60.0,0,89,3.0,49.0
4273,51.0,0,45,2.0,64.0
4274,39.0,0,45,3.0,49.0
4275,81.0,24,23,2.0,85.0
4276,79.0,0,23,2.0,85.0
4277,60.0,24,45,2.0,64.0
4278,65.0,0,45,3.0,49.0
4279,69.0,0,45,3.0,49.0
4280,60.0,0,45,3.0,49.0
4281,77.0,24,23,2.0,85.0
4282,81.0,24,23,2.0,85.0
4283,50.0,0,45,2.0,64.0
4284,82.0,24,23,2.0,85.0
4285,84.0,24,23,2.0,85.0
4286,38.0,0,89,3.0,49.0
4287,58.0,0,45,2.0,64.0
4288,65.0,0,45,3.0,49.0
4289,82.0,24,23,2.0,85.0
4290,81.0,24,23,2.0,85.0
4291,62.0,0,89,3.0,49.0
4292,70.0,0,89,3.0,49.0
4293,55.0,0,45,2.0,64.0
4294,67.0,0,45,3.0,49.0
4295,79.0,24,23,2.0,85.0
4296,55.0,0,20,3.0,49.0
4297,77.0,0,23,2.0,85.0
4298,43.0,0,89,3.0,49.0
4299,58.0,0,45,2.0,64.0
4300,63.0,24,45,3.0,49.0
4301,75.0,24,23,2.0,85.0
4302,74.0,24,23,2.0,85.0
4303,70.0,0,93,3.0,49.0
4304,41.0,0,45,3.0,49.0
4305,53.0,0,45,3.0,49.0
4306,53.0,0,45,2.0,64.0
4307,65.0,0,45,3.0,49.0
4308,75.0,24,23,2.0,85.0
4309,77.0,0,23,2.0,85.0
4310,62.0,0,45,2.0,64.0
4311,79.0,24,23,2.0,85.0
4312,77.0,0,23,2.0,85.0
4313,70.0,24,89,3.0,49.0
4314,74.0,0,89,3.0,49.0
4315,58.0,24,45,2.0,64.0
4316,41.0,0,45,3.0,49.0
4317,65.0,0,45,3.0,49.0
4318,79.0,24,23,2.0,85.0
4319,81.0,0,23,2.0,85.0
4320,74.0,24,45,3.0,49.0
4321,62.0,0,45,2.0,64.0
4322,77.0,0,45,3.0,49.0
4323,82.0,24,23,2.0,85.0
4324,72.0,0,12,2.0,85.0
4325,74.0,12,12,2.0,85.0
4326,72.0,12,12,2.0,85.0
4327,41.0,0,45,3.0,49.0
4328,53.0,24,45,2.0,64.0
4329,65.0,0,45,3.0,49.0
4330,72.0,0,45,3.0,49.0
4331,75.0,0,45,3.0,49.0
4332,74.0,12,12,2.0,85.0
4333,72.0,12,12,2.0,85.0
4334,74.0,12,12,2.0,85.0
4335,72.0,12,12,2.0,85.0
4336,63.0,0,45,2.0,64.0
4337,74.0,12,12,2.0,85.0
4338,72.0,0,12,2.0,85.0
4339,74.0,12,12,2.0,85.0
4340,72.0,12,12,2.0,85.0
4341,72.0,0,89,3.0,49.0
4342,63.0,0,89,3.0,49.0
4343,41.0,0,45,3.0,49.0
4344,65.0,0,45,3.0,49.0
4345,57.0,12,45,2.0,64.0
4346,74.0,12,12,2.0,85.0
4347,72.0,12,12,2.0,85.0
4348,74.0,12,12,2.0,85.0
4349,72.0,12,9,2.0,85.0
4350,69.0,0,45,3.0,49.0
4351,60.0,0,45,3.0,49.0
4352,63.0,0,45,2.0,64.0
4353,62.0,0,89,3.0,49.0
4354,65.0,0,89,3.0,49.0
4355,46.0,0,89,3.0,49.0
4356,62.0,0,89,2.0,64.0
4357,58.0,24,89,2.0,64.0
4358,70.0,0,89,2.0,85.0
4359,70.0,0,89,3.0,49.0
4360,70.0,0,133,3.0,85.0
4361,62.0,96,133,3.0,85.0
4362,69.0,48,10,3.0,49.0
4363,60.0,0,10,3.0,49.0
4364,70.0,0,10,3.0,49.0
4365,62.0,24,10,3.0,49.0
4366,72.0,0,23,3.0,49.0
4367,63.0,0,23,3.0,49.0
4368,69.0,0,23,3.0,49.0
4369,60.0,24,23,3.0,49.0
4370,63.0,0,10,3.0,49.0
4371,72.0,24,10,3.0,49.0
4372,65.0,0,177,3.0,85.0
4373,65.0,0,177,1.0,64.0
4374,41.0,0,177,3.0,85.0
4375,69.0,24,10,3.0,49.0
4376,60.0,0,10,3.0,49.0
4377,69.0,24,89,0.0,49.0
4378,75.0,0,89,0.0,49.0
4379,62.0,24,89,3.0,49.0
4380,70.0,0,89,3.0,49.0
4381,70.0,0,89,0.0,49.0
4382,34.0,0,89,3.0,49.0
4383,70.0,0,89,1.0,49.0
4384,74.0,0,89,0.0,49.0
4385,62.0,0,89,1.0,49.0
4386,70.0,0,133,3.0,85.0
4387,62.0,96,133,3.0,85.0
4388,74.0,0,133,3.0,85.0
4389,69.0,0,10,3.0,49.0
4390,72.0,48,10,3.0,49.0
4391,74.0,0,10,3.0,49.0
4392,70.0,24,10,3.0,49.0
4393,72.0,0,23,3.0,49.0
4394,75.0,24,23,3.0,49.0
4395,69.0,0,23,3.0,49.0
4396,72.0,24,23,3.0,49.0
4397,75.0,24,10,3.0,49.0
4398,72.0,0,10,3.0,49.0
4399,41.0,96,177,3.0,85.0
4400,65.0,0,177,3.0,85.0
4401,65.0,0,177,1.0,64.0
4402,69.0,24,10,3.0,49.0
4403,72.0,0,10,3.0,49.0
4404,75.0,0,89,0.0,49.0
4405,81.0,0,89,0.0,49.0
4406,58.0,0,45,2.0,64.0
4407,70.0,0,89,3.0,49.0
4408,70.0,0,89,1.0,49.0
4409,74.0,0,89,3.0,49.0
4410,82.0,0,89,0.0,49.0
4411,58.0,0,89,1.0,49.0
4412,46.0,24,89,3.0,49.0
4413,74.0,0,89,0.0,49.0
4414,58.0,0,89,3.0,49.0
4415,74.0,48,45,2.0,64.0
4416,70.0,0,45,2.0,64.0
4417,70.0,0,45,2.0,64.0
4418,74.0,48,45,2.0,64.0
4419,70.0,0,45,2.0,64.0
4420,74.0,48,45,2.0,64.0
4421,77.0,0,133,2.0,85.0
4422,70.0,0,45,2.0,64.0
4423,74.0,48,45,2.0,64.0
4424,80.0,0,23,2.0,85.0
4425,70.0,48,45,2.0,64.0
4426,74.0,0,45,2.0,64.0
4427,79.0,24,23,2.0,85.0
4428,82.0,24,6,2.0,85.0
4429,74.0,0,45,2.0,64.0
4430,70.0,0,45,2.0,64.0
4431,80.0,6,39,2.0,85.0
4432,79.0,0,23,2.0,85.0
4433,70.0,42,45,2.0,64.0
4434,74.0,0,45,2.0,64.0
4435,77.0,24,23,2.0,85.0
4436,74.0,24,12,2.0,85.0
4437,75.0,12,12,2.0,85.0
4438,74.0,12,12,2.0,85.0
4439,68.0,0,45,2.0,64.0
4440,70.0,0,45,2.0,64.0
4441,75.0,12,12,2.0,85.0
4442,74.0,0,12,2.0,85.0
4443,75.0,12,12,2.0,85.0
4444,74.0,12,12,2.0,85.0
4445,39.0,0,89,3.0,49.0
4446,70.0,12,45,2.0,64.0
4447,68.0,0,45,2.0,64.0
4448,75.0,12,12,2.0,85.0
4449,74.0,12,12,2.0,85.0
4450,75.0,12,12,2.0,85.0
4451,74.0,12,12,2.0,85.0
4452,75.0,12,1,2.0,85.0
4453,68.0,0,45,2.0,64.0
4454,70.0,0,45,2.0,64.0
4455,75.0,0,23,2.0,85.0
4456,70.0,0,45,2.0,64.0
4457,68.0,12,45,2.0,64.0
4458,77.0,24,23,2.0,85.0
4459,67.0,0,45,2.0,64.0
4460,70.0,24,45,2.0,64.0
4461,75.0,0,89,2.0,85.0
4462,70.0,48,45,2.0,64.0
4463,67.0,0,45,2.0,64.0
4464,67.0,0,45,2.0,64.0
4465,70.0,48,45,2.0,64.0
4466,75.0,0,45,2.0,85.0
4467,70.0,48,45,2.0,64.0
4468,67.0,0,45,2.0,64.0
4469,82.0,48,45,2.0,85.0
4470,65.0,0,45,2.0,64.0
4471,72.0,0,45,2.0,64.0
4472,65.0,0,45,2.0,64.0
4473,80.0,48,45,2.0,85.0
4474,72.0,0,45,2.0,64.0
4475,72.0,0,45,2.0,64.0
4476,65.0,48,45,2.0,64.0
4477,65.0,0,45,2.0,64.0
4478,72.0,48,45,2.0,64.0
4479,80.0,0,133,2.0,85.0
4480,65.0,0,45,2.0,64.0
4481,72.0,48,45,2.0,64.0
4482,80.0,0,12,2.0,85.0
4483,82.0,12,12,2.0,85.0
4484,80.0,12,12,2.0,85.0
4485,82.0,12,9,2.0,85.0
4486,65.0,48,45,2.0,64.0
4487,72.0,0,45,2.0,64.0
4488,72.0,0,45,2.0,64.0
4489,65.0,0,45,2.0,64.0
4490,82.0,12,45,2.0,85.0
4491,72.0,0,45,2.0,64.0
4492,84.0,0,45,2.0,85.0
4493,65.0,48,45,2.0,64.0
4494,62.0,0,45,2.0,64.0
4495,65.0,48,45,2.0,64.0
4496,65.0,48,45,2.0,64.0
4497,62.0,0,45,2.0,64.0
4498,82.0,0,133,2.0,85.0
4499,62.0,0,45,2.0,64.0
4500,65.0,48,45,2.0,64.0
4501,84.0,0,23,2.0,85.0
4502,65.0,48,45,2.0,64.0
4503,62.0,0,45,2.0,64.0
4504,80.0,24,23,2.0,85.0
4505,70.0,0,45,2.0,64.0
4506,63.0,0,45,2.0,64.0
4507,79.0,24,89,2.0,85.0
4508,70.0,0,45,2.0,64.0
4509,63.0,48,45,2.0,64.0
4510,63.0,0,45,2.0,64.0
4511,70.0,48,45,2.0,64.0
4512,79.0,48,23,2.0,85.0
4513,70.0,0,45,2.0,64.0
4514,63.0,0,45,2.0,64.0
4515,75.0,24,23,2.0,85.0
4516,74.0,24,23,2.0,85.0
4517,60.0,0,45,3.0,49.0
4518,55.0,0,45,3.0,49.0
4519,58.0,0,45,3.0,49.0
4520,51.0,0,45,2.0,64.0
4521,72.0,24,23,2.0,85.0
4522,71.0,0,23,2.0,85.0
4523,58.0,24,45,2.0,64.0
4524,72.0,24,23,2.0,85.0
4525,71.0,24,23,2.0,85.0
4526,55.0,0,45,2.0,64.0
4527,56.0,0,45,3.0,49.0
4528,72.0,24,23,2.0,85.0
4529,71.0,24,23,2.0,85.0
4530,58.0,0,45,2.0,64.0
4531,72.0,24,23,2.0,85.0
4532,75.0,0,23,2.0,85.0
4533,62.0,0,45,3.0,49.0
4534,53.0,24,45,2.0,64.0
4535,58.0,0,45,3.0,49.0
4536,74.0,24,23,2.0,85.0
4537,73.0,24,23,2.0,85.0
4538,58.0,0,45,2.0,64.0
4539,74.0,24,23,2.0,85.0
4540,73.0,24,23,2.0,85.0
4541,56.0,0,45,2.0,64.0
4542,74.0,24,23,2.0,85.0
4543,73.0,0,23,2.0,85.0
4544,58.0,24,45,2.0,64.0
4545,74.0,24,23,2.0,85.0
4546,77.0,0,23,2.0,85.0
4547,63.0,0,45,3.0,49.0
4548,55.0,0,45,3.0,49.0
4549,58.0,0,45,3.0,49.0
4550,55.0,24,45,2.0,64.0
4551,75.0,24,23,2.0,85.0
4552,74.0,24,23,2.0,85.0
4553,58.0,0,45,2.0,64.0
4554,75.0,24,23,2.0,85.0
4555,77.0,0,23,2.0,85.0
4556,58.0,0,45,3.0,49.0
4557,55.0,0,45,3.0,49.0
4558,55.0,24,45,2.0,64.0
4559,64.0,0,45,3.0,49.0
4560,76.0,24,23,2.0,85.0
4561,74.0,24,23,2.0,85.0
4562,58.0,0,45,2.0,64.0
4563,76.0,24,23,2.0,85.0
4564,77.0,0,23,2.0,85.0
4565,50.0,0,45,3.0,49.0
4566,58.0,24,45,3.0,49.0
4567,50.0,0,45,2.0,64.0
4568,65.0,0,45,3.0,49.0
4569,75.0,24,23,2.0,85.0
4570,74.0,24,23,2.0,85.0
4571,58.0,0,45,2.0,64.0
4572,72.0,24,23,2.0,85.0
4573,70.0,24,23,2.0,85.0
4574,68.0,0,45,3.0,49.0
4575,50.0,0,45,2.0,64.0
4576,65.0,0,45,3.0,49.0
4577,58.0,0,45,3.0,49.0
4578,68.0,24,23,2.0,85.0
4579,67.0,24,23,2.0,85.0
4580,58.0,0,45,2.0,64.0
4581,68.0,24,23,2.0,85.0
4582,67.0,0,45,2.0,85.0
4583,51.0,0,89,2.0,64.0
4584,63.0,0,89,3.0,49.0
4585,58.0,24,89,2.0,64.0
4586,67.0,0,89,3.0,49.0
4587,58.0,0,89,3.0,49.0
4588,78.0,48,45,2.0,85.0
4589,79.0,48,45,2.0,85.0
4590,83.0,48,45,2.0,85.0
4591,84.0,48,45,2.0,85.0
4592,87.0,48,45,2.0,85.0
4593,79.0,48,45,2.0,85.0
4594,63.0,0,89,2.0,64.0
4595,75.0,0,89,2.0,64.0
4596,84.0,48,45,2.0,85.0
4597,82.0,0,89,2.0,85.0
4598,74.0,48,89,2.0,64.0
4599,65.0,0,177,2.0,64.0
4600,72.0,96,89,2.0,64.0
4601,81.0,0,89,2.0,85.0
4602,53.0,0,45,3.0,85.0
4603,77.0,0,45,3.0,85.0
4604,65.0,48,45,3.0,85.0
4605,64.0,0,45,3.0,85.0
4606,76.0,0,45,3.0,85.0
4607,52.0,48,45,3.0,85.0
4608,77.0,0,45,3.0,85.0
4609,65.0,48,45,3.0,85.0
4610,53.0,0,45,3.0,85.0
4611,52.0,0,45,3.0,85.0
4612,76.0,0,45,3.0,85.0
4613,64.0,0,45,3.0,85.0
4614,53.0,48,45,3.0,85.0
4615,65.0,0,45,3.0,85.0
4616,77.0,0,45,3.0,85.0
4617,65.0,24,23,2.0,85.0
4618,64.0,24,23,2.0,85.0
4619,65.0,0,89,3.0,85.0
4620,41.0,0,89,3.0,85.0
4621,53.0,0,89,2.0,64.0
4622,53.0,48,89,3.0,85.0
4623,65.0,24,23,2.0,85.0
4624,67.0,24,23,2.0,85.0
4625,65.0,24,23,2.0,85.0
4626,69.0,24,23,2.0,85.0
4627,63.0,0,45,2.0,64.0
4628,65.0,24,23,2.0,85.0
4629,70.0,0,23,2.0,85.0
4630,62.0,24,45,2.0,64.0
4631,65.0,24,23,2.0,85.0
4632,72.0,24,23,2.0,85.0
4633,57.0,0,45,2.0,64.0
4634,65.0,24,23,2.0,85.0
4635,74.0,0,23,2.0,85.0
4636,58.0,24,45,2.0,64.0
4637,65.0,24,23,2.0,85.0
4638,75.0,0,23,2.0,85.0
4639,60.0,24,45,2.0,64.0
4640,65.0,24,23,2.0,85.0
4641,58.0,0,23,2.0,64.0
4642,74.0,24,45,2.0,85.0
4643,65.0,24,23,2.0,64.0
4644,64.0,24,23,2.0,64.0
4645,65.0,24,23,2.0,64.0
4646,79.0,0,20,2.0,85.0
4647,63.0,24,23,2.0,64.0
4648,65.0,24,23,2.0,64.0
4649,77.0,0,20,2.0,85.0
4650,62.0,24,23,2.0,64.0
4651,65.0,24,23,2.0,64.0
4652,75.0,0,12,2.0,85.0
4653,60.0,24,23,2.0,64.0
4654,77.0,12,12,2.0,85.0
4655,75.0,0,12,2.0,85.0
4656,77.0,12,9,2.0,85.0
4657,65.0,12,23,2.0,64.0
4658,58.0,12,23,2.0,64.0
4659,74.0,0,45,2.0,85.0
4660,65.0,24,23,2.0,64.0
4661,72.0,24,12,2.0,85.0
4662,57.0,0,23,2.0,64.0
4663,74.0,12,12,2.0,85.0
4664,72.0,0,12,2.0,85.0
4665,74.0,12,9,2.0,85.0
4666,65.0,12,23,2.0,64.0
4667,55.0,12,23,2.0,64.0
4668,70.0,0,45,2.0,85.0
4669,65.0,24,23,2.0,64.0
4670,69.0,24,23,2.0,85.0
4671,65.0,24,23,2.0,85.0
4672,64.0,24,23,2.0,85.0
4673,53.0,0,89,2.0,64.0
4674,65.0,24,23,2.0,85.0
4675,67.0,24,23,2.0,85.0
4676,65.0,24,23,2.0,85.0
4677,69.0,0,23,2.0,85.0
4678,63.0,24,45,2.0,64.0
4679,65.0,24,23,2.0,85.0
4680,70.0,0,23,2.0,85.0
4681,62.0,24,45,2.0,64.0
4682,65.0,24,23,2.0,85.0
4683,72.0,24,23,2.0,85.0
4684,57.0,0,45,2.0,64.0
4685,65.0,24,23,2.0,85.0
4686,74.0,24,23,2.0,85.0
4687,58.0,0,45,2.0,64.0
4688,65.0,24,23,2.0,85.0
4689,75.0,24,23,2.0,85.0
4690,60.0,0,45,2.0,64.0
4691,65.0,24,23,2.0,85.0
4692,58.0,24,23,2.0,64.0
4693,74.0,0,45,2.0,85.0
4694,65.0,24,23,2.0,64.0
4695,64.0,24,23,2.0,64.0
4696,65.0,24,23,2.0,64.0
4697,79.0,0,20,2.0,85.0
4698,63.0,24,23,2.0,64.0
4699,65.0,24,23,2.0,64.0
4700,77.0,0,20,2.0,85.0
4701,62.0,24,23,2.0,64.0
4702,65.0,24,23,2.0,64.0
4703,75.0,0,12,2.0,85.0
4704,60.0,24,23,2.0,64.0
4705,77.0,12,12,2.0,85.0
4706,75.0,12,12,2.0,85.0
4707,77.0,12,9,2.0,85.0
4708,65.0,0,23,2.0,64.0
4709,58.0,0,23,2.0,64.0
4710,74.0,12,45,2.0,85.0
4711,65.0,24,23,2.0,64.0
4712,72.0,0,12,2.0,85.0
4713,63.0,24,23,2.0,64.0
4714,74.0,12,12,2.0,85.0
4715,72.0,12,12,2.0,85.0
4716,74.0,12,9,2.0,85.0
4717,65.0,0,23,2.0,64.0
4718,62.0,12,23,2.0,64.0
4719,70.0,0,45,2.0,85.0
4720,65.0,24,23,2.0,64.0
4721,62.0,24,23,2.0,64.0
4722,63.0,24,23,2.0,64.0
4723,51.0,0,89,3.0,49.0
4724,67.0,24,89,2.0,85.0
4725,67.0,0,45,3.0,49.0
4726,62.0,24,23,2.0,64.0
4727,63.0,0,45,3.0,49.0
4728,74.0,24,23,2.0,85.0
4729,60.0,0,20,3.0,49.0
4730,75.0,24,23,2.0,85.0
4731,63.0,24,89,2.0,64.0
4732,72.0,0,45,3.0,49.0
4733,72.0,24,23,2.0,85.0
4734,69.0,24,45,3.0,49.0
4735,64.0,24,23,2.0,64.0
4736,65.0,0,23,2.0,64.0
4737,69.0,0,89,2.0,85.0
4738,53.0,0,89,3.0,49.0
4739,69.0,0,45,3.0,49.0
4740,65.0,24,45,3.0,49.0
4741,64.0,24,23,2.0,64.0
4742,65.0,24,45,3.0,49.0
4743,76.0,24,23,2.0,85.0
4744,62.0,24,20,3.0,49.0
4745,77.0,0,23,2.0,85.0
4746,65.0,0,89,2.0,64.0
4747,74.0,0,45,3.0,49.0
4748,74.0,24,23,2.0,85.0
4749,70.0,0,45,3.0,49.0
4750,66.0,24,23,2.0,64.0
4751,67.0,0,23,2.0,64.0
4752,55.0,0,89,3.0,49.0
4753,70.0,24,89,2.0,85.0
4754,67.0,0,45,3.0,49.0
4755,70.0,24,45,3.0,49.0
4756,66.0,24,23,2.0,64.0
4757,67.0,0,45,3.0,49.0
4758,78.0,24,23,2.0,85.0
4759,63.0,0,20,3.0,49.0
4760,79.0,24,23,2.0,85.0
4761,67.0,24,89,2.0,64.0
4762,75.0,0,45,3.0,49.0
4763,75.0,24,23,2.0,85.0
4764,72.0,0,45,3.0,49.0
4765,68.0,24,23,2.0,64.0
4766,69.0,0,23,2.0,64.0
4767,57.0,0,89,3.0,49.0
4768,72.0,24,89,2.0,85.0
4769,72.0,24,45,3.0,49.0
4770,69.0,0,45,3.0,49.0
4771,68.0,24,23,2.0,64.0
4772,69.0,24,45,3.0,49.0
4773,76.0,24,23,2.0,85.0
4774,72.0,0,20,3.0,49.0
4775,77.0,0,23,2.0,85.0
4776,69.0,0,89,2.0,64.0
4777,75.0,24,45,3.0,49.0
4778,65.0,0,45,3.0,49.0
4779,75.0,24,23,2.0,85.0
4780,74.0,0,23,2.0,85.0
4781,70.0,0,45,2.0,64.0
4782,77.0,24,23,2.0,85.0
4783,82.0,24,23,2.0,85.0
4784,65.0,0,89,3.0,49.0
4785,74.0,24,89,3.0,49.0
4786,58.0,0,89,3.0,49.0
4787,70.0,0,89,3.0,49.0
4788,77.0,24,23,2.0,85.0
4789,81.0,0,23,2.0,85.0
4790,75.0,0,45,2.0,64.0
4791,84.0,24,23,2.0,85.0
4792,81.0,24,23,2.0,85.0
4793,77.0,24,23,2.0,85.0
4794,82.0,24,23,2.0,85.0
4795,74.0,0,45,2.0,64.0
4796,77.0,24,23,2.0,85.0
4797,74.0,0,23,2.0,85.0
4798,65.0,24,177,3.0,49.0
4799,82.0,24,45,3.0,49.0
4800,70.0,0,45,2.0,64.0
4801,77.0,24,23,2.0,85.0
4802,77.0,0,20,3.0,49.0
4803,75.0,0,23,2.0,85.0
4804,81.0,24,45,3.0,49.0
4805,72.0,0,45,2.0,64.0
4806,77.0,24,23,2.0,85.0
4807,77.0,0,20,3.0,49.0
4808,72.0,24,23,2.0,85.0
4809,69.0,0,45,2.0,64.0
4810,75.0,0,45,3.0,49.0
4811,77.0,24,23,2.0,85.0
4812,74.0,0,23,2.0,85.0
4813,70.0,24,45,2.0,64.0
4814,77.0,24,23,2.0,85.0
4815,74.0,24,23,2.0,85.0
4816,74.0,0,89,3.0,49.0
4817,77.0,0,89,3.0,49.0
4818,70.0,24,23,2.0,85.0
4819,69.0,0,23,2.0,85.0
4820,63.0,0,45,2.0,64.0
4821,72.0,24,23,2.0,85.0
4822,69.0,24,23,2.0,85.0
4823,65.0,24,23,2.0,85.0
4824,70.0,24,23,2.0,85.0
4825,50.0,0,45,2.0,64.0
4826,65.0,24,23,2.0,85.0
4827,62.0,24,23,2.0,85.0
4828,77.0,24,177,3.0,49.0
4829,46.0,0,45,2.0,64.0
4830,70.0,0,45,3.0,49.0
4831,65.0,24,23,2.0,85.0
4832,65.0,0,20,3.0,49.0
4833,63.0,0,23,2.0,85.0
4834,69.0,24,45,3.0,49.0
4835,48.0,0,45,2.0,64.0
4836,65.0,24,23,2.0,85.0
4837,65.0,0,20,3.0,49.0
4838,63.0,0,20,3.0,49.0
4839,60.0,0,23,2.0,85.0
4840,45.0,24,45,2.0,64.0
4841,65.0,24,23,2.0,85.0
4842,62.0,24,45,2.0,85.0
4843,46.0,0,89,2.0,64.0
4844,62.0,0,89,3.0,49.0
4845,65.0,0,89,3.0,49.0
4846,53.0,48,45,2.0,85.0
4847,58.0,48,45,2.0,85.0
4848,62.0,48,45,2.0,85.0
4849,65.0,48,45,2.0,85.0
4850,70.0,48,45,2.0,85.0
4851,74.0,48,45,2.0,85.0
4852,77.0,48,20,2.0,85.0
4853,50.0,0,23,2.0,64.0
4854,53.0,0,45,3.0,49.0
4855,56.0,0,45,3.0,49.0
4856,58.0,48,45,3.0,49.0
4857,58.0,24,23,2.0,64.0
4858,53.0,0,23,2.0,64.0
4859,38.0,0,89,3.0,49.0
4860,58.0,24,23,2.0,64.0
4861,50.0,0,23,2.0,64.0
4862,58.0,0,89,3.0,49.0
4863,53.0,0,89,3.0,49.0
4864,56.0,24,89,3.0,49.0
4865,58.0,24,23,2.0,64.0
4866,53.0,0,23,2.0,64.0
4867,80.0,0,177,2.0,85.0
4868,38.0,24,89,3.0,49.0
4869,58.0,24,23,2.0,64.0
4870,68.0,24,12,2.0,85.0
4871,50.0,0,23,2.0,64.0
4872,70.0,12,12,2.0,85.0
4873,68.0,12,12,2.0,85.0
4874,58.0,0,89,3.0,49.0
4875,56.0,0,89,3.0,49.0
4876,53.0,24,89,3.0,49.0
4877,58.0,0,23,2.0,64.0
4878,70.0,12,12,2.0,85.0
4879,68.0,12,12,2.0,85.0
4880,53.0,0,23,2.0,64.0
4881,70.0,12,12,2.0,85.0
4882,68.0,0,12,2.0,85.0
4883,38.0,0,89,3.0,49.0
4884,58.0,12,23,2.0,64.0
4885,70.0,12,12,2.0,85.0
4886,68.0,12,12,2.0,85.0
4887,50.0,0,23,2.0,64.0
4888,70.0,12,12,2.0,85.0
4889,68.0,12,12,2.0,85.0
4890,58.0,0,89,3.0,49.0
4891,56.0,0,89,3.0,49.0
4892,53.0,0,89,3.0,49.0
4893,58.0,0,23,2.0,64.0
4894,70.0,12,12,2.0,85.0
4895,68.0,0,12,2.0,85.0
4896,80.0,0,354,0.0,49.0
4897,77.0,0,354,0.0,49.0
4898,58.0,0,354,1.0,49.0
4899,70.0,0,354,1.0,49.0
4900,53.0,0,23,2.0,64.0
4901,70.0,12,12,2.0,85.0
4902,68.0,12,9,2.0,85.0
4903,38.0,0,89,3.0,49.0
4904,53.0,12,45,3.0,49.0
4905,58.0,0,45,3.0,49.0
4906,56.0,0,45,3.0,49.0
4907,58.0,0,23,2.0,64.0
4908,67.0,0,23,2.0,85.0
4909,69.0,24,23,2.0,85.0
4910,70.0,24,23,2.0,85.0
4911,79.0,0,89,0.0,49.0
4912,55.0,0,89,3.0,49.0
4913,58.0,0,89,1.0,49.0
4914,70.0,0,89,1.0,49.0
4915,75.0,0,89,0.0,49.0
4916,51.0,0,89,2.0,64.0
4917,39.0,24,89,3.0,49.0
4918,51.0,0,89,3.0,49.0
4919,58.0,0,89,3.0,49.0
4920,69.0,24,23,2.0,85.0
4921,70.0,24,23,2.0,85.0
4922,71.0,24,23,2.0,85.0
4923,72.0,24,23,2.0,85.0
4924,71.0,24,23,2.0,85.0
4925,72.0,24,23,2.0,85.0
4926,74.0,24,23,2.0,85.0
4927,75.0,24,23,2.0,85.0
4928,74.0,24,23,2.0,85.0
4929,75.0,24,45,2.0,85.0
4930,74.0,48,23,2.0,85.0
4931,72.0,24,23,2.0,85.0
4932,50.0,24,45,2.0,64.0
4933,77.0,0,67,2.0,85.0
4934,58.0,48,45,2.0,64.0
4935,70.0,24,23,2.0,85.0
4936,55.0,0,45,2.0,64.0
4937,75.0,24,67,2.0,85.0
4938,63.0,0,89,3.0,49.0
4939,58.0,48,45,2.0,64.0
4940,72.0,24,23,2.0,85.0
4941,72.0,0,12,2.0,85.0
4942,74.0,12,12,2.0,85.0
4943,72.0,12,12,2.0,85.0
4944,51.0,0,45,2.0,64.0
4945,74.0,12,12,2.0,85.0
4946,72.0,12,12,2.0,85.0
4947,74.0,12,12,2.0,85.0
4948,70.0,0,177,3.0,49.0
4949,72.0,12,12,2.0,85.0
4950,67.0,24,89,3.0,49.0
4951,58.0,0,45,2.0,64.0
4952,74.0,12,12,2.0,85.0
4953,72.0,12,12,2.0,85.0
4954,74.0,12,12,2.0,85.0
4955,72.0,12,12,2.0,85.0
4956,65.0,0,45,3.0,49.0
4957,53.0,0,45,2.0,64.0
4958,74.0,12,12,2.0,85.0
4959,72.0,12,12,2.0,85.0
4960,74.0,12,12,2.0,85.0
4961,72.0,12,9,2.0,85.0
4962,69.0,0,89,3.0,49.0
4963,57.0,0,45,2.0,64.0
4964,63.0,0,45,3.0,49.0
4965,70.0,24,39,3.0,49.0
4966,62.0,0,39,3.0,49.0
4967,58.0,0,89,2.0,64.0
4968,46.0,0,89,2.0,64.0
4969,70.0,0,89,2.0,85.0
4970,65.0,96,133,3.0,85.0
4971,67.0,48,45,3.0,85.0
4972,57.0,96,133,3.0,85.0
4973,39.0,0,177,3.0,85.0
4974,51.0,0,177,3.0,85.0
4975,60.0,48,45,3.0,85.0
4976,65.0,48,141,3.0,85.0
4977,67.0,48,45,3.0,85.0
4978,58.0,0,133,3.0,85.0
4979,50.0,48,177,3.0,85.0
4980,38.0,0,177,3.0,85.0
4981,62.0,48,45,3.0,85.0
4982,65.0,48,133,3.0,85.0
4983,77.0,48,45,3.0,85.0
4984,60.0,48,133,3.0,85.0
4985,33.0,0,177,3.0,85.0
4986,57.0,0,177,3.0,85.0
4987,72.0,48,45,3.0,85.0
4988,75.0,48,141,3.0,85.0
4989,58.0,48,89,3.0,85.0
4990,65.0,0,89,3.0,85.0
4991,34.0,0,89,3.0,85.0
4992,73.0,48,45,3.0,85.0
4993,53.0,0,133,2.0,64.0
4994,46.0,0,177,2.0,64.0
4995,74.0,48,89,3.0,85.0
4996,58.0,48,45,2.0,64.0
4997,65.0,0,133,2.0,85.0
4998,67.0,48,45,2.0,85.0
4999,57.0,0,133,2.0,64.0
5000,51.0,48,177,2.0,64.0
5001,58.0,48,45,2.0,64.0
5002,65.0,48,141,2.0,85.0
5003,67.0,48,45,2.0,85.0
5004,58.0,0,133,2.0,64.0
5005,50.0,48,177,2.0,64.0
5006,62.0,48,45,2.0,64.0
5007,65.0,48,133,2.0,85.0
5008,77.0,48,45,2.0,85.0
5009,60.0,0,133,2.0,64.0
5010,57.0,48,177,2.0,64.0
5011,65.0,48,45,2.0,64.0
5012,75.0,48,141,2.0,85.0
5013,65.0,0,45,3.0,49.0
5014,77.0,0,45,2.0,85.0
5015,58.0,48,45,3.0,49.0
5016,62.0,0,20,3.0,49.0
5017,65.0,48,133,2.0,64.0
5018,58.0,0,177,2.0,64.0
5019,62.0,48,45,2.0,64.0
5020,65.0,0,45,3.0,49.0
5021,67.0,48,20,3.0,49.0
5022,74.0,0,133,2.0,85.0
5023,63.0,0,45,3.0,49.0
5024,75.0,48,45,2.0,85.0
5025,55.0,0,45,3.0,49.0
5026,60.0,0,20,3.0,49.0
5027,57.0,0,133,2.0,64.0
5028,51.0,0,177,3.0,49.0
5029,51.0,0,177,2.0,64.0
5030,65.0,0,45,2.0,64.0
5031,63.0,48,45,3.0,49.0
5032,65.0,48,20,3.0,49.0
5033,72.0,0,141,2.0,85.0
5034,62.0,0,45,3.0,49.0
5035,75.0,0,6,2.0,85.0
5036,58.0,48,45,3.0,49.0
5037,74.0,6,39,2.0,85.0
5038,65.0,0,20,3.0,49.0
5039,62.0,0,133,2.0,64.0
5040,53.0,0,177,3.0,49.0
5041,53.0,0,177,2.0,64.0
5042,70.0,0,45,3.0,49.0
5043,58.0,48,45,2.0,64.0
5044,63.0,0,20,3.0,49.0
5045,70.0,42,133,2.0,85.0
5046,74.0,0,6,2.0,85.0
5047,60.0,48,45,3.0,49.0
5048,72.0,6,39,2.0,85.0
5049,69.0,0,20,3.0,49.0
5050,63.0,0,133,2.0,64.0
5051,75.0,0,45,3.0,49.0
5052,53.0,48,177,3.0,49.0
5053,53.0,0,177,2.0,64.0
5054,69.0,42,89,2.0,85.0
5055,60.0,0,45,2.0,64.0
5056,69.0,48,45,3.0,49.0
5057,62.0,48,10,3.0,49.0
5058,70.0,0,20,3.0,49.0
5059,65.0,24,10,3.0,49.0
5060,53.0,0,45,3.0,49.0
5061,46.0,0,45,3.0,49.0
5062,62.0,24,10,3.0,49.0
5063,65.0,24,10,3.0,49.0
5064,70.0,0,89,2.0,85.0
5065,62.0,0,89,2.0,64.0
5066,58.0,0,89,2.0,64.0
5067,62.0,24,10,3.0,49.0
5068,65.0,24,10,3.0,49.0
5069,70.0,0,45,3.0,49.0
5070,62.0,24,10,3.0,49.0
5071,65.0,24,10,3.0,49.0
5072,69.0,0,45,3.0,49.0
5073,63.0,0,10,3.0,49.0
5074,72.0,24,20,3.0,49.0
5075,65.0,24,10,3.0,49.0
5076,57.0,0,45,3.0,49.0
5077,41.0,0,45,3.0,49.0
5078,63.0,24,10,3.0,49.0
5079,65.0,24,10,3.0,49.0
5080,63.0,24,10,3.0,49.0
5081,65.0,24,10,3.0,49.0
5082,72.0,0,45,3.0,49.0
5083,63.0,0,10,3.0,49.0
5084,65.0,24,10,3.0,49.0
5085,70.0,24,45,3.0,49.0
5086,62.0,0,10,3.0,49.0
5087,74.0,0,20,3.0,49.0
5088,65.0,24,10,3.0,49.0
5089,58.0,24,45,3.0,49.0
5090,34.0,0,45,3.0,49.0
5091,62.0,24,10,3.0,49.0
5092,65.0,24,10,3.0,49.0
5093,58.0,24,10,3.0,49.0
5094,65.0,24,10,3.0,49.0
5095,74.0,0,45,3.0,49.0
5096,58.0,0,10,3.0,49.0
5097,65.0,24,10,3.0,49.0
5098,72.0,24,45,3.0,49.0
5099,60.0,0,10,3.0,85.0
5100,65.0,24,10,3.0,85.0
5101,45.0,0,45,3.0,85.0
5102,75.0,0,45,3.0,85.0
5103,69.0,24,45,3.0,85.0
5104,60.0,24,10,3.0,85.0
5105,65.0,24,10,3.0,85.0
5106,69.0,0,45,3.0,85.0
5107,45.0,0,45,3.0,85.0
5108,75.0,0,45,3.0,85.0
5109,77.0,0,6,3.0,85.0
5110,60.0,0,10,3.0,85.0
5111,65.0,18,10,3.0,85.0
5112,75.0,6,39,3.0,85.0
5113,69.0,0,45,3.0,85.0
5114,45.0,24,45,3.0,85.0
5115,63.0,24,10,3.0,85.0
5116,74.0,0,23,3.0,85.0
5117,65.0,0,177,1.0,64.0
5118,72.0,0,177,1.0,64.0
5119,75.0,0,177,0.0,64.0
5120,84.0,0,177,0.0,64.0
5121,65.0,0,10,3.0,85.0
5122,69.0,0,45,3.0,85.0
5123,45.0,0,45,3.0,85.0
5124,72.0,24,23,3.0,85.0
5125,58.0,0,23,2.0,64.0
5126,74.0,24,45,0.0,49.0
5127,46.0,0,45,3.0,49.0
5128,70.0,0,45,3.0,49.0
5129,58.0,0,45,1.0,49.0
5130,62.0,0,45,3.0,49.0
5131,82.0,0,45,0.0,49.0
5132,70.0,0,45,1.0,49.0
5133,65.0,24,23,2.0,64.0
5134,62.0,24,23,2.0,64.0
5135,65.0,24,23,2.0,64.0
5136,62.0,24,23,2.0,64.0
5137,70.0,0,23,2.0,85.0
5138,65.0,24,23,2.0,64.0
5139,69.0,0,23,2.0,85.0
5140,62.0,24,23,2.0,64.0
5141,70.0,0,23,2.0,85.0
5142,65.0,24,23,2.0,64.0
5143,69.0,0,23,2.0,85.0
5144,57.0,0,23,2.0,64.0
5145,53.0,0,45,3.0,49.0
5146,31.0,0,45,3.0,49.0
5147,57.0,0,45,3.0,49.0
5148,72.0,0,45,2.0,85.0
5149,63.0,24,45,3.0,49.0
5150,65.0,24,23,2.0,64.0
5151,63.0,24,23,2.0,64.0
5152,65.0,24,23,2.0,64.0
5153,63.0,24,23,2.0,64.0
5154,72.0,0,23,2.0,85.0
5155,70.0,0,23,2.0,85.0
5156,65.0,24,23,2.0,64.0
5157,63.0,24,23,2.0,64.0
5158,72.0,0,23,2.0,85.0
5159,70.0,24,23,2.0,85.0
5160,65.0,0,23,2.0,64.0
5161,58.0,0,23,2.0,64.0
5162,53.0,24,45,3.0,49.0
5163,58.0,0,45,3.0,49.0
5164,62.0,0,45,3.0,49.0
5165,74.0,0,45,2.0,85.0
5166,34.0,0,45,3.0,49.0
5167,65.0,24,23,2.0,64.0
5168,62.0,24,23,2.0,64.0
5169,65.0,24,23,2.0,64.0
5170,62.0,0,23,2.0,64.0
5171,74.0,24,23,2.0,85.0
5172,65.0,0,23,2.0,64.0
5173,72.0,24,23,2.0,85.0
5174,74.0,0,23,2.0,85.0
5175,62.0,24,23,2.0,64.0
5176,65.0,0,23,2.0,64.0
5177,72.0,24,23,2.0,85.0
5178,75.0,0,20,2.0,85.0
5179,57.0,0,23,2.0,64.0
5180,41.0,0,45,3.0,49.0
5181,65.0,24,23,2.0,64.0
5182,75.0,0,20,2.0,85.0
5183,60.0,24,23,2.0,64.0
5184,65.0,24,23,2.0,64.0
5185,77.0,0,6,2.0,85.0
5186,57.0,24,23,2.0,64.0
5187,75.0,6,39,2.0,85.0
5188,29.0,0,45,3.0,49.0
5189,65.0,18,23,2.0,64.0
5190,74.0,24,23,2.0,85.0
5191,60.0,0,23,2.0,64.0
5192,69.0,0,177,3.0,49.0
5193,75.0,24,177,3.0,49.0
5194,60.0,0,177,3.0,49.0
5195,65.0,24,23,2.0,64.0
5196,72.0,0,23,2.0,85.0
5197,70.0,0,23,2.0,85.0
5198,82.0,24,23,2.0,85.0
5199,86.0,24,23,2.0,85.0
5200,58.0,0,89,3.0,49.0
5201,74.0,0,89,3.0,49.0
5202,58.0,0,89,2.0,64.0
5203,34.0,24,89,3.0,49.0
5204,70.0,0,89,3.0,49.0
5205,81.0,24,23,2.0,85.0
5206,82.0,24,23,2.0,85.0
5207,78.0,24,23,2.0,85.0
5208,79.0,24,23,2.0,85.0
5209,74.0,24,23,2.0,85.0
5210,75.0,24,23,2.0,85.0
5211,79.0,24,23,2.0,85.0
5212,82.0,24,23,2.0,85.0
5213,78.0,24,23,2.0,85.0
5214,79.0,24,23,2.0,85.0
5215,74.0,24,23,2.0,85.0
5216,75.0,24,23,2.0,85.0
5217,71.0,24,23,2.0,85.0
5218,72.0,0,23,2.0,85.0
5219,71.0,24,23,2.0,85.0
5220,72.0,24,23,2.0,85.0
5221,60.0,24,89,3.0,49.0
5222,71.0,24,23,2.0,85.0
5223,51.0,0,23,2.0,64.0
5224,60.0,0,23,3.0,49.0
5225,50.0,24,23,2.0,64.0
5226,59.0,0,23,3.0,49.0
5227,60.0,0,23,3.0,49.0
5228,51.0,24,23,2.0,64.0
5229,51.0,0,177,3.0,49.0
5230,55.0,0,177,3.0,49.0
5231,63.0,24,89,3.0,49.0
5232,50.0,24,23,2.0,64.0
5233,59.0,0,23,3.0,49.0
5234,72.0,0,163,2.0,85.0
5235,67.0,0,89,3.0,49.0
5236,51.0,0,89,3.0,49.0
5237,79.0,72,23,2.0,85.0
5238,77.0,0,6,2.0,85.0
5239,75.0,6,39,2.0,85.0
5240,74.0,42,23,2.0,85.0
5241,60.0,0,177,3.0,49.0
5242,51.0,0,177,2.0,64.0
5243,39.0,24,177,3.0,49.0
5244,57.0,24,89,3.0,49.0
5245,53.0,0,89,3.0,49.0
5246,72.0,24,23,2.0,85.0
5247,77.0,0,45,2.0,85.0
5248,53.0,24,89,3.0,49.0
5249,50.0,0,89,2.0,64.0
5250,58.0,0,89,3.0,49.0
5251,38.0,0,89,3.0,49.0
5252,76.0,48,45,2.0,85.0
5253,75.0,0,45,2.0,85.0
5254,55.0,0,89,3.0,49.0
5255,43.0,0,89,3.0,49.0
5256,55.0,0,89,2.0,64.0
5257,74.0,48,45,2.0,85.0
5258,72.0,0,12,2.0,85.0
5259,74.0,12,12,2.0,85.0
5260,72.0,12,12,2.0,85.0
5261,74.0,12,12,2.0,85.0
5262,72.0,12,12,2.0,85.0
5263,74.0,12,12,2.0,85.0
5264,58.0,0,177,2.0,64.0
5265,70.0,48,177,3.0,49.0
5266,72.0,12,12,2.0,85.0
5267,51.0,0,89,2.0,64.0
5268,67.0,0,89,3.0,49.0
5269,63.0,48,89,3.0,49.0
5270,39.0,0,89,3.0,49.0
5271,74.0,12,12,2.0,85.0
5272,72.0,12,12,2.0,85.0
5273,74.0,12,12,2.0,85.0
5274,72.0,12,12,2.0,85.0
5275,74.0,12,12,2.0,85.0
5276,72.0,12,12,2.0,85.0
5277,74.0,12,12,2.0,85.0
5278,72.0,12,9,2.0,85.0
5279,57.0,0,89,2.0,64.0
5280,69.0,0,89,3.0,49.0
5281,60.0,0,89,3.0,49.0
5282,41.0,0,89,3.0,49.0
5283,65.0,0,89,3.0,49.0
5284,53.0,0,89,2.0,64.0
5285,89.0,24,23,2.0,85.0
5286,88.0,24,23,2.0,85.0
5287,89.0,24,23,2.0,85.0
5288,85.0,24,23,2.0,85.0
5289,86.0,24,23,2.0,85.0
5290,85.0,24,23,2.0,85.0
5291,86.0,24,23,2.0,85.0
5292,81.0,24,23,2.0,85.0
5293,82.0,24,23,2.0,85.0
5294,81.0,24,23,2.0,85.0
5295,82.0,24,23,2.0,85.0
5296,78.0,24,23,2.0,85.0
5297,79.0,24,23,2.0,85.0
5298,78.0,24,23,2.0,85.0
5299,79.0,24,23,2.0,85.0
5300,74.0,24,23,2.0,85.0
5301,75.0,24,23,2.0,85.0
5302,74.0,24,23,2.0,85.0
5303,75.0,24,23,2.0,85.0
5304,72.0,0,89,3.0,49.0
5305,71.0,24,23,2.0,85.0
5306,51.0,0,119,3.0,49.0
5307,67.0,0,119,3.0,49.0
5308,63.0,0,23,2.0,64.0
5309,72.0,24,23,3.0,49.0
5310,71.0,24,23,3.0,49.0
5311,50.0,0,23,3.0,49.0
5312,62.0,0,23,2.0,64.0
5313,65.0,0,23,3.0,49.0
5314,72.0,0,23,3.0,49.0
5315,60.0,0,23,2.0,64.0
5316,48.0,24,23,3.0,49.0
5317,63.0,0,23,3.0,49.0
5318,75.0,0,89,3.0,49.0
5319,58.0,0,23,2.0,64.0
5320,74.0,24,23,3.0,49.0
5321,46.0,0,23,3.0,49.0
5322,62.0,0,23,3.0,49.0
5323,72.0,0,119,2.0,85.0
5324,70.0,24,23,2.0,85.0
5325,69.0,24,23,2.0,85.0
5326,60.0,24,89,3.0,49.0
5327,45.0,0,89,3.0,49.0
5328,57.0,0,89,2.0,64.0
5329,75.0,0,89,3.0,49.0
5330,79.0,0,89,3.0,49.0
5331,70.0,24,23,2.0,85.0
5332,72.0,0,23,2.0,85.0
5333,74.0,24,23,2.0,85.0
5334,75.0,24,23,2.0,85.0
5335,69.0,0,89,3.0,49.0
5336,63.0,0,89,2.0,64.0
5337,63.0,0,89,3.0,49.0
5338,69.0,0,89,2.0,64.0
5339,76.0,24,23,2.0,85.0
5340,77.0,24,45,2.0,85.0
5341,70.0,0,89,2.0,64.0
5342,62.0,0,89,3.0,49.0
5343,70.0,0,89,3.0,49.0
5344,62.0,0,89,2.0,64.0
5345,76.0,48,45,2.0,85.0
5346,75.0,0,45,2.0,85.0
5347,67.0,0,89,2.0,64.0
5348,67.0,0,89,3.0,49.0
5349,74.0,48,45,2.0,85.0
5350,72.0,0,12,2.0,85.0
5351,74.0,12,12,2.0,85.0
5352,72.0,12,12,2.0,85.0
5353,74.0,12,12,2.0,85.0
5354,72.0,12,12,2.0,85.0
5355,74.0,12,12,2.0,85.0
5356,70.0,48,177,2.0,64.0
5357,82.0,0,177,3.0,49.0
5358,72.0,12,12,2.0,85.0
5359,79.0,0,89,3.0,49.0
5360,63.0,48,89,2.0,64.0
5361,63.0,0,89,3.0,49.0
5362,74.0,12,12,2.0,85.0
5363,72.0,0,12,2.0,85.0
5364,74.0,12,12,2.0,85.0
5365,72.0,12,12,2.0,85.0
5366,74.0,12,12,2.0,85.0
5367,72.0,12,12,2.0,85.0
5368,74.0,12,12,2.0,85.0
5369,72.0,12,9,2.0,85.0
5370,65.0,0,89,2.0,64.0
5371,65.0,0,89,3.0,49.0
5372,77.0,12,89,3.0,49.0
5373,69.0,0,89,2.0,64.0
5374,81.0,0,89,3.0,49.0
5375,50.0,0,23,2.0,64.0
5376,58.0,24,23,2.0,64.0
5377,53.0,24,23,2.0,64.0
5378,77.0,0,89,2.0,85.0
5379,65.0,24,89,2.0,85.0
5380,58.0,24,23,2.0,64.0
5381,49.0,24,23,2.0,64.0
5382,58.0,24,23,2.0,64.0
5383,51.0,24,23,2.0,64.0
5384,64.0,0,45,2.0,85.0
5385,76.0,0,45,2.0,85.0
5386,58.0,24,23,2.0,64.0
5387,50.0,0,23,2.0,64.0
5388,58.0,24,23,2.0,64.0
5389,53.0,24,23,2.0,64.0
5390,77.0,0,89,2.0,85.0
5391,65.0,24,89,2.0,85.0
5392,58.0,24,23,2.0,64.0
5393,49.0,24,23,2.0,64.0
5394,58.0,24,23,2.0,64.0
5395,51.0,0,23,2.0,64.0
5396,64.0,24,45,2.0,85.0
5397,76.0,0,45,2.0,85.0
5398,58.0,24,23,2.0,64.0
5399,50.0,0,23,2.0,64.0
5400,77.0,24,45,2.0,85.0
5401,65.0,0,45,2.0,85.0
5402,58.0,24,23,2.0,64.0
5403,49.0,0,23,2.0,64.0
5404,64.0,0,45,2.0,85.0
5405,76.0,24,45,2.0,85.0
5406,58.0,24,23,2.0,64.0
5407,50.0,24,23,2.0,64.0
5408,77.0,0,45,2.0,85.0
5409,65.0,0,45,2.0,85.0
5410,58.0,24,23,2.0,64.0
5411,49.0,0,23,2.0,64.0
5412,64.0,24,45,2.0,85.0
5413,76.0,0,45,2.0,85.0
5414,58.0,24,23,2.0,64.0
5415,50.0,0,23,2.0,64.0
5416,77.0,24,45,2.0,85.0
5417,65.0,0,45,2.0,85.0
5418,58.0,24,23,2.0,64.0
5419,49.0,24,23,2.0,64.0
5420,64.0,0,45,2.0,85.0
5421,76.0,0,45,2.0,85.0
5422,58.0,24,23,2.0,64.0
5423,50.0,24,23,2.0,64.0
5424,77.0,0,45,2.0,85.0
5425,65.0,0,45,2.0,85.0
5426,58.0,24,23,2.0,64.0
5427,49.0,0,23,2.0,64.0
5428,64.0,24,45,2.0,85.0
5429,76.0,0,45,2.0,85.0
5430,58.0,24,23,2.0,64.0
5431,70.0,0,813,0.0,49.0
5432,82.0,0,813,0.0,49.0
5433,58.0,0,813,1.0,49.0
5434,70.0,0,813,1.0,49.0
5435,65.0,0,45,2.0,85.0
5436,77.0,0,45,2.0,85.0
5437,58.0,0,89,2.0,64.0
5438,50.0,24,89,2.0,64.0
5439,76.0,0,45,2.0,85.0
5440,64.0,48,45,2.0,85.0
5441,65.0,0,45,2.0,85.0
5442,77.0,48,45,2.0,85.0
5443,78.0,0,45,2.0,85.0
5444,66.0,48,45,2.0,85.0
5445,79.0,0,45,2.0,85.0
5446,67.0,48,45,2.0,85.0
5447,68.0,48,45,2.0,85.0
5448,80.0,0,45,2.0,85.0
5449,69.0,48,45,2.0,85.0
5450,81.0,0,45,2.0,85.0
5451,82.0,48,45,2.0,85.0
5452,70.0,0,45,2.0,85.0
5453,74.0,0,20,2.0,64.0
5454,89.0,48,23,2.0,85.0
5455,86.0,24,23,2.0,85.0
5456,72.0,24,20,2.0,64.0
5457,87.0,0,23,2.0,85.0
5458,84.0,24,23,2.0,85.0
5459,70.0,24,20,2.0,64.0
5460,86.0,0,23,2.0,85.0
5461,82.0,24,23,2.0,85.0
5462,69.0,0,20,2.0,64.0
5463,84.0,24,23,2.0,85.0
5464,81.0,24,23,2.0,85.0
5465,70.0,0,20,2.0,64.0
5466,86.0,24,23,2.0,85.0
5467,82.0,24,23,2.0,85.0
5468,69.0,0,20,2.0,64.0
5469,84.0,24,23,2.0,85.0
5470,81.0,24,23,2.0,85.0
5471,67.0,0,20,2.0,64.0
5472,82.0,24,23,2.0,85.0
5473,79.0,24,23,2.0,85.0
5474,66.0,24,20,2.0,64.0
5475,81.0,0,23,2.0,85.0
5476,78.0,24,23,2.0,85.0
5477,67.0,24,20,3.0,49.0
5478,82.0,0,20,3.0,49.0
5479,67.0,0,20,2.0,64.0
5480,82.0,0,23,2.0,85.0
5481,79.0,24,23,2.0,85.0
5482,65.0,0,20,3.0,49.0
5483,65.0,0,20,2.0,64.0
5484,81.0,24,20,3.0,49.0
5485,81.0,0,23,2.0,85.0
5486,77.0,24,23,2.0,85.0
5487,79.0,0,20,3.0,49.0
5488,63.0,0,20,3.0,49.0
5489,63.0,0,20,2.0,64.0
5490,79.0,24,23,2.0,85.0
5491,75.0,24,23,2.0,85.0
5492,62.0,0,20,3.0,49.0
5493,77.0,0,20,3.0,49.0
5494,62.0,0,20,2.0,64.0
5495,77.0,24,23,2.0,85.0
5496,74.0,24,23,2.0,85.0
5497,63.0,24,20,3.0,49.0
5498,79.0,0,20,3.0,49.0
5499,63.0,0,20,2.0,64.0
5500,79.0,0,23,2.0,85.0
5501,75.0,24,23,2.0,85.0
5502,62.0,0,20,3.0,49.0
5503,77.0,24,20,3.0,49.0
5504,62.0,0,20,2.0,64.0
5505,77.0,0,23,2.0,85.0
5506,74.0,24,23,2.0,85.0
5507,60.0,0,20,3.0,49.0
5508,75.0,24,20,3.0,49.0
5509,60.0,0,20,2.0,64.0
5510,75.0,0,23,2.0,85.0
5511,72.0,24,23,2.0,85.0
5512,58.0,24,20,3.0,49.0
5513,58.0,0,20,2.0,64.0
5514,74.0,0,20,3.0,49.0
5515,74.0,0,23,2.0,85.0
5516,70.0,24,23,2.0,85.0
5517,53.0,0,23,2.0,64.0
5518,70.0,24,45,3.0,49.0
5519,41.0,0,45,3.0,49.0
5520,65.0,0,45,2.0,85.0
5521,74.0,0,45,3.0,49.0
5522,65.0,0,45,3.0,49.0
5523,62.0,24,23,2.0,64.0
5524,58.0,0,23,2.0,64.0
5525,67.0,24,23,2.0,85.0
5526,41.0,0,45,3.0,51.0
5527,65.0,0,45,3.0,51.0
5528,74.0,0,45,3.0,49.0
5529,70.0,0,45,3.0,49.0
5530,69.0,24,23,2.0,85.0
5531,62.0,0,23,2.0,64.0
5532,53.0,0,23,2.0,64.0
5533,70.0,24,23,2.0,85.0
5534,41.0,0,45,3.0,53.0
5535,70.0,0,45,3.0,50.0
5536,74.0,0,45,3.0,50.0
5537,65.0,0,45,3.0,53.0
5538,62.0,0,23,2.0,64.0
5539,72.0,24,23,2.0,85.0
5540,74.0,0,23,2.0,85.0
5541,58.0,0,23,2.0,64.0
5542,65.0,0,45,3.0,55.0
5543,41.0,24,45,3.0,55.0
5544,70.0,0,45,3.0,51.0
5545,74.0,0,45,3.0,51.0
5546,62.0,24,23,2.0,64.0
5547,75.0,0,23,2.0,85.0
5548,77.0,0,23,2.0,85.0
5549,53.0,24,23,2.0,64.0
5550,74.0,0,45,3.0,52.0
5551,70.0,0,45,3.0,52.0
5552,65.0,0,45,3.0,58.0
5553,41.0,0,45,3.0,58.0
5554,79.0,24,23,2.0,85.0
5555,62.0,0,23,2.0,64.0
5556,58.0,0,23,2.0,64.0
5557,81.0,0,23,2.0,85.0
5558,70.0,0,45,3.0,53.0
5559,65.0,0,45,3.0,60.0
5560,41.0,24,45,3.0,60.0
5561,74.0,0,45,3.0,53.0
5562,62.0,24,23,2.0,64.0
5563,82.0,0,23,2.0,85.0
5564,84.0,0,23,2.0,85.0
5565,53.0,24,23,2.0,64.0
5566,70.0,0,45,3.0,54.0
5567,41.0,0,45,3.0,62.0
5568,65.0,0,45,3.0,62.0
5569,74.0,0,45,3.0,54.0
5570,62.0,24,23,2.0,64.0
5571,86.0,0,23,2.0,85.0
5572,58.0,0,23,2.0,64.0
5573,87.0,0,23,2.0,85.0
5574,70.0,0,45,3.0,55.0
5575,41.0,24,45,3.0,64.0
5576,65.0,0,45,3.0,64.0
5577,74.0,0,45,3.0,55.0
5578,62.0,24,23,2.0,64.0
5579,89.0,0,23,2.0,85.0
5580,84.0,0,12,2.0,85.0
5581,53.0,24,23,2.0,64.0
5582,69.0,0,23,3.0,56.0
5583,75.0,0,23,3.0,56.0
5584,86.0,12,12,2.0,85.0
5585,84.0,0,12,2.0,85.0
5586,41.0,0,45,3.0,67.0
5587,65.0,0,45,3.0,67.0
5588,63.0,0,23,2.0,64.0
5589,75.0,12,23,3.0,56.0
5590,69.0,0,23,3.0,56.0
5591,86.0,12,12,2.0,85.0
5592,84.0,0,12,2.0,85.0
5593,69.0,0,23,3.0,57.0
5594,75.0,0,23,3.0,57.0
5595,57.0,0,23,2.0,64.0
5596,86.0,12,12,2.0,85.0
5597,84.0,0,12,2.0,85.0
5598,65.0,0,45,3.0,69.0
5599,41.0,12,45,3.0,69.0
5600,75.0,0,23,3.0,57.0
5601,63.0,0,23,2.0,64.0
5602,69.0,12,23,3.0,57.0
5603,86.0,12,12,2.0,85.0
5604,84.0,0,12,2.0,85.0
5605,53.0,0,23,2.0,64.0
5606,75.0,0,23,3.0,58.0
5607,69.0,0,23,3.0,58.0
5608,86.0,12,12,2.0,85.0
5609,84.0,0,12,2.0,85.0
5610,65.0,12,45,3.0,71.0
5611,41.0,0,45,3.0,71.0
5612,75.0,12,23,3.0,58.0
5613,63.0,0,23,2.0,64.0
5614,69.0,0,23,3.0,58.0
5615,86.0,12,12,2.0,85.0
5616,84.0,0,12,2.0,85.0
5617,57.0,0,23,2.0,64.0
5618,75.0,0,23,3.0,59.0
5619,69.0,0,23,3.0,59.0
5620,86.0,12,12,2.0,85.0
5621,84.0,0,12,2.0,85.0
5622,41.0,12,45,3.0,73.0
5623,65.0,0,45,3.0,73.0
5624,63.0,0,23,2.0,64.0
5625,69.0,12,23,3.0,59.0
5626,75.0,0,23,3.0,59.0
5627,86.0,12,12,2.0,85.0
5628,84.0,0,12,2.0,85.0
5629,75.0,0,23,3.0,60.0
5630,53.0,0,23,2.0,64.0
5631,81.0,0,23,3.0,60.0
5632,86.0,12,12,2.0,85.0
5633,84.0,0,12,2.0,85.0
5634,41.0,0,45,3.0,76.0
5635,65.0,12,45,3.0,76.0
5636,63.0,12,23,2.0,64.0
5637,75.0,0,23,3.0,60.0
5638,81.0,0,23,3.0,60.0
5639,86.0,12,12,2.0,85.0
5640,84.0,0,12,2.0,85.0
5641,57.0,0,23,2.0,64.0
5642,81.0,0,23,3.0,61.0
5643,75.0,12,23,3.0,61.0
5644,86.0,12,12,2.0,85.0
5645,84.0,0,12,2.0,85.0
5646,65.0,0,45,3.0,78.0
5647,41.0,0,45,3.0,78.0
5648,75.0,12,23,3.0,61.0
5649,63.0,0,23,2.0,64.0
5650,81.0,0,23,3.0,61.0
5651,86.0,12,12,2.0,85.0
5652,84.0,0,12,2.0,85.0
5653,81.0,0,23,3.0,62.0
5654,75.0,0,23,3.0,62.0
5655,53.0,0,23,2.0,64.0
5656,86.0,12,12,2.0,85.0
5657,84.0,0,12,2.0,85.0
5658,65.0,0,45,3.0,80.0
5659,41.0,12,45,3.0,80.0
5660,63.0,0,23,2.0,64.0
5661,81.0,0,23,3.0,62.0
5662,75.0,12,23,3.0,62.0
5663,86.0,12,12,2.0,85.0
5664,84.0,0,12,2.0,85.0
5665,65.0,0,738,1.0,49.0
5666,86.0,12,6,2.0,85.0
5667,57.0,0,23,2.0,64.0
5668,75.0,0,23,3.0,63.0
5669,81.0,0,23,3.0,63.0
5670,84.0,0,177,0.0,64.0
5671,81.0,0,177,0.0,64.0
5672,41.0,0,45,3.0,82.0
5673,65.0,12,45,3.0,82.0
5674,63.0,12,23,2.0,64.0
5675,75.0,0,23,3.0,63.0
5676,81.0,0,23,3.0,63.0
5677,74.0,0,89,3.0,85.0
5678,62.0,0,89,2.0,64.0
5679,58.0,0,89,2.0,64.0
5680,70.0,0,89,1.0,49.0
5681,62.0,0,89,1.0,49.0
5682,82.0,0,89,0.0,49.0
5683,82.0,24,89,3.0,85.0
5684,65.0,0,89,3.0,85.0
5685,82.0,0,89,2.0,85.0
5686,34.0,0,89,3.0,85.0
5687,62.0,96,133,3.0,85.0
5688,70.0,0,133,3.0,85.0
5689,69.0,48,23,3.0,54.0
5690,60.0,0,23,3.0,54.0
5691,62.0,24,23,3.0,49.0
5692,70.0,0,23,3.0,49.0
5693,72.0,24,23,3.0,49.0
5694,63.0,0,23,3.0,49.0
5695,60.0,0,23,3.0,49.0
5696,69.0,24,23,3.0,49.0
5697,63.0,24,23,3.0,49.0
5698,72.0,0,23,3.0,49.0
5699,41.0,0,177,3.0,85.0
5700,65.0,0,177,3.0,85.0
5701,65.0,0,177,1.0,64.0
5702,75.0,0,89,0.0,49.0
5703,69.0,0,89,0.0,49.0
5704,60.0,24,23,3.0,49.0
5705,69.0,0,23,3.0,49.0
5706,70.0,0,89,1.0,49.0
5707,74.0,0,89,0.0,49.0
5708,62.0,0,89,1.0,49.0
5709,70.0,0,89,3.0,49.0
5710,46.0,0,89,3.0,61.0
5711,70.0,24,89,0.0,49.0
5712,62.0,0,89,3.0,49.0
5713,58.0,0,89,3.0,61.0
5714,74.0,0,133,3.0,85.0
5715,62.0,96,133,3.0,85.0
5716,70.0,0,133,3.0,85.0
5717,65.0,0,37,3.0,49.0
5718,69.0,0,10,3.0,54.0
5719,72.0,48,10,3.0,54.0
5720,70.0,0,10,3.0,49.0
5721,74.0,24,10,3.0,49.0
5722,72.0,24,23,3.0,49.0
5723,75.0,0,23,3.0,49.0
5724,69.0,0,23,3.0,49.0
5725,72.0,24,23,3.0,49.0
5726,72.0,24,10,3.0,49.0
5727,75.0,0,10,3.0,49.0
5728,65.0,0,177,1.0,64.0
5729,41.0,0,177,3.0,49.0
5730,72.0,24,10,3.0,49.0
5731,69.0,0,10,3.0,49.0
5732,81.0,0,89,0.0,49.0
5733,75.0,0,89,0.0,49.0
5734,58.0,0,20,3.0,85.0
5735,34.0,0,45,3.0,85.0
5736,74.0,0,45,3.0,85.0
5737,70.0,48,20,3.0,85.0
5738,82.0,24,89,0.0,64.0
5739,58.0,0,89,1.0,64.0
5740,70.0,0,89,1.0,64.0
5741,74.0,0,89,0.0,64.0
5742,46.0,0,45,3.0,85.0
5743,82.0,0,6,3.0,85.0
5744,62.0,0,20,3.0,85.0
5745,38.0,0,45,3.0,85.0
5746,80.0,6,39,3.0,85.0
5747,58.0,0,67,1.0,64.0
5748,70.0,0,67,1.0,64.0
5749,70.0,0,20,3.0,85.0
5750,79.0,0,23,3.0,85.0
5751,80.0,48,89,0.0,64.0
5752,46.0,42,45,3.0,85.0
5753,58.0,0,23,1.0,64.0
5754,70.0,24,23,1.0,64.0
5755,80.0,0,23,3.0,85.0
5756,80.0,0,6,3.0,85.0
5757,63.0,24,20,3.0,85.0
5758,82.0,0,89,3.0,85.0
5759,39.0,0,45,3.0,85.0
5760,79.0,6,39,3.0,85.0
5761,70.0,0,20,3.0,85.0
5762,78.0,0,23,3.0,85.0
5763,70.0,0,89,1.0,64.0
5764,58.0,0,89,1.0,64.0
5765,46.0,42,45,3.0,85.0
5766,79.0,24,23,3.0,85.0
5767,80.0,0,6,3.0,85.0
5768,63.0,0,20,3.0,85.0
5769,82.0,0,89,3.0,85.0
5770,39.0,0,45,3.0,85.0
5771,79.0,6,39,3.0,85.0
5772,70.0,0,67,1.0,64.0
5773,58.0,24,67,1.0,64.0
5774,70.0,0,20,3.0,85.0
5775,78.0,42,23,3.0,85.0
5776,79.0,0,177,0.0,64.0
5777,46.0,0,45,3.0,85.0
5778,79.0,0,23,3.0,85.0
5779,58.0,0,23,1.0,64.0
5780,70.0,24,23,1.0,64.0
5781,79.0,0,6,3.0,85.0
5782,62.0,0,20,3.0,85.0
5783,38.0,24,45,3.0,85.0
5784,77.0,6,39,3.0,85.0
5785,82.0,0,93,3.0,85.0
5786,70.0,0,20,3.0,85.0
5787,76.0,0,23,3.0,85.0
5788,58.0,0,89,1.0,64.0
5789,70.0,0,89,1.0,64.0
5790,46.0,42,45,3.0,85.0
5791,77.0,24,23,3.0,85.0
5792,79.0,0,6,3.0,85.0
5793,62.0,24,20,3.0,85.0
5794,82.0,0,89,3.0,85.0
5795,77.0,6,39,3.0,85.0
5796,38.0,0,45,3.0,85.0
5797,58.0,0,67,1.0,64.0
5798,70.0,0,67,1.0,64.0
5799,70.0,42,20,3.0,85.0
5800,76.0,0,23,3.0,85.0
5801,77.0,0,177,0.0,64.0
5802,46.0,0,45,3.0,85.0
5803,77.0,24,23,3.0,85.0
5804,58.0,0,23,1.0,64.0
5805,70.0,0,23,1.0,64.0
5806,77.0,0,6,3.0,85.0
5807,67.0,0,20,3.0,85.0
5808,82.0,0,89,3.0,85.0
5809,43.0,0,45,3.0,85.0
5810,75.0,6,39,3.0,85.0
5811,70.0,0,20,3.0,85.0
5812,74.0,0,23,3.0,85.0
5813,58.0,0,89,1.0,64.0
5814,75.0,0,89,0.0,64.0
5815,70.0,24,89,1.0,64.0
5816,46.0,42,45,3.0,85.0
5817,75.0,24,23,3.0,85.0
5818,74.0,0,6,3.0,85.0
5819,64.0,0,20,3.0,85.0
5820,82.0,0,89,3.0,85.0
5821,40.0,0,45,3.0,85.0
5822,72.0,6,39,3.0,85.0
5823,70.0,42,20,3.0,85.0
5824,71.0,0,23,3.0,85.0
5825,58.0,0,89,1.0,64.0
5826,72.0,0,89,0.0,64.0
5827,70.0,24,89,1.0,64.0
5828,67.0,0,89,0.0,64.0
5829,46.0,0,45,3.0,85.0
5830,82.0,0,45,3.0,85.0
5831,72.0,24,23,3.0,85.0
5832,82.0,0,177,3.0,49.0
5833,65.0,0,177,1.0,49.0
5834,41.0,0,177,3.0,49.0
5835,70.0,0,177,0.0,49.0
5836,65.0,0,177,3.0,49.0
5837,74.0,0,177,3.0,49.0
5838,74.0,0,354,2.0,85.0
5839,53.0,0,354,2.0,64.0
5840,70.0,24,354,2.0,85.0
5841,72.0,0,12,2.0,85.0
5842,74.0,12,12,2.0,85.0
5843,72.0,12,12,2.0,85.0
5844,74.0,12,12,2.0,85.0
5845,72.0,12,12,2.0,85.0
5846,74.0,12,12,2.0,85.0
5847,72.0,12,12,2.0,85.0
5848,74.0,12,12,2.0,85.0
5849,72.0,12,12,2.0,85.0
5850,74.0,12,12,2.0,85.0
5851,72.0,12,12,2.0,85.0
5852,74.0,12,12,2.0,85.0
5853,72.0,12,12,2.0,85.0
5854,74.0,12,12,2.0,85.0
5855,72.0,12,12,2.0,85.0
5856,74.0,12,12,2.0,85.0
5857,72.0,12,12,2.0,85.0
5858,74.0,12,12,2.0,85.0
5859,72.0,12,12,2.0,85.0
5860,74.0,12,12,2.0,85.0
5861,72.0,12,12,2.0,85.0
5862,74.0,12,12,2.0,85.0
5863,63.0,0,265,2.0,64.0
5864,53.0,432,265,2.0,64.0
5865,57.0,0,265,2.0,64.0
5866,72.0,12,1,2.0,85.0
5867,70.0,24,23,2.0,85.0
5868,72.0,24,23,2.0,85.0
5869,70.0,0,23,3.0,85.0
5870,34.0,0,45,3.0,85.0
5871,65.0,24,23,3.0,85.0
5872,62.0,0,23,3.0,85.0
5873,70.0,24,89,2.0,85.0
5874,58.0,0,89,2.0,64.0
5875,65.0,24,17,3.0,85.0
5876,62.0,0,89,2.0,64.0
5877,70.0,0,89,0.0,64.0
5878,34.0,24,45,3.0,85.0
5879,74.0,0,20,0.0,64.0
5880,74.0,0,20,3.0,85.0
5881,58.0,0,20,3.0,85.0
5882,34.0,0,45,3.0,85.0
5883,74.0,0,20,0.0,64.0
5884,74.0,0,20,3.0,85.0
5885,58.0,0,20,3.0,85.0
5886,34.0,0,45,3.0,85.0
5887,74.0,48,20,3.0,85.0
5888,59.0,0,45,3.0,85.0
5889,74.0,0,45,0.0,64.0
5890,34.0,0,45,3.0,85.0
5891,75.0,0,20,3.0,85.0
5892,34.0,48,45,3.0,85.0
5893,60.0,0,45,3.0,85.0
5894,75.0,0,45,0.0,64.0
5895,75.0,0,20,3.0,85.0
5896,75.0,0,20,0.0,64.0
5897,60.0,0,20,3.0,85.0
5898,34.0,48,45,3.0,85.0
5899,82.0,0,354,0.0,64.0
5900,75.0,0,20,3.0,85.0
5901,75.0,48,20,0.0,64.0
5902,60.0,0,20,3.0,85.0
5903,34.0,0,45,3.0,85.0
5904,61.0,0,45,3.0,85.0
5905,34.0,0,45,3.0,85.0
5906,76.0,48,45,3.0,85.0
5907,76.0,0,45,0.0,64.0
5908,77.0,48,45,3.0,85.0
5909,34.0,0,45,3.0,85.0
5910,77.0,0,45,0.0,64.0
5911,62.0,0,45,3.0,85.0
5912,77.0,0,20,0.0,64.0
5913,62.0,0,20,3.0,85.0
5914,77.0,0,20,3.0,85.0
5915,34.0,0,45,3.0,85.0
5916,77.0,0,20,3.0,85.0
5917,62.0,0,20,3.0,85.0
5918,77.0,0,20,0.0,64.0
5919,34.0,0,45,3.0,85.0
5920,78.0,0,45,3.0,85.0
5921,62.0,0,45,3.0,85.0
5922,78.0,0,45,0.0,64.0
5923,34.0,48,45,3.0,85.0
5924,82.0,0,265,0.0,64.0
5925,79.0,0,45,3.0,85.0
5926,63.0,0,45,3.0,85.0
5927,34.0,0,45,3.0,85.0
5928,79.0,0,45,0.0,64.0
5929,79.0,0,20,0.0,64.0
5930,34.0,48,45,3.0,85.0
5931,63.0,0,45,3.0,85.0
5932,79.0,0,45,3.0,85.0
5933,81.0,0,20,0.0,64.0
5934,75.0,0,89,0.0,64.0
5935,81.0,0,45,3.0,85.0
5936,34.0,48,45,3.0,85.0
5937,60.0,0,45,3.0,85.0
5938,62.0,0,45,3.0,85.0
5939,70.0,0,813,1.0,64.0
5940,34.0,48,45,3.0,85.0
5941,82.0,0,45,0.0,64.0
5942,58.0,0,813,1.0,64.0
5943,82.0,0,45,3.0,85.0
5944,74.0,0,45,0.0,64.0
5945,70.0,96,45,3.0,49.0
5946,82.0,0,45,3.0,49.0
5947,68.0,48,45,3.0,49.0
5948,80.0,0,45,3.0,49.0
5949,78.0,48,45,3.0,49.0
5950,66.0,0,45,3.0,49.0
5951,67.0,0,45,3.0,49.0
5952,79.0,48,45,3.0,49.0
5953,76.0,0,45,3.0,49.0
5954,64.0,48,45,3.0,49.0
5955,65.0,0,45,3.0,49.0
5956,77.0,48,45,3.0,49.0
5957,74.0,48,45,3.0,49.0
5958,62.0,0,45,3.0,49.0
5959,75.0,48,45,3.0,49.0
5960,63.0,0,45,3.0,49.0
5961,73.0,48,45,3.0,49.0
5962,61.0,0,45,3.0,49.0
5963,74.0,0,45,3.0,49.0
5964,62.0,48,45,3.0,49.0
5965,41.0,0,45,3.0,85.0
5966,68.0,0,45,3.0,85.0
5967,71.0,0,45,3.0,85.0
5968,83.0,48,45,0.0,64.0
5969,62.0,0,45,3.0,85.0
5970,80.0,0,45,0.0,64.0
5971,63.0,0,45,3.0,49.0
5972,84.0,0,45,0.0,49.0
5973,72.0,48,45,3.0,49.0
5974,39.0,0,45,3.0,49.0
5975,79.0,0,45,0.0,49.0
5976,67.0,0,45,3.0,49.0
5977,78.0,48,45,3.0,49.0
5978,79.0,48,45,3.0,49.0
5979,66.0,0,45,3.0,85.0
5980,69.0,0,45,3.0,85.0
5981,81.0,0,45,0.0,64.0
5982,39.0,0,45,3.0,85.0
5983,78.0,48,45,0.0,64.0
5984,60.0,0,45,3.0,85.0
5985,70.0,0,45,3.0,49.0
5986,82.0,0,45,0.0,49.0
5987,62.0,0,45,3.0,49.0
5988,38.0,0,45,3.0,49.0
5989,65.0,48,45,3.0,49.0
5990,77.0,0,45,0.0,49.0
5991,76.0,48,45,3.0,49.0
5992,77.0,48,45,3.0,49.0
5993,82.0,0,39,0.0,64.0
5994,58.0,0,39,1.0,64.0
5995,70.0,48,39,0.0,64.0
5996,70.0,0,39,1.0,64.0
5997,70.0,0,67,3.0,85.0
5998,82.0,0,67,3.0,85.0
5999,46.0,0,67,3.0,85.0
6000,82.0,0,23,3.0,85.0
6001,46.0,0,23,3.0,85.0
6002,70.0,0,23,3.0,85.0
6003,74.0,0,39,0.0,64.0
6004,74.0,0,39,1.0,64.0
6005,86.0,0,39,0.0,64.0
6006,62.0,0,39,1.0,64.0
6007,50.0,0,67,3.0,85.0
6008,74.0,0,67,3.0,85.0
6009,86.0,0,67,3.0,85.0
6010,74.0,0,23,3.0,85.0
6011,86.0,0,23,3.0,85.0
6012,50.0,72,23,3.0,85.0
6013,77.0,0,89,0.0,64.0
6014,77.0,0,89,1.0,64.0
6015,53.0,0,89,3.0,85.0
6016,77.0,0,89,3.0,85.0
6017,65.0,24,89,3.0,85.0
6018,74.0,0,67,1.0,64.0
6019,74.0,0,67,3.0,85.0
6020,62.0,0,67,3.0,85.0
6021,50.0,0,67,3.0,85.0
6022,74.0,0,67,0.0,64.0
6023,58.0,0,23,3.0,85.0
6024,46.0,0,23,3.0,85.0
6025,70.0,0,23,0.0,64.0
6026,70.0,0,23,3.0,85.0
6027,70.0,0,23,1.0,64.0
6028,77.0,0,89,1.0,64.0
6029,77.0,0,89,0.0,64.0
6030,77.0,0,89,3.0,85.0
6031,53.0,0,89,3.0,85.0
6032,65.0,0,89,3.0,85.0
6033,65.0,0,89,3.0,85.0
6034,65.0,0,89,1.0,64.0
6035,65.0,0,89,0.0,64.0
6036,53.0,0,89,3.0,85.0
6037,41.0,0,89,3.0,85.0
6038,70.0,0,89,1.0,49.0
6039,46.0,0,89,3.0,85.0
6040,70.0,0,89,0.0,64.0
6041,70.0,0,89,3.0,85.0
6042,58.0,96,89,3.0,85.0
6043,62.0,0,89,3.0,85.0
6044,62.0,0,89,1.0,49.0
6045,70.0,96,133,3.0,85.0
6046,62.0,0,133,3.0,85.0
6047,60.0,0,23,3.0,54.0
6048,69.0,48,23,3.0,54.0
6049,70.0,24,23,3.0,49.0
6050,62.0,0,23,3.0,49.0
6051,72.0,24,23,3.0,49.0
6052,63.0,0,23,3.0,49.0
6053,60.0,24,23,3.0,49.0
6054,69.0,0,23,3.0,49.0
6055,63.0,24,10,3.0,49.0
6056,72.0,0,10,3.0,49.0
6057,65.0,0,177,3.0,85.0
6058,65.0,0,177,1.0,64.0
6059,41.0,96,177,3.0,85.0
6060,60.0,24,10,3.0,49.0
6061,69.0,0,10,3.0,49.0
6062,69.0,0,89,0.0,64.0
6063,75.0,0,89,0.0,64.0
6064,70.0,24,89,0.0,64.0
6065,34.0,0,89,3.0,49.0
6066,62.0,0,89,3.0,49.0
6067,58.0,0,89,3.0,49.0
6068,62.0,0,89,1.0,49.0
6069,70.0,0,89,3.0,49.0
6070,70.0,0,89,1.0,49.0
6071,74.0,0,89,0.0,64.0
6072,74.0,96,133,3.0,85.0
6073,70.0,0,133,3.0,85.0
6074,65.0,0,37,3.0,85.0
6075,62.0,0,133,3.0,85.0
6076,69.0,0,23,3.0,54.0
6077,72.0,48,23,3.0,54.0
6078,74.0,24,23,3.0,49.0
6079,70.0,0,23,3.0,49.0
6080,72.0,0,23,3.0,49.0
6081,75.0,24,23,3.0,49.0
6082,72.0,0,23,3.0,49.0
6083,69.0,24,23,3.0,49.0
6084,75.0,24,10,3.0,49.0
6085,72.0,0,10,3.0,49.0
6086,65.0,0,177,1.0,64.0
6087,41.0,96,177,3.0,85.0
6088,72.0,24,10,3.0,49.0
6089,69.0,0,10,3.0,49.0
6090,81.0,0,89,0.0,64.0
6091,75.0,0,89,0.0,64.0
6092,70.0,0,39,1.0,85.0
6093,70.0,0,39,3.0,85.0
6094,46.0,0,39,3.0,85.0
6095,74.0,0,89,3.0,85.0
6096,74.0,24,89,0.0,85.0
6097,82.0,0,89,0.0,85.0
6098,65.0,0,39,1.0,85.0
6099,41.0,0,39,3.0,85.0
6100,65.0,0,39,3.0,85.0
6101,77.0,0,39,3.0,85.0
6102,70.0,0,39,3.0,85.0
6103,74.0,0,39,0.0,85.0
6104,77.0,96,39,0.0,85.0
6105,74.0,0,39,3.0,85.0
6106,62.0,0,39,1.0,85.0
6107,62.0,0,39,3.0,85.0
6108,82.0,0,39,0.0,85.0
6109,77.0,0,39,3.0,85.0
6110,70.0,0,39,3.0,85.0
6111,82.0,0,39,3.0,85.0
6112,77.0,0,39,0.0,85.0
6113,38.0,0,39,3.0,85.0
6114,74.0,96,39,3.0,85.0
6115,34.0,0,39,3.0,85.0
6116,86.0,0,39,3.0,85.0
6117,77.0,0,39,3.0,85.0
6118,82.0,0,39,0.0,85.0
6119,86.0,96,39,0.0,85.0
6120,82.0,0,39,3.0,85.0
6121,74.0,0,39,3.0,85.0
6122,58.0,0,39,1.0,85.0
6123,58.0,0,39,3.0,85.0
6124,58.0,0,10,3.0,49.0
6125,65.0,24,10,3.0,49.0
6126,46.0,0,45,3.0,49.0
6127,58.0,0,10,3.0,49.0
6128,65.0,24,10,3.0,49.0
6129,62.0,96,89,3.0,49.0
6130,74.0,0,89,0.0,49.0
6131,70.0,0,89,3.0,49.0
6132,57.0,24,10,3.0,49.0
6133,72.0,0,23,3.0,49.0
6134,65.0,24,10,3.0,49.0
6135,77.0,24,89,0.0,49.0
6136,41.0,0,45,3.0,49.0
6137,65.0,0,45,1.0,49.0
6138,72.0,0,45,1.0,49.0
6139,75.0,0,23,3.0,49.0
6140,57.0,0,10,3.0,49.0
6141,74.0,24,23,3.0,49.0
6142,65.0,0,10,3.0,49.0
6143,63.0,0,89,3.0,49.0
6144,75.0,0,89,0.0,49.0
6145,81.0,0,45,0.0,49.0
6146,72.0,24,23,3.0,49.0
6147,58.0,0,10,3.0,49.0
6148,65.0,24,10,3.0,49.0
6149,70.0,0,45,1.0,49.0
6150,82.0,0,45,0.0,49.0
6151,74.0,0,45,1.0,49.0
6152,46.0,0,45,3.0,49.0
6153,58.0,0,10,3.0,49.0
6154,65.0,24,10,3.0,49.0
6155,74.0,0,89,0.0,49.0
6156,62.0,0,89,3.0,49.0
6157,70.0,24,89,3.0,49.0
6158,57.0,0,10,3.0,49.0
6159,72.0,24,23,3.0,49.0
6160,65.0,24,10,3.0,49.0
6161,77.0,24,89,0.0,49.0
6162,72.0,0,45,1.0,49.0
6163,65.0,0,45,1.0,49.0
6164,41.0,0,45,3.0,49.0
6165,75.0,0,23,3.0,49.0
6166,57.0,24,10,3.0,49.0
6167,74.0,0,23,3.0,49.0
6168,65.0,0,10,3.0,49.0
6169,75.0,0,89,0.0,49.0
6170,63.0,0,89,3.0,49.0
6171,81.0,0,45,0.0,49.0
6172,72.0,24,23,3.0,49.0
6173,58.0,0,10,3.0,49.0
6174,70.0,0,20,3.0,49.0
6175,65.0,24,10,3.0,49.0
6176,46.0,0,45,3.0,49.0
6177,70.0,24,45,1.0,49.0
6178,65.0,0,45,1.0,49.0
6179,82.0,0,45,0.0,49.0
6180,58.0,0,10,3.0,49.0
6181,70.0,24,20,3.0,49.0
6182,65.0,24,10,3.0,49.0
6183,74.0,0,89,0.0,49.0
6184,62.0,0,89,3.0,49.0
6185,57.0,0,10,3.0,49.0
6186,72.0,0,23,3.0,49.0
6187,65.0,0,10,3.0,49.0
6188,77.0,0,89,0.0,49.0
6189,65.0,0,45,1.0,49.0
6190,72.0,0,45,1.0,49.0
6191,41.0,24,45,3.0,49.0
6192,75.0,24,23,3.0,49.0
6193,57.0,0,10,3.0,49.0
6194,74.0,24,23,3.0,49.0
6195,65.0,24,10,3.0,49.0
6196,63.0,0,89,3.0,49.0
6197,75.0,0,89,0.0,49.0
6198,81.0,0,45,0.0,49.0
6199,72.0,0,23,3.0,49.0
6200,58.0,0,39,3.0,49.0
6201,34.0,0,89,3.0,49.0
6202,62.0,0,89,3.0,49.0
6203,74.0,0,89,0.0,49.0
6204,70.0,0,89,1.0,49.0
6205,62.0,0,89,1.0,49.0
6206,82.0,0,89,0.0,49.0
6207,70.0,24,89,3.0,49.0
