,note,step,duration,channel,velocity
0,77.0,0,388,10.0,62.0
1,62.0,0,408,11.0,62.0
2,75.0,0,152,10.0,62.0
3,60.0,360,164,11.0,62.0
4,58.0,120,96,11.0,62.0
5,74.0,0,96,10.0,62.0
6,65.0,0,740,12.0,62.0
7,46.0,0,760,14.0,62.0
8,58.0,0,760,13.0,62.0
9,74.0,0,96,10.0,62.0
10,60.0,240,96,11.0,62.0
11,45.0,0,216,14.0,62.0
12,57.0,0,216,13.0,62.0
13,66.0,0,280,12.0,62.0
14,67.0,0,204,12.0,62.0
15,58.0,0,240,11.0,62.0
16,43.0,0,268,14.0,62.0
17,55.0,0,268,13.0,62.0
18,74.0,240,392,10.0,62.0
19,79.0,120,96,10.0,62.0
20,53.0,240,268,13.0,62.0
21,41.0,0,268,14.0,62.0
22,72.0,0,96,10.0,62.0
23,67.0,0,440,12.0,62.0
24,70.0,0,468,11.0,62.0
25,51.0,0,268,13.0,62.0
26,39.0,120,268,14.0,62.0
27,72.0,240,96,10.0,62.0
28,52.0,0,216,13.0,62.0
29,40.0,0,216,14.0,62.0
30,70.0,0,228,11.0,62.0
31,67.0,0,240,12.0,62.0
32,60.0,0,25,12.0,79.0
33,69.0,0,145,11.0,75.0
34,57.0,0,145,12.0,74.0
35,72.0,0,145,10.0,70.0
36,72.0,0,36,0.0,88.0
37,69.0,0,156,0.0,80.0
38,75.0,0,145,10.0,74.0
39,72.0,120,145,11.0,79.0
40,63.0,0,145,12.0,79.0
41,75.0,0,156,0.0,88.0
42,58.0,120,145,12.0,80.0
43,74.0,0,145,10.0,78.0
44,62.0,0,145,12.0,80.0
45,70.0,0,145,11.0,83.0
46,74.0,0,156,0.0,88.0
47,70.0,0,156,0.0,88.0
48,72.0,0,72,10.0,82.0
49,41.0,240,440,14.0,78.0
50,53.0,0,440,13.0,78.0
51,69.0,0,84,11.0,88.0
52,60.0,0,84,12.0,80.0
53,57.0,0,96,12.0,80.0
54,65.0,0,468,2.0,75.0
55,72.0,120,120,0.0,88.0
56,69.0,0,120,0.0,88.0
57,62.0,0,23,12.0,80.0
58,74.0,120,23,0.0,76.0
59,63.0,120,145,12.0,80.0
60,79.0,0,145,10.0,88.0
61,75.0,0,145,11.0,88.0
62,67.0,0,145,12.0,80.0
63,79.0,0,156,0.0,88.0
64,75.0,0,156,0.0,88.0
65,77.0,0,47,10.0,88.0
66,77.0,0,47,0.0,76.0
67,65.0,0,47,12.0,80.0
68,74.0,0,47,11.0,88.0
69,65.0,0,0,2.0,77.0
70,72.0,0,23,0.0,76.0
71,60.0,0,23,12.0,80.0
72,77.0,0,145,10.0,88.0
73,74.0,0,145,11.0,88.0
74,62.0,0,145,12.0,80.0
75,65.0,0,145,12.0,80.0
76,74.0,120,156,0.0,88.0
77,77.0,0,156,0.0,88.0
78,75.0,0,47,0.0,76.0
79,63.0,120,47,12.0,80.0
80,72.0,0,47,11.0,88.0
81,75.0,0,47,10.0,88.0
82,41.0,0,448,14.0,84.0
83,53.0,0,448,13.0,84.0
84,70.0,0,23,0.0,74.0
85,58.0,0,23,12.0,80.0
86,60.0,0,145,12.0,80.0
87,75.0,0,145,10.0,88.0
88,63.0,0,145,12.0,80.0
89,72.0,0,145,11.0,88.0
90,75.0,0,156,0.0,88.0
91,72.0,0,156,0.0,88.0
92,62.0,0,47,12.0,80.0
93,70.0,0,47,11.0,88.0
94,74.0,120,47,0.0,74.0
95,74.0,0,47,10.0,88.0
96,62.0,0,23,12.0,80.0
97,74.0,0,23,0.0,73.0
98,63.0,0,145,12.0,80.0
99,75.0,120,145,11.0,89.0
100,79.0,0,145,10.0,91.0
101,67.0,0,145,12.0,80.0
102,79.0,0,156,0.0,88.0
103,75.0,0,156,0.0,88.0
104,65.0,0,47,12.0,80.0
105,74.0,120,47,11.0,85.0
106,77.0,0,47,0.0,73.0
107,77.0,0,47,10.0,86.0
108,58.0,120,480,13.0,84.0
109,58.0,0,480,2.0,78.0
110,70.0,0,480,2.0,78.0
111,46.0,0,480,14.0,84.0
112,58.0,0,120,2.0,80.0
113,46.0,120,145,13.0,84.0
114,34.0,0,145,14.0,84.0
115,62.0,0,120,2.0,80.0
116,38.0,0,145,14.0,84.0
117,50.0,120,145,13.0,84.0
118,34.0,0,96,14.0,84.0
119,46.0,120,96,13.0,84.0
120,65.0,0,480,12.0,80.0
121,58.0,0,120,2.0,80.0
122,77.0,0,480,0.0,83.0
123,74.0,0,480,0.0,83.0
124,62.0,0,480,12.0,80.0
125,74.0,120,600,11.0,80.0
126,77.0,0,600,10.0,81.0
127,76.0,120,145,11.0,62.0
128,82.0,0,145,10.0,62.0
129,77.0,0,145,11.0,62.0
130,81.0,120,145,10.0,62.0
131,41.0,120,480,14.0,84.0
132,65.0,0,480,2.0,80.0
133,53.0,0,480,13.0,84.0
134,73.0,120,145,11.0,62.0
135,79.0,0,145,10.0,62.0
136,77.0,120,145,10.0,62.0
137,74.0,0,145,11.0,62.0
138,75.0,120,145,10.0,62.0
139,69.0,0,145,11.0,62.0
140,74.0,120,145,10.0,62.0
141,70.0,0,145,11.0,62.0
142,63.0,0,100,11.0,62.0
143,72.0,120,145,10.0,62.0
144,62.0,0,108,0.0,63.0
145,65.0,0,108,0.0,63.0
146,70.0,120,120,2.0,68.0
147,58.0,0,120,2.0,68.0
148,46.0,0,0,13.0,62.0
149,58.0,0,120,12.0,62.0
150,62.0,0,240,11.0,62.0
151,34.0,0,0,14.0,62.0
152,65.0,0,0,12.0,62.0
153,70.0,120,240,10.0,62.0
154,65.0,0,108,0.0,67.0
155,62.0,0,108,0.0,67.0
156,58.0,120,120,2.0,72.0
157,46.0,0,0,13.0,62.0
158,58.0,0,0,12.0,62.0
159,65.0,0,0,12.0,62.0
160,70.0,0,0,2.0,81.0
161,34.0,0,0,14.0,62.0
162,65.0,0,108,0.0,67.0
163,62.0,120,108,0.0,67.0
164,58.0,0,0,12.0,79.0
165,58.0,0,120,2.0,81.0
166,70.0,0,0,2.0,86.0
167,82.0,0,145,10.0,83.0
168,62.0,0,145,11.0,74.0
169,62.0,0,240,0.0,85.0
170,70.0,0,240,0.0,85.0
171,81.0,120,145,10.0,83.0
172,65.0,0,145,11.0,74.0
173,79.0,0,145,10.0,82.0
174,63.0,120,145,11.0,75.0
175,62.0,120,120,11.0,75.0
176,58.0,0,480,13.0,82.0
177,46.0,120,480,14.0,82.0
178,78.0,0,120,10.0,81.0
179,78.0,0,120,10.0,81.0
180,62.0,120,145,11.0,76.0
181,63.0,120,47,11.0,76.0
182,79.0,0,47,10.0,80.0
183,63.0,120,47,11.0,77.0
184,79.0,0,47,10.0,80.0
185,63.0,0,47,11.0,77.0
186,79.0,120,47,10.0,79.0
187,51.0,0,480,14.0,88.0
188,63.0,0,480,13.0,88.0
189,58.0,0,960,2.0,86.0
190,79.0,0,145,10.0,62.0
191,63.0,120,145,11.0,62.0
192,74.0,0,156,0.0,62.0
193,71.0,0,156,0.0,62.0
194,77.0,0,162,10.0,62.0
195,62.0,120,162,11.0,62.0
196,74.0,0,23,0.0,59.0
197,75.0,0,145,10.0,62.0
198,60.0,0,145,11.0,62.0
199,72.0,0,156,0.0,62.0
200,75.0,120,156,0.0,62.0
201,77.0,0,47,0.0,59.0
202,74.0,120,106,10.0,62.0
203,59.0,0,110,11.0,62.0
204,55.0,0,480,13.0,62.0
205,43.0,0,480,14.0,62.0
206,74.0,120,120,10.0,62.0
207,72.0,0,23,0.0,52.0
208,59.0,0,145,11.0,62.0
209,74.0,0,156,0.0,62.0
210,77.0,0,156,0.0,62.0
211,60.0,0,47,11.0,62.0
212,75.0,120,47,0.0,52.0
213,75.0,0,47,10.0,62.0
214,60.0,0,47,11.0,62.0
215,75.0,0,47,10.0,62.0
216,75.0,120,47,10.0,62.0
217,60.0,0,47,11.0,62.0
218,60.0,0,480,13.0,62.0
219,55.0,0,960,12.0,53.0
220,72.0,0,240,0.0,62.0
221,75.0,120,240,0.0,62.0
222,48.0,0,480,14.0,62.0
223,63.0,0,145,11.0,80.0
224,75.0,0,145,10.0,79.0
225,48.0,120,145,13.0,74.0
226,36.0,0,145,14.0,74.0
227,67.0,0,145,12.0,78.0
228,38.0,0,145,14.0,74.0
229,65.0,0,145,11.0,80.0
230,65.0,0,145,12.0,78.0
231,50.0,120,145,13.0,74.0
232,74.0,0,145,10.0,79.0
233,51.0,0,145,13.0,74.0
234,39.0,0,145,14.0,74.0
235,63.0,120,145,12.0,78.0
236,67.0,0,145,11.0,80.0
237,72.0,0,145,10.0,79.0
238,71.0,0,120,10.0,79.0
239,62.0,120,120,12.0,78.0
240,68.0,0,120,11.0,80.0
241,53.0,0,145,13.0,75.0
242,41.0,0,145,14.0,75.0
243,71.0,0,169,10.0,79.0
244,72.0,120,104,10.0,79.0
245,67.0,0,240,11.0,80.0
246,51.0,0,240,13.0,75.0
247,39.0,0,0,14.0,76.0
248,63.0,0,240,12.0,78.0
249,59.0,120,145,11.0,80.0
250,60.0,120,47,11.0,80.0
251,74.0,0,184,10.0,79.0
252,75.0,0,92,10.0,79.0
253,51.0,0,240,13.0,76.0
254,79.0,0,480,0.0,76.0
255,67.0,120,480,0.0,76.0
256,55.0,0,240,12.0,78.0
257,62.0,0,145,11.0,80.0
258,63.0,120,47,11.0,80.0
259,78.0,0,169,10.0,79.0
260,79.0,0,92,10.0,79.0
261,39.0,0,240,14.0,77.0
262,51.0,0,0,13.0,78.0
263,51.0,0,240,12.0,78.0
264,75.0,0,23,0.0,82.0
265,67.0,0,145,11.0,80.0
266,79.0,0,156,0.0,82.0
267,72.0,0,156,0.0,82.0
268,84.0,0,47,0.0,82.0
269,63.0,120,47,11.0,80.0
270,75.0,120,169,10.0,79.0
271,72.0,0,92,10.0,79.0
272,39.0,0,240,14.0,78.0
273,67.0,0,240,12.0,78.0
274,65.0,0,0,2.0,77.0
275,41.0,120,0,14.0,79.0
276,65.0,0,120,12.0,78.0
277,53.0,0,0,13.0,79.0
278,65.0,0,120,12.0,78.0
279,65.0,0,120,12.0,78.0
280,41.0,0,120,14.0,80.0
281,53.0,0,0,13.0,80.0
282,65.0,0,0,2.0,76.0
283,82.0,0,520,0.0,82.0
284,74.0,0,520,0.0,82.0
285,62.0,120,522,11.0,80.0
286,70.0,0,522,10.0,79.0
287,72.0,0,47,0.0,74.0
288,81.0,0,96,0.0,74.0
289,41.0,120,240,14.0,80.0
290,65.0,0,240,12.0,78.0
291,60.0,0,240,11.0,80.0
292,69.0,0,240,10.0,88.0
293,82.0,240,88,10.0,62.0
294,81.0,60,88,10.0,62.0
295,79.0,60,88,10.0,62.0
296,77.0,60,88,10.0,62.0
297,63.0,0,77,11.0,67.0
298,65.0,60,77,11.0,67.0
299,82.0,60,145,10.0,62.0
300,77.0,0,47,10.0,62.0
301,64.0,60,77,11.0,67.0
302,65.0,60,77,11.0,67.0
303,67.0,0,77,11.0,67.0
304,34.0,0,96,14.0,62.0
305,46.0,60,96,13.0,62.0
306,65.0,60,77,11.0,67.0
307,74.0,0,47,10.0,62.0
308,64.0,60,77,11.0,63.0
309,65.0,60,60,11.0,59.0
310,58.0,0,522,12.0,62.0
311,57.0,0,77,11.0,58.0
312,36.0,60,96,14.0,62.0
313,48.0,0,96,13.0,62.0
314,65.0,60,77,11.0,58.0
315,75.0,60,47,10.0,62.0
316,64.0,0,77,11.0,58.0
317,60.0,0,202,12.0,62.0
318,65.0,60,77,11.0,58.0
319,67.0,0,77,11.0,58.0
320,69.0,60,96,12.0,62.0
321,39.0,0,96,14.0,62.0
322,51.0,0,96,13.0,62.0
323,65.0,60,77,11.0,62.0
324,72.0,0,47,10.0,62.0
325,64.0,60,77,11.0,66.0
326,65.0,60,60,11.0,66.0
327,58.0,0,77,11.0,79.0
328,65.0,60,77,11.0,79.0
329,64.0,60,77,11.0,79.0
330,70.0,0,240,2.0,73.0
331,65.0,60,77,11.0,79.0
332,70.0,0,264,10.0,77.0
333,70.0,0,278,12.0,76.0
334,65.0,0,280,0.0,61.0
335,70.0,0,40,0.0,75.0
336,50.0,0,294,13.0,83.0
337,38.0,60,294,14.0,83.0
338,62.0,0,298,2.0,73.0
339,70.0,0,77,11.0,79.0
340,65.0,60,77,11.0,84.0
341,74.0,0,160,0.0,75.0
342,64.0,60,77,11.0,84.0
343,65.0,60,202,12.0,76.0
344,46.0,0,210,13.0,83.0
345,34.0,0,210,14.0,83.0
346,65.0,60,60,11.0,84.0
347,74.0,0,260,10.0,88.0
348,70.0,0,278,2.0,78.0
349,74.0,0,294,2.0,78.0
350,69.0,60,77,11.0,84.0
351,41.0,0,96,14.0,83.0
352,53.0,0,96,13.0,83.0
353,65.0,0,96,12.0,76.0
354,72.0,0,130,10.0,80.0
355,65.0,60,77,11.0,84.0
356,64.0,60,77,11.0,84.0
357,72.0,0,240,2.0,75.0
358,65.0,0,240,2.0,75.0
359,69.0,0,240,0.0,67.0
360,72.0,0,240,0.0,67.0
361,65.0,60,77,11.0,80.0
362,82.0,0,77,10.0,62.0
363,63.0,60,77,11.0,62.0
364,65.0,60,77,11.0,69.0
365,81.0,0,77,10.0,62.0
366,60.0,60,77,11.0,69.0
367,79.0,0,77,10.0,62.0
368,77.0,0,60,10.0,62.0
369,65.0,60,60,11.0,69.0
370,62.0,0,77,11.0,65.0
371,65.0,60,77,11.0,59.0
372,82.0,0,146,10.0,62.0
373,77.0,0,47,10.0,62.0
374,64.0,60,77,11.0,59.0
375,65.0,60,77,11.0,54.0
376,67.0,0,77,11.0,54.0
377,46.0,0,96,13.0,81.0
378,34.0,60,96,14.0,81.0
379,65.0,60,77,11.0,54.0
380,74.0,0,47,10.0,62.0
381,64.0,60,77,11.0,54.0
382,65.0,60,23,11.0,58.0
383,58.0,60,522,12.0,62.0
384,57.0,60,77,11.0,58.0
385,48.0,0,96,13.0,81.0
386,36.0,0,96,14.0,81.0
387,65.0,60,77,11.0,62.0
388,75.0,60,47,10.0,62.0
389,64.0,0,77,11.0,62.0
390,60.0,0,202,12.0,62.0
391,65.0,60,77,11.0,66.0
392,67.0,60,77,11.0,66.0
393,39.0,0,96,14.0,81.0
394,51.0,0,96,13.0,81.0
395,69.0,0,96,12.0,62.0
396,65.0,60,77,11.0,66.0
397,72.0,0,47,10.0,62.0
398,64.0,60,77,11.0,66.0
399,65.0,60,23,11.0,62.0
400,58.0,0,77,11.0,81.0
401,65.0,60,77,11.0,81.0
402,64.0,60,77,11.0,85.0
403,70.0,0,240,2.0,75.0
404,65.0,60,77,11.0,82.0
405,65.0,0,260,0.0,65.0
406,70.0,60,260,10.0,72.0
407,38.0,0,278,14.0,80.0
408,70.0,0,278,12.0,73.0
409,50.0,0,278,13.0,80.0
410,70.0,0,40,0.0,71.0
411,62.0,0,306,2.0,75.0
412,70.0,0,77,11.0,82.0
413,65.0,60,77,11.0,82.0
414,65.0,0,174,12.0,74.0
415,46.0,0,190,13.0,80.0
416,34.0,0,190,14.0,80.0
417,64.0,60,77,11.0,82.0
418,74.0,60,200,0.0,71.0
419,65.0,60,77,11.0,80.0
420,74.0,0,272,10.0,85.0
421,70.0,0,278,2.0,80.0
422,74.0,0,298,2.0,80.0
423,41.0,0,96,14.0,80.0
424,65.0,60,96,12.0,76.0
425,53.0,0,96,13.0,80.0
426,69.0,0,96,11.0,79.0
427,72.0,0,110,10.0,77.0
428,72.0,0,240,0.0,70.0
429,65.0,0,240,2.0,74.0
430,72.0,0,240,2.0,74.0
431,69.0,0,240,0.0,70.0
432,53.0,0,240,12.0,62.0
433,65.0,240,284,10.0,62.0
434,70.0,240,152,10.0,62.0
435,58.0,0,152,11.0,62.0
436,59.0,120,152,11.0,62.0
437,71.0,0,152,10.0,62.0
438,60.0,120,152,11.0,62.0
439,72.0,0,152,10.0,62.0
440,61.0,120,152,11.0,62.0
441,73.0,0,152,10.0,62.0
442,74.0,0,152,10.0,62.0
443,62.0,120,152,11.0,62.0
444,75.0,0,152,10.0,62.0
445,63.0,120,152,11.0,62.0
446,76.0,120,152,10.0,62.0
447,64.0,0,152,11.0,62.0
448,65.0,0,88,11.0,62.0
449,77.0,120,88,10.0,62.0
450,62.0,0,120,12.0,79.0
451,66.0,0,164,11.0,80.0
452,78.0,0,168,10.0,84.0
453,79.0,120,84,10.0,88.0
454,67.0,0,84,11.0,88.0
455,63.0,120,0,12.0,78.0
456,67.0,0,96,11.0,77.0
457,79.0,0,96,10.0,79.0
458,57.0,120,480,13.0,79.0
459,45.0,0,480,14.0,79.0
460,78.0,0,140,0.0,91.0
461,74.0,240,152,0.0,91.0
462,79.0,0,48,0.0,81.0
463,75.0,120,64,0.0,81.0
464,79.0,120,80,0.0,90.0
465,75.0,0,80,0.0,90.0
466,61.0,0,120,12.0,62.0
467,64.0,240,144,11.0,62.0
468,76.0,0,164,10.0,62.0
469,77.0,0,84,10.0,62.0
470,65.0,120,100,11.0,62.0
471,62.0,0,120,12.0,62.0
472,77.0,120,47,10.0,62.0
473,65.0,0,47,11.0,62.0
474,62.0,0,47,12.0,62.0
475,62.0,0,47,12.0,62.0
476,77.0,120,47,10.0,62.0
477,65.0,0,47,11.0,62.0
478,58.0,0,480,13.0,62.0
479,46.0,0,480,14.0,62.0
480,59.0,0,120,12.0,62.0
481,74.0,0,144,10.0,62.0
482,62.0,120,172,11.0,62.0
483,75.0,0,80,10.0,62.0
484,63.0,0,92,11.0,62.0
485,60.0,0,0,12.0,62.0
486,75.0,0,47,10.0,62.0
487,63.0,0,47,11.0,62.0
488,53.0,0,308,13.0,62.0
489,41.0,0,308,14.0,62.0
490,75.0,0,47,10.0,62.0
491,63.0,120,47,11.0,62.0
492,60.0,0,47,12.0,62.0
493,54.0,120,216,13.0,62.0
494,42.0,0,216,14.0,62.0
495,57.0,0,120,12.0,62.0
496,73.0,120,144,10.0,62.0
497,61.0,0,180,11.0,62.0
498,74.0,120,84,10.0,62.0
499,62.0,0,100,11.0,62.0
500,58.0,0,0,12.0,62.0
501,74.0,0,47,10.0,62.0
502,62.0,120,47,11.0,62.0
503,62.0,0,47,11.0,62.0
504,58.0,0,47,12.0,62.0
505,74.0,120,47,10.0,62.0
506,43.0,0,480,14.0,62.0
507,55.0,0,480,13.0,62.0
508,65.0,120,0,12.0,88.0
509,71.0,0,120,11.0,88.0
510,38.0,0,0,14.0,88.0
511,50.0,0,0,13.0,88.0
512,71.0,0,0,11.0,88.0
513,65.0,120,0,12.0,88.0
514,50.0,0,120,13.0,88.0
515,38.0,0,120,14.0,88.0
516,80.0,120,580,10.0,88.0
517,79.0,60,77,10.0,88.0
518,78.0,60,77,10.0,88.0
519,79.0,60,23,10.0,88.0
520,51.0,0,0,13.0,88.0
521,39.0,0,0,14.0,88.0
522,72.0,120,240,11.0,88.0
523,63.0,0,0,12.0,88.0
524,77.0,60,77,10.0,88.0
525,79.0,0,80,0.0,77.0
526,67.0,0,80,0.0,77.0
527,75.0,60,77,10.0,86.0
528,74.0,60,77,10.0,78.0
529,72.0,60,23,10.0,73.0
530,67.0,0,240,11.0,88.0
531,62.0,0,77,11.0,79.0
532,70.0,60,77,10.0,82.0
533,65.0,60,77,11.0,83.0
534,74.0,0,77,10.0,86.0
535,72.0,0,77,10.0,88.0
536,63.0,60,77,11.0,87.0
537,62.0,60,23,11.0,92.0
538,70.0,0,23,10.0,88.0
539,53.0,0,0,13.0,88.0
540,41.0,0,240,14.0,88.0
541,65.0,0,240,12.0,88.0
542,74.0,0,268,2.0,75.0
543,70.0,0,276,2.0,75.0
544,74.0,0,280,0.0,88.0
545,70.0,0,280,0.0,88.0
546,69.0,0,77,10.0,88.0
547,60.0,60,77,11.0,84.0
548,65.0,0,88,2.0,62.0
549,72.0,0,88,2.0,62.0
550,72.0,0,120,0.0,74.0
551,69.0,0,128,0.0,74.0
552,63.0,0,77,11.0,82.0
553,72.0,60,77,10.0,84.0
554,62.0,60,77,11.0,82.0
555,70.0,0,77,10.0,79.0
556,69.0,0,23,10.0,80.0
557,60.0,60,23,11.0,82.0
558,53.0,0,240,12.0,88.0
559,41.0,0,240,14.0,88.0
560,65.0,60,23,11.0,68.0
561,70.0,60,23,11.0,68.0
562,65.0,60,23,11.0,72.0
563,74.0,0,23,11.0,72.0
564,65.0,60,23,11.0,69.0
565,77.0,60,336,10.0,78.0
566,79.0,0,77,10.0,64.0
567,70.0,60,23,11.0,64.0
568,81.0,0,77,10.0,69.0
569,65.0,60,23,11.0,60.0
570,82.0,0,23,10.0,69.0
571,75.0,60,23,11.0,68.0
572,58.0,0,278,12.0,62.0
573,58.0,0,294,13.0,62.0
574,46.0,60,294,14.0,62.0
575,82.0,0,77,10.0,71.0
576,65.0,60,23,11.0,72.0
577,81.0,0,77,10.0,71.0
578,69.0,60,23,11.0,72.0
579,79.0,0,77,10.0,67.0
580,65.0,0,23,11.0,72.0
581,77.0,60,23,10.0,67.0
582,60.0,0,23,11.0,72.0
583,60.0,0,278,12.0,62.0
584,48.0,0,282,14.0,62.0
585,60.0,0,282,13.0,62.0
586,77.0,0,77,10.0,67.0
587,65.0,60,23,11.0,69.0
588,75.0,0,77,10.0,67.0
589,69.0,0,23,11.0,64.0
590,74.0,60,77,10.0,67.0
591,72.0,0,23,10.0,62.0
592,65.0,60,23,11.0,60.0
593,41.0,60,210,14.0,62.0
594,53.0,0,210,13.0,62.0
595,53.0,0,214,12.0,62.0
596,63.0,0,23,11.0,60.0
597,65.0,60,23,11.0,68.0
598,70.0,60,23,11.0,68.0
599,65.0,60,23,11.0,68.0
600,74.0,0,23,11.0,72.0
601,65.0,60,23,11.0,72.0
602,77.0,60,324,10.0,59.0
603,79.0,0,77,10.0,63.0
604,70.0,0,23,11.0,72.0
605,81.0,60,77,10.0,72.0
606,82.0,60,23,10.0,72.0
607,65.0,0,23,11.0,72.0
608,75.0,0,23,11.0,68.0
609,58.0,60,270,12.0,62.0
610,58.0,0,298,13.0,62.0
611,46.0,0,298,14.0,62.0
612,82.0,0,77,10.0,72.0
613,65.0,60,23,11.0,68.0
614,81.0,0,77,10.0,72.0
615,69.0,60,23,11.0,63.0
616,79.0,0,77,10.0,72.0
617,65.0,0,23,11.0,63.0
618,77.0,60,23,10.0,72.0
619,60.0,60,23,11.0,71.0
620,60.0,0,278,13.0,62.0
621,48.0,60,278,14.0,62.0
622,60.0,0,278,12.0,62.0
623,77.0,0,77,10.0,67.0
624,65.0,0,23,11.0,71.0
625,75.0,60,77,10.0,67.0
626,69.0,0,23,11.0,71.0
627,74.0,60,77,10.0,63.0
628,53.0,0,198,13.0,62.0
629,41.0,0,198,14.0,62.0
630,65.0,60,23,11.0,62.0
631,72.0,0,30,10.0,62.0
632,53.0,0,210,12.0,62.0
633,65.0,0,60,11.0,90.0
634,74.0,0,60,10.0,93.0
635,86.0,60,77,10.0,92.0
636,70.0,0,77,11.0,86.0
637,69.0,60,77,11.0,90.0
638,84.0,0,77,10.0,92.0
639,46.0,0,240,14.0,88.0
640,58.0,60,240,13.0,88.0
641,58.0,0,240,12.0,88.0
642,67.0,60,77,11.0,90.0
643,82.0,0,77,10.0,92.0
644,81.0,60,77,10.0,90.0
645,66.0,0,77,11.0,90.0
646,67.0,60,77,11.0,88.0
647,82.0,0,77,10.0,86.0
648,65.0,0,77,11.0,82.0
649,81.0,60,77,10.0,82.0
650,79.0,0,20,10.0,82.0
651,63.0,60,23,11.0,78.0
652,51.0,0,240,13.0,88.0
653,58.0,0,240,12.0,88.0
654,39.0,0,240,14.0,88.0
655,62.0,0,77,11.0,91.0
656,77.0,0,77,10.0,88.0
657,77.0,0,78,0.0,92.0
658,74.0,0,78,0.0,92.0
659,63.0,60,77,11.0,91.0
660,79.0,0,77,10.0,84.0
661,75.0,0,78,0.0,96.0
662,79.0,0,78,0.0,96.0
663,72.0,0,15,0.0,85.0
664,62.0,60,77,11.0,91.0
665,77.0,0,77,10.0,82.0
666,74.0,0,78,0.0,90.0
667,77.0,0,78,0.0,90.0
668,75.0,0,20,10.0,82.0
669,75.0,60,23,0.0,85.0
670,60.0,0,23,11.0,84.0
671,65.0,0,210,2.0,88.0
672,65.0,0,240,12.0,88.0
673,41.0,60,240,14.0,88.0
674,53.0,0,240,13.0,88.0
675,58.0,0,77,11.0,79.0
676,74.0,0,77,10.0,78.0
677,70.0,0,78,0.0,91.0
678,74.0,60,78,0.0,91.0
679,60.0,60,77,11.0,79.0
680,75.0,0,77,10.0,77.0
681,75.0,0,78,0.0,100.0
682,72.0,0,78,0.0,100.0
683,69.0,0,15,0.0,88.0
684,74.0,0,77,10.0,77.0
685,58.0,60,77,11.0,79.0
686,70.0,0,78,0.0,89.0
687,74.0,0,78,0.0,89.0
688,72.0,0,23,10.0,77.0
689,72.0,0,23,0.0,88.0
690,57.0,60,23,11.0,79.0
691,65.0,0,218,2.0,88.0
692,53.0,0,240,12.0,88.0
693,53.0,0,240,13.0,88.0
694,41.0,0,240,14.0,88.0
695,34.0,0,96,14.0,88.0
696,46.0,0,96,13.0,88.0
697,58.0,60,158,11.0,75.0
698,74.0,0,160,10.0,77.0
699,70.0,0,200,0.0,88.0
700,70.0,120,88,10.0,86.0
701,62.0,0,90,11.0,88.0
702,70.0,0,240,2.0,88.0
703,53.0,0,240,12.0,80.0
704,62.0,0,240,2.0,88.0
705,50.0,0,96,13.0,62.0
706,38.0,0,96,14.0,62.0
707,65.0,120,47,10.0,62.0
708,62.0,0,47,11.0,62.0
709,41.0,120,96,14.0,62.0
710,53.0,0,96,13.0,62.0
711,57.0,0,47,11.0,62.0
712,60.0,120,47,10.0,62.0
713,77.0,120,520,0.0,98.0
714,53.0,0,96,13.0,62.0
715,41.0,0,96,14.0,62.0
716,63.0,120,47,10.0,79.0
717,60.0,0,47,11.0,62.0
718,72.0,0,170,2.0,75.0
719,65.0,0,190,2.0,75.0
720,75.0,0,200,0.0,85.0
721,81.0,120,200,0.0,85.0
722,53.0,0,240,12.0,62.0
723,46.0,0,96,14.0,62.0
724,58.0,0,96,13.0,62.0
725,53.0,0,96,13.0,62.0
726,41.0,240,96,14.0,62.0
727,81.0,0,520,0.0,93.0
728,75.0,0,520,0.0,93.0
729,60.0,0,522,11.0,62.0
730,65.0,120,526,2.0,90.0
731,63.0,0,530,10.0,73.0
732,72.0,0,538,2.0,90.0
733,53.0,0,558,12.0,54.0
734,34.0,0,96,14.0,53.0
735,46.0,0,96,13.0,53.0
736,82.0,0,140,0.0,72.0
737,58.0,0,140,11.0,52.0
738,74.0,240,140,0.0,72.0
739,62.0,0,140,2.0,60.0
740,62.0,0,140,10.0,58.0
741,70.0,0,140,2.0,60.0
742,77.0,0,360,3.0,62.0
743,74.0,480,360,3.0,62.0
744,75.0,360,120,3.0,62.0
745,72.0,0,120,3.0,62.0
746,70.0,120,240,3.0,62.0
747,74.0,240,0,3.0,62.0
748,58.0,0,720,4.0,62.0
749,57.0,0,240,4.0,62.0
750,60.0,0,240,4.0,62.0
751,66.0,0,240,3.0,62.0
752,55.0,240,240,4.0,62.0
753,74.0,0,360,3.0,62.0
754,53.0,240,240,4.0,62.0
755,58.0,0,480,4.0,62.0
756,79.0,120,120,3.0,62.0
757,67.0,0,480,3.0,62.0
758,72.0,120,240,3.0,62.0
759,51.0,0,240,4.0,62.0
760,52.0,0,240,4.0,62.0
761,55.0,0,240,4.0,62.0
762,72.0,0,240,3.0,62.0
763,70.0,240,240,3.0,62.0
764,57.0,0,120,5.0,71.0
765,60.0,0,120,5.0,71.0
766,69.0,0,120,3.0,76.0
767,72.0,0,0,3.0,76.0
768,72.0,0,120,7.0,77.0
769,69.0,0,120,7.0,77.0
770,75.0,0,120,7.0,77.0
771,63.0,120,120,5.0,71.0
772,60.0,0,120,5.0,71.0
773,72.0,0,120,7.0,77.0
774,75.0,0,120,3.0,76.0
775,74.0,120,120,7.0,76.0
776,70.0,0,120,7.0,76.0
777,70.0,0,120,3.0,76.0
778,74.0,0,120,3.0,76.0
779,58.0,0,120,5.0,71.0
780,62.0,0,120,5.0,71.0
781,72.0,120,120,3.0,76.0
782,69.0,0,120,3.0,76.0
783,57.0,0,120,5.0,71.0
784,60.0,0,120,5.0,71.0
785,53.0,0,480,6.0,80.0
786,41.0,0,0,6.0,79.0
787,69.0,0,120,7.0,76.0
788,53.0,0,480,8.0,72.0
789,41.0,0,480,8.0,72.0
790,72.0,0,120,7.0,76.0
791,53.0,0,0,4.0,76.0
792,41.0,0,480,4.0,74.0
793,67.0,0,120,5.0,71.0
794,75.0,0,120,7.0,76.0
795,79.0,120,120,7.0,76.0
796,63.0,0,120,5.0,71.0
797,75.0,0,120,3.0,77.0
798,79.0,0,120,3.0,77.0
799,74.0,0,0,7.0,75.0
800,77.0,120,0,7.0,75.0
801,62.0,0,0,5.0,71.0
802,65.0,0,0,5.0,71.0
803,74.0,0,0,3.0,77.0
804,77.0,0,120,3.0,77.0
805,77.0,0,120,3.0,77.0
806,75.0,0,120,7.0,74.0
807,72.0,0,120,7.0,74.0
808,41.0,0,480,8.0,72.0
809,53.0,0,480,8.0,72.0
810,41.0,0,480,4.0,76.0
811,75.0,0,120,3.0,77.0
812,60.0,0,0,5.0,71.0
813,63.0,0,0,5.0,71.0
814,72.0,0,0,3.0,78.0
815,53.0,0,480,6.0,79.0
816,75.0,0,120,3.0,78.0
817,72.0,0,120,7.0,74.0
818,75.0,120,120,7.0,74.0
819,62.0,0,120,5.0,71.0
820,58.0,0,120,5.0,71.0
821,74.0,120,120,7.0,74.0
822,70.0,0,120,7.0,74.0
823,74.0,0,120,3.0,78.0
824,70.0,0,120,3.0,78.0
825,67.0,0,120,5.0,71.0
826,79.0,0,120,7.0,73.0
827,63.0,120,120,5.0,71.0
828,75.0,0,120,3.0,78.0
829,79.0,0,120,3.0,78.0
830,75.0,0,120,7.0,73.0
831,77.0,0,120,3.0,78.0
832,74.0,0,120,3.0,78.0
833,34.0,0,480,8.0,72.0
834,34.0,0,480,6.0,77.0
835,46.0,0,480,6.0,77.0
836,65.0,0,120,5.0,71.0
837,74.0,0,0,7.0,72.0
838,77.0,0,120,7.0,73.0
839,46.0,0,480,4.0,78.0
840,58.0,0,480,4.0,78.0
841,62.0,0,0,5.0,71.0
842,46.0,0,480,8.0,72.0
843,58.0,0,120,4.0,79.0
844,46.0,120,120,6.0,88.0
845,50.0,0,120,6.0,88.0
846,62.0,120,120,4.0,79.0
847,58.0,0,120,4.0,79.0
848,65.0,0,480,5.0,71.0
849,77.0,0,480,7.0,72.0
850,46.0,120,120,6.0,88.0
851,65.0,120,120,4.0,79.0
852,74.0,120,600,3.0,78.0
853,77.0,0,600,3.0,78.0
854,76.0,0,120,4.0,62.0
855,82.0,120,120,3.0,62.0
856,77.0,120,120,4.0,62.0
857,81.0,0,120,3.0,62.0
858,73.0,120,120,4.0,62.0
859,79.0,0,120,3.0,62.0
860,53.0,0,480,6.0,88.0
861,77.0,0,120,3.0,62.0
862,74.0,120,120,4.0,62.0
863,69.0,0,120,4.0,62.0
864,75.0,120,120,3.0,62.0
865,74.0,120,120,3.0,62.0
866,70.0,0,120,4.0,62.0
867,72.0,120,120,3.0,62.0
868,63.0,0,120,4.0,62.0
869,70.0,120,0,5.0,62.0
870,58.0,0,0,7.0,62.0
871,65.0,0,0,7.0,62.0
872,65.0,0,0,5.0,62.0
873,62.0,0,0,5.0,62.0
874,70.0,0,240,3.0,62.0
875,62.0,120,240,4.0,62.0
876,46.0,120,120,8.0,62.0
877,62.0,0,0,7.0,62.0
878,58.0,0,0,6.0,62.0
879,46.0,0,120,8.0,62.0
880,62.0,0,0,5.0,62.0
881,65.0,0,0,5.0,62.0
882,70.0,0,0,5.0,62.0
883,58.0,0,0,7.0,62.0
884,62.0,0,0,7.0,62.0
885,65.0,0,0,7.0,62.0
886,58.0,0,0,7.0,62.0
887,62.0,0,0,7.0,62.0
888,65.0,0,0,7.0,62.0
889,46.0,120,120,8.0,62.0
890,58.0,120,0,6.0,62.0
891,70.0,0,0,5.0,62.0
892,62.0,0,120,4.0,79.0
893,82.0,0,120,3.0,75.0
894,46.0,0,240,8.0,62.0
895,65.0,0,120,4.0,79.0
896,81.0,120,120,3.0,75.0
897,62.0,0,240,5.0,62.0
898,65.0,0,240,5.0,62.0
899,79.0,0,120,3.0,75.0
900,63.0,120,120,4.0,79.0
901,62.0,120,0,4.0,79.0
902,78.0,0,120,3.0,75.0
903,78.0,0,120,3.0,75.0
904,63.0,120,120,4.0,79.0
905,79.0,120,0,3.0,75.0
906,63.0,0,47,4.0,79.0
907,63.0,0,47,4.0,79.0
908,79.0,120,47,3.0,75.0
909,51.0,0,480,8.0,62.0
910,79.0,120,120,5.0,62.0
911,63.0,0,120,6.0,62.0
912,77.0,0,120,5.0,62.0
913,71.0,0,120,3.0,62.0
914,74.0,0,120,3.0,62.0
915,62.0,120,120,6.0,62.0
916,72.0,0,120,3.0,62.0
917,75.0,0,120,3.0,62.0
918,60.0,120,120,6.0,62.0
919,75.0,0,120,5.0,62.0
920,59.0,0,120,6.0,62.0
921,74.0,0,0,3.0,62.0
922,43.0,0,480,4.0,62.0
923,77.0,120,0,3.0,62.0
924,74.0,0,0,5.0,62.0
925,59.0,0,120,6.0,62.0
926,60.0,0,120,6.0,62.0
927,72.0,0,0,3.0,62.0
928,75.0,120,0,3.0,62.0
929,75.0,0,0,5.0,62.0
930,60.0,0,47,6.0,62.0
931,60.0,0,47,6.0,62.0
932,75.0,120,47,5.0,62.0
933,48.0,0,480,4.0,62.0
934,48.0,120,120,8.0,88.0
935,63.0,0,120,5.0,88.0
936,48.0,0,120,6.0,88.0
937,75.0,0,120,3.0,88.0
938,67.0,0,120,7.0,88.0
939,75.0,0,120,7.0,88.0
940,67.0,0,120,4.0,88.0
941,50.0,0,120,6.0,88.0
942,74.0,0,120,3.0,88.0
943,65.0,0,120,4.0,88.0
944,50.0,120,120,8.0,88.0
945,65.0,0,120,5.0,88.0
946,74.0,0,120,7.0,88.0
947,65.0,0,120,7.0,88.0
948,63.0,120,120,4.0,88.0
949,51.0,0,120,6.0,88.0
950,72.0,0,120,7.0,88.0
951,63.0,0,120,7.0,88.0
952,72.0,0,120,3.0,88.0
953,51.0,0,120,8.0,88.0
954,67.0,0,120,5.0,88.0
955,68.0,0,120,5.0,88.0
956,71.0,0,120,3.0,88.0
957,53.0,0,120,8.0,88.0
958,71.0,0,0,7.0,88.0
959,62.0,0,120,7.0,88.0
960,53.0,0,120,6.0,88.0
961,62.0,120,120,4.0,88.0
962,71.0,120,60,3.0,88.0
963,72.0,0,60,3.0,88.0
964,72.0,60,60,7.0,88.0
965,74.0,60,60,3.0,88.0
966,74.0,0,60,7.0,88.0
967,72.0,0,60,7.0,88.0
968,51.0,0,240,8.0,88.0
969,67.0,0,240,5.0,88.0
970,51.0,0,240,6.0,88.0
971,72.0,60,60,3.0,88.0
972,63.0,0,240,4.0,88.0
973,74.0,0,60,3.0,88.0
974,71.0,0,60,5.0,88.0
975,72.0,60,60,5.0,88.0
976,75.0,0,60,3.0,88.0
977,74.0,60,60,5.0,88.0
978,77.0,0,60,3.0,88.0
979,72.0,0,60,5.0,88.0
980,75.0,60,60,3.0,88.0
981,51.0,0,240,8.0,88.0
982,72.0,0,240,7.0,88.0
983,67.0,0,240,7.0,88.0
984,63.0,60,240,7.0,88.0
985,51.0,60,0,6.0,88.0
986,51.0,0,0,4.0,88.0
987,78.0,0,60,3.0,88.0
988,74.0,0,60,5.0,88.0
989,79.0,0,60,3.0,88.0
990,75.0,60,60,5.0,88.0
991,81.0,0,60,3.0,88.0
992,77.0,60,60,5.0,88.0
993,79.0,60,60,3.0,88.0
994,51.0,0,240,8.0,88.0
995,75.0,0,60,5.0,88.0
996,67.0,0,240,7.0,88.0
997,63.0,0,0,7.0,88.0
998,72.0,0,0,7.0,88.0
999,51.0,0,0,6.0,88.0
1000,51.0,0,0,4.0,88.0
1001,77.0,0,60,3.0,88.0
1002,69.0,0,60,5.0,88.0
1003,67.0,60,60,5.0,88.0
1004,75.0,0,60,3.0,88.0
1005,65.0,60,60,5.0,88.0
1006,74.0,0,60,3.0,88.0
1007,63.0,0,60,5.0,88.0
1008,67.0,0,240,7.0,88.0
1009,51.0,60,240,8.0,88.0
1010,72.0,60,60,3.0,88.0
1011,62.0,0,240,5.0,88.0
1012,70.0,0,240,7.0,88.0
1013,65.0,0,240,7.0,88.0
1014,62.0,0,240,7.0,88.0
1015,53.0,60,240,8.0,88.0
1016,70.0,0,240,3.0,88.0
1017,69.0,240,120,3.0,88.0
1018,60.0,0,240,7.0,88.0
1019,60.0,0,240,5.0,88.0
1020,53.0,0,480,6.0,88.0
1021,81.0,180,60,3.0,88.0
1022,53.0,0,480,4.0,88.0
1023,41.0,0,240,8.0,88.0
1024,69.0,0,240,7.0,88.0
1025,84.0,60,60,3.0,88.0
1026,82.0,60,60,3.0,88.0
1027,81.0,60,60,3.0,88.0
1028,79.0,60,60,3.0,88.0
1029,81.0,60,60,3.0,88.0
1030,79.0,60,60,3.0,88.0
1031,77.0,60,60,3.0,88.0
1032,67.0,0,240,4.0,88.0
1033,76.0,0,0,3.0,88.0
1034,70.0,0,0,4.0,88.0
1035,65.0,60,287,4.0,88.0
1036,69.0,0,96,4.0,88.0
1037,77.0,240,96,3.0,88.0
1038,69.0,180,60,5.0,88.0
1039,70.0,60,60,5.0,88.0
1040,72.0,60,60,5.0,88.0
1041,74.0,60,60,5.0,88.0
1042,70.0,60,60,5.0,88.0
1043,69.0,0,60,5.0,88.0
1044,67.0,60,60,5.0,88.0
1045,65.0,60,60,5.0,88.0
1046,64.0,60,60,5.0,88.0
1047,55.0,0,240,6.0,88.0
1048,58.0,0,0,6.0,88.0
1049,64.0,60,240,5.0,88.0
1050,53.0,0,287,6.0,88.0
1051,65.0,240,96,5.0,88.0
1052,57.0,0,96,6.0,88.0
1053,60.0,240,60,3.0,88.0
1054,65.0,60,60,3.0,88.0
1055,69.0,60,60,3.0,88.0
1056,72.0,60,60,3.0,88.0
1057,69.0,60,60,3.0,88.0
1058,65.0,60,60,3.0,88.0
1059,60.0,60,60,3.0,88.0
1060,58.0,60,60,3.0,88.0
1061,72.0,0,240,5.0,88.0
1062,57.0,60,60,3.0,88.0
1063,69.0,0,72,10.0,45.0
1064,65.0,0,72,11.0,44.0
1065,60.0,0,72,12.0,45.0
1066,65.0,0,120,6.0,88.0
1067,60.0,60,60,3.0,88.0
1068,65.0,0,60,3.0,88.0
1069,65.0,0,72,11.0,44.0
1070,69.0,0,72,10.0,45.0
1071,60.0,0,72,12.0,45.0
1072,60.0,60,60,3.0,88.0
1073,41.0,0,240,14.0,43.0
1074,53.0,0,240,13.0,42.0
1075,69.0,60,120,6.0,88.0
1076,69.0,0,60,3.0,88.0
1077,60.0,60,72,12.0,45.0
1078,65.0,0,72,11.0,44.0
1079,69.0,0,72,10.0,45.0
1080,65.0,60,60,3.0,88.0
1081,65.0,0,120,6.0,88.0
1082,72.0,0,360,5.0,88.0
1083,74.0,20,30,5.0,99.0
1084,60.0,0,60,3.0,88.0
1085,76.0,22,30,5.0,101.0
1086,65.0,0,72,11.0,44.0
1087,69.0,0,72,10.0,45.0
1088,60.0,60,72,12.0,45.0
1089,77.0,18,30,5.0,101.0
1090,79.0,18,30,5.0,102.0
1091,53.0,0,480,4.0,88.0
1092,69.0,0,120,6.0,88.0
1093,65.0,0,60,3.0,88.0
1094,81.0,14,30,5.0,102.0
1095,82.0,16,30,5.0,102.0
1096,57.0,0,60,3.0,88.0
1097,65.0,0,72,11.0,44.0
1098,69.0,0,72,10.0,45.0
1099,60.0,12,72,12.0,45.0
1100,65.0,0,120,6.0,88.0
1101,60.0,60,60,3.0,88.0
1102,65.0,0,60,3.0,88.0
1103,69.0,60,72,10.0,45.0
1104,60.0,0,72,12.0,45.0
1105,65.0,0,72,11.0,44.0
1106,69.0,0,120,6.0,88.0
1107,41.0,0,240,14.0,43.0
1108,60.0,60,60,3.0,88.0
1109,53.0,0,240,13.0,42.0
1110,84.0,0,240,5.0,102.0
1111,69.0,0,60,3.0,88.0
1112,69.0,0,72,10.0,45.0
1113,60.0,0,72,12.0,45.0
1114,65.0,60,72,11.0,44.0
1115,65.0,0,120,6.0,88.0
1116,65.0,60,60,3.0,88.0
1117,79.0,28,12,5.0,95.0
1118,77.0,0,175,5.0,94.0
1119,60.0,0,60,3.0,88.0
1120,60.0,0,72,12.0,45.0
1121,65.0,0,72,11.0,44.0
1122,69.0,0,72,10.0,45.0
1123,77.0,2,13,5.0,98.0
1124,79.0,28,12,5.0,95.0
1125,65.0,32,60,3.0,88.0
1126,69.0,60,120,6.0,88.0
1127,41.0,0,480,4.0,88.0
1128,55.0,0,60,3.0,88.0
1129,67.0,0,72,11.0,44.0
1130,60.0,0,72,12.0,45.0
1131,70.0,0,72,10.0,45.0
1132,67.0,0,120,6.0,88.0
1133,58.0,56,60,3.0,88.0
1134,77.0,4,120,5.0,95.0
1135,60.0,0,60,3.0,88.0
1136,67.0,0,72,11.0,44.0
1137,70.0,0,72,10.0,45.0
1138,60.0,0,72,12.0,45.0
1139,36.0,0,240,14.0,43.0
1140,48.0,30,240,13.0,43.0
1141,70.0,60,120,6.0,88.0
1142,58.0,60,60,3.0,88.0
1143,76.0,0,0,5.0,88.0
1144,67.0,60,60,3.0,88.0
1145,60.0,0,72,12.0,45.0
1146,67.0,0,72,11.0,44.0
1147,70.0,0,72,10.0,45.0
1148,60.0,60,60,3.0,88.0
1149,67.0,0,120,6.0,88.0
1150,58.0,0,60,3.0,88.0
1151,67.0,0,72,11.0,44.0
1152,60.0,0,72,12.0,45.0
1153,70.0,0,72,10.0,45.0
1154,70.0,60,120,6.0,88.0
1155,48.0,0,480,4.0,88.0
1156,60.0,60,60,3.0,88.0
1157,55.0,0,60,3.0,88.0
1158,67.0,0,72,11.0,44.0
1159,70.0,60,72,10.0,45.0
1160,60.0,0,72,12.0,45.0
1161,58.0,60,60,3.0,88.0
1162,67.0,0,120,6.0,88.0
1163,60.0,0,60,3.0,88.0
1164,67.0,0,72,11.0,44.0
1165,70.0,60,72,10.0,45.0
1166,60.0,0,72,12.0,45.0
1167,58.0,60,60,3.0,88.0
1168,36.0,0,240,14.0,44.0
1169,70.0,0,120,6.0,88.0
1170,48.0,0,240,13.0,44.0
1171,67.0,60,60,3.0,88.0
1172,70.0,0,72,10.0,45.0
1173,67.0,0,72,11.0,44.0
1174,60.0,0,72,12.0,46.0
1175,60.0,60,60,3.0,88.0
1176,67.0,0,120,6.0,88.0
1177,67.0,0,47,11.0,44.0
1178,58.0,0,60,3.0,88.0
1179,60.0,0,72,12.0,46.0
1180,70.0,60,72,10.0,45.0
1181,72.0,0,240,5.0,88.0
1182,70.0,0,120,6.0,88.0
1183,36.0,0,480,4.0,95.0
1184,60.0,0,0,3.0,88.0
1185,67.0,0,78,11.0,44.0
1186,70.0,0,78,10.0,45.0
1187,60.0,0,78,12.0,46.0
1188,64.0,0,120,6.0,88.0
1189,84.0,0,120,5.0,88.0
1190,67.0,60,60,3.0,88.0
1191,82.0,0,56,5.0,88.0
1192,70.0,0,60,3.0,88.0
1193,67.0,0,78,11.0,44.0
1194,60.0,0,78,12.0,46.0
1195,70.0,0,78,10.0,45.0
1196,48.0,60,240,13.0,45.0
1197,67.0,60,60,3.0,88.0
1198,67.0,60,120,6.0,88.0
1199,36.0,0,240,14.0,44.0
1200,81.0,0,47,5.0,88.0
1201,72.0,0,60,3.0,88.0
1202,67.0,60,78,11.0,44.0
1203,60.0,0,78,12.0,46.0
1204,70.0,0,78,10.0,45.0
1205,64.0,0,120,6.0,88.0
1206,70.0,60,60,3.0,88.0
1207,79.0,0,47,5.0,88.0
1208,67.0,0,60,3.0,88.0
1209,67.0,60,78,11.0,44.0
1210,70.0,0,78,10.0,45.0
1211,60.0,0,78,12.0,46.0
1212,48.0,0,480,4.0,88.0
1213,70.0,60,60,3.0,88.0
1214,67.0,0,0,6.0,88.0
1215,60.0,0,60,3.0,88.0
1216,67.0,0,78,11.0,44.0
1217,70.0,0,78,10.0,45.0
1218,60.0,0,78,12.0,46.0
1219,67.0,60,60,3.0,88.0
1220,81.0,0,120,5.0,88.0
1221,79.0,60,48,5.0,88.0
1222,70.0,0,60,3.0,88.0
1223,60.0,0,78,12.0,46.0
1224,70.0,0,78,10.0,45.0
1225,67.0,0,78,11.0,44.0
1226,70.0,0,120,6.0,88.0
1227,36.0,0,240,14.0,45.0
1228,48.0,60,240,13.0,45.0
1229,67.0,60,60,3.0,88.0
1230,77.0,60,47,5.0,88.0
1231,72.0,0,60,3.0,88.0
1232,67.0,0,78,11.0,44.0
1233,60.0,0,78,12.0,46.0
1234,70.0,0,78,10.0,45.0
1235,67.0,0,120,6.0,88.0
1236,70.0,60,60,3.0,88.0
1237,76.0,0,47,5.0,88.0
1238,67.0,0,60,3.0,88.0
1239,67.0,0,78,11.0,44.0
1240,70.0,0,78,10.0,45.0
1241,60.0,60,78,12.0,46.0
1242,70.0,0,120,6.0,88.0
1243,70.0,60,60,3.0,88.0
1244,36.0,0,480,4.0,88.0
1245,60.0,0,60,3.0,88.0
1246,65.0,0,78,11.0,44.0
1247,69.0,0,78,10.0,45.0
1248,60.0,0,78,12.0,46.0
1249,79.0,0,120,5.0,88.0
1250,69.0,0,120,6.0,88.0
1251,65.0,60,60,3.0,88.0
1252,69.0,0,60,3.0,88.0
1253,69.0,0,78,10.0,45.0
1254,65.0,0,78,11.0,44.0
1255,60.0,60,78,12.0,46.0
1256,53.0,60,240,13.0,46.0
1257,77.0,0,120,5.0,88.0
1258,72.0,0,120,6.0,88.0
1259,41.0,0,240,14.0,45.0
1260,65.0,60,60,3.0,88.0
1261,72.0,0,60,3.0,88.0
1262,69.0,0,78,10.0,45.0
1263,60.0,60,78,12.0,46.0
1264,65.0,0,78,11.0,44.0
1265,77.0,0,96,5.0,88.0
1266,69.0,60,60,3.0,88.0
1267,69.0,0,120,6.0,88.0
1268,65.0,0,60,3.0,88.0
1269,69.0,0,78,10.0,45.0
1270,60.0,60,78,12.0,46.0
1271,65.0,0,78,11.0,44.0
1272,69.0,60,60,3.0,88.0
1273,45.0,0,480,4.0,88.0
1274,72.0,0,120,6.0,88.0
1275,72.0,0,3360,0.0,58.0
1276,60.0,0,60,5.0,88.0
1277,65.0,0,78,11.0,44.0
1278,69.0,60,78,10.0,45.0
1279,60.0,0,78,12.0,47.0
1280,57.0,0,120,4.0,88.0
1281,65.0,60,60,5.0,88.0
1282,69.0,0,60,5.0,88.0
1283,60.0,0,78,12.0,47.0
1284,65.0,0,78,11.0,44.0
1285,69.0,60,78,10.0,45.0
1286,65.0,60,60,5.0,88.0
1287,53.0,0,240,13.0,47.0
1288,60.0,0,120,4.0,88.0
1289,41.0,0,240,14.0,46.0
1290,65.0,0,240,3.0,88.0
1291,72.0,60,60,5.0,88.0
1292,65.0,0,78,11.0,44.0
1293,60.0,0,78,12.0,47.0
1294,69.0,0,78,10.0,45.0
1295,57.0,0,120,4.0,88.0
1296,69.0,60,60,5.0,88.0
1297,65.0,60,60,5.0,88.0
1298,60.0,0,78,12.0,47.0
1299,65.0,0,78,11.0,44.0
1300,69.0,0,78,10.0,45.0
1301,77.0,0,240,3.0,88.0
1302,69.0,60,60,5.0,88.0
1303,53.0,0,480,6.0,101.0
1304,60.0,0,120,4.0,88.0
1305,58.0,0,60,5.0,88.0
1306,70.0,0,78,10.0,45.0
1307,65.0,60,78,11.0,44.0
1308,62.0,0,78,12.0,47.0
1309,58.0,0,120,4.0,88.0
1310,62.0,60,60,5.0,88.0
1311,76.0,0,120,3.0,88.0
1312,65.0,0,60,5.0,88.0
1313,70.0,0,78,10.0,45.0
1314,65.0,0,78,11.0,44.0
1315,62.0,60,78,12.0,47.0
1316,53.0,0,240,13.0,47.0
1317,65.0,0,120,4.0,88.0
1318,74.0,0,120,3.0,88.0
1319,41.0,0,240,14.0,46.0
1320,62.0,60,60,5.0,88.0
1321,70.0,0,60,5.0,88.0
1322,65.0,60,78,11.0,44.0
1323,70.0,0,78,10.0,45.0
1324,62.0,0,78,12.0,47.0
1325,65.0,60,60,5.0,88.0
1326,62.0,0,120,4.0,88.0
1327,62.0,60,60,5.0,88.0
1328,62.0,0,78,12.0,47.0
1329,65.0,0,78,11.0,44.0
1330,70.0,0,78,10.0,45.0
1331,41.0,0,480,6.0,97.0
1332,70.0,0,120,4.0,88.0
1333,65.0,60,60,5.0,88.0
1334,58.0,0,60,5.0,88.0
1335,74.0,0,300,3.0,88.0
1336,74.0,0,78,10.0,45.0
1337,70.0,0,78,11.0,44.0
1338,65.0,0,78,12.0,47.0
1339,65.0,0,60,5.0,88.0
1340,65.0,0,120,4.0,88.0
1341,76.0,60,60,3.0,88.0
1342,62.0,0,60,5.0,88.0
1343,77.0,0,60,3.0,88.0
1344,65.0,0,78,12.0,47.0
1345,74.0,60,78,10.0,47.0
1346,70.0,0,78,11.0,44.0
1347,53.0,0,240,6.0,94.0
1348,65.0,60,60,5.0,88.0
1349,53.0,60,240,13.0,48.0
1350,74.0,0,60,3.0,88.0
1351,70.0,0,120,4.0,88.0
1352,41.0,0,240,14.0,47.0
1353,72.0,0,60,3.0,88.0
1354,57.0,60,60,5.0,88.0
1355,63.0,0,78,12.0,47.0
1356,69.0,0,78,11.0,44.0
1357,72.0,0,78,10.0,46.0
1358,74.0,60,60,3.0,88.0
1359,69.0,0,60,5.0,88.0
1360,63.0,0,120,4.0,88.0
1361,60.0,0,60,5.0,88.0
1362,75.0,60,60,3.0,88.0
1363,63.0,0,78,12.0,47.0
1364,72.0,0,78,10.0,46.0
1365,69.0,0,78,11.0,44.0
1366,72.0,0,60,3.0,88.0
1367,69.0,0,120,4.0,88.0
1368,54.0,0,240,6.0,101.0
1369,54.0,0,240,13.0,48.0
1370,69.0,60,60,5.0,88.0
1371,42.0,0,240,14.0,47.0
1372,58.0,60,60,5.0,88.0
1373,70.0,0,60,3.0,88.0
1374,70.0,0,78,10.0,46.0
1375,62.0,0,78,12.0,47.0
1376,67.0,0,78,11.0,44.0
1377,72.0,60,60,3.0,88.0
1378,62.0,0,60,5.0,88.0
1379,62.0,0,120,4.0,88.0
1380,67.0,0,60,5.0,88.0
1381,74.0,60,60,3.0,88.0
1382,62.0,0,78,12.0,48.0
1383,70.0,0,78,10.0,46.0
1384,67.0,0,78,11.0,44.0
1385,43.0,0,240,14.0,47.0
1386,62.0,60,60,5.0,88.0
1387,67.0,0,120,4.0,88.0
1388,55.0,0,240,13.0,49.0
1389,72.0,0,60,3.0,88.0
1390,70.0,0,60,5.0,88.0
1391,70.0,0,78,10.0,46.0
1392,67.0,0,78,11.0,44.0
1393,62.0,0,78,12.0,48.0
1394,67.0,60,60,5.0,88.0
1395,58.0,60,120,4.0,88.0
1396,62.0,0,60,5.0,88.0
1397,62.0,0,78,12.0,48.0
1398,67.0,60,78,11.0,44.0
1399,70.0,0,78,10.0,46.0
1400,55.0,0,480,6.0,103.0
1401,67.0,60,60,5.0,88.0
1402,62.0,0,120,4.0,88.0
1403,70.0,0,300,3.0,88.0
1404,58.0,0,60,5.0,88.0
1405,70.0,0,78,10.0,46.0
1406,64.0,0,78,12.0,48.0
1407,67.0,0,78,11.0,44.0
1408,67.0,0,60,5.0,88.0
1409,64.0,0,120,4.0,88.0
1410,72.0,60,60,3.0,88.0
1411,74.0,0,60,3.0,88.0
1412,64.0,0,60,5.0,88.0
1413,64.0,60,78,12.0,48.0
1414,67.0,0,78,11.0,44.0
1415,70.0,0,78,10.0,46.0
1416,67.0,0,120,4.0,88.0
1417,43.0,0,240,14.0,48.0
1418,70.0,0,60,3.0,88.0
1419,43.0,60,240,6.0,97.0
1420,67.0,60,60,5.0,88.0
1421,55.0,0,240,13.0,50.0
1422,57.0,0,60,5.0,88.0
1423,69.0,0,60,3.0,88.0
1424,60.0,0,78,11.0,44.0
1425,69.0,0,78,10.0,46.0
1426,66.0,0,78,12.0,48.0
1427,60.0,60,120,4.0,88.0
1428,66.0,0,60,5.0,88.0
1429,70.0,60,60,3.0,88.0
1430,60.0,0,60,5.0,88.0
1431,72.0,0,60,3.0,88.0
1432,66.0,0,78,12.0,48.0
1433,60.0,0,78,11.0,44.0
1434,69.0,0,78,10.0,46.0
1435,66.0,60,60,5.0,88.0
1436,45.0,0,240,14.0,48.0
1437,69.0,0,60,3.0,88.0
1438,45.0,0,240,6.0,97.0
1439,66.0,60,120,4.0,88.0
1440,57.0,0,240,13.0,50.0
1441,55.0,60,60,5.0,88.0
1442,67.0,0,60,3.0,88.0
1443,67.0,0,78,10.0,46.0
1444,62.0,0,78,11.0,44.0
1445,67.0,0,78,12.0,48.0
1446,69.0,0,60,3.0,88.0
1447,62.0,0,120,4.0,88.0
1448,67.0,60,60,5.0,88.0
1449,62.0,0,60,5.0,88.0
1450,70.0,60,60,3.0,88.0
1451,67.0,0,78,10.0,46.0
1452,62.0,0,78,11.0,44.0
1453,58.0,0,78,12.0,48.0
1454,67.0,60,60,5.0,88.0
1455,67.0,0,120,4.0,88.0
1456,46.0,0,240,14.0,48.0
1457,58.0,0,240,13.0,50.0
1458,69.0,0,60,3.0,88.0
1459,67.0,0,47,3.0,88.0
1460,70.0,60,60,5.0,88.0
1461,62.0,0,78,11.0,44.0
1462,58.0,0,78,12.0,48.0
1463,67.0,0,78,10.0,46.0
1464,67.0,60,60,5.0,88.0
1465,58.0,0,120,4.0,88.0
1466,86.0,0,47,3.0,88.0
1467,62.0,60,60,5.0,88.0
1468,67.0,0,78,10.0,46.0
1469,58.0,0,78,12.0,48.0
1470,62.0,0,78,11.0,44.0
1471,67.0,60,60,5.0,88.0
1472,62.0,0,120,4.0,88.0
1473,62.0,0,60,5.0,88.0
1474,58.0,0,78,12.0,48.0
1475,62.0,0,78,11.0,44.0
1476,67.0,0,78,10.0,46.0
1477,70.0,60,60,5.0,88.0
1478,55.0,60,120,4.0,88.0
1479,84.0,0,120,3.0,88.0
1480,67.0,0,60,5.0,88.0
1481,86.0,0,60,3.0,88.0
1482,58.0,0,78,12.0,48.0
1483,67.0,0,78,10.0,46.0
1484,62.0,60,78,11.0,44.0
1485,67.0,0,120,4.0,88.0
1486,34.0,0,240,14.0,49.0
1487,82.0,0,60,3.0,88.0
1488,46.0,0,240,13.0,51.0
1489,46.0,0,720,6.0,102.0
1490,70.0,60,60,5.0,88.0
1491,74.0,0,60,5.0,88.0
1492,70.0,0,78,10.0,45.0
1493,67.0,0,78,11.0,44.0
1494,62.0,0,78,12.0,48.0
1495,62.0,60,120,4.0,88.0
1496,70.0,60,60,5.0,88.0
1497,81.0,0,120,3.0,88.0
1498,82.0,0,60,3.0,88.0
1499,67.0,0,60,5.0,88.0
1500,67.0,60,78,11.0,45.0
1501,70.0,0,78,10.0,47.0
1502,62.0,0,78,12.0,52.0
1503,79.0,60,60,3.0,88.0
1504,43.0,0,240,13.0,51.0
1505,43.0,0,240,6.0,97.0
1506,31.0,0,240,14.0,49.0
1507,70.0,0,120,4.0,88.0
1508,70.0,0,60,5.0,88.0
1509,69.0,0,60,5.0,88.0
1510,67.0,60,60,5.0,88.0
1511,69.0,0,120,4.0,88.0
1512,65.0,0,60,5.0,88.0
1513,36.0,0,82,14.0,49.0
1514,48.0,0,82,13.0,52.0
1515,60.0,0,120,4.0,88.0
1516,67.0,60,60,5.0,88.0
1517,48.0,0,0,6.0,97.0
1518,69.0,60,60,5.0,88.0
1519,48.0,0,82,13.0,52.0
1520,36.0,0,82,14.0,49.0
1521,70.0,60,60,5.0,88.0
1522,65.0,0,120,4.0,88.0
1523,72.0,0,60,5.0,88.0
1524,36.0,0,82,14.0,49.0
1525,48.0,60,82,13.0,52.0
1526,77.0,0,480,3.0,88.0
1527,69.0,0,120,4.0,88.0
1528,69.0,60,60,5.0,88.0
1529,48.0,0,120,6.0,97.0
1530,69.0,0,518,10.0,56.0
1531,60.0,60,540,12.0,58.0
1532,65.0,0,540,11.0,58.0
1533,67.0,0,120,10.0,51.0
1534,48.0,0,120,13.0,52.0
1535,48.0,0,120,12.0,50.0
1536,64.0,0,120,11.0,50.0
1537,36.0,0,120,14.0,50.0
1538,76.0,0,240,3.0,88.0
1539,48.0,0,240,6.0,91.0
1540,67.0,60,240,5.0,88.0
1541,72.0,0,240,4.0,88.0
1542,89.0,240,60,3.0,62.0
1543,88.0,60,60,3.0,62.0
1544,86.0,60,60,3.0,62.0
1545,84.0,60,60,3.0,62.0
1546,69.0,0,60,5.0,62.0
1547,72.0,60,60,5.0,62.0
1548,89.0,0,120,3.0,62.0
1549,71.0,60,60,5.0,62.0
1550,84.0,0,120,3.0,62.0
1551,72.0,60,60,5.0,62.0
1552,74.0,60,60,5.0,62.0
1553,72.0,60,60,5.0,62.0
1554,81.0,60,47,3.0,62.0
1555,71.0,0,60,5.0,62.0
1556,72.0,60,23,5.0,62.0
1557,65.0,60,480,4.0,62.0
1558,53.0,0,240,6.0,62.0
1559,64.0,60,60,5.0,62.0
1560,72.0,60,60,5.0,62.0
1561,82.0,0,47,3.0,62.0
1562,71.0,60,60,5.0,62.0
1563,55.0,0,240,6.0,62.0
1564,72.0,0,240,4.0,62.0
1565,72.0,60,60,5.0,62.0
1566,74.0,0,60,5.0,62.0
1567,72.0,60,60,5.0,62.0
1568,79.0,60,47,3.0,62.0
1569,71.0,0,60,5.0,62.0
1570,72.0,60,23,5.0,62.0
1571,76.0,0,240,4.0,62.0
1572,58.0,60,240,6.0,62.0
1573,65.0,0,60,5.0,88.0
1574,72.0,60,60,5.0,88.0
1575,71.0,60,60,5.0,88.0
1576,72.0,0,240,4.0,88.0
1577,57.0,60,240,6.0,88.0
1578,57.0,0,240,8.0,88.0
1579,77.0,0,240,3.0,88.0
1580,45.0,0,240,8.0,88.0
1581,77.0,0,240,7.0,88.0
1582,72.0,60,60,5.0,88.0
1583,72.0,0,240,7.0,88.0
1584,77.0,0,270,10.0,58.0
1585,72.0,0,278,11.0,58.0
1586,45.0,0,300,14.0,58.0
1587,57.0,0,300,13.0,58.0
1588,77.0,0,60,5.0,88.0
1589,72.0,60,60,5.0,88.0
1590,71.0,60,60,5.0,88.0
1591,72.0,60,23,5.0,88.0
1592,72.0,0,240,4.0,88.0
1593,53.0,0,240,6.0,88.0
1594,81.0,0,240,7.0,88.0
1595,77.0,0,240,7.0,88.0
1596,41.0,0,240,8.0,88.0
1597,81.0,0,240,3.0,88.0
1598,53.0,0,240,8.0,88.0
1599,72.0,0,510,12.0,71.0
1600,53.0,0,278,13.0,68.0
1601,41.0,0,278,14.0,68.0
1602,77.0,60,286,11.0,73.0
1603,81.0,0,290,10.0,72.0
1604,76.0,0,60,5.0,62.0
1605,48.0,0,120,14.0,50.0
1606,79.0,60,120,10.0,51.0
1607,60.0,0,120,12.0,58.0
1608,72.0,60,60,5.0,62.0
1609,60.0,0,120,13.0,50.0
1610,76.0,0,120,11.0,55.0
1611,71.0,60,60,5.0,62.0
1612,72.0,60,60,5.0,62.0
1613,48.0,0,240,8.0,88.0
1614,60.0,0,240,8.0,88.0
1615,79.0,0,240,3.0,88.0
1616,72.0,0,240,4.0,88.0
1617,76.0,0,240,7.0,88.0
1618,60.0,0,240,6.0,62.0
1619,79.0,0,240,7.0,88.0
1620,77.0,60,60,3.0,62.0
1621,70.0,0,60,5.0,62.0
1622,76.0,60,60,3.0,62.0
1623,72.0,0,60,5.0,62.0
1624,67.0,0,60,5.0,62.0
1625,74.0,60,60,3.0,62.0
1626,72.0,0,23,5.0,62.0
1627,72.0,60,60,3.0,62.0
1628,69.0,0,60,5.0,62.0
1629,77.0,60,120,3.0,62.0
1630,60.0,60,60,5.0,62.0
1631,59.0,60,60,5.0,62.0
1632,60.0,60,60,5.0,62.0
1633,72.0,0,120,3.0,62.0
1634,62.0,60,60,5.0,62.0
1635,60.0,60,60,5.0,62.0
1636,69.0,60,47,3.0,62.0
1637,59.0,0,60,5.0,62.0
1638,60.0,60,23,5.0,62.0
1639,65.0,0,480,4.0,62.0
1640,41.0,0,240,6.0,62.0
1641,52.0,60,60,5.0,62.0
1642,60.0,60,60,5.0,62.0
1643,70.0,0,47,3.0,62.0
1644,59.0,60,60,5.0,62.0
1645,43.0,0,240,6.0,62.0
1646,60.0,0,240,4.0,62.0
1647,60.0,60,60,5.0,62.0
1648,62.0,0,60,5.0,62.0
1649,60.0,60,60,5.0,62.0
1650,67.0,0,47,3.0,62.0
1651,59.0,60,60,5.0,62.0
1652,60.0,60,23,5.0,62.0
1653,46.0,0,240,6.0,62.0
1654,64.0,60,240,4.0,62.0
1655,53.0,0,60,5.0,62.0
1656,60.0,0,96,4.0,71.0
1657,60.0,60,60,5.0,62.0
1658,59.0,60,60,5.0,62.0
1659,72.0,0,240,7.0,88.0
1660,57.0,60,240,8.0,88.0
1661,65.0,0,240,3.0,78.0
1662,60.0,60,60,5.0,62.0
1663,77.0,0,0,7.0,88.0
1664,45.0,0,240,8.0,88.0
1665,45.0,0,240,6.0,62.0
1666,60.0,0,270,11.0,58.0
1667,65.0,0,278,10.0,58.0
1668,77.0,60,40,0.0,87.0
1669,57.0,0,286,13.0,58.0
1670,45.0,0,286,14.0,58.0
1671,72.0,0,290,0.0,71.0
1672,65.0,0,60,5.0,62.0
1673,60.0,0,96,4.0,82.0
1674,60.0,60,60,5.0,62.0
1675,59.0,60,60,5.0,62.0
1676,69.0,0,240,3.0,84.0
1677,41.0,0,240,6.0,62.0
1678,81.0,0,240,7.0,88.0
1679,60.0,60,60,5.0,62.0
1680,53.0,0,240,8.0,88.0
1681,41.0,0,240,8.0,88.0
1682,65.0,0,262,11.0,66.0
1683,69.0,0,274,10.0,69.0
1684,81.0,0,278,0.0,87.0
1685,53.0,0,290,13.0,72.0
1686,60.0,0,530,12.0,67.0
1687,41.0,0,290,14.0,72.0
1688,65.0,0,538,2.0,77.0
1689,64.0,0,96,5.0,62.0
1690,64.0,0,120,11.0,52.0
1691,60.0,0,120,13.0,47.0
1692,48.0,0,120,12.0,58.0
1693,67.0,0,120,10.0,51.0
1694,48.0,0,120,14.0,47.0
1695,76.0,0,126,0.0,72.0
1696,79.0,0,130,0.0,72.0
1697,72.0,0,158,2.0,70.0
1698,76.0,0,240,7.0,88.0
1699,67.0,0,240,3.0,74.0
1700,79.0,0,240,7.0,88.0
1701,60.0,60,240,8.0,88.0
1702,60.0,240,0,4.0,62.0
1703,36.0,0,240,6.0,62.0
1704,48.0,0,240,8.0,88.0
1705,72.0,0,96,3.0,62.0
1706,77.0,240,120,3.0,62.0
1707,65.0,0,120,4.0,62.0
1708,78.0,120,120,3.0,62.0
1709,66.0,0,120,4.0,62.0
1710,79.0,120,120,3.0,62.0
1711,67.0,0,120,4.0,62.0
1712,80.0,0,120,3.0,62.0
1713,68.0,120,120,4.0,62.0
1714,81.0,120,120,3.0,62.0
1715,69.0,0,120,4.0,62.0
1716,70.0,0,120,4.0,62.0
1717,82.0,120,120,3.0,62.0
1718,71.0,120,120,4.0,62.0
1719,83.0,0,120,3.0,62.0
1720,84.0,0,120,3.0,62.0
1721,72.0,120,120,4.0,62.0
1722,69.0,0,133,4.0,85.0
1723,73.0,0,133,4.0,85.0
1724,85.0,0,133,3.0,75.0
1725,81.0,120,133,3.0,75.0
1726,70.0,0,73,4.0,88.0
1727,82.0,0,73,3.0,88.0
1728,86.0,120,73,3.0,88.0
1729,74.0,0,73,4.0,88.0
1730,82.0,0,47,3.0,79.0
1731,70.0,120,47,4.0,80.0
1732,74.0,0,96,4.0,80.0
1733,86.0,0,96,3.0,79.0
1734,52.0,0,480,6.0,88.0
1735,64.0,0,480,7.0,88.0
1736,52.0,0,480,8.0,88.0
1737,40.0,0,480,8.0,88.0
1738,40.0,0,480,6.0,88.0
1739,73.0,0,132,5.0,62.0
1740,69.0,240,132,5.0,62.0
1741,70.0,120,73,5.0,62.0
1742,74.0,0,73,5.0,62.0
1743,70.0,0,47,5.0,62.0
1744,74.0,120,96,5.0,62.0
1745,71.0,0,132,5.0,62.0
1746,83.0,0,132,3.0,62.0
1747,68.0,0,132,5.0,62.0
1748,80.0,0,132,3.0,62.0
1749,81.0,120,73,3.0,62.0
1750,72.0,0,73,5.0,62.0
1751,84.0,0,73,3.0,62.0
1752,69.0,0,73,5.0,62.0
1753,69.0,0,23,5.0,62.0
1754,81.0,0,23,3.0,62.0
1755,84.0,120,47,3.0,62.0
1756,72.0,0,47,5.0,62.0
1757,69.0,0,23,5.0,62.0
1758,81.0,0,23,3.0,62.0
1759,72.0,120,47,5.0,62.0
1760,84.0,0,47,3.0,62.0
1761,65.0,240,480,4.0,62.0
1762,53.0,0,480,4.0,62.0
1763,78.0,120,132,3.0,62.0
1764,66.0,0,132,5.0,62.0
1765,69.0,0,132,5.0,62.0
1766,81.0,0,132,3.0,62.0
1767,79.0,0,73,3.0,62.0
1768,70.0,120,73,5.0,62.0
1769,67.0,0,73,5.0,62.0
1770,82.0,0,73,3.0,62.0
1771,67.0,0,23,5.0,62.0
1772,79.0,120,23,3.0,62.0
1773,70.0,0,47,5.0,62.0
1774,82.0,0,47,3.0,62.0
1775,67.0,0,23,5.0,62.0
1776,79.0,120,23,3.0,62.0
1777,70.0,0,47,5.0,62.0
1778,82.0,0,47,3.0,62.0
1779,61.0,0,480,4.0,62.0
1780,49.0,0,480,4.0,62.0
1781,68.0,0,132,5.0,62.0
1782,64.0,0,132,5.0,62.0
1783,76.0,0,132,3.0,62.0
1784,80.0,120,132,3.0,62.0
1785,77.0,0,73,3.0,62.0
1786,81.0,0,73,3.0,62.0
1787,69.0,0,73,5.0,62.0
1788,65.0,120,73,5.0,62.0
1789,65.0,0,23,5.0,67.0
1790,77.0,120,23,3.0,65.0
1791,81.0,0,47,3.0,65.0
1792,69.0,0,47,5.0,67.0
1793,81.0,0,47,3.0,68.0
1794,69.0,0,47,5.0,67.0
1795,77.0,120,47,3.0,68.0
1796,65.0,0,47,5.0,67.0
1797,65.0,70,23,5.0,77.0
1798,77.0,0,23,3.0,77.0
1799,50.0,0,480,4.0,62.0
1800,62.0,0,480,4.0,62.0
1801,78.0,0,60,3.0,80.0
1802,66.0,15,60,5.0,81.0
1803,81.0,15,47,3.0,80.0
1804,69.0,0,47,5.0,81.0
1805,72.0,15,60,5.0,85.0
1806,84.0,0,60,3.0,80.0
1807,66.0,0,120,7.0,88.0
1808,63.0,120,120,7.0,88.0
1809,48.0,0,0,8.0,88.0
1810,60.0,0,0,8.0,88.0
1811,69.0,0,0,7.0,88.0
1812,63.0,120,120,7.0,88.0
1813,66.0,0,120,7.0,88.0
1814,48.0,0,0,8.0,88.0
1815,60.0,0,0,8.0,88.0
1816,66.0,0,120,7.0,88.0
1817,69.0,0,120,7.0,88.0
1818,63.0,120,120,7.0,88.0
1819,87.0,0,540,3.0,80.0
1820,75.0,5,540,5.0,85.0
1821,74.0,60,60,5.0,88.0
1822,86.0,0,60,3.0,88.0
1823,85.0,60,60,3.0,88.0
1824,73.0,0,60,5.0,88.0
1825,74.0,0,60,5.0,88.0
1826,46.0,0,240,8.0,88.0
1827,86.0,60,60,3.0,88.0
1828,58.0,120,240,8.0,88.0
1829,72.0,0,60,5.0,88.0
1830,84.0,0,60,3.0,88.0
1831,70.0,0,60,5.0,88.0
1832,82.0,60,60,3.0,88.0
1833,69.0,60,60,5.0,88.0
1834,81.0,0,60,3.0,88.0
1835,62.0,60,240,7.0,88.0
1836,67.0,0,240,7.0,88.0
1837,70.0,0,240,7.0,88.0
1838,79.0,0,60,3.0,88.0
1839,46.0,0,240,8.0,88.0
1840,58.0,0,240,6.0,88.0
1841,67.0,60,60,5.0,88.0
1842,74.0,0,240,4.0,88.0
1843,65.0,0,60,5.0,88.0
1844,77.0,0,60,3.0,88.0
1845,69.0,0,60,4.0,88.0
1846,72.0,0,60,4.0,88.0
1847,81.0,0,60,3.0,88.0
1848,69.0,60,60,5.0,88.0
1849,70.0,60,60,4.0,88.0
1850,79.0,0,60,3.0,87.0
1851,67.0,0,60,5.0,88.0
1852,77.0,0,60,3.0,85.0
1853,60.0,0,0,7.0,88.0
1854,65.0,0,240,7.0,88.0
1855,69.0,0,240,7.0,88.0
1856,48.0,60,240,8.0,88.0
1857,60.0,0,240,6.0,88.0
1858,65.0,0,60,5.0,85.0
1859,69.0,60,60,4.0,88.0
1860,64.0,0,60,5.0,82.0
1861,76.0,60,60,3.0,83.0
1862,67.0,0,60,4.0,88.0
1863,70.0,0,60,4.0,88.0
1864,67.0,60,60,5.0,78.0
1865,79.0,0,60,3.0,81.0
1866,65.0,0,60,5.0,75.0
1867,69.0,60,60,4.0,88.0
1868,77.0,0,60,3.0,79.0
1869,76.0,0,60,3.0,77.0
1870,64.0,60,60,5.0,72.0
1871,67.0,0,60,4.0,88.0
1872,36.0,0,240,8.0,88.0
1873,67.0,0,240,7.0,88.0
1874,64.0,0,240,7.0,88.0
1875,48.0,0,240,6.0,88.0
1876,65.0,60,23,5.0,69.0
1877,60.0,60,23,5.0,69.0
1878,57.0,0,23,5.0,69.0
1879,48.0,0,148,12.0,50.0
1880,72.0,0,156,10.0,49.0
1881,60.0,60,23,5.0,69.0
1882,69.0,0,23,5.0,70.0
1883,53.0,0,148,12.0,52.0
1884,72.0,60,148,11.0,52.0
1885,77.0,0,156,10.0,52.0
1886,84.0,0,300,3.0,75.0
1887,72.0,0,300,4.0,62.0
1888,60.0,0,23,5.0,70.0
1889,86.0,60,60,3.0,82.0
1890,74.0,0,60,4.0,88.0
1891,65.0,0,23,5.0,70.0
1892,69.0,0,148,11.0,54.0
1893,57.0,0,148,12.0,54.0
1894,81.0,0,156,10.0,56.0
1895,76.0,0,60,4.0,88.0
1896,88.0,60,60,3.0,87.0
1897,65.0,0,82,11.0,57.0
1898,60.0,60,23,5.0,68.0
1899,60.0,0,102,12.0,56.0
1900,84.0,0,102,10.0,59.0
1901,53.0,0,240,6.0,62.0
1902,89.0,0,0,3.0,93.0
1903,77.0,0,0,4.0,62.0
1904,70.0,0,23,5.0,68.0
1905,53.0,0,294,13.0,49.0
1906,41.0,60,294,14.0,49.0
1907,60.0,60,23,5.0,68.0
1908,88.0,0,60,3.0,85.0
1909,76.0,0,60,4.0,62.0
1910,64.0,0,23,5.0,68.0
1911,64.0,0,156,11.0,59.0
1912,86.0,0,60,3.0,81.0
1913,74.0,60,60,4.0,62.0
1914,60.0,60,23,5.0,68.0
1915,84.0,0,60,3.0,78.0
1916,55.0,60,240,6.0,62.0
1917,72.0,0,60,4.0,62.0
1918,55.0,0,23,5.0,65.0
1919,43.0,0,270,14.0,59.0
1920,55.0,0,270,13.0,59.0
1921,70.0,0,156,11.0,61.0
1922,84.0,0,60,3.0,76.0
1923,72.0,0,60,4.0,62.0
1924,60.0,60,23,5.0,65.0
1925,82.0,0,60,3.0,73.0
1926,70.0,0,60,4.0,62.0
1927,64.0,0,23,5.0,65.0
1928,67.0,0,156,11.0,57.0
1929,69.0,0,60,4.0,62.0
1930,81.0,60,60,3.0,73.0
1931,64.0,0,82,11.0,54.0
1932,60.0,0,23,5.0,65.0
1933,48.0,0,240,6.0,62.0
1934,48.0,60,240,13.0,54.0
1935,84.0,0,480,10.0,62.0
1936,36.0,0,240,14.0,54.0
1937,67.0,0,60,4.0,62.0
1938,60.0,0,480,12.0,45.0
1939,79.0,60,60,3.0,67.0
1940,57.0,60,23,5.0,63.0
1941,60.0,60,23,5.0,63.0
1942,65.0,0,23,5.0,64.0
1943,48.0,0,148,12.0,44.0
1944,72.0,0,156,10.0,48.0
1945,65.0,0,156,11.0,53.0
1946,60.0,60,23,5.0,66.0
1947,69.0,60,23,5.0,68.0
1948,53.0,0,148,12.0,48.0
1949,72.0,0,156,11.0,57.0
1950,77.0,60,156,10.0,51.0
1951,72.0,0,300,4.0,62.0
1952,84.0,0,300,3.0,62.0
1953,60.0,60,23,5.0,68.0
1954,74.0,0,60,4.0,88.0
1955,86.0,0,60,3.0,78.0
1956,65.0,0,23,5.0,71.0
1957,57.0,0,148,12.0,52.0
1958,81.0,0,156,10.0,55.0
1959,69.0,0,156,11.0,60.0
1960,76.0,60,60,4.0,88.0
1961,88.0,0,60,3.0,78.0
1962,89.0,0,23,3.0,82.0
1963,60.0,0,23,5.0,71.0
1964,77.0,60,23,4.0,88.0
1965,65.0,0,98,11.0,64.0
1966,84.0,0,98,10.0,58.0
1967,60.0,0,110,12.0,56.0
1968,53.0,0,240,6.0,62.0
1969,70.0,0,23,5.0,71.0
1970,41.0,0,282,14.0,45.0
1971,53.0,0,282,13.0,45.0
1972,77.0,0,60,4.0,62.0
1973,89.0,0,60,3.0,87.0
1974,60.0,60,23,5.0,71.0
1975,88.0,0,60,3.0,83.0
1976,76.0,0,60,4.0,62.0
1977,64.0,60,23,5.0,71.0
1978,64.0,60,156,11.0,66.0
1979,74.0,0,60,4.0,62.0
1980,86.0,0,60,3.0,81.0
1981,84.0,0,23,3.0,73.0
1982,60.0,0,23,5.0,71.0
1983,72.0,60,23,4.0,62.0
1984,55.0,0,240,6.0,62.0
1985,55.0,0,23,5.0,71.0
1986,43.0,0,266,14.0,53.0
1987,55.0,0,266,13.0,53.0
1988,70.0,0,156,11.0,62.0
1989,84.0,0,60,3.0,73.0
1990,72.0,60,60,4.0,62.0
1991,60.0,0,23,5.0,71.0
1992,70.0,60,60,4.0,62.0
1993,82.0,0,60,3.0,69.0
1994,64.0,0,23,5.0,71.0
1995,67.0,0,156,11.0,58.0
1996,69.0,0,60,4.0,62.0
1997,81.0,60,60,3.0,69.0
1998,67.0,60,23,4.0,62.0
1999,79.0,0,23,3.0,66.0
2000,60.0,0,23,5.0,71.0
2001,64.0,0,98,11.0,54.0
2002,48.0,0,218,13.0,52.0
2003,36.0,0,218,14.0,52.0
2004,84.0,0,480,10.0,62.0
2005,48.0,0,240,6.0,62.0
2006,60.0,0,480,12.0,47.0
2007,72.0,0,23,5.0,70.0
2008,81.0,60,23,3.0,63.0
2009,77.0,60,60,5.0,70.0
2010,89.0,0,60,3.0,63.0
2011,76.0,60,60,5.0,62.0
2012,88.0,0,60,3.0,61.0
2013,77.0,0,23,5.0,62.0
2014,89.0,60,23,3.0,61.0
2015,41.0,0,240,14.0,48.0
2016,60.0,0,240,12.0,58.0
2017,53.0,0,240,13.0,48.0
2018,77.0,0,240,7.0,62.0
2019,65.0,0,240,10.0,58.0
2020,53.0,0,240,6.0,62.0
2021,81.0,0,240,7.0,62.0
2022,69.0,0,240,4.0,62.0
2023,75.0,60,60,5.0,62.0
2024,87.0,0,60,3.0,62.0
2025,74.0,60,60,5.0,62.0
2026,86.0,0,60,3.0,62.0
2027,87.0,0,23,3.0,62.0
2028,75.0,60,23,5.0,62.0
2029,72.0,0,240,6.0,62.0
2030,57.0,60,240,8.0,62.0
2031,69.0,0,240,7.0,62.0
2032,77.0,0,240,4.0,62.0
2033,74.0,60,60,5.0,62.0
2034,86.0,0,60,3.0,62.0
2035,85.0,0,60,3.0,62.0
2036,73.0,60,60,5.0,62.0
2037,74.0,60,23,5.0,62.0
2038,86.0,0,23,3.0,62.0
2039,77.0,0,0,4.0,62.0
2040,58.0,0,240,8.0,62.0
2041,70.0,0,240,6.0,62.0
2042,70.0,60,240,7.0,62.0
2043,72.0,60,60,5.0,65.0
2044,84.0,0,60,3.0,62.0
2045,83.0,60,60,3.0,62.0
2046,71.0,0,60,5.0,68.0
2047,72.0,0,23,5.0,68.0
2048,84.0,30,23,3.0,62.0
2049,68.0,60,240,6.0,62.0
2050,68.0,0,240,7.0,62.0
2051,56.0,0,240,8.0,62.0
2052,77.0,0,0,4.0,62.0
2053,84.0,0,45,3.0,66.0
2054,71.0,0,60,5.0,68.0
2055,83.0,30,45,3.0,66.0
2056,84.0,0,45,3.0,67.0
2057,83.0,30,30,3.0,67.0
2058,74.0,30,60,5.0,68.0
2059,74.0,0,120,4.0,62.0
2060,84.0,20,30,3.0,70.0
2061,83.0,15,30,3.0,73.0
2062,71.0,10,60,5.0,68.0
2063,84.0,25,30,3.0,76.0
2064,71.0,0,84,10.0,47.0
2065,62.0,0,84,12.0,52.0
2066,65.0,0,84,11.0,45.0
2067,83.0,20,30,3.0,78.0
2068,84.0,20,30,3.0,77.0
2069,74.0,0,120,4.0,62.0
2070,77.0,0,120,4.0,62.0
2071,67.0,0,60,5.0,68.0
2072,62.0,30,330,7.0,68.0
2073,65.0,0,300,7.0,68.0
2074,62.0,0,240,6.0,62.0
2075,67.0,30,240,6.0,62.0
2076,55.0,0,240,13.0,58.0
2077,71.0,0,240,7.0,77.0
2078,67.0,30,270,7.0,72.0
2079,43.0,0,240,14.0,58.0
2080,83.0,20,30,3.0,77.0
2081,84.0,0,30,3.0,77.0
2082,83.0,20,30,3.0,77.0
2083,65.0,20,60,5.0,68.0
2084,84.0,20,30,3.0,75.0
2085,65.0,0,84,11.0,47.0
2086,71.0,0,84,10.0,49.0
2087,62.0,0,84,12.0,52.0
2088,83.0,0,30,3.0,75.0
2089,84.0,20,30,3.0,72.0
2090,67.0,20,60,5.0,66.0
2091,74.0,0,0,4.0,62.0
2092,77.0,0,0,4.0,62.0
2093,83.0,20,30,3.0,72.0
2094,84.0,0,30,3.0,69.0
2095,83.0,20,30,3.0,69.0
2096,71.0,0,60,5.0,66.0
2097,84.0,10,30,3.0,68.0
2098,74.0,0,23,5.0,66.0
2099,65.0,20,84,11.0,48.0
2100,71.0,0,84,10.0,51.0
2101,62.0,0,84,12.0,52.0
2102,83.0,0,30,3.0,68.0
2103,84.0,20,30,3.0,68.0
2104,83.0,10,30,3.0,68.0
2105,84.0,0,30,3.0,68.0
2106,82.0,30,30,3.0,71.0
2107,72.0,0,60,5.0,66.0
2108,84.0,20,30,3.0,71.0
2109,82.0,10,30,3.0,71.0
2110,76.0,0,120,4.0,62.0
2111,79.0,0,120,4.0,62.0
2112,76.0,10,60,5.0,68.0
2113,84.0,20,30,3.0,74.0
2114,82.0,20,30,3.0,74.0
2115,84.0,10,30,3.0,74.0
2116,82.0,20,30,3.0,74.0
2117,72.0,0,60,5.0,68.0
2118,84.0,20,30,3.0,74.0
2119,64.0,0,84,12.0,43.0
2120,67.0,0,84,11.0,40.0
2121,70.0,0,84,10.0,43.0
2122,82.0,10,30,3.0,72.0
2123,67.0,10,270,7.0,74.0
2124,67.0,10,60,5.0,68.0
2125,67.0,0,240,6.0,62.0
2126,60.0,20,240,6.0,62.0
2127,36.0,0,240,14.0,58.0
2128,76.0,10,120,4.0,62.0
2129,79.0,0,0,4.0,62.0
2130,70.0,0,240,7.0,78.0
2131,64.0,20,300,7.0,74.0
2132,60.0,10,330,7.0,71.0
2133,84.0,20,30,3.0,72.0
2134,48.0,0,240,13.0,58.0
2135,82.0,20,30,3.0,70.0
2136,84.0,10,30,3.0,70.0
2137,82.0,20,30,3.0,70.0
2138,64.0,0,60,5.0,68.0
2139,84.0,20,30,3.0,67.0
2140,70.0,0,84,10.0,45.0
2141,64.0,10,84,12.0,44.0
2142,67.0,0,84,11.0,42.0
2143,82.0,30,30,3.0,68.0
2144,79.0,0,0,4.0,62.0
2145,76.0,0,120,4.0,62.0
2146,67.0,10,60,5.0,68.0
2147,72.0,0,60,5.0,69.0
2148,81.0,0,60,3.0,71.0
2149,76.0,0,23,5.0,71.0
2150,64.0,0,84,12.0,44.0
2151,70.0,0,84,10.0,47.0
2152,67.0,30,84,11.0,44.0
2153,76.0,0,120,4.0,62.0
2154,82.0,60,60,3.0,73.0
2155,81.0,60,60,3.0,76.0
2156,65.0,0,96,12.0,48.0
2157,69.0,0,96,10.0,49.0
2158,65.0,0,96,11.0,46.0
2159,84.0,60,60,3.0,84.0
2160,82.0,0,60,3.0,86.0
2161,53.0,0,240,13.0,58.0
2162,69.0,0,240,7.0,62.0
2163,65.0,0,240,7.0,62.0
2164,72.0,0,120,6.0,62.0
2165,69.0,60,120,6.0,62.0
2166,77.0,0,240,4.0,62.0
2167,41.0,0,240,14.0,58.0
2168,77.0,0,240,5.0,74.0
2169,81.0,60,60,3.0,88.0
2170,60.0,0,240,7.0,62.0
2171,79.0,0,60,3.0,88.0
2172,65.0,0,96,12.0,48.0
2173,69.0,0,96,11.0,48.0
2174,72.0,60,96,10.0,49.0
2175,69.0,60,0,6.0,62.0
2176,72.0,0,0,6.0,62.0
2177,77.0,60,60,3.0,88.0
2178,76.0,0,60,3.0,82.0
2179,77.0,60,60,3.0,82.0
2180,72.0,0,0,6.0,62.0
2181,79.0,20,5,3.0,79.0
2182,77.0,0,5,3.0,79.0
2183,79.0,20,5,3.0,79.0
2184,77.0,20,5,3.0,77.0
2185,84.0,20,60,5.0,79.0
2186,82.0,20,60,5.0,82.0
2187,76.0,0,76,3.0,77.0
2188,81.0,0,60,5.0,84.0
2189,57.0,0,240,4.0,62.0
2190,45.0,0,240,13.0,58.0
2191,75.0,0,240,6.0,62.0
2192,77.0,60,60,3.0,66.0
2193,60.0,0,120,7.0,68.0
2194,33.0,0,240,14.0,58.0
2195,63.0,0,0,7.0,73.0
2196,79.0,60,60,5.0,87.0
2197,65.0,0,96,12.0,48.0
2198,75.0,0,96,10.0,49.0
2199,72.0,0,96,11.0,48.0
2200,60.0,60,0,7.0,71.0
2201,77.0,60,60,5.0,87.0
2202,63.0,0,0,7.0,71.0
2203,76.0,0,60,5.0,88.0
2204,77.0,60,23,5.0,88.0
2205,79.0,20,5,5.0,84.0
2206,77.0,0,5,5.0,82.0
2207,79.0,20,5,5.0,84.0
2208,77.0,20,5,5.0,82.0
2209,86.0,20,60,3.0,80.0
2210,84.0,20,60,3.0,85.0
2211,76.0,0,76,5.0,81.0
2212,74.0,0,120,6.0,62.0
2213,70.0,0,120,6.0,62.0
2214,46.0,0,240,13.0,58.0
2215,58.0,0,240,4.0,62.0
2216,82.0,0,60,3.0,87.0
2217,34.0,60,240,14.0,58.0
2218,58.0,0,240,7.0,68.0
2219,62.0,0,240,7.0,68.0
2220,77.0,60,60,5.0,79.0
2221,81.0,0,60,3.0,92.0
2222,74.0,60,96,10.0,49.0
2223,65.0,0,96,12.0,48.0
2224,70.0,0,96,11.0,48.0
2225,79.0,60,60,3.0,92.0
2226,70.0,0,120,6.0,62.0
2227,74.0,0,0,6.0,62.0
2228,78.0,0,60,3.0,92.0
2229,70.0,60,120,6.0,62.0
2230,79.0,60,60,3.0,88.0
2231,81.0,20,5,3.0,82.0
2232,79.0,20,5,3.0,80.0
2233,81.0,20,5,3.0,80.0
2234,79.0,20,5,3.0,77.0
2235,86.0,0,60,5.0,80.0
2236,84.0,0,60,5.0,85.0
2237,78.0,0,92,3.0,71.0
2238,34.0,60,240,14.0,58.0
2239,62.0,0,0,7.0,69.0
2240,65.0,60,0,7.0,69.0
2241,74.0,0,240,6.0,62.0
2242,79.0,60,60,3.0,68.0
2243,77.0,0,240,6.0,62.0
2244,82.0,0,60,5.0,87.0
2245,46.0,0,240,13.0,58.0
2246,58.0,0,240,4.0,62.0
2247,81.0,0,60,5.0,87.0
2248,79.0,60,60,5.0,87.0
2249,78.0,60,60,5.0,87.0
2250,67.0,0,228,10.0,49.0
2251,79.0,60,60,5.0,87.0
2252,65.0,0,120,7.0,69.0
2253,62.0,0,120,7.0,69.0
2254,62.0,0,266,12.0,48.0
2255,77.0,0,120,5.0,82.0
2256,81.0,0,120,3.0,69.0
2257,48.0,0,240,4.0,62.0
2258,60.0,0,240,4.0,62.0
2259,77.0,0,120,3.0,69.0
2260,48.0,0,0,13.0,58.0
2261,65.0,0,240,7.0,69.0
2262,72.0,120,120,5.0,78.0
2263,36.0,0,0,14.0,58.0
2264,60.0,0,0,7.0,65.0
2265,60.0,0,266,12.0,48.0
2266,69.0,0,266,10.0,49.0
2267,65.0,60,266,11.0,48.0
2268,72.0,0,120,3.0,73.0
2269,69.0,0,120,5.0,78.0
2270,69.0,120,120,3.0,78.0
2271,65.0,0,120,5.0,78.0
2272,48.0,0,0,13.0,58.0
2273,69.0,0,0,7.0,65.0
2274,65.0,0,240,7.0,65.0
2275,57.0,0,266,12.0,48.0
2276,69.0,120,266,11.0,48.0
2277,72.0,0,266,10.0,49.0
2278,77.0,0,120,3.0,78.0
2279,72.0,0,120,5.0,79.0
2280,48.0,120,0,13.0,58.0
2281,72.0,0,120,3.0,81.0
2282,65.0,0,240,7.0,65.0
2283,60.0,0,240,7.0,65.0
2284,36.0,0,0,14.0,58.0
2285,69.0,120,120,5.0,79.0
2286,72.0,0,266,11.0,47.0
2287,53.0,0,266,12.0,48.0
2288,77.0,0,272,10.0,49.0
2289,77.0,0,120,5.0,82.0
2290,81.0,0,120,3.0,84.0
2291,48.0,0,216,12.0,48.0
2292,81.0,0,220,10.0,49.0
2293,77.0,0,228,11.0,47.0
2294,72.0,0,240,7.0,65.0
2295,69.0,0,240,7.0,65.0
2296,77.0,120,120,3.0,84.0
2297,65.0,0,0,7.0,65.0
2298,48.0,0,0,13.0,58.0
2299,72.0,0,120,5.0,84.0
2300,81.0,0,60,5.0,84.0
2301,77.0,60,60,5.0,83.0
2302,81.0,0,180,4.0,62.0
2303,84.0,0,180,3.0,86.0
2304,72.0,60,60,5.0,79.0
2305,69.0,60,60,5.0,77.0
2306,60.0,0,0,12.0,48.0
2307,77.0,0,60,4.0,62.0
2308,84.0,120,240,10.0,49.0
2309,60.0,0,240,6.0,62.0
2310,81.0,0,240,11.0,47.0
2311,36.0,0,240,14.0,58.0
2312,69.0,0,240,7.0,65.0
2313,72.0,0,240,7.0,65.0
2314,81.0,0,84,3.0,88.0
2315,65.0,60,60,5.0,77.0
2316,69.0,60,60,5.0,74.0
2317,72.0,60,60,5.0,74.0
2318,69.0,0,240,11.0,47.0
2319,81.0,0,240,4.0,62.0
2320,77.0,0,240,10.0,49.0
2321,69.0,60,60,5.0,74.0
2322,65.0,0,60,5.0,74.0
2323,60.0,60,60,5.0,74.0
2324,84.0,0,360,3.0,92.0
2325,65.0,60,60,5.0,74.0
2326,36.0,0,240,14.0,58.0
2327,60.0,0,240,7.0,67.0
2328,65.0,0,240,7.0,67.0
2329,69.0,0,240,7.0,67.0
2330,69.0,60,60,5.0,76.0
2331,72.0,0,240,4.0,62.0
2332,83.0,0,120,3.0,89.0
2333,48.0,0,240,6.0,62.0
2334,48.0,0,240,13.0,58.0
2335,72.0,60,60,5.0,76.0
2336,82.0,0,120,3.0,88.0
2337,69.0,60,60,5.0,76.0
2338,65.0,0,60,5.0,76.0
2339,69.0,60,60,5.0,79.0
2340,60.0,0,240,12.0,48.0
2341,77.0,0,240,10.0,49.0
2342,69.0,0,240,11.0,47.0
2343,77.0,0,0,4.0,62.0
2344,81.0,0,0,3.0,86.0
2345,77.0,60,520,0.0,50.0
2346,81.0,0,520,0.0,50.0
2347,76.0,0,30,4.0,62.0
2348,67.0,0,60,5.0,81.0
2349,79.0,30,45,3.0,86.0
2350,77.0,0,30,4.0,62.0
2351,81.0,30,45,3.0,85.0
2352,76.0,10,30,4.0,62.0
2353,60.0,0,60,5.0,84.0
2354,79.0,20,45,3.0,86.0
2355,77.0,10,30,4.0,62.0
2356,81.0,0,5,3.0,86.0
2357,79.0,20,5,3.0,86.0
2358,76.0,20,30,4.0,62.0
2359,67.0,0,60,5.0,84.0
2360,81.0,10,5,3.0,88.0
2361,77.0,10,30,4.0,62.0
2362,79.0,0,5,3.0,88.0
2363,81.0,20,5,3.0,88.0
2364,70.0,0,240,7.0,76.0
2365,60.0,60,240,7.0,76.0
2366,64.0,0,240,7.0,76.0
2367,48.0,0,240,6.0,62.0
2368,48.0,0,240,13.0,58.0
2369,67.0,0,240,7.0,76.0
2370,36.0,0,240,14.0,58.0
2371,76.0,20,30,4.0,62.0
2372,70.0,0,60,5.0,86.0
2373,79.0,10,5,3.0,88.0
2374,77.0,0,30,4.0,62.0
2375,81.0,0,5,3.0,88.0
2376,79.0,20,5,3.0,88.0
2377,72.0,0,60,5.0,86.0
2378,76.0,20,30,4.0,62.0
2379,81.0,10,5,3.0,88.0
2380,77.0,10,30,4.0,62.0
2381,79.0,0,5,3.0,88.0
2382,81.0,20,5,3.0,88.0
2383,70.0,0,60,5.0,86.0
2384,76.0,20,30,4.0,62.0
2385,79.0,10,5,3.0,88.0
2386,77.0,10,30,4.0,62.0
2387,81.0,0,5,3.0,88.0
2388,79.0,20,5,3.0,88.0
2389,76.0,20,30,4.0,62.0
2390,67.0,0,60,5.0,86.0
2391,81.0,10,5,3.0,88.0
2392,77.0,0,30,4.0,62.0
2393,79.0,0,5,3.0,87.0
2394,76.0,0,458,0.0,49.0
2395,81.0,20,5,3.0,87.0
2396,48.0,0,240,12.0,48.0
2397,76.0,10,240,10.0,49.0
2398,70.0,0,240,11.0,47.0
2399,76.0,20,30,4.0,62.0
2400,70.0,10,60,5.0,86.0
2401,79.0,10,5,3.0,84.0
2402,77.0,0,30,4.0,62.0
2403,81.0,0,5,3.0,84.0
2404,82.0,0,520,0.0,49.0
2405,79.0,20,5,3.0,84.0
2406,67.0,0,60,5.0,86.0
2407,76.0,20,30,4.0,62.0
2408,81.0,10,5,3.0,84.0
2409,77.0,10,30,4.0,62.0
2410,79.0,20,5,3.0,82.0
2411,81.0,20,5,3.0,82.0
2412,60.0,0,60,5.0,86.0
2413,76.0,0,30,4.0,62.0
2414,79.0,10,5,3.0,82.0
2415,77.0,10,30,4.0,62.0
2416,81.0,0,5,3.0,82.0
2417,79.0,20,5,3.0,82.0
2418,76.0,20,30,4.0,62.0
2419,67.0,0,60,5.0,86.0
2420,81.0,10,5,3.0,82.0
2421,77.0,0,30,4.0,62.0
2422,79.0,20,5,3.0,82.0
2423,81.0,20,5,3.0,82.0
2424,70.0,0,240,7.0,87.0
2425,48.0,0,240,13.0,58.0
2426,64.0,0,240,7.0,87.0
2427,67.0,10,240,7.0,87.0
2428,48.0,0,240,6.0,62.0
2429,60.0,0,240,7.0,87.0
2430,70.0,10,60,5.0,86.0
2431,76.0,0,30,4.0,62.0
2432,36.0,0,240,14.0,58.0
2433,79.0,10,5,3.0,83.0
2434,77.0,0,30,4.0,62.0
2435,81.0,0,5,3.0,83.0
2436,79.0,20,5,3.0,83.0
2437,72.0,0,60,5.0,89.0
2438,76.0,20,30,4.0,62.0
2439,77.0,10,30,4.0,62.0
2440,70.0,0,60,5.0,89.0
2441,76.0,30,30,4.0,62.0
2442,74.0,0,60,4.0,62.0
2443,67.0,0,60,5.0,92.0
2444,76.0,0,440,0.0,58.0
2445,70.0,0,440,0.0,58.0
2446,77.0,30,84,3.0,88.0
2447,76.0,0,240,10.0,49.0
2448,48.0,0,240,12.0,48.0
2449,70.0,60,60,5.0,94.0
2450,72.0,0,1920,2.0,88.0
2451,70.0,10,240,11.0,47.0
2452,76.0,0,60,4.0,62.0
2453,79.0,0,84,3.0,93.0
2454,41.0,0,240,14.0,88.0
2455,53.0,0,240,13.0,88.0
2456,60.0,0,240,12.0,80.0
2457,69.0,0,316,11.0,75.0
2458,77.0,0,324,10.0,79.0
2459,81.0,60,77,10.0,75.0
2460,65.0,0,77,11.0,75.0
2461,84.0,0,77,10.0,82.0
2462,72.0,60,77,11.0,83.0
2463,82.0,0,22,10.0,76.0
2464,70.0,60,30,11.0,73.0
2465,60.0,60,480,7.0,88.0
2466,69.0,0,480,7.0,88.0
2467,53.0,0,240,13.0,88.0
2468,57.0,240,240,12.0,84.0
2469,53.0,0,480,6.0,88.0
2470,69.0,0,480,5.0,94.0
2471,65.0,0,480,7.0,88.0
2472,69.0,0,480,0.0,100.0
2473,65.0,0,480,2.0,94.0
2474,77.0,0,480,0.0,100.0
2475,77.0,0,480,3.0,96.0
2476,41.0,0,240,14.0,88.0
2477,70.0,0,77,11.0,70.0
2478,82.0,0,77,10.0,72.0
2479,81.0,0,22,10.0,68.0
2480,69.0,60,30,11.0,66.0
2481,81.0,0,77,10.0,64.0
2482,69.0,60,77,11.0,62.0
2483,79.0,0,22,10.0,60.0
2484,67.0,60,30,11.0,65.0
2485,60.0,0,240,12.0,62.0
2486,57.0,60,0,13.0,62.0
2487,45.0,0,240,14.0,62.0
2488,79.0,0,77,10.0,63.0
2489,67.0,0,77,11.0,67.0
2490,77.0,60,22,10.0,67.0
2491,65.0,0,30,11.0,68.0
2492,65.0,0,77,11.0,71.0
2493,77.0,60,77,10.0,70.0
2494,76.0,0,22,10.0,73.0
2495,64.0,60,30,11.0,72.0
2496,45.0,0,240,14.0,62.0
2497,60.0,0,240,12.0,62.0
2498,46.0,0,240,14.0,88.0
2499,58.0,0,240,13.0,88.0
2500,53.0,0,240,12.0,75.0
2501,74.0,0,300,10.0,77.0
2502,62.0,60,300,11.0,75.0
2503,82.0,60,77,10.0,77.0
2504,70.0,0,77,11.0,75.0
2505,74.0,0,77,11.0,81.0
2506,86.0,60,77,10.0,77.0
2507,84.0,0,22,10.0,71.0
2508,72.0,60,30,11.0,71.0
2509,70.0,0,480,0.0,88.0
2510,58.0,0,480,2.0,88.0
2511,34.0,0,240,14.0,88.0
2512,65.0,0,480,2.0,88.0
2513,46.0,240,240,13.0,88.0
2514,74.0,0,480,0.0,88.0
2515,65.0,0,240,12.0,82.0
2516,84.0,0,77,10.0,62.0
2517,72.0,0,77,11.0,62.0
2518,82.0,60,22,10.0,64.0
2519,70.0,0,30,11.0,66.0
2520,70.0,0,77,11.0,68.0
2521,82.0,60,77,10.0,65.0
2522,81.0,0,22,10.0,66.0
2523,69.0,60,30,11.0,71.0
2524,58.0,0,240,13.0,62.0
2525,62.0,0,240,12.0,62.0
2526,46.0,0,0,14.0,62.0
2527,81.0,0,77,10.0,67.0
2528,69.0,0,77,11.0,69.0
2529,79.0,60,22,10.0,69.0
2530,67.0,0,30,11.0,67.0
2531,79.0,60,77,10.0,70.0
2532,67.0,0,77,11.0,66.0
2533,77.0,60,22,10.0,71.0
2534,65.0,0,30,11.0,71.0
2535,62.0,0,240,12.0,62.0
2536,58.0,60,240,13.0,62.0
2537,76.0,0,23,10.0,79.0
2538,84.0,60,77,10.0,81.0
2539,83.0,60,77,10.0,83.0
2540,84.0,60,27,10.0,85.0
2541,48.0,0,240,14.0,88.0
2542,55.0,60,240,12.0,88.0
2543,60.0,0,240,13.0,88.0
2544,64.0,0,240,11.0,77.0
2545,74.0,60,23,10.0,88.0
2546,65.0,0,120,11.0,77.0
2547,53.0,0,120,12.0,88.0
2548,82.0,60,77,10.0,88.0
2549,81.0,0,77,10.0,86.0
2550,82.0,60,27,10.0,85.0
2551,50.0,0,240,14.0,88.0
2552,65.0,60,120,11.0,81.0
2553,62.0,0,240,13.0,88.0
2554,62.0,0,120,12.0,88.0
2555,77.0,0,268,0.0,88.0
2556,74.0,0,280,2.0,88.0
2557,81.0,0,77,10.0,88.0
2558,79.0,60,77,10.0,80.0
2559,78.0,60,77,10.0,81.0
2560,79.0,60,27,10.0,82.0
2561,46.0,0,240,14.0,88.0
2562,58.0,0,240,13.0,88.0
2563,65.0,0,240,12.0,88.0
2564,74.0,0,240,11.0,76.0
2565,79.0,0,260,0.0,88.0
2566,70.0,60,264,2.0,88.0
2567,74.0,0,268,0.0,88.0
2568,82.0,0,77,10.0,83.0
2569,79.0,60,27,10.0,84.0
2570,72.0,0,136,11.0,74.0
2571,72.0,0,172,0.0,88.0
2572,82.0,60,77,10.0,84.0
2573,79.0,60,27,10.0,82.0
2574,70.0,0,108,11.0,84.0
2575,48.0,0,240,14.0,88.0
2576,64.0,0,240,12.0,88.0
2577,60.0,0,240,13.0,88.0
2578,72.0,0,0,2.0,83.0
2579,76.0,0,264,0.0,88.0
2580,70.0,0,160,0.0,84.0
2581,81.0,0,23,3.0,88.0
2582,65.0,60,23,4.0,88.0
2583,77.0,0,120,5.0,88.0
2584,69.0,0,23,4.0,88.0
2585,84.0,0,23,3.0,88.0
2586,67.0,0,23,4.0,88.0
2587,82.0,60,23,3.0,88.0
2588,72.0,60,0,5.0,88.0
2589,81.0,0,23,3.0,88.0
2590,65.0,0,23,4.0,88.0
2591,67.0,60,23,4.0,88.0
2592,82.0,0,23,3.0,88.0
2593,69.0,60,23,4.0,88.0
2594,84.0,0,23,3.0,88.0
2595,69.0,60,23,4.0,88.0
2596,84.0,0,23,3.0,88.0
2597,69.0,0,480,0.0,78.0
2598,77.0,0,480,0.0,78.0
2599,41.0,0,480,14.0,68.0
2600,65.0,0,480,12.0,69.0
2601,69.0,0,480,11.0,61.0
2602,65.0,0,480,2.0,83.0
2603,77.0,60,480,10.0,70.0
2604,53.0,0,480,13.0,68.0
2605,81.0,0,23,3.0,88.0
2606,65.0,120,23,4.0,88.0
2607,69.0,60,23,4.0,88.0
2608,84.0,0,23,3.0,88.0
2609,82.0,0,23,3.0,88.0
2610,67.0,60,23,4.0,88.0
2611,81.0,0,23,3.0,88.0
2612,65.0,0,23,4.0,88.0
2613,72.0,60,60,5.0,88.0
2614,67.0,0,23,4.0,88.0
2615,82.0,0,23,3.0,88.0
2616,76.0,60,60,5.0,88.0
2617,69.0,0,23,4.0,88.0
2618,84.0,0,23,3.0,88.0
2619,77.0,60,60,5.0,88.0
2620,84.0,0,23,3.0,88.0
2621,69.0,0,23,4.0,88.0
2622,81.0,60,60,5.0,88.0
2623,82.0,0,23,3.0,88.0
2624,67.0,0,23,4.0,88.0
2625,69.0,60,23,4.0,88.0
2626,84.0,0,23,3.0,88.0
2627,84.0,0,120,5.0,88.0
2628,67.0,60,23,4.0,88.0
2629,82.0,0,23,3.0,88.0
2630,81.0,0,23,3.0,88.0
2631,65.0,60,23,4.0,88.0
2632,76.0,0,120,5.0,88.0
2633,48.0,60,240,6.0,88.0
2634,79.0,0,23,3.0,88.0
2635,64.0,0,23,4.0,88.0
2636,65.0,0,23,4.0,88.0
2637,81.0,60,23,3.0,88.0
2638,76.0,60,96,5.0,88.0
2639,64.0,0,23,4.0,88.0
2640,79.0,60,23,3.0,88.0
2641,77.0,0,23,3.0,88.0
2642,62.0,60,23,4.0,88.0
2643,76.0,60,23,3.0,88.0
2644,60.0,0,23,4.0,88.0
2645,77.0,60,23,3.0,88.0
2646,62.0,0,23,4.0,88.0
2647,76.0,0,23,3.0,88.0
2648,60.0,60,23,4.0,88.0
2649,74.0,60,23,3.0,88.0
2650,58.0,0,23,4.0,88.0
2651,48.0,0,240,6.0,88.0
2652,57.0,60,23,4.0,88.0
2653,72.0,0,23,3.0,88.0
2654,58.0,60,23,4.0,88.0
2655,74.0,0,23,3.0,88.0
2656,57.0,60,23,4.0,88.0
2657,72.0,0,23,3.0,88.0
2658,55.0,60,23,4.0,88.0
2659,76.0,0,240,5.0,88.0
2660,70.0,0,60,3.0,88.0
2661,77.0,0,23,5.0,88.0
2662,81.0,0,23,5.0,88.0
2663,65.0,60,23,6.0,88.0
2664,69.0,0,120,3.0,88.0
2665,69.0,0,23,6.0,88.0
2666,84.0,0,23,5.0,88.0
2667,77.0,60,60,3.0,88.0
2668,67.0,60,23,6.0,88.0
2669,82.0,0,23,5.0,88.0
2670,53.0,60,240,4.0,88.0
2671,72.0,60,0,3.0,88.0
2672,81.0,0,23,5.0,88.0
2673,65.0,0,23,6.0,88.0
2674,67.0,0,23,6.0,88.0
2675,82.0,60,23,5.0,88.0
2676,69.0,0,23,6.0,88.0
2677,84.0,60,23,5.0,88.0
2678,84.0,60,23,5.0,88.0
2679,69.0,0,23,6.0,88.0
2680,65.0,0,23,6.0,88.0
2681,81.0,60,23,5.0,88.0
2682,69.0,60,23,6.0,88.0
2683,84.0,0,23,5.0,88.0
2684,82.0,0,23,5.0,88.0
2685,67.0,60,23,6.0,88.0
2686,53.0,60,240,4.0,88.0
2687,81.0,0,23,5.0,88.0
2688,65.0,60,23,6.0,88.0
2689,72.0,0,60,3.0,88.0
2690,67.0,60,23,6.0,88.0
2691,82.0,0,23,5.0,88.0
2692,76.0,0,60,3.0,88.0
2693,84.0,0,23,5.0,88.0
2694,69.0,60,23,6.0,88.0
2695,77.0,0,60,3.0,88.0
2696,84.0,0,23,5.0,88.0
2697,69.0,0,23,6.0,88.0
2698,81.0,60,60,3.0,88.0
2699,67.0,0,23,6.0,88.0
2700,82.0,60,23,5.0,88.0
2701,69.0,0,23,6.0,88.0
2702,84.0,60,23,5.0,88.0
2703,84.0,0,120,3.0,88.0
2704,82.0,60,23,5.0,88.0
2705,67.0,0,23,6.0,88.0
2706,65.0,60,23,6.0,88.0
2707,81.0,0,23,5.0,88.0
2708,76.0,0,120,3.0,88.0
2709,48.0,0,240,4.0,88.0
2710,79.0,60,23,5.0,88.0
2711,64.0,0,23,6.0,88.0
2712,81.0,60,23,5.0,88.0
2713,65.0,0,23,6.0,88.0
2714,64.0,0,23,6.0,88.0
2715,79.0,60,23,5.0,88.0
2716,77.0,0,23,5.0,88.0
2717,62.0,60,23,6.0,88.0
2718,60.0,0,23,6.0,88.0
2719,76.0,0,23,5.0,88.0
2720,62.0,0,23,6.0,88.0
2721,77.0,60,23,5.0,88.0
2722,76.0,0,360,3.0,88.0
2723,60.0,0,23,6.0,88.0
2724,76.0,60,23,5.0,88.0
2725,76.0,0,47,3.0,88.0
2726,74.0,0,23,5.0,88.0
2727,58.0,60,23,6.0,88.0
2728,48.0,60,240,4.0,88.0
2729,57.0,0,23,6.0,88.0
2730,72.0,0,23,5.0,88.0
2731,76.0,60,47,3.0,88.0
2732,74.0,0,23,5.0,88.0
2733,58.0,60,23,6.0,88.0
2734,57.0,0,23,6.0,88.0
2735,72.0,60,23,5.0,88.0
2736,76.0,0,47,3.0,88.0
2737,70.0,0,23,5.0,88.0
2738,55.0,60,23,6.0,88.0
2739,77.0,0,23,3.0,88.0
2740,81.0,0,23,3.0,88.0
2741,65.0,60,23,4.0,88.0
2742,69.0,0,120,5.0,88.0
2743,69.0,0,23,4.0,88.0
2744,84.0,60,23,3.0,88.0
2745,77.0,0,60,5.0,88.0
2746,82.0,0,23,3.0,88.0
2747,67.0,60,23,4.0,88.0
2748,41.0,0,240,14.0,62.0
2749,53.0,60,240,6.0,88.0
2750,72.0,0,0,5.0,88.0
2751,65.0,0,120,7.0,88.0
2752,53.0,0,240,13.0,62.0
2753,57.0,0,240,8.0,88.0
2754,60.0,0,240,8.0,88.0
2755,65.0,0,23,4.0,88.0
2756,81.0,0,23,3.0,88.0
2757,82.0,0,23,3.0,88.0
2758,67.0,60,23,4.0,88.0
2759,72.0,0,120,7.0,88.0
2760,69.0,60,23,4.0,88.0
2761,84.0,0,23,3.0,88.0
2762,69.0,0,23,4.0,88.0
2763,84.0,60,23,3.0,88.0
2764,60.0,0,240,11.0,62.0
2765,77.0,0,120,7.0,88.0
2766,65.0,60,240,12.0,62.0
2767,69.0,0,240,10.0,62.0
2768,65.0,60,23,4.0,88.0
2769,81.0,0,23,3.0,88.0
2770,84.0,0,23,3.0,88.0
2771,69.0,0,23,4.0,88.0
2772,67.0,60,23,4.0,88.0
2773,82.0,0,23,3.0,88.0
2774,53.0,0,240,6.0,88.0
2775,41.0,0,240,14.0,62.0
2776,57.0,60,240,8.0,88.0
2777,60.0,0,240,8.0,88.0
2778,53.0,0,240,13.0,62.0
2779,65.0,60,120,7.0,88.0
2780,65.0,0,23,4.0,88.0
2781,81.0,0,23,3.0,88.0
2782,67.0,0,23,4.0,88.0
2783,82.0,60,23,3.0,88.0
2784,72.0,0,120,7.0,88.0
2785,84.0,0,23,3.0,88.0
2786,69.0,60,23,4.0,88.0
2787,69.0,60,23,4.0,88.0
2788,84.0,0,23,3.0,88.0
2789,69.0,0,240,10.0,62.0
2790,65.0,60,240,12.0,62.0
2791,77.0,0,120,7.0,88.0
2792,77.0,0,240,5.0,88.0
2793,60.0,0,240,11.0,62.0
2794,81.0,0,23,3.0,88.0
2795,65.0,60,23,4.0,88.0
2796,77.0,0,120,5.0,88.0
2797,84.0,60,23,3.0,88.0
2798,69.0,0,23,4.0,88.0
2799,82.0,60,23,3.0,88.0
2800,67.0,0,23,4.0,88.0
2801,65.0,0,120,7.0,88.0
2802,41.0,0,240,14.0,62.0
2803,60.0,0,240,8.0,88.0
2804,57.0,0,240,8.0,88.0
2805,53.0,0,240,6.0,88.0
2806,53.0,60,240,13.0,62.0
2807,75.0,0,0,5.0,88.0
2808,81.0,0,23,3.0,88.0
2809,65.0,0,23,4.0,88.0
2810,67.0,60,23,4.0,88.0
2811,82.0,0,23,3.0,88.0
2812,72.0,0,120,7.0,88.0
2813,69.0,0,23,4.0,88.0
2814,84.0,60,23,3.0,88.0
2815,69.0,60,23,4.0,88.0
2816,84.0,0,23,3.0,88.0
2817,60.0,0,240,12.0,62.0
2818,63.0,0,240,11.0,62.0
2819,69.0,60,240,10.0,62.0
2820,77.0,0,120,7.0,88.0
2821,81.0,0,23,3.0,88.0
2822,65.0,60,23,4.0,88.0
2823,84.0,0,23,3.0,88.0
2824,69.0,0,23,4.0,88.0
2825,67.0,60,23,4.0,88.0
2826,82.0,0,23,3.0,88.0
2827,81.0,0,120,5.0,88.0
2828,41.0,0,240,14.0,62.0
2829,65.0,60,120,7.0,88.0
2830,53.0,0,240,13.0,62.0
2831,57.0,60,240,8.0,88.0
2832,53.0,0,240,6.0,88.0
2833,60.0,0,240,8.0,88.0
2834,65.0,0,23,4.0,88.0
2835,81.0,0,23,3.0,88.0
2836,82.0,0,23,3.0,88.0
2837,67.0,60,23,4.0,88.0
2838,72.0,0,120,7.0,88.0
2839,84.0,60,120,5.0,88.0
2840,84.0,60,23,3.0,88.0
2841,69.0,0,23,4.0,88.0
2842,84.0,60,23,3.0,88.0
2843,69.0,0,23,4.0,88.0
2844,77.0,0,120,7.0,88.0
2845,75.0,0,120,5.0,88.0
2846,84.0,0,1920,0.0,56.0
2847,81.0,0,1920,0.0,56.0
2848,60.0,0,240,12.0,62.0
2849,69.0,0,240,10.0,62.0
2850,63.0,0,240,11.0,62.0
2851,74.0,0,60,5.0,88.0
2852,62.0,0,23,4.0,88.0
2853,82.0,60,23,3.0,88.0
2854,77.0,0,60,5.0,88.0
2855,86.0,0,23,3.0,88.0
2856,65.0,0,23,4.0,88.0
2857,82.0,60,60,5.0,88.0
2858,84.0,0,23,3.0,88.0
2859,63.0,0,23,4.0,88.0
2860,58.0,0,240,6.0,88.0
2861,34.0,0,240,14.0,62.0
2862,46.0,0,240,13.0,62.0
2863,62.0,0,240,8.0,88.0
2864,58.0,0,240,8.0,88.0
2865,70.0,0,120,7.0,88.0
2866,77.0,0,0,5.0,88.0
2867,82.0,0,23,3.0,88.0
2868,62.0,60,23,4.0,88.0
2869,84.0,60,23,3.0,88.0
2870,63.0,0,23,4.0,88.0
2871,77.0,0,120,7.0,88.0
2872,86.0,60,23,3.0,88.0
2873,65.0,0,23,4.0,88.0
2874,65.0,60,23,4.0,88.0
2875,86.0,0,23,3.0,88.0
2876,70.0,0,240,10.0,62.0
2877,82.0,0,120,7.0,88.0
2878,58.0,0,240,12.0,62.0
2879,62.0,0,240,11.0,62.0
2880,82.0,60,23,3.0,88.0
2881,62.0,0,23,4.0,88.0
2882,86.0,60,23,3.0,88.0
2883,65.0,0,23,4.0,88.0
2884,84.0,0,23,3.0,88.0
2885,63.0,60,23,4.0,88.0
2886,50.0,0,240,8.0,88.0
2887,53.0,0,240,8.0,88.0
2888,46.0,0,240,6.0,88.0
2889,46.0,60,240,13.0,62.0
2890,58.0,0,120,7.0,88.0
2891,34.0,0,240,14.0,62.0
2892,62.0,0,23,4.0,88.0
2893,82.0,0,23,3.0,88.0
2894,84.0,60,23,3.0,88.0
2895,63.0,0,23,4.0,88.0
2896,65.0,0,120,7.0,88.0
2897,86.0,0,23,3.0,88.0
2898,65.0,60,23,4.0,88.0
2899,86.0,60,23,3.0,88.0
2900,65.0,0,23,4.0,88.0
2901,62.0,0,240,11.0,62.0
2902,70.0,0,240,10.0,62.0
2903,65.0,60,240,12.0,62.0
2904,82.0,60,960,0.0,56.0
2905,70.0,0,120,7.0,88.0
2906,86.0,0,960,0.0,56.0
2907,74.0,0,240,5.0,88.0
2908,66.0,60,23,6.0,88.0
2909,81.0,0,23,5.0,88.0
2910,74.0,60,120,3.0,88.0
2911,84.0,0,23,5.0,88.0
2912,69.0,0,23,6.0,88.0
2913,82.0,60,23,5.0,88.0
2914,67.0,0,23,6.0,88.0
2915,50.0,0,240,13.0,62.0
2916,54.0,0,240,8.0,88.0
2917,57.0,0,240,8.0,88.0
2918,72.0,0,120,3.0,88.0
2919,66.0,60,120,7.0,88.0
2920,50.0,0,240,4.0,88.0
2921,38.0,0,240,14.0,62.0
2922,81.0,0,23,5.0,88.0
2923,66.0,60,23,6.0,88.0
2924,67.0,60,23,6.0,88.0
2925,82.0,0,23,5.0,88.0
2926,72.0,0,120,7.0,88.0
2927,84.0,60,23,5.0,88.0
2928,69.0,0,23,6.0,88.0
2929,84.0,60,23,5.0,88.0
2930,69.0,0,23,6.0,88.0
2931,57.0,0,240,11.0,62.0
2932,66.0,0,240,10.0,62.0
2933,78.0,0,120,7.0,88.0
2934,60.0,0,240,12.0,62.0
2935,66.0,60,23,6.0,88.0
2936,81.0,0,23,5.0,88.0
2937,72.0,0,360,3.0,88.0
2938,69.0,0,23,6.0,88.0
2939,84.0,0,23,5.0,88.0
2940,67.0,0,23,6.0,88.0
2941,82.0,60,23,5.0,88.0
2942,78.0,60,120,3.0,88.0
2943,38.0,60,240,14.0,62.0
2944,50.0,0,240,13.0,62.0
2945,54.0,0,240,8.0,88.0
2946,66.0,0,120,7.0,88.0
2947,50.0,0,240,4.0,88.0
2948,57.0,0,240,8.0,88.0
2949,81.0,0,23,5.0,88.0
2950,66.0,0,23,6.0,88.0
2951,82.0,60,23,5.0,88.0
2952,67.0,0,23,6.0,88.0
2953,72.0,0,120,7.0,88.0
2954,81.0,60,120,3.0,88.0
2955,84.0,0,23,5.0,88.0
2956,69.0,0,23,6.0,88.0
2957,84.0,60,23,5.0,88.0
2958,69.0,0,23,6.0,88.0
2959,57.0,0,240,11.0,62.0
2960,66.0,0,240,10.0,62.0
2961,78.0,60,120,7.0,88.0
2962,60.0,0,240,12.0,62.0
2963,78.0,0,960,0.0,56.0
2964,81.0,0,960,0.0,56.0
2965,72.0,0,120,3.0,88.0
2966,70.0,0,60,3.0,88.0
2967,82.0,60,23,5.0,88.0
2968,67.0,0,23,6.0,88.0
2969,74.0,0,60,3.0,88.0
2970,70.0,0,23,6.0,88.0
2971,86.0,0,23,5.0,88.0
2972,79.0,0,60,3.0,88.0
2973,84.0,0,23,5.0,88.0
2974,69.0,0,23,6.0,88.0
2975,55.0,0,240,4.0,88.0
2976,43.0,60,240,13.0,62.0
2977,55.0,0,240,8.0,88.0
2978,67.0,60,120,7.0,88.0
2979,31.0,0,240,14.0,62.0
2980,58.0,0,240,8.0,88.0
2981,74.0,0,0,3.0,88.0
2982,67.0,0,23,6.0,88.0
2983,82.0,60,23,5.0,88.0
2984,69.0,60,23,6.0,88.0
2985,84.0,0,23,5.0,88.0
2986,74.0,0,120,7.0,88.0
2987,70.0,0,23,6.0,88.0
2988,86.0,0,23,5.0,88.0
2989,70.0,60,23,6.0,88.0
2990,86.0,0,23,5.0,88.0
2991,58.0,0,240,12.0,62.0
2992,79.0,60,120,7.0,88.0
2993,67.0,0,240,10.0,62.0
2994,55.0,0,240,11.0,62.0
2995,82.0,0,23,5.0,88.0
2996,67.0,60,23,6.0,88.0
2997,86.0,60,23,5.0,88.0
2998,70.0,0,23,6.0,88.0
2999,84.0,60,23,5.0,88.0
3000,69.0,0,23,6.0,88.0
3001,43.0,0,240,13.0,62.0
3002,43.0,60,240,4.0,88.0
3003,62.0,0,240,8.0,88.0
3004,58.0,0,240,8.0,88.0
3005,67.0,0,120,7.0,88.0
3006,31.0,0,240,14.0,62.0
3007,67.0,0,23,6.0,88.0
3008,82.0,0,23,5.0,88.0
3009,81.0,20,5,3.0,95.0
3010,79.0,0,5,3.0,97.0
3011,69.0,20,23,6.0,88.0
3012,84.0,0,23,5.0,88.0
3013,81.0,20,5,3.0,94.0
3014,79.0,20,5,3.0,94.0
3015,74.0,0,120,7.0,88.0
3016,86.0,0,23,5.0,88.0
3017,70.0,0,23,6.0,88.0
3018,70.0,60,23,6.0,88.0
3019,86.0,0,23,5.0,88.0
3020,78.0,20,90,3.0,94.0
3021,82.0,0,960,0.0,62.0
3022,79.0,0,0,0.0,75.0
3023,67.0,0,240,10.0,62.0
3024,79.0,0,120,7.0,88.0
3025,62.0,0,240,12.0,62.0
3026,58.0,0,240,11.0,62.0
3027,79.0,0,90,3.0,88.0
3028,70.0,0,23,6.0,88.0
3029,79.0,60,23,5.0,88.0
3030,82.0,0,120,3.0,95.0
3031,82.0,60,23,5.0,88.0
3032,67.0,0,23,6.0,88.0
3033,69.0,60,23,6.0,88.0
3034,81.0,0,23,5.0,88.0
3035,73.0,0,120,3.0,88.0
3036,51.0,0,240,8.0,88.0
3037,55.0,0,240,8.0,88.0
3038,51.0,0,240,13.0,77.0
3039,67.0,0,120,7.0,88.0
3040,51.0,0,240,4.0,88.0
3041,39.0,0,240,14.0,74.0
3042,70.0,0,23,6.0,88.0
3043,79.0,0,23,5.0,88.0
3044,69.0,60,23,6.0,88.0
3045,81.0,0,23,5.0,88.0
3046,73.0,60,120,7.0,88.0
3047,82.0,60,23,5.0,88.0
3048,67.0,0,23,6.0,88.0
3049,82.0,60,23,5.0,88.0
3050,67.0,0,23,6.0,88.0
3051,79.0,0,120,7.0,88.0
3052,67.0,0,240,10.0,74.0
3053,58.0,0,240,12.0,78.0
3054,61.0,0,240,11.0,78.0
3055,70.0,60,23,6.0,88.0
3056,79.0,0,23,5.0,88.0
3057,73.0,0,360,3.0,88.0
3058,67.0,0,23,6.0,88.0
3059,82.0,0,23,5.0,88.0
3060,81.0,60,23,5.0,88.0
3061,69.0,0,23,6.0,88.0
3062,67.0,0,120,7.0,88.0
3063,51.0,60,240,4.0,88.0
3064,51.0,0,240,13.0,62.0
3065,55.0,0,240,8.0,88.0
3066,39.0,0,240,14.0,62.0
3067,58.0,0,240,8.0,88.0
3068,79.0,60,120,3.0,88.0
3069,79.0,0,23,5.0,88.0
3070,70.0,0,23,6.0,88.0
3071,69.0,0,23,6.0,88.0
3072,81.0,60,23,5.0,88.0
3073,82.0,0,120,3.0,88.0
3074,73.0,60,120,7.0,88.0
3075,67.0,0,23,6.0,88.0
3076,82.0,0,23,5.0,88.0
3077,82.0,0,23,5.0,88.0
3078,67.0,60,23,6.0,88.0
3079,79.0,0,120,7.0,88.0
3080,67.0,0,240,10.0,62.0
3081,73.0,60,120,3.0,88.0
3082,73.0,60,960,0.0,75.0
3083,61.0,0,240,11.0,62.0
3084,55.0,0,240,12.0,62.0
3085,75.0,20,5,3.0,93.0
3086,74.0,20,5,3.0,93.0
3087,69.0,0,23,6.0,88.0
3088,78.0,0,23,5.0,88.0
3089,75.0,20,5,3.0,93.0
3090,74.0,20,5,3.0,93.0
3091,75.0,20,5,3.0,93.0
3092,81.0,0,23,5.0,88.0
3093,66.0,0,23,6.0,88.0
3094,74.0,30,45,3.0,93.0
3095,79.0,0,23,5.0,88.0
3096,67.0,0,23,6.0,88.0
3097,50.0,0,240,8.0,88.0
3098,54.0,60,240,8.0,88.0
3099,69.0,0,120,7.0,88.0
3100,50.0,0,240,4.0,88.0
3101,50.0,0,240,13.0,62.0
3102,38.0,0,240,14.0,62.0
3103,78.0,0,23,5.0,88.0
3104,69.0,0,23,6.0,88.0
3105,72.0,30,90,3.0,93.0
3106,67.0,60,23,6.0,88.0
3107,79.0,0,23,5.0,88.0
3108,74.0,0,120,7.0,88.0
3109,81.0,60,23,5.0,88.0
3110,66.0,0,23,6.0,88.0
3111,81.0,60,23,5.0,88.0
3112,66.0,0,23,6.0,88.0
3113,74.0,0,240,3.0,93.0
3114,57.0,60,240,12.0,62.0
3115,66.0,0,240,10.0,62.0
3116,78.0,0,120,7.0,88.0
3117,62.0,0,240,11.0,62.0
3118,74.0,0,520,0.0,62.0
3119,78.0,0,40,0.0,62.0
3120,78.0,0,23,5.0,88.0
3121,62.0,60,23,6.0,88.0
3122,81.0,60,23,5.0,88.0
3123,66.0,0,23,6.0,88.0
3124,64.0,60,23,6.0,88.0
3125,79.0,0,23,5.0,88.0
3126,62.0,0,120,7.0,88.0
3127,57.0,60,240,8.0,88.0
3128,50.0,0,240,13.0,62.0
3129,38.0,0,240,14.0,62.0
3130,50.0,0,240,4.0,88.0
3131,54.0,0,240,8.0,88.0
3132,81.0,0,120,3.0,88.0
3133,62.0,0,23,6.0,88.0
3134,78.0,0,23,5.0,88.0
3135,79.0,0,23,5.0,88.0
3136,64.0,60,23,6.0,88.0
3137,69.0,0,120,7.0,88.0
3138,86.0,0,120,3.0,88.0
3139,81.0,60,23,5.0,88.0
3140,66.0,0,23,6.0,88.0
3141,81.0,0,400,0.0,62.0
3142,66.0,0,23,6.0,88.0
3143,81.0,60,23,5.0,88.0
3144,66.0,60,240,11.0,62.0
3145,84.0,0,120,3.0,88.0
3146,62.0,0,240,12.0,62.0
3147,74.0,0,120,7.0,88.0
3148,69.0,0,240,10.0,62.0
3149,70.0,60,23,6.0,88.0
3150,79.0,0,23,5.0,88.0
3151,82.0,0,120,3.0,88.0
3152,82.0,0,23,5.0,88.0
3153,67.0,60,23,6.0,88.0
3154,69.0,0,23,6.0,88.0
3155,81.0,60,23,5.0,88.0
3156,39.0,0,240,14.0,88.0
3157,51.0,0,240,13.0,88.0
3158,51.0,0,240,4.0,88.0
3159,55.0,60,240,8.0,88.0
3160,51.0,0,240,8.0,88.0
3161,67.0,0,120,7.0,88.0
3162,79.0,0,23,5.0,88.0
3163,70.0,0,23,6.0,88.0
3164,69.0,0,23,6.0,88.0
3165,81.0,60,23,5.0,88.0
3166,79.0,0,240,3.0,88.0
3167,73.0,0,120,7.0,88.0
3168,67.0,0,23,6.0,88.0
3169,82.0,0,23,5.0,88.0
3170,67.0,0,23,6.0,88.0
3171,82.0,60,23,5.0,88.0
3172,79.0,0,120,7.0,88.0
3173,67.0,0,240,10.0,76.0
3174,58.0,0,240,12.0,79.0
3175,61.0,60,240,11.0,78.0
3176,79.0,60,23,5.0,88.0
3177,70.0,0,23,6.0,88.0
3178,75.0,60,240,3.0,88.0
3179,67.0,0,23,6.0,88.0
3180,82.0,0,23,5.0,88.0
3181,81.0,0,23,5.0,88.0
3182,69.0,60,23,6.0,88.0
3183,79.0,0,120,7.0,88.0
3184,55.0,0,240,8.0,88.0
3185,51.0,0,240,13.0,62.0
3186,51.0,0,240,8.0,88.0
3187,51.0,0,240,4.0,88.0
3188,39.0,60,240,14.0,62.0
3189,79.0,60,23,5.0,88.0
3190,70.0,0,23,6.0,88.0
3191,81.0,0,23,5.0,88.0
3192,69.0,60,23,6.0,88.0
3193,74.0,60,240,3.0,88.0
3194,67.0,0,120,7.0,88.0
3195,67.0,0,23,6.0,88.0
3196,82.0,60,23,5.0,88.0
3197,79.0,0,23,5.0,88.0
3198,70.0,60,23,6.0,88.0
3199,67.0,0,120,7.0,88.0
3200,73.0,0,120,3.0,88.0
3201,67.0,0,264,11.0,72.0
3202,79.0,0,268,10.0,65.0
3203,63.0,0,268,12.0,70.0
3204,85.0,0,1000,0.0,102.0
3205,79.0,0,1000,0.0,102.0
3206,76.0,0,120,3.0,88.0
3207,50.0,0,240,4.0,88.0
3208,78.0,0,240,10.0,73.0
3209,74.0,0,0,3.0,62.0
3210,62.0,0,240,6.0,88.0
3211,69.0,0,240,11.0,62.0
3212,62.0,0,240,12.0,77.0
3213,78.0,0,240,0.0,100.0
3214,86.0,0,240,0.0,100.0
3215,78.0,0,240,5.0,88.0
3216,66.0,0,47,5.0,62.0
3217,62.0,0,96,6.0,62.0
3218,62.0,0,96,10.0,62.0
3219,69.0,0,96,5.0,62.0
3220,50.0,120,96,4.0,62.0
3221,50.0,0,96,12.0,62.0
3222,38.0,60,340,14.0,62.0
3223,50.0,0,380,13.0,62.0
3224,69.0,0,480,7.0,88.0
3225,50.0,0,480,8.0,88.0
3226,54.0,0,480,8.0,88.0
3227,66.0,0,47,5.0,62.0
3228,74.0,0,96,3.0,62.0
3229,69.0,0,96,5.0,62.0
3230,50.0,0,96,4.0,62.0
3231,62.0,240,96,6.0,62.0
3232,66.0,0,47,5.0,62.0
3233,62.0,0,96,6.0,62.0
3234,50.0,0,96,4.0,62.0
3235,69.0,240,96,5.0,62.0
3236,74.0,0,96,3.0,62.0
3237,74.0,0,240,3.0,62.0
3238,77.0,240,180,3.0,62.0
3239,69.0,0,480,5.0,62.0
3240,65.0,0,480,5.0,62.0
3241,62.0,240,480,6.0,62.0
3242,50.0,0,480,4.0,62.0
3243,75.0,0,0,3.0,78.0
3244,69.0,0,480,5.0,74.0
3245,65.0,0,480,5.0,74.0
3246,48.0,0,480,12.0,68.0
3247,63.0,0,480,11.0,69.0
3248,60.0,0,480,7.0,77.0
3249,63.0,0,480,7.0,77.0
3250,65.0,0,480,7.0,77.0
3251,48.0,0,480,13.0,64.0
3252,48.0,0,480,4.0,72.0
3253,75.0,0,480,10.0,68.0
3254,65.0,0,480,10.0,68.0
3255,60.0,0,480,6.0,72.0
3256,69.0,0,480,11.0,69.0
3257,69.0,0,480,7.0,77.0
3258,48.0,0,480,8.0,72.0
3259,60.0,0,480,12.0,68.0
3260,65.0,0,480,2.0,79.0
3261,75.0,0,480,0.0,76.0
3262,81.0,60,480,0.0,76.0
3263,36.0,0,480,14.0,64.0
3264,74.0,540,60,3.0,62.0
3265,72.0,60,60,3.0,62.0
3266,70.0,60,60,3.0,62.0
3267,69.0,60,60,3.0,62.0
3268,70.0,60,60,3.0,62.0
3269,72.0,60,60,3.0,62.0
3270,74.0,60,60,3.0,62.0
3271,75.0,60,120,3.0,62.0
3272,76.0,120,120,3.0,62.0
3273,79.0,120,120,3.0,62.0
3274,77.0,120,120,3.0,62.0
3275,74.0,0,360,3.0,62.0
3276,77.0,0,360,3.0,62.0
3277,72.0,0,120,3.0,62.0
3278,75.0,360,120,3.0,62.0
3279,74.0,0,240,3.0,62.0
3280,70.0,120,240,3.0,62.0
3281,58.0,120,720,4.0,62.0
3282,60.0,0,240,4.0,62.0
3283,74.0,0,240,3.0,62.0
3284,66.0,240,240,3.0,62.0
3285,57.0,0,240,4.0,62.0
3286,55.0,0,240,4.0,62.0
3287,67.0,240,360,3.0,62.0
3288,74.0,0,360,3.0,62.0
3289,53.0,240,240,4.0,62.0
3290,79.0,120,120,3.0,62.0
3291,51.0,120,240,4.0,62.0
3292,58.0,0,720,4.0,62.0
3293,72.0,0,0,3.0,62.0
3294,52.0,0,240,4.0,62.0
3295,55.0,240,240,4.0,62.0
3296,70.0,0,240,3.0,62.0
3297,72.0,0,0,3.0,71.0
3298,72.0,120,0,7.0,71.0
3299,57.0,0,120,5.0,77.0
3300,69.0,0,120,7.0,70.0
3301,69.0,0,120,3.0,71.0
3302,60.0,0,0,5.0,77.0
3303,63.0,0,120,5.0,77.0
3304,75.0,0,120,3.0,73.0
3305,72.0,0,120,3.0,73.0
3306,75.0,0,120,7.0,71.0
3307,62.0,0,120,5.0,77.0
3308,58.0,120,120,5.0,77.0
3309,70.0,0,120,7.0,73.0
3310,70.0,0,120,3.0,75.0
3311,74.0,0,120,3.0,75.0
3312,74.0,0,120,7.0,73.0
3313,69.0,0,23,7.0,74.0
3314,57.0,0,23,5.0,77.0
3315,69.0,0,23,3.0,77.0
3316,60.0,0,47,5.0,77.0
3317,72.0,0,47,3.0,77.0
3318,72.0,120,47,7.0,74.0
3319,41.0,240,480,4.0,70.0
3320,41.0,0,480,8.0,65.0
3321,53.0,0,480,4.0,70.0
3322,41.0,0,0,6.0,68.0
3323,53.0,0,0,6.0,68.0
3324,53.0,0,0,8.0,67.0
3325,75.0,0,120,3.0,79.0
3326,79.0,0,120,7.0,76.0
3327,75.0,120,120,7.0,76.0
3328,63.0,0,120,5.0,78.0
3329,67.0,0,120,5.0,78.0
3330,79.0,0,120,3.0,79.0
3331,74.0,0,23,3.0,81.0
3332,62.0,0,23,5.0,78.0
3333,74.0,0,23,7.0,77.0
3334,77.0,0,47,7.0,77.0
3335,77.0,120,47,3.0,81.0
3336,65.0,0,47,5.0,78.0
3337,62.0,0,120,5.0,78.0
3338,65.0,0,120,5.0,78.0
3339,74.0,120,120,7.0,79.0
3340,77.0,0,120,3.0,84.0
3341,74.0,0,120,3.0,84.0
3342,77.0,0,120,7.0,79.0
3343,72.0,0,23,7.0,76.0
3344,72.0,0,23,3.0,83.0
3345,60.0,0,23,5.0,78.0
3346,63.0,120,47,5.0,78.0
3347,75.0,0,47,7.0,76.0
3348,75.0,0,47,3.0,83.0
3349,41.0,0,480,8.0,67.0
3350,53.0,0,480,4.0,72.0
3351,41.0,0,480,4.0,72.0
3352,60.0,120,120,5.0,78.0
3353,75.0,0,120,3.0,81.0
3354,72.0,0,120,3.0,81.0
3355,72.0,0,120,7.0,75.0
3356,75.0,0,120,7.0,75.0
3357,63.0,0,120,5.0,78.0
3358,70.0,0,23,3.0,80.0
3359,58.0,120,23,5.0,79.0
3360,70.0,0,23,7.0,74.0
3361,62.0,0,47,5.0,79.0
3362,74.0,0,47,3.0,80.0
3363,74.0,0,47,7.0,74.0
3364,75.0,0,120,7.0,72.0
3365,63.0,120,120,5.0,79.0
3366,79.0,0,120,3.0,78.0
3367,75.0,0,120,3.0,78.0
3368,79.0,0,120,7.0,72.0
3369,67.0,0,120,5.0,79.0
3370,74.0,0,23,3.0,77.0
3371,62.0,0,23,5.0,79.0
3372,74.0,120,23,7.0,71.0
3373,77.0,0,47,3.0,77.0
3374,77.0,0,47,7.0,71.0
3375,65.0,0,47,5.0,79.0
3376,34.0,0,480,6.0,69.0
3377,46.0,0,480,6.0,69.0
3378,58.0,0,480,4.0,75.0
3379,46.0,0,480,4.0,75.0
3380,46.0,0,480,8.0,69.0
3381,34.0,0,480,8.0,69.0
3382,46.0,0,120,6.0,70.0
3383,58.0,120,120,4.0,79.0
3384,62.0,0,120,4.0,79.0
3385,50.0,120,120,6.0,68.0
3386,77.0,0,480,7.0,70.0
3387,62.0,120,480,5.0,79.0
3388,65.0,0,480,5.0,79.0
3389,46.0,120,120,6.0,67.0
3390,58.0,0,120,4.0,79.0
3391,74.0,0,480,7.0,70.0
3392,77.0,0,600,3.0,75.0
3393,65.0,0,120,4.0,79.0
3394,74.0,0,600,3.0,75.0
3395,76.0,120,120,4.0,62.0
3396,82.0,0,120,3.0,62.0
3397,81.0,0,120,3.0,62.0
3398,77.0,120,120,4.0,62.0
3399,73.0,0,120,4.0,62.0
3400,53.0,120,480,6.0,65.0
3401,79.0,120,120,3.0,62.0
3402,77.0,120,120,3.0,62.0
3403,74.0,0,120,4.0,62.0
3404,75.0,0,120,3.0,62.0
3405,69.0,120,120,4.0,62.0
3406,74.0,120,120,3.0,62.0
3407,70.0,0,120,4.0,62.0
3408,63.0,0,120,4.0,62.0
3409,72.0,120,120,3.0,62.0
3410,62.0,0,120,5.0,62.0
3411,70.0,0,240,3.0,62.0
3412,58.0,0,0,7.0,62.0
3413,62.0,120,240,4.0,62.0
3414,58.0,0,120,6.0,62.0
3415,65.0,0,0,7.0,62.0
3416,46.0,120,120,8.0,62.0
3417,70.0,0,0,5.0,62.0
3418,65.0,0,0,5.0,62.0
3419,62.0,120,0,7.0,62.0
3420,62.0,0,120,5.0,62.0
3421,58.0,0,0,7.0,62.0
3422,58.0,0,120,6.0,62.0
3423,46.0,120,0,8.0,62.0
3424,65.0,0,0,5.0,62.0
3425,58.0,0,0,6.0,62.0
3426,62.0,0,120,7.0,62.0
3427,65.0,0,120,7.0,62.0
3428,62.0,0,0,5.0,62.0
3429,65.0,0,0,5.0,62.0
3430,70.0,0,0,5.0,62.0
3431,58.0,120,0,7.0,62.0
3432,82.0,0,120,3.0,88.0
3433,62.0,0,120,4.0,88.0
3434,81.0,120,120,3.0,88.0
3435,62.0,0,240,7.0,62.0
3436,65.0,0,240,7.0,62.0
3437,65.0,0,120,4.0,88.0
3438,46.0,0,240,8.0,62.0
3439,79.0,120,120,3.0,88.0
3440,63.0,0,120,4.0,88.0
3441,78.0,0,47,3.0,88.0
3442,62.0,120,47,4.0,82.0
3443,78.0,0,120,3.0,88.0
3444,62.0,0,120,4.0,82.0
3445,79.0,0,47,3.0,88.0
3446,63.0,120,47,4.0,82.0
3447,79.0,120,47,3.0,88.0
3448,63.0,0,47,4.0,81.0
3449,63.0,120,47,4.0,81.0
3450,79.0,0,47,3.0,88.0
3451,51.0,120,480,8.0,62.0
3452,79.0,0,120,5.0,62.0
3453,63.0,0,120,6.0,62.0
3454,74.0,0,120,3.0,62.0
3455,71.0,120,120,3.0,62.0
3456,77.0,0,120,5.0,62.0
3457,62.0,0,120,6.0,62.0
3458,75.0,0,120,5.0,62.0
3459,60.0,0,120,6.0,62.0
3460,75.0,0,120,3.0,62.0
3461,72.0,120,120,3.0,62.0
3462,74.0,0,23,3.0,62.0
3463,59.0,0,47,6.0,62.0
3464,74.0,120,47,5.0,62.0
3465,77.0,0,47,3.0,62.0
3466,43.0,120,480,4.0,62.0
3467,77.0,0,120,3.0,62.0
3468,74.0,0,120,3.0,62.0
3469,74.0,120,120,5.0,62.0
3470,59.0,0,120,6.0,62.0
3471,72.0,120,23,3.0,62.0
3472,60.0,0,47,6.0,62.0
3473,75.0,0,47,5.0,62.0
3474,75.0,0,47,3.0,62.0
3475,60.0,0,47,6.0,62.0
3476,75.0,120,47,5.0,62.0
3477,60.0,120,47,6.0,62.0
3478,75.0,0,47,5.0,62.0
3479,48.0,0,480,4.0,62.0
3480,72.0,0,240,3.0,62.0
3481,75.0,0,0,3.0,88.0
3482,48.0,0,120,6.0,73.0
3483,67.0,120,120,4.0,73.0
3484,75.0,0,120,7.0,74.0
3485,67.0,0,120,7.0,74.0
3486,63.0,0,120,5.0,79.0
3487,48.0,0,120,8.0,73.0
3488,50.0,0,120,8.0,73.0
3489,50.0,120,120,6.0,73.0
3490,65.0,0,120,4.0,73.0
3491,65.0,0,120,5.0,79.0
3492,74.0,0,120,3.0,88.0
3493,74.0,0,120,7.0,74.0
3494,65.0,0,120,7.0,74.0
3495,51.0,0,120,8.0,73.0
3496,51.0,0,120,6.0,74.0
3497,67.0,0,120,5.0,79.0
3498,72.0,0,120,3.0,88.0
3499,63.0,120,120,4.0,74.0
3500,72.0,0,120,7.0,74.0
3501,63.0,0,120,7.0,74.0
3502,62.0,0,23,7.0,74.0
3503,53.0,0,47,8.0,73.0
3504,68.0,0,47,5.0,79.0
3505,71.0,0,47,7.0,74.0
3506,71.0,120,47,3.0,88.0
3507,62.0,0,47,4.0,74.0
3508,53.0,0,47,6.0,74.0
3509,71.0,0,60,7.0,74.0
3510,71.0,0,60,3.0,88.0
3511,72.0,0,60,3.0,88.0
3512,72.0,60,60,7.0,74.0
3513,74.0,0,60,7.0,74.0
3514,74.0,60,60,3.0,88.0
3515,67.0,120,240,5.0,79.0
3516,51.0,0,0,6.0,76.0
3517,51.0,0,240,8.0,74.0
3518,72.0,0,60,3.0,88.0
3519,72.0,60,0,7.0,74.0
3520,63.0,0,240,4.0,74.0
3521,74.0,0,60,3.0,88.0
3522,71.0,0,60,5.0,79.0
3523,75.0,60,60,3.0,88.0
3524,72.0,0,60,5.0,79.0
3525,77.0,60,60,3.0,88.0
3526,74.0,0,60,5.0,79.0
3527,51.0,0,240,4.0,75.0
3528,51.0,0,240,8.0,74.0
3529,75.0,60,60,3.0,88.0
3530,63.0,0,240,7.0,74.0
3531,67.0,0,0,7.0,74.0
3532,72.0,0,60,5.0,79.0
3533,72.0,0,0,7.0,74.0
3534,74.0,0,60,5.0,79.0
3535,78.0,0,60,3.0,88.0
3536,75.0,60,60,5.0,79.0
3537,79.0,0,60,3.0,88.0
3538,77.0,0,60,5.0,79.0
3539,81.0,60,60,3.0,88.0
3540,51.0,60,240,8.0,75.0
3541,51.0,0,0,6.0,78.0
3542,51.0,0,0,4.0,77.0
3543,63.0,60,0,7.0,74.0
3544,75.0,0,60,5.0,79.0
3545,79.0,60,60,3.0,88.0
3546,77.0,0,60,3.0,88.0
3547,69.0,0,60,5.0,79.0
3548,75.0,60,60,3.0,88.0
3549,67.0,0,60,5.0,79.0
3550,65.0,60,60,5.0,79.0
3551,74.0,0,60,3.0,88.0
3552,72.0,0,240,7.0,74.0
3553,67.0,0,240,7.0,74.0
3554,63.0,0,60,5.0,79.0
3555,72.0,60,60,3.0,88.0
3556,51.0,0,240,8.0,75.0
3557,62.0,0,240,7.0,74.0
3558,65.0,0,240,7.0,74.0
3559,70.0,60,240,7.0,74.0
3560,53.0,0,240,8.0,76.0
3561,70.0,0,240,3.0,88.0
3562,62.0,0,240,5.0,79.0
3563,69.0,0,120,3.0,88.0
3564,60.0,0,240,5.0,79.0
3565,60.0,0,240,7.0,74.0
3566,41.0,240,240,8.0,76.0
3567,53.0,0,480,6.0,79.0
3568,53.0,0,480,4.0,78.0
3569,81.0,180,60,3.0,88.0
3570,69.0,0,240,7.0,74.0
3571,84.0,60,60,3.0,88.0
3572,82.0,60,60,3.0,88.0
3573,81.0,60,60,3.0,88.0
3574,79.0,60,60,3.0,88.0
3575,81.0,0,60,3.0,88.0
3576,79.0,60,60,3.0,88.0
3577,77.0,60,60,3.0,88.0
3578,70.0,60,0,4.0,88.0
3579,76.0,60,60,3.0,88.0
3580,67.0,0,240,4.0,80.0
3581,76.0,0,240,3.0,88.0
3582,65.0,0,480,4.0,88.0
3583,69.0,180,60,5.0,88.0
3584,77.0,240,240,3.0,88.0
3585,69.0,0,240,4.0,88.0
3586,70.0,60,60,5.0,88.0
3587,72.0,60,60,5.0,88.0
3588,74.0,60,60,5.0,88.0
3589,70.0,60,60,5.0,88.0
3590,69.0,0,60,5.0,88.0
3591,67.0,60,60,5.0,88.0
3592,65.0,60,60,5.0,88.0
3593,55.0,60,240,6.0,88.0
3594,58.0,0,0,6.0,88.0
3595,64.0,60,60,5.0,88.0
3596,64.0,0,240,5.0,88.0
3597,53.0,60,480,6.0,88.0
3598,57.0,240,240,6.0,88.0
3599,65.0,0,240,5.0,88.0
3600,65.0,240,60,3.0,88.0
3601,69.0,60,60,3.0,88.0
3602,72.0,60,60,3.0,88.0
3603,69.0,60,60,3.0,88.0
3604,65.0,0,60,3.0,88.0
3605,63.0,60,60,3.0,88.0
3606,62.0,60,60,3.0,88.0
3607,60.0,60,60,3.0,88.0
3608,65.0,0,0,5.0,111.0
3609,62.0,0,60,3.0,88.0
3610,53.0,60,84,12.0,56.0
3611,58.0,0,84,11.0,58.0
3612,62.0,0,84,10.0,57.0
3613,65.0,60,60,3.0,88.0
3614,58.0,0,120,6.0,88.0
3615,70.0,60,60,3.0,88.0
3616,58.0,0,84,11.0,58.0
3617,62.0,0,84,10.0,57.0
3618,53.0,0,84,12.0,56.0
3619,34.0,0,240,14.0,62.0
3620,62.0,0,120,6.0,88.0
3621,65.0,60,60,3.0,88.0
3622,46.0,0,240,13.0,62.0
3623,74.0,0,60,3.0,88.0
3624,53.0,0,84,12.0,56.0
3625,58.0,60,84,11.0,58.0
3626,62.0,0,84,10.0,57.0
3627,58.0,0,120,6.0,88.0
3628,70.0,60,60,3.0,88.0
3629,65.0,0,60,3.0,88.0
3630,67.0,8,60,5.0,92.0
3631,70.0,16,30,5.0,97.0
3632,62.0,0,84,10.0,57.0
3633,58.0,0,84,11.0,58.0
3634,53.0,0,84,12.0,56.0
3635,69.0,24,60,5.0,95.0
3636,72.0,10,30,5.0,99.0
3637,74.0,18,30,5.0,102.0
3638,62.0,60,120,6.0,88.0
3639,58.0,0,480,4.0,88.0
3640,70.0,12,60,3.0,88.0
3641,75.0,22,30,5.0,104.0
3642,62.0,0,60,3.0,88.0
3643,58.0,0,84,11.0,58.0
3644,53.0,0,84,12.0,56.0
3645,62.0,10,84,10.0,57.0
3646,58.0,0,120,6.0,88.0
3647,65.0,60,60,3.0,88.0
3648,70.0,60,60,3.0,88.0
3649,62.0,0,84,10.0,57.0
3650,58.0,0,84,11.0,58.0
3651,53.0,0,84,12.0,56.0
3652,34.0,0,240,14.0,62.0
3653,46.0,0,240,13.0,62.0
3654,77.0,0,240,5.0,106.0
3655,62.0,0,120,6.0,88.0
3656,65.0,60,60,3.0,88.0
3657,74.0,0,60,3.0,88.0
3658,53.0,0,84,12.0,56.0
3659,58.0,60,84,11.0,58.0
3660,62.0,0,84,10.0,57.0
3661,70.0,60,60,3.0,88.0
3662,58.0,0,120,6.0,88.0
3663,70.0,0,168,5.0,108.0
3664,72.0,44,15,5.0,107.0
3665,65.0,0,60,3.0,88.0
3666,70.0,6,15,5.0,111.0
3667,62.0,60,84,10.0,57.0
3668,58.0,0,84,11.0,58.0
3669,53.0,0,84,12.0,56.0
3670,72.0,24,15,5.0,107.0
3671,46.0,0,480,4.0,88.0
3672,62.0,0,120,6.0,88.0
3673,70.0,16,60,3.0,88.0
3674,60.0,30,60,3.0,88.0
3675,60.0,0,84,11.0,58.0
3676,53.0,0,84,12.0,56.0
3677,63.0,0,84,10.0,57.0
3678,70.0,0,114,5.0,104.0
3679,63.0,60,60,3.0,88.0
3680,60.0,0,120,6.0,88.0
3681,65.0,0,60,3.0,88.0
3682,53.0,0,84,12.0,56.0
3683,60.0,0,84,11.0,58.0
3684,63.0,8,84,10.0,57.0
3685,69.0,52,120,5.0,100.0
3686,63.0,0,120,6.0,88.0
3687,41.0,0,240,14.0,62.0
3688,53.0,0,240,13.0,62.0
3689,63.0,60,60,3.0,88.0
3690,72.0,0,60,3.0,88.0
3691,60.0,0,84,11.0,58.0
3692,53.0,0,84,12.0,56.0
3693,63.0,0,84,10.0,57.0
3694,65.0,60,60,3.0,88.0
3695,60.0,60,120,6.0,88.0
3696,63.0,0,60,3.0,88.0
3697,63.0,0,84,10.0,57.0
3698,60.0,0,84,11.0,58.0
3699,53.0,0,84,12.0,56.0
3700,69.0,0,240,5.0,94.0
3701,53.0,0,480,4.0,88.0
3702,65.0,60,60,3.0,88.0
3703,63.0,60,120,6.0,88.0
3704,60.0,0,60,3.0,88.0
3705,60.0,0,84,11.0,58.0
3706,53.0,0,84,12.0,56.0
3707,63.0,60,84,10.0,57.0
3708,63.0,60,60,3.0,88.0
3709,60.0,0,120,6.0,88.0
3710,65.0,60,60,3.0,88.0
3711,63.0,0,84,10.0,57.0
3712,53.0,0,84,12.0,56.0
3713,60.0,0,84,11.0,58.0
3714,63.0,0,120,6.0,88.0
3715,53.0,0,240,13.0,62.0
3716,63.0,60,60,3.0,88.0
3717,41.0,0,240,14.0,62.0
3718,72.0,0,60,3.0,88.0
3719,60.0,0,84,11.0,58.0
3720,63.0,0,84,10.0,57.0
3721,53.0,0,84,12.0,56.0
3722,60.0,60,120,6.0,88.0
3723,65.0,60,60,3.0,88.0
3724,63.0,0,60,3.0,88.0
3725,53.0,0,84,12.0,56.0
3726,60.0,0,84,11.0,58.0
3727,63.0,60,84,10.0,57.0
3728,65.0,0,240,5.0,88.0
3729,41.0,0,480,4.0,88.0
3730,65.0,60,60,3.0,88.0
3731,63.0,0,120,6.0,88.0
3732,53.0,0,60,3.0,88.0
3733,53.0,0,84,12.0,56.0
3734,60.0,0,84,11.0,58.0
3735,63.0,0,84,10.0,57.0
3736,77.0,0,120,5.0,104.0
3737,60.0,60,60,3.0,88.0
3738,57.0,0,120,6.0,88.0
3739,75.0,0,47,5.0,103.0
3740,63.0,60,60,3.0,88.0
3741,63.0,0,84,10.0,57.0
3742,60.0,0,84,11.0,58.0
3743,53.0,0,84,12.0,56.0
3744,60.0,0,120,6.0,88.0
3745,53.0,60,240,13.0,62.0
3746,41.0,0,240,14.0,62.0
3747,60.0,60,60,3.0,88.0
3748,74.0,0,47,5.0,101.0
3749,65.0,60,60,3.0,88.0
3750,53.0,0,84,12.0,56.0
3751,63.0,0,84,10.0,57.0
3752,60.0,0,84,11.0,58.0
3753,63.0,60,60,3.0,88.0
3754,57.0,0,120,6.0,88.0
3755,72.0,0,47,5.0,100.0
3756,60.0,0,47,6.0,88.0
3757,60.0,0,60,3.0,88.0
3758,53.0,60,84,12.0,56.0
3759,63.0,0,84,10.0,57.0
3760,60.0,0,84,11.0,58.0
3761,63.0,60,60,3.0,88.0
3762,41.0,0,480,4.0,88.0
3763,53.0,60,60,3.0,88.0
3764,63.0,0,84,10.0,57.0
3765,60.0,0,84,11.0,58.0
3766,53.0,0,84,12.0,56.0
3767,60.0,60,60,3.0,88.0
3768,74.0,0,120,5.0,101.0
3769,60.0,0,120,6.0,88.0
3770,72.0,0,47,5.0,88.0
3771,63.0,0,60,3.0,88.0
3772,63.0,60,84,10.0,57.0
3773,53.0,0,84,12.0,56.0
3774,60.0,0,84,11.0,58.0
3775,53.0,0,240,13.0,62.0
3776,63.0,0,120,6.0,88.0
3777,60.0,60,60,3.0,88.0
3778,41.0,0,240,14.0,62.0
3779,70.0,60,47,5.0,101.0
3780,65.0,0,60,3.0,88.0
3781,63.0,0,84,10.0,57.0
3782,53.0,0,84,12.0,56.0
3783,60.0,0,84,11.0,58.0
3784,60.0,0,120,6.0,88.0
3785,63.0,60,60,3.0,88.0
3786,69.0,0,47,5.0,100.0
3787,60.0,60,60,3.0,88.0
3788,53.0,0,84,12.0,56.0
3789,60.0,0,84,11.0,58.0
3790,63.0,0,84,10.0,57.0
3791,41.0,0,480,4.0,88.0
3792,63.0,0,120,6.0,88.0
3793,63.0,60,60,3.0,88.0
3794,53.0,0,60,3.0,88.0
3795,53.0,0,84,12.0,56.0
3796,58.0,0,84,11.0,58.0
3797,62.0,60,84,10.0,57.0
3798,58.0,60,60,3.0,88.0
3799,62.0,0,120,6.0,88.0
3800,72.0,0,120,5.0,100.0
3801,70.0,0,47,5.0,99.0
3802,62.0,0,60,3.0,88.0
3803,53.0,0,84,12.0,56.0
3804,62.0,60,84,10.0,57.0
3805,58.0,0,84,11.0,58.0
3806,34.0,0,240,14.0,62.0
3807,46.0,0,240,13.0,62.0
3808,65.0,0,120,6.0,88.0
3809,58.0,60,60,3.0,88.0
3810,65.0,0,60,3.0,88.0
3811,62.0,0,84,10.0,57.0
3812,53.0,0,84,12.0,56.0
3813,58.0,0,84,11.0,58.0
3814,70.0,60,96,5.0,98.0
3815,62.0,0,120,6.0,88.0
3816,62.0,60,60,3.0,88.0
3817,65.0,0,47,6.0,88.0
3818,58.0,0,60,3.0,88.0
3819,62.0,0,84,10.0,57.0
3820,58.0,0,84,11.0,58.0
3821,53.0,60,84,12.0,56.0
3822,46.0,0,480,4.0,88.0
3823,77.0,0,3360,0.0,62.0
3824,62.0,60,60,3.0,88.0
3825,53.0,0,60,5.0,88.0
3826,58.0,0,84,11.0,58.0
3827,62.0,0,84,10.0,57.0
3828,53.0,0,84,12.0,56.0
3829,62.0,0,120,4.0,88.0
3830,58.0,60,60,5.0,88.0
3831,62.0,0,60,5.0,88.0
3832,58.0,0,84,11.0,58.0
3833,62.0,60,84,10.0,57.0
3834,53.0,0,84,12.0,56.0
3835,65.0,0,120,4.0,88.0
3836,46.0,60,240,13.0,62.0
3837,70.0,0,240,3.0,88.0
3838,34.0,0,240,14.0,62.0
3839,58.0,60,60,5.0,88.0
3840,65.0,0,60,5.0,88.0
3841,58.0,0,84,11.0,58.0
3842,62.0,0,84,10.0,57.0
3843,53.0,0,84,12.0,56.0
3844,62.0,60,60,5.0,88.0
3845,62.0,0,120,4.0,88.0
3846,58.0,0,60,5.0,88.0
3847,53.0,0,84,12.0,56.0
3848,62.0,0,84,10.0,57.0
3849,58.0,60,84,11.0,58.0
3850,82.0,60,240,3.0,102.0
3851,46.0,0,0,6.0,88.0
3852,62.0,60,60,5.0,88.0
3853,65.0,0,120,4.0,88.0
3854,55.0,0,60,5.0,88.0
3855,58.0,0,84,11.0,58.0
3856,63.0,60,84,10.0,57.0
3857,55.0,0,84,12.0,56.0
3858,58.0,60,60,5.0,88.0
3859,81.0,0,120,3.0,102.0
3860,63.0,0,120,4.0,88.0
3861,63.0,60,60,5.0,88.0
3862,58.0,0,84,11.0,58.0
3863,63.0,0,84,10.0,57.0
3864,55.0,0,84,12.0,56.0
3865,79.0,0,120,3.0,101.0
3866,58.0,60,60,5.0,88.0
3867,46.0,0,240,13.0,62.0
3868,34.0,0,240,14.0,62.0
3869,70.0,0,120,4.0,88.0
3870,67.0,60,60,5.0,88.0
3871,63.0,0,84,10.0,57.0
3872,58.0,0,84,11.0,58.0
3873,55.0,0,84,12.0,56.0
3874,67.0,0,120,4.0,88.0
3875,63.0,60,60,5.0,88.0
3876,58.0,60,60,5.0,88.0
3877,55.0,0,84,12.0,56.0
3878,63.0,0,84,10.0,57.0
3879,58.0,0,84,11.0,58.0
3880,63.0,60,60,5.0,88.0
3881,75.0,0,120,4.0,88.0
3882,55.0,0,60,5.0,88.0
3883,79.0,0,300,3.0,101.0
3884,63.0,0,84,11.0,54.0
3885,58.0,0,84,12.0,56.0
3886,67.0,0,84,10.0,50.0
3887,81.0,0,60,3.0,100.0
3888,67.0,60,60,5.0,88.0
3889,70.0,0,120,4.0,88.0
3890,63.0,60,60,5.0,88.0
3891,82.0,0,60,3.0,102.0
3892,58.0,0,84,12.0,56.0
3893,63.0,0,84,11.0,54.0
3894,67.0,0,84,10.0,50.0
3895,67.0,0,60,5.0,88.0
3896,79.0,60,60,3.0,101.0
3897,75.0,0,120,4.0,88.0
3898,46.0,0,240,6.0,88.0
3899,46.0,0,256,13.0,62.0
3900,34.0,60,256,14.0,62.0
3901,77.0,0,60,3.0,100.0
3902,62.0,0,60,5.0,88.0
3903,56.0,0,84,12.0,56.0
3904,62.0,0,84,11.0,58.0
3905,65.0,0,84,10.0,57.0
3906,68.0,0,120,4.0,88.0
3907,74.0,0,60,5.0,88.0
3908,79.0,60,60,3.0,99.0
3909,80.0,0,60,3.0,98.0
3910,65.0,0,60,5.0,88.0
3911,56.0,0,84,12.0,56.0
3912,65.0,60,84,10.0,57.0
3913,62.0,0,84,11.0,58.0
3914,35.0,0,220,14.0,62.0
3915,47.0,0,220,13.0,62.0
3916,77.0,0,60,5.0,88.0
3917,47.0,60,240,6.0,88.0
3918,74.0,0,120,4.0,88.0
3919,77.0,60,60,3.0,98.0
3920,75.0,0,60,3.0,97.0
3921,63.0,0,60,5.0,88.0
3922,55.0,0,84,12.0,56.0
3923,60.0,0,84,11.0,58.0
3924,63.0,0,84,10.0,57.0
3925,67.0,0,120,4.0,88.0
3926,67.0,0,60,5.0,88.0
3927,77.0,60,60,3.0,96.0
3928,79.0,0,60,3.0,95.0
3929,72.0,0,60,5.0,88.0
3930,60.0,60,84,11.0,58.0
3931,55.0,0,84,12.0,56.0
3932,63.0,0,84,10.0,57.0
3933,77.0,0,60,3.0,94.0
3934,67.0,60,60,5.0,88.0
3935,36.0,0,240,14.0,62.0
3936,48.0,0,240,13.0,62.0
3937,72.0,0,120,4.0,88.0
3938,75.0,0,60,5.0,88.0
3939,60.0,0,84,11.0,58.0
3940,63.0,60,84,10.0,57.0
3941,55.0,0,84,12.0,56.0
3942,72.0,60,60,5.0,88.0
3943,63.0,0,120,4.0,88.0
3944,67.0,60,60,5.0,88.0
3945,55.0,0,84,12.0,56.0
3946,63.0,0,84,10.0,57.0
3947,60.0,0,84,11.0,58.0
3948,48.0,60,480,6.0,88.0
3949,67.0,0,120,4.0,88.0
3950,72.0,60,60,5.0,88.0
3951,75.0,0,300,3.0,103.0
3952,63.0,0,60,5.0,88.0
3953,75.0,60,84,10.0,48.0
3954,67.0,0,84,12.0,48.0
3955,72.0,0,84,11.0,50.0
3956,69.0,0,120,4.0,88.0
3957,77.0,60,60,3.0,112.0
3958,72.0,0,60,5.0,88.0
3959,69.0,60,60,5.0,88.0
3960,79.0,0,60,3.0,99.0
3961,75.0,0,84,10.0,52.0
3962,67.0,0,84,12.0,48.0
3963,72.0,0,84,11.0,51.0
3964,72.0,0,60,5.0,88.0
3965,72.0,0,120,4.0,88.0
3966,75.0,60,60,3.0,98.0
3967,48.0,0,240,6.0,88.0
3968,36.0,0,264,14.0,62.0
3969,48.0,0,264,13.0,62.0
3970,74.0,0,60,3.0,98.0
3971,62.0,60,60,5.0,88.0
3972,71.0,0,84,12.0,49.0
3973,65.0,0,84,11.0,54.0
3974,74.0,0,84,10.0,55.0
3975,75.0,60,60,3.0,98.0
3976,71.0,0,60,5.0,88.0
3977,65.0,0,120,4.0,88.0
3978,77.0,0,60,3.0,97.0
3979,65.0,60,60,5.0,88.0
3980,71.0,0,84,12.0,50.0
3981,74.0,0,84,10.0,58.0
3982,65.0,0,84,11.0,60.0
3983,50.0,0,228,13.0,62.0
3984,38.0,0,228,14.0,62.0
3985,71.0,0,120,4.0,88.0
3986,50.0,0,240,6.0,88.0
3987,74.0,0,60,3.0,97.0
3988,71.0,60,60,5.0,88.0
3989,60.0,0,60,5.0,88.0
3990,72.0,0,60,3.0,96.0
3991,67.0,0,84,11.0,59.0
3992,72.0,0,84,12.0,50.0
3993,72.0,60,84,10.0,58.0
3994,67.0,0,60,5.0,88.0
3995,67.0,0,120,4.0,88.0
3996,74.0,60,60,3.0,96.0
3997,63.0,0,60,5.0,88.0
3998,75.0,0,60,3.0,96.0
3999,67.0,0,84,11.0,59.0
4000,63.0,60,84,12.0,56.0
4001,60.0,0,84,10.0,58.0
4002,74.0,0,60,3.0,95.0
4003,67.0,60,60,5.0,88.0
4004,72.0,0,120,4.0,88.0
4005,51.0,0,240,13.0,62.0
4006,39.0,0,240,14.0,62.0
4007,72.0,0,60,5.0,88.0
4008,67.0,0,84,11.0,58.0
4009,60.0,0,84,10.0,58.0
4010,63.0,0,84,12.0,56.0
4011,72.0,60,120,3.0,95.0
4012,67.0,60,60,5.0,88.0
4013,63.0,0,120,4.0,88.0
4014,79.0,0,47,3.0,113.0
4015,63.0,0,60,5.0,88.0
4016,60.0,0,84,10.0,57.0
4017,55.0,60,84,11.0,58.0
4018,51.0,0,84,12.0,56.0
4019,67.0,0,120,4.0,88.0
4020,67.0,60,60,5.0,88.0
4021,55.0,0,60,5.0,88.0
4022,55.0,0,84,11.0,57.0
4023,60.0,0,84,10.0,57.0
4024,51.0,0,84,12.0,56.0
4025,77.0,0,120,3.0,112.0
4026,63.0,60,60,5.0,88.0
4027,60.0,60,120,4.0,88.0
4028,79.0,0,60,3.0,110.0
4029,60.0,0,60,5.0,88.0
4030,55.0,0,84,11.0,57.0
4031,51.0,60,84,12.0,56.0
4032,60.0,0,84,10.0,57.0
4033,63.0,0,60,5.0,88.0
4034,75.0,60,60,3.0,109.0
4035,55.0,0,120,4.0,88.0
4036,51.0,0,720,6.0,88.0
4037,39.0,0,268,14.0,62.0
4038,51.0,0,268,13.0,62.0
4039,67.0,0,60,5.0,88.0
4040,60.0,0,84,11.0,56.0
4041,63.0,0,84,10.0,56.0
4042,55.0,0,84,12.0,56.0
4043,67.0,0,120,4.0,88.0
4044,74.0,0,120,3.0,108.0
4045,63.0,60,60,5.0,88.0
4046,75.0,0,60,3.0,106.0
4047,60.0,0,60,5.0,88.0
4048,63.0,0,84,10.0,56.0
4049,55.0,0,84,12.0,56.0
4050,60.0,0,84,11.0,56.0
4051,36.0,0,228,14.0,62.0
4052,48.0,60,228,13.0,62.0
4053,63.0,60,60,5.0,88.0
4054,63.0,60,120,4.0,88.0
4055,72.0,0,60,3.0,105.0
4056,48.0,0,240,6.0,88.0
4057,62.0,60,60,5.0,88.0
4058,65.0,0,120,4.0,88.0
4059,60.0,60,60,5.0,88.0
4060,58.0,60,60,5.0,88.0
4061,41.0,0,61,14.0,62.0
4062,53.0,0,61,13.0,62.0
4063,53.0,0,120,4.0,88.0
4064,60.0,60,60,5.0,88.0
4065,53.0,0,0,6.0,88.0
4066,62.0,0,60,5.0,88.0
4067,53.0,0,61,13.0,62.0
4068,41.0,60,61,14.0,62.0
4069,53.0,0,0,6.0,88.0
4070,58.0,0,120,4.0,88.0
4071,63.0,60,60,5.0,88.0
4072,65.0,0,60,5.0,88.0
4073,41.0,0,61,14.0,62.0
4074,53.0,60,61,13.0,62.0
4075,62.0,60,60,5.0,88.0
4076,62.0,0,120,4.0,88.0
4077,70.0,0,480,3.0,104.0
4078,62.0,0,508,10.0,56.0
4079,58.0,0,508,11.0,55.0
4080,53.0,0,560,12.0,56.0
4081,53.0,0,96,13.0,62.0
4082,65.0,0,96,4.0,88.0
4083,41.0,0,96,14.0,62.0
4084,57.0,60,120,11.0,52.0
4085,60.0,0,120,10.0,62.0
4086,60.0,0,240,5.0,88.0
4087,53.0,0,240,6.0,88.0
4088,69.0,0,240,3.0,88.0
4089,82.0,240,60,3.0,79.0
4090,81.0,60,60,3.0,76.0
4091,79.0,60,60,3.0,73.0
4092,77.0,60,60,3.0,69.0
4093,74.0,60,60,5.0,62.0
4094,82.0,0,120,3.0,66.0
4095,77.0,60,60,5.0,62.0
4096,76.0,60,60,5.0,62.0
4097,89.0,0,120,3.0,62.0
4098,77.0,60,60,5.0,62.0
4099,79.0,0,60,5.0,62.0
4100,77.0,60,60,5.0,62.0
4101,86.0,0,47,3.0,62.0
4102,76.0,60,60,5.0,62.0
4103,77.0,60,60,5.0,62.0
4104,58.0,60,240,6.0,62.0
4105,70.0,0,480,4.0,62.0
4106,69.0,0,60,5.0,62.0
4107,77.0,60,60,5.0,62.0
4108,87.0,60,47,3.0,62.0
4109,76.0,0,60,5.0,62.0
4110,77.0,60,60,5.0,62.0
4111,60.0,0,240,6.0,62.0
4112,77.0,60,240,4.0,62.0
4113,79.0,0,60,5.0,62.0
4114,63.0,0,96,6.0,62.0
4115,77.0,60,60,5.0,62.0
4116,84.0,0,47,3.0,62.0
4117,76.0,60,60,5.0,62.0
4118,77.0,60,60,5.0,62.0
4119,81.0,60,240,4.0,62.0
4120,70.0,0,60,5.0,72.0
4121,77.0,0,96,4.0,88.0
4122,77.0,60,60,5.0,74.0
4123,76.0,60,60,5.0,75.0
4124,62.0,0,240,6.0,88.0
4125,82.0,0,240,7.0,72.0
4126,77.0,0,240,7.0,72.0
4127,82.0,60,240,3.0,72.0
4128,77.0,60,60,5.0,77.0
4129,65.0,0,260,11.0,62.0
4130,82.0,0,272,10.0,58.0
4131,62.0,0,276,13.0,62.0
4132,50.0,0,276,14.0,62.0
4133,82.0,0,60,5.0,79.0
4134,77.0,0,96,4.0,88.0
4135,86.0,60,96,3.0,81.0
4136,77.0,60,60,5.0,80.0
4137,76.0,60,60,5.0,82.0
4138,46.0,0,216,14.0,62.0
4139,58.0,0,216,13.0,62.0
4140,86.0,0,224,10.0,58.0
4141,70.0,0,228,11.0,62.0
4142,58.0,0,240,6.0,88.0
4143,65.0,0,480,12.0,62.0
4144,86.0,0,240,7.0,73.0
4145,82.0,0,240,7.0,73.0
4146,77.0,60,60,5.0,85.0
4147,81.0,0,60,5.0,83.0
4148,69.0,60,96,11.0,62.0
4149,65.0,0,96,13.0,62.0
4150,53.0,0,96,12.0,62.0
4151,53.0,0,96,14.0,62.0
4152,84.0,0,96,10.0,58.0
4153,77.0,60,60,5.0,81.0
4154,76.0,60,60,5.0,80.0
4155,77.0,0,240,4.0,88.0
4156,84.0,0,240,7.0,74.0
4157,84.0,0,240,3.0,78.0
4158,81.0,0,240,7.0,74.0
4159,65.0,0,240,6.0,88.0
4160,77.0,60,60,5.0,78.0
4161,82.0,60,60,3.0,62.0
4162,75.0,0,60,5.0,76.0
4163,77.0,60,60,5.0,62.0
4164,81.0,0,60,3.0,62.0
4165,79.0,0,60,3.0,62.0
4166,72.0,60,60,5.0,62.0
4167,77.0,0,60,5.0,62.0
4168,77.0,60,60,3.0,62.0
4169,74.0,0,60,5.0,62.0
4170,65.0,60,60,5.0,62.0
4171,82.0,60,120,3.0,62.0
4172,64.0,60,60,5.0,62.0
4173,65.0,60,60,5.0,62.0
4174,77.0,0,120,3.0,62.0
4175,67.0,60,60,5.0,62.0
4176,65.0,60,60,5.0,62.0
4177,74.0,0,47,3.0,62.0
4178,64.0,60,60,5.0,62.0
4179,46.0,0,240,6.0,62.0
4180,65.0,60,60,5.0,62.0
4181,70.0,0,480,4.0,62.0
4182,57.0,0,60,5.0,62.0
4183,65.0,60,60,5.0,62.0
4184,75.0,0,47,3.0,62.0
4185,64.0,60,60,5.0,62.0
4186,65.0,60,240,4.0,62.0
4187,65.0,60,60,5.0,62.0
4188,48.0,0,240,6.0,62.0
4189,67.0,0,60,5.0,62.0
4190,65.0,60,60,5.0,62.0
4191,72.0,0,47,3.0,62.0
4192,64.0,60,60,5.0,62.0
4193,65.0,60,60,5.0,62.0
4194,51.0,60,240,6.0,62.0
4195,69.0,0,240,4.0,62.0
4196,58.0,0,60,5.0,78.0
4197,65.0,60,60,5.0,80.0
4198,64.0,60,60,5.0,82.0
4199,50.0,0,240,6.0,88.0
4200,65.0,0,0,4.0,88.0
4201,65.0,60,60,5.0,83.0
4202,70.0,0,0,2.0,85.0
4203,70.0,0,240,3.0,73.0
4204,70.0,0,256,10.0,55.0
4205,65.0,0,264,11.0,62.0
4206,50.0,60,272,13.0,62.0
4207,38.0,0,272,14.0,62.0
4208,77.0,0,280,0.0,62.0
4209,82.0,0,40,0.0,74.0
4210,62.0,0,288,2.0,72.0
4211,70.0,60,60,5.0,85.0
4212,65.0,60,60,5.0,88.0
4213,64.0,60,60,5.0,85.0
4214,86.0,0,200,0.0,74.0
4215,34.0,0,224,14.0,62.0
4216,70.0,0,224,11.0,62.0
4217,46.0,0,224,13.0,62.0
4218,65.0,0,476,12.0,62.0
4219,74.0,0,236,10.0,55.0
4220,74.0,0,240,2.0,85.0
4221,74.0,0,240,3.0,82.0
4222,65.0,60,60,5.0,83.0
4223,46.0,0,240,6.0,88.0
4224,65.0,0,0,4.0,88.0
4225,65.0,0,96,2.0,62.0
4226,41.0,0,96,14.0,62.0
4227,81.0,0,96,0.0,57.0
4228,53.0,0,96,13.0,62.0
4229,72.0,0,96,10.0,55.0
4230,69.0,0,96,11.0,62.0
4231,53.0,0,96,12.0,62.0
4232,72.0,60,96,2.0,62.0
4233,84.0,0,96,0.0,57.0
4234,72.0,0,240,3.0,78.0
4235,41.0,0,240,6.0,88.0
4236,69.0,0,240,5.0,80.0
4237,65.0,240,240,3.0,62.0
4238,53.0,0,240,4.0,62.0
4239,70.0,240,120,3.0,71.0
4240,58.0,0,120,4.0,62.0
4241,71.0,120,120,3.0,72.0
4242,59.0,0,120,4.0,62.0
4243,60.0,0,120,4.0,62.0
4244,72.0,120,120,3.0,74.0
4245,73.0,0,120,3.0,75.0
4246,61.0,120,120,4.0,62.0
4247,62.0,120,120,4.0,62.0
4248,74.0,0,120,3.0,77.0
4249,75.0,0,120,3.0,78.0
4250,63.0,120,120,4.0,62.0
4251,76.0,120,120,3.0,80.0
4252,64.0,0,120,4.0,62.0
4253,65.0,0,120,4.0,62.0
4254,77.0,120,120,3.0,82.0
4255,74.0,0,120,3.0,83.0
4256,78.0,0,120,3.0,83.0
4257,62.0,0,120,4.0,88.0
4258,66.0,0,120,4.0,88.0
4259,75.0,0,23,3.0,88.0
4260,63.0,0,23,4.0,88.0
4261,79.0,120,47,3.0,88.0
4262,67.0,0,47,4.0,88.0
4263,75.0,0,47,3.0,88.0
4264,63.0,0,47,4.0,88.0
4265,79.0,120,96,3.0,88.0
4266,67.0,0,96,4.0,88.0
4267,45.0,0,480,6.0,88.0
4268,45.0,0,480,8.0,88.0
4269,33.0,0,480,8.0,88.0
4270,57.0,0,480,6.0,88.0
4271,57.0,120,480,7.0,88.0
4272,62.0,240,120,5.0,62.0
4273,66.0,0,120,5.0,62.0
4274,63.0,120,23,5.0,62.0
4275,67.0,0,47,5.0,62.0
4276,63.0,120,47,5.0,62.0
4277,67.0,0,96,5.0,62.0
4278,61.0,240,120,5.0,62.0
4279,73.0,0,120,3.0,62.0
4280,76.0,0,120,3.0,62.0
4281,64.0,0,120,5.0,62.0
4282,62.0,0,23,5.0,62.0
4283,74.0,120,23,3.0,62.0
4284,65.0,0,47,5.0,62.0
4285,77.0,0,47,3.0,62.0
4286,62.0,0,23,5.0,62.0
4287,74.0,0,23,3.0,62.0
4288,77.0,0,47,3.0,62.0
4289,65.0,120,47,5.0,62.0
4290,74.0,0,23,3.0,62.0
4291,62.0,0,23,5.0,62.0
4292,77.0,120,47,3.0,62.0
4293,65.0,0,47,5.0,62.0
4294,58.0,0,480,4.0,62.0
4295,46.0,0,480,4.0,62.0
4296,59.0,0,120,5.0,62.0
4297,62.0,0,120,5.0,62.0
4298,74.0,0,120,3.0,62.0
4299,71.0,0,120,3.0,62.0
4300,72.0,0,23,3.0,62.0
4301,60.0,0,23,5.0,62.0
4302,75.0,0,47,3.0,62.0
4303,63.0,120,47,5.0,62.0
4304,60.0,0,23,5.0,62.0
4305,72.0,120,23,3.0,62.0
4306,75.0,0,47,3.0,62.0
4307,63.0,0,47,5.0,62.0
4308,72.0,0,23,3.0,62.0
4309,60.0,0,23,5.0,62.0
4310,75.0,120,47,3.0,62.0
4311,63.0,0,47,5.0,62.0
4312,54.0,120,480,4.0,62.0
4313,42.0,0,480,4.0,62.0
4314,73.0,0,120,3.0,62.0
4315,69.0,0,120,3.0,62.0
4316,61.0,120,120,5.0,62.0
4317,57.0,0,120,5.0,62.0
4318,70.0,120,23,3.0,62.0
4319,58.0,0,23,5.0,62.0
4320,62.0,0,47,5.0,62.0
4321,74.0,0,47,3.0,62.0
4322,70.0,0,23,3.0,62.0
4323,58.0,120,23,5.0,62.0
4324,62.0,0,47,5.0,62.0
4325,74.0,0,47,3.0,62.0
4326,58.0,120,23,5.0,62.0
4327,70.0,0,23,3.0,67.0
4328,62.0,0,47,5.0,62.0
4329,74.0,0,47,3.0,67.0
4330,55.0,0,480,4.0,62.0
4331,43.0,0,480,4.0,62.0
4332,71.0,72,60,3.0,75.0
4333,59.0,4,60,5.0,62.0
4334,65.0,0,60,5.0,78.0
4335,77.0,16,60,3.0,75.0
4336,53.0,0,0,7.0,88.0
4337,56.0,0,0,7.0,88.0
4338,50.0,0,120,8.0,88.0
4339,38.0,0,120,8.0,88.0
4340,59.0,120,0,7.0,88.0
4341,50.0,0,120,8.0,88.0
4342,38.0,0,120,8.0,88.0
4343,59.0,120,120,7.0,88.0
4344,56.0,0,120,7.0,88.0
4345,53.0,0,120,7.0,88.0
4346,50.0,0,120,8.0,88.0
4347,38.0,0,120,8.0,88.0
4348,80.0,28,540,3.0,89.0
4349,68.0,0,540,5.0,85.0
4350,79.0,0,60,3.0,88.0
4351,67.0,60,60,5.0,88.0
4352,78.0,60,60,3.0,88.0
4353,66.0,0,60,5.0,88.0
4354,79.0,60,60,3.0,88.0
4355,67.0,0,60,5.0,88.0
4356,55.0,0,240,7.0,88.0
4357,39.0,0,0,8.0,88.0
4358,51.0,120,240,8.0,88.0
4359,60.0,0,0,7.0,88.0
4360,65.0,0,60,5.0,88.0
4361,77.0,60,60,3.0,88.0
4362,75.0,60,60,3.0,88.0
4363,63.0,0,60,5.0,88.0
4364,74.0,0,60,3.0,88.0
4365,62.0,60,60,5.0,88.0
4366,51.0,0,240,8.0,88.0
4367,51.0,0,240,6.0,62.0
4368,72.0,60,60,3.0,88.0
4369,60.0,0,60,5.0,88.0
4370,67.0,0,240,4.0,62.0
4371,63.0,0,240,7.0,88.0
4372,55.0,0,240,7.0,88.0
4373,58.0,0,60,5.0,88.0
4374,62.0,0,60,4.0,62.0
4375,70.0,0,60,3.0,88.0
4376,65.0,0,60,4.0,62.0
4377,62.0,60,60,5.0,88.0
4378,74.0,0,60,3.0,88.0
4379,72.0,0,60,3.0,88.0
4380,60.0,0,60,5.0,88.0
4381,63.0,60,60,4.0,62.0
4382,58.0,0,240,7.0,88.0
4383,62.0,0,240,7.0,88.0
4384,41.0,0,0,8.0,88.0
4385,53.0,60,240,6.0,62.0
4386,53.0,0,0,8.0,88.0
4387,70.0,60,60,3.0,88.0
4388,58.0,0,60,5.0,88.0
4389,62.0,0,60,4.0,62.0
4390,57.0,0,60,5.0,88.0
4391,69.0,0,60,3.0,88.0
4392,60.0,0,60,4.0,62.0
4393,63.0,0,60,4.0,62.0
4394,60.0,60,60,5.0,88.0
4395,72.0,0,60,3.0,88.0
4396,62.0,0,60,4.0,62.0
4397,58.0,0,60,5.0,88.0
4398,70.0,60,60,3.0,85.0
4399,57.0,60,60,5.0,88.0
4400,60.0,60,240,7.0,88.0
4401,60.0,0,60,4.0,62.0
4402,41.0,0,240,6.0,62.0
4403,57.0,0,240,7.0,88.0
4404,69.0,0,60,3.0,82.0
4405,58.0,0,23,5.0,62.0
4406,53.0,60,23,5.0,62.0
4407,53.0,60,137,12.0,52.0
4408,65.0,0,137,10.0,51.0
4409,50.0,0,23,5.0,62.0
4410,53.0,60,23,5.0,62.0
4411,77.0,0,240,3.0,78.0
4412,58.0,0,137,12.0,55.0
4413,70.0,60,137,10.0,55.0
4414,65.0,0,137,11.0,49.0
4415,62.0,0,23,5.0,62.0
4416,65.0,0,300,4.0,62.0
4417,79.0,60,0,3.0,76.0
4418,53.0,0,23,5.0,62.0
4419,67.0,0,60,4.0,88.0
4420,62.0,0,137,12.0,58.0
4421,62.0,0,137,11.0,53.0
4422,74.0,0,137,10.0,59.0
4423,58.0,0,23,5.0,62.0
4424,81.0,60,60,3.0,81.0
4425,69.0,0,60,4.0,88.0
4426,70.0,0,23,4.0,88.0
4427,53.0,0,23,5.0,62.0
4428,82.0,60,23,3.0,87.0
4429,65.0,0,104,12.0,60.0
4430,77.0,0,104,10.0,63.0
4431,58.0,0,112,11.0,58.0
4432,46.0,0,240,6.0,62.0
4433,46.0,60,256,14.0,53.0
4434,58.0,0,256,13.0,53.0
4435,63.0,0,23,5.0,62.0
4436,82.0,0,60,3.0,90.0
4437,70.0,0,60,4.0,62.0
4438,53.0,0,23,5.0,62.0
4439,81.0,60,60,3.0,87.0
4440,69.0,0,60,4.0,62.0
4441,57.0,0,137,11.0,62.0
4442,57.0,0,23,5.0,62.0
4443,67.0,0,60,4.0,62.0
4444,79.0,60,60,3.0,84.0
4445,65.0,0,23,4.0,62.0
4446,77.0,0,23,3.0,81.0
4447,53.0,60,23,5.0,62.0
4448,48.0,0,240,6.0,62.0
4449,63.0,0,137,11.0,66.0
4450,48.0,0,23,5.0,62.0
4451,60.0,0,268,13.0,54.0
4452,48.0,0,268,14.0,54.0
4453,65.0,0,60,4.0,62.0
4454,77.0,0,60,3.0,78.0
4455,53.0,0,23,5.0,62.0
4456,75.0,0,60,3.0,75.0
4457,63.0,60,60,4.0,62.0
4458,60.0,60,137,11.0,62.0
4459,57.0,60,23,5.0,62.0
4460,74.0,0,60,3.0,72.0
4461,62.0,0,60,4.0,62.0
4462,60.0,0,23,4.0,62.0
4463,53.0,60,23,5.0,62.0
4464,72.0,0,23,3.0,69.0
4465,57.0,0,100,11.0,58.0
4466,41.0,0,240,14.0,55.0
4467,65.0,0,480,12.0,63.0
4468,77.0,60,480,10.0,67.0
4469,53.0,0,240,13.0,55.0
4470,41.0,0,240,6.0,62.0
4471,50.0,60,23,5.0,62.0
4472,53.0,60,23,5.0,62.0
4473,58.0,0,137,11.0,53.0
4474,65.0,0,137,10.0,48.0
4475,53.0,0,137,12.0,48.0
4476,58.0,60,23,5.0,62.0
4477,53.0,60,23,5.0,62.0
4478,65.0,0,137,11.0,51.0
4479,58.0,0,137,12.0,51.0
4480,70.0,0,137,10.0,52.0
4481,62.0,0,23,5.0,62.0
4482,77.0,0,300,3.0,66.0
4483,65.0,0,300,4.0,62.0
4484,53.0,0,23,5.0,62.0
4485,67.0,0,60,4.0,88.0
4486,79.0,60,60,3.0,71.0
4487,62.0,0,137,12.0,55.0
4488,62.0,60,137,11.0,55.0
4489,74.0,0,137,10.0,56.0
4490,58.0,60,23,5.0,62.0
4491,69.0,0,60,4.0,88.0
4492,81.0,0,60,3.0,77.0
4493,82.0,0,23,3.0,84.0
4494,53.0,0,23,5.0,62.0
4495,70.0,60,23,4.0,88.0
4496,77.0,0,92,10.0,60.0
4497,58.0,0,100,11.0,59.0
4498,65.0,0,100,12.0,59.0
4499,46.0,0,240,6.0,62.0
4500,63.0,0,23,5.0,62.0
4501,58.0,0,264,13.0,50.0
4502,46.0,0,264,14.0,50.0
4503,82.0,0,60,3.0,89.0
4504,70.0,0,60,4.0,62.0
4505,53.0,0,23,5.0,62.0
4506,81.0,60,60,3.0,87.0
4507,69.0,0,60,4.0,62.0
4508,57.0,60,137,11.0,63.0
4509,57.0,0,23,5.0,62.0
4510,79.0,0,60,3.0,85.0
4511,67.0,60,60,4.0,62.0
4512,53.0,60,23,5.0,62.0
4513,65.0,0,23,4.0,62.0
4514,77.0,0,23,3.0,83.0
4515,48.0,0,240,6.0,62.0
4516,63.0,0,137,11.0,62.0
4517,48.0,0,23,5.0,62.0
4518,60.0,0,268,13.0,48.0
4519,48.0,0,268,14.0,48.0
4520,77.0,0,60,3.0,81.0
4521,65.0,0,60,4.0,62.0
4522,53.0,0,23,5.0,62.0
4523,75.0,60,60,3.0,79.0
4524,63.0,0,60,4.0,62.0
4525,60.0,60,137,11.0,59.0
4526,57.0,0,23,5.0,62.0
4527,74.0,60,60,3.0,76.0
4528,62.0,0,60,4.0,62.0
4529,53.0,60,23,5.0,62.0
4530,72.0,0,23,3.0,74.0
4531,60.0,0,23,4.0,62.0
4532,53.0,0,224,13.0,47.0
4533,41.0,0,224,14.0,47.0
4534,57.0,0,104,11.0,56.0
4535,77.0,0,472,10.0,63.0
4536,41.0,0,240,6.0,62.0
4537,65.0,0,0,12.0,53.0
4538,65.0,0,23,5.0,62.0
4539,74.0,0,23,3.0,72.0
4540,58.0,0,96,13.0,45.0
4541,46.0,0,96,14.0,45.0
4542,58.0,0,96,11.0,52.0
4543,58.0,0,96,10.0,53.0
4544,82.0,60,60,3.0,70.0
4545,70.0,0,60,5.0,62.0
4546,81.0,60,60,3.0,68.0
4547,69.0,0,60,5.0,62.0
4548,82.0,0,23,3.0,66.0
4549,70.0,60,23,5.0,62.0
4550,46.0,0,240,6.0,62.0
4551,62.0,60,240,4.0,62.0
4552,80.0,0,60,3.0,74.0
4553,68.0,60,60,5.0,62.0
4554,79.0,0,60,3.0,72.0
4555,67.0,60,60,5.0,62.0
4556,80.0,60,23,3.0,69.0
4557,68.0,0,23,5.0,62.0
4558,62.0,0,240,7.0,62.0
4559,70.0,0,240,4.0,62.0
4560,65.0,60,240,6.0,62.0
4561,50.0,0,240,8.0,62.0
4562,79.0,60,60,3.0,76.0
4563,67.0,0,60,5.0,62.0
4564,78.0,60,60,3.0,72.0
4565,66.0,0,60,5.0,62.0
4566,79.0,60,23,3.0,68.0
4567,67.0,0,23,5.0,62.0
4568,63.0,60,240,7.0,62.0
4569,63.0,0,240,6.0,62.0
4570,51.0,0,240,8.0,62.0
4571,70.0,0,240,4.0,62.0
4572,65.0,60,60,5.0,62.0
4573,77.0,0,60,3.0,79.0
4574,64.0,60,60,5.0,62.0
4575,76.0,0,60,3.0,75.0
4576,65.0,0,23,5.0,62.0
4577,77.0,30,23,3.0,70.0
4578,49.0,0,240,8.0,62.0
4579,61.0,60,240,7.0,62.0
4580,58.0,0,240,6.0,62.0
4581,70.0,0,0,4.0,62.0
4582,77.0,20,5,3.0,77.0
4583,64.0,0,60,5.0,62.0
4584,76.0,0,5,3.0,77.0
4585,77.0,20,5,3.0,77.0
4586,76.0,20,5,3.0,77.0
4587,67.0,20,0,4.0,62.0
4588,67.0,20,60,5.0,62.0
4589,70.0,0,0,4.0,62.0
4590,77.0,0,5,3.0,73.0
4591,76.0,20,5,3.0,70.0
4592,77.0,20,5,3.0,70.0
4593,64.0,0,60,5.0,62.0
4594,76.0,20,5,3.0,67.0
4595,55.0,0,84,12.0,58.0
4596,58.0,0,84,11.0,56.0
4597,64.0,0,84,10.0,55.0
4598,77.0,20,5,3.0,67.0
4599,76.0,20,5,3.0,67.0
4600,67.0,20,0,4.0,62.0
4601,36.0,0,240,14.0,54.0
4602,48.0,30,240,8.0,66.0
4603,70.0,0,0,4.0,62.0
4604,60.0,0,60,5.0,62.0
4605,64.0,0,240,7.0,80.0
4606,60.0,30,270,7.0,76.0
4607,58.0,0,300,7.0,76.0
4608,55.0,30,330,7.0,71.0
4609,48.0,0,240,13.0,54.0
4610,77.0,0,5,3.0,67.0
4611,76.0,20,5,3.0,67.0
4612,77.0,20,5,3.0,67.0
4613,58.0,0,60,5.0,62.0
4614,76.0,0,5,3.0,69.0
4615,58.0,0,84,11.0,56.0
4616,64.0,0,84,10.0,55.0
4617,55.0,0,84,12.0,58.0
4618,77.0,20,5,3.0,69.0
4619,76.0,20,5,3.0,69.0
4620,67.0,20,0,4.0,62.0
4621,60.0,20,60,5.0,62.0
4622,77.0,0,5,3.0,69.0
4623,76.0,20,5,3.0,69.0
4624,77.0,20,5,3.0,69.0
4625,64.0,0,60,5.0,62.0
4626,76.0,0,5,3.0,69.0
4627,64.0,0,84,10.0,55.0
4628,55.0,0,84,12.0,58.0
4629,58.0,0,84,11.0,56.0
4630,77.0,20,5,3.0,69.0
4631,76.0,20,5,3.0,69.0
4632,67.0,20,60,5.0,62.0
4633,70.0,0,120,4.0,62.0
4634,77.0,0,5,3.0,69.0
4635,77.0,20,5,3.0,72.0
4636,65.0,20,60,5.0,62.0
4637,75.0,0,5,3.0,72.0
4638,77.0,20,5,3.0,72.0
4639,75.0,20,5,3.0,73.0
4640,69.0,20,60,5.0,62.0
4641,72.0,0,120,4.0,62.0
4642,69.0,0,120,4.0,62.0
4643,77.0,0,5,3.0,73.0
4644,75.0,20,5,3.0,73.0
4645,77.0,20,5,3.0,73.0
4646,65.0,0,60,5.0,62.0
4647,75.0,20,5,3.0,73.0
4648,63.0,0,84,10.0,55.0
4649,57.0,0,84,12.0,58.0
4650,60.0,20,84,11.0,56.0
4651,77.0,20,5,3.0,73.0
4652,75.0,20,5,3.0,73.0
4653,63.0,0,240,7.0,79.0
4654,41.0,0,240,14.0,54.0
4655,53.0,0,320,7.0,74.0
4656,60.0,0,280,7.0,76.0
4657,60.0,0,60,5.0,62.0
4658,41.0,0,240,8.0,67.0
4659,53.0,0,240,13.0,54.0
4660,69.0,0,120,4.0,62.0
4661,72.0,0,0,4.0,62.0
4662,77.0,20,5,3.0,71.0
4663,75.0,0,25,3.0,73.0
4664,77.0,0,5,3.0,71.0
4665,75.0,40,5,3.0,73.0
4666,57.0,0,60,5.0,62.0
4667,63.0,0,84,10.0,55.0
4668,57.0,0,84,12.0,58.0
4669,60.0,0,84,11.0,56.0
4670,77.0,20,5,3.0,71.0
4671,69.0,0,120,4.0,62.0
4672,60.0,20,60,5.0,62.0
4673,75.0,20,45,3.0,71.0
4674,65.0,0,60,5.0,62.0
4675,74.0,0,60,3.0,71.0
4676,75.0,0,23,3.0,71.0
4677,60.0,0,84,11.0,56.0
4678,57.0,0,84,12.0,58.0
4679,63.0,0,84,10.0,55.0
4680,72.0,0,120,4.0,62.0
4681,69.0,20,120,4.0,62.0
4682,69.0,20,60,5.0,62.0
4683,75.0,0,60,3.0,70.0
4684,58.0,0,96,11.0,50.0
4685,58.0,0,96,12.0,55.0
4686,70.0,40,96,5.0,62.0
4687,62.0,0,96,10.0,50.0
4688,77.0,60,60,3.0,80.0
4689,75.0,0,60,3.0,85.0
4690,53.0,40,320,7.0,72.0
4691,58.0,20,280,7.0,72.0
4692,62.0,0,240,7.0,74.0
4693,46.0,0,240,13.0,54.0
4694,65.0,60,120,6.0,62.0
4695,62.0,0,0,6.0,62.0
4696,70.0,0,240,4.0,62.0
4697,34.0,0,240,14.0,54.0
4698,46.0,0,240,8.0,69.0
4699,74.0,60,60,3.0,85.0
4700,72.0,0,60,3.0,85.0
4701,58.0,0,96,12.0,55.0
4702,65.0,60,96,10.0,50.0
4703,62.0,0,96,11.0,50.0
4704,70.0,60,60,3.0,81.0
4705,65.0,0,0,6.0,62.0
4706,69.0,60,60,3.0,78.0
4707,70.0,60,23,3.0,73.0
4708,62.0,0,120,6.0,62.0
4709,65.0,0,0,6.0,62.0
4710,72.0,20,5,3.0,76.0
4711,70.0,0,5,3.0,76.0
4712,72.0,20,5,3.0,76.0
4713,70.0,20,5,3.0,76.0
4714,77.0,20,60,5.0,82.0
4715,69.0,0,60,3.0,76.0
4716,75.0,0,60,5.0,89.0
4717,38.0,0,240,14.0,53.0
4718,74.0,60,60,5.0,95.0
4719,56.0,20,120,7.0,71.0
4720,50.0,60,240,4.0,62.0
4721,70.0,0,60,3.0,74.0
4722,68.0,0,240,6.0,62.0
4723,50.0,0,240,13.0,53.0
4724,53.0,0,0,7.0,62.0
4725,38.0,0,240,8.0,70.0
4726,72.0,60,60,5.0,95.0
4727,65.0,0,96,11.0,50.0
4728,68.0,0,96,10.0,52.0
4729,58.0,0,96,12.0,55.0
4730,70.0,60,60,5.0,90.0
4731,56.0,0,120,7.0,62.0
4732,53.0,0,0,7.0,62.0
4733,69.0,60,60,5.0,83.0
4734,70.0,60,23,5.0,79.0
4735,56.0,0,120,7.0,62.0
4736,72.0,20,5,5.0,81.0
4737,70.0,0,5,5.0,81.0
4738,72.0,20,5,5.0,81.0
4739,70.0,20,5,5.0,81.0
4740,79.0,20,60,3.0,72.0
4741,69.0,0,60,5.0,81.0
4742,77.0,0,60,3.0,77.0
4743,70.0,0,60,5.0,79.0
4744,39.0,60,240,14.0,53.0
4745,51.0,0,240,7.0,62.0
4746,55.0,0,240,7.0,62.0
4747,75.0,60,60,3.0,85.0
4748,51.0,0,240,4.0,62.0
4749,51.0,0,240,13.0,53.0
4750,67.0,20,120,6.0,62.0
4751,63.0,0,120,6.0,62.0
4752,39.0,0,240,8.0,71.0
4753,74.0,60,60,3.0,88.0
4754,58.0,0,96,12.0,54.0
4755,67.0,0,96,10.0,53.0
4756,63.0,0,96,11.0,51.0
4757,72.0,60,60,3.0,88.0
4758,63.0,0,120,6.0,62.0
4759,67.0,0,120,6.0,62.0
4760,71.0,0,60,3.0,87.0
4761,72.0,60,23,3.0,74.0
4762,63.0,60,120,6.0,62.0
4763,67.0,0,0,6.0,62.0
4764,74.0,20,5,3.0,74.0
4765,72.0,0,5,3.0,77.0
4766,74.0,20,5,3.0,77.0
4767,72.0,20,5,3.0,80.0
4768,79.0,20,60,5.0,70.0
4769,71.0,0,60,3.0,80.0
4770,77.0,0,60,5.0,71.0
4771,75.0,0,60,5.0,81.0
4772,39.0,0,240,8.0,73.0
4773,39.0,60,240,14.0,52.0
4774,51.0,0,240,4.0,62.0
4775,70.0,0,240,6.0,62.0
4776,72.0,60,60,3.0,73.0
4777,55.0,0,0,7.0,62.0
4778,58.0,0,0,7.0,62.0
4779,51.0,0,240,13.0,52.0
4780,74.0,60,60,5.0,84.0
4781,55.0,0,96,12.0,54.0
4782,58.0,0,96,11.0,52.0
4783,60.0,0,96,10.0,55.0
4784,55.0,0,0,7.0,62.0
4785,72.0,60,60,5.0,87.0
4786,58.0,0,0,7.0,62.0
4787,71.0,60,60,5.0,85.0
4788,72.0,60,60,5.0,81.0
4789,74.0,0,120,3.0,68.0
4790,70.0,60,120,5.0,76.0
4791,65.0,120,47,5.0,70.0
4792,70.0,0,47,3.0,68.0
4793,53.0,0,240,13.0,52.0
4794,41.0,0,240,4.0,62.0
4795,53.0,0,240,4.0,62.0
4796,41.0,0,240,14.0,52.0
4797,41.0,0,240,8.0,74.0
4798,53.0,0,240,12.0,54.0
4799,62.0,0,262,10.0,55.0
4800,58.0,0,262,11.0,52.0
4801,65.0,0,120,3.0,69.0
4802,62.0,0,120,5.0,71.0
4803,62.0,120,47,3.0,70.0
4804,58.0,0,47,5.0,72.0
4805,53.0,0,240,13.0,52.0
4806,41.0,0,0,14.0,51.0
4807,62.0,0,262,11.0,52.0
4808,65.0,0,262,10.0,56.0
4809,62.0,120,262,12.0,53.0
4810,65.0,0,120,5.0,73.0
4811,70.0,0,120,3.0,70.0
4812,65.0,120,47,3.0,71.0
4813,62.0,0,47,5.0,73.0
4814,41.0,0,240,8.0,76.0
4815,53.0,0,0,13.0,51.0
4816,58.0,0,262,12.0,53.0
4817,65.0,0,262,11.0,53.0
4818,70.0,0,262,10.0,57.0
4819,74.0,0,120,3.0,72.0
4820,70.0,0,120,5.0,74.0
4821,65.0,0,47,5.0,75.0
4822,70.0,120,47,3.0,72.0
4823,70.0,0,224,11.0,53.0
4824,53.0,0,228,12.0,53.0
4825,41.0,0,0,14.0,51.0
4826,74.0,120,240,10.0,58.0
4827,77.0,120,60,3.0,73.0
4828,74.0,0,60,4.0,62.0
4829,73.0,0,60,4.0,62.0
4830,76.0,60,60,3.0,73.0
4831,77.0,60,60,3.0,74.0
4832,74.0,0,60,4.0,62.0
4833,53.0,0,240,8.0,77.0
4834,65.0,0,240,6.0,62.0
4835,65.0,0,240,12.0,53.0
4836,74.0,0,240,11.0,53.0
4837,77.0,0,240,10.0,58.0
4838,53.0,0,240,13.0,51.0
4839,73.0,0,60,4.0,62.0
4840,76.0,60,60,3.0,74.0
4841,77.0,0,240,5.0,76.0
4842,77.0,0,60,3.0,74.0
4843,74.0,0,60,4.0,62.0
4844,73.0,0,60,4.0,62.0
4845,76.0,60,60,3.0,75.0
4846,77.0,0,60,3.0,75.0
4847,74.0,60,60,4.0,62.0
4848,76.0,0,60,3.0,75.0
4849,65.0,0,240,5.0,77.0
4850,70.0,0,240,10.0,53.0
4851,73.0,60,60,4.0,62.0
4852,62.0,60,240,11.0,54.0
4853,65.0,0,240,12.0,52.0
4854,74.0,0,120,4.0,62.0
4855,77.0,60,120,3.0,76.0
4856,41.0,0,240,14.0,51.0
4857,53.0,0,240,6.0,62.0
4858,75.0,120,120,4.0,62.0
4859,53.0,0,240,8.0,78.0
4860,65.0,0,0,5.0,81.0
4861,53.0,0,240,13.0,51.0
4862,79.0,0,120,3.0,76.0
4863,72.0,0,120,4.0,62.0
4864,81.0,0,120,3.0,77.0
4865,82.0,120,120,3.0,78.0
4866,74.0,0,120,4.0,62.0
4867,70.0,120,240,10.0,51.0
4868,62.0,0,240,11.0,54.0
4869,53.0,0,240,12.0,52.0
4870,82.0,120,30,4.0,62.0
4871,86.0,10,5,3.0,69.0
4872,63.0,0,60,5.0,82.0
4873,81.0,10,30,4.0,62.0
4874,84.0,0,5,3.0,71.0
4875,86.0,20,5,3.0,74.0
4876,82.0,0,30,4.0,62.0
4877,84.0,10,5,3.0,74.0
4878,81.0,10,30,4.0,62.0
4879,60.0,20,60,5.0,83.0
4880,86.0,0,5,3.0,76.0
4881,84.0,20,5,3.0,76.0
4882,82.0,0,30,4.0,62.0
4883,86.0,10,5,3.0,76.0
4884,62.0,20,60,5.0,83.0
4885,81.0,10,30,4.0,62.0
4886,84.0,20,5,3.0,76.0
4887,86.0,20,5,3.0,76.0
4888,82.0,0,30,4.0,62.0
4889,84.0,10,5,3.0,76.0
4890,41.0,0,240,14.0,58.0
4891,53.0,0,240,6.0,62.0
4892,41.0,0,240,8.0,80.0
4893,81.0,10,30,4.0,62.0
4894,53.0,0,240,13.0,58.0
4895,63.0,0,60,5.0,83.0
4896,86.0,0,5,3.0,80.0
4897,84.0,20,5,3.0,78.0
4898,82.0,0,30,4.0,62.0
4899,86.0,10,5,3.0,78.0
4900,69.0,0,60,5.0,84.0
4901,81.0,10,30,4.0,62.0
4902,84.0,20,5,3.0,78.0
4903,86.0,20,5,3.0,76.0
4904,82.0,0,30,4.0,62.0
4905,84.0,10,5,3.0,76.0
4906,65.0,0,60,5.0,84.0
4907,81.0,10,30,4.0,62.0
4908,86.0,20,5,3.0,76.0
4909,84.0,20,5,3.0,75.0
4910,82.0,0,30,4.0,62.0
4911,86.0,10,5,3.0,74.0
4912,81.0,10,30,4.0,62.0
4913,63.0,0,60,5.0,84.0
4914,84.0,0,5,3.0,74.0
4915,86.0,20,5,3.0,74.0
4916,82.0,20,30,4.0,62.0
4917,84.0,10,5,3.0,74.0
4918,69.0,20,240,10.0,60.0
4919,63.0,0,240,11.0,58.0
4920,65.0,0,60,5.0,85.0
4921,81.0,10,30,4.0,62.0
4922,53.0,0,240,12.0,58.0
4923,86.0,0,5,3.0,74.0
4924,84.0,20,5,3.0,72.0
4925,82.0,0,30,4.0,62.0
4926,75.0,0,40,0.0,76.0
4927,86.0,10,5,3.0,72.0
4928,81.0,10,30,4.0,62.0
4929,63.0,0,60,5.0,85.0
4930,84.0,20,5,3.0,74.0
4931,69.0,0,560,0.0,62.0
4932,86.0,20,5,3.0,74.0
4933,82.0,0,30,4.0,62.0
4934,84.0,10,5,3.0,74.0
4935,60.0,0,60,5.0,86.0
4936,81.0,10,30,4.0,62.0
4937,86.0,0,5,3.0,76.0
4938,84.0,20,5,3.0,76.0
4939,82.0,20,30,4.0,62.0
4940,86.0,10,5,3.0,76.0
4941,81.0,10,30,4.0,62.0
4942,63.0,0,60,5.0,86.0
4943,84.0,0,5,3.0,79.0
4944,86.0,20,5,3.0,79.0
4945,82.0,20,30,4.0,62.0
4946,84.0,10,5,3.0,81.0
4947,41.0,0,240,14.0,72.0
4948,81.0,10,30,4.0,62.0
4949,65.0,0,60,5.0,86.0
4950,53.0,0,240,6.0,62.0
4951,41.0,20,240,8.0,81.0
4952,53.0,0,240,13.0,72.0
4953,86.0,0,5,3.0,81.0
4954,84.0,20,5,3.0,81.0
4955,82.0,0,30,4.0,62.0
4956,86.0,10,5,3.0,81.0
4957,69.0,20,60,5.0,87.0
4958,81.0,10,30,4.0,62.0
4959,82.0,0,30,4.0,62.0
4960,65.0,20,60,5.0,87.0
4961,81.0,30,30,4.0,62.0
4962,84.0,0,45,3.0,84.0
4963,81.0,0,400,0.0,76.0
4964,63.0,30,60,5.0,88.0
4965,79.0,0,60,4.0,62.0
4966,82.0,0,90,3.0,84.0
4967,65.0,0,1898,2.0,62.0
4968,63.0,0,236,11.0,77.0
4969,65.0,0,60,5.0,88.0
4970,81.0,0,60,4.0,62.0
4971,53.0,0,240,12.0,73.0
4972,69.0,0,240,10.0,68.0
4973,84.0,60,90,3.0,87.0
4974,70.0,0,79,10.0,80.0
4975,62.0,0,79,11.0,81.0
4976,58.0,0,108,2.0,88.0
4977,65.0,0,108,2.0,88.0
4978,82.0,0,120,0.0,77.0
4979,58.0,0,0,12.0,88.0
4980,74.0,0,120,0.0,77.0
4981,63.0,60,79,11.0,87.0
4982,69.0,0,79,10.0,80.0
4983,62.0,0,79,11.0,87.0
4984,70.0,0,79,10.0,84.0
4985,58.0,0,108,2.0,88.0
4986,70.0,60,108,2.0,88.0
4987,62.0,0,120,0.0,79.0
4988,46.0,0,240,13.0,88.0
4989,65.0,0,120,0.0,79.0
4990,34.0,60,240,14.0,88.0
4991,58.0,0,0,12.0,88.0
4992,65.0,0,120,12.0,88.0
4993,60.0,60,79,11.0,83.0
4994,72.0,0,79,10.0,84.0
4995,58.0,60,79,11.0,79.0
4996,74.0,0,79,10.0,84.0
4997,58.0,0,108,2.0,88.0
4998,70.0,0,108,2.0,88.0
4999,65.0,0,0,12.0,88.0
5000,58.0,0,0,12.0,88.0
5001,65.0,0,0,0.0,81.0
5002,62.0,0,120,0.0,81.0
5003,60.0,0,79,11.0,77.0
5004,75.0,60,79,10.0,83.0
5005,62.0,0,79,11.0,81.0
5006,77.0,0,79,10.0,83.0
5007,58.0,60,23,11.0,88.0
5008,74.0,0,23,10.0,82.0
5009,70.0,60,108,2.0,88.0
5010,58.0,0,108,2.0,88.0
5011,70.0,0,480,5.0,88.0
5012,65.0,0,480,5.0,88.0
5013,62.0,0,0,0.0,78.0
5014,46.0,0,480,6.0,62.0
5015,62.0,0,480,5.0,88.0
5016,82.0,0,480,3.0,92.0
5017,82.0,60,143,10.0,78.0
5018,62.0,0,143,11.0,84.0
5019,70.0,0,240,2.0,88.0
5020,58.0,0,240,2.0,88.0
5021,70.0,0,240,0.0,78.0
5022,81.0,120,143,10.0,72.0
5023,65.0,0,143,11.0,82.0
5024,79.0,0,143,10.0,75.0
5025,63.0,120,143,11.0,80.0
5026,78.0,120,47,10.0,78.0
5027,62.0,0,47,11.0,79.0
5028,58.0,0,512,13.0,88.0
5029,46.0,0,512,14.0,88.0
5030,78.0,0,120,10.0,80.0
5031,62.0,0,132,11.0,77.0
5032,79.0,0,47,10.0,84.0
5033,63.0,120,47,11.0,76.0
5034,63.0,0,47,11.0,77.0
5035,79.0,120,47,10.0,80.0
5036,63.0,120,47,11.0,78.0
5037,79.0,0,47,10.0,76.0
5038,51.0,120,464,14.0,88.0
5039,63.0,0,464,13.0,88.0
5040,58.0,0,960,12.0,88.0
5041,79.0,0,143,10.0,60.0
5042,63.0,120,143,11.0,69.0
5043,77.0,0,143,10.0,63.0
5044,62.0,120,143,11.0,62.0
5045,71.0,0,156,0.0,62.0
5046,74.0,0,156,0.0,62.0
5047,74.0,0,23,0.0,62.0
5048,60.0,120,143,11.0,62.0
5049,75.0,0,143,10.0,67.0
5050,72.0,0,156,0.0,62.0
5051,75.0,0,156,0.0,62.0
5052,59.0,120,47,11.0,62.0
5053,74.0,0,47,10.0,70.0
5054,77.0,0,47,0.0,62.0
5055,43.0,0,500,14.0,62.0
5056,55.0,0,500,13.0,62.0
5057,74.0,0,120,10.0,73.0
5058,59.0,0,120,11.0,62.0
5059,72.0,0,23,0.0,62.0
5060,74.0,0,156,0.0,62.0
5061,77.0,120,156,0.0,62.0
5062,75.0,0,47,10.0,75.0
5063,75.0,0,47,0.0,62.0
5064,60.0,120,47,11.0,62.0
5065,72.0,0,47,0.0,62.0
5066,75.0,0,47,10.0,71.0
5067,60.0,120,47,11.0,62.0
5068,75.0,0,96,0.0,62.0
5069,75.0,120,47,10.0,68.0
5070,60.0,0,47,11.0,62.0
5071,60.0,0,460,13.0,62.0
5072,48.0,0,460,14.0,62.0
5073,55.0,0,960,12.0,62.0
5074,36.0,0,143,14.0,69.0
5075,48.0,120,143,13.0,69.0
5076,67.0,0,143,12.0,69.0
5077,75.0,0,143,10.0,72.0
5078,63.0,0,143,11.0,75.0
5079,50.0,0,143,13.0,72.0
5080,65.0,120,143,11.0,77.0
5081,38.0,0,143,14.0,72.0
5082,65.0,0,143,12.0,72.0
5083,74.0,0,143,10.0,75.0
5084,63.0,0,143,12.0,75.0
5085,72.0,0,143,10.0,79.0
5086,67.0,0,143,11.0,78.0
5087,39.0,120,143,14.0,76.0
5088,51.0,0,143,13.0,76.0
5089,68.0,0,47,11.0,80.0
5090,41.0,120,47,14.0,79.0
5091,53.0,0,47,13.0,79.0
5092,62.0,0,47,12.0,78.0
5093,71.0,0,96,10.0,82.0
5094,71.0,0,79,10.0,84.0
5095,72.0,60,79,10.0,83.0
5096,75.0,60,79,10.0,82.0
5097,74.0,60,23,10.0,80.0
5098,67.0,0,240,11.0,81.0
5099,39.0,60,0,14.0,81.0
5100,63.0,0,0,12.0,85.0
5101,51.0,0,0,13.0,81.0
5102,71.0,0,79,10.0,79.0
5103,72.0,60,79,10.0,78.0
5104,78.0,60,79,10.0,77.0
5105,79.0,60,23,10.0,75.0
5106,67.0,0,0,11.0,76.0
5107,51.0,60,0,13.0,80.0
5108,74.0,0,79,10.0,74.0
5109,75.0,60,79,10.0,75.0
5110,81.0,60,79,10.0,76.0
5111,82.0,60,23,10.0,77.0
5112,67.0,0,720,0.0,88.0
5113,39.0,0,240,14.0,80.0
5114,63.0,0,0,12.0,80.0
5115,79.0,0,720,0.0,88.0
5116,77.0,0,79,10.0,79.0
5117,79.0,60,24,10.0,80.0
5118,75.0,60,79,10.0,81.0
5119,72.0,60,23,10.0,82.0
5120,75.0,0,240,0.0,88.0
5121,67.0,0,240,11.0,74.0
5122,39.0,0,240,14.0,80.0
5123,51.0,0,240,13.0,80.0
5124,72.0,60,240,0.0,88.0
5125,65.0,0,480,12.0,77.0
5126,41.0,0,480,14.0,70.0
5127,74.0,0,480,0.0,88.0
5128,70.0,0,480,0.0,88.0
5129,65.0,0,480,2.0,88.0
5130,62.0,0,480,11.0,71.0
5131,53.0,0,480,13.0,70.0
5132,65.0,0,480,10.0,78.0
5133,74.0,0,480,10.0,78.0
5134,70.0,0,480,11.0,71.0
5135,41.0,0,960,4.0,88.0
5136,86.0,0,960,3.0,88.0
5137,53.0,0,960,6.0,88.0
5138,77.0,60,960,7.0,88.0
5139,82.0,0,960,5.0,88.0
5140,53.0,0,960,4.0,88.0
5141,41.0,0,960,6.0,88.0
5142,77.0,1980,60,3.0,88.0
5143,76.0,60,60,3.0,88.0
5144,77.0,60,60,3.0,88.0
5145,79.0,60,60,3.0,88.0
5146,81.0,60,60,3.0,88.0
5147,82.0,60,60,3.0,88.0
5148,79.0,60,60,3.0,88.0
5149,77.0,60,60,3.0,88.0
5150,75.0,60,60,3.0,88.0
5151,74.0,60,60,3.0,75.0
5152,75.0,60,60,3.0,75.0
5153,74.0,60,60,3.0,75.0
5154,75.0,60,60,3.0,75.0
5155,77.0,60,60,3.0,75.0
5156,75.0,60,60,3.0,75.0
5157,74.0,60,60,3.0,75.0
5158,77.0,0,60,5.0,88.0
5159,74.0,60,60,3.0,88.0
5160,76.0,0,60,5.0,88.0
5161,73.0,60,60,3.0,88.0
5162,74.0,60,60,3.0,88.0
5163,77.0,0,60,5.0,88.0
5164,79.0,60,60,5.0,88.0
5165,75.0,0,60,3.0,88.0
5166,77.0,0,60,3.0,88.0
5167,81.0,60,60,5.0,88.0
5168,79.0,60,60,3.0,88.0
5169,82.0,0,60,5.0,88.0
5170,75.0,60,60,3.0,88.0
5171,79.0,0,60,5.0,88.0
5172,74.0,60,60,3.0,88.0
5173,77.0,0,60,5.0,88.0
5174,75.0,0,60,5.0,88.0
5175,72.0,60,60,3.0,88.0
5176,71.0,0,60,3.0,75.0
5177,74.0,60,60,5.0,75.0
5178,75.0,60,60,5.0,75.0
5179,72.0,0,60,3.0,75.0
5180,71.0,60,60,3.0,75.0
5181,74.0,0,60,5.0,75.0
5182,75.0,0,60,5.0,75.0
5183,72.0,60,60,3.0,75.0
5184,77.0,60,60,5.0,75.0
5185,74.0,0,60,3.0,75.0
5186,72.0,60,60,3.0,75.0
5187,75.0,0,60,5.0,75.0
5188,70.0,0,23,3.0,88.0
5189,86.0,60,23,3.0,88.0
5190,70.0,0,23,4.0,88.0
5191,58.0,0,120,8.0,88.0
5192,74.0,60,120,5.0,88.0
5193,74.0,0,23,4.0,88.0
5194,89.0,0,23,3.0,88.0
5195,82.0,0,60,5.0,88.0
5196,72.0,0,23,4.0,88.0
5197,87.0,0,23,3.0,88.0
5198,58.0,0,240,6.0,88.0
5199,77.0,60,60,5.0,88.0
5200,62.0,60,120,8.0,88.0
5201,86.0,0,23,3.0,88.0
5202,70.0,0,23,4.0,88.0
5203,72.0,0,23,4.0,88.0
5204,87.0,60,23,3.0,88.0
5205,77.0,0,96,5.0,88.0
5206,74.0,0,120,7.0,88.0
5207,65.0,60,120,8.0,88.0
5208,74.0,0,23,4.0,88.0
5209,89.0,0,23,3.0,88.0
5210,82.0,0,60,7.0,88.0
5211,89.0,0,23,3.0,88.0
5212,74.0,60,23,4.0,88.0
5213,62.0,60,120,8.0,88.0
5214,77.0,0,60,7.0,88.0
5215,86.0,60,23,3.0,88.0
5216,70.0,0,23,4.0,88.0
5217,77.0,0,96,7.0,88.0
5218,58.0,60,120,8.0,88.0
5219,74.0,0,23,4.0,88.0
5220,89.0,0,23,3.0,88.0
5221,72.0,0,23,4.0,88.0
5222,87.0,60,23,3.0,88.0
5223,62.0,60,120,8.0,88.0
5224,58.0,0,240,6.0,88.0
5225,70.0,0,23,4.0,88.0
5226,86.0,0,23,3.0,88.0
5227,65.0,0,60,5.0,88.0
5228,72.0,0,23,4.0,88.0
5229,87.0,60,23,3.0,88.0
5230,69.0,0,60,5.0,88.0
5231,65.0,60,120,8.0,88.0
5232,89.0,0,23,3.0,88.0
5233,74.0,0,23,4.0,88.0
5234,70.0,60,60,5.0,88.0
5235,74.0,60,23,4.0,88.0
5236,89.0,0,23,3.0,88.0
5237,62.0,0,120,8.0,88.0
5238,74.0,0,60,5.0,88.0
5239,87.0,0,23,3.0,75.0
5240,72.0,0,23,4.0,75.0
5241,74.0,0,23,4.0,75.0
5242,89.0,60,23,3.0,75.0
5243,53.0,0,120,8.0,75.0
5244,77.0,60,120,5.0,75.0
5245,87.0,60,23,3.0,75.0
5246,72.0,0,23,4.0,75.0
5247,86.0,0,23,3.0,75.0
5248,70.0,60,23,4.0,75.0
5249,60.0,0,120,8.0,75.0
5250,53.0,0,240,6.0,75.0
5251,69.0,0,120,5.0,75.0
5252,84.0,0,23,3.0,75.0
5253,69.0,60,23,4.0,75.0
5254,70.0,60,23,4.0,75.0
5255,86.0,0,23,3.0,75.0
5256,69.0,0,96,5.0,75.0
5257,77.0,0,120,7.0,75.0
5258,63.0,0,120,8.0,75.0
5259,84.0,0,23,3.0,75.0
5260,69.0,0,23,4.0,75.0
5261,67.0,0,23,4.0,75.0
5262,82.0,60,23,3.0,75.0
5263,69.0,0,0,7.0,75.0
5264,60.0,0,120,8.0,75.0
5265,81.0,0,23,3.0,75.0
5266,65.0,60,23,4.0,75.0
5267,67.0,60,23,4.0,75.0
5268,82.0,0,23,3.0,75.0
5269,53.0,0,120,8.0,75.0
5270,65.0,0,23,4.0,75.0
5271,81.0,0,23,3.0,75.0
5272,79.0,0,23,3.0,75.0
5273,63.0,60,23,4.0,75.0
5274,60.0,60,120,8.0,75.0
5275,53.0,0,240,6.0,75.0
5276,62.0,0,23,4.0,75.0
5277,77.0,0,23,3.0,75.0
5278,79.0,60,23,3.0,75.0
5279,63.0,0,23,4.0,75.0
5280,63.0,60,120,8.0,75.0
5281,62.0,0,23,4.0,75.0
5282,77.0,60,23,3.0,75.0
5283,60.0,60,23,4.0,75.0
5284,75.0,0,23,3.0,75.0
5285,60.0,0,120,8.0,75.0
5286,69.0,0,240,5.0,75.0
5287,46.0,60,23,6.0,88.0
5288,70.0,0,23,5.0,88.0
5289,70.0,60,23,6.0,88.0
5290,86.0,0,23,5.0,88.0
5291,74.0,0,120,3.0,88.0
5292,58.0,0,120,8.0,88.0
5293,74.0,60,23,6.0,88.0
5294,89.0,0,23,5.0,88.0
5295,82.0,0,60,3.0,88.0
5296,72.0,0,23,6.0,88.0
5297,87.0,0,23,5.0,88.0
5298,58.0,0,240,4.0,88.0
5299,62.0,0,120,8.0,88.0
5300,77.0,60,0,3.0,88.0
5301,86.0,0,23,5.0,88.0
5302,70.0,0,23,6.0,88.0
5303,87.0,60,23,5.0,88.0
5304,72.0,0,23,6.0,88.0
5305,65.0,0,120,8.0,88.0
5306,74.0,0,120,7.0,88.0
5307,89.0,0,23,5.0,88.0
5308,74.0,0,23,6.0,88.0
5309,82.0,0,60,7.0,88.0
5310,89.0,0,23,5.0,88.0
5311,74.0,60,23,6.0,88.0
5312,62.0,60,120,8.0,88.0
5313,77.0,0,60,7.0,88.0
5314,86.0,60,23,5.0,88.0
5315,70.0,0,23,6.0,88.0
5316,77.0,0,96,7.0,88.0
5317,58.0,0,120,8.0,88.0
5318,74.0,0,23,6.0,88.0
5319,89.0,0,23,5.0,88.0
5320,72.0,0,23,6.0,88.0
5321,87.0,60,23,5.0,88.0
5322,62.0,60,120,8.0,88.0
5323,58.0,60,240,4.0,88.0
5324,86.0,0,23,5.0,88.0
5325,70.0,60,23,6.0,88.0
5326,77.0,0,60,3.0,88.0
5327,87.0,0,23,5.0,88.0
5328,72.0,0,23,6.0,88.0
5329,81.0,60,60,3.0,88.0
5330,65.0,0,120,8.0,88.0
5331,74.0,0,23,6.0,88.0
5332,89.0,0,23,5.0,88.0
5333,82.0,60,60,3.0,88.0
5334,74.0,60,23,6.0,88.0
5335,89.0,0,23,5.0,88.0
5336,62.0,0,120,8.0,88.0
5337,86.0,0,60,3.0,88.0
5338,72.0,0,23,6.0,88.0
5339,87.0,0,23,5.0,88.0
5340,89.0,0,23,5.0,88.0
5341,74.0,60,23,6.0,88.0
5342,53.0,60,120,8.0,88.0
5343,89.0,0,120,3.0,88.0
5344,87.0,60,23,5.0,88.0
5345,72.0,0,23,6.0,88.0
5346,86.0,60,23,5.0,88.0
5347,70.0,0,23,6.0,88.0
5348,81.0,60,0,3.0,88.0
5349,53.0,0,240,4.0,88.0
5350,60.0,0,120,8.0,88.0
5351,69.0,0,23,6.0,88.0
5352,84.0,0,23,5.0,88.0
5353,86.0,0,23,5.0,88.0
5354,70.0,60,23,6.0,88.0
5355,63.0,0,120,8.0,88.0
5356,89.0,0,120,7.0,88.0
5357,69.0,60,23,6.0,88.0
5358,84.0,0,23,5.0,88.0
5359,67.0,0,23,6.0,88.0
5360,82.0,60,23,5.0,88.0
5361,81.0,60,0,7.0,88.0
5362,60.0,0,120,8.0,88.0
5363,65.0,0,23,6.0,88.0
5364,81.0,0,23,5.0,88.0
5365,67.0,60,23,6.0,88.0
5366,82.0,0,23,5.0,88.0
5367,53.0,0,120,8.0,88.0
5368,65.0,60,23,6.0,88.0
5369,81.0,0,23,5.0,88.0
5370,81.0,0,47,3.0,88.0
5371,79.0,0,23,5.0,88.0
5372,63.0,60,23,6.0,88.0
5373,53.0,0,240,4.0,88.0
5374,60.0,0,120,8.0,88.0
5375,62.0,0,23,6.0,88.0
5376,77.0,60,23,5.0,88.0
5377,81.0,0,47,3.0,88.0
5378,63.0,0,23,6.0,88.0
5379,79.0,60,23,5.0,88.0
5380,63.0,0,120,8.0,88.0
5381,77.0,0,23,5.0,88.0
5382,62.0,60,23,6.0,88.0
5383,81.0,0,47,3.0,88.0
5384,75.0,60,23,5.0,88.0
5385,60.0,0,23,6.0,88.0
5386,60.0,0,120,8.0,88.0
5387,74.0,0,23,5.0,88.0
5388,58.0,0,96,6.0,88.0
5389,82.0,0,96,7.0,88.0
5390,58.0,0,96,8.0,88.0
5391,82.0,60,60,3.0,88.0
5392,70.0,0,60,5.0,88.0
5393,81.0,60,60,3.0,75.0
5394,69.0,0,60,5.0,72.0
5395,58.0,60,240,4.0,88.0
5396,70.0,0,60,5.0,78.0
5397,82.0,60,60,3.0,78.0
5398,68.0,60,60,5.0,88.0
5399,80.0,0,60,3.0,88.0
5400,67.0,60,60,5.0,73.0
5401,79.0,0,60,3.0,74.0
5402,65.0,0,240,6.0,88.0
5403,80.0,60,60,3.0,79.0
5404,62.0,0,240,7.0,88.0
5405,50.0,0,240,8.0,88.0
5406,70.0,0,0,4.0,88.0
5407,68.0,0,60,5.0,77.0
5408,79.0,0,60,3.0,88.0
5409,67.0,60,60,5.0,88.0
5410,78.0,0,60,3.0,75.0
5411,66.0,60,60,5.0,73.0
5412,79.0,60,60,3.0,78.0
5413,51.0,0,240,8.0,88.0
5414,70.0,0,0,4.0,88.0
5415,63.0,60,240,6.0,88.0
5416,67.0,0,60,5.0,76.0
5417,63.0,0,240,7.0,76.0
5418,77.0,60,60,3.0,88.0
5419,65.0,0,60,5.0,88.0
5420,76.0,60,60,3.0,73.0
5421,64.0,0,60,5.0,74.0
5422,58.0,0,240,6.0,88.0
5423,65.0,60,60,5.0,77.0
5424,61.0,0,240,7.0,76.0
5425,70.0,0,0,4.0,88.0
5426,77.0,0,60,3.0,79.0
5427,49.0,60,240,8.0,88.0
5428,77.0,20,5,3.0,74.0
5429,64.0,0,60,5.0,88.0
5430,76.0,20,5,3.0,76.0
5431,77.0,20,5,3.0,76.0
5432,76.0,20,5,3.0,78.0
5433,67.0,0,0,4.0,88.0
5434,70.0,0,0,4.0,88.0
5435,67.0,0,60,5.0,88.0
5436,77.0,20,5,3.0,79.0
5437,76.0,20,5,3.0,79.0
5438,77.0,20,5,3.0,80.0
5439,64.0,0,60,5.0,88.0
5440,76.0,0,5,3.0,82.0
5441,77.0,20,5,3.0,82.0
5442,76.0,20,5,3.0,85.0
5443,60.0,0,240,6.0,88.0
5444,55.0,0,240,6.0,88.0
5445,58.0,0,240,7.0,76.0
5446,60.0,20,60,5.0,88.0
5447,55.0,0,240,7.0,76.0
5448,60.0,0,240,7.0,76.0
5449,64.0,60,240,7.0,76.0
5450,48.0,0,240,8.0,88.0
5451,70.0,0,0,4.0,88.0
5452,77.0,0,5,3.0,85.0
5453,76.0,20,5,3.0,85.0
5454,77.0,20,5,3.0,85.0
5455,58.0,0,60,5.0,88.0
5456,76.0,0,5,3.0,85.0
5457,77.0,20,5,3.0,85.0
5458,76.0,20,5,3.0,85.0
5459,67.0,0,0,4.0,88.0
5460,60.0,20,60,5.0,88.0
5461,77.0,20,5,3.0,85.0
5462,76.0,20,5,3.0,85.0
5463,77.0,20,5,3.0,85.0
5464,64.0,0,60,5.0,88.0
5465,76.0,0,5,3.0,85.0
5466,77.0,20,5,3.0,85.0
5467,76.0,20,5,3.0,85.0
5468,67.0,20,60,5.0,88.0
5469,70.0,0,120,4.0,88.0
5470,77.0,0,5,3.0,83.0
5471,77.0,20,5,3.0,83.0
5472,65.0,0,60,5.0,88.0
5473,75.0,0,5,3.0,83.0
5474,77.0,20,5,3.0,80.0
5475,75.0,20,5,3.0,80.0
5476,72.0,0,120,4.0,88.0
5477,69.0,20,0,4.0,88.0
5478,69.0,20,60,5.0,88.0
5479,77.0,0,5,3.0,80.0
5480,75.0,20,5,3.0,78.0
5481,77.0,20,5,3.0,78.0
5482,65.0,0,60,5.0,88.0
5483,75.0,0,5,3.0,78.0
5484,77.0,20,5,3.0,78.0
5485,75.0,20,5,3.0,78.0
5486,60.0,0,240,6.0,88.0
5487,63.0,0,240,7.0,76.0
5488,53.0,0,240,7.0,76.0
5489,57.0,0,240,7.0,76.0
5490,60.0,0,240,7.0,76.0
5491,53.0,0,240,6.0,88.0
5492,60.0,20,60,5.0,88.0
5493,72.0,0,120,4.0,88.0
5494,41.0,20,240,8.0,88.0
5495,77.0,20,5,3.0,75.0
5496,75.0,20,5,3.0,75.0
5497,77.0,20,5,3.0,75.0
5498,57.0,0,60,5.0,88.0
5499,75.0,0,5,3.0,75.0
5500,75.0,30,15,3.0,75.0
5501,69.0,0,0,4.0,88.0
5502,72.0,30,0,4.0,88.0
5503,60.0,20,60,5.0,88.0
5504,65.0,0,60,5.0,88.0
5505,74.0,0,90,3.0,75.0
5506,69.0,60,60,5.0,88.0
5507,75.0,0,90,3.0,86.0
5508,70.0,0,47,4.0,88.0
5509,74.0,60,71,3.0,77.0
5510,82.0,0,120,3.0,68.0
5511,58.0,0,240,6.0,88.0
5512,62.0,0,240,7.0,76.0
5513,46.0,0,240,8.0,88.0
5514,70.0,120,120,4.0,75.0
5515,70.0,0,240,5.0,88.0
5516,58.0,0,240,7.0,76.0
5517,53.0,0,240,7.0,76.0
5518,81.0,120,120,3.0,76.0
5519,69.0,0,120,4.0,75.0
5520,80.0,120,120,3.0,74.0
5521,68.0,0,120,4.0,75.0
5522,79.0,120,120,3.0,72.0
5523,67.0,0,120,4.0,75.0
5524,66.0,120,120,4.0,75.0
5525,78.0,0,120,3.0,70.0
5526,65.0,120,120,4.0,75.0
5527,77.0,0,120,3.0,68.0
5528,64.0,120,120,4.0,75.0
5529,76.0,0,120,3.0,66.0
5530,50.0,0,60,5.0,72.0
5531,53.0,60,60,5.0,75.0
5532,58.0,60,60,5.0,78.0
5533,53.0,60,60,5.0,81.0
5534,65.0,0,300,4.0,75.0
5535,77.0,120,300,3.0,71.0
5536,62.0,0,60,5.0,84.0
5537,67.0,60,60,4.0,88.0
5538,53.0,0,60,5.0,86.0
5539,79.0,0,60,3.0,66.0
5540,58.0,60,60,5.0,89.0
5541,69.0,0,60,4.0,88.0
5542,81.0,0,60,3.0,72.0
5543,82.0,0,60,3.0,78.0
5544,74.0,0,240,7.0,68.0
5545,70.0,60,240,7.0,68.0
5546,70.0,0,0,4.0,75.0
5547,53.0,60,60,5.0,92.0
5548,58.0,0,240,8.0,88.0
5549,46.0,0,240,6.0,88.0
5550,82.0,60,60,3.0,94.0
5551,63.0,0,60,5.0,95.0
5552,53.0,0,60,5.0,93.0
5553,81.0,60,60,3.0,94.0
5554,69.0,0,60,4.0,75.0
5555,79.0,0,60,3.0,94.0
5556,67.0,0,60,4.0,75.0
5557,57.0,60,60,5.0,91.0
5558,53.0,0,60,5.0,88.0
5559,75.0,0,240,7.0,75.0
5560,69.0,0,240,7.0,75.0
5561,77.0,0,0,3.0,85.0
5562,60.0,0,240,8.0,75.0
5563,65.0,0,0,4.0,75.0
5564,48.0,0,240,6.0,75.0
5565,48.0,60,60,5.0,86.0
5566,75.0,60,60,3.0,82.0
5567,53.0,0,60,5.0,84.0
5568,63.0,0,60,4.0,75.0
5569,62.0,0,60,4.0,75.0
5570,57.0,0,60,5.0,82.0
5571,74.0,60,60,3.0,80.0
5572,41.0,0,240,6.0,75.0
5573,53.0,0,240,8.0,75.0
5574,60.0,60,60,4.0,75.0
5575,53.0,0,60,5.0,79.0
5576,72.0,0,60,3.0,77.0
5577,50.0,0,60,5.0,77.0
5578,53.0,60,60,5.0,77.0
5579,58.0,60,60,5.0,80.0
5580,53.0,60,60,5.0,83.0
5581,65.0,60,300,4.0,75.0
5582,77.0,0,300,3.0,75.0
5583,62.0,0,60,5.0,85.0
5584,67.0,0,60,4.0,88.0
5585,53.0,60,60,5.0,88.0
5586,79.0,0,60,3.0,79.0
5587,58.0,0,60,5.0,90.0
5588,81.0,0,60,3.0,82.0
5589,69.0,60,60,4.0,88.0
5590,58.0,60,240,8.0,88.0
5591,53.0,60,60,5.0,93.0
5592,46.0,0,240,6.0,88.0
5593,82.0,0,60,3.0,85.0
5594,70.0,0,0,4.0,75.0
5595,86.0,0,240,7.0,76.0
5596,82.0,0,240,7.0,76.0
5597,82.0,0,60,3.0,97.0
5598,63.0,60,60,5.0,93.0
5599,69.0,0,60,4.0,75.0
5600,53.0,0,60,5.0,91.0
5601,81.0,60,60,3.0,90.0
5602,67.0,60,60,4.0,75.0
5603,57.0,0,60,5.0,89.0
5604,79.0,0,60,3.0,85.0
5605,77.0,0,60,3.0,83.0
5606,53.0,0,60,5.0,87.0
5607,87.0,0,240,7.0,75.0
5608,48.0,0,240,6.0,75.0
5609,60.0,0,240,8.0,75.0
5610,65.0,60,60,4.0,75.0
5611,81.0,0,240,7.0,75.0
5612,48.0,0,60,5.0,85.0
5613,77.0,60,60,3.0,81.0
5614,65.0,0,60,4.0,75.0
5615,75.0,0,60,3.0,78.0
5616,63.0,0,60,4.0,75.0
5617,53.0,60,60,5.0,83.0
5618,57.0,0,60,5.0,82.0
5619,62.0,0,60,4.0,75.0
5620,74.0,60,60,3.0,76.0
5621,41.0,0,240,6.0,75.0
5622,60.0,0,60,4.0,75.0
5623,72.0,0,60,3.0,74.0
5624,53.0,60,60,5.0,80.0
5625,53.0,0,240,8.0,75.0
5626,59.0,0,120,4.0,75.0
5627,71.0,60,120,3.0,62.0
5628,60.0,0,120,4.0,75.0
5629,72.0,0,120,3.0,75.0
5630,63.0,120,0,5.0,75.0
5631,51.0,0,120,6.0,75.0
5632,67.0,0,0,5.0,75.0
5633,72.0,0,0,5.0,75.0
5634,51.0,0,120,6.0,75.0
5635,67.0,0,0,5.0,75.0
5636,51.0,0,120,6.0,75.0
5637,63.0,0,120,5.0,75.0
5638,72.0,120,120,5.0,75.0
5639,62.0,120,120,4.0,75.0
5640,74.0,0,120,3.0,67.0
5641,63.0,0,120,4.0,75.0
5642,72.0,0,120,5.0,75.0
5643,75.0,0,120,3.0,75.0
5644,51.0,0,120,6.0,75.0
5645,63.0,120,120,5.0,75.0
5646,67.0,120,0,5.0,75.0
5647,72.0,0,120,5.0,75.0
5648,63.0,0,120,5.0,75.0
5649,51.0,0,0,6.0,75.0
5650,72.0,0,120,5.0,75.0
5651,67.0,0,120,5.0,75.0
5652,63.0,120,120,5.0,75.0
5653,78.0,0,120,3.0,75.0
5654,66.0,120,120,4.0,88.0
5655,67.0,0,120,4.0,88.0
5656,51.0,0,120,6.0,88.0
5657,63.0,120,120,5.0,88.0
5658,72.0,0,120,5.0,88.0
5659,79.0,0,120,3.0,88.0
5660,67.0,0,120,5.0,88.0
5661,83.0,120,120,3.0,77.0
5662,71.0,0,120,4.0,88.0
5663,67.0,0,120,5.0,88.0
5664,72.0,0,120,5.0,88.0
5665,84.0,120,120,3.0,88.0
5666,72.0,0,120,4.0,88.0
5667,51.0,0,120,6.0,88.0
5668,63.0,0,120,5.0,88.0
5669,74.0,0,120,4.0,88.0
5670,86.0,120,120,3.0,77.0
5671,51.0,120,120,6.0,88.0
5672,87.0,0,120,3.0,88.0
5673,72.0,0,120,5.0,88.0
5674,67.0,0,120,5.0,88.0
5675,63.0,0,120,5.0,88.0
5676,75.0,0,120,4.0,88.0
5677,67.0,0,120,5.0,88.0
5678,63.0,120,120,5.0,88.0
5679,51.0,0,120,6.0,88.0
5680,72.0,0,0,5.0,88.0
5681,51.0,0,120,6.0,88.0
5682,63.0,120,120,5.0,88.0
5683,72.0,0,120,4.0,88.0
5684,67.0,0,120,5.0,88.0
5685,84.0,0,120,3.0,75.0
5686,77.0,0,240,4.0,88.0
5687,53.0,120,240,6.0,88.0
5688,69.0,0,240,5.0,91.0
5689,89.0,0,240,3.0,88.0
5690,65.0,0,240,6.0,88.0
5691,79.0,0,240,4.0,88.0
5692,70.0,0,240,5.0,85.0
5693,88.0,240,240,3.0,83.0
5694,72.0,0,240,5.0,79.0
5695,81.0,240,240,4.0,88.0
5696,87.0,0,240,3.0,78.0
5697,63.0,0,240,6.0,88.0
5698,62.0,0,240,6.0,88.0
5699,82.0,0,240,4.0,88.0
5700,86.0,240,0,3.0,71.0
5701,74.0,240,240,5.0,73.0
5702,77.0,0,30,5.0,73.0
5703,82.0,0,30,4.0,88.0
5704,84.0,30,30,3.0,73.0
5705,81.0,0,30,4.0,88.0
5706,75.0,0,30,5.0,74.0
5707,77.0,0,30,5.0,74.0
5708,86.0,30,30,3.0,75.0
5709,82.0,0,30,4.0,88.0
5710,81.0,0,30,4.0,88.0
5711,75.0,30,30,5.0,74.0
5712,84.0,0,30,3.0,76.0
5713,77.0,30,30,5.0,76.0
5714,86.0,0,30,3.0,78.0
5715,82.0,0,30,4.0,88.0
5716,84.0,30,30,3.0,80.0
5717,81.0,0,30,4.0,88.0
5718,75.0,0,30,5.0,76.0
5719,86.0,0,30,3.0,82.0
5720,77.0,30,30,5.0,78.0
5721,82.0,0,30,4.0,88.0
5722,81.0,0,30,4.0,88.0
5723,84.0,30,30,3.0,82.0
5724,75.0,0,30,5.0,80.0
5725,77.0,0,30,5.0,80.0
5726,82.0,30,30,4.0,88.0
5727,86.0,0,30,3.0,83.0
5728,75.0,0,30,5.0,83.0
5729,81.0,0,30,4.0,88.0
5730,84.0,30,30,3.0,85.0
5731,86.0,30,30,3.0,86.0
5732,82.0,0,30,4.0,88.0
5733,77.0,0,30,5.0,85.0
5734,81.0,0,30,4.0,88.0
5735,75.0,30,30,5.0,85.0
5736,84.0,0,30,3.0,86.0
5737,82.0,0,30,4.0,88.0
5738,77.0,30,30,5.0,88.0
5739,86.0,0,30,3.0,89.0
5740,75.0,30,30,5.0,88.0
5741,81.0,0,30,4.0,88.0
5742,84.0,0,30,3.0,89.0
5743,86.0,0,30,3.0,89.0
5744,77.0,30,30,5.0,91.0
5745,82.0,0,30,4.0,88.0
5746,81.0,0,30,4.0,88.0
5747,84.0,30,30,3.0,89.0
5748,75.0,0,30,5.0,91.0
5749,82.0,30,30,4.0,88.0
5750,86.0,0,30,3.0,90.0
5751,77.0,0,30,5.0,91.0
5752,84.0,30,30,3.0,90.0
5753,81.0,0,30,4.0,88.0
5754,75.0,0,30,5.0,92.0
5755,86.0,30,30,3.0,90.0
5756,82.0,0,30,4.0,88.0
5757,77.0,0,30,5.0,95.0
5758,84.0,0,30,3.0,92.0
5759,81.0,0,30,4.0,88.0
5760,75.0,30,30,5.0,95.0
5761,77.0,0,30,5.0,95.0
5762,86.0,30,30,3.0,92.0
5763,82.0,0,30,4.0,88.0
5764,75.0,30,30,5.0,95.0
5765,84.0,0,30,3.0,95.0
5766,81.0,0,30,4.0,88.0
5767,77.0,30,30,5.0,95.0
5768,86.0,0,30,3.0,95.0
5769,82.0,0,30,4.0,88.0
5770,81.0,30,30,4.0,88.0
5771,84.0,0,30,3.0,95.0
5772,75.0,0,30,5.0,95.0
5773,77.0,0,30,5.0,95.0
5774,86.0,0,30,3.0,95.0
5775,82.0,30,30,4.0,88.0
5776,75.0,0,30,5.0,95.0
5777,84.0,30,30,3.0,95.0
5778,81.0,0,30,4.0,88.0
5779,86.0,0,30,3.0,95.0
5780,82.0,0,30,4.0,88.0
5781,77.0,30,30,5.0,93.0
5782,75.0,0,30,5.0,93.0
5783,81.0,0,30,4.0,88.0
5784,84.0,30,30,3.0,95.0
5785,86.0,0,30,3.0,95.0
5786,77.0,30,30,5.0,90.0
5787,82.0,0,30,4.0,88.0
5788,81.0,30,30,4.0,88.0
5789,75.0,0,30,5.0,88.0
5790,84.0,0,30,3.0,95.0
5791,77.0,0,30,5.0,88.0
5792,86.0,0,30,3.0,95.0
5793,82.0,30,30,4.0,88.0
5794,84.0,0,30,3.0,95.0
5795,75.0,30,30,5.0,85.0
5796,81.0,0,30,4.0,88.0
5797,82.0,0,30,4.0,88.0
5798,86.0,0,30,3.0,95.0
5799,77.0,0,30,5.0,85.0
5800,75.0,30,30,5.0,85.0
5801,81.0,0,30,4.0,88.0
5802,84.0,0,30,3.0,93.0
5803,86.0,0,30,3.0,91.0
5804,77.0,30,30,5.0,85.0
5805,82.0,0,30,4.0,88.0
5806,81.0,0,30,4.0,88.0
5807,84.0,30,30,3.0,91.0
5808,75.0,0,30,5.0,83.0
5809,82.0,30,30,4.0,88.0
5810,77.0,0,30,5.0,83.0
5811,86.0,0,30,3.0,90.0
5812,75.0,30,30,5.0,83.0
5813,81.0,0,30,4.0,88.0
5814,84.0,0,30,3.0,90.0
5815,77.0,0,30,5.0,80.0
5816,86.0,0,30,3.0,90.0
5817,82.0,30,30,4.0,88.0
5818,75.0,30,30,5.0,80.0
5819,84.0,0,30,3.0,90.0
5820,81.0,0,30,4.0,88.0
5821,82.0,0,30,4.0,88.0
5822,77.0,30,30,5.0,80.0
5823,86.0,0,30,3.0,89.0
5824,75.0,30,30,5.0,80.0
5825,81.0,0,30,4.0,88.0
5826,84.0,0,30,3.0,89.0
5827,82.0,0,30,4.0,88.0
5828,77.0,30,30,5.0,80.0
5829,86.0,0,30,3.0,86.0
5830,84.0,0,30,3.0,84.0
5831,75.0,30,30,5.0,80.0
5832,81.0,0,30,4.0,88.0
5833,86.0,0,30,3.0,84.0
5834,82.0,0,30,4.0,88.0
5835,77.0,30,30,5.0,80.0
5836,75.0,0,30,5.0,80.0
5837,84.0,30,30,3.0,84.0
5838,81.0,0,30,4.0,88.0
5839,82.0,30,30,4.0,88.0
5840,77.0,0,30,5.0,80.0
5841,86.0,0,30,3.0,84.0
5842,81.0,30,30,4.0,88.0
5843,84.0,0,30,3.0,84.0
5844,75.0,0,30,5.0,80.0
5845,77.0,0,30,5.0,80.0
5846,86.0,0,30,3.0,84.0
5847,82.0,30,30,4.0,88.0
5848,75.0,0,30,5.0,80.0
5849,84.0,0,30,3.0,84.0
5850,81.0,30,30,4.0,88.0
5851,82.0,0,30,4.0,88.0
5852,77.0,30,30,5.0,80.0
5853,86.0,0,30,3.0,84.0
5854,75.0,0,30,5.0,82.0
5855,84.0,30,30,3.0,84.0
5856,81.0,0,30,4.0,88.0
5857,77.0,0,30,5.0,82.0
5858,82.0,0,30,4.0,88.0
5859,86.0,30,30,3.0,84.0
5860,81.0,0,30,4.0,88.0
5861,84.0,0,30,3.0,85.0
5862,75.0,30,30,5.0,82.0
5863,82.0,0,30,4.0,88.0
5864,86.0,0,30,3.0,85.0
5865,77.0,30,30,5.0,84.0
5866,84.0,0,30,3.0,88.0
5867,75.0,0,30,5.0,84.0
5868,81.0,30,30,4.0,88.0
5869,77.0,0,30,5.0,87.0
5870,82.0,0,30,4.0,88.0
5871,86.0,30,30,3.0,88.0
5872,81.0,30,30,4.0,88.0
5873,84.0,0,30,3.0,91.0
5874,75.0,0,30,5.0,88.0
5875,82.0,30,30,4.0,88.0
5876,86.0,0,30,3.0,93.0
5877,77.0,0,30,5.0,91.0
5878,75.0,0,30,5.0,91.0
5879,84.0,30,30,3.0,96.0
5880,81.0,0,30,4.0,88.0
5881,74.0,30,60,5.0,91.0
5882,82.0,0,60,3.0,99.0
5883,79.0,0,60,4.0,88.0
5884,65.0,0,960,7.0,88.0
5885,84.0,0,60,3.0,101.0
5886,53.0,30,960,6.0,88.0
5887,63.0,0,960,7.0,88.0
5888,60.0,0,960,7.0,88.0
5889,69.0,0,960,7.0,88.0
5890,41.0,0,960,6.0,88.0
5891,75.0,0,60,5.0,93.0
5892,41.0,0,960,8.0,88.0
5893,53.0,0,960,8.0,88.0
5894,81.0,60,60,4.0,88.0
5895,34.0,0,0,14.0,60.0
5896,46.0,240,0,13.0,60.0
5897,50.0,0,240,12.0,88.0
5898,70.0,0,304,10.0,95.0
5899,58.0,0,320,11.0,97.0
5900,74.0,60,80,10.0,56.0
5901,62.0,0,80,11.0,73.0
5902,77.0,60,80,10.0,60.0
5903,65.0,0,80,11.0,77.0
5904,63.0,60,30,11.0,82.0
5905,75.0,0,30,10.0,65.0
5906,77.0,60,480,0.0,88.0
5907,74.0,0,480,0.0,88.0
5908,74.0,0,480,5.0,98.0
5909,82.0,0,480,3.0,101.0
5910,46.0,0,480,6.0,88.0
5911,70.0,0,480,2.0,88.0
5912,58.0,0,480,2.0,88.0
5913,50.0,0,240,12.0,62.0
5914,63.0,0,80,11.0,82.0
5915,75.0,0,80,10.0,69.0
5916,62.0,0,30,11.0,78.0
5917,74.0,60,30,10.0,69.0
5918,74.0,60,80,10.0,66.0
5919,62.0,0,80,11.0,73.0
5920,72.0,60,30,10.0,57.0
5921,60.0,0,30,11.0,69.0
5922,53.0,0,240,12.0,75.0
5923,50.0,0,0,13.0,64.0
5924,38.0,0,0,14.0,64.0
5925,60.0,0,80,11.0,65.0
5926,72.0,60,80,10.0,57.0
5927,70.0,0,30,10.0,60.0
5928,58.0,60,30,11.0,60.0
5929,58.0,0,80,11.0,56.0
5930,70.0,60,80,10.0,65.0
5931,57.0,60,30,11.0,61.0
5932,69.0,0,30,10.0,74.0
5933,53.0,0,240,12.0,69.0
5934,58.0,0,240,12.0,88.0
5935,51.0,0,240,13.0,88.0
5936,39.0,60,240,14.0,88.0
5937,55.0,0,316,11.0,88.0
5938,67.0,0,332,10.0,88.0
5939,75.0,0,80,10.0,60.0
5940,63.0,60,80,11.0,71.0
5941,79.0,60,80,10.0,65.0
5942,67.0,0,80,11.0,76.0
5943,77.0,60,30,10.0,65.0
5944,65.0,0,30,11.0,76.0
5945,51.0,0,240,14.0,84.0
5946,70.0,0,480,2.0,88.0
5947,58.0,0,480,2.0,88.0
5948,58.0,240,240,12.0,75.0
5949,63.0,0,240,13.0,84.0
5950,75.0,0,480,0.0,88.0
5951,79.0,0,480,0.0,88.0
5952,77.0,0,80,10.0,69.0
5953,65.0,0,80,11.0,68.0
5954,63.0,60,30,11.0,64.0
5955,75.0,0,30,10.0,68.0
5956,63.0,0,80,11.0,59.0
5957,75.0,60,80,10.0,66.0
5958,74.0,60,30,10.0,64.0
5959,62.0,0,30,11.0,59.0
5960,39.0,0,240,14.0,63.0
5961,51.0,0,0,13.0,75.0
5962,55.0,0,0,12.0,75.0
5963,74.0,0,80,10.0,64.0
5964,62.0,60,80,11.0,59.0
5965,60.0,0,30,11.0,63.0
5966,72.0,60,30,10.0,60.0
5967,60.0,60,80,11.0,63.0
5968,72.0,0,80,10.0,61.0
5969,70.0,0,30,10.0,65.0
5970,58.0,60,30,11.0,72.0
5971,39.0,0,240,14.0,75.0
5972,57.0,0,30,11.0,77.0
5973,69.0,0,60,10.0,70.0
5974,77.0,0,80,10.0,79.0
5975,65.0,60,80,11.0,85.0
5976,64.0,60,80,11.0,86.0
5977,76.0,0,80,10.0,83.0
5978,77.0,0,30,10.0,87.0
5979,81.0,0,240,0.0,88.0
5980,75.0,60,240,0.0,88.0
5981,53.0,0,240,12.0,82.0
5982,53.0,0,240,13.0,88.0
5983,65.0,0,240,2.0,88.0
5984,72.0,0,240,2.0,88.0
5985,41.0,0,240,14.0,88.0
5986,65.0,60,60,11.0,86.0
5987,58.0,0,30,11.0,86.0
5988,70.0,0,60,10.0,87.0
5989,70.0,60,80,11.0,88.0
5990,82.0,0,80,10.0,87.0
5991,55.0,60,144,12.0,82.0
5992,69.0,60,80,11.0,85.0
5993,81.0,0,80,10.0,87.0
5994,82.0,0,30,10.0,84.0
5995,62.0,0,96,12.0,82.0
5996,43.0,0,240,14.0,88.0
5997,70.0,0,0,11.0,79.0
5998,70.0,0,240,2.0,88.0
5999,74.0,0,240,2.0,88.0
6000,55.0,0,240,13.0,88.0
6001,74.0,0,240,0.0,88.0
6002,78.0,0,80,10.0,84.0
6003,79.0,60,40,10.0,82.0
6004,75.0,60,80,10.0,77.0
6005,72.0,60,30,10.0,81.0
6006,82.0,0,480,0.0,88.0
6007,51.0,0,240,13.0,88.0
6008,67.0,0,240,12.0,82.0
6009,39.0,60,240,14.0,88.0
6010,75.0,60,80,10.0,81.0
6011,72.0,60,30,10.0,83.0
6012,69.0,0,120,11.0,71.0
6013,65.0,0,0,12.0,82.0
6014,75.0,0,80,10.0,83.0
6015,72.0,60,30,10.0,87.0
6016,41.0,0,240,14.0,88.0
6017,69.0,60,120,11.0,80.0
6018,81.0,0,240,0.0,88.0
6019,72.0,0,480,0.0,88.0
6020,65.0,0,240,2.0,88.0
6021,72.0,0,480,2.0,88.0
6022,53.0,0,240,13.0,88.0
6023,65.0,0,0,12.0,82.0
6024,34.0,0,96,14.0,88.0
6025,46.0,60,96,13.0,88.0
6026,70.0,0,140,11.0,83.0
6027,74.0,0,148,10.0,88.0
6028,65.0,120,76,11.0,78.0
6029,70.0,0,92,10.0,87.0
6030,62.0,0,100,12.0,82.0
6031,74.0,120,0,0.0,75.0
6032,82.0,0,240,0.0,88.0
6033,50.0,0,96,13.0,75.0
6034,38.0,0,96,14.0,75.0
6035,65.0,120,47,10.0,75.0
6036,62.0,0,47,11.0,75.0
6037,70.0,0,480,2.0,88.0
6038,62.0,0,480,2.0,88.0
6039,77.0,0,280,0.0,75.0
6040,53.0,0,96,13.0,75.0
6041,41.0,120,96,14.0,75.0
6042,60.0,0,47,10.0,75.0
6043,57.0,120,47,11.0,75.0
6044,69.0,0,280,0.0,75.0
6045,72.0,0,40,0.0,75.0
6046,53.0,0,96,13.0,75.0
6047,41.0,0,96,14.0,75.0
6048,63.0,120,47,10.0,75.0
6049,60.0,0,47,11.0,75.0
6050,75.0,0,200,0.0,75.0
6051,65.0,120,208,2.0,75.0
6052,57.0,0,240,12.0,75.0
6053,58.0,0,96,13.0,75.0
6054,46.0,0,96,14.0,75.0
6055,41.0,0,96,14.0,75.0
6056,53.0,240,96,13.0,75.0
6057,57.0,0,492,12.0,75.0
6058,60.0,0,500,11.0,75.0
6059,65.0,0,504,2.0,84.0
6060,63.0,0,512,10.0,75.0
6061,72.0,120,520,0.0,75.0
6062,75.0,0,520,0.0,75.0
6063,70.0,0,80,0.0,69.0
6064,58.0,0,96,12.0,69.0
6065,62.0,0,96,10.0,75.0
6066,74.0,0,96,0.0,69.0
6067,34.0,0,96,14.0,75.0
6068,46.0,240,96,13.0,75.0
6069,58.0,0,96,2.0,64.0
6070,58.0,0,96,11.0,66.0
6071,81.0,39,41,3.0,75.0
6072,84.0,41,40,3.0,75.0
6073,87.0,40,39,3.0,75.0
6074,84.0,39,41,3.0,75.0
6075,63.0,240,240,7.0,75.0
6076,72.0,40,0,5.0,75.0
6077,75.0,0,0,5.0,75.0
6078,53.0,0,240,8.0,75.0
6079,81.0,41,40,3.0,75.0
6080,65.0,0,240,6.0,75.0
6081,77.0,0,240,4.0,75.0
6082,75.0,0,240,4.0,75.0
6083,69.0,0,0,7.0,75.0
6084,70.0,0,240,6.0,75.0
6085,58.0,0,240,8.0,75.0
6086,81.0,0,480,3.0,75.0
6087,63.0,0,480,7.0,75.0
6088,65.0,0,240,6.0,75.0
6089,53.0,240,240,8.0,75.0
6090,75.0,0,480,4.0,75.0
6091,70.0,0,240,7.0,75.0
6092,62.0,0,240,7.0,75.0
6093,77.0,0,720,4.0,75.0
6094,82.0,240,240,3.0,75.0
6095,70.0,0,240,5.0,75.0
6096,74.0,0,240,5.0,75.0
6097,74.0,0,240,4.0,75.0
6098,58.0,0,240,6.0,75.0
6099,46.0,0,240,8.0,75.0
