,note,step,duration,channel,velocity
0,76.0,92,390,6.0,0.0
1,57.0,148,240,7.0,0.0
2,64.0,240,240,7.0,0.0
3,61.0,240,240,7.0,0.0
4,64.0,240,240,7.0,0.0
5,69.0,92,390,6.0,0.0
6,57.0,148,240,7.0,0.0
7,64.0,240,240,7.0,0.0
8,61.0,240,240,7.0,0.0
9,64.0,240,240,7.0,0.0
10,81.0,44,1140,6.0,0.0
11,57.0,240,240,7.0,0.0
12,66.0,240,240,7.0,0.0
13,62.0,240,240,7.0,0.0
14,66.0,196,240,7.0,0.0
15,57.0,240,240,7.0,0.0
16,66.0,196,240,7.0,0.0
17,80.0,44,180,6.0,0.0
18,62.0,196,240,7.0,0.0
19,66.0,240,240,7.0,0.0
20,78.0,44,180,6.0,0.0
21,57.0,4,240,7.0,0.0
22,78.0,192,240,6.0,0.0
23,64.0,196,240,7.0,0.0
24,76.0,44,180,6.0,0.0
25,61.0,196,240,7.0,0.0
26,74.0,44,180,6.0,0.0
27,64.0,240,240,7.0,0.0
28,73.0,44,180,6.0,0.0
29,74.0,192,240,6.0,0.0
30,56.0,4,240,7.0,0.0
31,71.0,44,180,6.0,0.0
32,64.0,196,240,7.0,0.0
33,73.0,44,180,6.0,0.0
34,57.0,196,240,7.0,0.0
35,69.0,44,180,6.0,0.0
36,64.0,196,240,7.0,0.0
37,52.0,202,480,7.0,0.0
38,73.0,240,180,6.0,0.0
39,71.0,38,180,6.0,0.0
40,69.0,240,180,6.0,0.0
41,68.0,240,180,6.0,0.0
42,66.0,240,180,6.0,0.0
43,64.0,240,180,6.0,0.0
44,63.0,240,180,6.0,0.0
45,64.0,284,180,6.0,0.0
46,76.0,92,390,6.0,0.0
47,57.0,148,240,7.0,0.0
48,64.0,240,240,7.0,0.0
49,61.0,240,240,7.0,0.0
50,64.0,240,240,7.0,0.0
51,69.0,92,390,6.0,0.0
52,57.0,148,240,7.0,0.0
53,67.0,240,240,7.0,0.0
54,61.0,240,240,7.0,0.0
55,67.0,124,240,7.0,0.0
56,69.0,116,120,6.0,0.0
57,57.0,240,240,7.0,0.0
58,81.0,188,1140,6.0,0.0
59,66.0,240,240,7.0,0.0
60,62.0,240,240,7.0,0.0
61,66.0,240,240,7.0,0.0
62,57.0,52,240,7.0,0.0
63,66.0,196,240,7.0,0.0
64,80.0,44,180,6.0,0.0
65,62.0,196,240,7.0,0.0
66,78.0,44,180,6.0,0.0
67,66.0,244,240,7.0,0.0
68,61.0,48,390,7.0,0.0
69,57.0,0,390,7.0,0.0
70,76.0,144,240,6.0,0.0
71,81.0,240,180,6.0,0.0
72,59.0,48,390,7.0,0.0
73,78.0,192,180,6.0,0.0
74,50.0,0,390,7.0,0.0
75,74.0,288,180,6.0,0.0
76,73.0,144,240,6.0,0.0
77,57.0,48,390,7.0,0.0
78,52.0,96,780,7.0,0.0
79,76.0,240,180,6.0,0.0
80,74.0,96,180,6.0,0.0
81,56.0,48,390,7.0,0.0
82,71.0,240,180,6.0,0.0
83,69.0,192,180,6.0,0.0
84,57.0,48,390,7.0,0.0
85,71.0,240,180,6.0,0.0
86,73.0,240,180,6.0,0.0
87,74.0,240,180,6.0,0.0
88,76.0,240,180,6.0,0.0
89,78.0,240,180,6.0,0.0
90,80.0,240,180,6.0,0.0
91,81.0,240,180,6.0,0.0
92,76.0,38,1890,1.0,0.0
93,57.0,0,1920,4.0,0.0
94,81.0,0,4800,0.0,0.0
95,76.0,0,390,10.0,0.0
96,57.0,48,390,13.0,0.0
97,61.0,192,180,11.0,0.0
98,45.0,0,390,14.0,0.0
99,64.0,0,1890,3.0,0.0
100,61.0,0,1890,3.0,0.0
101,73.0,0,1890,1.0,0.0
102,69.0,0,390,12.0,0.0
103,64.0,240,180,11.0,0.0
104,57.0,48,390,13.0,0.0
105,45.0,0,390,14.0,0.0
106,69.0,0,390,12.0,0.0
107,61.0,192,180,11.0,0.0
108,64.0,240,180,11.0,0.0
109,45.0,48,390,14.0,0.0
110,69.0,0,390,10.0,0.0
111,57.0,0,390,13.0,0.0
112,69.0,0,390,12.0,0.0
113,61.0,192,180,11.0,0.0
114,64.0,240,180,11.0,0.0
115,45.0,0,390,14.0,0.0
116,57.0,48,390,13.0,0.0
117,69.0,0,390,12.0,0.0
118,61.0,192,180,11.0,0.0
119,64.0,10,180,11.0,0.0
120,62.0,38,1890,3.0,0.0
121,66.0,0,1890,3.0,0.0
122,81.0,192,1140,10.0,0.0
123,69.0,48,390,12.0,0.0
124,57.0,0,390,13.0,0.0
125,62.0,192,180,11.0,0.0
126,74.0,0,1890,1.0,0.0
127,78.0,0,1890,1.0,0.0
128,69.0,192,15,4.0,0.0
129,45.0,0,390,14.0,0.0
130,66.0,240,180,11.0,0.0
131,62.0,192,180,11.0,0.0
132,57.0,0,390,13.0,0.0
133,45.0,48,390,14.0,0.0
134,69.0,0,390,12.0,0.0
135,66.0,240,180,11.0,0.0
136,57.0,48,390,13.0,0.0
137,69.0,0,390,12.0,0.0
138,45.0,0,390,14.0,0.0
139,62.0,0,180,11.0,0.0
140,66.0,240,180,11.0,0.0
141,69.0,0,390,12.0,0.0
142,62.0,0,180,11.0,0.0
143,57.0,48,390,13.0,0.0
144,45.0,0,390,14.0,0.0
145,80.0,192,180,10.0,0.0
146,78.0,0,180,10.0,0.0
147,66.0,10,180,11.0,0.0
148,57.0,192,15,4.0,0.0
149,57.0,0,960,3.0,0.0
150,61.0,48,180,11.0,0.0
151,69.0,48,390,12.0,0.0
152,69.0,0,960,4.0,0.0
153,45.0,0,390,14.0,0.0
154,78.0,144,240,10.0,0.0
155,73.0,0,960,1.0,0.0
156,76.0,0,960,1.0,0.0
157,57.0,0,390,13.0,0.0
158,61.0,192,960,3.0,0.0
159,64.0,240,180,11.0,0.0
160,76.0,0,180,10.0,0.0
161,69.0,0,180,11.0,0.0
162,69.0,0,390,12.0,0.0
163,45.0,48,390,14.0,0.0
164,57.0,0,390,13.0,0.0
165,74.0,192,180,10.0,0.0
166,73.0,48,180,10.0,0.0
167,64.0,0,180,11.0,0.0
168,44.0,0,390,14.0,0.0
169,59.0,0,480,3.0,0.0
170,71.0,0,300,4.0,0.0
171,64.0,72,300,4.0,0.0
172,83.0,0,480,0.0,0.0
173,68.0,0,390,12.0,0.0
174,74.0,0,480,1.0,0.0
175,71.0,48,180,11.0,0.0
176,56.0,48,390,13.0,0.0
177,74.0,72,240,10.0,0.0
178,56.0,0,480,3.0,0.0
179,71.0,192,480,1.0,0.0
180,71.0,0,180,10.0,0.0
181,64.0,48,180,11.0,0.0
182,54.0,240,480,3.0,0.0
183,69.0,120,180,11.0,0.0
184,57.0,0,480,3.0,0.0
185,73.0,0,180,10.0,0.0
186,57.0,48,390,13.0,0.0
187,69.0,0,390,12.0,0.0
188,69.0,0,480,1.0,0.0
189,73.0,0,480,1.0,0.0
190,85.0,0,480,0.0,0.0
191,73.0,72,300,4.0,0.0
192,45.0,0,390,14.0,0.0
193,69.0,0,300,4.0,0.0
194,69.0,48,180,10.0,0.0
195,64.0,0,180,11.0,0.0
196,52.0,0,780,13.0,0.0
197,71.0,0,240,10.0,0.0
198,64.0,120,300,4.0,0.0
199,71.0,0,300,4.0,0.0
200,68.0,72,240,11.0,0.0
201,68.0,240,480,1.0,0.0
202,71.0,0,480,1.0,0.0
203,83.0,0,240,0.0,0.0
204,59.0,0,960,3.0,0.0
205,56.0,0,960,3.0,0.0
206,40.0,24,780,14.0,0.0
207,64.0,0,780,12.0,0.0
208,88.0,48,180,0.0,0.0
209,64.0,0,180,11.0,0.0
210,76.0,0,180,10.0,0.0
211,64.0,120,300,4.0,0.0
212,71.0,240,480,1.0,0.0
213,74.0,0,480,1.0,0.0
214,75.0,48,240,10.0,0.0
215,87.0,0,240,0.0,0.0
216,63.0,0,240,11.0,0.0
217,88.0,0,180,0.0,0.0
218,76.0,0,180,10.0,0.0
219,64.0,48,180,11.0,0.0
220,61.0,0,480,3.0,0.0
221,75.0,72,240,10.0,0.0
222,64.0,120,300,4.0,0.0
223,69.0,0,480,1.0,0.0
224,57.0,0,480,3.0,0.0
225,87.0,0,240,0.0,0.0
226,63.0,0,240,11.0,0.0
227,73.0,240,480,1.0,0.0
228,64.0,0,180,11.0,0.0
229,76.0,0,180,10.0,0.0
230,88.0,48,180,0.0,0.0
231,62.0,0,480,3.0,0.0
232,90.0,72,240,0.0,0.0
233,68.0,0,480,1.0,0.0
234,71.0,0,480,1.0,0.0
235,64.0,120,300,4.0,0.0
236,66.0,0,240,11.0,0.0
237,59.0,192,480,3.0,0.0
238,78.0,0,240,10.0,0.0
239,76.0,0,180,10.0,0.0
240,88.0,48,180,0.0,0.0
241,64.0,0,180,11.0,0.0
242,57.0,0,390,13.0,0.0
243,76.0,0,390,10.0,0.0
244,45.0,0,390,14.0,0.0
245,57.0,0,1920,4.0,0.0
246,61.0,38,1890,3.0,0.0
247,64.0,0,1890,3.0,0.0
248,69.0,48,390,12.0,0.0
249,76.0,0,1890,1.0,0.0
250,73.0,0,1890,1.0,0.0
251,81.0,0,4140,0.0,0.0
252,61.0,192,180,11.0,0.0
253,64.0,240,180,11.0,0.0
254,69.0,48,390,12.0,0.0
255,61.0,192,180,11.0,0.0
256,45.0,0,390,14.0,0.0
257,57.0,0,390,13.0,0.0
258,64.0,240,180,11.0,0.0
259,57.0,48,390,13.0,0.0
260,61.0,192,180,11.0,0.0
261,45.0,0,390,14.0,0.0
262,69.0,0,390,10.0,0.0
263,69.0,0,390,12.0,0.0
264,64.0,240,180,11.0,0.0
265,57.0,48,390,13.0,0.0
266,45.0,0,390,14.0,0.0
267,69.0,0,390,12.0,0.0
268,61.0,192,180,11.0,0.0
269,64.0,10,180,11.0,0.0
270,69.0,48,390,12.0,0.0
271,62.0,96,180,11.0,0.0
272,57.0,0,390,13.0,0.0
273,81.0,96,300,10.0,0.0
274,69.0,192,15,4.0,0.0
275,74.0,0,1890,1.0,0.0
276,62.0,38,1890,3.0,0.0
277,78.0,0,1890,1.0,0.0
278,66.0,0,1890,3.0,0.0
279,45.0,0,390,14.0,0.0
280,66.0,240,180,11.0,0.0
281,62.0,192,180,11.0,0.0
282,81.0,96,780,10.0,0.0
283,69.0,0,390,12.0,0.0
284,57.0,0,390,13.0,0.0
285,45.0,48,390,14.0,0.0
286,66.0,240,180,11.0,0.0
287,57.0,0,390,13.0,0.0
288,45.0,48,390,14.0,0.0
289,69.0,0,390,12.0,0.0
290,62.0,96,180,11.0,0.0
291,66.0,240,180,11.0,0.0
292,45.0,48,390,14.0,0.0
293,57.0,0,390,13.0,0.0
294,80.0,192,180,10.0,0.0
295,62.0,0,180,11.0,0.0
296,69.0,0,390,12.0,0.0
297,78.0,0,180,10.0,0.0
298,66.0,10,180,11.0,0.0
299,76.0,0,300,1.0,0.0
300,69.0,0,15,4.0,0.0
301,61.0,0,300,11.0,0.0
302,64.0,0,300,3.0,0.0
303,76.0,72,240,10.0,0.0
304,57.0,240,15,4.0,0.0
305,57.0,12,390,13.0,0.0
306,61.0,72,300,3.0,0.0
307,45.0,0,390,14.0,0.0
308,73.0,0,300,1.0,0.0
309,69.0,0,390,12.0,0.0
310,81.0,240,150,10.0,0.0
311,62.0,0,390,12.0,0.0
312,38.0,0,390,14.0,0.0
313,74.0,0,150,11.0,0.0
314,86.0,0,300,0.0,0.0
315,71.0,0,300,1.0,0.0
316,62.0,72,300,3.0,0.0
317,50.0,12,390,13.0,0.0
318,78.0,156,150,10.0,0.0
319,74.0,0,300,1.0,0.0
320,59.0,0,300,3.0,0.0
321,71.0,324,150,11.0,0.0
322,74.0,0,150,10.0,0.0
323,40.0,12,390,14.0,0.0
324,73.0,0,300,4.0,0.0
325,64.0,0,390,12.0,0.0
326,69.0,0,300,4.0,0.0
327,73.0,72,240,10.0,0.0
328,61.0,0,300,3.0,0.0
329,69.0,0,300,1.0,0.0
330,57.0,0,300,3.0,0.0
331,69.0,0,240,11.0,0.0
332,73.0,72,300,1.0,0.0
333,85.0,0,300,0.0,0.0
334,52.0,0,390,13.0,0.0
335,73.0,0,150,11.0,0.0
336,76.0,240,150,10.0,0.0
337,40.0,0,390,14.0,0.0
338,56.0,0,300,3.0,0.0
339,59.0,0,300,3.0,0.0
340,71.0,156,150,11.0,0.0
341,74.0,0,150,10.0,0.0
342,71.0,0,300,4.0,0.0
343,52.0,0,390,13.0,0.0
344,83.0,0,300,0.0,0.0
345,68.0,0,300,1.0,0.0
346,64.0,12,390,12.0,0.0
347,71.0,72,300,1.0,0.0
348,64.0,0,300,4.0,0.0
349,68.0,468,150,11.0,0.0
350,71.0,0,150,10.0,0.0
351,69.0,480,390,11.0,0.0
352,33.0,0,390,14.0,0.0
353,69.0,0,390,1.0,0.0
354,57.0,0,390,12.0,0.0
355,61.0,0,390,4.0,0.0
356,57.0,0,390,3.0,0.0
357,69.0,0,390,4.0,0.0
358,81.0,0,390,0.0,0.0
359,69.0,0,390,10.0,0.0
360,45.0,0,390,13.0,0.0
361,57.0,0,390,13.0,0.0
362,69.0,0,390,12.0,0.0
363,45.0,360,390,14.0,0.0
364,73.0,696,270,10.0,0.0
365,69.0,0,270,11.0,0.0
366,73.0,0,480,10.0,0.0
367,69.0,264,480,11.0,0.0
368,40.0,0,270,14.0,0.0
369,64.0,0,270,12.0,0.0
370,71.0,0,780,10.0,0.0
371,68.0,192,780,11.0,0.0
372,52.0,504,270,13.0,0.0
373,52.0,0,480,13.0,0.0
374,64.0,0,480,12.0,0.0
375,40.0,264,480,14.0,0.0
376,47.0,192,780,13.0,0.0
377,74.0,504,270,10.0,0.0
378,66.0,0,780,12.0,0.0
379,71.0,0,270,11.0,0.0
380,35.0,0,780,14.0,0.0
381,74.0,264,480,10.0,0.0
382,71.0,0,480,11.0,0.0
383,54.0,0,270,13.0,0.0
384,73.0,192,780,10.0,0.0
385,69.0,0,780,11.0,0.0
386,66.0,0,270,12.0,0.0
387,42.0,504,270,14.0,0.0
388,54.0,0,480,13.0,0.0
389,66.0,0,480,12.0,0.0
390,42.0,264,480,14.0,0.0
391,74.0,0,270,11.0,0.0
392,38.0,0,780,14.0,0.0
393,78.0,504,270,10.0,0.0
394,69.0,0,780,12.0,0.0
395,50.0,192,780,13.0,0.0
396,78.0,288,480,10.0,0.0
397,74.0,240,960,11.0,0.0
398,44.0,192,300,14.0,0.0
399,71.0,0,960,12.0,0.0
400,76.0,0,1440,10.0,0.0
401,56.0,0,300,13.0,0.0
402,76.0,240,240,11.0,0.0
403,56.0,480,480,13.0,0.0
404,44.0,0,480,14.0,0.0
405,74.0,0,240,11.0,0.0
406,45.0,480,480,14.0,0.0
407,57.0,0,480,13.0,0.0
408,69.0,0,480,12.0,0.0
409,73.0,0,480,11.0,0.0
410,38.0,0,480,14.0,0.0
411,66.0,0,480,12.0,0.0
412,74.0,480,480,10.0,0.0
413,50.0,0,480,13.0,0.0
414,71.0,0,480,11.0,0.0
415,69.0,0,480,11.0,0.0
416,64.0,0,780,12.0,0.0
417,52.0,96,780,13.0,0.0
418,40.0,0,780,14.0,0.0
419,73.0,288,480,10.0,0.0
420,68.0,0,390,11.0,0.0
421,71.0,576,390,10.0,0.0
422,76.0,480,1920,1.0,0.0
423,68.0,0,960,2.0,0.0
424,49.0,480,480,3.0,0.0
425,52.0,480,480,3.0,0.0
426,69.0,0,1440,2.0,0.0
427,61.0,0,960,3.0,0.0
428,54.0,384,480,3.0,0.0
429,57.0,96,390,3.0,0.0
430,74.0,480,1920,1.0,0.0
431,47.0,240,480,3.0,0.0
432,59.0,0,1440,3.0,0.0
433,71.0,240,240,2.0,0.0
434,50.0,480,480,3.0,0.0
435,69.0,0,240,2.0,0.0
436,52.0,384,480,3.0,0.0
437,68.0,0,480,2.0,0.0
438,71.0,0,480,2.0,0.0
439,64.0,480,960,3.0,0.0
440,56.0,96,390,3.0,0.0
441,57.0,0,480,3.0,0.0
442,69.0,0,480,2.0,0.0
443,73.0,384,1440,1.0,0.0
444,68.0,0,480,2.0,0.0
445,53.0,480,480,3.0,0.0
446,59.0,0,480,3.0,0.0
447,57.0,0,480,3.0,0.0
448,54.0,0,480,3.0,0.0
449,66.0,0,480,2.0,0.0
450,50.0,96,390,3.0,0.0
451,66.0,312,480,3.0,0.0
452,74.0,0,480,1.0,0.0
453,71.0,0,480,2.0,0.0
454,69.0,0,480,2.0,0.0
455,73.0,0,480,1.0,0.0
456,64.0,312,480,3.0,0.0
457,52.0,168,300,3.0,0.0
458,62.0,0,390,3.0,0.0
459,64.0,72,390,4.0,0.0
460,71.0,0,450,1.0,0.0
461,68.0,504,450,2.0,0.0
462,52.0,72,300,3.0,0.0
463,45.0,0,780,3.0,0.0
464,62.0,0,480,3.0,0.0
465,57.0,96,780,4.0,0.0
466,68.0,0,480,2.0,0.0
467,71.0,288,480,1.0,0.0
468,64.0,0,780,4.0,0.0
469,73.0,360,390,1.0,0.0
470,61.0,0,390,3.0,0.0
471,69.0,0,390,2.0,0.0
472,73.0,0,270,10.0,0.0
473,69.0,696,270,11.0,0.0
474,69.0,0,480,11.0,0.0
475,73.0,264,480,10.0,0.0
476,68.0,0,780,11.0,0.0
477,64.0,504,270,12.0,0.0
478,52.0,0,270,13.0,0.0
479,71.0,192,780,10.0,0.0
480,40.0,0,270,14.0,0.0
481,40.0,0,480,14.0,0.0
482,64.0,264,480,12.0,0.0
483,52.0,0,480,13.0,0.0
484,66.0,192,780,12.0,0.0
485,74.0,0,270,10.0,0.0
486,47.0,0,780,13.0,0.0
487,35.0,0,780,14.0,0.0
488,71.0,504,270,11.0,0.0
489,74.0,0,480,10.0,0.0
490,71.0,264,480,11.0,0.0
491,73.0,0,780,10.0,0.0
492,54.0,504,270,13.0,0.0
493,66.0,0,270,12.0,0.0
494,69.0,192,780,11.0,0.0
495,42.0,0,270,14.0,0.0
496,42.0,0,480,14.0,0.0
497,66.0,264,480,12.0,0.0
498,54.0,0,480,13.0,0.0
499,50.0,0,780,13.0,0.0
500,69.0,0,780,12.0,0.0
501,74.0,504,270,11.0,0.0
502,38.0,192,780,14.0,0.0
503,78.0,0,270,10.0,0.0
504,78.0,288,480,10.0,0.0
505,74.0,240,960,11.0,0.0
506,56.0,0,300,13.0,0.0
507,76.0,0,1440,10.0,0.0
508,44.0,192,300,14.0,0.0
509,71.0,480,960,12.0,0.0
510,56.0,0,480,13.0,0.0
511,44.0,0,480,14.0,0.0
512,76.0,240,240,11.0,0.0
513,74.0,0,240,11.0,0.0
514,73.0,0,480,11.0,0.0
515,57.0,0,480,13.0,0.0
516,45.0,480,480,14.0,0.0
517,69.0,0,480,12.0,0.0
518,38.0,0,480,14.0,0.0
519,50.0,480,480,13.0,0.0
520,66.0,0,480,12.0,0.0
521,74.0,0,480,10.0,0.0
522,71.0,0,480,11.0,0.0
523,64.0,0,780,12.0,0.0
524,73.0,288,480,10.0,0.0
525,40.0,96,780,14.0,0.0
526,69.0,0,480,11.0,0.0
527,52.0,0,780,13.0,0.0
528,68.0,0,390,11.0,0.0
529,71.0,288,390,10.0,0.0
530,49.0,0,180,3.0,0.0
531,76.0,192,1920,1.0,0.0
532,68.0,192,960,2.0,0.0
533,50.0,0,180,3.0,0.0
534,52.0,0,180,3.0,0.0
535,49.0,0,180,3.0,0.0
536,69.0,192,1920,2.0,0.0
537,54.0,192,180,3.0,0.0
538,56.0,240,180,3.0,0.0
539,57.0,240,180,3.0,0.0
540,54.0,48,180,3.0,0.0
541,74.0,192,1920,1.0,0.0
542,59.0,192,180,3.0,0.0
543,57.0,240,180,3.0,0.0
544,56.0,240,180,3.0,0.0
545,54.0,48,180,3.0,0.0
546,68.0,192,480,2.0,0.0
547,52.0,192,180,3.0,0.0
548,54.0,48,180,3.0,0.0
549,71.0,192,960,2.0,0.0
550,56.0,240,180,3.0,0.0
551,52.0,48,180,3.0,0.0
552,57.0,192,180,3.0,0.0
553,73.0,192,1440,1.0,0.0
554,56.0,48,180,3.0,0.0
555,69.0,192,240,2.0,0.0
556,54.0,48,180,3.0,0.0
557,68.0,192,240,2.0,0.0
558,53.0,48,180,3.0,0.0
559,69.0,0,480,2.0,0.0
560,54.0,0,180,3.0,0.0
561,52.0,0,180,3.0,0.0
562,71.0,312,480,2.0,0.0
563,74.0,0,480,1.0,0.0
564,50.0,0,180,3.0,0.0
565,47.0,0,180,3.0,0.0
566,73.0,0,480,1.0,0.0
567,69.0,312,480,2.0,0.0
568,52.0,0,300,3.0,0.0
569,40.0,0,300,3.0,0.0
570,71.0,0,390,1.0,0.0
571,68.0,480,390,2.0,0.0
572,71.0,192,480,1.0,0.0
573,45.0,0,390,3.0,0.0
574,68.0,0,480,2.0,0.0
575,76.0,48,180,11.0,0.0
576,76.0,0,180,10.0,0.0
577,76.0,0,180,10.0,0.0
578,69.0,48,390,2.0,0.0
579,73.0,0,390,1.0,0.0
580,76.0,192,180,11.0,0.0
581,78.0,0,180,11.0,0.0
582,78.0,240,180,10.0,0.0
583,80.0,240,180,11.0,0.0
584,71.0,0,180,12.0,0.0
585,80.0,0,900,0.0,0.0
586,80.0,0,180,10.0,0.0
587,64.0,0,1860,13.0,0.0
588,52.0,0,1860,14.0,0.0
589,64.0,240,1860,3.0,0.0
590,76.0,0,900,1.0,0.0
591,71.0,0,900,2.0,0.0
592,64.0,0,1860,4.0,0.0
593,68.0,240,180,12.0,0.0
594,76.0,0,180,10.0,0.0
595,76.0,0,180,11.0,0.0
596,78.0,0,180,11.0,0.0
597,78.0,240,180,10.0,0.0
598,69.0,0,180,12.0,0.0
599,80.0,240,180,10.0,0.0
600,71.0,0,180,12.0,0.0
601,80.0,0,180,11.0,0.0
602,73.0,0,900,2.0,0.0
603,81.0,0,180,10.0,0.0
604,81.0,240,180,11.0,0.0
605,73.0,0,180,12.0,0.0
606,81.0,0,900,0.0,0.0
607,78.0,48,1830,1.0,0.0
608,78.0,0,180,11.0,0.0
609,69.0,0,180,12.0,0.0
610,78.0,240,180,10.0,0.0
611,80.0,0,180,11.0,0.0
612,80.0,0,180,10.0,0.0
613,71.0,240,180,12.0,0.0
614,81.0,0,180,10.0,0.0
615,81.0,0,180,11.0,0.0
616,73.0,0,180,12.0,0.0
617,74.0,0,720,2.0,0.0
618,83.0,0,180,10.0,0.0
619,83.0,96,180,11.0,0.0
620,62.0,0,1860,3.0,0.0
621,50.0,0,1860,14.0,0.0
622,62.0,240,1860,13.0,0.0
623,83.0,144,720,0.0,0.0
624,71.0,0,1860,4.0,0.0
625,66.0,144,300,12.0,0.0
626,78.0,0,180,11.0,0.0
627,78.0,240,180,10.0,0.0
628,83.0,0,180,11.0,0.0
629,74.0,0,180,12.0,0.0
630,83.0,48,180,10.0,0.0
631,73.0,204,240,2.0,0.0
632,81.0,0,240,0.0,0.0
633,81.0,36,180,10.0,0.0
634,81.0,0,180,11.0,0.0
635,73.0,0,180,12.0,0.0
636,71.0,240,180,12.0,0.0
637,71.0,0,900,2.0,0.0
638,80.0,0,900,0.0,0.0
639,80.0,0,180,10.0,0.0
640,76.0,48,1830,1.0,0.0
641,80.0,0,180,11.0,0.0
642,64.0,0,900,4.0,0.0
643,76.0,0,180,11.0,0.0
644,68.0,0,180,12.0,0.0
645,76.0,240,180,10.0,0.0
646,78.0,0,180,11.0,0.0
647,78.0,0,180,10.0,0.0
648,69.0,240,180,12.0,0.0
649,71.0,0,180,12.0,0.0
650,80.0,0,180,10.0,0.0
651,80.0,0,180,11.0,0.0
652,81.0,96,180,11.0,0.0
653,61.0,0,1200,13.0,0.0
654,64.0,144,300,12.0,0.0
655,81.0,0,180,10.0,0.0
656,69.0,0,900,4.0,0.0
657,61.0,84,1200,3.0,0.0
658,81.0,240,900,0.0,0.0
659,73.0,0,900,2.0,0.0
660,73.0,0,900,4.0,0.0
661,49.0,0,1200,14.0,0.0
662,83.0,0,180,11.0,0.0
663,83.0,240,180,10.0,0.0
664,85.0,0,180,10.0,0.0
665,85.0,192,180,11.0,0.0
666,69.0,36,660,12.0,0.0
667,81.0,0,180,11.0,0.0
668,81.0,0,180,10.0,0.0
669,86.0,0,300,11.0,0.0
670,74.0,48,1830,2.0,0.0
671,86.0,120,300,10.0,0.0
672,78.0,0,1830,1.0,0.0
673,86.0,240,2820,0.0,0.0
674,54.0,0,180,3.0,0.0
675,69.0,0,180,12.0,0.0
676,42.0,240,180,14.0,0.0
677,54.0,0,180,13.0,0.0
678,44.0,240,180,14.0,0.0
679,86.0,0,780,10.0,0.0
680,86.0,144,780,11.0,0.0
681,71.0,0,180,12.0,0.0
682,56.0,0,180,3.0,0.0
683,56.0,0,180,13.0,0.0
684,57.0,240,180,13.0,0.0
685,73.0,0,180,12.0,0.0
686,57.0,0,180,3.0,0.0
687,45.0,0,180,14.0,0.0
688,47.0,0,180,14.0,0.0
689,59.0,96,180,13.0,0.0
690,74.0,0,180,12.0,0.0
691,59.0,0,180,3.0,0.0
692,54.0,0,180,13.0,0.0
693,54.0,0,180,3.0,0.0
694,42.0,240,180,14.0,0.0
695,69.0,0,180,12.0,0.0
696,74.0,0,180,12.0,0.0
697,86.0,120,780,11.0,0.0
698,86.0,0,780,10.0,0.0
699,59.0,0,180,13.0,0.0
700,59.0,192,180,3.0,0.0
701,47.0,0,180,14.0,0.0
702,73.0,0,180,12.0,0.0
703,57.0,0,180,13.0,0.0
704,45.0,0,180,14.0,0.0
705,57.0,240,180,3.0,0.0
706,56.0,0,180,3.0,0.0
707,83.0,0,900,1.0,0.0
708,64.0,0,900,4.0,0.0
709,71.0,0,900,4.0,0.0
710,76.0,48,1830,2.0,0.0
711,56.0,0,180,13.0,0.0
712,44.0,0,180,14.0,0.0
713,71.0,120,180,12.0,0.0
714,68.0,0,180,12.0,0.0
715,52.0,240,180,13.0,0.0
716,40.0,0,180,14.0,0.0
717,52.0,0,180,3.0,0.0
718,54.0,0,180,3.0,0.0
719,69.0,0,180,12.0,0.0
720,76.0,0,300,10.0,0.0
721,54.0,0,180,13.0,0.0
722,42.0,120,180,14.0,0.0
723,76.0,120,300,11.0,0.0
724,56.0,0,180,13.0,0.0
725,56.0,0,180,3.0,0.0
726,71.0,0,180,12.0,0.0
727,44.0,0,180,14.0,0.0
728,85.0,0,900,0.0,0.0
729,85.0,0,300,10.0,0.0
730,64.0,0,180,12.0,0.0
731,81.0,0,900,1.0,0.0
732,57.0,120,180,3.0,0.0
733,85.0,120,300,11.0,0.0
734,73.0,0,900,4.0,0.0
735,57.0,0,180,13.0,0.0
736,45.0,0,180,14.0,0.0
737,69.0,0,900,4.0,0.0
738,44.0,240,180,14.0,0.0
739,56.0,0,180,13.0,0.0
740,61.0,0,180,12.0,0.0
741,56.0,0,180,3.0,0.0
742,54.0,120,180,3.0,0.0
743,69.0,72,300,10.0,0.0
744,54.0,0,180,13.0,0.0
745,42.0,0,180,14.0,0.0
746,66.0,0,180,12.0,0.0
747,69.0,0,300,11.0,0.0
748,52.0,0,180,3.0,0.0
749,52.0,0,180,13.0,0.0
750,40.0,240,180,14.0,0.0
751,64.0,0,180,12.0,0.0
752,62.0,120,300,11.0,0.0
753,38.0,0,180,14.0,0.0
754,78.0,0,900,1.0,0.0
755,74.0,0,900,2.0,0.0
756,62.0,120,180,12.0,0.0
757,83.0,0,900,0.0,0.0
758,62.0,0,300,10.0,0.0
759,50.0,0,180,3.0,0.0
760,50.0,0,180,13.0,0.0
761,38.0,0,180,14.0,0.0
762,62.0,240,180,12.0,0.0
763,50.0,0,180,3.0,0.0
764,50.0,0,180,13.0,0.0
765,38.0,120,180,14.0,0.0
766,83.0,0,300,11.0,0.0
767,62.0,0,180,12.0,0.0
768,83.0,120,300,10.0,0.0
769,50.0,0,180,3.0,0.0
770,50.0,0,180,13.0,0.0
771,62.0,0,180,12.0,0.0
772,50.0,240,180,3.0,0.0
773,38.0,0,180,14.0,0.0
774,50.0,0,180,13.0,0.0
775,52.0,0,180,3.0,0.0
776,80.0,0,900,0.0,0.0
777,64.0,0,300,10.0,0.0
778,74.0,0,900,1.0,0.0
779,64.0,0,900,4.0,0.0
780,71.0,0,900,4.0,0.0
781,71.0,0,900,2.0,0.0
782,64.0,120,300,11.0,0.0
783,40.0,0,180,14.0,0.0
784,52.0,0,180,13.0,0.0
785,64.0,120,180,12.0,0.0
786,64.0,0,180,12.0,0.0
787,40.0,240,180,14.0,0.0
788,52.0,0,180,13.0,0.0
789,52.0,0,180,3.0,0.0
790,80.0,0,300,11.0,0.0
791,64.0,120,180,12.0,0.0
792,40.0,0,180,14.0,0.0
793,52.0,0,180,3.0,0.0
794,52.0,0,180,13.0,0.0
795,80.0,120,300,10.0,0.0
796,52.0,0,180,3.0,0.0
797,40.0,0,180,14.0,0.0
798,52.0,0,180,13.0,0.0
799,64.0,240,180,12.0,0.0
800,66.0,0,300,10.0,0.0
801,69.0,0,900,2.0,0.0
802,54.0,0,180,13.0,0.0
803,54.0,0,900,3.0,0.0
804,69.0,0,900,4.0,0.0
805,42.0,0,180,14.0,0.0
806,81.0,240,900,0.0,0.0
807,57.0,0,900,4.0,0.0
808,73.0,0,900,1.0,0.0
809,66.0,120,300,11.0,0.0
810,66.0,120,180,12.0,0.0
811,66.0,240,180,12.0,0.0
812,54.0,0,180,13.0,0.0
813,42.0,0,180,14.0,0.0
814,81.0,120,300,10.0,0.0
815,54.0,120,180,13.0,0.0
816,42.0,0,180,14.0,0.0
817,66.0,0,180,12.0,0.0
818,81.0,0,300,11.0,0.0
819,42.0,0,180,14.0,0.0
820,54.0,0,180,13.0,0.0
821,66.0,0,180,12.0,0.0
822,90.0,0,900,0.0,0.0
823,66.0,0,900,3.0,0.0
824,62.0,120,180,12.0,0.0
825,74.0,0,900,2.0,0.0
826,78.0,0,900,1.0,0.0
827,57.0,0,900,4.0,0.0
828,50.0,0,180,13.0,0.0
829,62.0,120,300,11.0,0.0
830,62.0,0,300,10.0,0.0
831,62.0,240,900,3.0,0.0
832,38.0,0,180,14.0,0.0
833,69.0,0,900,4.0,0.0
834,62.0,0,180,12.0,0.0
835,38.0,240,180,14.0,0.0
836,50.0,0,180,13.0,0.0
837,50.0,0,180,13.0,0.0
838,62.0,0,180,12.0,0.0
839,78.0,0,300,10.0,0.0
840,78.0,120,300,11.0,0.0
841,38.0,120,180,14.0,0.0
842,62.0,0,180,12.0,0.0
843,50.0,0,180,13.0,0.0
844,38.0,0,180,14.0,0.0
845,61.0,0,300,10.0,0.0
846,52.0,0,180,13.0,0.0
847,57.0,0,900,3.0,0.0
848,61.0,120,300,11.0,0.0
849,64.0,0,180,12.0,0.0
850,61.0,0,900,3.0,0.0
851,85.0,0,900,0.0,0.0
852,40.0,120,180,14.0,0.0
853,64.0,0,900,4.0,0.0
854,73.0,0,900,1.0,0.0
855,52.0,0,900,4.0,0.0
856,69.0,0,900,2.0,0.0
857,52.0,240,180,13.0,0.0
858,40.0,0,180,14.0,0.0
859,64.0,0,180,12.0,0.0
860,52.0,120,180,13.0,0.0
861,76.0,120,300,11.0,0.0
862,64.0,0,180,12.0,0.0
863,76.0,0,300,10.0,0.0
864,40.0,0,180,14.0,0.0
865,64.0,0,180,12.0,0.0
866,40.0,240,180,14.0,0.0
867,52.0,0,180,13.0,0.0
868,52.0,0,900,4.0,0.0
869,83.0,0,900,0.0,0.0
870,40.0,0,180,14.0,0.0
871,68.0,240,900,2.0,0.0
872,59.0,120,300,10.0,0.0
873,59.0,0,300,11.0,0.0
874,64.0,0,900,4.0,0.0
875,59.0,0,900,3.0,0.0
876,56.0,0,900,3.0,0.0
877,52.0,0,180,13.0,0.0
878,71.0,0,900,1.0,0.0
879,64.0,120,180,12.0,0.0
880,64.0,240,180,12.0,0.0
881,52.0,0,180,13.0,0.0
882,40.0,0,180,14.0,0.0
883,40.0,0,180,14.0,0.0
884,68.0,0,300,11.0,0.0
885,52.0,120,180,13.0,0.0
886,64.0,0,180,12.0,0.0
887,68.0,120,300,10.0,0.0
888,40.0,0,180,14.0,0.0
889,64.0,0,180,12.0,0.0
890,52.0,0,180,13.0,0.0
891,73.0,0,1890,1.0,0.0
892,69.0,230,1890,1.0,0.0
893,57.0,24,1380,4.0,0.0
894,69.0,0,300,10.0,0.0
895,45.0,0,1890,3.0,0.0
896,57.0,0,1890,3.0,0.0
897,69.0,120,300,0.0,0.0
898,57.0,0,1380,13.0,0.0
899,45.0,0,1380,14.0,0.0
900,57.0,0,180,12.0,0.0
901,61.0,120,180,11.0,0.0
902,69.0,0,1380,4.0,0.0
903,64.0,0,180,11.0,0.0
904,57.0,0,180,12.0,0.0
905,61.0,204,180,11.0,0.0
906,64.0,0,180,11.0,0.0
907,85.0,36,150,10.0,0.0
908,61.0,0,180,11.0,0.0
909,64.0,0,180,11.0,0.0
910,85.0,0,150,0.0,0.0
911,57.0,204,180,12.0,0.0
912,57.0,0,180,12.0,0.0
913,81.0,36,150,10.0,0.0
914,81.0,0,150,0.0,0.0
915,61.0,0,180,11.0,0.0
916,64.0,240,180,11.0,0.0
917,76.0,120,1260,0.0,0.0
918,76.0,0,1260,10.0,0.0
919,61.0,216,180,11.0,0.0
920,57.0,0,180,12.0,0.0
921,64.0,0,180,11.0,0.0
922,57.0,0,180,12.0,0.0
923,64.0,204,180,11.0,0.0
924,61.0,0,180,11.0,0.0
925,57.0,204,180,12.0,0.0
926,61.0,36,150,4.0,0.0
927,57.0,0,150,13.0,0.0
928,73.0,0,150,4.0,0.0
929,45.0,0,150,14.0,0.0
930,61.0,0,180,11.0,0.0
931,64.0,0,180,11.0,0.0
932,45.0,0,150,14.0,0.0
933,57.0,36,150,13.0,0.0
934,57.0,0,150,4.0,0.0
935,61.0,0,180,11.0,0.0
936,69.0,0,150,4.0,0.0
937,64.0,0,180,11.0,0.0
938,57.0,10,180,12.0,0.0
939,56.0,0,1380,13.0,0.0
940,59.0,120,180,12.0,0.0
941,62.0,0,180,11.0,0.0
942,44.0,0,1380,14.0,0.0
943,52.0,0,1380,4.0,0.0
944,64.0,24,1380,4.0,0.0
945,64.0,0,180,11.0,0.0
946,44.0,0,1890,3.0,0.0
947,56.0,0,1890,3.0,0.0
948,74.0,230,1890,1.0,0.0
949,71.0,0,1890,1.0,0.0
950,59.0,0,180,12.0,0.0
951,64.0,0,180,11.0,0.0
952,62.0,204,180,11.0,0.0
953,62.0,0,180,11.0,0.0
954,64.0,204,180,11.0,0.0
955,59.0,0,180,12.0,0.0
956,86.0,36,150,0.0,0.0
957,86.0,0,150,10.0,0.0
958,59.0,0,180,12.0,0.0
959,64.0,0,180,11.0,0.0
960,83.0,0,150,10.0,0.0
961,83.0,36,150,0.0,0.0
962,62.0,240,180,11.0,0.0
963,76.0,120,1260,10.0,0.0
964,76.0,0,1260,0.0,0.0
965,62.0,0,180,11.0,0.0
966,64.0,0,180,11.0,0.0
967,59.0,216,180,12.0,0.0
968,64.0,0,180,11.0,0.0
969,59.0,204,180,12.0,0.0
970,62.0,0,180,11.0,0.0
971,64.0,0,150,4.0,0.0
972,52.0,0,150,4.0,0.0
973,56.0,36,150,13.0,0.0
974,59.0,0,180,12.0,0.0
975,62.0,204,180,11.0,0.0
976,64.0,0,180,11.0,0.0
977,44.0,0,150,14.0,0.0
978,62.0,0,180,11.0,0.0
979,44.0,0,150,14.0,0.0
980,64.0,10,180,11.0,0.0
981,52.0,0,150,4.0,0.0
982,59.0,0,180,12.0,0.0
983,64.0,0,150,4.0,0.0
984,56.0,36,150,13.0,0.0
985,69.0,0,1890,1.0,0.0
986,45.0,0,1890,3.0,0.0
987,57.0,0,1890,3.0,0.0
988,73.0,230,1890,1.0,0.0
989,57.0,0,1380,4.0,0.0
990,45.0,0,1380,14.0,0.0
991,57.0,0,180,12.0,0.0
992,57.0,24,1380,13.0,0.0
993,69.0,0,1380,4.0,0.0
994,64.0,120,180,11.0,0.0
995,61.0,0,180,11.0,0.0
996,64.0,0,180,11.0,0.0
997,57.0,204,180,12.0,0.0
998,61.0,0,180,11.0,0.0
999,64.0,0,180,11.0,0.0
1000,61.0,204,180,11.0,0.0
1001,85.0,36,150,0.0,0.0
1002,85.0,0,150,10.0,0.0
1003,57.0,0,180,12.0,0.0
1004,61.0,240,180,11.0,0.0
1005,64.0,0,180,11.0,0.0
1006,57.0,0,180,12.0,0.0
1007,81.0,36,150,10.0,0.0
1008,81.0,0,150,0.0,0.0
1009,57.0,216,180,12.0,0.0
1010,76.0,120,1260,10.0,0.0
1011,61.0,0,180,11.0,0.0
1012,64.0,0,180,11.0,0.0
1013,76.0,0,1260,0.0,0.0
1014,57.0,204,180,12.0,0.0
1015,64.0,0,180,11.0,0.0
1016,61.0,0,180,11.0,0.0
1017,57.0,36,150,13.0,0.0
1018,61.0,0,150,4.0,0.0
1019,73.0,0,150,4.0,0.0
1020,61.0,0,180,11.0,0.0
1021,57.0,204,180,12.0,0.0
1022,45.0,0,150,14.0,0.0
1023,64.0,0,180,11.0,0.0
1024,57.0,0,150,4.0,0.0
1025,64.0,0,180,11.0,0.0
1026,61.0,10,180,11.0,0.0
1027,57.0,0,180,12.0,0.0
1028,57.0,0,150,13.0,0.0
1029,45.0,36,150,14.0,0.0
1030,69.0,0,150,4.0,0.0
1031,52.0,0,1380,4.0,0.0
1032,64.0,0,1380,4.0,0.0
1033,56.0,24,1380,13.0,0.0
1034,64.0,0,180,11.0,0.0
1035,44.0,0,1380,14.0,0.0
1036,44.0,230,1890,3.0,0.0
1037,62.0,120,180,11.0,0.0
1038,71.0,0,1890,1.0,0.0
1039,74.0,0,1890,1.0,0.0
1040,56.0,0,1890,3.0,0.0
1041,59.0,0,180,12.0,0.0
1042,64.0,0,180,11.0,0.0
1043,62.0,0,180,11.0,0.0
1044,59.0,204,180,12.0,0.0
1045,64.0,0,180,11.0,0.0
1046,62.0,0,180,11.0,0.0
1047,59.0,204,180,12.0,0.0
1048,86.0,36,150,10.0,0.0
1049,86.0,0,150,0.0,0.0
1050,83.0,0,150,0.0,0.0
1051,59.0,240,180,12.0,0.0
1052,62.0,0,180,11.0,0.0
1053,64.0,0,180,11.0,0.0
1054,83.0,36,150,10.0,0.0
1055,76.0,0,1260,10.0,0.0
1056,76.0,12,630,0.0,0.0
1057,64.0,216,180,11.0,0.0
1058,62.0,0,180,11.0,0.0
1059,59.0,0,180,12.0,0.0
1060,59.0,0,180,12.0,0.0
1061,62.0,0,180,11.0,0.0
1062,64.0,192,180,11.0,0.0
1063,64.0,0,150,4.0,0.0
1064,44.0,0,150,14.0,0.0
1065,64.0,0,180,11.0,0.0
1066,62.0,0,180,11.0,0.0
1067,52.0,0,150,4.0,0.0
1068,59.0,204,180,12.0,0.0
1069,56.0,36,150,13.0,0.0
1070,56.0,36,150,13.0,0.0
1071,52.0,0,150,4.0,0.0
1072,62.0,0,180,11.0,0.0
1073,64.0,0,180,11.0,0.0
1074,59.0,10,180,12.0,0.0
1075,44.0,0,150,14.0,0.0
1076,64.0,0,150,4.0,0.0
1077,69.0,0,1890,1.0,0.0
1078,73.0,18,1890,1.0,0.0
1079,57.0,0,300,3.0,0.0
1080,61.0,0,180,11.0,0.0
1081,64.0,120,180,11.0,0.0
1082,45.0,120,300,3.0,0.0
1083,69.0,0,930,4.0,0.0
1084,57.0,0,180,12.0,0.0
1085,85.0,0,1890,0.0,0.0
1086,57.0,212,930,4.0,0.0
1087,57.0,0,300,13.0,0.0
1088,45.0,0,300,14.0,0.0
1089,64.0,0,180,11.0,0.0
1090,61.0,204,180,11.0,0.0
1091,57.0,0,180,12.0,0.0
1092,57.0,0,150,13.0,0.0
1093,45.0,36,150,14.0,0.0
1094,64.0,120,180,11.0,0.0
1095,61.0,0,180,11.0,0.0
1096,85.0,0,300,10.0,0.0
1097,76.0,84,300,10.0,0.0
1098,57.0,0,150,3.0,0.0
1099,57.0,0,180,12.0,0.0
1100,45.0,0,150,14.0,0.0
1101,64.0,0,180,11.0,0.0
1102,61.0,28,180,11.0,0.0
1103,57.0,0,150,13.0,0.0
1104,57.0,0,180,12.0,0.0
1105,57.0,36,150,3.0,0.0
1106,73.0,212,930,4.0,0.0
1107,66.0,120,180,12.0,0.0
1108,69.0,0,1890,4.0,0.0
1109,54.0,0,300,13.0,0.0
1110,69.0,0,180,11.0,0.0
1111,61.0,0,180,11.0,0.0
1112,42.0,120,300,14.0,0.0
1113,54.0,0,300,3.0,0.0
1114,69.0,0,180,11.0,0.0
1115,61.0,0,180,11.0,0.0
1116,66.0,204,180,12.0,0.0
1117,81.0,0,300,10.0,0.0
1118,69.0,0,180,11.0,0.0
1119,66.0,120,180,12.0,0.0
1120,61.0,0,180,11.0,0.0
1121,73.0,84,300,10.0,0.0
1122,54.0,36,150,3.0,0.0
1123,54.0,0,150,13.0,0.0
1124,42.0,0,150,14.0,0.0
1125,61.0,0,180,11.0,0.0
1126,69.0,10,180,11.0,0.0
1127,54.0,0,150,3.0,0.0
1128,42.0,0,150,14.0,0.0
1129,54.0,36,150,13.0,0.0
1130,66.0,0,180,12.0,0.0
1131,71.0,0,930,1.0,0.0
1132,86.0,0,930,0.0,0.0
1133,66.0,0,180,12.0,0.0
1134,69.0,0,180,11.0,0.0
1135,38.0,0,300,14.0,0.0
1136,50.0,120,300,3.0,0.0
1137,74.0,212,930,1.0,0.0
1138,59.0,120,180,11.0,0.0
1139,71.0,176,1890,4.0,0.0
1140,50.0,0,300,13.0,0.0
1141,66.0,0,180,12.0,0.0
1142,69.0,0,180,11.0,0.0
1143,59.0,204,180,11.0,0.0
1144,83.0,84,300,10.0,0.0
1145,50.0,36,150,13.0,0.0
1146,59.0,0,180,11.0,0.0
1147,50.0,0,150,3.0,0.0
1148,74.0,0,300,10.0,0.0
1149,69.0,120,180,11.0,0.0
1150,38.0,0,150,14.0,0.0
1151,66.0,0,180,12.0,0.0
1152,38.0,0,150,14.0,0.0
1153,69.0,0,180,11.0,0.0
1154,50.0,0,150,3.0,0.0
1155,59.0,0,180,11.0,0.0
1156,50.0,36,150,13.0,0.0
1157,66.0,28,180,12.0,0.0
1158,71.0,0,930,1.0,0.0
1159,68.0,0,930,1.0,0.0
1160,64.0,0,180,12.0,0.0
1161,64.0,0,930,4.0,0.0
1162,68.0,120,180,11.0,0.0
1163,52.0,120,300,3.0,0.0
1164,83.0,0,930,0.0,0.0
1165,40.0,0,300,14.0,0.0
1166,59.0,0,180,11.0,0.0
1167,52.0,0,300,13.0,0.0
1168,64.0,204,180,12.0,0.0
1169,68.0,0,180,11.0,0.0
1170,59.0,0,180,11.0,0.0
1171,80.0,0,300,10.0,0.0
1172,40.0,0,150,14.0,0.0
1173,71.0,84,300,10.0,0.0
1174,64.0,0,180,12.0,0.0
1175,52.0,36,150,3.0,0.0
1176,59.0,0,180,11.0,0.0
1177,68.0,120,180,11.0,0.0
1178,52.0,0,150,13.0,0.0
1179,59.0,0,180,11.0,0.0
1180,40.0,0,150,14.0,0.0
1181,52.0,36,150,3.0,0.0
1182,64.0,0,180,12.0,0.0
1183,52.0,0,150,13.0,0.0
1184,68.0,28,180,11.0,0.0
1185,64.0,0,7650,4.0,0.0
1186,45.0,0,1920,13.0,0.0
1187,57.0,156,150,1.0,0.0
1188,61.0,0,150,1.0,0.0
1189,81.0,156,480,10.0,0.0
1190,45.0,12,390,3.0,0.0
1191,57.0,156,1920,12.0,0.0
1192,33.0,0,1920,14.0,0.0
1193,69.0,0,480,11.0,0.0
1194,81.0,72,300,0.0,0.0
1195,52.0,0,7650,4.0,0.0
1196,59.0,84,150,1.0,0.0
1197,62.0,0,150,1.0,0.0
1198,64.0,0,390,11.0,0.0
1199,64.0,228,150,1.0,0.0
1200,61.0,0,150,1.0,0.0
1201,85.0,0,150,0.0,0.0
1202,76.0,12,390,10.0,0.0
1203,62.0,0,150,1.0,0.0
1204,66.0,0,150,1.0,0.0
1205,81.0,240,150,0.0,0.0
1206,76.0,84,1260,0.0,0.0
1207,68.0,240,150,1.0,0.0
1208,64.0,0,150,1.0,0.0
1209,66.0,240,150,1.0,0.0
1210,69.0,0,150,1.0,0.0
1211,68.0,0,150,1.0,0.0
1212,71.0,240,150,1.0,0.0
1213,76.0,0,480,10.0,0.0
1214,64.0,0,480,11.0,0.0
1215,73.0,0,150,1.0,0.0
1216,69.0,84,150,1.0,0.0
1217,44.0,0,1890,13.0,0.0
1218,86.0,0,480,10.0,0.0
1219,50.0,0,150,3.0,0.0
1220,74.0,0,300,1.0,0.0
1221,71.0,0,300,1.0,0.0
1222,47.0,156,150,3.0,0.0
1223,56.0,0,1890,12.0,0.0
1224,32.0,38,1890,14.0,0.0
1225,74.0,156,480,11.0,0.0
1226,52.0,0,150,3.0,0.0
1227,49.0,84,150,3.0,0.0
1228,54.0,0,150,3.0,0.0
1229,50.0,0,150,3.0,0.0
1230,86.0,228,150,0.0,0.0
1231,64.0,0,390,11.0,0.0
1232,76.0,12,390,10.0,0.0
1233,83.0,0,150,0.0,0.0
1234,56.0,240,150,3.0,0.0
1235,52.0,0,150,3.0,0.0
1236,57.0,240,150,3.0,0.0
1237,76.0,0,1260,0.0,0.0
1238,54.0,0,150,3.0,0.0
1239,59.0,240,150,3.0,0.0
1240,56.0,0,150,3.0,0.0
1241,57.0,0,150,3.0,0.0
1242,61.0,240,150,3.0,0.0
1243,76.0,0,480,10.0,0.0
1244,64.0,156,480,11.0,0.0
1245,62.0,46,150,3.0,0.0
1246,59.0,0,150,3.0,0.0
1247,85.0,156,480,10.0,0.0
1248,45.0,0,1920,13.0,0.0
1249,33.0,0,1920,14.0,0.0
1250,57.0,0,1920,12.0,0.0
1251,57.0,0,150,1.0,0.0
1252,73.0,0,480,11.0,0.0
1253,57.0,0,300,3.0,0.0
1254,61.0,84,300,3.0,0.0
1255,61.0,156,150,1.0,0.0
1256,62.0,0,150,1.0,0.0
1257,59.0,84,150,1.0,0.0
1258,61.0,228,150,1.0,0.0
1259,85.0,0,150,0.0,0.0
1260,64.0,0,390,11.0,0.0
1261,76.0,12,390,10.0,0.0
1262,64.0,0,150,1.0,0.0
1263,81.0,0,150,0.0,0.0
1264,62.0,240,150,1.0,0.0
1265,66.0,0,150,1.0,0.0
1266,68.0,0,150,1.0,0.0
1267,64.0,240,150,1.0,0.0
1268,76.0,0,1260,0.0,0.0
1269,66.0,240,150,1.0,0.0
1270,69.0,0,150,1.0,0.0
1271,64.0,0,480,11.0,0.0
1272,76.0,156,480,10.0,0.0
1273,68.0,240,150,1.0,0.0
1274,71.0,0,150,1.0,0.0
1275,73.0,84,150,1.0,0.0
1276,69.0,0,150,1.0,0.0
1277,32.0,0,1890,14.0,0.0
1278,71.0,84,300,1.0,0.0
1279,44.0,350,1890,13.0,0.0
1280,50.0,156,150,3.0,0.0
1281,86.0,0,480,10.0,0.0
1282,74.0,156,480,11.0,0.0
1283,56.0,0,1890,12.0,0.0
1284,74.0,0,300,1.0,0.0
1285,47.0,0,150,3.0,0.0
1286,49.0,0,150,3.0,0.0
1287,52.0,84,150,3.0,0.0
1288,50.0,0,150,3.0,0.0
1289,54.0,0,150,3.0,0.0
1290,76.0,12,390,10.0,0.0
1291,64.0,0,390,11.0,0.0
1292,86.0,228,150,0.0,0.0
1293,56.0,0,150,3.0,0.0
1294,52.0,0,150,3.0,0.0
1295,83.0,240,150,0.0,0.0
1296,76.0,12,630,0.0,0.0
1297,54.0,0,150,3.0,0.0
1298,57.0,240,150,3.0,0.0
1299,56.0,228,150,3.0,0.0
1300,59.0,0,150,3.0,0.0
1301,64.0,0,960,11.0,0.0
1302,76.0,864,960,10.0,0.0
1303,61.0,240,150,3.0,0.0
1304,57.0,0,150,3.0,0.0
1305,59.0,46,150,3.0,0.0
1306,62.0,0,150,3.0,0.0
1307,57.0,96,390,12.0,0.0
1308,33.0,0,390,14.0,0.0
1309,61.0,72,300,3.0,0.0
1310,57.0,0,300,3.0,0.0
1311,45.0,0,390,13.0,0.0
1312,73.0,0,960,11.0,0.0
1313,85.0,864,960,10.0,0.0
1314,42.0,96,390,14.0,0.0
1315,66.0,0,390,12.0,0.0
1316,54.0,0,390,13.0,0.0
1317,81.0,864,960,10.0,0.0
1318,69.0,0,960,11.0,0.0
1319,38.0,0,390,14.0,0.0
1320,62.0,96,390,12.0,0.0
1321,50.0,0,390,13.0,0.0
1322,83.0,0,960,10.0,0.0
1323,71.0,384,960,11.0,0.0
1324,64.0,96,390,12.0,0.0
1325,52.0,0,390,13.0,0.0
1326,40.0,0,390,14.0,0.0
1327,68.0,252,390,11.0,0.0
1328,80.0,0,390,10.0,0.0
1329,65.0,0,150,12.0,0.0
1330,80.0,0,150,11.0,0.0
1331,73.0,0,150,11.0,0.0
1332,71.0,0,1830,1.0,0.0
1333,80.0,12,1830,1.0,0.0
1334,53.0,0,150,13.0,0.0
1335,41.0,0,150,14.0,0.0
1336,53.0,240,150,3.0,0.0
1337,73.0,0,2220,4.0,0.0
1338,85.0,0,1620,10.0,0.0
1339,85.0,152,1620,0.0,0.0
1340,61.0,0,2220,4.0,0.0
1341,53.0,0,150,13.0,0.0
1342,41.0,0,150,14.0,0.0
1343,80.0,240,150,11.0,0.0
1344,73.0,0,150,11.0,0.0
1345,65.0,0,150,12.0,0.0
1346,53.0,0,150,3.0,0.0
1347,41.0,0,150,14.0,0.0
1348,53.0,0,150,13.0,0.0
1349,65.0,0,150,12.0,0.0
1350,80.0,0,150,11.0,0.0
1351,53.0,0,150,3.0,0.0
1352,73.0,240,150,11.0,0.0
1353,80.0,0,150,11.0,0.0
1354,53.0,0,150,3.0,0.0
1355,73.0,240,150,11.0,0.0
1356,65.0,0,150,12.0,0.0
1357,53.0,0,150,13.0,0.0
1358,41.0,0,150,14.0,0.0
1359,65.0,0,150,12.0,0.0
1360,41.0,240,150,14.0,0.0
1361,53.0,0,150,13.0,0.0
1362,53.0,0,150,3.0,0.0
1363,73.0,0,150,11.0,0.0
1364,80.0,0,150,11.0,0.0
1365,41.0,240,150,14.0,0.0
1366,65.0,0,150,12.0,0.0
1367,53.0,0,150,3.0,0.0
1368,73.0,0,150,11.0,0.0
1369,80.0,0,150,11.0,0.0
1370,53.0,0,150,13.0,0.0
1371,53.0,0,150,13.0,0.0
1372,53.0,0,150,3.0,0.0
1373,73.0,0,150,11.0,0.0
1374,80.0,0,150,11.0,0.0
1375,65.0,12,150,12.0,0.0
1376,41.0,0,150,14.0,0.0
1377,80.0,0,150,11.0,0.0
1378,73.0,0,150,11.0,0.0
1379,86.0,64,90,10.0,0.0
1380,86.0,0,90,0.0,0.0
1381,53.0,4,150,13.0,0.0
1382,41.0,0,150,14.0,0.0
1383,53.0,0,150,3.0,0.0
1384,65.0,0,150,12.0,0.0
1385,85.0,80,90,0.0,0.0
1386,85.0,0,90,10.0,0.0
1387,83.0,0,90,0.0,0.0
1388,83.0,156,90,10.0,0.0
1389,54.0,0,150,13.0,0.0
1390,81.0,0,300,10.0,0.0
1391,81.0,84,300,0.0,0.0
1392,42.0,0,150,14.0,0.0
1393,69.0,0,300,1.0,0.0
1394,73.0,0,150,11.0,0.0
1395,78.0,156,150,11.0,0.0
1396,54.0,0,150,3.0,0.0
1397,66.0,0,150,12.0,0.0
1398,81.0,0,300,1.0,0.0
1399,56.0,0,150,3.0,0.0
1400,44.0,240,150,14.0,0.0
1401,73.0,0,150,11.0,0.0
1402,68.0,0,150,12.0,0.0
1403,56.0,0,150,13.0,0.0
1404,78.0,0,150,11.0,0.0
1405,57.0,240,150,13.0,0.0
1406,81.0,0,150,10.0,0.0
1407,81.0,0,150,0.0,0.0
1408,69.0,0,150,4.0,0.0
1409,57.0,0,150,3.0,0.0
1410,73.0,0,150,1.0,0.0
1411,69.0,0,150,12.0,0.0
1412,61.0,0,150,4.0,0.0
1413,45.0,0,150,14.0,0.0
1414,81.0,0,150,1.0,0.0
1415,73.0,0,150,11.0,0.0
1416,78.0,0,150,11.0,0.0
1417,44.0,0,150,14.0,0.0
1418,73.0,0,150,1.0,0.0
1419,81.0,0,150,10.0,0.0
1420,69.0,0,150,4.0,0.0
1421,61.0,0,150,4.0,0.0
1422,81.0,0,150,1.0,0.0
1423,68.0,240,150,12.0,0.0
1424,56.0,0,150,3.0,0.0
1425,73.0,0,150,11.0,0.0
1426,56.0,0,150,13.0,0.0
1427,78.0,0,150,11.0,0.0
1428,81.0,0,150,0.0,0.0
1429,81.0,0,300,10.0,0.0
1430,54.0,0,150,13.0,0.0
1431,81.0,0,300,1.0,0.0
1432,73.0,0,300,1.0,0.0
1433,69.0,0,300,4.0,0.0
1434,61.0,84,300,4.0,0.0
1435,54.0,0,150,3.0,0.0
1436,42.0,156,150,14.0,0.0
1437,73.0,0,150,11.0,0.0
1438,81.0,0,300,0.0,0.0
1439,78.0,0,150,11.0,0.0
1440,66.0,0,150,12.0,0.0
1441,73.0,0,150,11.0,0.0
1442,78.0,0,150,11.0,0.0
1443,40.0,0,150,14.0,0.0
1444,64.0,240,150,12.0,0.0
1445,52.0,0,150,13.0,0.0
1446,52.0,0,150,3.0,0.0
1447,62.0,0,150,12.0,0.0
1448,38.0,0,150,14.0,0.0
1449,81.0,0,300,0.0,0.0
1450,50.0,156,150,3.0,0.0
1451,81.0,0,300,10.0,0.0
1452,69.0,0,300,4.0,0.0
1453,61.0,84,300,4.0,0.0
1454,73.0,0,300,1.0,0.0
1455,81.0,0,300,1.0,0.0
1456,50.0,0,150,13.0,0.0
1457,73.0,0,150,11.0,0.0
1458,78.0,0,150,11.0,0.0
1459,61.0,0,150,12.0,0.0
1460,49.0,0,150,13.0,0.0
1461,37.0,0,150,14.0,0.0
1462,49.0,0,150,3.0,0.0
1463,73.0,0,150,11.0,0.0
1464,78.0,240,150,11.0,0.0
1465,83.0,0,780,10.0,0.0
1466,50.0,0,150,13.0,0.0
1467,62.0,240,150,12.0,0.0
1468,83.0,0,780,0.0,0.0
1469,38.0,0,150,14.0,0.0
1470,83.0,0,780,1.0,0.0
1471,71.0,108,780,4.0,0.0
1472,57.0,0,780,4.0,0.0
1473,69.0,0,150,11.0,0.0
1474,78.0,0,150,11.0,0.0
1475,50.0,0,150,3.0,0.0
1476,78.0,0,780,1.0,0.0
1477,59.0,0,150,12.0,0.0
1478,69.0,0,150,11.0,0.0
1479,47.0,0,150,13.0,0.0
1480,47.0,0,150,3.0,0.0
1481,78.0,0,150,11.0,0.0
1482,35.0,240,150,14.0,0.0
1483,49.0,0,150,3.0,0.0
1484,78.0,0,150,11.0,0.0
1485,49.0,0,150,13.0,0.0
1486,61.0,132,150,12.0,0.0
1487,37.0,0,150,14.0,0.0
1488,69.0,0,150,11.0,0.0
1489,38.0,240,150,14.0,0.0
1490,69.0,0,150,11.0,0.0
1491,78.0,0,150,11.0,0.0
1492,50.0,0,150,3.0,0.0
1493,50.0,0,150,13.0,0.0
1494,62.0,0,150,12.0,0.0
1495,52.0,240,150,13.0,0.0
1496,64.0,0,150,12.0,0.0
1497,68.0,0,150,11.0,0.0
1498,88.0,0,780,0.0,0.0
1499,71.0,0,150,11.0,0.0
1500,52.0,0,780,4.0,0.0
1501,71.0,108,780,4.0,0.0
1502,40.0,0,150,14.0,0.0
1503,76.0,0,780,10.0,0.0
1504,68.0,0,780,1.0,0.0
1505,76.0,0,780,1.0,0.0
1506,52.0,0,150,3.0,0.0
1507,42.0,0,150,14.0,0.0
1508,71.0,0,150,11.0,0.0
1509,68.0,0,150,11.0,0.0
1510,54.0,0,150,13.0,0.0
1511,54.0,0,150,3.0,0.0
1512,66.0,240,150,12.0,0.0
1513,56.0,0,150,3.0,0.0
1514,44.0,132,150,14.0,0.0
1515,56.0,0,150,13.0,0.0
1516,71.0,0,150,11.0,0.0
1517,68.0,0,150,11.0,0.0
1518,68.0,0,150,12.0,0.0
1519,71.0,0,150,11.0,0.0
1520,54.0,0,150,13.0,0.0
1521,68.0,240,150,11.0,0.0
1522,54.0,0,150,3.0,0.0
1523,42.0,0,150,14.0,0.0
1524,66.0,0,150,12.0,0.0
1525,85.0,152,1620,10.0,0.0
1526,65.0,0,150,12.0,0.0
1527,61.0,0,2220,4.0,0.0
1528,41.0,0,150,14.0,0.0
1529,80.0,0,150,11.0,0.0
1530,73.0,0,150,11.0,0.0
1531,85.0,0,1620,0.0,0.0
1532,53.0,0,150,13.0,0.0
1533,80.0,0,1830,1.0,0.0
1534,71.0,12,1830,1.0,0.0
1535,73.0,84,2220,4.0,0.0
1536,53.0,240,150,3.0,0.0
1537,65.0,0,150,12.0,0.0
1538,41.0,0,150,14.0,0.0
1539,53.0,0,150,3.0,0.0
1540,80.0,240,150,11.0,0.0
1541,53.0,0,150,13.0,0.0
1542,73.0,0,150,11.0,0.0
1543,73.0,240,150,11.0,0.0
1544,80.0,0,150,11.0,0.0
1545,41.0,0,150,14.0,0.0
1546,53.0,0,150,13.0,0.0
1547,53.0,0,150,3.0,0.0
1548,65.0,0,150,12.0,0.0
1549,53.0,0,150,13.0,0.0
1550,53.0,0,150,3.0,0.0
1551,73.0,240,150,11.0,0.0
1552,80.0,0,150,11.0,0.0
1553,41.0,0,150,14.0,0.0
1554,65.0,0,150,12.0,0.0
1555,53.0,0,150,3.0,0.0
1556,73.0,0,150,11.0,0.0
1557,53.0,0,150,13.0,0.0
1558,65.0,240,150,12.0,0.0
1559,80.0,0,150,11.0,0.0
1560,41.0,0,150,14.0,0.0
1561,41.0,0,150,14.0,0.0
1562,53.0,0,150,13.0,0.0
1563,80.0,0,150,11.0,0.0
1564,73.0,0,150,11.0,0.0
1565,65.0,240,150,12.0,0.0
1566,53.0,0,150,3.0,0.0
1567,65.0,12,150,12.0,0.0
1568,53.0,0,150,13.0,0.0
1569,41.0,0,150,14.0,0.0
1570,73.0,0,150,11.0,0.0
1571,80.0,0,150,11.0,0.0
1572,53.0,0,150,3.0,0.0
1573,53.0,0,150,13.0,0.0
1574,65.0,0,150,12.0,0.0
1575,73.0,0,150,11.0,0.0
1576,86.0,64,90,10.0,0.0
1577,86.0,0,90,0.0,0.0
1578,53.0,4,150,3.0,0.0
1579,80.0,0,150,11.0,0.0
1580,41.0,0,150,14.0,0.0
1581,85.0,0,90,10.0,0.0
1582,85.0,80,90,0.0,0.0
1583,83.0,156,90,10.0,0.0
1584,83.0,0,90,0.0,0.0
1585,81.0,0,300,1.0,0.0
1586,69.0,0,300,1.0,0.0
1587,81.0,0,300,0.0,0.0
1588,54.0,156,150,13.0,0.0
1589,81.0,0,300,10.0,0.0
1590,73.0,0,150,11.0,0.0
1591,78.0,0,150,11.0,0.0
1592,54.0,0,150,3.0,0.0
1593,42.0,0,150,14.0,0.0
1594,66.0,0,150,12.0,0.0
1595,56.0,0,150,13.0,0.0
1596,78.0,0,150,11.0,0.0
1597,73.0,240,150,11.0,0.0
1598,44.0,0,150,14.0,0.0
1599,56.0,0,150,3.0,0.0
1600,68.0,0,150,12.0,0.0
1601,73.0,0,150,11.0,0.0
1602,45.0,0,150,14.0,0.0
1603,73.0,0,150,1.0,0.0
1604,61.0,0,150,4.0,0.0
1605,81.0,0,150,10.0,0.0
1606,69.0,0,150,12.0,0.0
1607,69.0,0,150,4.0,0.0
1608,78.0,0,150,11.0,0.0
1609,57.0,0,150,13.0,0.0
1610,57.0,0,150,3.0,0.0
1611,81.0,0,150,1.0,0.0
1612,81.0,240,150,0.0,0.0
1613,68.0,0,150,12.0,0.0
1614,44.0,0,150,14.0,0.0
1615,69.0,0,150,4.0,0.0
1616,81.0,0,150,10.0,0.0
1617,81.0,0,150,0.0,0.0
1618,56.0,0,150,3.0,0.0
1619,78.0,0,150,11.0,0.0
1620,73.0,0,150,11.0,0.0
1621,56.0,0,150,13.0,0.0
1622,81.0,0,150,1.0,0.0
1623,61.0,240,150,4.0,0.0
1624,73.0,0,150,1.0,0.0
1625,81.0,0,300,0.0,0.0
1626,54.0,0,150,3.0,0.0
1627,81.0,0,300,10.0,0.0
1628,73.0,0,150,11.0,0.0
1629,78.0,156,150,11.0,0.0
1630,81.0,0,300,1.0,0.0
1631,73.0,0,300,1.0,0.0
1632,54.0,0,150,13.0,0.0
1633,61.0,0,300,4.0,0.0
1634,69.0,84,300,4.0,0.0
1635,42.0,0,150,14.0,0.0
1636,66.0,0,150,12.0,0.0
1637,78.0,0,150,11.0,0.0
1638,64.0,240,150,12.0,0.0
1639,73.0,0,150,11.0,0.0
1640,52.0,0,150,3.0,0.0
1641,40.0,0,150,14.0,0.0
1642,52.0,0,150,13.0,0.0
1643,69.0,0,300,4.0,0.0
1644,78.0,0,150,11.0,0.0
1645,73.0,0,150,11.0,0.0
1646,38.0,0,150,14.0,0.0
1647,73.0,0,300,1.0,0.0
1648,61.0,0,300,4.0,0.0
1649,62.0,0,150,12.0,0.0
1650,81.0,84,300,0.0,0.0
1651,50.0,156,150,3.0,0.0
1652,81.0,0,300,10.0,0.0
1653,81.0,0,300,1.0,0.0
1654,50.0,0,150,13.0,0.0
1655,78.0,0,150,11.0,0.0
1656,49.0,0,150,13.0,0.0
1657,49.0,0,150,3.0,0.0
1658,61.0,0,150,12.0,0.0
1659,73.0,240,150,11.0,0.0
1660,37.0,0,150,14.0,0.0
1661,71.0,0,780,4.0,0.0
1662,50.0,0,150,13.0,0.0
1663,62.0,0,150,12.0,0.0
1664,83.0,0,780,0.0,0.0
1665,83.0,0,780,1.0,0.0
1666,78.0,0,150,11.0,0.0
1667,69.0,240,150,11.0,0.0
1668,38.0,0,150,14.0,0.0
1669,50.0,0,150,3.0,0.0
1670,83.0,108,780,10.0,0.0
1671,78.0,0,780,1.0,0.0
1672,57.0,0,780,4.0,0.0
1673,49.0,0,150,3.0,0.0
1674,69.0,0,150,11.0,0.0
1675,61.0,0,150,12.0,0.0
1676,37.0,240,150,14.0,0.0
1677,49.0,0,150,13.0,0.0
1678,78.0,0,150,11.0,0.0
1679,62.0,0,150,12.0,0.0
1680,50.0,0,150,13.0,0.0
1681,50.0,0,150,3.0,0.0
1682,38.0,132,150,14.0,0.0
1683,78.0,0,150,11.0,0.0
1684,69.0,0,150,11.0,0.0
1685,78.0,240,150,11.0,0.0
1686,59.0,0,150,12.0,0.0
1687,47.0,0,150,3.0,0.0
1688,69.0,0,150,11.0,0.0
1689,47.0,0,150,13.0,0.0
1690,35.0,0,150,14.0,0.0
1691,52.0,0,150,13.0,0.0
1692,88.0,0,780,0.0,0.0
1693,68.0,0,780,1.0,0.0
1694,64.0,240,150,12.0,0.0
1695,40.0,0,150,14.0,0.0
1696,71.0,0,150,11.0,0.0
1697,52.0,0,150,3.0,0.0
1698,71.0,0,780,4.0,0.0
1699,76.0,108,780,1.0,0.0
1700,76.0,0,780,10.0,0.0
1701,52.0,0,780,4.0,0.0
1702,68.0,0,150,11.0,0.0
1703,50.0,0,150,13.0,0.0
1704,62.0,240,150,12.0,0.0
1705,68.0,0,150,11.0,0.0
1706,71.0,0,150,11.0,0.0
1707,38.0,0,150,14.0,0.0
1708,50.0,0,150,3.0,0.0
1709,71.0,0,150,11.0,0.0
1710,68.0,0,150,11.0,0.0
1711,49.0,132,150,3.0,0.0
1712,37.0,0,150,14.0,0.0
1713,49.0,0,150,13.0,0.0
1714,61.0,0,150,12.0,0.0
1715,35.0,396,150,14.0,0.0
1716,71.0,0,150,11.0,0.0
1717,68.0,0,150,11.0,0.0
1718,59.0,0,150,12.0,0.0
1719,47.0,0,150,13.0,0.0
1720,47.0,0,150,3.0,0.0
1721,45.0,0,810,13.0,0.0
1722,57.0,0,810,12.0,0.0
1723,81.0,0,390,1.0,0.0
1724,81.0,252,390,0.0,0.0
1725,81.0,0,390,10.0,0.0
1726,73.0,0,390,11.0,0.0
1727,69.0,0,390,11.0,0.0
1728,45.0,60,810,3.0,0.0
1729,33.0,0,810,14.0,0.0
1730,57.0,72,300,4.0,0.0
1731,69.0,0,300,4.0,0.0
1732,57.0,36,150,4.0,0.0
1733,69.0,0,180,1.0,0.0
1734,81.0,144,180,0.0,0.0
1735,61.0,36,150,4.0,0.0
1736,85.0,360,180,0.0,0.0
1737,73.0,0,180,1.0,0.0
1738,88.0,408,390,0.0,0.0
1739,64.0,72,300,4.0,0.0
1740,76.0,0,390,1.0,0.0
1741,64.0,0,300,10.0,0.0
1742,80.0,72,300,10.0,0.0
1743,71.0,0,300,10.0,0.0
1744,40.0,0,300,14.0,0.0
1745,64.0,0,300,12.0,0.0
1746,64.0,0,300,11.0,0.0
1747,52.0,0,300,3.0,0.0
1748,71.0,0,300,11.0,0.0
1749,71.0,408,390,1.0,0.0
1750,68.0,0,390,1.0,0.0
1751,88.0,0,390,0.0,0.0
1752,64.0,0,300,4.0,0.0
1753,80.0,0,300,11.0,0.0
1754,52.0,0,300,13.0,0.0
1755,73.0,0,420,10.0,0.0
1756,73.0,0,390,1.0,0.0
1757,69.0,24,390,1.0,0.0
1758,64.0,0,420,10.0,0.0
1759,81.0,24,900,10.0,0.0
1760,57.0,60,810,13.0,0.0
1761,64.0,228,420,11.0,0.0
1762,73.0,0,420,11.0,0.0
1763,69.0,0,810,12.0,0.0
1764,57.0,0,810,3.0,0.0
1765,81.0,0,900,11.0,0.0
1766,45.0,0,810,14.0,0.0
1767,81.0,0,390,0.0,0.0
1768,57.0,0,300,4.0,0.0
1769,69.0,72,300,4.0,0.0
1770,69.0,144,180,1.0,0.0
1771,57.0,36,150,4.0,0.0
1772,81.0,0,180,0.0,0.0
1773,85.0,360,180,0.0,0.0
1774,61.0,12,150,4.0,0.0
1775,73.0,0,180,1.0,0.0
1776,64.0,72,300,4.0,0.0
1777,88.0,0,390,0.0,0.0
1778,76.0,408,390,1.0,0.0
1779,88.0,0,390,0.0,0.0
1780,71.0,504,390,1.0,0.0
1781,64.0,0,300,11.0,0.0
1782,80.0,0,300,10.0,0.0
1783,64.0,0,300,10.0,0.0
1784,71.0,0,300,10.0,0.0
1785,40.0,0,300,14.0,0.0
1786,64.0,0,300,4.0,0.0
1787,80.0,0,300,11.0,0.0
1788,71.0,0,300,11.0,0.0
1789,68.0,0,390,1.0,0.0
1790,52.0,0,300,3.0,0.0
1791,52.0,0,300,13.0,0.0
1792,64.0,72,300,12.0,0.0
1793,73.0,0,420,10.0,0.0
1794,69.0,0,810,12.0,0.0
1795,57.0,72,810,3.0,0.0
1796,85.0,0,780,0.0,0.0
1797,64.0,0,420,11.0,0.0
1798,81.0,0,900,11.0,0.0
1799,64.0,360,420,10.0,0.0
1800,81.0,540,900,10.0,0.0
1801,57.0,0,810,13.0,0.0
1802,73.0,0,420,11.0,0.0
1803,69.0,0,780,1.0,0.0
1804,69.0,0,780,4.0,0.0
1805,57.0,48,780,4.0,0.0
1806,45.0,0,810,14.0,0.0
1807,73.0,0,780,1.0,0.0
1808,57.0,0,480,10.0,0.0
1809,57.0,0,480,11.0,0.0
1810,45.0,0,480,3.0,0.0
1811,69.0,0,570,1.0,0.0
1812,45.0,0,480,13.0,0.0
1813,33.0,0,480,14.0,0.0
1814,81.0,300,570,0.0,0.0
1815,57.0,108,480,12.0,0.0
1816,57.0,0,570,4.0,0.0
1817,81.0,816,180,0.0,0.0
1818,33.0,0,150,14.0,0.0
1819,69.0,0,180,1.0,0.0
1820,57.0,0,150,12.0,0.0
1821,57.0,36,150,11.0,0.0
1822,57.0,0,150,10.0,0.0
1823,45.0,0,150,3.0,0.0
1824,45.0,0,150,13.0,0.0
1825,57.0,0,180,4.0,0.0
1826,45.0,0,780,13.0,0.0
1827,57.0,0,780,10.0,0.0
1828,69.0,0,780,1.0,0.0
1829,57.0,0,780,12.0,0.0
1830,57.0,0,780,11.0,0.0
1831,57.0,0,780,4.0,0.0
1832,33.0,1920,780,14.0,0.0
1833,45.0,0,780,3.0,0.0
1834,81.0,0,780,0.0,0.0
1835,57.0,1440,1920,7.0,0.0
1836,73.0,912,780,6.0,0.0
1837,74.0,240,720,6.0,0.0
1838,59.0,0,960,7.0,0.0
1839,71.0,0,240,6.0,0.0
1840,61.0,0,1920,7.0,0.0
1841,57.0,0,5190,7.0,0.0
1842,76.0,480,1440,6.0,0.0
1843,77.0,288,480,6.0,0.0
1844,78.0,480,300,6.0,0.0
1845,62.0,0,300,7.0,0.0
1846,80.0,0,300,6.0,0.0
1847,64.0,480,300,7.0,0.0
1848,66.0,0,300,7.0,0.0
1849,81.0,480,300,6.0,0.0
1850,64.0,0,300,7.0,0.0
1851,80.0,672,300,6.0,0.0
1852,64.0,0,480,7.0,0.0
1853,80.0,480,480,6.0,0.0
1854,62.0,384,480,7.0,0.0
1855,78.0,0,480,6.0,0.0
1856,76.0,696,390,6.0,0.0
1857,61.0,0,390,7.0,0.0
1858,64.0,0,900,7.0,0.0
1859,57.0,48,900,7.0,0.0
1860,61.0,0,900,7.0,0.0
1861,76.0,600,120,6.0,0.0
1862,85.0,192,600,6.0,0.0
1863,81.0,120,240,6.0,0.0
1864,80.0,600,120,6.0,0.0
1865,62.0,0,900,7.0,0.0
1866,59.0,48,900,7.0,0.0
1867,68.0,0,900,7.0,0.0
1868,86.0,192,600,6.0,0.0
1869,83.0,60,240,6.0,0.0
1870,81.0,60,60,6.0,0.0
1871,61.0,0,390,7.0,0.0
1872,64.0,96,390,7.0,0.0
1873,69.0,0,390,7.0,0.0
1874,85.0,264,60,6.0,0.0
1875,88.0,236,360,6.0,0.0
1876,86.0,240,240,6.0,0.0
1877,85.0,240,240,6.0,0.0
1878,83.0,240,240,6.0,0.0
1879,81.0,240,240,6.0,0.0
1880,80.0,240,240,6.0,0.0
1881,78.0,240,240,6.0,0.0
1882,76.0,240,240,6.0,0.0
1883,74.0,240,240,6.0,0.0
1884,73.0,240,240,6.0,0.0
1885,71.0,316,240,6.0,0.0
1886,69.0,432,300,6.0,0.0
1887,78.0,1128,300,6.0,0.0
1888,51.0,0,270,7.0,0.0
1889,57.0,48,270,7.0,0.0
1890,57.0,384,960,7.0,0.0
1891,52.0,1536,1350,7.0,0.0
1892,73.0,0,960,6.0,0.0
1893,71.0,0,390,6.0,0.0
1894,56.0,0,390,7.0,0.0
1895,69.0,480,960,2.0,0.0
1896,73.0,0,960,1.0,0.0
1897,71.0,0,480,2.0,0.0
1898,74.0,480,480,1.0,0.0
1899,72.0,792,480,2.0,0.0
1900,75.0,0,480,1.0,0.0
1901,73.0,0,1920,2.0,0.0
1902,76.0,312,1440,1.0,0.0
1903,57.0,0,300,4.0,0.0
1904,69.0,480,300,4.0,0.0
1905,69.0,0,300,4.0,0.0
1906,57.0,168,300,4.0,0.0
1907,69.0,0,300,4.0,0.0
1908,77.0,480,480,1.0,0.0
1909,57.0,168,300,4.0,0.0
1910,74.0,480,480,2.0,0.0
1911,69.0,0,3330,4.0,0.0
1912,57.0,984,3330,4.0,0.0
1913,78.0,0,480,1.0,0.0
1914,76.0,0,480,2.0,0.0
1915,80.0,480,480,1.0,0.0
1916,78.0,0,480,2.0,0.0
1917,81.0,480,480,1.0,0.0
1918,80.0,480,480,1.0,0.0
1919,76.0,0,15,2.0,0.0
1920,80.0,480,480,1.0,0.0
1921,74.0,384,480,2.0,0.0
1922,78.0,0,480,1.0,0.0
1923,73.0,72,390,2.0,0.0
1924,76.0,0,390,1.0,0.0
1925,49.0,0,1890,7.0,0.0
1926,52.0,0,1890,7.0,0.0
1927,57.0,194,1890,7.0,0.0
1928,73.0,156,240,6.0,0.0
1929,88.0,240,150,6.0,0.0
1930,86.0,240,150,6.0,0.0
1931,85.0,240,150,6.0,0.0
1932,83.0,240,150,6.0,0.0
1933,81.0,240,150,6.0,0.0
1934,80.0,46,150,6.0,0.0
1935,78.0,240,150,6.0,0.0
1936,59.0,0,1890,7.0,0.0
1937,54.0,278,1890,7.0,0.0
1938,50.0,0,1890,7.0,0.0
1939,76.0,240,150,6.0,0.0
1940,74.0,240,150,6.0,0.0
1941,73.0,240,150,6.0,0.0
1942,71.0,240,150,6.0,0.0
1943,69.0,240,150,6.0,0.0
1944,68.0,240,150,6.0,0.0
1945,66.0,46,150,6.0,0.0
1946,64.0,240,240,6.0,0.0
1947,52.0,18,1890,7.0,0.0
1948,57.0,0,930,7.0,0.0
1949,61.0,20,930,7.0,0.0
1950,69.0,240,240,6.0,0.0
1951,73.0,220,240,6.0,0.0
1952,62.0,20,930,7.0,0.0
1953,59.0,0,930,7.0,0.0
1954,76.0,240,15,6.0,0.0
1955,74.0,240,240,6.0,0.0
1956,71.0,202,240,6.0,0.0
1957,68.0,236,240,6.0,0.0
1958,45.0,0,7680,13.0,0.0
1959,69.0,0,1920,10.0,0.0
1960,57.0,0,1920,12.0,0.0
1961,57.0,148,240,7.0,0.0
1962,33.0,384,7680,14.0,0.0
1963,69.0,92,390,6.0,0.0
1964,64.0,0,8070,11.0,0.0
1965,61.0,236,1920,11.0,0.0
1966,64.0,240,240,7.0,0.0
1967,61.0,240,240,7.0,0.0
1968,64.0,240,240,7.0,0.0
1969,57.0,240,240,7.0,0.0
1970,64.0,240,240,7.0,0.0
1971,61.0,196,240,7.0,0.0
1972,64.0,4,240,7.0,0.0
1973,69.0,44,180,6.0,0.0
1974,62.0,236,1920,11.0,0.0
1975,68.0,0,1920,10.0,0.0
1976,71.0,120,240,6.0,0.0
1977,59.0,0,1920,12.0,0.0
1978,57.0,4,240,7.0,0.0
1979,64.0,4,240,7.0,0.0
1980,73.0,116,120,6.0,0.0
1981,71.0,120,120,6.0,0.0
1982,62.0,4,240,7.0,0.0
1983,69.0,116,120,6.0,0.0
1984,71.0,156,120,6.0,0.0
1985,73.0,80,150,6.0,0.0
1986,64.0,160,240,7.0,0.0
1987,57.0,160,240,7.0,0.0
1988,74.0,80,150,6.0,0.0
1989,76.0,80,150,6.0,0.0
1990,64.0,160,240,7.0,0.0
1991,78.0,80,150,6.0,0.0
1992,62.0,160,240,7.0,0.0
1993,80.0,80,150,6.0,0.0
1994,64.0,4,240,7.0,0.0
1995,69.0,0,1920,10.0,0.0
1996,57.0,240,240,7.0,0.0
1997,61.0,0,1920,11.0,0.0
1998,57.0,236,1920,12.0,0.0
1999,81.0,236,480,6.0,0.0
2000,64.0,4,240,7.0,0.0
2001,76.0,92,390,6.0,0.0
2002,61.0,148,240,7.0,0.0
2003,64.0,240,240,7.0,0.0
2004,57.0,240,240,7.0,0.0
2005,64.0,240,240,7.0,0.0
2006,61.0,196,240,7.0,0.0
2007,69.0,44,180,6.0,0.0
2008,64.0,4,240,7.0,0.0
2009,71.0,120,240,6.0,0.0
2010,62.0,0,1920,11.0,0.0
2011,59.0,0,1920,12.0,0.0
2012,57.0,4,240,7.0,0.0
2013,68.0,0,1920,10.0,0.0
2014,64.0,4,240,7.0,0.0
2015,73.0,116,120,6.0,0.0
2016,71.0,120,120,6.0,0.0
2017,69.0,116,120,6.0,0.0
2018,62.0,4,240,7.0,0.0
2019,71.0,156,120,6.0,0.0
2020,64.0,160,240,7.0,0.0
2021,73.0,80,150,6.0,0.0
2022,57.0,160,240,7.0,0.0
2023,74.0,80,150,6.0,0.0
2024,64.0,160,240,7.0,0.0
2025,76.0,80,150,6.0,0.0
2026,78.0,80,150,6.0,0.0
2027,62.0,160,240,7.0,0.0
2028,80.0,80,150,6.0,0.0
2029,64.0,4,240,7.0,0.0
2030,69.0,0,390,10.0,0.0
2031,61.0,0,390,11.0,0.0
2032,57.0,0,390,13.0,0.0
2033,45.0,0,390,14.0,0.0
2034,57.0,0,390,12.0,0.0
2035,81.0,480,390,6.0,0.0
2036,57.0,0,390,7.0,0.0
2037,61.0,96,390,7.0,0.0
2038,81.0,384,240,6.0,0.0
2039,44.0,0,390,14.0,0.0
2040,64.0,0,390,11.0,0.0
2041,56.0,0,390,13.0,0.0
2042,71.0,480,390,10.0,0.0
2043,62.0,0,390,12.0,0.0
2044,83.0,0,390,6.0,0.0
2045,56.0,96,390,7.0,0.0
2046,64.0,0,390,7.0,0.0
2047,83.0,384,240,6.0,0.0
2048,61.0,480,390,12.0,0.0
2049,57.0,0,390,13.0,0.0
2050,45.0,0,390,14.0,0.0
2051,85.0,0,390,6.0,0.0
2052,64.0,0,390,11.0,0.0
2053,73.0,0,390,10.0,0.0
2054,64.0,0,390,7.0,0.0
2055,57.0,96,390,7.0,0.0
2056,85.0,384,240,6.0,0.0
2057,87.0,0,390,6.0,0.0
2058,54.0,0,390,13.0,0.0
2059,42.0,0,390,14.0,0.0
2060,69.0,0,390,11.0,0.0
2061,57.0,0,390,12.0,0.0
2062,75.0,480,390,10.0,0.0
2063,54.0,96,390,7.0,0.0
2064,57.0,0,390,7.0,0.0
2065,87.0,236,240,6.0,0.0
2066,64.0,0,1920,10.0,0.0
2067,52.0,0,1920,12.0,0.0
2068,59.0,0,8070,11.0,0.0
2069,52.0,148,240,7.0,0.0
2070,52.0,0,8070,13.0,0.0
2071,88.0,92,390,6.0,0.0
2072,40.0,0,8070,14.0,0.0
2073,56.0,236,1920,12.0,0.0
2074,59.0,240,240,7.0,0.0
2075,56.0,240,240,7.0,0.0
2076,59.0,240,240,7.0,0.0
2077,52.0,240,240,7.0,0.0
2078,59.0,240,240,7.0,0.0
2079,56.0,196,240,7.0,0.0
2080,64.0,44,180,6.0,0.0
2081,59.0,4,240,7.0,0.0
2082,54.0,0,1920,12.0,0.0
2083,63.0,0,1920,10.0,0.0
2084,57.0,236,1920,12.0,0.0
2085,52.0,4,240,7.0,0.0
2086,66.0,120,240,6.0,0.0
2087,59.0,4,240,7.0,0.0
2088,68.0,116,120,6.0,0.0
2089,66.0,120,120,6.0,0.0
2090,64.0,116,120,6.0,0.0
2091,57.0,4,240,7.0,0.0
2092,66.0,156,120,6.0,0.0
2093,59.0,160,240,7.0,0.0
2094,68.0,80,150,6.0,0.0
2095,52.0,160,240,7.0,0.0
2096,69.0,80,150,6.0,0.0
2097,71.0,80,150,6.0,0.0
2098,59.0,160,240,7.0,0.0
2099,73.0,80,150,6.0,0.0
2100,57.0,160,240,7.0,0.0
2101,75.0,80,150,6.0,0.0
2102,59.0,4,240,7.0,0.0
2103,52.0,240,240,7.0,0.0
2104,52.0,236,1920,12.0,0.0
2105,56.0,0,1920,12.0,0.0
2106,76.0,236,480,6.0,0.0
2107,64.0,0,1920,10.0,0.0
2108,59.0,4,240,7.0,0.0
2109,56.0,148,240,7.0,0.0
2110,71.0,92,390,6.0,0.0
2111,59.0,240,240,7.0,0.0
2112,52.0,240,240,7.0,0.0
2113,59.0,240,240,7.0,0.0
2114,56.0,196,240,7.0,0.0
2115,76.0,44,180,6.0,0.0
2116,59.0,4,240,7.0,0.0
2117,63.0,0,1920,10.0,0.0
2118,78.0,120,240,6.0,0.0
2119,52.0,4,240,7.0,0.0
2120,54.0,0,1920,12.0,0.0
2121,57.0,384,1920,12.0,0.0
2122,59.0,4,240,7.0,0.0
2123,80.0,116,120,6.0,0.0
2124,78.0,120,120,6.0,0.0
2125,76.0,116,120,6.0,0.0
2126,57.0,4,240,7.0,0.0
2127,78.0,156,120,6.0,0.0
2128,59.0,160,240,7.0,0.0
2129,80.0,80,150,6.0,0.0
2130,52.0,160,240,7.0,0.0
2131,81.0,80,150,6.0,0.0
2132,59.0,160,240,7.0,0.0
2133,83.0,80,150,6.0,0.0
2134,57.0,160,240,7.0,0.0
2135,85.0,80,150,6.0,0.0
2136,87.0,80,150,6.0,0.0
2137,59.0,4,240,7.0,0.0
2138,52.0,0,390,12.0,0.0
2139,88.0,480,390,6.0,0.0
2140,64.0,0,390,10.0,0.0
2141,56.0,0,390,12.0,0.0
2142,52.0,0,390,7.0,0.0
2143,56.0,96,390,7.0,0.0
2144,76.0,384,240,6.0,0.0
2145,66.0,0,390,10.0,0.0
2146,39.0,0,390,14.0,0.0
2147,57.0,0,390,12.0,0.0
2148,59.0,0,390,11.0,0.0
2149,78.0,480,390,6.0,0.0
2150,51.0,0,390,13.0,0.0
2151,51.0,96,390,7.0,0.0
2152,59.0,0,390,7.0,0.0
2153,78.0,384,240,6.0,0.0
2154,56.0,0,390,12.0,0.0
2155,80.0,0,390,6.0,0.0
2156,40.0,480,390,14.0,0.0
2157,59.0,0,390,11.0,0.0
2158,52.0,0,390,13.0,0.0
2159,68.0,0,390,10.0,0.0
2160,59.0,96,390,7.0,0.0
2161,52.0,0,390,7.0,0.0
2162,80.0,384,240,6.0,0.0
2163,82.0,0,390,6.0,0.0
2164,52.0,0,390,12.0,0.0
2165,37.0,0,390,14.0,0.0
2166,64.0,0,390,11.0,0.0
2167,49.0,480,390,13.0,0.0
2168,70.0,0,390,10.0,0.0
2169,49.0,0,390,7.0,0.0
2170,52.0,96,390,7.0,0.0
2171,82.0,384,240,6.0,0.0
2172,83.0,92,390,6.0,0.0
2173,63.0,468,1920,11.0,0.0
2174,71.0,26,3810,10.0,0.0
2175,54.0,0,1920,12.0,0.0
2176,35.0,0,15330,14.0,0.0
2177,47.0,18,15330,13.0,0.0
2178,47.0,240,240,7.0,0.0
2179,51.0,240,240,7.0,0.0
2180,54.0,240,240,7.0,0.0
2181,59.0,240,240,7.0,0.0
2182,54.0,240,240,7.0,0.0
2183,51.0,244,240,7.0,0.0
2184,47.0,468,2160,7.0,0.0
2185,64.0,228,960,11.0,0.0
2186,56.0,0,960,12.0,0.0
2187,56.0,0,1920,7.0,0.0
2188,71.0,240,240,6.0,0.0
2189,76.0,240,240,6.0,0.0
2190,80.0,12,240,6.0,0.0
2191,68.0,228,1920,11.0,0.0
2192,52.0,0,960,12.0,0.0
2193,83.0,240,240,6.0,0.0
2194,80.0,240,240,6.0,0.0
2195,76.0,214,240,6.0,0.0
2196,71.0,12,240,6.0,0.0
2197,57.0,228,2880,12.0,0.0
2198,73.0,0,3810,10.0,0.0
2199,47.0,26,3810,7.0,0.0
2200,57.0,0,3810,7.0,0.0
2201,71.0,240,240,6.0,0.0
2202,85.0,240,240,6.0,0.0
2203,83.0,12,240,6.0,0.0
2204,61.0,228,960,11.0,0.0
2205,81.0,240,240,6.0,0.0
2206,80.0,240,240,6.0,0.0
2207,78.0,240,240,6.0,0.0
2208,77.0,12,240,6.0,0.0
2209,78.0,240,240,6.0,0.0
2210,66.0,228,2880,11.0,0.0
2211,79.0,240,240,6.0,0.0
2212,80.0,240,240,6.0,0.0
2213,81.0,12,240,6.0,0.0
2214,54.0,468,960,12.0,0.0
2215,82.0,240,240,6.0,0.0
2216,83.0,240,240,6.0,0.0
2217,84.0,214,240,6.0,0.0
2218,85.0,12,240,6.0,0.0
2219,47.0,26,3810,7.0,0.0
2220,56.0,0,3810,7.0,0.0
2221,71.0,0,3810,10.0,0.0
2222,56.0,228,2880,12.0,0.0
2223,71.0,240,240,6.0,0.0
2224,83.0,240,240,6.0,0.0
2225,81.0,12,240,6.0,0.0
2226,80.0,240,240,6.0,0.0
2227,59.0,228,960,11.0,0.0
2228,78.0,240,240,6.0,0.0
2229,76.0,240,240,6.0,0.0
2230,75.0,12,240,6.0,0.0
2231,64.0,228,2880,11.0,0.0
2232,76.0,240,240,6.0,0.0
2233,77.0,240,240,6.0,0.0
2234,78.0,240,240,6.0,0.0
2235,79.0,12,240,6.0,0.0
2236,49.0,468,960,12.0,0.0
2237,80.0,240,240,6.0,0.0
2238,81.0,240,240,6.0,0.0
2239,82.0,214,240,6.0,0.0
2240,83.0,12,240,6.0,0.0
2241,54.0,0,3810,7.0,0.0
2242,69.0,432,3840,10.0,0.0
2243,54.0,228,2880,12.0,0.0
2244,47.0,0,3810,7.0,0.0
2245,69.0,240,240,6.0,0.0
2246,81.0,240,240,6.0,0.0
2247,80.0,12,240,6.0,0.0
2248,57.0,228,960,11.0,0.0
2249,78.0,240,240,6.0,0.0
2250,76.0,240,240,6.0,0.0
2251,75.0,240,240,6.0,0.0
2252,73.0,12,240,6.0,0.0
2253,63.0,0,1920,11.0,0.0
2254,76.0,240,240,6.0,0.0
2255,75.0,240,240,6.0,0.0
2256,78.0,240,240,6.0,0.0
2257,76.0,12,240,6.0,0.0
2258,75.0,240,240,6.0,0.0
2259,59.0,8,930,12.0,0.0
2260,73.0,240,240,6.0,0.0
2261,71.0,214,240,6.0,0.0
2262,69.0,12,240,6.0,0.0
2263,52.0,144,780,13.0,0.0
2264,68.0,0,780,10.0,0.0
2265,40.0,0,780,7.0,0.0
2266,52.0,0,780,7.0,0.0
2267,59.0,0,780,12.0,0.0
2268,40.0,0,780,14.0,0.0
2269,64.0,0,780,11.0,0.0
2270,68.0,240,180,6.0,0.0
2271,71.0,96,180,6.0,0.0
2272,76.0,240,180,6.0,0.0
2273,80.0,240,180,6.0,0.0
2274,83.0,240,180,6.0,0.0
2275,80.0,240,180,6.0,0.0
2276,76.0,240,180,6.0,0.0
2277,81.0,240,180,6.0,0.0
2278,78.0,240,180,6.0,0.0
2279,75.0,240,180,6.0,0.0
2280,71.0,240,180,6.0,0.0
2281,69.0,240,180,6.0,0.0
2282,71.0,240,180,6.0,0.0
2283,69.0,240,180,6.0,0.0
2284,39.0,0,180,7.0,0.0
2285,51.0,0,180,7.0,0.0
2286,66.0,480,180,6.0,0.0
2287,52.0,0,780,13.0,0.0
2288,68.0,0,780,10.0,0.0
2289,40.0,144,780,14.0,0.0
2290,64.0,0,780,11.0,0.0
2291,40.0,0,780,7.0,0.0
2292,52.0,0,780,7.0,0.0
2293,59.0,0,780,12.0,0.0
2294,68.0,240,180,6.0,0.0
2295,71.0,96,180,6.0,0.0
2296,76.0,240,180,6.0,0.0
2297,80.0,240,180,6.0,0.0
2298,83.0,240,180,6.0,0.0
2299,80.0,240,180,6.0,0.0
2300,76.0,240,180,6.0,0.0
2301,81.0,240,180,6.0,0.0
2302,78.0,240,180,6.0,0.0
2303,75.0,240,180,6.0,0.0
2304,71.0,240,180,6.0,0.0
2305,69.0,240,180,6.0,0.0
2306,71.0,240,180,6.0,0.0
2307,69.0,240,180,6.0,0.0
2308,51.0,480,180,7.0,0.0
2309,66.0,0,180,6.0,0.0
2310,39.0,0,180,7.0,0.0
2311,52.0,0,1920,13.0,0.0
2312,68.0,0,1920,11.0,0.0
2313,40.0,0,1920,14.0,0.0
2314,52.0,0,780,7.0,0.0
2315,40.0,144,780,7.0,0.0
2316,71.0,432,1920,10.0,0.0
2317,64.0,0,1920,12.0,0.0
2318,68.0,240,180,6.0,0.0
2319,71.0,96,180,6.0,0.0
2320,76.0,240,180,6.0,0.0
2321,80.0,240,180,6.0,0.0
2322,83.0,240,180,6.0,0.0
2323,80.0,240,180,6.0,0.0
2324,76.0,0,180,6.0,0.0
2325,52.0,48,180,7.0,0.0
2326,40.0,0,180,7.0,0.0
2327,45.0,0,780,7.0,0.0
2328,66.0,0,1920,11.0,0.0
2329,45.0,432,1920,14.0,0.0
2330,61.0,0,1920,12.0,0.0
2331,57.0,0,1920,13.0,0.0
2332,57.0,144,780,7.0,0.0
2333,69.0,0,1920,10.0,0.0
2334,73.0,240,180,6.0,0.0
2335,76.0,96,180,6.0,0.0
2336,81.0,240,180,6.0,0.0
2337,85.0,240,180,6.0,0.0
2338,88.0,240,180,6.0,0.0
2339,85.0,240,180,6.0,0.0
2340,81.0,0,180,6.0,0.0
2341,57.0,48,180,7.0,0.0
2342,45.0,0,180,7.0,0.0
2343,68.0,0,1920,10.0,0.0
2344,59.0,0,1920,13.0,0.0
2345,59.0,144,780,7.0,0.0
2346,47.0,0,780,7.0,0.0
2347,47.0,0,1920,14.0,0.0
2348,64.0,120,1920,11.0,0.0
2349,68.0,240,180,6.0,0.0
2350,71.0,96,180,6.0,0.0
2351,76.0,240,180,6.0,0.0
2352,80.0,240,180,6.0,0.0
2353,83.0,240,180,6.0,0.0
2354,80.0,240,180,6.0,0.0
2355,76.0,48,180,6.0,0.0
2356,59.0,48,180,7.0,0.0
2357,57.0,0,1920,12.0,0.0
2358,63.0,0,1920,11.0,0.0
2359,80.0,72,120,6.0,0.0
2360,35.0,480,1920,14.0,0.0
2361,66.0,0,1920,10.0,0.0
2362,47.0,0,1920,13.0,0.0
2363,78.0,120,120,6.0,0.0
2364,69.0,48,180,7.0,0.0
2365,80.0,72,120,6.0,0.0
2366,78.0,120,120,6.0,0.0
2367,63.0,48,180,7.0,0.0
2368,80.0,72,120,6.0,0.0
2369,78.0,120,120,6.0,0.0
2370,80.0,72,120,6.0,0.0
2371,69.0,48,180,7.0,0.0
2372,78.0,120,120,6.0,0.0
2373,80.0,72,120,6.0,0.0
2374,59.0,48,180,7.0,0.0
2375,78.0,120,120,6.0,0.0
2376,69.0,48,180,7.0,0.0
2377,80.0,72,120,6.0,0.0
2378,78.0,120,120,6.0,0.0
2379,80.0,72,120,6.0,0.0
2380,63.0,48,180,7.0,0.0
2381,78.0,120,120,6.0,0.0
2382,76.0,72,120,6.0,0.0
2383,69.0,48,180,7.0,0.0
2384,78.0,0,120,6.0,0.0
2385,64.0,0,480,11.0,0.0
2386,76.0,0,480,6.0,0.0
2387,52.0,0,480,13.0,0.0
2388,40.0,0,480,14.0,0.0
2389,59.0,0,15,12.0,0.0
2390,56.0,0,480,12.0,0.0
2391,64.0,1920,480,10.0,0.0
2392,68.0,0,480,7.0,0.0
2393,64.0,0,480,7.0,0.0
2394,52.0,0,1920,13.0,0.0
2395,55.0,96,1830,3.0,0.0
2396,64.0,480,480,11.0,0.0
2397,67.0,0,1920,10.0,0.0
2398,79.0,0,1830,0.0,0.0
2399,59.0,38,7650,12.0,0.0
2400,40.0,480,1920,14.0,0.0
2401,59.0,480,480,11.0,0.0
2402,64.0,384,480,11.0,0.0
2403,59.0,0,480,11.0,0.0
2404,69.0,480,1920,10.0,0.0
2405,51.0,0,1920,13.0,0.0
2406,78.0,0,480,0.0,0.0
2407,39.0,0,1920,14.0,0.0
2408,66.0,312,480,11.0,0.0
2409,54.0,0,480,3.0,0.0
2410,59.0,312,480,11.0,0.0
2411,83.0,168,300,0.0,0.0
2412,59.0,0,300,3.0,0.0
2413,83.0,0,300,0.0,0.0
2414,59.0,168,300,3.0,0.0
2415,66.0,312,480,11.0,0.0
2416,83.0,168,300,0.0,0.0
2417,59.0,0,300,3.0,0.0
2418,59.0,0,480,11.0,0.0
2419,59.0,120,1440,3.0,0.0
2420,67.0,0,1920,10.0,0.0
2421,64.0,480,480,11.0,0.0
2422,83.0,0,1440,0.0,0.0
2423,52.0,0,1920,13.0,0.0
2424,40.0,480,1920,14.0,0.0
2425,59.0,480,480,11.0,0.0
2426,64.0,0,480,11.0,0.0
2427,59.0,0,480,11.0,0.0
2428,57.0,120,120,3.0,0.0
2429,81.0,0,120,0.0,0.0
2430,55.0,0,120,3.0,0.0
2431,79.0,120,120,0.0,0.0
2432,54.0,120,120,3.0,0.0
2433,78.0,0,120,0.0,0.0
2434,76.0,0,120,0.0,0.0
2435,52.0,0,120,3.0,0.0
2436,47.0,480,480,13.0,0.0
2437,75.0,0,480,0.0,0.0
2438,66.0,0,480,10.0,0.0
2439,51.0,0,480,3.0,0.0
2440,35.0,0,480,14.0,0.0
2441,63.0,0,480,11.0,0.0
2442,59.0,480,480,11.0,0.0
2443,71.0,0,480,10.0,0.0
2444,70.0,442,480,10.0,0.0
2445,66.0,0,480,11.0,0.0
2446,63.0,0,480,11.0,0.0
2447,69.0,480,480,10.0,0.0
2448,79.0,96,1830,0.0,0.0
2449,64.0,480,480,11.0,0.0
2450,48.0,0,1920,13.0,0.0
2451,60.0,312,2400,12.0,0.0
2452,55.0,0,1830,3.0,0.0
2453,36.0,0,1920,14.0,0.0
2454,67.0,480,1920,10.0,0.0
2455,60.0,480,480,11.0,0.0
2456,64.0,384,480,11.0,0.0
2457,60.0,0,480,11.0,0.0
2458,33.0,0,1920,14.0,0.0
2459,64.0,0,480,11.0,0.0
2460,54.0,0,480,3.0,0.0
2461,78.0,0,480,0.0,0.0
2462,45.0,0,1920,13.0,0.0
2463,66.0,0,960,10.0,0.0
2464,60.0,312,480,11.0,0.0
2465,84.0,168,300,0.0,0.0
2466,60.0,0,300,3.0,0.0
2467,57.0,0,480,12.0,0.0
2468,60.0,168,300,3.0,0.0
2469,69.0,0,960,10.0,0.0
2470,84.0,0,300,0.0,0.0
2471,54.0,0,960,12.0,0.0
2472,64.0,312,480,11.0,0.0
2473,84.0,168,300,0.0,0.0
2474,60.0,0,300,3.0,0.0
2475,60.0,480,480,11.0,0.0
2476,35.0,0,1920,14.0,0.0
2477,55.0,480,960,12.0,0.0
2478,52.0,0,1440,3.0,0.0
2479,47.0,0,1920,13.0,0.0
2480,76.0,240,1440,0.0,0.0
2481,67.0,0,1440,10.0,0.0
2482,64.0,480,480,11.0,0.0
2483,59.0,0,480,11.0,0.0
2484,59.0,0,480,11.0,0.0
2485,63.0,0,480,10.0,0.0
2486,55.0,240,240,3.0,0.0
2487,79.0,0,240,0.0,0.0
2488,57.0,0,480,11.0,0.0
2489,78.0,0,240,0.0,0.0
2490,54.0,480,240,3.0,0.0
2491,76.0,0,480,0.0,0.0
2492,40.0,0,480,14.0,0.0
2493,52.0,240,480,3.0,0.0
2494,55.0,0,480,11.0,0.0
2495,64.0,0,480,10.0,0.0
2496,52.0,0,480,13.0,0.0
2497,59.0,0,15,12.0,0.0
2498,71.0,0,240,6.0,0.0
2499,73.0,240,240,6.0,0.0
2500,75.0,240,240,6.0,0.0
2501,76.0,240,240,6.0,0.0
2502,75.0,240,240,6.0,0.0
2503,78.0,240,240,6.0,0.0
2504,76.0,236,240,6.0,0.0
2505,40.0,0,1920,14.0,0.0
2506,64.0,240,240,7.0,0.0
2507,52.0,0,1920,13.0,0.0
2508,67.0,236,1920,10.0,0.0
2509,64.0,0,1920,11.0,0.0
2510,79.0,34,1890,6.0,0.0
2511,59.0,0,7680,12.0,0.0
2512,71.0,240,240,7.0,0.0
2513,67.0,240,240,7.0,0.0
2514,71.0,240,240,7.0,0.0
2515,64.0,240,240,7.0,0.0
2516,71.0,240,240,7.0,0.0
2517,67.0,206,240,7.0,0.0
2518,71.0,4,240,7.0,0.0
2519,39.0,236,1920,14.0,0.0
2520,51.0,0,1920,13.0,0.0
2521,69.0,0,1920,10.0,0.0
2522,78.0,236,480,6.0,0.0
2523,63.0,240,240,7.0,0.0
2524,66.0,0,1920,11.0,0.0
2525,71.0,4,240,7.0,0.0
2526,69.0,76,240,7.0,0.0
2527,83.0,164,300,6.0,0.0
2528,71.0,240,240,7.0,0.0
2529,83.0,164,300,6.0,0.0
2530,63.0,76,240,7.0,0.0
2531,71.0,240,240,7.0,0.0
2532,83.0,164,300,6.0,0.0
2533,69.0,76,240,7.0,0.0
2534,71.0,4,240,7.0,0.0
2535,52.0,0,1920,13.0,0.0
2536,67.0,236,1920,10.0,0.0
2537,64.0,0,1920,11.0,0.0
2538,40.0,0,1920,14.0,0.0
2539,64.0,4,240,7.0,0.0
2540,83.0,236,240,6.0,0.0
2541,82.0,236,240,6.0,0.0
2542,71.0,4,240,7.0,0.0
2543,67.0,4,240,7.0,0.0
2544,81.0,236,240,6.0,0.0
2545,71.0,4,240,7.0,0.0
2546,80.0,236,240,6.0,0.0
2547,64.0,4,240,7.0,0.0
2548,79.0,236,240,6.0,0.0
2549,78.0,236,240,6.0,0.0
2550,71.0,4,240,7.0,0.0
2551,77.0,236,240,6.0,0.0
2552,67.0,4,240,7.0,0.0
2553,71.0,4,240,7.0,0.0
2554,76.0,0,240,6.0,0.0
2555,63.0,236,1920,11.0,0.0
2556,75.0,236,480,6.0,0.0
2557,59.0,240,240,7.0,0.0
2558,35.0,0,1920,14.0,0.0
2559,66.0,0,1920,10.0,0.0
2560,47.0,0,1920,13.0,0.0
2561,71.0,4,240,7.0,0.0
2562,66.0,240,240,7.0,0.0
2563,71.0,240,240,7.0,0.0
2564,59.0,240,240,7.0,0.0
2565,69.0,240,240,7.0,0.0
2566,66.0,240,240,7.0,0.0
2567,69.0,4,240,7.0,0.0
2568,72.0,236,6240,10.0,0.0
2569,48.0,236,1920,13.0,0.0
2570,36.0,0,1920,14.0,0.0
2571,60.0,240,240,7.0,0.0
2572,79.0,236,1440,6.0,0.0
2573,64.0,240,3840,12.0,0.0
2574,67.0,0,1920,11.0,0.0
2575,67.0,240,240,7.0,0.0
2576,64.0,240,240,7.0,0.0
2577,67.0,240,240,7.0,0.0
2578,60.0,240,240,7.0,0.0
2579,67.0,4,240,7.0,0.0
2580,81.0,236,240,6.0,0.0
2581,64.0,4,240,7.0,0.0
2582,67.0,4,240,7.0,0.0
2583,79.0,0,240,6.0,0.0
2584,57.0,236,3840,13.0,0.0
2585,45.0,0,3840,14.0,0.0
2586,66.0,0,3840,11.0,0.0
2587,57.0,240,240,7.0,0.0
2588,78.0,236,480,6.0,0.0
2589,66.0,4,240,7.0,0.0
2590,64.0,76,240,7.0,0.0
2591,84.0,164,300,6.0,0.0
2592,66.0,240,240,7.0,0.0
2593,84.0,164,300,6.0,0.0
2594,57.0,76,240,7.0,0.0
2595,66.0,240,240,7.0,0.0
2596,64.0,76,240,7.0,0.0
2597,84.0,164,300,6.0,0.0
2598,66.0,4,240,7.0,0.0
2599,57.0,240,240,7.0,0.0
2600,63.0,0,1920,12.0,0.0
2601,84.0,120,1440,6.0,0.0
2602,66.0,240,240,7.0,0.0
2603,63.0,240,240,7.0,0.0
2604,66.0,240,240,7.0,0.0
2605,57.0,240,240,7.0,0.0
2606,66.0,0,240,7.0,0.0
2607,63.0,120,240,7.0,0.0
2608,86.0,120,120,6.0,0.0
2609,84.0,0,120,6.0,0.0
2610,83.0,120,120,6.0,0.0
2611,66.0,0,240,7.0,0.0
2612,84.0,0,120,6.0,0.0
2613,88.0,236,960,6.0,0.0
2614,84.0,0,1920,0.0,0.0
2615,55.0,240,240,7.0,0.0
2616,72.0,0,1920,2.0,0.0
2617,55.0,0,480,13.0,0.0
2618,67.0,0,480,11.0,0.0
2619,76.0,0,1920,1.0,0.0
2620,67.0,236,1920,3.0,0.0
2621,64.0,0,480,12.0,0.0
2622,55.0,0,8070,3.0,0.0
2623,43.0,0,480,14.0,0.0
2624,64.0,4,240,7.0,0.0
2625,60.0,240,240,7.0,0.0
2626,64.0,4,240,7.0,0.0
2627,84.0,236,240,6.0,0.0
2628,55.0,4,240,7.0,0.0
2629,79.0,236,240,6.0,0.0
2630,64.0,4,240,7.0,0.0
2631,76.0,236,240,6.0,0.0
2632,60.0,4,240,7.0,0.0
2633,72.0,0,240,6.0,0.0
2634,64.0,4,240,7.0,0.0
2635,43.0,0,390,14.0,0.0
2636,71.0,0,1920,2.0,0.0
2637,83.0,236,1920,0.0,0.0
2638,74.0,0,390,10.0,0.0
2639,74.0,0,1920,1.0,0.0
2640,65.0,0,1920,3.0,0.0
2641,55.0,92,390,13.0,0.0
2642,59.0,0,390,12.0,0.0
2643,55.0,148,240,7.0,0.0
2644,67.0,0,390,11.0,0.0
2645,71.0,0,390,6.0,0.0
2646,65.0,240,240,7.0,0.0
2647,89.0,44,900,6.0,0.0
2648,62.0,240,240,7.0,0.0
2649,65.0,240,240,7.0,0.0
2650,62.0,196,240,7.0,0.0
2651,65.0,240,240,7.0,0.0
2652,62.0,148,240,7.0,0.0
2653,71.0,92,390,6.0,0.0
2654,65.0,4,240,7.0,0.0
2655,64.0,0,1440,3.0,0.0
2656,43.0,0,390,14.0,0.0
2657,67.0,0,390,11.0,0.0
2658,76.0,0,390,10.0,0.0
2659,72.0,0,1920,2.0,0.0
2660,79.0,236,1440,1.0,0.0
2661,55.0,92,390,13.0,0.0
2662,60.0,0,390,12.0,0.0
2663,84.0,236,1920,0.0,0.0
2664,55.0,148,240,7.0,0.0
2665,72.0,240,240,6.0,0.0
2666,64.0,0,240,7.0,0.0
2667,88.0,0,240,6.0,0.0
2668,60.0,240,240,7.0,0.0
2669,83.0,0,240,6.0,0.0
2670,64.0,240,240,7.0,0.0
2671,55.0,240,240,7.0,0.0
2672,84.0,0,240,6.0,0.0
2673,79.0,4,240,6.0,0.0
2674,64.0,0,240,7.0,0.0
2675,76.0,0,240,6.0,0.0
2676,67.0,0,480,3.0,0.0
2677,76.0,0,480,1.0,0.0
2678,60.0,240,240,7.0,0.0
2679,72.0,0,240,6.0,0.0
2680,64.0,4,240,7.0,0.0
2681,71.0,0,390,6.0,0.0
2682,65.0,384,1920,3.0,0.0
2683,71.0,0,1920,2.0,0.0
2684,74.0,0,1920,1.0,0.0
2685,59.0,0,390,12.0,0.0
2686,62.0,0,390,11.0,0.0
2687,55.0,148,240,7.0,0.0
2688,43.0,0,390,14.0,0.0
2689,83.0,0,1920,0.0,0.0
2690,77.0,92,390,10.0,0.0
2691,55.0,0,390,13.0,0.0
2692,65.0,240,240,7.0,0.0
2693,62.0,240,240,7.0,0.0
2694,89.0,44,900,6.0,0.0
2695,65.0,240,240,7.0,0.0
2696,62.0,196,240,7.0,0.0
2697,65.0,240,240,7.0,0.0
2698,71.0,92,390,6.0,0.0
2699,62.0,148,240,7.0,0.0
2700,65.0,4,240,7.0,0.0
2701,52.0,0,960,12.0,0.0
2702,36.0,0,3810,14.0,0.0
2703,72.0,0,390,2.0,0.0
2704,48.0,0,3810,13.0,0.0
2705,64.0,92,390,3.0,0.0
2706,64.0,0,960,11.0,0.0
2707,84.0,0,390,0.0,0.0
2708,60.0,0,3810,7.0,0.0
2709,64.0,34,3810,7.0,0.0
2710,76.0,236,960,10.0,0.0
2711,76.0,0,390,1.0,0.0
2712,88.0,240,240,6.0,0.0
2713,76.0,240,240,6.0,0.0
2714,88.0,4,240,6.0,0.0
2715,65.0,236,480,11.0,0.0
2716,77.0,240,240,6.0,0.0
2717,77.0,0,480,10.0,0.0
2718,53.0,0,480,12.0,0.0
2719,88.0,4,240,6.0,0.0
2720,54.0,236,480,12.0,0.0
2721,66.0,0,480,11.0,0.0
2722,78.0,0,480,10.0,0.0
2723,78.0,240,240,6.0,0.0
2724,88.0,4,240,6.0,0.0
2725,67.0,0,480,11.0,0.0
2726,79.0,0,480,10.0,0.0
2727,79.0,240,240,6.0,0.0
2728,55.0,236,480,12.0,0.0
2729,88.0,4,240,6.0,0.0
2730,80.0,240,240,6.0,0.0
2731,80.0,0,480,10.0,0.0
2732,68.0,236,480,11.0,0.0
2733,56.0,0,480,12.0,0.0
2734,88.0,4,240,6.0,0.0
2735,57.0,236,480,12.0,0.0
2736,81.0,0,480,10.0,0.0
2737,69.0,0,480,11.0,0.0
2738,81.0,240,240,6.0,0.0
2739,88.0,4,240,6.0,0.0
2740,58.0,0,480,12.0,0.0
2741,82.0,206,240,6.0,0.0
2742,82.0,236,480,10.0,0.0
2743,70.0,0,480,11.0,0.0
2744,88.0,4,240,6.0,0.0
2745,35.0,0,3810,14.0,0.0
2746,83.0,0,780,10.0,0.0
2747,71.0,188,780,11.0,0.0
2748,47.0,34,3810,13.0,0.0
2749,59.0,0,780,12.0,0.0
2750,83.0,240,240,6.0,0.0
2751,64.0,0,780,7.0,0.0
2752,59.0,0,780,7.0,0.0
2753,88.0,240,240,6.0,0.0
2754,80.0,52,240,6.0,0.0
2755,83.0,240,240,6.0,0.0
2756,76.0,240,240,6.0,0.0
2757,80.0,240,240,6.0,0.0
2758,71.0,240,240,6.0,0.0
2759,76.0,240,240,6.0,0.0
2760,68.0,240,240,6.0,0.0
2761,47.0,188,780,7.0,0.0
2762,59.0,0,780,7.0,0.0
2763,71.0,240,240,6.0,0.0
2764,64.0,52,240,6.0,0.0
2765,68.0,240,240,6.0,0.0
2766,66.0,240,240,6.0,0.0
2767,57.0,154,780,7.0,0.0
2768,47.0,0,780,7.0,0.0
2769,69.0,240,240,6.0,0.0
2770,63.0,52,240,6.0,0.0
2771,66.0,480,240,6.0,0.0
2772,64.0,0,780,6.0,0.0
2773,52.0,0,780,13.0,0.0
2774,59.0,0,780,12.0,0.0
2775,68.0,0,780,10.0,0.0
2776,64.0,0,780,11.0,0.0
2777,40.0,188,780,14.0,0.0
2778,40.0,240,240,7.0,0.0
2779,44.0,52,240,7.0,0.0
2780,47.0,240,240,7.0,0.0
2781,52.0,240,240,7.0,0.0
2782,51.0,240,240,7.0,0.0
2783,52.0,196,240,7.0,0.0
2784,40.0,480,240,7.0,0.0
2785,80.0,44,180,6.0,0.0
2786,51.0,0,780,13.0,0.0
2787,59.0,188,780,12.0,0.0
2788,71.0,0,780,10.0,0.0
2789,78.0,0,780,6.0,0.0
2790,66.0,0,780,11.0,0.0
2791,71.0,0,780,7.0,0.0
2792,39.0,0,780,14.0,0.0
2793,39.0,240,240,7.0,0.0
2794,42.0,52,240,7.0,0.0
2795,47.0,240,240,7.0,0.0
2796,51.0,240,240,7.0,0.0
2797,49.0,240,240,7.0,0.0
2798,51.0,196,240,7.0,0.0
2799,39.0,388,240,7.0,0.0
2800,83.0,44,180,6.0,0.0
2801,68.0,0,780,12.0,0.0
2802,37.0,0,780,14.0,0.0
2803,80.0,92,390,7.0,0.0
2804,73.0,188,780,11.0,0.0
2805,76.0,0,780,10.0,0.0
2806,49.0,0,780,13.0,0.0
2807,76.0,0,390,7.0,0.0
2808,88.0,0,780,6.0,0.0
2809,37.0,240,240,7.0,0.0
2810,40.0,52,240,7.0,0.0
2811,44.0,240,240,7.0,0.0
2812,49.0,240,240,7.0,0.0
2813,48.0,240,240,7.0,0.0
2814,49.0,196,240,7.0,0.0
2815,37.0,480,240,7.0,0.0
2816,76.0,44,180,6.0,0.0
2817,75.0,0,780,6.0,0.0
2818,35.0,0,780,14.0,0.0
2819,68.0,0,780,10.0,0.0
2820,47.0,188,780,13.0,0.0
2821,63.0,0,780,11.0,0.0
2822,68.0,0,780,7.0,0.0
2823,56.0,0,780,12.0,0.0
2824,35.0,240,240,7.0,0.0
2825,39.0,52,240,7.0,0.0
2826,44.0,240,240,7.0,0.0
2827,47.0,240,240,7.0,0.0
2828,46.0,240,240,7.0,0.0
2829,47.0,196,240,7.0,0.0
2830,35.0,388,240,7.0,0.0
2831,80.0,44,180,6.0,0.0
2832,69.0,0,780,11.0,0.0
2833,85.0,0,780,6.0,0.0
2834,45.0,188,780,13.0,0.0
2835,33.0,0,780,14.0,0.0
2836,73.0,0,780,10.0,0.0
2837,64.0,0,780,12.0,0.0
2838,73.0,92,390,7.0,0.0
2839,76.0,0,390,7.0,0.0
2840,45.0,240,240,7.0,0.0
2841,49.0,52,240,7.0,0.0
2842,52.0,240,240,7.0,0.0
2843,57.0,240,240,7.0,0.0
2844,56.0,240,240,7.0,0.0
2845,57.0,196,240,7.0,0.0
2846,45.0,480,240,7.0,0.0
2847,73.0,44,180,6.0,0.0
2848,32.0,0,780,14.0,0.0
2849,52.0,0,780,12.0,0.0
2850,44.0,0,780,13.0,0.0
2851,71.0,188,780,6.0,0.0
2852,64.0,0,780,7.0,0.0
2853,64.0,0,780,10.0,0.0
2854,59.0,0,780,11.0,0.0
2855,44.0,240,240,7.0,0.0
2856,47.0,52,240,7.0,0.0
2857,52.0,240,240,7.0,0.0
2858,56.0,240,240,7.0,0.0
2859,54.0,240,240,7.0,0.0
2860,56.0,196,240,7.0,0.0
2861,44.0,244,240,7.0,0.0
2862,71.0,44,180,6.0,0.0
2863,76.0,240,2880,1.0,0.0
2864,54.0,240,480,7.0,0.0
2865,64.0,0,2880,3.0,0.0
2866,70.0,240,240,6.0,0.0
2867,76.0,0,240,6.0,0.0
2868,73.0,240,240,6.0,0.0
2869,55.0,0,480,7.0,0.0
2870,71.0,240,240,6.0,0.0
2871,54.0,240,480,7.0,0.0
2872,70.0,240,240,6.0,0.0
2873,76.0,0,240,6.0,0.0
2874,55.0,0,480,7.0,0.0
2875,73.0,240,240,6.0,0.0
2876,71.0,240,240,6.0,0.0
2877,54.0,240,480,7.0,0.0
2878,70.0,240,240,6.0,0.0
2879,76.0,0,240,6.0,0.0
2880,55.0,0,480,7.0,0.0
2881,73.0,240,240,6.0,0.0
2882,71.0,0,240,6.0,0.0
2883,70.0,144,240,6.0,0.0
2884,54.0,0,390,7.0,0.0
2885,58.0,0,390,3.0,0.0
2886,70.0,96,390,1.0,0.0
2887,79.0,240,240,6.0,0.0
2888,78.0,240,240,6.0,0.0
2889,76.0,240,240,6.0,0.0
2890,66.0,0,3270,7.0,0.0
2891,75.0,240,240,6.0,0.0
2892,59.0,0,480,7.0,0.0
2893,69.0,0,3270,7.0,0.0
2894,69.0,0,2880,2.0,0.0
2895,81.0,0,2880,1.0,0.0
2896,81.0,240,240,6.0,0.0
2897,60.0,240,480,7.0,0.0
2898,78.0,240,240,6.0,0.0
2899,76.0,0,240,6.0,0.0
2900,75.0,240,240,6.0,0.0
2901,59.0,0,480,7.0,0.0
2902,81.0,240,240,6.0,0.0
2903,78.0,240,240,6.0,0.0
2904,60.0,240,480,7.0,0.0
2905,76.0,0,240,6.0,0.0
2906,75.0,240,240,6.0,0.0
2907,59.0,240,480,7.0,0.0
2908,81.0,0,240,6.0,0.0
2909,78.0,240,240,6.0,0.0
2910,60.0,240,480,7.0,0.0
2911,76.0,0,240,6.0,0.0
2912,75.0,144,240,6.0,0.0
2913,75.0,0,390,1.0,0.0
2914,59.0,0,390,7.0,0.0
2915,63.0,96,390,2.0,0.0
2916,84.0,240,240,6.0,0.0
2917,83.0,240,240,6.0,0.0
2918,81.0,240,240,6.0,0.0
2919,74.0,0,3270,7.0,0.0
2920,71.0,0,3270,7.0,0.0
2921,64.0,240,480,7.0,0.0
2922,86.0,0,2880,0.0,0.0
2923,80.0,240,240,6.0,0.0
2924,74.0,0,2880,1.0,0.0
2925,86.0,0,240,6.0,0.0
2926,65.0,240,480,7.0,0.0
2927,83.0,240,240,6.0,0.0
2928,81.0,0,240,6.0,0.0
2929,80.0,240,240,6.0,0.0
2930,64.0,0,480,7.0,0.0
2931,86.0,240,240,6.0,0.0
2932,83.0,240,240,6.0,0.0
2933,65.0,240,480,7.0,0.0
2934,81.0,0,240,6.0,0.0
2935,64.0,0,480,7.0,0.0
2936,80.0,240,240,6.0,0.0
2937,86.0,240,240,6.0,0.0
2938,83.0,240,240,6.0,0.0
2939,65.0,240,480,7.0,0.0
2940,81.0,0,240,6.0,0.0
2941,80.0,0,390,0.0,0.0
2942,80.0,144,240,6.0,0.0
2943,64.0,96,390,7.0,0.0
2944,68.0,0,390,1.0,0.0
2945,83.0,240,240,6.0,0.0
2946,88.0,240,240,6.0,0.0
2947,86.0,240,240,6.0,0.0
2948,85.0,240,240,6.0,0.0
2949,85.0,0,720,10.0,0.0
2950,69.0,228,720,12.0,0.0
2951,69.0,0,720,7.0,0.0
2952,88.0,240,240,6.0,0.0
2953,85.0,0,240,6.0,0.0
2954,83.0,240,240,6.0,0.0
2955,83.0,0,240,10.0,0.0
2956,68.0,12,240,7.0,0.0
2957,68.0,0,240,12.0,0.0
2958,81.0,228,720,10.0,0.0
2959,66.0,0,720,7.0,0.0
2960,66.0,0,720,12.0,0.0
2961,81.0,240,240,6.0,0.0
2962,85.0,240,240,6.0,0.0
2963,81.0,0,240,6.0,0.0
2964,80.0,240,240,6.0,0.0
2965,80.0,0,240,10.0,0.0
2966,64.0,12,240,12.0,0.0
2967,64.0,0,240,7.0,0.0
2968,63.0,0,720,12.0,0.0
2969,63.0,0,720,7.0,0.0
2970,78.0,240,240,6.0,0.0
2971,78.0,228,720,10.0,0.0
2972,81.0,240,240,6.0,0.0
2973,78.0,0,240,6.0,0.0
2974,61.0,12,240,12.0,0.0
2975,61.0,0,240,7.0,0.0
2976,76.0,240,240,6.0,0.0
2977,76.0,0,240,10.0,0.0
2978,59.0,0,720,7.0,0.0
2979,75.0,0,720,10.0,0.0
2980,59.0,228,720,12.0,0.0
2981,75.0,240,240,6.0,0.0
2982,78.0,240,240,6.0,0.0
2983,75.0,0,240,6.0,0.0
2984,73.0,240,240,6.0,0.0
2985,57.0,12,240,7.0,0.0
2986,73.0,0,240,10.0,0.0
2987,57.0,0,240,12.0,0.0
2988,71.0,228,720,11.0,0.0
2989,56.0,0,720,7.0,0.0
2990,71.0,0,480,10.0,0.0
2991,56.0,0,720,13.0,0.0
2992,71.0,240,240,6.0,0.0
2993,56.0,0,480,12.0,0.0
2994,75.0,240,240,6.0,0.0
2995,71.0,0,240,6.0,0.0
2996,69.0,240,240,6.0,0.0
2997,69.0,0,240,11.0,0.0
2998,54.0,0,240,7.0,0.0
2999,54.0,12,240,13.0,0.0
3000,68.0,0,720,11.0,0.0
3001,52.0,0,720,13.0,0.0
3002,68.0,240,240,6.0,0.0
3003,52.0,0,720,7.0,0.0
3004,71.0,240,240,6.0,0.0
3005,68.0,228,240,6.0,0.0
3006,66.0,0,240,11.0,0.0
3007,51.0,12,240,7.0,0.0
3008,51.0,0,240,13.0,0.0
3009,66.0,240,240,6.0,0.0
3010,49.0,0,720,13.0,0.0
3011,64.0,240,240,6.0,0.0
3012,64.0,0,720,11.0,0.0
3013,49.0,228,720,7.0,0.0
3014,68.0,240,240,6.0,0.0
3015,64.0,0,240,6.0,0.0
3016,47.0,12,240,13.0,0.0
3017,47.0,0,240,7.0,0.0
3018,63.0,240,240,6.0,0.0
3019,63.0,0,240,11.0,0.0
3020,45.0,0,720,7.0,0.0
3021,45.0,0,720,13.0,0.0
3022,61.0,0,720,11.0,0.0
3023,61.0,240,240,6.0,0.0
3024,64.0,240,240,6.0,0.0
3025,61.0,240,240,6.0,0.0
3026,59.0,0,240,11.0,0.0
3027,59.0,0,240,6.0,0.0
3028,44.0,0,240,13.0,0.0
3029,44.0,192,240,7.0,0.0
3030,30.0,192,1920,14.0,0.0
3031,57.0,0,1920,11.0,0.0
3032,57.0,240,180,6.0,0.0
3033,81.0,0,1920,10.0,0.0
3034,63.0,0,1920,12.0,0.0
3035,42.0,0,1920,13.0,0.0
3036,42.0,38,1890,7.0,0.0
3037,59.0,240,180,6.0,0.0
3038,61.0,240,180,6.0,0.0
3039,63.0,240,180,6.0,0.0
3040,64.0,240,180,6.0,0.0
3041,66.0,240,180,6.0,0.0
3042,68.0,240,180,6.0,0.0
3043,69.0,10,180,6.0,0.0
3044,59.0,0,1920,11.0,0.0
3045,32.0,0,1920,14.0,0.0
3046,71.0,240,180,6.0,0.0
3047,44.0,38,1890,7.0,0.0
3048,80.0,192,1920,10.0,0.0
3049,44.0,0,1920,13.0,0.0
3050,73.0,240,180,6.0,0.0
3051,75.0,240,180,6.0,0.0
3052,76.0,240,180,6.0,0.0
3053,78.0,240,180,6.0,0.0
3054,80.0,240,180,6.0,0.0
3055,81.0,240,180,6.0,0.0
3056,83.0,10,180,6.0,0.0
3057,45.0,0,3840,13.0,0.0
3058,85.0,240,180,6.0,0.0
3059,33.0,192,3840,14.0,0.0
3060,45.0,212,930,7.0,0.0
3061,61.0,0,3840,11.0,0.0
3062,64.0,0,15,12.0,0.0
3063,78.0,192,1920,10.0,0.0
3064,87.0,240,180,6.0,0.0
3065,88.0,240,180,6.0,0.0
3066,87.0,28,180,6.0,0.0
3067,85.0,240,180,6.0,0.0
3068,83.0,240,180,6.0,0.0
3069,81.0,240,180,6.0,0.0
3070,80.0,48,180,6.0,0.0
3071,66.0,0,1920,10.0,0.0
3072,78.0,240,180,6.0,0.0
3073,80.0,240,180,6.0,0.0
3074,81.0,240,180,6.0,0.0
3075,80.0,240,180,6.0,0.0
3076,78.0,240,180,6.0,0.0
3077,76.0,240,180,6.0,0.0
3078,75.0,240,180,6.0,0.0
3079,73.0,48,180,6.0,0.0
3080,47.0,0,780,13.0,0.0
3081,35.0,0,780,14.0,0.0
3082,68.0,120,300,10.0,0.0
3083,59.0,0,300,11.0,0.0
3084,47.0,24,780,7.0,0.0
3085,71.0,120,180,6.0,0.0
3086,76.0,240,180,6.0,0.0
3087,80.0,96,180,6.0,0.0
3088,64.0,0,300,11.0,0.0
3089,68.0,0,300,10.0,0.0
3090,59.0,120,300,12.0,0.0
3091,83.0,240,180,6.0,0.0
3092,59.0,0,300,12.0,0.0
3093,76.0,120,180,6.0,0.0
3094,64.0,0,300,11.0,0.0
3095,68.0,120,300,10.0,0.0
3096,80.0,240,180,6.0,0.0
3097,64.0,0,300,11.0,0.0
3098,83.0,120,180,6.0,0.0
3099,59.0,120,300,12.0,0.0
3100,68.0,0,300,10.0,0.0
3101,88.0,168,180,6.0,0.0
3102,66.0,0,300,10.0,0.0
3103,80.0,72,120,6.0,0.0
3104,35.0,0,780,14.0,0.0
3105,63.0,48,300,11.0,0.0
3106,47.0,48,180,7.0,0.0
3107,59.0,0,300,12.0,0.0
3108,47.0,24,780,13.0,0.0
3109,57.0,0,300,12.0,0.0
3110,78.0,72,120,6.0,0.0
3111,57.0,48,180,7.0,0.0
3112,80.0,72,120,6.0,0.0
3113,78.0,120,120,6.0,0.0
3114,63.0,0,300,11.0,0.0
3115,57.0,0,300,12.0,0.0
3116,66.0,48,300,10.0,0.0
3117,59.0,0,300,12.0,0.0
3118,51.0,48,180,7.0,0.0
3119,80.0,72,120,6.0,0.0
3120,78.0,48,120,6.0,0.0
3121,80.0,72,120,6.0,0.0
3122,57.0,48,180,7.0,0.0
3123,78.0,120,120,6.0,0.0
3124,57.0,0,300,12.0,0.0
3125,59.0,0,300,12.0,0.0
3126,66.0,0,300,10.0,0.0
3127,47.0,48,180,7.0,0.0
3128,80.0,72,120,6.0,0.0
3129,63.0,48,300,11.0,0.0
3130,78.0,72,120,6.0,0.0
3131,80.0,72,120,6.0,0.0
3132,57.0,48,180,7.0,0.0
3133,78.0,120,120,6.0,0.0
3134,57.0,0,300,12.0,0.0
3135,59.0,0,300,12.0,0.0
3136,63.0,0,300,11.0,0.0
3137,80.0,72,120,6.0,0.0
3138,66.0,48,300,10.0,0.0
3139,51.0,48,180,7.0,0.0
3140,78.0,72,120,6.0,0.0
3141,76.0,72,120,6.0,0.0
3142,57.0,48,180,7.0,0.0
3143,78.0,476,120,6.0,0.0
3144,56.0,0,780,7.0,0.0
3145,52.0,0,780,7.0,0.0
3146,52.0,0,780,13.0,0.0
3147,64.0,0,780,10.0,0.0
3148,64.0,0,780,11.0,0.0
3149,40.0,0,780,14.0,0.0
3150,59.0,0,780,12.0,0.0
3151,56.0,188,780,12.0,0.0
3152,64.0,240,240,6.0,0.0
3153,68.0,52,240,6.0,0.0
3154,71.0,240,240,6.0,0.0
3155,71.0,0,780,4.0,0.0
3156,52.0,0,780,3.0,0.0
3157,68.0,0,780,1.0,0.0
3158,64.0,0,780,4.0,0.0
3159,59.0,0,780,3.0,0.0
3160,76.0,0,780,1.0,0.0
3161,80.0,144,780,0.0,0.0
3162,76.0,240,240,6.0,0.0
3163,80.0,240,240,6.0,0.0
3164,83.0,52,240,6.0,0.0
3165,52.0,0,180,7.0,0.0
3166,88.0,480,240,6.0,0.0
3167,40.0,44,180,7.0,0.0
3168,59.0,0,780,12.0,0.0
3169,39.0,0,780,7.0,0.0
3170,39.0,0,780,14.0,0.0
3171,66.0,0,780,11.0,0.0
3172,51.0,188,780,13.0,0.0
3173,51.0,0,780,7.0,0.0
3174,71.0,0,780,10.0,0.0
3175,59.0,240,240,6.0,0.0
3176,63.0,52,240,6.0,0.0
3177,66.0,240,240,6.0,0.0
3178,83.0,0,780,0.0,0.0
3179,66.0,0,780,3.0,0.0
3180,71.0,0,780,4.0,0.0
3181,71.0,240,240,6.0,0.0
3182,78.0,144,780,1.0,0.0
3183,75.0,0,780,1.0,0.0
3184,51.0,0,780,3.0,0.0
3185,75.0,240,240,6.0,0.0
3186,78.0,52,240,6.0,0.0
3187,39.0,0,180,7.0,0.0
3188,51.0,44,180,7.0,0.0
3189,83.0,480,240,6.0,0.0
3190,37.0,0,780,14.0,0.0
3191,37.0,0,780,7.0,0.0
3192,49.0,0,780,7.0,0.0
3193,73.0,0,780,11.0,0.0
3194,49.0,0,780,13.0,0.0
3195,68.0,0,780,12.0,0.0
3196,76.0,188,780,10.0,0.0
3197,61.0,240,240,6.0,0.0
3198,64.0,52,240,6.0,0.0
3199,68.0,240,240,6.0,0.0
3200,68.0,0,780,3.0,0.0
3201,73.0,240,240,6.0,0.0
3202,73.0,0,780,4.0,0.0
3203,49.0,144,780,3.0,0.0
3204,76.0,0,780,1.0,0.0
3205,80.0,0,780,1.0,0.0
3206,61.0,0,780,4.0,0.0
3207,88.0,0,780,0.0,0.0
3208,76.0,240,240,6.0,0.0
3209,80.0,52,240,6.0,0.0
3210,49.0,0,180,7.0,0.0
3211,37.0,44,180,7.0,0.0
3212,85.0,480,240,6.0,0.0
3213,47.0,0,780,7.0,0.0
3214,35.0,0,780,14.0,0.0
3215,68.0,0,780,10.0,0.0
3216,47.0,0,780,13.0,0.0
3217,63.0,0,780,11.0,0.0
3218,35.0,0,780,7.0,0.0
3219,56.0,188,780,12.0,0.0
3220,56.0,240,240,6.0,0.0
3221,59.0,52,240,6.0,0.0
3222,63.0,240,240,6.0,0.0
3223,71.0,0,780,4.0,0.0
3224,80.0,0,780,0.0,0.0
3225,68.0,0,780,1.0,0.0
3226,75.0,144,780,1.0,0.0
3227,47.0,0,780,3.0,0.0
3228,68.0,240,240,6.0,0.0
3229,63.0,0,780,3.0,0.0
3230,71.0,240,240,6.0,0.0
3231,75.0,52,240,6.0,0.0
3232,80.0,480,240,6.0,0.0
3233,47.0,44,180,7.0,0.0
3234,35.0,0,180,7.0,0.0
3235,33.0,0,780,7.0,0.0
3236,45.0,0,780,13.0,0.0
3237,45.0,188,780,7.0,0.0
3238,73.0,0,780,10.0,0.0
3239,33.0,0,780,14.0,0.0
3240,64.0,0,780,12.0,0.0
3241,69.0,0,780,11.0,0.0
3242,57.0,240,240,6.0,0.0
3243,61.0,52,240,6.0,0.0
3244,64.0,240,240,6.0,0.0
3245,64.0,0,780,3.0,0.0
3246,69.0,240,240,6.0,0.0
3247,69.0,0,780,4.0,0.0
3248,85.0,0,780,0.0,0.0
3249,76.0,144,780,1.0,0.0
3250,81.0,0,780,1.0,0.0
3251,45.0,0,780,3.0,0.0
3252,73.0,0,780,4.0,0.0
3253,73.0,240,240,6.0,0.0
3254,76.0,52,240,6.0,0.0
3255,45.0,0,180,7.0,0.0
3256,81.0,480,240,6.0,0.0
3257,33.0,44,180,7.0,0.0
3258,64.0,0,780,10.0,0.0
3259,32.0,0,780,14.0,0.0
3260,59.0,0,780,11.0,0.0
3261,32.0,0,780,7.0,0.0
3262,52.0,0,780,12.0,0.0
3263,44.0,0,780,13.0,0.0
3264,44.0,188,780,7.0,0.0
3265,52.0,240,240,6.0,0.0
3266,56.0,52,240,6.0,0.0
3267,59.0,240,240,6.0,0.0
3268,76.0,0,780,0.0,0.0
3269,71.0,0,780,1.0,0.0
3270,59.0,0,780,3.0,0.0
3271,44.0,188,780,3.0,0.0
3272,64.0,0,780,4.0,0.0
3273,68.0,0,780,1.0,0.0
3274,52.0,0,780,4.0,0.0
3275,64.0,240,240,6.0,0.0
3276,68.0,240,240,6.0,0.0
3277,71.0,52,240,6.0,0.0
3278,76.0,240,240,6.0,0.0
3279,54.0,148,240,7.0,0.0
3280,76.0,80,2640,1.0,0.0
3281,70.0,92,390,6.0,0.0
3282,64.0,0,2640,3.0,0.0
3283,64.0,124,240,7.0,0.0
3284,73.0,116,120,6.0,0.0
3285,55.0,172,240,7.0,0.0
3286,71.0,68,300,6.0,0.0
3287,64.0,240,240,7.0,0.0
3288,54.0,148,240,7.0,0.0
3289,70.0,92,390,6.0,0.0
3290,64.0,124,240,7.0,0.0
3291,73.0,116,120,6.0,0.0
3292,55.0,172,240,7.0,0.0
3293,71.0,68,300,6.0,0.0
3294,64.0,240,240,7.0,0.0
3295,54.0,148,240,7.0,0.0
3296,70.0,92,390,6.0,0.0
3297,64.0,124,240,7.0,0.0
3298,55.0,4,240,7.0,0.0
3299,73.0,116,120,6.0,0.0
3300,71.0,68,300,6.0,0.0
3301,74.0,80,90,1.0,0.0
3302,64.0,4,240,7.0,0.0
3303,62.0,0,90,3.0,0.0
3304,61.0,0,90,3.0,0.0
3305,73.0,8,90,1.0,0.0
3306,71.0,0,90,1.0,0.0
3307,59.0,384,90,3.0,0.0
3308,54.0,96,390,7.0,0.0
3309,70.0,384,480,1.0,0.0
3310,70.0,0,480,6.0,0.0
3311,58.0,0,480,3.0,0.0
3312,76.0,332,390,6.0,0.0
3313,59.0,148,240,7.0,0.0
3314,75.0,92,390,6.0,0.0
3315,69.0,80,2640,1.0,0.0
3316,81.0,0,2640,1.0,0.0
3317,69.0,124,240,7.0,0.0
3318,78.0,116,120,6.0,0.0
3319,60.0,172,240,7.0,0.0
3320,76.0,68,300,6.0,0.0
3321,69.0,240,240,7.0,0.0
3322,75.0,92,390,6.0,0.0
3323,59.0,148,240,7.0,0.0
3324,69.0,124,240,7.0,0.0
3325,60.0,172,240,7.0,0.0
3326,78.0,116,120,6.0,0.0
3327,76.0,68,300,6.0,0.0
3328,69.0,240,240,7.0,0.0
3329,75.0,92,390,6.0,0.0
3330,59.0,148,240,7.0,0.0
3331,69.0,124,240,7.0,0.0
3332,60.0,4,240,7.0,0.0
3333,78.0,116,120,6.0,0.0
3334,76.0,68,300,6.0,0.0
3335,67.0,0,90,1.0,0.0
3336,79.0,80,90,1.0,0.0
3337,69.0,4,240,7.0,0.0
3338,78.0,0,90,1.0,0.0
3339,66.0,8,90,1.0,0.0
3340,64.0,384,90,1.0,0.0
3341,76.0,0,90,1.0,0.0
3342,59.0,96,390,7.0,0.0
3343,75.0,384,480,6.0,0.0
3344,75.0,0,480,1.0,0.0
3345,63.0,0,480,1.0,0.0
3346,81.0,336,390,6.0,0.0
3347,86.0,0,2640,0.0,0.0
3348,80.0,96,390,6.0,0.0
3349,74.0,0,2640,1.0,0.0
3350,64.0,144,240,7.0,0.0
3351,74.0,120,240,7.0,0.0
3352,83.0,120,120,6.0,0.0
3353,65.0,168,240,7.0,0.0
3354,81.0,72,300,6.0,0.0
3355,74.0,240,240,7.0,0.0
3356,64.0,144,240,7.0,0.0
3357,80.0,96,390,6.0,0.0
3358,74.0,120,240,7.0,0.0
3359,83.0,120,120,6.0,0.0
3360,65.0,168,240,7.0,0.0
3361,81.0,72,300,6.0,0.0
3362,74.0,240,240,7.0,0.0
3363,80.0,96,390,6.0,0.0
3364,64.0,144,240,7.0,0.0
3365,74.0,120,240,7.0,0.0
3366,65.0,80,240,7.0,0.0
3367,83.0,120,120,6.0,0.0
3368,81.0,72,300,6.0,0.0
3369,84.0,0,90,0.0,0.0
3370,72.0,80,90,1.0,0.0
3371,74.0,0,240,7.0,0.0
3372,71.0,0,90,1.0,0.0
3373,83.0,8,90,0.0,0.0
3374,69.0,0,90,1.0,0.0
3375,81.0,384,90,0.0,0.0
3376,80.0,384,480,0.0,0.0
3377,80.0,0,480,6.0,0.0
3378,64.0,96,390,7.0,0.0
3379,68.0,0,480,1.0,0.0
3380,86.0,336,390,6.0,0.0
3381,57.0,48,240,7.0,0.0
3382,85.0,240,480,6.0,0.0
3383,69.0,0,300,12.0,0.0
3384,85.0,192,300,10.0,0.0
3385,69.0,0,240,7.0,0.0
3386,83.0,0,300,10.0,0.0
3387,68.0,24,300,12.0,0.0
3388,88.0,168,300,6.0,0.0
3389,56.0,48,240,7.0,0.0
3390,68.0,240,240,7.0,0.0
3391,54.0,48,240,7.0,0.0
3392,66.0,0,300,12.0,0.0
3393,81.0,192,300,10.0,0.0
3394,81.0,0,480,6.0,0.0
3395,66.0,240,240,7.0,0.0
3396,85.0,168,300,6.0,0.0
3397,80.0,0,300,10.0,0.0
3398,64.0,24,300,12.0,0.0
3399,52.0,48,240,7.0,0.0
3400,64.0,240,240,7.0,0.0
3401,51.0,48,240,7.0,0.0
3402,63.0,0,300,12.0,0.0
3403,78.0,192,300,10.0,0.0
3404,78.0,0,480,6.0,0.0
3405,63.0,240,240,7.0,0.0
3406,61.0,0,300,12.0,0.0
3407,81.0,168,300,6.0,0.0
3408,49.0,48,240,7.0,0.0
3409,76.0,24,300,10.0,0.0
3410,61.0,240,240,7.0,0.0
3411,59.0,192,300,12.0,0.0
3412,75.0,0,300,10.0,0.0
3413,75.0,0,480,6.0,0.0
3414,47.0,48,240,7.0,0.0
3415,59.0,240,240,7.0,0.0
3416,45.0,48,240,7.0,0.0
3417,73.0,0,300,10.0,0.0
3418,57.0,24,300,12.0,0.0
3419,78.0,168,300,6.0,0.0
3420,57.0,240,240,7.0,0.0
3421,44.0,48,240,7.0,0.0
3422,56.0,0,300,12.0,0.0
3423,71.0,0,300,10.0,0.0
3424,56.0,0,300,13.0,0.0
3425,71.0,0,480,6.0,0.0
3426,71.0,192,300,11.0,0.0
3427,56.0,240,240,7.0,0.0
3428,54.0,24,300,13.0,0.0
3429,75.0,168,300,6.0,0.0
3430,69.0,0,300,11.0,0.0
3431,42.0,48,240,7.0,0.0
3432,54.0,240,240,7.0,0.0
3433,40.0,48,240,7.0,0.0
3434,68.0,192,300,11.0,0.0
3435,52.0,0,300,13.0,0.0
3436,68.0,240,480,6.0,0.0
3437,52.0,0,240,7.0,0.0
3438,51.0,0,300,13.0,0.0
3439,39.0,48,240,7.0,0.0
3440,66.0,24,300,11.0,0.0
3441,71.0,168,300,6.0,0.0
3442,51.0,240,240,7.0,0.0
3443,64.0,192,300,11.0,0.0
3444,37.0,48,240,7.0,0.0
3445,49.0,0,300,13.0,0.0
3446,64.0,0,480,6.0,0.0
3447,49.0,240,240,7.0,0.0
3448,35.0,48,240,7.0,0.0
3449,47.0,24,300,13.0,0.0
3450,63.0,0,300,11.0,0.0
3451,68.0,168,300,6.0,0.0
3452,47.0,240,240,7.0,0.0
3453,45.0,192,300,13.0,0.0
3454,61.0,240,480,6.0,0.0
3455,61.0,0,300,11.0,0.0
3456,33.0,48,240,7.0,0.0
3457,45.0,0,240,7.0,0.0
3458,32.0,48,240,7.0,0.0
3459,59.0,0,300,11.0,0.0
3460,44.0,24,300,13.0,0.0
3461,64.0,168,300,6.0,0.0
3462,44.0,476,240,7.0,0.0
3463,81.0,0,1920,0.0,0.0
3464,57.0,0,1920,3.0,0.0
3465,54.0,476,1920,3.0,0.0
3466,69.0,0,1920,2.0,0.0
3467,30.0,34,1890,7.0,0.0
3468,42.0,0,1890,7.0,0.0
3469,75.0,0,1920,1.0,0.0
3470,57.0,240,240,6.0,0.0
3471,63.0,240,240,6.0,0.0
3472,66.0,240,240,6.0,0.0
3473,69.0,240,240,6.0,0.0
3474,75.0,240,240,6.0,0.0
3475,78.0,206,240,6.0,0.0
3476,81.0,4,240,6.0,0.0
3477,80.0,0,1920,0.0,0.0
3478,77.0,476,1920,1.0,0.0
3479,32.0,34,1890,7.0,0.0
3480,44.0,0,1890,7.0,0.0
3481,71.0,0,1920,2.0,0.0
3482,56.0,0,1920,3.0,0.0
3483,62.0,0,1920,3.0,0.0
3484,59.0,240,240,6.0,0.0
3485,65.0,240,240,6.0,0.0
3486,68.0,240,240,6.0,0.0
3487,71.0,240,240,6.0,0.0
3488,77.0,240,240,6.0,0.0
3489,80.0,206,240,6.0,0.0
3490,83.0,4,240,6.0,0.0
3491,73.0,0,3840,2.0,0.0
3492,78.0,0,1920,0.0,0.0
3493,45.0,0,1890,7.0,0.0
3494,61.0,476,1920,3.0,0.0
3495,78.0,0,1920,1.0,0.0
3496,57.0,0,1920,3.0,0.0
3497,33.0,34,1890,7.0,0.0
3498,61.0,240,240,6.0,0.0
3499,66.0,240,240,6.0,0.0
3500,69.0,240,240,6.0,0.0
3501,73.0,240,240,6.0,0.0
3502,78.0,240,240,6.0,0.0
3503,81.0,206,240,6.0,0.0
3504,85.0,4,240,6.0,0.0
3505,76.0,0,2310,1.0,0.0
3506,79.0,384,1920,0.0,0.0
3507,58.0,0,1920,3.0,0.0
3508,64.0,0,1920,3.0,0.0
3509,46.0,0,1890,7.0,0.0
3510,34.0,34,1890,7.0,0.0
3511,64.0,240,240,6.0,0.0
3512,67.0,240,240,6.0,0.0
3513,73.0,240,240,6.0,0.0
3514,76.0,240,240,6.0,0.0
3515,79.0,240,240,6.0,0.0
3516,85.0,206,240,6.0,0.0
3517,88.0,4,240,6.0,0.0
3518,80.0,0,390,0.0,0.0
3519,71.0,38,7650,4.0,0.0
3520,71.0,0,390,2.0,0.0
3521,59.0,48,390,3.0,0.0
3522,35.0,144,780,7.0,0.0
3523,47.0,0,780,7.0,0.0
3524,71.0,240,180,6.0,0.0
3525,70.0,96,180,6.0,0.0
3526,71.0,240,180,6.0,0.0
3527,73.0,240,180,6.0,0.0
3528,71.0,240,180,6.0,0.0
3529,75.0,192,180,6.0,0.0
3530,69.0,48,390,7.0,0.0
3531,71.0,240,180,6.0,0.0
3532,68.0,48,390,7.0,0.0
3533,76.0,192,180,6.0,0.0
3534,71.0,240,180,6.0,0.0
3535,63.0,48,390,7.0,0.0
3536,78.0,192,180,6.0,0.0
3537,71.0,240,180,6.0,0.0
3538,80.0,192,180,6.0,0.0
3539,64.0,48,390,7.0,0.0
3540,71.0,240,180,6.0,0.0
3541,66.0,48,390,7.0,0.0
3542,81.0,192,180,6.0,0.0
3543,71.0,240,180,6.0,0.0
3544,83.0,48,390,6.0,0.0
3545,68.0,192,180,7.0,0.0
3546,71.0,240,180,7.0,0.0
3547,85.0,48,390,6.0,0.0
3548,69.0,192,180,7.0,0.0
3549,71.0,240,180,7.0,0.0
3550,87.0,48,390,6.0,0.0
3551,66.0,192,180,7.0,0.0
3552,71.0,240,180,7.0,0.0
3553,88.0,48,390,6.0,0.0
3554,68.0,192,180,7.0,0.0
3555,71.0,168,180,7.0,0.0
3556,80.0,72,120,6.0,0.0
3557,59.0,48,180,7.0,0.0
3558,78.0,120,120,6.0,0.0
3559,69.0,48,180,7.0,0.0
3560,80.0,72,120,6.0,0.0
3561,78.0,120,120,6.0,0.0
3562,63.0,48,180,7.0,0.0
3563,80.0,72,120,6.0,0.0
3564,78.0,120,120,6.0,0.0
3565,69.0,48,180,7.0,0.0
3566,80.0,72,120,6.0,0.0
3567,78.0,120,120,6.0,0.0
3568,80.0,72,120,6.0,0.0
3569,59.0,48,180,7.0,0.0
3570,78.0,120,120,6.0,0.0
3571,80.0,72,120,6.0,0.0
3572,69.0,48,180,7.0,0.0
3573,78.0,120,120,6.0,0.0
3574,63.0,48,180,7.0,0.0
3575,80.0,72,120,6.0,0.0
3576,78.0,120,120,6.0,0.0
3577,76.0,72,120,6.0,0.0
3578,69.0,10,180,7.0,0.0
3579,78.0,236,120,6.0,0.0
3580,52.0,148,240,7.0,0.0
3581,64.0,0,23430,4.0,0.0
3582,76.0,92,390,6.0,0.0
3583,52.0,0,23430,4.0,0.0
3584,64.0,240,240,7.0,0.0
3585,56.0,240,240,7.0,0.0
3586,64.0,240,240,7.0,0.0
3587,59.0,240,240,7.0,0.0
3588,64.0,240,240,7.0,0.0
3589,56.0,240,240,7.0,0.0
3590,64.0,240,240,7.0,0.0
3591,81.0,6,480,5.0,0.0
3592,78.0,0,480,5.0,0.0
3593,69.0,0,480,5.0,0.0
3594,71.0,0,480,5.0,0.0
3595,52.0,148,240,7.0,0.0
3596,63.0,86,390,15.0,0.0
3597,71.0,44,1140,6.0,0.0
3598,64.0,240,240,7.0,0.0
3599,54.0,240,240,7.0,0.0
3600,64.0,196,240,7.0,0.0
3601,57.0,240,240,7.0,0.0
3602,64.0,196,240,7.0,0.0
3603,54.0,196,240,7.0,0.0
3604,73.0,44,180,6.0,0.0
3605,64.0,240,240,7.0,0.0
3606,75.0,44,180,6.0,0.0
3607,76.0,86,390,6.0,0.0
3608,71.0,0,480,5.0,0.0
3609,76.0,6,480,5.0,0.0
3610,68.0,0,480,5.0,0.0
3611,80.0,0,480,5.0,0.0
3612,64.0,0,390,15.0,0.0
3613,52.0,148,240,7.0,0.0
3614,64.0,240,240,7.0,0.0
3615,56.0,148,240,7.0,0.0
3616,76.0,92,390,6.0,0.0
3617,64.0,240,240,7.0,0.0
3618,59.0,4,240,7.0,0.0
3619,76.0,236,240,6.0,0.0
3620,78.0,236,240,6.0,0.0
3621,64.0,4,240,7.0,0.0
3622,56.0,4,240,7.0,0.0
3623,80.0,236,240,6.0,0.0
3624,64.0,4,240,7.0,0.0
3625,81.0,236,240,6.0,0.0
3626,69.0,0,480,5.0,0.0
3627,83.0,0,390,6.0,0.0
3628,66.0,6,480,5.0,0.0
3629,75.0,0,480,5.0,0.0
3630,52.0,148,240,7.0,0.0
3631,71.0,86,390,15.0,0.0
3632,78.0,0,480,5.0,0.0
3633,64.0,240,240,7.0,0.0
3634,54.0,148,240,7.0,0.0
3635,83.0,92,390,6.0,0.0
3636,64.0,240,240,7.0,0.0
3637,57.0,148,240,7.0,0.0
3638,83.0,92,390,6.0,0.0
3639,64.0,196,240,7.0,0.0
3640,54.0,196,240,7.0,0.0
3641,85.0,44,180,6.0,0.0
3642,64.0,240,240,7.0,0.0
3643,87.0,44,180,6.0,0.0
3644,52.0,148,240,7.0,0.0
3645,64.0,0,480,5.0,0.0
3646,88.0,0,390,6.0,0.0
3647,59.0,86,390,15.0,0.0
3648,76.0,6,480,5.0,0.0
3649,71.0,0,480,5.0,0.0
3650,68.0,0,480,5.0,0.0
3651,64.0,240,240,7.0,0.0
3652,88.0,92,390,6.0,0.0
3653,56.0,148,240,7.0,0.0
3654,64.0,240,240,7.0,0.0
3655,59.0,148,240,7.0,0.0
3656,88.0,92,390,6.0,0.0
3657,64.0,196,240,7.0,0.0
3658,56.0,196,240,7.0,0.0
3659,87.0,44,180,6.0,0.0
3660,85.0,44,180,6.0,0.0
3661,64.0,240,240,7.0,0.0
3662,52.0,148,240,7.0,0.0
3663,59.0,0,480,5.0,0.0
3664,69.0,0,480,5.0,0.0
3665,75.0,0,480,5.0,0.0
3666,66.0,6,480,5.0,0.0
3667,71.0,86,390,15.0,0.0
3668,83.0,0,390,6.0,0.0
3669,64.0,240,240,7.0,0.0
3670,83.0,92,390,6.0,0.0
3671,54.0,148,240,7.0,0.0
3672,64.0,240,240,7.0,0.0
3673,57.0,4,240,7.0,0.0
3674,83.0,236,240,6.0,0.0
3675,81.0,236,240,6.0,0.0
3676,64.0,4,240,7.0,0.0
3677,80.0,236,240,6.0,0.0
3678,54.0,4,240,7.0,0.0
3679,78.0,236,240,6.0,0.0
3680,64.0,4,240,7.0,0.0
3681,76.0,0,480,5.0,0.0
3682,68.0,0,480,5.0,0.0
3683,59.0,0,480,5.0,0.0
3684,71.0,0,480,5.0,0.0
3685,64.0,6,480,5.0,0.0
3686,52.0,86,390,15.0,0.0
3687,52.0,144,12300,13.0,0.0
3688,76.0,0,390,6.0,0.0
3689,59.0,0,390,15.0,0.0
3690,64.0,0,390,15.0,0.0
3691,52.0,148,240,7.0,0.0
3692,40.0,0,12300,14.0,0.0
3693,64.0,196,240,7.0,0.0
3694,80.0,44,180,6.0,0.0
3695,56.0,196,240,7.0,0.0
3696,76.0,44,180,6.0,0.0
3697,64.0,240,240,7.0,0.0
3698,71.0,92,390,6.0,0.0
3699,59.0,148,240,7.0,0.0
3700,64.0,240,240,7.0,0.0
3701,56.0,148,240,7.0,0.0
3702,71.0,92,390,6.0,0.0
3703,64.0,240,240,7.0,0.0
3704,71.0,0,1380,0.0,0.0
3705,59.0,0,1380,1.0,0.0
3706,63.0,86,390,15.0,0.0
3707,81.0,236,480,6.0,0.0
3708,71.0,0,480,5.0,0.0
3709,69.0,0,480,5.0,0.0
3710,52.0,148,240,7.0,0.0
3711,47.0,68,1380,3.0,0.0
3712,78.0,0,480,5.0,0.0
3713,81.0,6,480,5.0,0.0
3714,64.0,4,240,7.0,0.0
3715,54.0,148,240,7.0,0.0
3716,78.0,92,390,6.0,0.0
3717,64.0,240,240,7.0,0.0
3718,57.0,172,240,7.0,0.0
3719,64.0,160,240,7.0,0.0
3720,49.0,0,150,3.0,0.0
3721,54.0,148,240,7.0,0.0
3722,73.0,0,150,0.0,0.0
3723,71.0,12,390,6.0,0.0
3724,61.0,80,150,1.0,0.0
3725,64.0,240,240,7.0,0.0
3726,63.0,0,150,1.0,0.0
3727,51.0,80,150,3.0,0.0
3728,75.0,0,150,0.0,0.0
3729,76.0,6,480,5.0,0.0
3730,83.0,236,480,6.0,0.0
3731,68.0,0,480,5.0,0.0
3732,76.0,0,300,0.0,0.0
3733,52.0,76,240,7.0,0.0
3734,52.0,0,300,3.0,0.0
3735,64.0,86,390,15.0,0.0
3736,80.0,0,480,5.0,0.0
3737,71.0,0,480,5.0,0.0
3738,64.0,72,300,1.0,0.0
3739,64.0,4,240,7.0,0.0
3740,76.0,0,300,0.0,0.0
3741,80.0,92,390,6.0,0.0
3742,56.0,76,240,7.0,0.0
3743,64.0,0,300,1.0,0.0
3744,52.0,72,300,3.0,0.0
3745,64.0,160,240,7.0,0.0
3746,59.0,160,240,7.0,0.0
3747,76.0,0,150,0.0,0.0
3748,64.0,80,150,1.0,0.0
3749,52.0,0,150,3.0,0.0
3750,54.0,0,150,3.0,0.0
3751,78.0,0,150,0.0,0.0
3752,64.0,160,240,7.0,0.0
3753,66.0,80,150,1.0,0.0
3754,56.0,148,240,7.0,0.0
3755,56.0,0,150,3.0,0.0
3756,71.0,12,390,6.0,0.0
3757,68.0,80,150,1.0,0.0
3758,80.0,0,150,0.0,0.0
3759,81.0,0,150,0.0,0.0
3760,64.0,196,240,7.0,0.0
3761,57.0,80,150,3.0,0.0
3762,69.0,0,150,1.0,0.0
3763,52.0,76,240,7.0,0.0
3764,59.0,0,300,3.0,0.0
3765,81.0,44,180,6.0,0.0
3766,66.0,0,480,5.0,0.0
3767,71.0,48,390,15.0,0.0
3768,75.0,0,480,5.0,0.0
3769,83.0,0,300,0.0,0.0
3770,78.0,0,480,5.0,0.0
3771,69.0,6,480,5.0,0.0
3772,71.0,72,300,1.0,0.0
3773,64.0,196,240,7.0,0.0
3774,80.0,38,180,6.0,0.0
3775,71.0,0,300,1.0,0.0
3776,59.0,0,300,3.0,0.0
3777,78.0,44,180,6.0,0.0
3778,54.0,76,240,7.0,0.0
3779,83.0,120,300,0.0,0.0
3780,64.0,240,240,7.0,0.0
3781,76.0,44,180,6.0,0.0
3782,57.0,76,240,7.0,0.0
3783,75.0,92,390,6.0,0.0
3784,59.0,72,300,3.0,0.0
3785,71.0,0,300,1.0,0.0
3786,83.0,0,300,0.0,0.0
3787,64.0,160,240,7.0,0.0
3788,85.0,0,150,0.0,0.0
3789,54.0,148,240,7.0,0.0
3790,73.0,0,150,1.0,0.0
3791,61.0,80,150,3.0,0.0
3792,71.0,12,390,6.0,0.0
3793,87.0,0,150,0.0,0.0
3794,64.0,196,240,7.0,0.0
3795,63.0,0,150,3.0,0.0
3796,75.0,80,150,1.0,0.0
3797,64.0,0,480,5.0,0.0
3798,88.0,0,300,0.0,0.0
3799,52.0,76,240,7.0,0.0
3800,71.0,0,480,5.0,0.0
3801,76.0,72,300,1.0,0.0
3802,83.0,44,180,6.0,0.0
3803,64.0,0,300,3.0,0.0
3804,68.0,0,480,5.0,0.0
3805,59.0,48,390,15.0,0.0
3806,76.0,6,480,5.0,0.0
3807,81.0,38,180,6.0,0.0
3808,64.0,196,240,7.0,0.0
3809,64.0,0,300,3.0,0.0
3810,76.0,0,300,1.0,0.0
3811,80.0,44,180,6.0,0.0
3812,56.0,76,240,7.0,0.0
3813,88.0,120,300,0.0,0.0
3814,64.0,240,240,7.0,0.0
3815,78.0,44,180,6.0,0.0
3816,76.0,0,300,1.0,0.0
3817,88.0,0,300,0.0,0.0
3818,59.0,76,240,7.0,0.0
3819,64.0,72,300,3.0,0.0
3820,76.0,92,390,6.0,0.0
3821,64.0,160,240,7.0,0.0
3822,75.0,0,150,1.0,0.0
3823,87.0,0,150,0.0,0.0
3824,63.0,80,150,3.0,0.0
3825,76.0,12,390,6.0,0.0
3826,56.0,148,240,7.0,0.0
3827,64.0,196,240,7.0,0.0
3828,85.0,0,150,0.0,0.0
3829,61.0,0,150,3.0,0.0
3830,73.0,80,150,1.0,0.0
3831,75.0,44,180,6.0,0.0
3832,71.0,48,390,15.0,0.0
3833,52.0,76,240,7.0,0.0
3834,59.0,0,480,5.0,0.0
3835,69.0,6,480,5.0,0.0
3836,75.0,0,480,5.0,0.0
3837,59.0,0,300,3.0,0.0
3838,66.0,0,480,5.0,0.0
3839,83.0,72,300,0.0,0.0
3840,71.0,0,300,1.0,0.0
3841,64.0,196,240,7.0,0.0
3842,76.0,38,180,6.0,0.0
3843,78.0,44,180,6.0,0.0
3844,83.0,0,300,0.0,0.0
3845,71.0,0,300,1.0,0.0
3846,54.0,76,240,7.0,0.0
3847,59.0,120,300,3.0,0.0
3848,80.0,44,180,6.0,0.0
3849,64.0,160,240,7.0,0.0
3850,83.0,0,150,0.0,0.0
3851,59.0,36,150,3.0,0.0
3852,57.0,160,240,7.0,0.0
3853,71.0,0,150,1.0,0.0
3854,81.0,44,180,6.0,0.0
3855,69.0,0,150,1.0,0.0
3856,83.0,44,180,6.0,0.0
3857,64.0,160,240,7.0,0.0
3858,81.0,36,150,0.0,0.0
3859,57.0,0,150,3.0,0.0
3860,54.0,160,240,7.0,0.0
3861,56.0,0,150,3.0,0.0
3862,85.0,44,180,6.0,0.0
3863,80.0,36,150,0.0,0.0
3864,68.0,0,150,1.0,0.0
3865,54.0,0,150,3.0,0.0
3866,78.0,0,150,0.0,0.0
3867,87.0,44,180,6.0,0.0
3868,66.0,36,150,1.0,0.0
3869,64.0,196,240,7.0,0.0
3870,88.0,192,180,6.0,0.0
3871,64.0,0,390,1.0,0.0
3872,52.0,0,390,3.0,0.0
3873,52.0,0,390,7.0,0.0
3874,59.0,0,390,15.0,0.0
3875,64.0,48,390,15.0,0.0
3876,76.0,0,390,0.0,0.0
3877,64.0,0,480,5.0,0.0
3878,76.0,0,480,5.0,0.0
3879,68.0,0,480,5.0,0.0
3880,59.0,202,480,5.0,0.0
3881,52.0,0,390,15.0,0.0
3882,71.0,0,480,5.0,0.0
3883,83.0,38,180,6.0,0.0
3884,80.0,96,180,6.0,0.0
3885,76.0,240,180,6.0,0.0
3886,64.0,0,390,7.0,0.0
3887,68.0,48,390,7.0,0.0
3888,80.0,192,180,6.0,0.0
3889,76.0,240,180,6.0,0.0
3890,69.0,48,390,7.0,0.0
3891,81.0,192,180,6.0,0.0
3892,66.0,0,390,7.0,0.0
3893,78.0,240,180,6.0,0.0
3894,71.0,48,390,7.0,0.0
3895,83.0,192,180,6.0,0.0
3896,68.0,0,390,7.0,0.0
3897,80.0,240,180,6.0,0.0
3898,76.0,240,180,6.0,0.0
3899,83.0,240,180,6.0,0.0
3900,85.0,192,180,6.0,0.0
3901,73.0,48,390,7.0,0.0
3902,69.0,0,390,7.0,0.0
3903,81.0,240,180,6.0,0.0
3904,35.0,0,300,14.0,0.0
3905,66.0,0,300,11.0,0.0
3906,59.0,72,300,12.0,0.0
3907,57.0,0,300,12.0,0.0
3908,87.0,120,180,6.0,0.0
3909,66.0,48,390,7.0,0.0
3910,69.0,0,390,7.0,0.0
3911,47.0,0,300,13.0,0.0
3912,75.0,0,300,10.0,0.0
3913,83.0,240,180,6.0,0.0
3914,64.0,0,780,11.0,0.0
3915,88.0,192,180,6.0,0.0
3916,40.0,0,780,14.0,0.0
3917,56.0,144,780,12.0,0.0
3918,59.0,0,780,12.0,0.0
3919,76.0,0,780,10.0,0.0
3920,68.0,0,390,7.0,0.0
3921,52.0,0,780,13.0,0.0
3922,64.0,48,390,7.0,0.0
3923,83.0,240,180,6.0,0.0
3924,80.0,96,180,6.0,0.0
3925,76.0,240,180,6.0,0.0
3926,80.0,192,180,6.0,0.0
3927,68.0,0,390,7.0,0.0
3928,64.0,48,390,7.0,0.0
3929,76.0,240,180,6.0,0.0
3930,66.0,0,390,7.0,0.0
3931,69.0,48,390,7.0,0.0
3932,81.0,192,180,6.0,0.0
3933,78.0,240,180,6.0,0.0
3934,83.0,192,180,6.0,0.0
3935,68.0,48,390,7.0,0.0
3936,71.0,0,390,7.0,0.0
3937,80.0,240,180,6.0,0.0
3938,76.0,240,180,6.0,0.0
3939,83.0,240,180,6.0,0.0
3940,69.0,0,390,7.0,0.0
3941,85.0,192,180,6.0,0.0
3942,73.0,48,390,7.0,0.0
3943,81.0,240,180,6.0,0.0
3944,75.0,0,300,10.0,0.0
3945,35.0,0,300,14.0,0.0
3946,87.0,120,180,6.0,0.0
3947,59.0,0,300,12.0,0.0
3948,57.0,0,300,12.0,0.0
3949,47.0,72,300,13.0,0.0
3950,66.0,0,300,11.0,0.0
3951,66.0,48,390,7.0,0.0
3952,69.0,0,390,7.0,0.0
3953,83.0,240,180,6.0,0.0
3954,52.0,0,780,13.0,0.0
3955,76.0,0,780,10.0,0.0
3956,88.0,192,180,6.0,0.0
3957,68.0,0,390,7.0,0.0
3958,64.0,48,390,7.0,0.0
3959,40.0,0,780,14.0,0.0
3960,64.0,0,780,11.0,0.0
3961,56.0,0,780,12.0,0.0
3962,59.0,144,780,12.0,0.0
3963,83.0,240,180,6.0,0.0
3964,80.0,96,180,6.0,0.0
3965,76.0,240,180,6.0,0.0
3966,85.0,192,180,6.0,0.0
3967,69.0,0,390,7.0,0.0
3968,73.0,48,390,7.0,0.0
3969,81.0,240,180,6.0,0.0
3970,66.0,0,300,11.0,0.0
3971,75.0,0,300,10.0,0.0
3972,59.0,0,300,12.0,0.0
3973,57.0,72,300,12.0,0.0
3974,47.0,0,300,13.0,0.0
3975,66.0,48,390,7.0,0.0
3976,69.0,0,390,7.0,0.0
3977,35.0,0,300,14.0,0.0
3978,87.0,120,180,6.0,0.0
3979,83.0,240,180,6.0,0.0
3980,40.0,0,780,14.0,0.0
3981,64.0,48,390,7.0,0.0
3982,52.0,0,780,13.0,0.0
3983,88.0,192,180,6.0,0.0
3984,68.0,0,390,7.0,0.0
3985,59.0,0,780,12.0,0.0
3986,64.0,0,780,11.0,0.0
3987,76.0,0,780,10.0,0.0
3988,56.0,144,780,12.0,0.0
3989,83.0,240,180,6.0,0.0
3990,80.0,96,180,6.0,0.0
3991,76.0,240,180,6.0,0.0
3992,85.0,192,180,6.0,0.0
3993,69.0,48,390,7.0,0.0
3994,73.0,0,390,7.0,0.0
3995,81.0,240,180,6.0,0.0
3996,59.0,0,300,12.0,0.0
3997,57.0,72,300,12.0,0.0
3998,47.0,0,300,13.0,0.0
3999,66.0,48,390,7.0,0.0
4000,35.0,0,300,14.0,0.0
4001,75.0,0,300,10.0,0.0
4002,66.0,0,300,11.0,0.0
4003,87.0,120,180,6.0,0.0
4004,69.0,0,390,7.0,0.0
4005,83.0,432,180,6.0,0.0
4006,88.0,384,390,6.0,0.0
4007,64.0,0,390,7.0,0.0
4008,68.0,0,390,7.0,0.0
4009,76.0,0,780,10.0,0.0
4010,40.0,480,780,14.0,0.0
4011,59.0,0,780,12.0,0.0
4012,56.0,0,780,12.0,0.0
4013,64.0,0,780,11.0,0.0
4014,52.0,0,780,13.0,0.0
4015,80.0,0,300,1.0,0.0
4016,88.0,0,300,0.0,0.0
4017,71.0,0,300,4.0,0.0
4018,64.0,0,300,4.0,0.0
4019,76.0,0,300,1.0,0.0
4020,88.0,0,300,0.0,0.0
4021,80.0,0,300,1.0,0.0
4022,76.0,0,300,1.0,0.0
4023,64.0,0,300,4.0,0.0
4024,71.0,384,300,4.0,0.0
4025,76.0,240,180,6.0,0.0
4026,78.0,432,180,6.0,0.0
4027,80.0,288,390,6.0,0.0
4028,80.0,240,180,6.0,0.0
4029,81.0,432,180,6.0,0.0
4030,83.0,288,390,6.0,0.0
4031,85.0,240,180,6.0,0.0
4032,87.0,432,180,6.0,0.0
4033,88.0,384,390,6.0,0.0
4034,76.0,0,300,1.0,0.0
4035,59.0,96,300,3.0,0.0
4036,56.0,0,300,3.0,0.0
4037,64.0,0,390,4.0,0.0
4038,52.0,384,390,4.0,0.0
4039,68.0,0,300,1.0,0.0
4040,59.0,96,300,3.0,0.0
4041,56.0,0,300,3.0,0.0
4042,64.0,0,390,4.0,0.0
4043,68.0,0,300,1.0,0.0
4044,76.0,0,300,1.0,0.0
4045,52.0,288,390,4.0,0.0
4046,64.0,240,180,6.0,0.0
4047,66.0,432,180,6.0,0.0
4048,68.0,288,390,6.0,0.0
4049,68.0,240,180,6.0,0.0
4050,69.0,432,180,6.0,0.0
4051,71.0,288,390,6.0,0.0
4052,73.0,240,180,6.0,0.0
4053,75.0,432,180,6.0,0.0
4054,76.0,384,390,6.0,0.0
4055,64.0,0,300,4.0,0.0
4056,59.0,480,300,1.0,0.0
4057,56.0,0,300,1.0,0.0
4058,52.0,0,300,3.0,0.0
4059,40.0,0,300,3.0,0.0
4060,52.0,0,300,4.0,0.0
4061,59.0,384,300,1.0,0.0
4062,56.0,0,300,1.0,0.0
4063,52.0,0,300,3.0,0.0
4064,52.0,0,300,4.0,0.0
4065,64.0,0,300,4.0,0.0
4066,40.0,0,300,3.0,0.0
4067,64.0,240,180,6.0,0.0
4068,66.0,432,180,6.0,0.0
4069,64.0,384,1920,3.0,0.0
4070,68.0,384,390,6.0,0.0
4071,88.0,384,6720,0.0,0.0
4072,68.0,480,300,1.0,0.0
4073,40.0,0,300,3.0,0.0
4074,52.0,0,300,4.0,0.0
4075,64.0,0,300,4.0,0.0
4076,76.0,0,300,1.0,0.0
4077,76.0,0,300,1.0,0.0
4078,68.0,0,300,1.0,0.0
4079,64.0,0,300,4.0,0.0
4080,52.0,0,300,4.0,0.0
4081,40.0,384,300,3.0,0.0
4082,66.0,240,180,6.0,0.0
4083,68.0,48,180,6.0,0.0
4084,63.0,384,1920,3.0,0.0
4085,69.0,384,390,6.0,0.0
4086,40.0,0,300,3.0,0.0
4087,78.0,0,300,1.0,0.0
4088,69.0,0,300,1.0,0.0
4089,52.0,0,300,4.0,0.0
4090,64.0,480,300,4.0,0.0
4091,52.0,0,300,4.0,0.0
4092,69.0,0,300,1.0,0.0
4093,64.0,0,300,4.0,0.0
4094,40.0,384,300,3.0,0.0
4095,78.0,0,300,1.0,0.0
4096,68.0,240,180,6.0,0.0
4097,69.0,48,180,6.0,0.0
4098,62.0,384,1920,3.0,0.0
4099,71.0,384,390,6.0,0.0
4100,52.0,0,300,4.0,0.0
4101,64.0,480,300,4.0,0.0
4102,80.0,0,300,1.0,0.0
4103,40.0,0,300,3.0,0.0
4104,71.0,0,300,1.0,0.0
4105,40.0,0,300,3.0,0.0
4106,64.0,0,300,4.0,0.0
4107,80.0,0,300,1.0,0.0
4108,71.0,0,300,1.0,0.0
4109,52.0,384,300,4.0,0.0
4110,40.0,0,300,3.0,0.0
4111,52.0,0,300,4.0,0.0
4112,64.0,0,300,4.0,0.0
4113,69.0,96,180,6.0,0.0
4114,71.0,0,300,1.0,0.0
4115,80.0,144,300,1.0,0.0
4116,71.0,48,180,6.0,0.0
4117,73.0,288,390,6.0,0.0
4118,61.0,0,960,3.0,0.0
4119,81.0,144,300,1.0,0.0
4120,73.0,0,300,1.0,0.0
4121,64.0,0,300,4.0,0.0
4122,40.0,0,300,3.0,0.0
4123,71.0,96,180,6.0,0.0
4124,52.0,0,300,4.0,0.0
4125,73.0,48,180,6.0,0.0
4126,59.0,0,960,3.0,0.0
4127,86.0,192,960,0.0,0.0
4128,74.0,288,390,6.0,0.0
4129,73.0,96,180,6.0,0.0
4130,74.0,0,300,1.0,0.0
4131,40.0,0,300,3.0,0.0
4132,52.0,0,300,4.0,0.0
4133,64.0,144,300,4.0,0.0
4134,80.0,0,300,1.0,0.0
4135,74.0,48,180,6.0,0.0
4136,73.0,0,390,1.0,0.0
4137,57.0,0,390,4.0,0.0
4138,64.0,0,390,4.0,0.0
4139,81.0,0,390,1.0,0.0
4140,85.0,0,390,0.0,0.0
4141,76.0,0,390,6.0,0.0
4142,57.0,192,180,7.0,0.0
4143,57.0,0,390,3.0,0.0
4144,45.0,48,390,3.0,0.0
4145,64.0,240,180,7.0,0.0
4146,61.0,240,180,7.0,0.0
4147,64.0,240,180,7.0,0.0
4148,69.0,48,390,6.0,0.0
4149,57.0,192,180,7.0,0.0
4150,64.0,240,180,7.0,0.0
4151,61.0,240,180,7.0,0.0
4152,64.0,240,180,7.0,0.0
4153,81.0,240,1140,6.0,0.0
4154,57.0,240,180,7.0,0.0
4155,66.0,240,180,7.0,0.0
4156,62.0,240,180,7.0,0.0
4157,66.0,240,180,7.0,0.0
4158,57.0,0,180,7.0,0.0
4159,66.0,240,180,7.0,0.0
4160,80.0,0,180,6.0,0.0
4161,62.0,240,180,7.0,0.0
4162,78.0,0,180,6.0,0.0
4163,66.0,240,180,7.0,0.0
4164,78.0,192,240,6.0,0.0
4165,57.0,48,180,7.0,0.0
4166,76.0,0,180,6.0,0.0
4167,64.0,240,180,7.0,0.0
4168,61.0,0,180,7.0,0.0
4169,74.0,240,180,6.0,0.0
4170,73.0,0,180,6.0,0.0
4171,64.0,240,180,7.0,0.0
4172,56.0,0,180,7.0,0.0
4173,74.0,240,180,6.0,0.0
4174,64.0,240,180,7.0,0.0
4175,71.0,0,180,6.0,0.0
4176,57.0,0,180,7.0,0.0
4177,73.0,240,180,6.0,0.0
4178,64.0,0,180,7.0,0.0
4179,69.0,240,180,6.0,0.0
4180,52.0,48,390,7.0,0.0
4181,73.0,192,180,6.0,0.0
4182,71.0,240,180,6.0,0.0
4183,69.0,240,180,6.0,0.0
4184,68.0,240,180,6.0,0.0
4185,66.0,240,180,6.0,0.0
4186,64.0,240,180,6.0,0.0
4187,63.0,240,180,6.0,0.0
4188,64.0,240,180,6.0,0.0
4189,76.0,48,390,6.0,0.0
4190,57.0,192,180,7.0,0.0
4191,64.0,240,180,7.0,0.0
4192,61.0,240,180,7.0,0.0
4193,64.0,240,180,7.0,0.0
4194,57.0,192,180,7.0,0.0
4195,69.0,48,390,6.0,0.0
4196,67.0,240,180,7.0,0.0
4197,61.0,240,180,7.0,0.0
4198,67.0,240,180,7.0,0.0
4199,57.0,96,180,7.0,0.0
4200,81.0,144,300,6.0,0.0
4201,66.0,240,180,7.0,0.0
4202,62.0,240,180,7.0,0.0
4203,81.0,144,780,6.0,0.0
4204,66.0,240,180,7.0,0.0
4205,57.0,96,180,7.0,0.0
4206,66.0,240,180,7.0,0.0
4207,62.0,0,180,7.0,0.0
4208,80.0,240,180,6.0,0.0
4209,66.0,288,180,7.0,0.0
4210,78.0,0,180,6.0,0.0
4211,61.0,120,300,7.0,0.0
4212,57.0,0,300,7.0,0.0
4213,76.0,72,240,6.0,0.0
4214,81.0,240,180,6.0,0.0
4215,50.0,120,300,7.0,0.0
4216,59.0,0,300,7.0,0.0
4217,78.0,120,180,6.0,0.0
4218,74.0,288,180,6.0,0.0
4219,57.0,120,300,7.0,0.0
4220,52.0,24,780,7.0,0.0
4221,73.0,72,240,6.0,0.0
4222,76.0,240,180,6.0,0.0
4223,74.0,96,180,6.0,0.0
4224,56.0,120,300,7.0,0.0
4225,71.0,192,180,6.0,0.0
4226,69.0,240,150,6.0,0.0
4227,57.0,240,390,7.0,0.0
4228,73.0,0,150,6.0,0.0
4229,76.0,240,150,6.0,0.0
4230,81.0,240,150,6.0,0.0
4231,85.0,240,150,6.0,0.0
4232,88.0,240,150,6.0,0.0
4233,85.0,240,150,6.0,0.0
4234,81.0,288,150,6.0,0.0
4235,61.0,0,1830,3.0,0.0
4236,57.0,0,300,13.0,0.0
4237,61.0,120,180,11.0,0.0
4238,76.0,0,1830,1.0,0.0
4239,76.0,48,390,10.0,0.0
4240,73.0,0,1830,1.0,0.0
4241,57.0,0,1830,4.0,0.0
4242,69.0,48,1830,4.0,0.0
4243,81.0,0,4800,0.0,0.0
4244,69.0,0,300,12.0,0.0
4245,64.0,0,1830,3.0,0.0
4246,45.0,72,300,14.0,0.0
4247,64.0,240,180,11.0,0.0
4248,69.0,0,300,12.0,0.0
4249,61.0,120,180,11.0,0.0
4250,45.0,120,300,14.0,0.0
4251,57.0,0,300,13.0,0.0
4252,64.0,240,180,11.0,0.0
4253,57.0,0,300,13.0,0.0
4254,69.0,72,300,12.0,0.0
4255,61.0,120,180,11.0,0.0
4256,45.0,0,300,14.0,0.0
4257,69.0,48,390,10.0,0.0
4258,64.0,240,180,11.0,0.0
4259,61.0,120,180,11.0,0.0
4260,57.0,0,300,13.0,0.0
4261,69.0,72,300,12.0,0.0
4262,45.0,0,300,14.0,0.0
4263,64.0,240,180,11.0,0.0
4264,74.0,0,1830,1.0,0.0
4265,62.0,120,180,11.0,0.0
4266,57.0,120,300,13.0,0.0
4267,66.0,48,1830,3.0,0.0
4268,78.0,0,1830,1.0,0.0
4269,69.0,0,300,12.0,0.0
4270,62.0,0,1830,3.0,0.0
4271,45.0,0,300,14.0,0.0
4272,69.0,0,1830,4.0,0.0
4273,57.0,0,1830,4.0,0.0
4274,81.0,120,1140,10.0,0.0
4275,66.0,240,180,11.0,0.0
4276,69.0,0,300,12.0,0.0
4277,45.0,120,300,14.0,0.0
4278,62.0,120,180,11.0,0.0
4279,57.0,0,300,13.0,0.0
4280,66.0,240,180,11.0,0.0
4281,57.0,0,300,13.0,0.0
4282,62.0,0,180,11.0,0.0
4283,69.0,0,300,12.0,0.0
4284,45.0,120,300,14.0,0.0
4285,66.0,240,180,11.0,0.0
4286,80.0,0,180,10.0,0.0
4287,69.0,72,300,12.0,0.0
4288,45.0,0,300,14.0,0.0
4289,62.0,120,180,11.0,0.0
4290,57.0,0,300,13.0,0.0
4291,78.0,240,180,10.0,0.0
4292,66.0,0,180,11.0,0.0
4293,45.0,120,300,14.0,0.0
4294,61.0,48,180,11.0,0.0
4295,78.0,72,240,10.0,0.0
4296,61.0,0,960,3.0,0.0
4297,76.0,0,960,1.0,0.0
4298,69.0,0,300,12.0,0.0
4299,69.0,0,780,4.0,0.0
4300,57.0,24,780,4.0,0.0
4301,64.0,0,960,3.0,0.0
4302,73.0,192,960,1.0,0.0
4303,57.0,0,300,13.0,0.0
4304,64.0,0,180,11.0,0.0
4305,76.0,240,180,10.0,0.0
4306,57.0,0,300,13.0,0.0
4307,69.0,0,300,12.0,0.0
4308,69.0,0,180,11.0,0.0
4309,45.0,120,300,14.0,0.0
4310,74.0,96,180,10.0,0.0
4311,73.0,0,180,10.0,0.0
4312,64.0,48,180,11.0,0.0
4313,59.0,192,480,3.0,0.0
4314,69.0,0,300,12.0,0.0
4315,57.0,72,300,13.0,0.0
4316,64.0,48,390,4.0,0.0
4317,74.0,0,480,1.0,0.0
4318,71.0,0,480,1.0,0.0
4319,45.0,0,300,14.0,0.0
4320,71.0,48,180,11.0,0.0
4321,83.0,0,480,0.0,0.0
4322,74.0,72,240,10.0,0.0
4323,62.0,0,480,3.0,0.0
4324,71.0,0,390,4.0,0.0
4325,71.0,0,180,10.0,0.0
4326,64.0,48,180,11.0,0.0
4327,57.0,72,300,13.0,0.0
4328,73.0,0,180,10.0,0.0
4329,69.0,120,180,11.0,0.0
4330,69.0,0,300,12.0,0.0
4331,45.0,0,300,14.0,0.0
4332,69.0,0,480,1.0,0.0
4333,73.0,240,480,1.0,0.0
4334,85.0,0,480,0.0,0.0
4335,73.0,48,390,4.0,0.0
4336,57.0,0,480,3.0,0.0
4337,61.0,0,480,3.0,0.0
4338,69.0,0,390,4.0,0.0
4339,64.0,0,180,11.0,0.0
4340,69.0,48,180,10.0,0.0
4341,68.0,0,240,11.0,0.0
4342,64.0,48,390,4.0,0.0
4343,40.0,0,780,14.0,0.0
4344,71.0,0,390,4.0,0.0
4345,83.0,144,240,0.0,0.0
4346,52.0,0,780,13.0,0.0
4347,68.0,0,480,1.0,0.0
4348,71.0,0,240,10.0,0.0
4349,59.0,0,960,3.0,0.0
4350,56.0,240,960,3.0,0.0
4351,64.0,96,780,12.0,0.0
4352,76.0,0,180,10.0,0.0
4353,64.0,48,180,11.0,0.0
4354,88.0,0,180,0.0,0.0
4355,75.0,0,240,10.0,0.0
4356,64.0,48,390,4.0,0.0
4357,71.0,240,15,1.0,0.0
4358,63.0,48,240,11.0,0.0
4359,74.0,0,480,1.0,0.0
4360,87.0,0,240,0.0,0.0
4361,88.0,0,180,0.0,0.0
4362,64.0,0,180,11.0,0.0
4363,76.0,48,180,10.0,0.0
4364,75.0,144,240,10.0,0.0
4365,64.0,48,390,4.0,0.0
4366,61.0,0,480,3.0,0.0
4367,87.0,0,240,0.0,0.0
4368,63.0,0,240,11.0,0.0
4369,73.0,0,480,1.0,0.0
4370,57.0,0,480,3.0,0.0
4371,69.0,240,480,1.0,0.0
4372,88.0,0,180,0.0,0.0
4373,76.0,48,180,10.0,0.0
4374,64.0,0,180,11.0,0.0
4375,62.0,0,480,3.0,0.0
4376,64.0,48,390,4.0,0.0
4377,66.0,0,240,11.0,0.0
4378,90.0,0,240,0.0,0.0
4379,59.0,0,480,3.0,0.0
4380,68.0,0,480,1.0,0.0
4381,71.0,192,480,1.0,0.0
4382,78.0,144,240,10.0,0.0
4383,88.0,0,180,0.0,0.0
4384,76.0,0,180,10.0,0.0
4385,64.0,48,180,11.0,0.0
4386,73.0,0,1830,2.0,0.0
4387,69.0,0,1530,4.0,0.0
4388,45.0,0,390,14.0,0.0
4389,61.0,48,1830,3.0,0.0
4390,57.0,0,1830,3.0,0.0
4391,76.0,0,390,10.0,0.0
4392,57.0,96,1530,4.0,0.0
4393,57.0,0,390,13.0,0.0
4394,69.0,48,390,12.0,0.0
4395,81.0,0,4740,0.0,0.0
4396,76.0,0,1830,1.0,0.0
4397,61.0,192,180,11.0,0.0
4398,64.0,240,180,11.0,0.0
4399,61.0,192,180,11.0,0.0
4400,45.0,0,390,14.0,0.0
4401,69.0,48,390,12.0,0.0
4402,57.0,0,390,13.0,0.0
4403,64.0,240,180,11.0,0.0
4404,57.0,0,390,13.0,0.0
4405,61.0,192,180,11.0,0.0
4406,45.0,48,390,14.0,0.0
4407,69.0,0,390,12.0,0.0
4408,69.0,0,390,10.0,0.0
4409,64.0,144,180,11.0,0.0
4410,57.0,0,390,13.0,0.0
4411,61.0,192,180,11.0,0.0
4412,69.0,0,390,12.0,0.0
4413,45.0,0,390,14.0,0.0
4414,64.0,240,180,11.0,0.0
4415,78.0,48,1830,1.0,0.0
4416,62.0,96,180,11.0,0.0
4417,69.0,0,1530,4.0,0.0
4418,57.0,96,1530,4.0,0.0
4419,45.0,0,390,14.0,0.0
4420,66.0,0,1830,3.0,0.0
4421,62.0,0,1830,3.0,0.0
4422,74.0,0,1830,2.0,0.0
4423,57.0,48,390,13.0,0.0
4424,69.0,0,390,12.0,0.0
4425,81.0,96,300,10.0,0.0
4426,66.0,240,180,11.0,0.0
4427,69.0,0,390,12.0,0.0
4428,57.0,48,390,13.0,0.0
4429,62.0,192,180,11.0,0.0
4430,45.0,0,390,14.0,0.0
4431,81.0,96,780,10.0,0.0
4432,66.0,240,180,11.0,0.0
4433,62.0,96,180,11.0,0.0
4434,57.0,0,390,13.0,0.0
4435,45.0,0,390,14.0,0.0
4436,69.0,48,390,12.0,0.0
4437,66.0,144,180,11.0,0.0
4438,62.0,0,180,11.0,0.0
4439,45.0,0,390,14.0,0.0
4440,80.0,192,180,10.0,0.0
4441,57.0,0,390,13.0,0.0
4442,69.0,0,390,12.0,0.0
4443,78.0,0,180,10.0,0.0
4444,66.0,240,180,11.0,0.0
4445,57.0,96,780,4.0,0.0
4446,69.0,0,780,4.0,0.0
4447,69.0,0,390,12.0,0.0
4448,45.0,48,390,14.0,0.0
4449,76.0,0,1830,1.0,0.0
4450,61.0,0,1830,3.0,0.0
4451,64.0,0,1830,3.0,0.0
4452,57.0,0,390,13.0,0.0
4453,61.0,192,180,11.0,0.0
4454,76.0,0,390,10.0,0.0
4455,73.0,0,2820,2.0,0.0
4456,64.0,240,180,11.0,0.0
4457,45.0,0,390,14.0,0.0
4458,61.0,96,180,11.0,0.0
4459,57.0,0,390,13.0,0.0
4460,57.0,48,390,12.0,0.0
4461,64.0,240,180,11.0,0.0
4462,45.0,0,390,14.0,0.0
4463,61.0,192,180,11.0,0.0
4464,57.0,0,390,12.0,0.0
4465,64.0,96,570,4.0,0.0
4466,61.0,0,570,4.0,0.0
4467,57.0,48,390,13.0,0.0
4468,69.0,0,390,10.0,0.0
4469,85.0,240,900,0.0,0.0
4470,64.0,144,180,11.0,0.0
4471,57.0,0,390,13.0,0.0
4472,57.0,48,390,12.0,0.0
4473,45.0,0,390,14.0,0.0
4474,61.0,192,180,11.0,0.0
4475,64.0,0,180,4.0,0.0
4476,64.0,0,180,11.0,0.0
4477,61.0,0,180,4.0,0.0
4478,79.0,192,1140,10.0,0.0
4479,79.0,0,1830,1.0,0.0
4480,58.0,48,390,13.0,0.0
4481,58.0,0,390,12.0,0.0
4482,64.0,96,1530,4.0,0.0
4483,61.0,0,1530,4.0,0.0
4484,64.0,0,1830,3.0,0.0
4485,67.0,48,1830,3.0,0.0
4486,46.0,0,390,14.0,0.0
4487,61.0,192,180,11.0,0.0
4488,88.0,240,900,0.0,0.0
4489,64.0,240,180,11.0,0.0
4490,58.0,0,390,12.0,0.0
4491,61.0,192,180,11.0,0.0
4492,46.0,48,390,14.0,0.0
4493,58.0,0,390,13.0,0.0
4494,64.0,0,180,11.0,0.0
4495,58.0,48,390,13.0,0.0
4496,58.0,0,390,12.0,0.0
4497,85.0,240,900,0.0,0.0
4498,61.0,0,180,11.0,0.0
4499,46.0,0,390,14.0,0.0
4500,76.0,0,900,2.0,0.0
4501,64.0,144,180,11.0,0.0
4502,58.0,0,390,12.0,0.0
4503,78.0,0,180,10.0,0.0
4504,58.0,0,390,13.0,0.0
4505,61.0,192,180,11.0,0.0
4506,46.0,0,390,14.0,0.0
4507,64.0,0,180,11.0,0.0
4508,76.0,0,180,10.0,0.0
4509,59.0,0,390,12.0,0.0
4510,83.0,0,4740,0.0,0.0
4511,75.0,0,1830,2.0,0.0
4512,63.0,48,1830,3.0,0.0
4513,71.0,0,5670,4.0,0.0
4514,78.0,0,1830,1.0,0.0
4515,66.0,0,1830,3.0,0.0
4516,75.0,48,390,10.0,0.0
4517,59.0,0,390,13.0,0.0
4518,63.0,192,180,11.0,0.0
4519,47.0,0,390,14.0,0.0
4520,66.0,240,180,11.0,0.0
4521,63.0,192,180,11.0,0.0
4522,71.0,48,390,12.0,0.0
4523,47.0,0,390,14.0,0.0
4524,59.0,0,390,13.0,0.0
4525,66.0,240,180,11.0,0.0
4526,71.0,48,390,10.0,0.0
4527,71.0,0,390,12.0,0.0
4528,47.0,0,390,14.0,0.0
4529,59.0,0,390,13.0,0.0
4530,63.0,192,180,11.0,0.0
4531,66.0,240,180,11.0,0.0
4532,71.0,0,390,12.0,0.0
4533,63.0,192,180,11.0,0.0
4534,47.0,0,390,14.0,0.0
4535,59.0,0,390,13.0,0.0
4536,66.0,240,180,11.0,0.0
4537,64.0,96,180,11.0,0.0
4538,64.0,0,1830,3.0,0.0
4539,67.0,0,1830,3.0,0.0
4540,76.0,0,1830,2.0,0.0
4541,47.0,48,390,14.0,0.0
4542,59.0,0,390,13.0,0.0
4543,79.0,0,1830,1.0,0.0
4544,71.0,0,390,12.0,0.0
4545,83.0,96,300,10.0,0.0
4546,67.0,240,180,11.0,0.0
4547,64.0,192,180,11.0,0.0
4548,59.0,0,390,13.0,0.0
4549,71.0,48,390,12.0,0.0
4550,83.0,96,780,10.0,0.0
4551,47.0,0,390,14.0,0.0
4552,67.0,240,180,11.0,0.0
4553,47.0,0,390,14.0,0.0
4554,59.0,0,390,13.0,0.0
4555,64.0,96,180,11.0,0.0
4556,71.0,48,390,12.0,0.0
4557,67.0,240,180,11.0,0.0
4558,59.0,0,390,13.0,0.0
4559,64.0,0,180,11.0,0.0
4560,81.0,192,180,10.0,0.0
4561,47.0,48,390,14.0,0.0
4562,71.0,0,390,12.0,0.0
4563,79.0,240,180,10.0,0.0
4564,67.0,0,180,11.0,0.0
4565,47.0,0,390,14.0,0.0
4566,63.0,192,180,11.0,0.0
4567,75.0,0,2820,2.0,0.0
4568,78.0,48,390,10.0,0.0
4569,59.0,0,390,13.0,0.0
4570,71.0,0,390,12.0,0.0
4571,63.0,0,1830,3.0,0.0
4572,66.0,0,1830,3.0,0.0
4573,78.0,48,1830,1.0,0.0
4574,66.0,240,180,11.0,0.0
4575,59.0,0,390,13.0,0.0
4576,59.0,0,390,12.0,0.0
4577,47.0,48,390,14.0,0.0
4578,63.0,192,180,11.0,0.0
4579,66.0,240,180,11.0,0.0
4580,59.0,0,390,12.0,0.0
4581,59.0,48,390,13.0,0.0
4582,87.0,0,900,0.0,0.0
4583,63.0,192,180,11.0,0.0
4584,47.0,0,390,14.0,0.0
4585,71.0,0,390,10.0,0.0
4586,66.0,240,180,11.0,0.0
4587,59.0,0,390,12.0,0.0
4588,63.0,192,180,11.0,0.0
4589,59.0,0,390,13.0,0.0
4590,47.0,0,390,14.0,0.0
4591,66.0,240,180,11.0,0.0
4592,69.0,48,1830,3.0,0.0
4593,66.0,0,1830,3.0,0.0
4594,60.0,0,390,12.0,0.0
4595,90.0,0,900,0.0,0.0
4596,81.0,0,1830,1.0,0.0
4597,63.0,192,180,11.0,0.0
4598,81.0,192,1140,10.0,0.0
4599,60.0,0,390,13.0,0.0
4600,48.0,48,390,14.0,0.0
4601,66.0,240,180,11.0,0.0
4602,48.0,0,390,14.0,0.0
4603,60.0,0,390,12.0,0.0
4604,63.0,192,180,11.0,0.0
4605,60.0,48,390,13.0,0.0
4606,66.0,240,180,11.0,0.0
4607,78.0,0,900,2.0,0.0
4608,87.0,240,900,0.0,0.0
4609,48.0,0,390,14.0,0.0
4610,60.0,0,390,13.0,0.0
4611,60.0,48,390,12.0,0.0
4612,63.0,0,180,11.0,0.0
4613,66.0,240,180,11.0,0.0
4614,48.0,0,390,14.0,0.0
4615,60.0,0,390,13.0,0.0
4616,63.0,192,180,11.0,0.0
4617,60.0,0,390,12.0,0.0
4618,80.0,0,180,10.0,0.0
4619,78.0,0,180,10.0,0.0
4620,66.0,0,180,11.0,0.0
4621,68.0,0,390,3.0,0.0
4622,61.0,0,390,13.0,0.0
4623,65.0,0,390,3.0,0.0
4624,77.0,0,390,1.0,0.0
4625,61.0,0,180,12.0,0.0
4626,61.0,0,2310,4.0,0.0
4627,80.0,0,390,1.0,0.0
4628,85.0,0,390,0.0,0.0
4629,49.0,48,390,14.0,0.0
4630,77.0,192,180,10.0,0.0
4631,65.0,0,180,11.0,0.0
4632,61.0,0,180,12.0,0.0
4633,77.0,0,180,10.0,0.0
4634,65.0,240,180,11.0,0.0
4635,80.0,0,180,10.0,0.0
4636,61.0,48,390,13.0,0.0
4637,65.0,0,180,11.0,0.0
4638,61.0,192,180,12.0,0.0
4639,49.0,0,390,14.0,0.0
4640,61.0,0,180,12.0,0.0
4641,80.0,0,180,10.0,0.0
4642,65.0,240,180,11.0,0.0
4643,73.0,0,390,1.0,0.0
4644,49.0,0,390,14.0,0.0
4645,49.0,0,390,3.0,0.0
4646,61.0,48,390,13.0,0.0
4647,61.0,0,390,1.0,0.0
4648,77.0,0,180,10.0,0.0
4649,65.0,192,180,12.0,0.0
4650,68.0,0,180,11.0,0.0
4651,73.0,0,390,0.0,0.0
4652,65.0,240,180,12.0,0.0
4653,77.0,0,180,10.0,0.0
4654,68.0,0,180,11.0,0.0
4655,61.0,48,390,13.0,0.0
4656,65.0,0,180,12.0,0.0
4657,73.0,0,180,10.0,0.0
4658,68.0,192,180,11.0,0.0
4659,49.0,0,390,14.0,0.0
4660,68.0,0,180,11.0,0.0
4661,65.0,0,180,12.0,0.0
4662,73.0,240,180,10.0,0.0
4663,61.0,0,390,13.0,0.0
4664,69.0,0,1140,1.0,0.0
4665,63.0,0,180,12.0,0.0
4666,81.0,0,1140,1.0,0.0
4667,66.0,96,180,11.0,0.0
4668,72.0,96,300,10.0,0.0
4669,81.0,0,1140,0.0,0.0
4670,57.0,0,1140,3.0,0.0
4671,49.0,48,390,14.0,0.0
4672,63.0,0,180,12.0,0.0
4673,66.0,240,180,11.0,0.0
4674,66.0,0,180,11.0,0.0
4675,49.0,0,390,14.0,0.0
4676,63.0,192,180,12.0,0.0
4677,84.0,96,780,10.0,0.0
4678,61.0,0,390,4.0,0.0
4679,61.0,48,390,13.0,0.0
4680,63.0,0,180,12.0,0.0
4681,66.0,240,180,11.0,0.0
4682,49.0,48,390,14.0,0.0
4683,61.0,0,390,4.0,0.0
4684,66.0,0,180,11.0,0.0
4685,63.0,96,180,12.0,0.0
4686,61.0,0,390,13.0,0.0
4687,63.0,0,180,12.0,0.0
4688,66.0,240,180,11.0,0.0
4689,80.0,0,180,0.0,0.0
4690,61.0,0,390,4.0,0.0
4691,68.0,0,180,11.0,0.0
4692,56.0,0,180,3.0,0.0
4693,84.0,0,390,10.0,0.0
4694,63.0,0,180,12.0,0.0
4695,61.0,0,390,13.0,0.0
4696,80.0,0,180,1.0,0.0
4697,49.0,48,390,14.0,0.0
4698,68.0,192,180,1.0,0.0
4699,78.0,0,180,0.0,0.0
4700,78.0,240,180,1.0,0.0
4701,66.0,0,180,1.0,0.0
4702,63.0,0,180,12.0,0.0
4703,54.0,0,180,3.0,0.0
4704,69.0,0,180,11.0,0.0
4705,68.0,0,180,11.0,0.0
4706,61.0,0,2310,4.0,0.0
4707,77.0,0,390,0.0,0.0
4708,53.0,0,390,3.0,0.0
4709,77.0,0,390,1.0,0.0
4710,65.0,0,390,1.0,0.0
4711,49.0,0,390,14.0,0.0
4712,61.0,48,390,13.0,0.0
4713,85.0,0,180,10.0,0.0
4714,65.0,192,180,12.0,0.0
4715,65.0,240,180,12.0,0.0
4716,85.0,0,180,10.0,0.0
4717,68.0,0,180,11.0,0.0
4718,61.0,0,180,12.0,0.0
4719,61.0,0,390,13.0,0.0
4720,49.0,48,390,14.0,0.0
4721,65.0,0,180,11.0,0.0
4722,80.0,192,180,10.0,0.0
4723,65.0,240,180,11.0,0.0
4724,61.0,0,180,12.0,0.0
4725,80.0,0,180,10.0,0.0
4726,73.0,0,390,1.0,0.0
4727,73.0,0,390,0.0,0.0
4728,61.0,192,180,11.0,0.0
4729,61.0,0,390,13.0,0.0
4730,49.0,0,390,14.0,0.0
4731,56.0,0,180,12.0,0.0
4732,49.0,0,390,3.0,0.0
4733,77.0,0,180,10.0,0.0
4734,61.0,48,390,1.0,0.0
4735,61.0,0,180,11.0,0.0
4736,56.0,240,180,12.0,0.0
4737,77.0,0,180,10.0,0.0
4738,61.0,0,180,12.0,0.0
4739,73.0,0,180,10.0,0.0
4740,65.0,192,180,11.0,0.0
4741,61.0,48,390,13.0,0.0
4742,49.0,0,390,14.0,0.0
4743,61.0,0,180,12.0,0.0
4744,65.0,240,180,11.0,0.0
4745,73.0,0,180,10.0,0.0
4746,63.0,0,180,12.0,0.0
4747,72.0,96,300,10.0,0.0
4748,81.0,0,1140,0.0,0.0
4749,49.0,0,390,14.0,0.0
4750,81.0,0,1140,1.0,0.0
4751,57.0,0,1140,3.0,0.0
4752,69.0,0,1140,1.0,0.0
4753,61.0,48,390,13.0,0.0
4754,66.0,96,180,11.0,0.0
4755,66.0,240,180,11.0,0.0
4756,63.0,0,180,12.0,0.0
4757,61.0,0,390,13.0,0.0
4758,49.0,48,390,14.0,0.0
4759,61.0,0,390,4.0,0.0
4760,66.0,192,180,11.0,0.0
4761,63.0,0,180,12.0,0.0
4762,84.0,96,780,10.0,0.0
4763,63.0,240,180,12.0,0.0
4764,66.0,0,180,11.0,0.0
4765,63.0,0,180,12.0,0.0
4766,61.0,0,390,4.0,0.0
4767,49.0,48,390,14.0,0.0
4768,66.0,96,180,11.0,0.0
4769,61.0,0,390,13.0,0.0
4770,63.0,0,180,12.0,0.0
4771,66.0,240,180,11.0,0.0
4772,68.0,0,180,11.0,0.0
4773,61.0,0,390,4.0,0.0
4774,49.0,48,390,14.0,0.0
4775,84.0,0,390,10.0,0.0
4776,80.0,0,180,0.0,0.0
4777,56.0,0,180,3.0,0.0
4778,63.0,0,180,12.0,0.0
4779,61.0,0,390,13.0,0.0
4780,80.0,192,180,1.0,0.0
4781,68.0,0,180,1.0,0.0
4782,69.0,240,180,11.0,0.0
4783,66.0,0,180,1.0,0.0
4784,54.0,0,180,3.0,0.0
4785,78.0,0,180,0.0,0.0
4786,78.0,0,180,1.0,0.0
4787,63.0,0,180,12.0,0.0
4788,61.0,96,780,4.0,0.0
4789,85.0,120,180,10.0,0.0
4790,49.0,48,390,14.0,0.0
4791,65.0,0,300,1.0,0.0
4792,56.0,72,300,12.0,0.0
4793,77.0,0,300,0.0,0.0
4794,53.0,0,300,3.0,0.0
4795,68.0,0,300,11.0,0.0
4796,61.0,0,390,13.0,0.0
4797,77.0,0,300,1.0,0.0
4798,85.0,204,180,10.0,0.0
4799,78.0,0,150,0.0,0.0
4800,61.0,12,390,13.0,0.0
4801,49.0,0,390,14.0,0.0
4802,73.0,96,180,10.0,0.0
4803,54.0,36,150,12.0,0.0
4804,66.0,0,150,11.0,0.0
4805,54.0,0,150,3.0,0.0
4806,66.0,0,150,1.0,0.0
4807,78.0,0,150,1.0,0.0
4808,80.0,0,150,1.0,0.0
4809,68.0,0,150,1.0,0.0
4810,56.0,0,150,3.0,0.0
4811,80.0,0,150,0.0,0.0
4812,53.0,36,150,12.0,0.0
4813,65.0,0,150,11.0,0.0
4814,73.0,240,180,10.0,0.0
4815,57.0,0,300,3.0,0.0
4816,81.0,0,300,0.0,0.0
4817,66.0,0,300,11.0,0.0
4818,72.0,120,180,10.0,0.0
4819,61.0,0,390,13.0,0.0
4820,69.0,0,300,1.0,0.0
4821,81.0,0,300,1.0,0.0
4822,49.0,0,390,14.0,0.0
4823,61.0,48,390,4.0,0.0
4824,54.0,72,300,12.0,0.0
4825,72.0,204,180,10.0,0.0
4826,68.0,36,150,11.0,0.0
4827,49.0,0,390,14.0,0.0
4828,61.0,0,390,4.0,0.0
4829,61.0,12,390,13.0,0.0
4830,56.0,0,150,3.0,0.0
4831,80.0,0,150,0.0,0.0
4832,68.0,0,150,1.0,0.0
4833,56.0,0,150,12.0,0.0
4834,84.0,192,180,10.0,0.0
4835,80.0,0,150,1.0,0.0
4836,69.0,36,150,11.0,0.0
4837,78.0,0,150,0.0,0.0
4838,78.0,0,150,1.0,0.0
4839,54.0,0,150,3.0,0.0
4840,84.0,240,180,10.0,0.0
4841,57.0,0,150,12.0,0.0
4842,66.0,0,150,1.0,0.0
4843,61.0,0,390,13.0,0.0
4844,56.0,0,300,12.0,0.0
4845,85.0,120,180,10.0,0.0
4846,53.0,72,300,3.0,0.0
4847,49.0,48,390,14.0,0.0
4848,77.0,0,300,0.0,0.0
4849,61.0,96,780,4.0,0.0
4850,68.0,0,300,11.0,0.0
4851,65.0,0,300,1.0,0.0
4852,77.0,0,300,1.0,0.0
4853,85.0,204,180,10.0,0.0
4854,78.0,0,150,1.0,0.0
4855,54.0,36,150,12.0,0.0
4856,61.0,12,390,13.0,0.0
4857,78.0,0,150,0.0,0.0
4858,66.0,0,150,11.0,0.0
4859,66.0,0,150,1.0,0.0
4860,49.0,0,390,14.0,0.0
4861,54.0,0,150,3.0,0.0
4862,73.0,96,180,10.0,0.0
4863,73.0,240,180,10.0,0.0
4864,80.0,36,150,0.0,0.0
4865,68.0,0,150,1.0,0.0
4866,53.0,0,150,12.0,0.0
4867,65.0,0,150,11.0,0.0
4868,56.0,0,150,3.0,0.0
4869,80.0,0,150,1.0,0.0
4870,81.0,0,300,1.0,0.0
4871,72.0,120,180,10.0,0.0
4872,66.0,0,300,11.0,0.0
4873,57.0,0,300,3.0,0.0
4874,54.0,0,300,12.0,0.0
4875,49.0,0,390,14.0,0.0
4876,81.0,72,300,0.0,0.0
4877,61.0,48,390,4.0,0.0
4878,69.0,0,300,1.0,0.0
4879,61.0,0,390,13.0,0.0
4880,72.0,204,180,10.0,0.0
4881,84.0,192,180,10.0,0.0
4882,61.0,12,390,13.0,0.0
4883,80.0,36,150,1.0,0.0
4884,68.0,0,150,11.0,0.0
4885,68.0,0,150,1.0,0.0
4886,80.0,0,150,0.0,0.0
4887,56.0,0,150,3.0,0.0
4888,61.0,0,390,4.0,0.0
4889,49.0,0,390,14.0,0.0
4890,56.0,0,150,12.0,0.0
4891,84.0,432,180,10.0,0.0
4892,78.0,0,150,1.0,0.0
4893,66.0,0,150,1.0,0.0
4894,57.0,0,150,12.0,0.0
4895,78.0,0,150,0.0,0.0
4896,54.0,0,150,3.0,0.0
4897,69.0,36,150,11.0,0.0
4898,56.0,0,390,12.0,0.0
4899,77.0,0,390,0.0,0.0
4900,68.0,0,390,11.0,0.0
4901,65.0,0,390,1.0,0.0
4902,77.0,0,390,1.0,0.0
4903,49.0,960,390,14.0,0.0
4904,61.0,0,390,4.0,0.0
4905,53.0,0,390,3.0,0.0
4906,85.0,0,390,10.0,0.0
4907,61.0,0,390,13.0,0.0
4908,73.0,0,390,1.0,0.0
4909,61.0,0,390,11.0,0.0
4910,61.0,0,390,4.0,0.0
4911,49.0,0,390,12.0,0.0
4912,37.0,0,390,14.0,0.0
4913,49.0,0,390,13.0,0.0
4914,61.0,0,390,10.0,0.0
4915,49.0,0,390,3.0,0.0
4916,85.0,1344,390,0.0,0.0
4917,61.0,0,780,11.0,0.0
4918,61.0,0,780,4.0,0.0
4919,49.0,1622,780,12.0,0.0
4920,73.0,0,780,1.0,0.0
4921,49.0,0,780,3.0,0.0
4922,61.0,0,780,10.0,0.0
4923,37.0,0,780,14.0,0.0
4924,49.0,0,780,13.0,0.0
4925,85.0,0,780,0.0,0.0
4926,42.0,10,930,14.0,0.0
4927,73.0,10,960,11.0,0.0
4928,57.0,0,480,11.0,0.0
4929,69.0,0,930,10.0,0.0
4930,42.0,0,480,8.0,0.0
4931,66.0,10,480,11.0,0.0
4932,49.0,460,480,8.0,0.0
4933,54.0,0,930,12.0,0.0
4934,45.0,0,480,8.0,0.0
4935,54.0,0,930,13.0,0.0
4936,78.0,0,480,7.0,0.0
4937,85.0,240,1200,6.0,0.0
4938,54.0,236,960,7.0,0.0
4939,73.0,0,480,7.0,0.0
4940,78.0,0,930,10.0,0.0
4941,83.0,240,240,6.0,0.0
4942,81.0,240,240,6.0,0.0
4943,80.0,240,240,6.0,0.0
4944,78.0,240,240,6.0,0.0
4945,76.0,240,240,6.0,0.0
4946,74.0,240,240,6.0,0.0
4947,73.0,240,240,6.0,0.0
4948,71.0,240,240,6.0,0.0
4949,69.0,240,240,6.0,0.0
4950,68.0,240,240,6.0,0.0
4951,66.0,240,240,6.0,0.0
4952,56.0,0,3840,7.0,0.0
4953,44.0,0,3810,14.0,0.0
4954,83.0,0,3810,10.0,0.0
4955,62.0,236,3840,7.0,0.0
4956,74.0,0,3810,11.0,0.0
4957,56.0,34,3810,13.0,0.0
4958,59.0,0,3840,7.0,0.0
4959,65.0,0,3810,12.0,0.0
4960,65.0,240,240,6.0,0.0
4961,68.0,240,240,6.0,0.0
4962,71.0,240,240,6.0,0.0
4963,69.0,240,240,6.0,0.0
4964,68.0,240,240,6.0,0.0
4965,71.0,240,240,6.0,0.0
4966,74.0,240,240,6.0,0.0
4967,73.0,240,240,6.0,0.0
4968,71.0,240,240,6.0,0.0
4969,77.0,240,240,6.0,0.0
4970,80.0,240,240,6.0,0.0
4971,78.0,240,240,6.0,0.0
4972,77.0,240,240,6.0,0.0
4973,80.0,240,240,6.0,0.0
4974,83.0,206,240,6.0,0.0
4975,81.0,4,240,6.0,0.0
4976,37.0,0,3810,14.0,0.0
4977,49.0,0,3810,13.0,0.0
4978,68.0,0,3810,10.0,0.0
4979,65.0,34,3810,11.0,0.0
4980,61.0,0,8070,12.0,0.0
4981,80.0,240,240,6.0,0.0
4982,59.0,0,3810,7.0,0.0
4983,56.0,0,3810,7.0,0.0
4984,49.0,0,3810,7.0,0.0
4985,83.0,240,240,6.0,0.0
4986,86.0,240,240,6.0,0.0
4987,85.0,240,240,6.0,0.0
4988,83.0,240,240,6.0,0.0
4989,81.0,240,240,6.0,0.0
4990,80.0,240,240,6.0,0.0
4991,78.0,240,240,6.0,0.0
4992,77.0,240,240,6.0,0.0
4993,74.0,240,240,6.0,0.0
4994,73.0,240,240,6.0,0.0
4995,71.0,240,240,6.0,0.0
4996,69.0,240,240,6.0,0.0
4997,68.0,240,240,6.0,0.0
4998,66.0,206,240,6.0,0.0
4999,65.0,196,240,6.0,0.0
5000,66.0,240,180,6.0,0.0
5001,73.0,0,960,10.0,0.0
5002,57.0,192,960,13.0,0.0
5003,69.0,0,960,11.0,0.0
5004,45.0,0,960,14.0,0.0
5005,57.0,202,480,7.0,0.0
5006,61.0,38,180,6.0,0.0
5007,69.0,240,180,6.0,0.0
5008,54.0,10,480,7.0,0.0
5009,66.0,38,180,6.0,0.0
5010,68.0,240,180,6.0,0.0
5011,53.0,202,480,7.0,0.0
5012,41.0,0,960,14.0,0.0
5013,53.0,192,960,13.0,0.0
5014,71.0,0,960,10.0,0.0
5015,68.0,0,960,11.0,0.0
5016,61.0,38,180,6.0,0.0
5017,71.0,240,180,6.0,0.0
5018,49.0,10,480,7.0,0.0
5019,68.0,38,180,6.0,0.0
5020,42.0,0,960,14.0,0.0
5021,69.0,192,960,10.0,0.0
5022,66.0,0,960,11.0,0.0
5023,54.0,0,960,13.0,0.0
5024,69.0,240,180,6.0,0.0
5025,54.0,202,480,7.0,0.0
5026,66.0,38,180,6.0,0.0
5027,49.0,10,480,7.0,0.0
5028,73.0,240,180,6.0,0.0
5029,69.0,38,180,6.0,0.0
5030,71.0,240,180,6.0,0.0
5031,68.0,0,960,10.0,0.0
5032,59.0,0,960,12.0,0.0
5033,56.0,384,960,13.0,0.0
5034,44.0,0,960,14.0,0.0
5035,65.0,0,960,11.0,0.0
5036,56.0,202,480,7.0,0.0
5037,68.0,38,180,6.0,0.0
5038,74.0,240,180,6.0,0.0
5039,49.0,10,480,7.0,0.0
5040,71.0,38,180,6.0,0.0
5041,61.0,38,7650,4.0,0.0
5042,57.0,0,390,7.0,0.0
5043,57.0,0,390,12.0,0.0
5044,45.0,0,390,14.0,0.0
5045,73.0,576,390,6.0,0.0
5046,66.0,0,390,10.0,0.0
5047,66.0,0,390,11.0,0.0
5048,57.0,0,390,13.0,0.0
5049,61.0,480,480,1.0,0.0
5050,73.0,0,480,0.0,0.0
5051,85.0,0,480,0.0,0.0
5052,73.0,480,480,1.0,0.0
5053,81.0,0,480,0.0,0.0
5054,69.0,864,480,1.0,0.0
5055,80.0,0,960,0.0,0.0
5056,68.0,384,960,1.0,0.0
5057,57.0,0,390,3.0,0.0
5058,61.0,96,390,3.0,0.0
5059,61.0,0,480,2.0,0.0
5060,78.0,96,390,0.0,0.0
5061,61.0,0,390,3.0,0.0
5062,57.0,0,390,3.0,0.0
5063,66.0,0,390,1.0,0.0
5064,66.0,384,480,2.0,0.0
5065,61.0,0,390,3.0,0.0
5066,57.0,96,390,3.0,0.0
5067,69.0,768,480,2.0,0.0
5068,53.0,0,780,3.0,0.0
5069,61.0,192,780,3.0,0.0
5070,68.0,0,960,2.0,0.0
5071,61.0,480,480,1.0,0.0
5072,73.0,0,480,0.0,0.0
5073,86.0,480,480,0.0,0.0
5074,74.0,0,480,1.0,0.0
5075,83.0,0,480,0.0,0.0
5076,71.0,864,480,1.0,0.0
5077,81.0,384,960,0.0,0.0
5078,69.0,0,960,1.0,0.0
5079,61.0,96,390,3.0,0.0
5080,61.0,0,480,2.0,0.0
5081,53.0,0,390,3.0,0.0
5082,68.0,0,390,1.0,0.0
5083,80.0,96,390,0.0,0.0
5084,53.0,0,390,3.0,0.0
5085,61.0,0,390,3.0,0.0
5086,68.0,384,480,2.0,0.0
5087,53.0,0,390,3.0,0.0
5088,71.0,960,480,2.0,0.0
5089,61.0,58,390,3.0,0.0
5090,61.0,96,2310,3.0,0.0
5091,69.0,480,1440,2.0,0.0
5092,54.0,0,1440,3.0,0.0
5093,77.0,480,480,0.0,0.0
5094,65.0,0,480,1.0,0.0
5095,66.0,0,480,1.0,0.0
5096,78.0,0,480,0.0,0.0
5097,80.0,0,480,0.0,0.0
5098,52.0,384,480,3.0,0.0
5099,68.0,0,480,1.0,0.0
5100,50.0,384,1920,3.0,0.0
5101,69.0,0,480,1.0,0.0
5102,66.0,480,1440,2.0,0.0
5103,81.0,384,480,0.0,0.0
5104,54.0,96,390,3.0,0.0
5105,70.0,0,480,1.0,0.0
5106,82.0,480,480,0.0,0.0
5107,66.0,96,1350,3.0,0.0
5108,71.0,0,480,1.0,0.0
5109,83.0,0,480,0.0,0.0
5110,84.0,0,480,0.0,0.0
5111,72.0,0,480,1.0,0.0
5112,68.0,0,480,2.0,0.0
5113,49.0,0,2370,3.0,0.0
5114,69.0,480,480,2.0,0.0
5115,73.0,0,1440,1.0,0.0
5116,61.0,72,2310,4.0,0.0
5117,85.0,240,1440,0.0,0.0
5118,66.0,0,480,3.0,0.0
5119,69.0,480,480,2.0,0.0
5120,65.0,0,480,3.0,0.0
5121,68.0,0,480,2.0,0.0
5122,84.0,240,240,0.0,0.0
5123,66.0,0,480,3.0,0.0
5124,69.0,0,480,2.0,0.0
5125,72.0,0,240,1.0,0.0
5126,85.0,384,240,0.0,0.0
5127,73.0,0,240,1.0,0.0
5128,65.0,288,450,3.0,0.0
5129,68.0,0,450,1.0,0.0
5130,73.0,0,450,0.0,0.0
5131,61.0,0,450,2.0,0.0
5132,65.0,0,270,11.0,0.0
5133,59.0,0,270,13.0,0.0
5134,74.0,0,270,10.0,0.0
5135,47.0,0,270,14.0,0.0
5136,68.0,480,270,12.0,0.0
5137,69.0,0,270,12.0,0.0
5138,66.0,480,270,11.0,0.0
5139,57.0,0,270,13.0,0.0
5140,45.0,0,270,14.0,0.0
5141,73.0,0,270,10.0,0.0
5142,77.0,0,270,10.0,0.0
5143,56.0,0,270,13.0,0.0
5144,68.0,0,270,12.0,0.0
5145,44.0,686,270,14.0,0.0
5146,71.0,0,270,11.0,0.0
5147,42.0,172,780,14.0,0.0
5148,85.0,240,1200,6.0,0.0
5149,49.0,0,480,8.0,0.0
5150,54.0,0,780,13.0,0.0
5151,69.0,0,780,10.0,0.0
5152,78.0,0,780,10.0,0.0
5153,66.0,0,780,12.0,0.0
5154,54.0,256,930,7.0,0.0
5155,78.0,298,480,7.0,0.0
5156,73.0,0,480,7.0,0.0
5157,66.0,0,780,11.0,0.0
5158,69.0,0,780,11.0,0.0
5159,42.0,0,480,8.0,0.0
5160,45.0,0,480,8.0,0.0
5161,83.0,240,240,6.0,0.0
5162,81.0,240,240,6.0,0.0
5163,80.0,240,240,6.0,0.0
5164,78.0,240,240,6.0,0.0
5165,76.0,240,240,6.0,0.0
5166,74.0,240,240,6.0,0.0
5167,73.0,240,240,6.0,0.0
5168,71.0,240,240,6.0,0.0
5169,69.0,240,240,6.0,0.0
5170,68.0,240,240,6.0,0.0
5171,66.0,240,240,6.0,0.0
5172,65.0,240,240,6.0,0.0
5173,74.0,0,3810,11.0,0.0
5174,65.0,0,3810,12.0,0.0
5175,56.0,0,3810,13.0,0.0
5176,56.0,0,3810,7.0,0.0
5177,59.0,0,3810,7.0,0.0
5178,62.0,0,3810,7.0,0.0
5179,44.0,0,3810,14.0,0.0
5180,83.0,34,3810,10.0,0.0
5181,68.0,240,240,6.0,0.0
5182,71.0,240,240,6.0,0.0
5183,69.0,240,240,6.0,0.0
5184,68.0,240,240,6.0,0.0
5185,71.0,240,240,6.0,0.0
5186,74.0,240,240,6.0,0.0
5187,73.0,240,240,6.0,0.0
5188,71.0,240,240,6.0,0.0
5189,77.0,240,240,6.0,0.0
5190,80.0,240,240,6.0,0.0
5191,78.0,240,240,6.0,0.0
5192,77.0,240,240,6.0,0.0
5193,80.0,240,240,6.0,0.0
5194,83.0,206,240,6.0,0.0
5195,81.0,240,240,6.0,0.0
5196,80.0,240,240,6.0,0.0
5197,49.0,0,3810,13.0,0.0
5198,37.0,0,3810,14.0,0.0
5199,59.0,0,3810,7.0,0.0
5200,56.0,0,3810,7.0,0.0
5201,49.0,0,3810,7.0,0.0
5202,68.0,34,3810,10.0,0.0
5203,65.0,0,3810,11.0,0.0
5204,61.0,0,6720,12.0,0.0
5205,83.0,240,240,6.0,0.0
5206,86.0,240,240,6.0,0.0
5207,85.0,240,240,6.0,0.0
5208,83.0,240,240,6.0,0.0
5209,81.0,240,240,6.0,0.0
5210,80.0,240,240,6.0,0.0
5211,78.0,240,240,6.0,0.0
5212,77.0,240,240,6.0,0.0
5213,74.0,240,240,6.0,0.0
5214,73.0,240,240,6.0,0.0
5215,71.0,240,240,6.0,0.0
5216,69.0,240,240,6.0,0.0
5217,68.0,240,240,6.0,0.0
5218,66.0,206,240,6.0,0.0
5219,65.0,240,240,6.0,0.0
5220,66.0,234,240,6.0,0.0
5221,45.0,236,960,14.0,0.0
5222,57.0,0,960,13.0,0.0
5223,69.0,0,960,11.0,0.0
5224,73.0,0,960,10.0,0.0
5225,57.0,6,480,7.0,0.0
5226,61.0,240,240,6.0,0.0
5227,54.0,6,480,7.0,0.0
5228,69.0,234,240,6.0,0.0
5229,66.0,4,240,6.0,0.0
5230,40.0,0,960,14.0,0.0
5231,68.0,234,240,6.0,0.0
5232,53.0,6,480,7.0,0.0
5233,71.0,0,960,10.0,0.0
5234,68.0,0,960,11.0,0.0
5235,52.0,236,960,13.0,0.0
5236,61.0,240,240,6.0,0.0
5237,71.0,234,240,6.0,0.0
5238,49.0,6,480,7.0,0.0
5239,68.0,4,240,6.0,0.0
5240,69.0,234,240,6.0,0.0
5241,54.0,6,480,7.0,0.0
5242,69.0,236,480,10.0,0.0
5243,54.0,0,480,13.0,0.0
5244,66.0,0,1440,11.0,0.0
5245,42.0,0,480,14.0,0.0
5246,66.0,4,240,6.0,0.0
5247,52.0,6,480,7.0,0.0
5248,52.0,236,480,13.0,0.0
5249,40.0,0,480,14.0,0.0
5250,73.0,234,240,6.0,0.0
5251,70.0,0,480,10.0,0.0
5252,70.0,4,240,6.0,0.0
5253,50.0,0,480,13.0,0.0
5254,71.0,234,240,6.0,0.0
5255,38.0,0,480,14.0,0.0
5256,62.0,0,480,12.0,0.0
5257,50.0,6,480,7.0,0.0
5258,71.0,236,480,10.0,0.0
5259,66.0,4,240,6.0,0.0
5260,47.0,6,480,7.0,0.0
5261,74.0,234,240,6.0,0.0
5262,35.0,0,480,14.0,0.0
5263,66.0,384,480,12.0,0.0
5264,74.0,0,480,10.0,0.0
5265,47.0,0,480,13.0,0.0
5266,71.0,0,480,11.0,0.0
5267,71.0,4,240,6.0,0.0
5268,46.0,0,390,13.0,0.0
5269,34.0,0,390,14.0,0.0
5270,64.0,0,390,11.0,0.0
5271,73.0,576,390,6.0,0.0
5272,73.0,0,390,10.0,0.0
5273,67.0,0,390,12.0,0.0
5274,46.0,0,390,7.0,0.0
5275,52.0,0,480,3.0,0.0
5276,64.0,480,480,1.0,0.0
5277,67.0,0,480,3.0,0.0
5278,79.0,480,480,1.0,0.0
5279,64.0,0,480,3.0,0.0
5280,76.0,864,480,1.0,0.0
5281,74.0,384,960,1.0,0.0
5282,62.0,0,960,3.0,0.0
5283,46.0,0,390,3.0,0.0
5284,64.0,96,390,2.0,0.0
5285,67.0,0,390,0.0,0.0
5286,61.0,384,480,3.0,0.0
5287,46.0,96,390,3.0,0.0
5288,73.0,0,480,1.0,0.0
5289,67.0,0,390,0.0,0.0
5290,64.0,0,390,2.0,0.0
5291,46.0,0,390,3.0,0.0
5292,67.0,864,390,0.0,0.0
5293,64.0,0,390,2.0,0.0
5294,62.0,192,780,2.0,0.0
5295,47.0,0,780,3.0,0.0
5296,66.0,0,780,0.0,0.0
5297,62.0,480,480,1.0,0.0
5298,50.0,0,480,3.0,0.0
5299,66.0,480,480,3.0,0.0
5300,78.0,0,480,1.0,0.0
5301,74.0,864,480,1.0,0.0
5302,62.0,0,480,3.0,0.0
5303,73.0,0,960,1.0,0.0
5304,61.0,0,960,3.0,0.0
5305,62.0,384,480,2.0,0.0
5306,66.0,0,480,0.0,0.0
5307,50.0,96,390,3.0,0.0
5308,71.0,0,480,0.0,0.0
5309,50.0,96,390,3.0,0.0
5310,66.0,0,480,2.0,0.0
5311,59.0,0,480,3.0,0.0
5312,71.0,384,480,1.0,0.0
5313,50.0,96,390,3.0,0.0
5314,71.0,384,480,2.0,0.0
5315,74.0,0,480,0.0,0.0
5316,49.0,576,390,3.0,0.0
5317,78.0,384,1920,0.0,0.0
5318,69.0,0,1920,2.0,0.0
5319,61.0,38,3810,4.0,0.0
5320,69.0,480,480,1.0,0.0
5321,57.0,0,480,3.0,0.0
5322,61.0,480,480,3.0,0.0
5323,73.0,0,480,1.0,0.0
5324,54.0,0,480,3.0,0.0
5325,66.0,0,480,1.0,0.0
5326,68.0,0,1920,2.0,0.0
5327,77.0,0,1920,0.0,0.0
5328,49.0,576,390,3.0,0.0
5329,56.0,0,480,3.0,0.0
5330,68.0,480,480,1.0,0.0
5331,71.0,442,480,1.0,0.0
5332,59.0,0,480,3.0,0.0
5333,53.0,0,480,3.0,0.0
5334,65.0,384,480,1.0,0.0
5335,69.0,6,4320,4.0,0.0
5336,54.0,480,480,3.0,0.0
5337,57.0,0,4320,4.0,0.0
5338,66.0,96,390,1.0,0.0
5339,54.0,0,1920,13.0,0.0
5340,42.0,0,1920,14.0,0.0
5341,66.0,480,480,2.0,0.0
5342,57.0,0,480,3.0,0.0
5343,78.0,0,480,0.0,0.0
5344,81.0,0,480,0.0,0.0
5345,62.0,0,1920,3.0,0.0
5346,69.0,480,480,2.0,0.0
5347,62.0,0,480,2.0,0.0
5348,74.0,960,480,0.0,0.0
5349,52.0,0,1440,3.0,0.0
5350,45.0,0,1920,14.0,0.0
5351,57.0,0,1920,13.0,0.0
5352,64.0,480,480,2.0,0.0
5353,76.0,0,480,0.0,0.0
5354,79.0,480,480,0.0,0.0
5355,61.0,0,480,3.0,0.0
5356,67.0,0,480,2.0,0.0
5357,61.0,0,480,2.0,0.0
5358,73.0,236,480,0.0,0.0
5359,55.0,0,480,3.0,0.0
5360,64.0,0,480,3.0,0.0
5361,50.0,0,390,13.0,0.0
5362,54.0,0,390,3.0,0.0
5363,78.0,0,1440,1.0,0.0
5364,62.0,0,390,3.0,0.0
5365,38.0,86,390,14.0,0.0
5366,57.0,148,240,6.0,0.0
5367,74.0,188,780,0.0,0.0
5368,66.0,236,1440,2.0,0.0
5369,50.0,18,1890,7.0,0.0
5370,66.0,240,240,6.0,0.0
5371,62.0,52,240,6.0,0.0
5372,66.0,240,240,6.0,0.0
5373,69.0,240,240,6.0,0.0
5374,50.0,16,930,3.0,0.0
5375,66.0,4,240,6.0,0.0
5376,81.0,10,420,1.0,0.0
5377,69.0,0,420,2.0,0.0
5378,62.0,196,240,6.0,0.0
5379,66.0,240,240,6.0,0.0
5380,61.0,240,240,6.0,0.0
5381,69.0,0,480,2.0,0.0
5382,49.0,34,1890,3.0,0.0
5383,81.0,236,480,1.0,0.0
5384,49.0,0,1890,7.0,0.0
5385,67.0,4,240,6.0,0.0
5386,64.0,76,240,6.0,0.0
5387,76.0,164,300,1.0,0.0
5388,64.0,0,300,2.0,0.0
5389,67.0,240,240,6.0,0.0
5390,69.0,76,240,6.0,0.0
5391,64.0,0,300,2.0,0.0
5392,76.0,164,300,1.0,0.0
5393,67.0,240,240,6.0,0.0
5394,78.0,130,300,1.0,0.0
5395,66.0,0,300,2.0,0.0
5396,64.0,76,240,6.0,0.0
5397,67.0,240,240,6.0,0.0
5398,57.0,76,240,6.0,0.0
5399,79.0,164,300,1.0,0.0
5400,45.0,34,1890,7.0,0.0
5401,67.0,0,300,2.0,0.0
5402,45.0,0,1890,3.0,0.0
5403,64.0,240,240,6.0,0.0
5404,79.0,164,300,1.0,0.0
5405,61.0,76,240,6.0,0.0
5406,67.0,0,300,2.0,0.0
5407,64.0,240,240,6.0,0.0
5408,69.0,76,240,6.0,0.0
5409,79.0,0,300,1.0,0.0
5410,67.0,164,300,2.0,0.0
5411,64.0,240,240,6.0,0.0
5412,79.0,0,300,1.0,0.0
5413,67.0,130,300,2.0,0.0
5414,61.0,76,240,6.0,0.0
5415,64.0,240,240,6.0,0.0
5416,50.0,34,1890,3.0,0.0
5417,50.0,0,1890,7.0,0.0
5418,81.0,0,240,1.0,0.0
5419,69.0,236,240,2.0,0.0
5420,57.0,4,240,6.0,0.0
5421,67.0,236,720,2.0,0.0
5422,64.0,240,240,6.0,0.0
5423,79.0,0,720,1.0,0.0
5424,61.0,240,240,6.0,0.0
5425,64.0,4,240,6.0,0.0
5426,57.0,240,240,6.0,0.0
5427,78.0,236,480,1.0,0.0
5428,66.0,0,480,2.0,0.0
5429,66.0,4,240,6.0,0.0
5430,62.0,206,240,6.0,0.0
5431,66.0,240,240,6.0,0.0
5432,74.0,0,1440,1.0,0.0
5433,43.0,0,1890,7.0,0.0
5434,59.0,240,240,6.0,0.0
5435,83.0,0,1440,0.0,0.0
5436,71.0,236,1440,2.0,0.0
5437,55.0,34,1890,3.0,0.0
5438,67.0,240,240,6.0,0.0
5439,62.0,240,240,6.0,0.0
5440,67.0,240,240,6.0,0.0
5441,71.0,240,240,6.0,0.0
5442,67.0,4,240,6.0,0.0
5443,85.0,236,480,0.0,0.0
5444,76.0,0,480,1.0,0.0
5445,64.0,206,240,6.0,0.0
5446,69.0,0,480,2.0,0.0
5447,69.0,4,240,6.0,0.0
5448,54.0,16,930,3.0,0.0
5449,62.0,240,240,6.0,0.0
5450,78.0,0,780,1.0,0.0
5451,42.0,24,1410,7.0,0.0
5452,69.0,172,780,2.0,0.0
5453,86.0,236,480,0.0,0.0
5454,69.0,4,240,6.0,0.0
5455,85.0,236,480,0.0,0.0
5456,66.0,52,240,6.0,0.0
5457,69.0,4,240,6.0,0.0
5458,62.0,216,240,6.0,0.0
5459,83.0,236,480,0.0,0.0
5460,69.0,4,240,6.0,0.0
5461,66.0,148,240,6.0,0.0
5462,81.0,236,480,0.0,0.0
5463,54.0,6,480,7.0,0.0
5464,62.0,0,960,2.0,0.0
5465,69.0,86,390,1.0,0.0
5466,54.0,0,480,3.0,0.0
5467,69.0,4,240,6.0,0.0
5468,62.0,234,240,6.0,0.0
5469,71.0,0,480,1.0,0.0
5470,80.0,0,480,0.0,0.0
5471,52.0,6,480,7.0,0.0
5472,52.0,236,480,3.0,0.0
5473,71.0,4,240,6.0,0.0
5474,49.0,236,480,3.0,0.0
5475,49.0,6,480,7.0,0.0
5476,64.0,234,240,6.0,0.0
5477,69.0,236,960,1.0,0.0
5478,64.0,0,480,2.0,0.0
5479,79.0,0,480,0.0,0.0
5480,69.0,4,240,6.0,0.0
5481,50.0,6,480,7.0,0.0
5482,62.0,148,240,6.0,0.0
5483,78.0,0,480,0.0,0.0
5484,66.0,86,390,2.0,0.0
5485,50.0,0,480,3.0,0.0
5486,69.0,4,240,6.0,0.0
5487,56.0,236,480,3.0,0.0
5488,66.0,148,240,6.0,0.0
5489,83.0,0,480,0.0,0.0
5490,66.0,86,390,2.0,0.0
5491,44.0,6,480,7.0,0.0
5492,74.0,4,240,6.0,0.0
5493,74.0,0,15,1.0,0.0
5494,69.0,92,1350,2.0,0.0
5495,78.0,384,960,0.0,0.0
5496,62.0,240,240,6.0,0.0
5497,45.0,188,780,7.0,0.0
5498,57.0,0,960,3.0,0.0
5499,66.0,240,240,6.0,0.0
5500,69.0,52,240,6.0,0.0
5501,74.0,4,240,6.0,0.0
5502,76.0,0,390,0.0,0.0
5503,73.0,0,390,1.0,0.0
5504,45.0,0,390,3.0,0.0
5505,73.0,0,390,6.0,0.0
5506,69.0,240,240,7.0,0.0
5507,67.0,240,240,7.0,0.0
5508,64.0,240,240,7.0,0.0
5509,62.0,0,1890,11.0,0.0
5510,38.0,0,1890,14.0,0.0
5511,66.0,34,1890,10.0,0.0
5512,78.0,236,1440,6.0,0.0
5513,62.0,240,240,7.0,0.0
5514,57.0,0,7650,12.0,0.0
5515,50.0,0,1890,13.0,0.0
5516,69.0,240,240,7.0,0.0
5517,66.0,240,240,7.0,0.0
5518,69.0,240,240,7.0,0.0
5519,62.0,240,240,7.0,0.0
5520,69.0,4,240,7.0,0.0
5521,66.0,206,240,7.0,0.0
5522,81.0,236,480,6.0,0.0
5523,69.0,4,240,7.0,0.0
5524,61.0,240,240,7.0,0.0
5525,33.0,34,3810,14.0,0.0
5526,64.0,0,1440,10.0,0.0
5527,45.0,0,3810,13.0,0.0
5528,81.0,236,480,6.0,0.0
5529,61.0,236,1440,11.0,0.0
5530,69.0,4,240,7.0,0.0
5531,76.0,164,300,6.0,0.0
5532,67.0,76,240,7.0,0.0
5533,69.0,240,240,7.0,0.0
5534,61.0,76,240,7.0,0.0
5535,76.0,164,300,6.0,0.0
5536,69.0,4,240,7.0,0.0
5537,78.0,72,300,6.0,0.0
5538,66.0,0,390,10.0,0.0
5539,62.0,92,390,11.0,0.0
5540,62.0,76,240,7.0,0.0
5541,69.0,240,240,7.0,0.0
5542,79.0,164,300,6.0,0.0
5543,67.0,24,300,10.0,0.0
5544,64.0,52,240,7.0,0.0
5545,64.0,0,300,11.0,0.0
5546,69.0,240,240,7.0,0.0
5547,79.0,164,300,6.0,0.0
5548,62.0,52,240,7.0,0.0
5549,67.0,0,300,10.0,0.0
5550,64.0,24,300,11.0,0.0
5551,69.0,240,240,7.0,0.0
5552,79.0,164,300,6.0,0.0
5553,67.0,24,300,10.0,0.0
5554,64.0,0,300,11.0,0.0
5555,61.0,52,240,7.0,0.0
5556,69.0,244,240,7.0,0.0
5557,79.0,130,300,6.0,0.0
5558,67.0,0,300,10.0,0.0
5559,64.0,24,300,11.0,0.0
5560,57.0,48,240,7.0,0.0
5561,69.0,240,240,7.0,0.0
5562,81.0,0,240,6.0,0.0
5563,50.0,0,1890,13.0,0.0
5564,61.0,236,960,11.0,0.0
5565,62.0,4,240,7.0,0.0
5566,38.0,34,1890,14.0,0.0
5567,64.0,0,960,11.0,0.0
5568,69.0,236,240,10.0,0.0
5569,67.0,0,720,10.0,0.0
5570,79.0,0,720,6.0,0.0
5571,69.0,240,240,7.0,0.0
5572,64.0,240,240,7.0,0.0
5573,69.0,4,240,7.0,0.0
5574,62.0,0,390,11.0,0.0
5575,78.0,236,480,6.0,0.0
5576,66.0,92,390,10.0,0.0
5577,62.0,148,240,7.0,0.0
5578,69.0,4,240,7.0,0.0
5579,66.0,206,240,7.0,0.0
5580,69.0,240,240,7.0,0.0
5581,55.0,240,240,7.0,0.0
5582,59.0,0,1920,12.0,0.0
5583,55.0,0,1920,13.0,0.0
5584,83.0,236,1440,6.0,0.0
5585,43.0,0,1920,14.0,0.0
5586,71.0,0,1920,10.0,0.0
5587,62.0,236,1920,11.0,0.0
5588,62.0,240,240,7.0,0.0
5589,59.0,240,240,7.0,0.0
5590,62.0,240,240,7.0,0.0
5591,55.0,240,240,7.0,0.0
5592,62.0,4,240,7.0,0.0
5593,86.0,92,390,6.0,0.0
5594,59.0,148,240,7.0,0.0
5595,62.0,4,240,7.0,0.0
5596,62.0,0,960,12.0,0.0
5597,69.0,236,960,10.0,0.0
5598,42.0,0,960,14.0,0.0
5599,54.0,0,960,13.0,0.0
5600,86.0,192,480,6.0,0.0
5601,54.0,240,240,7.0,0.0
5602,66.0,0,960,11.0,0.0
5603,62.0,4,240,7.0,0.0
5604,78.0,44,180,6.0,0.0
5605,57.0,240,240,7.0,0.0
5606,62.0,4,240,7.0,0.0
5607,55.0,240,240,7.0,0.0
5608,43.0,236,960,14.0,0.0
5609,59.0,0,960,12.0,0.0
5610,76.0,192,480,6.0,0.0
5611,55.0,0,960,13.0,0.0
5612,64.0,0,960,11.0,0.0
5613,67.0,0,960,10.0,0.0
5614,64.0,4,240,7.0,0.0
5615,83.0,44,180,6.0,0.0
5616,59.0,240,240,7.0,0.0
5617,64.0,4,240,7.0,0.0
5618,57.0,92,390,13.0,0.0
5619,66.0,0,390,10.0,0.0
5620,62.0,0,390,11.0,0.0
5621,74.0,24,1410,6.0,0.0
5622,57.0,148,240,7.0,0.0
5623,57.0,0,390,12.0,0.0
5624,45.0,0,390,14.0,0.0
5625,66.0,240,240,7.0,0.0
5626,62.0,240,240,7.0,0.0
5627,66.0,240,240,7.0,0.0
5628,45.0,0,390,13.0,0.0
5629,64.0,0,390,10.0,0.0
5630,61.0,0,390,11.0,0.0
5631,55.0,0,390,12.0,0.0
5632,57.0,148,240,7.0,0.0
5633,33.0,68,390,14.0,0.0
5634,67.0,240,240,7.0,0.0
5635,78.0,0,240,6.0,0.0
5636,64.0,240,240,7.0,0.0
5637,76.0,240,240,6.0,0.0
5638,67.0,0,240,7.0,0.0
5639,38.0,0,390,14.0,0.0
5640,66.0,0,390,7.0,0.0
5641,74.0,148,240,6.0,0.0
5642,62.0,0,390,7.0,0.0
5643,50.0,0,390,13.0,0.0
5644,62.0,0,390,10.0,0.0
5645,54.0,0,390,12.0,0.0
5646,62.0,92,390,11.0,0.0
5647,73.0,240,240,6.0,0.0
5648,71.0,240,240,6.0,0.0
5649,69.0,240,240,6.0,0.0
5650,67.0,240,240,6.0,0.0
5651,66.0,240,240,6.0,0.0
5652,64.0,240,240,6.0,0.0
5653,62.0,240,240,6.0,0.0
5654,57.0,240,240,6.0,0.0
5655,45.0,16,930,7.0,0.0
5656,64.0,0,1440,3.0,0.0
5657,67.0,236,1440,2.0,0.0
5658,69.0,0,6150,4.0,0.0
5659,49.0,236,960,3.0,0.0
5660,79.0,0,1440,1.0,0.0
5661,57.0,92,6150,4.0,0.0
5662,69.0,240,240,6.0,0.0
5663,64.0,224,240,6.0,0.0
5664,69.0,4,240,6.0,0.0
5665,50.0,236,960,3.0,0.0
5666,50.0,16,930,7.0,0.0
5667,57.0,240,240,6.0,0.0
5668,69.0,4,240,6.0,0.0
5669,62.0,0,480,3.0,0.0
5670,78.0,0,480,1.0,0.0
5671,66.0,0,480,2.0,0.0
5672,62.0,224,240,6.0,0.0
5673,69.0,4,240,6.0,0.0
5674,61.0,0,390,3.0,0.0
5675,45.0,34,1890,7.0,0.0
5676,76.0,96,300,1.0,0.0
5677,45.0,92,390,3.0,0.0
5678,64.0,0,300,2.0,0.0
5679,57.0,52,240,6.0,0.0
5680,69.0,240,240,6.0,0.0
5681,61.0,240,240,6.0,0.0
5682,81.0,0,480,1.0,0.0
5683,69.0,236,480,2.0,0.0
5684,69.0,4,240,6.0,0.0
5685,64.0,240,240,6.0,0.0
5686,68.0,236,480,2.0,0.0
5687,80.0,0,480,1.0,0.0
5688,69.0,4,240,6.0,0.0
5689,81.0,0,480,1.0,0.0
5690,69.0,236,480,2.0,0.0
5691,61.0,206,240,6.0,0.0
5692,69.0,4,240,6.0,0.0
5693,64.0,0,960,3.0,0.0
5694,79.0,236,480,1.0,0.0
5695,49.0,0,960,3.0,0.0
5696,67.0,0,480,2.0,0.0
5697,57.0,240,240,6.0,0.0
5698,45.0,16,930,7.0,0.0
5699,69.0,4,240,6.0,0.0
5700,81.0,236,480,1.0,0.0
5701,69.0,0,480,2.0,0.0
5702,64.0,224,240,6.0,0.0
5703,69.0,4,240,6.0,0.0
5704,50.0,16,930,7.0,0.0
5705,66.0,236,480,2.0,0.0
5706,50.0,0,960,3.0,0.0
5707,62.0,0,960,3.0,0.0
5708,78.0,0,480,1.0,0.0
5709,57.0,240,240,6.0,0.0
5710,69.0,4,240,6.0,0.0
5711,62.0,224,240,6.0,0.0
5712,81.0,0,480,1.0,0.0
5713,69.0,236,480,2.0,0.0
5714,69.0,4,240,6.0,0.0
5715,57.0,52,240,6.0,0.0
5716,45.0,34,1890,7.0,0.0
5717,61.0,96,300,3.0,0.0
5718,76.0,0,300,1.0,0.0
5719,45.0,0,1920,3.0,0.0
5720,64.0,0,300,2.0,0.0
5721,69.0,240,240,6.0,0.0
5722,69.0,0,480,2.0,0.0
5723,69.0,0,480,1.0,0.0
5724,81.0,0,480,0.0,0.0
5725,61.0,236,480,3.0,0.0
5726,61.0,240,240,6.0,0.0
5727,69.0,4,240,6.0,0.0
5728,68.0,0,480,2.0,0.0
5729,62.0,240,240,6.0,0.0
5730,83.0,0,480,0.0,0.0
5731,62.0,236,480,3.0,0.0
5732,71.0,0,480,1.0,0.0
5733,68.0,4,240,6.0,0.0
5734,67.0,0,480,2.0,0.0
5735,73.0,0,480,1.0,0.0
5736,85.0,236,480,0.0,0.0
5737,64.0,206,240,6.0,0.0
5738,64.0,0,480,3.0,0.0
5739,67.0,4,240,6.0,0.0
5740,86.0,0,300,0.0,0.0
5741,62.0,52,240,6.0,0.0
5742,47.0,236,1920,3.0,0.0
5743,62.0,0,300,3.0,0.0
5744,47.0,140,1530,7.0,0.0
5745,74.0,0,300,1.0,0.0
5746,66.0,188,300,2.0,0.0
5747,66.0,240,240,6.0,0.0
5748,54.0,0,960,3.0,0.0
5749,71.0,240,240,6.0,0.0
5750,66.0,96,960,1.0,0.0
5751,78.0,0,960,0.0,0.0
5752,66.0,240,240,6.0,0.0
5753,74.0,240,240,6.0,0.0
5754,71.0,4,240,6.0,0.0
5755,76.0,240,240,6.0,0.0
5756,80.0,0,480,0.0,0.0
5757,56.0,0,480,3.0,0.0
5758,68.0,0,480,1.0,0.0
5759,74.0,4,240,6.0,0.0
5760,45.0,0,480,7.0,0.0
5761,73.0,240,240,6.0,0.0
5762,69.0,0,480,1.0,0.0
5763,81.0,236,480,0.0,0.0
5764,57.0,0,480,3.0,0.0
5765,45.0,0,480,3.0,0.0
5766,69.0,4,240,6.0,0.0
5767,43.0,92,390,3.0,0.0
5768,71.0,0,390,1.0,0.0
5769,43.0,0,390,7.0,0.0
5770,74.0,148,240,6.0,0.0
5771,59.0,0,390,3.0,0.0
5772,83.0,0,390,0.0,0.0
5773,71.0,240,240,6.0,0.0
5774,57.0,0,240,3.0,0.0
5775,76.0,4,240,6.0,0.0
5776,81.0,236,240,0.0,0.0
5777,69.0,0,240,1.0,0.0
5778,71.0,4,240,6.0,0.0
5779,55.0,236,240,3.0,0.0
5780,79.0,0,240,0.0,0.0
5781,67.0,0,240,1.0,0.0
5782,43.0,48,390,3.0,0.0
5783,78.0,0,240,0.0,0.0
5784,43.0,0,390,7.0,0.0
5785,54.0,0,240,3.0,0.0
5786,66.0,144,240,1.0,0.0
5787,67.0,4,240,6.0,0.0
5788,64.0,44,180,1.0,0.0
5789,52.0,236,240,3.0,0.0
5790,71.0,4,240,6.0,0.0
5791,76.0,0,180,0.0,0.0
5792,62.0,0,1440,1.0,0.0
5793,50.0,236,1440,3.0,0.0
5794,45.0,0,1920,7.0,0.0
5795,74.0,0,1440,0.0,0.0
5796,45.0,236,1920,3.0,0.0
5797,66.0,240,240,6.0,0.0
5798,69.0,240,240,6.0,0.0
5799,74.0,240,240,6.0,0.0
5800,69.0,240,240,6.0,0.0
5801,66.0,240,240,6.0,0.0
5802,69.0,4,240,6.0,0.0
5803,66.0,0,240,1.0,0.0
5804,67.0,4,240,6.0,0.0
5805,54.0,236,240,3.0,0.0
5806,78.0,0,240,0.0,0.0
5807,64.0,0,240,1.0,0.0
5808,69.0,4,240,6.0,0.0
5809,52.0,0,240,3.0,0.0
5810,76.0,0,240,0.0,0.0
5811,62.0,0,390,1.0,0.0
5812,74.0,0,390,0.0,0.0
5813,50.0,92,390,7.0,0.0
5814,50.0,0,390,3.0,0.0
5815,66.0,148,240,6.0,0.0
5816,67.0,240,240,6.0,0.0
5817,69.0,240,240,6.0,0.0
5818,71.0,240,240,6.0,0.0
5819,73.0,240,240,6.0,0.0
5820,74.0,240,240,6.0,0.0
5821,76.0,240,240,6.0,0.0
5822,78.0,244,240,6.0,0.0
5823,37.0,0,960,14.0,0.0
5824,67.0,0,1440,10.0,0.0
5825,61.0,240,240,7.0,0.0
5826,57.0,38,7650,12.0,0.0
5827,49.0,240,960,13.0,0.0
5828,81.0,0,480,6.0,0.0
5829,64.0,0,1440,11.0,0.0
5830,69.0,240,240,7.0,0.0
5831,79.0,0,960,6.0,0.0
5832,64.0,240,240,7.0,0.0
5833,69.0,0,240,7.0,0.0
5834,38.0,0,960,14.0,0.0
5835,50.0,0,960,13.0,0.0
5836,62.0,240,240,7.0,0.0
5837,69.0,240,240,7.0,0.0
5838,66.0,240,240,7.0,0.0
5839,78.0,0,480,6.0,0.0
5840,62.0,144,480,11.0,0.0
5841,66.0,0,480,10.0,0.0
5842,69.0,0,240,7.0,0.0
5843,45.0,96,390,13.0,0.0
5844,33.0,0,390,14.0,0.0
5845,57.0,144,240,7.0,0.0
5846,61.0,0,390,11.0,0.0
5847,64.0,0,390,10.0,0.0
5848,76.0,96,150,6.0,0.0
5849,69.0,0,240,7.0,0.0
5850,81.0,240,240,6.0,0.0
5851,61.0,240,240,7.0,0.0
5852,80.0,0,240,6.0,0.0
5853,81.0,0,240,6.0,0.0
5854,69.0,240,240,7.0,0.0
5855,80.0,0,240,6.0,0.0
5856,64.0,240,240,7.0,0.0
5857,81.0,240,240,6.0,0.0
5858,69.0,0,240,7.0,0.0
5859,62.0,240,240,7.0,0.0
5860,83.0,0,240,6.0,0.0
5861,69.0,0,240,7.0,0.0
5862,61.0,240,240,7.0,0.0
5863,67.0,0,960,10.0,0.0
5864,37.0,0,960,14.0,0.0
5865,49.0,0,960,13.0,0.0
5866,81.0,240,15,6.0,0.0
5867,64.0,0,960,11.0,0.0
5868,79.0,0,240,6.0,0.0
5869,69.0,240,240,7.0,0.0
5870,78.0,240,240,6.0,0.0
5871,64.0,0,240,7.0,0.0
5872,69.0,0,240,7.0,0.0
5873,79.0,240,240,6.0,0.0
5874,62.0,0,240,7.0,0.0
5875,38.0,0,960,14.0,0.0
5876,62.0,0,960,11.0,0.0
5877,66.0,144,960,10.0,0.0
5878,50.0,0,960,13.0,0.0
5879,79.0,240,240,6.0,0.0
5880,78.0,0,240,6.0,0.0
5881,69.0,240,240,7.0,0.0
5882,77.0,0,240,6.0,0.0
5883,66.0,240,240,7.0,0.0
5884,78.0,0,240,6.0,0.0
5885,69.0,0,240,7.0,0.0
5886,33.0,0,390,14.0,0.0
5887,57.0,144,240,7.0,0.0
5888,61.0,0,960,11.0,0.0
5889,76.0,96,150,6.0,0.0
5890,45.0,96,390,13.0,0.0
5891,64.0,240,480,10.0,0.0
5892,81.0,0,240,6.0,0.0
5893,69.0,0,240,7.0,0.0
5894,80.0,0,240,6.0,0.0
5895,61.0,240,240,7.0,0.0
5896,69.0,0,480,10.0,0.0
5897,69.0,0,240,7.0,0.0
5898,81.0,240,240,6.0,0.0
5899,64.0,240,240,7.0,0.0
5900,62.0,0,480,11.0,0.0
5901,82.0,0,240,6.0,0.0
5902,68.0,0,480,10.0,0.0
5903,69.0,240,240,7.0,0.0
5904,83.0,0,240,6.0,0.0
5905,84.0,0,240,6.0,0.0
5906,57.0,202,240,7.0,0.0
5907,64.0,0,480,11.0,0.0
5908,67.0,192,480,10.0,0.0
5909,85.0,0,240,6.0,0.0
5910,67.0,0,240,7.0,0.0
5911,59.0,0,1920,12.0,0.0
5912,66.0,192,960,10.0,0.0
5913,47.0,0,1920,13.0,0.0
5914,59.0,96,180,7.0,0.0
5915,62.0,0,1920,11.0,0.0
5916,86.0,144,300,6.0,0.0
5917,35.0,240,1920,14.0,0.0
5918,66.0,240,180,7.0,0.0
5919,78.0,192,960,6.0,0.0
5920,62.0,240,180,7.0,0.0
5921,66.0,48,180,7.0,0.0
5922,59.0,240,180,7.0,0.0
5923,68.0,0,960,10.0,0.0
5924,64.0,48,180,7.0,0.0
5925,62.0,240,180,7.0,0.0
5926,80.0,0,480,6.0,0.0
5927,64.0,48,180,7.0,0.0
5928,69.0,0,480,10.0,0.0
5929,81.0,168,300,6.0,0.0
5930,33.0,0,480,14.0,0.0
5931,57.0,72,240,7.0,0.0
5932,61.0,0,480,11.0,0.0
5933,45.0,0,480,13.0,0.0
5934,57.0,0,480,12.0,0.0
5935,61.0,240,240,7.0,0.0
5936,85.0,144,240,6.0,0.0
5937,62.0,0,390,11.0,0.0
5938,71.0,12,390,10.0,0.0
5939,43.0,0,390,13.0,0.0
5940,55.0,0,240,7.0,0.0
5941,31.0,0,390,14.0,0.0
5942,55.0,0,390,12.0,0.0
5943,62.0,240,240,7.0,0.0
5944,83.0,84,150,6.0,0.0
5945,81.0,0,240,6.0,0.0
5946,59.0,156,240,7.0,0.0
5947,79.0,84,150,6.0,0.0
5948,62.0,240,240,7.0,0.0
5949,64.0,0,390,11.0,0.0
5950,67.0,12,390,10.0,0.0
5951,55.0,0,240,7.0,0.0
5952,43.0,0,390,13.0,0.0
5953,31.0,0,390,14.0,0.0
5954,59.0,0,390,12.0,0.0
5955,78.0,144,240,6.0,0.0
5956,76.0,84,150,6.0,0.0
5957,67.0,240,240,7.0,0.0
5958,45.0,0,1920,13.0,0.0
5959,62.0,0,960,11.0,0.0
5960,66.0,0,960,10.0,0.0
5961,33.0,0,1920,14.0,0.0
5962,74.0,0,1440,6.0,0.0
5963,57.0,0,960,12.0,0.0
5964,57.0,240,240,7.0,0.0
5965,66.0,240,240,7.0,0.0
5966,62.0,240,240,7.0,0.0
5967,66.0,240,240,7.0,0.0
5968,61.0,0,960,10.0,0.0
5969,55.0,0,960,12.0,0.0
5970,57.0,240,240,7.0,0.0
5971,67.0,240,240,7.0,0.0
5972,78.0,0,240,6.0,0.0
5973,61.0,240,240,7.0,0.0
5974,76.0,384,240,6.0,0.0
5975,67.0,0,240,7.0,0.0
5976,38.0,96,390,14.0,0.0
5977,54.0,0,390,12.0,0.0
5978,62.0,0,390,10.0,0.0
5979,74.0,480,480,1.0,0.0
5980,66.0,0,390,7.0,0.0
5981,62.0,0,390,7.0,0.0
5982,57.0,0,15,11.0,0.0
5983,62.0,0,480,3.0,0.0
5984,50.0,0,390,13.0,0.0
5985,74.0,0,390,6.0,0.0
5986,63.0,480,480,3.0,0.0
5987,75.0,0,480,1.0,0.0
5988,76.0,0,480,1.0,0.0
5989,64.0,456,480,3.0,0.0
5990,77.0,0,450,1.0,0.0
5991,65.0,264,450,3.0,0.0
5992,78.0,0,1920,1.0,0.0
5993,54.0,288,1920,7.0,0.0
5994,62.0,0,960,7.0,0.0
5995,66.0,0,1920,3.0,0.0
5996,78.0,240,240,6.0,0.0
5997,79.0,240,240,6.0,0.0
5998,78.0,240,240,6.0,0.0
5999,74.0,240,240,6.0,0.0
6000,64.0,0,960,7.0,0.0
6001,78.0,240,240,6.0,0.0
6002,76.0,240,240,6.0,0.0
6003,73.0,240,240,6.0,0.0
6004,70.0,0,240,6.0,0.0
6005,59.0,0,390,3.0,0.0
6006,71.0,0,390,1.0,0.0
6007,71.0,96,300,6.0,0.0
6008,62.0,384,390,7.0,0.0
6009,59.0,0,390,7.0,0.0
6010,73.0,480,300,6.0,0.0
6011,74.0,480,300,6.0,0.0
6012,75.0,672,300,6.0,0.0
6013,52.0,0,1920,4.0,0.0
6014,76.0,480,480,0.0,0.0
6015,64.0,0,480,1.0,0.0
6016,61.0,240,960,7.0,0.0
6017,52.0,0,1920,7.0,0.0
6018,64.0,384,1920,4.0,0.0
6019,76.0,240,1200,6.0,0.0
6020,66.0,0,480,1.0,0.0
6021,78.0,0,480,0.0,0.0
6022,62.0,0,960,7.0,0.0
6023,79.0,240,480,0.0,0.0
6024,67.0,0,480,1.0,0.0
6025,74.0,0,240,6.0,0.0
6026,68.0,0,480,1.0,0.0
6027,71.0,240,240,6.0,0.0
6028,80.0,0,480,0.0,0.0
6029,68.0,0,240,6.0,0.0
6030,81.0,0,2310,0.0,0.0
6031,41.0,0,5760,14.0,0.0
6032,53.0,384,5760,13.0,0.0
6033,69.0,288,390,6.0,0.0
6034,69.0,0,2310,1.0,0.0
6035,60.0,192,4800,12.0,0.0
6036,69.0,0,3840,10.0,0.0
6037,57.0,96,2310,3.0,0.0
6038,60.0,0,2310,3.0,0.0
6039,65.0,192,1440,11.0,0.0
6040,72.0,0,2310,1.0,0.0
6041,57.0,0,2310,4.0,0.0
6042,60.0,0,1920,7.0,0.0
6043,53.0,240,1920,7.0,0.0
6044,69.0,0,2310,4.0,0.0
6045,71.0,240,180,6.0,0.0
6046,72.0,240,180,6.0,0.0
6047,74.0,240,180,6.0,0.0
6048,76.0,48,180,6.0,0.0
6049,64.0,0,480,11.0,0.0
6050,77.0,240,180,6.0,0.0
6051,79.0,48,180,6.0,0.0
6052,63.0,240,1920,11.0,0.0
6053,81.0,0,390,6.0,0.0
6054,53.0,144,240,7.0,0.0
6055,60.0,240,240,7.0,0.0
6056,57.0,144,240,7.0,0.0
6057,69.0,96,390,6.0,0.0
6058,60.0,240,240,7.0,0.0
6059,53.0,240,240,7.0,0.0
6060,84.0,96,1350,6.0,0.0
6061,60.0,240,240,7.0,0.0
6062,57.0,240,240,7.0,0.0
6063,60.0,0,240,7.0,0.0
6064,75.0,0,960,10.0,0.0
6065,53.0,144,240,7.0,0.0
6066,69.0,0,960,11.0,0.0
6067,60.0,192,240,7.0,0.0
6068,57.0,192,240,7.0,0.0
6069,83.0,48,180,6.0,0.0
6070,81.0,48,180,6.0,0.0
6071,60.0,0,240,7.0,0.0
6072,53.0,192,240,7.0,0.0
6073,81.0,0,960,10.0,0.0
6074,75.0,0,960,11.0,0.0
6075,79.0,48,180,6.0,0.0
6076,69.0,0,960,12.0,0.0
6077,77.0,48,180,6.0,0.0
6078,60.0,192,240,7.0,0.0
6079,76.0,48,180,6.0,0.0
6080,57.0,192,240,7.0,0.0
6081,75.0,48,180,6.0,0.0
6082,60.0,0,240,7.0,0.0
6083,71.0,0,390,12.0,0.0
6084,56.0,0,390,7.0,0.0
6085,56.0,0,1920,3.0,0.0
6086,71.0,0,1920,1.0,0.0
6087,76.0,0,390,11.0,0.0
6088,68.0,0,1920,1.0,0.0
6089,40.0,0,390,14.0,0.0
6090,52.0,96,390,7.0,0.0
6091,80.0,0,390,10.0,0.0
6092,52.0,0,390,13.0,0.0
6093,64.0,0,8070,4.0,0.0
6094,52.0,0,8070,4.0,0.0
6095,59.0,384,1920,3.0,0.0
6096,76.0,192,240,6.0,0.0
6097,83.0,240,180,6.0,0.0
6098,80.0,240,180,6.0,0.0
6099,76.0,240,180,6.0,0.0
6100,71.0,240,180,6.0,0.0
6101,68.0,240,180,6.0,0.0
6102,64.0,48,180,6.0,0.0
6103,52.0,0,390,13.0,0.0
6104,81.0,0,390,10.0,0.0
6105,57.0,0,390,7.0,0.0
6106,52.0,96,390,7.0,0.0
6107,69.0,0,1920,1.0,0.0
6108,72.0,0,1920,1.0,0.0
6109,76.0,0,390,11.0,0.0
6110,40.0,0,390,14.0,0.0
6111,57.0,384,1920,3.0,0.0
6112,72.0,0,390,12.0,0.0
6113,60.0,0,1920,3.0,0.0
6114,76.0,192,240,6.0,0.0
6115,84.0,240,180,6.0,0.0
6116,81.0,240,180,6.0,0.0
6117,76.0,240,180,6.0,0.0
6118,72.0,240,180,6.0,0.0
6119,69.0,240,180,6.0,0.0
6120,64.0,48,180,6.0,0.0
6121,40.0,0,390,14.0,0.0
6122,52.0,0,390,7.0,0.0
6123,76.0,0,390,11.0,0.0
6124,83.0,0,1920,0.0,0.0
6125,52.0,96,390,13.0,0.0
6126,71.0,384,1920,1.0,0.0
6127,68.0,0,1920,1.0,0.0
6128,80.0,0,390,10.0,0.0
6129,71.0,0,390,12.0,0.0
6130,56.0,0,390,7.0,0.0
6131,59.0,0,1920,3.0,0.0
6132,56.0,0,1920,3.0,0.0
6133,76.0,192,240,6.0,0.0
6134,83.0,240,180,6.0,0.0
6135,80.0,240,180,6.0,0.0
6136,76.0,240,180,6.0,0.0
6137,71.0,240,180,6.0,0.0
6138,68.0,240,180,6.0,0.0
6139,64.0,48,180,6.0,0.0
6140,60.0,0,1920,3.0,0.0
6141,57.0,0,1920,3.0,0.0
6142,84.0,384,1920,0.0,0.0
6143,69.0,0,1920,1.0,0.0
6144,40.0,0,390,14.0,0.0
6145,72.0,0,1920,1.0,0.0
6146,52.0,0,390,13.0,0.0
6147,81.0,96,390,10.0,0.0
6148,76.0,0,390,11.0,0.0
6149,72.0,0,390,12.0,0.0
6150,57.0,0,390,7.0,0.0
6151,52.0,0,390,7.0,0.0
6152,76.0,192,240,6.0,0.0
6153,84.0,240,180,6.0,0.0
6154,81.0,240,180,6.0,0.0
6155,76.0,240,180,6.0,0.0
6156,72.0,240,180,6.0,0.0
6157,69.0,240,180,6.0,0.0
6158,64.0,48,180,6.0,0.0
6159,71.0,0,390,12.0,0.0
6160,52.0,0,390,13.0,0.0
6161,40.0,0,1530,7.0,0.0
6162,68.0,0,390,1.0,0.0
6163,52.0,96,1530,7.0,0.0
6164,76.0,48,390,11.0,0.0
6165,71.0,0,390,1.0,0.0
6166,80.0,0,390,10.0,0.0
6167,40.0,0,390,14.0,0.0
6168,59.0,0,390,3.0,0.0
6169,56.0,0,390,3.0,0.0
6170,83.0,0,390,0.0,0.0
6171,63.0,240,180,6.0,0.0
6172,66.0,240,180,6.0,0.0
6173,64.0,240,180,6.0,0.0
6174,68.0,240,180,6.0,0.0
6175,66.0,144,180,6.0,0.0
6176,69.0,240,180,6.0,0.0
6177,68.0,240,180,6.0,0.0
6178,71.0,240,180,6.0,0.0
6179,69.0,240,180,6.0,0.0
6180,73.0,240,180,6.0,0.0
6181,71.0,240,180,6.0,0.0
6182,74.0,240,180,6.0,0.0
6183,73.0,240,180,6.0,0.0
6184,76.0,240,180,6.0,0.0
6185,74.0,240,180,6.0,0.0
6186,78.0,240,180,6.0,0.0
6187,76.0,240,180,6.0,0.0
6188,80.0,240,180,6.0,0.0
6189,78.0,240,180,6.0,0.0
6190,81.0,240,180,6.0,0.0
6191,80.0,240,180,6.0,0.0
6192,83.0,240,180,6.0,0.0
6193,81.0,240,180,6.0,0.0
6194,85.0,240,180,6.0,0.0
6195,83.0,240,180,6.0,0.0
6196,86.0,240,180,6.0,0.0
6197,85.0,288,180,6.0,0.0
6198,88.0,192,240,6.0,0.0
6199,74.0,0,960,1.0,0.0
6200,71.0,0,960,1.0,0.0
6201,59.0,240,960,3.0,0.0
6202,62.0,0,960,3.0,0.0
6203,86.0,240,180,6.0,0.0
6204,85.0,240,180,6.0,0.0
6205,83.0,48,180,6.0,0.0
6206,86.0,192,240,6.0,0.0
6207,73.0,240,960,1.0,0.0
6208,69.0,0,960,1.0,0.0
6209,57.0,0,960,3.0,0.0
6210,61.0,0,960,3.0,0.0
6211,85.0,240,180,6.0,0.0
6212,83.0,240,180,6.0,0.0
6213,81.0,48,180,6.0,0.0
6214,85.0,192,240,6.0,0.0
6215,56.0,0,900,3.0,0.0
6216,59.0,0,900,3.0,0.0
6217,68.0,0,900,1.0,0.0
6218,71.0,0,900,1.0,0.0
6219,83.0,240,180,6.0,0.0
6220,81.0,240,180,6.0,0.0
6221,80.0,288,180,6.0,0.0
6222,69.0,0,960,1.0,0.0
6223,83.0,192,240,6.0,0.0
6224,57.0,0,960,3.0,0.0
6225,54.0,0,960,3.0,0.0
6226,66.0,240,960,1.0,0.0
6227,81.0,240,180,6.0,0.0
6228,80.0,240,180,6.0,0.0
6229,78.0,48,180,6.0,0.0
6230,81.0,192,240,6.0,0.0
6231,68.0,0,960,1.0,0.0
6232,64.0,0,960,1.0,0.0
6233,52.0,0,960,3.0,0.0
6234,56.0,240,960,3.0,0.0
6235,80.0,240,180,6.0,0.0
6236,78.0,240,180,6.0,0.0
6237,76.0,48,180,6.0,0.0
6238,80.0,192,240,6.0,0.0
6239,54.0,240,960,3.0,0.0
6240,62.0,0,960,1.0,0.0
6241,66.0,0,960,1.0,0.0
6242,50.0,0,960,3.0,0.0
6243,78.0,240,180,6.0,0.0
6244,76.0,240,180,6.0,0.0
6245,74.0,48,180,6.0,0.0
6246,61.0,0,960,1.0,0.0
6247,78.0,192,240,6.0,0.0
6248,49.0,0,960,3.0,0.0
6249,64.0,0,960,1.0,0.0
6250,52.0,156,960,3.0,0.0
6251,76.0,240,180,6.0,0.0
6252,74.0,240,180,6.0,0.0
6253,73.0,48,180,6.0,0.0
6254,62.0,0,1920,1.0,0.0
6255,68.0,240,150,0.0,0.0
6256,50.0,0,1920,3.0,0.0
6257,59.0,0,1920,1.0,0.0
6258,47.0,0,1920,3.0,0.0
6259,52.0,0,1920,4.0,0.0
6260,40.0,0,1920,14.0,0.0
6261,52.0,0,1920,13.0,0.0
6262,52.0,0,2310,12.0,0.0
6263,56.0,0,1920,11.0,0.0
6264,68.0,384,1920,10.0,0.0
6265,76.0,156,480,6.0,0.0
6266,69.0,84,150,0.0,0.0
6267,74.0,84,300,6.0,0.0
6268,71.0,156,150,0.0,0.0
6269,73.0,240,150,0.0,0.0
6270,74.0,156,150,0.0,0.0
6271,73.0,84,300,6.0,0.0
6272,76.0,240,150,0.0,0.0
6273,78.0,156,150,0.0,0.0
6274,71.0,84,300,6.0,0.0
6275,80.0,84,150,0.0,0.0
6276,64.0,0,15,4.0,0.0
6277,45.0,0,390,13.0,0.0
6278,81.0,336,390,0.0,0.0
6279,57.0,0,390,1.0,0.0
6280,57.0,0,390,11.0,0.0
6281,57.0,576,960,7.0,0.0
6282,61.0,0,390,1.0,0.0
6283,69.0,0,390,10.0,0.0
6284,73.0,60,720,6.0,0.0
6285,33.0,0,390,14.0,0.0
6286,57.0,0,390,4.0,0.0
6287,49.0,0,390,3.0,0.0
6288,45.0,0,390,3.0,0.0
6289,74.0,60,60,6.0,0.0
6290,73.0,60,60,6.0,0.0
6291,71.0,60,60,6.0,0.0
6292,73.0,0,60,6.0,0.0
6293,74.0,240,720,6.0,0.0
6294,59.0,0,960,7.0,0.0
6295,71.0,1440,240,6.0,0.0
6296,61.0,288,1920,7.0,0.0
6297,76.0,480,1440,6.0,0.0
6298,57.0,0,5190,7.0,0.0
6299,77.0,0,480,6.0,0.0
6300,78.0,0,300,6.0,0.0
6301,62.0,480,300,7.0,0.0
6302,80.0,480,300,6.0,0.0
6303,64.0,0,300,7.0,0.0
6304,81.0,0,300,6.0,0.0
6305,66.0,480,300,7.0,0.0
6306,80.0,0,300,6.0,0.0
6307,64.0,672,300,7.0,0.0
6308,80.0,0,480,6.0,0.0
6309,64.0,288,480,7.0,0.0
6310,62.0,480,390,7.0,0.0
6311,78.0,96,300,6.0,0.0
6312,61.0,0,390,7.0,0.0
6313,76.0,696,390,6.0,0.0
6314,76.0,552,120,6.0,0.0
6315,57.0,0,780,7.0,0.0
6316,61.0,144,780,7.0,0.0
6317,64.0,0,780,7.0,0.0
6318,85.0,96,540,6.0,0.0
6319,81.0,168,180,6.0,0.0
6320,80.0,552,120,6.0,0.0
6321,59.0,144,780,7.0,0.0
6322,62.0,0,780,7.0,0.0
6323,68.0,0,780,7.0,0.0
6324,86.0,96,540,6.0,0.0
6325,83.0,108,180,6.0,0.0
6326,61.0,0,390,7.0,0.0
6327,81.0,60,60,6.0,0.0
6328,69.0,288,390,7.0,0.0
6329,64.0,0,390,7.0,0.0
6330,85.0,216,60,6.0,0.0
6331,88.0,48,210,6.0,0.0
6332,86.0,240,180,6.0,0.0
6333,85.0,240,180,6.0,0.0
6334,83.0,240,180,6.0,0.0
6335,81.0,240,180,6.0,0.0
6336,80.0,240,180,6.0,0.0
6337,78.0,240,180,6.0,0.0
6338,76.0,240,180,6.0,0.0
6339,74.0,240,180,6.0,0.0
6340,73.0,240,180,6.0,0.0
6341,71.0,360,180,6.0,0.0
6342,69.0,480,300,6.0,0.0
6343,78.0,0,300,6.0,0.0
6344,51.0,0,300,7.0,0.0
6345,57.0,1128,300,7.0,0.0
6346,73.0,384,960,6.0,0.0
6347,52.0,0,1350,7.0,0.0
6348,57.0,0,960,7.0,0.0
6349,56.0,0,390,7.0,0.0
6350,71.0,1536,390,6.0,0.0
6351,57.0,240,960,3.0,0.0
6352,72.0,0,960,0.0,0.0
6353,76.0,0,240,0.0,0.0
6354,60.0,240,240,3.0,0.0
6355,59.0,0,240,3.0,0.0
6356,74.0,240,240,0.0,0.0
6357,57.0,240,240,3.0,0.0
6358,72.0,0,240,0.0,0.0
6359,59.0,792,240,3.0,0.0
6360,74.0,0,240,0.0,0.0
6361,60.0,0,1440,3.0,0.0
6362,57.0,480,300,4.0,0.0
6363,69.0,0,300,4.0,0.0
6364,69.0,168,300,4.0,0.0
6365,57.0,0,300,4.0,0.0
6366,61.0,0,480,3.0,0.0
6367,76.0,312,15,0.0,0.0
6368,69.0,0,300,4.0,0.0
6369,57.0,168,300,4.0,0.0
6370,69.0,96,3270,4.0,0.0
6371,57.0,0,3270,4.0,0.0
6372,62.0,0,480,3.0,0.0
6373,77.0,480,480,0.0,0.0
6374,79.0,480,480,0.0,0.0
6375,64.0,0,480,3.0,0.0
6376,81.0,480,480,0.0,0.0
6377,65.0,0,480,3.0,0.0
6378,79.0,480,480,0.0,0.0
6379,64.0,0,15,3.0,0.0
6380,79.0,480,480,0.0,0.0
6381,62.0,0,480,3.0,0.0
6382,77.0,384,480,0.0,0.0
6383,76.0,384,480,0.0,0.0
6384,60.0,0,480,3.0,0.0
6385,72.0,0,390,6.0,0.0
6386,76.0,0,390,6.0,0.0
6387,64.0,0,390,7.0,0.0
6388,60.0,576,390,7.0,0.0
6389,74.0,480,480,6.0,0.0
6390,77.0,0,480,6.0,0.0
6391,62.0,0,480,7.0,0.0
6392,65.0,0,480,7.0,0.0
6393,67.0,480,480,7.0,0.0
6394,64.0,0,480,7.0,0.0
6395,76.0,0,480,6.0,0.0
6396,79.0,0,480,6.0,0.0
6397,77.0,0,480,6.0,0.0
6398,65.0,480,480,7.0,0.0
6399,81.0,0,480,6.0,0.0
6400,69.0,0,480,7.0,0.0
6401,71.0,0,960,1.0,0.0
6402,67.0,0,1350,1.0,0.0
6403,67.0,0,15,7.0,0.0
6404,64.0,0,15,7.0,0.0
6405,55.0,0,960,3.0,0.0
6406,83.0,0,960,0.0,0.0
6407,79.0,0,15,6.0,0.0
6408,76.0,480,15,6.0,0.0
6409,59.0,0,960,3.0,0.0
6410,77.0,0,480,6.0,0.0
6411,74.0,0,480,6.0,0.0
6412,62.0,384,480,7.0,0.0
6413,65.0,0,480,7.0,0.0
6414,72.0,0,390,1.0,0.0
6415,84.0,0,390,0.0,0.0
6416,72.0,0,390,6.0,0.0
6417,60.0,0,390,3.0,0.0
6418,48.0,528,390,3.0,0.0
6419,60.0,0,390,7.0,0.0
6420,64.0,0,390,7.0,0.0
6421,76.0,0,390,6.0,0.0
6422,69.0,0,420,12.0,0.0
6423,65.0,0,420,12.0,0.0
6424,81.0,0,420,10.0,0.0
6425,77.0,528,420,11.0,0.0
6426,79.0,480,480,10.0,0.0
6427,47.0,384,960,14.0,0.0
6428,76.0,0,480,11.0,0.0
6429,67.0,0,480,12.0,0.0
6430,64.0,0,480,12.0,0.0
6431,59.0,0,960,13.0,0.0
6432,62.0,0,480,12.0,0.0
6433,65.0,0,480,12.0,0.0
6434,74.0,0,480,11.0,0.0
6435,77.0,0,480,10.0,0.0
6436,76.0,0,390,10.0,0.0
6437,60.0,0,390,13.0,0.0
6438,48.0,528,390,14.0,0.0
6439,64.0,0,390,12.0,0.0
6440,60.0,0,390,12.0,0.0
6441,72.0,0,390,11.0,0.0
6442,74.0,0,420,1.0,0.0
6443,77.0,0,420,1.0,0.0
6444,65.0,0,420,3.0,0.0
6445,62.0,528,420,3.0,0.0
6446,89.0,0,420,0.0,0.0
6447,64.0,0,960,4.0,0.0
6448,52.0,0,960,13.0,0.0
6449,56.0,0,960,12.0,0.0
6450,80.0,0,960,10.0,0.0
6451,68.0,0,960,11.0,0.0
6452,64.0,0,480,3.0,0.0
6453,60.0,480,480,3.0,0.0
6454,76.0,0,480,1.0,0.0
6455,72.0,0,480,1.0,0.0
6456,88.0,0,480,0.0,0.0
6457,40.0,0,960,14.0,0.0
6458,71.0,0,480,1.0,0.0
6459,86.0,0,480,0.0,0.0
6460,62.0,0,480,3.0,0.0
6461,59.0,384,480,3.0,0.0
6462,74.0,0,480,1.0,0.0
6463,60.0,0,390,3.0,0.0
6464,57.0,0,390,12.0,0.0
6465,45.0,0,390,13.0,0.0
6466,84.0,0,390,0.0,0.0
6467,69.0,0,390,1.0,0.0
6468,72.0,0,390,1.0,0.0
6469,57.0,0,390,3.0,0.0
6470,69.0,480,390,11.0,0.0
6471,57.0,0,390,4.0,0.0
6472,33.0,0,390,14.0,0.0
6473,81.0,0,390,10.0,0.0
6474,76.0,576,390,6.0,0.0
6475,65.0,0,1920,7.0,0.0
6476,69.0,480,1920,7.0,0.0
6477,75.0,960,480,6.0,0.0
6478,84.0,480,960,6.0,0.0
6479,75.0,0,480,6.0,0.0
6480,68.0,0,780,7.0,0.0
6481,64.0,96,780,7.0,0.0
6482,78.0,288,480,6.0,0.0
6483,76.0,96,390,6.0,0.0
6484,64.0,0,480,3.0,0.0
6485,76.0,0,480,1.0,0.0
6486,88.0,480,480,0.0,0.0
6487,63.0,0,480,3.0,0.0
6488,87.0,480,480,0.0,0.0
6489,75.0,0,480,1.0,0.0
6490,74.0,0,480,1.0,0.0
6491,62.0,480,480,3.0,0.0
6492,86.0,0,480,0.0,0.0
6493,64.0,96,7590,12.0,0.0
6494,69.0,480,480,11.0,0.0
6495,73.0,0,1920,10.0,0.0
6496,73.0,96,1830,1.0,0.0
6497,85.0,0,1830,0.0,0.0
6498,45.0,480,1920,14.0,0.0
6499,57.0,0,1920,13.0,0.0
6500,64.0,0,7590,4.0,0.0
6501,52.0,0,7590,4.0,0.0
6502,61.0,0,1830,3.0,0.0
6503,64.0,480,480,11.0,0.0
6504,69.0,384,480,11.0,0.0
6505,64.0,0,480,11.0,0.0
6506,74.0,0,1920,10.0,0.0
6507,56.0,0,1920,13.0,0.0
6508,71.0,0,480,11.0,0.0
6509,59.0,0,480,3.0,0.0
6510,83.0,0,480,0.0,0.0
6511,44.0,480,1920,14.0,0.0
6512,71.0,312,480,1.0,0.0
6513,64.0,312,480,11.0,0.0
6514,88.0,0,300,0.0,0.0
6515,64.0,0,300,3.0,0.0
6516,76.0,168,300,1.0,0.0
6517,64.0,168,300,3.0,0.0
6518,76.0,0,300,1.0,0.0
6519,88.0,0,300,0.0,0.0
6520,71.0,312,480,11.0,0.0
6521,64.0,0,300,3.0,0.0
6522,88.0,168,300,0.0,0.0
6523,64.0,0,480,11.0,0.0
6524,76.0,0,300,1.0,0.0
6525,64.0,0,1440,3.0,0.0
6526,73.0,0,1920,10.0,0.0
6527,69.0,480,480,11.0,0.0
6528,57.0,0,1920,13.0,0.0
6529,45.0,0,1920,14.0,0.0
6530,88.0,0,1440,0.0,0.0
6531,76.0,0,1440,1.0,0.0
6532,64.0,480,480,11.0,0.0
6533,69.0,120,480,11.0,0.0
6534,62.0,120,120,3.0,0.0
6535,86.0,0,120,0.0,0.0
6536,64.0,24,450,11.0,0.0
6537,74.0,0,120,1.0,0.0
6538,85.0,0,120,0.0,0.0
6539,61.0,120,120,3.0,0.0
6540,73.0,0,120,1.0,0.0
6541,83.0,0,120,0.0,0.0
6542,71.0,0,120,1.0,0.0
6543,59.0,96,120,3.0,0.0
6544,69.0,0,120,1.0,0.0
6545,81.0,480,120,0.0,0.0
6546,57.0,0,120,3.0,0.0
6547,68.0,0,480,11.0,0.0
6548,40.0,0,480,14.0,0.0
6549,71.0,0,480,10.0,0.0
6550,80.0,480,480,0.0,0.0
6551,56.0,0,480,3.0,0.0
6552,52.0,0,480,13.0,0.0
6553,68.0,0,480,1.0,0.0
6554,76.0,480,480,10.0,0.0
6555,64.0,0,480,11.0,0.0
6556,71.0,0,480,11.0,0.0
6557,75.0,384,480,10.0,0.0
6558,68.0,480,480,11.0,0.0
6559,74.0,0,480,10.0,0.0
6560,73.0,96,1830,1.0,0.0
6561,69.0,96,3750,4.0,0.0
6562,73.0,0,1920,10.0,0.0
6563,61.0,0,1830,3.0,0.0
6564,54.0,480,1920,13.0,0.0
6565,85.0,0,1830,0.0,0.0
6566,42.0,0,1920,14.0,0.0
6567,69.0,480,480,11.0,0.0
6568,57.0,0,3750,4.0,0.0
6569,66.0,0,2400,12.0,0.0
6570,66.0,480,480,11.0,0.0
6571,69.0,384,480,11.0,0.0
6572,66.0,0,480,11.0,0.0
6573,83.0,0,480,0.0,0.0
6574,69.0,0,480,11.0,0.0
6575,59.0,312,480,3.0,0.0
6576,71.0,0,960,10.0,0.0
6577,38.0,0,1920,14.0,0.0
6578,50.0,480,1920,13.0,0.0
6579,71.0,0,480,1.0,0.0
6580,66.0,0,480,11.0,0.0
6581,90.0,168,300,0.0,0.0
6582,62.0,312,480,12.0,0.0
6583,78.0,0,300,1.0,0.0
6584,66.0,0,300,3.0,0.0
6585,69.0,312,480,11.0,0.0
6586,74.0,0,960,10.0,0.0
6587,66.0,0,300,3.0,0.0
6588,59.0,0,960,12.0,0.0
6589,90.0,168,300,0.0,0.0
6590,78.0,0,300,1.0,0.0
6591,90.0,0,300,0.0,0.0
6592,66.0,0,300,3.0,0.0
6593,66.0,0,480,11.0,0.0
6594,78.0,72,300,1.0,0.0
6595,69.0,240,1440,1.0,0.0
6596,69.0,480,480,11.0,0.0
6597,57.0,0,1440,3.0,0.0
6598,52.0,96,1830,4.0,0.0
6599,61.0,480,960,12.0,0.0
6600,73.0,0,1440,10.0,0.0
6601,40.0,384,1920,14.0,0.0
6602,81.0,0,1440,0.0,0.0
6603,64.0,0,2370,4.0,0.0
6604,52.0,0,1920,13.0,0.0
6605,64.0,0,480,11.0,0.0
6606,64.0,0,480,11.0,0.0
6607,68.0,0,480,10.0,0.0
6608,62.0,0,480,11.0,0.0
6609,73.0,144,240,1.0,0.0
6610,85.0,0,240,0.0,0.0
6611,61.0,0,240,3.0,0.0
6612,83.0,0,240,0.0,0.0
6613,59.0,0,240,3.0,0.0
6614,71.0,0,240,1.0,0.0
6615,57.0,24,450,4.0,0.0
6616,81.0,240,480,0.0,0.0
6617,64.0,0,15,12.0,0.0
6618,69.0,0,480,10.0,0.0
6619,33.0,0,390,14.0,0.0
6620,57.0,0,480,3.0,0.0
6621,69.0,0,480,1.0,0.0
6622,45.0,0,390,13.0,0.0
6623,61.0,0,390,11.0,0.0
6624,76.0,0,240,6.0,0.0
6625,78.0,240,240,6.0,0.0
6626,80.0,240,240,6.0,0.0
6627,81.0,240,240,6.0,0.0
6628,80.0,240,240,6.0,0.0
6629,83.0,240,240,6.0,0.0
6630,81.0,236,240,6.0,0.0
6631,84.0,92,1830,6.0,0.0
6632,69.0,0,1920,11.0,0.0
6633,72.0,0,1920,10.0,0.0
6634,57.0,0,1920,13.0,0.0
6635,64.0,0,7650,12.0,0.0
6636,45.0,236,1920,14.0,0.0
6637,69.0,240,240,7.0,0.0
6638,76.0,240,240,7.0,0.0
6639,72.0,240,240,7.0,0.0
6640,76.0,240,240,7.0,0.0
6641,69.0,240,240,7.0,0.0
6642,76.0,240,240,7.0,0.0
6643,72.0,148,240,7.0,0.0
6644,76.0,4,240,7.0,0.0
6645,56.0,0,1920,13.0,0.0
6646,71.0,0,1920,11.0,0.0
6647,74.0,236,1920,10.0,0.0
6648,68.0,240,240,7.0,0.0
6649,44.0,0,1920,14.0,0.0
6650,83.0,236,480,6.0,0.0
6651,76.0,4,240,7.0,0.0
6652,74.0,148,240,7.0,0.0
6653,88.0,92,390,6.0,0.0
6654,76.0,240,240,7.0,0.0
6655,88.0,92,390,6.0,0.0
6656,68.0,148,240,7.0,0.0
6657,76.0,240,240,7.0,0.0
6658,74.0,148,240,7.0,0.0
6659,88.0,92,390,6.0,0.0
6660,76.0,4,240,7.0,0.0
6661,57.0,0,1920,13.0,0.0
6662,45.0,0,1920,14.0,0.0
6663,69.0,0,1920,11.0,0.0
6664,72.0,236,1920,10.0,0.0
6665,88.0,240,240,6.0,0.0
6666,69.0,0,240,7.0,0.0
6667,76.0,0,240,7.0,0.0
6668,87.0,240,240,6.0,0.0
6669,86.0,0,240,6.0,0.0
6670,72.0,240,240,7.0,0.0
6671,76.0,0,240,7.0,0.0
6672,85.0,240,240,6.0,0.0
6673,84.0,0,240,6.0,0.0
6674,69.0,240,240,7.0,0.0
6675,83.0,0,240,6.0,0.0
6676,76.0,240,240,7.0,0.0
6677,72.0,240,240,7.0,0.0
6678,82.0,0,240,6.0,0.0
6679,76.0,4,240,7.0,0.0
6680,81.0,0,240,6.0,0.0
6681,52.0,0,1890,13.0,0.0
6682,68.0,0,1890,11.0,0.0
6683,40.0,34,1890,14.0,0.0
6684,71.0,0,1890,10.0,0.0
6685,64.0,234,240,7.0,0.0
6686,80.0,6,480,6.0,0.0
6687,76.0,240,240,7.0,0.0
6688,71.0,240,240,7.0,0.0
6689,76.0,240,240,7.0,0.0
6690,64.0,240,240,7.0,0.0
6691,74.0,240,240,7.0,0.0
6692,71.0,206,240,7.0,0.0
6693,74.0,240,240,7.0,0.0
6694,53.0,0,1920,13.0,0.0
6695,60.0,0,1920,11.0,0.0
6696,84.0,236,1440,6.0,0.0
6697,69.0,0,4800,10.0,0.0
6698,65.0,240,240,7.0,0.0
6699,41.0,0,1920,14.0,0.0
6700,65.0,236,3840,12.0,0.0
6701,72.0,240,240,7.0,0.0
6702,69.0,240,240,7.0,0.0
6703,72.0,240,240,7.0,0.0
6704,65.0,240,240,7.0,0.0
6705,72.0,4,240,7.0,0.0
6706,86.0,236,240,6.0,0.0
6707,69.0,4,240,7.0,0.0
6708,84.0,236,240,6.0,0.0
6709,72.0,4,240,7.0,0.0
6710,50.0,0,1920,13.0,0.0
6711,62.0,240,240,7.0,0.0
6712,38.0,0,1920,14.0,0.0
6713,83.0,236,480,6.0,0.0
6714,59.0,0,1920,11.0,0.0
6715,71.0,4,240,7.0,0.0
6716,89.0,92,390,6.0,0.0
6717,69.0,148,240,7.0,0.0
6718,71.0,240,240,7.0,0.0
6719,62.0,148,240,7.0,0.0
6720,89.0,92,390,6.0,0.0
6721,71.0,240,240,7.0,0.0
6722,69.0,148,240,7.0,0.0
6723,89.0,92,390,6.0,0.0
6724,71.0,4,240,7.0,0.0
6725,52.0,0,1920,13.0,0.0
6726,64.0,0,960,11.0,0.0
6727,81.0,236,1440,6.0,0.0
6728,40.0,236,1920,14.0,0.0
6729,64.0,240,240,7.0,0.0
6730,60.0,236,960,12.0,0.0
6731,72.0,240,240,7.0,0.0
6732,69.0,240,240,7.0,0.0
6733,72.0,4,240,7.0,0.0
6734,68.0,0,960,10.0,0.0
6735,64.0,240,240,7.0,0.0
6736,59.0,0,960,12.0,0.0
6737,62.0,0,960,11.0,0.0
6738,74.0,4,240,7.0,0.0
6739,68.0,4,240,7.0,0.0
6740,84.0,236,240,6.0,0.0
6741,83.0,0,240,6.0,0.0
6742,74.0,4,240,7.0,0.0
6743,65.0,6,480,7.0,0.0
6744,72.0,0,480,7.0,0.0
6745,81.0,148,240,6.0,0.0
6746,69.0,0,390,10.0,0.0
6747,41.0,0,390,14.0,0.0
6748,57.0,0,390,12.0,0.0
6749,60.0,0,390,11.0,0.0
6750,53.0,86,390,13.0,0.0
6751,80.0,240,240,6.0,0.0
6752,79.0,240,240,6.0,0.0
6753,78.0,240,240,6.0,0.0
6754,77.0,240,240,6.0,0.0
6755,76.0,240,240,6.0,0.0
6756,75.0,240,240,6.0,0.0
6757,74.0,240,240,6.0,0.0
6758,72.0,236,1440,6.0,0.0
6759,48.0,240,240,7.0,0.0
6760,36.0,0,1890,14.0,0.0
6761,72.0,0,1890,10.0,0.0
6762,69.0,34,1890,11.0,0.0
6763,64.0,0,1890,12.0,0.0
6764,48.0,0,1890,13.0,0.0
6765,57.0,240,240,7.0,0.0
6766,52.0,240,240,7.0,0.0
6767,57.0,240,240,7.0,0.0
6768,48.0,240,240,7.0,0.0
6769,57.0,4,240,7.0,0.0
6770,74.0,202,240,6.0,0.0
6771,52.0,4,240,7.0,0.0
6772,72.0,236,240,6.0,0.0
6773,57.0,4,240,7.0,0.0
6774,50.0,0,7650,13.0,0.0
6775,65.0,0,9570,11.0,0.0
6776,71.0,34,3810,10.0,0.0
6777,50.0,240,240,7.0,0.0
6778,71.0,236,480,6.0,0.0
6779,62.0,34,7650,12.0,0.0
6780,38.0,0,7650,14.0,0.0
6781,59.0,4,240,7.0,0.0
6782,77.0,92,390,6.0,0.0
6783,53.0,148,240,7.0,0.0
6784,59.0,240,240,7.0,0.0
6785,50.0,148,240,7.0,0.0
6786,77.0,92,390,6.0,0.0
6787,59.0,240,240,7.0,0.0
6788,53.0,148,240,7.0,0.0
6789,77.0,92,390,6.0,0.0
6790,59.0,240,240,7.0,0.0
6791,71.0,236,480,1.0,0.0
6792,59.0,0,480,3.0,0.0
6793,50.0,240,240,7.0,0.0
6794,59.0,4,240,7.0,0.0
6795,53.0,148,240,7.0,0.0
6796,65.0,92,390,3.0,0.0
6797,77.0,0,390,1.0,0.0
6798,59.0,240,240,7.0,0.0
6799,50.0,148,240,7.0,0.0
6800,65.0,92,390,3.0,0.0
6801,77.0,0,390,1.0,0.0
6802,59.0,240,240,7.0,0.0
6803,65.0,0,390,3.0,0.0
6804,77.0,58,390,1.0,0.0
6805,53.0,148,240,7.0,0.0
6806,59.0,240,240,7.0,0.0
6807,70.0,34,5730,10.0,0.0
6808,70.0,236,480,6.0,0.0
6809,50.0,240,240,7.0,0.0
6810,58.0,4,240,7.0,0.0
6811,77.0,92,390,6.0,0.0
6812,53.0,148,240,7.0,0.0
6813,58.0,240,240,7.0,0.0
6814,50.0,148,240,7.0,0.0
6815,77.0,92,390,6.0,0.0
6816,58.0,240,240,7.0,0.0
6817,53.0,148,240,7.0,0.0
6818,77.0,92,390,6.0,0.0
6819,58.0,240,240,7.0,0.0
6820,70.0,236,480,1.0,0.0
6821,50.0,240,240,7.0,0.0
6822,58.0,0,480,3.0,0.0
6823,58.0,4,240,7.0,0.0
6824,53.0,148,240,7.0,0.0
6825,77.0,92,390,1.0,0.0
6826,65.0,0,390,3.0,0.0
6827,58.0,240,240,7.0,0.0
6828,65.0,92,390,3.0,0.0
6829,50.0,148,240,7.0,0.0
6830,77.0,0,390,1.0,0.0
6831,58.0,240,240,7.0,0.0
6832,65.0,58,390,3.0,0.0
6833,77.0,0,390,1.0,0.0
6834,53.0,148,240,7.0,0.0
6835,58.0,240,240,7.0,0.0
6836,49.0,34,3810,13.0,0.0
6837,61.0,0,1890,12.0,0.0
6838,70.0,236,480,6.0,0.0
6839,49.0,240,240,7.0,0.0
6840,37.0,0,3810,14.0,0.0
6841,58.0,4,240,7.0,0.0
6842,77.0,92,390,6.0,0.0
6843,53.0,148,240,7.0,0.0
6844,58.0,240,240,7.0,0.0
6845,49.0,148,240,7.0,0.0
6846,77.0,92,390,6.0,0.0
6847,58.0,240,240,7.0,0.0
6848,77.0,58,390,6.0,0.0
6849,53.0,148,240,7.0,0.0
6850,58.0,240,240,7.0,0.0
6851,49.0,240,240,7.0,0.0
6852,71.0,0,1890,10.0,0.0
6853,83.0,0,480,0.0,0.0
6854,71.0,236,480,1.0,0.0
6855,68.0,0,1890,11.0,0.0
6856,65.0,0,3810,12.0,0.0
6857,59.0,0,480,3.0,0.0
6858,56.0,4,240,7.0,0.0
6859,89.0,0,390,0.0,0.0
6860,53.0,148,240,7.0,0.0
6861,65.0,92,390,3.0,0.0
6862,77.0,0,390,1.0,0.0
6863,56.0,240,240,7.0,0.0
6864,89.0,0,390,0.0,0.0
6865,65.0,0,390,3.0,0.0
6866,49.0,148,240,7.0,0.0
6867,77.0,92,390,1.0,0.0
6868,56.0,124,240,7.0,0.0
6869,53.0,4,240,7.0,0.0
6870,77.0,0,390,1.0,0.0
6871,89.0,0,390,0.0,0.0
6872,79.0,116,120,6.0,0.0
6873,65.0,58,390,3.0,0.0
6874,77.0,120,120,6.0,0.0
6875,76.0,24,120,6.0,0.0
6876,56.0,4,240,7.0,0.0
6877,77.0,236,120,6.0,0.0
6878,72.0,34,1890,10.0,0.0
6879,48.0,0,5760,13.0,0.0
6880,69.0,0,480,1.0,0.0
6881,36.0,0,5760,14.0,0.0
6882,69.0,0,1890,11.0,0.0
6883,57.0,236,480,3.0,0.0
6884,81.0,24,780,6.0,0.0
6885,48.0,240,240,7.0,0.0
6886,57.0,4,240,7.0,0.0
6887,77.0,0,300,1.0,0.0
6888,53.0,52,240,7.0,0.0
6889,65.0,164,300,3.0,0.0
6890,57.0,196,240,7.0,0.0
6891,48.0,76,240,7.0,0.0
6892,77.0,0,300,1.0,0.0
6893,77.0,44,180,6.0,0.0
6894,65.0,120,300,3.0,0.0
6895,72.0,44,180,6.0,0.0
6896,57.0,196,240,7.0,0.0
6897,77.0,120,300,1.0,0.0
6898,69.0,44,180,6.0,0.0
6899,65.0,0,300,3.0,0.0
6900,53.0,76,240,7.0,0.0
6901,57.0,240,240,7.0,0.0
6902,65.0,10,180,6.0,0.0
6903,48.0,148,240,7.0,0.0
6904,70.0,34,1890,11.0,0.0
6905,67.0,0,1890,12.0,0.0
6906,64.0,0,480,1.0,0.0
6907,64.0,92,390,6.0,0.0
6908,76.0,236,480,0.0,0.0
6909,76.0,0,1890,10.0,0.0
6910,58.0,4,240,7.0,0.0
6911,70.0,164,300,1.0,0.0
6912,82.0,0,300,0.0,0.0
6913,82.0,16,930,6.0,0.0
6914,55.0,76,240,7.0,0.0
6915,58.0,240,240,7.0,0.0
6916,70.0,0,300,1.0,0.0
6917,82.0,148,300,0.0,0.0
6918,48.0,76,240,7.0,0.0
6919,58.0,240,240,7.0,0.0
6920,64.0,58,390,6.0,0.0
6921,55.0,76,240,7.0,0.0
6922,70.0,72,300,1.0,0.0
6923,82.0,0,300,0.0,0.0
6924,58.0,240,240,7.0,0.0
6925,57.0,0,480,3.0,0.0
6926,45.0,0,480,3.0,0.0
6927,69.0,192,480,11.0,0.0
6928,65.0,34,1890,12.0,0.0
6929,77.0,0,480,10.0,0.0
6930,48.0,196,240,7.0,0.0
6931,69.0,0,480,1.0,0.0
6932,57.0,4,240,7.0,0.0
6933,65.0,44,180,6.0,0.0
6934,77.0,120,300,1.0,0.0
6935,81.0,192,960,10.0,0.0
6936,81.0,44,180,6.0,0.0
6937,72.0,0,960,11.0,0.0
6938,65.0,0,300,3.0,0.0
6939,53.0,0,300,3.0,0.0
6940,53.0,76,240,7.0,0.0
6941,76.0,44,180,6.0,0.0
6942,57.0,196,240,7.0,0.0
6943,77.0,0,300,1.0,0.0
6944,48.0,76,240,7.0,0.0
6945,53.0,120,300,3.0,0.0
6946,65.0,0,300,3.0,0.0
6947,77.0,44,180,6.0,0.0
6948,72.0,44,180,6.0,0.0
6949,57.0,4,240,7.0,0.0
6950,53.0,120,300,3.0,0.0
6951,65.0,0,300,3.0,0.0
6952,77.0,0,300,1.0,0.0
6953,69.0,0,480,11.0,0.0
6954,53.0,76,240,7.0,0.0
6955,77.0,236,480,10.0,0.0
6956,69.0,44,180,6.0,0.0
6957,57.0,4,240,7.0,0.0
6958,65.0,10,180,6.0,0.0
6959,67.0,34,1890,12.0,0.0
6960,64.0,92,390,6.0,0.0
6961,37.0,236,1920,14.0,0.0
6962,76.0,0,480,0.0,0.0
6963,76.0,0,1890,10.0,0.0
6964,70.0,0,1890,11.0,0.0
6965,49.0,148,240,7.0,0.0
6966,64.0,236,480,1.0,0.0
6967,49.0,0,1920,13.0,0.0
6968,58.0,4,240,7.0,0.0
6969,82.0,16,930,6.0,0.0
6970,55.0,76,240,7.0,0.0
6971,82.0,164,300,0.0,0.0
6972,70.0,0,300,1.0,0.0
6973,58.0,240,240,7.0,0.0
6974,82.0,0,300,0.0,0.0
6975,70.0,148,300,1.0,0.0
6976,49.0,76,240,7.0,0.0
6977,58.0,240,240,7.0,0.0
6978,55.0,76,240,7.0,0.0
6979,82.0,72,300,0.0,0.0
6980,64.0,58,390,6.0,0.0
6981,70.0,0,300,1.0,0.0
6982,58.0,4,240,7.0,0.0
6983,69.0,0,480,1.0,0.0
6984,50.0,196,240,7.0,0.0
6985,38.0,236,1920,14.0,0.0
6986,69.0,34,1890,11.0,0.0
6987,65.0,0,1890,12.0,0.0
6988,77.0,0,480,10.0,0.0
6989,45.0,0,480,3.0,0.0
6990,57.0,192,480,3.0,0.0
6991,50.0,0,1920,13.0,0.0
6992,57.0,4,240,7.0,0.0
6993,65.0,44,180,6.0,0.0
6994,81.0,44,180,6.0,0.0
6995,53.0,76,240,7.0,0.0
6996,81.0,192,960,10.0,0.0
6997,53.0,0,300,3.0,0.0
6998,65.0,0,300,3.0,0.0
6999,77.0,120,300,1.0,0.0
7000,57.0,196,240,7.0,0.0
7001,76.0,44,180,6.0,0.0
7002,53.0,0,300,3.0,0.0
7003,65.0,0,300,3.0,0.0
7004,50.0,76,240,7.0,0.0
7005,77.0,120,300,1.0,0.0
7006,77.0,44,180,6.0,0.0
7007,57.0,4,240,7.0,0.0
7008,72.0,44,180,6.0,0.0
7009,77.0,0,480,10.0,0.0
7010,69.0,44,180,6.0,0.0
7011,77.0,0,300,1.0,0.0
7012,53.0,76,240,7.0,0.0
7013,53.0,120,300,3.0,0.0
7014,65.0,0,300,3.0,0.0
7015,65.0,10,180,6.0,0.0
7016,57.0,4,240,7.0,0.0
7017,69.0,0,2370,12.0,0.0
7018,66.0,0,480,1.0,0.0
7019,54.0,236,480,3.0,0.0
7020,51.0,432,1920,13.0,0.0
7021,78.0,0,1920,10.0,0.0
7022,78.0,0,480,0.0,0.0
7023,51.0,148,240,7.0,0.0
7024,39.0,0,1920,14.0,0.0
7025,72.0,0,1920,11.0,0.0
7026,66.0,92,390,6.0,0.0
7027,60.0,4,240,7.0,0.0
7028,57.0,76,240,7.0,0.0
7029,60.0,0,300,3.0,0.0
7030,84.0,164,300,0.0,0.0
7031,72.0,0,300,1.0,0.0
7032,84.0,16,930,6.0,0.0
7033,60.0,240,240,7.0,0.0
7034,72.0,0,300,1.0,0.0
7035,51.0,76,240,7.0,0.0
7036,60.0,148,300,3.0,0.0
7037,84.0,0,300,0.0,0.0
7038,60.0,240,240,7.0,0.0
7039,84.0,0,300,0.0,0.0
7040,72.0,0,300,1.0,0.0
7041,66.0,92,390,6.0,0.0
7042,60.0,72,300,3.0,0.0
7043,57.0,76,240,7.0,0.0
7044,60.0,4,240,7.0,0.0
7045,73.0,216,450,11.0,0.0
7046,40.0,0,450,14.0,0.0
7047,61.0,0,1830,7.0,0.0
7048,57.0,48,1830,7.0,0.0
7049,52.0,0,1830,7.0,0.0
7050,52.0,0,450,13.0,0.0
7051,76.0,0,450,10.0,0.0
7052,52.0,96,7590,4.0,0.0
7053,64.0,12,8130,4.0,0.0
7054,64.0,24,180,6.0,0.0
7055,66.0,240,180,6.0,0.0
7056,68.0,240,180,6.0,0.0
7057,69.0,240,180,6.0,0.0
7058,71.0,240,180,6.0,0.0
7059,73.0,192,180,6.0,0.0
7060,74.0,240,180,6.0,0.0
7061,76.0,240,180,6.0,0.0
7062,78.0,240,180,6.0,0.0
7063,80.0,240,180,6.0,0.0
7064,81.0,240,180,6.0,0.0
7065,83.0,240,180,6.0,0.0
7066,85.0,240,180,6.0,0.0
7067,86.0,240,180,6.0,0.0
7068,88.0,288,180,6.0,0.0
7069,61.0,0,960,3.0,0.0
7070,64.0,0,960,3.0,0.0
7071,52.0,0,3840,13.0,0.0
7072,52.0,384,3840,7.0,0.0
7073,40.0,0,3840,14.0,0.0
7074,73.0,240,960,1.0,0.0
7075,88.0,0,960,0.0,0.0
7076,76.0,240,240,6.0,0.0
7077,76.0,0,960,1.0,0.0
7078,81.0,240,240,6.0,0.0
7079,57.0,0,480,7.0,0.0
7080,73.0,240,240,6.0,0.0
7081,76.0,0,240,6.0,0.0
7082,59.0,0,960,3.0,0.0
7083,59.0,0,480,7.0,0.0
7084,74.0,240,240,6.0,0.0
7085,74.0,0,960,1.0,0.0
7086,71.0,240,960,1.0,0.0
7087,86.0,0,960,0.0,0.0
7088,62.0,0,960,3.0,0.0
7089,78.0,240,240,6.0,0.0
7090,56.0,0,480,7.0,0.0
7091,71.0,240,240,6.0,0.0
7092,74.0,0,240,6.0,0.0
7093,69.0,0,960,1.0,0.0
7094,61.0,0,960,3.0,0.0
7095,57.0,240,480,7.0,0.0
7096,73.0,0,960,1.0,0.0
7097,57.0,0,960,3.0,0.0
7098,85.0,240,960,0.0,0.0
7099,73.0,240,240,6.0,0.0
7100,76.0,0,240,6.0,0.0
7101,69.0,240,240,6.0,0.0
7102,61.0,0,480,7.0,0.0
7103,73.0,0,240,6.0,0.0
7104,83.0,0,960,0.0,0.0
7105,68.0,0,960,1.0,0.0
7106,62.0,240,480,7.0,0.0
7107,71.0,240,240,6.0,0.0
7108,71.0,0,960,1.0,0.0
7109,56.0,0,960,3.0,0.0
7110,59.0,0,960,3.0,0.0
7111,74.0,0,240,6.0,0.0
7112,59.0,0,480,7.0,0.0
7113,68.0,144,240,6.0,0.0
7114,71.0,0,240,6.0,0.0
7115,57.0,0,780,13.0,0.0
7116,69.0,72,390,1.0,0.0
7117,81.0,0,390,0.0,0.0
7118,69.0,0,780,11.0,0.0
7119,73.0,180,780,10.0,0.0
7120,69.0,0,780,6.0,0.0
7121,57.0,0,390,3.0,0.0
7122,45.0,0,780,14.0,0.0
7123,57.0,0,450,4.0,0.0
7124,64.0,0,780,12.0,0.0
7125,45.0,240,240,7.0,0.0
7126,49.0,60,240,7.0,0.0
7127,52.0,240,240,7.0,0.0
7128,57.0,240,240,7.0,0.0
7129,56.0,240,240,7.0,0.0
7130,57.0,204,240,7.0,0.0
7131,73.0,36,180,6.0,0.0
7132,45.0,480,240,7.0,0.0
7133,71.0,0,780,11.0,0.0
7134,71.0,36,900,6.0,0.0
7135,76.0,0,780,10.0,0.0
7136,64.0,144,780,12.0,0.0
7137,44.0,0,780,14.0,0.0
7138,56.0,0,780,13.0,0.0
7139,76.0,0,900,6.0,0.0
7140,44.0,240,240,7.0,0.0
7141,47.0,60,240,7.0,0.0
7142,52.0,240,240,7.0,0.0
7143,56.0,240,240,7.0,0.0
7144,54.0,240,240,7.0,0.0
7145,56.0,204,240,7.0,0.0
7146,76.0,36,180,6.0,0.0
7147,44.0,468,240,7.0,0.0
7148,73.0,0,450,6.0,0.0
7149,42.0,168,780,14.0,0.0
7150,66.0,0,780,11.0,0.0
7151,69.0,12,450,6.0,0.0
7152,69.0,0,780,10.0,0.0
7153,61.0,0,780,12.0,0.0
7154,81.0,12,930,6.0,0.0
7155,54.0,0,780,13.0,0.0
7156,42.0,240,240,7.0,0.0
7157,45.0,60,240,7.0,0.0
7158,49.0,240,240,7.0,0.0
7159,54.0,240,240,7.0,0.0
7160,53.0,240,240,7.0,0.0
7161,54.0,204,240,7.0,0.0
7162,42.0,480,240,7.0,0.0
7163,69.0,36,180,6.0,0.0
7164,73.0,0,780,10.0,0.0
7165,40.0,0,780,14.0,0.0
7166,61.0,0,780,12.0,0.0
7167,52.0,0,780,13.0,0.0
7168,68.0,0,780,11.0,0.0
7169,68.0,0,780,6.0,0.0
7170,73.0,180,780,6.0,0.0
7171,40.0,240,240,7.0,0.0
7172,44.0,60,240,7.0,0.0
7173,49.0,240,240,7.0,0.0
7174,52.0,240,240,7.0,0.0
7175,51.0,240,240,7.0,0.0
7176,52.0,204,240,7.0,0.0
7177,40.0,468,240,7.0,0.0
7178,73.0,36,180,6.0,0.0
7179,38.0,0,780,14.0,0.0
7180,50.0,0,780,13.0,0.0
7181,57.0,0,780,12.0,0.0
7182,66.0,0,780,10.0,0.0
7183,69.0,0,450,6.0,0.0
7184,62.0,168,780,11.0,0.0
7185,78.0,12,930,6.0,0.0
7186,66.0,12,450,6.0,0.0
7187,50.0,240,240,7.0,0.0
7188,54.0,60,240,7.0,0.0
7189,57.0,240,240,7.0,0.0
7190,62.0,240,240,7.0,0.0
7191,61.0,240,240,7.0,0.0
7192,62.0,204,240,7.0,0.0
7193,50.0,468,240,7.0,0.0
7194,78.0,36,180,6.0,0.0
7195,76.0,0,450,6.0,0.0
7196,81.0,12,930,6.0,0.0
7197,64.0,0,780,11.0,0.0
7198,57.0,0,780,12.0,0.0
7199,69.0,0,780,10.0,0.0
7200,69.0,12,450,6.0,0.0
7201,49.0,168,780,13.0,0.0
7202,37.0,0,780,14.0,0.0
7203,49.0,240,240,7.0,0.0
7204,52.0,60,240,7.0,0.0
7205,57.0,240,240,7.0,0.0
7206,61.0,240,240,7.0,0.0
7207,59.0,240,240,7.0,0.0
7208,61.0,204,240,7.0,0.0
7209,49.0,240,240,7.0,0.0
7210,76.0,36,180,6.0,0.0
7211,81.0,228,2880,1.0,0.0
7212,75.0,240,240,6.0,0.0
7213,59.0,228,480,7.0,0.0
7214,81.0,12,240,6.0,0.0
7215,78.0,240,240,6.0,0.0
7216,60.0,228,480,7.0,0.0
7217,76.0,12,240,6.0,0.0
7218,59.0,228,480,7.0,0.0
7219,75.0,240,240,6.0,0.0
7220,81.0,12,240,6.0,0.0
7221,78.0,240,240,6.0,0.0
7222,60.0,228,480,7.0,0.0
7223,76.0,12,240,6.0,0.0
7224,59.0,228,480,7.0,0.0
7225,75.0,240,240,6.0,0.0
7226,81.0,12,240,6.0,0.0
7227,60.0,0,480,7.0,0.0
7228,78.0,240,240,6.0,0.0
7229,76.0,12,240,6.0,0.0
7230,75.0,156,240,6.0,0.0
7231,59.0,228,480,7.0,0.0
7232,75.0,84,390,1.0,0.0
7233,84.0,12,240,6.0,0.0
7234,83.0,240,240,6.0,0.0
7235,81.0,240,240,6.0,0.0
7236,74.0,0,2880,1.0,0.0
7237,80.0,240,240,6.0,0.0
7238,86.0,228,2880,0.0,0.0
7239,74.0,0,3270,7.0,0.0
7240,64.0,228,480,7.0,0.0
7241,71.0,0,3270,7.0,0.0
7242,86.0,12,240,6.0,0.0
7243,83.0,240,240,6.0,0.0
7244,65.0,228,480,7.0,0.0
7245,81.0,12,240,6.0,0.0
7246,64.0,228,480,7.0,0.0
7247,80.0,240,240,6.0,0.0
7248,86.0,12,240,6.0,0.0
7249,65.0,228,480,7.0,0.0
7250,83.0,240,240,6.0,0.0
7251,81.0,12,240,6.0,0.0
7252,80.0,240,240,6.0,0.0
7253,64.0,228,480,7.0,0.0
7254,86.0,12,240,6.0,0.0
7255,65.0,0,480,7.0,0.0
7256,83.0,240,240,6.0,0.0
7257,81.0,12,240,6.0,0.0
7258,68.0,0,390,1.0,0.0
7259,64.0,228,480,7.0,0.0
7260,80.0,84,390,0.0,0.0
7261,80.0,156,240,6.0,0.0
7262,89.0,12,240,6.0,0.0
7263,88.0,240,240,6.0,0.0
7264,86.0,240,240,6.0,0.0
7265,85.0,240,240,6.0,0.0
7266,79.0,0,2880,1.0,0.0
7267,76.0,36,3060,7.0,0.0
7268,69.0,228,480,7.0,0.0
7269,79.0,0,3060,7.0,0.0
7270,91.0,0,2880,0.0,0.0
7271,86.0,12,240,6.0,0.0
7272,70.0,228,480,7.0,0.0
7273,88.0,240,240,6.0,0.0
7274,86.0,12,240,6.0,0.0
7275,69.0,228,480,7.0,0.0
7276,85.0,240,240,6.0,0.0
7277,86.0,12,240,6.0,0.0
7278,88.0,240,240,6.0,0.0
7279,70.0,228,480,7.0,0.0
7280,86.0,12,240,6.0,0.0
7281,85.0,240,240,6.0,0.0
7282,69.0,228,480,7.0,0.0
7283,86.0,12,240,6.0,0.0
7284,88.0,240,240,6.0,0.0
7285,70.0,192,480,7.0,0.0
7286,86.0,12,240,6.0,0.0
7287,85.0,84,390,0.0,0.0
7288,69.0,228,480,7.0,0.0
7289,73.0,0,390,1.0,0.0
7290,85.0,156,240,6.0,0.0
7291,83.0,12,240,6.0,0.0
7292,81.0,240,240,6.0,0.0
7293,79.0,204,240,6.0,0.0
7294,78.0,276,180,6.0,0.0
7295,78.0,0,720,10.0,0.0
7296,62.0,0,720,12.0,0.0
7297,62.0,192,720,7.0,0.0
7298,81.0,240,240,6.0,0.0
7299,78.0,12,240,6.0,0.0
7300,61.0,0,180,7.0,0.0
7301,76.0,36,180,10.0,0.0
7302,61.0,0,180,12.0,0.0
7303,76.0,240,240,6.0,0.0
7304,59.0,192,720,7.0,0.0
7305,74.0,240,240,6.0,0.0
7306,59.0,0,720,12.0,0.0
7307,74.0,0,720,10.0,0.0
7308,78.0,240,240,6.0,0.0
7309,74.0,12,240,6.0,0.0
7310,73.0,0,180,10.0,0.0
7311,57.0,0,180,12.0,0.0
7312,73.0,240,240,6.0,0.0
7313,57.0,36,180,7.0,0.0
7314,56.0,0,720,12.0,0.0
7315,56.0,0,720,7.0,0.0
7316,71.0,192,720,10.0,0.0
7317,71.0,240,240,6.0,0.0
7318,74.0,240,240,6.0,0.0
7319,71.0,12,240,6.0,0.0
7320,69.0,0,180,10.0,0.0
7321,54.0,0,180,12.0,0.0
7322,69.0,240,240,6.0,0.0
7323,54.0,36,180,7.0,0.0
7324,68.0,240,240,6.0,0.0
7325,52.0,192,720,7.0,0.0
7326,52.0,0,720,12.0,0.0
7327,68.0,0,720,10.0,0.0
7328,71.0,240,240,6.0,0.0
7329,68.0,12,240,6.0,0.0
7330,50.0,0,180,12.0,0.0
7331,66.0,0,180,10.0,0.0
7332,50.0,36,180,7.0,0.0
7333,66.0,240,240,6.0,0.0
7334,64.0,156,240,6.0,0.0
7335,49.0,192,720,7.0,0.0
7336,64.0,0,390,10.0,0.0
7337,61.0,0,720,13.0,0.0
7338,76.0,0,720,11.0,0.0
7339,49.0,84,390,12.0,0.0
7340,68.0,240,240,6.0,0.0
7341,64.0,12,240,6.0,0.0
7342,59.0,0,180,13.0,0.0
7343,47.0,36,180,7.0,0.0
7344,74.0,0,180,11.0,0.0
7345,62.0,240,240,6.0,0.0
7346,61.0,240,240,6.0,0.0
7347,73.0,0,720,11.0,0.0
7348,57.0,0,720,13.0,0.0
7349,45.0,192,720,7.0,0.0
7350,64.0,240,240,6.0,0.0
7351,61.0,12,240,6.0,0.0
7352,44.0,0,180,7.0,0.0
7353,56.0,36,180,13.0,0.0
7354,71.0,0,180,11.0,0.0
7355,59.0,240,240,6.0,0.0
7356,69.0,0,720,11.0,0.0
7357,57.0,240,240,6.0,0.0
7358,42.0,0,720,7.0,0.0
7359,54.0,192,720,13.0,0.0
7360,61.0,240,240,6.0,0.0
7361,57.0,12,240,6.0,0.0
7362,52.0,0,180,13.0,0.0
7363,68.0,36,180,11.0,0.0
7364,56.0,240,240,6.0,0.0
7365,40.0,0,180,7.0,0.0
7366,54.0,240,240,6.0,0.0
7367,38.0,0,720,7.0,0.0
7368,66.0,0,720,11.0,0.0
7369,50.0,192,720,13.0,0.0
7370,57.0,240,240,6.0,0.0
7371,54.0,12,240,6.0,0.0
7372,64.0,36,180,11.0,0.0
7373,49.0,0,180,13.0,0.0
7374,37.0,0,180,7.0,0.0
7375,52.0,240,240,6.0,0.0
7376,59.0,0,1920,12.0,0.0
7377,35.0,0,1920,7.0,0.0
7378,35.0,228,1920,14.0,0.0
7379,80.0,0,1920,10.0,0.0
7380,50.0,240,240,6.0,0.0
7381,47.0,0,1920,13.0,0.0
7382,62.0,0,1920,11.0,0.0
7383,52.0,240,240,6.0,0.0
7384,54.0,240,240,6.0,0.0
7385,56.0,240,240,6.0,0.0
7386,57.0,240,240,6.0,0.0
7387,59.0,240,240,6.0,0.0
7388,61.0,240,240,6.0,0.0
7389,62.0,12,240,6.0,0.0
7390,81.0,228,1920,10.0,0.0
7391,64.0,240,240,6.0,0.0
7392,61.0,0,1920,12.0,0.0
7393,37.0,0,1920,7.0,0.0
7394,64.0,0,1920,11.0,0.0
7395,66.0,240,240,6.0,0.0
7396,68.0,240,240,6.0,0.0
7397,69.0,240,240,6.0,0.0
7398,71.0,240,240,6.0,0.0
7399,73.0,240,240,6.0,0.0
7400,74.0,240,240,6.0,0.0
7401,76.0,12,240,6.0,0.0
7402,38.0,26,3810,14.0,0.0
7403,69.0,156,4140,11.0,0.0
7404,66.0,0,3810,12.0,0.0
7405,50.0,0,3810,13.0,0.0
7406,38.0,180,780,7.0,0.0
7407,78.0,240,240,6.0,0.0
7408,71.0,0,3810,10.0,0.0
7409,80.0,240,240,6.0,0.0
7410,81.0,60,240,6.0,0.0
7411,80.0,240,240,6.0,0.0
7412,78.0,240,240,6.0,0.0
7413,76.0,240,240,6.0,0.0
7414,74.0,240,240,6.0,0.0
7415,73.0,240,240,6.0,0.0
7416,71.0,240,240,6.0,0.0
7417,73.0,240,240,6.0,0.0
7418,74.0,240,240,6.0,0.0
7419,73.0,240,240,6.0,0.0
7420,71.0,240,240,6.0,0.0
7421,69.0,240,240,6.0,0.0
7422,68.0,214,240,6.0,0.0
7423,66.0,240,240,6.0,0.0
7424,64.0,0,300,12.0,0.0
7425,64.0,84,240,6.0,0.0
7426,40.0,0,780,14.0,0.0
7427,52.0,0,780,13.0,0.0
7428,40.0,24,780,7.0,0.0
7429,73.0,0,300,10.0,0.0
7430,69.0,240,240,6.0,0.0
7431,73.0,60,240,6.0,0.0
7432,69.0,0,300,11.0,0.0
7433,73.0,156,300,10.0,0.0
7434,64.0,0,300,12.0,0.0
7435,76.0,240,240,6.0,0.0
7436,64.0,0,300,12.0,0.0
7437,73.0,0,300,10.0,0.0
7438,69.0,84,240,6.0,0.0
7439,69.0,156,300,11.0,0.0
7440,73.0,240,240,6.0,0.0
7441,64.0,0,300,12.0,0.0
7442,76.0,84,240,6.0,0.0
7443,69.0,0,300,11.0,0.0
7444,73.0,156,300,10.0,0.0
7445,81.0,132,240,6.0,0.0
7446,52.0,24,780,13.0,0.0
7447,73.0,120,120,6.0,0.0
7448,64.0,48,300,12.0,0.0
7449,62.0,0,300,12.0,0.0
7450,40.0,0,780,14.0,0.0
7451,52.0,72,240,7.0,0.0
7452,71.0,0,300,10.0,0.0
7453,68.0,0,300,11.0,0.0
7454,71.0,0,120,6.0,0.0
7455,62.0,0,240,7.0,0.0
7456,73.0,120,120,6.0,0.0
7457,71.0,120,120,6.0,0.0
7458,64.0,0,300,12.0,0.0
7459,68.0,0,300,11.0,0.0
7460,56.0,0,240,7.0,0.0
7461,71.0,48,300,10.0,0.0
7462,73.0,120,120,6.0,0.0
7463,62.0,0,300,12.0,0.0
7464,71.0,48,120,6.0,0.0
7465,62.0,120,240,7.0,0.0
7466,73.0,120,120,6.0,0.0
7467,71.0,0,120,6.0,0.0
7468,64.0,48,300,12.0,0.0
7469,52.0,0,240,7.0,0.0
7470,71.0,0,300,10.0,0.0
7471,73.0,120,120,6.0,0.0
7472,62.0,0,300,12.0,0.0
7473,68.0,0,300,11.0,0.0
7474,71.0,72,120,6.0,0.0
7475,62.0,120,240,7.0,0.0
7476,73.0,120,120,6.0,0.0
7477,71.0,0,120,6.0,0.0
7478,73.0,120,120,6.0,0.0
7479,56.0,0,240,7.0,0.0
7480,71.0,48,300,10.0,0.0
7481,68.0,0,300,11.0,0.0
7482,62.0,0,300,12.0,0.0
7483,64.0,0,300,12.0,0.0
7484,71.0,72,120,6.0,0.0
7485,69.0,120,120,6.0,0.0
7486,62.0,432,240,7.0,0.0
7487,71.0,0,120,6.0,0.0
7488,45.0,0,780,14.0,0.0
7489,69.0,0,780,10.0,0.0
7490,64.0,0,780,12.0,0.0
7491,57.0,144,780,13.0,0.0
7492,61.0,0,780,12.0,0.0
7493,61.0,0,780,7.0,0.0
7494,57.0,0,780,7.0,0.0
7495,69.0,0,780,11.0,0.0
7496,64.0,240,180,6.0,0.0
7497,69.0,96,180,6.0,0.0
7498,73.0,240,180,6.0,0.0
7499,69.0,0,780,4.0,0.0
7500,81.0,0,780,1.0,0.0
7501,73.0,144,780,4.0,0.0
7502,85.0,0,780,0.0,0.0
7503,76.0,240,180,6.0,0.0
7504,64.0,0,780,3.0,0.0
7505,76.0,0,780,1.0,0.0
7506,57.0,0,780,3.0,0.0
7507,81.0,240,180,6.0,0.0
7508,85.0,96,180,6.0,0.0
7509,45.0,480,180,7.0,0.0
7510,57.0,0,180,7.0,0.0
7511,88.0,0,180,6.0,0.0
7512,64.0,0,780,12.0,0.0
7513,56.0,0,780,13.0,0.0
7514,71.0,0,780,11.0,0.0
7515,76.0,0,780,10.0,0.0
7516,44.0,144,780,14.0,0.0
7517,56.0,0,780,7.0,0.0
7518,44.0,0,780,7.0,0.0
7519,88.0,240,180,6.0,0.0
7520,83.0,96,180,6.0,0.0
7521,80.0,240,180,6.0,0.0
7522,71.0,0,780,4.0,0.0
7523,64.0,144,780,4.0,0.0
7524,88.0,0,780,0.0,0.0
7525,76.0,0,780,1.0,0.0
7526,83.0,0,780,1.0,0.0
7527,56.0,0,780,3.0,0.0
7528,59.0,0,780,3.0,0.0
7529,76.0,240,180,6.0,0.0
7530,71.0,240,180,6.0,0.0
7531,68.0,96,180,6.0,0.0
7532,44.0,480,180,7.0,0.0
7533,56.0,0,180,7.0,0.0
7534,64.0,0,180,6.0,0.0
7535,61.0,0,780,12.0,0.0
7536,54.0,0,780,7.0,0.0
7537,69.0,0,780,10.0,0.0
7538,66.0,0,780,11.0,0.0
7539,54.0,144,780,13.0,0.0
7540,42.0,0,780,14.0,0.0
7541,42.0,0,780,7.0,0.0
7542,61.0,240,180,6.0,0.0
7543,66.0,96,180,6.0,0.0
7544,69.0,240,180,6.0,0.0
7545,78.0,0,780,1.0,0.0
7546,73.0,0,780,1.0,0.0
7547,61.0,0,780,4.0,0.0
7548,81.0,0,780,0.0,0.0
7549,54.0,144,780,3.0,0.0
7550,66.0,0,780,3.0,0.0
7551,69.0,0,780,4.0,0.0
7552,73.0,240,180,6.0,0.0
7553,78.0,240,180,6.0,0.0
7554,81.0,96,180,6.0,0.0
7555,54.0,480,180,7.0,0.0
7556,42.0,0,180,7.0,0.0
7557,85.0,0,180,6.0,0.0
7558,40.0,0,780,7.0,0.0
7559,52.0,0,780,7.0,0.0
7560,68.0,144,780,11.0,0.0
7561,52.0,0,780,13.0,0.0
7562,40.0,0,780,14.0,0.0
7563,73.0,0,780,10.0,0.0
7564,61.0,0,780,12.0,0.0
7565,85.0,240,180,6.0,0.0
7566,80.0,96,180,6.0,0.0
7567,76.0,240,180,6.0,0.0
7568,64.0,0,780,4.0,0.0
7569,76.0,0,780,1.0,0.0
7570,73.0,240,180,6.0,0.0
7571,68.0,144,780,3.0,0.0
7572,52.0,0,780,3.0,0.0
7573,73.0,0,780,4.0,0.0
7574,85.0,0,780,0.0,0.0
7575,80.0,0,780,1.0,0.0
7576,68.0,240,180,6.0,0.0
7577,64.0,96,180,6.0,0.0
7578,61.0,480,180,6.0,0.0
7579,40.0,0,180,7.0,0.0
7580,52.0,0,180,7.0,0.0
7581,38.0,0,780,14.0,0.0
7582,50.0,0,780,13.0,0.0
7583,66.0,0,780,10.0,0.0
7584,62.0,0,780,11.0,0.0
7585,38.0,144,780,7.0,0.0
7586,57.0,0,780,12.0,0.0
7587,50.0,0,780,7.0,0.0
7588,57.0,240,180,6.0,0.0
7589,62.0,96,180,6.0,0.0
7590,66.0,240,180,6.0,0.0
7591,69.0,0,780,4.0,0.0
7592,66.0,0,780,1.0,0.0
7593,74.0,144,780,1.0,0.0
7594,78.0,0,780,0.0,0.0
7595,69.0,240,180,6.0,0.0
7596,62.0,0,780,3.0,0.0
7597,50.0,0,780,3.0,0.0
7598,57.0,0,780,4.0,0.0
7599,74.0,240,180,6.0,0.0
7600,78.0,96,180,6.0,0.0
7601,81.0,480,180,6.0,0.0
7602,50.0,0,180,7.0,0.0
7603,38.0,0,180,7.0,0.0
7604,37.0,0,780,7.0,0.0
7605,49.0,144,780,7.0,0.0
7606,57.0,0,780,12.0,0.0
7607,37.0,0,780,14.0,0.0
7608,49.0,0,780,13.0,0.0
7609,64.0,0,780,11.0,0.0
7610,69.0,0,780,10.0,0.0
7611,81.0,240,180,6.0,0.0
7612,76.0,96,180,6.0,0.0
7613,73.0,240,180,6.0,0.0
7614,69.0,240,180,6.0,0.0
7615,81.0,0,780,0.0,0.0
7616,69.0,0,780,4.0,0.0
7617,49.0,0,780,3.0,0.0
7618,57.0,0,780,4.0,0.0
7619,73.0,0,780,1.0,0.0
7620,64.0,0,780,3.0,0.0
7621,76.0,144,780,1.0,0.0
7622,64.0,240,180,6.0,0.0
7623,61.0,96,180,6.0,0.0
7624,57.0,284,180,6.0,0.0
7625,47.0,0,480,13.0,0.0
7626,54.0,72,3300,12.0,0.0
7627,47.0,148,240,7.0,0.0
7628,63.0,0,480,11.0,0.0
7629,63.0,92,390,6.0,0.0
7630,75.0,120,480,10.0,0.0
7631,69.0,80,2640,1.0,0.0
7632,35.0,0,480,14.0,0.0
7633,81.0,0,2640,0.0,0.0
7634,57.0,0,2640,3.0,0.0
7635,57.0,4,240,7.0,0.0
7636,48.0,172,240,7.0,0.0
7637,36.0,236,480,14.0,0.0
7638,66.0,116,120,6.0,0.0
7639,48.0,0,480,13.0,0.0
7640,64.0,0,480,11.0,0.0
7641,76.0,0,480,10.0,0.0
7642,64.0,68,300,6.0,0.0
7643,57.0,4,240,7.0,0.0
7644,63.0,120,480,11.0,0.0
7645,75.0,0,480,10.0,0.0
7646,63.0,92,390,6.0,0.0
7647,47.0,148,240,7.0,0.0
7648,47.0,0,480,13.0,0.0
7649,35.0,0,480,14.0,0.0
7650,57.0,4,240,7.0,0.0
7651,76.0,0,480,10.0,0.0
7652,36.0,0,480,14.0,0.0
7653,48.0,236,480,13.0,0.0
7654,66.0,116,120,6.0,0.0
7655,48.0,172,240,7.0,0.0
7656,64.0,0,480,11.0,0.0
7657,64.0,68,300,6.0,0.0
7658,57.0,4,240,7.0,0.0
7659,63.0,0,480,11.0,0.0
7660,47.0,148,240,7.0,0.0
7661,63.0,92,390,6.0,0.0
7662,47.0,0,480,13.0,0.0
7663,75.0,0,480,10.0,0.0
7664,35.0,120,480,14.0,0.0
7665,57.0,4,240,7.0,0.0
7666,76.0,0,480,10.0,0.0
7667,48.0,4,240,7.0,0.0
7668,36.0,384,480,14.0,0.0
7669,48.0,0,480,13.0,0.0
7670,64.0,0,480,11.0,0.0
7671,66.0,116,120,6.0,0.0
7672,64.0,68,300,6.0,0.0
7673,79.0,80,90,0.0,0.0
7674,55.0,0,90,3.0,0.0
7675,67.0,0,90,1.0,0.0
7676,57.0,4,240,7.0,0.0
7677,66.0,0,90,1.0,0.0
7678,54.0,8,90,3.0,0.0
7679,78.0,0,90,0.0,0.0
7680,76.0,0,90,0.0,0.0
7681,64.0,0,90,1.0,0.0
7682,52.0,0,90,3.0,0.0
7683,47.0,0,480,13.0,0.0
7684,47.0,24,390,7.0,0.0
7685,63.0,384,480,1.0,0.0
7686,51.0,0,480,3.0,0.0
7687,75.0,0,480,10.0,0.0
7688,75.0,0,480,0.0,0.0
7689,63.0,0,480,11.0,0.0
7690,63.0,0,480,6.0,0.0
7691,35.0,0,480,14.0,0.0
7692,69.0,332,390,6.0,0.0
7693,68.0,92,390,6.0,0.0
7694,62.0,0,2640,3.0,0.0
7695,52.0,120,480,13.0,0.0
7696,52.0,148,240,7.0,0.0
7697,68.0,0,480,11.0,0.0
7698,86.0,0,2640,0.0,0.0
7699,40.0,0,480,14.0,0.0
7700,74.0,80,2640,1.0,0.0
7701,80.0,0,480,10.0,0.0
7702,59.0,72,3300,12.0,0.0
7703,62.0,4,240,7.0,0.0
7704,41.0,0,480,14.0,0.0
7705,69.0,236,480,11.0,0.0
7706,53.0,0,480,13.0,0.0
7707,53.0,172,240,7.0,0.0
7708,81.0,0,480,10.0,0.0
7709,71.0,116,120,6.0,0.0
7710,69.0,68,300,6.0,0.0
7711,62.0,4,240,7.0,0.0
7712,68.0,0,480,11.0,0.0
7713,80.0,0,480,10.0,0.0
7714,68.0,92,390,6.0,0.0
7715,52.0,148,240,7.0,0.0
7716,52.0,0,480,13.0,0.0
7717,40.0,120,480,14.0,0.0
7718,62.0,4,240,7.0,0.0
7719,53.0,0,480,13.0,0.0
7720,71.0,116,120,6.0,0.0
7721,69.0,236,480,11.0,0.0
7722,41.0,0,480,14.0,0.0
7723,53.0,172,240,7.0,0.0
7724,81.0,0,480,10.0,0.0
7725,69.0,68,300,6.0,0.0
7726,62.0,4,240,7.0,0.0
7727,52.0,148,240,7.0,0.0
7728,68.0,92,390,6.0,0.0
7729,68.0,120,480,11.0,0.0
7730,80.0,0,480,10.0,0.0
7731,40.0,0,480,14.0,0.0
7732,52.0,0,480,13.0,0.0
7733,62.0,4,240,7.0,0.0
7734,81.0,0,480,10.0,0.0
7735,71.0,116,120,6.0,0.0
7736,53.0,0,480,13.0,0.0
7737,53.0,4,240,7.0,0.0
7738,41.0,0,480,14.0,0.0
7739,69.0,0,480,11.0,0.0
7740,69.0,68,300,6.0,0.0
7741,62.0,4,240,7.0,0.0
7742,84.0,0,90,0.0,0.0
7743,72.0,0,90,1.0,0.0
7744,60.0,80,90,3.0,0.0
7745,83.0,0,90,0.0,0.0
7746,59.0,8,90,3.0,0.0
7747,71.0,0,90,1.0,0.0
7748,69.0,0,90,1.0,0.0
7749,81.0,384,90,0.0,0.0
7750,57.0,0,90,3.0,0.0
7751,56.0,0,480,3.0,0.0
7752,68.0,384,480,1.0,0.0
7753,52.0,0,480,13.0,0.0
7754,68.0,0,480,6.0,0.0
7755,68.0,0,480,11.0,0.0
7756,52.0,24,390,7.0,0.0
7757,40.0,0,480,14.0,0.0
7758,80.0,0,480,10.0,0.0
7759,80.0,0,480,0.0,0.0
7760,74.0,336,390,6.0,0.0
7761,57.0,144,240,7.0,0.0
7762,57.0,0,480,13.0,0.0
7763,64.0,72,3300,12.0,0.0
7764,91.0,0,2640,0.0,0.0
7765,79.0,0,2640,1.0,0.0
7766,85.0,0,480,10.0,0.0
7767,73.0,0,480,11.0,0.0
7768,67.0,0,2640,3.0,0.0
7769,73.0,96,390,6.0,0.0
7770,45.0,0,480,14.0,0.0
7771,67.0,120,240,7.0,0.0
7772,76.0,120,120,6.0,0.0
7773,74.0,0,480,11.0,0.0
7774,58.0,0,480,13.0,0.0
7775,58.0,168,240,7.0,0.0
7776,46.0,0,480,14.0,0.0
7777,86.0,0,480,10.0,0.0
7778,74.0,72,300,6.0,0.0
7779,67.0,240,240,7.0,0.0
7780,73.0,0,480,11.0,0.0
7781,85.0,120,480,10.0,0.0
7782,45.0,0,480,14.0,0.0
7783,57.0,0,480,13.0,0.0
7784,57.0,144,240,7.0,0.0
7785,73.0,96,390,6.0,0.0
7786,67.0,0,240,7.0,0.0
7787,46.0,0,480,14.0,0.0
7788,74.0,0,480,11.0,0.0
7789,58.0,168,240,7.0,0.0
7790,58.0,240,480,13.0,0.0
7791,76.0,120,120,6.0,0.0
7792,86.0,0,480,10.0,0.0
7793,74.0,72,300,6.0,0.0
7794,67.0,0,240,7.0,0.0
7795,73.0,0,480,11.0,0.0
7796,45.0,0,480,14.0,0.0
7797,57.0,144,240,7.0,0.0
7798,73.0,96,390,6.0,0.0
7799,57.0,120,480,13.0,0.0
7800,85.0,0,480,10.0,0.0
7801,67.0,0,240,7.0,0.0
7802,74.0,0,480,11.0,0.0
7803,46.0,0,480,14.0,0.0
7804,58.0,80,240,7.0,0.0
7805,86.0,0,480,10.0,0.0
7806,76.0,120,120,6.0,0.0
7807,58.0,384,480,13.0,0.0
7808,74.0,72,300,6.0,0.0
7809,89.0,80,90,0.0,0.0
7810,65.0,0,90,3.0,0.0
7811,77.0,0,90,1.0,0.0
7812,67.0,0,240,7.0,0.0
7813,76.0,0,90,1.0,0.0
7814,64.0,0,90,3.0,0.0
7815,88.0,8,90,0.0,0.0
7816,62.0,0,90,3.0,0.0
7817,74.0,0,90,1.0,0.0
7818,86.0,0,90,0.0,0.0
7819,45.0,0,480,14.0,0.0
7820,73.0,0,480,1.0,0.0
7821,73.0,0,480,6.0,0.0
7822,57.0,24,390,7.0,0.0
7823,73.0,0,480,11.0,0.0
7824,85.0,0,480,0.0,0.0
7825,61.0,384,480,3.0,0.0
7826,57.0,0,480,13.0,0.0
7827,85.0,0,480,10.0,0.0
7828,79.0,324,390,6.0,0.0
7829,62.0,36,240,7.0,0.0
7830,78.0,228,480,6.0,0.0
7831,62.0,0,270,12.0,0.0
7832,78.0,204,270,10.0,0.0
7833,74.0,12,240,7.0,0.0
7834,76.0,120,270,10.0,0.0
7835,61.0,0,270,12.0,0.0
7836,81.0,84,390,6.0,0.0
7837,61.0,36,240,7.0,0.0
7838,73.0,240,240,7.0,0.0
7839,59.0,36,240,7.0,0.0
7840,74.0,228,480,6.0,0.0
7841,59.0,204,270,12.0,0.0
7842,74.0,0,270,10.0,0.0
7843,71.0,12,240,7.0,0.0
7844,57.0,0,270,12.0,0.0
7845,57.0,36,240,7.0,0.0
7846,73.0,120,270,10.0,0.0
7847,78.0,84,390,6.0,0.0
7848,69.0,240,240,7.0,0.0
7849,71.0,0,270,10.0,0.0
7850,56.0,36,240,7.0,0.0
7851,71.0,228,480,6.0,0.0
7852,56.0,204,270,12.0,0.0
7853,68.0,12,240,7.0,0.0
7854,74.0,84,390,6.0,0.0
7855,54.0,120,270,12.0,0.0
7856,54.0,36,240,7.0,0.0
7857,69.0,0,270,10.0,0.0
7858,66.0,240,240,7.0,0.0
7859,68.0,204,270,10.0,0.0
7860,52.0,36,240,7.0,0.0
7861,68.0,228,480,6.0,0.0
7862,52.0,0,270,12.0,0.0
7863,64.0,12,240,7.0,0.0
7864,50.0,0,270,12.0,0.0
7865,66.0,120,270,10.0,0.0
7866,71.0,84,390,6.0,0.0
7867,50.0,36,240,7.0,0.0
7868,62.0,240,240,7.0,0.0
7869,64.0,0,240,6.0,0.0
7870,49.0,36,240,7.0,0.0
7871,76.0,204,270,11.0,0.0
7872,64.0,0,270,10.0,0.0
7873,49.0,0,270,12.0,0.0
7874,61.0,0,270,13.0,0.0
7875,76.0,240,240,6.0,0.0
7876,61.0,0,240,7.0,0.0
7877,47.0,0,240,7.0,0.0
7878,59.0,204,270,13.0,0.0
7879,74.0,0,270,11.0,0.0
7880,68.0,36,240,6.0,0.0
7881,80.0,0,240,6.0,0.0
7882,59.0,240,240,7.0,0.0
7883,73.0,204,270,11.0,0.0
7884,57.0,0,270,13.0,0.0
7885,61.0,36,240,6.0,0.0
7886,45.0,0,240,7.0,0.0
7887,73.0,0,240,6.0,0.0
7888,57.0,240,240,7.0,0.0
7889,44.0,0,240,7.0,0.0
7890,71.0,204,270,11.0,0.0
7891,64.0,36,240,6.0,0.0
7892,56.0,0,270,13.0,0.0
7893,56.0,240,240,7.0,0.0
7894,76.0,0,240,6.0,0.0
7895,57.0,36,240,6.0,0.0
7896,54.0,0,270,13.0,0.0
7897,42.0,0,240,7.0,0.0
7898,69.0,204,270,11.0,0.0
7899,69.0,240,240,6.0,0.0
7900,54.0,0,240,7.0,0.0
7901,68.0,204,270,11.0,0.0
7902,40.0,36,240,7.0,0.0
7903,52.0,0,270,13.0,0.0
7904,61.0,0,240,6.0,0.0
7905,73.0,240,240,6.0,0.0
7906,52.0,0,240,7.0,0.0
7907,38.0,36,240,7.0,0.0
7908,54.0,0,240,6.0,0.0
7909,66.0,204,270,11.0,0.0
7910,50.0,0,270,13.0,0.0
7911,50.0,0,240,7.0,0.0
7912,66.0,240,240,6.0,0.0
7913,37.0,36,240,7.0,0.0
7914,57.0,0,240,6.0,0.0
7915,64.0,0,270,11.0,0.0
7916,49.0,204,270,13.0,0.0
7917,69.0,0,240,6.0,0.0
7918,49.0,488,240,7.0,0.0
7919,47.0,0,1920,8.0,0.0
7920,47.0,0,1920,3.0,0.0
7921,62.0,0,1920,3.0,0.0
7922,65.0,0,1920,1.0,0.0
7923,68.0,0,1920,1.0,0.0
7924,86.0,476,1920,0.0,0.0
7925,35.0,0,1920,8.0,0.0
7926,50.0,240,240,7.0,0.0
7927,56.0,240,240,7.0,0.0
7928,59.0,240,240,7.0,0.0
7929,62.0,240,240,7.0,0.0
7930,68.0,240,240,7.0,0.0
7931,71.0,240,240,7.0,0.0
7932,74.0,4,240,7.0,0.0
7933,49.0,0,1920,3.0,0.0
7934,64.0,0,1920,3.0,0.0
7935,49.0,0,1920,8.0,0.0
7936,37.0,0,1920,8.0,0.0
7937,85.0,0,1920,0.0,0.0
7938,70.0,476,1920,1.0,0.0
7939,67.0,0,1920,1.0,0.0
7940,52.0,240,240,7.0,0.0
7941,58.0,240,240,7.0,0.0
7942,61.0,240,240,7.0,0.0
7943,64.0,240,240,7.0,0.0
7944,70.0,240,240,7.0,0.0
7945,73.0,240,240,7.0,0.0
7946,76.0,4,240,7.0,0.0
7947,38.0,0,1920,8.0,0.0
7948,50.0,476,1920,8.0,0.0
7949,62.0,0,1920,3.0,0.0
7950,83.0,0,1920,0.0,0.0
7951,66.0,0,1920,1.0,0.0
7952,71.0,0,1920,1.0,0.0
7953,50.0,0,1920,3.0,0.0
7954,54.0,240,240,7.0,0.0
7955,59.0,240,240,7.0,0.0
7956,62.0,240,240,7.0,0.0
7957,66.0,240,240,7.0,0.0
7958,71.0,240,240,7.0,0.0
7959,74.0,240,240,7.0,0.0
7960,78.0,4,240,7.0,0.0
7961,84.0,476,1920,0.0,0.0
7962,51.0,0,1920,3.0,0.0
7963,66.0,0,1920,3.0,0.0
7964,69.0,236,2400,1.0,0.0
7965,72.0,0,1920,1.0,0.0
7966,39.0,0,1920,8.0,0.0
7967,51.0,0,1920,8.0,0.0
7968,57.0,240,240,7.0,0.0
7969,60.0,240,240,7.0,0.0
7970,66.0,240,240,7.0,0.0
7971,66.0,240,240,7.0,0.0
7972,72.0,240,240,7.0,0.0
7973,78.0,240,240,7.0,0.0
7974,81.0,4,240,7.0,0.0
7975,40.0,0,780,8.0,0.0
7976,73.0,0,480,1.0,0.0
7977,64.0,0,480,3.0,0.0
7978,52.0,0,480,3.0,0.0
7979,52.0,188,780,8.0,0.0
7980,85.0,0,480,0.0,0.0
7981,52.0,34,11490,4.0,0.0
7982,64.0,0,11490,4.0,0.0
7983,64.0,4,240,6.0,0.0
7984,63.0,52,240,6.0,0.0
7985,64.0,240,240,6.0,0.0
7986,66.0,240,240,6.0,0.0
7987,64.0,240,240,6.0,0.0
7988,62.0,92,390,7.0,0.0
7989,68.0,148,240,6.0,0.0
7990,64.0,240,240,6.0,0.0
7991,61.0,92,390,7.0,0.0
7992,69.0,148,240,6.0,0.0
7993,64.0,240,240,6.0,0.0
7994,71.0,148,240,6.0,0.0
7995,56.0,92,390,7.0,0.0
7996,64.0,240,240,6.0,0.0
7997,73.0,148,240,6.0,0.0
7998,57.0,92,390,7.0,0.0
7999,64.0,240,240,6.0,0.0
8000,74.0,148,240,6.0,0.0
8001,59.0,92,390,7.0,0.0
8002,64.0,240,240,6.0,0.0
8003,76.0,92,390,6.0,0.0
8004,61.0,148,240,7.0,0.0
8005,64.0,240,240,7.0,0.0
8006,77.0,92,390,6.0,0.0
8007,61.0,148,240,7.0,0.0
8008,64.0,240,240,7.0,0.0
8009,78.0,92,390,6.0,0.0
8010,62.0,148,240,7.0,0.0
8011,64.0,240,240,7.0,0.0
8012,59.0,148,240,7.0,0.0
8013,80.0,92,390,6.0,0.0
8014,64.0,240,240,7.0,0.0
8015,81.0,92,390,6.0,0.0
8016,61.0,148,240,7.0,0.0
8017,64.0,240,240,7.0,0.0
8018,83.0,92,390,6.0,0.0
8019,56.0,148,240,7.0,0.0
8020,64.0,240,240,7.0,0.0
8021,57.0,148,240,7.0,0.0
8022,85.0,92,390,6.0,0.0
8023,64.0,240,240,7.0,0.0
8024,86.0,92,390,6.0,0.0
8025,59.0,148,240,7.0,0.0
8026,64.0,240,240,7.0,0.0
8027,61.0,92,390,7.0,0.0
8028,88.0,148,240,6.0,0.0
8029,85.0,240,240,6.0,0.0
8030,81.0,240,240,6.0,0.0
8031,76.0,240,240,6.0,0.0
8032,81.0,240,240,6.0,0.0
8033,76.0,240,240,6.0,0.0
8034,73.0,240,240,6.0,0.0
8035,69.0,124,240,6.0,0.0
8036,73.0,116,120,6.0,0.0
8037,52.0,4,240,7.0,0.0
8038,71.0,120,120,6.0,0.0
8039,62.0,4,240,7.0,0.0
8040,73.0,116,120,6.0,0.0
8041,71.0,120,120,6.0,0.0
8042,56.0,4,240,7.0,0.0
8043,73.0,116,120,6.0,0.0
8044,71.0,120,120,6.0,0.0
8045,62.0,4,240,7.0,0.0
8046,73.0,116,120,6.0,0.0
8047,71.0,120,120,6.0,0.0
8048,52.0,4,240,7.0,0.0
8049,73.0,116,120,6.0,0.0
8050,71.0,120,120,6.0,0.0
8051,73.0,116,120,6.0,0.0
8052,62.0,4,240,7.0,0.0
8053,71.0,120,120,6.0,0.0
8054,73.0,116,120,6.0,0.0
8055,56.0,4,240,7.0,0.0
8056,71.0,120,120,6.0,0.0
8057,69.0,82,120,6.0,0.0
8058,62.0,4,240,7.0,0.0
8059,71.0,236,120,6.0,0.0
8060,45.0,148,240,7.0,0.0
8061,69.0,92,390,6.0,0.0
8062,57.0,0,23430,4.0,0.0
8063,57.0,240,240,7.0,0.0
8064,49.0,240,240,7.0,0.0
8065,57.0,240,240,7.0,0.0
8066,52.0,240,240,7.0,0.0
8067,57.0,240,240,7.0,0.0
8068,49.0,240,240,7.0,0.0
8069,57.0,240,240,7.0,0.0
8070,74.0,0,390,5.0,0.0
8071,64.0,0,390,5.0,0.0
8072,45.0,148,240,7.0,0.0
8073,64.0,24,1410,6.0,0.0
8074,71.0,0,390,5.0,0.0
8075,62.0,92,390,5.0,0.0
8076,68.0,0,390,15.0,0.0
8077,57.0,240,240,7.0,0.0
8078,47.0,240,240,7.0,0.0
8079,57.0,240,240,7.0,0.0
8080,50.0,216,240,7.0,0.0
8081,57.0,160,240,7.0,0.0
8082,47.0,160,240,7.0,0.0
8083,66.0,80,150,6.0,0.0
8084,57.0,240,240,7.0,0.0
8085,68.0,80,150,6.0,0.0
8086,69.0,0,390,5.0,0.0
8087,61.0,92,390,5.0,0.0
8088,73.0,0,390,5.0,0.0
8089,45.0,76,240,7.0,0.0
8090,69.0,72,300,6.0,0.0
8091,69.0,0,390,15.0,0.0
8092,64.0,0,390,5.0,0.0
8093,57.0,240,240,7.0,0.0
8094,49.0,76,240,7.0,0.0
8095,69.0,164,300,6.0,0.0
8096,57.0,160,240,7.0,0.0
8097,69.0,80,150,6.0,0.0
8098,52.0,160,240,7.0,0.0
8099,71.0,80,150,6.0,0.0
8100,57.0,160,240,7.0,0.0
8101,49.0,160,240,7.0,0.0
8102,73.0,80,150,6.0,0.0
8103,57.0,240,240,7.0,0.0
8104,74.0,80,150,6.0,0.0
8105,68.0,0,390,5.0,0.0
8106,71.0,0,390,5.0,0.0
8107,62.0,0,390,5.0,0.0
8108,45.0,76,240,7.0,0.0
8109,76.0,72,300,6.0,0.0
8110,59.0,0,390,5.0,0.0
8111,64.0,92,390,15.0,0.0
8112,57.0,240,240,7.0,0.0
8113,76.0,164,300,6.0,0.0
8114,47.0,76,240,7.0,0.0
8115,57.0,240,240,7.0,0.0
8116,50.0,76,240,7.0,0.0
8117,76.0,164,300,6.0,0.0
8118,57.0,160,240,7.0,0.0
8119,47.0,160,240,7.0,0.0
8120,78.0,80,150,6.0,0.0
8121,80.0,80,150,6.0,0.0
8122,57.0,240,240,7.0,0.0
8123,69.0,0,390,5.0,0.0
8124,61.0,0,390,5.0,0.0
8125,81.0,72,300,6.0,0.0
8126,57.0,0,390,5.0,0.0
8127,64.0,0,390,5.0,0.0
8128,45.0,76,240,7.0,0.0
8129,52.0,92,390,15.0,0.0
8130,57.0,240,240,7.0,0.0
8131,49.0,76,240,7.0,0.0
8132,81.0,164,300,6.0,0.0
8133,57.0,240,240,7.0,0.0
8134,52.0,76,240,7.0,0.0
8135,81.0,164,300,6.0,0.0
8136,57.0,160,240,7.0,0.0
8137,80.0,80,150,6.0,0.0
8138,49.0,160,240,7.0,0.0
8139,78.0,80,150,6.0,0.0
8140,57.0,240,240,7.0,0.0
8141,59.0,0,390,15.0,0.0
8142,45.0,76,240,7.0,0.0
8143,74.0,92,390,5.0,0.0
8144,76.0,72,300,6.0,0.0
8145,59.0,0,390,5.0,0.0
8146,64.0,0,390,5.0,0.0
8147,71.0,0,390,5.0,0.0
8148,80.0,0,390,5.0,0.0
8149,52.0,0,390,15.0,0.0
8150,68.0,0,390,15.0,0.0
8151,57.0,240,240,7.0,0.0
8152,47.0,76,240,7.0,0.0
8153,76.0,164,300,6.0,0.0
8154,57.0,160,240,7.0,0.0
8155,50.0,160,240,7.0,0.0
8156,76.0,80,150,6.0,0.0
8157,74.0,80,150,6.0,0.0
8158,57.0,160,240,7.0,0.0
8159,73.0,80,150,6.0,0.0
8160,47.0,160,240,7.0,0.0
8161,71.0,80,150,6.0,0.0
8162,57.0,240,240,7.0,0.0
8163,45.0,0,11910,13.0,0.0
8164,33.0,0,11910,14.0,0.0
8165,73.0,92,390,5.0,0.0
8166,61.0,0,390,15.0,0.0
8167,69.0,0,390,15.0,0.0
8168,57.0,0,390,5.0,0.0
8169,52.0,0,390,15.0,0.0
8170,64.0,0,390,5.0,0.0
8171,45.0,76,240,7.0,0.0
8172,69.0,72,300,6.0,0.0
8173,81.0,0,390,5.0,0.0
8174,57.0,160,240,7.0,0.0
8175,73.0,80,150,6.0,0.0
8176,49.0,160,240,7.0,0.0
8177,69.0,80,150,6.0,0.0
8178,57.0,240,240,7.0,0.0
8179,52.0,76,240,7.0,0.0
8180,64.0,164,300,6.0,0.0
8181,57.0,240,240,7.0,0.0
8182,49.0,76,240,7.0,0.0
8183,64.0,164,300,6.0,0.0
8184,57.0,240,240,7.0,0.0
8185,71.0,0,390,5.0,0.0
8186,62.0,0,390,5.0,0.0
8187,74.0,236,480,6.0,0.0
8188,45.0,148,240,7.0,0.0
8189,68.0,0,390,15.0,0.0
8190,74.0,0,390,5.0,0.0
8191,52.0,0,1410,3.0,0.0
8192,64.0,24,1410,1.0,0.0
8193,64.0,92,390,5.0,0.0
8194,57.0,4,240,7.0,0.0
8195,71.0,92,390,6.0,0.0
8196,47.0,148,240,7.0,0.0
8197,57.0,240,240,7.0,0.0
8198,50.0,216,240,7.0,0.0
8199,57.0,160,240,7.0,0.0
8200,66.0,0,150,1.0,0.0
8201,47.0,148,240,7.0,0.0
8202,64.0,12,390,6.0,0.0
8203,54.0,80,150,3.0,0.0
8204,68.0,0,150,1.0,0.0
8205,56.0,80,150,3.0,0.0
8206,57.0,240,240,7.0,0.0
8207,76.0,236,480,6.0,0.0
8208,45.0,76,240,7.0,0.0
8209,69.0,0,390,5.0,0.0
8210,61.0,0,390,5.0,0.0
8211,64.0,0,390,5.0,0.0
8212,69.0,0,300,1.0,0.0
8213,69.0,92,390,15.0,0.0
8214,73.0,0,390,5.0,0.0
8215,57.0,72,300,3.0,0.0
8216,57.0,4,240,7.0,0.0
8217,73.0,92,390,6.0,0.0
8218,49.0,76,240,7.0,0.0
8219,57.0,0,300,3.0,0.0
8220,69.0,72,300,1.0,0.0
8221,57.0,160,240,7.0,0.0
8222,52.0,160,240,7.0,0.0
8223,57.0,80,150,3.0,0.0
8224,69.0,0,150,1.0,0.0
8225,71.0,0,150,1.0,0.0
8226,57.0,160,240,7.0,0.0
8227,59.0,80,150,3.0,0.0
8228,49.0,148,240,7.0,0.0
8229,64.0,12,390,6.0,0.0
8230,61.0,80,150,3.0,0.0
8231,73.0,0,150,1.0,0.0
8232,57.0,196,240,7.0,0.0
8233,74.0,80,150,1.0,0.0
8234,62.0,0,150,3.0,0.0
8235,45.0,76,240,7.0,0.0
8236,64.0,0,300,3.0,0.0
8237,71.0,0,390,5.0,0.0
8238,62.0,0,390,5.0,0.0
8239,68.0,0,390,5.0,0.0
8240,64.0,48,390,15.0,0.0
8241,59.0,0,390,5.0,0.0
8242,74.0,44,180,6.0,0.0
8243,76.0,72,300,1.0,0.0
8244,57.0,196,240,7.0,0.0
8245,73.0,44,180,6.0,0.0
8246,71.0,44,180,6.0,0.0
8247,76.0,120,300,1.0,0.0
8248,64.0,0,300,3.0,0.0
8249,47.0,76,240,7.0,0.0
8250,57.0,160,240,7.0,0.0
8251,69.0,44,180,6.0,0.0
8252,76.0,0,300,1.0,0.0
8253,64.0,72,300,2.0,0.0
8254,64.0,80,150,3.0,0.0
8255,68.0,12,390,6.0,0.0
8256,50.0,76,240,7.0,0.0
8257,57.0,160,240,7.0,0.0
8258,62.0,80,150,3.0,0.0
8259,64.0,12,390,6.0,0.0
8260,47.0,148,240,7.0,0.0
8261,78.0,80,150,1.0,0.0
8262,61.0,0,150,3.0,0.0
8263,66.0,0,150,2.0,0.0
8264,57.0,196,240,7.0,0.0
8265,68.0,0,150,2.0,0.0
8266,80.0,0,150,1.0,0.0
8267,59.0,80,150,3.0,0.0
8268,61.0,0,390,5.0,0.0
8269,69.0,0,300,2.0,0.0
8270,81.0,72,300,1.0,0.0
8271,45.0,76,240,7.0,0.0
8272,69.0,48,390,5.0,0.0
8273,76.0,44,180,6.0,0.0
8274,52.0,0,390,15.0,0.0
8275,57.0,0,300,3.0,0.0
8276,64.0,0,390,5.0,0.0
8277,57.0,0,390,5.0,0.0
8278,74.0,44,180,6.0,0.0
8279,57.0,196,240,7.0,0.0
8280,73.0,44,180,6.0,0.0
8281,69.0,0,300,2.0,0.0
8282,81.0,120,300,1.0,0.0
8283,49.0,76,240,7.0,0.0
8284,57.0,0,300,3.0,0.0
8285,57.0,160,240,7.0,0.0
8286,71.0,44,180,6.0,0.0
8287,69.0,0,300,2.0,0.0
8288,52.0,76,240,7.0,0.0
8289,81.0,0,300,1.0,0.0
8290,81.0,80,150,0.0,0.0
8291,69.0,12,390,6.0,0.0
8292,57.0,72,300,3.0,0.0
8293,57.0,160,240,7.0,0.0
8294,83.0,80,150,0.0,0.0
8295,69.0,12,390,6.0,0.0
8296,85.0,0,150,0.0,0.0
8297,49.0,148,240,7.0,0.0
8298,56.0,80,150,3.0,0.0
8299,68.0,0,150,2.0,0.0
8300,80.0,0,150,1.0,0.0
8301,66.0,0,150,2.0,0.0
8302,78.0,0,150,1.0,0.0
8303,86.0,0,150,0.0,0.0
8304,54.0,80,150,3.0,0.0
8305,57.0,196,240,7.0,0.0
8306,88.0,0,300,0.0,0.0
8307,64.0,0,300,2.0,0.0
8308,45.0,76,240,7.0,0.0
8309,52.0,72,300,3.0,0.0
8310,76.0,0,300,1.0,0.0
8311,52.0,0,390,15.0,0.0
8312,68.0,0,390,15.0,0.0
8313,64.0,0,390,5.0,0.0
8314,59.0,0,390,5.0,0.0
8315,74.0,0,390,5.0,0.0
8316,71.0,0,390,5.0,0.0
8317,80.0,48,390,5.0,0.0
8318,68.0,44,180,6.0,0.0
8319,59.0,0,390,15.0,0.0
8320,57.0,196,240,7.0,0.0
8321,69.0,44,180,6.0,0.0
8322,64.0,0,300,2.0,0.0
8323,47.0,76,240,7.0,0.0
8324,52.0,0,300,3.0,0.0
8325,88.0,0,300,0.0,0.0
8326,71.0,44,180,6.0,0.0
8327,76.0,120,300,1.0,0.0
8328,57.0,160,240,7.0,0.0
8329,73.0,44,180,6.0,0.0
8330,88.0,0,150,0.0,0.0
8331,50.0,160,240,7.0,0.0
8332,52.0,0,150,3.0,0.0
8333,64.0,36,150,2.0,0.0
8334,76.0,0,150,1.0,0.0
8335,74.0,44,180,6.0,0.0
8336,50.0,0,150,3.0,0.0
8337,62.0,36,150,2.0,0.0
8338,57.0,160,240,7.0,0.0
8339,74.0,0,150,1.0,0.0
8340,76.0,44,180,6.0,0.0
8341,86.0,0,150,0.0,0.0
8342,61.0,0,150,2.0,0.0
8343,47.0,160,240,7.0,0.0
8344,85.0,0,150,0.0,0.0
8345,78.0,44,180,6.0,0.0
8346,73.0,36,150,1.0,0.0
8347,49.0,0,150,3.0,0.0
8348,47.0,0,150,3.0,0.0
8349,59.0,0,150,2.0,0.0
8350,83.0,0,150,0.0,0.0
8351,57.0,232,240,7.0,0.0
8352,71.0,36,150,1.0,0.0
8353,80.0,44,180,6.0,0.0
8354,69.0,0,390,1.0,0.0
8355,81.0,156,240,6.0,0.0
8356,69.0,0,390,15.0,0.0
8357,57.0,0,390,5.0,0.0
8358,81.0,0,390,0.0,0.0
8359,73.0,84,390,5.0,0.0
8360,64.0,0,390,5.0,0.0
8361,81.0,0,390,5.0,0.0
8362,52.0,0,390,15.0,0.0
8363,45.0,0,390,3.0,0.0
8364,61.0,0,390,15.0,0.0
8365,57.0,0,390,2.0,0.0
8366,45.0,0,390,7.0,0.0
8367,76.0,240,240,6.0,0.0
8368,73.0,240,240,6.0,0.0
8369,69.0,240,240,6.0,0.0
8370,73.0,156,240,6.0,0.0
8371,57.0,84,390,7.0,0.0
8372,61.0,0,390,7.0,0.0
8373,69.0,240,240,6.0,0.0
8374,59.0,84,390,7.0,0.0
8375,62.0,0,390,7.0,0.0
8376,74.0,156,240,6.0,0.0
8377,71.0,240,240,6.0,0.0
8378,76.0,156,240,6.0,0.0
8379,61.0,0,390,7.0,0.0
8380,64.0,84,390,7.0,0.0
8381,73.0,240,240,6.0,0.0
8382,69.0,240,240,6.0,0.0
8383,76.0,240,240,6.0,0.0
8384,78.0,156,240,6.0,0.0
8385,66.0,0,390,7.0,0.0
8386,62.0,84,390,7.0,0.0
8387,74.0,240,240,6.0,0.0
8388,64.0,0,300,11.0,0.0
8389,80.0,60,240,6.0,0.0
8390,40.0,0,300,14.0,0.0
8391,62.0,0,390,7.0,0.0
8392,59.0,84,390,7.0,0.0
8393,74.0,0,300,11.0,0.0
8394,80.0,0,300,10.0,0.0
8395,71.0,96,300,12.0,0.0
8396,52.0,0,300,13.0,0.0
8397,76.0,240,240,6.0,0.0
8398,73.0,0,780,11.0,0.0
8399,57.0,84,390,7.0,0.0
8400,61.0,0,390,7.0,0.0
8401,57.0,0,780,13.0,0.0
8402,81.0,156,240,6.0,0.0
8403,64.0,0,780,11.0,0.0
8404,81.0,0,780,10.0,0.0
8405,69.0,0,780,12.0,0.0
8406,45.0,180,780,14.0,0.0
8407,76.0,240,240,6.0,0.0
8408,73.0,60,240,6.0,0.0
8409,69.0,240,240,6.0,0.0
8410,54.0,84,390,7.0,0.0
8411,57.0,0,390,7.0,0.0
8412,69.0,156,240,6.0,0.0
8413,66.0,240,240,6.0,0.0
8414,56.0,84,390,7.0,0.0
8415,71.0,156,240,6.0,0.0
8416,59.0,0,390,7.0,0.0
8417,68.0,240,240,6.0,0.0
8418,61.0,0,390,7.0,0.0
8419,73.0,156,240,6.0,0.0
8420,57.0,84,390,7.0,0.0
8421,69.0,240,240,6.0,0.0
8422,66.0,240,240,6.0,0.0
8423,73.0,240,240,6.0,0.0
8424,74.0,156,240,6.0,0.0
8425,59.0,84,390,7.0,0.0
8426,62.0,0,390,7.0,0.0
8427,71.0,240,240,6.0,0.0
8428,61.0,0,300,12.0,0.0
8429,49.0,0,300,13.0,0.0
8430,37.0,96,300,14.0,0.0
8431,68.0,0,300,11.0,0.0
8432,77.0,60,240,6.0,0.0
8433,59.0,84,390,7.0,0.0
8434,56.0,0,390,7.0,0.0
8435,77.0,0,300,10.0,0.0
8436,71.0,0,300,11.0,0.0
8437,73.0,240,240,6.0,0.0
8438,78.0,156,240,6.0,0.0
8439,66.0,0,780,11.0,0.0
8440,69.0,180,780,11.0,0.0
8441,54.0,0,780,13.0,0.0
8442,57.0,84,390,7.0,0.0
8443,54.0,0,390,7.0,0.0
8444,78.0,0,780,10.0,0.0
8445,61.0,0,780,12.0,0.0
8446,42.0,0,780,14.0,0.0
8447,73.0,240,240,6.0,0.0
8448,69.0,60,240,6.0,0.0
8449,66.0,240,240,6.0,0.0
8450,50.0,84,390,7.0,0.0
8451,54.0,0,390,7.0,0.0
8452,66.0,156,240,6.0,0.0
8453,62.0,240,240,6.0,0.0
8454,55.0,84,390,7.0,0.0
8455,67.0,156,240,6.0,0.0
8456,52.0,0,390,7.0,0.0
8457,62.0,240,240,6.0,0.0
8458,69.0,156,240,6.0,0.0
8459,54.0,0,390,7.0,0.0
8460,57.0,84,390,7.0,0.0
8461,66.0,240,240,6.0,0.0
8462,62.0,240,240,6.0,0.0
8463,69.0,240,240,6.0,0.0
8464,55.0,84,390,7.0,0.0
8465,59.0,0,390,7.0,0.0
8466,71.0,156,240,6.0,0.0
8467,67.0,240,240,6.0,0.0
8468,33.0,0,300,14.0,0.0
8469,52.0,84,390,7.0,0.0
8470,55.0,0,390,7.0,0.0
8471,57.0,72,300,11.0,0.0
8472,55.0,0,300,12.0,0.0
8473,52.0,0,300,12.0,0.0
8474,45.0,0,300,13.0,0.0
8475,73.0,84,240,6.0,0.0
8476,61.0,0,300,10.0,0.0
8477,69.0,240,240,6.0,0.0
8478,62.0,0,300,10.0,0.0
8479,54.0,72,300,12.0,0.0
8480,57.0,60,1380,11.0,0.0
8481,50.0,0,300,13.0,0.0
8482,38.0,0,300,14.0,0.0
8483,50.0,0,300,12.0,0.0
8484,54.0,84,390,7.0,0.0
8485,74.0,84,240,6.0,0.0
8486,69.0,240,240,6.0,0.0
8487,64.0,0,480,10.0,0.0
8488,76.0,240,240,6.0,0.0
8489,61.0,228,480,7.0,0.0
8490,49.0,0,480,13.0,0.0
8491,37.0,0,480,14.0,0.0
8492,55.0,0,480,12.0,0.0
8493,69.0,12,240,6.0,0.0
8494,50.0,0,300,13.0,0.0
8495,38.0,72,300,14.0,0.0
8496,66.0,0,300,10.0,0.0
8497,54.0,0,300,12.0,0.0
8498,78.0,84,240,6.0,0.0
8499,62.0,24,390,7.0,0.0
8500,69.0,240,240,6.0,0.0
8501,62.0,72,300,11.0,0.0
8502,80.0,84,240,6.0,0.0
8503,47.0,0,300,13.0,0.0
8504,68.0,0,300,10.0,0.0
8505,35.0,0,300,14.0,0.0
8506,59.0,84,390,7.0,0.0
8507,52.0,0,780,12.0,0.0
8508,69.0,240,240,6.0,0.0
8509,61.0,84,390,7.0,0.0
8510,37.0,0,300,14.0,0.0
8511,81.0,84,240,6.0,0.0
8512,69.0,0,300,10.0,0.0
8513,49.0,72,300,13.0,0.0
8514,61.0,0,300,11.0,0.0
8515,76.0,240,240,6.0,0.0
8516,83.0,240,240,6.0,0.0
8517,64.0,36,900,11.0,0.0
8518,56.0,0,480,7.0,0.0
8519,44.0,0,480,14.0,0.0
8520,56.0,0,480,13.0,0.0
8521,62.0,0,480,12.0,0.0
8522,71.0,228,480,10.0,0.0
8523,76.0,12,240,6.0,0.0
8524,61.0,0,300,12.0,0.0
8525,57.0,0,300,13.0,0.0
8526,45.0,72,300,14.0,0.0
8527,57.0,48,390,7.0,0.0
8528,73.0,0,300,10.0,0.0
8529,85.0,84,240,6.0,0.0
8530,76.0,240,240,6.0,0.0
8531,54.0,0,300,13.0,0.0
8532,87.0,84,240,6.0,0.0
8533,57.0,0,300,12.0,0.0
8534,42.0,72,300,14.0,0.0
8535,75.0,0,300,10.0,0.0
8536,69.0,0,300,11.0,0.0
8537,54.0,84,390,7.0,0.0
8538,76.0,204,240,6.0,0.0
8539,52.0,48,390,7.0,0.0
8540,71.0,0,12300,4.0,0.0
8541,40.0,0,300,14.0,0.0
8542,52.0,0,300,13.0,0.0
8543,88.0,120,180,6.0,0.0
8544,59.0,72,300,12.0,0.0
8545,76.0,0,300,10.0,0.0
8546,68.0,0,300,11.0,0.0
8547,87.0,240,180,6.0,0.0
8548,59.0,0,300,12.0,0.0
8549,64.0,120,300,11.0,0.0
8550,85.0,120,180,6.0,0.0
8551,68.0,0,300,10.0,0.0
8552,83.0,240,180,6.0,0.0
8553,81.0,120,180,6.0,0.0
8554,68.0,0,300,10.0,0.0
8555,64.0,0,300,11.0,0.0
8556,59.0,120,300,12.0,0.0
8557,80.0,240,180,6.0,0.0
8558,59.0,0,300,12.0,0.0
8559,68.0,0,300,10.0,0.0
8560,78.0,120,180,6.0,0.0
8561,64.0,120,300,11.0,0.0
8562,76.0,240,180,6.0,0.0
8563,47.0,0,390,7.0,0.0
8564,47.0,0,390,13.0,0.0
8565,54.0,192,1920,3.0,0.0
8566,57.0,0,1920,3.0,0.0
8567,35.0,48,390,14.0,0.0
8568,75.0,192,180,6.0,0.0
8569,76.0,240,180,6.0,0.0
8570,59.0,48,390,12.0,0.0
8571,69.0,72,300,10.0,0.0
8572,78.0,120,180,6.0,0.0
8573,66.0,0,300,11.0,0.0
8574,80.0,240,180,6.0,0.0
8575,66.0,72,300,11.0,0.0
8576,81.0,120,180,6.0,0.0
8577,59.0,48,390,12.0,0.0
8578,69.0,0,300,10.0,0.0
8579,83.0,240,180,6.0,0.0
8580,69.0,72,300,10.0,0.0
8581,59.0,48,390,12.0,0.0
8582,66.0,0,300,11.0,0.0
8583,85.0,120,180,6.0,0.0
8584,87.0,48,180,6.0,0.0
8585,40.0,0,390,14.0,0.0
8586,88.0,120,180,6.0,0.0
8587,64.0,0,300,11.0,0.0
8588,52.0,0,390,3.0,0.0
8589,56.0,48,390,3.0,0.0
8590,52.0,0,390,7.0,0.0
8591,52.0,0,390,13.0,0.0
8592,68.0,72,300,10.0,0.0
8593,87.0,240,180,6.0,0.0
8594,64.0,48,390,12.0,0.0
8595,85.0,120,180,6.0,0.0
8596,71.0,192,480,10.0,0.0
8597,59.0,0,300,11.0,0.0
8598,68.0,72,300,11.0,0.0
8599,83.0,48,180,6.0,0.0
8600,83.0,192,480,10.0,0.0
8601,68.0,0,300,11.0,0.0
8602,81.0,120,180,6.0,0.0
8603,64.0,48,390,12.0,0.0
8604,59.0,72,300,11.0,0.0
8605,80.0,48,180,6.0,0.0
8606,59.0,0,300,11.0,0.0
8607,71.0,72,300,10.0,0.0
8608,78.0,120,180,6.0,0.0
8609,64.0,48,390,12.0,0.0
8610,68.0,0,300,11.0,0.0
8611,76.0,240,180,6.0,0.0
8612,35.0,48,390,14.0,0.0
8613,69.0,192,1920,2.0,0.0
8614,57.0,0,1920,3.0,0.0
8615,47.0,0,390,7.0,0.0
8616,54.0,0,1920,3.0,0.0
8617,66.0,0,1920,2.0,0.0
8618,47.0,0,390,13.0,0.0
8619,75.0,192,180,6.0,0.0
8620,76.0,240,180,6.0,0.0
8621,78.0,120,180,6.0,0.0
8622,69.0,0,300,11.0,0.0
8623,59.0,72,300,11.0,0.0
8624,66.0,48,390,12.0,0.0
8625,71.0,192,480,10.0,0.0
8626,80.0,48,180,6.0,0.0
8627,66.0,48,390,12.0,0.0
8628,59.0,0,300,11.0,0.0
8629,69.0,72,300,11.0,0.0
8630,83.0,192,480,10.0,0.0
8631,81.0,120,180,6.0,0.0
8632,83.0,48,180,6.0,0.0
8633,69.0,0,300,11.0,0.0
8634,71.0,0,300,10.0,0.0
8635,66.0,48,390,12.0,0.0
8636,85.0,120,180,6.0,0.0
8637,59.0,72,300,11.0,0.0
8638,87.0,48,180,6.0,0.0
8639,88.0,192,180,6.0,0.0
8640,52.0,0,390,7.0,0.0
8641,68.0,0,390,2.0,0.0
8642,52.0,0,390,13.0,0.0
8643,64.0,48,390,2.0,0.0
8644,56.0,0,390,3.0,0.0
8645,52.0,0,390,3.0,0.0
8646,40.0,0,390,14.0,0.0
8647,87.0,240,180,6.0,0.0
8648,59.0,72,300,11.0,0.0
8649,68.0,0,300,11.0,0.0
8650,64.0,48,390,12.0,0.0
8651,71.0,192,480,10.0,0.0
8652,85.0,120,180,6.0,0.0
8653,83.0,48,180,6.0,0.0
8654,81.0,120,180,6.0,0.0
8655,68.0,0,300,11.0,0.0
8656,59.0,72,300,11.0,0.0
8657,64.0,48,390,12.0,0.0
8658,83.0,192,480,10.0,0.0
8659,80.0,48,180,6.0,0.0
8660,78.0,120,180,6.0,0.0
8661,64.0,48,390,12.0,0.0
8662,68.0,0,300,11.0,0.0
8663,59.0,72,300,11.0,0.0
8664,71.0,0,300,10.0,0.0
8665,76.0,240,180,6.0,0.0
8666,75.0,192,180,6.0,0.0
8667,57.0,0,1920,3.0,0.0
8668,54.0,0,1920,3.0,0.0
8669,69.0,0,1920,2.0,0.0
8670,35.0,0,390,14.0,0.0
8671,47.0,0,390,7.0,0.0
8672,47.0,48,390,13.0,0.0
8673,81.0,0,1920,0.0,0.0
8674,66.0,480,1920,2.0,0.0
8675,73.0,240,180,6.0,0.0
8676,69.0,0,300,11.0,0.0
8677,59.0,72,300,11.0,0.0
8678,71.0,192,480,10.0,0.0
8679,66.0,48,390,12.0,0.0
8680,71.0,120,180,6.0,0.0
8681,69.0,48,180,6.0,0.0
8682,68.0,120,180,6.0,0.0
8683,69.0,72,300,11.0,0.0
8684,83.0,192,480,10.0,0.0
8685,59.0,0,300,11.0,0.0
8686,66.0,48,390,12.0,0.0
8687,66.0,48,180,6.0,0.0
8688,64.0,120,180,6.0,0.0
8689,71.0,0,300,10.0,0.0
8690,69.0,72,300,11.0,0.0
8691,59.0,0,300,11.0,0.0
8692,66.0,48,390,12.0,0.0
8693,63.0,48,180,6.0,0.0
8694,56.0,0,780,3.0,0.0
8695,52.0,0,780,13.0,0.0
8696,64.0,0,780,2.0,0.0
8697,40.0,0,780,7.0,0.0
8698,71.0,0,780,10.0,0.0
8699,80.0,192,780,0.0,0.0
8700,68.0,0,780,11.0,0.0
8701,64.0,0,780,4.0,0.0
8702,40.0,0,780,14.0,0.0
8703,68.0,0,780,2.0,0.0
8704,64.0,0,780,12.0,0.0
8705,59.0,0,780,11.0,0.0
8706,52.0,0,780,3.0,0.0
8707,64.0,240,240,6.0,0.0
8708,63.0,48,240,6.0,0.0
8709,64.0,240,240,6.0,0.0
8710,52.0,0,1440,3.0,0.0
8711,64.0,0,1440,1.0,0.0
8712,63.0,240,240,6.0,0.0
8713,76.0,0,1440,0.0,0.0
8714,64.0,240,240,6.0,0.0
8715,63.0,240,240,6.0,0.0
8716,64.0,240,240,6.0,0.0
8717,63.0,240,240,6.0,0.0
8718,64.0,240,240,6.0,0.0
8719,77.0,0,480,0.0,0.0
8720,65.0,240,480,1.0,0.0
8721,53.0,0,480,3.0,0.0
8722,65.0,240,240,6.0,0.0
8723,64.0,0,240,6.0,0.0
8724,54.0,0,480,3.0,0.0
8725,66.0,240,240,6.0,0.0
8726,78.0,0,480,0.0,0.0
8727,66.0,0,480,1.0,0.0
8728,64.0,240,240,6.0,0.0
8729,55.0,0,480,3.0,0.0
8730,67.0,0,480,1.0,0.0
8731,79.0,240,480,0.0,0.0
8732,67.0,240,240,6.0,0.0
8733,64.0,0,240,6.0,0.0
8734,68.0,0,480,1.0,0.0
8735,56.0,240,480,3.0,0.0
8736,68.0,240,240,6.0,0.0
8737,80.0,0,480,0.0,0.0
8738,64.0,0,240,6.0,0.0
8739,57.0,0,480,3.0,0.0
8740,69.0,240,240,6.0,0.0
8741,69.0,0,480,1.0,0.0
8742,81.0,240,480,0.0,0.0
8743,64.0,0,240,6.0,0.0
8744,70.0,240,480,1.0,0.0
8745,70.0,240,240,6.0,0.0
8746,58.0,0,480,3.0,0.0
8747,82.0,0,480,0.0,0.0
8748,64.0,0,240,6.0,0.0
8749,71.0,0,480,1.0,0.0
8750,64.0,168,300,4.0,0.0
8751,52.0,0,300,4.0,0.0
8752,71.0,72,240,6.0,0.0
8753,68.0,0,480,1.0,0.0
8754,59.0,0,480,3.0,0.0
8755,56.0,0,480,3.0,0.0
8756,83.0,240,480,0.0,0.0
8757,64.0,0,240,6.0,0.0
8758,72.0,72,240,6.0,0.0
8759,52.0,168,300,4.0,0.0
8760,57.0,0,480,3.0,0.0
8761,84.0,240,480,0.0,0.0
8762,64.0,0,300,4.0,0.0
8763,69.0,0,480,1.0,0.0
8764,60.0,0,480,3.0,0.0
8765,72.0,0,480,1.0,0.0
8766,64.0,0,240,6.0,0.0
8767,58.0,0,480,3.0,0.0
8768,73.0,0,480,1.0,0.0
8769,61.0,0,480,3.0,0.0
8770,64.0,168,300,4.0,0.0
8771,70.0,0,480,1.0,0.0
8772,52.0,0,300,4.0,0.0
8773,73.0,72,240,6.0,0.0
8774,85.0,0,480,0.0,0.0
8775,64.0,240,240,6.0,0.0
8776,59.0,0,480,3.0,0.0
8777,71.0,0,480,1.0,0.0
8778,74.0,0,480,1.0,0.0
8779,62.0,0,480,3.0,0.0
8780,64.0,168,300,4.0,0.0
8781,52.0,0,300,4.0,0.0
8782,86.0,240,480,0.0,0.0
8783,74.0,72,240,6.0,0.0
8784,64.0,0,240,6.0,0.0
8785,64.0,0,300,4.0,0.0
8786,63.0,0,480,3.0,0.0
8787,52.0,168,300,4.0,0.0
8788,75.0,236,480,1.0,0.0
8789,72.0,0,480,1.0,0.0
8790,75.0,72,240,6.0,0.0
8791,60.0,0,480,3.0,0.0
8792,87.0,0,480,0.0,0.0
8793,64.0,0,240,6.0,0.0
8794,88.0,0,390,0.0,0.0
8795,73.0,0,390,1.0,0.0
8796,61.0,0,390,3.0,0.0
8797,57.0,0,390,4.0,0.0
8798,64.0,0,390,3.0,0.0
8799,64.0,0,390,4.0,0.0
8800,76.0,0,390,1.0,0.0
8801,57.0,148,240,7.0,0.0
8802,76.0,92,390,6.0,0.0
8803,64.0,240,240,7.0,0.0
8804,61.0,240,240,7.0,0.0
8805,64.0,240,240,7.0,0.0
8806,69.0,92,390,6.0,0.0
8807,57.0,148,240,7.0,0.0
8808,64.0,240,240,7.0,0.0
8809,61.0,240,240,7.0,0.0
8810,64.0,240,240,7.0,0.0
8811,57.0,240,240,7.0,0.0
8812,81.0,44,1140,6.0,0.0
8813,66.0,240,240,7.0,0.0
8814,62.0,240,240,7.0,0.0
8815,66.0,196,240,7.0,0.0
8816,57.0,240,240,7.0,0.0
8817,66.0,196,240,7.0,0.0
8818,80.0,44,180,6.0,0.0
8819,62.0,196,240,7.0,0.0
8820,66.0,240,240,7.0,0.0
8821,78.0,44,180,6.0,0.0
8822,57.0,4,240,7.0,0.0
8823,78.0,192,240,6.0,0.0
8824,76.0,44,180,6.0,0.0
8825,64.0,196,240,7.0,0.0
8826,74.0,44,180,6.0,0.0
8827,61.0,196,240,7.0,0.0
8828,73.0,44,180,6.0,0.0
8829,64.0,196,240,7.0,0.0
8830,74.0,44,180,6.0,0.0
8831,56.0,196,240,7.0,0.0
8832,71.0,44,180,6.0,0.0
8833,64.0,196,240,7.0,0.0
8834,57.0,196,240,7.0,0.0
8835,73.0,44,180,6.0,0.0
8836,64.0,196,240,7.0,0.0
8837,69.0,44,180,6.0,0.0
8838,52.0,48,390,7.0,0.0
8839,73.0,192,180,6.0,0.0
8840,71.0,240,180,6.0,0.0
8841,69.0,240,180,6.0,0.0
8842,68.0,240,180,6.0,0.0
8843,66.0,240,180,6.0,0.0
8844,64.0,240,180,6.0,0.0
8845,63.0,240,180,6.0,0.0
8846,64.0,284,180,6.0,0.0
8847,64.0,0,1920,3.0,0.0
8848,61.0,236,1920,3.0,0.0
8849,57.0,148,240,7.0,0.0
8850,76.0,92,390,6.0,0.0
8851,73.0,0,1920,1.0,0.0
8852,76.0,0,1920,1.0,0.0
8853,69.0,0,3810,4.0,0.0
8854,57.0,0,3810,4.0,0.0
8855,64.0,240,240,7.0,0.0
8856,61.0,240,240,7.0,0.0
8857,64.0,240,240,7.0,0.0
8858,69.0,92,390,6.0,0.0
8859,57.0,148,240,7.0,0.0
8860,67.0,240,240,7.0,0.0
8861,61.0,240,240,7.0,0.0
8862,67.0,4,240,7.0,0.0
8863,57.0,52,240,7.0,0.0
8864,62.0,34,1890,3.0,0.0
8865,81.0,188,300,6.0,0.0
8866,78.0,0,1890,1.0,0.0
8867,74.0,0,1890,1.0,0.0
8868,66.0,0,1890,3.0,0.0
8869,66.0,240,240,7.0,0.0
8870,81.0,188,780,6.0,0.0
8871,62.0,240,240,7.0,0.0
8872,66.0,240,240,7.0,0.0
8873,57.0,52,240,7.0,0.0
8874,66.0,196,240,7.0,0.0
8875,80.0,44,180,6.0,0.0
8876,62.0,196,240,7.0,0.0
8877,78.0,10,180,6.0,0.0
8878,66.0,244,240,7.0,0.0
8879,61.0,48,390,7.0,0.0
8880,76.0,0,480,1.0,0.0
8881,73.0,0,480,1.0,0.0
8882,57.0,0,390,4.0,0.0
8883,69.0,0,390,4.0,0.0
8884,57.0,0,390,7.0,0.0
8885,76.0,144,240,6.0,0.0
8886,61.0,0,480,3.0,0.0
8887,64.0,192,480,3.0,0.0
8888,81.0,48,180,6.0,0.0
8889,59.0,0,480,3.0,0.0
8890,71.0,240,480,1.0,0.0
8891,78.0,192,180,6.0,0.0
8892,50.0,0,390,7.0,0.0
8893,59.0,48,390,7.0,0.0
8894,62.0,0,480,3.0,0.0
8895,74.0,0,480,1.0,0.0
8896,74.0,48,180,6.0,0.0
8897,64.0,48,390,4.0,0.0
8898,52.0,0,390,4.0,0.0
8899,69.0,192,480,1.0,0.0
8900,73.0,144,240,6.0,0.0
8901,57.0,0,480,3.0,0.0
8902,61.0,0,480,3.0,0.0
8903,73.0,0,480,1.0,0.0
8904,57.0,0,390,7.0,0.0
8905,52.0,96,780,7.0,0.0
8906,76.0,48,180,6.0,0.0
8907,52.0,0,390,4.0,0.0
8908,64.0,48,390,4.0,0.0
8909,68.0,0,480,1.0,0.0
8910,71.0,0,480,1.0,0.0
8911,56.0,236,480,3.0,0.0
8912,59.0,0,480,3.0,0.0
8913,56.0,0,390,7.0,0.0
8914,74.0,96,180,6.0,0.0
8915,71.0,48,180,6.0,0.0
8916,57.0,0,390,4.0,0.0
8917,61.0,0,390,4.0,0.0
8918,69.0,0,240,6.0,0.0
8919,57.0,148,240,7.0,0.0
8920,69.0,92,390,1.0,0.0
8921,57.0,0,390,3.0,0.0
8922,68.0,0,240,6.0,0.0
8923,56.0,240,240,7.0,0.0
8924,57.0,240,240,7.0,0.0
8925,69.0,0,240,6.0,0.0
8926,71.0,0,240,6.0,0.0
8927,59.0,240,240,7.0,0.0
8928,72.0,240,240,6.0,0.0
8929,60.0,0,240,7.0,0.0
8930,73.0,240,240,6.0,0.0
8931,61.0,0,240,7.0,0.0
8932,74.0,0,240,6.0,0.0
8933,62.0,240,240,7.0,0.0
8934,75.0,0,240,6.0,0.0
8935,63.0,196,240,7.0,0.0
8936,76.0,0,390,6.0,0.0
8937,45.0,0,300,14.0,0.0
8938,61.0,0,1920,3.0,0.0
8939,64.0,0,1920,3.0,0.0
8940,64.0,0,390,7.0,0.0
8941,69.0,0,300,12.0,0.0
8942,81.0,0,4800,0.0,0.0
8943,76.0,0,1920,1.0,0.0
8944,73.0,192,1920,1.0,0.0
8945,57.0,24,1740,4.0,0.0
8946,69.0,0,1740,4.0,0.0
8947,61.0,120,180,11.0,0.0
8948,57.0,72,300,13.0,0.0
8949,76.0,48,390,10.0,0.0
8950,64.0,240,180,11.0,0.0
8951,45.0,120,300,14.0,0.0
8952,69.0,0,300,12.0,0.0
8953,61.0,120,180,11.0,0.0
8954,57.0,0,300,13.0,0.0
8955,64.0,240,180,11.0,0.0
8956,69.0,48,390,10.0,0.0
8957,57.0,0,300,13.0,0.0
8958,69.0,0,300,12.0,0.0
8959,61.0,120,180,11.0,0.0
8960,45.0,72,300,14.0,0.0
8961,64.0,240,180,11.0,0.0
8962,69.0,120,300,12.0,0.0
8963,61.0,96,180,11.0,0.0
8964,45.0,0,300,14.0,0.0
8965,57.0,0,300,13.0,0.0
8966,64.0,48,180,11.0,0.0
8967,57.0,0,1740,4.0,0.0
8968,69.0,24,1740,4.0,0.0
8969,78.0,192,1920,1.0,0.0
8970,74.0,0,1920,1.0,0.0
8971,62.0,0,1920,3.0,0.0
8972,66.0,0,1920,3.0,0.0
8973,57.0,120,300,13.0,0.0
8974,45.0,0,300,14.0,0.0
8975,81.0,120,1140,10.0,0.0
8976,62.0,120,180,11.0,0.0
8977,69.0,0,300,12.0,0.0
8978,66.0,240,180,11.0,0.0
8979,45.0,0,300,14.0,0.0
8980,57.0,0,300,13.0,0.0
8981,62.0,120,180,11.0,0.0
8982,69.0,120,300,12.0,0.0
8983,66.0,240,180,11.0,0.0
8984,57.0,0,300,13.0,0.0
8985,62.0,0,180,11.0,0.0
8986,45.0,120,300,14.0,0.0
8987,69.0,0,300,12.0,0.0
8988,66.0,240,180,11.0,0.0
8989,62.0,0,180,11.0,0.0
8990,80.0,96,180,10.0,0.0
8991,45.0,0,300,14.0,0.0
8992,57.0,0,300,13.0,0.0
8993,69.0,120,300,12.0,0.0
8994,66.0,48,180,11.0,0.0
8995,78.0,0,180,10.0,0.0
8996,57.0,0,300,13.0,0.0
8997,69.0,0,300,12.0,0.0
8998,45.0,120,300,14.0,0.0
8999,57.0,24,780,4.0,0.0
9000,69.0,0,780,4.0,0.0
9001,78.0,72,240,10.0,0.0
9002,61.0,0,960,3.0,0.0
9003,64.0,0,960,3.0,0.0
9004,76.0,192,960,1.0,0.0
9005,73.0,0,960,1.0,0.0
9006,61.0,48,180,11.0,0.0
9007,76.0,240,180,10.0,0.0
9008,64.0,0,180,11.0,0.0
9009,69.0,120,300,12.0,0.0
9010,57.0,0,300,13.0,0.0
9011,74.0,0,180,10.0,0.0
9012,45.0,0,300,14.0,0.0
9013,69.0,96,180,11.0,0.0
9014,73.0,0,180,10.0,0.0
9015,64.0,48,180,11.0,0.0
9016,74.0,72,240,10.0,0.0
9017,64.0,0,390,4.0,0.0
9018,71.0,48,390,4.0,0.0
9019,68.0,72,300,12.0,0.0
9020,83.0,0,480,0.0,0.0
9021,44.0,0,300,14.0,0.0
9022,71.0,48,180,11.0,0.0
9023,59.0,0,480,3.0,0.0
9024,62.0,192,480,3.0,0.0
9025,71.0,0,480,1.0,0.0
9026,74.0,0,480,1.0,0.0
9027,56.0,0,300,13.0,0.0
9028,64.0,48,180,11.0,0.0
9029,71.0,0,180,10.0,0.0
9030,61.0,0,480,3.0,0.0
9031,57.0,240,480,3.0,0.0
9032,85.0,0,480,0.0,0.0
9033,69.0,120,180,11.0,0.0
9034,69.0,0,480,1.0,0.0
9035,73.0,0,480,1.0,0.0
9036,69.0,48,390,4.0,0.0
9037,73.0,0,180,10.0,0.0
9038,57.0,0,300,13.0,0.0
9039,45.0,0,300,14.0,0.0
9040,69.0,72,300,12.0,0.0
9041,73.0,0,390,4.0,0.0
9042,69.0,48,180,10.0,0.0
9043,64.0,0,180,11.0,0.0
9044,56.0,240,960,3.0,0.0
9045,68.0,0,480,1.0,0.0
9046,59.0,0,960,3.0,0.0
9047,64.0,0,780,12.0,0.0
9048,83.0,144,240,0.0,0.0
9049,71.0,0,240,10.0,0.0
9050,71.0,48,390,4.0,0.0
9051,52.0,96,780,13.0,0.0
9052,68.0,0,240,11.0,0.0
9053,40.0,0,780,14.0,0.0
9054,64.0,0,390,4.0,0.0
9055,64.0,48,180,11.0,0.0
9056,76.0,0,180,10.0,0.0
9057,88.0,0,180,0.0,0.0
9058,64.0,48,390,4.0,0.0
9059,71.0,240,15,1.0,0.0
9060,63.0,48,240,11.0,0.0
9061,87.0,0,240,0.0,0.0
9062,75.0,0,240,10.0,0.0
9063,74.0,0,480,1.0,0.0
9064,88.0,48,180,0.0,0.0
9065,64.0,0,180,11.0,0.0
9066,76.0,0,180,10.0,0.0
9067,73.0,0,480,1.0,0.0
9068,69.0,0,480,1.0,0.0
9069,63.0,0,240,11.0,0.0
9070,64.0,48,390,4.0,0.0
9071,57.0,240,480,3.0,0.0
9072,87.0,0,240,0.0,0.0
9073,61.0,0,480,3.0,0.0
9074,75.0,144,240,10.0,0.0
9075,88.0,48,180,0.0,0.0
9076,76.0,0,180,10.0,0.0
9077,64.0,0,180,11.0,0.0
9078,68.0,0,480,1.0,0.0
9079,59.0,192,480,3.0,0.0
9080,62.0,0,480,3.0,0.0
9081,66.0,0,240,11.0,0.0
9082,90.0,144,240,0.0,0.0
9083,71.0,0,480,1.0,0.0
9084,64.0,48,390,4.0,0.0
9085,78.0,0,240,10.0,0.0
9086,76.0,0,180,10.0,0.0
9087,64.0,0,180,11.0,0.0
9088,88.0,48,180,0.0,0.0
9089,76.0,0,1920,1.0,0.0
9090,61.0,120,180,11.0,0.0
9091,76.0,48,390,10.0,0.0
9092,69.0,72,300,12.0,0.0
9093,45.0,0,300,14.0,0.0
9094,73.0,192,1920,1.0,0.0
9095,81.0,0,4140,0.0,0.0
9096,61.0,0,1920,3.0,0.0
9097,64.0,0,1920,3.0,0.0
9098,57.0,0,300,13.0,0.0
9099,69.0,0,1740,4.0,0.0
9100,57.0,24,1740,4.0,0.0
9101,64.0,240,180,11.0,0.0
9102,69.0,120,300,12.0,0.0
9103,57.0,0,300,13.0,0.0
9104,61.0,120,180,11.0,0.0
9105,45.0,0,300,14.0,0.0
9106,64.0,240,180,11.0,0.0
9107,45.0,0,300,14.0,0.0
9108,69.0,72,300,12.0,0.0
9109,57.0,0,300,13.0,0.0
9110,61.0,120,180,11.0,0.0
9111,69.0,48,390,10.0,0.0
9112,64.0,240,180,11.0,0.0
9113,61.0,96,180,11.0,0.0
9114,57.0,120,300,13.0,0.0
9115,45.0,0,300,14.0,0.0
9116,69.0,0,300,12.0,0.0
9117,64.0,48,180,11.0,0.0
9118,57.0,0,300,13.0,0.0
9119,62.0,0,1920,3.0,0.0
9120,62.0,96,180,11.0,0.0
9121,74.0,240,1920,1.0,0.0
9122,78.0,0,1920,1.0,0.0
9123,66.0,0,1920,3.0,0.0
9124,45.0,0,300,14.0,0.0
9125,69.0,120,300,12.0,0.0
9126,69.0,0,1740,4.0,0.0
9127,81.0,24,300,10.0,0.0
9128,57.0,24,1740,4.0,0.0
9129,66.0,240,180,11.0,0.0
9130,69.0,120,300,12.0,0.0
9131,81.0,24,780,10.0,0.0
9132,62.0,120,180,11.0,0.0
9133,45.0,0,300,14.0,0.0
9134,57.0,0,300,13.0,0.0
9135,66.0,240,180,11.0,0.0
9136,57.0,0,300,13.0,0.0
9137,69.0,120,300,12.0,0.0
9138,62.0,96,180,11.0,0.0
9139,45.0,0,300,14.0,0.0
9140,66.0,240,180,11.0,0.0
9141,80.0,96,180,10.0,0.0
9142,45.0,120,300,14.0,0.0
9143,62.0,0,180,11.0,0.0
9144,69.0,0,300,12.0,0.0
9145,57.0,0,300,13.0,0.0
9146,66.0,48,180,11.0,0.0
9147,78.0,0,180,10.0,0.0
9148,45.0,0,300,14.0,0.0
9149,69.0,0,390,4.0,0.0
9150,61.0,24,300,11.0,0.0
9151,57.0,0,390,4.0,0.0
9152,57.0,72,300,13.0,0.0
9153,76.0,48,240,10.0,0.0
9154,73.0,0,300,1.0,0.0
9155,64.0,0,300,3.0,0.0
9156,69.0,0,300,12.0,0.0
9157,76.0,0,300,1.0,0.0
9158,61.0,0,300,3.0,0.0
9159,81.0,240,150,10.0,0.0
9160,50.0,0,300,13.0,0.0
9161,74.0,72,300,1.0,0.0
9162,59.0,0,300,3.0,0.0
9163,78.0,0,150,10.0,0.0
9164,71.0,0,300,1.0,0.0
9165,62.0,0,300,3.0,0.0
9166,74.0,168,150,11.0,0.0
9167,38.0,0,300,14.0,0.0
9168,62.0,0,300,12.0,0.0
9169,86.0,0,300,0.0,0.0
9170,74.0,336,150,10.0,0.0
9171,71.0,0,150,11.0,0.0
9172,69.0,0,300,1.0,0.0
9173,73.0,72,240,10.0,0.0
9174,69.0,0,240,11.0,0.0
9175,73.0,72,300,1.0,0.0
9176,40.0,0,300,14.0,0.0
9177,57.0,0,300,3.0,0.0
9178,69.0,240,390,4.0,0.0
9179,61.0,0,300,3.0,0.0
9180,85.0,0,300,0.0,0.0
9181,73.0,0,390,4.0,0.0
9182,52.0,0,300,13.0,0.0
9183,64.0,0,300,12.0,0.0
9184,76.0,0,150,10.0,0.0
9185,73.0,0,150,11.0,0.0
9186,71.0,0,150,11.0,0.0
9187,40.0,0,300,14.0,0.0
9188,52.0,0,300,13.0,0.0
9189,64.0,0,300,12.0,0.0
9190,64.0,0,390,4.0,0.0
9191,68.0,0,300,1.0,0.0
9192,71.0,0,300,1.0,0.0
9193,56.0,0,300,3.0,0.0
9194,74.0,168,150,10.0,0.0
9195,59.0,72,300,3.0,0.0
9196,71.0,0,390,4.0,0.0
9197,83.0,0,300,0.0,0.0
9198,68.0,0,150,11.0,0.0
9199,71.0,408,150,10.0,0.0
9200,33.0,0,300,14.0,0.0
9201,81.0,0,390,0.0,0.0
9202,69.0,0,390,11.0,0.0
9203,61.0,0,390,4.0,0.0
9204,57.0,72,300,12.0,0.0
9205,69.0,0,390,4.0,0.0
9206,69.0,0,390,1.0,0.0
9207,45.0,0,300,13.0,0.0
9208,57.0,0,390,3.0,0.0
9209,69.0,408,390,10.0,0.0
9210,45.0,456,300,14.0,0.0
9211,57.0,0,300,13.0,0.0
9212,69.0,0,300,12.0,0.0
9213,73.0,0,300,10.0,0.0
9214,69.0,576,300,11.0,0.0
9215,73.0,384,480,10.0,0.0
9216,69.0,96,390,11.0,0.0
9217,40.0,0,390,14.0,0.0
9218,71.0,0,780,10.0,0.0
9219,64.0,0,390,12.0,0.0
9220,52.0,384,390,13.0,0.0
9221,68.0,96,780,11.0,0.0
9222,64.0,0,390,12.0,0.0
9223,40.0,384,390,14.0,0.0
9224,52.0,0,390,13.0,0.0
9225,47.0,0,780,13.0,0.0
9226,35.0,96,780,14.0,0.0
9227,66.0,0,780,12.0,0.0
9228,74.0,0,300,10.0,0.0
9229,71.0,480,300,11.0,0.0
9230,71.0,96,390,11.0,0.0
9231,74.0,384,480,10.0,0.0
9232,42.0,384,390,14.0,0.0
9233,54.0,0,390,13.0,0.0
9234,66.0,0,390,12.0,0.0
9235,73.0,96,780,10.0,0.0
9236,69.0,0,780,11.0,0.0
9237,42.0,0,390,14.0,0.0
9238,66.0,384,390,12.0,0.0
9239,54.0,0,390,13.0,0.0
9240,74.0,480,300,11.0,0.0
9241,38.0,0,780,14.0,0.0
9242,69.0,192,780,12.0,0.0
9243,78.0,0,300,10.0,0.0
9244,54.0,0,780,13.0,0.0
9245,78.0,384,480,10.0,0.0
9246,74.0,240,960,11.0,0.0
9247,76.0,0,1440,10.0,0.0
9248,56.0,0,390,13.0,0.0
9249,71.0,0,960,12.0,0.0
9250,44.0,96,390,14.0,0.0
9251,44.0,0,480,14.0,0.0
9252,56.0,480,480,13.0,0.0
9253,76.0,240,240,11.0,0.0
9254,74.0,0,240,11.0,0.0
9255,73.0,0,480,11.0,0.0
9256,69.0,0,480,12.0,0.0
9257,45.0,480,480,14.0,0.0
9258,57.0,0,480,13.0,0.0
9259,66.0,0,480,12.0,0.0
9260,74.0,0,480,10.0,0.0
9261,50.0,0,480,13.0,0.0
9262,71.0,480,480,11.0,0.0
9263,38.0,0,480,14.0,0.0
9264,69.0,288,480,11.0,0.0
9265,64.0,96,780,12.0,0.0
9266,40.0,0,780,14.0,0.0
9267,52.0,0,780,13.0,0.0
9268,73.0,0,480,10.0,0.0
9269,68.0,576,390,11.0,0.0
9270,71.0,0,390,10.0,0.0
9271,68.0,480,960,2.0,0.0
9272,76.0,0,1920,1.0,0.0
9273,49.0,480,480,3.0,0.0
9274,52.0,0,480,3.0,0.0
9275,61.0,480,960,3.0,0.0
9276,54.0,384,480,3.0,0.0
9277,69.0,240,1440,2.0,0.0
9278,57.0,96,390,3.0,0.0
9279,59.0,384,1440,3.0,0.0
9280,47.0,0,480,3.0,0.0
9281,74.0,480,1920,1.0,0.0
9282,71.0,240,240,2.0,0.0
9283,50.0,0,480,3.0,0.0
9284,69.0,480,240,2.0,0.0
9285,52.0,0,480,3.0,0.0
9286,68.0,0,480,2.0,0.0
9287,71.0,0,480,2.0,0.0
9288,64.0,480,960,3.0,0.0
9289,56.0,96,390,3.0,0.0
9290,69.0,0,480,2.0,0.0
9291,57.0,0,480,3.0,0.0
9292,73.0,0,1440,1.0,0.0
9293,59.0,0,480,3.0,0.0
9294,53.0,0,480,3.0,0.0
9295,68.0,480,480,2.0,0.0
9296,57.0,0,480,3.0,0.0
9297,66.0,480,480,2.0,0.0
9298,54.0,0,480,3.0,0.0
9299,50.0,480,480,3.0,0.0
9300,71.0,0,480,2.0,0.0
9301,74.0,0,480,1.0,0.0
9302,66.0,0,480,3.0,0.0
9303,64.0,0,480,3.0,0.0
9304,73.0,0,480,1.0,0.0
9305,69.0,0,480,2.0,0.0
9306,52.0,384,480,3.0,0.0
9307,64.0,48,390,4.0,0.0
9308,62.0,0,480,3.0,0.0
9309,52.0,0,480,3.0,0.0
9310,71.0,48,420,1.0,0.0
9311,62.0,0,480,3.0,0.0
9312,68.0,480,15,2.0,0.0
9313,45.0,0,780,3.0,0.0
9314,64.0,96,780,4.0,0.0
9315,57.0,0,780,4.0,0.0
9316,71.0,288,480,1.0,0.0
9317,69.0,288,390,2.0,0.0
9318,61.0,0,390,3.0,0.0
9319,73.0,0,390,1.0,0.0
9320,73.0,48,390,10.0,0.0
9321,64.0,0,390,12.0,0.0
9322,69.0,144,780,7.0,0.0
9323,57.0,0,390,13.0,0.0
9324,45.0,0,390,14.0,0.0
9325,69.0,0,390,11.0,0.0
9326,73.0,192,180,6.0,0.0
9327,71.0,240,180,6.0,0.0
9328,73.0,96,180,6.0,0.0
9329,74.0,240,180,6.0,0.0
9330,71.0,0,390,6.0,0.0
9331,52.0,48,390,13.0,0.0
9332,68.0,0,390,11.0,0.0
9333,52.0,192,180,7.0,0.0
9334,68.0,0,390,7.0,0.0
9335,40.0,0,390,14.0,0.0
9336,71.0,0,390,10.0,0.0
9337,64.0,0,390,12.0,0.0
9338,54.0,240,180,7.0,0.0
9339,56.0,240,180,7.0,0.0
9340,57.0,240,180,7.0,0.0
9341,59.0,0,390,13.0,0.0
9342,59.0,0,390,7.0,0.0
9343,66.0,0,390,12.0,0.0
9344,74.0,0,390,10.0,0.0
9345,74.0,192,180,6.0,0.0
9346,47.0,0,390,14.0,0.0
9347,71.0,48,390,11.0,0.0
9348,71.0,144,780,7.0,0.0
9349,73.0,240,180,6.0,0.0
9350,74.0,96,180,6.0,0.0
9351,76.0,240,180,6.0,0.0
9352,54.0,192,180,7.0,0.0
9353,69.0,0,390,7.0,0.0
9354,69.0,0,390,11.0,0.0
9355,54.0,0,390,13.0,0.0
9356,66.0,0,390,12.0,0.0
9357,73.0,0,390,10.0,0.0
9358,42.0,48,390,14.0,0.0
9359,73.0,0,390,6.0,0.0
9360,57.0,240,180,7.0,0.0
9361,59.0,240,180,7.0,0.0
9362,61.0,240,180,7.0,0.0
9363,78.0,96,780,6.0,0.0
9364,74.0,48,870,11.0,0.0
9365,50.0,0,1440,14.0,0.0
9366,62.0,48,1350,7.0,0.0
9367,62.0,192,1440,13.0,0.0
9368,78.0,0,870,10.0,0.0
9369,74.0,240,180,7.0,0.0
9370,69.0,0,870,12.0,0.0
9371,73.0,240,180,7.0,0.0
9372,71.0,96,180,7.0,0.0
9373,69.0,240,180,7.0,0.0
9374,68.0,192,180,7.0,0.0
9375,76.0,96,780,6.0,0.0
9376,68.0,0,480,12.0,0.0
9377,71.0,0,390,11.0,0.0
9378,76.0,0,960,10.0,0.0
9379,71.0,48,180,7.0,0.0
9380,69.0,48,390,12.0,0.0
9381,73.0,0,390,11.0,0.0
9382,49.0,0,480,14.0,0.0
9383,69.0,96,180,7.0,0.0
9384,61.0,0,390,7.0,0.0
9385,61.0,192,480,13.0,0.0
9386,73.0,48,180,7.0,0.0
9387,71.0,0,390,11.0,0.0
9388,74.0,0,480,10.0,0.0
9389,44.0,0,480,14.0,0.0
9390,56.0,192,480,13.0,0.0
9391,74.0,192,180,6.0,0.0
9392,64.0,48,390,12.0,0.0
9393,56.0,0,390,7.0,0.0
9394,71.0,0,390,7.0,0.0
9395,76.0,48,180,6.0,0.0
9396,73.0,192,180,6.0,0.0
9397,64.0,0,390,12.0,0.0
9398,57.0,0,480,13.0,0.0
9399,69.0,0,390,11.0,0.0
9400,69.0,0,390,7.0,0.0
9401,45.0,384,480,14.0,0.0
9402,57.0,48,390,7.0,0.0
9403,73.0,0,390,10.0,0.0
9404,74.0,48,180,6.0,0.0
9405,69.0,96,390,11.0,0.0
9406,69.0,0,480,7.0,0.0
9407,52.0,0,780,7.0,0.0
9408,40.0,0,780,14.0,0.0
9409,73.0,0,480,6.0,0.0
9410,73.0,288,480,10.0,0.0
9411,52.0,96,780,13.0,0.0
9412,64.0,0,780,12.0,0.0
9413,68.0,0,390,7.0,0.0
9414,71.0,0,390,6.0,0.0
9415,71.0,288,390,10.0,0.0
9416,68.0,0,390,11.0,0.0
9417,61.0,192,1440,3.0,0.0
9418,76.0,0,1920,1.0,0.0
9419,47.0,48,870,3.0,0.0
9420,76.0,192,1920,6.0,0.0
9421,68.0,0,780,2.0,0.0
9422,88.0,0,1920,0.0,0.0
9423,49.0,240,180,7.0,0.0
9424,68.0,96,780,7.0,0.0
9425,50.0,240,180,7.0,0.0
9426,52.0,96,180,7.0,0.0
9427,49.0,240,180,7.0,0.0
9428,69.0,0,1920,2.0,0.0
9429,54.0,240,180,7.0,0.0
9430,54.0,48,870,3.0,0.0
9431,69.0,192,1920,7.0,0.0
9432,52.0,48,180,7.0,0.0
9433,50.0,192,180,7.0,0.0
9434,66.0,192,960,3.0,0.0
9435,49.0,48,180,7.0,0.0
9436,86.0,192,1920,0.0,0.0
9437,47.0,48,870,3.0,0.0
9438,74.0,0,1920,1.0,0.0
9439,74.0,0,1920,6.0,0.0
9440,47.0,240,180,7.0,0.0
9441,49.0,48,180,7.0,0.0
9442,50.0,192,180,7.0,0.0
9443,59.0,192,960,3.0,0.0
9444,47.0,48,180,7.0,0.0
9445,52.0,240,180,7.0,0.0
9446,52.0,48,870,3.0,0.0
9447,68.0,0,960,2.0,0.0
9448,68.0,0,960,7.0,0.0
9449,50.0,48,180,7.0,0.0
9450,64.0,192,960,3.0,0.0
9451,49.0,192,180,7.0,0.0
9452,47.0,48,180,7.0,0.0
9453,69.0,0,1440,2.0,0.0
9454,73.0,0,1440,1.0,0.0
9455,73.0,0,1440,6.0,0.0
9456,85.0,0,1440,0.0,0.0
9457,45.0,240,180,7.0,0.0
9458,45.0,48,870,3.0,0.0
9459,69.0,0,1440,7.0,0.0
9460,52.0,48,180,7.0,0.0
9461,57.0,192,180,7.0,0.0
9462,57.0,192,960,3.0,0.0
9463,56.0,240,180,7.0,0.0
9464,54.0,144,300,3.0,0.0
9465,54.0,96,180,7.0,0.0
9466,52.0,48,180,7.0,0.0
9467,66.0,0,480,3.0,0.0
9468,71.0,0,480,7.0,0.0
9469,71.0,0,480,2.0,0.0
9470,50.0,144,300,3.0,0.0
9471,74.0,0,480,1.0,0.0
9472,86.0,192,480,0.0,0.0
9473,74.0,0,480,6.0,0.0
9474,50.0,96,180,7.0,0.0
9475,47.0,48,180,7.0,0.0
9476,69.0,0,480,7.0,0.0
9477,52.0,240,180,7.0,0.0
9478,52.0,144,780,3.0,0.0
9479,73.0,0,480,6.0,0.0
9480,85.0,0,480,0.0,0.0
9481,73.0,0,480,1.0,0.0
9482,69.0,192,480,2.0,0.0
9483,64.0,0,480,3.0,0.0
9484,50.0,48,180,7.0,0.0
9485,71.0,0,480,1.0,0.0
9486,71.0,0,480,6.0,0.0
9487,68.0,384,480,7.0,0.0
9488,62.0,0,480,3.0,0.0
9489,68.0,0,480,2.0,0.0
9490,52.0,96,180,7.0,0.0
9491,83.0,0,480,0.0,0.0
9492,40.0,48,180,7.0,0.0
9493,69.0,0,390,1.0,0.0
9494,61.0,0,390,3.0,0.0
9495,45.0,0,390,7.0,0.0
9496,81.0,48,390,0.0,0.0
9497,69.0,0,390,6.0,0.0
9498,45.0,0,390,3.0,0.0
9499,76.0,240,180,11.0,0.0
9500,76.0,0,180,10.0,0.0
9501,76.0,240,180,10.0,0.0
9502,76.0,0,180,11.0,0.0
9503,78.0,0,180,11.0,0.0
9504,78.0,240,180,10.0,0.0
9505,71.0,0,780,2.0,0.0
9506,80.0,0,180,11.0,0.0
9507,76.0,144,780,1.0,0.0
9508,80.0,0,780,0.0,0.0
9509,64.0,48,1830,13.0,0.0
9510,64.0,96,1740,4.0,0.0
9511,64.0,0,1830,3.0,0.0
9512,52.0,0,1830,14.0,0.0
9513,71.0,0,180,12.0,0.0
9514,80.0,240,180,10.0,0.0
9515,76.0,0,180,11.0,0.0
9516,68.0,240,180,12.0,0.0
9517,76.0,0,180,10.0,0.0
9518,69.0,0,180,12.0,0.0
9519,78.0,0,180,11.0,0.0
9520,78.0,96,180,10.0,0.0
9521,80.0,240,180,10.0,0.0
9522,80.0,0,180,11.0,0.0
9523,71.0,0,180,12.0,0.0
9524,81.0,0,180,10.0,0.0
9525,73.0,0,180,12.0,0.0
9526,78.0,192,1920,1.0,0.0
9527,73.0,0,480,2.0,0.0
9528,81.0,192,480,0.0,0.0
9529,81.0,240,180,11.0,0.0
9530,78.0,0,180,10.0,0.0
9531,78.0,48,180,11.0,0.0
9532,69.0,0,180,12.0,0.0
9533,80.0,48,180,11.0,0.0
9534,71.0,0,180,12.0,0.0
9535,83.0,0,240,0.0,0.0
9536,80.0,0,180,10.0,0.0
9537,71.0,48,240,2.0,0.0
9538,81.0,0,180,10.0,0.0
9539,85.0,192,240,0.0,0.0
9540,69.0,0,240,2.0,0.0
9541,81.0,0,180,11.0,0.0
9542,73.0,48,180,12.0,0.0
9543,71.0,96,1740,4.0,0.0
9544,86.0,192,720,0.0,0.0
9545,71.0,0,720,2.0,0.0
9546,66.0,48,390,12.0,0.0
9547,83.0,0,180,11.0,0.0
9548,62.0,0,1830,3.0,0.0
9549,83.0,192,180,10.0,0.0
9550,50.0,48,1830,14.0,0.0
9551,62.0,0,1830,13.0,0.0
9552,78.0,240,180,10.0,0.0
9553,78.0,0,180,11.0,0.0
9554,83.0,48,180,10.0,0.0
9555,74.0,0,180,12.0,0.0
9556,83.0,0,180,11.0,0.0
9557,73.0,48,180,12.0,0.0
9558,81.0,0,180,11.0,0.0
9559,69.0,0,240,2.0,0.0
9560,85.0,0,240,0.0,0.0
9561,81.0,0,180,10.0,0.0
9562,80.0,0,180,10.0,0.0
9563,64.0,0,780,4.0,0.0
9564,71.0,0,180,12.0,0.0
9565,76.0,144,1200,2.0,0.0
9566,80.0,0,240,1.0,0.0
9567,80.0,48,180,11.0,0.0
9568,83.0,192,240,0.0,0.0
9569,76.0,0,180,10.0,0.0
9570,83.0,192,240,1.0,0.0
9571,68.0,0,180,12.0,0.0
9572,80.0,0,240,0.0,0.0
9573,76.0,48,180,11.0,0.0
9574,78.0,0,180,11.0,0.0
9575,81.0,48,240,0.0,0.0
9576,78.0,0,180,10.0,0.0
9577,81.0,0,240,1.0,0.0
9578,69.0,48,180,12.0,0.0
9579,80.0,48,180,11.0,0.0
9580,83.0,0,240,0.0,0.0
9581,80.0,0,180,10.0,0.0
9582,71.0,0,180,12.0,0.0
9583,80.0,192,240,1.0,0.0
9584,49.0,120,1140,14.0,0.0
9585,61.0,0,1140,13.0,0.0
9586,69.0,144,780,4.0,0.0
9587,81.0,48,180,11.0,0.0
9588,61.0,0,1140,3.0,0.0
9589,64.0,48,390,12.0,0.0
9590,81.0,0,480,1.0,0.0
9591,85.0,192,480,0.0,0.0
9592,81.0,0,180,10.0,0.0
9593,73.0,0,780,4.0,0.0
9594,83.0,0,180,11.0,0.0
9595,74.0,0,240,2.0,0.0
9596,83.0,48,180,10.0,0.0
9597,85.0,0,180,11.0,0.0
9598,73.0,48,240,2.0,0.0
9599,76.0,192,480,1.0,0.0
9600,81.0,0,480,0.0,0.0
9601,85.0,48,180,10.0,0.0
9602,69.0,0,900,12.0,0.0
9603,76.0,0,240,2.0,0.0
9604,81.0,0,180,10.0,0.0
9605,81.0,48,180,11.0,0.0
9606,90.0,192,1920,0.0,0.0
9607,86.0,120,300,11.0,0.0
9608,74.0,192,2880,2.0,0.0
9609,86.0,0,300,10.0,0.0
9610,78.0,0,1920,1.0,0.0
9611,54.0,0,180,13.0,0.0
9612,42.0,0,180,14.0,0.0
9613,54.0,240,180,3.0,0.0
9614,86.0,144,780,11.0,0.0
9615,56.0,0,180,3.0,0.0
9616,44.0,0,180,14.0,0.0
9617,71.0,240,180,12.0,0.0
9618,56.0,0,180,13.0,0.0
9619,86.0,0,780,10.0,0.0
9620,57.0,0,180,13.0,0.0
9621,57.0,0,180,3.0,0.0
9622,73.0,240,180,12.0,0.0
9623,45.0,0,180,14.0,0.0
9624,59.0,0,180,13.0,0.0
9625,59.0,0,180,3.0,0.0
9626,47.0,0,180,14.0,0.0
9627,74.0,96,180,12.0,0.0
9628,54.0,240,180,3.0,0.0
9629,42.0,0,180,14.0,0.0
9630,54.0,0,180,13.0,0.0
9631,69.0,0,180,12.0,0.0
9632,59.0,0,180,13.0,0.0
9633,59.0,0,180,3.0,0.0
9634,47.0,240,180,14.0,0.0
9635,74.0,0,180,12.0,0.0
9636,86.0,120,780,11.0,0.0
9637,86.0,0,780,10.0,0.0
9638,73.0,0,180,12.0,0.0
9639,57.0,48,180,3.0,0.0
9640,45.0,0,180,14.0,0.0
9641,57.0,0,180,13.0,0.0
9642,44.0,0,180,14.0,0.0
9643,71.0,24,780,4.0,0.0
9644,64.0,0,780,4.0,0.0
9645,88.0,192,1440,0.0,0.0
9646,71.0,120,180,12.0,0.0
9647,56.0,0,180,3.0,0.0
9648,56.0,0,180,13.0,0.0
9649,83.0,0,960,1.0,0.0
9650,40.0,240,180,14.0,0.0
9651,68.0,0,180,12.0,0.0
9652,52.0,0,180,13.0,0.0
9653,52.0,0,180,3.0,0.0
9654,42.0,0,180,14.0,0.0
9655,54.0,0,180,3.0,0.0
9656,76.0,120,300,10.0,0.0
9657,76.0,0,300,11.0,0.0
9658,54.0,96,180,13.0,0.0
9659,69.0,0,180,12.0,0.0
9660,71.0,0,180,12.0,0.0
9661,56.0,0,180,3.0,0.0
9662,44.0,48,180,14.0,0.0
9663,56.0,0,180,13.0,0.0
9664,57.0,120,180,13.0,0.0
9665,81.0,192,960,1.0,0.0
9666,73.0,24,780,4.0,0.0
9667,69.0,0,780,4.0,0.0
9668,73.0,0,960,2.0,0.0
9669,64.0,0,180,12.0,0.0
9670,45.0,0,180,14.0,0.0
9671,57.0,0,180,3.0,0.0
9672,85.0,120,300,11.0,0.0
9673,85.0,0,300,10.0,0.0
9674,44.0,0,180,14.0,0.0
9675,61.0,0,180,12.0,0.0
9676,56.0,0,180,3.0,0.0
9677,56.0,48,180,13.0,0.0
9678,54.0,96,180,13.0,0.0
9679,42.0,0,180,14.0,0.0
9680,81.0,0,480,0.0,0.0
9681,54.0,0,180,3.0,0.0
9682,69.0,120,300,10.0,0.0
9683,66.0,0,180,12.0,0.0
9684,69.0,0,300,11.0,0.0
9685,52.0,0,180,13.0,0.0
9686,52.0,0,180,3.0,0.0
9687,40.0,48,180,14.0,0.0
9688,64.0,0,180,12.0,0.0
9689,62.0,0,180,12.0,0.0
9690,38.0,0,180,14.0,0.0
9691,50.0,120,180,3.0,0.0
9692,83.0,0,900,0.0,0.0
9693,74.0,0,900,2.0,0.0
9694,62.0,120,300,10.0,0.0
9695,50.0,0,180,13.0,0.0
9696,78.0,240,900,1.0,0.0
9697,62.0,0,300,11.0,0.0
9698,62.0,0,180,12.0,0.0
9699,50.0,0,180,3.0,0.0
9700,38.0,0,180,14.0,0.0
9701,50.0,240,180,13.0,0.0
9702,83.0,0,300,11.0,0.0
9703,38.0,120,180,14.0,0.0
9704,50.0,0,180,3.0,0.0
9705,62.0,0,180,12.0,0.0
9706,50.0,0,180,13.0,0.0
9707,83.0,120,300,10.0,0.0
9708,50.0,0,180,3.0,0.0
9709,50.0,0,180,13.0,0.0
9710,62.0,0,180,12.0,0.0
9711,38.0,0,180,14.0,0.0
9712,80.0,240,900,0.0,0.0
9713,52.0,0,180,13.0,0.0
9714,40.0,120,180,14.0,0.0
9715,71.0,24,780,4.0,0.0
9716,64.0,0,180,12.0,0.0
9717,64.0,0,300,11.0,0.0
9718,64.0,0,780,4.0,0.0
9719,52.0,0,180,3.0,0.0
9720,74.0,0,900,1.0,0.0
9721,71.0,0,900,2.0,0.0
9722,64.0,120,300,10.0,0.0
9723,52.0,0,180,13.0,0.0
9724,64.0,0,180,12.0,0.0
9725,40.0,240,180,14.0,0.0
9726,52.0,0,180,3.0,0.0
9727,52.0,96,180,13.0,0.0
9728,80.0,120,300,11.0,0.0
9729,40.0,0,180,14.0,0.0
9730,64.0,0,180,12.0,0.0
9731,80.0,0,300,10.0,0.0
9732,52.0,0,180,3.0,0.0
9733,52.0,0,180,3.0,0.0
9734,40.0,0,180,14.0,0.0
9735,64.0,0,180,12.0,0.0
9736,52.0,0,180,13.0,0.0
9737,69.0,0,900,2.0,0.0
9738,69.0,0,780,4.0,0.0
9739,57.0,0,780,4.0,0.0
9740,66.0,120,300,11.0,0.0
9741,66.0,0,180,12.0,0.0
9742,81.0,240,900,0.0,0.0
9743,54.0,0,180,13.0,0.0
9744,73.0,0,900,1.0,0.0
9745,66.0,0,300,10.0,0.0
9746,54.0,24,780,3.0,0.0
9747,42.0,120,180,14.0,0.0
9748,42.0,240,180,14.0,0.0
9749,54.0,0,180,13.0,0.0
9750,66.0,0,180,12.0,0.0
9751,66.0,0,180,12.0,0.0
9752,81.0,0,300,10.0,0.0
9753,54.0,0,180,13.0,0.0
9754,81.0,120,300,11.0,0.0
9755,42.0,96,180,14.0,0.0
9756,42.0,0,180,14.0,0.0
9757,66.0,0,180,12.0,0.0
9758,54.0,0,180,13.0,0.0
9759,62.0,120,300,10.0,0.0
9760,74.0,0,900,2.0,0.0
9761,90.0,0,900,0.0,0.0
9762,62.0,0,300,11.0,0.0
9763,57.0,0,780,4.0,0.0
9764,69.0,24,780,4.0,0.0
9765,62.0,0,180,12.0,0.0
9766,66.0,0,900,3.0,0.0
9767,78.0,0,900,1.0,0.0
9768,38.0,120,180,14.0,0.0
9769,62.0,240,900,3.0,0.0
9770,50.0,0,180,13.0,0.0
9771,38.0,240,180,14.0,0.0
9772,50.0,0,180,13.0,0.0
9773,62.0,0,180,12.0,0.0
9774,50.0,96,180,13.0,0.0
9775,62.0,0,180,12.0,0.0
9776,38.0,0,180,14.0,0.0
9777,78.0,0,300,11.0,0.0
9778,78.0,120,300,10.0,0.0
9779,50.0,0,180,13.0,0.0
9780,62.0,0,180,12.0,0.0
9781,38.0,0,180,14.0,0.0
9782,64.0,0,780,4.0,0.0
9783,64.0,0,180,12.0,0.0
9784,61.0,0,300,10.0,0.0
9785,40.0,0,180,14.0,0.0
9786,52.0,24,780,4.0,0.0
9787,52.0,120,180,13.0,0.0
9788,57.0,0,900,3.0,0.0
9789,61.0,0,900,3.0,0.0
9790,61.0,120,300,11.0,0.0
9791,85.0,240,900,0.0,0.0
9792,73.0,0,900,1.0,0.0
9793,69.0,0,900,2.0,0.0
9794,40.0,240,180,14.0,0.0
9795,64.0,0,180,12.0,0.0
9796,52.0,0,180,13.0,0.0
9797,64.0,0,180,12.0,0.0
9798,76.0,0,300,11.0,0.0
9799,52.0,96,180,13.0,0.0
9800,40.0,0,180,14.0,0.0
9801,76.0,120,300,10.0,0.0
9802,64.0,0,180,12.0,0.0
9803,52.0,0,180,13.0,0.0
9804,40.0,0,180,14.0,0.0
9805,52.0,120,180,13.0,0.0
9806,56.0,0,900,3.0,0.0
9807,59.0,0,900,3.0,0.0
9808,68.0,0,900,2.0,0.0
9809,64.0,24,780,4.0,0.0
9810,40.0,0,180,14.0,0.0
9811,64.0,0,180,12.0,0.0
9812,59.0,120,300,11.0,0.0
9813,71.0,284,900,1.0,0.0
9814,52.0,0,780,4.0,0.0
9815,59.0,0,300,10.0,0.0
9816,83.0,0,900,0.0,0.0
9817,40.0,240,180,14.0,0.0
9818,52.0,0,180,13.0,0.0
9819,64.0,0,180,12.0,0.0
9820,40.0,0,180,14.0,0.0
9821,68.0,0,300,10.0,0.0
9822,64.0,0,180,12.0,0.0
9823,52.0,96,180,13.0,0.0
9824,68.0,120,300,11.0,0.0
9825,40.0,0,180,14.0,0.0
9826,64.0,0,180,12.0,0.0
9827,52.0,0,180,13.0,0.0
9828,64.0,0,390,11.0,0.0
9829,57.0,0,390,11.0,0.0
9830,45.0,0,390,13.0,0.0
9831,69.0,0,390,11.0,0.0
9832,69.0,0,390,10.0,0.0
9833,64.0,0,390,10.0,0.0
9834,57.0,0,390,12.0,0.0
9835,33.0,0,390,14.0,0.0
9836,69.0,0,390,1.0,0.0
9837,57.0,0,390,10.0,0.0
9838,45.0,148,240,7.0,0.0
9839,81.0,92,390,0.0,0.0
9840,57.0,0,390,3.0,0.0
9841,57.0,240,240,7.0,0.0
9842,49.0,240,240,7.0,0.0
9843,57.0,4,240,7.0,0.0
9844,52.0,240,240,7.0,0.0
9845,57.0,236,15,4.0,0.0
9846,57.0,240,240,7.0,0.0
9847,49.0,240,240,7.0,0.0
9848,57.0,240,240,7.0,0.0
9849,61.0,0,390,15.0,0.0
9850,69.0,68,1380,6.0,0.0
9851,45.0,148,240,7.0,0.0
9852,64.0,92,390,15.0,0.0
9853,76.0,0,390,5.0,0.0
9854,79.0,0,390,5.0,0.0
9855,69.0,0,390,5.0,0.0
9856,73.0,0,390,5.0,0.0
9857,57.0,240,240,7.0,0.0
9858,52.0,240,240,7.0,0.0
9859,57.0,240,240,7.0,0.0
9860,55.0,172,240,7.0,0.0
9861,57.0,196,240,7.0,0.0
9862,52.0,196,240,7.0,0.0
9863,71.0,44,180,6.0,0.0
9864,57.0,240,240,7.0,0.0
9865,73.0,44,180,6.0,0.0
9866,74.0,0,390,6.0,0.0
9867,45.0,148,240,7.0,0.0
9868,62.0,92,390,15.0,0.0
9869,74.0,0,390,5.0,0.0
9870,78.0,0,390,5.0,0.0
9871,69.0,0,390,5.0,0.0
9872,57.0,0,390,15.0,0.0
9873,57.0,240,240,7.0,0.0
9874,74.0,92,390,6.0,0.0
9875,50.0,148,240,7.0,0.0
9876,57.0,196,240,7.0,0.0
9877,54.0,196,240,7.0,0.0
9878,74.0,44,180,6.0,0.0
9879,57.0,196,240,7.0,0.0
9880,76.0,44,180,6.0,0.0
9881,78.0,44,180,6.0,0.0
9882,50.0,196,240,7.0,0.0
9883,57.0,240,240,7.0,0.0
9884,79.0,44,180,6.0,0.0
9885,45.0,148,240,7.0,0.0
9886,57.0,0,390,15.0,0.0
9887,55.0,0,390,15.0,0.0
9888,81.0,92,390,6.0,0.0
9889,73.0,0,390,5.0,0.0
9890,67.0,0,390,5.0,0.0
9891,76.0,0,390,5.0,0.0
9892,57.0,240,240,7.0,0.0
9893,52.0,148,240,7.0,0.0
9894,81.0,92,390,6.0,0.0
9895,57.0,240,240,7.0,0.0
9896,55.0,148,240,7.0,0.0
9897,81.0,92,390,6.0,0.0
9898,57.0,196,240,7.0,0.0
9899,83.0,44,180,6.0,0.0
9900,52.0,196,240,7.0,0.0
9901,57.0,240,240,7.0,0.0
9902,85.0,44,180,6.0,0.0
9903,45.0,148,240,7.0,0.0
9904,54.0,0,390,15.0,0.0
9905,69.0,0,390,5.0,0.0
9906,66.0,0,390,5.0,0.0
9907,74.0,0,390,5.0,0.0
9908,86.0,92,390,6.0,0.0
9909,57.0,0,390,15.0,0.0
9910,57.0,240,240,7.0,0.0
9911,86.0,92,390,6.0,0.0
9912,50.0,148,240,7.0,0.0
9913,57.0,240,240,7.0,0.0
9914,86.0,92,390,6.0,0.0
9915,54.0,148,240,7.0,0.0
9916,57.0,196,240,7.0,0.0
9917,85.0,44,180,6.0,0.0
9918,50.0,196,240,7.0,0.0
9919,57.0,240,240,7.0,0.0
9920,83.0,44,180,6.0,0.0
9921,67.0,0,390,5.0,0.0
9922,64.0,0,390,5.0,0.0
9923,73.0,0,390,5.0,0.0
9924,81.0,0,390,6.0,0.0
9925,52.0,92,390,15.0,0.0
9926,61.0,0,390,15.0,0.0
9927,45.0,148,240,7.0,0.0
9928,57.0,240,240,7.0,0.0
9929,52.0,148,240,7.0,0.0
9930,81.0,92,390,6.0,0.0
9931,57.0,196,240,7.0,0.0
9932,81.0,44,180,6.0,0.0
9933,55.0,196,240,7.0,0.0
9934,57.0,196,240,7.0,0.0
9935,79.0,44,180,6.0,0.0
9936,52.0,196,240,7.0,0.0
9937,78.0,44,180,6.0,0.0
9938,76.0,44,180,6.0,0.0
9939,57.0,240,240,7.0,0.0
9940,45.0,148,240,7.0,0.0
9941,66.0,0,390,5.0,0.0
9942,74.0,92,390,6.0,0.0
9943,57.0,0,390,5.0,0.0
9944,62.0,0,390,15.0,0.0
9945,54.0,0,390,15.0,0.0
9946,74.0,0,390,5.0,0.0
9947,57.0,240,240,7.0,0.0
9948,50.0,148,240,7.0,0.0
9949,74.0,92,390,6.0,0.0
9950,57.0,196,240,7.0,0.0
9951,54.0,196,240,7.0,0.0
9952,74.0,44,180,6.0,0.0
9953,73.0,44,180,6.0,0.0
9954,57.0,196,240,7.0,0.0
9955,71.0,44,180,6.0,0.0
9956,50.0,196,240,7.0,0.0
9957,57.0,240,240,7.0,0.0
9958,69.0,44,180,6.0,0.0
9959,59.0,92,390,15.0,0.0
9960,80.0,0,390,5.0,0.0
9961,71.0,0,390,5.0,0.0
9962,59.0,0,390,5.0,0.0
9963,68.0,0,390,15.0,0.0
9964,68.0,0,390,6.0,0.0
9965,64.0,0,390,5.0,0.0
9966,45.0,148,240,7.0,0.0
9967,74.0,0,390,5.0,0.0
9968,52.0,0,390,15.0,0.0
9969,57.0,240,240,7.0,0.0
9970,47.0,148,240,7.0,0.0
9971,68.0,92,390,6.0,0.0
9972,57.0,196,240,7.0,0.0
9973,50.0,196,240,7.0,0.0
9974,68.0,44,180,6.0,0.0
9975,69.0,44,180,6.0,0.0
9976,57.0,196,240,7.0,0.0
9977,71.0,44,180,6.0,0.0
9978,47.0,196,240,7.0,0.0
9979,57.0,240,240,7.0,0.0
9980,68.0,44,180,6.0,0.0
9981,64.0,0,390,5.0,0.0
9982,33.0,96,15180,14.0,0.0
9983,73.0,0,390,5.0,0.0
9984,45.0,148,240,7.0,0.0
9985,81.0,0,390,5.0,0.0
9986,52.0,92,390,15.0,0.0
9987,61.0,0,390,15.0,0.0
9988,69.0,0,390,15.0,0.0
9989,45.0,0,15180,13.0,0.0
9990,57.0,0,390,5.0,0.0
9991,69.0,0,390,6.0,0.0
9992,57.0,196,240,7.0,0.0
9993,73.0,44,180,6.0,0.0
9994,49.0,196,240,7.0,0.0
9995,69.0,44,180,6.0,0.0
9996,57.0,240,240,7.0,0.0
9997,52.0,148,240,7.0,0.0
9998,64.0,92,390,6.0,0.0
9999,57.0,240,240,7.0,0.0
10000,49.0,148,240,7.0,0.0
10001,64.0,92,390,6.0,0.0
10002,57.0,240,240,7.0,0.0
10003,64.0,0,390,15.0,0.0
10004,76.0,0,390,5.0,0.0
10005,67.0,0,390,5.0,0.0
10006,69.0,0,390,5.0,0.0
10007,73.0,92,390,15.0,0.0
10008,79.0,0,390,5.0,0.0
10009,69.0,68,1380,0.0,0.0
10010,57.0,0,1380,1.0,0.0
10011,45.0,148,240,7.0,0.0
10012,45.0,0,1380,3.0,0.0
10013,76.0,236,480,6.0,0.0
10014,57.0,4,240,7.0,0.0
10015,52.0,76,240,7.0,0.0
10016,73.0,164,300,6.0,0.0
10017,57.0,240,240,7.0,0.0
10018,55.0,172,240,7.0,0.0
10019,57.0,160,240,7.0,0.0
10020,71.0,0,150,0.0,0.0
10021,69.0,84,300,6.0,0.0
10022,59.0,0,150,1.0,0.0
10023,52.0,76,240,7.0,0.0
10024,47.0,80,150,3.0,0.0
10025,61.0,80,150,1.0,0.0
10026,73.0,0,150,0.0,0.0
10027,49.0,0,150,3.0,0.0
10028,57.0,240,240,7.0,0.0
10029,74.0,0,390,5.0,0.0
10030,62.0,72,300,1.0,0.0
10031,45.0,76,240,7.0,0.0
10032,78.0,0,390,5.0,0.0
10033,78.0,236,480,6.0,0.0
10034,74.0,0,300,0.0,0.0
10035,57.0,0,390,15.0,0.0
10036,50.0,0,300,3.0,0.0
10037,66.0,0,390,5.0,0.0
10038,62.0,92,390,15.0,0.0
10039,69.0,0,390,5.0,0.0
10040,57.0,4,240,7.0,0.0
10041,50.0,0,300,3.0,0.0
10042,50.0,76,240,7.0,0.0
10043,62.0,0,300,1.0,0.0
10044,74.0,164,300,6.0,0.0
10045,74.0,0,300,0.0,0.0
10046,57.0,160,240,7.0,0.0
10047,74.0,0,150,0.0,0.0
10048,62.0,0,150,1.0,0.0
10049,54.0,160,240,7.0,0.0
10050,50.0,80,150,3.0,0.0
10051,57.0,160,240,7.0,0.0
10052,52.0,0,150,3.0,0.0
10053,64.0,0,150,1.0,0.0
10054,76.0,80,150,0.0,0.0
10055,69.0,84,300,6.0,0.0
10056,78.0,0,150,0.0,0.0
10057,66.0,0,150,1.0,0.0
10058,50.0,76,240,7.0,0.0
10059,54.0,80,150,3.0,0.0
10060,79.0,0,150,0.0,0.0
10061,67.0,80,150,1.0,0.0
10062,55.0,0,150,3.0,0.0
10063,57.0,196,240,7.0,0.0
10064,67.0,0,390,5.0,0.0
10065,55.0,0,390,15.0,0.0
10066,76.0,48,390,5.0,0.0
10067,69.0,0,300,1.0,0.0
10068,57.0,0,390,15.0,0.0
10069,57.0,0,300,3.0,0.0
10070,81.0,72,300,0.0,0.0
10071,79.0,44,180,6.0,0.0
10072,64.0,0,390,5.0,0.0
10073,73.0,0,390,5.0,0.0
10074,45.0,76,240,7.0,0.0
10075,78.0,44,180,6.0,0.0
10076,57.0,196,240,7.0,0.0
10077,52.0,76,240,7.0,0.0
10078,76.0,44,180,6.0,0.0
10079,81.0,120,300,0.0,0.0
10080,57.0,0,300,3.0,0.0
10081,69.0,0,300,1.0,0.0
10082,57.0,240,240,7.0,0.0
10083,74.0,44,180,6.0,0.0
10084,55.0,76,240,7.0,0.0
10085,69.0,0,300,1.0,0.0
10086,73.0,92,390,6.0,0.0
10087,81.0,72,300,0.0,0.0
10088,57.0,0,300,3.0,0.0
10089,57.0,160,240,7.0,0.0
10090,69.0,12,390,6.0,0.0
10091,83.0,0,150,0.0,0.0
10092,59.0,0,150,3.0,0.0
10093,71.0,80,150,1.0,0.0
10094,52.0,148,240,7.0,0.0
10095,61.0,0,150,3.0,0.0
10096,73.0,0,150,1.0,0.0
10097,85.0,80,150,0.0,0.0
10098,57.0,196,240,7.0,0.0
10099,69.0,0,390,5.0,0.0
10100,62.0,0,390,5.0,0.0
10101,66.0,48,390,5.0,0.0
10102,74.0,0,390,5.0,0.0
10103,81.0,44,180,6.0,0.0
10104,74.0,72,300,1.0,0.0
10105,45.0,76,240,7.0,0.0
10106,57.0,0,390,15.0,0.0
10107,62.0,0,300,3.0,0.0
10108,54.0,0,390,15.0,0.0
10109,86.0,0,300,0.0,0.0
10110,79.0,44,180,6.0,0.0
10111,57.0,196,240,7.0,0.0
10112,86.0,0,300,0.0,0.0
10113,50.0,76,240,7.0,0.0
10114,62.0,0,300,3.0,0.0
10115,78.0,44,180,6.0,0.0
10116,74.0,120,300,1.0,0.0
10117,57.0,240,240,7.0,0.0
10118,76.0,44,180,6.0,0.0
10119,74.0,0,300,1.0,0.0
10120,62.0,72,300,3.0,0.0
10121,74.0,92,390,6.0,0.0
10122,54.0,76,240,7.0,0.0
10123,86.0,0,300,0.0,0.0
10124,57.0,160,240,7.0,0.0
10125,85.0,0,150,0.0,0.0
10126,73.0,80,150,1.0,0.0
10127,61.0,0,150,3.0,0.0
10128,74.0,12,390,6.0,0.0
10129,50.0,148,240,7.0,0.0
10130,83.0,80,150,0.0,0.0
10131,71.0,0,150,1.0,0.0
10132,57.0,196,240,7.0,0.0
10133,59.0,0,150,3.0,0.0
10134,61.0,0,390,15.0,0.0
10135,57.0,0,300,3.0,0.0
10136,69.0,72,300,1.0,0.0
10137,64.0,48,390,5.0,0.0
10138,73.0,0,390,5.0,0.0
10139,67.0,0,390,5.0,0.0
10140,81.0,0,300,0.0,0.0
10141,73.0,44,180,6.0,0.0
10142,45.0,76,240,7.0,0.0
10143,52.0,0,390,15.0,0.0
10144,57.0,0,390,5.0,0.0
10145,74.0,44,180,6.0,0.0
10146,57.0,196,240,7.0,0.0
10147,81.0,0,300,1.0,0.0
10148,76.0,44,180,6.0,0.0
10149,69.0,0,300,1.0,0.0
10150,52.0,76,240,7.0,0.0
10151,57.0,0,300,3.0,0.0
10152,81.0,120,300,0.0,0.0
10153,57.0,160,240,7.0,0.0
10154,78.0,44,180,6.0,0.0
10155,81.0,84,300,0.0,0.0
10156,79.0,44,180,6.0,0.0
10157,57.0,0,150,3.0,0.0
10158,55.0,76,240,7.0,0.0
10159,69.0,36,150,1.0,0.0
10160,81.0,0,150,1.0,0.0
10161,79.0,0,150,1.0,0.0
10162,67.0,0,150,1.0,0.0
10163,67.0,0,150,3.0,0.0
10164,81.0,44,180,6.0,0.0
10165,55.0,36,150,3.0,0.0
10166,57.0,160,240,7.0,0.0
10167,83.0,0,150,0.0,0.0
10168,78.0,0,150,1.0,0.0
10169,52.0,160,240,7.0,0.0
10170,66.0,0,150,1.0,0.0
10171,83.0,44,180,6.0,0.0
10172,54.0,0,150,3.0,0.0
10173,66.0,36,150,3.0,0.0
10174,52.0,0,150,3.0,0.0
10175,85.0,44,180,6.0,0.0
10176,64.0,36,150,3.0,0.0
10177,57.0,196,240,7.0,0.0
10178,76.0,0,150,1.0,0.0
10179,64.0,0,150,1.0,0.0
10180,85.0,0,150,0.0,0.0
10181,62.0,0,390,15.0,0.0
10182,50.0,72,300,3.0,0.0
10183,62.0,0,300,3.0,0.0
10184,74.0,0,300,1.0,0.0
10185,62.0,0,300,1.0,0.0
10186,86.0,44,180,6.0,0.0
10187,45.0,76,240,7.0,0.0
10188,74.0,0,390,5.0,0.0
10189,66.0,0,390,5.0,0.0
10190,57.0,48,390,5.0,0.0
10191,86.0,0,300,0.0,0.0
10192,54.0,0,390,15.0,0.0
10193,57.0,196,240,7.0,0.0
10194,88.0,44,180,6.0,0.0
10195,86.0,0,300,0.0,0.0
10196,50.0,76,240,7.0,0.0
10197,62.0,0,300,3.0,0.0
10198,50.0,0,300,3.0,0.0
10199,86.0,44,180,6.0,0.0
10200,62.0,120,300,1.0,0.0
10201,74.0,0,300,1.0,0.0
10202,57.0,160,240,7.0,0.0
10203,85.0,44,180,6.0,0.0
10204,50.0,0,150,3.0,0.0
10205,86.0,0,150,0.0,0.0
10206,62.0,36,150,3.0,0.0
10207,86.0,44,180,6.0,0.0
10208,54.0,160,240,7.0,0.0
10209,74.0,0,150,1.0,0.0
10210,62.0,0,150,1.0,0.0
10211,57.0,160,240,7.0,0.0
10212,85.0,36,150,0.0,0.0
10213,61.0,0,150,1.0,0.0
10214,49.0,0,150,3.0,0.0
10215,61.0,0,150,3.0,0.0
10216,73.0,0,150,1.0,0.0
10217,85.0,44,180,6.0,0.0
10218,83.0,44,180,6.0,0.0
10219,71.0,0,150,1.0,0.0
10220,59.0,0,150,1.0,0.0
10221,83.0,0,150,0.0,0.0
10222,50.0,160,240,7.0,0.0
10223,59.0,36,150,3.0,0.0
10224,47.0,0,150,3.0,0.0
10225,57.0,196,240,7.0,0.0
10226,81.0,0,150,0.0,0.0
10227,57.0,36,150,3.0,0.0
10228,45.0,0,150,3.0,0.0
10229,69.0,0,150,1.0,0.0
10230,57.0,0,150,1.0,0.0
10231,81.0,44,180,6.0,0.0
10232,68.0,48,390,15.0,0.0
10233,59.0,0,390,15.0,0.0
10234,56.0,0,300,3.0,0.0
10235,44.0,0,300,3.0,0.0
10236,80.0,0,300,0.0,0.0
10237,52.0,0,390,15.0,0.0
10238,64.0,0,390,5.0,0.0
10239,45.0,76,240,7.0,0.0
10240,80.0,44,180,6.0,0.0
10241,68.0,0,300,1.0,0.0
10242,56.0,72,300,1.0,0.0
10243,71.0,0,390,5.0,0.0
10244,80.0,0,390,5.0,0.0
10245,57.0,196,240,7.0,0.0
10246,78.0,44,180,6.0,0.0
10247,80.0,0,300,0.0,0.0
10248,47.0,76,240,7.0,0.0
10249,76.0,44,180,6.0,0.0
10250,68.0,0,300,1.0,0.0
10251,56.0,0,300,1.0,0.0
10252,56.0,0,300,3.0,0.0
10253,44.0,120,300,3.0,0.0
10254,78.0,44,180,6.0,0.0
10255,57.0,160,240,7.0,0.0
10256,68.0,0,150,1.0,0.0
10257,44.0,0,150,3.0,0.0
10258,50.0,160,240,7.0,0.0
10259,56.0,36,150,1.0,0.0
10260,80.0,0,150,0.0,0.0
10261,56.0,0,150,3.0,0.0
10262,80.0,44,180,6.0,0.0
10263,81.0,0,150,0.0,0.0
10264,57.0,36,150,3.0,0.0
10265,81.0,44,180,6.0,0.0
10266,57.0,160,240,7.0,0.0
10267,57.0,0,150,1.0,0.0
10268,69.0,0,150,1.0,0.0
10269,45.0,0,150,3.0,0.0
10270,59.0,0,150,1.0,0.0
10271,47.0,36,150,3.0,0.0
10272,59.0,0,150,3.0,0.0
10273,83.0,44,180,6.0,0.0
10274,47.0,52,240,7.0,0.0
10275,71.0,0,150,1.0,0.0
10276,83.0,0,150,0.0,0.0
10277,68.0,0,150,1.0,0.0
10278,56.0,36,150,1.0,0.0
10279,80.0,0,150,0.0,0.0
10280,80.0,44,180,6.0,0.0
10281,44.0,0,150,3.0,0.0
10282,56.0,0,150,3.0,0.0
10283,57.0,160,240,7.0,0.0
10284,45.0,12,390,7.0,0.0
10285,45.0,96,1740,3.0,0.0
10286,57.0,0,1740,3.0,0.0
10287,57.0,60,1290,4.0,0.0
10288,69.0,0,1290,4.0,0.0
10289,57.0,0,150,12.0,0.0
10290,57.0,0,1290,13.0,0.0
10291,81.0,0,390,6.0,0.0
10292,81.0,72,300,0.0,0.0
10293,45.0,0,1290,14.0,0.0
10294,57.0,0,870,1.0,0.0
10295,69.0,12,870,1.0,0.0
10296,61.0,156,150,11.0,0.0
10297,64.0,0,150,11.0,0.0
10298,57.0,0,150,12.0,0.0
10299,64.0,0,150,11.0,0.0
10300,61.0,240,150,11.0,0.0
10301,64.0,0,150,11.0,0.0
10302,61.0,0,150,11.0,0.0
10303,57.0,0,150,12.0,0.0
10304,85.0,0,150,0.0,0.0
10305,85.0,228,150,10.0,0.0
10306,81.0,0,150,10.0,0.0
10307,61.0,240,150,11.0,0.0
10308,57.0,0,150,12.0,0.0
10309,64.0,0,150,11.0,0.0
10310,81.0,0,150,0.0,0.0
10311,64.0,180,150,11.0,0.0
10312,73.0,12,870,1.0,0.0
10313,61.0,0,150,11.0,0.0
10314,88.0,84,1260,0.0,0.0
10315,57.0,0,150,12.0,0.0
10316,76.0,0,1260,10.0,0.0
10317,69.0,0,870,1.0,0.0
10318,61.0,0,150,11.0,0.0
10319,57.0,240,150,12.0,0.0
10320,64.0,0,150,11.0,0.0
10321,64.0,0,150,11.0,0.0
10322,57.0,0,150,13.0,0.0
10323,45.0,0,150,14.0,0.0
10324,73.0,0,210,4.0,0.0
10325,61.0,72,210,4.0,0.0
10326,61.0,0,150,11.0,0.0
10327,57.0,60,150,12.0,0.0
10328,57.0,0,150,12.0,0.0
10329,57.0,0,210,4.0,0.0
10330,64.0,60,150,11.0,0.0
10331,45.0,0,150,14.0,0.0
10332,61.0,0,150,11.0,0.0
10333,57.0,0,150,13.0,0.0
10334,69.0,180,210,4.0,0.0
10335,74.0,0,1740,1.0,0.0
10336,64.0,60,1290,4.0,0.0
10337,52.0,0,1290,4.0,0.0
10338,64.0,156,150,11.0,0.0
10339,62.0,0,150,11.0,0.0
10340,71.0,108,1740,1.0,0.0
10341,56.0,0,1740,3.0,0.0
10342,44.0,0,1740,3.0,0.0
10343,59.0,0,150,12.0,0.0
10344,44.0,0,1290,14.0,0.0
10345,56.0,0,1290,13.0,0.0
10346,59.0,240,150,12.0,0.0
10347,64.0,0,150,11.0,0.0
10348,62.0,0,150,11.0,0.0
10349,62.0,0,150,11.0,0.0
10350,86.0,0,150,0.0,0.0
10351,64.0,0,150,11.0,0.0
10352,86.0,0,150,10.0,0.0
10353,59.0,240,150,12.0,0.0
10354,59.0,0,150,12.0,0.0
10355,83.0,0,150,10.0,0.0
10356,62.0,0,150,11.0,0.0
10357,83.0,240,150,0.0,0.0
10358,64.0,0,150,11.0,0.0
10359,64.0,0,150,11.0,0.0
10360,59.0,180,150,12.0,0.0
10361,88.0,84,1260,0.0,0.0
10362,76.0,0,1260,10.0,0.0
10363,62.0,0,150,11.0,0.0
10364,62.0,0,150,11.0,0.0
10365,64.0,240,150,11.0,0.0
10366,59.0,0,150,12.0,0.0
10367,64.0,72,210,4.0,0.0
10368,64.0,0,150,11.0,0.0
10369,62.0,0,150,11.0,0.0
10370,52.0,0,210,4.0,0.0
10371,56.0,0,150,13.0,0.0
10372,59.0,0,150,12.0,0.0
10373,44.0,60,150,14.0,0.0
10374,64.0,0,210,4.0,0.0
10375,52.0,180,210,4.0,0.0
10376,44.0,0,150,14.0,0.0
10377,56.0,0,150,13.0,0.0
10378,59.0,0,150,12.0,0.0
10379,62.0,60,150,11.0,0.0
10380,64.0,0,150,11.0,0.0
10381,73.0,108,1740,1.0,0.0
10382,45.0,0,1290,14.0,0.0
10383,57.0,156,150,12.0,0.0
10384,57.0,0,1740,3.0,0.0
10385,57.0,0,1290,4.0,0.0
10386,69.0,60,1290,4.0,0.0
10387,69.0,0,1740,1.0,0.0
10388,45.0,0,1740,3.0,0.0
10389,61.0,0,150,11.0,0.0
10390,64.0,0,150,11.0,0.0
10391,57.0,0,1290,13.0,0.0
10392,61.0,0,150,11.0,0.0
10393,64.0,240,150,11.0,0.0
10394,57.0,0,150,12.0,0.0
10395,61.0,0,150,11.0,0.0
10396,85.0,0,150,0.0,0.0
10397,57.0,240,150,12.0,0.0
10398,85.0,0,150,10.0,0.0
10399,64.0,0,150,11.0,0.0
10400,81.0,0,150,10.0,0.0
10401,81.0,0,150,0.0,0.0
10402,57.0,0,150,12.0,0.0
10403,64.0,240,150,11.0,0.0
10404,61.0,0,150,11.0,0.0
10405,88.0,84,1260,0.0,0.0
10406,76.0,0,1260,10.0,0.0
10407,64.0,0,150,11.0,0.0
10408,57.0,180,150,12.0,0.0
10409,61.0,0,150,11.0,0.0
10410,57.0,0,150,12.0,0.0
10411,61.0,0,150,11.0,0.0
10412,64.0,240,150,11.0,0.0
10413,61.0,0,210,4.0,0.0
10414,57.0,0,150,12.0,0.0
10415,73.0,72,210,4.0,0.0
10416,64.0,0,150,11.0,0.0
10417,45.0,60,150,14.0,0.0
10418,61.0,0,150,11.0,0.0
10419,57.0,0,150,13.0,0.0
10420,45.0,0,150,14.0,0.0
10421,57.0,0,150,12.0,0.0
10422,69.0,180,210,4.0,0.0
10423,57.0,0,210,4.0,0.0
10424,64.0,0,150,11.0,0.0
10425,61.0,60,150,11.0,0.0
10426,57.0,0,150,13.0,0.0
10427,59.0,156,150,12.0,0.0
10428,44.0,0,1740,3.0,0.0
10429,56.0,0,1740,3.0,0.0
10430,56.0,60,1290,13.0,0.0
10431,71.0,0,1740,1.0,0.0
10432,44.0,0,1290,14.0,0.0
10433,74.0,96,1740,1.0,0.0
10434,52.0,0,1290,4.0,0.0
10435,64.0,0,1290,4.0,0.0
10436,64.0,0,150,11.0,0.0
10437,62.0,0,150,11.0,0.0
10438,59.0,240,150,12.0,0.0
10439,64.0,0,150,11.0,0.0
10440,62.0,0,150,11.0,0.0
10441,64.0,0,150,11.0,0.0
10442,62.0,0,150,11.0,0.0
10443,86.0,0,150,10.0,0.0
10444,86.0,240,150,0.0,0.0
10445,59.0,0,150,12.0,0.0
10446,83.0,0,150,10.0,0.0
10447,64.0,0,150,11.0,0.0
10448,62.0,240,150,11.0,0.0
10449,83.0,0,150,0.0,0.0
10450,59.0,0,150,12.0,0.0
10451,76.0,84,1260,10.0,0.0
10452,88.0,12,870,0.0,0.0
10453,64.0,0,150,11.0,0.0
10454,62.0,0,150,11.0,0.0
10455,59.0,180,150,12.0,0.0
10456,59.0,240,150,12.0,0.0
10457,62.0,0,150,11.0,0.0
10458,64.0,0,150,11.0,0.0
10459,59.0,60,150,12.0,0.0
10460,62.0,0,150,11.0,0.0
10461,64.0,0,150,11.0,0.0
10462,44.0,0,150,14.0,0.0
10463,56.0,0,150,13.0,0.0
10464,64.0,72,210,4.0,0.0
10465,52.0,0,210,4.0,0.0
10466,56.0,0,150,13.0,0.0
10467,62.0,0,150,11.0,0.0
10468,59.0,0,150,12.0,0.0
10469,64.0,60,150,11.0,0.0
10470,44.0,0,150,14.0,0.0
10471,52.0,0,210,4.0,0.0
10472,64.0,180,210,4.0,0.0
10473,73.0,0,1740,1.0,0.0
10474,69.0,24,1740,1.0,0.0
10475,57.0,156,150,12.0,0.0
10476,64.0,0,150,11.0,0.0
10477,57.0,0,300,3.0,0.0
10478,85.0,0,1740,0.0,0.0
10479,57.0,0,300,13.0,0.0
10480,69.0,0,870,4.0,0.0
10481,57.0,12,870,4.0,0.0
10482,45.0,0,300,14.0,0.0
10483,61.0,0,150,11.0,0.0
10484,61.0,240,150,11.0,0.0
10485,57.0,0,150,12.0,0.0
10486,64.0,0,150,11.0,0.0
10487,57.0,0,150,12.0,0.0
10488,85.0,72,300,10.0,0.0
10489,57.0,0,150,3.0,0.0
10490,76.0,0,300,10.0,0.0
10491,45.0,0,150,14.0,0.0
10492,61.0,0,150,11.0,0.0
10493,57.0,0,150,13.0,0.0
10494,64.0,156,150,11.0,0.0
10495,61.0,240,150,11.0,0.0
10496,64.0,0,150,11.0,0.0
10497,45.0,0,150,14.0,0.0
10498,57.0,0,150,3.0,0.0
10499,57.0,0,150,12.0,0.0
10500,57.0,0,150,13.0,0.0
10501,66.0,0,150,12.0,0.0
10502,54.0,0,300,13.0,0.0
10503,42.0,84,300,14.0,0.0
10504,69.0,0,150,11.0,0.0
10505,61.0,156,150,11.0,0.0
10506,69.0,12,1830,4.0,0.0
10507,73.0,12,870,4.0,0.0
10508,54.0,0,300,3.0,0.0
10509,61.0,240,150,11.0,0.0
10510,66.0,0,150,12.0,0.0
10511,69.0,0,150,11.0,0.0
10512,42.0,0,150,14.0,0.0
10513,66.0,0,150,12.0,0.0
10514,73.0,72,300,10.0,0.0
10515,54.0,0,150,3.0,0.0
10516,81.0,0,300,10.0,0.0
10517,61.0,0,150,11.0,0.0
10518,69.0,0,150,11.0,0.0
10519,54.0,132,150,13.0,0.0
10520,66.0,0,150,12.0,0.0
10521,54.0,240,150,3.0,0.0
10522,61.0,0,150,11.0,0.0
10523,42.0,0,150,14.0,0.0
10524,54.0,0,150,13.0,0.0
10525,69.0,0,150,11.0,0.0
10526,38.0,0,300,14.0,0.0
10527,74.0,204,900,1.0,0.0
10528,71.0,0,870,4.0,0.0
10529,86.0,0,870,0.0,0.0
10530,50.0,0,300,13.0,0.0
10531,71.0,0,900,1.0,0.0
10532,66.0,0,150,12.0,0.0
10533,59.0,0,150,11.0,0.0
10534,69.0,156,150,11.0,0.0
10535,50.0,84,300,3.0,0.0
10536,59.0,240,150,11.0,0.0
10537,69.0,0,150,11.0,0.0
10538,66.0,0,150,12.0,0.0
10539,38.0,0,150,14.0,0.0
10540,59.0,0,150,11.0,0.0
10541,69.0,0,150,11.0,0.0
10542,50.0,156,150,13.0,0.0
10543,50.0,0,150,3.0,0.0
10544,83.0,0,300,10.0,0.0
10545,66.0,0,150,12.0,0.0
10546,74.0,72,300,10.0,0.0
10547,66.0,0,150,12.0,0.0
10548,38.0,0,150,14.0,0.0
10549,50.0,0,150,3.0,0.0
10550,59.0,0,150,11.0,0.0
10551,69.0,0,150,11.0,0.0
10552,50.0,36,150,13.0,0.0
10553,52.0,0,300,13.0,0.0
10554,64.0,12,870,4.0,0.0
10555,68.0,0,900,1.0,0.0
10556,52.0,84,300,3.0,0.0
10557,64.0,0,150,12.0,0.0
10558,68.0,0,150,11.0,0.0
10559,40.0,0,300,14.0,0.0
10560,83.0,0,870,0.0,0.0
10561,59.0,156,150,11.0,0.0
10562,71.0,240,900,1.0,0.0
10563,68.0,0,150,11.0,0.0
10564,59.0,240,150,11.0,0.0
10565,64.0,0,150,12.0,0.0
10566,71.0,72,300,10.0,0.0
10567,80.0,0,300,10.0,0.0
10568,40.0,156,150,14.0,0.0
10569,68.0,0,150,11.0,0.0
10570,59.0,0,150,11.0,0.0
10571,64.0,0,150,12.0,0.0
10572,52.0,0,150,3.0,0.0
10573,52.0,0,150,13.0,0.0
10574,64.0,0,150,12.0,0.0
10575,52.0,0,150,13.0,0.0
10576,59.0,36,150,11.0,0.0
10577,40.0,0,150,14.0,0.0
10578,52.0,0,150,3.0,0.0
10579,68.0,0,150,11.0,0.0
10580,57.0,0,180,7.0,0.0
10581,81.0,48,390,0.0,0.0
10582,64.0,0,7650,4.0,0.0
10583,33.0,0,1920,14.0,0.0
10584,69.0,0,480,11.0,0.0
10585,69.0,0,390,1.0,0.0
10586,45.0,0,1920,13.0,0.0
10587,52.0,38,7650,4.0,0.0
10588,73.0,192,180,6.0,0.0
10589,81.0,156,480,10.0,0.0
10590,45.0,0,390,3.0,0.0
10591,57.0,0,1920,12.0,0.0
10592,74.0,48,180,6.0,0.0
10593,59.0,0,180,7.0,0.0
10594,76.0,0,180,6.0,0.0
10595,64.0,0,390,11.0,0.0
10596,73.0,0,150,1.0,0.0
10597,61.0,192,180,7.0,0.0
10598,61.0,0,150,3.0,0.0
10599,76.0,12,390,10.0,0.0
10600,85.0,36,150,0.0,0.0
10601,78.0,0,180,6.0,0.0
10602,69.0,36,150,1.0,0.0
10603,62.0,240,180,7.0,0.0
10604,81.0,0,150,0.0,0.0
10605,57.0,0,150,3.0,0.0
10606,64.0,0,1260,1.0,0.0
10607,52.0,0,1260,3.0,0.0
10608,76.0,120,1260,0.0,0.0
10609,80.0,240,180,6.0,0.0
10610,64.0,0,180,7.0,0.0
10611,66.0,0,180,7.0,0.0
10612,81.0,240,180,6.0,0.0
10613,68.0,240,180,7.0,0.0
10614,83.0,0,180,6.0,0.0
10615,76.0,192,480,10.0,0.0
10616,64.0,0,480,11.0,0.0
10617,69.0,48,180,7.0,0.0
10618,85.0,0,180,6.0,0.0
10619,44.0,0,1890,13.0,0.0
10620,56.0,38,1890,12.0,0.0
10621,74.0,156,480,11.0,0.0
10622,32.0,0,1890,14.0,0.0
10623,86.0,0,180,6.0,0.0
10624,86.0,0,480,10.0,0.0
10625,71.0,120,180,7.0,0.0
10626,85.0,0,180,6.0,0.0
10627,69.0,48,180,7.0,0.0
10628,86.0,0,150,0.0,0.0
10629,76.0,0,390,10.0,0.0
10630,83.0,0,180,6.0,0.0
10631,68.0,192,180,7.0,0.0
10632,62.0,0,150,3.0,0.0
10633,64.0,12,390,11.0,0.0
10634,74.0,36,150,1.0,0.0
10635,71.0,36,150,1.0,0.0
10636,83.0,0,150,0.0,0.0
10637,66.0,240,180,7.0,0.0
10638,59.0,0,150,3.0,0.0
10639,81.0,0,180,6.0,0.0
10640,80.0,0,180,6.0,0.0
10641,76.0,120,1260,0.0,0.0
10642,52.0,0,1260,3.0,0.0
10643,64.0,0,1260,1.0,0.0
10644,64.0,240,180,7.0,0.0
10645,62.0,240,180,7.0,0.0
10646,78.0,0,180,6.0,0.0
10647,61.0,0,180,7.0,0.0
10648,64.0,192,480,11.0,0.0
10649,76.0,240,180,6.0,0.0
10650,76.0,0,480,10.0,0.0
10651,74.0,10,180,6.0,0.0
10652,59.0,0,180,7.0,0.0
10653,85.0,0,480,10.0,0.0
10654,33.0,0,1920,14.0,0.0
10655,45.0,0,1920,13.0,0.0
10656,73.0,120,180,6.0,0.0
10657,73.0,156,480,11.0,0.0
10658,57.0,0,180,7.0,0.0
10659,57.0,0,1920,12.0,0.0
10660,59.0,0,180,7.0,0.0
10661,74.0,48,180,6.0,0.0
10662,76.0,0,390,10.0,0.0
10663,85.0,0,150,0.0,0.0
10664,64.0,12,390,11.0,0.0
10665,73.0,0,150,1.0,0.0
10666,61.0,0,180,7.0,0.0
10667,61.0,36,150,3.0,0.0
10668,76.0,192,180,6.0,0.0
10669,81.0,0,150,0.0,0.0
10670,62.0,0,180,7.0,0.0
10671,69.0,0,150,1.0,0.0
10672,57.0,36,150,3.0,0.0
10673,78.0,240,180,6.0,0.0
10674,52.0,120,1260,3.0,0.0
10675,80.0,0,180,6.0,0.0
10676,64.0,240,180,7.0,0.0
10677,64.0,0,1260,1.0,0.0
10678,76.0,0,1260,0.0,0.0
10679,66.0,240,180,7.0,0.0
10680,81.0,0,180,6.0,0.0
10681,68.0,0,180,7.0,0.0
10682,83.0,240,180,6.0,0.0
10683,76.0,192,480,10.0,0.0
10684,64.0,0,480,11.0,0.0
10685,69.0,48,180,7.0,0.0
10686,85.0,0,180,6.0,0.0
10687,44.0,0,1890,13.0,0.0
10688,56.0,0,1890,12.0,0.0
10689,71.0,120,180,7.0,0.0
10690,74.0,156,480,11.0,0.0
10691,32.0,0,1890,14.0,0.0
10692,86.0,0,180,6.0,0.0
10693,86.0,0,480,10.0,0.0
10694,69.0,48,180,7.0,0.0
10695,85.0,0,180,6.0,0.0
10696,64.0,12,390,11.0,0.0
10697,86.0,36,150,0.0,0.0
10698,76.0,0,390,10.0,0.0
10699,74.0,0,150,1.0,0.0
10700,83.0,192,180,6.0,0.0
10701,68.0,0,180,7.0,0.0
10702,62.0,0,150,3.0,0.0
10703,83.0,0,150,0.0,0.0
10704,66.0,0,180,7.0,0.0
10705,71.0,36,150,1.0,0.0
10706,59.0,0,150,3.0,0.0
10707,81.0,240,180,6.0,0.0
10708,64.0,72,1260,1.0,0.0
10709,64.0,240,180,7.0,0.0
10710,52.0,0,1260,3.0,0.0
10711,80.0,0,180,6.0,0.0
10712,76.0,0,1260,0.0,0.0
10713,62.0,0,180,7.0,0.0
10714,78.0,240,180,6.0,0.0
10715,61.0,240,180,7.0,0.0
10716,64.0,312,480,11.0,0.0
10717,76.0,0,180,6.0,0.0
10718,76.0,0,480,10.0,0.0
10719,59.0,10,180,7.0,0.0
10720,74.0,0,180,6.0,0.0
10721,73.0,0,480,11.0,0.0
10722,45.0,0,390,13.0,0.0
10723,85.0,192,480,10.0,0.0
10724,57.0,0,390,7.0,0.0
10725,57.0,48,390,12.0,0.0
10726,33.0,0,390,14.0,0.0
10727,73.0,48,180,6.0,0.0
10728,85.0,0,870,0.0,0.0
10729,69.0,48,390,11.0,0.0
10730,61.0,0,870,3.0,0.0
10731,73.0,0,870,1.0,0.0
10732,76.0,192,180,6.0,0.0
10733,81.0,0,390,10.0,0.0
10734,85.0,432,180,6.0,0.0
10735,66.0,0,390,12.0,0.0
10736,54.0,0,390,7.0,0.0
10737,54.0,0,390,13.0,0.0
10738,42.0,48,390,14.0,0.0
10739,73.0,240,180,6.0,0.0
10740,57.0,48,900,3.0,0.0
10741,81.0,0,900,0.0,0.0
10742,66.0,384,480,11.0,0.0
10743,78.0,0,480,10.0,0.0
10744,69.0,0,900,1.0,0.0
10745,78.0,240,180,6.0,0.0
10746,81.0,48,180,6.0,0.0
10747,50.0,0,390,13.0,0.0
10748,62.0,0,390,12.0,0.0
10749,86.0,192,480,10.0,0.0
10750,50.0,0,390,7.0,0.0
10751,38.0,48,390,14.0,0.0
10752,74.0,0,480,11.0,0.0
10753,74.0,0,180,6.0,0.0
10754,71.0,0,390,11.0,0.0
10755,71.0,0,870,1.0,0.0
10756,83.0,48,390,10.0,0.0
10757,59.0,0,870,3.0,0.0
10758,83.0,0,870,0.0,0.0
10759,78.0,192,180,6.0,0.0
10760,83.0,432,180,6.0,0.0
10761,40.0,0,390,14.0,0.0
10762,52.0,48,390,7.0,0.0
10763,52.0,0,390,13.0,0.0
10764,64.0,0,390,12.0,0.0
10765,71.0,240,180,6.0,0.0
10766,76.0,0,390,10.0,0.0
10767,64.0,48,390,11.0,0.0
10768,56.0,0,420,3.0,0.0
10769,80.0,0,420,0.0,0.0
10770,68.0,0,420,1.0,0.0
10771,76.0,192,180,6.0,0.0
10772,80.0,204,180,6.0,0.0
10773,80.0,0,1740,1.0,0.0
10774,71.0,32,1740,1.0,0.0
10775,61.0,0,2220,4.0,0.0
10776,73.0,0,2220,4.0,0.0
10777,53.0,0,180,3.0,0.0
10778,53.0,0,180,13.0,0.0
10779,80.0,36,150,11.0,0.0
10780,73.0,0,150,11.0,0.0
10781,41.0,204,180,14.0,0.0
10782,85.0,24,1620,10.0,0.0
10783,65.0,0,180,12.0,0.0
10784,85.0,0,1620,0.0,0.0
10785,41.0,0,180,14.0,0.0
10786,53.0,0,180,13.0,0.0
10787,73.0,36,150,11.0,0.0
10788,80.0,0,150,11.0,0.0
10789,53.0,204,180,3.0,0.0
10790,65.0,0,180,12.0,0.0
10791,53.0,0,180,13.0,0.0
10792,41.0,0,180,14.0,0.0
10793,73.0,36,150,11.0,0.0
10794,80.0,0,150,11.0,0.0
10795,65.0,204,180,12.0,0.0
10796,53.0,0,180,3.0,0.0
10797,65.0,204,180,12.0,0.0
10798,80.0,36,150,11.0,0.0
10799,73.0,0,150,11.0,0.0
10800,53.0,0,180,3.0,0.0
10801,53.0,0,180,13.0,0.0
10802,41.0,0,180,14.0,0.0
10803,53.0,204,180,3.0,0.0
10804,53.0,0,180,13.0,0.0
10805,73.0,36,150,11.0,0.0
10806,65.0,0,180,12.0,0.0
10807,80.0,0,150,11.0,0.0
10808,41.0,0,180,14.0,0.0
10809,73.0,0,150,11.0,0.0
10810,53.0,0,180,3.0,0.0
10811,65.0,204,180,12.0,0.0
10812,41.0,0,180,14.0,0.0
10813,80.0,36,150,11.0,0.0
10814,53.0,0,180,13.0,0.0
10815,80.0,0,150,11.0,0.0
10816,53.0,0,180,13.0,0.0
10817,73.0,12,150,11.0,0.0
10818,41.0,0,180,14.0,0.0
10819,53.0,96,180,3.0,0.0
10820,65.0,0,180,12.0,0.0
10821,73.0,4,150,11.0,0.0
10822,41.0,48,180,14.0,0.0
10823,86.0,76,90,0.0,0.0
10824,80.0,0,150,11.0,0.0
10825,53.0,0,180,3.0,0.0
10826,86.0,0,90,10.0,0.0
10827,53.0,0,180,13.0,0.0
10828,65.0,0,180,12.0,0.0
10829,85.0,0,90,0.0,0.0
10830,85.0,32,90,10.0,0.0
10831,83.0,0,90,0.0,0.0
10832,83.0,156,90,10.0,0.0
10833,81.0,0,300,0.0,0.0
10834,54.0,0,180,3.0,0.0
10835,54.0,120,180,13.0,0.0
10836,42.0,0,180,14.0,0.0
10837,78.0,36,150,11.0,0.0
10838,81.0,0,300,1.0,0.0
10839,69.0,84,300,1.0,0.0
10840,81.0,0,300,10.0,0.0
10841,66.0,0,180,12.0,0.0
10842,73.0,0,150,11.0,0.0
10843,73.0,36,150,11.0,0.0
10844,56.0,0,180,3.0,0.0
10845,68.0,0,180,12.0,0.0
10846,44.0,0,180,14.0,0.0
10847,56.0,204,180,13.0,0.0
10848,78.0,0,150,11.0,0.0
10849,81.0,0,150,10.0,0.0
10850,73.0,0,150,1.0,0.0
10851,81.0,0,150,1.0,0.0
10852,45.0,204,180,14.0,0.0
10853,61.0,36,150,4.0,0.0
10854,57.0,0,180,3.0,0.0
10855,78.0,0,150,11.0,0.0
10856,73.0,0,150,11.0,0.0
10857,81.0,0,150,0.0,0.0
10858,57.0,0,180,13.0,0.0
10859,69.0,0,180,12.0,0.0
10860,69.0,0,150,4.0,0.0
10861,68.0,0,180,12.0,0.0
10862,81.0,0,150,1.0,0.0
10863,73.0,0,150,1.0,0.0
10864,69.0,0,150,4.0,0.0
10865,81.0,0,150,0.0,0.0
10866,61.0,0,150,4.0,0.0
10867,78.0,0,150,11.0,0.0
10868,73.0,0,150,11.0,0.0
10869,56.0,204,180,13.0,0.0
10870,56.0,0,180,3.0,0.0
10871,81.0,36,150,10.0,0.0
10872,44.0,0,180,14.0,0.0
10873,61.0,0,300,4.0,0.0
10874,54.0,120,180,3.0,0.0
10875,42.0,0,180,14.0,0.0
10876,66.0,0,180,12.0,0.0
10877,81.0,0,300,0.0,0.0
10878,81.0,0,300,10.0,0.0
10879,69.0,0,300,4.0,0.0
10880,81.0,84,300,1.0,0.0
10881,54.0,0,180,13.0,0.0
10882,78.0,0,150,11.0,0.0
10883,73.0,36,150,11.0,0.0
10884,73.0,0,300,1.0,0.0
10885,40.0,0,180,14.0,0.0
10886,64.0,0,180,12.0,0.0
10887,52.0,0,180,3.0,0.0
10888,73.0,0,150,11.0,0.0
10889,78.0,36,150,11.0,0.0
10890,52.0,204,180,13.0,0.0
10891,50.0,0,180,3.0,0.0
10892,69.0,0,300,4.0,0.0
10893,61.0,0,300,4.0,0.0
10894,62.0,120,180,12.0,0.0
10895,81.0,0,300,10.0,0.0
10896,73.0,36,150,11.0,0.0
10897,50.0,0,180,13.0,0.0
10898,81.0,0,300,1.0,0.0
10899,73.0,0,300,1.0,0.0
10900,81.0,84,300,0.0,0.0
10901,38.0,0,180,14.0,0.0
10902,78.0,0,150,11.0,0.0
10903,61.0,0,180,12.0,0.0
10904,49.0,0,180,13.0,0.0
10905,73.0,0,150,11.0,0.0
10906,49.0,0,180,3.0,0.0
10907,78.0,36,150,11.0,0.0
10908,37.0,204,180,14.0,0.0
10909,83.0,0,780,1.0,0.0
10910,62.0,0,180,12.0,0.0
10911,38.0,0,180,14.0,0.0
10912,78.0,0,780,1.0,0.0
10913,78.0,36,150,11.0,0.0
10914,50.0,0,180,3.0,0.0
10915,83.0,0,780,10.0,0.0
10916,83.0,108,780,0.0,0.0
10917,50.0,204,180,13.0,0.0
10918,69.0,0,150,11.0,0.0
10919,59.0,0,780,4.0,0.0
10920,71.0,0,780,4.0,0.0
10921,47.0,0,180,13.0,0.0
10922,47.0,204,180,3.0,0.0
10923,59.0,0,180,12.0,0.0
10924,69.0,0,150,11.0,0.0
10925,78.0,36,150,11.0,0.0
10926,35.0,0,180,14.0,0.0
10927,61.0,0,180,12.0,0.0
10928,78.0,36,150,11.0,0.0
10929,69.0,0,150,11.0,0.0
10930,37.0,0,180,14.0,0.0
10931,49.0,96,180,13.0,0.0
10932,49.0,0,180,3.0,0.0
10933,50.0,0,180,3.0,0.0
10934,38.0,0,180,14.0,0.0
10935,62.0,204,180,12.0,0.0
10936,50.0,0,180,13.0,0.0
10937,69.0,36,150,11.0,0.0
10938,78.0,0,150,11.0,0.0
10939,52.0,0,180,3.0,0.0
10940,68.0,36,150,11.0,0.0
10941,76.0,0,780,10.0,0.0
10942,71.0,0,150,11.0,0.0
10943,52.0,0,180,13.0,0.0
10944,40.0,0,180,14.0,0.0
10945,71.0,0,780,4.0,0.0
10946,64.0,204,180,12.0,0.0
10947,52.0,0,780,4.0,0.0
10948,88.0,108,780,0.0,0.0
10949,68.0,0,780,1.0,0.0
10950,76.0,0,780,1.0,0.0
10951,54.0,0,180,3.0,0.0
10952,71.0,0,150,11.0,0.0
10953,42.0,0,180,14.0,0.0
10954,66.0,204,180,12.0,0.0
10955,54.0,0,180,13.0,0.0
10956,68.0,36,150,11.0,0.0
10957,56.0,96,180,13.0,0.0
10958,68.0,0,180,12.0,0.0
10959,71.0,36,150,11.0,0.0
10960,56.0,0,180,3.0,0.0
10961,44.0,0,180,14.0,0.0
10962,68.0,0,150,11.0,0.0
10963,71.0,36,150,11.0,0.0
10964,54.0,0,180,3.0,0.0
10965,68.0,0,150,11.0,0.0
10966,54.0,204,180,13.0,0.0
10967,66.0,0,180,12.0,0.0
10968,42.0,0,180,14.0,0.0
10969,73.0,0,2220,4.0,0.0
10970,73.0,36,150,11.0,0.0
10971,41.0,204,180,14.0,0.0
10972,53.0,0,180,13.0,0.0
10973,61.0,0,2220,4.0,0.0
10974,80.0,0,150,11.0,0.0
10975,65.0,0,180,12.0,0.0
10976,80.0,0,1740,1.0,0.0
10977,85.0,24,1620,10.0,0.0
10978,53.0,0,180,3.0,0.0
10979,85.0,0,1620,0.0,0.0
10980,71.0,32,1740,1.0,0.0
10981,73.0,0,150,11.0,0.0
10982,80.0,36,150,11.0,0.0
10983,65.0,0,180,12.0,0.0
10984,53.0,0,180,3.0,0.0
10985,41.0,0,180,14.0,0.0
10986,53.0,204,180,13.0,0.0
10987,65.0,0,180,12.0,0.0
10988,53.0,0,180,3.0,0.0
10989,80.0,0,150,11.0,0.0
10990,53.0,204,180,13.0,0.0
10991,41.0,0,180,14.0,0.0
10992,73.0,36,150,11.0,0.0
10993,73.0,36,150,11.0,0.0
10994,65.0,0,180,12.0,0.0
10995,80.0,0,150,11.0,0.0
10996,53.0,0,180,13.0,0.0
10997,53.0,0,180,3.0,0.0
10998,41.0,204,180,14.0,0.0
10999,41.0,0,180,14.0,0.0
11000,80.0,36,150,11.0,0.0
11001,73.0,0,150,11.0,0.0
11002,65.0,0,180,12.0,0.0
11003,53.0,204,180,13.0,0.0
11004,53.0,0,180,3.0,0.0
11005,53.0,0,180,3.0,0.0
11006,80.0,36,150,11.0,0.0
11007,73.0,0,150,11.0,0.0
11008,65.0,204,180,12.0,0.0
11009,53.0,0,180,13.0,0.0
11010,41.0,0,180,14.0,0.0
11011,41.0,0,180,14.0,0.0
11012,53.0,0,180,13.0,0.0
11013,73.0,0,150,11.0,0.0
11014,80.0,12,150,11.0,0.0
11015,65.0,0,180,12.0,0.0
11016,53.0,96,180,3.0,0.0
11017,41.0,0,180,14.0,0.0
11018,53.0,48,180,3.0,0.0
11019,86.0,76,90,0.0,0.0
11020,65.0,0,180,12.0,0.0
11021,86.0,0,90,10.0,0.0
11022,53.0,0,180,13.0,0.0
11023,80.0,0,150,11.0,0.0
11024,73.0,4,150,11.0,0.0
11025,85.0,0,90,10.0,0.0
11026,85.0,32,90,0.0,0.0
11027,83.0,156,90,10.0,0.0
11028,83.0,0,90,0.0,0.0
11029,54.0,0,180,3.0,0.0
11030,42.0,0,180,14.0,0.0
11031,69.0,84,300,1.0,0.0
11032,78.0,36,150,11.0,0.0
11033,73.0,0,150,11.0,0.0
11034,81.0,0,300,0.0,0.0
11035,81.0,0,300,1.0,0.0
11036,81.0,0,300,10.0,0.0
11037,66.0,0,180,12.0,0.0
11038,54.0,120,180,13.0,0.0
11039,56.0,0,180,3.0,0.0
11040,56.0,0,180,13.0,0.0
11041,44.0,0,180,14.0,0.0
11042,68.0,204,180,12.0,0.0
11043,73.0,0,150,11.0,0.0
11044,78.0,36,150,11.0,0.0
11045,73.0,0,150,1.0,0.0
11046,73.0,0,150,11.0,0.0
11047,81.0,0,150,1.0,0.0
11048,57.0,0,180,13.0,0.0
11049,69.0,204,180,12.0,0.0
11050,81.0,36,150,10.0,0.0
11051,69.0,0,150,4.0,0.0
11052,61.0,0,150,4.0,0.0
11053,81.0,0,150,0.0,0.0
11054,45.0,0,180,14.0,0.0
11055,78.0,0,150,11.0,0.0
11056,57.0,0,180,3.0,0.0
11057,44.0,0,180,14.0,0.0
11058,78.0,0,150,11.0,0.0
11059,73.0,0,150,11.0,0.0
11060,56.0,0,180,3.0,0.0
11061,56.0,0,180,13.0,0.0
11062,68.0,204,180,12.0,0.0
11063,61.0,0,150,4.0,0.0
11064,69.0,0,150,4.0,0.0
11065,81.0,0,150,10.0,0.0
11066,73.0,0,150,1.0,0.0
11067,81.0,0,150,0.0,0.0
11068,81.0,36,150,1.0,0.0
11069,42.0,0,180,14.0,0.0
11070,61.0,0,300,4.0,0.0
11071,73.0,0,300,1.0,0.0
11072,66.0,0,180,12.0,0.0
11073,81.0,0,300,10.0,0.0
11074,78.0,0,150,11.0,0.0
11075,73.0,36,150,11.0,0.0
11076,54.0,120,180,3.0,0.0
11077,54.0,0,180,13.0,0.0
11078,81.0,0,300,0.0,0.0
11079,81.0,0,300,1.0,0.0
11080,69.0,84,300,4.0,0.0
11081,52.0,0,180,3.0,0.0
11082,64.0,0,180,12.0,0.0
11083,52.0,204,180,13.0,0.0
11084,78.0,36,150,11.0,0.0
11085,73.0,0,150,11.0,0.0
11086,40.0,0,180,14.0,0.0
11087,81.0,0,300,10.0,0.0
11088,62.0,120,180,12.0,0.0
11089,81.0,0,300,1.0,0.0
11090,81.0,84,300,0.0,0.0
11091,50.0,0,180,13.0,0.0
11092,73.0,0,300,1.0,0.0
11093,38.0,0,180,14.0,0.0
11094,50.0,0,180,3.0,0.0
11095,78.0,0,150,11.0,0.0
11096,73.0,36,150,11.0,0.0
11097,61.0,0,300,4.0,0.0
11098,69.0,0,300,4.0,0.0
11099,61.0,0,180,12.0,0.0
11100,78.0,0,150,11.0,0.0
11101,37.0,204,180,14.0,0.0
11102,49.0,0,180,3.0,0.0
11103,73.0,36,150,11.0,0.0
11104,49.0,0,180,13.0,0.0
11105,62.0,204,180,12.0,0.0
11106,69.0,0,150,11.0,0.0
11107,78.0,36,150,11.0,0.0
11108,78.0,108,780,1.0,0.0
11109,83.0,0,780,1.0,0.0
11110,38.0,0,180,14.0,0.0
11111,59.0,0,780,4.0,0.0
11112,83.0,0,780,0.0,0.0
11113,71.0,0,780,4.0,0.0
11114,50.0,0,180,13.0,0.0
11115,50.0,0,180,3.0,0.0
11116,83.0,0,780,10.0,0.0
11117,47.0,204,180,3.0,0.0
11118,59.0,0,180,12.0,0.0
11119,69.0,36,150,11.0,0.0
11120,78.0,0,150,11.0,0.0
11121,35.0,0,180,14.0,0.0
11122,47.0,0,180,13.0,0.0
11123,78.0,0,150,11.0,0.0
11124,49.0,0,180,13.0,0.0
11125,49.0,0,180,3.0,0.0
11126,61.0,0,180,12.0,0.0
11127,69.0,36,150,11.0,0.0
11128,37.0,96,180,14.0,0.0
11129,50.0,0,180,3.0,0.0
11130,38.0,0,180,14.0,0.0
11131,50.0,204,180,13.0,0.0
11132,69.0,36,150,11.0,0.0
11133,78.0,0,150,11.0,0.0
11134,62.0,0,180,12.0,0.0
11135,88.0,108,780,0.0,0.0
11136,71.0,0,780,4.0,0.0
11137,52.0,0,780,4.0,0.0
11138,52.0,204,180,13.0,0.0
11139,68.0,0,150,11.0,0.0
11140,76.0,0,780,10.0,0.0
11141,68.0,0,780,1.0,0.0
11142,64.0,0,180,12.0,0.0
11143,40.0,0,180,14.0,0.0
11144,71.0,36,150,11.0,0.0
11145,76.0,0,780,1.0,0.0
11146,52.0,0,180,3.0,0.0
11147,50.0,0,180,3.0,0.0
11148,71.0,0,150,11.0,0.0
11149,68.0,36,150,11.0,0.0
11150,50.0,0,180,13.0,0.0
11151,62.0,204,180,12.0,0.0
11152,38.0,0,180,14.0,0.0
11153,49.0,0,180,13.0,0.0
11154,68.0,0,150,11.0,0.0
11155,71.0,36,150,11.0,0.0
11156,37.0,96,180,14.0,0.0
11157,49.0,0,180,3.0,0.0
11158,61.0,0,180,12.0,0.0
11159,47.0,0,180,13.0,0.0
11160,47.0,0,180,3.0,0.0
11161,68.0,36,150,11.0,0.0
11162,59.0,240,180,12.0,0.0
11163,35.0,0,180,14.0,0.0
11164,71.0,0,150,11.0,0.0
11165,45.0,0,390,13.0,0.0
11166,33.0,48,390,14.0,0.0
11167,69.0,0,780,11.0,0.0
11168,81.0,0,780,10.0,0.0
11169,69.0,0,780,4.0,0.0
11170,73.0,0,780,11.0,0.0
11171,45.0,0,780,3.0,0.0
11172,69.0,0,780,1.0,0.0
11173,57.0,144,780,4.0,0.0
11174,81.0,0,780,1.0,0.0
11175,57.0,0,390,12.0,0.0
11176,81.0,0,780,0.0,0.0
11177,81.0,192,180,6.0,0.0
11178,76.0,240,180,6.0,0.0
11179,73.0,96,180,6.0,0.0
11180,69.0,240,180,6.0,0.0
11181,61.0,48,390,7.0,0.0
11182,73.0,48,180,6.0,0.0
11183,61.0,0,240,3.0,0.0
11184,57.0,0,240,3.0,0.0
11185,69.0,0,240,1.0,0.0
11186,57.0,0,390,7.0,0.0
11187,73.0,144,240,1.0,0.0
11188,69.0,240,180,6.0,0.0
11189,62.0,48,390,7.0,0.0
11190,59.0,0,390,7.0,0.0
11191,74.0,48,180,6.0,0.0
11192,62.0,0,240,3.0,0.0
11193,59.0,144,240,3.0,0.0
11194,74.0,0,240,1.0,0.0
11195,71.0,0,240,1.0,0.0
11196,71.0,240,180,6.0,0.0
11197,64.0,48,390,7.0,0.0
11198,73.0,144,240,1.0,0.0
11199,64.0,0,240,3.0,0.0
11200,61.0,0,240,3.0,0.0
11201,61.0,0,390,7.0,0.0
11202,76.0,0,240,1.0,0.0
11203,76.0,48,180,6.0,0.0
11204,73.0,240,180,6.0,0.0
11205,76.0,192,240,1.0,0.0
11206,73.0,0,240,1.0,0.0
11207,61.0,0,240,3.0,0.0
11208,64.0,0,240,3.0,0.0
11209,69.0,48,180,6.0,0.0
11210,76.0,240,180,6.0,0.0
11211,78.0,48,180,6.0,0.0
11212,74.0,0,240,1.0,0.0
11213,78.0,0,240,1.0,0.0
11214,62.0,192,240,3.0,0.0
11215,66.0,0,240,3.0,0.0
11216,74.0,240,180,6.0,0.0
11217,52.0,0,390,7.0,0.0
11218,86.0,24,300,0.0,0.0
11219,64.0,0,300,12.0,0.0
11220,64.0,0,300,4.0,0.0
11221,71.0,0,300,4.0,0.0
11222,40.0,48,390,7.0,0.0
11223,71.0,0,300,10.0,0.0
11224,64.0,72,300,11.0,0.0
11225,64.0,0,300,10.0,0.0
11226,56.0,0,240,3.0,0.0
11227,80.0,48,180,6.0,0.0
11228,74.0,0,300,11.0,0.0
11229,68.0,0,240,1.0,0.0
11230,74.0,0,240,1.0,0.0
11231,40.0,0,300,14.0,0.0
11232,52.0,0,300,13.0,0.0
11233,80.0,0,300,10.0,0.0
11234,62.0,48,240,3.0,0.0
11235,76.0,240,180,6.0,0.0
11236,81.0,48,870,10.0,0.0
11237,73.0,0,390,10.0,0.0
11238,64.0,48,390,10.0,0.0
11239,64.0,0,390,11.0,0.0
11240,73.0,0,870,11.0,0.0
11241,57.0,0,390,11.0,0.0
11242,69.0,192,480,1.0,0.0
11243,73.0,0,480,1.0,0.0
11244,45.0,0,390,7.0,0.0
11245,73.0,0,780,4.0,0.0
11246,69.0,0,780,4.0,0.0
11247,57.0,0,480,3.0,0.0
11248,45.0,96,780,14.0,0.0
11249,57.0,0,390,7.0,0.0
11250,85.0,0,780,0.0,0.0
11251,69.0,0,780,12.0,0.0
11252,61.0,0,480,3.0,0.0
11253,81.0,192,180,6.0,0.0
11254,57.0,0,780,13.0,0.0
11255,76.0,48,180,6.0,0.0
11256,73.0,96,180,6.0,0.0
11257,69.0,240,180,6.0,0.0
11258,69.0,0,240,1.0,0.0
11259,61.0,48,390,7.0,0.0
11260,57.0,0,240,3.0,0.0
11261,73.0,0,240,1.0,0.0
11262,57.0,0,390,7.0,0.0
11263,61.0,144,240,3.0,0.0
11264,73.0,48,180,6.0,0.0
11265,69.0,240,180,6.0,0.0
11266,62.0,0,390,7.0,0.0
11267,59.0,0,240,3.0,0.0
11268,62.0,0,240,3.0,0.0
11269,74.0,144,240,1.0,0.0
11270,71.0,0,240,1.0,0.0
11271,74.0,48,180,6.0,0.0
11272,59.0,48,390,7.0,0.0
11273,71.0,240,180,6.0,0.0
11274,64.0,0,390,7.0,0.0
11275,61.0,0,240,3.0,0.0
11276,64.0,144,240,3.0,0.0
11277,61.0,48,390,7.0,0.0
11278,73.0,0,240,1.0,0.0
11279,76.0,48,180,6.0,0.0
11280,76.0,0,240,1.0,0.0
11281,73.0,240,180,6.0,0.0
11282,73.0,0,240,1.0,0.0
11283,76.0,0,240,1.0,0.0
11284,64.0,0,240,3.0,0.0
11285,61.0,192,240,3.0,0.0
11286,69.0,48,180,6.0,0.0
11287,76.0,240,180,6.0,0.0
11288,62.0,0,240,3.0,0.0
11289,66.0,192,240,3.0,0.0
11290,78.0,48,180,6.0,0.0
11291,74.0,0,240,1.0,0.0
11292,78.0,0,240,1.0,0.0
11293,74.0,240,180,6.0,0.0
11294,80.0,48,180,6.0,0.0
11295,64.0,0,300,12.0,0.0
11296,52.0,48,390,7.0,0.0
11297,40.0,0,390,7.0,0.0
11298,52.0,0,300,13.0,0.0
11299,64.0,72,300,4.0,0.0
11300,71.0,0,300,4.0,0.0
11301,80.0,0,300,10.0,0.0
11302,64.0,0,300,10.0,0.0
11303,74.0,0,300,11.0,0.0
11304,71.0,0,300,10.0,0.0
11305,86.0,24,300,0.0,0.0
11306,74.0,0,240,1.0,0.0
11307,68.0,0,240,1.0,0.0
11308,40.0,0,300,14.0,0.0
11309,56.0,0,240,3.0,0.0
11310,64.0,0,300,11.0,0.0
11311,62.0,48,240,3.0,0.0
11312,76.0,240,180,6.0,0.0
11313,57.0,0,390,7.0,0.0
11314,81.0,48,870,10.0,0.0
11315,73.0,0,780,4.0,0.0
11316,73.0,48,390,10.0,0.0
11317,64.0,0,390,10.0,0.0
11318,45.0,96,780,14.0,0.0
11319,69.0,0,780,4.0,0.0
11320,45.0,0,390,7.0,0.0
11321,69.0,192,480,1.0,0.0
11322,57.0,0,780,13.0,0.0
11323,69.0,0,780,12.0,0.0
11324,57.0,0,480,3.0,0.0
11325,85.0,0,780,0.0,0.0
11326,61.0,0,480,3.0,0.0
11327,81.0,192,180,6.0,0.0
11328,73.0,0,480,1.0,0.0
11329,57.0,0,390,11.0,0.0
11330,73.0,0,870,11.0,0.0
11331,64.0,0,390,11.0,0.0
11332,76.0,48,180,6.0,0.0
11333,73.0,96,180,6.0,0.0
11334,69.0,240,180,6.0,0.0
11335,73.0,48,180,6.0,0.0
11336,61.0,48,390,7.0,0.0
11337,73.0,144,240,1.0,0.0
11338,69.0,0,240,1.0,0.0
11339,57.0,0,390,7.0,0.0
11340,57.0,0,240,3.0,0.0
11341,61.0,0,240,3.0,0.0
11342,69.0,240,180,6.0,0.0
11343,74.0,48,180,6.0,0.0
11344,62.0,0,390,7.0,0.0
11345,59.0,48,390,7.0,0.0
11346,59.0,0,240,3.0,0.0
11347,74.0,144,240,1.0,0.0
11348,71.0,0,240,1.0,0.0
11349,62.0,0,240,3.0,0.0
11350,71.0,240,180,6.0,0.0
11351,61.0,48,390,7.0,0.0
11352,61.0,0,240,3.0,0.0
11353,64.0,0,390,7.0,0.0
11354,64.0,144,240,3.0,0.0
11355,76.0,48,180,6.0,0.0
11356,76.0,0,240,1.0,0.0
11357,73.0,0,240,1.0,0.0
11358,73.0,240,180,6.0,0.0
11359,61.0,0,240,3.0,0.0
11360,64.0,0,240,3.0,0.0
11361,69.0,48,180,6.0,0.0
11362,73.0,192,240,1.0,0.0
11363,76.0,0,240,1.0,0.0
11364,76.0,240,180,6.0,0.0
11365,78.0,48,180,6.0,0.0
11366,62.0,192,240,3.0,0.0
11367,66.0,0,240,3.0,0.0
11368,78.0,0,240,1.0,0.0
11369,74.0,0,240,1.0,0.0
11370,74.0,240,180,6.0,0.0
11371,74.0,0,300,11.0,0.0
11372,71.0,0,300,4.0,0.0
11373,64.0,0,300,4.0,0.0
11374,40.0,0,390,7.0,0.0
11375,62.0,48,240,3.0,0.0
11376,56.0,0,240,3.0,0.0
11377,86.0,24,300,0.0,0.0
11378,40.0,0,300,14.0,0.0
11379,80.0,48,180,6.0,0.0
11380,64.0,0,300,12.0,0.0
11381,80.0,72,300,10.0,0.0
11382,74.0,0,240,1.0,0.0
11383,64.0,0,300,11.0,0.0
11384,52.0,0,300,13.0,0.0
11385,68.0,0,240,1.0,0.0
11386,71.0,0,300,10.0,0.0
11387,64.0,0,300,10.0,0.0
11388,52.0,48,390,7.0,0.0
11389,76.0,360,180,6.0,0.0
11390,64.0,0,300,11.0,0.0
11391,81.0,0,300,10.0,0.0
11392,64.0,0,300,10.0,0.0
11393,45.0,0,390,7.0,0.0
11394,57.0,0,390,7.0,0.0
11395,61.0,0,300,4.0,0.0
11396,57.0,0,300,11.0,0.0
11397,73.0,0,300,11.0,0.0
11398,57.0,0,300,13.0,0.0
11399,81.0,216,390,6.0,0.0
11400,45.0,0,300,14.0,0.0
11401,69.0,0,300,4.0,0.0
11402,61.0,0,300,3.0,0.0
11403,57.0,0,300,3.0,0.0
11404,69.0,72,300,1.0,0.0
11405,85.0,0,300,0.0,0.0
11406,73.0,0,300,1.0,0.0
11407,73.0,0,300,10.0,0.0
11408,69.0,0,300,12.0,0.0
11409,40.0,0,300,14.0,0.0
11410,52.0,0,300,13.0,0.0
11411,85.0,120,120,10.0,0.0
11412,88.0,0,300,0.0,0.0
11413,80.0,0,300,1.0,0.0
11414,71.0,48,300,1.0,0.0
11415,64.0,0,300,12.0,0.0
11416,64.0,0,300,4.0,0.0
11417,81.0,0,120,11.0,0.0
11418,52.0,0,300,3.0,0.0
11419,80.0,0,120,11.0,0.0
11420,83.0,72,120,10.0,0.0
11421,78.0,0,120,11.0,0.0
11422,81.0,120,120,10.0,0.0
11423,80.0,288,120,11.0,0.0
11424,83.0,0,120,10.0,0.0
11425,88.0,0,300,0.0,0.0
11426,85.0,0,300,10.0,0.0
11427,69.0,0,300,4.0,0.0
11428,61.0,0,300,4.0,0.0
11429,57.0,456,300,13.0,0.0
11430,81.0,24,300,11.0,0.0
11431,45.0,0,300,14.0,0.0
11432,69.0,0,300,12.0,0.0
11433,73.0,0,300,1.0,0.0
11434,57.0,0,300,3.0,0.0
11435,81.0,0,300,1.0,0.0
11436,64.0,456,300,12.0,0.0
11437,88.0,0,300,0.0,0.0
11438,80.0,24,300,11.0,0.0
11439,80.0,0,300,1.0,0.0
11440,71.0,0,300,1.0,0.0
11441,83.0,0,300,10.0,0.0
11442,52.0,0,300,3.0,0.0
11443,64.0,0,300,4.0,0.0
11444,40.0,0,300,14.0,0.0
11445,52.0,0,300,13.0,0.0
11446,88.0,0,300,0.0,0.0
11447,57.0,0,300,3.0,0.0
11448,81.0,0,300,11.0,0.0
11449,69.0,0,300,12.0,0.0
11450,57.0,0,300,13.0,0.0
11451,45.0,288,300,14.0,0.0
11452,57.0,0,300,4.0,0.0
11453,81.0,0,300,1.0,0.0
11454,85.0,24,300,10.0,0.0
11455,69.0,0,300,4.0,0.0
11456,73.0,0,300,1.0,0.0
11457,52.0,0,300,13.0,0.0
11458,71.0,0,300,1.0,0.0
11459,73.0,120,120,11.0,0.0
11460,68.0,0,300,1.0,0.0
11461,52.0,0,300,4.0,0.0
11462,64.0,0,300,4.0,0.0
11463,81.0,0,120,10.0,0.0
11464,52.0,0,300,3.0,0.0
11465,64.0,0,300,12.0,0.0
11466,88.0,0,300,0.0,0.0
11467,40.0,48,300,14.0,0.0
11468,80.0,0,120,10.0,0.0
11469,71.0,72,120,11.0,0.0
11470,78.0,0,120,10.0,0.0
11471,69.0,120,120,11.0,0.0
11472,80.0,0,120,10.0,0.0
11473,71.0,288,120,11.0,0.0
11474,57.0,0,300,3.0,0.0
11475,61.0,456,300,4.0,0.0
11476,57.0,0,300,13.0,0.0
11477,69.0,0,300,12.0,0.0
11478,57.0,0,300,4.0,0.0
11479,73.0,0,300,1.0,0.0
11480,69.0,0,300,1.0,0.0
11481,88.0,0,300,0.0,0.0
11482,45.0,0,300,14.0,0.0
11483,81.0,0,300,10.0,0.0
11484,73.0,24,300,11.0,0.0
11485,52.0,0,300,4.0,0.0
11486,64.0,480,300,4.0,0.0
11487,64.0,0,300,12.0,0.0
11488,88.0,0,300,0.0,0.0
11489,68.0,0,300,1.0,0.0
11490,80.0,24,300,10.0,0.0
11491,40.0,0,300,14.0,0.0
11492,52.0,0,300,13.0,0.0
11493,71.0,0,300,1.0,0.0
11494,52.0,0,300,3.0,0.0
11495,71.0,0,300,11.0,0.0
11496,69.0,888,390,1.0,0.0
11497,73.0,0,390,1.0,0.0
11498,69.0,0,390,12.0,0.0
11499,57.0,0,390,4.0,0.0
11500,81.0,0,300,10.0,0.0
11501,61.0,0,390,4.0,0.0
11502,57.0,0,390,13.0,0.0
11503,73.0,72,300,11.0,0.0
11504,57.0,0,390,3.0,0.0
11505,45.0,0,390,14.0,0.0
11506,81.0,0,390,0.0,0.0
11507,81.0,0,390,1.0,0.0
11508,57.0,0,300,11.0,0.0
11509,73.0,72,300,11.0,0.0
11510,76.0,0,390,1.0,0.0
11511,81.0,0,300,10.0,0.0
11512,64.0,0,300,11.0,0.0
11513,73.0,0,300,10.0,0.0
11514,85.0,960,390,0.0,0.0
11515,64.0,0,300,10.0,0.0
11516,64.0,0,390,4.0,0.0
11517,57.0,0,390,12.0,0.0
11518,57.0,0,390,10.0,0.0
11519,61.0,0,390,4.0,0.0
11520,81.0,0,390,0.0,0.0
11521,73.0,0,390,1.0,0.0
11522,57.0,0,390,11.0,0.0
11523,45.0,0,390,3.0,0.0
11524,33.0,0,390,14.0,0.0
11525,45.0,960,390,13.0,0.0
11526,76.0,0,390,1.0,0.0
11527,73.0,0,390,1.0,0.0
11528,81.0,0,390,0.0,0.0
11529,64.0,0,390,4.0,0.0
11530,61.0,0,390,4.0,0.0
11531,45.0,1488,390,13.0,0.0
11532,45.0,0,390,3.0,0.0
11533,57.0,0,390,10.0,0.0
11534,57.0,0,390,12.0,0.0
11535,57.0,0,390,11.0,0.0
11536,33.0,0,390,14.0,0.0
11537,76.0,0,390,1.0,0.0
11538,57.0,20,930,12.0,0.0
11539,76.0,0,900,1.0,0.0
11540,61.0,0,900,4.0,0.0
11541,45.0,0,900,3.0,0.0
11542,45.0,0,930,13.0,0.0
11543,64.0,0,900,4.0,0.0
11544,57.0,5568,960,11.0,0.0
11545,57.0,0,960,10.0,0.0
11546,73.0,0,900,1.0,0.0
11547,33.0,0,930,14.0,0.0
11548,81.0,28,900,0.0,0.0
11549,33.0,0,780,14.0,0.0
