,note,step,duration,channel,velocity
0,48.0,425,300,4.0,0.0
1,53.0,0,300,4.0,0.0
2,69.0,40,40,2.0,0.0
3,45.0,0,300,4.0,0.0
4,41.0,0,300,5.0,0.0
5,72.0,230,40,2.0,0.0
6,77.0,55,660,1.0,0.0
7,53.0,0,300,5.0,0.0
8,57.0,50,300,4.0,0.0
9,79.0,120,120,1.0,0.0
10,77.0,120,120,1.0,0.0
11,76.0,120,120,1.0,0.0
12,77.0,120,120,1.0,0.0
13,81.0,120,120,1.0,0.0
14,77.0,310,120,1.0,0.0
15,72.0,183,600,1.0,0.0
16,53.0,297,300,4.0,0.0
17,45.0,0,300,4.0,0.0
18,48.0,0,300,4.0,0.0
19,41.0,0,300,5.0,0.0
20,57.0,0,300,4.0,0.0
21,53.0,50,300,5.0,0.0
22,74.0,120,120,1.0,0.0
23,72.0,120,120,1.0,0.0
24,71.0,120,120,1.0,0.0
25,72.0,120,120,1.0,0.0
26,77.0,120,120,1.0,0.0
27,72.0,310,120,1.0,0.0
28,69.0,175,600,1.0,0.0
29,41.0,0,300,5.0,0.0
30,48.0,305,300,4.0,0.0
31,45.0,0,300,4.0,0.0
32,53.0,0,300,4.0,0.0
33,57.0,0,300,4.0,0.0
34,53.0,50,300,5.0,0.0
35,70.0,120,120,1.0,0.0
36,69.0,120,120,1.0,0.0
37,68.0,120,120,1.0,0.0
38,69.0,120,120,1.0,0.0
39,72.0,120,120,1.0,0.0
40,69.0,420,120,1.0,0.0
41,65.0,540,420,1.0,0.0
42,65.0,0,480,1.0,0.0
43,57.0,480,480,5.0,0.0
44,60.0,0,480,4.0,0.0
45,58.0,0,480,5.0,0.0
46,62.0,480,480,4.0,0.0
47,60.0,480,480,5.0,0.0
48,63.0,0,480,4.0,0.0
49,65.0,0,15,1.0,0.0
50,62.0,480,480,4.0,0.0
51,58.0,0,480,5.0,0.0
52,57.0,0,480,5.0,0.0
53,61.0,480,480,4.0,0.0
54,58.0,480,480,5.0,0.0
55,62.0,0,480,4.0,0.0
56,70.0,0,480,1.0,0.0
57,55.0,0,480,5.0,0.0
58,60.0,0,960,4.0,0.0
59,64.0,480,480,2.0,0.0
60,53.0,240,480,5.0,0.0
61,69.0,180,720,1.0,0.0
62,65.0,0,480,2.0,0.0
63,62.0,10,420,4.0,0.0
64,58.0,0,420,5.0,0.0
65,67.0,290,180,1.0,0.0
66,70.0,0,240,2.0,0.0
67,74.0,190,240,1.0,0.0
68,69.0,0,180,2.0,0.0
69,72.0,290,180,1.0,0.0
70,67.0,190,240,2.0,0.0
71,70.0,0,240,1.0,0.0
72,46.0,0,240,5.0,0.0
73,69.0,50,180,1.0,0.0
74,47.0,240,240,5.0,0.0
75,65.0,0,180,2.0,0.0
76,48.0,10,420,5.0,0.0
77,65.0,180,240,2.0,0.0
78,69.0,0,240,1.0,0.0
79,67.0,110,180,1.0,0.0
80,64.0,0,180,2.0,0.0
81,65.0,60,60,1.0,0.0
82,67.0,120,60,1.0,0.0
83,65.0,190,120,1.0,0.0
84,64.0,110,180,1.0,0.0
85,62.0,60,60,1.0,0.0
86,64.0,125,60,1.0,0.0
87,62.0,185,120,1.0,0.0
88,60.0,90,180,1.0,0.0
89,53.0,425,300,4.0,0.0
90,41.0,0,300,5.0,0.0
91,45.0,0,300,4.0,0.0
92,48.0,0,300,4.0,0.0
93,69.0,40,40,2.0,0.0
94,72.0,230,40,2.0,0.0
95,77.0,55,660,1.0,0.0
96,57.0,0,300,4.0,0.0
97,53.0,50,300,5.0,0.0
98,79.0,120,120,1.0,0.0
99,77.0,120,120,1.0,0.0
100,76.0,120,120,1.0,0.0
101,77.0,120,120,1.0,0.0
102,81.0,120,120,1.0,0.0
103,77.0,310,120,1.0,0.0
104,48.0,0,300,4.0,0.0
105,53.0,297,300,4.0,0.0
106,45.0,0,300,4.0,0.0
107,41.0,0,300,5.0,0.0
108,72.0,183,600,1.0,0.0
109,53.0,0,300,5.0,0.0
110,57.0,50,300,4.0,0.0
111,74.0,120,120,1.0,0.0
112,72.0,120,120,1.0,0.0
113,71.0,120,120,1.0,0.0
114,72.0,120,120,1.0,0.0
115,77.0,120,120,1.0,0.0
116,72.0,310,120,1.0,0.0
117,41.0,0,300,5.0,0.0
118,48.0,0,300,4.0,0.0
119,53.0,290,300,4.0,0.0
120,69.0,190,600,1.0,0.0
121,45.0,0,300,4.0,0.0
122,57.0,0,300,4.0,0.0
123,53.0,50,300,5.0,0.0
124,70.0,120,120,1.0,0.0
125,69.0,120,120,1.0,0.0
126,68.0,120,120,1.0,0.0
127,69.0,120,120,1.0,0.0
128,72.0,120,120,1.0,0.0
129,69.0,420,120,1.0,0.0
130,65.0,540,420,1.0,0.0
131,60.0,0,480,4.0,0.0
132,57.0,0,480,5.0,0.0
133,58.0,480,480,5.0,0.0
134,62.0,0,480,4.0,0.0
135,65.0,480,15,1.0,0.0
136,65.0,0,15,1.0,0.0
137,63.0,0,480,4.0,0.0
138,60.0,480,480,5.0,0.0
139,62.0,480,480,4.0,0.0
140,58.0,0,480,5.0,0.0
141,57.0,0,480,5.0,0.0
142,61.0,420,480,4.0,0.0
143,62.0,533,420,4.0,0.0
144,58.0,7,420,5.0,0.0
145,64.0,0,480,2.0,0.0
146,55.0,0,480,5.0,0.0
147,74.0,360,480,1.0,0.0
148,58.0,0,480,4.0,0.0
149,60.0,8,450,4.0,0.0
150,72.0,6,450,1.0,0.0
151,57.0,22,420,5.0,0.0
152,65.0,60,360,2.0,0.0
153,69.0,391,90,1.0,0.0
154,62.0,0,480,4.0,0.0
155,69.0,113,360,2.0,0.0
156,58.0,0,480,5.0,0.0
157,72.0,0,360,1.0,0.0
158,67.0,0,120,2.0,0.0
159,70.0,367,120,1.0,0.0
160,65.0,360,480,2.0,0.0
161,60.0,113,360,4.0,0.0
162,69.0,0,480,1.0,0.0
163,48.0,120,360,5.0,0.0
164,64.0,360,480,2.0,0.0
165,67.0,0,480,1.0,0.0
166,57.0,60,360,3.0,0.0
167,53.0,0,360,4.0,0.0
168,65.0,12,420,1.0,0.0
169,48.0,408,180,3.0,0.0
170,57.0,72,360,3.0,0.0
171,53.0,0,360,4.0,0.0
172,48.0,168,180,3.0,0.0
173,84.0,0,120,1.0,0.0
174,72.0,0,120,2.0,0.0
175,84.0,0,120,1.0,0.0
176,57.0,72,360,3.0,0.0
177,53.0,0,360,4.0,0.0
178,72.0,240,120,2.0,0.0
179,84.0,0,120,1.0,0.0
180,72.0,0,120,2.0,0.0
181,48.0,408,180,3.0,0.0
182,53.0,0,360,4.0,0.0
183,84.0,0,720,1.0,0.0
184,57.0,72,360,3.0,0.0
185,72.0,120,720,2.0,0.0
186,48.0,288,180,3.0,0.0
187,53.0,72,360,4.0,0.0
188,57.0,0,360,3.0,0.0
189,82.0,0,120,1.0,0.0
190,48.0,48,180,3.0,0.0
191,81.0,155,120,1.0,0.0
192,79.0,205,150,1.0,0.0
193,57.0,35,360,3.0,0.0
194,53.0,0,360,4.0,0.0
195,48.0,108,180,3.0,0.0
196,77.0,37,150,1.0,0.0
197,55.0,70,360,4.0,0.0
198,58.0,0,360,3.0,0.0
199,77.0,60,60,1.0,0.0
200,79.0,125,60,1.0,0.0
201,77.0,115,120,1.0,0.0
202,76.0,2,180,1.0,0.0
203,48.0,238,180,3.0,0.0
204,55.0,0,360,4.0,0.0
205,76.0,170,180,1.0,0.0
206,58.0,70,360,3.0,0.0
207,72.0,2,180,1.0,0.0
208,48.0,238,180,3.0,0.0
209,58.0,70,360,3.0,0.0
210,55.0,0,360,4.0,0.0
211,72.0,170,180,1.0,0.0
212,72.0,2,180,1.0,0.0
213,48.0,288,180,3.0,0.0
214,58.0,0,360,3.0,0.0
215,52.0,40,360,4.0,0.0
216,79.0,80,240,1.0,0.0
217,81.0,40,90,1.0,0.0
218,48.0,48,180,3.0,0.0
219,79.0,32,90,1.0,0.0
220,78.0,190,90,1.0,0.0
221,58.0,72,360,3.0,0.0
222,52.0,0,360,4.0,0.0
223,79.0,170,180,1.0,0.0
224,84.0,240,240,1.0,0.0
225,48.0,48,180,3.0,0.0
226,83.0,120,240,1.0,0.0
227,52.0,0,360,4.0,0.0
228,55.0,72,360,3.0,0.0
229,84.0,0,180,1.0,0.0
230,48.0,408,180,3.0,0.0
231,81.0,190,480,1.0,0.0
232,57.0,0,360,3.0,0.0
233,53.0,72,360,4.0,0.0
234,48.0,48,180,3.0,0.0
235,53.0,0,360,4.0,0.0
236,57.0,0,360,3.0,0.0
237,77.0,170,180,1.0,0.0
238,72.0,0,120,2.0,0.0
239,48.0,168,180,3.0,0.0
240,84.0,72,120,1.0,0.0
241,57.0,0,360,3.0,0.0
242,72.0,0,120,2.0,0.0
243,53.0,0,360,4.0,0.0
244,84.0,240,120,1.0,0.0
245,72.0,72,120,2.0,0.0
246,84.0,0,120,1.0,0.0
247,48.0,408,180,3.0,0.0
248,57.0,0,360,3.0,0.0
249,53.0,72,360,4.0,0.0
250,72.0,0,720,2.0,0.0
251,84.0,120,720,1.0,0.0
252,48.0,288,180,3.0,0.0
253,57.0,72,360,3.0,0.0
254,53.0,0,360,4.0,0.0
255,86.0,0,120,1.0,0.0
256,48.0,48,180,3.0,0.0
257,84.0,120,120,1.0,0.0
258,57.0,0,360,3.0,0.0
259,82.0,120,120,1.0,0.0
260,53.0,0,360,4.0,0.0
261,81.0,120,120,1.0,0.0
262,48.0,24,180,3.0,0.0
263,79.0,72,120,1.0,0.0
264,77.0,84,90,1.0,0.0
265,55.0,0,360,4.0,0.0
266,58.0,70,360,3.0,0.0
267,77.0,60,60,1.0,0.0
268,79.0,125,60,1.0,0.0
269,77.0,115,120,1.0,0.0
270,76.0,2,180,1.0,0.0
271,48.0,238,180,3.0,0.0
272,76.0,170,180,1.0,0.0
273,55.0,70,360,4.0,0.0
274,58.0,0,360,3.0,0.0
275,48.0,238,180,3.0,0.0
276,72.0,2,180,1.0,0.0
277,72.0,170,180,1.0,0.0
278,55.0,70,360,4.0,0.0
279,58.0,0,360,3.0,0.0
280,48.0,288,180,3.0,0.0
281,72.0,2,180,1.0,0.0
282,79.0,80,240,1.0,0.0
283,58.0,0,360,3.0,0.0
284,52.0,40,360,4.0,0.0
285,81.0,40,90,1.0,0.0
286,48.0,48,180,3.0,0.0
287,79.0,32,90,1.0,0.0
288,78.0,190,90,1.0,0.0
289,79.0,170,180,1.0,0.0
290,58.0,72,360,3.0,0.0
291,52.0,0,360,4.0,0.0
292,48.0,48,180,3.0,0.0
293,84.0,240,240,1.0,0.0
294,52.0,0,360,4.0,0.0
295,83.0,120,240,1.0,0.0
296,55.0,72,360,3.0,0.0
297,48.0,88,180,3.0,0.0
298,84.0,0,180,1.0,0.0
299,81.0,40,40,1.0,0.0
300,41.0,0,300,5.0,0.0
301,53.0,50,300,5.0,0.0
302,82.0,40,40,1.0,0.0
303,81.0,120,40,1.0,0.0
304,79.0,70,120,1.0,0.0
305,81.0,120,120,1.0,0.0
306,82.0,120,120,1.0,0.0
307,84.0,120,120,1.0,0.0
308,40.0,0,300,5.0,0.0
309,52.0,50,300,5.0,0.0
310,82.0,70,120,1.0,0.0
311,81.0,120,120,1.0,0.0
312,79.0,120,120,1.0,0.0
313,77.0,120,120,1.0,0.0
314,76.0,120,120,1.0,0.0
315,74.0,96,120,1.0,0.0
316,72.0,64,90,1.0,0.0
317,50.0,0,300,5.0,0.0
318,38.0,50,300,5.0,0.0
319,77.0,40,40,1.0,0.0
320,79.0,40,40,1.0,0.0
321,77.0,120,40,1.0,0.0
322,76.0,70,120,1.0,0.0
323,77.0,120,120,1.0,0.0
324,79.0,120,120,1.0,0.0
325,81.0,120,120,1.0,0.0
326,36.0,0,300,5.0,0.0
327,48.0,50,300,5.0,0.0
328,79.0,70,120,1.0,0.0
329,77.0,120,120,1.0,0.0
330,76.0,120,120,1.0,0.0
331,74.0,120,120,1.0,0.0
332,72.0,120,120,1.0,0.0
333,70.0,96,120,1.0,0.0
334,69.0,64,90,1.0,0.0
335,58.0,0,300,5.0,0.0
336,46.0,50,300,5.0,0.0
337,74.0,40,40,1.0,0.0
338,76.0,40,40,1.0,0.0
339,74.0,120,40,1.0,0.0
340,72.0,70,120,1.0,0.0
341,74.0,120,120,1.0,0.0
342,76.0,120,120,1.0,0.0
343,77.0,120,120,1.0,0.0
344,45.0,50,300,5.0,0.0
345,57.0,0,300,5.0,0.0
346,76.0,70,120,1.0,0.0
347,74.0,120,120,1.0,0.0
348,72.0,120,120,1.0,0.0
349,50.0,50,300,5.0,0.0
350,62.0,0,300,5.0,0.0
351,70.0,120,120,1.0,0.0
352,69.0,70,120,1.0,0.0
353,67.0,96,120,1.0,0.0
354,65.0,240,90,1.0,0.0
355,48.0,96,240,5.0,0.0
356,72.0,0,360,1.0,0.0
357,67.0,96,360,2.0,0.0
358,64.0,0,360,2.0,0.0
359,60.0,24,90,3.0,0.0
360,59.0,24,90,3.0,0.0
361,60.0,120,90,3.0,0.0
362,62.0,120,90,3.0,0.0
363,60.0,120,90,3.0,0.0
364,59.0,120,90,3.0,0.0
365,60.0,240,90,3.0,0.0
366,67.0,0,360,2.0,0.0
367,76.0,0,360,1.0,0.0
368,72.0,96,360,2.0,0.0
369,58.0,120,240,5.0,0.0
370,60.0,24,90,3.0,0.0
371,59.0,216,240,5.0,0.0
372,60.0,24,90,3.0,0.0
373,57.0,96,240,5.0,0.0
374,69.0,0,360,2.0,0.0
375,72.0,0,360,2.0,0.0
376,77.0,96,360,1.0,0.0
377,60.0,24,90,3.0,0.0
378,59.0,24,90,3.0,0.0
379,60.0,240,90,3.0,0.0
380,72.0,96,360,2.0,0.0
381,55.0,96,240,5.0,0.0
382,76.0,0,360,2.0,0.0
383,82.0,0,360,1.0,0.0
384,60.0,24,90,3.0,0.0
385,59.0,24,90,3.0,0.0
386,60.0,240,90,3.0,0.0
387,77.0,96,360,2.0,0.0
388,72.0,0,360,2.0,0.0
389,81.0,0,360,1.0,0.0
390,53.0,96,240,5.0,0.0
391,60.0,24,90,3.0,0.0
392,59.0,24,90,3.0,0.0
393,60.0,240,90,3.0,0.0
394,79.0,0,360,2.0,0.0
395,76.0,0,360,2.0,0.0
396,84.0,0,360,1.0,0.0
397,72.0,96,360,2.0,0.0
398,48.0,96,240,5.0,0.0
399,60.0,24,90,4.0,0.0
400,59.0,24,90,4.0,0.0
401,60.0,120,90,4.0,0.0
402,62.0,120,90,4.0,0.0
403,60.0,120,90,4.0,0.0
404,59.0,120,90,4.0,0.0
405,60.0,240,90,4.0,0.0
406,76.0,0,360,1.0,0.0
407,67.0,96,360,2.0,0.0
408,72.0,0,360,2.0,0.0
409,58.0,120,240,5.0,0.0
410,60.0,24,90,3.0,0.0
411,59.0,216,240,5.0,0.0
412,60.0,24,90,3.0,0.0
413,72.0,0,360,2.0,0.0
414,69.0,96,360,2.0,0.0
415,77.0,0,360,1.0,0.0
416,57.0,96,240,5.0,0.0
417,60.0,24,90,3.0,0.0
418,59.0,24,90,4.0,0.0
419,60.0,240,90,3.0,0.0
420,55.0,96,240,5.0,0.0
421,72.0,0,360,2.0,0.0
422,82.0,96,360,1.0,0.0
423,76.0,0,360,2.0,0.0
424,60.0,24,90,3.0,0.0
425,59.0,24,90,4.0,0.0
426,60.0,240,90,3.0,0.0
427,53.0,96,240,5.0,0.0
428,77.0,0,360,2.0,0.0
429,72.0,96,360,2.0,0.0
430,81.0,0,360,1.0,0.0
431,60.0,24,90,3.0,0.0
432,59.0,24,90,4.0,0.0
433,60.0,384,90,3.0,0.0
434,84.0,0,360,1.0,0.0
435,48.0,0,360,5.0,0.0
436,79.0,0,360,2.0,0.0
437,72.0,480,360,2.0,0.0
438,76.0,0,360,2.0,0.0
439,36.0,7,360,5.0,0.0
440,48.0,0,360,5.0,0.0
441,60.0,953,360,1.0,0.0
442,67.0,120,360,1.0,0.0
443,64.0,360,120,1.0,0.0
444,72.0,120,360,1.0,0.0
445,67.0,360,120,1.0,0.0
446,76.0,120,360,1.0,0.0
447,72.0,155,120,1.0,0.0
448,79.0,240,150,1.0,0.0
449,79.0,240,150,1.0,0.0
450,79.0,240,150,1.0,0.0
451,79.0,240,150,1.0,0.0
452,79.0,240,150,1.0,0.0
453,79.0,445,150,1.0,0.0
454,57.0,0,1380,5.0,0.0
455,79.0,120,360,1.0,0.0
456,61.0,0,480,4.0,0.0
457,64.0,0,480,4.0,0.0
458,76.0,480,120,1.0,0.0
459,62.0,420,480,4.0,0.0
460,65.0,0,480,4.0,0.0
461,74.0,0,480,1.0,0.0
462,67.0,449,420,4.0,0.0
463,64.0,7,420,4.0,0.0
464,76.0,0,420,1.0,0.0
465,79.0,0,480,1.0,0.0
466,76.0,0,480,2.0,0.0
467,73.0,156,480,2.0,0.0
468,57.0,84,150,5.0,0.0
469,77.0,209,420,1.0,0.0
470,62.0,240,150,5.0,0.0
471,74.0,7,420,2.0,0.0
472,57.0,24,150,5.0,0.0
473,53.0,240,150,5.0,0.0
474,50.0,444,150,5.0,0.0
475,65.0,120,360,1.0,0.0
476,62.0,360,120,1.0,0.0
477,71.0,120,360,1.0,0.0
478,65.0,360,120,1.0,0.0
479,74.0,120,360,1.0,0.0
480,71.0,155,120,1.0,0.0
481,77.0,240,150,1.0,0.0
482,77.0,240,150,1.0,0.0
483,77.0,240,150,1.0,0.0
484,77.0,240,150,1.0,0.0
485,77.0,240,150,1.0,0.0
486,77.0,445,150,1.0,0.0
487,77.0,120,360,1.0,0.0
488,59.0,0,480,4.0,0.0
489,62.0,0,480,4.0,0.0
490,55.0,0,1380,5.0,0.0
491,74.0,480,120,1.0,0.0
492,60.0,0,480,4.0,0.0
493,64.0,0,480,4.0,0.0
494,72.0,427,480,1.0,0.0
495,62.0,0,420,4.0,0.0
496,65.0,449,420,4.0,0.0
497,74.0,0,420,1.0,0.0
498,71.0,0,480,2.0,0.0
499,74.0,156,480,2.0,0.0
500,77.0,0,480,1.0,0.0
501,55.0,84,150,5.0,0.0
502,60.0,240,150,5.0,0.0
503,76.0,7,420,1.0,0.0
504,72.0,209,420,2.0,0.0
505,55.0,24,150,5.0,0.0
506,52.0,240,150,5.0,0.0
507,48.0,444,150,5.0,0.0
508,76.0,96,360,1.0,0.0
509,74.0,504,90,1.0,0.0
510,74.0,420,480,1.0,0.0
511,60.0,7,900,4.0,0.0
512,53.0,0,480,5.0,0.0
513,55.0,0,420,5.0,0.0
514,76.0,413,420,1.0,0.0
515,57.0,0,960,5.0,0.0
516,60.0,7,1380,4.0,0.0
517,79.0,120,360,1.0,0.0
518,78.0,480,120,1.0,0.0
519,77.0,420,480,1.0,0.0
520,76.0,0,420,1.0,0.0
521,55.0,173,420,5.0,0.0
522,81.0,120,120,1.0,0.0
523,77.0,120,120,1.0,0.0
524,81.0,120,120,1.0,0.0
525,77.0,480,120,1.0,0.0
526,54.0,420,480,5.0,0.0
527,74.0,0,480,1.0,0.0
528,60.0,7,900,4.0,0.0
529,55.0,173,420,5.0,0.0
530,76.0,0,420,1.0,0.0
531,79.0,120,120,1.0,0.0
532,60.0,0,1380,4.0,0.0
533,57.0,420,960,5.0,0.0
534,78.0,120,120,1.0,0.0
535,81.0,120,120,1.0,0.0
536,79.0,480,120,1.0,0.0
537,77.0,0,480,1.0,0.0
538,76.0,413,420,1.0,0.0
539,55.0,7,420,5.0,0.0
540,57.0,480,480,4.0,0.0
541,76.0,96,360,1.0,0.0
542,74.0,24,90,1.0,0.0
543,81.0,192,720,1.0,0.0
544,62.0,0,960,4.0,0.0
545,54.0,240,15,5.0,0.0
546,72.0,48,180,1.0,0.0
547,71.0,180,240,1.0,0.0
548,55.0,29,420,5.0,0.0
549,79.0,24,90,3.0,0.0
550,67.0,7,180,3.0,0.0
551,79.0,204,90,3.0,0.0
552,67.0,36,180,3.0,0.0
553,79.0,204,90,3.0,0.0
554,67.0,36,180,3.0,0.0
555,79.0,204,90,3.0,0.0
556,67.0,36,180,3.0,0.0
557,79.0,204,90,3.0,0.0
558,67.0,36,180,3.0,0.0
559,79.0,204,90,3.0,0.0
560,36.0,0,240,4.0,0.0
561,48.0,180,240,5.0,0.0
562,67.0,36,180,3.0,0.0
563,79.0,24,90,3.0,0.0
564,67.0,36,180,3.0,0.0
565,79.0,204,90,3.0,0.0
566,52.0,0,240,5.0,0.0
567,67.0,36,180,3.0,0.0
568,40.0,180,240,4.0,0.0
569,79.0,24,90,3.0,0.0
570,67.0,36,180,3.0,0.0
571,79.0,204,90,3.0,0.0
572,67.0,36,180,3.0,0.0
573,55.0,180,240,5.0,0.0
574,43.0,0,240,4.0,0.0
575,79.0,24,90,3.0,0.0
576,67.0,36,180,3.0,0.0
577,79.0,204,90,3.0,0.0
578,67.0,36,180,3.0,0.0
579,48.0,0,240,4.0,0.0
580,60.0,180,240,5.0,0.0
581,79.0,24,90,3.0,0.0
582,67.0,36,180,3.0,0.0
583,79.0,204,90,3.0,0.0
584,67.0,36,180,3.0,0.0
585,52.0,0,720,4.0,0.0
586,64.0,120,720,5.0,0.0
587,79.0,204,90,3.0,0.0
588,67.0,36,180,3.0,0.0
589,79.0,204,90,3.0,0.0
590,67.0,36,180,3.0,0.0
591,79.0,24,90,3.0,0.0
592,67.0,36,180,3.0,0.0
593,62.0,60,120,5.0,0.0
594,79.0,24,90,3.0,0.0
595,60.0,180,120,5.0,0.0
596,59.0,180,240,5.0,0.0
597,67.0,36,180,3.0,0.0
598,79.0,24,90,3.0,0.0
599,67.0,36,180,3.0,0.0
600,79.0,204,90,3.0,0.0
601,67.0,36,180,3.0,0.0
602,62.0,180,240,5.0,0.0
603,79.0,24,90,3.0,0.0
604,67.0,36,180,3.0,0.0
605,79.0,204,90,3.0,0.0
606,67.0,36,180,3.0,0.0
607,65.0,155,720,5.0,0.0
608,79.0,204,90,3.0,0.0
609,67.0,36,180,3.0,0.0
610,79.0,204,90,3.0,0.0
611,67.0,36,180,3.0,0.0
612,79.0,24,90,3.0,0.0
613,62.0,25,150,5.0,0.0
614,67.0,36,180,3.0,0.0
615,79.0,179,90,3.0,0.0
616,59.0,25,150,5.0,0.0
617,67.0,36,180,3.0,0.0
618,79.0,179,90,3.0,0.0
619,67.0,36,180,3.0,0.0
620,55.0,25,150,5.0,0.0
621,79.0,179,90,3.0,0.0
622,67.0,36,180,3.0,0.0
623,53.0,25,150,5.0,0.0
624,79.0,179,90,3.0,0.0
625,50.0,25,150,5.0,0.0
626,67.0,36,180,3.0,0.0
627,79.0,240,90,3.0,0.0
628,72.0,96,240,1.0,0.0
629,48.0,96,360,4.0,0.0
630,55.0,24,90,3.0,0.0
631,52.0,24,90,3.0,0.0
632,55.0,240,90,3.0,0.0
633,76.0,96,240,1.0,0.0
634,48.0,96,360,4.0,0.0
635,55.0,24,90,3.0,0.0
636,52.0,24,90,3.0,0.0
637,55.0,240,90,3.0,0.0
638,79.0,96,240,1.0,0.0
639,48.0,96,360,4.0,0.0
640,55.0,24,90,3.0,0.0
641,52.0,24,90,3.0,0.0
642,55.0,216,90,3.0,0.0
643,84.0,24,180,1.0,0.0
644,48.0,96,360,4.0,0.0
645,55.0,120,90,3.0,0.0
646,52.0,24,90,3.0,0.0
647,55.0,240,90,3.0,0.0
648,48.0,96,360,4.0,0.0
649,88.0,96,720,1.0,0.0
650,55.0,120,90,3.0,0.0
651,52.0,24,90,3.0,0.0
652,55.0,240,90,3.0,0.0
653,48.0,0,360,4.0,0.0
654,55.0,24,90,3.0,0.0
655,86.0,96,120,1.0,0.0
656,52.0,24,90,3.0,0.0
657,55.0,24,90,3.0,0.0
658,84.0,192,120,1.0,0.0
659,50.0,96,360,4.0,0.0
660,83.0,24,180,1.0,0.0
661,55.0,120,90,3.0,0.0
662,53.0,24,90,3.0,0.0
663,55.0,216,90,3.0,0.0
664,86.0,24,180,1.0,0.0
665,50.0,96,360,4.0,0.0
666,55.0,120,90,3.0,0.0
667,53.0,24,90,3.0,0.0
668,55.0,240,90,3.0,0.0
669,50.0,96,360,4.0,0.0
670,89.0,96,720,1.0,0.0
671,55.0,120,90,3.0,0.0
672,53.0,24,90,3.0,0.0
673,55.0,240,90,3.0,0.0
674,47.0,35,360,4.0,0.0
675,55.0,24,90,3.0,0.0
676,86.0,61,150,1.0,0.0
677,50.0,24,90,3.0,0.0
678,55.0,179,90,3.0,0.0
679,83.0,61,150,1.0,0.0
680,47.0,35,360,4.0,0.0
681,55.0,120,90,3.0,0.0
682,50.0,24,90,3.0,0.0
683,79.0,61,150,1.0,0.0
684,55.0,179,90,3.0,0.0
685,47.0,35,360,4.0,0.0
686,77.0,61,150,1.0,0.0
687,55.0,120,90,3.0,0.0
688,74.0,61,150,1.0,0.0
689,50.0,24,90,3.0,0.0
690,55.0,264,90,3.0,0.0
691,48.0,555,420,4.0,0.0
692,76.0,165,240,1.0,0.0
693,76.0,0,480,2.0,0.0
694,79.0,412,480,1.0,0.0
695,77.0,533,420,1.0,0.0
696,74.0,15,420,2.0,0.0
697,73.0,0,480,2.0,0.0
698,67.0,0,480,5.0,0.0
699,76.0,0,480,1.0,0.0
700,70.0,192,480,4.0,0.0
701,69.0,0,180,4.0,0.0
702,74.0,0,180,2.0,0.0
703,77.0,288,180,1.0,0.0
704,65.0,0,180,5.0,0.0
705,74.0,240,240,2.0,0.0
706,77.0,0,240,1.0,0.0
707,77.0,192,240,2.0,0.0
708,81.0,0,240,1.0,0.0
709,77.0,0,180,1.0,0.0
710,74.0,528,180,2.0,0.0
711,68.0,0,480,4.0,0.0
712,74.0,0,480,1.0,0.0
713,71.0,192,480,2.0,0.0
714,65.0,0,480,5.0,0.0
715,64.0,0,180,5.0,0.0
716,76.0,288,180,1.0,0.0
717,72.0,0,180,2.0,0.0
718,67.0,0,180,4.0,0.0
719,79.0,120,240,1.0,0.0
720,81.0,120,120,1.0,0.0
721,79.0,120,120,1.0,0.0
722,77.0,96,120,1.0,0.0
723,76.0,144,90,1.0,0.0
724,73.0,120,120,1.0,0.0
725,69.0,360,240,4.0,0.0
726,65.0,0,240,5.0,0.0
727,74.0,0,120,1.0,0.0
728,73.0,120,120,1.0,0.0
729,65.0,0,240,5.0,0.0
730,69.0,0,240,4.0,0.0
731,74.0,360,120,1.0,0.0
732,73.0,120,120,1.0,0.0
733,65.0,393,240,5.0,0.0
734,69.0,0,240,4.0,0.0
735,74.0,7,120,1.0,0.0
736,81.0,160,150,1.0,0.0
737,62.0,0,480,4.0,0.0
738,53.0,480,480,5.0,0.0
739,77.0,130,150,1.0,0.0
740,74.0,30,120,1.0,0.0
741,64.0,0,480,4.0,0.0
742,72.0,80,480,1.0,0.0
743,55.0,233,960,5.0,0.0
744,71.0,80,90,1.0,0.0
745,65.0,0,480,4.0,0.0
746,72.0,80,90,1.0,0.0
747,71.0,120,90,1.0,0.0
748,69.0,120,120,1.0,0.0
749,71.0,7,120,1.0,0.0
750,72.0,548,420,1.0,0.0
751,60.0,172,240,5.0,0.0
752,64.0,0,240,4.0,0.0
753,52.0,0,480,5.0,0.0
754,55.0,427,480,4.0,0.0
755,50.0,533,420,5.0,0.0
756,53.0,0,420,4.0,0.0
757,49.0,192,480,5.0,0.0
758,67.0,0,480,2.0,0.0
759,52.0,0,480,4.0,0.0
760,70.0,0,480,1.0,0.0
761,69.0,0,180,1.0,0.0
762,65.0,0,180,2.0,0.0
763,50.0,0,180,5.0,0.0
764,53.0,288,180,4.0,0.0
765,53.0,240,240,4.0,0.0
766,50.0,0,240,5.0,0.0
767,57.0,192,240,4.0,0.0
768,53.0,0,240,5.0,0.0
769,53.0,528,180,4.0,0.0
770,50.0,0,180,5.0,0.0
771,65.0,0,480,2.0,0.0
772,47.0,0,480,5.0,0.0
773,68.0,0,480,1.0,0.0
774,50.0,192,480,4.0,0.0
775,64.0,0,180,2.0,0.0
776,67.0,0,180,1.0,0.0
777,48.0,168,180,5.0,0.0
778,52.0,0,180,4.0,0.0
779,67.0,120,120,1.0,0.0
780,66.0,120,120,1.0,0.0
781,69.0,120,120,1.0,0.0
782,67.0,120,120,1.0,0.0
783,65.0,96,120,1.0,0.0
784,64.0,144,90,1.0,0.0
785,64.0,120,120,1.0,0.0
786,41.0,360,240,5.0,0.0
787,62.0,0,120,1.0,0.0
788,61.0,120,120,1.0,0.0
789,53.0,360,240,5.0,0.0
790,57.0,0,240,4.0,0.0
791,62.0,0,120,1.0,0.0
792,57.0,0,240,4.0,0.0
793,53.0,0,240,5.0,0.0
794,61.0,120,120,1.0,0.0
795,62.0,360,120,1.0,0.0
796,41.0,480,480,5.0,0.0
797,53.0,0,480,4.0,0.0
798,68.0,120,120,1.0,0.0
799,69.0,120,120,1.0,0.0
800,65.0,96,120,1.0,0.0
801,62.0,24,90,1.0,0.0
802,43.0,120,960,5.0,0.0
803,60.0,0,480,1.0,0.0
804,52.0,80,480,4.0,0.0
805,59.0,80,90,1.0,0.0
806,50.0,0,480,4.0,0.0
807,60.0,80,90,1.0,0.0
808,59.0,120,90,1.0,0.0
809,57.0,120,120,1.0,0.0
810,59.0,0,120,1.0,0.0
811,36.0,120,120,5.0,0.0
812,60.0,60,420,1.0,0.0
813,48.0,120,120,5.0,0.0
814,47.0,60,120,5.0,0.0
815,48.0,360,120,5.0,0.0
816,36.0,173,420,5.0,0.0
817,62.0,67,120,1.0,0.0
818,59.0,0,120,2.0,0.0
819,60.0,0,120,2.0,0.0
820,64.0,240,120,1.0,0.0
821,62.0,0,120,2.0,0.0
822,65.0,240,120,1.0,0.0
823,64.0,53,420,2.0,0.0
824,36.0,120,120,5.0,0.0
825,67.0,0,420,1.0,0.0
826,48.0,120,120,5.0,0.0
827,47.0,67,120,5.0,0.0
828,48.0,360,120,5.0,0.0
829,36.0,173,420,5.0,0.0
830,69.0,67,120,1.0,0.0
831,65.0,0,120,2.0,0.0
832,67.0,0,120,2.0,0.0
833,70.0,240,120,1.0,0.0
834,64.0,0,120,1.0,0.0
835,58.0,240,120,2.0,0.0
836,57.0,0,420,2.0,0.0
837,65.0,53,420,1.0,0.0
838,36.0,120,120,5.0,0.0
839,48.0,120,120,5.0,0.0
840,47.0,67,120,5.0,0.0
841,48.0,360,120,5.0,0.0
842,36.0,173,420,5.0,0.0
843,60.0,0,120,2.0,0.0
844,64.0,67,120,1.0,0.0
845,62.0,240,120,2.0,0.0
846,65.0,0,120,1.0,0.0
847,64.0,0,120,2.0,0.0
848,67.0,240,120,1.0,0.0
849,65.0,0,420,2.0,0.0
850,36.0,120,120,5.0,0.0
851,69.0,60,420,1.0,0.0
852,48.0,120,120,5.0,0.0
853,47.0,60,120,5.0,0.0
854,48.0,360,120,5.0,0.0
855,36.0,173,420,5.0,0.0
856,71.0,0,120,1.0,0.0
857,67.0,67,120,2.0,0.0
858,72.0,0,120,1.0,0.0
859,69.0,240,120,2.0,0.0
860,65.0,0,120,2.0,0.0
861,69.0,240,120,1.0,0.0
862,67.0,120,120,1.0,0.0
863,64.0,0,120,2.0,0.0
864,48.0,8,420,5.0,0.0
865,36.0,60,420,5.0,0.0
866,60.0,120,120,1.0,0.0
867,62.0,52,120,1.0,0.0
868,64.0,120,120,1.0,0.0
869,65.0,120,120,1.0,0.0
870,67.0,120,120,1.0,0.0
871,69.0,120,120,1.0,0.0
872,71.0,120,120,1.0,0.0
873,72.0,120,120,1.0,0.0
874,74.0,120,120,1.0,0.0
875,76.0,120,120,1.0,0.0
876,77.0,120,120,1.0,0.0
877,79.0,120,120,1.0,0.0
878,81.0,120,120,1.0,0.0
879,77.0,120,120,1.0,0.0
880,79.0,120,120,1.0,0.0
881,76.0,120,120,1.0,0.0
882,77.0,120,120,1.0,0.0
883,74.0,120,120,1.0,0.0
884,76.0,120,120,1.0,0.0
885,72.0,120,120,1.0,0.0
886,74.0,120,120,1.0,0.0
887,70.0,120,120,1.0,0.0
888,72.0,240,120,1.0,0.0
889,69.0,53,420,1.0,0.0
890,41.0,120,120,5.0,0.0
891,43.0,67,120,5.0,0.0
892,45.0,120,120,5.0,0.0
893,81.0,120,240,1.0,0.0
894,46.0,120,120,5.0,0.0
895,77.0,0,240,2.0,0.0
896,48.0,0,120,5.0,0.0
897,50.0,120,120,5.0,0.0
898,52.0,120,120,5.0,0.0
899,53.0,120,120,5.0,0.0
900,55.0,120,120,5.0,0.0
901,81.0,0,180,1.0,0.0
902,57.0,72,120,5.0,0.0
903,77.0,48,180,2.0,0.0
904,59.0,192,120,5.0,0.0
905,60.0,48,180,5.0,0.0
906,79.0,0,240,1.0,0.0
907,76.0,120,240,2.0,0.0
908,81.0,72,120,1.0,0.0
909,53.0,24,180,5.0,0.0
910,74.0,0,120,2.0,0.0
911,77.0,436,90,1.0,0.0
912,72.0,0,480,2.0,0.0
913,55.0,68,420,5.0,0.0
914,76.0,80,480,1.0,0.0
915,71.0,0,480,2.0,0.0
916,74.0,80,90,1.0,0.0
917,43.0,60,420,5.0,0.0
918,76.0,80,90,1.0,0.0
919,74.0,120,90,1.0,0.0
920,72.0,60,120,1.0,0.0
921,74.0,120,120,1.0,0.0
922,48.0,68,420,5.0,0.0
923,72.0,120,120,1.0,0.0
924,60.0,120,120,1.0,0.0
925,62.0,52,120,1.0,0.0
926,64.0,120,120,1.0,0.0
927,65.0,120,120,1.0,0.0
928,67.0,120,120,1.0,0.0
929,69.0,120,120,1.0,0.0
930,71.0,120,120,1.0,0.0
931,72.0,120,120,1.0,0.0
932,74.0,120,120,1.0,0.0
933,76.0,120,120,1.0,0.0
934,77.0,120,120,1.0,0.0
935,79.0,120,120,1.0,0.0
936,81.0,120,120,1.0,0.0
937,77.0,120,120,1.0,0.0
938,79.0,120,120,1.0,0.0
939,76.0,120,120,1.0,0.0
940,77.0,120,120,1.0,0.0
941,74.0,120,120,1.0,0.0
942,76.0,120,120,1.0,0.0
943,72.0,120,120,1.0,0.0
944,74.0,120,120,1.0,0.0
945,70.0,120,120,1.0,0.0
946,72.0,240,120,1.0,0.0
947,69.0,60,420,1.0,0.0
948,41.0,120,120,5.0,0.0
949,43.0,60,120,5.0,0.0
950,45.0,120,120,5.0,0.0
951,77.0,0,240,2.0,0.0
952,46.0,120,120,5.0,0.0
953,81.0,120,240,1.0,0.0
954,48.0,0,120,5.0,0.0
955,50.0,120,120,5.0,0.0
956,52.0,120,120,5.0,0.0
957,53.0,120,120,5.0,0.0
958,55.0,120,120,5.0,0.0
959,57.0,72,120,5.0,0.0
960,77.0,0,180,2.0,0.0
961,81.0,48,180,1.0,0.0
962,59.0,192,120,5.0,0.0
963,60.0,48,180,5.0,0.0
964,76.0,120,240,2.0,0.0
965,79.0,0,240,1.0,0.0
966,53.0,24,180,5.0,0.0
967,74.0,0,120,2.0,0.0
968,81.0,72,120,1.0,0.0
969,77.0,451,90,1.0,0.0
970,55.0,53,420,5.0,0.0
971,72.0,0,480,2.0,0.0
972,76.0,80,480,1.0,0.0
973,71.0,0,480,2.0,0.0
974,43.0,60,420,5.0,0.0
975,74.0,80,90,1.0,0.0
976,76.0,80,90,1.0,0.0
977,74.0,120,90,1.0,0.0
978,72.0,60,120,1.0,0.0
979,74.0,120,120,1.0,0.0
980,48.0,35,420,5.0,0.0
981,72.0,95,120,1.0,0.0
982,67.0,120,90,1.0,0.0
983,72.0,85,90,1.0,0.0
984,76.0,120,90,1.0,0.0
985,79.0,120,90,1.0,0.0
986,76.0,120,90,1.0,0.0
987,72.0,120,90,1.0,0.0
988,67.0,120,90,1.0,0.0
989,55.0,5,420,5.0,0.0
990,62.0,23,180,4.0,0.0
991,77.0,97,90,1.0,0.0
992,74.0,120,90,1.0,0.0
993,71.0,92,90,1.0,0.0
994,65.0,23,180,4.0,0.0
995,67.0,120,90,1.0,0.0
996,72.0,120,90,1.0,0.0
997,60.0,28,420,5.0,0.0
998,64.0,0,420,4.0,0.0
999,67.0,120,90,1.0,0.0
1000,72.0,92,90,1.0,0.0
1001,76.0,120,90,1.0,0.0
1002,79.0,120,90,1.0,0.0
1003,76.0,120,90,1.0,0.0
1004,72.0,120,90,1.0,0.0
1005,67.0,120,90,1.0,0.0
1006,55.0,5,420,5.0,0.0
1007,77.0,97,90,1.0,0.0
1008,62.0,23,180,4.0,0.0
1009,74.0,120,90,1.0,0.0
1010,71.0,92,90,1.0,0.0
1011,65.0,23,180,4.0,0.0
1012,67.0,385,90,1.0,0.0
1013,64.0,472,360,4.0,0.0
1014,72.0,0,360,1.0,0.0
1015,60.0,0,360,5.0,0.0
1016,84.0,0,360,1.0,0.0
1017,79.0,7,360,2.0,0.0
1018,48.0,8,360,5.0,0.0
1019,60.0,1073,360,4.0,0.0
1020,76.0,0,360,2.0,0.0
1021,84.0,360,480,1.0,0.0
1022,76.0,473,360,1.0,0.0
1023,48.0,0,360,5.0,0.0
1024,60.0,7,360,4.0,0.0
1025,55.0,0,360,4.0,0.0
1026,55.0,0,360,4.0,0.0
1027,48.0,0,360,5.0,0.0
1028,60.0,600,360,4.0,0.0
1029,81.0,360,480,1.0,0.0
1030,62.0,0,360,4.0,0.0
1031,55.0,0,360,4.0,0.0
1032,53.0,480,360,5.0,0.0
1033,71.0,0,360,1.0,0.0
1034,55.0,0,360,4.0,0.0
1035,62.0,0,360,4.0,0.0
1036,53.0,180,360,5.0,0.0
1037,60.0,0,360,4.0,0.0
1038,55.0,7,360,4.0,0.0
1039,52.0,113,360,5.0,0.0
1040,72.0,60,60,1.0,0.0
1041,74.0,240,60,1.0,0.0
1042,72.0,0,240,1.0,0.0
1043,71.0,360,120,1.0,0.0
1044,72.0,120,360,1.0,0.0
1045,74.0,360,120,1.0,0.0
1046,48.0,0,480,5.0,0.0
1047,76.0,120,360,1.0,0.0
1048,77.0,480,120,1.0,0.0
1049,76.0,0,480,1.0,0.0
1050,72.0,80,480,2.0,0.0
1051,55.0,0,480,5.0,0.0
1052,74.0,80,90,1.0,0.0
1053,71.0,420,480,2.0,0.0
1054,53.0,0,480,5.0,0.0
1055,76.0,80,90,1.0,0.0
1056,74.0,120,90,1.0,0.0
1057,72.0,120,120,1.0,0.0
1058,74.0,0,120,1.0,0.0
1059,52.0,0,420,5.0,0.0
1060,72.0,300,420,1.0,0.0
1061,69.0,240,240,1.0,0.0
1062,57.0,0,1440,4.0,0.0
1063,53.0,0,1440,5.0,0.0
1064,81.0,240,240,1.0,0.0
1065,79.0,240,240,1.0,0.0
1066,77.0,240,240,1.0,0.0
1067,76.0,240,240,1.0,0.0
1068,74.0,240,240,1.0,0.0
1069,62.0,0,15,4.0,0.0
1070,72.0,240,240,1.0,0.0
1071,55.0,12,1380,4.0,0.0
1072,53.0,8,1380,5.0,0.0
1073,71.0,240,240,1.0,0.0
1074,69.0,240,240,1.0,0.0
1075,67.0,240,240,1.0,0.0
1076,69.0,172,240,1.0,0.0
1077,71.0,288,180,1.0,0.0
1078,72.0,180,240,1.0,0.0
1079,60.0,3,420,4.0,0.0
1080,55.0,0,420,4.0,0.0
1081,52.0,7,420,5.0,0.0
1082,76.0,290,180,1.0,0.0
1083,48.0,53,420,5.0,0.0
1084,76.0,0,240,2.0,0.0
1085,79.0,187,240,1.0,0.0
1086,72.0,0,240,2.0,0.0
1087,76.0,240,240,1.0,0.0
1088,81.0,0,240,1.0,0.0
1089,53.0,5,420,4.0,0.0
1090,41.0,7,420,5.0,0.0
1091,77.0,180,240,2.0,0.0
1092,77.0,0,180,1.0,0.0
1093,74.0,528,180,2.0,0.0
1094,55.0,155,720,4.0,0.0
1095,43.0,0,720,5.0,0.0
1096,72.0,0,480,2.0,0.0
1097,76.0,190,480,1.0,0.0
1098,71.0,0,180,2.0,0.0
1099,74.0,50,180,1.0,0.0
1100,79.0,240,150,1.0,0.0
1101,81.0,240,150,1.0,0.0
1102,83.0,480,150,1.0,0.0
1103,84.0,155,480,1.0,0.0
1104,68.0,85,150,5.0,0.0
1105,69.0,240,150,5.0,0.0
1106,76.0,208,420,1.0,0.0
1107,71.0,32,150,5.0,0.0
1108,72.0,240,150,5.0,0.0
1109,69.0,240,150,5.0,0.0
1110,65.0,240,150,5.0,0.0
1111,81.0,155,480,1.0,0.0
1112,64.0,85,150,5.0,0.0
1113,65.0,240,150,5.0,0.0
1114,71.0,215,420,1.0,0.0
1115,62.0,25,150,5.0,0.0
1116,67.0,240,150,5.0,0.0
1117,65.0,145,150,5.0,0.0
1118,64.0,205,150,5.0,0.0
1119,72.0,60,60,1.0,0.0
1120,74.0,35,60,1.0,0.0
1121,72.0,35,240,1.0,0.0
1122,62.0,85,150,5.0,0.0
1123,71.0,155,120,1.0,0.0
1124,64.0,205,150,5.0,0.0
1125,72.0,35,360,1.0,0.0
1126,59.0,85,150,5.0,0.0
1127,74.0,155,120,1.0,0.0
1128,76.0,35,360,1.0,0.0
1129,60.0,205,150,5.0,0.0
1130,57.0,85,150,5.0,0.0
1131,77.0,360,120,1.0,0.0
1132,76.0,0,480,1.0,0.0
1133,55.0,120,360,5.0,0.0
1134,60.0,80,240,5.0,0.0
1135,74.0,80,90,1.0,0.0
1136,53.0,0,360,5.0,0.0
1137,76.0,80,90,1.0,0.0
1138,74.0,120,90,1.0,0.0
1139,72.0,120,120,1.0,0.0
1140,59.0,0,240,5.0,0.0
1141,74.0,360,120,1.0,0.0
1142,52.0,60,360,5.0,0.0
1143,72.0,300,420,1.0,0.0
1144,60.0,0,180,5.0,0.0
1145,53.0,0,1440,5.0,0.0
1146,69.0,240,240,1.0,0.0
1147,81.0,0,240,1.0,0.0
1148,57.0,240,240,4.0,0.0
1149,61.0,0,240,4.0,0.0
1150,79.0,240,240,1.0,0.0
1151,77.0,0,240,1.0,0.0
1152,62.0,240,240,4.0,0.0
1153,64.0,0,240,4.0,0.0
1154,76.0,240,240,1.0,0.0
1155,65.0,0,1200,4.0,0.0
1156,74.0,240,240,1.0,0.0
1157,55.0,0,480,5.0,0.0
1158,72.0,240,240,1.0,0.0
1159,71.0,240,240,1.0,0.0
1160,56.0,0,480,5.0,0.0
1161,77.0,240,240,1.0,0.0
1162,71.0,240,240,1.0,0.0
1163,64.0,5,420,4.0,0.0
1164,57.0,0,420,5.0,0.0
1165,74.0,187,240,1.0,0.0
1166,72.0,168,180,1.0,0.0
1167,71.0,120,120,1.0,0.0
1168,53.0,8,450,5.0,0.0
1169,60.0,97,360,4.0,0.0
1170,69.0,120,120,1.0,0.0
1171,67.0,0,120,1.0,0.0
1172,62.0,495,120,4.0,0.0
1173,65.0,0,120,1.0,0.0
1174,60.0,80,480,4.0,0.0
1175,55.0,0,960,5.0,0.0
1176,64.0,0,480,1.0,0.0
1177,62.0,80,90,1.0,0.0
1178,59.0,120,480,4.0,0.0
1179,64.0,80,90,1.0,0.0
1180,62.0,120,90,1.0,0.0
1181,60.0,120,120,1.0,0.0
1182,62.0,0,120,1.0,0.0
1183,60.0,53,420,1.0,0.0
1184,36.0,120,120,5.0,0.0
1185,48.0,120,120,5.0,0.0
1186,47.0,67,120,5.0,0.0
1187,48.0,360,120,5.0,0.0
1188,36.0,180,420,5.0,0.0
1189,62.0,60,120,1.0,0.0
1190,59.0,0,120,2.0,0.0
1191,60.0,0,120,2.0,0.0
1192,63.0,240,120,1.0,0.0
1193,65.0,0,120,1.0,0.0
1194,62.0,240,120,2.0,0.0
1195,36.0,120,120,5.0,0.0
1196,67.0,53,420,1.0,0.0
1197,63.0,7,420,2.0,0.0
1198,48.0,120,120,5.0,0.0
1199,47.0,60,120,5.0,0.0
1200,48.0,360,120,5.0,0.0
1201,36.0,173,420,5.0,0.0
1202,63.0,0,120,2.0,0.0
1203,72.0,67,120,1.0,0.0
1204,60.0,0,120,2.0,0.0
1205,69.0,240,120,1.0,0.0
1206,67.0,0,120,1.0,0.0
1207,58.0,240,120,2.0,0.0
1208,66.0,60,420,1.0,0.0
1209,38.0,120,120,5.0,0.0
1210,57.0,0,420,2.0,0.0
1211,50.0,120,120,5.0,0.0
1212,49.0,60,120,5.0,0.0
1213,50.0,360,120,5.0,0.0
1214,38.0,173,420,5.0,0.0
1215,61.0,67,120,2.0,0.0
1216,64.0,0,120,1.0,0.0
1217,66.0,0,120,1.0,0.0
1218,62.0,240,120,2.0,0.0
1219,67.0,0,120,1.0,0.0
1220,64.0,240,120,2.0,0.0
1221,38.0,120,120,5.0,0.0
1222,66.0,60,420,2.0,0.0
1223,69.0,0,420,1.0,0.0
1224,50.0,120,120,5.0,0.0
1225,49.0,60,120,5.0,0.0
1226,50.0,360,120,5.0,0.0
1227,38.0,173,420,5.0,0.0
1228,70.0,0,120,1.0,0.0
1229,67.0,67,120,2.0,0.0
1230,72.0,0,120,1.0,0.0
1231,69.0,240,120,2.0,0.0
1232,74.0,240,120,1.0,0.0
1233,66.0,0,120,2.0,0.0
1234,70.0,53,420,1.0,0.0
1235,43.0,120,120,5.0,0.0
1236,67.0,0,420,2.0,0.0
1237,55.0,120,120,5.0,0.0
1238,54.0,67,120,5.0,0.0
1239,55.0,360,120,5.0,0.0
1240,43.0,173,420,5.0,0.0
1241,66.0,67,120,1.0,0.0
1242,57.0,0,120,2.0,0.0
1243,58.0,0,120,2.0,0.0
1244,67.0,240,120,1.0,0.0
1245,69.0,240,120,1.0,0.0
1246,60.0,0,120,2.0,0.0
1247,62.0,53,420,2.0,0.0
1248,43.0,120,120,5.0,0.0
1249,70.0,7,420,1.0,0.0
1250,55.0,120,120,5.0,0.0
1251,54.0,60,120,5.0,0.0
1252,55.0,360,120,5.0,0.0
1253,43.0,180,420,5.0,0.0
1254,67.0,0,120,2.0,0.0
1255,70.0,60,120,1.0,0.0
1256,64.0,240,120,2.0,0.0
1257,67.0,0,120,1.0,0.0
1258,62.0,0,120,2.0,0.0
1259,65.0,240,120,1.0,0.0
1260,61.0,0,420,2.0,0.0
1261,45.0,120,120,5.0,0.0
1262,64.0,53,420,1.0,0.0
1263,57.0,120,120,5.0,0.0
1264,56.0,67,120,5.0,0.0
1265,57.0,360,120,5.0,0.0
1266,45.0,173,420,5.0,0.0
1267,59.0,67,120,2.0,0.0
1268,62.0,0,120,1.0,0.0
1269,61.0,0,120,2.0,0.0
1270,64.0,240,120,1.0,0.0
1271,65.0,0,120,1.0,0.0
1272,62.0,240,120,2.0,0.0
1273,67.0,0,420,1.0,0.0
1274,45.0,120,120,5.0,0.0
1275,64.0,53,420,2.0,0.0
1276,57.0,120,120,5.0,0.0
1277,56.0,67,120,5.0,0.0
1278,57.0,360,120,5.0,0.0
1279,45.0,173,420,5.0,0.0
1280,67.0,0,120,2.0,0.0
1281,70.0,67,120,1.0,0.0
1282,65.0,0,120,2.0,0.0
1283,69.0,240,120,1.0,0.0
1284,64.0,240,120,2.0,0.0
1285,67.0,0,120,1.0,0.0
1286,65.0,53,420,1.0,0.0
1287,46.0,120,120,5.0,0.0
1288,62.0,15,420,2.0,0.0
1289,58.0,120,120,5.0,0.0
1290,57.0,52,120,5.0,0.0
1291,58.0,360,120,5.0,0.0
1292,46.0,180,420,5.0,0.0
1293,65.0,0,120,2.0,0.0
1294,74.0,60,120,1.0,0.0
1295,62.0,0,120,2.0,0.0
1296,70.0,240,120,1.0,0.0
1297,62.0,0,120,2.0,0.0
1298,69.0,240,120,1.0,0.0
1299,68.0,53,420,1.0,0.0
1300,62.0,7,420,2.0,0.0
1301,46.0,120,120,5.0,0.0
1302,58.0,120,120,5.0,0.0
1303,57.0,60,120,5.0,0.0
1304,58.0,360,120,5.0,0.0
1305,46.0,173,420,5.0,0.0
1306,68.0,0,120,1.0,0.0
1307,65.0,67,120,2.0,0.0
1308,64.0,240,120,2.0,0.0
1309,68.0,0,120,1.0,0.0
1310,68.0,0,120,1.0,0.0
1311,62.0,240,120,2.0,0.0
1312,61.0,0,420,2.0,0.0
1313,45.0,120,120,5.0,0.0
1314,69.0,53,420,1.0,0.0
1315,57.0,120,120,5.0,0.0
1316,56.0,67,120,5.0,0.0
1317,57.0,360,120,5.0,0.0
1318,45.0,173,900,5.0,0.0
1319,69.0,35,120,1.0,0.0
1320,61.0,0,120,2.0,0.0
1321,57.0,205,150,4.0,0.0
1322,56.0,205,150,4.0,0.0
1323,62.0,0,120,2.0,0.0
1324,71.0,35,120,1.0,0.0
1325,64.0,0,120,2.0,0.0
1326,55.0,32,150,4.0,0.0
1327,73.0,35,120,1.0,0.0
1328,65.0,68,420,2.0,0.0
1329,74.0,0,420,1.0,0.0
1330,45.0,120,120,5.0,0.0
1331,53.0,120,120,5.0,0.0
1332,52.0,52,120,5.0,0.0
1333,53.0,360,120,5.0,0.0
1334,45.0,173,900,5.0,0.0
1335,65.0,0,120,2.0,0.0
1336,69.0,35,120,1.0,0.0
1337,53.0,205,150,4.0,0.0
1338,67.0,0,120,1.0,0.0
1339,64.0,35,120,2.0,0.0
1340,55.0,205,150,4.0,0.0
1341,65.0,0,120,1.0,0.0
1342,62.0,35,120,2.0,0.0
1343,56.0,32,150,4.0,0.0
1344,61.0,60,420,2.0,0.0
1345,45.0,120,120,5.0,0.0
1346,64.0,0,420,1.0,0.0
1347,57.0,120,120,5.0,0.0
1348,56.0,60,120,5.0,0.0
1349,57.0,360,120,5.0,0.0
1350,45.0,180,900,5.0,0.0
1351,57.0,205,150,4.0,0.0
1352,61.0,35,120,2.0,0.0
1353,69.0,0,120,1.0,0.0
1354,71.0,0,120,1.0,0.0
1355,56.0,205,150,4.0,0.0
1356,62.0,35,120,2.0,0.0
1357,64.0,0,120,2.0,0.0
1358,73.0,35,120,1.0,0.0
1359,55.0,25,150,4.0,0.0
1360,62.0,53,420,2.0,0.0
1361,45.0,120,120,5.0,0.0
1362,74.0,7,420,1.0,0.0
1363,53.0,120,120,5.0,0.0
1364,52.0,60,120,5.0,0.0
1365,53.0,360,120,5.0,0.0
1366,45.0,173,900,5.0,0.0
1367,53.0,205,150,4.0,0.0
1368,69.0,0,120,1.0,0.0
1369,65.0,35,120,2.0,0.0
1370,67.0,0,120,1.0,0.0
1371,64.0,35,120,2.0,0.0
1372,55.0,205,150,4.0,0.0
1373,56.0,32,150,4.0,0.0
1374,65.0,0,120,1.0,0.0
1375,62.0,35,120,2.0,0.0
1376,64.0,60,420,1.0,0.0
1377,61.0,0,420,2.0,0.0
1378,45.0,120,120,5.0,0.0
1379,57.0,120,120,5.0,0.0
1380,56.0,60,120,5.0,0.0
1381,57.0,155,120,5.0,0.0
1382,45.0,205,150,5.0,0.0
1383,64.0,35,120,1.0,0.0
1384,61.0,0,120,2.0,0.0
1385,57.0,205,150,5.0,0.0
1386,69.0,0,120,1.0,0.0
1387,64.0,35,120,2.0,0.0
1388,45.0,205,150,5.0,0.0
1389,73.0,35,120,1.0,0.0
1390,69.0,0,120,2.0,0.0
1391,57.0,205,150,5.0,0.0
1392,45.0,120,120,5.0,0.0
1393,69.0,53,420,2.0,0.0
1394,72.0,7,420,1.0,0.0
1395,64.0,0,420,2.0,0.0
1396,57.0,120,120,5.0,0.0
1397,56.0,60,120,5.0,0.0
1398,57.0,155,120,5.0,0.0
1399,45.0,205,150,5.0,0.0
1400,64.0,0,120,1.0,0.0
1401,60.0,35,120,2.0,0.0
1402,57.0,205,150,5.0,0.0
1403,69.0,0,120,1.0,0.0
1404,64.0,35,120,2.0,0.0
1405,45.0,205,150,5.0,0.0
1406,72.0,0,120,1.0,0.0
1407,64.0,35,120,2.0,0.0
1408,69.0,0,120,2.0,0.0
1409,57.0,205,150,5.0,0.0
1410,43.0,120,120,5.0,0.0
1411,65.0,8,420,2.0,0.0
1412,70.0,53,420,2.0,0.0
1413,73.0,7,420,1.0,0.0
1414,55.0,120,120,5.0,0.0
1415,54.0,52,120,5.0,0.0
1416,55.0,155,120,5.0,0.0
1417,43.0,205,150,5.0,0.0
1418,64.0,35,120,1.0,0.0
1419,61.0,0,120,2.0,0.0
1420,55.0,205,150,5.0,0.0
1421,43.0,205,150,5.0,0.0
1422,64.0,35,120,2.0,0.0
1423,70.0,0,120,1.0,0.0
1424,55.0,205,150,5.0,0.0
1425,70.0,35,120,2.0,0.0
1426,73.0,0,120,1.0,0.0
1427,73.0,7,420,1.0,0.0
1428,70.0,53,420,2.0,0.0
1429,41.0,120,120,5.0,0.0
1430,65.0,0,420,2.0,0.0
1431,53.0,120,120,5.0,0.0
1432,52.0,60,120,5.0,0.0
1433,53.0,155,120,5.0,0.0
1434,41.0,205,150,5.0,0.0
1435,53.0,205,150,5.0,0.0
1436,65.0,35,120,1.0,0.0
1437,61.0,0,120,2.0,0.0
1438,41.0,205,150,5.0,0.0
1439,65.0,0,120,2.0,0.0
1440,70.0,35,120,1.0,0.0
1441,53.0,205,150,5.0,0.0
1442,70.0,0,120,2.0,0.0
1443,73.0,35,120,1.0,0.0
1444,52.0,7,420,5.0,0.0
1445,58.0,45,420,4.0,0.0
1446,55.0,8,420,4.0,0.0
1447,72.0,120,120,1.0,0.0
1448,84.0,120,120,1.0,0.0
1449,83.0,60,120,1.0,0.0
1450,84.0,155,120,1.0,0.0
1451,72.0,231,150,1.0,0.0
1452,58.0,0,150,4.0,0.0
1453,53.0,9,150,5.0,0.0
1454,73.0,231,150,1.0,0.0
1455,55.0,0,150,4.0,0.0
1456,72.0,231,150,1.0,0.0
1457,52.0,0,150,5.0,0.0
1458,58.0,9,150,4.0,0.0
1459,55.0,0,150,4.0,0.0
1460,73.0,205,150,1.0,0.0
1461,53.0,0,150,5.0,0.0
1462,55.0,9,150,4.0,0.0
1463,58.0,0,150,4.0,0.0
1464,55.0,7,420,4.0,0.0
1465,58.0,53,420,4.0,0.0
1466,72.0,120,120,1.0,0.0
1467,52.0,0,420,5.0,0.0
1468,84.0,120,120,1.0,0.0
1469,83.0,60,120,1.0,0.0
1470,84.0,155,120,1.0,0.0
1471,72.0,231,150,1.0,0.0
1472,73.0,231,150,1.0,0.0
1473,70.0,0,150,4.0,0.0
1474,67.0,0,150,4.0,0.0
1475,65.0,9,150,5.0,0.0
1476,67.0,9,150,4.0,0.0
1477,70.0,0,150,4.0,0.0
1478,72.0,231,150,1.0,0.0
1479,64.0,0,150,5.0,0.0
1480,65.0,0,150,5.0,0.0
1481,73.0,205,150,1.0,0.0
1482,70.0,9,150,4.0,0.0
1483,67.0,0,150,4.0,0.0
1484,67.0,120,2880,4.0,0.0
1485,70.0,0,2880,4.0,0.0
1486,64.0,120,1440,5.0,0.0
1487,72.0,120,120,1.0,0.0
1488,84.0,120,120,1.0,0.0
1489,83.0,120,120,1.0,0.0
1490,84.0,120,120,1.0,0.0
1491,72.0,120,120,1.0,0.0
1492,76.0,120,120,1.0,0.0
1493,75.0,120,120,1.0,0.0
1494,76.0,120,120,1.0,0.0
1495,72.0,120,120,1.0,0.0
1496,79.0,120,120,1.0,0.0
1497,78.0,120,120,1.0,0.0
1498,79.0,0,120,1.0,0.0
1499,72.0,120,120,1.0,0.0
1500,60.0,0,1440,5.0,0.0
1501,82.0,120,120,1.0,0.0
1502,81.0,120,120,1.0,0.0
1503,82.0,120,120,1.0,0.0
1504,81.0,120,120,1.0,0.0
1505,82.0,120,120,1.0,0.0
1506,81.0,120,120,1.0,0.0
1507,82.0,120,120,1.0,0.0
1508,81.0,120,120,1.0,0.0
1509,82.0,120,120,1.0,0.0
1510,86.0,120,120,1.0,0.0
1511,82.0,0,120,1.0,0.0
1512,78.0,120,120,1.0,0.0
1513,79.0,120,120,1.0,0.0
1514,82.0,120,120,1.0,0.0
1515,79.0,120,120,1.0,0.0
1516,75.0,120,120,1.0,0.0
1517,76.0,120,120,1.0,0.0
1518,79.0,120,120,1.0,0.0
1519,76.0,120,120,1.0,0.0
1520,69.0,120,120,1.0,0.0
1521,70.0,120,120,1.0,0.0
1522,76.0,120,120,1.0,0.0
1523,70.0,120,120,1.0,0.0
1524,66.0,120,120,1.0,0.0
1525,67.0,120,120,1.0,0.0
1526,70.0,120,120,1.0,0.0
1527,67.0,120,120,1.0,0.0
1528,64.0,120,120,1.0,0.0
1529,67.0,120,120,1.0,0.0
1530,65.0,120,120,1.0,0.0
1531,69.0,120,120,1.0,0.0
1532,67.0,120,120,1.0,0.0
1533,70.0,120,120,1.0,0.0
1534,69.0,120,120,1.0,0.0
1535,72.0,120,120,1.0,0.0
1536,70.0,120,120,1.0,0.0
1537,69.0,120,120,1.0,0.0
1538,67.0,120,120,1.0,0.0
1539,65.0,120,120,1.0,0.0
1540,64.0,120,120,1.0,0.0
1541,65.0,120,120,1.0,0.0
1542,67.0,120,120,1.0,0.0
1543,69.0,120,120,1.0,0.0
1544,70.0,120,120,1.0,0.0
1545,72.0,120,120,1.0,0.0
1546,74.0,96,120,1.0,0.0
1547,76.0,64,90,1.0,0.0
1548,53.0,0,300,4.0,0.0
1549,45.0,0,300,4.0,0.0
1550,48.0,0,300,4.0,0.0
1551,41.0,365,300,5.0,0.0
1552,69.0,40,40,2.0,0.0
1553,72.0,230,40,2.0,0.0
1554,77.0,115,600,1.0,0.0
1555,57.0,50,300,4.0,0.0
1556,53.0,0,300,5.0,0.0
1557,79.0,120,120,1.0,0.0
1558,77.0,120,120,1.0,0.0
1559,76.0,120,120,1.0,0.0
1560,77.0,120,120,1.0,0.0
1561,81.0,120,120,1.0,0.0
1562,77.0,310,120,1.0,0.0
1563,48.0,0,300,4.0,0.0
1564,41.0,0,300,5.0,0.0
1565,72.0,123,660,1.0,0.0
1566,45.0,0,300,4.0,0.0
1567,53.0,357,300,4.0,0.0
1568,57.0,50,300,4.0,0.0
1569,53.0,0,300,5.0,0.0
1570,74.0,120,120,1.0,0.0
1571,72.0,120,120,1.0,0.0
1572,71.0,120,120,1.0,0.0
1573,72.0,120,120,1.0,0.0
1574,77.0,120,120,1.0,0.0
1575,72.0,310,120,1.0,0.0
1576,53.0,0,300,4.0,0.0
1577,41.0,357,300,5.0,0.0
1578,45.0,0,300,4.0,0.0
1579,48.0,0,300,4.0,0.0
1580,69.0,123,660,1.0,0.0
1581,53.0,0,300,5.0,0.0
1582,57.0,50,300,4.0,0.0
1583,70.0,120,120,1.0,0.0
1584,69.0,120,120,1.0,0.0
1585,68.0,120,120,1.0,0.0
1586,69.0,120,120,1.0,0.0
1587,72.0,120,120,1.0,0.0
1588,69.0,427,120,1.0,0.0
1589,65.0,533,420,1.0,0.0
1590,57.0,0,480,5.0,0.0
1591,60.0,480,480,4.0,0.0
1592,58.0,0,480,5.0,0.0
1593,65.0,0,15,1.0,0.0
1594,62.0,480,480,4.0,0.0
1595,63.0,0,480,4.0,0.0
1596,65.0,7,1860,1.0,0.0
1597,60.0,480,480,5.0,0.0
1598,58.0,480,480,5.0,0.0
1599,62.0,0,480,4.0,0.0
1600,61.0,412,480,4.0,0.0
1601,57.0,0,480,5.0,0.0
1602,58.0,533,420,5.0,0.0
1603,62.0,8,420,4.0,0.0
1604,60.0,240,960,4.0,0.0
1605,64.0,0,480,2.0,0.0
1606,70.0,0,480,1.0,0.0
1607,55.0,480,480,5.0,0.0
1608,65.0,0,480,2.0,0.0
1609,53.0,0,480,5.0,0.0
1610,69.0,180,720,1.0,0.0
1611,58.0,7,420,5.0,0.0
1612,62.0,3,420,4.0,0.0
1613,67.0,290,180,1.0,0.0
1614,74.0,0,240,1.0,0.0
1615,70.0,190,240,2.0,0.0
1616,69.0,0,180,2.0,0.0
1617,72.0,290,180,1.0,0.0
1618,70.0,0,240,1.0,0.0
1619,67.0,190,240,2.0,0.0
1620,46.0,0,240,5.0,0.0
1621,69.0,0,180,1.0,0.0
1622,47.0,263,210,5.0,0.0
1623,65.0,27,180,2.0,0.0
1624,69.0,0,240,1.0,0.0
1625,65.0,187,240,2.0,0.0
1626,48.0,3,420,5.0,0.0
1627,67.0,0,180,1.0,0.0
1628,64.0,110,180,2.0,0.0
1629,65.0,60,60,1.0,0.0
1630,67.0,120,60,1.0,0.0
1631,65.0,190,120,1.0,0.0
1632,64.0,110,180,1.0,0.0
1633,62.0,60,60,1.0,0.0
1634,64.0,125,60,1.0,0.0
1635,62.0,185,120,1.0,0.0
1636,60.0,90,180,1.0,0.0
1637,69.0,40,40,2.0,0.0
1638,41.0,357,300,5.0,0.0
1639,48.0,0,300,4.0,0.0
1640,45.0,0,300,4.0,0.0
1641,53.0,0,300,4.0,0.0
1642,72.0,230,40,2.0,0.0
1643,77.0,123,600,1.0,0.0
1644,57.0,0,300,4.0,0.0
1645,53.0,50,300,5.0,0.0
1646,79.0,120,120,1.0,0.0
1647,77.0,120,120,1.0,0.0
1648,76.0,120,120,1.0,0.0
1649,77.0,120,120,1.0,0.0
1650,81.0,120,120,1.0,0.0
1651,77.0,310,120,1.0,0.0
1652,72.0,130,660,1.0,0.0
1653,41.0,350,300,5.0,0.0
1654,45.0,0,300,4.0,0.0
1655,48.0,0,300,4.0,0.0
1656,53.0,0,300,4.0,0.0
1657,57.0,0,300,4.0,0.0
1658,53.0,50,300,5.0,0.0
1659,74.0,120,120,1.0,0.0
1660,72.0,120,120,1.0,0.0
1661,71.0,120,120,1.0,0.0
1662,72.0,120,120,1.0,0.0
1663,77.0,120,120,1.0,0.0
1664,72.0,310,120,1.0,0.0
1665,69.0,138,660,1.0,0.0
1666,53.0,342,300,4.0,0.0
1667,48.0,0,300,4.0,0.0
1668,41.0,0,300,5.0,0.0
1669,45.0,0,300,4.0,0.0
1670,57.0,0,300,4.0,0.0
1671,53.0,50,300,5.0,0.0
1672,70.0,120,120,1.0,0.0
1673,69.0,120,120,1.0,0.0
1674,68.0,120,120,1.0,0.0
1675,69.0,120,120,1.0,0.0
1676,72.0,120,120,1.0,0.0
1677,69.0,420,120,1.0,0.0
1678,65.0,540,420,1.0,0.0
1679,60.0,0,480,4.0,0.0
1680,57.0,0,480,5.0,0.0
1681,58.0,0,480,5.0,0.0
1682,62.0,480,480,4.0,0.0
1683,65.0,480,15,1.0,0.0
1684,65.0,0,15,1.0,0.0
1685,60.0,480,480,5.0,0.0
1686,63.0,0,480,4.0,0.0
1687,62.0,0,480,4.0,0.0
1688,58.0,480,480,5.0,0.0
1689,61.0,0,480,4.0,0.0
1690,57.0,412,480,5.0,0.0
1691,62.0,8,420,4.0,0.0
1692,58.0,533,420,5.0,0.0
1693,58.0,0,480,4.0,0.0
1694,55.0,360,480,5.0,0.0
1695,74.0,0,480,1.0,0.0
1696,64.0,0,480,2.0,0.0
1697,65.0,82,360,2.0,0.0
1698,72.0,7,450,1.0,0.0
1699,60.0,8,450,4.0,0.0
1700,57.0,383,450,5.0,0.0
1701,69.0,0,90,1.0,0.0
1702,72.0,120,360,1.0,0.0
1703,69.0,0,360,2.0,0.0
1704,62.0,0,480,4.0,0.0
1705,58.0,0,480,5.0,0.0
1706,70.0,427,120,1.0,0.0
1707,67.0,0,120,2.0,0.0
1708,65.0,427,480,2.0,0.0
1709,69.0,0,480,1.0,0.0
1710,60.0,53,420,4.0,0.0
1711,48.0,53,420,5.0,0.0
1712,64.0,0,480,2.0,0.0
1713,67.0,360,480,1.0,0.0
1714,53.0,60,360,4.0,0.0
1715,57.0,0,360,4.0,0.0
1716,65.0,12,420,1.0,0.0
1717,48.0,408,180,3.0,0.0
1718,57.0,0,360,4.0,0.0
1719,53.0,0,360,4.0,0.0
1720,48.0,168,180,3.0,0.0
1721,84.0,0,120,1.0,0.0
1722,72.0,72,120,2.0,0.0
1723,72.0,0,120,2.0,0.0
1724,57.0,0,360,4.0,0.0
1725,53.0,72,360,4.0,0.0
1726,84.0,240,120,1.0,0.0
1727,48.0,408,180,3.0,0.0
1728,84.0,0,120,1.0,0.0
1729,72.0,0,120,2.0,0.0
1730,84.0,0,720,1.0,0.0
1731,57.0,0,360,4.0,0.0
1732,53.0,72,360,4.0,0.0
1733,72.0,120,720,2.0,0.0
1734,48.0,288,180,3.0,0.0
1735,53.0,72,360,4.0,0.0
1736,57.0,0,360,4.0,0.0
1737,48.0,48,180,3.0,0.0
1738,82.0,0,120,1.0,0.0
1739,81.0,155,120,1.0,0.0
1740,57.0,35,360,4.0,0.0
1741,79.0,205,150,1.0,0.0
1742,53.0,0,360,4.0,0.0
1743,48.0,108,180,3.0,0.0
1744,77.0,37,150,1.0,0.0
1745,77.0,60,60,1.0,0.0
1746,58.0,70,360,4.0,0.0
1747,55.0,0,360,4.0,0.0
1748,79.0,125,60,1.0,0.0
1749,77.0,115,120,1.0,0.0
1750,76.0,2,180,1.0,0.0
1751,48.0,238,180,3.0,0.0
1752,58.0,70,360,4.0,0.0
1753,55.0,0,360,4.0,0.0
1754,76.0,170,180,1.0,0.0
1755,48.0,238,180,3.0,0.0
1756,72.0,2,180,1.0,0.0
1757,58.0,0,360,4.0,0.0
1758,55.0,70,360,4.0,0.0
1759,72.0,170,180,1.0,0.0
1760,72.0,2,180,1.0,0.0
1761,48.0,288,180,3.0,0.0
1762,58.0,40,360,4.0,0.0
1763,79.0,80,240,1.0,0.0
1764,52.0,0,360,4.0,0.0
1765,48.0,48,180,3.0,0.0
1766,81.0,40,90,1.0,0.0
1767,79.0,32,90,1.0,0.0
1768,78.0,190,90,1.0,0.0
1769,79.0,170,180,1.0,0.0
1770,52.0,72,360,4.0,0.0
1771,58.0,0,360,4.0,0.0
1772,48.0,48,180,3.0,0.0
1773,84.0,240,240,1.0,0.0
1774,83.0,120,240,1.0,0.0
1775,55.0,0,360,4.0,0.0
1776,52.0,72,360,4.0,0.0
1777,48.0,10,180,3.0,0.0
1778,84.0,398,210,1.0,0.0
1779,53.0,72,360,4.0,0.0
1780,81.0,190,480,1.0,0.0
1781,57.0,0,360,4.0,0.0
1782,48.0,48,180,3.0,0.0
1783,57.0,0,360,4.0,0.0
1784,53.0,72,360,4.0,0.0
1785,77.0,170,180,1.0,0.0
1786,84.0,0,120,1.0,0.0
1787,48.0,168,180,3.0,0.0
1788,72.0,0,120,2.0,0.0
1789,57.0,0,360,4.0,0.0
1790,53.0,0,360,4.0,0.0
1791,84.0,240,120,1.0,0.0
1792,72.0,0,120,2.0,0.0
1793,48.0,408,180,3.0,0.0
1794,72.0,0,120,2.0,0.0
1795,84.0,72,120,1.0,0.0
1796,84.0,120,720,1.0,0.0
1797,57.0,72,360,4.0,0.0
1798,72.0,0,720,2.0,0.0
1799,53.0,0,360,4.0,0.0
1800,48.0,288,180,3.0,0.0
1801,53.0,0,360,4.0,0.0
1802,57.0,0,360,4.0,0.0
1803,86.0,72,120,1.0,0.0
1804,48.0,48,180,3.0,0.0
1805,84.0,120,120,1.0,0.0
1806,82.0,120,120,1.0,0.0
1807,53.0,72,360,4.0,0.0
1808,57.0,0,360,4.0,0.0
1809,81.0,120,120,1.0,0.0
1810,79.0,0,120,1.0,0.0
1811,48.0,24,180,3.0,0.0
1812,77.0,84,90,1.0,0.0
1813,58.0,0,360,4.0,0.0
1814,55.0,70,360,4.0,0.0
1815,77.0,60,60,1.0,0.0
1816,79.0,125,60,1.0,0.0
1817,77.0,115,120,1.0,0.0
1818,76.0,2,180,1.0,0.0
1819,48.0,238,180,3.0,0.0
1820,58.0,70,360,4.0,0.0
1821,55.0,0,360,4.0,0.0
1822,76.0,170,180,1.0,0.0
1823,72.0,2,180,1.0,0.0
1824,48.0,238,180,3.0,0.0
1825,72.0,170,180,1.0,0.0
1826,55.0,0,360,4.0,0.0
1827,58.0,70,360,4.0,0.0
1828,72.0,2,180,1.0,0.0
1829,48.0,288,180,3.0,0.0
1830,79.0,80,240,1.0,0.0
1831,58.0,40,360,4.0,0.0
1832,52.0,0,360,4.0,0.0
1833,81.0,40,90,1.0,0.0
1834,48.0,48,180,3.0,0.0
1835,79.0,32,90,1.0,0.0
1836,78.0,190,90,1.0,0.0
1837,79.0,170,180,1.0,0.0
1838,58.0,72,360,4.0,0.0
1839,52.0,0,360,4.0,0.0
1840,84.0,240,240,1.0,0.0
1841,48.0,48,180,3.0,0.0
1842,55.0,72,360,4.0,0.0
1843,52.0,0,360,4.0,0.0
1844,83.0,120,240,1.0,0.0
1845,84.0,40,240,1.0,0.0
1846,48.0,48,180,3.0,0.0
1847,41.0,0,300,5.0,0.0
1848,81.0,40,40,1.0,0.0
1849,53.0,50,300,5.0,0.0
1850,82.0,40,40,1.0,0.0
1851,81.0,120,40,1.0,0.0
1852,79.0,70,120,1.0,0.0
1853,81.0,120,120,1.0,0.0
1854,82.0,120,120,1.0,0.0
1855,84.0,120,120,1.0,0.0
1856,40.0,0,300,5.0,0.0
1857,52.0,50,300,5.0,0.0
1858,82.0,70,120,1.0,0.0
1859,81.0,120,120,1.0,0.0
1860,79.0,120,120,1.0,0.0
1861,77.0,120,120,1.0,0.0
1862,76.0,120,120,1.0,0.0
1863,74.0,96,120,1.0,0.0
1864,72.0,64,90,1.0,0.0
1865,50.0,0,300,5.0,0.0
1866,38.0,50,300,5.0,0.0
1867,77.0,40,40,1.0,0.0
1868,79.0,40,40,1.0,0.0
1869,77.0,120,40,1.0,0.0
1870,76.0,70,120,1.0,0.0
1871,77.0,120,120,1.0,0.0
1872,79.0,120,120,1.0,0.0
1873,81.0,120,120,1.0,0.0
1874,36.0,50,300,5.0,0.0
1875,48.0,0,300,5.0,0.0
1876,79.0,70,120,1.0,0.0
1877,77.0,120,120,1.0,0.0
1878,76.0,120,120,1.0,0.0
1879,74.0,120,120,1.0,0.0
1880,72.0,120,120,1.0,0.0
1881,70.0,96,120,1.0,0.0
1882,69.0,64,90,1.0,0.0
1883,46.0,0,300,5.0,0.0
1884,74.0,40,40,1.0,0.0
1885,58.0,50,300,5.0,0.0
1886,76.0,40,40,1.0,0.0
1887,74.0,120,40,1.0,0.0
1888,72.0,70,120,1.0,0.0
1889,74.0,120,120,1.0,0.0
1890,76.0,120,120,1.0,0.0
1891,77.0,120,120,1.0,0.0
1892,45.0,50,300,5.0,0.0
1893,57.0,0,300,5.0,0.0
1894,76.0,70,120,1.0,0.0
1895,74.0,120,120,1.0,0.0
1896,72.0,120,120,1.0,0.0
1897,62.0,50,300,5.0,0.0
1898,50.0,0,300,5.0,0.0
1899,70.0,120,120,1.0,0.0
1900,69.0,70,120,1.0,0.0
1901,67.0,96,120,1.0,0.0
1902,65.0,240,90,1.0,0.0
1903,67.0,0,360,2.0,0.0
1904,48.0,96,240,5.0,0.0
1905,64.0,96,360,2.0,0.0
1906,72.0,0,360,1.0,0.0
1907,60.0,24,90,3.0,0.0
1908,59.0,24,90,3.0,0.0
1909,60.0,120,90,3.0,0.0
1910,62.0,120,90,3.0,0.0
1911,60.0,120,90,3.0,0.0
1912,59.0,120,90,3.0,0.0
1913,60.0,204,90,3.0,0.0
1914,67.0,60,360,2.0,0.0
1915,76.0,0,360,1.0,0.0
1916,58.0,36,180,5.0,0.0
1917,72.0,0,360,2.0,0.0
1918,60.0,144,90,3.0,0.0
1919,59.0,36,180,5.0,0.0
1920,60.0,240,90,3.0,0.0
1921,77.0,0,360,1.0,0.0
1922,69.0,96,360,2.0,0.0
1923,72.0,0,360,2.0,0.0
1924,57.0,96,240,5.0,0.0
1925,60.0,24,90,3.0,0.0
1926,59.0,24,90,3.0,0.0
1927,60.0,240,90,3.0,0.0
1928,82.0,96,360,1.0,0.0
1929,72.0,0,360,2.0,0.0
1930,76.0,0,360,2.0,0.0
1931,55.0,96,240,5.0,0.0
1932,60.0,24,90,3.0,0.0
1933,59.0,24,90,3.0,0.0
1934,60.0,240,90,3.0,0.0
1935,72.0,0,360,2.0,0.0
1936,77.0,96,360,2.0,0.0
1937,53.0,96,240,5.0,0.0
1938,81.0,0,360,1.0,0.0
1939,60.0,24,90,3.0,0.0
1940,59.0,24,90,3.0,0.0
1941,60.0,240,90,3.0,0.0
1942,84.0,0,360,1.0,0.0
1943,76.0,0,360,2.0,0.0
1944,72.0,0,360,2.0,0.0
1945,79.0,96,360,2.0,0.0
1946,48.0,96,240,5.0,0.0
1947,60.0,24,90,3.0,0.0
1948,59.0,24,90,3.0,0.0
1949,60.0,120,90,3.0,0.0
1950,62.0,120,90,3.0,0.0
1951,60.0,120,90,3.0,0.0
1952,59.0,120,90,3.0,0.0
1953,60.0,204,90,3.0,0.0
1954,67.0,0,360,2.0,0.0
1955,76.0,60,360,1.0,0.0
1956,72.0,0,360,2.0,0.0
1957,58.0,36,180,5.0,0.0
1958,60.0,144,90,3.0,0.0
1959,59.0,36,180,5.0,0.0
1960,60.0,240,90,3.0,0.0
1961,69.0,0,360,2.0,0.0
1962,57.0,96,240,5.0,0.0
1963,72.0,96,360,2.0,0.0
1964,77.0,0,360,1.0,0.0
1965,60.0,24,90,3.0,0.0
1966,59.0,24,90,3.0,0.0
1967,60.0,240,90,3.0,0.0
1968,72.0,0,360,2.0,0.0
1969,76.0,96,360,2.0,0.0
1970,55.0,96,240,5.0,0.0
1971,82.0,0,360,1.0,0.0
1972,60.0,24,90,3.0,0.0
1973,59.0,24,90,3.0,0.0
1974,60.0,240,90,3.0,0.0
1975,81.0,0,360,1.0,0.0
1976,53.0,96,240,5.0,0.0
1977,77.0,96,360,2.0,0.0
1978,72.0,0,360,2.0,0.0
1979,60.0,24,90,3.0,0.0
1980,59.0,24,90,3.0,0.0
1981,60.0,384,90,3.0,0.0
1982,84.0,0,360,1.0,0.0
1983,48.0,0,360,5.0,0.0
1984,76.0,0,360,2.0,0.0
1985,72.0,480,360,2.0,0.0
1986,79.0,0,360,2.0,0.0
1987,60.0,0,360,1.0,0.0
1988,48.0,0,360,4.0,0.0
1989,36.0,960,360,5.0,0.0
1990,60.0,120,360,1.0,0.0
1991,57.0,360,120,1.0,0.0
1992,65.0,120,360,1.0,0.0
1993,60.0,360,120,1.0,0.0
1994,69.0,120,360,1.0,0.0
1995,65.0,155,120,1.0,0.0
1996,72.0,240,150,1.0,0.0
1997,72.0,240,150,1.0,0.0
1998,72.0,240,150,1.0,0.0
1999,72.0,240,150,1.0,0.0
2000,72.0,240,150,1.0,0.0
2001,72.0,445,150,1.0,0.0
2002,57.0,0,480,4.0,0.0
2003,50.0,441,1380,5.0,0.0
2004,54.0,0,480,4.0,0.0
2005,72.0,120,360,1.0,0.0
2006,69.0,480,120,1.0,0.0
2007,58.0,420,480,4.0,0.0
2008,55.0,0,480,4.0,0.0
2009,67.0,0,480,1.0,0.0
2010,60.0,0,420,4.0,0.0
2011,57.0,8,420,4.0,0.0
2012,69.0,7,420,1.0,0.0
2013,72.0,156,480,1.0,0.0
2014,69.0,0,480,2.0,0.0
2015,66.0,0,480,2.0,0.0
2016,50.0,84,150,5.0,0.0
2017,70.0,0,420,1.0,0.0
2018,67.0,209,420,2.0,0.0
2019,55.0,240,150,5.0,0.0
2020,50.0,31,150,5.0,0.0
2021,46.0,240,150,5.0,0.0
2022,43.0,444,150,5.0,0.0
2023,58.0,120,360,1.0,0.0
2024,55.0,360,120,1.0,0.0
2025,64.0,120,360,1.0,0.0
2026,58.0,360,120,1.0,0.0
2027,67.0,120,360,1.0,0.0
2028,64.0,155,120,1.0,0.0
2029,70.0,240,150,1.0,0.0
2030,70.0,240,150,1.0,0.0
2031,70.0,240,150,1.0,0.0
2032,70.0,240,150,1.0,0.0
2033,70.0,240,150,1.0,0.0
2034,70.0,445,150,1.0,0.0
2035,55.0,0,480,4.0,0.0
2036,52.0,480,480,4.0,0.0
2037,70.0,120,360,1.0,0.0
2038,48.0,0,960,5.0,0.0
2039,67.0,0,120,1.0,0.0
2040,53.0,412,480,4.0,0.0
2041,65.0,0,480,1.0,0.0
2042,57.0,0,480,4.0,0.0
2043,58.0,8,420,4.0,0.0
2044,67.0,449,420,1.0,0.0
2045,55.0,7,420,4.0,0.0
2046,67.0,0,480,2.0,0.0
2047,64.0,156,480,2.0,0.0
2048,70.0,0,480,1.0,0.0
2049,48.0,84,150,5.0,0.0
2050,53.0,240,150,5.0,0.0
2051,65.0,209,420,2.0,0.0
2052,69.0,7,420,1.0,0.0
2053,48.0,24,150,5.0,0.0
2054,45.0,240,150,5.0,0.0
2055,41.0,444,150,5.0,0.0
2056,69.0,96,360,1.0,0.0
2057,67.0,504,90,1.0,0.0
2058,53.0,0,900,4.0,0.0
2059,46.0,405,480,5.0,0.0
2060,67.0,0,480,1.0,0.0
2061,48.0,22,420,5.0,0.0
2062,69.0,413,420,1.0,0.0
2063,72.0,120,360,1.0,0.0
2064,53.0,7,1380,4.0,0.0
2065,50.0,0,960,5.0,0.0
2066,71.0,480,120,1.0,0.0
2067,70.0,420,480,1.0,0.0
2068,69.0,173,420,1.0,0.0
2069,48.0,0,420,5.0,0.0
2070,86.0,120,120,1.0,0.0
2071,82.0,120,120,1.0,0.0
2072,86.0,120,120,1.0,0.0
2073,82.0,480,120,1.0,0.0
2074,59.0,0,480,5.0,0.0
2075,79.0,427,480,1.0,0.0
2076,65.0,173,900,4.0,0.0
2077,60.0,0,420,5.0,0.0
2078,81.0,0,420,1.0,0.0
2079,84.0,120,120,1.0,0.0
2080,62.0,0,960,5.0,0.0
2081,65.0,420,960,4.0,0.0
2082,83.0,120,120,1.0,0.0
2083,86.0,120,120,1.0,0.0
2084,84.0,480,120,1.0,0.0
2085,82.0,0,480,1.0,0.0
2086,60.0,413,420,5.0,0.0
2087,81.0,7,420,1.0,0.0
2088,58.0,240,960,5.0,0.0
2089,62.0,480,480,4.0,0.0
2090,81.0,96,360,1.0,0.0
2091,79.0,24,90,1.0,0.0
2092,86.0,192,720,1.0,0.0
2093,67.0,29,1380,4.0,0.0
2094,59.0,216,480,5.0,0.0
2095,77.0,48,180,1.0,0.0
2096,76.0,180,240,1.0,0.0
2097,60.0,0,420,5.0,0.0
2098,84.0,24,90,3.0,0.0
2099,72.0,7,180,3.0,0.0
2100,84.0,204,90,3.0,0.0
2101,72.0,36,180,3.0,0.0
2102,84.0,204,90,3.0,0.0
2103,72.0,36,180,3.0,0.0
2104,84.0,204,90,3.0,0.0
2105,72.0,36,180,3.0,0.0
2106,84.0,204,90,3.0,0.0
2107,72.0,36,180,3.0,0.0
2108,84.0,204,90,3.0,0.0
2109,72.0,36,180,3.0,0.0
2110,41.0,0,240,5.0,0.0
2111,53.0,180,240,5.0,0.0
2112,84.0,24,90,3.0,0.0
2113,72.0,36,180,3.0,0.0
2114,84.0,204,90,3.0,0.0
2115,45.0,180,240,5.0,0.0
2116,57.0,0,240,5.0,0.0
2117,72.0,36,180,3.0,0.0
2118,84.0,24,90,3.0,0.0
2119,72.0,36,180,3.0,0.0
2120,84.0,204,90,3.0,0.0
2121,72.0,36,180,3.0,0.0
2122,60.0,0,240,5.0,0.0
2123,48.0,180,240,5.0,0.0
2124,84.0,24,90,3.0,0.0
2125,72.0,36,180,3.0,0.0
2126,84.0,204,90,3.0,0.0
2127,65.0,0,240,5.0,0.0
2128,53.0,180,240,5.0,0.0
2129,72.0,36,180,3.0,0.0
2130,84.0,24,90,3.0,0.0
2131,72.0,36,180,3.0,0.0
2132,84.0,204,90,3.0,0.0
2133,72.0,36,180,3.0,0.0
2134,57.0,120,720,5.0,0.0
2135,69.0,0,720,5.0,0.0
2136,84.0,204,90,3.0,0.0
2137,72.0,36,180,3.0,0.0
2138,84.0,204,90,3.0,0.0
2139,72.0,36,180,3.0,0.0
2140,84.0,24,90,3.0,0.0
2141,72.0,36,180,3.0,0.0
2142,67.0,60,120,5.0,0.0
2143,65.0,180,120,5.0,0.0
2144,84.0,24,90,3.0,0.0
2145,72.0,36,180,3.0,0.0
2146,64.0,180,240,5.0,0.0
2147,84.0,24,90,3.0,0.0
2148,72.0,36,180,3.0,0.0
2149,84.0,204,90,3.0,0.0
2150,72.0,36,180,3.0,0.0
2151,67.0,180,240,5.0,0.0
2152,84.0,24,90,3.0,0.0
2153,72.0,36,180,3.0,0.0
2154,84.0,204,90,3.0,0.0
2155,70.0,155,720,5.0,0.0
2156,72.0,36,180,3.0,0.0
2157,84.0,204,90,3.0,0.0
2158,72.0,36,180,3.0,0.0
2159,84.0,204,90,3.0,0.0
2160,72.0,36,180,3.0,0.0
2161,84.0,24,90,3.0,0.0
2162,67.0,25,150,5.0,0.0
2163,72.0,36,180,3.0,0.0
2164,84.0,179,90,3.0,0.0
2165,64.0,25,150,5.0,0.0
2166,72.0,36,180,3.0,0.0
2167,84.0,179,90,3.0,0.0
2168,72.0,36,180,3.0,0.0
2169,60.0,25,150,5.0,0.0
2170,84.0,179,90,3.0,0.0
2171,72.0,36,180,3.0,0.0
2172,58.0,25,150,5.0,0.0
2173,84.0,179,90,3.0,0.0
2174,72.0,36,180,3.0,0.0
2175,55.0,25,150,5.0,0.0
2176,84.0,240,90,3.0,0.0
2177,53.0,96,360,4.0,0.0
2178,65.0,96,240,1.0,0.0
2179,60.0,24,90,3.0,0.0
2180,57.0,24,90,3.0,0.0
2181,60.0,240,90,3.0,0.0
2182,53.0,96,360,4.0,0.0
2183,69.0,96,240,1.0,0.0
2184,60.0,24,90,3.0,0.0
2185,57.0,24,90,3.0,0.0
2186,60.0,240,90,3.0,0.0
2187,53.0,96,360,4.0,0.0
2188,72.0,96,240,1.0,0.0
2189,60.0,24,90,3.0,0.0
2190,57.0,24,90,3.0,0.0
2191,60.0,240,90,3.0,0.0
2192,53.0,96,360,4.0,0.0
2193,77.0,96,240,1.0,0.0
2194,60.0,24,90,3.0,0.0
2195,57.0,24,90,3.0,0.0
2196,60.0,240,90,3.0,0.0
2197,53.0,96,360,4.0,0.0
2198,81.0,96,720,1.0,0.0
2199,60.0,120,90,3.0,0.0
2200,57.0,24,90,3.0,0.0
2201,60.0,240,90,3.0,0.0
2202,53.0,0,360,4.0,0.0
2203,60.0,24,90,3.0,0.0
2204,57.0,24,90,3.0,0.0
2205,79.0,96,120,1.0,0.0
2206,60.0,24,90,3.0,0.0
2207,77.0,216,120,1.0,0.0
2208,55.0,96,360,4.0,0.0
2209,76.0,96,240,1.0,0.0
2210,60.0,24,90,3.0,0.0
2211,58.0,24,90,3.0,0.0
2212,60.0,240,90,3.0,0.0
2213,79.0,96,240,1.0,0.0
2214,55.0,96,360,4.0,0.0
2215,60.0,24,90,3.0,0.0
2216,58.0,24,90,3.0,0.0
2217,60.0,240,90,3.0,0.0
2218,55.0,96,360,4.0,0.0
2219,82.0,96,720,1.0,0.0
2220,60.0,120,90,3.0,0.0
2221,58.0,24,90,3.0,0.0
2222,60.0,240,90,3.0,0.0
2223,52.0,35,360,4.0,0.0
2224,60.0,24,90,3.0,0.0
2225,79.0,61,150,1.0,0.0
2226,55.0,24,90,3.0,0.0
2227,60.0,179,90,3.0,0.0
2228,76.0,61,150,1.0,0.0
2229,52.0,35,360,4.0,0.0
2230,60.0,120,90,3.0,0.0
2231,55.0,24,90,3.0,0.0
2232,72.0,61,150,1.0,0.0
2233,60.0,179,90,3.0,0.0
2234,52.0,35,360,4.0,0.0
2235,70.0,61,150,1.0,0.0
2236,60.0,120,90,3.0,0.0
2237,55.0,24,90,3.0,0.0
2238,67.0,61,150,1.0,0.0
2239,60.0,264,90,3.0,0.0
2240,53.0,533,420,5.0,0.0
2241,65.0,187,240,1.0,0.0
2242,84.0,0,480,1.0,0.0
2243,81.0,427,480,2.0,0.0
2244,82.0,0,420,1.0,0.0
2245,79.0,533,420,2.0,0.0
2246,63.0,0,480,4.0,0.0
2247,81.0,0,480,1.0,0.0
2248,60.0,0,480,5.0,0.0
2249,78.0,192,480,2.0,0.0
2250,62.0,0,180,4.0,0.0
2251,82.0,0,180,1.0,0.0
2252,79.0,0,180,2.0,0.0
2253,58.0,288,180,5.0,0.0
2254,79.0,240,240,2.0,0.0
2255,82.0,0,240,1.0,0.0
2256,86.0,0,240,1.0,0.0
2257,82.0,192,240,2.0,0.0
2258,82.0,0,180,1.0,0.0
2259,79.0,528,180,2.0,0.0
2260,61.0,192,480,4.0,0.0
2261,58.0,0,480,5.0,0.0
2262,79.0,0,480,1.0,0.0
2263,76.0,0,480,2.0,0.0
2264,81.0,0,180,1.0,0.0
2265,77.0,0,180,2.0,0.0
2266,57.0,240,180,5.0,0.0
2267,60.0,0,180,4.0,0.0
2268,84.0,168,180,1.0,0.0
2269,86.0,120,120,1.0,0.0
2270,84.0,120,120,1.0,0.0
2271,82.0,120,120,1.0,0.0
2272,81.0,120,120,1.0,0.0
2273,62.0,0,240,4.0,0.0
2274,78.0,120,120,1.0,0.0
2275,59.0,360,240,5.0,0.0
2276,79.0,0,120,1.0,0.0
2277,59.0,0,240,5.0,0.0
2278,78.0,120,120,1.0,0.0
2279,62.0,0,240,4.0,0.0
2280,79.0,360,120,1.0,0.0
2281,78.0,120,120,1.0,0.0
2282,62.0,0,240,4.0,0.0
2283,59.0,400,240,5.0,0.0
2284,79.0,0,120,1.0,0.0
2285,67.0,0,450,4.0,0.0
2286,86.0,160,150,1.0,0.0
2287,58.0,8,450,5.0,0.0
2288,82.0,122,150,1.0,0.0
2289,79.0,510,120,1.0,0.0
2290,69.0,0,480,4.0,0.0
2291,60.0,240,960,5.0,0.0
2292,77.0,80,480,1.0,0.0
2293,76.0,80,90,1.0,0.0
2294,70.0,0,480,4.0,0.0
2295,77.0,80,90,1.0,0.0
2296,76.0,120,90,1.0,0.0
2297,74.0,120,120,1.0,0.0
2298,76.0,0,120,1.0,0.0
2299,77.0,533,420,1.0,0.0
2300,69.0,0,240,4.0,0.0
2301,65.0,187,240,5.0,0.0
2302,57.0,0,480,5.0,0.0
2303,60.0,420,480,4.0,0.0
2304,55.0,540,420,5.0,0.0
2305,58.0,0,420,4.0,0.0
2306,72.0,0,480,2.0,0.0
2307,57.0,240,480,4.0,0.0
2308,75.0,0,480,1.0,0.0
2309,54.0,0,480,5.0,0.0
2310,70.0,0,240,2.0,0.0
2311,74.0,240,240,1.0,0.0
2312,58.0,0,15,4.0,0.0
2313,55.0,0,15,5.0,0.0
2314,62.0,192,240,4.0,0.0
2315,58.0,0,240,5.0,0.0
2316,55.0,0,180,5.0,0.0
2317,58.0,528,180,4.0,0.0
2318,55.0,0,480,4.0,0.0
2319,73.0,192,480,1.0,0.0
2320,70.0,0,480,2.0,0.0
2321,52.0,0,480,5.0,0.0
2322,57.0,0,180,4.0,0.0
2323,53.0,0,180,5.0,0.0
2324,72.0,0,180,1.0,0.0
2325,69.0,168,180,2.0,0.0
2326,72.0,120,120,1.0,0.0
2327,71.0,120,120,1.0,0.0
2328,74.0,120,120,1.0,0.0
2329,72.0,120,120,1.0,0.0
2330,70.0,120,120,1.0,0.0
2331,69.0,120,120,1.0,0.0
2332,46.0,360,240,5.0,0.0
2333,69.0,120,120,1.0,0.0
2334,67.0,0,120,1.0,0.0
2335,58.0,0,240,5.0,0.0
2336,66.0,120,120,1.0,0.0
2337,62.0,360,240,4.0,0.0
2338,67.0,0,120,1.0,0.0
2339,62.0,0,240,4.0,0.0
2340,58.0,360,240,5.0,0.0
2341,66.0,120,120,1.0,0.0
2342,67.0,0,120,1.0,0.0
2343,73.0,120,120,1.0,0.0
2344,46.0,480,480,5.0,0.0
2345,58.0,0,480,4.0,0.0
2346,74.0,120,120,1.0,0.0
2347,70.0,97,120,1.0,0.0
2348,67.0,23,90,1.0,0.0
2349,48.0,53,900,5.0,0.0
2350,57.0,80,480,4.0,0.0
2351,65.0,0,480,1.0,0.0
2352,64.0,80,90,1.0,0.0
2353,55.0,7,420,4.0,0.0
2354,65.0,80,90,1.0,0.0
2355,64.0,120,90,1.0,0.0
2356,62.0,60,120,1.0,0.0
2357,64.0,120,120,1.0,0.0
2358,65.0,60,420,1.0,0.0
2359,41.0,120,120,5.0,0.0
2360,53.0,120,120,5.0,0.0
2361,52.0,60,120,5.0,0.0
2362,53.0,395,120,5.0,0.0
2363,41.0,208,420,5.0,0.0
2364,67.0,32,150,1.0,0.0
2365,64.0,0,150,2.0,0.0
2366,69.0,240,150,1.0,0.0
2367,65.0,0,150,2.0,0.0
2368,70.0,0,150,1.0,0.0
2369,67.0,205,150,2.0,0.0
2370,69.0,0,420,2.0,0.0
2371,72.0,53,420,1.0,0.0
2372,41.0,120,120,5.0,0.0
2373,53.0,120,120,5.0,0.0
2374,52.0,67,120,5.0,0.0
2375,53.0,395,120,5.0,0.0
2376,41.0,215,420,5.0,0.0
2377,70.0,25,150,2.0,0.0
2378,74.0,0,150,1.0,0.0
2379,75.0,240,150,1.0,0.0
2380,72.0,0,150,2.0,0.0
2381,63.0,0,150,2.0,0.0
2382,69.0,205,150,1.0,0.0
2383,62.0,7,420,2.0,0.0
2384,41.0,120,120,5.0,0.0
2385,70.0,53,420,1.0,0.0
2386,53.0,120,120,5.0,0.0
2387,52.0,60,120,5.0,0.0
2388,53.0,395,120,5.0,0.0
2389,41.0,223,420,5.0,0.0
2390,69.0,17,150,1.0,0.0
2391,65.0,0,150,2.0,0.0
2392,70.0,240,150,1.0,0.0
2393,67.0,0,150,2.0,0.0
2394,69.0,0,150,2.0,0.0
2395,72.0,205,150,1.0,0.0
2396,70.0,60,420,2.0,0.0
2397,41.0,120,120,5.0,0.0
2398,74.0,0,420,1.0,0.0
2399,53.0,120,120,5.0,0.0
2400,52.0,60,120,5.0,0.0
2401,53.0,395,120,5.0,0.0
2402,41.0,215,420,5.0,0.0
2403,76.0,25,150,1.0,0.0
2404,72.0,0,150,2.0,0.0
2405,74.0,0,150,2.0,0.0
2406,77.0,240,150,1.0,0.0
2407,70.0,0,150,2.0,0.0
2408,74.0,205,150,1.0,0.0
2409,72.0,120,120,1.0,0.0
2410,53.0,60,420,5.0,0.0
2411,41.0,0,420,5.0,0.0
2412,69.0,0,120,2.0,0.0
2413,65.0,120,120,1.0,0.0
2414,67.0,60,120,1.0,0.0
2415,69.0,120,120,1.0,0.0
2416,70.0,120,120,1.0,0.0
2417,72.0,120,120,1.0,0.0
2418,74.0,120,120,1.0,0.0
2419,76.0,120,120,1.0,0.0
2420,77.0,120,120,1.0,0.0
2421,79.0,120,120,1.0,0.0
2422,81.0,120,120,1.0,0.0
2423,82.0,120,120,1.0,0.0
2424,84.0,120,120,1.0,0.0
2425,86.0,120,120,1.0,0.0
2426,82.0,120,120,1.0,0.0
2427,84.0,120,120,1.0,0.0
2428,81.0,120,120,1.0,0.0
2429,82.0,120,120,1.0,0.0
2430,79.0,120,120,1.0,0.0
2431,81.0,120,120,1.0,0.0
2432,77.0,120,120,1.0,0.0
2433,79.0,120,120,1.0,0.0
2434,75.0,120,120,1.0,0.0
2435,77.0,240,120,1.0,0.0
2436,74.0,0,480,1.0,0.0
2437,46.0,120,120,5.0,0.0
2438,48.0,120,120,5.0,0.0
2439,50.0,120,120,5.0,0.0
2440,51.0,120,120,5.0,0.0
2441,86.0,0,240,1.0,0.0
2442,82.0,0,240,2.0,0.0
2443,53.0,120,120,5.0,0.0
2444,55.0,120,120,5.0,0.0
2445,57.0,120,120,5.0,0.0
2446,58.0,120,120,5.0,0.0
2447,60.0,120,120,5.0,0.0
2448,62.0,72,120,5.0,0.0
2449,82.0,48,180,2.0,0.0
2450,86.0,0,180,1.0,0.0
2451,64.0,240,120,5.0,0.0
2452,65.0,0,240,5.0,0.0
2453,81.0,0,240,2.0,0.0
2454,84.0,120,240,1.0,0.0
2455,79.0,97,120,2.0,0.0
2456,58.0,427,240,5.0,0.0
2457,86.0,0,120,1.0,0.0
2458,82.0,23,90,1.0,0.0
2459,81.0,80,480,1.0,0.0
2460,60.0,53,420,5.0,0.0
2461,77.0,0,480,2.0,0.0
2462,48.0,60,420,5.0,0.0
2463,76.0,120,480,2.0,0.0
2464,79.0,80,90,1.0,0.0
2465,81.0,80,90,1.0,0.0
2466,79.0,120,90,1.0,0.0
2467,77.0,60,120,1.0,0.0
2468,79.0,0,120,1.0,0.0
2469,77.0,120,120,1.0,0.0
2470,53.0,45,420,5.0,0.0
2471,65.0,120,120,1.0,0.0
2472,67.0,75,120,1.0,0.0
2473,69.0,120,120,1.0,0.0
2474,70.0,120,120,1.0,0.0
2475,72.0,120,120,1.0,0.0
2476,74.0,120,120,1.0,0.0
2477,76.0,120,120,1.0,0.0
2478,77.0,120,120,1.0,0.0
2479,79.0,120,120,1.0,0.0
2480,81.0,120,120,1.0,0.0
2481,82.0,120,120,1.0,0.0
2482,84.0,120,120,1.0,0.0
2483,86.0,120,120,1.0,0.0
2484,82.0,120,120,1.0,0.0
2485,84.0,120,120,1.0,0.0
2486,81.0,120,120,1.0,0.0
2487,82.0,120,120,1.0,0.0
2488,79.0,120,120,1.0,0.0
2489,81.0,120,120,1.0,0.0
2490,77.0,120,120,1.0,0.0
2491,79.0,120,120,1.0,0.0
2492,75.0,120,120,1.0,0.0
2493,77.0,240,120,1.0,0.0
2494,74.0,0,480,1.0,0.0
2495,46.0,120,120,5.0,0.0
2496,48.0,120,120,5.0,0.0
2497,50.0,120,120,5.0,0.0
2498,86.0,120,240,1.0,0.0
2499,82.0,0,240,2.0,0.0
2500,51.0,120,120,5.0,0.0
2501,53.0,0,120,5.0,0.0
2502,55.0,120,120,5.0,0.0
2503,57.0,120,120,5.0,0.0
2504,58.0,120,120,5.0,0.0
2505,60.0,120,120,5.0,0.0
2506,62.0,72,120,5.0,0.0
2507,86.0,0,180,1.0,0.0
2508,82.0,48,180,2.0,0.0
2509,64.0,192,120,5.0,0.0
2510,81.0,0,240,2.0,0.0
2511,65.0,48,180,5.0,0.0
2512,84.0,120,240,1.0,0.0
2513,58.0,24,180,5.0,0.0
2514,79.0,0,120,2.0,0.0
2515,86.0,72,120,1.0,0.0
2516,82.0,444,90,1.0,0.0
2517,81.0,80,480,1.0,0.0
2518,77.0,0,480,2.0,0.0
2519,60.0,60,420,5.0,0.0
2520,48.0,53,420,5.0,0.0
2521,79.0,80,90,1.0,0.0
2522,76.0,96,480,2.0,0.0
2523,81.0,80,90,1.0,0.0
2524,79.0,120,90,1.0,0.0
2525,77.0,67,120,1.0,0.0
2526,79.0,0,120,1.0,0.0
2527,77.0,120,90,1.0,0.0
2528,53.0,21,420,5.0,0.0
2529,72.0,120,90,1.0,0.0
2530,77.0,99,90,1.0,0.0
2531,81.0,120,90,1.0,0.0
2532,84.0,120,90,1.0,0.0
2533,81.0,120,90,1.0,0.0
2534,77.0,120,90,1.0,0.0
2535,72.0,120,90,1.0,0.0
2536,60.0,12,420,5.0,0.0
2537,82.0,96,90,1.0,0.0
2538,67.0,24,180,4.0,0.0
2539,79.0,120,90,1.0,0.0
2540,70.0,24,180,4.0,0.0
2541,76.0,84,90,1.0,0.0
2542,72.0,120,90,1.0,0.0
2543,65.0,7,420,5.0,0.0
2544,77.0,120,90,1.0,0.0
2545,69.0,29,420,4.0,0.0
2546,72.0,120,90,1.0,0.0
2547,77.0,84,90,1.0,0.0
2548,81.0,120,90,1.0,0.0
2549,84.0,120,90,1.0,0.0
2550,81.0,120,90,1.0,0.0
2551,77.0,120,90,1.0,0.0
2552,72.0,120,90,1.0,0.0
2553,60.0,23,420,5.0,0.0
2554,67.0,24,180,4.0,0.0
2555,82.0,96,90,1.0,0.0
2556,79.0,120,90,1.0,0.0
2557,70.0,6,210,4.0,0.0
2558,76.0,91,90,1.0,0.0
2559,72.0,384,90,1.0,0.0
2560,77.0,0,360,1.0,0.0
2561,65.0,0,360,5.0,0.0
2562,69.0,480,360,4.0,0.0
2563,81.0,0,360,2.0,0.0
2564,41.0,7,360,5.0,0.0
2565,84.0,0,360,2.0,0.0
2566,53.0,1228,360,5.0,0.0
2567,89.0,0,360,1.0,0.0
2568,81.0,240,150,2.0,0.0
2569,84.0,0,150,1.0,0.0
2570,81.0,229,150,2.0,0.0
2571,84.0,0,150,1.0,0.0
2572,62.0,11,150,5.0,0.0
2573,65.0,0,150,4.0,0.0
2574,77.0,0,150,2.0,0.0
2575,81.0,229,150,1.0,0.0
2576,65.0,240,150,4.0,0.0
2577,62.0,0,150,5.0,0.0
2578,82.0,0,150,1.0,0.0
2579,58.0,11,150,5.0,0.0
2580,79.0,240,150,2.0,0.0
2581,62.0,0,150,4.0,0.0
2582,82.0,229,150,1.0,0.0
2583,79.0,0,150,2.0,0.0
2584,64.0,11,150,4.0,0.0
2585,76.0,0,150,2.0,0.0
2586,79.0,229,150,1.0,0.0
2587,60.0,0,150,5.0,0.0
2588,60.0,0,150,5.0,0.0
2589,64.0,216,150,4.0,0.0
2590,77.0,24,120,1.0,0.0
2591,60.0,0,150,4.0,0.0
2592,57.0,96,150,5.0,0.0
2593,79.0,120,120,1.0,0.0
2594,81.0,120,120,1.0,0.0
2595,77.0,120,120,1.0,0.0
2596,76.0,120,120,1.0,0.0
2597,58.0,0,720,5.0,0.0
2598,74.0,120,120,1.0,0.0
2599,76.0,120,120,1.0,0.0
2600,78.0,120,120,1.0,0.0
2601,79.0,120,120,1.0,0.0
2602,81.0,120,120,1.0,0.0
2603,55.0,0,240,5.0,0.0
2604,82.0,120,120,1.0,0.0
2605,79.0,120,120,1.0,0.0
2606,77.0,120,120,1.0,0.0
2607,60.0,0,240,5.0,0.0
2608,76.0,120,120,1.0,0.0
2609,74.0,120,120,1.0,0.0
2610,72.0,155,120,1.0,0.0
2611,81.0,0,150,2.0,0.0
2612,84.0,240,150,1.0,0.0
2613,81.0,0,150,2.0,0.0
2614,84.0,229,150,1.0,0.0
2615,77.0,229,150,2.0,0.0
2616,62.0,11,150,5.0,0.0
2617,81.0,0,150,1.0,0.0
2618,65.0,0,150,4.0,0.0
2619,62.0,240,150,5.0,0.0
2620,65.0,0,150,4.0,0.0
2621,86.0,240,150,1.0,0.0
2622,82.0,0,150,2.0,0.0
2623,58.0,11,150,4.0,0.0
2624,55.0,0,150,5.0,0.0
2625,82.0,229,150,2.0,0.0
2626,86.0,0,150,1.0,0.0
2627,76.0,0,150,2.0,0.0
2628,79.0,229,150,1.0,0.0
2629,64.0,0,150,4.0,0.0
2630,60.0,11,150,5.0,0.0
2631,64.0,0,150,4.0,0.0
2632,60.0,216,150,5.0,0.0
2633,53.0,96,150,5.0,0.0
2634,57.0,0,150,4.0,0.0
2635,86.0,24,120,1.0,0.0
2636,84.0,120,120,1.0,0.0
2637,82.0,120,120,1.0,0.0
2638,81.0,120,120,1.0,0.0
2639,78.0,120,120,1.0,0.0
2640,58.0,0,720,5.0,0.0
2641,62.0,0,720,4.0,0.0
2642,79.0,120,120,1.0,0.0
2643,81.0,120,120,1.0,0.0
2644,82.0,120,120,1.0,0.0
2645,74.0,120,120,1.0,0.0
2646,77.0,120,120,1.0,0.0
2647,70.0,0,240,4.0,0.0
2648,76.0,120,120,1.0,0.0
2649,60.0,0,240,5.0,0.0
2650,79.0,155,120,1.0,0.0
2651,69.0,0,150,4.0,0.0
2652,65.0,240,150,5.0,0.0
2653,77.0,1,150,1.0,0.0
2654,53.0,204,150,5.0,0.0
2655,65.0,80,360,4.0,0.0
2656,81.0,120,120,1.0,0.0
2657,83.0,80,120,1.0,0.0
2658,72.0,0,120,3.0,0.0
2659,69.0,0,120,3.0,0.0
2660,84.0,40,90,1.0,0.0
2661,84.0,40,90,1.0,0.0
2662,72.0,120,120,3.0,0.0
2663,64.0,0,360,4.0,0.0
2664,86.0,120,120,1.0,0.0
2665,72.0,120,120,3.0,0.0
2666,84.0,0,120,1.0,0.0
2667,83.0,0,120,1.0,0.0
2668,67.0,120,120,3.0,0.0
2669,81.0,0,120,1.0,0.0
2670,72.0,80,120,3.0,0.0
2671,59.0,80,360,4.0,0.0
2672,79.0,120,90,1.0,0.0
2673,67.0,80,120,3.0,0.0
2674,78.0,40,90,1.0,0.0
2675,62.0,0,120,3.0,0.0
2676,79.0,40,90,1.0,0.0
2677,67.0,120,120,3.0,0.0
2678,77.0,40,90,1.0,0.0
2679,75.0,120,120,1.0,0.0
2680,60.0,0,360,4.0,0.0
2681,67.0,0,120,3.0,0.0
2682,76.0,120,120,1.0,0.0
2683,64.0,120,120,3.0,0.0
2684,77.0,0,120,1.0,0.0
2685,67.0,120,120,3.0,0.0
2686,76.0,0,120,1.0,0.0
2687,81.0,95,120,1.0,0.0
2688,52.0,0,360,4.0,0.0
2689,79.0,95,120,1.0,0.0
2690,60.0,25,90,3.0,0.0
2691,55.0,25,90,3.0,0.0
2692,77.0,95,120,1.0,0.0
2693,76.0,120,120,1.0,0.0
2694,60.0,25,90,3.0,0.0
2695,73.0,95,120,1.0,0.0
2696,53.0,95,360,4.0,0.0
2697,74.0,95,120,1.0,0.0
2698,62.0,25,90,3.0,0.0
2699,57.0,25,90,3.0,0.0
2700,76.0,0,120,1.0,0.0
2701,62.0,25,90,3.0,0.0
2702,77.0,120,120,1.0,0.0
2703,54.0,95,360,4.0,0.0
2704,69.0,95,120,1.0,0.0
2705,62.0,25,90,3.0,0.0
2706,71.0,95,120,1.0,0.0
2707,57.0,25,90,3.0,0.0
2708,72.0,0,120,1.0,0.0
2709,74.0,120,120,1.0,0.0
2710,62.0,25,90,3.0,0.0
2711,72.0,70,120,1.0,0.0
2712,55.0,50,180,5.0,0.0
2713,71.0,120,120,1.0,0.0
2714,69.0,120,120,1.0,0.0
2715,67.0,155,120,1.0,0.0
2716,79.0,240,150,1.0,0.0
2717,76.0,0,150,2.0,0.0
2718,79.0,240,150,1.0,0.0
2719,76.0,0,150,2.0,0.0
2720,60.0,0,150,4.0,0.0
2721,57.0,0,150,5.0,0.0
2722,76.0,240,150,1.0,0.0
2723,72.0,0,150,2.0,0.0
2724,60.0,240,150,4.0,0.0
2725,57.0,0,150,5.0,0.0
2726,57.0,0,150,4.0,0.0
2727,77.0,240,150,1.0,0.0
2728,74.0,0,150,2.0,0.0
2729,53.0,0,150,5.0,0.0
2730,74.0,240,150,2.0,0.0
2731,77.0,0,150,1.0,0.0
2732,55.0,0,150,5.0,0.0
2733,59.0,0,150,4.0,0.0
2734,74.0,1,150,1.0,0.0
2735,71.0,239,150,2.0,0.0
2736,59.0,204,150,4.0,0.0
2737,55.0,1,150,5.0,0.0
2738,52.0,0,150,5.0,0.0
2739,55.0,85,150,4.0,0.0
2740,84.0,35,120,1.0,0.0
2741,86.0,120,120,1.0,0.0
2742,88.0,120,120,1.0,0.0
2743,84.0,120,120,1.0,0.0
2744,53.0,120,480,5.0,0.0
2745,80.0,120,120,1.0,0.0
2746,60.0,120,720,4.0,0.0
2747,81.0,120,120,1.0,0.0
2748,84.0,120,120,1.0,0.0
2749,81.0,0,120,1.0,0.0
2750,79.0,120,120,1.0,0.0
2751,55.0,0,480,5.0,0.0
2752,76.0,0,120,1.0,0.0
2753,77.0,120,120,1.0,0.0
2754,59.0,156,240,4.0,0.0
2755,74.0,0,120,1.0,0.0
2756,60.0,84,150,5.0,0.0
2757,72.0,168,240,1.0,0.0
2758,48.0,192,180,5.0,0.0
2759,72.0,120,120,1.0,0.0
2760,74.0,120,120,1.0,0.0
2761,76.0,120,120,1.0,0.0
2762,77.0,156,120,1.0,0.0
2763,60.0,0,150,5.0,0.0
2764,79.0,216,180,1.0,0.0
2765,64.0,36,150,4.0,0.0
2766,48.0,192,180,5.0,0.0
2767,76.0,120,120,1.0,0.0
2768,77.0,120,120,1.0,0.0
2769,79.0,120,120,1.0,0.0
2770,81.0,156,120,1.0,0.0
2771,60.0,0,150,5.0,0.0
2772,82.0,216,180,1.0,0.0
2773,64.0,36,150,4.0,0.0
2774,48.0,192,180,5.0,0.0
2775,79.0,120,120,1.0,0.0
2776,81.0,120,120,1.0,0.0
2777,82.0,120,120,1.0,0.0
2778,84.0,155,120,1.0,0.0
2779,86.0,240,150,1.0,0.0
2780,85.0,240,150,1.0,0.0
2781,84.0,240,150,1.0,0.0
2782,83.0,240,150,1.0,0.0
2783,82.0,480,150,1.0,0.0
2784,81.0,0,150,2.0,0.0
2785,84.0,240,150,1.0,0.0
2786,81.0,240,150,2.0,0.0
2787,84.0,0,150,1.0,0.0
2788,77.0,0,150,2.0,0.0
2789,62.0,0,150,5.0,0.0
2790,65.0,240,150,4.0,0.0
2791,81.0,0,150,1.0,0.0
2792,62.0,0,150,5.0,0.0
2793,65.0,240,150,4.0,0.0
2794,62.0,0,150,4.0,0.0
2795,58.0,240,150,5.0,0.0
2796,79.0,0,150,2.0,0.0
2797,82.0,0,150,1.0,0.0
2798,79.0,0,150,2.0,0.0
2799,82.0,240,150,1.0,0.0
2800,79.0,240,150,1.0,0.0
2801,76.0,0,150,2.0,0.0
2802,64.0,0,150,4.0,0.0
2803,60.0,0,150,5.0,0.0
2804,64.0,0,150,4.0,0.0
2805,60.0,205,150,5.0,0.0
2806,60.0,85,150,4.0,0.0
2807,77.0,35,120,1.0,0.0
2808,57.0,0,150,5.0,0.0
2809,79.0,120,120,1.0,0.0
2810,81.0,120,120,1.0,0.0
2811,77.0,120,120,1.0,0.0
2812,76.0,120,120,1.0,0.0
2813,58.0,0,720,5.0,0.0
2814,74.0,120,120,1.0,0.0
2815,76.0,120,120,1.0,0.0
2816,78.0,120,120,1.0,0.0
2817,79.0,120,120,1.0,0.0
2818,81.0,120,120,1.0,0.0
2819,55.0,120,240,5.0,0.0
2820,82.0,120,120,1.0,0.0
2821,79.0,0,120,1.0,0.0
2822,77.0,120,120,1.0,0.0
2823,60.0,120,240,5.0,0.0
2824,76.0,0,120,1.0,0.0
2825,74.0,120,120,1.0,0.0
2826,72.0,155,120,1.0,0.0
2827,81.0,240,150,2.0,0.0
2828,84.0,0,150,1.0,0.0
2829,81.0,240,150,2.0,0.0
2830,84.0,0,150,1.0,0.0
2831,65.0,0,150,4.0,0.0
2832,81.0,240,150,1.0,0.0
2833,62.0,0,150,5.0,0.0
2834,77.0,0,150,2.0,0.0
2835,65.0,240,150,4.0,0.0
2836,62.0,0,150,5.0,0.0
2837,58.0,240,150,4.0,0.0
2838,82.0,0,150,1.0,0.0
2839,79.0,0,150,2.0,0.0
2840,55.0,0,150,5.0,0.0
2841,82.0,240,150,1.0,0.0
2842,79.0,0,150,2.0,0.0
2843,79.0,0,150,1.0,0.0
2844,64.0,0,150,4.0,0.0
2845,76.0,0,150,2.0,0.0
2846,60.0,240,150,5.0,0.0
2847,60.0,0,150,5.0,0.0
2848,64.0,205,150,4.0,0.0
2849,53.0,0,150,5.0,0.0
2850,57.0,85,150,4.0,0.0
2851,86.0,35,120,1.0,0.0
2852,84.0,120,120,1.0,0.0
2853,82.0,120,120,1.0,0.0
2854,81.0,120,120,1.0,0.0
2855,78.0,120,120,1.0,0.0
2856,62.0,120,720,4.0,0.0
2857,58.0,0,720,5.0,0.0
2858,79.0,120,120,1.0,0.0
2859,81.0,120,120,1.0,0.0
2860,82.0,120,120,1.0,0.0
2861,74.0,120,120,1.0,0.0
2862,77.0,0,120,1.0,0.0
2863,60.0,84,150,5.0,0.0
2864,76.0,36,120,1.0,0.0
2865,70.0,0,150,4.0,0.0
2866,79.0,155,120,1.0,0.0
2867,69.0,0,150,4.0,0.0
2868,77.0,240,150,1.0,0.0
2869,65.0,0,150,5.0,0.0
2870,53.0,240,150,5.0,0.0
2871,69.0,0,150,4.0,0.0
2872,65.0,240,150,5.0,0.0
2873,65.0,0,150,5.0,0.0
2874,69.0,205,150,4.0,0.0
2875,81.0,35,120,1.0,0.0
2876,62.0,85,150,5.0,0.0
2877,65.0,0,150,4.0,0.0
2878,80.0,120,120,1.0,0.0
2879,82.0,120,120,1.0,0.0
2880,81.0,155,120,1.0,0.0
2881,67.0,0,150,4.0,0.0
2882,64.0,240,150,5.0,0.0
2883,67.0,0,150,4.0,0.0
2884,64.0,205,150,5.0,0.0
2885,61.0,85,150,5.0,0.0
2886,64.0,0,150,4.0,0.0
2887,81.0,35,120,1.0,0.0
2888,80.0,120,120,1.0,0.0
2889,82.0,120,120,1.0,0.0
2890,81.0,155,120,1.0,0.0
2891,81.0,0,150,2.0,0.0
2892,89.0,240,150,1.0,0.0
2893,81.0,0,150,2.0,0.0
2894,89.0,205,150,1.0,0.0
2895,77.0,85,150,2.0,0.0
2896,69.0,35,120,5.0,0.0
2897,86.0,0,150,1.0,0.0
2898,68.0,120,120,5.0,0.0
2899,70.0,120,120,5.0,0.0
2900,69.0,155,120,5.0,0.0
2901,88.0,240,150,1.0,0.0
2902,79.0,0,150,2.0,0.0
2903,88.0,205,150,1.0,0.0
2904,79.0,0,150,2.0,0.0
2905,85.0,85,150,1.0,0.0
2906,69.0,35,120,5.0,0.0
2907,76.0,0,150,2.0,0.0
2908,68.0,120,120,5.0,0.0
2909,70.0,120,120,5.0,0.0
2910,69.0,120,120,5.0,0.0
2911,86.0,120,120,1.0,0.0
2912,81.0,120,120,1.0,0.0
2913,77.0,120,120,1.0,0.0
2914,69.0,105,240,2.0,0.0
2915,65.0,8,240,5.0,0.0
2916,74.0,7,120,1.0,0.0
2917,70.0,0,480,2.0,0.0
2918,77.0,120,120,1.0,0.0
2919,67.0,120,480,5.0,0.0
2920,75.0,120,120,1.0,0.0
2921,74.0,80,120,1.0,0.0
2922,75.0,40,90,1.0,0.0
2923,69.0,120,480,5.0,0.0
2924,79.0,120,120,1.0,0.0
2925,72.0,0,480,2.0,0.0
2926,78.0,120,120,1.0,0.0
2927,77.0,80,120,1.0,0.0
2928,78.0,40,90,1.0,0.0
2929,81.0,95,120,1.0,0.0
2930,70.0,120,240,5.0,0.0
2931,79.0,25,90,1.0,0.0
2932,82.0,95,120,1.0,0.0
2933,66.0,120,240,5.0,0.0
2934,81.0,25,90,1.0,0.0
2935,67.0,120,240,5.0,0.0
2936,84.0,95,120,1.0,0.0
2937,82.0,25,90,1.0,0.0
2938,69.0,0,240,5.0,0.0
2939,82.0,95,120,1.0,0.0
2940,81.0,25,90,1.0,0.0
2941,70.0,0,240,5.0,0.0
2942,74.0,120,15,2.0,0.0
2943,81.0,95,120,1.0,0.0
2944,80.0,25,90,1.0,0.0
2945,89.0,0,480,1.0,0.0
2946,46.0,0,240,5.0,0.0
2947,50.0,240,240,4.0,0.0
2948,80.0,215,240,1.0,0.0
2949,45.0,120,720,5.0,0.0
2950,81.0,120,240,1.0,0.0
2951,57.0,25,90,3.0,0.0
2952,49.0,95,120,4.0,0.0
2953,57.0,145,90,3.0,0.0
2954,52.0,95,120,4.0,0.0
2955,88.0,0,120,1.0,0.0
2956,57.0,25,90,3.0,0.0
2957,85.0,0,120,1.0,0.0
2958,81.0,95,120,1.0,0.0
2959,49.0,0,120,4.0,0.0
2960,57.0,25,90,3.0,0.0
2961,79.0,120,120,1.0,0.0
2962,45.0,0,720,5.0,0.0
2963,77.0,95,120,1.0,0.0
2964,81.0,120,120,1.0,0.0
2965,57.0,25,90,3.0,0.0
2966,50.0,95,120,4.0,0.0
2967,86.0,0,120,1.0,0.0
2968,57.0,25,90,3.0,0.0
2969,85.0,120,120,1.0,0.0
2970,53.0,0,120,4.0,0.0
2971,86.0,95,120,1.0,0.0
2972,81.0,120,120,1.0,0.0
2973,57.0,25,90,3.0,0.0
2974,50.0,0,120,4.0,0.0
2975,77.0,95,120,1.0,0.0
2976,57.0,25,90,3.0,0.0
2977,74.0,120,120,1.0,0.0
2978,45.0,0,720,5.0,0.0
2979,73.0,95,120,1.0,0.0
2980,57.0,25,90,3.0,0.0
2981,76.0,120,120,1.0,0.0
2982,81.0,0,120,1.0,0.0
2983,49.0,95,120,4.0,0.0
2984,85.0,120,120,1.0,0.0
2985,57.0,25,90,3.0,0.0
2986,52.0,0,120,4.0,0.0
2987,88.0,95,120,1.0,0.0
2988,85.0,120,120,1.0,0.0
2989,57.0,25,90,3.0,0.0
2990,81.0,0,120,1.0,0.0
2991,49.0,95,120,4.0,0.0
2992,79.0,120,120,1.0,0.0
2993,57.0,25,90,3.0,0.0
2994,45.0,120,720,5.0,0.0
2995,77.0,95,120,1.0,0.0
2996,81.0,120,120,1.0,0.0
2997,57.0,25,90,3.0,0.0
2998,86.0,0,120,1.0,0.0
2999,50.0,95,120,4.0,0.0
3000,85.0,120,120,1.0,0.0
3001,57.0,25,90,3.0,0.0
3002,53.0,0,120,4.0,0.0
3003,86.0,95,120,1.0,0.0
3004,57.0,25,90,3.0,0.0
3005,81.0,0,120,1.0,0.0
3006,50.0,0,120,4.0,0.0
3007,77.0,95,120,1.0,0.0
3008,57.0,25,90,3.0,0.0
3009,74.0,155,120,1.0,0.0
3010,69.0,35,150,1.0,0.0
3011,45.0,445,180,5.0,0.0
3012,77.0,240,150,2.0,0.0
3013,81.0,0,150,1.0,0.0
3014,77.0,0,150,2.0,0.0
3015,81.0,205,150,1.0,0.0
3016,69.0,35,120,5.0,0.0
3017,77.0,85,150,1.0,0.0
3018,74.0,0,150,2.0,0.0
3019,68.0,120,120,5.0,0.0
3020,70.0,120,120,5.0,0.0
3021,69.0,155,120,5.0,0.0
3022,76.0,0,150,2.0,0.0
3023,79.0,240,150,1.0,0.0
3024,79.0,0,150,1.0,0.0
3025,76.0,205,150,2.0,0.0
3026,73.0,85,150,2.0,0.0
3027,76.0,0,150,1.0,0.0
3028,69.0,35,120,5.0,0.0
3029,68.0,120,120,5.0,0.0
3030,70.0,120,120,5.0,0.0
3031,69.0,155,120,5.0,0.0
3032,65.0,240,150,4.0,0.0
3033,57.0,0,150,5.0,0.0
3034,57.0,205,150,5.0,0.0
3035,65.0,0,150,4.0,0.0
3036,53.0,0,150,5.0,0.0
3037,62.0,85,150,4.0,0.0
3038,69.0,35,120,1.0,0.0
3039,68.0,120,120,1.0,0.0
3040,70.0,120,120,1.0,0.0
3041,69.0,155,120,1.0,0.0
3042,55.0,240,150,5.0,0.0
3043,64.0,0,150,4.0,0.0
3044,64.0,205,150,4.0,0.0
3045,55.0,0,150,5.0,0.0
3046,52.0,0,150,5.0,0.0
3047,61.0,85,150,4.0,0.0
3048,81.0,35,120,1.0,0.0
3049,80.0,120,120,1.0,0.0
3050,82.0,120,120,1.0,0.0
3051,81.0,120,120,1.0,0.0
3052,64.0,0,480,2.0,0.0
3053,79.0,120,120,1.0,0.0
3054,61.0,0,480,5.0,0.0
3055,78.0,120,120,1.0,0.0
3056,81.0,120,120,1.0,0.0
3057,79.0,120,120,1.0,0.0
3058,65.0,25,180,2.0,0.0
3059,62.0,0,180,5.0,0.0
3060,79.0,70,120,1.0,0.0
3061,77.0,145,90,1.0,0.0
3062,64.0,25,180,5.0,0.0
3063,67.0,0,180,2.0,0.0
3064,77.0,70,120,1.0,0.0
3065,76.0,145,90,1.0,0.0
3066,69.0,120,480,2.0,0.0
3067,65.0,25,180,5.0,0.0
3068,76.0,70,120,1.0,0.0
3069,74.0,145,90,1.0,0.0
3070,86.0,70,120,1.0,0.0
3071,66.0,25,180,5.0,0.0
3072,84.0,25,90,1.0,0.0
3073,67.0,25,180,5.0,0.0
3074,84.0,70,120,1.0,0.0
3075,74.0,120,960,2.0,0.0
3076,82.0,145,90,1.0,0.0
3077,69.0,25,180,5.0,0.0
3078,82.0,70,120,1.0,0.0
3079,81.0,145,90,1.0,0.0
3080,81.0,70,120,1.0,0.0
3081,70.0,25,180,5.0,0.0
3082,79.0,145,90,1.0,0.0
3083,69.0,25,180,5.0,0.0
3084,79.0,70,120,1.0,0.0
3085,77.0,25,90,1.0,0.0
3086,70.0,0,240,2.0,0.0
3087,67.0,0,240,5.0,0.0
3088,75.0,120,120,1.0,0.0
3089,82.0,120,120,1.0,0.0
3090,79.0,120,120,1.0,0.0
3091,75.0,190,120,1.0,0.0
3092,65.0,190,240,4.0,0.0
3093,74.0,50,180,1.0,0.0
3094,57.0,0,480,5.0,0.0
3095,73.0,50,180,1.0,0.0
3096,64.0,190,240,4.0,0.0
3097,62.0,0,360,5.0,0.0
3098,74.0,50,180,1.0,0.0
3099,65.0,120,120,3.0,0.0
3100,69.0,120,120,3.0,0.0
3101,65.0,95,120,3.0,0.0
3102,73.0,120,90,1.0,0.0
3103,57.0,95,360,5.0,0.0
3104,64.0,95,120,3.0,0.0
3105,79.0,25,90,1.0,0.0
3106,76.0,25,90,1.0,0.0
3107,67.0,0,120,3.0,0.0
3108,64.0,190,120,3.0,0.0
3109,73.0,25,90,1.0,0.0
3110,74.0,50,180,1.0,0.0
3111,62.0,120,360,5.0,0.0
3112,65.0,120,120,3.0,0.0
3113,69.0,0,120,3.0,0.0
3114,65.0,95,120,3.0,0.0
3115,57.0,95,360,5.0,0.0
3116,73.0,120,90,1.0,0.0
3117,79.0,25,90,1.0,0.0
3118,64.0,95,120,3.0,0.0
3119,76.0,25,90,1.0,0.0
3120,67.0,0,120,3.0,0.0
3121,73.0,25,90,1.0,0.0
3122,64.0,190,120,3.0,0.0
3123,74.0,50,180,1.0,0.0
3124,62.0,120,360,5.0,0.0
3125,65.0,120,120,3.0,0.0
3126,69.0,0,120,3.0,0.0
3127,65.0,95,120,3.0,0.0
3128,57.0,95,360,5.0,0.0
3129,73.0,120,90,1.0,0.0
3130,64.0,95,120,3.0,0.0
3131,79.0,25,90,1.0,0.0
3132,76.0,25,90,1.0,0.0
3133,67.0,0,120,3.0,0.0
3134,64.0,95,120,3.0,0.0
3135,73.0,25,90,1.0,0.0
3136,74.0,120,90,1.0,0.0
3137,62.0,0,360,5.0,0.0
3138,65.0,95,120,3.0,0.0
3139,81.0,25,90,1.0,0.0
3140,69.0,95,120,3.0,0.0
3141,77.0,25,90,1.0,0.0
3142,74.0,25,90,1.0,0.0
3143,65.0,95,120,3.0,0.0
3144,60.0,156,360,5.0,0.0
3145,76.0,120,90,1.0,0.0
3146,82.0,25,90,1.0,0.0
3147,67.0,95,120,3.0,0.0
3148,79.0,25,90,1.0,0.0
3149,70.0,0,120,3.0,0.0
3150,67.0,0,150,3.0,0.0
3151,76.0,599,150,1.0,0.0
3152,84.0,240,150,1.0,0.0
3153,81.0,0,150,2.0,0.0
3154,84.0,0,150,1.0,0.0
3155,81.0,240,150,2.0,0.0
3156,77.0,240,150,2.0,0.0
3157,62.0,0,150,5.0,0.0
3158,65.0,0,150,4.0,0.0
3159,81.0,0,150,1.0,0.0
3160,62.0,0,150,5.0,0.0
3161,65.0,240,150,4.0,0.0
3162,58.0,0,150,5.0,0.0
3163,62.0,240,150,4.0,0.0
3164,82.0,0,150,1.0,0.0
3165,79.0,0,150,2.0,0.0
3166,82.0,0,150,1.0,0.0
3167,79.0,240,150,2.0,0.0
3168,64.0,0,150,4.0,0.0
3169,79.0,0,150,1.0,0.0
3170,76.0,0,150,2.0,0.0
3171,60.0,240,150,5.0,0.0
3172,64.0,0,150,4.0,0.0
3173,60.0,205,150,5.0,0.0
3174,77.0,35,120,1.0,0.0
3175,60.0,0,150,4.0,0.0
3176,57.0,85,150,5.0,0.0
3177,79.0,120,120,1.0,0.0
3178,81.0,120,120,1.0,0.0
3179,77.0,120,120,1.0,0.0
3180,76.0,120,120,1.0,0.0
3181,58.0,120,720,5.0,0.0
3182,74.0,120,120,1.0,0.0
3183,76.0,120,120,1.0,0.0
3184,78.0,120,120,1.0,0.0
3185,79.0,120,120,1.0,0.0
3186,81.0,0,120,1.0,0.0
3187,55.0,0,240,5.0,0.0
3188,82.0,120,120,1.0,0.0
3189,79.0,120,120,1.0,0.0
3190,60.0,120,240,5.0,0.0
3191,77.0,120,120,1.0,0.0
3192,76.0,0,120,1.0,0.0
3193,74.0,120,120,1.0,0.0
3194,72.0,155,120,1.0,0.0
3195,84.0,0,150,1.0,0.0
3196,81.0,240,150,2.0,0.0
3197,84.0,0,150,1.0,0.0
3198,81.0,240,150,2.0,0.0
3199,62.0,0,150,5.0,0.0
3200,81.0,240,150,1.0,0.0
3201,65.0,0,150,4.0,0.0
3202,77.0,0,150,2.0,0.0
3203,65.0,240,150,4.0,0.0
3204,62.0,0,150,5.0,0.0
3205,55.0,0,150,5.0,0.0
3206,58.0,0,150,4.0,0.0
3207,82.0,0,150,2.0,0.0
3208,86.0,240,150,1.0,0.0
3209,82.0,240,150,2.0,0.0
3210,86.0,0,150,1.0,0.0
3211,60.0,0,150,5.0,0.0
3212,79.0,240,150,1.0,0.0
3213,64.0,0,150,4.0,0.0
3214,76.0,0,150,2.0,0.0
3215,64.0,205,150,4.0,0.0
3216,60.0,0,150,5.0,0.0
3217,53.0,85,150,5.0,0.0
3218,86.0,35,120,1.0,0.0
3219,57.0,0,150,4.0,0.0
3220,84.0,120,120,1.0,0.0
3221,82.0,120,120,1.0,0.0
3222,81.0,120,120,1.0,0.0
3223,62.0,0,720,4.0,0.0
3224,58.0,120,720,5.0,0.0
3225,78.0,120,120,1.0,0.0
3226,79.0,120,120,1.0,0.0
3227,81.0,120,120,1.0,0.0
3228,82.0,120,120,1.0,0.0
3229,74.0,120,120,1.0,0.0
3230,77.0,0,120,1.0,0.0
3231,60.0,0,240,5.0,0.0
3232,70.0,155,240,4.0,0.0
3233,76.0,120,120,1.0,0.0
3234,79.0,0,120,1.0,0.0
3235,65.0,0,150,5.0,0.0
3236,69.0,240,150,4.0,0.0
3237,77.0,0,150,1.0,0.0
3238,53.0,205,150,5.0,0.0
3239,76.0,120,120,1.0,0.0
3240,58.0,0,360,4.0,0.0
3241,64.0,0,120,3.0,0.0
3242,82.0,120,120,1.0,0.0
3243,60.0,120,120,3.0,0.0
3244,79.0,0,120,1.0,0.0
3245,76.0,120,120,1.0,0.0
3246,64.0,0,120,3.0,0.0
3247,86.0,120,120,1.0,0.0
3248,57.0,120,360,4.0,0.0
3249,84.0,0,120,1.0,0.0
3250,65.0,120,120,3.0,0.0
3251,60.0,0,120,3.0,0.0
3252,82.0,0,120,1.0,0.0
3253,65.0,120,120,3.0,0.0
3254,81.0,0,120,1.0,0.0
3255,58.0,120,360,4.0,0.0
3256,79.0,120,120,1.0,0.0
3257,82.0,0,120,1.0,0.0
3258,64.0,120,120,3.0,0.0
3259,79.0,0,120,1.0,0.0
3260,60.0,0,120,3.0,0.0
3261,76.0,120,120,1.0,0.0
3262,64.0,0,120,3.0,0.0
3263,57.0,0,360,4.0,0.0
3264,86.0,120,120,1.0,0.0
3265,84.0,0,120,1.0,0.0
3266,65.0,120,120,3.0,0.0
3267,60.0,0,120,3.0,0.0
3268,82.0,120,120,1.0,0.0
3269,65.0,120,120,3.0,0.0
3270,81.0,0,120,1.0,0.0
3271,45.0,0,360,4.0,0.0
3272,89.0,120,120,1.0,0.0
3273,53.0,0,120,3.0,0.0
3274,84.0,120,120,1.0,0.0
3275,48.0,0,120,3.0,0.0
3276,82.0,120,120,1.0,0.0
3277,53.0,0,120,3.0,0.0
3278,81.0,120,120,1.0,0.0
3279,46.0,120,360,4.0,0.0
3280,78.0,120,120,1.0,0.0
3281,79.0,113,120,1.0,0.0
3282,55.0,7,120,3.0,0.0
3283,82.0,0,120,1.0,0.0
3284,50.0,0,120,3.0,0.0
3285,86.0,105,120,1.0,0.0
3286,55.0,15,120,3.0,0.0
3287,84.0,120,120,1.0,0.0
3288,48.0,120,360,4.0,0.0
3289,58.0,0,120,3.0,0.0
3290,76.0,120,120,1.0,0.0
3291,55.0,0,120,3.0,0.0
3292,79.0,0,120,1.0,0.0
3293,58.0,15,120,3.0,0.0
3294,76.0,225,120,1.0,0.0
3295,77.0,120,240,1.0,0.0
3296,53.0,120,360,4.0,0.0
3297,57.0,0,120,3.0,0.0
3298,60.0,0,120,3.0,0.0
3299,57.0,120,120,3.0,0.0
3300,58.0,120,360,4.0,0.0
3301,64.0,120,120,1.0,0.0
3302,70.0,0,120,1.0,0.0
3303,60.0,120,120,3.0,0.0
3304,67.0,0,120,1.0,0.0
3305,58.0,0,120,3.0,0.0
3306,64.0,120,120,1.0,0.0
3307,60.0,0,120,3.0,0.0
3308,74.0,120,120,1.0,0.0
3309,57.0,0,360,4.0,0.0
3310,60.0,0,120,3.0,0.0
3311,72.0,120,120,1.0,0.0
3312,65.0,120,120,3.0,0.0
3313,70.0,0,120,1.0,0.0
3314,69.0,0,120,1.0,0.0
3315,60.0,120,120,3.0,0.0
3316,58.0,0,360,4.0,0.0
3317,66.0,120,120,1.0,0.0
3318,60.0,0,120,3.0,0.0
3319,67.0,120,120,1.0,0.0
3320,69.0,120,120,1.0,0.0
3321,64.0,0,120,3.0,0.0
3322,60.0,0,120,3.0,0.0
3323,70.0,120,120,1.0,0.0
3324,57.0,0,360,4.0,0.0
3325,74.0,120,120,1.0,0.0
3326,72.0,120,120,1.0,0.0
3327,60.0,0,120,3.0,0.0
3328,65.0,0,120,3.0,0.0
3329,71.0,120,120,1.0,0.0
3330,72.0,120,120,1.0,0.0
3331,60.0,0,120,3.0,0.0
3332,45.0,0,360,4.0,0.0
3333,77.0,120,120,1.0,0.0
3334,53.0,0,120,3.0,0.0
3335,72.0,120,120,1.0,0.0
3336,70.0,120,120,1.0,0.0
3337,48.0,0,120,3.0,0.0
3338,53.0,0,120,3.0,0.0
3339,69.0,120,120,1.0,0.0
3340,46.0,80,360,4.0,0.0
3341,66.0,80,120,1.0,0.0
3342,55.0,80,120,3.0,0.0
3343,67.0,40,90,1.0,0.0
3344,50.0,0,120,3.0,0.0
3345,70.0,40,90,1.0,0.0
3346,55.0,120,120,3.0,0.0
3347,74.0,40,90,1.0,0.0
3348,72.0,80,120,1.0,0.0
3349,48.0,0,360,4.0,0.0
3350,70.0,40,90,1.0,0.0
3351,58.0,80,120,3.0,0.0
3352,67.0,40,90,1.0,0.0
3353,55.0,80,120,3.0,0.0
3354,64.0,40,90,1.0,0.0
3355,58.0,109,120,3.0,0.0
3356,53.0,0,240,5.0,0.0
3357,65.0,120,120,1.0,0.0
3358,57.0,109,240,4.0,0.0
3359,60.0,11,120,1.0,0.0
3360,69.0,120,120,1.0,0.0
3361,65.0,120,120,1.0,0.0
3362,72.0,120,120,1.0,0.0
3363,69.0,120,120,1.0,0.0
3364,77.0,120,120,1.0,0.0
3365,72.0,120,120,1.0,0.0
3366,81.0,120,120,1.0,0.0
3367,77.0,120,120,1.0,0.0
3368,84.0,120,120,1.0,0.0
3369,81.0,120,120,1.0,0.0
3370,52.0,0,120,4.0,0.0
3371,48.0,109,120,5.0,0.0
3372,55.0,0,120,4.0,0.0
3373,82.0,11,120,1.0,0.0
3374,79.0,120,120,1.0,0.0
3375,58.0,0,120,4.0,0.0
3376,55.0,0,120,4.0,0.0
3377,76.0,11,120,1.0,0.0
3378,48.0,109,120,5.0,0.0
3379,79.0,91,120,1.0,0.0
3380,57.0,80,480,4.0,0.0
3381,53.0,0,480,5.0,0.0
3382,77.0,120,90,1.0,0.0
3383,81.0,120,90,1.0,0.0
3384,72.0,120,90,1.0,0.0
3385,77.0,40,90,1.0,0.0
3386,69.0,120,90,1.0,0.0
3387,72.0,120,90,1.0,0.0
3388,65.0,120,90,1.0,0.0
3389,69.0,120,90,1.0,0.0
3390,60.0,120,90,1.0,0.0
3391,65.0,120,90,1.0,0.0
3392,69.0,120,90,1.0,0.0
3393,72.0,160,90,1.0,0.0
3394,52.0,80,120,4.0,0.0
3395,55.0,0,120,4.0,0.0
3396,48.0,0,120,5.0,0.0
3397,70.0,0,120,1.0,0.0
3398,67.0,120,90,1.0,0.0
3399,58.0,0,120,4.0,0.0
3400,55.0,80,120,4.0,0.0
3401,48.0,0,120,5.0,0.0
3402,64.0,40,90,1.0,0.0
3403,67.0,195,90,1.0,0.0
3404,65.0,25,150,1.0,0.0
3405,53.0,396,180,5.0,0.0
3406,57.0,0,180,4.0,0.0
3407,60.0,240,90,4.0,0.0
3408,57.0,0,90,5.0,0.0
3409,57.0,312,90,5.0,0.0
3410,60.0,0,90,4.0,0.0
3411,57.0,432,180,4.0,0.0
3412,53.0,0,180,5.0,0.0
3413,72.0,0,120,2.0,0.0
3414,81.0,240,120,1.0,0.0
3415,72.0,0,120,2.0,0.0
3416,81.0,300,120,1.0,0.0
3417,77.0,0,180,1.0,0.0
3418,69.0,660,180,2.0,0.0
3419,89.0,0,360,1.0,0.0
3420,81.0,600,360,2.0,0.0
3421,77.0,0,360,2.0,0.0
3422,60.0,0,360,4.0,0.0
3423,57.0,0,360,4.0,0.0
3424,84.0,0,360,2.0,0.0
3425,53.0,0,360,5.0,0.0
3426,65.0,0,360,5.0,0.0
3427,29.0,0,480,5.0,0.0
3428,41.0,0,480,5.0,0.0
3429,57.0,0,480,2.0,0.0
3430,65.0,0,480,1.0,0.0
3431,60.0,0,480,2.0,0.0
