,note,step,duration,channel,velocity
0,69.0,34,90,0.0,0.0
1,50.0,32,150,1.0,0.0
2,66.0,0,30,0.0,0.0
3,74.0,128,30,0.0,0.0
4,66.0,0,90,0.0,0.0
5,74.0,96,90,0.0,0.0
6,73.0,32,90,0.0,0.0
7,76.0,0,90,0.0,0.0
8,50.0,62,30,1.0,0.0
9,74.0,98,90,0.0,0.0
10,78.0,0,90,0.0,0.0
11,78.0,94,90,0.0,0.0
12,81.0,0,90,0.0,0.0
13,57.0,64,270,1.0,0.0
14,76.0,0,90,0.0,0.0
15,79.0,34,90,0.0,0.0
16,74.0,32,30,0.0,0.0
17,78.0,0,30,0.0,0.0
18,76.0,112,30,0.0,0.0
19,73.0,0,30,0.0,0.0
20,55.0,0,30,1.0,0.0
21,54.0,48,40,1.0,0.0
22,79.0,0,90,0.0,0.0
23,83.0,94,90,0.0,0.0
24,78.0,0,90,0.0,0.0
25,81.0,34,90,0.0,0.0
26,76.0,0,30,0.0,0.0
27,79.0,16,30,0.0,0.0
28,55.0,80,40,1.0,0.0
29,74.0,112,30,0.0,0.0
30,78.0,0,30,0.0,0.0
31,57.0,30,150,1.0,0.0
32,76.0,48,40,0.0,0.0
33,73.0,0,40,0.0,0.0
34,74.0,48,40,0.0,0.0
35,76.0,16,40,0.0,0.0
36,78.0,34,40,0.0,0.0
37,76.0,0,30,0.0,0.0
38,73.0,96,30,0.0,0.0
39,69.0,96,30,0.0,0.0
40,54.0,0,30,1.0,0.0
41,69.0,160,30,0.0,0.0
42,74.0,0,30,0.0,0.0
43,74.0,0,90,0.0,0.0
44,69.0,0,90,0.0,0.0
45,54.0,96,90,1.0,0.0
46,52.0,0,90,1.0,0.0
47,76.0,94,90,0.0,0.0
48,73.0,0,90,0.0,0.0
49,50.0,0,90,1.0,0.0
50,74.0,98,90,0.0,0.0
51,78.0,0,90,0.0,0.0
52,81.0,94,90,0.0,0.0
53,78.0,0,90,0.0,0.0
54,57.0,64,270,1.0,0.0
55,76.0,0,90,0.0,0.0
56,79.0,34,90,0.0,0.0
57,74.0,0,30,0.0,0.0
58,78.0,32,30,0.0,0.0
59,73.0,0,30,0.0,0.0
60,76.0,0,30,0.0,0.0
61,55.0,160,30,1.0,0.0
62,83.0,64,90,0.0,0.0
63,79.0,0,90,0.0,0.0
64,54.0,30,150,1.0,0.0
65,78.0,0,90,0.0,0.0
66,81.0,34,90,0.0,0.0
67,76.0,0,30,0.0,0.0
68,79.0,0,30,0.0,0.0
69,55.0,96,30,1.0,0.0
70,57.0,0,30,1.0,0.0
71,73.0,96,30,0.0,0.0
72,76.0,0,30,0.0,0.0
73,62.0,96,30,1.0,0.0
74,74.0,64,150,0.0,0.0
75,57.0,32,30,1.0,0.0
76,50.0,158,30,1.0,0.0
77,69.0,34,90,0.0,0.0
78,66.0,0,30,0.0,0.0
79,74.0,128,30,0.0,0.0
80,50.0,32,150,1.0,0.0
81,66.0,0,90,0.0,0.0
82,74.0,96,90,0.0,0.0
83,73.0,32,90,0.0,0.0
84,76.0,0,90,0.0,0.0
85,78.0,98,90,0.0,0.0
86,74.0,0,90,0.0,0.0
87,50.0,62,30,1.0,0.0
88,57.0,64,270,1.0,0.0
89,78.0,0,90,0.0,0.0
90,81.0,94,90,0.0,0.0
91,76.0,0,90,0.0,0.0
92,79.0,34,90,0.0,0.0
93,78.0,32,30,0.0,0.0
94,74.0,0,30,0.0,0.0
95,73.0,0,30,0.0,0.0
96,76.0,0,30,0.0,0.0
97,55.0,112,30,1.0,0.0
98,83.0,94,90,0.0,0.0
99,54.0,48,40,1.0,0.0
100,79.0,0,90,0.0,0.0
101,78.0,0,90,0.0,0.0
102,81.0,34,90,0.0,0.0
103,79.0,0,30,0.0,0.0
104,55.0,80,40,1.0,0.0
105,76.0,16,30,0.0,0.0
106,74.0,0,30,0.0,0.0
107,78.0,112,30,0.0,0.0
108,73.0,0,40,0.0,0.0
109,76.0,48,40,0.0,0.0
110,57.0,30,150,1.0,0.0
111,74.0,48,40,0.0,0.0
112,76.0,16,40,0.0,0.0
113,78.0,34,40,0.0,0.0
114,73.0,96,30,0.0,0.0
115,76.0,0,30,0.0,0.0
116,69.0,96,30,0.0,0.0
117,69.0,160,30,0.0,0.0
118,74.0,0,30,0.0,0.0
119,54.0,0,30,1.0,0.0
120,74.0,0,90,0.0,0.0
121,69.0,0,90,0.0,0.0
122,54.0,96,90,1.0,0.0
123,73.0,0,90,0.0,0.0
124,76.0,94,90,0.0,0.0
125,52.0,0,90,1.0,0.0
126,74.0,0,90,0.0,0.0
127,78.0,0,90,0.0,0.0
128,50.0,98,90,1.0,0.0
129,78.0,0,90,0.0,0.0
130,81.0,94,90,0.0,0.0
131,57.0,64,270,1.0,0.0
132,76.0,34,90,0.0,0.0
133,79.0,0,90,0.0,0.0
134,78.0,0,30,0.0,0.0
135,74.0,32,30,0.0,0.0
136,76.0,0,30,0.0,0.0
137,55.0,160,30,1.0,0.0
138,73.0,0,30,0.0,0.0
139,79.0,64,90,0.0,0.0
140,83.0,0,90,0.0,0.0
141,54.0,30,150,1.0,0.0
142,81.0,0,90,0.0,0.0
143,78.0,34,90,0.0,0.0
144,79.0,0,30,0.0,0.0
145,76.0,96,30,0.0,0.0
146,55.0,0,30,1.0,0.0
147,73.0,96,30,0.0,0.0
148,76.0,0,30,0.0,0.0
149,57.0,0,30,1.0,0.0
150,62.0,96,30,1.0,0.0
151,74.0,64,150,0.0,0.0
152,57.0,32,30,1.0,0.0
153,50.0,158,30,1.0,0.0
154,69.0,34,90,0.0,0.0
155,76.0,160,30,0.0,0.0
156,69.0,0,180,1.0,0.0
157,73.0,0,30,0.0,0.0
158,73.0,0,90,0.0,0.0
159,76.0,96,90,0.0,0.0
160,78.0,0,90,0.0,0.0
161,74.0,94,90,0.0,0.0
162,67.0,96,180,1.0,0.0
163,79.0,2,90,0.0,0.0
164,76.0,0,90,0.0,0.0
165,66.0,30,150,1.0,0.0
166,79.0,0,90,0.0,0.0
167,83.0,64,90,0.0,0.0
168,78.0,0,90,0.0,0.0
169,81.0,34,90,0.0,0.0
170,79.0,0,30,0.0,0.0
171,76.0,96,30,0.0,0.0
172,74.0,96,30,0.0,0.0
173,78.0,0,30,0.0,0.0
174,76.0,0,30,0.0,0.0
175,73.0,160,30,0.0,0.0
176,57.0,0,180,1.0,0.0
177,76.0,96,90,0.0,0.0
178,73.0,0,90,0.0,0.0
179,55.0,144,180,1.0,0.0
180,74.0,0,90,0.0,0.0
181,78.0,94,90,0.0,0.0
182,76.0,2,90,0.0,0.0
183,79.0,0,90,0.0,0.0
184,78.0,0,150,0.0,0.0
185,81.0,16,150,0.0,0.0
186,54.0,8,150,1.0,0.0
187,83.0,22,20,0.0,0.0
188,85.0,34,20,0.0,0.0
189,86.0,96,30,0.0,0.0
190,69.0,96,30,0.0,0.0
191,74.0,0,30,0.0,0.0
192,66.0,128,30,0.0,0.0
193,50.0,32,150,1.0,0.0
194,74.0,0,90,0.0,0.0
195,66.0,96,90,0.0,0.0
196,73.0,94,90,0.0,0.0
197,76.0,0,90,0.0,0.0
198,74.0,98,90,0.0,0.0
199,78.0,0,90,0.0,0.0
200,57.0,64,270,1.0,0.0
201,81.0,94,90,0.0,0.0
202,78.0,0,90,0.0,0.0
203,76.0,0,90,0.0,0.0
204,79.0,34,90,0.0,0.0
205,78.0,0,30,0.0,0.0
206,74.0,32,30,0.0,0.0
207,76.0,0,30,0.0,0.0
208,55.0,160,30,1.0,0.0
209,73.0,0,30,0.0,0.0
210,54.0,0,90,1.0,0.0
211,74.0,0,90,0.0,0.0
212,83.0,94,90,0.0,0.0
213,78.0,0,90,0.0,0.0
214,59.0,34,90,1.0,0.0
215,81.0,0,90,0.0,0.0
216,55.0,96,30,1.0,0.0
217,79.0,0,30,0.0,0.0
218,76.0,0,30,0.0,0.0
219,57.0,0,30,1.0,0.0
220,76.0,0,30,0.0,0.0
221,73.0,224,30,0.0,0.0
222,50.0,0,150,1.0,0.0
223,74.0,222,150,0.0,0.0
224,69.0,34,90,0.0,0.0
225,76.0,0,30,0.0,0.0
226,73.0,160,30,0.0,0.0
227,69.0,0,180,1.0,0.0
228,73.0,96,90,0.0,0.0
229,76.0,0,90,0.0,0.0
230,67.0,96,180,1.0,0.0
231,78.0,0,90,0.0,0.0
232,74.0,94,90,0.0,0.0
233,76.0,2,90,0.0,0.0
234,79.0,0,90,0.0,0.0
235,66.0,30,150,1.0,0.0
236,79.0,0,90,0.0,0.0
237,83.0,64,90,0.0,0.0
238,78.0,0,90,0.0,0.0
239,81.0,34,90,0.0,0.0
240,76.0,96,30,0.0,0.0
241,79.0,0,30,0.0,0.0
242,78.0,0,30,0.0,0.0
243,74.0,96,30,0.0,0.0
244,76.0,0,30,0.0,0.0
245,73.0,160,30,0.0,0.0
246,57.0,96,180,1.0,0.0
247,76.0,0,90,0.0,0.0
248,73.0,0,90,0.0,0.0
249,78.0,94,90,0.0,0.0
250,74.0,0,90,0.0,0.0
251,55.0,144,180,1.0,0.0
252,79.0,2,90,0.0,0.0
253,76.0,0,90,0.0,0.0
254,54.0,8,150,1.0,0.0
255,81.0,16,150,0.0,0.0
256,78.0,0,150,0.0,0.0
257,83.0,22,20,0.0,0.0
258,85.0,34,20,0.0,0.0
259,86.0,96,30,0.0,0.0
260,69.0,96,30,0.0,0.0
261,74.0,0,30,0.0,0.0
262,50.0,32,150,1.0,0.0
263,66.0,128,30,0.0,0.0
264,74.0,96,90,0.0,0.0
265,66.0,0,90,0.0,0.0
266,73.0,0,90,0.0,0.0
267,76.0,94,90,0.0,0.0
268,74.0,0,90,0.0,0.0
269,78.0,98,90,0.0,0.0
270,57.0,64,270,1.0,0.0
271,78.0,0,90,0.0,0.0
272,81.0,94,90,0.0,0.0
273,76.0,0,90,0.0,0.0
274,79.0,34,90,0.0,0.0
275,74.0,0,30,0.0,0.0
276,78.0,32,30,0.0,0.0
277,55.0,160,30,1.0,0.0
278,73.0,0,30,0.0,0.0
279,76.0,0,30,0.0,0.0
280,54.0,0,90,1.0,0.0
281,74.0,0,90,0.0,0.0
282,83.0,94,90,0.0,0.0
283,59.0,34,90,1.0,0.0
284,78.0,0,90,0.0,0.0
285,81.0,0,90,0.0,0.0
286,79.0,0,30,0.0,0.0
287,76.0,0,30,0.0,0.0
288,55.0,96,30,1.0,0.0
289,73.0,0,30,0.0,0.0
290,57.0,0,30,1.0,0.0
291,76.0,224,30,0.0,0.0
292,50.0,0,150,1.0,0.0
293,74.0,160,150,0.0,0.0
294,74.0,128,30,0.0,0.0
295,55.0,64,60,1.0,0.0
296,79.0,42,390,0.0,0.0
297,59.0,62,60,1.0,0.0
298,62.0,44,60,1.0,0.0
299,67.0,64,40,1.0,0.0
300,67.0,64,40,1.0,0.0
301,67.0,22,40,1.0,0.0
302,66.0,64,40,1.0,0.0
303,81.0,26,330,0.0,0.0
304,64.0,64,40,1.0,0.0
305,62.0,64,40,1.0,0.0
306,60.0,64,40,1.0,0.0
307,59.0,38,40,1.0,0.0
308,74.0,83,40,0.0,0.0
309,57.0,3,40,1.0,0.0
310,55.0,64,60,1.0,0.0
311,83.0,42,390,0.0,0.0
312,79.0,0,390,0.0,0.0
313,59.0,62,60,1.0,0.0
314,62.0,44,60,1.0,0.0
315,67.0,64,40,1.0,0.0
316,67.0,64,40,1.0,0.0
317,67.0,22,40,1.0,0.0
318,84.0,26,330,0.0,0.0
319,81.0,0,330,0.0,0.0
320,66.0,64,40,1.0,0.0
321,64.0,64,40,1.0,0.0
322,62.0,64,40,1.0,0.0
323,60.0,64,40,1.0,0.0
324,59.0,38,40,1.0,0.0
325,57.0,84,40,1.0,0.0
326,83.0,0,60,0.0,0.0
327,86.0,64,60,0.0,0.0
328,55.0,2,60,1.0,0.0
329,81.0,0,60,0.0,0.0
330,84.0,62,60,0.0,0.0
331,83.0,66,60,0.0,0.0
332,79.0,0,60,0.0,0.0
333,78.0,0,60,1.0,0.0
334,81.0,64,60,0.0,0.0
335,76.0,62,60,1.0,0.0
336,79.0,0,60,0.0,0.0
337,74.0,66,60,1.0,0.0
338,78.0,0,60,0.0,0.0
339,79.0,0,60,1.0,0.0
340,83.0,64,60,0.0,0.0
341,81.0,0,60,0.0,0.0
342,78.0,62,60,1.0,0.0
343,76.0,0,60,1.0,0.0
344,79.0,66,60,0.0,0.0
345,74.0,0,60,1.0,0.0
346,78.0,62,60,0.0,0.0
347,76.0,62,60,0.0,0.0
348,72.0,2,60,1.0,0.0
349,71.0,0,60,0.0,0.0
350,74.0,34,60,0.0,0.0
351,72.0,0,30,0.0,0.0
352,69.0,192,30,0.0,0.0
353,54.0,0,30,1.0,0.0
354,71.0,0,30,0.0,0.0
355,67.0,0,30,0.0,0.0
356,55.0,320,30,1.0,0.0
357,69.0,0,150,0.0,0.0
358,66.0,0,150,0.0,0.0
359,50.0,160,150,1.0,0.0
360,74.0,128,30,0.0,0.0
361,55.0,64,60,1.0,0.0
362,79.0,42,390,0.0,0.0
363,59.0,62,60,1.0,0.0
364,62.0,44,60,1.0,0.0
365,67.0,64,40,1.0,0.0
366,67.0,64,40,1.0,0.0
367,67.0,22,40,1.0,0.0
368,81.0,26,330,0.0,0.0
369,66.0,64,40,1.0,0.0
370,64.0,64,40,1.0,0.0
371,62.0,64,40,1.0,0.0
372,60.0,64,40,1.0,0.0
373,59.0,38,40,1.0,0.0
374,57.0,3,40,1.0,0.0
375,74.0,83,40,0.0,0.0
376,79.0,42,390,0.0,0.0
377,55.0,64,60,1.0,0.0
378,83.0,0,390,0.0,0.0
379,59.0,62,60,1.0,0.0
380,62.0,44,60,1.0,0.0
381,67.0,64,40,1.0,0.0
382,67.0,64,40,1.0,0.0
383,67.0,22,40,1.0,0.0
384,66.0,64,40,1.0,0.0
385,84.0,0,330,0.0,0.0
386,81.0,26,330,0.0,0.0
387,64.0,64,40,1.0,0.0
388,62.0,64,40,1.0,0.0
389,60.0,64,40,1.0,0.0
390,59.0,38,40,1.0,0.0
391,57.0,84,40,1.0,0.0
392,55.0,2,60,1.0,0.0
393,83.0,64,60,0.0,0.0
394,86.0,0,60,0.0,0.0
395,81.0,0,60,0.0,0.0
396,84.0,62,60,0.0,0.0
397,83.0,66,60,0.0,0.0
398,79.0,0,60,0.0,0.0
399,78.0,0,60,1.0,0.0
400,81.0,64,60,0.0,0.0
401,76.0,0,60,1.0,0.0
402,79.0,62,60,0.0,0.0
403,74.0,66,60,1.0,0.0
404,78.0,0,60,0.0,0.0
405,83.0,0,60,0.0,0.0
406,79.0,64,60,1.0,0.0
407,78.0,62,60,1.0,0.0
408,81.0,0,60,0.0,0.0
409,79.0,0,60,0.0,0.0
410,76.0,66,60,1.0,0.0
411,78.0,0,60,0.0,0.0
412,74.0,62,60,1.0,0.0
413,72.0,2,60,1.0,0.0
414,76.0,62,60,0.0,0.0
415,71.0,0,60,0.0,0.0
416,74.0,34,60,0.0,0.0
417,54.0,192,30,1.0,0.0
418,69.0,0,30,0.0,0.0
419,72.0,0,30,0.0,0.0
420,71.0,0,30,0.0,0.0
421,67.0,0,30,0.0,0.0
422,55.0,320,30,1.0,0.0
423,66.0,160,150,0.0,0.0
424,50.0,0,150,1.0,0.0
425,69.0,0,150,0.0,0.0
426,74.0,96,30,0.0,0.0
427,84.0,64,60,0.0,0.0
428,62.0,0,30,1.0,0.0
429,69.0,32,30,1.0,0.0
430,81.0,62,60,0.0,0.0
431,78.0,34,60,0.0,0.0
432,74.0,64,40,0.0,0.0
433,72.0,0,30,1.0,0.0
434,69.0,10,30,1.0,0.0
435,74.0,64,40,0.0,0.0
436,74.0,54,40,0.0,0.0
437,79.0,64,60,0.0,0.0
438,67.0,0,30,1.0,0.0
439,71.0,32,30,1.0,0.0
440,83.0,62,60,0.0,0.0
441,86.0,34,60,0.0,0.0
442,67.0,0,30,1.0,0.0
443,86.0,64,40,0.0,0.0
444,71.0,10,30,1.0,0.0
445,86.0,64,40,0.0,0.0
446,86.0,54,40,0.0,0.0
447,84.0,64,60,0.0,0.0
448,62.0,32,30,1.0,0.0
449,69.0,0,30,1.0,0.0
450,81.0,62,60,0.0,0.0
451,78.0,34,60,0.0,0.0
452,69.0,10,30,1.0,0.0
453,74.0,64,40,0.0,0.0
454,72.0,0,30,1.0,0.0
455,74.0,64,40,0.0,0.0
456,74.0,86,40,0.0,0.0
457,79.0,64,60,0.0,0.0
458,71.0,0,150,1.0,0.0
459,67.0,30,150,1.0,0.0
460,83.0,32,60,0.0,0.0
461,86.0,44,60,0.0,0.0
462,86.0,64,40,0.0,0.0
463,86.0,64,40,0.0,0.0
464,86.0,86,40,0.0,0.0
465,60.0,64,60,1.0,0.0
466,76.0,0,390,0.0,0.0
467,84.0,32,390,0.0,0.0
468,64.0,62,60,1.0,0.0
469,62.0,44,60,1.0,0.0
470,60.0,64,40,1.0,0.0
471,64.0,64,40,1.0,0.0
472,66.0,22,40,1.0,0.0
473,67.0,64,60,1.0,0.0
474,83.0,0,30,0.0,0.0
475,74.0,32,30,0.0,0.0
476,66.0,62,60,1.0,0.0
477,67.0,34,60,1.0,0.0
478,64.0,64,40,1.0,0.0
479,79.0,0,30,0.0,0.0
480,71.0,10,30,0.0,0.0
481,63.0,64,40,1.0,0.0
482,64.0,54,40,1.0,0.0
483,60.0,64,60,1.0,0.0
484,72.0,0,30,0.0,0.0
485,81.0,32,30,0.0,0.0
486,59.0,62,60,1.0,0.0
487,60.0,34,60,1.0,0.0
488,62.0,64,40,1.0,0.0
489,69.0,0,30,0.0,0.0
490,78.0,10,30,0.0,0.0
491,61.0,64,40,1.0,0.0
492,62.0,182,40,1.0,0.0
493,79.0,160,150,0.0,0.0
494,55.0,0,150,1.0,0.0
495,71.0,0,150,0.0,0.0
496,74.0,96,30,0.0,0.0
497,84.0,64,60,0.0,0.0
498,69.0,32,30,1.0,0.0
499,62.0,0,30,1.0,0.0
500,81.0,62,60,0.0,0.0
501,78.0,34,60,0.0,0.0
502,72.0,10,30,1.0,0.0
503,74.0,64,40,0.0,0.0
504,69.0,0,30,1.0,0.0
505,74.0,64,40,0.0,0.0
506,74.0,54,40,0.0,0.0
507,79.0,64,60,0.0,0.0
508,71.0,0,30,1.0,0.0
509,67.0,32,30,1.0,0.0
510,83.0,62,60,0.0,0.0
511,86.0,34,60,0.0,0.0
512,86.0,64,40,0.0,0.0
513,67.0,0,30,1.0,0.0
514,71.0,10,30,1.0,0.0
515,86.0,64,40,0.0,0.0
516,86.0,54,40,0.0,0.0
517,69.0,32,30,1.0,0.0
518,84.0,64,60,0.0,0.0
519,62.0,0,30,1.0,0.0
520,81.0,62,60,0.0,0.0
521,78.0,34,60,0.0,0.0
522,74.0,64,40,0.0,0.0
523,69.0,10,30,1.0,0.0
524,72.0,0,30,1.0,0.0
525,74.0,64,40,0.0,0.0
526,74.0,86,40,0.0,0.0
527,71.0,0,150,1.0,0.0
528,67.0,30,150,1.0,0.0
529,79.0,64,60,0.0,0.0
530,83.0,32,60,0.0,0.0
531,86.0,44,60,0.0,0.0
532,86.0,64,40,0.0,0.0
533,86.0,64,40,0.0,0.0
534,86.0,86,40,0.0,0.0
535,60.0,64,60,1.0,0.0
536,84.0,0,390,0.0,0.0
537,76.0,32,390,0.0,0.0
538,64.0,62,60,1.0,0.0
539,62.0,44,60,1.0,0.0
540,60.0,64,40,1.0,0.0
541,64.0,64,40,1.0,0.0
542,66.0,22,40,1.0,0.0
543,67.0,64,60,1.0,0.0
544,83.0,32,30,0.0,0.0
545,74.0,0,30,0.0,0.0
546,66.0,62,60,1.0,0.0
547,67.0,34,60,1.0,0.0
548,64.0,64,40,1.0,0.0
549,79.0,10,30,0.0,0.0
550,71.0,0,30,0.0,0.0
551,63.0,64,40,1.0,0.0
552,64.0,54,40,1.0,0.0
553,72.0,0,30,0.0,0.0
554,81.0,32,30,0.0,0.0
555,60.0,64,60,1.0,0.0
556,59.0,62,60,1.0,0.0
557,60.0,34,60,1.0,0.0
558,69.0,0,30,0.0,0.0
559,78.0,10,30,0.0,0.0
560,62.0,64,40,1.0,0.0
561,61.0,64,40,1.0,0.0
562,62.0,182,40,1.0,0.0
563,71.0,0,150,0.0,0.0
564,79.0,222,150,0.0,0.0
565,55.0,0,150,1.0,0.0
566,69.0,34,90,0.0,0.0
567,66.0,0,30,0.0,0.0
568,50.0,32,150,1.0,0.0
569,74.0,128,30,0.0,0.0
570,66.0,0,90,0.0,0.0
571,74.0,96,90,0.0,0.0
572,73.0,0,90,0.0,0.0
573,76.0,32,90,0.0,0.0
574,74.0,0,90,0.0,0.0
575,78.0,98,90,0.0,0.0
576,50.0,62,30,1.0,0.0
577,78.0,0,90,0.0,0.0
578,81.0,94,90,0.0,0.0
579,57.0,64,270,1.0,0.0
580,79.0,0,90,0.0,0.0
581,76.0,34,90,0.0,0.0
582,74.0,0,30,0.0,0.0
583,78.0,32,30,0.0,0.0
584,73.0,112,30,0.0,0.0
585,76.0,0,30,0.0,0.0
586,55.0,0,30,1.0,0.0
587,54.0,48,40,1.0,0.0
588,83.0,94,90,0.0,0.0
589,79.0,0,90,0.0,0.0
590,81.0,0,90,0.0,0.0
591,78.0,34,90,0.0,0.0
592,76.0,0,30,0.0,0.0
593,79.0,16,30,0.0,0.0
594,55.0,80,40,1.0,0.0
595,74.0,0,30,0.0,0.0
596,78.0,112,30,0.0,0.0
597,73.0,0,40,0.0,0.0
598,76.0,48,40,0.0,0.0
599,57.0,30,150,1.0,0.0
600,74.0,48,40,0.0,0.0
601,76.0,16,40,0.0,0.0
602,78.0,34,40,0.0,0.0
603,76.0,0,30,0.0,0.0
604,73.0,96,30,0.0,0.0
605,69.0,96,30,0.0,0.0
606,74.0,0,30,0.0,0.0
607,69.0,0,30,0.0,0.0
608,54.0,160,30,1.0,0.0
609,54.0,0,90,1.0,0.0
610,74.0,96,90,0.0,0.0
611,69.0,0,90,0.0,0.0
612,52.0,94,90,1.0,0.0
613,73.0,0,90,0.0,0.0
614,76.0,0,90,0.0,0.0
615,74.0,0,90,0.0,0.0
616,78.0,98,90,0.0,0.0
617,50.0,0,90,1.0,0.0
618,57.0,64,270,1.0,0.0
619,78.0,0,90,0.0,0.0
620,81.0,94,90,0.0,0.0
621,79.0,34,90,0.0,0.0
622,76.0,0,90,0.0,0.0
623,78.0,32,30,0.0,0.0
624,74.0,0,30,0.0,0.0
625,76.0,0,30,0.0,0.0
626,73.0,0,30,0.0,0.0
627,55.0,160,30,1.0,0.0
628,79.0,64,90,0.0,0.0
629,54.0,30,150,1.0,0.0
630,83.0,0,90,0.0,0.0
631,81.0,0,90,0.0,0.0
632,78.0,34,90,0.0,0.0
633,79.0,0,30,0.0,0.0
634,76.0,96,30,0.0,0.0
635,55.0,0,30,1.0,0.0
636,76.0,0,30,0.0,0.0
637,57.0,96,30,1.0,0.0
638,73.0,0,30,0.0,0.0
639,74.0,64,150,0.0,0.0
640,62.0,96,30,1.0,0.0
641,57.0,32,30,1.0,0.0
642,50.0,158,30,1.0,0.0
643,69.0,34,90,0.0,0.0
644,73.0,0,30,0.0,0.0
645,76.0,160,30,0.0,0.0
646,69.0,0,180,1.0,0.0
647,73.0,0,90,0.0,0.0
648,76.0,96,90,0.0,0.0
649,78.0,0,90,0.0,0.0
650,74.0,94,90,0.0,0.0
651,67.0,96,180,1.0,0.0
652,79.0,2,90,0.0,0.0
653,76.0,0,90,0.0,0.0
654,66.0,30,150,1.0,0.0
655,83.0,0,90,0.0,0.0
656,79.0,64,90,0.0,0.0
657,81.0,0,90,0.0,0.0
658,78.0,34,90,0.0,0.0
659,79.0,0,30,0.0,0.0
660,76.0,96,30,0.0,0.0
661,78.0,96,30,0.0,0.0
662,74.0,0,30,0.0,0.0
663,73.0,0,30,0.0,0.0
664,57.0,0,180,1.0,0.0
665,76.0,160,30,0.0,0.0
666,73.0,0,90,0.0,0.0
667,76.0,96,90,0.0,0.0
668,55.0,144,180,1.0,0.0
669,74.0,0,90,0.0,0.0
670,78.0,94,90,0.0,0.0
671,76.0,2,90,0.0,0.0
672,79.0,0,90,0.0,0.0
673,81.0,0,150,0.0,0.0
674,54.0,8,150,1.0,0.0
675,78.0,16,150,0.0,0.0
676,83.0,22,20,0.0,0.0
677,85.0,34,20,0.0,0.0
678,86.0,96,30,0.0,0.0
679,69.0,96,30,0.0,0.0
680,50.0,32,150,1.0,0.0
681,66.0,128,30,0.0,0.0
682,74.0,0,30,0.0,0.0
683,66.0,0,90,0.0,0.0
684,74.0,96,90,0.0,0.0
685,73.0,0,90,0.0,0.0
686,76.0,94,90,0.0,0.0
687,78.0,98,90,0.0,0.0
688,74.0,0,90,0.0,0.0
689,57.0,64,270,1.0,0.0
690,81.0,0,90,0.0,0.0
691,78.0,94,90,0.0,0.0
692,79.0,0,90,0.0,0.0
693,76.0,34,90,0.0,0.0
694,78.0,0,30,0.0,0.0
695,74.0,32,30,0.0,0.0
696,73.0,0,30,0.0,0.0
697,55.0,0,30,1.0,0.0
698,76.0,160,30,0.0,0.0
699,74.0,0,90,0.0,0.0
700,83.0,64,90,0.0,0.0
701,54.0,30,150,1.0,0.0
702,78.0,0,90,0.0,0.0
703,81.0,34,90,0.0,0.0
704,76.0,96,30,0.0,0.0
705,79.0,0,30,0.0,0.0
706,55.0,0,30,1.0,0.0
707,57.0,224,30,1.0,0.0
708,73.0,0,30,0.0,0.0
709,76.0,0,30,0.0,0.0
710,74.0,0,150,0.0,0.0
711,50.0,222,150,1.0,0.0
712,78.0,98,90,0.0,0.0
713,62.0,0,90,1.0,0.0
714,71.0,96,90,0.0,0.0
715,59.0,46,720,1.0,0.0
716,66.0,0,90,1.0,0.0
717,74.0,96,90,0.0,0.0
718,62.0,0,90,1.0,0.0
719,78.0,94,90,0.0,0.0
720,66.0,98,90,1.0,0.0
721,83.0,0,90,0.0,0.0
722,64.0,96,90,1.0,0.0
723,82.0,0,90,0.0,0.0
724,85.0,96,90,0.0,0.0
725,66.0,0,90,1.0,0.0
726,64.0,0,90,1.0,0.0
727,78.0,48,90,0.0,0.0
728,82.0,0,90,0.0,0.0
729,66.0,98,90,1.0,0.0
730,59.0,46,720,1.0,0.0
731,83.0,96,90,0.0,0.0
732,62.0,0,90,1.0,0.0
733,66.0,0,90,1.0,0.0
734,74.0,96,90,0.0,0.0
735,62.0,94,90,1.0,0.0
736,78.0,0,90,0.0,0.0
737,71.0,0,90,0.0,0.0
738,66.0,98,90,1.0,0.0
739,72.0,0,90,0.0,0.0
740,64.0,96,90,1.0,0.0
741,66.0,0,90,1.0,0.0
742,73.0,94,90,0.0,0.0
743,64.0,32,90,1.0,0.0
744,66.0,2,90,0.0,0.0
745,78.0,16,30,0.0,0.0
746,66.0,98,90,1.0,0.0
747,62.0,0,90,1.0,0.0
748,59.0,46,720,1.0,0.0
749,71.0,96,90,0.0,0.0
750,66.0,0,90,1.0,0.0
751,74.0,96,90,0.0,0.0
752,62.0,0,90,1.0,0.0
753,78.0,94,90,0.0,0.0
754,66.0,0,90,1.0,0.0
755,83.0,98,90,0.0,0.0
756,82.0,96,90,0.0,0.0
757,64.0,0,90,1.0,0.0
758,85.0,96,90,0.0,0.0
759,66.0,0,90,1.0,0.0
760,78.0,0,90,0.0,0.0
761,64.0,48,90,1.0,0.0
762,82.0,98,90,0.0,0.0
763,66.0,0,90,1.0,0.0
764,83.0,64,90,0.0,0.0
765,59.0,32,150,1.0,0.0
766,62.0,0,90,1.0,0.0
767,74.0,0,90,0.0,0.0
768,66.0,96,90,1.0,0.0
769,78.0,64,90,0.0,0.0
770,54.0,30,150,1.0,0.0
771,61.0,0,90,1.0,0.0
772,64.0,0,90,1.0,0.0
773,66.0,162,90,0.0,0.0
774,59.0,0,150,1.0,0.0
775,71.0,0,150,0.0,0.0
776,62.0,222,150,1.0,0.0
777,78.0,98,90,0.0,0.0
778,71.0,96,90,0.0,0.0
779,62.0,0,90,1.0,0.0
780,59.0,46,720,1.0,0.0
781,74.0,96,90,0.0,0.0
782,66.0,0,90,1.0,0.0
783,62.0,0,90,1.0,0.0
784,78.0,94,90,0.0,0.0
785,66.0,98,90,1.0,0.0
786,83.0,0,90,0.0,0.0
787,64.0,96,90,1.0,0.0
788,82.0,0,90,0.0,0.0
789,85.0,0,90,0.0,0.0
790,66.0,96,90,1.0,0.0
791,78.0,48,90,0.0,0.0
792,64.0,0,90,1.0,0.0
793,82.0,98,90,0.0,0.0
794,66.0,0,90,1.0,0.0
795,83.0,96,90,0.0,0.0
796,62.0,0,90,1.0,0.0
797,59.0,46,720,1.0,0.0
798,66.0,0,90,1.0,0.0
799,74.0,96,90,0.0,0.0
800,62.0,0,90,1.0,0.0
801,78.0,94,90,0.0,0.0
802,66.0,0,90,1.0,0.0
803,71.0,98,90,0.0,0.0
804,64.0,0,90,1.0,0.0
805,72.0,96,90,0.0,0.0
806,66.0,0,90,1.0,0.0
807,73.0,94,90,0.0,0.0
808,64.0,32,90,1.0,0.0
809,66.0,2,90,0.0,0.0
810,78.0,16,30,0.0,0.0
811,66.0,98,90,1.0,0.0
812,62.0,0,90,1.0,0.0
813,71.0,96,90,0.0,0.0
814,59.0,46,720,1.0,0.0
815,74.0,0,90,0.0,0.0
816,66.0,96,90,1.0,0.0
817,62.0,94,90,1.0,0.0
818,78.0,0,90,0.0,0.0
819,83.0,0,90,0.0,0.0
820,66.0,98,90,1.0,0.0
821,82.0,0,90,0.0,0.0
822,64.0,96,90,1.0,0.0
823,85.0,0,90,0.0,0.0
824,66.0,96,90,1.0,0.0
825,78.0,0,90,0.0,0.0
826,64.0,48,90,1.0,0.0
827,82.0,0,90,0.0,0.0
828,66.0,98,90,1.0,0.0
829,62.0,0,90,1.0,0.0
830,59.0,32,150,1.0,0.0
831,83.0,64,90,0.0,0.0
832,74.0,96,90,0.0,0.0
833,66.0,0,90,1.0,0.0
834,61.0,0,90,1.0,0.0
835,54.0,30,150,1.0,0.0
836,78.0,64,90,0.0,0.0
837,64.0,0,90,1.0,0.0
838,66.0,162,90,0.0,0.0
839,62.0,222,150,1.0,0.0
840,59.0,0,150,1.0,0.0
841,71.0,0,150,0.0,0.0
842,73.0,98,90,0.0,0.0
843,78.0,32,90,0.0,0.0
844,73.0,34,90,0.0,0.0
845,70.0,62,30,1.0,0.0
846,66.0,0,30,1.0,0.0
847,66.0,96,30,1.0,0.0
848,73.0,0,30,0.0,0.0
849,70.0,0,30,1.0,0.0
850,66.0,160,30,1.0,0.0
851,73.0,0,30,0.0,0.0
852,70.0,0,30,1.0,0.0
853,74.0,0,90,0.0,0.0
854,71.0,94,90,1.0,0.0
855,65.0,0,90,1.0,0.0
856,73.0,34,90,0.0,0.0
857,70.0,0,90,1.0,0.0
858,66.0,0,90,1.0,0.0
859,70.0,0,30,1.0,0.0
860,73.0,0,30,0.0,0.0
861,66.0,96,30,1.0,0.0
862,78.0,160,30,0.0,0.0
863,85.0,32,90,0.0,0.0
864,78.0,34,90,0.0,0.0
865,66.0,0,30,1.0,0.0
866,70.0,62,30,1.0,0.0
867,78.0,0,30,0.0,0.0
868,66.0,0,30,1.0,0.0
869,70.0,96,30,1.0,0.0
870,66.0,0,30,1.0,0.0
871,70.0,0,30,1.0,0.0
872,78.0,160,30,0.0,0.0
873,71.0,0,90,1.0,0.0
874,76.0,0,90,0.0,0.0
875,67.0,94,90,1.0,0.0
876,66.0,0,90,1.0,0.0
877,70.0,0,90,1.0,0.0
878,78.0,34,90,0.0,0.0
879,78.0,0,30,0.0,0.0
880,66.0,0,30,1.0,0.0
881,70.0,96,30,1.0,0.0
882,78.0,160,30,0.0,0.0
883,62.0,96,90,1.0,0.0
884,71.0,0,90,0.0,0.0
885,59.0,46,720,1.0,0.0
886,74.0,0,90,0.0,0.0
887,66.0,96,90,1.0,0.0
888,78.0,0,90,0.0,0.0
889,62.0,94,90,1.0,0.0
890,83.0,0,90,0.0,0.0
891,66.0,98,90,1.0,0.0
892,64.0,0,90,1.0,0.0
893,82.0,96,90,0.0,0.0
894,66.0,96,90,1.0,0.0
895,85.0,0,90,0.0,0.0
896,78.0,0,90,0.0,0.0
897,64.0,48,90,1.0,0.0
898,82.0,0,90,0.0,0.0
899,66.0,98,90,1.0,0.0
900,59.0,32,150,1.0,0.0
901,83.0,64,90,0.0,0.0
902,62.0,0,90,1.0,0.0
903,66.0,0,90,1.0,0.0
904,74.0,96,90,0.0,0.0
905,54.0,30,150,1.0,0.0
906,61.0,64,90,1.0,0.0
907,78.0,0,90,0.0,0.0
908,66.0,0,90,0.0,0.0
909,64.0,162,90,1.0,0.0
910,62.0,0,150,1.0,0.0
911,59.0,222,150,1.0,0.0
912,71.0,0,150,0.0,0.0
913,73.0,98,90,0.0,0.0
914,78.0,32,90,0.0,0.0
915,66.0,0,30,1.0,0.0
916,70.0,62,30,1.0,0.0
917,73.0,34,90,0.0,0.0
918,73.0,96,30,0.0,0.0
919,66.0,0,30,1.0,0.0
920,70.0,0,30,1.0,0.0
921,66.0,0,30,1.0,0.0
922,73.0,160,30,0.0,0.0
923,70.0,0,30,1.0,0.0
924,65.0,0,90,1.0,0.0
925,71.0,0,90,1.0,0.0
926,74.0,94,90,0.0,0.0
927,66.0,0,90,1.0,0.0
928,73.0,34,90,0.0,0.0
929,70.0,0,90,1.0,0.0
930,73.0,96,30,0.0,0.0
931,70.0,0,30,1.0,0.0
932,66.0,0,30,1.0,0.0
933,78.0,160,30,0.0,0.0
934,85.0,32,90,0.0,0.0
935,78.0,34,90,0.0,0.0
936,66.0,0,30,1.0,0.0
937,70.0,62,30,1.0,0.0
938,78.0,96,30,0.0,0.0
939,70.0,0,30,1.0,0.0
940,66.0,0,30,1.0,0.0
941,66.0,0,30,1.0,0.0
942,70.0,0,30,1.0,0.0
943,78.0,160,30,0.0,0.0
944,71.0,0,90,1.0,0.0
945,67.0,0,90,1.0,0.0
946,76.0,94,90,0.0,0.0
947,70.0,0,90,1.0,0.0
948,66.0,0,90,1.0,0.0
949,78.0,34,90,0.0,0.0
950,70.0,96,30,1.0,0.0
951,66.0,0,30,1.0,0.0
952,78.0,0,30,0.0,0.0
953,78.0,160,30,0.0,0.0
954,71.0,0,90,0.0,0.0
955,62.0,96,90,1.0,0.0
956,59.0,46,720,1.0,0.0
957,66.0,96,90,1.0,0.0
958,74.0,0,90,0.0,0.0
959,78.0,0,90,0.0,0.0
960,62.0,94,90,1.0,0.0
961,83.0,0,90,0.0,0.0
962,66.0,98,90,1.0,0.0
963,82.0,96,90,0.0,0.0
964,64.0,0,90,1.0,0.0
965,85.0,96,90,0.0,0.0
966,66.0,0,90,1.0,0.0
967,64.0,0,90,1.0,0.0
968,78.0,48,90,0.0,0.0
969,66.0,0,90,1.0,0.0
970,82.0,98,90,0.0,0.0
971,59.0,32,150,1.0,0.0
972,83.0,0,90,0.0,0.0
973,62.0,64,90,1.0,0.0
974,66.0,96,90,1.0,0.0
975,74.0,0,90,0.0,0.0
976,78.0,0,90,0.0,0.0
977,61.0,64,90,1.0,0.0
978,54.0,30,150,1.0,0.0
979,66.0,162,90,0.0,0.0
980,64.0,0,90,1.0,0.0
981,59.0,0,150,1.0,0.0
982,71.0,222,150,0.0,0.0
983,62.0,0,150,1.0,0.0
984,69.0,34,90,0.0,0.0
985,74.0,0,30,0.0,0.0
986,66.0,128,30,0.0,0.0
987,50.0,32,150,1.0,0.0
988,66.0,0,90,0.0,0.0
989,74.0,96,90,0.0,0.0
990,73.0,0,90,0.0,0.0
991,76.0,32,90,0.0,0.0
992,50.0,62,30,1.0,0.0
993,78.0,98,90,0.0,0.0
994,74.0,0,90,0.0,0.0
995,57.0,64,270,1.0,0.0
996,78.0,94,90,0.0,0.0
997,81.0,0,90,0.0,0.0
998,79.0,0,90,0.0,0.0
999,76.0,34,90,0.0,0.0
1000,78.0,32,30,0.0,0.0
1001,74.0,0,30,0.0,0.0
1002,73.0,0,30,0.0,0.0
1003,76.0,0,30,0.0,0.0
1004,55.0,112,30,1.0,0.0
1005,79.0,0,90,0.0,0.0
1006,83.0,94,90,0.0,0.0
1007,54.0,48,40,1.0,0.0
1008,78.0,0,90,0.0,0.0
1009,81.0,34,90,0.0,0.0
1010,55.0,80,40,1.0,0.0
1011,76.0,16,30,0.0,0.0
1012,79.0,0,30,0.0,0.0
1013,78.0,112,30,0.0,0.0
1014,74.0,0,30,0.0,0.0
1015,57.0,0,40,1.0,0.0
1016,76.0,48,40,0.0,0.0
1017,73.0,0,40,0.0,0.0
1018,74.0,48,40,0.0,0.0
1019,76.0,46,40,0.0,0.0
1020,78.0,34,40,0.0,0.0
1021,73.0,0,30,0.0,0.0
1022,76.0,96,30,0.0,0.0
1023,69.0,96,30,0.0,0.0
1024,54.0,0,30,1.0,0.0
1025,69.0,0,30,0.0,0.0
1026,74.0,160,30,0.0,0.0
1027,54.0,0,90,1.0,0.0
1028,69.0,0,90,0.0,0.0
1029,74.0,96,90,0.0,0.0
1030,52.0,94,90,1.0,0.0
1031,73.0,0,90,0.0,0.0
1032,76.0,0,90,0.0,0.0
1033,78.0,98,90,0.0,0.0
1034,50.0,0,90,1.0,0.0
1035,74.0,0,90,0.0,0.0
1036,57.0,64,270,1.0,0.0
1037,81.0,0,90,0.0,0.0
1038,78.0,94,90,0.0,0.0
1039,79.0,0,90,0.0,0.0
1040,76.0,34,90,0.0,0.0
1041,74.0,0,30,0.0,0.0
1042,78.0,32,30,0.0,0.0
1043,55.0,160,30,1.0,0.0
1044,73.0,0,30,0.0,0.0
1045,76.0,0,30,0.0,0.0
1046,54.0,30,150,1.0,0.0
1047,79.0,64,90,0.0,0.0
1048,83.0,0,90,0.0,0.0
1049,78.0,0,90,0.0,0.0
1050,81.0,34,90,0.0,0.0
1051,55.0,0,30,1.0,0.0
1052,76.0,96,30,0.0,0.0
1053,79.0,0,30,0.0,0.0
1054,57.0,0,30,1.0,0.0
1055,76.0,96,30,0.0,0.0
1056,73.0,0,30,0.0,0.0
1057,62.0,96,30,1.0,0.0
1058,74.0,64,150,0.0,0.0
1059,57.0,32,30,1.0,0.0
1060,50.0,158,30,1.0,0.0
1061,69.0,34,90,0.0,0.0
1062,66.0,0,30,0.0,0.0
1063,74.0,128,30,0.0,0.0
1064,50.0,32,150,1.0,0.0
1065,66.0,96,90,0.0,0.0
1066,74.0,0,90,0.0,0.0
1067,73.0,32,90,0.0,0.0
1068,76.0,0,90,0.0,0.0
1069,74.0,0,90,0.0,0.0
1070,78.0,98,90,0.0,0.0
1071,50.0,62,30,1.0,0.0
1072,78.0,94,90,0.0,0.0
1073,81.0,0,90,0.0,0.0
1074,57.0,64,270,1.0,0.0
1075,76.0,0,90,0.0,0.0
1076,79.0,34,90,0.0,0.0
1077,78.0,32,30,0.0,0.0
1078,74.0,0,30,0.0,0.0
1079,73.0,0,30,0.0,0.0
1080,76.0,112,30,0.0,0.0
1081,55.0,0,30,1.0,0.0
1082,54.0,48,40,1.0,0.0
1083,79.0,0,90,0.0,0.0
1084,83.0,94,90,0.0,0.0
1085,78.0,0,90,0.0,0.0
1086,81.0,34,90,0.0,0.0
1087,55.0,80,40,1.0,0.0
1088,79.0,0,30,0.0,0.0
1089,76.0,16,30,0.0,0.0
1090,74.0,0,30,0.0,0.0
1091,78.0,112,30,0.0,0.0
1092,73.0,48,40,0.0,0.0
1093,76.0,0,40,0.0,0.0
1094,57.0,0,40,1.0,0.0
1095,74.0,48,40,0.0,0.0
1096,76.0,46,40,0.0,0.0
1097,78.0,34,40,0.0,0.0
1098,76.0,0,30,0.0,0.0
1099,73.0,96,30,0.0,0.0
1100,69.0,96,30,0.0,0.0
1101,74.0,0,30,0.0,0.0
1102,54.0,160,30,1.0,0.0
1103,69.0,0,30,0.0,0.0
1104,69.0,0,90,0.0,0.0
1105,74.0,0,90,0.0,0.0
1106,54.0,96,90,1.0,0.0
1107,73.0,94,90,0.0,0.0
1108,76.0,0,90,0.0,0.0
1109,52.0,0,90,1.0,0.0
1110,50.0,98,90,1.0,0.0
1111,74.0,0,90,0.0,0.0
1112,78.0,0,90,0.0,0.0
1113,78.0,94,90,0.0,0.0
1114,81.0,0,90,0.0,0.0
1115,57.0,64,270,1.0,0.0
1116,79.0,0,90,0.0,0.0
1117,76.0,34,90,0.0,0.0
1118,78.0,32,30,0.0,0.0
1119,74.0,0,30,0.0,0.0
1120,73.0,0,30,0.0,0.0
1121,76.0,0,30,0.0,0.0
1122,55.0,160,30,1.0,0.0
1123,54.0,30,150,1.0,0.0
1124,79.0,0,90,0.0,0.0
1125,83.0,64,90,0.0,0.0
1126,78.0,0,90,0.0,0.0
1127,81.0,34,90,0.0,0.0
1128,79.0,0,30,0.0,0.0
1129,55.0,0,30,1.0,0.0
1130,76.0,96,30,0.0,0.0
1131,76.0,0,30,0.0,0.0
1132,73.0,0,30,0.0,0.0
1133,57.0,96,30,1.0,0.0
1134,74.0,64,150,0.0,0.0
1135,62.0,96,30,1.0,0.0
1136,57.0,32,30,1.0,0.0
1137,50.0,158,30,1.0,0.0
1138,69.0,34,90,0.0,0.0
1139,76.0,0,30,0.0,0.0
1140,73.0,160,30,0.0,0.0
1141,69.0,0,180,1.0,0.0
1142,76.0,96,90,0.0,0.0
1143,73.0,0,90,0.0,0.0
1144,74.0,0,90,0.0,0.0
1145,67.0,96,180,1.0,0.0
1146,78.0,94,90,0.0,0.0
1147,76.0,0,90,0.0,0.0
1148,79.0,2,90,0.0,0.0
1149,66.0,30,150,1.0,0.0
1150,79.0,0,90,0.0,0.0
1151,83.0,64,90,0.0,0.0
1152,78.0,34,90,0.0,0.0
1153,81.0,0,90,0.0,0.0
1154,76.0,0,30,0.0,0.0
1155,79.0,96,30,0.0,0.0
1156,74.0,0,30,0.0,0.0
1157,78.0,96,30,0.0,0.0
1158,57.0,0,180,1.0,0.0
1159,73.0,0,30,0.0,0.0
1160,76.0,160,30,0.0,0.0
1161,73.0,96,90,0.0,0.0
1162,76.0,0,90,0.0,0.0
1163,55.0,144,180,1.0,0.0
1164,78.0,0,90,0.0,0.0
1165,74.0,94,90,0.0,0.0
1166,79.0,2,90,0.0,0.0
1167,76.0,0,90,0.0,0.0
1168,78.0,16,150,0.0,0.0
1169,54.0,8,150,1.0,0.0
1170,81.0,0,150,0.0,0.0
1171,83.0,24,20,0.0,0.0
1172,85.0,94,20,0.0,0.0
1173,86.0,34,90,0.0,0.0
1174,69.0,96,30,0.0,0.0
1175,74.0,0,30,0.0,0.0
1176,66.0,128,30,0.0,0.0
1177,50.0,32,150,1.0,0.0
1178,66.0,96,90,0.0,0.0
1179,74.0,0,90,0.0,0.0
1180,73.0,94,90,0.0,0.0
1181,76.0,0,90,0.0,0.0
1182,74.0,0,90,0.0,0.0
1183,78.0,98,90,0.0,0.0
1184,81.0,94,90,0.0,0.0
1185,78.0,0,90,0.0,0.0
1186,57.0,64,270,1.0,0.0
1187,79.0,0,90,0.0,0.0
1188,76.0,34,90,0.0,0.0
1189,74.0,32,30,0.0,0.0
1190,78.0,0,30,0.0,0.0
1191,73.0,0,30,0.0,0.0
1192,55.0,0,30,1.0,0.0
1193,76.0,160,30,0.0,0.0
1194,79.0,0,90,0.0,0.0
1195,83.0,64,90,0.0,0.0
1196,54.0,30,150,1.0,0.0
1197,78.0,34,90,0.0,0.0
1198,81.0,0,90,0.0,0.0
1199,55.0,0,30,1.0,0.0
1200,79.0,0,30,0.0,0.0
1201,76.0,96,30,0.0,0.0
1202,57.0,224,30,1.0,0.0
1203,76.0,0,30,0.0,0.0
1204,73.0,0,30,0.0,0.0
1205,50.0,0,150,1.0,0.0
1206,74.0,222,150,0.0,0.0
1207,69.0,34,90,0.0,0.0
1208,69.0,0,180,1.0,0.0
1209,76.0,160,30,0.0,0.0
1210,73.0,0,30,0.0,0.0
1211,76.0,96,90,0.0,0.0
1212,73.0,0,90,0.0,0.0
1213,67.0,96,180,1.0,0.0
1214,74.0,0,90,0.0,0.0
1215,78.0,94,90,0.0,0.0
1216,76.0,0,90,0.0,0.0
1217,79.0,2,90,0.0,0.0
1218,79.0,0,90,0.0,0.0
1219,83.0,64,90,0.0,0.0
1220,66.0,30,150,1.0,0.0
1221,78.0,0,90,0.0,0.0
1222,81.0,34,90,0.0,0.0
1223,79.0,96,30,0.0,0.0
1224,76.0,0,30,0.0,0.0
1225,74.0,0,30,0.0,0.0
1226,78.0,96,30,0.0,0.0
1227,76.0,160,30,0.0,0.0
1228,57.0,0,180,1.0,0.0
1229,73.0,0,30,0.0,0.0
1230,73.0,0,90,0.0,0.0
1231,76.0,96,90,0.0,0.0
1232,55.0,144,180,1.0,0.0
1233,74.0,0,90,0.0,0.0
1234,78.0,94,90,0.0,0.0
1235,79.0,2,90,0.0,0.0
1236,76.0,0,90,0.0,0.0
1237,54.0,8,150,1.0,0.0
1238,78.0,0,150,0.0,0.0
1239,81.0,16,150,0.0,0.0
1240,83.0,24,20,0.0,0.0
1241,85.0,94,20,0.0,0.0
1242,86.0,34,90,0.0,0.0
1243,69.0,96,30,0.0,0.0
1244,74.0,0,30,0.0,0.0
1245,66.0,128,30,0.0,0.0
1246,50.0,32,150,1.0,0.0
1247,66.0,96,90,0.0,0.0
1248,74.0,0,90,0.0,0.0
1249,73.0,0,90,0.0,0.0
1250,76.0,94,90,0.0,0.0
1251,74.0,0,90,0.0,0.0
1252,78.0,98,90,0.0,0.0
1253,57.0,64,270,1.0,0.0
1254,78.0,94,90,0.0,0.0
1255,81.0,0,90,0.0,0.0
1256,76.0,0,90,0.0,0.0
1257,79.0,34,90,0.0,0.0
1258,74.0,0,30,0.0,0.0
1259,78.0,32,30,0.0,0.0
1260,73.0,160,30,0.0,0.0
1261,76.0,0,30,0.0,0.0
1262,55.0,0,30,1.0,0.0
1263,83.0,0,90,0.0,0.0
1264,79.0,64,90,0.0,0.0
1265,54.0,30,150,1.0,0.0
1266,78.0,0,90,0.0,0.0
1267,81.0,34,90,0.0,0.0
1268,55.0,96,30,1.0,0.0
1269,79.0,0,30,0.0,0.0
1270,76.0,0,30,0.0,0.0
1271,76.0,0,30,0.0,0.0
1272,73.0,0,30,0.0,0.0
1273,57.0,160,30,1.0,0.0
1274,50.0,0,90,1.0,0.0
1275,54.0,64,90,1.0,0.0
1276,74.0,32,150,0.0,0.0
1277,57.0,96,90,1.0,0.0
1278,50.0,0,90,1.0,0.0
1279,54.0,32,90,1.0,0.0
1280,57.0,98,90,1.0,0.0
1281,74.0,62,30,0.0,0.0
1282,74.0,48,90,0.0,0.0
1283,59.0,0,90,1.0,0.0
1284,50.0,0,90,1.0,0.0
1285,76.0,48,40,0.0,0.0
1286,55.0,48,90,1.0,0.0
1287,78.0,0,40,0.0,0.0
1288,59.0,48,90,1.0,0.0
1289,79.0,48,40,0.0,0.0
1290,81.0,0,40,0.0,0.0
1291,83.0,46,40,0.0,0.0
1292,55.0,0,90,1.0,0.0
1293,85.0,34,40,0.0,0.0
1294,54.0,0,90,1.0,0.0
1295,50.0,32,90,1.0,0.0
1296,86.0,64,30,0.0,0.0
1297,57.0,96,90,1.0,0.0
1298,81.0,64,30,0.0,0.0
1299,54.0,32,90,1.0,0.0
1300,74.0,62,30,0.0,0.0
1301,57.0,98,90,1.0,0.0
1302,50.0,0,90,1.0,0.0
1303,59.0,0,90,1.0,0.0
1304,74.0,48,90,0.0,0.0
1305,55.0,0,90,1.0,0.0
1306,76.0,48,40,0.0,0.0
1307,78.0,48,40,0.0,0.0
1308,59.0,48,90,1.0,0.0
1309,79.0,48,40,0.0,0.0
1310,81.0,0,40,0.0,0.0
1311,83.0,46,40,0.0,0.0
1312,55.0,0,90,1.0,0.0
1313,85.0,34,40,0.0,0.0
1314,86.0,64,30,0.0,0.0
1315,54.0,48,90,1.0,0.0
1316,50.0,0,90,1.0,0.0
1317,81.0,0,40,0.0,0.0
1318,57.0,32,90,1.0,0.0
1319,79.0,46,40,0.0,0.0
1320,78.0,2,40,0.0,0.0
1321,83.0,64,30,0.0,0.0
1322,55.0,48,90,1.0,0.0
1323,79.0,0,40,0.0,0.0
1324,78.0,46,40,0.0,0.0
1325,57.0,34,90,1.0,0.0
1326,76.0,0,40,0.0,0.0
1327,81.0,64,30,0.0,0.0
1328,45.0,48,90,1.0,0.0
1329,54.0,0,90,1.0,0.0
1330,78.0,0,40,0.0,0.0
1331,76.0,46,40,0.0,0.0
1332,57.0,32,90,1.0,0.0
1333,74.0,2,40,0.0,0.0
1334,52.0,0,90,1.0,0.0
1335,45.0,0,90,1.0,0.0
1336,79.0,64,30,0.0,0.0
1337,76.0,48,40,0.0,0.0
1338,55.0,0,90,1.0,0.0
1339,74.0,46,40,0.0,0.0
1340,73.0,50,40,0.0,0.0
1341,74.0,48,40,0.0,0.0
1342,54.0,96,90,1.0,0.0
1343,50.0,0,90,1.0,0.0
1344,57.0,96,90,1.0,0.0
1345,54.0,32,90,1.0,0.0
1346,74.0,62,30,0.0,0.0
1347,57.0,98,90,1.0,0.0
1348,74.0,0,90,0.0,0.0
1349,50.0,0,90,1.0,0.0
1350,59.0,48,90,1.0,0.0
1351,76.0,48,40,0.0,0.0
1352,57.0,0,90,1.0,0.0
1353,78.0,48,40,0.0,0.0
1354,59.0,0,90,1.0,0.0
1355,79.0,48,40,0.0,0.0
1356,81.0,48,40,0.0,0.0
1357,55.0,0,90,1.0,0.0
1358,83.0,46,40,0.0,0.0
1359,85.0,34,40,0.0,0.0
1360,50.0,0,90,1.0,0.0
1361,86.0,64,30,0.0,0.0
1362,54.0,32,90,1.0,0.0
1363,57.0,96,90,1.0,0.0
1364,81.0,64,30,0.0,0.0
1365,54.0,32,90,1.0,0.0
1366,74.0,62,30,0.0,0.0
1367,57.0,98,90,1.0,0.0
1368,50.0,0,90,1.0,0.0
1369,59.0,0,90,1.0,0.0
1370,74.0,48,90,0.0,0.0
1371,76.0,48,40,0.0,0.0
1372,55.0,0,90,1.0,0.0
1373,78.0,48,40,0.0,0.0
1374,79.0,48,40,0.0,0.0
1375,59.0,48,90,1.0,0.0
1376,81.0,0,40,0.0,0.0
1377,55.0,0,90,1.0,0.0
1378,83.0,46,40,0.0,0.0
1379,85.0,34,40,0.0,0.0
1380,50.0,0,90,1.0,0.0
1381,54.0,0,90,1.0,0.0
1382,86.0,64,30,0.0,0.0
1383,81.0,48,40,0.0,0.0
1384,57.0,32,90,1.0,0.0
1385,79.0,46,40,0.0,0.0
1386,78.0,2,40,0.0,0.0
1387,83.0,64,30,0.0,0.0
1388,55.0,0,90,1.0,0.0
1389,79.0,48,40,0.0,0.0
1390,59.0,34,90,1.0,0.0
1391,78.0,46,40,0.0,0.0
1392,76.0,0,40,0.0,0.0
1393,54.0,0,90,1.0,0.0
1394,45.0,0,90,1.0,0.0
1395,81.0,64,30,0.0,0.0
1396,78.0,48,40,0.0,0.0
1397,57.0,32,90,1.0,0.0
1398,76.0,46,40,0.0,0.0
1399,74.0,2,40,0.0,0.0
1400,52.0,48,90,1.0,0.0
1401,45.0,0,90,1.0,0.0
1402,79.0,64,30,0.0,0.0
1403,76.0,0,40,0.0,0.0
1404,74.0,46,40,0.0,0.0
1405,55.0,0,90,1.0,0.0
1406,73.0,34,40,0.0,0.0
1407,74.0,96,30,0.0,0.0
1408,50.0,0,30,1.0,0.0
1409,78.0,0,30,0.0,0.0
1410,54.0,96,30,1.0,0.0
1411,57.0,96,30,1.0,0.0
1412,81.0,0,30,0.0,0.0
1413,54.0,96,30,1.0,0.0
1414,78.0,0,30,0.0,0.0
1415,50.0,0,30,1.0,0.0
1416,74.0,96,30,0.0,0.0
1417,54.0,0,30,1.0,0.0
1418,78.0,96,30,0.0,0.0
1419,81.0,0,30,0.0,0.0
1420,57.0,96,30,1.0,0.0
1421,78.0,0,30,0.0,0.0
1422,54.0,224,30,1.0,0.0
1423,50.0,0,150,1.0,0.0
1424,74.0,192,150,0.0,0.0
1425,62.0,192,150,1.0,0.0
1426,78.0,0,150,0.0,0.0
1427,86.0,0,150,0.0,0.0
1428,50.0,0,150,1.0,0.0
1429,78.0,0,150,0.0,0.0
1430,86.0,0,150,0.0,0.0
