,note,step,duration,channel,velocity
0,69.0,0,48,0.0,92.0
1,57.0,0,48,1.0,92.0
2,50.0,192,160,1.0,92.0
3,74.0,0,192,0.0,92.0
4,66.0,0,192,0.0,92.0
5,78.0,192,160,0.0,92.0
6,66.0,0,48,1.0,92.0
7,74.0,0,48,0.0,92.0
8,69.0,192,48,0.0,92.0
9,81.0,0,48,0.0,92.0
10,76.0,0,48,0.0,92.0
11,61.0,192,192,1.0,92.0
12,79.0,192,48,0.0,92.0
13,81.0,0,48,0.0,92.0
14,64.0,0,160,1.0,92.0
15,81.0,0,48,0.0,92.0
16,61.0,192,48,1.0,92.0
17,76.0,0,48,0.0,92.0
18,62.0,192,192,1.0,92.0
19,78.0,0,192,0.0,92.0
20,81.0,0,192,0.0,92.0
21,59.0,192,160,1.0,92.0
22,74.0,0,160,0.0,92.0
23,83.0,0,160,0.0,92.0
24,71.0,0,48,0.0,92.0
25,64.0,192,48,1.0,92.0
26,80.0,0,48,0.0,92.0
27,76.0,192,192,0.0,92.0
28,81.0,0,192,0.0,92.0
29,61.0,0,192,1.0,92.0
30,57.0,0,160,1.0,92.0
31,73.0,192,160,0.0,92.0
32,69.0,192,96,0.0,45.0
33,71.0,96,94,0.0,45.0
34,73.0,96,48,0.0,45.0
35,69.0,192,96,0.0,45.0
36,71.0,96,96,0.0,45.0
37,69.0,0,96,1.0,45.0
38,73.0,96,96,0.0,45.0
39,71.0,0,94,1.0,45.0
40,74.0,96,94,0.0,45.0
41,73.0,96,48,1.0,45.0
42,76.0,0,48,0.0,45.0
43,69.0,0,96,1.0,52.0
44,73.0,192,96,0.0,52.0
45,71.0,96,96,1.0,56.0
46,74.0,0,96,0.0,56.0
47,73.0,0,96,1.0,60.0
48,76.0,96,96,0.0,60.0
49,78.0,96,94,0.0,64.0
50,74.0,0,94,1.0,64.0
51,76.0,96,48,1.0,68.0
52,79.0,0,48,0.0,68.0
53,73.0,192,96,1.0,76.0
54,76.0,0,96,0.0,76.0
55,74.0,96,96,1.0,80.0
56,78.0,0,96,0.0,80.0
57,79.0,0,96,0.0,84.0
58,76.0,96,96,1.0,84.0
59,81.0,0,94,0.0,88.0
60,78.0,96,94,1.0,88.0
61,83.0,96,528,0.0,92.0
62,79.0,0,528,1.0,92.0
63,73.0,0,528,1.0,92.0
64,66.0,0,192,1.0,92.0
65,81.0,576,192,0.0,92.0
66,62.0,0,192,1.0,92.0
67,64.0,192,192,1.0,92.0
68,67.0,0,192,1.0,92.0
69,79.0,0,192,0.0,92.0
70,78.0,0,160,0.0,92.0
71,66.0,192,160,1.0,92.0
72,69.0,0,160,1.0,92.0
73,71.0,192,160,1.0,92.0
74,67.0,0,160,1.0,92.0
75,76.0,0,192,0.0,92.0
76,79.0,192,160,0.0,92.0
77,73.0,0,48,0.0,92.0
78,67.0,0,48,0.0,92.0
79,57.0,192,48,1.0,92.0
80,50.0,0,160,1.0,92.0
81,66.0,192,160,0.0,92.0
82,74.0,0,160,0.0,92.0
83,62.0,192,160,1.0,92.0
84,69.0,0,48,0.0,92.0
85,57.0,192,48,1.0,92.0
86,50.0,0,160,1.0,92.0
87,74.0,192,192,0.0,92.0
88,66.0,0,192,0.0,92.0
89,78.0,192,160,0.0,92.0
90,66.0,192,48,1.0,92.0
91,69.0,0,48,0.0,92.0
92,74.0,0,48,0.0,92.0
93,76.0,0,48,0.0,92.0
94,81.0,0,48,0.0,92.0
95,61.0,192,192,1.0,92.0
96,81.0,0,48,0.0,92.0
97,79.0,0,48,0.0,92.0
98,64.0,192,160,1.0,92.0
99,61.0,192,48,1.0,92.0
100,76.0,0,48,0.0,92.0
101,81.0,0,48,0.0,92.0
102,78.0,0,192,0.0,92.0
103,62.0,0,192,1.0,92.0
104,81.0,192,192,0.0,92.0
105,74.0,0,160,0.0,92.0
106,83.0,192,160,0.0,92.0
107,59.0,0,160,1.0,92.0
108,71.0,192,48,0.0,92.0
109,80.0,0,48,0.0,92.0
110,64.0,0,48,1.0,92.0
111,61.0,192,192,1.0,92.0
112,76.0,0,192,0.0,92.0
113,81.0,0,192,0.0,92.0
114,73.0,192,160,0.0,92.0
115,57.0,0,160,1.0,92.0
116,69.0,192,96,0.0,45.0
117,71.0,96,94,0.0,45.0
118,73.0,96,48,0.0,45.0
119,69.0,192,96,0.0,45.0
120,71.0,96,96,0.0,45.0
121,73.0,96,96,0.0,45.0
122,69.0,0,96,1.0,45.0
123,74.0,96,94,0.0,45.0
124,71.0,0,94,1.0,45.0
125,73.0,0,48,1.0,45.0
126,76.0,96,48,0.0,45.0
127,69.0,192,96,1.0,52.0
128,73.0,0,96,0.0,52.0
129,74.0,0,96,0.0,56.0
130,71.0,96,96,1.0,56.0
131,76.0,96,96,0.0,60.0
132,73.0,0,96,1.0,60.0
133,74.0,96,94,1.0,64.0
134,78.0,0,94,0.0,64.0
135,76.0,96,48,1.0,68.0
136,79.0,0,48,0.0,68.0
137,73.0,192,96,1.0,76.0
138,76.0,0,96,0.0,76.0
139,78.0,0,96,0.0,80.0
140,74.0,96,96,1.0,80.0
141,79.0,96,96,0.0,84.0
142,76.0,0,96,1.0,84.0
143,78.0,96,94,1.0,88.0
144,81.0,0,94,0.0,88.0
145,73.0,0,528,1.0,92.0
146,79.0,96,528,1.0,92.0
147,83.0,0,528,0.0,92.0
148,66.0,0,192,1.0,92.0
149,81.0,0,192,0.0,92.0
150,62.0,576,192,1.0,92.0
151,64.0,0,192,1.0,92.0
152,79.0,0,192,0.0,92.0
153,67.0,192,192,1.0,92.0
154,66.0,192,160,1.0,92.0
155,69.0,0,160,1.0,92.0
156,78.0,0,160,0.0,92.0
157,67.0,192,160,1.0,92.0
158,71.0,0,160,1.0,92.0
159,76.0,0,192,0.0,92.0
160,79.0,192,160,0.0,92.0
161,67.0,192,48,0.0,92.0
162,73.0,0,48,0.0,92.0
163,57.0,0,48,1.0,92.0
164,50.0,0,160,1.0,92.0
165,74.0,192,160,0.0,92.0
166,66.0,0,160,0.0,92.0
167,62.0,192,160,1.0,92.0
168,54.0,192,48,1.0,92.0
169,59.0,192,192,1.0,92.0
170,62.0,192,160,1.0,92.0
171,66.0,0,48,1.0,92.0
172,82.0,192,48,0.0,92.0
173,73.0,0,48,0.0,92.0
174,62.0,0,48,1.0,92.0
175,83.0,192,192,0.0,92.0
176,74.0,0,192,0.0,92.0
177,59.0,0,48,1.0,92.0
178,78.0,0,160,0.0,92.0
179,86.0,192,160,0.0,92.0
180,52.0,192,48,1.0,92.0
181,57.0,192,192,1.0,92.0
182,61.0,192,160,1.0,92.0
183,80.0,0,48,0.0,92.0
184,64.0,0,48,1.0,92.0
185,71.0,192,48,0.0,92.0
186,61.0,0,48,1.0,92.0
187,73.0,192,192,0.0,92.0
188,81.0,0,192,0.0,92.0
189,57.0,0,48,1.0,92.0
190,76.0,192,160,0.0,92.0
191,85.0,0,160,0.0,92.0
192,81.0,192,48,0.0,45.0
193,88.0,0,192,0.0,45.0
194,85.0,192,192,0.0,45.0
195,81.0,192,160,0.0,45.0
196,61.0,192,576,1.0,45.0
197,64.0,0,576,1.0,45.0
198,80.0,0,192,0.0,45.0
199,78.0,192,160,0.0,45.0
200,62.0,192,576,1.0,45.0
201,83.0,0,384,0.0,45.0
202,86.0,192,384,0.0,45.0
203,81.0,192,160,0.0,45.0
204,85.0,0,160,0.0,45.0
205,64.0,192,528,1.0,45.0
206,83.0,0,160,0.0,45.0
207,80.0,192,384,0.0,45.0
208,84.0,0,192,0.0,45.0
209,81.0,192,160,0.0,45.0
210,85.0,0,160,0.0,45.0
211,81.0,192,48,0.0,45.0
212,57.0,192,576,1.0,45.0
213,88.0,0,192,0.0,45.0
214,76.0,192,192,0.0,45.0
215,85.0,192,192,0.0,45.0
216,81.0,192,160,0.0,45.0
217,49.0,0,576,1.0,45.0
218,80.0,0,192,0.0,45.0
219,76.0,0,192,0.0,45.0
220,74.0,192,160,0.0,45.0
221,78.0,0,160,0.0,45.0
222,50.0,192,576,1.0,45.0
223,78.0,192,384,0.0,45.0
224,86.0,0,384,0.0,45.0
225,52.0,192,336,1.0,45.0
226,83.0,192,192,0.0,45.0
227,80.0,0,160,0.0,45.0
228,52.0,0,192,1.0,45.0
229,59.0,192,192,1.0,45.0
230,83.0,0,24,0.0,45.0
231,81.0,24,24,0.0,45.0
232,83.0,24,24,0.0,45.0
233,81.0,24,24,0.0,45.0
234,83.0,24,24,0.0,45.0
235,81.0,24,24,0.0,45.0
236,57.0,192,160,1.0,45.0
237,61.0,0,160,1.0,45.0
238,83.0,24,24,0.0,45.0
239,81.0,24,24,0.0,45.0
240,83.0,24,24,0.0,45.0
241,81.0,24,24,0.0,45.0
242,83.0,24,24,0.0,45.0
243,81.0,24,24,0.0,45.0
244,83.0,24,24,0.0,45.0
245,81.0,24,24,0.0,45.0
246,83.0,24,24,0.0,45.0
247,81.0,24,24,0.0,45.0
248,83.0,24,24,0.0,45.0
249,81.0,24,24,0.0,45.0
250,83.0,24,24,0.0,45.0
251,81.0,24,24,0.0,45.0
252,83.0,24,24,0.0,45.0
253,81.0,24,24,0.0,45.0
254,49.0,0,160,1.0,45.0
255,83.0,24,24,0.0,45.0
256,81.0,24,24,0.0,45.0
257,83.0,24,24,0.0,45.0
258,81.0,24,24,0.0,45.0
259,83.0,24,24,0.0,45.0
260,81.0,24,24,0.0,45.0
261,83.0,24,24,0.0,45.0
262,81.0,24,24,0.0,45.0
263,83.0,24,24,0.0,45.0
264,52.0,0,192,1.0,45.0
265,81.0,24,24,0.0,45.0
266,83.0,0,24,0.0,45.0
267,81.0,24,24,0.0,45.0
268,83.0,24,24,0.0,45.0
269,81.0,24,24,0.0,45.0
270,83.0,24,24,0.0,45.0
271,81.0,24,24,0.0,45.0
272,83.0,24,24,0.0,45.0
273,81.0,24,24,0.0,45.0
274,57.0,24,192,1.0,68.0
275,83.0,24,24,0.0,45.0
276,81.0,24,24,0.0,45.0
277,83.0,24,24,0.0,45.0
278,81.0,24,24,0.0,45.0
279,83.0,24,24,0.0,45.0
280,81.0,24,24,0.0,45.0
281,61.0,0,160,1.0,92.0
282,83.0,24,24,0.0,45.0
283,81.0,24,24,0.0,45.0
284,83.0,0,24,0.0,45.0
285,81.0,24,24,0.0,45.0
286,83.0,24,24,0.0,45.0
287,81.0,24,24,0.0,45.0
288,83.0,24,24,0.0,45.0
289,81.0,24,24,0.0,45.0
290,83.0,24,24,0.0,45.0
291,81.0,24,24,0.0,45.0
292,64.0,24,192,1.0,92.0
293,83.0,24,24,0.0,45.0
294,81.0,24,24,0.0,45.0
295,83.0,24,24,0.0,45.0
296,81.0,24,24,0.0,45.0
297,83.0,24,24,0.0,45.0
298,81.0,24,24,0.0,45.0
299,61.0,0,160,1.0,76.0
300,83.0,24,24,0.0,45.0
301,81.0,24,24,0.0,45.0
302,83.0,24,24,0.0,45.0
303,49.0,0,48,1.0,60.0
304,81.0,24,24,0.0,45.0
305,52.0,0,48,1.0,60.0
306,83.0,24,24,0.0,45.0
307,81.0,24,24,0.0,46.0
308,83.0,24,24,0.0,47.0
309,81.0,24,24,0.0,48.0
310,83.0,24,24,0.0,49.0
311,81.0,24,24,0.0,50.0
312,83.0,0,24,0.0,51.0
313,81.0,24,24,0.0,52.0
314,83.0,24,24,0.0,53.0
315,81.0,24,24,0.0,54.0
316,83.0,24,24,0.0,55.0
317,81.0,24,24,0.0,56.0
318,83.0,24,24,0.0,57.0
319,81.0,24,24,0.0,58.0
320,52.0,0,192,1.0,60.0
321,57.0,24,192,1.0,60.0
322,83.0,24,24,0.0,59.0
323,81.0,24,24,0.0,60.0
324,83.0,24,24,0.0,61.0
325,81.0,24,24,0.0,62.0
326,83.0,24,24,0.0,63.0
327,81.0,24,24,0.0,64.0
328,83.0,24,24,0.0,65.0
329,57.0,0,192,1.0,84.0
330,81.0,24,24,0.0,66.0
331,61.0,0,192,1.0,84.0
332,83.0,24,24,0.0,67.0
333,81.0,24,24,0.0,68.0
334,83.0,24,24,0.0,69.0
335,81.0,24,24,0.0,70.0
336,83.0,24,24,0.0,71.0
337,81.0,24,24,0.0,72.0
338,61.0,0,160,1.0,108.0
339,64.0,0,160,1.0,108.0
340,83.0,24,24,0.0,73.0
341,81.0,24,24,0.0,74.0
342,83.0,0,24,0.0,75.0
343,81.0,24,24,0.0,76.0
344,83.0,24,24,0.0,77.0
345,81.0,24,24,0.0,78.0
346,83.0,24,24,0.0,79.0
347,81.0,24,24,0.0,80.0
348,83.0,24,24,0.0,81.0
349,81.0,24,24,0.0,82.0
350,67.0,0,192,1.0,108.0
351,64.0,0,0,1.0,100.0
352,83.0,24,32,0.0,83.0
353,81.0,32,32,0.0,84.0
354,80.0,32,32,0.0,85.0
355,61.0,0,160,1.0,100.0
356,81.0,32,94,0.0,86.0
357,57.0,96,48,1.0,92.0
358,69.0,0,48,0.0,92.0
359,50.0,0,160,1.0,92.0
360,66.0,192,192,0.0,92.0
361,74.0,0,192,0.0,92.0
362,78.0,192,160,0.0,92.0
363,66.0,192,48,1.0,92.0
364,74.0,0,48,0.0,92.0
365,69.0,0,48,0.0,92.0
366,76.0,0,48,0.0,92.0
367,81.0,192,48,0.0,92.0
368,61.0,0,192,1.0,92.0
369,79.0,192,48,0.0,92.0
370,81.0,0,48,0.0,92.0
371,64.0,0,160,1.0,92.0
372,76.0,0,48,0.0,92.0
373,81.0,192,48,0.0,92.0
374,61.0,0,48,1.0,92.0
375,78.0,0,192,0.0,92.0
376,62.0,192,192,1.0,92.0
377,81.0,0,192,0.0,92.0
378,59.0,0,160,1.0,92.0
379,83.0,0,160,0.0,92.0
380,74.0,192,160,0.0,92.0
381,80.0,192,48,0.0,92.0
382,71.0,0,48,0.0,92.0
383,64.0,0,48,1.0,92.0
384,81.0,0,192,0.0,92.0
385,76.0,0,192,0.0,92.0
386,61.0,192,192,1.0,92.0
387,73.0,0,160,0.0,92.0
388,57.0,192,160,1.0,92.0
389,69.0,192,96,0.0,45.0
390,71.0,96,94,0.0,45.0
391,73.0,96,48,0.0,45.0
392,69.0,192,96,0.0,45.0
393,71.0,96,96,0.0,45.0
394,73.0,96,96,0.0,45.0
395,69.0,0,96,1.0,45.0
396,74.0,96,94,0.0,45.0
397,71.0,0,94,1.0,45.0
398,76.0,96,48,0.0,45.0
399,73.0,0,48,1.0,45.0
400,69.0,0,96,1.0,52.0
401,73.0,192,96,0.0,52.0
402,71.0,96,96,1.0,56.0
403,74.0,0,96,0.0,56.0
404,76.0,0,96,0.0,60.0
405,73.0,96,96,1.0,60.0
406,78.0,96,94,0.0,64.0
407,74.0,0,94,1.0,64.0
408,76.0,96,48,1.0,68.0
409,79.0,0,48,0.0,68.0
410,76.0,192,96,0.0,76.0
411,73.0,0,96,1.0,76.0
412,74.0,0,96,1.0,80.0
413,78.0,96,96,0.0,80.0
414,79.0,96,96,0.0,84.0
415,76.0,0,96,1.0,84.0
416,81.0,96,94,0.0,88.0
417,78.0,0,94,1.0,88.0
418,73.0,0,528,1.0,92.0
419,79.0,0,528,1.0,92.0
420,83.0,96,528,0.0,92.0
421,81.0,0,192,0.0,92.0
422,66.0,0,192,1.0,92.0
423,62.0,576,192,1.0,92.0
424,67.0,192,192,1.0,92.0
425,64.0,0,192,1.0,92.0
426,79.0,0,192,0.0,92.0
427,78.0,0,160,0.0,92.0
428,66.0,192,160,1.0,92.0
429,69.0,0,160,1.0,92.0
430,67.0,0,160,1.0,92.0
431,71.0,192,160,1.0,92.0
432,76.0,0,192,0.0,92.0
433,79.0,192,160,0.0,92.0
434,57.0,0,48,1.0,92.0
435,67.0,192,48,0.0,92.0
436,73.0,0,48,0.0,92.0
437,66.0,0,160,0.0,92.0
438,74.0,0,160,0.0,92.0
439,50.0,192,160,1.0,92.0
440,62.0,192,160,1.0,92.0
441,54.0,192,48,1.0,92.0
442,59.0,192,192,1.0,92.0
443,62.0,192,160,1.0,92.0
444,73.0,0,48,0.0,92.0
445,82.0,192,48,0.0,92.0
446,66.0,0,48,1.0,92.0
447,62.0,0,48,1.0,92.0
448,83.0,0,192,0.0,92.0
449,74.0,192,192,0.0,92.0
450,59.0,0,48,1.0,92.0
451,78.0,192,160,0.0,92.0
452,86.0,0,160,0.0,92.0
453,52.0,192,48,1.0,92.0
454,57.0,192,192,1.0,92.0
455,61.0,192,160,1.0,92.0
456,71.0,0,48,0.0,92.0
457,64.0,192,48,1.0,92.0
458,80.0,0,48,0.0,92.0
459,61.0,192,48,1.0,92.0
460,73.0,0,192,0.0,92.0
461,81.0,0,192,0.0,92.0
462,57.0,192,48,1.0,92.0
463,76.0,0,160,0.0,92.0
464,85.0,0,160,0.0,92.0
465,81.0,192,48,0.0,45.0
466,88.0,0,192,0.0,45.0
467,85.0,192,192,0.0,45.0
468,81.0,192,160,0.0,45.0
469,64.0,192,576,1.0,45.0
470,61.0,0,576,1.0,45.0
471,80.0,0,192,0.0,45.0
472,78.0,192,160,0.0,45.0
473,62.0,192,576,1.0,45.0
474,83.0,192,384,0.0,45.0
475,86.0,0,384,0.0,45.0
476,81.0,192,160,0.0,45.0
477,85.0,0,160,0.0,45.0
478,64.0,192,528,1.0,45.0
479,83.0,0,160,0.0,45.0
480,80.0,192,384,0.0,45.0
481,84.0,192,192,0.0,45.0
482,85.0,192,160,0.0,45.0
483,81.0,0,160,0.0,45.0
484,81.0,192,48,0.0,45.0
485,57.0,0,576,1.0,45.0
486,88.0,192,192,0.0,45.0
487,76.0,0,192,0.0,45.0
488,85.0,192,192,0.0,45.0
489,81.0,192,160,0.0,45.0
490,49.0,0,576,1.0,45.0
491,80.0,192,192,0.0,45.0
492,76.0,0,192,0.0,45.0
493,74.0,0,160,0.0,45.0
494,78.0,192,160,0.0,45.0
495,50.0,0,576,1.0,45.0
496,78.0,192,384,0.0,45.0
497,86.0,0,384,0.0,45.0
498,52.0,192,336,1.0,45.0
499,83.0,192,192,0.0,45.0
500,80.0,0,160,0.0,45.0
501,59.0,192,192,1.0,45.0
502,52.0,0,192,1.0,45.0
503,83.0,0,24,0.0,45.0
504,81.0,24,24,0.0,45.0
505,83.0,24,24,0.0,45.0
506,81.0,24,24,0.0,45.0
507,83.0,24,24,0.0,45.0
508,81.0,24,24,0.0,45.0
509,57.0,0,160,1.0,45.0
510,61.0,192,160,1.0,45.0
511,83.0,24,24,0.0,45.0
512,81.0,24,24,0.0,45.0
513,83.0,24,24,0.0,45.0
514,81.0,24,24,0.0,45.0
515,83.0,24,24,0.0,45.0
516,81.0,24,24,0.0,45.0
517,83.0,24,24,0.0,45.0
518,81.0,24,24,0.0,45.0
519,83.0,24,24,0.0,45.0
520,81.0,24,24,0.0,45.0
521,83.0,0,24,0.0,45.0
522,81.0,24,24,0.0,45.0
523,83.0,24,24,0.0,45.0
524,81.0,24,24,0.0,45.0
525,83.0,24,24,0.0,45.0
526,81.0,24,24,0.0,45.0
527,49.0,24,160,1.0,45.0
528,83.0,24,24,0.0,45.0
529,81.0,24,24,0.0,45.0
530,83.0,24,24,0.0,45.0
531,81.0,24,24,0.0,45.0
532,83.0,24,24,0.0,45.0
533,81.0,24,24,0.0,45.0
534,83.0,24,24,0.0,45.0
535,81.0,24,24,0.0,45.0
536,83.0,24,24,0.0,45.0
537,81.0,24,24,0.0,45.0
538,52.0,0,192,1.0,45.0
539,83.0,24,24,0.0,45.0
540,81.0,24,24,0.0,45.0
541,83.0,24,24,0.0,45.0
542,81.0,24,24,0.0,45.0
543,83.0,24,24,0.0,45.0
544,81.0,24,24,0.0,45.0
545,83.0,24,24,0.0,45.0
546,81.0,24,24,0.0,45.0
547,57.0,0,192,1.0,68.0
548,83.0,24,24,0.0,45.0
549,81.0,24,24,0.0,45.0
550,83.0,24,24,0.0,45.0
551,81.0,24,24,0.0,45.0
552,83.0,24,24,0.0,45.0
553,81.0,24,24,0.0,45.0
554,61.0,0,160,1.0,92.0
555,83.0,24,24,0.0,45.0
556,81.0,24,24,0.0,45.0
557,83.0,24,24,0.0,45.0
558,81.0,24,24,0.0,45.0
559,83.0,24,24,0.0,45.0
560,81.0,24,24,0.0,45.0
561,83.0,24,24,0.0,45.0
562,81.0,24,24,0.0,45.0
563,83.0,24,24,0.0,45.0
564,81.0,24,24,0.0,45.0
565,64.0,0,192,1.0,92.0
566,83.0,0,24,0.0,45.0
567,81.0,24,24,0.0,45.0
568,83.0,24,24,0.0,45.0
569,81.0,24,24,0.0,45.0
570,83.0,24,24,0.0,45.0
571,81.0,24,24,0.0,45.0
572,61.0,24,160,1.0,76.0
573,83.0,24,24,0.0,45.0
574,81.0,24,24,0.0,45.0
575,83.0,24,24,0.0,45.0
576,52.0,0,48,1.0,60.0
577,49.0,0,48,1.0,60.0
578,81.0,24,24,0.0,45.0
579,83.0,24,24,0.0,45.0
580,81.0,24,24,0.0,46.0
581,83.0,24,24,0.0,47.0
582,81.0,24,24,0.0,48.0
583,83.0,24,24,0.0,49.0
584,81.0,24,24,0.0,50.0
585,83.0,0,24,0.0,51.0
586,81.0,24,24,0.0,52.0
587,83.0,24,24,0.0,53.0
588,81.0,24,24,0.0,54.0
589,83.0,24,24,0.0,55.0
590,81.0,24,24,0.0,56.0
591,83.0,24,24,0.0,57.0
592,52.0,0,192,1.0,60.0
593,81.0,24,24,0.0,58.0
594,57.0,24,0,1.0,84.0
595,83.0,0,24,0.0,59.0
596,81.0,24,24,0.0,60.0
597,83.0,24,24,0.0,61.0
598,81.0,24,24,0.0,62.0
599,83.0,24,24,0.0,63.0
600,81.0,24,24,0.0,64.0
601,83.0,24,24,0.0,65.0
602,61.0,0,0,1.0,108.0
603,81.0,24,24,0.0,66.0
604,83.0,0,24,0.0,67.0
605,81.0,24,24,0.0,68.0
606,83.0,24,24,0.0,69.0
607,81.0,24,24,0.0,70.0
608,83.0,24,24,0.0,71.0
609,81.0,24,24,0.0,72.0
610,64.0,24,160,1.0,108.0
611,83.0,24,24,0.0,73.0
612,81.0,24,24,0.0,74.0
613,83.0,24,24,0.0,75.0
614,81.0,24,24,0.0,76.0
615,83.0,24,24,0.0,77.0
616,81.0,24,24,0.0,78.0
617,83.0,24,24,0.0,79.0
618,81.0,24,24,0.0,80.0
619,83.0,24,24,0.0,81.0
620,81.0,24,24,0.0,82.0
621,64.0,0,192,1.0,108.0
622,67.0,0,192,1.0,108.0
623,83.0,0,32,0.0,83.0
624,81.0,32,32,0.0,84.0
625,80.0,32,32,0.0,85.0
626,61.0,24,160,1.0,100.0
627,64.0,0,160,1.0,100.0
628,81.0,32,94,0.0,86.0
629,57.0,96,48,1.0,92.0
630,69.0,0,48,0.0,92.0
631,50.0,192,160,1.0,92.0
632,66.0,0,192,0.0,92.0
633,74.0,0,192,0.0,92.0
634,78.0,192,160,0.0,92.0
635,69.0,0,48,0.0,92.0
636,74.0,0,48,0.0,92.0
637,66.0,192,48,1.0,92.0
638,81.0,0,48,0.0,92.0
639,76.0,192,48,0.0,92.0
640,61.0,0,192,1.0,92.0
641,79.0,0,48,0.0,92.0
642,81.0,192,48,0.0,92.0
643,64.0,0,160,1.0,92.0
644,81.0,0,48,0.0,92.0
645,76.0,0,48,0.0,92.0
646,61.0,192,48,1.0,92.0
647,78.0,192,192,0.0,92.0
648,81.0,0,192,0.0,92.0
649,62.0,0,192,1.0,92.0
650,83.0,0,160,0.0,92.0
651,59.0,0,160,1.0,92.0
652,74.0,192,160,0.0,92.0
653,80.0,0,48,0.0,92.0
654,71.0,0,48,0.0,92.0
655,64.0,192,48,1.0,92.0
656,81.0,192,192,0.0,92.0
657,76.0,0,192,0.0,92.0
658,61.0,0,192,1.0,92.0
659,73.0,192,160,0.0,92.0
660,57.0,0,160,1.0,92.0
661,69.0,192,96,0.0,45.0
662,71.0,96,94,0.0,45.0
663,73.0,96,48,0.0,45.0
664,69.0,192,96,0.0,45.0
665,71.0,96,96,0.0,45.0
666,69.0,0,96,1.0,45.0
667,73.0,96,96,0.0,45.0
668,71.0,96,94,1.0,45.0
669,74.0,0,94,0.0,45.0
670,76.0,0,48,0.0,45.0
671,73.0,96,48,1.0,45.0
672,73.0,192,96,0.0,52.0
673,69.0,0,96,1.0,52.0
674,74.0,96,96,0.0,56.0
675,71.0,0,96,1.0,56.0
676,73.0,96,96,1.0,60.0
677,76.0,0,96,0.0,60.0
678,74.0,96,94,1.0,64.0
679,78.0,0,94,0.0,64.0
680,76.0,96,48,1.0,68.0
681,79.0,0,48,0.0,68.0
682,73.0,192,96,1.0,76.0
683,76.0,0,96,0.0,76.0
684,78.0,0,96,0.0,80.0
685,74.0,96,96,1.0,80.0
686,79.0,96,96,0.0,84.0
687,76.0,0,96,1.0,84.0
688,81.0,96,94,0.0,88.0
689,78.0,0,94,1.0,88.0
690,83.0,0,528,0.0,92.0
691,73.0,96,528,1.0,92.0
692,79.0,0,528,1.0,92.0
693,62.0,576,192,1.0,92.0
694,66.0,0,192,1.0,92.0
695,81.0,0,192,0.0,92.0
696,67.0,0,192,1.0,92.0
697,64.0,192,192,1.0,92.0
698,79.0,0,192,0.0,92.0
699,69.0,192,160,1.0,92.0
700,78.0,0,160,0.0,92.0
701,66.0,0,160,1.0,92.0
702,71.0,192,160,1.0,92.0
703,67.0,0,160,1.0,92.0
704,76.0,0,192,0.0,92.0
705,79.0,192,160,0.0,92.0
706,57.0,0,48,1.0,92.0
707,67.0,192,48,0.0,92.0
708,73.0,0,48,0.0,92.0
709,50.0,0,160,1.0,92.0
710,74.0,192,160,0.0,92.0
711,66.0,0,160,0.0,92.0
712,62.0,192,160,1.0,92.0
713,57.0,0,94,1.0,45.0
714,62.0,96,94,1.0,45.0
715,57.0,0,94,1.0,45.0
716,64.0,96,94,1.0,45.0
717,86.0,0,384,0.0,45.0
718,67.0,96,94,1.0,45.0
719,85.0,0,160,0.0,45.0
720,64.0,96,94,1.0,45.0
721,86.0,96,48,0.0,45.0
722,57.0,0,94,1.0,45.0
723,64.0,96,94,1.0,45.0
724,57.0,0,94,1.0,45.0
725,62.0,96,94,1.0,45.0
726,66.0,96,94,1.0,45.0
727,62.0,96,94,1.0,45.0
728,81.0,0,384,0.0,45.0
729,57.0,96,94,1.0,45.0
730,78.0,0,160,0.0,45.0
731,62.0,96,94,1.0,45.0
732,57.0,0,94,1.0,45.0
733,81.0,0,96,0.0,45.0
734,79.0,0,94,0.0,45.0
735,61.0,96,94,1.0,45.0
736,64.0,0,94,1.0,45.0
737,79.0,96,96,0.0,45.0
738,61.0,96,94,1.0,45.0
739,78.0,0,96,0.0,45.0
740,57.0,96,94,1.0,45.0
741,79.0,0,96,0.0,45.0
742,83.0,96,94,0.0,45.0
743,61.0,0,94,1.0,45.0
744,57.0,0,94,1.0,45.0
745,62.0,96,94,1.0,45.0
746,66.0,96,94,1.0,45.0
747,81.0,0,336,0.0,45.0
748,62.0,96,94,1.0,45.0
749,57.0,0,94,1.0,45.0
750,62.0,96,94,1.0,45.0
751,57.0,0,94,1.0,45.0
752,64.0,96,94,1.0,45.0
753,86.0,96,384,0.0,45.0
754,67.0,96,94,1.0,45.0
755,85.0,0,160,0.0,45.0
756,64.0,96,94,1.0,45.0
757,86.0,96,48,0.0,45.0
758,57.0,0,94,1.0,45.0
759,64.0,96,94,1.0,45.0
760,57.0,0,94,1.0,45.0
761,62.0,96,94,1.0,45.0
762,66.0,96,94,1.0,45.0
763,62.0,96,94,1.0,45.0
764,81.0,0,384,0.0,45.0
765,57.0,96,94,1.0,45.0
766,78.0,0,160,0.0,45.0
767,62.0,96,94,1.0,45.0
768,57.0,0,94,1.0,45.0
769,81.0,0,96,0.0,45.0
770,79.0,0,94,0.0,45.0
771,64.0,96,94,1.0,45.0
772,67.0,0,94,1.0,45.0
773,79.0,96,96,0.0,45.0
774,64.0,0,94,1.0,45.0
775,78.0,96,96,0.0,45.0
776,57.0,0,94,1.0,45.0
777,79.0,96,96,0.0,45.0
778,61.0,96,94,1.0,45.0
779,76.0,0,94,0.0,45.0
780,57.0,0,94,1.0,45.0
781,62.0,96,94,1.0,45.0
782,66.0,96,94,1.0,45.0
783,74.0,0,336,0.0,45.0
784,62.0,96,94,1.0,45.0
785,57.0,0,94,1.0,45.0
786,62.0,96,94,1.0,45.0
787,57.0,0,94,1.0,45.0
788,64.0,96,94,1.0,45.0
789,86.0,0,384,0.0,45.0
790,67.0,0,94,1.0,45.0
791,85.0,96,160,0.0,45.0
792,64.0,96,94,1.0,45.0
793,86.0,96,48,0.0,45.0
794,57.0,0,94,1.0,45.0
795,64.0,96,94,1.0,45.0
796,57.0,0,94,1.0,45.0
797,62.0,96,94,1.0,45.0
798,66.0,96,94,1.0,45.0
799,62.0,96,94,1.0,45.0
800,81.0,0,384,0.0,45.0
801,57.0,96,94,1.0,45.0
802,78.0,0,160,0.0,45.0
803,62.0,96,94,1.0,45.0
804,57.0,0,94,1.0,45.0
805,81.0,0,96,0.0,45.0
806,79.0,96,94,0.0,45.0
807,61.0,0,94,1.0,45.0
808,64.0,0,94,1.0,45.0
809,79.0,96,96,0.0,45.0
810,61.0,96,94,1.0,45.0
811,78.0,0,96,0.0,45.0
812,57.0,96,94,1.0,45.0
813,79.0,0,96,0.0,45.0
814,83.0,0,94,0.0,45.0
815,61.0,96,94,1.0,45.0
816,57.0,0,94,1.0,45.0
817,62.0,96,94,1.0,45.0
818,66.0,96,94,1.0,45.0
819,81.0,96,336,0.0,45.0
820,62.0,96,94,1.0,45.0
821,57.0,0,94,1.0,45.0
822,62.0,96,94,1.0,45.0
823,57.0,0,94,1.0,45.0
824,64.0,96,94,1.0,45.0
825,86.0,96,384,0.0,45.0
826,67.0,0,94,1.0,45.0
827,85.0,96,160,0.0,45.0
828,64.0,96,94,1.0,45.0
829,86.0,0,48,0.0,45.0
830,57.0,96,94,1.0,45.0
831,64.0,96,94,1.0,45.0
832,57.0,0,94,1.0,45.0
833,62.0,96,94,1.0,45.0
834,66.0,96,94,1.0,45.0
835,62.0,96,94,1.0,45.0
836,81.0,0,384,0.0,45.0
837,57.0,0,94,1.0,45.0
838,78.0,96,160,0.0,45.0
839,62.0,96,94,1.0,45.0
840,57.0,0,94,1.0,45.0
841,81.0,0,96,0.0,45.0
842,64.0,0,94,1.0,45.0
843,79.0,96,94,0.0,45.0
844,67.0,96,94,1.0,45.0
845,79.0,0,96,0.0,45.0
846,64.0,0,94,1.0,45.0
847,78.0,96,96,0.0,45.0
848,57.0,0,94,1.0,45.0
849,79.0,96,96,0.0,45.0
850,76.0,96,94,0.0,45.0
851,61.0,0,94,1.0,45.0
852,66.0,0,336,1.0,45.0
853,62.0,0,336,1.0,45.0
854,74.0,96,336,0.0,45.0
855,60.0,384,48,1.0,92.0
856,50.0,0,48,1.0,92.0
857,74.0,0,48,0.0,92.0
858,79.0,0,96,0.0,92.0
859,55.0,0,192,1.0,92.0
860,78.0,96,96,0.0,92.0
861,79.0,96,96,0.0,92.0
862,59.0,192,336,1.0,92.0
863,62.0,0,192,1.0,92.0
864,81.0,96,96,0.0,92.0
865,83.0,0,96,0.0,92.0
866,50.0,0,160,1.0,92.0
867,60.0,96,160,1.0,92.0
868,81.0,96,94,0.0,92.0
869,79.0,0,96,0.0,92.0
870,55.0,0,192,1.0,92.0
871,78.0,96,96,0.0,92.0
872,79.0,0,96,0.0,92.0
873,59.0,96,336,1.0,92.0
874,81.0,96,96,0.0,92.0
875,62.0,96,192,1.0,92.0
876,83.0,96,96,0.0,92.0
877,60.0,0,160,1.0,92.0
878,50.0,0,160,1.0,92.0
879,81.0,96,94,0.0,92.0
880,79.0,96,96,0.0,92.0
881,78.0,96,96,0.0,92.0
882,55.0,0,192,1.0,92.0
883,79.0,0,96,0.0,92.0
884,59.0,0,336,1.0,92.0
885,62.0,96,192,1.0,92.0
886,81.0,96,96,0.0,92.0
887,83.0,96,96,0.0,92.0
888,50.0,0,160,1.0,92.0
889,60.0,0,160,1.0,92.0
890,81.0,96,94,0.0,92.0
891,79.0,0,160,0.0,92.0
892,55.0,96,160,1.0,92.0
893,59.0,0,160,1.0,92.0
894,83.0,576,48,0.0,45.0
895,74.0,0,48,0.0,45.0
896,55.0,0,48,1.0,45.0
897,74.0,0,48,0.0,45.0
898,55.0,0,48,1.0,45.0
899,83.0,192,48,0.0,45.0
900,55.0,0,48,1.0,45.0
901,83.0,0,48,0.0,45.0
902,74.0,192,48,0.0,45.0
903,78.0,0,336,0.0,45.0
904,81.0,0,336,0.0,45.0
905,57.0,192,336,1.0,45.0
906,78.0,384,96,0.0,45.0
907,74.0,96,94,0.0,45.0
908,73.0,0,48,0.0,45.0
909,64.0,96,96,1.0,45.0
910,57.0,0,96,1.0,45.0
911,67.0,96,96,1.0,45.0
912,73.0,0,48,0.0,45.0
913,57.0,0,96,1.0,45.0
914,64.0,96,96,1.0,45.0
915,67.0,96,96,1.0,45.0
916,73.0,0,48,0.0,45.0
917,64.0,0,96,1.0,45.0
918,57.0,96,96,1.0,45.0
919,67.0,96,94,1.0,45.0
920,66.0,96,160,1.0,45.0
921,62.0,0,160,1.0,45.0
922,74.0,0,160,0.0,45.0
923,57.0,384,48,1.0,92.0
924,69.0,0,48,0.0,92.0
925,50.0,0,160,1.0,92.0
926,66.0,192,192,0.0,92.0
927,74.0,0,192,0.0,92.0
928,78.0,192,160,0.0,92.0
929,74.0,0,48,0.0,92.0
930,66.0,0,48,1.0,92.0
931,69.0,192,48,0.0,92.0
932,76.0,192,48,0.0,92.0
933,81.0,0,48,0.0,92.0
934,61.0,0,192,1.0,92.0
935,81.0,0,48,0.0,92.0
936,79.0,192,48,0.0,92.0
937,64.0,0,160,1.0,92.0
938,76.0,192,48,0.0,92.0
939,61.0,0,48,1.0,92.0
940,81.0,0,48,0.0,92.0
941,81.0,192,192,0.0,92.0
942,78.0,0,192,0.0,92.0
943,62.0,0,192,1.0,92.0
944,74.0,0,160,0.0,92.0
945,83.0,192,160,0.0,92.0
946,59.0,0,160,1.0,92.0
947,80.0,0,48,0.0,92.0
948,71.0,192,48,0.0,92.0
949,64.0,0,48,1.0,92.0
950,61.0,192,192,1.0,92.0
951,81.0,0,192,0.0,92.0
952,76.0,0,192,0.0,92.0
953,73.0,0,160,0.0,92.0
954,57.0,192,160,1.0,92.0
955,69.0,192,96,0.0,45.0
956,71.0,96,94,0.0,45.0
957,73.0,96,48,0.0,45.0
958,69.0,192,96,0.0,45.0
959,71.0,96,96,0.0,45.0
960,69.0,0,96,1.0,45.0
961,73.0,96,96,0.0,45.0
962,74.0,96,94,0.0,45.0
963,71.0,0,94,1.0,45.0
964,76.0,0,48,0.0,45.0
965,73.0,96,48,1.0,45.0
966,73.0,192,96,0.0,52.0
967,69.0,0,96,1.0,52.0
968,74.0,96,96,0.0,56.0
969,71.0,0,96,1.0,56.0
970,76.0,96,96,0.0,60.0
971,73.0,0,96,1.0,60.0
972,78.0,96,94,0.0,64.0
973,74.0,0,94,1.0,64.0
974,76.0,0,48,1.0,68.0
975,79.0,96,48,0.0,68.0
976,73.0,192,96,1.0,76.0
977,76.0,0,96,0.0,76.0
978,74.0,96,96,1.0,80.0
979,78.0,0,96,0.0,80.0
980,76.0,96,96,1.0,84.0
981,79.0,0,96,0.0,84.0
982,78.0,96,94,1.0,88.0
983,81.0,0,94,0.0,88.0
984,79.0,0,528,1.0,92.0
985,73.0,0,528,1.0,92.0
986,83.0,96,528,0.0,92.0
987,81.0,0,192,0.0,92.0
988,62.0,0,192,1.0,92.0
989,66.0,576,192,1.0,92.0
990,67.0,0,192,1.0,92.0
991,64.0,0,192,1.0,92.0
992,79.0,192,192,0.0,92.0
993,78.0,192,160,0.0,92.0
994,66.0,0,160,1.0,92.0
995,69.0,0,160,1.0,92.0
996,71.0,0,160,1.0,92.0
997,67.0,192,160,1.0,92.0
998,76.0,0,192,0.0,92.0
999,79.0,192,160,0.0,92.0
1000,57.0,0,48,1.0,92.0
1001,73.0,192,48,0.0,92.0
1002,67.0,0,48,0.0,92.0
1003,66.0,0,160,0.0,92.0
1004,50.0,192,160,1.0,92.0
1005,74.0,0,160,0.0,92.0
1006,62.0,192,160,1.0,92.0
1007,54.0,192,48,1.0,92.0
1008,59.0,192,192,1.0,92.0
1009,62.0,192,160,1.0,92.0
1010,82.0,192,48,0.0,92.0
1011,73.0,0,48,0.0,92.0
1012,66.0,0,48,1.0,92.0
1013,62.0,192,48,1.0,92.0
1014,74.0,0,192,0.0,92.0
1015,83.0,0,192,0.0,92.0
1016,59.0,0,48,1.0,92.0
1017,86.0,192,160,0.0,92.0
1018,78.0,0,160,0.0,92.0
1019,52.0,192,48,1.0,92.0
1020,57.0,192,192,1.0,92.0
1021,61.0,192,160,1.0,92.0
1022,64.0,192,48,1.0,92.0
1023,80.0,0,48,0.0,92.0
1024,71.0,0,48,0.0,92.0
1025,61.0,192,48,1.0,92.0
1026,81.0,0,192,0.0,92.0
1027,73.0,0,192,0.0,92.0
1028,57.0,192,48,1.0,92.0
1029,76.0,0,160,0.0,92.0
1030,85.0,0,160,0.0,92.0
1031,81.0,192,48,0.0,45.0
1032,88.0,0,192,0.0,45.0
1033,85.0,192,192,0.0,45.0
1034,81.0,192,160,0.0,45.0
1035,61.0,0,576,1.0,45.0
1036,64.0,192,576,1.0,45.0
1037,80.0,0,192,0.0,45.0
1038,78.0,192,160,0.0,45.0
1039,62.0,192,576,1.0,45.0
1040,86.0,192,384,0.0,45.0
1041,83.0,0,384,0.0,45.0
1042,81.0,0,160,0.0,45.0
1043,85.0,192,160,0.0,45.0
1044,64.0,192,528,1.0,45.0
1045,83.0,0,160,0.0,45.0
1046,84.0,192,192,0.0,45.0
1047,80.0,192,384,0.0,45.0
1048,85.0,0,160,0.0,45.0
1049,81.0,192,160,0.0,45.0
1050,81.0,192,48,0.0,45.0
1051,57.0,0,576,1.0,45.0
1052,88.0,0,192,0.0,45.0
1053,76.0,192,192,0.0,45.0
1054,85.0,192,192,0.0,45.0
1055,81.0,192,160,0.0,45.0
1056,49.0,0,576,1.0,45.0
1057,80.0,0,192,0.0,45.0
1058,76.0,192,192,0.0,45.0
1059,74.0,0,160,0.0,45.0
1060,78.0,192,160,0.0,45.0
1061,50.0,0,576,1.0,45.0
1062,78.0,192,384,0.0,45.0
1063,86.0,0,384,0.0,45.0
1064,52.0,192,336,1.0,45.0
1065,83.0,192,192,0.0,45.0
1066,80.0,192,160,0.0,45.0
1067,52.0,0,192,1.0,45.0
1068,59.0,0,192,1.0,45.0
1069,83.0,0,24,0.0,45.0
1070,81.0,24,24,0.0,45.0
1071,83.0,24,24,0.0,45.0
1072,81.0,24,24,0.0,45.0
1073,83.0,24,24,0.0,45.0
1074,81.0,24,24,0.0,45.0
1075,61.0,0,160,1.0,45.0
1076,57.0,192,160,1.0,45.0
1077,83.0,24,24,0.0,45.0
1078,81.0,24,24,0.0,45.0
1079,83.0,24,24,0.0,45.0
1080,81.0,24,24,0.0,45.0
1081,83.0,24,24,0.0,45.0
1082,81.0,24,24,0.0,45.0
1083,83.0,24,24,0.0,45.0
1084,81.0,24,24,0.0,45.0
1085,83.0,24,24,0.0,45.0
1086,81.0,24,24,0.0,45.0
1087,83.0,24,24,0.0,45.0
1088,81.0,24,24,0.0,45.0
1089,83.0,24,24,0.0,45.0
1090,81.0,24,24,0.0,45.0
1091,83.0,24,24,0.0,45.0
1092,81.0,24,24,0.0,45.0
1093,49.0,0,160,1.0,45.0
1094,83.0,24,24,0.0,45.0
1095,81.0,24,24,0.0,45.0
1096,83.0,24,24,0.0,45.0
1097,81.0,24,24,0.0,45.0
1098,83.0,24,24,0.0,45.0
1099,81.0,24,24,0.0,45.0
1100,83.0,24,24,0.0,45.0
1101,81.0,24,24,0.0,45.0
1102,83.0,24,24,0.0,45.0
1103,52.0,0,192,1.0,45.0
1104,81.0,24,24,0.0,45.0
1105,83.0,0,24,0.0,45.0
1106,81.0,24,24,0.0,45.0
1107,83.0,24,24,0.0,45.0
1108,81.0,24,24,0.0,45.0
1109,83.0,24,24,0.0,45.0
1110,81.0,24,24,0.0,45.0
1111,83.0,24,24,0.0,45.0
1112,81.0,24,24,0.0,45.0
1113,57.0,24,192,1.0,68.0
1114,83.0,24,24,0.0,45.0
1115,81.0,24,24,0.0,45.0
1116,83.0,24,24,0.0,45.0
1117,81.0,24,24,0.0,45.0
1118,83.0,24,24,0.0,45.0
1119,81.0,24,24,0.0,45.0
1120,61.0,0,160,1.0,92.0
1121,83.0,24,24,0.0,45.0
1122,81.0,24,24,0.0,45.0
1123,83.0,0,24,0.0,45.0
1124,81.0,24,24,0.0,45.0
1125,83.0,24,24,0.0,45.0
1126,81.0,24,24,0.0,45.0
1127,83.0,24,24,0.0,45.0
1128,81.0,24,24,0.0,45.0
1129,83.0,24,24,0.0,45.0
1130,64.0,24,192,1.0,92.0
1131,81.0,24,24,0.0,45.0
1132,83.0,0,24,0.0,45.0
1133,81.0,24,24,0.0,45.0
1134,83.0,24,24,0.0,45.0
1135,81.0,24,24,0.0,45.0
1136,83.0,24,24,0.0,45.0
1137,81.0,24,24,0.0,45.0
1138,61.0,24,160,1.0,76.0
1139,83.0,24,24,0.0,45.0
1140,81.0,24,24,0.0,45.0
1141,83.0,0,24,0.0,45.0
1142,49.0,24,48,1.0,60.0
1143,81.0,24,24,0.0,45.0
1144,52.0,0,48,1.0,60.0
1145,83.0,24,24,0.0,45.0
1146,81.0,24,24,0.0,46.0
1147,83.0,24,24,0.0,47.0
1148,81.0,24,24,0.0,48.0
1149,83.0,24,24,0.0,49.0
1150,81.0,24,24,0.0,50.0
1151,83.0,24,24,0.0,51.0
1152,81.0,24,24,0.0,52.0
1153,83.0,24,24,0.0,53.0
1154,81.0,24,24,0.0,54.0
1155,83.0,24,24,0.0,55.0
1156,81.0,24,24,0.0,56.0
1157,83.0,24,24,0.0,57.0
1158,81.0,24,24,0.0,58.0
1159,57.0,0,192,1.0,60.0
1160,52.0,0,192,1.0,60.0
1161,83.0,0,24,0.0,59.0
1162,81.0,24,24,0.0,60.0
1163,83.0,24,24,0.0,61.0
1164,81.0,24,24,0.0,62.0
1165,83.0,24,24,0.0,63.0
1166,81.0,24,24,0.0,64.0
1167,83.0,24,24,0.0,65.0
1168,81.0,24,24,0.0,66.0
1169,57.0,0,192,1.0,84.0
1170,61.0,24,192,1.0,84.0
1171,83.0,24,24,0.0,67.0
1172,81.0,24,24,0.0,68.0
1173,83.0,24,24,0.0,69.0
1174,81.0,24,24,0.0,70.0
1175,83.0,24,24,0.0,71.0
1176,81.0,24,24,0.0,72.0
1177,64.0,0,160,1.0,108.0
1178,61.0,0,160,1.0,108.0
1179,83.0,24,24,0.0,73.0
1180,81.0,24,24,0.0,74.0
1181,83.0,24,24,0.0,75.0
1182,81.0,24,24,0.0,76.0
1183,83.0,24,24,0.0,77.0
1184,81.0,24,24,0.0,78.0
1185,83.0,24,24,0.0,79.0
1186,81.0,24,24,0.0,80.0
1187,83.0,24,24,0.0,81.0
1188,67.0,0,192,1.0,108.0
1189,81.0,24,24,0.0,82.0
1190,64.0,0,192,1.0,108.0
1191,83.0,24,32,0.0,83.0
1192,81.0,32,32,0.0,84.0
1193,80.0,32,32,0.0,85.0
1194,64.0,0,160,1.0,100.0
1195,61.0,0,160,1.0,100.0
1196,81.0,32,94,0.0,86.0
1197,69.0,0,48,0.0,92.0
1198,57.0,96,48,1.0,92.0
1199,50.0,0,160,1.0,92.0
1200,74.0,192,192,0.0,92.0
1201,66.0,0,192,0.0,92.0
1202,78.0,192,160,0.0,92.0
1203,69.0,192,48,0.0,92.0
1204,74.0,0,48,0.0,92.0
1205,66.0,0,48,1.0,92.0
1206,76.0,0,48,0.0,92.0
1207,81.0,0,48,0.0,92.0
1208,61.0,192,192,1.0,92.0
1209,79.0,0,48,0.0,92.0
1210,81.0,0,48,0.0,92.0
1211,64.0,192,160,1.0,92.0
1212,76.0,0,48,0.0,92.0
1213,81.0,192,48,0.0,92.0
1214,61.0,0,48,1.0,92.0
1215,78.0,192,192,0.0,92.0
1216,81.0,0,192,0.0,92.0
1217,62.0,0,192,1.0,92.0
1218,59.0,0,160,1.0,92.0
1219,83.0,0,160,0.0,92.0
1220,74.0,192,160,0.0,92.0
1221,64.0,192,48,1.0,92.0
1222,71.0,0,48,0.0,92.0
1223,80.0,0,48,0.0,92.0
1224,76.0,192,192,0.0,92.0
1225,81.0,0,192,0.0,92.0
1226,61.0,0,192,1.0,92.0
1227,57.0,0,160,1.0,92.0
1228,73.0,192,160,0.0,92.0
1229,69.0,192,96,0.0,45.0
1230,71.0,96,94,0.0,45.0
1231,73.0,96,48,0.0,45.0
1232,69.0,192,96,0.0,45.0
1233,71.0,96,96,0.0,45.0
1234,69.0,0,96,1.0,45.0
1235,73.0,96,96,0.0,45.0
1236,71.0,96,94,1.0,45.0
1237,74.0,0,94,0.0,45.0
1238,73.0,96,48,1.0,45.0
1239,76.0,0,48,0.0,45.0
1240,73.0,0,96,0.0,52.0
1241,69.0,192,96,1.0,52.0
1242,71.0,96,96,1.0,56.0
1243,74.0,0,96,0.0,56.0
1244,76.0,0,96,0.0,60.0
1245,73.0,96,96,1.0,60.0
1246,74.0,0,94,1.0,64.0
1247,78.0,96,94,0.0,64.0
1248,79.0,0,48,0.0,68.0
1249,76.0,96,48,1.0,68.0
1250,76.0,192,96,0.0,76.0
1251,73.0,0,96,1.0,76.0
1252,74.0,96,96,1.0,80.0
1253,78.0,0,96,0.0,80.0
1254,76.0,0,96,1.0,84.0
1255,79.0,96,96,0.0,84.0
1256,81.0,0,94,0.0,88.0
1257,78.0,96,94,1.0,88.0
1258,83.0,96,528,0.0,92.0
1259,73.0,0,528,1.0,92.0
1260,79.0,0,528,1.0,92.0
1261,81.0,0,192,0.0,92.0
1262,62.0,576,192,1.0,92.0
1263,66.0,0,192,1.0,92.0
1264,79.0,0,192,0.0,92.0
1265,67.0,0,192,1.0,92.0
1266,64.0,192,192,1.0,92.0
1267,78.0,192,160,0.0,92.0
1268,66.0,0,160,1.0,92.0
1269,69.0,0,160,1.0,92.0
1270,67.0,0,160,1.0,92.0
1271,71.0,0,160,1.0,92.0
1272,76.0,192,192,0.0,92.0
1273,79.0,192,160,0.0,92.0
1274,67.0,0,48,0.0,92.0
1275,73.0,0,48,0.0,92.0
1276,57.0,192,48,1.0,92.0
1277,50.0,0,160,1.0,92.0
1278,74.0,0,160,0.0,92.0
1279,66.0,192,160,0.0,92.0
1280,62.0,192,160,1.0,92.0
