tick,type,time,meta,track,tempo,key,numerator,denominator,clocks_per_click,notated_32nd_notes_per_beat,port,program,channel,control,value,note,velocity
0,track_name,0,1,0,,,,,,,,,,,,,
0,program_change,0,0,2,,,,,,,,0,1,,,,
0,control_change,0,0,2,,,,,,,,,1,7,127,,
0,control_change,0,0,2,,,,,,,,,1,10,64,,
0,track_name,0,1,2,,,,,,,,,,,,,
0,note_on,0,0,1,,,,,,,,,0,,,76,45
0,control_change,0,0,1,,,,,,,,,0,10,64,,
0,control_change,0,0,1,,,,,,,,,0,7,127,,
0,program_change,0,0,1,,,,,,,,0,0,,,,
0,track_name,0,1,1,,,,,,,,,,,,,
0,midi_port,0,1,1,,,,,,,0,,,,,,
0,midi_port,0,1,2,,,,,,,0,,,,,,
0,copyright,0,1,0,,,,,,,,,,,,,
0,text,0,1,0,,,,,,,,,,,,,
0,text,0,1,0,,,,,,,,,,,,,
0,copyright,0,1,0,,,,,,,,,,,,,
0,time_signature,0,1,0,,,3,4,24,8,,,,,,,
0,key_signature,0,1,0,,A,,,,,,,,,,,
0,set_tempo,0,1,0,545454,,,,,,,,,,,,
96,note_on,96,0,1,,,,,,,,,0,,,76,0
96,note_on,0,0,1,,,,,,,,,0,,,73,45
192,note_on,96,0,1,,,,,,,,,0,,,73,0
192,note_on,0,0,1,,,,,,,,,0,,,76,45
288,note_on,96,0,1,,,,,,,,,0,,,76,0
288,note_on,0,0,1,,,,,,,,,0,,,73,45
382,note_on,94,0,1,,,,,,,,,0,,,73,0
384,note_on,0,0,2,,,,,,,,,1,,,61,92
384,note_on,2,0,1,,,,,,,,,0,,,78,92
384,note_on,384,0,2,,,,,,,,,1,,,58,92
432,note_on,48,0,1,,,,,,,,,0,,,78,0
576,note_on,144,0,1,,,,,,,,,0,,,74,45
576,note_on,192,0,2,,,,,,,,,1,,,58,0
576,note_on,0,0,2,,,,,,,,,1,,,61,0
576,note_on,0,0,2,,,,,,,,,1,,,59,45
672,note_on,0,0,1,,,,,,,,,0,,,71,45
672,note_on,96,0,1,,,,,,,,,0,,,74,0
736,note_on,160,0,2,,,,,,,,,1,,,59,0
768,note_on,96,0,1,,,,,,,,,0,,,71,0
768,note_on,0,0,1,,,,,,,,,0,,,74,45
864,note_on,96,0,1,,,,,,,,,0,,,74,0
864,note_on,0,0,1,,,,,,,,,0,,,71,45
958,note_on,94,0,1,,,,,,,,,0,,,71,0
960,note_on,0,0,2,,,,,,,,,1,,,59,92
960,note_on,2,0,1,,,,,,,,,0,,,76,92
960,note_on,224,0,2,,,,,,,,,1,,,56,92
1008,note_on,48,0,1,,,,,,,,,0,,,76,0
1152,note_on,192,0,2,,,,,,,,,1,,,56,0
1152,note_on,144,0,1,,,,,,,,,0,,,73,45
1152,note_on,0,0,2,,,,,,,,,1,,,57,45
1152,note_on,0,0,2,,,,,,,,,1,,,59,0
1246,note_on,94,0,1,,,,,,,,,0,,,73,0
1248,note_on,2,0,1,,,,,,,,,0,,,69,45
1342,note_on,94,0,1,,,,,,,,,0,,,69,0
1344,note_on,2,0,1,,,,,,,,,0,,,64,45
1344,note_on,0,0,1,,,,,,,,,0,,,73,45
1438,note_on,94,0,1,,,,,,,,,0,,,64,0
1438,note_on,0,0,1,,,,,,,,,0,,,73,0
1440,note_on,2,0,1,,,,,,,,,0,,,69,45
1488,note_on,336,0,2,,,,,,,,,1,,,57,0
1534,note_on,94,0,1,,,,,,,,,0,,,69,0
1536,note_on,48,0,2,,,,,,,,,1,,,59,92
1536,note_on,0,0,1,,,,,,,,,0,,,76,92
1536,note_on,2,0,1,,,,,,,,,0,,,66,92
1632,note_on,96,0,1,,,,,,,,,0,,,66,0
1632,note_on,0,0,1,,,,,,,,,0,,,76,0
1632,note_on,0,0,1,,,,,,,,,0,,,74,92
1632,note_on,0,0,1,,,,,,,,,0,,,71,92
1696,note_on,160,0,2,,,,,,,,,1,,,59,0
1726,note_on,0,0,1,,,,,,,,,0,,,74,0
1726,note_on,94,0,1,,,,,,,,,0,,,71,0
1728,note_on,0,0,1,,,,,,,,,0,,,73,92
1728,note_on,2,0,1,,,,,,,,,0,,,69,92
1728,note_on,32,0,2,,,,,,,,,1,,,64,92
1824,note_on,0,0,2,,,,,,,,,1,,,63,92
1824,note_on,96,0,2,,,,,,,,,1,,,64,0
1920,note_on,0,0,2,,,,,,,,,1,,,64,92
1920,note_on,96,0,2,,,,,,,,,1,,,63,0
2016,note_on,0,0,2,,,,,,,,,1,,,66,92
2016,note_on,96,0,2,,,,,,,,,1,,,64,0
2112,note_on,0,0,2,,,,,,,,,1,,,62,92
2112,note_on,96,0,2,,,,,,,,,1,,,66,0
2112,note_on,384,0,1,,,,,,,,,0,,,69,0
2112,note_on,0,0,1,,,,,,,,,0,,,73,0
2112,note_on,0,0,1,,,,,,,,,0,,,68,92
2112,note_on,0,0,1,,,,,,,,,0,,,71,92
2208,note_on,96,0,2,,,,,,,,,1,,,62,0
2208,note_on,0,0,2,,,,,,,,,1,,,64,92
2272,note_on,160,0,1,,,,,,,,,0,,,68,0
2272,note_on,0,0,1,,,,,,,,,0,,,71,0
2302,note_on,94,0,2,,,,,,,,,1,,,64,0
2304,note_on,0,0,1,,,,,,,,,0,,,69,92
2304,note_on,32,0,1,,,,,,,,,0,,,69,92
2304,note_on,2,0,2,,,,,,,,,1,,,61,92
2352,note_on,48,0,2,,,,,,,,,1,,,61,0
2400,note_on,96,0,1,,,,,,,,,0,,,69,0
2400,note_on,0,0,1,,,,,,,,,0,,,71,92
2464,note_on,64,0,1,,,,,,,,,0,,,69,0
2496,note_on,144,0,2,,,,,,,,,1,,,57,92
2496,note_on,32,0,1,,,,,,,,,0,,,71,0
2496,note_on,0,0,1,,,,,,,,,0,,,64,92
2496,note_on,0,0,1,,,,,,,,,0,,,73,92
2592,note_on,96,0,1,,,,,,,,,0,,,73,0
2592,note_on,0,0,1,,,,,,,,,0,,,71,92
2688,note_on,192,0,2,,,,,,,,,1,,,57,0
2688,note_on,0,0,2,,,,,,,,,1,,,61,92
2688,note_on,0,0,1,,,,,,,,,0,,,69,92
2688,note_on,96,0,1,,,,,,,,,0,,,71,0
2784,note_on,96,0,1,,,,,,,,,0,,,69,0
2784,note_on,0,0,1,,,,,,,,,0,,,68,92
2832,note_on,48,0,1,,,,,,,,,0,,,64,0
2848,note_on,160,0,2,,,,,,,,,1,,,61,0
2880,note_on,48,0,1,,,,,,,,,0,,,68,0
2880,note_on,0,0,1,,,,,,,,,0,,,66,92
2880,note_on,32,0,2,,,,,,,,,1,,,62,92
2928,note_on,48,0,1,,,,,,,,,0,,,66,0
2928,note_on,48,0,2,,,,,,,,,1,,,62,0
3072,note_on,144,0,1,,,,,,,,,0,,,68,92
3072,note_on,0,0,1,,,,,,,,,0,,,74,92
3072,note_on,144,0,2,,,,,,,,,1,,,59,92
3264,note_on,0,0,2,,,,,,,,,1,,,57,92
3264,note_on,192,0,2,,,,,,,,,1,,,59,0
3264,note_on,192,0,1,,,,,,,,,0,,,68,0
3264,note_on,0,0,1,,,,,,,,,0,,,74,0
3264,note_on,0,0,1,,,,,,,,,0,,,69,92
3264,note_on,0,0,1,,,,,,,,,0,,,73,92
3358,note_on,94,0,1,,,,,,,,,0,,,69,0
3360,note_on,2,0,1,,,,,,,,,0,,,64,92
3424,note_on,64,0,1,,,,,,,,,0,,,73,0
3424,note_on,160,0,2,,,,,,,,,1,,,57,0
3454,note_on,30,0,1,,,,,,,,,0,,,64,0
3456,note_on,32,0,2,,,,,,,,,1,,,50,92
3456,note_on,2,0,1,,,,,,,,,0,,,64,92
3456,note_on,0,0,1,,,,,,,,,0,,,73,92
3552,note_on,0,0,1,,,,,,,,,0,,,71,92
3552,note_on,0,0,1,,,,,,,,,0,,,62,92
3552,note_on,96,0,1,,,,,,,,,0,,,64,0
3552,note_on,0,0,1,,,,,,,,,0,,,73,0
3648,note_on,96,0,1,,,,,,,,,0,,,62,0
3648,note_on,0,0,1,,,,,,,,,0,,,71,0
3648,note_on,0,0,1,,,,,,,,,0,,,61,92
3648,note_on,0,0,1,,,,,,,,,0,,,69,92
3648,note_on,0,0,2,,,,,,,,,1,,,52,92
3648,note_on,192,0,2,,,,,,,,,1,,,50,0
3696,note_on,48,0,1,,,,,,,,,0,,,61,0
3696,note_on,0,0,1,,,,,,,,,0,,,69,0
3696,note_on,48,0,2,,,,,,,,,1,,,52,0
3840,note_on,144,0,1,,,,,,,,,0,,,59,92
3840,note_on,144,0,2,,,,,,,,,1,,,52,92
3840,note_on,0,0,1,,,,,,,,,0,,,68,92
3888,note_on,48,0,2,,,,,,,,,1,,,52,0
3888,note_on,0,0,1,,,,,,,,,0,,,68,0
3888,note_on,48,0,1,,,,,,,,,0,,,59,0
4032,note_on,144,0,2,,,,,,,,,1,,,57,92
4032,note_on,0,0,1,,,,,,,,,0,,,69,92
4032,note_on,144,0,1,,,,,,,,,0,,,61,92
4192,note_on,160,0,2,,,,,,,,,1,,,57,0
4224,note_on,32,0,2,,,,,,,,,1,,,52,92
4368,note_on,0,0,1,,,,,,,,,0,,,69,0
4368,note_on,336,0,1,,,,,,,,,0,,,61,0
4384,note_on,160,0,2,,,,,,,,,1,,,52,0
4416,note_on,32,0,2,,,,,,,,,1,,,45,92
4576,note_on,160,0,2,,,,,,,,,1,,,45,0
4608,set_tempo,4608,1,0,545454,,,,,,,,,,,,
4608,note_on,240,0,1,,,,,,,,,0,,,76,45
4704,note_on,0,0,1,,,,,,,,,0,,,73,45
4704,note_on,96,0,1,,,,,,,,,0,,,76,0
4800,note_on,0,0,1,,,,,,,,,0,,,76,45
4800,note_on,96,0,1,,,,,,,,,0,,,73,0
4896,note_on,96,0,1,,,,,,,,,0,,,76,0
4896,note_on,0,0,1,,,,,,,,,0,,,73,45
4990,note_on,94,0,1,,,,,,,,,0,,,73,0
4992,note_on,2,0,1,,,,,,,,,0,,,78,92
4992,note_on,416,0,2,,,,,,,,,1,,,58,92
4992,note_on,0,0,2,,,,,,,,,1,,,61,92
5040,note_on,48,0,1,,,,,,,,,0,,,78,0
5184,note_on,144,0,1,,,,,,,,,0,,,74,45
5184,note_on,192,0,2,,,,,,,,,1,,,58,0
5184,note_on,0,0,2,,,,,,,,,1,,,61,0
5184,note_on,0,0,2,,,,,,,,,1,,,59,45
5280,note_on,96,0,1,,,,,,,,,0,,,74,0
5280,note_on,0,0,1,,,,,,,,,0,,,71,45
5344,note_on,160,0,2,,,,,,,,,1,,,59,0
5376,note_on,96,0,1,,,,,,,,,0,,,71,0
5376,note_on,0,0,1,,,,,,,,,0,,,74,45
5472,note_on,0,0,1,,,,,,,,,0,,,71,45
5472,note_on,96,0,1,,,,,,,,,0,,,74,0
5566,note_on,94,0,1,,,,,,,,,0,,,71,0
5568,note_on,224,0,2,,,,,,,,,1,,,56,92
5568,note_on,2,0,1,,,,,,,,,0,,,76,92
5568,note_on,0,0,2,,,,,,,,,1,,,59,92
5616,note_on,48,0,1,,,,,,,,,0,,,76,0
5760,note_on,0,0,2,,,,,,,,,1,,,57,45
5760,note_on,144,0,1,,,,,,,,,0,,,73,45
5760,note_on,0,0,2,,,,,,,,,1,,,59,0
5760,note_on,192,0,2,,,,,,,,,1,,,56,0
5854,note_on,94,0,1,,,,,,,,,0,,,73,0
5856,note_on,2,0,1,,,,,,,,,0,,,69,45
5950,note_on,94,0,1,,,,,,,,,0,,,69,0
5952,note_on,2,0,1,,,,,,,,,0,,,64,45
5952,note_on,0,0,1,,,,,,,,,0,,,73,45
6046,note_on,94,0,1,,,,,,,,,0,,,64,0
6046,note_on,0,0,1,,,,,,,,,0,,,73,0
6048,note_on,2,0,1,,,,,,,,,0,,,69,45
6096,note_on,336,0,2,,,,,,,,,1,,,57,0
6142,note_on,94,0,1,,,,,,,,,0,,,69,0
6144,note_on,2,0,1,,,,,,,,,0,,,66,92
6144,note_on,48,0,2,,,,,,,,,1,,,59,92
6144,note_on,0,0,1,,,,,,,,,0,,,76,92
6240,note_on,0,0,1,,,,,,,,,0,,,76,0
6240,note_on,96,0,1,,,,,,,,,0,,,66,0
6240,note_on,0,0,1,,,,,,,,,0,,,74,92
6240,note_on,0,0,1,,,,,,,,,0,,,71,92
6304,note_on,160,0,2,,,,,,,,,1,,,59,0
6334,note_on,0,0,1,,,,,,,,,0,,,74,0
6334,note_on,94,0,1,,,,,,,,,0,,,71,0
6336,note_on,2,0,1,,,,,,,,,0,,,69,92
6336,note_on,0,0,1,,,,,,,,,0,,,73,92
6336,note_on,32,0,2,,,,,,,,,1,,,64,92
6432,note_on,0,0,2,,,,,,,,,1,,,63,92
6432,note_on,96,0,2,,,,,,,,,1,,,64,0
6528,note_on,96,0,2,,,,,,,,,1,,,63,0
6528,note_on,0,0,2,,,,,,,,,1,,,64,92
6624,note_on,96,0,2,,,,,,,,,1,,,64,0
6624,note_on,0,0,2,,,,,,,,,1,,,66,92
6720,note_on,384,0,1,,,,,,,,,0,,,69,0
6720,note_on,0,0,2,,,,,,,,,1,,,62,92
6720,note_on,0,0,1,,,,,,,,,0,,,68,92
6720,note_on,0,0,1,,,,,,,,,0,,,71,92
6720,note_on,96,0,2,,,,,,,,,1,,,66,0
6720,note_on,0,0,1,,,,,,,,,0,,,73,0
6816,note_on,96,0,2,,,,,,,,,1,,,62,0
6816,note_on,0,0,2,,,,,,,,,1,,,64,92
6880,note_on,160,0,1,,,,,,,,,0,,,68,0
6880,note_on,0,0,1,,,,,,,,,0,,,71,0
6910,note_on,94,0,2,,,,,,,,,1,,,64,0
6912,note_on,0,0,1,,,,,,,,,0,,,69,92
6912,note_on,2,0,2,,,,,,,,,1,,,61,92
6912,note_on,32,0,1,,,,,,,,,0,,,69,92
6960,note_on,48,0,2,,,,,,,,,1,,,61,0
7008,note_on,0,0,1,,,,,,,,,0,,,71,92
7008,note_on,96,0,1,,,,,,,,,0,,,69,0
7072,note_on,64,0,1,,,,,,,,,0,,,69,0
7104,note_on,0,0,1,,,,,,,,,0,,,64,92
7104,note_on,0,0,1,,,,,,,,,0,,,73,92
7104,note_on,144,0,2,,,,,,,,,1,,,57,92
7104,note_on,32,0,1,,,,,,,,,0,,,71,0
7200,note_on,0,0,1,,,,,,,,,0,,,71,92
7200,note_on,96,0,1,,,,,,,,,0,,,73,0
7296,note_on,96,0,1,,,,,,,,,0,,,71,0
7296,note_on,0,0,1,,,,,,,,,0,,,69,92
7296,note_on,0,0,2,,,,,,,,,1,,,61,92
7296,note_on,192,0,2,,,,,,,,,1,,,57,0
7392,note_on,0,0,1,,,,,,,,,0,,,68,92
7392,note_on,96,0,1,,,,,,,,,0,,,69,0
7440,note_on,48,0,1,,,,,,,,,0,,,64,0
7456,note_on,160,0,2,,,,,,,,,1,,,61,0
7488,note_on,0,0,1,,,,,,,,,0,,,66,92
7488,note_on,48,0,1,,,,,,,,,0,,,68,0
7488,note_on,32,0,2,,,,,,,,,1,,,62,92
7536,note_on,48,0,1,,,,,,,,,0,,,66,0
7536,note_on,48,0,2,,,,,,,,,1,,,62,0
7680,note_on,0,0,1,,,,,,,,,0,,,74,92
7680,note_on,144,0,1,,,,,,,,,0,,,68,92
7680,note_on,144,0,2,,,,,,,,,1,,,59,92
7872,note_on,192,0,2,,,,,,,,,1,,,59,0
7872,note_on,0,0,2,,,,,,,,,1,,,57,92
7872,note_on,192,0,1,,,,,,,,,0,,,68,0
7872,note_on,0,0,1,,,,,,,,,0,,,74,0
7872,note_on,0,0,1,,,,,,,,,0,,,69,92
7872,note_on,0,0,1,,,,,,,,,0,,,73,92
7966,note_on,94,0,1,,,,,,,,,0,,,69,0
7968,note_on,2,0,1,,,,,,,,,0,,,64,92
8032,note_on,64,0,1,,,,,,,,,0,,,73,0
8032,note_on,160,0,2,,,,,,,,,1,,,57,0
8062,note_on,30,0,1,,,,,,,,,0,,,64,0
8064,note_on,2,0,1,,,,,,,,,0,,,64,92
8064,note_on,32,0,2,,,,,,,,,1,,,50,92
8064,note_on,0,0,1,,,,,,,,,0,,,73,92
8160,note_on,0,0,1,,,,,,,,,0,,,62,92
8160,note_on,0,0,1,,,,,,,,,0,,,73,0
8160,note_on,0,0,1,,,,,,,,,0,,,71,92
8160,note_on,96,0,1,,,,,,,,,0,,,64,0
8256,note_on,0,0,2,,,,,,,,,1,,,52,92
8256,note_on,0,0,1,,,,,,,,,0,,,69,92
8256,note_on,192,0,2,,,,,,,,,1,,,50,0
8256,note_on,0,0,1,,,,,,,,,0,,,71,0
8256,note_on,96,0,1,,,,,,,,,0,,,62,0
8256,note_on,0,0,1,,,,,,,,,0,,,61,92
8304,note_on,48,0,2,,,,,,,,,1,,,52,0
8304,note_on,48,0,1,,,,,,,,,0,,,61,0
8304,note_on,0,0,1,,,,,,,,,0,,,69,0
8448,note_on,144,0,1,,,,,,,,,0,,,59,92
8448,note_on,144,0,2,,,,,,,,,1,,,52,92
8448,note_on,0,0,1,,,,,,,,,0,,,68,92
8496,note_on,48,0,2,,,,,,,,,1,,,52,0
8496,note_on,48,0,1,,,,,,,,,0,,,59,0
8496,note_on,0,0,1,,,,,,,,,0,,,68,0
8640,note_on,0,0,1,,,,,,,,,0,,,69,92
8640,note_on,144,0,1,,,,,,,,,0,,,61,92
8640,note_on,144,0,2,,,,,,,,,1,,,57,92
8800,note_on,160,0,2,,,,,,,,,1,,,57,0
8832,note_on,32,0,2,,,,,,,,,1,,,52,92
8976,note_on,0,0,1,,,,,,,,,0,,,69,0
8976,note_on,336,0,1,,,,,,,,,0,,,61,0
8992,note_on,160,0,2,,,,,,,,,1,,,52,0
9024,note_on,32,0,2,,,,,,,,,1,,,45,92
9184,note_on,160,0,2,,,,,,,,,1,,,45,0
9216,note_on,240,0,1,,,,,,,,,0,,,68,45
9216,note_on,0,0,1,,,,,,,,,0,,,71,45
9312,note_on,0,0,1,,,,,,,,,0,,,71,0
9312,note_on,0,0,1,,,,,,,,,0,,,64,45
9312,note_on,96,0,1,,,,,,,,,0,,,68,0
9408,note_on,0,0,1,,,,,,,,,0,,,68,45
9408,note_on,0,0,1,,,,,,,,,0,,,71,45
9408,note_on,96,0,1,,,,,,,,,0,,,64,0
9504,note_on,0,0,1,,,,,,,,,0,,,64,45
9504,note_on,0,0,1,,,,,,,,,0,,,71,0
9504,note_on,96,0,1,,,,,,,,,0,,,68,0
9598,note_on,94,0,1,,,,,,,,,0,,,64,0
9600,note_on,0,0,1,,,,,,,,,0,,,73,45
9600,note_on,2,0,1,,,,,,,,,0,,,69,45
9696,note_on,0,0,1,,,,,,,,,0,,,73,0
9696,note_on,96,0,1,,,,,,,,,0,,,69,0
9696,note_on,0,0,1,,,,,,,,,0,,,64,45
9790,note_on,94,0,1,,,,,,,,,0,,,64,0
9792,note_on,0,0,1,,,,,,,,,0,,,76,45
9792,note_on,608,0,2,,,,,,,,,1,,,52,45
9792,note_on,2,0,1,,,,,,,,,0,,,73,45
9888,note_on,0,0,2,,,,,,,,,1,,,54,45
9888,note_on,96,0,2,,,,,,,,,1,,,52,0
9984,note_on,0,0,2,,,,,,,,,1,,,56,45
9984,note_on,96,0,2,,,,,,,,,1,,,54,0
9984,note_on,0,0,1,,,,,,,,,0,,,74,45
9984,note_on,192,0,1,,,,,,,,,0,,,73,0
9984,note_on,0,0,1,,,,,,,,,0,,,76,0
9984,note_on,0,0,1,,,,,,,,,0,,,71,45
10080,note_on,0,0,2,,,,,,,,,1,,,54,45
10080,note_on,96,0,2,,,,,,,,,1,,,56,0
10144,note_on,0,0,1,,,,,,,,,0,,,74,0
10144,note_on,160,0,1,,,,,,,,,0,,,71,0
10176,note_on,0,0,2,,,,,,,,,1,,,56,45
10176,note_on,96,0,2,,,,,,,,,1,,,54,0
10272,note_on,0,0,2,,,,,,,,,1,,,52,45
10272,note_on,96,0,2,,,,,,,,,1,,,56,0
10366,note_on,94,0,2,,,,,,,,,1,,,52,0
10368,note_on,224,0,1,,,,,,,,,0,,,73,45
10368,note_on,2,0,2,,,,,,,,,1,,,57,45
10464,note_on,0,0,1,,,,,,,,,0,,,74,45
10464,note_on,96,0,1,,,,,,,,,0,,,73,0
10464,note_on,0,0,2,,,,,,,,,1,,,59,45
10464,note_on,96,0,2,,,,,,,,,1,,,57,0
10560,note_on,96,0,1,,,,,,,,,0,,,74,0
10560,note_on,0,0,1,,,,,,,,,0,,,75,45
10560,note_on,96,0,2,,,,,,,,,1,,,59,0
10560,note_on,0,0,2,,,,,,,,,1,,,60,45
10656,note_on,96,0,1,,,,,,,,,0,,,75,0
10656,note_on,0,0,2,,,,,,,,,1,,,61,45
10656,note_on,96,0,2,,,,,,,,,1,,,60,0
10656,note_on,0,0,1,,,,,,,,,0,,,76,45
10752,note_on,96,0,1,,,,,,,,,0,,,76,0
10752,note_on,0,0,1,,,,,,,,,0,,,74,45
10752,note_on,0,0,2,,,,,,,,,1,,,59,45
10752,note_on,96,0,2,,,,,,,,,1,,,61,0
10848,note_on,96,0,1,,,,,,,,,0,,,74,0
10848,note_on,0,0,1,,,,,,,,,0,,,73,45
10848,note_on,0,0,2,,,,,,,,,1,,,57,45
10848,note_on,96,0,2,,,,,,,,,1,,,59,0
10942,note_on,94,0,1,,,,,,,,,0,,,73,0
10942,note_on,94,0,2,,,,,,,,,1,,,57,0
10944,note_on,0,0,1,,,,,,,,,0,,,76,45
10944,note_on,2,0,2,,,,,,,,,1,,,64,45
10944,note_on,2,0,1,,,,,,,,,0,,,73,45
11040,note_on,0,0,2,,,,,,,,,1,,,63,45
11040,note_on,96,0,2,,,,,,,,,1,,,64,0
11088,note_on,144,0,1,,,,,,,,,0,,,73,0
11088,note_on,0,0,1,,,,,,,,,0,,,76,0
11088,note_on,0,0,1,,,,,,,,,0,,,69,45
11088,note_on,0,0,1,,,,,,,,,0,,,73,45
11136,note_on,96,0,2,,,,,,,,,1,,,63,0
11136,note_on,0,0,2,,,,,,,,,1,,,64,45
11136,note_on,0,0,1,,,,,,,,,0,,,68,45
11136,note_on,0,0,1,,,,,,,,,0,,,73,0
11136,note_on,48,0,1,,,,,,,,,0,,,69,0
11136,note_on,0,0,1,,,,,,,,,0,,,71,45
11232,note_on,0,0,2,,,,,,,,,1,,,66,45
11232,note_on,96,0,2,,,,,,,,,1,,,64,0
11296,note_on,160,0,1,,,,,,,,,0,,,68,0
11296,note_on,0,0,1,,,,,,,,,0,,,71,0
11328,note_on,96,0,2,,,,,,,,,1,,,66,0
11328,note_on,0,0,2,,,,,,,,,1,,,62,45
11424,note_on,0,0,2,,,,,,,,,1,,,59,45
11424,note_on,96,0,2,,,,,,,,,1,,,62,0
11518,note_on,94,0,2,,,,,,,,,1,,,59,0
11520,note_on,0,0,2,,,,,,,,,1,,,61,45
11520,note_on,224,0,1,,,,,,,,,0,,,76,45
11520,note_on,2,0,2,,,,,,,,,1,,,57,45
11616,note_on,0,0,1,,,,,,,,,0,,,73,45
11616,note_on,96,0,1,,,,,,,,,0,,,76,0
11712,note_on,0,0,2,,,,,,,,,1,,,61,0
11712,note_on,0,0,1,,,,,,,,,0,,,76,45
11712,note_on,0,0,2,,,,,,,,,1,,,59,45
11712,note_on,96,0,1,,,,,,,,,0,,,73,0
11712,note_on,192,0,2,,,,,,,,,1,,,57,0
11808,note_on,0,0,1,,,,,,,,,0,,,73,45
11808,note_on,96,0,1,,,,,,,,,0,,,76,0
11902,note_on,94,0,1,,,,,,,,,0,,,73,0
11904,note_on,192,0,2,,,,,,,,,1,,,59,0
11904,note_on,0,0,2,,,,,,,,,1,,,54,92
11904,note_on,0,0,2,,,,,,,,,1,,,58,92
11904,note_on,2,0,1,,,,,,,,,0,,,78,92
11952,note_on,48,0,1,,,,,,,,,0,,,78,0
12064,note_on,0,0,2,,,,,,,,,1,,,58,0
12064,note_on,160,0,2,,,,,,,,,1,,,54,0
12096,note_on,144,0,1,,,,,,,,,0,,,74,45
12096,note_on,32,0,2,,,,,,,,,1,,,59,45
12192,note_on,96,0,1,,,,,,,,,0,,,74,0
12192,note_on,0,0,1,,,,,,,,,0,,,71,45
12288,note_on,192,0,2,,,,,,,,,1,,,59,0
12288,note_on,96,0,1,,,,,,,,,0,,,71,0
12288,note_on,0,0,1,,,,,,,,,0,,,74,45
12288,note_on,0,0,2,,,,,,,,,1,,,57,45
12384,note_on,0,0,1,,,,,,,,,0,,,71,45
12384,note_on,96,0,1,,,,,,,,,0,,,74,0
12478,note_on,94,0,1,,,,,,,,,0,,,71,0
12480,note_on,2,0,1,,,,,,,,,0,,,76,92
12480,note_on,0,0,2,,,,,,,,,1,,,56,92
12480,note_on,192,0,2,,,,,,,,,1,,,57,0
12480,note_on,0,0,2,,,,,,,,,1,,,52,92
12528,note_on,48,0,1,,,,,,,,,0,,,76,0
12640,note_on,0,0,2,,,,,,,,,1,,,56,0
12640,note_on,160,0,2,,,,,,,,,1,,,52,0
12672,note_on,32,0,2,,,,,,,,,1,,,57,45
12672,note_on,144,0,1,,,,,,,,,0,,,73,45
12768,note_on,96,0,1,,,,,,,,,0,,,73,0
12768,note_on,0,0,1,,,,,,,,,0,,,69,45
12864,note_on,96,0,1,,,,,,,,,0,,,69,0
12864,note_on,0,0,2,,,,,,,,,1,,,54,45
12864,note_on,192,0,2,,,,,,,,,1,,,57,0
12864,note_on,0,0,2,,,,,,,,,1,,,57,45
12864,note_on,0,0,1,,,,,,,,,0,,,73,45
12960,note_on,96,0,1,,,,,,,,,0,,,73,0
12960,note_on,0,0,1,,,,,,,,,0,,,69,45
13024,note_on,0,0,2,,,,,,,,,1,,,57,0
13024,note_on,160,0,2,,,,,,,,,1,,,54,0
13054,note_on,94,0,1,,,,,,,,,0,,,69,0
13056,note_on,32,0,2,,,,,,,,,1,,,50,92
13056,note_on,2,0,1,,,,,,,,,0,,,66,92
13056,note_on,0,0,1,,,,,,,,,0,,,76,92
13152,note_on,0,0,1,,,,,,,,,0,,,71,92
13152,note_on,0,0,1,,,,,,,,,0,,,76,0
13152,note_on,96,0,1,,,,,,,,,0,,,66,0
13152,note_on,0,0,1,,,,,,,,,0,,,74,92
13216,note_on,160,0,2,,,,,,,,,1,,,50,0
13246,note_on,0,0,1,,,,,,,,,0,,,74,0
13246,note_on,94,0,1,,,,,,,,,0,,,71,0
13248,note_on,0,0,1,,,,,,,,,0,,,73,92
13248,note_on,2,0,1,,,,,,,,,0,,,69,92
13248,note_on,32,0,2,,,,,,,,,1,,,52,92
13344,note_on,0,0,2,,,,,,,,,1,,,54,92
13344,note_on,96,0,2,,,,,,,,,1,,,52,0
13440,note_on,0,0,2,,,,,,,,,1,,,56,92
13440,note_on,96,0,2,,,,,,,,,1,,,54,0
13536,note_on,96,0,2,,,,,,,,,1,,,56,0
13536,note_on,0,0,2,,,,,,,,,1,,,57,92
13632,note_on,96,0,2,,,,,,,,,1,,,57,0
13632,note_on,0,0,2,,,,,,,,,1,,,59,92
13728,note_on,0,0,2,,,,,,,,,1,,,61,92
13728,note_on,96,0,2,,,,,,,,,1,,,59,0
13822,note_on,94,0,2,,,,,,,,,1,,,61,0
13824,note_on,0,0,1,,,,,,,,,0,,,73,0
13824,note_on,0,0,1,,,,,,,,,0,,,68,92
13824,note_on,2,0,2,,,,,,,,,1,,,62,92
13824,note_on,576,0,1,,,,,,,,,0,,,69,0
13824,note_on,0,0,1,,,,,,,,,0,,,71,92
13918,note_on,94,0,1,,,,,,,,,0,,,68,0
13918,note_on,0,0,1,,,,,,,,,0,,,71,0
13918,note_on,94,0,2,,,,,,,,,1,,,62,0
13920,note_on,2,0,1,,,,,,,,,0,,,73,94
13920,note_on,2,0,2,,,,,,,,,1,,,57,94
14014,note_on,94,0,1,,,,,,,,,0,,,73,0
14016,note_on,2,0,1,,,,,,,,,0,,,74,96
14016,note_on,0,0,2,,,,,,,,,1,,,59,96
14016,note_on,96,0,2,,,,,,,,,1,,,57,0
14110,note_on,94,0,1,,,,,,,,,0,,,74,0
14112,note_on,0,0,2,,,,,,,,,1,,,61,99
14112,note_on,96,0,2,,,,,,,,,1,,,59,0
14112,note_on,2,0,1,,,,,,,,,0,,,76,99
14206,note_on,94,0,1,,,,,,,,,0,,,76,0
14208,note_on,2,0,1,,,,,,,,,0,,,78,102
14208,note_on,96,0,2,,,,,,,,,1,,,61,0
14208,note_on,0,0,2,,,,,,,,,1,,,62,102
14302,note_on,94,0,2,,,,,,,,,1,,,62,0
14302,note_on,94,0,1,,,,,,,,,0,,,78,0
14304,note_on,2,0,1,,,,,,,,,0,,,80,105
14304,note_on,2,0,2,,,,,,,,,1,,,59,105
14398,note_on,94,0,1,,,,,,,,,0,,,80,0
14398,note_on,94,0,2,,,,,,,,,1,,,59,0
14400,note_on,2,0,2,,,,,,,,,1,,,61,108
14400,note_on,2,0,1,,,,,,,,,0,,,81,108
14560,note_on,160,0,1,,,,,,,,,0,,,81,0
14560,note_on,160,0,2,,,,,,,,,1,,,61,0
14592,note_on,32,0,1,,,,,,,,,0,,,64,108
14592,note_on,0,0,1,,,,,,,,,0,,,74,108
14592,note_on,32,0,2,,,,,,,,,1,,,56,108
14640,note_on,48,0,2,,,,,,,,,1,,,56,0
14640,note_on,0,0,1,,,,,,,,,0,,,74,0
14640,note_on,48,0,1,,,,,,,,,0,,,64,0
14928,note_on,288,0,2,,,,,,,,,1,,,57,45
14928,note_on,288,0,1,,,,,,,,,0,,,64,45
14928,note_on,0,0,1,,,,,,,,,0,,,73,45
14974,note_on,46,0,2,,,,,,,,,1,,,57,0
14974,note_on,0,0,1,,,,,,,,,0,,,73,0
14974,note_on,46,0,1,,,,,,,,,0,,,64,0
14976,note_on,2,0,2,,,,,,,,,1,,,50,45
14976,note_on,0,0,1,,,,,,,,,0,,,73,45
14976,note_on,2,0,1,,,,,,,,,0,,,64,45
15072,note_on,0,0,1,,,,,,,,,0,,,71,45
15072,note_on,0,0,1,,,,,,,,,0,,,62,45
15072,note_on,0,0,1,,,,,,,,,0,,,73,0
15072,note_on,96,0,1,,,,,,,,,0,,,64,0
15168,note_on,192,0,2,,,,,,,,,1,,,50,0
15168,note_on,0,0,1,,,,,,,,,0,,,69,45
15168,note_on,0,0,1,,,,,,,,,0,,,61,45
15168,note_on,0,0,1,,,,,,,,,0,,,71,0
15168,note_on,96,0,1,,,,,,,,,0,,,62,0
15168,note_on,0,0,2,,,,,,,,,1,,,52,45
15216,note_on,48,0,1,,,,,,,,,0,,,61,0
15216,note_on,48,0,2,,,,,,,,,1,,,52,0
15216,note_on,0,0,1,,,,,,,,,0,,,69,0
15360,note_on,144,0,1,,,,,,,,,0,,,59,45
15360,note_on,0,0,1,,,,,,,,,0,,,68,45
15360,note_on,144,0,2,,,,,,,,,1,,,52,45
15408,note_on,48,0,2,,,,,,,,,1,,,52,0
15408,note_on,48,0,1,,,,,,,,,0,,,59,0
15408,note_on,0,0,1,,,,,,,,,0,,,68,0
15552,note_on,144,0,2,,,,,,,,,1,,,57,45
15552,note_on,144,0,1,,,,,,,,,0,,,61,45
15552,note_on,0,0,1,,,,,,,,,0,,,69,45
15712,note_on,160,0,2,,,,,,,,,1,,,57,0
15744,note_on,32,0,2,,,,,,,,,1,,,52,45
15888,note_on,0,0,1,,,,,,,,,0,,,69,0
15888,note_on,336,0,1,,,,,,,,,0,,,61,0
15904,note_on,160,0,2,,,,,,,,,1,,,52,0
15936,note_on,32,0,2,,,,,,,,,1,,,45,45
16096,note_on,160,0,2,,,,,,,,,1,,,45,0
16128,note_on,240,0,1,,,,,,,,,0,,,68,45
16128,note_on,0,0,1,,,,,,,,,0,,,71,45
16224,note_on,96,0,1,,,,,,,,,0,,,68,0
16224,note_on,0,0,1,,,,,,,,,0,,,71,0
16224,note_on,0,0,1,,,,,,,,,0,,,64,45
16320,note_on,96,0,1,,,,,,,,,0,,,64,0
16320,note_on,0,0,1,,,,,,,,,0,,,71,45
16320,note_on,0,0,1,,,,,,,,,0,,,68,45
16416,note_on,96,0,1,,,,,,,,,0,,,68,0
16416,note_on,0,0,1,,,,,,,,,0,,,71,0
16416,note_on,0,0,1,,,,,,,,,0,,,64,45
16510,note_on,94,0,1,,,,,,,,,0,,,64,0
16512,note_on,2,0,1,,,,,,,,,0,,,69,45
16512,note_on,0,0,1,,,,,,,,,0,,,73,45
16608,note_on,0,0,1,,,,,,,,,0,,,64,45
16608,note_on,0,0,1,,,,,,,,,0,,,73,0
16608,note_on,96,0,1,,,,,,,,,0,,,69,0
16702,note_on,94,0,1,,,,,,,,,0,,,64,0
16704,note_on,2,0,1,,,,,,,,,0,,,73,45
16704,note_on,0,0,1,,,,,,,,,0,,,76,45
16704,note_on,608,0,2,,,,,,,,,1,,,52,45
16800,note_on,96,0,2,,,,,,,,,1,,,52,0
16800,note_on,0,0,2,,,,,,,,,1,,,54,45
16896,note_on,0,0,2,,,,,,,,,1,,,56,45
16896,note_on,192,0,1,,,,,,,,,0,,,73,0
16896,note_on,0,0,1,,,,,,,,,0,,,76,0
16896,note_on,0,0,1,,,,,,,,,0,,,71,45
16896,note_on,0,0,1,,,,,,,,,0,,,74,45
16896,note_on,96,0,2,,,,,,,,,1,,,54,0
16992,note_on,96,0,2,,,,,,,,,1,,,56,0
16992,note_on,0,0,2,,,,,,,,,1,,,54,45
17056,note_on,0,0,1,,,,,,,,,0,,,74,0
17056,note_on,160,0,1,,,,,,,,,0,,,71,0
17088,note_on,96,0,2,,,,,,,,,1,,,54,0
17088,note_on,0,0,2,,,,,,,,,1,,,56,45
17184,note_on,96,0,2,,,,,,,,,1,,,56,0
17184,note_on,0,0,2,,,,,,,,,1,,,52,45
17278,note_on,94,0,2,,,,,,,,,1,,,52,0
17280,note_on,2,0,2,,,,,,,,,1,,,57,45
17280,note_on,224,0,1,,,,,,,,,0,,,73,45
17376,note_on,96,0,1,,,,,,,,,0,,,73,0
17376,note_on,0,0,1,,,,,,,,,0,,,74,45
17376,note_on,96,0,2,,,,,,,,,1,,,57,0
17376,note_on,0,0,2,,,,,,,,,1,,,59,45
17472,note_on,96,0,2,,,,,,,,,1,,,59,0
17472,note_on,0,0,2,,,,,,,,,1,,,60,45
17472,note_on,0,0,1,,,,,,,,,0,,,75,45
17472,note_on,96,0,1,,,,,,,,,0,,,74,0
17568,note_on,96,0,1,,,,,,,,,0,,,75,0
17568,note_on,0,0,2,,,,,,,,,1,,,61,45
17568,note_on,96,0,2,,,,,,,,,1,,,60,0
17568,note_on,0,0,1,,,,,,,,,0,,,76,45
17664,note_on,0,0,2,,,,,,,,,1,,,59,45
17664,note_on,96,0,2,,,,,,,,,1,,,61,0
17664,note_on,0,0,1,,,,,,,,,0,,,74,45
17664,note_on,96,0,1,,,,,,,,,0,,,76,0
17760,note_on,0,0,1,,,,,,,,,0,,,73,45
17760,note_on,96,0,2,,,,,,,,,1,,,59,0
17760,note_on,0,0,2,,,,,,,,,1,,,57,45
17760,note_on,96,0,1,,,,,,,,,0,,,74,0
17854,note_on,94,0,1,,,,,,,,,0,,,73,0
17854,note_on,94,0,2,,,,,,,,,1,,,57,0
17856,note_on,2,0,1,,,,,,,,,0,,,73,45
17856,note_on,0,0,1,,,,,,,,,0,,,76,45
17856,note_on,2,0,2,,,,,,,,,1,,,64,45
17952,note_on,96,0,2,,,,,,,,,1,,,64,0
17952,note_on,0,0,2,,,,,,,,,1,,,63,45
18000,note_on,0,0,1,,,,,,,,,0,,,76,0
18000,note_on,0,0,1,,,,,,,,,0,,,73,45
18000,note_on,0,0,1,,,,,,,,,0,,,69,45
18000,note_on,144,0,1,,,,,,,,,0,,,73,0
18048,note_on,0,0,1,,,,,,,,,0,,,73,0
18048,note_on,0,0,1,,,,,,,,,0,,,68,45
18048,note_on,0,0,1,,,,,,,,,0,,,71,45
18048,note_on,96,0,2,,,,,,,,,1,,,63,0
18048,note_on,0,0,2,,,,,,,,,1,,,64,45
18048,note_on,48,0,1,,,,,,,,,0,,,69,0
18144,note_on,0,0,2,,,,,,,,,1,,,66,45
18144,note_on,96,0,2,,,,,,,,,1,,,64,0
18208,note_on,0,0,1,,,,,,,,,0,,,71,0
18208,note_on,160,0,1,,,,,,,,,0,,,68,0
18240,note_on,0,0,2,,,,,,,,,1,,,62,45
18240,note_on,96,0,2,,,,,,,,,1,,,66,0
18336,note_on,0,0,2,,,,,,,,,1,,,59,45
18336,note_on,96,0,2,,,,,,,,,1,,,62,0
18430,note_on,94,0,2,,,,,,,,,1,,,59,0
18432,note_on,0,0,2,,,,,,,,,1,,,61,45
18432,note_on,224,0,1,,,,,,,,,0,,,76,45
18432,note_on,2,0,2,,,,,,,,,1,,,57,45
18528,note_on,0,0,1,,,,,,,,,0,,,73,45
18528,note_on,96,0,1,,,,,,,,,0,,,76,0
18624,note_on,0,0,2,,,,,,,,,1,,,61,0
18624,note_on,192,0,2,,,,,,,,,1,,,57,0
18624,note_on,0,0,1,,,,,,,,,0,,,76,45
18624,note_on,96,0,1,,,,,,,,,0,,,73,0
18624,note_on,0,0,2,,,,,,,,,1,,,59,45
18720,note_on,0,0,1,,,,,,,,,0,,,73,45
18720,note_on,96,0,1,,,,,,,,,0,,,76,0
18814,note_on,94,0,1,,,,,,,,,0,,,73,0
18816,note_on,0,0,2,,,,,,,,,1,,,54,92
18816,note_on,192,0,2,,,,,,,,,1,,,59,0
18816,note_on,0,0,2,,,,,,,,,1,,,58,92
18816,note_on,2,0,1,,,,,,,,,0,,,78,92
18864,note_on,48,0,1,,,,,,,,,0,,,78,0
18976,note_on,0,0,2,,,,,,,,,1,,,58,0
18976,note_on,160,0,2,,,,,,,,,1,,,54,0
19008,note_on,144,0,1,,,,,,,,,0,,,74,45
19008,note_on,32,0,2,,,,,,,,,1,,,59,45
19104,note_on,96,0,1,,,,,,,,,0,,,74,0
19104,note_on,0,0,1,,,,,,,,,0,,,71,45
19200,note_on,96,0,1,,,,,,,,,0,,,71,0
19200,note_on,0,0,1,,,,,,,,,0,,,74,45
19200,note_on,192,0,2,,,,,,,,,1,,,59,0
19200,note_on,0,0,2,,,,,,,,,1,,,57,45
19296,note_on,0,0,1,,,,,,,,,0,,,71,45
19296,note_on,96,0,1,,,,,,,,,0,,,74,0
19390,note_on,94,0,1,,,,,,,,,0,,,71,0
19392,note_on,2,0,1,,,,,,,,,0,,,76,92
19392,note_on,192,0,2,,,,,,,,,1,,,57,0
19392,note_on,0,0,2,,,,,,,,,1,,,56,92
19392,note_on,0,0,2,,,,,,,,,1,,,52,92
19440,note_on,48,0,1,,,,,,,,,0,,,76,0
19552,note_on,0,0,2,,,,,,,,,1,,,56,0
19552,note_on,160,0,2,,,,,,,,,1,,,52,0
19584,note_on,144,0,1,,,,,,,,,0,,,73,45
19584,note_on,32,0,2,,,,,,,,,1,,,57,45
19680,note_on,96,0,1,,,,,,,,,0,,,73,0
19680,note_on,0,0,1,,,,,,,,,0,,,69,45
19776,note_on,0,0,2,,,,,,,,,1,,,54,45
19776,note_on,192,0,2,,,,,,,,,1,,,57,0
19776,note_on,0,0,1,,,,,,,,,0,,,73,45
19776,note_on,96,0,1,,,,,,,,,0,,,69,0
19776,note_on,0,0,2,,,,,,,,,1,,,57,45
19872,note_on,0,0,1,,,,,,,,,0,,,69,45
19872,note_on,96,0,1,,,,,,,,,0,,,73,0
19936,note_on,0,0,2,,,,,,,,,1,,,57,0
19936,note_on,160,0,2,,,,,,,,,1,,,54,0
19966,note_on,94,0,1,,,,,,,,,0,,,69,0
19968,note_on,0,0,1,,,,,,,,,0,,,76,92
19968,note_on,2,0,1,,,,,,,,,0,,,66,92
19968,note_on,32,0,2,,,,,,,,,1,,,50,92
20064,note_on,0,0,1,,,,,,,,,0,,,76,0
20064,note_on,0,0,1,,,,,,,,,0,,,71,92
20064,note_on,0,0,1,,,,,,,,,0,,,74,92
20064,note_on,96,0,1,,,,,,,,,0,,,66,0
20128,note_on,160,0,2,,,,,,,,,1,,,50,0
20158,note_on,0,0,1,,,,,,,,,0,,,74,0
20158,note_on,94,0,1,,,,,,,,,0,,,71,0
20160,note_on,2,0,1,,,,,,,,,0,,,69,92
20160,note_on,0,0,1,,,,,,,,,0,,,73,92
20160,note_on,32,0,2,,,,,,,,,1,,,52,92
20256,note_on,0,0,2,,,,,,,,,1,,,54,92
20256,note_on,96,0,2,,,,,,,,,1,,,52,0
20352,note_on,0,0,2,,,,,,,,,1,,,56,92
20352,note_on,96,0,2,,,,,,,,,1,,,54,0
20448,note_on,96,0,2,,,,,,,,,1,,,56,0
20448,note_on,0,0,2,,,,,,,,,1,,,57,92
20544,note_on,96,0,2,,,,,,,,,1,,,57,0
20544,note_on,0,0,2,,,,,,,,,1,,,59,92
20640,note_on,0,0,2,,,,,,,,,1,,,61,92
20640,note_on,96,0,2,,,,,,,,,1,,,59,0
20734,note_on,94,0,2,,,,,,,,,1,,,61,0
20736,note_on,0,0,1,,,,,,,,,0,,,73,0
20736,note_on,0,0,1,,,,,,,,,0,,,71,92
20736,note_on,2,0,2,,,,,,,,,1,,,62,92
20736,note_on,576,0,1,,,,,,,,,0,,,69,0
20736,note_on,0,0,1,,,,,,,,,0,,,68,92
20830,note_on,94,0,1,,,,,,,,,0,,,68,0
20830,note_on,0,0,1,,,,,,,,,0,,,71,0
20830,note_on,94,0,2,,,,,,,,,1,,,62,0
20832,note_on,2,0,1,,,,,,,,,0,,,73,94
20832,note_on,2,0,2,,,,,,,,,1,,,57,94
20926,note_on,94,0,1,,,,,,,,,0,,,73,0
20928,note_on,0,0,2,,,,,,,,,1,,,59,96
20928,note_on,96,0,2,,,,,,,,,1,,,57,0
20928,note_on,2,0,1,,,,,,,,,0,,,74,96
21022,note_on,94,0,1,,,,,,,,,0,,,74,0
21024,note_on,2,0,1,,,,,,,,,0,,,76,99
21024,note_on,0,0,2,,,,,,,,,1,,,61,99
21024,note_on,96,0,2,,,,,,,,,1,,,59,0
21118,note_on,94,0,1,,,,,,,,,0,,,76,0
21120,note_on,2,0,1,,,,,,,,,0,,,78,102
21120,note_on,0,0,2,,,,,,,,,1,,,62,102
21120,note_on,96,0,2,,,,,,,,,1,,,61,0
21214,note_on,94,0,1,,,,,,,,,0,,,78,0
21214,note_on,94,0,2,,,,,,,,,1,,,62,0
21216,note_on,2,0,2,,,,,,,,,1,,,59,105
21216,note_on,2,0,1,,,,,,,,,0,,,80,105
21310,note_on,94,0,2,,,,,,,,,1,,,59,0
21310,note_on,94,0,1,,,,,,,,,0,,,80,0
21312,note_on,2,0,2,,,,,,,,,1,,,61,108
21312,note_on,2,0,1,,,,,,,,,0,,,81,108
21472,note_on,160,0,2,,,,,,,,,1,,,61,0
21472,note_on,160,0,1,,,,,,,,,0,,,81,0
21504,note_on,32,0,2,,,,,,,,,1,,,56,108
21504,note_on,0,0,1,,,,,,,,,0,,,74,108
21504,note_on,32,0,1,,,,,,,,,0,,,64,108
21552,note_on,48,0,2,,,,,,,,,1,,,56,0
21552,note_on,0,0,1,,,,,,,,,0,,,74,0
21552,note_on,48,0,1,,,,,,,,,0,,,64,0
21840,note_on,288,0,1,,,,,,,,,0,,,64,45
21840,note_on,288,0,2,,,,,,,,,1,,,57,45
21840,note_on,0,0,1,,,,,,,,,0,,,73,45
21886,note_on,0,0,1,,,,,,,,,0,,,73,0
21886,note_on,46,0,1,,,,,,,,,0,,,64,0
21886,note_on,46,0,2,,,,,,,,,1,,,57,0
21888,note_on,2,0,2,,,,,,,,,1,,,50,45
21888,note_on,2,0,1,,,,,,,,,0,,,64,45
21888,note_on,0,0,1,,,,,,,,,0,,,73,45
21984,note_on,96,0,1,,,,,,,,,0,,,64,0
21984,note_on,0,0,1,,,,,,,,,0,,,73,0
21984,note_on,0,0,1,,,,,,,,,0,,,62,45
21984,note_on,0,0,1,,,,,,,,,0,,,71,45
22080,note_on,96,0,1,,,,,,,,,0,,,62,0
22080,note_on,0,0,1,,,,,,,,,0,,,71,0
22080,note_on,0,0,1,,,,,,,,,0,,,61,45
22080,note_on,0,0,1,,,,,,,,,0,,,69,45
22080,note_on,192,0,2,,,,,,,,,1,,,50,0
22080,note_on,0,0,2,,,,,,,,,1,,,52,45
22128,note_on,48,0,2,,,,,,,,,1,,,52,0
22128,note_on,48,0,1,,,,,,,,,0,,,61,0
22128,note_on,0,0,1,,,,,,,,,0,,,69,0
22272,note_on,144,0,2,,,,,,,,,1,,,52,45
22272,note_on,0,0,1,,,,,,,,,0,,,68,45
22272,note_on,144,0,1,,,,,,,,,0,,,59,45
22320,note_on,0,0,1,,,,,,,,,0,,,68,0
22320,note_on,48,0,2,,,,,,,,,1,,,52,0
22320,note_on,48,0,1,,,,,,,,,0,,,59,0
22464,note_on,144,0,2,,,,,,,,,1,,,57,45
22464,note_on,0,0,1,,,,,,,,,0,,,69,45
22464,note_on,144,0,1,,,,,,,,,0,,,61,45
22624,note_on,160,0,2,,,,,,,,,1,,,57,0
22656,note_on,32,0,2,,,,,,,,,1,,,52,45
22800,note_on,336,0,1,,,,,,,,,0,,,61,0
22800,note_on,0,0,1,,,,,,,,,0,,,69,0
22816,note_on,160,0,2,,,,,,,,,1,,,52,0
22848,note_on,32,0,2,,,,,,,,,1,,,45,45
23008,note_on,160,0,2,,,,,,,,,1,,,45,0
23040,note_on,240,0,1,,,,,,,,,0,,,69,45
23040,key_signature,18432,1,0,,D,,,,,,,,,,,
23200,note_on,160,0,1,,,,,,,,,0,,,69,0
23232,note_on,32,0,1,,,,,,,,,0,,,81,45
23424,note_on,192,0,1,,,,,,,,,0,,,81,0
23424,note_on,0,0,1,,,,,,,,,0,,,78,45
23584,note_on,160,0,1,,,,,,,,,0,,,78,0
23616,note_on,32,0,1,,,,,,,,,0,,,76,45
23616,note_on,608,0,2,,,,,,,,,1,,,50,45
23680,note_on,64,0,2,,,,,,,,,1,,,50,0
23680,note_on,0,0,2,,,,,,,,,1,,,54,45
23680,note_on,0,0,1,,,,,,,,,0,,,74,45
23680,note_on,64,0,1,,,,,,,,,0,,,76,0
23744,note_on,0,0,2,,,,,,,,,1,,,57,45
23744,note_on,64,0,2,,,,,,,,,1,,,54,0
23806,note_on,62,0,2,,,,,,,,,1,,,57,0
23806,note_on,126,0,1,,,,,,,,,0,,,74,0
23808,note_on,2,0,1,,,,,,,,,0,,,74,45
23808,note_on,2,0,2,,,,,,,,,1,,,62,45
23850,note_on,42,0,2,,,,,,,,,1,,,62,0
23856,note_on,48,0,1,,,,,,,,,0,,,74,0
23872,note_on,22,0,2,,,,,,,,,1,,,57,45
23914,note_on,42,0,2,,,,,,,,,1,,,57,0
23936,note_on,22,0,2,,,,,,,,,1,,,54,45
23978,note_on,42,0,2,,,,,,,,,1,,,54,0
24000,note_on,22,0,2,,,,,,,,,1,,,50,45
24042,note_on,42,0,2,,,,,,,,,1,,,50,0
24064,note_on,22,0,2,,,,,,,,,1,,,54,45
24106,note_on,42,0,2,,,,,,,,,1,,,54,0
24128,note_on,22,0,2,,,,,,,,,1,,,57,45
24144,note_on,288,0,1,,,,,,,,,0,,,74,45
24170,note_on,42,0,2,,,,,,,,,1,,,57,0
24190,note_on,46,0,1,,,,,,,,,0,,,74,0
24192,note_on,22,0,2,,,,,,,,,1,,,52,45
24192,note_on,2,0,1,,,,,,,,,0,,,79,45
24256,note_on,64,0,2,,,,,,,,,1,,,52,0
24256,note_on,0,0,2,,,,,,,,,1,,,55,45
24320,note_on,64,0,2,,,,,,,,,1,,,55,0
24320,note_on,0,0,2,,,,,,,,,1,,,57,45
24382,note_on,62,0,2,,,,,,,,,1,,,57,0
24384,note_on,2,0,2,,,,,,,,,1,,,61,45
24426,note_on,42,0,2,,,,,,,,,1,,,61,0
24448,note_on,22,0,2,,,,,,,,,1,,,57,45
24490,note_on,42,0,2,,,,,,,,,1,,,57,0
24512,note_on,22,0,2,,,,,,,,,1,,,55,45
24554,note_on,42,0,2,,,,,,,,,1,,,55,0
24576,note_on,0,0,1,,,,,,,,,0,,,73,45
24576,note_on,22,0,2,,,,,,,,,1,,,52,45
24576,note_on,384,0,1,,,,,,,,,0,,,79,0
24618,note_on,42,0,2,,,,,,,,,1,,,52,0
24640,note_on,22,0,2,,,,,,,,,1,,,55,45
24682,note_on,42,0,2,,,,,,,,,1,,,55,0
24704,note_on,22,0,2,,,,,,,,,1,,,57,45
24736,note_on,160,0,1,,,,,,,,,0,,,73,0
24746,note_on,42,0,2,,,,,,,,,1,,,57,0
24768,note_on,32,0,1,,,,,,,,,0,,,76,45
24768,note_on,22,0,2,,,,,,,,,1,,,50,45
24832,note_on,64,0,1,,,,,,,,,0,,,76,0
24832,note_on,0,0,1,,,,,,,,,0,,,74,45
24832,note_on,64,0,2,,,,,,,,,1,,,50,0
24832,note_on,0,0,2,,,,,,,,,1,,,54,45
24896,note_on,64,0,2,,,,,,,,,1,,,54,0
24896,note_on,0,0,2,,,,,,,,,1,,,57,45
24958,note_on,126,0,1,,,,,,,,,0,,,74,0
24958,note_on,62,0,2,,,,,,,,,1,,,57,0
24960,note_on,2,0,2,,,,,,,,,1,,,62,45
24960,note_on,2,0,1,,,,,,,,,0,,,74,45
25002,note_on,42,0,2,,,,,,,,,1,,,62,0
25008,note_on,48,0,1,,,,,,,,,0,,,74,0
25024,note_on,22,0,2,,,,,,,,,1,,,57,45
25066,note_on,42,0,2,,,,,,,,,1,,,57,0
25088,note_on,22,0,2,,,,,,,,,1,,,54,45
25130,note_on,42,0,2,,,,,,,,,1,,,54,0
25152,note_on,22,0,2,,,,,,,,,1,,,50,45
25194,note_on,42,0,2,,,,,,,,,1,,,50,0
25216,note_on,22,0,2,,,,,,,,,1,,,54,45
25258,note_on,42,0,2,,,,,,,,,1,,,54,0
25280,note_on,22,0,2,,,,,,,,,1,,,57,45
25296,note_on,288,0,1,,,,,,,,,0,,,74,45
25322,note_on,42,0,2,,,,,,,,,1,,,57,0
25342,note_on,46,0,1,,,,,,,,,0,,,74,0
25344,note_on,2,0,1,,,,,,,,,0,,,79,45
25344,note_on,22,0,2,,,,,,,,,1,,,52,45
25408,note_on,0,0,2,,,,,,,,,1,,,55,45
25408,note_on,64,0,2,,,,,,,,,1,,,52,0
25472,note_on,0,0,2,,,,,,,,,1,,,57,45
25472,note_on,64,0,2,,,,,,,,,1,,,55,0
25534,note_on,62,0,2,,,,,,,,,1,,,57,0
25536,note_on,2,0,2,,,,,,,,,1,,,61,45
25578,note_on,42,0,2,,,,,,,,,1,,,61,0
25600,note_on,22,0,2,,,,,,,,,1,,,57,45
25642,note_on,42,0,2,,,,,,,,,1,,,57,0
25664,note_on,22,0,2,,,,,,,,,1,,,55,45
25706,note_on,42,0,2,,,,,,,,,1,,,55,0
25728,note_on,384,0,1,,,,,,,,,0,,,79,0
25728,note_on,0,0,1,,,,,,,,,0,,,73,45
25728,note_on,22,0,2,,,,,,,,,1,,,52,45
25770,note_on,42,0,2,,,,,,,,,1,,,52,0
25792,note_on,22,0,2,,,,,,,,,1,,,55,45
25834,note_on,42,0,2,,,,,,,,,1,,,55,0
25856,note_on,22,0,2,,,,,,,,,1,,,57,45
25888,note_on,160,0,1,,,,,,,,,0,,,73,0
25898,note_on,42,0,2,,,,,,,,,1,,,57,0
25920,note_on,22,0,2,,,,,,,,,1,,,54,45
25920,note_on,32,0,1,,,,,,,,,0,,,74,45
26016,note_on,96,0,1,,,,,,,,,0,,,74,0
26016,note_on,0,0,1,,,,,,,,,0,,,78,45
26080,note_on,160,0,2,,,,,,,,,1,,,54,0
26112,note_on,96,0,1,,,,,,,,,0,,,78,0
26112,note_on,0,0,1,,,,,,,,,0,,,76,45
26208,note_on,96,0,1,,,,,,,,,0,,,76,0
26208,note_on,0,0,1,,,,,,,,,0,,,74,45
26304,note_on,0,0,1,,,,,,,,,0,,,73,45
26304,note_on,224,0,2,,,,,,,,,1,,,55,45
26304,note_on,96,0,1,,,,,,,,,0,,,74,0
26400,note_on,0,0,1,,,,,,,,,0,,,71,45
26400,note_on,96,0,1,,,,,,,,,0,,,73,0
26464,note_on,160,0,2,,,,,,,,,1,,,55,0
26494,note_on,94,0,1,,,,,,,,,0,,,71,0
26496,note_on,2,0,1,,,,,,,,,0,,,69,45
26496,note_on,32,0,2,,,,,,,,,1,,,54,45
26688,note_on,0,0,1,,,,,,,,,0,,,67,45
26688,note_on,0,0,1,,,,,,,,,0,,,64,45
26688,note_on,192,0,1,,,,,,,,,0,,,69,0
26688,note_on,0,0,2,,,,,,,,,1,,,49,45
26688,note_on,192,0,2,,,,,,,,,1,,,54,0
26880,note_on,0,0,2,,,,,,,,,1,,,50,45
26880,note_on,192,0,2,,,,,,,,,1,,,49,0
26880,note_on,192,0,1,,,,,,,,,0,,,64,0
26880,note_on,0,0,1,,,,,,,,,0,,,67,0
26880,note_on,0,0,1,,,,,,,,,0,,,66,45
26880,note_on,0,0,1,,,,,,,,,0,,,62,45
27040,note_on,160,0,1,,,,,,,,,0,,,62,0
27040,note_on,0,0,1,,,,,,,,,0,,,66,0
27040,note_on,160,0,2,,,,,,,,,1,,,50,0
27072,note_on,32,0,2,,,,,,,,,1,,,45,45
27072,note_on,0,0,1,,,,,,,,,0,,,66,45
27072,note_on,32,0,1,,,,,,,,,0,,,62,45
27120,note_on,48,0,2,,,,,,,,,1,,,45,0
27264,note_on,144,0,2,,,,,,,,,1,,,57,45
27264,note_on,192,0,1,,,,,,,,,0,,,62,0
27264,note_on,0,0,1,,,,,,,,,0,,,66,0
27264,note_on,0,0,1,,,,,,,,,0,,,61,45
27264,note_on,0,0,1,,,,,,,,,0,,,64,45
27312,note_on,48,0,2,,,,,,,,,1,,,57,0
27424,note_on,160,0,1,,,,,,,,,0,,,61,0
27424,note_on,0,0,1,,,,,,,,,0,,,64,0
27648,note_on,224,0,1,,,,,,,,,0,,,69,45
27808,note_on,160,0,1,,,,,,,,,0,,,69,0
27840,note_on,32,0,1,,,,,,,,,0,,,81,45
28032,note_on,0,0,1,,,,,,,,,0,,,78,45
28032,note_on,192,0,1,,,,,,,,,0,,,81,0
28192,note_on,160,0,1,,,,,,,,,0,,,78,0
28224,note_on,32,0,1,,,,,,,,,0,,,76,45
28224,note_on,912,0,2,,,,,,,,,1,,,50,45
28288,note_on,64,0,2,,,,,,,,,1,,,50,0
28288,note_on,0,0,1,,,,,,,,,0,,,74,45
28288,note_on,64,0,1,,,,,,,,,0,,,76,0
28288,note_on,0,0,2,,,,,,,,,1,,,54,45
28352,note_on,0,0,2,,,,,,,,,1,,,57,45
28352,note_on,64,0,2,,,,,,,,,1,,,54,0
28414,note_on,62,0,2,,,,,,,,,1,,,57,0
28414,note_on,126,0,1,,,,,,,,,0,,,74,0
28416,note_on,2,0,1,,,,,,,,,0,,,74,45
28416,note_on,2,0,2,,,,,,,,,1,,,62,45
28458,note_on,42,0,2,,,,,,,,,1,,,62,0
28464,note_on,48,0,1,,,,,,,,,0,,,74,0
28480,note_on,22,0,2,,,,,,,,,1,,,57,45
28522,note_on,42,0,2,,,,,,,,,1,,,57,0
28544,note_on,22,0,2,,,,,,,,,1,,,54,45
28586,note_on,42,0,2,,,,,,,,,1,,,54,0
28608,note_on,22,0,2,,,,,,,,,1,,,50,45
28650,note_on,42,0,2,,,,,,,,,1,,,50,0
28672,note_on,22,0,2,,,,,,,,,1,,,54,45
28714,note_on,42,0,2,,,,,,,,,1,,,54,0
28736,note_on,22,0,2,,,,,,,,,1,,,57,45
28752,note_on,288,0,1,,,,,,,,,0,,,74,45
28778,note_on,42,0,2,,,,,,,,,1,,,57,0
28798,note_on,46,0,1,,,,,,,,,0,,,74,0
28800,note_on,22,0,2,,,,,,,,,1,,,52,45
28800,note_on,2,0,1,,,,,,,,,0,,,79,45
28864,note_on,0,0,2,,,,,,,,,1,,,55,45
28864,note_on,64,0,2,,,,,,,,,1,,,52,0
28928,note_on,64,0,2,,,,,,,,,1,,,55,0
28928,note_on,0,0,2,,,,,,,,,1,,,57,45
28990,note_on,62,0,2,,,,,,,,,1,,,57,0
28992,note_on,2,0,2,,,,,,,,,1,,,61,45
29034,note_on,42,0,2,,,,,,,,,1,,,61,0
29056,note_on,22,0,2,,,,,,,,,1,,,57,45
29098,note_on,42,0,2,,,,,,,,,1,,,57,0
29120,note_on,22,0,2,,,,,,,,,1,,,55,45
29162,note_on,42,0,2,,,,,,,,,1,,,55,0
29184,note_on,384,0,1,,,,,,,,,0,,,79,0
29184,note_on,22,0,2,,,,,,,,,1,,,52,45
29184,note_on,0,0,1,,,,,,,,,0,,,73,45
29226,note_on,42,0,2,,,,,,,,,1,,,52,0
29248,note_on,22,0,2,,,,,,,,,1,,,55,45
29290,note_on,42,0,2,,,,,,,,,1,,,55,0
29312,note_on,22,0,2,,,,,,,,,1,,,57,45
29344,note_on,160,0,1,,,,,,,,,0,,,73,0
29354,note_on,42,0,2,,,,,,,,,1,,,57,0
29376,note_on,22,0,2,,,,,,,,,1,,,50,45
29376,note_on,32,0,1,,,,,,,,,0,,,76,45
29440,note_on,0,0,1,,,,,,,,,0,,,74,45
29440,note_on,64,0,2,,,,,,,,,1,,,50,0
29440,note_on,0,0,2,,,,,,,,,1,,,54,45
29440,note_on,64,0,1,,,,,,,,,0,,,76,0
29504,note_on,64,0,2,,,,,,,,,1,,,54,0
29504,note_on,0,0,2,,,,,,,,,1,,,57,45
29566,note_on,126,0,1,,,,,,,,,0,,,74,0
29566,note_on,62,0,2,,,,,,,,,1,,,57,0
29568,note_on,2,0,2,,,,,,,,,1,,,62,45
29568,note_on,2,0,1,,,,,,,,,0,,,74,45
29610,note_on,42,0,2,,,,,,,,,1,,,62,0
29616,note_on,48,0,1,,,,,,,,,0,,,74,0
29632,note_on,22,0,2,,,,,,,,,1,,,57,45
29674,note_on,42,0,2,,,,,,,,,1,,,57,0
29696,note_on,22,0,2,,,,,,,,,1,,,54,45
29738,note_on,42,0,2,,,,,,,,,1,,,54,0
29760,note_on,22,0,2,,,,,,,,,1,,,50,45
29802,note_on,42,0,2,,,,,,,,,1,,,50,0
29824,note_on,22,0,2,,,,,,,,,1,,,54,45
29866,note_on,42,0,2,,,,,,,,,1,,,54,0
29888,note_on,22,0,2,,,,,,,,,1,,,57,45
29904,note_on,288,0,1,,,,,,,,,0,,,74,45
29930,note_on,42,0,2,,,,,,,,,1,,,57,0
29950,note_on,46,0,1,,,,,,,,,0,,,74,0
29952,note_on,22,0,2,,,,,,,,,1,,,52,45
29952,note_on,2,0,1,,,,,,,,,0,,,79,45
30016,note_on,64,0,2,,,,,,,,,1,,,52,0
30016,note_on,0,0,2,,,,,,,,,1,,,55,45
30080,note_on,64,0,2,,,,,,,,,1,,,55,0
30080,note_on,0,0,2,,,,,,,,,1,,,57,45
30142,note_on,62,0,2,,,,,,,,,1,,,57,0
30144,note_on,2,0,2,,,,,,,,,1,,,61,45
30186,note_on,42,0,2,,,,,,,,,1,,,61,0
30208,note_on,22,0,2,,,,,,,,,1,,,57,45
30250,note_on,42,0,2,,,,,,,,,1,,,57,0
30272,note_on,22,0,2,,,,,,,,,1,,,55,45
30314,note_on,42,0,2,,,,,,,,,1,,,55,0
30336,note_on,384,0,1,,,,,,,,,0,,,79,0
30336,note_on,0,0,1,,,,,,,,,0,,,73,45
30336,note_on,22,0,2,,,,,,,,,1,,,52,45
30378,note_on,42,0,2,,,,,,,,,1,,,52,0
30400,note_on,22,0,2,,,,,,,,,1,,,55,45
30442,note_on,42,0,2,,,,,,,,,1,,,55,0
30464,note_on,22,0,2,,,,,,,,,1,,,57,45
30496,note_on,160,0,1,,,,,,,,,0,,,73,0
30506,note_on,42,0,2,,,,,,,,,1,,,57,0
30528,note_on,22,0,2,,,,,,,,,1,,,54,45
30528,note_on,32,0,1,,,,,,,,,0,,,74,45
30624,note_on,96,0,1,,,,,,,,,0,,,74,0
30624,note_on,0,0,1,,,,,,,,,0,,,78,45
30688,note_on,160,0,2,,,,,,,,,1,,,54,0
30720,note_on,0,0,1,,,,,,,,,0,,,76,45
30720,note_on,96,0,1,,,,,,,,,0,,,78,0
30816,note_on,96,0,1,,,,,,,,,0,,,76,0
30816,note_on,0,0,1,,,,,,,,,0,,,74,45
30912,note_on,96,0,1,,,,,,,,,0,,,74,0
30912,note_on,224,0,2,,,,,,,,,1,,,55,45
30912,note_on,0,0,1,,,,,,,,,0,,,73,45
31008,note_on,96,0,1,,,,,,,,,0,,,73,0
31008,note_on,0,0,1,,,,,,,,,0,,,71,45
31072,note_on,160,0,2,,,,,,,,,1,,,55,0
31102,note_on,94,0,1,,,,,,,,,0,,,71,0
31104,note_on,2,0,1,,,,,,,,,0,,,69,45
31104,note_on,32,0,2,,,,,,,,,1,,,54,45
31296,note_on,192,0,1,,,,,,,,,0,,,69,0
31296,note_on,0,0,1,,,,,,,,,0,,,64,45
31296,note_on,0,0,1,,,,,,,,,0,,,67,45
31296,note_on,0,0,2,,,,,,,,,1,,,49,45
31296,note_on,192,0,2,,,,,,,,,1,,,54,0
31488,note_on,192,0,1,,,,,,,,,0,,,64,0
31488,note_on,0,0,1,,,,,,,,,0,,,67,0
31488,note_on,0,0,1,,,,,,,,,0,,,62,45
31488,note_on,0,0,1,,,,,,,,,0,,,66,45
31488,note_on,0,0,2,,,,,,,,,1,,,50,45
31488,note_on,192,0,2,,,,,,,,,1,,,49,0
31648,note_on,160,0,1,,,,,,,,,0,,,62,0
31648,note_on,160,0,2,,,,,,,,,1,,,50,0
31648,note_on,0,0,1,,,,,,,,,0,,,66,0
31680,note_on,32,0,2,,,,,,,,,1,,,45,45
31680,note_on,32,0,1,,,,,,,,,0,,,62,45
31680,note_on,0,0,1,,,,,,,,,0,,,66,45
31728,note_on,48,0,2,,,,,,,,,1,,,45,0
31872,note_on,0,0,1,,,,,,,,,0,,,61,45
31872,note_on,0,0,1,,,,,,,,,0,,,66,0
31872,note_on,192,0,1,,,,,,,,,0,,,62,0
31872,note_on,0,0,1,,,,,,,,,0,,,64,45
31872,note_on,144,0,2,,,,,,,,,1,,,57,45
31920,note_on,48,0,2,,,,,,,,,1,,,57,0
32032,note_on,160,0,1,,,,,,,,,0,,,61,0
32032,note_on,0,0,1,,,,,,,,,0,,,64,0
32256,note_on,224,0,1,,,,,,,,,0,,,69,45
32448,note_on,192,0,1,,,,,,,,,0,,,69,0
32448,note_on,0,0,1,,,,,,,,,0,,,73,45
32640,note_on,192,0,1,,,,,,,,,0,,,73,0
32640,note_on,0,0,1,,,,,,,,,0,,,76,60
32800,note_on,160,0,1,,,,,,,,,0,,,76,0
32832,note_on,912,0,2,,,,,,,,,1,,,52,75
32832,note_on,32,0,1,,,,,,,,,0,,,64,75
32896,note_on,64,0,2,,,,,,,,,1,,,52,0
32896,note_on,0,0,2,,,,,,,,,1,,,56,75
32960,note_on,64,0,2,,,,,,,,,1,,,56,0
32960,note_on,0,0,2,,,,,,,,,1,,,59,75
33022,note_on,62,0,2,,,,,,,,,1,,,59,0
33024,note_on,2,0,2,,,,,,,,,1,,,62,75
33066,note_on,42,0,2,,,,,,,,,1,,,62,0
33088,note_on,22,0,2,,,,,,,,,1,,,59,75
33130,note_on,42,0,2,,,,,,,,,1,,,59,0
33152,note_on,22,0,2,,,,,,,,,1,,,56,75
33168,note_on,336,0,1,,,,,,,,,0,,,64,0
33194,note_on,42,0,2,,,,,,,,,1,,,56,0
33216,note_on,22,0,2,,,,,,,,,1,,,52,75
33216,note_on,48,0,1,,,,,,,,,0,,,64,75
33258,note_on,42,0,2,,,,,,,,,1,,,52,0
33280,note_on,22,0,2,,,,,,,,,1,,,59,75
33280,note_on,0,0,1,,,,,,,,,0,,,66,75
33280,note_on,64,0,1,,,,,,,,,0,,,64,0
33322,note_on,42,0,2,,,,,,,,,1,,,59,0
33344,note_on,22,0,2,,,,,,,,,1,,,62,75
33344,note_on,0,0,1,,,,,,,,,0,,,68,75
33344,note_on,64,0,1,,,,,,,,,0,,,66,0
33386,note_on,42,0,2,,,,,,,,,1,,,62,0
33406,note_on,62,0,1,,,,,,,,,0,,,68,0
33408,note_on,22,0,2,,,,,,,,,1,,,52,75
33408,note_on,2,0,1,,,,,,,,,0,,,69,75
33472,note_on,0,0,2,,,,,,,,,1,,,57,75
33472,note_on,64,0,2,,,,,,,,,1,,,52,0
33536,note_on,64,0,2,,,,,,,,,1,,,57,0
33536,note_on,0,0,2,,,,,,,,,1,,,61,75
33598,note_on,62,0,2,,,,,,,,,1,,,61,0
33600,note_on,0,0,1,,,,,,,,,0,,,73,75
33600,note_on,192,0,1,,,,,,,,,0,,,69,0
33600,note_on,2,0,2,,,,,,,,,1,,,64,75
33642,note_on,42,0,2,,,,,,,,,1,,,64,0
33664,note_on,22,0,2,,,,,,,,,1,,,61,75
33706,note_on,42,0,2,,,,,,,,,1,,,61,0
33728,note_on,22,0,2,,,,,,,,,1,,,57,75
33770,note_on,42,0,2,,,,,,,,,1,,,57,0
33792,note_on,192,0,1,,,,,,,,,0,,,73,0
33792,note_on,22,0,2,,,,,,,,,1,,,52,75
33792,note_on,0,0,1,,,,,,,,,0,,,76,75
33834,note_on,42,0,2,,,,,,,,,1,,,52,0
33856,note_on,22,0,2,,,,,,,,,1,,,57,75
33898,note_on,42,0,2,,,,,,,,,1,,,57,0
33920,note_on,22,0,2,,,,,,,,,1,,,61,75
33952,note_on,160,0,1,,,,,,,,,0,,,76,0
33962,note_on,42,0,2,,,,,,,,,1,,,61,0
33984,note_on,22,0,2,,,,,,,,,1,,,52,75
33984,note_on,32,0,1,,,,,,,,,0,,,64,75
34048,note_on,64,0,2,,,,,,,,,1,,,52,0
34048,note_on,0,0,2,,,,,,,,,1,,,56,75
34112,note_on,64,0,2,,,,,,,,,1,,,56,0
34112,note_on,0,0,2,,,,,,,,,1,,,59,75
34174,note_on,62,0,2,,,,,,,,,1,,,59,0
34176,note_on,2,0,2,,,,,,,,,1,,,62,75
34218,note_on,42,0,2,,,,,,,,,1,,,62,0
34240,note_on,22,0,2,,,,,,,,,1,,,59,75
34282,note_on,42,0,2,,,,,,,,,1,,,59,0
34304,note_on,22,0,2,,,,,,,,,1,,,56,75
34320,note_on,336,0,1,,,,,,,,,0,,,64,0
34346,note_on,42,0,2,,,,,,,,,1,,,56,0
34368,note_on,22,0,2,,,,,,,,,1,,,52,75
34368,note_on,48,0,1,,,,,,,,,0,,,64,75
34410,note_on,42,0,2,,,,,,,,,1,,,52,0
34432,note_on,22,0,2,,,,,,,,,1,,,59,75
34432,note_on,0,0,1,,,,,,,,,0,,,66,75
34432,note_on,64,0,1,,,,,,,,,0,,,64,0
34474,note_on,42,0,2,,,,,,,,,1,,,59,0
34496,note_on,64,0,1,,,,,,,,,0,,,66,0
34496,note_on,22,0,2,,,,,,,,,1,,,62,75
34496,note_on,0,0,1,,,,,,,,,0,,,68,75
34538,note_on,42,0,2,,,,,,,,,1,,,62,0
34558,note_on,62,0,1,,,,,,,,,0,,,68,0
34560,note_on,0,0,2,,,,,,,,,1,,,61,75
34560,note_on,2,0,1,,,,,,,,,0,,,69,75
34560,note_on,22,0,2,,,,,,,,,1,,,57,75
34622,note_on,0,0,2,,,,,,,,,1,,,61,0
34622,note_on,62,0,2,,,,,,,,,1,,,57,0
34624,note_on,2,0,2,,,,,,,,,1,,,59,75
34686,note_on,62,0,2,,,,,,,,,1,,,59,0
34688,note_on,2,0,2,,,,,,,,,1,,,57,75
34750,note_on,62,0,2,,,,,,,,,1,,,57,0
34752,note_on,192,0,1,,,,,,,,,0,,,69,0
34752,note_on,2,0,2,,,,,,,,,1,,,56,75
34752,note_on,0,0,1,,,,,,,,,0,,,71,75
34814,note_on,62,0,2,,,,,,,,,1,,,56,0
34816,note_on,2,0,2,,,,,,,,,1,,,57,75
34878,note_on,62,0,2,,,,,,,,,1,,,57,0
34880,note_on,2,0,2,,,,,,,,,1,,,56,75
34942,note_on,62,0,2,,,,,,,,,1,,,56,0
34944,note_on,2,0,2,,,,,,,,,1,,,55,75
34944,note_on,0,0,1,,,,,,,,,0,,,73,75
34944,note_on,192,0,1,,,,,,,,,0,,,71,0
35006,note_on,62,0,2,,,,,,,,,1,,,55,0
35008,note_on,2,0,2,,,,,,,,,1,,,57,75
35070,note_on,62,0,2,,,,,,,,,1,,,57,0
35072,note_on,2,0,2,,,,,,,,,1,,,55,75
35104,note_on,160,0,1,,,,,,,,,0,,,73,0
35134,note_on,62,0,2,,,,,,,,,1,,,55,0
35136,note_on,2,0,2,,,,,,,,,1,,,54,75
35136,note_on,32,0,1,,,,,,,,,0,,,74,75
35198,note_on,62,0,2,,,,,,,,,1,,,54,0
35200,note_on,2,0,2,,,,,,,,,1,,,55,75
35262,note_on,62,0,2,,,,,,,,,1,,,55,0
35264,note_on,2,0,2,,,,,,,,,1,,,54,75
35326,note_on,62,0,2,,,,,,,,,1,,,54,0
35328,note_on,192,0,1,,,,,,,,,0,,,74,0
35328,note_on,2,0,2,,,,,,,,,1,,,52,75
35328,note_on,0,0,1,,,,,,,,,0,,,76,75
35390,note_on,62,0,2,,,,,,,,,1,,,52,0
35392,note_on,2,0,2,,,,,,,,,1,,,54,75
35454,note_on,62,0,2,,,,,,,,,1,,,54,0
35456,note_on,2,0,2,,,,,,,,,1,,,52,75
35518,note_on,62,0,2,,,,,,,,,1,,,52,0
35520,note_on,0,0,1,,,,,,,,,0,,,78,75
35520,note_on,192,0,1,,,,,,,,,0,,,76,0
35520,note_on,2,0,2,,,,,,,,,1,,,50,75
35582,note_on,62,0,2,,,,,,,,,1,,,50,0
35584,note_on,2,0,2,,,,,,,,,1,,,52,75
35646,note_on,62,0,2,,,,,,,,,1,,,52,0
35648,note_on,2,0,2,,,,,,,,,1,,,50,75
35680,note_on,160,0,1,,,,,,,,,0,,,78,0
35710,note_on,62,0,2,,,,,,,,,1,,,50,0
35712,note_on,32,0,1,,,,,,,,,0,,,76,75
35712,note_on,2,0,2,,,,,,,,,1,,,49,75
35774,note_on,62,0,2,,,,,,,,,1,,,49,0
35776,note_on,2,0,2,,,,,,,,,1,,,47,75
35838,note_on,62,0,2,,,,,,,,,1,,,47,0
35840,note_on,2,0,2,,,,,,,,,1,,,45,75
35856,note_on,144,0,1,,,,,,,,,0,,,76,0
35856,note_on,0,0,1,,,,,,,,,0,,,78,75
35902,note_on,62,0,2,,,,,,,,,1,,,45,0
35902,note_on,46,0,1,,,,,,,,,0,,,78,0
35904,note_on,2,0,2,,,,,,,,,1,,,50,75
35904,note_on,2,0,1,,,,,,,,,0,,,69,75
35966,note_on,62,0,2,,,,,,,,,1,,,50,0
35968,note_on,2,0,2,,,,,,,,,1,,,49,75
36030,note_on,62,0,2,,,,,,,,,1,,,49,0
36032,note_on,2,0,2,,,,,,,,,1,,,47,75
36094,note_on,62,0,2,,,,,,,,,1,,,47,0
36096,note_on,192,0,1,,,,,,,,,0,,,69,0
36096,note_on,2,0,2,,,,,,,,,1,,,52,75
36096,note_on,0,0,1,,,,,,,,,0,,,68,75
36158,note_on,62,0,2,,,,,,,,,1,,,52,0
36160,note_on,2,0,2,,,,,,,,,1,,,50,75
36222,note_on,62,0,2,,,,,,,,,1,,,50,0
36224,note_on,2,0,2,,,,,,,,,1,,,52,75
36256,note_on,160,0,1,,,,,,,,,0,,,68,0
36286,note_on,62,0,2,,,,,,,,,1,,,52,0
36288,note_on,2,0,2,,,,,,,,,1,,,45,75
36288,note_on,32,0,1,,,,,,,,,0,,,69,75
36320,note_on,32,0,1,,,,,,,,,0,,,69,0
36384,note_on,64,0,1,,,,,,,,,0,,,73,75
36448,note_on,160,0,2,,,,,,,,,1,,,45,0
36480,note_on,96,0,1,,,,,,,,,0,,,73,0
36480,note_on,0,0,1,,,,,,,,,0,,,74,69
36576,note_on,96,0,1,,,,,,,,,0,,,74,0
36576,note_on,0,0,1,,,,,,,,,0,,,76,63
36672,note_on,96,0,1,,,,,,,,,0,,,76,0
36672,note_on,0,0,1,,,,,,,,,0,,,78,57
36768,note_on,96,0,1,,,,,,,,,0,,,78,0
36768,note_on,0,0,1,,,,,,,,,0,,,79,51
36862,note_on,94,0,1,,,,,,,,,0,,,79,0
36864,note_on,2,0,1,,,,,,,,,0,,,81,45
37200,note_on,336,0,1,,,,,,,,,0,,,81,0
37248,note_on,48,0,1,,,,,,,,,0,,,79,45
37376,note_on,0,0,1,,,,,,,,,0,,,78,45
37376,note_on,128,0,1,,,,,,,,,0,,,79,0
37438,note_on,62,0,1,,,,,,,,,0,,,78,0
37440,note_on,2,0,1,,,,,,,,,0,,,76,45
37440,note_on,992,0,2,,,,,,,,,1,,,50,45
37504,note_on,64,0,1,,,,,,,,,0,,,76,0
37504,note_on,0,0,1,,,,,,,,,0,,,74,45
37504,note_on,64,0,2,,,,,,,,,1,,,50,0
37504,note_on,0,0,2,,,,,,,,,1,,,54,45
37568,note_on,0,0,2,,,,,,,,,1,,,57,45
37568,note_on,64,0,2,,,,,,,,,1,,,54,0
37630,note_on,126,0,1,,,,,,,,,0,,,74,0
37630,note_on,62,0,2,,,,,,,,,1,,,57,0
37632,note_on,2,0,2,,,,,,,,,1,,,62,45
37632,note_on,2,0,1,,,,,,,,,0,,,74,45
37674,note_on,42,0,2,,,,,,,,,1,,,62,0
37680,note_on,48,0,1,,,,,,,,,0,,,74,0
37696,note_on,22,0,2,,,,,,,,,1,,,57,45
37738,note_on,42,0,2,,,,,,,,,1,,,57,0
37760,note_on,22,0,2,,,,,,,,,1,,,54,45
37802,note_on,42,0,2,,,,,,,,,1,,,54,0
37824,note_on,22,0,2,,,,,,,,,1,,,50,45
37866,note_on,42,0,2,,,,,,,,,1,,,50,0
37888,note_on,22,0,2,,,,,,,,,1,,,54,45
37930,note_on,42,0,2,,,,,,,,,1,,,54,0
37952,note_on,22,0,2,,,,,,,,,1,,,57,45
37968,note_on,288,0,1,,,,,,,,,0,,,74,45
37994,note_on,42,0,2,,,,,,,,,1,,,57,0
38000,note_on,32,0,1,,,,,,,,,0,,,74,0
38016,note_on,16,0,1,,,,,,,,,0,,,79,45
38016,note_on,22,0,2,,,,,,,,,1,,,52,45
38080,note_on,64,0,2,,,,,,,,,1,,,52,0
38080,note_on,0,0,2,,,,,,,,,1,,,55,45
38144,note_on,0,0,2,,,,,,,,,1,,,57,45
38144,note_on,64,0,2,,,,,,,,,1,,,55,0
38206,note_on,62,0,2,,,,,,,,,1,,,57,0
38208,note_on,2,0,2,,,,,,,,,1,,,61,45
38250,note_on,42,0,2,,,,,,,,,1,,,61,0
38272,note_on,22,0,2,,,,,,,,,1,,,57,45
38314,note_on,42,0,2,,,,,,,,,1,,,57,0
38336,note_on,22,0,2,,,,,,,,,1,,,55,45
38378,note_on,42,0,2,,,,,,,,,1,,,55,0
38400,note_on,22,0,2,,,,,,,,,1,,,52,45
38400,note_on,384,0,1,,,,,,,,,0,,,79,0
38400,note_on,0,0,1,,,,,,,,,0,,,73,45
38442,note_on,42,0,2,,,,,,,,,1,,,52,0
38464,note_on,22,0,2,,,,,,,,,1,,,55,45
38506,note_on,42,0,2,,,,,,,,,1,,,55,0
38528,note_on,22,0,2,,,,,,,,,1,,,57,45
38560,note_on,160,0,1,,,,,,,,,0,,,73,0
38570,note_on,42,0,2,,,,,,,,,1,,,57,0
38592,note_on,22,0,2,,,,,,,,,1,,,50,45
38592,note_on,32,0,1,,,,,,,,,0,,,76,45
38656,note_on,64,0,2,,,,,,,,,1,,,50,0
38656,note_on,0,0,1,,,,,,,,,0,,,74,45
38656,note_on,64,0,1,,,,,,,,,0,,,76,0
38656,note_on,0,0,2,,,,,,,,,1,,,54,45
38720,note_on,64,0,2,,,,,,,,,1,,,54,0
38720,note_on,0,0,2,,,,,,,,,1,,,57,45
38782,note_on,62,0,2,,,,,,,,,1,,,57,0
38782,note_on,126,0,1,,,,,,,,,0,,,74,0
38784,note_on,2,0,2,,,,,,,,,1,,,62,45
38784,note_on,2,0,1,,,,,,,,,0,,,74,45
38826,note_on,42,0,2,,,,,,,,,1,,,62,0
38832,note_on,48,0,1,,,,,,,,,0,,,74,0
38848,note_on,22,0,2,,,,,,,,,1,,,57,45
38890,note_on,42,0,2,,,,,,,,,1,,,57,0
38912,note_on,22,0,2,,,,,,,,,1,,,54,45
38954,note_on,42,0,2,,,,,,,,,1,,,54,0
38976,note_on,22,0,2,,,,,,,,,1,,,50,45
39018,note_on,42,0,2,,,,,,,,,1,,,50,0
39040,note_on,22,0,2,,,,,,,,,1,,,54,45
39082,note_on,42,0,2,,,,,,,,,1,,,54,0
39104,note_on,22,0,2,,,,,,,,,1,,,57,45
39120,note_on,288,0,1,,,,,,,,,0,,,74,45
39146,note_on,42,0,2,,,,,,,,,1,,,57,0
39166,note_on,46,0,1,,,,,,,,,0,,,74,0
39168,note_on,22,0,2,,,,,,,,,1,,,52,45
39168,note_on,2,0,1,,,,,,,,,0,,,83,45
39232,note_on,64,0,2,,,,,,,,,1,,,52,0
39232,note_on,0,0,2,,,,,,,,,1,,,55,45
39296,note_on,64,0,2,,,,,,,,,1,,,55,0
39296,note_on,0,0,2,,,,,,,,,1,,,57,45
39358,note_on,62,0,2,,,,,,,,,1,,,57,0
39360,note_on,2,0,2,,,,,,,,,1,,,61,45
39402,note_on,42,0,2,,,,,,,,,1,,,61,0
39424,note_on,22,0,2,,,,,,,,,1,,,57,45
39466,note_on,42,0,2,,,,,,,,,1,,,57,0
39488,note_on,22,0,2,,,,,,,,,1,,,55,45
39530,note_on,42,0,2,,,,,,,,,1,,,55,0
39552,note_on,0,0,1,,,,,,,,,0,,,73,45
39552,note_on,384,0,1,,,,,,,,,0,,,83,0
39552,note_on,22,0,2,,,,,,,,,1,,,52,45
39594,note_on,42,0,2,,,,,,,,,1,,,52,0
39616,note_on,22,0,2,,,,,,,,,1,,,55,45
39658,note_on,42,0,2,,,,,,,,,1,,,55,0
39680,note_on,22,0,2,,,,,,,,,1,,,57,45
39712,note_on,160,0,1,,,,,,,,,0,,,73,0
39722,note_on,42,0,2,,,,,,,,,1,,,57,0
39744,note_on,32,0,1,,,,,,,,,0,,,74,45
39744,note_on,0,0,2,,,,,,,,,1,,,54,45
39744,note_on,22,0,2,,,,,,,,,1,,,50,45
39840,note_on,0,0,1,,,,,,,,,0,,,78,45
39840,note_on,96,0,1,,,,,,,,,0,,,74,0
39904,note_on,160,0,2,,,,,,,,,1,,,50,0
39904,note_on,0,0,2,,,,,,,,,1,,,54,0
39936,note_on,0,0,1,,,,,,,,,0,,,76,45
39936,note_on,96,0,1,,,,,,,,,0,,,78,0
40032,note_on,0,0,1,,,,,,,,,0,,,74,45
40032,note_on,96,0,1,,,,,,,,,0,,,76,0
40128,note_on,0,0,1,,,,,,,,,0,,,73,45
40128,note_on,224,0,2,,,,,,,,,1,,,55,45
40128,note_on,96,0,1,,,,,,,,,0,,,74,0
40224,note_on,96,0,1,,,,,,,,,0,,,73,0
40224,note_on,0,0,1,,,,,,,,,0,,,71,45
40288,note_on,160,0,2,,,,,,,,,1,,,55,0
40318,note_on,94,0,1,,,,,,,,,0,,,71,0
40320,note_on,2,0,1,,,,,,,,,0,,,69,45
40320,note_on,32,0,2,,,,,,,,,1,,,54,45
40368,note_on,48,0,2,,,,,,,,,1,,,54,0
40512,note_on,0,0,1,,,,,,,,,0,,,66,45
40512,note_on,192,0,1,,,,,,,,,0,,,69,0
40512,note_on,0,0,1,,,,,,,,,0,,,62,45
40512,note_on,144,0,2,,,,,,,,,1,,,57,45
40704,note_on,192,0,2,,,,,,,,,1,,,57,0
40704,note_on,0,0,2,,,,,,,,,1,,,45,45
40704,note_on,192,0,1,,,,,,,,,0,,,62,0
40704,note_on,0,0,1,,,,,,,,,0,,,64,45
40704,note_on,0,0,1,,,,,,,,,0,,,61,45
40704,note_on,0,0,1,,,,,,,,,0,,,66,0
40864,note_on,160,0,2,,,,,,,,,1,,,45,0
40864,note_on,0,0,1,,,,,,,,,0,,,64,0
40864,note_on,160,0,1,,,,,,,,,0,,,61,0
40896,note_on,32,0,2,,,,,,,,,1,,,50,45
40896,note_on,32,0,1,,,,,,,,,0,,,62,45
40944,note_on,48,0,2,,,,,,,,,1,,,50,0
41088,note_on,144,0,2,,,,,,,,,1,,,38,45
41136,note_on,48,0,2,,,,,,,,,1,,,38,0
41232,note_on,336,0,1,,,,,,,,,0,,,62,0
41472,note_on,240,0,1,,,,,,,,,0,,,76,45
41472,end_of_track,0,1,0,,,,,,,,,,,,,
41472,set_tempo,18432,1,0,545454,,,,,,,,,,,,
41472,key_signature,0,1,0,,A,,,,,,,,,,,
41568,note_on,96,0,1,,,,,,,,,0,,,76,0
41568,note_on,0,0,1,,,,,,,,,0,,,73,45
41664,note_on,96,0,1,,,,,,,,,0,,,73,0
41664,note_on,0,0,1,,,,,,,,,0,,,76,45
41760,note_on,96,0,1,,,,,,,,,0,,,76,0
41760,note_on,0,0,1,,,,,,,,,0,,,73,45
41854,note_on,94,0,1,,,,,,,,,0,,,73,0
41856,note_on,0,0,2,,,,,,,,,1,,,61,92
41856,note_on,720,0,2,,,,,,,,,1,,,58,92
41856,note_on,2,0,1,,,,,,,,,0,,,78,92
41904,note_on,48,0,1,,,,,,,,,0,,,78,0
42048,note_on,144,0,1,,,,,,,,,0,,,74,45
42048,note_on,0,0,2,,,,,,,,,1,,,61,0
42048,note_on,0,0,2,,,,,,,,,1,,,59,45
42048,note_on,192,0,2,,,,,,,,,1,,,58,0
42144,note_on,96,0,1,,,,,,,,,0,,,74,0
42144,note_on,0,0,1,,,,,,,,,0,,,71,45
42208,note_on,160,0,2,,,,,,,,,1,,,59,0
42240,note_on,96,0,1,,,,,,,,,0,,,71,0
42240,note_on,0,0,1,,,,,,,,,0,,,74,45
42336,note_on,0,0,1,,,,,,,,,0,,,71,45
42336,note_on,96,0,1,,,,,,,,,0,,,74,0
42430,note_on,94,0,1,,,,,,,,,0,,,71,0
42432,note_on,0,0,2,,,,,,,,,1,,,59,92
42432,note_on,224,0,2,,,,,,,,,1,,,56,92
42432,note_on,2,0,1,,,,,,,,,0,,,76,92
42480,note_on,48,0,1,,,,,,,,,0,,,76,0
42624,note_on,192,0,2,,,,,,,,,1,,,56,0
42624,note_on,0,0,2,,,,,,,,,1,,,57,45
42624,note_on,144,0,1,,,,,,,,,0,,,73,45
42624,note_on,0,0,2,,,,,,,,,1,,,59,0
42718,note_on,94,0,1,,,,,,,,,0,,,73,0
42720,note_on,2,0,1,,,,,,,,,0,,,69,45
42814,note_on,94,0,1,,,,,,,,,0,,,69,0
42816,note_on,2,0,1,,,,,,,,,0,,,64,45
42816,note_on,0,0,1,,,,,,,,,0,,,73,45
42910,note_on,94,0,1,,,,,,,,,0,,,64,0
42910,note_on,0,0,1,,,,,,,,,0,,,73,0
42912,note_on,2,0,1,,,,,,,,,0,,,69,45
42960,note_on,336,0,2,,,,,,,,,1,,,57,0
43006,note_on,94,0,1,,,,,,,,,0,,,69,0
43008,note_on,48,0,2,,,,,,,,,1,,,59,92
43008,note_on,0,0,1,,,,,,,,,0,,,76,92
43008,note_on,2,0,1,,,,,,,,,0,,,66,92
43104,note_on,0,0,1,,,,,,,,,0,,,74,92
43104,note_on,0,0,1,,,,,,,,,0,,,71,92
43104,note_on,0,0,1,,,,,,,,,0,,,76,0
43104,note_on,96,0,1,,,,,,,,,0,,,66,0
43168,note_on,160,0,2,,,,,,,,,1,,,59,0
43198,note_on,94,0,1,,,,,,,,,0,,,71,0
43198,note_on,0,0,1,,,,,,,,,0,,,74,0
43200,note_on,0,0,1,,,,,,,,,0,,,73,92
43200,note_on,2,0,1,,,,,,,,,0,,,69,92
43200,note_on,32,0,2,,,,,,,,,1,,,64,92
43296,note_on,0,0,2,,,,,,,,,1,,,63,92
43296,note_on,96,0,2,,,,,,,,,1,,,64,0
43392,note_on,96,0,2,,,,,,,,,1,,,63,0
43392,note_on,0,0,2,,,,,,,,,1,,,64,92
43488,note_on,96,0,2,,,,,,,,,1,,,64,0
43488,note_on,0,0,2,,,,,,,,,1,,,66,92
43584,note_on,96,0,2,,,,,,,,,1,,,66,0
43584,note_on,0,0,2,,,,,,,,,1,,,62,92
43584,note_on,0,0,1,,,,,,,,,0,,,71,92
43584,note_on,0,0,1,,,,,,,,,0,,,73,0
43584,note_on,0,0,1,,,,,,,,,0,,,68,92
43584,note_on,384,0,1,,,,,,,,,0,,,69,0
43680,note_on,0,0,2,,,,,,,,,1,,,64,92
43680,note_on,96,0,2,,,,,,,,,1,,,62,0
43744,note_on,160,0,1,,,,,,,,,0,,,68,0
43744,note_on,0,0,1,,,,,,,,,0,,,71,0
43774,note_on,94,0,2,,,,,,,,,1,,,64,0
43776,note_on,2,0,2,,,,,,,,,1,,,61,92
43776,note_on,32,0,1,,,,,,,,,0,,,69,92
43776,note_on,0,0,1,,,,,,,,,0,,,69,92
43824,note_on,48,0,2,,,,,,,,,1,,,61,0
43872,note_on,96,0,1,,,,,,,,,0,,,69,0
43872,note_on,0,0,1,,,,,,,,,0,,,71,92
43936,note_on,64,0,1,,,,,,,,,0,,,69,0
43968,note_on,144,0,2,,,,,,,,,1,,,57,92
43968,note_on,32,0,1,,,,,,,,,0,,,71,0
43968,note_on,0,0,1,,,,,,,,,0,,,64,92
43968,note_on,0,0,1,,,,,,,,,0,,,73,92
44064,note_on,96,0,1,,,,,,,,,0,,,73,0
44064,note_on,0,0,1,,,,,,,,,0,,,71,92
44160,note_on,0,0,2,,,,,,,,,1,,,61,92
44160,note_on,192,0,2,,,,,,,,,1,,,57,0
44160,note_on,96,0,1,,,,,,,,,0,,,71,0
44160,note_on,0,0,1,,,,,,,,,0,,,69,92
44256,note_on,0,0,1,,,,,,,,,0,,,68,92
44256,note_on,96,0,1,,,,,,,,,0,,,69,0
44304,note_on,48,0,1,,,,,,,,,0,,,64,0
44320,note_on,160,0,2,,,,,,,,,1,,,61,0
44352,note_on,48,0,1,,,,,,,,,0,,,68,0
44352,note_on,0,0,1,,,,,,,,,0,,,66,92
44352,note_on,32,0,2,,,,,,,,,1,,,62,92
44400,note_on,48,0,1,,,,,,,,,0,,,66,0
44400,note_on,48,0,2,,,,,,,,,1,,,62,0
44544,note_on,144,0,1,,,,,,,,,0,,,68,92
44544,note_on,0,0,1,,,,,,,,,0,,,74,92
44544,note_on,144,0,2,,,,,,,,,1,,,59,92
44736,note_on,0,0,1,,,,,,,,,0,,,74,0
44736,note_on,0,0,1,,,,,,,,,0,,,69,92
44736,note_on,0,0,1,,,,,,,,,0,,,73,92
44736,note_on,192,0,2,,,,,,,,,1,,,59,0
44736,note_on,0,0,2,,,,,,,,,1,,,57,92
44736,note_on,192,0,1,,,,,,,,,0,,,68,0
44830,note_on,94,0,1,,,,,,,,,0,,,69,0
44832,note_on,2,0,1,,,,,,,,,0,,,64,92
44896,note_on,64,0,1,,,,,,,,,0,,,73,0
44896,note_on,160,0,2,,,,,,,,,1,,,57,0
44926,note_on,30,0,1,,,,,,,,,0,,,64,0
44928,note_on,32,0,2,,,,,,,,,1,,,50,92
44928,note_on,0,0,1,,,,,,,,,0,,,73,92
44928,note_on,2,0,1,,,,,,,,,0,,,64,92
45024,note_on,0,0,1,,,,,,,,,0,,,71,92
45024,note_on,0,0,1,,,,,,,,,0,,,73,0
45024,note_on,0,0,1,,,,,,,,,0,,,62,92
45024,note_on,96,0,1,,,,,,,,,0,,,64,0
45120,note_on,96,0,1,,,,,,,,,0,,,62,0
45120,note_on,0,0,1,,,,,,,,,0,,,61,92
45120,note_on,0,0,2,,,,,,,,,1,,,52,92
45120,note_on,192,0,2,,,,,,,,,1,,,50,0
45120,note_on,0,0,1,,,,,,,,,0,,,71,0
45120,note_on,0,0,1,,,,,,,,,0,,,69,92
45168,note_on,48,0,1,,,,,,,,,0,,,61,0
45168,note_on,48,0,2,,,,,,,,,1,,,52,0
45168,note_on,0,0,1,,,,,,,,,0,,,69,0
45312,note_on,144,0,2,,,,,,,,,1,,,52,92
45312,note_on,144,0,1,,,,,,,,,0,,,59,92
45312,note_on,0,0,1,,,,,,,,,0,,,68,92
45360,note_on,0,0,1,,,,,,,,,0,,,68,0
45360,note_on,48,0,1,,,,,,,,,0,,,59,0
45360,note_on,48,0,2,,,,,,,,,1,,,52,0
45504,note_on,144,0,1,,,,,,,,,0,,,61,92
45504,note_on,144,0,2,,,,,,,,,1,,,57,92
45504,note_on,0,0,1,,,,,,,,,0,,,69,92
45664,note_on,160,0,2,,,,,,,,,1,,,57,0
45696,note_on,32,0,2,,,,,,,,,1,,,52,92
45840,note_on,336,0,1,,,,,,,,,0,,,61,0
45840,note_on,0,0,1,,,,,,,,,0,,,69,0
45856,note_on,160,0,2,,,,,,,,,1,,,52,0
45888,note_on,32,0,2,,,,,,,,,1,,,45,92
46048,note_on,160,0,2,,,,,,,,,1,,,45,0
46080,note_on,0,0,1,,,,,,,,,0,,,71,45
46080,note_on,240,0,1,,,,,,,,,0,,,68,45
46176,note_on,96,0,1,,,,,,,,,0,,,68,0
46176,note_on,0,0,1,,,,,,,,,0,,,71,0
46176,note_on,0,0,1,,,,,,,,,0,,,64,45
46272,note_on,0,0,1,,,,,,,,,0,,,71,45
46272,note_on,96,0,1,,,,,,,,,0,,,64,0
46272,note_on,0,0,1,,,,,,,,,0,,,68,45
46368,note_on,0,0,1,,,,,,,,,0,,,64,45
46368,note_on,0,0,1,,,,,,,,,0,,,71,0
46368,note_on,96,0,1,,,,,,,,,0,,,68,0
46462,note_on,94,0,1,,,,,,,,,0,,,64,0
46464,note_on,0,0,1,,,,,,,,,0,,,73,45
46464,note_on,2,0,1,,,,,,,,,0,,,69,45
46560,note_on,0,0,1,,,,,,,,,0,,,64,45
46560,note_on,96,0,1,,,,,,,,,0,,,69,0
46560,note_on,0,0,1,,,,,,,,,0,,,73,0
46654,note_on,94,0,1,,,,,,,,,0,,,64,0
46656,note_on,0,0,1,,,,,,,,,0,,,76,45
46656,note_on,2,0,1,,,,,,,,,0,,,73,45
46656,note_on,608,0,2,,,,,,,,,1,,,52,45
46752,note_on,96,0,2,,,,,,,,,1,,,52,0
46752,note_on,0,0,2,,,,,,,,,1,,,54,45
46848,note_on,0,0,2,,,,,,,,,1,,,56,45
46848,note_on,0,0,1,,,,,,,,,0,,,74,45
46848,note_on,0,0,1,,,,,,,,,0,,,71,45
46848,note_on,0,0,1,,,,,,,,,0,,,76,0
46848,note_on,96,0,2,,,,,,,,,1,,,54,0
46848,note_on,192,0,1,,,,,,,,,0,,,73,0
46944,note_on,96,0,2,,,,,,,,,1,,,56,0
46944,note_on,0,0,2,,,,,,,,,1,,,54,45
47008,note_on,0,0,1,,,,,,,,,0,,,74,0
47008,note_on,160,0,1,,,,,,,,,0,,,71,0
47040,note_on,96,0,2,,,,,,,,,1,,,54,0
47040,note_on,0,0,2,,,,,,,,,1,,,56,45
47136,note_on,96,0,2,,,,,,,,,1,,,56,0
47136,note_on,0,0,2,,,,,,,,,1,,,52,45
47230,note_on,94,0,2,,,,,,,,,1,,,52,0
47232,note_on,2,0,2,,,,,,,,,1,,,57,45
47232,note_on,224,0,1,,,,,,,,,0,,,73,45
47328,note_on,96,0,2,,,,,,,,,1,,,57,0
47328,note_on,0,0,2,,,,,,,,,1,,,59,45
47328,note_on,0,0,1,,,,,,,,,0,,,74,45
47328,note_on,96,0,1,,,,,,,,,0,,,73,0
47424,note_on,0,0,1,,,,,,,,,0,,,75,45
47424,note_on,96,0,2,,,,,,,,,1,,,59,0
47424,note_on,96,0,1,,,,,,,,,0,,,74,0
47424,note_on,0,0,2,,,,,,,,,1,,,60,45
47520,note_on,0,0,1,,,,,,,,,0,,,76,45
47520,note_on,96,0,2,,,,,,,,,1,,,60,0
47520,note_on,0,0,2,,,,,,,,,1,,,61,45
47520,note_on,96,0,1,,,,,,,,,0,,,75,0
47616,note_on,0,0,1,,,,,,,,,0,,,74,45
47616,note_on,96,0,1,,,,,,,,,0,,,76,0
47616,note_on,96,0,2,,,,,,,,,1,,,61,0
47616,note_on,0,0,2,,,,,,,,,1,,,59,45
47712,note_on,0,0,2,,,,,,,,,1,,,57,45
47712,note_on,96,0,2,,,,,,,,,1,,,59,0
47712,note_on,96,0,1,,,,,,,,,0,,,74,0
47712,note_on,0,0,1,,,,,,,,,0,,,73,45
47806,note_on,94,0,2,,,,,,,,,1,,,57,0
47806,note_on,94,0,1,,,,,,,,,0,,,73,0
47808,note_on,2,0,2,,,,,,,,,1,,,64,45
47808,note_on,2,0,1,,,,,,,,,0,,,73,45
47808,note_on,0,0,1,,,,,,,,,0,,,76,45
47904,note_on,96,0,2,,,,,,,,,1,,,64,0
47904,note_on,0,0,2,,,,,,,,,1,,,63,45
47952,note_on,0,0,1,,,,,,,,,0,,,76,0
47952,note_on,0,0,1,,,,,,,,,0,,,69,45
47952,note_on,0,0,1,,,,,,,,,0,,,73,45
47952,note_on,144,0,1,,,,,,,,,0,,,73,0
48000,note_on,0,0,1,,,,,,,,,0,,,73,0
48000,note_on,0,0,1,,,,,,,,,0,,,71,45
48000,note_on,48,0,1,,,,,,,,,0,,,69,0
48000,note_on,0,0,2,,,,,,,,,1,,,64,45
48000,note_on,0,0,1,,,,,,,,,0,,,68,45
48000,note_on,96,0,2,,,,,,,,,1,,,63,0
48096,note_on,96,0,2,,,,,,,,,1,,,64,0
48096,note_on,0,0,2,,,,,,,,,1,,,66,45
48160,note_on,160,0,1,,,,,,,,,0,,,68,0
48160,note_on,0,0,1,,,,,,,,,0,,,71,0
48192,note_on,96,0,2,,,,,,,,,1,,,66,0
48192,note_on,0,0,2,,,,,,,,,1,,,62,45
48288,note_on,96,0,2,,,,,,,,,1,,,62,0
48288,note_on,0,0,2,,,,,,,,,1,,,59,45
48382,note_on,94,0,2,,,,,,,,,1,,,59,0
48384,note_on,224,0,1,,,,,,,,,0,,,76,45
48384,note_on,2,0,2,,,,,,,,,1,,,57,45
48384,note_on,0,0,2,,,,,,,,,1,,,61,45
48480,note_on,96,0,1,,,,,,,,,0,,,76,0
48480,note_on,0,0,1,,,,,,,,,0,,,73,45
48576,note_on,96,0,1,,,,,,,,,0,,,73,0
48576,note_on,0,0,1,,,,,,,,,0,,,76,45
48576,note_on,0,0,2,,,,,,,,,1,,,61,0
48576,note_on,0,0,2,,,,,,,,,1,,,59,45
48576,note_on,192,0,2,,,,,,,,,1,,,57,0
48672,note_on,96,0,1,,,,,,,,,0,,,76,0
48672,note_on,0,0,1,,,,,,,,,0,,,73,45
48766,note_on,94,0,1,,,,,,,,,0,,,73,0
48768,note_on,0,0,2,,,,,,,,,1,,,58,92
48768,note_on,0,0,2,,,,,,,,,1,,,54,92
48768,note_on,192,0,2,,,,,,,,,1,,,59,0
48768,note_on,2,0,1,,,,,,,,,0,,,78,92
48816,note_on,48,0,1,,,,,,,,,0,,,78,0
48928,note_on,160,0,2,,,,,,,,,1,,,54,0
48928,note_on,0,0,2,,,,,,,,,1,,,58,0
48960,note_on,144,0,1,,,,,,,,,0,,,74,45
48960,note_on,32,0,2,,,,,,,,,1,,,59,45
49056,note_on,0,0,1,,,,,,,,,0,,,71,45
49056,note_on,96,0,1,,,,,,,,,0,,,74,0
49152,note_on,0,0,2,,,,,,,,,1,,,57,45
49152,note_on,192,0,2,,,,,,,,,1,,,59,0
49152,note_on,0,0,1,,,,,,,,,0,,,74,45
49152,note_on,96,0,1,,,,,,,,,0,,,71,0
49248,note_on,96,0,1,,,,,,,,,0,,,74,0
49248,note_on,0,0,1,,,,,,,,,0,,,71,45
49342,note_on,94,0,1,,,,,,,,,0,,,71,0
49344,note_on,2,0,1,,,,,,,,,0,,,76,92
49344,note_on,0,0,2,,,,,,,,,1,,,56,92
49344,note_on,0,0,2,,,,,,,,,1,,,52,92
49344,note_on,192,0,2,,,,,,,,,1,,,57,0
49392,note_on,48,0,1,,,,,,,,,0,,,76,0
49504,note_on,0,0,2,,,,,,,,,1,,,56,0
49504,note_on,160,0,2,,,,,,,,,1,,,52,0
49536,note_on,144,0,1,,,,,,,,,0,,,73,45
49536,note_on,32,0,2,,,,,,,,,1,,,57,45
49632,note_on,96,0,1,,,,,,,,,0,,,73,0
49632,note_on,0,0,1,,,,,,,,,0,,,69,45
49728,note_on,0,0,2,,,,,,,,,1,,,57,45
49728,note_on,192,0,2,,,,,,,,,1,,,57,0
49728,note_on,0,0,1,,,,,,,,,0,,,73,45
49728,note_on,96,0,1,,,,,,,,,0,,,69,0
49728,note_on,0,0,2,,,,,,,,,1,,,54,45
49824,note_on,0,0,1,,,,,,,,,0,,,69,45
49824,note_on,96,0,1,,,,,,,,,0,,,73,0
49888,note_on,0,0,2,,,,,,,,,1,,,57,0
49888,note_on,160,0,2,,,,,,,,,1,,,54,0
49918,note_on,94,0,1,,,,,,,,,0,,,69,0
49920,note_on,2,0,1,,,,,,,,,0,,,66,92
49920,note_on,32,0,2,,,,,,,,,1,,,50,92
49920,note_on,0,0,1,,,,,,,,,0,,,76,92
50016,note_on,96,0,1,,,,,,,,,0,,,66,0
50016,note_on,0,0,1,,,,,,,,,0,,,74,92
50016,note_on,0,0,1,,,,,,,,,0,,,71,92
50016,note_on,0,0,1,,,,,,,,,0,,,76,0
50080,note_on,160,0,2,,,,,,,,,1,,,50,0
50110,note_on,0,0,1,,,,,,,,,0,,,74,0
50110,note_on,94,0,1,,,,,,,,,0,,,71,0
50112,note_on,32,0,2,,,,,,,,,1,,,52,92
50112,note_on,2,0,1,,,,,,,,,0,,,69,92
50112,note_on,0,0,1,,,,,,,,,0,,,73,92
50208,note_on,0,0,2,,,,,,,,,1,,,54,92
50208,note_on,96,0,2,,,,,,,,,1,,,52,0
50304,note_on,0,0,2,,,,,,,,,1,,,56,92
50304,note_on,96,0,2,,,,,,,,,1,,,54,0
50400,note_on,96,0,2,,,,,,,,,1,,,56,0
50400,note_on,0,0,2,,,,,,,,,1,,,57,92
50496,note_on,0,0,2,,,,,,,,,1,,,59,92
50496,note_on,96,0,2,,,,,,,,,1,,,57,0
50592,note_on,0,0,2,,,,,,,,,1,,,61,92
50592,note_on,96,0,2,,,,,,,,,1,,,59,0
50686,note_on,94,0,2,,,,,,,,,1,,,61,0
50688,note_on,0,0,1,,,,,,,,,0,,,68,92
50688,note_on,576,0,1,,,,,,,,,0,,,69,0
50688,note_on,0,0,1,,,,,,,,,0,,,73,0
50688,note_on,2,0,2,,,,,,,,,1,,,62,92
50688,note_on,0,0,1,,,,,,,,,0,,,71,92
50782,note_on,94,0,2,,,,,,,,,1,,,62,0
50782,note_on,0,0,1,,,,,,,,,0,,,71,0
50782,note_on,94,0,1,,,,,,,,,0,,,68,0
50784,note_on,2,0,2,,,,,,,,,1,,,57,94
50784,note_on,2,0,1,,,,,,,,,0,,,73,94
50878,note_on,94,0,1,,,,,,,,,0,,,73,0
50880,note_on,96,0,2,,,,,,,,,1,,,57,0
50880,note_on,0,0,2,,,,,,,,,1,,,59,96
50880,note_on,2,0,1,,,,,,,,,0,,,74,96
50974,note_on,94,0,1,,,,,,,,,0,,,74,0
50976,note_on,0,0,2,,,,,,,,,1,,,61,99
50976,note_on,2,0,1,,,,,,,,,0,,,76,99
50976,note_on,96,0,2,,,,,,,,,1,,,59,0
51070,note_on,94,0,1,,,,,,,,,0,,,76,0
51072,note_on,2,0,1,,,,,,,,,0,,,78,102
51072,note_on,0,0,2,,,,,,,,,1,,,62,102
51072,note_on,96,0,2,,,,,,,,,1,,,61,0
51166,note_on,94,0,1,,,,,,,,,0,,,78,0
51166,note_on,94,0,2,,,,,,,,,1,,,62,0
51168,note_on,2,0,1,,,,,,,,,0,,,80,105
51168,note_on,2,0,2,,,,,,,,,1,,,59,105
51262,note_on,94,0,1,,,,,,,,,0,,,80,0
51262,note_on,94,0,2,,,,,,,,,1,,,59,0
51264,note_on,2,0,2,,,,,,,,,1,,,61,108
51264,note_on,2,0,1,,,,,,,,,0,,,81,108
51424,note_on,160,0,1,,,,,,,,,0,,,81,0
51424,note_on,160,0,2,,,,,,,,,1,,,61,0
51456,note_on,32,0,2,,,,,,,,,1,,,56,108
51456,note_on,0,0,1,,,,,,,,,0,,,74,108
51456,note_on,32,0,1,,,,,,,,,0,,,64,108
51504,note_on,0,0,1,,,,,,,,,0,,,74,0
51504,note_on,48,0,1,,,,,,,,,0,,,64,0
51504,note_on,48,0,2,,,,,,,,,1,,,56,0
51792,note_on,288,0,2,,,,,,,,,1,,,57,45
51792,note_on,0,0,1,,,,,,,,,0,,,73,45
51792,note_on,288,0,1,,,,,,,,,0,,,64,45
51838,note_on,0,0,1,,,,,,,,,0,,,73,0
51838,note_on,46,0,2,,,,,,,,,1,,,57,0
51838,note_on,46,0,1,,,,,,,,,0,,,64,0
51840,note_on,2,0,2,,,,,,,,,1,,,50,45
51840,note_on,0,0,1,,,,,,,,,0,,,73,45
51840,note_on,2,0,1,,,,,,,,,0,,,64,45
51936,note_on,0,0,1,,,,,,,,,0,,,71,45
51936,note_on,0,0,1,,,,,,,,,0,,,62,45
51936,note_on,0,0,1,,,,,,,,,0,,,73,0
51936,note_on,96,0,1,,,,,,,,,0,,,64,0
52032,note_on,192,0,2,,,,,,,,,1,,,50,0
52032,note_on,0,0,2,,,,,,,,,1,,,52,45
52032,note_on,0,0,1,,,,,,,,,0,,,69,45
52032,note_on,0,0,1,,,,,,,,,0,,,61,45
52032,note_on,96,0,1,,,,,,,,,0,,,62,0
52032,note_on,0,0,1,,,,,,,,,0,,,71,0
52080,note_on,48,0,2,,,,,,,,,1,,,52,0
52080,note_on,0,0,1,,,,,,,,,0,,,69,0
52080,note_on,48,0,1,,,,,,,,,0,,,61,0
52224,note_on,144,0,2,,,,,,,,,1,,,52,45
52224,note_on,0,0,1,,,,,,,,,0,,,68,45
52224,note_on,144,0,1,,,,,,,,,0,,,59,45
52272,note_on,48,0,2,,,,,,,,,1,,,52,0
52272,note_on,48,0,1,,,,,,,,,0,,,59,0
52272,note_on,0,0,1,,,,,,,,,0,,,68,0
52416,note_on,144,0,2,,,,,,,,,1,,,57,45
52416,note_on,144,0,1,,,,,,,,,0,,,61,45
52416,note_on,0,0,1,,,,,,,,,0,,,69,45
52576,note_on,160,0,2,,,,,,,,,1,,,57,0
52608,note_on,32,0,2,,,,,,,,,1,,,52,45
52752,note_on,0,0,1,,,,,,,,,0,,,69,0
52752,end_of_track,0,1,1,,,,,,,,,,,,,
52752,note_on,336,0,1,,,,,,,,,0,,,61,0
52768,note_on,160,0,2,,,,,,,,,1,,,52,0
52800,note_on,32,0,2,,,,,,,,,1,,,45,45
52960,note_on,160,0,2,,,,,,,,,1,,,45,0
52960,end_of_track,0,1,2,,,,,,,,,,,,,
