,note,step,duration,channel,velocity
0,72.0,0,90,1.0,0.0
1,72.0,0,90,4.0,0.0
2,60.0,0,90,4.0,0.0
3,48.0,0,90,10.0,0.0
4,72.0,100,90,3.0,0.0
5,60.0,0,90,3.0,0.0
6,60.0,0,90,7.0,0.0
7,60.0,0,90,6.0,0.0
8,48.0,0,90,5.0,0.0
9,60.0,0,90,8.0,0.0
10,36.0,0,90,11.0,0.0
11,48.0,0,90,2.0,0.0
12,84.0,0,90,0.0,0.0
13,79.0,0,20,0.0,0.0
14,55.0,0,20,7.0,0.0
15,31.0,20,20,11.0,0.0
16,67.0,0,20,1.0,0.0
17,43.0,0,20,10.0,0.0
18,43.0,0,20,2.0,0.0
19,55.0,0,20,6.0,0.0
20,55.0,0,20,8.0,0.0
21,69.0,0,20,1.0,0.0
22,57.0,0,20,6.0,0.0
23,81.0,0,20,0.0,0.0
24,45.0,0,20,2.0,0.0
25,45.0,0,20,10.0,0.0
26,33.0,20,20,11.0,0.0
27,57.0,0,20,7.0,0.0
28,57.0,0,20,8.0,0.0
29,59.0,0,20,7.0,0.0
30,35.0,100,20,11.0,0.0
31,71.0,0,20,1.0,0.0
32,59.0,0,20,6.0,0.0
33,83.0,0,20,0.0,0.0
34,47.0,0,20,2.0,0.0
35,47.0,0,20,10.0,0.0
36,59.0,0,20,8.0,0.0
37,48.0,0,90,5.0,0.0
38,60.0,0,90,8.0,0.0
39,36.0,0,90,11.0,0.0
40,48.0,100,90,2.0,0.0
41,60.0,0,90,6.0,0.0
42,60.0,0,90,7.0,0.0
43,72.0,0,90,3.0,0.0
44,60.0,0,90,3.0,0.0
45,60.0,0,90,4.0,0.0
46,72.0,0,90,4.0,0.0
47,72.0,0,90,1.0,0.0
48,84.0,0,90,0.0,0.0
49,48.0,0,90,10.0,0.0
50,43.0,0,20,2.0,0.0
51,43.0,0,20,10.0,0.0
52,67.0,0,20,1.0,0.0
53,55.0,0,20,7.0,0.0
54,31.0,0,20,11.0,0.0
55,55.0,0,20,8.0,0.0
56,79.0,0,20,0.0,0.0
57,55.0,20,20,6.0,0.0
58,57.0,0,20,7.0,0.0
59,33.0,0,20,11.0,0.0
60,81.0,20,20,0.0,0.0
61,57.0,0,20,8.0,0.0
62,45.0,0,20,2.0,0.0
63,45.0,0,20,10.0,0.0
64,69.0,0,20,1.0,0.0
65,57.0,0,20,6.0,0.0
66,35.0,0,20,11.0,0.0
67,71.0,0,20,1.0,0.0
68,59.0,0,20,6.0,0.0
69,47.0,0,20,10.0,0.0
70,47.0,0,20,2.0,0.0
71,59.0,0,20,8.0,0.0
72,59.0,0,20,7.0,0.0
73,83.0,100,20,0.0,0.0
74,60.0,0,90,6.0,0.0
75,72.0,0,90,3.0,0.0
76,48.0,0,90,2.0,0.0
77,48.0,0,90,5.0,0.0
78,84.0,0,90,0.0,0.0
79,72.0,379,90,4.0,0.0
80,60.0,0,90,4.0,0.0
81,72.0,0,90,1.0,0.0
82,36.0,0,90,11.0,0.0
83,60.0,0,90,7.0,0.0
84,60.0,0,90,3.0,0.0
85,48.0,0,90,10.0,0.0
86,60.0,0,90,8.0,0.0
87,72.0,181,60,6.0,0.0
88,50.0,0,240,11.0,0.0
89,65.0,180,240,7.0,0.0
90,62.0,0,240,10.0,0.0
91,67.0,0,810,8.0,0.0
92,72.0,60,180,6.0,0.0
93,71.0,0,60,6.0,0.0
94,64.0,29,210,7.0,0.0
95,74.0,30,180,6.0,0.0
96,60.0,0,210,10.0,0.0
97,48.0,0,210,11.0,0.0
98,72.0,241,60,6.0,0.0
99,62.0,10,330,7.0,0.0
100,59.0,0,330,10.0,0.0
101,79.0,90,240,6.0,0.0
102,47.0,0,330,11.0,0.0
103,77.0,240,90,6.0,0.0
104,55.0,0,90,6.0,0.0
105,55.0,0,90,2.0,0.0
106,43.0,0,90,5.0,0.0
107,55.0,0,90,7.0,0.0
108,67.0,0,90,7.0,0.0
109,67.0,0,90,3.0,0.0
110,67.0,0,90,6.0,0.0
111,79.0,0,90,1.0,0.0
112,67.0,100,90,4.0,0.0
113,67.0,0,90,8.0,0.0
114,79.0,0,90,0.0,0.0
115,55.0,0,90,10.0,0.0
116,43.0,0,90,11.0,0.0
117,62.0,0,20,7.0,0.0
118,38.0,20,20,11.0,0.0
119,74.0,0,20,1.0,0.0
120,50.0,0,20,10.0,0.0
121,74.0,0,20,0.0,0.0
122,50.0,0,20,2.0,0.0
123,62.0,0,20,8.0,0.0
124,62.0,0,20,6.0,0.0
125,64.0,0,20,6.0,0.0
126,76.0,0,20,1.0,0.0
127,64.0,0,20,7.0,0.0
128,40.0,0,20,11.0,0.0
129,64.0,0,20,8.0,0.0
130,52.0,20,20,10.0,0.0
131,52.0,0,20,2.0,0.0
132,76.0,0,20,0.0,0.0
133,78.0,0,20,1.0,0.0
134,66.0,0,20,7.0,0.0
135,78.0,0,20,0.0,0.0
136,42.0,0,20,11.0,0.0
137,66.0,0,20,6.0,0.0
138,66.0,0,20,8.0,0.0
139,54.0,0,20,10.0,0.0
140,54.0,100,20,2.0,0.0
141,79.0,0,90,0.0,0.0
142,67.0,0,90,6.0,0.0
143,55.0,0,90,10.0,0.0
144,55.0,0,90,2.0,0.0
145,67.0,100,90,4.0,0.0
146,43.0,0,90,5.0,0.0
147,67.0,0,90,3.0,0.0
148,43.0,0,90,11.0,0.0
149,67.0,0,90,8.0,0.0
150,79.0,0,90,1.0,0.0
151,67.0,0,90,7.0,0.0
152,50.0,0,20,10.0,0.0
153,50.0,0,20,2.0,0.0
154,38.0,20,20,11.0,0.0
155,74.0,0,20,1.0,0.0
156,62.0,0,20,6.0,0.0
157,74.0,0,20,0.0,0.0
158,62.0,0,20,7.0,0.0
159,62.0,0,20,8.0,0.0
160,64.0,0,20,7.0,0.0
161,52.0,0,20,2.0,0.0
162,64.0,0,20,6.0,0.0
163,64.0,0,20,8.0,0.0
164,76.0,20,20,1.0,0.0
165,76.0,0,20,0.0,0.0
166,52.0,0,20,10.0,0.0
167,40.0,0,20,11.0,0.0
168,78.0,0,20,0.0,0.0
169,78.0,0,20,1.0,0.0
170,66.0,0,20,6.0,0.0
171,66.0,100,20,7.0,0.0
172,42.0,0,20,11.0,0.0
173,54.0,0,20,10.0,0.0
174,66.0,0,20,8.0,0.0
175,54.0,0,20,2.0,0.0
176,43.0,379,90,5.0,0.0
177,55.0,0,90,2.0,0.0
178,79.0,0,90,0.0,0.0
179,67.0,0,90,7.0,0.0
180,43.0,0,90,11.0,0.0
181,79.0,0,90,1.0,0.0
182,67.0,0,90,4.0,0.0
183,67.0,0,90,6.0,0.0
184,67.0,0,90,8.0,0.0
185,55.0,0,90,10.0,0.0
186,67.0,0,90,3.0,0.0
187,74.0,181,60,6.0,0.0
188,64.0,0,240,10.0,0.0
189,52.0,0,240,11.0,0.0
190,67.0,0,450,8.0,0.0
191,74.0,60,180,6.0,0.0
192,67.0,180,240,7.0,0.0
193,72.0,0,60,6.0,0.0
194,62.0,0,210,10.0,0.0
195,71.0,29,210,7.0,0.0
196,79.0,30,180,6.0,0.0
197,50.0,0,210,11.0,0.0
198,77.0,241,60,6.0,0.0
199,48.0,0,330,11.0,0.0
200,72.0,10,330,8.0,0.0
201,81.0,0,240,6.0,0.0
202,60.0,0,330,10.0,0.0
203,77.0,90,240,7.0,0.0
204,76.0,0,90,7.0,0.0
205,79.0,240,90,6.0,0.0
206,84.0,0,90,6.0,0.0
207,76.0,0,90,6.0,0.0
208,36.0,0,90,11.0,0.0
209,55.0,0,90,2.0,0.0
210,64.0,0,90,2.0,0.0
211,48.0,0,90,10.0,0.0
212,76.0,95,90,1.0,0.0
213,67.0,0,90,6.0,0.0
214,79.0,0,90,1.0,0.0
215,84.0,0,90,0.0,0.0
216,60.0,0,90,3.0,0.0
217,72.0,0,90,3.0,0.0
218,79.0,0,90,1.0,0.0
219,76.0,1,90,1.0,0.0
220,84.0,0,90,0.0,0.0
221,55.0,0,90,2.0,0.0
222,60.0,0,90,4.0,0.0
223,72.0,0,90,4.0,0.0
224,72.0,0,90,3.0,0.0
225,60.0,0,90,3.0,0.0
226,64.0,0,90,2.0,0.0
227,48.0,0,90,5.0,0.0
228,55.0,0,15,8.0,0.0
229,67.0,14,15,7.0,0.0
230,53.0,15,15,8.0,0.0
231,65.0,0,15,7.0,0.0
232,64.0,14,15,7.0,0.0
233,60.0,0,30,3.0,0.0
234,48.0,0,30,5.0,0.0
235,72.0,0,30,3.0,0.0
236,79.0,0,30,1.0,0.0
237,76.0,0,30,1.0,0.0
238,64.0,1,30,2.0,0.0
239,55.0,0,30,2.0,0.0
240,52.0,0,15,8.0,0.0
241,84.0,0,30,0.0,0.0
242,72.0,0,30,4.0,0.0
243,60.0,0,30,4.0,0.0
244,50.0,0,15,8.0,0.0
245,62.0,100,15,7.0,0.0
246,64.0,120,90,2.0,0.0
247,55.0,0,90,2.0,0.0
248,48.0,0,90,5.0,0.0
249,60.0,0,90,3.0,0.0
250,72.0,0,90,3.0,0.0
251,48.0,0,90,8.0,0.0
252,84.0,0,90,0.0,0.0
253,60.0,0,90,4.0,0.0
254,72.0,0,90,4.0,0.0
255,79.0,0,90,1.0,0.0
256,60.0,0,90,7.0,0.0
257,76.0,0,90,1.0,0.0
258,55.0,0,90,2.0,0.0
259,60.0,0,90,10.0,0.0
260,84.0,120,90,6.0,0.0
261,76.0,0,90,6.0,0.0
262,67.0,0,90,6.0,0.0
263,48.0,0,90,11.0,0.0
264,84.0,0,90,0.0,0.0
265,64.0,0,90,2.0,0.0
266,76.0,0,90,1.0,0.0
267,79.0,0,90,1.0,0.0
268,60.0,0,90,3.0,0.0
269,72.0,0,90,3.0,0.0
270,72.0,0,90,6.0,0.0
271,65.0,0,90,2.0,0.0
272,57.0,0,90,2.0,0.0
273,36.0,0,90,11.0,0.0
274,72.0,0,90,3.0,0.0
275,48.0,0,90,10.0,0.0
276,60.0,0,90,3.0,0.0
277,65.0,0,90,6.0,0.0
278,81.0,95,90,0.0,0.0
279,81.0,0,90,6.0,0.0
280,77.0,0,90,1.0,0.0
281,69.0,0,90,1.0,0.0
282,48.0,0,90,5.0,0.0
283,72.0,0,90,3.0,0.0
284,57.0,0,90,2.0,0.0
285,65.0,0,90,2.0,0.0
286,60.0,0,90,3.0,0.0
287,77.0,0,90,1.0,0.0
288,69.0,1,90,1.0,0.0
289,72.0,0,90,4.0,0.0
290,60.0,0,90,4.0,0.0
291,81.0,0,90,0.0,0.0
292,60.0,0,15,8.0,0.0
293,72.0,14,15,7.0,0.0
294,58.0,15,15,8.0,0.0
295,70.0,0,15,7.0,0.0
296,77.0,0,30,1.0,0.0
297,81.0,0,30,0.0,0.0
298,69.0,0,15,7.0,0.0
299,48.0,0,30,5.0,0.0
300,60.0,1,30,4.0,0.0
301,57.0,0,30,2.0,0.0
302,69.0,0,30,1.0,0.0
303,72.0,0,30,4.0,0.0
304,57.0,14,15,8.0,0.0
305,72.0,0,30,3.0,0.0
306,60.0,0,30,3.0,0.0
307,65.0,0,30,2.0,0.0
308,67.0,0,15,7.0,0.0
309,55.0,100,15,8.0,0.0
310,65.0,0,90,7.0,0.0
311,81.0,0,90,0.0,0.0
312,60.0,0,90,4.0,0.0
313,72.0,0,90,4.0,0.0
314,77.0,0,90,1.0,0.0
315,69.0,0,90,1.0,0.0
316,48.0,120,90,5.0,0.0
317,65.0,0,90,2.0,0.0
318,57.0,0,90,2.0,0.0
319,72.0,0,90,3.0,0.0
320,60.0,0,90,3.0,0.0
321,53.0,0,90,8.0,0.0
322,77.0,0,90,6.0,0.0
323,57.0,0,90,2.0,0.0
324,65.0,0,90,2.0,0.0
325,77.0,0,90,1.0,0.0
326,72.0,0,90,1.0,0.0
327,60.0,0,90,10.0,0.0
328,72.0,0,90,3.0,0.0
329,69.0,120,90,6.0,0.0
330,60.0,0,90,3.0,0.0
331,81.0,0,90,0.0,0.0
332,48.0,0,90,11.0,0.0
333,67.0,95,90,6.0,0.0
334,83.0,0,90,0.0,0.0
335,74.0,0,90,1.0,0.0
336,74.0,0,90,3.0,0.0
337,67.0,0,90,3.0,0.0
338,74.0,0,90,6.0,0.0
339,77.0,0,90,1.0,0.0
340,59.0,0,90,6.0,0.0
341,36.0,0,90,11.0,0.0
342,65.0,0,90,2.0,0.0
343,59.0,0,90,2.0,0.0
344,48.0,0,90,10.0,0.0
345,74.0,0,90,3.0,0.0
346,83.0,0,90,0.0,0.0
347,48.0,0,90,5.0,0.0
348,67.0,0,90,3.0,0.0
349,67.0,0,90,4.0,0.0
350,77.0,0,90,1.0,0.0
351,74.0,0,90,1.0,0.0
352,65.0,0,90,2.0,0.0
353,59.0,1,90,2.0,0.0
354,62.0,0,15,8.0,0.0
355,74.0,14,15,7.0,0.0
356,60.0,0,15,8.0,0.0
357,72.0,15,15,7.0,0.0
358,71.0,0,15,7.0,0.0
359,74.0,0,30,1.0,0.0
360,77.0,0,30,1.0,0.0
361,59.0,14,15,8.0,0.0
362,83.0,0,30,0.0,0.0
363,65.0,0,30,2.0,0.0
364,74.0,0,30,3.0,0.0
365,67.0,0,30,3.0,0.0
366,67.0,0,30,4.0,0.0
367,48.0,1,30,5.0,0.0
368,59.0,0,30,2.0,0.0
369,57.0,100,15,8.0,0.0
370,69.0,0,15,7.0,0.0
371,67.0,120,90,7.0,0.0
372,67.0,0,90,4.0,0.0
373,65.0,0,90,2.0,0.0
374,59.0,0,90,2.0,0.0
375,48.0,0,90,5.0,0.0
376,74.0,0,90,1.0,0.0
377,83.0,0,90,0.0,0.0
378,74.0,0,90,3.0,0.0
379,67.0,0,90,3.0,0.0
380,55.0,0,90,8.0,0.0
381,77.0,0,90,1.0,0.0
382,62.0,0,90,6.0,0.0
383,74.0,0,90,1.0,0.0
384,77.0,120,90,1.0,0.0
385,65.0,0,90,2.0,0.0
386,59.0,0,90,2.0,0.0
387,74.0,0,90,3.0,0.0
388,71.0,0,90,6.0,0.0
389,79.0,0,90,6.0,0.0
390,67.0,0,90,3.0,0.0
391,48.0,0,90,11.0,0.0
392,60.0,0,90,10.0,0.0
393,83.0,0,90,0.0,0.0
394,67.0,0,90,3.0,0.0
395,48.0,0,90,10.0,0.0
396,84.0,0,90,0.0,0.0
397,36.0,0,90,11.0,0.0
398,76.0,0,90,1.0,0.0
399,67.0,95,90,1.0,0.0
400,64.0,0,90,3.0,0.0
401,72.0,0,90,6.0,0.0
402,60.0,0,90,2.0,0.0
403,64.0,0,90,2.0,0.0
404,64.0,0,90,6.0,0.0
405,76.0,0,90,6.0,0.0
406,72.0,0,90,4.0,0.0
407,76.0,0,90,1.0,0.0
408,79.0,0,90,1.0,0.0
409,60.0,0,90,4.0,0.0
410,48.0,1,90,5.0,0.0
411,60.0,0,90,3.0,0.0
412,84.0,0,90,0.0,0.0
413,64.0,0,90,2.0,0.0
414,55.0,0,90,2.0,0.0
415,72.0,0,90,3.0,0.0
416,67.0,0,15,8.0,0.0
417,79.0,14,15,7.0,0.0
418,77.0,0,15,7.0,0.0
419,65.0,15,15,8.0,0.0
420,60.0,0,30,3.0,0.0
421,72.0,0,30,3.0,0.0
422,72.0,0,30,4.0,0.0
423,60.0,0,30,4.0,0.0
424,76.0,0,15,7.0,0.0
425,64.0,14,15,8.0,0.0
426,64.0,0,30,2.0,0.0
427,55.0,1,30,2.0,0.0
428,76.0,0,30,1.0,0.0
429,79.0,0,30,1.0,0.0
430,48.0,0,30,5.0,0.0
431,84.0,0,30,0.0,0.0
432,74.0,0,15,7.0,0.0
433,62.0,100,15,8.0,0.0
434,76.0,0,90,1.0,0.0
435,60.0,0,90,3.0,0.0
436,64.0,0,90,2.0,0.0
437,60.0,120,90,4.0,0.0
438,72.0,0,90,4.0,0.0
439,55.0,0,90,2.0,0.0
440,72.0,0,90,7.0,0.0
441,79.0,0,90,1.0,0.0
442,48.0,0,90,5.0,0.0
443,84.0,0,90,0.0,0.0
444,60.0,0,90,8.0,0.0
445,72.0,0,90,3.0,0.0
446,60.0,0,90,10.0,0.0
447,60.0,0,90,3.0,0.0
448,79.0,120,90,1.0,0.0
449,84.0,0,90,0.0,0.0
450,84.0,0,90,6.0,0.0
451,76.0,0,90,6.0,0.0
452,67.0,0,90,6.0,0.0
453,72.0,0,90,3.0,0.0
454,64.0,0,90,2.0,0.0
455,76.0,0,90,1.0,0.0
456,55.0,0,90,2.0,0.0
457,48.0,0,90,11.0,0.0
458,65.0,0,90,6.0,0.0
459,57.0,0,90,2.0,0.0
460,65.0,0,90,2.0,0.0
461,81.0,0,90,0.0,0.0
462,69.0,0,90,1.0,0.0
463,72.0,0,90,3.0,0.0
464,60.0,0,90,3.0,0.0
465,81.0,0,90,6.0,0.0
466,77.0,0,90,1.0,0.0
467,36.0,0,90,11.0,0.0
468,48.0,95,90,10.0,0.0
469,72.0,0,90,6.0,0.0
470,72.0,0,90,3.0,0.0
471,48.0,0,90,5.0,0.0
472,60.0,0,90,3.0,0.0
473,72.0,0,90,4.0,0.0
474,60.0,0,90,4.0,0.0
475,81.0,0,90,0.0,0.0
476,57.0,0,90,2.0,0.0
477,65.0,0,90,2.0,0.0
478,77.0,0,90,1.0,0.0
479,69.0,1,90,1.0,0.0
480,72.0,0,15,7.0,0.0
481,60.0,14,15,8.0,0.0
482,70.0,15,15,7.0,0.0
483,58.0,0,15,8.0,0.0
484,48.0,0,30,5.0,0.0
485,69.0,14,15,7.0,0.0
486,65.0,0,30,2.0,0.0
487,57.0,0,30,2.0,0.0
488,60.0,0,30,3.0,0.0
489,72.0,0,30,3.0,0.0
490,69.0,0,30,1.0,0.0
491,77.0,1,30,1.0,0.0
492,57.0,0,15,8.0,0.0
493,60.0,0,30,4.0,0.0
494,81.0,0,30,0.0,0.0
495,72.0,0,30,4.0,0.0
496,55.0,100,15,8.0,0.0
497,67.0,0,15,7.0,0.0
498,57.0,0,90,2.0,0.0
499,77.0,0,90,1.0,0.0
500,69.0,0,90,1.0,0.0
501,72.0,0,90,4.0,0.0
502,60.0,0,90,4.0,0.0
503,65.0,0,90,7.0,0.0
504,48.0,0,90,5.0,0.0
505,53.0,0,90,8.0,0.0
506,81.0,0,90,0.0,0.0
507,60.0,120,90,3.0,0.0
508,65.0,0,90,2.0,0.0
509,72.0,0,90,3.0,0.0
510,72.0,0,90,3.0,0.0
511,48.0,0,90,11.0,0.0
512,57.0,0,90,2.0,0.0
513,81.0,120,90,0.0,0.0
514,60.0,0,90,3.0,0.0
515,69.0,0,90,6.0,0.0
516,65.0,0,90,2.0,0.0
517,72.0,0,90,1.0,0.0
518,77.0,0,90,1.0,0.0
519,60.0,0,90,10.0,0.0
520,77.0,0,90,6.0,0.0
521,65.0,0,90,2.0,0.0
522,48.0,0,90,10.0,0.0
523,59.0,0,90,2.0,0.0
524,74.0,95,90,3.0,0.0
525,83.0,0,90,0.0,0.0
526,59.0,0,90,6.0,0.0
527,67.0,0,90,6.0,0.0
528,36.0,0,90,11.0,0.0
529,74.0,0,90,6.0,0.0
530,74.0,0,90,1.0,0.0
531,77.0,0,90,1.0,0.0
532,67.0,0,90,3.0,0.0
533,65.0,0,90,2.0,0.0
534,48.0,0,90,5.0,0.0
535,74.0,0,90,3.0,0.0
536,67.0,0,90,3.0,0.0
537,59.0,0,90,2.0,0.0
538,77.0,0,90,1.0,0.0
539,67.0,0,90,4.0,0.0
540,83.0,1,90,0.0,0.0
541,74.0,0,90,1.0,0.0
542,62.0,0,15,8.0,0.0
543,74.0,14,15,7.0,0.0
544,60.0,0,15,8.0,0.0
545,72.0,15,15,7.0,0.0
546,67.0,1,30,3.0,0.0
547,59.0,14,15,8.0,0.0
548,74.0,0,30,1.0,0.0
549,74.0,0,30,3.0,0.0
550,77.0,0,30,1.0,0.0
551,67.0,0,30,4.0,0.0
552,65.0,0,30,2.0,0.0
553,59.0,0,30,2.0,0.0
554,48.0,0,30,5.0,0.0
555,71.0,0,15,7.0,0.0
556,83.0,0,30,0.0,0.0
557,57.0,100,15,8.0,0.0
558,69.0,0,15,7.0,0.0
559,77.0,0,90,1.0,0.0
560,74.0,0,90,1.0,0.0
561,67.0,0,90,4.0,0.0
562,83.0,0,90,0.0,0.0
563,65.0,0,90,2.0,0.0
564,48.0,0,90,5.0,0.0
565,67.0,0,90,3.0,0.0
566,67.0,120,90,7.0,0.0
567,55.0,0,90,8.0,0.0
568,74.0,0,90,3.0,0.0
569,59.0,0,90,2.0,0.0
570,77.0,0,90,1.0,0.0
571,62.0,0,90,6.0,0.0
572,60.0,0,90,10.0,0.0
573,67.0,0,90,3.0,0.0
574,65.0,0,90,2.0,0.0
575,59.0,0,90,2.0,0.0
576,79.0,120,90,6.0,0.0
577,74.0,0,90,1.0,0.0
578,83.0,0,90,0.0,0.0
579,74.0,0,90,3.0,0.0
580,48.0,0,90,11.0,0.0
581,71.0,0,90,6.0,0.0
582,48.0,0,90,5.0,0.0
583,64.0,0,90,2.0,0.0
584,60.0,0,90,2.0,0.0
585,48.0,0,90,10.0,0.0
586,76.0,0,90,1.0,0.0
587,36.0,0,90,11.0,0.0
588,72.0,95,90,1.0,0.0
589,55.0,0,90,4.0,0.0
590,67.0,0,90,4.0,0.0
591,72.0,0,90,6.0,0.0
592,72.0,0,90,7.0,0.0
593,67.0,0,90,3.0,0.0
594,64.0,0,90,3.0,0.0
595,84.0,0,90,0.0,0.0
596,60.0,0,90,8.0,0.0
597,76.0,0,90,6.0,0.0
598,72.0,0,90,3.0,0.0
599,84.0,0,90,0.0,0.0
600,64.0,0,90,3.0,0.0
601,76.0,0,90,6.0,0.0
602,67.0,5,90,6.0,0.0
603,72.0,0,90,1.0,0.0
604,76.0,0,90,1.0,0.0
605,84.0,0,90,6.0,0.0
606,77.0,15,15,7.0,0.0
607,65.0,0,15,8.0,0.0
608,64.0,0,15,8.0,0.0
609,76.0,10,15,7.0,0.0
610,74.0,15,15,7.0,0.0
611,62.0,0,15,8.0,0.0
612,60.0,100,15,8.0,0.0
613,72.0,0,15,7.0,0.0
614,62.0,0,90,2.0,0.0
615,43.0,0,90,5.0,0.0
616,71.0,0,90,7.0,0.0
617,59.0,0,90,2.0,0.0
618,55.0,0,90,10.0,0.0
619,55.0,0,90,4.0,0.0
620,59.0,0,90,8.0,0.0
621,67.0,95,90,4.0,0.0
622,43.0,0,90,11.0,0.0
623,74.0,0,90,6.0,0.0
624,83.0,0,90,0.0,0.0
625,67.0,0,90,6.0,0.0
626,74.0,5,90,3.0,0.0
627,67.0,0,90,3.0,0.0
628,83.0,0,90,6.0,0.0
629,71.0,0,90,1.0,0.0
630,74.0,0,90,1.0,0.0
631,79.0,15,15,7.0,0.0
632,67.0,0,15,8.0,0.0
633,65.0,10,15,8.0,0.0
634,77.0,0,15,7.0,0.0
635,76.0,0,15,7.0,0.0
636,64.0,15,15,8.0,0.0
637,74.0,100,15,7.0,0.0
638,62.0,0,15,8.0,0.0
639,48.0,94,90,11.0,0.0
640,60.0,0,90,10.0,0.0
641,48.0,0,90,5.0,0.0
642,55.0,0,90,4.0,0.0
643,64.0,0,90,2.0,0.0
644,60.0,0,90,2.0,0.0
645,76.0,0,90,7.0,0.0
646,64.0,0,90,8.0,0.0
647,67.0,0,90,4.0,0.0
648,72.0,0,90,3.0,0.0
649,76.0,0,90,6.0,0.0
650,84.0,0,90,6.0,0.0
651,76.0,0,90,3.0,0.0
652,72.0,4,90,1.0,0.0
653,67.0,0,90,6.0,0.0
654,76.0,0,90,1.0,0.0
655,84.0,0,90,0.0,0.0
656,77.0,14,15,7.0,0.0
657,65.0,1,15,8.0,0.0
658,76.0,10,15,7.0,0.0
659,64.0,1,15,8.0,0.0
660,62.0,1,15,8.0,0.0
661,74.0,14,15,7.0,0.0
662,60.0,1,15,8.0,0.0
663,72.0,100,15,7.0,0.0
664,71.0,0,90,7.0,0.0
665,43.0,0,90,11.0,0.0
666,43.0,0,90,5.0,0.0
667,67.0,0,90,4.0,0.0
668,59.0,0,90,8.0,0.0
669,55.0,95,90,4.0,0.0
670,59.0,0,90,2.0,0.0
671,55.0,0,90,10.0,0.0
672,62.0,0,90,2.0,0.0
673,74.0,0,90,3.0,0.0
674,74.0,0,90,6.0,0.0
675,83.0,0,90,0.0,0.0
676,71.0,0,90,1.0,0.0
677,83.0,0,90,6.0,0.0
678,67.0,0,90,6.0,0.0
679,74.0,0,90,1.0,0.0
680,67.0,5,90,3.0,0.0
681,79.0,0,15,7.0,0.0
682,67.0,15,15,8.0,0.0
683,65.0,10,15,8.0,0.0
684,77.0,0,15,7.0,0.0
685,64.0,15,15,8.0,0.0
686,76.0,0,15,7.0,0.0
687,74.0,100,15,7.0,0.0
688,62.0,0,15,8.0,0.0
689,72.0,0,90,1.0,0.0
690,84.0,0,90,0.0,0.0
691,76.0,0,90,3.0,0.0
692,60.0,79,90,2.0,0.0
693,64.0,0,90,2.0,0.0
694,84.0,0,90,6.0,0.0
695,55.0,0,90,4.0,0.0
696,67.0,0,90,4.0,0.0
697,48.0,0,90,5.0,0.0
698,67.0,0,90,6.0,0.0
699,76.0,0,90,1.0,0.0
700,72.0,0,90,3.0,0.0
701,48.0,0,90,10.0,0.0
702,64.0,0,90,8.0,0.0
703,76.0,0,90,7.0,0.0
704,36.0,0,90,11.0,0.0
705,76.0,0,90,6.0,0.0
706,79.0,0,60,0.0,0.0
707,67.0,19,90,4.0,0.0
708,43.0,0,90,5.0,0.0
709,55.0,0,60,2.0,0.0
710,43.0,0,60,11.0,0.0
711,79.0,41,60,1.0,0.0
712,67.0,0,60,3.0,0.0
713,67.0,0,60,8.0,0.0
714,55.0,0,60,10.0,0.0
715,79.0,0,90,6.0,0.0
716,79.0,0,90,7.0,0.0
717,55.0,0,60,2.0,0.0
718,43.0,0,60,11.0,0.0
719,67.0,0,60,8.0,0.0
720,67.0,0,60,3.0,0.0
721,55.0,0,60,10.0,0.0
722,79.0,60,60,0.0,0.0
723,79.0,0,60,1.0,0.0
724,84.0,0,60,1.0,0.0
725,48.0,41,60,11.0,0.0
726,84.0,0,60,0.0,0.0
727,72.0,0,60,3.0,0.0
728,72.0,0,60,8.0,0.0
729,84.0,0,90,6.0,0.0
730,60.0,0,60,10.0,0.0
731,84.0,0,90,7.0,0.0
732,60.0,0,60,2.0,0.0
733,72.0,0,90,4.0,0.0
734,48.0,19,90,5.0,0.0
735,60.0,0,60,10.0,0.0
736,84.0,0,60,1.0,0.0
737,84.0,0,60,0.0,0.0
738,72.0,0,60,8.0,0.0
739,72.0,0,60,3.0,0.0
740,60.0,0,60,2.0,0.0
741,48.0,60,60,11.0,0.0
742,55.0,0,60,2.0,0.0
743,43.0,0,90,5.0,0.0
744,79.0,0,60,0.0,0.0
745,79.0,0,60,1.0,0.0
746,67.0,41,60,8.0,0.0
747,79.0,0,90,6.0,0.0
748,67.0,19,90,4.0,0.0
749,67.0,0,60,3.0,0.0
750,55.0,0,60,10.0,0.0
751,43.0,0,60,11.0,0.0
752,79.0,0,90,7.0,0.0
753,67.0,0,60,3.0,0.0
754,79.0,60,60,1.0,0.0
755,67.0,0,60,8.0,0.0
756,43.0,0,60,11.0,0.0
757,55.0,0,60,2.0,0.0
758,55.0,0,60,10.0,0.0
759,79.0,0,60,0.0,0.0
760,84.0,0,60,1.0,0.0
761,48.0,19,90,5.0,0.0
762,84.0,0,90,6.0,0.0
763,84.0,0,60,0.0,0.0
764,72.0,0,90,4.0,0.0
765,48.0,0,60,11.0,0.0
766,72.0,0,60,3.0,0.0
767,60.0,0,60,10.0,0.0
768,60.0,0,60,2.0,0.0
769,72.0,41,60,8.0,0.0
770,84.0,0,90,7.0,0.0
771,84.0,60,60,1.0,0.0
772,60.0,0,60,10.0,0.0
773,48.0,0,60,11.0,0.0
774,72.0,0,60,8.0,0.0
775,60.0,0,60,2.0,0.0
776,72.0,0,60,3.0,0.0
777,84.0,0,60,0.0,0.0
778,67.0,0,60,3.0,0.0
779,43.0,0,60,11.0,0.0
780,55.0,0,60,2.0,0.0
781,67.0,0,60,8.0,0.0
782,67.0,19,90,4.0,0.0
783,79.0,41,60,1.0,0.0
784,79.0,0,90,7.0,0.0
785,79.0,0,60,0.0,0.0
786,55.0,0,60,10.0,0.0
787,79.0,0,90,6.0,0.0
788,48.0,0,60,5.0,0.0
789,48.0,0,60,5.0,0.0
790,55.0,0,60,2.0,0.0
791,79.0,0,60,0.0,0.0
792,43.0,0,60,11.0,0.0
793,67.0,0,60,3.0,0.0
794,79.0,0,60,1.0,0.0
795,55.0,0,60,10.0,0.0
796,67.0,60,60,8.0,0.0
797,64.0,0,60,8.0,0.0
798,76.0,0,90,6.0,0.0
799,76.0,0,60,1.0,0.0
800,76.0,0,60,0.0,0.0
801,76.0,19,90,7.0,0.0
802,64.0,0,60,3.0,0.0
803,64.0,0,90,4.0,0.0
804,48.0,0,90,5.0,0.0
805,52.0,0,60,10.0,0.0
806,40.0,0,60,11.0,0.0
807,52.0,41,60,2.0,0.0
808,76.0,0,60,1.0,0.0
809,52.0,0,60,10.0,0.0
810,64.0,0,60,3.0,0.0
811,40.0,0,60,11.0,0.0
812,64.0,60,60,8.0,0.0
813,52.0,0,60,2.0,0.0
814,76.0,0,60,0.0,0.0
815,36.0,0,60,11.0,0.0
816,60.0,0,60,3.0,0.0
817,60.0,0,90,4.0,0.0
818,48.0,41,60,10.0,0.0
819,72.0,0,60,1.0,0.0
820,72.0,19,90,6.0,0.0
821,72.0,0,90,7.0,0.0
822,60.0,0,60,8.0,0.0
823,48.0,0,90,5.0,0.0
824,72.0,0,60,0.0,0.0
825,48.0,0,60,2.0,0.0
826,60.0,0,60,3.0,0.0
827,72.0,101,60,0.0,0.0
828,48.0,0,60,2.0,0.0
829,72.0,0,60,1.0,0.0
830,60.0,0,60,8.0,0.0
831,48.0,0,60,10.0,0.0
832,36.0,0,60,11.0,0.0
833,52.0,0,90,2.0,0.0
834,55.0,0,90,4.0,0.0
835,67.0,0,90,4.0,0.0
836,67.0,0,90,0.0,0.0
837,67.0,0,90,6.0,0.0
838,43.0,0,90,10.0,0.0
839,67.0,0,90,7.0,0.0
840,67.0,0,90,1.0,0.0
841,55.0,0,90,8.0,0.0
842,43.0,0,90,5.0,0.0
843,31.0,120,90,11.0,0.0
844,67.0,0,90,3.0,0.0
845,67.0,19,90,3.0,0.0
846,59.0,0,90,2.0,0.0
847,83.0,0,90,0.0,0.0
848,62.0,0,90,2.0,0.0
849,79.0,0,90,1.0,0.0
850,74.0,0,90,1.0,0.0
851,79.0,0,90,3.0,0.0
852,55.0,0,60,10.0,0.0
853,67.0,0,60,8.0,0.0
854,83.0,101,60,6.0,0.0
855,74.0,0,60,7.0,0.0
856,43.0,0,60,11.0,0.0
857,48.0,0,90,11.0,0.0
858,67.0,0,90,4.0,0.0
859,60.0,0,90,10.0,0.0
860,55.0,0,90,4.0,0.0
861,48.0,0,90,5.0,0.0
862,84.0,0,90,6.0,0.0
863,72.0,0,90,8.0,0.0
864,76.0,120,90,7.0,0.0
865,76.0,19,90,1.0,0.0
866,79.0,0,90,1.0,0.0
867,67.0,0,90,3.0,0.0
868,64.0,0,90,2.0,0.0
869,79.0,0,90,3.0,0.0
870,84.0,0,90,0.0,0.0
871,60.0,0,90,2.0,0.0
872,76.0,101,60,7.0,0.0
873,84.0,0,60,6.0,0.0
874,48.0,0,60,11.0,0.0
875,72.0,0,60,8.0,0.0
876,60.0,0,60,10.0,0.0
877,74.0,0,90,7.0,0.0
878,83.0,0,90,6.0,0.0
879,55.0,120,90,4.0,0.0
880,55.0,0,90,10.0,0.0
881,43.0,0,90,5.0,0.0
882,67.0,0,90,8.0,0.0
883,67.0,0,90,4.0,0.0
884,43.0,0,90,11.0,0.0
885,62.0,19,90,2.0,0.0
886,59.0,0,90,2.0,0.0
887,79.0,0,90,3.0,0.0
888,67.0,0,90,3.0,0.0
889,83.0,0,90,0.0,0.0
890,74.0,0,90,1.0,0.0
891,79.0,0,90,1.0,0.0
892,67.0,0,60,8.0,0.0
893,74.0,0,60,7.0,0.0
894,83.0,0,60,6.0,0.0
895,55.0,101,60,10.0,0.0
896,43.0,0,60,11.0,0.0
897,55.0,0,90,4.0,0.0
898,84.0,0,90,6.0,0.0
899,48.0,120,90,5.0,0.0
900,48.0,0,90,11.0,0.0
901,60.0,0,90,10.0,0.0
902,72.0,0,90,8.0,0.0
903,67.0,0,90,4.0,0.0
904,76.0,0,90,7.0,0.0
905,64.0,0,90,2.0,0.0
906,60.0,0,90,2.0,0.0
907,67.0,0,90,3.0,0.0
908,79.0,0,90,3.0,0.0
909,76.0,0,90,1.0,0.0
910,79.0,0,90,1.0,0.0
911,84.0,19,90,0.0,0.0
912,60.0,0,60,10.0,0.0
913,48.0,60,60,11.0,0.0
914,84.0,0,60,6.0,0.0
915,72.0,0,60,8.0,0.0
916,76.0,0,60,7.0,0.0
917,67.0,0,60,3.0,0.0
918,55.0,0,60,4.0,0.0
919,83.0,41,60,6.0,0.0
920,74.0,0,60,7.0,0.0
921,74.0,0,60,3.0,0.0
922,67.0,0,60,8.0,0.0
923,43.0,0,60,11.0,0.0
924,67.0,0,60,4.0,0.0
925,62.0,0,60,2.0,0.0
926,59.0,0,60,2.0,0.0
927,83.0,0,60,0.0,0.0
928,55.0,0,60,10.0,0.0
929,74.0,0,60,1.0,0.0
930,79.0,0,60,1.0,0.0
931,43.0,19,90,5.0,0.0
932,64.0,0,60,2.0,0.0
933,55.0,0,60,4.0,0.0
934,72.0,0,60,3.0,0.0
935,76.0,60,60,3.0,0.0
936,76.0,0,60,7.0,0.0
937,48.0,0,60,11.0,0.0
938,72.0,0,60,8.0,0.0
939,67.0,0,60,4.0,0.0
940,84.0,0,60,6.0,0.0
941,76.0,0,60,1.0,0.0
942,60.0,0,60,2.0,0.0
943,84.0,0,60,0.0,0.0
944,60.0,0,60,10.0,0.0
945,79.0,0,60,1.0,0.0
946,83.0,0,60,6.0,0.0
947,67.0,0,60,3.0,0.0
948,74.0,0,60,1.0,0.0
949,79.0,0,60,1.0,0.0
950,67.0,0,60,8.0,0.0
951,83.0,41,60,0.0,0.0
952,74.0,0,60,7.0,0.0
953,67.0,0,60,4.0,0.0
954,55.0,0,60,4.0,0.0
955,43.0,0,60,11.0,0.0
956,43.0,19,90,5.0,0.0
957,62.0,0,60,2.0,0.0
958,55.0,0,60,10.0,0.0
959,59.0,0,60,2.0,0.0
960,74.0,0,60,3.0,0.0
961,48.0,0,60,11.0,0.0
962,76.0,0,60,1.0,0.0
963,64.0,0,60,2.0,0.0
964,60.0,0,60,2.0,0.0
965,76.0,0,60,7.0,0.0
966,84.0,0,60,0.0,0.0
967,72.0,0,60,3.0,0.0
968,76.0,0,60,3.0,0.0
969,79.0,0,60,1.0,0.0
970,84.0,0,60,6.0,0.0
971,55.0,60,60,4.0,0.0
972,67.0,0,60,4.0,0.0
973,72.0,0,60,8.0,0.0
974,60.0,0,60,10.0,0.0
975,59.0,41,60,2.0,0.0
976,62.0,0,60,2.0,0.0
977,67.0,0,60,3.0,0.0
978,74.0,0,60,3.0,0.0
979,83.0,0,60,0.0,0.0
980,55.0,0,60,10.0,0.0
981,83.0,0,60,6.0,0.0
982,43.0,0,60,11.0,0.0
983,74.0,0,60,1.0,0.0
984,79.0,0,60,1.0,0.0
985,67.0,0,60,8.0,0.0
986,74.0,0,60,7.0,0.0
987,43.0,19,90,5.0,0.0
988,55.0,0,60,4.0,0.0
989,67.0,0,60,4.0,0.0
990,60.0,0,60,2.0,0.0
991,84.0,0,60,6.0,0.0
992,48.0,60,60,11.0,0.0
993,72.0,0,60,8.0,0.0
994,84.0,0,60,0.0,0.0
995,76.0,0,60,1.0,0.0
996,79.0,0,60,1.0,0.0
997,76.0,0,60,7.0,0.0
998,76.0,0,60,3.0,0.0
999,72.0,0,60,3.0,0.0
1000,64.0,0,60,2.0,0.0
1001,60.0,0,60,10.0,0.0
1002,67.0,0,60,4.0,0.0
1003,55.0,0,60,4.0,0.0
1004,83.0,0,60,0.0,0.0
1005,55.0,0,60,10.0,0.0
1006,67.0,0,60,4.0,0.0
1007,67.0,0,60,3.0,0.0
1008,74.0,0,60,3.0,0.0
1009,55.0,0,60,4.0,0.0
1010,62.0,0,60,2.0,0.0
1011,74.0,41,60,1.0,0.0
1012,43.0,0,60,11.0,0.0
1013,83.0,0,60,6.0,0.0
1014,59.0,0,60,2.0,0.0
1015,74.0,0,60,7.0,0.0
1016,79.0,0,60,1.0,0.0
1017,43.0,19,90,5.0,0.0
1018,67.0,0,60,8.0,0.0
1019,76.0,0,60,1.0,0.0
1020,84.0,0,60,6.0,0.0
1021,67.0,0,60,4.0,0.0
1022,55.0,0,60,4.0,0.0
1023,48.0,0,60,11.0,0.0
1024,76.0,0,60,3.0,0.0
1025,72.0,0,60,8.0,0.0
1026,64.0,101,60,2.0,0.0
1027,60.0,0,60,2.0,0.0
1028,76.0,0,60,7.0,0.0
1029,84.0,0,60,0.0,0.0
1030,79.0,0,60,1.0,0.0
1031,72.0,0,60,3.0,0.0
1032,60.0,0,60,10.0,0.0
1033,67.0,0,90,8.0,0.0
1034,74.0,0,90,1.0,0.0
1035,43.0,0,90,11.0,0.0
1036,83.0,0,90,6.0,0.0
1037,83.0,0,90,0.0,0.0
1038,43.0,120,90,5.0,0.0
1039,62.0,0,90,2.0,0.0
1040,79.0,0,90,1.0,0.0
1041,74.0,0,90,3.0,0.0
1042,55.0,0,90,10.0,0.0
1043,67.0,0,90,3.0,0.0
1044,67.0,0,90,4.0,0.0
1045,55.0,0,90,4.0,0.0
1046,74.0,0,90,7.0,0.0
1047,59.0,0,90,2.0,0.0
1048,43.0,0,90,11.0,0.0
1049,55.0,0,90,10.0,0.0
1050,79.0,0,90,7.0,0.0
1051,67.0,0,90,8.0,0.0
1052,62.0,0,90,7.0,0.0
1053,71.0,0,90,7.0,0.0
1054,79.0,0,90,6.0,0.0
1055,71.0,0,90,6.0,0.0
1056,62.0,120,90,6.0,0.0
1057,67.0,0,90,1.0,0.0
1058,55.0,0,90,3.0,0.0
1059,67.0,0,90,3.0,0.0
1060,79.0,0,90,1.0,0.0
1061,55.0,120,90,8.0,0.0
1062,43.0,0,90,10.0,0.0
1063,67.0,0,90,6.0,0.0
1064,43.0,0,90,2.0,0.0
1065,55.0,0,90,2.0,0.0
1066,67.0,0,90,4.0,0.0
1067,31.0,0,90,11.0,0.0
1068,55.0,0,90,4.0,0.0
1069,55.0,0,90,7.0,0.0
1070,55.0,0,90,6.0,0.0
1071,79.0,0,90,0.0,0.0
1072,43.0,0,90,5.0,0.0
1073,67.0,0,90,7.0,0.0
1074,43.0,470,90,2.0,0.0
1075,67.0,0,90,1.0,0.0
1076,55.0,0,90,8.0,0.0
1077,67.0,0,90,7.0,0.0
1078,55.0,0,90,7.0,0.0
1079,43.0,0,90,10.0,0.0
1080,79.0,0,90,0.0,0.0
1081,55.0,0,90,4.0,0.0
1082,55.0,0,90,2.0,0.0
1083,67.0,0,90,4.0,0.0
1084,55.0,0,90,6.0,0.0
1085,67.0,0,90,6.0,0.0
1086,31.0,0,90,11.0,0.0
1087,79.0,0,90,1.0,0.0
1088,43.0,0,90,5.0,0.0
1089,55.0,0,90,3.0,0.0
1090,67.0,0,90,3.0,0.0
1091,67.0,0,450,4.0,0.0
1092,55.0,0,450,6.0,0.0
1093,55.0,0,450,4.0,0.0
1094,67.0,0,450,6.0,0.0
1095,79.0,0,450,0.0,0.0
1096,31.0,0,450,11.0,0.0
1097,43.0,0,450,5.0,0.0
1098,67.0,0,450,3.0,0.0
1099,55.0,130,450,3.0,0.0
1100,67.0,0,450,1.0,0.0
1101,43.0,0,450,2.0,0.0
1102,55.0,0,450,8.0,0.0
1103,79.0,0,450,1.0,0.0
1104,67.0,0,450,7.0,0.0
1105,55.0,0,450,2.0,0.0
1106,43.0,0,450,10.0,0.0
1107,55.0,0,450,7.0,0.0
1108,60.0,20,90,7.0,0.0
1109,72.0,0,240,0.0,0.0
1110,60.0,80,120,3.0,0.0
1111,64.0,100,240,1.0,0.0
1112,72.0,0,120,3.0,0.0
1113,60.0,0,90,6.0,0.0
1114,76.0,0,120,3.0,0.0
1115,64.0,0,120,3.0,0.0
1116,55.0,0,20,7.0,0.0
1117,55.0,20,20,6.0,0.0
1118,57.0,20,20,7.0,0.0
1119,57.0,0,20,6.0,0.0
1120,59.0,0,20,6.0,0.0
1121,59.0,0,20,7.0,0.0
1122,79.0,0,120,3.0,0.0
1123,60.0,20,90,7.0,0.0
1124,67.0,80,120,3.0,0.0
1125,84.0,21,300,0.0,0.0
1126,76.0,0,300,1.0,0.0
1127,60.0,0,90,6.0,0.0
1128,76.0,20,90,3.0,0.0
1129,64.0,0,90,3.0,0.0
1130,55.0,20,20,6.0,0.0
1131,55.0,0,20,7.0,0.0
1132,57.0,0,20,7.0,0.0
1133,57.0,0,20,6.0,0.0
1134,59.0,59,20,7.0,0.0
1135,59.0,0,20,6.0,0.0
1136,60.0,0,90,3.0,0.0
1137,72.0,0,90,3.0,0.0
1138,60.0,40,90,7.0,0.0
1139,60.0,0,90,6.0,0.0
1140,79.0,0,20,1.0,0.0
1141,83.0,20,20,0.0,0.0
1142,77.0,0,20,1.0,0.0
1143,81.0,60,20,0.0,0.0
1144,76.0,60,20,1.0,0.0
1145,79.0,0,20,0.0,0.0
1146,77.0,60,20,0.0,0.0
1147,74.0,0,20,1.0,0.0
1148,76.0,0,20,0.0,0.0
1149,72.0,60,20,1.0,0.0
1150,74.0,60,20,0.0,0.0
1151,71.0,0,20,1.0,0.0
1152,72.0,0,20,1.0,0.0
1153,60.0,181,60,7.0,0.0
1154,72.0,39,20,0.0,0.0
1155,72.0,0,60,6.0,0.0
1156,72.0,60,180,6.0,0.0
1157,60.0,0,180,7.0,0.0
1158,77.0,0,240,0.0,0.0
1159,67.0,0,810,2.0,0.0
1160,74.0,180,240,1.0,0.0
1161,71.0,0,60,6.0,0.0
1162,59.0,0,60,7.0,0.0
1163,62.0,0,180,7.0,0.0
1164,76.0,29,210,0.0,0.0
1165,72.0,0,210,1.0,0.0
1166,74.0,30,180,6.0,0.0
1167,72.0,0,60,6.0,0.0
1168,60.0,241,60,7.0,0.0
1169,74.0,10,330,0.0,0.0
1170,67.0,0,240,7.0,0.0
1171,71.0,0,330,1.0,0.0
1172,79.0,90,240,6.0,0.0
1173,65.0,0,90,7.0,0.0
1174,77.0,240,90,6.0,0.0
1175,67.0,0,90,6.0,0.0
1176,67.0,20,90,7.0,0.0
1177,71.0,0,240,1.0,0.0
1178,43.0,80,120,2.0,0.0
1179,74.0,0,240,0.0,0.0
1180,55.0,0,120,2.0,0.0
1181,47.0,0,120,2.0,0.0
1182,59.0,0,120,2.0,0.0
1183,62.0,0,20,6.0,0.0
1184,62.0,20,20,7.0,0.0
1185,64.0,0,20,6.0,0.0
1186,64.0,20,20,7.0,0.0
1187,66.0,100,20,7.0,0.0
1188,66.0,0,20,6.0,0.0
1189,62.0,0,120,2.0,0.0
1190,50.0,80,120,2.0,0.0
1191,83.0,0,300,1.0,0.0
1192,67.0,0,90,6.0,0.0
1193,86.0,21,300,0.0,0.0
1194,67.0,20,90,7.0,0.0
1195,47.0,0,90,2.0,0.0
1196,59.0,0,90,2.0,0.0
1197,62.0,20,20,6.0,0.0
1198,62.0,0,20,7.0,0.0
1199,64.0,20,20,6.0,0.0
1200,64.0,0,20,7.0,0.0
1201,66.0,0,20,7.0,0.0
1202,66.0,59,20,6.0,0.0
1203,67.0,40,90,6.0,0.0
1204,43.0,0,90,2.0,0.0
1205,55.0,0,90,2.0,0.0
1206,67.0,0,90,7.0,0.0
1207,84.0,0,20,0.0,0.0
1208,81.0,20,20,1.0,0.0
1209,79.0,60,20,1.0,0.0
1210,83.0,0,20,0.0,0.0
1211,81.0,60,20,0.0,0.0
1212,77.0,0,20,1.0,0.0
1213,79.0,0,20,0.0,0.0
1214,76.0,60,20,1.0,0.0
1215,74.0,60,20,1.0,0.0
1216,77.0,0,20,0.0,0.0
1217,72.0,0,20,1.0,0.0
1218,76.0,60,20,0.0,0.0
1219,71.0,0,20,1.0,0.0
1220,74.0,181,60,6.0,0.0
1221,62.0,0,60,7.0,0.0
1222,74.0,39,20,0.0,0.0
1223,82.0,0,240,0.0,0.0
1224,62.0,0,180,7.0,0.0
1225,74.0,60,180,6.0,0.0
1226,64.0,180,240,2.0,0.0
1227,79.0,0,240,1.0,0.0
1228,61.0,0,60,7.0,0.0
1229,73.0,0,60,6.0,0.0
1230,64.0,30,180,7.0,0.0
1231,65.0,29,210,2.0,0.0
1232,77.0,0,210,1.0,0.0
1233,76.0,0,180,6.0,0.0
1234,81.0,0,210,0.0,0.0
1235,74.0,0,60,6.0,0.0
1236,62.0,31,60,7.0,0.0
1237,70.0,30,240,7.0,0.0
1238,76.0,0,30,1.0,0.0
1239,82.0,0,240,6.0,0.0
1240,61.0,0,30,2.0,0.0
1241,79.0,120,30,0.0,0.0
1242,79.0,90,30,0.0,0.0
1243,61.0,0,30,2.0,0.0
1244,76.0,0,30,1.0,0.0
1245,76.0,29,30,1.0,0.0
1246,69.0,0,60,7.0,0.0
1247,81.0,141,60,6.0,0.0
1248,79.0,0,30,0.0,0.0
1249,61.0,0,30,2.0,0.0
1250,64.0,0,90,7.0,0.0
1251,76.0,70,90,6.0,0.0
1252,75.0,120,30,1.0,0.0
1253,67.0,0,240,7.0,0.0
1254,79.0,30,240,6.0,0.0
1255,60.0,0,30,2.0,0.0
1256,81.0,0,30,0.0,0.0
1257,81.0,0,30,0.0,0.0
1258,60.0,0,30,2.0,0.0
1259,75.0,90,30,1.0,0.0
1260,60.0,0,30,2.0,0.0
1261,81.0,29,30,0.0,0.0
1262,66.0,141,60,7.0,0.0
1263,78.0,0,60,6.0,0.0
1264,74.0,0,30,1.0,0.0
1265,74.0,0,90,6.0,0.0
1266,62.0,70,90,7.0,0.0
1267,80.0,0,240,6.0,0.0
1268,77.0,0,30,0.0,0.0
1269,68.0,30,240,7.0,0.0
1270,74.0,120,30,1.0,0.0
1271,59.0,0,30,2.0,0.0
1272,59.0,0,30,2.0,0.0
1273,77.0,0,30,0.0,0.0
1274,74.0,90,30,1.0,0.0
1275,79.0,141,60,6.0,0.0
1276,67.0,0,60,7.0,0.0
1277,74.0,29,30,1.0,0.0
1278,77.0,0,30,0.0,0.0
1279,59.0,0,30,2.0,0.0
1280,62.0,70,90,7.0,0.0
1281,74.0,0,90,6.0,0.0
1282,77.0,30,240,6.0,0.0
1283,73.0,0,30,1.0,0.0
1284,79.0,120,30,0.0,0.0
1285,65.0,0,240,7.0,0.0
1286,58.0,0,30,2.0,0.0
1287,73.0,0,30,1.0,0.0
1288,79.0,0,30,0.0,0.0
1289,58.0,90,30,2.0,0.0
1290,72.0,0,30,1.0,0.0
1291,64.0,141,60,7.0,0.0
1292,58.0,0,30,2.0,0.0
1293,79.0,29,30,0.0,0.0
1294,76.0,0,60,6.0,0.0
1295,60.0,0,90,7.0,0.0
1296,72.0,160,90,6.0,0.0
1297,67.0,0,120,7.0,0.0
1298,57.0,120,240,10.0,0.0
1299,60.0,0,240,8.0,0.0
1300,79.0,120,120,6.0,0.0
1301,45.0,0,240,11.0,0.0
1302,77.0,0,240,6.0,0.0
1303,65.0,90,240,7.0,0.0
1304,43.0,0,210,11.0,0.0
1305,59.0,100,240,8.0,0.0
1306,55.0,30,210,10.0,0.0
1307,64.0,0,120,7.0,0.0
1308,76.0,0,120,6.0,0.0
1309,53.0,0,360,10.0,0.0
1310,76.0,20,90,6.0,0.0
1311,57.0,10,450,8.0,0.0
1312,64.0,100,120,7.0,0.0
1313,41.0,90,360,11.0,0.0
1314,74.0,20,90,6.0,0.0
1315,62.0,100,120,7.0,0.0
1316,69.0,0,120,7.0,0.0
1317,81.0,20,90,6.0,0.0
1318,60.0,0,90,7.0,0.0
1319,42.0,0,90,11.0,0.0
1320,54.0,120,90,10.0,0.0
1321,72.0,0,90,6.0,0.0
1322,79.0,0,210,0.0,0.0
1323,67.0,0,90,8.0,0.0
1324,55.0,20,90,8.0,0.0
1325,62.0,0,90,6.0,0.0
1326,71.0,0,90,6.0,0.0
1327,55.0,0,90,10.0,0.0
1328,79.0,0,90,6.0,0.0
1329,67.0,0,90,3.0,0.0
1330,59.0,0,90,7.0,0.0
1331,67.0,0,90,7.0,0.0
1332,67.0,0,90,4.0,0.0
1333,43.0,0,90,11.0,0.0
1334,55.0,0,120,2.0,0.0
1335,43.0,0,120,2.0,0.0
1336,43.0,0,90,5.0,0.0
1337,67.0,80,120,1.0,0.0
1338,47.0,100,120,2.0,0.0
1339,59.0,0,120,2.0,0.0
1340,71.0,10,90,1.0,0.0
1341,62.0,0,20,6.0,0.0
1342,62.0,0,20,8.0,0.0
1343,38.0,0,20,11.0,0.0
1344,62.0,10,20,7.0,0.0
1345,50.0,0,20,10.0,0.0
1346,40.0,0,20,11.0,0.0
1347,64.0,0,20,8.0,0.0
1348,52.0,20,20,10.0,0.0
1349,64.0,0,20,6.0,0.0
1350,64.0,0,20,7.0,0.0
1351,66.0,0,20,7.0,0.0
1352,54.0,0,20,10.0,0.0
1353,42.0,0,20,11.0,0.0
1354,66.0,0,20,8.0,0.0
1355,66.0,0,20,6.0,0.0
1356,67.0,0,90,6.0,0.0
1357,43.0,0,90,11.0,0.0
1358,43.0,0,90,5.0,0.0
1359,55.0,0,90,10.0,0.0
1360,83.0,21,300,1.0,0.0
1361,74.0,0,120,1.0,0.0
1362,67.0,0,90,4.0,0.0
1363,67.0,0,90,8.0,0.0
1364,67.0,0,90,3.0,0.0
1365,67.0,20,90,7.0,0.0
1366,91.0,39,270,0.0,0.0
1367,62.0,80,120,2.0,0.0
1368,50.0,0,120,2.0,0.0
1369,47.0,0,90,2.0,0.0
1370,71.0,0,90,1.0,0.0
1371,59.0,0,90,2.0,0.0
1372,38.0,0,20,11.0,0.0
1373,62.0,0,20,7.0,0.0
1374,50.0,0,20,10.0,0.0
1375,62.0,20,20,8.0,0.0
1376,62.0,0,20,6.0,0.0
1377,52.0,0,20,10.0,0.0
1378,64.0,0,20,8.0,0.0
1379,64.0,0,20,6.0,0.0
1380,64.0,20,20,7.0,0.0
1381,40.0,0,20,11.0,0.0
1382,66.0,0,20,8.0,0.0
1383,42.0,0,20,11.0,0.0
1384,54.0,0,20,10.0,0.0
1385,66.0,20,20,7.0,0.0
1386,66.0,0,20,6.0,0.0
1387,67.0,0,90,1.0,0.0
1388,55.0,0,90,2.0,0.0
1389,43.0,0,90,2.0,0.0
1390,55.0,0,90,10.0,0.0
1391,43.0,0,90,5.0,0.0
1392,67.0,0,90,7.0,0.0
1393,43.0,40,90,11.0,0.0
1394,67.0,0,90,8.0,0.0
1395,67.0,0,90,3.0,0.0
1396,67.0,0,90,6.0,0.0
1397,67.0,0,90,4.0,0.0
1398,90.0,0,20,0.0,0.0
1399,86.0,20,20,1.0,0.0
1400,88.0,60,20,0.0,0.0
1401,84.0,0,20,1.0,0.0
1402,83.0,0,20,1.0,0.0
1403,86.0,60,20,0.0,0.0
1404,81.0,0,20,1.0,0.0
1405,84.0,60,20,0.0,0.0
1406,83.0,0,20,0.0,0.0
1407,79.0,60,20,1.0,0.0
1408,81.0,60,20,0.0,0.0
1409,78.0,0,20,1.0,0.0
1410,79.0,0,20,0.0,0.0
1411,59.0,60,60,10.0,0.0
1412,59.0,0,30,7.0,0.0
1413,59.0,20,20,2.0,0.0
1414,47.0,0,60,11.0,0.0
1415,79.0,0,20,1.0,0.0
1416,79.0,19,30,6.0,0.0
1417,67.0,0,60,8.0,0.0
1418,55.0,1,60,8.0,0.0
1419,60.0,59,180,7.0,0.0
1420,43.0,19,90,5.0,0.0
1421,60.0,19,150,10.0,0.0
1422,81.0,0,180,6.0,0.0
1423,91.0,0,3690,0.0,0.0
1424,79.0,10,3690,1.0,0.0
1425,60.0,0,180,2.0,0.0
1426,67.0,0,60,8.0,0.0
1427,55.0,1,60,8.0,0.0
1428,55.0,0,15,10.0,0.0
1429,43.0,40,15,11.0,0.0
1430,43.0,40,15,11.0,0.0
1431,55.0,0,15,10.0,0.0
1432,67.0,1,60,8.0,0.0
1433,55.0,0,60,8.0,0.0
1434,67.0,0,60,8.0,0.0
1435,55.0,0,60,8.0,0.0
1436,59.0,0,60,7.0,0.0
1437,43.0,0,15,11.0,0.0
1438,59.0,0,60,2.0,0.0
1439,79.0,0,60,6.0,0.0
1440,59.0,60,60,10.0,0.0
1441,55.0,0,60,10.0,0.0
1442,62.0,59,180,2.0,0.0
1443,62.0,19,150,10.0,0.0
1444,83.0,0,180,6.0,0.0
1445,43.0,19,90,5.0,0.0
1446,43.0,0,60,11.0,0.0
1447,55.0,40,60,10.0,0.0
1448,67.0,1,60,8.0,0.0
1449,55.0,0,60,8.0,0.0
1450,62.0,0,180,7.0,0.0
1451,67.0,0,60,8.0,0.0
1452,55.0,40,60,10.0,0.0
1453,55.0,1,60,8.0,0.0
1454,43.0,0,15,11.0,0.0
1455,67.0,0,60,8.0,0.0
1456,55.0,1,60,8.0,0.0
1457,81.0,0,60,6.0,0.0
1458,55.0,0,60,8.0,0.0
1459,67.0,0,60,8.0,0.0
1460,43.0,0,15,11.0,0.0
1461,60.0,0,60,7.0,0.0
1462,60.0,0,60,2.0,0.0
1463,55.0,0,15,10.0,0.0
1464,60.0,0,60,10.0,0.0
1465,84.0,0,240,6.0,0.0
1466,64.0,0,240,2.0,0.0
1467,67.0,0,15,3.0,0.0
1468,67.0,59,15,4.0,0.0
1469,64.0,59,240,7.0,0.0
1470,43.0,19,90,5.0,0.0
1471,64.0,29,210,10.0,0.0
1472,55.0,0,60,10.0,0.0
1473,67.0,1,60,8.0,0.0
1474,55.0,0,60,8.0,0.0
1475,43.0,40,15,11.0,0.0
1476,55.0,1,60,8.0,0.0
1477,67.0,0,60,8.0,0.0
1478,67.0,1,60,8.0,0.0
1479,55.0,0,60,8.0,0.0
1480,55.0,59,15,10.0,0.0
1481,67.0,0,90,4.0,0.0
1482,43.0,29,60,11.0,0.0
1483,67.0,1,90,3.0,0.0
1484,55.0,0,60,10.0,0.0
1485,67.0,0,60,8.0,0.0
1486,55.0,0,60,8.0,0.0
1487,67.0,1,30,3.0,0.0
1488,67.0,0,30,4.0,0.0
1489,62.0,0,90,2.0,0.0
1490,67.0,0,90,4.0,0.0
1491,62.0,0,90,7.0,0.0
1492,43.0,0,15,11.0,0.0
1493,55.0,41,60,10.0,0.0
1494,62.0,19,90,10.0,0.0
1495,67.0,0,60,8.0,0.0
1496,55.0,0,60,8.0,0.0
1497,83.0,0,90,6.0,0.0
1498,67.0,0,90,3.0,0.0
1499,43.0,0,60,11.0,0.0
1500,55.0,0,60,8.0,0.0
1501,67.0,60,60,8.0,0.0
1502,55.0,0,60,10.0,0.0
1503,55.0,21,60,10.0,0.0
1504,43.0,0,60,11.0,0.0
1505,67.0,0,60,8.0,0.0
1506,55.0,0,60,8.0,0.0
1507,67.0,0,90,3.0,0.0
1508,67.0,19,90,4.0,0.0
1509,80.0,0,30,6.0,0.0
1510,59.0,0,30,7.0,0.0
1511,67.0,0,60,8.0,0.0
1512,55.0,0,60,8.0,0.0
1513,43.0,60,60,11.0,0.0
1514,59.0,20,20,2.0,0.0
1515,59.0,0,60,10.0,0.0
1516,55.0,0,60,10.0,0.0
1517,67.0,1,60,8.0,0.0
1518,55.0,0,60,8.0,0.0
1519,62.0,19,150,10.0,0.0
1520,62.0,0,180,7.0,0.0
1521,67.0,0,480,3.0,0.0
1522,62.0,59,180,2.0,0.0
1523,43.0,19,90,5.0,0.0
1524,83.0,0,180,6.0,0.0
1525,67.0,0,60,8.0,0.0
1526,55.0,1,60,8.0,0.0
1527,43.0,0,15,11.0,0.0
1528,55.0,40,15,10.0,0.0
1529,43.0,40,15,11.0,0.0
1530,67.0,0,60,8.0,0.0
1531,55.0,1,60,8.0,0.0
1532,55.0,0,60,10.0,0.0
1533,55.0,60,60,8.0,0.0
1534,67.0,0,60,8.0,0.0
1535,55.0,0,60,10.0,0.0
1536,60.0,0,60,10.0,0.0
1537,60.0,0,60,7.0,0.0
1538,43.0,0,60,11.0,0.0
1539,60.0,0,60,2.0,0.0
1540,81.0,0,60,6.0,0.0
1541,64.0,19,150,10.0,0.0
1542,55.0,0,60,10.0,0.0
1543,67.0,0,60,8.0,0.0
1544,55.0,1,60,8.0,0.0
1545,64.0,59,180,7.0,0.0
1546,43.0,19,90,5.0,0.0
1547,64.0,0,180,2.0,0.0
1548,84.0,0,180,6.0,0.0
1549,43.0,40,15,11.0,0.0
1550,55.0,1,60,8.0,0.0
1551,67.0,0,60,8.0,0.0
1552,55.0,40,60,10.0,0.0
1553,43.0,0,15,11.0,0.0
1554,67.0,1,60,8.0,0.0
1555,55.0,0,60,8.0,0.0
1556,62.0,0,60,7.0,0.0
1557,83.0,0,60,6.0,0.0
1558,43.0,0,15,11.0,0.0
1559,55.0,0,60,8.0,0.0
1560,62.0,0,60,2.0,0.0
1561,62.0,0,60,10.0,0.0
1562,55.0,0,15,10.0,0.0
1563,67.0,0,60,8.0,0.0
1564,43.0,19,90,5.0,0.0
1565,65.0,59,240,7.0,0.0
1566,43.0,40,60,11.0,0.0
1567,67.0,0,60,8.0,0.0
1568,86.0,0,240,6.0,0.0
1569,65.0,0,240,2.0,0.0
1570,67.0,59,15,4.0,0.0
1571,55.0,0,60,10.0,0.0
1572,65.0,29,210,10.0,0.0
1573,67.0,0,90,3.0,0.0
1574,55.0,1,60,8.0,0.0
1575,55.0,0,60,8.0,0.0
1576,67.0,1,60,8.0,0.0
1577,55.0,0,60,10.0,0.0
1578,43.0,59,60,11.0,0.0
1579,67.0,0,90,4.0,0.0
1580,67.0,1,90,3.0,0.0
1581,55.0,1,60,8.0,0.0
1582,67.0,0,60,8.0,0.0
1583,55.0,0,15,10.0,0.0
1584,67.0,0,60,8.0,0.0
1585,43.0,29,15,11.0,0.0
1586,55.0,0,60,8.0,0.0
1587,67.0,1,30,4.0,0.0
1588,67.0,0,30,3.0,0.0
1589,55.0,41,60,10.0,0.0
1590,64.0,19,150,10.0,0.0
1591,67.0,0,60,8.0,0.0
1592,84.0,0,90,6.0,0.0
1593,55.0,0,60,8.0,0.0
1594,64.0,0,90,2.0,0.0
1595,43.0,0,60,11.0,0.0
1596,67.0,0,90,4.0,0.0
1597,67.0,19,90,3.0,0.0
1598,64.0,0,90,7.0,0.0
1599,55.0,0,60,10.0,0.0
1600,43.0,0,60,11.0,0.0
1601,67.0,0,60,8.0,0.0
1602,55.0,41,60,8.0,0.0
1603,55.0,0,60,8.0,0.0
1604,67.0,0,90,4.0,0.0
1605,43.0,0,60,11.0,0.0
1606,55.0,0,60,10.0,0.0
1607,67.0,21,60,8.0,0.0
1608,67.0,5,90,3.0,0.0
1609,81.0,0,60,6.0,0.0
1610,60.0,14,60,7.0,0.0
1611,43.0,0,60,11.0,0.0
1612,67.0,0,60,8.0,0.0
1613,61.0,20,20,2.0,0.0
1614,55.0,60,60,8.0,0.0
1615,55.0,0,60,10.0,0.0
1616,61.0,0,60,10.0,0.0
1617,43.0,19,90,5.0,0.0
1618,64.0,0,180,7.0,0.0
1619,67.0,0,480,3.0,0.0
1620,64.0,19,150,10.0,0.0
1621,64.0,0,180,2.0,0.0
1622,84.0,59,180,6.0,0.0
1623,67.0,0,60,8.0,0.0
1624,43.0,0,60,11.0,0.0
1625,55.0,1,60,8.0,0.0
1626,55.0,0,60,8.0,0.0
1627,67.0,1,60,8.0,0.0
1628,55.0,40,15,10.0,0.0
1629,43.0,40,15,11.0,0.0
1630,67.0,1,60,8.0,0.0
1631,55.0,0,60,10.0,0.0
1632,55.0,0,60,8.0,0.0
1633,67.0,0,60,8.0,0.0
1634,62.0,0,60,2.0,0.0
1635,55.0,0,60,8.0,0.0
1636,43.0,0,15,11.0,0.0
1637,62.0,0,60,7.0,0.0
1638,55.0,60,60,10.0,0.0
1639,62.0,0,60,10.0,0.0
1640,83.0,0,60,6.0,0.0
1641,65.0,0,180,2.0,0.0
1642,43.0,0,60,11.0,0.0
1643,55.0,1,60,8.0,0.0
1644,65.0,19,150,10.0,0.0
1645,86.0,59,180,6.0,0.0
1646,65.0,0,180,7.0,0.0
1647,43.0,19,90,5.0,0.0
1648,67.0,0,60,8.0,0.0
1649,55.0,1,60,8.0,0.0
1650,55.0,40,15,10.0,0.0
1651,67.0,0,60,8.0,0.0
1652,43.0,40,15,11.0,0.0
1653,55.0,0,60,8.0,0.0
1654,67.0,1,60,8.0,0.0
1655,55.0,0,60,10.0,0.0
1656,43.0,0,15,11.0,0.0
1657,64.0,0,60,7.0,0.0
1658,64.0,0,60,2.0,0.0
1659,85.0,1,60,6.0,0.0
1660,55.0,0,60,8.0,0.0
1661,67.0,0,60,8.0,0.0
1662,55.0,0,60,10.0,0.0
1663,64.0,0,60,10.0,0.0
1664,67.0,0,240,2.0,0.0
1665,67.0,0,90,3.0,0.0
1666,55.0,1,60,8.0,0.0
1667,88.0,0,240,6.0,0.0
1668,55.0,0,60,10.0,0.0
1669,67.0,29,210,10.0,0.0
1670,43.0,0,90,5.0,0.0
1671,67.0,59,15,4.0,0.0
1672,43.0,40,60,11.0,0.0
1673,67.0,0,60,8.0,0.0
1674,67.0,59,240,7.0,0.0
1675,55.0,0,60,8.0,0.0
1676,67.0,1,60,8.0,0.0
1677,55.0,0,60,10.0,0.0
1678,43.0,59,15,11.0,0.0
1679,67.0,1,90,3.0,0.0
1680,55.0,0,60,8.0,0.0
1681,67.0,0,90,4.0,0.0
1682,55.0,0,60,10.0,0.0
1683,67.0,1,60,8.0,0.0
1684,55.0,0,60,8.0,0.0
1685,43.0,29,15,11.0,0.0
1686,67.0,1,60,8.0,0.0
1687,67.0,0,30,3.0,0.0
1688,67.0,0,30,4.0,0.0
1689,65.0,0,90,7.0,0.0
1690,67.0,19,90,3.0,0.0
1691,55.0,0,15,10.0,0.0
1692,67.0,0,90,4.0,0.0
1693,55.0,41,60,8.0,0.0
1694,65.0,19,150,10.0,0.0
1695,43.0,0,60,11.0,0.0
1696,86.0,0,90,6.0,0.0
1697,65.0,0,90,2.0,0.0
1698,67.0,0,60,8.0,0.0
1699,55.0,0,60,10.0,0.0
1700,55.0,41,60,8.0,0.0
1701,67.0,0,60,8.0,0.0
1702,43.0,0,60,11.0,0.0
1703,43.0,0,60,11.0,0.0
1704,67.0,0,90,3.0,0.0
1705,67.0,5,90,4.0,0.0
1706,67.0,21,60,8.0,0.0
1707,55.0,0,60,10.0,0.0
1708,55.0,0,60,8.0,0.0
1709,55.0,0,60,10.0,0.0
1710,55.0,0,60,8.0,0.0
1711,43.0,60,60,11.0,0.0
1712,63.0,20,20,2.0,0.0
1713,67.0,0,60,8.0,0.0
1714,63.0,14,60,7.0,0.0
1715,83.0,0,60,6.0,0.0
1716,63.0,0,60,10.0,0.0
1717,67.0,0,90,4.0,0.0
1718,65.0,29,210,10.0,0.0
1719,67.0,0,90,3.0,0.0
1720,55.0,0,60,8.0,0.0
1721,86.0,59,240,6.0,0.0
1722,43.0,19,90,5.0,0.0
1723,67.0,1,60,8.0,0.0
1724,65.0,0,240,2.0,0.0
1725,65.0,0,240,7.0,0.0
1726,67.0,1,60,8.0,0.0
1727,55.0,0,60,8.0,0.0
1728,55.0,0,15,10.0,0.0
1729,43.0,40,15,11.0,0.0
1730,55.0,1,60,8.0,0.0
1731,67.0,0,60,8.0,0.0
1732,55.0,0,60,10.0,0.0
1733,67.0,0,90,3.0,0.0
1734,67.0,1,90,4.0,0.0
1735,67.0,0,60,8.0,0.0
1736,43.0,29,15,11.0,0.0
1737,55.0,0,60,8.0,0.0
1738,67.0,0,30,3.0,0.0
1739,67.0,1,30,4.0,0.0
1740,55.0,0,15,10.0,0.0
1741,64.0,19,150,10.0,0.0
1742,43.0,41,60,11.0,0.0
1743,64.0,0,90,7.0,0.0
1744,67.0,0,90,3.0,0.0
1745,55.0,0,60,8.0,0.0
1746,64.0,0,90,2.0,0.0
1747,67.0,0,90,4.0,0.0
1748,67.0,0,60,8.0,0.0
1749,84.0,19,90,6.0,0.0
1750,43.0,0,60,11.0,0.0
1751,55.0,0,60,10.0,0.0
1752,67.0,41,60,8.0,0.0
1753,55.0,0,60,8.0,0.0
1754,67.0,0,60,8.0,0.0
1755,55.0,21,60,8.0,0.0
1756,43.0,0,60,11.0,0.0
1757,55.0,0,60,10.0,0.0
1758,67.0,0,90,4.0,0.0
1759,67.0,5,90,3.0,0.0
1760,43.0,0,60,11.0,0.0
1761,55.0,0,60,8.0,0.0
1762,67.0,0,60,8.0,0.0
1763,82.0,0,60,6.0,0.0
1764,55.0,60,60,10.0,0.0
1765,60.0,14,60,7.0,0.0
1766,60.0,20,20,2.0,0.0
1767,61.0,0,60,10.0,0.0
1768,64.0,0,240,7.0,0.0
1769,67.0,0,90,3.0,0.0
1770,67.0,0,60,8.0,0.0
1771,55.0,1,60,8.0,0.0
1772,43.0,19,90,5.0,0.0
1773,67.0,0,90,4.0,0.0
1774,43.0,40,60,11.0,0.0
1775,64.0,0,240,2.0,0.0
1776,64.0,29,210,10.0,0.0
1777,55.0,0,60,10.0,0.0
1778,84.0,0,240,6.0,0.0
1779,67.0,0,60,8.0,0.0
1780,55.0,1,60,8.0,0.0
1781,43.0,0,15,11.0,0.0
1782,55.0,1,60,8.0,0.0
1783,67.0,0,60,8.0,0.0
1784,67.0,1,90,4.0,0.0
1785,67.0,0,90,3.0,0.0
1786,55.0,59,15,10.0,0.0
1787,67.0,0,60,8.0,0.0
1788,55.0,0,60,8.0,0.0
1789,67.0,1,30,3.0,0.0
1790,67.0,0,30,4.0,0.0
1791,62.0,19,90,10.0,0.0
1792,67.0,0,90,3.0,0.0
1793,55.0,0,60,8.0,0.0
1794,67.0,0,90,4.0,0.0
1795,43.0,59,15,11.0,0.0
1796,55.0,0,15,10.0,0.0
1797,62.0,0,90,2.0,0.0
1798,67.0,0,60,8.0,0.0
1799,62.0,0,90,7.0,0.0
1800,83.0,0,90,6.0,0.0
1801,43.0,0,60,11.0,0.0
1802,67.0,0,60,8.0,0.0
1803,55.0,0,60,8.0,0.0
1804,55.0,60,60,10.0,0.0
1805,83.0,0,90,0.0,0.0
1806,67.0,5,90,3.0,0.0
1807,55.0,0,60,10.0,0.0
1808,74.0,0,90,1.0,0.0
1809,67.0,0,90,4.0,0.0
1810,55.0,0,60,8.0,0.0
1811,67.0,0,60,8.0,0.0
1812,43.0,21,60,11.0,0.0
1813,83.0,0,90,1.0,0.0
1814,67.0,0,60,8.0,0.0
1815,43.0,0,60,11.0,0.0
1816,83.0,0,60,6.0,0.0
1817,55.0,20,20,2.0,0.0
1818,55.0,60,60,10.0,0.0
1819,55.0,0,60,8.0,0.0
1820,62.0,14,60,7.0,0.0
1821,81.0,0,90,6.0,0.0
1822,72.0,0,90,4.0,0.0
1823,81.0,0,90,0.0,0.0
1824,60.0,41,60,2.0,0.0
1825,48.0,0,60,11.0,0.0
1826,64.0,19,90,7.0,0.0
1827,72.0,0,90,3.0,0.0
1828,76.0,0,90,1.0,0.0
1829,60.0,0,60,10.0,0.0
1830,60.0,0,60,8.0,0.0
1831,81.0,0,90,1.0,0.0
1832,60.0,0,60,8.0,0.0
1833,60.0,0,60,10.0,0.0
1834,60.0,60,60,2.0,0.0
1835,48.0,0,60,11.0,0.0
1836,62.0,0,60,8.0,0.0
1837,59.0,0,60,2.0,0.0
1838,80.0,0,90,0.0,0.0
1839,74.0,19,90,4.0,0.0
1840,65.0,0,90,7.0,0.0
1841,80.0,0,90,6.0,0.0
1842,74.0,0,90,3.0,0.0
1843,77.0,0,90,1.0,0.0
1844,47.0,0,60,11.0,0.0
1845,59.0,41,60,10.0,0.0
1846,80.0,0,90,1.0,0.0
1847,59.0,0,60,2.0,0.0
1848,62.0,60,60,8.0,0.0
1849,47.0,0,60,11.0,0.0
1850,59.0,0,60,10.0,0.0
1851,60.0,0,60,2.0,0.0
1852,48.0,0,60,11.0,0.0
1853,81.0,0,90,6.0,0.0
1854,64.0,0,90,7.0,0.0
1855,81.0,0,90,1.0,0.0
1856,76.0,0,90,1.0,0.0
1857,72.0,19,90,4.0,0.0
1858,81.0,0,90,0.0,0.0
1859,60.0,41,60,8.0,0.0
1860,72.0,0,90,3.0,0.0
1861,60.0,0,60,10.0,0.0
1862,60.0,0,60,2.0,0.0
1863,60.0,0,60,10.0,0.0
1864,48.0,0,60,11.0,0.0
1865,60.0,60,60,8.0,0.0
1866,80.0,0,90,0.0,0.0
1867,59.0,0,60,2.0,0.0
1868,74.0,0,90,3.0,0.0
1869,77.0,0,90,1.0,0.0
1870,80.0,0,90,1.0,0.0
1871,47.0,41,60,11.0,0.0
1872,74.0,0,90,4.0,0.0
1873,80.0,19,90,6.0,0.0
1874,65.0,0,90,7.0,0.0
1875,62.0,0,60,8.0,0.0
1876,59.0,0,60,10.0,0.0
1877,62.0,101,60,8.0,0.0
1878,59.0,0,60,10.0,0.0
1879,59.0,0,60,2.0,0.0
1880,47.0,0,60,11.0,0.0
1881,60.0,0,330,10.0,0.0
1882,48.0,0,330,11.0,0.0
1883,60.0,0,330,8.0,0.0
1884,81.0,0,90,0.0,0.0
1885,81.0,0,90,6.0,0.0
1886,72.0,10,210,4.0,0.0
1887,64.0,10,330,7.0,0.0
1888,60.0,0,330,2.0,0.0
1889,81.0,110,90,1.0,0.0
1890,76.0,10,450,1.0,0.0
1891,72.0,0,330,3.0,0.0
1892,84.0,0,90,6.0,0.0
1893,84.0,0,90,0.0,0.0
1894,84.0,110,90,1.0,0.0
1895,81.0,110,90,0.0,0.0
1896,81.0,0,90,1.0,0.0
1897,81.0,0,90,6.0,0.0
1898,79.0,0,90,1.0,0.0
1899,61.0,0,90,2.0,0.0
1900,76.0,0,90,7.0,0.0
1901,79.0,0,90,0.0,0.0
1902,49.0,120,90,11.0,0.0
1903,61.0,0,90,10.0,0.0
1904,76.0,0,90,3.0,0.0
1905,61.0,0,90,8.0,0.0
1906,79.0,0,90,6.0,0.0
1907,74.0,15,210,4.0,0.0
1908,78.0,0,90,6.0,0.0
1909,62.0,0,90,10.0,0.0
1910,74.0,0,90,7.0,0.0
1911,62.0,95,90,8.0,0.0
1912,62.0,0,90,2.0,0.0
1913,78.0,0,90,0.0,0.0
1914,74.0,0,90,3.0,0.0
1915,74.0,0,90,1.0,0.0
1916,78.0,0,90,1.0,0.0
1917,50.0,0,90,11.0,0.0
1918,74.0,0,90,3.0,0.0
1919,78.0,1,90,1.0,0.0
1920,86.0,0,90,0.0,0.0
1921,54.0,0,90,2.0,0.0
1922,81.0,0,90,1.0,0.0
1923,57.0,0,90,2.0,0.0
1924,69.0,0,15,7.0,0.0
1925,57.0,14,15,8.0,0.0
1926,67.0,0,15,7.0,0.0
1927,55.0,0,15,8.0,0.0
1928,74.0,0,30,3.0,0.0
1929,54.0,0,15,8.0,0.0
1930,57.0,0,30,2.0,0.0
1931,54.0,0,30,2.0,0.0
1932,86.0,0,30,0.0,0.0
1933,78.0,0,30,1.0,0.0
1934,66.0,14,15,7.0,0.0
1935,81.0,1,30,1.0,0.0
1936,52.0,100,15,8.0,0.0
1937,64.0,0,15,7.0,0.0
1938,81.0,0,90,1.0,0.0
1939,78.0,0,90,1.0,0.0
1940,86.0,120,90,0.0,0.0
1941,62.0,0,90,7.0,0.0
1942,74.0,0,90,4.0,0.0
1943,57.0,0,90,2.0,0.0
1944,74.0,0,90,3.0,0.0
1945,50.0,0,90,8.0,0.0
1946,54.0,0,90,2.0,0.0
1947,50.0,120,90,11.0,0.0
1948,74.0,0,90,6.0,0.0
1949,62.0,0,90,10.0,0.0
1950,57.0,0,90,2.0,0.0
1951,81.0,0,90,6.0,0.0
1952,74.0,0,90,3.0,0.0
1953,54.0,0,90,2.0,0.0
1954,81.0,0,90,1.0,0.0
1955,62.0,0,90,6.0,0.0
1956,74.0,0,90,4.0,0.0
1957,78.0,0,90,1.0,0.0
1958,86.0,0,90,0.0,0.0
1959,83.0,0,90,1.0,0.0
1960,62.0,0,90,6.0,0.0
1961,38.0,0,90,11.0,0.0
1962,55.0,0,90,2.0,0.0
1963,59.0,0,90,2.0,0.0
1964,74.0,0,90,6.0,0.0
1965,83.0,95,90,6.0,0.0
1966,74.0,0,210,4.0,0.0
1967,50.0,0,90,10.0,0.0
1968,74.0,0,90,3.0,0.0
1969,86.0,0,90,0.0,0.0
1970,79.0,0,90,1.0,0.0
1971,83.0,0,90,1.0,0.0
1972,79.0,0,90,1.0,0.0
1973,86.0,1,90,0.0,0.0
1974,55.0,0,90,2.0,0.0
1975,74.0,0,90,3.0,0.0
1976,59.0,0,90,2.0,0.0
1977,74.0,14,15,7.0,0.0
1978,62.0,0,15,8.0,0.0
1979,72.0,15,15,7.0,0.0
1980,60.0,0,15,8.0,0.0
1981,71.0,0,15,7.0,0.0
1982,59.0,14,15,8.0,0.0
1983,59.0,0,30,2.0,0.0
1984,55.0,0,30,2.0,0.0
1985,74.0,0,30,3.0,0.0
1986,86.0,1,30,0.0,0.0
1987,83.0,0,30,1.0,0.0
1988,79.0,0,30,1.0,0.0
1989,69.0,100,15,7.0,0.0
1990,57.0,0,15,8.0,0.0
1991,74.0,0,90,3.0,0.0
1992,55.0,0,90,8.0,0.0
1993,79.0,0,90,1.0,0.0
1994,83.0,0,90,1.0,0.0
1995,86.0,0,90,0.0,0.0
1996,74.0,0,90,4.0,0.0
1997,59.0,0,90,2.0,0.0
1998,55.0,0,90,2.0,0.0
1999,67.0,120,90,7.0,0.0
2000,79.0,0,90,1.0,0.0
2001,62.0,120,90,6.0,0.0
2002,59.0,0,90,2.0,0.0
2003,71.0,0,90,6.0,0.0
2004,83.0,0,90,1.0,0.0
2005,55.0,0,90,2.0,0.0
2006,50.0,0,90,11.0,0.0
2007,74.0,0,90,4.0,0.0
2008,62.0,0,90,10.0,0.0
2009,86.0,0,90,0.0,0.0
2010,74.0,0,90,3.0,0.0
2011,79.0,0,90,6.0,0.0
2012,62.0,0,90,6.0,0.0
2013,81.0,0,90,1.0,0.0
2014,74.0,0,90,6.0,0.0
2015,57.0,0,90,2.0,0.0
2016,54.0,95,90,2.0,0.0
2017,86.0,0,90,6.0,0.0
2018,74.0,0,90,3.0,0.0
2019,50.0,0,90,10.0,0.0
2020,74.0,15,210,4.0,0.0
2021,86.0,0,90,0.0,0.0
2022,38.0,0,90,11.0,0.0
2023,78.0,0,90,1.0,0.0
2024,54.0,1,90,2.0,0.0
2025,57.0,0,90,2.0,0.0
2026,81.0,0,90,1.0,0.0
2027,78.0,0,90,1.0,0.0
2028,74.0,0,90,3.0,0.0
2029,86.0,0,90,0.0,0.0
2030,81.0,0,15,7.0,0.0
2031,69.0,14,15,8.0,0.0
2032,79.0,0,15,7.0,0.0
2033,67.0,0,15,8.0,0.0
2034,54.0,0,30,2.0,0.0
2035,66.0,14,15,8.0,0.0
2036,78.0,0,30,1.0,0.0
2037,81.0,0,30,1.0,0.0
2038,57.0,1,30,2.0,0.0
2039,78.0,0,15,7.0,0.0
2040,86.0,0,30,0.0,0.0
2041,74.0,0,30,3.0,0.0
2042,76.0,100,15,7.0,0.0
2043,64.0,0,15,8.0,0.0
2044,78.0,0,90,1.0,0.0
2045,62.0,0,90,8.0,0.0
2046,74.0,0,90,3.0,0.0
2047,81.0,0,90,1.0,0.0
2048,74.0,0,90,4.0,0.0
2049,54.0,0,90,2.0,0.0
2050,86.0,0,90,0.0,0.0
2051,57.0,0,90,2.0,0.0
2052,74.0,120,90,7.0,0.0
2053,62.0,0,90,10.0,0.0
2054,86.0,0,90,0.0,0.0
2055,74.0,120,90,3.0,0.0
2056,74.0,0,90,4.0,0.0
2057,50.0,0,90,11.0,0.0
2058,81.0,0,90,1.0,0.0
2059,78.0,0,90,1.0,0.0
2060,74.0,0,90,6.0,0.0
2061,62.0,0,90,6.0,0.0
2062,57.0,0,90,2.0,0.0
2063,54.0,0,90,2.0,0.0
2064,81.0,0,90,6.0,0.0
2065,74.0,0,90,3.0,0.0
2066,50.0,95,90,10.0,0.0
2067,79.0,0,90,1.0,0.0
2068,83.0,0,90,1.0,0.0
2069,59.0,0,90,2.0,0.0
2070,74.0,15,210,4.0,0.0
2071,86.0,0,90,0.0,0.0
2072,83.0,0,90,6.0,0.0
2073,74.0,0,90,6.0,0.0
2074,62.0,0,90,6.0,0.0
2075,38.0,0,90,11.0,0.0
2076,55.0,0,90,2.0,0.0
2077,55.0,1,90,2.0,0.0
2078,59.0,0,90,2.0,0.0
2079,79.0,0,90,1.0,0.0
2080,74.0,0,90,3.0,0.0
2081,83.0,0,90,1.0,0.0
2082,86.0,0,90,0.0,0.0
2083,74.0,14,15,7.0,0.0
2084,62.0,0,15,8.0,0.0
2085,60.0,0,15,8.0,0.0
2086,72.0,0,15,7.0,0.0
2087,71.0,14,15,7.0,0.0
2088,74.0,0,30,3.0,0.0
2089,86.0,1,30,0.0,0.0
2090,83.0,0,30,1.0,0.0
2091,79.0,0,30,1.0,0.0
2092,59.0,0,15,8.0,0.0
2093,55.0,0,30,2.0,0.0
2094,59.0,0,30,2.0,0.0
2095,57.0,100,15,8.0,0.0
2096,69.0,0,15,7.0,0.0
2097,67.0,0,90,7.0,0.0
2098,74.0,120,90,3.0,0.0
2099,86.0,0,90,0.0,0.0
2100,59.0,0,90,2.0,0.0
2101,83.0,0,90,1.0,0.0
2102,79.0,0,90,1.0,0.0
2103,55.0,0,90,2.0,0.0
2104,55.0,0,90,8.0,0.0
2105,74.0,0,90,4.0,0.0
2106,79.0,0,90,1.0,0.0
2107,83.0,120,90,1.0,0.0
2108,59.0,0,90,2.0,0.0
2109,86.0,0,90,0.0,0.0
2110,74.0,0,90,6.0,0.0
2111,74.0,0,90,3.0,0.0
2112,55.0,0,90,2.0,0.0
2113,74.0,0,90,4.0,0.0
2114,50.0,0,90,11.0,0.0
2115,79.0,0,90,6.0,0.0
2116,62.0,0,90,6.0,0.0
2117,62.0,0,90,10.0,0.0
2118,50.0,0,90,8.0,0.0
2119,50.0,0,90,10.0,0.0
2120,86.0,0,90,0.0,0.0
2121,81.0,0,90,1.0,0.0
2122,78.0,95,90,1.0,0.0
2123,62.0,0,90,6.0,0.0
2124,74.0,0,90,4.0,0.0
2125,74.0,0,90,3.0,0.0
2126,62.0,0,90,7.0,0.0
2127,86.0,0,90,6.0,0.0
2128,57.0,0,90,2.0,0.0
2129,54.0,0,90,2.0,0.0
2130,74.0,0,90,6.0,0.0
2131,38.0,0,90,11.0,0.0
2132,62.0,0,90,6.0,0.0
2133,81.0,0,90,6.0,0.0
2134,74.0,0,90,6.0,0.0
2135,78.0,0,90,1.0,0.0
2136,86.0,5,90,0.0,0.0
2137,57.0,0,90,2.0,0.0
2138,54.0,0,90,2.0,0.0
2139,74.0,0,90,3.0,0.0
2140,81.0,0,90,1.0,0.0
2141,62.0,0,15,8.0,0.0
2142,74.0,15,15,7.0,0.0
2143,72.0,0,15,7.0,0.0
2144,60.0,10,15,8.0,0.0
2145,71.0,0,15,7.0,0.0
2146,59.0,15,15,8.0,0.0
2147,69.0,100,15,7.0,0.0
2148,57.0,0,15,8.0,0.0
2149,67.0,0,90,4.0,0.0
2150,74.0,0,90,4.0,0.0
2151,50.0,0,90,11.0,0.0
2152,71.0,0,90,7.0,0.0
2153,59.0,0,90,8.0,0.0
2154,62.0,95,90,10.0,0.0
2155,83.0,0,90,1.0,0.0
2156,74.0,0,90,6.0,0.0
2157,83.0,0,90,6.0,0.0
2158,79.0,0,90,1.0,0.0
2159,62.0,5,90,6.0,0.0
2160,59.0,0,90,2.0,0.0
2161,55.0,0,90,2.0,0.0
2162,74.0,0,90,3.0,0.0
2163,86.0,0,90,0.0,0.0
2164,60.0,15,15,8.0,0.0
2165,72.0,0,15,7.0,0.0
2166,71.0,10,15,7.0,0.0
2167,59.0,0,15,8.0,0.0
2168,57.0,15,15,8.0,0.0
2169,69.0,0,15,7.0,0.0
2170,67.0,0,15,7.0,0.0
2171,55.0,100,15,8.0,0.0
2172,66.0,0,90,7.0,0.0
2173,38.0,0,90,11.0,0.0
2174,50.0,0,90,10.0,0.0
2175,74.0,0,90,4.0,0.0
2176,54.0,95,90,8.0,0.0
2177,86.0,0,90,0.0,0.0
2178,78.0,0,90,1.0,0.0
2179,81.0,0,90,1.0,0.0
2180,74.0,0,90,6.0,0.0
2181,81.0,0,90,6.0,0.0
2182,57.0,0,90,2.0,0.0
2183,54.0,0,90,2.0,0.0
2184,62.0,0,90,6.0,0.0
2185,74.0,5,90,3.0,0.0
2186,62.0,15,15,8.0,0.0
2187,74.0,0,15,7.0,0.0
2188,60.0,0,15,8.0,0.0
2189,72.0,10,15,7.0,0.0
2190,71.0,0,15,7.0,0.0
2191,59.0,15,15,8.0,0.0
2192,69.0,0,15,7.0,0.0
2193,57.0,100,15,8.0,0.0
2194,50.0,0,90,11.0,0.0
2195,62.0,0,90,10.0,0.0
2196,59.0,0,90,8.0,0.0
2197,71.0,95,90,7.0,0.0
2198,67.0,0,90,4.0,0.0
2199,74.0,0,90,4.0,0.0
2200,59.0,0,90,2.0,0.0
2201,79.0,0,90,1.0,0.0
2202,83.0,5,90,1.0,0.0
2203,62.0,0,90,6.0,0.0
2204,83.0,0,90,6.0,0.0
2205,55.0,0,90,2.0,0.0
2206,74.0,0,90,3.0,0.0
2207,74.0,0,90,6.0,0.0
2208,86.0,0,90,0.0,0.0
2209,72.0,15,15,7.0,0.0
2210,60.0,0,15,8.0,0.0
2211,59.0,0,15,8.0,0.0
2212,71.0,10,15,7.0,0.0
2213,57.0,0,15,8.0,0.0
2214,69.0,15,15,7.0,0.0
2215,55.0,0,15,8.0,0.0
2216,67.0,100,15,7.0,0.0
2217,66.0,0,90,7.0,0.0
2218,81.0,0,90,6.0,0.0
2219,74.0,0,90,6.0,0.0
2220,62.0,0,90,6.0,0.0
2221,50.0,0,90,10.0,0.0
2222,54.0,0,90,8.0,0.0
2223,81.0,0,90,1.0,0.0
2224,38.0,440,90,11.0,0.0
2225,74.0,0,90,4.0,0.0
2226,74.0,0,90,3.0,0.0
2227,78.0,0,90,1.0,0.0
2228,86.0,0,90,0.0,0.0
2229,54.0,0,90,2.0,0.0
2230,57.0,0,90,2.0,0.0
2231,59.0,60,60,7.0,0.0
2232,79.0,0,360,6.0,0.0
2233,62.0,60,60,7.0,0.0
2234,59.0,60,60,7.0,0.0
2235,62.0,60,60,7.0,0.0
2236,59.0,60,60,7.0,0.0
2237,62.0,60,60,7.0,0.0
2238,59.0,59,60,7.0,0.0
2239,80.0,60,120,6.0,0.0
2240,62.0,1,60,7.0,0.0
2241,60.0,40,60,7.0,0.0
2242,81.0,20,90,6.0,0.0
2243,62.0,60,60,7.0,0.0
2244,60.0,60,60,7.0,0.0
2245,62.0,60,60,7.0,0.0
2246,60.0,60,60,7.0,0.0
2247,62.0,60,60,7.0,0.0
2248,60.0,59,60,7.0,0.0
2249,62.0,61,60,7.0,0.0
2250,57.0,20,360,10.0,0.0
2251,57.0,0,360,8.0,0.0
2252,57.0,60,60,7.0,0.0
2253,45.0,0,360,11.0,0.0
2254,62.0,60,60,7.0,0.0
2255,84.0,30,90,6.0,0.0
2256,57.0,30,60,7.0,0.0
2257,62.0,0,60,7.0,0.0
2258,81.0,59,30,6.0,0.0
2259,57.0,60,60,7.0,0.0
2260,78.0,1,60,6.0,0.0
2261,62.0,0,60,7.0,0.0
2262,58.0,0,120,10.0,0.0
2263,58.0,59,60,7.0,0.0
2264,58.0,15,120,8.0,0.0
2265,46.0,0,120,11.0,0.0
2266,78.0,40,20,6.0,0.0
2267,62.0,1,60,7.0,0.0
2268,59.0,15,120,10.0,0.0
2269,59.0,0,60,7.0,0.0
2270,47.0,5,90,11.0,0.0
2271,81.0,15,15,6.0,0.0
2272,59.0,0,120,8.0,0.0
2273,79.0,15,15,6.0,0.0
2274,81.0,15,15,6.0,0.0
2275,79.0,15,15,6.0,0.0
2276,62.0,0,60,7.0,0.0
2277,81.0,15,15,6.0,0.0
2278,79.0,10,15,6.0,0.0
2279,81.0,15,15,6.0,0.0
2280,79.0,0,15,6.0,0.0
2281,81.0,15,15,6.0,0.0
2282,59.0,30,60,7.0,0.0
2283,79.0,15,15,6.0,0.0
2284,81.0,15,15,6.0,0.0
2285,79.0,0,15,6.0,0.0
2286,78.0,30,30,6.0,0.0
2287,62.0,59,60,7.0,0.0
2288,76.0,0,30,6.0,0.0
2289,74.0,1,60,6.0,0.0
2290,59.0,60,60,7.0,0.0
2291,62.0,60,60,7.0,0.0
2292,59.0,30,60,7.0,0.0
2293,74.0,29,90,6.0,0.0
2294,62.0,0,60,7.0,0.0
2295,76.0,21,30,6.0,0.0
2296,54.0,0,90,10.0,0.0
2297,42.0,0,90,11.0,0.0
2298,57.0,40,60,7.0,0.0
2299,72.0,40,20,6.0,0.0
2300,54.0,20,90,8.0,0.0
2301,62.0,60,60,7.0,0.0
2302,57.0,30,60,7.0,0.0
2303,72.0,29,90,6.0,0.0
2304,62.0,59,60,7.0,0.0
2305,74.0,1,30,6.0,0.0
2306,55.0,40,60,7.0,0.0
2307,71.0,1,60,6.0,0.0
2308,55.0,0,90,10.0,0.0
2309,55.0,20,90,8.0,0.0
2310,43.0,0,90,11.0,0.0
2311,62.0,60,60,7.0,0.0
2312,71.0,29,90,6.0,0.0
2313,55.0,30,60,7.0,0.0
2314,67.0,61,60,7.0,0.0
2315,72.0,0,30,6.0,0.0
2316,69.0,40,60,6.0,0.0
2317,38.0,0,90,11.0,0.0
2318,50.0,0,90,10.0,0.0
2319,66.0,20,90,7.0,0.0
2320,50.0,0,90,8.0,0.0
2321,71.0,60,60,6.0,0.0
2322,72.0,60,60,6.0,0.0
2323,73.0,60,60,6.0,0.0
2324,74.0,60,60,6.0,0.0
2325,75.0,60,60,6.0,0.0
2326,76.0,59,60,6.0,0.0
2327,78.0,61,60,6.0,0.0
2328,79.0,60,360,6.0,0.0
2329,59.0,60,60,7.0,0.0
2330,55.0,0,360,2.0,0.0
2331,62.0,60,60,7.0,0.0
2332,59.0,60,60,7.0,0.0
2333,62.0,60,60,7.0,0.0
2334,59.0,60,60,7.0,0.0
2335,62.0,0,60,7.0,0.0
2336,59.0,59,60,7.0,0.0
2337,56.0,0,120,2.0,0.0
2338,80.0,60,120,6.0,0.0
2339,62.0,1,60,7.0,0.0
2340,57.0,0,90,2.0,0.0
2341,81.0,20,90,6.0,0.0
2342,60.0,40,60,7.0,0.0
2343,62.0,60,60,7.0,0.0
2344,60.0,60,60,7.0,0.0
2345,62.0,60,60,7.0,0.0
2346,60.0,60,60,7.0,0.0
2347,62.0,60,60,7.0,0.0
2348,60.0,59,60,7.0,0.0
2349,62.0,61,60,7.0,0.0
2350,57.0,0,360,10.0,0.0
2351,45.0,0,360,11.0,0.0
2352,57.0,60,60,7.0,0.0
2353,57.0,0,360,8.0,0.0
2354,62.0,60,60,7.0,0.0
2355,60.0,30,90,2.0,0.0
2356,84.0,0,90,6.0,0.0
2357,57.0,30,60,7.0,0.0
2358,62.0,59,60,7.0,0.0
2359,81.0,0,30,6.0,0.0
2360,57.0,0,30,2.0,0.0
2361,57.0,60,60,7.0,0.0
2362,78.0,1,60,6.0,0.0
2363,66.0,0,60,2.0,0.0
2364,62.0,20,60,7.0,0.0
2365,66.0,0,20,2.0,0.0
2366,58.0,0,120,8.0,0.0
2367,78.0,40,20,6.0,0.0
2368,58.0,15,120,10.0,0.0
2369,46.0,0,120,11.0,0.0
2370,58.0,59,60,7.0,0.0
2371,62.0,1,60,7.0,0.0
2372,47.0,0,90,11.0,0.0
2373,59.0,5,90,8.0,0.0
2374,81.0,15,15,6.0,0.0
2375,67.0,0,180,2.0,0.0
2376,59.0,15,60,7.0,0.0
2377,59.0,0,90,10.0,0.0
2378,79.0,15,15,6.0,0.0
2379,81.0,15,15,6.0,0.0
2380,79.0,0,15,6.0,0.0
2381,62.0,0,60,7.0,0.0
2382,81.0,15,15,6.0,0.0
2383,79.0,10,15,6.0,0.0
2384,81.0,15,15,6.0,0.0
2385,79.0,15,15,6.0,0.0
2386,59.0,30,60,7.0,0.0
2387,81.0,15,15,6.0,0.0
2388,79.0,15,15,6.0,0.0
2389,81.0,15,15,6.0,0.0
2390,79.0,0,15,6.0,0.0
2391,78.0,30,30,6.0,0.0
2392,62.0,0,60,7.0,0.0
2393,66.0,0,30,2.0,0.0
2394,64.0,0,30,2.0,0.0
2395,76.0,59,30,6.0,0.0
2396,62.0,0,60,2.0,0.0
2397,59.0,60,60,7.0,0.0
2398,74.0,1,60,6.0,0.0
2399,62.0,60,60,7.0,0.0
2400,74.0,0,90,6.0,0.0
2401,62.0,29,90,2.0,0.0
2402,59.0,30,60,7.0,0.0
2403,62.0,0,60,7.0,0.0
2404,76.0,21,30,6.0,0.0
2405,64.0,0,30,2.0,0.0
2406,72.0,40,20,6.0,0.0
2407,54.0,0,90,10.0,0.0
2408,42.0,20,90,11.0,0.0
2409,57.0,40,60,7.0,0.0
2410,54.0,0,90,8.0,0.0
2411,60.0,0,20,2.0,0.0
2412,62.0,60,60,7.0,0.0
2413,72.0,0,90,6.0,0.0
2414,57.0,30,60,7.0,0.0
2415,60.0,29,90,2.0,0.0
2416,62.0,20,60,7.0,0.0
2417,62.0,0,30,2.0,0.0
2418,74.0,1,30,6.0,0.0
2419,55.0,0,90,8.0,0.0
2420,71.0,1,60,6.0,0.0
2421,55.0,40,60,7.0,0.0
2422,43.0,20,90,11.0,0.0
2423,55.0,0,90,10.0,0.0
2424,59.0,39,20,2.0,0.0
2425,62.0,60,60,7.0,0.0
2426,55.0,30,60,7.0,0.0
2427,59.0,0,90,2.0,0.0
2428,71.0,29,90,6.0,0.0
2429,67.0,0,60,7.0,0.0
2430,60.0,31,30,2.0,0.0
2431,72.0,0,30,6.0,0.0
2432,36.0,0,480,11.0,0.0
2433,48.0,0,480,10.0,0.0
2434,69.0,0,30,6.0,0.0
2435,57.0,30,30,2.0,0.0
2436,66.0,60,60,7.0,0.0
2437,60.0,20,480,8.0,0.0
2438,62.0,30,60,7.0,0.0
2439,69.0,30,30,6.0,0.0
2440,57.0,0,30,2.0,0.0
2441,66.0,60,60,7.0,0.0
2442,62.0,30,60,7.0,0.0
2443,57.0,30,30,2.0,0.0
2444,66.0,60,60,7.0,0.0
2445,69.0,0,30,6.0,0.0
2446,62.0,60,60,7.0,0.0
2447,59.0,0,90,2.0,0.0
2448,83.0,29,90,0.0,0.0
2449,66.0,30,60,7.0,0.0
2450,71.0,0,90,6.0,0.0
2451,69.0,0,60,7.0,0.0
2452,84.0,1,30,0.0,0.0
2453,60.0,0,30,2.0,0.0
2454,72.0,0,30,6.0,0.0
2455,35.0,20,90,11.0,0.0
2456,67.0,40,60,7.0,0.0
2457,59.0,0,90,8.0,0.0
2458,62.0,40,20,2.0,0.0
2459,47.0,0,90,10.0,0.0
2460,86.0,0,20,0.0,0.0
2461,74.0,0,20,6.0,0.0
2462,62.0,60,60,7.0,0.0
2463,59.0,30,60,7.0,0.0
2464,62.0,29,90,2.0,0.0
2465,74.0,0,90,6.0,0.0
2466,86.0,0,90,0.0,0.0
2467,67.0,20,60,7.0,0.0
2468,88.0,0,30,0.0,0.0
2469,64.0,1,30,2.0,0.0
2470,76.0,0,30,6.0,0.0
2471,63.0,20,90,8.0,0.0
2472,60.0,39,20,2.0,0.0
2473,84.0,0,20,0.0,0.0
2474,39.0,0,90,11.0,0.0
2475,66.0,40,60,7.0,0.0
2476,72.0,1,60,6.0,0.0
2477,51.0,0,90,10.0,0.0
2478,60.0,60,60,7.0,0.0
2479,57.0,30,60,7.0,0.0
2480,60.0,0,90,2.0,0.0
2481,72.0,0,90,6.0,0.0
2482,84.0,29,90,0.0,0.0
2483,66.0,0,60,7.0,0.0
2484,74.0,31,30,6.0,0.0
2485,62.0,0,30,2.0,0.0
2486,86.0,0,30,0.0,0.0
2487,64.0,0,360,8.0,0.0
2488,52.0,60,360,10.0,0.0
2489,59.0,30,30,2.0,0.0
2490,71.0,0,30,6.0,0.0
2491,83.0,0,30,0.0,0.0
2492,40.0,0,360,11.0,0.0
2493,67.0,60,60,7.0,0.0
2494,64.0,30,60,7.0,0.0
2495,59.0,60,60,7.0,0.0
2496,71.0,30,30,6.0,0.0
2497,83.0,0,30,0.0,0.0
2498,59.0,0,30,2.0,0.0
2499,64.0,60,60,7.0,0.0
2500,83.0,0,60,0.0,0.0
2501,71.0,60,60,6.0,0.0
2502,59.0,0,60,2.0,0.0
2503,67.0,0,60,7.0,0.0
2504,62.0,0,60,2.0,0.0
2505,74.0,0,60,6.0,0.0
2506,59.0,0,60,7.0,0.0
2507,86.0,0,60,0.0,0.0
2508,36.0,0,90,11.0,0.0
2509,84.0,40,60,0.0,0.0
2510,72.0,0,60,6.0,0.0
2511,48.0,19,90,10.0,0.0
2512,64.0,0,60,7.0,0.0
2513,60.0,0,90,8.0,0.0
2514,60.0,0,60,2.0,0.0
2515,60.0,61,60,7.0,0.0
2516,69.0,0,60,6.0,0.0
2517,57.0,0,60,2.0,0.0
2518,81.0,0,60,0.0,0.0
2519,59.0,40,60,7.0,0.0
2520,67.0,0,360,6.0,0.0
2521,50.0,20,90,10.0,0.0
2522,55.0,0,360,2.0,0.0
2523,62.0,60,360,8.0,0.0
2524,38.0,0,90,11.0,0.0
2525,79.0,0,360,0.0,0.0
2526,62.0,60,60,7.0,0.0
2527,59.0,40,60,7.0,0.0
2528,50.0,20,90,10.0,0.0
2529,38.0,0,90,11.0,0.0
2530,62.0,60,60,7.0,0.0
2531,50.0,20,90,10.0,0.0
2532,59.0,40,60,7.0,0.0
2533,38.0,0,90,11.0,0.0
2534,62.0,0,60,7.0,0.0
2535,54.0,19,90,8.0,0.0
2536,59.0,40,60,2.0,0.0
2537,71.0,0,60,6.0,0.0
2538,38.0,0,90,11.0,0.0
2539,50.0,0,90,10.0,0.0
2540,60.0,0,60,7.0,0.0
2541,83.0,0,60,0.0,0.0
2542,57.0,0,60,2.0,0.0
2543,62.0,0,60,7.0,0.0
2544,69.0,60,60,6.0,0.0
2545,81.0,1,60,0.0,0.0
2546,55.0,59,180,8.0,0.0
2547,59.0,40,60,7.0,0.0
2548,43.0,0,180,11.0,0.0
2549,67.0,0,90,6.0,0.0
2550,55.0,20,90,2.0,0.0
2551,79.0,0,90,0.0,0.0
2552,55.0,0,180,10.0,0.0
2553,62.0,60,60,7.0,0.0
2554,67.0,0,60,7.0,0.0
2555,54.0,0,60,10.0,0.0
2556,42.0,1,60,11.0,0.0
2557,62.0,60,60,7.0,0.0
2558,54.0,0,60,8.0,0.0
2559,59.0,0,180,8.0,0.0
2560,59.0,0,180,10.0,0.0
2561,47.0,59,180,11.0,0.0
2562,59.0,60,60,7.0,0.0
2563,62.0,60,60,7.0,0.0
2564,67.0,0,60,7.0,0.0
2565,62.0,61,60,7.0,0.0
2566,57.0,0,60,8.0,0.0
2567,45.0,0,60,11.0,0.0
2568,57.0,0,60,10.0,0.0
2569,62.0,0,240,8.0,0.0
2570,66.0,60,60,7.0,0.0
2571,81.0,0,360,6.0,0.0
2572,50.0,0,240,11.0,0.0
2573,62.0,60,240,10.0,0.0
2574,62.0,60,60,7.0,0.0
2575,57.0,60,60,7.0,0.0
2576,62.0,0,60,7.0,0.0
2577,66.0,60,60,7.0,0.0
2578,48.0,29,210,11.0,0.0
2579,60.0,0,210,10.0,0.0
2580,60.0,0,210,8.0,0.0
2581,62.0,60,60,7.0,0.0
2582,66.0,30,60,7.0,0.0
2583,83.0,0,60,6.0,0.0
2584,84.0,31,60,6.0,0.0
2585,62.0,0,60,7.0,0.0
2586,47.0,0,90,11.0,0.0
2587,59.0,0,90,10.0,0.0
2588,59.0,20,90,8.0,0.0
2589,86.0,30,30,6.0,0.0
2590,67.0,40,60,7.0,0.0
2591,62.0,30,60,7.0,0.0
2592,59.0,60,60,7.0,0.0
2593,86.0,30,30,6.0,0.0
2594,62.0,60,60,7.0,0.0
2595,86.0,30,120,6.0,0.0
2596,64.0,0,90,10.0,0.0
2597,64.0,0,90,8.0,0.0
2598,52.0,20,90,11.0,0.0
2599,67.0,40,60,7.0,0.0
2600,59.0,0,60,7.0,0.0
2601,84.0,30,30,6.0,0.0
2602,55.0,30,60,7.0,0.0
2603,83.0,0,30,6.0,0.0
2604,59.0,31,60,7.0,0.0
2605,81.0,29,30,6.0,0.0
2606,79.0,0,30,6.0,0.0
2607,60.0,20,90,8.0,0.0
2608,60.0,0,90,10.0,0.0
2609,67.0,40,60,7.0,0.0
2610,48.0,0,90,11.0,0.0
2611,81.0,30,30,6.0,0.0
2612,64.0,30,60,7.0,0.0
2613,57.0,60,60,7.0,0.0
2614,81.0,30,30,6.0,0.0
2615,64.0,60,60,7.0,0.0
2616,50.0,20,90,11.0,0.0
2617,62.0,0,90,10.0,0.0
2618,62.0,0,90,8.0,0.0
2619,66.0,40,60,7.0,0.0
2620,81.0,0,120,6.0,0.0
2621,62.0,30,60,7.0,0.0
2622,79.0,30,30,6.0,0.0
2623,60.0,0,60,7.0,0.0
2624,78.0,20,30,6.0,0.0
2625,50.0,0,20,10.0,0.0
2626,62.0,0,20,8.0,0.0
2627,38.0,10,20,11.0,0.0
2628,62.0,61,60,7.0,0.0
2629,76.0,29,30,6.0,0.0
2630,74.0,0,30,6.0,0.0
2631,79.0,20,90,6.0,0.0
2632,67.0,59,180,8.0,0.0
2633,55.0,0,180,10.0,0.0
2634,59.0,40,60,7.0,0.0
2635,43.0,0,180,11.0,0.0
2636,62.0,60,60,7.0,0.0
2637,67.0,0,60,7.0,0.0
2638,54.0,1,60,10.0,0.0
2639,62.0,60,60,7.0,0.0
2640,66.0,0,60,8.0,0.0
2641,42.0,0,60,11.0,0.0
2642,47.0,0,180,11.0,0.0
2643,71.0,0,180,8.0,0.0
2644,59.0,59,180,10.0,0.0
2645,59.0,60,60,7.0,0.0
2646,62.0,60,60,7.0,0.0
2647,67.0,0,60,7.0,0.0
2648,62.0,0,60,7.0,0.0
2649,57.0,0,60,10.0,0.0
2650,45.0,0,60,11.0,0.0
2651,69.0,61,60,8.0,0.0
2652,62.0,0,240,10.0,0.0
2653,66.0,60,60,7.0,0.0
2654,50.0,0,240,11.0,0.0
2655,81.0,0,360,6.0,0.0
2656,74.0,0,240,8.0,0.0
2657,62.0,60,60,7.0,0.0
2658,57.0,60,60,7.0,0.0
2659,62.0,60,60,7.0,0.0
2660,60.0,29,210,10.0,0.0
2661,66.0,60,60,7.0,0.0
2662,72.0,0,210,8.0,0.0
2663,48.0,0,210,11.0,0.0
2664,62.0,60,60,7.0,0.0
2665,83.0,0,60,6.0,0.0
2666,57.0,30,60,7.0,0.0
2667,84.0,0,60,6.0,0.0
2668,62.0,31,60,7.0,0.0
2669,47.0,120,30,11.0,0.0
2670,67.0,0,30,7.0,0.0
2671,71.0,0,30,8.0,0.0
2672,86.0,0,30,6.0,0.0
2673,59.0,0,30,10.0,0.0
2674,86.0,0,30,6.0,0.0
2675,47.0,0,30,11.0,0.0
2676,77.0,0,30,7.0,0.0
2677,59.0,0,30,10.0,0.0
2678,68.0,120,30,8.0,0.0
2679,47.0,0,30,11.0,0.0
2680,59.0,0,30,10.0,0.0
2681,77.0,0,30,7.0,0.0
2682,86.0,30,120,6.0,0.0
2683,68.0,90,30,8.0,0.0
2684,84.0,30,30,6.0,0.0
2685,83.0,30,30,6.0,0.0
2686,81.0,29,30,6.0,0.0
2687,80.0,31,30,6.0,0.0
2688,76.0,0,30,7.0,0.0
2689,88.0,0,30,6.0,0.0
2690,60.0,0,30,10.0,0.0
2691,69.0,120,30,8.0,0.0
2692,48.0,0,30,11.0,0.0
2693,60.0,0,30,10.0,0.0
2694,76.0,0,30,7.0,0.0
2695,69.0,0,30,8.0,0.0
2696,48.0,120,30,11.0,0.0
2697,88.0,0,30,6.0,0.0
2698,88.0,30,120,6.0,0.0
2699,69.0,0,30,8.0,0.0
2700,48.0,90,30,11.0,0.0
2701,60.0,0,30,10.0,0.0
2702,76.0,0,30,7.0,0.0
2703,86.0,30,30,6.0,0.0
2704,84.0,30,30,6.0,0.0
2705,83.0,29,30,6.0,0.0
2706,81.0,31,30,6.0,0.0
2707,50.0,0,30,11.0,0.0
2708,79.0,0,30,7.0,0.0
2709,89.0,120,30,6.0,0.0
2710,62.0,0,30,10.0,0.0
2711,71.0,0,30,8.0,0.0
2712,79.0,0,30,7.0,0.0
2713,71.0,0,30,8.0,0.0
2714,89.0,0,30,6.0,0.0
2715,50.0,0,30,11.0,0.0
2716,62.0,120,30,10.0,0.0
2717,89.0,0,30,6.0,0.0
2718,50.0,0,30,11.0,0.0
2719,62.0,0,30,10.0,0.0
2720,79.0,0,30,7.0,0.0
2721,71.0,749,30,8.0,0.0
2722,60.0,0,450,3.0,0.0
2723,48.0,0,210,5.0,0.0
2724,87.0,29,450,6.0,0.0
2725,67.0,0,450,3.0,0.0
2726,60.0,0,450,4.0,0.0
2727,48.0,0,60,11.0,0.0
2728,67.0,0,450,4.0,0.0
2729,75.0,0,930,1.0,0.0
2730,55.0,0,210,8.0,0.0
2731,79.0,0,1170,1.0,0.0
2732,60.0,10,1650,2.0,0.0
2733,55.0,29,210,7.0,0.0
2734,87.0,0,450,0.0,0.0
2735,60.0,60,60,10.0,0.0
2736,63.0,0,450,2.0,0.0
2737,48.0,0,60,11.0,0.0
2738,60.0,60,60,10.0,0.0
2739,60.0,31,60,10.0,0.0
2740,48.0,0,60,11.0,0.0
2741,60.0,0,60,10.0,0.0
2742,48.0,60,60,11.0,0.0
2743,60.0,0,60,10.0,0.0
2744,55.0,0,210,8.0,0.0
2745,55.0,0,210,7.0,0.0
2746,48.0,19,150,5.0,0.0
2747,48.0,60,60,11.0,0.0
2748,60.0,41,60,10.0,0.0
2749,48.0,0,60,11.0,0.0
2750,48.0,31,60,11.0,0.0
2751,60.0,0,60,10.0,0.0
2752,60.0,0,60,10.0,0.0
2753,48.0,0,60,11.0,0.0
2754,48.0,15,60,5.0,0.0
2755,55.0,0,210,8.0,0.0
2756,67.0,0,60,3.0,0.0
2757,60.0,40,60,4.0,0.0
2758,67.0,0,60,4.0,0.0
2759,48.0,1,60,11.0,0.0
2760,62.0,44,15,2.0,0.0
2761,60.0,0,60,3.0,0.0
2762,86.0,0,15,6.0,0.0
2763,55.0,10,210,7.0,0.0
2764,60.0,0,60,10.0,0.0
2765,86.0,1,15,0.0,0.0
2766,48.0,19,90,5.0,0.0
2767,87.0,19,210,6.0,0.0
2768,63.0,0,210,2.0,0.0
2769,87.0,0,210,0.0,0.0
2770,48.0,60,60,11.0,0.0
2771,60.0,0,60,10.0,0.0
2772,48.0,31,60,11.0,0.0
2773,60.0,0,60,10.0,0.0
2774,48.0,0,90,5.0,0.0
2775,60.0,15,60,10.0,0.0
2776,48.0,0,60,11.0,0.0
2777,60.0,1,60,10.0,0.0
2778,55.0,10,210,8.0,0.0
2779,86.0,1,15,0.0,0.0
2780,55.0,0,210,7.0,0.0
2781,67.0,0,60,3.0,0.0
2782,60.0,40,60,3.0,0.0
2783,48.0,19,90,5.0,0.0
2784,67.0,0,60,4.0,0.0
2785,60.0,0,60,4.0,0.0
2786,48.0,0,60,11.0,0.0
2787,86.0,0,15,6.0,0.0
2788,62.0,44,15,2.0,0.0
2789,87.0,0,210,6.0,0.0
2790,87.0,0,210,0.0,0.0
2791,63.0,19,210,2.0,0.0
2792,48.0,0,60,11.0,0.0
2793,60.0,60,60,10.0,0.0
2794,48.0,0,60,11.0,0.0
2795,60.0,31,60,10.0,0.0
2796,48.0,0,90,5.0,0.0
2797,48.0,15,60,11.0,0.0
2798,60.0,0,60,10.0,0.0
2799,48.0,0,60,11.0,0.0
2800,60.0,0,60,3.0,0.0
2801,67.0,14,60,3.0,0.0
2802,55.0,14,210,7.0,0.0
2803,60.0,0,60,10.0,0.0
2804,64.0,0,450,2.0,0.0
2805,76.0,0,210,1.0,0.0
2806,60.0,0,60,4.0,0.0
2807,55.0,0,210,8.0,0.0
2808,67.0,0,60,4.0,0.0
2809,50.0,15,15,5.0,0.0
2810,88.0,0,450,6.0,0.0
2811,88.0,0,450,0.0,0.0
2812,48.0,15,15,5.0,0.0
2813,50.0,15,15,5.0,0.0
2814,48.0,1,15,5.0,0.0
2815,36.0,0,60,11.0,0.0
2816,48.0,0,60,10.0,0.0
2817,50.0,15,15,5.0,0.0
2818,48.0,15,15,5.0,0.0
2819,50.0,15,15,5.0,0.0
2820,48.0,15,15,5.0,0.0
2821,48.0,0,60,10.0,0.0
2822,50.0,15,15,5.0,0.0
2823,36.0,15,60,11.0,0.0
2824,48.0,15,15,5.0,0.0
2825,50.0,15,15,5.0,0.0
2826,48.0,0,15,5.0,0.0
2827,48.0,0,60,10.0,0.0
2828,36.0,0,60,11.0,0.0
2829,50.0,15,15,5.0,0.0
2830,48.0,1,15,5.0,0.0
2831,50.0,15,15,5.0,0.0
2832,48.0,15,15,5.0,0.0
2833,80.0,14,210,1.0,0.0
2834,56.0,0,210,8.0,0.0
2835,36.0,15,60,11.0,0.0
2836,50.0,15,15,5.0,0.0
2837,48.0,0,60,10.0,0.0
2838,56.0,0,210,7.0,0.0
2839,72.0,0,150,4.0,0.0
2840,60.0,4,150,4.0,0.0
2841,60.0,0,150,3.0,0.0
2842,72.0,0,150,3.0,0.0
2843,48.0,15,15,5.0,0.0
2844,50.0,15,15,5.0,0.0
2845,48.0,0,15,5.0,0.0
2846,50.0,15,15,5.0,0.0
2847,36.0,0,60,11.0,0.0
2848,48.0,0,60,10.0,0.0
2849,48.0,15,15,5.0,0.0
2850,50.0,15,15,5.0,0.0
2851,48.0,15,15,5.0,0.0
2852,48.0,0,60,10.0,0.0
2853,36.0,0,60,11.0,0.0
2854,50.0,15,15,5.0,0.0
2855,48.0,11,15,5.0,0.0
2856,50.0,15,15,5.0,0.0
2857,48.0,15,15,5.0,0.0
2858,50.0,15,15,5.0,0.0
2859,72.0,0,60,4.0,0.0
2860,72.0,0,60,3.0,0.0
2861,60.0,0,60,3.0,0.0
2862,60.0,0,60,4.0,0.0
2863,36.0,0,60,11.0,0.0
2864,48.0,15,60,10.0,0.0
2865,48.0,1,15,5.0,0.0
2866,50.0,15,15,5.0,0.0
2867,48.0,0,15,5.0,0.0
2868,77.0,0,450,1.0,0.0
2869,81.0,14,240,1.0,0.0
2870,48.0,0,60,10.0,0.0
2871,89.0,0,450,0.0,0.0
2872,60.0,4,90,3.0,0.0
2873,65.0,10,450,2.0,0.0
2874,36.0,0,60,11.0,0.0
2875,50.0,15,15,5.0,0.0
2876,57.0,0,210,7.0,0.0
2877,72.0,0,90,3.0,0.0
2878,57.0,0,210,8.0,0.0
2879,72.0,0,90,4.0,0.0
2880,89.0,0,210,6.0,0.0
2881,60.0,0,90,4.0,0.0
2882,48.0,15,15,5.0,0.0
2883,50.0,15,15,5.0,0.0
2884,48.0,15,15,5.0,0.0
2885,36.0,0,60,11.0,0.0
2886,48.0,0,60,10.0,0.0
2887,50.0,15,15,5.0,0.0
2888,48.0,11,15,5.0,0.0
2889,50.0,15,15,5.0,0.0
2890,48.0,15,15,5.0,0.0
2891,48.0,0,60,10.0,0.0
2892,60.0,0,90,3.0,0.0
2893,72.0,4,90,3.0,0.0
2894,36.0,0,60,11.0,0.0
2895,50.0,15,15,5.0,0.0
2896,72.0,0,90,4.0,0.0
2897,60.0,0,90,4.0,0.0
2898,48.0,15,15,5.0,0.0
2899,50.0,15,15,5.0,0.0
2900,48.0,15,15,5.0,0.0
2901,36.0,1,60,11.0,0.0
2902,50.0,15,15,5.0,0.0
2903,48.0,0,60,10.0,0.0
2904,48.0,1,15,5.0,0.0
2905,50.0,15,15,5.0,0.0
2906,48.0,0,15,5.0,0.0
2907,83.0,0,210,1.0,0.0
2908,60.0,0,90,3.0,0.0
2909,72.0,0,90,3.0,0.0
2910,59.0,0,210,8.0,0.0
2911,50.0,15,15,5.0,0.0
2912,36.0,0,60,11.0,0.0
2913,72.0,0,90,4.0,0.0
2914,56.0,0,210,6.0,0.0
2915,59.0,0,210,7.0,0.0
2916,65.0,0,210,6.0,0.0
2917,60.0,4,90,4.0,0.0
2918,48.0,0,60,10.0,0.0
2919,56.0,0,210,2.0,0.0
2920,48.0,15,15,5.0,0.0
2921,50.0,15,15,5.0,0.0
2922,48.0,15,15,5.0,0.0
2923,50.0,15,15,5.0,0.0
2924,36.0,0,60,11.0,0.0
2925,48.0,15,60,10.0,0.0
2926,48.0,11,15,5.0,0.0
2927,50.0,15,15,5.0,0.0
2928,48.0,0,15,5.0,0.0
2929,72.0,0,90,3.0,0.0
2930,50.0,15,15,5.0,0.0
2931,36.0,0,60,11.0,0.0
2932,60.0,0,90,4.0,0.0
2933,72.0,0,90,4.0,0.0
2934,60.0,4,90,3.0,0.0
2935,48.0,15,60,10.0,0.0
2936,48.0,15,15,5.0,0.0
2937,50.0,15,15,5.0,0.0
2938,48.0,0,15,5.0,0.0
2939,48.0,0,60,10.0,0.0
2940,36.0,0,60,11.0,0.0
2941,50.0,15,15,5.0,0.0
2942,48.0,1,15,5.0,0.0
2943,50.0,15,15,5.0,0.0
2944,48.0,60,15,5.0,0.0
2945,55.0,0,90,6.0,0.0
2946,64.0,19,90,6.0,0.0
2947,64.0,0,930,2.0,0.0
2948,48.0,0,60,10.0,0.0
2949,72.0,0,210,4.0,0.0
2950,76.0,0,930,1.0,0.0
2951,84.0,0,930,1.0,0.0
2952,60.0,41,60,8.0,0.0
2953,88.0,0,930,0.0,0.0
2954,55.0,0,930,2.0,0.0
2955,60.0,0,90,7.0,0.0
2956,48.0,0,90,5.0,0.0
2957,60.0,0,210,4.0,0.0
2958,60.0,0,210,3.0,0.0
2959,72.0,10,210,3.0,0.0
2960,36.0,0,60,11.0,0.0
2961,48.0,0,60,10.0,0.0
2962,60.0,0,60,8.0,0.0
2963,36.0,60,60,11.0,0.0
2964,64.0,0,90,6.0,0.0
2965,36.0,31,60,11.0,0.0
2966,48.0,0,60,10.0,0.0
2967,48.0,0,90,5.0,0.0
2968,60.0,0,60,8.0,0.0
2969,55.0,19,90,7.0,0.0
2970,48.0,0,60,10.0,0.0
2971,60.0,0,60,8.0,0.0
2972,36.0,60,60,11.0,0.0
2973,36.0,0,60,11.0,0.0
2974,67.0,10,210,4.0,0.0
2975,79.0,0,210,4.0,0.0
2976,67.0,0,90,6.0,0.0
2977,48.0,0,60,10.0,0.0
2978,79.0,0,210,3.0,0.0
2979,67.0,0,210,3.0,0.0
2980,60.0,41,60,8.0,0.0
2981,60.0,0,90,7.0,0.0
2982,48.0,19,90,5.0,0.0
2983,36.0,60,60,11.0,0.0
2984,48.0,0,60,10.0,0.0
2985,60.0,0,60,8.0,0.0
2986,60.0,0,60,8.0,0.0
2987,48.0,0,60,10.0,0.0
2988,36.0,31,60,11.0,0.0
2989,48.0,0,90,5.0,0.0
2990,72.0,19,90,6.0,0.0
2991,64.0,0,90,7.0,0.0
2992,60.0,60,60,8.0,0.0
2993,48.0,0,60,10.0,0.0
2994,36.0,0,60,11.0,0.0
2995,48.0,19,90,5.0,0.0
2996,76.0,0,90,6.0,0.0
2997,36.0,41,60,11.0,0.0
2998,67.0,0,90,7.0,0.0
2999,64.0,0,210,4.0,0.0
3000,64.0,0,210,3.0,0.0
3001,48.0,0,60,10.0,0.0
3002,76.0,10,210,4.0,0.0
3003,60.0,0,60,8.0,0.0
3004,76.0,0,210,3.0,0.0
3005,36.0,60,60,11.0,0.0
3006,48.0,0,60,10.0,0.0
3007,60.0,0,60,8.0,0.0
3008,72.0,0,90,7.0,0.0
3009,36.0,0,60,11.0,0.0
3010,60.0,31,60,8.0,0.0
3011,48.0,19,90,5.0,0.0
3012,79.0,0,90,6.0,0.0
3013,48.0,0,60,10.0,0.0
3014,48.0,60,60,10.0,0.0
3015,36.0,0,60,11.0,0.0
3016,60.0,0,60,8.0,0.0
3017,72.0,0,210,4.0,0.0
3018,72.0,0,210,3.0,0.0
3019,60.0,0,210,3.0,0.0
3020,36.0,1,60,11.0,0.0
3021,48.0,0,60,10.0,0.0
3022,84.0,20,90,6.0,0.0
3023,60.0,0,60,8.0,0.0
3024,48.0,19,90,5.0,0.0
3025,60.0,29,210,4.0,0.0
3026,76.0,20,60,7.0,0.0
3027,48.0,60,60,10.0,0.0
3028,36.0,0,60,11.0,0.0
3029,60.0,0,60,8.0,0.0
3030,79.0,30,60,7.0,0.0
3031,88.0,0,60,6.0,0.0
3032,60.0,0,60,8.0,0.0
3033,36.0,0,60,11.0,0.0
3034,48.0,1,60,10.0,0.0
3035,48.0,0,60,10.0,0.0
3036,36.0,0,60,11.0,0.0
3037,60.0,60,60,8.0,0.0
3038,59.0,0,90,2.0,0.0
3039,67.0,0,450,3.0,0.0
3040,74.0,10,450,4.0,0.0
3041,74.0,0,90,1.0,0.0
3042,67.0,0,450,4.0,0.0
3043,50.0,0,60,10.0,0.0
3044,62.0,0,60,8.0,0.0
3045,38.0,0,60,11.0,0.0
3046,86.0,0,90,0.0,0.0
3047,74.0,0,450,3.0,0.0
3048,83.0,19,90,1.0,0.0
3049,62.0,0,90,2.0,0.0
3050,79.0,0,60,7.0,0.0
3051,74.0,0,60,6.0,0.0
3052,62.0,41,60,6.0,0.0
3053,71.0,0,60,7.0,0.0
3054,86.0,0,60,6.0,0.0
3055,62.0,41,60,8.0,0.0
3056,50.0,0,60,10.0,0.0
3057,79.0,0,90,7.0,0.0
3058,38.0,0,60,11.0,0.0
3059,71.0,19,90,7.0,0.0
3060,86.0,10,210,6.0,0.0
3061,74.0,19,90,0.0,0.0
3062,50.0,0,60,10.0,0.0
3063,50.0,0,90,2.0,0.0
3064,38.0,0,90,2.0,0.0
3065,74.0,0,90,1.0,0.0
3066,62.0,0,90,1.0,0.0
3067,62.0,0,60,8.0,0.0
3068,38.0,41,60,11.0,0.0
3069,71.0,19,90,7.0,0.0
3070,62.0,41,60,8.0,0.0
3071,38.0,0,60,11.0,0.0
3072,79.0,0,90,7.0,0.0
3073,50.0,0,60,10.0,0.0
3074,67.0,0,90,1.0,0.0
3075,55.0,0,90,2.0,0.0
3076,50.0,31,60,10.0,0.0
3077,62.0,0,60,8.0,0.0
3078,43.0,0,90,2.0,0.0
3079,79.0,19,90,1.0,0.0
3080,38.0,0,60,11.0,0.0
3081,79.0,0,90,0.0,0.0
3082,38.0,15,60,11.0,0.0
3083,50.0,0,60,10.0,0.0
3084,79.0,0,90,7.0,0.0
3085,71.0,19,90,7.0,0.0
3086,62.0,0,60,8.0,0.0
3087,50.0,0,60,10.0,0.0
3088,62.0,30,60,8.0,0.0
3089,83.0,0,90,1.0,0.0
3090,59.0,0,90,2.0,0.0
3091,38.0,0,60,11.0,0.0
3092,71.0,0,90,1.0,0.0
3093,84.0,26,15,6.0,0.0
3094,47.0,0,90,2.0,0.0
3095,83.0,19,90,0.0,0.0
3096,83.0,0,30,6.0,0.0
3097,62.0,0,60,8.0,0.0
3098,71.0,59,60,7.0,0.0
3099,79.0,0,60,7.0,0.0
3100,50.0,1,60,10.0,0.0
3101,81.0,1,30,6.0,0.0
3102,38.0,0,60,11.0,0.0
3103,79.0,0,30,6.0,0.0
3104,62.0,0,330,2.0,0.0
3105,74.0,0,90,4.0,0.0
3106,67.0,0,90,4.0,0.0
3107,71.0,0,60,7.0,0.0
3108,79.0,0,60,7.0,0.0
3109,50.0,0,60,10.0,0.0
3110,86.0,10,330,0.0,0.0
3111,50.0,0,330,2.0,0.0
3112,67.0,0,90,3.0,0.0
3113,86.0,0,330,1.0,0.0
3114,38.0,41,60,11.0,0.0
3115,62.0,0,60,8.0,0.0
3116,74.0,0,90,3.0,0.0
3117,74.0,0,330,1.0,0.0
3118,86.0,19,90,6.0,0.0
3119,71.0,0,90,7.0,0.0
3120,50.0,0,60,10.0,0.0
3121,62.0,0,60,8.0,0.0
3122,38.0,15,60,11.0,0.0
3123,79.0,19,90,7.0,0.0
3124,50.0,0,60,10.0,0.0
3125,62.0,0,60,8.0,0.0
3126,84.0,26,15,6.0,0.0
3127,38.0,30,60,11.0,0.0
3128,83.0,0,30,6.0,0.0
3129,62.0,1,60,8.0,0.0
3130,81.0,30,30,6.0,0.0
3131,50.0,0,60,10.0,0.0
3132,38.0,0,60,11.0,0.0
3133,79.0,59,60,7.0,0.0
3134,79.0,0,30,6.0,0.0
3135,38.0,0,60,11.0,0.0
3136,71.0,0,15,7.0,0.0
3137,74.0,19,90,3.0,0.0
3138,74.0,0,90,4.0,0.0
3139,62.0,21,60,8.0,0.0
3140,50.0,0,60,10.0,0.0
3141,83.0,10,90,6.0,0.0
3142,79.0,0,60,7.0,0.0
3143,50.0,0,60,10.0,0.0
3144,38.0,0,60,11.0,0.0
3145,62.0,60,60,8.0,0.0
3146,81.0,20,90,6.0,0.0
3147,50.0,0,90,2.0,0.0
3148,90.0,0,90,0.0,0.0
3149,50.0,0,60,10.0,0.0
3150,62.0,0,60,7.0,0.0
3151,69.0,0,60,7.0,0.0
3152,78.0,21,60,7.0,0.0
3153,62.0,0,60,8.0,0.0
3154,38.0,0,60,11.0,0.0
3155,78.0,19,90,1.0,0.0
3156,38.0,0,60,11.0,0.0
3157,50.0,60,60,10.0,0.0
3158,62.0,0,60,8.0,0.0
3159,43.0,0,60,11.0,0.0
3160,55.0,1,60,8.0,0.0
3161,91.0,0,1410,0.0,0.0
3162,59.0,30,180,7.0,0.0
3163,55.0,40,60,10.0,0.0
3164,59.0,0,180,2.0,0.0
3165,67.0,29,210,3.0,0.0
3166,59.0,19,150,10.0,0.0
3167,43.0,19,90,5.0,0.0
3168,79.0,0,1410,1.0,0.0
3169,79.0,0,180,6.0,0.0
3170,67.0,0,210,4.0,0.0
3171,67.0,0,60,8.0,0.0
3172,67.0,1,60,8.0,0.0
3173,55.0,0,60,8.0,0.0
3174,55.0,40,15,10.0,0.0
3175,55.0,0,60,8.0,0.0
3176,43.0,0,15,11.0,0.0
3177,67.0,1,60,8.0,0.0
3178,55.0,0,60,8.0,0.0
3179,67.0,0,60,8.0,0.0
3180,78.0,60,60,6.0,0.0
3181,57.0,0,60,2.0,0.0
3182,57.0,0,60,7.0,0.0
3183,43.0,0,60,11.0,0.0
3184,55.0,0,60,10.0,0.0
3185,57.0,0,60,10.0,0.0
3186,67.0,0,60,8.0,0.0
3187,67.0,19,90,3.0,0.0
3188,67.0,0,90,4.0,0.0
3189,60.0,10,90,7.0,0.0
3190,55.0,0,60,10.0,0.0
3191,60.0,1,90,10.0,0.0
3192,55.0,1,60,8.0,0.0
3193,60.0,0,90,2.0,0.0
3194,81.0,0,90,6.0,0.0
3195,55.0,0,60,8.0,0.0
3196,43.0,29,15,11.0,0.0
3197,55.0,0,60,10.0,0.0
3198,67.0,0,60,8.0,0.0
3199,59.0,1,30,2.0,0.0
3200,79.0,0,30,6.0,0.0
3201,59.0,0,30,7.0,0.0
3202,67.0,0,90,3.0,0.0
3203,64.0,0,90,7.0,0.0
3204,43.0,29,15,11.0,0.0
3205,84.0,0,90,6.0,0.0
3206,59.0,30,30,10.0,0.0
3207,67.0,19,90,4.0,0.0
3208,64.0,10,90,2.0,0.0
3209,67.0,1,60,8.0,0.0
3210,55.0,0,60,8.0,0.0
3211,64.0,0,90,10.0,0.0
3212,55.0,0,60,10.0,0.0
3213,55.0,0,60,8.0,0.0
3214,43.0,29,60,11.0,0.0
3215,67.0,0,60,8.0,0.0
3216,62.0,0,30,10.0,0.0
3217,62.0,0,30,7.0,0.0
3218,62.0,0,30,2.0,0.0
3219,83.0,1,30,6.0,0.0
3220,60.0,0,180,2.0,0.0
3221,67.0,0,210,3.0,0.0
3222,43.0,19,90,5.0,0.0
3223,67.0,1,60,8.0,0.0
3224,67.0,29,210,4.0,0.0
3225,60.0,19,150,10.0,0.0
3226,55.0,30,30,10.0,0.0
3227,60.0,0,180,7.0,0.0
3228,81.0,30,180,6.0,0.0
3229,55.0,0,60,8.0,0.0
3230,43.0,0,15,11.0,0.0
3231,55.0,1,60,8.0,0.0
3232,67.0,0,60,8.0,0.0
3233,55.0,40,15,10.0,0.0
3234,55.0,0,15,10.0,0.0
3235,43.0,40,15,11.0,0.0
3236,67.0,0,60,8.0,0.0
3237,55.0,1,60,8.0,0.0
3238,43.0,0,60,11.0,0.0
3239,55.0,0,60,10.0,0.0
3240,59.0,0,60,10.0,0.0
3241,59.0,0,60,7.0,0.0
3242,55.0,0,60,8.0,0.0
3243,67.0,60,60,8.0,0.0
3244,80.0,0,60,6.0,0.0
3245,59.0,0,60,2.0,0.0
3246,55.0,0,60,8.0,0.0
3247,83.0,0,90,6.0,0.0
3248,67.0,1,60,8.0,0.0
3249,67.0,19,90,3.0,0.0
3250,55.0,0,60,10.0,0.0
3251,62.0,0,90,2.0,0.0
3252,67.0,0,90,4.0,0.0
3253,62.0,10,90,7.0,0.0
3254,62.0,1,90,10.0,0.0
3255,43.0,29,15,11.0,0.0
3256,55.0,0,60,8.0,0.0
3257,67.0,1,60,8.0,0.0
3258,55.0,0,60,10.0,0.0
3259,60.0,0,30,2.0,0.0
3260,81.0,0,30,6.0,0.0
3261,60.0,0,30,7.0,0.0
3262,67.0,0,90,3.0,0.0
3263,86.0,0,90,6.0,0.0
3264,67.0,1,60,8.0,0.0
3265,55.0,0,60,8.0,0.0
3266,65.0,0,90,2.0,0.0
3267,60.0,30,30,10.0,0.0
3268,43.0,29,15,11.0,0.0
3269,67.0,19,90,4.0,0.0
3270,65.0,10,90,7.0,0.0
3271,65.0,0,90,10.0,0.0
3272,67.0,0,60,8.0,0.0
3273,43.0,29,60,11.0,0.0
3274,55.0,0,60,8.0,0.0
3275,64.0,0,30,2.0,0.0
3276,84.0,1,30,6.0,0.0
3277,64.0,0,30,7.0,0.0
3278,64.0,0,30,10.0,0.0
3279,55.0,0,15,10.0,0.0
3280,55.0,30,30,10.0,0.0
3281,62.0,19,150,10.0,0.0
3282,67.0,29,210,4.0,0.0
3283,62.0,0,180,7.0,0.0
3284,62.0,0,180,2.0,0.0
3285,67.0,1,60,8.0,0.0
3286,55.0,0,60,8.0,0.0
3287,83.0,0,180,6.0,0.0
3288,67.0,0,210,3.0,0.0
3289,43.0,19,90,5.0,0.0
3290,43.0,0,15,11.0,0.0
3291,55.0,1,60,8.0,0.0
3292,67.0,0,60,8.0,0.0
3293,43.0,40,15,11.0,0.0
3294,55.0,0,15,10.0,0.0
3295,55.0,0,60,8.0,0.0
3296,67.0,1,60,8.0,0.0
3297,67.0,60,60,8.0,0.0
3298,55.0,0,60,8.0,0.0
3299,82.0,0,60,6.0,0.0
3300,61.0,0,60,10.0,0.0
3301,61.0,0,60,2.0,0.0
3302,55.0,0,60,10.0,0.0
3303,61.0,0,60,7.0,0.0
3304,43.0,0,60,11.0,0.0
3305,67.0,0,60,8.0,0.0
3306,64.0,0,90,2.0,0.0
3307,43.0,0,60,11.0,0.0
3308,67.0,19,90,3.0,0.0
3309,55.0,1,60,8.0,0.0
3310,84.0,0,90,6.0,0.0
3311,64.0,10,90,7.0,0.0
3312,64.0,1,90,10.0,0.0
3313,67.0,0,90,4.0,0.0
3314,67.0,1,60,8.0,0.0
3315,55.0,0,60,8.0,0.0
3316,55.0,29,15,10.0,0.0
3317,83.0,0,30,6.0,0.0
3318,62.0,0,30,2.0,0.0
3319,62.0,0,30,7.0,0.0
3320,43.0,0,15,11.0,0.0
3321,67.0,10,90,7.0,0.0
3322,88.0,0,90,6.0,0.0
3323,67.0,0,90,2.0,0.0
3324,67.0,19,90,3.0,0.0
3325,67.0,0,90,4.0,0.0
3326,62.0,30,30,10.0,0.0
3327,67.0,1,60,8.0,0.0
3328,55.0,0,60,8.0,0.0
3329,55.0,0,60,10.0,0.0
3330,67.0,0,90,10.0,0.0
3331,43.0,30,15,11.0,0.0
3332,55.0,1,60,8.0,0.0
3333,67.0,0,60,8.0,0.0
3334,86.0,0,30,6.0,0.0
3335,65.0,0,30,2.0,0.0
3336,65.0,0,30,7.0,0.0
3337,65.0,0,30,10.0,0.0
3338,43.0,0,60,11.0,0.0
3339,91.0,29,210,0.0,0.0
3340,67.0,1,60,8.0,0.0
3341,55.0,0,60,8.0,0.0
3342,64.0,19,150,10.0,0.0
3343,64.0,0,150,7.0,0.0
3344,64.0,0,210,2.0,0.0
3345,84.0,30,30,6.0,0.0
3346,67.0,19,90,3.0,0.0
3347,55.0,0,30,10.0,0.0
3348,43.0,0,90,5.0,0.0
3349,79.0,0,210,1.0,0.0
3350,67.0,0,90,4.0,0.0
3351,86.0,30,30,6.0,0.0
3352,67.0,0,60,8.0,0.0
3353,55.0,41,60,8.0,0.0
3354,43.0,0,60,11.0,0.0
3355,88.0,10,30,6.0,0.0
3356,55.0,0,60,10.0,0.0
3357,86.0,0,30,6.0,0.0
3358,67.0,0,60,8.0,0.0
3359,55.0,0,60,10.0,0.0
3360,43.0,0,60,11.0,0.0
3361,55.0,0,60,8.0,0.0
3362,84.0,21,60,6.0,0.0
3363,84.0,10,20,6.0,0.0
3364,55.0,0,60,10.0,0.0
3365,43.0,30,60,11.0,0.0
3366,64.0,0,60,7.0,0.0
3367,67.0,0,60,8.0,0.0
3368,55.0,0,60,8.0,0.0
3369,64.0,0,60,10.0,0.0
3370,62.0,0,150,7.0,0.0
3371,55.0,0,60,10.0,0.0
3372,62.0,19,150,10.0,0.0
3373,91.0,29,210,0.0,0.0
3374,79.0,0,210,1.0,0.0
3375,67.0,1,60,8.0,0.0
3376,55.0,0,60,8.0,0.0
3377,67.0,0,90,3.0,0.0
3378,67.0,19,90,4.0,0.0
3379,43.0,0,60,11.0,0.0
3380,62.0,0,210,2.0,0.0
3381,83.0,30,30,6.0,0.0
3382,43.0,0,90,5.0,0.0
3383,84.0,30,30,6.0,0.0
3384,55.0,0,60,8.0,0.0
3385,43.0,0,60,11.0,0.0
3386,86.0,10,30,6.0,0.0
3387,55.0,41,60,10.0,0.0
3388,67.0,0,60,8.0,0.0
3389,84.0,0,30,6.0,0.0
3390,55.0,0,60,10.0,0.0
3391,43.0,0,60,11.0,0.0
3392,83.0,0,60,6.0,0.0
3393,55.0,21,60,8.0,0.0
3394,67.0,0,60,8.0,0.0
3395,55.0,0,60,8.0,0.0
3396,67.0,0,60,8.0,0.0
3397,62.0,0,60,7.0,0.0
3398,62.0,0,60,10.0,0.0
3399,55.0,0,60,10.0,0.0
3400,83.0,10,20,6.0,0.0
3401,43.0,60,60,11.0,0.0
3402,81.0,30,180,6.0,0.0
3403,60.0,0,60,8.0,0.0
3404,60.0,41,60,2.0,0.0
3405,72.0,0,210,4.0,0.0
3406,48.0,0,60,10.0,0.0
3407,72.0,19,90,7.0,0.0
3408,72.0,0,210,3.0,0.0
3409,76.0,0,210,3.0,0.0
3410,36.0,0,60,11.0,0.0
3411,84.0,59,120,1.0,0.0
3412,81.0,0,120,1.0,0.0
3413,64.0,0,90,7.0,0.0
3414,88.0,0,120,0.0,0.0
3415,60.0,0,60,10.0,0.0
3416,76.0,0,210,4.0,0.0
3417,60.0,0,60,10.0,0.0
3418,36.0,1,60,11.0,0.0
3419,60.0,0,60,8.0,0.0
3420,60.0,0,60,2.0,0.0
3421,48.0,0,60,10.0,0.0
3422,76.0,59,120,1.0,0.0
3423,84.0,0,240,0.0,0.0
3424,60.0,0,60,2.0,0.0
3425,60.0,0,60,10.0,0.0
3426,48.0,1,60,10.0,0.0
3427,36.0,0,60,11.0,0.0
3428,81.0,10,210,1.0,0.0
3429,60.0,0,60,8.0,0.0
3430,60.0,0,60,2.0,0.0
3431,83.0,29,30,6.0,0.0
3432,36.0,0,60,11.0,0.0
3433,60.0,1,60,10.0,0.0
3434,60.0,0,60,8.0,0.0
3435,48.0,0,60,10.0,0.0
3436,84.0,0,30,6.0,0.0
3437,62.0,0,60,2.0,0.0
3438,62.0,0,60,8.0,0.0
3439,50.0,31,60,10.0,0.0
3440,62.0,0,60,10.0,0.0
3441,78.0,59,120,1.0,0.0
3442,74.0,30,180,6.0,0.0
3443,74.0,0,210,4.0,0.0
3444,57.0,0,90,7.0,0.0
3445,66.0,19,90,7.0,0.0
3446,38.0,0,60,11.0,0.0
3447,74.0,10,210,3.0,0.0
3448,50.0,0,60,10.0,0.0
3449,62.0,1,60,10.0,0.0
3450,38.0,0,60,11.0,0.0
3451,62.0,0,60,2.0,0.0
3452,62.0,0,60,8.0,0.0
3453,50.0,0,60,10.0,0.0
3454,62.0,0,60,2.0,0.0
3455,78.0,0,90,1.0,0.0
3456,81.0,19,90,0.0,0.0
3457,72.0,0,90,1.0,0.0
3458,38.0,0,60,11.0,0.0
3459,62.0,0,60,8.0,0.0
3460,62.0,1,60,10.0,0.0
3461,38.0,0,60,11.0,0.0
3462,76.0,0,30,6.0,0.0
3463,62.0,60,60,8.0,0.0
3464,50.0,0,60,10.0,0.0
3465,62.0,0,60,10.0,0.0
3466,62.0,0,60,2.0,0.0
3467,78.0,0,30,6.0,0.0
3468,67.0,29,210,3.0,0.0
3469,83.0,0,180,0.0,0.0
3470,67.0,0,210,4.0,0.0
3471,59.0,0,180,7.0,0.0
3472,79.0,41,60,6.0,0.0
3473,71.0,0,180,1.0,0.0
3474,55.0,0,180,2.0,0.0
3475,43.0,60,90,5.0,0.0
3476,55.0,30,180,8.0,0.0
3477,55.0,0,180,10.0,0.0
3478,43.0,0,180,11.0,0.0
3479,79.0,20,90,6.0,0.0
3480,69.0,41,60,1.0,0.0
3481,54.0,0,60,8.0,0.0
3482,81.0,0,60,0.0,0.0
3483,79.0,50,90,6.0,0.0
3484,57.0,0,60,7.0,0.0
3485,42.0,0,60,11.0,0.0
3486,54.0,0,60,10.0,0.0
3487,54.0,0,60,2.0,0.0
3488,72.0,0,90,1.0,0.0
3489,67.0,0,90,4.0,0.0
3490,57.0,0,90,2.0,0.0
3491,45.0,0,90,11.0,0.0
3492,84.0,0,90,0.0,0.0
3493,57.0,10,90,10.0,0.0
3494,57.0,0,90,8.0,0.0
3495,60.0,0,90,7.0,0.0
3496,67.0,19,90,3.0,0.0
3497,79.0,50,90,6.0,0.0
3498,59.0,0,30,7.0,0.0
3499,55.0,0,30,2.0,0.0
3500,55.0,0,30,10.0,0.0
3501,71.0,41,30,1.0,0.0
3502,83.0,0,30,0.0,0.0
3503,43.0,0,30,11.0,0.0
3504,55.0,0,30,8.0,0.0
3505,48.0,0,90,11.0,0.0
3506,60.0,0,90,10.0,0.0
3507,60.0,10,90,8.0,0.0
3508,60.0,0,90,2.0,0.0
3509,88.0,0,90,0.0,0.0
3510,67.0,19,90,3.0,0.0
3511,76.0,0,90,1.0,0.0
3512,67.0,0,90,4.0,0.0
3513,64.0,0,90,7.0,0.0
3514,86.0,0,30,0.0,0.0
3515,59.0,0,30,10.0,0.0
3516,74.0,0,30,1.0,0.0
3517,59.0,1,30,2.0,0.0
3518,47.0,0,30,11.0,0.0
3519,62.0,0,30,7.0,0.0
3520,59.0,0,30,8.0,0.0
3521,57.0,0,180,2.0,0.0
3522,79.0,59,15,6.0,0.0
3523,67.0,0,210,3.0,0.0
3524,45.0,0,180,11.0,0.0
3525,84.0,0,180,0.0,0.0
3526,57.0,30,180,8.0,0.0
3527,43.0,60,90,5.0,0.0
3528,67.0,29,210,4.0,0.0
3529,57.0,0,180,10.0,0.0
3530,72.0,0,180,1.0,0.0
3531,60.0,0,180,7.0,0.0
3532,79.0,20,90,6.0,0.0
3533,44.0,0,60,11.0,0.0
3534,71.0,0,60,1.0,0.0
3535,83.0,0,60,0.0,0.0
3536,56.0,0,60,2.0,0.0
3537,59.0,41,60,7.0,0.0
3538,79.0,50,90,6.0,0.0
3539,56.0,0,60,10.0,0.0
3540,56.0,0,60,8.0,0.0
3541,67.0,0,90,3.0,0.0
3542,59.0,0,90,2.0,0.0
3543,59.0,0,90,10.0,0.0
3544,67.0,19,90,4.0,0.0
3545,86.0,0,90,0.0,0.0
3546,62.0,0,90,7.0,0.0
3547,47.0,10,90,11.0,0.0
3548,59.0,0,90,8.0,0.0
3549,74.0,0,90,1.0,0.0
3550,79.0,50,90,6.0,0.0
3551,72.0,0,30,1.0,0.0
3552,84.0,0,30,0.0,0.0
3553,57.0,0,30,2.0,0.0
3554,57.0,0,30,10.0,0.0
3555,57.0,0,30,8.0,0.0
3556,60.0,41,30,7.0,0.0
3557,45.0,0,30,11.0,0.0
3558,62.0,0,90,2.0,0.0
3559,62.0,10,90,10.0,0.0
3560,67.0,19,90,3.0,0.0
3561,89.0,0,90,0.0,0.0
3562,62.0,0,90,8.0,0.0
3563,67.0,0,90,4.0,0.0
3564,50.0,0,90,11.0,0.0
3565,77.0,0,90,1.0,0.0
3566,65.0,0,90,7.0,0.0
3567,60.0,0,30,2.0,0.0
3568,60.0,0,30,8.0,0.0
3569,76.0,0,30,1.0,0.0
3570,64.0,0,30,7.0,0.0
3571,60.0,0,30,10.0,0.0
3572,48.0,0,30,11.0,0.0
3573,88.0,1,30,0.0,0.0
3574,67.0,0,210,3.0,0.0
3575,67.0,29,210,4.0,0.0
3576,74.0,0,180,1.0,0.0
3577,59.0,0,180,10.0,0.0
3578,86.0,0,180,0.0,0.0
3579,59.0,0,180,8.0,0.0
3580,43.0,60,90,5.0,0.0
3581,59.0,30,180,2.0,0.0
3582,79.0,59,15,6.0,0.0
3583,47.0,0,180,11.0,0.0
3584,62.0,0,180,7.0,0.0
3585,79.0,20,90,6.0,0.0
3586,58.0,0,60,10.0,0.0
3587,46.0,0,60,11.0,0.0
3588,73.0,41,60,1.0,0.0
3589,79.0,50,90,6.0,0.0
3590,85.0,0,60,0.0,0.0
3591,61.0,0,60,7.0,0.0
3592,58.0,0,60,8.0,0.0
3593,58.0,0,60,2.0,0.0
3594,48.0,0,90,11.0,0.0
3595,67.0,0,90,3.0,0.0
3596,76.0,0,90,1.0,0.0
3597,88.0,0,90,0.0,0.0
3598,60.0,0,90,8.0,0.0
3599,64.0,0,90,7.0,0.0
3600,60.0,10,90,2.0,0.0
3601,60.0,0,90,10.0,0.0
3602,67.0,19,90,4.0,0.0
3603,79.0,50,90,6.0,0.0
3604,59.0,0,30,8.0,0.0
3605,62.0,0,30,7.0,0.0
3606,59.0,0,30,2.0,0.0
3607,74.0,41,30,1.0,0.0
3608,47.0,0,30,11.0,0.0
3609,86.0,0,30,0.0,0.0
3610,59.0,0,30,10.0,0.0
3611,64.0,0,90,10.0,0.0
3612,67.0,0,90,7.0,0.0
3613,64.0,0,90,8.0,0.0
3614,52.0,10,90,11.0,0.0
3615,67.0,0,90,3.0,0.0
3616,91.0,0,90,0.0,0.0
3617,64.0,0,90,2.0,0.0
3618,79.0,0,90,1.0,0.0
3619,67.0,19,90,4.0,0.0
3620,79.0,101,60,6.0,0.0
3621,65.0,0,30,7.0,0.0
3622,62.0,0,30,8.0,0.0
3623,77.0,0,30,1.0,0.0
3624,62.0,0,30,2.0,0.0
3625,50.0,0,30,11.0,0.0
3626,89.0,0,30,0.0,0.0
3627,62.0,0,30,10.0,0.0
3628,67.0,0,90,3.0,0.0
3629,60.0,0,90,8.0,0.0
3630,60.0,0,90,2.0,0.0
3631,48.0,0,90,11.0,0.0
3632,67.0,0,90,4.0,0.0
3633,60.0,20,90,10.0,0.0
3634,76.0,0,120,1.0,0.0
3635,79.0,100,120,1.0,0.0
3636,88.0,0,120,0.0,0.0
3637,79.0,0,90,6.0,0.0
3638,64.0,0,90,7.0,0.0
3639,89.0,100,120,0.0,0.0
3640,74.0,0,90,3.0,0.0
3641,50.0,0,90,11.0,0.0
3642,77.0,0,90,3.0,0.0
3643,59.0,0,90,8.0,0.0
3644,80.0,0,90,1.0,0.0
3645,77.0,20,90,1.0,0.0
3646,80.0,0,90,6.0,0.0
3647,65.0,0,90,7.0,0.0
3648,62.0,0,90,2.0,0.0
3649,62.0,0,90,10.0,0.0
3650,60.0,0,90,10.0,0.0
3651,48.0,0,90,11.0,0.0
3652,81.0,0,90,6.0,0.0
3653,76.0,0,330,1.0,0.0
3654,81.0,0,120,1.0,0.0
3655,72.0,0,90,3.0,0.0
3656,64.0,0,90,7.0,0.0
3657,76.0,0,90,3.0,0.0
3658,60.0,0,90,2.0,0.0
3659,88.0,100,120,0.0,0.0
3660,60.0,20,90,8.0,0.0
3661,44.0,0,90,11.0,0.0
3662,56.0,0,90,2.0,0.0
3663,76.0,0,90,4.0,0.0
3664,64.0,0,90,4.0,0.0
3665,62.0,0,90,7.0,0.0
3666,64.0,59,120,8.0,0.0
3667,86.0,0,120,0.0,0.0
3668,83.0,20,90,6.0,0.0
3669,56.0,0,90,10.0,0.0
3670,64.0,0,90,3.0,0.0
3671,76.0,0,90,3.0,0.0
3672,83.0,0,120,1.0,0.0
3673,84.0,0,90,1.0,0.0
3674,57.0,0,60,2.0,0.0
3675,45.0,0,60,11.0,0.0
3676,72.0,0,90,4.0,0.0
3677,60.0,19,90,7.0,0.0
3678,84.0,0,90,0.0,0.0
3679,64.0,41,60,8.0,0.0
3680,57.0,0,60,10.0,0.0
3681,84.0,0,60,6.0,0.0
3682,60.0,0,90,4.0,0.0
3683,76.0,0,90,3.0,0.0
3684,64.0,0,90,3.0,0.0
3685,84.0,19,90,6.0,0.0
3686,57.0,0,60,8.0,0.0
3687,57.0,0,60,2.0,0.0
3688,57.0,0,60,10.0,0.0
3689,45.0,41,60,11.0,0.0
3690,87.0,0,120,0.0,0.0
3691,55.0,0,60,10.0,0.0
3692,58.0,0,60,8.0,0.0
3693,72.0,19,90,3.0,0.0
3694,72.0,10,210,1.0,0.0
3695,43.0,0,60,11.0,0.0
3696,60.0,0,90,3.0,0.0
3697,55.0,41,60,2.0,0.0
3698,63.0,0,90,7.0,0.0
3699,75.0,40,120,1.0,0.0
3700,84.0,19,90,6.0,0.0
3701,55.0,0,60,10.0,0.0
3702,55.0,0,60,2.0,0.0
3703,58.0,0,60,8.0,0.0
3704,43.0,1,60,11.0,0.0
3705,54.0,31,60,10.0,0.0
3706,72.0,19,90,3.0,0.0
3707,60.0,0,90,4.0,0.0
3708,86.0,40,120,0.0,0.0
3709,54.0,0,60,2.0,0.0
3710,60.0,0,90,3.0,0.0
3711,72.0,0,90,4.0,0.0
3712,62.0,0,90,7.0,0.0
3713,74.0,0,120,1.0,0.0
3714,57.0,0,60,8.0,0.0
3715,42.0,0,60,11.0,0.0
3716,54.0,0,60,10.0,0.0
3717,54.0,1,60,2.0,0.0
3718,57.0,0,60,8.0,0.0
3719,42.0,0,60,11.0,0.0
3720,84.0,19,90,6.0,0.0
3721,72.0,0,90,3.0,0.0
3722,60.0,0,90,3.0,0.0
3723,63.0,19,90,7.0,0.0
3724,87.0,0,120,0.0,0.0
3725,58.0,0,60,8.0,0.0
3726,75.0,60,120,1.0,0.0
3727,55.0,0,60,2.0,0.0
3728,55.0,0,60,10.0,0.0
3729,43.0,41,60,11.0,0.0
3730,55.0,1,60,10.0,0.0
3731,55.0,0,60,2.0,0.0
3732,58.0,0,60,8.0,0.0
3733,84.0,40,120,6.0,0.0
3734,43.0,0,60,11.0,0.0
3735,62.0,0,90,7.0,0.0
3736,54.0,0,90,2.0,0.0
3737,72.0,0,90,4.0,0.0
3738,72.0,0,90,3.0,0.0
3739,60.0,20,90,3.0,0.0
3740,60.0,0,90,4.0,0.0
3741,86.0,0,90,0.0,0.0
3742,42.0,0,90,11.0,0.0
3743,57.0,0,90,8.0,0.0
3744,74.0,0,90,1.0,0.0
3745,72.0,0,15,1.0,0.0
3746,54.0,0,90,10.0,0.0
3747,81.0,60,60,6.0,0.0
3748,78.0,60,60,6.0,0.0
3749,74.0,60,60,6.0,0.0
3750,72.0,60,60,6.0,0.0
3751,69.0,60,60,6.0,0.0
3752,66.0,59,60,6.0,0.0
3753,62.0,101,60,6.0,0.0
3754,60.0,440,90,6.0,0.0
3755,67.0,20,90,8.0,0.0
3756,55.0,40,60,10.0,0.0
3757,59.0,60,60,10.0,0.0
3758,62.0,59,60,10.0,0.0
3759,74.0,0,60,6.0,0.0
3760,62.0,60,60,7.0,0.0
3761,59.0,1,60,10.0,0.0
3762,71.0,20,90,7.0,0.0
3763,55.0,40,60,10.0,0.0
3764,59.0,20,60,10.0,0.0
3765,62.0,20,60,10.0,0.0
3766,71.0,25,20,7.0,0.0
3767,83.0,0,15,6.0,0.0
3768,59.0,61,60,10.0,0.0
3769,71.0,25,20,7.0,0.0
3770,83.0,14,60,6.0,0.0
3771,38.0,0,90,11.0,0.0
3772,54.0,40,60,10.0,0.0
3773,62.0,19,90,8.0,0.0
3774,71.0,0,60,7.0,0.0
3775,83.0,0,60,6.0,0.0
3776,81.0,1,60,6.0,0.0
3777,69.0,0,60,7.0,0.0
3778,60.0,20,60,10.0,0.0
3779,62.0,20,60,10.0,0.0
3780,81.0,0,20,6.0,0.0
3781,69.0,40,20,7.0,0.0
3782,81.0,0,20,6.0,0.0
3783,60.0,16,60,10.0,0.0
3784,69.0,39,20,7.0,0.0
3785,54.0,40,60,10.0,0.0
3786,83.0,0,15,6.0,0.0
3787,71.0,30,15,7.0,0.0
3788,81.0,0,30,6.0,0.0
3789,69.0,15,30,7.0,0.0
3790,79.0,0,30,6.0,0.0
3791,60.0,40,60,10.0,0.0
3792,67.0,20,30,7.0,0.0
3793,69.0,20,30,7.0,0.0
3794,62.0,40,60,10.0,0.0
3795,81.0,0,30,6.0,0.0
3796,60.0,61,60,10.0,0.0
3797,71.0,19,30,7.0,0.0
3798,83.0,0,30,6.0,0.0
3799,79.0,59,120,6.0,0.0
3800,55.0,40,60,10.0,0.0
3801,67.0,0,120,7.0,0.0
3802,74.0,0,2010,1.0,0.0
3803,55.0,20,90,8.0,0.0
3804,59.0,0,60,10.0,0.0
3805,74.0,1,60,6.0,0.0
3806,62.0,0,60,7.0,0.0
3807,62.0,20,60,10.0,0.0
3808,74.0,39,20,6.0,0.0
3809,62.0,0,20,7.0,0.0
3810,59.0,61,60,10.0,0.0
3811,55.0,0,60,10.0,0.0
3812,62.0,0,60,7.0,0.0
3813,74.0,59,60,6.0,0.0
3814,59.0,20,60,10.0,0.0
3815,71.0,1,60,7.0,0.0
3816,83.0,0,60,6.0,0.0
3817,71.0,0,20,7.0,0.0
3818,83.0,40,20,6.0,0.0
3819,62.0,20,60,10.0,0.0
3820,59.0,61,60,10.0,0.0
3821,71.0,0,20,7.0,0.0
3822,83.0,39,20,6.0,0.0
3823,62.0,0,90,8.0,0.0
3824,38.0,19,90,11.0,0.0
3825,83.0,0,60,6.0,0.0
3826,71.0,0,60,7.0,0.0
3827,54.0,40,60,10.0,0.0
3828,69.0,0,60,7.0,0.0
3829,81.0,1,60,6.0,0.0
3830,60.0,20,60,10.0,0.0
3831,81.0,40,20,6.0,0.0
3832,69.0,0,20,7.0,0.0
3833,62.0,20,60,10.0,0.0
3834,69.0,39,20,7.0,0.0
3835,81.0,0,20,6.0,0.0
3836,60.0,16,60,10.0,0.0
3837,42.0,40,60,11.0,0.0
3838,54.0,0,60,10.0,0.0
3839,71.0,0,15,7.0,0.0
3840,83.0,30,15,6.0,0.0
3841,69.0,0,30,7.0,0.0
3842,81.0,15,30,6.0,0.0
3843,79.0,20,30,6.0,0.0
3844,67.0,0,30,7.0,0.0
3845,60.0,40,60,10.0,0.0
3846,69.0,20,30,7.0,0.0
3847,81.0,0,30,6.0,0.0
3848,62.0,40,60,10.0,0.0
3849,60.0,61,60,10.0,0.0
3850,83.0,19,30,6.0,0.0
3851,71.0,0,30,7.0,0.0
3852,55.0,40,60,10.0,0.0
3853,67.0,0,120,7.0,0.0
3854,67.0,20,90,8.0,0.0
3855,79.0,0,120,6.0,0.0
3856,59.0,59,60,10.0,0.0
3857,62.0,20,60,10.0,0.0
3858,74.0,0,60,7.0,0.0
3859,86.0,1,60,6.0,0.0
3860,59.0,61,60,10.0,0.0
3861,50.0,39,20,2.0,0.0
3862,74.0,0,20,6.0,0.0
3863,62.0,0,20,7.0,0.0
3864,62.0,59,60,7.0,0.0
3865,55.0,0,60,10.0,0.0
3866,50.0,0,60,2.0,0.0
3867,74.0,0,60,6.0,0.0
3868,71.0,1,60,7.0,0.0
3869,59.0,20,60,10.0,0.0
3870,83.0,0,60,6.0,0.0
3871,59.0,0,60,2.0,0.0
3872,71.0,0,20,7.0,0.0
3873,59.0,0,20,2.0,0.0
3874,62.0,20,60,10.0,0.0
3875,83.0,40,20,6.0,0.0
3876,83.0,0,20,6.0,0.0
3877,59.0,61,60,10.0,0.0
3878,71.0,39,20,7.0,0.0
3879,59.0,0,20,2.0,0.0
3880,38.0,0,90,11.0,0.0
3881,54.0,40,60,10.0,0.0
3882,71.0,0,60,7.0,0.0
3883,62.0,19,90,8.0,0.0
3884,59.0,0,60,2.0,0.0
3885,83.0,0,60,6.0,0.0
3886,69.0,0,60,7.0,0.0
3887,81.0,0,60,6.0,0.0
3888,57.0,1,60,2.0,0.0
3889,60.0,20,60,10.0,0.0
3890,57.0,40,20,2.0,0.0
3891,69.0,0,20,7.0,0.0
3892,81.0,0,20,6.0,0.0
3893,62.0,20,60,10.0,0.0
3894,81.0,0,20,6.0,0.0
3895,60.0,16,60,10.0,0.0
3896,57.0,39,20,2.0,0.0
3897,69.0,0,20,7.0,0.0
3898,54.0,0,60,10.0,0.0
3899,71.0,30,15,7.0,0.0
3900,59.0,0,15,2.0,0.0
3901,83.0,0,15,6.0,0.0
3902,42.0,20,60,11.0,0.0
3903,57.0,15,30,2.0,0.0
3904,69.0,0,30,7.0,0.0
3905,81.0,0,30,6.0,0.0
3906,67.0,0,20,7.0,0.0
3907,79.0,0,20,6.0,0.0
3908,55.0,40,20,2.0,0.0
3909,60.0,20,60,10.0,0.0
3910,81.0,0,20,6.0,0.0
3911,69.0,0,20,7.0,0.0
3912,57.0,40,20,2.0,0.0
3913,62.0,20,60,10.0,0.0
3914,83.0,39,20,6.0,0.0
3915,60.0,101,60,10.0,0.0
3916,71.0,0,20,7.0,0.0
3917,59.0,0,20,2.0,0.0
3918,59.0,0,90,10.0,0.0
3919,43.0,0,90,10.0,0.0
3920,79.0,59,180,6.0,0.0
3921,55.0,80,90,8.0,0.0
3922,67.0,0,180,7.0,0.0
3923,55.0,0,180,2.0,0.0
3924,31.0,0,90,11.0,0.0
3925,83.0,0,60,6.0,0.0
3926,59.0,0,60,2.0,0.0
3927,71.0,181,60,7.0,0.0
3928,52.0,0,180,2.0,0.0
3929,76.0,0,180,6.0,0.0
3930,64.0,59,180,7.0,0.0
3931,60.0,61,60,2.0,0.0
3932,84.0,0,60,6.0,0.0
3933,72.0,0,60,7.0,0.0
3934,69.0,0,60,7.0,0.0
3935,81.0,0,60,6.0,0.0
3936,57.0,59,60,2.0,0.0
3937,64.0,0,60,2.0,0.0
3938,88.0,0,60,6.0,0.0
3939,76.0,21,60,7.0,0.0
3940,84.0,0,20,6.0,0.0
3941,60.0,0,20,2.0,0.0
3942,72.0,60,20,7.0,0.0
3943,81.0,0,20,6.0,0.0
3944,57.0,0,20,2.0,0.0
3945,69.0,60,20,7.0,0.0
3946,50.0,21,60,10.0,0.0
3947,60.0,0,60,8.0,0.0
3948,78.0,0,60,1.0,0.0
3949,72.0,0,60,1.0,0.0
3950,62.0,0,60,8.0,0.0
3951,38.0,0,60,11.0,0.0
3952,78.0,0,20,6.0,0.0
3953,54.0,0,20,2.0,0.0
3954,66.0,39,20,7.0,0.0
3955,67.0,0,20,7.0,0.0
3956,55.0,60,20,2.0,0.0
3957,79.0,0,20,6.0,0.0
3958,78.0,0,60,1.0,0.0
3959,72.0,0,60,1.0,0.0
3960,50.0,0,60,10.0,0.0
3961,69.0,39,20,7.0,0.0
3962,57.0,0,20,2.0,0.0
3963,81.0,0,20,6.0,0.0
3964,38.0,21,60,11.0,0.0
3965,62.0,0,60,8.0,0.0
3966,60.0,0,60,8.0,0.0
3967,71.0,0,20,7.0,0.0
3968,83.0,140,20,6.0,0.0
3969,59.0,0,20,2.0,0.0
3970,59.0,0,90,8.0,0.0
3971,79.0,0,180,6.0,0.0
3972,62.0,80,90,8.0,0.0
3973,43.0,0,90,11.0,0.0
3974,55.0,59,180,2.0,0.0
3975,79.0,0,90,1.0,0.0
3976,55.0,0,90,10.0,0.0
3977,67.0,0,180,7.0,0.0
3978,71.0,0,90,1.0,0.0
3979,79.0,0,180,0.0,0.0
3980,83.0,0,60,0.0,0.0
3981,83.0,0,60,6.0,0.0
3982,71.0,0,60,7.0,0.0
3983,59.0,181,60,2.0,0.0
3984,76.0,0,180,0.0,0.0
3985,76.0,0,180,6.0,0.0
3986,52.0,0,180,2.0,0.0
3987,64.0,59,180,7.0,0.0
3988,84.0,61,60,0.0,0.0
3989,72.0,0,60,7.0,0.0
3990,60.0,0,60,2.0,0.0
3991,84.0,0,60,6.0,0.0
3992,81.0,0,60,0.0,0.0
3993,57.0,0,60,2.0,0.0
3994,69.0,0,60,7.0,0.0
3995,81.0,59,60,6.0,0.0
3996,88.0,0,60,0.0,0.0
3997,64.0,21,60,2.0,0.0
3998,88.0,0,60,6.0,0.0
3999,76.0,0,60,7.0,0.0
4000,84.0,0,20,0.0,0.0
4001,72.0,0,20,7.0,0.0
4002,84.0,0,20,6.0,0.0
4003,60.0,60,20,2.0,0.0
4004,81.0,60,20,6.0,0.0
4005,57.0,0,20,2.0,0.0
4006,69.0,0,20,7.0,0.0
4007,81.0,0,20,0.0,0.0
4008,78.0,0,20,6.0,0.0
4009,60.0,0,60,8.0,0.0
4010,38.0,0,60,11.0,0.0
4011,66.0,39,20,7.0,0.0
4012,62.0,0,60,8.0,0.0
4013,78.0,0,60,1.0,0.0
4014,72.0,21,60,1.0,0.0
4015,78.0,0,20,0.0,0.0
4016,54.0,0,20,2.0,0.0
4017,50.0,0,60,10.0,0.0
4018,79.0,0,20,0.0,0.0
4019,67.0,0,20,7.0,0.0
4020,55.0,0,20,2.0,0.0
4021,79.0,60,20,6.0,0.0
4022,69.0,0,20,7.0,0.0
4023,38.0,0,60,11.0,0.0
4024,81.0,0,20,0.0,0.0
4025,81.0,39,20,6.0,0.0
4026,60.0,0,60,8.0,0.0
4027,57.0,0,20,2.0,0.0
4028,50.0,0,60,10.0,0.0
4029,62.0,0,60,8.0,0.0
4030,78.0,0,60,1.0,0.0
4031,72.0,21,60,1.0,0.0
4032,83.0,99,20,6.0,0.0
4033,71.0,0,20,7.0,0.0
4034,59.0,0,20,2.0,0.0
4035,83.0,0,20,0.0,0.0
4036,79.0,0,60,0.0,0.0
4037,67.0,0,60,7.0,0.0
4038,55.0,0,60,10.0,0.0
4039,79.0,0,60,1.0,0.0
4040,43.0,90,60,11.0,0.0
4041,55.0,0,60,2.0,0.0
4042,71.0,0,60,1.0,0.0
4043,59.0,0,60,8.0,0.0
4044,62.0,0,60,8.0,0.0
4045,79.0,0,60,6.0,0.0
4046,59.0,0,60,10.0,0.0
4047,86.0,30,30,6.0,0.0
4048,62.0,0,60,2.0,0.0
4049,74.0,29,210,3.0,0.0
4050,74.0,0,210,4.0,0.0
4051,86.0,0,210,0.0,0.0
4052,74.0,0,30,7.0,0.0
4053,47.0,0,60,11.0,0.0
4054,71.0,0,60,8.0,0.0
4055,74.0,29,60,1.0,0.0
4056,86.0,1,30,6.0,0.0
4057,74.0,0,30,7.0,0.0
4058,58.0,0,60,10.0,0.0
4059,74.0,30,30,7.0,0.0
4060,70.0,0,60,8.0,0.0
4061,73.0,0,60,1.0,0.0
4062,61.0,0,60,2.0,0.0
4063,85.0,0,30,6.0,0.0
4064,46.0,29,60,11.0,0.0
4065,85.0,0,30,6.0,0.0
4066,74.0,1,30,7.0,0.0
4067,86.0,30,30,6.0,0.0
4068,59.0,0,60,10.0,0.0
4069,74.0,10,210,7.0,0.0
4070,71.0,0,60,8.0,0.0
4071,47.0,0,60,11.0,0.0
4072,62.0,29,60,2.0,0.0
4073,74.0,0,60,1.0,0.0
4074,86.0,1,30,6.0,0.0
4075,73.0,0,60,1.0,0.0
4076,70.0,0,60,8.0,0.0
4077,46.0,0,60,11.0,0.0
4078,85.0,1,30,6.0,0.0
4079,58.0,29,60,10.0,0.0
4080,61.0,0,60,2.0,0.0
4081,85.0,1,30,6.0,0.0
4082,62.0,29,60,2.0,0.0
4083,74.0,0,90,3.0,0.0
4084,74.0,0,60,1.0,0.0
4085,74.0,19,90,4.0,0.0
4086,86.0,0,90,0.0,0.0
4087,47.0,0,60,11.0,0.0
4088,59.0,0,60,10.0,0.0
4089,71.0,0,60,8.0,0.0
4090,86.0,30,30,6.0,0.0
4091,86.0,1,30,6.0,0.0
4092,83.0,1,30,6.0,0.0
4093,71.0,0,60,1.0,0.0
4094,56.0,0,60,10.0,0.0
4095,44.0,0,60,11.0,0.0
4096,68.0,0,60,8.0,0.0
4097,59.0,0,60,2.0,0.0
4098,83.0,60,30,6.0,0.0
4099,84.0,0,60,6.0,0.0
4100,69.0,0,60,8.0,0.0
4101,71.0,0,60,7.0,0.0
4102,72.0,0,60,1.0,0.0
4103,60.0,0,60,2.0,0.0
4104,57.0,0,60,10.0,0.0
4105,45.0,90,60,11.0,0.0
4106,86.0,0,60,0.0,0.0
4107,74.0,0,60,4.0,0.0
4108,74.0,0,60,3.0,0.0
4109,86.0,29,210,0.0,0.0
4110,57.0,0,60,10.0,0.0
4111,71.0,0,30,7.0,0.0
4112,84.0,30,30,6.0,0.0
4113,69.0,29,60,8.0,0.0
4114,74.0,0,210,4.0,0.0
4115,74.0,0,210,3.0,0.0
4116,45.0,0,60,11.0,0.0
4117,72.0,0,60,1.0,0.0
4118,60.0,0,60,2.0,0.0
4119,71.0,1,30,7.0,0.0
4120,84.0,0,30,6.0,0.0
4121,44.0,0,60,11.0,0.0
4122,71.0,29,60,1.0,0.0
4123,56.0,0,60,10.0,0.0
4124,68.0,0,60,8.0,0.0
4125,59.0,0,60,2.0,0.0
4126,83.0,0,30,6.0,0.0
4127,71.0,30,30,7.0,0.0
4128,83.0,1,30,6.0,0.0
4129,71.0,0,30,7.0,0.0
4130,57.0,0,60,10.0,0.0
4131,84.0,30,30,6.0,0.0
4132,45.0,0,60,11.0,0.0
4133,60.0,29,60,2.0,0.0
4134,71.0,10,210,7.0,0.0
4135,69.0,0,60,8.0,0.0
4136,72.0,0,60,1.0,0.0
4137,84.0,1,30,6.0,0.0
4138,68.0,0,60,8.0,0.0
4139,56.0,0,60,10.0,0.0
4140,59.0,0,60,2.0,0.0
4141,83.0,1,30,6.0,0.0
4142,71.0,0,60,1.0,0.0
4143,44.0,29,60,11.0,0.0
4144,83.0,1,30,6.0,0.0
4145,45.0,0,60,11.0,0.0
4146,84.0,30,30,6.0,0.0
4147,74.0,0,90,3.0,0.0
4148,69.0,29,60,8.0,0.0
4149,60.0,0,60,2.0,0.0
4150,57.0,0,60,10.0,0.0
4151,72.0,0,60,1.0,0.0
4152,86.0,19,90,0.0,0.0
4153,74.0,0,90,4.0,0.0
4154,84.0,1,30,6.0,0.0
4155,81.0,1,30,6.0,0.0
4156,42.0,0,60,11.0,0.0
4157,57.0,0,60,2.0,0.0
4158,66.0,0,60,8.0,0.0
4159,69.0,0,60,1.0,0.0
4160,54.0,0,60,10.0,0.0
4161,81.0,21,30,6.0,0.0
4162,74.0,0,60,4.0,0.0
4163,43.0,0,60,11.0,0.0
4164,71.0,0,60,1.0,0.0
4165,83.0,0,60,6.0,0.0
4166,67.0,0,60,4.0,0.0
4167,86.0,0,60,0.0,0.0
4168,74.0,0,60,3.0,0.0
4169,67.0,0,60,3.0,0.0
4170,59.0,39,20,2.0,0.0
4171,55.0,0,60,10.0,0.0
4172,74.0,0,60,7.0,0.0
4173,67.0,76,60,8.0,0.0
4174,40.0,0,60,11.0,0.0
4175,67.0,1,60,3.0,0.0
4176,76.0,0,60,3.0,0.0
4177,67.0,0,60,4.0,0.0
4178,72.0,0,15,1.0,0.0
4179,81.0,0,15,1.0,0.0
4180,76.0,0,60,4.0,0.0
4181,81.0,0,15,6.0,0.0
4182,84.0,15,15,0.0,0.0
4183,52.0,0,60,2.0,0.0
4184,52.0,0,60,10.0,0.0
4185,64.0,0,60,8.0,0.0
4186,72.0,0,15,7.0,0.0
4187,71.0,0,15,1.0,0.0
4188,79.0,0,15,6.0,0.0
4189,83.0,0,15,0.0,0.0
4190,71.0,15,15,7.0,0.0
4191,79.0,0,15,1.0,0.0
4192,72.0,14,15,1.0,0.0
4193,84.0,0,15,0.0,0.0
4194,72.0,0,15,7.0,0.0
4195,81.0,0,15,6.0,0.0
4196,81.0,0,15,1.0,0.0
4197,79.0,30,15,1.0,0.0
4198,71.0,0,15,1.0,0.0
4199,83.0,0,15,0.0,0.0
4200,71.0,0,15,7.0,0.0
4201,79.0,0,15,6.0,0.0
4202,40.0,1,60,11.0,0.0
4203,78.0,29,30,6.0,0.0
4204,81.0,0,30,0.0,0.0
4205,64.0,0,60,8.0,0.0
4206,52.0,0,60,2.0,0.0
4207,78.0,0,30,1.0,0.0
4208,69.0,0,30,1.0,0.0
4209,69.0,0,30,7.0,0.0
4210,52.0,0,60,10.0,0.0
4211,79.0,0,30,1.0,0.0
4212,71.0,59,30,1.0,0.0
4213,83.0,0,30,0.0,0.0
4214,79.0,0,30,6.0,0.0
4215,71.0,0,30,7.0,0.0
4216,81.0,0,60,6.0,0.0
4217,72.0,0,60,7.0,0.0
4218,72.0,0,60,3.0,0.0
4219,84.0,0,60,0.0,0.0
4220,48.0,0,60,2.0,0.0
4221,48.0,0,60,10.0,0.0
4222,36.0,0,60,11.0,0.0
4223,60.0,0,60,8.0,0.0
4224,76.0,0,60,3.0,0.0
4225,81.0,21,60,1.0,0.0
4226,72.0,0,60,1.0,0.0
4227,72.0,0,60,4.0,0.0
4228,76.0,0,60,4.0,0.0
4229,81.0,0,30,6.0,0.0
4230,84.0,0,20,0.0,0.0
4231,36.0,0,60,11.0,0.0
4232,81.0,20,20,1.0,0.0
4233,72.0,0,20,1.0,0.0
4234,48.0,0,60,10.0,0.0
4235,48.0,0,60,2.0,0.0
4236,72.0,19,30,7.0,0.0
4237,60.0,21,60,8.0,0.0
4238,78.0,0,30,6.0,0.0
4239,50.0,0,60,10.0,0.0
4240,81.0,20,20,0.0,0.0
4241,62.0,21,60,8.0,0.0
4242,74.0,0,60,4.0,0.0
4243,78.0,0,20,1.0,0.0
4244,69.0,0,20,1.0,0.0
4245,38.0,0,60,11.0,0.0
4246,74.0,0,60,3.0,0.0
4247,50.0,0,60,2.0,0.0
4248,69.0,19,30,7.0,0.0
4249,38.0,0,60,11.0,0.0
4250,69.0,20,20,1.0,0.0
4251,81.0,0,20,0.0,0.0
4252,78.0,19,30,6.0,0.0
4253,50.0,0,60,2.0,0.0
4254,50.0,0,60,10.0,0.0
4255,78.0,0,20,1.0,0.0
4256,69.0,0,30,7.0,0.0
4257,62.0,60,60,8.0,0.0
4258,67.0,0,60,3.0,0.0
4259,67.0,0,60,4.0,0.0
4260,74.0,0,60,4.0,0.0
4261,83.0,90,60,0.0,0.0
4262,71.0,0,60,7.0,0.0
4263,79.0,0,60,6.0,0.0
4264,43.0,0,60,11.0,0.0
4265,74.0,0,60,3.0,0.0
4266,71.0,0,60,1.0,0.0
4267,55.0,0,60,2.0,0.0
4268,55.0,0,60,10.0,0.0
4269,67.0,0,60,8.0,0.0
4270,79.0,0,60,1.0,0.0
4271,62.0,0,60,2.0,0.0
4272,71.0,0,60,8.0,0.0
4273,74.0,30,30,7.0,0.0
4274,86.0,0,30,6.0,0.0
4275,47.0,0,60,11.0,0.0
4276,86.0,0,210,0.0,0.0
4277,74.0,0,210,3.0,0.0
4278,59.0,29,60,10.0,0.0
4279,74.0,0,60,1.0,0.0
4280,74.0,29,210,4.0,0.0
4281,86.0,0,30,6.0,0.0
4282,74.0,1,30,7.0,0.0
4283,61.0,0,60,2.0,0.0
4284,85.0,30,30,6.0,0.0
4285,70.0,0,60,8.0,0.0
4286,73.0,29,60,1.0,0.0
4287,58.0,0,60,10.0,0.0
4288,46.0,0,60,11.0,0.0
4289,74.0,0,30,7.0,0.0
4290,85.0,1,30,6.0,0.0
4291,74.0,0,30,7.0,0.0
4292,86.0,30,30,6.0,0.0
4293,47.0,0,60,11.0,0.0
4294,74.0,10,210,7.0,0.0
4295,71.0,0,60,8.0,0.0
4296,59.0,29,60,10.0,0.0
4297,62.0,0,60,2.0,0.0
4298,74.0,0,60,1.0,0.0
4299,86.0,1,30,6.0,0.0
4300,61.0,0,60,2.0,0.0
4301,85.0,1,30,6.0,0.0
4302,73.0,0,60,1.0,0.0
4303,58.0,0,60,10.0,0.0
4304,70.0,29,60,8.0,0.0
4305,46.0,0,60,11.0,0.0
4306,85.0,1,30,6.0,0.0
4307,86.0,30,30,6.0,0.0
4308,74.0,0,60,1.0,0.0
4309,47.0,29,60,11.0,0.0
4310,59.0,0,60,10.0,0.0
4311,62.0,0,60,2.0,0.0
4312,74.0,0,90,3.0,0.0
4313,74.0,0,90,4.0,0.0
4314,86.0,19,90,0.0,0.0
4315,71.0,0,60,8.0,0.0
4316,86.0,1,30,6.0,0.0
4317,68.0,0,60,8.0,0.0
4318,59.0,0,60,2.0,0.0
4319,56.0,0,60,10.0,0.0
4320,44.0,0,60,11.0,0.0
4321,71.0,60,60,1.0,0.0
4322,83.0,1,30,6.0,0.0
4323,83.0,0,30,6.0,0.0
4324,69.0,0,60,8.0,0.0
4325,72.0,0,60,1.0,0.0
4326,74.0,0,60,3.0,0.0
4327,86.0,0,60,0.0,0.0
4328,84.0,0,60,6.0,0.0
4329,74.0,0,60,4.0,0.0
4330,45.0,0,60,11.0,0.0
4331,57.0,0,60,10.0,0.0
4332,71.0,0,60,7.0,0.0
4333,60.0,90,60,2.0,0.0
4334,84.0,30,30,6.0,0.0
4335,69.0,0,60,8.0,0.0
4336,74.0,29,210,3.0,0.0
4337,86.0,0,210,0.0,0.0
4338,74.0,0,210,4.0,0.0
4339,45.0,29,60,11.0,0.0
4340,72.0,0,60,1.0,0.0
4341,60.0,0,60,2.0,0.0
4342,74.0,0,30,7.0,0.0
4343,57.0,0,60,10.0,0.0
4344,74.0,0,30,7.0,0.0
4345,84.0,1,30,6.0,0.0
4346,71.0,29,60,1.0,0.0
4347,83.0,0,30,6.0,0.0
4348,68.0,0,60,8.0,0.0
4349,56.0,0,60,10.0,0.0
4350,59.0,0,60,2.0,0.0
4351,74.0,30,30,7.0,0.0
4352,44.0,0,60,11.0,0.0
4353,83.0,1,30,6.0,0.0
4354,74.0,0,30,7.0,0.0
4355,74.0,10,210,7.0,0.0
4356,60.0,0,60,2.0,0.0
4357,72.0,29,60,1.0,0.0
4358,69.0,0,60,8.0,0.0
4359,84.0,30,30,6.0,0.0
4360,45.0,0,60,11.0,0.0
4361,57.0,0,60,10.0,0.0
4362,84.0,1,30,6.0,0.0
4363,59.0,0,60,2.0,0.0
4364,83.0,1,30,6.0,0.0
4365,68.0,29,60,8.0,0.0
4366,71.0,0,60,1.0,0.0
4367,56.0,0,60,10.0,0.0
4368,44.0,0,60,11.0,0.0
4369,83.0,1,30,6.0,0.0
4370,86.0,19,90,0.0,0.0
4371,74.0,0,90,4.0,0.0
4372,74.0,0,90,3.0,0.0
4373,57.0,29,60,10.0,0.0
4374,60.0,0,60,2.0,0.0
4375,45.0,0,60,11.0,0.0
4376,72.0,0,60,1.0,0.0
4377,84.0,30,30,6.0,0.0
4378,69.0,0,60,8.0,0.0
4379,84.0,1,30,6.0,0.0
4380,42.0,0,60,11.0,0.0
4381,57.0,60,60,2.0,0.0
4382,66.0,0,60,8.0,0.0
4383,69.0,0,60,1.0,0.0
4384,81.0,1,30,6.0,0.0
4385,54.0,0,60,10.0,0.0
4386,81.0,0,30,6.0,0.0
4387,59.0,0,60,2.0,0.0
4388,67.0,0,60,8.0,0.0
4389,55.0,0,60,10.0,0.0
4390,83.0,0,60,6.0,0.0
4391,67.0,0,60,3.0,0.0
4392,71.0,0,60,1.0,0.0
4393,74.0,0,60,7.0,0.0
4394,43.0,76,60,11.0,0.0
4395,74.0,0,60,4.0,0.0
4396,67.0,0,60,4.0,0.0
4397,86.0,0,60,0.0,0.0
4398,74.0,0,60,3.0,0.0
4399,72.0,0,15,7.0,0.0
4400,72.0,0,15,1.0,0.0
4401,52.0,0,60,10.0,0.0
4402,81.0,0,15,1.0,0.0
4403,67.0,1,60,4.0,0.0
4404,81.0,15,15,6.0,0.0
4405,40.0,0,60,11.0,0.0
4406,84.0,0,15,0.0,0.0
4407,76.0,0,60,4.0,0.0
4408,64.0,0,60,8.0,0.0
4409,52.0,0,60,2.0,0.0
4410,76.0,0,60,3.0,0.0
4411,67.0,0,60,3.0,0.0
4412,71.0,0,15,1.0,0.0
4413,79.0,15,15,1.0,0.0
4414,83.0,0,15,0.0,0.0
4415,71.0,0,15,7.0,0.0
4416,79.0,0,15,6.0,0.0
4417,81.0,14,15,6.0,0.0
4418,72.0,0,15,7.0,0.0
4419,84.0,0,15,0.0,0.0
4420,81.0,0,15,1.0,0.0
4421,72.0,0,15,1.0,0.0
4422,83.0,30,15,0.0,0.0
4423,71.0,0,15,7.0,0.0
4424,71.0,0,15,1.0,0.0
4425,79.0,0,15,1.0,0.0
4426,79.0,0,15,6.0,0.0
4427,52.0,0,60,2.0,0.0
4428,69.0,0,30,1.0,0.0
4429,81.0,0,30,0.0,0.0
4430,64.0,1,60,8.0,0.0
4431,52.0,0,60,10.0,0.0
4432,69.0,29,30,7.0,0.0
4433,78.0,0,30,6.0,0.0
4434,78.0,0,30,1.0,0.0
4435,40.0,0,60,11.0,0.0
4436,79.0,0,30,1.0,0.0
4437,71.0,0,30,1.0,0.0
4438,83.0,59,30,0.0,0.0
4439,71.0,0,30,7.0,0.0
4440,79.0,0,30,6.0,0.0
4441,36.0,0,60,11.0,0.0
4442,48.0,0,60,10.0,0.0
4443,72.0,20,60,1.0,0.0
4444,76.0,1,60,3.0,0.0
4445,72.0,0,60,3.0,0.0
4446,72.0,0,60,4.0,0.0
4447,48.0,0,60,2.0,0.0
4448,76.0,0,60,4.0,0.0
4449,72.0,0,60,7.0,0.0
4450,81.0,0,60,6.0,0.0
4451,81.0,0,60,1.0,0.0
4452,60.0,0,60,8.0,0.0
4453,84.0,0,60,0.0,0.0
4454,48.0,0,60,10.0,0.0
4455,72.0,0,30,7.0,0.0
4456,36.0,0,60,11.0,0.0
4457,60.0,0,60,8.0,0.0
4458,48.0,21,60,2.0,0.0
4459,81.0,19,30,6.0,0.0
4460,84.0,20,20,0.0,0.0
4461,72.0,0,20,1.0,0.0
4462,81.0,0,20,1.0,0.0
4463,74.0,0,60,3.0,0.0
4464,50.0,0,60,10.0,0.0
4465,81.0,0,20,0.0,0.0
4466,78.0,0,30,6.0,0.0
4467,50.0,21,60,2.0,0.0
4468,62.0,0,60,8.0,0.0
4469,78.0,20,20,1.0,0.0
4470,74.0,0,60,4.0,0.0
4471,69.0,19,30,7.0,0.0
4472,69.0,0,20,1.0,0.0
4473,38.0,0,60,11.0,0.0
4474,81.0,20,20,0.0,0.0
4475,69.0,19,30,7.0,0.0
4476,50.0,0,60,10.0,0.0
4477,50.0,0,60,2.0,0.0
4478,78.0,0,30,6.0,0.0
4479,38.0,101,60,11.0,0.0
4480,62.0,0,60,8.0,0.0
4481,69.0,0,20,1.0,0.0
4482,78.0,0,20,1.0,0.0
4483,43.0,0,90,5.0,0.0
4484,74.0,0,90,3.0,0.0
4485,55.0,0,90,10.0,0.0
4486,71.0,0,90,7.0,0.0
4487,79.0,0,90,0.0,0.0
4488,67.0,0,90,4.0,0.0
4489,55.0,0,90,2.0,0.0
4490,74.0,0,90,4.0,0.0
4491,79.0,95,90,6.0,0.0
4492,79.0,0,90,1.0,0.0
4493,67.0,0,90,8.0,0.0
4494,71.0,0,90,1.0,0.0
4495,43.0,0,90,11.0,0.0
4496,67.0,0,90,3.0,0.0
4497,55.0,5,90,2.0,0.0
4498,79.0,0,90,7.0,0.0
4499,67.0,0,90,8.0,0.0
4500,55.0,0,90,10.0,0.0
4501,43.0,0,90,11.0,0.0
4502,71.0,0,90,7.0,0.0
4503,62.0,0,90,7.0,0.0
4504,84.0,15,15,6.0,0.0
4505,83.0,10,15,6.0,0.0
4506,81.0,15,15,6.0,0.0
4507,79.0,100,15,6.0,0.0
4508,74.0,0,90,3.0,0.0
4509,74.0,95,90,4.0,0.0
4510,78.0,0,90,6.0,0.0
4511,86.0,0,90,0.0,0.0
4512,81.0,0,90,1.0,0.0
4513,78.0,0,90,1.0,0.0
4514,69.0,0,90,7.0,0.0
4515,50.0,5,90,2.0,0.0
4516,78.0,0,90,7.0,0.0
4517,62.0,0,90,7.0,0.0
4518,38.0,0,90,11.0,0.0
4519,50.0,0,90,10.0,0.0
4520,62.0,0,90,8.0,0.0
4521,86.0,15,15,6.0,0.0
4522,84.0,10,15,6.0,0.0
4523,83.0,15,15,6.0,0.0
4524,81.0,100,15,6.0,0.0
4525,43.0,0,90,5.0,0.0
4526,67.0,0,90,3.0,0.0
4527,67.0,0,90,4.0,0.0
4528,83.0,0,90,1.0,0.0
4529,83.0,0,90,6.0,0.0
4530,74.0,0,90,4.0,0.0
4531,79.0,0,90,1.0,0.0
4532,86.0,0,90,0.0,0.0
4533,74.0,95,90,3.0,0.0
4534,55.0,0,90,2.0,0.0
4535,55.0,0,90,10.0,0.0
4536,67.0,0,90,8.0,0.0
4537,43.0,0,90,11.0,0.0
4538,62.0,0,90,7.0,0.0
4539,71.0,5,90,7.0,0.0
4540,79.0,0,90,7.0,0.0
4541,84.0,15,15,6.0,0.0
4542,83.0,10,15,6.0,0.0
4543,81.0,15,15,6.0,0.0
4544,79.0,100,15,6.0,0.0
4545,86.0,0,90,0.0,0.0
4546,78.0,0,90,1.0,0.0
4547,74.0,0,90,3.0,0.0
4548,78.0,95,90,6.0,0.0
4549,74.0,0,90,4.0,0.0
4550,81.0,0,90,1.0,0.0
4551,50.0,0,90,10.0,0.0
4552,78.0,0,90,7.0,0.0
4553,69.0,0,90,7.0,0.0
4554,62.0,0,90,8.0,0.0
4555,50.0,0,90,2.0,0.0
4556,62.0,0,90,7.0,0.0
4557,38.0,5,90,11.0,0.0
4558,86.0,15,15,6.0,0.0
4559,84.0,10,15,6.0,0.0
4560,83.0,15,15,6.0,0.0
4561,81.0,100,15,6.0,0.0
4562,43.0,0,90,5.0,0.0
4563,67.0,0,90,3.0,0.0
4564,74.0,0,90,3.0,0.0
4565,83.0,0,90,6.0,0.0
4566,86.0,0,90,0.0,0.0
4567,74.0,0,90,4.0,0.0
4568,67.0,0,90,4.0,0.0
4569,83.0,95,90,1.0,0.0
4570,79.0,0,90,1.0,0.0
4571,79.0,0,90,7.0,0.0
4572,43.0,0,90,11.0,0.0
4573,71.0,0,90,7.0,0.0
4574,55.0,0,90,10.0,0.0
4575,55.0,0,90,2.0,0.0
4576,67.0,5,90,8.0,0.0
4577,62.0,0,90,7.0,0.0
4578,84.0,15,15,6.0,0.0
4579,83.0,10,15,6.0,0.0
4580,81.0,15,15,6.0,0.0
4581,79.0,100,15,6.0,0.0
4582,81.0,0,90,1.0,0.0
4583,78.0,95,90,6.0,0.0
4584,78.0,0,90,1.0,0.0
4585,74.0,0,90,4.0,0.0
4586,74.0,0,90,3.0,0.0
4587,86.0,0,90,0.0,0.0
4588,50.0,0,90,2.0,0.0
4589,62.0,0,90,8.0,0.0
4590,62.0,0,90,7.0,0.0
4591,78.0,0,90,7.0,0.0
4592,69.0,0,90,7.0,0.0
4593,38.0,0,90,11.0,0.0
4594,50.0,5,90,10.0,0.0
4595,86.0,15,15,6.0,0.0
4596,84.0,10,15,6.0,0.0
4597,83.0,15,15,6.0,0.0
4598,81.0,30,15,6.0,0.0
4599,71.0,0,90,7.0,0.0
4600,79.0,0,90,7.0,0.0
4601,55.0,0,90,2.0,0.0
4602,55.0,0,90,10.0,0.0
4603,79.0,0,30,1.0,0.0
4604,43.0,0,90,11.0,0.0
4605,62.0,0,90,7.0,0.0
4606,74.0,0,90,4.0,0.0
4607,83.0,70,30,0.0,0.0
4608,67.0,50,90,3.0,0.0
4609,74.0,0,90,3.0,0.0
4610,67.0,0,90,8.0,0.0
4611,43.0,0,90,5.0,0.0
4612,67.0,0,90,4.0,0.0
4613,79.0,0,90,6.0,0.0
4614,74.0,0,90,7.0,0.0
4615,62.0,0,90,7.0,0.0
4616,83.0,0,90,7.0,0.0
4617,67.0,0,90,3.0,0.0
4618,62.0,0,90,6.0,0.0
4619,83.0,0,90,6.0,0.0
4620,55.0,50,90,2.0,0.0
4621,74.0,0,90,6.0,0.0
4622,55.0,0,90,3.0,0.0
4623,86.0,70,30,0.0,0.0
4624,83.0,0,30,1.0,0.0
4625,43.0,0,90,5.0,0.0
4626,55.0,0,90,4.0,0.0
4627,55.0,0,90,10.0,0.0
4628,74.0,0,30,1.0,0.0
4629,67.0,0,90,4.0,0.0
4630,67.0,0,90,8.0,0.0
4631,43.0,0,90,11.0,0.0
4632,55.0,0,90,3.0,0.0
4633,79.0,0,90,6.0,0.0
4634,71.0,0,90,6.0,0.0
4635,62.0,0,90,6.0,0.0
4636,71.0,0,30,1.0,0.0
4637,79.0,0,30,1.0,0.0
4638,43.0,0,90,2.0,0.0
4639,62.0,0,90,7.0,0.0
4640,71.0,0,90,7.0,0.0
4641,79.0,0,90,7.0,0.0
4642,67.0,0,90,3.0,0.0
4643,43.0,0,90,10.0,0.0
4644,67.0,0,90,4.0,0.0
4645,55.0,240,90,4.0,0.0
4646,31.0,0,90,11.0,0.0
4647,43.0,0,90,5.0,0.0
4648,83.0,70,30,0.0,0.0
4649,55.0,0,90,8.0,0.0
4650,60.0,100,90,8.0,0.0
4651,60.0,0,90,7.0,0.0
4652,36.0,0,90,11.0,0.0
4653,84.0,0,90,0.0,0.0
4654,72.0,0,90,1.0,0.0
4655,48.0,0,90,2.0,0.0
4656,60.0,0,90,4.0,0.0
4657,48.0,0,90,5.0,0.0
4658,72.0,0,90,4.0,0.0
4659,60.0,0,90,3.0,0.0
4660,72.0,0,90,3.0,0.0
4661,60.0,0,90,6.0,0.0
4662,48.0,0,90,10.0,0.0
4663,55.0,0,20,8.0,0.0
4664,31.0,0,20,11.0,0.0
4665,55.0,0,20,7.0,0.0
4666,79.0,0,20,0.0,0.0
4667,43.0,0,20,2.0,0.0
4668,43.0,20,20,10.0,0.0
4669,67.0,0,20,1.0,0.0
4670,55.0,0,20,6.0,0.0
4671,45.0,0,20,10.0,0.0
4672,57.0,0,20,6.0,0.0
4673,57.0,0,20,8.0,0.0
4674,81.0,0,20,0.0,0.0
4675,33.0,0,20,11.0,0.0
4676,69.0,0,20,1.0,0.0
4677,45.0,0,20,2.0,0.0
4678,57.0,20,20,7.0,0.0
4679,71.0,0,20,1.0,0.0
4680,83.0,0,20,0.0,0.0
4681,59.0,0,20,6.0,0.0
4682,47.0,0,20,2.0,0.0
4683,47.0,0,20,10.0,0.0
4684,59.0,0,20,8.0,0.0
4685,59.0,100,20,7.0,0.0
4686,35.0,0,20,11.0,0.0
4687,84.0,0,90,0.0,0.0
4688,60.0,0,90,6.0,0.0
4689,60.0,0,90,8.0,0.0
4690,48.0,0,90,10.0,0.0
4691,36.0,100,90,11.0,0.0
4692,72.0,0,90,1.0,0.0
4693,72.0,0,90,3.0,0.0
4694,60.0,0,90,3.0,0.0
4695,48.0,0,90,2.0,0.0
4696,48.0,0,90,5.0,0.0
4697,60.0,0,90,7.0,0.0
4698,72.0,0,90,4.0,0.0
4699,60.0,0,90,4.0,0.0
4700,55.0,0,20,6.0,0.0
4701,55.0,0,20,8.0,0.0
4702,43.0,0,20,2.0,0.0
4703,31.0,0,20,11.0,0.0
4704,43.0,0,20,10.0,0.0
4705,67.0,0,20,1.0,0.0
4706,55.0,0,20,7.0,0.0
4707,79.0,20,20,0.0,0.0
4708,57.0,0,20,6.0,0.0
4709,57.0,20,20,8.0,0.0
4710,69.0,0,20,1.0,0.0
4711,81.0,0,20,0.0,0.0
4712,45.0,0,20,2.0,0.0
4713,45.0,0,20,10.0,0.0
4714,57.0,0,20,7.0,0.0
4715,33.0,0,20,11.0,0.0
4716,47.0,0,20,2.0,0.0
4717,71.0,100,20,1.0,0.0
4718,83.0,0,20,0.0,0.0
4719,59.0,0,20,7.0,0.0
4720,47.0,0,20,10.0,0.0
4721,59.0,0,20,6.0,0.0
4722,59.0,0,20,8.0,0.0
4723,35.0,0,20,11.0,0.0
4724,48.0,0,90,10.0,0.0
4725,60.0,0,90,4.0,0.0
4726,72.0,0,90,4.0,0.0
4727,60.0,0,90,3.0,0.0
4728,48.0,0,90,2.0,0.0
4729,72.0,0,90,3.0,0.0
4730,48.0,0,90,5.0,0.0
4731,72.0,379,90,1.0,0.0
4732,36.0,0,90,11.0,0.0
4733,60.0,0,90,7.0,0.0
4734,60.0,0,90,6.0,0.0
4735,84.0,0,90,0.0,0.0
4736,60.0,0,90,8.0,0.0
4737,72.0,181,60,6.0,0.0
4738,50.0,0,240,11.0,0.0
4739,67.0,10,810,8.0,0.0
4740,65.0,0,240,7.0,0.0
4741,62.0,180,240,10.0,0.0
4742,72.0,60,180,6.0,0.0
4743,71.0,0,60,6.0,0.0
4744,64.0,0,210,7.0,0.0
4745,48.0,29,210,11.0,0.0
4746,60.0,0,210,10.0,0.0
4747,74.0,30,180,6.0,0.0
4748,72.0,241,60,6.0,0.0
4749,47.0,0,330,11.0,0.0
4750,62.0,0,330,7.0,0.0
4751,79.0,90,240,6.0,0.0
4752,59.0,0,330,10.0,0.0
4753,77.0,240,90,6.0,0.0
4754,67.0,0,90,3.0,0.0
4755,55.0,0,90,2.0,0.0
4756,43.0,0,90,11.0,0.0
4757,55.0,0,90,10.0,0.0
4758,55.0,100,90,7.0,0.0
4759,67.0,0,90,7.0,0.0
4760,67.0,0,90,8.0,0.0
4761,79.0,0,90,0.0,0.0
4762,43.0,0,90,5.0,0.0
4763,67.0,0,90,6.0,0.0
4764,55.0,0,90,6.0,0.0
4765,79.0,0,90,1.0,0.0
4766,67.0,0,90,4.0,0.0
4767,62.0,0,20,8.0,0.0
4768,62.0,0,20,7.0,0.0
4769,38.0,0,20,11.0,0.0
4770,50.0,0,20,10.0,0.0
4771,62.0,0,20,6.0,0.0
4772,74.0,20,20,1.0,0.0
4773,74.0,0,20,0.0,0.0
4774,50.0,0,20,2.0,0.0
4775,76.0,0,20,0.0,0.0
4776,52.0,0,20,10.0,0.0
4777,64.0,0,20,7.0,0.0
4778,52.0,20,20,2.0,0.0
4779,40.0,0,20,11.0,0.0
4780,76.0,0,20,1.0,0.0
4781,64.0,0,20,6.0,0.0
4782,64.0,0,20,8.0,0.0
4783,78.0,100,20,1.0,0.0
4784,54.0,0,20,10.0,0.0
4785,66.0,0,20,6.0,0.0
4786,42.0,0,20,11.0,0.0
4787,66.0,0,20,7.0,0.0
4788,66.0,0,20,8.0,0.0
4789,78.0,0,20,0.0,0.0
4790,54.0,0,20,2.0,0.0
4791,67.0,0,90,7.0,0.0
4792,43.0,0,90,11.0,0.0
4793,43.0,0,90,5.0,0.0
4794,67.0,0,90,4.0,0.0
4795,67.0,0,90,3.0,0.0
4796,79.0,0,90,0.0,0.0
4797,67.0,0,90,6.0,0.0
4798,55.0,100,90,10.0,0.0
4799,79.0,0,90,1.0,0.0
4800,55.0,0,90,2.0,0.0
4801,67.0,0,90,8.0,0.0
4802,74.0,0,20,0.0,0.0
4803,62.0,0,20,7.0,0.0
4804,62.0,0,20,8.0,0.0
4805,50.0,20,20,10.0,0.0
4806,74.0,0,20,1.0,0.0
4807,38.0,0,20,11.0,0.0
4808,62.0,0,20,6.0,0.0
4809,50.0,0,20,2.0,0.0
4810,40.0,0,20,11.0,0.0
4811,64.0,0,20,7.0,0.0
4812,76.0,0,20,0.0,0.0
4813,64.0,0,20,8.0,0.0
4814,64.0,20,20,6.0,0.0
4815,76.0,0,20,1.0,0.0
4816,52.0,0,20,2.0,0.0
4817,52.0,0,20,10.0,0.0
4818,42.0,0,20,11.0,0.0
4819,66.0,0,20,7.0,0.0
4820,78.0,0,20,0.0,0.0
4821,54.0,0,20,2.0,0.0
4822,78.0,0,20,1.0,0.0
4823,66.0,0,20,8.0,0.0
4824,54.0,100,20,10.0,0.0
4825,66.0,0,20,6.0,0.0
4826,55.0,0,90,2.0,0.0
4827,67.0,0,90,7.0,0.0
4828,67.0,0,90,6.0,0.0
4829,79.0,0,90,0.0,0.0
4830,79.0,379,90,1.0,0.0
4831,67.0,0,90,8.0,0.0
4832,43.0,0,90,11.0,0.0
4833,67.0,0,90,4.0,0.0
4834,55.0,0,90,10.0,0.0
4835,43.0,0,90,5.0,0.0
4836,67.0,0,90,3.0,0.0
4837,74.0,181,60,6.0,0.0
4838,64.0,0,240,10.0,0.0
4839,67.0,0,450,8.0,0.0
4840,74.0,60,180,6.0,0.0
4841,67.0,0,240,7.0,0.0
4842,52.0,0,240,11.0,0.0
4843,72.0,180,60,6.0,0.0
4844,50.0,29,210,11.0,0.0
4845,62.0,0,210,10.0,0.0
4846,79.0,30,180,6.0,0.0
4847,71.0,0,210,7.0,0.0
4848,77.0,241,60,6.0,0.0
4849,72.0,0,330,8.0,0.0
4850,60.0,10,330,10.0,0.0
4851,81.0,0,240,6.0,0.0
4852,48.0,0,330,11.0,0.0
4853,77.0,90,240,7.0,0.0
4854,79.0,0,90,6.0,0.0
4855,76.0,240,90,7.0,0.0
4856,72.0,0,90,3.0,0.0
4857,60.0,95,90,3.0,0.0
4858,84.0,0,90,6.0,0.0
4859,48.0,0,90,10.0,0.0
4860,84.0,0,90,0.0,0.0
4861,76.0,0,90,6.0,0.0
4862,55.0,0,90,2.0,0.0
4863,64.0,0,90,2.0,0.0
4864,67.0,0,90,6.0,0.0
4865,79.0,0,90,1.0,0.0
4866,36.0,0,90,11.0,0.0
4867,76.0,0,90,1.0,0.0
4868,72.0,0,90,4.0,0.0
4869,60.0,0,90,4.0,0.0
4870,64.0,0,90,2.0,0.0
4871,55.0,0,90,2.0,0.0
4872,72.0,0,90,3.0,0.0
4873,79.0,0,90,1.0,0.0
4874,48.0,0,90,5.0,0.0
4875,84.0,0,90,0.0,0.0
4876,60.0,0,90,3.0,0.0
4877,76.0,1,90,1.0,0.0
4878,67.0,0,15,7.0,0.0
4879,55.0,14,15,8.0,0.0
4880,65.0,0,15,7.0,0.0
4881,53.0,15,15,8.0,0.0
4882,76.0,1,30,1.0,0.0
4883,79.0,0,30,1.0,0.0
4884,60.0,0,30,4.0,0.0
4885,64.0,0,15,7.0,0.0
4886,48.0,0,30,5.0,0.0
4887,52.0,14,15,8.0,0.0
4888,72.0,0,30,4.0,0.0
4889,72.0,0,30,3.0,0.0
4890,60.0,0,30,3.0,0.0
4891,55.0,0,30,2.0,0.0
4892,84.0,0,30,0.0,0.0
4893,64.0,0,30,2.0,0.0
4894,50.0,0,15,8.0,0.0
4895,62.0,100,15,7.0,0.0
4896,48.0,0,90,8.0,0.0
4897,72.0,0,90,3.0,0.0
4898,84.0,0,90,0.0,0.0
4899,60.0,0,90,4.0,0.0
4900,60.0,0,90,3.0,0.0
4901,72.0,0,90,4.0,0.0
4902,60.0,0,90,7.0,0.0
4903,55.0,0,90,2.0,0.0
4904,64.0,0,90,2.0,0.0
4905,76.0,0,90,1.0,0.0
4906,48.0,120,90,5.0,0.0
4907,79.0,0,90,1.0,0.0
4908,48.0,0,90,11.0,0.0
4909,55.0,0,90,2.0,0.0
4910,79.0,0,90,1.0,0.0
4911,84.0,0,90,6.0,0.0
4912,76.0,0,90,6.0,0.0
4913,67.0,0,90,6.0,0.0
4914,64.0,0,90,2.0,0.0
4915,76.0,120,90,1.0,0.0
4916,60.0,0,90,10.0,0.0
4917,60.0,0,90,3.0,0.0
4918,72.0,0,90,3.0,0.0
4919,84.0,0,90,0.0,0.0
4920,60.0,95,90,3.0,0.0
4921,72.0,0,90,3.0,0.0
4922,77.0,0,90,1.0,0.0
4923,69.0,0,90,1.0,0.0
4924,65.0,0,90,6.0,0.0
4925,81.0,0,90,6.0,0.0
4926,72.0,0,90,6.0,0.0
4927,48.0,0,90,10.0,0.0
4928,65.0,0,90,2.0,0.0
4929,57.0,0,90,2.0,0.0
4930,81.0,0,90,0.0,0.0
4931,36.0,0,90,11.0,0.0
4932,60.0,0,90,4.0,0.0
4933,81.0,1,90,0.0,0.0
4934,72.0,0,90,3.0,0.0
4935,60.0,0,90,3.0,0.0
4936,57.0,0,90,2.0,0.0
4937,65.0,0,90,2.0,0.0
4938,48.0,0,90,5.0,0.0
4939,72.0,0,90,4.0,0.0
4940,69.0,0,90,1.0,0.0
4941,77.0,0,90,1.0,0.0
4942,60.0,0,15,8.0,0.0
4943,72.0,14,15,7.0,0.0
4944,58.0,0,15,8.0,0.0
4945,70.0,15,15,7.0,0.0
4946,72.0,0,30,4.0,0.0
4947,60.0,0,30,4.0,0.0
4948,57.0,0,30,2.0,0.0
4949,57.0,14,15,8.0,0.0
4950,81.0,1,30,0.0,0.0
4951,65.0,0,30,2.0,0.0
4952,77.0,0,30,1.0,0.0
4953,48.0,0,30,5.0,0.0
4954,72.0,0,30,3.0,0.0
4955,69.0,0,15,7.0,0.0
4956,69.0,0,30,1.0,0.0
4957,60.0,0,30,3.0,0.0
4958,67.0,100,15,7.0,0.0
4959,55.0,0,15,8.0,0.0
4960,81.0,120,90,0.0,0.0
4961,60.0,0,90,3.0,0.0
4962,72.0,0,90,3.0,0.0
4963,65.0,0,90,7.0,0.0
4964,69.0,0,90,1.0,0.0
4965,77.0,0,90,1.0,0.0
4966,57.0,0,90,2.0,0.0
4967,48.0,0,90,5.0,0.0
4968,53.0,0,90,8.0,0.0
4969,72.0,0,90,4.0,0.0
4970,60.0,0,90,4.0,0.0
4971,65.0,0,90,2.0,0.0
4972,81.0,0,90,0.0,0.0
4973,60.0,0,90,10.0,0.0
4974,77.0,0,90,6.0,0.0
4975,48.0,0,90,11.0,0.0
4976,77.0,0,90,1.0,0.0
4977,60.0,0,90,3.0,0.0
4978,72.0,0,90,3.0,0.0
4979,69.0,0,90,6.0,0.0
4980,72.0,0,90,1.0,0.0
4981,65.0,0,90,2.0,0.0
4982,57.0,120,90,2.0,0.0
4983,74.0,0,90,6.0,0.0
4984,83.0,95,90,0.0,0.0
4985,67.0,0,90,6.0,0.0
4986,67.0,0,90,3.0,0.0
4987,77.0,0,90,1.0,0.0
4988,74.0,0,90,1.0,0.0
4989,59.0,0,90,6.0,0.0
4990,59.0,0,90,2.0,0.0
4991,65.0,0,90,2.0,0.0
4992,48.0,0,90,10.0,0.0
4993,74.0,0,90,3.0,0.0
4994,36.0,0,90,11.0,0.0
4995,83.0,1,90,0.0,0.0
4996,59.0,0,90,2.0,0.0
4997,65.0,0,90,2.0,0.0
4998,77.0,0,90,1.0,0.0
4999,48.0,0,90,5.0,0.0
5000,74.0,0,90,3.0,0.0
5001,74.0,0,90,1.0,0.0
5002,67.0,0,90,4.0,0.0
5003,67.0,0,90,3.0,0.0
5004,62.0,0,15,8.0,0.0
5005,74.0,14,15,7.0,0.0
5006,60.0,0,15,8.0,0.0
5007,72.0,15,15,7.0,0.0
5008,59.0,14,15,8.0,0.0
5009,67.0,0,30,4.0,0.0
5010,74.0,0,30,1.0,0.0
5011,77.0,0,30,1.0,0.0
5012,48.0,0,30,5.0,0.0
5013,83.0,0,30,0.0,0.0
5014,74.0,0,30,3.0,0.0
5015,71.0,0,15,7.0,0.0
5016,67.0,0,30,3.0,0.0
5017,59.0,0,30,2.0,0.0
5018,65.0,1,30,2.0,0.0
5019,57.0,100,15,8.0,0.0
5020,69.0,0,15,7.0,0.0
5021,67.0,0,90,4.0,0.0
5022,74.0,0,90,1.0,0.0
5023,67.0,0,90,7.0,0.0
5024,74.0,0,90,3.0,0.0
5025,67.0,0,90,3.0,0.0
5026,65.0,0,90,2.0,0.0
5027,59.0,0,90,2.0,0.0
5028,48.0,0,90,5.0,0.0
5029,77.0,120,90,1.0,0.0
5030,83.0,0,90,0.0,0.0
5031,55.0,0,90,8.0,0.0
5032,48.0,0,90,11.0,0.0
5033,65.0,0,90,2.0,0.0
5034,74.0,0,90,1.0,0.0
5035,77.0,0,90,1.0,0.0
5036,74.0,0,90,3.0,0.0
5037,62.0,0,90,6.0,0.0
5038,71.0,0,90,6.0,0.0
5039,79.0,120,90,6.0,0.0
5040,59.0,0,90,2.0,0.0
5041,83.0,0,90,0.0,0.0
5042,60.0,0,90,10.0,0.0
5043,67.0,0,90,3.0,0.0
5044,60.0,95,90,2.0,0.0
5045,36.0,0,90,11.0,0.0
5046,64.0,0,90,2.0,0.0
5047,76.0,0,90,6.0,0.0
5048,72.0,0,90,6.0,0.0
5049,64.0,0,90,6.0,0.0
5050,84.0,0,90,0.0,0.0
5051,64.0,0,90,3.0,0.0
5052,76.0,0,90,1.0,0.0
5053,67.0,0,90,1.0,0.0
5054,48.0,0,90,10.0,0.0
5055,67.0,0,90,3.0,0.0
5056,79.0,0,90,1.0,0.0
5057,48.0,0,90,5.0,0.0
5058,60.0,0,90,3.0,0.0
5059,55.0,1,90,2.0,0.0
5060,76.0,0,90,1.0,0.0
5061,64.0,0,90,2.0,0.0
5062,72.0,0,90,3.0,0.0
5063,84.0,0,90,0.0,0.0
5064,60.0,0,90,4.0,0.0
5065,72.0,0,90,4.0,0.0
5066,79.0,14,15,7.0,0.0
5067,67.0,0,15,8.0,0.0
5068,65.0,0,15,8.0,0.0
5069,77.0,15,15,7.0,0.0
5070,72.0,0,30,4.0,0.0
5071,64.0,0,30,2.0,0.0
5072,60.0,1,30,3.0,0.0
5073,72.0,0,30,3.0,0.0
5074,84.0,0,30,0.0,0.0
5075,79.0,0,30,1.0,0.0
5076,55.0,0,30,2.0,0.0
5077,60.0,0,30,4.0,0.0
5078,76.0,0,30,1.0,0.0
5079,76.0,14,15,7.0,0.0
5080,48.0,0,30,5.0,0.0
5081,64.0,0,15,8.0,0.0
5082,62.0,100,15,8.0,0.0
5083,74.0,0,15,7.0,0.0
5084,79.0,0,90,1.0,0.0
5085,76.0,0,90,1.0,0.0
5086,72.0,0,90,7.0,0.0
5087,60.0,0,90,8.0,0.0
5088,72.0,0,90,3.0,0.0
5089,60.0,0,90,4.0,0.0
5090,84.0,0,90,0.0,0.0
5091,48.0,0,90,5.0,0.0
5092,72.0,120,90,4.0,0.0
5093,60.0,0,90,3.0,0.0
5094,55.0,0,90,2.0,0.0
5095,64.0,0,90,2.0,0.0
5096,84.0,0,90,6.0,0.0
5097,64.0,120,90,2.0,0.0
5098,72.0,0,90,3.0,0.0
5099,55.0,0,90,2.0,0.0
5100,60.0,0,90,3.0,0.0
5101,48.0,0,90,11.0,0.0
5102,76.0,0,90,6.0,0.0
5103,67.0,0,90,6.0,0.0
5104,79.0,0,90,1.0,0.0
5105,76.0,0,90,1.0,0.0
5106,60.0,0,90,10.0,0.0
5107,84.0,0,90,0.0,0.0
5108,72.0,0,90,3.0,0.0
5109,48.0,0,90,10.0,0.0
5110,77.0,0,90,1.0,0.0
5111,60.0,0,90,3.0,0.0
5112,81.0,0,90,0.0,0.0
5113,81.0,0,90,6.0,0.0
5114,65.0,0,90,6.0,0.0
5115,69.0,0,90,1.0,0.0
5116,57.0,95,90,2.0,0.0
5117,72.0,0,90,6.0,0.0
5118,36.0,0,90,11.0,0.0
5119,65.0,0,90,2.0,0.0
5120,69.0,0,90,1.0,0.0
5121,77.0,0,90,1.0,0.0
5122,72.0,0,90,3.0,0.0
5123,60.0,0,90,3.0,0.0
5124,65.0,0,90,2.0,0.0
5125,48.0,1,90,5.0,0.0
5126,60.0,0,90,4.0,0.0
5127,57.0,0,90,2.0,0.0
5128,72.0,0,90,4.0,0.0
5129,81.0,0,90,0.0,0.0
5130,72.0,0,15,7.0,0.0
5131,60.0,14,15,8.0,0.0
5132,70.0,0,15,7.0,0.0
5133,58.0,15,15,8.0,0.0
5134,60.0,1,30,3.0,0.0
5135,72.0,0,30,3.0,0.0
5136,69.0,14,15,7.0,0.0
5137,65.0,0,30,2.0,0.0
5138,60.0,0,30,4.0,0.0
5139,72.0,0,30,4.0,0.0
5140,77.0,0,30,1.0,0.0
5141,57.0,0,15,8.0,0.0
5142,57.0,0,30,2.0,0.0
5143,81.0,0,30,0.0,0.0
5144,48.0,0,30,5.0,0.0
5145,69.0,0,30,1.0,0.0
5146,55.0,100,15,8.0,0.0
5147,67.0,0,15,7.0,0.0
5148,60.0,0,90,4.0,0.0
5149,72.0,0,90,4.0,0.0
5150,60.0,0,90,3.0,0.0
5151,72.0,0,90,3.0,0.0
5152,53.0,0,90,8.0,0.0
5153,81.0,0,90,0.0,0.0
5154,65.0,0,90,7.0,0.0
5155,65.0,120,90,2.0,0.0
5156,57.0,0,90,2.0,0.0
5157,69.0,0,90,1.0,0.0
5158,77.0,0,90,1.0,0.0
5159,48.0,0,90,5.0,0.0
5160,65.0,0,90,2.0,0.0
5161,57.0,0,90,2.0,0.0
5162,48.0,0,90,11.0,0.0
5163,77.0,0,90,6.0,0.0
5164,60.0,0,90,3.0,0.0
5165,81.0,0,90,0.0,0.0
5166,72.0,0,90,1.0,0.0
5167,60.0,0,90,10.0,0.0
5168,69.0,0,90,6.0,0.0
5169,72.0,120,90,3.0,0.0
5170,77.0,0,90,1.0,0.0
5171,48.0,95,90,10.0,0.0
5172,83.0,0,90,0.0,0.0
5173,67.0,0,90,6.0,0.0
5174,59.0,0,90,6.0,0.0
5175,74.0,0,90,6.0,0.0
5176,67.0,0,90,3.0,0.0
5177,74.0,0,90,1.0,0.0
5178,77.0,0,90,1.0,0.0
5179,59.0,0,90,2.0,0.0
5180,65.0,0,90,2.0,0.0
5181,74.0,0,90,3.0,0.0
5182,36.0,0,90,11.0,0.0
5183,74.0,0,90,1.0,0.0
5184,77.0,0,90,1.0,0.0
5185,65.0,0,90,2.0,0.0
5186,59.0,0,90,2.0,0.0
5187,48.0,1,90,5.0,0.0
5188,83.0,0,90,0.0,0.0
5189,74.0,0,90,3.0,0.0
5190,67.0,0,90,3.0,0.0
5191,67.0,0,90,4.0,0.0
5192,62.0,14,15,8.0,0.0
5193,74.0,0,15,7.0,0.0
5194,60.0,0,15,8.0,0.0
5195,72.0,15,15,7.0,0.0
5196,74.0,0,30,3.0,0.0
5197,67.0,1,30,3.0,0.0
5198,59.0,0,15,8.0,0.0
5199,74.0,0,30,1.0,0.0
5200,67.0,0,30,4.0,0.0
5201,48.0,0,30,5.0,0.0
5202,59.0,0,30,2.0,0.0
5203,83.0,0,30,0.0,0.0
5204,71.0,14,15,7.0,0.0
5205,77.0,0,30,1.0,0.0
5206,65.0,0,30,2.0,0.0
5207,69.0,100,15,7.0,0.0
5208,57.0,0,15,8.0,0.0
5209,48.0,0,90,5.0,0.0
5210,74.0,0,90,1.0,0.0
5211,55.0,0,90,8.0,0.0
5212,67.0,0,90,7.0,0.0
5213,77.0,0,90,1.0,0.0
5214,83.0,0,90,0.0,0.0
5215,74.0,0,90,3.0,0.0
5216,67.0,120,90,3.0,0.0
5217,65.0,0,90,2.0,0.0
5218,59.0,0,90,2.0,0.0
5219,67.0,0,90,4.0,0.0
5220,67.0,0,90,3.0,0.0
5221,65.0,0,90,2.0,0.0
5222,59.0,120,90,2.0,0.0
5223,77.0,0,90,1.0,0.0
5224,74.0,0,90,1.0,0.0
5225,83.0,0,90,0.0,0.0
5226,62.0,0,90,6.0,0.0
5227,48.0,0,90,11.0,0.0
5228,79.0,0,90,6.0,0.0
5229,71.0,0,90,6.0,0.0
5230,74.0,0,90,3.0,0.0
5231,60.0,0,90,10.0,0.0
5232,76.0,0,90,1.0,0.0
5233,72.0,0,90,1.0,0.0
5234,84.0,0,90,0.0,0.0
5235,72.0,95,90,7.0,0.0
5236,64.0,0,90,2.0,0.0
5237,60.0,0,90,2.0,0.0
5238,48.0,0,90,5.0,0.0
5239,60.0,0,90,8.0,0.0
5240,48.0,0,90,10.0,0.0
5241,67.0,0,90,3.0,0.0
5242,64.0,0,90,3.0,0.0
5243,36.0,0,90,11.0,0.0
5244,55.0,0,90,4.0,0.0
5245,67.0,0,90,4.0,0.0
5246,72.0,0,90,6.0,0.0
5247,76.0,0,90,6.0,0.0
5248,72.0,0,90,1.0,0.0
5249,76.0,0,90,1.0,0.0
5250,67.0,0,90,6.0,0.0
5251,76.0,0,90,6.0,0.0
5252,84.0,5,90,6.0,0.0
5253,84.0,0,90,0.0,0.0
5254,72.0,0,90,3.0,0.0
5255,64.0,0,90,3.0,0.0
5256,77.0,0,15,7.0,0.0
5257,65.0,15,15,8.0,0.0
5258,64.0,0,15,8.0,0.0
5259,76.0,10,15,7.0,0.0
5260,62.0,15,15,8.0,0.0
5261,74.0,0,15,7.0,0.0
5262,60.0,100,15,8.0,0.0
5263,72.0,0,15,7.0,0.0
5264,62.0,0,90,2.0,0.0
5265,43.0,0,90,11.0,0.0
5266,55.0,0,90,10.0,0.0
5267,67.0,0,90,4.0,0.0
5268,59.0,0,90,8.0,0.0
5269,43.0,0,90,5.0,0.0
5270,71.0,95,90,7.0,0.0
5271,55.0,0,90,4.0,0.0
5272,59.0,0,90,2.0,0.0
5273,74.0,0,90,3.0,0.0
5274,67.0,0,90,3.0,0.0
5275,67.0,0,90,6.0,0.0
5276,74.0,0,90,6.0,0.0
5277,83.0,0,90,6.0,0.0
5278,83.0,5,90,0.0,0.0
5279,74.0,0,90,1.0,0.0
5280,71.0,0,90,1.0,0.0
5281,67.0,0,15,8.0,0.0
5282,79.0,15,15,7.0,0.0
5283,77.0,0,15,7.0,0.0
5284,65.0,10,15,8.0,0.0
5285,76.0,0,15,7.0,0.0
5286,64.0,15,15,8.0,0.0
5287,62.0,100,15,8.0,0.0
5288,74.0,0,15,7.0,0.0
5289,60.0,0,90,10.0,0.0
5290,60.0,94,90,2.0,0.0
5291,64.0,0,90,2.0,0.0
5292,67.0,0,90,4.0,0.0
5293,48.0,0,90,5.0,0.0
5294,48.0,0,90,11.0,0.0
5295,55.0,0,90,4.0,0.0
5296,76.0,0,90,7.0,0.0
5297,64.0,0,90,8.0,0.0
5298,84.0,0,90,6.0,0.0
5299,76.0,0,90,6.0,0.0
5300,67.0,0,90,6.0,0.0
5301,76.0,0,90,3.0,0.0
5302,84.0,4,90,0.0,0.0
5303,72.0,0,90,3.0,0.0
5304,76.0,0,90,1.0,0.0
5305,72.0,0,90,1.0,0.0
5306,77.0,14,15,7.0,0.0
5307,65.0,1,15,8.0,0.0
5308,64.0,1,15,8.0,0.0
5309,76.0,10,15,7.0,0.0
5310,74.0,14,15,7.0,0.0
5311,62.0,1,15,8.0,0.0
5312,72.0,100,15,7.0,0.0
5313,60.0,1,15,8.0,0.0
5314,55.0,95,90,10.0,0.0
5315,55.0,0,90,4.0,0.0
5316,43.0,0,90,5.0,0.0
5317,59.0,0,90,8.0,0.0
5318,71.0,0,90,7.0,0.0
5319,62.0,0,90,2.0,0.0
5320,59.0,0,90,2.0,0.0
5321,67.0,0,90,4.0,0.0
5322,43.0,0,90,11.0,0.0
5323,74.0,5,90,6.0,0.0
5324,83.0,0,90,0.0,0.0
5325,67.0,0,90,3.0,0.0
5326,67.0,0,90,6.0,0.0
5327,74.0,0,90,1.0,0.0
5328,71.0,0,90,1.0,0.0
5329,74.0,0,90,3.0,0.0
5330,83.0,0,90,6.0,0.0
5331,79.0,15,15,7.0,0.0
5332,67.0,0,15,8.0,0.0
5333,65.0,10,15,8.0,0.0
5334,77.0,0,15,7.0,0.0
5335,76.0,0,15,7.0,0.0
5336,64.0,15,15,8.0,0.0
5337,62.0,0,15,8.0,0.0
5338,74.0,100,15,7.0,0.0
5339,64.0,79,90,8.0,0.0
5340,36.0,0,90,11.0,0.0
5341,76.0,0,90,3.0,0.0
5342,72.0,0,90,1.0,0.0
5343,48.0,0,90,10.0,0.0
5344,67.0,0,90,6.0,0.0
5345,76.0,0,90,6.0,0.0
5346,84.0,0,90,6.0,0.0
5347,76.0,0,90,1.0,0.0
5348,84.0,0,90,0.0,0.0
5349,60.0,0,90,2.0,0.0
5350,48.0,0,90,5.0,0.0
5351,64.0,0,90,2.0,0.0
5352,72.0,0,90,3.0,0.0
5353,76.0,0,90,7.0,0.0
5354,67.0,0,90,4.0,0.0
5355,55.0,0,90,4.0,0.0
5356,79.0,0,60,0.0,0.0
5357,43.0,19,90,5.0,0.0
5358,67.0,0,60,3.0,0.0
5359,79.0,0,90,6.0,0.0
5360,67.0,0,90,4.0,0.0
5361,79.0,0,90,7.0,0.0
5362,55.0,0,60,2.0,0.0
5363,79.0,41,60,1.0,0.0
5364,67.0,0,60,8.0,0.0
5365,55.0,0,60,10.0,0.0
5366,43.0,0,60,11.0,0.0
5367,67.0,0,60,3.0,0.0
5368,55.0,0,60,10.0,0.0
5369,79.0,0,60,0.0,0.0
5370,67.0,0,60,8.0,0.0
5371,43.0,60,60,11.0,0.0
5372,55.0,0,60,2.0,0.0
5373,79.0,0,60,1.0,0.0
5374,72.0,0,60,3.0,0.0
5375,60.0,0,60,10.0,0.0
5376,72.0,19,90,4.0,0.0
5377,84.0,0,60,0.0,0.0
5378,84.0,0,90,7.0,0.0
5379,48.0,0,60,11.0,0.0
5380,60.0,0,60,2.0,0.0
5381,48.0,0,90,5.0,0.0
5382,84.0,41,60,1.0,0.0
5383,84.0,0,90,6.0,0.0
5384,72.0,0,60,8.0,0.0
5385,48.0,0,60,11.0,0.0
5386,84.0,0,60,0.0,0.0
5387,60.0,0,60,10.0,0.0
5388,72.0,60,60,3.0,0.0
5389,72.0,0,60,8.0,0.0
5390,84.0,0,60,1.0,0.0
5391,60.0,0,60,2.0,0.0
5392,55.0,0,60,10.0,0.0
5393,79.0,0,60,1.0,0.0
5394,43.0,0,60,11.0,0.0
5395,79.0,0,90,6.0,0.0
5396,43.0,0,90,5.0,0.0
5397,67.0,0,90,4.0,0.0
5398,55.0,41,60,2.0,0.0
5399,79.0,0,60,0.0,0.0
5400,79.0,19,90,7.0,0.0
5401,67.0,0,60,8.0,0.0
5402,67.0,0,60,3.0,0.0
5403,55.0,0,60,2.0,0.0
5404,43.0,0,60,11.0,0.0
5405,67.0,60,60,8.0,0.0
5406,67.0,0,60,3.0,0.0
5407,79.0,0,60,0.0,0.0
5408,79.0,0,60,1.0,0.0
5409,55.0,0,60,10.0,0.0
5410,72.0,0,60,8.0,0.0
5411,72.0,0,90,4.0,0.0
5412,84.0,19,90,6.0,0.0
5413,60.0,0,60,2.0,0.0
5414,60.0,41,60,10.0,0.0
5415,48.0,0,60,11.0,0.0
5416,84.0,0,60,1.0,0.0
5417,48.0,0,90,5.0,0.0
5418,72.0,0,60,3.0,0.0
5419,84.0,0,90,7.0,0.0
5420,84.0,0,60,0.0,0.0
5421,84.0,0,60,0.0,0.0
5422,60.0,0,60,10.0,0.0
5423,84.0,0,60,1.0,0.0
5424,60.0,0,60,2.0,0.0
5425,48.0,0,60,11.0,0.0
5426,72.0,0,60,3.0,0.0
5427,72.0,60,60,8.0,0.0
5428,55.0,41,60,2.0,0.0
5429,67.0,0,60,3.0,0.0
5430,79.0,0,60,0.0,0.0
5431,55.0,0,60,10.0,0.0
5432,79.0,0,60,1.0,0.0
5433,79.0,19,90,7.0,0.0
5434,67.0,0,60,8.0,0.0
5435,79.0,0,90,6.0,0.0
5436,43.0,0,60,11.0,0.0
5437,48.0,0,60,5.0,0.0
5438,67.0,0,90,4.0,0.0
5439,55.0,0,60,10.0,0.0
5440,55.0,0,60,2.0,0.0
5441,79.0,60,60,0.0,0.0
5442,67.0,0,60,3.0,0.0
5443,43.0,0,60,11.0,0.0
5444,48.0,0,60,5.0,0.0
5445,79.0,0,60,1.0,0.0
5446,67.0,0,60,8.0,0.0
5447,52.0,0,60,10.0,0.0
5448,40.0,41,60,11.0,0.0
5449,76.0,0,90,7.0,0.0
5450,76.0,0,60,1.0,0.0
5451,76.0,0,90,6.0,0.0
5452,76.0,0,60,0.0,0.0
5453,64.0,0,60,8.0,0.0
5454,52.0,0,60,2.0,0.0
5455,64.0,0,60,3.0,0.0
5456,48.0,0,90,5.0,0.0
5457,64.0,19,90,4.0,0.0
5458,64.0,0,60,8.0,0.0
5459,76.0,0,60,0.0,0.0
5460,40.0,0,60,11.0,0.0
5461,64.0,0,60,3.0,0.0
5462,52.0,0,60,10.0,0.0
5463,52.0,0,60,2.0,0.0
5464,76.0,60,60,1.0,0.0
5465,60.0,0,60,3.0,0.0
5466,72.0,19,90,6.0,0.0
5467,72.0,0,60,1.0,0.0
5468,36.0,0,60,11.0,0.0
5469,72.0,41,60,0.0,0.0
5470,60.0,0,90,4.0,0.0
5471,60.0,0,60,8.0,0.0
5472,48.0,0,60,2.0,0.0
5473,48.0,0,60,10.0,0.0
5474,48.0,0,90,5.0,0.0
5475,72.0,0,90,7.0,0.0
5476,60.0,0,60,3.0,0.0
5477,36.0,0,60,11.0,0.0
5478,72.0,0,60,0.0,0.0
5479,48.0,0,60,10.0,0.0
5480,48.0,101,60,2.0,0.0
5481,72.0,0,60,1.0,0.0
5482,60.0,0,60,8.0,0.0
5483,67.0,0,90,7.0,0.0
5484,67.0,0,90,6.0,0.0
5485,67.0,0,90,1.0,0.0
5486,67.0,0,90,4.0,0.0
5487,55.0,0,90,4.0,0.0
5488,67.0,0,90,3.0,0.0
5489,52.0,0,90,2.0,0.0
5490,43.0,0,90,10.0,0.0
5491,43.0,0,90,5.0,0.0
5492,55.0,120,90,8.0,0.0
5493,31.0,0,90,11.0,0.0
5494,67.0,0,90,0.0,0.0
5495,74.0,0,90,1.0,0.0
5496,79.0,0,90,1.0,0.0
5497,79.0,0,90,3.0,0.0
5498,67.0,0,90,3.0,0.0
5499,62.0,19,90,2.0,0.0
5500,83.0,0,90,0.0,0.0
5501,59.0,0,90,2.0,0.0
5502,74.0,0,60,7.0,0.0
5503,83.0,0,60,6.0,0.0
5504,43.0,0,60,11.0,0.0
5505,67.0,0,60,8.0,0.0
5506,55.0,101,60,10.0,0.0
5507,55.0,0,90,4.0,0.0
5508,84.0,0,90,6.0,0.0
5509,67.0,120,90,4.0,0.0
5510,60.0,0,90,10.0,0.0
5511,48.0,0,90,11.0,0.0
5512,48.0,0,90,5.0,0.0
5513,72.0,0,90,8.0,0.0
5514,76.0,0,90,7.0,0.0
5515,79.0,0,90,1.0,0.0
5516,76.0,0,90,1.0,0.0
5517,84.0,0,90,0.0,0.0
5518,79.0,0,90,3.0,0.0
5519,67.0,19,90,3.0,0.0
5520,60.0,0,90,2.0,0.0
5521,64.0,0,90,2.0,0.0
5522,84.0,0,60,6.0,0.0
5523,76.0,0,60,7.0,0.0
5524,48.0,101,60,11.0,0.0
5525,72.0,0,60,8.0,0.0
5526,60.0,0,60,10.0,0.0
5527,67.0,0,90,8.0,0.0
5528,74.0,0,90,7.0,0.0
5529,83.0,0,90,6.0,0.0
5530,43.0,0,90,11.0,0.0
5531,67.0,0,90,4.0,0.0
5532,43.0,120,90,5.0,0.0
5533,55.0,0,90,10.0,0.0
5534,55.0,0,90,4.0,0.0
5535,83.0,0,90,0.0,0.0
5536,62.0,0,90,2.0,0.0
5537,59.0,0,90,2.0,0.0
5538,74.0,0,90,1.0,0.0
5539,79.0,19,90,1.0,0.0
5540,79.0,0,90,3.0,0.0
5541,67.0,0,90,3.0,0.0
5542,43.0,0,60,11.0,0.0
5543,74.0,101,60,7.0,0.0
5544,55.0,0,60,10.0,0.0
5545,83.0,0,60,6.0,0.0
5546,67.0,0,60,8.0,0.0
5547,55.0,0,90,4.0,0.0
5548,48.0,0,90,11.0,0.0
5549,72.0,0,90,8.0,0.0
5550,76.0,0,90,7.0,0.0
5551,60.0,120,90,10.0,0.0
5552,67.0,0,90,4.0,0.0
5553,84.0,0,90,6.0,0.0
5554,48.0,0,90,5.0,0.0
5555,79.0,19,90,1.0,0.0
5556,67.0,0,90,3.0,0.0
5557,79.0,0,90,3.0,0.0
5558,76.0,0,90,1.0,0.0
5559,64.0,0,90,2.0,0.0
5560,60.0,0,90,2.0,0.0
5561,84.0,0,90,0.0,0.0
5562,72.0,60,60,8.0,0.0
5563,60.0,0,60,10.0,0.0
5564,48.0,0,60,11.0,0.0
5565,84.0,0,60,6.0,0.0
5566,76.0,0,60,7.0,0.0
5567,55.0,41,60,4.0,0.0
5568,67.0,0,60,4.0,0.0
5569,67.0,0,60,8.0,0.0
5570,43.0,0,60,11.0,0.0
5571,79.0,0,60,1.0,0.0
5572,62.0,0,60,2.0,0.0
5573,83.0,0,60,6.0,0.0
5574,83.0,0,60,0.0,0.0
5575,74.0,0,60,1.0,0.0
5576,74.0,0,60,7.0,0.0
5577,59.0,0,60,2.0,0.0
5578,43.0,19,90,5.0,0.0
5579,55.0,0,60,10.0,0.0
5580,67.0,0,60,3.0,0.0
5581,74.0,0,60,3.0,0.0
5582,84.0,0,60,6.0,0.0
5583,67.0,0,60,4.0,0.0
5584,55.0,0,60,4.0,0.0
5585,72.0,0,60,8.0,0.0
5586,72.0,0,60,3.0,0.0
5587,64.0,0,60,2.0,0.0
5588,48.0,0,60,11.0,0.0
5589,76.0,0,60,3.0,0.0
5590,79.0,0,60,1.0,0.0
5591,76.0,0,60,1.0,0.0
5592,76.0,60,60,7.0,0.0
5593,84.0,0,60,0.0,0.0
5594,60.0,0,60,2.0,0.0
5595,60.0,0,60,10.0,0.0
5596,43.0,0,60,11.0,0.0
5597,67.0,0,60,3.0,0.0
5598,74.0,41,60,3.0,0.0
5599,59.0,0,60,2.0,0.0
5600,62.0,0,60,2.0,0.0
5601,79.0,0,60,1.0,0.0
5602,67.0,0,60,4.0,0.0
5603,74.0,0,60,7.0,0.0
5604,83.0,0,60,6.0,0.0
5605,43.0,19,90,5.0,0.0
5606,67.0,0,60,8.0,0.0
5607,55.0,0,60,10.0,0.0
5608,83.0,0,60,0.0,0.0
5609,55.0,0,60,4.0,0.0
5610,74.0,0,60,1.0,0.0
5611,72.0,0,60,3.0,0.0
5612,76.0,0,60,3.0,0.0
5613,67.0,60,60,4.0,0.0
5614,55.0,0,60,4.0,0.0
5615,64.0,0,60,2.0,0.0
5616,72.0,0,60,8.0,0.0
5617,60.0,0,60,2.0,0.0
5618,84.0,0,60,6.0,0.0
5619,48.0,0,60,11.0,0.0
5620,76.0,0,60,7.0,0.0
5621,60.0,0,60,10.0,0.0
5622,84.0,0,60,0.0,0.0
5623,76.0,0,60,1.0,0.0
5624,79.0,0,60,1.0,0.0
5625,67.0,0,60,8.0,0.0
5626,43.0,19,90,5.0,0.0
5627,74.0,0,60,1.0,0.0
5628,79.0,0,60,1.0,0.0
5629,55.0,0,60,10.0,0.0
5630,74.0,0,60,7.0,0.0
5631,74.0,0,60,3.0,0.0
5632,67.0,0,60,3.0,0.0
5633,83.0,0,60,0.0,0.0
5634,59.0,0,60,2.0,0.0
5635,43.0,0,60,11.0,0.0
5636,55.0,0,60,4.0,0.0
5637,83.0,0,60,6.0,0.0
5638,62.0,41,60,2.0,0.0
5639,67.0,0,60,4.0,0.0
5640,84.0,60,60,0.0,0.0
5641,60.0,0,60,2.0,0.0
5642,76.0,0,60,1.0,0.0
5643,72.0,0,60,3.0,0.0
5644,64.0,0,60,2.0,0.0
5645,79.0,0,60,1.0,0.0
5646,76.0,0,60,3.0,0.0
5647,72.0,0,60,8.0,0.0
5648,84.0,0,60,6.0,0.0
5649,76.0,0,60,7.0,0.0
5650,67.0,0,60,4.0,0.0
5651,55.0,0,60,4.0,0.0
5652,60.0,0,60,10.0,0.0
5653,48.0,0,60,11.0,0.0
5654,67.0,0,60,8.0,0.0
5655,74.0,0,60,1.0,0.0
5656,74.0,0,60,7.0,0.0
5657,55.0,0,60,4.0,0.0
5658,67.0,0,60,4.0,0.0
5659,79.0,0,60,1.0,0.0
5660,43.0,19,90,5.0,0.0
5661,74.0,0,60,3.0,0.0
5662,67.0,0,60,3.0,0.0
5663,55.0,0,60,10.0,0.0
5664,83.0,0,60,6.0,0.0
5665,43.0,0,60,11.0,0.0
5666,59.0,0,60,2.0,0.0
5667,62.0,0,60,2.0,0.0
5668,83.0,41,60,0.0,0.0
5669,72.0,0,60,8.0,0.0
5670,76.0,0,60,1.0,0.0
5671,76.0,0,60,3.0,0.0
5672,48.0,0,60,11.0,0.0
5673,55.0,0,60,4.0,0.0
5674,67.0,0,60,4.0,0.0
5675,72.0,101,60,3.0,0.0
5676,79.0,0,60,1.0,0.0
5677,64.0,0,60,2.0,0.0
5678,60.0,0,60,2.0,0.0
5679,84.0,0,60,0.0,0.0
5680,84.0,0,60,6.0,0.0
5681,76.0,0,60,7.0,0.0
5682,60.0,0,60,10.0,0.0
5683,59.0,0,90,2.0,0.0
5684,74.0,0,90,7.0,0.0
5685,83.0,0,90,0.0,0.0
5686,55.0,0,90,4.0,0.0
5687,67.0,0,90,4.0,0.0
5688,79.0,0,90,1.0,0.0
5689,67.0,0,90,8.0,0.0
5690,83.0,0,90,6.0,0.0
5691,74.0,0,90,3.0,0.0
5692,74.0,120,90,1.0,0.0
5693,43.0,0,90,5.0,0.0
5694,62.0,0,90,2.0,0.0
5695,43.0,0,90,11.0,0.0
5696,67.0,0,90,3.0,0.0
5697,55.0,0,90,10.0,0.0
5698,79.0,120,90,7.0,0.0
5699,43.0,0,90,11.0,0.0
5700,79.0,0,90,6.0,0.0
5701,71.0,0,90,6.0,0.0
5702,67.0,0,90,8.0,0.0
5703,62.0,0,90,6.0,0.0
5704,55.0,0,90,10.0,0.0
5705,62.0,0,90,7.0,0.0
5706,71.0,0,90,7.0,0.0
5707,31.0,0,90,11.0,0.0
5708,67.0,0,90,1.0,0.0
5709,79.0,0,90,1.0,0.0
5710,43.0,0,90,5.0,0.0
5711,43.0,0,90,2.0,0.0
5712,55.0,0,90,2.0,0.0
5713,55.0,0,90,8.0,0.0
5714,67.0,0,90,4.0,0.0
5715,79.0,0,90,0.0,0.0
5716,67.0,120,90,7.0,0.0
5717,55.0,0,90,6.0,0.0
5718,67.0,0,90,6.0,0.0
5719,43.0,0,90,10.0,0.0
5720,55.0,0,90,7.0,0.0
5721,55.0,0,90,3.0,0.0
5722,67.0,0,90,3.0,0.0
5723,55.0,0,90,4.0,0.0
5724,55.0,0,90,2.0,0.0
5725,79.0,0,90,0.0,0.0
5726,67.0,0,90,4.0,0.0
5727,67.0,0,90,7.0,0.0
5728,55.0,0,90,7.0,0.0
5729,31.0,0,90,11.0,0.0
5730,67.0,0,90,1.0,0.0
5731,79.0,470,90,1.0,0.0
5732,67.0,0,90,6.0,0.0
5733,55.0,0,90,6.0,0.0
5734,43.0,0,90,10.0,0.0
5735,43.0,0,90,2.0,0.0
5736,55.0,0,90,4.0,0.0
5737,43.0,0,90,5.0,0.0
5738,55.0,0,90,3.0,0.0
5739,67.0,0,90,3.0,0.0
5740,55.0,0,90,8.0,0.0
5741,67.0,0,450,3.0,0.0
5742,43.0,0,450,10.0,0.0
5743,55.0,0,450,6.0,0.0
5744,31.0,0,450,11.0,0.0
5745,55.0,0,450,3.0,0.0
5746,79.0,0,450,1.0,0.0
5747,55.0,0,450,8.0,0.0
5748,43.0,0,450,2.0,0.0
5749,67.0,0,450,1.0,0.0
5750,67.0,0,450,7.0,0.0
5751,67.0,0,450,4.0,0.0
5752,55.0,0,450,4.0,0.0
5753,67.0,0,450,6.0,0.0
5754,55.0,0,450,7.0,0.0
5755,79.0,0,450,0.0,0.0
5756,55.0,0,450,2.0,0.0
5757,43.0,130,450,5.0,0.0
5758,72.0,0,120,3.0,0.0
5759,60.0,80,120,3.0,0.0
5760,60.0,20,90,6.0,0.0
5761,64.0,100,240,1.0,0.0
5762,72.0,0,240,0.0,0.0
5763,60.0,0,90,7.0,0.0
5764,64.0,0,120,3.0,0.0
5765,76.0,0,120,3.0,0.0
5766,55.0,0,20,6.0,0.0
5767,55.0,20,20,7.0,0.0
5768,57.0,0,20,6.0,0.0
5769,57.0,20,20,7.0,0.0
5770,59.0,0,20,7.0,0.0
5771,59.0,0,20,6.0,0.0
5772,76.0,21,300,1.0,0.0
5773,67.0,0,120,3.0,0.0
5774,60.0,0,90,6.0,0.0
5775,84.0,0,300,0.0,0.0
5776,79.0,80,120,3.0,0.0
5777,60.0,20,90,7.0,0.0
5778,76.0,0,90,3.0,0.0
5779,64.0,0,90,3.0,0.0
5780,55.0,0,20,7.0,0.0
5781,55.0,20,20,6.0,0.0
5782,57.0,0,20,7.0,0.0
5783,57.0,20,20,6.0,0.0
5784,59.0,0,20,7.0,0.0
5785,59.0,59,20,6.0,0.0
5786,60.0,40,90,6.0,0.0
5787,60.0,0,90,3.0,0.0
5788,72.0,0,90,3.0,0.0
5789,60.0,0,90,7.0,0.0
5790,79.0,20,20,1.0,0.0
5791,83.0,0,20,0.0,0.0
5792,77.0,60,20,1.0,0.0
5793,81.0,0,20,0.0,0.0
5794,79.0,60,20,0.0,0.0
5795,76.0,0,20,1.0,0.0
5796,77.0,0,20,0.0,0.0
5797,74.0,60,20,1.0,0.0
5798,72.0,60,20,1.0,0.0
5799,76.0,0,20,0.0,0.0
5800,74.0,0,20,0.0,0.0
5801,71.0,60,20,1.0,0.0
5802,72.0,0,60,6.0,0.0
5803,72.0,0,20,0.0,0.0
5804,60.0,181,60,7.0,0.0
5805,72.0,39,20,1.0,0.0
5806,67.0,0,810,2.0,0.0
5807,72.0,60,180,6.0,0.0
5808,60.0,0,180,7.0,0.0
5809,74.0,180,240,1.0,0.0
5810,77.0,0,240,0.0,0.0
5811,71.0,0,60,6.0,0.0
5812,59.0,0,60,7.0,0.0
5813,74.0,0,180,6.0,0.0
5814,72.0,0,210,1.0,0.0
5815,62.0,30,180,7.0,0.0
5816,76.0,29,210,0.0,0.0
5817,72.0,0,60,6.0,0.0
5818,60.0,241,60,7.0,0.0
5819,71.0,10,330,1.0,0.0
5820,79.0,90,240,6.0,0.0
5821,74.0,0,330,0.0,0.0
5822,67.0,0,240,7.0,0.0
5823,65.0,0,90,7.0,0.0
5824,77.0,240,90,6.0,0.0
5825,67.0,0,90,6.0,0.0
5826,67.0,20,90,7.0,0.0
5827,74.0,100,240,0.0,0.0
5828,43.0,0,120,2.0,0.0
5829,55.0,80,120,2.0,0.0
5830,71.0,0,240,1.0,0.0
5831,59.0,0,120,2.0,0.0
5832,47.0,0,120,2.0,0.0
5833,62.0,0,20,6.0,0.0
5834,62.0,20,20,7.0,0.0
5835,64.0,20,20,6.0,0.0
5836,64.0,0,20,7.0,0.0
5837,66.0,0,20,7.0,0.0
5838,66.0,0,20,6.0,0.0
5839,67.0,0,90,7.0,0.0
5840,62.0,80,120,2.0,0.0
5841,83.0,21,300,1.0,0.0
5842,86.0,0,300,0.0,0.0
5843,67.0,20,90,6.0,0.0
5844,50.0,0,120,2.0,0.0
5845,59.0,0,90,2.0,0.0
5846,47.0,0,90,2.0,0.0
5847,62.0,0,20,6.0,0.0
5848,62.0,20,20,7.0,0.0
5849,64.0,20,20,7.0,0.0
5850,64.0,0,20,6.0,0.0
5851,66.0,0,20,6.0,0.0
5852,66.0,59,20,7.0,0.0
5853,55.0,0,90,2.0,0.0
5854,67.0,0,90,7.0,0.0
5855,67.0,0,90,6.0,0.0
5856,43.0,40,90,2.0,0.0
5857,84.0,0,20,0.0,0.0
5858,81.0,20,20,1.0,0.0
5859,83.0,0,20,0.0,0.0
5860,79.0,60,20,1.0,0.0
5861,81.0,0,20,0.0,0.0
5862,77.0,60,20,1.0,0.0
5863,76.0,60,20,1.0,0.0
5864,79.0,0,20,0.0,0.0
5865,77.0,60,20,0.0,0.0
5866,74.0,0,20,1.0,0.0
5867,76.0,60,20,0.0,0.0
5868,72.0,0,20,1.0,0.0
5869,62.0,181,60,7.0,0.0
5870,74.0,39,20,0.0,0.0
5871,74.0,0,60,6.0,0.0
5872,71.0,0,20,1.0,0.0
5873,74.0,0,180,6.0,0.0
5874,79.0,180,240,1.0,0.0
5875,64.0,0,240,2.0,0.0
5876,62.0,60,180,7.0,0.0
5877,82.0,0,240,0.0,0.0
5878,61.0,0,60,7.0,0.0
5879,73.0,0,60,6.0,0.0
5880,81.0,0,210,0.0,0.0
5881,77.0,0,210,1.0,0.0
5882,76.0,30,180,6.0,0.0
5883,64.0,0,180,7.0,0.0
5884,65.0,29,210,2.0,0.0
5885,62.0,0,60,7.0,0.0
5886,74.0,31,60,6.0,0.0
5887,79.0,120,30,0.0,0.0
5888,61.0,0,30,2.0,0.0
5889,82.0,0,240,6.0,0.0
5890,76.0,0,30,1.0,0.0
5891,70.0,30,240,7.0,0.0
5892,76.0,90,30,1.0,0.0
5893,79.0,0,30,0.0,0.0
5894,61.0,0,30,2.0,0.0
5895,69.0,141,60,7.0,0.0
5896,61.0,0,30,2.0,0.0
5897,76.0,29,30,1.0,0.0
5898,79.0,0,30,0.0,0.0
5899,81.0,0,60,6.0,0.0
5900,76.0,0,90,6.0,0.0
5901,64.0,70,90,7.0,0.0
5902,81.0,0,30,0.0,0.0
5903,79.0,30,240,6.0,0.0
5904,75.0,120,30,1.0,0.0
5905,60.0,0,30,2.0,0.0
5906,67.0,0,240,7.0,0.0
5907,75.0,0,30,1.0,0.0
5908,60.0,90,30,2.0,0.0
5909,81.0,0,30,0.0,0.0
5910,78.0,0,60,6.0,0.0
5911,81.0,0,30,0.0,0.0
5912,74.0,0,30,1.0,0.0
5913,66.0,141,60,7.0,0.0
5914,60.0,29,30,2.0,0.0
5915,62.0,70,90,7.0,0.0
5916,74.0,0,90,6.0,0.0
5917,77.0,0,30,0.0,0.0
5918,80.0,0,240,6.0,0.0
5919,59.0,120,30,2.0,0.0
5920,68.0,30,240,7.0,0.0
5921,74.0,0,30,1.0,0.0
5922,77.0,0,30,0.0,0.0
5923,74.0,0,30,1.0,0.0
5924,59.0,90,30,2.0,0.0
5925,79.0,0,60,6.0,0.0
5926,77.0,0,30,0.0,0.0
5927,74.0,29,30,1.0,0.0
5928,67.0,141,60,7.0,0.0
5929,59.0,0,30,2.0,0.0
5930,74.0,70,90,6.0,0.0
5931,62.0,0,90,7.0,0.0
5932,77.0,0,240,6.0,0.0
5933,65.0,30,240,7.0,0.0
5934,58.0,0,30,2.0,0.0
5935,79.0,120,30,0.0,0.0
5936,73.0,0,30,1.0,0.0
5937,73.0,0,30,1.0,0.0
5938,58.0,0,30,2.0,0.0
5939,79.0,90,30,0.0,0.0
5940,79.0,0,30,0.0,0.0
5941,76.0,141,60,6.0,0.0
5942,72.0,29,30,1.0,0.0
5943,58.0,0,30,2.0,0.0
5944,64.0,0,60,7.0,0.0
5945,72.0,160,90,6.0,0.0
5946,60.0,0,90,7.0,0.0
5947,79.0,0,120,6.0,0.0
5948,57.0,120,240,10.0,0.0
5949,45.0,0,240,11.0,0.0
5950,60.0,0,240,8.0,0.0
5951,67.0,120,120,7.0,0.0
5952,65.0,0,240,7.0,0.0
5953,77.0,90,240,6.0,0.0
5954,55.0,30,210,10.0,0.0
5955,59.0,100,240,8.0,0.0
5956,43.0,0,210,11.0,0.0
5957,76.0,0,120,6.0,0.0
5958,64.0,0,15,7.0,0.0
5959,41.0,0,360,11.0,0.0
5960,53.0,90,360,10.0,0.0
5961,76.0,20,90,6.0,0.0
5962,57.0,10,450,8.0,0.0
5963,74.0,20,90,6.0,0.0
5964,62.0,100,120,7.0,0.0
5965,69.0,0,120,7.0,0.0
5966,81.0,20,90,6.0,0.0
5967,54.0,0,90,10.0,0.0
5968,60.0,120,90,7.0,0.0
5969,72.0,0,90,6.0,0.0
5970,42.0,0,90,11.0,0.0
5971,79.0,0,90,6.0,0.0
5972,71.0,0,90,6.0,0.0
5973,62.0,0,90,6.0,0.0
5974,67.0,0,120,1.0,0.0
5975,67.0,0,90,4.0,0.0
5976,55.0,0,90,8.0,0.0
5977,67.0,0,90,8.0,0.0
5978,43.0,20,90,11.0,0.0
5979,79.0,0,210,0.0,0.0
5980,59.0,0,90,7.0,0.0
5981,43.0,0,90,5.0,0.0
5982,43.0,80,120,2.0,0.0
5983,55.0,0,120,2.0,0.0
5984,67.0,0,90,7.0,0.0
5985,67.0,0,90,3.0,0.0
5986,55.0,0,90,10.0,0.0
5987,59.0,100,120,2.0,0.0
5988,47.0,0,120,2.0,0.0
5989,71.0,10,90,1.0,0.0
5990,38.0,0,20,11.0,0.0
5991,50.0,10,20,10.0,0.0
5992,62.0,0,20,8.0,0.0
5993,62.0,0,20,6.0,0.0
5994,62.0,0,20,7.0,0.0
5995,64.0,0,20,6.0,0.0
5996,40.0,0,20,11.0,0.0
5997,64.0,20,20,7.0,0.0
5998,64.0,0,20,8.0,0.0
5999,52.0,0,20,10.0,0.0
6000,42.0,0,20,11.0,0.0
6001,66.0,0,20,6.0,0.0
6002,54.0,0,20,10.0,0.0
6003,66.0,0,20,7.0,0.0
6004,66.0,0,20,8.0,0.0
6005,62.0,0,120,2.0,0.0
6006,67.0,0,90,7.0,0.0
6007,55.0,0,90,10.0,0.0
6008,67.0,0,90,4.0,0.0
6009,67.0,20,90,8.0,0.0
6010,74.0,0,120,1.0,0.0
6011,43.0,0,90,11.0,0.0
6012,67.0,0,90,3.0,0.0
6013,91.0,39,270,0.0,0.0
6014,43.0,0,90,5.0,0.0
6015,83.0,21,300,1.0,0.0
6016,67.0,0,90,6.0,0.0
6017,50.0,80,120,2.0,0.0
6018,71.0,0,90,1.0,0.0
6019,59.0,0,90,2.0,0.0
6020,47.0,0,90,2.0,0.0
6021,62.0,20,20,6.0,0.0
6022,38.0,0,20,11.0,0.0
6023,62.0,0,20,8.0,0.0
6024,50.0,0,20,10.0,0.0
6025,62.0,0,20,7.0,0.0
6026,52.0,0,20,10.0,0.0
6027,64.0,0,20,7.0,0.0
6028,64.0,0,20,8.0,0.0
6029,40.0,0,20,11.0,0.0
6030,64.0,20,20,6.0,0.0
6031,66.0,0,20,6.0,0.0
6032,42.0,20,20,11.0,0.0
6033,54.0,0,20,10.0,0.0
6034,66.0,0,20,8.0,0.0
6035,66.0,0,20,7.0,0.0
6036,67.0,0,90,4.0,0.0
6037,67.0,0,90,7.0,0.0
6038,55.0,0,90,2.0,0.0
6039,43.0,0,90,2.0,0.0
6040,67.0,0,90,1.0,0.0
6041,67.0,40,90,6.0,0.0
6042,43.0,0,90,11.0,0.0
6043,43.0,0,90,5.0,0.0
6044,67.0,0,90,3.0,0.0
6045,55.0,0,90,10.0,0.0
6046,67.0,0,90,8.0,0.0
6047,90.0,0,20,0.0,0.0
6048,86.0,20,20,1.0,0.0
6049,84.0,0,20,1.0,0.0
6050,88.0,60,20,0.0,0.0
6051,83.0,0,20,1.0,0.0
6052,86.0,60,20,0.0,0.0
6053,84.0,60,20,0.0,0.0
6054,81.0,0,20,1.0,0.0
6055,83.0,60,20,0.0,0.0
6056,79.0,0,20,1.0,0.0
6057,81.0,60,20,0.0,0.0
6058,78.0,0,20,1.0,0.0
6059,59.0,20,20,2.0,0.0
6060,79.0,0,20,1.0,0.0
6061,59.0,0,60,10.0,0.0
6062,79.0,0,20,0.0,0.0
6063,59.0,0,30,7.0,0.0
6064,79.0,19,30,6.0,0.0
6065,47.0,60,60,11.0,0.0
6066,43.0,40,60,11.0,0.0
6067,43.0,19,90,5.0,0.0
6068,60.0,0,180,2.0,0.0
6069,79.0,10,3690,1.0,0.0
6070,55.0,1,60,8.0,0.0
6071,91.0,0,3690,0.0,0.0
6072,67.0,0,480,4.0,0.0
6073,81.0,59,180,6.0,0.0
6074,67.0,59,480,3.0,0.0
6075,60.0,19,150,10.0,0.0
6076,60.0,0,180,7.0,0.0
6077,67.0,0,60,8.0,0.0
6078,55.0,0,60,10.0,0.0
6079,55.0,0,60,8.0,0.0
6080,67.0,1,60,8.0,0.0
6081,55.0,0,60,8.0,0.0
6082,55.0,0,15,10.0,0.0
6083,43.0,40,15,11.0,0.0
6084,67.0,1,60,8.0,0.0
6085,55.0,0,60,8.0,0.0
6086,55.0,0,60,10.0,0.0
6087,59.0,0,60,10.0,0.0
6088,43.0,0,60,11.0,0.0
6089,67.0,0,60,8.0,0.0
6090,59.0,0,60,2.0,0.0
6091,79.0,0,60,6.0,0.0
6092,59.0,60,60,7.0,0.0
6093,62.0,0,180,2.0,0.0
6094,43.0,19,90,5.0,0.0
6095,83.0,0,180,6.0,0.0
6096,43.0,0,60,11.0,0.0
6097,62.0,0,180,7.0,0.0
6098,55.0,40,60,10.0,0.0
6099,67.0,1,60,8.0,0.0
6100,55.0,0,60,8.0,0.0
6101,62.0,19,150,10.0,0.0
6102,55.0,0,60,8.0,0.0
6103,43.0,40,60,11.0,0.0
6104,67.0,1,60,8.0,0.0
6105,67.0,1,60,8.0,0.0
6106,55.0,0,15,10.0,0.0
6107,55.0,0,60,8.0,0.0
6108,60.0,0,60,2.0,0.0
6109,60.0,0,60,7.0,0.0
6110,81.0,0,60,6.0,0.0
6111,43.0,0,15,11.0,0.0
6112,67.0,0,60,8.0,0.0
6113,55.0,0,60,8.0,0.0
6114,60.0,0,60,10.0,0.0
6115,55.0,0,60,10.0,0.0
6116,43.0,0,90,5.0,0.0
6117,64.0,0,240,7.0,0.0
6118,84.0,0,240,6.0,0.0
6119,64.0,0,240,2.0,0.0
6120,55.0,0,60,10.0,0.0
6121,67.0,0,90,3.0,0.0
6122,43.0,40,60,11.0,0.0
6123,67.0,1,60,8.0,0.0
6124,55.0,0,60,8.0,0.0
6125,64.0,29,210,10.0,0.0
6126,67.0,19,90,4.0,0.0
6127,67.0,1,60,8.0,0.0
6128,55.0,0,60,10.0,0.0
6129,55.0,0,60,8.0,0.0
6130,67.0,0,60,8.0,0.0
6131,55.0,1,60,8.0,0.0
6132,43.0,59,15,11.0,0.0
6133,67.0,0,90,3.0,0.0
6134,67.0,1,90,4.0,0.0
6135,55.0,0,60,10.0,0.0
6136,55.0,0,60,8.0,0.0
6137,67.0,0,60,8.0,0.0
6138,43.0,29,15,11.0,0.0
6139,67.0,0,30,3.0,0.0
6140,67.0,1,30,4.0,0.0
6141,62.0,0,90,7.0,0.0
6142,67.0,0,90,4.0,0.0
6143,83.0,0,90,6.0,0.0
6144,62.0,0,90,2.0,0.0
6145,55.0,59,15,10.0,0.0
6146,43.0,0,15,11.0,0.0
6147,62.0,19,90,10.0,0.0
6148,67.0,0,90,3.0,0.0
6149,67.0,41,60,8.0,0.0
6150,55.0,0,60,8.0,0.0
6151,55.0,0,60,8.0,0.0
6152,43.0,0,60,11.0,0.0
6153,55.0,60,60,10.0,0.0
6154,67.0,0,60,8.0,0.0
6155,67.0,0,60,8.0,0.0
6156,43.0,21,60,11.0,0.0
6157,55.0,0,60,8.0,0.0
6158,67.0,19,90,3.0,0.0
6159,55.0,0,60,10.0,0.0
6160,67.0,0,90,4.0,0.0
6161,80.0,0,30,6.0,0.0
6162,67.0,0,60,8.0,0.0
6163,43.0,0,60,11.0,0.0
6164,55.0,0,60,10.0,0.0
6165,59.0,20,20,2.0,0.0
6166,59.0,60,60,10.0,0.0
6167,59.0,0,30,7.0,0.0
6168,55.0,0,60,8.0,0.0
6169,83.0,0,180,6.0,0.0
6170,55.0,0,60,8.0,0.0
6171,67.0,1,60,8.0,0.0
6172,62.0,19,150,10.0,0.0
6173,67.0,59,480,3.0,0.0
6174,62.0,0,180,2.0,0.0
6175,43.0,0,60,11.0,0.0
6176,62.0,0,180,7.0,0.0
6177,43.0,19,90,5.0,0.0
6178,55.0,1,60,8.0,0.0
6179,67.0,0,60,8.0,0.0
6180,55.0,40,15,10.0,0.0
6181,55.0,0,15,10.0,0.0
6182,55.0,0,60,8.0,0.0
6183,67.0,1,60,8.0,0.0
6184,43.0,40,15,11.0,0.0
6185,81.0,0,60,6.0,0.0
6186,60.0,0,60,7.0,0.0
6187,55.0,0,60,8.0,0.0
6188,67.0,60,60,8.0,0.0
6189,60.0,0,60,2.0,0.0
6190,43.0,59,15,11.0,0.0
6191,55.0,0,60,10.0,0.0
6192,60.0,0,60,10.0,0.0
6193,64.0,0,180,2.0,0.0
6194,64.0,19,150,10.0,0.0
6195,67.0,0,60,8.0,0.0
6196,55.0,1,60,8.0,0.0
6197,84.0,0,180,6.0,0.0
6198,64.0,59,180,7.0,0.0
6199,43.0,19,90,5.0,0.0
6200,55.0,0,15,10.0,0.0
6201,55.0,0,60,8.0,0.0
6202,67.0,1,60,8.0,0.0
6203,43.0,40,15,11.0,0.0
6204,55.0,0,60,10.0,0.0
6205,43.0,40,15,11.0,0.0
6206,55.0,0,60,8.0,0.0
6207,67.0,1,60,8.0,0.0
6208,62.0,0,60,7.0,0.0
6209,55.0,0,60,10.0,0.0
6210,67.0,0,60,8.0,0.0
6211,55.0,0,60,8.0,0.0
6212,43.0,1,60,11.0,0.0
6213,83.0,0,60,6.0,0.0
6214,62.0,0,60,2.0,0.0
6215,62.0,0,60,10.0,0.0
6216,55.0,1,60,8.0,0.0
6217,67.0,0,60,8.0,0.0
6218,43.0,19,90,5.0,0.0
6219,65.0,29,210,10.0,0.0
6220,67.0,0,15,4.0,0.0
6221,55.0,0,60,10.0,0.0
6222,65.0,0,240,2.0,0.0
6223,65.0,0,240,7.0,0.0
6224,86.0,0,240,6.0,0.0
6225,43.0,40,60,11.0,0.0
6226,67.0,0,90,3.0,0.0
6227,67.0,1,60,8.0,0.0
6228,43.0,0,60,11.0,0.0
6229,55.0,0,60,8.0,0.0
6230,55.0,59,15,10.0,0.0
6231,67.0,1,90,3.0,0.0
6232,55.0,0,60,8.0,0.0
6233,67.0,0,90,4.0,0.0
6234,67.0,1,60,8.0,0.0
6235,55.0,0,15,10.0,0.0
6236,55.0,0,60,8.0,0.0
6237,67.0,0,60,8.0,0.0
6238,43.0,29,15,11.0,0.0
6239,67.0,0,30,4.0,0.0
6240,67.0,1,30,3.0,0.0
6241,84.0,0,90,6.0,0.0
6242,55.0,0,15,10.0,0.0
6243,64.0,0,90,2.0,0.0
6244,64.0,19,150,10.0,0.0
6245,43.0,59,15,11.0,0.0
6246,67.0,0,90,3.0,0.0
6247,55.0,41,60,8.0,0.0
6248,67.0,0,60,8.0,0.0
6249,67.0,19,90,4.0,0.0
6250,64.0,0,90,7.0,0.0
6251,43.0,0,60,11.0,0.0
6252,55.0,41,60,8.0,0.0
6253,67.0,0,60,8.0,0.0
6254,55.0,0,60,10.0,0.0
6255,55.0,21,60,10.0,0.0
6256,67.0,0,90,3.0,0.0
6257,43.0,0,60,11.0,0.0
6258,67.0,5,90,4.0,0.0
6259,67.0,0,60,8.0,0.0
6260,55.0,0,60,8.0,0.0
6261,60.0,14,60,7.0,0.0
6262,61.0,0,60,10.0,0.0
6263,43.0,0,60,11.0,0.0
6264,67.0,0,60,8.0,0.0
6265,55.0,0,60,10.0,0.0
6266,55.0,60,60,8.0,0.0
6267,81.0,0,60,6.0,0.0
6268,61.0,20,20,2.0,0.0
6269,67.0,0,60,8.0,0.0
6270,84.0,59,180,6.0,0.0
6271,64.0,0,180,2.0,0.0
6272,55.0,1,60,8.0,0.0
6273,43.0,19,90,5.0,0.0
6274,64.0,0,180,7.0,0.0
6275,64.0,19,150,10.0,0.0
6276,55.0,40,60,10.0,0.0
6277,43.0,0,15,11.0,0.0
6278,67.0,0,60,8.0,0.0
6279,55.0,1,60,8.0,0.0
6280,55.0,0,60,10.0,0.0
6281,43.0,40,15,11.0,0.0
6282,67.0,1,60,8.0,0.0
6283,55.0,0,60,8.0,0.0
6284,55.0,0,60,10.0,0.0
6285,62.0,60,60,2.0,0.0
6286,55.0,0,60,8.0,0.0
6287,62.0,0,60,10.0,0.0
6288,67.0,0,60,8.0,0.0
6289,55.0,0,60,10.0,0.0
6290,62.0,0,60,7.0,0.0
6291,83.0,0,60,6.0,0.0
6292,43.0,0,60,11.0,0.0
6293,43.0,19,90,5.0,0.0
6294,86.0,0,180,6.0,0.0
6295,55.0,0,60,10.0,0.0
6296,65.0,19,150,10.0,0.0
6297,55.0,1,60,8.0,0.0
6298,67.0,0,60,8.0,0.0
6299,65.0,0,180,2.0,0.0
6300,65.0,59,180,7.0,0.0
6301,55.0,0,60,8.0,0.0
6302,43.0,40,15,11.0,0.0
6303,67.0,1,60,8.0,0.0
6304,55.0,0,15,10.0,0.0
6305,55.0,0,60,8.0,0.0
6306,67.0,1,60,8.0,0.0
6307,43.0,0,15,11.0,0.0
6308,67.0,0,60,8.0,0.0
6309,55.0,0,60,8.0,0.0
6310,64.0,0,60,7.0,0.0
6311,64.0,0,60,10.0,0.0
6312,55.0,0,15,10.0,0.0
6313,85.0,1,60,6.0,0.0
6314,64.0,0,60,2.0,0.0
6315,67.0,0,240,7.0,0.0
6316,67.0,59,15,3.0,0.0
6317,67.0,0,15,4.0,0.0
6318,67.0,29,210,10.0,0.0
6319,55.0,0,60,10.0,0.0
6320,67.0,0,240,2.0,0.0
6321,43.0,0,90,5.0,0.0
6322,43.0,40,60,11.0,0.0
6323,55.0,1,60,8.0,0.0
6324,67.0,0,60,8.0,0.0
6325,88.0,0,240,6.0,0.0
6326,67.0,1,60,8.0,0.0
6327,55.0,0,60,10.0,0.0
6328,55.0,0,60,8.0,0.0
6329,55.0,1,60,8.0,0.0
6330,67.0,1,90,3.0,0.0
6331,43.0,59,15,11.0,0.0
6332,67.0,0,90,4.0,0.0
6333,67.0,0,60,8.0,0.0
6334,55.0,0,60,10.0,0.0
6335,43.0,29,15,11.0,0.0
6336,55.0,0,60,8.0,0.0
6337,67.0,0,60,8.0,0.0
6338,67.0,0,30,3.0,0.0
6339,67.0,1,30,4.0,0.0
6340,65.0,19,150,10.0,0.0
6341,55.0,0,60,8.0,0.0
6342,65.0,19,90,7.0,0.0
6343,67.0,0,60,8.0,0.0
6344,65.0,0,90,2.0,0.0
6345,55.0,0,15,10.0,0.0
6346,86.0,0,90,6.0,0.0
6347,67.0,0,90,4.0,0.0
6348,43.0,59,15,11.0,0.0
6349,67.0,0,90,3.0,0.0
6350,67.0,0,60,8.0,0.0
6351,43.0,41,60,11.0,0.0
6352,55.0,0,60,8.0,0.0
6353,55.0,0,60,10.0,0.0
6354,67.0,5,90,4.0,0.0
6355,55.0,0,60,10.0,0.0
6356,43.0,21,60,11.0,0.0
6357,67.0,0,90,3.0,0.0
6358,67.0,0,60,8.0,0.0
6359,55.0,0,60,8.0,0.0
6360,67.0,0,60,8.0,0.0
6361,55.0,0,60,8.0,0.0
6362,63.0,0,60,10.0,0.0
6363,55.0,60,60,10.0,0.0
6364,63.0,20,20,2.0,0.0
6365,83.0,14,60,6.0,0.0
6366,63.0,0,60,7.0,0.0
6367,43.0,0,60,11.0,0.0
6368,55.0,1,60,8.0,0.0
6369,67.0,0,90,4.0,0.0
6370,55.0,0,60,10.0,0.0
6371,43.0,40,60,11.0,0.0
6372,86.0,0,240,6.0,0.0
6373,67.0,19,90,3.0,0.0
6374,65.0,29,210,10.0,0.0
6375,67.0,0,60,8.0,0.0
6376,43.0,0,90,5.0,0.0
6377,65.0,59,240,7.0,0.0
6378,65.0,0,240,2.0,0.0
6379,55.0,0,60,8.0,0.0
6380,67.0,1,60,8.0,0.0
6381,55.0,0,15,10.0,0.0
6382,67.0,0,60,8.0,0.0
6383,67.0,1,90,4.0,0.0
6384,55.0,1,60,8.0,0.0
6385,43.0,59,15,11.0,0.0
6386,67.0,0,90,3.0,0.0
6387,43.0,0,60,11.0,0.0
6388,55.0,0,60,8.0,0.0
6389,67.0,1,60,8.0,0.0
6390,67.0,0,30,4.0,0.0
6391,67.0,0,30,3.0,0.0
6392,67.0,0,90,4.0,0.0
6393,43.0,0,60,11.0,0.0
6394,67.0,0,90,3.0,0.0
6395,64.0,0,90,2.0,0.0
6396,64.0,19,150,10.0,0.0
6397,55.0,0,15,10.0,0.0
6398,84.0,19,90,6.0,0.0
6399,67.0,0,60,8.0,0.0
6400,64.0,0,90,7.0,0.0
6401,55.0,0,60,8.0,0.0
6402,43.0,41,60,11.0,0.0
6403,55.0,0,60,10.0,0.0
6404,55.0,0,60,8.0,0.0
6405,67.0,0,60,8.0,0.0
6406,55.0,0,60,10.0,0.0
6407,67.0,5,90,3.0,0.0
6408,55.0,0,60,8.0,0.0
6409,67.0,0,60,8.0,0.0
6410,43.0,21,60,11.0,0.0
6411,67.0,0,90,4.0,0.0
6412,67.0,60,60,8.0,0.0
6413,55.0,0,60,8.0,0.0
6414,43.0,0,60,11.0,0.0
6415,60.0,0,60,7.0,0.0
6416,82.0,14,60,6.0,0.0
6417,61.0,0,60,10.0,0.0
6418,60.0,20,20,2.0,0.0
6419,55.0,0,60,10.0,0.0
6420,84.0,59,240,6.0,0.0
6421,43.0,19,90,5.0,0.0
6422,43.0,40,60,11.0,0.0
6423,67.0,0,90,3.0,0.0
6424,67.0,0,90,4.0,0.0
6425,64.0,0,240,7.0,0.0
6426,64.0,0,240,2.0,0.0
6427,64.0,29,210,10.0,0.0
6428,67.0,1,60,8.0,0.0
6429,55.0,0,60,8.0,0.0
6430,55.0,0,60,10.0,0.0
6431,67.0,1,60,8.0,0.0
6432,55.0,0,60,8.0,0.0
6433,43.0,59,60,11.0,0.0
6434,67.0,1,90,3.0,0.0
6435,67.0,0,60,8.0,0.0
6436,55.0,1,60,8.0,0.0
6437,67.0,0,90,4.0,0.0
6438,55.0,0,15,10.0,0.0
6439,43.0,0,15,11.0,0.0
6440,67.0,0,60,8.0,0.0
6441,55.0,0,60,8.0,0.0
6442,55.0,0,60,10.0,0.0
6443,67.0,1,30,4.0,0.0
6444,67.0,0,30,3.0,0.0
6445,55.0,0,60,10.0,0.0
6446,62.0,0,90,10.0,0.0
6447,62.0,0,90,2.0,0.0
6448,62.0,0,90,7.0,0.0
6449,43.0,0,15,11.0,0.0
6450,67.0,0,90,4.0,0.0
6451,83.0,19,90,6.0,0.0
6452,67.0,31,60,8.0,0.0
6453,55.0,0,60,8.0,0.0
6454,67.0,0,90,3.0,0.0
6455,55.0,60,60,10.0,0.0
6456,43.0,0,60,11.0,0.0
6457,67.0,0,60,8.0,0.0
6458,55.0,0,60,8.0,0.0
6459,74.0,0,90,1.0,0.0
6460,43.0,0,60,11.0,0.0
6461,67.0,0,90,3.0,0.0
6462,83.0,0,90,0.0,0.0
6463,83.0,0,90,1.0,0.0
6464,55.0,0,60,10.0,0.0
6465,67.0,21,60,8.0,0.0
6466,67.0,5,90,4.0,0.0
6467,55.0,0,60,8.0,0.0
6468,43.0,0,60,11.0,0.0
6469,62.0,14,60,7.0,0.0
6470,83.0,0,60,6.0,0.0
6471,55.0,20,20,2.0,0.0
6472,67.0,0,60,8.0,0.0
6473,55.0,60,60,8.0,0.0
6474,55.0,0,60,10.0,0.0
6475,72.0,0,90,4.0,0.0
6476,60.0,0,60,10.0,0.0
6477,60.0,0,60,8.0,0.0
6478,81.0,0,90,0.0,0.0
6479,81.0,19,90,6.0,0.0
6480,60.0,41,60,2.0,0.0
6481,64.0,0,90,7.0,0.0
6482,72.0,0,90,3.0,0.0
6483,76.0,0,90,1.0,0.0
6484,48.0,0,60,11.0,0.0
6485,81.0,0,90,1.0,0.0
6486,60.0,60,60,8.0,0.0
6487,60.0,0,60,10.0,0.0
6488,60.0,0,60,2.0,0.0
6489,48.0,0,60,11.0,0.0
6490,77.0,0,90,1.0,0.0
6491,74.0,0,90,3.0,0.0
6492,80.0,0,90,1.0,0.0
6493,59.0,0,60,2.0,0.0
6494,80.0,0,90,6.0,0.0
6495,65.0,19,90,7.0,0.0
6496,74.0,0,90,4.0,0.0
6497,47.0,41,60,11.0,0.0
6498,62.0,0,60,8.0,0.0
6499,59.0,0,60,10.0,0.0
6500,80.0,0,90,0.0,0.0
6501,47.0,0,60,11.0,0.0
6502,59.0,0,60,10.0,0.0
6503,62.0,0,60,8.0,0.0
6504,59.0,60,60,2.0,0.0
6505,60.0,0,60,2.0,0.0
6506,72.0,0,90,4.0,0.0
6507,48.0,0,60,11.0,0.0
6508,81.0,0,90,6.0,0.0
6509,60.0,41,60,8.0,0.0
6510,81.0,0,90,1.0,0.0
6511,72.0,0,90,3.0,0.0
6512,60.0,0,60,10.0,0.0
6513,76.0,19,90,1.0,0.0
6514,64.0,0,90,7.0,0.0
6515,81.0,0,90,0.0,0.0
6516,60.0,0,60,2.0,0.0
6517,60.0,0,60,10.0,0.0
6518,60.0,60,60,8.0,0.0
6519,48.0,0,60,11.0,0.0
6520,74.0,19,90,3.0,0.0
6521,47.0,0,60,11.0,0.0
6522,80.0,0,90,1.0,0.0
6523,74.0,0,90,4.0,0.0
6524,62.0,0,60,8.0,0.0
6525,80.0,0,90,0.0,0.0
6526,80.0,0,90,6.0,0.0
6527,59.0,0,60,10.0,0.0
6528,65.0,0,90,7.0,0.0
6529,59.0,41,60,2.0,0.0
6530,77.0,0,90,1.0,0.0
6531,62.0,101,60,8.0,0.0
6532,59.0,0,60,10.0,0.0
6533,59.0,0,60,2.0,0.0
6534,47.0,0,60,11.0,0.0
6535,60.0,0,330,8.0,0.0
6536,64.0,0,330,7.0,0.0
6537,72.0,0,330,3.0,0.0
6538,81.0,0,90,6.0,0.0
6539,48.0,0,330,11.0,0.0
6540,81.0,0,90,1.0,0.0
6541,76.0,10,450,1.0,0.0
6542,72.0,10,210,4.0,0.0
6543,60.0,0,330,10.0,0.0
6544,60.0,10,330,2.0,0.0
6545,81.0,110,90,0.0,0.0
6546,84.0,0,90,1.0,0.0
6547,84.0,0,90,6.0,0.0
6548,84.0,110,90,0.0,0.0
6549,81.0,110,90,6.0,0.0
6550,81.0,0,90,0.0,0.0
6551,81.0,0,90,1.0,0.0
6552,61.0,0,90,2.0,0.0
6553,61.0,0,90,10.0,0.0
6554,76.0,0,90,7.0,0.0
6555,79.0,0,90,6.0,0.0
6556,79.0,0,90,0.0,0.0
6557,49.0,0,90,11.0,0.0
6558,61.0,0,90,8.0,0.0
6559,79.0,0,90,1.0,0.0
6560,76.0,120,90,3.0,0.0
6561,78.0,0,90,6.0,0.0
6562,74.0,0,90,7.0,0.0
6563,50.0,0,90,11.0,0.0
6564,62.0,0,90,8.0,0.0
6565,74.0,0,90,3.0,0.0
6566,62.0,0,90,2.0,0.0
6567,74.0,0,210,4.0,0.0
6568,78.0,0,90,0.0,0.0
6569,78.0,0,90,1.0,0.0
6570,74.0,95,90,1.0,0.0
6571,62.0,0,90,10.0,0.0
6572,78.0,0,90,1.0,0.0
6573,57.0,0,90,2.0,0.0
6574,54.0,0,90,2.0,0.0
6575,74.0,0,90,3.0,0.0
6576,81.0,1,90,1.0,0.0
6577,86.0,0,90,0.0,0.0
6578,57.0,14,15,8.0,0.0
6579,69.0,0,15,7.0,0.0
6580,55.0,0,15,8.0,0.0
6581,67.0,15,15,7.0,0.0
6582,74.0,0,30,3.0,0.0
6583,81.0,1,30,1.0,0.0
6584,78.0,0,30,1.0,0.0
6585,54.0,0,30,2.0,0.0
6586,86.0,0,30,0.0,0.0
6587,54.0,0,15,8.0,0.0
6588,57.0,0,30,2.0,0.0
6589,66.0,14,15,7.0,0.0
6590,52.0,100,15,8.0,0.0
6591,64.0,0,15,7.0,0.0
6592,74.0,0,90,3.0,0.0
6593,78.0,0,90,1.0,0.0
6594,62.0,0,90,7.0,0.0
6595,54.0,0,90,2.0,0.0
6596,81.0,0,90,1.0,0.0
6597,57.0,120,90,2.0,0.0
6598,74.0,0,90,4.0,0.0
6599,86.0,0,90,0.0,0.0
6600,50.0,0,90,8.0,0.0
6601,81.0,0,90,6.0,0.0
6602,74.0,0,90,6.0,0.0
6603,62.0,0,90,6.0,0.0
6604,86.0,0,90,0.0,0.0
6605,62.0,0,90,10.0,0.0
6606,81.0,0,90,1.0,0.0
6607,78.0,0,90,1.0,0.0
6608,74.0,0,90,4.0,0.0
6609,57.0,0,90,2.0,0.0
6610,54.0,0,90,2.0,0.0
6611,74.0,120,90,3.0,0.0
6612,50.0,0,90,11.0,0.0
6613,62.0,0,90,6.0,0.0
6614,74.0,0,90,6.0,0.0
6615,83.0,0,90,6.0,0.0
6616,79.0,0,90,1.0,0.0
6617,74.0,0,90,3.0,0.0
6618,74.0,15,210,4.0,0.0
6619,59.0,0,90,2.0,0.0
6620,55.0,0,90,2.0,0.0
6621,83.0,0,90,1.0,0.0
6622,38.0,95,90,11.0,0.0
6623,86.0,0,90,0.0,0.0
6624,50.0,0,90,10.0,0.0
6625,79.0,1,90,1.0,0.0
6626,83.0,0,90,1.0,0.0
6627,86.0,0,90,0.0,0.0
6628,59.0,0,90,2.0,0.0
6629,55.0,0,90,2.0,0.0
6630,74.0,0,90,3.0,0.0
6631,74.0,14,15,7.0,0.0
6632,62.0,0,15,8.0,0.0
6633,60.0,0,15,8.0,0.0
6634,72.0,0,15,7.0,0.0
6635,71.0,14,15,7.0,0.0
6636,59.0,0,30,2.0,0.0
6637,55.0,0,30,2.0,0.0
6638,86.0,0,30,0.0,0.0
6639,59.0,0,15,8.0,0.0
6640,83.0,0,30,1.0,0.0
6641,74.0,0,30,3.0,0.0
6642,79.0,1,30,1.0,0.0
6643,57.0,100,15,8.0,0.0
6644,69.0,0,15,7.0,0.0
6645,74.0,0,90,4.0,0.0
6646,67.0,0,90,7.0,0.0
6647,55.0,0,90,8.0,0.0
6648,74.0,0,90,3.0,0.0
6649,79.0,0,90,1.0,0.0
6650,83.0,0,90,1.0,0.0
6651,86.0,0,90,0.0,0.0
6652,55.0,0,90,2.0,0.0
6653,59.0,120,90,2.0,0.0
6654,79.0,0,90,6.0,0.0
6655,79.0,0,90,1.0,0.0
6656,62.0,0,90,6.0,0.0
6657,71.0,0,90,6.0,0.0
6658,50.0,0,90,11.0,0.0
6659,83.0,0,90,1.0,0.0
6660,74.0,120,90,3.0,0.0
6661,74.0,0,90,4.0,0.0
6662,62.0,0,90,10.0,0.0
6663,86.0,0,90,0.0,0.0
6664,55.0,0,90,2.0,0.0
6665,59.0,0,90,2.0,0.0
6666,57.0,0,90,2.0,0.0
6667,54.0,0,90,2.0,0.0
6668,74.0,0,210,4.0,0.0
6669,74.0,0,90,3.0,0.0
6670,81.0,0,90,1.0,0.0
6671,78.0,95,90,1.0,0.0
6672,86.0,0,90,6.0,0.0
6673,74.0,0,90,6.0,0.0
6674,38.0,0,90,11.0,0.0
6675,50.0,0,90,10.0,0.0
6676,86.0,0,90,0.0,0.0
6677,62.0,0,90,6.0,0.0
6678,86.0,1,90,0.0,0.0
6679,54.0,0,90,2.0,0.0
6680,74.0,0,90,3.0,0.0
6681,81.0,0,90,1.0,0.0
6682,78.0,0,90,1.0,0.0
6683,57.0,0,90,2.0,0.0
6684,69.0,14,15,8.0,0.0
6685,81.0,0,15,7.0,0.0
6686,67.0,15,15,8.0,0.0
6687,79.0,0,15,7.0,0.0
6688,74.0,0,30,3.0,0.0
6689,57.0,0,30,2.0,0.0
6690,66.0,14,15,8.0,0.0
6691,81.0,0,30,1.0,0.0
6692,78.0,0,15,7.0,0.0
6693,86.0,1,30,0.0,0.0
6694,78.0,0,30,1.0,0.0
6695,54.0,0,30,2.0,0.0
6696,76.0,0,15,7.0,0.0
6697,64.0,100,15,8.0,0.0
6698,78.0,120,90,1.0,0.0
6699,74.0,0,90,4.0,0.0
6700,62.0,0,90,8.0,0.0
6701,57.0,0,90,2.0,0.0
6702,74.0,0,90,3.0,0.0
6703,86.0,0,90,0.0,0.0
6704,81.0,0,90,1.0,0.0
6705,74.0,0,90,7.0,0.0
6706,54.0,0,90,2.0,0.0
6707,62.0,0,90,6.0,0.0
6708,62.0,0,90,10.0,0.0
6709,54.0,0,90,2.0,0.0
6710,81.0,0,90,6.0,0.0
6711,86.0,120,90,0.0,0.0
6712,74.0,0,90,4.0,0.0
6713,81.0,0,90,1.0,0.0
6714,57.0,0,90,2.0,0.0
6715,50.0,0,90,11.0,0.0
6716,74.0,0,90,6.0,0.0
6717,78.0,0,90,1.0,0.0
6718,74.0,0,90,3.0,0.0
6719,62.0,0,90,6.0,0.0
6720,74.0,0,90,3.0,0.0
6721,79.0,0,90,1.0,0.0
6722,74.0,15,210,4.0,0.0
6723,55.0,0,90,2.0,0.0
6724,83.0,0,90,6.0,0.0
6725,74.0,0,90,6.0,0.0
6726,50.0,0,90,10.0,0.0
6727,86.0,0,90,0.0,0.0
6728,38.0,0,90,11.0,0.0
6729,83.0,0,90,1.0,0.0
6730,59.0,95,90,2.0,0.0
6731,55.0,0,90,2.0,0.0
6732,86.0,1,90,0.0,0.0
6733,79.0,0,90,1.0,0.0
6734,74.0,0,90,3.0,0.0
6735,59.0,0,90,2.0,0.0
6736,83.0,0,90,1.0,0.0
6737,62.0,0,15,8.0,0.0
6738,74.0,14,15,7.0,0.0
6739,60.0,0,15,8.0,0.0
6740,72.0,0,15,7.0,0.0
6741,59.0,14,15,8.0,0.0
6742,83.0,0,30,1.0,0.0
6743,79.0,0,30,1.0,0.0
6744,55.0,1,30,2.0,0.0
6745,59.0,0,30,2.0,0.0
6746,86.0,0,30,0.0,0.0
6747,74.0,0,30,3.0,0.0
6748,71.0,0,15,7.0,0.0
6749,57.0,0,15,8.0,0.0
6750,69.0,100,15,7.0,0.0
6751,55.0,0,90,8.0,0.0
6752,59.0,0,90,2.0,0.0
6753,55.0,0,90,2.0,0.0
6754,79.0,0,90,1.0,0.0
6755,74.0,0,90,4.0,0.0
6756,83.0,0,90,1.0,0.0
6757,67.0,0,90,7.0,0.0
6758,86.0,0,90,0.0,0.0
6759,74.0,120,90,3.0,0.0
6760,79.0,0,90,1.0,0.0
6761,83.0,120,90,1.0,0.0
6762,79.0,0,90,6.0,0.0
6763,74.0,0,90,6.0,0.0
6764,62.0,0,90,6.0,0.0
6765,74.0,0,90,4.0,0.0
6766,55.0,0,90,2.0,0.0
6767,59.0,0,90,2.0,0.0
6768,86.0,0,90,0.0,0.0
6769,74.0,0,90,3.0,0.0
6770,50.0,0,90,11.0,0.0
6771,62.0,0,90,10.0,0.0
6772,86.0,0,90,6.0,0.0
6773,62.0,0,90,6.0,0.0
6774,62.0,0,90,7.0,0.0
6775,50.0,95,90,8.0,0.0
6776,57.0,0,90,2.0,0.0
6777,74.0,0,90,6.0,0.0
6778,74.0,0,90,3.0,0.0
6779,50.0,0,90,10.0,0.0
6780,38.0,0,90,11.0,0.0
6781,54.0,0,90,2.0,0.0
6782,86.0,0,90,0.0,0.0
6783,78.0,0,90,1.0,0.0
6784,81.0,0,90,1.0,0.0
6785,74.0,0,90,4.0,0.0
6786,54.0,0,90,2.0,0.0
6787,81.0,5,90,6.0,0.0
6788,81.0,0,90,1.0,0.0
6789,78.0,0,90,1.0,0.0
6790,74.0,0,90,3.0,0.0
6791,57.0,0,90,2.0,0.0
6792,74.0,0,90,6.0,0.0
6793,62.0,0,90,6.0,0.0
6794,86.0,0,90,0.0,0.0
6795,62.0,15,15,8.0,0.0
6796,74.0,0,15,7.0,0.0
6797,60.0,0,15,8.0,0.0
6798,72.0,10,15,7.0,0.0
6799,59.0,15,15,8.0,0.0
6800,71.0,0,15,7.0,0.0
6801,57.0,0,15,8.0,0.0
6802,69.0,100,15,7.0,0.0
6803,71.0,0,90,7.0,0.0
6804,59.0,95,90,8.0,0.0
6805,62.0,0,90,10.0,0.0
6806,74.0,0,90,4.0,0.0
6807,67.0,0,90,4.0,0.0
6808,50.0,0,90,11.0,0.0
6809,86.0,0,90,0.0,0.0
6810,59.0,5,90,2.0,0.0
6811,55.0,0,90,2.0,0.0
6812,62.0,0,90,6.0,0.0
6813,74.0,0,90,6.0,0.0
6814,83.0,0,90,1.0,0.0
6815,83.0,0,90,6.0,0.0
6816,79.0,0,90,1.0,0.0
6817,74.0,0,90,3.0,0.0
6818,60.0,0,15,8.0,0.0
6819,72.0,15,15,7.0,0.0
6820,59.0,0,15,8.0,0.0
6821,71.0,10,15,7.0,0.0
6822,57.0,15,15,8.0,0.0
6823,69.0,0,15,7.0,0.0
6824,55.0,100,15,8.0,0.0
6825,67.0,0,15,7.0,0.0
6826,66.0,0,90,7.0,0.0
6827,54.0,0,90,8.0,0.0
6828,74.0,95,90,4.0,0.0
6829,38.0,0,90,11.0,0.0
6830,50.0,0,90,10.0,0.0
6831,62.0,0,90,6.0,0.0
6832,86.0,0,90,0.0,0.0
6833,74.0,5,90,3.0,0.0
6834,81.0,0,90,1.0,0.0
6835,78.0,0,90,1.0,0.0
6836,57.0,0,90,2.0,0.0
6837,74.0,0,90,6.0,0.0
6838,81.0,0,90,6.0,0.0
6839,54.0,0,90,2.0,0.0
6840,62.0,0,15,8.0,0.0
6841,74.0,15,15,7.0,0.0
6842,72.0,10,15,7.0,0.0
6843,60.0,0,15,8.0,0.0
6844,59.0,0,15,8.0,0.0
6845,71.0,15,15,7.0,0.0
6846,69.0,0,15,7.0,0.0
6847,57.0,100,15,8.0,0.0
6848,59.0,0,90,8.0,0.0
6849,62.0,0,90,10.0,0.0
6850,74.0,0,90,4.0,0.0
6851,67.0,0,90,4.0,0.0
6852,50.0,0,90,11.0,0.0
6853,71.0,95,90,7.0,0.0
6854,79.0,0,90,1.0,0.0
6855,83.0,0,90,6.0,0.0
6856,83.0,0,90,1.0,0.0
6857,59.0,0,90,2.0,0.0
6858,74.0,0,90,3.0,0.0
6859,62.0,0,90,6.0,0.0
6860,55.0,0,90,2.0,0.0
6861,74.0,5,90,6.0,0.0
6862,86.0,0,90,0.0,0.0
6863,60.0,15,15,8.0,0.0
6864,72.0,0,15,7.0,0.0
6865,71.0,0,15,7.0,0.0
6866,59.0,10,15,8.0,0.0
6867,57.0,0,15,8.0,0.0
6868,69.0,15,15,7.0,0.0
6869,67.0,0,15,7.0,0.0
6870,55.0,100,15,8.0,0.0
6871,57.0,0,90,2.0,0.0
6872,50.0,440,90,10.0,0.0
6873,81.0,0,90,1.0,0.0
6874,54.0,0,90,2.0,0.0
6875,66.0,0,90,7.0,0.0
6876,78.0,0,90,1.0,0.0
6877,54.0,0,90,8.0,0.0
6878,86.0,0,90,0.0,0.0
6879,74.0,0,90,3.0,0.0
6880,74.0,0,90,4.0,0.0
6881,62.0,0,90,6.0,0.0
6882,74.0,0,90,6.0,0.0
6883,81.0,0,90,6.0,0.0
6884,38.0,0,90,11.0,0.0
6885,59.0,60,60,7.0,0.0
6886,79.0,0,360,6.0,0.0
6887,62.0,60,60,7.0,0.0
6888,59.0,60,60,7.0,0.0
6889,62.0,60,60,7.0,0.0
6890,59.0,60,60,7.0,0.0
6891,62.0,60,60,7.0,0.0
6892,80.0,60,120,6.0,0.0
6893,59.0,59,60,7.0,0.0
6894,62.0,1,60,7.0,0.0
6895,60.0,40,60,7.0,0.0
6896,81.0,20,90,6.0,0.0
6897,62.0,60,60,7.0,0.0
6898,60.0,60,60,7.0,0.0
6899,62.0,60,60,7.0,0.0
6900,60.0,60,60,7.0,0.0
6901,62.0,60,60,7.0,0.0
6902,60.0,59,60,7.0,0.0
6903,62.0,61,60,7.0,0.0
6904,57.0,60,60,7.0,0.0
6905,57.0,0,360,8.0,0.0
6906,57.0,0,360,10.0,0.0
6907,45.0,0,360,11.0,0.0
6908,62.0,60,60,7.0,0.0
6909,84.0,30,90,6.0,0.0
6910,57.0,30,60,7.0,0.0
6911,62.0,0,60,7.0,0.0
6912,81.0,59,30,6.0,0.0
6913,57.0,60,60,7.0,0.0
6914,78.0,1,60,6.0,0.0
6915,62.0,60,60,7.0,0.0
6916,46.0,15,120,11.0,0.0
6917,58.0,0,120,10.0,0.0
6918,58.0,0,120,8.0,0.0
6919,58.0,59,60,7.0,0.0
6920,78.0,0,60,6.0,0.0
6921,62.0,1,60,7.0,0.0
6922,59.0,15,120,10.0,0.0
6923,81.0,15,15,6.0,0.0
6924,59.0,15,60,7.0,0.0
6925,59.0,0,120,8.0,0.0
6926,47.0,5,90,11.0,0.0
6927,79.0,15,15,6.0,0.0
6928,81.0,15,15,6.0,0.0
6929,79.0,0,15,6.0,0.0
6930,62.0,0,60,7.0,0.0
6931,81.0,15,15,6.0,0.0
6932,79.0,10,15,6.0,0.0
6933,81.0,15,15,6.0,0.0
6934,79.0,0,15,6.0,0.0
6935,81.0,15,15,6.0,0.0
6936,59.0,30,60,7.0,0.0
6937,79.0,15,15,6.0,0.0
6938,81.0,15,15,6.0,0.0
6939,79.0,0,15,6.0,0.0
6940,78.0,30,30,6.0,0.0
6941,62.0,0,60,7.0,0.0
6942,76.0,59,30,6.0,0.0
6943,59.0,60,60,7.0,0.0
6944,74.0,1,60,6.0,0.0
6945,62.0,60,60,7.0,0.0
6946,74.0,29,90,6.0,0.0
6947,59.0,30,60,7.0,0.0
6948,62.0,61,60,7.0,0.0
6949,76.0,0,30,6.0,0.0
6950,57.0,0,60,7.0,0.0
6951,42.0,0,90,11.0,0.0
6952,72.0,40,60,6.0,0.0
6953,54.0,20,90,10.0,0.0
6954,54.0,0,90,8.0,0.0
6955,62.0,60,60,7.0,0.0
6956,57.0,30,60,7.0,0.0
6957,72.0,29,90,6.0,0.0
6958,62.0,59,60,7.0,0.0
6959,74.0,1,30,6.0,0.0
6960,55.0,0,90,8.0,0.0
6961,55.0,0,90,10.0,0.0
6962,71.0,1,60,6.0,0.0
6963,43.0,20,90,11.0,0.0
6964,55.0,40,60,7.0,0.0
6965,62.0,60,60,7.0,0.0
6966,71.0,29,90,6.0,0.0
6967,55.0,30,60,7.0,0.0
6968,67.0,0,60,7.0,0.0
6969,72.0,61,30,6.0,0.0
6970,69.0,40,60,6.0,0.0
6971,50.0,0,90,10.0,0.0
6972,66.0,20,90,7.0,0.0
6973,50.0,0,90,8.0,0.0
6974,38.0,0,90,11.0,0.0
6975,71.0,60,60,6.0,0.0
6976,72.0,60,60,6.0,0.0
6977,73.0,60,60,6.0,0.0
6978,74.0,60,60,6.0,0.0
6979,75.0,60,60,6.0,0.0
6980,76.0,59,60,6.0,0.0
6981,78.0,61,60,6.0,0.0
6982,59.0,60,60,7.0,0.0
6983,79.0,0,360,6.0,0.0
6984,55.0,60,360,2.0,0.0
6985,62.0,60,60,7.0,0.0
6986,59.0,60,60,7.0,0.0
6987,62.0,60,60,7.0,0.0
6988,59.0,60,60,7.0,0.0
6989,62.0,0,60,7.0,0.0
6990,59.0,59,60,7.0,0.0
6991,80.0,60,120,6.0,0.0
6992,56.0,0,120,2.0,0.0
6993,62.0,1,60,7.0,0.0
6994,81.0,20,90,6.0,0.0
6995,57.0,0,90,2.0,0.0
6996,60.0,40,60,7.0,0.0
6997,62.0,60,60,7.0,0.0
6998,60.0,60,60,7.0,0.0
6999,62.0,60,60,7.0,0.0
7000,60.0,60,60,7.0,0.0
7001,62.0,60,60,7.0,0.0
7002,60.0,59,60,7.0,0.0
7003,62.0,61,60,7.0,0.0
7004,57.0,0,360,10.0,0.0
7005,57.0,0,360,8.0,0.0
7006,57.0,60,60,7.0,0.0
7007,45.0,0,360,11.0,0.0
7008,62.0,60,60,7.0,0.0
7009,57.0,30,60,7.0,0.0
7010,84.0,0,90,6.0,0.0
7011,60.0,30,90,2.0,0.0
7012,62.0,0,60,7.0,0.0
7013,81.0,0,30,6.0,0.0
7014,57.0,59,30,2.0,0.0
7015,57.0,60,60,7.0,0.0
7016,78.0,1,60,6.0,0.0
7017,66.0,0,60,2.0,0.0
7018,62.0,20,60,7.0,0.0
7019,58.0,15,120,10.0,0.0
7020,58.0,0,120,8.0,0.0
7021,46.0,0,120,11.0,0.0
7022,58.0,59,60,7.0,0.0
7023,66.0,40,20,2.0,0.0
7024,78.0,0,60,6.0,0.0
7025,62.0,1,60,7.0,0.0
7026,47.0,5,90,11.0,0.0
7027,59.0,15,60,7.0,0.0
7028,67.0,30,180,2.0,0.0
7029,59.0,0,90,8.0,0.0
7030,59.0,0,90,10.0,0.0
7031,81.0,15,15,6.0,0.0
7032,79.0,15,15,6.0,0.0
7033,81.0,15,15,6.0,0.0
7034,79.0,0,15,6.0,0.0
7035,62.0,15,60,7.0,0.0
7036,81.0,15,15,6.0,0.0
7037,79.0,10,15,6.0,0.0
7038,81.0,15,15,6.0,0.0
7039,79.0,0,15,6.0,0.0
7040,81.0,15,15,6.0,0.0
7041,59.0,0,60,7.0,0.0
7042,79.0,15,15,6.0,0.0
7043,81.0,15,15,6.0,0.0
7044,79.0,0,15,6.0,0.0
7045,78.0,30,30,6.0,0.0
7046,62.0,59,60,7.0,0.0
7047,66.0,0,30,2.0,0.0
7048,76.0,0,30,6.0,0.0
7049,64.0,0,30,2.0,0.0
7050,62.0,1,60,2.0,0.0
7051,59.0,60,60,7.0,0.0
7052,74.0,0,60,6.0,0.0
7053,62.0,60,60,7.0,0.0
7054,62.0,0,90,2.0,0.0
7055,74.0,29,90,6.0,0.0
7056,59.0,30,60,7.0,0.0
7057,62.0,21,60,7.0,0.0
7058,64.0,0,30,2.0,0.0
7059,76.0,0,30,6.0,0.0
7060,72.0,40,60,6.0,0.0
7061,54.0,0,90,8.0,0.0
7062,42.0,0,90,11.0,0.0
7063,57.0,0,60,7.0,0.0
7064,60.0,40,20,2.0,0.0
7065,54.0,20,90,10.0,0.0
7066,62.0,60,60,7.0,0.0
7067,72.0,29,90,6.0,0.0
7068,57.0,30,60,7.0,0.0
7069,60.0,0,90,2.0,0.0
7070,62.0,20,60,7.0,0.0
7071,62.0,0,30,2.0,0.0
7072,74.0,1,30,6.0,0.0
7073,55.0,40,60,7.0,0.0
7074,55.0,0,90,8.0,0.0
7075,59.0,39,20,2.0,0.0
7076,43.0,0,90,11.0,0.0
7077,71.0,1,60,6.0,0.0
7078,55.0,20,90,10.0,0.0
7079,62.0,60,60,7.0,0.0
7080,55.0,30,60,7.0,0.0
7081,59.0,29,90,2.0,0.0
7082,71.0,0,90,6.0,0.0
7083,67.0,0,60,7.0,0.0
7084,72.0,31,30,6.0,0.0
7085,60.0,0,30,2.0,0.0
7086,48.0,0,480,10.0,0.0
7087,66.0,60,60,7.0,0.0
7088,57.0,30,30,2.0,0.0
7089,69.0,0,60,6.0,0.0
7090,36.0,0,480,11.0,0.0
7091,60.0,20,480,8.0,0.0
7092,62.0,30,60,7.0,0.0
7093,69.0,60,60,6.0,0.0
7094,66.0,0,60,7.0,0.0
7095,57.0,30,30,2.0,0.0
7096,62.0,30,60,7.0,0.0
7097,66.0,0,60,7.0,0.0
7098,57.0,30,30,2.0,0.0
7099,69.0,60,60,6.0,0.0
7100,62.0,60,60,7.0,0.0
7101,59.0,0,90,2.0,0.0
7102,83.0,0,90,0.0,0.0
7103,71.0,29,90,6.0,0.0
7104,66.0,30,60,7.0,0.0
7105,69.0,0,60,7.0,0.0
7106,60.0,0,30,2.0,0.0
7107,84.0,1,30,0.0,0.0
7108,72.0,0,30,6.0,0.0
7109,86.0,40,20,0.0,0.0
7110,35.0,0,90,11.0,0.0
7111,74.0,0,60,6.0,0.0
7112,47.0,0,90,10.0,0.0
7113,62.0,0,20,2.0,0.0
7114,67.0,40,60,7.0,0.0
7115,59.0,20,90,8.0,0.0
7116,62.0,60,60,7.0,0.0
7117,62.0,0,90,2.0,0.0
7118,86.0,29,90,0.0,0.0
7119,74.0,0,90,6.0,0.0
7120,59.0,30,60,7.0,0.0
7121,67.0,20,60,7.0,0.0
7122,76.0,0,30,6.0,0.0
7123,88.0,0,30,0.0,0.0
7124,64.0,1,30,2.0,0.0
7125,51.0,0,90,10.0,0.0
7126,66.0,40,60,7.0,0.0
7127,63.0,20,90,8.0,0.0
7128,39.0,0,90,11.0,0.0
7129,84.0,0,20,0.0,0.0
7130,72.0,1,60,6.0,0.0
7131,60.0,39,20,2.0,0.0
7132,60.0,60,60,7.0,0.0
7133,57.0,30,60,7.0,0.0
7134,84.0,29,90,0.0,0.0
7135,60.0,0,90,2.0,0.0
7136,72.0,0,90,6.0,0.0
7137,66.0,0,60,7.0,0.0
7138,62.0,0,30,2.0,0.0
7139,74.0,31,30,6.0,0.0
7140,86.0,0,30,0.0,0.0
7141,64.0,0,360,8.0,0.0
7142,71.0,0,60,6.0,0.0
7143,59.0,0,30,2.0,0.0
7144,83.0,30,30,0.0,0.0
7145,67.0,60,60,7.0,0.0
7146,52.0,0,360,10.0,0.0
7147,40.0,0,360,11.0,0.0
7148,64.0,30,60,7.0,0.0
7149,83.0,30,30,0.0,0.0
7150,71.0,60,60,6.0,0.0
7151,59.0,0,60,7.0,0.0
7152,59.0,0,30,2.0,0.0
7153,64.0,60,60,7.0,0.0
7154,71.0,0,60,6.0,0.0
7155,67.0,0,60,7.0,0.0
7156,59.0,0,60,2.0,0.0
7157,83.0,60,60,0.0,0.0
7158,62.0,0,60,2.0,0.0
7159,59.0,0,60,7.0,0.0
7160,74.0,0,60,6.0,0.0
7161,86.0,60,60,0.0,0.0
7162,48.0,0,90,10.0,0.0
7163,60.0,0,90,8.0,0.0
7164,36.0,19,90,11.0,0.0
7165,60.0,0,60,2.0,0.0
7166,64.0,40,60,7.0,0.0
7167,84.0,0,60,0.0,0.0
7168,72.0,0,60,6.0,0.0
7169,57.0,0,60,2.0,0.0
7170,81.0,61,60,0.0,0.0
7171,69.0,0,60,6.0,0.0
7172,60.0,0,60,7.0,0.0
7173,59.0,40,60,7.0,0.0
7174,67.0,0,360,6.0,0.0
7175,62.0,0,360,8.0,0.0
7176,55.0,60,360,2.0,0.0
7177,79.0,0,360,0.0,0.0
7178,38.0,20,90,11.0,0.0
7179,50.0,0,90,10.0,0.0
7180,62.0,60,60,7.0,0.0
7181,38.0,0,90,11.0,0.0
7182,59.0,40,60,7.0,0.0
7183,50.0,20,90,10.0,0.0
7184,62.0,60,60,7.0,0.0
7185,50.0,0,90,10.0,0.0
7186,38.0,20,90,11.0,0.0
7187,59.0,40,60,7.0,0.0
7188,62.0,0,60,7.0,0.0
7189,60.0,0,60,7.0,0.0
7190,54.0,0,90,8.0,0.0
7191,59.0,0,60,2.0,0.0
7192,71.0,0,60,6.0,0.0
7193,38.0,0,90,11.0,0.0
7194,50.0,19,90,10.0,0.0
7195,83.0,40,60,0.0,0.0
7196,62.0,0,60,7.0,0.0
7197,69.0,60,60,6.0,0.0
7198,81.0,1,60,0.0,0.0
7199,57.0,0,60,2.0,0.0
7200,43.0,0,180,11.0,0.0
7201,79.0,20,90,0.0,0.0
7202,55.0,0,90,2.0,0.0
7203,67.0,0,90,6.0,0.0
7204,55.0,0,180,8.0,0.0
7205,55.0,59,180,10.0,0.0
7206,59.0,40,60,7.0,0.0
7207,62.0,60,60,7.0,0.0
7208,67.0,0,60,7.0,0.0
7209,42.0,0,60,11.0,0.0
7210,62.0,60,60,7.0,0.0
7211,54.0,1,60,10.0,0.0
7212,54.0,0,60,8.0,0.0
7213,59.0,0,180,10.0,0.0
7214,47.0,0,180,11.0,0.0
7215,59.0,60,60,7.0,0.0
7216,59.0,59,180,8.0,0.0
7217,62.0,60,60,7.0,0.0
7218,67.0,0,60,7.0,0.0
7219,57.0,0,60,10.0,0.0
7220,57.0,0,60,8.0,0.0
7221,62.0,61,60,7.0,0.0
7222,45.0,0,60,11.0,0.0
7223,50.0,0,240,11.0,0.0
7224,62.0,0,240,8.0,0.0
7225,81.0,60,360,6.0,0.0
7226,62.0,0,240,10.0,0.0
7227,66.0,60,60,7.0,0.0
7228,62.0,60,60,7.0,0.0
7229,57.0,60,60,7.0,0.0
7230,62.0,60,60,7.0,0.0
7231,48.0,0,210,11.0,0.0
7232,60.0,0,210,10.0,0.0
7233,66.0,60,60,7.0,0.0
7234,60.0,29,210,8.0,0.0
7235,62.0,0,60,7.0,0.0
7236,66.0,0,60,7.0,0.0
7237,83.0,30,60,6.0,0.0
7238,62.0,61,60,7.0,0.0
7239,84.0,0,60,6.0,0.0
7240,67.0,0,60,7.0,0.0
7241,59.0,0,90,8.0,0.0
7242,86.0,40,60,6.0,0.0
7243,59.0,0,90,10.0,0.0
7244,47.0,20,90,11.0,0.0
7245,62.0,60,60,7.0,0.0
7246,86.0,0,60,6.0,0.0
7247,59.0,60,60,7.0,0.0
7248,62.0,60,60,7.0,0.0
7249,64.0,20,90,8.0,0.0
7250,52.0,0,90,11.0,0.0
7251,86.0,0,120,6.0,0.0
7252,64.0,0,90,10.0,0.0
7253,67.0,40,60,7.0,0.0
7254,59.0,30,60,7.0,0.0
7255,84.0,30,30,6.0,0.0
7256,55.0,30,60,7.0,0.0
7257,83.0,0,30,6.0,0.0
7258,81.0,29,30,6.0,0.0
7259,59.0,61,60,7.0,0.0
7260,79.0,0,30,6.0,0.0
7261,48.0,0,90,11.0,0.0
7262,60.0,20,90,10.0,0.0
7263,67.0,40,60,7.0,0.0
7264,60.0,0,90,8.0,0.0
7265,81.0,0,60,6.0,0.0
7266,64.0,60,60,7.0,0.0
7267,81.0,60,60,6.0,0.0
7268,57.0,0,60,7.0,0.0
7269,64.0,60,60,7.0,0.0
7270,62.0,0,90,10.0,0.0
7271,62.0,0,90,8.0,0.0
7272,66.0,40,60,7.0,0.0
7273,50.0,20,90,11.0,0.0
7274,81.0,30,120,6.0,0.0
7275,62.0,0,60,7.0,0.0
7276,60.0,0,60,7.0,0.0
7277,79.0,30,30,6.0,0.0
7278,78.0,20,30,6.0,0.0
7279,62.0,0,60,7.0,0.0
7280,62.0,0,20,8.0,0.0
7281,50.0,10,20,10.0,0.0
7282,38.0,0,20,11.0,0.0
7283,76.0,29,30,6.0,0.0
7284,74.0,61,30,6.0,0.0
7285,59.0,40,60,7.0,0.0
7286,79.0,20,90,6.0,0.0
7287,67.0,0,180,8.0,0.0
7288,43.0,0,180,11.0,0.0
7289,55.0,0,180,10.0,0.0
7290,62.0,60,60,7.0,0.0
7291,67.0,59,60,7.0,0.0
7292,54.0,0,60,10.0,0.0
7293,62.0,60,60,7.0,0.0
7294,66.0,1,60,8.0,0.0
7295,42.0,0,60,11.0,0.0
7296,47.0,0,180,11.0,0.0
7297,59.0,0,180,10.0,0.0
7298,59.0,60,60,7.0,0.0
7299,71.0,59,180,8.0,0.0
7300,62.0,60,60,7.0,0.0
7301,67.0,0,60,7.0,0.0
7302,62.0,0,60,7.0,0.0
7303,57.0,0,60,10.0,0.0
7304,45.0,61,60,11.0,0.0
7305,69.0,0,60,8.0,0.0
7306,74.0,0,240,8.0,0.0
7307,62.0,0,240,10.0,0.0
7308,81.0,60,360,6.0,0.0
7309,66.0,60,60,7.0,0.0
7310,50.0,0,240,11.0,0.0
7311,62.0,60,60,7.0,0.0
7312,57.0,60,60,7.0,0.0
7313,62.0,60,60,7.0,0.0
7314,48.0,0,210,11.0,0.0
7315,72.0,29,210,8.0,0.0
7316,66.0,60,60,7.0,0.0
7317,60.0,0,210,10.0,0.0
7318,62.0,0,60,7.0,0.0
7319,83.0,0,60,6.0,0.0
7320,57.0,30,60,7.0,0.0
7321,84.0,0,60,6.0,0.0
7322,62.0,31,60,7.0,0.0
7323,71.0,120,30,8.0,0.0
7324,47.0,0,30,11.0,0.0
7325,59.0,0,30,10.0,0.0
7326,86.0,0,30,6.0,0.0
7327,67.0,0,30,7.0,0.0
7328,47.0,120,30,11.0,0.0
7329,77.0,0,30,7.0,0.0
7330,59.0,0,30,10.0,0.0
7331,86.0,0,30,6.0,0.0
7332,68.0,0,30,8.0,0.0
7333,86.0,30,120,6.0,0.0
7334,59.0,0,30,10.0,0.0
7335,47.0,90,30,11.0,0.0
7336,68.0,0,30,8.0,0.0
7337,77.0,0,30,7.0,0.0
7338,84.0,30,30,6.0,0.0
7339,83.0,30,30,6.0,0.0
7340,81.0,29,30,6.0,0.0
7341,80.0,31,30,6.0,0.0
7342,69.0,0,30,8.0,0.0
7343,60.0,0,30,10.0,0.0
7344,76.0,120,30,7.0,0.0
7345,48.0,0,30,11.0,0.0
7346,88.0,0,30,6.0,0.0
7347,88.0,0,30,6.0,0.0
7348,76.0,0,30,7.0,0.0
7349,69.0,0,30,8.0,0.0
7350,60.0,0,30,10.0,0.0
7351,48.0,120,30,11.0,0.0
7352,88.0,30,120,6.0,0.0
7353,48.0,0,30,11.0,0.0
7354,60.0,0,30,10.0,0.0
7355,76.0,0,30,7.0,0.0
7356,69.0,90,30,8.0,0.0
7357,86.0,30,30,6.0,0.0
7358,84.0,30,30,6.0,0.0
7359,83.0,29,30,6.0,0.0
7360,81.0,31,30,6.0,0.0
7361,79.0,0,30,7.0,0.0
7362,89.0,120,30,6.0,0.0
7363,50.0,0,30,11.0,0.0
7364,62.0,0,30,10.0,0.0
7365,71.0,0,30,8.0,0.0
7366,71.0,0,30,8.0,0.0
7367,62.0,0,30,10.0,0.0
7368,79.0,0,30,7.0,0.0
7369,89.0,0,30,6.0,0.0
7370,50.0,120,30,11.0,0.0
7371,62.0,0,30,10.0,0.0
7372,79.0,0,30,7.0,0.0
7373,89.0,0,30,6.0,0.0
7374,71.0,0,30,8.0,0.0
7375,50.0,749,30,11.0,0.0
7376,60.0,0,1650,2.0,0.0
7377,67.0,0,450,4.0,0.0
7378,60.0,60,60,10.0,0.0
7379,63.0,0,450,2.0,0.0
7380,87.0,0,450,0.0,0.0
7381,55.0,0,210,8.0,0.0
7382,60.0,0,450,4.0,0.0
7383,67.0,0,450,3.0,0.0
7384,48.0,29,210,5.0,0.0
7385,87.0,0,450,6.0,0.0
7386,75.0,0,930,1.0,0.0
7387,55.0,0,210,7.0,0.0
7388,79.0,0,1170,1.0,0.0
7389,48.0,0,60,11.0,0.0
7390,60.0,29,450,3.0,0.0
7391,48.0,0,60,11.0,0.0
7392,60.0,60,60,10.0,0.0
7393,48.0,0,60,11.0,0.0
7394,60.0,31,60,10.0,0.0
7395,60.0,60,60,10.0,0.0
7396,48.0,0,60,11.0,0.0
7397,55.0,0,210,8.0,0.0
7398,48.0,19,150,5.0,0.0
7399,55.0,0,210,7.0,0.0
7400,48.0,0,60,11.0,0.0
7401,60.0,60,60,10.0,0.0
7402,60.0,0,60,10.0,0.0
7403,48.0,41,60,11.0,0.0
7404,60.0,31,60,10.0,0.0
7405,48.0,0,60,11.0,0.0
7406,60.0,15,60,10.0,0.0
7407,48.0,0,60,11.0,0.0
7408,48.0,0,60,5.0,0.0
7409,60.0,0,60,4.0,0.0
7410,67.0,40,60,4.0,0.0
7411,48.0,19,90,5.0,0.0
7412,86.0,44,15,6.0,0.0
7413,67.0,0,60,3.0,0.0
7414,55.0,10,210,7.0,0.0
7415,55.0,0,210,8.0,0.0
7416,60.0,0,60,10.0,0.0
7417,86.0,1,15,0.0,0.0
7418,48.0,1,60,11.0,0.0
7419,60.0,0,60,3.0,0.0
7420,62.0,0,15,2.0,0.0
7421,87.0,19,210,6.0,0.0
7422,87.0,0,210,0.0,0.0
7423,63.0,0,210,2.0,0.0
7424,48.0,0,60,11.0,0.0
7425,60.0,60,60,10.0,0.0
7426,48.0,0,60,11.0,0.0
7427,60.0,31,60,10.0,0.0
7428,48.0,0,90,5.0,0.0
7429,60.0,15,60,10.0,0.0
7430,48.0,0,60,11.0,0.0
7431,55.0,0,210,8.0,0.0
7432,86.0,44,15,6.0,0.0
7433,60.0,40,60,3.0,0.0
7434,60.0,1,60,10.0,0.0
7435,86.0,1,15,0.0,0.0
7436,62.0,0,15,2.0,0.0
7437,67.0,0,60,4.0,0.0
7438,60.0,0,60,4.0,0.0
7439,48.0,0,60,11.0,0.0
7440,48.0,19,90,5.0,0.0
7441,55.0,10,210,7.0,0.0
7442,67.0,0,60,3.0,0.0
7443,87.0,0,210,6.0,0.0
7444,87.0,19,210,0.0,0.0
7445,63.0,0,210,2.0,0.0
7446,60.0,60,60,10.0,0.0
7447,48.0,0,60,11.0,0.0
7448,48.0,0,90,5.0,0.0
7449,48.0,0,60,11.0,0.0
7450,60.0,31,60,10.0,0.0
7451,60.0,15,60,10.0,0.0
7452,48.0,0,60,11.0,0.0
7453,67.0,0,60,3.0,0.0
7454,50.0,15,15,5.0,0.0
7455,55.0,0,210,7.0,0.0
7456,64.0,0,450,2.0,0.0
7457,60.0,0,60,3.0,0.0
7458,67.0,0,60,4.0,0.0
7459,76.0,14,210,1.0,0.0
7460,88.0,14,450,0.0,0.0
7461,55.0,0,210,8.0,0.0
7462,88.0,0,450,6.0,0.0
7463,48.0,1,60,11.0,0.0
7464,60.0,0,60,10.0,0.0
7465,60.0,14,60,4.0,0.0
7466,48.0,15,15,5.0,0.0
7467,50.0,15,15,5.0,0.0
7468,48.0,0,15,5.0,0.0
7469,48.0,15,60,10.0,0.0
7470,36.0,0,60,11.0,0.0
7471,50.0,15,15,5.0,0.0
7472,48.0,15,15,5.0,0.0
7473,50.0,15,15,5.0,0.0
7474,48.0,0,15,5.0,0.0
7475,50.0,15,15,5.0,0.0
7476,48.0,15,60,10.0,0.0
7477,36.0,0,60,11.0,0.0
7478,48.0,15,15,5.0,0.0
7479,50.0,15,15,5.0,0.0
7480,48.0,0,15,5.0,0.0
7481,48.0,15,60,10.0,0.0
7482,50.0,15,15,5.0,0.0
7483,36.0,0,60,11.0,0.0
7484,48.0,1,15,5.0,0.0
7485,50.0,15,15,5.0,0.0
7486,48.0,0,15,5.0,0.0
7487,80.0,0,210,1.0,0.0
7488,60.0,4,150,4.0,0.0
7489,72.0,0,150,4.0,0.0
7490,48.0,15,60,10.0,0.0
7491,56.0,0,210,8.0,0.0
7492,56.0,0,210,7.0,0.0
7493,36.0,0,60,11.0,0.0
7494,50.0,15,15,5.0,0.0
7495,72.0,0,150,3.0,0.0
7496,60.0,0,150,3.0,0.0
7497,48.0,15,15,5.0,0.0
7498,50.0,15,15,5.0,0.0
7499,48.0,0,15,5.0,0.0
7500,36.0,0,60,11.0,0.0
7501,50.0,15,15,5.0,0.0
7502,48.0,0,60,10.0,0.0
7503,48.0,15,15,5.0,0.0
7504,50.0,15,15,5.0,0.0
7505,48.0,15,15,5.0,0.0
7506,36.0,15,60,11.0,0.0
7507,50.0,15,15,5.0,0.0
7508,48.0,0,60,10.0,0.0
7509,48.0,11,15,5.0,0.0
7510,50.0,15,15,5.0,0.0
7511,48.0,0,15,5.0,0.0
7512,48.0,0,60,10.0,0.0
7513,60.0,0,60,4.0,0.0
7514,72.0,0,60,4.0,0.0
7515,36.0,0,60,11.0,0.0
7516,50.0,15,15,5.0,0.0
7517,60.0,0,60,3.0,0.0
7518,72.0,0,60,3.0,0.0
7519,48.0,1,15,5.0,0.0
7520,50.0,15,15,5.0,0.0
7521,48.0,15,15,5.0,0.0
7522,65.0,0,450,2.0,0.0
7523,89.0,10,450,0.0,0.0
7524,57.0,0,210,8.0,0.0
7525,48.0,0,60,10.0,0.0
7526,50.0,15,15,5.0,0.0
7527,57.0,10,210,7.0,0.0
7528,89.0,0,210,6.0,0.0
7529,36.0,0,60,11.0,0.0
7530,72.0,0,90,4.0,0.0
7531,60.0,0,90,4.0,0.0
7532,60.0,0,90,3.0,0.0
7533,72.0,4,90,3.0,0.0
7534,81.0,14,240,1.0,0.0
7535,77.0,0,450,1.0,0.0
7536,48.0,15,15,5.0,0.0
7537,50.0,15,15,5.0,0.0
7538,48.0,15,15,5.0,0.0
7539,48.0,0,60,10.0,0.0
7540,36.0,0,60,11.0,0.0
7541,50.0,15,15,5.0,0.0
7542,48.0,11,15,5.0,0.0
7543,50.0,15,15,5.0,0.0
7544,48.0,15,15,5.0,0.0
7545,60.0,0,90,4.0,0.0
7546,50.0,15,15,5.0,0.0
7547,72.0,0,90,3.0,0.0
7548,48.0,0,60,10.0,0.0
7549,36.0,15,60,11.0,0.0
7550,60.0,4,90,3.0,0.0
7551,72.0,0,90,4.0,0.0
7552,48.0,15,15,5.0,0.0
7553,50.0,15,15,5.0,0.0
7554,48.0,0,15,5.0,0.0
7555,50.0,15,15,5.0,0.0
7556,36.0,0,60,11.0,0.0
7557,48.0,1,60,10.0,0.0
7558,48.0,1,15,5.0,0.0
7559,50.0,15,15,5.0,0.0
7560,48.0,0,15,5.0,0.0
7561,59.0,0,210,8.0,0.0
7562,50.0,15,15,5.0,0.0
7563,60.0,4,90,3.0,0.0
7564,65.0,0,210,6.0,0.0
7565,83.0,0,210,1.0,0.0
7566,72.0,0,90,4.0,0.0
7567,59.0,0,210,7.0,0.0
7568,48.0,15,60,10.0,0.0
7569,36.0,0,60,11.0,0.0
7570,56.0,0,210,6.0,0.0
7571,56.0,0,210,2.0,0.0
7572,60.0,0,90,4.0,0.0
7573,72.0,0,90,3.0,0.0
7574,48.0,15,15,5.0,0.0
7575,50.0,15,15,5.0,0.0
7576,48.0,0,15,5.0,0.0
7577,36.0,15,60,11.0,0.0
7578,48.0,0,60,10.0,0.0
7579,50.0,15,15,5.0,0.0
7580,48.0,11,15,5.0,0.0
7581,50.0,15,15,5.0,0.0
7582,48.0,0,15,5.0,0.0
7583,48.0,15,60,10.0,0.0
7584,72.0,4,90,3.0,0.0
7585,60.0,0,90,3.0,0.0
7586,72.0,0,90,4.0,0.0
7587,60.0,0,90,4.0,0.0
7588,50.0,15,15,5.0,0.0
7589,36.0,0,60,11.0,0.0
7590,48.0,15,15,5.0,0.0
7591,50.0,15,15,5.0,0.0
7592,48.0,0,15,5.0,0.0
7593,36.0,0,60,11.0,0.0
7594,50.0,15,15,5.0,0.0
7595,48.0,60,60,10.0,0.0
7596,48.0,1,15,5.0,0.0
7597,50.0,15,15,5.0,0.0
7598,48.0,0,15,5.0,0.0
7599,64.0,0,90,6.0,0.0
7600,72.0,0,210,4.0,0.0
7601,60.0,0,210,4.0,0.0
7602,60.0,10,210,3.0,0.0
7603,88.0,0,930,0.0,0.0
7604,48.0,19,90,5.0,0.0
7605,55.0,0,90,6.0,0.0
7606,48.0,41,60,10.0,0.0
7607,55.0,29,930,2.0,0.0
7608,72.0,0,210,3.0,0.0
7609,60.0,0,90,7.0,0.0
7610,60.0,0,60,8.0,0.0
7611,36.0,0,60,11.0,0.0
7612,64.0,0,930,2.0,0.0
7613,76.0,0,930,1.0,0.0
7614,84.0,0,930,1.0,0.0
7615,36.0,0,60,11.0,0.0
7616,60.0,60,60,8.0,0.0
7617,48.0,0,60,10.0,0.0
7618,48.0,31,60,10.0,0.0
7619,64.0,0,90,6.0,0.0
7620,48.0,0,90,5.0,0.0
7621,36.0,0,60,11.0,0.0
7622,60.0,0,60,8.0,0.0
7623,55.0,19,90,7.0,0.0
7624,36.0,0,60,11.0,0.0
7625,48.0,0,60,10.0,0.0
7626,60.0,60,60,8.0,0.0
7627,60.0,0,60,8.0,0.0
7628,60.0,19,90,7.0,0.0
7629,67.0,0,90,6.0,0.0
7630,48.0,0,60,10.0,0.0
7631,48.0,0,90,5.0,0.0
7632,79.0,0,210,4.0,0.0
7633,67.0,0,210,4.0,0.0
7634,36.0,41,60,11.0,0.0
7635,67.0,0,210,3.0,0.0
7636,79.0,10,210,3.0,0.0
7637,36.0,60,60,11.0,0.0
7638,60.0,0,60,8.0,0.0
7639,48.0,0,60,10.0,0.0
7640,48.0,31,60,10.0,0.0
7641,60.0,0,60,8.0,0.0
7642,72.0,0,90,6.0,0.0
7643,36.0,0,60,11.0,0.0
7644,48.0,19,90,5.0,0.0
7645,64.0,0,90,7.0,0.0
7646,60.0,0,60,8.0,0.0
7647,48.0,60,60,10.0,0.0
7648,36.0,0,60,11.0,0.0
7649,48.0,41,60,10.0,0.0
7650,76.0,0,210,3.0,0.0
7651,64.0,0,210,3.0,0.0
7652,76.0,0,90,6.0,0.0
7653,67.0,19,90,7.0,0.0
7654,36.0,0,60,11.0,0.0
7655,60.0,0,60,8.0,0.0
7656,48.0,0,90,5.0,0.0
7657,64.0,0,210,4.0,0.0
7658,76.0,10,210,4.0,0.0
7659,48.0,0,60,10.0,0.0
7660,36.0,60,60,11.0,0.0
7661,60.0,0,60,8.0,0.0
7662,48.0,0,60,10.0,0.0
7663,72.0,0,90,7.0,0.0
7664,79.0,19,90,6.0,0.0
7665,48.0,0,90,5.0,0.0
7666,36.0,31,60,11.0,0.0
7667,60.0,0,60,8.0,0.0
7668,48.0,60,60,10.0,0.0
7669,60.0,0,60,8.0,0.0
7670,36.0,0,60,11.0,0.0
7671,48.0,0,60,10.0,0.0
7672,36.0,1,60,11.0,0.0
7673,72.0,0,210,3.0,0.0
7674,48.0,19,90,5.0,0.0
7675,60.0,0,210,3.0,0.0
7676,60.0,0,210,4.0,0.0
7677,60.0,0,60,8.0,0.0
7678,76.0,20,60,7.0,0.0
7679,84.0,20,90,6.0,0.0
7680,72.0,0,210,4.0,0.0
7681,48.0,0,60,10.0,0.0
7682,36.0,60,60,11.0,0.0
7683,60.0,0,60,8.0,0.0
7684,36.0,1,60,11.0,0.0
7685,48.0,0,60,10.0,0.0
7686,79.0,30,60,7.0,0.0
7687,88.0,0,60,6.0,0.0
7688,60.0,0,60,8.0,0.0
7689,48.0,0,60,10.0,0.0
7690,60.0,60,60,8.0,0.0
7691,36.0,0,60,11.0,0.0
7692,38.0,0,60,11.0,0.0
7693,62.0,0,90,2.0,0.0
7694,59.0,0,90,2.0,0.0
7695,67.0,10,450,3.0,0.0
7696,86.0,0,60,6.0,0.0
7697,74.0,0,90,1.0,0.0
7698,74.0,0,60,6.0,0.0
7699,50.0,0,60,10.0,0.0
7700,62.0,0,60,8.0,0.0
7701,62.0,41,60,6.0,0.0
7702,86.0,19,90,0.0,0.0
7703,83.0,0,90,1.0,0.0
7704,74.0,0,450,3.0,0.0
7705,67.0,0,450,4.0,0.0
7706,74.0,0,450,4.0,0.0
7707,71.0,0,60,7.0,0.0
7708,79.0,0,60,7.0,0.0
7709,71.0,19,90,7.0,0.0
7710,50.0,0,60,10.0,0.0
7711,79.0,0,90,7.0,0.0
7712,62.0,0,60,8.0,0.0
7713,38.0,41,60,11.0,0.0
7714,62.0,0,60,8.0,0.0
7715,50.0,41,60,10.0,0.0
7716,62.0,0,90,1.0,0.0
7717,38.0,19,90,2.0,0.0
7718,50.0,0,90,2.0,0.0
7719,74.0,0,90,1.0,0.0
7720,74.0,0,90,0.0,0.0
7721,38.0,0,60,11.0,0.0
7722,86.0,10,210,6.0,0.0
7723,79.0,19,90,7.0,0.0
7724,71.0,0,90,7.0,0.0
7725,38.0,41,60,11.0,0.0
7726,62.0,0,60,8.0,0.0
7727,50.0,0,60,10.0,0.0
7728,43.0,0,90,2.0,0.0
7729,79.0,0,90,0.0,0.0
7730,62.0,31,60,8.0,0.0
7731,55.0,0,90,2.0,0.0
7732,79.0,19,90,1.0,0.0
7733,50.0,0,60,10.0,0.0
7734,67.0,0,90,1.0,0.0
7735,38.0,0,60,11.0,0.0
7736,38.0,0,60,11.0,0.0
7737,62.0,15,60,8.0,0.0
7738,50.0,0,60,10.0,0.0
7739,79.0,0,90,7.0,0.0
7740,71.0,19,90,7.0,0.0
7741,62.0,0,60,8.0,0.0
7742,83.0,0,90,1.0,0.0
7743,50.0,30,60,10.0,0.0
7744,38.0,0,60,11.0,0.0
7745,84.0,26,15,6.0,0.0
7746,71.0,19,90,1.0,0.0
7747,59.0,0,90,2.0,0.0
7748,47.0,0,90,2.0,0.0
7749,83.0,0,90,0.0,0.0
7750,83.0,0,30,6.0,0.0
7751,38.0,0,60,11.0,0.0
7752,81.0,1,30,6.0,0.0
7753,50.0,0,60,10.0,0.0
7754,62.0,1,60,8.0,0.0
7755,79.0,0,30,6.0,0.0
7756,79.0,0,15,7.0,0.0
7757,71.0,59,15,7.0,0.0
7758,86.0,0,330,1.0,0.0
7759,74.0,0,330,1.0,0.0
7760,86.0,0,90,6.0,0.0
7761,50.0,0,330,2.0,0.0
7762,62.0,0,330,2.0,0.0
7763,38.0,0,60,11.0,0.0
7764,86.0,10,330,0.0,0.0
7765,74.0,0,90,3.0,0.0
7766,50.0,0,60,10.0,0.0
7767,62.0,0,60,8.0,0.0
7768,67.0,0,90,4.0,0.0
7769,67.0,19,90,3.0,0.0
7770,74.0,0,90,4.0,0.0
7771,50.0,15,60,10.0,0.0
7772,62.0,0,60,8.0,0.0
7773,38.0,0,60,11.0,0.0
7774,79.0,19,90,7.0,0.0
7775,71.0,0,90,7.0,0.0
7776,62.0,0,60,8.0,0.0
7777,50.0,0,60,10.0,0.0
7778,38.0,0,60,11.0,0.0
7779,84.0,26,15,6.0,0.0
7780,83.0,30,30,6.0,0.0
7781,38.0,1,60,11.0,0.0
7782,62.0,0,60,8.0,0.0
7783,81.0,30,30,6.0,0.0
7784,50.0,0,60,10.0,0.0
7785,79.0,0,30,6.0,0.0
7786,50.0,0,60,10.0,0.0
7787,83.0,10,90,6.0,0.0
7788,79.0,59,15,7.0,0.0
7789,71.0,0,15,7.0,0.0
7790,62.0,0,60,8.0,0.0
7791,74.0,0,90,3.0,0.0
7792,74.0,19,90,4.0,0.0
7793,38.0,0,60,11.0,0.0
7794,38.0,0,60,11.0,0.0
7795,62.0,0,60,8.0,0.0
7796,50.0,60,60,10.0,0.0
7797,81.0,20,90,6.0,0.0
7798,90.0,19,90,0.0,0.0
7799,69.0,21,60,7.0,0.0
7800,62.0,0,60,7.0,0.0
7801,50.0,0,60,10.0,0.0
7802,50.0,0,90,2.0,0.0
7803,38.0,0,60,11.0,0.0
7804,62.0,0,60,8.0,0.0
7805,78.0,0,60,7.0,0.0
7806,78.0,0,90,1.0,0.0
7807,50.0,0,60,10.0,0.0
7808,38.0,0,60,11.0,0.0
7809,62.0,60,60,8.0,0.0
7810,79.0,0,180,6.0,0.0
7811,59.0,0,180,7.0,0.0
7812,67.0,0,210,3.0,0.0
7813,59.0,19,150,10.0,0.0
7814,67.0,0,60,8.0,0.0
7815,91.0,0,1410,0.0,0.0
7816,79.0,0,1410,1.0,0.0
7817,59.0,30,180,2.0,0.0
7818,43.0,19,90,5.0,0.0
7819,67.0,29,210,4.0,0.0
7820,55.0,1,60,8.0,0.0
7821,55.0,1,60,8.0,0.0
7822,67.0,0,60,8.0,0.0
7823,55.0,0,15,10.0,0.0
7824,43.0,40,15,11.0,0.0
7825,55.0,1,60,8.0,0.0
7826,55.0,0,15,10.0,0.0
7827,67.0,0,60,8.0,0.0
7828,43.0,40,15,11.0,0.0
7829,55.0,0,60,8.0,0.0
7830,78.0,0,60,6.0,0.0
7831,57.0,60,60,7.0,0.0
7832,55.0,0,15,10.0,0.0
7833,67.0,0,60,8.0,0.0
7834,57.0,0,60,10.0,0.0
7835,57.0,0,60,2.0,0.0
7836,43.0,0,60,11.0,0.0
7837,60.0,10,90,2.0,0.0
7838,55.0,1,60,8.0,0.0
7839,67.0,0,60,8.0,0.0
7840,60.0,0,90,7.0,0.0
7841,55.0,0,60,10.0,0.0
7842,60.0,1,90,10.0,0.0
7843,67.0,0,90,3.0,0.0
7844,81.0,0,90,6.0,0.0
7845,67.0,19,90,4.0,0.0
7846,55.0,0,60,8.0,0.0
7847,55.0,29,60,10.0,0.0
7848,67.0,0,60,8.0,0.0
7849,43.0,29,15,11.0,0.0
7850,59.0,0,30,7.0,0.0
7851,79.0,0,30,6.0,0.0
7852,59.0,1,30,2.0,0.0
7853,67.0,0,90,4.0,0.0
7854,64.0,0,90,2.0,0.0
7855,64.0,0,90,7.0,0.0
7856,67.0,1,60,8.0,0.0
7857,55.0,0,60,8.0,0.0
7858,84.0,10,90,6.0,0.0
7859,67.0,19,90,3.0,0.0
7860,59.0,30,30,10.0,0.0
7861,64.0,1,90,10.0,0.0
7862,43.0,30,15,11.0,0.0
7863,55.0,0,60,8.0,0.0
7864,67.0,0,60,8.0,0.0
7865,62.0,0,30,7.0,0.0
7866,62.0,0,30,2.0,0.0
7867,55.0,0,15,10.0,0.0
7868,83.0,0,30,6.0,0.0
7869,62.0,0,30,10.0,0.0
7870,81.0,0,180,6.0,0.0
7871,67.0,0,210,3.0,0.0
7872,60.0,0,180,2.0,0.0
7873,43.0,19,90,5.0,0.0
7874,60.0,19,150,10.0,0.0
7875,55.0,30,30,10.0,0.0
7876,55.0,0,60,8.0,0.0
7877,67.0,1,60,8.0,0.0
7878,67.0,29,210,4.0,0.0
7879,60.0,30,180,7.0,0.0
7880,43.0,40,15,11.0,0.0
7881,55.0,1,60,8.0,0.0
7882,67.0,0,60,8.0,0.0
7883,55.0,1,60,8.0,0.0
7884,55.0,0,15,10.0,0.0
7885,67.0,0,60,8.0,0.0
7886,59.0,0,60,2.0,0.0
7887,59.0,0,60,7.0,0.0
7888,43.0,0,15,11.0,0.0
7889,55.0,60,60,10.0,0.0
7890,59.0,0,60,10.0,0.0
7891,67.0,0,60,8.0,0.0
7892,55.0,0,60,8.0,0.0
7893,80.0,0,60,6.0,0.0
7894,83.0,0,90,6.0,0.0
7895,55.0,1,60,8.0,0.0
7896,67.0,0,60,8.0,0.0
7897,62.0,10,90,7.0,0.0
7898,67.0,19,90,3.0,0.0
7899,62.0,0,90,2.0,0.0
7900,62.0,1,90,10.0,0.0
7901,67.0,0,90,4.0,0.0
7902,55.0,0,60,8.0,0.0
7903,67.0,0,60,8.0,0.0
7904,55.0,0,15,10.0,0.0
7905,43.0,29,15,11.0,0.0
7906,60.0,1,30,2.0,0.0
7907,81.0,29,30,6.0,0.0
7908,60.0,0,30,7.0,0.0
7909,65.0,0,90,2.0,0.0
7910,65.0,10,90,7.0,0.0
7911,86.0,0,90,6.0,0.0
7912,55.0,0,60,8.0,0.0
7913,67.0,1,60,8.0,0.0
7914,67.0,0,90,4.0,0.0
7915,67.0,19,90,3.0,0.0
7916,60.0,30,30,10.0,0.0
7917,65.0,0,90,10.0,0.0
7918,55.0,0,60,10.0,0.0
7919,43.0,30,15,11.0,0.0
7920,55.0,1,60,8.0,0.0
7921,67.0,0,60,8.0,0.0
7922,84.0,0,30,6.0,0.0
7923,64.0,0,30,2.0,0.0
7924,64.0,0,30,7.0,0.0
7925,64.0,0,30,10.0,0.0
7926,67.0,0,210,4.0,0.0
7927,55.0,0,60,8.0,0.0
7928,62.0,0,180,2.0,0.0
7929,67.0,1,60,8.0,0.0
7930,83.0,0,180,6.0,0.0
7931,55.0,30,30,10.0,0.0
7932,62.0,19,150,10.0,0.0
7933,43.0,19,90,5.0,0.0
7934,62.0,30,180,7.0,0.0
7935,67.0,29,210,3.0,0.0
7936,43.0,0,15,11.0,0.0
7937,67.0,0,60,8.0,0.0
7938,55.0,1,60,8.0,0.0
7939,55.0,0,15,10.0,0.0
7940,43.0,40,15,11.0,0.0
7941,55.0,1,60,8.0,0.0
7942,67.0,0,60,8.0,0.0
7943,67.0,0,60,8.0,0.0
7944,55.0,0,60,8.0,0.0
7945,43.0,60,60,11.0,0.0
7946,61.0,0,60,7.0,0.0
7947,61.0,0,60,10.0,0.0
7948,55.0,0,60,10.0,0.0
7949,61.0,0,60,2.0,0.0
7950,82.0,0,60,6.0,0.0
7951,67.0,0,60,8.0,0.0
7952,55.0,1,60,8.0,0.0
7953,84.0,0,90,6.0,0.0
7954,64.0,1,90,10.0,0.0
7955,64.0,0,90,7.0,0.0
7956,67.0,0,90,3.0,0.0
7957,64.0,10,90,2.0,0.0
7958,67.0,19,90,4.0,0.0
7959,55.0,1,60,8.0,0.0
7960,43.0,0,15,11.0,0.0
7961,67.0,0,60,8.0,0.0
7962,55.0,29,15,10.0,0.0
7963,62.0,0,30,2.0,0.0
7964,62.0,0,30,7.0,0.0
7965,83.0,0,30,6.0,0.0
7966,43.0,0,15,11.0,0.0
7967,67.0,19,90,3.0,0.0
7968,55.0,1,60,8.0,0.0
7969,88.0,10,90,6.0,0.0
7970,67.0,0,90,7.0,0.0
7971,62.0,30,30,10.0,0.0
7972,67.0,0,90,2.0,0.0
7973,67.0,0,90,4.0,0.0
7974,67.0,0,60,8.0,0.0
7975,67.0,0,90,10.0,0.0
7976,55.0,0,60,8.0,0.0
7977,67.0,1,60,8.0,0.0
7978,43.0,29,60,11.0,0.0
7979,55.0,0,15,10.0,0.0
7980,65.0,0,30,10.0,0.0
7981,65.0,0,30,7.0,0.0
7982,86.0,0,30,6.0,0.0
7983,65.0,0,30,2.0,0.0
7984,84.0,0,30,6.0,0.0
7985,91.0,0,210,0.0,0.0
7986,55.0,0,60,8.0,0.0
7987,43.0,0,60,11.0,0.0
7988,67.0,0,90,3.0,0.0
7989,43.0,0,90,5.0,0.0
7990,64.0,0,150,7.0,0.0
7991,79.0,0,210,1.0,0.0
7992,64.0,19,150,10.0,0.0
7993,55.0,30,30,10.0,0.0
7994,67.0,19,90,4.0,0.0
7995,64.0,29,210,2.0,0.0
7996,67.0,1,60,8.0,0.0
7997,86.0,30,30,6.0,0.0
7998,43.0,0,60,11.0,0.0
7999,88.0,10,30,6.0,0.0
8000,55.0,41,60,10.0,0.0
8001,55.0,0,60,8.0,0.0
8002,67.0,0,60,8.0,0.0
8003,86.0,0,30,6.0,0.0
8004,84.0,0,60,6.0,0.0
8005,55.0,21,60,10.0,0.0
8006,43.0,0,60,11.0,0.0
8007,67.0,0,60,8.0,0.0
8008,55.0,0,60,8.0,0.0
8009,64.0,0,60,7.0,0.0
8010,84.0,10,20,6.0,0.0
8011,64.0,0,60,10.0,0.0
8012,55.0,0,60,8.0,0.0
8013,55.0,0,60,10.0,0.0
8014,67.0,0,60,8.0,0.0
8015,43.0,30,60,11.0,0.0
8016,83.0,30,30,6.0,0.0
8017,79.0,29,210,1.0,0.0
8018,62.0,19,150,7.0,0.0
8019,62.0,0,150,10.0,0.0
8020,55.0,0,60,10.0,0.0
8021,91.0,0,210,0.0,0.0
8022,43.0,1,60,11.0,0.0
8023,67.0,19,90,4.0,0.0
8024,55.0,0,60,8.0,0.0
8025,67.0,0,60,8.0,0.0
8026,62.0,0,210,2.0,0.0
8027,43.0,0,90,5.0,0.0
8028,67.0,0,90,3.0,0.0
8029,84.0,30,30,6.0,0.0
8030,55.0,41,60,8.0,0.0
8031,55.0,0,60,10.0,0.0
8032,67.0,0,60,8.0,0.0
8033,43.0,0,60,11.0,0.0
8034,86.0,10,30,6.0,0.0
8035,84.0,0,30,6.0,0.0
8036,43.0,0,60,11.0,0.0
8037,55.0,21,60,8.0,0.0
8038,67.0,0,60,8.0,0.0
8039,83.0,0,60,6.0,0.0
8040,55.0,0,60,10.0,0.0
8041,83.0,10,20,6.0,0.0
8042,55.0,0,60,8.0,0.0
8043,62.0,0,60,7.0,0.0
8044,55.0,60,60,10.0,0.0
8045,62.0,0,60,10.0,0.0
8046,67.0,0,60,8.0,0.0
8047,43.0,0,60,11.0,0.0
8048,76.0,29,210,3.0,0.0
8049,60.0,0,60,2.0,0.0
8050,81.0,30,180,6.0,0.0
8051,64.0,19,90,7.0,0.0
8052,72.0,0,90,7.0,0.0
8053,36.0,0,60,11.0,0.0
8054,72.0,0,210,3.0,0.0
8055,60.0,41,60,8.0,0.0
8056,48.0,0,60,10.0,0.0
8057,84.0,0,120,1.0,0.0
8058,60.0,0,60,10.0,0.0
8059,72.0,0,210,4.0,0.0
8060,76.0,0,210,4.0,0.0
8061,88.0,0,120,0.0,0.0
8062,60.0,0,60,8.0,0.0
8063,36.0,0,60,11.0,0.0
8064,48.0,1,60,10.0,0.0
8065,60.0,0,60,10.0,0.0
8066,60.0,0,60,2.0,0.0
8067,60.0,0,60,10.0,0.0
8068,81.0,59,15,1.0,0.0
8069,48.0,0,60,10.0,0.0
8070,76.0,59,120,1.0,0.0
8071,60.0,0,60,8.0,0.0
8072,60.0,0,60,2.0,0.0
8073,36.0,1,60,11.0,0.0
8074,84.0,0,240,0.0,0.0
8075,48.0,0,60,10.0,0.0
8076,83.0,0,30,6.0,0.0
8077,60.0,1,60,10.0,0.0
8078,60.0,0,60,2.0,0.0
8079,60.0,0,60,8.0,0.0
8080,36.0,0,60,11.0,0.0
8081,84.0,0,30,6.0,0.0
8082,50.0,0,60,10.0,0.0
8083,62.0,31,60,10.0,0.0
8084,66.0,19,90,7.0,0.0
8085,62.0,0,60,2.0,0.0
8086,38.0,0,60,11.0,0.0
8087,74.0,0,210,3.0,0.0
8088,62.0,0,60,8.0,0.0
8089,74.0,0,210,4.0,0.0
8090,57.0,0,90,7.0,0.0
8091,74.0,30,180,6.0,0.0
8092,50.0,0,60,10.0,0.0
8093,62.0,0,60,8.0,0.0
8094,62.0,0,60,10.0,0.0
8095,62.0,0,60,2.0,0.0
8096,38.0,1,60,11.0,0.0
8097,62.0,0,60,8.0,0.0
8098,38.0,1,60,11.0,0.0
8099,78.0,59,15,1.0,0.0
8100,72.0,19,90,1.0,0.0
8101,62.0,0,60,2.0,0.0
8102,62.0,0,60,10.0,0.0
8103,50.0,0,60,10.0,0.0
8104,81.0,0,90,0.0,0.0
8105,62.0,0,60,10.0,0.0
8106,50.0,0,60,10.0,0.0
8107,62.0,0,60,8.0,0.0
8108,76.0,10,30,6.0,0.0
8109,62.0,60,60,2.0,0.0
8110,38.0,0,60,11.0,0.0
8111,78.0,0,30,6.0,0.0
8112,55.0,0,180,8.0,0.0
8113,43.0,60,90,5.0,0.0
8114,67.0,0,210,4.0,0.0
8115,83.0,0,180,0.0,0.0
8116,59.0,0,180,7.0,0.0
8117,55.0,0,180,10.0,0.0
8118,67.0,29,210,3.0,0.0
8119,71.0,30,180,1.0,0.0
8120,55.0,0,180,2.0,0.0
8121,79.0,41,60,6.0,0.0
8122,43.0,0,180,11.0,0.0
8123,79.0,20,90,6.0,0.0
8124,54.0,0,60,10.0,0.0
8125,42.0,0,60,11.0,0.0
8126,69.0,41,60,1.0,0.0
8127,79.0,50,90,6.0,0.0
8128,54.0,0,60,8.0,0.0
8129,54.0,0,60,2.0,0.0
8130,57.0,0,60,7.0,0.0
8131,81.0,0,60,0.0,0.0
8132,45.0,0,90,11.0,0.0
8133,67.0,19,90,4.0,0.0
8134,72.0,0,90,1.0,0.0
8135,60.0,0,90,7.0,0.0
8136,57.0,10,90,10.0,0.0
8137,84.0,0,90,0.0,0.0
8138,57.0,0,90,8.0,0.0
8139,57.0,0,90,2.0,0.0
8140,67.0,0,90,3.0,0.0
8141,79.0,50,90,6.0,0.0
8142,55.0,0,30,10.0,0.0
8143,83.0,0,30,0.0,0.0
8144,55.0,41,30,8.0,0.0
8145,71.0,0,30,1.0,0.0
8146,59.0,0,30,7.0,0.0
8147,55.0,0,30,2.0,0.0
8148,43.0,0,30,11.0,0.0
8149,64.0,10,90,7.0,0.0
8150,76.0,0,90,1.0,0.0
8151,60.0,0,90,2.0,0.0
8152,60.0,0,90,10.0,0.0
8153,67.0,0,90,4.0,0.0
8154,60.0,0,90,8.0,0.0
8155,88.0,0,90,0.0,0.0
8156,48.0,0,90,11.0,0.0
8157,67.0,19,90,3.0,0.0
8158,47.0,0,30,11.0,0.0
8159,62.0,0,30,7.0,0.0
8160,59.0,0,30,10.0,0.0
8161,74.0,1,30,1.0,0.0
8162,59.0,0,30,2.0,0.0
8163,59.0,0,30,8.0,0.0
8164,86.0,0,30,0.0,0.0
8165,72.0,0,180,1.0,0.0
8166,57.0,30,180,8.0,0.0
8167,67.0,0,210,3.0,0.0
8168,60.0,0,180,7.0,0.0
8169,57.0,0,180,2.0,0.0
8170,67.0,29,210,4.0,0.0
8171,84.0,0,180,0.0,0.0
8172,79.0,59,15,6.0,0.0
8173,45.0,0,180,11.0,0.0
8174,57.0,0,180,10.0,0.0
8175,43.0,60,90,5.0,0.0
8176,79.0,20,90,6.0,0.0
8177,56.0,0,60,2.0,0.0
8178,83.0,41,60,0.0,0.0
8179,56.0,0,60,10.0,0.0
8180,71.0,0,60,1.0,0.0
8181,56.0,0,60,8.0,0.0
8182,44.0,0,60,11.0,0.0
8183,79.0,50,90,6.0,0.0
8184,59.0,0,60,7.0,0.0
8185,74.0,0,90,1.0,0.0
8186,67.0,0,90,4.0,0.0
8187,59.0,0,90,10.0,0.0
8188,59.0,0,90,8.0,0.0
8189,62.0,0,90,7.0,0.0
8190,59.0,10,90,2.0,0.0
8191,47.0,0,90,11.0,0.0
8192,67.0,19,90,3.0,0.0
8193,86.0,0,90,0.0,0.0
8194,79.0,50,90,6.0,0.0
8195,84.0,0,30,0.0,0.0
8196,57.0,0,30,10.0,0.0
8197,72.0,0,30,1.0,0.0
8198,57.0,0,30,2.0,0.0
8199,57.0,0,30,8.0,0.0
8200,60.0,41,30,7.0,0.0
8201,45.0,0,30,11.0,0.0
8202,65.0,0,90,7.0,0.0
8203,67.0,19,90,4.0,0.0
8204,67.0,0,90,3.0,0.0
8205,50.0,10,90,11.0,0.0
8206,62.0,0,90,10.0,0.0
8207,62.0,0,90,8.0,0.0
8208,89.0,0,90,0.0,0.0
8209,77.0,0,90,1.0,0.0
8210,62.0,0,90,2.0,0.0
8211,60.0,0,30,2.0,0.0
8212,64.0,0,30,7.0,0.0
8213,60.0,1,30,8.0,0.0
8214,60.0,0,30,10.0,0.0
8215,88.0,0,30,0.0,0.0
8216,76.0,0,30,1.0,0.0
8217,48.0,0,30,11.0,0.0
8218,43.0,60,90,5.0,0.0
8219,59.0,0,180,10.0,0.0
8220,74.0,30,180,1.0,0.0
8221,59.0,0,180,8.0,0.0
8222,67.0,0,210,3.0,0.0
8223,62.0,0,180,7.0,0.0
8224,86.0,0,180,0.0,0.0
8225,47.0,0,180,11.0,0.0
8226,79.0,59,15,6.0,0.0
8227,67.0,29,210,4.0,0.0
8228,59.0,0,180,2.0,0.0
8229,79.0,20,90,6.0,0.0
8230,58.0,0,60,8.0,0.0
8231,58.0,0,60,10.0,0.0
8232,58.0,0,60,2.0,0.0
8233,79.0,50,90,6.0,0.0
8234,61.0,0,60,7.0,0.0
8235,85.0,0,60,0.0,0.0
8236,46.0,41,60,11.0,0.0
8237,73.0,0,60,1.0,0.0
8238,64.0,10,90,7.0,0.0
8239,60.0,0,90,8.0,0.0
8240,67.0,19,90,4.0,0.0
8241,67.0,0,90,3.0,0.0
8242,48.0,0,90,11.0,0.0
8243,76.0,0,90,1.0,0.0
8244,60.0,0,90,2.0,0.0
8245,60.0,0,90,10.0,0.0
8246,88.0,0,90,0.0,0.0
8247,79.0,50,90,6.0,0.0
8248,59.0,0,30,2.0,0.0
8249,59.0,0,30,8.0,0.0
8250,47.0,0,30,11.0,0.0
8251,59.0,0,30,10.0,0.0
8252,86.0,0,30,0.0,0.0
8253,74.0,0,30,1.0,0.0
8254,62.0,41,30,7.0,0.0
8255,64.0,0,90,10.0,0.0
8256,79.0,0,90,1.0,0.0
8257,67.0,19,90,4.0,0.0
8258,67.0,0,90,3.0,0.0
8259,64.0,0,90,2.0,0.0
8260,52.0,0,90,11.0,0.0
8261,91.0,0,90,0.0,0.0
8262,67.0,0,90,7.0,0.0
8263,64.0,10,90,8.0,0.0
8264,79.0,0,60,6.0,0.0
8265,77.0,0,30,1.0,0.0
8266,89.0,0,30,0.0,0.0
8267,65.0,101,30,7.0,0.0
8268,62.0,0,30,10.0,0.0
8269,62.0,0,30,2.0,0.0
8270,50.0,0,30,11.0,0.0
8271,62.0,0,30,8.0,0.0
8272,67.0,0,90,3.0,0.0
8273,48.0,0,90,11.0,0.0
8274,60.0,0,90,10.0,0.0
8275,60.0,0,90,8.0,0.0
8276,79.0,0,90,6.0,0.0
8277,60.0,0,90,2.0,0.0
8278,88.0,0,120,0.0,0.0
8279,76.0,100,120,1.0,0.0
8280,79.0,0,120,1.0,0.0
8281,64.0,0,90,7.0,0.0
8282,67.0,20,90,4.0,0.0
8283,50.0,0,90,11.0,0.0
8284,65.0,0,90,7.0,0.0
8285,80.0,0,90,1.0,0.0
8286,62.0,0,90,2.0,0.0
8287,74.0,0,90,3.0,0.0
8288,77.0,0,90,1.0,0.0
8289,80.0,0,90,6.0,0.0
8290,89.0,100,120,0.0,0.0
8291,59.0,20,90,8.0,0.0
8292,62.0,0,90,10.0,0.0
8293,77.0,0,90,3.0,0.0
8294,88.0,0,120,0.0,0.0
8295,48.0,0,90,11.0,0.0
8296,72.0,0,90,3.0,0.0
8297,76.0,0,90,3.0,0.0
8298,81.0,0,90,6.0,0.0
8299,76.0,0,330,1.0,0.0
8300,81.0,100,120,1.0,0.0
8301,60.0,0,90,10.0,0.0
8302,60.0,0,90,2.0,0.0
8303,60.0,20,90,8.0,0.0
8304,64.0,0,90,7.0,0.0
8305,76.0,0,90,3.0,0.0
8306,64.0,0,90,3.0,0.0
8307,64.0,0,120,8.0,0.0
8308,62.0,0,90,7.0,0.0
8309,56.0,0,90,10.0,0.0
8310,44.0,0,90,11.0,0.0
8311,76.0,20,90,4.0,0.0
8312,56.0,0,90,2.0,0.0
8313,86.0,0,120,0.0,0.0
8314,64.0,0,90,4.0,0.0
8315,83.0,0,90,6.0,0.0
8316,83.0,59,120,1.0,0.0
8317,45.0,0,60,11.0,0.0
8318,84.0,0,90,0.0,0.0
8319,60.0,19,90,7.0,0.0
8320,57.0,41,60,2.0,0.0
8321,64.0,0,60,8.0,0.0
8322,84.0,0,90,1.0,0.0
8323,72.0,0,90,4.0,0.0
8324,84.0,0,60,6.0,0.0
8325,57.0,0,60,10.0,0.0
8326,76.0,0,90,3.0,0.0
8327,64.0,0,90,3.0,0.0
8328,60.0,0,90,4.0,0.0
8329,57.0,0,60,2.0,0.0
8330,45.0,41,60,11.0,0.0
8331,57.0,0,60,10.0,0.0
8332,84.0,19,90,6.0,0.0
8333,57.0,0,60,8.0,0.0
8334,55.0,0,60,10.0,0.0
8335,87.0,40,120,0.0,0.0
8336,43.0,41,60,11.0,0.0
8337,60.0,19,90,3.0,0.0
8338,72.0,0,90,3.0,0.0
8339,58.0,0,60,8.0,0.0
8340,55.0,0,60,2.0,0.0
8341,72.0,10,210,1.0,0.0
8342,75.0,0,120,1.0,0.0
8343,63.0,0,90,7.0,0.0
8344,43.0,0,60,11.0,0.0
8345,55.0,0,60,10.0,0.0
8346,55.0,1,60,2.0,0.0
8347,58.0,0,60,8.0,0.0
8348,84.0,19,90,6.0,0.0
8349,54.0,0,60,10.0,0.0
8350,57.0,0,60,8.0,0.0
8351,62.0,19,90,7.0,0.0
8352,60.0,0,90,4.0,0.0
8353,72.0,0,90,4.0,0.0
8354,42.0,0,60,11.0,0.0
8355,86.0,0,120,0.0,0.0
8356,54.0,31,60,2.0,0.0
8357,74.0,40,120,1.0,0.0
8358,60.0,0,90,3.0,0.0
8359,72.0,0,90,3.0,0.0
8360,54.0,0,60,2.0,0.0
8361,42.0,1,60,11.0,0.0
8362,84.0,19,90,6.0,0.0
8363,57.0,0,60,8.0,0.0
8364,54.0,0,60,10.0,0.0
8365,55.0,41,60,10.0,0.0
8366,63.0,0,90,7.0,0.0
8367,43.0,0,60,11.0,0.0
8368,58.0,0,60,8.0,0.0
8369,87.0,0,120,0.0,0.0
8370,60.0,19,90,3.0,0.0
8371,72.0,0,120,1.0,0.0
8372,72.0,0,90,3.0,0.0
8373,55.0,0,60,2.0,0.0
8374,75.0,60,120,1.0,0.0
8375,55.0,0,60,10.0,0.0
8376,58.0,1,60,8.0,0.0
8377,43.0,0,60,11.0,0.0
8378,55.0,0,60,2.0,0.0
8379,84.0,40,120,6.0,0.0
8380,57.0,0,90,8.0,0.0
8381,54.0,0,90,10.0,0.0
8382,60.0,0,90,3.0,0.0
8383,72.0,0,90,3.0,0.0
8384,72.0,0,90,4.0,0.0
8385,60.0,0,90,4.0,0.0
8386,62.0,20,90,7.0,0.0
8387,54.0,0,90,2.0,0.0
8388,74.0,0,90,1.0,0.0
8389,72.0,0,90,1.0,0.0
8390,42.0,0,90,11.0,0.0
8391,86.0,0,90,0.0,0.0
8392,81.0,60,60,6.0,0.0
8393,78.0,60,60,6.0,0.0
8394,74.0,60,60,6.0,0.0
8395,72.0,60,60,6.0,0.0
8396,69.0,60,60,6.0,0.0
8397,66.0,59,60,6.0,0.0
8398,62.0,101,60,6.0,0.0
8399,60.0,440,90,6.0,0.0
8400,55.0,40,60,10.0,0.0
8401,67.0,20,90,8.0,0.0
8402,59.0,60,60,10.0,0.0
8403,62.0,59,60,10.0,0.0
8404,62.0,0,60,7.0,0.0
8405,74.0,60,60,6.0,0.0
8406,59.0,1,60,10.0,0.0
8407,55.0,40,60,10.0,0.0
8408,71.0,20,90,7.0,0.0
8409,59.0,20,60,10.0,0.0
8410,83.0,0,15,6.0,0.0
8411,71.0,25,20,7.0,0.0
8412,62.0,20,60,10.0,0.0
8413,59.0,61,60,10.0,0.0
8414,83.0,14,60,6.0,0.0
8415,71.0,25,20,7.0,0.0
8416,83.0,0,60,6.0,0.0
8417,71.0,0,60,7.0,0.0
8418,38.0,0,90,11.0,0.0
8419,54.0,40,60,10.0,0.0
8420,62.0,19,90,8.0,0.0
8421,81.0,1,60,6.0,0.0
8422,69.0,0,60,7.0,0.0
8423,60.0,20,60,10.0,0.0
8424,62.0,20,60,10.0,0.0
8425,81.0,40,20,6.0,0.0
8426,69.0,0,20,7.0,0.0
8427,69.0,39,20,7.0,0.0
8428,60.0,16,60,10.0,0.0
8429,81.0,0,20,6.0,0.0
8430,54.0,40,60,10.0,0.0
8431,83.0,30,15,6.0,0.0
8432,71.0,0,15,7.0,0.0
8433,81.0,0,30,6.0,0.0
8434,69.0,15,30,7.0,0.0
8435,60.0,40,60,10.0,0.0
8436,67.0,20,30,7.0,0.0
8437,79.0,0,30,6.0,0.0
8438,81.0,20,30,6.0,0.0
8439,69.0,0,30,7.0,0.0
8440,62.0,40,60,10.0,0.0
8441,71.0,19,30,7.0,0.0
8442,60.0,61,60,10.0,0.0
8443,83.0,0,30,6.0,0.0
8444,79.0,0,120,6.0,0.0
8445,55.0,40,60,10.0,0.0
8446,67.0,0,120,7.0,0.0
8447,74.0,80,2010,1.0,0.0
8448,55.0,20,90,8.0,0.0
8449,59.0,59,60,10.0,0.0
8450,62.0,0,60,7.0,0.0
8451,62.0,20,60,10.0,0.0
8452,74.0,1,60,6.0,0.0
8453,74.0,39,20,6.0,0.0
8454,59.0,61,60,10.0,0.0
8455,62.0,0,20,7.0,0.0
8456,74.0,0,60,6.0,0.0
8457,62.0,0,60,7.0,0.0
8458,55.0,59,60,10.0,0.0
8459,83.0,1,60,6.0,0.0
8460,71.0,0,60,7.0,0.0
8461,59.0,20,60,10.0,0.0
8462,71.0,0,20,7.0,0.0
8463,62.0,20,60,10.0,0.0
8464,83.0,40,20,6.0,0.0
8465,71.0,0,20,7.0,0.0
8466,59.0,61,60,10.0,0.0
8467,83.0,39,20,6.0,0.0
8468,83.0,0,60,6.0,0.0
8469,62.0,0,90,8.0,0.0
8470,71.0,40,60,7.0,0.0
8471,54.0,0,60,10.0,0.0
8472,38.0,19,90,11.0,0.0
8473,81.0,1,60,6.0,0.0
8474,60.0,20,60,10.0,0.0
8475,69.0,0,60,7.0,0.0
8476,69.0,0,20,7.0,0.0
8477,62.0,20,60,10.0,0.0
8478,81.0,40,20,6.0,0.0
8479,60.0,16,60,10.0,0.0
8480,81.0,0,20,6.0,0.0
8481,69.0,39,20,7.0,0.0
8482,83.0,0,15,6.0,0.0
8483,54.0,0,60,10.0,0.0
8484,42.0,40,60,11.0,0.0
8485,71.0,30,15,7.0,0.0
8486,69.0,15,30,7.0,0.0
8487,81.0,0,30,6.0,0.0
8488,60.0,40,60,10.0,0.0
8489,79.0,0,30,6.0,0.0
8490,67.0,20,30,7.0,0.0
8491,81.0,20,30,6.0,0.0
8492,69.0,0,30,7.0,0.0
8493,62.0,40,60,10.0,0.0
8494,71.0,0,30,7.0,0.0
8495,83.0,19,30,6.0,0.0
8496,60.0,61,60,10.0,0.0
8497,79.0,0,120,6.0,0.0
8498,55.0,40,60,10.0,0.0
8499,67.0,59,120,7.0,0.0
8500,67.0,20,90,8.0,0.0
8501,59.0,0,60,10.0,0.0
8502,86.0,1,60,6.0,0.0
8503,74.0,0,60,7.0,0.0
8504,62.0,20,60,10.0,0.0
8505,50.0,0,20,2.0,0.0
8506,59.0,61,60,10.0,0.0
8507,62.0,0,20,7.0,0.0
8508,74.0,39,20,6.0,0.0
8509,74.0,0,60,6.0,0.0
8510,55.0,0,60,10.0,0.0
8511,50.0,59,60,2.0,0.0
8512,62.0,0,60,7.0,0.0
8513,71.0,0,60,7.0,0.0
8514,83.0,0,60,6.0,0.0
8515,59.0,1,60,2.0,0.0
8516,59.0,20,60,10.0,0.0
8517,71.0,0,20,7.0,0.0
8518,62.0,20,60,10.0,0.0
8519,83.0,0,20,6.0,0.0
8520,59.0,40,20,2.0,0.0
8521,71.0,39,20,7.0,0.0
8522,83.0,0,20,6.0,0.0
8523,59.0,0,20,2.0,0.0
8524,59.0,61,60,10.0,0.0
8525,83.0,0,60,6.0,0.0
8526,38.0,19,90,11.0,0.0
8527,71.0,40,60,7.0,0.0
8528,62.0,0,90,8.0,0.0
8529,54.0,0,60,10.0,0.0
8530,59.0,0,60,2.0,0.0
8531,57.0,0,60,2.0,0.0
8532,60.0,20,60,10.0,0.0
8533,81.0,1,60,6.0,0.0
8534,69.0,0,60,7.0,0.0
8535,81.0,0,20,6.0,0.0
8536,69.0,40,20,7.0,0.0
8537,57.0,0,20,2.0,0.0
8538,62.0,20,60,10.0,0.0
8539,69.0,0,20,7.0,0.0
8540,57.0,0,20,2.0,0.0
8541,60.0,16,60,10.0,0.0
8542,81.0,39,20,6.0,0.0
8543,83.0,30,15,6.0,0.0
8544,54.0,20,60,10.0,0.0
8545,42.0,0,60,11.0,0.0
8546,71.0,0,15,7.0,0.0
8547,59.0,0,15,2.0,0.0
8548,57.0,0,30,2.0,0.0
8549,69.0,0,30,7.0,0.0
8550,81.0,15,30,6.0,0.0
8551,67.0,0,20,7.0,0.0
8552,55.0,0,20,2.0,0.0
8553,60.0,20,60,10.0,0.0
8554,79.0,40,20,6.0,0.0
8555,81.0,0,20,6.0,0.0
8556,69.0,0,20,7.0,0.0
8557,62.0,20,60,10.0,0.0
8558,57.0,40,20,2.0,0.0
8559,60.0,101,60,10.0,0.0
8560,59.0,39,20,2.0,0.0
8561,71.0,0,20,7.0,0.0
8562,83.0,0,20,6.0,0.0
8563,55.0,0,180,2.0,0.0
8564,31.0,0,90,11.0,0.0
8565,67.0,0,180,7.0,0.0
8566,43.0,0,90,10.0,0.0
8567,55.0,0,90,8.0,0.0
8568,79.0,59,180,6.0,0.0
8569,59.0,0,90,10.0,0.0
8570,59.0,0,60,2.0,0.0
8571,71.0,181,60,7.0,0.0
8572,83.0,0,60,6.0,0.0
8573,64.0,0,180,7.0,0.0
8574,52.0,0,180,2.0,0.0
8575,76.0,59,180,6.0,0.0
8576,60.0,0,60,2.0,0.0
8577,72.0,0,60,7.0,0.0
8578,84.0,61,60,6.0,0.0
8579,81.0,0,60,6.0,0.0
8580,57.0,59,60,2.0,0.0
8581,69.0,0,60,7.0,0.0
8582,88.0,0,60,6.0,0.0
8583,64.0,0,60,2.0,0.0
8584,76.0,21,60,7.0,0.0
8585,84.0,60,20,6.0,0.0
8586,72.0,0,20,7.0,0.0
8587,60.0,0,20,2.0,0.0
8588,57.0,0,20,2.0,0.0
8589,69.0,0,20,7.0,0.0
8590,81.0,60,20,6.0,0.0
8591,62.0,0,60,8.0,0.0
8592,60.0,0,60,8.0,0.0
8593,50.0,0,60,10.0,0.0
8594,78.0,0,60,1.0,0.0
8595,72.0,0,60,1.0,0.0
8596,38.0,21,60,11.0,0.0
8597,54.0,39,20,2.0,0.0
8598,66.0,0,20,7.0,0.0
8599,78.0,0,20,6.0,0.0
8600,67.0,60,20,7.0,0.0
8601,55.0,0,20,2.0,0.0
8602,79.0,0,20,6.0,0.0
8603,78.0,0,60,1.0,0.0
8604,72.0,0,60,1.0,0.0
8605,57.0,0,20,2.0,0.0
8606,38.0,21,60,11.0,0.0
8607,60.0,0,60,8.0,0.0
8608,81.0,0,20,6.0,0.0
8609,50.0,0,60,10.0,0.0
8610,62.0,0,60,8.0,0.0
8611,69.0,39,20,7.0,0.0
8612,59.0,0,20,2.0,0.0
8613,71.0,0,20,7.0,0.0
8614,83.0,140,20,6.0,0.0
8615,79.0,0,180,0.0,0.0
8616,43.0,0,90,11.0,0.0
8617,59.0,0,90,8.0,0.0
8618,79.0,59,180,6.0,0.0
8619,67.0,0,180,7.0,0.0
8620,62.0,0,90,8.0,0.0
8621,71.0,0,90,1.0,0.0
8622,79.0,0,90,1.0,0.0
8623,55.0,0,180,2.0,0.0
8624,55.0,80,90,10.0,0.0
8625,71.0,0,60,7.0,0.0
8626,59.0,181,60,2.0,0.0
8627,83.0,0,60,0.0,0.0
8628,83.0,0,60,6.0,0.0
8629,64.0,0,180,7.0,0.0
8630,76.0,0,180,0.0,0.0
8631,52.0,0,180,2.0,0.0
8632,76.0,59,180,6.0,0.0
8633,72.0,0,60,7.0,0.0
8634,84.0,61,60,0.0,0.0
8635,60.0,0,60,2.0,0.0
8636,84.0,0,60,6.0,0.0
8637,81.0,0,60,6.0,0.0
8638,81.0,0,60,0.0,0.0
8639,69.0,0,60,7.0,0.0
8640,57.0,59,60,2.0,0.0
8641,88.0,0,60,6.0,0.0
8642,88.0,0,60,0.0,0.0
8643,76.0,21,60,7.0,0.0
8644,64.0,0,60,2.0,0.0
8645,84.0,0,20,6.0,0.0
8646,72.0,0,20,7.0,0.0
8647,84.0,0,20,0.0,0.0
8648,60.0,60,20,2.0,0.0
8649,81.0,0,20,6.0,0.0
8650,69.0,0,20,7.0,0.0
8651,81.0,0,20,0.0,0.0
8652,57.0,60,20,2.0,0.0
8653,78.0,0,20,6.0,0.0
8654,54.0,0,20,2.0,0.0
8655,72.0,0,60,1.0,0.0
8656,60.0,0,60,8.0,0.0
8657,78.0,39,20,0.0,0.0
8658,38.0,0,60,11.0,0.0
8659,50.0,21,60,10.0,0.0
8660,66.0,0,20,7.0,0.0
8661,62.0,0,60,8.0,0.0
8662,78.0,0,60,1.0,0.0
8663,67.0,0,20,7.0,0.0
8664,79.0,0,20,0.0,0.0
8665,79.0,0,20,6.0,0.0
8666,55.0,60,20,2.0,0.0
8667,57.0,0,20,2.0,0.0
8668,38.0,0,60,11.0,0.0
8669,81.0,39,20,0.0,0.0
8670,50.0,0,60,10.0,0.0
8671,69.0,0,20,7.0,0.0
8672,62.0,0,60,8.0,0.0
8673,60.0,0,60,8.0,0.0
8674,78.0,21,60,1.0,0.0
8675,81.0,0,20,6.0,0.0
8676,72.0,0,60,1.0,0.0
8677,83.0,0,20,6.0,0.0
8678,83.0,0,20,0.0,0.0
8679,59.0,99,20,2.0,0.0
8680,71.0,0,20,7.0,0.0
8681,55.0,0,60,2.0,0.0
8682,55.0,0,60,10.0,0.0
8683,79.0,0,60,1.0,0.0
8684,71.0,0,60,1.0,0.0
8685,79.0,0,60,0.0,0.0
8686,67.0,0,60,7.0,0.0
8687,79.0,0,60,6.0,0.0
8688,62.0,0,60,8.0,0.0
8689,43.0,0,60,11.0,0.0
8690,59.0,90,60,8.0,0.0
8691,86.0,30,30,6.0,0.0
8692,62.0,29,60,2.0,0.0
8693,74.0,0,210,4.0,0.0
8694,74.0,0,210,3.0,0.0
8695,71.0,0,60,8.0,0.0
8696,59.0,0,60,10.0,0.0
8697,47.0,0,60,11.0,0.0
8698,74.0,0,30,7.0,0.0
8699,74.0,0,60,1.0,0.0
8700,86.0,29,210,0.0,0.0
8701,86.0,1,30,6.0,0.0
8702,74.0,0,30,7.0,0.0
8703,85.0,30,30,6.0,0.0
8704,58.0,0,60,10.0,0.0
8705,74.0,0,30,7.0,0.0
8706,61.0,0,60,2.0,0.0
8707,70.0,29,60,8.0,0.0
8708,46.0,0,60,11.0,0.0
8709,73.0,0,60,1.0,0.0
8710,74.0,1,30,7.0,0.0
8711,85.0,0,30,6.0,0.0
8712,62.0,0,60,2.0,0.0
8713,47.0,0,60,11.0,0.0
8714,59.0,29,60,10.0,0.0
8715,74.0,10,210,7.0,0.0
8716,74.0,0,60,1.0,0.0
8717,71.0,0,60,8.0,0.0
8718,86.0,30,30,6.0,0.0
8719,86.0,1,30,6.0,0.0
8720,73.0,0,60,1.0,0.0
8721,61.0,0,60,2.0,0.0
8722,85.0,1,30,6.0,0.0
8723,70.0,0,60,8.0,0.0
8724,58.0,29,60,10.0,0.0
8725,46.0,0,60,11.0,0.0
8726,85.0,1,30,6.0,0.0
8727,74.0,0,60,1.0,0.0
8728,86.0,19,90,0.0,0.0
8729,74.0,0,90,4.0,0.0
8730,74.0,0,90,3.0,0.0
8731,47.0,0,60,11.0,0.0
8732,86.0,30,30,6.0,0.0
8733,71.0,0,60,8.0,0.0
8734,62.0,29,60,2.0,0.0
8735,59.0,0,60,10.0,0.0
8736,86.0,1,30,6.0,0.0
8737,71.0,0,60,1.0,0.0
8738,44.0,0,60,11.0,0.0
8739,68.0,0,60,8.0,0.0
8740,56.0,0,60,10.0,0.0
8741,83.0,1,30,6.0,0.0
8742,59.0,60,60,2.0,0.0
8743,83.0,0,30,6.0,0.0
8744,86.0,0,60,0.0,0.0
8745,72.0,0,60,1.0,0.0
8746,69.0,0,60,8.0,0.0
8747,45.0,0,60,11.0,0.0
8748,74.0,0,60,3.0,0.0
8749,60.0,0,60,2.0,0.0
8750,71.0,90,60,7.0,0.0
8751,57.0,0,60,10.0,0.0
8752,74.0,0,60,4.0,0.0
8753,84.0,0,60,6.0,0.0
8754,60.0,0,60,2.0,0.0
8755,84.0,30,30,6.0,0.0
8756,74.0,0,210,4.0,0.0
8757,71.0,0,30,7.0,0.0
8758,86.0,0,210,0.0,0.0
8759,45.0,0,60,11.0,0.0
8760,72.0,0,60,1.0,0.0
8761,57.0,29,60,10.0,0.0
8762,69.0,0,60,8.0,0.0
8763,74.0,29,210,3.0,0.0
8764,84.0,1,30,6.0,0.0
8765,71.0,0,30,7.0,0.0
8766,44.0,29,60,11.0,0.0
8767,71.0,30,30,7.0,0.0
8768,68.0,0,60,8.0,0.0
8769,56.0,0,60,10.0,0.0
8770,83.0,0,30,6.0,0.0
8771,71.0,0,60,1.0,0.0
8772,59.0,0,60,2.0,0.0
8773,83.0,1,30,6.0,0.0
8774,71.0,0,30,7.0,0.0
8775,72.0,29,60,1.0,0.0
8776,84.0,30,30,6.0,0.0
8777,60.0,0,60,2.0,0.0
8778,71.0,10,210,7.0,0.0
8779,45.0,0,60,11.0,0.0
8780,69.0,0,60,8.0,0.0
8781,57.0,0,60,10.0,0.0
8782,84.0,1,30,6.0,0.0
8783,56.0,0,60,10.0,0.0
8784,44.0,0,60,11.0,0.0
8785,68.0,29,60,8.0,0.0
8786,83.0,1,30,6.0,0.0
8787,59.0,0,60,2.0,0.0
8788,71.0,0,60,1.0,0.0
8789,83.0,1,30,6.0,0.0
8790,45.0,0,60,11.0,0.0
8791,72.0,29,60,1.0,0.0
8792,74.0,0,90,3.0,0.0
8793,74.0,19,90,4.0,0.0
8794,60.0,0,60,2.0,0.0
8795,57.0,0,60,10.0,0.0
8796,69.0,0,60,8.0,0.0
8797,86.0,0,90,0.0,0.0
8798,84.0,30,30,6.0,0.0
8799,84.0,1,30,6.0,0.0
8800,66.0,0,60,8.0,0.0
8801,81.0,1,30,6.0,0.0
8802,42.0,0,60,11.0,0.0
8803,54.0,21,60,10.0,0.0
8804,69.0,0,60,1.0,0.0
8805,57.0,0,60,2.0,0.0
8806,81.0,0,30,6.0,0.0
8807,83.0,0,60,6.0,0.0
8808,74.0,0,60,7.0,0.0
8809,74.0,0,60,4.0,0.0
8810,67.0,0,60,4.0,0.0
8811,86.0,0,60,0.0,0.0
8812,74.0,0,60,3.0,0.0
8813,67.0,0,60,8.0,0.0
8814,43.0,0,60,11.0,0.0
8815,59.0,39,20,2.0,0.0
8816,71.0,76,60,1.0,0.0
8817,67.0,0,60,3.0,0.0
8818,55.0,0,60,10.0,0.0
8819,67.0,0,60,3.0,0.0
8820,81.0,0,15,1.0,0.0
8821,76.0,0,60,3.0,0.0
8822,72.0,0,15,1.0,0.0
8823,72.0,15,15,7.0,0.0
8824,67.0,0,60,4.0,0.0
8825,52.0,0,60,2.0,0.0
8826,40.0,0,60,11.0,0.0
8827,76.0,0,60,4.0,0.0
8828,64.0,0,60,8.0,0.0
8829,84.0,0,15,0.0,0.0
8830,52.0,1,60,10.0,0.0
8831,81.0,0,15,6.0,0.0
8832,71.0,0,15,7.0,0.0
8833,79.0,0,15,6.0,0.0
8834,71.0,0,15,1.0,0.0
8835,79.0,0,15,1.0,0.0
8836,83.0,15,15,0.0,0.0
8837,72.0,0,15,7.0,0.0
8838,81.0,0,15,6.0,0.0
8839,72.0,0,15,1.0,0.0
8840,84.0,14,15,0.0,0.0
8841,81.0,0,15,1.0,0.0
8842,71.0,0,15,7.0,0.0
8843,79.0,0,15,1.0,0.0
8844,71.0,0,15,1.0,0.0
8845,79.0,30,15,6.0,0.0
8846,83.0,0,15,0.0,0.0
8847,78.0,0,30,1.0,0.0
8848,69.0,0,30,1.0,0.0
8849,78.0,0,30,6.0,0.0
8850,52.0,0,60,10.0,0.0
8851,81.0,29,30,0.0,0.0
8852,64.0,0,60,8.0,0.0
8853,52.0,0,60,2.0,0.0
8854,69.0,0,30,7.0,0.0
8855,40.0,1,60,11.0,0.0
8856,71.0,0,30,1.0,0.0
8857,79.0,59,30,6.0,0.0
8858,83.0,0,30,0.0,0.0
8859,71.0,0,30,7.0,0.0
8860,79.0,0,30,1.0,0.0
8861,48.0,0,60,2.0,0.0
8862,72.0,0,60,3.0,0.0
8863,72.0,0,60,4.0,0.0
8864,76.0,0,60,4.0,0.0
8865,72.0,0,60,7.0,0.0
8866,36.0,0,60,11.0,0.0
8867,72.0,0,60,1.0,0.0
8868,84.0,0,60,0.0,0.0
8869,76.0,0,60,3.0,0.0
8870,81.0,0,60,1.0,0.0
8871,60.0,21,60,8.0,0.0
8872,48.0,0,60,10.0,0.0
8873,81.0,0,60,6.0,0.0
8874,60.0,0,60,8.0,0.0
8875,72.0,0,30,7.0,0.0
8876,36.0,0,60,11.0,0.0
8877,84.0,20,20,0.0,0.0
8878,48.0,0,60,10.0,0.0
8879,72.0,0,20,1.0,0.0
8880,81.0,0,20,1.0,0.0
8881,81.0,19,30,6.0,0.0
8882,48.0,21,60,2.0,0.0
8883,50.0,0,60,2.0,0.0
8884,50.0,0,60,10.0,0.0
8885,74.0,0,60,3.0,0.0
8886,78.0,0,20,1.0,0.0
8887,69.0,0,20,1.0,0.0
8888,78.0,0,30,6.0,0.0
8889,81.0,20,20,0.0,0.0
8890,74.0,0,60,4.0,0.0
8891,69.0,19,30,7.0,0.0
8892,62.0,0,60,8.0,0.0
8893,38.0,21,60,11.0,0.0
8894,81.0,20,20,0.0,0.0
8895,50.0,60,60,10.0,0.0
8896,69.0,19,30,7.0,0.0
8897,78.0,0,20,1.0,0.0
8898,62.0,0,60,8.0,0.0
8899,38.0,0,60,11.0,0.0
8900,78.0,0,30,6.0,0.0
8901,50.0,0,60,2.0,0.0
8902,69.0,0,20,1.0,0.0
8903,74.0,0,60,4.0,0.0
8904,67.0,0,60,3.0,0.0
8905,55.0,0,60,2.0,0.0
8906,79.0,0,60,1.0,0.0
8907,43.0,0,60,11.0,0.0
8908,74.0,0,60,3.0,0.0
8909,71.0,0,60,7.0,0.0
8910,79.0,0,60,6.0,0.0
8911,55.0,0,60,10.0,0.0
8912,67.0,90,60,4.0,0.0
8913,67.0,0,60,8.0,0.0
8914,83.0,0,60,0.0,0.0
8915,71.0,0,60,1.0,0.0
8916,74.0,29,210,3.0,0.0
8917,59.0,0,60,10.0,0.0
8918,74.0,30,30,7.0,0.0
8919,86.0,0,210,0.0,0.0
8920,86.0,0,30,6.0,0.0
8921,47.0,0,60,11.0,0.0
8922,74.0,0,210,4.0,0.0
8923,62.0,29,60,2.0,0.0
8924,71.0,0,60,8.0,0.0
8925,74.0,0,60,1.0,0.0
8926,74.0,0,30,7.0,0.0
8927,86.0,1,30,6.0,0.0
8928,73.0,29,60,1.0,0.0
8929,46.0,0,60,11.0,0.0
8930,74.0,30,30,7.0,0.0
8931,85.0,0,30,6.0,0.0
8932,61.0,0,60,2.0,0.0
8933,70.0,0,60,8.0,0.0
8934,58.0,0,60,10.0,0.0
8935,85.0,0,30,6.0,0.0
8936,74.0,1,30,7.0,0.0
8937,47.0,0,60,11.0,0.0
8938,59.0,0,60,10.0,0.0
8939,71.0,29,60,8.0,0.0
8940,62.0,0,60,2.0,0.0
8941,86.0,30,30,6.0,0.0
8942,74.0,0,60,1.0,0.0
8943,74.0,10,210,7.0,0.0
8944,86.0,1,30,6.0,0.0
8945,61.0,0,60,2.0,0.0
8946,73.0,0,60,1.0,0.0
8947,85.0,1,30,6.0,0.0
8948,70.0,0,60,8.0,0.0
8949,58.0,0,60,10.0,0.0
8950,46.0,29,60,11.0,0.0
8951,85.0,1,30,6.0,0.0
8952,59.0,29,60,10.0,0.0
8953,74.0,19,90,3.0,0.0
8954,86.0,0,90,0.0,0.0
8955,74.0,0,90,4.0,0.0
8956,86.0,30,30,6.0,0.0
8957,47.0,0,60,11.0,0.0
8958,71.0,0,60,8.0,0.0
8959,74.0,0,60,1.0,0.0
8960,62.0,0,60,2.0,0.0
8961,86.0,1,30,6.0,0.0
8962,71.0,0,60,1.0,0.0
8963,83.0,1,30,6.0,0.0
8964,68.0,0,60,8.0,0.0
8965,56.0,0,60,10.0,0.0
8966,44.0,60,60,11.0,0.0
8967,59.0,0,60,2.0,0.0
8968,83.0,0,30,6.0,0.0
8969,72.0,0,60,1.0,0.0
8970,84.0,0,60,6.0,0.0
8971,69.0,0,60,8.0,0.0
8972,60.0,0,60,2.0,0.0
8973,45.0,0,60,11.0,0.0
8974,57.0,0,60,10.0,0.0
8975,86.0,0,60,0.0,0.0
8976,74.0,0,60,3.0,0.0
8977,74.0,0,60,4.0,0.0
8978,71.0,90,60,7.0,0.0
8979,84.0,0,30,6.0,0.0
8980,74.0,30,30,7.0,0.0
8981,60.0,0,60,2.0,0.0
8982,45.0,0,60,11.0,0.0
8983,57.0,29,60,10.0,0.0
8984,72.0,0,60,1.0,0.0
8985,74.0,0,210,4.0,0.0
8986,86.0,29,210,0.0,0.0
8987,74.0,0,210,3.0,0.0
8988,69.0,0,60,8.0,0.0
8989,84.0,0,30,6.0,0.0
8990,74.0,1,30,7.0,0.0
8991,56.0,0,60,10.0,0.0
8992,83.0,0,30,6.0,0.0
8993,68.0,0,60,8.0,0.0
8994,59.0,0,60,2.0,0.0
8995,71.0,29,60,1.0,0.0
8996,74.0,30,30,7.0,0.0
8997,44.0,0,60,11.0,0.0
8998,83.0,1,30,6.0,0.0
8999,74.0,0,30,7.0,0.0
9000,69.0,0,60,8.0,0.0
9001,57.0,0,60,10.0,0.0
9002,45.0,0,60,11.0,0.0
9003,60.0,0,60,2.0,0.0
9004,84.0,30,30,6.0,0.0
9005,72.0,29,60,1.0,0.0
9006,74.0,10,210,7.0,0.0
9007,84.0,1,30,6.0,0.0
9008,83.0,1,30,6.0,0.0
9009,56.0,0,60,10.0,0.0
9010,44.0,0,60,11.0,0.0
9011,59.0,29,60,2.0,0.0
9012,71.0,0,60,1.0,0.0
9013,68.0,0,60,8.0,0.0
9014,83.0,1,30,6.0,0.0
9015,84.0,30,30,6.0,0.0
9016,74.0,19,90,3.0,0.0
9017,69.0,0,60,8.0,0.0
9018,86.0,0,90,0.0,0.0
9019,45.0,0,60,11.0,0.0
9020,57.0,0,60,10.0,0.0
9021,72.0,29,60,1.0,0.0
9022,60.0,0,60,2.0,0.0
9023,74.0,0,90,4.0,0.0
9024,84.0,1,30,6.0,0.0
9025,69.0,0,60,1.0,0.0
9026,54.0,0,60,10.0,0.0
9027,57.0,0,60,2.0,0.0
9028,66.0,60,60,8.0,0.0
9029,81.0,1,30,6.0,0.0
9030,42.0,0,60,11.0,0.0
9031,81.0,0,30,6.0,0.0
9032,67.0,0,60,4.0,0.0
9033,59.0,0,60,2.0,0.0
9034,71.0,0,60,1.0,0.0
9035,67.0,0,60,8.0,0.0
9036,74.0,0,60,4.0,0.0
9037,55.0,0,60,10.0,0.0
9038,67.0,76,60,3.0,0.0
9039,83.0,0,60,6.0,0.0
9040,86.0,0,60,0.0,0.0
9041,43.0,0,60,11.0,0.0
9042,74.0,0,60,7.0,0.0
9043,74.0,0,60,3.0,0.0
9044,67.0,0,60,4.0,0.0
9045,76.0,0,60,4.0,0.0
9046,40.0,1,60,11.0,0.0
9047,52.0,0,60,10.0,0.0
9048,84.0,0,15,0.0,0.0
9049,67.0,0,60,3.0,0.0
9050,76.0,0,60,3.0,0.0
9051,81.0,0,15,6.0,0.0
9052,72.0,0,15,7.0,0.0
9053,72.0,15,15,1.0,0.0
9054,81.0,0,15,1.0,0.0
9055,52.0,0,60,2.0,0.0
9056,64.0,0,60,8.0,0.0
9057,79.0,0,15,6.0,0.0
9058,71.0,15,15,7.0,0.0
9059,71.0,0,15,1.0,0.0
9060,79.0,0,15,1.0,0.0
9061,83.0,0,15,0.0,0.0
9062,84.0,0,15,0.0,0.0
9063,72.0,0,15,1.0,0.0
9064,81.0,0,15,6.0,0.0
9065,81.0,14,15,1.0,0.0
9066,72.0,0,15,7.0,0.0
9067,79.0,30,15,1.0,0.0
9068,83.0,0,15,0.0,0.0
9069,79.0,0,15,6.0,0.0
9070,71.0,0,15,1.0,0.0
9071,71.0,0,15,7.0,0.0
9072,64.0,0,60,8.0,0.0
9073,78.0,0,30,1.0,0.0
9074,69.0,0,30,1.0,0.0
9075,40.0,1,60,11.0,0.0
9076,81.0,29,30,0.0,0.0
9077,52.0,0,60,10.0,0.0
9078,52.0,0,60,2.0,0.0
9079,78.0,0,30,6.0,0.0
9080,69.0,0,30,7.0,0.0
9081,71.0,0,30,7.0,0.0
9082,79.0,0,30,6.0,0.0
9083,71.0,0,30,1.0,0.0
9084,83.0,0,30,0.0,0.0
9085,79.0,59,30,1.0,0.0
9086,84.0,0,60,0.0,0.0
9087,81.0,0,60,6.0,0.0
9088,72.0,0,60,3.0,0.0
9089,72.0,1,60,7.0,0.0
9090,48.0,0,60,2.0,0.0
9091,76.0,0,60,4.0,0.0
9092,76.0,0,60,3.0,0.0
9093,48.0,0,60,10.0,0.0
9094,60.0,0,60,8.0,0.0
9095,81.0,0,60,1.0,0.0
9096,72.0,20,60,1.0,0.0
9097,72.0,0,60,4.0,0.0
9098,36.0,0,60,11.0,0.0
9099,72.0,19,30,7.0,0.0
9100,60.0,0,60,8.0,0.0
9101,81.0,0,20,1.0,0.0
9102,48.0,0,60,2.0,0.0
9103,48.0,0,60,10.0,0.0
9104,81.0,0,30,6.0,0.0
9105,36.0,21,60,11.0,0.0
9106,72.0,0,20,1.0,0.0
9107,84.0,20,20,0.0,0.0
9108,74.0,21,60,3.0,0.0
9109,81.0,0,20,0.0,0.0
9110,78.0,20,20,1.0,0.0
9111,69.0,0,30,7.0,0.0
9112,69.0,0,20,1.0,0.0
9113,38.0,0,60,11.0,0.0
9114,78.0,19,30,6.0,0.0
9115,74.0,0,60,4.0,0.0
9116,50.0,0,60,10.0,0.0
9117,62.0,0,60,8.0,0.0
9118,50.0,0,60,2.0,0.0
9119,62.0,101,60,8.0,0.0
9120,38.0,0,60,11.0,0.0
9121,50.0,0,60,2.0,0.0
9122,69.0,20,20,1.0,0.0
9123,50.0,0,60,10.0,0.0
9124,78.0,0,30,6.0,0.0
9125,81.0,0,20,0.0,0.0
9126,69.0,19,30,7.0,0.0
9127,78.0,0,20,1.0,0.0
9128,74.0,0,90,4.0,0.0
9129,67.0,0,90,4.0,0.0
9130,67.0,0,90,8.0,0.0
9131,74.0,0,90,3.0,0.0
9132,43.0,0,90,11.0,0.0
9133,67.0,0,90,3.0,0.0
9134,55.0,0,90,2.0,0.0
9135,43.0,0,90,5.0,0.0
9136,71.0,0,90,7.0,0.0
9137,79.0,0,90,6.0,0.0
9138,55.0,0,90,10.0,0.0
9139,79.0,0,90,0.0,0.0
9140,71.0,0,90,1.0,0.0
9141,79.0,95,90,1.0,0.0
9142,55.0,0,90,10.0,0.0
9143,43.0,0,90,11.0,0.0
9144,71.0,0,90,7.0,0.0
9145,79.0,0,90,7.0,0.0
9146,55.0,0,90,2.0,0.0
9147,62.0,0,90,7.0,0.0
9148,67.0,5,90,8.0,0.0
9149,84.0,15,15,6.0,0.0
9150,83.0,10,15,6.0,0.0
9151,81.0,15,15,6.0,0.0
9152,79.0,100,15,6.0,0.0
9153,74.0,0,90,3.0,0.0
9154,74.0,95,90,4.0,0.0
9155,86.0,0,90,0.0,0.0
9156,78.0,0,90,6.0,0.0
9157,78.0,0,90,1.0,0.0
9158,81.0,0,90,1.0,0.0
9159,38.0,0,90,11.0,0.0
9160,50.0,0,90,10.0,0.0
9161,62.0,5,90,8.0,0.0
9162,78.0,0,90,7.0,0.0
9163,69.0,0,90,7.0,0.0
9164,62.0,0,90,7.0,0.0
9165,50.0,0,90,2.0,0.0
9166,86.0,15,15,6.0,0.0
9167,84.0,10,15,6.0,0.0
9168,83.0,15,15,6.0,0.0
9169,81.0,100,15,6.0,0.0
9170,79.0,0,90,1.0,0.0
9171,83.0,0,90,1.0,0.0
9172,83.0,95,90,6.0,0.0
9173,67.0,0,90,4.0,0.0
9174,74.0,0,90,3.0,0.0
9175,67.0,0,90,3.0,0.0
9176,74.0,0,90,4.0,0.0
9177,86.0,0,90,0.0,0.0
9178,43.0,0,90,5.0,0.0
9179,62.0,0,90,7.0,0.0
9180,71.0,0,90,7.0,0.0
9181,79.0,5,90,7.0,0.0
9182,55.0,0,90,2.0,0.0
9183,67.0,0,90,8.0,0.0
9184,55.0,0,90,10.0,0.0
9185,43.0,0,90,11.0,0.0
9186,84.0,15,15,6.0,0.0
9187,83.0,10,15,6.0,0.0
9188,81.0,15,15,6.0,0.0
9189,79.0,100,15,6.0,0.0
9190,78.0,0,90,6.0,0.0
9191,74.0,0,90,4.0,0.0
9192,74.0,0,90,3.0,0.0
9193,86.0,0,90,0.0,0.0
9194,78.0,0,90,1.0,0.0
9195,81.0,95,90,1.0,0.0
9196,50.0,0,90,10.0,0.0
9197,38.0,5,90,11.0,0.0
9198,69.0,0,90,7.0,0.0
9199,78.0,0,90,7.0,0.0
9200,62.0,0,90,7.0,0.0
9201,62.0,0,90,8.0,0.0
9202,50.0,0,90,2.0,0.0
9203,86.0,15,15,6.0,0.0
9204,84.0,10,15,6.0,0.0
9205,83.0,15,15,6.0,0.0
9206,81.0,100,15,6.0,0.0
9207,74.0,95,90,4.0,0.0
9208,67.0,0,90,4.0,0.0
9209,67.0,0,90,3.0,0.0
9210,79.0,0,90,1.0,0.0
9211,83.0,0,90,1.0,0.0
9212,43.0,0,90,5.0,0.0
9213,86.0,0,90,0.0,0.0
9214,83.0,0,90,6.0,0.0
9215,74.0,0,90,3.0,0.0
9216,43.0,0,90,11.0,0.0
9217,67.0,0,90,8.0,0.0
9218,55.0,0,90,10.0,0.0
9219,55.0,0,90,2.0,0.0
9220,62.0,0,90,7.0,0.0
9221,71.0,5,90,7.0,0.0
9222,79.0,0,90,7.0,0.0
9223,84.0,15,15,6.0,0.0
9224,83.0,10,15,6.0,0.0
9225,81.0,15,15,6.0,0.0
9226,79.0,100,15,6.0,0.0
9227,81.0,0,90,1.0,0.0
9228,78.0,0,90,1.0,0.0
9229,74.0,0,90,3.0,0.0
9230,86.0,95,90,0.0,0.0
9231,78.0,0,90,6.0,0.0
9232,74.0,0,90,4.0,0.0
9233,50.0,0,90,2.0,0.0
9234,50.0,0,90,10.0,0.0
9235,38.0,5,90,11.0,0.0
9236,62.0,0,90,7.0,0.0
9237,69.0,0,90,7.0,0.0
9238,78.0,0,90,7.0,0.0
9239,62.0,0,90,8.0,0.0
9240,86.0,15,15,6.0,0.0
9241,84.0,10,15,6.0,0.0
9242,83.0,15,15,6.0,0.0
9243,81.0,30,15,6.0,0.0
9244,79.0,0,30,1.0,0.0
9245,43.0,0,90,5.0,0.0
9246,74.0,0,90,3.0,0.0
9247,83.0,70,30,0.0,0.0
9248,67.0,50,90,3.0,0.0
9249,43.0,0,90,11.0,0.0
9250,67.0,0,90,8.0,0.0
9251,55.0,0,90,10.0,0.0
9252,67.0,0,90,4.0,0.0
9253,74.0,0,90,4.0,0.0
9254,79.0,0,90,7.0,0.0
9255,71.0,0,90,7.0,0.0
9256,62.0,0,90,7.0,0.0
9257,79.0,0,90,6.0,0.0
9258,55.0,0,90,2.0,0.0
9259,62.0,0,90,6.0,0.0
9260,67.0,0,90,3.0,0.0
9261,55.0,0,90,10.0,0.0
9262,74.0,0,90,6.0,0.0
9263,83.0,0,90,6.0,0.0
9264,67.0,0,90,8.0,0.0
9265,67.0,50,90,4.0,0.0
9266,43.0,0,90,11.0,0.0
9267,43.0,0,90,5.0,0.0
9268,55.0,0,90,3.0,0.0
9269,55.0,0,90,2.0,0.0
9270,86.0,0,30,0.0,0.0
9271,74.0,70,30,1.0,0.0
9272,83.0,0,30,1.0,0.0
9273,62.0,0,90,7.0,0.0
9274,74.0,0,90,7.0,0.0
9275,83.0,0,90,7.0,0.0
9276,55.0,0,90,4.0,0.0
9277,43.0,0,90,10.0,0.0
9278,43.0,0,90,2.0,0.0
9279,71.0,70,30,1.0,0.0
9280,31.0,620,90,11.0,0.0
9281,71.0,0,90,6.0,0.0
9282,67.0,0,90,3.0,0.0
9283,55.0,0,90,3.0,0.0
9284,55.0,0,90,4.0,0.0
9285,67.0,0,90,4.0,0.0
9286,55.0,0,90,8.0,0.0
9287,79.0,0,90,6.0,0.0
9288,62.0,0,90,6.0,0.0
9289,79.0,0,30,1.0,0.0
9290,43.0,0,90,5.0,0.0
9291,83.0,0,30,0.0,0.0
9292,62.0,0,90,7.0,0.0
9293,71.0,0,90,7.0,0.0
9294,79.0,0,90,7.0,0.0
9295,43.0,0,480,2.0,0.0
9296,55.0,0,480,2.0,0.0
9297,79.0,0,480,1.0,0.0
9298,79.0,240,480,0.0,0.0
9299,67.0,0,480,1.0,0.0
9300,41.0,210,240,2.0,0.0
9301,77.0,0,240,0.0,0.0
9302,53.0,0,240,2.0,0.0
9303,77.0,0,240,1.0,0.0
9304,65.0,0,240,1.0,0.0
9305,82.0,0,210,1.0,0.0
9306,70.0,0,210,1.0,0.0
9307,82.0,0,210,0.0,0.0
9308,46.0,90,210,2.0,0.0
9309,58.0,0,210,2.0,0.0
9310,39.0,0,90,2.0,0.0
9311,51.0,20,90,2.0,0.0
9312,63.0,0,90,1.0,0.0
9313,75.0,0,90,1.0,0.0
9314,75.0,0,90,0.0,0.0
9315,63.0,0,90,8.0,0.0
9316,51.0,40,60,10.0,0.0
9317,55.0,60,60,10.0,0.0
9318,58.0,59,60,10.0,0.0
9319,58.0,0,60,7.0,0.0
9320,55.0,1,60,10.0,0.0
9321,70.0,60,60,6.0,0.0
9322,51.0,40,60,10.0,0.0
9323,67.0,0,90,7.0,0.0
9324,79.0,20,90,6.0,0.0
9325,55.0,20,60,10.0,0.0
9326,79.0,40,20,6.0,0.0
9327,58.0,20,60,10.0,0.0
9328,67.0,0,20,7.0,0.0
9329,55.0,61,60,10.0,0.0
9330,79.0,0,20,6.0,0.0
9331,67.0,39,20,7.0,0.0
9332,67.0,0,60,7.0,0.0
9333,46.0,0,90,10.0,0.0
9334,79.0,0,60,6.0,0.0
9335,34.0,19,90,11.0,0.0
9336,50.0,40,60,10.0,0.0
9337,58.0,0,90,8.0,0.0
9338,56.0,20,60,10.0,0.0
9339,65.0,0,60,7.0,0.0
9340,77.0,1,60,6.0,0.0
9341,65.0,0,20,7.0,0.0
9342,77.0,40,20,6.0,0.0
9343,58.0,20,60,10.0,0.0
9344,65.0,39,20,7.0,0.0
9345,56.0,15,60,10.0,0.0
9346,77.0,0,20,6.0,0.0
9347,67.0,45,15,7.0,0.0
9348,50.0,20,60,10.0,0.0
9349,79.0,0,15,6.0,0.0
9350,77.0,0,30,6.0,0.0
9351,65.0,1,30,7.0,0.0
9352,56.0,20,60,10.0,0.0
9353,75.0,40,20,6.0,0.0
9354,63.0,0,20,7.0,0.0
9355,65.0,40,20,7.0,0.0
9356,58.0,20,60,10.0,0.0
9357,77.0,0,20,6.0,0.0
9358,67.0,39,20,7.0,0.0
9359,56.0,61,60,10.0,0.0
9360,79.0,0,20,6.0,0.0
9361,51.0,20,90,8.0,0.0
9362,82.0,0,2010,0.0,0.0
9363,63.0,0,120,7.0,0.0
9364,70.0,0,2010,1.0,0.0
9365,75.0,0,120,6.0,0.0
9366,51.0,40,60,10.0,0.0
9367,55.0,59,60,10.0,0.0
9368,70.0,1,60,6.0,0.0
9369,58.0,0,60,7.0,0.0
9370,58.0,20,60,10.0,0.0
9371,55.0,61,60,10.0,0.0
9372,70.0,39,20,6.0,0.0
9373,58.0,0,20,7.0,0.0
9374,58.0,59,60,7.0,0.0
9375,51.0,0,60,10.0,0.0
9376,70.0,0,60,6.0,0.0
9377,79.0,0,60,6.0,0.0
9378,55.0,20,60,10.0,0.0
9379,67.0,1,60,7.0,0.0
9380,67.0,40,20,7.0,0.0
9381,58.0,20,60,10.0,0.0
9382,79.0,0,20,6.0,0.0
9383,79.0,0,20,6.0,0.0
9384,55.0,61,60,10.0,0.0
9385,67.0,39,20,7.0,0.0
9386,34.0,19,90,11.0,0.0
9387,46.0,0,90,10.0,0.0
9388,58.0,0,90,8.0,0.0
9389,79.0,0,60,6.0,0.0
9390,67.0,40,60,7.0,0.0
9391,50.0,0,60,10.0,0.0
9392,77.0,1,60,6.0,0.0
9393,65.0,0,60,7.0,0.0
9394,56.0,20,60,10.0,0.0
9395,77.0,40,20,6.0,0.0
9396,65.0,0,20,7.0,0.0
9397,58.0,20,60,10.0,0.0
9398,65.0,39,20,7.0,0.0
9399,56.0,15,60,10.0,0.0
9400,77.0,0,20,6.0,0.0
9401,67.0,0,15,7.0,0.0
9402,79.0,45,15,6.0,0.0
9403,50.0,20,60,10.0,0.0
9404,65.0,0,30,7.0,0.0
9405,77.0,1,30,6.0,0.0
9406,56.0,20,60,10.0,0.0
9407,63.0,40,20,7.0,0.0
9408,75.0,0,20,6.0,0.0
9409,77.0,0,20,6.0,0.0
9410,58.0,20,60,10.0,0.0
9411,65.0,40,20,7.0,0.0
9412,56.0,61,60,10.0,0.0
9413,67.0,39,20,7.0,0.0
9414,79.0,0,20,6.0,0.0
9415,63.0,59,120,7.0,0.0
9416,51.0,20,90,10.0,0.0
9417,63.0,0,90,8.0,0.0
9418,55.0,40,60,10.0,0.0
9419,75.0,0,120,6.0,0.0
9420,39.0,0,90,11.0,0.0
9421,58.0,0,60,10.0,0.0
9422,82.0,1,60,6.0,0.0
9423,70.0,0,60,7.0,0.0
9424,63.0,20,60,10.0,0.0
9425,58.0,39,20,7.0,0.0
9426,70.0,0,20,6.0,0.0
9427,61.0,61,60,10.0,0.0
9428,55.0,0,60,10.0,0.0
9429,58.0,59,60,7.0,0.0
9430,70.0,0,60,6.0,0.0
9431,58.0,20,60,10.0,0.0
9432,79.0,0,60,6.0,0.0
9433,67.0,1,60,7.0,0.0
9434,67.0,0,20,7.0,0.0
9435,79.0,40,20,6.0,0.0
9436,63.0,20,60,10.0,0.0
9437,79.0,0,20,6.0,0.0
9438,61.0,61,60,10.0,0.0
9439,67.0,39,20,7.0,0.0
9440,56.0,0,60,10.0,0.0
9441,46.0,19,90,10.0,0.0
9442,67.0,0,60,7.0,0.0
9443,79.0,40,60,6.0,0.0
9444,58.0,0,90,8.0,0.0
9445,34.0,0,90,11.0,0.0
9446,65.0,0,60,7.0,0.0
9447,58.0,20,60,10.0,0.0
9448,77.0,1,60,6.0,0.0
9449,65.0,40,20,7.0,0.0
9450,62.0,20,60,10.0,0.0
9451,77.0,0,20,6.0,0.0
9452,77.0,39,20,6.0,0.0
9453,65.0,0,20,7.0,0.0
9454,58.0,15,60,10.0,0.0
9455,67.0,0,15,7.0,0.0
9456,79.0,45,15,6.0,0.0
9457,56.0,20,60,10.0,0.0
9458,77.0,1,30,6.0,0.0
9459,65.0,0,30,7.0,0.0
9460,63.0,40,20,7.0,0.0
9461,75.0,0,20,6.0,0.0
9462,58.0,20,60,10.0,0.0
9463,62.0,20,60,10.0,0.0
9464,77.0,0,20,6.0,0.0
9465,65.0,40,20,7.0,0.0
9466,58.0,101,60,10.0,0.0
9467,67.0,0,20,7.0,0.0
9468,79.0,39,20,6.0,0.0
9469,51.0,0,90,10.0,0.0
9470,63.0,0,180,7.0,0.0
9471,39.0,0,90,11.0,0.0
9472,75.0,59,180,6.0,0.0
9473,55.0,0,90,10.0,0.0
9474,63.0,80,90,8.0,0.0
9475,67.0,0,60,7.0,0.0
9476,79.0,181,60,6.0,0.0
9477,60.0,59,180,7.0,0.0
9478,72.0,0,180,6.0,0.0
9479,68.0,61,60,7.0,0.0
9480,80.0,0,60,6.0,0.0
9481,77.0,59,60,6.0,0.0
9482,65.0,0,60,7.0,0.0
9483,84.0,21,60,6.0,0.0
9484,72.0,0,60,7.0,0.0
9485,80.0,0,20,6.0,0.0
9486,68.0,60,20,7.0,0.0
9487,65.0,0,20,7.0,0.0
9488,77.0,60,20,6.0,0.0
9489,34.0,0,60,11.0,0.0
9490,74.0,39,20,6.0,0.0
9491,58.0,0,60,8.0,0.0
9492,62.0,0,20,7.0,0.0
9493,56.0,21,60,8.0,0.0
9494,46.0,0,60,10.0,0.0
9495,75.0,0,20,6.0,0.0
9496,63.0,60,20,7.0,0.0
9497,77.0,0,20,6.0,0.0
9498,34.0,0,60,11.0,0.0
9499,65.0,39,20,7.0,0.0
9500,46.0,21,60,10.0,0.0
9501,56.0,0,60,8.0,0.0
9502,58.0,0,60,8.0,0.0
9503,67.0,0,20,7.0,0.0
9504,79.0,140,20,6.0,0.0
9505,63.0,0,90,7.0,0.0
9506,51.0,0,90,10.0,0.0
9507,39.0,0,90,11.0,0.0
9508,75.0,59,180,1.0,0.0
9509,55.0,0,90,8.0,0.0
9510,58.0,0,90,8.0,0.0
9511,51.0,0,180,2.0,0.0
9512,75.0,80,90,6.0,0.0
9513,79.0,0,60,1.0,0.0
9514,55.0,181,60,2.0,0.0
9515,72.0,0,180,1.0,0.0
9516,48.0,59,180,2.0,0.0
9517,80.0,0,60,1.0,0.0
9518,56.0,61,60,2.0,0.0
9519,77.0,0,60,1.0,0.0
9520,53.0,59,60,2.0,0.0
9521,84.0,0,60,1.0,0.0
9522,60.0,21,60,2.0,0.0
9523,80.0,60,20,1.0,0.0
9524,56.0,0,20,2.0,0.0
9525,77.0,0,20,1.0,0.0
9526,53.0,60,20,2.0,0.0
9527,56.0,21,60,8.0,0.0
9528,74.0,0,20,1.0,0.0
9529,34.0,0,60,11.0,0.0
9530,58.0,0,60,8.0,0.0
9531,46.0,0,60,10.0,0.0
9532,50.0,39,20,2.0,0.0
9533,75.0,0,20,1.0,0.0
9534,51.0,60,20,2.0,0.0
9535,77.0,0,20,1.0,0.0
9536,34.0,0,60,11.0,0.0
9537,53.0,39,20,2.0,0.0
9538,46.0,0,60,10.0,0.0
9539,58.0,21,60,8.0,0.0
9540,56.0,0,60,8.0,0.0
9541,79.0,0,20,1.0,0.0
9542,55.0,100,20,2.0,0.0
9543,51.0,0,90,2.0,0.0
9544,58.0,0,90,8.0,0.0
9545,55.0,0,90,8.0,0.0
9546,75.0,40,60,6.0,0.0
9547,51.0,19,90,10.0,0.0
9548,39.0,0,90,11.0,0.0
9549,75.0,0,60,7.0,0.0
9550,75.0,0,90,1.0,0.0
9551,82.0,0,60,6.0,0.0
9552,82.0,21,60,7.0,0.0
9553,79.0,0,20,6.0,0.0
9554,82.0,0,90,0.0,0.0
9555,79.0,60,20,7.0,0.0
9556,75.0,0,90,1.0,0.0
9557,79.0,30,90,1.0,0.0
9558,75.0,9,20,6.0,0.0
9559,75.0,0,20,7.0,0.0
9560,82.0,0,30,0.0,0.0
9561,75.0,0,30,1.0,0.0
9562,79.0,21,30,1.0,0.0
9563,74.0,60,20,6.0,0.0
9564,74.0,0,20,7.0,0.0
9565,82.0,0,90,0.0,0.0
9566,74.0,40,90,1.0,0.0
9567,68.0,0,90,8.0,0.0
9568,44.0,0,90,11.0,0.0
9569,56.0,0,90,10.0,0.0
9570,77.0,0,90,1.0,0.0
9571,75.0,20,20,7.0,0.0
9572,75.0,0,20,6.0,0.0
9573,77.0,0,20,7.0,0.0
9574,82.0,0,90,0.0,0.0
9575,77.0,60,20,6.0,0.0
9576,74.0,0,90,1.0,0.0
9577,77.0,80,90,1.0,0.0
9578,79.0,0,20,7.0,0.0
9579,79.0,20,20,6.0,0.0
9580,67.0,0,60,8.0,0.0
9581,79.0,0,90,1.0,0.0
9582,55.0,0,60,10.0,0.0
9583,75.0,0,90,6.0,0.0
9584,75.0,19,90,7.0,0.0
9585,43.0,40,60,11.0,0.0
9586,82.0,0,90,0.0,0.0
9587,75.0,0,90,1.0,0.0
9588,70.0,21,60,8.0,0.0
9589,46.0,0,60,11.0,0.0
9590,58.0,0,60,10.0,0.0
9591,51.0,0,90,2.0,0.0
9592,58.0,0,90,2.0,0.0
9593,67.0,0,90,1.0,0.0
9594,63.0,30,90,1.0,0.0
9595,43.0,0,20,11.0,0.0
9596,67.0,60,20,8.0,0.0
9597,55.0,0,20,10.0,0.0
9598,39.0,0,20,11.0,0.0
9599,51.0,9,20,10.0,0.0
9600,63.0,0,20,8.0,0.0
9601,51.0,0,30,2.0,0.0
9602,58.0,21,30,2.0,0.0
9603,67.0,0,30,1.0,0.0
9604,63.0,0,30,1.0,0.0
9605,68.0,0,90,1.0,0.0
9606,80.0,0,90,7.0,0.0
9607,38.0,60,20,11.0,0.0
9608,62.0,0,20,8.0,0.0
9609,62.0,0,90,7.0,0.0
9610,70.0,0,90,7.0,0.0
9611,50.0,40,90,2.0,0.0
9612,65.0,0,90,1.0,0.0
9613,70.0,0,90,6.0,0.0
9614,80.0,0,90,6.0,0.0
9615,62.0,0,90,6.0,0.0
9616,58.0,0,90,2.0,0.0
9617,50.0,0,20,10.0,0.0
9618,63.0,0,20,8.0,0.0
9619,51.0,20,20,10.0,0.0
9620,39.0,0,20,11.0,0.0
9621,53.0,0,20,10.0,0.0
9622,41.0,0,20,11.0,0.0
9623,65.0,60,20,8.0,0.0
9624,53.0,0,90,2.0,0.0
9625,58.0,80,90,2.0,0.0
9626,62.0,0,90,1.0,0.0
9627,68.0,0,90,1.0,0.0
9628,43.0,0,20,11.0,0.0
9629,55.0,20,20,10.0,0.0
9630,67.0,0,20,8.0,0.0
9631,79.0,40,60,7.0,0.0
9632,39.0,0,90,11.0,0.0
9633,63.0,0,90,8.0,0.0
9634,79.0,0,60,6.0,0.0
9635,67.0,19,90,1.0,0.0
9636,63.0,0,90,1.0,0.0
9637,51.0,0,90,2.0,0.0
9638,58.0,0,90,2.0,0.0
9639,51.0,0,90,10.0,0.0
9640,85.0,0,60,6.0,0.0
9641,85.0,21,60,7.0,0.0
9642,82.0,0,20,7.0,0.0
9643,85.0,0,90,0.0,0.0
9644,82.0,60,20,6.0,0.0
9645,70.0,0,90,1.0,0.0
9646,79.0,30,90,1.0,0.0
9647,79.0,9,20,7.0,0.0
9648,79.0,0,20,6.0,0.0
9649,85.0,0,30,0.0,0.0
9650,70.0,21,30,1.0,0.0
9651,79.0,0,30,1.0,0.0
9652,70.0,0,90,8.0,0.0
9653,46.0,0,90,11.0,0.0
9654,84.0,0,90,0.0,0.0
9655,76.0,60,20,6.0,0.0
9656,79.0,0,90,1.0,0.0
9657,76.0,40,90,1.0,0.0
9658,76.0,0,20,7.0,0.0
9659,58.0,0,90,10.0,0.0
9660,77.0,20,20,6.0,0.0
9661,77.0,0,20,7.0,0.0
9662,84.0,0,90,0.0,0.0
9663,79.0,0,20,7.0,0.0
9664,79.0,60,20,6.0,0.0
9665,79.0,0,90,1.0,0.0
9666,76.0,80,90,1.0,0.0
9667,80.0,20,20,6.0,0.0
9668,80.0,0,20,7.0,0.0
9669,77.0,0,90,1.0,0.0
9670,68.0,0,60,8.0,0.0
9671,80.0,0,90,1.0,0.0
9672,77.0,0,90,6.0,0.0
9673,56.0,0,60,10.0,0.0
9674,77.0,0,90,7.0,0.0
9675,44.0,40,60,11.0,0.0
9676,84.0,19,90,0.0,0.0
9677,72.0,0,60,8.0,0.0
9678,60.0,21,60,10.0,0.0
9679,48.0,0,60,11.0,0.0
9680,68.0,0,90,1.0,0.0
9681,44.0,0,20,11.0,0.0
9682,65.0,0,90,1.0,0.0
9683,53.0,0,90,2.0,0.0
9684,60.0,30,90,2.0,0.0
9685,68.0,60,20,8.0,0.0
9686,56.0,0,20,10.0,0.0
9687,65.0,9,20,8.0,0.0
9688,41.0,0,20,11.0,0.0
9689,53.0,0,20,10.0,0.0
9690,65.0,0,30,1.0,0.0
9691,68.0,0,30,1.0,0.0
9692,53.0,21,30,2.0,0.0
9693,60.0,0,30,2.0,0.0
9694,82.0,0,90,6.0,0.0
9695,52.0,60,20,10.0,0.0
9696,67.0,0,90,1.0,0.0
9697,70.0,40,90,1.0,0.0
9698,52.0,0,90,2.0,0.0
9699,60.0,0,90,2.0,0.0
9700,64.0,0,90,7.0,0.0
9701,72.0,0,90,6.0,0.0
9702,64.0,0,90,6.0,0.0
9703,64.0,0,20,8.0,0.0
9704,40.0,0,20,11.0,0.0
9705,82.0,0,90,7.0,0.0
9706,72.0,0,90,7.0,0.0
9707,65.0,0,20,8.0,0.0
9708,41.0,0,20,11.0,0.0
9709,53.0,20,20,10.0,0.0
9710,70.0,0,90,1.0,0.0
9711,67.0,0,20,8.0,0.0
9712,55.0,80,90,2.0,0.0
9713,60.0,0,90,2.0,0.0
9714,55.0,60,20,10.0,0.0
9715,43.0,0,20,11.0,0.0
9716,64.0,0,90,1.0,0.0
9717,45.0,0,20,11.0,0.0
9718,69.0,20,20,8.0,0.0
9719,57.0,0,20,10.0,0.0
9720,81.0,40,60,7.0,0.0
9721,53.0,0,90,2.0,0.0
9722,65.0,0,90,8.0,0.0
9723,81.0,0,60,6.0,0.0
9724,60.0,0,90,2.0,0.0
9725,53.0,0,90,10.0,0.0
9726,41.0,0,90,11.0,0.0
9727,65.0,0,90,1.0,0.0
9728,69.0,19,90,1.0,0.0
9729,87.0,21,60,6.0,0.0
9730,87.0,0,60,7.0,0.0
9731,87.0,0,90,0.0,0.0
9732,84.0,0,20,6.0,0.0
9733,81.0,30,90,1.0,0.0
9734,72.0,0,90,1.0,0.0
9735,84.0,60,20,7.0,0.0
9736,81.0,9,20,6.0,0.0
9737,81.0,0,20,7.0,0.0
9738,72.0,0,30,1.0,0.0
9739,81.0,21,30,1.0,0.0
9740,87.0,0,30,0.0,0.0
9741,78.0,0,90,1.0,0.0
9742,81.0,0,90,1.0,0.0
9743,78.0,0,20,7.0,0.0
9744,60.0,0,90,10.0,0.0
9745,78.0,60,20,6.0,0.0
9746,48.0,40,90,11.0,0.0
9747,86.0,0,90,0.0,0.0
9748,72.0,0,90,8.0,0.0
9749,79.0,0,20,6.0,0.0
9750,79.0,20,20,7.0,0.0
9751,81.0,60,20,7.0,0.0
9752,81.0,0,20,6.0,0.0
9753,81.0,0,90,1.0,0.0
9754,86.0,0,90,0.0,0.0
9755,78.0,80,90,1.0,0.0
9756,82.0,0,20,6.0,0.0
9757,82.0,20,20,7.0,0.0
9758,79.0,0,90,6.0,0.0
9759,82.0,0,90,1.0,0.0
9760,79.0,0,90,1.0,0.0
9761,86.0,19,90,0.0,0.0
9762,70.0,40,60,8.0,0.0
9763,58.0,0,60,10.0,0.0
9764,79.0,0,90,7.0,0.0
9765,46.0,0,60,11.0,0.0
9766,50.0,0,60,11.0,0.0
9767,62.0,0,60,10.0,0.0
9768,74.0,21,60,8.0,0.0
9769,46.0,60,20,11.0,0.0
9770,55.0,30,90,2.0,0.0
9771,70.0,0,20,8.0,0.0
9772,58.0,0,20,10.0,0.0
9773,70.0,0,90,1.0,0.0
9774,67.0,0,90,1.0,0.0
9775,62.0,0,90,2.0,0.0
9776,55.0,9,20,10.0,0.0
9777,67.0,0,20,8.0,0.0
9778,43.0,0,20,11.0,0.0
9779,70.0,0,30,1.0,0.0
9780,67.0,0,30,1.0,0.0
9781,55.0,0,30,2.0,0.0
9782,62.0,21,30,2.0,0.0
9783,74.0,0,90,6.0,0.0
9784,62.0,0,90,2.0,0.0
9785,69.0,0,90,1.0,0.0
9786,72.0,0,90,1.0,0.0
9787,54.0,0,90,2.0,0.0
9788,66.0,60,20,8.0,0.0
9789,62.0,40,90,6.0,0.0
9790,84.0,0,90,6.0,0.0
9791,62.0,0,90,7.0,0.0
9792,74.0,0,90,7.0,0.0
9793,42.0,0,20,11.0,0.0
9794,84.0,0,90,7.0,0.0
9795,54.0,0,20,10.0,0.0
9796,43.0,0,20,11.0,0.0
9797,67.0,20,20,8.0,0.0
9798,55.0,0,20,10.0,0.0
9799,66.0,0,90,1.0,0.0
9800,57.0,60,20,10.0,0.0
9801,72.0,0,90,1.0,0.0
9802,57.0,0,90,2.0,0.0
9803,45.0,0,20,11.0,0.0
9804,69.0,0,20,8.0,0.0
9805,62.0,50,90,2.0,0.0
9806,58.0,0,20,10.0,0.0
9807,70.0,0,20,8.0,0.0
9808,46.0,20,20,11.0,0.0
9809,43.0,0,90,11.0,0.0
9810,55.0,19,90,10.0,0.0
9811,67.0,0,30,1.0,0.0
9812,70.0,30,30,1.0,0.0
9813,82.0,0,60,7.0,0.0
9814,67.0,0,90,8.0,0.0
9815,55.0,0,90,2.0,0.0
9816,62.0,0,90,2.0,0.0
9817,82.0,40,60,6.0,0.0
9818,86.0,0,60,7.0,0.0
9819,86.0,21,60,6.0,0.0
9820,82.0,10,20,7.0,0.0
9821,67.0,50,30,1.0,0.0
9822,70.0,0,30,1.0,0.0
9823,82.0,0,20,6.0,0.0
9824,81.0,0,20,7.0,0.0
9825,81.0,100,20,6.0,0.0
9826,58.0,0,60,10.0,0.0
9827,79.0,10,690,1.0,0.0
9828,82.0,0,690,1.0,0.0
9829,79.0,0,60,6.0,0.0
9830,46.0,59,60,11.0,0.0
9831,79.0,0,60,7.0,0.0
9832,70.0,0,60,8.0,0.0
9833,73.0,0,60,8.0,0.0
9834,82.0,0,60,6.0,0.0
9835,82.0,0,60,7.0,0.0
9836,61.0,0,60,10.0,0.0
9837,49.0,21,60,11.0,0.0
9838,79.0,0,20,6.0,0.0
9839,46.0,0,20,11.0,0.0
9840,55.0,50,30,2.0,0.0
9841,58.0,0,30,2.0,0.0
9842,70.0,10,20,8.0,0.0
9843,79.0,0,20,7.0,0.0
9844,58.0,0,20,10.0,0.0
9845,77.0,0,20,6.0,0.0
9846,77.0,0,20,7.0,0.0
9847,68.0,0,20,8.0,0.0
9848,44.0,100,20,11.0,0.0
9849,56.0,0,20,10.0,0.0
9850,67.0,0,60,8.0,0.0
9851,67.0,0,480,2.0,0.0
9852,58.0,60,480,2.0,0.0
9853,55.0,0,60,10.0,0.0
9854,76.0,0,60,7.0,0.0
9855,76.0,0,60,6.0,0.0
9856,43.0,59,60,11.0,0.0
9857,58.0,0,60,10.0,0.0
9858,70.0,0,60,8.0,0.0
9859,79.0,0,60,7.0,0.0
9860,79.0,21,60,6.0,0.0
9861,46.0,0,60,11.0,0.0
9862,43.0,0,20,11.0,0.0
9863,76.0,0,20,7.0,0.0
9864,67.0,0,20,8.0,0.0
9865,76.0,0,20,6.0,0.0
9866,72.0,50,30,0.0,0.0
9867,55.0,10,20,10.0,0.0
9868,74.0,0,20,6.0,0.0
9869,65.0,0,20,8.0,0.0
9870,74.0,0,20,7.0,0.0
9871,41.0,0,20,11.0,0.0
9872,53.0,99,20,10.0,0.0
9873,72.0,19,90,6.0,0.0
9874,64.0,41,60,8.0,0.0
9875,84.0,20,360,0.0,0.0
9876,40.0,0,60,11.0,0.0
9877,52.0,0,60,10.0,0.0
9878,72.0,0,90,7.0,0.0
9879,43.0,60,60,11.0,0.0
9880,67.0,0,60,8.0,0.0
9881,55.0,0,60,10.0,0.0
9882,82.0,0,90,7.0,0.0
9883,64.0,0,90,7.0,0.0
9884,72.0,19,90,7.0,0.0
9885,48.0,0,60,10.0,0.0
9886,36.0,0,60,11.0,0.0
9887,64.0,0,90,6.0,0.0
9888,60.0,31,60,8.0,0.0
9889,82.0,0,90,6.0,0.0
9890,72.0,0,90,6.0,0.0
9891,40.0,0,60,11.0,0.0
9892,52.0,1,60,10.0,0.0
9893,64.0,0,60,8.0,0.0
9894,41.0,0,90,11.0,0.0
9895,53.0,19,90,10.0,0.0
9896,65.0,0,90,2.0,0.0
9897,80.0,40,60,6.0,0.0
9898,56.0,0,90,2.0,0.0
9899,77.0,0,90,1.0,0.0
9900,80.0,0,90,1.0,0.0
9901,65.0,0,90,8.0,0.0
9902,80.0,0,60,7.0,0.0
9903,84.0,1,60,7.0,0.0
9904,84.0,0,60,6.0,0.0
9905,80.0,10,20,6.0,0.0
9906,41.0,80,90,10.0,0.0
9907,77.0,0,90,0.0,0.0
9908,68.0,50,30,1.0,0.0
9909,65.0,0,30,1.0,0.0
9910,29.0,0,90,11.0,0.0
9911,53.0,0,90,8.0,0.0
9912,80.0,0,20,7.0,0.0
9913,79.0,0,20,7.0,0.0
9914,79.0,20,20,6.0,0.0
9915,56.0,0,60,10.0,0.0
9916,77.0,0,60,7.0,0.0
9917,44.0,0,60,11.0,0.0
9918,77.0,0,60,6.0,0.0
9919,80.0,0,720,1.0,0.0
9920,77.0,60,720,1.0,0.0
9921,68.0,59,60,8.0,0.0
9922,80.0,0,60,6.0,0.0
9923,60.0,0,60,10.0,0.0
9924,80.0,21,60,7.0,0.0
9925,72.0,0,60,8.0,0.0
9926,48.0,0,60,11.0,0.0
9927,77.0,10,20,6.0,0.0
9928,53.0,50,30,2.0,0.0
9929,56.0,0,30,2.0,0.0
9930,44.0,0,20,11.0,0.0
9931,68.0,0,20,8.0,0.0
9932,77.0,0,20,7.0,0.0
9933,56.0,0,20,10.0,0.0
9934,55.0,0,20,10.0,0.0
9935,43.0,0,20,11.0,0.0
9936,75.0,100,20,6.0,0.0
9937,75.0,0,20,7.0,0.0
9938,67.0,0,20,8.0,0.0
9939,41.0,0,60,11.0,0.0
9940,56.0,0,450,2.0,0.0
9941,65.0,10,450,2.0,0.0
9942,53.0,0,60,10.0,0.0
9943,65.0,0,60,8.0,0.0
9944,74.0,59,60,7.0,0.0
9945,74.0,0,60,6.0,0.0
9946,68.0,0,60,8.0,0.0
9947,77.0,0,60,6.0,0.0
9948,56.0,0,60,10.0,0.0
9949,44.0,21,60,11.0,0.0
9950,77.0,0,60,7.0,0.0
9951,70.0,50,30,0.0,0.0
9952,65.0,0,20,8.0,0.0
9953,53.0,0,20,10.0,0.0
9954,74.0,0,20,7.0,0.0
9955,74.0,10,20,6.0,0.0
9956,41.0,0,20,11.0,0.0
9957,72.0,99,20,7.0,0.0
9958,51.0,0,20,10.0,0.0
9959,39.0,0,20,11.0,0.0
9960,72.0,0,20,6.0,0.0
9961,63.0,0,20,8.0,0.0
9962,62.0,41,60,8.0,0.0
9963,82.0,0,330,0.0,0.0
9964,70.0,19,90,7.0,0.0
9965,50.0,0,60,10.0,0.0
9966,38.0,0,60,11.0,0.0
9967,70.0,0,90,6.0,0.0
9968,53.0,0,60,10.0,0.0
9969,41.0,0,60,11.0,0.0
9970,65.0,60,60,8.0,0.0
9971,80.0,0,90,6.0,0.0
9972,70.0,19,90,7.0,0.0
9973,62.0,0,90,7.0,0.0
9974,58.0,0,60,8.0,0.0
9975,34.0,0,60,11.0,0.0
9976,62.0,0,90,6.0,0.0
9977,70.0,0,90,6.0,0.0
9978,46.0,31,60,10.0,0.0
9979,80.0,0,90,7.0,0.0
9980,62.0,1,60,8.0,0.0
9981,50.0,0,60,10.0,0.0
9982,38.0,0,60,11.0,0.0
9983,79.0,0,60,6.0,0.0
9984,39.0,0,90,11.0,0.0
9985,63.0,0,90,2.0,0.0
9986,55.0,0,90,2.0,0.0
9987,75.0,0,90,1.0,0.0
9988,63.0,0,90,8.0,0.0
9989,79.0,0,90,1.0,0.0
9990,79.0,40,60,7.0,0.0
9991,51.0,19,90,10.0,0.0
9992,82.0,21,60,6.0,0.0
9993,82.0,0,60,7.0,0.0
9994,75.0,0,20,7.0,0.0
9995,67.0,0,30,1.0,0.0
9996,63.0,50,30,1.0,0.0
9997,75.0,10,20,6.0,0.0
9998,63.0,0,60,10.0,0.0
9999,51.0,0,60,11.0,0.0
10000,79.0,0,20,6.0,0.0
10001,75.0,0,60,8.0,0.0
10002,79.0,39,20,7.0,0.0
10003,91.0,61,60,0.0,0.0
10004,87.0,40,60,0.0,0.0
10005,72.0,0,60,8.0,0.0
10006,80.0,19,90,7.0,0.0
10007,79.0,60,240,1.0,0.0
10008,75.0,0,240,1.0,0.0
10009,48.0,0,60,11.0,0.0
10010,80.0,0,90,6.0,0.0
10011,60.0,0,60,10.0,0.0
10012,51.0,0,60,11.0,0.0
10013,63.0,0,60,10.0,0.0
10014,75.0,0,60,8.0,0.0
10015,91.0,21,60,0.0,0.0
10016,56.0,0,30,2.0,0.0
10017,60.0,50,30,2.0,0.0
10018,68.0,0,20,8.0,0.0
10019,56.0,0,20,10.0,0.0
10020,44.0,0,20,11.0,0.0
10021,84.0,10,20,0.0,0.0
10022,60.0,0,20,10.0,0.0
10023,48.0,0,20,11.0,0.0
10024,87.0,39,20,0.0,0.0
10025,80.0,1,60,6.0,0.0
10026,72.0,0,20,8.0,0.0
10027,80.0,0,60,7.0,0.0
10028,50.0,19,90,11.0,0.0
10029,89.0,0,90,0.0,0.0
10030,74.0,0,90,8.0,0.0
10031,77.0,0,90,1.0,0.0
10032,77.0,40,60,7.0,0.0
10033,62.0,0,90,10.0,0.0
10034,65.0,0,330,2.0,0.0
10035,62.0,10,330,2.0,0.0
10036,74.0,0,90,1.0,0.0
10037,77.0,0,60,6.0,0.0
10038,80.0,0,60,6.0,0.0
10039,80.0,21,60,7.0,0.0
10040,74.0,0,20,6.0,0.0
10041,65.0,50,30,1.0,0.0
10042,62.0,0,30,1.0,0.0
10043,74.0,10,20,7.0,0.0
10044,77.0,39,20,7.0,0.0
10045,77.0,0,20,6.0,0.0
10046,62.0,0,60,10.0,0.0
10047,89.0,61,60,0.0,0.0
10048,74.0,0,60,8.0,0.0
10049,50.0,0,60,11.0,0.0
10050,47.0,0,60,11.0,0.0
10051,71.0,30,60,8.0,0.0
10052,79.0,0,90,6.0,0.0
10053,86.0,0,60,0.0,0.0
10054,79.0,19,90,7.0,0.0
10055,77.0,60,240,1.0,0.0
10056,74.0,0,240,1.0,0.0
10057,59.0,0,60,10.0,0.0
10058,50.0,0,60,11.0,0.0
10059,89.0,0,60,0.0,0.0
10060,74.0,0,60,8.0,0.0
10061,62.0,21,60,10.0,0.0
10062,82.0,0,20,0.0,0.0
10063,43.0,10,20,11.0,0.0
10064,59.0,0,30,2.0,0.0
10065,67.0,0,20,8.0,0.0
10066,55.0,0,20,10.0,0.0
10067,55.0,50,30,2.0,0.0
10068,59.0,0,20,10.0,0.0
10069,79.0,1,60,7.0,0.0
10070,47.0,39,20,11.0,0.0
10071,86.0,0,20,0.0,0.0
10072,79.0,0,60,6.0,0.0
10073,71.0,0,20,8.0,0.0
10074,75.0,40,60,6.0,0.0
10075,60.0,19,90,2.0,0.0
10076,48.0,0,90,11.0,0.0
10077,75.0,0,60,7.0,0.0
10078,60.0,0,90,10.0,0.0
10079,72.0,0,90,8.0,0.0
10080,87.0,0,60,0.0,0.0
10081,75.0,0,90,1.0,0.0
10082,72.0,0,90,1.0,0.0
10083,63.0,0,90,2.0,0.0
10084,79.0,0,60,7.0,0.0
10085,79.0,0,60,6.0,0.0
10086,91.0,21,60,0.0,0.0
10087,75.0,0,20,7.0,0.0
10088,75.0,60,20,6.0,0.0
10089,87.0,0,20,0.0,0.0
10090,67.0,0,60,8.0,0.0
10091,74.0,0,20,6.0,0.0
10092,55.0,61,60,11.0,0.0
10093,67.0,0,60,10.0,0.0
10094,86.0,0,20,0.0,0.0
10095,74.0,39,20,7.0,0.0
10096,72.0,0,60,6.0,0.0
10097,51.0,0,60,11.0,0.0
10098,63.0,0,60,10.0,0.0
10099,63.0,0,60,8.0,0.0
10100,72.0,59,60,7.0,0.0
10101,84.0,0,60,0.0,0.0
10102,55.0,0,60,11.0,0.0
10103,75.0,0,60,6.0,0.0
10104,75.0,0,60,7.0,0.0
10105,67.0,0,60,10.0,0.0
10106,87.0,21,60,0.0,0.0
10107,67.0,0,60,8.0,0.0
10108,51.0,0,20,11.0,0.0
10109,72.0,0,20,6.0,0.0
10110,72.0,60,20,7.0,0.0
10111,63.0,0,20,8.0,0.0
10112,63.0,0,20,10.0,0.0
10113,84.0,0,20,0.0,0.0
10114,62.0,0,20,8.0,0.0
10115,70.0,0,20,7.0,0.0
10116,82.0,0,20,0.0,0.0
10117,50.0,0,20,11.0,0.0
10118,70.0,39,20,6.0,0.0
10119,62.0,0,20,10.0,0.0
10120,67.0,0,60,1.0,0.0
10121,55.0,60,60,2.0,0.0
10122,60.0,0,60,8.0,0.0
10123,66.0,0,60,1.0,0.0
10124,60.0,0,60,10.0,0.0
10125,54.0,1,60,2.0,0.0
10126,69.0,0,60,7.0,0.0
10127,48.0,59,60,11.0,0.0
10128,69.0,0,60,6.0,0.0
10129,81.0,0,60,0.0,0.0
10130,72.0,0,60,7.0,0.0
10131,84.0,0,60,0.0,0.0
10132,63.0,0,60,10.0,0.0
10133,63.0,0,60,8.0,0.0
10134,67.0,0,60,1.0,0.0
10135,72.0,21,60,6.0,0.0
10136,51.0,0,60,11.0,0.0
10137,55.0,0,60,2.0,0.0
10138,48.0,0,20,11.0,0.0
10139,69.0,21,60,1.0,0.0
10140,60.0,0,20,10.0,0.0
10141,57.0,0,60,2.0,0.0
10142,69.0,0,20,6.0,0.0
10143,60.0,39,20,8.0,0.0
10144,81.0,0,20,0.0,0.0
10145,69.0,0,20,7.0,0.0
10146,67.0,0,20,6.0,0.0
10147,67.0,0,20,7.0,0.0
10148,58.0,39,20,10.0,0.0
10149,58.0,0,60,2.0,0.0
10150,46.0,0,20,11.0,0.0
10151,70.0,21,60,1.0,0.0
10152,79.0,0,20,0.0,0.0
10153,58.0,0,20,8.0,0.0
10154,57.0,0,20,10.0,0.0
10155,78.0,0,90,0.0,0.0
10156,57.0,39,20,8.0,0.0
10157,66.0,0,90,7.0,0.0
10158,60.0,21,60,2.0,0.0
10159,45.0,0,20,11.0,0.0
10160,72.0,0,60,1.0,0.0
10161,66.0,19,90,6.0,0.0
10162,48.0,0,20,11.0,0.0
10163,60.0,0,20,10.0,0.0
10164,75.0,21,60,1.0,0.0
10165,60.0,20,20,8.0,0.0
10166,63.0,0,60,2.0,0.0
10167,50.0,39,20,10.0,0.0
10168,84.0,19,90,0.0,0.0
10169,62.0,0,20,8.0,0.0
10170,62.0,0,90,7.0,0.0
10171,62.0,0,60,2.0,0.0
10172,72.0,0,90,7.0,0.0
10173,62.0,0,90,6.0,0.0
10174,38.0,0,20,11.0,0.0
10175,72.0,0,90,6.0,0.0
10176,74.0,21,60,1.0,0.0
10177,42.0,20,20,11.0,0.0
10178,72.0,0,60,1.0,0.0
10179,54.0,0,20,10.0,0.0
10180,66.0,0,20,8.0,0.0
10181,60.0,101,60,2.0,0.0
10182,58.0,0,90,2.0,0.0
10183,62.0,0,90,6.0,0.0
10184,70.0,0,90,6.0,0.0
10185,55.0,0,180,10.0,0.0
10186,70.0,0,90,1.0,0.0
10187,67.0,0,180,8.0,0.0
10188,70.0,80,90,7.0,0.0
10189,62.0,0,90,7.0,0.0
10190,82.0,0,90,0.0,0.0
10191,43.0,40,180,11.0,0.0
10192,62.0,0,90,7.0,0.0
10193,70.0,19,90,6.0,0.0
10194,79.0,0,90,6.0,0.0
10195,70.0,0,90,7.0,0.0
10196,62.0,0,90,6.0,0.0
10197,79.0,0,90,7.0,0.0
10198,58.0,0,60,10.0,0.0
10199,46.0,101,60,11.0,0.0
10200,70.0,0,60,8.0,0.0
10201,51.0,0,180,10.0,0.0
10202,63.0,0,180,8.0,0.0
10203,39.0,40,180,11.0,0.0
10204,55.0,0,90,2.0,0.0
10205,60.0,0,90,2.0,0.0
10206,79.0,0,90,0.0,0.0
10207,72.0,0,90,1.0,0.0
10208,75.0,80,90,1.0,0.0
10209,55.0,0,90,6.0,0.0
10210,72.0,0,90,6.0,0.0
10211,63.0,0,90,6.0,0.0
10212,63.0,0,90,7.0,0.0
10213,55.0,19,90,7.0,0.0
10214,72.0,0,90,7.0,0.0
10215,48.0,0,60,11.0,0.0
10216,72.0,61,60,8.0,0.0
10217,60.0,0,60,10.0,0.0
10218,84.0,0,90,1.0,0.0
10219,63.0,19,90,2.0,0.0
10220,60.0,0,90,2.0,0.0
10221,57.0,0,60,10.0,0.0
10222,78.0,0,90,1.0,0.0
10223,69.0,40,60,8.0,0.0
10224,45.0,0,60,11.0,0.0
10225,87.0,0,90,0.0,0.0
10226,63.0,0,60,10.0,0.0
10227,51.0,0,60,11.0,0.0
10228,75.0,21,60,8.0,0.0
10229,75.0,0,90,7.0,0.0
10230,72.0,0,20,8.0,0.0
10231,75.0,0,90,6.0,0.0
10232,84.0,40,90,7.0,0.0
10233,84.0,0,90,6.0,0.0
10234,60.0,0,20,10.0,0.0
10235,48.0,60,20,11.0,0.0
10236,69.0,0,20,8.0,0.0
10237,45.0,20,20,11.0,0.0
10238,57.0,0,20,10.0,0.0
10239,54.0,60,20,10.0,0.0
10240,66.0,0,20,8.0,0.0
10241,60.0,40,90,2.0,0.0
10242,74.0,0,90,0.0,0.0
10243,57.0,0,90,2.0,0.0
10244,69.0,0,90,1.0,0.0
10245,42.0,0,20,11.0,0.0
10246,72.0,0,90,1.0,0.0
10247,55.0,0,20,10.0,0.0
10248,67.0,20,20,8.0,0.0
10249,43.0,0,20,11.0,0.0
10250,72.0,0,90,7.0,0.0
10251,57.0,0,20,10.0,0.0
10252,72.0,0,90,6.0,0.0
10253,69.0,60,20,8.0,0.0
10254,45.0,0,20,11.0,0.0
10255,62.0,0,90,7.0,0.0
10256,62.0,50,90,6.0,0.0
10257,58.0,0,20,10.0,0.0
10258,46.0,0,20,11.0,0.0
10259,70.0,20,20,8.0,0.0
10260,58.0,0,90,2.0,0.0
10261,55.0,0,90,2.0,0.0
10262,67.0,0,30,8.0,0.0
10263,43.0,70,30,11.0,0.0
10264,55.0,0,30,10.0,0.0
10265,67.0,0,90,1.0,0.0
10266,74.0,0,90,0.0,0.0
10267,70.0,0,180,6.0,0.0
10268,70.0,50,90,1.0,0.0
10269,70.0,59,180,7.0,0.0
10270,67.0,0,30,8.0,0.0
10271,43.0,0,30,11.0,0.0
10272,55.0,30,30,10.0,0.0
10273,74.0,0,60,7.0,0.0
10274,74.0,101,60,6.0,0.0
10275,67.0,0,150,6.0,0.0
10276,67.0,79,150,7.0,0.0
10277,73.0,0,90,1.0,0.0
10278,64.0,50,90,2.0,0.0
10279,76.0,0,90,1.0,0.0
10280,82.0,0,90,0.0,0.0
10281,67.0,0,90,2.0,0.0
10282,52.0,0,30,10.0,0.0
10283,40.0,10,30,11.0,0.0
10284,64.0,0,30,8.0,0.0
10285,82.0,0,60,7.0,0.0
10286,82.0,61,60,6.0,0.0
10287,79.0,40,60,7.0,0.0
10288,64.0,0,90,2.0,0.0
10289,61.0,19,90,2.0,0.0
10290,79.0,0,90,1.0,0.0
10291,82.0,0,90,1.0,0.0
10292,88.0,0,90,0.0,0.0
10293,79.0,0,60,6.0,0.0
10294,82.0,21,60,7.0,0.0
10295,82.0,0,60,6.0,0.0
10296,49.0,50,30,10.0,0.0
10297,76.0,0,20,6.0,0.0
10298,37.0,0,30,11.0,0.0
10299,61.0,0,30,8.0,0.0
10300,76.0,10,20,7.0,0.0
10301,79.0,0,20,6.0,0.0
10302,79.0,60,20,7.0,0.0
10303,85.0,0,90,0.0,0.0
10304,73.0,60,20,7.0,0.0
10305,64.0,40,90,2.0,0.0
10306,73.0,0,20,6.0,0.0
10307,79.0,0,90,1.0,0.0
10308,81.0,0,90,1.0,0.0
10309,57.0,0,90,2.0,0.0
10310,76.0,20,20,6.0,0.0
10311,76.0,0,20,7.0,0.0
10312,69.0,0,20,6.0,0.0
10313,33.0,0,30,11.0,0.0
10314,45.0,50,30,10.0,0.0
10315,69.0,10,20,7.0,0.0
10316,57.0,0,30,8.0,0.0
10317,81.0,70,20,6.0,0.0
10318,81.0,0,20,7.0,0.0
10319,62.0,10,330,2.0,0.0
10320,65.0,0,240,2.0,0.0
10321,77.0,0,30,6.0,0.0
10322,50.0,0,60,11.0,0.0
10323,86.0,0,360,0.0,0.0
10324,77.0,30,30,7.0,0.0
10325,77.0,30,210,1.0,0.0
10326,62.0,59,60,10.0,0.0
10327,74.0,0,60,8.0,0.0
10328,81.0,20,120,1.0,0.0
10329,65.0,0,60,10.0,0.0
10330,53.0,0,60,11.0,0.0
10331,77.0,1,60,8.0,0.0
10332,74.0,50,30,6.0,0.0
10333,80.0,20,120,1.0,0.0
10334,47.0,0,20,11.0,0.0
10335,74.0,0,30,7.0,0.0
10336,59.0,10,20,10.0,0.0
10337,71.0,0,20,8.0,0.0
10338,50.0,0,20,11.0,0.0
10339,74.0,0,20,8.0,0.0
10340,62.0,10,20,10.0,0.0
10341,71.0,0,30,6.0,0.0
10342,64.0,20,120,2.0,0.0
10343,76.0,20,90,1.0,0.0
10344,83.0,0,90,1.0,0.0
10345,56.0,0,20,10.0,0.0
10346,68.0,10,20,8.0,0.0
10347,44.0,0,20,11.0,0.0
10348,71.0,50,30,7.0,0.0
10349,71.0,0,20,8.0,0.0
10350,59.0,0,20,10.0,0.0
10351,47.0,10,20,11.0,0.0
10352,64.0,39,20,8.0,0.0
10353,76.0,19,90,1.0,0.0
10354,74.0,0,60,1.0,0.0
10355,40.0,0,20,11.0,0.0
10356,52.0,0,20,10.0,0.0
10357,56.0,0,90,2.0,0.0
10358,62.0,21,60,2.0,0.0
10359,80.0,30,120,0.0,0.0
10360,59.0,0,60,2.0,0.0
10361,71.0,0,60,1.0,0.0
10362,80.0,0,60,7.0,0.0
10363,64.0,0,20,10.0,0.0
10364,80.0,1,60,6.0,0.0
10365,52.0,0,20,11.0,0.0
10366,76.0,20,20,8.0,0.0
10367,72.0,30,30,8.0,0.0
10368,81.0,40,60,7.0,0.0
10369,60.0,0,30,10.0,0.0
10370,81.0,0,90,0.0,0.0
10371,57.0,0,90,2.0,0.0
10372,76.0,0,90,1.0,0.0
10373,69.0,19,90,1.0,0.0
10374,81.0,0,60,6.0,0.0
10375,48.0,0,30,11.0,0.0
10376,84.0,0,60,6.0,0.0
10377,84.0,21,60,7.0,0.0
10378,57.0,50,30,10.0,0.0
10379,69.0,0,30,8.0,0.0
10380,45.0,0,30,11.0,0.0
10381,57.0,0,120,2.0,0.0
10382,77.0,10,20,7.0,0.0
10383,89.0,0,120,0.0,0.0
10384,77.0,20,120,1.0,0.0
10385,60.0,0,120,2.0,0.0
10386,72.0,0,120,1.0,0.0
10387,77.0,0,20,6.0,0.0
10388,81.0,0,20,7.0,0.0
10389,81.0,40,20,6.0,0.0
10390,71.0,0,120,1.0,0.0
10391,76.0,0,120,1.0,0.0
10392,43.0,0,30,11.0,0.0
10393,88.0,20,120,0.0,0.0
10394,76.0,10,20,7.0,0.0
10395,55.0,0,120,2.0,0.0
10396,67.0,0,30,8.0,0.0
10397,55.0,50,30,10.0,0.0
10398,76.0,0,20,6.0,0.0
10399,59.0,0,120,2.0,0.0
10400,81.0,0,20,6.0,0.0
10401,81.0,40,20,7.0,0.0
10402,75.0,10,20,6.0,0.0
10403,75.0,0,90,1.0,0.0
10404,69.0,0,90,1.0,0.0
10405,87.0,0,90,0.0,0.0
10406,65.0,0,30,8.0,0.0
10407,75.0,0,20,7.0,0.0
10408,53.0,50,90,2.0,0.0
10409,57.0,0,90,2.0,0.0
10410,53.0,50,30,10.0,0.0
10411,41.0,0,30,11.0,0.0
10412,81.0,20,20,7.0,0.0
10413,81.0,0,20,6.0,0.0
10414,52.0,0,90,2.0,0.0
10415,56.0,0,90,2.0,0.0
10416,76.0,0,90,1.0,0.0
10417,88.0,0,90,0.0,0.0
10418,80.0,19,90,7.0,0.0
10419,52.0,0,90,10.0,0.0
10420,68.0,0,90,1.0,0.0
10421,40.0,0,90,11.0,0.0
10422,64.0,30,30,8.0,0.0
10423,80.0,40,60,6.0,0.0
10424,83.0,21,60,6.0,0.0
10425,80.0,60,20,6.0,0.0
10426,76.0,60,20,6.0,0.0
10427,75.0,10,20,6.0,0.0
10428,64.0,50,30,8.0,0.0
10429,72.0,0,30,7.0,0.0
10430,69.0,0,30,7.0,0.0
10431,76.0,60,20,6.0,0.0
10432,69.0,50,30,7.0,0.0
10433,64.0,0,30,8.0,0.0
10434,78.0,10,20,6.0,0.0
10435,72.0,0,30,7.0,0.0
10436,75.0,70,20,6.0,0.0
10437,76.0,40,60,6.0,0.0
10438,71.0,0,90,7.0,0.0
10439,68.0,19,90,7.0,0.0
10440,64.0,30,30,8.0,0.0
10441,83.0,21,60,6.0,0.0
10442,80.0,60,20,6.0,0.0
10443,76.0,60,20,6.0,0.0
10444,69.0,50,30,7.0,0.0
10445,64.0,0,30,8.0,0.0
10446,72.0,0,30,7.0,0.0
10447,75.0,10,20,6.0,0.0
10448,76.0,60,20,6.0,0.0
10449,64.0,0,30,8.0,0.0
10450,72.0,0,30,7.0,0.0
10451,69.0,50,30,7.0,0.0
10452,78.0,10,20,6.0,0.0
10453,75.0,60,20,6.0,0.0
10454,76.0,60,20,1.0,0.0
10455,76.0,40,90,6.0,0.0
10456,71.0,0,90,7.0,0.0
10457,64.0,0,90,8.0,0.0
10458,68.0,0,90,7.0,0.0
10459,83.0,20,20,1.0,0.0
10460,80.0,60,20,1.0,0.0
10461,76.0,100,20,1.0,0.0
10462,81.0,0,60,1.0,0.0
10463,72.0,40,60,1.0,0.0
10464,64.0,20,90,2.0,0.0
10465,87.0,60,240,0.0,0.0
10466,83.0,60,60,1.0,0.0
10467,71.0,0,60,1.0,0.0
10468,84.0,40,60,1.0,0.0
10469,69.0,0,60,1.0,0.0
10470,64.0,19,90,2.0,0.0
10471,81.0,1,60,1.0,0.0
10472,72.0,0,60,1.0,0.0
10473,88.0,20,120,0.0,0.0
10474,71.0,0,90,1.0,0.0
10475,80.0,40,60,1.0,0.0
10476,64.0,19,90,2.0,0.0
10477,83.0,1,60,1.0,0.0
10478,80.0,60,20,1.0,0.0
10479,76.0,100,20,1.0,0.0
10480,64.0,20,90,2.0,0.0
10481,87.0,60,240,0.0,0.0
10482,72.0,40,60,1.0,0.0
10483,81.0,0,60,1.0,0.0
10484,83.0,60,60,1.0,0.0
10485,71.0,0,60,1.0,0.0
10486,69.0,0,60,1.0,0.0
10487,64.0,19,90,2.0,0.0
10488,84.0,40,60,1.0,0.0
10489,81.0,0,60,1.0,0.0
10490,72.0,1,60,1.0,0.0
10491,71.0,0,90,1.0,0.0
10492,80.0,19,90,1.0,0.0
10493,88.0,20,120,0.0,0.0
10494,71.0,0,930,7.0,0.0
10495,52.0,60,480,11.0,0.0
10496,64.0,0,480,10.0,0.0
10497,68.0,30,930,8.0,0.0
10498,64.0,0,90,2.0,0.0
10499,76.0,40,60,6.0,0.0
10500,83.0,1,60,6.0,0.0
10501,80.0,60,20,6.0,0.0
10502,75.0,60,20,6.0,0.0
10503,76.0,60,20,6.0,0.0
10504,83.0,60,20,6.0,0.0
10505,80.0,60,20,6.0,0.0
10506,75.0,40,20,6.0,0.0
10507,62.0,0,480,10.0,0.0
10508,50.0,60,480,11.0,0.0
10509,76.0,59,60,6.0,0.0
10510,83.0,21,60,6.0,0.0
10511,80.0,60,20,6.0,0.0
10512,75.0,60,20,6.0,0.0
10513,76.0,60,20,6.0,0.0
10514,83.0,60,20,6.0,0.0
10515,80.0,60,20,6.0,0.0
10516,75.0,10,20,6.0,0.0
10517,76.0,59,60,6.0,0.0
10518,70.0,19,570,7.0,0.0
10519,49.0,0,480,11.0,0.0
10520,67.0,0,570,8.0,0.0
10521,61.0,60,480,10.0,0.0
10522,82.0,21,60,6.0,0.0
10523,79.0,60,20,6.0,0.0
10524,75.0,60,20,6.0,0.0
10525,76.0,60,20,6.0,0.0
10526,82.0,60,20,6.0,0.0
10527,79.0,60,20,6.0,0.0
10528,75.0,40,20,6.0,0.0
10529,76.0,40,60,6.0,0.0
10530,60.0,0,90,10.0,0.0
10531,48.0,0,90,11.0,0.0
10532,82.0,21,60,6.0,0.0
10533,79.0,60,20,6.0,0.0
10534,76.0,60,20,6.0,0.0
10535,72.0,60,20,6.0,0.0
10536,70.0,60,20,6.0,0.0
10537,67.0,60,20,6.0,0.0
10538,64.0,140,20,6.0,0.0
10539,41.0,0,90,11.0,0.0
10540,53.0,0,90,10.0,0.0
10541,65.0,0,90,7.0,0.0
10542,65.0,100,90,8.0,0.0
10543,53.0,0,240,2.0,0.0
10544,65.0,0,90,6.0,0.0
10545,48.0,0,20,10.0,0.0
10546,60.0,20,20,7.0,0.0
10547,36.0,0,20,11.0,0.0
10548,60.0,0,20,6.0,0.0
10549,60.0,0,20,8.0,0.0
10550,50.0,20,20,10.0,0.0
10551,62.0,0,20,7.0,0.0
10552,38.0,0,20,11.0,0.0
10553,62.0,0,20,6.0,0.0
10554,62.0,0,20,8.0,0.0
10555,40.0,0,20,11.0,0.0
10556,64.0,0,20,7.0,0.0
10557,64.0,0,20,6.0,0.0
10558,64.0,100,20,8.0,0.0
10559,52.0,0,20,10.0,0.0
10560,41.0,0,90,11.0,0.0
10561,65.0,21,300,2.0,0.0
10562,53.0,100,90,10.0,0.0
10563,65.0,0,90,7.0,0.0
10564,57.0,0,300,2.0,0.0
10565,65.0,0,90,8.0,0.0
10566,65.0,0,90,6.0,0.0
10567,60.0,0,20,6.0,0.0
10568,60.0,0,20,8.0,0.0
10569,36.0,20,20,11.0,0.0
10570,48.0,0,20,10.0,0.0
10571,60.0,0,20,7.0,0.0
10572,50.0,20,20,10.0,0.0
10573,62.0,0,20,6.0,0.0
10574,62.0,0,20,8.0,0.0
10575,62.0,0,20,7.0,0.0
10576,38.0,0,20,11.0,0.0
10577,64.0,0,20,6.0,0.0
10578,52.0,59,20,10.0,0.0
10579,64.0,0,20,8.0,0.0
10580,40.0,0,20,11.0,0.0
10581,64.0,0,20,7.0,0.0
10582,41.0,0,90,11.0,0.0
10583,65.0,0,90,6.0,0.0
10584,65.0,0,90,7.0,0.0
10585,65.0,40,90,8.0,0.0
10586,53.0,0,90,10.0,0.0
10587,64.0,20,20,2.0,0.0
10588,60.0,0,20,2.0,0.0
10589,62.0,60,20,2.0,0.0
10590,58.0,0,20,2.0,0.0
10591,57.0,60,20,2.0,0.0
10592,60.0,0,20,2.0,0.0
10593,58.0,60,20,2.0,0.0
10594,55.0,0,20,2.0,0.0
10595,53.0,60,20,2.0,0.0
10596,57.0,0,20,2.0,0.0
10597,55.0,60,20,2.0,0.0
10598,52.0,0,20,2.0,0.0
10599,65.0,181,60,7.0,0.0
10600,77.0,0,60,6.0,0.0
10601,53.0,39,20,2.0,0.0
10602,55.0,0,240,2.0,0.0
10603,58.0,0,240,2.0,0.0
10604,77.0,60,180,6.0,0.0
10605,65.0,0,180,7.0,0.0
10606,72.0,0,810,3.0,0.0
10607,60.0,0,810,3.0,0.0
10608,76.0,180,60,6.0,0.0
10609,64.0,0,60,7.0,0.0
10610,67.0,30,180,7.0,0.0
10611,79.0,0,180,6.0,0.0
10612,57.0,0,210,2.0,0.0
10613,53.0,29,210,2.0,0.0
10614,77.0,0,60,6.0,0.0
10615,65.0,241,60,7.0,0.0
10616,55.0,10,330,2.0,0.0
10617,52.0,0,330,2.0,0.0
10618,84.0,90,240,6.0,0.0
10619,72.0,0,240,7.0,0.0
10620,82.0,0,90,6.0,0.0
10621,70.0,240,90,7.0,0.0
10622,60.0,0,90,7.0,0.0
10623,67.0,10,210,0.0,0.0
10624,60.0,50,690,2.0,0.0
10625,48.0,0,90,10.0,0.0
10626,60.0,0,90,8.0,0.0
10627,60.0,0,90,6.0,0.0
10628,70.0,100,240,1.0,0.0
10629,36.0,100,90,11.0,0.0
10630,31.0,0,20,11.0,0.0
10631,43.0,0,20,10.0,0.0
10632,55.0,10,20,7.0,0.0
10633,55.0,0,20,8.0,0.0
10634,55.0,0,20,6.0,0.0
10635,45.0,0,20,10.0,0.0
10636,57.0,0,20,7.0,0.0
10637,57.0,0,20,8.0,0.0
10638,33.0,0,20,11.0,0.0
10639,57.0,20,20,6.0,0.0
10640,59.0,0,20,7.0,0.0
10641,59.0,0,20,6.0,0.0
10642,47.0,0,20,10.0,0.0
10643,59.0,0,20,8.0,0.0
10644,35.0,0,20,11.0,0.0
10645,60.0,0,90,8.0,0.0
10646,60.0,100,90,6.0,0.0
10647,36.0,0,90,11.0,0.0
10648,48.0,0,90,10.0,0.0
10649,82.0,21,300,1.0,0.0
10650,79.0,0,300,0.0,0.0
10651,60.0,0,90,7.0,0.0
10652,55.0,0,20,8.0,0.0
10653,31.0,20,20,11.0,0.0
10654,55.0,0,20,7.0,0.0
10655,55.0,0,20,6.0,0.0
10656,43.0,0,20,10.0,0.0
10657,57.0,0,20,7.0,0.0
10658,57.0,0,20,6.0,0.0
10659,57.0,0,20,8.0,0.0
10660,45.0,20,20,10.0,0.0
10661,33.0,0,20,11.0,0.0
10662,35.0,0,20,11.0,0.0
10663,59.0,0,20,8.0,0.0
10664,59.0,0,20,6.0,0.0
10665,59.0,59,20,7.0,0.0
10666,47.0,0,20,10.0,0.0
10667,60.0,0,90,7.0,0.0
10668,60.0,0,90,6.0,0.0
10669,36.0,0,90,11.0,0.0
10670,48.0,40,90,10.0,0.0
10671,60.0,0,90,8.0,0.0
10672,77.0,20,20,0.0,0.0
10673,81.0,0,20,1.0,0.0
10674,79.0,0,20,1.0,0.0
10675,76.0,60,20,0.0,0.0
10676,77.0,0,20,1.0,0.0
10677,74.0,10,20,0.0,0.0
10678,72.0,60,20,0.0,0.0
10679,76.0,0,20,1.0,0.0
10680,60.0,40,150,2.0,0.0
10681,70.0,0,20,0.0,0.0
10682,74.0,60,20,1.0,0.0
10683,69.0,20,20,0.0,0.0
10684,72.0,0,20,1.0,0.0
10685,70.0,0,20,1.0,0.0
10686,61.0,101,60,2.0,0.0
10687,67.0,39,20,0.0,0.0
10688,72.0,0,240,1.0,0.0
10689,38.0,100,90,11.0,0.0
10690,62.0,0,90,8.0,0.0
10691,62.0,0,90,6.0,0.0
10692,62.0,0,90,7.0,0.0
10693,62.0,50,690,2.0,0.0
10694,69.0,0,240,1.0,0.0
10695,50.0,0,90,10.0,0.0
10696,67.0,10,450,0.0,0.0
10697,57.0,0,20,7.0,0.0
10698,33.0,0,20,11.0,0.0
10699,45.0,20,20,10.0,0.0
10700,57.0,0,20,6.0,0.0
10701,57.0,0,20,8.0,0.0
10702,59.0,20,20,6.0,0.0
10703,59.0,0,20,8.0,0.0
10704,59.0,0,20,7.0,0.0
10705,47.0,0,20,10.0,0.0
10706,35.0,0,20,11.0,0.0
10707,61.0,100,20,7.0,0.0
10708,49.0,0,20,10.0,0.0
10709,37.0,0,20,11.0,0.0
10710,61.0,0,20,8.0,0.0
10711,61.0,0,20,6.0,0.0
10712,62.0,0,90,6.0,0.0
10713,38.0,100,90,11.0,0.0
10714,62.0,0,90,8.0,0.0
10715,50.0,0,90,10.0,0.0
10716,81.0,0,300,1.0,0.0
10717,62.0,0,90,7.0,0.0
10718,84.0,21,300,1.0,0.0
10719,57.0,0,20,8.0,0.0
10720,57.0,0,20,6.0,0.0
10721,45.0,0,20,10.0,0.0
10722,57.0,10,20,7.0,0.0
10723,33.0,0,20,11.0,0.0
10724,59.0,0,20,6.0,0.0
10725,59.0,0,20,8.0,0.0
10726,47.0,0,20,10.0,0.0
10727,35.0,0,20,11.0,0.0
10728,59.0,20,20,7.0,0.0
10729,61.0,59,20,7.0,0.0
10730,37.0,0,20,11.0,0.0
10731,61.0,0,20,6.0,0.0
10732,61.0,0,20,8.0,0.0
10733,49.0,0,20,10.0,0.0
10734,62.0,40,90,6.0,0.0
10735,50.0,0,90,10.0,0.0
10736,62.0,0,90,7.0,0.0
10737,62.0,0,90,8.0,0.0
10738,66.0,29,450,0.0,0.0
10739,38.0,0,90,11.0,0.0
10740,82.0,20,20,1.0,0.0
10741,79.0,0,20,1.0,0.0
10742,78.0,60,20,1.0,0.0
10743,81.0,0,20,1.0,0.0
10744,75.0,10,20,1.0,0.0
10745,79.0,0,20,1.0,0.0
10746,78.0,0,20,1.0,0.0
10747,62.0,40,150,2.0,0.0
10748,74.0,60,20,1.0,0.0
10749,72.0,0,20,1.0,0.0
10750,75.0,60,20,1.0,0.0
10751,74.0,20,20,1.0,0.0
10752,70.0,0,20,1.0,0.0
10753,63.0,101,60,2.0,0.0
10754,69.0,10,20,1.0,0.0
10755,72.0,0,20,1.0,0.0
10756,64.0,0,930,2.0,0.0
10757,64.0,0,90,7.0,0.0
10758,64.0,100,90,6.0,0.0
10759,40.0,0,90,11.0,0.0
10760,64.0,0,90,8.0,0.0
10761,71.0,10,210,1.0,0.0
10762,69.0,10,450,1.0,0.0
10763,74.0,0,210,0.0,0.0
10764,52.0,0,90,10.0,0.0
10765,59.0,10,20,8.0,0.0
10766,59.0,0,20,7.0,0.0
10767,35.0,0,20,11.0,0.0
10768,47.0,0,20,10.0,0.0
10769,59.0,0,20,6.0,0.0
10770,61.0,0,20,6.0,0.0
10771,61.0,0,20,8.0,0.0
10772,37.0,0,20,11.0,0.0
10773,49.0,0,20,10.0,0.0
10774,61.0,20,20,7.0,0.0
10775,63.0,0,20,8.0,0.0
10776,63.0,100,20,7.0,0.0
10777,51.0,0,20,10.0,0.0
10778,63.0,0,20,6.0,0.0
10779,39.0,0,20,11.0,0.0
10780,64.0,0,90,8.0,0.0
10781,86.0,21,300,0.0,0.0
10782,40.0,0,90,11.0,0.0
10783,52.0,0,90,10.0,0.0
10784,64.0,100,90,7.0,0.0
10785,64.0,0,90,6.0,0.0
10786,83.0,0,300,1.0,0.0
10787,59.0,0,20,6.0,0.0
10788,59.0,0,20,7.0,0.0
10789,59.0,10,20,8.0,0.0
10790,47.0,0,20,10.0,0.0
10791,35.0,0,20,11.0,0.0
10792,61.0,0,20,6.0,0.0
10793,49.0,0,20,10.0,0.0
10794,61.0,0,20,8.0,0.0
10795,37.0,0,20,11.0,0.0
10796,61.0,20,20,7.0,0.0
10797,51.0,0,20,10.0,0.0
10798,63.0,0,20,7.0,0.0
10799,39.0,0,20,11.0,0.0
10800,63.0,59,20,6.0,0.0
10801,63.0,0,20,8.0,0.0
10802,64.0,0,90,8.0,0.0
10803,40.0,0,90,11.0,0.0
10804,52.0,0,90,10.0,0.0
10805,64.0,0,90,6.0,0.0
10806,68.0,60,450,1.0,0.0
10807,64.0,19,90,7.0,0.0
10808,81.0,21,60,1.0,0.0
10809,84.0,20,20,0.0,0.0
10810,83.0,0,20,0.0,0.0
10811,80.0,60,20,1.0,0.0
10812,81.0,0,20,0.0,0.0
10813,77.0,60,20,1.0,0.0
10814,76.0,0,20,1.0,0.0
10815,80.0,60,20,0.0,0.0
10816,74.0,0,20,1.0,0.0
10817,77.0,60,20,0.0,0.0
10818,76.0,0,20,0.0,0.0
10819,72.0,60,20,1.0,0.0
10820,74.0,0,20,0.0,0.0
10821,71.0,10,20,1.0,0.0
10822,64.0,0,90,2.0,0.0
10823,45.0,0,30,10.0,0.0
10824,64.0,0,90,4.0,0.0
10825,60.0,0,90,4.0,0.0
10826,57.0,50,90,6.0,0.0
10827,57.0,0,30,8.0,0.0
10828,69.0,0,90,1.0,0.0
10829,64.0,0,90,3.0,0.0
10830,60.0,0,90,3.0,0.0
10831,48.0,0,90,5.0,0.0
10832,57.0,0,90,7.0,0.0
10833,33.0,0,30,11.0,0.0
10834,72.0,70,30,0.0,0.0
10835,84.0,0,30,0.0,0.0
10836,60.0,0,30,2.0,0.0
10837,72.0,0,30,1.0,0.0
10838,76.0,0,30,1.0,0.0
10839,69.0,50,30,8.0,0.0
10840,64.0,0,30,2.0,0.0
10841,57.0,0,30,10.0,0.0
10842,45.0,0,30,11.0,0.0
10843,68.0,0,20,7.0,0.0
10844,80.0,20,20,6.0,0.0
10845,81.0,20,20,6.0,0.0
10846,69.0,0,20,7.0,0.0
10847,71.0,0,20,7.0,0.0
10848,83.0,100,20,6.0,0.0
10849,72.0,0,90,7.0,0.0
10850,84.0,50,90,6.0,0.0
10851,69.0,0,30,8.0,0.0
10852,76.0,0,30,1.0,0.0
10853,72.0,0,30,1.0,0.0
10854,64.0,0,30,2.0,0.0
10855,60.0,0,30,2.0,0.0
10856,84.0,0,30,0.0,0.0
10857,57.0,45,30,10.0,0.0
10858,45.0,0,30,11.0,0.0
10859,81.0,15,15,6.0,0.0
10860,69.0,0,15,7.0,0.0
10861,79.0,0,15,6.0,0.0
10862,67.0,15,15,7.0,0.0
10863,66.0,0,15,7.0,0.0
10864,78.0,14,15,6.0,0.0
10865,64.0,0,15,7.0,0.0
10866,76.0,101,15,6.0,0.0
10867,75.0,50,90,6.0,0.0
10868,63.0,0,90,7.0,0.0
10869,66.0,0,30,2.0,0.0
10870,75.0,0,30,1.0,0.0
10871,69.0,0,30,8.0,0.0
10872,83.0,0,30,0.0,0.0
10873,45.0,0,30,11.0,0.0
10874,57.0,50,30,10.0,0.0
10875,71.0,0,30,1.0,0.0
10876,63.0,0,30,2.0,0.0
10877,66.0,20,20,7.0,0.0
10878,78.0,0,20,6.0,0.0
10879,67.0,0,20,7.0,0.0
10880,79.0,20,20,6.0,0.0
10881,81.0,0,20,6.0,0.0
10882,69.0,100,20,7.0,0.0
10883,83.0,50,90,6.0,0.0
10884,71.0,0,90,7.0,0.0
10885,69.0,0,30,8.0,0.0
10886,57.0,0,30,10.0,0.0
10887,83.0,0,30,1.0,0.0
10888,63.0,0,30,2.0,0.0
10889,45.0,0,30,11.0,0.0
10890,87.0,50,30,0.0,0.0
10891,78.0,0,30,1.0,0.0
10892,66.0,0,30,2.0,0.0
10893,71.0,0,20,7.0,0.0
10894,83.0,20,20,6.0,0.0
10895,73.0,0,20,7.0,0.0
10896,85.0,20,20,6.0,0.0
10897,75.0,0,20,7.0,0.0
10898,87.0,30,20,6.0,0.0
10899,64.0,0,90,4.0,0.0
10900,76.0,0,90,4.0,0.0
10901,56.0,70,30,10.0,0.0
10902,76.0,0,30,1.0,0.0
10903,88.0,0,30,0.0,0.0
10904,83.0,0,30,1.0,0.0
10905,64.0,0,30,2.0,0.0
10906,88.0,0,90,6.0,0.0
10907,68.0,0,30,8.0,0.0
10908,76.0,50,90,7.0,0.0
10909,76.0,0,90,3.0,0.0
10910,64.0,0,90,3.0,0.0
10911,44.0,0,30,11.0,0.0
10912,67.0,0,30,8.0,0.0
10913,71.0,0,30,1.0,0.0
10914,55.0,0,30,10.0,0.0
10915,76.0,0,30,1.0,0.0
10916,64.0,0,30,2.0,0.0
10917,43.0,0,30,11.0,0.0
10918,83.0,50,30,0.0,0.0
10919,59.0,0,30,2.0,0.0
10920,78.0,0,20,6.0,0.0
10921,66.0,20,20,7.0,0.0
10922,79.0,0,20,6.0,0.0
10923,67.0,20,20,7.0,0.0
10924,81.0,100,20,6.0,0.0
10925,69.0,0,20,7.0,0.0
10926,70.0,50,90,7.0,0.0
10927,82.0,0,90,6.0,0.0
10928,82.0,0,30,0.0,0.0
10929,67.0,0,30,8.0,0.0
10930,64.0,45,30,2.0,0.0
10931,58.0,0,30,2.0,0.0
10932,70.0,0,30,1.0,0.0
10933,76.0,0,30,1.0,0.0
10934,55.0,0,30,10.0,0.0
10935,43.0,0,30,11.0,0.0
10936,79.0,0,15,6.0,0.0
10937,67.0,15,15,7.0,0.0
10938,65.0,0,15,7.0,0.0
10939,77.0,15,15,6.0,0.0
10940,76.0,0,15,6.0,0.0
10941,64.0,15,15,7.0,0.0
10942,74.0,0,15,6.0,0.0
10943,62.0,100,15,7.0,0.0
10944,61.0,0,90,7.0,0.0
10945,73.0,50,90,6.0,0.0
10946,69.0,0,30,1.0,0.0
10947,67.0,0,30,8.0,0.0
10948,55.0,0,30,10.0,0.0
10949,61.0,0,30,2.0,0.0
10950,64.0,0,30,2.0,0.0
10951,81.0,50,30,0.0,0.0
10952,43.0,0,30,11.0,0.0
10953,73.0,0,30,1.0,0.0
10954,64.0,0,20,7.0,0.0
10955,76.0,20,20,6.0,0.0
10956,65.0,20,20,7.0,0.0
10957,77.0,0,20,6.0,0.0
10958,67.0,0,20,7.0,0.0
10959,79.0,100,20,6.0,0.0
10960,69.0,0,90,7.0,0.0
10961,81.0,50,90,6.0,0.0
10962,43.0,0,30,11.0,0.0
10963,81.0,50,30,1.0,0.0
10964,67.0,0,30,8.0,0.0
10965,76.0,0,30,1.0,0.0
10966,64.0,0,30,2.0,0.0
10967,61.0,0,30,2.0,0.0
10968,55.0,0,30,10.0,0.0
10969,85.0,0,30,0.0,0.0
10970,81.0,0,20,6.0,0.0
10971,69.0,20,20,7.0,0.0
10972,83.0,20,20,6.0,0.0
10973,71.0,0,20,7.0,0.0
10974,73.0,0,20,7.0,0.0
10975,85.0,30,20,6.0,0.0
10976,66.0,0,30,8.0,0.0
10977,74.0,0,90,7.0,0.0
10978,74.0,0,90,3.0,0.0
10979,81.0,0,30,1.0,0.0
10980,86.0,0,90,6.0,0.0
10981,42.0,0,30,11.0,0.0
10982,62.0,0,30,2.0,0.0
10983,74.0,0,30,1.0,0.0
10984,86.0,0,30,0.0,0.0
10985,74.0,50,90,4.0,0.0
10986,54.0,70,30,10.0,0.0
10987,81.0,0,30,0.0,0.0
10988,57.0,0,30,2.0,0.0
10989,62.0,0,30,2.0,0.0
10990,65.0,0,30,8.0,0.0
10991,41.0,0,30,11.0,0.0
10992,69.0,50,30,1.0,0.0
10993,74.0,0,30,1.0,0.0
10994,53.0,0,30,10.0,0.0
10995,76.0,20,20,6.0,0.0
10996,64.0,0,20,7.0,0.0
10997,77.0,0,20,6.0,0.0
10998,65.0,20,20,7.0,0.0
10999,67.0,100,20,7.0,0.0
11000,79.0,0,20,6.0,0.0
11001,68.0,0,90,7.0,0.0
11002,80.0,50,90,6.0,0.0
11003,53.0,0,30,10.0,0.0
11004,62.0,45,30,2.0,0.0
11005,80.0,0,30,0.0,0.0
11006,41.0,0,30,11.0,0.0
11007,65.0,0,30,8.0,0.0
11008,68.0,0,30,1.0,0.0
11009,74.0,0,30,1.0,0.0
11010,56.0,0,30,2.0,0.0
11011,65.0,0,15,7.0,0.0
11012,77.0,15,15,6.0,0.0
11013,63.0,15,15,7.0,0.0
11014,75.0,0,15,6.0,0.0
11015,62.0,0,15,7.0,0.0
11016,74.0,15,15,6.0,0.0
11017,72.0,0,15,6.0,0.0
11018,60.0,100,15,7.0,0.0
11019,71.0,50,90,6.0,0.0
11020,59.0,0,90,7.0,0.0
11021,53.0,0,30,10.0,0.0
11022,67.0,0,30,1.0,0.0
11023,65.0,50,30,8.0,0.0
11024,71.0,0,30,1.0,0.0
11025,62.0,0,30,2.0,0.0
11026,59.0,0,30,2.0,0.0
11027,41.0,0,30,11.0,0.0
11028,79.0,0,30,0.0,0.0
11029,62.0,0,20,7.0,0.0
11030,74.0,20,20,6.0,0.0
11031,64.0,20,20,7.0,0.0
11032,76.0,0,20,6.0,0.0
11033,78.0,0,20,6.0,0.0
11034,66.0,100,20,7.0,0.0
11035,79.0,0,90,6.0,0.0
11036,67.0,50,90,7.0,0.0
11037,53.0,0,30,10.0,0.0
11038,59.0,0,30,2.0,0.0
11039,62.0,0,30,2.0,0.0
11040,41.0,0,30,11.0,0.0
11041,83.0,0,30,0.0,0.0
11042,79.0,50,30,1.0,0.0
11043,74.0,0,30,1.0,0.0
11044,65.0,0,30,8.0,0.0
11045,67.0,20,20,7.0,0.0
11046,79.0,0,20,6.0,0.0
11047,69.0,20,20,7.0,0.0
11048,81.0,0,20,6.0,0.0
11049,71.0,30,20,7.0,0.0
11050,83.0,0,20,6.0,0.0
11051,72.0,0,90,4.0,0.0
11052,67.0,0,90,4.0,0.0
11053,72.0,0,30,1.0,0.0
11054,72.0,0,90,3.0,0.0
11055,67.0,0,90,3.0,0.0
11056,79.0,0,30,1.0,0.0
11057,60.0,0,30,2.0,0.0
11058,72.0,50,90,7.0,0.0
11059,64.0,0,30,8.0,0.0
11060,52.0,70,30,10.0,0.0
11061,40.0,0,30,11.0,0.0
11062,48.0,0,90,5.0,0.0
11063,84.0,0,30,0.0,0.0
11064,84.0,0,90,6.0,0.0
11065,63.0,0,30,8.0,0.0
11066,51.0,50,30,10.0,0.0
11067,55.0,0,30,2.0,0.0
11068,79.0,0,30,1.0,0.0
11069,60.0,0,30,2.0,0.0
11070,39.0,0,30,11.0,0.0
11071,72.0,0,30,1.0,0.0
11072,84.0,0,30,0.0,0.0
11073,79.0,20,20,6.0,0.0
11074,67.0,0,20,7.0,0.0
11075,69.0,20,20,7.0,0.0
11076,81.0,0,20,6.0,0.0
11077,83.0,100,20,6.0,0.0
11078,71.0,0,20,7.0,0.0
11079,72.0,0,90,7.0,0.0
11080,84.0,50,90,6.0,0.0
11081,84.0,0,30,0.0,0.0
11082,51.0,0,30,10.0,0.0
11083,39.0,0,30,11.0,0.0
11084,63.0,45,30,8.0,0.0
11085,72.0,0,30,1.0,0.0
11086,79.0,0,30,1.0,0.0
11087,55.0,0,30,2.0,0.0
11088,60.0,0,30,2.0,0.0
11089,72.0,0,15,7.0,0.0
11090,84.0,15,15,6.0,0.0
11091,82.0,15,15,6.0,0.0
11092,70.0,0,15,7.0,0.0
11093,68.0,15,15,7.0,0.0
11094,80.0,0,15,6.0,0.0
11095,67.0,0,15,7.0,0.0
11096,79.0,100,15,6.0,0.0
11097,72.0,0,90,3.0,0.0
11098,66.0,0,90,7.0,0.0
11099,48.0,50,90,5.0,0.0
11100,60.0,0,90,3.0,0.0
11101,72.0,0,90,4.0,0.0
11102,78.0,0,90,6.0,0.0
11103,60.0,0,90,4.0,0.0
11104,87.0,0,90,0.0,0.0
11105,44.0,0,30,10.0,0.0
11106,84.0,0,30,1.0,0.0
11107,56.0,0,30,8.0,0.0
11108,78.0,0,30,1.0,0.0
11109,32.0,0,30,11.0,0.0
11110,63.0,50,30,2.0,0.0
11111,54.0,0,30,2.0,0.0
11112,83.0,0,20,6.0,0.0
11113,71.0,20,20,7.0,0.0
11114,84.0,0,20,6.0,0.0
11115,72.0,20,20,7.0,0.0
11116,86.0,100,20,6.0,0.0
11117,74.0,0,20,7.0,0.0
11118,75.0,50,90,7.0,0.0
11119,87.0,0,90,6.0,0.0
11120,44.0,0,30,11.0,0.0
11121,66.0,0,30,2.0,0.0
11122,60.0,50,30,2.0,0.0
11123,78.0,0,90,0.0,0.0
11124,68.0,0,30,8.0,0.0
11125,56.0,0,30,10.0,0.0
11126,78.0,0,30,1.0,0.0
11127,72.0,0,30,1.0,0.0
11128,75.0,0,20,6.0,0.0
11129,63.0,20,20,7.0,0.0
11130,74.0,0,20,6.0,0.0
11131,62.0,20,20,7.0,0.0
11132,60.0,0,20,7.0,0.0
11133,72.0,30,20,6.0,0.0
11134,79.0,0,30,1.0,0.0
11135,79.0,0,90,0.0,0.0
11136,67.0,0,90,8.0,0.0
11137,59.0,0,90,7.0,0.0
11138,74.0,0,90,4.0,0.0
11139,71.0,70,30,1.0,0.0
11140,71.0,0,90,6.0,0.0
11141,74.0,0,90,3.0,0.0
11142,55.0,0,90,10.0,0.0
11143,67.0,95,90,2.0,0.0
11144,43.0,0,90,11.0,0.0
11145,43.0,0,90,5.0,0.0
11146,59.0,0,90,2.0,0.0
11147,67.0,0,90,4.0,0.0
11148,67.0,0,90,3.0,0.0
11149,86.0,0,90,6.0,0.0
11150,62.0,0,90,7.0,0.0
11151,79.0,0,90,7.0,0.0
11152,71.0,5,90,7.0,0.0
11153,55.0,0,15,10.0,0.0
11154,55.0,0,15,2.0,0.0
11155,43.0,0,15,11.0,0.0
11156,67.0,15,15,8.0,0.0
11157,45.0,10,15,11.0,0.0
11158,57.0,0,15,2.0,0.0
11159,69.0,0,15,8.0,0.0
11160,57.0,0,15,10.0,0.0
11161,59.0,0,15,2.0,0.0
11162,71.0,0,15,8.0,0.0
11163,59.0,0,15,10.0,0.0
11164,47.0,15,15,11.0,0.0
11165,60.0,0,15,10.0,0.0
11166,72.0,30,15,8.0,0.0
11167,60.0,0,15,2.0,0.0
11168,48.0,0,15,11.0,0.0
11169,62.0,0,90,2.0,0.0
11170,86.0,70,30,0.0,0.0
11171,74.0,0,90,4.0,0.0
11172,50.0,0,90,11.0,0.0
11173,62.0,0,30,1.0,0.0
11174,74.0,0,30,1.0,0.0
11175,74.0,0,90,8.0,0.0
11176,74.0,0,90,3.0,0.0
11177,62.0,50,90,10.0,0.0
11178,62.0,0,90,7.0,0.0
11179,72.0,0,90,7.0,0.0
11180,78.0,5,90,0.0,0.0
11181,69.0,45,30,1.0,0.0
11182,72.0,0,30,1.0,0.0
11183,78.0,0,90,6.0,0.0
11184,62.0,0,90,6.0,0.0
11185,69.0,0,90,6.0,0.0
11186,50.0,0,15,11.0,0.0
11187,62.0,0,15,10.0,0.0
11188,62.0,0,15,2.0,0.0
11189,74.0,15,15,8.0,0.0
11190,60.0,0,15,2.0,0.0
11191,60.0,0,15,10.0,0.0
11192,72.0,10,15,8.0,0.0
11193,48.0,0,15,11.0,0.0
11194,59.0,0,15,10.0,0.0
11195,59.0,0,15,2.0,0.0
11196,47.0,15,15,11.0,0.0
11197,71.0,0,15,8.0,0.0
11198,45.0,0,15,11.0,0.0
11199,69.0,0,15,8.0,0.0
11200,57.0,0,15,10.0,0.0
11201,57.0,30,15,2.0,0.0
11202,43.0,0,90,5.0,0.0
11203,62.0,0,90,7.0,0.0
11204,71.0,0,90,7.0,0.0
11205,71.0,70,30,1.0,0.0
11206,79.0,95,90,6.0,0.0
11207,67.0,0,90,8.0,0.0
11208,67.0,0,90,4.0,0.0
11209,67.0,0,30,1.0,0.0
11210,74.0,0,90,4.0,0.0
11211,67.0,0,90,3.0,0.0
11212,79.0,0,30,0.0,0.0
11213,43.0,0,90,11.0,0.0
11214,74.0,0,90,3.0,0.0
11215,71.0,0,90,6.0,0.0
11216,55.0,0,90,10.0,0.0
11217,62.0,0,90,6.0,0.0
11218,55.0,0,90,2.0,0.0
11219,71.0,5,90,7.0,0.0
11220,79.0,0,90,7.0,0.0
11221,62.0,0,90,7.0,0.0
11222,86.0,0,90,6.0,0.0
11223,43.0,0,15,11.0,0.0
11224,55.0,15,15,10.0,0.0
11225,55.0,0,15,2.0,0.0
11226,67.0,0,15,8.0,0.0
11227,45.0,10,15,11.0,0.0
11228,69.0,0,15,8.0,0.0
11229,57.0,0,15,2.0,0.0
11230,57.0,0,15,10.0,0.0
11231,59.0,15,15,10.0,0.0
11232,71.0,0,15,8.0,0.0
11233,59.0,0,15,2.0,0.0
11234,47.0,0,15,11.0,0.0
11235,48.0,0,15,11.0,0.0
11236,72.0,30,15,8.0,0.0
11237,60.0,0,15,2.0,0.0
11238,60.0,0,15,10.0,0.0
11239,62.0,0,90,2.0,0.0
11240,74.0,50,90,3.0,0.0
11241,62.0,0,30,1.0,0.0
11242,50.0,0,90,11.0,0.0
11243,74.0,0,90,4.0,0.0
11244,62.0,0,90,10.0,0.0
11245,74.0,70,30,1.0,0.0
11246,74.0,0,90,8.0,0.0
11247,86.0,0,30,0.0,0.0
11248,78.0,0,90,0.0,0.0
11249,69.0,0,30,1.0,0.0
11250,72.0,45,30,1.0,0.0
11251,62.0,0,90,6.0,0.0
11252,69.0,0,90,6.0,0.0
11253,78.0,0,90,6.0,0.0
11254,72.0,0,90,7.0,0.0
11255,62.0,5,90,7.0,0.0
11256,62.0,0,15,2.0,0.0
11257,50.0,0,15,11.0,0.0
11258,74.0,0,15,8.0,0.0
11259,62.0,15,15,10.0,0.0
11260,48.0,0,15,11.0,0.0
11261,60.0,0,15,10.0,0.0
11262,60.0,0,15,2.0,0.0
11263,72.0,10,15,8.0,0.0
11264,59.0,0,15,10.0,0.0
11265,47.0,0,15,11.0,0.0
11266,59.0,15,15,2.0,0.0
11267,71.0,0,15,8.0,0.0
11268,69.0,30,15,8.0,0.0
11269,45.0,0,15,11.0,0.0
11270,57.0,0,15,2.0,0.0
11271,57.0,0,15,10.0,0.0
11272,43.0,0,90,11.0,0.0
11273,55.0,0,90,2.0,0.0
11274,79.0,40,60,6.0,0.0
11275,71.0,0,30,1.0,0.0
11276,67.0,30,30,1.0,0.0
11277,79.0,0,30,0.0,0.0
11278,71.0,0,90,7.0,0.0
11279,62.0,0,90,7.0,0.0
11280,67.0,19,90,4.0,0.0
11281,55.0,0,90,10.0,0.0
11282,67.0,0,90,3.0,0.0
11283,67.0,0,90,8.0,0.0
11284,74.0,0,90,4.0,0.0
11285,74.0,0,90,3.0,0.0
11286,43.0,0,90,5.0,0.0
11287,86.0,21,60,6.0,0.0
11288,83.0,60,20,6.0,0.0
11289,79.0,60,20,6.0,0.0
11290,78.0,10,20,6.0,0.0
11291,62.0,50,30,8.0,0.0
11292,72.0,0,30,7.0,0.0
11293,79.0,60,20,6.0,0.0
11294,62.0,0,30,8.0,0.0
11295,72.0,50,30,7.0,0.0
11296,81.0,10,20,6.0,0.0
11297,83.0,70,20,6.0,0.0
11298,79.0,59,60,6.0,0.0
11299,67.0,0,30,8.0,0.0
11300,71.0,30,30,7.0,0.0
11301,86.0,21,60,6.0,0.0
11302,83.0,60,20,6.0,0.0
11303,79.0,60,20,6.0,0.0
11304,78.0,10,20,6.0,0.0
11305,62.0,0,30,8.0,0.0
11306,72.0,50,30,7.0,0.0
11307,79.0,60,20,6.0,0.0
11308,72.0,0,30,7.0,0.0
11309,81.0,10,20,6.0,0.0
11310,62.0,50,30,8.0,0.0
11311,83.0,60,20,6.0,0.0
11312,79.0,10,20,0.0,0.0
11313,79.0,40,90,6.0,0.0
11314,71.0,0,30,7.0,0.0
11315,55.0,0,2850,3.0,0.0
11316,67.0,130,2850,3.0,0.0
11317,67.0,50,30,8.0,0.0
11318,86.0,20,20,0.0,0.0
11319,83.0,60,20,0.0,0.0
11320,79.0,70,20,0.0,0.0
11321,76.0,60,60,1.0,0.0
11322,84.0,1,60,0.0,0.0
11323,78.0,29,210,1.0,0.0
11324,55.0,29,30,2.0,0.0
11325,74.0,0,60,1.0,0.0
11326,86.0,30,60,0.0,0.0
11327,55.0,30,30,2.0,0.0
11328,72.0,0,60,1.0,0.0
11329,87.0,30,60,0.0,0.0
11330,84.0,1,60,0.0,0.0
11331,76.0,20,60,1.0,0.0
11332,79.0,60,20,0.0,0.0
11333,55.0,40,90,2.0,0.0
11334,79.0,0,90,1.0,0.0
11335,74.0,0,90,1.0,0.0
11336,86.0,20,20,0.0,0.0
11337,83.0,60,20,0.0,0.0
11338,79.0,70,20,0.0,0.0
11339,84.0,1,60,0.0,0.0
11340,76.0,60,60,1.0,0.0
11341,78.0,29,210,1.0,0.0
11342,55.0,29,30,2.0,0.0
11343,86.0,0,60,0.0,0.0
11344,74.0,30,60,1.0,0.0
11345,72.0,0,60,1.0,0.0
11346,55.0,30,30,2.0,0.0
11347,87.0,30,60,0.0,0.0
11348,76.0,60,60,1.0,0.0
11349,84.0,1,60,0.0,0.0
11350,43.0,0,90,5.0,0.0
11351,55.0,40,60,2.0,0.0
11352,83.0,0,90,0.0,0.0
11353,74.0,0,90,1.0,0.0
11354,67.0,0,90,4.0,0.0
11355,79.0,0,90,1.0,0.0
11356,55.0,19,90,4.0,0.0
11357,67.0,21,60,2.0,0.0
11358,64.0,60,20,2.0,0.0
11359,62.0,60,20,2.0,0.0
11360,61.0,40,20,2.0,0.0
11361,69.0,20,60,1.0,0.0
11362,64.0,39,20,2.0,0.0
11363,81.0,21,60,1.0,0.0
11364,77.0,60,20,1.0,0.0
11365,57.0,0,20,2.0,0.0
11366,76.0,0,20,1.0,0.0
11367,67.0,60,20,2.0,0.0
11368,43.0,0,90,5.0,0.0
11369,55.0,0,90,4.0,0.0
11370,74.0,40,20,1.0,0.0
11371,53.0,20,60,2.0,0.0
11372,67.0,19,90,4.0,0.0
11373,77.0,20,20,1.0,0.0
11374,65.0,21,60,2.0,0.0
11375,62.0,0,20,2.0,0.0
11376,69.0,60,20,1.0,0.0
11377,77.0,60,20,1.0,0.0
11378,60.0,0,20,2.0,0.0
11379,67.0,20,60,1.0,0.0
11380,59.0,40,20,2.0,0.0
11381,62.0,39,20,2.0,0.0
11382,79.0,21,60,1.0,0.0
11383,55.0,0,20,2.0,0.0
11384,76.0,60,20,1.0,0.0
11385,65.0,60,20,2.0,0.0
11386,74.0,0,20,1.0,0.0
11387,72.0,40,20,1.0,0.0
11388,43.0,0,90,5.0,0.0
11389,52.0,20,60,2.0,0.0
11390,67.0,19,90,4.0,0.0
11391,55.0,0,90,4.0,0.0
11392,64.0,21,60,2.0,0.0
11393,76.0,20,20,1.0,0.0
11394,60.0,0,20,2.0,0.0
11395,67.0,60,20,1.0,0.0
11396,76.0,60,20,1.0,0.0
11397,59.0,0,20,2.0,0.0
11398,57.0,0,20,2.0,0.0
11399,65.0,60,20,1.0,0.0
11400,60.0,60,20,2.0,0.0
11401,77.0,0,20,1.0,0.0
11402,74.0,60,20,1.0,0.0
11403,53.0,0,20,2.0,0.0
11404,72.0,0,20,6.0,0.0
11405,72.0,0,20,7.0,0.0
11406,72.0,0,20,1.0,0.0
11407,52.0,0,20,11.0,0.0
11408,67.0,0,20,2.0,0.0
11409,67.0,0,20,8.0,0.0
11410,64.0,60,20,10.0,0.0
11411,64.0,0,20,2.0,0.0
11412,84.0,0,20,0.0,0.0
11413,71.0,0,20,7.0,0.0
11414,65.0,0,20,8.0,0.0
11415,65.0,0,20,2.0,0.0
11416,62.0,0,20,2.0,0.0
11417,71.0,0,20,6.0,0.0
11418,50.0,0,20,11.0,0.0
11419,71.0,0,20,1.0,0.0
11420,67.0,0,90,4.0,0.0
11421,55.0,0,90,4.0,0.0
11422,62.0,60,20,10.0,0.0
11423,83.0,0,20,0.0,0.0
11424,43.0,40,90,5.0,0.0
11425,64.0,0,20,2.0,0.0
11426,60.0,0,20,10.0,0.0
11427,69.0,0,20,7.0,0.0
11428,69.0,0,20,6.0,0.0
11429,60.0,0,20,2.0,0.0
11430,69.0,0,20,1.0,0.0
11431,64.0,0,20,8.0,0.0
11432,81.0,20,20,0.0,0.0
11433,48.0,0,20,11.0,0.0
11434,79.0,0,20,0.0,0.0
11435,67.0,0,20,6.0,0.0
11436,62.0,0,20,2.0,0.0
11437,67.0,0,20,7.0,0.0
11438,59.0,0,20,2.0,0.0
11439,62.0,0,20,8.0,0.0
11440,59.0,0,20,10.0,0.0
11441,47.0,0,20,11.0,0.0
11442,67.0,60,20,1.0,0.0
11443,65.0,0,20,6.0,0.0
11444,77.0,0,20,1.0,0.0
11445,57.0,0,20,2.0,0.0
11446,60.0,0,20,2.0,0.0
11447,65.0,0,20,7.0,0.0
11448,89.0,0,20,0.0,0.0
11449,45.0,60,20,11.0,0.0
11450,57.0,0,20,10.0,0.0
11451,60.0,0,20,8.0,0.0
11452,64.0,0,20,7.0,0.0
11453,88.0,0,20,0.0,0.0
11454,43.0,0,20,11.0,0.0
11455,59.0,0,20,8.0,0.0
11456,76.0,0,20,1.0,0.0
11457,64.0,0,20,6.0,0.0
11458,55.0,0,20,2.0,0.0
11459,55.0,0,20,10.0,0.0
11460,67.0,0,90,4.0,0.0
11461,59.0,60,20,2.0,0.0
11462,55.0,0,90,4.0,0.0
11463,43.0,40,90,5.0,0.0
11464,57.0,0,20,8.0,0.0
11465,74.0,20,20,1.0,0.0
11466,86.0,0,20,0.0,0.0
11467,62.0,0,20,7.0,0.0
11468,53.0,0,20,10.0,0.0
11469,53.0,0,20,2.0,0.0
11470,57.0,0,20,2.0,0.0
11471,62.0,0,20,6.0,0.0
11472,41.0,0,20,11.0,0.0
11473,72.0,0,20,1.0,0.0
11474,52.0,0,20,10.0,0.0
11475,55.0,0,20,2.0,0.0
11476,60.0,0,20,7.0,0.0
11477,40.0,0,20,11.0,0.0
11478,84.0,0,20,0.0,0.0
11479,55.0,0,20,8.0,0.0
11480,60.0,0,20,6.0,0.0
11481,52.0,60,20,2.0,0.0
11482,53.0,0,20,2.0,0.0
11483,50.0,0,20,2.0,0.0
11484,38.0,0,20,11.0,0.0
11485,50.0,0,20,10.0,0.0
11486,71.0,0,20,1.0,0.0
11487,59.0,0,20,6.0,0.0
11488,53.0,0,20,8.0,0.0
11489,59.0,0,20,7.0,0.0
11490,83.0,10,20,0.0,0.0
11491,36.0,0,90,11.0,0.0
11492,72.0,0,90,1.0,0.0
11493,60.0,0,90,6.0,0.0
11494,52.0,0,90,8.0,0.0
11495,60.0,0,90,3.0,0.0
11496,48.0,0,90,5.0,0.0
11497,60.0,0,90,7.0,0.0
11498,72.0,0,90,3.0,0.0
11499,48.0,0,90,10.0,0.0
11500,84.0,100,90,0.0,0.0
11501,52.0,0,90,2.0,0.0
11502,60.0,0,90,4.0,0.0
11503,72.0,0,90,4.0,0.0
11504,48.0,0,90,2.0,0.0
11505,55.0,0,20,8.0,0.0
11506,55.0,0,20,7.0,0.0
11507,55.0,0,20,6.0,0.0
11508,67.0,0,20,1.0,0.0
11509,31.0,0,20,11.0,0.0
11510,43.0,0,20,2.0,0.0
11511,43.0,0,20,10.0,0.0
11512,79.0,20,20,0.0,0.0
11513,57.0,0,20,8.0,0.0
11514,57.0,20,20,7.0,0.0
11515,69.0,0,20,1.0,0.0
11516,81.0,0,20,0.0,0.0
11517,33.0,0,20,11.0,0.0
11518,45.0,0,20,2.0,0.0
11519,57.0,0,20,6.0,0.0
11520,45.0,0,20,10.0,0.0
11521,59.0,0,20,8.0,0.0
11522,59.0,100,20,6.0,0.0
11523,47.0,0,20,2.0,0.0
11524,71.0,0,20,1.0,0.0
11525,47.0,0,20,10.0,0.0
11526,35.0,0,20,11.0,0.0
11527,83.0,0,20,0.0,0.0
11528,59.0,0,20,7.0,0.0
11529,48.0,0,90,5.0,0.0
11530,60.0,0,90,7.0,0.0
11531,36.0,0,90,11.0,0.0
11532,72.0,0,90,1.0,0.0
11533,72.0,0,90,3.0,0.0
11534,60.0,100,90,3.0,0.0
11535,48.0,0,90,2.0,0.0
11536,60.0,0,90,8.0,0.0
11537,60.0,0,90,4.0,0.0
11538,84.0,0,90,0.0,0.0
11539,48.0,0,90,10.0,0.0
11540,72.0,0,90,4.0,0.0
11541,60.0,0,90,6.0,0.0
11542,31.0,0,20,11.0,0.0
11543,55.0,20,20,6.0,0.0
11544,43.0,0,20,2.0,0.0
11545,67.0,0,20,1.0,0.0
11546,43.0,0,20,10.0,0.0
11547,55.0,0,20,7.0,0.0
11548,55.0,0,20,8.0,0.0
11549,79.0,0,20,0.0,0.0
11550,57.0,0,20,6.0,0.0
11551,69.0,20,20,1.0,0.0
11552,45.0,0,20,10.0,0.0
11553,57.0,0,20,8.0,0.0
11554,81.0,0,20,0.0,0.0
11555,45.0,0,20,2.0,0.0
11556,57.0,0,20,7.0,0.0
11557,33.0,0,20,11.0,0.0
11558,59.0,0,20,6.0,0.0
11559,59.0,0,20,7.0,0.0
11560,35.0,0,20,11.0,0.0
11561,59.0,0,20,8.0,0.0
11562,47.0,0,20,10.0,0.0
11563,71.0,0,20,1.0,0.0
11564,83.0,0,20,0.0,0.0
11565,47.0,100,20,2.0,0.0
11566,48.0,0,90,10.0,0.0
11567,48.0,0,90,5.0,0.0
11568,60.0,0,90,6.0,0.0
11569,72.0,0,90,4.0,0.0
11570,60.0,0,90,4.0,0.0
11571,84.0,0,90,0.0,0.0
11572,48.0,0,90,2.0,0.0
11573,60.0,0,90,8.0,0.0
11574,60.0,0,90,7.0,0.0
11575,36.0,0,90,11.0,0.0
11576,72.0,0,90,3.0,0.0
11577,60.0,379,90,3.0,0.0
11578,72.0,0,90,1.0,0.0
11579,72.0,181,60,6.0,0.0
11580,67.0,0,810,8.0,0.0
11581,65.0,0,240,7.0,0.0
11582,50.0,180,240,11.0,0.0
11583,72.0,60,180,6.0,0.0
11584,62.0,0,240,10.0,0.0
11585,71.0,0,60,6.0,0.0
11586,48.0,0,210,11.0,0.0
11587,64.0,0,210,7.0,0.0
11588,60.0,29,210,10.0,0.0
11589,74.0,30,180,6.0,0.0
11590,72.0,241,60,6.0,0.0
11591,47.0,0,330,11.0,0.0
11592,59.0,0,330,10.0,0.0
11593,79.0,90,240,6.0,0.0
11594,62.0,10,330,7.0,0.0
11595,77.0,240,90,6.0,0.0
11596,43.0,0,90,11.0,0.0
11597,67.0,0,90,7.0,0.0
11598,55.0,0,90,7.0,0.0
11599,67.0,0,90,3.0,0.0
11600,55.0,0,90,2.0,0.0
11601,79.0,0,90,0.0,0.0
11602,67.0,0,90,8.0,0.0
11603,67.0,0,90,6.0,0.0
11604,55.0,100,90,6.0,0.0
11605,79.0,0,90,1.0,0.0
11606,55.0,0,90,10.0,0.0
11607,67.0,0,90,4.0,0.0
11608,43.0,0,90,5.0,0.0
11609,62.0,0,20,7.0,0.0
11610,50.0,0,20,2.0,0.0
11611,74.0,0,20,0.0,0.0
11612,62.0,20,20,6.0,0.0
11613,38.0,0,20,11.0,0.0
11614,62.0,0,20,8.0,0.0
11615,50.0,0,20,10.0,0.0
11616,74.0,0,20,1.0,0.0
11617,64.0,0,20,8.0,0.0
11618,52.0,20,20,2.0,0.0
11619,76.0,0,20,0.0,0.0
11620,76.0,0,20,1.0,0.0
11621,40.0,0,20,11.0,0.0
11622,64.0,0,20,7.0,0.0
11623,52.0,0,20,10.0,0.0
11624,64.0,0,20,6.0,0.0
11625,78.0,0,20,0.0,0.0
11626,66.0,0,20,6.0,0.0
11627,66.0,0,20,8.0,0.0
11628,78.0,100,20,1.0,0.0
11629,54.0,0,20,2.0,0.0
11630,42.0,0,20,11.0,0.0
11631,66.0,0,20,7.0,0.0
11632,54.0,0,20,10.0,0.0
11633,55.0,0,90,10.0,0.0
11634,79.0,0,90,0.0,0.0
11635,67.0,0,90,6.0,0.0
11636,67.0,100,90,8.0,0.0
11637,43.0,0,90,11.0,0.0
11638,67.0,0,90,3.0,0.0
11639,67.0,0,90,7.0,0.0
11640,79.0,0,90,1.0,0.0
11641,55.0,0,90,2.0,0.0
11642,43.0,0,90,5.0,0.0
11643,67.0,0,90,4.0,0.0
11644,50.0,0,20,10.0,0.0
11645,62.0,20,20,8.0,0.0
11646,38.0,0,20,11.0,0.0
11647,74.0,0,20,0.0,0.0
11648,62.0,0,20,7.0,0.0
11649,62.0,0,20,6.0,0.0
11650,74.0,0,20,1.0,0.0
11651,50.0,0,20,2.0,0.0
11652,76.0,0,20,0.0,0.0
11653,40.0,0,20,11.0,0.0
11654,64.0,0,20,7.0,0.0
11655,52.0,0,20,2.0,0.0
11656,76.0,0,20,1.0,0.0
11657,52.0,0,20,10.0,0.0
11658,64.0,0,20,6.0,0.0
11659,64.0,20,20,8.0,0.0
11660,54.0,0,20,10.0,0.0
11661,54.0,0,20,2.0,0.0
11662,66.0,0,20,6.0,0.0
11663,42.0,0,20,11.0,0.0
11664,66.0,100,20,8.0,0.0
11665,66.0,0,20,7.0,0.0
11666,78.0,0,20,1.0,0.0
11667,78.0,0,20,0.0,0.0
11668,67.0,0,90,6.0,0.0
11669,55.0,379,90,2.0,0.0
11670,67.0,0,90,7.0,0.0
11671,79.0,0,90,0.0,0.0
11672,43.0,0,90,11.0,0.0
11673,67.0,0,90,8.0,0.0
11674,79.0,0,90,1.0,0.0
11675,67.0,0,90,4.0,0.0
11676,67.0,0,90,3.0,0.0
11677,43.0,0,90,5.0,0.0
11678,55.0,0,90,10.0,0.0
11679,74.0,181,60,6.0,0.0
11680,64.0,0,240,10.0,0.0
11681,52.0,0,240,11.0,0.0
11682,74.0,60,180,6.0,0.0
11683,67.0,0,450,8.0,0.0
11684,67.0,180,240,7.0,0.0
11685,72.0,0,60,6.0,0.0
11686,79.0,30,180,6.0,0.0
11687,62.0,0,210,10.0,0.0
11688,50.0,0,210,11.0,0.0
11689,71.0,29,210,7.0,0.0
11690,77.0,241,60,6.0,0.0
11691,81.0,90,240,6.0,0.0
11692,72.0,0,330,8.0,0.0
11693,48.0,0,330,11.0,0.0
11694,77.0,0,240,7.0,0.0
11695,60.0,10,330,10.0,0.0
11696,76.0,0,90,7.0,0.0
11697,79.0,240,90,6.0,0.0
11698,64.0,0,90,2.0,0.0
11699,55.0,0,90,2.0,0.0
11700,84.0,0,90,0.0,0.0
11701,60.0,0,90,3.0,0.0
11702,48.0,0,90,10.0,0.0
11703,72.0,0,90,3.0,0.0
11704,79.0,0,90,1.0,0.0
11705,84.0,0,90,6.0,0.0
11706,76.0,95,90,1.0,0.0
11707,76.0,0,90,6.0,0.0
11708,67.0,0,90,6.0,0.0
11709,36.0,0,90,11.0,0.0
11710,72.0,0,90,3.0,0.0
11711,60.0,0,90,4.0,0.0
11712,72.0,0,90,4.0,0.0
11713,48.0,0,90,5.0,0.0
11714,55.0,0,90,2.0,0.0
11715,64.0,0,90,2.0,0.0
11716,60.0,0,90,3.0,0.0
11717,79.0,0,90,1.0,0.0
11718,76.0,0,90,1.0,0.0
11719,84.0,1,90,0.0,0.0
11720,67.0,14,15,7.0,0.0
11721,55.0,0,15,8.0,0.0
11722,65.0,15,15,7.0,0.0
11723,53.0,0,15,8.0,0.0
11724,55.0,0,30,2.0,0.0
11725,72.0,0,30,4.0,0.0
11726,48.0,0,30,5.0,0.0
11727,76.0,1,30,1.0,0.0
11728,52.0,14,15,8.0,0.0
11729,79.0,0,30,1.0,0.0
11730,64.0,0,15,7.0,0.0
11731,60.0,0,30,4.0,0.0
11732,84.0,0,30,0.0,0.0
11733,64.0,0,30,2.0,0.0
11734,60.0,0,30,3.0,0.0
11735,72.0,0,30,3.0,0.0
11736,50.0,100,15,8.0,0.0
11737,62.0,0,15,7.0,0.0
11738,79.0,0,90,1.0,0.0
11739,60.0,0,90,3.0,0.0
11740,60.0,0,90,7.0,0.0
11741,48.0,0,90,5.0,0.0
11742,60.0,0,90,4.0,0.0
11743,72.0,0,90,4.0,0.0
11744,64.0,0,90,2.0,0.0
11745,72.0,0,90,3.0,0.0
11746,84.0,0,90,0.0,0.0
11747,76.0,0,90,1.0,0.0
11748,55.0,120,90,2.0,0.0
11749,48.0,0,90,8.0,0.0
11750,48.0,0,90,11.0,0.0
11751,64.0,0,90,2.0,0.0
11752,84.0,0,90,6.0,0.0
11753,76.0,0,90,6.0,0.0
11754,67.0,0,90,6.0,0.0
11755,60.0,120,90,3.0,0.0
11756,79.0,0,90,1.0,0.0
11757,76.0,0,90,1.0,0.0
11758,55.0,0,90,2.0,0.0
11759,60.0,0,90,10.0,0.0
11760,84.0,0,90,0.0,0.0
11761,72.0,0,90,3.0,0.0
11762,36.0,0,90,11.0,0.0
11763,65.0,0,90,2.0,0.0
11764,57.0,0,90,2.0,0.0
11765,65.0,95,90,6.0,0.0
11766,72.0,0,90,6.0,0.0
11767,81.0,0,90,6.0,0.0
11768,60.0,0,90,3.0,0.0
11769,72.0,0,90,3.0,0.0
11770,48.0,0,90,10.0,0.0
11771,77.0,0,90,1.0,0.0
11772,69.0,0,90,1.0,0.0
11773,81.0,0,90,0.0,0.0
11774,81.0,0,90,0.0,0.0
11775,72.0,0,90,4.0,0.0
11776,57.0,1,90,2.0,0.0
11777,65.0,0,90,2.0,0.0
11778,69.0,0,90,1.0,0.0
11779,60.0,0,90,3.0,0.0
11780,72.0,0,90,3.0,0.0
11781,77.0,0,90,1.0,0.0
11782,60.0,0,90,4.0,0.0
11783,48.0,0,90,5.0,0.0
11784,72.0,14,15,7.0,0.0
11785,60.0,0,15,8.0,0.0
11786,70.0,15,15,7.0,0.0
11787,58.0,0,15,8.0,0.0
11788,77.0,0,30,1.0,0.0
11789,69.0,0,30,1.0,0.0
11790,60.0,0,30,4.0,0.0
11791,72.0,0,30,4.0,0.0
11792,81.0,0,30,0.0,0.0
11793,48.0,0,30,5.0,0.0
11794,69.0,0,15,7.0,0.0
11795,72.0,0,30,3.0,0.0
11796,60.0,0,30,3.0,0.0
11797,57.0,14,15,8.0,0.0
11798,65.0,1,30,2.0,0.0
11799,57.0,0,30,2.0,0.0
11800,67.0,0,15,7.0,0.0
11801,55.0,100,15,8.0,0.0
11802,77.0,0,90,1.0,0.0
11803,69.0,0,90,1.0,0.0
11804,65.0,0,90,7.0,0.0
11805,53.0,0,90,8.0,0.0
11806,72.0,0,90,3.0,0.0
11807,60.0,0,90,3.0,0.0
11808,72.0,0,90,4.0,0.0
11809,60.0,0,90,4.0,0.0
11810,48.0,0,90,5.0,0.0
11811,65.0,0,90,2.0,0.0
11812,57.0,120,90,2.0,0.0
11813,81.0,0,90,0.0,0.0
11814,72.0,0,90,1.0,0.0
11815,81.0,0,90,0.0,0.0
11816,57.0,120,90,2.0,0.0
11817,69.0,0,90,6.0,0.0
11818,60.0,0,90,10.0,0.0
11819,65.0,0,90,2.0,0.0
11820,77.0,0,90,6.0,0.0
11821,77.0,0,90,1.0,0.0
11822,60.0,0,90,3.0,0.0
11823,48.0,0,90,11.0,0.0
11824,72.0,0,90,3.0,0.0
11825,67.0,0,90,6.0,0.0
11826,36.0,0,90,11.0,0.0
11827,59.0,0,90,6.0,0.0
11828,74.0,0,90,6.0,0.0
11829,74.0,0,90,3.0,0.0
11830,59.0,0,90,2.0,0.0
11831,74.0,0,90,1.0,0.0
11832,77.0,0,90,1.0,0.0
11833,65.0,0,90,2.0,0.0
11834,83.0,0,90,0.0,0.0
11835,67.0,0,90,3.0,0.0
11836,48.0,95,90,10.0,0.0
11837,77.0,0,90,1.0,0.0
11838,48.0,0,90,5.0,0.0
11839,65.0,0,90,2.0,0.0
11840,59.0,0,90,2.0,0.0
11841,83.0,0,90,0.0,0.0
11842,74.0,0,90,1.0,0.0
11843,67.0,0,90,3.0,0.0
11844,74.0,1,90,3.0,0.0
11845,67.0,0,90,4.0,0.0
11846,62.0,0,15,8.0,0.0
11847,74.0,14,15,7.0,0.0
11848,60.0,15,15,8.0,0.0
11849,72.0,0,15,7.0,0.0
11850,83.0,0,30,0.0,0.0
11851,74.0,0,30,1.0,0.0
11852,77.0,0,30,1.0,0.0
11853,48.0,0,30,5.0,0.0
11854,67.0,0,30,3.0,0.0
11855,74.0,0,30,3.0,0.0
11856,65.0,0,30,2.0,0.0
11857,59.0,1,30,2.0,0.0
11858,71.0,0,15,7.0,0.0
11859,67.0,0,30,4.0,0.0
11860,59.0,14,15,8.0,0.0
11861,57.0,0,15,8.0,0.0
11862,69.0,100,15,7.0,0.0
11863,67.0,0,90,3.0,0.0
11864,67.0,0,90,7.0,0.0
11865,83.0,0,90,0.0,0.0
11866,48.0,0,90,5.0,0.0
11867,55.0,0,90,8.0,0.0
11868,65.0,0,90,2.0,0.0
11869,59.0,120,90,2.0,0.0
11870,74.0,0,90,1.0,0.0
11871,77.0,0,90,1.0,0.0
11872,74.0,0,90,3.0,0.0
11873,67.0,0,90,4.0,0.0
11874,74.0,0,90,1.0,0.0
11875,65.0,120,90,2.0,0.0
11876,48.0,0,90,11.0,0.0
11877,60.0,0,90,10.0,0.0
11878,71.0,0,90,6.0,0.0
11879,62.0,0,90,6.0,0.0
11880,79.0,0,90,6.0,0.0
11881,59.0,0,90,2.0,0.0
11882,83.0,0,90,0.0,0.0
11883,77.0,0,90,1.0,0.0
11884,67.0,0,90,3.0,0.0
11885,74.0,0,90,3.0,0.0
11886,76.0,0,90,1.0,0.0
11887,60.0,0,90,2.0,0.0
11888,64.0,0,90,2.0,0.0
11889,36.0,0,90,11.0,0.0
11890,72.0,0,90,6.0,0.0
11891,67.0,0,90,3.0,0.0
11892,67.0,0,90,1.0,0.0
11893,64.0,0,90,3.0,0.0
11894,64.0,0,90,6.0,0.0
11895,48.0,0,90,10.0,0.0
11896,76.0,0,90,6.0,0.0
11897,84.0,95,90,0.0,0.0
11898,55.0,0,90,2.0,0.0
11899,64.0,0,90,2.0,0.0
11900,79.0,0,90,1.0,0.0
11901,72.0,0,90,3.0,0.0
11902,60.0,0,90,3.0,0.0
11903,76.0,0,90,1.0,0.0
11904,84.0,1,90,0.0,0.0
11905,48.0,0,90,5.0,0.0
11906,72.0,0,90,4.0,0.0
11907,60.0,0,90,4.0,0.0
11908,67.0,0,15,8.0,0.0
11909,79.0,14,15,7.0,0.0
11910,77.0,15,15,7.0,0.0
11911,65.0,0,15,8.0,0.0
11912,84.0,0,30,0.0,0.0
11913,60.0,0,30,4.0,0.0
11914,72.0,0,30,4.0,0.0
11915,48.0,0,30,5.0,0.0
11916,72.0,0,30,3.0,0.0
11917,76.0,0,15,7.0,0.0
11918,76.0,0,30,1.0,0.0
11919,79.0,1,30,1.0,0.0
11920,64.0,14,15,8.0,0.0
11921,60.0,0,30,3.0,0.0
11922,64.0,0,30,2.0,0.0
11923,55.0,0,30,2.0,0.0
11924,74.0,100,15,7.0,0.0
11925,62.0,0,15,8.0,0.0
11926,60.0,0,90,8.0,0.0
11927,60.0,0,90,3.0,0.0
11928,72.0,0,90,3.0,0.0
11929,64.0,0,90,2.0,0.0
11930,79.0,0,90,1.0,0.0
11931,60.0,0,90,4.0,0.0
11932,72.0,0,90,4.0,0.0
11933,84.0,120,90,0.0,0.0
11934,55.0,0,90,2.0,0.0
11935,72.0,0,90,7.0,0.0
11936,48.0,0,90,5.0,0.0
11937,76.0,0,90,1.0,0.0
11938,76.0,0,90,1.0,0.0
11939,79.0,0,90,1.0,0.0
11940,48.0,120,90,11.0,0.0
11941,55.0,0,90,2.0,0.0
11942,64.0,0,90,2.0,0.0
11943,60.0,0,90,10.0,0.0
11944,84.0,0,90,6.0,0.0
11945,76.0,0,90,6.0,0.0
11946,84.0,0,90,0.0,0.0
11947,60.0,0,90,3.0,0.0
11948,72.0,0,90,3.0,0.0
11949,67.0,0,90,6.0,0.0
11950,36.0,0,90,11.0,0.0
11951,77.0,0,90,1.0,0.0
11952,69.0,0,90,1.0,0.0
11953,57.0,95,90,2.0,0.0
11954,81.0,0,90,6.0,0.0
11955,72.0,0,90,6.0,0.0
11956,65.0,0,90,6.0,0.0
11957,60.0,0,90,3.0,0.0
11958,72.0,0,90,3.0,0.0
11959,65.0,0,90,2.0,0.0
11960,81.0,0,90,0.0,0.0
11961,48.0,0,90,10.0,0.0
11962,77.0,0,90,1.0,0.0
11963,72.0,0,90,4.0,0.0
11964,72.0,0,90,3.0,0.0
11965,60.0,0,90,3.0,0.0
11966,65.0,0,90,2.0,0.0
11967,81.0,1,90,0.0,0.0
11968,48.0,0,90,5.0,0.0
11969,69.0,0,90,1.0,0.0
11970,57.0,0,90,2.0,0.0
11971,60.0,0,90,4.0,0.0
11972,72.0,0,15,7.0,0.0
11973,60.0,14,15,8.0,0.0
11974,70.0,0,15,7.0,0.0
11975,58.0,15,15,8.0,0.0
11976,69.0,0,30,1.0,0.0
11977,48.0,0,30,5.0,0.0
11978,57.0,0,30,2.0,0.0
11979,60.0,0,30,3.0,0.0
11980,72.0,0,30,3.0,0.0
11981,69.0,0,15,7.0,0.0
11982,57.0,14,15,8.0,0.0
11983,72.0,0,30,4.0,0.0
11984,77.0,0,30,1.0,0.0
11985,65.0,0,30,2.0,0.0
11986,81.0,0,30,0.0,0.0
11987,60.0,1,30,4.0,0.0
11988,55.0,0,15,8.0,0.0
11989,67.0,100,15,7.0,0.0
11990,57.0,0,90,2.0,0.0
11991,69.0,0,90,1.0,0.0
11992,65.0,0,90,2.0,0.0
11993,48.0,0,90,5.0,0.0
11994,65.0,0,90,7.0,0.0
11995,53.0,0,90,8.0,0.0
11996,77.0,0,90,1.0,0.0
11997,81.0,120,90,0.0,0.0
11998,72.0,0,90,4.0,0.0
11999,60.0,0,90,4.0,0.0
12000,72.0,0,90,3.0,0.0
12001,60.0,0,90,3.0,0.0
12002,72.0,0,90,1.0,0.0
12003,81.0,0,90,0.0,0.0
12004,57.0,0,90,2.0,0.0
12005,65.0,0,90,2.0,0.0
12006,69.0,0,90,6.0,0.0
12007,77.0,0,90,6.0,0.0
12008,48.0,120,90,11.0,0.0
12009,77.0,0,90,1.0,0.0
12010,60.0,0,90,3.0,0.0
12011,60.0,0,90,10.0,0.0
12012,72.0,0,90,3.0,0.0
12013,67.0,0,90,6.0,0.0
12014,59.0,0,90,6.0,0.0
12015,74.0,0,90,6.0,0.0
12016,67.0,0,90,3.0,0.0
12017,65.0,0,90,2.0,0.0
12018,74.0,0,90,3.0,0.0
12019,48.0,0,90,10.0,0.0
12020,59.0,0,90,2.0,0.0
12021,36.0,0,90,11.0,0.0
12022,83.0,0,90,0.0,0.0
12023,77.0,95,90,1.0,0.0
12024,74.0,0,90,1.0,0.0
12025,67.0,0,90,4.0,0.0
12026,67.0,0,90,3.0,0.0
12027,48.0,1,90,5.0,0.0
12028,65.0,0,90,2.0,0.0
12029,59.0,0,90,2.0,0.0
12030,83.0,0,90,0.0,0.0
12031,74.0,0,90,3.0,0.0
12032,74.0,0,90,1.0,0.0
12033,77.0,0,90,1.0,0.0
12034,62.0,0,15,8.0,0.0
12035,74.0,14,15,7.0,0.0
12036,72.0,15,15,7.0,0.0
12037,60.0,0,15,8.0,0.0
12038,59.0,14,15,8.0,0.0
12039,65.0,0,30,2.0,0.0
12040,59.0,0,30,2.0,0.0
12041,67.0,0,30,4.0,0.0
12042,71.0,0,15,7.0,0.0
12043,74.0,0,30,3.0,0.0
12044,67.0,0,30,3.0,0.0
12045,74.0,1,30,1.0,0.0
12046,77.0,0,30,1.0,0.0
12047,83.0,0,30,0.0,0.0
12048,48.0,0,30,5.0,0.0
12049,69.0,100,15,7.0,0.0
12050,57.0,0,15,8.0,0.0
12051,55.0,0,90,8.0,0.0
12052,59.0,0,90,2.0,0.0
12053,65.0,0,90,2.0,0.0
12054,67.0,120,90,4.0,0.0
12055,83.0,0,90,0.0,0.0
12056,48.0,0,90,5.0,0.0
12057,67.0,0,90,7.0,0.0
12058,74.0,0,90,1.0,0.0
12059,77.0,0,90,1.0,0.0
12060,67.0,0,90,3.0,0.0
12061,74.0,0,90,3.0,0.0
12062,48.0,0,90,11.0,0.0
12063,65.0,0,90,2.0,0.0
12064,59.0,0,90,2.0,0.0
12065,83.0,120,90,0.0,0.0
12066,67.0,0,90,3.0,0.0
12067,62.0,0,90,6.0,0.0
12068,71.0,0,90,6.0,0.0
12069,74.0,0,90,3.0,0.0
12070,79.0,0,90,6.0,0.0
12071,74.0,0,90,1.0,0.0
12072,77.0,0,90,1.0,0.0
12073,60.0,0,90,10.0,0.0
12074,76.0,0,90,6.0,0.0
12075,60.0,0,90,8.0,0.0
12076,60.0,0,90,2.0,0.0
12077,72.0,0,90,6.0,0.0
12078,36.0,0,90,11.0,0.0
12079,72.0,0,90,7.0,0.0
12080,72.0,0,90,1.0,0.0
12081,48.0,0,90,5.0,0.0
12082,84.0,0,90,0.0,0.0
12083,64.0,0,90,3.0,0.0
12084,67.0,0,90,3.0,0.0
12085,76.0,0,90,1.0,0.0
12086,67.0,95,90,4.0,0.0
12087,55.0,0,90,4.0,0.0
12088,48.0,0,90,10.0,0.0
12089,64.0,0,90,2.0,0.0
12090,72.0,0,90,3.0,0.0
12091,84.0,0,90,0.0,0.0
12092,76.0,0,90,6.0,0.0
12093,72.0,0,90,1.0,0.0
12094,76.0,0,90,1.0,0.0
12095,64.0,0,90,3.0,0.0
12096,84.0,0,90,6.0,0.0
12097,67.0,5,90,6.0,0.0
12098,77.0,0,15,7.0,0.0
12099,65.0,15,15,8.0,0.0
12100,64.0,10,15,8.0,0.0
12101,76.0,0,15,7.0,0.0
12102,74.0,0,15,7.0,0.0
12103,62.0,15,15,8.0,0.0
12104,60.0,100,15,8.0,0.0
12105,72.0,0,15,7.0,0.0
12106,71.0,0,90,7.0,0.0
12107,43.0,0,90,5.0,0.0
12108,43.0,0,90,11.0,0.0
12109,55.0,95,90,4.0,0.0
12110,67.0,0,90,4.0,0.0
12111,59.0,0,90,2.0,0.0
12112,55.0,0,90,10.0,0.0
12113,62.0,0,90,2.0,0.0
12114,59.0,0,90,8.0,0.0
12115,83.0,0,90,6.0,0.0
12116,71.0,0,90,1.0,0.0
12117,74.0,0,90,3.0,0.0
12118,67.0,0,90,6.0,0.0
12119,67.0,5,90,3.0,0.0
12120,83.0,0,90,0.0,0.0
12121,74.0,0,90,1.0,0.0
12122,74.0,0,90,6.0,0.0
12123,79.0,0,15,7.0,0.0
12124,67.0,15,15,8.0,0.0
12125,77.0,0,15,7.0,0.0
12126,65.0,10,15,8.0,0.0
12127,76.0,15,15,7.0,0.0
12128,64.0,0,15,8.0,0.0
12129,62.0,100,15,8.0,0.0
12130,74.0,0,15,7.0,0.0
12131,67.0,0,90,4.0,0.0
12132,55.0,0,90,4.0,0.0
12133,60.0,0,90,2.0,0.0
12134,76.0,94,90,7.0,0.0
12135,48.0,0,90,5.0,0.0
12136,60.0,0,90,10.0,0.0
12137,64.0,0,90,2.0,0.0
12138,48.0,0,90,11.0,0.0
12139,64.0,0,90,8.0,0.0
12140,72.0,0,90,1.0,0.0
12141,76.0,0,90,1.0,0.0
12142,72.0,0,90,3.0,0.0
12143,76.0,0,90,3.0,0.0
12144,84.0,0,90,0.0,0.0
12145,67.0,0,90,6.0,0.0
12146,76.0,4,90,6.0,0.0
12147,84.0,0,90,6.0,0.0
12148,65.0,1,15,8.0,0.0
12149,77.0,14,15,7.0,0.0
12150,64.0,1,15,8.0,0.0
12151,76.0,10,15,7.0,0.0
12152,74.0,14,15,7.0,0.0
12153,62.0,1,15,8.0,0.0
12154,60.0,1,15,8.0,0.0
12155,72.0,100,15,7.0,0.0
12156,55.0,0,90,10.0,0.0
12157,43.0,0,90,5.0,0.0
12158,59.0,0,90,8.0,0.0
12159,71.0,0,90,7.0,0.0
12160,62.0,0,90,2.0,0.0
12161,59.0,0,90,2.0,0.0
12162,43.0,0,90,11.0,0.0
12163,55.0,0,90,4.0,0.0
12164,67.0,95,90,4.0,0.0
12165,71.0,0,90,1.0,0.0
12166,74.0,0,90,6.0,0.0
12167,83.0,0,90,6.0,0.0
12168,74.0,0,90,1.0,0.0
12169,74.0,0,90,3.0,0.0
12170,67.0,0,90,3.0,0.0
12171,67.0,0,90,6.0,0.0
12172,83.0,5,90,0.0,0.0
12173,79.0,0,15,7.0,0.0
12174,67.0,15,15,8.0,0.0
12175,65.0,0,15,8.0,0.0
12176,77.0,10,15,7.0,0.0
12177,76.0,0,15,7.0,0.0
12178,64.0,15,15,8.0,0.0
12179,74.0,0,15,7.0,0.0
12180,62.0,100,15,8.0,0.0
12181,36.0,0,90,11.0,0.0
12182,67.0,0,90,4.0,0.0
12183,55.0,0,90,4.0,0.0
12184,84.0,0,90,0.0,0.0
12185,76.0,0,90,7.0,0.0
12186,72.0,0,90,1.0,0.0
12187,76.0,0,90,1.0,0.0
12188,48.0,0,90,5.0,0.0
12189,84.0,0,90,6.0,0.0
12190,76.0,0,90,6.0,0.0
12191,67.0,0,90,6.0,0.0
12192,64.0,0,90,2.0,0.0
12193,60.0,0,90,2.0,0.0
12194,64.0,79,90,8.0,0.0
12195,76.0,0,90,3.0,0.0
12196,72.0,0,90,3.0,0.0
12197,48.0,0,90,10.0,0.0
12198,67.0,0,60,8.0,0.0
12199,43.0,0,60,11.0,0.0
12200,79.0,41,60,0.0,0.0
12201,79.0,0,60,1.0,0.0
12202,55.0,0,60,10.0,0.0
12203,79.0,19,90,7.0,0.0
12204,55.0,0,60,2.0,0.0
12205,43.0,0,90,5.0,0.0
12206,79.0,0,90,6.0,0.0
12207,67.0,0,60,3.0,0.0
12208,67.0,0,90,4.0,0.0
12209,79.0,0,60,1.0,0.0
12210,55.0,60,60,2.0,0.0
12211,67.0,0,60,8.0,0.0
12212,55.0,0,60,10.0,0.0
12213,43.0,0,60,11.0,0.0
12214,79.0,0,60,0.0,0.0
12215,67.0,0,60,3.0,0.0
12216,84.0,0,90,7.0,0.0
12217,72.0,0,60,3.0,0.0
12218,84.0,0,90,6.0,0.0
12219,60.0,0,60,2.0,0.0
12220,48.0,0,60,11.0,0.0
12221,72.0,19,90,4.0,0.0
12222,72.0,0,60,8.0,0.0
12223,48.0,0,90,5.0,0.0
12224,84.0,41,60,1.0,0.0
12225,84.0,0,60,0.0,0.0
12226,60.0,0,60,10.0,0.0
12227,60.0,0,60,10.0,0.0
12228,60.0,0,60,2.0,0.0
12229,84.0,0,60,0.0,0.0
12230,72.0,0,60,8.0,0.0
12231,48.0,0,60,11.0,0.0
12232,72.0,0,60,3.0,0.0
12233,84.0,60,60,1.0,0.0
12234,55.0,0,60,10.0,0.0
12235,79.0,0,60,0.0,0.0
12236,67.0,0,60,3.0,0.0
12237,79.0,0,90,6.0,0.0
12238,43.0,41,60,11.0,0.0
12239,43.0,19,90,5.0,0.0
12240,55.0,0,60,2.0,0.0
12241,79.0,0,60,1.0,0.0
12242,67.0,0,90,4.0,0.0
12243,79.0,0,90,7.0,0.0
12244,67.0,0,60,8.0,0.0
12245,55.0,0,60,2.0,0.0
12246,55.0,0,60,10.0,0.0
12247,79.0,0,60,1.0,0.0
12248,79.0,60,60,0.0,0.0
12249,67.0,0,60,8.0,0.0
12250,67.0,0,60,3.0,0.0
12251,43.0,0,60,11.0,0.0
12252,84.0,0,60,0.0,0.0
12253,48.0,0,90,5.0,0.0
12254,84.0,0,90,7.0,0.0
12255,84.0,0,60,1.0,0.0
12256,72.0,0,60,8.0,0.0
12257,72.0,0,60,3.0,0.0
12258,60.0,0,60,2.0,0.0
12259,48.0,0,60,11.0,0.0
12260,60.0,41,60,10.0,0.0
12261,84.0,0,90,6.0,0.0
12262,72.0,19,90,4.0,0.0
12263,84.0,0,60,1.0,0.0
12264,60.0,0,60,10.0,0.0
12265,60.0,0,60,2.0,0.0
12266,84.0,0,60,0.0,0.0
12267,72.0,0,60,8.0,0.0
12268,48.0,0,60,11.0,0.0
12269,72.0,60,60,3.0,0.0
12270,67.0,19,90,4.0,0.0
12271,67.0,0,60,3.0,0.0
12272,79.0,41,60,0.0,0.0
12273,79.0,0,90,6.0,0.0
12274,48.0,0,60,5.0,0.0
12275,55.0,0,60,10.0,0.0
12276,67.0,0,60,8.0,0.0
12277,79.0,0,60,1.0,0.0
12278,55.0,0,60,2.0,0.0
12279,43.0,0,60,11.0,0.0
12280,79.0,0,90,7.0,0.0
12281,67.0,0,60,3.0,0.0
12282,67.0,0,60,8.0,0.0
12283,55.0,0,60,10.0,0.0
12284,79.0,0,60,1.0,0.0
12285,79.0,60,60,0.0,0.0
12286,43.0,0,60,11.0,0.0
12287,55.0,0,60,2.0,0.0
12288,48.0,0,60,5.0,0.0
12289,76.0,0,90,7.0,0.0
12290,76.0,0,60,0.0,0.0
12291,48.0,19,90,5.0,0.0
12292,76.0,0,90,6.0,0.0
12293,64.0,0,60,3.0,0.0
12294,64.0,41,60,8.0,0.0
12295,52.0,0,60,2.0,0.0
12296,76.0,0,60,1.0,0.0
12297,64.0,0,90,4.0,0.0
12298,52.0,0,60,10.0,0.0
12299,40.0,0,60,11.0,0.0
12300,64.0,0,60,8.0,0.0
12301,76.0,60,60,0.0,0.0
12302,64.0,0,60,3.0,0.0
12303,52.0,0,60,2.0,0.0
12304,76.0,0,60,1.0,0.0
12305,40.0,0,60,11.0,0.0
12306,52.0,0,60,10.0,0.0
12307,48.0,0,60,10.0,0.0
12308,72.0,0,60,1.0,0.0
12309,48.0,0,90,5.0,0.0
12310,48.0,0,60,2.0,0.0
12311,72.0,0,90,7.0,0.0
12312,72.0,0,60,0.0,0.0
12313,60.0,0,60,3.0,0.0
12314,60.0,0,60,8.0,0.0
12315,72.0,19,90,6.0,0.0
12316,36.0,41,60,11.0,0.0
12317,60.0,0,90,4.0,0.0
12318,36.0,0,60,11.0,0.0
12319,60.0,0,60,8.0,0.0
12320,48.0,0,60,10.0,0.0
12321,60.0,0,60,3.0,0.0
12322,72.0,0,60,1.0,0.0
12323,48.0,0,60,2.0,0.0
12324,72.0,101,60,0.0,0.0
12325,55.0,0,90,4.0,0.0
12326,67.0,0,90,4.0,0.0
12327,67.0,0,90,1.0,0.0
12328,52.0,120,90,2.0,0.0
12329,67.0,0,90,3.0,0.0
12330,43.0,0,90,10.0,0.0
12331,31.0,0,90,11.0,0.0
12332,67.0,0,90,7.0,0.0
12333,55.0,0,90,8.0,0.0
12334,67.0,0,90,6.0,0.0
12335,43.0,0,90,5.0,0.0
12336,67.0,0,90,0.0,0.0
12337,67.0,0,90,3.0,0.0
12338,83.0,0,90,0.0,0.0
12339,79.0,0,90,3.0,0.0
12340,59.0,0,90,2.0,0.0
12341,74.0,0,90,1.0,0.0
12342,79.0,19,90,1.0,0.0
12343,62.0,0,90,2.0,0.0
12344,55.0,0,60,10.0,0.0
12345,83.0,0,60,6.0,0.0
12346,43.0,0,60,11.0,0.0
12347,74.0,101,60,7.0,0.0
12348,67.0,0,60,8.0,0.0
12349,60.0,0,90,10.0,0.0
12350,55.0,0,90,4.0,0.0
12351,67.0,0,90,4.0,0.0
12352,76.0,0,90,7.0,0.0
12353,48.0,120,90,11.0,0.0
12354,72.0,0,90,8.0,0.0
12355,48.0,0,90,5.0,0.0
12356,84.0,0,90,6.0,0.0
12357,60.0,0,90,2.0,0.0
12358,64.0,0,90,2.0,0.0
12359,84.0,0,90,0.0,0.0
12360,76.0,0,90,1.0,0.0
12361,79.0,0,90,1.0,0.0
12362,67.0,19,90,3.0,0.0
12363,79.0,0,90,3.0,0.0
12364,72.0,0,60,8.0,0.0
12365,84.0,0,60,6.0,0.0
12366,76.0,0,60,7.0,0.0
12367,60.0,0,60,10.0,0.0
12368,48.0,101,60,11.0,0.0
12369,67.0,0,90,8.0,0.0
12370,55.0,0,90,10.0,0.0
12371,74.0,0,90,7.0,0.0
12372,55.0,0,90,4.0,0.0
12373,67.0,0,90,4.0,0.0
12374,83.0,120,90,6.0,0.0
12375,43.0,0,90,5.0,0.0
12376,43.0,0,90,11.0,0.0
12377,74.0,0,90,1.0,0.0
12378,79.0,0,90,1.0,0.0
12379,83.0,19,90,0.0,0.0
12380,67.0,0,90,3.0,0.0
12381,79.0,0,90,3.0,0.0
12382,62.0,0,90,2.0,0.0
12383,59.0,0,90,2.0,0.0
12384,67.0,0,60,8.0,0.0
12385,83.0,101,60,6.0,0.0
12386,43.0,0,60,11.0,0.0
12387,55.0,0,60,10.0,0.0
12388,74.0,0,60,7.0,0.0
12389,72.0,0,90,8.0,0.0
12390,48.0,0,90,11.0,0.0
12391,48.0,0,90,5.0,0.0
12392,67.0,120,90,4.0,0.0
12393,55.0,0,90,4.0,0.0
12394,76.0,0,90,7.0,0.0
12395,84.0,0,90,6.0,0.0
12396,60.0,0,90,10.0,0.0
12397,60.0,0,90,2.0,0.0
12398,79.0,0,90,3.0,0.0
12399,67.0,0,90,3.0,0.0
12400,64.0,0,90,2.0,0.0
12401,84.0,0,90,0.0,0.0
12402,79.0,19,90,1.0,0.0
12403,76.0,0,90,1.0,0.0
12404,72.0,0,60,8.0,0.0
12405,60.0,0,60,10.0,0.0
12406,48.0,0,60,11.0,0.0
12407,76.0,60,60,7.0,0.0
12408,84.0,0,60,6.0,0.0
12409,43.0,0,60,11.0,0.0
12410,59.0,0,60,2.0,0.0
12411,62.0,0,60,2.0,0.0
12412,55.0,0,60,4.0,0.0
12413,67.0,0,60,4.0,0.0
12414,74.0,0,60,7.0,0.0
12415,74.0,0,60,1.0,0.0
12416,79.0,0,60,1.0,0.0
12417,74.0,41,60,3.0,0.0
12418,83.0,0,60,6.0,0.0
12419,67.0,0,60,8.0,0.0
12420,43.0,19,90,5.0,0.0
12421,83.0,0,60,0.0,0.0
12422,67.0,0,60,3.0,0.0
12423,55.0,0,60,10.0,0.0
12424,79.0,0,60,1.0,0.0
12425,76.0,0,60,1.0,0.0
12426,72.0,0,60,3.0,0.0
12427,76.0,0,60,3.0,0.0
12428,60.0,0,60,2.0,0.0
12429,84.0,0,60,6.0,0.0
12430,60.0,0,60,10.0,0.0
12431,64.0,0,60,2.0,0.0
12432,76.0,0,60,7.0,0.0
12433,48.0,0,60,11.0,0.0
12434,84.0,0,60,0.0,0.0
12435,72.0,0,60,8.0,0.0
12436,55.0,0,60,4.0,0.0
12437,67.0,60,60,4.0,0.0
12438,67.0,0,60,8.0,0.0
12439,79.0,0,60,1.0,0.0
12440,55.0,41,60,4.0,0.0
12441,83.0,0,60,6.0,0.0
12442,55.0,0,60,10.0,0.0
12443,67.0,0,60,4.0,0.0
12444,74.0,0,60,3.0,0.0
12445,83.0,0,60,0.0,0.0
12446,67.0,0,60,3.0,0.0
12447,74.0,0,60,7.0,0.0
12448,74.0,0,60,1.0,0.0
12449,62.0,0,60,2.0,0.0
12450,43.0,0,60,11.0,0.0
12451,59.0,0,60,2.0,0.0
12452,43.0,19,90,5.0,0.0
12453,67.0,0,60,4.0,0.0
12454,79.0,0,60,1.0,0.0
12455,76.0,0,60,1.0,0.0
12456,60.0,0,60,2.0,0.0
12457,64.0,0,60,2.0,0.0
12458,72.0,0,60,3.0,0.0
12459,72.0,0,60,8.0,0.0
12460,84.0,0,60,6.0,0.0
12461,84.0,0,60,0.0,0.0
12462,60.0,0,60,10.0,0.0
12463,55.0,0,60,4.0,0.0
12464,76.0,0,60,7.0,0.0
12465,76.0,0,60,3.0,0.0
12466,48.0,60,60,11.0,0.0
12467,55.0,0,60,10.0,0.0
12468,74.0,0,60,1.0,0.0
12469,79.0,0,60,1.0,0.0
12470,67.0,0,60,4.0,0.0
12471,83.0,0,60,6.0,0.0
12472,74.0,0,60,3.0,0.0
12473,55.0,0,60,4.0,0.0
12474,74.0,0,60,7.0,0.0
12475,83.0,0,60,0.0,0.0
12476,62.0,41,60,2.0,0.0
12477,59.0,0,60,2.0,0.0
12478,67.0,0,60,8.0,0.0
12479,43.0,19,90,5.0,0.0
12480,43.0,0,60,11.0,0.0
12481,67.0,0,60,3.0,0.0
12482,84.0,0,60,0.0,0.0
12483,48.0,0,60,11.0,0.0
12484,60.0,0,60,10.0,0.0
12485,72.0,0,60,8.0,0.0
12486,64.0,0,60,2.0,0.0
12487,55.0,0,60,4.0,0.0
12488,76.0,0,60,1.0,0.0
12489,76.0,60,60,7.0,0.0
12490,79.0,0,60,1.0,0.0
12491,60.0,0,60,2.0,0.0
12492,76.0,0,60,3.0,0.0
12493,72.0,0,60,3.0,0.0
12494,84.0,0,60,6.0,0.0
12495,67.0,0,60,4.0,0.0
12496,79.0,0,60,1.0,0.0
12497,43.0,19,90,5.0,0.0
12498,74.0,0,60,1.0,0.0
12499,62.0,0,60,2.0,0.0
12500,67.0,0,60,3.0,0.0
12501,43.0,41,60,11.0,0.0
12502,59.0,0,60,2.0,0.0
12503,67.0,0,60,8.0,0.0
12504,55.0,0,60,4.0,0.0
12505,67.0,0,60,4.0,0.0
12506,74.0,0,60,7.0,0.0
12507,83.0,0,60,0.0,0.0
12508,74.0,0,60,3.0,0.0
12509,83.0,0,60,6.0,0.0
12510,55.0,0,60,10.0,0.0
12511,84.0,0,60,0.0,0.0
12512,64.0,0,60,2.0,0.0
12513,60.0,0,60,2.0,0.0
12514,55.0,0,60,4.0,0.0
12515,79.0,0,60,1.0,0.0
12516,48.0,0,60,11.0,0.0
12517,72.0,0,60,8.0,0.0
12518,67.0,0,60,4.0,0.0
12519,60.0,0,60,10.0,0.0
12520,72.0,0,60,3.0,0.0
12521,76.0,0,60,3.0,0.0
12522,76.0,0,60,7.0,0.0
12523,76.0,101,60,1.0,0.0
12524,84.0,0,60,6.0,0.0
12525,67.0,0,90,3.0,0.0
12526,83.0,0,90,6.0,0.0
12527,74.0,0,90,3.0,0.0
12528,79.0,0,90,1.0,0.0
12529,74.0,0,90,1.0,0.0
12530,43.0,0,90,11.0,0.0
12531,55.0,0,90,10.0,0.0
12532,59.0,0,90,2.0,0.0
12533,74.0,0,90,7.0,0.0
12534,83.0,0,90,0.0,0.0
12535,55.0,0,90,4.0,0.0
12536,67.0,0,90,4.0,0.0
12537,43.0,0,90,5.0,0.0
12538,67.0,120,90,8.0,0.0
12539,62.0,0,90,2.0,0.0
12540,67.0,0,90,8.0,0.0
12541,43.0,0,90,11.0,0.0
12542,79.0,0,90,6.0,0.0
12543,62.0,0,90,6.0,0.0
12544,71.0,0,90,6.0,0.0
12545,79.0,120,90,7.0,0.0
12546,55.0,0,90,10.0,0.0
12547,62.0,0,90,7.0,0.0
12548,71.0,0,90,7.0,0.0
12549,55.0,0,90,7.0,0.0
12550,55.0,0,90,8.0,0.0
12551,67.0,0,90,4.0,0.0
12552,55.0,0,90,6.0,0.0
12553,31.0,0,90,11.0,0.0
12554,55.0,0,90,4.0,0.0
12555,79.0,0,90,1.0,0.0
12556,67.0,0,90,1.0,0.0
12557,67.0,0,90,7.0,0.0
12558,43.0,0,90,2.0,0.0
12559,67.0,0,90,3.0,0.0
12560,55.0,0,90,3.0,0.0
12561,55.0,0,90,2.0,0.0
12562,67.0,0,90,6.0,0.0
12563,79.0,0,90,0.0,0.0
12564,43.0,0,90,5.0,0.0
12565,43.0,120,90,10.0,0.0
12566,43.0,0,90,2.0,0.0
12567,79.0,0,90,0.0,0.0
12568,55.0,0,90,3.0,0.0
12569,67.0,470,90,3.0,0.0
12570,79.0,0,90,1.0,0.0
12571,67.0,0,90,1.0,0.0
12572,55.0,0,90,2.0,0.0
12573,31.0,0,90,11.0,0.0
12574,43.0,0,90,10.0,0.0
12575,55.0,0,90,6.0,0.0
12576,67.0,0,90,6.0,0.0
12577,43.0,0,90,5.0,0.0
12578,67.0,0,90,7.0,0.0
12579,67.0,0,90,4.0,0.0
12580,55.0,0,90,7.0,0.0
12581,55.0,0,90,4.0,0.0
12582,55.0,0,90,8.0,0.0
12583,67.0,0,450,6.0,0.0
12584,67.0,0,450,4.0,0.0
12585,55.0,0,450,4.0,0.0
12586,43.0,0,450,5.0,0.0
12587,79.0,0,450,0.0,0.0
12588,55.0,0,450,3.0,0.0
12589,79.0,130,450,1.0,0.0
12590,55.0,0,450,6.0,0.0
12591,67.0,0,450,1.0,0.0
12592,67.0,0,450,7.0,0.0
12593,55.0,0,450,2.0,0.0
12594,43.0,0,450,2.0,0.0
12595,31.0,0,450,11.0,0.0
12596,43.0,0,450,10.0,0.0
12597,55.0,0,450,7.0,0.0
12598,55.0,0,450,8.0,0.0
12599,67.0,0,450,3.0,0.0
12600,60.0,0,120,2.0,0.0
12601,72.0,0,240,1.0,0.0
12602,60.0,20,90,7.0,0.0
12603,60.0,0,90,6.0,0.0
12604,72.0,0,240,0.0,0.0
12605,48.0,80,120,2.0,0.0
12606,51.0,0,120,2.0,0.0
12607,63.0,0,120,2.0,0.0
12608,55.0,0,20,6.0,0.0
12609,55.0,20,20,7.0,0.0
12610,57.0,20,20,7.0,0.0
12611,57.0,0,20,6.0,0.0
12612,59.0,0,20,6.0,0.0
12613,59.0,100,20,7.0,0.0
12614,60.0,20,90,6.0,0.0
12615,67.0,0,120,2.0,0.0
12616,55.0,80,120,2.0,0.0
12617,75.0,0,300,1.0,0.0
12618,84.0,21,300,0.0,0.0
12619,60.0,0,90,7.0,0.0
12620,51.0,0,90,2.0,0.0
12621,63.0,0,90,2.0,0.0
12622,55.0,20,20,7.0,0.0
12623,55.0,0,20,6.0,0.0
12624,57.0,20,20,6.0,0.0
12625,57.0,0,20,7.0,0.0
12626,59.0,0,20,7.0,0.0
12627,59.0,59,20,6.0,0.0
12628,60.0,0,90,2.0,0.0
12629,60.0,0,90,6.0,0.0
12630,60.0,40,90,7.0,0.0
12631,48.0,0,90,2.0,0.0
12632,79.0,0,20,1.0,0.0
12633,82.0,20,20,0.0,0.0
12634,77.0,60,20,1.0,0.0
12635,80.0,0,20,0.0,0.0
12636,75.0,0,20,1.0,0.0
12637,79.0,60,20,0.0,0.0
12638,77.0,0,20,0.0,0.0
12639,74.0,60,20,1.0,0.0
12640,75.0,0,20,0.0,0.0
12641,72.0,60,20,1.0,0.0
12642,74.0,0,20,0.0,0.0
12643,71.0,60,20,1.0,0.0
12644,72.0,220,20,1.0,0.0
12645,63.0,0,20,7.0,0.0
12646,75.0,0,20,6.0,0.0
12647,72.0,0,20,0.0,0.0
12648,77.0,0,240,1.0,0.0
12649,58.0,10,810,2.0,0.0
12650,63.0,60,180,7.0,0.0
12651,75.0,0,180,6.0,0.0
12652,80.0,0,240,0.0,0.0
12653,62.0,0,60,7.0,0.0
12654,74.0,180,60,6.0,0.0
12655,75.0,0,210,1.0,0.0
12656,77.0,0,180,6.0,0.0
12657,79.0,29,210,0.0,0.0
12658,65.0,30,180,7.0,0.0
12659,63.0,241,60,7.0,0.0
12660,75.0,0,60,6.0,0.0
12661,70.0,0,240,7.0,0.0
12662,74.0,0,330,1.0,0.0
12663,77.0,0,330,0.0,0.0
12664,82.0,90,240,6.0,0.0
12665,68.0,0,90,7.0,0.0
12666,80.0,240,90,6.0,0.0
12667,58.0,20,90,8.0,0.0
12668,70.0,0,90,6.0,0.0
12669,46.0,0,120,10.0,0.0
12670,77.0,0,240,1.0,0.0
12671,70.0,0,90,7.0,0.0
12672,80.0,0,240,0.0,0.0
12673,34.0,80,120,11.0,0.0
12674,56.0,0,240,2.0,0.0
12675,53.0,0,240,2.0,0.0
12676,50.0,0,120,10.0,0.0
12677,38.0,0,120,11.0,0.0
12678,53.0,0,20,8.0,0.0
12679,65.0,20,20,6.0,0.0
12680,65.0,0,20,7.0,0.0
12681,67.0,0,20,7.0,0.0
12682,67.0,0,20,6.0,0.0
12683,55.0,20,20,8.0,0.0
12684,69.0,0,20,7.0,0.0
12685,69.0,0,20,6.0,0.0
12686,57.0,100,20,8.0,0.0
12687,70.0,0,90,7.0,0.0
12688,58.0,0,90,8.0,0.0
12689,41.0,0,120,11.0,0.0
12690,70.0,20,90,6.0,0.0
12691,65.0,0,300,2.0,0.0
12692,56.0,0,300,2.0,0.0
12693,80.0,21,300,1.0,0.0
12694,53.0,80,120,10.0,0.0
12695,89.0,0,300,0.0,0.0
12696,38.0,0,90,11.0,0.0
12697,50.0,20,90,10.0,0.0
12698,65.0,0,20,7.0,0.0
12699,65.0,0,20,6.0,0.0
12700,53.0,20,20,8.0,0.0
12701,67.0,0,20,7.0,0.0
12702,55.0,0,20,8.0,0.0
12703,67.0,0,20,6.0,0.0
12704,69.0,0,20,6.0,0.0
12705,69.0,0,20,7.0,0.0
12706,57.0,59,20,8.0,0.0
12707,58.0,0,90,8.0,0.0
12708,34.0,0,90,11.0,0.0
12709,46.0,40,90,10.0,0.0
12710,70.0,0,90,7.0,0.0
12711,70.0,0,90,6.0,0.0
12712,79.0,0,20,1.0,0.0
12713,55.0,20,20,2.0,0.0
12714,87.0,0,20,0.0,0.0
12715,63.0,0,20,2.0,0.0
12716,77.0,60,20,1.0,0.0
12717,86.0,0,20,0.0,0.0
12718,62.0,0,20,2.0,0.0
12719,53.0,0,20,2.0,0.0
12720,84.0,60,20,0.0,0.0
12721,75.0,0,20,1.0,0.0
12722,51.0,0,20,2.0,0.0
12723,60.0,0,20,2.0,0.0
12724,82.0,0,20,0.0,0.0
12725,74.0,0,20,1.0,0.0
12726,58.0,60,20,2.0,0.0
12727,50.0,0,20,2.0,0.0
12728,80.0,0,20,0.0,0.0
12729,77.0,60,20,1.0,0.0
12730,56.0,0,20,2.0,0.0
12731,53.0,0,20,2.0,0.0
12732,75.0,0,20,1.0,0.0
12733,55.0,0,20,2.0,0.0
12734,51.0,0,20,2.0,0.0
12735,79.0,60,20,0.0,0.0
12736,65.0,220,20,7.0,0.0
12737,53.0,0,20,2.0,0.0
12738,50.0,0,20,2.0,0.0
12739,74.0,0,20,1.0,0.0
12740,77.0,0,20,6.0,0.0
12741,77.0,0,20,0.0,0.0
12742,58.0,0,240,2.0,0.0
12743,65.0,0,180,7.0,0.0
12744,82.0,0,240,0.0,0.0
12745,72.0,0,570,3.0,0.0
12746,60.0,0,570,3.0,0.0
12747,79.0,0,240,1.0,0.0
12748,55.0,0,240,2.0,0.0
12749,77.0,60,180,6.0,0.0
12750,64.0,0,60,7.0,0.0
12751,76.0,180,60,6.0,0.0
12752,53.0,29,210,2.0,0.0
12753,77.0,0,210,1.0,0.0
12754,56.0,0,210,2.0,0.0
12755,79.0,0,180,6.0,0.0
12756,67.0,30,180,7.0,0.0
12757,80.0,0,210,0.0,0.0
12758,65.0,31,60,7.0,0.0
12759,77.0,0,60,6.0,0.0
12760,84.0,30,240,6.0,0.0
12761,72.0,50,90,7.0,0.0
12762,76.0,0,30,1.0,0.0
12763,55.0,0,30,2.0,0.0
12764,52.0,0,30,2.0,0.0
12765,79.0,70,30,0.0,0.0
12766,52.0,0,30,2.0,0.0
12767,79.0,0,30,0.0,0.0
12768,72.0,90,30,1.0,0.0
12769,60.0,0,30,2.0,0.0
12770,79.0,0,30,0.0,0.0
12771,72.0,0,30,1.0,0.0
12772,82.0,101,60,6.0,0.0
12773,79.0,59,240,7.0,0.0
12774,60.0,0,30,2.0,0.0
12775,52.0,29,30,2.0,0.0
12776,79.0,80,30,6.0,0.0
12777,82.0,20,240,6.0,0.0
12778,77.0,81,60,7.0,0.0
12779,84.0,90,30,1.0,0.0
12780,72.0,0,20,7.0,0.0
12781,65.0,10,20,8.0,0.0
12782,80.0,81,60,6.0,0.0
12783,53.0,10,20,8.0,0.0
12784,84.0,29,30,1.0,0.0
12785,75.0,30,240,7.0,0.0
12786,89.0,20,90,0.0,0.0
12787,77.0,60,30,6.0,0.0
12788,56.0,20,20,8.0,0.0
12789,72.0,0,120,1.0,0.0
12790,58.0,40,90,8.0,0.0
12791,80.0,0,240,6.0,0.0
12792,74.0,41,60,7.0,0.0
12793,70.0,0,90,1.0,0.0
12794,89.0,29,30,0.0,0.0
12795,65.0,20,120,2.0,0.0
12796,50.0,10,20,11.0,0.0
12797,62.0,60,60,10.0,0.0
12798,70.0,0,20,7.0,0.0
12799,82.0,30,30,1.0,0.0
12800,39.0,10,20,11.0,0.0
12801,51.0,40,60,10.0,0.0
12802,82.0,29,30,1.0,0.0
12803,79.0,1,60,6.0,0.0
12804,63.0,40,90,2.0,0.0
12805,74.0,0,240,7.0,0.0
12806,87.0,10,30,0.0,0.0
12807,70.0,30,120,1.0,0.0
12808,75.0,0,30,6.0,0.0
12809,43.0,10,20,11.0,0.0
12810,55.0,80,30,10.0,0.0
12811,72.0,41,60,7.0,0.0
12812,79.0,20,240,6.0,0.0
12813,45.0,0,90,11.0,0.0
12814,88.0,29,30,0.0,0.0
12815,57.0,0,90,10.0,0.0
12816,69.0,40,90,1.0,0.0
12817,69.0,10,20,7.0,0.0
12818,81.0,90,30,1.0,0.0
12819,63.0,0,120,2.0,0.0
12820,60.0,0,20,8.0,0.0
12821,72.0,30,240,7.0,0.0
12822,50.0,10,20,8.0,0.0
12823,62.0,40,90,2.0,0.0
12824,81.0,29,30,1.0,0.0
12825,77.0,41,60,6.0,0.0
12826,74.0,0,20,6.0,0.0
12827,86.0,90,30,0.0,0.0
12828,53.0,10,20,8.0,0.0
12829,69.0,0,120,1.0,0.0
12830,77.0,0,240,6.0,0.0
12831,86.0,29,30,0.0,0.0
12832,67.0,50,90,1.0,0.0
12833,71.0,0,60,7.0,0.0
12834,55.0,41,60,8.0,0.0
12835,62.0,0,120,8.0,0.0
12836,79.0,90,30,1.0,0.0
12837,59.0,59,120,10.0,0.0
12838,47.0,0,120,11.0,0.0
12839,62.0,0,120,2.0,0.0
12840,67.0,10,210,7.0,0.0
12841,48.0,0,120,11.0,0.0
12842,60.0,0,120,10.0,0.0
12843,60.0,20,120,8.0,0.0
12844,79.0,0,480,1.0,0.0
12845,75.0,31,60,6.0,0.0
12846,60.0,20,90,2.0,0.0
12847,46.0,0,90,11.0,0.0
12848,58.0,0,90,10.0,0.0
12849,74.0,80,20,6.0,0.0
12850,67.0,0,90,7.0,0.0
12851,62.0,140,90,8.0,0.0
12852,63.0,60,240,8.0,0.0
12853,67.0,0,240,7.0,0.0
12854,45.0,0,240,11.0,0.0
12855,72.0,0,450,6.0,0.0
12856,57.0,0,240,10.0,0.0
12857,84.0,60,60,0.0,0.0
12858,83.0,60,60,0.0,0.0
12859,84.0,0,60,0.0,0.0
12860,44.0,0,210,11.0,0.0
12861,66.0,0,210,7.0,0.0
12862,86.0,60,60,0.0,0.0
12863,78.0,29,210,1.0,0.0
12864,56.0,0,210,10.0,0.0
12865,60.0,0,210,8.0,0.0
12866,84.0,60,60,0.0,0.0
12867,87.0,30,60,0.0,0.0
12868,84.0,101,60,0.0,0.0
12869,43.0,0,90,11.0,0.0
12870,55.0,0,90,10.0,0.0
12871,79.0,0,210,1.0,0.0
12872,43.0,0,120,2.0,0.0
12873,55.0,0,120,2.0,0.0
12874,62.0,0,90,6.0,0.0
12875,71.0,0,90,6.0,0.0
12876,43.0,0,90,5.0,0.0
12877,67.0,0,90,7.0,0.0
12878,67.0,0,90,4.0,0.0
12879,55.0,0,90,8.0,0.0
12880,67.0,20,90,8.0,0.0
12881,67.0,80,120,1.0,0.0
12882,79.0,0,90,6.0,0.0
12883,79.0,10,210,0.0,0.0
12884,59.0,0,90,7.0,0.0
12885,67.0,0,90,3.0,0.0
12886,71.0,0,120,1.0,0.0
12887,47.0,0,120,2.0,0.0
12888,59.0,0,120,2.0,0.0
12889,38.0,0,20,11.0,0.0
12890,50.0,0,20,10.0,0.0
12891,62.0,0,20,8.0,0.0
12892,62.0,0,20,6.0,0.0
12893,62.0,10,20,7.0,0.0
12894,64.0,0,20,8.0,0.0
12895,52.0,0,20,10.0,0.0
12896,64.0,20,20,6.0,0.0
12897,64.0,0,20,7.0,0.0
12898,40.0,0,20,11.0,0.0
12899,66.0,100,20,8.0,0.0
12900,42.0,0,20,11.0,0.0
12901,66.0,0,20,7.0,0.0
12902,54.0,0,20,10.0,0.0
12903,66.0,0,20,6.0,0.0
12904,43.0,0,90,5.0,0.0
12905,67.0,20,90,3.0,0.0
12906,50.0,80,120,2.0,0.0
12907,62.0,0,120,2.0,0.0
12908,67.0,0,90,7.0,0.0
12909,43.0,0,90,11.0,0.0
12910,91.0,39,270,0.0,0.0
12911,67.0,0,90,6.0,0.0
12912,74.0,0,120,1.0,0.0
12913,83.0,21,300,1.0,0.0
12914,55.0,0,90,10.0,0.0
12915,67.0,0,90,8.0,0.0
12916,67.0,0,90,4.0,0.0
12917,59.0,0,90,2.0,0.0
12918,47.0,0,90,2.0,0.0
12919,71.0,0,120,1.0,0.0
12920,62.0,0,20,6.0,0.0
12921,62.0,0,20,7.0,0.0
12922,62.0,20,20,8.0,0.0
12923,38.0,0,20,11.0,0.0
12924,50.0,0,20,10.0,0.0
12925,40.0,0,20,11.0,0.0
12926,52.0,0,20,10.0,0.0
12927,64.0,0,20,8.0,0.0
12928,64.0,20,20,6.0,0.0
12929,64.0,0,20,7.0,0.0
12930,54.0,0,20,10.0,0.0
12931,42.0,0,20,11.0,0.0
12932,66.0,0,20,8.0,0.0
12933,66.0,0,20,6.0,0.0
12934,66.0,20,20,7.0,0.0
12935,43.0,0,90,11.0,0.0
12936,67.0,40,90,6.0,0.0
12937,55.0,0,90,10.0,0.0
12938,43.0,0,90,5.0,0.0
12939,67.0,0,90,1.0,0.0
12940,67.0,0,90,4.0,0.0
12941,67.0,0,90,8.0,0.0
12942,43.0,0,90,2.0,0.0
12943,55.0,0,90,2.0,0.0
12944,67.0,0,90,7.0,0.0
12945,67.0,0,90,3.0,0.0
12946,86.0,20,20,1.0,0.0
12947,90.0,0,20,0.0,0.0
12948,88.0,0,20,0.0,0.0
12949,84.0,60,20,1.0,0.0
12950,83.0,0,20,1.0,0.0
12951,86.0,60,20,0.0,0.0
12952,84.0,0,20,0.0,0.0
12953,81.0,60,20,1.0,0.0
12954,79.0,0,20,1.0,0.0
12955,83.0,60,20,0.0,0.0
12956,78.0,0,20,1.0,0.0
12957,81.0,60,20,0.0,0.0
12958,79.0,0,20,1.0,0.0
12959,59.0,39,20,2.0,0.0
12960,59.0,0,20,7.0,0.0
12961,79.0,0,20,6.0,0.0
12962,47.0,60,60,11.0,0.0
12963,59.0,0,60,10.0,0.0
12964,79.0,0,20,0.0,0.0
12965,67.0,0,60,8.0,0.0
12966,55.0,1,60,8.0,0.0
12967,79.0,10,3810,1.0,0.0
12968,48.0,0,150,11.0,0.0
12969,43.0,40,60,11.0,0.0
12970,67.0,0,570,3.0,0.0
12971,60.0,0,180,2.0,0.0
12972,67.0,0,570,4.0,0.0
12973,60.0,0,180,7.0,0.0
12974,60.0,19,150,10.0,0.0
12975,43.0,19,90,5.0,0.0
12976,81.0,0,180,6.0,0.0
12977,91.0,0,3810,0.0,0.0
12978,55.0,1,60,8.0,0.0
12979,67.0,0,60,8.0,0.0
12980,55.0,0,15,10.0,0.0
12981,55.0,59,60,10.0,0.0
12982,43.0,40,15,11.0,0.0
12983,67.0,0,60,8.0,0.0
12984,55.0,1,60,8.0,0.0
12985,67.0,0,60,8.0,0.0
12986,59.0,0,60,7.0,0.0
12987,47.0,0,60,11.0,0.0
12988,43.0,0,15,11.0,0.0
12989,55.0,0,60,8.0,0.0
12990,59.0,0,60,2.0,0.0
12991,79.0,0,60,6.0,0.0
12992,59.0,0,60,10.0,0.0
12993,55.0,0,60,10.0,0.0
12994,55.0,0,60,10.0,0.0
12995,62.0,0,180,2.0,0.0
12996,55.0,0,60,8.0,0.0
12997,62.0,0,180,7.0,0.0
12998,67.0,1,60,8.0,0.0
12999,62.0,19,150,10.0,0.0
13000,43.0,19,90,5.0,0.0
13001,50.0,0,150,11.0,0.0
13002,83.0,59,180,6.0,0.0
13003,67.0,0,60,8.0,0.0
13004,55.0,1,60,8.0,0.0
13005,43.0,40,15,11.0,0.0
13006,55.0,1,60,8.0,0.0
13007,67.0,0,60,8.0,0.0
13008,55.0,40,15,10.0,0.0
13009,48.0,0,60,11.0,0.0
13010,60.0,0,60,2.0,0.0
13011,43.0,0,15,11.0,0.0
13012,55.0,0,60,10.0,0.0
13013,67.0,0,60,8.0,0.0
13014,55.0,60,60,8.0,0.0
13015,81.0,0,60,6.0,0.0
13016,60.0,0,60,7.0,0.0
13017,60.0,0,60,10.0,0.0
13018,52.0,29,210,11.0,0.0
13019,64.0,0,210,10.0,0.0
13020,43.0,19,90,5.0,0.0
13021,84.0,59,240,6.0,0.0
13022,64.0,0,240,2.0,0.0
13023,67.0,0,60,8.0,0.0
13024,55.0,1,60,8.0,0.0
13025,55.0,0,60,10.0,0.0
13026,64.0,0,240,7.0,0.0
13027,43.0,40,15,11.0,0.0
13028,67.0,0,60,8.0,0.0
13029,55.0,1,60,8.0,0.0
13030,55.0,0,60,10.0,0.0
13031,55.0,1,60,8.0,0.0
13032,67.0,0,60,8.0,0.0
13033,67.0,1,90,3.0,0.0
13034,67.0,0,90,4.0,0.0
13035,55.0,0,60,8.0,0.0
13036,67.0,0,60,8.0,0.0
13037,43.0,0,15,11.0,0.0
13038,55.0,29,15,10.0,0.0
13039,67.0,0,30,4.0,0.0
13040,67.0,1,30,3.0,0.0
13041,62.0,0,90,2.0,0.0
13042,50.0,0,90,11.0,0.0
13043,43.0,0,15,11.0,0.0
13044,55.0,41,60,10.0,0.0
13045,62.0,0,90,7.0,0.0
13046,67.0,0,60,8.0,0.0
13047,55.0,0,60,8.0,0.0
13048,62.0,0,90,10.0,0.0
13049,67.0,0,90,4.0,0.0
13050,67.0,0,90,3.0,0.0
13051,83.0,19,90,6.0,0.0
13052,55.0,0,60,8.0,0.0
13053,67.0,0,60,8.0,0.0
13054,55.0,0,60,10.0,0.0
13055,43.0,60,60,11.0,0.0
13056,67.0,0,90,3.0,0.0
13057,67.0,19,90,4.0,0.0
13058,67.0,0,60,8.0,0.0
13059,43.0,0,60,11.0,0.0
13060,55.0,21,60,10.0,0.0
13061,55.0,0,60,8.0,0.0
13062,59.0,0,30,7.0,0.0
13063,47.0,0,60,11.0,0.0
13064,43.0,60,60,11.0,0.0
13065,80.0,0,30,6.0,0.0
13066,67.0,0,60,8.0,0.0
13067,59.0,20,20,2.0,0.0
13068,55.0,0,60,8.0,0.0
13069,55.0,0,60,10.0,0.0
13070,59.0,0,60,10.0,0.0
13071,67.0,0,60,8.0,0.0
13072,55.0,1,60,8.0,0.0
13073,67.0,0,570,4.0,0.0
13074,43.0,19,90,5.0,0.0
13075,67.0,0,570,3.0,0.0
13076,62.0,0,180,7.0,0.0
13077,62.0,19,150,10.0,0.0
13078,62.0,0,180,2.0,0.0
13079,83.0,0,180,6.0,0.0
13080,50.0,0,150,11.0,0.0
13081,43.0,40,60,11.0,0.0
13082,55.0,0,15,10.0,0.0
13083,55.0,1,60,8.0,0.0
13084,67.0,0,60,8.0,0.0
13085,67.0,0,60,8.0,0.0
13086,55.0,1,60,8.0,0.0
13087,43.0,40,15,11.0,0.0
13088,55.0,0,15,10.0,0.0
13089,60.0,0,60,7.0,0.0
13090,81.0,0,60,6.0,0.0
13091,55.0,0,15,10.0,0.0
13092,48.0,0,60,11.0,0.0
13093,43.0,59,15,11.0,0.0
13094,60.0,0,60,10.0,0.0
13095,67.0,0,60,8.0,0.0
13096,55.0,60,60,8.0,0.0
13097,60.0,0,60,2.0,0.0
13098,52.0,0,150,11.0,0.0
13099,43.0,0,60,11.0,0.0
13100,84.0,0,180,6.0,0.0
13101,64.0,19,150,10.0,0.0
13102,55.0,0,60,8.0,0.0
13103,67.0,1,60,8.0,0.0
13104,43.0,19,90,5.0,0.0
13105,64.0,0,180,2.0,0.0
13106,64.0,0,180,7.0,0.0
13107,67.0,1,60,8.0,0.0
13108,55.0,40,15,10.0,0.0
13109,55.0,0,60,8.0,0.0
13110,55.0,0,15,10.0,0.0
13111,43.0,40,15,11.0,0.0
13112,67.0,1,60,8.0,0.0
13113,55.0,0,60,8.0,0.0
13114,43.0,59,15,11.0,0.0
13115,55.0,0,15,10.0,0.0
13116,62.0,0,60,10.0,0.0
13117,62.0,0,60,2.0,0.0
13118,62.0,0,60,7.0,0.0
13119,50.0,0,60,11.0,0.0
13120,67.0,0,60,8.0,0.0
13121,55.0,0,60,8.0,0.0
13122,83.0,60,60,6.0,0.0
13123,65.0,0,240,7.0,0.0
13124,86.0,0,240,6.0,0.0
13125,43.0,19,90,5.0,0.0
13126,65.0,29,210,10.0,0.0
13127,43.0,0,60,11.0,0.0
13128,55.0,1,60,8.0,0.0
13129,53.0,0,210,11.0,0.0
13130,67.0,0,60,8.0,0.0
13131,65.0,0,240,2.0,0.0
13132,55.0,40,15,10.0,0.0
13133,67.0,1,60,8.0,0.0
13134,55.0,0,60,8.0,0.0
13135,43.0,59,60,11.0,0.0
13136,67.0,1,90,4.0,0.0
13137,55.0,0,15,10.0,0.0
13138,55.0,1,60,8.0,0.0
13139,67.0,0,90,3.0,0.0
13140,67.0,0,60,8.0,0.0
13141,43.0,0,15,11.0,0.0
13142,55.0,29,15,10.0,0.0
13143,67.0,0,60,8.0,0.0
13144,55.0,0,60,8.0,0.0
13145,67.0,0,30,4.0,0.0
13146,67.0,1,30,3.0,0.0
13147,64.0,0,150,10.0,0.0
13148,55.0,0,15,10.0,0.0
13149,64.0,0,90,7.0,0.0
13150,64.0,0,90,2.0,0.0
13151,84.0,0,90,6.0,0.0
13152,55.0,41,60,8.0,0.0
13153,67.0,19,90,3.0,0.0
13154,52.0,19,150,11.0,0.0
13155,67.0,0,60,8.0,0.0
13156,67.0,0,90,4.0,0.0
13157,43.0,0,60,11.0,0.0
13158,55.0,0,60,8.0,0.0
13159,55.0,0,60,10.0,0.0
13160,43.0,0,60,11.0,0.0
13161,67.0,41,60,8.0,0.0
13162,43.0,21,60,11.0,0.0
13163,55.0,0,60,10.0,0.0
13164,55.0,0,60,8.0,0.0
13165,67.0,0,90,3.0,0.0
13166,67.0,19,90,4.0,0.0
13167,67.0,0,60,8.0,0.0
13168,55.0,60,60,8.0,0.0
13169,61.0,0,60,10.0,0.0
13170,49.0,0,60,11.0,0.0
13171,61.0,0,30,7.0,0.0
13172,43.0,0,60,11.0,0.0
13173,61.0,20,20,2.0,0.0
13174,82.0,0,30,6.0,0.0
13175,55.0,0,60,10.0,0.0
13176,67.0,0,60,8.0,0.0
13177,52.0,19,150,11.0,0.0
13178,84.0,0,180,6.0,0.0
13179,67.0,0,570,3.0,0.0
13180,43.0,19,90,5.0,0.0
13181,64.0,0,180,2.0,0.0
13182,64.0,0,180,7.0,0.0
13183,64.0,0,150,10.0,0.0
13184,67.0,0,60,8.0,0.0
13185,67.0,0,570,4.0,0.0
13186,55.0,1,60,8.0,0.0
13187,43.0,40,15,11.0,0.0
13188,67.0,0,60,8.0,0.0
13189,55.0,1,60,8.0,0.0
13190,55.0,0,15,10.0,0.0
13191,43.0,40,15,11.0,0.0
13192,67.0,1,60,8.0,0.0
13193,55.0,0,60,8.0,0.0
13194,55.0,0,60,8.0,0.0
13195,67.0,0,60,8.0,0.0
13196,43.0,0,15,11.0,0.0
13197,83.0,0,60,6.0,0.0
13198,50.0,0,60,11.0,0.0
13199,55.0,59,15,10.0,0.0
13200,62.0,0,60,7.0,0.0
13201,62.0,0,60,10.0,0.0
13202,62.0,60,60,2.0,0.0
13203,43.0,19,90,5.0,0.0
13204,55.0,0,60,8.0,0.0
13205,67.0,1,60,8.0,0.0
13206,65.0,19,150,10.0,0.0
13207,55.0,40,60,10.0,0.0
13208,86.0,0,180,6.0,0.0
13209,65.0,0,180,2.0,0.0
13210,53.0,0,150,11.0,0.0
13211,43.0,0,60,11.0,0.0
13212,65.0,59,180,7.0,0.0
13213,55.0,40,60,10.0,0.0
13214,67.0,1,60,8.0,0.0
13215,55.0,0,60,8.0,0.0
13216,43.0,0,15,11.0,0.0
13217,55.0,1,60,8.0,0.0
13218,67.0,0,60,8.0,0.0
13219,55.0,0,60,10.0,0.0
13220,64.0,0,60,10.0,0.0
13221,64.0,0,60,2.0,0.0
13222,85.0,0,60,6.0,0.0
13223,52.0,0,60,11.0,0.0
13224,43.0,0,60,11.0,0.0
13225,64.0,60,60,7.0,0.0
13226,55.0,0,60,10.0,0.0
13227,55.0,0,60,8.0,0.0
13228,67.0,0,60,8.0,0.0
13229,67.0,0,240,2.0,0.0
13230,67.0,0,60,8.0,0.0
13231,55.0,1,60,8.0,0.0
13232,67.0,59,240,7.0,0.0
13233,43.0,0,60,11.0,0.0
13234,67.0,0,210,10.0,0.0
13235,88.0,0,240,6.0,0.0
13236,55.0,29,210,11.0,0.0
13237,43.0,19,90,5.0,0.0
13238,43.0,0,60,11.0,0.0
13239,55.0,0,60,8.0,0.0
13240,67.0,1,60,8.0,0.0
13241,55.0,40,15,10.0,0.0
13242,55.0,1,60,8.0,0.0
13243,43.0,0,60,11.0,0.0
13244,67.0,0,60,8.0,0.0
13245,67.0,1,90,3.0,0.0
13246,67.0,0,90,4.0,0.0
13247,43.0,0,60,11.0,0.0
13248,67.0,0,60,8.0,0.0
13249,55.0,29,15,10.0,0.0
13250,55.0,0,60,8.0,0.0
13251,67.0,0,30,4.0,0.0
13252,67.0,1,30,3.0,0.0
13253,53.0,0,150,11.0,0.0
13254,43.0,0,60,11.0,0.0
13255,67.0,0,60,8.0,0.0
13256,55.0,0,60,8.0,0.0
13257,55.0,0,15,10.0,0.0
13258,65.0,19,150,10.0,0.0
13259,86.0,0,90,6.0,0.0
13260,67.0,0,90,4.0,0.0
13261,65.0,19,90,2.0,0.0
13262,65.0,0,90,7.0,0.0
13263,67.0,0,90,3.0,0.0
13264,43.0,41,60,11.0,0.0
13265,55.0,0,60,10.0,0.0
13266,67.0,0,60,8.0,0.0
13267,55.0,0,60,8.0,0.0
13268,67.0,0,90,4.0,0.0
13269,67.0,0,90,3.0,0.0
13270,55.0,0,60,8.0,0.0
13271,43.0,21,60,11.0,0.0
13272,67.0,0,60,8.0,0.0
13273,55.0,0,60,10.0,0.0
13274,83.0,19,30,6.0,0.0
13275,67.0,0,60,8.0,0.0
13276,55.0,0,60,8.0,0.0
13277,63.0,0,30,7.0,0.0
13278,43.0,60,60,11.0,0.0
13279,51.0,0,60,11.0,0.0
13280,63.0,20,20,2.0,0.0
13281,55.0,0,60,10.0,0.0
13282,63.0,0,60,10.0,0.0
13283,55.0,1,60,8.0,0.0
13284,65.0,59,240,7.0,0.0
13285,55.0,40,60,10.0,0.0
13286,65.0,0,240,2.0,0.0
13287,86.0,0,240,6.0,0.0
13288,67.0,19,90,4.0,0.0
13289,43.0,0,60,11.0,0.0
13290,53.0,29,210,11.0,0.0
13291,67.0,0,60,8.0,0.0
13292,65.0,0,210,10.0,0.0
13293,43.0,0,90,5.0,0.0
13294,67.0,0,90,3.0,0.0
13295,67.0,1,60,8.0,0.0
13296,43.0,59,60,11.0,0.0
13297,55.0,0,60,8.0,0.0
13298,67.0,0,90,4.0,0.0
13299,55.0,0,15,10.0,0.0
13300,43.0,0,60,11.0,0.0
13301,67.0,1,90,3.0,0.0
13302,67.0,0,60,8.0,0.0
13303,55.0,1,60,8.0,0.0
13304,55.0,1,60,8.0,0.0
13305,67.0,0,60,8.0,0.0
13306,43.0,0,60,11.0,0.0
13307,67.0,0,30,4.0,0.0
13308,67.0,0,30,3.0,0.0
13309,55.0,0,60,8.0,0.0
13310,67.0,0,90,4.0,0.0
13311,43.0,0,60,11.0,0.0
13312,52.0,0,150,11.0,0.0
13313,64.0,19,150,10.0,0.0
13314,64.0,19,90,7.0,0.0
13315,55.0,0,15,10.0,0.0
13316,67.0,0,90,3.0,0.0
13317,64.0,0,90,2.0,0.0
13318,67.0,41,60,8.0,0.0
13319,84.0,0,90,6.0,0.0
13320,55.0,41,60,10.0,0.0
13321,67.0,0,60,8.0,0.0
13322,55.0,0,60,8.0,0.0
13323,43.0,0,60,11.0,0.0
13324,43.0,0,60,11.0,0.0
13325,67.0,0,90,3.0,0.0
13326,55.0,0,60,8.0,0.0
13327,67.0,0,60,8.0,0.0
13328,55.0,21,60,10.0,0.0
13329,67.0,19,90,4.0,0.0
13330,49.0,0,60,11.0,0.0
13331,43.0,0,60,11.0,0.0
13332,55.0,60,60,8.0,0.0
13333,82.0,0,30,6.0,0.0
13334,61.0,0,30,7.0,0.0
13335,55.0,0,60,10.0,0.0
13336,67.0,0,60,8.0,0.0
13337,61.0,20,20,2.0,0.0
13338,61.0,0,60,10.0,0.0
13339,52.0,0,210,11.0,0.0
13340,84.0,0,240,6.0,0.0
13341,64.0,29,210,10.0,0.0
13342,55.0,0,60,8.0,0.0
13343,67.0,1,60,8.0,0.0
13344,43.0,19,90,5.0,0.0
13345,67.0,0,90,3.0,0.0
13346,67.0,0,90,4.0,0.0
13347,64.0,0,240,2.0,0.0
13348,64.0,0,240,7.0,0.0
13349,67.0,1,60,8.0,0.0
13350,55.0,0,15,10.0,0.0
13351,43.0,40,15,11.0,0.0
13352,55.0,0,60,8.0,0.0
13353,55.0,0,60,8.0,0.0
13354,43.0,0,60,11.0,0.0
13355,67.0,1,60,8.0,0.0
13356,67.0,0,90,4.0,0.0
13357,67.0,1,90,3.0,0.0
13358,55.0,29,60,10.0,0.0
13359,43.0,0,60,11.0,0.0
13360,67.0,0,60,8.0,0.0
13361,55.0,0,60,8.0,0.0
13362,55.0,59,60,10.0,0.0
13363,67.0,1,30,3.0,0.0
13364,67.0,0,30,4.0,0.0
13365,62.0,0,90,2.0,0.0
13366,67.0,0,60,8.0,0.0
13367,83.0,0,90,6.0,0.0
13368,55.0,0,60,8.0,0.0
13369,62.0,0,90,7.0,0.0
13370,67.0,0,90,3.0,0.0
13371,67.0,0,90,4.0,0.0
13372,55.0,0,60,10.0,0.0
13373,62.0,19,90,10.0,0.0
13374,43.0,41,60,11.0,0.0
13375,50.0,0,90,11.0,0.0
13376,55.0,0,60,10.0,0.0
13377,55.0,60,60,8.0,0.0
13378,67.0,0,60,8.0,0.0
13379,43.0,0,60,11.0,0.0
13380,55.0,0,60,8.0,0.0
13381,43.0,21,60,11.0,0.0
13382,67.0,0,90,3.0,0.0
13383,55.0,0,60,10.0,0.0
13384,67.0,0,60,8.0,0.0
13385,67.0,0,90,4.0,0.0
13386,55.0,0,20,2.0,0.0
13387,59.0,10,20,2.0,0.0
13388,67.0,0,60,8.0,0.0
13389,43.0,0,60,11.0,0.0
13390,55.0,60,60,8.0,0.0
13391,55.0,0,60,10.0,0.0
13392,59.0,0,30,7.0,0.0
13393,79.0,19,30,6.0,0.0
13394,45.0,41,60,11.0,0.0
13395,48.0,0,90,5.0,0.0
13396,57.0,0,60,10.0,0.0
13397,90.0,0,120,0.0,0.0
13398,84.0,59,120,1.0,0.0
13399,60.0,0,90,7.0,0.0
13400,78.0,0,120,1.0,0.0
13401,78.0,0,90,6.0,0.0
13402,57.0,0,120,2.0,0.0
13403,60.0,0,120,2.0,0.0
13404,72.0,0,90,3.0,0.0
13405,60.0,0,90,3.0,0.0
13406,60.0,19,90,4.0,0.0
13407,57.0,0,60,8.0,0.0
13408,72.0,0,90,4.0,0.0
13409,57.0,1,60,10.0,0.0
13410,45.0,0,60,11.0,0.0
13411,57.0,0,60,8.0,0.0
13412,67.0,0,90,3.0,0.0
13413,67.0,0,90,4.0,0.0
13414,91.0,0,120,0.0,0.0
13415,43.0,0,60,11.0,0.0
13416,59.0,19,90,7.0,0.0
13417,55.0,41,60,8.0,0.0
13418,55.0,0,60,10.0,0.0
13419,55.0,0,120,2.0,0.0
13420,59.0,59,120,2.0,0.0
13421,79.0,0,120,1.0,0.0
13422,83.0,0,120,1.0,0.0
13423,79.0,0,90,6.0,0.0
13424,43.0,0,90,5.0,0.0
13425,55.0,0,60,8.0,0.0
13426,55.0,1,60,10.0,0.0
13427,43.0,0,60,11.0,0.0
13428,60.0,0,90,4.0,0.0
13429,57.0,0,60,8.0,0.0
13430,90.0,0,120,0.0,0.0
13431,84.0,59,120,1.0,0.0
13432,78.0,19,90,6.0,0.0
13433,57.0,41,60,10.0,0.0
13434,57.0,0,120,2.0,0.0
13435,45.0,0,60,11.0,0.0
13436,60.0,0,90,7.0,0.0
13437,48.0,0,90,5.0,0.0
13438,60.0,0,90,3.0,0.0
13439,72.0,0,90,3.0,0.0
13440,60.0,0,120,2.0,0.0
13441,72.0,0,90,4.0,0.0
13442,78.0,0,120,1.0,0.0
13443,57.0,0,60,10.0,0.0
13444,57.0,1,60,8.0,0.0
13445,45.0,0,60,11.0,0.0
13446,55.0,19,90,2.0,0.0
13447,67.0,0,90,4.0,0.0
13448,43.0,0,90,5.0,0.0
13449,91.0,0,90,0.0,0.0
13450,59.0,0,90,2.0,0.0
13451,67.0,0,90,3.0,0.0
13452,59.0,0,90,7.0,0.0
13453,79.0,0,90,1.0,0.0
13454,55.0,41,60,8.0,0.0
13455,83.0,0,90,1.0,0.0
13456,55.0,0,60,10.0,0.0
13457,79.0,0,90,6.0,0.0
13458,43.0,0,60,11.0,0.0
13459,55.0,101,60,10.0,0.0
13460,55.0,0,60,8.0,0.0
13461,43.0,0,60,11.0,0.0
13462,60.0,0,450,2.0,0.0
13463,45.0,0,330,11.0,0.0
13464,60.0,0,330,3.0,0.0
13465,78.0,0,450,1.0,0.0
13466,57.0,0,450,2.0,0.0
13467,78.0,79,90,6.0,0.0
13468,57.0,0,330,10.0,0.0
13469,72.0,10,330,3.0,0.0
13470,57.0,0,330,8.0,0.0
13471,48.0,0,90,5.0,0.0
13472,90.0,0,450,0.0,0.0
13473,60.0,0,330,7.0,0.0
13474,72.0,0,330,4.0,0.0
13475,60.0,0,330,4.0,0.0
13476,84.0,10,450,1.0,0.0
13477,84.0,19,90,6.0,0.0
13478,48.0,41,60,5.0,0.0
13479,48.0,91,60,5.0,0.0
13480,48.0,110,90,5.0,0.0
13481,81.0,0,90,6.0,0.0
13482,45.0,0,90,11.0,0.0
13483,60.0,0,90,3.0,0.0
13484,57.0,0,90,8.0,0.0
13485,78.0,0,90,6.0,0.0
13486,60.0,0,90,7.0,0.0
13487,60.0,0,90,4.0,0.0
13488,72.0,120,90,4.0,0.0
13489,48.0,0,90,5.0,0.0
13490,57.0,0,90,10.0,0.0
13491,72.0,0,90,3.0,0.0
13492,43.0,95,90,11.0,0.0
13493,55.0,0,90,10.0,0.0
13494,55.0,0,90,2.0,0.0
13495,59.0,0,90,2.0,0.0
13496,67.0,0,90,3.0,0.0
13497,83.0,0,90,1.0,0.0
13498,91.0,0,90,0.0,0.0
13499,59.0,0,90,7.0,0.0
13500,79.0,0,90,1.0,0.0
13501,43.0,0,90,5.0,0.0
13502,55.0,0,90,8.0,0.0
13503,79.0,0,90,6.0,0.0
13504,67.0,0,210,4.0,0.0
13505,79.0,0,90,0.0,0.0
13506,71.0,0,90,1.0,0.0
13507,67.0,1,90,3.0,0.0
13508,62.0,0,90,2.0,0.0
13509,59.0,0,90,2.0,0.0
13510,74.0,0,90,1.0,0.0
13511,74.0,14,15,7.0,0.0
13512,62.0,0,15,8.0,0.0
13513,72.0,15,15,7.0,0.0
13514,60.0,0,15,8.0,0.0
13515,59.0,0,15,8.0,0.0
13516,74.0,0,30,1.0,0.0
13517,59.0,0,30,2.0,0.0
13518,71.0,0,30,1.0,0.0
13519,79.0,1,30,0.0,0.0
13520,67.0,0,30,3.0,0.0
13521,62.0,0,30,2.0,0.0
13522,71.0,14,15,7.0,0.0
13523,57.0,0,15,8.0,0.0
13524,69.0,100,15,7.0,0.0
13525,71.0,0,90,1.0,0.0
13526,67.0,0,90,3.0,0.0
13527,62.0,0,90,2.0,0.0
13528,74.0,0,90,1.0,0.0
13529,79.0,0,90,0.0,0.0
13530,67.0,120,90,4.0,0.0
13531,67.0,0,90,7.0,0.0
13532,59.0,0,90,2.0,0.0
13533,55.0,0,90,8.0,0.0
13534,71.0,0,90,1.0,0.0
13535,74.0,0,90,1.0,0.0
13536,55.0,0,90,10.0,0.0
13537,43.0,120,90,11.0,0.0
13538,67.0,0,90,4.0,0.0
13539,67.0,0,90,6.0,0.0
13540,43.0,0,90,5.0,0.0
13541,79.0,0,90,0.0,0.0
13542,62.0,0,90,2.0,0.0
13543,59.0,0,90,2.0,0.0
13544,67.0,0,90,3.0,0.0
13545,74.0,0,90,6.0,0.0
13546,83.0,0,90,6.0,0.0
13547,84.0,0,90,6.0,0.0
13548,67.0,0,210,4.0,0.0
13549,43.0,0,90,5.0,0.0
13550,31.0,0,90,11.0,0.0
13551,76.0,0,90,1.0,0.0
13552,67.0,0,90,6.0,0.0
13553,79.0,95,90,0.0,0.0
13554,76.0,0,90,6.0,0.0
13555,72.0,0,90,1.0,0.0
13556,64.0,0,90,2.0,0.0
13557,43.0,0,90,10.0,0.0
13558,67.0,0,90,3.0,0.0
13559,60.0,0,90,2.0,0.0
13560,60.0,1,90,2.0,0.0
13561,67.0,0,90,3.0,0.0
13562,79.0,0,90,0.0,0.0
13563,76.0,0,90,1.0,0.0
13564,72.0,0,90,1.0,0.0
13565,64.0,0,90,2.0,0.0
13566,79.0,14,15,7.0,0.0
13567,67.0,0,15,8.0,0.0
13568,65.0,15,15,8.0,0.0
13569,77.0,0,15,7.0,0.0
13570,79.0,1,30,0.0,0.0
13571,76.0,0,15,7.0,0.0
13572,64.0,0,30,2.0,0.0
13573,67.0,0,30,3.0,0.0
13574,72.0,0,30,1.0,0.0
13575,76.0,0,30,1.0,0.0
13576,64.0,14,15,8.0,0.0
13577,60.0,0,30,2.0,0.0
13578,62.0,0,15,8.0,0.0
13579,74.0,100,15,7.0,0.0
13580,64.0,0,90,2.0,0.0
13581,72.0,0,90,1.0,0.0
13582,76.0,0,90,1.0,0.0
13583,79.0,0,90,0.0,0.0
13584,72.0,0,90,7.0,0.0
13585,60.0,0,90,8.0,0.0
13586,60.0,0,90,2.0,0.0
13587,67.0,120,90,4.0,0.0
13588,67.0,0,90,3.0,0.0
13589,76.0,120,90,1.0,0.0
13590,55.0,0,90,10.0,0.0
13591,72.0,0,90,1.0,0.0
13592,72.0,0,90,6.0,0.0
13593,79.0,0,90,0.0,0.0
13594,64.0,0,90,2.0,0.0
13595,60.0,0,90,2.0,0.0
13596,67.0,0,90,4.0,0.0
13597,43.0,0,90,5.0,0.0
13598,64.0,0,90,6.0,0.0
13599,76.0,0,90,6.0,0.0
13600,43.0,0,90,11.0,0.0
13601,67.0,0,90,3.0,0.0
13602,67.0,0,90,3.0,0.0
13603,67.0,15,210,4.0,0.0
13604,62.0,0,90,2.0,0.0
13605,31.0,0,90,11.0,0.0
13606,71.0,0,90,1.0,0.0
13607,79.0,0,90,0.0,0.0
13608,59.0,0,90,2.0,0.0
13609,62.0,0,90,6.0,0.0
13610,79.0,0,90,6.0,0.0
13611,71.0,0,90,6.0,0.0
13612,43.0,0,90,5.0,0.0
13613,74.0,0,90,1.0,0.0
13614,43.0,95,90,10.0,0.0
13615,67.0,1,90,3.0,0.0
13616,59.0,0,90,2.0,0.0
13617,71.0,0,90,1.0,0.0
13618,79.0,0,90,0.0,0.0
13619,74.0,0,90,1.0,0.0
13620,62.0,0,90,2.0,0.0
13621,74.0,14,15,8.0,0.0
13622,86.0,0,15,7.0,0.0
13623,84.0,0,15,7.0,0.0
13624,72.0,0,15,8.0,0.0
13625,71.0,0,30,1.0,0.0
13626,62.0,0,30,2.0,0.0
13627,71.0,14,15,8.0,0.0
13628,83.0,0,15,7.0,0.0
13629,74.0,1,30,1.0,0.0
13630,59.0,0,30,2.0,0.0
13631,79.0,0,30,0.0,0.0
13632,67.0,0,30,3.0,0.0
13633,81.0,0,15,7.0,0.0
13634,69.0,100,15,8.0,0.0
13635,67.0,0,90,8.0,0.0
13636,67.0,120,90,4.0,0.0
13637,79.0,0,90,0.0,0.0
13638,67.0,0,90,3.0,0.0
13639,79.0,0,90,7.0,0.0
13640,62.0,0,90,2.0,0.0
13641,74.0,0,90,1.0,0.0
13642,71.0,0,90,1.0,0.0
13643,59.0,0,90,2.0,0.0
13644,43.0,0,90,11.0,0.0
13645,67.0,0,90,4.0,0.0
13646,71.0,0,90,1.0,0.0
13647,74.0,0,90,1.0,0.0
13648,67.0,0,90,3.0,0.0
13649,79.0,120,90,0.0,0.0
13650,83.0,0,90,6.0,0.0
13651,67.0,0,90,6.0,0.0
13652,59.0,0,90,2.0,0.0
13653,62.0,0,90,2.0,0.0
13654,43.0,0,90,5.0,0.0
13655,74.0,0,90,6.0,0.0
13656,55.0,0,90,10.0,0.0
13657,67.0,0,90,6.0,0.0
13658,31.0,95,90,11.0,0.0
13659,43.0,0,90,5.0,0.0
13660,67.0,0,90,3.0,0.0
13661,84.0,0,90,6.0,0.0
13662,60.0,0,90,2.0,0.0
13663,43.0,0,90,10.0,0.0
13664,76.0,0,90,1.0,0.0
13665,67.0,15,210,4.0,0.0
13666,79.0,0,90,0.0,0.0
13667,76.0,0,90,6.0,0.0
13668,72.0,0,90,1.0,0.0
13669,64.0,0,90,2.0,0.0
13670,76.0,0,90,1.0,0.0
13671,67.0,1,90,3.0,0.0
13672,79.0,0,90,0.0,0.0
13673,64.0,0,90,2.0,0.0
13674,60.0,0,90,2.0,0.0
13675,72.0,0,90,1.0,0.0
13676,79.0,14,15,7.0,0.0
13677,67.0,0,15,8.0,0.0
13678,77.0,0,15,7.0,0.0
13679,65.0,0,15,8.0,0.0
13680,67.0,1,30,3.0,0.0
13681,64.0,0,15,8.0,0.0
13682,76.0,14,15,7.0,0.0
13683,76.0,0,30,1.0,0.0
13684,72.0,0,30,1.0,0.0
13685,60.0,0,30,2.0,0.0
13686,64.0,0,30,2.0,0.0
13687,79.0,0,30,0.0,0.0
13688,62.0,0,15,8.0,0.0
13689,74.0,100,15,7.0,0.0
13690,60.0,0,90,8.0,0.0
13691,79.0,120,90,0.0,0.0
13692,72.0,0,90,1.0,0.0
13693,76.0,0,90,1.0,0.0
13694,67.0,0,90,3.0,0.0
13695,67.0,0,90,4.0,0.0
13696,72.0,0,90,7.0,0.0
13697,60.0,0,90,2.0,0.0
13698,64.0,0,90,2.0,0.0
13699,43.0,0,90,5.0,0.0
13700,64.0,0,90,2.0,0.0
13701,60.0,0,90,2.0,0.0
13702,72.0,0,90,6.0,0.0
13703,43.0,0,90,11.0,0.0
13704,79.0,0,90,0.0,0.0
13705,76.0,0,90,6.0,0.0
13706,55.0,0,90,10.0,0.0
13707,64.0,0,90,6.0,0.0
13708,67.0,0,90,4.0,0.0
13709,76.0,0,90,1.0,0.0
13710,72.0,0,90,1.0,0.0
13711,67.0,120,90,3.0,0.0
13712,31.0,0,90,11.0,0.0
13713,62.0,0,90,6.0,0.0
13714,79.0,0,90,6.0,0.0
13715,62.0,0,90,2.0,0.0
13716,67.0,0,90,7.0,0.0
13717,71.0,0,90,6.0,0.0
13718,79.0,0,90,0.0,0.0
13719,67.0,0,90,4.0,0.0
13720,55.0,95,90,8.0,0.0
13721,67.0,0,90,3.0,0.0
13722,74.0,0,90,1.0,0.0
13723,71.0,0,90,1.0,0.0
13724,43.0,0,90,10.0,0.0
13725,43.0,0,90,5.0,0.0
13726,59.0,0,90,2.0,0.0
13727,79.0,0,90,3.0,0.0
13728,67.0,0,90,3.0,0.0
13729,83.0,0,90,6.0,0.0
13730,62.0,0,90,2.0,0.0
13731,79.0,0,90,1.0,0.0
13732,83.0,0,90,1.0,0.0
13733,86.0,0,90,0.0,0.0
13734,74.0,5,90,6.0,0.0
13735,67.0,0,90,6.0,0.0
13736,59.0,0,90,2.0,0.0
13737,79.0,15,15,7.0,0.0
13738,67.0,0,15,8.0,0.0
13739,77.0,0,15,7.0,0.0
13740,65.0,10,15,8.0,0.0
13741,76.0,0,15,7.0,0.0
13742,64.0,15,15,8.0,0.0
13743,74.0,0,15,7.0,0.0
13744,62.0,100,15,8.0,0.0
13745,43.0,0,90,11.0,0.0
13746,76.0,95,90,7.0,0.0
13747,67.0,0,90,4.0,0.0
13748,64.0,0,90,8.0,0.0
13749,55.0,0,90,10.0,0.0
13750,60.0,0,90,4.0,0.0
13751,60.0,0,90,2.0,0.0
13752,67.0,5,90,3.0,0.0
13753,43.0,0,90,5.0,0.0
13754,79.0,0,90,3.0,0.0
13755,79.0,0,90,1.0,0.0
13756,88.0,0,90,0.0,0.0
13757,64.0,0,90,2.0,0.0
13758,84.0,0,90,1.0,0.0
13759,67.0,0,90,6.0,0.0
13760,84.0,0,90,6.0,0.0
13761,76.0,0,90,6.0,0.0
13762,65.0,0,15,8.0,0.0
13763,77.0,15,15,7.0,0.0
13764,64.0,0,15,8.0,0.0
13765,76.0,10,15,7.0,0.0
13766,74.0,0,15,7.0,0.0
13767,62.0,15,15,8.0,0.0
13768,60.0,100,15,8.0,0.0
13769,72.0,0,15,7.0,0.0
13770,43.0,0,90,10.0,0.0
13771,31.0,0,90,11.0,0.0
13772,71.0,0,90,7.0,0.0
13773,59.0,0,90,8.0,0.0
13774,43.0,0,90,5.0,0.0
13775,67.0,95,90,4.0,0.0
13776,55.0,0,90,4.0,0.0
13777,59.0,0,90,2.0,0.0
13778,67.0,0,90,6.0,0.0
13779,86.0,0,90,0.0,0.0
13780,83.0,0,90,6.0,0.0
13781,79.0,0,90,3.0,0.0
13782,67.0,5,90,3.0,0.0
13783,62.0,0,90,2.0,0.0
13784,74.0,0,90,6.0,0.0
13785,79.0,0,90,1.0,0.0
13786,83.0,0,90,1.0,0.0
13787,79.0,0,15,7.0,0.0
13788,67.0,15,15,8.0,0.0
13789,77.0,10,15,7.0,0.0
13790,65.0,0,15,8.0,0.0
13791,64.0,0,15,8.0,0.0
13792,76.0,15,15,7.0,0.0
13793,62.0,100,15,8.0,0.0
13794,74.0,0,15,7.0,0.0
13795,43.0,0,90,5.0,0.0
13796,43.0,0,90,11.0,0.0
13797,60.0,0,90,4.0,0.0
13798,67.0,0,90,4.0,0.0
13799,64.0,0,90,8.0,0.0
13800,76.0,95,90,7.0,0.0
13801,55.0,0,90,10.0,0.0
13802,64.0,0,90,2.0,0.0
13803,60.0,0,90,2.0,0.0
13804,84.0,0,90,6.0,0.0
13805,67.0,0,90,6.0,0.0
13806,76.0,0,90,6.0,0.0
13807,79.0,0,90,3.0,0.0
13808,67.0,0,90,3.0,0.0
13809,88.0,0,90,0.0,0.0
13810,84.0,0,90,1.0,0.0
13811,79.0,5,90,1.0,0.0
13812,77.0,15,15,7.0,0.0
13813,65.0,0,15,8.0,0.0
13814,64.0,0,15,8.0,0.0
13815,76.0,10,15,7.0,0.0
13816,62.0,15,15,8.0,0.0
13817,74.0,0,15,7.0,0.0
13818,72.0,100,15,7.0,0.0
13819,60.0,0,15,8.0,0.0
13820,79.0,0,90,1.0,0.0
13821,31.0,0,90,11.0,0.0
13822,62.0,0,90,2.0,0.0
13823,59.0,0,90,2.0,0.0
13824,67.0,0,90,8.0,0.0
13825,67.0,0,90,4.0,0.0
13826,79.0,0,90,7.0,0.0
13827,67.0,0,90,6.0,0.0
13828,83.0,0,90,6.0,0.0
13829,74.0,0,90,6.0,0.0
13830,83.0,0,90,1.0,0.0
13831,86.0,0,90,0.0,0.0
13832,67.0,0,90,3.0,0.0
13833,55.0,0,90,3.0,0.0
13834,43.0,0,90,10.0,0.0
13835,43.0,440,90,5.0,0.0
13836,55.0,0,90,4.0,0.0
13837,64.0,60,60,7.0,0.0
13838,72.0,60,360,6.0,0.0
13839,67.0,60,60,7.0,0.0
13840,64.0,60,60,7.0,0.0
13841,67.0,60,60,7.0,0.0
13842,64.0,60,60,7.0,0.0
13843,67.0,0,60,7.0,0.0
13844,73.0,60,120,6.0,0.0
13845,64.0,59,60,7.0,0.0
13846,67.0,1,60,7.0,0.0
13847,74.0,20,90,6.0,0.0
13848,65.0,40,60,7.0,0.0
13849,67.0,60,60,7.0,0.0
13850,65.0,60,60,7.0,0.0
13851,67.0,60,60,7.0,0.0
13852,65.0,60,60,7.0,0.0
13853,67.0,60,60,7.0,0.0
13854,65.0,59,60,7.0,0.0
13855,67.0,61,60,7.0,0.0
13856,62.0,60,60,7.0,0.0
13857,62.0,0,360,10.0,0.0
13858,62.0,0,360,8.0,0.0
13859,50.0,0,360,11.0,0.0
13860,67.0,60,60,7.0,0.0
13861,77.0,30,90,6.0,0.0
13862,62.0,30,60,7.0,0.0
13863,67.0,0,60,7.0,0.0
13864,74.0,60,30,6.0,0.0
13865,83.0,60,60,6.0,0.0
13866,62.0,0,60,7.0,0.0
13867,67.0,60,60,7.0,0.0
13868,63.0,0,120,10.0,0.0
13869,51.0,0,120,11.0,0.0
13870,63.0,60,120,8.0,0.0
13871,63.0,0,60,7.0,0.0
13872,83.0,59,60,6.0,0.0
13873,67.0,1,60,7.0,0.0
13874,64.0,20,90,8.0,0.0
13875,64.0,0,90,10.0,0.0
13876,52.0,0,90,11.0,0.0
13877,84.0,30,180,6.0,0.0
13878,64.0,40,60,7.0,0.0
13879,67.0,60,60,7.0,0.0
13880,64.0,0,60,7.0,0.0
13881,67.0,0,60,7.0,0.0
13882,83.0,30,30,6.0,0.0
13883,81.0,59,30,6.0,0.0
13884,64.0,60,60,7.0,0.0
13885,79.0,1,60,6.0,0.0
13886,67.0,60,60,7.0,0.0
13887,79.0,29,90,6.0,0.0
13888,64.0,30,60,7.0,0.0
13889,67.0,61,60,7.0,0.0
13890,81.0,0,30,6.0,0.0
13891,77.0,0,60,6.0,0.0
13892,47.0,0,90,11.0,0.0
13893,62.0,40,60,7.0,0.0
13894,59.0,0,90,10.0,0.0
13895,59.0,20,90,8.0,0.0
13896,67.0,60,60,7.0,0.0
13897,77.0,29,90,6.0,0.0
13898,62.0,30,60,7.0,0.0
13899,67.0,60,60,7.0,0.0
13900,79.0,1,30,6.0,0.0
13901,48.0,0,90,11.0,0.0
13902,60.0,0,90,8.0,0.0
13903,60.0,0,60,7.0,0.0
13904,60.0,20,90,10.0,0.0
13905,76.0,40,60,6.0,0.0
13906,67.0,60,60,7.0,0.0
13907,60.0,30,60,7.0,0.0
13908,76.0,29,90,6.0,0.0
13909,67.0,61,60,7.0,0.0
13910,77.0,0,30,6.0,0.0
13911,74.0,40,60,6.0,0.0
13912,59.0,0,90,7.0,0.0
13913,74.0,0,60,0.0,0.0
13914,55.0,0,90,8.0,0.0
13915,55.0,20,90,10.0,0.0
13916,43.0,0,90,11.0,0.0
13917,76.0,60,60,0.0,0.0
13918,76.0,0,60,6.0,0.0
13919,77.0,60,60,6.0,0.0
13920,77.0,0,60,0.0,0.0
13921,78.0,60,60,0.0,0.0
13922,78.0,0,60,6.0,0.0
13923,79.0,0,60,0.0,0.0
13924,79.0,60,60,6.0,0.0
13925,55.0,0,60,2.0,0.0
13926,80.0,0,60,0.0,0.0
13927,56.0,60,60,2.0,0.0
13928,76.0,0,60,6.0,0.0
13929,77.0,0,60,6.0,0.0
13930,81.0,59,60,0.0,0.0
13931,57.0,0,60,2.0,0.0
13932,74.0,0,60,6.0,0.0
13933,59.0,0,60,2.0,0.0
13934,83.0,61,60,0.0,0.0
13935,84.0,0,360,0.0,0.0
13936,64.0,60,60,7.0,0.0
13937,72.0,0,360,6.0,0.0
13938,60.0,60,360,2.0,0.0
13939,67.0,60,60,7.0,0.0
13940,64.0,60,60,7.0,0.0
13941,67.0,60,60,7.0,0.0
13942,64.0,60,60,7.0,0.0
13943,67.0,0,60,7.0,0.0
13944,61.0,60,120,2.0,0.0
13945,85.0,0,120,0.0,0.0
13946,73.0,0,120,6.0,0.0
13947,64.0,59,60,7.0,0.0
13948,67.0,1,60,7.0,0.0
13949,65.0,40,60,7.0,0.0
13950,86.0,0,90,0.0,0.0
13951,62.0,20,90,2.0,0.0
13952,74.0,0,90,6.0,0.0
13953,67.0,60,60,7.0,0.0
13954,65.0,60,60,7.0,0.0
13955,67.0,60,60,7.0,0.0
13956,65.0,60,60,7.0,0.0
13957,67.0,60,60,7.0,0.0
13958,65.0,59,60,7.0,0.0
13959,67.0,61,60,7.0,0.0
13960,50.0,20,360,11.0,0.0
13961,62.0,0,360,10.0,0.0
13962,62.0,60,60,7.0,0.0
13963,62.0,0,360,8.0,0.0
13964,67.0,60,60,7.0,0.0
13965,65.0,30,90,2.0,0.0
13966,62.0,30,60,7.0,0.0
13967,89.0,0,90,0.0,0.0
13968,77.0,0,90,6.0,0.0
13969,67.0,0,60,7.0,0.0
13970,86.0,0,30,0.0,0.0
13971,62.0,0,30,2.0,0.0
13972,74.0,59,30,6.0,0.0
13973,59.0,1,60,2.0,0.0
13974,83.0,0,60,0.0,0.0
13975,62.0,60,60,7.0,0.0
13976,71.0,0,60,6.0,0.0
13977,67.0,0,60,7.0,0.0
13978,71.0,0,60,6.0,0.0
13979,83.0,0,60,0.0,0.0
13980,59.0,40,20,2.0,0.0
13981,63.0,59,60,7.0,0.0
13982,63.0,0,120,10.0,0.0
13983,63.0,15,120,8.0,0.0
13984,51.0,0,120,11.0,0.0
13985,67.0,1,60,7.0,0.0
13986,52.0,0,90,11.0,0.0
13987,64.0,0,90,8.0,0.0
13988,62.0,15,15,2.0,0.0
13989,64.0,0,60,7.0,0.0
13990,74.0,0,15,6.0,0.0
13991,64.0,5,90,10.0,0.0
13992,86.0,0,15,0.0,0.0
13993,84.0,15,15,0.0,0.0
13994,72.0,0,15,6.0,0.0
13995,60.0,0,15,2.0,0.0
13996,74.0,0,15,6.0,0.0
13997,86.0,15,15,0.0,0.0
13998,62.0,0,15,2.0,0.0
13999,84.0,0,15,0.0,0.0
14000,72.0,0,15,6.0,0.0
14001,60.0,15,15,2.0,0.0
14002,86.0,15,15,0.0,0.0
14003,62.0,0,15,2.0,0.0
14004,74.0,0,15,6.0,0.0
14005,67.0,0,60,7.0,0.0
14006,72.0,10,15,6.0,0.0
14007,84.0,0,15,0.0,0.0
14008,60.0,0,15,2.0,0.0
14009,62.0,0,15,2.0,0.0
14010,86.0,15,15,0.0,0.0
14011,74.0,0,15,6.0,0.0
14012,60.0,0,15,2.0,0.0
14013,84.0,0,15,0.0,0.0
14014,72.0,15,15,6.0,0.0
14015,64.0,30,60,7.0,0.0
14016,62.0,0,15,2.0,0.0
14017,86.0,15,15,0.0,0.0
14018,74.0,0,15,6.0,0.0
14019,72.0,15,15,6.0,0.0
14020,84.0,0,15,0.0,0.0
14021,60.0,0,15,2.0,0.0
14022,86.0,0,15,0.0,0.0
14023,62.0,0,15,2.0,0.0
14024,74.0,15,15,6.0,0.0
14025,72.0,0,15,6.0,0.0
14026,60.0,0,15,2.0,0.0
14027,84.0,0,15,0.0,0.0
14028,83.0,0,30,0.0,0.0
14029,71.0,30,30,6.0,0.0
14030,59.0,0,30,2.0,0.0
14031,67.0,59,60,7.0,0.0
14032,57.0,0,30,2.0,0.0
14033,69.0,0,30,6.0,0.0
14034,81.0,0,30,0.0,0.0
14035,79.0,0,60,0.0,0.0
14036,67.0,1,60,6.0,0.0
14037,55.0,0,60,2.0,0.0
14038,64.0,60,60,7.0,0.0
14039,67.0,60,60,7.0,0.0
14040,64.0,30,60,7.0,0.0
14041,67.0,29,90,6.0,0.0
14042,79.0,0,90,1.0,0.0
14043,60.0,0,60,7.0,0.0
14044,81.0,0,30,1.0,0.0
14045,69.0,21,30,6.0,0.0
14046,65.0,40,60,6.0,0.0
14047,77.0,0,90,3.0,0.0
14048,59.0,0,90,10.0,0.0
14049,74.0,0,90,3.0,0.0
14050,47.0,0,90,11.0,0.0
14051,59.0,20,90,8.0,0.0
14052,77.0,40,20,1.0,0.0
14053,62.0,0,60,7.0,0.0
14054,55.0,60,60,7.0,0.0
14055,77.0,0,90,1.0,0.0
14056,62.0,30,60,7.0,0.0
14057,65.0,29,90,6.0,0.0
14058,55.0,20,60,7.0,0.0
14059,79.0,0,30,1.0,0.0
14060,67.0,1,30,6.0,0.0
14061,76.0,40,20,1.0,0.0
14062,76.0,0,90,3.0,0.0
14063,72.0,0,90,3.0,0.0
14064,60.0,0,60,7.0,0.0
14065,60.0,0,90,8.0,0.0
14066,48.0,20,90,11.0,0.0
14067,60.0,0,90,10.0,0.0
14068,64.0,40,60,6.0,0.0
14069,55.0,60,60,7.0,0.0
14070,76.0,0,90,1.0,0.0
14071,60.0,30,60,7.0,0.0
14072,64.0,29,90,6.0,0.0
14073,55.0,31,60,7.0,0.0
14074,77.0,0,30,1.0,0.0
14075,65.0,0,30,6.0,0.0
14076,74.0,30,30,1.0,0.0
14077,53.0,0,480,8.0,0.0
14078,67.0,20,90,3.0,0.0
14079,41.0,0,480,11.0,0.0
14080,59.0,0,60,7.0,0.0
14081,62.0,40,60,6.0,0.0
14082,53.0,20,480,10.0,0.0
14083,74.0,0,90,3.0,0.0
14084,55.0,30,60,7.0,0.0
14085,59.0,0,60,7.0,0.0
14086,74.0,0,90,3.0,0.0
14087,67.0,20,90,3.0,0.0
14088,74.0,30,30,1.0,0.0
14089,62.0,40,60,6.0,0.0
14090,55.0,30,60,7.0,0.0
14091,74.0,0,90,3.0,0.0
14092,67.0,20,90,3.0,0.0
14093,62.0,40,60,6.0,0.0
14094,59.0,0,60,7.0,0.0
14095,74.0,30,30,1.0,0.0
14096,55.0,60,60,7.0,0.0
14097,59.0,30,60,7.0,0.0
14098,64.0,29,90,6.0,0.0
14099,76.0,0,90,1.0,0.0
14100,62.0,1,60,7.0,0.0
14101,65.0,0,30,6.0,0.0
14102,77.0,0,30,1.0,0.0
14103,64.0,40,60,7.0,0.0
14104,52.0,0,90,10.0,0.0
14105,79.0,0,90,3.0,0.0
14106,40.0,20,90,11.0,0.0
14107,76.0,0,90,3.0,0.0
14108,79.0,40,20,1.0,0.0
14109,67.0,0,60,6.0,0.0
14110,52.0,0,90,8.0,0.0
14111,60.0,60,60,7.0,0.0
14112,55.0,30,60,7.0,0.0
14113,79.0,29,90,1.0,0.0
14114,67.0,0,90,6.0,0.0
14115,64.0,20,60,7.0,0.0
14116,69.0,0,30,6.0,0.0
14117,81.0,1,30,1.0,0.0
14118,44.0,0,90,11.0,0.0
14119,56.0,0,90,8.0,0.0
14120,62.0,0,60,7.0,0.0
14121,77.0,40,20,1.0,0.0
14122,77.0,20,90,3.0,0.0
14123,56.0,0,90,10.0,0.0
14124,65.0,40,60,6.0,0.0
14125,74.0,0,90,3.0,0.0
14126,60.0,60,60,7.0,0.0
14127,77.0,29,90,1.0,0.0
14128,59.0,30,60,7.0,0.0
14129,65.0,0,90,6.0,0.0
14130,62.0,0,60,7.0,0.0
14131,67.0,0,30,6.0,0.0
14132,79.0,31,30,1.0,0.0
14133,76.0,30,30,1.0,0.0
14134,88.0,0,360,0.0,0.0
14135,57.0,0,360,8.0,0.0
14136,60.0,0,60,7.0,0.0
14137,64.0,40,60,6.0,0.0
14138,76.0,20,90,3.0,0.0
14139,72.0,0,90,3.0,0.0
14140,57.0,0,360,10.0,0.0
14141,57.0,30,60,7.0,0.0
14142,76.0,30,30,1.0,0.0
14143,72.0,20,90,3.0,0.0
14144,76.0,0,90,3.0,0.0
14145,64.0,40,60,6.0,0.0
14146,60.0,0,60,7.0,0.0
14147,57.0,60,60,7.0,0.0
14148,76.0,0,60,1.0,0.0
14149,76.0,0,120,3.0,0.0
14150,64.0,60,60,6.0,0.0
14151,60.0,0,60,7.0,0.0
14152,72.0,0,120,3.0,0.0
14153,64.0,60,60,7.0,0.0
14154,79.0,0,60,1.0,0.0
14155,67.0,0,60,6.0,0.0
14156,45.0,0,15,11.0,0.0
14157,65.0,40,60,6.0,0.0
14158,77.0,0,60,1.0,0.0
14159,57.0,0,60,8.0,0.0
14160,57.0,19,90,10.0,0.0
14161,89.0,0,60,0.0,0.0
14162,77.0,0,60,3.0,0.0
14163,60.0,0,60,7.0,0.0
14164,74.0,0,60,1.0,0.0
14165,86.0,0,60,0.0,0.0
14166,57.0,61,60,7.0,0.0
14167,62.0,0,60,6.0,0.0
14168,74.0,0,60,3.0,0.0
14169,53.0,0,60,8.0,0.0
14170,43.0,20,90,11.0,0.0
14171,55.0,0,90,10.0,0.0
14172,84.0,0,360,0.0,0.0
14173,60.0,60,360,6.0,0.0
14174,55.0,0,360,7.0,0.0
14175,52.0,40,60,8.0,0.0
14176,64.0,0,360,3.0,0.0
14177,72.0,0,360,1.0,0.0
14178,72.0,0,360,3.0,0.0
14179,55.0,60,60,8.0,0.0
14180,31.0,0,90,11.0,0.0
14181,43.0,20,90,10.0,0.0
14182,52.0,40,60,8.0,0.0
14183,55.0,60,60,8.0,0.0
14184,52.0,40,60,8.0,0.0
14185,43.0,0,90,10.0,0.0
14186,31.0,20,90,11.0,0.0
14187,55.0,0,60,8.0,0.0
14188,53.0,0,60,8.0,0.0
14189,88.0,0,60,0.0,0.0
14190,59.0,0,90,7.0,0.0
14191,31.0,19,90,11.0,0.0
14192,76.0,0,60,1.0,0.0
14193,64.0,0,60,6.0,0.0
14194,76.0,40,60,3.0,0.0
14195,67.0,0,60,3.0,0.0
14196,43.0,0,90,10.0,0.0
14197,55.0,61,60,8.0,0.0
14198,74.0,0,60,3.0,0.0
14199,86.0,0,60,0.0,0.0
14200,74.0,0,60,1.0,0.0
14201,62.0,0,60,6.0,0.0
14202,60.0,0,180,8.0,0.0
14203,60.0,40,60,7.0,0.0
14204,60.0,0,90,6.0,0.0
14205,84.0,20,90,0.0,0.0
14206,36.0,0,180,11.0,0.0
14207,72.0,0,90,1.0,0.0
14208,64.0,0,90,3.0,0.0
14209,72.0,0,90,3.0,0.0
14210,48.0,59,180,10.0,0.0
14211,64.0,60,60,7.0,0.0
14212,60.0,0,60,7.0,0.0
14213,47.0,0,60,10.0,0.0
14214,35.0,0,60,11.0,0.0
14215,55.0,60,60,7.0,0.0
14216,59.0,1,60,8.0,0.0
14217,60.0,60,60,7.0,0.0
14218,64.0,0,180,8.0,0.0
14219,40.0,0,180,11.0,0.0
14220,52.0,0,180,10.0,0.0
14221,64.0,60,60,7.0,0.0
14222,60.0,59,60,7.0,0.0
14223,38.0,0,60,11.0,0.0
14224,50.0,0,60,10.0,0.0
14225,55.0,61,60,7.0,0.0
14226,62.0,0,60,8.0,0.0
14227,74.0,60,360,6.0,0.0
14228,62.0,0,360,2.0,0.0
14229,67.0,29,450,3.0,0.0
14230,74.0,0,450,3.0,0.0
14231,43.0,0,240,11.0,0.0
14232,59.0,60,60,7.0,0.0
14233,55.0,60,240,10.0,0.0
14234,67.0,0,240,8.0,0.0
14235,62.0,60,60,7.0,0.0
14236,59.0,60,60,7.0,0.0
14237,55.0,0,60,7.0,0.0
14238,41.0,0,210,11.0,0.0
14239,53.0,0,210,10.0,0.0
14240,65.0,0,210,8.0,0.0
14241,59.0,60,60,7.0,0.0
14242,62.0,0,60,7.0,0.0
14243,59.0,0,60,7.0,0.0
14244,76.0,0,60,6.0,0.0
14245,64.0,30,60,2.0,0.0
14246,65.0,31,60,2.0,0.0
14247,77.0,0,60,6.0,0.0
14248,55.0,0,60,7.0,0.0
14249,79.0,0,90,3.0,0.0
14250,52.0,0,90,10.0,0.0
14251,79.0,40,60,6.0,0.0
14252,76.0,0,90,3.0,0.0
14253,64.0,0,90,8.0,0.0
14254,40.0,20,90,11.0,0.0
14255,60.0,0,60,7.0,0.0
14256,67.0,30,30,2.0,0.0
14257,64.0,30,60,7.0,0.0
14258,60.0,60,60,7.0,0.0
14259,79.0,0,60,6.0,0.0
14260,67.0,30,30,2.0,0.0
14261,55.0,60,60,7.0,0.0
14262,67.0,30,120,2.0,0.0
14263,72.0,0,90,3.0,0.0
14264,76.0,0,90,3.0,0.0
14265,69.0,20,90,8.0,0.0
14266,79.0,0,120,6.0,0.0
14267,57.0,0,90,10.0,0.0
14268,60.0,40,60,7.0,0.0
14269,45.0,0,90,11.0,0.0
14270,64.0,0,60,7.0,0.0
14271,60.0,0,60,7.0,0.0
14272,77.0,0,30,6.0,0.0
14273,65.0,30,30,2.0,0.0
14274,76.0,0,30,6.0,0.0
14275,64.0,30,30,2.0,0.0
14276,74.0,29,30,6.0,0.0
14277,57.0,31,60,7.0,0.0
14278,62.0,0,30,2.0,0.0
14279,60.0,0,30,2.0,0.0
14280,72.0,0,30,6.0,0.0
14281,41.0,0,90,11.0,0.0
14282,77.0,0,90,3.0,0.0
14283,60.0,0,60,7.0,0.0
14284,74.0,0,90,3.0,0.0
14285,62.0,30,30,2.0,0.0
14286,53.0,0,90,10.0,0.0
14287,74.0,40,60,6.0,0.0
14288,65.0,20,90,8.0,0.0
14289,69.0,30,60,7.0,0.0
14290,74.0,0,60,6.0,0.0
14291,62.0,30,30,2.0,0.0
14292,60.0,60,60,7.0,0.0
14293,57.0,60,60,7.0,0.0
14294,74.0,0,90,3.0,0.0
14295,74.0,0,120,6.0,0.0
14296,43.0,0,90,11.0,0.0
14297,55.0,0,90,10.0,0.0
14298,67.0,20,90,8.0,0.0
14299,62.0,30,120,2.0,0.0
14300,67.0,0,90,3.0,0.0
14301,59.0,40,60,7.0,0.0
14302,62.0,0,60,7.0,0.0
14303,65.0,0,60,7.0,0.0
14304,72.0,0,30,6.0,0.0
14305,60.0,30,30,2.0,0.0
14306,71.0,0,30,6.0,0.0
14307,59.0,30,30,2.0,0.0
14308,55.0,61,60,8.0,0.0
14309,67.0,0,60,1.0,0.0
14310,69.0,0,30,6.0,0.0
14311,55.0,0,60,10.0,0.0
14312,43.0,0,60,11.0,0.0
14313,62.0,0,60,7.0,0.0
14314,57.0,29,30,2.0,0.0
14315,67.0,0,30,6.0,0.0
14316,55.0,0,30,2.0,0.0
14317,60.0,40,60,7.0,0.0
14318,72.0,0,90,3.0,0.0
14319,60.0,59,180,10.0,0.0
14320,72.0,0,90,6.0,0.0
14321,48.0,0,180,11.0,0.0
14322,64.0,0,90,3.0,0.0
14323,60.0,20,90,2.0,0.0
14324,60.0,0,180,8.0,0.0
14325,72.0,0,180,1.0,0.0
14326,64.0,60,60,7.0,0.0
14327,60.0,0,60,7.0,0.0
14328,55.0,60,60,7.0,0.0
14329,71.0,1,60,1.0,0.0
14330,59.0,0,60,8.0,0.0
14331,59.0,0,60,10.0,0.0
14332,47.0,0,60,11.0,0.0
14333,52.0,59,180,11.0,0.0
14334,76.0,0,180,1.0,0.0
14335,60.0,60,60,7.0,0.0
14336,64.0,0,180,10.0,0.0
14337,64.0,0,180,8.0,0.0
14338,64.0,60,60,7.0,0.0
14339,60.0,0,60,7.0,0.0
14340,62.0,0,60,10.0,0.0
14341,74.0,0,60,1.0,0.0
14342,50.0,61,60,11.0,0.0
14343,55.0,0,60,7.0,0.0
14344,62.0,0,60,8.0,0.0
14345,67.0,0,450,3.0,0.0
14346,67.0,0,240,8.0,0.0
14347,86.0,0,360,0.0,0.0
14348,55.0,60,240,11.0,0.0
14349,79.0,0,570,1.0,0.0
14350,71.0,30,480,1.0,0.0
14351,67.0,0,240,10.0,0.0
14352,74.0,0,360,6.0,0.0
14353,59.0,60,60,7.0,0.0
14354,74.0,0,450,3.0,0.0
14355,62.0,0,360,2.0,0.0
14356,62.0,60,60,7.0,0.0
14357,59.0,60,60,7.0,0.0
14358,55.0,0,60,7.0,0.0
14359,65.0,29,210,8.0,0.0
14360,59.0,60,60,7.0,0.0
14361,65.0,0,210,10.0,0.0
14362,53.0,0,210,11.0,0.0
14363,62.0,60,60,7.0,0.0
14364,64.0,0,60,2.0,0.0
14365,76.0,30,60,6.0,0.0
14366,88.0,0,60,0.0,0.0
14367,59.0,0,60,7.0,0.0
14368,89.0,0,60,0.0,0.0
14369,65.0,1,60,2.0,0.0
14370,55.0,0,60,7.0,0.0
14371,77.0,0,60,6.0,0.0
14372,52.0,0,30,11.0,0.0
14373,67.0,0,90,2.0,0.0
14374,64.0,40,60,8.0,0.0
14375,91.0,0,90,0.0,0.0
14376,55.0,50,90,3.0,0.0
14377,61.0,0,60,7.0,0.0
14378,79.0,0,90,3.0,0.0
14379,64.0,30,30,10.0,0.0
14380,79.0,0,60,6.0,0.0
14381,70.0,0,90,1.0,0.0
14382,70.0,0,60,8.0,0.0
14383,52.0,0,30,11.0,0.0
14384,79.0,90,60,6.0,0.0
14385,85.0,0,60,0.0,0.0
14386,64.0,0,30,10.0,0.0
14387,73.0,0,60,7.0,0.0
14388,82.0,0,30,1.0,0.0
14389,79.0,30,30,1.0,0.0
14390,52.0,30,30,11.0,0.0
14391,73.0,0,60,7.0,0.0
14392,85.0,0,60,0.0,0.0
14393,79.0,0,30,1.0,0.0
14394,64.0,0,30,10.0,0.0
14395,79.0,30,120,6.0,0.0
14396,82.0,0,30,1.0,0.0
14397,70.0,60,60,8.0,0.0
14398,77.0,30,30,6.0,0.0
14399,76.0,30,30,6.0,0.0
14400,74.0,29,30,6.0,0.0
14401,73.0,31,30,6.0,0.0
14402,53.0,0,30,11.0,0.0
14403,69.0,0,60,8.0,0.0
14404,81.0,18,30,1.0,0.0
14405,81.0,0,60,6.0,0.0
14406,74.0,102,60,7.0,0.0
14407,86.0,0,60,0.0,0.0
14408,65.0,0,60,10.0,0.0
14409,77.0,0,30,1.0,0.0
14410,53.0,0,30,11.0,0.0
14411,81.0,0,60,6.0,0.0
14412,65.0,0,60,10.0,0.0
14413,69.0,0,60,8.0,0.0
14414,74.0,0,60,7.0,0.0
14415,77.0,18,30,1.0,0.0
14416,81.0,0,30,1.0,0.0
14417,86.0,102,60,0.0,0.0
14418,81.0,18,30,1.0,0.0
14419,77.0,0,30,1.0,0.0
14420,65.0,72,60,10.0,0.0
14421,81.0,30,120,6.0,0.0
14422,53.0,0,30,11.0,0.0
14423,74.0,0,60,7.0,0.0
14424,69.0,0,60,8.0,0.0
14425,86.0,0,60,0.0,0.0
14426,79.0,30,30,6.0,0.0
14427,77.0,30,30,6.0,0.0
14428,76.0,29,30,6.0,0.0
14429,74.0,31,30,6.0,0.0
14430,82.0,0,30,1.0,0.0
14431,88.0,102,60,0.0,0.0
14432,67.0,0,60,10.0,0.0
14433,72.0,0,60,8.0,0.0
14434,82.0,0,60,6.0,0.0
14435,76.0,0,60,7.0,0.0
14436,84.0,0,30,1.0,0.0
14437,55.0,18,30,11.0,0.0
14438,84.0,18,30,1.0,0.0
14439,82.0,0,60,6.0,0.0
14440,82.0,0,30,1.0,0.0
14441,76.0,0,60,7.0,0.0
14442,67.0,0,60,10.0,0.0
14443,88.0,0,60,0.0,0.0
14444,72.0,102,60,8.0,0.0
14445,55.0,0,30,11.0,0.0
14446,72.0,731,60,8.0,0.0
14447,84.0,0,30,1.0,0.0
14448,88.0,0,60,0.0,0.0
14449,82.0,0,60,6.0,0.0
14450,76.0,0,60,7.0,0.0
14451,67.0,0,60,10.0,0.0
14452,55.0,18,30,11.0,0.0
14453,82.0,0,30,1.0,0.0
14454,80.0,0,450,0.0,0.0
14455,48.0,0,210,5.0,0.0
14456,72.0,0,930,4.0,0.0
14457,60.0,0,930,4.0,0.0
14458,68.0,0,450,7.0,0.0
14459,65.0,0,60,10.0,0.0
14460,60.0,0,930,2.0,0.0
14461,56.0,0,1890,2.0,0.0
14462,60.0,29,210,8.0,0.0
14463,60.0,0,930,3.0,0.0
14464,53.0,60,60,11.0,0.0
14465,72.0,0,930,1.0,0.0
14466,68.0,0,930,1.0,0.0
14467,80.0,29,450,6.0,0.0
14468,72.0,0,930,3.0,0.0
14469,65.0,0,60,10.0,0.0
14470,53.0,60,60,11.0,0.0
14471,65.0,0,60,10.0,0.0
14472,53.0,31,60,11.0,0.0
14473,65.0,60,60,10.0,0.0
14474,53.0,0,60,11.0,0.0
14475,53.0,0,60,11.0,0.0
14476,48.0,19,150,5.0,0.0
14477,60.0,0,210,8.0,0.0
14478,65.0,60,60,10.0,0.0
14479,53.0,41,60,11.0,0.0
14480,65.0,0,60,10.0,0.0
14481,65.0,31,60,10.0,0.0
14482,53.0,0,60,11.0,0.0
14483,53.0,0,60,11.0,0.0
14484,65.0,16,60,10.0,0.0
14485,48.0,0,60,5.0,0.0
14486,53.0,41,60,11.0,0.0
14487,60.0,10,210,8.0,0.0
14488,79.0,44,15,0.0,0.0
14489,48.0,19,90,5.0,0.0
14490,79.0,0,15,6.0,0.0
14491,65.0,0,60,10.0,0.0
14492,67.0,0,15,7.0,0.0
14493,80.0,0,210,6.0,0.0
14494,68.0,19,210,7.0,0.0
14495,80.0,0,210,0.0,0.0
14496,53.0,0,60,11.0,0.0
14497,65.0,60,60,10.0,0.0
14498,53.0,0,60,11.0,0.0
14499,65.0,31,60,10.0,0.0
14500,65.0,0,60,10.0,0.0
14501,53.0,16,60,11.0,0.0
14502,65.0,41,60,10.0,0.0
14503,48.0,19,90,5.0,0.0
14504,79.0,0,15,0.0,0.0
14505,79.0,0,15,6.0,0.0
14506,60.0,10,210,8.0,0.0
14507,67.0,44,15,7.0,0.0
14508,53.0,0,60,11.0,0.0
14509,80.0,19,210,0.0,0.0
14510,68.0,0,210,7.0,0.0
14511,80.0,0,210,6.0,0.0
14512,65.0,60,60,10.0,0.0
14513,53.0,0,60,11.0,0.0
14514,65.0,0,60,10.0,0.0
14515,53.0,31,60,11.0,0.0
14516,65.0,60,60,10.0,0.0
14517,53.0,0,60,11.0,0.0
14518,73.0,0,480,1.0,0.0
14519,80.0,14,480,1.0,0.0
14520,85.0,0,450,0.0,0.0
14521,65.0,0,60,10.0,0.0
14522,61.0,0,450,2.0,0.0
14523,65.0,60,60,8.0,0.0
14524,53.0,0,60,11.0,0.0
14525,85.0,29,450,6.0,0.0
14526,80.0,29,210,7.0,0.0
14527,41.0,60,60,11.0,0.0
14528,65.0,0,60,8.0,0.0
14529,53.0,0,60,10.0,0.0
14530,53.0,0,60,10.0,0.0
14531,41.0,31,60,11.0,0.0
14532,65.0,0,60,8.0,0.0
14533,65.0,0,60,8.0,0.0
14534,41.0,60,60,11.0,0.0
14535,53.0,0,60,10.0,0.0
14536,41.0,0,60,11.0,0.0
14537,80.0,0,210,7.0,0.0
14538,53.0,0,60,10.0,0.0
14539,65.0,60,60,8.0,0.0
14540,53.0,0,60,10.0,0.0
14541,41.0,0,60,11.0,0.0
14542,65.0,60,60,8.0,0.0
14543,65.0,0,60,8.0,0.0
14544,53.0,31,60,10.0,0.0
14545,41.0,0,60,11.0,0.0
14546,65.0,0,60,8.0,0.0
14547,41.0,1,60,11.0,0.0
14548,53.0,0,60,10.0,0.0
14549,52.0,0,60,10.0,0.0
14550,40.0,60,60,11.0,0.0
14551,60.0,0,15,2.0,0.0
14552,84.0,44,15,0.0,0.0
14553,80.0,10,210,7.0,0.0
14554,84.0,0,15,6.0,0.0
14555,72.0,1,15,1.0,0.0
14556,64.0,0,60,8.0,0.0
14557,73.0,0,210,1.0,0.0
14558,61.0,0,210,2.0,0.0
14559,85.0,19,210,6.0,0.0
14560,85.0,0,210,0.0,0.0
14561,80.0,0,210,1.0,0.0
14562,40.0,0,60,11.0,0.0
14563,64.0,0,60,8.0,0.0
14564,52.0,60,60,10.0,0.0
14565,52.0,0,60,10.0,0.0
14566,40.0,0,60,11.0,0.0
14567,64.0,31,60,8.0,0.0
14568,52.0,16,60,10.0,0.0
14569,40.0,0,60,11.0,0.0
14570,64.0,0,60,8.0,0.0
14571,84.0,0,15,6.0,0.0
14572,80.0,10,210,7.0,0.0
14573,72.0,44,15,1.0,0.0
14574,52.0,0,60,10.0,0.0
14575,84.0,0,15,0.0,0.0
14576,60.0,0,15,2.0,0.0
14577,64.0,0,60,8.0,0.0
14578,40.0,60,60,11.0,0.0
14579,85.0,0,210,0.0,0.0
14580,61.0,19,210,2.0,0.0
14581,73.0,0,210,1.0,0.0
14582,85.0,0,210,6.0,0.0
14583,52.0,60,60,10.0,0.0
14584,40.0,0,60,11.0,0.0
14585,64.0,0,60,8.0,0.0
14586,64.0,0,60,8.0,0.0
14587,40.0,0,60,11.0,0.0
14588,52.0,31,60,10.0,0.0
14589,40.0,0,60,11.0,0.0
14590,52.0,0,60,10.0,0.0
14591,64.0,60,60,8.0,0.0
14592,85.0,0,210,0.0,0.0
14593,73.0,0,210,1.0,0.0
14594,79.0,0,450,1.0,0.0
14595,85.0,0,210,6.0,0.0
14596,43.0,29,210,5.0,0.0
14597,39.0,0,60,11.0,0.0
14598,63.0,0,60,8.0,0.0
14599,51.0,60,60,10.0,0.0
14600,67.0,0,210,3.0,0.0
14601,61.0,0,210,2.0,0.0
14602,55.0,29,450,2.0,0.0
14603,67.0,0,210,4.0,0.0
14604,79.0,0,210,7.0,0.0
14605,39.0,60,60,11.0,0.0
14606,51.0,0,60,10.0,0.0
14607,63.0,0,60,8.0,0.0
14608,39.0,0,60,11.0,0.0
14609,63.0,0,60,8.0,0.0
14610,51.0,31,60,10.0,0.0
14611,51.0,0,60,10.0,0.0
14612,39.0,60,60,11.0,0.0
14613,63.0,0,60,8.0,0.0
14614,67.0,0,150,3.0,0.0
14615,60.0,10,450,2.0,0.0
14616,84.0,0,450,0.0,0.0
14617,67.0,0,150,4.0,0.0
14618,51.0,60,60,10.0,0.0
14619,43.0,19,150,5.0,0.0
14620,79.0,0,210,7.0,0.0
14621,72.0,0,450,1.0,0.0
14622,39.0,0,60,11.0,0.0
14623,84.0,0,210,6.0,0.0
14624,63.0,0,60,8.0,0.0
14625,39.0,41,60,11.0,0.0
14626,51.0,0,60,10.0,0.0
14627,63.0,0,60,8.0,0.0
14628,39.0,0,60,11.0,0.0
14629,51.0,0,60,10.0,0.0
14630,63.0,31,60,8.0,0.0
14631,51.0,0,60,10.0,0.0
14632,67.0,60,60,4.0,0.0
14633,67.0,0,60,3.0,0.0
14634,63.0,0,60,8.0,0.0
14635,39.0,0,60,11.0,0.0
14636,43.0,0,60,5.0,0.0
14637,62.0,41,60,8.0,0.0
14638,77.0,10,450,1.0,0.0
14639,53.0,0,450,2.0,0.0
14640,77.0,0,210,7.0,0.0
14641,67.0,0,90,4.0,0.0
14642,67.0,0,90,3.0,0.0
14643,50.0,0,60,10.0,0.0
14644,43.0,19,90,5.0,0.0
14645,38.0,0,60,11.0,0.0
14646,84.0,0,210,6.0,0.0
14647,50.0,60,60,10.0,0.0
14648,62.0,0,60,8.0,0.0
14649,38.0,0,60,11.0,0.0
14650,67.0,19,90,4.0,0.0
14651,67.0,0,90,3.0,0.0
14652,43.0,0,90,5.0,0.0
14653,62.0,0,60,8.0,0.0
14654,38.0,0,60,11.0,0.0
14655,50.0,31,60,10.0,0.0
14656,62.0,0,60,8.0,0.0
14657,50.0,0,60,10.0,0.0
14658,38.0,60,60,11.0,0.0
14659,62.0,0,60,8.0,0.0
14660,59.0,0,210,2.0,0.0
14661,38.0,41,60,11.0,0.0
14662,67.0,0,90,4.0,0.0
14663,71.0,0,210,1.0,0.0
14664,67.0,19,90,3.0,0.0
14665,83.0,0,210,0.0,0.0
14666,77.0,0,210,7.0,0.0
14667,50.0,0,60,10.0,0.0
14668,83.0,0,210,6.0,0.0
14669,43.0,0,90,5.0,0.0
14670,62.0,0,60,8.0,0.0
14671,50.0,60,60,10.0,0.0
14672,38.0,0,60,11.0,0.0
14673,50.0,31,60,10.0,0.0
14674,43.0,0,90,5.0,0.0
14675,62.0,0,60,8.0,0.0
14676,38.0,0,60,11.0,0.0
14677,67.0,19,90,3.0,0.0
14678,67.0,0,90,4.0,0.0
14679,50.0,0,60,10.0,0.0
14680,38.0,101,60,11.0,0.0
14681,62.0,0,60,8.0,0.0
14682,52.0,0,90,10.0,0.0
14683,72.0,0,90,1.0,0.0
14684,76.0,0,90,1.0,0.0
14685,76.0,0,90,7.0,0.0
14686,64.0,0,90,8.0,0.0
14687,84.0,0,90,0.0,0.0
14688,60.0,0,90,2.0,0.0
14689,48.0,120,90,5.0,0.0
14690,84.0,0,90,6.0,0.0
14691,60.0,0,90,4.0,0.0
14692,67.0,0,90,4.0,0.0
14693,67.0,0,90,3.0,0.0
14694,60.0,0,90,3.0,0.0
14695,52.0,0,90,2.0,0.0
14696,40.0,0,90,11.0,0.0
14697,72.0,0,90,7.0,0.0
14698,79.0,0,90,7.0,0.0
14699,64.0,0,90,7.0,0.0
14700,84.0,120,90,6.0,0.0
14701,67.0,0,90,6.0,0.0
14702,76.0,0,90,6.0,0.0
14703,74.0,0,90,4.0,0.0
14704,72.0,0,90,4.0,0.0
14705,48.0,120,90,5.0,0.0
14706,53.0,0,90,10.0,0.0
14707,81.0,0,90,0.0,0.0
14708,72.0,0,90,3.0,0.0
14709,41.0,0,90,11.0,0.0
14710,53.0,0,90,2.0,0.0
14711,74.0,0,90,1.0,0.0
14712,72.0,0,90,1.0,0.0
14713,65.0,0,90,8.0,0.0
14714,74.0,0,90,3.0,0.0
14715,81.0,0,90,6.0,0.0
14716,72.0,0,90,7.0,0.0
14717,65.0,0,90,7.0,0.0
14718,81.0,0,90,7.0,0.0
14719,65.0,0,90,6.0,0.0
14720,72.0,120,90,6.0,0.0
14721,67.0,0,90,8.0,0.0
14722,55.0,0,90,10.0,0.0
14723,76.0,0,90,1.0,0.0
14724,72.0,0,90,1.0,0.0
14725,79.0,0,90,0.0,0.0
14726,76.0,0,90,4.0,0.0
14727,43.0,0,90,11.0,0.0
14728,43.0,0,90,5.0,0.0
14729,72.0,0,90,4.0,0.0
14730,76.0,120,90,3.0,0.0
14731,72.0,0,90,3.0,0.0
14732,55.0,0,90,2.0,0.0
14733,72.0,0,90,6.0,0.0
14734,79.0,0,90,6.0,0.0
14735,64.0,0,90,6.0,0.0
14736,64.0,0,90,7.0,0.0
14737,79.0,0,90,7.0,0.0
14738,72.0,120,90,7.0,0.0
14739,77.0,0,90,1.0,0.0
14740,31.0,0,90,11.0,0.0
14741,67.0,0,90,3.0,0.0
14742,74.0,0,90,3.0,0.0
14743,43.0,120,90,5.0,0.0
14744,43.0,0,90,2.0,0.0
14745,74.0,0,90,1.0,0.0
14746,74.0,0,90,4.0,0.0
14747,67.0,0,90,4.0,0.0
14748,83.0,0,90,0.0,0.0
14749,43.0,0,90,10.0,0.0
14750,55.0,0,90,8.0,0.0
14751,62.0,0,90,6.0,0.0
14752,55.0,0,90,6.0,0.0
14753,62.0,0,90,7.0,0.0
14754,74.0,0,90,7.0,0.0
14755,55.0,0,90,7.0,0.0
14756,74.0,79,90,6.0,0.0
14757,60.0,0,210,4.0,0.0
14758,72.0,0,180,6.0,0.0
14759,64.0,0,180,7.0,0.0
14760,72.0,29,210,4.0,0.0
14761,84.0,0,180,0.0,0.0
14762,48.0,0,60,10.0,0.0
14763,48.0,0,60,8.0,0.0
14764,72.0,0,180,1.0,0.0
14765,52.0,0,180,2.0,0.0
14766,60.0,0,60,8.0,0.0
14767,48.0,19,90,5.0,0.0
14768,36.0,41,60,11.0,0.0
14769,76.0,30,180,1.0,0.0
14770,48.0,0,180,2.0,0.0
14771,72.0,0,210,3.0,0.0
14772,60.0,0,210,3.0,0.0
14773,36.0,0,60,11.0,0.0
14774,48.0,0,60,10.0,0.0
14775,60.0,60,60,8.0,0.0
14776,48.0,0,60,8.0,0.0
14777,48.0,0,60,10.0,0.0
14778,36.0,0,60,11.0,0.0
14779,60.0,0,60,8.0,0.0
14780,48.0,1,60,8.0,0.0
14781,83.0,0,60,0.0,0.0
14782,36.0,0,60,11.0,0.0
14783,60.0,0,60,8.0,0.0
14784,62.0,0,60,7.0,0.0
14785,48.0,0,60,8.0,0.0
14786,74.0,0,60,1.0,0.0
14787,71.0,0,60,1.0,0.0
14788,50.0,0,60,2.0,0.0
14789,71.0,60,60,6.0,0.0
14790,47.0,0,60,2.0,0.0
14791,48.0,0,60,10.0,0.0
14792,60.0,0,90,4.0,0.0
14793,72.0,19,90,4.0,0.0
14794,72.0,0,90,3.0,0.0
14795,60.0,0,90,3.0,0.0
14796,74.0,0,90,1.0,0.0
14797,60.0,0,60,8.0,0.0
14798,48.0,0,60,8.0,0.0
14799,65.0,0,90,7.0,0.0
14800,86.0,0,90,0.0,0.0
14801,48.0,0,60,10.0,0.0
14802,53.0,10,90,2.0,0.0
14803,50.0,0,90,2.0,0.0
14804,36.0,31,60,11.0,0.0
14805,77.0,0,90,1.0,0.0
14806,74.0,0,90,6.0,0.0
14807,48.0,0,60,10.0,0.0
14808,48.0,60,60,8.0,0.0
14809,36.0,0,60,11.0,0.0
14810,60.0,0,60,8.0,0.0
14811,72.0,0,30,6.0,0.0
14812,64.0,0,30,7.0,0.0
14813,84.0,0,30,0.0,0.0
14814,72.0,0,30,1.0,0.0
14815,76.0,0,30,1.0,0.0
14816,48.0,0,30,2.0,0.0
14817,52.0,0,30,2.0,0.0
14818,77.0,10,90,1.0,0.0
14819,60.0,31,60,8.0,0.0
14820,48.0,0,60,8.0,0.0
14821,69.0,0,90,7.0,0.0
14822,36.0,0,60,11.0,0.0
14823,81.0,0,90,1.0,0.0
14824,57.0,0,90,2.0,0.0
14825,89.0,0,90,0.0,0.0
14826,53.0,0,90,2.0,0.0
14827,77.0,0,90,6.0,0.0
14828,72.0,0,90,3.0,0.0
14829,72.0,0,90,4.0,0.0
14830,60.0,0,90,4.0,0.0
14831,60.0,19,90,3.0,0.0
14832,48.0,0,60,10.0,0.0
14833,36.0,60,60,11.0,0.0
14834,48.0,0,60,8.0,0.0
14835,60.0,0,60,8.0,0.0
14836,48.0,0,60,10.0,0.0
14837,67.0,0,30,7.0,0.0
14838,55.0,0,30,2.0,0.0
14839,79.0,0,30,1.0,0.0
14840,88.0,0,30,0.0,0.0
14841,76.0,0,30,1.0,0.0
14842,76.0,0,30,6.0,0.0
14843,52.0,0,30,2.0,0.0
14844,74.0,0,180,6.0,0.0
14845,72.0,0,210,3.0,0.0
14846,60.0,29,210,3.0,0.0
14847,74.0,0,180,1.0,0.0
14848,48.0,0,60,10.0,0.0
14849,36.0,0,60,11.0,0.0
14850,86.0,0,180,0.0,0.0
14851,48.0,19,90,5.0,0.0
14852,77.0,0,180,1.0,0.0
14853,50.0,30,180,2.0,0.0
14854,53.0,0,180,2.0,0.0
14855,48.0,0,60,8.0,0.0
14856,60.0,41,60,8.0,0.0
14857,65.0,0,180,7.0,0.0
14858,60.0,0,210,4.0,0.0
14859,72.0,0,210,4.0,0.0
14860,36.0,0,60,11.0,0.0
14861,48.0,60,60,10.0,0.0
14862,48.0,0,60,8.0,0.0
14863,60.0,0,60,8.0,0.0
14864,48.0,0,60,10.0,0.0
14865,36.0,0,60,11.0,0.0
14866,48.0,1,60,8.0,0.0
14867,60.0,0,60,8.0,0.0
14868,48.0,0,60,10.0,0.0
14869,64.0,0,60,7.0,0.0
14870,76.0,0,60,1.0,0.0
14871,36.0,0,60,11.0,0.0
14872,73.0,0,60,6.0,0.0
14873,85.0,0,60,0.0,0.0
14874,73.0,0,60,1.0,0.0
14875,48.0,60,60,8.0,0.0
14876,60.0,0,60,8.0,0.0
14877,49.0,0,60,2.0,0.0
14878,52.0,0,60,2.0,0.0
14879,48.0,31,60,8.0,0.0
14880,36.0,0,60,11.0,0.0
14881,88.0,10,90,0.0,0.0
14882,72.0,0,90,4.0,0.0
14883,60.0,19,90,4.0,0.0
14884,60.0,0,60,8.0,0.0
14885,60.0,0,90,3.0,0.0
14886,55.0,0,90,2.0,0.0
14887,52.0,0,90,2.0,0.0
14888,76.0,0,90,1.0,0.0
14889,79.0,0,90,1.0,0.0
14890,76.0,0,90,6.0,0.0
14891,48.0,0,60,10.0,0.0
14892,72.0,0,90,3.0,0.0
14893,67.0,0,90,7.0,0.0
14894,36.0,0,60,11.0,0.0
14895,48.0,0,60,10.0,0.0
14896,48.0,0,60,8.0,0.0
14897,60.0,0,60,8.0,0.0
14898,53.0,0,30,2.0,0.0
14899,65.0,0,30,7.0,0.0
14900,50.0,0,30,2.0,0.0
14901,74.0,60,30,6.0,0.0
14902,74.0,0,30,1.0,0.0
14903,77.0,0,30,1.0,0.0
14904,86.0,0,30,0.0,0.0
14905,79.0,0,90,1.0,0.0
14906,91.0,0,90,0.0,0.0
14907,60.0,0,90,3.0,0.0
14908,72.0,19,90,3.0,0.0
14909,55.0,0,90,2.0,0.0
14910,58.0,0,90,2.0,0.0
14911,70.0,0,90,7.0,0.0
14912,82.0,0,90,1.0,0.0
14913,60.0,31,60,8.0,0.0
14914,48.0,0,60,10.0,0.0
14915,72.0,0,90,4.0,0.0
14916,60.0,0,90,4.0,0.0
14917,48.0,0,60,8.0,0.0
14918,79.0,10,90,6.0,0.0
14919,36.0,0,60,11.0,0.0
14920,36.0,60,60,11.0,0.0
14921,60.0,0,60,8.0,0.0
14922,48.0,0,60,8.0,0.0
14923,48.0,0,60,10.0,0.0
14924,53.0,0,30,2.0,0.0
14925,57.0,0,30,2.0,0.0
14926,89.0,0,30,0.0,0.0
14927,77.0,0,30,6.0,0.0
14928,81.0,0,30,1.0,0.0
14929,77.0,0,30,1.0,0.0
14930,69.0,0,30,7.0,0.0
14931,88.0,30,180,0.0,0.0
14932,48.0,0,60,10.0,0.0
14933,60.0,41,60,8.0,0.0
14934,48.0,0,60,8.0,0.0
14935,76.0,0,180,1.0,0.0
14936,60.0,29,210,4.0,0.0
14937,72.0,0,210,4.0,0.0
14938,36.0,0,60,11.0,0.0
14939,79.0,0,180,1.0,0.0
14940,55.0,0,180,2.0,0.0
14941,52.0,0,180,2.0,0.0
14942,67.0,0,180,7.0,0.0
14943,60.0,0,210,3.0,0.0
14944,76.0,0,180,6.0,0.0
14945,72.0,0,210,3.0,0.0
14946,48.0,19,90,5.0,0.0
14947,48.0,0,60,8.0,0.0
14948,60.0,0,60,8.0,0.0
14949,48.0,60,60,10.0,0.0
14950,36.0,0,60,11.0,0.0
14951,48.0,0,60,8.0,0.0
14952,36.0,0,60,11.0,0.0
14953,48.0,0,60,10.0,0.0
14954,60.0,1,60,8.0,0.0
14955,36.0,0,60,11.0,0.0
14956,75.0,0,60,6.0,0.0
14957,66.0,0,60,7.0,0.0
14958,60.0,0,60,8.0,0.0
14959,48.0,0,60,8.0,0.0
14960,51.0,60,60,2.0,0.0
14961,75.0,0,60,1.0,0.0
14962,54.0,0,60,2.0,0.0
14963,48.0,0,60,10.0,0.0
14964,87.0,0,60,0.0,0.0
14965,78.0,0,60,1.0,0.0
14966,81.0,0,90,1.0,0.0
14967,69.0,0,90,7.0,0.0
14968,77.0,0,90,6.0,0.0
14969,53.0,0,90,2.0,0.0
14970,77.0,10,90,1.0,0.0
14971,36.0,0,60,11.0,0.0
14972,57.0,0,90,2.0,0.0
14973,72.0,0,90,3.0,0.0
14974,48.0,0,60,8.0,0.0
14975,60.0,0,60,8.0,0.0
14976,60.0,0,90,4.0,0.0
14977,72.0,19,90,4.0,0.0
14978,48.0,31,60,10.0,0.0
14979,89.0,0,90,0.0,0.0
14980,60.0,0,90,3.0,0.0
14981,36.0,0,60,11.0,0.0
14982,48.0,60,60,10.0,0.0
14983,48.0,0,60,8.0,0.0
14984,60.0,0,60,8.0,0.0
14985,76.0,0,30,6.0,0.0
14986,76.0,0,30,1.0,0.0
14987,79.0,0,30,1.0,0.0
14988,67.0,0,30,7.0,0.0
14989,55.0,0,30,2.0,0.0
14990,52.0,0,30,2.0,0.0
14991,88.0,0,30,0.0,0.0
14992,48.0,0,60,8.0,0.0
14993,36.0,0,60,11.0,0.0
14994,60.0,0,90,3.0,0.0
14995,72.0,0,90,3.0,0.0
14996,48.0,31,60,10.0,0.0
14997,72.0,19,90,4.0,0.0
14998,81.0,0,90,1.0,0.0
14999,60.0,0,90,4.0,0.0
15000,93.0,0,90,0.0,0.0
15001,60.0,0,60,8.0,0.0
15002,57.0,0,90,2.0,0.0
15003,60.0,10,90,2.0,0.0
15004,81.0,0,90,6.0,0.0
15005,72.0,0,90,7.0,0.0
15006,84.0,0,90,1.0,0.0
15007,48.0,0,60,8.0,0.0
15008,60.0,0,60,8.0,0.0
15009,48.0,0,60,10.0,0.0
15010,36.0,0,60,11.0,0.0
15011,70.0,0,30,7.0,0.0
15012,55.0,0,30,2.0,0.0
15013,79.0,31,30,6.0,0.0
15014,58.0,0,30,2.0,0.0
15015,82.0,0,30,1.0,0.0
15016,79.0,0,30,1.0,0.0
15017,91.0,0,30,0.0,0.0
15018,48.0,0,60,8.0,0.0
15019,72.0,0,90,3.0,0.0
15020,72.0,0,90,4.0,0.0
15021,60.0,19,90,3.0,0.0
15022,60.0,0,90,4.0,0.0
15023,89.0,0,210,0.0,0.0
15024,48.0,0,60,10.0,0.0
15025,57.0,0,210,2.0,0.0
15026,60.0,0,60,8.0,0.0
15027,81.0,29,210,1.0,0.0
15028,77.0,0,210,1.0,0.0
15029,53.0,0,210,2.0,0.0
15030,69.0,19,150,7.0,0.0
15031,48.0,0,90,5.0,0.0
15032,77.0,29,30,6.0,0.0
15033,36.0,1,60,11.0,0.0
15034,79.0,30,30,6.0,0.0
15035,36.0,0,60,11.0,0.0
15036,81.0,10,30,6.0,0.0
15037,60.0,0,60,8.0,0.0
15038,48.0,0,60,10.0,0.0
15039,48.0,41,60,8.0,0.0
15040,79.0,0,30,6.0,0.0
15041,48.0,0,60,10.0,0.0
15042,77.0,0,60,6.0,0.0
15043,48.0,21,60,8.0,0.0
15044,36.0,0,60,11.0,0.0
15045,60.0,0,60,8.0,0.0
15046,48.0,31,60,8.0,0.0
15047,60.0,0,60,8.0,0.0
15048,69.0,0,60,7.0,0.0
15049,77.0,10,20,6.0,0.0
15050,36.0,0,60,11.0,0.0
15051,48.0,0,60,10.0,0.0
15052,52.0,0,210,2.0,0.0
15053,48.0,0,60,8.0,0.0
15054,60.0,0,60,8.0,0.0
15055,67.0,19,150,7.0,0.0
15056,88.0,0,210,0.0,0.0
15057,55.0,29,210,2.0,0.0
15058,72.0,0,90,3.0,0.0
15059,79.0,0,210,1.0,0.0
15060,36.0,1,60,11.0,0.0
15061,60.0,19,90,4.0,0.0
15062,76.0,29,30,6.0,0.0
15063,76.0,0,210,1.0,0.0
15064,48.0,0,90,5.0,0.0
15065,60.0,0,90,3.0,0.0
15066,72.0,0,90,4.0,0.0
15067,48.0,0,60,10.0,0.0
15068,77.0,30,30,6.0,0.0
15069,79.0,10,30,6.0,0.0
15070,60.0,41,60,8.0,0.0
15071,48.0,0,60,8.0,0.0
15072,36.0,0,60,11.0,0.0
15073,48.0,0,60,10.0,0.0
15074,77.0,0,30,6.0,0.0
15075,48.0,0,60,8.0,0.0
15076,60.0,0,60,8.0,0.0
15077,36.0,0,60,11.0,0.0
15078,48.0,0,60,10.0,0.0
15079,76.0,21,60,6.0,0.0
15080,48.0,60,60,8.0,0.0
15081,67.0,0,60,7.0,0.0
15082,76.0,10,20,6.0,0.0
15083,36.0,0,60,11.0,0.0
15084,60.0,0,60,8.0,0.0
15085,48.0,0,60,10.0,0.0
15086,53.0,0,60,10.0,0.0
15087,86.0,30,180,0.0,0.0
15088,72.0,19,90,7.0,0.0
15089,81.0,40,120,1.0,0.0
15090,77.0,19,150,1.0,0.0
15091,65.0,0,180,8.0,0.0
15092,41.0,0,60,11.0,0.0
15093,74.0,0,180,6.0,0.0
15094,53.0,41,60,2.0,0.0
15095,41.0,0,60,11.0,0.0
15096,53.0,1,60,10.0,0.0
15097,53.0,0,60,2.0,0.0
15098,41.0,0,60,11.0,0.0
15099,53.0,0,60,2.0,0.0
15100,53.0,1,60,10.0,0.0
15101,79.0,0,30,1.0,0.0
15102,67.0,29,30,8.0,0.0
15103,53.0,0,60,2.0,0.0
15104,76.0,0,30,6.0,0.0
15105,88.0,0,30,0.0,0.0
15106,41.0,1,60,11.0,0.0
15107,53.0,0,60,10.0,0.0
15108,69.0,0,30,8.0,0.0
15109,77.0,0,30,6.0,0.0
15110,89.0,0,30,0.0,0.0
15111,81.0,59,30,1.0,0.0
15112,67.0,0,180,6.0,0.0
15113,43.0,41,60,11.0,0.0
15114,55.0,0,90,7.0,0.0
15115,65.0,0,90,7.0,0.0
15116,59.0,30,180,8.0,0.0
15117,74.0,0,90,3.0,0.0
15118,67.0,0,90,3.0,0.0
15119,55.0,0,60,10.0,0.0
15120,67.0,0,90,4.0,0.0
15121,74.0,19,90,4.0,0.0
15122,43.0,0,90,5.0,0.0
15123,79.0,0,90,0.0,0.0
15124,71.0,0,180,1.0,0.0
15125,79.0,0,180,1.0,0.0
15126,55.0,0,60,2.0,0.0
15127,55.0,60,60,2.0,0.0
15128,55.0,0,60,10.0,0.0
15129,43.0,0,60,11.0,0.0
15130,55.0,0,60,2.0,0.0
15131,55.0,1,60,10.0,0.0
15132,43.0,0,60,11.0,0.0
15133,69.0,0,30,6.0,0.0
15134,43.0,0,60,11.0,0.0
15135,60.0,0,30,8.0,0.0
15136,81.0,0,30,1.0,0.0
15137,72.0,29,30,1.0,0.0
15138,55.0,0,60,10.0,0.0
15139,55.0,0,60,2.0,0.0
15140,74.0,60,30,1.0,0.0
15141,62.0,0,30,8.0,0.0
15142,71.0,0,30,6.0,0.0
15143,83.0,0,30,1.0,0.0
15144,72.0,41,60,6.0,0.0
15145,64.0,40,240,2.0,0.0
15146,48.0,0,180,10.0,0.0
15147,84.0,40,120,1.0,0.0
15148,60.0,30,180,8.0,0.0
15149,72.0,0,210,3.0,0.0
15150,88.0,0,240,0.0,0.0
15151,48.0,20,90,5.0,0.0
15152,76.0,20,150,1.0,0.0
15153,64.0,0,180,7.0,0.0
15154,36.0,0,180,11.0,0.0
15155,60.0,0,210,3.0,0.0
15156,72.0,0,210,4.0,0.0
15157,60.0,29,210,4.0,0.0
15158,84.0,0,90,6.0,0.0
15159,35.0,0,60,11.0,0.0
15160,84.0,50,90,6.0,0.0
15161,62.0,0,60,7.0,0.0
15162,74.0,0,60,1.0,0.0
15163,47.0,1,60,10.0,0.0
15164,59.0,0,60,8.0,0.0
15165,72.0,19,90,3.0,0.0
15166,86.0,0,120,0.0,0.0
15167,62.0,0,90,8.0,0.0
15168,65.0,10,90,7.0,0.0
15169,48.0,0,90,5.0,0.0
15170,50.0,0,90,10.0,0.0
15171,72.0,0,90,4.0,0.0
15172,60.0,0,90,3.0,0.0
15173,77.0,0,90,1.0,0.0
15174,60.0,0,90,4.0,0.0
15175,38.0,0,90,11.0,0.0
15176,62.0,40,120,2.0,0.0
15177,84.0,50,90,6.0,0.0
15178,36.0,0,30,11.0,0.0
15179,76.0,0,30,1.0,0.0
15180,64.0,1,30,7.0,0.0
15181,60.0,0,30,8.0,0.0
15182,48.0,0,30,10.0,0.0
15183,84.0,0,90,0.0,0.0
15184,60.0,0,90,3.0,0.0
15185,65.0,10,90,8.0,0.0
15186,60.0,0,90,2.0,0.0
15187,60.0,0,90,4.0,0.0
15188,72.0,19,90,4.0,0.0
15189,81.0,0,90,1.0,0.0
15190,53.0,0,90,10.0,0.0
15191,72.0,0,90,3.0,0.0
15192,41.0,0,90,11.0,0.0
15193,69.0,0,90,7.0,0.0
15194,48.0,0,90,5.0,0.0
15195,52.0,0,30,10.0,0.0
15196,67.0,0,30,7.0,0.0
15197,40.0,0,30,11.0,0.0
15198,79.0,1,30,1.0,0.0
15199,64.0,0,30,8.0,0.0
15200,84.0,59,15,6.0,0.0
15201,77.0,30,180,1.0,0.0
15202,65.0,40,240,2.0,0.0
15203,89.0,0,240,0.0,0.0
15204,65.0,0,180,7.0,0.0
15205,48.0,60,90,5.0,0.0
15206,50.0,0,180,10.0,0.0
15207,38.0,0,180,11.0,0.0
15208,72.0,29,210,3.0,0.0
15209,60.0,0,210,4.0,0.0
15210,72.0,0,210,4.0,0.0
15211,60.0,0,210,3.0,0.0
15212,62.0,0,180,8.0,0.0
15213,84.0,20,90,6.0,0.0
15214,64.0,0,60,7.0,0.0
15215,84.0,50,90,6.0,0.0
15216,61.0,0,60,8.0,0.0
15217,49.0,0,60,10.0,0.0
15218,37.0,1,60,11.0,0.0
15219,76.0,0,60,1.0,0.0
15220,52.0,0,90,10.0,0.0
15221,88.0,0,120,0.0,0.0
15222,72.0,0,90,4.0,0.0
15223,60.0,0,90,4.0,0.0
15224,64.0,40,120,2.0,0.0
15225,67.0,0,90,7.0,0.0
15226,48.0,19,90,5.0,0.0
15227,64.0,0,90,8.0,0.0
15228,79.0,10,90,1.0,0.0
15229,60.0,0,90,3.0,0.0
15230,40.0,0,90,11.0,0.0
15231,72.0,0,90,3.0,0.0
15232,84.0,50,90,6.0,0.0
15233,77.0,0,30,1.0,0.0
15234,38.0,1,30,11.0,0.0
15235,65.0,0,30,7.0,0.0
15236,50.0,0,30,10.0,0.0
15237,62.0,0,30,8.0,0.0
15238,70.0,0,90,7.0,0.0
15239,82.0,10,90,1.0,0.0
15240,72.0,0,90,4.0,0.0
15241,60.0,0,90,3.0,0.0
15242,72.0,0,90,3.0,0.0
15243,62.0,0,90,2.0,0.0
15244,60.0,0,90,4.0,0.0
15245,43.0,0,90,11.0,0.0
15246,48.0,19,90,5.0,0.0
15247,86.0,0,90,0.0,0.0
15248,67.0,0,90,8.0,0.0
15249,55.0,0,90,10.0,0.0
15250,84.0,59,60,6.0,0.0
15251,69.0,1,30,7.0,0.0
15252,41.0,0,30,11.0,0.0
15253,53.0,0,30,10.0,0.0
15254,81.0,0,30,1.0,0.0
15255,65.0,0,30,8.0,0.0
15256,79.0,30,180,1.0,0.0
15257,67.0,0,180,7.0,0.0
15258,91.0,40,240,0.0,0.0
15259,64.0,0,180,8.0,0.0
15260,40.0,0,180,11.0,0.0
15261,60.0,0,210,3.0,0.0
15262,84.0,41,60,6.0,0.0
15263,60.0,0,210,4.0,0.0
15264,72.0,0,210,4.0,0.0
15265,52.0,0,180,10.0,0.0
15266,72.0,29,210,3.0,0.0
15267,67.0,0,240,2.0,0.0
15268,48.0,60,90,5.0,0.0
15269,84.0,20,90,6.0,0.0
15270,63.0,1,60,8.0,0.0
15271,39.0,0,60,11.0,0.0
15272,66.0,0,60,7.0,0.0
15273,84.0,50,90,6.0,0.0
15274,51.0,0,60,10.0,0.0
15275,78.0,0,60,1.0,0.0
15276,72.0,0,90,3.0,0.0
15277,48.0,0,90,5.0,0.0
15278,60.0,0,90,3.0,0.0
15279,53.0,0,90,10.0,0.0
15280,65.0,0,90,8.0,0.0
15281,65.0,40,120,2.0,0.0
15282,89.0,0,120,0.0,0.0
15283,69.0,0,90,7.0,0.0
15284,81.0,0,90,1.0,0.0
15285,72.0,0,90,4.0,0.0
15286,60.0,19,90,4.0,0.0
15287,41.0,10,90,11.0,0.0
15288,84.0,50,90,6.0,0.0
15289,67.0,0,30,7.0,0.0
15290,79.0,0,30,1.0,0.0
15291,40.0,0,30,11.0,0.0
15292,52.0,1,30,10.0,0.0
15293,64.0,0,30,8.0,0.0
15294,84.0,0,90,1.0,0.0
15295,57.0,0,90,10.0,0.0
15296,64.0,19,90,2.0,0.0
15297,88.0,0,90,0.0,0.0
15298,72.0,0,90,7.0,0.0
15299,48.0,0,90,5.0,0.0
15300,60.0,0,90,3.0,0.0
15301,72.0,0,90,3.0,0.0
15302,69.0,10,90,8.0,0.0
15303,45.0,0,90,11.0,0.0
15304,72.0,0,90,4.0,0.0
15305,60.0,0,90,4.0,0.0
15306,84.0,0,60,6.0,0.0
15307,55.0,0,30,10.0,0.0
15308,43.0,0,30,11.0,0.0
15309,70.0,0,30,7.0,0.0
15310,82.0,101,30,1.0,0.0
15311,67.0,0,30,8.0,0.0
15312,65.0,0,90,2.0,0.0
15313,53.0,0,90,10.0,0.0
15314,41.0,0,90,11.0,0.0
15315,81.0,0,120,1.0,0.0
15316,65.0,0,90,8.0,0.0
15317,72.0,0,90,3.0,0.0
15318,60.0,0,90,3.0,0.0
15319,69.0,0,90,7.0,0.0
15320,84.0,20,90,6.0,0.0
15321,60.0,0,90,4.0,0.0
15322,48.0,0,90,5.0,0.0
15323,89.0,100,120,0.0,0.0
15324,72.0,0,90,4.0,0.0
15325,73.0,0,90,1.0,0.0
15326,88.0,100,120,0.0,0.0
15327,82.0,20,90,1.0,0.0
15328,64.0,0,90,8.0,0.0
15329,70.0,0,90,7.0,0.0
15330,67.0,0,90,3.0,0.0
15331,76.0,0,90,3.0,0.0
15332,55.0,0,90,2.0,0.0
15333,85.0,0,90,6.0,0.0
15334,55.0,0,90,10.0,0.0
15335,43.0,0,90,11.0,0.0
15336,65.0,0,90,8.0,0.0
15337,74.0,90,120,1.0,0.0
15338,81.0,10,210,1.0,0.0
15339,41.0,0,90,11.0,0.0
15340,86.0,20,90,6.0,0.0
15341,86.0,0,120,0.0,0.0
15342,53.0,0,90,2.0,0.0
15343,77.0,0,90,3.0,0.0
15344,74.0,0,90,3.0,0.0
15345,69.0,0,90,7.0,0.0
15346,53.0,0,90,10.0,0.0
15347,79.0,59,120,1.0,0.0
15348,88.0,0,90,6.0,0.0
15349,91.0,20,90,0.0,0.0
15350,49.0,0,90,11.0,0.0
15351,79.0,0,90,3.0,0.0
15352,61.0,0,90,2.0,0.0
15353,61.0,0,90,10.0,0.0
15354,67.0,0,90,7.0,0.0
15355,76.0,0,90,3.0,0.0
15356,65.0,0,90,7.0,0.0
15357,69.0,0,15,8.0,0.0
15358,81.0,0,90,1.0,0.0
15359,62.0,0,60,2.0,0.0
15360,77.0,0,90,1.0,0.0
15361,89.0,19,90,0.0,0.0
15362,62.0,0,60,10.0,0.0
15363,89.0,0,60,6.0,0.0
15364,77.0,0,90,3.0,0.0
15365,74.0,0,90,3.0,0.0
15366,50.0,41,60,11.0,0.0
15367,62.0,41,60,2.0,0.0
15368,89.0,0,90,6.0,0.0
15369,62.0,0,60,10.0,0.0
15370,62.0,19,90,8.0,0.0
15371,50.0,0,60,11.0,0.0
15372,48.0,0,90,5.0,0.0
15373,48.0,41,60,11.0,0.0
15374,72.0,19,90,4.0,0.0
15375,68.0,0,120,1.0,0.0
15376,80.0,40,120,1.0,0.0
15377,60.0,0,60,2.0,0.0
15378,56.0,0,90,7.0,0.0
15379,74.0,0,90,4.0,0.0
15380,60.0,0,60,10.0,0.0
15381,74.0,0,90,3.0,0.0
15382,72.0,0,90,3.0,0.0
15383,86.0,10,210,0.0,0.0
15384,60.0,1,60,10.0,0.0
15385,89.0,0,90,6.0,0.0
15386,62.0,19,90,8.0,0.0
15387,48.0,0,60,11.0,0.0
15388,60.0,0,60,2.0,0.0
15389,59.0,31,60,10.0,0.0
15390,74.0,0,90,3.0,0.0
15391,55.0,0,90,7.0,0.0
15392,74.0,0,90,4.0,0.0
15393,79.0,0,120,1.0,0.0
15394,67.0,19,90,4.0,0.0
15395,59.0,0,60,2.0,0.0
15396,43.0,0,90,5.0,0.0
15397,47.0,0,60,11.0,0.0
15398,67.0,0,90,3.0,0.0
15399,67.0,40,120,1.0,0.0
15400,59.0,1,60,2.0,0.0
15401,89.0,0,90,6.0,0.0
15402,59.0,0,60,10.0,0.0
15403,47.0,0,60,11.0,0.0
15404,62.0,19,90,8.0,0.0
15405,48.0,41,60,11.0,0.0
15406,56.0,0,90,7.0,0.0
15407,60.0,0,60,2.0,0.0
15408,80.0,0,90,1.0,0.0
15409,68.0,0,90,1.0,0.0
15410,60.0,0,60,10.0,0.0
15411,86.0,19,90,0.0,0.0
15412,74.0,0,90,4.0,0.0
15413,72.0,0,90,4.0,0.0
15414,74.0,0,90,3.0,0.0
15415,48.0,0,90,5.0,0.0
15416,72.0,0,90,3.0,0.0
15417,60.0,0,60,2.0,0.0
15418,89.0,40,120,6.0,0.0
15419,60.0,1,60,10.0,0.0
15420,62.0,60,60,8.0,0.0
15421,48.0,0,60,11.0,0.0
15422,67.0,0,90,3.0,0.0
15423,47.0,0,90,11.0,0.0
15424,74.0,0,90,3.0,0.0
15425,55.0,0,90,7.0,0.0
15426,62.0,20,90,8.0,0.0
15427,74.0,0,90,4.0,0.0
15428,67.0,0,90,4.0,0.0
15429,59.0,0,90,10.0,0.0
15430,59.0,0,90,2.0,0.0
15431,79.0,0,90,1.0,0.0
15432,43.0,0,90,5.0,0.0
15433,67.0,0,90,1.0,0.0
15434,86.0,0,90,0.0,0.0
15435,86.0,60,60,6.0,0.0
15436,83.0,60,60,6.0,0.0
15437,79.0,60,60,6.0,0.0
15438,77.0,60,60,6.0,0.0
15439,74.0,60,60,6.0,0.0
15440,71.0,59,60,6.0,0.0
15441,67.0,101,60,6.0,0.0
15442,65.0,440,90,6.0,0.0
15443,36.0,0,90,11.0,0.0
15444,52.0,40,60,10.0,0.0
15445,60.0,20,90,8.0,0.0
15446,48.0,0,90,10.0,0.0
15447,55.0,60,60,10.0,0.0
15448,60.0,59,60,10.0,0.0
15449,55.0,60,60,7.0,0.0
15450,67.0,0,60,6.0,0.0
15451,55.0,1,60,10.0,0.0
15452,76.0,20,90,6.0,0.0
15453,64.0,0,90,7.0,0.0
15454,52.0,40,60,10.0,0.0
15455,55.0,20,60,10.0,0.0
15456,76.0,40,20,6.0,0.0
15457,60.0,20,60,10.0,0.0
15458,64.0,0,20,7.0,0.0
15459,76.0,39,20,6.0,0.0
15460,55.0,61,60,10.0,0.0
15461,64.0,0,20,7.0,0.0
15462,43.0,19,90,10.0,0.0
15463,31.0,0,90,11.0,0.0
15464,55.0,0,90,8.0,0.0
15465,76.0,40,60,6.0,0.0
15466,53.0,0,60,10.0,0.0
15467,64.0,0,60,7.0,0.0
15468,74.0,0,60,6.0,0.0
15469,55.0,20,60,10.0,0.0
15470,62.0,1,60,7.0,0.0
15471,62.0,40,20,7.0,0.0
15472,59.0,20,60,10.0,0.0
15473,74.0,0,20,6.0,0.0
15474,62.0,0,20,7.0,0.0
15475,74.0,39,20,6.0,0.0
15476,55.0,16,60,10.0,0.0
15477,64.0,0,15,7.0,0.0
15478,76.0,30,15,6.0,0.0
15479,53.0,20,60,10.0,0.0
15480,62.0,0,30,7.0,0.0
15481,74.0,15,30,6.0,0.0
15482,55.0,20,60,10.0,0.0
15483,60.0,40,20,7.0,0.0
15484,72.0,0,20,6.0,0.0
15485,74.0,0,20,6.0,0.0
15486,59.0,20,60,10.0,0.0
15487,62.0,40,20,7.0,0.0
15488,76.0,39,20,6.0,0.0
15489,55.0,61,60,10.0,0.0
15490,64.0,0,20,7.0,0.0
15491,67.0,0,2010,3.0,0.0
15492,55.0,29,1890,3.0,0.0
15493,36.0,0,90,11.0,0.0
15494,60.0,0,90,8.0,0.0
15495,60.0,59,120,7.0,0.0
15496,72.0,0,90,4.0,0.0
15497,48.0,0,90,5.0,0.0
15498,48.0,20,90,10.0,0.0
15499,72.0,0,120,6.0,0.0
15500,52.0,40,60,10.0,0.0
15501,60.0,0,90,4.0,0.0
15502,67.0,0,2010,1.0,0.0
15503,79.0,80,2010,1.0,0.0
15504,55.0,0,60,10.0,0.0
15505,55.0,0,60,7.0,0.0
15506,67.0,1,60,6.0,0.0
15507,60.0,20,60,10.0,0.0
15508,67.0,39,20,6.0,0.0
15509,55.0,61,60,10.0,0.0
15510,55.0,0,20,7.0,0.0
15511,67.0,59,60,6.0,0.0
15512,55.0,0,60,7.0,0.0
15513,52.0,0,60,10.0,0.0
15514,55.0,20,60,10.0,0.0
15515,76.0,0,60,6.0,0.0
15516,64.0,1,60,7.0,0.0
15517,60.0,20,60,10.0,0.0
15518,64.0,0,20,7.0,0.0
15519,76.0,40,20,6.0,0.0
15520,55.0,61,60,10.0,0.0
15521,76.0,0,20,6.0,0.0
15522,64.0,39,20,7.0,0.0
15523,53.0,0,60,10.0,0.0
15524,43.0,0,90,10.0,0.0
15525,31.0,0,90,11.0,0.0
15526,55.0,19,90,8.0,0.0
15527,64.0,40,60,7.0,0.0
15528,43.0,0,90,5.0,0.0
15529,67.0,0,90,4.0,0.0
15530,55.0,0,90,4.0,0.0
15531,76.0,0,60,6.0,0.0
15532,62.0,1,60,7.0,0.0
15533,55.0,20,60,10.0,0.0
15534,74.0,0,60,6.0,0.0
15535,62.0,0,20,7.0,0.0
15536,59.0,20,60,10.0,0.0
15537,74.0,40,20,6.0,0.0
15538,55.0,16,60,10.0,0.0
15539,74.0,0,20,6.0,0.0
15540,62.0,39,20,7.0,0.0
15541,53.0,20,60,10.0,0.0
15542,76.0,30,15,6.0,0.0
15543,64.0,0,15,7.0,0.0
15544,74.0,0,30,6.0,0.0
15545,62.0,15,30,7.0,0.0
15546,55.0,20,60,10.0,0.0
15547,60.0,0,20,7.0,0.0
15548,72.0,40,20,6.0,0.0
15549,62.0,0,20,7.0,0.0
15550,59.0,20,60,10.0,0.0
15551,74.0,40,20,6.0,0.0
15552,55.0,61,60,10.0,0.0
15553,64.0,39,20,7.0,0.0
15554,76.0,0,20,6.0,0.0
15555,52.0,40,60,10.0,0.0
15556,48.0,0,90,10.0,0.0
15557,48.0,0,90,5.0,0.0
15558,72.0,0,90,4.0,0.0
15559,60.0,0,90,4.0,0.0
15560,72.0,0,120,6.0,0.0
15561,60.0,59,120,7.0,0.0
15562,60.0,0,90,8.0,0.0
15563,36.0,20,90,11.0,0.0
15564,55.0,0,60,10.0,0.0
15565,67.0,0,60,7.0,0.0
15566,79.0,1,60,6.0,0.0
15567,60.0,20,60,10.0,0.0
15568,67.0,0,20,6.0,0.0
15569,79.0,39,20,0.0,0.0
15570,55.0,61,60,10.0,0.0
15571,55.0,0,20,7.0,0.0
15572,67.0,0,60,6.0,0.0
15573,79.0,0,60,0.0,0.0
15574,55.0,59,60,7.0,0.0
15575,52.0,0,60,10.0,0.0
15576,55.0,20,60,10.0,0.0
15577,88.0,0,60,0.0,0.0
15578,64.0,1,60,7.0,0.0
15579,76.0,0,60,6.0,0.0
15580,64.0,0,20,7.0,0.0
15581,88.0,40,20,0.0,0.0
15582,60.0,20,60,10.0,0.0
15583,76.0,0,20,6.0,0.0
15584,88.0,39,20,0.0,0.0
15585,55.0,61,60,10.0,0.0
15586,76.0,0,20,6.0,0.0
15587,64.0,0,20,7.0,0.0
15588,76.0,0,60,6.0,0.0
15589,55.0,19,90,4.0,0.0
15590,67.0,0,90,4.0,0.0
15591,55.0,0,90,8.0,0.0
15592,43.0,0,90,10.0,0.0
15593,31.0,0,90,11.0,0.0
15594,43.0,0,90,5.0,0.0
15595,88.0,0,60,0.0,0.0
15596,64.0,40,60,7.0,0.0
15597,53.0,0,60,10.0,0.0
15598,55.0,20,60,10.0,0.0
15599,74.0,0,60,6.0,0.0
15600,62.0,0,60,7.0,0.0
15601,86.0,1,60,0.0,0.0
15602,62.0,40,20,7.0,0.0
15603,74.0,0,20,6.0,0.0
15604,59.0,20,60,10.0,0.0
15605,86.0,0,20,0.0,0.0
15606,55.0,16,60,10.0,0.0
15607,74.0,39,20,6.0,0.0
15608,86.0,0,20,0.0,0.0
15609,62.0,0,20,7.0,0.0
15610,53.0,20,60,10.0,0.0
15611,76.0,0,15,6.0,0.0
15612,88.0,30,15,0.0,0.0
15613,64.0,0,15,7.0,0.0
15614,86.0,0,30,0.0,0.0
15615,74.0,15,30,6.0,0.0
15616,62.0,0,30,7.0,0.0
15617,55.0,20,60,10.0,0.0
15618,60.0,0,20,7.0,0.0
15619,84.0,40,20,0.0,0.0
15620,72.0,0,20,6.0,0.0
15621,74.0,40,20,6.0,0.0
15622,86.0,0,20,0.0,0.0
15623,59.0,20,60,10.0,0.0
15624,62.0,0,20,7.0,0.0
15625,76.0,0,20,6.0,0.0
15626,88.0,10,20,0.0,0.0
15627,64.0,0,20,7.0,0.0
15628,55.0,101,60,10.0,0.0
15629,48.0,0,90,10.0,0.0
15630,60.0,0,90,8.0,0.0
15631,84.0,0,90,0.0,0.0
15632,36.0,0,90,11.0,0.0
15633,60.0,0,90,3.0,0.0
15634,48.0,0,90,5.0,0.0
15635,72.0,59,180,6.0,0.0
15636,60.0,0,90,4.0,0.0
15637,72.0,0,90,4.0,0.0
15638,52.0,0,90,10.0,0.0
15639,60.0,0,180,7.0,0.0
15640,64.0,181,60,7.0,0.0
15641,76.0,0,60,6.0,0.0
15642,69.0,0,180,6.0,0.0
15643,57.0,59,180,7.0,0.0
15644,77.0,0,60,6.0,0.0
15645,65.0,61,60,7.0,0.0
15646,74.0,59,60,6.0,0.0
15647,62.0,0,60,7.0,0.0
15648,69.0,0,60,7.0,0.0
15649,81.0,21,60,6.0,0.0
15650,65.0,60,20,7.0,0.0
15651,77.0,0,20,6.0,0.0
15652,74.0,0,20,6.0,0.0
15653,62.0,60,20,7.0,0.0
15654,43.0,0,60,5.0,0.0
15655,71.0,0,60,1.0,0.0
15656,65.0,0,60,1.0,0.0
15657,59.0,39,20,7.0,0.0
15658,67.0,0,60,3.0,0.0
15659,55.0,0,60,10.0,0.0
15660,53.0,0,60,8.0,0.0
15661,43.0,0,60,11.0,0.0
15662,59.0,0,60,8.0,0.0
15663,74.0,0,60,3.0,0.0
15664,71.0,0,20,6.0,0.0
15665,55.0,21,60,4.0,0.0
15666,67.0,0,60,4.0,0.0
15667,72.0,60,20,6.0,0.0
15668,60.0,0,20,7.0,0.0
15669,71.0,0,60,1.0,0.0
15670,65.0,0,60,1.0,0.0
15671,43.0,0,60,5.0,0.0
15672,62.0,39,20,7.0,0.0
15673,43.0,21,60,11.0,0.0
15674,53.0,0,60,8.0,0.0
15675,55.0,0,60,10.0,0.0
15676,59.0,0,60,8.0,0.0
15677,67.0,0,60,4.0,0.0
15678,55.0,0,60,4.0,0.0
15679,74.0,0,20,6.0,0.0
15680,74.0,0,60,3.0,0.0
15681,67.0,0,60,3.0,0.0
15682,64.0,140,20,7.0,0.0
15683,76.0,0,20,6.0,0.0
15684,72.0,0,90,3.0,0.0
15685,84.0,0,180,0.0,0.0
15686,60.0,59,180,7.0,0.0
15687,48.0,0,90,5.0,0.0
15688,60.0,0,90,8.0,0.0
15689,52.0,0,90,8.0,0.0
15690,48.0,80,90,11.0,0.0
15691,64.0,0,90,1.0,0.0
15692,64.0,0,90,3.0,0.0
15693,72.0,0,90,1.0,0.0
15694,67.0,0,90,4.0,0.0
15695,72.0,0,180,6.0,0.0
15696,48.0,0,180,2.0,0.0
15697,60.0,0,90,4.0,0.0
15698,60.0,0,90,10.0,0.0
15699,52.0,0,60,2.0,0.0
15700,88.0,0,60,0.0,0.0
15701,76.0,0,60,6.0,0.0
15702,64.0,181,60,7.0,0.0
15703,57.0,59,180,7.0,0.0
15704,45.0,0,180,2.0,0.0
15705,81.0,0,180,0.0,0.0
15706,69.0,0,180,6.0,0.0
15707,77.0,0,60,6.0,0.0
15708,89.0,0,60,0.0,0.0
15709,53.0,61,60,2.0,0.0
15710,65.0,0,60,7.0,0.0
15711,62.0,59,60,7.0,0.0
15712,86.0,0,60,0.0,0.0
15713,74.0,0,60,6.0,0.0
15714,50.0,0,60,2.0,0.0
15715,57.0,0,60,2.0,0.0
15716,69.0,0,60,7.0,0.0
15717,81.0,0,60,0.0,0.0
15718,81.0,21,60,6.0,0.0
15719,89.0,0,20,0.0,0.0
15720,53.0,0,20,2.0,0.0
15721,65.0,0,20,7.0,0.0
15722,77.0,60,20,6.0,0.0
15723,86.0,0,20,0.0,0.0
15724,50.0,0,20,2.0,0.0
15725,62.0,0,20,7.0,0.0
15726,74.0,60,20,6.0,0.0
15727,67.0,0,60,4.0,0.0
15728,43.0,0,60,5.0,0.0
15729,74.0,0,60,4.0,0.0
15730,71.0,0,20,6.0,0.0
15731,83.0,0,20,0.0,0.0
15732,47.0,39,20,2.0,0.0
15733,55.0,0,60,10.0,0.0
15734,55.0,0,60,3.0,0.0
15735,65.0,0,60,8.0,0.0
15736,59.0,0,60,8.0,0.0
15737,67.0,21,60,3.0,0.0
15738,59.0,0,20,7.0,0.0
15739,43.0,0,60,11.0,0.0
15740,77.0,0,60,1.0,0.0
15741,71.0,0,60,1.0,0.0
15742,48.0,60,20,2.0,0.0
15743,60.0,0,20,7.0,0.0
15744,72.0,0,20,6.0,0.0
15745,84.0,0,20,0.0,0.0
15746,74.0,0,20,6.0,0.0
15747,67.0,0,60,4.0,0.0
15748,74.0,21,60,4.0,0.0
15749,86.0,0,20,0.0,0.0
15750,62.0,0,20,7.0,0.0
15751,55.0,0,60,10.0,0.0
15752,65.0,0,60,8.0,0.0
15753,59.0,0,60,8.0,0.0
15754,43.0,0,60,5.0,0.0
15755,67.0,0,60,3.0,0.0
15756,55.0,0,60,3.0,0.0
15757,43.0,0,60,11.0,0.0
15758,77.0,0,60,1.0,0.0
15759,50.0,39,20,2.0,0.0
15760,71.0,0,60,1.0,0.0
15761,76.0,0,20,6.0,0.0
15762,88.0,0,20,0.0,0.0
15763,52.0,0,20,2.0,0.0
15764,64.0,99,20,7.0,0.0
15765,84.0,0,60,0.0,0.0
15766,60.0,0,60,7.0,0.0
15767,60.0,0,60,3.0,0.0
15768,72.0,0,60,1.0,0.0
15769,76.0,0,60,1.0,0.0
15770,36.0,0,60,11.0,0.0
15771,48.0,0,60,2.0,0.0
15772,67.0,0,60,3.0,0.0
15773,48.0,0,60,10.0,0.0
15774,48.0,0,60,5.0,0.0
15775,72.0,0,60,6.0,0.0
15776,60.0,90,60,8.0,0.0
15777,64.0,0,60,8.0,0.0
15778,64.0,0,60,4.0,0.0
15779,72.0,0,60,4.0,0.0
15780,64.0,0,60,8.0,0.0
15781,64.0,0,60,2.0,0.0
15782,52.0,0,60,11.0,0.0
15783,79.0,0,60,1.0,0.0
15784,67.0,0,30,7.0,0.0
15785,43.0,0,90,5.0,0.0
15786,67.0,10,210,3.0,0.0
15787,91.0,0,60,0.0,0.0
15788,79.0,30,30,6.0,0.0
15789,67.0,0,210,4.0,0.0
15790,64.0,29,60,10.0,0.0
15791,67.0,1,30,7.0,0.0
15792,79.0,0,30,6.0,0.0
15793,63.0,0,60,8.0,0.0
15794,63.0,0,60,10.0,0.0
15795,63.0,0,60,2.0,0.0
15796,78.0,0,30,6.0,0.0
15797,66.0,30,30,7.0,0.0
15798,51.0,0,60,11.0,0.0
15799,78.0,29,60,1.0,0.0
15800,90.0,0,60,0.0,0.0
15801,43.0,0,30,5.0,0.0
15802,78.0,0,30,6.0,0.0
15803,66.0,1,30,7.0,0.0
15804,91.0,0,60,0.0,0.0
15805,64.0,29,60,10.0,0.0
15806,79.0,30,30,6.0,0.0
15807,67.0,0,30,7.0,0.0
15808,43.0,19,90,5.0,0.0
15809,64.0,0,60,2.0,0.0
15810,64.0,0,60,8.0,0.0
15811,79.0,0,60,1.0,0.0
15812,52.0,0,60,11.0,0.0
15813,67.0,0,30,7.0,0.0
15814,79.0,1,30,6.0,0.0
15815,63.0,0,60,2.0,0.0
15816,90.0,0,60,0.0,0.0
15817,78.0,0,30,6.0,0.0
15818,63.0,0,60,8.0,0.0
15819,66.0,1,30,7.0,0.0
15820,51.0,0,60,11.0,0.0
15821,63.0,29,60,10.0,0.0
15822,78.0,0,60,1.0,0.0
15823,66.0,1,30,7.0,0.0
15824,78.0,0,30,6.0,0.0
15825,64.0,0,60,10.0,0.0
15826,67.0,19,90,3.0,0.0
15827,79.0,29,60,1.0,0.0
15828,64.0,0,60,2.0,0.0
15829,67.0,0,90,4.0,0.0
15830,79.0,30,30,6.0,0.0
15831,52.0,0,60,11.0,0.0
15832,64.0,0,60,8.0,0.0
15833,43.0,0,90,5.0,0.0
15834,91.0,0,60,0.0,0.0
15835,67.0,0,30,7.0,0.0
15836,79.0,1,30,6.0,0.0
15837,67.0,0,30,7.0,0.0
15838,64.0,11,30,7.0,0.0
15839,61.0,0,60,8.0,0.0
15840,61.0,60,60,10.0,0.0
15841,49.0,0,60,11.0,0.0
15842,76.0,0,60,1.0,0.0
15843,61.0,0,60,2.0,0.0
15844,76.0,0,30,6.0,0.0
15845,88.0,0,60,0.0,0.0
15846,76.0,0,30,6.0,0.0
15847,64.0,0,30,7.0,0.0
15848,62.0,0,60,10.0,0.0
15849,50.0,0,60,11.0,0.0
15850,43.0,49,90,5.0,0.0
15851,62.0,0,60,8.0,0.0
15852,79.0,0,60,1.0,0.0
15853,77.0,0,60,1.0,0.0
15854,62.0,0,60,2.0,0.0
15855,67.0,41,60,3.0,0.0
15856,89.0,0,60,0.0,0.0
15857,67.0,0,60,4.0,0.0
15858,77.0,0,60,6.0,0.0
15859,65.0,0,60,7.0,0.0
15860,67.0,10,210,3.0,0.0
15861,89.0,0,60,0.0,0.0
15862,62.0,1,60,8.0,0.0
15863,50.0,0,60,11.0,0.0
15864,43.0,30,90,5.0,0.0
15865,65.0,0,30,7.0,0.0
15866,77.0,30,30,6.0,0.0
15867,77.0,0,60,1.0,0.0
15868,79.0,0,210,1.0,0.0
15869,62.0,29,60,10.0,0.0
15870,67.0,0,210,4.0,0.0
15871,62.0,0,60,2.0,0.0
15872,65.0,0,30,7.0,0.0
15873,77.0,0,30,6.0,0.0
15874,76.0,29,60,1.0,0.0
15875,61.0,0,60,2.0,0.0
15876,49.0,0,60,11.0,0.0
15877,64.0,0,30,7.0,0.0
15878,61.0,0,60,10.0,0.0
15879,88.0,0,60,0.0,0.0
15880,76.0,0,30,6.0,0.0
15881,61.0,0,60,8.0,0.0
15882,76.0,1,30,6.0,0.0
15883,64.0,0,30,7.0,0.0
15884,43.0,0,30,5.0,0.0
15885,62.0,29,60,10.0,0.0
15886,89.0,0,60,0.0,0.0
15887,77.0,0,30,6.0,0.0
15888,77.0,0,60,1.0,0.0
15889,65.0,30,30,7.0,0.0
15890,50.0,0,60,11.0,0.0
15891,62.0,1,60,8.0,0.0
15892,62.0,0,60,2.0,0.0
15893,43.0,19,90,5.0,0.0
15894,65.0,0,30,7.0,0.0
15895,77.0,0,30,6.0,0.0
15896,64.0,0,30,7.0,0.0
15897,61.0,29,60,10.0,0.0
15898,61.0,0,60,8.0,0.0
15899,76.0,1,30,6.0,0.0
15900,61.0,0,60,2.0,0.0
15901,76.0,0,60,1.0,0.0
15902,49.0,0,60,11.0,0.0
15903,88.0,0,60,0.0,0.0
15904,76.0,0,30,6.0,0.0
15905,64.0,1,30,7.0,0.0
15906,65.0,0,30,7.0,0.0
15907,67.0,0,90,4.0,0.0
15908,67.0,0,90,3.0,0.0
15909,77.0,30,30,6.0,0.0
15910,79.0,0,60,1.0,0.0
15911,77.0,29,60,1.0,0.0
15912,62.0,0,60,2.0,0.0
15913,43.0,19,90,5.0,0.0
15914,50.0,0,60,11.0,0.0
15915,62.0,0,60,10.0,0.0
15916,89.0,0,60,0.0,0.0
15917,62.0,0,60,8.0,0.0
15918,77.0,1,30,6.0,0.0
15919,65.0,0,30,7.0,0.0
15920,74.0,0,30,6.0,0.0
15921,59.0,0,60,10.0,0.0
15922,59.0,0,60,2.0,0.0
15923,47.0,0,60,11.0,0.0
15924,74.0,0,60,1.0,0.0
15925,62.0,11,30,7.0,0.0
15926,59.0,60,60,8.0,0.0
15927,86.0,0,60,0.0,0.0
15928,62.0,0,30,7.0,0.0
15929,74.0,0,30,6.0,0.0
15930,67.0,0,60,4.0,0.0
15931,60.0,41,60,8.0,0.0
15932,48.0,0,60,11.0,0.0
15933,67.0,0,60,3.0,0.0
15934,79.0,0,60,1.0,0.0
15935,60.0,0,60,10.0,0.0
15936,60.0,0,60,2.0,0.0
15937,76.0,0,60,1.0,0.0
15938,76.0,0,60,6.0,0.0
15939,88.0,0,60,0.0,0.0
15940,48.0,35,90,5.0,0.0
15941,67.0,0,60,7.0,0.0
15942,86.0,5,15,0.0,0.0
15943,74.0,0,15,6.0,0.0
15944,57.0,0,20,2.0,0.0
15945,76.0,0,60,3.0,0.0
15946,57.0,0,20,10.0,0.0
15947,72.0,1,60,3.0,0.0
15948,76.0,0,60,4.0,0.0
15949,72.0,0,60,4.0,0.0
15950,65.0,0,15,7.0,0.0
15951,69.0,0,20,8.0,0.0
15952,74.0,0,15,1.0,0.0
15953,77.0,0,15,1.0,0.0
15954,45.0,10,20,11.0,0.0
15955,76.0,0,15,1.0,0.0
15956,72.0,0,15,6.0,0.0
15957,84.0,0,15,0.0,0.0
15958,72.0,0,15,1.0,0.0
15959,64.0,15,15,7.0,0.0
15960,74.0,0,15,6.0,0.0
15961,74.0,0,15,1.0,0.0
15962,77.0,14,15,1.0,0.0
15963,65.0,0,15,7.0,0.0
15964,86.0,0,15,0.0,0.0
15965,72.0,0,15,1.0,0.0
15966,84.0,0,15,0.0,0.0
15967,72.0,0,15,6.0,0.0
15968,64.0,20,15,7.0,0.0
15969,76.0,0,15,1.0,0.0
15970,71.0,0,30,1.0,0.0
15971,74.0,0,30,1.0,0.0
15972,71.0,0,30,6.0,0.0
15973,69.0,10,20,8.0,0.0
15974,62.0,0,30,7.0,0.0
15975,57.0,0,20,10.0,0.0
15976,45.0,0,20,11.0,0.0
15977,57.0,0,20,2.0,0.0
15978,83.0,30,30,0.0,0.0
15979,64.0,0,30,7.0,0.0
15980,76.0,20,30,1.0,0.0
15981,72.0,0,30,6.0,0.0
15982,84.0,0,30,0.0,0.0
15983,72.0,0,30,1.0,0.0
15984,74.0,0,60,3.0,0.0
15985,65.0,0,60,7.0,0.0
15986,65.0,0,20,8.0,0.0
15987,77.0,0,60,4.0,0.0
15988,74.0,0,60,4.0,0.0
15989,86.0,0,60,0.0,0.0
15990,53.0,0,20,2.0,0.0
15991,77.0,0,60,3.0,0.0
15992,53.0,39,20,10.0,0.0
15993,74.0,21,60,1.0,0.0
15994,77.0,0,60,1.0,0.0
15995,81.0,0,60,6.0,0.0
15996,41.0,0,20,11.0,0.0
15997,53.0,0,20,10.0,0.0
15998,74.0,0,20,1.0,0.0
15999,65.0,40,30,7.0,0.0
16000,77.0,0,20,1.0,0.0
16001,41.0,0,20,11.0,0.0
16002,81.0,0,30,6.0,0.0
16003,65.0,20,20,8.0,0.0
16004,86.0,0,20,0.0,0.0
16005,53.0,0,20,2.0,0.0
16006,43.0,79,90,5.0,0.0
16007,71.0,0,20,1.0,0.0
16008,71.0,0,30,6.0,0.0
16009,43.0,0,20,11.0,0.0
16010,74.0,0,60,4.0,0.0
16011,67.0,21,60,4.0,0.0
16012,67.0,0,20,8.0,0.0
16013,62.0,19,30,7.0,0.0
16014,83.0,20,20,0.0,0.0
16015,55.0,0,20,10.0,0.0
16016,74.0,0,60,3.0,0.0
16017,67.0,0,60,3.0,0.0
16018,55.0,0,20,2.0,0.0
16019,74.0,0,20,1.0,0.0
16020,43.0,0,20,11.0,0.0
16021,55.0,0,20,2.0,0.0
16022,67.0,20,20,8.0,0.0
16023,62.0,0,30,7.0,0.0
16024,55.0,0,20,10.0,0.0
16025,71.0,0,20,1.0,0.0
16026,74.0,0,20,1.0,0.0
16027,71.0,0,30,6.0,0.0
16028,83.0,0,20,0.0,0.0
16029,72.0,0,60,6.0,0.0
16030,36.0,0,60,11.0,0.0
16031,48.0,0,60,2.0,0.0
16032,84.0,41,60,0.0,0.0
16033,76.0,0,60,1.0,0.0
16034,72.0,0,60,1.0,0.0
16035,64.0,0,60,4.0,0.0
16036,48.0,49,90,5.0,0.0
16037,60.0,0,60,8.0,0.0
16038,48.0,0,60,10.0,0.0
16039,72.0,0,60,3.0,0.0
16040,64.0,0,60,3.0,0.0
16041,64.0,0,60,7.0,0.0
16042,72.0,0,60,4.0,0.0
16043,55.0,0,210,4.0,0.0
16044,43.0,30,90,5.0,0.0
16045,67.0,10,210,4.0,0.0
16046,67.0,0,30,7.0,0.0
16047,64.0,0,60,10.0,0.0
16048,79.0,30,30,6.0,0.0
16049,91.0,0,60,0.0,0.0
16050,79.0,29,60,1.0,0.0
16051,64.0,0,60,8.0,0.0
16052,52.0,0,60,11.0,0.0
16053,67.0,0,210,3.0,0.0
16054,55.0,0,210,3.0,0.0
16055,64.0,1,60,2.0,0.0
16056,67.0,0,30,7.0,0.0
16057,79.0,0,30,6.0,0.0
16058,66.0,0,30,7.0,0.0
16059,78.0,0,30,6.0,0.0
16060,51.0,0,60,11.0,0.0
16061,63.0,29,60,10.0,0.0
16062,78.0,0,60,1.0,0.0
16063,90.0,0,60,0.0,0.0
16064,63.0,0,60,2.0,0.0
16065,63.0,0,60,8.0,0.0
16066,66.0,1,30,7.0,0.0
16067,43.0,0,30,5.0,0.0
16068,78.0,0,30,6.0,0.0
16069,79.0,30,30,6.0,0.0
16070,43.0,0,90,5.0,0.0
16071,67.0,0,30,7.0,0.0
16072,64.0,1,60,8.0,0.0
16073,64.0,0,60,2.0,0.0
16074,79.0,29,60,1.0,0.0
16075,52.0,0,60,11.0,0.0
16076,91.0,0,60,0.0,0.0
16077,64.0,0,60,10.0,0.0
16078,67.0,0,30,7.0,0.0
16079,79.0,0,30,6.0,0.0
16080,63.0,0,60,8.0,0.0
16081,63.0,29,60,10.0,0.0
16082,90.0,0,60,0.0,0.0
16083,51.0,0,60,11.0,0.0
16084,63.0,1,60,2.0,0.0
16085,78.0,0,30,6.0,0.0
16086,66.0,1,30,7.0,0.0
16087,78.0,0,60,1.0,0.0
16088,66.0,0,30,7.0,0.0
16089,78.0,0,30,6.0,0.0
16090,64.0,1,60,8.0,0.0
16091,64.0,0,60,2.0,0.0
16092,79.0,0,60,1.0,0.0
16093,52.0,29,60,11.0,0.0
16094,55.0,19,90,3.0,0.0
16095,79.0,30,30,6.0,0.0
16096,55.0,0,90,4.0,0.0
16097,67.0,0,90,3.0,0.0
16098,67.0,0,30,7.0,0.0
16099,64.0,0,60,10.0,0.0
16100,91.0,0,60,0.0,0.0
16101,43.0,0,90,5.0,0.0
16102,67.0,0,90,4.0,0.0
16103,79.0,0,30,6.0,0.0
16104,67.0,0,30,7.0,0.0
16105,88.0,11,30,6.0,0.0
16106,61.0,60,60,2.0,0.0
16107,76.0,0,60,1.0,0.0
16108,61.0,0,60,8.0,0.0
16109,88.0,0,60,0.0,0.0
16110,61.0,0,60,10.0,0.0
16111,76.0,0,30,7.0,0.0
16112,49.0,0,60,11.0,0.0
16113,88.0,0,30,6.0,0.0
16114,76.0,0,30,7.0,0.0
16115,62.0,0,60,10.0,0.0
16116,55.0,0,60,3.0,0.0
16117,67.0,0,60,3.0,0.0
16118,62.0,0,60,8.0,0.0
16119,43.0,49,90,5.0,0.0
16120,77.0,0,60,6.0,0.0
16121,65.0,0,60,7.0,0.0
16122,50.0,0,60,11.0,0.0
16123,55.0,0,60,4.0,0.0
16124,67.0,0,60,4.0,0.0
16125,62.0,0,60,2.0,0.0
16126,77.0,0,60,1.0,0.0
16127,79.0,41,60,1.0,0.0
16128,89.0,0,60,0.0,0.0
16129,62.0,0,60,2.0,0.0
16130,89.0,1,60,0.0,0.0
16131,77.0,30,30,6.0,0.0
16132,50.0,29,60,11.0,0.0
16133,43.0,0,90,5.0,0.0
16134,62.0,0,60,10.0,0.0
16135,65.0,0,30,7.0,0.0
16136,67.0,0,210,4.0,0.0
16137,77.0,0,60,1.0,0.0
16138,55.0,0,210,3.0,0.0
16139,79.0,0,210,1.0,0.0
16140,55.0,0,210,4.0,0.0
16141,62.0,0,60,8.0,0.0
16142,67.0,10,210,3.0,0.0
16143,65.0,0,30,7.0,0.0
16144,77.0,0,30,6.0,0.0
16145,61.0,0,60,10.0,0.0
16146,76.0,30,30,6.0,0.0
16147,76.0,29,60,1.0,0.0
16148,61.0,0,60,8.0,0.0
16149,64.0,0,30,7.0,0.0
16150,49.0,0,60,11.0,0.0
16151,61.0,0,60,2.0,0.0
16152,88.0,1,60,0.0,0.0
16153,76.0,0,30,6.0,0.0
16154,64.0,0,30,7.0,0.0
16155,43.0,0,30,5.0,0.0
16156,89.0,0,60,0.0,0.0
16157,62.0,0,60,2.0,0.0
16158,77.0,0,30,6.0,0.0
16159,43.0,19,90,5.0,0.0
16160,77.0,0,60,1.0,0.0
16161,62.0,29,60,10.0,0.0
16162,62.0,0,60,8.0,0.0
16163,65.0,30,30,7.0,0.0
16164,50.0,0,60,11.0,0.0
16165,65.0,0,30,7.0,0.0
16166,77.0,1,30,6.0,0.0
16167,64.0,0,30,7.0,0.0
16168,88.0,0,60,0.0,0.0
16169,49.0,0,60,11.0,0.0
16170,61.0,0,60,10.0,0.0
16171,61.0,0,60,2.0,0.0
16172,76.0,1,30,6.0,0.0
16173,76.0,29,60,1.0,0.0
16174,61.0,1,60,8.0,0.0
16175,64.0,0,30,7.0,0.0
16176,76.0,0,30,6.0,0.0
16177,65.0,30,30,7.0,0.0
16178,77.0,29,60,1.0,0.0
16179,43.0,0,90,5.0,0.0
16180,62.0,0,60,2.0,0.0
16181,67.0,0,90,4.0,0.0
16182,55.0,0,90,4.0,0.0
16183,62.0,1,60,8.0,0.0
16184,50.0,0,60,11.0,0.0
16185,79.0,0,60,1.0,0.0
16186,55.0,19,90,3.0,0.0
16187,67.0,0,90,3.0,0.0
16188,89.0,0,60,0.0,0.0
16189,77.0,0,30,6.0,0.0
16190,62.0,0,60,10.0,0.0
16191,77.0,0,30,6.0,0.0
16192,65.0,0,30,7.0,0.0
16193,86.0,0,60,0.0,0.0
16194,74.0,0,30,7.0,0.0
16195,59.0,0,60,10.0,0.0
16196,86.0,11,30,6.0,0.0
16197,59.0,0,60,2.0,0.0
16198,74.0,60,60,1.0,0.0
16199,59.0,0,60,8.0,0.0
16200,47.0,0,60,11.0,0.0
16201,74.0,0,30,7.0,0.0
16202,86.0,0,30,6.0,0.0
16203,60.0,35,90,4.0,0.0
16204,79.0,0,60,1.0,0.0
16205,64.0,0,60,7.0,0.0
16206,60.0,0,60,8.0,0.0
16207,48.0,0,90,5.0,0.0
16208,67.0,0,90,4.0,0.0
16209,76.0,0,60,6.0,0.0
16210,48.0,41,60,11.0,0.0
16211,60.0,0,90,3.0,0.0
16212,67.0,0,90,3.0,0.0
16213,60.0,0,60,10.0,0.0
16214,60.0,0,60,2.0,0.0
16215,88.0,0,60,0.0,0.0
16216,76.0,0,60,1.0,0.0
16217,67.0,0,240,2.0,0.0
16218,64.0,0,240,2.0,0.0
16219,52.0,0,60,10.0,0.0
16220,40.0,1,60,11.0,0.0
16221,64.0,0,60,8.0,0.0
16222,79.0,40,240,1.0,0.0
16223,69.0,15,15,7.0,0.0
16224,81.0,0,15,6.0,0.0
16225,76.0,0,240,1.0,0.0
16226,91.0,0,240,0.0,0.0
16227,67.0,0,15,7.0,0.0
16228,79.0,15,15,6.0,0.0
16229,81.0,14,15,6.0,0.0
16230,69.0,0,15,7.0,0.0
16231,67.0,30,15,7.0,0.0
16232,79.0,0,15,6.0,0.0
16233,64.0,0,60,8.0,0.0
16234,52.0,0,60,10.0,0.0
16235,40.0,1,60,11.0,0.0
16236,77.0,0,30,6.0,0.0
16237,65.0,29,30,7.0,0.0
16238,79.0,59,30,6.0,0.0
16239,67.0,0,30,7.0,0.0
16240,53.0,0,60,10.0,0.0
16241,69.0,0,60,7.0,0.0
16242,41.0,0,60,11.0,0.0
16243,81.0,41,60,6.0,0.0
16244,65.0,0,60,8.0,0.0
16245,41.0,0,60,11.0,0.0
16246,81.0,0,30,6.0,0.0
16247,69.0,19,30,7.0,0.0
16248,53.0,0,60,10.0,0.0
16249,65.0,1,60,8.0,0.0
16250,43.0,0,90,5.0,0.0
16251,83.0,0,30,6.0,0.0
16252,71.0,19,30,7.0,0.0
16253,89.0,0,90,0.0,0.0
16254,77.0,0,90,1.0,0.0
16255,74.0,0,90,1.0,0.0
16256,65.0,19,90,2.0,0.0
16257,67.0,0,60,8.0,0.0
16258,74.0,0,90,3.0,0.0
16259,67.0,0,90,3.0,0.0
16260,55.0,41,60,10.0,0.0
16261,67.0,0,90,4.0,0.0
16262,74.0,0,90,4.0,0.0
16263,43.0,0,60,11.0,0.0
16264,62.0,0,90,2.0,0.0
16265,55.0,0,60,10.0,0.0
16266,83.0,0,30,6.0,0.0
16267,67.0,21,60,8.0,0.0
16268,43.0,0,60,11.0,0.0
16269,71.0,0,30,7.0,0.0
16270,64.0,19,90,4.0,0.0
16271,72.0,0,90,3.0,0.0
16272,57.0,0,60,10.0,0.0
16273,88.0,0,60,0.0,0.0
16274,72.0,0,90,4.0,0.0
16275,69.0,0,60,8.0,0.0
16276,64.0,0,90,3.0,0.0
16277,72.0,0,60,1.0,0.0
16278,72.0,0,20,7.0,0.0
16279,76.0,0,60,1.0,0.0
16280,84.0,39,20,6.0,0.0
16281,45.0,0,60,11.0,0.0
16282,60.0,21,60,2.0,0.0
16283,64.0,0,60,2.0,0.0
16284,48.0,0,90,5.0,0.0
16285,60.0,0,60,2.0,0.0
16286,64.0,0,60,2.0,0.0
16287,57.0,0,60,10.0,0.0
16288,72.0,0,60,1.0,0.0
16289,84.0,0,20,6.0,0.0
16290,69.0,0,60,8.0,0.0
16291,72.0,20,20,7.0,0.0
16292,76.0,0,60,1.0,0.0
16293,88.0,0,60,0.0,0.0
16294,45.0,21,60,11.0,0.0
16295,57.0,0,60,2.0,0.0
16296,65.0,21,60,2.0,0.0
16297,65.0,0,60,8.0,0.0
16298,69.0,39,20,7.0,0.0
16299,81.0,0,20,6.0,0.0
16300,41.0,0,60,11.0,0.0
16301,89.0,0,60,0.0,0.0
16302,53.0,0,60,10.0,0.0
16303,77.0,0,60,1.0,0.0
16304,69.0,0,60,1.0,0.0
16305,81.0,39,20,6.0,0.0
16306,41.0,0,60,11.0,0.0
16307,53.0,0,60,10.0,0.0
16308,65.0,0,60,2.0,0.0
16309,57.0,0,60,2.0,0.0
16310,65.0,0,60,8.0,0.0
16311,69.0,21,60,1.0,0.0
16312,77.0,0,60,1.0,0.0
16313,89.0,0,60,0.0,0.0
16314,69.0,0,20,7.0,0.0
16315,60.0,0,60,2.0,0.0
16316,43.0,0,90,5.0,0.0
16317,64.0,0,60,2.0,0.0
16318,67.0,0,20,7.0,0.0
16319,79.0,39,20,6.0,0.0
16320,72.0,0,60,1.0,0.0
16321,43.0,0,60,11.0,0.0
16322,76.0,0,90,4.0,0.0
16323,72.0,0,90,4.0,0.0
16324,88.0,0,60,0.0,0.0
16325,76.0,19,90,3.0,0.0
16326,76.0,0,60,1.0,0.0
16327,55.0,0,60,10.0,0.0
16328,72.0,0,90,3.0,0.0
16329,67.0,21,60,8.0,0.0
16330,60.0,0,60,2.0,0.0
16331,64.0,0,60,2.0,0.0
16332,43.0,0,60,11.0,0.0
16333,55.0,0,60,10.0,0.0
16334,88.0,0,60,0.0,0.0
16335,72.0,0,60,1.0,0.0
16336,67.0,0,60,8.0,0.0
16337,76.0,21,60,1.0,0.0
16338,79.0,20,20,6.0,0.0
16339,67.0,0,20,7.0,0.0
16340,67.0,0,90,3.0,0.0
16341,74.0,0,90,3.0,0.0
16342,59.0,0,20,7.0,0.0
16343,59.0,0,60,2.0,0.0
16344,62.0,21,60,2.0,0.0
16345,86.0,0,60,0.0,0.0
16346,71.0,39,20,6.0,0.0
16347,43.0,0,60,10.0,0.0
16348,43.0,0,90,5.0,0.0
16349,55.0,0,60,8.0,0.0
16350,71.0,0,60,1.0,0.0
16351,67.0,19,90,4.0,0.0
16352,74.0,0,90,4.0,0.0
16353,74.0,0,60,1.0,0.0
16354,31.0,0,60,11.0,0.0
16355,62.0,0,60,2.0,0.0
16356,59.0,0,20,7.0,0.0
16357,86.0,0,60,0.0,0.0
16358,31.0,0,60,11.0,0.0
16359,71.0,101,60,1.0,0.0
16360,74.0,0,60,1.0,0.0
16361,55.0,0,60,8.0,0.0
16362,43.0,0,60,10.0,0.0
16363,71.0,20,20,6.0,0.0
16364,59.0,0,60,2.0,0.0
16365,84.0,0,90,0.0,0.0
16366,60.0,0,90,2.0,0.0
16367,72.0,0,90,1.0,0.0
16368,48.0,0,90,5.0,0.0
16369,72.0,0,90,6.0,0.0
16370,64.0,0,90,4.0,0.0
16371,72.0,0,90,4.0,0.0
16372,72.0,0,90,3.0,0.0
16373,64.0,0,90,3.0,0.0
16374,36.0,95,90,11.0,0.0
16375,48.0,0,90,10.0,0.0
16376,60.0,0,90,8.0,0.0
16377,60.0,0,90,7.0,0.0
16378,72.0,0,90,7.0,0.0
16379,60.0,0,90,8.0,0.0
16380,64.0,0,90,7.0,0.0
16381,60.0,5,90,10.0,0.0
16382,55.0,0,90,7.0,0.0
16383,48.0,0,90,11.0,0.0
16384,77.0,15,15,6.0,0.0
16385,76.0,10,15,6.0,0.0
16386,74.0,15,15,6.0,0.0
16387,72.0,100,15,6.0,0.0
16388,71.0,0,90,6.0,0.0
16389,43.0,0,90,5.0,0.0
16390,55.0,0,90,3.0,0.0
16391,83.0,0,90,0.0,0.0
16392,55.0,95,90,4.0,0.0
16393,67.0,0,90,4.0,0.0
16394,79.0,0,90,1.0,0.0
16395,74.0,0,90,1.0,0.0
16396,62.0,0,90,2.0,0.0
16397,59.0,0,90,2.0,0.0
16398,67.0,0,90,3.0,0.0
16399,55.0,0,90,8.0,0.0
16400,55.0,0,90,10.0,0.0
16401,62.0,0,90,7.0,0.0
16402,71.0,5,90,7.0,0.0
16403,43.0,0,90,11.0,0.0
16404,55.0,0,90,7.0,0.0
16405,79.0,15,15,6.0,0.0
16406,77.0,10,15,6.0,0.0
16407,76.0,15,15,6.0,0.0
16408,74.0,100,15,6.0,0.0
16409,67.0,0,90,4.0,0.0
16410,67.0,0,90,3.0,0.0
16411,60.0,0,90,2.0,0.0
16412,84.0,0,90,0.0,0.0
16413,64.0,0,90,2.0,0.0
16414,79.0,0,90,1.0,0.0
16415,76.0,95,90,1.0,0.0
16416,60.0,0,90,4.0,0.0
16417,48.0,0,90,5.0,0.0
16418,76.0,0,90,6.0,0.0
16419,60.0,0,90,3.0,0.0
16420,60.0,0,90,8.0,0.0
16421,48.0,0,90,11.0,0.0
16422,60.0,0,90,10.0,0.0
16423,72.0,0,90,7.0,0.0
16424,55.0,5,90,7.0,0.0
16425,64.0,0,90,7.0,0.0
16426,77.0,15,15,6.0,0.0
16427,76.0,10,15,6.0,0.0
16428,74.0,15,15,6.0,0.0
16429,72.0,100,15,6.0,0.0
16430,67.0,0,90,3.0,0.0
16431,55.0,0,90,3.0,0.0
16432,83.0,0,90,0.0,0.0
16433,74.0,0,90,1.0,0.0
16434,79.0,0,90,1.0,0.0
16435,62.0,0,90,2.0,0.0
16436,59.0,95,90,2.0,0.0
16437,71.0,0,90,6.0,0.0
16438,43.0,0,90,5.0,0.0
16439,55.0,0,90,4.0,0.0
16440,67.0,0,90,4.0,0.0
16441,62.0,0,90,7.0,0.0
16442,71.0,0,90,7.0,0.0
16443,55.0,0,90,7.0,0.0
16444,43.0,0,90,11.0,0.0
16445,55.0,0,90,10.0,0.0
16446,55.0,5,90,8.0,0.0
16447,79.0,15,15,6.0,0.0
16448,77.0,10,15,6.0,0.0
16449,76.0,15,15,6.0,0.0
16450,74.0,100,15,6.0,0.0
16451,67.0,0,90,3.0,0.0
16452,64.0,0,90,2.0,0.0
16453,60.0,0,90,2.0,0.0
16454,79.0,0,90,1.0,0.0
16455,60.0,0,90,4.0,0.0
16456,60.0,95,90,3.0,0.0
16457,67.0,0,90,4.0,0.0
16458,84.0,0,90,0.0,0.0
16459,48.0,0,90,5.0,0.0
16460,76.0,0,90,6.0,0.0
16461,76.0,0,90,1.0,0.0
16462,48.0,0,90,11.0,0.0
16463,60.0,0,90,10.0,0.0
16464,60.0,0,90,8.0,0.0
16465,72.0,0,90,7.0,0.0
16466,64.0,5,90,7.0,0.0
16467,55.0,0,90,7.0,0.0
16468,77.0,15,15,6.0,0.0
16469,76.0,10,15,6.0,0.0
16470,74.0,15,15,6.0,0.0
16471,72.0,100,15,6.0,0.0
16472,83.0,0,90,0.0,0.0
16473,43.0,0,90,5.0,0.0
16474,55.0,0,90,4.0,0.0
16475,59.0,0,90,2.0,0.0
16476,62.0,0,90,2.0,0.0
16477,79.0,0,90,1.0,0.0
16478,74.0,95,90,1.0,0.0
16479,67.0,0,90,3.0,0.0
16480,55.0,0,90,3.0,0.0
16481,67.0,0,90,4.0,0.0
16482,71.0,0,90,6.0,0.0
16483,71.0,0,90,7.0,0.0
16484,62.0,0,90,7.0,0.0
16485,55.0,0,90,7.0,0.0
16486,55.0,0,90,8.0,0.0
16487,55.0,5,90,10.0,0.0
16488,43.0,0,90,11.0,0.0
16489,79.0,15,15,6.0,0.0
16490,77.0,10,15,6.0,0.0
16491,76.0,15,15,6.0,0.0
16492,74.0,59,15,6.0,0.0
16493,48.0,0,60,10.0,0.0
16494,36.0,0,60,11.0,0.0
16495,60.0,0,60,3.0,0.0
16496,72.0,0,60,3.0,0.0
16497,72.0,0,60,1.0,0.0
16498,48.0,0,60,2.0,0.0
16499,48.0,19,90,5.0,0.0
16500,72.0,0,60,7.0,0.0
16501,72.0,41,60,6.0,0.0
16502,60.0,0,60,4.0,0.0
16503,84.0,0,60,0.0,0.0
16504,60.0,0,60,8.0,0.0
16505,72.0,0,60,4.0,0.0
16506,55.0,0,60,4.0,0.0
16507,67.0,0,60,3.0,0.0
16508,55.0,0,60,3.0,0.0
16509,43.0,0,60,2.0,0.0
16510,79.0,60,60,0.0,0.0
16511,67.0,0,60,6.0,0.0
16512,31.0,0,60,11.0,0.0
16513,55.0,0,60,8.0,0.0
16514,67.0,0,60,4.0,0.0
16515,43.0,0,60,10.0,0.0
16516,67.0,0,60,1.0,0.0
16517,67.0,0,60,7.0,0.0
16518,72.0,0,60,3.0,0.0
16519,48.0,0,60,2.0,0.0
16520,72.0,0,60,6.0,0.0
16521,72.0,0,60,4.0,0.0
16522,60.0,0,60,4.0,0.0
16523,36.0,0,60,11.0,0.0
16524,60.0,0,60,3.0,0.0
16525,48.0,30,90,5.0,0.0
16526,60.0,30,60,8.0,0.0
16527,72.0,0,60,1.0,0.0
16528,72.0,0,60,7.0,0.0
16529,84.0,0,60,0.0,0.0
16530,48.0,0,60,10.0,0.0
16531,67.0,0,60,4.0,0.0
16532,55.0,60,60,4.0,0.0
16533,55.0,0,60,3.0,0.0
16534,67.0,0,60,7.0,0.0
16535,67.0,0,60,3.0,0.0
16536,67.0,0,60,6.0,0.0
16537,43.0,0,60,2.0,0.0
16538,79.0,0,60,0.0,0.0
16539,55.0,0,60,8.0,0.0
16540,67.0,0,60,1.0,0.0
16541,43.0,0,60,10.0,0.0
16542,31.0,0,60,11.0,0.0
16543,48.0,0,30,5.0,0.0
16544,48.0,0,60,10.0,0.0
16545,36.0,0,60,11.0,0.0
16546,72.0,0,60,7.0,0.0
16547,48.0,41,60,2.0,0.0
16548,60.0,0,60,4.0,0.0
16549,72.0,0,60,4.0,0.0
16550,72.0,0,60,3.0,0.0
16551,84.0,0,60,0.0,0.0
16552,60.0,0,60,3.0,0.0
16553,60.0,0,60,8.0,0.0
16554,72.0,0,60,6.0,0.0
16555,48.0,19,90,5.0,0.0
16556,72.0,0,60,1.0,0.0
16557,67.0,0,60,6.0,0.0
16558,43.0,0,60,10.0,0.0
16559,55.0,0,60,4.0,0.0
16560,79.0,0,60,0.0,0.0
16561,67.0,0,60,3.0,0.0
16562,55.0,0,60,3.0,0.0
16563,67.0,0,60,4.0,0.0
16564,43.0,0,60,2.0,0.0
16565,67.0,60,60,1.0,0.0
16566,31.0,0,60,11.0,0.0
16567,55.0,0,60,8.0,0.0
16568,67.0,0,60,7.0,0.0
16569,72.0,0,60,6.0,0.0
16570,48.0,0,60,10.0,0.0
16571,72.0,0,60,7.0,0.0
16572,36.0,0,60,11.0,0.0
16573,72.0,0,60,4.0,0.0
16574,60.0,0,60,4.0,0.0
16575,48.0,0,60,2.0,0.0
16576,60.0,0,60,3.0,0.0
16577,72.0,0,60,3.0,0.0
16578,48.0,19,90,5.0,0.0
16579,60.0,41,60,8.0,0.0
16580,84.0,0,60,0.0,0.0
16581,72.0,0,60,1.0,0.0
16582,55.0,0,60,8.0,0.0
16583,55.0,0,60,4.0,0.0
16584,67.0,0,60,4.0,0.0
16585,67.0,0,60,1.0,0.0
16586,79.0,0,60,0.0,0.0
16587,67.0,0,60,6.0,0.0
16588,67.0,0,60,3.0,0.0
16589,43.0,0,60,10.0,0.0
16590,31.0,0,60,11.0,0.0
16591,43.0,0,60,2.0,0.0
16592,67.0,0,60,7.0,0.0
16593,55.0,60,60,3.0,0.0
16594,72.0,0,60,6.0,0.0
16595,48.0,0,60,10.0,0.0
16596,60.0,19,90,3.0,0.0
16597,72.0,0,90,3.0,0.0
16598,60.0,0,60,8.0,0.0
16599,84.0,0,60,0.0,0.0
16600,72.0,41,60,7.0,0.0
16601,48.0,0,90,5.0,0.0
16602,48.0,0,60,2.0,0.0
16603,36.0,0,60,11.0,0.0
16604,72.0,0,90,4.0,0.0
16605,60.0,0,90,4.0,0.0
16606,72.0,0,60,1.0,0.0
16607,76.0,0,60,6.0,0.0
16608,64.0,0,60,8.0,0.0
16609,40.0,0,60,11.0,0.0
16610,76.0,0,60,7.0,0.0
16611,88.0,60,60,0.0,0.0
16612,52.0,0,60,2.0,0.0
16613,52.0,0,60,10.0,0.0
16614,76.0,0,60,1.0,0.0
16615,43.0,0,60,11.0,0.0
16616,79.0,0,60,7.0,0.0
16617,55.0,0,60,10.0,0.0
16618,64.0,19,90,3.0,0.0
16619,76.0,0,90,3.0,0.0
16620,67.0,0,60,8.0,0.0
16621,91.0,0,60,0.0,0.0
16622,55.0,0,60,2.0,0.0
16623,79.0,0,60,1.0,0.0
16624,48.0,0,90,5.0,0.0
16625,79.0,41,60,6.0,0.0
16626,76.0,0,90,4.0,0.0
16627,64.0,0,90,4.0,0.0
16628,76.0,0,60,1.0,0.0
16629,76.0,0,60,7.0,0.0
16630,88.0,0,60,0.0,0.0
16631,52.0,0,60,10.0,0.0
16632,52.0,0,60,2.0,0.0
16633,76.0,60,60,6.0,0.0
16634,40.0,0,60,11.0,0.0
16635,64.0,0,60,8.0,0.0
16636,55.0,0,60,2.0,0.0
16637,55.0,0,60,10.0,0.0
16638,79.0,0,60,1.0,0.0
16639,43.0,0,60,11.0,0.0
16640,48.0,0,90,5.0,0.0
16641,79.0,0,60,7.0,0.0
16642,67.0,0,60,8.0,0.0
16643,91.0,41,60,0.0,0.0
16644,67.0,0,90,3.0,0.0
16645,79.0,19,90,4.0,0.0
16646,67.0,0,90,4.0,0.0
16647,79.0,0,60,6.0,0.0
16648,79.0,0,90,3.0,0.0
16649,76.0,0,60,7.0,0.0
16650,52.0,0,60,10.0,0.0
16651,40.0,0,60,11.0,0.0
16652,88.0,60,60,0.0,0.0
16653,52.0,0,60,2.0,0.0
16654,76.0,0,60,6.0,0.0
16655,76.0,0,60,1.0,0.0
16656,64.0,0,60,8.0,0.0
16657,79.0,0,60,7.0,0.0
16658,55.0,41,60,10.0,0.0
16659,76.0,0,90,3.0,0.0
16660,43.0,0,60,11.0,0.0
16661,64.0,0,90,3.0,0.0
16662,64.0,19,90,4.0,0.0
16663,76.0,0,90,4.0,0.0
16664,48.0,0,90,5.0,0.0
16665,79.0,0,60,6.0,0.0
16666,67.0,0,60,8.0,0.0
16667,79.0,0,60,1.0,0.0
16668,55.0,0,60,2.0,0.0
16669,91.0,0,60,0.0,0.0
16670,52.0,0,60,2.0,0.0
16671,40.0,15,60,11.0,0.0
16672,76.0,0,60,7.0,0.0
16673,88.0,0,60,0.0,0.0
16674,52.0,0,60,10.0,0.0
16675,76.0,0,60,1.0,0.0
16676,76.0,0,60,6.0,0.0
16677,64.0,0,60,8.0,0.0
16678,50.0,15,15,5.0,0.0
16679,72.0,0,90,6.0,0.0
16680,48.0,0,90,10.0,0.0
16681,48.0,0,90,2.0,0.0
16682,72.0,0,90,1.0,0.0
16683,60.0,0,90,8.0,0.0
16684,72.0,0,60,4.0,0.0
16685,60.0,0,60,4.0,0.0
16686,36.0,0,90,11.0,0.0
16687,72.0,0,90,7.0,0.0
16688,84.0,4,90,0.0,0.0
16689,60.0,0,60,3.0,0.0
16690,72.0,15,60,3.0,0.0
16691,48.0,15,15,5.0,0.0
16692,50.0,15,15,5.0,0.0
16693,48.0,0,15,5.0,0.0
16694,55.0,15,60,4.0,0.0
16695,55.0,0,60,3.0,0.0
16696,50.0,15,15,5.0,0.0
16697,67.0,0,60,3.0,0.0
16698,67.0,0,60,4.0,0.0
16699,48.0,11,15,5.0,0.0
16700,50.0,15,15,5.0,0.0
16701,48.0,0,15,5.0,0.0
16702,84.0,0,90,7.0,0.0
16703,64.0,0,90,8.0,0.0
16704,72.0,0,60,3.0,0.0
16705,84.0,0,90,0.0,0.0
16706,67.0,4,90,7.0,0.0
16707,60.0,0,60,3.0,0.0
16708,40.0,0,90,11.0,0.0
16709,76.0,0,90,7.0,0.0
16710,79.0,0,90,1.0,0.0
16711,76.0,0,90,1.0,0.0
16712,50.0,15,15,5.0,0.0
16713,52.0,0,90,2.0,0.0
16714,67.0,0,90,6.0,0.0
16715,76.0,0,90,6.0,0.0
16716,52.0,0,90,10.0,0.0
16717,60.0,0,60,4.0,0.0
16718,72.0,15,60,4.0,0.0
16719,84.0,0,90,6.0,0.0
16720,48.0,15,15,5.0,0.0
16721,50.0,15,15,5.0,0.0
16722,48.0,0,15,5.0,0.0
16723,50.0,15,15,5.0,0.0
16724,55.0,0,60,4.0,0.0
16725,67.0,0,60,4.0,0.0
16726,67.0,0,60,3.0,0.0
16727,55.0,15,60,3.0,0.0
16728,48.0,11,15,5.0,0.0
16729,50.0,15,15,5.0,0.0
16730,48.0,0,15,5.0,0.0
16731,84.0,0,90,6.0,0.0
16732,72.0,0,60,3.0,0.0
16733,76.0,0,90,6.0,0.0
16734,67.0,0,90,6.0,0.0
16735,60.0,0,60,4.0,0.0
16736,72.0,15,60,4.0,0.0
16737,55.0,0,90,2.0,0.0
16738,79.0,0,90,1.0,0.0
16739,76.0,4,90,1.0,0.0
16740,67.0,0,90,7.0,0.0
16741,55.0,0,90,10.0,0.0
16742,43.0,0,90,11.0,0.0
16743,60.0,0,60,3.0,0.0
16744,76.0,0,90,7.0,0.0
16745,50.0,15,15,5.0,0.0
16746,84.0,0,90,7.0,0.0
16747,84.0,0,90,0.0,0.0
16748,67.0,0,90,8.0,0.0
16749,48.0,15,15,5.0,0.0
16750,50.0,15,15,5.0,0.0
16751,48.0,0,15,5.0,0.0
16752,67.0,0,60,4.0,0.0
16753,55.0,0,60,4.0,0.0
16754,67.0,15,60,3.0,0.0
16755,50.0,15,15,5.0,0.0
16756,55.0,0,60,3.0,0.0
16757,48.0,11,15,5.0,0.0
16758,50.0,15,15,5.0,0.0
16759,48.0,0,15,5.0,0.0
16760,84.0,0,90,7.0,0.0
16761,67.0,0,90,7.0,0.0
16762,76.0,0,90,7.0,0.0
16763,84.0,4,90,0.0,0.0
16764,50.0,15,15,5.0,0.0
16765,64.0,0,90,8.0,0.0
16766,84.0,0,90,6.0,0.0
16767,67.0,0,90,6.0,0.0
16768,79.0,0,90,1.0,0.0
16769,76.0,0,90,6.0,0.0
16770,52.0,0,90,2.0,0.0
16771,40.0,0,90,11.0,0.0
16772,72.0,0,60,4.0,0.0
16773,60.0,0,60,3.0,0.0
16774,76.0,0,90,1.0,0.0
16775,52.0,0,90,10.0,0.0
16776,72.0,15,60,3.0,0.0
16777,60.0,0,60,4.0,0.0
16778,48.0,15,15,5.0,0.0
16779,50.0,15,15,5.0,0.0
16780,48.0,0,15,5.0,0.0
16781,55.0,101,60,3.0,0.0
16782,67.0,0,60,3.0,0.0
16783,55.0,0,60,4.0,0.0
16784,50.0,15,15,5.0,0.0
16785,67.0,0,60,4.0,0.0
16786,48.0,11,15,5.0,0.0
16787,50.0,15,15,5.0,0.0
16788,48.0,0,15,5.0,0.0
16789,76.0,0,90,1.0,0.0
16790,60.0,139,90,3.0,0.0
16791,48.0,0,90,10.0,0.0
16792,60.0,0,90,4.0,0.0
16793,72.0,0,90,4.0,0.0
16794,72.0,0,90,3.0,0.0
16795,79.0,0,90,1.0,0.0
16796,67.0,0,90,6.0,0.0
16797,48.0,0,90,2.0,0.0
16798,84.0,0,90,6.0,0.0
16799,36.0,0,90,11.0,0.0
16800,84.0,0,90,7.0,0.0
16801,76.0,0,90,7.0,0.0
16802,67.0,0,90,7.0,0.0
16803,84.0,0,90,0.0,0.0
16804,60.0,0,90,8.0,0.0
16805,48.0,0,90,5.0,0.0
16806,76.0,0,90,6.0,0.0
16807,67.0,0,30,3.0,0.0
16808,64.0,0,30,3.0,0.0
16809,67.0,101,30,4.0,0.0
16810,64.0,0,30,4.0,0.0
16811,76.0,0,90,1.0,0.0
16812,76.0,0,90,7.0,0.0
16813,60.0,0,90,8.0,0.0
16814,67.0,0,90,7.0,0.0
16815,84.0,0,90,7.0,0.0
16816,48.0,0,90,2.0,0.0
16817,67.0,0,90,3.0,0.0
16818,79.0,0,90,1.0,0.0
16819,48.0,139,90,10.0,0.0
16820,64.0,0,90,3.0,0.0
16821,48.0,0,90,5.0,0.0
16822,64.0,0,90,4.0,0.0
16823,36.0,0,90,11.0,0.0
16824,76.0,0,90,6.0,0.0
16825,84.0,0,90,0.0,0.0
16826,67.0,0,90,6.0,0.0
16827,84.0,0,90,6.0,0.0
16828,67.0,0,90,4.0,0.0
16829,64.0,0,30,3.0,0.0
16830,60.0,0,30,3.0,0.0
16831,60.0,211,30,4.0,0.0
16832,64.0,0,30,4.0,0.0
16833,84.0,0,210,0.0,0.0
16834,60.0,0,210,3.0,0.0
16835,64.0,0,210,3.0,0.0
16836,60.0,0,210,8.0,0.0
16837,67.0,0,210,6.0,0.0
16838,84.0,0,210,6.0,0.0
16839,48.0,0,210,2.0,0.0
16840,48.0,0,210,5.0,0.0
16841,60.0,0,210,4.0,0.0
16842,36.0,0,210,11.0,0.0
16843,48.0,1110,210,10.0,0.0
16844,79.0,0,210,1.0,0.0
16845,76.0,0,210,1.0,0.0
16846,76.0,0,210,7.0,0.0
16847,67.0,0,210,7.0,0.0
16848,84.0,0,210,7.0,0.0
16849,76.0,0,210,6.0,0.0
16850,64.0,0,210,4.0,0.0
16851,72.0,0,120,6.0,0.0
