tick,type,numerator,denominator,clocks_per_click,notated_32nd_notes_per_beat,time,meta,track,tempo,program,channel,control,value,note,velocity
0,time_signature,3,4,24,8,0,1,0,,,,,,,
0,control_change,,,,,0,0,6,,,5,91,70,,
0,control_change,,,,,0,0,6,,,5,10,28,,
0,control_change,,,,,0,0,6,,,5,7,126,,
0,program_change,,,,,0,0,6,,48,5,,,,
0,control_change,,,,,0,0,5,,,4,10,56,,
0,control_change,,,,,0,0,5,,,4,91,70,,
0,control_change,,,,,0,0,5,,,4,7,98,,
0,program_change,,,,,0,0,5,,47,4,,,,
0,control_change,,,,,0,0,4,,,3,10,36,,
0,control_change,,,,,0,0,4,,,3,91,70,,
0,control_change,,,,,0,0,13,,,14,91,80,,
0,control_change,,,,,0,0,4,,,3,7,116,,
0,control_change,,,,,0,0,3,,,2,10,92,,
0,control_change,,,,,0,0,3,,,2,91,70,,
0,control_change,,,,,0,0,3,,,2,7,116,,
0,program_change,,,,,0,0,3,,60,2,,,,
0,control_change,,,,,0,0,2,,,1,10,72,,
0,control_change,,,,,0,0,2,,,1,91,70,,
0,control_change,,,,,0,0,2,,,1,7,90,,
0,program_change,,,,,0,0,2,,70,1,,,,
0,control_change,,,,,0,0,1,,,0,91,70,,
0,control_change,,,,,0,0,1,,,0,10,64,,
0,program_change,,,,,0,0,4,,56,3,,,,
0,program_change,,,,,0,0,7,,48,6,,,,
0,control_change,,,,,0,0,7,,,6,7,123,,
0,control_change,,,,,0,0,7,,,6,91,70,,
0,control_change,,,,,0,0,13,,,14,7,99,,
0,program_change,,,,,0,0,13,,45,14,,,,
0,end_of_track,,,,,0,1,12,,,,,,,
0,control_change,,,,,0,0,12,,,13,91,80,,
0,control_change,,,,,0,0,12,,,13,7,99,,
0,program_change,,,,,0,0,12,,45,13,,,,
0,control_change,,,,,0,0,11,,,12,10,96,,
0,control_change,,,,,0,0,11,,,12,91,70,,
0,control_change,,,,,0,0,11,,,12,7,97,,
0,program_change,,,,,0,0,11,,43,12,,,,
0,control_change,,,,,0,0,10,,,11,10,96,,
0,control_change,,,,,0,0,10,,,11,91,70,,
0,control_change,,,,,0,0,10,,,11,7,97,,
0,program_change,,,,,0,0,10,,48,11,,,,
0,control_change,,,,,0,0,9,,,10,91,70,,
0,control_change,,,,,0,0,9,,,10,10,84,,
0,control_change,,,,,0,0,9,,,10,7,124,,
0,program_change,,,,,0,0,9,,48,10,,,,
0,control_change,,,,,0,0,8,,,7,91,70,,
0,control_change,,,,,0,0,8,,,7,10,98,,
0,control_change,,,,,0,0,8,,,7,7,123,,
0,program_change,,,,,0,0,8,,48,7,,,,
0,control_change,,,,,0,0,7,,,6,10,40,,
0,control_change,,,,,0,0,1,,,0,7,89,,
0,program_change,,,,,0,0,1,,68,0,,,,
0,end_of_track,,,,,0,1,13,,,,,,,
0,set_tempo,,,,,0,1,0,468750,,,,,,
480,note_on,,,,,480,0,6,,,5,,,79,105
480,note_on,,,,,480,0,1,,,0,,,79,105
480,note_on,,,,,480,0,7,,,6,,,67,105
624,note_off,,,,,144,0,1,,,0,,,79,64
624,note_off,,,,,144,0,6,,,5,,,79,64
624,note_off,,,,,144,0,7,,,6,,,67,64
720,note_on,,,,,720,0,3,,,2,,,64,80
720,note_on,,,,,0,0,4,,,3,,,60,105
720,note_on,,,,,720,0,4,,,3,,,72,105
720,note_on,,,,,96,0,7,,,6,,,67,105
720,note_on,,,,,96,0,6,,,5,,,79,105
720,note_on,,,,,720,0,5,,,4,,,48,80
720,note_on,,,,,0,0,3,,,2,,,67,80
720,note_on,,,,,96,0,1,,,0,,,79,105
720,set_tempo,,,,,720,1,0,454545,,,,,,
912,note_off,,,,,192,0,5,,,4,,,48,64
912,note_off,,,,,0,0,4,,,3,,,72,64
912,note_off,,,,,192,0,4,,,3,,,60,64
960,note_on,,,,,960,0,8,,,7,,,64,105
960,note_on,,,,,960,0,9,,,10,,,64,80
960,note_off,,,,,240,0,3,,,2,,,67,64
960,note_on,,,,,960,0,10,,,11,,,52,105
960,note_on,,,,,960,0,2,,,1,,,64,80
960,note_on,,,,,960,0,11,,,12,,,52,105
960,note_on,,,,,0,0,3,,,2,,,64,105
960,note_off,,,,,0,0,3,,,2,,,64,64
960,note_on,,,,,0,0,3,,,2,,,60,105
1152,note_off,,,,,0,0,3,,,2,,,60,64
1152,note_off,,,,,192,0,3,,,2,,,64,64
1200,note_off,,,,,240,0,2,,,1,,,64,64
1200,note_on,,,,,0,0,10,,,11,,,48,105
1200,note_on,,,,,0,0,6,,,5,,,76,105
1200,note_on,,,,,0,0,2,,,1,,,60,105
1200,note_on,,,,,0,0,11,,,12,,,48,105
1200,note_off,,,,,240,0,11,,,12,,,52,64
1200,note_off,,,,,240,0,9,,,10,,,64,64
1200,note_off,,,,,480,0,6,,,5,,,79,64
1200,note_on,,,,,0,0,8,,,7,,,60,105
1200,note_on,,,,,0,0,1,,,0,,,76,105
1200,note_off,,,,,480,0,7,,,6,,,67,64
1200,note_on,,,,,0,0,7,,,6,,,64,105
1200,note_off,,,,,240,0,8,,,7,,,64,64
1200,note_off,,,,,480,0,1,,,0,,,79,64
1200,note_on,,,,,0,0,9,,,10,,,60,105
1200,note_off,,,,,240,0,10,,,11,,,52,64
1296,note_off,,,,,96,0,9,,,10,,,60,64
1296,note_off,,,,,96,0,6,,,5,,,76,64
1296,note_off,,,,,96,0,8,,,7,,,60,64
1296,note_off,,,,,96,0,11,,,12,,,48,64
1296,note_off,,,,,96,0,10,,,11,,,48,64
1296,note_off,,,,,96,0,1,,,0,,,76,64
1296,note_off,,,,,96,0,7,,,6,,,64,64
1296,note_off,,,,,96,0,2,,,1,,,60,64
1440,note_on,,,,,0,0,4,,,3,,,60,105
1440,note_on,,,,,528,0,4,,,3,,,72,105
1440,note_on,,,,,144,0,7,,,6,,,64,105
1440,note_on,,,,,528,0,5,,,4,,,48,105
1440,note_on,,,,,144,0,1,,,0,,,76,105
1440,note_on,,,,,144,0,6,,,5,,,76,105
1632,note_off,,,,,192,0,4,,,3,,,60,64
1632,note_off,,,,,192,0,5,,,4,,,48,64
1632,note_off,,,,,0,0,4,,,3,,,72,64
1680,note_on,,,,,384,0,11,,,12,,,48,105
1680,note_on,,,,,384,0,10,,,11,,,48,105
1680,note_on,,,,,384,0,2,,,1,,,60,105
1680,note_on,,,,,0,0,3,,,2,,,60,105
1680,note_on,,,,,528,0,3,,,2,,,64,105
1680,note_on,,,,,384,0,9,,,10,,,60,105
1680,note_on,,,,,384,0,8,,,7,,,60,105
1920,note_off,,,,,480,0,6,,,5,,,76,64
1920,note_on,,,,,0,0,6,,,5,,,72,105
1920,note_off,,,,,480,0,1,,,0,,,76,64
1920,note_off,,,,,240,0,2,,,1,,,60,64
1920,note_on,,,,,0,0,9,,,10,,,57,105
1920,note_on,,,,,0,0,8,,,7,,,57,105
1920,note_off,,,,,240,0,3,,,2,,,60,64
1920,note_off,,,,,0,0,3,,,2,,,64,64
1920,note_on,,,,,0,0,3,,,2,,,60,105
1920,note_on,,,,,0,0,3,,,2,,,48,105
1920,note_on,,,,,0,0,11,,,12,,,45,105
1920,note_on,,,,,0,0,10,,,11,,,45,105
1920,note_off,,,,,240,0,10,,,11,,,48,64
1920,note_off,,,,,240,0,8,,,7,,,60,64
1920,note_off,,,,,240,0,11,,,12,,,48,64
1920,note_on,,,,,0,0,1,,,0,,,72,105
1920,note_on,,,,,0,0,7,,,6,,,60,105
1920,note_on,,,,,0,0,2,,,1,,,57,105
1920,note_off,,,,,240,0,9,,,10,,,60,64
1920,note_off,,,,,480,0,7,,,6,,,64,64
2016,note_off,,,,,96,0,6,,,5,,,72,64
2016,note_off,,,,,96,0,7,,,6,,,60,64
2016,note_off,,,,,96,0,10,,,11,,,45,64
2016,note_off,,,,,96,0,9,,,10,,,57,64
2016,note_off,,,,,96,0,11,,,12,,,45,64
2016,note_off,,,,,96,0,8,,,7,,,57,64
2016,note_off,,,,,96,0,1,,,0,,,72,64
2016,note_off,,,,,96,0,2,,,1,,,57,64
2112,note_off,,,,,0,0,3,,,2,,,60,64
2112,note_off,,,,,192,0,3,,,2,,,48,64
2160,note_on,,,,,144,0,7,,,6,,,60,105
2160,note_on,,,,,144,0,1,,,0,,,72,105
2160,note_on,,,,,144,0,6,,,5,,,72,105
2400,note_off,,,,,240,0,7,,,6,,,60,64
2400,note_on,,,,,0,0,6,,,5,,,77,105
2400,note_on,,,,,0,0,7,,,6,,,65,105
2400,note_on,,,,,384,0,11,,,12,,,45,105
2400,note_on,,,,,384,0,2,,,1,,,57,105
2400,note_on,,,,,384,0,10,,,11,,,45,105
2400,note_on,,,,,384,0,8,,,7,,,60,105
2400,note_on,,,,,0,0,3,,,2,,,48,105
2400,note_on,,,,,288,0,3,,,2,,,60,105
2400,note_on,,,,,384,0,9,,,10,,,57,105
2400,note_on,,,,,0,0,1,,,0,,,77,105
2400,note_off,,,,,240,0,1,,,0,,,72,64
2400,note_off,,,,,240,0,6,,,5,,,72,64
2544,note_off,,,,,144,0,8,,,7,,,60,64
2592,note_off,,,,,0,0,3,,,2,,,60,64
2592,note_off,,,,,192,0,3,,,2,,,48,64
2640,note_on,,,,,0,0,7,,,6,,,69,105
2640,note_on,,,,,0,0,6,,,5,,,81,105
2640,note_off,,,,,240,0,6,,,5,,,77,64
2640,note_off,,,,,240,0,2,,,1,,,57,64
2640,note_on,,,,,0,0,10,,,11,,,41,105
2640,note_on,,,,,0,0,11,,,12,,,41,105
2640,note_on,,,,,0,0,3,,,2,,,48,105
2640,note_on,,,,,48,0,3,,,2,,,60,105
2640,note_on,,,,,0,0,1,,,0,,,81,105
2640,note_off,,,,,240,0,1,,,0,,,77,64
2640,note_off,,,,,240,0,10,,,11,,,45,64
2640,note_off,,,,,240,0,11,,,12,,,45,64
2640,note_off,,,,,240,0,7,,,6,,,65,64
2640,note_on,,,,,0,0,2,,,1,,,53,105
2640,note_on,,,,,0,0,9,,,10,,,53,105
2640,note_off,,,,,240,0,9,,,10,,,57,64
2640,note_on,,,,,96,0,8,,,7,,,60,105
2784,note_off,,,,,144,0,8,,,7,,,60,64
2832,note_off,,,,,192,0,3,,,2,,,48,64
2832,note_off,,,,,0,0,3,,,2,,,60,64
2832,note_off,,,,,192,0,6,,,5,,,81,64
2832,note_off,,,,,192,0,10,,,11,,,41,64
2832,note_off,,,,,192,0,1,,,0,,,81,64
2832,note_off,,,,,192,0,7,,,6,,,69,64
2832,note_off,,,,,192,0,2,,,1,,,53,64
2832,note_off,,,,,192,0,9,,,10,,,53,64
2832,note_off,,,,,192,0,11,,,12,,,41,64
2880,note_on,,,,,48,0,9,,,10,,,55,105
2880,note_on,,,,,48,0,10,,,11,,,43,105
2880,note_on,,,,,48,0,11,,,12,,,43,105
2880,note_on,,,,,1248,0,4,,,3,,,67,105
2880,note_on,,,,,96,0,8,,,7,,,67,105
2880,note_on,,,,,48,0,6,,,5,,,72,105
2880,note_on,,,,,0,0,3,,,2,,,64,105
2880,note_on,,,,,48,0,3,,,2,,,60,105
2880,note_on,,,,,1248,0,5,,,4,,,43,105
2880,note_on,,,,,48,0,1,,,0,,,72,105
2880,note_on,,,,,48,0,7,,,6,,,64,105
2880,note_on,,,,,48,0,2,,,1,,,55,105
3036,note_off,,,,,156,0,10,,,11,,,43,64
3036,note_off,,,,,156,0,11,,,12,,,43,64
3036,note_off,,,,,156,0,2,,,1,,,55,64
3036,note_off,,,,,156,0,9,,,10,,,55,64
3072,note_off,,,,,0,0,3,,,2,,,60,64
3072,note_off,,,,,192,0,3,,,2,,,64,64
3072,note_off,,,,,192,0,5,,,4,,,43,64
3120,note_on,,,,,0,0,7,,,6,,,62,105
3120,note_on,,,,,0,0,1,,,0,,,71,105
3120,note_off,,,,,240,0,1,,,0,,,72,64
3120,note_off,,,,,240,0,7,,,6,,,64,64
3120,note_off,,,,,240,0,6,,,5,,,72,64
3120,note_on,,,,,0,0,6,,,5,,,71,105
3120,note_on,,,,,84,0,9,,,10,,,43,105
3120,note_on,,,,,84,0,11,,,12,,,31,105
3120,note_on,,,,,48,0,3,,,2,,,55,105
3120,note_on,,,,,84,0,2,,,1,,,43,105
3120,note_on,,,,,0,0,3,,,2,,,62,105
3120,note_on,,,,,84,0,10,,,11,,,31,105
3264,note_off,,,,,384,0,8,,,7,,,67,64
3264,note_off,,,,,144,0,7,,,6,,,62,64
3264,note_off,,,,,144,0,1,,,0,,,71,64
3264,note_off,,,,,384,0,4,,,3,,,67,64
3264,note_off,,,,,144,0,6,,,5,,,71,64
3276,note_off,,,,,156,0,11,,,12,,,31,64
3276,note_off,,,,,156,0,2,,,1,,,43,64
3276,note_off,,,,,156,0,10,,,11,,,31,64
3276,note_off,,,,,156,0,9,,,10,,,43,64
3312,note_off,,,,,192,0,3,,,2,,,62,64
3312,note_off,,,,,0,0,3,,,2,,,55,64
3360,note_on,,,,,48,0,3,,,2,,,55,105
3360,note_on,,,,,96,0,6,,,5,,,55,105
3360,note_on,,,,,96,0,1,,,0,,,67,105
3360,note_on,,,,,0,0,6,,,5,,,67,105
3477,note_off,,,,,117,0,3,,,2,,,55,64
3477,note_off,,,,,117,0,1,,,0,,,67,64
3477,note_off,,,,,117,0,6,,,5,,,67,64
3477,note_off,,,,,0,0,6,,,5,,,55,64
3540,note_on,,,,,63,0,1,,,0,,,67,105
3540,note_on,,,,,63,0,6,,,5,,,55,105
3540,note_on,,,,,0,0,6,,,5,,,67,105
3540,note_on,,,,,63,0,3,,,2,,,55,105
3579,note_off,,,,,39,0,1,,,0,,,67,64
3579,note_off,,,,,39,0,6,,,5,,,67,64
3579,note_off,,,,,0,0,6,,,5,,,55,64
3579,note_off,,,,,39,0,3,,,2,,,55,64
3600,note_on,,,,,21,0,3,,,2,,,55,105
3600,note_on,,,,,21,0,6,,,5,,,55,105
3600,note_on,,,,,0,0,6,,,5,,,67,105
3600,note_on,,,,,21,0,1,,,0,,,67,105
3756,note_off,,,,,156,0,3,,,2,,,55,64
3756,note_off,,,,,156,0,1,,,0,,,67,64
3768,note_off,,,,,0,0,6,,,5,,,55,64
3768,note_off,,,,,168,0,6,,,5,,,67,64
3840,note_on,,,,,0,0,6,,,5,,,67,105
3840,note_on,,,,,72,0,6,,,5,,,55,105
3840,note_on,,,,,84,0,1,,,0,,,67,105
3840,note_on,,,,,84,0,3,,,2,,,55,105
3996,note_off,,,,,156,0,1,,,0,,,67,64
3996,note_off,,,,,156,0,3,,,2,,,55,64
4008,note_off,,,,,0,0,6,,,5,,,55,64
4008,note_off,,,,,168,0,6,,,5,,,67,64
4080,note_on,,,,,84,0,1,,,0,,,67,105
4080,note_on,,,,,72,0,6,,,5,,,55,105
4080,note_on,,,,,0,0,6,,,5,,,67,105
4080,note_on,,,,,84,0,3,,,2,,,55,105
4236,note_off,,,,,156,0,3,,,2,,,55,64
4236,note_off,,,,,156,0,1,,,0,,,67,64
4248,note_off,,,,,168,0,6,,,5,,,67,64
4248,note_off,,,,,0,0,6,,,5,,,55,64
4320,note_on,,,,,1044,0,9,,,10,,,55,105
4320,note_on,,,,,0,0,4,,,3,,,74,105
4320,note_on,,,,,1056,0,4,,,3,,,67,105
4320,note_on,,,,,72,0,6,,,5,,,84,105
4320,note_on,,,,,1248,0,5,,,4,,,43,105
4320,note_on,,,,,1044,0,2,,,1,,,55,105
4320,note_on,,,,,1056,0,7,,,6,,,77,105
4320,note_on,,,,,0,0,7,,,6,,,74,105
4320,note_on,,,,,1044,0,10,,,11,,,43,105
4320,note_on,,,,,0,0,3,,,2,,,62,105
4320,note_on,,,,,84,0,1,,,0,,,83,105
4320,note_on,,,,,1044,0,11,,,12,,,43,105
4320,note_on,,,,,1056,0,8,,,7,,,67,105
4320,note_on,,,,,0,0,1,,,0,,,77,105
4320,note_on,,,,,84,0,3,,,2,,,55,105
4350,note_off,,,,,30,0,6,,,5,,,84,64
4350,note_on,,,,,0,0,6,,,5,,,83,105
4380,note_off,,,,,30,0,6,,,5,,,83,64
4380,note_on,,,,,0,0,6,,,5,,,84,105
4410,note_on,,,,,0,0,6,,,5,,,83,105
4410,note_off,,,,,30,0,6,,,5,,,84,64
4440,note_off,,,,,30,0,6,,,5,,,83,64
4440,note_on,,,,,0,0,6,,,5,,,81,105
4476,note_off,,,,,156,0,4,,,3,,,74,64
4476,note_off,,,,,156,0,2,,,1,,,55,64
4476,note_off,,,,,0,0,4,,,3,,,67,64
4476,note_off,,,,,156,0,7,,,6,,,74,64
4476,note_off,,,,,156,0,10,,,11,,,43,64
4476,note_off,,,,,0,0,7,,,6,,,77,64
4476,note_off,,,,,156,0,8,,,7,,,67,64
4476,note_off,,,,,156,0,9,,,10,,,55,64
4476,note_off,,,,,156,0,11,,,12,,,43,64
4500,note_on,,,,,0,0,6,,,5,,,83,105
4500,note_off,,,,,60,0,6,,,5,,,81,64
4512,note_off,,,,,192,0,5,,,4,,,43,64
4548,note_off,,,,,48,0,6,,,5,,,83,64
4560,note_off,,,,,0,0,3,,,2,,,55,64
4560,note_off,,,,,240,0,1,,,0,,,77,64
4560,note_off,,,,,0,0,1,,,0,,,83,64
4560,note_on,,,,,0,0,1,,,0,,,76,105
4560,note_on,,,,,0,0,1,,,0,,,84,105
4560,note_on,,,,,84,0,9,,,10,,,48,105
4560,note_on,,,,,48,0,5,,,4,,,48,105
4560,note_on,,,,,84,0,8,,,7,,,67,105
4560,note_on,,,,,84,0,4,,,3,,,76,105
4560,note_on,,,,,0,0,4,,,3,,,72,105
4560,note_off,,,,,240,0,3,,,2,,,62,64
4560,note_on,,,,,84,0,2,,,1,,,48,105
4560,note_on,,,,,12,0,6,,,5,,,84,105
4560,note_on,,,,,84,0,10,,,11,,,36,105
4560,note_on,,,,,84,0,7,,,6,,,72,105
4560,note_on,,,,,0,0,7,,,6,,,76,105
4560,note_on,,,,,0,0,3,,,2,,,64,105
4560,note_on,,,,,84,0,11,,,12,,,36,105
4560,note_on,,,,,0,0,3,,,2,,,60,105
4716,note_off,,,,,156,0,4,,,3,,,72,64
4716,note_off,,,,,156,0,8,,,7,,,67,64
4716,note_off,,,,,156,0,9,,,10,,,48,64
4716,note_off,,,,,156,0,10,,,11,,,36,64
4716,note_off,,,,,0,0,7,,,6,,,72,64
4716,note_off,,,,,156,0,7,,,6,,,76,64
4716,note_off,,,,,0,0,4,,,3,,,76,64
4716,note_off,,,,,156,0,2,,,1,,,48,64
4716,note_off,,,,,156,0,11,,,12,,,36,64
4752,note_off,,,,,192,0,3,,,2,,,64,64
4752,note_off,,,,,192,0,1,,,0,,,84,64
4752,note_off,,,,,0,0,1,,,0,,,76,64
4752,note_off,,,,,192,0,6,,,5,,,84,64
4752,note_off,,,,,0,0,3,,,2,,,60,64
4752,note_off,,,,,192,0,5,,,4,,,48,64
4800,note_on,,,,,48,0,6,,,5,,,67,105
4800,note_on,,,,,48,0,1,,,0,,,67,105
4800,note_on,,,,,48,0,3,,,2,,,55,105
4917,note_off,,,,,117,0,1,,,0,,,67,64
4917,note_off,,,,,117,0,3,,,2,,,55,64
4926,note_off,,,,,126,0,6,,,5,,,67,64
4980,note_on,,,,,63,0,3,,,2,,,55,105
4980,note_on,,,,,54,0,6,,,5,,,67,105
4980,note_on,,,,,63,0,1,,,0,,,67,105
5019,note_off,,,,,39,0,1,,,0,,,67,64
5019,note_off,,,,,39,0,3,,,2,,,55,64
5022,note_off,,,,,42,0,6,,,5,,,67,64
5040,note_on,,,,,18,0,6,,,5,,,67,105
5040,note_on,,,,,0,0,6,,,5,,,55,105
5040,note_on,,,,,21,0,1,,,0,,,67,105
5040,note_on,,,,,21,0,3,,,2,,,55,105
5196,note_off,,,,,156,0,1,,,0,,,67,64
5196,note_off,,,,,156,0,3,,,2,,,55,64
5208,note_off,,,,,168,0,6,,,5,,,55,64
5208,note_off,,,,,0,0,6,,,5,,,67,64
5280,note_on,,,,,72,0,6,,,5,,,67,105
5280,note_on,,,,,0,0,6,,,5,,,55,105
5280,note_on,,,,,84,0,1,,,0,,,67,105
5280,note_on,,,,,84,0,3,,,2,,,55,105
5436,note_off,,,,,156,0,3,,,2,,,55,64
5436,note_off,,,,,156,0,1,,,0,,,67,64
5448,note_off,,,,,0,0,6,,,5,,,67,64
5448,note_off,,,,,168,0,6,,,5,,,55,64
5520,note_on,,,,,72,0,6,,,5,,,67,105
5520,note_on,,,,,84,0,1,,,0,,,67,105
5520,note_on,,,,,84,0,3,,,2,,,55,105
5520,note_on,,,,,0,0,6,,,5,,,55,105
5676,note_off,,,,,156,0,1,,,0,,,67,64
5676,note_off,,,,,156,0,3,,,2,,,55,64
5688,note_off,,,,,0,0,6,,,5,,,67,64
5688,note_off,,,,,168,0,6,,,5,,,55,64
5760,note_on,,,,,0,0,4,,,3,,,74,105
5760,note_on,,,,,1044,0,4,,,3,,,67,105
5760,note_on,,,,,72,0,6,,,5,,,84,105
5760,note_on,,,,,1044,0,8,,,7,,,67,105
5760,note_on,,,,,1044,0,9,,,10,,,55,105
5760,note_on,,,,,1008,0,5,,,4,,,43,105
5760,note_on,,,,,0,0,1,,,0,,,77,105
5760,note_on,,,,,0,0,3,,,2,,,62,105
5760,note_on,,,,,1044,0,7,,,6,,,77,105
5760,note_on,,,,,0,0,7,,,6,,,74,105
5760,note_on,,,,,84,0,1,,,0,,,83,105
5760,note_on,,,,,1044,0,11,,,12,,,43,105
5760,note_on,,,,,84,0,3,,,2,,,55,105
5760,note_on,,,,,1044,0,10,,,11,,,43,105
5760,note_on,,,,,1044,0,2,,,1,,,55,105
5790,note_on,,,,,0,0,6,,,5,,,83,105
5790,note_off,,,,,30,0,6,,,5,,,84,64
5820,note_on,,,,,0,0,6,,,5,,,84,105
5820,note_off,,,,,30,0,6,,,5,,,83,64
5850,note_on,,,,,0,0,6,,,5,,,83,105
5850,note_off,,,,,30,0,6,,,5,,,84,64
5880,note_on,,,,,0,0,6,,,5,,,81,105
5880,note_off,,,,,30,0,6,,,5,,,83,64
5916,note_off,,,,,156,0,11,,,12,,,43,64
5916,note_off,,,,,0,0,4,,,3,,,67,64
5916,note_off,,,,,156,0,4,,,3,,,74,64
5916,note_off,,,,,156,0,2,,,1,,,55,64
5916,note_off,,,,,156,0,7,,,6,,,74,64
5916,note_off,,,,,0,0,7,,,6,,,77,64
5916,note_off,,,,,156,0,8,,,7,,,67,64
5916,note_off,,,,,156,0,10,,,11,,,43,64
5916,note_off,,,,,156,0,9,,,10,,,55,64
5940,note_off,,,,,60,0,6,,,5,,,81,64
5940,note_on,,,,,0,0,6,,,5,,,83,105
5952,note_off,,,,,192,0,5,,,4,,,43,64
5988,note_off,,,,,48,0,6,,,5,,,83,64
6000,note_on,,,,,84,0,9,,,10,,,48,105
6000,note_on,,,,,84,0,8,,,7,,,67,105
6000,note_off,,,,,0,0,1,,,0,,,83,64
6000,note_on,,,,,0,0,1,,,0,,,84,105
6000,note_on,,,,,12,0,6,,,5,,,84,105
6000,note_off,,,,,240,0,1,,,0,,,77,64
6000,note_on,,,,,0,0,1,,,0,,,76,105
6000,note_on,,,,,0,0,7,,,6,,,72,105
6000,note_on,,,,,84,0,11,,,12,,,36,105
6000,note_on,,,,,84,0,7,,,6,,,76,105
6000,note_on,,,,,84,0,10,,,11,,,36,105
6000,note_on,,,,,84,0,4,,,3,,,76,105
6000,note_on,,,,,0,0,4,,,3,,,72,105
6000,note_off,,,,,0,0,3,,,2,,,55,64
6000,note_off,,,,,240,0,3,,,2,,,62,64
6000,note_on,,,,,84,0,2,,,1,,,48,105
6000,note_on,,,,,48,0,5,,,4,,,48,105
6000,note_on,,,,,0,0,3,,,2,,,60,105
6000,note_on,,,,,0,0,3,,,2,,,64,105
6156,note_off,,,,,156,0,9,,,10,,,48,64
6156,note_off,,,,,156,0,8,,,7,,,67,64
6156,note_off,,,,,156,0,11,,,12,,,36,64
6156,note_off,,,,,156,0,6,,,5,,,84,64
6156,note_off,,,,,156,0,2,,,1,,,48,64
6156,note_off,,,,,0,0,4,,,3,,,76,64
6156,note_off,,,,,156,0,4,,,3,,,72,64
6156,note_off,,,,,156,0,10,,,11,,,36,64
6156,note_off,,,,,0,0,7,,,6,,,76,64
6156,note_off,,,,,156,0,7,,,6,,,72,64
6192,note_off,,,,,192,0,3,,,2,,,64,64
6192,note_off,,,,,0,0,1,,,0,,,76,64
6192,note_off,,,,,192,0,1,,,0,,,84,64
6192,note_off,,,,,0,0,3,,,2,,,60,64
6192,note_off,,,,,192,0,5,,,4,,,48,64
6240,note_on,,,,,84,0,7,,,6,,,72,105
6240,note_on,,,,,84,0,10,,,11,,,45,105
6240,note_on,,,,,48,0,3,,,2,,,64,105
6240,note_on,,,,,48,0,1,,,0,,,76,105
6240,note_on,,,,,0,0,1,,,0,,,72,105
6240,note_on,,,,,84,0,8,,,7,,,69,105
6240,note_on,,,,,0,0,3,,,2,,,60,105
6240,note_on,,,,,84,0,2,,,1,,,57,105
6240,note_on,,,,,84,0,6,,,5,,,76,105
6240,note_on,,,,,84,0,11,,,12,,,45,105
6240,note_on,,,,,84,0,9,,,10,,,57,105
6396,note_off,,,,,156,0,6,,,5,,,76,64
6396,note_off,,,,,156,0,7,,,6,,,72,64
6396,note_off,,,,,156,0,2,,,1,,,57,64
6396,note_off,,,,,156,0,11,,,12,,,45,64
6396,note_off,,,,,156,0,1,,,0,,,72,64
6396,note_off,,,,,156,0,3,,,2,,,60,64
6396,note_off,,,,,0,0,3,,,2,,,64,64
6396,note_off,,,,,0,0,1,,,0,,,76,64
6396,note_off,,,,,156,0,10,,,11,,,45,64
6396,note_off,,,,,156,0,9,,,10,,,57,64
6396,note_off,,,,,156,0,8,,,7,,,69,64
6480,note_on,,,,,84,0,9,,,10,,,53,105
6480,note_on,,,,,84,0,7,,,6,,,69,105
6480,note_on,,,,,84,0,6,,,5,,,74,105
6480,note_on,,,,,84,0,11,,,12,,,41,105
6480,note_on,,,,,84,0,3,,,2,,,62,105
6480,note_on,,,,,0,0,3,,,2,,,65,105
6480,note_on,,,,,0,0,1,,,0,,,81,105
6480,note_on,,,,,84,0,8,,,7,,,65,105
6480,note_on,,,,,84,0,2,,,1,,,53,105
6480,note_on,,,,,84,0,1,,,0,,,72,105
6480,note_on,,,,,84,0,10,,,11,,,41,105
6600,note_off,,,,,120,0,6,,,5,,,74,64
6600,note_on,,,,,0,0,6,,,5,,,77,105
6636,note_off,,,,,156,0,10,,,11,,,41,64
6636,note_off,,,,,156,0,9,,,10,,,53,64
6636,note_off,,,,,156,0,2,,,1,,,53,64
6636,note_off,,,,,156,0,8,,,7,,,65,64
6636,note_off,,,,,156,0,11,,,12,,,41,64
6672,note_off,,,,,192,0,7,,,6,,,69,64
6720,note_on,,,,,84,0,9,,,10,,,50,105
6720,note_on,,,,,84,0,2,,,1,,,50,105
6720,note_on,,,,,84,0,8,,,7,,,62,105
6720,note_on,,,,,0,0,6,,,5,,,81,105
6720,note_off,,,,,120,0,6,,,5,,,77,64
6720,note_on,,,,,84,0,11,,,12,,,38,105
6720,note_on,,,,,84,0,10,,,11,,,38,105
6720,note_on,,,,,48,0,7,,,6,,,65,105
6840,note_on,,,,,0,0,6,,,5,,,77,105
6840,note_on,,,,,0,0,7,,,6,,,69,105
6840,note_off,,,,,120,0,7,,,6,,,65,64
6840,note_off,,,,,120,0,6,,,5,,,81,64
6864,note_off,,,,,384,0,3,,,2,,,65,64
6864,note_off,,,,,0,0,3,,,2,,,62,64
6864,note_off,,,,,0,0,1,,,0,,,72,64
6864,note_off,,,,,384,0,1,,,0,,,81,64
6876,note_off,,,,,156,0,2,,,1,,,50,64
6876,note_off,,,,,156,0,8,,,7,,,62,64
6876,note_off,,,,,156,0,9,,,10,,,50,64
6876,note_off,,,,,156,0,11,,,12,,,38,64
6876,note_off,,,,,156,0,10,,,11,,,38,64
6960,note_on,,,,,84,0,2,,,1,,,55,105
6960,note_on,,,,,0,0,1,,,0,,,71,105
6960,note_off,,,,,120,0,6,,,5,,,77,64
6960,note_on,,,,,96,0,1,,,0,,,77,105
6960,note_on,,,,,84,0,11,,,12,,,43,105
6960,note_on,,,,,84,0,8,,,7,,,67,105
6960,note_on,,,,,84,0,9,,,10,,,55,105
6960,note_off,,,,,120,0,7,,,6,,,69,64
6960,note_on,,,,,84,0,10,,,11,,,43,105
6960,note_on,,,,,804,0,4,,,3,,,74,105
6960,note_on,,,,,0,0,7,,,6,,,65,105
6960,note_on,,,,,96,0,3,,,2,,,62,105
6960,note_on,,,,,0,0,6,,,5,,,74,105
6960,note_on,,,,,0,0,3,,,2,,,55,105
6960,note_on,,,,,768,0,5,,,4,,,43,105
6960,note_on,,,,,0,0,4,,,3,,,67,105
7080,note_on,,,,,0,0,7,,,6,,,62,105
7080,note_off,,,,,120,0,6,,,5,,,74,64
7080,note_off,,,,,120,0,1,,,0,,,77,64
7080,note_on,,,,,0,0,1,,,0,,,74,105
7080,note_on,,,,,0,0,6,,,5,,,71,105
7080,note_off,,,,,120,0,7,,,6,,,65,64
7116,note_off,,,,,156,0,4,,,3,,,67,64
7116,note_off,,,,,156,0,8,,,7,,,67,64
7116,note_off,,,,,156,0,2,,,1,,,55,64
7116,note_off,,,,,156,0,11,,,12,,,43,64
7116,note_off,,,,,156,0,10,,,11,,,43,64
7116,note_off,,,,,0,0,4,,,3,,,74,64
7116,note_off,,,,,156,0,9,,,10,,,55,64
7152,note_off,,,,,192,0,3,,,2,,,55,64
7152,note_off,,,,,0,0,3,,,2,,,62,64
7152,note_off,,,,,192,0,5,,,4,,,43,64
7176,note_off,,,,,96,0,6,,,5,,,71,64
7176,note_off,,,,,96,0,1,,,0,,,71,64
7176,note_off,,,,,0,0,1,,,0,,,74,64
7176,note_off,,,,,96,0,7,,,6,,,62,64
7200,note_on,,,,,84,0,10,,,11,,,36,105
7200,note_on,,,,,0,0,3,,,2,,,52,105
7200,set_tempo,,,,,6480,1,0,468750,,,,,,
7200,note_on,,,,,24,0,7,,,6,,,64,105
7200,note_on,,,,,84,0,11,,,12,,,36,105
7200,note_on,,,,,24,0,1,,,0,,,72,105
7200,note_on,,,,,24,0,6,,,5,,,72,105
7200,note_on,,,,,48,0,3,,,2,,,60,105
7200,note_on,,,,,48,0,5,,,4,,,48,105
7200,note_on,,,,,84,0,9,,,10,,,48,105
7200,note_on,,,,,84,0,8,,,7,,,67,105
7200,note_on,,,,,0,0,4,,,3,,,64,105
7200,note_on,,,,,84,0,4,,,3,,,72,105
7200,note_on,,,,,84,0,2,,,1,,,48,105
7356,note_off,,,,,156,0,2,,,1,,,48,64
7356,note_off,,,,,156,0,9,,,10,,,48,64
7356,note_off,,,,,156,0,11,,,12,,,36,64
7356,note_off,,,,,0,0,4,,,3,,,72,64
7356,note_off,,,,,156,0,4,,,3,,,64,64
7356,note_off,,,,,156,0,10,,,11,,,36,64
7356,note_off,,,,,156,0,8,,,7,,,67,64
7392,note_off,,,,,0,0,3,,,2,,,60,64
7392,note_off,,,,,192,0,3,,,2,,,52,64
7392,note_off,,,,,192,0,1,,,0,,,72,64
7392,note_off,,,,,192,0,7,,,6,,,64,64
7392,note_off,,,,,192,0,6,,,5,,,72,64
7392,note_off,,,,,192,0,5,,,4,,,48,64
7440,note_on,,,,,84,0,2,,,1,,,60,105
7440,note_on,,,,,84,0,10,,,11,,,48,105
7440,note_on,,,,,84,0,9,,,10,,,60,105
7440,note_on,,,,,84,0,11,,,12,,,48,105
7596,note_off,,,,,156,0,9,,,10,,,60,64
7596,note_off,,,,,156,0,11,,,12,,,48,64
7596,note_off,,,,,156,0,2,,,1,,,60,64
7596,note_off,,,,,156,0,10,,,11,,,48,64
7680,note_on,,,,,288,0,7,,,6,,,67,105
7680,note_on,,,,,288,0,6,,,5,,,79,105
7680,note_on,,,,,288,0,1,,,0,,,79,105
7824,note_off,,,,,144,0,7,,,6,,,67,64
7824,note_off,,,,,144,0,6,,,5,,,79,64
7824,note_off,,,,,144,0,1,,,0,,,79,64
7920,note_on,,,,,96,0,6,,,5,,,79,105
7920,note_on,,,,,0,0,4,,,3,,,60,105
7920,note_on,,,,,564,0,4,,,3,,,72,105
7920,set_tempo,,,,,720,1,0,454545,,,,,,
7920,note_on,,,,,528,0,5,,,4,,,48,105
7920,note_on,,,,,0,0,3,,,2,,,67,105
7920,note_on,,,,,528,0,3,,,2,,,64,105
7920,note_on,,,,,96,0,7,,,6,,,67,105
7920,note_on,,,,,96,0,1,,,0,,,79,105
8112,note_off,,,,,192,0,4,,,3,,,60,64
8112,note_off,,,,,192,0,5,,,4,,,48,64
8112,note_off,,,,,0,0,4,,,3,,,72,64
8160,note_on,,,,,564,0,9,,,10,,,64,105
8160,note_on,,,,,564,0,2,,,1,,,64,105
8160,note_on,,,,,564,0,10,,,11,,,52,105
8160,note_off,,,,,240,0,3,,,2,,,67,64
8160,note_off,,,,,0,0,3,,,2,,,64,64
8160,note_on,,,,,0,0,3,,,2,,,60,105
8160,note_on,,,,,0,0,3,,,2,,,64,105
8160,note_on,,,,,564,0,11,,,12,,,52,105
8160,note_on,,,,,804,0,8,,,7,,,64,105
8352,note_off,,,,,192,0,3,,,2,,,64,64
8352,note_off,,,,,0,0,3,,,2,,,60,64
8400,note_on,,,,,0,0,7,,,6,,,64,105
8400,note_off,,,,,480,0,7,,,6,,,67,64
8400,note_on,,,,,0,0,6,,,5,,,76,105
8400,note_off,,,,,240,0,8,,,7,,,64,64
8400,note_on,,,,,0,0,8,,,7,,,60,105
8400,note_on,,,,,0,0,1,,,0,,,76,105
8400,note_on,,,,,0,0,2,,,1,,,60,105
8400,note_on,,,,,0,0,11,,,12,,,48,105
8400,note_off,,,,,480,0,1,,,0,,,79,64
8400,note_off,,,,,480,0,6,,,5,,,79,64
8400,note_off,,,,,240,0,11,,,12,,,52,64
8400,note_off,,,,,240,0,2,,,1,,,64,64
8400,note_off,,,,,240,0,9,,,10,,,64,64
8400,note_off,,,,,240,0,10,,,11,,,52,64
8400,note_on,,,,,0,0,9,,,10,,,60,105
8400,note_on,,,,,0,0,10,,,11,,,48,105
8496,note_off,,,,,96,0,7,,,6,,,64,64
8496,note_off,,,,,96,0,9,,,10,,,60,64
8496,note_off,,,,,96,0,10,,,11,,,48,64
8496,note_off,,,,,96,0,8,,,7,,,60,64
8496,note_off,,,,,96,0,2,,,1,,,60,64
8496,note_off,,,,,96,0,6,,,5,,,76,64
8496,note_off,,,,,96,0,11,,,12,,,48,64
8496,note_off,,,,,96,0,1,,,0,,,76,64
8640,note_on,,,,,0,0,4,,,3,,,60,105
8640,note_on,,,,,144,0,7,,,6,,,64,105
8640,note_on,,,,,528,0,4,,,3,,,72,105
8640,note_on,,,,,144,0,1,,,0,,,76,105
8640,note_on,,,,,528,0,5,,,4,,,48,105
8640,note_on,,,,,144,0,6,,,5,,,76,105
8832,note_off,,,,,192,0,4,,,3,,,60,64
8832,note_off,,,,,0,0,4,,,3,,,72,64
8832,note_off,,,,,192,0,5,,,4,,,48,64
8880,note_on,,,,,384,0,8,,,7,,,60,105
8880,note_on,,,,,384,0,2,,,1,,,60,105
8880,note_on,,,,,384,0,9,,,10,,,60,105
8880,note_on,,,,,0,0,3,,,2,,,60,105
8880,note_on,,,,,384,0,10,,,11,,,48,105
8880,note_on,,,,,528,0,3,,,2,,,64,105
8880,note_on,,,,,384,0,11,,,12,,,48,105
9120,note_off,,,,,480,0,6,,,5,,,76,64
9120,note_off,,,,,480,0,1,,,0,,,76,64
9120,note_on,,,,,0,0,6,,,5,,,72,105
9120,note_on,,,,,0,0,1,,,0,,,72,105
9120,note_on,,,,,0,0,3,,,2,,,48,105
9120,note_off,,,,,240,0,8,,,7,,,60,64
9120,note_on,,,,,0,0,7,,,6,,,60,105
9120,note_on,,,,,0,0,11,,,12,,,45,105
9120,note_off,,,,,240,0,3,,,2,,,60,64
9120,note_off,,,,,0,0,3,,,2,,,64,64
9120,note_on,,,,,0,0,3,,,2,,,60,105
9120,note_on,,,,,0,0,9,,,10,,,57,105
9120,note_off,,,,,240,0,9,,,10,,,60,64
9120,note_off,,,,,480,0,7,,,6,,,64,64
9120,note_on,,,,,0,0,8,,,7,,,57,105
9120,note_off,,,,,240,0,11,,,12,,,48,64
9120,note_off,,,,,240,0,2,,,1,,,60,64
9120,note_off,,,,,240,0,10,,,11,,,48,64
9120,note_on,,,,,0,0,10,,,11,,,45,105
9120,note_on,,,,,0,0,2,,,1,,,57,105
9216,note_off,,,,,96,0,2,,,1,,,57,64
9216,note_off,,,,,96,0,6,,,5,,,72,64
9216,note_off,,,,,96,0,8,,,7,,,57,64
9216,note_off,,,,,96,0,10,,,11,,,45,64
9216,note_off,,,,,96,0,9,,,10,,,57,64
9216,note_off,,,,,96,0,7,,,6,,,60,64
9216,note_off,,,,,96,0,1,,,0,,,72,64
9216,note_off,,,,,96,0,11,,,12,,,45,64
9312,note_off,,,,,0,0,3,,,2,,,60,64
9312,note_off,,,,,192,0,3,,,2,,,48,64
9360,note_on,,,,,144,0,1,,,0,,,72,105
9360,note_on,,,,,144,0,7,,,6,,,60,105
9360,note_on,,,,,144,0,6,,,5,,,72,105
9600,note_on,,,,,384,0,9,,,10,,,57,105
9600,note_on,,,,,0,0,6,,,5,,,77,105
9600,note_off,,,,,240,0,6,,,5,,,72,64
9600,note_on,,,,,384,0,8,,,7,,,60,105
9600,note_on,,,,,384,0,11,,,12,,,45,105
9600,note_off,,,,,240,0,1,,,0,,,72,64
9600,note_off,,,,,240,0,7,,,6,,,60,64
9600,note_on,,,,,0,0,1,,,0,,,77,105
9600,note_on,,,,,0,0,7,,,6,,,65,105
9600,note_on,,,,,384,0,10,,,11,,,45,105
9600,note_on,,,,,384,0,2,,,1,,,57,105
9600,note_on,,,,,0,0,3,,,2,,,48,105
9600,note_on,,,,,288,0,3,,,2,,,60,105
9744,note_off,,,,,144,0,8,,,7,,,60,64
9792,note_off,,,,,0,0,3,,,2,,,60,64
9792,note_off,,,,,192,0,3,,,2,,,48,64
9840,note_off,,,,,240,0,9,,,10,,,57,64
9840,note_off,,,,,240,0,6,,,5,,,77,64
9840,note_on,,,,,0,0,9,,,10,,,53,105
9840,note_on,,,,,48,0,3,,,2,,,60,105
9840,note_on,,,,,0,0,3,,,2,,,48,105
9840,note_off,,,,,240,0,2,,,1,,,57,64
9840,note_on,,,,,0,0,11,,,12,,,41,105
9840,note_off,,,,,240,0,11,,,12,,,45,64
9840,note_off,,,,,240,0,7,,,6,,,65,64
9840,note_off,,,,,240,0,10,,,11,,,45,64
9840,note_on,,,,,0,0,10,,,11,,,41,105
9840,note_on,,,,,0,0,7,,,6,,,69,105
9840,note_on,,,,,0,0,6,,,5,,,81,105
9840,note_on,,,,,0,0,2,,,1,,,53,105
9840,note_off,,,,,240,0,1,,,0,,,77,64
9840,note_on,,,,,0,0,1,,,0,,,81,105
9840,note_on,,,,,96,0,8,,,7,,,60,105
9984,note_off,,,,,144,0,8,,,7,,,60,64
10032,note_off,,,,,192,0,2,,,1,,,53,64
10032,note_off,,,,,192,0,10,,,11,,,41,64
10032,note_off,,,,,0,0,3,,,2,,,60,64
10032,note_off,,,,,192,0,3,,,2,,,48,64
10032,note_off,,,,,192,0,9,,,10,,,53,64
10032,note_off,,,,,192,0,11,,,12,,,41,64
10032,note_off,,,,,192,0,1,,,0,,,81,64
10032,note_off,,,,,192,0,7,,,6,,,69,64
10032,note_off,,,,,192,0,6,,,5,,,81,64
10080,note_on,,,,,0,0,3,,,2,,,64,105
10080,note_on,,,,,1248,0,4,,,3,,,67,105
10080,note_on,,,,,48,0,3,,,2,,,60,105
10080,note_on,,,,,48,0,6,,,5,,,72,105
10080,note_on,,,,,1248,0,5,,,4,,,43,105
10080,note_on,,,,,48,0,10,,,11,,,43,105
10080,note_on,,,,,48,0,9,,,10,,,55,105
10080,note_on,,,,,48,0,7,,,6,,,64,105
10080,note_on,,,,,96,0,8,,,7,,,67,105
10080,note_on,,,,,48,0,2,,,1,,,55,105
10080,note_on,,,,,48,0,11,,,12,,,43,105
10080,note_on,,,,,48,0,1,,,0,,,72,105
10236,note_off,,,,,156,0,10,,,11,,,43,64
10236,note_off,,,,,156,0,9,,,10,,,55,64
10236,note_off,,,,,156,0,2,,,1,,,55,64
10236,note_off,,,,,156,0,11,,,12,,,43,64
10272,note_off,,,,,0,0,3,,,2,,,60,64
10272,note_off,,,,,192,0,5,,,4,,,43,64
10272,note_off,,,,,192,0,3,,,2,,,64,64
10320,note_off,,,,,240,0,1,,,0,,,72,64
10320,note_on,,,,,84,0,10,,,11,,,31,105
10320,note_on,,,,,0,0,6,,,5,,,71,105
10320,note_off,,,,,240,0,6,,,5,,,72,64
10320,note_on,,,,,0,0,1,,,0,,,71,105
10320,note_on,,,,,84,0,9,,,10,,,43,105
10320,note_on,,,,,84,0,2,,,1,,,43,105
10320,note_on,,,,,0,0,3,,,2,,,62,105
10320,note_on,,,,,48,0,3,,,2,,,55,105
10320,note_on,,,,,0,0,7,,,6,,,62,105
10320,note_off,,,,,240,0,7,,,6,,,64,64
10320,note_on,,,,,84,0,11,,,12,,,31,105
10464,note_off,,,,,144,0,7,,,6,,,62,64
10464,note_off,,,,,384,0,8,,,7,,,67,64
10464,note_off,,,,,144,0,1,,,0,,,71,64
10464,note_off,,,,,384,0,4,,,3,,,67,64
10464,note_off,,,,,144,0,6,,,5,,,71,64
10476,note_off,,,,,156,0,2,,,1,,,43,64
10476,note_off,,,,,156,0,11,,,12,,,31,64
10476,note_off,,,,,156,0,10,,,11,,,31,64
10476,note_off,,,,,156,0,9,,,10,,,43,64
10512,note_off,,,,,192,0,3,,,2,,,62,64
10512,note_off,,,,,0,0,3,,,2,,,55,64
10560,note_on,,,,,96,0,6,,,5,,,55,105
10560,note_on,,,,,48,0,3,,,2,,,55,105
10560,note_on,,,,,96,0,1,,,0,,,67,105
10560,note_on,,,,,0,0,6,,,5,,,67,105
10677,note_off,,,,,117,0,1,,,0,,,67,64
10677,note_off,,,,,0,0,6,,,5,,,55,64
10677,note_off,,,,,117,0,3,,,2,,,55,64
10677,note_off,,,,,117,0,6,,,5,,,67,64
10740,note_on,,,,,63,0,1,,,0,,,67,105
10740,note_on,,,,,63,0,6,,,5,,,55,105
10740,note_on,,,,,63,0,3,,,2,,,55,105
10740,note_on,,,,,0,0,6,,,5,,,67,105
10779,note_off,,,,,0,0,6,,,5,,,55,64
10779,note_off,,,,,39,0,6,,,5,,,67,64
10779,note_off,,,,,39,0,3,,,2,,,55,64
10779,note_off,,,,,39,0,1,,,0,,,67,64
10800,note_on,,,,,21,0,3,,,2,,,55,105
10800,note_on,,,,,21,0,1,,,0,,,67,105
10800,note_on,,,,,21,0,6,,,5,,,55,105
10800,note_on,,,,,0,0,6,,,5,,,67,105
10956,note_off,,,,,156,0,3,,,2,,,55,64
10956,note_off,,,,,156,0,1,,,0,,,67,64
10968,note_off,,,,,168,0,6,,,5,,,67,64
10968,note_off,,,,,0,0,6,,,5,,,55,64
11040,note_on,,,,,72,0,6,,,5,,,55,105
11040,note_on,,,,,0,0,6,,,5,,,67,105
11040,note_on,,,,,84,0,3,,,2,,,55,105
11040,note_on,,,,,84,0,1,,,0,,,67,105
11196,note_off,,,,,156,0,3,,,2,,,55,64
11196,note_off,,,,,156,0,1,,,0,,,67,64
11208,note_off,,,,,0,0,6,,,5,,,55,64
11208,note_off,,,,,168,0,6,,,5,,,67,64
11280,note_on,,,,,0,0,6,,,5,,,67,105
11280,note_on,,,,,84,0,3,,,2,,,55,105
11280,note_on,,,,,72,0,6,,,5,,,55,105
11280,note_on,,,,,84,0,1,,,0,,,67,105
11436,note_off,,,,,156,0,3,,,2,,,55,64
11436,note_off,,,,,156,0,1,,,0,,,67,64
11448,note_off,,,,,0,0,6,,,5,,,55,64
11448,note_off,,,,,168,0,6,,,5,,,67,64
11520,note_on,,,,,1056,0,7,,,6,,,77,105
11520,note_on,,,,,1056,0,4,,,3,,,67,105
11520,note_on,,,,,0,0,4,,,3,,,74,105
11520,note_on,,,,,72,0,6,,,5,,,84,105
11520,note_on,,,,,0,0,7,,,6,,,74,105
11520,note_on,,,,,1044,0,10,,,11,,,43,105
11520,note_on,,,,,1044,0,2,,,1,,,55,105
11520,note_on,,,,,1056,0,8,,,7,,,67,105
11520,note_on,,,,,84,0,1,,,0,,,83,105
11520,note_on,,,,,0,0,3,,,2,,,62,105
11520,note_on,,,,,1044,0,9,,,10,,,55,105
11520,note_on,,,,,0,0,1,,,0,,,77,105
11520,note_on,,,,,1044,0,11,,,12,,,43,105
11520,note_on,,,,,1248,0,5,,,4,,,43,105
11520,note_on,,,,,84,0,3,,,2,,,55,105
11550,note_on,,,,,0,0,6,,,5,,,83,105
11550,note_off,,,,,30,0,6,,,5,,,84,64
11580,note_on,,,,,0,0,6,,,5,,,84,105
11580,note_off,,,,,30,0,6,,,5,,,83,64
11610,note_off,,,,,30,0,6,,,5,,,84,64
11610,note_on,,,,,0,0,6,,,5,,,83,105
11640,note_on,,,,,0,0,6,,,5,,,81,105
11640,note_off,,,,,30,0,6,,,5,,,83,64
11676,note_off,,,,,156,0,2,,,1,,,55,64
11676,note_off,,,,,156,0,4,,,3,,,74,64
11676,note_off,,,,,156,0,9,,,10,,,55,64
11676,note_off,,,,,0,0,4,,,3,,,67,64
11676,note_off,,,,,156,0,8,,,7,,,67,64
11676,note_off,,,,,156,0,7,,,6,,,74,64
11676,note_off,,,,,0,0,7,,,6,,,77,64
11676,note_off,,,,,156,0,10,,,11,,,43,64
11676,note_off,,,,,156,0,11,,,12,,,43,64
11700,note_off,,,,,60,0,6,,,5,,,81,64
11700,note_on,,,,,0,0,6,,,5,,,83,105
11712,note_off,,,,,192,0,5,,,4,,,43,64
11748,note_off,,,,,48,0,6,,,5,,,83,64
11760,note_on,,,,,0,0,3,,,2,,,60,105
11760,note_off,,,,,0,0,3,,,2,,,55,64
11760,note_off,,,,,240,0,3,,,2,,,62,64
11760,note_on,,,,,0,0,3,,,2,,,64,105
11760,note_on,,,,,12,0,6,,,5,,,84,105
11760,note_on,,,,,48,0,5,,,4,,,48,105
11760,note_on,,,,,84,0,2,,,1,,,48,105
11760,note_on,,,,,84,0,11,,,12,,,36,105
11760,note_on,,,,,84,0,4,,,3,,,76,105
11760,note_on,,,,,84,0,9,,,10,,,48,105
11760,note_on,,,,,84,0,7,,,6,,,72,105
11760,note_on,,,,,84,0,8,,,7,,,67,105
11760,note_on,,,,,0,0,7,,,6,,,76,105
11760,note_on,,,,,0,0,4,,,3,,,72,105
11760,note_on,,,,,0,0,1,,,0,,,84,105
11760,note_off,,,,,240,0,1,,,0,,,77,64
11760,note_on,,,,,0,0,1,,,0,,,76,105
11760,note_off,,,,,0,0,1,,,0,,,83,64
11760,note_on,,,,,84,0,10,,,11,,,36,105
11916,note_off,,,,,156,0,7,,,6,,,76,64
11916,note_off,,,,,156,0,9,,,10,,,48,64
11916,note_off,,,,,156,0,4,,,3,,,72,64
11916,note_off,,,,,156,0,8,,,7,,,67,64
11916,note_off,,,,,156,0,10,,,11,,,36,64
11916,note_off,,,,,156,0,11,,,12,,,36,64
11916,note_off,,,,,0,0,7,,,6,,,72,64
11916,note_off,,,,,156,0,2,,,1,,,48,64
11916,note_off,,,,,0,0,4,,,3,,,76,64
11952,note_off,,,,,192,0,5,,,4,,,48,64
11952,note_off,,,,,192,0,3,,,2,,,64,64
11952,note_off,,,,,0,0,3,,,2,,,60,64
11952,note_off,,,,,192,0,1,,,0,,,84,64
11952,note_off,,,,,0,0,1,,,0,,,76,64
11952,note_off,,,,,192,0,6,,,5,,,84,64
12000,note_on,,,,,48,0,1,,,0,,,67,105
12000,note_on,,,,,48,0,6,,,5,,,67,105
12000,note_on,,,,,48,0,3,,,2,,,55,105
12117,note_off,,,,,117,0,3,,,2,,,55,64
12117,note_off,,,,,117,0,1,,,0,,,67,64
12126,note_off,,,,,126,0,6,,,5,,,67,64
12180,note_on,,,,,63,0,3,,,2,,,55,105
12180,note_on,,,,,54,0,6,,,5,,,67,105
12180,note_on,,,,,63,0,1,,,0,,,67,105
12219,note_off,,,,,39,0,3,,,2,,,55,64
12219,note_off,,,,,39,0,1,,,0,,,67,64
12222,note_off,,,,,42,0,6,,,5,,,67,64
12240,note_on,,,,,21,0,3,,,2,,,55,105
12240,note_on,,,,,0,0,6,,,5,,,55,105
12240,note_on,,,,,18,0,6,,,5,,,67,105
12240,note_on,,,,,21,0,1,,,0,,,67,105
12396,note_off,,,,,156,0,1,,,0,,,67,64
12396,note_off,,,,,156,0,3,,,2,,,55,64
12408,note_off,,,,,168,0,6,,,5,,,55,64
12408,note_off,,,,,0,0,6,,,5,,,67,64
12480,note_on,,,,,72,0,6,,,5,,,67,105
12480,note_on,,,,,0,0,6,,,5,,,55,105
12480,note_on,,,,,84,0,3,,,2,,,55,105
12480,note_on,,,,,84,0,1,,,0,,,67,105
12636,note_off,,,,,156,0,3,,,2,,,55,64
12636,note_off,,,,,156,0,1,,,0,,,67,64
12648,note_off,,,,,168,0,6,,,5,,,55,64
12648,note_off,,,,,0,0,6,,,5,,,67,64
12720,note_on,,,,,84,0,1,,,0,,,67,105
12720,note_on,,,,,84,0,3,,,2,,,55,105
12720,note_on,,,,,72,0,6,,,5,,,67,105
12720,note_on,,,,,0,0,6,,,5,,,55,105
12876,note_off,,,,,156,0,3,,,2,,,55,64
12876,note_off,,,,,156,0,1,,,0,,,67,64
12888,note_off,,,,,0,0,6,,,5,,,67,64
12888,note_off,,,,,168,0,6,,,5,,,55,64
12960,note_on,,,,,1044,0,11,,,12,,,43,105
12960,note_on,,,,,1044,0,8,,,7,,,67,105
12960,note_on,,,,,0,0,4,,,3,,,74,105
12960,note_on,,,,,1044,0,4,,,3,,,67,105
12960,note_on,,,,,84,0,3,,,2,,,55,105
12960,note_on,,,,,0,0,3,,,2,,,62,105
12960,note_on,,,,,1044,0,9,,,10,,,55,105
12960,note_on,,,,,84,0,1,,,0,,,83,105
12960,note_on,,,,,0,0,1,,,0,,,77,105
12960,note_on,,,,,1044,0,10,,,11,,,43,105
12960,note_on,,,,,0,0,7,,,6,,,74,105
12960,note_on,,,,,1044,0,2,,,1,,,55,105
12960,note_on,,,,,1008,0,5,,,4,,,43,105
12960,note_on,,,,,1044,0,7,,,6,,,77,105
12960,note_on,,,,,72,0,6,,,5,,,84,105
12990,note_off,,,,,30,0,6,,,5,,,84,64
12990,note_on,,,,,0,0,6,,,5,,,83,105
13020,note_off,,,,,30,0,6,,,5,,,83,64
13020,note_on,,,,,0,0,6,,,5,,,84,105
13050,note_on,,,,,0,0,6,,,5,,,83,105
13050,note_off,,,,,30,0,6,,,5,,,84,64
13080,note_off,,,,,30,0,6,,,5,,,83,64
13080,note_on,,,,,0,0,6,,,5,,,81,105
13116,note_off,,,,,156,0,8,,,7,,,67,64
13116,note_off,,,,,156,0,4,,,3,,,74,64
13116,note_off,,,,,156,0,11,,,12,,,43,64
13116,note_off,,,,,156,0,9,,,10,,,55,64
13116,note_off,,,,,156,0,10,,,11,,,43,64
13116,note_off,,,,,156,0,7,,,6,,,74,64
13116,note_off,,,,,0,0,7,,,6,,,77,64
13116,note_off,,,,,156,0,2,,,1,,,55,64
13116,note_off,,,,,0,0,4,,,3,,,67,64
13140,note_on,,,,,0,0,6,,,5,,,83,105
13140,note_off,,,,,60,0,6,,,5,,,81,64
13152,note_off,,,,,192,0,5,,,4,,,43,64
13188,note_off,,,,,48,0,6,,,5,,,83,64
13200,note_on,,,,,84,0,8,,,7,,,67,105
13200,note_on,,,,,48,0,5,,,4,,,48,105
13200,note_off,,,,,0,0,3,,,2,,,55,64
13200,note_on,,,,,0,0,3,,,2,,,64,105
13200,note_on,,,,,0,0,3,,,2,,,60,105
13200,note_on,,,,,84,0,7,,,6,,,76,105
13200,note_off,,,,,240,0,3,,,2,,,62,64
13200,note_on,,,,,0,0,7,,,6,,,72,105
13200,note_on,,,,,0,0,1,,,0,,,84,105
13200,note_on,,,,,0,0,1,,,0,,,76,105
13200,note_off,,,,,0,0,1,,,0,,,83,64
13200,note_off,,,,,240,0,1,,,0,,,77,64
13200,note_on,,,,,0,0,4,,,3,,,72,105
13200,note_on,,,,,84,0,4,,,3,,,76,105
13200,note_on,,,,,84,0,11,,,12,,,36,105
13200,note_on,,,,,84,0,10,,,11,,,36,105
13200,note_on,,,,,84,0,9,,,10,,,48,105
13200,note_on,,,,,12,0,6,,,5,,,84,105
13200,note_on,,,,,84,0,2,,,1,,,48,105
13356,note_off,,,,,0,0,7,,,6,,,76,64
13356,note_off,,,,,156,0,11,,,12,,,36,64
13356,note_off,,,,,156,0,10,,,11,,,36,64
13356,note_off,,,,,156,0,9,,,10,,,48,64
13356,note_off,,,,,156,0,2,,,1,,,48,64
13356,note_off,,,,,156,0,7,,,6,,,72,64
13356,note_off,,,,,0,0,4,,,3,,,76,64
13356,note_off,,,,,156,0,6,,,5,,,84,64
13356,note_off,,,,,156,0,4,,,3,,,72,64
13356,note_off,,,,,156,0,8,,,7,,,67,64
13392,note_off,,,,,0,0,3,,,2,,,60,64
13392,note_off,,,,,192,0,1,,,0,,,84,64
13392,note_off,,,,,192,0,5,,,4,,,48,64
13392,note_off,,,,,0,0,1,,,0,,,76,64
13392,note_off,,,,,192,0,3,,,2,,,64,64
13440,note_on,,,,,84,0,11,,,12,,,45,105
13440,note_on,,,,,84,0,7,,,6,,,72,105
13440,note_on,,,,,84,0,8,,,7,,,69,105
13440,note_on,,,,,84,0,2,,,1,,,57,105
13440,note_on,,,,,0,0,3,,,2,,,60,105
13440,note_on,,,,,0,0,1,,,0,,,72,105
13440,note_on,,,,,48,0,1,,,0,,,76,105
13440,note_on,,,,,84,0,6,,,5,,,76,105
13440,note_on,,,,,84,0,9,,,10,,,57,105
13440,note_on,,,,,48,0,3,,,2,,,64,105
13440,note_on,,,,,84,0,10,,,11,,,45,105
13596,note_off,,,,,156,0,1,,,0,,,72,64
13596,note_off,,,,,0,0,1,,,0,,,76,64
13596,note_off,,,,,156,0,9,,,10,,,57,64
13596,note_off,,,,,156,0,11,,,12,,,45,64
13596,note_off,,,,,156,0,2,,,1,,,57,64
13596,note_off,,,,,156,0,10,,,11,,,45,64
13596,note_off,,,,,156,0,3,,,2,,,60,64
13596,note_off,,,,,156,0,7,,,6,,,72,64
13596,note_off,,,,,156,0,6,,,5,,,76,64
13596,note_off,,,,,156,0,8,,,7,,,69,64
13596,note_off,,,,,0,0,3,,,2,,,64,64
13680,note_on,,,,,84,0,8,,,7,,,65,105
13680,note_on,,,,,0,0,3,,,2,,,65,105
13680,note_on,,,,,84,0,3,,,2,,,62,105
13680,note_on,,,,,84,0,2,,,1,,,53,105
13680,note_on,,,,,84,0,1,,,0,,,72,105
13680,note_on,,,,,0,0,1,,,0,,,81,105
13680,note_on,,,,,84,0,9,,,10,,,53,105
13680,note_on,,,,,84,0,10,,,11,,,41,105
13680,note_on,,,,,84,0,7,,,6,,,69,105
13680,note_on,,,,,84,0,11,,,12,,,41,105
13680,note_on,,,,,84,0,6,,,5,,,74,105
13800,note_on,,,,,0,0,6,,,5,,,77,105
13800,note_off,,,,,120,0,6,,,5,,,74,64
13836,note_off,,,,,156,0,9,,,10,,,53,64
13836,note_off,,,,,156,0,2,,,1,,,53,64
13836,note_off,,,,,156,0,11,,,12,,,41,64
13836,note_off,,,,,156,0,10,,,11,,,41,64
13836,note_off,,,,,156,0,8,,,7,,,65,64
13872,note_off,,,,,192,0,7,,,6,,,69,64
13920,note_on,,,,,84,0,9,,,10,,,50,105
13920,note_on,,,,,0,0,6,,,5,,,81,105
13920,note_on,,,,,84,0,11,,,12,,,38,105
13920,note_on,,,,,84,0,2,,,1,,,50,105
13920,note_on,,,,,84,0,8,,,7,,,62,105
13920,note_off,,,,,120,0,6,,,5,,,77,64
13920,note_on,,,,,84,0,10,,,11,,,38,105
13920,note_on,,,,,48,0,7,,,6,,,65,105
14040,note_on,,,,,0,0,7,,,6,,,69,105
14040,note_off,,,,,120,0,6,,,5,,,81,64
14040,note_off,,,,,120,0,7,,,6,,,65,64
14040,note_on,,,,,0,0,6,,,5,,,77,105
14064,note_off,,,,,384,0,3,,,2,,,65,64
14064,note_off,,,,,0,0,3,,,2,,,62,64
14064,note_off,,,,,0,0,1,,,0,,,72,64
14064,note_off,,,,,384,0,1,,,0,,,81,64
14076,note_off,,,,,156,0,11,,,12,,,38,64
14076,note_off,,,,,156,0,10,,,11,,,38,64
14076,note_off,,,,,156,0,8,,,7,,,62,64
14076,note_off,,,,,156,0,9,,,10,,,50,64
14076,note_off,,,,,156,0,2,,,1,,,50,64
14160,note_off,,,,,120,0,6,,,5,,,77,64
14160,note_on,,,,,0,0,6,,,5,,,74,105
14160,note_on,,,,,84,0,8,,,7,,,67,105
14160,note_on,,,,,804,0,4,,,3,,,74,105
14160,note_on,,,,,96,0,3,,,2,,,62,105
14160,note_on,,,,,84,0,9,,,10,,,55,105
14160,note_on,,,,,84,0,2,,,1,,,55,105
14160,note_on,,,,,84,0,11,,,12,,,43,105
14160,note_on,,,,,96,0,1,,,0,,,77,105
14160,note_on,,,,,768,0,5,,,4,,,43,105
14160,note_on,,,,,0,0,1,,,0,,,71,105
14160,note_on,,,,,0,0,7,,,6,,,65,105
14160,note_off,,,,,120,0,7,,,6,,,69,64
14160,note_on,,,,,0,0,3,,,2,,,55,105
14160,note_on,,,,,0,0,4,,,3,,,67,105
14160,note_on,,,,,84,0,10,,,11,,,43,105
14280,note_off,,,,,120,0,6,,,5,,,74,64
14280,note_on,,,,,0,0,1,,,0,,,74,105
14280,note_off,,,,,120,0,1,,,0,,,77,64
14280,note_off,,,,,120,0,7,,,6,,,65,64
14280,note_on,,,,,0,0,7,,,6,,,62,105
14280,note_on,,,,,0,0,6,,,5,,,71,105
14316,note_off,,,,,156,0,2,,,1,,,55,64
14316,note_off,,,,,156,0,9,,,10,,,55,64
14316,note_off,,,,,156,0,4,,,3,,,67,64
14316,note_off,,,,,0,0,4,,,3,,,74,64
14316,note_off,,,,,156,0,11,,,12,,,43,64
14316,note_off,,,,,156,0,10,,,11,,,43,64
14316,note_off,,,,,156,0,8,,,7,,,67,64
14352,note_off,,,,,192,0,5,,,4,,,43,64
14352,note_off,,,,,192,0,3,,,2,,,55,64
14352,note_off,,,,,0,0,3,,,2,,,62,64
14376,note_off,,,,,96,0,7,,,6,,,62,64
14376,note_off,,,,,96,0,6,,,5,,,71,64
14376,note_off,,,,,96,0,1,,,0,,,71,64
14376,note_off,,,,,0,0,1,,,0,,,74,64
14400,note_on,,,,,84,0,11,,,12,,,36,105
14400,note_on,,,,,24,0,6,,,5,,,72,105
14400,note_on,,,,,48,0,3,,,2,,,60,105
14400,set_tempo,,,,,6480,1,0,468750,,,,,,
14400,note_on,,,,,84,0,9,,,10,,,48,105
14400,note_on,,,,,84,0,10,,,11,,,36,105
14400,note_on,,,,,48,0,5,,,4,,,48,105
14400,note_on,,,,,24,0,1,,,0,,,72,105
14400,note_on,,,,,84,0,2,,,1,,,48,105
14400,note_on,,,,,84,0,8,,,7,,,67,105
14400,note_on,,,,,0,0,4,,,3,,,64,105
14400,note_on,,,,,84,0,4,,,3,,,72,105
14400,note_on,,,,,24,0,7,,,6,,,64,105
14400,note_on,,,,,0,0,3,,,2,,,52,105
14556,note_off,,,,,156,0,9,,,10,,,48,64
14556,note_off,,,,,156,0,8,,,7,,,67,64
14556,note_off,,,,,156,0,10,,,11,,,36,64
14556,note_off,,,,,156,0,11,,,12,,,36,64
14556,note_off,,,,,156,0,4,,,3,,,64,64
14556,note_off,,,,,156,0,2,,,1,,,48,64
14556,note_off,,,,,0,0,4,,,3,,,72,64
14592,note_off,,,,,192,0,1,,,0,,,72,64
14592,note_off,,,,,192,0,5,,,4,,,48,64
14592,note_off,,,,,192,0,7,,,6,,,64,64
14592,note_off,,,,,192,0,6,,,5,,,72,64
14592,note_off,,,,,0,0,3,,,2,,,60,64
14592,note_off,,,,,192,0,3,,,2,,,52,64
14640,note_on,,,,,84,0,2,,,1,,,60,105
14640,note_on,,,,,84,0,11,,,12,,,48,105
14640,note_on,,,,,84,0,10,,,11,,,48,105
14640,note_on,,,,,84,0,9,,,10,,,60,105
14796,note_off,,,,,156,0,9,,,10,,,60,64
14796,note_off,,,,,156,0,11,,,12,,,48,64
14796,note_off,,,,,156,0,2,,,1,,,60,64
14796,note_off,,,,,156,0,10,,,11,,,48,64
14880,note_on,,,,,288,0,6,,,5,,,67,105
14880,note_on,,,,,288,0,7,,,6,,,67,105
14880,note_on,,,,,288,0,1,,,0,,,67,105
15036,note_off,,,,,156,0,1,,,0,,,67,64
15036,note_off,,,,,156,0,7,,,6,,,67,64
15036,note_off,,,,,156,0,6,,,5,,,67,64
15120,note_on,,,,,84,0,1,,,0,,,67,105
15120,set_tempo,,,,,720,1,0,454545,,,,,,
15120,note_on,,,,,528,0,5,,,4,,,43,105
15120,note_on,,,,,84,0,6,,,5,,,67,105
15120,note_on,,,,,84,0,7,,,6,,,67,105
15120,note_on,,,,,564,0,4,,,3,,,67,105
15312,note_off,,,,,192,0,5,,,4,,,43,64
15312,note_off,,,,,192,0,4,,,3,,,67,64
15360,note_on,,,,,564,0,2,,,1,,,64,105
15360,note_on,,,,,804,0,8,,,7,,,64,105
15360,note_on,,,,,564,0,10,,,11,,,52,105
15360,note_on,,,,,0,0,3,,,2,,,60,105
15360,note_on,,,,,768,0,3,,,2,,,64,105
15360,note_on,,,,,564,0,11,,,12,,,52,105
15360,note_on,,,,,564,0,9,,,10,,,64,105
15528,note_off,,,,,168,0,10,,,11,,,52,64
15528,note_off,,,,,168,0,9,,,10,,,64,64
15528,note_off,,,,,168,0,2,,,1,,,64,64
15528,note_off,,,,,0,0,3,,,2,,,64,64
15528,note_off,,,,,168,0,3,,,2,,,60,64
15528,note_off,,,,,168,0,11,,,12,,,52,64
15528,note_off,,,,,168,0,8,,,7,,,64,64
15600,note_on,,,,,72,0,8,,,7,,,60,105
15600,note_on,,,,,72,0,3,,,2,,,64,105
15600,note_on,,,,,0,0,3,,,2,,,60,105
15600,note_on,,,,,72,0,11,,,12,,,48,105
15600,note_off,,,,,480,0,6,,,5,,,67,64
15600,note_on,,,,,72,0,10,,,11,,,48,105
15600,note_on,,,,,0,0,6,,,5,,,76,105
15600,note_off,,,,,480,0,1,,,0,,,67,64
15600,note_on,,,,,0,0,1,,,0,,,76,105
15600,note_on,,,,,72,0,9,,,10,,,60,105
15600,note_off,,,,,480,0,7,,,6,,,67,64
15600,note_on,,,,,0,0,7,,,6,,,76,105
15600,note_on,,,,,72,0,2,,,1,,,60,105
15696,note_off,,,,,96,0,6,,,5,,,76,64
15696,note_off,,,,,96,0,1,,,0,,,76,64
15696,note_off,,,,,96,0,7,,,6,,,76,64
15768,note_off,,,,,0,0,3,,,2,,,64,64
15768,note_off,,,,,168,0,11,,,12,,,48,64
15768,note_off,,,,,168,0,9,,,10,,,60,64
15768,note_off,,,,,168,0,10,,,11,,,48,64
15768,note_off,,,,,168,0,8,,,7,,,60,64
15768,note_off,,,,,168,0,3,,,2,,,60,64
15768,note_off,,,,,168,0,2,,,1,,,60,64
15840,note_on,,,,,144,0,7,,,6,,,74,105
15840,note_on,,,,,528,0,4,,,3,,,67,105
15840,note_on,,,,,144,0,1,,,0,,,74,105
15840,note_on,,,,,144,0,6,,,5,,,74,105
15840,note_on,,,,,528,0,5,,,4,,,43,105
16032,note_off,,,,,192,0,4,,,3,,,67,64
16032,note_off,,,,,192,0,5,,,4,,,43,64
16080,note_on,,,,,312,0,10,,,11,,,47,105
16080,note_on,,,,,312,0,3,,,2,,,55,105
16080,note_on,,,,,312,0,8,,,7,,,59,105
16080,note_on,,,,,0,0,3,,,2,,,62,105
16080,note_on,,,,,312,0,9,,,10,,,59,105
16080,note_on,,,,,312,0,11,,,12,,,47,105
16080,note_on,,,,,312,0,2,,,1,,,59,105
16248,note_off,,,,,168,0,10,,,11,,,47,64
16248,note_off,,,,,168,0,11,,,12,,,47,64
16248,note_off,,,,,168,0,3,,,2,,,62,64
16248,note_off,,,,,0,0,3,,,2,,,55,64
16248,note_off,,,,,168,0,2,,,1,,,59,64
16248,note_off,,,,,168,0,8,,,7,,,59,64
16248,note_off,,,,,168,0,9,,,10,,,59,64
16320,note_on,,,,,72,0,2,,,1,,,55,105
16320,note_on,,,,,72,0,10,,,11,,,43,105
16320,note_off,,,,,480,0,1,,,0,,,74,64
16320,note_on,,,,,0,0,6,,,5,,,79,105
16320,note_off,,,,,480,0,7,,,6,,,74,64
16320,note_on,,,,,0,0,7,,,6,,,79,105
16320,note_on,,,,,72,0,8,,,7,,,55,105
16320,note_on,,,,,0,0,3,,,2,,,55,105
16320,note_on,,,,,72,0,3,,,2,,,62,105
16320,note_off,,,,,480,0,6,,,5,,,74,64
16320,note_on,,,,,72,0,11,,,12,,,43,105
16320,note_on,,,,,0,0,1,,,0,,,79,105
16320,note_on,,,,,72,0,9,,,10,,,55,105
16416,note_off,,,,,96,0,1,,,0,,,79,64
16416,note_off,,,,,96,0,6,,,5,,,79,64
16416,note_off,,,,,96,0,7,,,6,,,79,64
16488,note_off,,,,,168,0,9,,,10,,,55,64
16488,note_off,,,,,168,0,10,,,11,,,43,64
16488,note_off,,,,,168,0,11,,,12,,,43,64
16488,note_off,,,,,168,0,2,,,1,,,55,64
16488,note_off,,,,,168,0,8,,,7,,,55,64
16488,note_off,,,,,0,0,3,,,2,,,62,64
16488,note_off,,,,,168,0,3,,,2,,,55,64
16560,note_on,,,,,144,0,7,,,6,,,74,105
16560,note_on,,,,,144,0,6,,,5,,,74,105
16560,note_on,,,,,528,0,4,,,3,,,74,105
16560,note_on,,,,,144,0,1,,,0,,,74,105
16752,note_off,,,,,192,0,4,,,3,,,74,64
16800,note_on,,,,,312,0,9,,,10,,,54,105
16800,note_on,,,,,312,0,3,,,2,,,62,105
16800,note_on,,,,,312,0,8,,,7,,,66,105
16800,note_on,,,,,312,0,10,,,11,,,42,105
16800,note_on,,,,,312,0,2,,,1,,,54,105
16800,note_on,,,,,312,0,11,,,12,,,42,105
16968,note_off,,,,,168,0,9,,,10,,,54,64
16968,note_off,,,,,168,0,10,,,11,,,42,64
16968,note_off,,,,,168,0,2,,,1,,,54,64
16968,note_off,,,,,168,0,8,,,7,,,66,64
16968,note_off,,,,,168,0,3,,,2,,,62,64
16968,note_off,,,,,168,0,11,,,12,,,42,64
17040,note_on,,,,,72,0,2,,,1,,,50,105
17040,note_on,,,,,0,0,6,,,5,,,81,105
17040,note_off,,,,,480,0,6,,,5,,,74,64
17040,note_on,,,,,72,0,11,,,12,,,38,105
17040,note_on,,,,,72,0,9,,,10,,,50,105
17040,note_off,,,,,480,0,1,,,0,,,74,64
17040,note_on,,,,,0,0,1,,,0,,,81,105
17040,note_on,,,,,72,0,3,,,2,,,62,105
17040,note_off,,,,,480,0,7,,,6,,,74,64
17040,note_on,,,,,0,0,7,,,6,,,81,105
17040,note_on,,,,,72,0,10,,,11,,,38,105
17040,note_on,,,,,72,0,8,,,7,,,62,105
17136,note_off,,,,,96,0,1,,,0,,,81,64
17136,note_off,,,,,96,0,6,,,5,,,81,64
17136,note_off,,,,,96,0,7,,,6,,,81,64
17208,note_off,,,,,168,0,3,,,2,,,62,64
17208,note_off,,,,,168,0,9,,,10,,,50,64
17208,note_off,,,,,168,0,8,,,7,,,62,64
17208,note_off,,,,,168,0,11,,,12,,,38,64
17208,note_off,,,,,168,0,10,,,11,,,38,64
17208,note_off,,,,,168,0,2,,,1,,,50,64
17280,note_on,,,,,144,0,7,,,6,,,74,105
17280,note_on,,,,,528,0,4,,,3,,,74,105
17280,note_on,,,,,144,0,1,,,0,,,74,105
17280,note_on,,,,,144,0,6,,,5,,,74,105
17472,note_off,,,,,192,0,4,,,3,,,74,64
17520,note_on,,,,,312,0,9,,,10,,,55,105
17520,note_on,,,,,0,0,3,,,2,,,62,105
17520,note_on,,,,,312,0,3,,,2,,,55,105
17520,note_on,,,,,312,0,11,,,12,,,43,105
17520,note_on,,,,,312,0,2,,,1,,,55,105
17520,note_on,,,,,312,0,10,,,11,,,43,105
17520,note_on,,,,,312,0,8,,,7,,,67,105
17688,note_off,,,,,168,0,8,,,7,,,67,64
17688,note_off,,,,,168,0,2,,,1,,,55,64
17688,note_off,,,,,168,0,9,,,10,,,55,64
17688,note_off,,,,,168,0,10,,,11,,,43,64
17688,note_off,,,,,168,0,11,,,12,,,43,64
17688,note_off,,,,,168,0,3,,,2,,,62,64
17688,note_off,,,,,0,0,3,,,2,,,55,64
17760,note_on,,,,,0,0,7,,,6,,,83,105
17760,note_off,,,,,480,0,7,,,6,,,74,64
17760,note_off,,,,,480,0,1,,,0,,,74,64
17760,note_on,,,,,72,0,11,,,12,,,38,105
17760,note_on,,,,,0,0,1,,,0,,,83,105
17760,note_on,,,,,72,0,2,,,1,,,50,105
17760,note_on,,,,,0,0,3,,,2,,,55,105
17760,note_on,,,,,72,0,3,,,2,,,62,105
17760,note_on,,,,,72,0,10,,,11,,,38,105
17760,note_on,,,,,0,0,6,,,5,,,83,105
17760,note_off,,,,,480,0,6,,,5,,,74,64
17760,note_on,,,,,72,0,9,,,10,,,50,105
17760,note_on,,,,,72,0,8,,,7,,,62,105
17856,note_off,,,,,96,0,1,,,0,,,83,64
17856,note_off,,,,,96,0,7,,,6,,,83,64
17856,note_off,,,,,96,0,6,,,5,,,83,64
17928,note_off,,,,,0,0,3,,,2,,,62,64
17928,note_off,,,,,168,0,3,,,2,,,55,64
17928,note_off,,,,,168,0,11,,,12,,,38,64
17928,note_off,,,,,168,0,10,,,11,,,38,64
17928,note_off,,,,,168,0,8,,,7,,,62,64
17928,note_off,,,,,168,0,2,,,1,,,50,64
17928,note_off,,,,,168,0,9,,,10,,,50,64
18000,note_on,,,,,144,0,6,,,5,,,74,70
18000,note_on,,,,,144,0,7,,,6,,,62,70
18240,note_on,,,,,312,0,9,,,10,,,57,58
18240,note_on,,,,,312,0,10,,,11,,,45,58
18240,note_on,,,,,312,0,8,,,7,,,66,58
18240,note_on,,,,,312,0,11,,,12,,,45,58
18480,note_on,,,,,0,0,9,,,10,,,50,58
18480,note_off,,,,,480,0,7,,,6,,,62,64
18480,note_off,,,,,480,0,6,,,5,,,74,64
18480,note_on,,,,,0,0,6,,,5,,,84,58
18480,note_off,,,,,240,0,9,,,10,,,57,64
18480,note_off,,,,,240,0,11,,,12,,,45,64
18480,note_on,,,,,0,0,7,,,6,,,72,70
18480,note_off,,,,,240,0,10,,,11,,,45,64
18480,note_on,,,,,0,0,8,,,7,,,69,58
18480,note_off,,,,,240,0,8,,,7,,,66,64
18480,note_on,,,,,0,0,10,,,11,,,38,58
18480,note_on,,,,,0,0,11,,,12,,,38,58
18576,note_off,,,,,96,0,6,,,5,,,84,64
18576,note_off,,,,,96,0,7,,,6,,,72,64
18672,note_off,,,,,192,0,8,,,7,,,69,64
18672,note_off,,,,,192,0,9,,,10,,,50,64
18672,note_off,,,,,192,0,10,,,11,,,38,64
18672,note_off,,,,,192,0,11,,,12,,,38,64
18720,note_on,,,,,144,0,7,,,6,,,62,70
18720,note_on,,,,,144,0,6,,,5,,,74,70
18960,note_on,,,,,288,0,10,,,11,,,47,58
18960,note_on,,,,,288,0,8,,,7,,,67,58
18960,note_on,,,,,288,0,11,,,12,,,47,58
18960,note_on,,,,,288,0,9,,,10,,,59,58
19200,note_off,,,,,480,0,7,,,6,,,62,64
19200,note_on,,,,,0,0,7,,,6,,,74,70
19200,note_off,,,,,240,0,9,,,10,,,59,64
19200,note_on,,,,,0,0,6,,,5,,,86,70
19200,note_on,,,,,0,0,11,,,12,,,43,58
19200,note_off,,,,,240,0,11,,,12,,,47,64
19200,note_off,,,,,240,0,10,,,11,,,47,64
19200,note_on,,,,,0,0,10,,,11,,,43,58
19200,note_on,,,,,0,0,9,,,10,,,55,58
19200,note_off,,,,,480,0,6,,,5,,,74,64
19200,note_off,,,,,240,0,8,,,7,,,67,64
19200,note_on,,,,,0,0,8,,,7,,,71,58
19296,note_off,,,,,96,0,6,,,5,,,86,64
19296,note_off,,,,,96,0,7,,,6,,,74,64
19392,note_off,,,,,192,0,9,,,10,,,55,64
19392,note_off,,,,,192,0,11,,,12,,,43,64
19392,note_off,,,,,192,0,10,,,11,,,43,64
19392,note_off,,,,,192,0,8,,,7,,,71,64
19440,note_on,,,,,144,0,6,,,5,,,75,70
19560,note_off,,,,,120,0,6,,,5,,,75,64
19560,note_on,,,,,0,0,6,,,5,,,76,70
19680,note_on,,,,,288,0,11,,,12,,,36,58
19680,note_on,,,,,288,0,9,,,10,,,48,58
19680,note_off,,,,,120,0,6,,,5,,,76,64
19680,note_on,,,,,0,0,6,,,5,,,72,70
19680,note_on,,,,,384,0,7,,,6,,,64,70
19680,note_on,,,,,288,0,8,,,7,,,57,58
19680,note_on,,,,,288,0,10,,,11,,,36,58
19800,note_off,,,,,120,0,6,,,5,,,72,64
19800,note_on,,,,,0,0,7,,,6,,,60,70
19800,note_off,,,,,120,0,7,,,6,,,64,64
19800,note_on,,,,,0,0,6,,,5,,,69,70
19848,note_off,,,,,168,0,8,,,7,,,57,64
19920,note_on,,,,,0,0,11,,,12,,,38,58
19920,note_on,,,,,0,0,7,,,6,,,57,70
19920,note_on,,,,,0,0,10,,,11,,,38,58
19920,note_off,,,,,240,0,10,,,11,,,36,64
19920,note_on,,,,,72,0,8,,,7,,,62,58
19920,note_off,,,,,120,0,7,,,6,,,60,64
19920,note_off,,,,,120,0,6,,,5,,,69,64
19920,note_on,,,,,0,0,6,,,5,,,66,70
19920,note_off,,,,,240,0,11,,,12,,,36,64
19920,note_off,,,,,240,0,9,,,10,,,48,64
19920,note_on,,,,,0,0,9,,,10,,,50,58
20040,note_on,,,,,0,0,6,,,5,,,69,70
20040,note_off,,,,,120,0,6,,,5,,,66,64
20040,note_on,,,,,0,0,7,,,6,,,60,70
20040,note_off,,,,,120,0,7,,,6,,,57,64
20088,note_off,,,,,168,0,8,,,7,,,62,64
20112,note_off,,,,,192,0,9,,,10,,,50,64
20112,note_off,,,,,192,0,11,,,12,,,38,64
20112,note_off,,,,,192,0,10,,,11,,,38,64
20136,note_off,,,,,96,0,7,,,6,,,60,64
20136,note_off,,,,,96,0,6,,,5,,,69,64
20160,note_on,,,,,48,0,10,,,11,,,31,70
20160,note_on,,,,,48,0,9,,,10,,,43,70
20160,note_on,,,,,24,0,7,,,6,,,59,58
20160,note_on,,,,,24,0,6,,,5,,,67,58
20160,set_tempo,,,,,5040,1,0,468750,,,,,,
20160,note_on,,,,,48,0,11,,,12,,,31,70
20160,note_on,,,,,72,0,8,,,7,,,62,58
20328,note_off,,,,,168,0,9,,,10,,,43,64
20328,note_off,,,,,168,0,11,,,12,,,31,64
20328,note_off,,,,,168,0,10,,,11,,,31,64
20352,note_off,,,,,192,0,8,,,7,,,62,64
20352,note_off,,,,,192,0,6,,,5,,,67,64
20352,note_off,,,,,192,0,7,,,6,,,59,64
20400,note_on,,,,,72,0,11,,,12,,,43,58
20400,note_on,,,,,72,0,9,,,10,,,55,58
20400,note_on,,,,,72,0,10,,,11,,,43,58
20568,note_off,,,,,168,0,11,,,12,,,43,64
20568,note_off,,,,,168,0,9,,,10,,,55,64
20568,note_off,,,,,168,0,10,,,11,,,43,64
20640,note_on,,,,,288,0,6,,,5,,,79,70
20748,note_off,,,,,108,0,6,,,5,,,79,64
20820,note_on,,,,,72,0,6,,,5,,,79,70
20856,note_off,,,,,36,0,6,,,5,,,79,64
20880,set_tempo,,,,,720,1,0,454545,,,,,,
20880,note_on,,,,,24,0,6,,,5,,,79,70
21024,note_off,,,,,144,0,6,,,5,,,79,64
21120,note_on,,,,,96,0,6,,,5,,,79,70
21360,note_off,,,,,240,0,6,,,5,,,79,64
21360,note_on,,,,,0,0,6,,,5,,,82,70
21552,note_off,,,,,192,0,6,,,5,,,82,64
21600,note_on,,,,,1248,0,7,,,6,,,67,70
21600,note_on,,,,,3744,0,1,,,0,,,76,70
21600,note_on,,,,,0,0,1,,,0,,,79,70
21600,note_on,,,,,1032,0,9,,,10,,,57,70
21600,note_on,,,,,1032,0,11,,,12,,,45,70
21600,note_on,,,,,3672,0,2,,,1,,,57,70
21600,note_on,,,,,1248,0,8,,,7,,,64,70
21600,note_on,,,,,1032,0,10,,,11,,,45,70
21600,note_on,,,,,48,0,6,,,5,,,74,70
21630,note_on,,,,,0,0,6,,,5,,,73,70
21630,note_off,,,,,30,0,6,,,5,,,74,64
21660,note_off,,,,,30,0,6,,,5,,,73,64
21660,note_on,,,,,0,0,6,,,5,,,74,70
21690,note_on,,,,,0,0,6,,,5,,,73,70
21690,note_off,,,,,30,0,6,,,5,,,74,64
21720,note_on,,,,,0,0,6,,,5,,,71,70
21720,note_off,,,,,30,0,6,,,5,,,73,64
21780,note_on,,,,,0,0,6,,,5,,,73,70
21780,note_off,,,,,60,0,6,,,5,,,71,64
21840,note_off,,,,,240,0,2,,,1,,,57,64
21840,note_off,,,,,240,0,10,,,11,,,45,64
21840,note_off,,,,,240,0,8,,,7,,,64,64
21840,note_on,,,,,0,0,8,,,7,,,62,70
21840,note_on,,,,,0,0,1,,,0,,,77,70
21840,note_on,,,,,0,0,9,,,10,,,50,70
21840,note_on,,,,,0,0,2,,,1,,,50,70
21840,note_off,,,,,0,0,1,,,0,,,76,64
21840,note_off,,,,,240,0,1,,,0,,,79,64
21840,note_on,,,,,0,0,11,,,12,,,38,70
21840,note_off,,,,,240,0,11,,,12,,,45,64
21840,note_off,,,,,240,0,9,,,10,,,57,64
21840,note_on,,,,,0,0,10,,,11,,,38,70
21840,note_on,,,,,0,0,1,,,0,,,74,70
21840,note_on,,,,,0,0,6,,,5,,,74,70
21840,note_off,,,,,60,0,6,,,5,,,73,64
21840,note_off,,,,,240,0,7,,,6,,,67,64
21840,note_on,,,,,0,0,7,,,6,,,65,70
21984,note_off,,,,,144,0,6,,,5,,,74,64
22032,note_off,,,,,192,0,10,,,11,,,38,64
22032,note_off,,,,,192,0,7,,,6,,,65,64
22032,note_off,,,,,192,0,2,,,1,,,50,64
22032,note_off,,,,,192,0,9,,,10,,,50,64
22032,note_off,,,,,192,0,1,,,0,,,77,64
22032,note_off,,,,,192,0,11,,,12,,,38,64
22032,note_off,,,,,192,0,8,,,7,,,62,64
22032,note_off,,,,,0,0,1,,,0,,,74,64
22080,note_on,,,,,96,0,6,,,5,,,77,70
22188,note_off,,,,,108,0,6,,,5,,,77,64
22260,note_on,,,,,72,0,6,,,5,,,77,70
22296,note_off,,,,,36,0,6,,,5,,,77,64
22320,note_on,,,,,24,0,6,,,5,,,77,70
22464,note_off,,,,,144,0,6,,,5,,,77,64
22560,note_on,,,,,96,0,6,,,5,,,77,70
22800,note_off,,,,,240,0,6,,,5,,,77,64
22800,note_on,,,,,0,0,6,,,5,,,81,70
22992,note_off,,,,,192,0,6,,,5,,,81,64
23040,note_on,,,,,1008,0,10,,,11,,,43,70
23040,note_on,,,,,1008,0,9,,,10,,,55,70
23040,note_on,,,,,0,0,1,,,0,,,77,70
23040,note_on,,,,,1008,0,1,,,0,,,74,70
23040,note_on,,,,,1008,0,8,,,7,,,62,70
23040,note_on,,,,,1008,0,11,,,12,,,43,70
23040,note_on,,,,,1008,0,7,,,6,,,65,70
23040,note_on,,,,,1008,0,2,,,1,,,55,70
23040,note_on,,,,,48,0,6,,,5,,,72,70
23070,note_on,,,,,0,0,6,,,5,,,71,70
23070,note_off,,,,,30,0,6,,,5,,,72,64
23100,note_off,,,,,30,0,6,,,5,,,71,64
23100,note_on,,,,,0,0,6,,,5,,,72,70
23130,note_on,,,,,0,0,6,,,5,,,71,70
23130,note_off,,,,,30,0,6,,,5,,,72,64
23160,note_on,,,,,0,0,6,,,5,,,69,70
23160,note_off,,,,,30,0,6,,,5,,,71,64
23220,note_on,,,,,0,0,6,,,5,,,71,70
23220,note_off,,,,,60,0,6,,,5,,,69,64
23280,note_off,,,,,240,0,11,,,12,,,43,64
23280,note_on,,,,,0,0,11,,,12,,,36,70
23280,set_tempo,,,,,2400,1,0,454545,,,,,,
23280,note_on,,,,,0,0,1,,,0,,,76,70
23280,note_off,,,,,60,0,6,,,5,,,71,64
23280,note_on,,,,,0,0,10,,,11,,,36,70
23280,note_off,,,,,240,0,10,,,11,,,43,64
23280,note_on,,,,,0,0,9,,,10,,,48,70
23280,note_off,,,,,240,0,9,,,10,,,55,64
23280,note_off,,,,,240,0,7,,,6,,,65,64
23280,note_on,,,,,0,0,7,,,6,,,64,70
23280,note_off,,,,,240,0,8,,,7,,,62,64
23280,note_on,,,,,0,0,8,,,7,,,60,70
23280,note_on,,,,,0,0,2,,,1,,,48,70
23280,note_on,,,,,0,0,6,,,5,,,72,70
23280,note_off,,,,,240,0,2,,,1,,,55,64
23280,note_on,,,,,0,0,1,,,0,,,72,70
23280,note_off,,,,,0,0,1,,,0,,,74,64
23280,note_off,,,,,240,0,1,,,0,,,77,64
23424,note_off,,,,,144,0,6,,,5,,,72,64
23472,note_off,,,,,192,0,9,,,10,,,48,64
23472,note_off,,,,,192,0,2,,,1,,,48,64
23472,note_off,,,,,192,0,7,,,6,,,64,64
23472,note_off,,,,,0,0,1,,,0,,,72,64
23472,note_off,,,,,192,0,11,,,12,,,36,64
23472,note_off,,,,,192,0,1,,,0,,,76,64
23472,note_off,,,,,192,0,8,,,7,,,60,64
23472,note_off,,,,,192,0,10,,,11,,,36,64
23520,note_on,,,,,5592,0,3,,,2,,,55,105
23520,note_on,,,,,48,0,1,,,0,,,67,105
23520,set_tempo,,,,,240,1,0,454545,,,,,,
23520,note_on,,,,,96,0,6,,,5,,,55,105
23520,note_on,,,,,0,0,6,,,5,,,67,105
23646,note_off,,,,,126,0,3,,,2,,,55,64
23646,note_off,,,,,126,0,1,,,0,,,67,64
23646,note_off,,,,,0,0,6,,,5,,,55,64
23646,note_off,,,,,126,0,6,,,5,,,67,64
23700,note_on,,,,,54,0,6,,,5,,,67,105
23700,note_on,,,,,54,0,1,,,0,,,67,105
23700,note_on,,,,,0,0,6,,,5,,,55,105
23700,note_on,,,,,54,0,3,,,2,,,55,105
23742,note_off,,,,,42,0,1,,,0,,,67,64
23742,note_off,,,,,0,0,6,,,5,,,67,64
23742,note_off,,,,,42,0,3,,,2,,,55,64
23742,note_off,,,,,42,0,6,,,5,,,55,64
23760,note_on,,,,,18,0,3,,,2,,,55,105
23760,note_on,,,,,18,0,1,,,0,,,67,105
23760,note_on,,,,,18,0,6,,,5,,,55,105
23760,note_on,,,,,0,0,6,,,5,,,67,105
23928,note_off,,,,,0,0,6,,,5,,,55,64
23928,note_off,,,,,168,0,6,,,5,,,67,64
23928,note_off,,,,,168,0,1,,,0,,,67,64
23928,note_off,,,,,168,0,3,,,2,,,55,64
24000,note_on,,,,,72,0,3,,,2,,,55,105
24000,set_tempo,,,,,480,1,0,454545,,,,,,
24000,note_on,,,,,72,0,1,,,0,,,67,105
24000,note_on,,,,,72,0,6,,,5,,,55,105
24000,note_on,,,,,0,0,6,,,5,,,67,105
24168,note_off,,,,,0,0,6,,,5,,,55,64
24168,note_off,,,,,168,0,1,,,0,,,67,64
24168,note_off,,,,,168,0,3,,,2,,,55,64
24168,note_off,,,,,168,0,6,,,5,,,67,64
24240,note_on,,,,,72,0,3,,,2,,,55,105
24240,note_on,,,,,72,0,1,,,0,,,67,105
24240,note_on,,,,,72,0,6,,,5,,,55,105
24240,set_tempo,,,,,240,1,0,454545,,,,,,
24240,note_on,,,,,0,0,6,,,5,,,67,105
24408,note_off,,,,,168,0,6,,,5,,,67,64
24408,note_off,,,,,0,0,6,,,5,,,55,64
24408,note_off,,,,,168,0,1,,,0,,,67,64
24408,note_off,,,,,168,0,3,,,2,,,55,64
24480,note_on,,,,,72,0,6,,,5,,,84,105
24480,note_on,,,,,1008,0,2,,,1,,,55,105
24480,note_on,,,,,72,0,1,,,0,,,77,105
24480,note_on,,,,,8448,0,5,,,4,,,43,105
24480,note_on,,,,,1008,0,7,,,6,,,74,105
24480,note_on,,,,,0,0,7,,,6,,,77,105
24480,note_on,,,,,1008,0,11,,,12,,,43,105
24480,note_on,,,,,72,0,3,,,2,,,55,105
24480,note_on,,,,,1008,0,8,,,7,,,67,105
24480,note_on,,,,,7008,0,4,,,3,,,67,105
24480,note_on,,,,,0,0,3,,,2,,,62,105
24480,note_on,,,,,1008,0,10,,,11,,,43,70
24480,note_on,,,,,0,0,1,,,0,,,83,105
24480,note_on,,,,,0,0,4,,,3,,,74,105
24480,note_on,,,,,1008,0,9,,,10,,,55,70
24510,note_on,,,,,0,0,6,,,5,,,83,105
24510,note_off,,,,,30,0,6,,,5,,,84,64
24540,note_off,,,,,30,0,6,,,5,,,83,64
24540,note_on,,,,,0,0,6,,,5,,,84,105
24570,note_off,,,,,30,0,6,,,5,,,84,64
24570,note_on,,,,,0,0,6,,,5,,,83,105
24600,note_off,,,,,30,0,6,,,5,,,83,64
24600,note_on,,,,,0,0,6,,,5,,,81,105
24648,note_off,,,,,168,0,4,,,3,,,74,64
24648,note_off,,,,,168,0,11,,,12,,,43,64
24648,note_off,,,,,168,0,2,,,1,,,55,64
24648,note_off,,,,,168,0,10,,,11,,,43,64
24648,note_off,,,,,0,0,7,,,6,,,74,64
24648,note_off,,,,,168,0,9,,,10,,,55,64
24648,note_off,,,,,0,0,4,,,3,,,67,64
24648,note_off,,,,,168,0,7,,,6,,,77,64
24648,note_off,,,,,168,0,8,,,7,,,67,64
24660,note_off,,,,,60,0,6,,,5,,,81,64
24660,note_on,,,,,0,0,6,,,5,,,83,105
24672,note_off,,,,,192,0,5,,,4,,,43,64
24720,note_on,,,,,0,0,1,,,0,,,84,105
24720,note_on,,,,,0,0,1,,,0,,,76,105
24720,note_off,,,,,240,0,1,,,0,,,83,64
24720,note_off,,,,,0,0,1,,,0,,,77,64
24720,note_on,,,,,72,0,4,,,3,,,76,105
24720,note_on,,,,,72,0,9,,,10,,,48,105
24720,note_on,,,,,0,0,6,,,5,,,84,105
24720,note_off,,,,,60,0,6,,,5,,,83,64
24720,note_on,,,,,72,0,7,,,6,,,72,105
24720,note_on,,,,,0,0,7,,,6,,,76,105
24720,note_on,,,,,0,0,4,,,3,,,72,105
24720,note_on,,,,,72,0,10,,,11,,,36,105
24720,note_on,,,,,72,0,2,,,1,,,48,105
24720,note_on,,,,,0,0,3,,,2,,,64,105
24720,note_off,,,,,0,0,3,,,2,,,55,64
24720,note_off,,,,,240,0,3,,,2,,,62,64
24720,note_on,,,,,72,0,8,,,7,,,67,105
24720,note_on,,,,,72,0,11,,,12,,,36,105
24720,note_on,,,,,48,0,5,,,4,,,48,105
24720,note_on,,,,,0,0,3,,,2,,,60,105
24888,note_off,,,,,0,0,7,,,6,,,72,64
24888,note_off,,,,,168,0,7,,,6,,,76,64
24888,note_off,,,,,168,0,8,,,7,,,67,64
24888,note_off,,,,,168,0,6,,,5,,,84,64
24888,note_off,,,,,168,0,10,,,11,,,36,64
24888,note_off,,,,,168,0,2,,,1,,,48,64
24888,note_off,,,,,168,0,4,,,3,,,72,64
24888,note_off,,,,,0,0,4,,,3,,,76,64
24888,note_off,,,,,168,0,11,,,12,,,36,64
24888,note_off,,,,,168,0,9,,,10,,,48,64
24912,note_off,,,,,0,0,1,,,0,,,84,64
24912,note_off,,,,,192,0,1,,,0,,,76,64
24912,note_off,,,,,192,0,5,,,4,,,48,64
24912,note_off,,,,,192,0,3,,,2,,,60,64
24912,note_off,,,,,0,0,3,,,2,,,64,64
24960,note_on,,,,,48,0,1,,,0,,,72,105
24960,note_on,,,,,0,0,3,,,2,,,48,105
24960,note_on,,,,,72,0,6,,,5,,,60,105
24960,note_on,,,,,48,0,3,,,2,,,60,105
25086,note_off,,,,,126,0,3,,,2,,,48,64
25086,note_off,,,,,0,0,3,,,2,,,60,64
25086,note_off,,,,,126,0,6,,,5,,,60,64
25086,note_off,,,,,126,0,1,,,0,,,72,64
25140,note_on,,,,,54,0,3,,,2,,,60,105
25140,note_on,,,,,0,0,3,,,2,,,48,105
25140,note_on,,,,,54,0,1,,,0,,,72,105
25140,note_on,,,,,54,0,6,,,5,,,60,105
25182,note_off,,,,,42,0,1,,,0,,,72,64
25182,note_off,,,,,42,0,6,,,5,,,60,64
25182,note_off,,,,,42,0,3,,,2,,,48,64
25182,note_off,,,,,0,0,3,,,2,,,60,64
25200,note_on,,,,,18,0,3,,,2,,,48,105
25200,note_on,,,,,18,0,1,,,0,,,72,105
25200,note_on,,,,,18,0,6,,,5,,,60,105
25200,note_on,,,,,0,0,3,,,2,,,60,105
25368,note_off,,,,,168,0,6,,,5,,,60,64
25392,note_off,,,,,192,0,1,,,0,,,72,64
25392,note_off,,,,,192,0,3,,,2,,,60,64
25392,note_off,,,,,0,0,3,,,2,,,48,64
25440,note_on,,,,,72,0,6,,,5,,,60,105
25440,note_on,,,,,48,0,3,,,2,,,48,105
25440,note_on,,,,,0,0,3,,,2,,,60,105
25440,note_on,,,,,48,0,1,,,0,,,72,105
25608,note_off,,,,,168,0,6,,,5,,,60,64
25632,note_off,,,,,192,0,1,,,0,,,72,64
25632,note_off,,,,,192,0,3,,,2,,,60,64
25632,note_off,,,,,0,0,3,,,2,,,48,64
25680,note_on,,,,,0,0,3,,,2,,,60,105
25680,note_on,,,,,48,0,1,,,0,,,72,105
25680,note_on,,,,,72,0,6,,,5,,,60,105
25680,note_on,,,,,48,0,3,,,2,,,48,105
25848,note_off,,,,,168,0,6,,,5,,,60,64
25872,note_off,,,,,192,0,3,,,2,,,60,64
25872,note_off,,,,,0,0,3,,,2,,,48,64
25872,note_off,,,,,192,0,1,,,0,,,72,64
25920,note_on,,,,,0,0,4,,,3,,,60,105
25920,note_on,,,,,1032,0,7,,,6,,,81,105
25920,note_on,,,,,1032,0,9,,,10,,,48,105
25920,note_on,,,,,1032,0,4,,,3,,,72,105
25920,note_on,,,,,0,0,3,,,2,,,60,105
25920,note_on,,,,,48,0,3,,,2,,,48,105
25920,note_on,,,,,1032,0,10,,,11,,,36,105
25920,note_on,,,,,48,0,1,,,0,,,82,105
25920,note_on,,,,,0,0,1,,,0,,,76,105
25920,note_on,,,,,1032,0,8,,,7,,,60,105
25920,note_on,,,,,1032,0,11,,,12,,,36,105
25920,note_on,,,,,1008,0,5,,,4,,,48,105
25920,note_on,,,,,1032,0,2,,,1,,,48,105
25920,note_on,,,,,72,0,6,,,5,,,84,105
25950,note_on,,,,,0,0,7,,,6,,,79,105
25950,note_on,,,,,0,0,6,,,5,,,82,105
25950,note_off,,,,,30,0,6,,,5,,,84,64
25950,note_off,,,,,30,0,7,,,6,,,81,64
25980,note_on,,,,,0,0,6,,,5,,,84,105
25980,note_off,,,,,30,0,7,,,6,,,79,64
25980,note_off,,,,,30,0,6,,,5,,,82,64
25980,note_on,,,,,0,0,7,,,6,,,81,105
26010,note_on,,,,,0,0,7,,,6,,,79,105
26010,note_off,,,,,30,0,6,,,5,,,84,64
26010,note_on,,,,,0,0,6,,,5,,,82,105
26010,note_off,,,,,30,0,7,,,6,,,81,64
26040,note_off,,,,,30,0,7,,,6,,,79,64
26040,note_on,,,,,0,0,7,,,6,,,77,105
26040,note_off,,,,,30,0,6,,,5,,,82,64
26040,note_on,,,,,0,0,6,,,5,,,81,105
26088,note_off,,,,,168,0,8,,,7,,,60,64
26088,note_off,,,,,168,0,2,,,1,,,48,64
26088,note_off,,,,,168,0,9,,,10,,,48,64
26088,note_off,,,,,168,0,11,,,12,,,36,64
26088,note_off,,,,,168,0,10,,,11,,,36,64
26100,note_on,,,,,0,0,6,,,5,,,82,105
26100,note_off,,,,,60,0,6,,,5,,,81,64
26100,note_on,,,,,0,0,7,,,6,,,79,105
26100,note_off,,,,,60,0,7,,,6,,,77,64
26112,note_off,,,,,0,0,4,,,3,,,72,64
26112,note_off,,,,,192,0,4,,,3,,,60,64
26112,note_off,,,,,0,0,3,,,2,,,48,64
26112,note_off,,,,,192,0,3,,,2,,,60,64
26112,note_off,,,,,192,0,1,,,0,,,76,64
26112,note_off,,,,,0,0,1,,,0,,,82,64
26112,note_off,,,,,192,0,5,,,4,,,48,64
26160,note_off,,,,,60,0,6,,,5,,,82,64
26160,note_on,,,,,0,0,4,,,3,,,60,105
26160,note_on,,,,,48,0,4,,,3,,,72,105
26160,note_off,,,,,60,0,7,,,6,,,79,64
26160,note_on,,,,,0,0,7,,,6,,,77,105
26160,note_on,,,,,0,0,1,,,0,,,81,105
26160,note_on,,,,,0,0,3,,,2,,,60,105
26160,note_on,,,,,48,0,3,,,2,,,48,105
26160,note_on,,,,,48,0,1,,,0,,,77,105
26160,note_on,,,,,72,0,11,,,12,,,41,105
26160,note_on,,,,,48,0,5,,,4,,,48,105
26160,note_on,,,,,72,0,9,,,10,,,53,105
26160,note_on,,,,,72,0,10,,,11,,,41,105
26160,note_on,,,,,72,0,8,,,7,,,60,105
26160,note_on,,,,,72,0,2,,,1,,,53,105
26160,note_on,,,,,0,0,6,,,5,,,81,105
26328,note_off,,,,,168,0,7,,,6,,,77,64
26328,note_off,,,,,168,0,11,,,12,,,41,64
26328,note_off,,,,,168,0,2,,,1,,,53,64
26328,note_off,,,,,168,0,9,,,10,,,53,64
26328,note_off,,,,,168,0,8,,,7,,,60,64
26328,note_off,,,,,168,0,6,,,5,,,81,64
26328,note_off,,,,,168,0,10,,,11,,,41,64
26352,note_off,,,,,192,0,3,,,2,,,60,64
26352,note_off,,,,,0,0,3,,,2,,,48,64
26352,note_off,,,,,192,0,5,,,4,,,48,64
26352,note_off,,,,,0,0,4,,,3,,,72,64
26352,note_off,,,,,0,0,1,,,0,,,77,64
26352,note_off,,,,,192,0,4,,,3,,,60,64
26352,note_off,,,,,192,0,1,,,0,,,81,64
26400,note_on,,,,,72,0,7,,,6,,,81,105
26400,note_on,,,,,0,0,1,,,0,,,84,105
26400,note_on,,,,,72,0,2,,,1,,,53,105
26400,note_on,,,,,72,0,6,,,5,,,84,105
26400,note_on,,,,,72,0,11,,,12,,,41,105
26400,note_on,,,,,72,0,9,,,10,,,53,105
26400,note_on,,,,,48,0,1,,,0,,,81,105
26400,note_on,,,,,72,0,8,,,7,,,60,105
26400,note_on,,,,,72,0,10,,,11,,,41,105
26400,note_on,,,,,48,0,3,,,2,,,48,105
26400,note_on,,,,,0,0,3,,,2,,,60,105
26520,note_off,,,,,120,0,7,,,6,,,81,64
26520,note_off,,,,,120,0,1,,,0,,,84,64
26520,note_on,,,,,0,0,6,,,5,,,81,105
26520,note_off,,,,,120,0,6,,,5,,,84,64
26520,note_on,,,,,0,0,7,,,6,,,77,105
26520,note_off,,,,,0,0,1,,,0,,,81,64
26520,note_on,,,,,0,0,1,,,0,,,77,105
26520,note_on,,,,,0,0,1,,,0,,,81,105
26568,note_off,,,,,168,0,10,,,11,,,41,64
26568,note_off,,,,,168,0,9,,,10,,,53,64
26568,note_off,,,,,168,0,2,,,1,,,53,64
26568,note_off,,,,,168,0,11,,,12,,,41,64
26568,note_off,,,,,168,0,8,,,7,,,60,64
26592,note_off,,,,,192,0,3,,,2,,,60,64
26592,note_off,,,,,0,0,3,,,2,,,48,64
26616,note_off,,,,,96,0,1,,,0,,,81,64
26616,note_off,,,,,96,0,7,,,6,,,77,64
26616,note_off,,,,,96,0,6,,,5,,,81,64
26616,note_off,,,,,0,0,1,,,0,,,77,64
26640,note_on,,,,,72,0,8,,,7,,,67,105
26640,note_on,,,,,48,0,3,,,2,,,64,105
26640,note_on,,,,,288,0,4,,,3,,,79,105
26640,note_on,,,,,72,0,9,,,10,,,55,105
26640,note_on,,,,,72,0,10,,,11,,,43,105
26640,note_on,,,,,72,0,11,,,12,,,43,105
26640,note_on,,,,,24,0,7,,,6,,,77,105
26640,note_on,,,,,0,0,3,,,2,,,60,105
26640,note_on,,,,,24,0,6,,,5,,,81,105
26640,note_on,,,,,0,0,4,,,3,,,67,105
26640,note_on,,,,,72,0,2,,,1,,,55,105
26640,note_on,,,,,288,0,5,,,4,,,43,105
26640,note_on,,,,,24,0,1,,,0,,,77,105
26640,note_on,,,,,0,0,1,,,0,,,81,105
26760,note_off,,,,,120,0,6,,,5,,,81,64
26760,note_on,,,,,0,0,6,,,5,,,79,105
26760,note_off,,,,,120,0,7,,,6,,,77,64
26760,note_on,,,,,0,0,1,,,0,,,79,105
26760,note_on,,,,,0,0,1,,,0,,,76,105
26760,note_on,,,,,0,0,7,,,6,,,76,105
26760,note_off,,,,,120,0,1,,,0,,,81,64
26760,note_off,,,,,0,0,1,,,0,,,77,64
26808,note_off,,,,,168,0,9,,,10,,,55,64
26808,note_off,,,,,168,0,11,,,12,,,43,64
26808,note_off,,,,,168,0,2,,,1,,,55,64
26808,note_off,,,,,168,0,10,,,11,,,43,64
26808,note_off,,,,,168,0,8,,,7,,,67,64
26832,note_off,,,,,0,0,4,,,3,,,79,64
26832,note_off,,,,,192,0,4,,,3,,,67,64
26832,note_off,,,,,192,0,5,,,4,,,43,64
26856,note_off,,,,,96,0,7,,,6,,,76,64
26856,note_off,,,,,96,0,6,,,5,,,79,64
26856,note_off,,,,,96,0,1,,,0,,,79,64
26856,note_off,,,,,0,0,1,,,0,,,76,64
26880,note_on,,,,,0,0,4,,,3,,,76,105
26880,note_on,,,,,72,0,9,,,10,,,55,105
26880,note_on,,,,,24,0,7,,,6,,,76,105
26880,note_on,,,,,24,0,1,,,0,,,76,105
26880,note_on,,,,,48,0,5,,,4,,,43,105
26880,note_on,,,,,0,0,1,,,0,,,79,105
26880,note_on,,,,,72,0,10,,,11,,,43,105
26880,note_on,,,,,72,0,11,,,12,,,43,105
26880,note_on,,,,,48,0,4,,,3,,,72,105
26880,note_on,,,,,72,0,2,,,1,,,55,105
26880,note_on,,,,,72,0,8,,,7,,,67,105
26880,note_on,,,,,24,0,6,,,5,,,79,105
27000,note_on,,,,,0,0,6,,,5,,,76,105
27000,note_off,,,,,120,0,6,,,5,,,79,64
27000,note_on,,,,,0,0,1,,,0,,,72,105
27000,note_off,,,,,0,0,1,,,0,,,76,64
27000,note_on,,,,,0,0,7,,,6,,,72,105
27000,note_off,,,,,120,0,7,,,6,,,76,64
27000,note_on,,,,,0,0,1,,,0,,,76,105
27000,note_off,,,,,120,0,1,,,0,,,79,64
27024,note_off,,,,,384,0,3,,,2,,,60,64
27024,note_off,,,,,0,0,3,,,2,,,64,64
27048,note_off,,,,,168,0,11,,,12,,,43,64
27048,note_off,,,,,168,0,2,,,1,,,55,64
27048,note_off,,,,,168,0,9,,,10,,,55,64
27048,note_off,,,,,168,0,8,,,7,,,67,64
27048,note_off,,,,,168,0,10,,,11,,,43,64
27072,note_off,,,,,192,0,4,,,3,,,76,64
27072,note_off,,,,,0,0,4,,,3,,,72,64
27072,note_off,,,,,192,0,5,,,4,,,43,64
27096,note_off,,,,,96,0,7,,,6,,,72,64
27096,note_off,,,,,96,0,1,,,0,,,72,64
27096,note_off,,,,,96,0,6,,,5,,,76,64
27096,note_off,,,,,0,0,1,,,0,,,76,64
27120,note_on,,,,,72,0,9,,,10,,,55,105
27120,note_on,,,,,24,0,1,,,0,,,74,105
27120,note_on,,,,,0,0,4,,,3,,,67,105
27120,note_on,,,,,72,0,10,,,11,,,43,105
27120,note_on,,,,,72,0,8,,,7,,,67,105
27120,note_on,,,,,0,0,1,,,0,,,77,105
27120,note_on,,,,,72,0,11,,,12,,,43,105
27120,note_on,,,,,24,0,7,,,6,,,74,105
27120,note_on,,,,,48,0,4,,,3,,,74,105
27120,note_on,,,,,96,0,3,,,2,,,62,105
27120,note_on,,,,,0,0,3,,,2,,,55,105
27120,note_on,,,,,24,0,6,,,5,,,77,105
27120,note_on,,,,,72,0,2,,,1,,,55,105
27120,note_on,,,,,48,0,5,,,4,,,43,105
27240,note_off,,,,,120,0,1,,,0,,,77,64
27240,note_on,,,,,0,0,1,,,0,,,74,105
27240,note_on,,,,,0,0,1,,,0,,,71,105
27240,note_off,,,,,0,0,1,,,0,,,74,64
27240,note_on,,,,,0,0,6,,,5,,,74,105
27240,note_off,,,,,120,0,7,,,6,,,74,64
27240,note_off,,,,,120,0,6,,,5,,,77,64
27240,note_off,,,,,120,0,8,,,7,,,67,64
27240,note_on,,,,,0,0,8,,,7,,,65,105
27240,note_on,,,,,0,0,7,,,6,,,71,105
27288,note_off,,,,,168,0,10,,,11,,,43,64
27288,note_off,,,,,168,0,9,,,10,,,55,64
27288,note_off,,,,,168,0,11,,,12,,,43,64
27288,note_off,,,,,168,0,2,,,1,,,55,64
27312,note_off,,,,,192,0,3,,,2,,,55,64
27312,note_off,,,,,0,0,3,,,2,,,62,64
27312,note_off,,,,,192,0,5,,,4,,,43,64
27312,note_off,,,,,0,0,4,,,3,,,74,64
27312,note_off,,,,,192,0,4,,,3,,,67,64
27336,note_off,,,,,0,0,1,,,0,,,71,64
27336,note_off,,,,,96,0,8,,,7,,,65,64
27336,note_off,,,,,96,0,6,,,5,,,74,64
27336,note_off,,,,,96,0,7,,,6,,,71,64
27336,note_off,,,,,96,0,1,,,0,,,74,64
27360,note_on,,,,,24,0,8,,,7,,,64,105
27360,note_on,,,,,72,0,2,,,1,,,48,105
27360,note_on,,,,,72,0,11,,,12,,,36,105
27360,note_on,,,,,48,0,3,,,2,,,52,105
27360,note_on,,,,,0,0,4,,,3,,,72,105
27360,note_on,,,,,24,0,1,,,0,,,72,105
27360,note_on,,,,,24,0,6,,,5,,,72,105
27360,note_on,,,,,72,0,10,,,11,,,36,105
27360,note_on,,,,,0,0,3,,,2,,,60,105
27360,note_on,,,,,48,0,4,,,3,,,64,105
27360,note_on,,,,,24,0,7,,,6,,,72,105
27360,note_on,,,,,72,0,9,,,10,,,48,105
27360,set_tempo,,,,,3120,1,0,468750,,,,,,
27360,note_on,,,,,48,0,5,,,4,,,48,105
27528,note_off,,,,,168,0,10,,,11,,,36,64
27528,note_off,,,,,168,0,2,,,1,,,48,64
27528,note_off,,,,,168,0,9,,,10,,,48,64
27528,note_off,,,,,168,0,8,,,7,,,64,64
27528,note_off,,,,,168,0,11,,,12,,,36,64
27552,note_off,,,,,192,0,1,,,0,,,72,64
27552,note_off,,,,,0,0,4,,,3,,,64,64
27552,note_off,,,,,192,0,4,,,3,,,72,64
27552,note_off,,,,,192,0,7,,,6,,,72,64
27552,note_off,,,,,192,0,6,,,5,,,72,64
27552,note_off,,,,,192,0,5,,,4,,,48,64
27552,note_off,,,,,0,0,3,,,2,,,52,64
27552,note_off,,,,,192,0,3,,,2,,,60,64
27600,note_on,,,,,72,0,9,,,10,,,60,105
27600,note_on,,,,,72,0,10,,,11,,,48,105
27600,note_on,,,,,72,0,11,,,12,,,48,105
27600,note_on,,,,,72,0,2,,,1,,,60,105
27768,note_off,,,,,168,0,2,,,1,,,60,64
27768,note_off,,,,,168,0,9,,,10,,,60,64
27768,note_off,,,,,168,0,10,,,11,,,48,64
27768,note_off,,,,,168,0,11,,,12,,,48,64
27840,note_on,,,,,288,0,7,,,6,,,67,70
27840,note_on,,,,,288,0,6,,,5,,,79,70
27984,note_off,,,,,144,0,7,,,6,,,67,64
27984,note_off,,,,,144,0,6,,,5,,,79,64
28080,note_on,,,,,96,0,6,,,5,,,79,70
28080,note_on,,,,,96,0,7,,,6,,,67,70
28320,note_on,,,,,792,0,8,,,7,,,62,70
28320,note_on,,,,,552,0,11,,,12,,,47,70
28320,note_on,,,,,552,0,9,,,10,,,59,70
28320,note_on,,,,,552,0,10,,,11,,,47,70
28560,note_off,,,,,480,0,7,,,6,,,67,64
28560,note_off,,,,,240,0,8,,,7,,,62,64
28560,note_on,,,,,0,0,8,,,7,,,64,58
28560,note_on,,,,,0,0,6,,,5,,,76,58
28560,note_off,,,,,480,0,6,,,5,,,79,64
28560,note_off,,,,,240,0,9,,,10,,,59,64
28560,note_on,,,,,0,0,9,,,10,,,60,70
28560,note_on,,,,,0,0,10,,,11,,,48,70
28560,note_off,,,,,240,0,11,,,12,,,47,64
28560,note_on,,,,,0,0,11,,,12,,,48,70
28560,note_off,,,,,240,0,10,,,11,,,47,64
28560,note_on,,,,,0,0,7,,,6,,,64,58
28656,note_off,,,,,96,0,11,,,12,,,48,64
28656,note_off,,,,,96,0,9,,,10,,,60,64
28656,note_off,,,,,96,0,10,,,11,,,48,64
28656,note_off,,,,,96,0,6,,,5,,,76,64
28656,note_off,,,,,96,0,8,,,7,,,64,64
28656,note_off,,,,,96,0,7,,,6,,,64,64
28800,note_on,,,,,144,0,6,,,5,,,76,70
28800,note_on,,,,,144,0,7,,,6,,,64,70
29040,note_on,,,,,384,0,9,,,10,,,56,58
29040,note_on,,,,,384,0,8,,,7,,,59,70
29040,note_on,,,,,384,0,10,,,11,,,44,58
29040,note_on,,,,,384,0,11,,,12,,,44,70
29280,note_off,,,,,240,0,11,,,12,,,44,64
29280,note_on,,,,,0,0,7,,,6,,,61,70
29280,note_off,,,,,240,0,10,,,11,,,44,64
29280,note_off,,,,,480,0,6,,,5,,,76,64
29280,note_on,,,,,0,0,10,,,11,,,45,70
29280,note_off,,,,,240,0,8,,,7,,,59,64
29280,note_off,,,,,240,0,9,,,10,,,56,64
29280,note_off,,,,,480,0,7,,,6,,,64,64
29280,note_on,,,,,0,0,6,,,5,,,73,58
29280,note_on,,,,,0,0,9,,,10,,,57,70
29280,note_on,,,,,0,0,8,,,7,,,64,58
29280,note_on,,,,,0,0,11,,,12,,,45,70
29376,note_off,,,,,96,0,11,,,12,,,45,64
29376,note_off,,,,,96,0,10,,,11,,,45,64
29376,note_off,,,,,96,0,8,,,7,,,64,64
29376,note_off,,,,,96,0,9,,,10,,,57,64
29376,note_off,,,,,96,0,7,,,6,,,61,64
29376,note_off,,,,,96,0,6,,,5,,,73,64
29520,note_on,,,,,144,0,6,,,5,,,74,70
29520,note_on,,,,,144,0,8,,,7,,,69,70
29520,note_on,,,,,144,0,7,,,6,,,62,70
29520,note_on,,,,,1752,0,2,,,1,,,53,70
29520,note_on,,,,,144,0,10,,,11,,,41,70
29520,note_on,,,,,1968,0,1,,,0,,,69,70
29520,note_on,,,,,0,0,1,,,0,,,81,70
29520,note_on,,,,,144,0,11,,,12,,,41,70
29520,note_on,,,,,144,0,9,,,10,,,53,70
29640,note_off,,,,,120,0,7,,,6,,,62,64
29640,note_on,,,,,0,0,7,,,6,,,65,70
29640,note_off,,,,,120,0,6,,,5,,,74,64
29640,note_on,,,,,0,0,6,,,5,,,77,70
29688,note_off,,,,,168,0,2,,,1,,,53,64
29688,note_off,,,,,168,0,8,,,7,,,69,64
29688,note_off,,,,,168,0,11,,,12,,,41,64
29688,note_off,,,,,168,0,9,,,10,,,53,64
29688,note_off,,,,,168,0,10,,,11,,,41,64
29760,note_on,,,,,72,0,10,,,11,,,38,70
29760,note_off,,,,,120,0,7,,,6,,,65,64
29760,note_on,,,,,0,0,7,,,6,,,69,70
29760,note_on,,,,,72,0,9,,,10,,,50,70
29760,note_off,,,,,120,0,6,,,5,,,77,64
29760,note_on,,,,,72,0,8,,,7,,,65,70
29760,note_on,,,,,0,0,6,,,5,,,81,70
29760,note_on,,,,,72,0,11,,,12,,,38,70
29760,note_on,,,,,72,0,2,,,1,,,50,70
29880,note_off,,,,,120,0,8,,,7,,,65,64
29880,note_on,,,,,0,0,8,,,7,,,62,70
29880,note_on,,,,,0,0,7,,,6,,,65,70
29880,note_off,,,,,120,0,7,,,6,,,69,64
29880,note_off,,,,,120,0,6,,,5,,,81,64
29880,note_on,,,,,0,0,6,,,5,,,77,70
29904,note_off,,,,,384,0,1,,,0,,,81,64
29904,note_off,,,,,0,0,1,,,0,,,69,64
29928,note_off,,,,,168,0,11,,,12,,,38,64
29928,note_off,,,,,168,0,2,,,1,,,50,64
29928,note_off,,,,,168,0,9,,,10,,,50,64
29928,note_off,,,,,168,0,10,,,11,,,38,64
29976,note_off,,,,,96,0,8,,,7,,,62,64
30000,note_on,,,,,96,0,1,,,0,,,71,70
30000,note_on,,,,,0,0,3,,,2,,,62,105
30000,note_on,,,,,72,0,11,,,12,,,43,70
30000,note_on,,,,,0,0,6,,,5,,,74,70
30000,note_on,,,,,72,0,2,,,1,,,55,70
30000,note_on,,,,,2448,0,3,,,2,,,55,105
30000,note_on,,,,,0,0,1,,,0,,,77,70
30000,note_on,,,,,72,0,9,,,10,,,55,70
30000,note_off,,,,,120,0,6,,,5,,,77,64
30000,note_on,,,,,0,0,7,,,6,,,62,70
30000,note_off,,,,,120,0,7,,,6,,,65,64
30000,note_on,,,,,24,0,8,,,7,,,65,70
30000,note_on,,,,,72,0,10,,,11,,,43,70
30120,note_on,,,,,0,0,8,,,7,,,62,70
30120,note_on,,,,,0,0,7,,,6,,,59,70
30120,note_off,,,,,120,0,7,,,6,,,62,64
30120,note_on,,,,,0,0,6,,,5,,,71,70
30120,note_off,,,,,120,0,6,,,5,,,74,64
30120,note_on,,,,,0,0,1,,,0,,,74,70
30120,note_off,,,,,120,0,8,,,7,,,65,64
30120,note_off,,,,,120,0,1,,,0,,,77,64
30168,note_off,,,,,168,0,2,,,1,,,55,64
30168,note_off,,,,,168,0,11,,,12,,,43,64
30168,note_off,,,,,168,0,9,,,10,,,55,64
30168,note_off,,,,,168,0,10,,,11,,,43,64
30192,note_off,,,,,192,0,3,,,2,,,62,64
30192,note_off,,,,,0,0,3,,,2,,,55,64
30216,note_off,,,,,96,0,8,,,7,,,62,64
30216,note_off,,,,,96,0,7,,,6,,,59,64
30216,note_off,,,,,96,0,6,,,5,,,71,64
30216,note_off,,,,,96,0,1,,,0,,,74,64
30216,note_off,,,,,0,0,1,,,0,,,71,64
30240,note_on,,,,,0,0,3,,,2,,,60,58
30240,note_on,,,,,24,0,7,,,6,,,60,58
30240,note_on,,,,,72,0,9,,,10,,,48,58
30240,note_on,,,,,48,0,3,,,2,,,52,58
30240,note_on,,,,,24,0,8,,,7,,,60,58
30240,note_on,,,,,24,0,1,,,0,,,72,58
30240,note_on,,,,,72,0,2,,,1,,,48,58
30240,note_on,,,,,72,0,10,,,11,,,36,58
30240,note_on,,,,,72,0,11,,,12,,,36,58
30240,note_on,,,,,24,0,6,,,5,,,72,58
30432,note_off,,,,,192,0,9,,,10,,,48,64
30432,note_off,,,,,0,0,3,,,2,,,52,64
30432,note_off,,,,,192,0,2,,,1,,,48,64
30432,note_off,,,,,192,0,11,,,12,,,36,64
30432,note_off,,,,,192,0,1,,,0,,,72,64
30432,note_off,,,,,192,0,8,,,7,,,60,64
30432,note_off,,,,,192,0,7,,,6,,,60,64
30432,note_off,,,,,192,0,10,,,11,,,36,64
30432,note_off,,,,,192,0,3,,,2,,,60,64
30432,note_off,,,,,192,0,6,,,5,,,72,64
30720,note_on,,,,,288,0,7,,,6,,,67,105
30720,note_on,,,,,288,0,6,,,5,,,67,105
30720,note_on,,,,,288,0,1,,,0,,,67,105
30864,note_off,,,,,144,0,1,,,0,,,67,64
30864,note_off,,,,,144,0,6,,,5,,,67,64
30864,note_off,,,,,144,0,7,,,6,,,67,64
30960,note_on,,,,,3408,0,5,,,4,,,43,105
30960,set_tempo,,,,,3600,1,0,454545,,,,,,
30960,note_on,,,,,3408,0,4,,,3,,,67,105
30960,note_on,,,,,96,0,1,,,0,,,67,105
30960,note_on,,,,,96,0,7,,,6,,,67,105
30960,note_on,,,,,96,0,6,,,5,,,67,105
31152,note_off,,,,,192,0,5,,,4,,,43,64
31152,note_off,,,,,192,0,4,,,3,,,67,64
31200,note_on,,,,,768,0,11,,,12,,,52,105
31200,note_on,,,,,768,0,9,,,10,,,64,105
31200,note_on,,,,,768,0,10,,,11,,,52,105
31200,note_on,,,,,768,0,8,,,7,,,64,105
31200,note_on,,,,,0,0,3,,,2,,,60,105
31200,note_on,,,,,768,0,3,,,2,,,64,58
31200,note_on,,,,,768,0,2,,,1,,,64,105
31368,note_off,,,,,168,0,9,,,10,,,64,64
31368,note_off,,,,,168,0,8,,,7,,,64,64
31368,note_off,,,,,168,0,3,,,2,,,60,64
31368,note_off,,,,,0,0,3,,,2,,,64,64
31368,note_off,,,,,168,0,11,,,12,,,52,64
31368,note_off,,,,,168,0,2,,,1,,,64,64
31368,note_off,,,,,168,0,10,,,11,,,52,64
31440,note_on,,,,,0,0,7,,,6,,,76,105
31440,note_off,,,,,480,0,7,,,6,,,67,64
31440,note_on,,,,,72,0,3,,,2,,,64,105
31440,note_on,,,,,0,0,3,,,2,,,60,105
31440,note_on,,,,,72,0,11,,,12,,,48,105
31440,note_on,,,,,72,0,2,,,1,,,60,105
31440,note_on,,,,,72,0,8,,,7,,,60,105
31440,note_on,,,,,0,0,6,,,5,,,76,105
31440,note_off,,,,,480,0,6,,,5,,,67,64
31440,note_on,,,,,72,0,9,,,10,,,60,105
31440,note_on,,,,,72,0,10,,,11,,,48,105
31440,note_off,,,,,480,0,1,,,0,,,67,64
31440,note_on,,,,,0,0,1,,,0,,,76,105
31536,note_off,,,,,96,0,7,,,6,,,76,64
31536,note_off,,,,,96,0,6,,,5,,,76,64
31536,note_off,,,,,96,0,1,,,0,,,76,64
31608,note_off,,,,,168,0,3,,,2,,,60,64
31608,note_off,,,,,168,0,9,,,10,,,60,64
31608,note_off,,,,,168,0,11,,,12,,,48,64
31608,note_off,,,,,168,0,8,,,7,,,60,64
31608,note_off,,,,,0,0,3,,,2,,,64,64
31608,note_off,,,,,168,0,2,,,1,,,60,64
31608,note_off,,,,,168,0,10,,,11,,,48,64
31680,note_on,,,,,528,0,4,,,3,,,67,105
31680,note_on,,,,,528,0,5,,,4,,,43,105
31680,note_on,,,,,144,0,1,,,0,,,74,105
31680,note_on,,,,,144,0,6,,,5,,,74,105
31680,note_on,,,,,144,0,7,,,6,,,74,105
31872,note_off,,,,,192,0,4,,,3,,,67,64
31872,note_off,,,,,192,0,5,,,4,,,43,64
31920,note_on,,,,,312,0,10,,,11,,,47,105
31920,note_on,,,,,312,0,9,,,10,,,59,105
31920,note_on,,,,,312,0,2,,,1,,,59,105
31920,note_on,,,,,0,0,3,,,2,,,62,105
31920,note_on,,,,,312,0,3,,,2,,,55,105
31920,note_on,,,,,312,0,8,,,7,,,59,105
31920,note_on,,,,,312,0,11,,,12,,,47,105
32088,note_off,,,,,0,0,3,,,2,,,55,64
32088,note_off,,,,,168,0,3,,,2,,,62,64
32088,note_off,,,,,168,0,11,,,12,,,47,64
32088,note_off,,,,,168,0,10,,,11,,,47,64
32088,note_off,,,,,168,0,8,,,7,,,59,64
32088,note_off,,,,,168,0,2,,,1,,,59,64
32088,note_off,,,,,168,0,9,,,10,,,59,64
32160,note_on,,,,,72,0,2,,,1,,,55,105
32160,note_on,,,,,72,0,10,,,11,,,43,105
32160,note_on,,,,,0,0,3,,,2,,,55,105
32160,note_on,,,,,72,0,3,,,2,,,62,105
32160,note_off,,,,,480,0,1,,,0,,,74,64
32160,note_on,,,,,72,0,9,,,10,,,55,105
32160,note_on,,,,,72,0,8,,,7,,,55,105
32160,note_on,,,,,72,0,11,,,12,,,43,105
32160,note_off,,,,,480,0,6,,,5,,,74,64
32160,note_on,,,,,0,0,6,,,5,,,79,105
32160,note_off,,,,,480,0,7,,,6,,,74,64
32160,note_on,,,,,0,0,7,,,6,,,79,105
32160,note_on,,,,,0,0,1,,,0,,,79,105
32256,note_off,,,,,96,0,6,,,5,,,79,64
32256,note_off,,,,,96,0,1,,,0,,,79,64
32256,note_off,,,,,96,0,7,,,6,,,79,64
32328,note_off,,,,,168,0,8,,,7,,,55,64
32328,note_off,,,,,168,0,10,,,11,,,43,64
32328,note_off,,,,,168,0,9,,,10,,,55,64
32328,note_off,,,,,0,0,3,,,2,,,62,64
32328,note_off,,,,,168,0,3,,,2,,,55,64
32328,note_off,,,,,168,0,2,,,1,,,55,64
32328,note_off,,,,,168,0,11,,,12,,,43,64
32400,note_on,,,,,144,0,7,,,6,,,74,105
32400,note_on,,,,,144,0,1,,,0,,,74,105
32400,note_on,,,,,528,0,4,,,3,,,74,105
32400,note_on,,,,,144,0,6,,,5,,,74,105
32592,note_off,,,,,192,0,4,,,3,,,74,64
32640,note_on,,,,,312,0,8,,,7,,,66,105
32640,note_on,,,,,312,0,2,,,1,,,54,105
32640,note_on,,,,,312,0,3,,,2,,,62,105
32640,note_on,,,,,312,0,9,,,10,,,54,105
32640,note_on,,,,,312,0,10,,,11,,,42,105
32640,note_on,,,,,312,0,11,,,12,,,42,105
32808,note_off,,,,,168,0,11,,,12,,,42,64
32808,note_off,,,,,168,0,2,,,1,,,54,64
32808,note_off,,,,,168,0,9,,,10,,,54,64
32808,note_off,,,,,168,0,8,,,7,,,66,64
32808,note_off,,,,,168,0,3,,,2,,,62,64
32808,note_off,,,,,168,0,10,,,11,,,42,64
32880,note_off,,,,,480,0,1,,,0,,,74,64
32880,note_on,,,,,0,0,1,,,0,,,81,105
32880,note_on,,,,,72,0,9,,,10,,,50,105
32880,note_on,,,,,72,0,10,,,11,,,38,105
32880,note_on,,,,,72,0,2,,,1,,,50,105
32880,note_on,,,,,72,0,11,,,12,,,38,105
32880,note_off,,,,,480,0,7,,,6,,,74,64
32880,note_on,,,,,0,0,7,,,6,,,81,105
32880,note_on,,,,,0,0,6,,,5,,,81,105
32880,note_off,,,,,480,0,6,,,5,,,74,64
32880,note_on,,,,,72,0,3,,,2,,,62,105
32880,note_on,,,,,72,0,8,,,7,,,62,105
32976,note_off,,,,,96,0,7,,,6,,,81,64
32976,note_off,,,,,96,0,6,,,5,,,81,64
32976,note_off,,,,,96,0,1,,,0,,,81,64
33048,note_off,,,,,168,0,11,,,12,,,38,64
33048,note_off,,,,,168,0,2,,,1,,,50,64
33048,note_off,,,,,168,0,10,,,11,,,38,64
33048,note_off,,,,,168,0,3,,,2,,,62,64
33048,note_off,,,,,168,0,9,,,10,,,50,64
33048,note_off,,,,,168,0,8,,,7,,,62,64
33120,note_on,,,,,144,0,7,,,6,,,74,105
33120,note_on,,,,,144,0,6,,,5,,,74,105
33120,note_on,,,,,528,0,4,,,3,,,74,105
33120,note_on,,,,,144,0,1,,,0,,,74,105
33312,note_off,,,,,192,0,4,,,3,,,74,64
33360,note_on,,,,,312,0,8,,,7,,,67,105
33360,note_on,,,,,0,0,3,,,2,,,62,105
33360,note_on,,,,,312,0,10,,,11,,,43,105
33360,note_on,,,,,312,0,9,,,10,,,55,105
33360,note_on,,,,,312,0,2,,,1,,,55,105
33360,note_on,,,,,312,0,3,,,2,,,55,105
33360,note_on,,,,,312,0,11,,,12,,,43,105
33528,note_off,,,,,168,0,3,,,2,,,62,64
33528,note_off,,,,,0,0,3,,,2,,,55,64
33528,note_off,,,,,168,0,9,,,10,,,55,64
33528,note_off,,,,,168,0,11,,,12,,,43,64
33528,note_off,,,,,168,0,2,,,1,,,55,64
33528,note_off,,,,,168,0,10,,,11,,,43,64
33528,note_off,,,,,168,0,8,,,7,,,67,64
33600,note_on,,,,,72,0,11,,,12,,,38,105
33600,note_on,,,,,0,0,7,,,6,,,83,105
33600,note_on,,,,,72,0,2,,,1,,,50,105
33600,note_on,,,,,72,0,9,,,10,,,50,105
33600,note_on,,,,,72,0,10,,,11,,,38,105
33600,note_off,,,,,480,0,1,,,0,,,74,64
33600,note_on,,,,,0,0,6,,,5,,,83,105
33600,note_on,,,,,0,0,1,,,0,,,83,105
33600,note_off,,,,,480,0,7,,,6,,,74,64
33600,note_off,,,,,480,0,6,,,5,,,74,64
33600,note_on,,,,,0,0,3,,,2,,,55,105
33600,note_on,,,,,72,0,8,,,7,,,62,105
33600,note_on,,,,,72,0,3,,,2,,,62,105
33696,note_off,,,,,96,0,7,,,6,,,83,64
33696,note_off,,,,,96,0,6,,,5,,,83,64
33696,note_off,,,,,96,0,1,,,0,,,83,64
33768,note_off,,,,,168,0,8,,,7,,,62,64
33768,note_off,,,,,168,0,11,,,12,,,38,64
33768,note_off,,,,,168,0,2,,,1,,,50,64
33768,note_off,,,,,168,0,9,,,10,,,50,64
33768,note_off,,,,,168,0,3,,,2,,,55,64
33768,note_off,,,,,168,0,10,,,11,,,38,64
33768,note_off,,,,,0,0,3,,,2,,,62,64
33840,note_on,,,,,144,0,6,,,5,,,74,70
33840,note_on,,,,,144,0,7,,,6,,,62,70
34080,note_on,,,,,312,0,10,,,11,,,45,58
34080,note_on,,,,,312,0,9,,,10,,,57,58
34080,note_on,,,,,312,0,11,,,12,,,45,58
34080,note_on,,,,,312,0,8,,,7,,,66,58
34320,note_off,,,,,240,0,9,,,10,,,57,64
34320,note_on,,,,,0,0,7,,,6,,,72,70
34320,note_off,,,,,240,0,11,,,12,,,45,64
34320,note_on,,,,,0,0,9,,,10,,,50,58
34320,note_on,,,,,0,0,10,,,11,,,38,58
34320,note_on,,,,,0,0,8,,,7,,,69,58
34320,note_on,,,,,0,0,11,,,12,,,38,58
34320,note_off,,,,,480,0,7,,,6,,,62,64
34320,note_off,,,,,240,0,8,,,7,,,66,64
34320,note_off,,,,,240,0,10,,,11,,,45,64
34320,note_off,,,,,480,0,6,,,5,,,74,64
34320,note_on,,,,,0,0,6,,,5,,,84,58
34416,note_off,,,,,96,0,6,,,5,,,84,64
34416,note_off,,,,,96,0,7,,,6,,,72,64
34512,note_off,,,,,192,0,9,,,10,,,50,64
34512,note_off,,,,,192,0,10,,,11,,,38,64
34512,note_off,,,,,192,0,11,,,12,,,38,64
34512,note_off,,,,,192,0,8,,,7,,,69,64
34560,note_on,,,,,144,0,6,,,5,,,74,70
34560,note_on,,,,,144,0,7,,,6,,,62,70
34800,note_on,,,,,288,0,10,,,11,,,47,58
34800,note_on,,,,,288,0,11,,,12,,,47,58
34800,note_on,,,,,288,0,8,,,7,,,67,58
34800,note_on,,,,,288,0,9,,,10,,,59,58
35040,note_on,,,,,0,0,6,,,5,,,86,70
35040,note_off,,,,,240,0,11,,,12,,,47,64
35040,note_on,,,,,0,0,11,,,12,,,43,58
35040,note_off,,,,,480,0,6,,,5,,,74,64
35040,note_on,,,,,0,0,7,,,6,,,74,70
35040,note_off,,,,,240,0,9,,,10,,,59,64
35040,note_on,,,,,0,0,8,,,7,,,71,58
35040,note_off,,,,,480,0,7,,,6,,,62,64
35040,note_off,,,,,240,0,10,,,11,,,47,64
35040,note_on,,,,,0,0,10,,,11,,,43,58
35040,note_on,,,,,0,0,9,,,10,,,55,58
35040,note_off,,,,,240,0,8,,,7,,,67,64
35136,note_off,,,,,96,0,6,,,5,,,86,64
35136,note_off,,,,,96,0,7,,,6,,,74,64
35232,note_off,,,,,192,0,8,,,7,,,71,64
35232,note_off,,,,,192,0,11,,,12,,,43,64
35232,note_off,,,,,192,0,10,,,11,,,43,64
35232,note_off,,,,,192,0,9,,,10,,,55,64
35280,note_on,,,,,144,0,6,,,5,,,75,70
35400,note_on,,,,,0,0,6,,,5,,,76,70
35400,note_off,,,,,120,0,6,,,5,,,75,64
35520,note_on,,,,,0,0,6,,,5,,,72,70
35520,note_on,,,,,288,0,10,,,11,,,36,58
35520,note_on,,,,,384,0,7,,,6,,,64,70
35520,note_on,,,,,288,0,8,,,7,,,57,58
35520,note_on,,,,,288,0,9,,,10,,,48,58
35520,note_off,,,,,120,0,6,,,5,,,76,64
35520,note_on,,,,,288,0,11,,,12,,,36,58
35640,note_off,,,,,120,0,6,,,5,,,72,64
35640,note_off,,,,,120,0,7,,,6,,,64,64
35640,note_on,,,,,0,0,7,,,6,,,60,70
35640,note_on,,,,,0,0,6,,,5,,,69,70
35688,note_off,,,,,168,0,8,,,7,,,57,64
35760,note_off,,,,,240,0,10,,,11,,,36,64
35760,note_off,,,,,120,0,7,,,6,,,60,64
35760,note_on,,,,,0,0,10,,,11,,,38,58
35760,note_on,,,,,0,0,7,,,6,,,57,70
35760,note_on,,,,,0,0,11,,,12,,,38,58
35760,note_on,,,,,0,0,6,,,5,,,66,70
35760,note_off,,,,,120,0,6,,,5,,,69,64
35760,note_on,,,,,72,0,8,,,7,,,62,58
35760,note_on,,,,,0,0,9,,,10,,,50,58
35760,note_off,,,,,240,0,9,,,10,,,48,64
35760,note_off,,,,,240,0,11,,,12,,,36,64
35880,note_on,,,,,0,0,7,,,6,,,60,70
35880,note_off,,,,,120,0,7,,,6,,,57,64
35880,note_off,,,,,120,0,6,,,5,,,66,64
35880,note_on,,,,,0,0,6,,,5,,,69,70
35928,note_off,,,,,168,0,8,,,7,,,62,64
35952,note_off,,,,,192,0,11,,,12,,,38,64
35952,note_off,,,,,192,0,9,,,10,,,50,64
35952,note_off,,,,,192,0,10,,,11,,,38,64
35976,note_off,,,,,96,0,7,,,6,,,60,64
35976,note_off,,,,,96,0,6,,,5,,,69,64
36000,note_on,,,,,48,0,9,,,10,,,43,70
36000,note_on,,,,,24,0,6,,,5,,,67,58
36000,set_tempo,,,,,5040,1,0,468750,,,,,,
36000,note_on,,,,,72,0,8,,,7,,,62,58
36000,note_on,,,,,48,0,10,,,11,,,31,70
36000,note_on,,,,,48,0,11,,,12,,,31,70
36000,note_on,,,,,24,0,7,,,6,,,59,58
36168,note_off,,,,,168,0,9,,,10,,,43,64
36168,note_off,,,,,168,0,11,,,12,,,31,64
36168,note_off,,,,,168,0,10,,,11,,,31,64
36192,note_off,,,,,192,0,7,,,6,,,59,64
36192,note_off,,,,,192,0,8,,,7,,,62,64
36192,note_off,,,,,192,0,6,,,5,,,67,64
36240,note_on,,,,,72,0,11,,,12,,,43,58
36240,note_on,,,,,72,0,10,,,11,,,43,58
36240,note_on,,,,,72,0,9,,,10,,,55,58
36408,note_off,,,,,168,0,9,,,10,,,55,64
36408,note_off,,,,,168,0,11,,,12,,,43,64
36408,note_off,,,,,168,0,10,,,11,,,43,64
36480,note_on,,,,,288,0,6,,,5,,,79,70
36588,note_off,,,,,108,0,6,,,5,,,79,64
36660,note_on,,,,,72,0,6,,,5,,,79,70
36696,note_off,,,,,36,0,6,,,5,,,79,64
36720,note_on,,,,,24,0,6,,,5,,,79,70
36720,set_tempo,,,,,720,1,0,454545,,,,,,
36864,note_off,,,,,144,0,6,,,5,,,79,64
36960,note_on,,,,,96,0,6,,,5,,,79,70
37200,note_on,,,,,0,0,6,,,5,,,82,70
37200,note_off,,,,,240,0,6,,,5,,,79,64
37392,note_off,,,,,192,0,6,,,5,,,82,64
37440,note_on,,,,,1248,0,8,,,7,,,64,70
37440,note_on,,,,,1248,0,7,,,6,,,67,70
37440,note_on,,,,,0,0,1,,,0,,,79,70
37440,note_on,,,,,3744,0,1,,,0,,,76,70
37440,note_on,,,,,1032,0,11,,,12,,,45,70
37440,note_on,,,,,48,0,6,,,5,,,74,70
37440,note_on,,,,,1032,0,10,,,11,,,45,70
37440,note_on,,,,,3672,0,2,,,1,,,57,70
37440,note_on,,,,,1032,0,9,,,10,,,57,70
37470,note_off,,,,,30,0,6,,,5,,,74,64
37470,note_on,,,,,0,0,6,,,5,,,73,70
37500,note_off,,,,,30,0,6,,,5,,,73,64
37500,note_on,,,,,0,0,6,,,5,,,74,70
37530,note_on,,,,,0,0,6,,,5,,,73,70
37530,note_off,,,,,30,0,6,,,5,,,74,64
37560,note_on,,,,,0,0,6,,,5,,,71,70
37560,note_off,,,,,30,0,6,,,5,,,73,64
37620,note_on,,,,,0,0,6,,,5,,,73,70
37620,note_off,,,,,60,0,6,,,5,,,71,64
37680,note_on,,,,,0,0,7,,,6,,,65,70
37680,note_off,,,,,240,0,7,,,6,,,67,64
37680,note_off,,,,,60,0,6,,,5,,,73,64
37680,note_off,,,,,240,0,9,,,10,,,57,64
37680,note_on,,,,,0,0,11,,,12,,,38,70
37680,note_off,,,,,240,0,11,,,12,,,45,64
37680,note_off,,,,,240,0,2,,,1,,,57,64
37680,note_on,,,,,0,0,2,,,1,,,50,70
37680,note_on,,,,,0,0,1,,,0,,,74,70
37680,note_on,,,,,0,0,1,,,0,,,77,70
37680,note_off,,,,,240,0,8,,,7,,,64,64
37680,note_off,,,,,0,0,1,,,0,,,76,64
37680,note_off,,,,,240,0,1,,,0,,,79,64
37680,note_on,,,,,0,0,10,,,11,,,38,70
37680,note_on,,,,,0,0,6,,,5,,,74,70
37680,note_off,,,,,240,0,10,,,11,,,45,64
37680,note_on,,,,,0,0,9,,,10,,,50,70
37680,note_on,,,,,0,0,8,,,7,,,62,70
37824,note_off,,,,,144,0,6,,,5,,,74,64
37872,note_off,,,,,192,0,2,,,1,,,50,64
37872,note_off,,,,,192,0,11,,,12,,,38,64
37872,note_off,,,,,192,0,8,,,7,,,62,64
37872,note_off,,,,,192,0,9,,,10,,,50,64
37872,note_off,,,,,192,0,7,,,6,,,65,64
37872,note_off,,,,,192,0,10,,,11,,,38,64
37872,note_off,,,,,0,0,1,,,0,,,74,64
37872,note_off,,,,,192,0,1,,,0,,,77,64
37920,note_on,,,,,96,0,6,,,5,,,77,70
38028,note_off,,,,,108,0,6,,,5,,,77,64
38100,note_on,,,,,72,0,6,,,5,,,77,70
38136,note_off,,,,,36,0,6,,,5,,,77,64
38160,note_on,,,,,24,0,6,,,5,,,77,70
38304,note_off,,,,,144,0,6,,,5,,,77,64
38400,note_on,,,,,96,0,6,,,5,,,77,70
38640,note_off,,,,,240,0,6,,,5,,,77,64
38640,note_on,,,,,0,0,6,,,5,,,81,70
38832,note_off,,,,,192,0,6,,,5,,,81,64
38880,note_on,,,,,1008,0,2,,,1,,,55,70
38880,note_on,,,,,1008,0,10,,,11,,,43,70
38880,note_on,,,,,1008,0,1,,,0,,,74,70
38880,note_on,,,,,0,0,1,,,0,,,77,70
38880,note_on,,,,,1008,0,11,,,12,,,43,70
38880,note_on,,,,,1008,0,9,,,10,,,55,70
38880,note_on,,,,,1008,0,7,,,6,,,65,70
38880,note_on,,,,,48,0,6,,,5,,,72,70
38880,note_on,,,,,1008,0,8,,,7,,,62,70
38910,note_off,,,,,30,0,6,,,5,,,72,64
38910,note_on,,,,,0,0,6,,,5,,,71,70
38940,note_off,,,,,30,0,6,,,5,,,71,64
38940,note_on,,,,,0,0,6,,,5,,,72,70
38970,note_off,,,,,30,0,6,,,5,,,72,64
38970,note_on,,,,,0,0,6,,,5,,,71,70
39000,note_off,,,,,30,0,6,,,5,,,71,64
39000,note_on,,,,,0,0,6,,,5,,,69,70
39060,note_on,,,,,0,0,6,,,5,,,71,70
39060,note_off,,,,,60,0,6,,,5,,,69,64
39120,note_on,,,,,0,0,11,,,12,,,36,70
39120,note_on,,,,,0,0,9,,,10,,,48,70
39120,note_off,,,,,240,0,10,,,11,,,43,64
39120,note_on,,,,,0,0,10,,,11,,,36,70
39120,note_on,,,,,0,0,1,,,0,,,76,70
39120,set_tempo,,,,,2400,1,0,454545,,,,,,
39120,note_off,,,,,240,0,9,,,10,,,55,64
39120,note_on,,,,,0,0,1,,,0,,,72,70
39120,note_off,,,,,240,0,11,,,12,,,43,64
39120,note_on,,,,,0,0,2,,,1,,,48,70
39120,note_off,,,,,60,0,6,,,5,,,71,64
39120,note_off,,,,,240,0,7,,,6,,,65,64
39120,note_on,,,,,0,0,6,,,5,,,72,70
39120,note_on,,,,,0,0,7,,,6,,,64,70
39120,note_off,,,,,240,0,8,,,7,,,62,64
39120,note_off,,,,,240,0,1,,,0,,,77,64
39120,note_off,,,,,0,0,1,,,0,,,74,64
39120,note_off,,,,,240,0,2,,,1,,,55,64
39120,note_on,,,,,0,0,8,,,7,,,60,70
39264,note_off,,,,,144,0,6,,,5,,,72,64
39312,note_off,,,,,192,0,2,,,1,,,48,64
39312,note_off,,,,,192,0,1,,,0,,,76,64
39312,note_off,,,,,192,0,7,,,6,,,64,64
39312,note_off,,,,,192,0,8,,,7,,,60,64
39312,note_off,,,,,0,0,1,,,0,,,72,64
39312,note_off,,,,,192,0,9,,,10,,,48,64
39312,note_off,,,,,192,0,10,,,11,,,36,64
39312,note_off,,,,,192,0,11,,,12,,,36,64
39360,set_tempo,,,,,240,1,0,454545,,,,,,
39360,note_on,,,,,0,0,6,,,5,,,67,105
39360,note_on,,,,,96,0,6,,,5,,,55,105
39360,note_on,,,,,48,0,1,,,0,,,67,105
39360,note_on,,,,,5592,0,3,,,2,,,55,105
39486,note_off,,,,,126,0,6,,,5,,,67,64
39486,note_off,,,,,0,0,6,,,5,,,55,64
39486,note_off,,,,,126,0,1,,,0,,,67,64
39486,note_off,,,,,126,0,3,,,2,,,55,64
39540,note_on,,,,,0,0,6,,,5,,,55,105
39540,note_on,,,,,54,0,1,,,0,,,67,105
39540,note_on,,,,,54,0,6,,,5,,,67,105
39540,note_on,,,,,54,0,3,,,2,,,55,105
39582,note_off,,,,,42,0,1,,,0,,,67,64
39582,note_off,,,,,42,0,3,,,2,,,55,64
39582,note_off,,,,,0,0,6,,,5,,,67,64
39582,note_off,,,,,42,0,6,,,5,,,55,64
39600,note_on,,,,,18,0,3,,,2,,,55,105
39600,note_on,,,,,18,0,6,,,5,,,55,105
39600,note_on,,,,,18,0,1,,,0,,,67,105
39600,note_on,,,,,0,0,6,,,5,,,67,105
39768,note_off,,,,,168,0,1,,,0,,,67,64
39768,note_off,,,,,168,0,6,,,5,,,67,64
39768,note_off,,,,,0,0,6,,,5,,,55,64
39768,note_off,,,,,168,0,3,,,2,,,55,64
39840,note_on,,,,,72,0,3,,,2,,,55,105
39840,set_tempo,,,,,480,1,0,454545,,,,,,
39840,note_on,,,,,72,0,1,,,0,,,67,105
39840,note_on,,,,,0,0,6,,,5,,,67,105
39840,note_on,,,,,72,0,6,,,5,,,55,105
40008,note_off,,,,,168,0,1,,,0,,,67,64
40008,note_off,,,,,168,0,3,,,2,,,55,64
40008,note_off,,,,,0,0,6,,,5,,,55,64
40008,note_off,,,,,168,0,6,,,5,,,67,64
40080,note_on,,,,,72,0,6,,,5,,,55,105
40080,note_on,,,,,0,0,6,,,5,,,67,105
40080,note_on,,,,,72,0,1,,,0,,,67,105
40080,set_tempo,,,,,240,1,0,454545,,,,,,
40080,note_on,,,,,72,0,3,,,2,,,55,105
40248,note_off,,,,,168,0,6,,,5,,,67,64
40248,note_off,,,,,0,0,6,,,5,,,55,64
40248,note_off,,,,,168,0,3,,,2,,,55,64
40248,note_off,,,,,168,0,1,,,0,,,67,64
40320,note_on,,,,,72,0,3,,,2,,,55,105
40320,note_on,,,,,0,0,3,,,2,,,62,105
40320,note_on,,,,,72,0,1,,,0,,,77,105
40320,note_on,,,,,0,0,1,,,0,,,83,105
40320,note_on,,,,,72,0,6,,,5,,,84,105
40320,note_on,,,,,1008,0,8,,,7,,,67,105
40320,note_on,,,,,1008,0,2,,,1,,,55,105
40320,note_on,,,,,1008,0,9,,,10,,,55,70
40320,note_on,,,,,0,0,7,,,6,,,77,105
40320,note_on,,,,,1008,0,10,,,11,,,43,70
40320,note_on,,,,,0,0,4,,,3,,,74,105
40320,note_on,,,,,7008,0,4,,,3,,,67,105
40320,note_on,,,,,1008,0,7,,,6,,,74,105
40320,note_on,,,,,1008,0,11,,,12,,,43,105
40320,note_on,,,,,8448,0,5,,,4,,,43,105
40350,note_off,,,,,30,0,6,,,5,,,84,64
40350,note_on,,,,,0,0,6,,,5,,,83,105
40380,note_on,,,,,0,0,6,,,5,,,84,105
40380,note_off,,,,,30,0,6,,,5,,,83,64
40410,note_on,,,,,0,0,6,,,5,,,83,105
40410,note_off,,,,,30,0,6,,,5,,,84,64
40440,note_off,,,,,30,0,6,,,5,,,83,64
40440,note_on,,,,,0,0,6,,,5,,,81,105
40488,note_off,,,,,168,0,2,,,1,,,55,64
40488,note_off,,,,,168,0,11,,,12,,,43,64
40488,note_off,,,,,168,0,7,,,6,,,77,64
40488,note_off,,,,,0,0,7,,,6,,,74,64
40488,note_off,,,,,0,0,4,,,3,,,67,64
40488,note_off,,,,,168,0,8,,,7,,,67,64
40488,note_off,,,,,168,0,9,,,10,,,55,64
40488,note_off,,,,,168,0,10,,,11,,,43,64
40488,note_off,,,,,168,0,4,,,3,,,74,64
40500,note_off,,,,,60,0,6,,,5,,,81,64
40500,note_on,,,,,0,0,6,,,5,,,83,105
40512,note_off,,,,,192,0,5,,,4,,,43,64
40560,note_off,,,,,240,0,1,,,0,,,83,64
40560,note_on,,,,,0,0,4,,,3,,,72,105
40560,note_off,,,,,0,0,1,,,0,,,77,64
40560,note_on,,,,,72,0,9,,,10,,,48,105
40560,note_on,,,,,0,0,7,,,6,,,76,105
40560,note_on,,,,,72,0,11,,,12,,,36,105
40560,note_on,,,,,0,0,1,,,0,,,84,105
40560,note_on,,,,,72,0,7,,,6,,,72,105
40560,note_on,,,,,72,0,4,,,3,,,76,105
40560,note_on,,,,,0,0,1,,,0,,,76,105
40560,note_on,,,,,0,0,6,,,5,,,84,105
40560,note_off,,,,,0,0,3,,,2,,,55,64
40560,note_on,,,,,72,0,8,,,7,,,67,105
40560,note_off,,,,,60,0,6,,,5,,,83,64
40560,note_on,,,,,48,0,5,,,4,,,48,105
40560,note_on,,,,,72,0,10,,,11,,,36,105
40560,note_on,,,,,72,0,2,,,1,,,48,105
40560,note_off,,,,,240,0,3,,,2,,,62,64
40560,note_on,,,,,0,0,3,,,2,,,60,105
40560,note_on,,,,,0,0,3,,,2,,,64,105
40728,note_off,,,,,168,0,10,,,11,,,36,64
40728,note_off,,,,,168,0,7,,,6,,,76,64
40728,note_off,,,,,0,0,7,,,6,,,72,64
40728,note_off,,,,,168,0,9,,,10,,,48,64
40728,note_off,,,,,168,0,11,,,12,,,36,64
40728,note_off,,,,,0,0,4,,,3,,,76,64
40728,note_off,,,,,168,0,2,,,1,,,48,64
40728,note_off,,,,,168,0,4,,,3,,,72,64
40728,note_off,,,,,168,0,8,,,7,,,67,64
40728,note_off,,,,,168,0,6,,,5,,,84,64
40752,note_off,,,,,192,0,3,,,2,,,60,64
40752,note_off,,,,,0,0,3,,,2,,,64,64
40752,note_off,,,,,192,0,5,,,4,,,48,64
40752,note_off,,,,,192,0,1,,,0,,,76,64
40752,note_off,,,,,0,0,1,,,0,,,84,64
40800,note_on,,,,,72,0,6,,,5,,,60,105
40800,note_on,,,,,48,0,1,,,0,,,72,105
40800,note_on,,,,,0,0,3,,,2,,,48,105
40800,note_on,,,,,48,0,3,,,2,,,60,105
40926,note_off,,,,,126,0,1,,,0,,,72,64
40926,note_off,,,,,0,0,3,,,2,,,60,64
40926,note_off,,,,,126,0,6,,,5,,,60,64
40926,note_off,,,,,126,0,3,,,2,,,48,64
40980,note_on,,,,,54,0,3,,,2,,,60,105
40980,note_on,,,,,54,0,6,,,5,,,60,105
40980,note_on,,,,,54,0,1,,,0,,,72,105
40980,note_on,,,,,0,0,3,,,2,,,48,105
41022,note_off,,,,,42,0,1,,,0,,,72,64
41022,note_off,,,,,42,0,3,,,2,,,48,64
41022,note_off,,,,,42,0,6,,,5,,,60,64
41022,note_off,,,,,0,0,3,,,2,,,60,64
41040,note_on,,,,,0,0,3,,,2,,,60,105
41040,note_on,,,,,18,0,6,,,5,,,60,105
41040,note_on,,,,,18,0,1,,,0,,,72,105
41040,note_on,,,,,18,0,3,,,2,,,48,105
41208,note_off,,,,,168,0,6,,,5,,,60,64
41232,note_off,,,,,192,0,3,,,2,,,60,64
41232,note_off,,,,,0,0,3,,,2,,,48,64
41232,note_off,,,,,192,0,1,,,0,,,72,64
41280,note_on,,,,,0,0,3,,,2,,,60,105
41280,note_on,,,,,48,0,3,,,2,,,48,105
41280,note_on,,,,,48,0,1,,,0,,,72,105
41280,note_on,,,,,72,0,6,,,5,,,60,105
41448,note_off,,,,,168,0,6,,,5,,,60,64
41472,note_off,,,,,0,0,3,,,2,,,48,64
41472,note_off,,,,,192,0,3,,,2,,,60,64
41472,note_off,,,,,192,0,1,,,0,,,72,64
41520,note_on,,,,,48,0,1,,,0,,,72,105
41520,note_on,,,,,48,0,3,,,2,,,48,105
41520,note_on,,,,,0,0,3,,,2,,,60,105
41520,note_on,,,,,72,0,6,,,5,,,60,105
41688,note_off,,,,,168,0,6,,,5,,,60,64
41712,note_off,,,,,192,0,1,,,0,,,72,64
41712,note_off,,,,,0,0,3,,,2,,,48,64
41712,note_off,,,,,192,0,3,,,2,,,60,64
41760,note_on,,,,,1008,0,5,,,4,,,48,105
41760,note_on,,,,,72,0,6,,,5,,,84,105
41760,note_on,,,,,1032,0,4,,,3,,,72,105
41760,note_on,,,,,1032,0,11,,,12,,,36,105
41760,note_on,,,,,0,0,1,,,0,,,76,105
41760,note_on,,,,,0,0,4,,,3,,,60,105
41760,note_on,,,,,1032,0,7,,,6,,,81,105
41760,note_on,,,,,1032,0,2,,,1,,,48,105
41760,note_on,,,,,48,0,1,,,0,,,82,105
41760,note_on,,,,,1032,0,9,,,10,,,48,105
41760,note_on,,,,,1032,0,8,,,7,,,60,105
41760,note_on,,,,,48,0,3,,,2,,,48,105
41760,note_on,,,,,0,0,3,,,2,,,60,105
41760,note_on,,,,,1032,0,10,,,11,,,36,105
41790,note_on,,,,,0,0,7,,,6,,,79,105
41790,note_off,,,,,30,0,6,,,5,,,84,64
41790,note_off,,,,,30,0,7,,,6,,,81,64
41790,note_on,,,,,0,0,6,,,5,,,82,105
41820,note_off,,,,,30,0,6,,,5,,,82,64
41820,note_off,,,,,30,0,7,,,6,,,79,64
41820,note_on,,,,,0,0,7,,,6,,,81,105
41820,note_on,,,,,0,0,6,,,5,,,84,105
41850,note_off,,,,,30,0,6,,,5,,,84,64
41850,note_on,,,,,0,0,7,,,6,,,79,105
41850,note_on,,,,,0,0,6,,,5,,,82,105
41850,note_off,,,,,30,0,7,,,6,,,81,64
41880,note_on,,,,,0,0,7,,,6,,,77,105
41880,note_off,,,,,30,0,6,,,5,,,82,64
41880,note_off,,,,,30,0,7,,,6,,,79,64
41880,note_on,,,,,0,0,6,,,5,,,81,105
41928,note_off,,,,,168,0,8,,,7,,,60,64
41928,note_off,,,,,168,0,10,,,11,,,36,64
41928,note_off,,,,,168,0,11,,,12,,,36,64
41928,note_off,,,,,168,0,9,,,10,,,48,64
41928,note_off,,,,,168,0,2,,,1,,,48,64
41940,note_off,,,,,60,0,7,,,6,,,77,64
41940,note_on,,,,,0,0,7,,,6,,,79,105
41940,note_off,,,,,60,0,6,,,5,,,81,64
41940,note_on,,,,,0,0,6,,,5,,,82,105
41952,note_off,,,,,192,0,4,,,3,,,60,64
41952,note_off,,,,,0,0,4,,,3,,,72,64
41952,note_off,,,,,192,0,3,,,2,,,60,64
41952,note_off,,,,,192,0,1,,,0,,,76,64
41952,note_off,,,,,0,0,3,,,2,,,48,64
41952,note_off,,,,,0,0,1,,,0,,,82,64
41952,note_off,,,,,192,0,5,,,4,,,48,64
42000,note_off,,,,,60,0,6,,,5,,,82,64
42000,note_on,,,,,48,0,3,,,2,,,48,105
42000,note_on,,,,,0,0,7,,,6,,,77,105
42000,note_on,,,,,0,0,3,,,2,,,60,105
42000,note_on,,,,,48,0,5,,,4,,,48,105
42000,note_on,,,,,0,0,6,,,5,,,81,105
42000,note_off,,,,,60,0,7,,,6,,,79,64
42000,note_on,,,,,72,0,9,,,10,,,53,105
42000,note_on,,,,,72,0,11,,,12,,,41,105
42000,note_on,,,,,0,0,4,,,3,,,60,105
42000,note_on,,,,,48,0,4,,,3,,,72,105
42000,note_on,,,,,72,0,2,,,1,,,53,105
42000,note_on,,,,,0,0,1,,,0,,,81,105
42000,note_on,,,,,72,0,8,,,7,,,60,105
42000,note_on,,,,,72,0,10,,,11,,,41,105
42000,note_on,,,,,48,0,1,,,0,,,77,105
42168,note_off,,,,,168,0,10,,,11,,,41,64
42168,note_off,,,,,168,0,2,,,1,,,53,64
42168,note_off,,,,,168,0,8,,,7,,,60,64
42168,note_off,,,,,168,0,9,,,10,,,53,64
42168,note_off,,,,,168,0,6,,,5,,,81,64
42168,note_off,,,,,168,0,11,,,12,,,41,64
42168,note_off,,,,,168,0,7,,,6,,,77,64
42192,note_off,,,,,0,0,4,,,3,,,72,64
42192,note_off,,,,,0,0,3,,,2,,,48,64
42192,note_off,,,,,192,0,5,,,4,,,48,64
42192,note_off,,,,,0,0,1,,,0,,,77,64
42192,note_off,,,,,192,0,4,,,3,,,60,64
42192,note_off,,,,,192,0,1,,,0,,,81,64
42192,note_off,,,,,192,0,3,,,2,,,60,64
42240,note_on,,,,,72,0,2,,,1,,,53,105
42240,note_on,,,,,72,0,10,,,11,,,41,105
42240,note_on,,,,,72,0,9,,,10,,,53,105
42240,note_on,,,,,0,0,3,,,2,,,60,105
42240,note_on,,,,,72,0,8,,,7,,,60,105
42240,note_on,,,,,48,0,3,,,2,,,48,105
42240,note_on,,,,,48,0,1,,,0,,,81,105
42240,note_on,,,,,72,0,7,,,6,,,81,105
42240,note_on,,,,,0,0,1,,,0,,,84,105
42240,note_on,,,,,72,0,11,,,12,,,41,105
42240,note_on,,,,,72,0,6,,,5,,,84,105
42360,note_off,,,,,120,0,6,,,5,,,84,64
42360,note_on,,,,,0,0,1,,,0,,,81,105
42360,note_on,,,,,0,0,6,,,5,,,81,105
42360,note_on,,,,,0,0,7,,,6,,,77,105
42360,note_off,,,,,120,0,7,,,6,,,81,64
42360,note_off,,,,,120,0,1,,,0,,,84,64
42360,note_off,,,,,0,0,1,,,0,,,81,64
42360,note_on,,,,,0,0,1,,,0,,,77,105
42408,note_off,,,,,168,0,8,,,7,,,60,64
42408,note_off,,,,,168,0,10,,,11,,,41,64
42408,note_off,,,,,168,0,11,,,12,,,41,64
42408,note_off,,,,,168,0,9,,,10,,,53,64
42408,note_off,,,,,168,0,2,,,1,,,53,64
42432,note_off,,,,,192,0,3,,,2,,,60,64
42432,note_off,,,,,0,0,3,,,2,,,48,64
42456,note_off,,,,,96,0,7,,,6,,,77,64
42456,note_off,,,,,96,0,1,,,0,,,81,64
42456,note_off,,,,,0,0,1,,,0,,,77,64
42456,note_off,,,,,96,0,6,,,5,,,81,64
42480,note_on,,,,,24,0,1,,,0,,,77,105
42480,note_on,,,,,0,0,1,,,0,,,81,105
42480,note_on,,,,,72,0,8,,,7,,,67,105
42480,note_on,,,,,288,0,4,,,3,,,79,105
42480,note_on,,,,,24,0,7,,,6,,,77,105
42480,note_on,,,,,72,0,2,,,1,,,55,105
42480,note_on,,,,,72,0,11,,,12,,,43,105
42480,note_on,,,,,24,0,6,,,5,,,81,105
42480,note_on,,,,,72,0,10,,,11,,,43,105
42480,note_on,,,,,0,0,3,,,2,,,60,105
42480,note_on,,,,,48,0,3,,,2,,,64,105
42480,note_on,,,,,72,0,9,,,10,,,55,105
42480,note_on,,,,,0,0,4,,,3,,,67,105
42480,note_on,,,,,288,0,5,,,4,,,43,105
42600,note_on,,,,,0,0,1,,,0,,,76,105
42600,note_on,,,,,0,0,7,,,6,,,76,105
42600,note_off,,,,,120,0,6,,,5,,,81,64
42600,note_on,,,,,0,0,6,,,5,,,79,105
42600,note_off,,,,,120,0,1,,,0,,,81,64
42600,note_off,,,,,0,0,1,,,0,,,77,64
42600,note_on,,,,,0,0,1,,,0,,,79,105
42600,note_off,,,,,120,0,7,,,6,,,77,64
42648,note_off,,,,,168,0,2,,,1,,,55,64
42648,note_off,,,,,168,0,8,,,7,,,67,64
42648,note_off,,,,,168,0,11,,,12,,,43,64
42648,note_off,,,,,168,0,9,,,10,,,55,64
42648,note_off,,,,,168,0,10,,,11,,,43,64
42672,note_off,,,,,0,0,4,,,3,,,79,64
42672,note_off,,,,,192,0,5,,,4,,,43,64
42672,note_off,,,,,192,0,4,,,3,,,67,64
42696,note_off,,,,,96,0,7,,,6,,,76,64
42696,note_off,,,,,96,0,1,,,0,,,79,64
42696,note_off,,,,,0,0,1,,,0,,,76,64
42696,note_off,,,,,96,0,6,,,5,,,79,64
42720,note_on,,,,,0,0,4,,,3,,,76,105
42720,note_on,,,,,48,0,4,,,3,,,72,105
42720,note_on,,,,,72,0,8,,,7,,,67,105
42720,note_on,,,,,48,0,5,,,4,,,43,105
42720,note_on,,,,,72,0,11,,,12,,,43,105
42720,note_on,,,,,72,0,10,,,11,,,43,105
42720,note_on,,,,,72,0,9,,,10,,,55,105
42720,note_on,,,,,72,0,2,,,1,,,55,105
42720,note_on,,,,,24,0,7,,,6,,,76,105
42720,note_on,,,,,24,0,6,,,5,,,79,105
42720,note_on,,,,,24,0,1,,,0,,,76,105
42720,note_on,,,,,0,0,1,,,0,,,79,105
42840,note_on,,,,,0,0,1,,,0,,,72,105
42840,note_on,,,,,0,0,1,,,0,,,76,105
42840,note_off,,,,,0,0,1,,,0,,,76,64
42840,note_off,,,,,120,0,1,,,0,,,79,64
42840,note_off,,,,,120,0,6,,,5,,,79,64
42840,note_on,,,,,0,0,6,,,5,,,76,105
42840,note_off,,,,,120,0,7,,,6,,,76,64
42840,note_on,,,,,0,0,7,,,6,,,72,105
42864,note_off,,,,,0,0,3,,,2,,,64,64
42864,note_off,,,,,384,0,3,,,2,,,60,64
42888,note_off,,,,,168,0,8,,,7,,,67,64
42888,note_off,,,,,168,0,9,,,10,,,55,64
42888,note_off,,,,,168,0,10,,,11,,,43,64
42888,note_off,,,,,168,0,2,,,1,,,55,64
42888,note_off,,,,,168,0,11,,,12,,,43,64
42912,note_off,,,,,192,0,5,,,4,,,43,64
42912,note_off,,,,,192,0,4,,,3,,,76,64
42912,note_off,,,,,0,0,4,,,3,,,72,64
42936,note_off,,,,,96,0,6,,,5,,,76,64
42936,note_off,,,,,96,0,1,,,0,,,72,64
42936,note_off,,,,,96,0,7,,,6,,,72,64
42936,note_off,,,,,0,0,1,,,0,,,76,64
42960,note_on,,,,,96,0,3,,,2,,,62,105
42960,note_on,,,,,0,0,3,,,2,,,55,105
42960,note_on,,,,,0,0,4,,,3,,,67,105
42960,note_on,,,,,24,0,6,,,5,,,77,105
42960,note_on,,,,,48,0,4,,,3,,,74,105
42960,note_on,,,,,72,0,9,,,10,,,55,105
42960,note_on,,,,,24,0,7,,,6,,,74,105
42960,note_on,,,,,72,0,2,,,1,,,55,105
42960,note_on,,,,,72,0,11,,,12,,,43,105
42960,note_on,,,,,0,0,1,,,0,,,77,105
42960,note_on,,,,,48,0,5,,,4,,,43,105
42960,note_on,,,,,72,0,8,,,7,,,67,105
42960,note_on,,,,,24,0,1,,,0,,,74,105
42960,note_on,,,,,72,0,10,,,11,,,43,105
43080,note_off,,,,,120,0,6,,,5,,,77,64
43080,note_on,,,,,0,0,1,,,0,,,71,105
43080,note_on,,,,,0,0,1,,,0,,,74,105
43080,note_off,,,,,0,0,1,,,0,,,74,64
43080,note_on,,,,,0,0,7,,,6,,,71,105
43080,note_off,,,,,120,0,7,,,6,,,74,64
43080,note_off,,,,,120,0,8,,,7,,,67,64
43080,note_off,,,,,120,0,1,,,0,,,77,64
43080,note_on,,,,,0,0,8,,,7,,,65,105
43080,note_on,,,,,0,0,6,,,5,,,74,105
43128,note_off,,,,,168,0,2,,,1,,,55,64
43128,note_off,,,,,168,0,11,,,12,,,43,64
43128,note_off,,,,,168,0,9,,,10,,,55,64
43128,note_off,,,,,168,0,10,,,11,,,43,64
43152,note_off,,,,,0,0,4,,,3,,,74,64
43152,note_off,,,,,192,0,5,,,4,,,43,64
43152,note_off,,,,,192,0,3,,,2,,,55,64
43152,note_off,,,,,0,0,3,,,2,,,62,64
43152,note_off,,,,,192,0,4,,,3,,,67,64
43176,note_off,,,,,96,0,8,,,7,,,65,64
43176,note_off,,,,,96,0,7,,,6,,,71,64
43176,note_off,,,,,0,0,1,,,0,,,71,64
43176,note_off,,,,,96,0,1,,,0,,,74,64
43176,note_off,,,,,96,0,6,,,5,,,74,64
43200,note_on,,,,,72,0,10,,,11,,,36,105
43200,note_on,,,,,72,0,9,,,10,,,48,105
43200,note_on,,,,,0,0,3,,,2,,,60,105
43200,note_on,,,,,48,0,3,,,2,,,52,105
43200,note_on,,,,,48,0,5,,,4,,,48,105
43200,set_tempo,,,,,3120,1,0,468750,,,,,,
43200,note_on,,,,,24,0,1,,,0,,,72,105
43200,note_on,,,,,24,0,8,,,7,,,64,105
43200,note_on,,,,,72,0,2,,,1,,,48,105
43200,note_on,,,,,72,0,11,,,12,,,36,105
43200,note_on,,,,,48,0,4,,,3,,,64,105
43200,note_on,,,,,0,0,4,,,3,,,72,105
43200,note_on,,,,,24,0,7,,,6,,,72,105
43200,note_on,,,,,24,0,6,,,5,,,72,105
43368,note_off,,,,,168,0,9,,,10,,,48,64
43368,note_off,,,,,168,0,8,,,7,,,64,64
43368,note_off,,,,,168,0,11,,,12,,,36,64
43368,note_off,,,,,168,0,2,,,1,,,48,64
43368,note_off,,,,,168,0,10,,,11,,,36,64
43392,note_off,,,,,192,0,4,,,3,,,72,64
43392,note_off,,,,,0,0,4,,,3,,,64,64
43392,note_off,,,,,192,0,1,,,0,,,72,64
43392,note_off,,,,,192,0,6,,,5,,,72,64
43392,note_off,,,,,192,0,3,,,2,,,60,64
43392,note_off,,,,,0,0,3,,,2,,,52,64
43392,note_off,,,,,192,0,5,,,4,,,48,64
43392,note_off,,,,,192,0,7,,,6,,,72,64
43440,note_on,,,,,72,0,10,,,11,,,48,105
43440,note_on,,,,,72,0,2,,,1,,,60,105
43440,note_on,,,,,72,0,9,,,10,,,60,105
43440,note_on,,,,,72,0,11,,,12,,,48,105
43608,note_off,,,,,168,0,11,,,12,,,48,64
43608,note_off,,,,,168,0,9,,,10,,,60,64
43608,note_off,,,,,168,0,2,,,1,,,60,64
43608,note_off,,,,,168,0,10,,,11,,,48,64
43680,note_on,,,,,288,0,7,,,6,,,67,70
43680,note_on,,,,,288,0,6,,,5,,,79,70
43824,note_off,,,,,144,0,7,,,6,,,67,64
43824,note_off,,,,,144,0,6,,,5,,,79,64
43920,note_on,,,,,96,0,7,,,6,,,67,70
43920,note_on,,,,,96,0,6,,,5,,,79,70
44160,note_on,,,,,552,0,9,,,10,,,59,70
44160,note_on,,,,,792,0,8,,,7,,,62,70
44160,note_on,,,,,552,0,11,,,12,,,47,70
44160,note_on,,,,,552,0,10,,,11,,,47,70
44400,note_off,,,,,480,0,7,,,6,,,67,64
44400,note_off,,,,,240,0,8,,,7,,,62,64
44400,note_on,,,,,0,0,6,,,5,,,76,58
44400,note_on,,,,,0,0,8,,,7,,,64,58
44400,note_off,,,,,240,0,9,,,10,,,59,64
44400,note_on,,,,,0,0,9,,,10,,,60,70
44400,note_on,,,,,0,0,7,,,6,,,64,58
44400,note_off,,,,,240,0,11,,,12,,,47,64
44400,note_off,,,,,480,0,6,,,5,,,79,64
44400,note_on,,,,,0,0,11,,,12,,,48,70
44400,note_on,,,,,0,0,10,,,11,,,48,70
44400,note_off,,,,,240,0,10,,,11,,,47,64
44496,note_off,,,,,96,0,8,,,7,,,64,64
44496,note_off,,,,,96,0,6,,,5,,,76,64
44496,note_off,,,,,96,0,9,,,10,,,60,64
44496,note_off,,,,,96,0,10,,,11,,,48,64
44496,note_off,,,,,96,0,11,,,12,,,48,64
44496,note_off,,,,,96,0,7,,,6,,,64,64
44640,note_on,,,,,144,0,6,,,5,,,76,70
44640,note_on,,,,,144,0,7,,,6,,,64,70
44880,note_on,,,,,384,0,11,,,12,,,44,70
44880,note_on,,,,,384,0,10,,,11,,,44,58
44880,note_on,,,,,384,0,8,,,7,,,59,70
44880,note_on,,,,,384,0,9,,,10,,,56,58
45120,note_on,,,,,0,0,6,,,5,,,73,58
45120,note_off,,,,,480,0,6,,,5,,,76,64
45120,note_off,,,,,240,0,11,,,12,,,44,64
45120,note_on,,,,,0,0,9,,,10,,,57,70
45120,note_on,,,,,0,0,8,,,7,,,64,58
45120,note_off,,,,,240,0,9,,,10,,,56,64
45120,note_off,,,,,480,0,7,,,6,,,64,64
45120,note_on,,,,,0,0,11,,,12,,,45,70
45120,note_off,,,,,240,0,10,,,11,,,44,64
45120,note_on,,,,,0,0,7,,,6,,,61,70
45120,note_off,,,,,240,0,8,,,7,,,59,64
45120,note_on,,,,,0,0,10,,,11,,,45,70
45216,note_off,,,,,96,0,9,,,10,,,57,64
45216,note_off,,,,,96,0,10,,,11,,,45,64
45216,note_off,,,,,96,0,8,,,7,,,64,64
45216,note_off,,,,,96,0,7,,,6,,,61,64
45216,note_off,,,,,96,0,6,,,5,,,73,64
45216,note_off,,,,,96,0,11,,,12,,,45,64
45360,note_on,,,,,144,0,6,,,5,,,74,58
45360,note_on,,,,,144,0,7,,,6,,,62,58
45360,note_on,,,,,1968,0,1,,,0,,,81,70
45360,note_on,,,,,144,0,9,,,10,,,53,70
45360,note_on,,,,,0,0,1,,,0,,,69,70
45360,note_on,,,,,1752,0,2,,,1,,,53,70
45360,note_on,,,,,144,0,11,,,12,,,41,70
45360,note_on,,,,,144,0,10,,,11,,,41,70
45360,note_on,,,,,144,0,8,,,7,,,69,70
45480,note_off,,,,,120,0,7,,,6,,,62,64
45480,note_on,,,,,0,0,7,,,6,,,65,70
45480,note_off,,,,,120,0,6,,,5,,,74,64
45480,note_on,,,,,0,0,6,,,5,,,77,70
45528,note_off,,,,,168,0,11,,,12,,,41,64
45528,note_off,,,,,168,0,2,,,1,,,53,64
45528,note_off,,,,,168,0,10,,,11,,,41,64
45528,note_off,,,,,168,0,9,,,10,,,53,64
45528,note_off,,,,,168,0,8,,,7,,,69,64
45600,note_off,,,,,120,0,7,,,6,,,65,64
45600,note_on,,,,,72,0,9,,,10,,,50,70
45600,note_on,,,,,0,0,6,,,5,,,81,70
45600,note_off,,,,,120,0,6,,,5,,,77,64
45600,note_on,,,,,72,0,8,,,7,,,65,70
45600,note_on,,,,,0,0,7,,,6,,,69,70
45600,set_tempo,,,,,2400,1,0,476190,,,,,,
45600,note_on,,,,,72,0,2,,,1,,,50,70
45600,note_on,,,,,72,0,10,,,11,,,38,70
45600,note_on,,,,,72,0,11,,,12,,,38,70
45720,note_on,,,,,0,0,8,,,7,,,62,70
45720,note_on,,,,,0,0,6,,,5,,,77,70
45720,note_off,,,,,120,0,6,,,5,,,81,64
45720,note_on,,,,,0,0,7,,,6,,,65,70
45720,note_off,,,,,120,0,7,,,6,,,69,64
45720,note_off,,,,,120,0,8,,,7,,,65,64
45744,note_off,,,,,0,0,1,,,0,,,81,64
45744,note_off,,,,,384,0,1,,,0,,,69,64
45768,note_off,,,,,168,0,9,,,10,,,50,64
45768,note_off,,,,,168,0,2,,,1,,,50,64
45768,note_off,,,,,168,0,11,,,12,,,38,64
45768,note_off,,,,,168,0,10,,,11,,,38,64
45816,note_off,,,,,96,0,8,,,7,,,62,64
45840,note_on,,,,,0,0,3,,,2,,,62,70
45840,note_on,,,,,72,0,2,,,1,,,55,70
45840,note_off,,,,,120,0,7,,,6,,,65,64
45840,set_tempo,,,,,240,1,0,476190,,,,,,
45840,note_off,,,,,120,0,6,,,5,,,77,64
45840,note_on,,,,,0,0,6,,,5,,,74,70
45840,note_on,,,,,0,0,7,,,6,,,62,70
45840,note_on,,,,,72,0,10,,,11,,,43,70
45840,note_on,,,,,0,0,1,,,0,,,77,70
45840,note_on,,,,,96,0,1,,,0,,,71,70
45840,note_on,,,,,72,0,11,,,12,,,43,70
45840,note_on,,,,,72,0,9,,,10,,,55,70
45840,note_on,,,,,2448,0,3,,,2,,,55,70
45840,note_on,,,,,24,0,8,,,7,,,65,70
45960,note_on,,,,,0,0,1,,,0,,,74,70
45960,note_off,,,,,120,0,6,,,5,,,74,64
45960,note_off,,,,,120,0,1,,,0,,,77,64
45960,note_off,,,,,120,0,8,,,7,,,65,64
45960,note_on,,,,,0,0,6,,,5,,,71,70
45960,note_on,,,,,0,0,7,,,6,,,59,70
45960,note_on,,,,,0,0,8,,,7,,,62,70
45960,note_off,,,,,120,0,7,,,6,,,62,64
46008,note_off,,,,,168,0,2,,,1,,,55,64
46008,note_off,,,,,168,0,11,,,12,,,43,64
46008,note_off,,,,,168,0,9,,,10,,,55,64
46008,note_off,,,,,168,0,10,,,11,,,43,64
46032,note_off,,,,,0,0,3,,,2,,,55,64
46032,note_off,,,,,192,0,3,,,2,,,62,64
46056,note_off,,,,,96,0,7,,,6,,,59,64
46056,note_off,,,,,96,0,6,,,5,,,71,64
46056,note_off,,,,,96,0,8,,,7,,,62,64
46056,note_off,,,,,0,0,1,,,0,,,71,64
46056,note_off,,,,,96,0,1,,,0,,,74,64
46080,note_on,,,,,24,0,1,,,0,,,72,58
46080,note_on,,,,,72,0,2,,,1,,,48,58
46080,set_tempo,,,,,240,1,0,483871,,,,,,
46080,note_on,,,,,48,0,3,,,2,,,52,58
46080,note_on,,,,,0,0,3,,,2,,,60,58
46080,note_on,,,,,24,0,8,,,7,,,60,58
46080,note_on,,,,,72,0,11,,,12,,,36,58
46080,note_on,,,,,72,0,9,,,10,,,48,58
46080,note_on,,,,,72,0,10,,,11,,,36,58
46080,note_on,,,,,24,0,6,,,5,,,72,70
46080,note_on,,,,,24,0,7,,,6,,,60,58
46272,note_off,,,,,192,0,2,,,1,,,48,64
46272,note_off,,,,,192,0,10,,,11,,,36,64
46272,note_off,,,,,192,0,6,,,5,,,72,64
46272,note_off,,,,,192,0,9,,,10,,,48,64
46272,note_off,,,,,192,0,7,,,6,,,60,64
46272,note_off,,,,,0,0,3,,,2,,,52,64
46272,note_off,,,,,192,0,3,,,2,,,60,64
46272,note_off,,,,,192,0,1,,,0,,,72,64
46272,note_off,,,,,192,0,8,,,7,,,60,64
46272,note_off,,,,,192,0,11,,,12,,,36,64
46560,note_on,,,,,288,0,6,,,5,,,55,58
46560,note_on,,,,,288,0,1,,,0,,,67,70
46680,note_on,,,,,0,0,1,,,0,,,72,70
46680,note_off,,,,,120,0,1,,,0,,,67,64
46680,note_on,,,,,0,0,6,,,5,,,60,70
46680,note_off,,,,,120,0,6,,,5,,,55,64
46776,note_off,,,,,96,0,6,,,5,,,60,64
46776,note_off,,,,,96,0,1,,,0,,,72,64
46800,note_on,,,,,24,0,1,,,0,,,71,70
46800,note_on,,,,,24,0,6,,,5,,,59,70
46800,note_on,,,,,528,0,10,,,11,,,36,58
46800,note_on,,,,,528,0,7,,,6,,,55,58
46800,note_on,,,,,528,0,8,,,7,,,52,58
46800,set_tempo,,,,,720,1,0,468750,,,,,,
46800,note_on,,,,,528,0,9,,,10,,,48,58
46800,note_on,,,,,528,0,11,,,12,,,36,58
46920,note_off,,,,,120,0,1,,,0,,,71,64
46920,note_off,,,,,120,0,6,,,5,,,59,64
46920,note_on,,,,,0,0,6,,,5,,,60,70
46920,note_on,,,,,0,0,1,,,0,,,72,70
46968,note_off,,,,,168,0,7,,,6,,,55,64
46968,note_off,,,,,168,0,8,,,7,,,52,64
46968,note_off,,,,,168,0,11,,,12,,,36,64
46968,note_off,,,,,168,0,10,,,11,,,36,64
46968,note_off,,,,,168,0,9,,,10,,,48,64
47040,note_off,,,,,120,0,1,,,0,,,72,64
47040,note_off,,,,,120,0,6,,,5,,,60,64
47040,note_on,,,,,0,0,6,,,5,,,62,70
47040,note_on,,,,,0,0,1,,,0,,,74,70
47160,note_off,,,,,120,0,6,,,5,,,62,64
47160,note_on,,,,,0,0,1,,,0,,,72,70
47160,note_on,,,,,0,0,6,,,5,,,60,70
47160,note_off,,,,,120,0,1,,,0,,,74,64
47280,note_on,,,,,0,0,1,,,0,,,76,70
47280,note_on,,,,,0,0,6,,,5,,,64,70
47280,note_off,,,,,120,0,6,,,5,,,60,64
47280,note_off,,,,,120,0,1,,,0,,,72,64
47400,note_off,,,,,120,0,6,,,5,,,64,64
47400,note_on,,,,,0,0,6,,,5,,,60,70
47400,note_off,,,,,120,0,1,,,0,,,76,64
47400,note_on,,,,,0,0,1,,,0,,,72,70
47496,note_off,,,,,96,0,6,,,5,,,60,64
47496,note_off,,,,,96,0,1,,,0,,,72,64
47520,note_on,,,,,24,0,6,,,5,,,55,70
47520,note_on,,,,,24,0,1,,,0,,,67,70
47712,note_off,,,,,192,0,6,,,5,,,55,64
47712,note_off,,,,,192,0,1,,,0,,,67,64
47760,note_on,,,,,792,0,7,,,6,,,55,58
47760,note_on,,,,,792,0,9,,,10,,,52,58
47760,note_on,,,,,792,0,11,,,12,,,40,58
47760,note_on,,,,,792,0,8,,,7,,,48,58
47760,note_on,,,,,792,0,10,,,11,,,40,58
47928,note_off,,,,,168,0,9,,,10,,,52,64
47928,note_off,,,,,168,0,8,,,7,,,48,64
47928,note_off,,,,,168,0,10,,,11,,,40,64
47928,note_off,,,,,168,0,11,,,12,,,40,64
47928,note_off,,,,,168,0,7,,,6,,,55,64
48000,note_on,,,,,72,0,8,,,7,,,52,58
48000,note_on,,,,,288,0,6,,,5,,,55,70
48000,note_on,,,,,72,0,9,,,10,,,48,58
48000,note_on,,,,,72,0,7,,,6,,,55,58
48000,note_on,,,,,72,0,10,,,11,,,36,58
48000,note_on,,,,,72,0,11,,,12,,,36,58
48000,note_on,,,,,288,0,1,,,0,,,67,70
48120,note_on,,,,,0,0,1,,,0,,,74,70
48120,note_off,,,,,120,0,1,,,0,,,67,64
48120,note_on,,,,,0,0,6,,,5,,,62,70
48120,note_off,,,,,120,0,6,,,5,,,55,64
48168,note_off,,,,,168,0,7,,,6,,,55,64
48168,note_off,,,,,168,0,11,,,12,,,36,64
48168,note_off,,,,,168,0,9,,,10,,,48,64
48168,note_off,,,,,168,0,10,,,11,,,36,64
48168,note_off,,,,,168,0,8,,,7,,,52,64
48216,note_off,,,,,96,0,1,,,0,,,74,64
48216,note_off,,,,,96,0,6,,,5,,,62,64
48240,note_on,,,,,24,0,6,,,5,,,61,70
48240,note_on,,,,,72,0,10,,,11,,,35,58
48240,note_on,,,,,72,0,7,,,6,,,55,58
48240,note_on,,,,,72,0,9,,,10,,,47,58
48240,note_on,,,,,24,0,1,,,0,,,73,70
48240,note_on,,,,,72,0,11,,,12,,,35,58
48240,note_on,,,,,72,0,8,,,7,,,53,58
48360,note_off,,,,,120,0,1,,,0,,,73,64
48360,note_off,,,,,120,0,6,,,5,,,61,64
48360,note_on,,,,,0,0,6,,,5,,,62,70
48360,note_on,,,,,0,0,1,,,0,,,74,70
48408,note_off,,,,,168,0,8,,,7,,,53,64
48408,note_off,,,,,168,0,9,,,10,,,47,64
48408,note_off,,,,,168,0,10,,,11,,,35,64
48408,note_off,,,,,168,0,11,,,12,,,35,64
48408,note_off,,,,,168,0,7,,,6,,,55,64
48480,note_on,,,,,0,0,1,,,0,,,76,70
48480,note_off,,,,,120,0,1,,,0,,,74,64
48480,note_on,,,,,0,0,6,,,5,,,64,70
48480,note_off,,,,,120,0,6,,,5,,,62,64
48600,note_on,,,,,0,0,6,,,5,,,62,70
48600,note_off,,,,,120,0,6,,,5,,,64,64
48600,note_off,,,,,120,0,1,,,0,,,76,64
48600,note_on,,,,,0,0,1,,,0,,,74,70
48720,note_on,,,,,0,0,6,,,5,,,65,70
48720,note_off,,,,,120,0,6,,,5,,,62,64
48720,note_off,,,,,120,0,1,,,0,,,74,64
48720,note_on,,,,,0,0,1,,,0,,,77,70
48840,note_off,,,,,120,0,1,,,0,,,77,64
48840,note_on,,,,,0,0,1,,,0,,,74,70
48840,note_off,,,,,120,0,6,,,5,,,65,64
48840,note_on,,,,,0,0,6,,,5,,,62,70
48936,note_off,,,,,96,0,1,,,0,,,74,64
48936,note_off,,,,,96,0,6,,,5,,,62,64
48960,note_on,,,,,24,0,6,,,5,,,55,70
48960,note_on,,,,,24,0,1,,,0,,,67,70
49152,note_off,,,,,192,0,6,,,5,,,55,64
49152,note_off,,,,,192,0,1,,,0,,,67,64
49200,note_on,,,,,792,0,9,,,10,,,47,58
49200,note_on,,,,,792,0,10,,,11,,,35,58
49200,note_on,,,,,792,0,7,,,6,,,55,58
49200,note_on,,,,,792,0,11,,,12,,,35,58
49200,note_on,,,,,792,0,8,,,7,,,50,58
49368,note_off,,,,,168,0,7,,,6,,,55,64
49368,note_off,,,,,168,0,11,,,12,,,35,64
49368,note_off,,,,,168,0,10,,,11,,,35,64
49368,note_off,,,,,168,0,9,,,10,,,47,64
49368,note_off,,,,,168,0,8,,,7,,,50,64
49440,note_on,,,,,72,0,8,,,7,,,50,58
49440,note_on,,,,,72,0,10,,,11,,,31,58
49440,note_on,,,,,72,0,7,,,6,,,55,58
49440,note_on,,,,,72,0,11,,,12,,,31,58
49440,note_on,,,,,288,0,6,,,5,,,55,70
49440,note_on,,,,,288,0,1,,,0,,,67,70
49440,note_on,,,,,72,0,9,,,10,,,43,58
49560,note_on,,,,,0,0,1,,,0,,,77,70
49560,note_off,,,,,120,0,1,,,0,,,67,64
49560,note_off,,,,,120,0,6,,,5,,,55,64
49560,note_on,,,,,0,0,6,,,5,,,65,70
49608,note_off,,,,,168,0,10,,,11,,,31,64
49608,note_off,,,,,168,0,11,,,12,,,31,64
49608,note_off,,,,,168,0,7,,,6,,,55,64
49608,note_off,,,,,168,0,9,,,10,,,43,64
49608,note_off,,,,,168,0,8,,,7,,,50,64
49656,note_off,,,,,96,0,1,,,0,,,77,64
49656,note_off,,,,,96,0,6,,,5,,,65,64
49680,note_on,,,,,72,0,7,,,6,,,60,58
49680,note_on,,,,,72,0,9,,,10,,,48,58
49680,note_on,,,,,24,0,6,,,5,,,65,70
49680,note_on,,,,,72,0,10,,,11,,,36,58
49680,note_on,,,,,72,0,11,,,12,,,36,58
49680,note_on,,,,,72,0,8,,,7,,,48,58
49680,note_on,,,,,24,0,1,,,0,,,77,70
49800,note_off,,,,,120,0,6,,,5,,,65,64
49800,note_on,,,,,0,0,6,,,5,,,64,70
49800,note_off,,,,,120,0,1,,,0,,,77,64
49800,note_on,,,,,0,0,1,,,0,,,76,70
49848,note_off,,,,,168,0,9,,,10,,,48,64
49848,note_off,,,,,168,0,10,,,11,,,36,64
49848,note_off,,,,,168,0,11,,,12,,,36,64
49920,note_on,,,,,72,0,9,,,10,,,58,58
49920,note_off,,,,,120,0,6,,,5,,,64,64
49920,note_on,,,,,72,0,10,,,11,,,46,58
49920,note_off,,,,,120,0,1,,,0,,,76,64
49920,note_on,,,,,0,0,1,,,0,,,74,70
49920,note_on,,,,,0,0,6,,,5,,,62,70
49920,note_on,,,,,72,0,11,,,12,,,46,58
50040,note_off,,,,,120,0,6,,,5,,,62,64
50040,note_on,,,,,0,0,6,,,5,,,60,70
50040,note_on,,,,,0,0,1,,,0,,,72,70
50040,note_off,,,,,120,0,1,,,0,,,74,64
50160,note_on,,,,,0,0,9,,,10,,,57,58
50160,note_on,,,,,0,0,11,,,12,,,45,58
50160,note_off,,,,,120,0,1,,,0,,,72,64
50160,note_on,,,,,0,0,1,,,0,,,77,70
50160,note_off,,,,,120,0,6,,,5,,,60,64
50160,note_off,,,,,240,0,10,,,11,,,46,64
50160,note_off,,,,,240,0,9,,,10,,,58,64
50160,note_on,,,,,0,0,6,,,5,,,65,70
50160,note_off,,,,,240,0,11,,,12,,,46,64
50160,note_on,,,,,0,0,10,,,11,,,45,58
50256,note_off,,,,,576,0,7,,,6,,,60,64
50256,note_off,,,,,576,0,8,,,7,,,48,64
50280,note_off,,,,,120,0,9,,,10,,,57,64
50280,note_on,,,,,0,0,9,,,10,,,53,58
50280,note_on,,,,,0,0,10,,,11,,,41,58
50280,note_on,,,,,0,0,6,,,5,,,69,70
50280,note_off,,,,,120,0,11,,,12,,,45,64
50280,note_off,,,,,120,0,10,,,11,,,45,64
50280,note_off,,,,,120,0,1,,,0,,,77,64
50280,note_off,,,,,120,0,6,,,5,,,65,64
50280,note_on,,,,,0,0,1,,,0,,,81,70
50280,note_on,,,,,0,0,11,,,12,,,41,58
50376,note_off,,,,,96,0,11,,,12,,,41,64
50376,note_off,,,,,96,0,10,,,11,,,41,64
50376,note_off,,,,,96,0,6,,,5,,,69,64
50376,note_off,,,,,96,0,1,,,0,,,81,64
50376,note_off,,,,,96,0,9,,,10,,,53,64
50400,note_on,,,,,24,0,10,,,11,,,40,58
50400,note_on,,,,,144,0,8,,,7,,,48,58
50400,note_on,,,,,24,0,9,,,10,,,52,58
50400,note_on,,,,,24,0,1,,,0,,,79,70
50400,note_on,,,,,24,0,6,,,5,,,67,70
50400,note_on,,,,,144,0,7,,,6,,,60,58
50400,note_on,,,,,24,0,11,,,12,,,40,58
50466,note_off,,,,,66,0,1,,,0,,,79,64
50466,note_off,,,,,66,0,6,,,5,,,67,64
50520,note_on,,,,,54,0,6,,,5,,,72,70
50520,note_on,,,,,54,0,1,,,0,,,84,70
50592,note_off,,,,,192,0,8,,,7,,,48,64
50592,note_off,,,,,192,0,11,,,12,,,40,64
50592,note_off,,,,,192,0,9,,,10,,,52,64
50592,note_off,,,,,192,0,7,,,6,,,60,64
50592,note_off,,,,,192,0,10,,,11,,,40,64
50640,note_on,,,,,0,0,1,,,0,,,83,70
50640,note_off,,,,,120,0,1,,,0,,,84,64
50640,note_off,,,,,120,0,6,,,5,,,72,64
50640,note_on,,,,,0,0,6,,,5,,,71,70
50760,note_on,,,,,0,0,1,,,0,,,84,70
50760,note_off,,,,,120,0,6,,,5,,,71,64
50760,note_on,,,,,0,0,6,,,5,,,72,70
50760,note_off,,,,,120,0,1,,,0,,,83,64
50880,note_on,,,,,288,0,8,,,7,,,55,58
50880,note_on,,,,,288,0,9,,,10,,,48,58
50880,note_on,,,,,0,0,6,,,5,,,71,70
50880,note_on,,,,,288,0,11,,,12,,,36,58
50880,note_on,,,,,288,0,10,,,11,,,36,58
50880,note_off,,,,,120,0,1,,,0,,,84,64
50880,note_on,,,,,0,0,1,,,0,,,83,70
50880,note_on,,,,,288,0,7,,,6,,,64,58
50880,note_off,,,,,120,0,6,,,5,,,72,64
51000,note_off,,,,,120,0,1,,,0,,,83,64
51000,note_on,,,,,0,0,1,,,0,,,84,70
51000,note_on,,,,,0,0,6,,,5,,,72,70
51000,note_off,,,,,120,0,6,,,5,,,71,64
51072,note_off,,,,,192,0,10,,,11,,,36,64
51072,note_off,,,,,192,0,7,,,6,,,64,64
51072,note_off,,,,,192,0,11,,,12,,,36,64
51072,note_off,,,,,192,0,8,,,7,,,55,64
51072,note_off,,,,,192,0,9,,,10,,,48,64
51096,note_off,,,,,96,0,6,,,5,,,72,64
51096,note_off,,,,,96,0,1,,,0,,,84,64
51120,note_on,,,,,24,0,6,,,5,,,67,70
51120,note_on,,,,,48,0,7,,,6,,,62,58
51120,note_on,,,,,48,0,11,,,12,,,43,58
51120,note_on,,,,,24,0,1,,,0,,,79,70
51120,note_on,,,,,48,0,9,,,10,,,55,58
51120,note_on,,,,,48,0,8,,,7,,,59,58
51120,note_on,,,,,48,0,10,,,11,,,43,58
51186,note_off,,,,,66,0,1,,,0,,,79,64
51186,note_off,,,,,66,0,6,,,5,,,67,64
51240,note_on,,,,,54,0,1,,,0,,,79,70
51240,note_on,,,,,54,0,6,,,5,,,67,70
51312,note_off,,,,,192,0,11,,,12,,,43,64
51312,note_off,,,,,192,0,7,,,6,,,62,64
51312,note_off,,,,,192,0,10,,,11,,,43,64
51312,note_off,,,,,192,0,8,,,7,,,59,64
51312,note_off,,,,,192,0,9,,,10,,,55,64
51360,note_off,,,,,120,0,6,,,5,,,67,64
51360,note_on,,,,,0,0,6,,,5,,,66,70
51360,note_off,,,,,120,0,1,,,0,,,79,64
51360,note_on,,,,,0,0,1,,,0,,,78,70
51480,note_off,,,,,120,0,6,,,5,,,66,64
51480,note_on,,,,,0,0,6,,,5,,,67,70
51480,note_off,,,,,120,0,1,,,0,,,78,64
51480,note_on,,,,,0,0,1,,,0,,,79,70
51600,note_on,,,,,288,0,8,,,7,,,53,58
51600,note_on,,,,,288,0,11,,,12,,,31,58
51600,note_on,,,,,288,0,7,,,6,,,59,58
51600,note_on,,,,,288,0,9,,,10,,,43,58
51600,note_off,,,,,120,0,1,,,0,,,79,64
51600,note_on,,,,,288,0,10,,,11,,,31,58
51600,note_on,,,,,0,0,6,,,5,,,66,70
51600,note_off,,,,,120,0,6,,,5,,,67,64
51600,note_on,,,,,0,0,1,,,0,,,78,70
51720,note_off,,,,,120,0,1,,,0,,,78,64
51720,note_on,,,,,0,0,1,,,0,,,79,70
51720,note_on,,,,,0,0,6,,,5,,,67,70
51720,note_off,,,,,120,0,6,,,5,,,66,64
51792,note_off,,,,,192,0,9,,,10,,,43,64
51792,note_off,,,,,192,0,7,,,6,,,59,64
51792,note_off,,,,,192,0,11,,,12,,,31,64
51792,note_off,,,,,192,0,10,,,11,,,31,64
51792,note_off,,,,,192,0,8,,,7,,,53,64
51816,note_off,,,,,96,0,1,,,0,,,79,64
51816,note_off,,,,,96,0,6,,,5,,,67,64
51840,note_on,,,,,48,0,11,,,12,,,36,58
51840,note_on,,,,,48,0,7,,,6,,,60,58
51840,set_tempo,,,,,5040,1,0,483871,,,,,,
51840,note_on,,,,,24,0,6,,,5,,,60,58
51840,note_on,,,,,24,0,1,,,0,,,72,58
51840,note_on,,,,,48,0,9,,,10,,,48,58
51840,note_on,,,,,48,0,10,,,11,,,36,58
51840,note_on,,,,,48,0,8,,,7,,,52,58
52032,note_off,,,,,192,0,8,,,7,,,52,64
52032,note_off,,,,,192,0,6,,,5,,,60,64
52032,note_off,,,,,192,0,10,,,11,,,36,64
52032,note_off,,,,,192,0,9,,,10,,,48,64
52032,note_off,,,,,192,0,11,,,12,,,36,64
52032,note_off,,,,,192,0,7,,,6,,,60,64
52032,note_off,,,,,192,0,1,,,0,,,72,64
52080,note_on,,,,,48,0,11,,,12,,,48,58
52080,note_on,,,,,48,0,9,,,10,,,60,58
52080,note_on,,,,,48,0,10,,,11,,,48,58
52272,note_off,,,,,192,0,10,,,11,,,48,64
52272,note_off,,,,,192,0,9,,,10,,,60,64
52272,note_off,,,,,192,0,11,,,12,,,48,64
52320,note_on,,,,,288,0,6,,,5,,,55,58
52320,note_on,,,,,288,0,1,,,0,,,67,58
52440,note_on,,,,,0,0,1,,,0,,,72,70
52440,note_off,,,,,120,0,1,,,0,,,67,64
52440,note_on,,,,,0,0,6,,,5,,,60,70
52440,note_off,,,,,120,0,6,,,5,,,55,64
52536,note_off,,,,,96,0,1,,,0,,,72,64
52536,note_off,,,,,96,0,6,,,5,,,60,64
52560,set_tempo,,,,,720,1,0,468750,,,,,,
52560,note_on,,,,,24,0,1,,,0,,,71,70
52560,note_on,,,,,288,0,9,,,10,,,48,58
52560,note_on,,,,,24,0,6,,,5,,,59,70
52560,note_on,,,,,528,0,8,,,7,,,52,58
52560,note_on,,,,,528,0,7,,,6,,,55,58
52560,note_on,,,,,288,0,11,,,12,,,36,58
52560,note_on,,,,,288,0,10,,,11,,,36,58
52680,note_off,,,,,120,0,1,,,0,,,71,64
52680,note_on,,,,,0,0,1,,,0,,,72,70
52680,note_on,,,,,0,0,6,,,5,,,60,70
52680,note_off,,,,,120,0,6,,,5,,,59,64
52728,note_off,,,,,168,0,10,,,11,,,36,64
52728,note_off,,,,,168,0,7,,,6,,,55,64
52728,note_off,,,,,168,0,9,,,10,,,48,64
52728,note_off,,,,,168,0,11,,,12,,,36,64
52728,note_off,,,,,168,0,8,,,7,,,52,64
52800,note_on,,,,,0,0,1,,,0,,,74,70
52800,note_off,,,,,120,0,1,,,0,,,72,64
52800,note_on,,,,,0,0,6,,,5,,,62,70
52800,note_off,,,,,120,0,6,,,5,,,60,64
52920,note_on,,,,,0,0,1,,,0,,,72,70
52920,note_off,,,,,120,0,1,,,0,,,74,64
52920,note_off,,,,,120,0,6,,,5,,,62,64
52920,note_on,,,,,0,0,6,,,5,,,60,70
53040,note_on,,,,,0,0,1,,,0,,,76,70
53040,note_off,,,,,120,0,1,,,0,,,72,64
53040,note_on,,,,,0,0,6,,,5,,,64,70
53040,note_off,,,,,120,0,6,,,5,,,60,64
53160,note_on,,,,,0,0,1,,,0,,,72,70
53160,note_off,,,,,120,0,6,,,5,,,64,64
53160,note_off,,,,,120,0,1,,,0,,,76,64
53160,note_on,,,,,0,0,6,,,5,,,60,70
53256,note_off,,,,,96,0,6,,,5,,,60,64
53256,note_off,,,,,96,0,1,,,0,,,72,64
53280,note_on,,,,,24,0,6,,,5,,,55,70
53280,note_on,,,,,24,0,1,,,0,,,67,70
53472,note_off,,,,,192,0,1,,,0,,,67,64
53472,note_off,,,,,192,0,6,,,5,,,55,64
53520,note_on,,,,,792,0,10,,,11,,,40,58
53520,note_on,,,,,792,0,9,,,10,,,52,58
53520,note_on,,,,,792,0,7,,,6,,,55,58
53520,note_on,,,,,792,0,8,,,7,,,48,58
53520,note_on,,,,,792,0,11,,,12,,,40,58
53688,note_off,,,,,168,0,9,,,10,,,52,64
53688,note_off,,,,,168,0,7,,,6,,,55,64
53688,note_off,,,,,168,0,10,,,11,,,40,64
53688,note_off,,,,,168,0,11,,,12,,,40,64
53688,note_off,,,,,168,0,8,,,7,,,48,64
53760,note_on,,,,,72,0,9,,,10,,,48,58
53760,note_on,,,,,288,0,6,,,5,,,55,70
53760,note_on,,,,,72,0,10,,,11,,,36,58
53760,note_on,,,,,72,0,11,,,12,,,36,58
53760,note_on,,,,,72,0,7,,,6,,,55,58
53760,note_on,,,,,288,0,1,,,0,,,67,70
53760,note_on,,,,,72,0,8,,,7,,,52,58
53880,note_off,,,,,120,0,1,,,0,,,67,64
53880,note_on,,,,,0,0,6,,,5,,,62,70
53880,note_off,,,,,120,0,6,,,5,,,55,64
53880,note_on,,,,,0,0,1,,,0,,,74,70
53928,note_off,,,,,168,0,8,,,7,,,52,64
53928,note_off,,,,,168,0,9,,,10,,,48,64
53928,note_off,,,,,168,0,11,,,12,,,36,64
53928,note_off,,,,,168,0,7,,,6,,,55,64
53928,note_off,,,,,168,0,10,,,11,,,36,64
53976,note_off,,,,,96,0,6,,,5,,,62,64
53976,note_off,,,,,96,0,1,,,0,,,74,64
54000,note_on,,,,,24,0,1,,,0,,,73,70
54000,note_on,,,,,72,0,11,,,12,,,35,58
54000,note_on,,,,,72,0,7,,,6,,,55,58
54000,note_on,,,,,24,0,6,,,5,,,61,70
54000,note_on,,,,,72,0,9,,,10,,,47,58
54000,note_on,,,,,72,0,8,,,7,,,53,58
54000,note_on,,,,,72,0,10,,,11,,,35,58
54120,note_off,,,,,120,0,6,,,5,,,61,64
54120,note_on,,,,,0,0,6,,,5,,,62,70
54120,note_off,,,,,120,0,1,,,0,,,73,64
54120,note_on,,,,,0,0,1,,,0,,,74,70
54168,note_off,,,,,168,0,9,,,10,,,47,64
54168,note_off,,,,,168,0,8,,,7,,,53,64
54168,note_off,,,,,168,0,7,,,6,,,55,64
54168,note_off,,,,,168,0,11,,,12,,,35,64
54168,note_off,,,,,168,0,10,,,11,,,35,64
54240,note_off,,,,,120,0,1,,,0,,,74,64
54240,note_on,,,,,0,0,1,,,0,,,76,70
54240,note_on,,,,,0,0,6,,,5,,,64,70
54240,note_off,,,,,120,0,6,,,5,,,62,64
54360,note_off,,,,,120,0,1,,,0,,,76,64
54360,note_on,,,,,0,0,1,,,0,,,74,70
54360,note_off,,,,,120,0,6,,,5,,,64,64
54360,note_on,,,,,0,0,6,,,5,,,62,70
54480,note_on,,,,,0,0,1,,,0,,,77,70
54480,note_off,,,,,120,0,1,,,0,,,74,64
54480,note_off,,,,,120,0,6,,,5,,,62,64
54480,note_on,,,,,0,0,6,,,5,,,65,70
54600,note_off,,,,,120,0,6,,,5,,,65,64
54600,note_on,,,,,0,0,1,,,0,,,74,70
54600,note_off,,,,,120,0,1,,,0,,,77,64
54600,note_on,,,,,0,0,6,,,5,,,62,70
54696,note_off,,,,,96,0,6,,,5,,,62,64
54696,note_off,,,,,96,0,1,,,0,,,74,64
54720,note_on,,,,,24,0,6,,,5,,,55,70
54720,note_on,,,,,24,0,1,,,0,,,67,70
54912,note_off,,,,,192,0,6,,,5,,,55,64
54912,note_off,,,,,192,0,1,,,0,,,67,64
54960,note_on,,,,,792,0,8,,,7,,,50,58
54960,note_on,,,,,792,0,9,,,10,,,47,58
54960,note_on,,,,,792,0,7,,,6,,,55,58
54960,note_on,,,,,792,0,10,,,11,,,35,58
54960,note_on,,,,,792,0,11,,,12,,,35,58
55128,note_off,,,,,168,0,10,,,11,,,35,64
55128,note_off,,,,,168,0,9,,,10,,,47,64
55128,note_off,,,,,168,0,11,,,12,,,35,64
55128,note_off,,,,,168,0,8,,,7,,,50,64
55128,note_off,,,,,168,0,7,,,6,,,55,64
55200,note_on,,,,,288,0,6,,,5,,,55,70
55200,note_on,,,,,72,0,10,,,11,,,31,58
55200,note_on,,,,,72,0,8,,,7,,,50,58
55200,note_on,,,,,288,0,1,,,0,,,67,70
55200,note_on,,,,,72,0,7,,,6,,,55,58
55200,note_on,,,,,72,0,11,,,12,,,31,58
55200,note_on,,,,,72,0,9,,,10,,,43,58
55320,note_off,,,,,120,0,1,,,0,,,67,64
55320,note_off,,,,,120,0,6,,,5,,,55,64
55320,note_on,,,,,0,0,6,,,5,,,65,70
55320,note_on,,,,,0,0,1,,,0,,,77,70
55368,note_off,,,,,168,0,7,,,6,,,55,64
55368,note_off,,,,,168,0,11,,,12,,,31,64
55368,note_off,,,,,168,0,10,,,11,,,31,64
55368,note_off,,,,,168,0,9,,,10,,,43,64
55368,note_off,,,,,168,0,8,,,7,,,50,64
55416,note_off,,,,,96,0,6,,,5,,,65,64
55416,note_off,,,,,96,0,1,,,0,,,77,64
55440,note_on,,,,,72,0,7,,,6,,,60,58
55440,note_on,,,,,72,0,9,,,10,,,48,58
55440,note_on,,,,,72,0,10,,,11,,,36,58
55440,note_on,,,,,24,0,1,,,0,,,77,70
55440,note_on,,,,,72,0,8,,,7,,,48,58
55440,note_on,,,,,72,0,11,,,12,,,36,58
55440,note_on,,,,,24,0,6,,,5,,,65,70
55560,note_off,,,,,120,0,1,,,0,,,77,64
55560,note_on,,,,,0,0,1,,,0,,,76,70
55560,note_off,,,,,120,0,6,,,5,,,65,64
55560,note_on,,,,,0,0,6,,,5,,,64,70
55608,note_off,,,,,168,0,11,,,12,,,36,64
55608,note_off,,,,,168,0,10,,,11,,,36,64
55608,note_off,,,,,168,0,9,,,10,,,48,64
55680,note_on,,,,,72,0,9,,,10,,,58,58
55680,note_off,,,,,120,0,6,,,5,,,64,64
55680,note_on,,,,,0,0,6,,,5,,,62,70
55680,note_on,,,,,0,0,1,,,0,,,74,70
55680,note_off,,,,,120,0,1,,,0,,,76,64
55680,note_on,,,,,72,0,10,,,11,,,46,58
55680,note_on,,,,,72,0,11,,,12,,,46,58
55800,note_on,,,,,0,0,6,,,5,,,60,70
55800,note_on,,,,,0,0,1,,,0,,,72,70
55800,note_off,,,,,120,0,1,,,0,,,74,64
55800,note_off,,,,,120,0,6,,,5,,,62,64
55920,note_on,,,,,0,0,11,,,12,,,45,58
55920,note_on,,,,,0,0,10,,,11,,,45,58
55920,note_off,,,,,240,0,10,,,11,,,46,64
55920,note_off,,,,,240,0,11,,,12,,,46,64
55920,note_on,,,,,0,0,9,,,10,,,57,58
55920,note_on,,,,,0,0,1,,,0,,,77,70
55920,note_off,,,,,240,0,9,,,10,,,58,64
55920,note_off,,,,,120,0,6,,,5,,,60,64
55920,note_on,,,,,0,0,6,,,5,,,65,70
55920,note_off,,,,,120,0,1,,,0,,,72,64
56016,note_off,,,,,576,0,8,,,7,,,48,64
56016,note_off,,,,,576,0,7,,,6,,,60,64
56040,note_on,,,,,0,0,1,,,0,,,81,70
56040,note_on,,,,,0,0,11,,,12,,,41,58
56040,note_off,,,,,120,0,11,,,12,,,45,64
56040,note_off,,,,,120,0,6,,,5,,,65,64
56040,note_on,,,,,0,0,10,,,11,,,41,58
56040,note_off,,,,,120,0,10,,,11,,,45,64
56040,note_off,,,,,120,0,1,,,0,,,77,64
56040,note_on,,,,,0,0,6,,,5,,,69,70
56040,note_off,,,,,120,0,9,,,10,,,57,64
56040,note_on,,,,,0,0,9,,,10,,,53,58
56136,note_off,,,,,96,0,9,,,10,,,53,64
56136,note_off,,,,,96,0,11,,,12,,,41,64
56136,note_off,,,,,96,0,10,,,11,,,41,64
56136,note_off,,,,,96,0,6,,,5,,,69,64
56136,note_off,,,,,96,0,1,,,0,,,81,64
56160,note_on,,,,,24,0,11,,,12,,,40,58
56160,note_on,,,,,24,0,10,,,11,,,40,58
56160,note_on,,,,,24,0,6,,,5,,,67,70
56160,note_on,,,,,144,0,8,,,7,,,48,58
56160,note_on,,,,,144,0,7,,,6,,,60,58
56160,note_on,,,,,24,0,1,,,0,,,79,70
56160,note_on,,,,,24,0,9,,,10,,,52,58
56226,note_off,,,,,66,0,6,,,5,,,67,64
56226,note_off,,,,,66,0,1,,,0,,,79,64
56280,note_on,,,,,54,0,6,,,5,,,72,70
56280,note_on,,,,,54,0,1,,,0,,,84,70
56352,note_off,,,,,192,0,11,,,12,,,40,64
56352,note_off,,,,,192,0,10,,,11,,,40,64
56352,note_off,,,,,192,0,9,,,10,,,52,64
56352,note_off,,,,,192,0,8,,,7,,,48,64
56352,note_off,,,,,192,0,7,,,6,,,60,64
56400,note_off,,,,,120,0,1,,,0,,,84,64
56400,note_off,,,,,120,0,6,,,5,,,72,64
56400,note_on,,,,,0,0,1,,,0,,,83,70
56400,note_on,,,,,0,0,6,,,5,,,71,70
56520,note_off,,,,,120,0,1,,,0,,,83,64
56520,note_on,,,,,0,0,1,,,0,,,84,70
56520,note_on,,,,,0,0,6,,,5,,,72,70
56520,note_off,,,,,120,0,6,,,5,,,71,64
56640,note_on,,,,,288,0,8,,,7,,,55,58
56640,note_on,,,,,288,0,11,,,12,,,36,58
56640,note_off,,,,,120,0,1,,,0,,,84,64
56640,note_on,,,,,0,0,1,,,0,,,83,70
56640,note_on,,,,,0,0,6,,,5,,,71,70
56640,note_off,,,,,120,0,6,,,5,,,72,64
56640,note_on,,,,,288,0,9,,,10,,,48,58
56640,note_on,,,,,288,0,10,,,11,,,36,58
56640,note_on,,,,,288,0,7,,,6,,,64,58
56760,note_off,,,,,120,0,1,,,0,,,83,64
56760,note_on,,,,,0,0,1,,,0,,,84,70
56760,note_on,,,,,0,0,6,,,5,,,72,70
56760,note_off,,,,,120,0,6,,,5,,,71,64
56832,note_off,,,,,192,0,9,,,10,,,48,64
56832,note_off,,,,,192,0,10,,,11,,,36,64
56832,note_off,,,,,192,0,11,,,12,,,36,64
56832,note_off,,,,,192,0,8,,,7,,,55,64
56832,note_off,,,,,192,0,7,,,6,,,64,64
56856,note_off,,,,,96,0,6,,,5,,,72,64
56856,note_off,,,,,96,0,1,,,0,,,84,64
56880,note_on,,,,,48,0,9,,,10,,,55,58
56880,note_on,,,,,48,0,7,,,6,,,62,58
56880,note_on,,,,,48,0,8,,,7,,,59,58
56880,note_on,,,,,48,0,10,,,11,,,43,58
56880,note_on,,,,,24,0,6,,,5,,,67,70
56880,note_on,,,,,24,0,1,,,0,,,79,70
56880,note_on,,,,,48,0,11,,,12,,,43,58
56946,note_off,,,,,66,0,1,,,0,,,79,64
56946,note_off,,,,,66,0,6,,,5,,,67,64
57000,note_on,,,,,54,0,1,,,0,,,79,70
57000,note_on,,,,,54,0,6,,,5,,,67,70
57072,note_off,,,,,192,0,9,,,10,,,55,64
57072,note_off,,,,,192,0,10,,,11,,,43,64
57072,note_off,,,,,192,0,8,,,7,,,59,64
57072,note_off,,,,,192,0,7,,,6,,,62,64
57072,note_off,,,,,192,0,11,,,12,,,43,64
57120,note_on,,,,,0,0,6,,,5,,,66,70
57120,note_off,,,,,120,0,6,,,5,,,67,64
57120,note_on,,,,,0,0,1,,,0,,,78,70
57120,note_off,,,,,120,0,1,,,0,,,79,64
57120,set_tempo,,,,,4560,1,0,480000,,,,,,
57240,note_on,,,,,0,0,1,,,0,,,79,70
57240,note_on,,,,,0,0,6,,,5,,,67,70
57240,note_off,,,,,120,0,6,,,5,,,66,64
57240,note_off,,,,,120,0,1,,,0,,,78,64
57360,note_on,,,,,288,0,11,,,12,,,31,58
57360,note_on,,,,,0,0,1,,,0,,,78,70
57360,note_on,,,,,288,0,8,,,7,,,53,58
57360,note_off,,,,,120,0,1,,,0,,,79,64
57360,note_on,,,,,288,0,9,,,10,,,43,58
57360,set_tempo,,,,,240,1,0,487805,,,,,,
57360,note_on,,,,,288,0,7,,,6,,,59,58
57360,note_on,,,,,288,0,10,,,11,,,31,58
57360,note_off,,,,,120,0,6,,,5,,,67,64
57360,note_on,,,,,0,0,6,,,5,,,66,70
57480,note_on,,,,,0,0,6,,,5,,,67,70
57480,note_off,,,,,120,0,6,,,5,,,66,64
57480,note_on,,,,,0,0,1,,,0,,,79,70
57480,note_off,,,,,120,0,1,,,0,,,78,64
57552,note_off,,,,,192,0,7,,,6,,,59,64
57552,note_off,,,,,192,0,8,,,7,,,53,64
57552,note_off,,,,,192,0,10,,,11,,,31,64
57552,note_off,,,,,192,0,11,,,12,,,31,64
57552,note_off,,,,,192,0,9,,,10,,,43,64
57576,note_off,,,,,96,0,6,,,5,,,67,64
57576,note_off,,,,,96,0,1,,,0,,,79,64
57600,note_on,,,,,48,0,11,,,12,,,36,58
57600,set_tempo,,,,,240,1,0,483871,,,,,,
57600,note_on,,,,,24,0,6,,,5,,,60,58
57600,note_on,,,,,48,0,10,,,11,,,36,58
57600,note_on,,,,,48,0,7,,,6,,,60,58
57600,note_on,,,,,24,0,1,,,0,,,72,58
57600,note_on,,,,,48,0,8,,,7,,,52,58
57600,note_on,,,,,48,0,9,,,10,,,48,58
57792,note_off,,,,,192,0,1,,,0,,,72,64
57792,note_off,,,,,192,0,11,,,12,,,36,64
57792,note_off,,,,,192,0,7,,,6,,,60,64
57792,note_off,,,,,192,0,10,,,11,,,36,64
57792,note_off,,,,,192,0,9,,,10,,,48,64
57792,note_off,,,,,192,0,6,,,5,,,60,64
57792,note_off,,,,,192,0,8,,,7,,,52,64
57840,note_on,,,,,48,0,11,,,12,,,48,58
57840,note_on,,,,,48,0,10,,,11,,,48,58
57840,note_on,,,,,48,0,9,,,10,,,60,58
58032,note_off,,,,,192,0,10,,,11,,,48,64
58032,note_off,,,,,192,0,9,,,10,,,60,64
58032,note_off,,,,,192,0,11,,,12,,,48,64
58080,note_on,,,,,48,0,10,,,11,,,48,58
58080,note_on,,,,,288,0,6,,,5,,,72,58
58080,note_on,,,,,11808,0,2,,,1,,,60,58
58080,note_on,,,,,48,0,9,,,10,,,60,58
58080,note_on,,,,,48,0,11,,,12,,,48,58
58080,note_on,,,,,288,0,7,,,6,,,67,58
58080,note_on,,,,,288,0,8,,,7,,,64,58
58200,note_off,,,,,120,0,6,,,5,,,72,64
58200,note_off,,,,,120,0,8,,,7,,,64,64
58200,note_on,,,,,0,0,8,,,7,,,60,70
58200,note_on,,,,,0,0,6,,,5,,,76,70
58200,note_off,,,,,120,0,2,,,1,,,60,64
58200,note_on,,,,,0,0,2,,,1,,,64,80
58224,note_off,,,,,144,0,7,,,6,,,67,64
58236,note_off,,,,,156,0,10,,,11,,,48,64
58236,note_off,,,,,156,0,11,,,12,,,48,64
58236,note_off,,,,,156,0,9,,,10,,,60,64
58296,note_off,,,,,96,0,8,,,7,,,60,64
58296,note_off,,,,,96,0,2,,,1,,,64,64
58296,note_off,,,,,96,0,6,,,5,,,76,64
58320,note_on,,,,,24,0,6,,,5,,,76,70
58320,note_on,,,,,96,0,7,,,6,,,67,70
58320,note_on,,,,,84,0,10,,,11,,,47,58
58320,note_on,,,,,84,0,11,,,12,,,47,70
58320,note_on,,,,,24,0,8,,,7,,,62,70
58320,note_on,,,,,24,0,2,,,1,,,64,80
58320,set_tempo,,,,,720,1,0,468750,,,,,,
58320,note_on,,,,,84,0,9,,,10,,,59,58
58440,note_off,,,,,120,0,2,,,1,,,64,64
58440,note_on,,,,,0,0,2,,,1,,,62,80
58440,note_on,,,,,0,0,6,,,5,,,74,70
58440,note_off,,,,,120,0,6,,,5,,,76,64
58464,note_off,,,,,144,0,7,,,6,,,67,64
58476,note_off,,,,,156,0,10,,,11,,,47,64
58476,note_off,,,,,156,0,11,,,12,,,47,64
58476,note_off,,,,,156,0,9,,,10,,,59,64
58512,note_off,,,,,192,0,8,,,7,,,62,64
58536,note_off,,,,,96,0,6,,,5,,,74,64
58536,note_off,,,,,96,0,2,,,1,,,62,64
58560,note_on,,,,,24,0,2,,,1,,,60,80
58560,note_on,,,,,24,0,6,,,5,,,72,70
58680,note_off,,,,,120,0,6,,,5,,,72,64
58680,note_off,,,,,120,0,2,,,1,,,60,64
58680,note_on,,,,,0,0,2,,,1,,,59,80
58680,note_on,,,,,0,0,6,,,5,,,71,70
58800,note_on,,,,,0,0,6,,,5,,,69,70
58800,note_on,,,,,0,0,2,,,1,,,57,80
58800,note_on,,,,,324,0,11,,,12,,,42,70
58800,note_on,,,,,324,0,9,,,10,,,54,70
58800,note_on,,,,,336,0,7,,,6,,,62,70
58800,note_on,,,,,324,0,10,,,11,,,42,70
58800,note_off,,,,,120,0,2,,,1,,,59,64
58800,note_on,,,,,288,0,8,,,7,,,60,70
58800,note_off,,,,,120,0,6,,,5,,,71,64
58920,note_on,,,,,0,0,2,,,1,,,60,80
58920,note_off,,,,,120,0,8,,,7,,,60,64
58920,note_on,,,,,0,0,8,,,7,,,57,70
58920,note_off,,,,,120,0,2,,,1,,,57,64
58920,note_on,,,,,0,0,6,,,5,,,72,70
58920,note_off,,,,,120,0,6,,,5,,,69,64
58944,note_off,,,,,144,0,7,,,6,,,62,64
58956,note_off,,,,,156,0,10,,,11,,,42,64
58956,note_off,,,,,156,0,11,,,12,,,42,64
58956,note_off,,,,,156,0,9,,,10,,,54,64
59016,note_off,,,,,96,0,8,,,7,,,57,64
59016,note_off,,,,,96,0,2,,,1,,,60,64
59016,note_off,,,,,96,0,6,,,5,,,72,64
59040,note_on,,,,,84,0,9,,,10,,,55,70
59040,note_on,,,,,24,0,2,,,1,,,60,80
59040,note_on,,,,,24,0,8,,,7,,,55,70
59040,note_on,,,,,84,0,10,,,11,,,43,70
59040,note_on,,,,,24,0,6,,,5,,,72,70
59040,note_on,,,,,84,0,11,,,12,,,43,70
59040,note_on,,,,,96,0,7,,,6,,,64,70
59160,note_on,,,,,0,0,7,,,6,,,62,70
59160,note_off,,,,,120,0,6,,,5,,,72,64
59160,note_off,,,,,120,0,2,,,1,,,60,64
59160,note_on,,,,,0,0,6,,,5,,,71,70
59160,note_off,,,,,120,0,7,,,6,,,64,64
59160,note_on,,,,,0,0,2,,,1,,,59,80
59196,note_off,,,,,156,0,10,,,11,,,43,64
59196,note_off,,,,,156,0,11,,,12,,,43,64
59196,note_off,,,,,156,0,9,,,10,,,55,64
59232,note_off,,,,,192,0,8,,,7,,,55,64
59280,note_on,,,,,0,0,7,,,6,,,60,70
59280,note_on,,,,,0,0,2,,,1,,,57,80
59280,note_on,,,,,0,0,6,,,5,,,69,70
59280,note_off,,,,,120,0,6,,,5,,,71,64
59280,note_off,,,,,120,0,7,,,6,,,62,64
59280,note_off,,,,,120,0,2,,,1,,,59,64
59400,note_off,,,,,120,0,2,,,1,,,57,64
59400,note_on,,,,,0,0,6,,,5,,,67,70
59400,note_on,,,,,0,0,2,,,1,,,55,80
59400,note_off,,,,,120,0,6,,,5,,,69,64
59400,note_off,,,,,120,0,7,,,6,,,60,64
59400,note_on,,,,,0,0,7,,,6,,,59,70
59496,note_off,,,,,96,0,2,,,1,,,55,64
59496,note_off,,,,,96,0,6,,,5,,,67,64
59496,note_off,,,,,96,0,7,,,6,,,59,64
59520,note_on,,,,,24,0,7,,,6,,,67,70
59520,note_on,,,,,24,0,2,,,1,,,55,80
59520,note_on,,,,,324,0,9,,,10,,,60,70
59520,note_on,,,,,324,0,10,,,11,,,48,70
59520,note_on,,,,,324,0,11,,,12,,,48,70
59520,note_on,,,,,288,0,8,,,7,,,64,70
59520,note_on,,,,,24,0,6,,,5,,,67,70
59640,note_off,,,,,120,0,8,,,7,,,64,64
59640,note_on,,,,,0,0,2,,,1,,,64,80
59640,note_off,,,,,120,0,2,,,1,,,55,64
59640,note_on,,,,,0,0,6,,,5,,,76,70
59640,note_on,,,,,0,0,8,,,7,,,60,70
59640,note_off,,,,,120,0,6,,,5,,,67,64
59664,note_off,,,,,144,0,7,,,6,,,67,64
59676,note_off,,,,,156,0,9,,,10,,,60,64
59676,note_off,,,,,156,0,11,,,12,,,48,64
59676,note_off,,,,,156,0,10,,,11,,,48,64
59736,note_off,,,,,96,0,8,,,7,,,60,64
59736,note_off,,,,,96,0,6,,,5,,,76,64
59736,note_off,,,,,96,0,2,,,1,,,64,64
59760,note_on,,,,,84,0,9,,,10,,,59,70
59760,note_on,,,,,24,0,8,,,7,,,62,70
59760,note_on,,,,,24,0,6,,,5,,,76,70
59760,note_on,,,,,96,0,7,,,6,,,67,70
59760,note_on,,,,,84,0,10,,,11,,,47,70
59760,note_on,,,,,24,0,2,,,1,,,64,80
59760,note_on,,,,,84,0,11,,,12,,,47,70
59880,note_off,,,,,120,0,2,,,1,,,64,64
59880,note_on,,,,,0,0,2,,,1,,,62,80
59880,note_on,,,,,0,0,6,,,5,,,74,70
59880,note_off,,,,,120,0,6,,,5,,,76,64
59904,note_off,,,,,144,0,7,,,6,,,67,64
59916,note_off,,,,,156,0,11,,,12,,,47,64
59916,note_off,,,,,156,0,10,,,11,,,47,64
59916,note_off,,,,,156,0,9,,,10,,,59,64
59928,note_off,,,,,168,0,8,,,7,,,62,64
59976,note_off,,,,,96,0,2,,,1,,,62,64
59976,note_off,,,,,96,0,6,,,5,,,74,64
60000,note_on,,,,,24,0,2,,,1,,,60,80
60000,note_on,,,,,72,0,8,,,7,,,55,70
60000,note_on,,,,,96,0,7,,,6,,,62,70
60000,note_on,,,,,84,0,9,,,10,,,55,70
60000,note_on,,,,,84,0,10,,,11,,,43,70
60000,note_on,,,,,24,0,6,,,5,,,72,70
60000,note_on,,,,,84,0,11,,,12,,,43,70
60120,note_off,,,,,120,0,6,,,5,,,72,64
60120,note_on,,,,,0,0,6,,,5,,,71,70
60120,note_off,,,,,120,0,2,,,1,,,60,64
60120,note_on,,,,,0,0,2,,,1,,,59,80
60144,note_off,,,,,144,0,7,,,6,,,62,64
60156,note_off,,,,,156,0,10,,,11,,,43,64
60156,note_off,,,,,156,0,11,,,12,,,43,64
60156,note_off,,,,,156,0,9,,,10,,,55,64
60168,note_off,,,,,168,0,8,,,7,,,55,64
60240,note_on,,,,,0,0,2,,,1,,,57,80
60240,note_on,,,,,96,0,7,,,6,,,62,70
60240,note_on,,,,,84,0,9,,,10,,,54,70
60240,note_off,,,,,120,0,6,,,5,,,71,64
60240,note_on,,,,,84,0,11,,,12,,,42,70
60240,note_on,,,,,84,0,10,,,11,,,42,70
60240,note_off,,,,,120,0,2,,,1,,,59,64
60240,note_on,,,,,72,0,8,,,7,,,60,70
60240,note_on,,,,,0,0,6,,,5,,,69,70
60360,note_on,,,,,0,0,2,,,1,,,60,80
60360,note_off,,,,,120,0,6,,,5,,,69,64
60360,note_on,,,,,0,0,8,,,7,,,57,70
60360,note_on,,,,,0,0,6,,,5,,,72,70
60360,note_off,,,,,120,0,8,,,7,,,60,64
60360,note_off,,,,,120,0,2,,,1,,,57,64
60384,note_off,,,,,144,0,7,,,6,,,62,64
60396,note_off,,,,,156,0,11,,,12,,,42,64
60396,note_off,,,,,156,0,9,,,10,,,54,64
60396,note_off,,,,,156,0,10,,,11,,,42,64
60456,note_off,,,,,96,0,8,,,7,,,57,64
60456,note_off,,,,,96,0,2,,,1,,,60,64
60456,note_off,,,,,96,0,6,,,5,,,72,64
60480,note_on,,,,,24,0,2,,,1,,,60,80
60480,note_on,,,,,24,0,6,,,5,,,72,70
60480,note_on,,,,,84,0,9,,,10,,,55,70
60480,note_on,,,,,84,0,10,,,11,,,43,70
60480,note_on,,,,,84,0,11,,,12,,,43,70
60480,note_on,,,,,96,0,7,,,6,,,64,70
60480,note_on,,,,,24,0,8,,,7,,,55,70
60600,note_on,,,,,0,0,7,,,6,,,62,70
60600,note_off,,,,,120,0,2,,,1,,,60,64
60600,note_on,,,,,0,0,2,,,1,,,59,80
60600,note_off,,,,,120,0,6,,,5,,,72,64
60600,note_on,,,,,0,0,6,,,5,,,71,70
60600,note_off,,,,,120,0,7,,,6,,,64,64
60636,note_off,,,,,156,0,11,,,12,,,43,64
60636,note_off,,,,,156,0,9,,,10,,,55,64
60636,note_off,,,,,156,0,10,,,11,,,43,64
60672,note_off,,,,,192,0,8,,,7,,,55,64
60720,note_off,,,,,120,0,7,,,6,,,62,64
60720,note_on,,,,,0,0,2,,,1,,,57,80
60720,note_off,,,,,120,0,2,,,1,,,59,64
60720,note_on,,,,,0,0,7,,,6,,,60,70
60720,note_on,,,,,0,0,6,,,5,,,69,70
60720,note_off,,,,,120,0,6,,,5,,,71,64
60840,note_off,,,,,120,0,6,,,5,,,69,64
60840,note_off,,,,,120,0,7,,,6,,,60,64
60840,note_on,,,,,0,0,7,,,6,,,59,70
60840,note_off,,,,,120,0,2,,,1,,,57,64
60840,note_on,,,,,0,0,6,,,5,,,67,70
60840,note_on,,,,,0,0,2,,,1,,,55,80
60936,note_off,,,,,96,0,7,,,6,,,59,64
60936,note_off,,,,,96,0,2,,,1,,,55,64
60936,note_off,,,,,96,0,6,,,5,,,67,64
60960,note_on,,,,,324,0,11,,,12,,,47,70
60960,note_on,,,,,24,0,7,,,6,,,62,70
60960,note_on,,,,,324,0,10,,,11,,,47,70
60960,note_on,,,,,288,0,8,,,7,,,55,70
60960,note_on,,,,,324,0,9,,,10,,,59,70
60960,note_on,,,,,24,0,2,,,1,,,62,80
60960,note_on,,,,,24,0,6,,,5,,,74,70
60960,note_on,,,,,3168,0,1,,,0,,,74,58
61080,note_on,,,,,0,0,2,,,1,,,67,80
61080,note_on,,,,,0,0,7,,,6,,,67,70
61080,note_on,,,,,0,0,6,,,5,,,79,70
61080,note_on,,,,,0,0,1,,,0,,,79,70
61080,note_off,,,,,120,0,7,,,6,,,62,64
61080,note_off,,,,,120,0,2,,,1,,,62,64
61080,note_off,,,,,120,0,1,,,0,,,74,64
61080,note_on,,,,,0,0,8,,,7,,,62,70
61080,note_off,,,,,120,0,6,,,5,,,74,64
61080,note_off,,,,,120,0,8,,,7,,,55,64
61116,note_off,,,,,156,0,10,,,11,,,47,64
61116,note_off,,,,,156,0,11,,,12,,,47,64
61116,note_off,,,,,156,0,9,,,10,,,59,64
61176,note_off,,,,,96,0,8,,,7,,,62,64
61176,note_off,,,,,96,0,6,,,5,,,79,64
61176,note_off,,,,,96,0,1,,,0,,,79,64
61176,note_off,,,,,96,0,2,,,1,,,67,64
61176,note_off,,,,,96,0,7,,,6,,,67,64
61200,note_on,,,,,84,0,11,,,12,,,45,70
61200,note_on,,,,,24,0,2,,,1,,,67,80
61200,note_on,,,,,84,0,10,,,11,,,45,70
61200,note_on,,,,,24,0,6,,,5,,,79,70
61200,note_on,,,,,24,0,8,,,7,,,60,70
61200,note_on,,,,,84,0,9,,,10,,,57,70
61200,note_on,,,,,24,0,7,,,6,,,67,70
61200,note_on,,,,,24,0,1,,,0,,,79,70
61320,note_off,,,,,120,0,2,,,1,,,67,64
61320,note_off,,,,,120,0,7,,,6,,,67,64
61320,note_on,,,,,0,0,7,,,6,,,66,70
61320,note_off,,,,,120,0,6,,,5,,,79,64
61320,note_on,,,,,0,0,6,,,5,,,78,70
61320,note_off,,,,,120,0,1,,,0,,,79,64
61320,note_on,,,,,0,0,1,,,0,,,78,70
61320,note_on,,,,,0,0,2,,,1,,,66,80
61356,note_off,,,,,156,0,10,,,11,,,45,64
61356,note_off,,,,,156,0,11,,,12,,,45,64
61356,note_off,,,,,156,0,9,,,10,,,57,64
61356,note_off,,,,,156,0,8,,,7,,,60,64
61416,note_off,,,,,96,0,6,,,5,,,78,64
61416,note_off,,,,,96,0,7,,,6,,,66,64
61416,note_off,,,,,96,0,2,,,1,,,66,64
61416,note_off,,,,,96,0,1,,,0,,,78,64
61440,note_on,,,,,24,0,7,,,6,,,66,70
61440,note_on,,,,,24,0,6,,,5,,,78,70
61440,note_on,,,,,24,0,2,,,1,,,66,80
61440,note_on,,,,,24,0,1,,,0,,,78,70
61440,note_on,,,,,84,0,8,,,7,,,59,70
61440,note_on,,,,,84,0,9,,,10,,,55,70
61440,note_on,,,,,84,0,10,,,11,,,43,70
61440,note_on,,,,,84,0,11,,,12,,,43,70
61560,note_on,,,,,0,0,7,,,6,,,64,70
61560,note_on,,,,,0,0,1,,,0,,,76,70
61560,note_off,,,,,120,0,6,,,5,,,78,64
61560,note_on,,,,,0,0,6,,,5,,,76,70
61560,note_off,,,,,120,0,7,,,6,,,66,64
61560,note_off,,,,,120,0,1,,,0,,,78,64
61560,note_off,,,,,120,0,2,,,1,,,66,64
61560,note_on,,,,,0,0,2,,,1,,,64,80
61596,note_off,,,,,156,0,8,,,7,,,59,64
61596,note_off,,,,,156,0,9,,,10,,,55,64
61596,note_off,,,,,156,0,10,,,11,,,43,64
61596,note_off,,,,,156,0,11,,,12,,,43,64
61656,note_off,,,,,96,0,6,,,5,,,76,64
61656,note_off,,,,,96,0,1,,,0,,,76,64
61656,note_off,,,,,96,0,7,,,6,,,64,64
61656,note_off,,,,,96,0,2,,,1,,,64,64
61680,note_on,,,,,84,0,10,,,11,,,42,70
61680,note_on,,,,,84,0,11,,,12,,,42,70
61680,note_on,,,,,84,0,8,,,7,,,57,70
61680,note_on,,,,,24,0,6,,,5,,,76,70
61680,note_on,,,,,24,0,1,,,0,,,76,70
61680,note_on,,,,,24,0,7,,,6,,,64,70
61680,note_on,,,,,24,0,2,,,1,,,64,80
61680,note_on,,,,,84,0,9,,,10,,,54,70
61800,note_on,,,,,0,0,6,,,5,,,74,70
61800,note_on,,,,,0,0,2,,,1,,,62,80
61800,note_off,,,,,120,0,2,,,1,,,64,64
61800,note_off,,,,,120,0,7,,,6,,,64,64
61800,note_on,,,,,0,0,7,,,6,,,62,70
61800,note_off,,,,,120,0,6,,,5,,,76,64
61800,note_on,,,,,0,0,1,,,0,,,74,70
61800,note_off,,,,,120,0,1,,,0,,,76,64
61836,note_off,,,,,156,0,11,,,12,,,42,64
61836,note_off,,,,,156,0,10,,,11,,,42,64
61836,note_off,,,,,156,0,9,,,10,,,54,64
61836,note_off,,,,,156,0,8,,,7,,,57,64
61896,note_off,,,,,96,0,1,,,0,,,74,64
61896,note_off,,,,,96,0,6,,,5,,,74,64
61896,note_off,,,,,96,0,2,,,1,,,62,64
61896,note_off,,,,,96,0,7,,,6,,,62,64
61920,note_on,,,,,84,0,11,,,12,,,40,70
61920,note_on,,,,,24,0,1,,,0,,,74,70
61920,note_on,,,,,84,0,10,,,11,,,40,70
61920,note_on,,,,,24,0,6,,,5,,,74,70
61920,note_on,,,,,24,0,2,,,1,,,62,80
61920,note_on,,,,,24,0,7,,,6,,,62,70
61920,note_on,,,,,84,0,8,,,7,,,55,70
61920,note_on,,,,,84,0,9,,,10,,,52,70
62040,note_on,,,,,0,0,2,,,1,,,60,80
62040,note_on,,,,,0,0,6,,,5,,,72,70
62040,note_off,,,,,120,0,6,,,5,,,74,64
62040,note_off,,,,,120,0,7,,,6,,,62,64
62040,note_off,,,,,120,0,2,,,1,,,62,64
62040,note_on,,,,,0,0,7,,,6,,,60,70
62040,note_off,,,,,120,0,1,,,0,,,74,64
62040,note_on,,,,,0,0,1,,,0,,,84,70
62076,note_off,,,,,156,0,8,,,7,,,55,64
62076,note_off,,,,,156,0,11,,,12,,,40,64
62076,note_off,,,,,156,0,10,,,11,,,40,64
62076,note_off,,,,,156,0,9,,,10,,,52,64
62136,note_off,,,,,96,0,2,,,1,,,60,64
62136,note_off,,,,,96,0,7,,,6,,,60,64
62136,note_off,,,,,96,0,1,,,0,,,84,64
62136,note_off,,,,,96,0,6,,,5,,,72,64
62160,note_on,,,,,24,0,6,,,5,,,72,70
62160,note_on,,,,,84,0,10,,,11,,,38,70
62160,note_on,,,,,24,0,1,,,0,,,84,70
62160,note_on,,,,,84,0,8,,,7,,,54,70
62160,note_on,,,,,24,0,2,,,1,,,60,80
62160,note_on,,,,,84,0,9,,,10,,,50,70
62160,note_on,,,,,24,0,7,,,6,,,60,70
62160,note_on,,,,,84,0,11,,,12,,,38,70
62280,note_off,,,,,120,0,1,,,0,,,84,64
62280,note_on,,,,,0,0,1,,,0,,,83,70
62280,note_off,,,,,120,0,2,,,1,,,60,64
62280,note_off,,,,,120,0,6,,,5,,,72,64
62280,note_on,,,,,0,0,7,,,6,,,59,70
62280,note_on,,,,,0,0,6,,,5,,,71,70
62280,note_on,,,,,0,0,2,,,1,,,59,80
62280,note_off,,,,,120,0,7,,,6,,,60,64
62316,note_off,,,,,156,0,8,,,7,,,54,64
62316,note_off,,,,,156,0,10,,,11,,,38,64
62316,note_off,,,,,156,0,11,,,12,,,38,64
62316,note_off,,,,,156,0,9,,,10,,,50,64
62376,note_off,,,,,96,0,1,,,0,,,83,64
62376,note_off,,,,,96,0,2,,,1,,,59,64
62376,note_off,,,,,96,0,7,,,6,,,59,64
62376,note_off,,,,,96,0,6,,,5,,,71,64
62400,note_on,,,,,24,0,7,,,6,,,59,70
62400,note_on,,,,,24,0,2,,,1,,,59,80
62400,note_on,,,,,24,0,1,,,0,,,83,70
62400,note_on,,,,,84,0,11,,,12,,,36,70
62400,note_on,,,,,84,0,10,,,11,,,36,70
62400,note_on,,,,,84,0,8,,,7,,,52,70
62400,note_on,,,,,84,0,9,,,10,,,48,70
62400,note_on,,,,,24,0,6,,,5,,,71,70
62520,note_on,,,,,0,0,7,,,6,,,57,70
62520,note_off,,,,,120,0,6,,,5,,,71,64
62520,note_on,,,,,0,0,6,,,5,,,69,70
62520,note_on,,,,,0,0,2,,,1,,,57,80
62520,note_off,,,,,120,0,2,,,1,,,59,64
62520,note_off,,,,,120,0,7,,,6,,,59,64
62520,note_on,,,,,0,0,1,,,0,,,81,70
62520,note_off,,,,,120,0,1,,,0,,,83,64
62556,note_off,,,,,156,0,10,,,11,,,36,64
62556,note_off,,,,,156,0,9,,,10,,,48,64
62556,note_off,,,,,156,0,8,,,7,,,52,64
62556,note_off,,,,,156,0,11,,,12,,,36,64
62616,note_off,,,,,96,0,6,,,5,,,69,64
62616,note_off,,,,,96,0,2,,,1,,,57,64
62616,note_off,,,,,96,0,1,,,0,,,81,64
62616,note_off,,,,,96,0,7,,,6,,,57,64
62640,note_on,,,,,84,0,11,,,12,,,35,70
62640,note_on,,,,,84,0,9,,,10,,,47,70
62640,note_on,,,,,24,0,1,,,0,,,79,70
62640,note_on,,,,,24,0,2,,,1,,,55,80
62640,note_on,,,,,84,0,10,,,11,,,35,70
62640,note_on,,,,,84,0,8,,,7,,,50,70
62640,note_on,,,,,24,0,6,,,5,,,67,70
62640,note_on,,,,,24,0,7,,,6,,,55,70
62760,note_off,,,,,120,0,6,,,5,,,67,64
62760,note_on,,,,,0,0,6,,,5,,,71,70
62760,note_off,,,,,120,0,2,,,1,,,55,64
62760,note_on,,,,,0,0,1,,,0,,,83,70
62760,note_on,,,,,0,0,2,,,1,,,59,80
62760,note_on,,,,,0,0,7,,,6,,,62,70
62760,note_off,,,,,120,0,7,,,6,,,55,64
62760,note_off,,,,,120,0,1,,,0,,,79,64
62796,note_off,,,,,156,0,8,,,7,,,50,64
62796,note_off,,,,,156,0,10,,,11,,,35,64
62796,note_off,,,,,156,0,9,,,10,,,47,64
62796,note_off,,,,,156,0,11,,,12,,,35,64
62856,note_off,,,,,96,0,7,,,6,,,62,64
62856,note_off,,,,,96,0,2,,,1,,,59,64
62856,note_off,,,,,96,0,1,,,0,,,83,64
62856,note_off,,,,,96,0,6,,,5,,,71,64
62880,note_on,,,,,84,0,9,,,10,,,48,70
62880,note_on,,,,,24,0,1,,,0,,,81,70
62880,note_on,,,,,84,0,10,,,11,,,36,70
62880,note_on,,,,,24,0,6,,,5,,,69,70
62880,note_on,,,,,24,0,2,,,1,,,57,80
62880,note_on,,,,,24,0,7,,,6,,,60,70
62880,note_on,,,,,84,0,11,,,12,,,36,70
62880,note_on,,,,,84,0,8,,,7,,,52,70
63000,note_on,,,,,0,0,2,,,1,,,60,80
63000,note_off,,,,,120,0,2,,,1,,,57,64
63000,note_off,,,,,120,0,6,,,5,,,69,64
63000,note_on,,,,,0,0,6,,,5,,,72,70
63000,note_on,,,,,0,0,7,,,6,,,62,70
63000,note_off,,,,,120,0,7,,,6,,,60,64
63000,note_on,,,,,0,0,1,,,0,,,84,70
63000,note_off,,,,,120,0,1,,,0,,,81,64
63036,note_off,,,,,156,0,11,,,12,,,36,64
63036,note_off,,,,,156,0,9,,,10,,,48,64
63036,note_off,,,,,156,0,8,,,7,,,52,64
63036,note_off,,,,,156,0,10,,,11,,,36,64
63096,note_off,,,,,96,0,6,,,5,,,72,64
63096,note_off,,,,,96,0,1,,,0,,,84,64
63096,note_off,,,,,96,0,2,,,1,,,60,64
63096,note_off,,,,,96,0,7,,,6,,,62,64
63120,note_on,,,,,24,0,7,,,6,,,57,70
63120,note_on,,,,,84,0,11,,,12,,,38,70
63120,note_on,,,,,24,0,2,,,1,,,54,80
63120,note_on,,,,,24,0,1,,,0,,,78,70
63120,note_on,,,,,84,0,9,,,10,,,50,70
63120,note_on,,,,,24,0,6,,,5,,,66,70
63120,note_on,,,,,84,0,10,,,11,,,38,70
63120,note_on,,,,,84,0,8,,,7,,,50,70
63240,note_on,,,,,0,0,2,,,1,,,57,80
63240,note_on,,,,,0,0,7,,,6,,,60,70
63240,note_off,,,,,120,0,6,,,5,,,66,64
63240,note_off,,,,,120,0,2,,,1,,,54,64
63240,note_off,,,,,120,0,7,,,6,,,57,64
63240,note_on,,,,,0,0,6,,,5,,,69,70
63240,note_on,,,,,0,0,1,,,0,,,81,70
63240,note_off,,,,,120,0,1,,,0,,,78,64
63276,note_off,,,,,156,0,8,,,7,,,50,64
63276,note_off,,,,,156,0,11,,,12,,,38,64
63276,note_off,,,,,156,0,9,,,10,,,50,64
63276,note_off,,,,,156,0,10,,,11,,,38,64
63336,note_off,,,,,96,0,2,,,1,,,57,64
63336,note_off,,,,,96,0,1,,,0,,,81,64
63336,note_off,,,,,96,0,6,,,5,,,69,64
63336,note_off,,,,,96,0,7,,,6,,,60,64
63360,note_on,,,,,84,0,10,,,11,,,31,70
63360,note_on,,,,,84,0,11,,,12,,,31,70
63360,note_on,,,,,24,0,7,,,6,,,59,70
63360,note_on,,,,,84,0,8,,,7,,,50,70
63360,note_on,,,,,24,0,2,,,1,,,55,80
63360,note_on,,,,,24,0,1,,,0,,,79,70
63360,note_on,,,,,84,0,9,,,10,,,43,70
63360,note_on,,,,,24,0,6,,,5,,,67,70
63360,set_tempo,,,,,5040,1,0,483871,,,,,,
63516,note_off,,,,,156,0,8,,,7,,,50,64
63516,note_off,,,,,156,0,9,,,10,,,43,64
63516,note_off,,,,,156,0,10,,,11,,,31,64
63516,note_off,,,,,156,0,11,,,12,,,31,64
63552,note_off,,,,,192,0,2,,,1,,,55,64
63552,note_off,,,,,192,0,6,,,5,,,67,64
63552,note_off,,,,,192,0,7,,,6,,,59,64
63552,note_off,,,,,192,0,1,,,0,,,79,64
63600,note_on,,,,,84,0,10,,,11,,,43,70
63600,note_on,,,,,84,0,9,,,10,,,55,70
63600,note_on,,,,,84,0,11,,,12,,,43,70
63756,note_off,,,,,156,0,11,,,12,,,43,64
63756,note_off,,,,,156,0,9,,,10,,,55,64
63756,note_off,,,,,156,0,10,,,11,,,43,64
63840,note_on,,,,,288,0,1,,,0,,,67,70
63840,note_on,,,,,288,0,6,,,5,,,55,70
63960,note_off,,,,,120,0,1,,,0,,,67,64
63960,note_on,,,,,0,0,1,,,0,,,72,70
63960,note_off,,,,,120,0,6,,,5,,,55,64
63960,note_on,,,,,0,0,6,,,5,,,60,70
64056,note_off,,,,,96,0,6,,,5,,,60,64
64056,note_off,,,,,96,0,1,,,0,,,72,64
64080,note_on,,,,,324,0,9,,,10,,,48,70
64080,note_on,,,,,24,0,1,,,0,,,71,70
64080,note_on,,,,,324,0,10,,,11,,,36,70
64080,note_on,,,,,528,0,7,,,6,,,55,70
64080,note_on,,,,,564,0,8,,,7,,,52,70
64080,note_on,,,,,324,0,11,,,12,,,36,70
64080,note_on,,,,,24,0,6,,,5,,,59,70
64080,set_tempo,,,,,720,1,0,468750,,,,,,
64200,note_on,,,,,0,0,6,,,5,,,60,70
64200,note_off,,,,,120,0,6,,,5,,,59,64
64200,note_off,,,,,120,0,1,,,0,,,71,64
64200,note_on,,,,,0,0,1,,,0,,,72,70
64236,note_off,,,,,156,0,8,,,7,,,52,64
64272,note_off,,,,,192,0,7,,,6,,,55,64
64272,note_off,,,,,192,0,9,,,10,,,48,64
64272,note_off,,,,,192,0,10,,,11,,,36,64
64272,note_off,,,,,192,0,11,,,12,,,36,64
64320,note_on,,,,,0,0,1,,,0,,,74,70
64320,note_on,,,,,0,0,6,,,5,,,62,70
64320,note_off,,,,,120,0,6,,,5,,,60,64
64320,note_off,,,,,120,0,1,,,0,,,72,64
64440,note_off,,,,,120,0,1,,,0,,,74,64
64440,note_on,,,,,0,0,6,,,5,,,60,70
64440,note_off,,,,,120,0,6,,,5,,,62,64
64440,note_on,,,,,0,0,1,,,0,,,72,70
64560,note_off,,,,,120,0,1,,,0,,,72,64
64560,note_on,,,,,0,0,6,,,5,,,64,70
64560,note_on,,,,,0,0,1,,,0,,,76,70
64560,note_off,,,,,120,0,6,,,5,,,60,64
64560,note_on,,,,,1008,0,2,,,1,,,55,80
64680,note_on,,,,,0,0,1,,,0,,,72,70
64680,note_off,,,,,120,0,6,,,5,,,64,64
64680,note_on,,,,,0,0,2,,,1,,,60,80
64680,note_on,,,,,0,0,6,,,5,,,60,70
64680,note_off,,,,,120,0,1,,,0,,,76,64
64680,note_off,,,,,120,0,2,,,1,,,55,64
64776,note_off,,,,,96,0,2,,,1,,,60,64
64776,note_off,,,,,96,0,1,,,0,,,72,64
64776,note_off,,,,,96,0,6,,,5,,,60,64
64800,note_on,,,,,24,0,6,,,5,,,55,70
64800,note_on,,,,,24,0,1,,,0,,,67,70
64800,note_on,,,,,24,0,2,,,1,,,59,80
64920,note_off,,,,,120,0,2,,,1,,,59,64
64920,note_on,,,,,0,0,2,,,1,,,60,80
64992,note_off,,,,,192,0,6,,,5,,,55,64
64992,note_off,,,,,192,0,1,,,0,,,67,64
65040,note_on,,,,,768,0,9,,,10,,,52,70
65040,note_on,,,,,804,0,8,,,7,,,48,70
65040,note_on,,,,,768,0,7,,,6,,,55,70
65040,note_on,,,,,768,0,11,,,12,,,40,70
65040,note_off,,,,,120,0,2,,,1,,,60,64
65040,note_on,,,,,0,0,2,,,1,,,62,80
65040,note_on,,,,,768,0,10,,,11,,,40,70
65160,note_on,,,,,0,0,2,,,1,,,60,80
65160,note_off,,,,,120,0,2,,,1,,,62,64
65196,note_off,,,,,156,0,11,,,12,,,40,64
65196,note_off,,,,,156,0,8,,,7,,,48,64
65196,note_off,,,,,156,0,9,,,10,,,52,64
65196,note_off,,,,,156,0,10,,,11,,,40,64
65196,note_off,,,,,156,0,7,,,6,,,55,64
65280,note_on,,,,,84,0,7,,,6,,,55,70
65280,note_on,,,,,84,0,8,,,7,,,52,70
65280,note_on,,,,,288,0,1,,,0,,,67,70
65280,note_on,,,,,84,0,10,,,11,,,36,70
65280,note_on,,,,,0,0,2,,,1,,,64,80
65280,note_off,,,,,120,0,2,,,1,,,60,64
65280,note_on,,,,,84,0,11,,,12,,,36,70
65280,note_on,,,,,288,0,6,,,5,,,55,70
65280,note_on,,,,,84,0,9,,,10,,,48,70
65400,note_on,,,,,0,0,2,,,1,,,60,80
65400,note_off,,,,,120,0,2,,,1,,,64,64
65400,note_on,,,,,0,0,6,,,5,,,62,58
65400,note_off,,,,,120,0,6,,,5,,,55,64
65400,note_off,,,,,120,0,1,,,0,,,67,64
65400,note_on,,,,,0,0,1,,,0,,,74,70
65436,note_off,,,,,156,0,9,,,10,,,48,64
65436,note_off,,,,,156,0,10,,,11,,,36,64
65436,note_off,,,,,156,0,7,,,6,,,55,64
65436,note_off,,,,,156,0,8,,,7,,,52,64
65436,note_off,,,,,156,0,11,,,12,,,36,64
65496,note_off,,,,,96,0,1,,,0,,,74,64
65496,note_off,,,,,96,0,6,,,5,,,62,64
65496,note_off,,,,,96,0,2,,,1,,,60,64
65520,note_on,,,,,84,0,8,,,7,,,53,70
65520,note_on,,,,,24,0,1,,,0,,,73,70
65520,note_on,,,,,84,0,9,,,10,,,47,70
65520,note_on,,,,,24,0,6,,,5,,,61,70
65520,note_on,,,,,84,0,7,,,6,,,55,58
65520,note_on,,,,,84,0,11,,,12,,,35,70
65520,note_on,,,,,84,0,10,,,11,,,35,70
65520,note_on,,,,,24,0,2,,,1,,,55,80
65640,note_off,,,,,120,0,1,,,0,,,73,64
65640,note_on,,,,,0,0,1,,,0,,,74,70
65640,note_off,,,,,120,0,6,,,5,,,61,64
65640,note_on,,,,,0,0,6,,,5,,,62,70
65676,note_off,,,,,156,0,11,,,12,,,35,64
65676,note_off,,,,,156,0,8,,,7,,,53,64
65676,note_off,,,,,156,0,7,,,6,,,55,64
65676,note_off,,,,,156,0,10,,,11,,,35,64
65676,note_off,,,,,156,0,9,,,10,,,47,64
65712,note_off,,,,,192,0,2,,,1,,,55,64
65760,note_off,,,,,120,0,6,,,5,,,62,64
65760,note_on,,,,,0,0,6,,,5,,,64,70
65760,note_on,,,,,0,0,1,,,0,,,76,70
65760,note_off,,,,,120,0,1,,,0,,,74,64
65880,note_on,,,,,0,0,6,,,5,,,62,70
65880,note_off,,,,,120,0,6,,,5,,,64,64
65880,note_off,,,,,120,0,1,,,0,,,76,64
65880,note_on,,,,,0,0,1,,,0,,,74,70
66000,note_on,,,,,0,0,6,,,5,,,65,70
66000,note_off,,,,,120,0,6,,,5,,,62,64
66000,note_off,,,,,120,0,1,,,0,,,74,64
66000,note_on,,,,,0,0,1,,,0,,,77,70
66000,note_on,,,,,288,0,2,,,1,,,55,80
66120,note_on,,,,,0,0,6,,,5,,,62,70
66120,note_off,,,,,120,0,2,,,1,,,55,64
66120,note_on,,,,,0,0,2,,,1,,,62,80
66120,note_off,,,,,120,0,6,,,5,,,65,64
66120,note_off,,,,,120,0,1,,,0,,,77,64
66120,note_on,,,,,0,0,1,,,0,,,74,70
66216,note_off,,,,,96,0,1,,,0,,,74,64
66216,note_off,,,,,96,0,2,,,1,,,62,64
66216,note_off,,,,,96,0,6,,,5,,,62,64
66240,note_on,,,,,24,0,2,,,1,,,61,80
66240,note_on,,,,,24,0,6,,,5,,,55,70
66240,note_on,,,,,24,0,1,,,0,,,67,70
66360,note_on,,,,,0,0,2,,,1,,,62,80
66360,note_off,,,,,120,0,2,,,1,,,61,64
66432,note_off,,,,,192,0,6,,,5,,,55,64
66432,note_off,,,,,192,0,1,,,0,,,67,64
66480,note_on,,,,,0,0,2,,,1,,,64,80
66480,note_on,,,,,804,0,8,,,7,,,50,70
66480,note_on,,,,,804,0,9,,,10,,,47,70
66480,note_on,,,,,804,0,10,,,11,,,35,70
66480,note_on,,,,,804,0,11,,,12,,,35,70
66480,note_off,,,,,120,0,2,,,1,,,62,64
66480,note_on,,,,,804,0,7,,,6,,,55,70
66600,note_on,,,,,0,0,2,,,1,,,62,80
66600,note_off,,,,,120,0,2,,,1,,,64,64
66636,note_off,,,,,156,0,9,,,10,,,47,64
66636,note_off,,,,,156,0,7,,,6,,,55,64
66636,note_off,,,,,156,0,11,,,12,,,35,64
66636,note_off,,,,,156,0,10,,,11,,,35,64
66636,note_off,,,,,156,0,8,,,7,,,50,64
66720,note_on,,,,,84,0,11,,,12,,,31,70
66720,note_off,,,,,120,0,2,,,1,,,62,64
66720,note_on,,,,,0,0,2,,,1,,,65,80
66720,note_on,,,,,288,0,1,,,0,,,67,70
66720,note_on,,,,,84,0,9,,,10,,,43,70
66720,note_on,,,,,84,0,7,,,6,,,55,70
66720,note_on,,,,,84,0,10,,,11,,,31,70
66720,note_on,,,,,84,0,8,,,7,,,55,70
66720,note_on,,,,,288,0,6,,,5,,,55,70
66840,note_off,,,,,120,0,6,,,5,,,55,64
66840,note_on,,,,,0,0,6,,,5,,,65,58
66840,note_off,,,,,120,0,1,,,0,,,67,64
66840,note_on,,,,,0,0,1,,,0,,,77,70
66840,note_off,,,,,120,0,2,,,1,,,65,64
66840,note_on,,,,,0,0,2,,,1,,,62,80
66876,note_off,,,,,156,0,11,,,12,,,31,64
66876,note_off,,,,,156,0,8,,,7,,,55,64
66876,note_off,,,,,156,0,10,,,11,,,31,64
66876,note_off,,,,,156,0,9,,,10,,,43,64
66876,note_off,,,,,156,0,7,,,6,,,55,64
66936,note_off,,,,,96,0,6,,,5,,,65,64
66936,note_off,,,,,96,0,1,,,0,,,77,64
66936,note_off,,,,,96,0,2,,,1,,,62,64
66960,note_on,,,,,24,0,2,,,1,,,60,80
66960,note_on,,,,,84,0,10,,,11,,,36,70
66960,note_on,,,,,84,0,9,,,10,,,48,70
66960,note_on,,,,,24,0,6,,,5,,,65,70
66960,note_on,,,,,84,0,8,,,7,,,55,70
66960,note_on,,,,,24,0,1,,,0,,,77,70
66960,note_on,,,,,84,0,11,,,12,,,36,70
66960,note_on,,,,,84,0,7,,,6,,,60,70
67080,note_on,,,,,0,0,1,,,0,,,76,70
67080,note_off,,,,,120,0,1,,,0,,,77,64
67080,note_on,,,,,0,0,6,,,5,,,64,70
67080,note_off,,,,,120,0,6,,,5,,,65,64
67116,note_off,,,,,156,0,8,,,7,,,55,64
67116,note_off,,,,,156,0,9,,,10,,,48,64
67116,note_off,,,,,156,0,11,,,12,,,36,64
67116,note_off,,,,,156,0,10,,,11,,,36,64
67200,note_off,,,,,120,0,6,,,5,,,64,64
67200,note_on,,,,,0,0,6,,,5,,,62,70
67200,note_on,,,,,84,0,9,,,10,,,58,70
67200,note_on,,,,,84,0,11,,,12,,,46,70
67200,note_on,,,,,84,0,10,,,11,,,46,70
67200,note_on,,,,,84,0,8,,,7,,,53,70
67200,note_off,,,,,120,0,1,,,0,,,76,64
67200,note_on,,,,,0,0,1,,,0,,,74,70
67320,note_off,,,,,120,0,1,,,0,,,74,64
67320,note_on,,,,,0,0,1,,,0,,,72,70
67320,note_off,,,,,120,0,8,,,7,,,53,64
67320,note_on,,,,,0,0,8,,,7,,,52,70
67320,note_off,,,,,120,0,6,,,5,,,62,64
67320,note_on,,,,,0,0,6,,,5,,,60,70
67440,note_on,,,,,0,0,1,,,0,,,77,70
67440,note_on,,,,,0,0,9,,,10,,,57,70
67440,note_off,,,,,240,0,9,,,10,,,58,64
67440,note_on,,,,,0,0,11,,,12,,,45,70
67440,note_off,,,,,240,0,11,,,12,,,46,64
67440,note_off,,,,,120,0,6,,,5,,,60,64
67440,note_on,,,,,0,0,6,,,5,,,65,70
67440,note_off,,,,,240,0,10,,,11,,,46,64
67440,note_on,,,,,0,0,10,,,11,,,45,70
67440,note_on,,,,,0,0,8,,,7,,,57,70
67440,note_off,,,,,120,0,8,,,7,,,52,64
67440,note_off,,,,,120,0,1,,,0,,,72,64
67536,note_off,,,,,576,0,7,,,6,,,60,64
67560,note_on,,,,,0,0,10,,,11,,,41,70
67560,note_off,,,,,120,0,10,,,11,,,45,64
67560,note_off,,,,,120,0,6,,,5,,,65,64
67560,note_on,,,,,0,0,1,,,0,,,81,70
67560,note_off,,,,,120,0,8,,,7,,,57,64
67560,note_on,,,,,0,0,9,,,10,,,53,70
67560,note_off,,,,,120,0,9,,,10,,,57,64
67560,note_on,,,,,0,0,8,,,7,,,53,70
67560,note_on,,,,,0,0,11,,,12,,,41,70
67560,note_off,,,,,120,0,11,,,12,,,45,64
67560,note_off,,,,,120,0,1,,,0,,,77,64
67560,note_on,,,,,0,0,6,,,5,,,69,70
67656,note_off,,,,,96,0,8,,,7,,,53,64
67656,note_off,,,,,96,0,1,,,0,,,81,64
67656,note_off,,,,,96,0,6,,,5,,,69,64
67656,note_off,,,,,96,0,11,,,12,,,41,64
67656,note_off,,,,,96,0,9,,,10,,,53,64
67656,note_off,,,,,96,0,10,,,11,,,41,64
67680,note_on,,,,,24,0,10,,,11,,,40,70
67680,note_on,,,,,24,0,11,,,12,,,40,70
67680,note_on,,,,,24,0,1,,,0,,,79,70
67680,note_on,,,,,24,0,9,,,10,,,52,70
67680,note_on,,,,,24,0,6,,,5,,,67,70
67680,note_on,,,,,24,0,8,,,7,,,48,70
67680,note_on,,,,,144,0,7,,,6,,,60,70
67740,note_off,,,,,60,0,1,,,0,,,79,64
67740,note_off,,,,,60,0,6,,,5,,,67,64
67740,note_off,,,,,780,0,2,,,1,,,60,64
67800,note_on,,,,,60,0,1,,,0,,,84,70
67800,note_on,,,,,60,0,6,,,5,,,72,70
67800,note_on,,,,,60,0,2,,,1,,,64,80
67836,note_off,,,,,156,0,7,,,6,,,60,64
67836,note_off,,,,,156,0,8,,,7,,,48,64
67872,note_off,,,,,192,0,10,,,11,,,40,64
67872,note_off,,,,,192,0,9,,,10,,,52,64
67872,note_off,,,,,192,0,11,,,12,,,40,64
67920,note_on,,,,,0,0,2,,,1,,,62,80
67920,note_off,,,,,120,0,2,,,1,,,64,64
67920,note_off,,,,,120,0,6,,,5,,,72,64
67920,note_on,,,,,0,0,6,,,5,,,71,70
67920,note_on,,,,,0,0,1,,,0,,,83,70
67920,note_off,,,,,120,0,1,,,0,,,84,64
68040,note_on,,,,,0,0,6,,,5,,,72,70
68040,note_off,,,,,120,0,6,,,5,,,71,64
68040,note_on,,,,,0,0,2,,,1,,,64,80
68040,note_on,,,,,0,0,1,,,0,,,84,70
68040,note_off,,,,,120,0,2,,,1,,,62,64
68040,note_off,,,,,120,0,1,,,0,,,83,64
68160,note_on,,,,,0,0,2,,,1,,,62,80
68160,note_on,,,,,288,0,11,,,12,,,36,70
68160,note_on,,,,,324,0,8,,,7,,,55,70
68160,note_on,,,,,324,0,7,,,6,,,64,70
68160,note_off,,,,,120,0,6,,,5,,,72,64
68160,note_on,,,,,0,0,6,,,5,,,71,70
68160,note_on,,,,,288,0,9,,,10,,,48,70
68160,note_off,,,,,120,0,1,,,0,,,84,64
68160,note_on,,,,,0,0,1,,,0,,,83,70
68160,note_on,,,,,288,0,10,,,11,,,36,70
68160,note_off,,,,,120,0,2,,,1,,,64,64
68280,note_off,,,,,120,0,6,,,5,,,71,64
68280,note_on,,,,,0,0,6,,,5,,,72,70
68280,note_off,,,,,120,0,1,,,0,,,83,64
68280,note_on,,,,,0,0,1,,,0,,,84,70
68280,note_off,,,,,120,0,2,,,1,,,62,64
68280,note_on,,,,,0,0,2,,,1,,,64,80
68316,note_off,,,,,156,0,7,,,6,,,64,64
68316,note_off,,,,,156,0,11,,,12,,,36,64
68316,note_off,,,,,156,0,8,,,7,,,55,64
68316,note_off,,,,,156,0,9,,,10,,,48,64
68316,note_off,,,,,156,0,10,,,11,,,36,64
68376,note_off,,,,,96,0,1,,,0,,,84,64
68376,note_off,,,,,96,0,6,,,5,,,72,64
68376,note_off,,,,,96,0,2,,,1,,,64,64
68400,note_on,,,,,84,0,8,,,7,,,55,70
68400,note_on,,,,,24,0,6,,,5,,,67,70
68400,note_on,,,,,84,0,11,,,12,,,43,70
68400,note_on,,,,,84,0,9,,,10,,,55,70
68400,note_on,,,,,84,0,10,,,11,,,43,70
68400,note_on,,,,,84,0,7,,,6,,,62,70
68400,note_on,,,,,24,0,1,,,0,,,79,70
68400,note_on,,,,,24,0,2,,,1,,,59,80
68460,note_off,,,,,60,0,2,,,1,,,59,64
68460,note_off,,,,,60,0,1,,,0,,,79,64
68460,note_off,,,,,60,0,6,,,5,,,67,64
68520,note_on,,,,,60,0,1,,,0,,,79,70
68520,note_on,,,,,60,0,2,,,1,,,59,80
68520,note_on,,,,,60,0,6,,,5,,,67,70
68556,note_off,,,,,156,0,10,,,11,,,43,64
68556,note_off,,,,,156,0,7,,,6,,,62,64
68556,note_off,,,,,156,0,11,,,12,,,43,64
68556,note_off,,,,,156,0,9,,,10,,,55,64
68556,note_off,,,,,156,0,8,,,7,,,55,64
68640,note_off,,,,,120,0,1,,,0,,,79,64
68640,note_on,,,,,0,0,6,,,5,,,66,70
68640,note_off,,,,,120,0,6,,,5,,,67,64
68640,note_on,,,,,0,0,2,,,1,,,58,80
68640,note_off,,,,,120,0,2,,,1,,,59,64
68640,note_on,,,,,0,0,1,,,0,,,78,70
68760,note_off,,,,,120,0,6,,,5,,,66,64
68760,note_on,,,,,0,0,1,,,0,,,79,70
68760,note_on,,,,,0,0,2,,,1,,,59,80
68760,note_off,,,,,120,0,2,,,1,,,58,64
68760,note_on,,,,,0,0,6,,,5,,,67,70
68760,note_off,,,,,120,0,1,,,0,,,78,64
68880,note_off,,,,,120,0,6,,,5,,,67,64
68880,note_on,,,,,0,0,6,,,5,,,66,70
68880,note_on,,,,,324,0,7,,,6,,,62,70
68880,note_off,,,,,120,0,2,,,1,,,59,64
68880,note_on,,,,,0,0,2,,,1,,,58,80
68880,note_on,,,,,324,0,10,,,11,,,31,70
68880,note_on,,,,,324,0,8,,,7,,,53,70
68880,note_off,,,,,120,0,1,,,0,,,79,64
68880,note_on,,,,,0,0,1,,,0,,,78,70
68880,note_on,,,,,324,0,9,,,10,,,43,70
68880,note_on,,,,,324,0,11,,,12,,,31,70
69000,note_off,,,,,120,0,6,,,5,,,66,64
69000,note_off,,,,,120,0,1,,,0,,,78,64
69000,note_on,,,,,0,0,1,,,0,,,79,70
69000,note_on,,,,,0,0,6,,,5,,,67,70
69000,note_off,,,,,120,0,2,,,1,,,58,64
69000,note_on,,,,,0,0,2,,,1,,,59,80
69036,note_off,,,,,156,0,11,,,12,,,31,64
69036,note_off,,,,,156,0,8,,,7,,,53,64
69036,note_off,,,,,156,0,9,,,10,,,43,64
69036,note_off,,,,,156,0,10,,,11,,,31,64
69036,note_off,,,,,156,0,7,,,6,,,62,64
69096,note_off,,,,,96,0,1,,,0,,,79,64
69096,note_off,,,,,96,0,2,,,1,,,59,64
69096,note_off,,,,,96,0,6,,,5,,,67,64
69120,note_on,,,,,24,0,6,,,5,,,60,58
69120,note_on,,,,,84,0,11,,,12,,,36,58
69120,note_on,,,,,84,0,9,,,10,,,48,58
69120,note_on,,,,,84,0,8,,,7,,,52,70
69120,note_on,,,,,24,0,1,,,0,,,72,70
69120,note_on,,,,,84,0,7,,,6,,,60,58
69120,note_on,,,,,84,0,10,,,11,,,36,70
69120,set_tempo,,,,,5040,1,0,483871,,,,,,
69120,note_on,,,,,24,0,2,,,1,,,60,58
69312,note_off,,,,,192,0,1,,,0,,,72,64
69312,note_off,,,,,192,0,8,,,7,,,52,64
69312,note_off,,,,,192,0,2,,,1,,,60,64
69312,note_off,,,,,192,0,9,,,10,,,48,64
69312,note_off,,,,,192,0,7,,,6,,,60,64
69312,note_off,,,,,192,0,10,,,11,,,36,64
69312,note_off,,,,,192,0,6,,,5,,,60,64
69312,note_off,,,,,192,0,11,,,12,,,36,64
69600,note_on,,,,,288,0,7,,,6,,,67,58
69600,note_on,,,,,288,0,10,,,11,,,48,58
69600,note_on,,,,,288,0,11,,,12,,,48,58
69600,note_on,,,,,288,0,2,,,1,,,60,80
69600,note_on,,,,,288,0,6,,,5,,,72,58
69600,note_on,,,,,288,0,8,,,7,,,64,58
69600,note_on,,,,,288,0,9,,,10,,,60,58
69720,note_off,,,,,120,0,8,,,7,,,64,64
69720,note_on,,,,,0,0,8,,,7,,,60,70
69720,note_on,,,,,0,0,6,,,5,,,76,70
69720,note_off,,,,,120,0,6,,,5,,,72,64
69720,note_off,,,,,120,0,2,,,1,,,60,64
69720,note_on,,,,,0,0,2,,,1,,,64,80
69756,note_off,,,,,156,0,10,,,11,,,48,64
69756,note_off,,,,,156,0,9,,,10,,,60,64
69756,note_off,,,,,156,0,7,,,6,,,67,64
69756,note_off,,,,,156,0,11,,,12,,,48,64
69816,note_off,,,,,96,0,8,,,7,,,60,64
69816,note_off,,,,,96,0,2,,,1,,,64,64
69816,note_off,,,,,96,0,6,,,5,,,76,64
69840,note_on,,,,,84,0,9,,,10,,,59,70
69840,note_on,,,,,24,0,8,,,7,,,62,70
69840,note_on,,,,,24,0,6,,,5,,,76,70
69840,note_on,,,,,24,0,2,,,1,,,64,80
69840,set_tempo,,,,,720,1,0,468750,,,,,,
69840,note_on,,,,,84,0,11,,,12,,,47,70
69840,note_on,,,,,84,0,7,,,6,,,67,70
69840,note_on,,,,,84,0,10,,,11,,,47,70
69960,note_on,,,,,0,0,2,,,1,,,62,80
69960,note_on,,,,,0,0,6,,,5,,,74,70
69960,note_off,,,,,120,0,6,,,5,,,76,64
69960,note_off,,,,,120,0,2,,,1,,,64,64
69984,note_off,,,,,144,0,7,,,6,,,67,64
69996,note_off,,,,,156,0,10,,,11,,,47,64
69996,note_off,,,,,156,0,9,,,10,,,59,64
69996,note_off,,,,,156,0,11,,,12,,,47,64
70032,note_off,,,,,192,0,8,,,7,,,62,64
70056,note_off,,,,,96,0,2,,,1,,,62,64
70056,note_off,,,,,96,0,6,,,5,,,74,64
70080,note_on,,,,,24,0,6,,,5,,,72,70
70080,note_on,,,,,24,0,2,,,1,,,60,80
70200,note_on,,,,,0,0,6,,,5,,,71,70
70200,note_on,,,,,0,0,2,,,1,,,59,80
70200,note_off,,,,,120,0,2,,,1,,,60,64
70200,note_off,,,,,120,0,6,,,5,,,72,64
70320,note_on,,,,,0,0,2,,,1,,,57,80
70320,note_off,,,,,120,0,2,,,1,,,59,64
70320,note_on,,,,,324,0,9,,,10,,,54,70
70320,note_on,,,,,324,0,10,,,11,,,42,70
70320,note_on,,,,,336,0,7,,,6,,,62,70
70320,note_on,,,,,324,0,11,,,12,,,42,70
70320,note_on,,,,,288,0,8,,,7,,,60,70
70320,note_off,,,,,120,0,6,,,5,,,71,64
70320,note_on,,,,,0,0,6,,,5,,,69,70
70440,note_off,,,,,120,0,2,,,1,,,57,64
70440,note_on,,,,,0,0,2,,,1,,,60,80
70440,note_off,,,,,120,0,8,,,7,,,60,64
70440,note_on,,,,,0,0,8,,,7,,,57,70
70440,note_on,,,,,0,0,6,,,5,,,72,70
70440,note_off,,,,,120,0,6,,,5,,,69,64
70464,note_off,,,,,144,0,7,,,6,,,62,64
70476,note_off,,,,,156,0,9,,,10,,,54,64
70476,note_off,,,,,156,0,10,,,11,,,42,64
70476,note_off,,,,,156,0,11,,,12,,,42,64
70536,note_off,,,,,96,0,6,,,5,,,72,64
70536,note_off,,,,,96,0,2,,,1,,,60,64
70536,note_off,,,,,96,0,8,,,7,,,57,64
70560,note_on,,,,,96,0,7,,,6,,,64,70
70560,note_on,,,,,24,0,8,,,7,,,55,70
70560,note_on,,,,,24,0,6,,,5,,,72,70
70560,note_on,,,,,84,0,11,,,12,,,43,70
70560,note_on,,,,,24,0,2,,,1,,,60,80
70560,note_on,,,,,84,0,9,,,10,,,55,70
70560,note_on,,,,,84,0,10,,,11,,,43,70
70680,note_on,,,,,0,0,6,,,5,,,71,70
70680,note_off,,,,,120,0,6,,,5,,,72,64
70680,note_on,,,,,0,0,7,,,6,,,62,70
70680,note_off,,,,,120,0,7,,,6,,,64,64
70680,note_off,,,,,120,0,2,,,1,,,60,64
70680,note_on,,,,,0,0,2,,,1,,,59,80
70716,note_off,,,,,156,0,9,,,10,,,55,64
70716,note_off,,,,,156,0,10,,,11,,,43,64
70716,note_off,,,,,156,0,11,,,12,,,43,64
70752,note_off,,,,,192,0,8,,,7,,,55,64
70800,note_off,,,,,120,0,2,,,1,,,59,64
70800,note_on,,,,,0,0,6,,,5,,,69,70
70800,note_off,,,,,120,0,7,,,6,,,62,64
70800,note_on,,,,,0,0,7,,,6,,,60,70
70800,note_on,,,,,0,0,2,,,1,,,57,80
70800,note_off,,,,,120,0,6,,,5,,,71,64
70920,note_on,,,,,0,0,6,,,5,,,67,70
70920,note_off,,,,,120,0,6,,,5,,,69,64
70920,note_on,,,,,0,0,2,,,1,,,55,80
70920,note_on,,,,,0,0,7,,,6,,,59,70
70920,note_off,,,,,120,0,7,,,6,,,60,64
70920,note_off,,,,,120,0,2,,,1,,,57,64
71016,note_off,,,,,96,0,2,,,1,,,55,64
71016,note_off,,,,,96,0,6,,,5,,,67,64
71016,note_off,,,,,96,0,7,,,6,,,59,64
71040,note_on,,,,,324,0,10,,,11,,,48,70
71040,note_on,,,,,24,0,2,,,1,,,55,80
71040,note_on,,,,,324,0,11,,,12,,,48,70
71040,note_on,,,,,288,0,8,,,7,,,64,70
71040,note_on,,,,,24,0,7,,,6,,,67,70
71040,note_on,,,,,24,0,6,,,5,,,67,70
71040,note_on,,,,,324,0,9,,,10,,,60,70
71160,note_off,,,,,120,0,2,,,1,,,55,64
71160,note_off,,,,,120,0,8,,,7,,,64,64
71160,note_on,,,,,0,0,6,,,5,,,76,70
71160,note_off,,,,,120,0,6,,,5,,,67,64
71160,note_on,,,,,0,0,2,,,1,,,64,80
71160,note_on,,,,,0,0,8,,,7,,,60,70
71184,note_off,,,,,144,0,7,,,6,,,67,64
71196,note_off,,,,,156,0,11,,,12,,,48,64
71196,note_off,,,,,156,0,9,,,10,,,60,64
71196,note_off,,,,,156,0,10,,,11,,,48,64
71256,note_off,,,,,96,0,2,,,1,,,64,64
71256,note_off,,,,,96,0,8,,,7,,,60,64
71256,note_off,,,,,96,0,6,,,5,,,76,64
71280,note_on,,,,,84,0,9,,,10,,,59,70
71280,note_on,,,,,24,0,8,,,7,,,62,70
71280,note_on,,,,,84,0,10,,,11,,,47,70
71280,note_on,,,,,84,0,11,,,12,,,47,70
71280,note_on,,,,,24,0,2,,,1,,,64,80
71280,note_on,,,,,96,0,7,,,6,,,67,70
71280,note_on,,,,,24,0,6,,,5,,,76,70
71400,note_off,,,,,120,0,6,,,5,,,76,64
71400,note_on,,,,,0,0,6,,,5,,,74,70
71400,note_off,,,,,120,0,2,,,1,,,64,64
71400,note_on,,,,,0,0,2,,,1,,,62,80
71424,note_off,,,,,144,0,7,,,6,,,67,64
71436,note_off,,,,,156,0,11,,,12,,,47,64
71436,note_off,,,,,156,0,9,,,10,,,59,64
71436,note_off,,,,,156,0,10,,,11,,,47,64
71448,note_off,,,,,168,0,8,,,7,,,62,64
71496,note_off,,,,,96,0,2,,,1,,,62,64
71496,note_off,,,,,96,0,6,,,5,,,74,64
71520,note_on,,,,,84,0,9,,,10,,,55,70
71520,note_on,,,,,96,0,7,,,6,,,62,70
71520,note_on,,,,,84,0,10,,,11,,,43,70
71520,note_on,,,,,24,0,6,,,5,,,72,70
71520,note_on,,,,,24,0,2,,,1,,,60,80
71520,note_on,,,,,84,0,11,,,12,,,43,70
71520,note_on,,,,,72,0,8,,,7,,,55,70
71640,note_off,,,,,120,0,6,,,5,,,72,64
71640,note_on,,,,,0,0,6,,,5,,,71,70
71640,note_on,,,,,0,0,2,,,1,,,59,80
71640,note_off,,,,,120,0,2,,,1,,,60,64
71664,note_off,,,,,144,0,7,,,6,,,62,64
71676,note_off,,,,,156,0,11,,,12,,,43,64
71676,note_off,,,,,156,0,10,,,11,,,43,64
71676,note_off,,,,,156,0,9,,,10,,,55,64
71688,note_off,,,,,168,0,8,,,7,,,55,64
71760,note_on,,,,,0,0,2,,,1,,,57,80
71760,note_on,,,,,84,0,11,,,12,,,42,70
71760,note_off,,,,,120,0,2,,,1,,,59,64
71760,note_on,,,,,84,0,10,,,11,,,42,70
71760,note_on,,,,,96,0,7,,,6,,,62,70
71760,note_on,,,,,72,0,8,,,7,,,60,70
71760,note_on,,,,,84,0,9,,,10,,,54,70
71760,note_on,,,,,0,0,6,,,5,,,69,70
71760,note_off,,,,,120,0,6,,,5,,,71,64
71880,note_on,,,,,0,0,8,,,7,,,57,70
71880,note_off,,,,,120,0,6,,,5,,,69,64
71880,note_on,,,,,0,0,6,,,5,,,72,70
71880,note_off,,,,,120,0,8,,,7,,,60,64
71880,note_on,,,,,0,0,2,,,1,,,60,80
71880,note_off,,,,,120,0,2,,,1,,,57,64
71904,note_off,,,,,144,0,7,,,6,,,62,64
71916,note_off,,,,,156,0,10,,,11,,,42,64
71916,note_off,,,,,156,0,9,,,10,,,54,64
71916,note_off,,,,,156,0,11,,,12,,,42,64
71976,note_off,,,,,96,0,6,,,5,,,72,64
71976,note_off,,,,,96,0,8,,,7,,,57,64
71976,note_off,,,,,96,0,2,,,1,,,60,64
72000,note_on,,,,,84,0,9,,,10,,,55,70
72000,note_on,,,,,24,0,6,,,5,,,72,70
72000,note_on,,,,,24,0,8,,,7,,,55,70
72000,note_on,,,,,96,0,7,,,6,,,64,70
72000,note_on,,,,,24,0,2,,,1,,,60,80
72000,note_on,,,,,84,0,10,,,11,,,43,70
72000,note_on,,,,,84,0,11,,,12,,,43,70
72120,note_on,,,,,0,0,7,,,6,,,62,70
72120,note_off,,,,,120,0,7,,,6,,,64,64
72120,note_on,,,,,0,0,2,,,1,,,59,80
72120,note_on,,,,,0,0,6,,,5,,,71,70
72120,note_off,,,,,120,0,2,,,1,,,60,64
72120,note_off,,,,,120,0,6,,,5,,,72,64
72156,note_off,,,,,156,0,11,,,12,,,43,64
72156,note_off,,,,,156,0,10,,,11,,,43,64
72156,note_off,,,,,156,0,9,,,10,,,55,64
72192,note_off,,,,,192,0,8,,,7,,,55,64
72240,note_on,,,,,0,0,6,,,5,,,69,70
72240,note_on,,,,,0,0,2,,,1,,,57,80
72240,note_off,,,,,120,0,6,,,5,,,71,64
72240,note_on,,,,,0,0,7,,,6,,,60,70
72240,note_off,,,,,120,0,7,,,6,,,62,64
72240,note_off,,,,,120,0,2,,,1,,,59,64
72360,note_off,,,,,120,0,6,,,5,,,69,64
72360,note_on,,,,,0,0,6,,,5,,,67,70
72360,note_off,,,,,120,0,7,,,6,,,60,64
72360,note_on,,,,,0,0,7,,,6,,,59,70
72360,note_on,,,,,0,0,2,,,1,,,55,80
72360,note_off,,,,,120,0,2,,,1,,,57,64
72456,note_off,,,,,96,0,6,,,5,,,67,64
72456,note_off,,,,,96,0,2,,,1,,,55,64
72456,note_off,,,,,96,0,7,,,6,,,59,64
72480,note_on,,,,,3168,0,1,,,0,,,74,58
72480,note_on,,,,,288,0,8,,,7,,,55,70
72480,note_on,,,,,324,0,9,,,10,,,59,70
72480,note_on,,,,,24,0,6,,,5,,,74,70
72480,note_on,,,,,24,0,7,,,6,,,62,70
72480,note_on,,,,,324,0,11,,,12,,,47,70
72480,note_on,,,,,24,0,2,,,1,,,62,80
72480,note_on,,,,,324,0,10,,,11,,,47,70
72600,note_off,,,,,120,0,7,,,6,,,62,64
72600,note_on,,,,,0,0,2,,,1,,,67,80
72600,note_on,,,,,0,0,8,,,7,,,62,70
72600,note_off,,,,,120,0,8,,,7,,,55,64
72600,note_off,,,,,120,0,6,,,5,,,74,64
72600,note_on,,,,,0,0,6,,,5,,,79,70
72600,note_off,,,,,120,0,1,,,0,,,74,64
72600,note_on,,,,,0,0,1,,,0,,,79,70
72600,note_off,,,,,120,0,2,,,1,,,62,64
72600,note_on,,,,,0,0,7,,,6,,,67,70
72636,note_off,,,,,156,0,9,,,10,,,59,64
72636,note_off,,,,,156,0,10,,,11,,,47,64
72636,note_off,,,,,156,0,11,,,12,,,47,64
72696,note_off,,,,,96,0,7,,,6,,,67,64
72696,note_off,,,,,96,0,1,,,0,,,79,64
72696,note_off,,,,,96,0,6,,,5,,,79,64
72696,note_off,,,,,96,0,2,,,1,,,67,64
72696,note_off,,,,,96,0,8,,,7,,,62,64
72720,note_on,,,,,24,0,7,,,6,,,67,70
72720,note_on,,,,,84,0,11,,,12,,,45,70
72720,note_on,,,,,84,0,9,,,10,,,57,70
72720,note_on,,,,,24,0,6,,,5,,,79,70
72720,note_on,,,,,24,0,2,,,1,,,67,80
72720,note_on,,,,,24,0,8,,,7,,,60,70
72720,note_on,,,,,24,0,1,,,0,,,79,70
72720,note_on,,,,,84,0,10,,,11,,,45,70
72840,note_off,,,,,120,0,2,,,1,,,67,64
72840,note_on,,,,,0,0,2,,,1,,,66,80
72840,note_off,,,,,120,0,7,,,6,,,67,64
72840,note_on,,,,,0,0,7,,,6,,,66,70
72840,note_off,,,,,120,0,6,,,5,,,79,64
72840,note_on,,,,,0,0,6,,,5,,,78,70
72840,note_off,,,,,120,0,1,,,0,,,79,64
72840,note_on,,,,,0,0,1,,,0,,,78,70
72876,note_off,,,,,156,0,11,,,12,,,45,64
72876,note_off,,,,,156,0,10,,,11,,,45,64
72876,note_off,,,,,156,0,9,,,10,,,57,64
72876,note_off,,,,,156,0,8,,,7,,,60,64
72936,note_off,,,,,96,0,1,,,0,,,78,64
72936,note_off,,,,,96,0,6,,,5,,,78,64
72936,note_off,,,,,96,0,7,,,6,,,66,64
72936,note_off,,,,,96,0,2,,,1,,,66,64
72960,note_on,,,,,24,0,1,,,0,,,78,70
72960,note_on,,,,,24,0,6,,,5,,,78,70
72960,note_on,,,,,84,0,11,,,12,,,43,70
72960,note_on,,,,,24,0,7,,,6,,,66,70
72960,note_on,,,,,24,0,2,,,1,,,66,80
72960,note_on,,,,,84,0,10,,,11,,,43,70
72960,note_on,,,,,84,0,8,,,7,,,59,70
72960,note_on,,,,,84,0,9,,,10,,,55,70
73080,note_on,,,,,0,0,6,,,5,,,76,70
73080,note_on,,,,,0,0,2,,,1,,,64,80
73080,note_on,,,,,0,0,1,,,0,,,76,70
73080,note_off,,,,,120,0,1,,,0,,,78,64
73080,note_off,,,,,120,0,6,,,5,,,78,64
73080,note_off,,,,,120,0,7,,,6,,,66,64
73080,note_off,,,,,120,0,2,,,1,,,66,64
73080,note_on,,,,,0,0,7,,,6,,,64,70
73116,note_off,,,,,156,0,9,,,10,,,55,64
73116,note_off,,,,,156,0,10,,,11,,,43,64
73116,note_off,,,,,156,0,8,,,7,,,59,64
73116,note_off,,,,,156,0,11,,,12,,,43,64
73176,note_off,,,,,96,0,1,,,0,,,76,64
73176,note_off,,,,,96,0,7,,,6,,,64,64
73176,note_off,,,,,96,0,6,,,5,,,76,64
73176,note_off,,,,,96,0,2,,,1,,,64,64
73200,note_on,,,,,84,0,11,,,12,,,42,70
73200,note_on,,,,,24,0,7,,,6,,,64,70
73200,note_on,,,,,24,0,1,,,0,,,76,70
73200,note_on,,,,,84,0,9,,,10,,,54,70
73200,note_on,,,,,84,0,10,,,11,,,42,70
73200,note_on,,,,,84,0,8,,,7,,,57,70
73200,note_on,,,,,24,0,6,,,5,,,76,70
73200,note_on,,,,,24,0,2,,,1,,,64,80
73320,note_off,,,,,120,0,1,,,0,,,76,64
73320,note_on,,,,,0,0,6,,,5,,,74,70
73320,note_on,,,,,0,0,1,,,0,,,74,70
73320,note_off,,,,,120,0,7,,,6,,,64,64
73320,note_on,,,,,0,0,2,,,1,,,62,80
73320,note_off,,,,,120,0,2,,,1,,,64,64
73320,note_off,,,,,120,0,6,,,5,,,76,64
73320,note_on,,,,,0,0,7,,,6,,,62,70
73356,note_off,,,,,156,0,8,,,7,,,57,64
73356,note_off,,,,,156,0,9,,,10,,,54,64
73356,note_off,,,,,156,0,11,,,12,,,42,64
73356,note_off,,,,,156,0,10,,,11,,,42,64
73416,note_off,,,,,96,0,2,,,1,,,62,64
73416,note_off,,,,,96,0,7,,,6,,,62,64
73416,note_off,,,,,96,0,1,,,0,,,74,64
73416,note_off,,,,,96,0,6,,,5,,,74,64
73440,note_on,,,,,84,0,10,,,11,,,40,70
73440,note_on,,,,,84,0,8,,,7,,,55,70
73440,note_on,,,,,84,0,11,,,12,,,40,70
73440,note_on,,,,,24,0,2,,,1,,,62,80
73440,note_on,,,,,84,0,9,,,10,,,52,70
73440,note_on,,,,,24,0,1,,,0,,,74,70
73440,note_on,,,,,24,0,6,,,5,,,74,70
73440,note_on,,,,,24,0,7,,,6,,,62,70
73560,note_on,,,,,0,0,6,,,5,,,72,70
73560,note_on,,,,,0,0,1,,,0,,,84,70
73560,note_on,,,,,0,0,7,,,6,,,60,70
73560,note_off,,,,,120,0,7,,,6,,,62,64
73560,note_off,,,,,120,0,2,,,1,,,62,64
73560,note_on,,,,,0,0,2,,,1,,,60,80
73560,note_off,,,,,120,0,1,,,0,,,74,64
73560,note_off,,,,,120,0,6,,,5,,,74,64
73596,note_off,,,,,156,0,10,,,11,,,40,64
73596,note_off,,,,,156,0,11,,,12,,,40,64
73596,note_off,,,,,156,0,9,,,10,,,52,64
73596,note_off,,,,,156,0,8,,,7,,,55,64
73656,note_off,,,,,96,0,6,,,5,,,72,64
73656,note_off,,,,,96,0,2,,,1,,,60,64
73656,note_off,,,,,96,0,1,,,0,,,84,64
73656,note_off,,,,,96,0,7,,,6,,,60,64
73680,note_on,,,,,84,0,8,,,7,,,54,70
73680,note_on,,,,,84,0,9,,,10,,,50,70
73680,note_on,,,,,24,0,7,,,6,,,60,70
73680,note_on,,,,,24,0,2,,,1,,,60,80
73680,note_on,,,,,24,0,1,,,0,,,84,70
73680,note_on,,,,,84,0,11,,,12,,,38,70
73680,note_on,,,,,84,0,10,,,11,,,38,70
73680,note_on,,,,,24,0,6,,,5,,,72,70
73800,note_on,,,,,0,0,2,,,1,,,59,80
73800,note_on,,,,,0,0,7,,,6,,,59,70
73800,note_on,,,,,0,0,6,,,5,,,71,70
73800,note_off,,,,,120,0,1,,,0,,,84,64
73800,note_on,,,,,0,0,1,,,0,,,83,70
73800,note_off,,,,,120,0,2,,,1,,,60,64
73800,note_off,,,,,120,0,7,,,6,,,60,64
73800,note_off,,,,,120,0,6,,,5,,,72,64
73836,note_off,,,,,156,0,9,,,10,,,50,64
73836,note_off,,,,,156,0,8,,,7,,,54,64
73836,note_off,,,,,156,0,10,,,11,,,38,64
73836,note_off,,,,,156,0,11,,,12,,,38,64
73896,note_off,,,,,96,0,7,,,6,,,59,64
73896,note_off,,,,,96,0,1,,,0,,,83,64
73896,note_off,,,,,96,0,2,,,1,,,59,64
73896,note_off,,,,,96,0,6,,,5,,,71,64
73920,note_on,,,,,84,0,9,,,10,,,48,70
73920,note_on,,,,,84,0,11,,,12,,,36,70
73920,note_on,,,,,84,0,8,,,7,,,52,70
73920,note_on,,,,,24,0,1,,,0,,,83,70
73920,note_on,,,,,24,0,2,,,1,,,59,80
73920,note_on,,,,,24,0,6,,,5,,,71,70
73920,note_on,,,,,24,0,7,,,6,,,59,70
73920,note_on,,,,,84,0,10,,,11,,,36,70
74040,note_on,,,,,0,0,2,,,1,,,57,80
74040,note_off,,,,,120,0,2,,,1,,,59,64
74040,note_on,,,,,0,0,6,,,5,,,69,70
74040,note_off,,,,,120,0,1,,,0,,,83,64
74040,note_off,,,,,120,0,7,,,6,,,59,64
74040,note_on,,,,,0,0,7,,,6,,,57,70
74040,note_off,,,,,120,0,6,,,5,,,71,64
74040,note_on,,,,,0,0,1,,,0,,,81,70
74076,note_off,,,,,156,0,9,,,10,,,48,64
74076,note_off,,,,,156,0,10,,,11,,,36,64
74076,note_off,,,,,156,0,11,,,12,,,36,64
74076,note_off,,,,,156,0,8,,,7,,,52,64
74136,note_off,,,,,96,0,2,,,1,,,57,64
74136,note_off,,,,,96,0,1,,,0,,,81,64
74136,note_off,,,,,96,0,6,,,5,,,69,64
74136,note_off,,,,,96,0,7,,,6,,,57,64
74160,note_on,,,,,84,0,11,,,12,,,35,70
74160,note_on,,,,,24,0,2,,,1,,,55,80
74160,note_on,,,,,84,0,9,,,10,,,47,70
74160,note_on,,,,,84,0,10,,,11,,,35,70
74160,note_on,,,,,24,0,6,,,5,,,67,70
74160,note_on,,,,,24,0,7,,,6,,,55,70
74160,note_on,,,,,84,0,8,,,7,,,50,70
74160,note_on,,,,,24,0,1,,,0,,,79,70
74280,note_on,,,,,0,0,7,,,6,,,62,70
74280,note_off,,,,,120,0,7,,,6,,,55,64
74280,note_off,,,,,120,0,6,,,5,,,67,64
74280,note_on,,,,,0,0,1,,,0,,,83,70
74280,note_on,,,,,0,0,6,,,5,,,71,70
74280,note_off,,,,,120,0,2,,,1,,,55,64
74280,note_on,,,,,0,0,2,,,1,,,59,80
74280,note_off,,,,,120,0,1,,,0,,,79,64
74316,note_off,,,,,156,0,10,,,11,,,35,64
74316,note_off,,,,,156,0,9,,,10,,,47,64
74316,note_off,,,,,156,0,8,,,7,,,50,64
74316,note_off,,,,,156,0,11,,,12,,,35,64
74376,note_off,,,,,96,0,1,,,0,,,83,64
74376,note_off,,,,,96,0,7,,,6,,,62,64
74376,note_off,,,,,96,0,2,,,1,,,59,64
74376,note_off,,,,,96,0,6,,,5,,,71,64
74400,note_on,,,,,84,0,9,,,10,,,48,70
74400,note_on,,,,,84,0,10,,,11,,,36,70
74400,note_on,,,,,24,0,7,,,6,,,60,70
74400,note_on,,,,,24,0,1,,,0,,,81,70
74400,note_on,,,,,84,0,11,,,12,,,36,70
74400,note_on,,,,,24,0,6,,,5,,,69,70
74400,note_on,,,,,24,0,2,,,1,,,57,80
74400,note_on,,,,,84,0,8,,,7,,,52,70
74520,note_off,,,,,120,0,6,,,5,,,69,64
74520,note_on,,,,,0,0,6,,,5,,,72,70
74520,note_off,,,,,120,0,2,,,1,,,57,64
74520,note_off,,,,,120,0,1,,,0,,,81,64
74520,note_on,,,,,0,0,7,,,6,,,62,70
74520,note_off,,,,,120,0,7,,,6,,,60,64
74520,note_on,,,,,0,0,2,,,1,,,60,80
74520,note_on,,,,,0,0,1,,,0,,,84,70
74556,note_off,,,,,156,0,10,,,11,,,36,64
74556,note_off,,,,,156,0,9,,,10,,,48,64
74556,note_off,,,,,156,0,11,,,12,,,36,64
74556,note_off,,,,,156,0,8,,,7,,,52,64
74616,note_off,,,,,96,0,1,,,0,,,84,64
74616,note_off,,,,,96,0,7,,,6,,,62,64
74616,note_off,,,,,96,0,2,,,1,,,60,64
74616,note_off,,,,,96,0,6,,,5,,,72,64
74640,note_on,,,,,24,0,2,,,1,,,54,80
74640,note_on,,,,,84,0,9,,,10,,,50,70
74640,note_on,,,,,84,0,8,,,7,,,50,70
74640,note_on,,,,,24,0,7,,,6,,,57,70
74640,note_on,,,,,24,0,6,,,5,,,66,70
74640,note_on,,,,,84,0,10,,,11,,,38,70
74640,note_on,,,,,24,0,1,,,0,,,78,70
74640,note_on,,,,,84,0,11,,,12,,,38,70
74760,note_on,,,,,0,0,6,,,5,,,69,70
74760,note_on,,,,,0,0,2,,,1,,,57,80
74760,note_off,,,,,120,0,2,,,1,,,54,64
74760,note_on,,,,,0,0,1,,,0,,,81,70
74760,note_on,,,,,0,0,7,,,6,,,60,70
74760,note_off,,,,,120,0,1,,,0,,,78,64
74760,note_off,,,,,120,0,6,,,5,,,66,64
74760,note_off,,,,,120,0,7,,,6,,,57,64
74796,note_off,,,,,156,0,10,,,11,,,38,64
74796,note_off,,,,,156,0,11,,,12,,,38,64
74796,note_off,,,,,156,0,8,,,7,,,50,64
74796,note_off,,,,,156,0,9,,,10,,,50,64
74856,note_off,,,,,96,0,1,,,0,,,81,64
74856,note_off,,,,,96,0,2,,,1,,,57,64
74856,note_off,,,,,96,0,7,,,6,,,60,64
74856,note_off,,,,,96,0,6,,,5,,,69,64
74880,set_tempo,,,,,5040,1,0,483871,,,,,,
74880,note_on,,,,,84,0,9,,,10,,,43,70
74880,note_on,,,,,84,0,10,,,11,,,31,70
74880,note_on,,,,,24,0,1,,,0,,,79,70
74880,note_on,,,,,84,0,8,,,7,,,50,70
74880,note_on,,,,,24,0,7,,,6,,,59,70
74880,note_on,,,,,84,0,11,,,12,,,31,70
74880,note_on,,,,,24,0,6,,,5,,,67,70
74880,note_on,,,,,24,0,2,,,1,,,55,80
75036,note_off,,,,,156,0,11,,,12,,,31,64
75036,note_off,,,,,156,0,9,,,10,,,43,64
75036,note_off,,,,,156,0,8,,,7,,,50,64
75036,note_off,,,,,156,0,10,,,11,,,31,64
75072,note_off,,,,,192,0,1,,,0,,,79,64
75072,note_off,,,,,192,0,6,,,5,,,67,64
75072,note_off,,,,,192,0,7,,,6,,,59,64
75072,note_off,,,,,192,0,2,,,1,,,55,64
75120,note_on,,,,,84,0,10,,,11,,,43,70
75120,note_on,,,,,84,0,11,,,12,,,43,70
75120,note_on,,,,,84,0,9,,,10,,,55,70
75276,note_off,,,,,156,0,9,,,10,,,55,64
75276,note_off,,,,,156,0,10,,,11,,,43,64
75276,note_off,,,,,156,0,11,,,12,,,43,64
75360,note_on,,,,,288,0,6,,,5,,,55,70
75360,note_on,,,,,288,0,1,,,0,,,67,70
75480,note_off,,,,,120,0,6,,,5,,,55,64
75480,note_off,,,,,120,0,1,,,0,,,67,64
75480,note_on,,,,,0,0,6,,,5,,,60,70
75480,note_on,,,,,0,0,1,,,0,,,72,70
75576,note_off,,,,,96,0,6,,,5,,,60,64
75576,note_off,,,,,96,0,1,,,0,,,72,64
75600,note_on,,,,,564,0,8,,,7,,,52,70
75600,set_tempo,,,,,720,1,0,468750,,,,,,
75600,note_on,,,,,24,0,1,,,0,,,71,70
75600,note_on,,,,,324,0,10,,,11,,,36,70
75600,note_on,,,,,528,0,7,,,6,,,55,70
75600,note_on,,,,,324,0,9,,,10,,,48,70
75600,note_on,,,,,324,0,11,,,12,,,36,70
75600,note_on,,,,,24,0,6,,,5,,,59,70
75720,note_off,,,,,120,0,1,,,0,,,71,64
75720,note_on,,,,,0,0,1,,,0,,,72,70
75720,note_off,,,,,120,0,6,,,5,,,59,64
75720,note_on,,,,,0,0,6,,,5,,,60,70
75756,note_off,,,,,156,0,8,,,7,,,52,64
75792,note_off,,,,,192,0,7,,,6,,,55,64
75792,note_off,,,,,192,0,11,,,12,,,36,64
75792,note_off,,,,,192,0,9,,,10,,,48,64
75792,note_off,,,,,192,0,10,,,11,,,36,64
75840,note_off,,,,,120,0,6,,,5,,,60,64
75840,note_on,,,,,0,0,6,,,5,,,62,70
75840,note_on,,,,,0,0,1,,,0,,,74,70
75840,note_off,,,,,120,0,1,,,0,,,72,64
75960,note_off,,,,,120,0,1,,,0,,,74,64
75960,note_off,,,,,120,0,6,,,5,,,62,64
75960,note_on,,,,,0,0,6,,,5,,,60,70
75960,note_on,,,,,0,0,1,,,0,,,72,70
76080,note_off,,,,,120,0,1,,,0,,,72,64
76080,note_on,,,,,0,0,1,,,0,,,76,70
76080,note_on,,,,,1008,0,2,,,1,,,55,80
76080,note_on,,,,,0,0,6,,,5,,,64,70
76080,note_off,,,,,120,0,6,,,5,,,60,64
76200,note_off,,,,,120,0,2,,,1,,,55,64
76200,note_on,,,,,0,0,6,,,5,,,60,70
76200,note_off,,,,,120,0,6,,,5,,,64,64
76200,note_on,,,,,0,0,1,,,0,,,72,70
76200,note_off,,,,,120,0,1,,,0,,,76,64
76200,note_on,,,,,0,0,2,,,1,,,60,80
76296,note_off,,,,,96,0,6,,,5,,,60,64
76296,note_off,,,,,96,0,1,,,0,,,72,64
76296,note_off,,,,,96,0,2,,,1,,,60,64
76320,note_on,,,,,24,0,2,,,1,,,59,80
76320,note_on,,,,,24,0,6,,,5,,,55,70
76320,note_on,,,,,24,0,1,,,0,,,67,70
76440,note_off,,,,,120,0,2,,,1,,,59,64
76440,note_on,,,,,0,0,2,,,1,,,60,80
76512,note_off,,,,,192,0,6,,,5,,,55,64
76512,note_off,,,,,192,0,1,,,0,,,67,64
76560,note_on,,,,,768,0,10,,,11,,,40,70
76560,note_on,,,,,768,0,9,,,10,,,52,70
76560,note_on,,,,,768,0,7,,,6,,,55,70
76560,note_off,,,,,120,0,2,,,1,,,60,64
76560,note_on,,,,,0,0,2,,,1,,,62,80
76560,note_on,,,,,768,0,11,,,12,,,40,70
76560,note_on,,,,,804,0,8,,,7,,,48,70
76680,note_off,,,,,120,0,2,,,1,,,62,64
76680,note_on,,,,,0,0,2,,,1,,,60,80
76716,note_off,,,,,156,0,9,,,10,,,52,64
76716,note_off,,,,,156,0,10,,,11,,,40,64
76716,note_off,,,,,156,0,7,,,6,,,55,64
76716,note_off,,,,,156,0,8,,,7,,,48,64
76716,note_off,,,,,156,0,11,,,12,,,40,64
76800,note_on,,,,,84,0,7,,,6,,,55,70
76800,note_on,,,,,84,0,8,,,7,,,52,70
76800,note_on,,,,,288,0,1,,,0,,,67,70
76800,note_on,,,,,84,0,9,,,10,,,48,70
76800,note_off,,,,,120,0,2,,,1,,,60,64
76800,note_on,,,,,84,0,11,,,12,,,36,70
76800,note_on,,,,,0,0,2,,,1,,,64,80
76800,note_on,,,,,288,0,6,,,5,,,55,70
76800,note_on,,,,,84,0,10,,,11,,,36,70
76920,note_on,,,,,0,0,2,,,1,,,60,80
76920,note_on,,,,,0,0,6,,,5,,,62,58
76920,note_off,,,,,120,0,1,,,0,,,67,64
76920,note_on,,,,,0,0,1,,,0,,,74,70
76920,note_off,,,,,120,0,6,,,5,,,55,64
76920,note_off,,,,,120,0,2,,,1,,,64,64
76956,note_off,,,,,156,0,11,,,12,,,36,64
76956,note_off,,,,,156,0,10,,,11,,,36,64
76956,note_off,,,,,156,0,8,,,7,,,52,64
76956,note_off,,,,,156,0,7,,,6,,,55,64
76956,note_off,,,,,156,0,9,,,10,,,48,64
77016,note_off,,,,,96,0,6,,,5,,,62,64
77016,note_off,,,,,96,0,1,,,0,,,74,64
77016,note_off,,,,,96,0,2,,,1,,,60,64
77040,note_on,,,,,84,0,10,,,11,,,35,70
77040,note_on,,,,,24,0,1,,,0,,,73,70
77040,note_on,,,,,84,0,7,,,6,,,55,58
77040,note_on,,,,,24,0,2,,,1,,,55,80
77040,note_on,,,,,24,0,6,,,5,,,61,70
77040,note_on,,,,,84,0,8,,,7,,,53,70
77040,note_on,,,,,84,0,9,,,10,,,47,70
77040,note_on,,,,,84,0,11,,,12,,,35,70
77160,note_off,,,,,120,0,6,,,5,,,61,64
77160,note_on,,,,,0,0,6,,,5,,,62,70
77160,note_off,,,,,120,0,1,,,0,,,73,64
77160,note_on,,,,,0,0,1,,,0,,,74,70
77196,note_off,,,,,156,0,8,,,7,,,53,64
77196,note_off,,,,,156,0,10,,,11,,,35,64
77196,note_off,,,,,156,0,7,,,6,,,55,64
77196,note_off,,,,,156,0,11,,,12,,,35,64
77196,note_off,,,,,156,0,9,,,10,,,47,64
77232,note_off,,,,,192,0,2,,,1,,,55,64
77280,note_off,,,,,120,0,6,,,5,,,62,64
77280,note_off,,,,,120,0,1,,,0,,,74,64
77280,note_on,,,,,0,0,6,,,5,,,64,70
77280,note_on,,,,,0,0,1,,,0,,,76,70
77400,note_off,,,,,120,0,1,,,0,,,76,64
77400,note_off,,,,,120,0,6,,,5,,,64,64
77400,note_on,,,,,0,0,6,,,5,,,62,70
77400,note_on,,,,,0,0,1,,,0,,,74,70
77520,note_on,,,,,288,0,2,,,1,,,55,80
77520,note_off,,,,,120,0,6,,,5,,,62,64
77520,note_on,,,,,0,0,6,,,5,,,65,70
77520,note_off,,,,,120,0,1,,,0,,,74,64
77520,note_on,,,,,0,0,1,,,0,,,77,70
77640,note_off,,,,,120,0,2,,,1,,,55,64
77640,note_off,,,,,120,0,1,,,0,,,77,64
77640,note_on,,,,,0,0,6,,,5,,,62,70
77640,note_on,,,,,0,0,2,,,1,,,62,80
77640,note_off,,,,,120,0,6,,,5,,,65,64
77640,note_on,,,,,0,0,1,,,0,,,74,70
77736,note_off,,,,,96,0,1,,,0,,,74,64
77736,note_off,,,,,96,0,6,,,5,,,62,64
77736,note_off,,,,,96,0,2,,,1,,,62,64
77760,note_on,,,,,24,0,6,,,5,,,55,70
77760,note_on,,,,,24,0,1,,,0,,,67,70
77760,note_on,,,,,24,0,2,,,1,,,61,80
77880,note_off,,,,,120,0,2,,,1,,,61,64
77880,note_on,,,,,0,0,2,,,1,,,62,80
77952,note_off,,,,,192,0,1,,,0,,,67,64
77952,note_off,,,,,192,0,6,,,5,,,55,64
78000,note_on,,,,,804,0,7,,,6,,,55,70
78000,note_on,,,,,0,0,2,,,1,,,64,80
78000,note_on,,,,,804,0,9,,,10,,,47,70
78000,note_off,,,,,120,0,2,,,1,,,62,64
78000,note_on,,,,,804,0,11,,,12,,,35,70
78000,note_on,,,,,804,0,8,,,7,,,50,70
78000,note_on,,,,,804,0,10,,,11,,,35,70
78120,note_on,,,,,0,0,2,,,1,,,62,80
78120,note_off,,,,,120,0,2,,,1,,,64,64
78156,note_off,,,,,156,0,9,,,10,,,47,64
78156,note_off,,,,,156,0,8,,,7,,,50,64
78156,note_off,,,,,156,0,10,,,11,,,35,64
78156,note_off,,,,,156,0,11,,,12,,,35,64
78156,note_off,,,,,156,0,7,,,6,,,55,64
78240,note_on,,,,,288,0,6,,,5,,,55,70
78240,note_on,,,,,84,0,9,,,10,,,43,70
78240,note_on,,,,,288,0,1,,,0,,,67,70
78240,note_on,,,,,84,0,10,,,11,,,31,70
78240,note_on,,,,,84,0,11,,,12,,,31,70
78240,note_on,,,,,84,0,8,,,7,,,55,70
78240,note_on,,,,,84,0,7,,,6,,,55,70
78240,note_off,,,,,120,0,2,,,1,,,62,64
78240,note_on,,,,,0,0,2,,,1,,,65,80
78360,note_on,,,,,0,0,6,,,5,,,65,58
78360,note_off,,,,,120,0,6,,,5,,,55,64
78360,note_off,,,,,120,0,2,,,1,,,65,64
78360,note_off,,,,,120,0,1,,,0,,,67,64
78360,note_on,,,,,0,0,2,,,1,,,62,80
78360,note_on,,,,,0,0,1,,,0,,,77,70
78396,note_off,,,,,156,0,9,,,10,,,43,64
78396,note_off,,,,,156,0,7,,,6,,,55,64
78396,note_off,,,,,156,0,11,,,12,,,31,64
78396,note_off,,,,,156,0,8,,,7,,,55,64
78396,note_off,,,,,156,0,10,,,11,,,31,64
78456,note_off,,,,,96,0,6,,,5,,,65,64
78456,note_off,,,,,96,0,1,,,0,,,77,64
78456,note_off,,,,,96,0,2,,,1,,,62,64
78480,note_on,,,,,84,0,8,,,7,,,55,70
78480,note_on,,,,,24,0,2,,,1,,,60,80
78480,note_on,,,,,84,0,7,,,6,,,60,70
78480,note_on,,,,,84,0,11,,,12,,,36,70
78480,note_on,,,,,24,0,1,,,0,,,77,70
78480,note_on,,,,,84,0,9,,,10,,,48,70
78480,note_on,,,,,84,0,10,,,11,,,36,70
78480,note_on,,,,,24,0,6,,,5,,,65,70
78600,note_off,,,,,120,0,1,,,0,,,77,64
78600,note_on,,,,,0,0,1,,,0,,,76,70
78600,note_off,,,,,120,0,6,,,5,,,65,64
78600,note_on,,,,,0,0,6,,,5,,,64,70
78636,note_off,,,,,156,0,11,,,12,,,36,64
78636,note_off,,,,,156,0,8,,,7,,,55,64
78636,note_off,,,,,156,0,9,,,10,,,48,64
78636,note_off,,,,,156,0,10,,,11,,,36,64
78720,note_on,,,,,0,0,1,,,0,,,74,70
78720,note_off,,,,,120,0,1,,,0,,,76,64
78720,note_on,,,,,84,0,11,,,12,,,46,70
78720,note_on,,,,,84,0,9,,,10,,,58,70
78720,note_on,,,,,84,0,8,,,7,,,53,70
78720,note_off,,,,,120,0,6,,,5,,,64,64
78720,note_on,,,,,0,0,6,,,5,,,62,70
78720,note_on,,,,,84,0,10,,,11,,,46,70
78840,note_off,,,,,120,0,6,,,5,,,62,64
78840,note_off,,,,,120,0,8,,,7,,,53,64
78840,note_on,,,,,0,0,8,,,7,,,52,70
78840,note_on,,,,,0,0,6,,,5,,,60,70
78840,note_off,,,,,120,0,1,,,0,,,74,64
78840,note_on,,,,,0,0,1,,,0,,,72,70
78960,note_off,,,,,120,0,6,,,5,,,60,64
78960,note_on,,,,,0,0,6,,,5,,,65,70
78960,note_on,,,,,0,0,11,,,12,,,45,70
78960,note_off,,,,,240,0,10,,,11,,,46,64
78960,note_on,,,,,0,0,10,,,11,,,45,70
78960,note_on,,,,,0,0,8,,,7,,,57,70
78960,note_on,,,,,0,0,9,,,10,,,57,70
78960,note_off,,,,,240,0,11,,,12,,,46,64
78960,note_off,,,,,120,0,1,,,0,,,72,64
78960,note_on,,,,,0,0,1,,,0,,,77,70
78960,note_off,,,,,120,0,8,,,7,,,52,64
78960,note_off,,,,,240,0,9,,,10,,,58,64
79056,note_off,,,,,576,0,7,,,6,,,60,64
79080,note_off,,,,,120,0,10,,,11,,,45,64
79080,note_off,,,,,120,0,1,,,0,,,77,64
79080,note_on,,,,,0,0,1,,,0,,,81,70
79080,note_on,,,,,0,0,8,,,7,,,53,70
79080,note_on,,,,,0,0,10,,,11,,,41,70
79080,note_off,,,,,120,0,8,,,7,,,57,64
79080,note_off,,,,,120,0,6,,,5,,,65,64
79080,note_on,,,,,0,0,6,,,5,,,69,70
79080,note_on,,,,,0,0,9,,,10,,,53,70
79080,note_off,,,,,120,0,11,,,12,,,45,64
79080,note_on,,,,,0,0,11,,,12,,,41,70
79080,note_off,,,,,120,0,9,,,10,,,57,64
79176,note_off,,,,,96,0,1,,,0,,,81,64
79176,note_off,,,,,96,0,9,,,10,,,53,64
79176,note_off,,,,,96,0,8,,,7,,,53,64
79176,note_off,,,,,96,0,10,,,11,,,41,64
79176,note_off,,,,,96,0,11,,,12,,,41,64
79176,note_off,,,,,96,0,6,,,5,,,69,64
79200,note_on,,,,,24,0,1,,,0,,,79,70
79200,note_on,,,,,144,0,7,,,6,,,60,70
79200,note_on,,,,,24,0,8,,,7,,,48,70
79200,note_on,,,,,24,0,6,,,5,,,67,70
79200,note_on,,,,,24,0,10,,,11,,,40,70
79200,note_on,,,,,24,0,9,,,10,,,52,70
79200,note_on,,,,,24,0,11,,,12,,,40,70
79260,note_off,,,,,780,0,2,,,1,,,60,64
79260,note_off,,,,,60,0,6,,,5,,,67,64
79260,note_off,,,,,60,0,1,,,0,,,79,64
79320,note_on,,,,,60,0,1,,,0,,,84,70
79320,note_on,,,,,60,0,2,,,1,,,64,80
79320,note_on,,,,,60,0,6,,,5,,,72,70
79356,note_off,,,,,156,0,8,,,7,,,48,64
79356,note_off,,,,,156,0,7,,,6,,,60,64
79392,note_off,,,,,192,0,9,,,10,,,52,64
79392,note_off,,,,,192,0,10,,,11,,,40,64
79392,note_off,,,,,192,0,11,,,12,,,40,64
79440,note_on,,,,,0,0,6,,,5,,,71,70
79440,note_off,,,,,120,0,1,,,0,,,84,64
79440,note_on,,,,,0,0,1,,,0,,,83,70
79440,note_on,,,,,0,0,2,,,1,,,62,80
79440,note_off,,,,,120,0,2,,,1,,,64,64
79440,note_off,,,,,120,0,6,,,5,,,72,64
79560,note_off,,,,,120,0,1,,,0,,,83,64
79560,note_on,,,,,0,0,2,,,1,,,64,80
79560,note_off,,,,,120,0,6,,,5,,,71,64
79560,note_on,,,,,0,0,1,,,0,,,84,70
79560,note_off,,,,,120,0,2,,,1,,,62,64
79560,note_on,,,,,0,0,6,,,5,,,72,70
79680,note_off,,,,,120,0,6,,,5,,,72,64
79680,note_on,,,,,0,0,6,,,5,,,71,70
79680,note_on,,,,,324,0,8,,,7,,,55,70
79680,note_on,,,,,288,0,9,,,10,,,48,70
79680,note_on,,,,,288,0,11,,,12,,,36,70
79680,note_on,,,,,324,0,7,,,6,,,64,70
79680,note_on,,,,,288,0,10,,,11,,,36,70
79680,note_off,,,,,120,0,2,,,1,,,64,64
79680,note_on,,,,,0,0,1,,,0,,,83,70
79680,note_on,,,,,0,0,2,,,1,,,62,80
79680,note_off,,,,,120,0,1,,,0,,,84,64
79800,note_off,,,,,120,0,1,,,0,,,83,64
79800,note_off,,,,,120,0,6,,,5,,,71,64
79800,note_off,,,,,120,0,2,,,1,,,62,64
79800,note_on,,,,,0,0,6,,,5,,,72,70
79800,note_on,,,,,0,0,1,,,0,,,84,70
79800,note_on,,,,,0,0,2,,,1,,,64,80
79836,note_off,,,,,156,0,11,,,12,,,36,64
79836,note_off,,,,,156,0,9,,,10,,,48,64
79836,note_off,,,,,156,0,10,,,11,,,36,64
79836,note_off,,,,,156,0,8,,,7,,,55,64
79836,note_off,,,,,156,0,7,,,6,,,64,64
79896,note_off,,,,,96,0,2,,,1,,,64,64
79896,note_off,,,,,96,0,1,,,0,,,84,64
79896,note_off,,,,,96,0,6,,,5,,,72,64
79920,note_on,,,,,84,0,10,,,11,,,43,70
79920,note_on,,,,,24,0,1,,,0,,,79,70
79920,note_on,,,,,24,0,2,,,1,,,59,80
79920,note_on,,,,,84,0,7,,,6,,,62,70
79920,note_on,,,,,24,0,6,,,5,,,67,70
79920,note_on,,,,,84,0,9,,,10,,,55,70
79920,note_on,,,,,84,0,8,,,7,,,55,70
79920,note_on,,,,,84,0,11,,,12,,,43,70
79980,note_off,,,,,60,0,2,,,1,,,59,64
79980,note_off,,,,,60,0,1,,,0,,,79,64
79980,note_off,,,,,60,0,6,,,5,,,67,64
80040,note_on,,,,,60,0,2,,,1,,,59,80
80040,note_on,,,,,60,0,6,,,5,,,67,70
80040,note_on,,,,,60,0,1,,,0,,,79,70
80076,note_off,,,,,156,0,7,,,6,,,62,64
80076,note_off,,,,,156,0,9,,,10,,,55,64
80076,note_off,,,,,156,0,11,,,12,,,43,64
80076,note_off,,,,,156,0,8,,,7,,,55,64
80076,note_off,,,,,156,0,10,,,11,,,43,64
80160,note_on,,,,,0,0,1,,,0,,,78,70
80160,note_off,,,,,120,0,6,,,5,,,67,64
80160,note_on,,,,,0,0,6,,,5,,,66,70
80160,note_on,,,,,0,0,2,,,1,,,58,80
80160,note_off,,,,,120,0,2,,,1,,,59,64
80160,note_off,,,,,120,0,1,,,0,,,79,64
80280,note_on,,,,,0,0,1,,,0,,,79,70
80280,note_on,,,,,0,0,6,,,5,,,67,70
80280,note_off,,,,,120,0,6,,,5,,,66,64
80280,note_on,,,,,0,0,2,,,1,,,59,80
80280,note_off,,,,,120,0,2,,,1,,,58,64
80280,note_off,,,,,120,0,1,,,0,,,78,64
80400,note_on,,,,,0,0,6,,,5,,,66,70
80400,note_off,,,,,120,0,1,,,0,,,79,64
80400,note_on,,,,,0,0,1,,,0,,,78,70
80400,note_on,,,,,324,0,10,,,11,,,31,70
80400,note_on,,,,,324,0,9,,,10,,,43,70
80400,note_on,,,,,324,0,8,,,7,,,53,70
80400,note_on,,,,,324,0,11,,,12,,,31,70
80400,note_on,,,,,0,0,2,,,1,,,58,80
80400,note_off,,,,,120,0,2,,,1,,,59,64
80400,note_on,,,,,324,0,7,,,6,,,62,70
80400,note_off,,,,,120,0,6,,,5,,,67,64
80520,note_off,,,,,120,0,6,,,5,,,66,64
80520,note_on,,,,,0,0,2,,,1,,,59,80
80520,note_off,,,,,120,0,2,,,1,,,58,64
80520,note_on,,,,,0,0,6,,,5,,,67,70
80520,note_on,,,,,0,0,1,,,0,,,79,70
80520,note_off,,,,,120,0,1,,,0,,,78,64
80556,note_off,,,,,156,0,11,,,12,,,31,64
80556,note_off,,,,,156,0,10,,,11,,,31,64
80556,note_off,,,,,156,0,8,,,7,,,53,64
80556,note_off,,,,,156,0,9,,,10,,,43,64
80556,note_off,,,,,156,0,7,,,6,,,62,64
80616,note_off,,,,,96,0,1,,,0,,,79,64
80616,note_off,,,,,96,0,2,,,1,,,59,64
80616,note_off,,,,,96,0,6,,,5,,,67,64
80640,note_on,,,,,84,0,8,,,7,,,52,58
80640,note_on,,,,,84,0,10,,,11,,,36,58
80640,note_on,,,,,84,0,7,,,6,,,60,58
80640,set_tempo,,,,,5040,1,0,476190,,,,,,
80640,note_on,,,,,84,0,11,,,12,,,36,58
80640,note_on,,,,,24,0,6,,,5,,,60,58
80640,note_on,,,,,24,0,1,,,0,,,72,58
80640,note_on,,,,,84,0,9,,,10,,,48,58
80640,note_on,,,,,24,0,2,,,1,,,60,58
80832,note_off,,,,,192,0,7,,,6,,,60,64
80832,note_off,,,,,192,0,11,,,12,,,36,64
80832,note_off,,,,,192,0,1,,,0,,,72,64
80832,note_off,,,,,192,0,10,,,11,,,36,64
80832,note_off,,,,,192,0,9,,,10,,,48,64
80832,note_off,,,,,192,0,8,,,7,,,52,64
80832,note_off,,,,,192,0,6,,,5,,,60,64
80832,note_off,,,,,192,0,2,,,1,,,60,64
81120,note_on,,,,,288,0,1,,,0,,,79,105
81120,note_on,,,,,288,0,6,,,5,,,79,105
81120,note_on,,,,,288,0,7,,,6,,,67,105
81264,note_off,,,,,144,0,1,,,0,,,79,64
81264,note_off,,,,,144,0,7,,,6,,,67,64
81264,note_off,,,,,144,0,6,,,5,,,79,64
81360,note_on,,,,,37968,0,5,,,4,,,48,105
81360,note_on,,,,,0,0,4,,,3,,,72,105
81360,note_on,,,,,96,0,6,,,5,,,79,105
81360,note_on,,,,,35088,0,3,,,2,,,64,105
81360,note_on,,,,,96,0,7,,,6,,,67,105
81360,note_on,,,,,0,0,3,,,2,,,67,105
81360,note_on,,,,,37968,0,4,,,3,,,60,105
81360,set_tempo,,,,,720,1,0,454545,,,,,,
81360,note_on,,,,,96,0,1,,,0,,,79,105
81552,note_off,,,,,0,0,4,,,3,,,60,64
81552,note_off,,,,,192,0,4,,,3,,,72,64
81552,note_off,,,,,192,0,5,,,4,,,48,64
81600,note_on,,,,,0,0,3,,,2,,,64,105
81600,note_off,,,,,0,0,3,,,2,,,64,64
81600,note_off,,,,,240,0,3,,,2,,,67,64
81600,note_on,,,,,768,0,10,,,11,,,52,105
81600,note_on,,,,,768,0,9,,,10,,,64,105
81600,note_on,,,,,0,0,3,,,2,,,60,105
81600,note_on,,,,,768,0,11,,,12,,,52,105
81600,note_on,,,,,768,0,2,,,1,,,64,105
81600,note_on,,,,,768,0,8,,,7,,,64,105
81792,note_off,,,,,192,0,3,,,2,,,64,64
81792,note_off,,,,,0,0,3,,,2,,,60,64
81840,note_off,,,,,240,0,8,,,7,,,64,64
81840,note_off,,,,,480,0,1,,,0,,,79,64
81840,note_on,,,,,0,0,1,,,0,,,76,105
81840,note_on,,,,,0,0,7,,,6,,,64,105
81840,note_off,,,,,480,0,7,,,6,,,67,64
81840,note_on,,,,,0,0,9,,,10,,,60,105
81840,note_off,,,,,240,0,9,,,10,,,64,64
81840,note_on,,,,,0,0,8,,,7,,,60,105
81840,note_on,,,,,0,0,2,,,1,,,60,105
81840,note_on,,,,,0,0,6,,,5,,,76,105
81840,note_off,,,,,480,0,6,,,5,,,79,64
81840,note_on,,,,,0,0,11,,,12,,,48,105
81840,note_off,,,,,240,0,11,,,12,,,52,64
81840,note_off,,,,,240,0,10,,,11,,,52,64
81840,note_off,,,,,240,0,2,,,1,,,64,64
81840,note_on,,,,,0,0,10,,,11,,,48,105
81936,note_off,,,,,96,0,2,,,1,,,60,64
81936,note_off,,,,,96,0,7,,,6,,,64,64
81936,note_off,,,,,96,0,1,,,0,,,76,64
81936,note_off,,,,,96,0,6,,,5,,,76,64
81936,note_off,,,,,96,0,11,,,12,,,48,64
81936,note_off,,,,,96,0,8,,,7,,,60,64
81936,note_off,,,,,96,0,10,,,11,,,48,64
81936,note_off,,,,,96,0,9,,,10,,,60,64
82080,note_on,,,,,528,0,5,,,4,,,48,105
82080,note_on,,,,,144,0,1,,,0,,,76,105
82080,note_on,,,,,0,0,4,,,3,,,60,105
82080,note_on,,,,,528,0,4,,,3,,,72,105
82080,note_on,,,,,144,0,7,,,6,,,64,105
82080,note_on,,,,,144,0,6,,,5,,,76,105
82272,note_off,,,,,192,0,5,,,4,,,48,64
82272,note_off,,,,,0,0,4,,,3,,,72,64
82272,note_off,,,,,192,0,4,,,3,,,60,64
82320,note_on,,,,,384,0,8,,,7,,,60,105
82320,note_on,,,,,384,0,11,,,12,,,48,105
82320,note_on,,,,,384,0,2,,,1,,,60,105
82320,note_on,,,,,384,0,10,,,11,,,48,105
82320,note_on,,,,,0,0,3,,,2,,,60,105
82320,note_on,,,,,384,0,9,,,10,,,60,105
82320,note_on,,,,,528,0,3,,,2,,,64,105
82560,note_on,,,,,0,0,9,,,10,,,57,105
82560,note_off,,,,,480,0,6,,,5,,,76,64
82560,note_off,,,,,240,0,8,,,7,,,60,64
82560,note_on,,,,,0,0,8,,,7,,,57,105
82560,note_on,,,,,0,0,1,,,0,,,72,105
82560,note_on,,,,,0,0,6,,,5,,,72,105
82560,note_on,,,,,0,0,10,,,11,,,45,105
82560,note_off,,,,,240,0,10,,,11,,,48,64
82560,note_off,,,,,240,0,9,,,10,,,60,64
82560,note_off,,,,,480,0,1,,,0,,,76,64
82560,note_off,,,,,240,0,3,,,2,,,60,64
82560,note_off,,,,,240,0,11,,,12,,,48,64
82560,note_off,,,,,0,0,3,,,2,,,64,64
82560,note_on,,,,,0,0,7,,,6,,,60,105
82560,note_off,,,,,480,0,7,,,6,,,64,64
82560,note_on,,,,,0,0,2,,,1,,,57,105
82560,note_off,,,,,240,0,2,,,1,,,60,64
82560,note_on,,,,,0,0,11,,,12,,,45,105
82560,note_on,,,,,0,0,3,,,2,,,60,105
82560,note_on,,,,,0,0,3,,,2,,,48,105
82656,note_off,,,,,96,0,7,,,6,,,60,64
82656,note_off,,,,,96,0,10,,,11,,,45,64
82656,note_off,,,,,96,0,11,,,12,,,45,64
82656,note_off,,,,,96,0,1,,,0,,,72,64
82656,note_off,,,,,96,0,8,,,7,,,57,64
82656,note_off,,,,,96,0,6,,,5,,,72,64
82656,note_off,,,,,96,0,9,,,10,,,57,64
82656,note_off,,,,,96,0,2,,,1,,,57,64
82752,note_off,,,,,192,0,3,,,2,,,48,64
82752,note_off,,,,,0,0,3,,,2,,,60,64
82800,note_on,,,,,144,0,7,,,6,,,60,105
82800,note_on,,,,,144,0,1,,,0,,,72,105
82800,note_on,,,,,144,0,6,,,5,,,72,105
83040,note_off,,,,,240,0,1,,,0,,,72,64
83040,note_on,,,,,0,0,7,,,6,,,65,105
83040,note_on,,,,,384,0,9,,,10,,,57,105
83040,note_on,,,,,0,0,6,,,5,,,77,105
83040,note_on,,,,,384,0,8,,,7,,,60,105
83040,note_on,,,,,0,0,1,,,0,,,77,105
83040,note_on,,,,,384,0,2,,,1,,,57,105
83040,note_on,,,,,384,0,11,,,12,,,45,105
83040,note_off,,,,,240,0,6,,,5,,,72,64
83040,note_on,,,,,0,0,3,,,2,,,48,105
83040,note_on,,,,,384,0,10,,,11,,,45,105
83040,note_on,,,,,288,0,3,,,2,,,60,105
83040,note_off,,,,,240,0,7,,,6,,,60,64
83184,note_off,,,,,144,0,8,,,7,,,60,64
83232,note_off,,,,,0,0,3,,,2,,,60,64
83232,note_off,,,,,192,0,3,,,2,,,48,64
83280,note_on,,,,,48,0,3,,,2,,,60,105
83280,note_on,,,,,0,0,3,,,2,,,48,105
83280,note_off,,,,,240,0,9,,,10,,,57,64
83280,note_on,,,,,0,0,2,,,1,,,53,105
83280,note_off,,,,,240,0,2,,,1,,,57,64
83280,note_on,,,,,0,0,10,,,11,,,41,105
83280,note_off,,,,,240,0,10,,,11,,,45,64
83280,note_on,,,,,0,0,7,,,6,,,69,105
83280,note_off,,,,,240,0,7,,,6,,,65,64
83280,note_on,,,,,96,0,8,,,7,,,60,105
83280,note_on,,,,,0,0,6,,,5,,,81,105
83280,note_on,,,,,0,0,11,,,12,,,41,105
83280,note_on,,,,,0,0,1,,,0,,,81,105
83280,note_off,,,,,240,0,1,,,0,,,77,64
83280,note_off,,,,,240,0,6,,,5,,,77,64
83280,note_on,,,,,0,0,9,,,10,,,53,105
83280,note_off,,,,,240,0,11,,,12,,,45,64
83424,note_off,,,,,144,0,8,,,7,,,60,64
83472,note_off,,,,,192,0,3,,,2,,,48,64
83472,note_off,,,,,192,0,7,,,6,,,69,64
83472,note_off,,,,,192,0,1,,,0,,,81,64
83472,note_off,,,,,192,0,6,,,5,,,81,64
83472,note_off,,,,,192,0,9,,,10,,,53,64
83472,note_off,,,,,192,0,2,,,1,,,53,64
83472,note_off,,,,,192,0,10,,,11,,,41,64
83472,note_off,,,,,192,0,11,,,12,,,41,64
83472,note_off,,,,,0,0,3,,,2,,,60,64
83520,note_on,,,,,48,0,3,,,2,,,64,105
83520,note_on,,,,,0,0,3,,,2,,,60,105
83520,note_on,,,,,48,0,7,,,6,,,64,105
83520,note_on,,,,,1248,0,4,,,3,,,67,105
83520,note_on,,,,,48,0,10,,,11,,,43,105
83520,note_on,,,,,48,0,1,,,0,,,72,105
83520,note_on,,,,,96,0,8,,,7,,,67,105
83520,note_on,,,,,48,0,2,,,1,,,55,105
83520,note_on,,,,,48,0,9,,,10,,,55,105
83520,note_on,,,,,48,0,11,,,12,,,43,105
83520,note_on,,,,,1248,0,5,,,4,,,43,105
83520,note_on,,,,,48,0,6,,,5,,,72,105
83676,note_off,,,,,156,0,10,,,11,,,43,64
83676,note_off,,,,,156,0,2,,,1,,,55,64
83676,note_off,,,,,156,0,9,,,10,,,55,64
83676,note_off,,,,,156,0,11,,,12,,,43,64
83712,note_off,,,,,192,0,3,,,2,,,60,64
83712,note_off,,,,,192,0,5,,,4,,,43,64
83712,note_off,,,,,0,0,3,,,2,,,64,64
83760,note_on,,,,,84,0,9,,,10,,,43,105
83760,note_on,,,,,84,0,2,,,1,,,43,105
83760,note_on,,,,,84,0,11,,,12,,,31,105
83760,note_on,,,,,0,0,7,,,6,,,62,105
83760,note_off,,,,,240,0,1,,,0,,,72,64
83760,note_on,,,,,0,0,3,,,2,,,55,105
83760,note_on,,,,,0,0,1,,,0,,,71,105
83760,note_on,,,,,0,0,6,,,5,,,71,105
83760,note_off,,,,,240,0,6,,,5,,,72,64
83760,note_on,,,,,84,0,10,,,11,,,31,105
83760,note_on,,,,,48,0,3,,,2,,,62,105
83760,note_off,,,,,240,0,7,,,6,,,64,64
83904,note_off,,,,,144,0,1,,,0,,,71,64
83904,note_off,,,,,144,0,7,,,6,,,62,64
83904,note_off,,,,,384,0,4,,,3,,,67,64
83904,note_off,,,,,144,0,6,,,5,,,71,64
83904,note_off,,,,,384,0,8,,,7,,,67,64
83916,note_off,,,,,156,0,10,,,11,,,31,64
83916,note_off,,,,,156,0,2,,,1,,,43,64
83916,note_off,,,,,156,0,9,,,10,,,43,64
83916,note_off,,,,,156,0,11,,,12,,,31,64
83952,note_off,,,,,0,0,3,,,2,,,62,64
83952,note_off,,,,,192,0,3,,,2,,,55,64
84000,note_on,,,,,48,0,3,,,2,,,55,105
84000,note_on,,,,,96,0,6,,,5,,,55,105
84000,note_on,,,,,96,0,1,,,0,,,67,105
84000,note_on,,,,,0,0,6,,,5,,,67,105
84117,note_off,,,,,117,0,1,,,0,,,67,64
84117,note_off,,,,,117,0,6,,,5,,,67,64
84117,note_off,,,,,0,0,6,,,5,,,55,64
84117,note_off,,,,,117,0,3,,,2,,,55,64
84180,note_on,,,,,0,0,6,,,5,,,67,105
84180,note_on,,,,,63,0,3,,,2,,,55,105
84180,note_on,,,,,63,0,1,,,0,,,67,105
84180,note_on,,,,,63,0,6,,,5,,,55,105
84219,note_off,,,,,39,0,1,,,0,,,67,64
84219,note_off,,,,,39,0,6,,,5,,,67,64
84219,note_off,,,,,39,0,3,,,2,,,55,64
84219,note_off,,,,,0,0,6,,,5,,,55,64
84240,note_on,,,,,21,0,3,,,2,,,55,105
84240,note_on,,,,,21,0,1,,,0,,,67,105
84240,note_on,,,,,21,0,6,,,5,,,55,105
84240,note_on,,,,,0,0,6,,,5,,,67,105
84396,note_off,,,,,156,0,3,,,2,,,55,64
84396,note_off,,,,,156,0,1,,,0,,,67,64
84408,note_off,,,,,168,0,6,,,5,,,67,64
84408,note_off,,,,,0,0,6,,,5,,,55,64
84480,note_on,,,,,0,0,6,,,5,,,67,105
84480,note_on,,,,,84,0,3,,,2,,,55,105
84480,note_on,,,,,72,0,6,,,5,,,55,105
84480,note_on,,,,,84,0,1,,,0,,,67,105
84636,note_off,,,,,156,0,1,,,0,,,67,64
84636,note_off,,,,,156,0,3,,,2,,,55,64
84648,note_off,,,,,168,0,6,,,5,,,67,64
84648,note_off,,,,,0,0,6,,,5,,,55,64
84720,note_on,,,,,72,0,6,,,5,,,55,105
84720,note_on,,,,,0,0,6,,,5,,,67,105
84720,note_on,,,,,84,0,1,,,0,,,67,105
84720,note_on,,,,,84,0,3,,,2,,,55,105
84876,note_off,,,,,156,0,3,,,2,,,55,64
84876,note_off,,,,,156,0,1,,,0,,,67,64
84888,note_off,,,,,0,0,6,,,5,,,55,64
84888,note_off,,,,,168,0,6,,,5,,,67,64
84960,note_on,,,,,84,0,3,,,2,,,55,105
84960,note_on,,,,,1056,0,8,,,7,,,67,105
84960,note_on,,,,,0,0,3,,,2,,,62,105
84960,note_on,,,,,0,0,7,,,6,,,77,105
84960,note_on,,,,,1248,0,5,,,4,,,43,105
84960,note_on,,,,,1056,0,7,,,6,,,74,105
84960,note_on,,,,,0,0,4,,,3,,,74,105
84960,note_on,,,,,72,0,6,,,5,,,84,105
84960,note_on,,,,,1044,0,2,,,1,,,55,105
84960,note_on,,,,,1044,0,9,,,10,,,55,105
84960,note_on,,,,,84,0,1,,,0,,,83,105
84960,note_on,,,,,0,0,1,,,0,,,77,105
84960,note_on,,,,,1044,0,11,,,12,,,43,105
84960,note_on,,,,,1044,0,10,,,11,,,43,105
84960,note_on,,,,,1056,0,4,,,3,,,67,105
84990,note_off,,,,,30,0,6,,,5,,,84,64
84990,note_on,,,,,0,0,6,,,5,,,83,105
85020,note_off,,,,,30,0,6,,,5,,,83,64
85020,note_on,,,,,0,0,6,,,5,,,84,105
85050,note_on,,,,,0,0,6,,,5,,,83,105
85050,note_off,,,,,30,0,6,,,5,,,84,64
85080,note_off,,,,,30,0,6,,,5,,,83,64
85080,note_on,,,,,0,0,6,,,5,,,81,105
85116,note_off,,,,,156,0,2,,,1,,,55,64
85116,note_off,,,,,156,0,9,,,10,,,55,64
85116,note_off,,,,,156,0,10,,,11,,,43,64
85116,note_off,,,,,0,0,4,,,3,,,67,64
85116,note_off,,,,,156,0,8,,,7,,,67,64
85116,note_off,,,,,0,0,7,,,6,,,74,64
85116,note_off,,,,,156,0,7,,,6,,,77,64
85116,note_off,,,,,156,0,11,,,12,,,43,64
85116,note_off,,,,,156,0,4,,,3,,,74,64
85140,note_off,,,,,60,0,6,,,5,,,81,64
85140,note_on,,,,,0,0,6,,,5,,,83,105
85152,note_off,,,,,192,0,5,,,4,,,43,64
85188,note_off,,,,,48,0,6,,,5,,,83,64
85200,note_on,,,,,0,0,3,,,2,,,60,105
85200,note_on,,,,,84,0,9,,,10,,,48,105
85200,note_on,,,,,84,0,10,,,11,,,36,105
85200,note_on,,,,,0,0,4,,,3,,,72,105
85200,note_on,,,,,84,0,4,,,3,,,76,105
85200,note_off,,,,,240,0,3,,,2,,,62,64
85200,note_off,,,,,0,0,3,,,2,,,55,64
85200,note_on,,,,,0,0,1,,,0,,,84,105
85200,note_on,,,,,0,0,1,,,0,,,76,105
85200,note_on,,,,,84,0,11,,,12,,,36,105
85200,note_on,,,,,0,0,3,,,2,,,64,105
85200,note_off,,,,,240,0,1,,,0,,,77,64
85200,note_on,,,,,0,0,7,,,6,,,72,105
85200,note_on,,,,,84,0,8,,,7,,,67,105
85200,note_on,,,,,84,0,2,,,1,,,48,105
85200,note_on,,,,,84,0,7,,,6,,,76,105
85200,note_off,,,,,0,0,1,,,0,,,83,64
85200,note_on,,,,,12,0,6,,,5,,,84,105
85200,note_on,,,,,48,0,5,,,4,,,48,105
85356,note_off,,,,,156,0,7,,,6,,,72,64
85356,note_off,,,,,0,0,7,,,6,,,76,64
85356,note_off,,,,,156,0,9,,,10,,,48,64
85356,note_off,,,,,156,0,4,,,3,,,72,64
85356,note_off,,,,,0,0,4,,,3,,,76,64
85356,note_off,,,,,156,0,8,,,7,,,67,64
85356,note_off,,,,,156,0,2,,,1,,,48,64
85356,note_off,,,,,156,0,10,,,11,,,36,64
85356,note_off,,,,,156,0,11,,,12,,,36,64
85392,note_off,,,,,192,0,3,,,2,,,60,64
85392,note_off,,,,,0,0,3,,,2,,,64,64
85392,note_off,,,,,192,0,5,,,4,,,48,64
85392,note_off,,,,,0,0,1,,,0,,,76,64
85392,note_off,,,,,192,0,1,,,0,,,84,64
85392,note_off,,,,,192,0,6,,,5,,,84,64
85440,note_on,,,,,48,0,3,,,2,,,55,105
85440,note_on,,,,,48,0,1,,,0,,,67,105
85440,note_on,,,,,48,0,6,,,5,,,67,105
85557,note_off,,,,,117,0,3,,,2,,,55,64
85557,note_off,,,,,117,0,1,,,0,,,67,64
85566,note_off,,,,,126,0,6,,,5,,,67,64
85620,note_on,,,,,54,0,6,,,5,,,67,105
85620,note_on,,,,,63,0,3,,,2,,,55,105
85620,note_on,,,,,63,0,1,,,0,,,67,105
85659,note_off,,,,,39,0,1,,,0,,,67,64
85659,note_off,,,,,39,0,3,,,2,,,55,64
85662,note_off,,,,,42,0,6,,,5,,,67,64
85680,note_on,,,,,21,0,1,,,0,,,67,105
85680,note_on,,,,,0,0,6,,,5,,,55,105
85680,note_on,,,,,18,0,6,,,5,,,67,105
85680,note_on,,,,,21,0,3,,,2,,,55,105
85836,note_off,,,,,156,0,3,,,2,,,55,64
85836,note_off,,,,,156,0,1,,,0,,,67,64
85848,note_off,,,,,0,0,6,,,5,,,67,64
85848,note_off,,,,,168,0,6,,,5,,,55,64
85920,note_on,,,,,0,0,6,,,5,,,55,105
85920,note_on,,,,,72,0,6,,,5,,,67,105
85920,note_on,,,,,84,0,3,,,2,,,55,105
85920,note_on,,,,,84,0,1,,,0,,,67,105
86076,note_off,,,,,156,0,1,,,0,,,67,64
86076,note_off,,,,,156,0,3,,,2,,,55,64
86088,note_off,,,,,0,0,6,,,5,,,67,64
86088,note_off,,,,,168,0,6,,,5,,,55,64
86160,note_on,,,,,84,0,3,,,2,,,55,105
86160,note_on,,,,,0,0,6,,,5,,,55,105
86160,note_on,,,,,72,0,6,,,5,,,67,105
86160,note_on,,,,,84,0,1,,,0,,,67,105
86316,note_off,,,,,156,0,3,,,2,,,55,64
86316,note_off,,,,,156,0,1,,,0,,,67,64
86328,note_off,,,,,0,0,6,,,5,,,67,64
86328,note_off,,,,,168,0,6,,,5,,,55,64
86400,note_on,,,,,84,0,3,,,2,,,55,105
86400,note_on,,,,,0,0,1,,,0,,,77,105
86400,note_on,,,,,1044,0,2,,,1,,,55,105
86400,note_on,,,,,1044,0,9,,,10,,,55,105
86400,note_on,,,,,0,0,3,,,2,,,62,105
86400,note_on,,,,,84,0,1,,,0,,,83,105
86400,note_on,,,,,1044,0,7,,,6,,,77,105
86400,note_on,,,,,0,0,7,,,6,,,74,105
86400,note_on,,,,,1044,0,11,,,12,,,43,105
86400,note_on,,,,,1044,0,10,,,11,,,43,105
86400,note_on,,,,,1044,0,8,,,7,,,67,105
86400,note_on,,,,,1008,0,5,,,4,,,43,105
86400,note_on,,,,,1044,0,4,,,3,,,67,105
86400,note_on,,,,,0,0,4,,,3,,,74,105
86400,note_on,,,,,72,0,6,,,5,,,84,105
86430,note_off,,,,,30,0,6,,,5,,,84,64
86430,note_on,,,,,0,0,6,,,5,,,83,105
86460,note_off,,,,,30,0,6,,,5,,,83,64
86460,note_on,,,,,0,0,6,,,5,,,84,105
86490,note_on,,,,,0,0,6,,,5,,,83,105
86490,note_off,,,,,30,0,6,,,5,,,84,64
86520,note_on,,,,,0,0,6,,,5,,,81,105
86520,note_off,,,,,30,0,6,,,5,,,83,64
86556,note_off,,,,,156,0,11,,,12,,,43,64
86556,note_off,,,,,156,0,9,,,10,,,55,64
86556,note_off,,,,,0,0,7,,,6,,,77,64
86556,note_off,,,,,156,0,7,,,6,,,74,64
86556,note_off,,,,,156,0,2,,,1,,,55,64
86556,note_off,,,,,0,0,4,,,3,,,67,64
86556,note_off,,,,,156,0,4,,,3,,,74,64
86556,note_off,,,,,156,0,10,,,11,,,43,64
86556,note_off,,,,,156,0,8,,,7,,,67,64
86580,note_off,,,,,60,0,6,,,5,,,81,64
86580,note_on,,,,,0,0,6,,,5,,,83,105
86592,note_off,,,,,192,0,5,,,4,,,43,64
86628,note_off,,,,,48,0,6,,,5,,,83,64
86640,note_on,,,,,84,0,9,,,10,,,48,105
86640,note_off,,,,,0,0,3,,,2,,,55,64
86640,note_off,,,,,240,0,3,,,2,,,62,64
86640,note_on,,,,,84,0,2,,,1,,,48,105
86640,note_off,,,,,240,0,1,,,0,,,77,64
86640,note_on,,,,,12,0,6,,,5,,,84,105
86640,note_on,,,,,84,0,4,,,3,,,76,105
86640,note_on,,,,,0,0,4,,,3,,,72,105
86640,note_on,,,,,84,0,8,,,7,,,67,105
86640,note_on,,,,,0,0,3,,,2,,,60,105
86640,note_on,,,,,84,0,10,,,11,,,36,105
86640,note_on,,,,,0,0,1,,,0,,,76,105
86640,note_on,,,,,0,0,1,,,0,,,84,105
86640,note_on,,,,,48,0,5,,,4,,,48,105
86640,note_on,,,,,84,0,7,,,6,,,76,105
86640,note_on,,,,,84,0,11,,,12,,,36,105
86640,note_on,,,,,0,0,7,,,6,,,72,105
86640,note_off,,,,,0,0,1,,,0,,,83,64
86640,note_on,,,,,0,0,3,,,2,,,64,105
86796,note_off,,,,,156,0,8,,,7,,,67,64
86796,note_off,,,,,156,0,11,,,12,,,36,64
86796,note_off,,,,,156,0,7,,,6,,,72,64
86796,note_off,,,,,0,0,7,,,6,,,76,64
86796,note_off,,,,,156,0,9,,,10,,,48,64
86796,note_off,,,,,156,0,2,,,1,,,48,64
86796,note_off,,,,,156,0,10,,,11,,,36,64
86796,note_off,,,,,156,0,4,,,3,,,72,64
86796,note_off,,,,,0,0,4,,,3,,,76,64
86796,note_off,,,,,156,0,6,,,5,,,84,64
86832,note_off,,,,,0,0,3,,,2,,,60,64
86832,note_off,,,,,192,0,1,,,0,,,84,64
86832,note_off,,,,,0,0,1,,,0,,,76,64
86832,note_off,,,,,192,0,5,,,4,,,48,64
86832,note_off,,,,,192,0,3,,,2,,,64,64
86880,note_on,,,,,84,0,8,,,7,,,69,105
86880,note_on,,,,,48,0,1,,,0,,,76,105
86880,note_on,,,,,0,0,1,,,0,,,72,105
86880,note_on,,,,,84,0,6,,,5,,,76,105
86880,note_on,,,,,84,0,2,,,1,,,57,105
86880,note_on,,,,,84,0,7,,,6,,,72,105
86880,note_on,,,,,84,0,10,,,11,,,45,105
86880,note_on,,,,,84,0,11,,,12,,,45,105
86880,note_on,,,,,84,0,9,,,10,,,57,105
86880,note_on,,,,,48,0,3,,,2,,,64,105
86880,note_on,,,,,0,0,3,,,2,,,60,105
87036,note_off,,,,,156,0,3,,,2,,,60,64
87036,note_off,,,,,0,0,3,,,2,,,64,64
87036,note_off,,,,,156,0,2,,,1,,,57,64
87036,note_off,,,,,156,0,1,,,0,,,72,64
87036,note_off,,,,,0,0,1,,,0,,,76,64
87036,note_off,,,,,156,0,10,,,11,,,45,64
87036,note_off,,,,,156,0,8,,,7,,,69,64
87036,note_off,,,,,156,0,7,,,6,,,72,64
87036,note_off,,,,,156,0,9,,,10,,,57,64
87036,note_off,,,,,156,0,11,,,12,,,45,64
87036,note_off,,,,,156,0,6,,,5,,,76,64
87120,note_on,,,,,84,0,7,,,6,,,69,105
87120,note_on,,,,,0,0,3,,,2,,,62,105
87120,note_on,,,,,84,0,3,,,2,,,65,105
87120,note_on,,,,,84,0,6,,,5,,,74,105
87120,note_on,,,,,84,0,11,,,12,,,41,105
87120,note_on,,,,,84,0,10,,,11,,,41,105
87120,note_on,,,,,84,0,2,,,1,,,53,105
87120,note_on,,,,,0,0,1,,,0,,,81,105
87120,note_on,,,,,84,0,8,,,7,,,65,105
87120,note_on,,,,,84,0,9,,,10,,,53,105
87120,note_on,,,,,84,0,1,,,0,,,72,105
87240,note_on,,,,,0,0,6,,,5,,,77,105
87240,note_off,,,,,120,0,6,,,5,,,74,64
87276,note_off,,,,,156,0,10,,,11,,,41,64
87276,note_off,,,,,156,0,2,,,1,,,53,64
87276,note_off,,,,,156,0,8,,,7,,,65,64
87276,note_off,,,,,156,0,9,,,10,,,53,64
87276,note_off,,,,,156,0,11,,,12,,,41,64
87312,note_off,,,,,192,0,7,,,6,,,69,64
87360,note_on,,,,,48,0,7,,,6,,,65,105
87360,note_on,,,,,84,0,2,,,1,,,50,105
87360,note_on,,,,,84,0,10,,,11,,,38,105
87360,note_on,,,,,0,0,6,,,5,,,81,105
87360,note_on,,,,,84,0,9,,,10,,,50,105
87360,note_on,,,,,84,0,11,,,12,,,38,105
87360,note_off,,,,,120,0,6,,,5,,,77,64
87360,note_on,,,,,84,0,8,,,7,,,62,105
87480,note_off,,,,,120,0,6,,,5,,,81,64
87480,note_on,,,,,0,0,6,,,5,,,77,105
87480,note_on,,,,,0,0,7,,,6,,,69,105
87480,note_off,,,,,120,0,7,,,6,,,65,64
87504,note_off,,,,,0,0,3,,,2,,,65,64
87504,note_off,,,,,384,0,3,,,2,,,62,64
87504,note_off,,,,,0,0,1,,,0,,,72,64
87504,note_off,,,,,384,0,1,,,0,,,81,64
87516,note_off,,,,,156,0,11,,,12,,,38,64
87516,note_off,,,,,156,0,9,,,10,,,50,64
87516,note_off,,,,,156,0,8,,,7,,,62,64
87516,note_off,,,,,156,0,2,,,1,,,50,64
87516,note_off,,,,,156,0,10,,,11,,,38,64
87600,note_on,,,,,0,0,7,,,6,,,65,105
87600,note_off,,,,,120,0,7,,,6,,,69,64
87600,note_on,,,,,84,0,2,,,1,,,55,105
87600,note_on,,,,,84,0,11,,,12,,,43,105
87600,note_on,,,,,0,0,1,,,0,,,77,105
87600,note_on,,,,,84,0,10,,,11,,,43,105
87600,note_on,,,,,96,0,1,,,0,,,71,105
87600,note_on,,,,,84,0,8,,,7,,,67,105
87600,note_on,,,,,0,0,3,,,2,,,55,105
87600,note_on,,,,,96,0,3,,,2,,,62,105
87600,note_on,,,,,768,0,5,,,4,,,43,105
87600,note_on,,,,,0,0,4,,,3,,,67,105
87600,note_on,,,,,804,0,4,,,3,,,74,105
87600,note_on,,,,,84,0,9,,,10,,,55,105
87600,note_off,,,,,120,0,6,,,5,,,77,64
87600,note_on,,,,,0,0,6,,,5,,,74,105
87720,note_off,,,,,120,0,1,,,0,,,77,64
87720,note_off,,,,,120,0,7,,,6,,,65,64
87720,note_on,,,,,0,0,7,,,6,,,62,105
87720,note_off,,,,,120,0,6,,,5,,,74,64
87720,note_on,,,,,0,0,1,,,0,,,74,105
87720,note_on,,,,,0,0,6,,,5,,,71,105
87756,note_off,,,,,156,0,10,,,11,,,43,64
87756,note_off,,,,,156,0,9,,,10,,,55,64
87756,note_off,,,,,156,0,2,,,1,,,55,64
87756,note_off,,,,,156,0,11,,,12,,,43,64
87756,note_off,,,,,156,0,8,,,7,,,67,64
87756,note_off,,,,,156,0,4,,,3,,,67,64
87756,note_off,,,,,0,0,4,,,3,,,74,64
87792,note_off,,,,,192,0,3,,,2,,,55,64
87792,note_off,,,,,192,0,5,,,4,,,43,64
87792,note_off,,,,,0,0,3,,,2,,,62,64
87816,note_off,,,,,96,0,7,,,6,,,62,64
87816,note_off,,,,,0,0,1,,,0,,,74,64
87816,note_off,,,,,96,0,1,,,0,,,71,64
87816,note_off,,,,,96,0,6,,,5,,,71,64
87840,note_on,,,,,24,0,7,,,6,,,64,105
87840,note_on,,,,,0,0,4,,,3,,,64,105
87840,note_on,,,,,84,0,4,,,3,,,72,105
87840,note_on,,,,,84,0,2,,,1,,,48,105
87840,note_on,,,,,84,0,11,,,12,,,36,105
87840,note_on,,,,,84,0,9,,,10,,,48,105
87840,note_on,,,,,84,0,10,,,11,,,36,105
87840,note_on,,,,,48,0,3,,,2,,,60,105
87840,note_on,,,,,0,0,3,,,2,,,52,105
87840,note_on,,,,,24,0,6,,,5,,,72,105
87840,note_on,,,,,24,0,1,,,0,,,72,105
87840,set_tempo,,,,,6480,1,0,468750,,,,,,
87840,note_on,,,,,48,0,5,,,4,,,48,105
87840,note_on,,,,,84,0,8,,,7,,,67,105
87996,note_off,,,,,156,0,10,,,11,,,36,64
87996,note_off,,,,,0,0,4,,,3,,,72,64
87996,note_off,,,,,156,0,4,,,3,,,64,64
87996,note_off,,,,,156,0,8,,,7,,,67,64
87996,note_off,,,,,156,0,11,,,12,,,36,64
87996,note_off,,,,,156,0,9,,,10,,,48,64
87996,note_off,,,,,156,0,2,,,1,,,48,64
88032,note_off,,,,,0,0,3,,,2,,,60,64
88032,note_off,,,,,192,0,7,,,6,,,64,64
88032,note_off,,,,,192,0,6,,,5,,,72,64
88032,note_off,,,,,192,0,5,,,4,,,48,64
88032,note_off,,,,,192,0,1,,,0,,,72,64
88032,note_off,,,,,192,0,3,,,2,,,52,64
88080,note_on,,,,,84,0,10,,,11,,,48,105
88080,note_on,,,,,84,0,9,,,10,,,60,105
88080,note_on,,,,,84,0,2,,,1,,,60,105
88080,note_on,,,,,84,0,11,,,12,,,48,105
88236,note_off,,,,,156,0,10,,,11,,,48,64
88236,note_off,,,,,156,0,2,,,1,,,60,64
88236,note_off,,,,,156,0,11,,,12,,,48,64
88236,note_off,,,,,156,0,9,,,10,,,60,64
88320,note_on,,,,,288,0,7,,,6,,,67,105
88320,note_on,,,,,288,0,1,,,0,,,67,105
88320,note_on,,,,,288,0,6,,,5,,,67,105
88476,note_off,,,,,156,0,7,,,6,,,67,64
88476,note_off,,,,,156,0,6,,,5,,,67,64
88476,note_off,,,,,156,0,1,,,0,,,67,64
88560,note_on,,,,,528,0,5,,,4,,,43,105
88560,note_on,,,,,84,0,6,,,5,,,67,105
88560,note_on,,,,,564,0,4,,,3,,,67,105
88560,note_on,,,,,84,0,7,,,6,,,67,105
88560,note_on,,,,,84,0,1,,,0,,,67,105
88560,set_tempo,,,,,720,1,0,454545,,,,,,
88752,note_off,,,,,192,0,4,,,3,,,67,64
88752,note_off,,,,,192,0,5,,,4,,,43,64
88800,note_on,,,,,564,0,2,,,1,,,64,105
88800,note_on,,,,,0,0,3,,,2,,,60,105
88800,note_on,,,,,564,0,9,,,10,,,64,105
88800,note_on,,,,,768,0,3,,,2,,,64,105
88800,note_on,,,,,564,0,11,,,12,,,52,105
88800,note_on,,,,,804,0,8,,,7,,,64,105
88800,note_on,,,,,564,0,10,,,11,,,52,105
88968,note_off,,,,,0,0,3,,,2,,,64,64
88968,note_off,,,,,168,0,3,,,2,,,60,64
88968,note_off,,,,,168,0,10,,,11,,,52,64
88968,note_off,,,,,168,0,2,,,1,,,64,64
88968,note_off,,,,,168,0,8,,,7,,,64,64
88968,note_off,,,,,168,0,9,,,10,,,64,64
88968,note_off,,,,,168,0,11,,,12,,,52,64
89040,note_off,,,,,480,0,1,,,0,,,67,64
89040,note_on,,,,,0,0,1,,,0,,,76,105
89040,note_on,,,,,0,0,3,,,2,,,60,105
89040,note_on,,,,,72,0,10,,,11,,,48,105
89040,note_on,,,,,72,0,3,,,2,,,64,105
89040,note_on,,,,,72,0,9,,,10,,,60,105
89040,note_on,,,,,72,0,8,,,7,,,60,105
89040,note_off,,,,,480,0,7,,,6,,,67,64
89040,note_off,,,,,480,0,6,,,5,,,67,64
89040,note_on,,,,,72,0,11,,,12,,,48,105
89040,note_on,,,,,0,0,7,,,6,,,76,105
89040,note_on,,,,,72,0,2,,,1,,,60,105
89040,note_on,,,,,0,0,6,,,5,,,76,105
89136,note_off,,,,,96,0,6,,,5,,,76,64
89136,note_off,,,,,96,0,7,,,6,,,76,64
89136,note_off,,,,,96,0,1,,,0,,,76,64
89208,note_off,,,,,0,0,3,,,2,,,64,64
89208,note_off,,,,,168,0,8,,,7,,,60,64
89208,note_off,,,,,168,0,9,,,10,,,60,64
89208,note_off,,,,,168,0,10,,,11,,,48,64
89208,note_off,,,,,168,0,2,,,1,,,60,64
89208,note_off,,,,,168,0,11,,,12,,,48,64
89208,note_off,,,,,168,0,3,,,2,,,60,64
89280,note_on,,,,,528,0,4,,,3,,,67,105
89280,note_on,,,,,144,0,1,,,0,,,74,105
89280,note_on,,,,,144,0,6,,,5,,,74,105
89280,note_on,,,,,144,0,7,,,6,,,74,105
89280,note_on,,,,,528,0,5,,,4,,,43,105
89472,note_off,,,,,192,0,4,,,3,,,67,64
89472,note_off,,,,,192,0,5,,,4,,,43,64
89520,note_on,,,,,312,0,2,,,1,,,59,105
89520,note_on,,,,,312,0,8,,,7,,,59,105
89520,note_on,,,,,312,0,11,,,12,,,47,105
89520,note_on,,,,,312,0,3,,,2,,,55,105
89520,note_on,,,,,312,0,9,,,10,,,59,105
89520,note_on,,,,,312,0,10,,,11,,,47,105
89520,note_on,,,,,0,0,3,,,2,,,62,105
89688,note_off,,,,,168,0,10,,,11,,,47,64
89688,note_off,,,,,168,0,9,,,10,,,59,64
89688,note_off,,,,,168,0,8,,,7,,,59,64
89688,note_off,,,,,0,0,3,,,2,,,55,64
89688,note_off,,,,,168,0,3,,,2,,,62,64
89688,note_off,,,,,168,0,2,,,1,,,59,64
89688,note_off,,,,,168,0,11,,,12,,,47,64
89760,note_on,,,,,72,0,8,,,7,,,55,105
89760,note_on,,,,,0,0,6,,,5,,,79,105
89760,note_on,,,,,72,0,3,,,2,,,62,105
89760,note_on,,,,,0,0,3,,,2,,,55,105
89760,note_off,,,,,480,0,6,,,5,,,74,64
89760,note_off,,,,,480,0,7,,,6,,,74,64
89760,note_on,,,,,0,0,7,,,6,,,79,105
89760,note_on,,,,,72,0,11,,,12,,,43,105
89760,note_on,,,,,72,0,9,,,10,,,55,105
89760,note_on,,,,,72,0,2,,,1,,,55,105
89760,note_on,,,,,72,0,10,,,11,,,43,105
89760,note_on,,,,,0,0,1,,,0,,,79,105
89760,note_off,,,,,480,0,1,,,0,,,74,64
89856,note_off,,,,,96,0,6,,,5,,,79,64
89856,note_off,,,,,96,0,1,,,0,,,79,64
89856,note_off,,,,,96,0,7,,,6,,,79,64
89928,note_off,,,,,168,0,11,,,12,,,43,64
89928,note_off,,,,,168,0,8,,,7,,,55,64
89928,note_off,,,,,168,0,2,,,1,,,55,64
89928,note_off,,,,,0,0,3,,,2,,,62,64
89928,note_off,,,,,168,0,3,,,2,,,55,64
89928,note_off,,,,,168,0,9,,,10,,,55,64
89928,note_off,,,,,168,0,10,,,11,,,43,64
90000,note_on,,,,,528,0,4,,,3,,,74,105
90000,note_on,,,,,144,0,6,,,5,,,74,105
90000,note_on,,,,,144,0,7,,,6,,,74,105
90000,note_on,,,,,144,0,1,,,0,,,74,105
90192,note_off,,,,,192,0,4,,,3,,,74,64
90240,note_on,,,,,312,0,2,,,1,,,54,105
90240,note_on,,,,,312,0,9,,,10,,,54,105
90240,note_on,,,,,312,0,11,,,12,,,42,105
90240,note_on,,,,,312,0,3,,,2,,,62,105
90240,note_on,,,,,312,0,10,,,11,,,42,105
90240,note_on,,,,,312,0,8,,,7,,,66,105
90408,note_off,,,,,168,0,9,,,10,,,54,64
90408,note_off,,,,,168,0,10,,,11,,,42,64
90408,note_off,,,,,168,0,11,,,12,,,42,64
90408,note_off,,,,,168,0,3,,,2,,,62,64
90408,note_off,,,,,168,0,8,,,7,,,66,64
90408,note_off,,,,,168,0,2,,,1,,,54,64
90480,note_on,,,,,72,0,9,,,10,,,50,105
90480,note_on,,,,,72,0,3,,,2,,,62,105
90480,note_on,,,,,72,0,10,,,11,,,38,105
90480,note_on,,,,,72,0,11,,,12,,,38,105
90480,note_on,,,,,0,0,7,,,6,,,81,105
90480,note_off,,,,,480,0,6,,,5,,,74,64
90480,note_on,,,,,0,0,6,,,5,,,81,105
90480,note_off,,,,,480,0,1,,,0,,,74,64
90480,note_off,,,,,480,0,7,,,6,,,74,64
90480,note_on,,,,,72,0,2,,,1,,,50,105
90480,note_on,,,,,0,0,1,,,0,,,81,105
90480,note_on,,,,,72,0,8,,,7,,,62,105
90576,note_off,,,,,96,0,6,,,5,,,81,64
90576,note_off,,,,,96,0,1,,,0,,,81,64
90576,note_off,,,,,96,0,7,,,6,,,81,64
90648,note_off,,,,,168,0,8,,,7,,,62,64
90648,note_off,,,,,168,0,3,,,2,,,62,64
90648,note_off,,,,,168,0,10,,,11,,,38,64
90648,note_off,,,,,168,0,9,,,10,,,50,64
90648,note_off,,,,,168,0,11,,,12,,,38,64
90648,note_off,,,,,168,0,2,,,1,,,50,64
90720,note_on,,,,,144,0,6,,,5,,,74,105
90720,note_on,,,,,528,0,4,,,3,,,74,105
90720,note_on,,,,,144,0,7,,,6,,,74,105
90720,note_on,,,,,144,0,1,,,0,,,74,105
90912,note_off,,,,,192,0,4,,,3,,,74,64
90960,note_on,,,,,312,0,3,,,2,,,55,105
90960,note_on,,,,,312,0,8,,,7,,,67,105
90960,note_on,,,,,312,0,11,,,12,,,43,105
90960,note_on,,,,,312,0,2,,,1,,,55,105
90960,note_on,,,,,312,0,9,,,10,,,55,105
90960,note_on,,,,,0,0,3,,,2,,,62,105
90960,note_on,,,,,312,0,10,,,11,,,43,105
91128,note_off,,,,,168,0,10,,,11,,,43,64
91128,note_off,,,,,168,0,8,,,7,,,67,64
91128,note_off,,,,,168,0,2,,,1,,,55,64
91128,note_off,,,,,168,0,9,,,10,,,55,64
91128,note_off,,,,,0,0,3,,,2,,,55,64
91128,note_off,,,,,168,0,3,,,2,,,62,64
91128,note_off,,,,,168,0,11,,,12,,,43,64
91200,note_on,,,,,72,0,10,,,11,,,38,105
91200,note_off,,,,,480,0,1,,,0,,,74,64
91200,note_on,,,,,0,0,1,,,0,,,83,105
91200,note_on,,,,,72,0,9,,,10,,,50,105
91200,note_on,,,,,72,0,8,,,7,,,62,105
91200,note_on,,,,,72,0,2,,,1,,,50,105
91200,note_on,,,,,72,0,11,,,12,,,38,105
91200,note_on,,,,,0,0,3,,,2,,,55,105
91200,note_on,,,,,72,0,3,,,2,,,62,105
91200,note_on,,,,,0,0,6,,,5,,,83,105
91200,note_off,,,,,480,0,6,,,5,,,74,64
91200,note_off,,,,,480,0,7,,,6,,,74,64
91200,note_on,,,,,0,0,7,,,6,,,83,105
91296,note_off,,,,,96,0,1,,,0,,,83,64
91296,note_off,,,,,96,0,7,,,6,,,83,64
91296,note_off,,,,,96,0,6,,,5,,,83,64
91368,note_off,,,,,168,0,2,,,1,,,50,64
91368,note_off,,,,,168,0,10,,,11,,,38,64
91368,note_off,,,,,168,0,3,,,2,,,55,64
91368,note_off,,,,,0,0,3,,,2,,,62,64
91368,note_off,,,,,168,0,9,,,10,,,50,64
91368,note_off,,,,,168,0,8,,,7,,,62,64
91368,note_off,,,,,168,0,11,,,12,,,38,64
91440,note_on,,,,,144,0,6,,,5,,,74,70
91440,note_on,,,,,144,0,7,,,6,,,62,70
91680,note_on,,,,,312,0,11,,,12,,,45,58
91680,note_on,,,,,312,0,9,,,10,,,57,58
91680,note_on,,,,,312,0,8,,,7,,,66,58
91680,note_on,,,,,312,0,10,,,11,,,45,58
91920,note_on,,,,,0,0,8,,,7,,,69,58
91920,note_off,,,,,240,0,8,,,7,,,66,64
91920,note_off,,,,,240,0,11,,,12,,,45,64
91920,note_on,,,,,0,0,11,,,12,,,38,58
91920,note_on,,,,,0,0,7,,,6,,,72,58
91920,note_off,,,,,480,0,7,,,6,,,62,64
91920,note_off,,,,,240,0,10,,,11,,,45,64
91920,note_on,,,,,0,0,6,,,5,,,84,58
91920,note_off,,,,,480,0,6,,,5,,,74,64
91920,note_on,,,,,0,0,10,,,11,,,38,58
91920,note_off,,,,,240,0,9,,,10,,,57,64
91920,note_on,,,,,0,0,9,,,10,,,50,58
92016,note_off,,,,,96,0,7,,,6,,,72,64
92016,note_off,,,,,96,0,6,,,5,,,84,64
92112,note_off,,,,,192,0,8,,,7,,,69,64
92112,note_off,,,,,192,0,10,,,11,,,38,64
92112,note_off,,,,,192,0,9,,,10,,,50,64
92112,note_off,,,,,192,0,11,,,12,,,38,64
92160,note_on,,,,,144,0,6,,,5,,,74,70
92160,note_on,,,,,144,0,7,,,6,,,62,70
92400,note_on,,,,,288,0,8,,,7,,,67,58
92400,note_on,,,,,288,0,9,,,10,,,59,58
92400,note_on,,,,,288,0,10,,,11,,,47,58
92400,note_on,,,,,288,0,11,,,12,,,47,58
92640,note_on,,,,,0,0,10,,,11,,,43,58
92640,note_off,,,,,480,0,6,,,5,,,74,64
92640,note_on,,,,,0,0,6,,,5,,,86,58
92640,note_on,,,,,0,0,7,,,6,,,74,58
92640,note_off,,,,,480,0,7,,,6,,,62,64
92640,note_on,,,,,0,0,11,,,12,,,43,58
92640,note_on,,,,,0,0,8,,,7,,,71,58
92640,note_off,,,,,240,0,8,,,7,,,67,64
92640,note_off,,,,,240,0,11,,,12,,,47,64
92640,note_off,,,,,240,0,10,,,11,,,47,64
92640,note_off,,,,,240,0,9,,,10,,,59,64
92640,note_on,,,,,0,0,9,,,10,,,55,58
92736,note_off,,,,,96,0,7,,,6,,,74,64
92736,note_off,,,,,96,0,6,,,5,,,86,64
92832,note_off,,,,,192,0,9,,,10,,,55,64
92832,note_off,,,,,192,0,8,,,7,,,71,64
92832,note_off,,,,,192,0,11,,,12,,,43,64
92832,note_off,,,,,192,0,10,,,11,,,43,64
92880,note_on,,,,,144,0,6,,,5,,,75,70
93000,note_off,,,,,120,0,6,,,5,,,75,64
93000,note_on,,,,,0,0,6,,,5,,,76,70
93120,note_off,,,,,120,0,6,,,5,,,76,64
93120,note_on,,,,,288,0,9,,,10,,,48,58
93120,note_on,,,,,0,0,6,,,5,,,72,70
93120,note_on,,,,,288,0,8,,,7,,,57,58
93120,note_on,,,,,288,0,10,,,11,,,36,58
93120,note_on,,,,,288,0,11,,,12,,,36,58
93120,note_on,,,,,384,0,7,,,6,,,64,70
93240,note_off,,,,,120,0,6,,,5,,,72,64
93240,note_off,,,,,120,0,7,,,6,,,64,64
93240,note_on,,,,,0,0,6,,,5,,,69,70
93240,note_on,,,,,0,0,7,,,6,,,60,70
93288,note_off,,,,,168,0,8,,,7,,,57,64
93360,note_on,,,,,0,0,6,,,5,,,66,70
93360,note_off,,,,,240,0,11,,,12,,,36,64
93360,note_off,,,,,120,0,6,,,5,,,69,64
93360,note_on,,,,,0,0,11,,,12,,,38,58
93360,note_off,,,,,120,0,7,,,6,,,60,64
93360,note_on,,,,,0,0,7,,,6,,,57,70
93360,note_off,,,,,240,0,9,,,10,,,48,64
93360,note_on,,,,,72,0,8,,,7,,,62,58
93360,note_off,,,,,240,0,10,,,11,,,36,64
93360,note_on,,,,,0,0,10,,,11,,,38,58
93360,note_on,,,,,0,0,9,,,10,,,50,58
93480,note_off,,,,,120,0,7,,,6,,,57,64
93480,note_off,,,,,120,0,6,,,5,,,66,64
93480,note_on,,,,,0,0,6,,,5,,,69,70
93480,note_on,,,,,0,0,7,,,6,,,60,70
93528,note_off,,,,,168,0,8,,,7,,,62,64
93552,note_off,,,,,192,0,9,,,10,,,50,64
93552,note_off,,,,,192,0,11,,,12,,,38,64
93552,note_off,,,,,192,0,10,,,11,,,38,64
93576,note_off,,,,,96,0,7,,,6,,,60,64
93576,note_off,,,,,96,0,6,,,5,,,69,64
93600,note_on,,,,,48,0,10,,,11,,,31,58
93600,note_on,,,,,24,0,6,,,5,,,67,70
93600,note_on,,,,,24,0,7,,,6,,,59,58
93600,note_on,,,,,48,0,9,,,10,,,43,70
93600,set_tempo,,,,,5040,1,0,468750,,,,,,
93600,note_on,,,,,48,0,11,,,12,,,31,70
93600,note_on,,,,,72,0,8,,,7,,,62,58
93768,note_off,,,,,168,0,10,,,11,,,31,64
93768,note_off,,,,,168,0,11,,,12,,,31,64
93768,note_off,,,,,168,0,9,,,10,,,43,64
93792,note_off,,,,,192,0,6,,,5,,,67,64
93792,note_off,,,,,192,0,7,,,6,,,59,64
93792,note_off,,,,,192,0,8,,,7,,,62,64
93840,note_on,,,,,72,0,11,,,12,,,43,58
93840,note_on,,,,,72,0,9,,,10,,,55,70
93840,note_on,,,,,72,0,10,,,11,,,43,58
94008,note_off,,,,,168,0,9,,,10,,,55,64
94008,note_off,,,,,168,0,11,,,12,,,43,64
94008,note_off,,,,,168,0,10,,,11,,,43,64
94080,note_on,,,,,288,0,6,,,5,,,79,58
94188,note_off,,,,,108,0,6,,,5,,,79,64
94260,note_on,,,,,72,0,6,,,5,,,79,70
94296,note_off,,,,,36,0,6,,,5,,,79,64
94320,note_on,,,,,24,0,6,,,5,,,79,70
94320,set_tempo,,,,,720,1,0,454545,,,,,,
94464,note_off,,,,,144,0,6,,,5,,,79,64
94560,note_on,,,,,96,0,6,,,5,,,79,70
94800,note_on,,,,,0,0,6,,,5,,,82,70
94800,note_off,,,,,240,0,6,,,5,,,79,64
94992,note_off,,,,,192,0,6,,,5,,,82,64
95040,note_on,,,,,1248,0,8,,,7,,,64,70
95040,note_on,,,,,48,0,6,,,5,,,74,70
95040,note_on,,,,,0,0,1,,,0,,,79,70
95040,note_on,,,,,3744,0,1,,,0,,,76,70
95040,note_on,,,,,1032,0,11,,,12,,,45,70
95040,note_on,,,,,1248,0,7,,,6,,,67,70
95040,note_on,,,,,3672,0,2,,,1,,,57,70
95040,note_on,,,,,1032,0,9,,,10,,,57,70
95040,note_on,,,,,1032,0,10,,,11,,,45,70
95070,note_off,,,,,30,0,6,,,5,,,74,64
95070,note_on,,,,,0,0,6,,,5,,,73,70
95100,note_on,,,,,0,0,6,,,5,,,74,70
95100,note_off,,,,,30,0,6,,,5,,,73,64
95130,note_off,,,,,30,0,6,,,5,,,74,64
95130,note_on,,,,,0,0,6,,,5,,,73,70
95160,note_off,,,,,30,0,6,,,5,,,73,64
95160,note_on,,,,,0,0,6,,,5,,,71,70
95220,note_on,,,,,0,0,6,,,5,,,73,70
95220,note_off,,,,,60,0,6,,,5,,,71,64
95280,note_on,,,,,0,0,10,,,11,,,38,70
95280,note_off,,,,,240,0,11,,,12,,,45,64
95280,note_on,,,,,0,0,11,,,12,,,38,70
95280,note_on,,,,,0,0,2,,,1,,,50,70
95280,note_off,,,,,240,0,2,,,1,,,57,64
95280,note_on,,,,,0,0,1,,,0,,,77,70
95280,note_off,,,,,240,0,10,,,11,,,45,64
95280,note_on,,,,,0,0,1,,,0,,,74,70
95280,note_on,,,,,0,0,7,,,6,,,65,70
95280,note_off,,,,,0,0,1,,,0,,,76,64
95280,note_off,,,,,240,0,1,,,0,,,79,64
95280,note_off,,,,,240,0,8,,,7,,,64,64
95280,note_on,,,,,0,0,8,,,7,,,62,70
95280,note_off,,,,,60,0,6,,,5,,,73,64
95280,note_on,,,,,0,0,6,,,5,,,74,70
95280,note_off,,,,,240,0,7,,,6,,,67,64
95280,note_off,,,,,240,0,9,,,10,,,57,64
95280,note_on,,,,,0,0,9,,,10,,,50,70
95424,note_off,,,,,144,0,6,,,5,,,74,64
95472,note_off,,,,,192,0,1,,,0,,,77,64
95472,note_off,,,,,192,0,11,,,12,,,38,64
95472,note_off,,,,,192,0,2,,,1,,,50,64
95472,note_off,,,,,192,0,7,,,6,,,65,64
95472,note_off,,,,,192,0,10,,,11,,,38,64
95472,note_off,,,,,0,0,1,,,0,,,74,64
95472,note_off,,,,,192,0,8,,,7,,,62,64
95472,note_off,,,,,192,0,9,,,10,,,50,64
95520,note_on,,,,,96,0,6,,,5,,,77,70
95628,note_off,,,,,108,0,6,,,5,,,77,64
95700,note_on,,,,,72,0,6,,,5,,,77,70
95736,note_off,,,,,36,0,6,,,5,,,77,64
95760,note_on,,,,,24,0,6,,,5,,,77,70
95904,note_off,,,,,144,0,6,,,5,,,77,64
96000,note_on,,,,,96,0,6,,,5,,,77,70
96240,note_off,,,,,240,0,6,,,5,,,77,64
96240,note_on,,,,,0,0,6,,,5,,,81,70
96432,note_off,,,,,192,0,6,,,5,,,81,64
96480,note_on,,,,,1008,0,8,,,7,,,62,70
96480,note_on,,,,,1008,0,7,,,6,,,65,70
96480,note_on,,,,,1008,0,10,,,11,,,43,70
96480,note_on,,,,,1008,0,2,,,1,,,55,70
96480,note_on,,,,,48,0,6,,,5,,,72,70
96480,note_on,,,,,1008,0,9,,,10,,,55,70
96480,note_on,,,,,1008,0,11,,,12,,,43,70
96480,note_on,,,,,0,0,1,,,0,,,74,70
96480,note_on,,,,,1008,0,1,,,0,,,77,70
96510,note_on,,,,,0,0,6,,,5,,,71,70
96510,note_off,,,,,30,0,6,,,5,,,72,64
96540,note_off,,,,,30,0,6,,,5,,,71,64
96540,note_on,,,,,0,0,6,,,5,,,72,70
96570,note_off,,,,,30,0,6,,,5,,,72,64
96570,note_on,,,,,0,0,6,,,5,,,71,70
96600,note_off,,,,,30,0,6,,,5,,,71,64
96600,note_on,,,,,0,0,6,,,5,,,69,70
96660,note_off,,,,,60,0,6,,,5,,,69,64
96660,note_on,,,,,0,0,6,,,5,,,71,70
96720,note_off,,,,,240,0,9,,,10,,,55,64
96720,note_on,,,,,0,0,1,,,0,,,72,70
96720,note_on,,,,,0,0,1,,,0,,,76,70
96720,note_on,,,,,0,0,9,,,10,,,48,70
96720,note_on,,,,,0,0,2,,,1,,,48,70
96720,note_on,,,,,0,0,11,,,12,,,36,70
96720,note_off,,,,,240,0,11,,,12,,,43,64
96720,note_off,,,,,0,0,1,,,0,,,77,64
96720,note_on,,,,,0,0,10,,,11,,,36,70
96720,note_off,,,,,240,0,10,,,11,,,43,64
96720,note_on,,,,,0,0,6,,,5,,,72,70
96720,note_off,,,,,60,0,6,,,5,,,71,64
96720,note_on,,,,,0,0,7,,,6,,,64,70
96720,note_off,,,,,240,0,7,,,6,,,65,64
96720,note_on,,,,,0,0,8,,,7,,,60,70
96720,note_off,,,,,240,0,8,,,7,,,62,64
96720,note_off,,,,,240,0,2,,,1,,,55,64
96720,note_off,,,,,240,0,1,,,0,,,74,64
96864,note_off,,,,,144,0,6,,,5,,,72,64
96912,note_off,,,,,192,0,11,,,12,,,36,64
96912,note_off,,,,,0,0,1,,,0,,,72,64
96912,note_off,,,,,192,0,9,,,10,,,48,64
96912,note_off,,,,,192,0,7,,,6,,,64,64
96912,note_off,,,,,192,0,1,,,0,,,76,64
96912,note_off,,,,,192,0,2,,,1,,,48,64
96912,note_off,,,,,192,0,8,,,7,,,60,64
96912,note_off,,,,,192,0,10,,,11,,,36,64
96960,note_on,,,,,48,0,1,,,0,,,67,105
96960,note_on,,,,,96,0,6,,,5,,,55,105
96960,note_on,,,,,0,0,6,,,5,,,67,105
96960,note_on,,,,,5592,0,3,,,2,,,55,105
97086,note_off,,,,,126,0,3,,,2,,,55,64
97086,note_off,,,,,126,0,1,,,0,,,67,64
97086,note_off,,,,,126,0,6,,,5,,,67,64
97086,note_off,,,,,0,0,6,,,5,,,55,64
97140,note_on,,,,,54,0,3,,,2,,,55,105
97140,note_on,,,,,54,0,1,,,0,,,67,105
97140,note_on,,,,,54,0,6,,,5,,,67,105
97140,note_on,,,,,0,0,6,,,5,,,55,105
97182,note_off,,,,,42,0,6,,,5,,,55,64
97182,note_off,,,,,42,0,1,,,0,,,67,64
97182,note_off,,,,,42,0,3,,,2,,,55,64
97182,note_off,,,,,0,0,6,,,5,,,67,64
97200,note_on,,,,,18,0,6,,,5,,,55,105
97200,note_on,,,,,0,0,6,,,5,,,67,105
97200,note_on,,,,,18,0,1,,,0,,,67,105
97200,note_on,,,,,18,0,3,,,2,,,55,105
97368,note_off,,,,,168,0,6,,,5,,,67,64
97368,note_off,,,,,168,0,1,,,0,,,67,64
97368,note_off,,,,,168,0,3,,,2,,,55,64
97368,note_off,,,,,0,0,6,,,5,,,55,64
97440,note_on,,,,,72,0,6,,,5,,,55,105
97440,note_on,,,,,0,0,6,,,5,,,67,105
97440,note_on,,,,,72,0,1,,,0,,,67,105
97440,note_on,,,,,72,0,3,,,2,,,55,105
97608,note_off,,,,,168,0,6,,,5,,,67,64
97608,note_off,,,,,168,0,1,,,0,,,67,64
97608,note_off,,,,,0,0,6,,,5,,,55,64
97608,note_off,,,,,168,0,3,,,2,,,55,64
97680,note_on,,,,,72,0,1,,,0,,,67,105
97680,note_on,,,,,0,0,6,,,5,,,67,105
97680,note_on,,,,,72,0,6,,,5,,,55,105
97680,note_on,,,,,72,0,3,,,2,,,55,105
97848,note_off,,,,,0,0,6,,,5,,,55,64
97848,note_off,,,,,168,0,6,,,5,,,67,64
97848,note_off,,,,,168,0,3,,,2,,,55,64
97848,note_off,,,,,168,0,1,,,0,,,67,64
97920,note_on,,,,,8448,0,5,,,4,,,43,105
97920,note_on,,,,,0,0,1,,,0,,,83,105
97920,note_on,,,,,72,0,1,,,0,,,77,105
97920,note_on,,,,,1008,0,8,,,7,,,67,105
97920,note_on,,,,,1008,0,10,,,11,,,43,105
97920,note_on,,,,,72,0,6,,,5,,,84,105
97920,note_on,,,,,1008,0,11,,,12,,,43,105
97920,note_on,,,,,0,0,7,,,6,,,74,105
97920,note_on,,,,,1008,0,7,,,6,,,77,105
97920,note_on,,,,,1008,0,2,,,1,,,55,105
97920,note_on,,,,,0,0,3,,,2,,,62,105
97920,note_on,,,,,7008,0,4,,,3,,,67,105
97920,note_on,,,,,0,0,4,,,3,,,74,105
97920,note_on,,,,,72,0,3,,,2,,,55,105
97920,note_on,,,,,1008,0,9,,,10,,,55,105
97950,note_on,,,,,0,0,6,,,5,,,83,105
97950,note_off,,,,,30,0,6,,,5,,,84,64
97980,note_on,,,,,0,0,6,,,5,,,84,105
97980,note_off,,,,,30,0,6,,,5,,,83,64
98010,note_on,,,,,0,0,6,,,5,,,83,105
98010,note_off,,,,,30,0,6,,,5,,,84,64
98040,note_off,,,,,30,0,6,,,5,,,83,64
98040,note_on,,,,,0,0,6,,,5,,,81,105
98088,note_off,,,,,168,0,8,,,7,,,67,64
98088,note_off,,,,,168,0,9,,,10,,,55,64
98088,note_off,,,,,168,0,4,,,3,,,74,64
98088,note_off,,,,,0,0,4,,,3,,,67,64
98088,note_off,,,,,168,0,11,,,12,,,43,64
98088,note_off,,,,,168,0,2,,,1,,,55,64
98088,note_off,,,,,168,0,7,,,6,,,74,64
98088,note_off,,,,,168,0,10,,,11,,,43,64
98088,note_off,,,,,0,0,7,,,6,,,77,64
98100,note_on,,,,,0,0,6,,,5,,,83,105
98100,note_off,,,,,60,0,6,,,5,,,81,64
98112,note_off,,,,,192,0,5,,,4,,,43,64
98160,note_on,,,,,72,0,8,,,7,,,67,105
98160,note_on,,,,,72,0,9,,,10,,,48,105
98160,note_on,,,,,72,0,7,,,6,,,72,105
98160,note_on,,,,,0,0,7,,,6,,,76,105
98160,note_off,,,,,0,0,3,,,2,,,55,64
98160,note_on,,,,,0,0,3,,,2,,,64,105
98160,note_on,,,,,0,0,4,,,3,,,72,105
98160,note_on,,,,,72,0,10,,,11,,,36,105
98160,note_off,,,,,240,0,1,,,0,,,83,64
98160,note_on,,,,,72,0,2,,,1,,,48,105
98160,note_on,,,,,72,0,4,,,3,,,76,105
98160,note_on,,,,,48,0,5,,,4,,,48,105
98160,note_on,,,,,72,0,11,,,12,,,36,105
98160,note_on,,,,,0,0,3,,,2,,,60,105
98160,note_off,,,,,60,0,6,,,5,,,83,64
98160,note_on,,,,,0,0,6,,,5,,,84,105
98160,note_off,,,,,0,0,1,,,0,,,77,64
98160,note_on,,,,,0,0,1,,,0,,,76,105
98160,note_on,,,,,0,0,1,,,0,,,84,105
98160,note_off,,,,,240,0,3,,,2,,,62,64
98328,note_off,,,,,168,0,11,,,12,,,36,64
98328,note_off,,,,,168,0,2,,,1,,,48,64
98328,note_off,,,,,168,0,4,,,3,,,72,64
98328,note_off,,,,,168,0,7,,,6,,,76,64
98328,note_off,,,,,0,0,7,,,6,,,72,64
98328,note_off,,,,,0,0,4,,,3,,,76,64
98328,note_off,,,,,168,0,8,,,7,,,67,64
98328,note_off,,,,,168,0,10,,,11,,,36,64
98328,note_off,,,,,168,0,9,,,10,,,48,64
98328,note_off,,,,,168,0,6,,,5,,,84,64
98352,note_off,,,,,0,0,1,,,0,,,76,64
98352,note_off,,,,,192,0,1,,,0,,,84,64
98352,note_off,,,,,192,0,3,,,2,,,60,64
98352,note_off,,,,,192,0,5,,,4,,,48,64
98352,note_off,,,,,0,0,3,,,2,,,64,64
98400,note_on,,,,,0,0,3,,,2,,,60,105
98400,note_on,,,,,48,0,3,,,2,,,48,105
98400,note_on,,,,,72,0,6,,,5,,,60,105
98400,note_on,,,,,48,0,1,,,0,,,72,105
98526,note_off,,,,,0,0,3,,,2,,,48,64
98526,note_off,,,,,126,0,3,,,2,,,60,64
98526,note_off,,,,,126,0,6,,,5,,,60,64
98526,note_off,,,,,126,0,1,,,0,,,72,64
98580,note_on,,,,,54,0,3,,,2,,,60,105
98580,note_on,,,,,54,0,1,,,0,,,72,105
98580,note_on,,,,,54,0,6,,,5,,,60,105
98580,note_on,,,,,0,0,3,,,2,,,48,105
98622,note_off,,,,,42,0,1,,,0,,,72,64
98622,note_off,,,,,0,0,3,,,2,,,60,64
98622,note_off,,,,,42,0,3,,,2,,,48,64
98622,note_off,,,,,42,0,6,,,5,,,60,64
98640,note_on,,,,,0,0,3,,,2,,,60,105
98640,note_on,,,,,18,0,6,,,5,,,60,105
98640,note_on,,,,,18,0,1,,,0,,,72,105
98640,note_on,,,,,18,0,3,,,2,,,48,105
98808,note_off,,,,,168,0,6,,,5,,,60,64
98832,note_off,,,,,192,0,1,,,0,,,72,64
98832,note_off,,,,,0,0,3,,,2,,,48,64
98832,note_off,,,,,192,0,3,,,2,,,60,64
98880,note_on,,,,,72,0,6,,,5,,,60,105
98880,note_on,,,,,0,0,3,,,2,,,60,105
98880,note_on,,,,,48,0,3,,,2,,,48,105
98880,note_on,,,,,48,0,1,,,0,,,72,105
99048,note_off,,,,,168,0,6,,,5,,,60,64
99072,note_off,,,,,192,0,1,,,0,,,72,64
99072,note_off,,,,,0,0,3,,,2,,,48,64
99072,note_off,,,,,192,0,3,,,2,,,60,64
99120,note_on,,,,,72,0,6,,,5,,,60,105
99120,note_on,,,,,0,0,3,,,2,,,60,105
99120,note_on,,,,,48,0,3,,,2,,,48,105
99120,note_on,,,,,48,0,1,,,0,,,72,105
99288,note_off,,,,,168,0,6,,,5,,,60,64
99312,note_off,,,,,192,0,3,,,2,,,60,64
99312,note_off,,,,,192,0,1,,,0,,,72,64
99312,note_off,,,,,0,0,3,,,2,,,48,64
99360,note_on,,,,,0,0,3,,,2,,,60,105
99360,note_on,,,,,1008,0,5,,,4,,,48,105
99360,note_on,,,,,1032,0,7,,,6,,,81,105
99360,note_on,,,,,1032,0,4,,,3,,,60,105
99360,note_on,,,,,48,0,1,,,0,,,82,105
99360,note_on,,,,,72,0,6,,,5,,,84,105
99360,note_on,,,,,1032,0,10,,,11,,,36,105
99360,note_on,,,,,48,0,3,,,2,,,48,105
99360,note_on,,,,,1032,0,9,,,10,,,48,105
99360,note_on,,,,,1032,0,11,,,12,,,36,105
99360,note_on,,,,,0,0,4,,,3,,,72,105
99360,note_on,,,,,1032,0,2,,,1,,,48,105
99360,note_on,,,,,1032,0,8,,,7,,,60,105
99360,note_on,,,,,0,0,1,,,0,,,76,105
99390,note_off,,,,,30,0,6,,,5,,,84,64
99390,note_on,,,,,0,0,6,,,5,,,82,105
99390,note_on,,,,,0,0,7,,,6,,,79,105
99390,note_off,,,,,30,0,7,,,6,,,81,64
99420,note_off,,,,,30,0,6,,,5,,,82,64
99420,note_off,,,,,30,0,7,,,6,,,79,64
99420,note_on,,,,,0,0,7,,,6,,,81,105
99420,note_on,,,,,0,0,6,,,5,,,84,105
99450,note_off,,,,,30,0,6,,,5,,,84,64
99450,note_on,,,,,0,0,7,,,6,,,79,105
99450,note_off,,,,,30,0,7,,,6,,,81,64
99450,note_on,,,,,0,0,6,,,5,,,82,105
99480,note_on,,,,,0,0,7,,,6,,,77,105
99480,note_off,,,,,30,0,7,,,6,,,79,64
99480,note_off,,,,,30,0,6,,,5,,,82,64
99480,note_on,,,,,0,0,6,,,5,,,81,105
99528,note_off,,,,,168,0,9,,,10,,,48,64
99528,note_off,,,,,168,0,10,,,11,,,36,64
99528,note_off,,,,,168,0,11,,,12,,,36,64
99528,note_off,,,,,168,0,2,,,1,,,48,64
99528,note_off,,,,,168,0,8,,,7,,,60,64
99540,note_on,,,,,0,0,7,,,6,,,79,105
99540,note_on,,,,,0,0,6,,,5,,,82,105
99540,note_off,,,,,60,0,7,,,6,,,77,64
99540,note_off,,,,,60,0,6,,,5,,,81,64
99552,note_off,,,,,192,0,5,,,4,,,48,64
99552,note_off,,,,,0,0,3,,,2,,,48,64
99552,note_off,,,,,192,0,3,,,2,,,60,64
99552,note_off,,,,,0,0,1,,,0,,,82,64
99552,note_off,,,,,0,0,4,,,3,,,60,64
99552,note_off,,,,,192,0,4,,,3,,,72,64
99552,note_off,,,,,192,0,1,,,0,,,76,64
99600,note_on,,,,,48,0,5,,,4,,,48,105
99600,note_on,,,,,72,0,9,,,10,,,53,105
99600,note_on,,,,,0,0,7,,,6,,,77,105
99600,note_off,,,,,60,0,7,,,6,,,79,64
99600,note_off,,,,,60,0,6,,,5,,,82,64
99600,note_on,,,,,0,0,6,,,5,,,81,105
99600,note_on,,,,,72,0,2,,,1,,,53,105
99600,note_on,,,,,48,0,1,,,0,,,81,105
99600,note_on,,,,,48,0,4,,,3,,,72,105
99600,note_on,,,,,0,0,4,,,3,,,60,105
99600,note_on,,,,,48,0,3,,,2,,,60,105
99600,note_on,,,,,0,0,3,,,2,,,48,105
99600,note_on,,,,,72,0,10,,,11,,,41,105
99600,note_on,,,,,0,0,1,,,0,,,77,105
99600,note_on,,,,,72,0,11,,,12,,,41,105
99600,note_on,,,,,72,0,8,,,7,,,60,105
99768,note_off,,,,,168,0,8,,,7,,,60,64
99768,note_off,,,,,168,0,10,,,11,,,41,64
99768,note_off,,,,,168,0,11,,,12,,,41,64
99768,note_off,,,,,168,0,9,,,10,,,53,64
99768,note_off,,,,,168,0,7,,,6,,,77,64
99768,note_off,,,,,168,0,2,,,1,,,53,64
99768,note_off,,,,,168,0,6,,,5,,,81,64
99792,note_off,,,,,192,0,5,,,4,,,48,64
99792,note_off,,,,,0,0,3,,,2,,,60,64
99792,note_off,,,,,0,0,1,,,0,,,81,64
99792,note_off,,,,,0,0,4,,,3,,,72,64
99792,note_off,,,,,192,0,4,,,3,,,60,64
99792,note_off,,,,,192,0,3,,,2,,,48,64
99792,note_off,,,,,192,0,1,,,0,,,77,64
99840,note_on,,,,,72,0,7,,,6,,,81,105
99840,note_on,,,,,72,0,2,,,1,,,53,105
99840,note_on,,,,,72,0,10,,,11,,,41,105
99840,note_on,,,,,72,0,9,,,10,,,53,105
99840,note_on,,,,,48,0,3,,,2,,,48,105
99840,note_on,,,,,0,0,3,,,2,,,60,105
99840,note_on,,,,,72,0,8,,,7,,,60,105
99840,note_on,,,,,48,0,1,,,0,,,81,105
99840,note_on,,,,,0,0,1,,,0,,,84,105
99840,note_on,,,,,72,0,6,,,5,,,84,105
99840,note_on,,,,,72,0,11,,,12,,,41,105
99960,note_off,,,,,120,0,6,,,5,,,84,64
99960,note_on,,,,,0,0,6,,,5,,,81,105
99960,note_on,,,,,0,0,7,,,6,,,77,105
99960,note_off,,,,,120,0,1,,,0,,,84,64
99960,note_on,,,,,0,0,1,,,0,,,81,105
99960,note_off,,,,,0,0,1,,,0,,,81,64
99960,note_off,,,,,120,0,7,,,6,,,81,64
99960,note_on,,,,,0,0,1,,,0,,,77,105
100008,note_off,,,,,168,0,11,,,12,,,41,64
100008,note_off,,,,,168,0,10,,,11,,,41,64
100008,note_off,,,,,168,0,8,,,7,,,60,64
100008,note_off,,,,,168,0,2,,,1,,,53,64
100008,note_off,,,,,168,0,9,,,10,,,53,64
100032,note_off,,,,,0,0,3,,,2,,,48,64
100032,note_off,,,,,192,0,3,,,2,,,60,64
100056,note_off,,,,,0,0,1,,,0,,,77,64
100056,note_off,,,,,96,0,7,,,6,,,77,64
100056,note_off,,,,,96,0,6,,,5,,,81,64
100056,note_off,,,,,96,0,1,,,0,,,81,64
100080,note_on,,,,,24,0,6,,,5,,,81,105
100080,note_on,,,,,72,0,11,,,12,,,43,105
100080,note_on,,,,,24,0,7,,,6,,,77,105
100080,note_on,,,,,0,0,1,,,0,,,77,105
100080,note_on,,,,,48,0,3,,,2,,,64,105
100080,note_on,,,,,0,0,4,,,3,,,67,105
100080,note_on,,,,,288,0,4,,,3,,,79,105
100080,note_on,,,,,72,0,8,,,7,,,67,105
100080,note_on,,,,,72,0,10,,,11,,,43,105
100080,note_on,,,,,72,0,9,,,10,,,55,105
100080,note_on,,,,,0,0,3,,,2,,,60,105
100080,note_on,,,,,288,0,5,,,4,,,43,105
100080,note_on,,,,,24,0,1,,,0,,,81,105
100080,note_on,,,,,72,0,2,,,1,,,55,105
100200,note_on,,,,,0,0,1,,,0,,,76,105
100200,note_on,,,,,0,0,1,,,0,,,79,105
100200,note_off,,,,,120,0,6,,,5,,,81,64
100200,note_off,,,,,120,0,1,,,0,,,77,64
100200,note_off,,,,,120,0,7,,,6,,,77,64
100200,note_on,,,,,0,0,7,,,6,,,76,105
100200,note_on,,,,,0,0,6,,,5,,,79,105
100200,note_off,,,,,0,0,1,,,0,,,81,64
100248,note_off,,,,,168,0,9,,,10,,,55,64
100248,note_off,,,,,168,0,2,,,1,,,55,64
100248,note_off,,,,,168,0,10,,,11,,,43,64
100248,note_off,,,,,168,0,8,,,7,,,67,64
100248,note_off,,,,,168,0,11,,,12,,,43,64
100272,note_off,,,,,192,0,4,,,3,,,67,64
100272,note_off,,,,,0,0,4,,,3,,,79,64
100272,note_off,,,,,192,0,5,,,4,,,43,64
100296,note_off,,,,,96,0,7,,,6,,,76,64
100296,note_off,,,,,96,0,6,,,5,,,79,64
100296,note_off,,,,,0,0,1,,,0,,,76,64
100296,note_off,,,,,96,0,1,,,0,,,79,64
100320,note_on,,,,,48,0,4,,,3,,,72,105
100320,note_on,,,,,72,0,10,,,11,,,43,105
100320,note_on,,,,,0,0,1,,,0,,,79,105
100320,note_on,,,,,48,0,5,,,4,,,43,105
100320,note_on,,,,,24,0,6,,,5,,,79,105
100320,note_on,,,,,24,0,1,,,0,,,76,105
100320,note_on,,,,,72,0,9,,,10,,,55,105
100320,note_on,,,,,0,0,4,,,3,,,76,105
100320,note_on,,,,,72,0,11,,,12,,,43,105
100320,note_on,,,,,72,0,2,,,1,,,55,105
100320,note_on,,,,,24,0,7,,,6,,,76,105
100320,note_on,,,,,72,0,8,,,7,,,67,105
100440,note_off,,,,,120,0,6,,,5,,,79,64
100440,note_off,,,,,0,0,1,,,0,,,76,64
100440,note_on,,,,,0,0,6,,,5,,,76,105
100440,note_off,,,,,120,0,1,,,0,,,79,64
100440,note_on,,,,,0,0,7,,,6,,,72,105
100440,note_off,,,,,120,0,7,,,6,,,76,64
100440,note_on,,,,,0,0,1,,,0,,,72,105
100440,note_on,,,,,0,0,1,,,0,,,76,105
100464,note_off,,,,,384,0,3,,,2,,,60,64
100464,note_off,,,,,0,0,3,,,2,,,64,64
100488,note_off,,,,,168,0,9,,,10,,,55,64
100488,note_off,,,,,168,0,2,,,1,,,55,64
100488,note_off,,,,,168,0,11,,,12,,,43,64
100488,note_off,,,,,168,0,10,,,11,,,43,64
100488,note_off,,,,,168,0,8,,,7,,,67,64
100512,note_off,,,,,0,0,4,,,3,,,72,64
100512,note_off,,,,,192,0,4,,,3,,,76,64
100512,note_off,,,,,192,0,5,,,4,,,43,64
100536,note_off,,,,,0,0,1,,,0,,,76,64
100536,note_off,,,,,96,0,1,,,0,,,72,64
100536,note_off,,,,,96,0,7,,,6,,,72,64
100536,note_off,,,,,96,0,6,,,5,,,76,64
100560,note_on,,,,,72,0,11,,,12,,,43,105
100560,note_on,,,,,24,0,6,,,5,,,77,105
100560,note_on,,,,,0,0,1,,,0,,,77,105
100560,note_on,,,,,48,0,4,,,3,,,74,105
100560,note_on,,,,,0,0,4,,,3,,,67,105
100560,note_on,,,,,72,0,10,,,11,,,43,105
100560,note_on,,,,,48,0,5,,,4,,,43,105
100560,note_on,,,,,72,0,9,,,10,,,55,105
100560,note_on,,,,,0,0,3,,,2,,,62,105
100560,note_on,,,,,96,0,3,,,2,,,55,105
100560,note_on,,,,,72,0,2,,,1,,,55,105
100560,note_on,,,,,72,0,8,,,7,,,67,105
100560,note_on,,,,,24,0,7,,,6,,,74,105
100560,note_on,,,,,24,0,1,,,0,,,74,105
100680,note_off,,,,,120,0,1,,,0,,,77,64
100680,note_off,,,,,120,0,7,,,6,,,74,64
100680,note_off,,,,,120,0,8,,,7,,,67,64
100680,note_off,,,,,0,0,1,,,0,,,74,64
100680,note_on,,,,,0,0,7,,,6,,,71,105
100680,note_on,,,,,0,0,1,,,0,,,74,105
100680,note_off,,,,,120,0,6,,,5,,,77,64
100680,note_on,,,,,0,0,6,,,5,,,74,105
100680,note_on,,,,,0,0,8,,,7,,,65,105
100680,note_on,,,,,0,0,1,,,0,,,71,105
100728,note_off,,,,,168,0,11,,,12,,,43,64
100728,note_off,,,,,168,0,2,,,1,,,55,64
100728,note_off,,,,,168,0,9,,,10,,,55,64
100728,note_off,,,,,168,0,10,,,11,,,43,64
100752,note_off,,,,,0,0,4,,,3,,,74,64
100752,note_off,,,,,0,0,3,,,2,,,55,64
100752,note_off,,,,,192,0,3,,,2,,,62,64
100752,note_off,,,,,192,0,5,,,4,,,43,64
100752,note_off,,,,,192,0,4,,,3,,,67,64
100776,note_off,,,,,0,0,1,,,0,,,71,64
100776,note_off,,,,,96,0,6,,,5,,,74,64
100776,note_off,,,,,96,0,7,,,6,,,71,64
100776,note_off,,,,,96,0,8,,,7,,,65,64
100776,note_off,,,,,96,0,1,,,0,,,74,64
100800,note_on,,,,,48,0,4,,,3,,,64,105
100800,note_on,,,,,72,0,10,,,11,,,36,105
100800,note_on,,,,,48,0,5,,,4,,,48,105
100800,note_on,,,,,24,0,1,,,0,,,72,105
100800,note_on,,,,,0,0,4,,,3,,,72,105
100800,note_on,,,,,72,0,9,,,10,,,48,105
100800,note_on,,,,,72,0,11,,,12,,,36,105
100800,note_on,,,,,24,0,6,,,5,,,72,105
100800,set_tempo,,,,,6480,1,0,483871,,,,,,
100800,note_on,,,,,0,0,3,,,2,,,60,105
100800,note_on,,,,,48,0,3,,,2,,,52,105
100800,note_on,,,,,72,0,2,,,1,,,48,105
100800,note_on,,,,,24,0,7,,,6,,,72,105
100800,note_on,,,,,24,0,8,,,7,,,64,105
100968,note_off,,,,,168,0,10,,,11,,,36,64
100968,note_off,,,,,168,0,8,,,7,,,64,64
100968,note_off,,,,,168,0,9,,,10,,,48,64
100968,note_off,,,,,168,0,2,,,1,,,48,64
100968,note_off,,,,,168,0,11,,,12,,,36,64
100992,note_off,,,,,192,0,3,,,2,,,60,64
100992,note_off,,,,,192,0,1,,,0,,,72,64
100992,note_off,,,,,0,0,3,,,2,,,52,64
100992,note_off,,,,,192,0,5,,,4,,,48,64
100992,end_of_track,,,,,0,1,4,,,,,,,
100992,note_off,,,,,192,0,7,,,6,,,72,64
100992,note_off,,,,,0,0,4,,,3,,,64,64
100992,note_off,,,,,192,0,4,,,3,,,72,64
100992,note_off,,,,,192,0,6,,,5,,,72,64
100992,end_of_track,,,,,0,1,5,,,,,,,
101040,note_on,,,,,72,0,9,,,10,,,60,105
101040,note_on,,,,,72,0,2,,,1,,,60,105
101040,note_on,,,,,72,0,10,,,11,,,48,105
101040,note_on,,,,,72,0,11,,,12,,,48,105
101208,note_off,,,,,168,0,2,,,1,,,60,64
101208,note_off,,,,,168,0,10,,,11,,,48,64
101208,note_off,,,,,168,0,9,,,10,,,60,64
101208,note_off,,,,,168,0,11,,,12,,,48,64
101280,note_on,,,,,288,0,6,,,5,,,79,70
101280,note_on,,,,,288,0,7,,,6,,,67,70
101424,note_off,,,,,144,0,6,,,5,,,79,64
101424,note_off,,,,,144,0,7,,,6,,,67,64
101520,note_on,,,,,96,0,7,,,6,,,67,70
101520,note_on,,,,,96,0,6,,,5,,,79,70
101520,set_tempo,,,,,720,1,0,476190,,,,,,
101760,note_on,,,,,552,0,11,,,12,,,47,70
101760,note_on,,,,,792,0,8,,,7,,,62,70
101760,note_on,,,,,552,0,10,,,11,,,47,70
101760,note_on,,,,,552,0,9,,,10,,,59,70
102000,note_off,,,,,240,0,11,,,12,,,47,64
102000,note_off,,,,,240,0,9,,,10,,,59,64
102000,note_on,,,,,0,0,9,,,10,,,60,58
102000,note_on,,,,,0,0,11,,,12,,,48,58
102000,note_off,,,,,240,0,10,,,11,,,47,64
102000,note_on,,,,,0,0,10,,,11,,,48,58
102000,note_on,,,,,0,0,8,,,7,,,64,58
102000,note_on,,,,,0,0,6,,,5,,,76,58
102000,note_on,,,,,0,0,7,,,6,,,64,58
102000,note_off,,,,,480,0,7,,,6,,,67,64
102000,note_off,,,,,480,0,6,,,5,,,79,64
102000,note_off,,,,,240,0,8,,,7,,,62,64
102096,note_off,,,,,96,0,7,,,6,,,64,64
102096,note_off,,,,,96,0,8,,,7,,,64,64
102096,note_off,,,,,96,0,10,,,11,,,48,64
102096,note_off,,,,,96,0,11,,,12,,,48,64
102096,note_off,,,,,96,0,6,,,5,,,76,64
102096,note_off,,,,,96,0,9,,,10,,,60,64
102240,note_on,,,,,144,0,6,,,5,,,76,70
102240,note_on,,,,,144,0,7,,,6,,,64,70
102480,note_on,,,,,384,0,10,,,11,,,44,70
102480,note_on,,,,,384,0,11,,,12,,,44,70
102480,note_on,,,,,384,0,8,,,7,,,59,70
102480,note_on,,,,,384,0,9,,,10,,,56,70
102720,note_off,,,,,240,0,9,,,10,,,56,64
102720,note_off,,,,,240,0,10,,,11,,,44,64
102720,note_off,,,,,480,0,6,,,5,,,76,64
102720,note_on,,,,,0,0,6,,,5,,,73,58
102720,note_off,,,,,240,0,8,,,7,,,59,64
102720,note_on,,,,,0,0,8,,,7,,,64,58
102720,note_on,,,,,0,0,9,,,10,,,57,58
102720,note_on,,,,,0,0,7,,,6,,,61,58
102720,note_off,,,,,480,0,7,,,6,,,64,64
102720,note_on,,,,,0,0,11,,,12,,,45,58
102720,note_off,,,,,240,0,11,,,12,,,44,64
102720,note_on,,,,,0,0,10,,,11,,,45,58
102816,note_off,,,,,96,0,8,,,7,,,64,64
102816,note_off,,,,,96,0,7,,,6,,,61,64
102816,note_off,,,,,96,0,10,,,11,,,45,64
102816,note_off,,,,,96,0,6,,,5,,,73,64
102816,note_off,,,,,96,0,11,,,12,,,45,64
102816,note_off,,,,,96,0,9,,,10,,,57,64
102960,note_on,,,,,144,0,11,,,12,,,41,70
102960,note_on,,,,,144,0,9,,,10,,,53,70
102960,note_on,,,,,0,0,1,,,0,,,69,70
102960,note_on,,,,,144,0,7,,,6,,,62,58
102960,set_tempo,,,,,1440,1,0,500000,,,,,,
102960,note_on,,,,,1752,0,2,,,1,,,53,70
102960,note_on,,,,,144,0,6,,,5,,,74,58
102960,note_on,,,,,144,0,10,,,11,,,41,70
102960,note_on,,,,,144,0,8,,,7,,,69,70
102960,note_on,,,,,1968,0,1,,,0,,,81,70
103080,note_off,,,,,120,0,7,,,6,,,62,64
103080,note_off,,,,,120,0,6,,,5,,,74,64
103080,note_on,,,,,0,0,6,,,5,,,77,70
103080,note_on,,,,,0,0,7,,,6,,,65,70
103128,note_off,,,,,168,0,8,,,7,,,69,64
103128,note_off,,,,,168,0,10,,,11,,,41,64
103128,note_off,,,,,168,0,2,,,1,,,53,64
103128,note_off,,,,,168,0,11,,,12,,,41,64
103128,note_off,,,,,168,0,9,,,10,,,53,64
103200,note_on,,,,,72,0,2,,,1,,,50,70
103200,note_on,,,,,0,0,7,,,6,,,69,70
103200,note_on,,,,,72,0,9,,,10,,,50,70
103200,note_on,,,,,72,0,8,,,7,,,65,70
103200,note_on,,,,,72,0,11,,,12,,,38,70
103200,note_on,,,,,72,0,10,,,11,,,38,70
103200,note_off,,,,,120,0,6,,,5,,,77,64
103200,note_off,,,,,120,0,7,,,6,,,65,64
103200,set_tempo,,,,,240,1,0,517241,,,,,,
103200,note_on,,,,,0,0,6,,,5,,,81,70
103320,note_on,,,,,0,0,7,,,6,,,65,70
103320,note_off,,,,,120,0,8,,,7,,,65,64
103320,note_off,,,,,120,0,7,,,6,,,69,64
103320,note_on,,,,,0,0,8,,,7,,,62,70
103320,note_on,,,,,0,0,6,,,5,,,77,70
103320,note_off,,,,,120,0,6,,,5,,,81,64
103344,note_off,,,,,0,0,1,,,0,,,81,64
103344,note_off,,,,,384,0,1,,,0,,,69,64
103368,note_off,,,,,168,0,2,,,1,,,50,64
103368,note_off,,,,,168,0,10,,,11,,,38,64
103368,note_off,,,,,168,0,9,,,10,,,50,64
103368,note_off,,,,,168,0,11,,,12,,,38,64
103416,note_off,,,,,96,0,8,,,7,,,62,64
103440,note_on,,,,,0,0,6,,,5,,,74,70
103440,note_on,,,,,24,0,8,,,7,,,65,70
103440,note_off,,,,,120,0,7,,,6,,,65,64
103440,note_on,,,,,0,0,7,,,6,,,62,70
103440,note_off,,,,,120,0,6,,,5,,,77,64
103440,note_on,,,,,72,0,9,,,10,,,55,70
103440,note_on,,,,,72,0,11,,,12,,,43,70
103440,note_on,,,,,72,0,10,,,11,,,43,70
103440,note_on,,,,,96,0,1,,,0,,,71,70
103440,note_on,,,,,0,0,1,,,0,,,77,70
103440,set_tempo,,,,,240,1,0,535714,,,,,,
103440,note_on,,,,,72,0,2,,,1,,,55,70
103440,note_on,,,,,2448,0,3,,,2,,,55,70
103440,note_on,,,,,0,0,3,,,2,,,62,70
103560,note_off,,,,,120,0,1,,,0,,,77,64
103560,note_on,,,,,0,0,1,,,0,,,74,70
103560,note_on,,,,,0,0,6,,,5,,,71,70
103560,note_off,,,,,120,0,6,,,5,,,74,64
103560,note_off,,,,,120,0,7,,,6,,,62,64
103560,note_off,,,,,120,0,8,,,7,,,65,64
103560,note_on,,,,,0,0,8,,,7,,,62,70
103560,note_on,,,,,0,0,7,,,6,,,59,70
103608,note_off,,,,,168,0,11,,,12,,,43,64
103608,note_off,,,,,168,0,2,,,1,,,55,64
103608,note_off,,,,,168,0,9,,,10,,,55,64
103608,note_off,,,,,168,0,10,,,11,,,43,64
103632,note_off,,,,,0,0,3,,,2,,,55,64
103632,note_off,,,,,192,0,3,,,2,,,62,64
103656,note_off,,,,,96,0,7,,,6,,,59,64
103656,note_off,,,,,96,0,6,,,5,,,71,64
103656,note_off,,,,,96,0,1,,,0,,,74,64
103656,note_off,,,,,0,0,1,,,0,,,71,64
103656,note_off,,,,,96,0,8,,,7,,,62,64
103680,set_tempo,,,,,240,1,0,555556,,,,,,
103680,note_on,,,,,24,0,8,,,7,,,60,58
103680,note_on,,,,,72,0,10,,,11,,,36,70
103680,note_on,,,,,48,0,3,,,2,,,52,58
103680,note_on,,,,,24,0,6,,,5,,,72,58
103680,note_on,,,,,0,0,3,,,2,,,60,58
103680,note_on,,,,,72,0,11,,,12,,,36,58
103680,note_on,,,,,72,0,2,,,1,,,48,58
103680,note_on,,,,,24,0,7,,,6,,,60,58
103680,note_on,,,,,24,0,1,,,0,,,72,58
103680,note_on,,,,,72,0,9,,,10,,,48,70
103908,end_of_track,,,,,0,1,11,,,,,,,
103908,note_off,,,,,228,0,11,,,12,,,36,64
103908,note_off,,,,,228,0,8,,,7,,,60,64
103908,end_of_track,,,,,0,1,7,,,,,,,
103908,note_off,,,,,228,0,1,,,0,,,72,64
103908,end_of_track,,,,,0,1,1,,,,,,,
103908,note_off,,,,,228,0,10,,,11,,,36,64
103908,note_off,,,,,228,0,2,,,1,,,48,64
103908,end_of_track,,,,,0,1,2,,,,,,,
103908,note_off,,,,,228,0,7,,,6,,,60,64
103908,note_off,,,,,0,0,3,,,2,,,52,64
103908,note_off,,,,,228,0,3,,,2,,,60,64
103908,end_of_track,,,,,0,1,9,,,,,,,
103908,note_off,,,,,228,0,9,,,10,,,48,64
103908,end_of_track,,,,,0,1,8,,,,,,,
103908,note_off,,,,,228,0,6,,,5,,,72,64
103908,end_of_track,,,,,0,1,6,,,,,,,
103908,end_of_track,,,,,0,1,3,,,,,,,
104400,end_of_track,,,,,0,1,0,,,,,,,
104400,set_tempo,,,,,720,1,0,476190,,,,,,
105120,note_on,,,,,1212,0,10,,,11,,,23,1
105696,note_off,,,,,576,0,10,,,11,,,23,64
105696,end_of_track,,,,,0,1,10,,,,,,,
