,note,step,duration,channel,velocity
0,74.0,0,234,11.0,0.0
1,62.0,78,234,12.0,0.0
2,74.0,0,234,10.0,0.0
3,74.0,0,234,0.0,0.0
4,62.0,0,312,1.0,0.0
5,62.0,126,312,13.0,0.0
6,50.0,0,312,14.0,0.0
7,74.0,0,312,2.0,0.0
8,74.0,354,78,11.0,0.0
9,74.0,0,78,0.0,0.0
10,62.0,0,78,12.0,0.0
11,74.0,0,78,10.0,0.0
12,74.0,0,312,11.0,0.0
13,62.0,0,312,13.0,0.0
14,74.0,0,312,10.0,0.0
15,74.0,0,312,2.0,0.0
16,50.0,0,312,14.0,0.0
17,74.0,0,312,0.0,0.0
18,62.0,0,312,1.0,0.0
19,62.0,402,312,12.0,0.0
20,57.0,0,234,12.0,0.0
21,69.0,0,234,10.0,0.0
22,57.0,126,312,1.0,0.0
23,69.0,0,312,2.0,0.0
24,69.0,78,234,0.0,0.0
25,69.0,0,234,11.0,0.0
26,57.0,0,312,13.0,0.0
27,45.0,0,312,14.0,0.0
28,69.0,0,78,0.0,0.0
29,57.0,0,78,12.0,0.0
30,69.0,354,78,11.0,0.0
31,69.0,0,78,10.0,0.0
32,57.0,0,312,12.0,0.0
33,57.0,0,312,1.0,0.0
34,57.0,0,312,13.0,0.0
35,45.0,0,312,14.0,0.0
36,69.0,0,312,2.0,0.0
37,69.0,0,312,11.0,0.0
38,69.0,402,312,10.0,0.0
39,69.0,0,312,0.0,0.0
40,54.0,0,312,1.0,0.0
41,66.0,0,234,0.0,0.0
42,66.0,0,234,10.0,0.0
43,66.0,0,312,2.0,0.0
44,42.0,0,312,14.0,0.0
45,66.0,78,234,11.0,0.0
46,54.0,0,234,12.0,0.0
47,54.0,126,312,13.0,0.0
48,54.0,0,78,12.0,0.0
49,66.0,0,78,11.0,0.0
50,66.0,0,78,10.0,0.0
51,66.0,354,78,0.0,0.0
52,66.0,0,312,10.0,0.0
53,66.0,0,312,0.0,0.0
54,54.0,0,312,13.0,0.0
55,54.0,0,312,1.0,0.0
56,42.0,0,312,14.0,0.0
57,54.0,402,312,12.0,0.0
58,66.0,0,312,2.0,0.0
59,66.0,0,312,11.0,0.0
60,62.0,0,234,11.0,0.0
61,62.0,0,234,10.0,0.0
62,50.0,0,312,1.0,0.0
63,50.0,78,234,12.0,0.0
64,50.0,0,312,13.0,0.0
65,38.0,126,312,14.0,0.0
66,62.0,0,312,2.0,0.0
67,62.0,0,234,0.0,0.0
68,62.0,0,78,10.0,0.0
69,62.0,0,78,0.0,0.0
70,62.0,354,78,11.0,0.0
71,50.0,0,78,12.0,0.0
72,62.0,0,312,11.0,0.0
73,62.0,0,312,10.0,0.0
74,50.0,312,312,12.0,0.0
75,38.0,0,312,14.0,0.0
76,62.0,0,312,2.0,0.0
77,50.0,0,312,13.0,0.0
78,62.0,0,312,0.0,0.0
79,50.0,0,312,1.0,0.0
80,62.0,0,144,11.0,0.0
81,78.0,240,144,10.0,0.0
82,64.0,0,144,11.0,0.0
83,79.0,240,144,10.0,0.0
84,66.0,240,144,11.0,0.0
85,81.0,0,144,10.0,0.0
86,78.0,0,144,10.0,0.0
87,62.0,240,144,11.0,0.0
88,83.0,0,144,10.0,0.0
89,67.0,240,144,11.0,0.0
90,66.0,0,144,11.0,0.0
91,81.0,240,144,10.0,0.0
92,64.0,0,144,11.0,0.0
93,79.0,240,144,10.0,0.0
94,61.0,240,144,11.0,0.0
95,76.0,0,144,10.0,0.0
96,81.0,0,144,10.0,0.0
97,66.0,240,144,11.0,0.0
98,79.0,240,144,10.0,0.0
99,64.0,0,144,11.0,0.0
100,78.0,240,144,10.0,0.0
101,62.0,0,144,11.0,0.0
102,66.0,240,144,11.0,0.0
103,74.0,0,144,10.0,0.0
104,79.0,0,144,10.0,0.0
105,64.0,240,144,11.0,0.0
106,78.0,480,144,10.0,0.0
107,62.0,0,144,11.0,0.0
108,76.0,330,384,10.0,0.0
109,61.0,0,384,11.0,0.0
110,74.0,126,312,2.0,0.0
111,62.0,0,312,13.0,0.0
112,62.0,0,312,1.0,0.0
113,74.0,0,234,10.0,0.0
114,50.0,0,312,14.0,0.0
115,74.0,0,234,11.0,0.0
116,74.0,78,234,0.0,0.0
117,62.0,0,234,12.0,0.0
118,62.0,0,78,12.0,0.0
119,74.0,0,78,10.0,0.0
120,74.0,0,78,11.0,0.0
121,74.0,354,78,0.0,0.0
122,74.0,0,312,10.0,0.0
123,62.0,0,312,12.0,0.0
124,62.0,0,312,13.0,0.0
125,50.0,402,312,14.0,0.0
126,74.0,0,312,0.0,0.0
127,74.0,0,312,11.0,0.0
128,74.0,0,312,2.0,0.0
129,62.0,0,312,1.0,0.0
130,57.0,0,312,13.0,0.0
131,57.0,126,312,1.0,0.0
132,69.0,0,234,10.0,0.0
133,69.0,0,312,2.0,0.0
134,69.0,0,234,0.0,0.0
135,45.0,0,312,14.0,0.0
136,69.0,0,234,11.0,0.0
137,57.0,78,234,12.0,0.0
138,69.0,354,78,10.0,0.0
139,57.0,0,78,12.0,0.0
140,69.0,0,78,0.0,0.0
141,69.0,0,78,11.0,0.0
142,69.0,0,312,0.0,0.0
143,45.0,0,312,14.0,0.0
144,57.0,0,312,1.0,0.0
145,69.0,0,312,2.0,0.0
146,69.0,0,312,10.0,0.0
147,57.0,0,312,13.0,0.0
148,69.0,402,312,11.0,0.0
149,57.0,0,312,12.0,0.0
150,66.0,126,312,2.0,0.0
151,54.0,0,312,1.0,0.0
152,54.0,0,312,13.0,0.0
153,42.0,0,312,14.0,0.0
154,66.0,78,234,11.0,0.0
155,66.0,0,234,0.0,0.0
156,66.0,0,234,10.0,0.0
157,54.0,0,234,12.0,0.0
158,54.0,0,78,12.0,0.0
159,66.0,0,78,11.0,0.0
160,66.0,0,78,0.0,0.0
161,66.0,354,78,10.0,0.0
162,54.0,0,312,12.0,0.0
163,66.0,0,312,0.0,0.0
164,66.0,0,312,11.0,0.0
165,66.0,0,312,2.0,0.0
166,66.0,0,312,10.0,0.0
167,42.0,0,312,14.0,0.0
168,54.0,0,312,1.0,0.0
169,54.0,402,312,13.0,0.0
170,62.0,0,234,11.0,0.0
171,50.0,0,312,1.0,0.0
172,50.0,126,312,13.0,0.0
173,62.0,78,234,10.0,0.0
174,62.0,0,234,0.0,0.0
175,62.0,0,312,2.0,0.0
176,38.0,0,312,14.0,0.0
177,50.0,0,234,12.0,0.0
178,62.0,0,78,10.0,0.0
179,50.0,354,78,12.0,0.0
180,62.0,0,78,0.0,0.0
181,62.0,0,78,11.0,0.0
182,62.0,0,312,11.0,0.0
183,50.0,0,312,12.0,0.0
184,50.0,0,312,13.0,0.0
185,62.0,312,312,0.0,0.0
186,50.0,0,312,1.0,0.0
187,62.0,0,312,2.0,0.0
188,38.0,0,312,14.0,0.0
189,62.0,0,312,10.0,0.0
190,78.0,0,144,10.0,0.0
191,62.0,240,144,11.0,0.0
192,79.0,240,144,10.0,0.0
193,64.0,0,144,11.0,0.0
194,81.0,0,144,10.0,0.0
195,66.0,240,144,11.0,0.0
196,62.0,0,144,11.0,0.0
197,78.0,240,144,10.0,0.0
198,67.0,0,144,11.0,0.0
199,83.0,240,144,10.0,0.0
200,81.0,0,144,10.0,0.0
201,66.0,240,144,11.0,0.0
202,79.0,240,144,10.0,0.0
203,64.0,0,144,11.0,0.0
204,61.0,240,144,11.0,0.0
205,76.0,0,144,10.0,0.0
206,66.0,0,144,11.0,0.0
207,81.0,240,144,10.0,0.0
208,64.0,0,144,11.0,0.0
209,79.0,240,144,10.0,0.0
210,78.0,240,144,10.0,0.0
211,62.0,0,144,11.0,0.0
212,74.0,0,144,10.0,0.0
213,66.0,240,144,11.0,0.0
214,76.0,240,144,10.0,0.0
215,67.0,0,144,11.0,0.0
216,73.0,480,144,10.0,0.0
217,64.0,0,144,11.0,0.0
218,74.0,0,384,10.0,0.0
219,66.0,384,384,11.0,0.0
220,38.0,72,384,14.0,0.0
221,78.0,24,288,10.0,0.0
222,50.0,0,312,1.0,0.0
223,62.0,72,312,1.0,0.0
224,78.0,0,312,0.0,0.0
225,62.0,0,384,12.0,0.0
226,50.0,0,384,13.0,0.0
227,69.0,0,312,0.0,0.0
228,69.0,0,288,11.0,0.0
229,66.0,0,96,11.0,0.0
230,74.0,216,96,10.0,0.0
231,50.0,0,384,13.0,0.0
232,71.0,72,312,0.0,0.0
233,79.0,0,960,0.0,0.0
234,38.0,0,384,14.0,0.0
235,50.0,0,7032,1.0,0.0
236,62.0,48,384,12.0,0.0
237,79.0,0,384,10.0,0.0
238,62.0,0,7032,1.0,0.0
239,71.0,120,192,11.0,0.0
240,67.0,108,192,11.0,0.0
241,73.0,48,312,0.0,0.0
242,62.0,0,384,12.0,0.0
243,81.0,60,60,10.0,0.0
244,73.0,48,192,11.0,0.0
245,50.0,0,384,13.0,0.0
246,38.0,36,384,14.0,0.0
247,79.0,60,60,10.0,0.0
248,81.0,12,60,10.0,0.0
249,79.0,60,60,10.0,0.0
250,81.0,12,60,10.0,0.0
251,69.0,48,192,11.0,0.0
252,79.0,24,60,10.0,0.0
253,78.0,12,60,10.0,0.0
254,79.0,192,60,10.0,0.0
255,38.0,120,192,14.0,0.0
256,78.0,48,384,0.0,0.0
257,74.0,72,312,0.0,0.0
258,74.0,0,384,11.0,0.0
259,50.0,0,192,13.0,0.0
260,78.0,0,384,10.0,0.0
261,62.0,0,192,12.0,0.0
262,38.0,0,192,14.0,0.0
263,50.0,0,192,13.0,0.0
264,62.0,240,192,12.0,0.0
265,81.0,24,288,10.0,0.0
266,50.0,0,192,13.0,0.0
267,78.0,0,288,11.0,0.0
268,62.0,96,192,12.0,0.0
269,78.0,120,312,0.0,0.0
270,74.0,0,312,2.0,0.0
271,62.0,0,312,2.0,0.0
272,81.0,0,192,0.0,0.0
273,38.0,0,192,14.0,0.0
274,38.0,0,192,14.0,0.0
275,62.0,24,192,12.0,0.0
276,50.0,0,192,13.0,0.0
277,74.0,216,96,11.0,0.0
278,78.0,0,96,10.0,0.0
279,83.0,0,192,10.0,0.0
280,62.0,0,192,12.0,0.0
281,50.0,0,192,13.0,0.0
282,38.0,240,192,14.0,0.0
283,79.0,0,192,11.0,0.0
284,79.0,192,960,0.0,0.0
285,62.0,0,1344,2.0,0.0
286,83.0,0,192,0.0,0.0
287,74.0,0,1344,2.0,0.0
288,50.0,0,192,13.0,0.0
289,62.0,0,192,12.0,0.0
290,38.0,240,192,14.0,0.0
291,76.0,0,192,11.0,0.0
292,85.0,0,192,10.0,0.0
293,85.0,0,192,0.0,0.0
294,62.0,240,192,12.0,0.0
295,50.0,0,192,13.0,0.0
296,81.0,0,192,11.0,0.0
297,38.0,0,192,14.0,0.0
298,38.0,0,192,14.0,0.0
299,79.0,0,192,11.0,0.0
300,50.0,0,192,13.0,0.0
301,62.0,48,192,12.0,0.0
302,38.0,0,384,14.0,0.0
303,62.0,384,384,12.0,0.0
304,86.0,0,192,0.0,0.0
305,78.0,0,192,11.0,0.0
306,86.0,0,192,10.0,0.0
307,50.0,0,384,13.0,0.0
308,78.0,192,192,0.0,0.0
309,38.0,0,384,14.0,0.0
310,50.0,0,384,13.0,0.0
311,62.0,72,384,12.0,0.0
312,78.0,72,312,0.0,0.0
313,69.0,0,312,0.0,0.0
314,69.0,0,288,11.0,0.0
315,78.0,24,288,10.0,0.0
316,66.0,0,96,11.0,0.0
317,74.0,216,96,10.0,0.0
318,79.0,192,960,0.0,0.0
319,71.0,120,192,11.0,0.0
320,62.0,0,384,12.0,0.0
321,79.0,0,384,10.0,0.0
322,38.0,0,384,14.0,0.0
323,71.0,72,312,0.0,0.0
324,50.0,48,384,13.0,0.0
325,67.0,108,192,11.0,0.0
326,50.0,0,384,13.0,0.0
327,38.0,0,384,14.0,0.0
328,73.0,48,312,0.0,0.0
329,62.0,36,384,12.0,0.0
330,73.0,48,192,11.0,0.0
331,81.0,60,60,10.0,0.0
332,79.0,60,60,10.0,0.0
333,81.0,12,60,10.0,0.0
334,79.0,60,60,10.0,0.0
335,81.0,12,60,10.0,0.0
336,69.0,48,192,11.0,0.0
337,79.0,24,60,10.0,0.0
338,78.0,12,60,10.0,0.0
339,79.0,0,60,10.0,0.0
340,78.0,0,384,10.0,0.0
341,74.0,48,384,11.0,0.0
342,78.0,0,384,0.0,0.0
343,50.0,120,192,13.0,0.0
344,74.0,72,312,0.0,0.0
345,38.0,0,192,14.0,0.0
346,62.0,0,192,12.0,0.0
347,38.0,0,192,14.0,0.0
348,50.0,240,192,13.0,0.0
349,62.0,0,192,12.0,0.0
350,38.0,96,192,14.0,0.0
351,78.0,0,312,0.0,0.0
352,78.0,0,288,11.0,0.0
353,81.0,0,192,0.0,0.0
354,62.0,0,192,12.0,0.0
355,50.0,0,192,13.0,0.0
356,81.0,24,288,10.0,0.0
357,62.0,0,312,2.0,0.0
358,74.0,120,312,2.0,0.0
359,50.0,0,192,13.0,0.0
360,62.0,24,192,12.0,0.0
361,38.0,0,192,14.0,0.0
362,78.0,216,96,10.0,0.0
363,74.0,0,96,11.0,0.0
364,79.0,0,192,11.0,0.0
365,83.0,0,192,0.0,0.0
366,83.0,0,192,10.0,0.0
367,79.0,312,960,0.0,0.0
368,62.0,0,192,12.0,0.0
369,62.0,0,1272,2.0,0.0
370,74.0,0,1272,2.0,0.0
371,50.0,0,192,13.0,0.0
372,38.0,240,192,14.0,0.0
373,62.0,240,192,12.0,0.0
374,50.0,0,192,13.0,0.0
375,38.0,0,192,14.0,0.0
376,76.0,0,192,11.0,0.0
377,38.0,0,192,14.0,0.0
378,50.0,0,192,13.0,0.0
379,85.0,240,192,0.0,0.0
380,81.0,0,192,11.0,0.0
381,85.0,0,192,10.0,0.0
382,62.0,0,192,12.0,0.0
383,62.0,48,192,12.0,0.0
384,50.0,0,192,13.0,0.0
385,79.0,0,192,11.0,0.0
386,38.0,0,192,14.0,0.0
387,86.0,0,312,0.0,0.0
388,78.0,0,312,11.0,0.0
389,38.0,402,312,14.0,0.0
390,86.0,0,312,10.0,0.0
391,50.0,0,312,13.0,0.0
392,62.0,0,312,12.0,0.0
393,78.0,0,312,0.0,0.0
394,86.0,0,234,0.0,0.0
395,74.0,0,234,11.0,0.0
396,62.0,78,234,12.0,0.0
397,74.0,0,234,10.0,0.0
398,50.0,126,312,14.0,0.0
399,62.0,0,312,13.0,0.0
400,62.0,0,78,12.0,0.0
401,74.0,354,78,11.0,0.0
402,86.0,0,78,0.0,0.0
403,74.0,0,78,10.0,0.0
404,62.0,0,312,13.0,0.0
405,50.0,0,312,14.0,0.0
406,86.0,402,312,0.0,0.0
407,62.0,0,312,12.0,0.0
408,74.0,0,312,10.0,0.0
409,74.0,0,312,11.0,0.0
410,59.0,126,312,13.0,0.0
411,59.0,0,234,12.0,0.0
412,71.0,0,234,11.0,0.0
413,71.0,0,234,10.0,0.0
414,83.0,78,234,0.0,0.0
415,47.0,0,312,14.0,0.0
416,71.0,0,78,11.0,0.0
417,59.0,354,78,12.0,0.0
418,71.0,0,78,10.0,0.0
419,83.0,0,78,0.0,0.0
420,71.0,0,312,10.0,0.0
421,83.0,402,312,0.0,0.0
422,47.0,0,312,14.0,0.0
423,59.0,0,312,13.0,0.0
424,59.0,0,312,12.0,0.0
425,71.0,0,312,11.0,0.0
426,80.0,0,234,0.0,0.0
427,68.0,78,234,11.0,0.0
428,68.0,0,234,10.0,0.0
429,56.0,126,312,13.0,0.0
430,56.0,0,234,12.0,0.0
431,44.0,0,312,14.0,0.0
432,68.0,0,78,11.0,0.0
433,68.0,0,78,10.0,0.0
434,80.0,354,78,0.0,0.0
435,56.0,0,78,12.0,0.0
436,56.0,0,312,13.0,0.0
437,44.0,0,312,14.0,0.0
438,80.0,0,312,0.0,0.0
439,68.0,0,312,10.0,0.0
440,56.0,402,312,12.0,0.0
441,68.0,0,312,11.0,0.0
442,74.0,0,234,0.0,0.0
443,62.0,0,234,11.0,0.0
444,62.0,78,234,10.0,0.0
445,38.0,0,312,14.0,0.0
446,50.0,0,234,12.0,0.0
447,50.0,126,312,13.0,0.0
448,50.0,0,78,12.0,0.0
449,74.0,0,78,0.0,0.0
450,62.0,0,78,11.0,0.0
451,62.0,354,78,10.0,0.0
452,38.0,402,312,14.0,0.0
453,50.0,0,312,12.0,0.0
454,74.0,0,312,0.0,0.0
455,62.0,0,312,11.0,0.0
456,50.0,0,312,13.0,0.0
457,62.0,0,312,10.0,0.0
458,62.0,0,312,1.0,0.0
459,74.0,0,312,2.0,0.0
460,59.0,78,234,11.0,0.0
461,71.0,0,234,0.0,0.0
462,35.0,0,312,14.0,0.0
463,59.0,0,234,12.0,0.0
464,59.0,0,234,10.0,0.0
465,47.0,126,312,13.0,0.0
466,59.0,0,78,12.0,0.0
467,59.0,354,78,11.0,0.0
468,71.0,0,78,0.0,0.0
469,59.0,0,78,10.0,0.0
470,71.0,0,312,0.0,0.0
471,74.0,0,912,2.0,0.0
472,47.0,0,312,13.0,0.0
473,59.0,0,312,12.0,0.0
474,35.0,0,312,14.0,0.0
475,59.0,402,312,10.0,0.0
476,59.0,0,312,11.0,0.0
477,62.0,6,912,1.0,0.0
478,32.0,120,312,14.0,0.0
479,68.0,0,234,0.0,0.0
480,44.0,0,312,13.0,0.0
481,56.0,0,234,11.0,0.0
482,56.0,0,234,10.0,0.0
483,56.0,78,234,12.0,0.0
484,56.0,0,78,11.0,0.0
485,56.0,198,78,12.0,0.0
486,68.0,0,78,0.0,0.0
487,56.0,0,78,10.0,0.0
488,50.0,0,912,1.0,0.0
489,32.0,240,156,14.0,0.0
490,56.0,0,156,12.0,0.0
491,68.0,0,156,0.0,0.0
492,56.0,0,156,11.0,0.0
493,44.0,0,156,13.0,0.0
494,56.0,0,156,10.0,0.0
495,62.0,360,912,2.0,0.0
496,38.0,0,156,14.0,0.0
497,50.0,0,156,13.0,0.0
498,74.0,0,156,0.0,0.0
499,62.0,240,156,11.0,0.0
500,62.0,0,156,12.0,0.0
501,62.0,0,156,10.0,0.0
502,59.0,0,156,10.0,0.0
503,47.0,0,156,13.0,0.0
504,35.0,0,156,14.0,0.0
505,71.0,0,156,0.0,0.0
506,59.0,0,156,11.0,0.0
507,59.0,240,156,12.0,0.0
508,44.0,0,156,13.0,0.0
509,56.0,0,156,12.0,0.0
510,32.0,0,156,14.0,0.0
511,56.0,36,156,11.0,0.0
512,68.0,0,156,0.0,0.0
513,56.0,0,156,10.0,0.0
514,69.0,0,312,0.0,0.0
515,45.0,0,312,13.0,0.0
516,69.0,0,312,2.0,0.0
517,33.0,480,312,14.0,0.0
518,57.0,0,312,11.0,0.0
519,57.0,0,312,12.0,0.0
520,57.0,0,312,1.0,0.0
521,57.0,0,312,10.0,0.0
522,73.0,0,312,0.0,0.0
523,81.0,0,312,10.0,0.0
524,69.0,0,312,2.0,0.0
525,64.0,0,312,10.0,0.0
526,69.0,0,312,12.0,0.0
527,57.0,0,312,13.0,0.0
528,81.0,0,312,11.0,0.0
529,73.0,0,312,11.0,0.0
530,64.0,552,312,1.0,0.0
531,57.0,0,312,1.0,0.0
532,45.0,0,312,14.0,0.0
533,64.0,0,312,11.0,0.0
534,73.0,0,312,10.0,0.0
535,81.0,0,312,0.0,0.0
536,73.0,0,384,11.0,0.0
537,81.0,0,384,10.0,0.0
538,73.0,0,384,10.0,0.0
539,64.0,0,384,10.0,0.0
540,64.0,0,384,1.0,0.0
541,57.0,0,384,1.0,0.0
542,57.0,0,384,12.0,0.0
543,81.0,0,384,11.0,0.0
544,33.0,0,384,14.0,0.0
545,64.0,1296,384,11.0,0.0
546,45.0,0,384,13.0,0.0
547,69.0,0,384,2.0,0.0
548,81.0,0,384,0.0,0.0
549,73.0,0,384,0.0,0.0
550,61.0,144,720,11.0,0.0
551,73.0,0,720,10.0,0.0
552,33.0,84,384,14.0,0.0
553,45.0,0,384,13.0,0.0
554,52.0,0,384,12.0,0.0
555,74.0,0,228,10.0,0.0
556,62.0,252,228,11.0,0.0
557,75.0,0,240,10.0,0.0
558,63.0,240,240,11.0,0.0
559,76.0,0,240,10.0,0.0
560,64.0,240,240,11.0,0.0
561,57.0,0,384,12.0,0.0
562,63.0,0,240,11.0,0.0
563,49.0,84,384,13.0,0.0
564,37.0,0,384,14.0,0.0
565,75.0,144,240,10.0,0.0
566,64.0,732,228,11.0,0.0
567,76.0,0,228,10.0,0.0
568,59.0,144,720,11.0,0.0
569,71.0,0,720,10.0,0.0
570,56.0,0,384,12.0,0.0
571,40.0,0,384,14.0,0.0
572,52.0,84,384,13.0,0.0
573,72.0,252,228,10.0,0.0
574,60.0,0,228,11.0,0.0
575,61.0,240,240,11.0,0.0
576,73.0,0,240,10.0,0.0
577,74.0,0,240,10.0,0.0
578,62.0,240,240,11.0,0.0
579,44.0,0,384,14.0,0.0
580,61.0,0,240,11.0,0.0
581,73.0,144,240,10.0,0.0
582,59.0,84,384,12.0,0.0
583,56.0,0,384,13.0,0.0
584,62.0,0,228,11.0,0.0
585,74.0,732,228,10.0,0.0
586,69.0,0,720,10.0,0.0
587,57.0,144,720,11.0,0.0
588,37.0,0,384,14.0,0.0
589,49.0,84,384,13.0,0.0
590,52.0,0,384,12.0,0.0
591,71.0,252,228,10.0,0.0
592,59.0,0,228,11.0,0.0
593,72.0,0,240,10.0,0.0
594,60.0,240,240,11.0,0.0
595,73.0,0,240,10.0,0.0
596,61.0,240,240,11.0,0.0
597,60.0,144,240,11.0,0.0
598,45.0,0,384,13.0,0.0
599,52.0,0,384,12.0,0.0
600,33.0,84,384,14.0,0.0
601,72.0,0,240,10.0,0.0
602,73.0,132,228,10.0,0.0
603,61.0,0,228,11.0,0.0
604,61.0,0,120,11.0,0.0
605,73.0,288,120,10.0,0.0
606,59.0,360,288,11.0,0.0
607,71.0,0,288,10.0,0.0
608,52.0,72,384,13.0,0.0
609,68.0,0,288,10.0,0.0
610,56.0,96,288,11.0,0.0
611,59.0,0,384,12.0,0.0
612,40.0,0,384,14.0,0.0
613,69.0,216,96,10.0,0.0
614,57.0,0,96,11.0,0.0
615,71.0,0,192,10.0,0.0
616,59.0,480,192,11.0,0.0
617,56.0,0,192,11.0,0.0
618,59.0,0,384,12.0,0.0
619,28.0,0,384,14.0,0.0
620,64.0,192,192,10.0,0.0
621,40.0,480,384,13.0,0.0
622,76.0,0,384,0.0,0.0
623,73.0,336,384,0.0,0.0
624,61.0,144,720,11.0,0.0
625,64.0,0,384,1.0,0.0
626,57.0,0,384,1.0,0.0
627,73.0,0,720,10.0,0.0
628,45.0,0,384,13.0,0.0
629,33.0,84,384,14.0,0.0
630,52.0,0,384,12.0,0.0
631,74.0,0,228,10.0,0.0
632,62.0,252,228,11.0,0.0
633,64.0,0,384,1.0,0.0
634,63.0,0,240,11.0,0.0
635,57.0,96,384,1.0,0.0
636,81.0,0,384,0.0,0.0
637,73.0,0,384,0.0,0.0
638,75.0,144,240,10.0,0.0
639,76.0,0,240,10.0,0.0
640,64.0,240,240,11.0,0.0
641,63.0,0,240,11.0,0.0
642,49.0,0,384,13.0,0.0
643,37.0,84,384,14.0,0.0
644,75.0,144,240,10.0,0.0
645,57.0,0,384,12.0,0.0
646,64.0,0,228,11.0,0.0
647,76.0,396,228,10.0,0.0
648,74.0,0,384,0.0,0.0
649,64.0,336,384,1.0,0.0
650,71.0,0,720,10.0,0.0
651,80.0,0,384,0.0,0.0
652,59.0,144,720,11.0,0.0
653,56.0,0,384,12.0,0.0
654,40.0,0,384,14.0,0.0
655,52.0,84,384,13.0,0.0
656,72.0,0,228,10.0,0.0
657,60.0,252,228,11.0,0.0
658,61.0,0,240,11.0,0.0
659,68.0,96,384,0.0,0.0
660,73.0,144,240,10.0,0.0
661,64.0,0,384,1.0,0.0
662,71.0,0,384,0.0,0.0
663,62.0,0,240,11.0,0.0
664,74.0,240,240,10.0,0.0
665,61.0,144,240,11.0,0.0
666,44.0,0,384,14.0,0.0
667,59.0,84,384,12.0,0.0
668,56.0,0,384,13.0,0.0
669,73.0,0,240,10.0,0.0
670,62.0,0,228,11.0,0.0
671,74.0,396,228,10.0,0.0
672,69.0,0,720,10.0,0.0
673,73.0,0,384,0.0,0.0
674,57.0,144,720,11.0,0.0
675,69.0,0,384,0.0,0.0
676,57.0,336,384,1.0,0.0
677,64.0,0,384,1.0,0.0
678,52.0,84,384,12.0,0.0
679,37.0,0,384,14.0,0.0
680,49.0,0,384,13.0,0.0
681,59.0,252,228,11.0,0.0
682,71.0,0,228,10.0,0.0
683,81.0,0,384,0.0,0.0
684,72.0,0,240,10.0,0.0
685,69.0,96,384,0.0,0.0
686,60.0,144,240,11.0,0.0
687,57.0,0,384,1.0,0.0
688,64.0,0,384,1.0,0.0
689,73.0,0,240,10.0,0.0
690,61.0,240,240,11.0,0.0
691,45.0,0,384,13.0,0.0
692,72.0,144,240,10.0,0.0
693,52.0,84,384,12.0,0.0
694,33.0,0,384,14.0,0.0
695,60.0,0,240,11.0,0.0
696,73.0,396,228,10.0,0.0
697,61.0,0,228,11.0,0.0
698,62.0,0,384,1.0,0.0
699,66.0,96,384,1.0,0.0
700,78.0,192,480,10.0,0.0
701,81.0,0,384,0.0,0.0
702,71.0,0,384,0.0,0.0
703,71.0,192,192,10.0,0.0
704,38.0,0,384,14.0,0.0
705,66.0,480,384,12.0,0.0
706,50.0,0,384,13.0,0.0
707,57.0,0,384,12.0,0.0
708,71.0,0,384,0.0,0.0
709,71.0,192,480,11.0,0.0
710,64.0,96,384,1.0,0.0
711,80.0,0,384,0.0,0.0
712,56.0,0,384,12.0,0.0
713,52.0,480,384,13.0,0.0
714,64.0,192,192,11.0,0.0
715,40.0,0,384,14.0,0.0
716,57.0,0,384,1.0,0.0
717,76.0,192,480,10.0,0.0
718,81.0,96,384,0.0,0.0
719,76.0,0,384,0.0,0.0
720,64.0,0,384,1.0,0.0
721,69.0,192,192,10.0,0.0
722,64.0,0,384,12.0,0.0
723,37.0,0,384,14.0,0.0
724,49.0,480,384,13.0,0.0
725,73.0,96,384,0.0,0.0
726,81.0,0,384,0.0,0.0
727,54.0,0,384,1.0,0.0
728,66.0,0,384,1.0,0.0
729,73.0,192,480,11.0,0.0
730,54.0,0,384,13.0,0.0
731,57.0,480,384,12.0,0.0
732,42.0,0,384,14.0,0.0
733,66.0,192,192,11.0,0.0
734,62.0,0,384,1.0,0.0
735,66.0,96,384,1.0,0.0
736,71.0,0,384,0.0,0.0
737,78.0,192,480,10.0,0.0
738,81.0,0,384,0.0,0.0
739,57.0,0,384,12.0,0.0
740,66.0,0,384,12.0,0.0
741,38.0,480,384,14.0,0.0
742,71.0,192,192,10.0,0.0
743,50.0,0,384,13.0,0.0
744,71.0,192,480,11.0,0.0
745,64.0,0,384,1.0,0.0
746,80.0,96,384,0.0,0.0
747,71.0,0,384,0.0,0.0
748,64.0,192,192,11.0,0.0
749,52.0,0,384,13.0,0.0
750,56.0,0,384,12.0,0.0
751,40.0,336,384,14.0,0.0
752,45.0,0,312,13.0,0.0
753,57.0,72,312,12.0,0.0
754,69.0,6,1872,0.0,0.0
755,57.0,48,9408,2.0,0.0
756,61.0,0,312,11.0,0.0
757,33.0,0,312,14.0,0.0
758,69.0,0,9408,2.0,0.0
759,57.0,0,9408,1.0,0.0
760,45.0,0,9408,1.0,0.0
761,64.0,0,312,11.0,0.0
762,69.0,72,240,10.0,0.0
763,81.0,0,1872,0.0,0.0
764,73.0,240,144,10.0,0.0
765,57.0,72,312,13.0,0.0
766,61.0,0,234,11.0,0.0
767,69.0,90,144,10.0,0.0
768,45.0,0,312,14.0,0.0
769,64.0,0,234,11.0,0.0
770,57.0,78,234,12.0,0.0
771,69.0,54,144,10.0,0.0
772,57.0,0,78,12.0,0.0
773,64.0,0,78,11.0,0.0
774,61.0,282,78,11.0,0.0
775,57.0,0,312,12.0,0.0
776,45.0,72,312,13.0,0.0
777,61.0,0,312,11.0,0.0
778,64.0,0,312,11.0,0.0
779,69.0,72,240,10.0,0.0
780,33.0,0,312,14.0,0.0
781,73.0,240,144,10.0,0.0
782,69.0,90,144,10.0,0.0
783,45.0,72,312,14.0,0.0
784,61.0,78,234,11.0,0.0
785,64.0,0,234,11.0,0.0
786,57.0,0,234,12.0,0.0
787,57.0,0,312,13.0,0.0
788,69.0,48,144,10.0,0.0
789,61.0,0,78,11.0,0.0
790,57.0,0,78,12.0,0.0
791,64.0,282,78,11.0,0.0
792,62.0,0,312,12.0,0.0
793,33.0,72,312,14.0,0.0
794,80.0,0,1872,0.0,0.0
795,71.0,6,1872,0.0,0.0
796,71.0,72,240,10.0,0.0
797,45.0,0,312,13.0,0.0
798,68.0,0,312,11.0,0.0
799,74.0,240,144,10.0,0.0
800,57.0,72,312,13.0,0.0
801,62.0,0,234,12.0,0.0
802,68.0,78,234,11.0,0.0
803,45.0,0,312,14.0,0.0
804,71.0,90,144,10.0,0.0
805,71.0,54,144,10.0,0.0
806,68.0,282,78,11.0,0.0
807,62.0,0,78,12.0,0.0
808,45.0,72,312,13.0,0.0
809,71.0,72,240,10.0,0.0
810,62.0,0,312,12.0,0.0
811,68.0,0,312,11.0,0.0
812,33.0,0,312,14.0,0.0
813,74.0,240,144,10.0,0.0
814,68.0,0,234,11.0,0.0
815,57.0,72,312,13.0,0.0
816,45.0,0,312,14.0,0.0
817,62.0,78,234,12.0,0.0
818,71.0,90,144,10.0,0.0
819,71.0,48,144,10.0,0.0
820,62.0,282,78,12.0,0.0
821,68.0,0,78,11.0,0.0
822,73.0,72,240,10.0,0.0
823,73.0,0,1872,0.0,0.0
824,33.0,0,312,14.0,0.0
825,67.0,0,312,11.0,0.0
826,64.0,0,312,12.0,0.0
827,79.0,6,1872,0.0,0.0
828,45.0,72,312,13.0,0.0
829,76.0,240,144,10.0,0.0
830,45.0,0,312,14.0,0.0
831,64.0,0,234,12.0,0.0
832,67.0,78,234,11.0,0.0
833,57.0,72,312,13.0,0.0
834,73.0,90,144,10.0,0.0
835,73.0,54,144,10.0,0.0
836,64.0,0,78,12.0,0.0
837,67.0,282,78,11.0,0.0
838,73.0,72,240,10.0,0.0
839,33.0,0,312,14.0,0.0
840,45.0,0,312,13.0,0.0
841,67.0,72,312,11.0,0.0
842,64.0,0,312,12.0,0.0
843,76.0,240,144,10.0,0.0
844,67.0,0,234,11.0,0.0
845,45.0,72,312,14.0,0.0
846,64.0,78,234,12.0,0.0
847,57.0,0,312,13.0,0.0
848,73.0,90,144,10.0,0.0
849,73.0,48,144,10.0,0.0
850,67.0,138,78,11.0,0.0
851,64.0,0,78,12.0,0.0
852,45.0,24,192,14.0,0.0
853,74.0,0,912,0.0,0.0
854,66.0,0,96,11.0,0.0
855,57.0,0,192,13.0,0.0
856,74.0,96,96,10.0,0.0
857,78.0,24,912,0.0,0.0
858,57.0,0,96,12.0,0.0
859,74.0,0,96,10.0,0.0
860,57.0,120,96,12.0,0.0
861,66.0,0,96,11.0,0.0
862,66.0,0,96,11.0,0.0
863,57.0,0,96,12.0,0.0
864,57.0,24,192,13.0,0.0
865,74.0,96,96,10.0,0.0
866,45.0,0,192,14.0,0.0
867,57.0,120,96,12.0,0.0
868,74.0,0,96,10.0,0.0
869,66.0,0,96,11.0,0.0
870,74.0,0,96,10.0,0.0
871,66.0,0,96,11.0,0.0
872,45.0,0,192,14.0,0.0
873,57.0,96,96,12.0,0.0
874,57.0,24,192,13.0,0.0
875,74.0,0,96,10.0,0.0
876,57.0,0,96,12.0,0.0
877,66.0,120,96,11.0,0.0
878,57.0,0,192,13.0,0.0
879,45.0,0,192,14.0,0.0
880,66.0,96,96,11.0,0.0
881,57.0,0,96,12.0,0.0
882,74.0,0,96,10.0,0.0
883,57.0,0,96,12.0,0.0
884,74.0,0,96,10.0,0.0
885,66.0,120,96,11.0,0.0
886,73.0,24,912,0.0,0.0
887,57.0,24,192,13.0,0.0
888,76.0,0,96,10.0,0.0
889,45.0,0,192,14.0,0.0
890,76.0,0,912,0.0,0.0
891,73.0,0,96,11.0,0.0
892,69.0,96,96,12.0,0.0
893,73.0,0,96,11.0,0.0
894,69.0,120,96,12.0,0.0
895,76.0,0,96,10.0,0.0
896,69.0,0,96,12.0,0.0
897,73.0,96,96,11.0,0.0
898,45.0,0,192,14.0,0.0
899,76.0,0,96,10.0,0.0
900,57.0,24,192,13.0,0.0
901,69.0,120,96,12.0,0.0
902,76.0,0,96,10.0,0.0
903,73.0,0,96,11.0,0.0
904,73.0,96,96,11.0,0.0
905,76.0,0,96,10.0,0.0
906,57.0,24,192,13.0,0.0
907,69.0,0,96,12.0,0.0
908,45.0,0,192,14.0,0.0
909,76.0,0,96,10.0,0.0
910,69.0,0,96,12.0,0.0
911,73.0,120,96,11.0,0.0
912,69.0,96,96,12.0,0.0
913,57.0,0,192,13.0,0.0
914,76.0,0,96,10.0,0.0
915,73.0,0,96,11.0,0.0
916,45.0,0,192,14.0,0.0
917,69.0,0,96,12.0,0.0
918,73.0,0,96,11.0,0.0
919,76.0,120,96,10.0,0.0
920,45.0,24,192,14.0,0.0
921,57.0,0,192,13.0,0.0
922,69.0,96,96,12.0,0.0
923,78.0,0,912,0.0,0.0
924,74.0,0,912,0.0,0.0
925,74.0,0,96,11.0,0.0
926,78.0,0,96,10.0,0.0
927,78.0,120,96,10.0,0.0
928,74.0,0,96,11.0,0.0
929,69.0,0,96,12.0,0.0
930,45.0,0,192,14.0,0.0
931,78.0,0,96,10.0,0.0
932,57.0,24,192,13.0,0.0
933,74.0,96,96,11.0,0.0
934,69.0,0,96,12.0,0.0
935,69.0,0,96,12.0,0.0
936,78.0,0,96,10.0,0.0
937,74.0,120,96,11.0,0.0
938,57.0,24,192,13.0,0.0
939,78.0,0,96,10.0,0.0
940,74.0,0,96,11.0,0.0
941,69.0,96,96,12.0,0.0
942,45.0,0,192,14.0,0.0
943,69.0,0,96,12.0,0.0
944,74.0,120,96,11.0,0.0
945,78.0,0,96,10.0,0.0
946,78.0,0,96,10.0,0.0
947,57.0,0,192,13.0,0.0
948,74.0,96,96,11.0,0.0
949,69.0,0,96,12.0,0.0
950,45.0,24,192,14.0,0.0
951,69.0,120,96,12.0,0.0
952,78.0,0,96,10.0,0.0
953,74.0,0,96,11.0,0.0
954,80.0,0,96,10.0,0.0
955,71.0,0,912,0.0,0.0
956,80.0,0,912,0.0,0.0
957,57.0,24,192,13.0,0.0
958,62.0,96,96,12.0,0.0
959,71.0,0,96,11.0,0.0
960,45.0,0,192,14.0,0.0
961,80.0,0,96,10.0,0.0
962,71.0,0,96,11.0,0.0
963,62.0,120,96,12.0,0.0
964,80.0,0,96,10.0,0.0
965,62.0,0,96,12.0,0.0
966,45.0,24,192,14.0,0.0
967,57.0,0,192,13.0,0.0
968,71.0,96,96,11.0,0.0
969,62.0,0,96,12.0,0.0
970,71.0,0,96,11.0,0.0
971,80.0,120,96,10.0,0.0
972,71.0,96,96,11.0,0.0
973,45.0,24,192,14.0,0.0
974,80.0,0,96,10.0,0.0
975,57.0,0,192,13.0,0.0
976,62.0,0,96,12.0,0.0
977,80.0,0,96,10.0,0.0
978,62.0,0,96,12.0,0.0
979,71.0,72,96,11.0,0.0
980,57.0,24,192,13.0,0.0
981,80.0,96,96,10.0,0.0
982,62.0,0,96,12.0,0.0
983,45.0,0,192,14.0,0.0
984,71.0,0,96,11.0,0.0
985,62.0,0,96,12.0,0.0
986,80.0,120,96,10.0,0.0
987,71.0,0,96,11.0,0.0
988,81.0,6,4752,0.0,0.0
989,45.0,0,312,13.0,0.0
990,73.0,6,3792,0.0,0.0
991,33.0,0,312,14.0,0.0
992,64.0,24,312,12.0,0.0
993,64.0,6,1872,1.0,0.0
994,73.0,0,96,11.0,0.0
995,57.0,0,4752,1.0,0.0
996,81.0,120,96,10.0,0.0
997,81.0,0,96,10.0,0.0
998,73.0,96,96,11.0,0.0
999,81.0,0,96,10.0,0.0
1000,73.0,120,96,11.0,0.0
1001,73.0,0,96,11.0,0.0
1002,81.0,120,96,10.0,0.0
1003,73.0,120,96,11.0,0.0
1004,69.0,0,234,2.0,0.0
1005,69.0,0,234,12.0,0.0
1006,45.0,0,234,14.0,0.0
1007,81.0,0,96,10.0,0.0
1008,57.0,102,234,13.0,0.0
1009,81.0,18,96,10.0,0.0
1010,73.0,0,96,11.0,0.0
1011,81.0,102,96,10.0,0.0
1012,73.0,0,96,11.0,0.0
1013,81.0,0,96,10.0,0.0
1014,45.0,0,78,14.0,0.0
1015,69.0,18,78,12.0,0.0
1016,73.0,120,96,11.0,0.0
1017,57.0,0,78,13.0,0.0
1018,69.0,0,78,2.0,0.0
1019,81.0,120,96,10.0,0.0
1020,57.0,0,312,13.0,0.0
1021,69.0,72,384,2.0,0.0
1022,45.0,0,312,14.0,0.0
1023,69.0,24,312,12.0,0.0
1024,73.0,0,96,11.0,0.0
1025,73.0,0,96,11.0,0.0
1026,81.0,96,96,10.0,0.0
1027,73.0,0,96,11.0,0.0
1028,81.0,48,96,10.0,0.0
1029,73.0,120,96,11.0,0.0
1030,81.0,0,96,10.0,0.0
1031,49.0,0,234,14.0,0.0
1032,61.0,102,234,13.0,0.0
1033,73.0,0,234,12.0,0.0
1034,73.0,0,96,11.0,0.0
1035,81.0,120,96,10.0,0.0
1036,81.0,18,96,10.0,0.0
1037,73.0,0,96,11.0,0.0
1038,73.0,0,96,11.0,0.0
1039,81.0,96,96,10.0,0.0
1040,81.0,120,96,10.0,0.0
1041,73.0,0,96,11.0,0.0
1042,41.0,0,78,14.0,0.0
1043,65.0,0,78,12.0,0.0
1044,53.0,18,78,13.0,0.0
1045,81.0,0,96,10.0,0.0
1046,42.0,0,312,14.0,0.0
1047,54.0,0,312,13.0,0.0
1048,66.0,24,312,12.0,0.0
1049,73.0,120,96,11.0,0.0
1050,66.0,0,2832,1.0,0.0
1051,81.0,0,96,10.0,0.0
1052,73.0,96,96,11.0,0.0
1053,81.0,120,96,10.0,0.0
1054,73.0,0,96,11.0,0.0
1055,73.0,0,96,11.0,0.0
1056,81.0,120,96,10.0,0.0
1057,81.0,120,96,10.0,0.0
1058,42.0,0,234,14.0,0.0
1059,69.0,102,234,2.0,0.0
1060,54.0,0,234,13.0,0.0
1061,66.0,0,234,12.0,0.0
1062,73.0,0,96,11.0,0.0
1063,73.0,0,96,11.0,0.0
1064,81.0,18,96,10.0,0.0
1065,81.0,0,96,10.0,0.0
1066,73.0,102,96,11.0,0.0
1067,69.0,0,78,2.0,0.0
1068,81.0,0,96,10.0,0.0
1069,54.0,18,78,13.0,0.0
1070,66.0,0,78,12.0,0.0
1071,42.0,0,78,14.0,0.0
1072,73.0,120,96,11.0,0.0
1073,81.0,120,96,10.0,0.0
1074,69.0,72,384,2.0,0.0
1075,42.0,24,312,14.0,0.0
1076,66.0,0,312,12.0,0.0
1077,73.0,0,96,11.0,0.0
1078,54.0,0,312,13.0,0.0
1079,73.0,0,96,11.0,0.0
1080,81.0,96,96,10.0,0.0
1081,73.0,48,96,11.0,0.0
1082,81.0,0,96,10.0,0.0
1083,81.0,0,96,10.0,0.0
1084,73.0,120,96,11.0,0.0
1085,45.0,0,234,14.0,0.0
1086,57.0,102,234,13.0,0.0
1087,69.0,0,234,12.0,0.0
1088,81.0,0,96,10.0,0.0
1089,73.0,120,96,11.0,0.0
1090,81.0,18,96,10.0,0.0
1091,73.0,0,96,11.0,0.0
1092,73.0,0,96,11.0,0.0
1093,81.0,96,96,10.0,0.0
1094,73.0,0,96,11.0,0.0
1095,81.0,120,96,10.0,0.0
1096,61.0,0,78,12.0,0.0
1097,37.0,0,78,14.0,0.0
1098,49.0,18,78,13.0,0.0
1099,81.0,0,96,10.0,0.0
1100,78.0,0,912,2.0,0.0
1101,62.0,0,312,12.0,0.0
1102,74.0,0,912,2.0,0.0
1103,71.0,120,96,11.0,0.0
1104,50.0,24,312,13.0,0.0
1105,38.0,0,312,14.0,0.0
1106,71.0,6,1872,0.0,0.0
1107,71.0,0,96,11.0,0.0
1108,81.0,96,96,10.0,0.0
1109,71.0,120,96,11.0,0.0
1110,81.0,0,96,10.0,0.0
1111,71.0,120,96,11.0,0.0
1112,81.0,0,96,10.0,0.0
1113,81.0,0,96,10.0,0.0
1114,54.0,0,234,13.0,0.0
1115,42.0,0,234,14.0,0.0
1116,66.0,102,234,12.0,0.0
1117,71.0,120,96,11.0,0.0
1118,81.0,0,96,10.0,0.0
1119,71.0,18,96,11.0,0.0
1120,81.0,96,96,10.0,0.0
1121,71.0,0,96,11.0,0.0
1122,62.0,18,78,12.0,0.0
1123,71.0,0,96,11.0,0.0
1124,50.0,0,78,13.0,0.0
1125,38.0,0,78,14.0,0.0
1126,81.0,120,96,10.0,0.0
1127,71.0,120,96,11.0,0.0
1128,40.0,24,312,14.0,0.0
1129,52.0,0,312,13.0,0.0
1130,64.0,0,312,12.0,0.0
1131,80.0,0,912,0.0,0.0
1132,64.0,0,912,1.0,0.0
1133,80.0,0,96,10.0,0.0
1134,76.0,0,912,2.0,0.0
1135,71.0,0,96,11.0,0.0
1136,80.0,96,96,10.0,0.0
1137,71.0,0,96,11.0,0.0
1138,80.0,120,96,10.0,0.0
1139,80.0,0,96,10.0,0.0
1140,71.0,120,96,11.0,0.0
1141,80.0,120,96,10.0,0.0
1142,68.0,102,234,12.0,0.0
1143,44.0,0,234,14.0,0.0
1144,71.0,0,96,11.0,0.0
1145,56.0,0,234,13.0,0.0
1146,80.0,0,96,10.0,0.0
1147,71.0,18,96,11.0,0.0
1148,71.0,0,96,11.0,0.0
1149,80.0,96,96,10.0,0.0
1150,52.0,0,78,13.0,0.0
1151,71.0,120,96,11.0,0.0
1152,40.0,18,78,14.0,0.0
1153,64.0,0,78,12.0,0.0
1154,80.0,0,96,10.0,0.0
1155,57.0,0,312,12.0,0.0
1156,81.0,0,96,11.0,0.0
1157,45.0,24,312,13.0,0.0
1158,57.0,0,4752,1.0,0.0
1159,85.0,6,3792,0.0,0.0
1160,81.0,0,4752,0.0,0.0
1161,33.0,0,312,14.0,0.0
1162,85.0,120,96,10.0,0.0
1163,64.0,6,1872,1.0,0.0
1164,81.0,96,96,11.0,0.0
1165,85.0,0,96,10.0,0.0
1166,85.0,0,96,10.0,0.0
1167,81.0,120,96,11.0,0.0
1168,85.0,120,96,10.0,0.0
1169,81.0,0,96,11.0,0.0
1170,85.0,120,96,10.0,0.0
1171,57.0,0,234,13.0,0.0
1172,81.0,0,96,11.0,0.0
1173,45.0,0,234,14.0,0.0
1174,69.0,102,234,2.0,0.0
1175,69.0,0,234,12.0,0.0
1176,81.0,0,96,11.0,0.0
1177,85.0,18,96,10.0,0.0
1178,81.0,102,96,11.0,0.0
1179,85.0,0,96,10.0,0.0
1180,45.0,0,78,14.0,0.0
1181,69.0,18,78,12.0,0.0
1182,81.0,0,96,11.0,0.0
1183,85.0,120,96,10.0,0.0
1184,69.0,0,78,2.0,0.0
1185,57.0,0,78,13.0,0.0
1186,57.0,0,312,13.0,0.0
1187,45.0,24,312,14.0,0.0
1188,69.0,72,384,2.0,0.0
1189,81.0,0,96,11.0,0.0
1190,85.0,120,96,10.0,0.0
1191,69.0,0,312,12.0,0.0
1192,81.0,0,96,11.0,0.0
1193,85.0,96,96,10.0,0.0
1194,81.0,48,96,11.0,0.0
1195,85.0,0,96,10.0,0.0
1196,85.0,0,96,10.0,0.0
1197,81.0,120,96,11.0,0.0
1198,73.0,0,234,12.0,0.0
1199,49.0,0,234,14.0,0.0
1200,61.0,102,234,13.0,0.0
1201,85.0,0,96,10.0,0.0
1202,81.0,120,96,11.0,0.0
1203,81.0,18,96,11.0,0.0
1204,85.0,0,96,10.0,0.0
1205,85.0,96,96,10.0,0.0
1206,81.0,0,96,11.0,0.0
1207,41.0,0,78,14.0,0.0
1208,65.0,0,78,12.0,0.0
1209,53.0,18,78,13.0,0.0
1210,85.0,0,96,10.0,0.0
1211,81.0,120,96,11.0,0.0
1212,42.0,24,312,14.0,0.0
1213,66.0,6,2832,1.0,0.0
1214,54.0,0,312,13.0,0.0
1215,66.0,0,312,12.0,0.0
1216,85.0,120,96,10.0,0.0
1217,81.0,0,96,11.0,0.0
1218,81.0,96,96,11.0,0.0
1219,85.0,0,96,10.0,0.0
1220,81.0,0,96,11.0,0.0
1221,85.0,120,96,10.0,0.0
1222,81.0,0,96,11.0,0.0
1223,85.0,120,96,10.0,0.0
1224,54.0,0,234,13.0,0.0
1225,42.0,0,234,14.0,0.0
1226,66.0,0,234,12.0,0.0
1227,85.0,120,96,10.0,0.0
1228,81.0,0,96,11.0,0.0
1229,69.0,102,234,2.0,0.0
1230,81.0,18,96,11.0,0.0
1231,85.0,0,96,10.0,0.0
1232,81.0,102,96,11.0,0.0
1233,85.0,0,96,10.0,0.0
1234,69.0,0,78,2.0,0.0
1235,85.0,120,96,10.0,0.0
1236,66.0,0,78,12.0,0.0
1237,42.0,18,78,14.0,0.0
1238,54.0,0,78,13.0,0.0
1239,81.0,0,96,11.0,0.0
1240,54.0,0,312,13.0,0.0
1241,66.0,0,312,12.0,0.0
1242,85.0,120,96,10.0,0.0
1243,42.0,24,312,14.0,0.0
1244,69.0,72,384,2.0,0.0
1245,81.0,0,96,11.0,0.0
1246,81.0,0,96,11.0,0.0
1247,85.0,96,96,10.0,0.0
1248,81.0,0,96,11.0,0.0
1249,85.0,48,96,10.0,0.0
1250,81.0,120,96,11.0,0.0
1251,85.0,0,96,10.0,0.0
1252,57.0,0,234,13.0,0.0
1253,69.0,0,234,12.0,0.0
1254,45.0,102,234,14.0,0.0
1255,81.0,0,96,11.0,0.0
1256,85.0,120,96,10.0,0.0
1257,81.0,0,96,11.0,0.0
1258,85.0,18,96,10.0,0.0
1259,85.0,0,96,10.0,0.0
1260,81.0,96,96,11.0,0.0
1261,49.0,18,78,13.0,0.0
1262,61.0,0,78,12.0,0.0
1263,81.0,0,96,11.0,0.0
1264,37.0,0,78,14.0,0.0
1265,85.0,120,96,10.0,0.0
1266,83.0,0,1872,0.0,0.0
1267,62.0,0,312,12.0,0.0
1268,83.0,0,96,10.0,0.0
1269,38.0,0,312,14.0,0.0
1270,78.0,0,912,2.0,0.0
1271,81.0,120,96,11.0,0.0
1272,74.0,0,912,2.0,0.0
1273,50.0,24,312,13.0,0.0
1274,83.0,0,96,10.0,0.0
1275,81.0,96,96,11.0,0.0
1276,83.0,0,96,10.0,0.0
1277,81.0,120,96,11.0,0.0
1278,81.0,0,96,11.0,0.0
1279,83.0,120,96,10.0,0.0
1280,66.0,0,234,12.0,0.0
1281,81.0,0,96,11.0,0.0
1282,42.0,102,234,14.0,0.0
1283,54.0,0,234,13.0,0.0
1284,83.0,120,96,10.0,0.0
1285,83.0,18,96,10.0,0.0
1286,81.0,0,96,11.0,0.0
1287,83.0,0,96,10.0,0.0
1288,81.0,96,96,11.0,0.0
1289,50.0,0,78,13.0,0.0
1290,62.0,18,78,12.0,0.0
1291,38.0,0,78,14.0,0.0
1292,81.0,0,96,11.0,0.0
1293,83.0,120,96,10.0,0.0
1294,64.0,0,312,12.0,0.0
1295,76.0,0,912,2.0,0.0
1296,64.0,6,912,1.0,0.0
1297,83.0,120,96,10.0,0.0
1298,40.0,24,312,14.0,0.0
1299,80.0,0,96,11.0,0.0
1300,52.0,0,312,13.0,0.0
1301,80.0,0,912,0.0,0.0
1302,80.0,0,96,11.0,0.0
1303,83.0,96,96,10.0,0.0
1304,80.0,120,96,11.0,0.0
1305,83.0,0,96,10.0,0.0
1306,80.0,120,96,11.0,0.0
1307,83.0,0,96,10.0,0.0
1308,44.0,0,234,14.0,0.0
1309,83.0,0,96,10.0,0.0
1310,56.0,102,234,13.0,0.0
1311,68.0,0,234,12.0,0.0
1312,80.0,120,96,11.0,0.0
1313,83.0,0,96,10.0,0.0
1314,80.0,18,96,11.0,0.0
1315,80.0,0,96,11.0,0.0
1316,83.0,96,96,10.0,0.0
1317,64.0,0,78,12.0,0.0
1318,52.0,0,78,13.0,0.0
1319,83.0,408,96,10.0,0.0
1320,40.0,18,78,14.0,0.0
1321,80.0,0,96,11.0,0.0
1322,57.0,0,384,12.0,0.0
1323,81.0,330,384,11.0,0.0
1324,57.0,0,384,1.0,0.0
1325,64.0,0,384,1.0,0.0
1326,81.0,0,384,10.0,0.0
1327,33.0,0,384,14.0,0.0
1328,81.0,0,384,0.0,0.0
1329,45.0,0,384,13.0,0.0
1330,69.0,0,384,2.0,0.0
1331,76.0,0,384,2.0,0.0
1332,69.0,78,234,10.0,0.0
1333,57.0,126,312,13.0,0.0
1334,69.0,0,234,11.0,0.0
1335,45.0,0,312,14.0,0.0
1336,69.0,0,78,10.0,0.0
1337,69.0,354,78,11.0,0.0
1338,69.0,0,312,10.0,0.0
1339,69.0,402,312,11.0,0.0
1340,45.0,0,312,14.0,0.0
1341,57.0,0,312,13.0,0.0
1342,64.0,0,234,11.0,0.0
1343,40.0,0,312,14.0,0.0
1344,64.0,78,234,10.0,0.0
1345,52.0,126,312,13.0,0.0
1346,64.0,0,78,10.0,0.0
1347,64.0,354,78,11.0,0.0
1348,40.0,0,312,14.0,0.0
1349,64.0,0,312,10.0,0.0
1350,52.0,0,312,13.0,0.0
1351,64.0,402,312,11.0,0.0
1352,61.0,0,234,11.0,0.0
1353,37.0,0,312,14.0,0.0
1354,61.0,78,234,10.0,0.0
1355,49.0,126,312,13.0,0.0
1356,61.0,0,78,11.0,0.0
1357,61.0,354,78,10.0,0.0
1358,49.0,0,312,13.0,0.0
1359,61.0,0,312,10.0,0.0
1360,61.0,0,312,11.0,0.0
1361,37.0,402,312,14.0,0.0
1362,57.0,0,234,10.0,0.0
1363,45.0,0,312,13.0,0.0
1364,33.0,126,312,14.0,0.0
1365,57.0,78,234,11.0,0.0
1366,57.0,0,78,10.0,0.0
1367,57.0,426,78,11.0,0.0
1368,33.0,0,384,14.0,0.0
1369,45.0,330,384,13.0,0.0
1370,57.0,0,384,10.0,0.0
1371,57.0,0,384,11.0,0.0
1372,62.0,0,312,13.0,0.0
1373,74.0,0,234,10.0,0.0
1374,74.0,0,234,11.0,0.0
1375,74.0,0,312,2.0,0.0
1376,74.0,0,234,0.0,0.0
1377,62.0,126,312,1.0,0.0
1378,62.0,78,234,12.0,0.0
1379,50.0,0,312,14.0,0.0
1380,62.0,354,78,12.0,0.0
1381,74.0,0,78,0.0,0.0
1382,74.0,0,78,11.0,0.0
1383,74.0,0,78,10.0,0.0
1384,62.0,0,312,13.0,0.0
1385,50.0,0,312,14.0,0.0
1386,74.0,0,312,11.0,0.0
1387,74.0,0,312,2.0,0.0
1388,74.0,0,312,10.0,0.0
1389,62.0,0,312,1.0,0.0
1390,74.0,0,312,0.0,0.0
1391,62.0,402,312,12.0,0.0
1392,69.0,0,312,2.0,0.0
1393,57.0,0,312,1.0,0.0
1394,69.0,0,234,0.0,0.0
1395,69.0,0,234,11.0,0.0
1396,45.0,0,312,14.0,0.0
1397,57.0,126,312,13.0,0.0
1398,69.0,0,234,10.0,0.0
1399,57.0,78,234,12.0,0.0
1400,69.0,0,78,0.0,0.0
1401,69.0,0,78,11.0,0.0
1402,69.0,0,78,10.0,0.0
1403,57.0,354,78,12.0,0.0
1404,69.0,0,312,0.0,0.0
1405,57.0,0,312,12.0,0.0
1406,69.0,0,312,2.0,0.0
1407,57.0,0,312,1.0,0.0
1408,45.0,0,312,14.0,0.0
1409,69.0,402,312,11.0,0.0
1410,69.0,0,312,10.0,0.0
1411,57.0,0,312,13.0,0.0
1412,66.0,0,234,10.0,0.0
1413,66.0,0,234,11.0,0.0
1414,66.0,78,234,0.0,0.0
1415,54.0,0,312,13.0,0.0
1416,66.0,126,312,2.0,0.0
1417,42.0,0,312,14.0,0.0
1418,54.0,0,234,12.0,0.0
1419,54.0,0,312,1.0,0.0
1420,66.0,354,78,10.0,0.0
1421,66.0,0,78,0.0,0.0
1422,54.0,0,78,12.0,0.0
1423,66.0,0,78,11.0,0.0
1424,66.0,0,312,2.0,0.0
1425,54.0,0,312,1.0,0.0
1426,66.0,0,312,11.0,0.0
1427,54.0,402,312,13.0,0.0
1428,66.0,0,312,0.0,0.0
1429,66.0,0,312,10.0,0.0
1430,54.0,0,312,12.0,0.0
1431,42.0,0,312,14.0,0.0
1432,50.0,78,234,12.0,0.0
1433,62.0,0,234,10.0,0.0
1434,62.0,0,312,2.0,0.0
1435,50.0,0,312,1.0,0.0
1436,38.0,0,312,14.0,0.0
1437,62.0,0,234,11.0,0.0
1438,62.0,0,234,0.0,0.0
1439,50.0,126,312,13.0,0.0
1440,62.0,0,78,10.0,0.0
1441,62.0,0,78,11.0,0.0
1442,62.0,0,78,0.0,0.0
1443,50.0,354,78,12.0,0.0
1444,62.0,0,312,11.0,0.0
1445,50.0,0,312,12.0,0.0
1446,50.0,0,312,1.0,0.0
1447,50.0,0,312,13.0,0.0
1448,38.0,0,312,14.0,0.0
1449,62.0,0,312,10.0,0.0
1450,62.0,0,312,0.0,0.0
1451,62.0,312,312,2.0,0.0
1452,78.0,240,144,10.0,0.0
1453,62.0,0,144,11.0,0.0
1454,64.0,0,144,11.0,0.0
1455,79.0,240,144,10.0,0.0
1456,81.0,240,144,10.0,0.0
1457,66.0,0,144,11.0,0.0
1458,78.0,0,144,10.0,0.0
1459,62.0,240,144,11.0,0.0
1460,67.0,240,144,11.0,0.0
1461,83.0,0,144,10.0,0.0
1462,81.0,0,144,10.0,0.0
1463,66.0,240,144,11.0,0.0
1464,79.0,240,144,10.0,0.0
1465,64.0,0,144,11.0,0.0
1466,61.0,240,144,11.0,0.0
1467,76.0,0,144,10.0,0.0
1468,66.0,240,144,11.0,0.0
1469,81.0,0,144,10.0,0.0
1470,64.0,0,144,11.0,0.0
1471,79.0,240,144,10.0,0.0
1472,62.0,0,144,11.0,0.0
1473,78.0,240,144,10.0,0.0
1474,74.0,0,144,10.0,0.0
1475,66.0,240,144,11.0,0.0
1476,79.0,0,144,10.0,0.0
1477,64.0,240,144,11.0,0.0
1478,78.0,0,144,10.0,0.0
1479,62.0,480,144,11.0,0.0
1480,61.0,0,384,11.0,0.0
1481,76.0,330,384,10.0,0.0
1482,50.0,0,312,14.0,0.0
1483,62.0,0,234,12.0,0.0
1484,62.0,0,312,1.0,0.0
1485,62.0,0,312,13.0,0.0
1486,74.0,0,234,10.0,0.0
1487,74.0,0,234,0.0,0.0
1488,74.0,126,312,2.0,0.0
1489,74.0,78,234,11.0,0.0
1490,74.0,0,78,11.0,0.0
1491,62.0,0,78,12.0,0.0
1492,74.0,354,78,0.0,0.0
1493,74.0,0,78,10.0,0.0
1494,50.0,0,312,14.0,0.0
1495,62.0,402,312,12.0,0.0
1496,62.0,0,312,13.0,0.0
1497,74.0,0,312,11.0,0.0
1498,74.0,0,312,0.0,0.0
1499,74.0,0,312,10.0,0.0
1500,74.0,0,312,2.0,0.0
1501,62.0,0,312,1.0,0.0
1502,69.0,0,312,2.0,0.0
1503,57.0,0,312,13.0,0.0
1504,69.0,0,234,10.0,0.0
1505,69.0,0,234,11.0,0.0
1506,69.0,0,234,0.0,0.0
1507,57.0,78,234,12.0,0.0
1508,45.0,0,312,14.0,0.0
1509,57.0,126,312,1.0,0.0
1510,69.0,0,78,10.0,0.0
1511,69.0,0,78,11.0,0.0
1512,57.0,354,78,12.0,0.0
1513,69.0,0,78,0.0,0.0
1514,57.0,0,312,1.0,0.0
1515,69.0,0,312,10.0,0.0
1516,69.0,402,312,11.0,0.0
1517,57.0,0,312,12.0,0.0
1518,69.0,0,312,0.0,0.0
1519,69.0,0,312,2.0,0.0
1520,45.0,0,312,14.0,0.0
1521,57.0,0,312,13.0,0.0
1522,54.0,0,234,12.0,0.0
1523,66.0,0,234,10.0,0.0
1524,66.0,0,234,0.0,0.0
1525,66.0,0,312,2.0,0.0
1526,42.0,126,312,14.0,0.0
1527,66.0,78,234,11.0,0.0
1528,54.0,0,312,13.0,0.0
1529,54.0,0,312,1.0,0.0
1530,66.0,354,78,11.0,0.0
1531,66.0,0,78,10.0,0.0
1532,54.0,0,78,12.0,0.0
1533,66.0,0,78,0.0,0.0
1534,42.0,0,312,14.0,0.0
1535,66.0,0,312,0.0,0.0
1536,66.0,0,312,10.0,0.0
1537,54.0,0,312,12.0,0.0
1538,54.0,402,312,13.0,0.0
1539,66.0,0,312,11.0,0.0
1540,66.0,0,312,2.0,0.0
1541,54.0,0,312,1.0,0.0
1542,62.0,0,234,11.0,0.0
1543,50.0,0,312,1.0,0.0
1544,62.0,0,234,0.0,0.0
1545,50.0,78,234,12.0,0.0
1546,50.0,0,312,13.0,0.0
1547,62.0,0,312,2.0,0.0
1548,62.0,0,234,10.0,0.0
1549,38.0,126,312,14.0,0.0
1550,62.0,0,78,11.0,0.0
1551,62.0,0,78,10.0,0.0
1552,62.0,0,78,0.0,0.0
1553,50.0,354,78,12.0,0.0
1554,62.0,0,312,0.0,0.0
1555,62.0,0,312,10.0,0.0
1556,62.0,312,312,11.0,0.0
1557,50.0,0,312,12.0,0.0
1558,50.0,0,312,1.0,0.0
1559,50.0,0,312,13.0,0.0
1560,38.0,0,312,14.0,0.0
1561,62.0,0,312,2.0,0.0
1562,78.0,240,144,10.0,0.0
1563,62.0,0,144,11.0,0.0
1564,64.0,240,144,11.0,0.0
1565,79.0,0,144,10.0,0.0
1566,81.0,240,144,10.0,0.0
1567,66.0,0,144,11.0,0.0
1568,78.0,240,144,10.0,0.0
1569,62.0,0,144,11.0,0.0
1570,67.0,0,144,11.0,0.0
1571,83.0,240,144,10.0,0.0
1572,66.0,0,144,11.0,0.0
1573,81.0,240,144,10.0,0.0
1574,64.0,0,144,11.0,0.0
1575,79.0,240,144,10.0,0.0
1576,76.0,0,144,10.0,0.0
1577,61.0,240,144,11.0,0.0
1578,81.0,0,144,10.0,0.0
1579,66.0,240,144,11.0,0.0
1580,64.0,240,144,11.0,0.0
1581,79.0,0,144,10.0,0.0
1582,62.0,0,144,11.0,0.0
1583,78.0,240,144,10.0,0.0
1584,74.0,240,144,10.0,0.0
1585,66.0,0,144,11.0,0.0
1586,76.0,0,144,10.0,0.0
1587,67.0,240,144,11.0,0.0
1588,64.0,480,144,11.0,0.0
1589,73.0,0,144,10.0,0.0
1590,66.0,384,384,11.0,0.0
1591,74.0,0,384,10.0,0.0
1592,78.0,24,288,10.0,0.0
1593,50.0,72,384,13.0,0.0
1594,69.0,0,288,11.0,0.0
1595,69.0,0,312,0.0,0.0
1596,62.0,0,384,12.0,0.0
1597,50.0,0,312,1.0,0.0
1598,62.0,0,312,1.0,0.0
1599,38.0,0,384,14.0,0.0
1600,78.0,72,312,0.0,0.0
1601,74.0,0,96,10.0,0.0
1602,66.0,216,96,11.0,0.0
1603,71.0,120,192,11.0,0.0
1604,79.0,48,384,10.0,0.0
1605,50.0,0,384,13.0,0.0
1606,50.0,0,7032,1.0,0.0
1607,79.0,0,960,0.0,0.0
1608,38.0,0,384,14.0,0.0
1609,71.0,72,312,0.0,0.0
1610,62.0,0,7032,1.0,0.0
1611,62.0,0,384,12.0,0.0
1612,67.0,108,192,11.0,0.0
1613,73.0,48,192,11.0,0.0
1614,81.0,60,60,10.0,0.0
1615,50.0,36,384,13.0,0.0
1616,62.0,0,384,12.0,0.0
1617,38.0,0,384,14.0,0.0
1618,73.0,48,312,0.0,0.0
1619,79.0,60,60,10.0,0.0
1620,81.0,12,60,10.0,0.0
1621,79.0,60,60,10.0,0.0
1622,81.0,12,60,10.0,0.0
1623,69.0,48,192,11.0,0.0
1624,79.0,24,60,10.0,0.0
1625,78.0,12,60,10.0,0.0
1626,79.0,192,60,10.0,0.0
1627,78.0,0,384,0.0,0.0
1628,62.0,120,192,12.0,0.0
1629,74.0,72,312,0.0,0.0
1630,74.0,0,384,11.0,0.0
1631,38.0,0,192,14.0,0.0
1632,78.0,48,384,10.0,0.0
1633,50.0,0,192,13.0,0.0
1634,50.0,0,192,13.0,0.0
1635,38.0,240,192,14.0,0.0
1636,62.0,0,192,12.0,0.0
1637,81.0,0,288,10.0,0.0
1638,78.0,120,312,0.0,0.0
1639,74.0,0,312,2.0,0.0
1640,62.0,0,192,12.0,0.0
1641,62.0,0,312,2.0,0.0
1642,81.0,96,192,0.0,0.0
1643,50.0,0,192,13.0,0.0
1644,78.0,24,288,11.0,0.0
1645,38.0,0,192,14.0,0.0
1646,62.0,0,192,12.0,0.0
1647,50.0,0,192,13.0,0.0
1648,38.0,24,192,14.0,0.0
1649,78.0,216,96,10.0,0.0
1650,74.0,0,96,11.0,0.0
1651,79.0,240,192,11.0,0.0
1652,50.0,0,192,13.0,0.0
1653,74.0,0,1344,2.0,0.0
1654,83.0,0,192,10.0,0.0
1655,62.0,384,1344,2.0,0.0
1656,79.0,192,960,0.0,0.0
1657,83.0,0,192,0.0,0.0
1658,38.0,0,192,14.0,0.0
1659,62.0,0,192,12.0,0.0
1660,50.0,0,192,13.0,0.0
1661,76.0,240,192,11.0,0.0
1662,38.0,0,192,14.0,0.0
1663,62.0,0,192,12.0,0.0
1664,50.0,0,192,13.0,0.0
1665,85.0,0,192,10.0,0.0
1666,62.0,240,192,12.0,0.0
1667,85.0,0,192,0.0,0.0
1668,38.0,0,192,14.0,0.0
1669,81.0,0,192,11.0,0.0
1670,38.0,0,192,14.0,0.0
1671,62.0,0,192,12.0,0.0
1672,79.0,0,192,11.0,0.0
1673,50.0,48,192,13.0,0.0
1674,86.0,0,192,0.0,0.0
1675,62.0,0,384,12.0,0.0
1676,86.0,0,192,10.0,0.0
1677,78.0,0,192,0.0,0.0
1678,50.0,0,384,13.0,0.0
1679,78.0,192,192,11.0,0.0
1680,38.0,0,384,14.0,0.0
1681,69.0,0,312,0.0,0.0
1682,78.0,72,312,0.0,0.0
1683,50.0,0,384,13.0,0.0
1684,38.0,72,384,14.0,0.0
1685,62.0,0,384,12.0,0.0
1686,69.0,0,288,11.0,0.0
1687,78.0,24,288,10.0,0.0
1688,74.0,0,96,10.0,0.0
1689,66.0,216,96,11.0,0.0
1690,71.0,120,192,11.0,0.0
1691,71.0,72,312,0.0,0.0
1692,38.0,0,384,14.0,0.0
1693,79.0,0,384,10.0,0.0
1694,50.0,48,384,13.0,0.0
1695,79.0,192,960,0.0,0.0
1696,62.0,0,384,12.0,0.0
1697,67.0,108,192,11.0,0.0
1698,50.0,0,384,13.0,0.0
1699,73.0,48,192,11.0,0.0
1700,62.0,0,384,12.0,0.0
1701,38.0,36,384,14.0,0.0
1702,73.0,48,312,0.0,0.0
1703,81.0,60,60,10.0,0.0
1704,79.0,60,60,10.0,0.0
1705,81.0,12,60,10.0,0.0
1706,79.0,60,60,10.0,0.0
1707,81.0,12,60,10.0,0.0
1708,69.0,48,192,11.0,0.0
1709,79.0,24,60,10.0,0.0
1710,78.0,12,60,10.0,0.0
1711,79.0,0,60,10.0,0.0
1712,74.0,72,312,0.0,0.0
1713,38.0,0,192,14.0,0.0
1714,50.0,120,192,13.0,0.0
1715,62.0,0,192,12.0,0.0
1716,78.0,0,384,10.0,0.0
1717,74.0,48,384,11.0,0.0
1718,78.0,0,384,0.0,0.0
1719,50.0,240,192,13.0,0.0
1720,62.0,0,192,12.0,0.0
1721,38.0,0,192,14.0,0.0
1722,62.0,0,312,2.0,0.0
1723,38.0,96,192,14.0,0.0
1724,74.0,120,312,2.0,0.0
1725,81.0,0,288,10.0,0.0
1726,81.0,0,192,0.0,0.0
1727,78.0,24,288,11.0,0.0
1728,50.0,0,192,13.0,0.0
1729,62.0,0,192,12.0,0.0
1730,78.0,0,312,0.0,0.0
1731,62.0,0,192,12.0,0.0
1732,50.0,0,192,13.0,0.0
1733,38.0,24,192,14.0,0.0
1734,74.0,216,96,11.0,0.0
1735,78.0,0,96,10.0,0.0
1736,83.0,240,192,10.0,0.0
1737,79.0,312,960,0.0,0.0
1738,79.0,0,192,11.0,0.0
1739,50.0,0,192,13.0,0.0
1740,74.0,0,1272,2.0,0.0
1741,83.0,0,192,0.0,0.0
1742,62.0,0,1272,2.0,0.0
1743,38.0,0,192,14.0,0.0
1744,62.0,0,192,12.0,0.0
1745,50.0,240,192,13.0,0.0
1746,38.0,0,192,14.0,0.0
1747,76.0,0,192,11.0,0.0
1748,62.0,0,192,12.0,0.0
1749,81.0,0,192,11.0,0.0
1750,85.0,240,192,10.0,0.0
1751,38.0,0,192,14.0,0.0
1752,62.0,0,192,12.0,0.0
1753,85.0,0,192,0.0,0.0
1754,50.0,0,192,13.0,0.0
1755,38.0,0,192,14.0,0.0
1756,79.0,48,192,11.0,0.0
1757,62.0,0,192,12.0,0.0
1758,50.0,0,192,13.0,0.0
1759,62.0,0,312,12.0,0.0
1760,38.0,0,312,14.0,0.0
1761,50.0,402,312,13.0,0.0
1762,78.0,0,312,11.0,0.0
1763,86.0,0,312,0.0,0.0
1764,86.0,0,312,10.0,0.0
1765,78.0,0,312,0.0,0.0
1766,62.0,0,234,12.0,0.0
1767,50.0,126,312,14.0,0.0
1768,86.0,0,234,0.0,0.0
1769,74.0,0,234,11.0,0.0
1770,62.0,0,312,13.0,0.0
1771,74.0,78,234,10.0,0.0
1772,62.0,0,78,12.0,0.0
1773,74.0,354,78,11.0,0.0
1774,74.0,0,78,10.0,0.0
1775,86.0,0,78,0.0,0.0
1776,74.0,402,312,11.0,0.0
1777,50.0,0,312,14.0,0.0
1778,74.0,0,312,10.0,0.0
1779,86.0,0,312,0.0,0.0
1780,62.0,0,312,13.0,0.0
1781,62.0,0,312,12.0,0.0
1782,47.0,126,312,14.0,0.0
1783,59.0,0,312,13.0,0.0
1784,71.0,0,234,11.0,0.0
1785,71.0,0,234,10.0,0.0
1786,59.0,0,234,12.0,0.0
1787,83.0,78,234,0.0,0.0
1788,71.0,0,78,11.0,0.0
1789,83.0,354,78,0.0,0.0
1790,59.0,0,78,12.0,0.0
1791,71.0,0,78,10.0,0.0
1792,47.0,0,312,14.0,0.0
1793,71.0,402,312,11.0,0.0
1794,83.0,0,312,0.0,0.0
1795,59.0,0,312,13.0,0.0
1796,59.0,0,312,12.0,0.0
1797,71.0,0,312,10.0,0.0
1798,56.0,0,312,13.0,0.0
1799,56.0,0,234,12.0,0.0
1800,80.0,0,234,0.0,0.0
1801,68.0,0,234,10.0,0.0
1802,44.0,126,312,14.0,0.0
1803,68.0,78,234,11.0,0.0
1804,56.0,0,78,12.0,0.0
1805,68.0,0,78,11.0,0.0
1806,80.0,0,78,0.0,0.0
1807,68.0,354,78,10.0,0.0
1808,80.0,0,312,0.0,0.0
1809,44.0,0,312,14.0,0.0
1810,56.0,0,312,13.0,0.0
1811,68.0,402,312,10.0,0.0
1812,56.0,0,312,12.0,0.0
1813,68.0,0,312,11.0,0.0
1814,50.0,78,234,12.0,0.0
1815,74.0,0,234,0.0,0.0
1816,50.0,0,312,13.0,0.0
1817,38.0,126,312,14.0,0.0
1818,62.0,0,234,10.0,0.0
1819,62.0,0,234,11.0,0.0
1820,62.0,0,78,11.0,0.0
1821,74.0,0,78,0.0,0.0
1822,62.0,354,78,10.0,0.0
1823,50.0,0,78,12.0,0.0
1824,74.0,402,312,0.0,0.0
1825,62.0,0,312,10.0,0.0
1826,50.0,0,312,12.0,0.0
1827,38.0,0,312,14.0,0.0
1828,50.0,0,312,13.0,0.0
1829,62.0,0,312,11.0,0.0
1830,74.0,126,312,2.0,0.0
1831,59.0,0,234,11.0,0.0
1832,35.0,0,312,14.0,0.0
1833,62.0,0,312,1.0,0.0
1834,71.0,0,234,0.0,0.0
1835,59.0,0,234,10.0,0.0
1836,47.0,0,312,13.0,0.0
1837,59.0,78,234,12.0,0.0
1838,71.0,0,78,0.0,0.0
1839,59.0,354,78,10.0,0.0
1840,59.0,0,78,11.0,0.0
1841,59.0,0,78,12.0,0.0
1842,59.0,0,312,12.0,0.0
1843,71.0,0,312,0.0,0.0
1844,47.0,0,312,13.0,0.0
1845,74.0,6,912,2.0,0.0
1846,59.0,402,312,10.0,0.0
1847,62.0,0,912,1.0,0.0
1848,35.0,0,312,14.0,0.0
1849,59.0,0,312,11.0,0.0
1850,44.0,0,312,13.0,0.0
1851,56.0,0,234,12.0,0.0
1852,56.0,0,234,11.0,0.0
1853,68.0,0,234,0.0,0.0
1854,32.0,120,312,14.0,0.0
1855,56.0,78,234,10.0,0.0
1856,56.0,0,78,11.0,0.0
1857,56.0,0,78,10.0,0.0
1858,68.0,0,78,0.0,0.0
1859,56.0,198,78,12.0,0.0
1860,56.0,0,156,12.0,0.0
1861,56.0,0,156,10.0,0.0
1862,50.0,0,912,1.0,0.0
1863,62.0,360,912,2.0,0.0
1864,56.0,0,156,11.0,0.0
1865,44.0,0,156,13.0,0.0
1866,68.0,240,156,0.0,0.0
1867,32.0,0,156,14.0,0.0
1868,62.0,0,156,12.0,0.0
1869,50.0,0,156,13.0,0.0
1870,74.0,0,156,0.0,0.0
1871,62.0,0,156,10.0,0.0
1872,62.0,240,156,11.0,0.0
1873,38.0,0,156,14.0,0.0
1874,47.0,0,156,13.0,0.0
1875,59.0,240,156,10.0,0.0
1876,59.0,0,156,11.0,0.0
1877,71.0,0,156,0.0,0.0
1878,59.0,0,156,12.0,0.0
1879,35.0,0,156,14.0,0.0
1880,32.0,0,156,14.0,0.0
1881,56.0,0,156,11.0,0.0
1882,44.0,0,156,13.0,0.0
1883,68.0,36,156,0.0,0.0
1884,56.0,0,156,10.0,0.0
1885,56.0,0,156,12.0,0.0
1886,45.0,0,312,13.0,0.0
1887,33.0,0,312,14.0,0.0
1888,69.0,0,312,2.0,0.0
1889,69.0,480,312,0.0,0.0
1890,57.0,0,312,10.0,0.0
1891,57.0,0,312,11.0,0.0
1892,57.0,0,312,12.0,0.0
1893,57.0,0,312,1.0,0.0
1894,64.0,0,312,11.0,0.0
1895,69.0,0,312,2.0,0.0
1896,45.0,0,312,14.0,0.0
1897,69.0,0,312,12.0,0.0
1898,64.0,552,312,1.0,0.0
1899,57.0,0,312,1.0,0.0
1900,57.0,0,312,13.0,0.0
1901,81.0,0,312,0.0,0.0
1902,81.0,0,312,10.0,0.0
1903,64.0,0,312,10.0,0.0
1904,73.0,0,312,10.0,0.0
1905,73.0,0,312,0.0,0.0
1906,81.0,0,312,11.0,0.0
1907,73.0,0,312,11.0,0.0
1908,81.0,0,384,0.0,0.0
1909,57.0,0,384,12.0,0.0
1910,64.0,0,384,1.0,0.0
1911,73.0,0,384,0.0,0.0
1912,81.0,0,384,11.0,0.0
1913,73.0,0,384,11.0,0.0
1914,45.0,0,384,13.0,0.0
1915,64.0,0,384,10.0,0.0
1916,73.0,0,384,10.0,0.0
1917,33.0,1296,384,14.0,0.0
1918,81.0,0,384,10.0,0.0
1919,69.0,0,384,2.0,0.0
1920,64.0,0,384,11.0,0.0
1921,57.0,0,384,1.0,0.0
1922,61.0,0,720,11.0,0.0
1923,73.0,144,720,10.0,0.0
1924,33.0,0,384,14.0,0.0
1925,45.0,84,384,13.0,0.0
1926,52.0,0,384,12.0,0.0
1927,62.0,0,228,11.0,0.0
1928,74.0,252,228,10.0,0.0
1929,63.0,0,240,11.0,0.0
1930,75.0,240,240,10.0,0.0
1931,64.0,240,240,11.0,0.0
1932,76.0,0,240,10.0,0.0
1933,75.0,0,240,10.0,0.0
1934,37.0,84,384,14.0,0.0
1935,49.0,0,384,13.0,0.0
1936,57.0,0,384,12.0,0.0
1937,63.0,144,240,11.0,0.0
1938,64.0,0,228,11.0,0.0
1939,76.0,732,228,10.0,0.0
1940,59.0,0,720,11.0,0.0
1941,71.0,144,720,10.0,0.0
1942,56.0,84,384,12.0,0.0
1943,52.0,0,384,13.0,0.0
1944,40.0,0,384,14.0,0.0
1945,60.0,252,228,11.0,0.0
1946,72.0,0,228,10.0,0.0
1947,73.0,240,240,10.0,0.0
1948,61.0,0,240,11.0,0.0
1949,74.0,0,240,10.0,0.0
1950,62.0,240,240,11.0,0.0
1951,73.0,144,240,10.0,0.0
1952,56.0,0,384,13.0,0.0
1953,61.0,0,240,11.0,0.0
1954,59.0,0,384,12.0,0.0
1955,44.0,84,384,14.0,0.0
1956,74.0,0,228,10.0,0.0
1957,62.0,732,228,11.0,0.0
1958,57.0,144,720,11.0,0.0
1959,69.0,0,720,10.0,0.0
1960,37.0,0,384,14.0,0.0
1961,49.0,0,384,13.0,0.0
1962,52.0,84,384,12.0,0.0
1963,71.0,252,228,10.0,0.0
1964,59.0,0,228,11.0,0.0
1965,60.0,0,240,11.0,0.0
1966,72.0,240,240,10.0,0.0
1967,73.0,0,240,10.0,0.0
1968,61.0,240,240,11.0,0.0
1969,72.0,0,240,10.0,0.0
1970,45.0,0,384,13.0,0.0
1971,33.0,84,384,14.0,0.0
1972,52.0,0,384,12.0,0.0
1973,60.0,144,240,11.0,0.0
1974,73.0,132,228,10.0,0.0
1975,61.0,0,228,11.0,0.0
1976,61.0,0,120,11.0,0.0
1977,73.0,288,120,10.0,0.0
1978,71.0,360,288,10.0,0.0
1979,59.0,0,288,11.0,0.0
1980,40.0,72,384,14.0,0.0
1981,59.0,0,384,12.0,0.0
1982,68.0,96,288,10.0,0.0
1983,52.0,0,384,13.0,0.0
1984,56.0,0,288,11.0,0.0
1985,69.0,0,96,10.0,0.0
1986,57.0,216,96,11.0,0.0
1987,71.0,0,192,10.0,0.0
1988,59.0,480,192,11.0,0.0
1989,56.0,192,192,11.0,0.0
1990,59.0,0,384,12.0,0.0
1991,28.0,0,384,14.0,0.0
1992,64.0,0,192,10.0,0.0
1993,40.0,480,384,13.0,0.0
1994,73.0,0,720,10.0,0.0
1995,73.0,0,384,0.0,0.0
1996,76.0,336,384,0.0,0.0
1997,64.0,0,384,1.0,0.0
1998,61.0,144,720,11.0,0.0
1999,57.0,0,384,1.0,0.0
2000,33.0,84,384,14.0,0.0
2001,45.0,0,384,13.0,0.0
2002,52.0,0,384,12.0,0.0
2003,74.0,252,228,10.0,0.0
2004,62.0,0,228,11.0,0.0
2005,57.0,96,384,1.0,0.0
2006,75.0,144,240,10.0,0.0
2007,73.0,0,384,0.0,0.0
2008,81.0,0,384,0.0,0.0
2009,63.0,0,240,11.0,0.0
2010,64.0,0,384,1.0,0.0
2011,64.0,0,240,11.0,0.0
2012,76.0,240,240,10.0,0.0
2013,49.0,0,384,13.0,0.0
2014,57.0,84,384,12.0,0.0
2015,75.0,0,240,10.0,0.0
2016,37.0,0,384,14.0,0.0
2017,63.0,144,240,11.0,0.0
2018,64.0,0,228,11.0,0.0
2019,76.0,396,228,10.0,0.0
2020,80.0,0,384,0.0,0.0
2021,59.0,144,720,11.0,0.0
2022,74.0,0,384,0.0,0.0
2023,71.0,0,720,10.0,0.0
2024,64.0,336,384,1.0,0.0
2025,52.0,0,384,13.0,0.0
2026,56.0,84,384,12.0,0.0
2027,40.0,0,384,14.0,0.0
2028,72.0,0,228,10.0,0.0
2029,60.0,252,228,11.0,0.0
2030,73.0,144,240,10.0,0.0
2031,64.0,96,384,1.0,0.0
2032,71.0,0,384,0.0,0.0
2033,61.0,0,240,11.0,0.0
2034,68.0,0,384,0.0,0.0
2035,62.0,240,240,11.0,0.0
2036,74.0,0,240,10.0,0.0
2037,59.0,84,384,12.0,0.0
2038,73.0,0,240,10.0,0.0
2039,56.0,0,384,13.0,0.0
2040,44.0,0,384,14.0,0.0
2041,61.0,144,240,11.0,0.0
2042,74.0,396,228,10.0,0.0
2043,62.0,0,228,11.0,0.0
2044,64.0,0,384,1.0,0.0
2045,73.0,0,384,0.0,0.0
2046,69.0,0,720,10.0,0.0
2047,57.0,144,720,11.0,0.0
2048,69.0,336,384,0.0,0.0
2049,57.0,0,384,1.0,0.0
2050,49.0,0,384,13.0,0.0
2051,37.0,84,384,14.0,0.0
2052,52.0,0,384,12.0,0.0
2053,71.0,252,228,10.0,0.0
2054,59.0,0,228,11.0,0.0
2055,72.0,144,240,10.0,0.0
2056,64.0,0,384,1.0,0.0
2057,69.0,0,384,0.0,0.0
2058,81.0,0,384,0.0,0.0
2059,57.0,96,384,1.0,0.0
2060,60.0,0,240,11.0,0.0
2061,73.0,0,240,10.0,0.0
2062,61.0,240,240,11.0,0.0
2063,60.0,144,240,11.0,0.0
2064,45.0,84,384,13.0,0.0
2065,72.0,0,240,10.0,0.0
2066,33.0,0,384,14.0,0.0
2067,52.0,0,384,12.0,0.0
2068,73.0,396,228,10.0,0.0
2069,61.0,0,228,11.0,0.0
2070,71.0,0,384,0.0,0.0
2071,78.0,192,480,10.0,0.0
2072,81.0,0,384,0.0,0.0
2073,62.0,96,384,1.0,0.0
2074,66.0,0,384,1.0,0.0
2075,38.0,0,384,14.0,0.0
2076,71.0,192,192,10.0,0.0
2077,66.0,480,384,12.0,0.0
2078,50.0,0,384,13.0,0.0
2079,57.0,0,384,12.0,0.0
2080,71.0,0,384,0.0,0.0
2081,80.0,0,384,0.0,0.0
2082,71.0,192,480,11.0,0.0
2083,64.0,96,384,1.0,0.0
2084,52.0,0,384,13.0,0.0
2085,64.0,192,192,11.0,0.0
2086,40.0,0,384,14.0,0.0
2087,56.0,480,384,12.0,0.0
2088,57.0,0,384,1.0,0.0
2089,64.0,0,384,1.0,0.0
2090,76.0,192,480,10.0,0.0
2091,81.0,0,384,0.0,0.0
2092,76.0,96,384,0.0,0.0
2093,69.0,192,192,10.0,0.0
2094,37.0,0,384,14.0,0.0
2095,49.0,0,384,13.0,0.0
2096,64.0,480,384,12.0,0.0
2097,73.0,192,480,11.0,0.0
2098,81.0,0,384,0.0,0.0
2099,73.0,0,384,0.0,0.0
2100,66.0,96,384,1.0,0.0
2101,54.0,0,384,1.0,0.0
2102,42.0,0,384,14.0,0.0
2103,57.0,0,384,12.0,0.0
2104,66.0,192,192,11.0,0.0
2105,54.0,480,384,13.0,0.0
2106,78.0,192,480,10.0,0.0
2107,62.0,0,384,1.0,0.0
2108,71.0,96,384,0.0,0.0
2109,66.0,0,384,1.0,0.0
2110,81.0,0,384,0.0,0.0
2111,66.0,0,384,12.0,0.0
2112,57.0,480,384,12.0,0.0
2113,50.0,0,384,13.0,0.0
2114,38.0,0,384,14.0,0.0
2115,71.0,192,192,10.0,0.0
2116,64.0,0,384,1.0,0.0
2117,71.0,0,384,0.0,0.0
2118,71.0,192,480,11.0,0.0
2119,80.0,96,384,0.0,0.0
2120,64.0,192,192,11.0,0.0
2121,40.0,336,384,14.0,0.0
2122,52.0,0,384,13.0,0.0
2123,56.0,0,384,12.0,0.0
2124,61.0,0,312,11.0,0.0
2125,57.0,0,312,12.0,0.0
2126,64.0,0,312,11.0,0.0
2127,69.0,72,240,10.0,0.0
2128,57.0,0,9408,2.0,0.0
2129,57.0,0,9408,1.0,0.0
2130,45.0,0,9408,1.0,0.0
2131,33.0,0,312,14.0,0.0
2132,45.0,72,312,13.0,0.0
2133,69.0,48,9408,2.0,0.0
2134,69.0,6,1872,0.0,0.0
2135,81.0,0,1872,0.0,0.0
2136,73.0,240,144,10.0,0.0
2137,57.0,0,312,13.0,0.0
2138,61.0,0,234,11.0,0.0
2139,69.0,90,144,10.0,0.0
2140,57.0,78,234,12.0,0.0
2141,64.0,0,234,11.0,0.0
2142,45.0,72,312,14.0,0.0
2143,69.0,54,144,10.0,0.0
2144,61.0,282,78,11.0,0.0
2145,64.0,0,78,11.0,0.0
2146,57.0,0,78,12.0,0.0
2147,69.0,72,240,10.0,0.0
2148,57.0,0,312,12.0,0.0
2149,64.0,0,312,11.0,0.0
2150,33.0,0,312,14.0,0.0
2151,45.0,72,312,13.0,0.0
2152,61.0,0,312,11.0,0.0
2153,73.0,240,144,10.0,0.0
2154,69.0,90,144,10.0,0.0
2155,61.0,0,234,11.0,0.0
2156,64.0,0,234,11.0,0.0
2157,57.0,72,312,13.0,0.0
2158,57.0,78,234,12.0,0.0
2159,45.0,0,312,14.0,0.0
2160,69.0,48,144,10.0,0.0
2161,61.0,282,78,11.0,0.0
2162,64.0,0,78,11.0,0.0
2163,57.0,0,78,12.0,0.0
2164,62.0,0,312,12.0,0.0
2165,45.0,0,312,13.0,0.0
2166,80.0,0,1872,0.0,0.0
2167,71.0,6,1872,0.0,0.0
2168,68.0,0,312,11.0,0.0
2169,33.0,72,312,14.0,0.0
2170,71.0,72,240,10.0,0.0
2171,74.0,240,144,10.0,0.0
2172,62.0,0,234,12.0,0.0
2173,71.0,90,144,10.0,0.0
2174,68.0,78,234,11.0,0.0
2175,57.0,0,312,13.0,0.0
2176,45.0,72,312,14.0,0.0
2177,71.0,54,144,10.0,0.0
2178,62.0,282,78,12.0,0.0
2179,68.0,0,78,11.0,0.0
2180,33.0,0,312,14.0,0.0
2181,62.0,72,312,12.0,0.0
2182,71.0,72,240,10.0,0.0
2183,45.0,0,312,13.0,0.0
2184,68.0,0,312,11.0,0.0
2185,74.0,240,144,10.0,0.0
2186,68.0,0,234,11.0,0.0
2187,57.0,72,312,13.0,0.0
2188,62.0,78,234,12.0,0.0
2189,71.0,90,144,10.0,0.0
2190,45.0,0,312,14.0,0.0
2191,71.0,48,144,10.0,0.0
2192,62.0,0,78,12.0,0.0
2193,68.0,282,78,11.0,0.0
2194,67.0,0,312,11.0,0.0
2195,64.0,0,312,12.0,0.0
2196,79.0,0,1872,0.0,0.0
2197,73.0,6,1872,0.0,0.0
2198,73.0,72,240,10.0,0.0
2199,45.0,0,312,13.0,0.0
2200,33.0,72,312,14.0,0.0
2201,76.0,240,144,10.0,0.0
2202,64.0,78,234,12.0,0.0
2203,57.0,72,312,13.0,0.0
2204,67.0,0,234,11.0,0.0
2205,73.0,90,144,10.0,0.0
2206,45.0,0,312,14.0,0.0
2207,73.0,54,144,10.0,0.0
2208,64.0,282,78,12.0,0.0
2209,67.0,0,78,11.0,0.0
2210,64.0,72,312,12.0,0.0
2211,45.0,0,312,13.0,0.0
2212,67.0,0,312,11.0,0.0
2213,33.0,0,312,14.0,0.0
2214,73.0,72,240,10.0,0.0
2215,76.0,240,144,10.0,0.0
2216,57.0,0,312,13.0,0.0
2217,45.0,72,312,14.0,0.0
2218,73.0,90,144,10.0,0.0
2219,64.0,78,234,12.0,0.0
2220,67.0,0,234,11.0,0.0
2221,73.0,48,144,10.0,0.0
2222,67.0,0,78,11.0,0.0
2223,64.0,138,78,12.0,0.0
2224,45.0,0,192,14.0,0.0
2225,57.0,24,192,13.0,0.0
2226,74.0,96,96,10.0,0.0
2227,57.0,0,96,12.0,0.0
2228,74.0,24,912,0.0,0.0
2229,78.0,0,912,0.0,0.0
2230,66.0,0,96,11.0,0.0
2231,66.0,0,96,11.0,0.0
2232,57.0,0,96,12.0,0.0
2233,74.0,120,96,10.0,0.0
2234,57.0,0,192,13.0,0.0
2235,45.0,24,192,14.0,0.0
2236,66.0,0,96,11.0,0.0
2237,74.0,0,96,10.0,0.0
2238,57.0,96,96,12.0,0.0
2239,57.0,0,96,12.0,0.0
2240,74.0,120,96,10.0,0.0
2241,66.0,0,96,11.0,0.0
2242,66.0,0,96,11.0,0.0
2243,45.0,24,192,14.0,0.0
2244,74.0,96,96,10.0,0.0
2245,57.0,0,96,12.0,0.0
2246,57.0,0,192,13.0,0.0
2247,57.0,120,96,12.0,0.0
2248,66.0,0,96,11.0,0.0
2249,74.0,0,96,10.0,0.0
2250,74.0,0,96,10.0,0.0
2251,66.0,96,96,11.0,0.0
2252,57.0,0,96,12.0,0.0
2253,57.0,0,192,13.0,0.0
2254,45.0,0,192,14.0,0.0
2255,57.0,0,96,12.0,0.0
2256,66.0,0,96,11.0,0.0
2257,74.0,120,96,10.0,0.0
2258,73.0,0,96,11.0,0.0
2259,57.0,24,192,13.0,0.0
2260,69.0,0,96,12.0,0.0
2261,76.0,96,96,10.0,0.0
2262,45.0,0,192,14.0,0.0
2263,76.0,24,912,0.0,0.0
2264,73.0,0,912,0.0,0.0
2265,76.0,0,96,10.0,0.0
2266,69.0,0,96,12.0,0.0
2267,73.0,120,96,11.0,0.0
2268,69.0,0,96,12.0,0.0
2269,45.0,24,192,14.0,0.0
2270,73.0,0,96,11.0,0.0
2271,57.0,0,192,13.0,0.0
2272,76.0,96,96,10.0,0.0
2273,69.0,0,96,12.0,0.0
2274,73.0,0,96,11.0,0.0
2275,76.0,120,96,10.0,0.0
2276,76.0,0,96,10.0,0.0
2277,73.0,0,96,11.0,0.0
2278,57.0,24,192,13.0,0.0
2279,69.0,96,96,12.0,0.0
2280,45.0,0,192,14.0,0.0
2281,76.0,0,96,10.0,0.0
2282,73.0,120,96,11.0,0.0
2283,69.0,0,96,12.0,0.0
2284,69.0,96,96,12.0,0.0
2285,76.0,0,96,10.0,0.0
2286,57.0,0,192,13.0,0.0
2287,73.0,0,96,11.0,0.0
2288,45.0,0,192,14.0,0.0
2289,69.0,0,96,12.0,0.0
2290,73.0,120,96,11.0,0.0
2291,76.0,0,96,10.0,0.0
2292,74.0,0,912,0.0,0.0
2293,78.0,0,912,0.0,0.0
2294,74.0,0,96,11.0,0.0
2295,45.0,24,192,14.0,0.0
2296,57.0,0,192,13.0,0.0
2297,78.0,96,96,10.0,0.0
2298,69.0,0,96,12.0,0.0
2299,74.0,0,96,11.0,0.0
2300,78.0,120,96,10.0,0.0
2301,69.0,0,96,12.0,0.0
2302,57.0,0,192,13.0,0.0
2303,69.0,0,96,12.0,0.0
2304,45.0,24,192,14.0,0.0
2305,74.0,96,96,11.0,0.0
2306,78.0,0,96,10.0,0.0
2307,74.0,0,96,11.0,0.0
2308,69.0,120,96,12.0,0.0
2309,78.0,0,96,10.0,0.0
2310,69.0,0,96,12.0,0.0
2311,74.0,0,96,11.0,0.0
2312,78.0,96,96,10.0,0.0
2313,57.0,24,192,13.0,0.0
2314,45.0,0,192,14.0,0.0
2315,78.0,120,96,10.0,0.0
2316,74.0,0,96,11.0,0.0
2317,69.0,0,96,12.0,0.0
2318,57.0,24,192,13.0,0.0
2319,74.0,0,96,11.0,0.0
2320,45.0,0,192,14.0,0.0
2321,78.0,96,96,10.0,0.0
2322,69.0,0,96,12.0,0.0
2323,74.0,0,96,11.0,0.0
2324,78.0,120,96,10.0,0.0
2325,69.0,0,96,12.0,0.0
2326,71.0,96,96,11.0,0.0
2327,71.0,24,912,0.0,0.0
2328,80.0,0,912,0.0,0.0
2329,45.0,24,192,14.0,0.0
2330,80.0,0,96,10.0,0.0
2331,62.0,0,96,12.0,0.0
2332,57.0,0,192,13.0,0.0
2333,71.0,0,96,11.0,0.0
2334,62.0,0,96,12.0,0.0
2335,80.0,120,96,10.0,0.0
2336,80.0,0,96,10.0,0.0
2337,62.0,96,96,12.0,0.0
2338,45.0,24,192,14.0,0.0
2339,57.0,0,192,13.0,0.0
2340,71.0,0,96,11.0,0.0
2341,71.0,120,96,11.0,0.0
2342,80.0,0,96,10.0,0.0
2343,62.0,0,96,12.0,0.0
2344,62.0,0,96,12.0,0.0
2345,80.0,96,96,10.0,0.0
2346,71.0,0,96,11.0,0.0
2347,57.0,0,192,13.0,0.0
2348,45.0,24,192,14.0,0.0
2349,80.0,0,96,10.0,0.0
2350,62.0,0,96,12.0,0.0
2351,71.0,72,96,11.0,0.0
2352,80.0,0,96,10.0,0.0
2353,62.0,96,96,12.0,0.0
2354,71.0,0,96,11.0,0.0
2355,45.0,0,192,14.0,0.0
2356,57.0,0,192,13.0,0.0
2357,62.0,0,96,12.0,0.0
2358,71.0,0,96,11.0,0.0
2359,80.0,120,96,10.0,0.0
2360,81.0,0,96,10.0,0.0
2361,73.0,120,96,11.0,0.0
2362,73.0,6,3792,0.0,0.0
2363,33.0,24,312,14.0,0.0
2364,57.0,0,4752,1.0,0.0
2365,64.0,6,1872,1.0,0.0
2366,45.0,0,312,13.0,0.0
2367,81.0,0,4752,0.0,0.0
2368,64.0,0,312,12.0,0.0
2369,81.0,96,96,10.0,0.0
2370,73.0,0,96,11.0,0.0
2371,73.0,0,96,11.0,0.0
2372,81.0,120,96,10.0,0.0
2373,73.0,120,96,11.0,0.0
2374,81.0,0,96,10.0,0.0
2375,69.0,102,234,12.0,0.0
2376,73.0,0,96,11.0,0.0
2377,81.0,120,96,10.0,0.0
2378,45.0,0,234,14.0,0.0
2379,69.0,0,234,2.0,0.0
2380,57.0,0,234,13.0,0.0
2381,73.0,18,96,11.0,0.0
2382,81.0,0,96,10.0,0.0
2383,73.0,0,96,11.0,0.0
2384,81.0,102,96,10.0,0.0
2385,45.0,0,78,14.0,0.0
2386,57.0,0,78,13.0,0.0
2387,69.0,0,78,2.0,0.0
2388,81.0,120,96,10.0,0.0
2389,69.0,18,78,12.0,0.0
2390,73.0,0,96,11.0,0.0
2391,69.0,0,312,12.0,0.0
2392,81.0,120,96,10.0,0.0
2393,57.0,0,312,13.0,0.0
2394,45.0,24,312,14.0,0.0
2395,69.0,72,384,2.0,0.0
2396,73.0,0,96,11.0,0.0
2397,73.0,0,96,11.0,0.0
2398,81.0,96,96,10.0,0.0
2399,73.0,0,96,11.0,0.0
2400,81.0,48,96,10.0,0.0
2401,73.0,0,96,11.0,0.0
2402,81.0,120,96,10.0,0.0
2403,49.0,0,234,14.0,0.0
2404,73.0,0,234,12.0,0.0
2405,61.0,102,234,13.0,0.0
2406,81.0,120,96,10.0,0.0
2407,73.0,0,96,11.0,0.0
2408,81.0,0,96,10.0,0.0
2409,73.0,18,96,11.0,0.0
2410,81.0,0,96,10.0,0.0
2411,73.0,96,96,11.0,0.0
2412,81.0,0,96,10.0,0.0
2413,73.0,120,96,11.0,0.0
2414,53.0,0,78,13.0,0.0
2415,65.0,0,78,12.0,0.0
2416,41.0,18,78,14.0,0.0
2417,66.0,24,312,12.0,0.0
2418,81.0,120,96,10.0,0.0
2419,66.0,0,2832,1.0,0.0
2420,73.0,0,96,11.0,0.0
2421,42.0,0,312,14.0,0.0
2422,54.0,0,312,13.0,0.0
2423,81.0,96,96,10.0,0.0
2424,73.0,0,96,11.0,0.0
2425,73.0,0,96,11.0,0.0
2426,81.0,120,96,10.0,0.0
2427,81.0,0,96,10.0,0.0
2428,73.0,120,96,11.0,0.0
2429,66.0,0,234,12.0,0.0
2430,81.0,120,96,10.0,0.0
2431,73.0,0,96,11.0,0.0
2432,69.0,102,234,2.0,0.0
2433,42.0,0,234,14.0,0.0
2434,54.0,0,234,13.0,0.0
2435,81.0,18,96,10.0,0.0
2436,73.0,0,96,11.0,0.0
2437,73.0,102,96,11.0,0.0
2438,81.0,0,96,10.0,0.0
2439,81.0,0,96,10.0,0.0
2440,69.0,0,78,2.0,0.0
2441,66.0,18,78,12.0,0.0
2442,42.0,0,78,14.0,0.0
2443,73.0,120,96,11.0,0.0
2444,54.0,0,78,13.0,0.0
2445,42.0,0,312,14.0,0.0
2446,54.0,24,312,13.0,0.0
2447,69.0,72,384,2.0,0.0
2448,73.0,120,96,11.0,0.0
2449,81.0,0,96,10.0,0.0
2450,66.0,0,312,12.0,0.0
2451,73.0,96,96,11.0,0.0
2452,81.0,0,96,10.0,0.0
2453,81.0,0,96,10.0,0.0
2454,73.0,48,96,11.0,0.0
2455,81.0,0,96,10.0,0.0
2456,73.0,120,96,11.0,0.0
2457,57.0,102,234,13.0,0.0
2458,45.0,0,234,14.0,0.0
2459,69.0,0,234,12.0,0.0
2460,73.0,0,96,11.0,0.0
2461,81.0,120,96,10.0,0.0
2462,73.0,0,96,11.0,0.0
2463,81.0,18,96,10.0,0.0
2464,81.0,0,96,10.0,0.0
2465,73.0,96,96,11.0,0.0
2466,81.0,0,96,10.0,0.0
2467,61.0,0,78,12.0,0.0
2468,37.0,18,78,14.0,0.0
2469,49.0,0,78,13.0,0.0
2470,73.0,120,96,11.0,0.0
2471,78.0,0,912,2.0,0.0
2472,62.0,24,312,12.0,0.0
2473,81.0,120,96,10.0,0.0
2474,74.0,6,912,2.0,0.0
2475,71.0,0,1872,0.0,0.0
2476,71.0,0,96,11.0,0.0
2477,50.0,0,312,13.0,0.0
2478,38.0,0,312,14.0,0.0
2479,71.0,0,96,11.0,0.0
2480,81.0,96,96,10.0,0.0
2481,71.0,0,96,11.0,0.0
2482,81.0,120,96,10.0,0.0
2483,81.0,0,96,10.0,0.0
2484,71.0,120,96,11.0,0.0
2485,71.0,0,96,11.0,0.0
2486,42.0,102,234,14.0,0.0
2487,66.0,0,234,12.0,0.0
2488,54.0,0,234,13.0,0.0
2489,81.0,120,96,10.0,0.0
2490,81.0,0,96,10.0,0.0
2491,71.0,18,96,11.0,0.0
2492,81.0,0,96,10.0,0.0
2493,71.0,96,96,11.0,0.0
2494,81.0,120,96,10.0,0.0
2495,50.0,0,78,13.0,0.0
2496,62.0,0,78,12.0,0.0
2497,38.0,18,78,14.0,0.0
2498,71.0,0,96,11.0,0.0
2499,64.0,0,912,1.0,0.0
2500,71.0,120,96,11.0,0.0
2501,64.0,0,312,12.0,0.0
2502,76.0,0,912,2.0,0.0
2503,80.0,0,96,10.0,0.0
2504,80.0,6,912,0.0,0.0
2505,52.0,0,312,13.0,0.0
2506,40.0,24,312,14.0,0.0
2507,80.0,96,96,10.0,0.0
2508,71.0,0,96,11.0,0.0
2509,71.0,0,96,11.0,0.0
2510,80.0,120,96,10.0,0.0
2511,80.0,0,96,10.0,0.0
2512,71.0,120,96,11.0,0.0
2513,80.0,0,96,10.0,0.0
2514,44.0,102,234,14.0,0.0
2515,56.0,0,234,13.0,0.0
2516,68.0,0,234,12.0,0.0
2517,71.0,120,96,11.0,0.0
2518,71.0,18,96,11.0,0.0
2519,80.0,0,96,10.0,0.0
2520,80.0,96,96,10.0,0.0
2521,71.0,0,96,11.0,0.0
2522,64.0,0,78,12.0,0.0
2523,52.0,0,78,13.0,0.0
2524,71.0,0,96,11.0,0.0
2525,40.0,18,78,14.0,0.0
2526,80.0,120,96,10.0,0.0
2527,64.0,6,1872,1.0,0.0
2528,33.0,0,312,14.0,0.0
2529,81.0,0,4752,0.0,0.0
2530,57.0,0,4752,1.0,0.0
2531,85.0,6,3792,0.0,0.0
2532,57.0,24,312,12.0,0.0
2533,45.0,0,312,13.0,0.0
2534,81.0,0,96,11.0,0.0
2535,85.0,120,96,10.0,0.0
2536,85.0,0,96,10.0,0.0
2537,81.0,96,96,11.0,0.0
2538,85.0,0,96,10.0,0.0
2539,81.0,120,96,11.0,0.0
2540,81.0,0,96,11.0,0.0
2541,85.0,120,96,10.0,0.0
2542,45.0,0,234,14.0,0.0
2543,81.0,120,96,11.0,0.0
2544,69.0,0,234,2.0,0.0
2545,85.0,0,96,10.0,0.0
2546,69.0,0,234,12.0,0.0
2547,57.0,102,234,13.0,0.0
2548,85.0,0,96,10.0,0.0
2549,81.0,18,96,11.0,0.0
2550,85.0,102,96,10.0,0.0
2551,81.0,0,96,11.0,0.0
2552,57.0,0,78,13.0,0.0
2553,45.0,0,78,14.0,0.0
2554,85.0,120,96,10.0,0.0
2555,69.0,0,78,12.0,0.0
2556,69.0,18,78,2.0,0.0
2557,81.0,0,96,11.0,0.0
2558,81.0,0,96,11.0,0.0
2559,69.0,24,312,12.0,0.0
2560,85.0,120,96,10.0,0.0
2561,57.0,0,312,13.0,0.0
2562,45.0,0,312,14.0,0.0
2563,69.0,72,384,2.0,0.0
2564,81.0,0,96,11.0,0.0
2565,85.0,96,96,10.0,0.0
2566,81.0,0,96,11.0,0.0
2567,85.0,48,96,10.0,0.0
2568,81.0,120,96,11.0,0.0
2569,85.0,0,96,10.0,0.0
2570,73.0,102,234,12.0,0.0
2571,81.0,0,96,11.0,0.0
2572,85.0,120,96,10.0,0.0
2573,61.0,0,234,13.0,0.0
2574,49.0,0,234,14.0,0.0
2575,81.0,18,96,11.0,0.0
2576,85.0,0,96,10.0,0.0
2577,85.0,0,96,10.0,0.0
2578,81.0,96,96,11.0,0.0
2579,81.0,0,96,11.0,0.0
2580,53.0,0,78,13.0,0.0
2581,65.0,0,78,12.0,0.0
2582,41.0,18,78,14.0,0.0
2583,85.0,120,96,10.0,0.0
2584,66.0,24,312,12.0,0.0
2585,81.0,120,96,11.0,0.0
2586,54.0,0,312,13.0,0.0
2587,85.0,0,96,10.0,0.0
2588,42.0,0,312,14.0,0.0
2589,66.0,0,2832,1.0,0.0
2590,85.0,96,96,10.0,0.0
2591,81.0,0,96,11.0,0.0
2592,85.0,0,96,10.0,0.0
2593,81.0,120,96,11.0,0.0
2594,85.0,120,96,10.0,0.0
2595,81.0,0,96,11.0,0.0
2596,69.0,0,234,2.0,0.0
2597,81.0,120,96,11.0,0.0
2598,42.0,0,234,14.0,0.0
2599,66.0,102,234,12.0,0.0
2600,85.0,0,96,10.0,0.0
2601,54.0,0,234,13.0,0.0
2602,85.0,18,96,10.0,0.0
2603,81.0,0,96,11.0,0.0
2604,85.0,0,96,10.0,0.0
2605,81.0,102,96,11.0,0.0
2606,85.0,120,96,10.0,0.0
2607,54.0,0,78,13.0,0.0
2608,69.0,18,78,2.0,0.0
2609,66.0,0,78,12.0,0.0
2610,42.0,0,78,14.0,0.0
2611,81.0,0,96,11.0,0.0
2612,66.0,24,312,12.0,0.0
2613,69.0,72,384,2.0,0.0
2614,42.0,0,312,14.0,0.0
2615,85.0,120,96,10.0,0.0
2616,81.0,0,96,11.0,0.0
2617,54.0,0,312,13.0,0.0
2618,81.0,0,96,11.0,0.0
2619,85.0,96,96,10.0,0.0
2620,81.0,48,96,11.0,0.0
2621,85.0,0,96,10.0,0.0
2622,85.0,0,96,10.0,0.0
2623,81.0,120,96,11.0,0.0
2624,81.0,0,96,11.0,0.0
2625,57.0,0,234,13.0,0.0
2626,69.0,0,234,12.0,0.0
2627,45.0,102,234,14.0,0.0
2628,85.0,120,96,10.0,0.0
2629,81.0,18,96,11.0,0.0
2630,85.0,0,96,10.0,0.0
2631,81.0,0,96,11.0,0.0
2632,85.0,96,96,10.0,0.0
2633,49.0,18,78,13.0,0.0
2634,81.0,0,96,11.0,0.0
2635,61.0,0,78,12.0,0.0
2636,85.0,120,96,10.0,0.0
2637,37.0,0,78,14.0,0.0
2638,62.0,24,312,12.0,0.0
2639,74.0,0,912,2.0,0.0
2640,81.0,0,96,11.0,0.0
2641,78.0,6,912,2.0,0.0
2642,83.0,6,1872,0.0,0.0
2643,50.0,0,312,13.0,0.0
2644,38.0,0,312,14.0,0.0
2645,83.0,120,96,10.0,0.0
2646,81.0,0,96,11.0,0.0
2647,83.0,96,96,10.0,0.0
2648,83.0,0,96,10.0,0.0
2649,81.0,120,96,11.0,0.0
2650,83.0,0,96,10.0,0.0
2651,81.0,120,96,11.0,0.0
2652,54.0,0,234,13.0,0.0
2653,83.0,120,96,10.0,0.0
2654,81.0,0,96,11.0,0.0
2655,66.0,102,234,12.0,0.0
2656,42.0,0,234,14.0,0.0
2657,81.0,0,96,11.0,0.0
2658,83.0,18,96,10.0,0.0
2659,81.0,0,96,11.0,0.0
2660,83.0,96,96,10.0,0.0
2661,81.0,0,96,11.0,0.0
2662,50.0,0,78,13.0,0.0
2663,38.0,18,78,14.0,0.0
2664,62.0,0,78,12.0,0.0
2665,83.0,120,96,10.0,0.0
2666,83.0,120,96,10.0,0.0
2667,52.0,0,312,13.0,0.0
2668,64.0,0,912,1.0,0.0
2669,80.0,0,96,11.0,0.0
2670,40.0,0,312,14.0,0.0
2671,80.0,0,912,0.0,0.0
2672,64.0,24,312,12.0,0.0
2673,76.0,0,912,2.0,0.0
2674,83.0,0,96,10.0,0.0
2675,80.0,96,96,11.0,0.0
2676,80.0,0,96,11.0,0.0
2677,83.0,120,96,10.0,0.0
2678,83.0,0,96,10.0,0.0
2679,80.0,120,96,11.0,0.0
2680,44.0,0,234,14.0,0.0
2681,83.0,120,96,10.0,0.0
2682,68.0,0,234,12.0,0.0
2683,56.0,102,234,13.0,0.0
2684,80.0,0,96,11.0,0.0
2685,83.0,18,96,10.0,0.0
2686,80.0,0,96,11.0,0.0
2687,83.0,96,96,10.0,0.0
2688,80.0,0,96,11.0,0.0
2689,80.0,0,96,11.0,0.0
2690,40.0,0,78,14.0,0.0
2691,83.0,408,96,10.0,0.0
2692,52.0,18,78,13.0,0.0
2693,64.0,0,78,12.0,0.0
2694,81.0,0,384,10.0,0.0
2695,81.0,0,384,11.0,0.0
2696,57.0,330,384,1.0,0.0
2697,81.0,0,384,0.0,0.0
2698,57.0,0,384,12.0,0.0
2699,33.0,0,384,14.0,0.0
2700,69.0,0,384,2.0,0.0
2701,76.0,0,384,2.0,0.0
2702,64.0,0,384,1.0,0.0
2703,45.0,0,384,13.0,0.0
2704,69.0,78,234,11.0,0.0
2705,57.0,126,312,13.0,0.0
2706,69.0,0,234,10.0,0.0
2707,45.0,0,312,14.0,0.0
2708,69.0,0,78,11.0,0.0
2709,69.0,354,78,10.0,0.0
2710,45.0,0,312,14.0,0.0
2711,57.0,0,312,13.0,0.0
2712,69.0,402,312,10.0,0.0
2713,69.0,0,312,11.0,0.0
2714,64.0,78,234,11.0,0.0
2715,40.0,0,312,14.0,0.0
2716,52.0,126,312,13.0,0.0
2717,64.0,0,234,10.0,0.0
2718,64.0,0,78,10.0,0.0
2719,64.0,354,78,11.0,0.0
2720,64.0,0,312,11.0,0.0
2721,64.0,402,312,10.0,0.0
2722,52.0,0,312,13.0,0.0
2723,40.0,0,312,14.0,0.0
2724,37.0,126,312,14.0,0.0
2725,61.0,0,234,10.0,0.0
2726,61.0,78,234,11.0,0.0
2727,49.0,0,312,13.0,0.0
2728,61.0,0,78,11.0,0.0
2729,61.0,354,78,10.0,0.0
2730,61.0,0,312,11.0,0.0
2731,61.0,0,312,10.0,0.0
2732,49.0,0,312,13.0,0.0
2733,37.0,402,312,14.0,0.0
2734,57.0,78,234,11.0,0.0
2735,45.0,126,312,13.0,0.0
2736,33.0,0,312,14.0,0.0
2737,57.0,0,234,10.0,0.0
2738,57.0,0,78,11.0,0.0
2739,57.0,426,78,10.0,0.0
2740,57.0,0,384,11.0,0.0
2741,33.0,0,384,14.0,0.0
2742,45.0,0,384,13.0,0.0
2743,57.0,330,384,10.0,0.0
2744,57.0,0,312,13.0,0.0
2745,45.0,126,312,14.0,0.0
2746,66.0,0,234,1.0,0.0
2747,84.0,0,234,0.0,0.0
2748,84.0,0,234,10.0,0.0
2749,78.0,0,234,11.0,0.0
2750,75.0,0,234,0.0,0.0
2751,57.0,0,234,1.0,0.0
2752,57.0,0,312,2.0,0.0
2753,69.0,0,312,2.0,0.0
2754,69.0,78,234,12.0,0.0
2755,75.0,0,234,11.0,0.0
2756,66.0,0,78,1.0,0.0
2757,69.0,0,78,12.0,0.0
2758,84.0,0,78,10.0,0.0
2759,75.0,0,78,11.0,0.0
2760,57.0,0,78,1.0,0.0
2761,78.0,0,78,11.0,0.0
2762,75.0,0,78,0.0,0.0
2763,84.0,354,78,0.0,0.0
2764,84.0,0,312,0.0,0.0
2765,45.0,0,312,14.0,0.0
2766,75.0,0,312,11.0,0.0
2767,78.0,0,312,11.0,0.0
2768,69.0,0,312,12.0,0.0
2769,57.0,0,312,1.0,0.0
2770,69.0,0,312,2.0,0.0
2771,66.0,402,312,1.0,0.0
2772,75.0,0,312,0.0,0.0
2773,57.0,0,312,2.0,0.0
2774,84.0,0,312,10.0,0.0
2775,57.0,0,312,13.0,0.0
2776,84.0,0,234,10.0,0.0
2777,75.0,78,234,0.0,0.0
2778,45.0,0,312,14.0,0.0
2779,78.0,0,234,11.0,0.0
2780,66.0,0,234,1.0,0.0
2781,69.0,126,312,2.0,0.0
2782,84.0,0,234,0.0,0.0
2783,75.0,0,234,11.0,0.0
2784,57.0,0,312,2.0,0.0
2785,69.0,0,234,12.0,0.0
2786,57.0,0,234,1.0,0.0
2787,57.0,0,312,13.0,0.0
2788,75.0,0,78,0.0,0.0
2789,84.0,354,78,10.0,0.0
2790,66.0,0,78,1.0,0.0
2791,57.0,0,78,1.0,0.0
2792,78.0,0,78,11.0,0.0
2793,75.0,0,78,11.0,0.0
2794,69.0,0,78,12.0,0.0
2795,84.0,0,78,0.0,0.0
2796,57.0,0,312,2.0,0.0
2797,69.0,0,312,2.0,0.0
2798,75.0,0,312,0.0,0.0
2799,57.0,0,312,13.0,0.0
2800,57.0,0,312,1.0,0.0
2801,84.0,0,312,10.0,0.0
2802,84.0,0,312,0.0,0.0
2803,66.0,0,312,1.0,0.0
2804,75.0,402,312,11.0,0.0
2805,69.0,0,312,12.0,0.0
2806,78.0,0,312,11.0,0.0
2807,45.0,0,312,14.0,0.0
2808,75.0,0,234,11.0,0.0
2809,78.0,0,234,11.0,0.0
2810,69.0,0,234,12.0,0.0
2811,75.0,0,234,0.0,0.0
2812,84.0,0,234,0.0,0.0
2813,69.0,0,312,2.0,0.0
2814,57.0,126,312,2.0,0.0
2815,57.0,0,312,13.0,0.0
2816,57.0,78,234,1.0,0.0
2817,84.0,0,234,10.0,0.0
2818,66.0,0,234,1.0,0.0
2819,45.0,0,312,14.0,0.0
2820,69.0,0,78,12.0,0.0
2821,84.0,0,78,10.0,0.0
2822,78.0,0,78,11.0,0.0
2823,75.0,354,78,11.0,0.0
2824,57.0,0,78,1.0,0.0
2825,84.0,0,78,0.0,0.0
2826,75.0,0,78,0.0,0.0
2827,66.0,0,78,1.0,0.0
2828,75.0,0,312,11.0,0.0
2829,69.0,0,312,2.0,0.0
2830,57.0,402,312,2.0,0.0
2831,57.0,0,312,13.0,0.0
2832,78.0,0,312,11.0,0.0
2833,84.0,0,312,10.0,0.0
2834,45.0,0,312,14.0,0.0
2835,57.0,0,312,1.0,0.0
2836,66.0,0,312,1.0,0.0
2837,75.0,0,312,0.0,0.0
2838,69.0,0,312,12.0,0.0
2839,84.0,0,312,0.0,0.0
2840,69.0,78,234,12.0,0.0
2841,57.0,0,234,1.0,0.0
2842,66.0,0,234,1.0,0.0
2843,84.0,0,234,0.0,0.0
2844,75.0,0,234,11.0,0.0
2845,78.0,0,234,11.0,0.0
2846,57.0,0,312,2.0,0.0
2847,84.0,0,234,10.0,0.0
2848,57.0,126,312,13.0,0.0
2849,75.0,0,234,0.0,0.0
2850,69.0,0,312,2.0,0.0
2851,45.0,0,312,14.0,0.0
2852,57.0,0,78,1.0,0.0
2853,78.0,0,78,11.0,0.0
2854,75.0,0,78,11.0,0.0
2855,75.0,0,78,0.0,0.0
2856,84.0,0,78,0.0,0.0
2857,69.0,0,78,12.0,0.0
2858,66.0,0,78,1.0,0.0
2859,84.0,426,78,10.0,0.0
2860,84.0,0,384,10.0,0.0
2861,57.0,2304,384,13.0,0.0
2862,78.0,0,384,11.0,0.0
2863,75.0,0,384,11.0,0.0
2864,84.0,0,384,0.0,0.0
2865,75.0,0,384,0.0,0.0
2866,57.0,0,384,1.0,0.0
2867,69.0,0,384,2.0,0.0
2868,69.0,0,384,12.0,0.0
2869,66.0,0,384,1.0,0.0
2870,45.0,0,384,14.0,0.0
2871,71.0,240,480,11.0,0.0
2872,67.0,0,480,12.0,0.0
2873,76.0,168,288,10.0,0.0
2874,76.0,24,96,10.0,0.0
2875,69.0,228,384,12.0,0.0
2876,72.0,0,384,11.0,0.0
2877,76.0,132,240,10.0,0.0
2878,78.0,12,132,10.0,0.0
2879,66.0,240,480,12.0,0.0
2880,69.0,0,480,11.0,0.0
2881,76.0,240,132,10.0,0.0
2882,75.0,108,132,10.0,0.0
2883,64.0,0,384,12.0,0.0
2884,78.0,132,240,10.0,0.0
2885,67.0,228,384,11.0,0.0
2886,76.0,12,132,10.0,0.0
2887,67.0,240,480,12.0,0.0
2888,76.0,240,132,10.0,0.0
2889,71.0,0,480,11.0,0.0
2890,76.0,108,132,10.0,0.0
2891,72.0,228,384,11.0,0.0
2892,76.0,132,240,10.0,0.0
2893,69.0,0,384,12.0,0.0
2894,78.0,12,132,10.0,0.0
2895,66.0,0,480,12.0,0.0
2896,76.0,240,132,10.0,0.0
2897,69.0,240,480,11.0,0.0
2898,75.0,108,132,10.0,0.0
2899,67.0,228,384,11.0,0.0
2900,78.0,132,240,10.0,0.0
2901,64.0,0,384,12.0,0.0
2902,76.0,12,132,10.0,0.0
2903,76.0,240,132,10.0,0.0
2904,67.0,0,480,12.0,0.0
2905,71.0,240,480,11.0,0.0
2906,76.0,108,132,10.0,0.0
2907,76.0,132,240,10.0,0.0
2908,69.0,228,384,12.0,0.0
2909,72.0,0,384,11.0,0.0
2910,78.0,12,132,10.0,0.0
2911,69.0,0,480,11.0,0.0
2912,66.0,384,480,12.0,0.0
2913,76.0,240,132,10.0,0.0
2914,75.0,108,132,10.0,0.0
2915,64.0,0,384,12.0,0.0
2916,67.0,0,384,11.0,0.0
2917,76.0,330,384,10.0,0.0
2918,64.0,0,312,13.0,0.0
2919,76.0,0,234,11.0,0.0
2920,76.0,78,234,10.0,0.0
2921,52.0,126,312,14.0,0.0
2922,76.0,354,78,11.0,0.0
2923,76.0,0,78,10.0,0.0
2924,76.0,0,312,10.0,0.0
2925,52.0,402,312,14.0,0.0
2926,76.0,0,312,11.0,0.0
2927,64.0,0,312,13.0,0.0
2928,71.0,78,234,11.0,0.0
2929,47.0,126,312,14.0,0.0
2930,59.0,0,312,13.0,0.0
2931,71.0,0,234,10.0,0.0
2932,71.0,0,78,11.0,0.0
2933,71.0,354,78,10.0,0.0
2934,71.0,0,312,10.0,0.0
2935,59.0,0,312,13.0,0.0
2936,71.0,402,312,11.0,0.0
2937,47.0,0,312,14.0,0.0
2938,55.0,0,312,13.0,0.0
2939,67.0,78,234,11.0,0.0
2940,67.0,0,234,10.0,0.0
2941,43.0,126,312,14.0,0.0
2942,67.0,354,78,10.0,0.0
2943,67.0,0,78,11.0,0.0
2944,67.0,402,312,11.0,0.0
2945,67.0,0,312,10.0,0.0
2946,43.0,0,312,14.0,0.0
2947,55.0,0,312,13.0,0.0
2948,40.0,0,312,14.0,0.0
2949,52.0,126,312,13.0,0.0
2950,64.0,78,234,10.0,0.0
2951,64.0,0,234,11.0,0.0
2952,64.0,426,78,10.0,0.0
2953,64.0,0,78,11.0,0.0
2954,40.0,0,384,14.0,0.0
2955,52.0,0,384,13.0,0.0
2956,64.0,330,384,11.0,0.0
2957,64.0,0,384,10.0,0.0
2958,79.0,0,234,10.0,0.0
2959,79.0,0,234,0.0,0.0
2960,76.0,126,312,2.0,0.0
2961,70.0,0,234,11.0,0.0
2962,52.0,0,312,14.0,0.0
2963,73.0,0,234,11.0,0.0
2964,52.0,0,234,12.0,0.0
2965,61.0,0,234,12.0,0.0
2966,64.0,0,234,1.0,0.0
2967,64.0,0,312,13.0,0.0
2968,70.0,78,234,0.0,0.0
2969,70.0,0,78,11.0,0.0
2970,73.0,0,78,11.0,0.0
2971,79.0,354,78,10.0,0.0
2972,79.0,0,78,0.0,0.0
2973,70.0,0,78,0.0,0.0
2974,64.0,0,78,1.0,0.0
2975,52.0,0,78,12.0,0.0
2976,61.0,0,78,12.0,0.0
2977,61.0,0,312,12.0,0.0
2978,52.0,0,312,12.0,0.0
2979,70.0,0,312,0.0,0.0
2980,76.0,0,312,2.0,0.0
2981,64.0,0,312,1.0,0.0
2982,52.0,0,312,14.0,0.0
2983,64.0,0,312,13.0,0.0
2984,79.0,0,312,0.0,0.0
2985,79.0,0,312,10.0,0.0
2986,73.0,402,312,11.0,0.0
2987,70.0,0,312,11.0,0.0
2988,64.0,0,312,13.0,0.0
2989,61.0,0,234,12.0,0.0
2990,52.0,0,312,14.0,0.0
2991,52.0,0,234,12.0,0.0
2992,70.0,0,234,0.0,0.0
2993,73.0,0,234,11.0,0.0
2994,70.0,0,234,11.0,0.0
2995,79.0,0,234,10.0,0.0
2996,76.0,126,312,2.0,0.0
2997,64.0,0,234,1.0,0.0
2998,79.0,78,234,0.0,0.0
2999,73.0,354,78,11.0,0.0
3000,70.0,0,78,11.0,0.0
3001,52.0,0,78,12.0,0.0
3002,61.0,0,78,12.0,0.0
3003,70.0,0,78,0.0,0.0
3004,64.0,0,78,1.0,0.0
3005,79.0,0,78,0.0,0.0
3006,79.0,0,78,10.0,0.0
3007,73.0,0,312,11.0,0.0
3008,76.0,0,312,2.0,0.0
3009,79.0,0,312,10.0,0.0
3010,70.0,0,312,11.0,0.0
3011,61.0,0,312,12.0,0.0
3012,52.0,0,312,12.0,0.0
3013,79.0,0,312,0.0,0.0
3014,52.0,0,312,14.0,0.0
3015,64.0,0,312,1.0,0.0
3016,64.0,402,312,13.0,0.0
3017,70.0,0,312,0.0,0.0
3018,79.0,0,234,0.0,0.0
3019,79.0,0,234,10.0,0.0
3020,76.0,0,312,2.0,0.0
3021,64.0,0,234,1.0,0.0
3022,64.0,0,312,13.0,0.0
3023,52.0,0,234,12.0,0.0
3024,70.0,0,234,0.0,0.0
3025,61.0,78,234,12.0,0.0
3026,52.0,126,312,14.0,0.0
3027,70.0,0,234,11.0,0.0
3028,73.0,0,234,11.0,0.0
3029,73.0,0,78,11.0,0.0
3030,70.0,0,78,11.0,0.0
3031,52.0,0,78,12.0,0.0
3032,70.0,0,78,0.0,0.0
3033,79.0,0,78,10.0,0.0
3034,64.0,0,78,1.0,0.0
3035,61.0,354,78,12.0,0.0
3036,79.0,0,78,0.0,0.0
3037,79.0,0,312,10.0,0.0
3038,79.0,0,312,0.0,0.0
3039,70.0,0,312,0.0,0.0
3040,52.0,0,312,12.0,0.0
3041,64.0,0,312,13.0,0.0
3042,76.0,0,312,2.0,0.0
3043,64.0,0,312,1.0,0.0
3044,61.0,402,312,12.0,0.0
3045,73.0,0,312,11.0,0.0
3046,70.0,0,312,11.0,0.0
3047,52.0,0,312,14.0,0.0
3048,70.0,0,234,11.0,0.0
3049,79.0,0,234,10.0,0.0
3050,70.0,0,234,0.0,0.0
3051,73.0,78,234,11.0,0.0
3052,52.0,0,234,12.0,0.0
3053,64.0,0,312,13.0,0.0
3054,76.0,126,312,2.0,0.0
3055,64.0,0,234,1.0,0.0
3056,61.0,0,234,12.0,0.0
3057,52.0,0,312,14.0,0.0
3058,79.0,0,234,0.0,0.0
3059,52.0,0,78,12.0,0.0
3060,61.0,426,78,12.0,0.0
3061,64.0,0,78,1.0,0.0
3062,79.0,0,78,0.0,0.0
3063,70.0,0,78,0.0,0.0
3064,73.0,0,78,11.0,0.0
3065,70.0,0,78,11.0,0.0
3066,79.0,0,78,10.0,0.0
3067,73.0,2304,384,11.0,0.0
3068,79.0,0,384,0.0,0.0
3069,76.0,0,384,2.0,0.0
3070,64.0,0,384,13.0,0.0
3071,70.0,0,384,0.0,0.0
3072,79.0,0,384,10.0,0.0
3073,61.0,0,384,12.0,0.0
3074,64.0,0,384,1.0,0.0
3075,52.0,0,384,12.0,0.0
3076,70.0,0,384,11.0,0.0
3077,52.0,0,384,14.0,0.0
3078,66.0,0,480,11.0,0.0
3079,62.0,240,480,12.0,0.0
3080,71.0,168,288,10.0,0.0
3081,71.0,24,96,10.0,0.0
3082,64.0,228,384,12.0,0.0
3083,67.0,0,384,11.0,0.0
3084,71.0,132,240,10.0,0.0
3085,73.0,12,132,10.0,0.0
3086,61.0,240,480,12.0,0.0
3087,71.0,240,132,10.0,0.0
3088,64.0,0,480,11.0,0.0
3089,70.0,108,132,10.0,0.0
3090,73.0,132,240,10.0,0.0
3091,62.0,228,384,11.0,0.0
3092,59.0,0,384,12.0,0.0
3093,71.0,12,132,10.0,0.0
3094,71.0,240,132,10.0,0.0
3095,66.0,240,480,11.0,0.0
3096,62.0,0,480,12.0,0.0
3097,71.0,108,132,10.0,0.0
3098,64.0,0,384,12.0,0.0
3099,67.0,228,384,11.0,0.0
3100,71.0,132,240,10.0,0.0
3101,73.0,12,132,10.0,0.0
3102,64.0,0,480,11.0,0.0
3103,71.0,240,132,10.0,0.0
3104,61.0,240,480,12.0,0.0
3105,70.0,108,132,10.0,0.0
3106,73.0,132,240,10.0,0.0
3107,62.0,0,384,11.0,0.0
3108,59.0,228,384,12.0,0.0
3109,71.0,12,132,10.0,0.0
3110,66.0,240,480,11.0,0.0
3111,71.0,240,132,10.0,0.0
3112,62.0,0,480,12.0,0.0
3113,71.0,108,132,10.0,0.0
3114,64.0,0,384,12.0,0.0
3115,67.0,228,384,11.0,0.0
3116,71.0,132,240,10.0,0.0
3117,73.0,12,132,10.0,0.0
3118,71.0,240,132,10.0,0.0
3119,61.0,384,480,12.0,0.0
3120,64.0,0,480,11.0,0.0
3121,70.0,108,132,10.0,0.0
3122,59.0,330,384,12.0,0.0
3123,62.0,0,384,11.0,0.0
3124,71.0,0,384,10.0,0.0
3125,71.0,0,234,10.0,0.0
3126,47.0,0,312,14.0,0.0
3127,59.0,126,312,13.0,0.0
3128,71.0,78,234,11.0,0.0
3129,71.0,0,78,11.0,0.0
3130,71.0,354,78,10.0,0.0
3131,71.0,0,312,11.0,0.0
3132,71.0,402,312,10.0,0.0
3133,47.0,0,312,14.0,0.0
3134,59.0,0,312,13.0,0.0
3135,66.0,0,234,11.0,0.0
3136,66.0,78,234,10.0,0.0
3137,42.0,126,312,14.0,0.0
3138,54.0,0,312,13.0,0.0
3139,66.0,354,78,11.0,0.0
3140,66.0,0,78,10.0,0.0
3141,42.0,0,312,14.0,0.0
3142,54.0,0,312,13.0,0.0
3143,66.0,0,312,10.0,0.0
3144,66.0,402,312,11.0,0.0
3145,38.0,126,312,14.0,0.0
3146,62.0,0,234,10.0,0.0
3147,50.0,0,312,13.0,0.0
3148,62.0,78,234,11.0,0.0
3149,62.0,354,78,11.0,0.0
3150,62.0,0,78,10.0,0.0
3151,62.0,0,312,11.0,0.0
3152,38.0,402,312,14.0,0.0
3153,62.0,0,312,10.0,0.0
3154,50.0,0,312,13.0,0.0
3155,47.0,0,312,13.0,0.0
3156,59.0,0,234,11.0,0.0
3157,35.0,126,312,14.0,0.0
3158,59.0,78,234,10.0,0.0
3159,59.0,0,78,10.0,0.0
3160,59.0,354,78,11.0,0.0
3161,35.0,0,312,14.0,0.0
3162,59.0,0,312,10.0,0.0
3163,47.0,456,312,13.0,0.0
3164,59.0,0,312,11.0,0.0
3165,74.0,168,288,10.0,0.0
3166,74.0,408,96,10.0,0.0
3167,74.0,330,384,10.0,0.0
3168,54.0,0,234,13.0,0.0
3169,42.0,0,234,14.0,0.0
3170,69.0,384,480,0.0,0.0
3171,50.0,0,234,1.0,0.0
3172,62.0,78,234,1.0,0.0
3173,74.0,0,312,2.0,0.0
3174,62.0,126,312,2.0,0.0
3175,72.0,0,480,0.0,0.0
3176,60.0,0,234,11.0,0.0
3177,57.0,0,234,12.0,0.0
3178,42.0,0,78,14.0,0.0
3179,62.0,0,78,1.0,0.0
3180,60.0,0,78,11.0,0.0
3181,57.0,42,78,12.0,0.0
3182,50.0,0,78,1.0,0.0
3183,54.0,0,78,13.0,0.0
3184,55.0,0,384,12.0,0.0
3185,43.0,0,384,14.0,0.0
3186,71.0,0,384,0.0,0.0
3187,50.0,0,384,1.0,0.0
3188,67.0,0,384,0.0,0.0
3189,59.0,0,384,11.0,0.0
3190,74.0,0,384,2.0,0.0
3191,62.0,0,384,2.0,0.0
3192,55.0,384,384,13.0,0.0
3193,62.0,0,384,1.0,0.0
3194,76.0,168,288,10.0,0.0
3195,76.0,408,96,10.0,0.0
3196,76.0,330,384,10.0,0.0
3197,64.0,150,288,1.0,0.0
3198,62.0,0,234,11.0,0.0
3199,59.0,0,234,12.0,0.0
3200,44.0,0,234,14.0,0.0
3201,56.0,54,234,13.0,0.0
3202,44.0,18,78,14.0,0.0
3203,59.0,0,78,12.0,0.0
3204,64.0,408,96,1.0,0.0
3205,62.0,0,78,11.0,0.0
3206,56.0,0,78,13.0,0.0
3207,64.0,0,384,1.0,0.0
3208,61.0,0,384,11.0,0.0
3209,57.0,0,384,12.0,0.0
3210,45.0,384,384,14.0,0.0
3211,57.0,0,384,13.0,0.0
3212,78.0,168,288,10.0,0.0
3213,78.0,408,96,10.0,0.0
3214,78.0,330,384,10.0,0.0
3215,61.0,0,234,12.0,0.0
3216,66.0,78,234,1.0,0.0
3217,46.0,0,234,14.0,0.0
3218,73.0,0,480,0.0,0.0
3219,64.0,0,234,11.0,0.0
3220,78.0,126,312,2.0,0.0
3221,76.0,384,480,0.0,0.0
3222,66.0,0,312,2.0,0.0
3223,58.0,0,234,13.0,0.0
3224,54.0,0,234,1.0,0.0
3225,66.0,0,78,1.0,0.0
3226,61.0,0,78,12.0,0.0
3227,54.0,0,78,1.0,0.0
3228,58.0,42,78,13.0,0.0
3229,46.0,0,78,14.0,0.0
3230,64.0,0,78,11.0,0.0
3231,54.0,0,384,1.0,0.0
3232,47.0,0,384,14.0,0.0
3233,66.0,0,384,1.0,0.0
3234,71.0,0,384,0.0,0.0
3235,62.0,0,384,11.0,0.0
3236,66.0,384,384,2.0,0.0
3237,59.0,0,384,13.0,0.0
3238,59.0,0,384,12.0,0.0
3239,74.0,0,384,0.0,0.0
3240,78.0,0,384,2.0,0.0
3241,81.0,168,288,10.0,0.0
3242,81.0,408,96,10.0,0.0
3243,81.0,384,384,10.0,0.0
3244,61.0,0,288,13.0,0.0
3245,69.0,0,288,1.0,0.0
3246,64.0,0,288,12.0,0.0
3247,49.0,0,288,14.0,0.0
3248,67.0,168,288,11.0,0.0
3249,69.0,0,96,1.0,0.0
3250,61.0,0,96,13.0,0.0
3251,67.0,408,96,11.0,0.0
3252,64.0,0,96,12.0,0.0
3253,49.0,0,96,14.0,0.0
3254,62.0,0,384,13.0,0.0
3255,69.0,384,384,1.0,0.0
3256,62.0,0,384,12.0,0.0
3257,66.0,0,384,11.0,0.0
3258,50.0,0,384,14.0,0.0
3259,57.0,168,288,10.0,0.0
3260,57.0,408,96,10.0,0.0
3261,57.0,384,384,10.0,0.0
3262,81.0,168,288,0.0,0.0
3263,62.0,0,288,12.0,0.0
3264,66.0,0,288,11.0,0.0
3265,62.0,0,96,12.0,0.0
3266,66.0,0,96,11.0,0.0
3267,81.0,408,96,0.0,0.0
3268,61.0,0,384,12.0,0.0
3269,57.0,0,384,13.0,0.0
3270,64.0,0,384,11.0,0.0
3271,45.0,0,384,14.0,0.0
3272,81.0,384,384,0.0,0.0
3273,81.0,168,288,10.0,0.0
3274,81.0,408,96,10.0,0.0
3275,81.0,384,384,10.0,0.0
3276,64.0,168,288,12.0,0.0
3277,57.0,0,288,1.0,0.0
3278,67.0,0,288,11.0,0.0
3279,67.0,0,96,11.0,0.0
3280,64.0,408,96,12.0,0.0
3281,57.0,0,96,1.0,0.0
3282,38.0,0,384,14.0,0.0
3283,57.0,0,384,1.0,0.0
3284,66.0,384,384,11.0,0.0
3285,50.0,0,384,13.0,0.0
3286,62.0,0,384,12.0,0.0
3287,57.0,168,288,10.0,0.0
3288,57.0,408,96,10.0,0.0
3289,57.0,384,384,10.0,0.0
3290,81.0,168,288,0.0,0.0
3291,62.0,0,288,12.0,0.0
3292,66.0,0,288,11.0,0.0
3293,66.0,216,96,11.0,0.0
3294,81.0,0,96,0.0,0.0
3295,62.0,0,96,12.0,0.0
3296,45.0,0,384,13.0,0.0
3297,33.0,288,384,14.0,0.0
3298,81.0,0,384,0.0,0.0
3299,64.0,0,192,11.0,0.0
3300,61.0,192,192,12.0,0.0
3301,81.0,168,288,10.0,0.0
3302,57.0,0,288,1.0,0.0
3303,66.0,0,192,11.0,0.0
3304,62.0,96,192,12.0,0.0
3305,81.0,0,96,10.0,0.0
3306,57.0,216,96,1.0,0.0
3307,45.0,288,384,13.0,0.0
3308,33.0,0,384,14.0,0.0
3309,61.0,0,192,12.0,0.0
3310,81.0,0,384,10.0,0.0
3311,64.0,192,192,11.0,0.0
3312,57.0,0,384,1.0,0.0
3313,81.0,168,288,0.0,0.0
3314,62.0,0,192,12.0,0.0
3315,66.0,96,192,11.0,0.0
3316,57.0,0,288,10.0,0.0
3317,81.0,408,96,0.0,0.0
3318,57.0,0,96,10.0,0.0
3319,57.0,0,384,10.0,0.0
3320,61.0,0,384,12.0,0.0
3321,81.0,1290,384,0.0,0.0
3322,64.0,0,384,11.0,0.0
3323,33.0,0,384,14.0,0.0
3324,45.0,0,384,13.0,0.0
3325,62.0,0,312,13.0,0.0
3326,74.0,78,234,0.0,0.0
3327,62.0,126,312,1.0,0.0
3328,74.0,0,312,2.0,0.0
3329,74.0,0,234,11.0,0.0
3330,74.0,0,234,10.0,0.0
3331,50.0,0,312,14.0,0.0
3332,62.0,0,234,12.0,0.0
3333,74.0,0,78,10.0,0.0
3334,74.0,0,78,11.0,0.0
3335,62.0,0,78,12.0,0.0
3336,74.0,354,78,0.0,0.0
3337,74.0,0,312,10.0,0.0
3338,50.0,402,312,14.0,0.0
3339,74.0,0,312,0.0,0.0
3340,62.0,0,312,12.0,0.0
3341,74.0,0,312,11.0,0.0
3342,62.0,0,312,13.0,0.0
3343,62.0,0,312,1.0,0.0
3344,74.0,0,312,2.0,0.0
3345,57.0,0,234,12.0,0.0
3346,57.0,0,312,1.0,0.0
3347,69.0,126,312,2.0,0.0
3348,57.0,0,312,13.0,0.0
3349,69.0,0,234,10.0,0.0
3350,45.0,0,312,14.0,0.0
3351,69.0,78,234,11.0,0.0
3352,69.0,0,234,0.0,0.0
3353,69.0,0,78,11.0,0.0
3354,69.0,0,78,10.0,0.0
3355,69.0,0,78,0.0,0.0
3356,57.0,354,78,12.0,0.0
3357,57.0,0,312,12.0,0.0
3358,69.0,0,312,2.0,0.0
3359,69.0,0,312,11.0,0.0
3360,57.0,402,312,1.0,0.0
3361,57.0,0,312,13.0,0.0
3362,45.0,0,312,14.0,0.0
3363,69.0,0,312,0.0,0.0
3364,69.0,0,312,10.0,0.0
3365,66.0,0,312,2.0,0.0
3366,66.0,0,234,0.0,0.0
3367,42.0,126,312,14.0,0.0
3368,54.0,0,234,12.0,0.0
3369,54.0,0,312,1.0,0.0
3370,54.0,0,312,13.0,0.0
3371,66.0,0,234,10.0,0.0
3372,66.0,78,234,11.0,0.0
3373,66.0,0,78,11.0,0.0
3374,54.0,0,78,12.0,0.0
3375,66.0,0,78,0.0,0.0
3376,66.0,354,78,10.0,0.0
3377,66.0,0,312,10.0,0.0
3378,66.0,0,312,11.0,0.0
3379,54.0,0,312,12.0,0.0
3380,54.0,0,312,1.0,0.0
3381,42.0,0,312,14.0,0.0
3382,66.0,0,312,0.0,0.0
3383,66.0,402,312,2.0,0.0
3384,54.0,0,312,13.0,0.0
3385,38.0,0,312,14.0,0.0
3386,50.0,0,312,13.0,0.0
3387,50.0,0,234,12.0,0.0
3388,62.0,0,234,0.0,0.0
3389,62.0,78,234,10.0,0.0
3390,50.0,126,312,1.0,0.0
3391,62.0,0,312,2.0,0.0
3392,62.0,0,234,11.0,0.0
3393,62.0,0,78,11.0,0.0
3394,62.0,0,78,10.0,0.0
3395,62.0,426,78,0.0,0.0
3396,50.0,0,78,12.0,0.0
3397,38.0,0,384,14.0,0.0
3398,62.0,0,384,11.0,0.0
3399,62.0,240,384,10.0,0.0
3400,62.0,0,384,2.0,0.0
3401,50.0,0,384,12.0,0.0
3402,50.0,0,384,1.0,0.0
3403,62.0,0,384,0.0,0.0
3404,50.0,0,384,13.0,0.0
3405,62.0,240,144,11.0,0.0
3406,78.0,0,144,10.0,0.0
3407,79.0,0,144,10.0,0.0
3408,64.0,240,144,11.0,0.0
3409,66.0,240,144,11.0,0.0
3410,81.0,0,144,10.0,0.0
3411,78.0,240,144,10.0,0.0
3412,62.0,0,144,11.0,0.0
3413,83.0,0,144,10.0,0.0
3414,67.0,240,144,11.0,0.0
3415,66.0,240,144,11.0,0.0
3416,81.0,0,144,10.0,0.0
3417,79.0,240,144,10.0,0.0
3418,64.0,0,144,11.0,0.0
3419,61.0,0,144,11.0,0.0
3420,76.0,240,144,10.0,0.0
3421,66.0,0,144,11.0,0.0
3422,81.0,240,144,10.0,0.0
3423,79.0,0,144,10.0,0.0
3424,64.0,240,144,11.0,0.0
3425,78.0,0,144,10.0,0.0
3426,62.0,240,144,11.0,0.0
3427,66.0,0,144,11.0,0.0
3428,74.0,240,144,10.0,0.0
3429,64.0,0,144,11.0,0.0
3430,79.0,240,144,10.0,0.0
3431,78.0,0,144,10.0,0.0
3432,62.0,480,144,11.0,0.0
3433,61.0,330,384,11.0,0.0
3434,76.0,0,384,10.0,0.0
3435,74.0,78,234,10.0,0.0
3436,62.0,0,312,1.0,0.0
3437,74.0,0,234,0.0,0.0
3438,62.0,0,234,12.0,0.0
3439,50.0,126,312,14.0,0.0
3440,74.0,0,234,11.0,0.0
3441,74.0,0,312,2.0,0.0
3442,62.0,0,312,13.0,0.0
3443,74.0,0,78,11.0,0.0
3444,74.0,0,78,10.0,0.0
3445,74.0,0,78,0.0,0.0
3446,62.0,354,78,12.0,0.0
3447,74.0,0,312,2.0,0.0
3448,62.0,0,312,13.0,0.0
3449,62.0,0,312,1.0,0.0
3450,74.0,0,312,11.0,0.0
3451,74.0,402,312,10.0,0.0
3452,74.0,0,312,0.0,0.0
3453,62.0,0,312,12.0,0.0
3454,50.0,0,312,14.0,0.0
3455,69.0,0,234,10.0,0.0
3456,69.0,0,234,11.0,0.0
3457,57.0,0,234,12.0,0.0
3458,57.0,0,312,1.0,0.0
3459,57.0,0,312,13.0,0.0
3460,69.0,126,312,2.0,0.0
3461,69.0,78,234,0.0,0.0
3462,45.0,0,312,14.0,0.0
3463,69.0,0,78,10.0,0.0
3464,69.0,0,78,0.0,0.0
3465,57.0,354,78,12.0,0.0
3466,69.0,0,78,11.0,0.0
3467,69.0,0,312,0.0,0.0
3468,45.0,402,312,14.0,0.0
3469,69.0,0,312,11.0,0.0
3470,69.0,0,312,2.0,0.0
3471,57.0,0,312,1.0,0.0
3472,57.0,0,312,13.0,0.0
3473,57.0,0,312,12.0,0.0
3474,69.0,0,312,10.0,0.0
3475,66.0,78,234,0.0,0.0
3476,42.0,0,312,14.0,0.0
3477,54.0,0,312,1.0,0.0
3478,54.0,0,312,13.0,0.0
3479,54.0,0,234,12.0,0.0
3480,66.0,126,312,2.0,0.0
3481,66.0,0,234,10.0,0.0
3482,66.0,0,234,11.0,0.0
3483,66.0,0,78,0.0,0.0
3484,66.0,0,78,10.0,0.0
3485,54.0,354,78,12.0,0.0
3486,66.0,0,78,11.0,0.0
3487,42.0,402,312,14.0,0.0
3488,54.0,0,312,1.0,0.0
3489,66.0,0,312,10.0,0.0
3490,66.0,0,312,11.0,0.0
3491,66.0,0,312,2.0,0.0
3492,54.0,0,312,13.0,0.0
3493,66.0,0,312,0.0,0.0
3494,54.0,0,312,12.0,0.0
3495,50.0,0,312,1.0,0.0
3496,62.0,0,234,11.0,0.0
3497,38.0,0,312,14.0,0.0
3498,50.0,0,312,13.0,0.0
3499,62.0,0,234,10.0,0.0
3500,62.0,78,234,0.0,0.0
3501,50.0,0,234,12.0,0.0
3502,62.0,126,312,2.0,0.0
3503,50.0,0,78,12.0,0.0
3504,62.0,426,78,10.0,0.0
3505,62.0,0,78,11.0,0.0
3506,62.0,0,78,0.0,0.0
3507,38.0,0,384,14.0,0.0
3508,62.0,0,384,11.0,0.0
3509,50.0,240,384,13.0,0.0
3510,62.0,0,384,10.0,0.0
3511,50.0,0,384,1.0,0.0
3512,62.0,0,384,0.0,0.0
3513,62.0,0,384,2.0,0.0
3514,50.0,0,384,12.0,0.0
3515,62.0,240,144,11.0,0.0
3516,78.0,0,144,10.0,0.0
3517,79.0,0,144,10.0,0.0
3518,64.0,240,144,11.0,0.0
3519,81.0,0,144,10.0,0.0
3520,66.0,240,144,11.0,0.0
3521,62.0,240,144,11.0,0.0
3522,78.0,0,144,10.0,0.0
3523,67.0,240,144,11.0,0.0
3524,83.0,0,144,10.0,0.0
3525,66.0,240,144,11.0,0.0
3526,81.0,0,144,10.0,0.0
3527,64.0,240,144,11.0,0.0
3528,79.0,0,144,10.0,0.0
3529,61.0,240,144,11.0,0.0
3530,76.0,0,144,10.0,0.0
3531,81.0,240,144,10.0,0.0
3532,66.0,0,144,11.0,0.0
3533,79.0,0,144,10.0,0.0
3534,64.0,240,144,11.0,0.0
3535,62.0,0,144,11.0,0.0
3536,78.0,240,144,10.0,0.0
3537,66.0,240,144,11.0,0.0
3538,74.0,0,144,10.0,0.0
3539,76.0,0,144,10.0,0.0
3540,67.0,240,144,11.0,0.0
3541,73.0,480,144,10.0,0.0
3542,64.0,0,144,11.0,0.0
3543,66.0,384,384,11.0,0.0
3544,74.0,0,384,10.0,0.0
3545,69.0,24,288,11.0,0.0
3546,50.0,0,312,13.0,0.0
3547,69.0,72,384,0.0,0.0
3548,78.0,0,288,10.0,0.0
3549,62.0,0,312,12.0,0.0
3550,38.0,0,312,14.0,0.0
3551,50.0,0,312,1.0,0.0
3552,62.0,72,312,1.0,0.0
3553,78.0,0,384,0.0,0.0
3554,74.0,216,96,10.0,0.0
3555,66.0,0,96,11.0,0.0
3556,79.0,0,384,10.0,0.0
3557,71.0,48,384,0.0,0.0
3558,79.0,0,960,0.0,0.0
3559,38.0,0,312,14.0,0.0
3560,62.0,0,7104,1.0,0.0
3561,50.0,0,7104,1.0,0.0
3562,71.0,120,192,11.0,0.0
3563,50.0,72,312,13.0,0.0
3564,62.0,0,312,12.0,0.0
3565,67.0,108,192,11.0,0.0
3566,81.0,60,60,10.0,0.0
3567,50.0,0,312,13.0,0.0
3568,73.0,48,192,11.0,0.0
3569,73.0,36,384,0.0,0.0
3570,38.0,0,312,14.0,0.0
3571,62.0,48,312,12.0,0.0
3572,79.0,60,60,10.0,0.0
3573,81.0,12,60,10.0,0.0
3574,79.0,60,60,10.0,0.0
3575,81.0,12,60,10.0,0.0
3576,69.0,48,192,11.0,0.0
3577,79.0,24,60,10.0,0.0
3578,78.0,12,60,10.0,0.0
3579,79.0,156,60,10.0,0.0
3580,50.0,0,156,13.0,0.0
3581,74.0,0,384,0.0,0.0
3582,78.0,0,384,0.0,0.0
3583,74.0,12,384,11.0,0.0
3584,38.0,0,156,14.0,0.0
3585,62.0,228,156,12.0,0.0
3586,78.0,0,384,10.0,0.0
3587,50.0,240,156,13.0,0.0
3588,38.0,0,156,14.0,0.0
3589,62.0,0,156,12.0,0.0
3590,78.0,0,288,11.0,0.0
3591,50.0,0,156,13.0,0.0
3592,78.0,0,384,0.0,0.0
3593,74.0,0,384,2.0,0.0
3594,62.0,0,156,12.0,0.0
3595,38.0,36,156,14.0,0.0
3596,81.0,96,192,0.0,0.0
3597,62.0,12,384,2.0,0.0
3598,81.0,96,288,10.0,0.0
3599,50.0,0,156,13.0,0.0
3600,62.0,0,156,12.0,0.0
3601,38.0,60,156,14.0,0.0
3602,78.0,180,96,10.0,0.0
3603,74.0,0,96,11.0,0.0
3604,50.0,36,156,13.0,0.0
3605,79.0,192,960,0.0,0.0
3606,79.0,0,192,11.0,0.0
3607,83.0,204,192,0.0,0.0
3608,62.0,0,156,12.0,0.0
3609,74.0,0,1344,2.0,0.0
3610,62.0,384,1344,2.0,0.0
3611,38.0,0,156,14.0,0.0
3612,83.0,0,192,10.0,0.0
3613,38.0,36,156,14.0,0.0
3614,76.0,204,192,11.0,0.0
3615,62.0,0,156,12.0,0.0
3616,50.0,0,156,13.0,0.0
3617,81.0,204,192,11.0,0.0
3618,38.0,0,156,14.0,0.0
3619,62.0,36,156,12.0,0.0
3620,85.0,0,192,10.0,0.0
3621,85.0,0,192,0.0,0.0
3622,50.0,0,156,13.0,0.0
3623,62.0,0,156,12.0,0.0
3624,50.0,36,156,13.0,0.0
3625,38.0,0,156,14.0,0.0
3626,79.0,48,192,11.0,0.0
3627,50.0,0,312,13.0,0.0
3628,38.0,0,312,14.0,0.0
3629,86.0,0,192,0.0,0.0
3630,86.0,0,192,10.0,0.0
3631,62.0,72,312,12.0,0.0
3632,78.0,0,192,0.0,0.0
3633,78.0,120,192,11.0,0.0
3634,69.0,24,288,11.0,0.0
3635,78.0,72,384,0.0,0.0
3636,50.0,0,312,13.0,0.0
3637,69.0,0,384,0.0,0.0
3638,62.0,0,312,12.0,0.0
3639,38.0,72,312,14.0,0.0
3640,78.0,0,288,10.0,0.0
3641,66.0,0,96,11.0,0.0
3642,74.0,216,96,10.0,0.0
3643,79.0,48,384,10.0,0.0
3644,38.0,72,312,14.0,0.0
3645,50.0,0,312,13.0,0.0
3646,71.0,0,384,0.0,0.0
3647,71.0,120,192,11.0,0.0
3648,62.0,0,312,12.0,0.0
3649,79.0,0,960,0.0,0.0
3650,67.0,108,192,11.0,0.0
3651,81.0,60,60,10.0,0.0
3652,38.0,0,312,14.0,0.0
3653,50.0,0,312,13.0,0.0
3654,73.0,48,192,11.0,0.0
3655,73.0,36,384,0.0,0.0
3656,62.0,48,312,12.0,0.0
3657,79.0,60,60,10.0,0.0
3658,81.0,12,60,10.0,0.0
3659,79.0,60,60,10.0,0.0
3660,69.0,48,192,11.0,0.0
3661,81.0,12,60,10.0,0.0
3662,79.0,24,60,10.0,0.0
3663,78.0,12,60,10.0,0.0
3664,79.0,156,60,10.0,0.0
3665,50.0,0,156,13.0,0.0
3666,74.0,12,384,11.0,0.0
3667,74.0,0,384,0.0,0.0
3668,38.0,0,156,14.0,0.0
3669,78.0,0,384,10.0,0.0
3670,78.0,0,384,0.0,0.0
3671,62.0,228,156,12.0,0.0
3672,50.0,0,156,13.0,0.0
3673,62.0,0,156,12.0,0.0
3674,38.0,240,156,14.0,0.0
3675,38.0,36,156,14.0,0.0
3676,81.0,96,192,0.0,0.0
3677,74.0,0,384,2.0,0.0
3678,62.0,12,384,2.0,0.0
3679,78.0,0,384,0.0,0.0
3680,62.0,0,156,12.0,0.0
3681,81.0,96,288,10.0,0.0
3682,50.0,0,156,13.0,0.0
3683,78.0,0,288,11.0,0.0
3684,62.0,60,156,12.0,0.0
3685,50.0,0,156,13.0,0.0
3686,38.0,0,156,14.0,0.0
3687,74.0,180,96,11.0,0.0
3688,78.0,0,96,10.0,0.0
3689,83.0,204,192,0.0,0.0
3690,62.0,0,1344,2.0,0.0
3691,50.0,0,156,13.0,0.0
3692,83.0,0,192,10.0,0.0
3693,79.0,0,192,11.0,0.0
3694,38.0,0,156,14.0,0.0
3695,79.0,384,960,0.0,0.0
3696,74.0,330,1344,2.0,0.0
3697,62.0,36,156,12.0,0.0
3698,76.0,204,192,11.0,0.0
3699,62.0,36,156,12.0,0.0
3700,50.0,0,156,13.0,0.0
3701,38.0,0,156,14.0,0.0
3702,85.0,0,192,10.0,0.0
3703,81.0,204,192,11.0,0.0
3704,38.0,0,156,14.0,0.0
3705,85.0,0,192,0.0,0.0
3706,62.0,36,156,12.0,0.0
3707,50.0,0,156,13.0,0.0
3708,62.0,0,156,12.0,0.0
3709,50.0,36,156,13.0,0.0
3710,38.0,0,156,14.0,0.0
3711,79.0,48,192,11.0,0.0
3712,50.0,0,384,13.0,0.0
3713,86.0,0,384,10.0,0.0
3714,74.0,0,384,11.0,0.0
3715,78.0,0,384,0.0,0.0
3716,62.0,0,384,12.0,0.0
3717,38.0,0,384,14.0,0.0
3718,86.0,0,384,0.0,0.0
3719,50.0,0,312,14.0,0.0
3720,62.0,126,312,13.0,0.0
3721,74.0,0,234,11.0,0.0
3722,86.0,0,234,0.0,0.0
3723,74.0,0,234,10.0,0.0
3724,62.0,78,234,12.0,0.0
3725,86.0,354,78,0.0,0.0
3726,62.0,0,78,12.0,0.0
3727,74.0,0,78,11.0,0.0
3728,74.0,0,78,10.0,0.0
3729,74.0,0,312,10.0,0.0
3730,50.0,402,312,14.0,0.0
3731,62.0,0,312,12.0,0.0
3732,74.0,0,312,11.0,0.0
3733,86.0,0,312,0.0,0.0
3734,62.0,0,312,13.0,0.0
3735,83.0,0,234,0.0,0.0
3736,71.0,0,234,11.0,0.0
3737,59.0,0,234,12.0,0.0
3738,47.0,126,312,14.0,0.0
3739,71.0,78,234,10.0,0.0
3740,59.0,0,312,13.0,0.0
3741,59.0,0,78,12.0,0.0
3742,83.0,0,78,0.0,0.0
3743,71.0,354,78,10.0,0.0
3744,71.0,0,78,11.0,0.0
3745,83.0,402,312,0.0,0.0
3746,59.0,0,312,12.0,0.0
3747,71.0,0,312,10.0,0.0
3748,59.0,0,312,13.0,0.0
3749,47.0,0,312,14.0,0.0
3750,71.0,0,312,11.0,0.0
3751,44.0,0,312,14.0,0.0
3752,56.0,126,312,13.0,0.0
3753,68.0,0,234,11.0,0.0
3754,80.0,78,234,0.0,0.0
3755,56.0,0,234,12.0,0.0
3756,68.0,0,234,10.0,0.0
3757,68.0,0,78,10.0,0.0
3758,68.0,0,78,11.0,0.0
3759,56.0,0,78,12.0,0.0
3760,80.0,354,78,0.0,0.0
3761,80.0,0,312,0.0,0.0
3762,68.0,402,312,10.0,0.0
3763,44.0,0,312,14.0,0.0
3764,68.0,0,312,11.0,0.0
3765,56.0,0,312,13.0,0.0
3766,56.0,0,312,12.0,0.0
3767,62.0,0,234,11.0,0.0
3768,50.0,0,234,12.0,0.0
3769,38.0,0,312,14.0,0.0
3770,74.0,0,234,0.0,0.0
3771,50.0,126,312,13.0,0.0
3772,62.0,78,234,10.0,0.0
3773,62.0,354,78,11.0,0.0
3774,50.0,0,78,12.0,0.0
3775,62.0,0,78,10.0,0.0
3776,74.0,0,78,0.0,0.0
3777,74.0,402,312,0.0,0.0
3778,50.0,0,312,13.0,0.0
3779,38.0,0,312,14.0,0.0
3780,62.0,0,312,11.0,0.0
3781,62.0,0,312,10.0,0.0
3782,50.0,0,312,12.0,0.0
3783,47.0,0,312,13.0,0.0
3784,74.0,0,312,2.0,0.0
3785,59.0,0,234,12.0,0.0
3786,59.0,78,234,10.0,0.0
3787,35.0,0,312,14.0,0.0
3788,62.0,126,312,1.0,0.0
3789,71.0,0,234,0.0,0.0
3790,59.0,0,234,11.0,0.0
3791,59.0,354,78,10.0,0.0
3792,59.0,0,78,11.0,0.0
3793,71.0,0,78,0.0,0.0
3794,59.0,0,78,12.0,0.0
3795,62.0,6,912,1.0,0.0
3796,35.0,0,312,14.0,0.0
3797,59.0,0,312,12.0,0.0
3798,71.0,0,312,0.0,0.0
3799,74.0,0,912,2.0,0.0
3800,59.0,0,312,11.0,0.0
3801,47.0,0,312,13.0,0.0
3802,59.0,402,312,10.0,0.0
3803,32.0,120,312,14.0,0.0
3804,56.0,0,234,11.0,0.0
3805,68.0,0,234,0.0,0.0
3806,56.0,0,234,12.0,0.0
3807,44.0,0,312,13.0,0.0
3808,56.0,78,234,10.0,0.0
3809,68.0,0,78,0.0,0.0
3810,56.0,0,78,11.0,0.0
3811,56.0,0,78,12.0,0.0
3812,56.0,198,78,10.0,0.0
3813,56.0,0,156,11.0,0.0
3814,56.0,0,156,10.0,0.0
3815,32.0,240,156,14.0,0.0
3816,68.0,0,156,0.0,0.0
3817,44.0,0,156,13.0,0.0
3818,50.0,0,912,1.0,0.0
3819,56.0,0,156,12.0,0.0
3820,62.0,360,912,2.0,0.0
3821,62.0,0,156,11.0,0.0
3822,74.0,0,156,0.0,0.0
3823,62.0,0,156,12.0,0.0
3824,50.0,0,156,13.0,0.0
3825,38.0,240,156,14.0,0.0
3826,62.0,0,156,10.0,0.0
3827,47.0,0,156,13.0,0.0
3828,59.0,0,156,11.0,0.0
3829,35.0,0,156,14.0,0.0
3830,59.0,0,156,10.0,0.0
3831,59.0,0,156,12.0,0.0
3832,71.0,240,156,0.0,0.0
3833,56.0,0,156,12.0,0.0
3834,32.0,0,156,14.0,0.0
3835,56.0,0,156,10.0,0.0
3836,68.0,36,156,0.0,0.0
3837,56.0,0,156,11.0,0.0
3838,44.0,0,156,13.0,0.0
3839,57.0,480,312,12.0,0.0
3840,69.0,0,312,0.0,0.0
3841,45.0,0,312,13.0,0.0
3842,57.0,0,312,11.0,0.0
3843,33.0,0,312,14.0,0.0
3844,57.0,0,312,1.0,0.0
3845,57.0,0,312,10.0,0.0
3846,69.0,0,312,2.0,0.0
3847,64.0,0,312,1.0,0.0
3848,45.0,0,312,14.0,0.0
3849,81.0,0,312,0.0,0.0
3850,73.0,552,312,0.0,0.0
3851,64.0,0,312,11.0,0.0
3852,69.0,0,312,12.0,0.0
3853,69.0,0,312,2.0,0.0
3854,81.0,0,312,10.0,0.0
3855,73.0,0,312,10.0,0.0
3856,64.0,0,312,10.0,0.0
3857,81.0,0,312,11.0,0.0
3858,57.0,0,312,13.0,0.0
3859,73.0,0,312,11.0,0.0
3860,57.0,0,312,1.0,0.0
3861,81.0,0,384,11.0,0.0
3862,73.0,0,384,11.0,0.0
3863,64.0,0,384,11.0,0.0
3864,33.0,0,384,14.0,0.0
3865,73.0,0,384,10.0,0.0
3866,81.0,0,384,10.0,0.0
3867,81.0,0,384,0.0,0.0
3868,69.0,0,384,2.0,0.0
3869,73.0,0,384,0.0,0.0
3870,45.0,0,384,13.0,0.0
3871,57.0,0,384,1.0,0.0
3872,64.0,0,384,1.0,0.0
3873,64.0,0,384,10.0,0.0
3874,57.0,1296,384,12.0,0.0
3875,66.0,144,720,11.0,0.0
3876,78.0,0,720,10.0,0.0
3877,57.0,0,384,12.0,0.0
3878,38.0,84,384,14.0,0.0
3879,50.0,0,384,13.0,0.0
3880,79.0,0,228,10.0,0.0
3881,67.0,252,228,11.0,0.0
3882,80.0,0,240,10.0,0.0
3883,68.0,240,240,11.0,0.0
3884,81.0,240,240,10.0,0.0
3885,69.0,0,240,11.0,0.0
3886,80.0,144,240,10.0,0.0
3887,68.0,0,240,11.0,0.0
3888,42.0,84,384,14.0,0.0
3889,62.0,0,384,12.0,0.0
3890,54.0,0,384,13.0,0.0
3891,69.0,0,228,11.0,0.0
3892,81.0,696,228,10.0,0.0
3893,64.0,180,684,11.0,0.0
3894,76.0,0,684,10.0,0.0
3895,45.0,0,384,13.0,0.0
3896,61.0,0,384,12.0,0.0
3897,33.0,84,384,14.0,0.0
3898,77.0,0,228,10.0,0.0
3899,65.0,252,228,11.0,0.0
3900,66.0,240,240,11.0,0.0
3901,78.0,0,240,10.0,0.0
3902,79.0,240,240,10.0,0.0
3903,67.0,0,240,11.0,0.0
3904,37.0,0,384,14.0,0.0
3905,64.0,0,384,12.0,0.0
3906,49.0,84,384,13.0,0.0
3907,78.0,144,240,10.0,0.0
3908,66.0,0,240,11.0,0.0
3909,67.0,696,228,11.0,0.0
3910,79.0,0,228,10.0,0.0
3911,62.0,0,684,11.0,0.0
3912,74.0,180,684,10.0,0.0
3913,57.0,0,384,12.0,0.0
3914,42.0,0,384,14.0,0.0
3915,54.0,84,384,13.0,0.0
3916,76.0,252,228,10.0,0.0
3917,64.0,0,228,11.0,0.0
3918,65.0,240,240,11.0,0.0
3919,77.0,0,240,10.0,0.0
3920,78.0,0,240,10.0,0.0
3921,66.0,240,240,11.0,0.0
3922,50.0,0,384,13.0,0.0
3923,38.0,0,384,14.0,0.0
3924,57.0,84,384,12.0,0.0
3925,77.0,0,240,10.0,0.0
3926,65.0,144,240,11.0,0.0
3927,78.0,0,228,10.0,0.0
3928,66.0,132,228,11.0,0.0
3929,78.0,0,120,10.0,0.0
3930,66.0,288,120,11.0,0.0
3931,76.0,360,288,10.0,0.0
3932,64.0,0,288,11.0,0.0
3933,33.0,72,384,14.0,0.0
3934,52.0,0,384,12.0,0.0
3935,73.0,0,288,10.0,0.0
3936,61.0,96,288,11.0,0.0
3937,45.0,0,384,13.0,0.0
3938,62.0,216,96,11.0,0.0
3939,74.0,0,96,10.0,0.0
3940,76.0,480,192,10.0,0.0
3941,64.0,0,192,11.0,0.0
3942,69.0,192,192,10.0,0.0
3943,33.0,480,384,14.0,0.0
3944,49.0,0,384,12.0,0.0
3945,45.0,0,384,13.0,0.0
3946,57.0,0,192,11.0,0.0
3947,78.0,0,720,10.0,0.0
3948,69.0,0,384,0.0,0.0
3949,50.0,0,384,1.0,0.0
3950,62.0,0,384,1.0,0.0
3951,66.0,144,720,11.0,0.0
3952,66.0,336,384,0.0,0.0
3953,50.0,0,384,13.0,0.0
3954,57.0,0,384,12.0,0.0
3955,38.0,84,384,14.0,0.0
3956,79.0,252,228,10.0,0.0
3957,67.0,0,228,11.0,0.0
3958,62.0,0,384,1.0,0.0
3959,68.0,144,240,11.0,0.0
3960,66.0,0,384,1.0,0.0
3961,69.0,0,384,0.0,0.0
3962,80.0,0,240,10.0,0.0
3963,74.0,96,384,0.0,0.0
3964,69.0,240,240,11.0,0.0
3965,81.0,0,240,10.0,0.0
3966,62.0,0,384,12.0,0.0
3967,42.0,84,384,14.0,0.0
3968,80.0,144,240,10.0,0.0
3969,54.0,0,384,13.0,0.0
3970,68.0,0,240,11.0,0.0
3971,81.0,0,228,10.0,0.0
3972,69.0,396,228,11.0,0.0
3973,64.0,300,384,1.0,0.0
3974,76.0,0,684,10.0,0.0
3975,76.0,0,384,0.0,0.0
3976,81.0,0,384,0.0,0.0
3977,57.0,0,384,1.0,0.0
3978,64.0,180,684,11.0,0.0
3979,33.0,0,384,14.0,0.0
3980,61.0,0,384,12.0,0.0
3981,45.0,84,384,13.0,0.0
3982,65.0,252,228,11.0,0.0
3983,77.0,0,228,10.0,0.0
3984,79.0,0,384,0.0,0.0
3985,57.0,0,384,1.0,0.0
3986,66.0,144,240,11.0,0.0
3987,73.0,0,384,0.0,0.0
3988,64.0,96,384,1.0,0.0
3989,78.0,0,240,10.0,0.0
3990,79.0,0,240,10.0,0.0
3991,67.0,240,240,11.0,0.0
3992,78.0,0,240,10.0,0.0
3993,49.0,0,384,13.0,0.0
3994,66.0,144,240,11.0,0.0
3995,64.0,0,384,12.0,0.0
3996,37.0,84,384,14.0,0.0
3997,79.0,0,228,10.0,0.0
3998,67.0,396,228,11.0,0.0
3999,74.0,180,684,10.0,0.0
4000,78.0,0,384,0.0,0.0
4001,69.0,0,384,0.0,0.0
4002,50.0,0,384,1.0,0.0
4003,62.0,0,684,11.0,0.0
4004,62.0,300,384,1.0,0.0
4005,54.0,0,384,13.0,0.0
4006,57.0,84,384,12.0,0.0
4007,42.0,0,384,14.0,0.0
4008,64.0,0,228,11.0,0.0
4009,76.0,252,228,10.0,0.0
4010,65.0,144,240,11.0,0.0
4011,69.0,96,384,0.0,0.0
4012,54.0,0,384,1.0,0.0
4013,77.0,0,240,10.0,0.0
4014,62.0,0,384,1.0,0.0
4015,74.0,0,384,0.0,0.0
4016,66.0,240,240,11.0,0.0
4017,78.0,0,240,10.0,0.0
4018,57.0,0,384,12.0,0.0
4019,38.0,84,384,14.0,0.0
4020,50.0,0,384,13.0,0.0
4021,77.0,0,240,10.0,0.0
4022,65.0,144,240,11.0,0.0
4023,78.0,0,228,10.0,0.0
4024,66.0,396,228,11.0,0.0
4025,50.0,0,384,1.0,0.0
4026,67.0,96,384,0.0,0.0
4027,71.0,192,480,10.0,0.0
4028,83.0,0,384,0.0,0.0
4029,62.0,0,384,1.0,0.0
4030,64.0,192,192,10.0,0.0
4031,55.0,0,384,13.0,0.0
4032,62.0,0,384,12.0,0.0
4033,59.0,0,384,12.0,0.0
4034,43.0,480,384,14.0,0.0
4035,57.0,0,384,1.0,0.0
4036,73.0,96,384,0.0,0.0
4037,76.0,0,384,0.0,0.0
4038,64.0,0,384,1.0,0.0
4039,64.0,192,480,11.0,0.0
4040,57.0,480,384,13.0,0.0
4041,61.0,0,384,12.0,0.0
4042,45.0,0,384,14.0,0.0
4043,57.0,192,192,11.0,0.0
4044,62.0,0,384,1.0,0.0
4045,81.0,0,384,0.0,0.0
4046,69.0,0,384,0.0,0.0
4047,66.0,96,384,1.0,0.0
4048,69.0,192,480,10.0,0.0
4049,62.0,192,192,10.0,0.0
4050,54.0,480,384,13.0,0.0
4051,42.0,0,384,14.0,0.0
4052,57.0,0,384,12.0,0.0
4053,50.0,96,384,1.0,0.0
4054,62.0,0,384,1.0,0.0
4055,74.0,0,384,0.0,0.0
4056,78.0,0,384,0.0,0.0
4057,66.0,192,480,11.0,0.0
4058,47.0,480,384,13.0,0.0
4059,50.0,0,384,12.0,0.0
4060,59.0,192,192,11.0,0.0
4061,35.0,0,384,14.0,0.0
4062,50.0,0,384,1.0,0.0
4063,71.0,192,480,10.0,0.0
4064,62.0,0,384,1.0,0.0
4065,76.0,0,384,0.0,0.0
4066,67.0,96,384,0.0,0.0
4067,59.0,480,384,12.0,0.0
4068,43.0,0,384,13.0,0.0
4069,31.0,0,384,14.0,0.0
4070,64.0,192,192,10.0,0.0
4071,57.0,0,384,1.0,0.0
4072,73.0,0,384,0.0,0.0
4073,67.0,0,384,0.0,0.0
4074,64.0,192,480,11.0,0.0
4075,64.0,96,384,1.0,0.0
4076,49.0,336,384,12.0,0.0
4077,57.0,192,192,11.0,0.0
4078,33.0,0,384,14.0,0.0
4079,45.0,0,384,13.0,0.0
4080,50.0,0,312,13.0,0.0
4081,38.0,0,312,14.0,0.0
4082,62.0,24,9552,2.0,0.0
4083,74.0,6,1872,0.0,0.0
4084,62.0,0,9552,1.0,0.0
4085,57.0,0,312,11.0,0.0
4086,62.0,72,240,10.0,0.0
4087,54.0,72,312,12.0,0.0
4088,50.0,0,9552,1.0,0.0
4089,66.0,240,144,10.0,0.0
4090,57.0,0,234,11.0,0.0
4091,62.0,0,312,13.0,0.0
4092,54.0,78,234,12.0,0.0
4093,62.0,90,144,10.0,0.0
4094,50.0,72,312,14.0,0.0
4095,62.0,54,144,10.0,0.0
4096,57.0,282,78,11.0,0.0
4097,54.0,0,78,12.0,0.0
4098,57.0,72,312,11.0,0.0
4099,54.0,0,312,12.0,0.0
4100,50.0,0,312,13.0,0.0
4101,62.0,72,240,10.0,0.0
4102,38.0,0,312,14.0,0.0
4103,66.0,240,144,10.0,0.0
4104,62.0,90,144,10.0,0.0
4105,57.0,0,234,11.0,0.0
4106,50.0,72,312,14.0,0.0
4107,54.0,78,234,12.0,0.0
4108,62.0,0,312,13.0,0.0
4109,62.0,48,144,10.0,0.0
4110,54.0,0,78,12.0,0.0
4111,57.0,282,78,11.0,0.0
4112,76.0,0,1872,0.0,0.0
4113,50.0,0,312,13.0,0.0
4114,64.0,72,240,10.0,0.0
4115,38.0,0,312,14.0,0.0
4116,61.0,72,312,11.0,0.0
4117,55.0,0,312,12.0,0.0
4118,73.0,6,1872,0.0,0.0
4119,67.0,240,144,10.0,0.0
4120,55.0,0,234,12.0,0.0
4121,61.0,78,234,11.0,0.0
4122,62.0,0,312,13.0,0.0
4123,50.0,72,312,14.0,0.0
4124,64.0,90,144,10.0,0.0
4125,64.0,54,144,10.0,0.0
4126,55.0,0,78,12.0,0.0
4127,61.0,282,78,11.0,0.0
4128,64.0,72,240,10.0,0.0
4129,55.0,0,312,12.0,0.0
4130,38.0,72,312,14.0,0.0
4131,50.0,0,312,13.0,0.0
4132,61.0,0,312,11.0,0.0
4133,67.0,240,144,10.0,0.0
4134,64.0,90,144,10.0,0.0
4135,61.0,78,234,11.0,0.0
4136,62.0,0,312,13.0,0.0
4137,50.0,72,312,14.0,0.0
4138,55.0,0,234,12.0,0.0
4139,64.0,48,144,10.0,0.0
4140,55.0,282,78,12.0,0.0
4141,61.0,0,78,11.0,0.0
4142,60.0,0,312,11.0,0.0
4143,50.0,0,312,13.0,0.0
4144,38.0,72,312,14.0,0.0
4145,57.0,0,312,12.0,0.0
4146,72.0,0,1872,0.0,0.0
4147,66.0,72,240,10.0,0.0
4148,78.0,6,1872,0.0,0.0
4149,69.0,240,144,10.0,0.0
4150,60.0,78,234,11.0,0.0
4151,62.0,72,312,13.0,0.0
4152,66.0,90,144,10.0,0.0
4153,57.0,0,234,12.0,0.0
4154,50.0,0,312,14.0,0.0
4155,66.0,54,144,10.0,0.0
4156,60.0,282,78,11.0,0.0
4157,57.0,0,78,12.0,0.0
4158,60.0,0,312,11.0,0.0
4159,57.0,0,312,12.0,0.0
4160,38.0,0,312,14.0,0.0
4161,50.0,72,312,13.0,0.0
4162,66.0,72,240,10.0,0.0
4163,69.0,240,144,10.0,0.0
4164,60.0,78,234,11.0,0.0
4165,62.0,0,312,13.0,0.0
4166,66.0,90,144,10.0,0.0
4167,50.0,72,312,14.0,0.0
4168,57.0,0,234,12.0,0.0
4169,66.0,48,144,10.0,0.0
4170,57.0,0,78,12.0,0.0
4171,60.0,138,78,11.0,0.0
4172,79.0,0,912,0.0,0.0
4173,67.0,0,96,10.0,0.0
4174,59.0,0,96,11.0,0.0
4175,62.0,0,156,13.0,0.0
4176,71.0,24,912,0.0,0.0
4177,50.0,60,96,12.0,0.0
4178,50.0,60,156,14.0,0.0
4179,59.0,0,96,11.0,0.0
4180,67.0,0,96,10.0,0.0
4181,50.0,120,96,12.0,0.0
4182,50.0,0,96,12.0,0.0
4183,62.0,0,156,13.0,0.0
4184,59.0,0,96,11.0,0.0
4185,50.0,60,156,14.0,0.0
4186,67.0,60,96,10.0,0.0
4187,67.0,0,96,10.0,0.0
4188,50.0,0,96,12.0,0.0
4189,59.0,120,96,11.0,0.0
4190,67.0,0,96,10.0,0.0
4191,50.0,60,156,14.0,0.0
4192,62.0,0,156,13.0,0.0
4193,59.0,60,96,11.0,0.0
4194,50.0,0,96,12.0,0.0
4195,67.0,0,96,10.0,0.0
4196,59.0,0,96,11.0,0.0
4197,50.0,120,96,12.0,0.0
4198,50.0,36,156,14.0,0.0
4199,67.0,60,96,10.0,0.0
4200,62.0,0,156,13.0,0.0
4201,50.0,0,96,12.0,0.0
4202,59.0,0,96,11.0,0.0
4203,59.0,0,96,11.0,0.0
4204,50.0,0,96,12.0,0.0
4205,67.0,120,96,10.0,0.0
4206,50.0,60,156,14.0,0.0
4207,62.0,0,96,12.0,0.0
4208,62.0,0,156,13.0,0.0
4209,78.0,24,912,0.0,0.0
4210,69.0,0,96,10.0,0.0
4211,81.0,0,912,0.0,0.0
4212,66.0,60,96,11.0,0.0
4213,62.0,0,96,12.0,0.0
4214,66.0,0,96,11.0,0.0
4215,69.0,120,96,10.0,0.0
4216,69.0,60,96,10.0,0.0
4217,62.0,60,156,13.0,0.0
4218,66.0,0,96,11.0,0.0
4219,50.0,0,156,14.0,0.0
4220,62.0,0,96,12.0,0.0
4221,62.0,120,96,12.0,0.0
4222,66.0,0,96,11.0,0.0
4223,69.0,0,96,10.0,0.0
4224,50.0,0,156,14.0,0.0
4225,69.0,0,96,10.0,0.0
4226,62.0,60,156,13.0,0.0
4227,62.0,0,96,12.0,0.0
4228,66.0,60,96,11.0,0.0
4229,66.0,120,96,11.0,0.0
4230,62.0,0,96,12.0,0.0
4231,69.0,0,96,10.0,0.0
4232,66.0,0,96,11.0,0.0
4233,50.0,36,156,14.0,0.0
4234,62.0,0,96,12.0,0.0
4235,69.0,60,96,10.0,0.0
4236,62.0,0,156,13.0,0.0
4237,62.0,0,96,12.0,0.0
4238,66.0,120,96,11.0,0.0
4239,69.0,0,96,10.0,0.0
4240,71.0,60,96,10.0,0.0
4241,62.0,60,156,13.0,0.0
4242,62.0,0,96,12.0,0.0
4243,83.0,24,912,0.0,0.0
4244,79.0,0,912,0.0,0.0
4245,67.0,0,96,11.0,0.0
4246,50.0,0,156,14.0,0.0
4247,62.0,0,96,12.0,0.0
4248,67.0,120,96,11.0,0.0
4249,71.0,0,96,10.0,0.0
4250,71.0,0,96,10.0,0.0
4251,67.0,0,96,11.0,0.0
4252,50.0,60,156,14.0,0.0
4253,62.0,60,96,12.0,0.0
4254,62.0,0,156,13.0,0.0
4255,67.0,0,96,11.0,0.0
4256,71.0,0,96,10.0,0.0
4257,62.0,120,96,12.0,0.0
4258,50.0,60,156,14.0,0.0
4259,67.0,0,96,11.0,0.0
4260,62.0,0,156,13.0,0.0
4261,62.0,0,96,12.0,0.0
4262,71.0,60,96,10.0,0.0
4263,62.0,0,96,12.0,0.0
4264,71.0,0,96,10.0,0.0
4265,67.0,120,96,11.0,0.0
4266,50.0,36,156,14.0,0.0
4267,62.0,0,96,12.0,0.0
4268,62.0,0,156,13.0,0.0
4269,67.0,60,96,11.0,0.0
4270,71.0,0,96,10.0,0.0
4271,67.0,0,96,11.0,0.0
4272,62.0,0,96,12.0,0.0
4273,71.0,120,96,10.0,0.0
4274,50.0,0,156,14.0,0.0
4275,76.0,0,912,0.0,0.0
4276,64.0,60,96,12.0,0.0
4277,79.0,0,912,0.0,0.0
4278,73.0,0,96,10.0,0.0
4279,67.0,0,96,11.0,0.0
4280,62.0,60,156,13.0,0.0
4281,64.0,0,96,12.0,0.0
4282,67.0,0,96,11.0,0.0
4283,73.0,120,96,10.0,0.0
4284,50.0,60,156,14.0,0.0
4285,62.0,0,156,13.0,0.0
4286,67.0,0,96,11.0,0.0
4287,64.0,60,96,12.0,0.0
4288,73.0,0,96,10.0,0.0
4289,73.0,120,96,10.0,0.0
4290,67.0,0,96,11.0,0.0
4291,64.0,0,96,12.0,0.0
4292,50.0,0,156,14.0,0.0
4293,67.0,60,96,11.0,0.0
4294,64.0,0,96,12.0,0.0
4295,73.0,0,96,10.0,0.0
4296,62.0,60,156,13.0,0.0
4297,64.0,0,96,12.0,0.0
4298,67.0,0,96,11.0,0.0
4299,73.0,120,96,10.0,0.0
4300,62.0,0,156,13.0,0.0
4301,64.0,60,96,12.0,0.0
4302,50.0,36,156,14.0,0.0
4303,67.0,0,96,11.0,0.0
4304,73.0,0,96,10.0,0.0
4305,67.0,120,96,11.0,0.0
4306,64.0,0,96,12.0,0.0
4307,73.0,0,96,10.0,0.0
4308,78.0,6,3792,0.0,0.0
4309,66.0,0,3792,1.0,0.0
4310,66.0,120,96,11.0,0.0
4311,74.0,0,96,10.0,0.0
4312,62.0,24,312,12.0,0.0
4313,62.0,0,4752,1.0,0.0
4314,50.0,0,312,14.0,0.0
4315,74.0,6,4752,0.0,0.0
4316,62.0,0,312,13.0,0.0
4317,78.0,0,96,10.0,0.0
4318,74.0,96,96,11.0,0.0
4319,78.0,0,96,10.0,0.0
4320,74.0,120,96,11.0,0.0
4321,74.0,0,96,11.0,0.0
4322,78.0,120,96,10.0,0.0
4323,74.0,120,96,11.0,0.0
4324,62.0,48,288,2.0,0.0
4325,62.0,54,234,12.0,0.0
4326,78.0,0,96,10.0,0.0
4327,50.0,0,234,14.0,0.0
4328,62.0,0,234,13.0,0.0
4329,78.0,0,96,10.0,0.0
4330,74.0,18,96,11.0,0.0
4331,78.0,0,96,10.0,0.0
4332,74.0,102,96,11.0,0.0
4333,78.0,0,96,10.0,0.0
4334,74.0,0,96,11.0,0.0
4335,50.0,0,78,14.0,0.0
4336,62.0,0,78,12.0,0.0
4337,62.0,18,78,13.0,0.0
4338,62.0,120,96,2.0,0.0
4339,78.0,120,96,10.0,0.0
4340,50.0,24,312,14.0,0.0
4341,62.0,0,312,13.0,0.0
4342,74.0,0,96,11.0,0.0
4343,62.0,72,384,2.0,0.0
4344,62.0,0,312,12.0,0.0
4345,78.0,0,96,10.0,0.0
4346,74.0,96,96,11.0,0.0
4347,78.0,48,96,10.0,0.0
4348,74.0,0,96,11.0,0.0
4349,74.0,0,96,11.0,0.0
4350,78.0,120,96,10.0,0.0
4351,66.0,102,234,13.0,0.0
4352,66.0,0,234,12.0,0.0
4353,54.0,0,234,14.0,0.0
4354,78.0,120,96,10.0,0.0
4355,74.0,0,96,11.0,0.0
4356,74.0,18,96,11.0,0.0
4357,78.0,0,96,10.0,0.0
4358,78.0,0,96,10.0,0.0
4359,74.0,102,96,11.0,0.0
4360,78.0,120,96,10.0,0.0
4361,58.0,18,78,12.0,0.0
4362,46.0,0,78,14.0,0.0
4363,58.0,0,78,13.0,0.0
4364,74.0,0,96,11.0,0.0
4365,78.0,0,96,10.0,0.0
4366,74.0,120,96,11.0,0.0
4367,47.0,0,312,14.0,0.0
4368,59.0,0,312,13.0,0.0
4369,59.0,24,312,12.0,0.0
4370,78.0,0,96,10.0,0.0
4371,74.0,96,96,11.0,0.0
4372,78.0,0,96,10.0,0.0
4373,74.0,120,96,11.0,0.0
4374,74.0,120,96,11.0,0.0
4375,78.0,0,96,10.0,0.0
4376,59.0,0,234,12.0,0.0
4377,62.0,48,288,2.0,0.0
4378,74.0,0,96,11.0,0.0
4379,78.0,120,96,10.0,0.0
4380,47.0,0,234,14.0,0.0
4381,59.0,54,234,13.0,0.0
4382,74.0,0,96,11.0,0.0
4383,78.0,18,96,10.0,0.0
4384,74.0,0,96,11.0,0.0
4385,78.0,102,96,10.0,0.0
4386,62.0,0,96,2.0,0.0
4387,59.0,0,78,12.0,0.0
4388,59.0,0,78,13.0,0.0
4389,74.0,0,96,11.0,0.0
4390,47.0,18,78,14.0,0.0
4391,78.0,120,96,10.0,0.0
4392,74.0,0,96,11.0,0.0
4393,59.0,0,312,12.0,0.0
4394,47.0,24,312,14.0,0.0
4395,59.0,0,312,13.0,0.0
4396,62.0,72,384,2.0,0.0
4397,78.0,120,96,10.0,0.0
4398,78.0,0,96,10.0,0.0
4399,74.0,96,96,11.0,0.0
4400,74.0,0,96,11.0,0.0
4401,78.0,48,96,10.0,0.0
4402,74.0,120,96,11.0,0.0
4403,78.0,0,96,10.0,0.0
4404,78.0,120,96,10.0,0.0
4405,62.0,102,234,12.0,0.0
4406,62.0,0,234,13.0,0.0
4407,50.0,0,234,14.0,0.0
4408,74.0,0,96,11.0,0.0
4409,78.0,0,96,10.0,0.0
4410,74.0,18,96,11.0,0.0
4411,78.0,0,96,10.0,0.0
4412,74.0,96,96,11.0,0.0
4413,42.0,18,78,14.0,0.0
4414,54.0,0,78,12.0,0.0
4415,78.0,0,96,10.0,0.0
4416,54.0,0,78,13.0,0.0
4417,74.0,120,96,11.0,0.0
4418,74.0,0,768,2.0,0.0
4419,76.0,0,96,10.0,0.0
4420,76.0,0,1872,0.0,0.0
4421,64.0,6,1872,1.0,0.0
4422,55.0,0,312,12.0,0.0
4423,62.0,48,768,2.0,0.0
4424,55.0,0,312,13.0,0.0
4425,43.0,24,312,14.0,0.0
4426,74.0,120,96,11.0,0.0
4427,74.0,96,96,11.0,0.0
4428,76.0,0,96,10.0,0.0
4429,76.0,0,96,10.0,0.0
4430,74.0,120,96,11.0,0.0
4431,74.0,120,96,11.0,0.0
4432,76.0,0,96,10.0,0.0
4433,74.0,120,96,11.0,0.0
4434,59.0,54,234,13.0,0.0
4435,47.0,0,234,14.0,0.0
4436,59.0,0,234,12.0,0.0
4437,76.0,0,96,10.0,0.0
4438,76.0,0,96,10.0,0.0
4439,74.0,18,96,11.0,0.0
4440,76.0,0,96,10.0,0.0
4441,74.0,96,96,11.0,0.0
4442,55.0,0,78,12.0,0.0
4443,55.0,18,78,13.0,0.0
4444,74.0,120,96,11.0,0.0
4445,76.0,0,96,10.0,0.0
4446,43.0,0,78,14.0,0.0
4447,57.0,0,312,13.0,0.0
4448,69.0,48,768,2.0,0.0
4449,76.0,120,96,10.0,0.0
4450,73.0,0,96,11.0,0.0
4451,57.0,24,312,12.0,0.0
4452,45.0,0,312,14.0,0.0
4453,73.0,0,912,0.0,0.0
4454,57.0,0,912,1.0,0.0
4455,73.0,0,96,11.0,0.0
4456,76.0,96,96,10.0,0.0
4457,73.0,120,96,11.0,0.0
4458,76.0,0,96,10.0,0.0
4459,73.0,120,96,11.0,0.0
4460,76.0,0,96,10.0,0.0
4461,61.0,0,234,13.0,0.0
4462,76.0,0,96,10.0,0.0
4463,61.0,0,234,12.0,0.0
4464,73.0,120,96,11.0,0.0
4465,49.0,54,234,14.0,0.0
4466,76.0,0,96,10.0,0.0
4467,73.0,18,96,11.0,0.0
4468,76.0,0,96,10.0,0.0
4469,73.0,96,96,11.0,0.0
4470,57.0,0,78,13.0,0.0
4471,45.0,0,78,14.0,0.0
4472,76.0,0,96,10.0,0.0
4473,57.0,18,78,12.0,0.0
4474,73.0,120,96,11.0,0.0
4475,86.0,0,4752,0.0,0.0
4476,62.0,0,312,12.0,0.0
4477,78.0,0,3792,0.0,0.0
4478,62.0,6,1872,1.0,0.0
4479,74.0,0,96,11.0,0.0
4480,66.0,6,3792,1.0,0.0
4481,78.0,120,96,10.0,0.0
4482,50.0,24,312,14.0,0.0
4483,62.0,0,312,13.0,0.0
4484,86.0,0,96,10.0,0.0
4485,78.0,96,96,11.0,0.0
4486,86.0,0,96,10.0,0.0
4487,78.0,120,96,11.0,0.0
4488,86.0,120,96,10.0,0.0
4489,78.0,0,96,11.0,0.0
4490,62.0,48,288,2.0,0.0
4491,62.0,0,234,13.0,0.0
4492,50.0,0,234,14.0,0.0
4493,78.0,0,96,11.0,0.0
4494,62.0,54,234,12.0,0.0
4495,86.0,120,96,10.0,0.0
4496,86.0,0,96,10.0,0.0
4497,78.0,18,96,11.0,0.0
4498,78.0,0,96,11.0,0.0
4499,86.0,102,96,10.0,0.0
4500,62.0,0,96,2.0,0.0
4501,86.0,120,96,10.0,0.0
4502,50.0,0,78,14.0,0.0
4503,62.0,18,78,12.0,0.0
4504,78.0,0,96,11.0,0.0
4505,62.0,0,78,13.0,0.0
4506,62.0,24,312,13.0,0.0
4507,62.0,0,312,12.0,0.0
4508,78.0,120,96,11.0,0.0
4509,62.0,72,384,2.0,0.0
4510,86.0,0,96,10.0,0.0
4511,50.0,0,312,14.0,0.0
4512,86.0,96,96,10.0,0.0
4513,78.0,0,96,11.0,0.0
4514,86.0,48,96,10.0,0.0
4515,78.0,0,96,11.0,0.0
4516,86.0,0,96,10.0,0.0
4517,78.0,120,96,11.0,0.0
4518,66.0,0,234,13.0,0.0
4519,54.0,0,234,14.0,0.0
4520,66.0,102,234,12.0,0.0
4521,86.0,120,96,10.0,0.0
4522,78.0,0,96,11.0,0.0
4523,78.0,0,96,11.0,0.0
4524,86.0,18,96,10.0,0.0
4525,86.0,96,96,10.0,0.0
4526,78.0,0,96,11.0,0.0
4527,78.0,120,96,11.0,0.0
4528,58.0,18,78,12.0,0.0
4529,46.0,0,78,14.0,0.0
4530,58.0,0,78,13.0,0.0
4531,86.0,0,96,10.0,0.0
4532,50.0,0,1872,1.0,0.0
4533,59.0,0,312,13.0,0.0
4534,59.0,0,312,12.0,0.0
4535,86.0,120,96,10.0,0.0
4536,47.0,24,312,14.0,0.0
4537,78.0,0,96,11.0,0.0
4538,86.0,0,96,10.0,0.0
4539,78.0,96,96,11.0,0.0
4540,86.0,120,96,10.0,0.0
4541,78.0,0,96,11.0,0.0
4542,86.0,0,96,10.0,0.0
4543,78.0,120,96,11.0,0.0
4544,47.0,54,234,14.0,0.0
4545,59.0,0,234,12.0,0.0
4546,59.0,0,234,13.0,0.0
4547,86.0,120,96,10.0,0.0
4548,62.0,48,288,2.0,0.0
4549,78.0,0,96,11.0,0.0
4550,78.0,0,96,11.0,0.0
4551,86.0,18,96,10.0,0.0
4552,86.0,102,96,10.0,0.0
4553,78.0,0,96,11.0,0.0
4554,59.0,0,78,13.0,0.0
4555,78.0,0,96,11.0,0.0
4556,62.0,0,96,2.0,0.0
4557,86.0,120,96,10.0,0.0
4558,59.0,18,78,12.0,0.0
4559,47.0,0,78,14.0,0.0
4560,47.0,24,312,14.0,0.0
4561,86.0,120,96,10.0,0.0
4562,78.0,0,96,11.0,0.0
4563,59.0,0,312,12.0,0.0
4564,59.0,0,312,13.0,0.0
4565,62.0,72,384,2.0,0.0
4566,78.0,0,96,11.0,0.0
4567,86.0,96,96,10.0,0.0
4568,86.0,0,96,10.0,0.0
4569,78.0,48,96,11.0,0.0
4570,86.0,0,96,10.0,0.0
4571,78.0,120,96,11.0,0.0
4572,86.0,0,96,10.0,0.0
4573,62.0,0,234,12.0,0.0
4574,50.0,102,234,14.0,0.0
4575,78.0,120,96,11.0,0.0
4576,62.0,0,234,13.0,0.0
4577,78.0,0,96,11.0,0.0
4578,86.0,18,96,10.0,0.0
4579,78.0,0,96,11.0,0.0
4580,86.0,96,96,10.0,0.0
4581,54.0,18,78,13.0,0.0
4582,78.0,120,96,11.0,0.0
4583,86.0,0,96,10.0,0.0
4584,54.0,0,78,12.0,0.0
4585,42.0,0,78,14.0,0.0
4586,86.0,0,96,10.0,0.0
4587,43.0,0,312,14.0,0.0
4588,62.0,48,768,2.0,0.0
4589,74.0,0,768,2.0,0.0
4590,76.0,120,96,11.0,0.0
4591,55.0,0,312,13.0,0.0
4592,76.0,6,1872,0.0,0.0
4593,55.0,24,312,12.0,0.0
4594,62.0,6,912,1.0,0.0
4595,64.0,0,912,1.0,0.0
4596,86.0,0,96,10.0,0.0
4597,76.0,96,96,11.0,0.0
4598,86.0,120,96,10.0,0.0
4599,76.0,0,96,11.0,0.0
4600,76.0,120,96,11.0,0.0
4601,86.0,0,96,10.0,0.0
4602,59.0,0,234,13.0,0.0
4603,47.0,54,234,14.0,0.0
4604,59.0,0,234,12.0,0.0
4605,76.0,120,96,11.0,0.0
4606,86.0,0,96,10.0,0.0
4607,76.0,0,96,11.0,0.0
4608,86.0,18,96,10.0,0.0
4609,86.0,96,96,10.0,0.0
4610,76.0,0,96,11.0,0.0
4611,86.0,120,96,10.0,0.0
4612,76.0,0,96,11.0,0.0
4613,43.0,18,78,14.0,0.0
4614,55.0,0,78,13.0,0.0
4615,55.0,0,78,12.0,0.0
4616,76.0,120,96,11.0,0.0
4617,85.0,0,96,10.0,0.0
4618,57.0,24,312,13.0,0.0
4619,69.0,48,768,2.0,0.0
4620,64.0,0,912,1.0,0.0
4621,57.0,0,912,1.0,0.0
4622,57.0,0,312,12.0,0.0
4623,45.0,0,312,14.0,0.0
4624,85.0,0,912,0.0,0.0
4625,76.0,96,96,11.0,0.0
4626,85.0,0,96,10.0,0.0
4627,85.0,120,96,10.0,0.0
4628,76.0,0,96,11.0,0.0
4629,76.0,0,96,11.0,0.0
4630,85.0,120,96,10.0,0.0
4631,61.0,0,234,13.0,0.0
4632,76.0,120,96,11.0,0.0
4633,85.0,0,96,10.0,0.0
4634,61.0,0,234,12.0,0.0
4635,49.0,54,234,14.0,0.0
4636,85.0,18,96,10.0,0.0
4637,76.0,0,96,11.0,0.0
4638,76.0,0,96,11.0,0.0
4639,85.0,96,96,10.0,0.0
4640,45.0,0,78,14.0,0.0
4641,57.0,18,78,12.0,0.0
4642,57.0,0,78,13.0,0.0
4643,76.0,0,96,11.0,0.0
4644,85.0,408,96,10.0,0.0
4645,62.0,330,384,12.0,0.0
4646,62.0,0,384,1.0,0.0
4647,74.0,0,384,0.0,0.0
4648,86.0,0,384,10.0,0.0
4649,74.0,0,384,11.0,0.0
4650,66.0,0,384,2.0,0.0
4651,38.0,0,384,14.0,0.0
4652,54.0,0,384,1.0,0.0
4653,86.0,0,384,0.0,0.0
4654,50.0,0,384,13.0,0.0
4655,74.0,0,384,2.0,0.0
4656,74.0,78,234,11.0,0.0
4657,74.0,0,234,10.0,0.0
4658,50.0,0,312,14.0,0.0
4659,62.0,126,312,13.0,0.0
4660,74.0,354,78,11.0,0.0
4661,74.0,0,78,10.0,0.0
4662,74.0,0,312,11.0,0.0
4663,74.0,402,312,10.0,0.0
4664,62.0,0,312,13.0,0.0
4665,50.0,0,312,14.0,0.0
4666,57.0,0,312,13.0,0.0
4667,69.0,78,234,10.0,0.0
4668,45.0,126,312,14.0,0.0
4669,69.0,0,234,11.0,0.0
4670,69.0,0,78,11.0,0.0
4671,69.0,354,78,10.0,0.0
4672,57.0,0,312,13.0,0.0
4673,69.0,0,312,11.0,0.0
4674,69.0,0,312,10.0,0.0
4675,45.0,402,312,14.0,0.0
4676,42.0,0,312,14.0,0.0
4677,66.0,78,234,10.0,0.0
4678,54.0,126,312,13.0,0.0
4679,66.0,0,234,11.0,0.0
4680,66.0,354,78,11.0,0.0
4681,66.0,0,78,10.0,0.0
4682,66.0,0,312,10.0,0.0
4683,42.0,0,312,14.0,0.0
4684,66.0,0,312,11.0,0.0
4685,54.0,402,312,13.0,0.0
4686,62.0,78,234,11.0,0.0
4687,50.0,126,312,13.0,0.0
4688,38.0,0,312,14.0,0.0
4689,62.0,0,234,10.0,0.0
4690,62.0,346,78,11.0,0.0
4691,62.0,0,78,10.0,0.0
4692,50.0,64,320,13.0,0.0
4693,62.0,0,304,10.0,0.0
4694,62.0,16,304,11.0,0.0
4695,38.0,330,384,14.0,0.0
4696,50.0,0,312,14.0,0.0
4697,74.0,0,312,2.0,0.0
4698,62.0,0,234,12.0,0.0
4699,74.0,78,234,11.0,0.0
4700,86.0,0,234,10.0,0.0
4701,86.0,0,234,0.0,0.0
4702,62.0,0,312,1.0,0.0
4703,74.0,0,234,0.0,0.0
4704,62.0,126,312,13.0,0.0
4705,74.0,0,78,0.0,0.0
4706,62.0,0,78,12.0,0.0
4707,86.0,354,78,0.0,0.0
4708,74.0,0,78,11.0,0.0
4709,86.0,0,78,10.0,0.0
4710,50.0,0,312,14.0,0.0
4711,86.0,0,312,10.0,0.0
4712,62.0,0,312,13.0,0.0
4713,86.0,0,312,0.0,0.0
4714,62.0,0,312,1.0,0.0
4715,74.0,402,312,0.0,0.0
4716,74.0,0,312,2.0,0.0
4717,74.0,0,312,11.0,0.0
4718,62.0,0,312,12.0,0.0
4719,57.0,78,234,12.0,0.0
4720,81.0,0,234,10.0,0.0
4721,57.0,0,312,13.0,0.0
4722,69.0,0,234,0.0,0.0
4723,57.0,0,312,1.0,0.0
4724,81.0,0,234,0.0,0.0
4725,69.0,0,234,11.0,0.0
4726,69.0,126,312,2.0,0.0
4727,45.0,0,312,14.0,0.0
4728,57.0,0,78,12.0,0.0
4729,69.0,0,78,11.0,0.0
4730,81.0,0,78,0.0,0.0
4731,81.0,0,78,10.0,0.0
4732,69.0,354,78,0.0,0.0
4733,69.0,402,312,11.0,0.0
4734,57.0,0,312,1.0,0.0
4735,81.0,0,312,10.0,0.0
4736,69.0,0,312,2.0,0.0
4737,45.0,0,312,14.0,0.0
4738,57.0,0,312,13.0,0.0
4739,57.0,0,312,12.0,0.0
4740,81.0,0,312,0.0,0.0
4741,69.0,0,312,0.0,0.0
4742,66.0,0,234,0.0,0.0
4743,78.0,0,234,10.0,0.0
4744,42.0,126,312,14.0,0.0
4745,66.0,0,312,2.0,0.0
4746,54.0,0,312,13.0,0.0
4747,66.0,0,234,11.0,0.0
4748,78.0,78,234,0.0,0.0
4749,54.0,0,312,1.0,0.0
4750,54.0,0,234,12.0,0.0
4751,66.0,0,78,11.0,0.0
4752,54.0,0,78,12.0,0.0
4753,78.0,354,78,10.0,0.0
4754,78.0,0,78,0.0,0.0
4755,66.0,0,78,0.0,0.0
4756,78.0,0,312,0.0,0.0
4757,78.0,0,312,10.0,0.0
4758,42.0,0,312,14.0,0.0
4759,54.0,402,312,12.0,0.0
4760,54.0,0,312,13.0,0.0
4761,66.0,0,312,2.0,0.0
4762,66.0,0,312,11.0,0.0
4763,54.0,0,312,1.0,0.0
4764,66.0,0,312,0.0,0.0
4765,74.0,78,234,0.0,0.0
4766,62.0,0,234,0.0,0.0
4767,50.0,0,234,12.0,0.0
4768,50.0,0,312,1.0,0.0
4769,62.0,0,234,11.0,0.0
4770,38.0,126,312,14.0,0.0
4771,50.0,0,312,13.0,0.0
4772,62.0,0,312,2.0,0.0
4773,74.0,0,234,10.0,0.0
4774,62.0,0,78,11.0,0.0
4775,50.0,0,78,12.0,0.0
4776,62.0,0,78,0.0,0.0
4777,74.0,0,78,0.0,0.0
4778,74.0,354,78,10.0,0.0
4779,62.0,0,384,11.0,0.0
4780,74.0,0,384,0.0,0.0
4781,38.0,0,384,14.0,0.0
4782,50.0,72,312,1.0,0.0
4783,62.0,0,384,0.0,0.0
4784,50.0,2232,384,12.0,0.0
4785,74.0,0,384,10.0,0.0
4786,50.0,0,384,13.0,0.0
4787,62.0,0,384,2.0,0.0
4788,50.0,0,8064,1.0,0.0
4789,69.0,0,480,11.0,0.0
4790,66.0,240,480,12.0,0.0
4791,74.0,216,216,10.0,0.0
4792,74.0,48,72,10.0,0.0
4793,74.0,144,240,10.0,0.0
4794,67.0,240,384,12.0,0.0
4795,71.0,0,384,11.0,0.0
4796,76.0,0,144,10.0,0.0
4797,74.0,240,144,10.0,0.0
4798,67.0,0,480,11.0,0.0
4799,64.0,240,480,12.0,0.0
4800,73.0,96,144,10.0,0.0
4801,66.0,240,384,11.0,0.0
4802,62.0,0,384,12.0,0.0
4803,76.0,144,240,10.0,0.0
4804,74.0,0,144,10.0,0.0
4805,69.0,0,480,11.0,0.0
4806,66.0,240,480,12.0,0.0
4807,74.0,240,144,10.0,0.0
4808,74.0,96,144,10.0,0.0
4809,74.0,144,240,10.0,0.0
4810,67.0,0,384,12.0,0.0
4811,71.0,0,384,11.0,0.0
4812,76.0,240,144,10.0,0.0
4813,67.0,240,480,11.0,0.0
4814,74.0,240,144,10.0,0.0
4815,64.0,0,480,12.0,0.0
4816,73.0,96,144,10.0,0.0
4817,76.0,144,240,10.0,0.0
4818,62.0,240,384,12.0,0.0
4819,62.0,4224,4224,0.0,0.0
4820,66.0,0,384,11.0,0.0
4821,86.0,0,4224,0.0,0.0
4822,74.0,0,144,10.0,0.0
4823,69.0,0,480,11.0,0.0
4824,66.0,240,480,12.0,0.0
4825,74.0,240,144,10.0,0.0
4826,74.0,96,144,10.0,0.0
4827,71.0,0,384,11.0,0.0
4828,74.0,144,240,10.0,0.0
4829,67.0,240,384,12.0,0.0
4830,76.0,0,144,10.0,0.0
4831,74.0,240,144,10.0,0.0
4832,64.0,0,480,12.0,0.0
4833,67.0,240,480,11.0,0.0
4834,73.0,96,144,10.0,0.0
4835,66.0,0,384,11.0,0.0
4836,62.0,240,384,12.0,0.0
4837,76.0,144,240,10.0,0.0
4838,74.0,0,144,10.0,0.0
4839,74.0,240,144,10.0,0.0
4840,66.0,0,480,12.0,0.0
4841,69.0,240,480,11.0,0.0
4842,74.0,96,144,10.0,0.0
4843,74.0,144,240,10.0,0.0
4844,71.0,240,384,11.0,0.0
4845,67.0,0,384,12.0,0.0
4846,76.0,0,144,10.0,0.0
4847,64.0,0,480,12.0,0.0
4848,74.0,240,144,10.0,0.0
4849,67.0,384,480,11.0,0.0
4850,73.0,96,144,10.0,0.0
4851,74.0,0,384,10.0,0.0
4852,62.0,0,384,12.0,0.0
4853,66.0,0,384,11.0,0.0
4854,38.0,0,768,14.0,0.0
