tick,type,time,meta,track,numerator,denominator,clocks_per_click,notated_32nd_notes_per_beat,key,tempo,port,control,value,channel,program,note,velocity
0,track_name,0,1,0,,,,,,,,,,,,,
0,control_change,0,0,4,,,,,,,,91,54,3,,,
0,control_change,0,0,4,,,,,,,,10,38,3,,,
0,control_change,0,0,4,,,,,,,,7,127,3,,,
0,control_change,0,0,4,,,,,,,,32,0,3,,,
0,control_change,0,0,4,,,,,,,,0,0,3,,,
0,track_name,0,1,4,,,,,,,,,,,,,
0,midi_port,0,1,4,,,,,,,0,,,,,,
0,note_on,0,0,3,,,,,,,,,,2,,62,89
0,program_change,0,0,3,,,,,,,,,,2,48,,
0,control_change,0,0,3,,,,,,,,91,53,2,,,
0,control_change,0,0,3,,,,,,,,10,12,2,,,
0,control_change,0,0,3,,,,,,,,7,127,2,,,
0,control_change,0,0,3,,,,,,,,32,0,2,,,
0,control_change,0,0,3,,,,,,,,0,0,2,,,
0,track_name,0,1,3,,,,,,,,,,,,,
0,midi_port,0,1,3,,,,,,,0,,,,,,
0,note_on,0,0,2,,,,,,,,,,1,,74,72
0,program_change,0,0,2,,,,,,,,,,1,60,,
0,control_change,0,0,2,,,,,,,,91,91,1,,,
0,control_change,0,0,2,,,,,,,,10,38,1,,,
0,control_change,0,0,2,,,,,,,,7,80,1,,,
0,control_change,0,0,2,,,,,,,,32,0,1,,,
0,control_change,0,0,2,,,,,,,,0,0,1,,,
0,program_change,0,0,4,,,,,,,,,,3,48,,
0,note_on,0,0,4,,,,,,,,,,3,,62,88
0,track_name,0,1,9,,,,,,,,,,,,,
0,midi_port,0,1,5,,,,,,,0,,,,,,
0,midi_port,0,1,9,,,,,,,0,,,,,,
0,end_of_track,0,1,8,,,,,,,,,,,,,
0,track_name,0,1,8,,,,,,,,,,,,,
0,midi_port,0,1,8,,,,,,,0,,,,,,
0,end_of_track,0,1,7,,,,,,,,,,,,,
0,track_name,0,1,7,,,,,,,,,,,,,
0,midi_port,0,1,7,,,,,,,0,,,,,,
0,note_on,0,0,6,,,,,,,,,,5,,38,87
0,program_change,0,0,6,,,,,,,,,,5,43,,
0,control_change,0,0,6,,,,,,,,91,72,5,,,
0,control_change,0,0,6,,,,,,,,10,88,5,,,
0,track_name,0,1,2,,,,,,,,,,,,,
0,control_change,0,0,6,,,,,,,,7,100,5,,,
0,control_change,0,0,6,,,,,,,,0,0,5,,,
0,track_name,0,1,6,,,,,,,,,,,,,
0,midi_port,0,1,6,,,,,,,0,,,,,,
0,note_on,0,0,5,,,,,,,,,,4,,62,88
0,program_change,0,0,5,,,,,,,,,,4,48,,
0,control_change,0,0,5,,,,,,,,91,64,4,,,
0,control_change,0,0,5,,,,,,,,10,63,4,,,
0,control_change,0,0,5,,,,,,,,7,120,4,,,
0,control_change,0,0,5,,,,,,,,32,0,4,,,
0,control_change,0,0,5,,,,,,,,0,0,4,,,
0,track_name,0,1,5,,,,,,,,,,,,,
0,control_change,0,0,6,,,,,,,,32,0,5,,,
0,midi_port,0,1,2,,,,,,,0,,,,,,
0,end_of_track,0,1,9,,,,,,,,,,,,,
0,control_change,0,0,1,,,,,,,,32,0,0,,,
0,control_change,0,0,1,,,,,,,,10,63,0,,,
0,control_change,0,0,1,,,,,,,,91,76,0,,,
0,program_change,0,0,1,,,,,,,,,,0,68,,
0,note_on,0,0,1,,,,,,,,,,0,,74,71
0,track_name,0,1,1,,,,,,,,,,,,,
0,control_change,0,0,1,,,,,,,,7,120,0,,,
0,set_tempo,0,1,0,,,,,,428571,,,,,,,
0,time_signature,0,1,0,4,4,24,8,,,,,,,,,
0,text,0,1,0,,,,,,,,,,,,,
0,track_name,0,1,0,,,,,,,,,,,,,
0,midi_port,0,1,1,,,,,,,0,,,,,,
0,key_signature,0,1,0,,,,,D,,,,,,,,
0,control_change,0,0,1,,,,,,,,0,0,0,,,
201,note_on,201,0,3,,,,,,,,,,2,,62,0
201,note_on,201,0,1,,,,,,,,,,0,,74,0
201,note_on,201,0,6,,,,,,,,,,5,,38,0
201,note_on,201,0,4,,,,,,,,,,3,,62,0
201,note_on,201,0,5,,,,,,,,,,4,,62,0
201,note_on,201,0,2,,,,,,,,,,1,,74,0
210,note_on,9,0,1,,,,,,,,,,0,,69,67
210,note_on,9,0,2,,,,,,,,,,1,,69,64
210,note_on,9,0,4,,,,,,,,,,3,,57,84
210,note_on,9,0,6,,,,,,,,,,5,,33,85
210,note_on,9,0,5,,,,,,,,,,4,,57,82
210,note_on,9,0,3,,,,,,,,,,2,,57,84
237,note_on,27,0,4,,,,,,,,,,3,,57,0
237,note_on,27,0,1,,,,,,,,,,0,,69,0
237,note_on,27,0,3,,,,,,,,,,2,,57,0
237,note_on,27,0,2,,,,,,,,,,1,,69,0
237,note_on,27,0,5,,,,,,,,,,4,,57,0
237,note_on,27,0,6,,,,,,,,,,5,,33,0
240,note_on,3,0,3,,,,,,,,,,2,,62,105
240,note_on,3,0,5,,,,,,,,,,4,,62,106
240,note_on,3,0,1,,,,,,,,,,0,,74,83
240,note_on,3,0,2,,,,,,,,,,1,,74,83
240,note_on,3,0,4,,,,,,,,,,3,,62,108
240,note_on,3,0,6,,,,,,,,,,5,,38,106
348,note_on,108,0,6,,,,,,,,,,5,,38,0
348,note_on,108,0,1,,,,,,,,,,0,,74,0
348,note_on,108,0,2,,,,,,,,,,1,,74,0
348,note_on,108,0,5,,,,,,,,,,4,,62,0
348,note_on,108,0,3,,,,,,,,,,2,,62,0
348,note_on,108,0,4,,,,,,,,,,3,,62,0
360,note_on,12,0,3,,,,,,,,,,2,,66,111
360,note_on,12,0,6,,,,,,,,,,5,,42,113
360,note_on,12,0,4,,,,,,,,,,3,,66,113
360,note_on,12,0,5,,,,,,,,,,4,,66,110
360,note_on,12,0,1,,,,,,,,,,0,,78,89
441,note_on,81,0,4,,,,,,,,,,3,,66,0
441,note_on,81,0,1,,,,,,,,,,0,,78,0
441,note_on,81,0,3,,,,,,,,,,2,,66,0
441,note_on,81,0,5,,,,,,,,,,4,,66,0
441,note_on,81,0,6,,,,,,,,,,5,,42,0
450,note_on,102,0,2,,,,,,,,,,1,,69,69
450,note_on,9,0,1,,,,,,,,,,0,,69,62
450,note_on,9,0,5,,,,,,,,,,4,,57,76
450,note_on,9,0,4,,,,,,,,,,3,,57,78
450,note_on,9,0,6,,,,,,,,,,5,,33,78
450,note_on,9,0,3,,,,,,,,,,2,,57,78
477,note_on,27,0,2,,,,,,,,,,1,,69,0
477,note_on,27,0,1,,,,,,,,,,0,,69,0
477,note_on,27,0,3,,,,,,,,,,2,,57,0
477,note_on,27,0,6,,,,,,,,,,5,,33,0
477,note_on,27,0,5,,,,,,,,,,4,,57,0
477,note_on,27,0,4,,,,,,,,,,3,,57,0
480,note_on,3,0,2,,,,,,,,,,1,,74,88
480,note_on,3,0,3,,,,,,,,,,2,,62,107
480,note_on,3,0,6,,,,,,,,,,5,,38,107
480,note_on,3,0,1,,,,,,,,,,0,,74,85
480,note_on,3,0,4,,,,,,,,,,3,,62,108
480,note_on,3,0,5,,,,,,,,,,4,,62,107
681,note_on,201,0,1,,,,,,,,,,0,,74,0
681,note_on,201,0,3,,,,,,,,,,2,,62,0
681,note_on,201,0,6,,,,,,,,,,5,,38,0
681,note_on,201,0,2,,,,,,,,,,1,,74,0
681,note_on,201,0,4,,,,,,,,,,3,,62,0
681,note_on,201,0,5,,,,,,,,,,4,,62,0
690,note_on,9,0,5,,,,,,,,,,4,,57,84
690,note_on,9,0,1,,,,,,,,,,0,,69,66
690,note_on,9,0,2,,,,,,,,,,1,,69,64
690,note_on,9,0,6,,,,,,,,,,5,,33,81
690,note_on,9,0,3,,,,,,,,,,2,,57,81
690,note_on,9,0,4,,,,,,,,,,3,,57,83
717,note_on,27,0,4,,,,,,,,,,3,,57,0
717,note_on,27,0,2,,,,,,,,,,1,,69,0
717,note_on,27,0,3,,,,,,,,,,2,,57,0
717,note_on,27,0,6,,,,,,,,,,5,,33,0
717,note_on,27,0,1,,,,,,,,,,0,,69,0
717,note_on,27,0,5,,,,,,,,,,4,,57,0
720,note_on,3,0,3,,,,,,,,,,2,,62,106
720,note_on,3,0,6,,,,,,,,,,5,,38,106
720,note_on,3,0,1,,,,,,,,,,0,,74,85
720,note_on,3,0,2,,,,,,,,,,1,,74,83
720,note_on,3,0,5,,,,,,,,,,4,,62,104
720,note_on,3,0,4,,,,,,,,,,3,,62,107
828,note_on,108,0,4,,,,,,,,,,3,,62,0
828,note_on,108,0,1,,,,,,,,,,0,,74,0
828,note_on,108,0,6,,,,,,,,,,5,,38,0
828,note_on,108,0,5,,,,,,,,,,4,,62,0
828,note_on,108,0,3,,,,,,,,,,2,,62,0
828,note_on,108,0,2,,,,,,,,,,1,,74,0
840,note_on,12,0,3,,,,,,,,,,2,,66,112
840,note_on,12,0,1,,,,,,,,,,0,,78,87
840,note_on,12,0,5,,,,,,,,,,4,,66,110
840,note_on,12,0,4,,,,,,,,,,3,,66,110
840,note_on,12,0,6,,,,,,,,,,5,,42,110
921,note_on,81,0,5,,,,,,,,,,4,,66,0
921,note_on,81,0,3,,,,,,,,,,2,,66,0
921,note_on,81,0,1,,,,,,,,,,0,,78,0
921,note_on,81,0,4,,,,,,,,,,3,,66,0
921,note_on,81,0,6,,,,,,,,,,5,,42,0
930,note_on,102,0,2,,,,,,,,,,1,,69,69
930,note_on,9,0,3,,,,,,,,,,2,,57,79
930,note_on,9,0,5,,,,,,,,,,4,,57,79
930,note_on,9,0,1,,,,,,,,,,0,,69,62
930,note_on,9,0,6,,,,,,,,,,5,,33,78
930,note_on,9,0,4,,,,,,,,,,3,,57,77
957,note_on,27,0,3,,,,,,,,,,2,,57,0
957,note_on,27,0,6,,,,,,,,,,5,,33,0
957,note_on,27,0,4,,,,,,,,,,3,,57,0
957,note_on,27,0,2,,,,,,,,,,1,,69,0
957,note_on,27,0,5,,,,,,,,,,4,,57,0
957,note_on,27,0,1,,,,,,,,,,0,,69,0
960,note_on,3,0,4,,,,,,,,,,3,,62,109
960,note_on,3,0,2,,,,,,,,,,1,,74,89
960,note_on,3,0,5,,,,,,,,,,4,,62,106
960,note_on,3,0,1,,,,,,,,,,0,,74,86
960,note_on,3,0,3,,,,,,,,,,2,,62,107
960,note_on,3,0,6,,,,,,,,,,5,,38,107
1014,note_on,54,0,5,,,,,,,,,,4,,62,0
1014,note_on,54,0,4,,,,,,,,,,3,,62,0
1014,note_on,54,0,3,,,,,,,,,,2,,62,0
1014,note_on,54,0,6,,,,,,,,,,5,,38,0
1020,note_on,6,0,6,,,,,,,,,,5,,38,47
1020,note_on,6,0,5,,,,,,,,,,4,,62,47
1068,note_on,108,0,1,,,,,,,,,,0,,74,0
1068,note_on,108,0,2,,,,,,,,,,1,,74,0
1074,note_on,54,0,5,,,,,,,,,,4,,62,0
1074,note_on,54,0,6,,,,,,,,,,5,,38,0
1080,note_on,6,0,6,,,,,,,,,,5,,38,51
1080,note_on,66,0,3,,,,,,,,,,2,,83,44
1080,note_on,66,0,4,,,,,,,,,,3,,79,47
1080,note_on,6,0,5,,,,,,,,,,4,,62,49
1134,note_on,54,0,4,,,,,,,,,,3,,79,0
1134,note_on,54,0,6,,,,,,,,,,5,,38,0
1134,note_on,54,0,5,,,,,,,,,,4,,62,0
1134,note_on,54,0,3,,,,,,,,,,2,,83,0
1140,note_on,6,0,6,,,,,,,,,,5,,38,50
1140,note_on,6,0,5,,,,,,,,,,4,,62,50
1194,note_on,54,0,6,,,,,,,,,,5,,38,0
1194,note_on,54,0,5,,,,,,,,,,4,,62,0
1200,note_on,66,0,4,,,,,,,,,,3,,78,44
1200,note_on,6,0,6,,,,,,,,,,5,,38,52
1200,note_on,6,0,5,,,,,,,,,,4,,62,52
1200,note_on,66,0,3,,,,,,,,,,2,,81,45
1254,note_on,54,0,5,,,,,,,,,,4,,62,0
1254,note_on,54,0,6,,,,,,,,,,5,,38,0
1254,note_on,54,0,4,,,,,,,,,,3,,78,0
1254,note_on,54,0,3,,,,,,,,,,2,,81,0
1260,note_on,6,0,6,,,,,,,,,,5,,38,49
1260,note_on,6,0,5,,,,,,,,,,4,,62,47
1314,note_on,54,0,6,,,,,,,,,,5,,38,0
1314,note_on,54,0,5,,,,,,,,,,4,,62,0
1320,note_on,6,0,6,,,,,,,,,,5,,38,52
1320,note_on,66,0,3,,,,,,,,,,2,,79,48
1320,note_on,66,0,4,,,,,,,,,,3,,76,45
1320,note_on,6,0,5,,,,,,,,,,4,,62,50
1374,note_on,54,0,4,,,,,,,,,,3,,76,0
1374,note_on,54,0,6,,,,,,,,,,5,,38,0
1374,note_on,54,0,5,,,,,,,,,,4,,62,0
1374,note_on,54,0,3,,,,,,,,,,2,,79,0
1380,note_on,6,0,5,,,,,,,,,,4,,62,50
1380,note_on,6,0,6,,,,,,,,,,5,,38,49
1434,note_on,54,0,5,,,,,,,,,,4,,62,0
1434,note_on,54,0,6,,,,,,,,,,5,,38,0
1440,note_on,6,0,5,,,,,,,,,,4,,62,51
1440,note_on,6,0,6,,,,,,,,,,5,,38,50
1440,note_on,66,0,4,,,,,,,,,,3,,74,47
1440,note_on,66,0,3,,,,,,,,,,2,,78,45
1494,note_on,54,0,5,,,,,,,,,,4,,62,0
1494,note_on,54,0,3,,,,,,,,,,2,,78,0
1494,note_on,54,0,6,,,,,,,,,,5,,38,0
1494,note_on,54,0,4,,,,,,,,,,3,,74,0
1500,note_on,6,0,6,,,,,,,,,,5,,38,47
1500,note_on,6,0,5,,,,,,,,,,4,,62,47
1554,note_on,54,0,5,,,,,,,,,,4,,62,0
1554,note_on,54,0,6,,,,,,,,,,5,,38,0
1560,note_on,6,0,6,,,,,,,,,,5,,38,52
1560,note_on,66,0,3,,,,,,,,,,2,,79,45
1560,note_on,6,0,5,,,,,,,,,,4,,62,52
1560,note_on,66,0,4,,,,,,,,,,3,,76,48
1614,note_on,54,0,5,,,,,,,,,,4,,62,0
1614,note_on,54,0,6,,,,,,,,,,5,,38,0
1614,note_on,54,0,4,,,,,,,,,,3,,76,0
1614,note_on,54,0,3,,,,,,,,,,2,,79,0
1620,note_on,6,0,6,,,,,,,,,,5,,38,49
1620,note_on,6,0,5,,,,,,,,,,4,,62,48
1674,note_on,54,0,6,,,,,,,,,,5,,38,0
1674,note_on,54,0,5,,,,,,,,,,4,,62,0
1680,note_on,66,0,3,,,,,,,,,,2,,78,45
1680,note_on,6,0,5,,,,,,,,,,4,,62,52
1680,note_on,6,0,6,,,,,,,,,,5,,38,51
1680,note_on,66,0,4,,,,,,,,,,3,,74,45
1734,note_on,54,0,4,,,,,,,,,,3,,74,0
1734,note_on,54,0,6,,,,,,,,,,5,,38,0
1734,note_on,54,0,3,,,,,,,,,,2,,78,0
1734,note_on,54,0,5,,,,,,,,,,4,,62,0
1740,note_on,6,0,5,,,,,,,,,,4,,62,47
1740,note_on,6,0,6,,,,,,,,,,5,,38,49
1794,note_on,54,0,5,,,,,,,,,,4,,62,0
1794,note_on,54,0,6,,,,,,,,,,5,,38,0
1800,note_on,66,0,3,,,,,,,,,,2,,76,46
1800,note_on,6,0,6,,,,,,,,,,5,,38,49
1800,note_on,6,0,5,,,,,,,,,,4,,62,53
1800,note_on,66,0,4,,,,,,,,,,3,,73,48
1854,note_on,54,0,5,,,,,,,,,,4,,62,0
1854,note_on,54,0,4,,,,,,,,,,3,,73,0
1854,note_on,54,0,3,,,,,,,,,,2,,76,0
1854,note_on,54,0,6,,,,,,,,,,5,,38,0
1860,note_on,6,0,5,,,,,,,,,,4,,62,47
1860,note_on,6,0,6,,,,,,,,,,5,,38,49
1914,note_on,54,0,6,,,,,,,,,,5,,38,0
1914,note_on,54,0,5,,,,,,,,,,4,,62,0
1920,note_on,6,0,5,,,,,,,,,,4,,62,98
1920,note_on,0,0,3,,,,,,,,,,2,,74,90
1920,note_on,66,0,3,,,,,,,,,,2,,62,89
1920,note_on,852,0,2,,,,,,,,,,1,,74,89
1920,note_on,852,0,1,,,,,,,,,,0,,74,72
1920,note_on,6,0,6,,,,,,,,,,5,,38,100
1920,note_on,0,0,4,,,,,,,,,,3,,74,87
1920,note_on,66,0,4,,,,,,,,,,3,,62,90
2028,note_on,0,0,3,,,,,,,,,,2,,62,0
2028,note_on,108,0,3,,,,,,,,,,2,,74,0
2028,note_on,0,0,4,,,,,,,,,,3,,62,0
2028,note_on,108,0,4,,,,,,,,,,3,,74,0
2040,note_on,12,0,3,,,,,,,,,,2,,66,76
2040,note_on,12,0,4,,,,,,,,,,3,,66,79
2121,note_on,201,0,2,,,,,,,,,,1,,74,0
2121,note_on,81,0,3,,,,,,,,,,2,,66,0
2121,note_on,201,0,1,,,,,,,,,,0,,74,0
2121,note_on,201,0,5,,,,,,,,,,4,,62,0
2121,note_on,81,0,4,,,,,,,,,,3,,66,0
2121,note_on,201,0,6,,,,,,,,,,5,,38,0
2130,note_on,9,0,2,,,,,,,,,,1,,69,85
2130,note_on,9,0,6,,,,,,,,,,5,,33,85
2130,note_on,9,0,1,,,,,,,,,,0,,69,66
2130,note_on,9,0,4,,,,,,,,,,3,,57,71
2130,note_on,9,0,3,,,,,,,,,,2,,57,69
2130,note_on,9,0,5,,,,,,,,,,4,,57,82
2157,note_on,27,0,4,,,,,,,,,,3,,57,0
2157,note_on,27,0,2,,,,,,,,,,1,,69,0
2157,note_on,27,0,1,,,,,,,,,,0,,69,0
2157,note_on,27,0,5,,,,,,,,,,4,,57,0
2157,note_on,27,0,6,,,,,,,,,,5,,33,0
2157,note_on,27,0,3,,,,,,,,,,2,,57,0
2160,note_on,3,0,2,,,,,,,,,,1,,74,105
2160,note_on,3,0,6,,,,,,,,,,5,,38,105
2160,note_on,3,0,1,,,,,,,,,,0,,74,83
2160,note_on,3,0,5,,,,,,,,,,4,,62,106
2160,note_on,3,0,4,,,,,,,,,,3,,62,104
2160,note_on,3,0,3,,,,,,,,,,2,,62,102
2268,note_on,108,0,6,,,,,,,,,,5,,38,0
2268,note_on,108,0,1,,,,,,,,,,0,,74,0
2268,note_on,108,0,5,,,,,,,,,,4,,62,0
2268,note_on,108,0,2,,,,,,,,,,1,,74,0
2280,note_on,12,0,5,,,,,,,,,,4,,66,111
2280,note_on,12,0,6,,,,,,,,,,5,,42,109
2280,note_on,12,0,1,,,,,,,,,,0,,78,88
2361,note_on,201,0,4,,,,,,,,,,3,,62,0
2361,note_on,81,0,1,,,,,,,,,,0,,78,0
2361,note_on,201,0,3,,,,,,,,,,2,,62,0
2361,note_on,81,0,5,,,,,,,,,,4,,66,0
2361,note_on,81,0,6,,,,,,,,,,5,,42,0
2370,note_on,9,0,6,,,,,,,,,,5,,33,78
2370,note_on,9,0,4,,,,,,,,,,3,,57,85
2370,note_on,9,0,3,,,,,,,,,,2,,57,82
2370,note_on,9,0,5,,,,,,,,,,4,,57,79
2370,note_on,102,0,2,,,,,,,,,,1,,69,88
2370,note_on,9,0,1,,,,,,,,,,0,,69,61
2397,note_on,27,0,3,,,,,,,,,,2,,57,0
2397,note_on,27,0,6,,,,,,,,,,5,,33,0
2397,note_on,27,0,1,,,,,,,,,,0,,69,0
2397,note_on,27,0,5,,,,,,,,,,4,,57,0
2397,note_on,27,0,4,,,,,,,,,,3,,57,0
2397,note_on,27,0,2,,,,,,,,,,1,,69,0
2400,note_on,3,0,4,,,,,,,,,,3,,62,109
2400,note_on,3,0,1,,,,,,,,,,0,,74,87
2400,note_on,3,0,6,,,,,,,,,,5,,38,110
2400,note_on,3,0,3,,,,,,,,,,2,,62,109
2400,note_on,3,0,5,,,,,,,,,,4,,62,108
2400,note_on,3,0,2,,,,,,,,,,1,,74,110
2601,note_on,201,0,2,,,,,,,,,,1,,74,0
2601,note_on,201,0,3,,,,,,,,,,2,,62,0
2601,note_on,201,0,1,,,,,,,,,,0,,74,0
2601,note_on,201,0,4,,,,,,,,,,3,,62,0
2601,note_on,201,0,5,,,,,,,,,,4,,62,0
2601,note_on,201,0,6,,,,,,,,,,5,,38,0
2610,note_on,9,0,3,,,,,,,,,,2,,57,85
2610,note_on,9,0,5,,,,,,,,,,4,,57,82
2610,note_on,9,0,2,,,,,,,,,,1,,69,84
2610,note_on,9,0,6,,,,,,,,,,5,,33,82
2610,note_on,9,0,4,,,,,,,,,,3,,57,85
2610,note_on,9,0,1,,,,,,,,,,0,,69,66
2637,note_on,27,0,6,,,,,,,,,,5,,33,0
2637,note_on,27,0,3,,,,,,,,,,2,,57,0
2637,note_on,27,0,4,,,,,,,,,,3,,57,0
2637,note_on,27,0,2,,,,,,,,,,1,,69,0
2637,note_on,27,0,1,,,,,,,,,,0,,69,0
2637,note_on,27,0,5,,,,,,,,,,4,,57,0
2640,note_on,3,0,5,,,,,,,,,,4,,62,106
2640,note_on,3,0,3,,,,,,,,,,2,,62,105
2640,note_on,3,0,1,,,,,,,,,,0,,74,84
2640,note_on,3,0,6,,,,,,,,,,5,,38,105
2640,note_on,3,0,4,,,,,,,,,,3,,62,106
2640,note_on,3,0,2,,,,,,,,,,1,,74,104
2748,note_on,108,0,6,,,,,,,,,,5,,38,0
2748,note_on,108,0,2,,,,,,,,,,1,,74,0
2748,note_on,108,0,1,,,,,,,,,,0,,74,0
2748,note_on,108,0,4,,,,,,,,,,3,,62,0
2748,note_on,108,0,5,,,,,,,,,,4,,62,0
2748,note_on,108,0,3,,,,,,,,,,2,,62,0
2760,note_on,12,0,4,,,,,,,,,,3,,62,101
2760,note_on,12,0,5,,,,,,,,,,4,,66,112
2760,note_on,12,0,1,,,,,,,,,,0,,78,90
2760,note_on,12,0,6,,,,,,,,,,5,,42,112
2760,note_on,12,0,3,,,,,,,,,,2,,62,99
2841,note_on,81,0,4,,,,,,,,,,3,,62,0
2841,note_on,81,0,3,,,,,,,,,,2,,62,0
2841,note_on,81,0,5,,,,,,,,,,4,,66,0
2841,note_on,81,0,6,,,,,,,,,,5,,42,0
2841,note_on,81,0,1,,,,,,,,,,0,,78,0
2850,note_on,9,0,6,,,,,,,,,,5,,33,78
2850,note_on,9,0,3,,,,,,,,,,2,,57,83
2850,note_on,9,0,1,,,,,,,,,,0,,69,62
2850,note_on,102,0,2,,,,,,,,,,1,,69,85
2850,note_on,9,0,4,,,,,,,,,,3,,57,84
2850,note_on,9,0,5,,,,,,,,,,4,,57,76
2877,note_on,27,0,6,,,,,,,,,,5,,33,0
2877,note_on,27,0,3,,,,,,,,,,2,,57,0
2877,note_on,27,0,4,,,,,,,,,,3,,57,0
2877,note_on,27,0,2,,,,,,,,,,1,,69,0
2877,note_on,27,0,1,,,,,,,,,,0,,69,0
2877,note_on,27,0,5,,,,,,,,,,4,,57,0
2880,note_on,3,0,3,,,,,,,,,,2,,62,109
2880,note_on,0,0,2,,,,,,,,,,1,,74,108
2880,note_on,3,0,4,,,,,,,,,,3,,62,108
2880,note_on,3,0,2,,,,,,,,,,1,,74,110
2880,note_on,3,0,5,,,,,,,,,,4,,62,107
2880,note_on,3,0,6,,,,,,,,,,5,,38,109
2880,note_on,3,0,1,,,,,,,,,,0,,74,87
2934,note_on,54,0,5,,,,,,,,,,4,,62,0
2934,note_on,54,0,4,,,,,,,,,,3,,62,0
2934,note_on,54,0,3,,,,,,,,,,2,,62,0
2934,note_on,54,0,2,,,,,,,,,,1,,74,0
2934,note_on,0,0,2,,,,,,,,,,1,,74,0
2934,note_on,54,0,6,,,,,,,,,,5,,38,0
2940,note_on,6,0,5,,,,,,,,,,4,,62,48
2940,note_on,6,0,6,,,,,,,,,,5,,38,47
2988,note_on,108,0,1,,,,,,,,,,0,,74,0
2994,note_on,54,0,5,,,,,,,,,,4,,62,0
2994,note_on,54,0,6,,,,,,,,,,5,,38,0
3000,note_on,66,0,2,,,,,,,,,,1,,79,45
3000,note_on,6,0,5,,,,,,,,,,4,,62,53
3000,note_on,66,0,3,,,,,,,,,,2,,83,46
3000,note_on,66,0,4,,,,,,,,,,3,,79,47
3000,note_on,0,0,2,,,,,,,,,,1,,83,45
3000,note_on,6,0,6,,,,,,,,,,5,,38,51
3054,note_on,54,0,4,,,,,,,,,,3,,79,0
3054,note_on,0,0,2,,,,,,,,,,1,,79,0
3054,note_on,54,0,5,,,,,,,,,,4,,62,0
3054,note_on,54,0,3,,,,,,,,,,2,,83,0
3054,note_on,54,0,6,,,,,,,,,,5,,38,0
3054,note_on,54,0,2,,,,,,,,,,1,,83,0
3060,note_on,6,0,6,,,,,,,,,,5,,38,46
3060,note_on,6,0,5,,,,,,,,,,4,,62,46
3114,note_on,54,0,6,,,,,,,,,,5,,38,0
3114,note_on,54,0,5,,,,,,,,,,4,,62,0
3120,note_on,66,0,4,,,,,,,,,,3,,78,46
3120,note_on,6,0,5,,,,,,,,,,4,,62,51
3120,note_on,6,0,6,,,,,,,,,,5,,38,51
3120,note_on,0,0,2,,,,,,,,,,1,,81,46
3120,note_on,66,0,2,,,,,,,,,,1,,78,44
3120,note_on,66,0,3,,,,,,,,,,2,,81,45
3174,note_on,54,0,4,,,,,,,,,,3,,78,0
3174,note_on,54,0,6,,,,,,,,,,5,,38,0
3174,note_on,0,0,2,,,,,,,,,,1,,78,0
3174,note_on,54,0,2,,,,,,,,,,1,,81,0
3174,note_on,54,0,5,,,,,,,,,,4,,62,0
3174,note_on,54,0,3,,,,,,,,,,2,,81,0
3180,note_on,6,0,6,,,,,,,,,,5,,38,49
3180,note_on,6,0,5,,,,,,,,,,4,,62,50
3234,note_on,54,0,6,,,,,,,,,,5,,38,0
3234,note_on,54,0,5,,,,,,,,,,4,,62,0
3240,note_on,66,0,4,,,,,,,,,,3,,76,47
3240,note_on,66,0,3,,,,,,,,,,2,,79,47
3240,note_on,0,0,2,,,,,,,,,,1,,79,45
3240,note_on,6,0,6,,,,,,,,,,5,,38,51
3240,note_on,6,0,5,,,,,,,,,,4,,62,50
3240,note_on,66,0,2,,,,,,,,,,1,,76,45
3294,note_on,54,0,5,,,,,,,,,,4,,62,0
3294,note_on,54,0,4,,,,,,,,,,3,,76,0
3294,note_on,54,0,2,,,,,,,,,,1,,79,0
3294,note_on,54,0,3,,,,,,,,,,2,,79,0
3294,note_on,54,0,6,,,,,,,,,,5,,38,0
3294,note_on,0,0,2,,,,,,,,,,1,,76,0
3300,note_on,6,0,6,,,,,,,,,,5,,38,50
3300,note_on,6,0,5,,,,,,,,,,4,,62,47
3354,note_on,54,0,6,,,,,,,,,,5,,38,0
3354,note_on,54,0,5,,,,,,,,,,4,,62,0
3360,note_on,66,0,2,,,,,,,,,,1,,74,47
3360,note_on,0,0,2,,,,,,,,,,1,,78,48
3360,note_on,6,0,6,,,,,,,,,,5,,38,49
3360,note_on,66,0,3,,,,,,,,,,2,,78,46
3360,note_on,66,0,4,,,,,,,,,,3,,74,47
3360,note_on,6,0,5,,,,,,,,,,4,,62,52
3414,note_on,54,0,6,,,,,,,,,,5,,38,0
3414,note_on,54,0,4,,,,,,,,,,3,,74,0
3414,note_on,54,0,3,,,,,,,,,,2,,78,0
3414,note_on,0,0,2,,,,,,,,,,1,,74,0
3414,note_on,54,0,2,,,,,,,,,,1,,78,0
3414,note_on,54,0,5,,,,,,,,,,4,,62,0
3420,note_on,6,0,5,,,,,,,,,,4,,62,48
3420,note_on,6,0,6,,,,,,,,,,5,,38,48
3474,note_on,54,0,6,,,,,,,,,,5,,38,0
3474,note_on,54,0,5,,,,,,,,,,4,,62,0
3480,note_on,6,0,6,,,,,,,,,,5,,38,50
3480,note_on,0,0,2,,,,,,,,,,1,,79,48
3480,note_on,6,0,5,,,,,,,,,,4,,62,51
3480,note_on,66,0,2,,,,,,,,,,1,,76,45
3480,note_on,66,0,3,,,,,,,,,,2,,79,45
3480,note_on,66,0,4,,,,,,,,,,3,,76,45
3534,note_on,54,0,3,,,,,,,,,,2,,79,0
3534,note_on,54,0,2,,,,,,,,,,1,,79,0
3534,note_on,0,0,2,,,,,,,,,,1,,76,0
3534,note_on,54,0,4,,,,,,,,,,3,,76,0
3534,note_on,54,0,6,,,,,,,,,,5,,38,0
3534,note_on,54,0,5,,,,,,,,,,4,,62,0
3540,note_on,6,0,6,,,,,,,,,,5,,38,47
3540,note_on,6,0,5,,,,,,,,,,4,,62,47
3594,note_on,54,0,5,,,,,,,,,,4,,62,0
3594,note_on,54,0,6,,,,,,,,,,5,,38,0
3600,note_on,66,0,4,,,,,,,,,,3,,74,44
3600,note_on,66,0,3,,,,,,,,,,2,,78,45
3600,note_on,0,0,2,,,,,,,,,,1,,78,45
3600,note_on,6,0,6,,,,,,,,,,5,,38,51
3600,note_on,66,0,2,,,,,,,,,,1,,74,47
3600,note_on,6,0,5,,,,,,,,,,4,,62,49
3654,note_on,54,0,2,,,,,,,,,,1,,78,0
3654,note_on,0,0,2,,,,,,,,,,1,,74,0
3654,note_on,54,0,3,,,,,,,,,,2,,78,0
3654,note_on,54,0,6,,,,,,,,,,5,,38,0
3654,note_on,54,0,5,,,,,,,,,,4,,62,0
3654,note_on,54,0,4,,,,,,,,,,3,,74,0
3660,note_on,6,0,6,,,,,,,,,,5,,38,50
3660,note_on,6,0,5,,,,,,,,,,4,,62,46
3714,note_on,54,0,6,,,,,,,,,,5,,38,0
3714,note_on,54,0,5,,,,,,,,,,4,,62,0
3720,note_on,66,0,3,,,,,,,,,,2,,76,48
3720,note_on,66,0,2,,,,,,,,,,1,,69,46
3720,note_on,0,0,2,,,,,,,,,,1,,76,44
3720,note_on,6,0,5,,,,,,,,,,4,,62,53
3720,note_on,66,0,4,,,,,,,,,,3,,73,46
3720,note_on,6,0,6,,,,,,,,,,5,,38,53
3774,note_on,54,0,3,,,,,,,,,,2,,76,0
3774,note_on,0,0,2,,,,,,,,,,1,,69,0
3774,note_on,54,0,2,,,,,,,,,,1,,76,0
3774,note_on,54,0,5,,,,,,,,,,4,,62,0
3774,note_on,54,0,6,,,,,,,,,,5,,38,0
3774,note_on,54,0,4,,,,,,,,,,3,,73,0
3780,note_on,6,0,5,,,,,,,,,,4,,62,47
3780,note_on,6,0,6,,,,,,,,,,5,,38,49
3834,note_on,54,0,5,,,,,,,,,,4,,62,0
3834,note_on,54,0,6,,,,,,,,,,5,,38,0
3840,note_on,66,0,4,,,,,,,,,,3,,74,88
3840,note_on,0,0,2,,,,,,,,,,1,,74,88
3840,note_on,66,0,2,,,,,,,,,,1,,66,89
3840,note_on,6,0,5,,,,,,,,,,4,,62,100
3840,note_on,0,0,1,,,,,,,,,,0,,78,88
3840,note_on,66,0,3,,,,,,,,,,2,,74,89
3840,note_on,852,0,1,,,,,,,,,,0,,69,90
3840,note_on,6,0,6,,,,,,,,,,5,,38,99
3867,note_on,27,0,3,,,,,,,,,,2,,74,0
3867,note_on,27,0,4,,,,,,,,,,3,,74,0
3870,note_on,3,0,3,,,,,,,,,,2,,81,111
3870,note_on,3,0,4,,,,,,,,,,3,,78,106
3897,note_on,27,0,3,,,,,,,,,,2,,81,0
3897,note_on,27,0,4,,,,,,,,,,3,,78,0
3900,note_on,3,0,3,,,,,,,,,,2,,81,97
3900,note_on,3,0,4,,,,,,,,,,3,,78,96
3927,note_on,27,0,4,,,,,,,,,,3,,78,0
3927,note_on,27,0,3,,,,,,,,,,2,,81,0
3930,note_on,3,0,3,,,,,,,,,,2,,81,94
3930,note_on,3,0,4,,,,,,,,,,3,,78,94
3948,note_on,108,0,6,,,,,,,,,,5,,38,0
3948,note_on,108,0,2,,,,,,,,,,1,,74,0
3948,note_on,0,0,2,,,,,,,,,,1,,66,0
3948,note_on,108,0,5,,,,,,,,,,4,,62,0
3957,note_on,27,0,4,,,,,,,,,,3,,78,0
3957,note_on,27,0,3,,,,,,,,,,2,,81,0
3960,note_on,12,0,5,,,,,,,,,,4,,66,110
3960,note_on,3,0,4,,,,,,,,,,3,,78,96
3960,note_on,3,0,3,,,,,,,,,,2,,81,96
3960,note_on,12,0,6,,,,,,,,,,5,,42,110
3984,note_on,24,0,4,,,,,,,,,,3,,78,0
3984,note_on,24,0,3,,,,,,,,,,2,,81,0
3990,note_on,6,0,4,,,,,,,,,,3,,78,96
3990,note_on,6,0,3,,,,,,,,,,2,,81,96
4014,note_on,24,0,3,,,,,,,,,,2,,81,0
4014,note_on,24,0,4,,,,,,,,,,3,,78,0
4020,note_on,6,0,4,,,,,,,,,,3,,78,96
4020,note_on,6,0,3,,,,,,,,,,2,,81,96
4041,note_on,81,0,6,,,,,,,,,,5,,42,0
4041,note_on,81,0,5,,,,,,,,,,4,,66,0
4044,note_on,24,0,4,,,,,,,,,,3,,78,0
4044,note_on,24,0,3,,,,,,,,,,2,,81,0
4050,note_on,6,0,3,,,,,,,,,,2,,81,96
4050,note_on,6,0,4,,,,,,,,,,3,,78,96
4050,note_on,9,0,6,,,,,,,,,,5,,45,104
4050,note_on,9,0,5,,,,,,,,,,4,,69,107
4074,note_on,24,0,4,,,,,,,,,,3,,78,0
4074,note_on,24,0,3,,,,,,,,,,2,,81,0
4077,note_on,27,0,5,,,,,,,,,,4,,69,0
4077,note_on,27,0,6,,,,,,,,,,5,,45,0
4080,note_on,6,0,4,,,,,,,,,,3,,78,96
4080,note_on,0,0,2,,,,,,,,,,1,,81,84
4080,note_on,6,0,3,,,,,,,,,,2,,81,96
4080,note_on,3,0,6,,,,,,,,,,5,,50,110
4080,note_on,132,0,2,,,,,,,,,,1,,78,86
4080,note_on,3,0,5,,,,,,,,,,4,,74,109
4104,note_on,24,0,3,,,,,,,,,,2,,81,0
4104,note_on,24,0,4,,,,,,,,,,3,,78,0
4110,note_on,6,0,3,,,,,,,,,,2,,81,96
4110,note_on,6,0,4,,,,,,,,,,3,,78,96
4134,note_on,24,0,3,,,,,,,,,,2,,81,0
4134,note_on,24,0,4,,,,,,,,,,3,,78,0
4140,note_on,6,0,3,,,,,,,,,,2,,81,96
4140,note_on,6,0,4,,,,,,,,,,3,,78,96
4164,note_on,24,0,3,,,,,,,,,,2,,81,0
4164,note_on,24,0,4,,,,,,,,,,3,,78,0
4170,note_on,6,0,3,,,,,,,,,,2,,81,96
4170,note_on,6,0,4,,,,,,,,,,3,,78,96
4188,note_on,108,0,5,,,,,,,,,,4,,74,0
4188,note_on,108,0,6,,,,,,,,,,5,,50,0
4194,note_on,24,0,4,,,,,,,,,,3,,78,0
4194,note_on,24,0,3,,,,,,,,,,2,,81,0
4200,note_on,6,0,4,,,,,,,,,,3,,78,96
4200,note_on,12,0,5,,,,,,,,,,4,,69,89
4200,note_on,6,0,3,,,,,,,,,,2,,81,96
4200,note_on,12,0,6,,,,,,,,,,5,,45,87
4224,note_on,24,0,3,,,,,,,,,,2,,81,0
4224,note_on,24,0,4,,,,,,,,,,3,,78,0
4230,note_on,6,0,3,,,,,,,,,,2,,81,96
4230,note_on,6,0,4,,,,,,,,,,3,,78,96
4254,note_on,24,0,3,,,,,,,,,,2,,81,0
4254,note_on,24,0,4,,,,,,,,,,3,,78,0
4260,note_on,6,0,4,,,,,,,,,,3,,78,96
4260,note_on,6,0,3,,,,,,,,,,2,,81,96
4281,note_on,81,0,5,,,,,,,,,,4,,69,0
4281,note_on,81,0,6,,,,,,,,,,5,,45,0
4284,note_on,24,0,3,,,,,,,,,,2,,81,0
4284,note_on,24,0,4,,,,,,,,,,3,,78,0
4290,note_on,9,0,5,,,,,,,,,,4,,66,85
4290,note_on,6,0,3,,,,,,,,,,2,,81,96
4290,note_on,6,0,4,,,,,,,,,,3,,78,96
4290,note_on,9,0,6,,,,,,,,,,5,,42,87
4314,note_on,24,0,3,,,,,,,,,,2,,81,0
4314,note_on,24,0,4,,,,,,,,,,3,,78,0
4317,note_on,27,0,5,,,,,,,,,,4,,66,0
4317,note_on,27,0,6,,,,,,,,,,5,,42,0
4320,note_on,6,0,4,,,,,,,,,,3,,78,96
4320,note_on,3,0,5,,,,,,,,,,4,,62,87
4320,note_on,3,0,6,,,,,,,,,,5,,38,86
4320,note_on,6,0,3,,,,,,,,,,2,,81,96
4344,note_on,24,0,4,,,,,,,,,,3,,78,0
4344,note_on,24,0,3,,,,,,,,,,2,,81,0
4350,note_on,6,0,3,,,,,,,,,,2,,81,96
4350,note_on,6,0,4,,,,,,,,,,3,,78,96
4374,note_on,54,0,6,,,,,,,,,,5,,38,0
4374,note_on,24,0,3,,,,,,,,,,2,,81,0
4374,note_on,54,0,5,,,,,,,,,,4,,62,0
4374,note_on,24,0,4,,,,,,,,,,3,,78,0
4380,note_on,6,0,5,,,,,,,,,,4,,64,100
4380,note_on,6,0,6,,,,,,,,,,5,,40,99
4380,note_on,6,0,3,,,,,,,,,,2,,81,96
4380,note_on,6,0,4,,,,,,,,,,3,,78,96
4404,note_on,24,0,4,,,,,,,,,,3,,78,0
4404,note_on,24,0,3,,,,,,,,,,2,,81,0
4407,note_on,27,0,5,,,,,,,,,,4,,64,0
4407,note_on,27,0,6,,,,,,,,,,5,,40,0
4410,note_on,3,0,6,,,,,,,,,,5,,42,101
4410,note_on,6,0,3,,,,,,,,,,2,,81,96
4410,note_on,3,0,5,,,,,,,,,,4,,66,103
4410,note_on,6,0,4,,,,,,,,,,3,,78,96
4434,note_on,24,0,3,,,,,,,,,,2,,81,0
4434,note_on,24,0,4,,,,,,,,,,3,,78,0
4437,note_on,27,0,5,,,,,,,,,,4,,66,0
4437,note_on,27,0,6,,,,,,,,,,5,,42,0
4440,note_on,6,0,4,,,,,,,,,,3,,78,96
4440,note_on,3,0,5,,,,,,,,,,4,,67,102
4440,note_on,3,0,6,,,,,,,,,,5,,43,105
4440,note_on,6,0,3,,,,,,,,,,2,,81,96
4464,note_on,24,0,3,,,,,,,,,,2,,81,0
4464,note_on,24,0,4,,,,,,,,,,3,,78,0
4467,note_on,27,0,6,,,,,,,,,,5,,43,0
4467,note_on,27,0,5,,,,,,,,,,4,,67,0
4470,note_on,3,0,6,,,,,,,,,,5,,45,100
4470,note_on,6,0,4,,,,,,,,,,3,,78,96
4470,note_on,6,0,3,,,,,,,,,,2,,81,96
4470,note_on,3,0,5,,,,,,,,,,4,,69,101
4494,note_on,24,0,3,,,,,,,,,,2,,81,0
4494,note_on,24,0,4,,,,,,,,,,3,,78,0
4497,note_on,27,0,6,,,,,,,,,,5,,45,0
4497,note_on,27,0,5,,,,,,,,,,4,,69,0
4500,note_on,6,0,4,,,,,,,,,,3,,78,96
4500,note_on,6,0,3,,,,,,,,,,2,,81,96
4500,note_on,3,0,5,,,,,,,,,,4,,71,102
4500,note_on,3,0,6,,,,,,,,,,5,,47,100
4524,note_on,24,0,3,,,,,,,,,,2,,81,0
4524,note_on,24,0,4,,,,,,,,,,3,,78,0
4527,note_on,27,0,5,,,,,,,,,,4,,71,0
4527,note_on,27,0,6,,,,,,,,,,5,,47,0
4530,note_on,3,0,5,,,,,,,,,,4,,73,100
4530,note_on,6,0,3,,,,,,,,,,2,,81,96
4530,note_on,3,0,6,,,,,,,,,,5,,49,103
4530,note_on,6,0,4,,,,,,,,,,3,,78,96
4554,note_on,24,0,4,,,,,,,,,,3,,78,0
4554,note_on,24,0,3,,,,,,,,,,2,,81,0
4557,note_on,27,0,6,,,,,,,,,,5,,49,0
4557,note_on,27,0,5,,,,,,,,,,4,,73,0
4560,note_on,6,0,4,,,,,,,,,,3,,78,96
4560,note_on,3,0,6,,,,,,,,,,5,,50,103
4560,note_on,3,0,5,,,,,,,,,,4,,74,105
4560,note_on,6,0,3,,,,,,,,,,2,,81,96
4584,note_on,24,0,4,,,,,,,,,,3,,78,0
4584,note_on,24,0,3,,,,,,,,,,2,,81,0
4590,note_on,6,0,4,,,,,,,,,,3,,78,96
4590,note_on,6,0,3,,,,,,,,,,2,,81,96
4614,note_on,24,0,3,,,,,,,,,,2,,81,0
4614,note_on,24,0,4,,,,,,,,,,3,,78,0
4614,note_on,54,0,5,,,,,,,,,,4,,74,0
4614,note_on,54,0,6,,,,,,,,,,5,,50,0
4620,note_on,6,0,3,,,,,,,,,,2,,81,96
4620,note_on,6,0,6,,,,,,,,,,5,,45,83
4620,note_on,6,0,4,,,,,,,,,,3,,78,96
4620,note_on,6,0,5,,,,,,,,,,4,,69,85
4644,note_on,24,0,4,,,,,,,,,,3,,78,0
4644,note_on,24,0,3,,,,,,,,,,2,,81,0
4650,note_on,6,0,4,,,,,,,,,,3,,78,96
4650,note_on,6,0,3,,,,,,,,,,2,,81,96
4674,note_on,24,0,3,,,,,,,,,,2,,81,0
4674,note_on,54,0,6,,,,,,,,,,5,,45,0
4674,note_on,24,0,4,,,,,,,,,,3,,78,0
4674,note_on,54,0,5,,,,,,,,,,4,,69,0
4680,note_on,6,0,3,,,,,,,,,,2,,81,96
4680,note_on,6,0,5,,,,,,,,,,4,,66,90
4680,note_on,6,0,4,,,,,,,,,,3,,78,96
4680,note_on,6,0,6,,,,,,,,,,5,,42,87
4704,note_on,24,0,3,,,,,,,,,,2,,81,0
4704,note_on,24,0,4,,,,,,,,,,3,,78,0
4710,note_on,6,0,3,,,,,,,,,,2,,81,96
4710,note_on,6,0,4,,,,,,,,,,3,,78,96
4734,note_on,54,0,6,,,,,,,,,,5,,42,0
4734,note_on,24,0,4,,,,,,,,,,3,,78,0
4734,note_on,24,0,3,,,,,,,,,,2,,81,0
4734,note_on,54,0,5,,,,,,,,,,4,,66,0
4740,note_on,6,0,3,,,,,,,,,,2,,81,96
4740,note_on,6,0,5,,,,,,,,,,4,,62,84
4740,note_on,6,0,4,,,,,,,,,,3,,78,96
4740,note_on,6,0,6,,,,,,,,,,5,,38,84
4764,note_on,24,0,4,,,,,,,,,,3,,78,0
4764,note_on,24,0,3,,,,,,,,,,2,,81,0
4770,note_on,6,0,4,,,,,,,,,,3,,78,96
4770,note_on,6,0,3,,,,,,,,,,2,,81,96
4776,note_on,0,0,2,,,,,,,,,,1,,78,0
4776,note_on,696,0,2,,,,,,,,,,1,,81,0
4776,note_on,936,0,1,,,,,,,,,,0,,78,0
4776,note_on,0,0,1,,,,,,,,,,0,,69,0
4794,note_on,54,0,5,,,,,,,,,,4,,62,0
4794,note_on,24,0,3,,,,,,,,,,2,,81,0
4794,note_on,24,0,4,,,,,,,,,,3,,78,0
4794,note_on,54,0,6,,,,,,,,,,5,,38,0
4800,note_on,24,0,2,,,,,,,,,,1,,79,103
4800,note_on,0,0,2,,,,,,,,,,1,,83,106
4800,note_on,0,0,1,,,,,,,,,,0,,79,102
4800,note_on,6,0,4,,,,,,,,,,3,,79,100
4800,note_on,6,0,5,,,,,,,,,,4,,55,77
4800,note_on,24,0,1,,,,,,,,,,0,,67,102
4800,note_on,6,0,6,,,,,,,,,,5,,31,78
4800,note_on,6,0,3,,,,,,,,,,2,,83,102
4824,note_on,24,0,3,,,,,,,,,,2,,83,0
4824,note_on,24,0,4,,,,,,,,,,3,,79,0
4830,note_on,6,0,3,,,,,,,,,,2,,83,102
4830,note_on,6,0,4,,,,,,,,,,3,,79,100
4854,note_on,24,0,3,,,,,,,,,,2,,83,0
4854,note_on,24,0,4,,,,,,,,,,3,,79,0
4860,note_on,6,0,3,,,,,,,,,,2,,83,102
4860,note_on,6,0,4,,,,,,,,,,3,,79,100
4884,note_on,24,0,4,,,,,,,,,,3,,79,0
4884,note_on,24,0,3,,,,,,,,,,2,,83,0
4890,note_on,6,0,3,,,,,,,,,,2,,83,102
4890,note_on,6,0,4,,,,,,,,,,3,,79,100
4908,note_on,108,0,6,,,,,,,,,,5,,31,0
4908,note_on,108,0,5,,,,,,,,,,4,,55,0
4914,note_on,24,0,3,,,,,,,,,,2,,83,0
4914,note_on,24,0,4,,,,,,,,,,3,,79,0
4920,note_on,12,0,6,,,,,,,,,,5,,35,106
4920,note_on,6,0,3,,,,,,,,,,2,,83,102
4920,note_on,6,0,4,,,,,,,,,,3,,79,100
4920,note_on,12,0,5,,,,,,,,,,4,,59,106
4944,note_on,24,0,3,,,,,,,,,,2,,83,0
4944,note_on,24,0,4,,,,,,,,,,3,,79,0
4950,note_on,6,0,4,,,,,,,,,,3,,79,100
4950,note_on,6,0,3,,,,,,,,,,2,,83,102
4974,note_on,24,0,3,,,,,,,,,,2,,83,0
4974,note_on,24,0,4,,,,,,,,,,3,,79,0
4980,note_on,6,0,4,,,,,,,,,,3,,79,100
4980,note_on,6,0,3,,,,,,,,,,2,,83,102
5001,note_on,81,0,6,,,,,,,,,,5,,35,0
5001,note_on,81,0,5,,,,,,,,,,4,,59,0
5004,note_on,24,0,4,,,,,,,,,,3,,79,0
5004,note_on,24,0,3,,,,,,,,,,2,,83,0
5010,note_on,9,0,5,,,,,,,,,,4,,62,103
5010,note_on,9,0,6,,,,,,,,,,5,,38,105
5010,note_on,6,0,4,,,,,,,,,,3,,79,100
5010,note_on,6,0,3,,,,,,,,,,2,,83,102
5034,note_on,24,0,3,,,,,,,,,,2,,83,0
5034,note_on,24,0,4,,,,,,,,,,3,,79,0
5037,note_on,27,0,6,,,,,,,,,,5,,38,0
5037,note_on,27,0,5,,,,,,,,,,4,,62,0
5040,note_on,3,0,6,,,,,,,,,,5,,43,111
5040,note_on,6,0,3,,,,,,,,,,2,,83,96
5040,note_on,6,0,4,,,,,,,,,,3,,79,96
5040,note_on,3,0,5,,,,,,,,,,4,,67,112
5064,note_on,24,0,4,,,,,,,,,,3,,79,0
5064,note_on,24,0,3,,,,,,,,,,2,,83,0
5070,note_on,6,0,3,,,,,,,,,,2,,83,96
5070,note_on,6,0,4,,,,,,,,,,3,,79,96
5094,note_on,24,0,3,,,,,,,,,,2,,83,0
5094,note_on,24,0,4,,,,,,,,,,3,,79,0
5100,note_on,6,0,3,,,,,,,,,,2,,83,96
5100,note_on,6,0,4,,,,,,,,,,3,,79,96
5124,note_on,24,0,3,,,,,,,,,,2,,83,0
5124,note_on,24,0,4,,,,,,,,,,3,,79,0
5130,note_on,6,0,3,,,,,,,,,,2,,83,96
5130,note_on,6,0,4,,,,,,,,,,3,,79,96
5148,note_on,108,0,6,,,,,,,,,,5,,43,0
5148,note_on,108,0,5,,,,,,,,,,4,,67,0
5154,note_on,24,0,3,,,,,,,,,,2,,83,0
5154,note_on,24,0,4,,,,,,,,,,3,,79,0
5160,note_on,12,0,5,,,,,,,,,,4,,62,87
5160,note_on,6,0,3,,,,,,,,,,2,,83,96
5160,note_on,12,0,6,,,,,,,,,,5,,38,89
5160,note_on,6,0,4,,,,,,,,,,3,,79,96
5184,note_on,24,0,3,,,,,,,,,,2,,83,0
5184,note_on,24,0,4,,,,,,,,,,3,,79,0
5190,note_on,6,0,3,,,,,,,,,,2,,83,96
5190,note_on,6,0,4,,,,,,,,,,3,,79,96
5214,note_on,24,0,3,,,,,,,,,,2,,83,0
5214,note_on,24,0,4,,,,,,,,,,3,,79,0
5220,note_on,6,0,4,,,,,,,,,,3,,79,96
5220,note_on,6,0,3,,,,,,,,,,2,,83,96
5241,note_on,81,0,5,,,,,,,,,,4,,62,0
5241,note_on,81,0,6,,,,,,,,,,5,,38,0
5244,note_on,24,0,4,,,,,,,,,,3,,79,0
5244,note_on,24,0,3,,,,,,,,,,2,,83,0
5250,note_on,9,0,5,,,,,,,,,,4,,59,86
5250,note_on,6,0,4,,,,,,,,,,3,,79,96
5250,note_on,6,0,3,,,,,,,,,,2,,83,96
5250,note_on,9,0,6,,,,,,,,,,5,,35,85
5274,note_on,24,0,4,,,,,,,,,,3,,79,0
5274,note_on,24,0,3,,,,,,,,,,2,,83,0
5277,note_on,27,0,5,,,,,,,,,,4,,59,0
5277,note_on,27,0,6,,,,,,,,,,5,,35,0
5280,note_on,3,0,6,,,,,,,,,,5,,31,87
5280,note_on,6,0,4,,,,,,,,,,3,,79,96
5280,note_on,3,0,5,,,,,,,,,,4,,55,87
5280,note_on,6,0,3,,,,,,,,,,2,,83,96
5304,note_on,24,0,4,,,,,,,,,,3,,79,0
5304,note_on,24,0,3,,,,,,,,,,2,,83,0
5310,note_on,6,0,3,,,,,,,,,,2,,83,96
5310,note_on,6,0,4,,,,,,,,,,3,,79,96
5334,note_on,54,0,5,,,,,,,,,,4,,55,0
5334,note_on,54,0,6,,,,,,,,,,5,,31,0
5334,note_on,24,0,4,,,,,,,,,,3,,79,0
5334,note_on,24,0,3,,,,,,,,,,2,,83,0
5340,note_on,6,0,3,,,,,,,,,,2,,83,96
5340,note_on,6,0,5,,,,,,,,,,4,,57,100
5340,note_on,6,0,4,,,,,,,,,,3,,79,96
5340,note_on,6,0,6,,,,,,,,,,5,,33,99
5364,note_on,24,0,4,,,,,,,,,,3,,79,0
5364,note_on,24,0,3,,,,,,,,,,2,,83,0
5367,note_on,27,0,6,,,,,,,,,,5,,33,0
5367,note_on,27,0,5,,,,,,,,,,4,,57,0
5370,note_on,3,0,6,,,,,,,,,,5,,35,102
5370,note_on,6,0,4,,,,,,,,,,3,,79,96
5370,note_on,3,0,5,,,,,,,,,,4,,59,102
5370,note_on,6,0,3,,,,,,,,,,2,,83,96
5394,note_on,24,0,3,,,,,,,,,,2,,83,0
5394,note_on,24,0,4,,,,,,,,,,3,,79,0
5397,note_on,27,0,6,,,,,,,,,,5,,35,0
5397,note_on,27,0,5,,,,,,,,,,4,,59,0
5400,note_on,3,0,6,,,,,,,,,,5,,36,104
5400,note_on,6,0,4,,,,,,,,,,3,,79,96
5400,note_on,6,0,3,,,,,,,,,,2,,83,96
5400,note_on,3,0,5,,,,,,,,,,4,,60,105
5424,note_on,24,0,4,,,,,,,,,,3,,79,0
5424,note_on,24,0,3,,,,,,,,,,2,,83,0
5427,note_on,27,0,6,,,,,,,,,,5,,36,0
5427,note_on,27,0,5,,,,,,,,,,4,,60,0
5430,note_on,3,0,5,,,,,,,,,,4,,62,102
5430,note_on,6,0,3,,,,,,,,,,2,,83,96
5430,note_on,6,0,4,,,,,,,,,,3,,79,96
5430,note_on,3,0,6,,,,,,,,,,5,,38,100
5454,note_on,24,0,3,,,,,,,,,,2,,83,0
5454,note_on,24,0,4,,,,,,,,,,3,,79,0
5457,note_on,27,0,5,,,,,,,,,,4,,62,0
5457,note_on,27,0,6,,,,,,,,,,5,,38,0
5460,note_on,6,0,4,,,,,,,,,,3,,79,96
5460,note_on,6,0,3,,,,,,,,,,2,,83,96
5460,note_on,3,0,5,,,,,,,,,,4,,64,104
5460,note_on,3,0,6,,,,,,,,,,5,,40,103
5484,note_on,24,0,4,,,,,,,,,,3,,79,0
5484,note_on,24,0,3,,,,,,,,,,2,,83,0
5487,note_on,27,0,5,,,,,,,,,,4,,64,0
5487,note_on,27,0,6,,,,,,,,,,5,,40,0
5490,note_on,3,0,6,,,,,,,,,,5,,42,102
5490,note_on,3,0,5,,,,,,,,,,4,,66,103
5490,note_on,6,0,4,,,,,,,,,,3,,79,96
5490,note_on,6,0,3,,,,,,,,,,2,,83,96
5514,note_on,24,0,4,,,,,,,,,,3,,79,0
5514,note_on,24,0,3,,,,,,,,,,2,,83,0
5517,note_on,27,0,5,,,,,,,,,,4,,66,0
5517,note_on,27,0,6,,,,,,,,,,5,,42,0
5520,note_on,6,0,3,,,,,,,,,,2,,83,96
5520,note_on,6,0,4,,,,,,,,,,3,,79,96
5520,note_on,3,0,5,,,,,,,,,,4,,67,105
5520,note_on,3,0,6,,,,,,,,,,5,,43,103
5544,note_on,24,0,3,,,,,,,,,,2,,83,0
5544,note_on,24,0,4,,,,,,,,,,3,,79,0
5550,note_on,6,0,4,,,,,,,,,,3,,79,96
5550,note_on,6,0,3,,,,,,,,,,2,,83,96
5574,note_on,24,0,4,,,,,,,,,,3,,79,0
5574,note_on,54,0,5,,,,,,,,,,4,,67,0
5574,note_on,54,0,6,,,,,,,,,,5,,43,0
5574,note_on,24,0,3,,,,,,,,,,2,,83,0
5580,note_on,6,0,4,,,,,,,,,,3,,79,96
5580,note_on,6,0,5,,,,,,,,,,4,,74,116
5580,note_on,6,0,6,,,,,,,,,,5,,50,115
5580,note_on,6,0,3,,,,,,,,,,2,,83,96
5604,note_on,24,0,3,,,,,,,,,,2,,83,0
5604,note_on,24,0,4,,,,,,,,,,3,,79,0
5610,note_on,6,0,4,,,,,,,,,,3,,79,96
5610,note_on,6,0,3,,,,,,,,,,2,,83,96
5634,note_on,24,0,3,,,,,,,,,,2,,83,0
5634,note_on,54,0,6,,,,,,,,,,5,,50,0
5634,note_on,24,0,4,,,,,,,,,,3,,79,0
5634,note_on,54,0,5,,,,,,,,,,4,,74,0
5640,note_on,6,0,6,,,,,,,,,,5,,47,93
5640,note_on,6,0,3,,,,,,,,,,2,,83,96
5640,note_on,6,0,4,,,,,,,,,,3,,79,96
5640,note_on,6,0,5,,,,,,,,,,4,,71,93
5664,note_on,24,0,3,,,,,,,,,,2,,83,0
5664,note_on,24,0,4,,,,,,,,,,3,,79,0
5670,note_on,6,0,4,,,,,,,,,,3,,79,96
5670,note_on,6,0,3,,,,,,,,,,2,,83,96
5694,note_on,54,0,6,,,,,,,,,,5,,47,0
5694,note_on,24,0,3,,,,,,,,,,2,,83,0
5694,note_on,24,0,4,,,,,,,,,,3,,79,0
5694,note_on,54,0,5,,,,,,,,,,4,,71,0
5700,note_on,6,0,3,,,,,,,,,,2,,83,96
5700,note_on,6,0,4,,,,,,,,,,3,,79,96
5700,note_on,6,0,6,,,,,,,,,,5,,43,82
5700,note_on,6,0,5,,,,,,,,,,4,,67,85
5724,note_on,24,0,4,,,,,,,,,,3,,79,0
5724,note_on,24,0,3,,,,,,,,,,2,,83,0
5730,note_on,6,0,4,,,,,,,,,,3,,79,96
5730,note_on,6,0,3,,,,,,,,,,2,,83,96
5736,note_on,936,0,2,,,,,,,,,,1,,83,0
5736,note_on,0,0,1,,,,,,,,,,0,,67,0
5736,note_on,936,0,1,,,,,,,,,,0,,79,0
5736,note_on,0,0,2,,,,,,,,,,1,,79,0
5754,note_on,54,0,6,,,,,,,,,,5,,43,0
5754,note_on,54,0,5,,,,,,,,,,4,,67,0
5754,note_on,24,0,4,,,,,,,,,,3,,79,0
5754,note_on,24,0,3,,,,,,,,,,2,,83,0
5760,note_on,6,0,3,,,,,,,,,,2,,81,90
5760,note_on,6,0,4,,,,,,,,,,3,,78,91
5760,note_on,6,0,5,,,,,,,,,,4,,62,82
5760,note_on,6,0,6,,,,,,,,,,5,,38,82
5760,note_on,24,0,1,,,,,,,,,,0,,69,93
5760,note_on,24,0,2,,,,,,,,,,1,,78,94
5760,note_on,0,0,2,,,,,,,,,,1,,81,92
5760,note_on,0,0,1,,,,,,,,,,0,,78,93
5784,note_on,24,0,3,,,,,,,,,,2,,81,0
5784,note_on,24,0,4,,,,,,,,,,3,,78,0
5790,note_on,6,0,3,,,,,,,,,,2,,81,90
5790,note_on,6,0,4,,,,,,,,,,3,,78,91
5814,note_on,24,0,4,,,,,,,,,,3,,78,0
5814,note_on,24,0,3,,,,,,,,,,2,,81,0
5820,note_on,6,0,3,,,,,,,,,,2,,81,90
5820,note_on,6,0,4,,,,,,,,,,3,,78,91
5844,note_on,24,0,3,,,,,,,,,,2,,81,0
5844,note_on,24,0,4,,,,,,,,,,3,,78,0
5850,note_on,6,0,3,,,,,,,,,,2,,81,90
5850,note_on,6,0,4,,,,,,,,,,3,,78,91
5868,note_on,108,0,6,,,,,,,,,,5,,38,0
5868,note_on,108,0,5,,,,,,,,,,4,,62,0
5874,note_on,24,0,4,,,,,,,,,,3,,78,0
5874,note_on,24,0,3,,,,,,,,,,2,,81,0
5880,note_on,12,0,5,,,,,,,,,,4,,66,108
5880,note_on,6,0,4,,,,,,,,,,3,,78,91
5880,note_on,6,0,3,,,,,,,,,,2,,81,90
5880,note_on,12,0,6,,,,,,,,,,5,,42,108
5904,note_on,24,0,3,,,,,,,,,,2,,81,0
5904,note_on,24,0,4,,,,,,,,,,3,,78,0
5910,note_on,6,0,4,,,,,,,,,,3,,78,91
5910,note_on,6,0,3,,,,,,,,,,2,,81,90
5934,note_on,24,0,3,,,,,,,,,,2,,81,0
5934,note_on,24,0,4,,,,,,,,,,3,,78,0
5940,note_on,6,0,3,,,,,,,,,,2,,81,90
5940,note_on,6,0,4,,,,,,,,,,3,,78,91
5961,note_on,81,0,5,,,,,,,,,,4,,66,0
5961,note_on,81,0,6,,,,,,,,,,5,,42,0
5964,note_on,24,0,3,,,,,,,,,,2,,81,0
5964,note_on,24,0,4,,,,,,,,,,3,,78,0
5970,note_on,9,0,5,,,,,,,,,,4,,69,107
5970,note_on,6,0,4,,,,,,,,,,3,,78,91
5970,note_on,6,0,3,,,,,,,,,,2,,81,90
5970,note_on,9,0,6,,,,,,,,,,5,,45,103
5994,note_on,24,0,3,,,,,,,,,,2,,81,0
5994,note_on,24,0,4,,,,,,,,,,3,,78,0
5997,note_on,27,0,6,,,,,,,,,,5,,45,0
5997,note_on,27,0,5,,,,,,,,,,4,,69,0
6000,note_on,6,0,3,,,,,,,,,,2,,81,95
6000,note_on,3,0,6,,,,,,,,,,5,,50,109
6000,note_on,6,0,4,,,,,,,,,,3,,78,95
6000,note_on,3,0,5,,,,,,,,,,4,,74,112
6024,note_on,24,0,3,,,,,,,,,,2,,81,0
6024,note_on,24,0,4,,,,,,,,,,3,,78,0
6030,note_on,6,0,4,,,,,,,,,,3,,78,95
6030,note_on,6,0,3,,,,,,,,,,2,,81,95
6054,note_on,24,0,3,,,,,,,,,,2,,81,0
6054,note_on,24,0,4,,,,,,,,,,3,,78,0
6060,note_on,6,0,3,,,,,,,,,,2,,81,95
6060,note_on,6,0,4,,,,,,,,,,3,,78,95
6084,note_on,24,0,4,,,,,,,,,,3,,78,0
6084,note_on,24,0,3,,,,,,,,,,2,,81,0
6090,note_on,6,0,3,,,,,,,,,,2,,81,95
6090,note_on,6,0,4,,,,,,,,,,3,,78,95
6108,note_on,108,0,5,,,,,,,,,,4,,74,0
6108,note_on,108,0,6,,,,,,,,,,5,,50,0
6114,note_on,24,0,3,,,,,,,,,,2,,81,0
6114,note_on,24,0,4,,,,,,,,,,3,,78,0
6120,note_on,12,0,5,,,,,,,,,,4,,69,86
6120,note_on,12,0,6,,,,,,,,,,5,,45,88
6120,note_on,6,0,3,,,,,,,,,,2,,81,95
6120,note_on,6,0,4,,,,,,,,,,3,,78,95
6144,note_on,24,0,4,,,,,,,,,,3,,78,0
6144,note_on,24,0,3,,,,,,,,,,2,,81,0
6150,note_on,6,0,3,,,,,,,,,,2,,81,95
6150,note_on,6,0,4,,,,,,,,,,3,,78,95
6174,note_on,24,0,4,,,,,,,,,,3,,78,0
6174,note_on,24,0,3,,,,,,,,,,2,,81,0
6180,note_on,6,0,4,,,,,,,,,,3,,78,95
6180,note_on,6,0,3,,,,,,,,,,2,,81,95
6201,note_on,81,0,6,,,,,,,,,,5,,45,0
6201,note_on,81,0,5,,,,,,,,,,4,,69,0
6204,note_on,24,0,3,,,,,,,,,,2,,81,0
6204,note_on,24,0,4,,,,,,,,,,3,,78,0
6210,note_on,6,0,3,,,,,,,,,,2,,81,95
6210,note_on,9,0,6,,,,,,,,,,5,,42,86
6210,note_on,6,0,4,,,,,,,,,,3,,78,95
6210,note_on,9,0,5,,,,,,,,,,4,,66,87
6234,note_on,24,0,4,,,,,,,,,,3,,78,0
6234,note_on,24,0,3,,,,,,,,,,2,,81,0
6237,note_on,27,0,5,,,,,,,,,,4,,66,0
6237,note_on,27,0,6,,,,,,,,,,5,,42,0
6240,note_on,3,0,6,,,,,,,,,,5,,38,87
6240,note_on,6,0,3,,,,,,,,,,2,,81,96
6240,note_on,3,0,5,,,,,,,,,,4,,62,85
6240,note_on,6,0,4,,,,,,,,,,3,,78,96
6264,note_on,24,0,4,,,,,,,,,,3,,78,0
6264,note_on,24,0,3,,,,,,,,,,2,,81,0
6270,note_on,6,0,4,,,,,,,,,,3,,78,96
6270,note_on,6,0,3,,,,,,,,,,2,,81,96
6294,note_on,24,0,4,,,,,,,,,,3,,78,0
6294,note_on,54,0,6,,,,,,,,,,5,,38,0
6294,note_on,54,0,5,,,,,,,,,,4,,62,0
6294,note_on,24,0,3,,,,,,,,,,2,,81,0
6300,note_on,6,0,6,,,,,,,,,,5,,40,97
6300,note_on,6,0,4,,,,,,,,,,3,,78,96
6300,note_on,6,0,5,,,,,,,,,,4,,64,99
6300,note_on,6,0,3,,,,,,,,,,2,,81,96
6324,note_on,24,0,4,,,,,,,,,,3,,78,0
6324,note_on,24,0,3,,,,,,,,,,2,,81,0
6327,note_on,27,0,6,,,,,,,,,,5,,40,0
6327,note_on,27,0,5,,,,,,,,,,4,,64,0
6330,note_on,6,0,3,,,,,,,,,,2,,81,96
6330,note_on,6,0,4,,,,,,,,,,3,,78,96
6330,note_on,3,0,6,,,,,,,,,,5,,42,103
6330,note_on,3,0,5,,,,,,,,,,4,,66,102
6354,note_on,24,0,4,,,,,,,,,,3,,78,0
6354,note_on,24,0,3,,,,,,,,,,2,,81,0
6357,note_on,27,0,5,,,,,,,,,,4,,66,0
6357,note_on,27,0,6,,,,,,,,,,5,,42,0
6360,note_on,3,0,5,,,,,,,,,,4,,67,103
6360,note_on,3,0,6,,,,,,,,,,5,,43,105
6360,note_on,6,0,3,,,,,,,,,,2,,81,96
6360,note_on,6,0,4,,,,,,,,,,3,,78,96
6384,note_on,24,0,3,,,,,,,,,,2,,81,0
6384,note_on,24,0,4,,,,,,,,,,3,,78,0
6387,note_on,27,0,5,,,,,,,,,,4,,67,0
6387,note_on,27,0,6,,,,,,,,,,5,,43,0
6390,note_on,6,0,3,,,,,,,,,,2,,81,96
6390,note_on,3,0,6,,,,,,,,,,5,,45,100
6390,note_on,6,0,4,,,,,,,,,,3,,78,96
6390,note_on,3,0,5,,,,,,,,,,4,,69,101
6414,note_on,24,0,3,,,,,,,,,,2,,81,0
6414,note_on,24,0,4,,,,,,,,,,3,,78,0
6417,note_on,27,0,5,,,,,,,,,,4,,69,0
6417,note_on,27,0,6,,,,,,,,,,5,,45,0
6420,note_on,3,0,5,,,,,,,,,,4,,71,101
6420,note_on,3,0,6,,,,,,,,,,5,,47,102
6420,note_on,6,0,4,,,,,,,,,,3,,78,96
6420,note_on,6,0,3,,,,,,,,,,2,,81,96
6444,note_on,24,0,4,,,,,,,,,,3,,78,0
6444,note_on,24,0,3,,,,,,,,,,2,,81,0
6447,note_on,27,0,5,,,,,,,,,,4,,71,0
6447,note_on,27,0,6,,,,,,,,,,5,,47,0
6450,note_on,6,0,3,,,,,,,,,,2,,81,96
6450,note_on,3,0,5,,,,,,,,,,4,,73,102
6450,note_on,3,0,6,,,,,,,,,,5,,49,103
6450,note_on,6,0,4,,,,,,,,,,3,,78,96
6474,note_on,24,0,3,,,,,,,,,,2,,81,0
6474,note_on,24,0,4,,,,,,,,,,3,,78,0
6477,note_on,27,0,5,,,,,,,,,,4,,73,0
6477,note_on,27,0,6,,,,,,,,,,5,,49,0
6480,note_on,3,0,5,,,,,,,,,,4,,74,104
6480,note_on,6,0,4,,,,,,,,,,3,,78,96
6480,note_on,6,0,3,,,,,,,,,,2,,81,96
6480,note_on,3,0,6,,,,,,,,,,5,,50,105
6504,note_on,24,0,3,,,,,,,,,,2,,81,0
6504,note_on,24,0,4,,,,,,,,,,3,,78,0
6510,note_on,6,0,3,,,,,,,,,,2,,81,96
6510,note_on,6,0,4,,,,,,,,,,3,,78,96
6534,note_on,54,0,6,,,,,,,,,,5,,50,0
6534,note_on,54,0,5,,,,,,,,,,4,,74,0
6534,note_on,24,0,3,,,,,,,,,,2,,81,0
6534,note_on,24,0,4,,,,,,,,,,3,,78,0
6540,note_on,6,0,3,,,,,,,,,,2,,81,96
6540,note_on,6,0,6,,,,,,,,,,5,,45,86
6540,note_on,6,0,4,,,,,,,,,,3,,78,96
6540,note_on,6,0,5,,,,,,,,,,4,,69,86
6564,note_on,24,0,3,,,,,,,,,,2,,81,0
6564,note_on,24,0,4,,,,,,,,,,3,,78,0
6570,note_on,6,0,3,,,,,,,,,,2,,81,96
6570,note_on,6,0,4,,,,,,,,,,3,,78,96
6594,note_on,24,0,4,,,,,,,,,,3,,78,0
6594,note_on,54,0,6,,,,,,,,,,5,,45,0
6594,note_on,24,0,3,,,,,,,,,,2,,81,0
6594,note_on,54,0,5,,,,,,,,,,4,,69,0
6600,note_on,6,0,3,,,,,,,,,,2,,81,96
6600,note_on,6,0,6,,,,,,,,,,5,,42,87
6600,note_on,6,0,5,,,,,,,,,,4,,66,89
6600,note_on,6,0,4,,,,,,,,,,3,,78,96
6624,note_on,24,0,4,,,,,,,,,,3,,78,0
6624,note_on,24,0,3,,,,,,,,,,2,,81,0
6630,note_on,6,0,4,,,,,,,,,,3,,78,96
6630,note_on,6,0,3,,,,,,,,,,2,,81,96
6654,note_on,24,0,4,,,,,,,,,,3,,78,0
6654,note_on,54,0,5,,,,,,,,,,4,,66,0
6654,note_on,54,0,6,,,,,,,,,,5,,42,0
6654,note_on,24,0,3,,,,,,,,,,2,,81,0
6660,note_on,6,0,6,,,,,,,,,,5,,38,84
6660,note_on,6,0,5,,,,,,,,,,4,,62,83
6660,note_on,6,0,3,,,,,,,,,,2,,81,96
6660,note_on,6,0,4,,,,,,,,,,3,,78,96
6684,note_on,24,0,3,,,,,,,,,,2,,81,0
6684,note_on,24,0,4,,,,,,,,,,3,,78,0
6690,note_on,6,0,3,,,,,,,,,,2,,81,96
6690,note_on,6,0,4,,,,,,,,,,3,,78,96
6696,note_on,0,0,2,,,,,,,,,,1,,78,0
6696,note_on,936,0,2,,,,,,,,,,1,,81,0
6696,note_on,0,0,1,,,,,,,,,,0,,69,0
6696,note_on,936,0,1,,,,,,,,,,0,,78,0
6714,note_on,24,0,4,,,,,,,,,,3,,78,0
6714,note_on,54,0,6,,,,,,,,,,5,,38,0
6714,note_on,24,0,3,,,,,,,,,,2,,81,0
6714,note_on,54,0,5,,,,,,,,,,4,,62,0
6720,note_on,6,0,4,,,,,,,,,,3,,76,91
6720,note_on,6,0,6,,,,,,,,,,5,,43,110
6720,note_on,0,0,1,,,,,,,,,,0,,71,91
6720,note_on,24,0,1,,,,,,,,,,0,,76,94
6720,note_on,6,0,3,,,,,,,,,,2,,83,107
6720,note_on,6,0,5,,,,,,,,,,4,,67,108
6747,note_on,27,0,3,,,,,,,,,,2,,83,0
6750,note_on,3,0,3,,,,,,,,,,2,,81,90
6774,note_on,54,0,1,,,,,,,,,,0,,76,0
6774,note_on,54,0,5,,,,,,,,,,4,,67,0
6774,note_on,54,0,4,,,,,,,,,,3,,76,0
6777,note_on,27,0,3,,,,,,,,,,2,,81,0
6780,note_on,6,0,1,,,,,,,,,,0,,79,104
6780,note_on,6,0,4,,,,,,,,,,3,,79,102
6780,note_on,6,0,5,,,,,,,,,,4,,55,70
6780,note_on,3,0,3,,,,,,,,,,2,,79,91
6807,note_on,27,0,4,,,,,,,,,,3,,79,0
6807,note_on,27,0,1,,,,,,,,,,0,,79,0
6807,note_on,27,0,3,,,,,,,,,,2,,79,0
6810,note_on,3,0,3,,,,,,,,,,2,,78,88
6810,note_on,3,0,1,,,,,,,,,,0,,78,91
6810,note_on,3,0,4,,,,,,,,,,3,,78,93
6828,note_on,108,0,6,,,,,,,,,,5,,43,0
6834,note_on,54,0,5,,,,,,,,,,4,,55,0
6837,note_on,27,0,3,,,,,,,,,,2,,78,0
6837,note_on,27,0,1,,,,,,,,,,0,,78,0
6837,note_on,27,0,4,,,,,,,,,,3,,78,0
6840,note_on,3,0,4,,,,,,,,,,3,,76,95
6840,note_on,6,0,5,,,,,,,,,,4,,67,118
6840,note_on,3,0,1,,,,,,,,,,0,,76,91
6840,note_on,3,0,3,,,,,,,,,,2,,76,94
6867,note_on,27,0,4,,,,,,,,,,3,,76,0
6867,note_on,27,0,3,,,,,,,,,,2,,76,0
6870,note_on,3,0,3,,,,,,,,,,2,,75,90
6870,note_on,3,0,4,,,,,,,,,,3,,75,89
6882,note_on,42,0,1,,,,,,,,,,0,,71,0
6897,note_on,27,0,4,,,,,,,,,,3,,75,0
6897,note_on,27,0,3,,,,,,,,,,2,,75,0
6900,note_on,3,0,4,,,,,,,,,,3,,76,101
6900,note_on,3,0,3,,,,,,,,,,2,,76,101
6927,note_on,27,0,4,,,,,,,,,,3,,76,0
6927,note_on,27,0,3,,,,,,,,,,2,,76,0
6930,note_on,3,0,4,,,,,,,,,,3,,75,90
6930,note_on,3,0,3,,,,,,,,,,2,,75,92
6948,note_on,66,0,1,,,,,,,,,,0,,76,0
6948,note_on,108,0,5,,,,,,,,,,4,,67,0
6957,note_on,27,0,4,,,,,,,,,,3,,75,0
6957,note_on,27,0,3,,,,,,,,,,2,,75,0
6960,note_on,3,0,4,,,,,,,,,,3,,76,100
6960,note_on,3,0,3,,,,,,,,,,2,,76,98
7020,note_on,72,0,5,,,,,,,,,,4,,67,87
7020,note_on,192,0,6,,,,,,,,,,5,,43,86
7047,note_on,27,0,5,,,,,,,,,,4,,67,0
7047,note_on,27,0,6,,,,,,,,,,5,,43,0
7050,note_on,3,0,6,,,,,,,,,,5,,45,99
7050,note_on,3,0,5,,,,,,,,,,4,,69,101
7068,note_on,108,0,4,,,,,,,,,,3,,76,0
7068,note_on,108,0,3,,,,,,,,,,2,,76,0
7077,note_on,27,0,5,,,,,,,,,,4,,69,0
7077,note_on,27,0,6,,,,,,,,,,5,,45,0
7080,note_on,3,0,6,,,,,,,,,,5,,47,104
7080,note_on,3,0,5,,,,,,,,,,4,,71,105
7134,note_on,54,0,5,,,,,,,,,,4,,71,0
7134,note_on,54,0,6,,,,,,,,,,5,,47,0
7140,note_on,6,0,6,,,,,,,,,,5,,45,89
7140,note_on,6,0,5,,,,,,,,,,4,,69,91
7194,note_on,54,0,6,,,,,,,,,,5,,45,0
7194,note_on,54,0,5,,,,,,,,,,4,,69,0
7200,note_on,132,0,4,,,,,,,,,,3,,83,44
7200,note_on,0,0,1,,,,,,,,,,0,,71,45
7200,note_on,6,0,5,,,,,,,,,,4,,67,47
7200,note_on,132,0,3,,,,,,,,,,2,,83,46
7200,note_on,6,0,6,,,,,,,,,,5,,43,48
7200,note_on,252,0,1,,,,,,,,,,0,,76,45
7227,note_on,27,0,4,,,,,,,,,,3,,83,0
7227,note_on,27,0,3,,,,,,,,,,2,,83,0
7230,note_on,3,0,3,,,,,,,,,,2,,81,46
7230,note_on,3,0,4,,,,,,,,,,3,,81,45
7254,note_on,54,0,5,,,,,,,,,,4,,67,0
7254,note_on,54,0,1,,,,,,,,,,0,,76,0
7257,note_on,27,0,3,,,,,,,,,,2,,81,0
7257,note_on,27,0,4,,,,,,,,,,3,,81,0
7260,note_on,3,0,3,,,,,,,,,,2,,79,42
7260,note_on,3,0,4,,,,,,,,,,3,,79,43
7260,note_on,6,0,5,,,,,,,,,,4,,55,32
7260,note_on,6,0,1,,,,,,,,,,0,,79,49
7287,note_on,27,0,4,,,,,,,,,,3,,79,0
7287,note_on,27,0,3,,,,,,,,,,2,,79,0
7287,note_on,27,0,1,,,,,,,,,,0,,79,0
7290,note_on,3,0,3,,,,,,,,,,2,,78,45
7290,note_on,3,0,1,,,,,,,,,,0,,78,48
7290,note_on,3,0,4,,,,,,,,,,3,,78,46
7308,note_on,108,0,6,,,,,,,,,,5,,43,0
7314,note_on,54,0,5,,,,,,,,,,4,,55,0
7317,note_on,27,0,4,,,,,,,,,,3,,78,0
7317,note_on,27,0,1,,,,,,,,,,0,,78,0
7317,note_on,27,0,3,,,,,,,,,,2,,78,0
7320,note_on,3,0,4,,,,,,,,,,3,,76,48
7320,note_on,3,0,1,,,,,,,,,,0,,76,43
7320,note_on,3,0,3,,,,,,,,,,2,,76,45
7320,note_on,6,0,5,,,,,,,,,,4,,67,60
7347,note_on,27,0,4,,,,,,,,,,3,,76,0
7347,note_on,27,0,3,,,,,,,,,,2,,76,0
7350,note_on,3,0,3,,,,,,,,,,2,,75,47
7350,note_on,3,0,4,,,,,,,,,,3,,75,44
7362,note_on,42,0,1,,,,,,,,,,0,,71,0
7377,note_on,27,0,3,,,,,,,,,,2,,75,0
7377,note_on,27,0,4,,,,,,,,,,3,,75,0
7380,note_on,3,0,3,,,,,,,,,,2,,76,51
7380,note_on,3,0,4,,,,,,,,,,3,,76,49
7407,note_on,27,0,3,,,,,,,,,,2,,76,0
7407,note_on,27,0,4,,,,,,,,,,3,,76,0
7410,note_on,3,0,4,,,,,,,,,,3,,75,45
7410,note_on,3,0,3,,,,,,,,,,2,,75,43
7428,note_on,66,0,1,,,,,,,,,,0,,76,0
7428,note_on,108,0,5,,,,,,,,,,4,,67,0
7437,note_on,27,0,4,,,,,,,,,,3,,75,0
7437,note_on,27,0,3,,,,,,,,,,2,,75,0
7440,note_on,3,0,3,,,,,,,,,,2,,76,47
7440,note_on,3,0,4,,,,,,,,,,3,,76,49
7500,note_on,72,0,5,,,,,,,,,,4,,67,42
7500,note_on,192,0,6,,,,,,,,,,5,,43,44
7527,note_on,27,0,5,,,,,,,,,,4,,67,0
7527,note_on,27,0,6,,,,,,,,,,5,,43,0
7530,note_on,3,0,6,,,,,,,,,,5,,45,52
7530,note_on,3,0,5,,,,,,,,,,4,,69,51
7548,note_on,108,0,4,,,,,,,,,,3,,76,0
7548,note_on,108,0,3,,,,,,,,,,2,,76,0
7557,note_on,27,0,5,,,,,,,,,,4,,69,0
7557,note_on,27,0,6,,,,,,,,,,5,,45,0
7560,note_on,3,0,5,,,,,,,,,,4,,71,56
7560,note_on,3,0,6,,,,,,,,,,5,,47,52
7614,note_on,54,0,5,,,,,,,,,,4,,71,0
7614,note_on,54,0,6,,,,,,,,,,5,,47,0
7620,note_on,6,0,6,,,,,,,,,,5,,47,48
7620,note_on,6,0,5,,,,,,,,,,4,,69,44
7674,note_on,54,0,6,,,,,,,,,,5,,47,0
7674,note_on,54,0,5,,,,,,,,,,4,,69,0
7680,note_on,132,0,3,,,,,,,,,,2,,83,90
7680,note_on,6,0,5,,,,,,,,,,4,,67,92
7680,note_on,132,0,4,,,,,,,,,,3,,83,89
7680,note_on,6,0,6,,,,,,,,,,5,,43,88
7680,note_on,252,0,1,,,,,,,,,,0,,76,88
7680,note_on,0,0,1,,,,,,,,,,0,,71,88
7707,note_on,27,0,3,,,,,,,,,,2,,83,0
7707,note_on,27,0,4,,,,,,,,,,3,,83,0
7710,note_on,3,0,3,,,,,,,,,,2,,81,88
7710,note_on,3,0,4,,,,,,,,,,3,,81,88
7734,note_on,54,0,5,,,,,,,,,,4,,67,0
7734,note_on,54,0,6,,,,,,,,,,5,,43,0
7737,note_on,27,0,3,,,,,,,,,,2,,81,0
7737,note_on,27,0,4,,,,,,,,,,3,,81,0
7740,note_on,3,0,4,,,,,,,,,,3,,79,88
7740,note_on,6,0,5,,,,,,,,,,4,,71,103
7740,note_on,3,0,3,,,,,,,,,,2,,79,90
7740,note_on,6,0,6,,,,,,,,,,5,,43,93
7767,note_on,27,0,4,,,,,,,,,,3,,79,0
7767,note_on,27,0,3,,,,,,,,,,2,,79,0
7770,note_on,3,0,3,,,,,,,,,,2,,78,91
7770,note_on,3,0,4,,,,,,,,,,3,,78,90
7788,note_on,0,0,1,,,,,,,,,,0,,76,0
7788,note_on,108,0,1,,,,,,,,,,0,,71,0
7794,note_on,54,0,5,,,,,,,,,,4,,71,0
7794,note_on,54,0,6,,,,,,,,,,5,,43,0
7797,note_on,27,0,3,,,,,,,,,,2,,78,0
7797,note_on,27,0,4,,,,,,,,,,3,,78,0
7800,note_on,3,0,3,,,,,,,,,,2,,76,88
7800,note_on,3,0,4,,,,,,,,,,3,,76,90
7800,note_on,12,0,1,,,,,,,,,,0,,76,95
7800,note_on,6,0,6,,,,,,,,,,5,,43,100
7800,note_on,6,0,5,,,,,,,,,,4,,71,101
7800,note_on,0,0,1,,,,,,,,,,0,,71,96
7854,note_on,54,0,5,,,,,,,,,,4,,71,0
7854,note_on,54,0,6,,,,,,,,,,5,,43,0
7860,note_on,6,0,6,,,,,,,,,,5,,43,96
7860,note_on,6,0,5,,,,,,,,,,4,,71,96
7914,note_on,54,0,6,,,,,,,,,,5,,43,0
7914,note_on,54,0,5,,,,,,,,,,4,,71,0
7920,note_on,6,0,5,,,,,,,,,,4,,71,100
7920,note_on,6,0,6,,,,,,,,,,5,,44,101
7962,note_on,162,0,1,,,,,,,,,,0,,76,0
7962,note_on,162,0,4,,,,,,,,,,3,,76,0
7962,note_on,162,0,3,,,,,,,,,,2,,76,0
7974,note_on,54,0,5,,,,,,,,,,4,,71,0
7974,note_on,54,0,6,,,,,,,,,,5,,44,0
7980,note_on,18,0,3,,,,,,,,,,2,,78,102
7980,note_on,18,0,1,,,,,,,,,,0,,78,103
7980,note_on,18,0,4,,,,,,,,,,3,,78,101
7980,note_on,6,0,5,,,,,,,,,,4,,71,94
7980,note_on,6,0,6,,,,,,,,,,5,,44,95
8016,note_on,36,0,1,,,,,,,,,,0,,71,0
8034,note_on,54,0,3,,,,,,,,,,2,,78,0
8034,note_on,18,0,1,,,,,,,,,,0,,78,0
8034,note_on,54,0,6,,,,,,,,,,5,,44,0
8034,note_on,54,0,4,,,,,,,,,,3,,78,0
8034,note_on,54,0,5,,,,,,,,,,4,,71,0
8040,note_on,6,0,1,,,,,,,,,,0,,76,93
8040,note_on,6,0,4,,,,,,,,,,3,,76,93
8040,note_on,6,0,3,,,,,,,,,,2,,76,93
8040,note_on,6,0,6,,,,,,,,,,5,,44,99
8040,note_on,6,0,5,,,,,,,,,,4,,71,99
8040,note_on,0,0,1,,,,,,,,,,0,,71,97
8094,note_on,54,0,1,,,,,,,,,,0,,76,0
8094,note_on,54,0,4,,,,,,,,,,3,,76,0
8094,note_on,54,0,3,,,,,,,,,,2,,76,0
8094,note_on,54,0,6,,,,,,,,,,5,,44,0
8094,note_on,54,0,5,,,,,,,,,,4,,71,0
8100,note_on,6,0,4,,,,,,,,,,3,,74,88
8100,note_on,6,0,3,,,,,,,,,,2,,74,88
8100,note_on,6,0,1,,,,,,,,,,0,,74,91
8100,note_on,6,0,6,,,,,,,,,,5,,44,97
8100,note_on,6,0,5,,,,,,,,,,4,,71,95
8148,note_on,48,0,1,,,,,,,,,,0,,71,0
8154,note_on,54,0,5,,,,,,,,,,4,,71,0
8154,note_on,54,0,6,,,,,,,,,,5,,44,0
8154,note_on,6,0,1,,,,,,,,,,0,,74,0
8154,note_on,54,0,4,,,,,,,,,,3,,74,0
8154,note_on,54,0,3,,,,,,,,,,2,,74,0
8160,note_on,6,0,1,,,,,,,,,,0,,69,93
8160,note_on,0,0,1,,,,,,,,,,0,,73,92
8160,note_on,0,0,2,,,,,,,,,,1,,69,89
8160,note_on,6,0,3,,,,,,,,,,2,,73,91
8160,note_on,1464,0,2,,,,,,,,,,1,,57,91
8160,note_on,6,0,4,,,,,,,,,,3,,73,91
8160,note_on,6,0,6,,,,,,,,,,5,,45,103
8160,note_on,6,0,5,,,,,,,,,,4,,64,80
8214,note_on,54,0,3,,,,,,,,,,2,,73,0
8214,note_on,54,0,6,,,,,,,,,,5,,45,0
8214,note_on,54,0,4,,,,,,,,,,3,,73,0
8214,note_on,54,0,5,,,,,,,,,,4,,64,0
8220,note_on,6,0,6,,,,,,,,,,5,,45,96
8220,note_on,6,0,4,,,,,,,,,,3,,81,115
8220,note_on,6,0,3,,,,,,,,,,2,,81,115
8220,note_on,6,0,5,,,,,,,,,,4,,69,107
8247,note_on,27,0,3,,,,,,,,,,2,,81,0
8247,note_on,27,0,4,,,,,,,,,,3,,81,0
8250,note_on,3,0,3,,,,,,,,,,2,,81,98
8250,note_on,3,0,4,,,,,,,,,,3,,81,98
8268,note_on,0,0,1,,,,,,,,,,0,,69,0
8268,note_on,108,0,1,,,,,,,,,,0,,73,0
8274,note_on,54,0,5,,,,,,,,,,4,,69,0
8274,note_on,54,0,6,,,,,,,,,,5,,45,0
8277,note_on,27,0,3,,,,,,,,,,2,,81,0
8277,note_on,27,0,4,,,,,,,,,,3,,81,0
8280,note_on,3,0,4,,,,,,,,,,3,,80,91
8280,note_on,6,0,6,,,,,,,,,,5,,44,93
8280,note_on,6,0,5,,,,,,,,,,4,,68,97
8280,note_on,3,0,3,,,,,,,,,,2,,80,91
8304,note_on,24,0,4,,,,,,,,,,3,,80,0
8304,note_on,24,0,3,,,,,,,,,,2,,80,0
8310,note_on,6,0,4,,,,,,,,,,3,,80,91
8310,note_on,6,0,3,,,,,,,,,,2,,80,91
8334,note_on,54,0,5,,,,,,,,,,4,,68,0
8334,note_on,54,0,6,,,,,,,,,,5,,44,0
8334,note_on,24,0,4,,,,,,,,,,3,,80,0
8334,note_on,24,0,3,,,,,,,,,,2,,80,0
8340,note_on,6,0,4,,,,,,,,,,3,,78,89
8340,note_on,6,0,3,,,,,,,,,,2,,78,89
8340,note_on,6,0,6,,,,,,,,,,5,,42,88
8340,note_on,6,0,5,,,,,,,,,,4,,66,89
8364,note_on,24,0,4,,,,,,,,,,3,,78,0
8364,note_on,24,0,3,,,,,,,,,,2,,78,0
8370,note_on,6,0,4,,,,,,,,,,3,,78,89
8370,note_on,6,0,3,,,,,,,,,,2,,78,89
8394,note_on,24,0,4,,,,,,,,,,3,,78,0
8394,note_on,54,0,6,,,,,,,,,,5,,42,0
8394,note_on,54,0,5,,,,,,,,,,4,,66,0
8394,note_on,24,0,3,,,,,,,,,,2,,78,0
8400,note_on,6,0,3,,,,,,,,,,2,,76,89
8400,note_on,6,0,4,,,,,,,,,,3,,76,89
8400,note_on,6,0,6,,,,,,,,,,5,,40,92
8400,note_on,6,0,5,,,,,,,,,,4,,64,93
8424,note_on,24,0,4,,,,,,,,,,3,,76,0
8424,note_on,24,0,3,,,,,,,,,,2,,76,0
8430,note_on,6,0,4,,,,,,,,,,3,,76,89
8430,note_on,6,0,3,,,,,,,,,,2,,76,89
8454,note_on,24,0,3,,,,,,,,,,2,,76,0
8454,note_on,54,0,6,,,,,,,,,,5,,40,0
8454,note_on,24,0,4,,,,,,,,,,3,,76,0
8454,note_on,54,0,5,,,,,,,,,,4,,64,0
8460,note_on,6,0,5,,,,,,,,,,4,,62,91
8460,note_on,6,0,4,,,,,,,,,,3,,74,89
8460,note_on,6,0,3,,,,,,,,,,2,,74,89
8460,note_on,6,0,6,,,,,,,,,,5,,38,90
8484,note_on,24,0,3,,,,,,,,,,2,,74,0
8484,note_on,24,0,4,,,,,,,,,,3,,74,0
8490,note_on,6,0,3,,,,,,,,,,2,,74,89
8490,note_on,6,0,4,,,,,,,,,,3,,74,89
8514,note_on,24,0,3,,,,,,,,,,2,,74,0
8514,note_on,54,0,5,,,,,,,,,,4,,62,0
8514,note_on,24,0,4,,,,,,,,,,3,,74,0
8514,note_on,54,0,6,,,,,,,,,,5,,38,0
8520,note_on,6,0,6,,,,,,,,,,5,,37,92
8520,note_on,6,0,3,,,,,,,,,,2,,73,90
8520,note_on,6,0,4,,,,,,,,,,3,,73,90
8520,note_on,6,0,5,,,,,,,,,,4,,61,92
8544,note_on,24,0,4,,,,,,,,,,3,,73,0
8544,note_on,24,0,3,,,,,,,,,,2,,73,0
8550,note_on,6,0,4,,,,,,,,,,3,,73,90
8550,note_on,6,0,3,,,,,,,,,,2,,73,90
8574,note_on,24,0,3,,,,,,,,,,2,,73,0
8574,note_on,54,0,6,,,,,,,,,,5,,37,0
8574,note_on,24,0,4,,,,,,,,,,3,,73,0
8574,note_on,54,0,5,,,,,,,,,,4,,61,0
8580,note_on,6,0,6,,,,,,,,,,5,,35,89
8580,note_on,6,0,3,,,,,,,,,,2,,71,89
8580,note_on,6,0,4,,,,,,,,,,3,,71,89
8580,note_on,6,0,5,,,,,,,,,,4,,59,90
8604,note_on,24,0,4,,,,,,,,,,3,,71,0
8604,note_on,24,0,3,,,,,,,,,,2,,71,0
8610,note_on,6,0,3,,,,,,,,,,2,,71,89
8610,note_on,6,0,4,,,,,,,,,,3,,71,89
8616,note_on,0,0,2,,,,,,,,,,1,,57,0
8616,note_on,456,0,2,,,,,,,,,,1,,69,0
8634,note_on,24,0,3,,,,,,,,,,2,,71,0
8634,note_on,54,0,5,,,,,,,,,,4,,59,0
8634,note_on,54,0,6,,,,,,,,,,5,,35,0
8634,note_on,24,0,4,,,,,,,,,,3,,71,0
8640,note_on,372,0,1,,,,,,,,,,0,,69,89
8640,note_on,6,0,6,,,,,,,,,,5,,33,93
8640,note_on,6,0,4,,,,,,,,,,3,,69,89
8640,note_on,0,0,2,,,,,,,,,,1,,69,98
8640,note_on,24,0,2,,,,,,,,,,1,,57,96
8640,note_on,6,0,5,,,,,,,,,,4,,57,93
8640,note_on,6,0,3,,,,,,,,,,2,,69,89
8664,note_on,24,0,4,,,,,,,,,,3,,69,0
8664,note_on,24,0,3,,,,,,,,,,2,,69,0
8670,note_on,6,0,3,,,,,,,,,,2,,69,89
8670,note_on,6,0,4,,,,,,,,,,3,,69,89
8694,note_on,24,0,3,,,,,,,,,,2,,69,0
8694,note_on,54,0,5,,,,,,,,,,4,,57,0
8694,note_on,24,0,4,,,,,,,,,,3,,69,0
8694,note_on,54,0,1,,,,,,,,,,0,,69,0
8694,note_on,54,0,6,,,,,,,,,,5,,33,0
8700,note_on,6,0,3,,,,,,,,,,2,,69,89
8700,note_on,6,0,6,,,,,,,,,,5,,45,120
8700,note_on,6,0,1,,,,,,,,,,0,,81,119
8700,note_on,6,0,4,,,,,,,,,,3,,69,89
8700,note_on,6,0,5,,,,,,,,,,4,,69,121
8724,note_on,24,0,3,,,,,,,,,,2,,69,0
8724,note_on,24,0,4,,,,,,,,,,3,,69,0
8727,note_on,27,0,5,,,,,,,,,,4,,69,0
8730,note_on,3,0,5,,,,,,,,,,4,,69,100
8730,note_on,6,0,3,,,,,,,,,,2,,69,89
8730,note_on,6,0,4,,,,,,,,,,3,,69,89
8754,note_on,54,0,6,,,,,,,,,,5,,45,0
8754,note_on,24,0,4,,,,,,,,,,3,,69,0
8754,note_on,24,0,3,,,,,,,,,,2,,69,0
8754,note_on,54,0,1,,,,,,,,,,0,,81,0
8757,note_on,27,0,5,,,,,,,,,,4,,69,0
8760,note_on,6,0,3,,,,,,,,,,2,,68,90
8760,note_on,6,0,4,,,,,,,,,,3,,68,90
8760,note_on,6,0,6,,,,,,,,,,5,,44,101
8760,note_on,6,0,1,,,,,,,,,,0,,80,101
8760,note_on,3,0,5,,,,,,,,,,4,,68,92
8784,note_on,24,0,3,,,,,,,,,,2,,68,0
8784,note_on,24,0,4,,,,,,,,,,3,,68,0
8784,note_on,24,0,5,,,,,,,,,,4,,68,0
8790,note_on,6,0,5,,,,,,,,,,4,,68,92
8790,note_on,6,0,4,,,,,,,,,,3,,68,90
8790,note_on,6,0,3,,,,,,,,,,2,,68,90
8814,note_on,24,0,4,,,,,,,,,,3,,68,0
8814,note_on,24,0,3,,,,,,,,,,2,,68,0
8814,note_on,24,0,5,,,,,,,,,,4,,68,0
8814,note_on,54,0,1,,,,,,,,,,0,,80,0
8814,note_on,54,0,6,,,,,,,,,,5,,44,0
8820,note_on,6,0,1,,,,,,,,,,0,,78,91
8820,note_on,6,0,3,,,,,,,,,,2,,66,89
8820,note_on,6,0,4,,,,,,,,,,3,,66,89
8820,note_on,6,0,5,,,,,,,,,,4,,66,90
8820,note_on,6,0,6,,,,,,,,,,5,,42,88
8844,note_on,24,0,4,,,,,,,,,,3,,66,0
8844,note_on,24,0,3,,,,,,,,,,2,,66,0
8844,note_on,24,0,5,,,,,,,,,,4,,66,0
8850,note_on,6,0,4,,,,,,,,,,3,,66,89
8850,note_on,6,0,5,,,,,,,,,,4,,66,90
8850,note_on,6,0,3,,,,,,,,,,2,,66,89
8874,note_on,24,0,4,,,,,,,,,,3,,66,0
8874,note_on,54,0,6,,,,,,,,,,5,,42,0
8874,note_on,24,0,3,,,,,,,,,,2,,66,0
8874,note_on,24,0,5,,,,,,,,,,4,,66,0
8874,note_on,54,0,1,,,,,,,,,,0,,78,0
8880,note_on,6,0,1,,,,,,,,,,0,,76,92
8880,note_on,6,0,6,,,,,,,,,,5,,40,92
8880,note_on,6,0,3,,,,,,,,,,2,,64,89
8880,note_on,6,0,5,,,,,,,,,,4,,64,89
8880,note_on,6,0,4,,,,,,,,,,3,,64,89
8904,note_on,24,0,3,,,,,,,,,,2,,64,0
8904,note_on,24,0,5,,,,,,,,,,4,,64,0
8904,note_on,24,0,4,,,,,,,,,,3,,64,0
8910,note_on,6,0,3,,,,,,,,,,2,,64,89
8910,note_on,6,0,4,,,,,,,,,,3,,64,89
8910,note_on,6,0,5,,,,,,,,,,4,,64,89
8934,note_on,24,0,4,,,,,,,,,,3,,64,0
8934,note_on,54,0,6,,,,,,,,,,5,,40,0
8934,note_on,24,0,5,,,,,,,,,,4,,64,0
8934,note_on,54,0,1,,,,,,,,,,0,,76,0
8934,note_on,24,0,3,,,,,,,,,,2,,64,0
8940,note_on,6,0,3,,,,,,,,,,2,,62,89
8940,note_on,6,0,1,,,,,,,,,,0,,74,89
8940,note_on,6,0,4,,,,,,,,,,3,,62,89
8940,note_on,6,0,6,,,,,,,,,,5,,38,91
8940,note_on,6,0,5,,,,,,,,,,4,,62,89
8964,note_on,24,0,4,,,,,,,,,,3,,62,0
8964,note_on,24,0,5,,,,,,,,,,4,,62,0
8964,note_on,24,0,3,,,,,,,,,,2,,62,0
8970,note_on,6,0,4,,,,,,,,,,3,,62,89
8970,note_on,6,0,3,,,,,,,,,,2,,62,89
8970,note_on,6,0,5,,,,,,,,,,4,,62,89
8994,note_on,24,0,5,,,,,,,,,,4,,62,0
8994,note_on,24,0,4,,,,,,,,,,3,,62,0
8994,note_on,24,0,3,,,,,,,,,,2,,62,0
8994,note_on,54,0,1,,,,,,,,,,0,,74,0
8994,note_on,54,0,6,,,,,,,,,,5,,38,0
9000,note_on,6,0,3,,,,,,,,,,2,,61,90
9000,note_on,6,0,5,,,,,,,,,,4,,61,90
9000,note_on,6,0,4,,,,,,,,,,3,,61,90
9000,note_on,6,0,6,,,,,,,,,,5,,37,95
9000,note_on,6,0,1,,,,,,,,,,0,,73,92
9024,note_on,24,0,4,,,,,,,,,,3,,61,0
9024,note_on,24,0,3,,,,,,,,,,2,,61,0
9024,note_on,24,0,5,,,,,,,,,,4,,61,0
9030,note_on,6,0,4,,,,,,,,,,3,,61,90
9030,note_on,6,0,3,,,,,,,,,,2,,61,90
9030,note_on,6,0,5,,,,,,,,,,4,,61,90
9054,note_on,54,0,1,,,,,,,,,,0,,73,0
9054,note_on,54,0,6,,,,,,,,,,5,,37,0
9054,note_on,24,0,5,,,,,,,,,,4,,61,0
9054,note_on,24,0,4,,,,,,,,,,3,,61,0
9054,note_on,24,0,3,,,,,,,,,,2,,61,0
9060,note_on,6,0,1,,,,,,,,,,0,,71,88
9060,note_on,6,0,5,,,,,,,,,,4,,59,89
9060,note_on,6,0,6,,,,,,,,,,5,,35,89
9060,note_on,6,0,4,,,,,,,,,,3,,59,89
9060,note_on,6,0,3,,,,,,,,,,2,,59,89
9084,note_on,24,0,3,,,,,,,,,,2,,59,0
9084,note_on,24,0,5,,,,,,,,,,4,,59,0
9084,note_on,24,0,4,,,,,,,,,,3,,59,0
9090,note_on,6,0,3,,,,,,,,,,2,,59,89
9090,note_on,6,0,4,,,,,,,,,,3,,59,89
9090,note_on,6,0,5,,,,,,,,,,4,,59,89
9114,note_on,54,0,6,,,,,,,,,,5,,35,0
9114,note_on,54,0,1,,,,,,,,,,0,,71,0
9114,note_on,24,0,3,,,,,,,,,,2,,59,0
9114,note_on,24,0,4,,,,,,,,,,3,,59,0
9114,note_on,24,0,5,,,,,,,,,,4,,59,0
9120,note_on,6,0,3,,,,,,,,,,2,,57,92
9120,note_on,6,0,4,,,,,,,,,,3,,57,91
9120,note_on,6,0,6,,,,,,,,,,5,,33,93
9120,note_on,6,0,1,,,,,,,,,,0,,69,103
9120,note_on,6,0,5,,,,,,,,,,4,,57,91
9120,note_on,0,0,1,,,,,,,,,,0,,73,103
9228,note_on,588,0,2,,,,,,,,,,1,,69,0
9228,note_on,0,0,2,,,,,,,,,,1,,57,0
9228,note_on,108,0,5,,,,,,,,,,4,,57,0
9228,note_on,108,0,1,,,,,,,,,,0,,73,0
9228,note_on,108,0,3,,,,,,,,,,2,,57,0
9228,note_on,108,0,6,,,,,,,,,,5,,33,0
9228,note_on,0,0,1,,,,,,,,,,0,,69,0
9228,note_on,108,0,4,,,,,,,,,,3,,57,0
9240,note_on,12,0,3,,,,,,,,,,2,,64,120
9240,note_on,0,0,3,,,,,,,,,,2,,73,122
9240,note_on,0,0,3,,,,,,,,,,2,,81,121
9240,note_on,12,0,5,,,,,,,,,,4,,57,96
9240,note_on,0,0,4,,,,,,,,,,3,,73,120
9240,note_on,0,0,4,,,,,,,,,,3,,81,121
9240,note_on,12,0,4,,,,,,,,,,3,,64,121
9240,note_on,0,0,1,,,,,,,,,,0,,73,98
9240,note_on,12,0,1,,,,,,,,,,0,,69,95
9240,note_on,12,0,2,,,,,,,,,,1,,69,114
9240,note_on,0,0,2,,,,,,,,,,1,,76,113
9240,note_on,12,0,6,,,,,,,,,,5,,33,96
9348,note_on,0,0,3,,,,,,,,,,2,,64,0
9348,note_on,0,0,3,,,,,,,,,,2,,73,0
9348,note_on,108,0,3,,,,,,,,,,2,,81,0
9348,note_on,108,0,4,,,,,,,,,,3,,81,0
9348,note_on,0,0,4,,,,,,,,,,3,,73,0
9348,note_on,0,0,4,,,,,,,,,,3,,64,0
9348,note_on,108,0,2,,,,,,,,,,1,,76,0
9348,note_on,108,0,1,,,,,,,,,,0,,73,0
9348,note_on,0,0,1,,,,,,,,,,0,,69,0
9348,note_on,108,0,5,,,,,,,,,,4,,57,0
9348,note_on,0,0,2,,,,,,,,,,1,,69,0
9348,note_on,108,0,6,,,,,,,,,,5,,33,0
9360,note_on,12,0,2,,,,,,,,,,1,,69,100
9360,note_on,0,0,2,,,,,,,,,,1,,76,97
9360,note_on,12,0,1,,,,,,,,,,0,,69,97
9360,note_on,0,0,1,,,,,,,,,,0,,73,94
9360,note_on,0,0,3,,,,,,,,,,2,,81,100
9360,note_on,0,0,3,,,,,,,,,,2,,73,99
9360,note_on,12,0,3,,,,,,,,,,2,,64,102
9360,note_on,12,0,4,,,,,,,,,,3,,64,100
9360,note_on,0,0,4,,,,,,,,,,3,,81,100
9360,note_on,12,0,6,,,,,,,,,,5,,33,94
9360,note_on,0,0,4,,,,,,,,,,3,,73,99
9360,note_on,12,0,5,,,,,,,,,,4,,57,97
9468,note_on,108,0,2,,,,,,,,,,1,,76,0
9468,note_on,0,0,2,,,,,,,,,,1,,69,0
9468,note_on,108,0,1,,,,,,,,,,0,,73,0
9468,note_on,0,0,1,,,,,,,,,,0,,69,0
9468,note_on,0,0,4,,,,,,,,,,3,,73,0
9468,note_on,108,0,5,,,,,,,,,,4,,57,0
9468,note_on,108,0,4,,,,,,,,,,3,,81,0
9468,note_on,108,0,6,,,,,,,,,,5,,33,0
9468,note_on,108,0,3,,,,,,,,,,2,,81,0
9468,note_on,0,0,3,,,,,,,,,,2,,73,0
9468,note_on,0,0,3,,,,,,,,,,2,,64,0
9468,note_on,0,0,4,,,,,,,,,,3,,64,0
9600,note_on,132,0,4,,,,,,,,,,3,,68,45
9600,note_on,132,0,5,,,,,,,,,,4,,64,45
9600,note_on,132,0,2,,,,,,,,,,1,,76,46
9600,note_on,132,0,3,,,,,,,,,,2,,71,47
9654,note_on,54,0,4,,,,,,,,,,3,,68,0
9654,note_on,54,0,5,,,,,,,,,,4,,64,0
9654,note_on,54,0,3,,,,,,,,,,2,,71,0
9660,note_on,6,0,5,,,,,,,,,,4,,64,47
9660,note_on,6,0,3,,,,,,,,,,2,,73,49
9660,note_on,6,0,4,,,,,,,,,,3,,69,50
9714,note_on,54,0,5,,,,,,,,,,4,,64,0
9714,note_on,54,0,3,,,,,,,,,,2,,73,0
9714,note_on,54,0,4,,,,,,,,,,3,,69,0
9720,note_on,6,0,3,,,,,,,,,,2,,74,52
9720,note_on,6,0,4,,,,,,,,,,3,,71,56
9720,note_on,6,0,5,,,,,,,,,,4,,64,52
9774,note_on,54,0,3,,,,,,,,,,2,,74,0
9774,note_on,54,0,5,,,,,,,,,,4,,64,0
9774,note_on,54,0,4,,,,,,,,,,3,,71,0
9780,note_on,6,0,4,,,,,,,,,,3,,73,50
9780,note_on,6,0,3,,,,,,,,,,2,,76,51
9780,note_on,6,0,5,,,,,,,,,,4,,64,49
9834,note_on,54,0,4,,,,,,,,,,3,,73,0
9834,note_on,54,0,5,,,,,,,,,,4,,64,0
9834,note_on,54,0,3,,,,,,,,,,2,,76,0
9840,note_on,6,0,3,,,,,,,,,,2,,74,46
9840,note_on,6,0,4,,,,,,,,,,3,,71,47
9840,note_on,6,0,5,,,,,,,,,,4,,64,52
9894,note_on,54,0,5,,,,,,,,,,4,,64,0
9900,note_on,6,0,5,,,,,,,,,,4,,64,50
9948,note_on,108,0,3,,,,,,,,,,2,,74,0
9948,note_on,108,0,4,,,,,,,,,,3,,71,0
9954,note_on,54,0,5,,,,,,,,,,4,,64,0
9960,note_on,6,0,5,,,,,,,,,,4,,64,50
10014,note_on,54,0,5,,,,,,,,,,4,,64,0
10020,note_on,6,0,5,,,,,,,,,,4,,64,49
10074,note_on,54,0,5,,,,,,,,,,4,,64,0
10080,note_on,132,0,4,,,,,,,,,,3,,71,45
10080,note_on,6,0,5,,,,,,,,,,4,,64,51
10080,note_on,612,0,1,,,,,,,,,,0,,71,48
10080,note_on,0,0,1,,,,,,,,,,0,,80,45
10080,note_on,132,0,3,,,,,,,,,,2,,80,47
10109,note_on,0,0,1,,,,,,,,,,0,,71,0
10109,note_on,29,0,1,,,,,,,,,,0,,80,0
10109,note_on,29,0,3,,,,,,,,,,2,,80,0
10109,note_on,29,0,4,,,,,,,,,,3,,71,0
10134,note_on,54,0,5,,,,,,,,,,4,,64,0
10140,note_on,0,0,1,,,,,,,,,,0,,81,47
10140,note_on,31,0,3,,,,,,,,,,2,,81,50
10140,note_on,6,0,5,,,,,,,,,,4,,64,48
10140,note_on,31,0,1,,,,,,,,,,0,,73,49
10140,note_on,31,0,4,,,,,,,,,,3,,73,50
10169,note_on,29,0,1,,,,,,,,,,0,,81,0
10169,note_on,0,0,1,,,,,,,,,,0,,73,0
10169,note_on,29,0,3,,,,,,,,,,2,,81,0
10169,note_on,29,0,4,,,,,,,,,,3,,73,0
10194,note_on,54,0,5,,,,,,,,,,4,,64,0
10200,note_on,31,0,1,,,,,,,,,,0,,74,55
10200,note_on,31,0,3,,,,,,,,,,2,,83,52
10200,note_on,31,0,4,,,,,,,,,,3,,74,54
10200,note_on,0,0,1,,,,,,,,,,0,,83,54
10200,note_on,6,0,5,,,,,,,,,,4,,64,53
10229,note_on,29,0,1,,,,,,,,,,0,,83,0
10229,note_on,0,0,1,,,,,,,,,,0,,74,0
10229,note_on,29,0,4,,,,,,,,,,3,,74,0
10229,note_on,29,0,3,,,,,,,,,,2,,83,0
10254,note_on,54,0,5,,,,,,,,,,4,,64,0
10260,note_on,31,0,3,,,,,,,,,,2,,81,46
10260,note_on,0,0,1,,,,,,,,,,0,,81,43
10260,note_on,31,0,4,,,,,,,,,,3,,73,47
10260,note_on,31,0,1,,,,,,,,,,0,,73,45
10260,note_on,6,0,5,,,,,,,,,,4,,64,49
10289,note_on,29,0,3,,,,,,,,,,2,,81,0
10289,note_on,29,0,4,,,,,,,,,,3,,73,0
10289,note_on,0,0,1,,,,,,,,,,0,,73,0
10289,note_on,29,0,1,,,,,,,,,,0,,81,0
10314,note_on,54,0,5,,,,,,,,,,4,,64,0
10320,note_on,31,0,4,,,,,,,,,,3,,71,45
10320,note_on,0,0,1,,,,,,,,,,0,,80,44
10320,note_on,31,0,1,,,,,,,,,,0,,71,43
10320,note_on,6,0,5,,,,,,,,,,4,,64,50
10320,note_on,31,0,3,,,,,,,,,,2,,80,44
10374,note_on,54,0,5,,,,,,,,,,4,,64,0
10380,note_on,6,0,5,,,,,,,,,,4,,64,47
10428,note_on,108,0,4,,,,,,,,,,3,,71,0
10428,note_on,0,0,1,,,,,,,,,,0,,71,0
10428,note_on,108,0,3,,,,,,,,,,2,,80,0
10428,note_on,108,0,1,,,,,,,,,,0,,80,0
10434,note_on,54,0,5,,,,,,,,,,4,,64,0
10440,note_on,6,0,5,,,,,,,,,,4,,64,50
10494,note_on,54,0,5,,,,,,,,,,4,,64,0
10500,note_on,6,0,5,,,,,,,,,,4,,64,48
10536,note_on,936,0,2,,,,,,,,,,1,,76,0
10554,note_on,54,0,5,,,,,,,,,,4,,64,0
10560,note_on,6,0,5,,,,,,,,,,4,,64,96
10560,note_on,132,0,4,,,,,,,,,,3,,74,86
10560,note_on,1092,0,6,,,,,,,,,,5,,40,86
10560,note_on,132,0,1,,,,,,,,,,0,,71,90
10560,note_on,132,0,3,,,,,,,,,,2,,80,89
10560,note_on,0,0,1,,,,,,,,,,0,,80,91
10560,note_on,24,0,2,,,,,,,,,,1,,76,97
10584,note_on,24,0,5,,,,,,,,,,4,,64,0
10584,note_on,24,0,6,,,,,,,,,,5,,40,0
10584,note_on,24,0,4,,,,,,,,,,3,,74,0
10590,note_on,6,0,4,,,,,,,,,,3,,74,86
10590,note_on,6,0,5,,,,,,,,,,4,,64,96
10590,note_on,6,0,6,,,,,,,,,,5,,40,86
10614,note_on,24,0,5,,,,,,,,,,4,,64,0
10614,note_on,24,0,4,,,,,,,,,,3,,74,0
10614,note_on,24,0,6,,,,,,,,,,5,,40,0
10620,note_on,6,0,5,,,,,,,,,,4,,64,96
10620,note_on,6,0,4,,,,,,,,,,3,,74,86
10620,note_on,6,0,6,,,,,,,,,,5,,40,86
10641,note_on,81,0,3,,,,,,,,,,2,,80,0
10644,note_on,24,0,4,,,,,,,,,,3,,74,0
10644,note_on,24,0,6,,,,,,,,,,5,,40,0
10644,note_on,24,0,5,,,,,,,,,,4,,64,0
10650,note_on,9,0,3,,,,,,,,,,2,,81,101
10650,note_on,6,0,5,,,,,,,,,,4,,64,96
10650,note_on,6,0,6,,,,,,,,,,5,,40,86
10650,note_on,6,0,4,,,,,,,,,,3,,74,86
10674,note_on,24,0,5,,,,,,,,,,4,,64,0
10674,note_on,24,0,4,,,,,,,,,,3,,74,0
10674,note_on,24,0,6,,,,,,,,,,5,,40,0
10677,note_on,27,0,3,,,,,,,,,,2,,81,0
10680,note_on,6,0,6,,,,,,,,,,5,,40,86
10680,note_on,6,0,4,,,,,,,,,,3,,74,86
10680,note_on,6,0,5,,,,,,,,,,4,,64,96
10680,note_on,3,0,3,,,,,,,,,,2,,83,104
10704,note_on,24,0,4,,,,,,,,,,3,,74,0
10704,note_on,24,0,5,,,,,,,,,,4,,64,0
10704,note_on,24,0,6,,,,,,,,,,5,,40,0
10710,note_on,6,0,4,,,,,,,,,,3,,74,86
10710,note_on,6,0,5,,,,,,,,,,4,,64,96
10710,note_on,6,0,6,,,,,,,,,,5,,40,86
10734,note_on,24,0,5,,,,,,,,,,4,,64,0
10734,note_on,24,0,4,,,,,,,,,,3,,74,0
10734,note_on,24,0,6,,,,,,,,,,5,,40,0
10740,note_on,6,0,6,,,,,,,,,,5,,40,86
10740,note_on,6,0,5,,,,,,,,,,4,,64,96
10740,note_on,6,0,4,,,,,,,,,,3,,74,86
10761,note_on,81,0,3,,,,,,,,,,2,,83,0
10764,note_on,24,0,6,,,,,,,,,,5,,40,0
10764,note_on,24,0,4,,,,,,,,,,3,,74,0
10764,note_on,24,0,5,,,,,,,,,,4,,64,0
10770,note_on,6,0,6,,,,,,,,,,5,,40,86
10770,note_on,9,0,3,,,,,,,,,,2,,85,102
10770,note_on,6,0,4,,,,,,,,,,3,,74,86
10770,note_on,6,0,5,,,,,,,,,,4,,64,96
10794,note_on,24,0,6,,,,,,,,,,5,,40,0
10794,note_on,24,0,4,,,,,,,,,,3,,74,0
10794,note_on,24,0,5,,,,,,,,,,4,,64,0
10797,note_on,27,0,3,,,,,,,,,,2,,85,0
10800,note_on,6,0,5,,,,,,,,,,4,,64,96
10800,note_on,6,0,4,,,,,,,,,,3,,74,94
10800,note_on,6,0,6,,,,,,,,,,5,,40,94
10800,note_on,3,0,3,,,,,,,,,,2,,86,103
10824,note_on,24,0,5,,,,,,,,,,4,,64,0
10824,note_on,24,0,6,,,,,,,,,,5,,40,0
10824,note_on,24,0,4,,,,,,,,,,3,,74,0
10827,note_on,27,0,3,,,,,,,,,,2,,86,0
10830,note_on,6,0,6,,,,,,,,,,5,,40,94
10830,note_on,6,0,4,,,,,,,,,,3,,74,94
10830,note_on,6,0,5,,,,,,,,,,4,,64,96
10830,note_on,3,0,3,,,,,,,,,,2,,83,89
10854,note_on,24,0,4,,,,,,,,,,3,,74,0
10854,note_on,24,0,5,,,,,,,,,,4,,64,0
10854,note_on,24,0,6,,,,,,,,,,5,,40,0
10857,note_on,27,0,3,,,,,,,,,,2,,83,0
10860,note_on,6,0,5,,,,,,,,,,4,,64,96
10860,note_on,6,0,6,,,,,,,,,,5,,40,94
10860,note_on,6,0,4,,,,,,,,,,3,,74,94
10884,note_on,24,0,4,,,,,,,,,,3,,74,0
10884,note_on,24,0,5,,,,,,,,,,4,,64,0
10884,note_on,24,0,6,,,,,,,,,,5,,40,0
10890,note_on,6,0,4,,,,,,,,,,3,,74,94
10890,note_on,6,0,5,,,,,,,,,,4,,64,96
10890,note_on,6,0,6,,,,,,,,,,5,,40,94
10914,note_on,24,0,4,,,,,,,,,,3,,74,0
10914,note_on,24,0,5,,,,,,,,,,4,,64,0
10914,note_on,24,0,6,,,,,,,,,,5,,40,0
10920,note_on,6,0,5,,,,,,,,,,4,,64,96
10920,note_on,6,0,4,,,,,,,,,,3,,74,94
10920,note_on,63,0,3,,,,,,,,,,2,,83,88
10920,note_on,6,0,6,,,,,,,,,,5,,40,94
10944,note_on,24,0,5,,,,,,,,,,4,,64,0
10944,note_on,24,0,6,,,,,,,,,,5,,40,0
10944,note_on,24,0,4,,,,,,,,,,3,,74,0
10947,note_on,27,0,3,,,,,,,,,,2,,83,0
10950,note_on,6,0,4,,,,,,,,,,3,,74,94
10950,note_on,6,0,5,,,,,,,,,,4,,64,96
10950,note_on,6,0,6,,,,,,,,,,5,,40,94
10950,note_on,3,0,3,,,,,,,,,,2,,80,86
10974,note_on,24,0,5,,,,,,,,,,4,,64,0
10974,note_on,24,0,6,,,,,,,,,,5,,40,0
10974,note_on,24,0,4,,,,,,,,,,3,,74,0
10977,note_on,27,0,3,,,,,,,,,,2,,80,0
10980,note_on,6,0,4,,,,,,,,,,3,,74,94
10980,note_on,6,0,6,,,,,,,,,,5,,40,94
10980,note_on,6,0,5,,,,,,,,,,4,,64,96
11004,note_on,24,0,6,,,,,,,,,,5,,40,0
11004,note_on,24,0,4,,,,,,,,,,3,,74,0
11004,note_on,24,0,5,,,,,,,,,,4,,64,0
11010,note_on,6,0,5,,,,,,,,,,4,,64,96
11010,note_on,6,0,4,,,,,,,,,,3,,74,94
11010,note_on,6,0,6,,,,,,,,,,5,,40,94
11016,note_on,456,0,1,,,,,,,,,,0,,80,0
11016,note_on,0,0,1,,,,,,,,,,0,,71,0
11016,note_on,456,0,2,,,,,,,,,,1,,76,0
11034,note_on,24,0,6,,,,,,,,,,5,,40,0
11034,note_on,24,0,4,,,,,,,,,,3,,74,0
11034,note_on,24,0,5,,,,,,,,,,4,,64,0
11040,note_on,6,0,6,,,,,,,,,,5,,33,79
11040,note_on,24,0,1,,,,,,,,,,0,,73,102
11040,note_on,0,0,1,,,,,,,,,,0,,81,102
11040,note_on,0,0,2,,,,,,,,,,1,,76,98
11040,note_on,6,0,4,,,,,,,,,,3,,73,93
11040,note_on,6,0,5,,,,,,,,,,4,,64,101
11040,note_on,63,0,3,,,,,,,,,,2,,81,87
11040,note_on,24,0,2,,,,,,,,,,1,,69,99
11067,note_on,27,0,4,,,,,,,,,,3,,73,0
11067,note_on,27,0,3,,,,,,,,,,2,,81,0
11070,note_on,3,0,4,,,,,,,,,,3,,69,85
11070,note_on,3,0,3,,,,,,,,,,2,,69,69
11094,note_on,54,0,6,,,,,,,,,,5,,33,0
11094,note_on,54,0,5,,,,,,,,,,4,,64,0
11097,note_on,27,0,3,,,,,,,,,,2,,69,0
11097,note_on,27,0,4,,,,,,,,,,3,,69,0
11100,note_on,3,0,3,,,,,,,,,,2,,71,99
11100,note_on,3,0,4,,,,,,,,,,3,,71,100
11100,note_on,6,0,6,,,,,,,,,,5,,45,118
11100,note_on,6,0,5,,,,,,,,,,4,,69,108
11127,note_on,27,0,3,,,,,,,,,,2,,71,0
11127,note_on,27,0,4,,,,,,,,,,3,,71,0
11130,note_on,3,0,3,,,,,,,,,,2,,73,101
11130,note_on,3,0,4,,,,,,,,,,3,,73,100
11148,note_on,108,0,1,,,,,,,,,,0,,81,0
11148,note_on,0,0,1,,,,,,,,,,0,,73,0
11148,note_on,0,0,2,,,,,,,,,,1,,69,0
11148,note_on,108,0,2,,,,,,,,,,1,,76,0
11154,note_on,54,0,5,,,,,,,,,,4,,69,0
11154,note_on,54,0,6,,,,,,,,,,5,,45,0
11157,note_on,27,0,4,,,,,,,,,,3,,73,0
11157,note_on,27,0,3,,,,,,,,,,2,,73,0
11160,note_on,3,0,4,,,,,,,,,,3,,74,105
11160,note_on,6,0,5,,,,,,,,,,4,,64,89
11160,note_on,3,0,3,,,,,,,,,,2,,74,103
11160,note_on,0,0,2,,,,,,,,,,1,,76,96
11160,note_on,0,0,1,,,,,,,,,,0,,76,81
11160,note_on,12,0,1,,,,,,,,,,0,,73,84
11160,note_on,6,0,6,,,,,,,,,,5,,40,89
11160,note_on,12,0,2,,,,,,,,,,1,,69,95
11187,note_on,27,0,3,,,,,,,,,,2,,74,0
11187,note_on,27,0,4,,,,,,,,,,3,,74,0
11190,note_on,3,0,4,,,,,,,,,,3,,76,102
11190,note_on,3,0,3,,,,,,,,,,2,,76,101
11214,note_on,54,0,6,,,,,,,,,,5,,40,0
11214,note_on,54,0,5,,,,,,,,,,4,,64,0
11217,note_on,27,0,4,,,,,,,,,,3,,76,0
11217,note_on,27,0,3,,,,,,,,,,2,,76,0
11220,note_on,6,0,5,,,,,,,,,,4,,61,86
11220,note_on,6,0,6,,,,,,,,,,5,,37,85
11220,note_on,3,0,3,,,,,,,,,,2,,78,101
11220,note_on,3,0,4,,,,,,,,,,3,,78,103
11247,note_on,27,0,4,,,,,,,,,,3,,78,0
11247,note_on,27,0,3,,,,,,,,,,2,,78,0
11250,note_on,3,0,4,,,,,,,,,,3,,80,102
11250,note_on,3,0,3,,,,,,,,,,2,,80,104
11268,note_on,0,0,2,,,,,,,,,,1,,69,0
11268,note_on,108,0,2,,,,,,,,,,1,,76,0
11268,note_on,0,0,1,,,,,,,,,,0,,73,0
11268,note_on,108,0,1,,,,,,,,,,0,,76,0
11274,note_on,54,0,5,,,,,,,,,,4,,61,0
11274,note_on,54,0,6,,,,,,,,,,5,,37,0
11277,note_on,27,0,3,,,,,,,,,,2,,80,0
11277,note_on,27,0,4,,,,,,,,,,3,,80,0
11280,note_on,0,0,2,,,,,,,,,,1,,76,98
11280,note_on,3,0,3,,,,,,,,,,2,,81,101
11280,note_on,12,0,2,,,,,,,,,,1,,69,94
11280,note_on,6,0,5,,,,,,,,,,4,,57,83
11280,note_on,6,0,6,,,,,,,,,,5,,33,85
11280,note_on,12,0,1,,,,,,,,,,0,,73,91
11280,note_on,0,0,1,,,,,,,,,,0,,76,91
11280,note_on,3,0,4,,,,,,,,,,3,,81,100
11388,note_on,108,0,2,,,,,,,,,,1,,76,0
11388,note_on,108,0,3,,,,,,,,,,2,,81,0
11388,note_on,108,0,1,,,,,,,,,,0,,76,0
11388,note_on,0,0,1,,,,,,,,,,0,,73,0
11388,note_on,108,0,5,,,,,,,,,,4,,57,0
11388,note_on,108,0,4,,,,,,,,,,3,,81,0
11388,note_on,0,0,2,,,,,,,,,,1,,69,0
11388,note_on,108,0,6,,,,,,,,,,5,,33,0
11520,note_on,132,0,5,,,,,,,,,,4,,64,47
11520,note_on,132,0,3,,,,,,,,,,2,,86,46
11520,note_on,132,0,4,,,,,,,,,,3,,68,46
11520,note_on,132,0,2,,,,,,,,,,1,,76,46
11520,note_on,132,0,6,,,,,,,,,,5,,40,44
11574,note_on,54,0,4,,,,,,,,,,3,,68,0
11574,note_on,54,0,6,,,,,,,,,,5,,40,0
11580,note_on,6,0,6,,,,,,,,,,5,,42,50
11580,note_on,6,0,4,,,,,,,,,,3,,69,48
11628,note_on,108,0,5,,,,,,,,,,4,,64,0
11634,note_on,54,0,4,,,,,,,,,,3,,69,0
11634,note_on,54,0,6,,,,,,,,,,5,,42,0
11640,note_on,6,0,6,,,,,,,,,,5,,44,53
11640,note_on,6,0,4,,,,,,,,,,3,,71,53
11640,note_on,12,0,5,,,,,,,,,,4,,66,53
11653,note_on,13,0,5,,,,,,,,,,4,,66,0
11655,note_on,2,0,5,,,,,,,,,,4,,64,47
11668,note_on,13,0,5,,,,,,,,,,4,,64,0
11670,note_on,2,0,5,,,,,,,,,,4,,63,46
11694,note_on,54,0,6,,,,,,,,,,5,,44,0
11694,note_on,54,0,4,,,,,,,,,,3,,71,0
11697,note_on,27,0,5,,,,,,,,,,4,,63,0
11700,note_on,6,0,6,,,,,,,,,,5,,45,51
11700,note_on,6,0,4,,,,,,,,,,3,,73,50
11700,note_on,3,0,5,,,,,,,,,,4,,64,50
11727,note_on,27,0,5,,,,,,,,,,4,,64,0
11730,note_on,3,0,5,,,,,,,,,,4,,66,53
11754,note_on,54,0,6,,,,,,,,,,5,,45,0
11754,note_on,54,0,4,,,,,,,,,,3,,73,0
11757,note_on,27,0,5,,,,,,,,,,4,,66,0
11760,note_on,6,0,4,,,,,,,,,,3,,71,47
11760,note_on,6,0,6,,,,,,,,,,5,,44,47
11760,note_on,3,0,5,,,,,,,,,,4,,64,47
11814,note_on,294,0,3,,,,,,,,,,2,,86,0
11814,note_on,54,0,5,,,,,,,,,,4,,64,0
11820,note_on,6,0,3,,,,,,,,,,2,,85,45
11820,note_on,6,0,5,,,,,,,,,,4,,64,47
11849,note_on,29,0,3,,,,,,,,,,2,,85,0
11868,note_on,108,0,4,,,,,,,,,,3,,71,0
11868,note_on,108,0,6,,,,,,,,,,5,,44,0
11874,note_on,54,0,5,,,,,,,,,,4,,64,0
11880,note_on,31,0,3,,,,,,,,,,2,,83,48
11880,note_on,6,0,5,,,,,,,,,,4,,64,50
11909,note_on,29,0,3,,,,,,,,,,2,,83,0
11934,note_on,54,0,5,,,,,,,,,,4,,64,0
11940,note_on,6,0,5,,,,,,,,,,4,,64,46
11940,note_on,31,0,3,,,,,,,,,,2,,81,42
11969,note_on,29,0,3,,,,,,,,,,2,,81,0
11994,note_on,54,0,5,,,,,,,,,,4,,64,0
12000,note_on,132,0,6,,,,,,,,,,5,,40,46
12000,note_on,31,0,3,,,,,,,,,,2,,86,59
12000,note_on,132,0,4,,,,,,,,,,3,,68,46
12000,note_on,6,0,5,,,,,,,,,,4,,64,52
12054,note_on,54,0,6,,,,,,,,,,5,,40,0
12054,note_on,54,0,4,,,,,,,,,,3,,68,0
12060,note_on,6,0,4,,,,,,,,,,3,,69,48
12060,note_on,6,0,6,,,,,,,,,,5,,42,50
12108,note_on,108,0,5,,,,,,,,,,4,,64,0
12114,note_on,54,0,6,,,,,,,,,,5,,42,0
12114,note_on,54,0,4,,,,,,,,,,3,,69,0
12120,note_on,6,0,4,,,,,,,,,,3,,71,55
12120,note_on,12,0,5,,,,,,,,,,4,,66,55
12120,note_on,6,0,6,,,,,,,,,,5,,44,53
12133,note_on,13,0,5,,,,,,,,,,4,,66,0
12135,note_on,2,0,5,,,,,,,,,,4,,64,44
12148,note_on,13,0,5,,,,,,,,,,4,,64,0
12150,note_on,2,0,5,,,,,,,,,,4,,63,43
12174,note_on,54,0,6,,,,,,,,,,5,,44,0
12174,note_on,54,0,4,,,,,,,,,,3,,71,0
12177,note_on,27,0,5,,,,,,,,,,4,,63,0
12180,note_on,3,0,5,,,,,,,,,,4,,64,50
12180,note_on,6,0,6,,,,,,,,,,5,,45,51
12180,note_on,6,0,4,,,,,,,,,,3,,73,50
12207,note_on,27,0,5,,,,,,,,,,4,,64,0
12210,note_on,3,0,5,,,,,,,,,,4,,66,53
12234,note_on,54,0,4,,,,,,,,,,3,,73,0
12234,note_on,54,0,6,,,,,,,,,,5,,45,0
12237,note_on,27,0,5,,,,,,,,,,4,,66,0
12240,note_on,6,0,4,,,,,,,,,,3,,71,44
12240,note_on,3,0,5,,,,,,,,,,4,,64,44
12240,note_on,6,0,6,,,,,,,,,,5,,44,46
12294,note_on,294,0,3,,,,,,,,,,2,,86,0
12300,note_on,6,0,3,,,,,,,,,,2,,85,44
12329,note_on,29,0,3,,,,,,,,,,2,,85,0
12348,note_on,108,0,6,,,,,,,,,,5,,44,0
12348,note_on,108,0,4,,,,,,,,,,3,,71,0
12348,note_on,108,0,5,,,,,,,,,,4,,64,0
12360,note_on,31,0,3,,,,,,,,,,2,,83,49
12389,note_on,29,0,3,,,,,,,,,,2,,83,0
12420,note_on,31,0,3,,,,,,,,,,2,,81,46
12449,note_on,29,0,3,,,,,,,,,,2,,81,0
12456,note_on,936,0,2,,,,,,,,,,1,,76,0
12480,note_on,31,0,3,,,,,,,,,,2,,86,113
12480,note_on,132,0,4,,,,,,,,,,3,,83,90
12480,note_on,24,0,2,,,,,,,,,,1,,76,99
12480,note_on,0,0,1,,,,,,,,,,0,,80,89
12480,note_on,132,0,6,,,,,,,,,,5,,40,88
12480,note_on,132,0,5,,,,,,,,,,4,,64,90
12480,note_on,1092,0,1,,,,,,,,,,0,,71,89
12509,note_on,29,0,4,,,,,,,,,,3,,83,0
12509,note_on,29,0,3,,,,,,,,,,2,,86,0
12534,note_on,54,0,5,,,,,,,,,,4,,64,0
12534,note_on,54,0,6,,,,,,,,,,5,,40,0
12540,note_on,6,0,6,,,,,,,,,,5,,40,93
12540,note_on,31,0,3,,,,,,,,,,2,,85,92
12540,note_on,31,0,4,,,,,,,,,,3,,81,86
12540,note_on,6,0,5,,,,,,,,,,4,,64,92
12569,note_on,29,0,4,,,,,,,,,,3,,81,0
12569,note_on,29,0,3,,,,,,,,,,2,,85,0
12594,note_on,54,0,5,,,,,,,,,,4,,64,0
12594,note_on,54,0,6,,,,,,,,,,5,,40,0
12600,note_on,6,0,6,,,,,,,,,,5,,40,99
12600,note_on,31,0,4,,,,,,,,,,3,,80,91
12600,note_on,6,0,5,,,,,,,,,,4,,64,98
12600,note_on,31,0,3,,,,,,,,,,2,,83,93
12629,note_on,29,0,4,,,,,,,,,,3,,80,0
12629,note_on,29,0,3,,,,,,,,,,2,,83,0
12654,note_on,54,0,5,,,,,,,,,,4,,64,0
12654,note_on,54,0,6,,,,,,,,,,5,,40,0
12660,note_on,31,0,4,,,,,,,,,,3,,78,88
12660,note_on,6,0,5,,,,,,,,,,4,,64,96
12660,note_on,31,0,3,,,,,,,,,,2,,81,88
12660,note_on,6,0,6,,,,,,,,,,5,,40,96
12689,note_on,29,0,3,,,,,,,,,,2,,81,0
12689,note_on,29,0,4,,,,,,,,,,3,,78,0
12714,note_on,54,0,5,,,,,,,,,,4,,64,0
12714,note_on,54,0,6,,,,,,,,,,5,,40,0
12720,note_on,31,0,3,,,,,,,,,,2,,80,91
12720,note_on,6,0,5,,,,,,,,,,4,,64,97
12720,note_on,31,0,4,,,,,,,,,,3,,76,92
12720,note_on,6,0,6,,,,,,,,,,5,,40,98
12749,note_on,29,0,3,,,,,,,,,,2,,80,0
12749,note_on,29,0,4,,,,,,,,,,3,,76,0
12774,note_on,54,0,6,,,,,,,,,,5,,40,0
12774,note_on,54,0,5,,,,,,,,,,4,,64,0
12780,note_on,6,0,6,,,,,,,,,,5,,40,97
12780,note_on,6,0,5,,,,,,,,,,4,,64,95
12780,note_on,31,0,4,,,,,,,,,,3,,74,90
12780,note_on,31,0,3,,,,,,,,,,2,,78,87
12809,note_on,29,0,3,,,,,,,,,,2,,78,0
12809,note_on,29,0,4,,,,,,,,,,3,,74,0
12834,note_on,54,0,5,,,,,,,,,,4,,64,0
12834,note_on,54,0,6,,,,,,,,,,5,,40,0
12840,note_on,6,0,5,,,,,,,,,,4,,64,98
12840,note_on,31,0,4,,,,,,,,,,3,,73,93
12840,note_on,6,0,6,,,,,,,,,,5,,40,100
12840,note_on,31,0,3,,,,,,,,,,2,,76,91
12869,note_on,29,0,4,,,,,,,,,,3,,73,0
12869,note_on,29,0,3,,,,,,,,,,2,,76,0
12894,note_on,54,0,5,,,,,,,,,,4,,64,0
12894,note_on,54,0,6,,,,,,,,,,5,,40,0
12900,note_on,6,0,6,,,,,,,,,,5,,40,98
12900,note_on,31,0,3,,,,,,,,,,2,,74,90
12900,note_on,6,0,5,,,,,,,,,,4,,64,97
12900,note_on,31,0,4,,,,,,,,,,3,,71,90
12929,note_on,29,0,3,,,,,,,,,,2,,74,0
12929,note_on,29,0,4,,,,,,,,,,3,,71,0
12936,note_on,456,0,2,,,,,,,,,,1,,76,0
12936,note_on,456,0,1,,,,,,,,,,0,,80,0
12936,note_on,0,0,1,,,,,,,,,,0,,71,0
12954,note_on,54,0,5,,,,,,,,,,4,,64,0
12954,note_on,54,0,6,,,,,,,,,,5,,40,0
12960,note_on,24,0,1,,,,,,,,,,0,,73,101
12960,note_on,0,0,1,,,,,,,,,,0,,81,101
12960,note_on,6,0,5,,,,,,,,,,4,,64,99
12960,note_on,31,0,4,,,,,,,,,,3,,69,91
12960,note_on,6,0,6,,,,,,,,,,5,,40,101
12960,note_on,24,0,2,,,,,,,,,,1,,76,98
12960,note_on,31,0,3,,,,,,,,,,2,,73,94
12989,note_on,29,0,4,,,,,,,,,,3,,69,0
12989,note_on,29,0,3,,,,,,,,,,2,,73,0
13014,note_on,54,0,5,,,,,,,,,,4,,64,0
13014,note_on,54,0,6,,,,,,,,,,5,,40,0
13020,note_on,31,0,3,,,,,,,,,,2,,74,99
13020,note_on,6,0,5,,,,,,,,,,4,,64,96
13020,note_on,31,0,4,,,,,,,,,,3,,71,101
13020,note_on,6,0,6,,,,,,,,,,5,,40,97
13049,note_on,29,0,3,,,,,,,,,,2,,74,0
13049,note_on,29,0,4,,,,,,,,,,3,,71,0
13074,note_on,54,0,6,,,,,,,,,,5,,40,0
13074,note_on,54,0,5,,,,,,,,,,4,,64,0
13080,note_on,6,0,5,,,,,,,,,,4,,64,97
13080,note_on,31,0,4,,,,,,,,,,3,,73,103
13080,note_on,31,0,3,,,,,,,,,,2,,76,106
13080,note_on,6,0,6,,,,,,,,,,5,,40,100
13109,note_on,29,0,4,,,,,,,,,,3,,73,0
13109,note_on,29,0,3,,,,,,,,,,2,,76,0
13134,note_on,54,0,6,,,,,,,,,,5,,40,0
13134,note_on,54,0,5,,,,,,,,,,4,,64,0
13140,note_on,31,0,3,,,,,,,,,,2,,78,103
13140,note_on,6,0,6,,,,,,,,,,5,,40,95
13140,note_on,6,0,5,,,,,,,,,,4,,64,97
13140,note_on,31,0,4,,,,,,,,,,3,,74,101
13169,note_on,29,0,3,,,,,,,,,,2,,78,0
13169,note_on,29,0,4,,,,,,,,,,3,,74,0
13194,note_on,54,0,5,,,,,,,,,,4,,64,0
13194,note_on,54,0,6,,,,,,,,,,5,,40,0
13200,note_on,31,0,3,,,,,,,,,,2,,80,105
13200,note_on,6,0,5,,,,,,,,,,4,,64,98
13200,note_on,6,0,6,,,,,,,,,,5,,40,97
13200,note_on,31,0,4,,,,,,,,,,3,,76,107
13229,note_on,29,0,3,,,,,,,,,,2,,80,0
13229,note_on,29,0,4,,,,,,,,,,3,,76,0
13254,note_on,54,0,6,,,,,,,,,,5,,40,0
13254,note_on,54,0,5,,,,,,,,,,4,,64,0
13260,note_on,31,0,4,,,,,,,,,,3,,78,101
13260,note_on,31,0,3,,,,,,,,,,2,,81,102
13260,note_on,6,0,5,,,,,,,,,,4,,64,94
13260,note_on,6,0,6,,,,,,,,,,5,,40,96
13289,note_on,29,0,3,,,,,,,,,,2,,81,0
13289,note_on,29,0,4,,,,,,,,,,3,,78,0
13314,note_on,54,0,5,,,,,,,,,,4,,64,0
13314,note_on,54,0,6,,,,,,,,,,5,,40,0
13320,note_on,31,0,4,,,,,,,,,,3,,80,106
13320,note_on,6,0,5,,,,,,,,,,4,,64,98
13320,note_on,31,0,3,,,,,,,,,,2,,83,105
13320,note_on,6,0,6,,,,,,,,,,5,,40,99
13349,note_on,29,0,4,,,,,,,,,,3,,80,0
13349,note_on,29,0,3,,,,,,,,,,2,,83,0
13374,note_on,54,0,5,,,,,,,,,,4,,64,0
13374,note_on,54,0,6,,,,,,,,,,5,,40,0
13380,note_on,31,0,3,,,,,,,,,,2,,85,104
13380,note_on,6,0,5,,,,,,,,,,4,,64,98
13380,note_on,31,0,4,,,,,,,,,,3,,81,100
13380,note_on,6,0,6,,,,,,,,,,5,,40,95
13409,note_on,29,0,4,,,,,,,,,,3,,81,0
13409,note_on,29,0,3,,,,,,,,,,2,,85,0
13416,note_on,456,0,1,,,,,,,,,,0,,81,0
13416,note_on,0,0,1,,,,,,,,,,0,,73,0
13416,note_on,456,0,2,,,,,,,,,,1,,76,0
13434,note_on,54,0,5,,,,,,,,,,4,,64,0
13434,note_on,54,0,6,,,,,,,,,,5,,40,0
13440,note_on,31,0,4,,,,,,,,,,3,,83,107
13440,note_on,31,0,3,,,,,,,,,,2,,86,105
13440,note_on,24,0,2,,,,,,,,,,1,,76,99
13440,note_on,6,0,6,,,,,,,,,,5,,40,101
13440,note_on,6,0,5,,,,,,,,,,4,,64,98
13440,note_on,24,0,1,,,,,,,,,,0,,83,110
13440,note_on,0,0,1,,,,,,,,,,0,,86,113
13469,note_on,29,0,1,,,,,,,,,,0,,86,0
13469,note_on,29,0,4,,,,,,,,,,3,,83,0
13469,note_on,29,0,3,,,,,,,,,,2,,86,0
13469,note_on,0,0,1,,,,,,,,,,0,,83,0
13494,note_on,54,0,6,,,,,,,,,,5,,40,0
13500,note_on,31,0,4,,,,,,,,,,3,,81,89
13500,note_on,31,0,3,,,,,,,,,,2,,85,93
13500,note_on,6,0,6,,,,,,,,,,5,,40,95
13500,note_on,31,0,1,,,,,,,,,,0,,81,94
13500,note_on,0,0,1,,,,,,,,,,0,,85,93
13529,note_on,29,0,3,,,,,,,,,,2,,85,0
13529,note_on,29,0,4,,,,,,,,,,3,,81,0
13529,note_on,29,0,1,,,,,,,,,,0,,85,0
13529,note_on,0,0,1,,,,,,,,,,0,,81,0
13548,note_on,108,0,5,,,,,,,,,,4,,64,0
13554,note_on,54,0,6,,,,,,,,,,5,,40,0
13560,note_on,31,0,3,,,,,,,,,,2,,83,91
13560,note_on,31,0,4,,,,,,,,,,3,,80,95
13560,note_on,31,0,1,,,,,,,,,,0,,80,94
13560,note_on,6,0,6,,,,,,,,,,5,,40,98
13560,note_on,0,0,1,,,,,,,,,,0,,83,93
13589,note_on,0,0,1,,,,,,,,,,0,,80,0
13589,note_on,29,0,1,,,,,,,,,,0,,83,0
13589,note_on,29,0,3,,,,,,,,,,2,,83,0
13589,note_on,29,0,4,,,,,,,,,,3,,80,0
13614,note_on,54,0,6,,,,,,,,,,5,,40,0
13620,note_on,0,0,1,,,,,,,,,,0,,81,90
13620,note_on,31,0,1,,,,,,,,,,0,,78,87
13620,note_on,31,0,3,,,,,,,,,,2,,81,88
13620,note_on,6,0,6,,,,,,,,,,5,,40,95
13620,note_on,31,0,4,,,,,,,,,,3,,78,88
13649,note_on,29,0,3,,,,,,,,,,2,,81,0
13649,note_on,29,0,1,,,,,,,,,,0,,81,0
13649,note_on,0,0,1,,,,,,,,,,0,,78,0
13649,note_on,29,0,4,,,,,,,,,,3,,78,0
13674,note_on,54,0,6,,,,,,,,,,5,,40,0
13680,note_on,0,0,1,,,,,,,,,,0,,80,92
13680,note_on,31,0,1,,,,,,,,,,0,,76,91
13680,note_on,6,0,6,,,,,,,,,,5,,40,99
13680,note_on,31,0,3,,,,,,,,,,2,,80,91
13680,note_on,31,0,4,,,,,,,,,,3,,76,91
13709,note_on,29,0,4,,,,,,,,,,3,,76,0
13709,note_on,29,0,1,,,,,,,,,,0,,80,0
13709,note_on,0,0,1,,,,,,,,,,0,,76,0
13709,note_on,29,0,3,,,,,,,,,,2,,80,0
13734,note_on,54,0,6,,,,,,,,,,5,,40,0
13740,note_on,0,0,1,,,,,,,,,,0,,78,87
13740,note_on,31,0,1,,,,,,,,,,0,,74,88
13740,note_on,6,0,6,,,,,,,,,,5,,40,96
13740,note_on,31,0,4,,,,,,,,,,3,,74,91
13740,note_on,31,0,3,,,,,,,,,,2,,78,91
13769,note_on,0,0,1,,,,,,,,,,0,,74,0
13769,note_on,29,0,4,,,,,,,,,,3,,74,0
13769,note_on,29,0,1,,,,,,,,,,0,,78,0
13769,note_on,29,0,3,,,,,,,,,,2,,78,0
13794,note_on,54,0,6,,,,,,,,,,5,,40,0
13800,note_on,0,0,1,,,,,,,,,,0,,76,92
13800,note_on,31,0,1,,,,,,,,,,0,,73,93
13800,note_on,6,0,6,,,,,,,,,,5,,40,97
13800,note_on,31,0,3,,,,,,,,,,2,,76,90
13800,note_on,31,0,4,,,,,,,,,,3,,73,92
13829,note_on,29,0,4,,,,,,,,,,3,,73,0
13829,note_on,0,0,1,,,,,,,,,,0,,73,0
13829,note_on,29,0,3,,,,,,,,,,2,,76,0
13829,note_on,29,0,1,,,,,,,,,,0,,76,0
13854,note_on,54,0,6,,,,,,,,,,5,,40,0
13860,note_on,31,0,1,,,,,,,,,,0,,71,88
13860,note_on,0,0,1,,,,,,,,,,0,,74,88
13860,note_on,31,0,4,,,,,,,,,,3,,71,88
13860,note_on,31,0,3,,,,,,,,,,2,,74,87
13860,note_on,6,0,6,,,,,,,,,,5,,40,97
13889,note_on,29,0,4,,,,,,,,,,3,,71,0
13889,note_on,0,0,1,,,,,,,,,,0,,71,0
13889,note_on,29,0,1,,,,,,,,,,0,,74,0
13889,note_on,29,0,3,,,,,,,,,,2,,74,0
13896,note_on,456,0,2,,,,,,,,,,1,,76,0
13914,note_on,54,0,6,,,,,,,,,,5,,40,0
13920,note_on,6,0,6,,,,,,,,,,5,,33,44
13920,note_on,0,0,1,,,,,,,,,,0,,72,91
13920,note_on,31,0,1,,,,,,,,,,0,,69,93
13920,note_on,31,0,3,,,,,,,,,,2,,72,46
13920,note_on,0,0,2,,,,,,,,,,1,,76,99
13920,note_on,372,0,5,,,,,,,,,,4,,64,47
13920,note_on,24,0,2,,,,,,,,,,1,,69,98
13920,note_on,31,0,4,,,,,,,,,,3,,69,48
13974,note_on,54,0,4,,,,,,,,,,3,,69,0
13974,note_on,54,0,3,,,,,,,,,,2,,72,0
13974,note_on,54,0,2,,,,,,,,,,1,,76,0
13974,note_on,0,0,2,,,,,,,,,,1,,69,0
13974,note_on,54,0,1,,,,,,,,,,0,,72,0
13974,note_on,54,0,5,,,,,,,,,,4,,64,0
13974,note_on,0,0,1,,,,,,,,,,0,,69,0
13980,note_on,6,0,5,,,,,,,,,,4,,64,45
13980,note_on,6,0,4,,,,,,,,,,3,,81,58
14028,note_on,108,0,6,,,,,,,,,,5,,33,0
14040,note_on,12,0,6,,,,,,,,,,5,,45,58
14088,note_on,108,0,5,,,,,,,,,,4,,64,0
14088,note_on,108,0,4,,,,,,,,,,3,,81,0
14100,note_on,12,0,4,,,,,,,,,,3,,81,51
14100,note_on,12,0,5,,,,,,,,,,4,,64,46
14148,note_on,108,0,6,,,,,,,,,,5,,45,0
14160,note_on,12,0,6,,,,,,,,,,5,,48,55
14208,note_on,108,0,4,,,,,,,,,,3,,81,0
14208,note_on,108,0,5,,,,,,,,,,4,,64,0
14220,note_on,12,0,4,,,,,,,,,,3,,81,50
14220,note_on,12,0,5,,,,,,,,,,4,,64,47
14268,note_on,108,0,6,,,,,,,,,,5,,48,0
14280,note_on,12,0,6,,,,,,,,,,5,,45,47
14328,note_on,108,0,5,,,,,,,,,,4,,64,0
14328,note_on,108,0,4,,,,,,,,,,3,,81,0
14340,note_on,12,0,4,,,,,,,,,,3,,81,47
14340,note_on,366,0,3,,,,,,,,,,2,,84,42
14340,note_on,12,0,5,,,,,,,,,,4,,64,50
14388,note_on,108,0,6,,,,,,,,,,5,,45,0
14394,note_on,54,0,3,,,,,,,,,,2,,84,0
14394,note_on,54,0,5,,,,,,,,,,4,,64,0
14394,note_on,54,0,4,,,,,,,,,,3,,81,0
14400,note_on,6,0,3,,,,,,,,,,2,,86,53
14400,note_on,6,0,4,,,,,,,,,,3,,83,55
14400,note_on,6,0,5,,,,,,,,,,4,,62,49
14400,note_on,12,0,6,,,,,,,,,,5,,38,44
14454,note_on,54,0,5,,,,,,,,,,4,,62,0
14454,note_on,54,0,4,,,,,,,,,,3,,83,0
14454,note_on,54,0,3,,,,,,,,,,2,,86,0
14460,note_on,6,0,5,,,,,,,,,,4,,62,46
14460,note_on,6,0,4,,,,,,,,,,3,,83,47
14460,note_on,6,0,3,,,,,,,,,,2,,86,47
14508,note_on,108,0,6,,,,,,,,,,5,,38,0
14520,note_on,12,0,6,,,,,,,,,,5,,38,45
14568,note_on,108,0,3,,,,,,,,,,2,,86,0
14568,note_on,108,0,5,,,,,,,,,,4,,62,0
14568,note_on,108,0,4,,,,,,,,,,3,,83,0
14580,note_on,12,0,3,,,,,,,,,,2,,86,50
14580,note_on,12,0,4,,,,,,,,,,3,,83,48
14580,note_on,12,0,5,,,,,,,,,,4,,65,53
14628,note_on,108,0,6,,,,,,,,,,5,,38,0
14640,note_on,12,0,6,,,,,,,,,,5,,40,51
14688,note_on,108,0,4,,,,,,,,,,3,,83,0
14688,note_on,108,0,5,,,,,,,,,,4,,65,0
14688,note_on,108,0,3,,,,,,,,,,2,,86,0
14700,note_on,12,0,4,,,,,,,,,,3,,83,48
14700,note_on,12,0,5,,,,,,,,,,4,,64,47
14700,note_on,12,0,3,,,,,,,,,,2,,86,47
14748,note_on,108,0,6,,,,,,,,,,5,,40,0
14754,note_on,54,0,4,,,,,,,,,,3,,83,0
14754,note_on,54,0,3,,,,,,,,,,2,,86,0
14760,note_on,6,0,3,,,,,,,,,,2,,84,48
14760,note_on,12,0,6,,,,,,,,,,5,,28,33
14760,note_on,6,0,4,,,,,,,,,,3,,81,49
14808,note_on,108,0,5,,,,,,,,,,4,,64,0
14814,note_on,54,0,3,,,,,,,,,,2,,84,0
14814,note_on,54,0,4,,,,,,,,,,3,,81,0
14820,note_on,6,0,4,,,,,,,,,,3,,80,45
14820,note_on,12,0,5,,,,,,,,,,4,,62,46
14820,note_on,6,0,3,,,,,,,,,,2,,83,44
14868,note_on,108,0,6,,,,,,,,,,5,,28,0
14874,note_on,54,0,3,,,,,,,,,,2,,83,0
14874,note_on,54,0,5,,,,,,,,,,4,,62,0
14874,note_on,54,0,4,,,,,,,,,,3,,80,0
14880,note_on,6,0,5,,,,,,,,,,4,,64,52
14880,note_on,12,0,6,,,,,,,,,,5,,33,53
14880,note_on,6,0,4,,,,,,,,,,3,,81,53
14880,note_on,906,0,1,,,,,,,,,,0,,69,45
14880,note_on,6,0,3,,,,,,,,,,2,,84,52
14880,note_on,0,0,1,,,,,,,,,,0,,72,44
14934,note_on,54,0,3,,,,,,,,,,2,,84,0
14934,note_on,54,0,5,,,,,,,,,,4,,64,0
14934,note_on,54,0,4,,,,,,,,,,3,,81,0
14940,note_on,6,0,5,,,,,,,,,,4,,64,50
14988,note_on,108,0,6,,,,,,,,,,5,,33,0
15000,note_on,12,0,6,,,,,,,,,,5,,33,49
15048,note_on,108,0,5,,,,,,,,,,4,,64,0
15060,note_on,12,0,5,,,,,,,,,,4,,64,46
15096,note_on,216,0,1,,,,,,,,,,0,,72,0
15096,note_on,0,0,1,,,,,,,,,,0,,69,0
15108,note_on,108,0,6,,,,,,,,,,5,,33,0
15120,note_on,0,0,1,,,,,,,,,,0,,76,53
15120,note_on,24,0,1,,,,,,,,,,0,,72,52
15120,note_on,12,0,6,,,,,,,,,,5,,33,48
15168,note_on,108,0,5,,,,,,,,,,4,,64,0
15180,note_on,12,0,5,,,,,,,,,,4,,64,47
15228,note_on,108,0,6,,,,,,,,,,5,,33,0
15240,note_on,12,0,6,,,,,,,,,,5,,33,48
15288,note_on,108,0,5,,,,,,,,,,4,,64,0
15300,note_on,12,0,5,,,,,,,,,,4,,60,42
15300,note_on,366,0,4,,,,,,,,,,3,,76,44
15336,note_on,216,0,1,,,,,,,,,,0,,76,0
15336,note_on,0,0,1,,,,,,,,,,0,,72,0
15348,note_on,108,0,6,,,,,,,,,,5,,33,0
15354,note_on,54,0,4,,,,,,,,,,3,,76,0
15354,note_on,54,0,5,,,,,,,,,,4,,60,0
15360,note_on,0,0,1,,,,,,,,,,0,,77,52
15360,note_on,24,0,1,,,,,,,,,,0,,74,56
15360,note_on,6,0,4,,,,,,,,,,3,,77,52
15360,note_on,6,0,5,,,,,,,,,,4,,62,55
15360,note_on,12,0,6,,,,,,,,,,5,,38,59
15414,note_on,54,0,1,,,,,,,,,,0,,77,0
15414,note_on,0,0,1,,,,,,,,,,0,,74,0
15414,note_on,54,0,5,,,,,,,,,,4,,62,0
15414,note_on,54,0,4,,,,,,,,,,3,,77,0
15420,note_on,6,0,5,,,,,,,,,,4,,62,49
15420,note_on,6,0,1,,,,,,,,,,0,,74,49
15420,note_on,6,0,4,,,,,,,,,,3,,77,47
15420,note_on,0,0,1,,,,,,,,,,0,,77,48
15468,note_on,108,0,6,,,,,,,,,,5,,38,0
15480,note_on,12,0,6,,,,,,,,,,5,,38,48
15528,note_on,0,0,1,,,,,,,,,,0,,74,0
15528,note_on,108,0,1,,,,,,,,,,0,,77,0
15528,note_on,108,0,4,,,,,,,,,,3,,77,0
15528,note_on,108,0,5,,,,,,,,,,4,,62,0
15540,note_on,0,0,1,,,,,,,,,,0,,81,55
15540,note_on,12,0,4,,,,,,,,,,3,,81,52
15540,note_on,12,0,5,,,,,,,,,,4,,65,52
15540,note_on,12,0,1,,,,,,,,,,0,,77,52
15588,note_on,108,0,6,,,,,,,,,,5,,38,0
15600,note_on,12,0,6,,,,,,,,,,5,,38,50
15648,note_on,108,0,5,,,,,,,,,,4,,65,0
15648,note_on,108,0,4,,,,,,,,,,3,,81,0
15648,note_on,0,0,1,,,,,,,,,,0,,77,0
15648,note_on,108,0,1,,,,,,,,,,0,,81,0
15660,note_on,0,0,1,,,,,,,,,,0,,80,45
15660,note_on,12,0,1,,,,,,,,,,0,,76,45
15660,note_on,12,0,4,,,,,,,,,,3,,80,46
15660,note_on,12,0,5,,,,,,,,,,4,,64,45
15708,note_on,108,0,6,,,,,,,,,,5,,38,0
15720,note_on,12,0,6,,,,,,,,,,5,,38,48
15768,note_on,108,0,1,,,,,,,,,,0,,80,0
15768,note_on,0,0,1,,,,,,,,,,0,,76,0
15768,note_on,108,0,5,,,,,,,,,,4,,64,0
15768,note_on,108,0,4,,,,,,,,,,3,,80,0
15780,note_on,0,0,1,,,,,,,,,,0,,83,51
15780,note_on,12,0,4,,,,,,,,,,3,,83,51
15780,note_on,12,0,1,,,,,,,,,,0,,74,52
15780,note_on,12,0,5,,,,,,,,,,4,,62,47
15828,note_on,108,0,6,,,,,,,,,,5,,38,0
15834,note_on,0,0,1,,,,,,,,,,0,,74,0
15834,note_on,54,0,4,,,,,,,,,,3,,83,0
15834,note_on,54,0,1,,,,,,,,,,0,,83,0
15834,note_on,54,0,5,,,,,,,,,,4,,62,0
15840,note_on,6,0,5,,,,,,,,,,4,,61,94
15840,note_on,0,0,4,,,,,,,,,,3,,81,96
15840,note_on,6,0,4,,,,,,,,,,3,,69,94
15840,note_on,12,0,6,,,,,,,,,,5,,33,87
15840,note_on,0,0,1,,,,,,,,,,0,,81,92
15840,note_on,0,0,2,,,,,,,,,,1,,76,89
15840,note_on,1866,0,2,,,,,,,,,,1,,69,89
15840,note_on,906,0,3,,,,,,,,,,2,,69,89
15840,note_on,0,0,3,,,,,,,,,,2,,81,90
15840,note_on,6,0,1,,,,,,,,,,0,,73,93
15894,note_on,54,0,6,,,,,,,,,,5,,33,0
15894,note_on,54,0,5,,,,,,,,,,4,,61,0
15900,note_on,6,0,5,,,,,,,,,,4,,64,105
15900,note_on,6,0,6,,,,,,,,,,5,,40,109
15948,note_on,0,0,1,,,,,,,,,,0,,73,0
15948,note_on,108,0,1,,,,,,,,,,0,,81,0
15948,note_on,108,0,2,,,,,,,,,,1,,76,0
15948,note_on,0,0,3,,,,,,,,,,2,,69,0
15948,note_on,108,0,3,,,,,,,,,,2,,81,0
15948,note_on,0,0,2,,,,,,,,,,1,,69,0
15948,note_on,0,0,4,,,,,,,,,,3,,69,0
15948,note_on,108,0,4,,,,,,,,,,3,,81,0
15954,note_on,54,0,6,,,,,,,,,,5,,40,0
15954,note_on,54,0,5,,,,,,,,,,4,,64,0
15960,note_on,6,0,6,,,,,,,,,,5,,37,91
15960,note_on,6,0,5,,,,,,,,,,4,,61,90
16014,note_on,54,0,6,,,,,,,,,,5,,37,0
16014,note_on,54,0,5,,,,,,,,,,4,,61,0
16020,note_on,6,0,6,,,,,,,,,,5,,33,82
16020,note_on,6,0,5,,,,,,,,,,4,,57,85
16074,note_on,54,0,5,,,,,,,,,,4,,57,0
16074,note_on,54,0,6,,,,,,,,,,5,,33,0
16080,note_on,132,0,4,,,,,,,,,,3,,62,88
16080,note_on,6,0,5,,,,,,,,,,4,,57,98
16080,note_on,0,0,3,,,,,,,,,,2,,78,85
16080,note_on,0,0,3,,,,,,,,,,2,,69,84
16080,note_on,0,0,4,,,,,,,,,,3,,69,85
16080,note_on,132,0,3,,,,,,,,,,2,,62,86
16080,note_on,0,0,4,,,,,,,,,,3,,78,86
16080,note_on,6,0,6,,,,,,,,,,5,,33,96
16080,note_on,0,0,1,,,,,,,,,,0,,78,85
16080,note_on,132,0,1,,,,,,,,,,0,,74,84
16080,note_on,132,0,2,,,,,,,,,,1,,74,85
16080,note_on,0,0,2,,,,,,,,,,1,,78,86
16134,note_on,54,0,5,,,,,,,,,,4,,57,0
16134,note_on,54,0,6,,,,,,,,,,5,,33,0
16140,note_on,6,0,6,,,,,,,,,,5,,42,115
16140,note_on,6,0,5,,,,,,,,,,4,,66,118
16188,note_on,108,0,3,,,,,,,,,,2,,78,0
16188,note_on,108,0,2,,,,,,,,,,1,,78,0
16188,note_on,0,0,2,,,,,,,,,,1,,74,0
16188,note_on,0,0,3,,,,,,,,,,2,,62,0
16188,note_on,0,0,3,,,,,,,,,,2,,69,0
16188,note_on,0,0,4,,,,,,,,,,3,,69,0
16188,note_on,0,0,4,,,,,,,,,,3,,62,0
16188,note_on,108,0,4,,,,,,,,,,3,,78,0
16188,note_on,108,0,1,,,,,,,,,,0,,78,0
16188,note_on,0,0,1,,,,,,,,,,0,,74,0
16194,note_on,54,0,6,,,,,,,,,,5,,42,0
16194,note_on,54,0,5,,,,,,,,,,4,,66,0
16200,note_on,6,0,6,,,,,,,,,,5,,38,92
16200,note_on,6,0,5,,,,,,,,,,4,,62,91
16254,note_on,54,0,6,,,,,,,,,,5,,38,0
16254,note_on,54,0,5,,,,,,,,,,4,,62,0
16260,note_on,6,0,6,,,,,,,,,,5,,33,81
16260,note_on,6,0,5,,,,,,,,,,4,,57,83
16314,note_on,54,0,5,,,,,,,,,,4,,57,0
16314,note_on,54,0,6,,,,,,,,,,5,,33,0
16320,note_on,132,0,4,,,,,,,,,,3,,69,87
16320,note_on,0,0,4,,,,,,,,,,3,,76,88
16320,note_on,132,0,2,,,,,,,,,,1,,69,90
16320,note_on,132,0,1,,,,,,,,,,0,,73,87
16320,note_on,0,0,1,,,,,,,,,,0,,76,88
16320,note_on,0,0,2,,,,,,,,,,1,,76,90
16320,note_on,132,0,3,,,,,,,,,,2,,69,89
16320,note_on,6,0,6,,,,,,,,,,5,,33,97
16320,note_on,6,0,5,,,,,,,,,,4,,57,97
16320,note_on,0,0,3,,,,,,,,,,2,,76,90
16374,note_on,54,0,5,,,,,,,,,,4,,57,0
16374,note_on,54,0,6,,,,,,,,,,5,,33,0
16380,note_on,6,0,6,,,,,,,,,,5,,33,95
16380,note_on,6,0,5,,,,,,,,,,4,,61,105
16428,note_on,0,0,2,,,,,,,,,,1,,69,0
16428,note_on,108,0,2,,,,,,,,,,1,,76,0
16428,note_on,108,0,3,,,,,,,,,,2,,76,0
16428,note_on,0,0,1,,,,,,,,,,0,,73,0
16428,note_on,108,0,1,,,,,,,,,,0,,76,0
16428,note_on,0,0,3,,,,,,,,,,2,,69,0
16428,note_on,108,0,4,,,,,,,,,,3,,76,0
16428,note_on,0,0,4,,,,,,,,,,3,,69,0
16434,note_on,54,0,5,,,,,,,,,,4,,61,0
16434,note_on,54,0,6,,,,,,,,,,5,,33,0
16440,note_on,12,0,4,,,,,,,,,,3,,81,109
16440,note_on,6,0,6,,,,,,,,,,5,,37,109
16440,note_on,12,0,2,,,,,,,,,,1,,76,106
16440,note_on,0,0,2,,,,,,,,,,1,,81,106
16440,note_on,6,0,5,,,,,,,,,,4,,64,109
16440,note_on,12,0,3,,,,,,,,,,2,,81,112
16453,note_on,13,0,3,,,,,,,,,,2,,81,0
16453,note_on,13,0,4,,,,,,,,,,3,,81,0
16455,note_on,2,0,3,,,,,,,,,,2,,83,105
16455,note_on,2,0,4,,,,,,,,,,3,,83,104
16468,note_on,13,0,3,,,,,,,,,,2,,83,0
16468,note_on,13,0,4,,,,,,,,,,3,,83,0
16470,note_on,2,0,4,,,,,,,,,,3,,81,91
16470,note_on,2,0,3,,,,,,,,,,2,,81,90
16483,note_on,13,0,3,,,,,,,,,,2,,81,0
16483,note_on,13,0,4,,,,,,,,,,3,,81,0
16485,note_on,2,0,3,,,,,,,,,,2,,83,103
16485,note_on,2,0,4,,,,,,,,,,3,,83,99
16494,note_on,54,0,5,,,,,,,,,,4,,64,0
16494,note_on,54,0,6,,,,,,,,,,5,,37,0
16498,note_on,13,0,3,,,,,,,,,,2,,83,0
16498,note_on,13,0,4,,,,,,,,,,3,,83,0
16500,note_on,6,0,5,,,,,,,,,,4,,64,95
16500,note_on,6,0,6,,,,,,,,,,5,,37,97
16500,note_on,2,0,4,,,,,,,,,,3,,81,88
16500,note_on,2,0,3,,,,,,,,,,2,,81,89
16513,note_on,13,0,4,,,,,,,,,,3,,81,0
16513,note_on,13,0,3,,,,,,,,,,2,,81,0
16515,note_on,2,0,3,,,,,,,,,,2,,83,102
16515,note_on,2,0,4,,,,,,,,,,3,,83,100
16528,note_on,13,0,4,,,,,,,,,,3,,83,0
16528,note_on,13,0,3,,,,,,,,,,2,,83,0
16530,note_on,2,0,4,,,,,,,,,,3,,80,88
16530,note_on,2,0,3,,,,,,,,,,2,,80,89
16543,note_on,13,0,3,,,,,,,,,,2,,80,0
16543,note_on,13,0,4,,,,,,,,,,3,,80,0
16545,note_on,2,0,3,,,,,,,,,,2,,81,100
16545,note_on,2,0,4,,,,,,,,,,3,,81,100
16554,note_on,54,0,5,,,,,,,,,,4,,64,0
16554,note_on,54,0,6,,,,,,,,,,5,,37,0
16558,note_on,13,0,3,,,,,,,,,,2,,81,0
16558,note_on,13,0,4,,,,,,,,,,3,,81,0
16560,note_on,6,0,5,,,,,,,,,,4,,62,92
16560,note_on,6,0,6,,,,,,,,,,5,,35,94
16560,note_on,2,0,4,,,,,,,,,,3,,83,101
16560,note_on,2,0,3,,,,,,,,,,2,,83,102
16614,note_on,54,0,6,,,,,,,,,,5,,35,0
16614,note_on,54,0,5,,,,,,,,,,4,,62,0
16620,note_on,6,0,6,,,,,,,,,,5,,35,96
16620,note_on,6,0,5,,,,,,,,,,4,,62,95
16656,note_on,216,0,2,,,,,,,,,,1,,81,0
16656,note_on,0,0,2,,,,,,,,,,1,,76,0
16668,note_on,108,0,4,,,,,,,,,,3,,83,0
16668,note_on,108,0,3,,,,,,,,,,2,,83,0
16674,note_on,54,0,6,,,,,,,,,,5,,35,0
16674,note_on,54,0,5,,,,,,,,,,4,,62,0
16680,note_on,12,0,4,,,,,,,,,,3,,64,73
16680,note_on,0,0,2,,,,,,,,,,1,,80,94
16680,note_on,0,0,4,,,,,,,,,,3,,74,76
16680,note_on,6,0,5,,,,,,,,,,4,,68,115
16680,note_on,12,0,3,,,,,,,,,,2,,64,76
16680,note_on,252,0,1,,,,,,,,,,0,,74,84
16680,note_on,0,0,3,,,,,,,,,,2,,74,77
16680,note_on,6,0,6,,,,,,,,,,5,,40,111
16680,note_on,24,0,2,,,,,,,,,,1,,76,94
16680,note_on,0,0,1,,,,,,,,,,0,,83,85
16734,note_on,54,0,6,,,,,,,,,,5,,40,0
16734,note_on,54,0,5,,,,,,,,,,4,,68,0
16740,note_on,6,0,5,,,,,,,,,,4,,68,100
16740,note_on,6,0,6,,,,,,,,,,5,,40,97
16788,note_on,108,0,1,,,,,,,,,,0,,83,0
16788,note_on,0,0,4,,,,,,,,,,3,,64,0
16788,note_on,0,0,2,,,,,,,,,,1,,76,0
16788,note_on,108,0,2,,,,,,,,,,1,,80,0
16788,note_on,108,0,3,,,,,,,,,,2,,74,0
16788,note_on,0,0,3,,,,,,,,,,2,,64,0
16788,note_on,0,0,1,,,,,,,,,,0,,74,0
16788,note_on,108,0,4,,,,,,,,,,3,,74,0
16794,note_on,54,0,5,,,,,,,,,,4,,68,0
16794,note_on,54,0,6,,,,,,,,,,5,,40,0
16800,note_on,0,0,4,,,,,,,,,,3,,81,113
16800,note_on,0,0,1,,,,,,,,,,0,,81,91
16800,note_on,12,0,1,,,,,,,,,,0,,73,92
16800,note_on,12,0,3,,,,,,,,,,2,,64,113
16800,note_on,6,0,6,,,,,,,,,,5,,33,83
16800,note_on,0,0,3,,,,,,,,,,2,,81,110
16800,note_on,0,0,4,,,,,,,,,,3,,73,111
16800,note_on,12,0,4,,,,,,,,,,3,,64,112
16800,note_on,0,0,3,,,,,,,,,,2,,73,112
16800,note_on,6,0,5,,,,,,,,,,4,,69,102
16800,note_on,0,0,2,,,,,,,,,,1,,81,102
16800,note_on,12,0,2,,,,,,,,,,1,,69,102
16854,note_on,54,0,6,,,,,,,,,,5,,33,0
16854,note_on,54,0,5,,,,,,,,,,4,,69,0
16860,note_on,6,0,6,,,,,,,,,,5,,40,111
16860,note_on,6,0,5,,,,,,,,,,4,,64,82
16908,note_on,0,0,1,,,,,,,,,,0,,73,0
16908,note_on,0,0,4,,,,,,,,,,3,,73,0
16908,note_on,0,0,4,,,,,,,,,,3,,64,0
16908,note_on,0,0,2,,,,,,,,,,1,,69,0
16908,note_on,108,0,2,,,,,,,,,,1,,81,0
16908,note_on,108,0,1,,,,,,,,,,0,,81,0
16908,note_on,108,0,4,,,,,,,,,,3,,81,0
16908,note_on,0,0,3,,,,,,,,,,2,,64,0
16908,note_on,0,0,3,,,,,,,,,,2,,73,0
16908,note_on,108,0,3,,,,,,,,,,2,,81,0
16914,note_on,54,0,5,,,,,,,,,,4,,64,0
16914,note_on,54,0,6,,,,,,,,,,5,,40,0
16920,note_on,6,0,6,,,,,,,,,,5,,37,94
16920,note_on,6,0,5,,,,,,,,,,4,,61,90
16974,note_on,54,0,5,,,,,,,,,,4,,61,0
16974,note_on,54,0,6,,,,,,,,,,5,,37,0
16980,note_on,6,0,5,,,,,,,,,,4,,57,85
16980,note_on,6,0,6,,,,,,,,,,5,,33,84
17034,note_on,54,0,5,,,,,,,,,,4,,57,0
17034,note_on,54,0,6,,,,,,,,,,5,,33,0
17040,note_on,0,0,3,,,,,,,,,,2,,69,88
17040,note_on,0,0,1,,,,,,,,,,0,,78,85
17040,note_on,132,0,1,,,,,,,,,,0,,74,87
17040,note_on,132,0,3,,,,,,,,,,2,,62,87
17040,note_on,6,0,5,,,,,,,,,,4,,57,97
17040,note_on,0,0,2,,,,,,,,,,1,,78,85
17040,note_on,132,0,4,,,,,,,,,,3,,62,85
17040,note_on,0,0,4,,,,,,,,,,3,,69,85
17040,note_on,0,0,4,,,,,,,,,,3,,78,88
17040,note_on,132,0,2,,,,,,,,,,1,,74,86
17040,note_on,0,0,3,,,,,,,,,,2,,78,85
17040,note_on,6,0,6,,,,,,,,,,5,,33,98
17094,note_on,54,0,5,,,,,,,,,,4,,57,0
17094,note_on,54,0,6,,,,,,,,,,5,,33,0
17100,note_on,6,0,6,,,,,,,,,,5,,42,116
17100,note_on,6,0,5,,,,,,,,,,4,,66,118
17148,note_on,108,0,2,,,,,,,,,,1,,78,0
17148,note_on,0,0,2,,,,,,,,,,1,,74,0
17148,note_on,0,0,3,,,,,,,,,,2,,62,0
17148,note_on,0,0,1,,,,,,,,,,0,,74,0
17148,note_on,0,0,4,,,,,,,,,,3,,69,0
17148,note_on,108,0,4,,,,,,,,,,3,,78,0
17148,note_on,0,0,3,,,,,,,,,,2,,69,0
17148,note_on,108,0,3,,,,,,,,,,2,,78,0
17148,note_on,0,0,4,,,,,,,,,,3,,62,0
17148,note_on,108,0,1,,,,,,,,,,0,,78,0
17154,note_on,54,0,5,,,,,,,,,,4,,66,0
17154,note_on,54,0,6,,,,,,,,,,5,,42,0
17160,note_on,6,0,5,,,,,,,,,,4,,62,94
17160,note_on,6,0,6,,,,,,,,,,5,,38,94
17214,note_on,54,0,5,,,,,,,,,,4,,62,0
17214,note_on,54,0,6,,,,,,,,,,5,,38,0
17220,note_on,6,0,6,,,,,,,,,,5,,33,83
17220,note_on,6,0,5,,,,,,,,,,4,,57,81
17274,note_on,54,0,5,,,,,,,,,,4,,57,0
17274,note_on,54,0,6,,,,,,,,,,5,,33,0
17280,note_on,132,0,3,,,,,,,,,,2,,69,89
17280,note_on,0,0,3,,,,,,,,,,2,,76,89
17280,note_on,6,0,5,,,,,,,,,,4,,57,95
17280,note_on,6,0,6,,,,,,,,,,5,,33,95
17280,note_on,0,0,2,,,,,,,,,,1,,76,89
17280,note_on,132,0,4,,,,,,,,,,3,,69,90
17280,note_on,0,0,4,,,,,,,,,,3,,76,90
17280,note_on,132,0,1,,,,,,,,,,0,,73,88
17280,note_on,0,0,1,,,,,,,,,,0,,76,89
17280,note_on,132,0,2,,,,,,,,,,1,,69,90
17334,note_on,54,0,5,,,,,,,,,,4,,57,0
17334,note_on,54,0,6,,,,,,,,,,5,,33,0
17340,note_on,6,0,5,,,,,,,,,,4,,61,104
17340,note_on,6,0,6,,,,,,,,,,5,,33,96
17388,note_on,0,0,4,,,,,,,,,,3,,69,0
17388,note_on,108,0,3,,,,,,,,,,2,,76,0
17388,note_on,0,0,3,,,,,,,,,,2,,69,0
17388,note_on,108,0,4,,,,,,,,,,3,,76,0
17388,note_on,108,0,1,,,,,,,,,,0,,76,0
17388,note_on,0,0,1,,,,,,,,,,0,,73,0
17388,note_on,0,0,2,,,,,,,,,,1,,69,0
17388,note_on,108,0,2,,,,,,,,,,1,,76,0
17394,note_on,54,0,6,,,,,,,,,,5,,33,0
17394,note_on,54,0,5,,,,,,,,,,4,,61,0
17400,note_on,0,0,2,,,,,,,,,,1,,81,107
17400,note_on,12,0,2,,,,,,,,,,1,,76,106
17400,note_on,12,0,3,,,,,,,,,,2,,81,111
17400,note_on,12,0,4,,,,,,,,,,3,,81,109
17400,note_on,6,0,6,,,,,,,,,,5,,37,109
17400,note_on,6,0,5,,,,,,,,,,4,,64,107
17413,note_on,13,0,3,,,,,,,,,,2,,81,0
17413,note_on,13,0,4,,,,,,,,,,3,,81,0
17415,note_on,2,0,4,,,,,,,,,,3,,83,102
17415,note_on,2,0,3,,,,,,,,,,2,,83,104
17428,note_on,13,0,4,,,,,,,,,,3,,83,0
17428,note_on,13,0,3,,,,,,,,,,2,,83,0
17430,note_on,2,0,3,,,,,,,,,,2,,81,89
17430,note_on,2,0,4,,,,,,,,,,3,,81,90
17443,note_on,13,0,4,,,,,,,,,,3,,81,0
17443,note_on,13,0,3,,,,,,,,,,2,,81,0
17445,note_on,2,0,4,,,,,,,,,,3,,83,100
17445,note_on,2,0,3,,,,,,,,,,2,,83,102
17454,note_on,54,0,5,,,,,,,,,,4,,64,0
17454,note_on,54,0,6,,,,,,,,,,5,,37,0
17458,note_on,13,0,4,,,,,,,,,,3,,83,0
17458,note_on,13,0,3,,,,,,,,,,2,,83,0
17460,note_on,2,0,3,,,,,,,,,,2,,81,88
17460,note_on,6,0,6,,,,,,,,,,5,,37,99
17460,note_on,2,0,4,,,,,,,,,,3,,81,91
17460,note_on,6,0,5,,,,,,,,,,4,,64,98
17473,note_on,13,0,3,,,,,,,,,,2,,81,0
17473,note_on,13,0,4,,,,,,,,,,3,,81,0
17475,note_on,2,0,3,,,,,,,,,,2,,83,102
17475,note_on,2,0,4,,,,,,,,,,3,,83,100
17488,note_on,13,0,3,,,,,,,,,,2,,83,0
17488,note_on,13,0,4,,,,,,,,,,3,,83,0
17490,note_on,2,0,3,,,,,,,,,,2,,80,89
17490,note_on,2,0,4,,,,,,,,,,3,,80,90
17503,note_on,13,0,3,,,,,,,,,,2,,80,0
17503,note_on,13,0,4,,,,,,,,,,3,,80,0
17505,note_on,2,0,3,,,,,,,,,,2,,81,98
17505,note_on,2,0,4,,,,,,,,,,3,,81,98
17514,note_on,54,0,5,,,,,,,,,,4,,64,0
17514,note_on,54,0,6,,,,,,,,,,5,,37,0
17518,note_on,13,0,4,,,,,,,,,,3,,81,0
17518,note_on,13,0,3,,,,,,,,,,2,,81,0
17520,note_on,2,0,3,,,,,,,,,,2,,83,101
17520,note_on,6,0,5,,,,,,,,,,4,,62,92
17520,note_on,2,0,4,,,,,,,,,,3,,83,103
17520,note_on,6,0,6,,,,,,,,,,5,,35,92
17574,note_on,54,0,6,,,,,,,,,,5,,35,0
17574,note_on,54,0,5,,,,,,,,,,4,,62,0
17580,note_on,6,0,6,,,,,,,,,,5,,35,96
17580,note_on,6,0,5,,,,,,,,,,4,,74,120
17616,note_on,0,0,2,,,,,,,,,,1,,76,0
17616,note_on,216,0,2,,,,,,,,,,1,,81,0
17628,note_on,108,0,4,,,,,,,,,,3,,83,0
17628,note_on,108,0,3,,,,,,,,,,2,,83,0
17634,note_on,54,0,5,,,,,,,,,,4,,74,0
17634,note_on,54,0,6,,,,,,,,,,5,,35,0
17640,note_on,0,0,1,,,,,,,,,,0,,83,84
17640,note_on,252,0,1,,,,,,,,,,0,,74,85
17640,note_on,6,0,6,,,,,,,,,,5,,40,109
17640,note_on,24,0,2,,,,,,,,,,1,,76,94
17640,note_on,0,0,2,,,,,,,,,,1,,80,93
17640,note_on,6,0,5,,,,,,,,,,4,,68,89
17640,note_on,12,0,4,,,,,,,,,,3,,71,70
17640,note_on,12,0,3,,,,,,,,,,2,,71,68
17694,note_on,54,0,5,,,,,,,,,,4,,68,0
17694,note_on,54,0,6,,,,,,,,,,5,,40,0
17700,note_on,6,0,5,,,,,,,,,,4,,68,94
17700,note_on,6,0,6,,,,,,,,,,5,,40,97
17748,note_on,108,0,1,,,,,,,,,,0,,83,0
17748,note_on,108,0,4,,,,,,,,,,3,,71,0
17748,note_on,108,0,3,,,,,,,,,,2,,71,0
17748,note_on,0,0,2,,,,,,,,,,1,,76,0
17748,note_on,108,0,2,,,,,,,,,,1,,80,0
17748,note_on,0,0,1,,,,,,,,,,0,,74,0
17754,note_on,54,0,6,,,,,,,,,,5,,40,0
17754,note_on,54,0,5,,,,,,,,,,4,,68,0
17760,note_on,0,0,2,,,,,,,,,,1,,81,69
17760,note_on,12,0,4,,,,,,,,,,3,,57,101
17760,note_on,0,0,4,,,,,,,,,,3,,64,101
17760,note_on,12,0,2,,,,,,,,,,1,,69,69
17760,note_on,0,0,4,,,,,,,,,,3,,73,100
17760,note_on,6,0,5,,,,,,,,,,4,,69,105
17760,note_on,6,0,6,,,,,,,,,,5,,33,80
17760,note_on,12,0,1,,,,,,,,,,0,,81,92
17760,note_on,12,0,3,,,,,,,,,,2,,73,100
17814,note_on,54,0,3,,,,,,,,,,2,,73,0
17814,note_on,54,0,1,,,,,,,,,,0,,81,0
17820,note_on,6,0,3,,,,,,,,,,2,,69,44
17820,note_on,6,0,1,,,,,,,,,,0,,69,35
17868,note_on,108,0,4,,,,,,,,,,3,,73,0
17868,note_on,108,0,5,,,,,,,,,,4,,69,0
17868,note_on,108,0,6,,,,,,,,,,5,,33,0
17868,note_on,0,0,4,,,,,,,,,,3,,64,0
17868,note_on,0,0,4,,,,,,,,,,3,,57,0
17868,note_on,0,0,2,,,,,,,,,,1,,69,0
17868,note_on,108,0,2,,,,,,,,,,1,,81,0
17874,note_on,54,0,1,,,,,,,,,,0,,69,0
17874,note_on,54,0,3,,,,,,,,,,2,,69,0
17880,note_on,12,0,4,,,,,,,,,,3,,69,41
17880,note_on,0,0,1,,,,,,,,,,0,,69,44
17880,note_on,6,0,1,,,,,,,,,,0,,68,48
17880,note_on,12,0,6,,,,,,,,,,5,,42,59
17880,note_on,12,0,5,,,,,,,,,,4,,66,43
17880,note_on,6,0,3,,,,,,,,,,2,,68,49
17907,note_on,27,0,1,,,,,,,,,,0,,68,0
17907,note_on,27,0,3,,,,,,,,,,2,,68,0
17910,note_on,3,0,3,,,,,,,,,,2,,69,51
17910,note_on,3,0,1,,,,,,,,,,0,,69,51
17937,note_on,27,0,3,,,,,,,,,,2,,69,0
17937,note_on,27,0,1,,,,,,,,,,0,,69,0
17940,note_on,3,0,3,,,,,,,,,,2,,71,51
17940,note_on,3,0,1,,,,,,,,,,0,,71,50
17967,note_on,27,0,3,,,,,,,,,,2,,71,0
17967,note_on,27,0,1,,,,,,,,,,0,,71,0
17970,note_on,3,0,1,,,,,,,,,,0,,73,52
17970,note_on,3,0,3,,,,,,,,,,2,,73,50
17988,note_on,108,0,5,,,,,,,,,,4,,66,0
17988,note_on,108,0,6,,,,,,,,,,5,,42,0
17997,note_on,27,0,1,,,,,,,,,,0,,73,0
17997,note_on,27,0,3,,,,,,,,,,2,,73,0
18000,note_on,3,0,1,,,,,,,,,,0,,74,55
18000,note_on,12,0,6,,,,,,,,,,5,,38,44
18000,note_on,12,0,5,,,,,,,,,,4,,62,42
18000,note_on,3,0,3,,,,,,,,,,2,,74,51
18054,note_on,54,0,1,,,,,,,,,,0,,74,0
18054,note_on,54,0,3,,,,,,,,,,2,,74,0
18060,note_on,6,0,1,,,,,,,,,,0,,71,44
18060,note_on,6,0,3,,,,,,,,,,2,,71,43
18096,note_on,36,0,1,,,,,,,,,,0,,69,0
18096,note_on,216,0,4,,,,,,,,,,3,,69,0
18108,note_on,108,0,5,,,,,,,,,,4,,62,0
18108,note_on,108,0,6,,,,,,,,,,5,,38,0
18114,note_on,18,0,1,,,,,,,,,,0,,71,0
18114,note_on,54,0,3,,,,,,,,,,2,,71,0
18120,note_on,12,0,6,,,,,,,,,,5,,40,54
18120,note_on,6,0,1,,,,,,,,,,0,,70,48
18120,note_on,6,0,3,,,,,,,,,,2,,70,50
18120,note_on,24,0,4,,,,,,,,,,3,,68,46
18120,note_on,0,0,1,,,,,,,,,,0,,68,44
18120,note_on,12,0,5,,,,,,,,,,4,,64,55
18147,note_on,27,0,1,,,,,,,,,,0,,70,0
18147,note_on,27,0,3,,,,,,,,,,2,,70,0
18150,note_on,3,0,1,,,,,,,,,,0,,71,50
18150,note_on,3,0,3,,,,,,,,,,2,,71,48
18174,note_on,54,0,5,,,,,,,,,,4,,64,0
18174,note_on,54,0,6,,,,,,,,,,5,,40,0
18177,note_on,27,0,3,,,,,,,,,,2,,71,0
18177,note_on,27,0,1,,,,,,,,,,0,,71,0
18180,note_on,3,0,3,,,,,,,,,,2,,73,52
18180,note_on,6,0,5,,,,,,,,,,4,,62,45
18180,note_on,6,0,6,,,,,,,,,,5,,38,43
18180,note_on,3,0,1,,,,,,,,,,0,,73,49
18207,note_on,27,0,3,,,,,,,,,,2,,73,0
18207,note_on,27,0,1,,,,,,,,,,0,,73,0
18210,note_on,3,0,1,,,,,,,,,,0,,74,51
18210,note_on,3,0,3,,,,,,,,,,2,,74,48
18228,note_on,18,0,1,,,,,,,,,,0,,68,0
18228,note_on,108,0,4,,,,,,,,,,3,,68,0
18234,note_on,54,0,6,,,,,,,,,,5,,38,0
18234,note_on,54,0,5,,,,,,,,,,4,,62,0
18237,note_on,27,0,3,,,,,,,,,,2,,74,0
18237,note_on,9,0,1,,,,,,,,,,0,,74,0
18240,note_on,0,0,1,,,,,,,,,,0,,69,100
18240,note_on,3,0,1,,,,,,,,,,0,,76,105
18240,note_on,3,0,3,,,,,,,,,,2,,76,104
18240,note_on,12,0,4,,,,,,,,,,3,,69,102
18240,note_on,0,0,2,,,,,,,,,,1,,81,91
18240,note_on,6,0,6,,,,,,,,,,5,,37,94
18240,note_on,372,0,2,,,,,,,,,,1,,69,89
18240,note_on,6,0,5,,,,,,,,,,4,,61,92
18294,note_on,54,0,1,,,,,,,,,,0,,76,0
18294,note_on,54,0,4,,,,,,,,,,3,,69,0
18294,note_on,54,0,5,,,,,,,,,,4,,61,0
18294,note_on,54,0,6,,,,,,,,,,5,,37,0
18294,note_on,54,0,3,,,,,,,,,,2,,76,0
18300,note_on,6,0,5,,,,,,,,,,4,,69,114
18300,note_on,6,0,4,,,,,,,,,,3,,76,114
18300,note_on,6,0,3,,,,,,,,,,2,,76,97
18300,note_on,6,0,6,,,,,,,,,,5,,37,96
18300,note_on,6,0,1,,,,,,,,,,0,,76,95
18348,note_on,48,0,1,,,,,,,,,,0,,69,0
18354,note_on,54,0,4,,,,,,,,,,3,,76,0
18354,note_on,54,0,5,,,,,,,,,,4,,69,0
18354,note_on,54,0,6,,,,,,,,,,5,,37,0
18354,note_on,6,0,1,,,,,,,,,,0,,76,0
18354,note_on,54,0,3,,,,,,,,,,2,,76,0
18360,note_on,6,0,1,,,,,,,,,,0,,76,101
18360,note_on,0,0,1,,,,,,,,,,0,,69,95
18360,note_on,6,0,3,,,,,,,,,,2,,76,98
18360,note_on,6,0,5,,,,,,,,,,4,,69,100
18360,note_on,6,0,4,,,,,,,,,,3,,76,102
18360,note_on,6,0,6,,,,,,,,,,5,,37,100
18373,note_on,13,0,3,,,,,,,,,,2,,76,0
18373,note_on,13,0,4,,,,,,,,,,3,,76,0
18373,note_on,13,0,1,,,,,,,,,,0,,76,0
18375,note_on,2,0,4,,,,,,,,,,3,,78,100
18375,note_on,2,0,1,,,,,,,,,,0,,78,100
18375,note_on,2,0,3,,,,,,,,,,2,,78,102
18388,note_on,13,0,3,,,,,,,,,,2,,78,0
18388,note_on,13,0,4,,,,,,,,,,3,,78,0
18388,note_on,13,0,1,,,,,,,,,,0,,78,0
18390,note_on,2,0,1,,,,,,,,,,0,,76,91
18390,note_on,2,0,3,,,,,,,,,,2,,76,91
18390,note_on,2,0,4,,,,,,,,,,3,,76,91
18403,note_on,13,0,3,,,,,,,,,,2,,76,0
18403,note_on,13,0,4,,,,,,,,,,3,,76,0
18403,note_on,13,0,1,,,,,,,,,,0,,76,0
18405,note_on,2,0,3,,,,,,,,,,2,,78,103
18405,note_on,2,0,1,,,,,,,,,,0,,78,99
18405,note_on,2,0,4,,,,,,,,,,3,,78,101
18414,note_on,54,0,5,,,,,,,,,,4,,69,0
18414,note_on,54,0,6,,,,,,,,,,5,,37,0
18418,note_on,13,0,4,,,,,,,,,,3,,78,0
18418,note_on,13,0,1,,,,,,,,,,0,,78,0
18418,note_on,13,0,3,,,,,,,,,,2,,78,0
18420,note_on,2,0,3,,,,,,,,,,2,,76,88
18420,note_on,2,0,4,,,,,,,,,,3,,76,88
18420,note_on,6,0,5,,,,,,,,,,4,,69,95
18420,note_on,2,0,1,,,,,,,,,,0,,76,89
18420,note_on,6,0,6,,,,,,,,,,5,,37,97
18433,note_on,13,0,1,,,,,,,,,,0,,76,0
18433,note_on,13,0,4,,,,,,,,,,3,,76,0
18433,note_on,13,0,3,,,,,,,,,,2,,76,0
18435,note_on,2,0,1,,,,,,,,,,0,,78,102
18435,note_on,2,0,3,,,,,,,,,,2,,78,101
18435,note_on,2,0,4,,,,,,,,,,3,,78,103
18448,note_on,13,0,4,,,,,,,,,,3,,78,0
18448,note_on,13,0,1,,,,,,,,,,0,,78,0
18448,note_on,13,0,3,,,,,,,,,,2,,78,0
18450,note_on,2,0,4,,,,,,,,,,3,,74,87
18450,note_on,2,0,1,,,,,,,,,,0,,74,87
18450,note_on,2,0,3,,,,,,,,,,2,,74,86
18463,note_on,13,0,3,,,,,,,,,,2,,74,0
18463,note_on,13,0,1,,,,,,,,,,0,,74,0
18463,note_on,13,0,4,,,,,,,,,,3,,74,0
18465,note_on,2,0,3,,,,,,,,,,2,,76,101
18465,note_on,2,0,4,,,,,,,,,,3,,76,102
18465,note_on,2,0,1,,,,,,,,,,0,,76,100
18474,note_on,54,0,5,,,,,,,,,,4,,69,0
18474,note_on,54,0,6,,,,,,,,,,5,,37,0
18478,note_on,13,0,3,,,,,,,,,,2,,76,0
18478,note_on,13,0,4,,,,,,,,,,3,,76,0
18478,note_on,13,0,1,,,,,,,,,,0,,76,0
18480,note_on,2,0,3,,,,,,,,,,2,,78,106
18480,note_on,6,0,5,,,,,,,,,,4,,69,101
18480,note_on,2,0,4,,,,,,,,,,3,,78,105
18480,note_on,6,0,6,,,,,,,,,,5,,38,101
18480,note_on,2,0,1,,,,,,,,,,0,,78,104
18522,note_on,42,0,1,,,,,,,,,,0,,69,0
18534,note_on,54,0,5,,,,,,,,,,4,,69,0
18534,note_on,54,0,4,,,,,,,,,,3,,78,0
18534,note_on,54,0,6,,,,,,,,,,5,,38,0
18534,note_on,54,0,3,,,,,,,,,,2,,78,0
18534,note_on,12,0,1,,,,,,,,,,0,,78,0
18540,note_on,6,0,1,,,,,,,,,,0,,74,88
18540,note_on,6,0,3,,,,,,,,,,2,,74,85
18540,note_on,6,0,5,,,,,,,,,,4,,66,86
18540,note_on,0,0,1,,,,,,,,,,0,,74,108
18540,note_on,6,0,4,,,,,,,,,,3,,74,85
18540,note_on,6,0,6,,,,,,,,,,5,,38,95
18594,note_on,54,0,4,,,,,,,,,,3,,74,0
18594,note_on,54,0,3,,,,,,,,,,2,,74,0
18594,note_on,0,0,1,,,,,,,,,,0,,74,0
18594,note_on,54,0,1,,,,,,,,,,0,,74,0
18594,note_on,54,0,5,,,,,,,,,,4,,66,0
18594,note_on,54,0,6,,,,,,,,,,5,,38,0
18600,note_on,6,0,5,,,,,,,,,,4,,66,95
18600,note_on,6,0,6,,,,,,,,,,5,,38,99
18600,note_on,6,0,1,,,,,,,,,,0,,71,91
18600,note_on,0,0,1,,,,,,,,,,0,,71,93
18600,note_on,6,0,3,,,,,,,,,,2,,71,91
18600,note_on,6,0,4,,,,,,,,,,3,,71,88
18654,note_on,54,0,1,,,,,,,,,,0,,71,0
18654,note_on,54,0,6,,,,,,,,,,5,,38,0
18654,note_on,54,0,4,,,,,,,,,,3,,71,0
18654,note_on,54,0,3,,,,,,,,,,2,,71,0
18654,note_on,0,0,1,,,,,,,,,,0,,71,0
18654,note_on,54,0,5,,,,,,,,,,4,,66,0
18660,note_on,6,0,4,,,,,,,,,,3,,66,82
18660,note_on,6,0,1,,,,,,,,,,0,,66,79
18660,note_on,6,0,5,,,,,,,,,,4,,66,96
18660,note_on,6,0,3,,,,,,,,,,2,,66,83
18660,note_on,6,0,6,,,,,,,,,,5,,38,96
18660,note_on,0,0,1,,,,,,,,,,0,,66,81
18696,note_on,0,0,2,,,,,,,,,,1,,69,0
18696,note_on,456,0,2,,,,,,,,,,1,,81,0
18714,note_on,54,0,3,,,,,,,,,,2,,66,0
18714,note_on,54,0,5,,,,,,,,,,4,,66,0
18714,note_on,54,0,1,,,,,,,,,,0,,66,0
18714,note_on,0,0,1,,,,,,,,,,0,,66,0
18714,note_on,54,0,4,,,,,,,,,,3,,66,0
18714,note_on,54,0,6,,,,,,,,,,5,,38,0
18720,note_on,6,0,4,,,,,,,,,,3,,64,92
18720,note_on,0,0,2,,,,,,,,,,1,,81,97
18720,note_on,24,0,2,,,,,,,,,,1,,76,96
18720,note_on,6,0,1,,,,,,,,,,0,,64,89
18720,note_on,0,0,1,,,,,,,,,,0,,64,88
18720,note_on,6,0,3,,,,,,,,,,2,,64,90
18720,note_on,6,0,6,,,,,,,,,,5,,40,105
18720,note_on,6,0,5,,,,,,,,,,4,,64,94
18774,note_on,54,0,5,,,,,,,,,,4,,64,0
18774,note_on,54,0,6,,,,,,,,,,5,,40,0
18780,note_on,6,0,6,,,,,,,,,,5,,40,96
18780,note_on,6,0,5,,,,,,,,,,4,,64,95
18828,note_on,0,0,1,,,,,,,,,,0,,64,0
18828,note_on,108,0,1,,,,,,,,,,0,,64,0
18834,note_on,54,0,6,,,,,,,,,,5,,40,0
18834,note_on,54,0,5,,,,,,,,,,4,,64,0
18840,note_on,6,0,6,,,,,,,,,,5,,40,99
18840,note_on,12,0,1,,,,,,,,,,0,,76,121
18840,note_on,6,0,5,,,,,,,,,,4,,69,112
18840,note_on,0,0,1,,,,,,,,,,0,,69,105
18867,note_on,27,0,1,,,,,,,,,,0,,76,0
18870,note_on,3,0,1,,,,,,,,,,0,,73,93
18894,note_on,54,0,6,,,,,,,,,,5,,40,0
18894,note_on,54,0,5,,,,,,,,,,4,,69,0
18897,note_on,27,0,1,,,,,,,,,,0,,73,0
18900,note_on,6,0,6,,,,,,,,,,5,,40,95
18900,note_on,3,0,1,,,,,,,,,,0,,71,89
18900,note_on,6,0,5,,,,,,,,,,4,,69,99
18927,note_on,27,0,1,,,,,,,,,,0,,71,0
18930,note_on,3,0,1,,,,,,,,,,0,,69,88
18936,note_on,216,0,4,,,,,,,,,,3,,64,0
18936,note_on,216,0,3,,,,,,,,,,2,,64,0
18954,note_on,54,0,5,,,,,,,,,,4,,69,0
18954,note_on,54,0,6,,,,,,,,,,5,,40,0
18957,note_on,27,0,1,,,,,,,,,,0,,69,0
18960,note_on,6,0,5,,,,,,,,,,4,,69,99
18960,note_on,24,0,4,,,,,,,,,,3,,71,116
18960,note_on,24,0,3,,,,,,,,,,2,,71,112
18960,note_on,6,0,6,,,,,,,,,,5,,40,98
18960,note_on,3,0,1,,,,,,,,,,0,,71,106
18973,note_on,13,0,4,,,,,,,,,,3,,71,0
18973,note_on,13,0,3,,,,,,,,,,2,,71,0
18973,note_on,13,0,1,,,,,,,,,,0,,71,0
18975,note_on,2,0,1,,,,,,,,,,0,,73,104
18975,note_on,2,0,4,,,,,,,,,,3,,73,103
18975,note_on,2,0,3,,,,,,,,,,2,,73,104
18988,note_on,13,0,4,,,,,,,,,,3,,73,0
18988,note_on,13,0,3,,,,,,,,,,2,,73,0
18988,note_on,13,0,1,,,,,,,,,,0,,73,0
18990,note_on,2,0,1,,,,,,,,,,0,,71,91
18990,note_on,2,0,4,,,,,,,,,,3,,71,90
18990,note_on,2,0,3,,,,,,,,,,2,,71,91
19003,note_on,13,0,1,,,,,,,,,,0,,71,0
19003,note_on,13,0,4,,,,,,,,,,3,,71,0
19003,note_on,13,0,3,,,,,,,,,,2,,71,0
19005,note_on,2,0,3,,,,,,,,,,2,,73,102
19005,note_on,2,0,1,,,,,,,,,,0,,73,101
19005,note_on,2,0,4,,,,,,,,,,3,,73,102
19014,note_on,54,0,6,,,,,,,,,,5,,40,0
19014,note_on,54,0,5,,,,,,,,,,4,,69,0
19018,note_on,13,0,4,,,,,,,,,,3,,73,0
19018,note_on,13,0,3,,,,,,,,,,2,,73,0
19018,note_on,13,0,1,,,,,,,,,,0,,73,0
19020,note_on,2,0,1,,,,,,,,,,0,,71,91
19020,note_on,2,0,3,,,,,,,,,,2,,71,88
19020,note_on,6,0,5,,,,,,,,,,4,,69,96
19020,note_on,6,0,6,,,,,,,,,,5,,40,94
19020,note_on,2,0,4,,,,,,,,,,3,,71,89
19033,note_on,13,0,1,,,,,,,,,,0,,71,0
19033,note_on,13,0,4,,,,,,,,,,3,,71,0
19033,note_on,13,0,3,,,,,,,,,,2,,71,0
19035,note_on,2,0,1,,,,,,,,,,0,,73,101
19035,note_on,2,0,4,,,,,,,,,,3,,73,99
19035,note_on,2,0,3,,,,,,,,,,2,,73,102
19048,note_on,13,0,1,,,,,,,,,,0,,73,0
19048,note_on,13,0,3,,,,,,,,,,2,,73,0
19048,note_on,13,0,4,,,,,,,,,,3,,73,0
19050,note_on,2,0,1,,,,,,,,,,0,,71,89
19050,note_on,2,0,4,,,,,,,,,,3,,71,91
19050,note_on,2,0,3,,,,,,,,,,2,,71,89
19056,note_on,336,0,2,,,,,,,,,,1,,81,0
19056,note_on,6,0,1,,,,,,,,,,0,,69,0
19056,note_on,0,0,2,,,,,,,,,,1,,76,0
19063,note_on,13,0,4,,,,,,,,,,3,,71,0
19063,note_on,7,0,1,,,,,,,,,,0,,71,0
19063,note_on,13,0,3,,,,,,,,,,2,,71,0
19065,note_on,2,0,3,,,,,,,,,,2,,73,100
19065,note_on,2,0,1,,,,,,,,,,0,,73,101
19065,note_on,2,0,4,,,,,,,,,,3,,73,99
19074,note_on,54,0,5,,,,,,,,,,4,,69,0
19074,note_on,54,0,6,,,,,,,,,,5,,40,0
19078,note_on,13,0,3,,,,,,,,,,2,,73,0
19078,note_on,13,0,1,,,,,,,,,,0,,73,0
19078,note_on,13,0,4,,,,,,,,,,3,,73,0
19080,note_on,6,0,5,,,,,,,,,,4,,68,93
19080,note_on,6,0,6,,,,,,,,,,5,,40,98
19080,note_on,0,0,2,,,,,,,,,,1,,80,92
19080,note_on,24,0,2,,,,,,,,,,1,,76,92
19080,note_on,2,0,1,,,,,,,,,,0,,71,93
19080,note_on,2,0,3,,,,,,,,,,2,,71,93
19080,note_on,2,0,4,,,,,,,,,,3,,71,93
19080,note_on,0,0,1,,,,,,,,,,0,,68,93
19093,note_on,13,0,4,,,,,,,,,,3,,71,0
19093,note_on,13,0,1,,,,,,,,,,0,,71,0
19093,note_on,13,0,3,,,,,,,,,,2,,71,0
19095,note_on,2,0,4,,,,,,,,,,3,,73,100
19095,note_on,2,0,3,,,,,,,,,,2,,73,99
19095,note_on,2,0,1,,,,,,,,,,0,,73,101
19108,note_on,13,0,4,,,,,,,,,,3,,73,0
19108,note_on,13,0,3,,,,,,,,,,2,,73,0
19108,note_on,13,0,1,,,,,,,,,,0,,73,0
19110,note_on,2,0,1,,,,,,,,,,0,,71,89
19110,note_on,2,0,4,,,,,,,,,,3,,71,92
19110,note_on,2,0,3,,,,,,,,,,2,,71,90
19123,note_on,13,0,1,,,,,,,,,,0,,71,0
19123,note_on,13,0,4,,,,,,,,,,3,,71,0
19123,note_on,13,0,3,,,,,,,,,,2,,71,0
19125,note_on,2,0,4,,,,,,,,,,3,,73,103
19125,note_on,2,0,1,,,,,,,,,,0,,73,102
19125,note_on,2,0,3,,,,,,,,,,2,,73,100
19134,note_on,54,0,5,,,,,,,,,,4,,68,0
19134,note_on,54,0,6,,,,,,,,,,5,,40,0
19138,note_on,13,0,1,,,,,,,,,,0,,73,0
19138,note_on,13,0,4,,,,,,,,,,3,,73,0
19138,note_on,13,0,3,,,,,,,,,,2,,73,0
19140,note_on,2,0,3,,,,,,,,,,2,,69,86
19140,note_on,2,0,1,,,,,,,,,,0,,69,85
19140,note_on,6,0,5,,,,,,,,,,4,,68,96
19140,note_on,6,0,6,,,,,,,,,,5,,40,94
19140,note_on,2,0,4,,,,,,,,,,3,,69,88
19167,note_on,27,0,4,,,,,,,,,,3,,69,0
19167,note_on,27,0,3,,,,,,,,,,2,,69,0
19167,note_on,27,0,1,,,,,,,,,,0,,69,0
19170,note_on,3,0,4,,,,,,,,,,3,,71,100
19170,note_on,3,0,3,,,,,,,,,,2,,71,99
19170,note_on,3,0,1,,,,,,,,,,0,,71,99
19188,note_on,0,0,2,,,,,,,,,,1,,76,0
19188,note_on,108,0,2,,,,,,,,,,1,,80,0
19188,note_on,18,0,1,,,,,,,,,,0,,68,0
19194,note_on,54,0,5,,,,,,,,,,4,,68,0
19194,note_on,54,0,6,,,,,,,,,,5,,40,0
19197,note_on,27,0,4,,,,,,,,,,3,,71,0
19197,note_on,27,0,3,,,,,,,,,,2,,71,0
19197,note_on,9,0,1,,,,,,,,,,0,,71,0
19200,note_on,3,0,4,,,,,,,,,,3,,69,92
19200,note_on,12,0,2,,,,,,,,,,1,,69,67
19200,note_on,6,0,5,,,,,,,,,,4,,69,104
19200,note_on,3,0,1,,,,,,,,,,0,,73,107
19200,note_on,6,0,6,,,,,,,,,,5,,33,83
19200,note_on,0,0,1,,,,,,,,,,0,,69,101
19200,note_on,0,0,2,,,,,,,,,,1,,81,70
19200,note_on,3,0,3,,,,,,,,,,2,,73,104
19254,note_on,54,0,3,,,,,,,,,,2,,73,0
19254,note_on,54,0,1,,,,,,,,,,0,,73,0
19260,note_on,6,0,3,,,,,,,,,,2,,69,44
19260,note_on,6,0,1,,,,,,,,,,0,,69,43
19308,note_on,108,0,2,,,,,,,,,,1,,81,0
19308,note_on,108,0,6,,,,,,,,,,5,,33,0
19308,note_on,108,0,4,,,,,,,,,,3,,69,0
19308,note_on,108,0,5,,,,,,,,,,4,,69,0
19308,note_on,0,0,2,,,,,,,,,,1,,69,0
19308,note_on,48,0,1,,,,,,,,,,0,,69,0
19314,note_on,6,0,1,,,,,,,,,,0,,69,0
19314,note_on,54,0,3,,,,,,,,,,2,,69,0
19320,note_on,6,0,1,,,,,,,,,,0,,68,46
19320,note_on,6,0,3,,,,,,,,,,2,,68,48
19320,note_on,12,0,6,,,,,,,,,,5,,42,56
19320,note_on,12,0,4,,,,,,,,,,3,,69,46
19320,note_on,12,0,5,,,,,,,,,,4,,66,43
19320,note_on,0,0,1,,,,,,,,,,0,,69,47
19347,note_on,27,0,1,,,,,,,,,,0,,68,0
19347,note_on,27,0,3,,,,,,,,,,2,,68,0
19350,note_on,3,0,1,,,,,,,,,,0,,69,48
19350,note_on,3,0,3,,,,,,,,,,2,,69,51
19377,note_on,27,0,1,,,,,,,,,,0,,69,0
19377,note_on,27,0,3,,,,,,,,,,2,,69,0
19380,note_on,3,0,1,,,,,,,,,,0,,71,49
19380,note_on,3,0,3,,,,,,,,,,2,,71,50
19407,note_on,27,0,1,,,,,,,,,,0,,71,0
19407,note_on,27,0,3,,,,,,,,,,2,,71,0
19410,note_on,3,0,3,,,,,,,,,,2,,73,49
19410,note_on,3,0,1,,,,,,,,,,0,,73,53
19428,note_on,108,0,6,,,,,,,,,,5,,42,0
19428,note_on,108,0,5,,,,,,,,,,4,,66,0
19437,note_on,27,0,3,,,,,,,,,,2,,73,0
19437,note_on,27,0,1,,,,,,,,,,0,,73,0
19440,note_on,3,0,3,,,,,,,,,,2,,74,54
19440,note_on,12,0,6,,,,,,,,,,5,,38,46
19440,note_on,3,0,1,,,,,,,,,,0,,74,51
19440,note_on,12,0,5,,,,,,,,,,4,,62,41
19494,note_on,54,0,3,,,,,,,,,,2,,74,0
19494,note_on,54,0,1,,,,,,,,,,0,,74,0
19500,note_on,6,0,1,,,,,,,,,,0,,71,43
19500,note_on,6,0,3,,,,,,,,,,2,,71,45
19536,note_on,216,0,4,,,,,,,,,,3,,69,0
19536,note_on,36,0,1,,,,,,,,,,0,,69,0
19548,note_on,108,0,5,,,,,,,,,,4,,62,0
19548,note_on,108,0,6,,,,,,,,,,5,,38,0
19554,note_on,54,0,3,,,,,,,,,,2,,71,0
19554,note_on,18,0,1,,,,,,,,,,0,,71,0
19560,note_on,6,0,3,,,,,,,,,,2,,70,49
19560,note_on,12,0,6,,,,,,,,,,5,,40,51
19560,note_on,6,0,1,,,,,,,,,,0,,70,46
19560,note_on,24,0,4,,,,,,,,,,3,,68,43
19560,note_on,12,0,5,,,,,,,,,,4,,64,54
19560,note_on,0,0,1,,,,,,,,,,0,,68,45
19587,note_on,27,0,1,,,,,,,,,,0,,70,0
19587,note_on,27,0,3,,,,,,,,,,2,,70,0
19590,note_on,3,0,1,,,,,,,,,,0,,71,48
19590,note_on,3,0,3,,,,,,,,,,2,,71,49
19614,note_on,54,0,5,,,,,,,,,,4,,64,0
19614,note_on,54,0,6,,,,,,,,,,5,,40,0
19617,note_on,27,0,1,,,,,,,,,,0,,71,0
19617,note_on,27,0,3,,,,,,,,,,2,,71,0
19620,note_on,3,0,1,,,,,,,,,,0,,73,49
19620,note_on,3,0,3,,,,,,,,,,2,,73,52
19620,note_on,6,0,6,,,,,,,,,,5,,38,46
19620,note_on,6,0,5,,,,,,,,,,4,,64,46
19647,note_on,27,0,1,,,,,,,,,,0,,73,0
19647,note_on,27,0,3,,,,,,,,,,2,,73,0
19650,note_on,3,0,3,,,,,,,,,,2,,74,48
19650,note_on,3,0,1,,,,,,,,,,0,,74,48
19668,note_on,18,0,1,,,,,,,,,,0,,68,0
19668,note_on,108,0,4,,,,,,,,,,3,,68,0
19674,note_on,54,0,5,,,,,,,,,,4,,64,0
19674,note_on,54,0,6,,,,,,,,,,5,,38,0
19677,note_on,9,0,1,,,,,,,,,,0,,74,0
19677,note_on,27,0,3,,,,,,,,,,2,,74,0
19680,note_on,372,0,2,,,,,,,,,,1,,76,91
19680,note_on,0,0,2,,,,,,,,,,1,,69,89
19680,note_on,0,0,1,,,,,,,,,,0,,69,103
19680,note_on,6,0,6,,,,,,,,,,5,,37,92
19680,note_on,12,0,4,,,,,,,,,,3,,69,101
19680,note_on,3,0,3,,,,,,,,,,2,,76,104
19680,note_on,6,0,5,,,,,,,,,,4,,61,91
19680,note_on,3,0,1,,,,,,,,,,0,,76,104
19734,note_on,54,0,4,,,,,,,,,,3,,69,0
19734,note_on,54,0,5,,,,,,,,,,4,,61,0
19734,note_on,54,0,1,,,,,,,,,,0,,76,0
19734,note_on,54,0,6,,,,,,,,,,5,,37,0
19734,note_on,54,0,3,,,,,,,,,,2,,76,0
19740,note_on,6,0,3,,,,,,,,,,2,,76,95
19740,note_on,6,0,5,,,,,,,,,,4,,69,111
19740,note_on,6,0,4,,,,,,,,,,3,,76,112
19740,note_on,6,0,6,,,,,,,,,,5,,37,96
19740,note_on,6,0,1,,,,,,,,,,0,,76,95
19788,note_on,48,0,1,,,,,,,,,,0,,69,0
19794,note_on,6,0,1,,,,,,,,,,0,,76,0
19794,note_on,54,0,5,,,,,,,,,,4,,69,0
19794,note_on,54,0,3,,,,,,,,,,2,,76,0
19794,note_on,54,0,4,,,,,,,,,,3,,76,0
19794,note_on,54,0,6,,,,,,,,,,5,,37,0
19800,note_on,6,0,4,,,,,,,,,,3,,76,101
19800,note_on,6,0,1,,,,,,,,,,0,,76,100
19800,note_on,6,0,6,,,,,,,,,,5,,37,98
19800,note_on,6,0,3,,,,,,,,,,2,,76,99
19800,note_on,6,0,5,,,,,,,,,,4,,69,101
19800,note_on,0,0,1,,,,,,,,,,0,,69,94
19813,note_on,13,0,4,,,,,,,,,,3,,76,0
19813,note_on,13,0,1,,,,,,,,,,0,,76,0
19813,note_on,13,0,3,,,,,,,,,,2,,76,0
19815,note_on,2,0,1,,,,,,,,,,0,,78,102
19815,note_on,2,0,4,,,,,,,,,,3,,78,103
19815,note_on,2,0,3,,,,,,,,,,2,,78,101
19828,note_on,13,0,4,,,,,,,,,,3,,78,0
19828,note_on,13,0,3,,,,,,,,,,2,,78,0
19828,note_on,13,0,1,,,,,,,,,,0,,78,0
19830,note_on,2,0,3,,,,,,,,,,2,,76,92
19830,note_on,2,0,1,,,,,,,,,,0,,76,91
19830,note_on,2,0,4,,,,,,,,,,3,,76,89
19843,note_on,13,0,1,,,,,,,,,,0,,76,0
19843,note_on,13,0,3,,,,,,,,,,2,,76,0
19843,note_on,13,0,4,,,,,,,,,,3,,76,0
19845,note_on,2,0,3,,,,,,,,,,2,,78,100
19845,note_on,2,0,1,,,,,,,,,,0,,78,100
19845,note_on,2,0,4,,,,,,,,,,3,,78,101
19854,note_on,54,0,5,,,,,,,,,,4,,69,0
19854,note_on,54,0,6,,,,,,,,,,5,,37,0
19858,note_on,13,0,3,,,,,,,,,,2,,78,0
19858,note_on,13,0,1,,,,,,,,,,0,,78,0
19858,note_on,13,0,4,,,,,,,,,,3,,78,0
19860,note_on,6,0,6,,,,,,,,,,5,,37,94
19860,note_on,6,0,5,,,,,,,,,,4,,69,95
19860,note_on,2,0,1,,,,,,,,,,0,,76,91
19860,note_on,2,0,3,,,,,,,,,,2,,76,92
19860,note_on,2,0,4,,,,,,,,,,3,,76,89
19873,note_on,13,0,3,,,,,,,,,,2,,76,0
19873,note_on,13,0,1,,,,,,,,,,0,,76,0
19873,note_on,13,0,4,,,,,,,,,,3,,76,0
19875,note_on,2,0,4,,,,,,,,,,3,,78,101
19875,note_on,2,0,3,,,,,,,,,,2,,78,101
19875,note_on,2,0,1,,,,,,,,,,0,,78,101
19888,note_on,13,0,3,,,,,,,,,,2,,78,0
19888,note_on,13,0,4,,,,,,,,,,3,,78,0
19888,note_on,13,0,1,,,,,,,,,,0,,78,0
19890,note_on,2,0,3,,,,,,,,,,2,,74,88
19890,note_on,2,0,4,,,,,,,,,,3,,74,85
19890,note_on,2,0,1,,,,,,,,,,0,,74,87
19896,note_on,216,0,2,,,,,,,,,,1,,69,0
19896,note_on,0,0,2,,,,,,,,,,1,,76,0
19903,note_on,13,0,4,,,,,,,,,,3,,74,0
19903,note_on,13,0,1,,,,,,,,,,0,,74,0
19903,note_on,13,0,3,,,,,,,,,,2,,74,0
19905,note_on,2,0,1,,,,,,,,,,0,,76,101
19905,note_on,2,0,4,,,,,,,,,,3,,76,100
19905,note_on,2,0,3,,,,,,,,,,2,,76,98
19914,note_on,54,0,6,,,,,,,,,,5,,37,0
19914,note_on,54,0,5,,,,,,,,,,4,,69,0
19918,note_on,13,0,3,,,,,,,,,,2,,76,0
19918,note_on,13,0,1,,,,,,,,,,0,,76,0
19918,note_on,13,0,4,,,,,,,,,,3,,76,0
19920,note_on,2,0,3,,,,,,,,,,2,,78,104
19920,note_on,2,0,1,,,,,,,,,,0,,78,105
19920,note_on,6,0,6,,,,,,,,,,5,,38,102
19920,note_on,2,0,4,,,,,,,,,,3,,78,104
19920,note_on,24,0,2,,,,,,,,,,1,,78,98
19920,note_on,0,0,2,,,,,,,,,,1,,69,99
19920,note_on,6,0,5,,,,,,,,,,4,,69,98
19962,note_on,42,0,1,,,,,,,,,,0,,69,0
19974,note_on,54,0,5,,,,,,,,,,4,,69,0
19974,note_on,12,0,1,,,,,,,,,,0,,78,0
19974,note_on,54,0,6,,,,,,,,,,5,,38,0
19974,note_on,54,0,4,,,,,,,,,,3,,78,0
19974,note_on,54,0,3,,,,,,,,,,2,,78,0
19974,note_on,54,0,2,,,,,,,,,,1,,69,0
19980,note_on,6,0,1,,,,,,,,,,0,,74,86
19980,note_on,6,0,6,,,,,,,,,,5,,38,95
19980,note_on,0,0,1,,,,,,,,,,0,,74,110
19980,note_on,6,0,2,,,,,,,,,,1,,69,98
19980,note_on,6,0,3,,,,,,,,,,2,,74,88
19980,note_on,6,0,4,,,,,,,,,,3,,74,85
19980,note_on,6,0,5,,,,,,,,,,4,,66,89
20028,note_on,48,0,2,,,,,,,,,,1,,78,0
20034,note_on,54,0,5,,,,,,,,,,4,,66,0
20034,note_on,54,0,6,,,,,,,,,,5,,38,0
20034,note_on,6,0,2,,,,,,,,,,1,,69,0
20034,note_on,54,0,1,,,,,,,,,,0,,74,0
20034,note_on,54,0,4,,,,,,,,,,3,,74,0
20034,note_on,0,0,1,,,,,,,,,,0,,74,0
20034,note_on,54,0,3,,,,,,,,,,2,,74,0
20040,note_on,6,0,3,,,,,,,,,,2,,71,90
20040,note_on,6,0,6,,,,,,,,,,5,,38,99
20040,note_on,0,0,1,,,,,,,,,,0,,71,92
20040,note_on,0,0,2,,,,,,,,,,1,,74,110
20040,note_on,6,0,2,,,,,,,,,,1,,81,105
20040,note_on,6,0,5,,,,,,,,,,4,,66,99
20040,note_on,6,0,1,,,,,,,,,,0,,71,90
20040,note_on,6,0,4,,,,,,,,,,3,,71,90
20094,note_on,54,0,4,,,,,,,,,,3,,71,0
20094,note_on,54,0,2,,,,,,,,,,1,,74,0
20094,note_on,54,0,6,,,,,,,,,,5,,38,0
20094,note_on,0,0,1,,,,,,,,,,0,,71,0
20094,note_on,54,0,1,,,,,,,,,,0,,71,0
20094,note_on,54,0,3,,,,,,,,,,2,,71,0
20094,note_on,54,0,5,,,,,,,,,,4,,66,0
20100,note_on,6,0,6,,,,,,,,,,5,,39,100
20100,note_on,0,0,1,,,,,,,,,,0,,66,83
20100,note_on,6,0,2,,,,,,,,,,1,,78,108
20100,note_on,6,0,3,,,,,,,,,,2,,66,82
20100,note_on,6,0,1,,,,,,,,,,0,,66,80
20100,note_on,6,0,4,,,,,,,,,,3,,66,83
20100,note_on,6,0,5,,,,,,,,,,4,,66,97
20148,note_on,48,0,2,,,,,,,,,,1,,81,0
20154,note_on,54,0,3,,,,,,,,,,2,,66,0
20154,note_on,6,0,2,,,,,,,,,,1,,78,0
20154,note_on,0,0,1,,,,,,,,,,0,,66,0
20154,note_on,54,0,4,,,,,,,,,,3,,66,0
20154,note_on,54,0,1,,,,,,,,,,0,,66,0
20154,note_on,54,0,6,,,,,,,,,,5,,39,0
20154,note_on,54,0,5,,,,,,,,,,4,,66,0
20160,note_on,0,0,2,,,,,,,,,,1,,81,101
20160,note_on,6,0,6,,,,,,,,,,5,,40,103
20160,note_on,6,0,5,,,,,,,,,,4,,64,95
20160,note_on,0,0,1,,,,,,,,,,0,,64,88
20160,note_on,6,0,1,,,,,,,,,,0,,64,90
20160,note_on,6,0,3,,,,,,,,,,2,,64,91
20160,note_on,6,0,4,,,,,,,,,,3,,64,90
20160,note_on,6,0,2,,,,,,,,,,1,,76,100
20214,note_on,54,0,4,,,,,,,,,,3,,64,0
20214,note_on,54,0,6,,,,,,,,,,5,,40,0
20214,note_on,54,0,5,,,,,,,,,,4,,64,0
20220,note_on,6,0,6,,,,,,,,,,5,,40,94
20220,note_on,6,0,5,,,,,,,,,,4,,64,96
20220,note_on,6,0,4,,,,,,,,,,3,,64,95
20268,note_on,108,0,1,,,,,,,,,,0,,64,0
20268,note_on,0,0,1,,,,,,,,,,0,,64,0
20274,note_on,54,0,4,,,,,,,,,,3,,64,0
20274,note_on,54,0,5,,,,,,,,,,4,,64,0
20274,note_on,54,0,6,,,,,,,,,,5,,40,0
20280,note_on,6,0,4,,,,,,,,,,3,,69,110
20280,note_on,6,0,6,,,,,,,,,,5,,40,101
20280,note_on,6,0,5,,,,,,,,,,4,,64,100
20280,note_on,12,0,1,,,,,,,,,,0,,76,125
20280,note_on,0,0,1,,,,,,,,,,0,,69,106
20307,note_on,27,0,1,,,,,,,,,,0,,76,0
20310,note_on,3,0,1,,,,,,,,,,0,,73,93
20334,note_on,54,0,4,,,,,,,,,,3,,69,0
20334,note_on,54,0,6,,,,,,,,,,5,,40,0
20334,note_on,54,0,5,,,,,,,,,,4,,64,0
20337,note_on,27,0,1,,,,,,,,,,0,,73,0
20340,note_on,6,0,6,,,,,,,,,,5,,40,97
20340,note_on,3,0,1,,,,,,,,,,0,,71,91
20340,note_on,6,0,5,,,,,,,,,,4,,64,95
20340,note_on,6,0,4,,,,,,,,,,3,,69,98
20367,note_on,27,0,1,,,,,,,,,,0,,71,0
20370,note_on,3,0,1,,,,,,,,,,0,,69,88
20376,note_on,216,0,3,,,,,,,,,,2,,64,0
20394,note_on,54,0,5,,,,,,,,,,4,,64,0
20394,note_on,54,0,6,,,,,,,,,,5,,40,0
20394,note_on,54,0,4,,,,,,,,,,3,,69,0
20397,note_on,27,0,1,,,,,,,,,,0,,69,0
20400,note_on,6,0,5,,,,,,,,,,4,,64,100
20400,note_on,24,0,3,,,,,,,,,,2,,71,115
20400,note_on,6,0,4,,,,,,,,,,3,,69,97
20400,note_on,3,0,1,,,,,,,,,,0,,71,102
20400,note_on,6,0,6,,,,,,,,,,5,,40,98
20413,note_on,13,0,1,,,,,,,,,,0,,71,0
20413,note_on,13,0,3,,,,,,,,,,2,,71,0
20415,note_on,2,0,3,,,,,,,,,,2,,73,103
20415,note_on,2,0,1,,,,,,,,,,0,,73,100
20428,note_on,13,0,3,,,,,,,,,,2,,73,0
20428,note_on,13,0,1,,,,,,,,,,0,,73,0
20430,note_on,2,0,3,,,,,,,,,,2,,71,90
20430,note_on,2,0,1,,,,,,,,,,0,,71,90
20443,note_on,13,0,1,,,,,,,,,,0,,71,0
20443,note_on,13,0,3,,,,,,,,,,2,,71,0
20445,note_on,2,0,3,,,,,,,,,,2,,73,99
20445,note_on,2,0,1,,,,,,,,,,0,,73,99
20454,note_on,54,0,4,,,,,,,,,,3,,69,0
20454,note_on,54,0,6,,,,,,,,,,5,,40,0
20454,note_on,54,0,5,,,,,,,,,,4,,64,0
20458,note_on,13,0,1,,,,,,,,,,0,,73,0
20458,note_on,13,0,3,,,,,,,,,,2,,73,0
20460,note_on,2,0,3,,,,,,,,,,2,,71,92
20460,note_on,6,0,6,,,,,,,,,,5,,40,95
20460,note_on,2,0,1,,,,,,,,,,0,,71,91
20460,note_on,6,0,5,,,,,,,,,,4,,64,96
20460,note_on,6,0,4,,,,,,,,,,3,,69,96
20473,note_on,13,0,1,,,,,,,,,,0,,71,0
20473,note_on,13,0,3,,,,,,,,,,2,,71,0
20475,note_on,2,0,1,,,,,,,,,,0,,73,100
20475,note_on,2,0,3,,,,,,,,,,2,,73,101
20488,note_on,13,0,1,,,,,,,,,,0,,73,0
20488,note_on,13,0,3,,,,,,,,,,2,,73,0
20490,note_on,2,0,3,,,,,,,,,,2,,71,92
20490,note_on,2,0,1,,,,,,,,,,0,,71,91
20496,note_on,6,0,1,,,,,,,,,,0,,69,0
20496,note_on,336,0,2,,,,,,,,,,1,,81,0
20496,note_on,0,0,2,,,,,,,,,,1,,76,0
20503,note_on,7,0,1,,,,,,,,,,0,,71,0
20503,note_on,13,0,3,,,,,,,,,,2,,71,0
20505,note_on,2,0,1,,,,,,,,,,0,,73,102
20505,note_on,2,0,3,,,,,,,,,,2,,73,103
20514,note_on,54,0,6,,,,,,,,,,5,,40,0
20514,note_on,54,0,4,,,,,,,,,,3,,69,0
20514,note_on,54,0,5,,,,,,,,,,4,,64,0
20518,note_on,13,0,3,,,,,,,,,,2,,73,0
20518,note_on,13,0,1,,,,,,,,,,0,,73,0
20520,note_on,6,0,5,,,,,,,,,,4,,62,91
20520,note_on,6,0,4,,,,,,,,,,3,,68,94
20520,note_on,6,0,6,,,,,,,,,,5,,40,99
20520,note_on,2,0,3,,,,,,,,,,2,,71,92
20520,note_on,2,0,1,,,,,,,,,,0,,71,93
20520,note_on,0,0,1,,,,,,,,,,0,,68,91
20520,note_on,0,0,2,,,,,,,,,,1,,80,92
20520,note_on,24,0,2,,,,,,,,,,1,,76,91
20533,note_on,13,0,1,,,,,,,,,,0,,71,0
20533,note_on,13,0,3,,,,,,,,,,2,,71,0
20535,note_on,2,0,1,,,,,,,,,,0,,73,103
20535,note_on,2,0,3,,,,,,,,,,2,,73,103
20548,note_on,13,0,1,,,,,,,,,,0,,73,0
20548,note_on,13,0,3,,,,,,,,,,2,,73,0
20550,note_on,2,0,3,,,,,,,,,,2,,71,92
20550,note_on,2,0,1,,,,,,,,,,0,,71,89
20563,note_on,13,0,1,,,,,,,,,,0,,71,0
20563,note_on,13,0,3,,,,,,,,,,2,,71,0
20565,note_on,2,0,1,,,,,,,,,,0,,73,100
20565,note_on,2,0,3,,,,,,,,,,2,,73,102
20574,note_on,54,0,5,,,,,,,,,,4,,62,0
20574,note_on,54,0,6,,,,,,,,,,5,,40,0
20574,note_on,54,0,4,,,,,,,,,,3,,68,0
20578,note_on,13,0,3,,,,,,,,,,2,,73,0
20578,note_on,13,0,1,,,,,,,,,,0,,73,0
20580,note_on,6,0,5,,,,,,,,,,4,,62,95
20580,note_on,2,0,1,,,,,,,,,,0,,69,84
20580,note_on,6,0,6,,,,,,,,,,5,,40,97
20580,note_on,6,0,4,,,,,,,,,,3,,68,97
20580,note_on,2,0,3,,,,,,,,,,2,,69,86
20607,note_on,27,0,3,,,,,,,,,,2,,69,0
20607,note_on,27,0,1,,,,,,,,,,0,,69,0
20610,note_on,3,0,3,,,,,,,,,,2,,71,98
20610,note_on,3,0,1,,,,,,,,,,0,,71,102
20628,note_on,0,0,2,,,,,,,,,,1,,76,0
20628,note_on,108,0,2,,,,,,,,,,1,,80,0
20628,note_on,18,0,1,,,,,,,,,,0,,68,0
20634,note_on,54,0,4,,,,,,,,,,3,,68,0
20634,note_on,54,0,6,,,,,,,,,,5,,40,0
20634,note_on,54,0,5,,,,,,,,,,4,,62,0
20637,note_on,27,0,3,,,,,,,,,,2,,71,0
20637,note_on,9,0,1,,,,,,,,,,0,,71,0
20640,note_on,0,0,2,,,,,,,,,,1,,81,101
20640,note_on,6,0,4,,,,,,,,,,3,,69,104
20640,note_on,3,0,3,,,,,,,,,,2,,69,92
20640,note_on,6,0,6,,,,,,,,,,5,,45,110
20640,note_on,12,0,2,,,,,,,,,,1,,69,103
20640,note_on,3,0,1,,,,,,,,,,0,,69,92
20640,note_on,6,0,5,,,,,,,,,,4,,61,93
20694,note_on,54,0,1,,,,,,,,,,0,,69,0
20694,note_on,54,0,3,,,,,,,,,,2,,69,0
20694,note_on,54,0,6,,,,,,,,,,5,,45,0
20694,note_on,54,0,4,,,,,,,,,,3,,69,0
20694,note_on,54,0,5,,,,,,,,,,4,,61,0
20700,note_on,6,0,5,,,,,,,,,,4,,57,82
20700,note_on,6,0,6,,,,,,,,,,5,,33,72
20700,note_on,6,0,4,,,,,,,,,,3,,57,69
20700,note_on,6,0,3,,,,,,,,,,2,,57,67
20700,note_on,6,0,1,,,,,,,,,,0,,69,94
20727,note_on,27,0,3,,,,,,,,,,2,,57,0
20727,note_on,27,0,1,,,,,,,,,,0,,69,0
20727,note_on,27,0,4,,,,,,,,,,3,,57,0
20727,note_on,27,0,6,,,,,,,,,,5,,33,0
20727,note_on,27,0,5,,,,,,,,,,4,,57,0
20730,note_on,3,0,1,,,,,,,,,,0,,71,103
20730,note_on,3,0,4,,,,,,,,,,3,,59,96
20730,note_on,3,0,6,,,,,,,,,,5,,35,96
20730,note_on,3,0,3,,,,,,,,,,2,,59,96
20730,note_on,3,0,5,,,,,,,,,,4,,59,99
20748,note_on,108,0,2,,,,,,,,,,1,,81,0
20748,note_on,0,0,2,,,,,,,,,,1,,69,0
20757,note_on,27,0,4,,,,,,,,,,3,,59,0
20757,note_on,27,0,5,,,,,,,,,,4,,59,0
20757,note_on,27,0,1,,,,,,,,,,0,,71,0
20757,note_on,27,0,6,,,,,,,,,,5,,35,0
20757,note_on,27,0,3,,,,,,,,,,2,,59,0
20760,note_on,3,0,5,,,,,,,,,,4,,61,106
20760,note_on,3,0,1,,,,,,,,,,0,,73,105
20760,note_on,3,0,6,,,,,,,,,,5,,37,106
20760,note_on,3,0,4,,,,,,,,,,3,,61,107
20760,note_on,3,0,3,,,,,,,,,,2,,61,107
20814,note_on,54,0,3,,,,,,,,,,2,,61,0
20814,note_on,54,0,1,,,,,,,,,,0,,73,0
20814,note_on,54,0,4,,,,,,,,,,3,,61,0
20814,note_on,54,0,5,,,,,,,,,,4,,61,0
20814,note_on,54,0,6,,,,,,,,,,5,,37,0
20820,note_on,6,0,4,,,,,,,,,,3,,62,100
20820,note_on,6,0,1,,,,,,,,,,0,,74,100
20820,note_on,6,0,6,,,,,,,,,,5,,38,99
20820,note_on,6,0,3,,,,,,,,,,2,,62,99
20820,note_on,6,0,5,,,,,,,,,,4,,62,101
20874,note_on,54,0,6,,,,,,,,,,5,,38,0
20874,note_on,54,0,1,,,,,,,,,,0,,74,0
20874,note_on,54,0,5,,,,,,,,,,4,,62,0
20874,note_on,54,0,3,,,,,,,,,,2,,62,0
20874,note_on,54,0,4,,,,,,,,,,3,,62,0
20880,note_on,6,0,1,,,,,,,,,,0,,76,101
20880,note_on,6,0,3,,,,,,,,,,2,,64,103
20880,note_on,6,0,6,,,,,,,,,,5,,40,101
20880,note_on,6,0,5,,,,,,,,,,4,,64,104
20880,note_on,6,0,4,,,,,,,,,,3,,64,103
20988,note_on,108,0,3,,,,,,,,,,2,,64,0
20988,note_on,108,0,4,,,,,,,,,,3,,64,0
20988,note_on,108,0,5,,,,,,,,,,4,,64,0
20988,note_on,108,0,1,,,,,,,,,,0,,76,0
20988,note_on,108,0,6,,,,,,,,,,5,,40,0
21000,note_on,12,0,4,,,,,,,,,,3,,64,125
21000,note_on,0,0,4,,,,,,,,,,3,,71,122
21000,note_on,0,0,4,,,,,,,,,,3,,80,124
21000,note_on,12,0,1,,,,,,,,,,0,,71,108
21000,note_on,0,0,1,,,,,,,,,,0,,80,107
21000,note_on,12,0,6,,,,,,,,,,5,,28,72
21000,note_on,0,0,3,,,,,,,,,,2,,71,124
21000,note_on,12,0,5,,,,,,,,,,4,,74,119
21000,note_on,252,0,2,,,,,,,,,,1,,74,85
21000,note_on,0,0,2,,,,,,,,,,1,,76,84
21000,note_on,0,0,3,,,,,,,,,,2,,80,124
21000,note_on,12,0,3,,,,,,,,,,2,,64,122
21108,note_on,0,0,4,,,,,,,,,,3,,71,0
21108,note_on,0,0,3,,,,,,,,,,2,,64,0
21108,note_on,108,0,6,,,,,,,,,,5,,28,0
21108,note_on,108,0,1,,,,,,,,,,0,,80,0
21108,note_on,0,0,1,,,,,,,,,,0,,71,0
21108,note_on,108,0,4,,,,,,,,,,3,,80,0
21108,note_on,0,0,4,,,,,,,,,,3,,64,0
21108,note_on,0,0,2,,,,,,,,,,1,,74,0
21108,note_on,108,0,2,,,,,,,,,,1,,76,0
21108,note_on,108,0,3,,,,,,,,,,2,,80,0
21108,note_on,0,0,3,,,,,,,,,,2,,71,0
21108,note_on,108,0,5,,,,,,,,,,4,,74,0
21120,note_on,12,0,5,,,,,,,,,,4,,76,109
21120,note_on,12,0,4,,,,,,,,,,3,,64,109
21120,note_on,12,0,6,,,,,,,,,,5,,33,105
21120,note_on,0,0,4,,,,,,,,,,3,,81,108
21120,note_on,12,0,1,,,,,,,,,,0,,81,104
21120,note_on,0,0,1,,,,,,,,,,0,,73,112
21120,note_on,0,0,2,,,,,,,,,,1,,76,98
21120,note_on,12,0,2,,,,,,,,,,1,,69,96
21120,note_on,0,0,3,,,,,,,,,,2,,73,107
21120,note_on,0,0,3,,,,,,,,,,2,,81,110
21120,note_on,0,0,4,,,,,,,,,,3,,73,110
21120,note_on,12,0,3,,,,,,,,,,2,,64,106
21174,note_on,54,0,4,,,,,,,,,,3,,81,0
21174,note_on,0,0,4,,,,,,,,,,3,,73,0
21174,note_on,0,0,3,,,,,,,,,,2,,64,0
21174,note_on,0,0,4,,,,,,,,,,3,,64,0
21174,note_on,54,0,3,,,,,,,,,,2,,81,0
21174,note_on,0,0,3,,,,,,,,,,2,,73,0
21174,note_on,0,0,1,,,,,,,,,,0,,81,0
21174,note_on,54,0,5,,,,,,,,,,4,,76,0
21174,note_on,54,0,6,,,,,,,,,,5,,33,0
21174,note_on,54,0,1,,,,,,,,,,0,,73,0
21180,note_on,6,0,3,,,,,,,,,,2,,57,72
21180,note_on,0,0,1,,,,,,,,,,0,,69,85
21180,note_on,6,0,1,,,,,,,,,,0,,69,69
21180,note_on,6,0,5,,,,,,,,,,4,,57,69
21180,note_on,6,0,4,,,,,,,,,,3,,57,70
21180,note_on,6,0,6,,,,,,,,,,5,,33,95
21207,note_on,27,0,4,,,,,,,,,,3,,57,0
21207,note_on,27,0,5,,,,,,,,,,4,,57,0
21207,note_on,27,0,3,,,,,,,,,,2,,57,0
21207,note_on,27,0,1,,,,,,,,,,0,,69,0
21207,note_on,27,0,6,,,,,,,,,,5,,33,0
21207,note_on,0,0,1,,,,,,,,,,0,,69,0
21210,note_on,3,0,5,,,,,,,,,,4,,59,99
21210,note_on,3,0,6,,,,,,,,,,5,,35,102
21210,note_on,3,0,1,,,,,,,,,,0,,71,96
21210,note_on,0,0,1,,,,,,,,,,0,,71,102
21210,note_on,3,0,3,,,,,,,,,,2,,59,96
21210,note_on,3,0,4,,,,,,,,,,3,,59,97
21228,note_on,108,0,2,,,,,,,,,,1,,76,0
21228,note_on,0,0,2,,,,,,,,,,1,,69,0
21237,note_on,27,0,5,,,,,,,,,,4,,59,0
21237,note_on,27,0,6,,,,,,,,,,5,,35,0
21237,note_on,0,0,1,,,,,,,,,,0,,71,0
21237,note_on,27,0,3,,,,,,,,,,2,,59,0
21237,note_on,27,0,4,,,,,,,,,,3,,59,0
21237,note_on,27,0,1,,,,,,,,,,0,,71,0
21240,note_on,3,0,6,,,,,,,,,,5,,37,106
21240,note_on,0,0,1,,,,,,,,,,0,,73,106
21240,note_on,3,0,3,,,,,,,,,,2,,61,104
21240,note_on,3,0,1,,,,,,,,,,0,,73,107
21240,note_on,3,0,4,,,,,,,,,,3,,61,103
21240,note_on,3,0,5,,,,,,,,,,4,,61,105
21294,note_on,54,0,4,,,,,,,,,,3,,61,0
21294,note_on,54,0,3,,,,,,,,,,2,,61,0
21294,note_on,54,0,1,,,,,,,,,,0,,73,0
21294,note_on,0,0,1,,,,,,,,,,0,,73,0
21294,note_on,54,0,6,,,,,,,,,,5,,37,0
21294,note_on,54,0,5,,,,,,,,,,4,,61,0
21300,note_on,6,0,3,,,,,,,,,,2,,62,100
21300,note_on,6,0,4,,,,,,,,,,3,,62,103
21300,note_on,6,0,1,,,,,,,,,,0,,74,102
21300,note_on,6,0,5,,,,,,,,,,4,,62,99
21300,note_on,6,0,6,,,,,,,,,,5,,38,101
21300,note_on,0,0,1,,,,,,,,,,0,,74,100
21354,note_on,54,0,4,,,,,,,,,,3,,62,0
21354,note_on,54,0,3,,,,,,,,,,2,,62,0
21354,note_on,0,0,1,,,,,,,,,,0,,74,0
21354,note_on,54,0,1,,,,,,,,,,0,,74,0
21354,note_on,54,0,6,,,,,,,,,,5,,38,0
21354,note_on,54,0,5,,,,,,,,,,4,,62,0
21360,note_on,6,0,6,,,,,,,,,,5,,40,101
21360,note_on,6,0,5,,,,,,,,,,4,,64,103
21360,note_on,6,0,1,,,,,,,,,,0,,76,101
21360,note_on,0,0,1,,,,,,,,,,0,,76,103
21360,note_on,6,0,3,,,,,,,,,,2,,64,100
21360,note_on,6,0,4,,,,,,,,,,3,,64,104
21468,note_on,108,0,6,,,,,,,,,,5,,40,0
21468,note_on,108,0,5,,,,,,,,,,4,,64,0
21468,note_on,108,0,3,,,,,,,,,,2,,64,0
21468,note_on,108,0,1,,,,,,,,,,0,,76,0
21468,note_on,0,0,1,,,,,,,,,,0,,76,0
21468,note_on,108,0,4,,,,,,,,,,3,,64,0
21480,note_on,12,0,5,,,,,,,,,,4,,74,119
21480,note_on,0,0,2,,,,,,,,,,1,,76,85
21480,note_on,252,0,2,,,,,,,,,,1,,74,84
21480,note_on,12,0,4,,,,,,,,,,3,,64,123
21480,note_on,0,0,4,,,,,,,,,,3,,71,124
21480,note_on,12,0,3,,,,,,,,,,2,,64,123
21480,note_on,0,0,3,,,,,,,,,,2,,71,123
21480,note_on,0,0,3,,,,,,,,,,2,,80,125
21480,note_on,0,0,1,,,,,,,,,,0,,71,82
21480,note_on,12,0,6,,,,,,,,,,5,,28,69
21480,note_on,12,0,1,,,,,,,,,,0,,80,108
21480,note_on,0,0,4,,,,,,,,,,3,,80,121
21588,note_on,0,0,3,,,,,,,,,,2,,64,0
21588,note_on,0,0,4,,,,,,,,,,3,,71,0
21588,note_on,108,0,6,,,,,,,,,,5,,28,0
21588,note_on,108,0,2,,,,,,,,,,1,,76,0
21588,note_on,108,0,4,,,,,,,,,,3,,80,0
21588,note_on,108,0,5,,,,,,,,,,4,,74,0
21588,note_on,0,0,2,,,,,,,,,,1,,74,0
21588,note_on,0,0,4,,,,,,,,,,3,,64,0
21588,note_on,0,0,1,,,,,,,,,,0,,80,0
21588,note_on,108,0,1,,,,,,,,,,0,,71,0
21588,note_on,0,0,3,,,,,,,,,,2,,71,0
21588,note_on,108,0,3,,,,,,,,,,2,,80,0
21600,note_on,0,0,4,,,,,,,,,,3,,81,108
21600,note_on,0,0,4,,,,,,,,,,3,,73,106
21600,note_on,12,0,4,,,,,,,,,,3,,64,108
21600,note_on,12,0,3,,,,,,,,,,2,,64,106
21600,note_on,0,0,3,,,,,,,,,,2,,73,110
21600,note_on,0,0,3,,,,,,,,,,2,,81,109
21600,note_on,12,0,6,,,,,,,,,,5,,33,107
21600,note_on,12,0,5,,,,,,,,,,4,,73,100
21600,note_on,12,0,1,,,,,,,,,,0,,69,103
21600,note_on,0,0,1,,,,,,,,,,0,,81,106
21600,note_on,0,0,2,,,,,,,,,,1,,76,97
21600,note_on,12,0,2,,,,,,,,,,1,,69,99
21708,note_on,108,0,4,,,,,,,,,,3,,81,0
21708,note_on,0,0,4,,,,,,,,,,3,,73,0
21708,note_on,0,0,2,,,,,,,,,,1,,69,0
21708,note_on,108,0,2,,,,,,,,,,1,,76,0
21708,note_on,108,0,6,,,,,,,,,,5,,33,0
21708,note_on,0,0,1,,,,,,,,,,0,,69,0
21708,note_on,108,0,5,,,,,,,,,,4,,73,0
21708,note_on,0,0,3,,,,,,,,,,2,,64,0
21708,note_on,0,0,3,,,,,,,,,,2,,73,0
21708,note_on,108,0,3,,,,,,,,,,2,,81,0
21708,note_on,108,0,1,,,,,,,,,,0,,81,0
21708,note_on,0,0,4,,,,,,,,,,3,,64,0
21720,note_on,12,0,4,,,,,,,,,,3,,58,61
21720,note_on,12,0,6,,,,,,,,,,5,,34,84
21720,note_on,12,0,3,,,,,,,,,,2,,58,57
21720,note_on,12,0,5,,,,,,,,,,4,,58,57
21720,note_on,12,0,1,,,,,,,,,,0,,70,59
21936,note_on,216,0,3,,,,,,,,,,2,,58,0
22056,note_on,336,0,1,,,,,,,,,,0,,70,0
22056,note_on,336,0,6,,,,,,,,,,5,,34,0
22056,note_on,336,0,5,,,,,,,,,,4,,58,0
22056,note_on,336,0,4,,,,,,,,,,3,,58,0
22080,note_on,144,0,3,,,,,,,,,,2,,59,44
22080,note_on,24,0,6,,,,,,,,,,5,,35,54
22080,note_on,24,0,1,,,,,,,,,,0,,71,52
22080,note_on,24,0,4,,,,,,,,,,3,,59,49
22080,note_on,24,0,5,,,,,,,,,,4,,59,51
22080,note_on,0,0,2,,,,,,,,,,1,,78,45
22080,note_on,372,0,2,,,,,,,,,,1,,66,47
22139,note_on,59,0,5,,,,,,,,,,4,,59,0
22139,note_on,59,0,4,,,,,,,,,,3,,59,0
22139,note_on,59,0,1,,,,,,,,,,0,,71,0
22139,note_on,59,0,6,,,,,,,,,,5,,35,0
22139,note_on,59,0,3,,,,,,,,,,2,,59,0
22188,note_on,108,0,2,,,,,,,,,,1,,78,0
22188,note_on,0,0,2,,,,,,,,,,1,,66,0
22200,note_on,61,0,4,,,,,,,,,,3,,61,51
22200,note_on,61,0,6,,,,,,,,,,5,,37,50
22200,note_on,61,0,1,,,,,,,,,,0,,73,52
22200,note_on,61,0,3,,,,,,,,,,2,,61,49
22200,note_on,61,0,5,,,,,,,,,,4,,61,49
22259,note_on,59,0,6,,,,,,,,,,5,,37,0
22259,note_on,59,0,4,,,,,,,,,,3,,61,0
22259,note_on,59,0,3,,,,,,,,,,2,,61,0
22259,note_on,59,0,1,,,,,,,,,,0,,73,0
22259,note_on,59,0,5,,,,,,,,,,4,,61,0
22320,note_on,61,0,1,,,,,,,,,,0,,74,50
22320,note_on,61,0,4,,,,,,,,,,3,,62,52
22320,note_on,61,0,6,,,,,,,,,,5,,38,48
22320,note_on,61,0,3,,,,,,,,,,2,,62,50
22320,note_on,61,0,5,,,,,,,,,,4,,62,49
22379,note_on,59,0,1,,,,,,,,,,0,,74,0
22379,note_on,59,0,4,,,,,,,,,,3,,62,0
22379,note_on,59,0,3,,,,,,,,,,2,,62,0
22379,note_on,59,0,6,,,,,,,,,,5,,38,0
22379,note_on,59,0,5,,,,,,,,,,4,,62,0
22440,note_on,61,0,5,,,,,,,,,,4,,58,44
22440,note_on,61,0,1,,,,,,,,,,0,,70,42
22440,note_on,61,0,3,,,,,,,,,,2,,58,43
22440,note_on,61,0,4,,,,,,,,,,3,,58,42
22440,note_on,61,0,6,,,,,,,,,,5,,34,43
22440,note_on,252,0,2,,,,,,,,,,1,,66,42
22440,note_on,0,0,2,,,,,,,,,,1,,78,45
22499,note_on,59,0,6,,,,,,,,,,5,,34,0
22499,note_on,59,0,3,,,,,,,,,,2,,58,0
22499,note_on,59,0,1,,,,,,,,,,0,,70,0
22499,note_on,59,0,5,,,,,,,,,,4,,58,0
22499,note_on,59,0,4,,,,,,,,,,3,,58,0
22548,note_on,0,0,2,,,,,,,,,,1,,66,0
22548,note_on,108,0,2,,,,,,,,,,1,,78,0
22560,note_on,61,0,3,,,,,,,,,,2,,59,54
22560,note_on,61,0,5,,,,,,,,,,4,,59,51
22560,note_on,61,0,4,,,,,,,,,,3,,59,51
22560,note_on,61,0,1,,,,,,,,,,0,,71,50
22560,note_on,0,0,2,,,,,,,,,,1,,78,48
22560,note_on,61,0,6,,,,,,,,,,5,,35,51
22560,note_on,12,0,2,,,,,,,,,,1,,66,52
22619,note_on,59,0,5,,,,,,,,,,4,,59,0
22619,note_on,59,0,6,,,,,,,,,,5,,35,0
22619,note_on,59,0,3,,,,,,,,,,2,,59,0
22619,note_on,59,0,4,,,,,,,,,,3,,59,0
22668,note_on,108,0,1,,,,,,,,,,0,,71,0
22668,note_on,0,0,2,,,,,,,,,,1,,66,0
22668,note_on,108,0,2,,,,,,,,,,1,,78,0
22680,note_on,61,0,3,,,,,,,,,,2,,61,50
22680,note_on,61,0,4,,,,,,,,,,3,,61,53
22680,note_on,61,0,6,,,,,,,,,,5,,37,49
22680,note_on,12,0,1,,,,,,,,,,0,,73,53
22680,note_on,61,0,5,,,,,,,,,,4,,61,53
22739,note_on,59,0,6,,,,,,,,,,5,,37,0
22739,note_on,59,0,5,,,,,,,,,,4,,61,0
22739,note_on,59,0,4,,,,,,,,,,3,,61,0
22739,note_on,59,0,3,,,,,,,,,,2,,61,0
22788,note_on,108,0,1,,,,,,,,,,0,,73,0
22800,note_on,61,0,4,,,,,,,,,,3,,62,51
22800,note_on,61,0,3,,,,,,,,,,2,,62,50
22800,note_on,61,0,5,,,,,,,,,,4,,62,51
22800,note_on,12,0,1,,,,,,,,,,0,,74,48
22800,note_on,61,0,6,,,,,,,,,,5,,38,50
22859,note_on,59,0,3,,,,,,,,,,2,,62,0
22859,note_on,59,0,5,,,,,,,,,,4,,62,0
22859,note_on,59,0,6,,,,,,,,,,5,,38,0
22859,note_on,59,0,4,,,,,,,,,,3,,62,0
22908,note_on,108,0,1,,,,,,,,,,0,,74,0
22920,note_on,0,0,2,,,,,,,,,,1,,78,43
22920,note_on,61,0,5,,,,,,,,,,4,,58,41
22920,note_on,252,0,2,,,,,,,,,,1,,66,43
22920,note_on,12,0,1,,,,,,,,,,0,,70,43
22920,note_on,61,0,3,,,,,,,,,,2,,58,45
22920,note_on,61,0,4,,,,,,,,,,3,,58,42
22920,note_on,61,0,6,,,,,,,,,,5,,34,44
22979,note_on,59,0,3,,,,,,,,,,2,,58,0
22979,note_on,59,0,6,,,,,,,,,,5,,34,0
22979,note_on,59,0,5,,,,,,,,,,4,,58,0
22979,note_on,59,0,4,,,,,,,,,,3,,58,0
23028,note_on,108,0,1,,,,,,,,,,0,,70,0
23028,note_on,108,0,2,,,,,,,,,,1,,78,0
23028,note_on,0,0,2,,,,,,,,,,1,,66,0
23040,note_on,61,0,4,,,,,,,,,,3,,59,103
23040,note_on,12,0,1,,,,,,,,,,0,,71,103
23040,note_on,0,0,1,,,,,,,,,,0,,71,95
23040,note_on,61,0,5,,,,,,,,,,4,,59,103
23040,note_on,61,0,6,,,,,,,,,,5,,35,103
23040,note_on,12,0,2,,,,,,,,,,1,,78,96
23040,note_on,61,0,3,,,,,,,,,,2,,59,101
23067,note_on,27,0,4,,,,,,,,,,3,,59,0
23067,note_on,27,0,3,,,,,,,,,,2,,59,0
23069,note_on,29,0,6,,,,,,,,,,5,,35,0
23070,note_on,3,0,4,,,,,,,,,,3,,78,124
23070,note_on,3,0,3,,,,,,,,,,2,,81,122
23094,note_on,54,0,5,,,,,,,,,,4,,59,0
23097,note_on,27,0,4,,,,,,,,,,3,,78,0
23097,note_on,27,0,3,,,,,,,,,,2,,81,0
23100,note_on,6,0,5,,,,,,,,,,4,,71,123
23100,note_on,31,0,6,,,,,,,,,,5,,37,100
23100,note_on,3,0,4,,,,,,,,,,3,,78,102
23100,note_on,3,0,3,,,,,,,,,,2,,81,102
23127,note_on,27,0,3,,,,,,,,,,2,,81,0
23127,note_on,27,0,4,,,,,,,,,,3,,78,0
23129,note_on,29,0,6,,,,,,,,,,5,,37,0
23130,note_on,3,0,4,,,,,,,,,,3,,78,96
23130,note_on,3,0,3,,,,,,,,,,2,,81,97
23148,note_on,108,0,1,,,,,,,,,,0,,71,0
23148,note_on,108,0,2,,,,,,,,,,1,,78,0
23148,note_on,0,0,1,,,,,,,,,,0,,71,0
23157,note_on,27,0,4,,,,,,,,,,3,,78,0
23157,note_on,27,0,3,,,,,,,,,,2,,81,0
23160,note_on,12,0,1,,,,,,,,,,0,,81,117
23160,note_on,0,0,1,,,,,,,,,,0,,71,98
23160,note_on,31,0,6,,,,,,,,,,5,,39,106
23160,note_on,3,0,4,,,,,,,,,,3,,78,96
23160,note_on,3,0,3,,,,,,,,,,2,,81,96
23184,note_on,24,0,3,,,,,,,,,,2,,81,0
23184,note_on,24,0,4,,,,,,,,,,3,,78,0
23189,note_on,29,0,6,,,,,,,,,,5,,39,0
23190,note_on,6,0,3,,,,,,,,,,2,,81,96
23190,note_on,6,0,4,,,,,,,,,,3,,78,96
23208,note_on,108,0,5,,,,,,,,,,4,,71,0
23214,note_on,54,0,1,,,,,,,,,,0,,71,0
23214,note_on,24,0,3,,,,,,,,,,2,,81,0
23214,note_on,24,0,4,,,,,,,,,,3,,78,0
23220,note_on,6,0,1,,,,,,,,,,0,,73,104
23220,note_on,6,0,3,,,,,,,,,,2,,81,96
23220,note_on,31,0,6,,,,,,,,,,5,,40,102
23220,note_on,6,0,4,,,,,,,,,,3,,78,96
23220,note_on,12,0,5,,,,,,,,,,4,,71,100
23244,note_on,24,0,3,,,,,,,,,,2,,81,0
23244,note_on,24,0,4,,,,,,,,,,3,,78,0
23249,note_on,29,0,6,,,,,,,,,,5,,40,0
23250,note_on,6,0,3,,,,,,,,,,2,,81,96
23250,note_on,6,0,4,,,,,,,,,,3,,78,96
23274,note_on,24,0,4,,,,,,,,,,3,,78,0
23274,note_on,24,0,3,,,,,,,,,,2,,81,0
23274,note_on,54,0,1,,,,,,,,,,0,,73,0
23280,note_on,31,0,6,,,,,,,,,,5,,42,100
23280,note_on,6,0,4,,,,,,,,,,3,,75,96
23280,note_on,0,0,4,,,,,,,,,,3,,78,96
23280,note_on,6,0,1,,,,,,,,,,0,,75,104
23280,note_on,6,0,3,,,,,,,,,,2,,81,96
23304,note_on,24,0,3,,,,,,,,,,2,,81,0
23304,note_on,0,0,4,,,,,,,,,,3,,75,0
23304,note_on,24,0,4,,,,,,,,,,3,,78,0
23310,note_on,6,0,3,,,,,,,,,,2,,81,96
23310,note_on,0,0,4,,,,,,,,,,3,,78,96
23310,note_on,6,0,4,,,,,,,,,,3,,75,96
23328,note_on,108,0,5,,,,,,,,,,4,,71,0
23334,note_on,24,0,4,,,,,,,,,,3,,78,0
23334,note_on,24,0,3,,,,,,,,,,2,,81,0
23334,note_on,0,0,4,,,,,,,,,,3,,75,0
23340,note_on,0,0,4,,,,,,,,,,3,,78,96
23340,note_on,6,0,4,,,,,,,,,,3,,75,96
23340,note_on,12,0,5,,,,,,,,,,4,,71,94
23340,note_on,6,0,3,,,,,,,,,,2,,81,96
23364,note_on,24,0,3,,,,,,,,,,2,,81,0
23364,note_on,0,0,4,,,,,,,,,,3,,75,0
23364,note_on,24,0,4,,,,,,,,,,3,,78,0
23370,note_on,0,0,4,,,,,,,,,,3,,78,96
23370,note_on,6,0,4,,,,,,,,,,3,,75,96
23370,note_on,6,0,3,,,,,,,,,,2,,81,96
23388,note_on,108,0,6,,,,,,,,,,5,,42,0
23394,note_on,24,0,4,,,,,,,,,,3,,78,0
23394,note_on,0,0,4,,,,,,,,,,3,,75,0
23394,note_on,24,0,3,,,,,,,,,,2,,81,0
23400,note_on,0,0,4,,,,,,,,,,3,,78,96
23400,note_on,6,0,3,,,,,,,,,,2,,81,96
23400,note_on,6,0,4,,,,,,,,,,3,,75,96
23424,note_on,0,0,4,,,,,,,,,,3,,75,0
23424,note_on,24,0,3,,,,,,,,,,2,,81,0
23424,note_on,24,0,4,,,,,,,,,,3,,78,0
23430,note_on,6,0,4,,,,,,,,,,3,,75,96
23430,note_on,6,0,3,,,,,,,,,,2,,81,96
23430,note_on,0,0,4,,,,,,,,,,3,,78,96
23448,note_on,108,0,5,,,,,,,,,,4,,71,0
23454,note_on,24,0,4,,,,,,,,,,3,,78,0
23454,note_on,0,0,4,,,,,,,,,,3,,75,0
23454,note_on,24,0,3,,,,,,,,,,2,,81,0
23460,note_on,12,0,5,,,,,,,,,,4,,71,94
23460,note_on,6,0,3,,,,,,,,,,2,,81,96
23460,note_on,6,0,4,,,,,,,,,,3,,75,96
23460,note_on,0,0,4,,,,,,,,,,3,,78,96
23484,note_on,24,0,3,,,,,,,,,,2,,81,0
23484,note_on,24,0,4,,,,,,,,,,3,,78,0
23484,note_on,0,0,4,,,,,,,,,,3,,75,0
23490,note_on,0,0,4,,,,,,,,,,3,,78,96
23490,note_on,6,0,3,,,,,,,,,,2,,81,96
23490,note_on,6,0,4,,,,,,,,,,3,,75,96
23496,note_on,216,0,1,,,,,,,,,,0,,75,0
23496,note_on,0,0,1,,,,,,,,,,0,,81,0
23514,note_on,0,0,4,,,,,,,,,,3,,75,0
23514,note_on,24,0,3,,,,,,,,,,2,,81,0
23514,note_on,24,0,4,,,,,,,,,,3,,78,0
23520,note_on,6,0,4,,,,,,,,,,3,,76,90
23520,note_on,6,0,3,,,,,,,,,,2,,79,90
23520,note_on,24,0,1,,,,,,,,,,0,,76,97
23520,note_on,0,0,1,,,,,,,,,,0,,79,95
23520,note_on,132,0,6,,,,,,,,,,5,,40,88
23544,note_on,24,0,4,,,,,,,,,,3,,76,0
23544,note_on,24,0,3,,,,,,,,,,2,,79,0
23549,note_on,29,0,6,,,,,,,,,,5,,40,0
23550,note_on,6,0,3,,,,,,,,,,2,,79,90
23550,note_on,6,0,4,,,,,,,,,,3,,76,90
23574,note_on,24,0,3,,,,,,,,,,2,,79,0
23574,note_on,24,0,4,,,,,,,,,,3,,76,0
23574,note_on,114,0,5,,,,,,,,,,4,,71,0
23580,note_on,6,0,3,,,,,,,,,,2,,79,90
23580,note_on,6,0,5,,,,,,,,,,4,,71,98
23580,note_on,6,0,4,,,,,,,,,,3,,76,90
23580,note_on,31,0,6,,,,,,,,,,5,,42,100
23604,note_on,24,0,3,,,,,,,,,,2,,79,0
23604,note_on,24,0,4,,,,,,,,,,3,,76,0
23609,note_on,29,0,6,,,,,,,,,,5,,42,0
23610,note_on,6,0,3,,,,,,,,,,2,,79,90
23610,note_on,6,0,4,,,,,,,,,,3,,76,90
23634,note_on,24,0,4,,,,,,,,,,3,,76,0
23634,note_on,24,0,3,,,,,,,,,,2,,79,0
23640,note_on,6,0,3,,,,,,,,,,2,,79,90
23640,note_on,31,0,6,,,,,,,,,,5,,43,104
23640,note_on,6,0,4,,,,,,,,,,3,,76,90
23664,note_on,24,0,3,,,,,,,,,,2,,79,0
23664,note_on,24,0,4,,,,,,,,,,3,,76,0
23669,note_on,29,0,6,,,,,,,,,,5,,43,0
23670,note_on,6,0,4,,,,,,,,,,3,,76,90
23670,note_on,6,0,3,,,,,,,,,,2,,79,90
23688,note_on,108,0,5,,,,,,,,,,4,,71,0
23694,note_on,24,0,4,,,,,,,,,,3,,76,0
23694,note_on,24,0,3,,,,,,,,,,2,,79,0
23700,note_on,12,0,5,,,,,,,,,,4,,71,98
23700,note_on,31,0,6,,,,,,,,,,5,,45,103
23700,note_on,6,0,4,,,,,,,,,,3,,76,90
23700,note_on,6,0,3,,,,,,,,,,2,,79,90
23724,note_on,24,0,4,,,,,,,,,,3,,76,0
23724,note_on,24,0,3,,,,,,,,,,2,,79,0
23729,note_on,29,0,6,,,,,,,,,,5,,45,0
23730,note_on,6,0,4,,,,,,,,,,3,,76,90
23730,note_on,6,0,3,,,,,,,,,,2,,79,90
23754,note_on,24,0,4,,,,,,,,,,3,,76,0
23754,note_on,24,0,3,,,,,,,,,,2,,79,0
23760,note_on,6,0,4,,,,,,,,,,3,,76,95
23760,note_on,6,0,3,,,,,,,,,,2,,79,95
23760,note_on,31,0,6,,,,,,,,,,5,,47,102
23784,note_on,24,0,4,,,,,,,,,,3,,76,0
23784,note_on,24,0,3,,,,,,,,,,2,,79,0
23790,note_on,6,0,4,,,,,,,,,,3,,76,95
23790,note_on,6,0,3,,,,,,,,,,2,,79,95
23808,note_on,108,0,5,,,,,,,,,,4,,71,0
23814,note_on,24,0,4,,,,,,,,,,3,,76,0
23814,note_on,24,0,3,,,,,,,,,,2,,79,0
23820,note_on,6,0,3,,,,,,,,,,2,,79,95
23820,note_on,6,0,4,,,,,,,,,,3,,76,95
23820,note_on,12,0,5,,,,,,,,,,4,,71,97
23844,note_on,24,0,4,,,,,,,,,,3,,76,0
23844,note_on,24,0,3,,,,,,,,,,2,,79,0
23850,note_on,6,0,4,,,,,,,,,,3,,76,95
23850,note_on,6,0,3,,,,,,,,,,2,,79,95
23868,note_on,108,0,6,,,,,,,,,,5,,47,0
23874,note_on,24,0,3,,,,,,,,,,2,,79,0
23874,note_on,24,0,4,,,,,,,,,,3,,76,0
23880,note_on,6,0,4,,,,,,,,,,3,,76,95
23880,note_on,6,0,3,,,,,,,,,,2,,79,95
23904,note_on,24,0,4,,,,,,,,,,3,,76,0
23904,note_on,24,0,3,,,,,,,,,,2,,79,0
23910,note_on,6,0,3,,,,,,,,,,2,,79,95
23910,note_on,6,0,4,,,,,,,,,,3,,76,95
23928,note_on,108,0,5,,,,,,,,,,4,,71,0
23934,note_on,24,0,3,,,,,,,,,,2,,79,0
23934,note_on,24,0,4,,,,,,,,,,3,,76,0
23940,note_on,6,0,3,,,,,,,,,,2,,79,95
23940,note_on,12,0,5,,,,,,,,,,4,,71,94
23940,note_on,6,0,4,,,,,,,,,,3,,76,95
23964,note_on,24,0,3,,,,,,,,,,2,,79,0
23964,note_on,24,0,4,,,,,,,,,,3,,76,0
23970,note_on,6,0,4,,,,,,,,,,3,,76,95
23970,note_on,6,0,3,,,,,,,,,,2,,79,95
23976,note_on,0,0,1,,,,,,,,,,0,,76,0
23976,note_on,456,0,1,,,,,,,,,,0,,79,0
23994,note_on,24,0,4,,,,,,,,,,3,,76,0
23994,note_on,24,0,3,,,,,,,,,,2,,79,0
24000,note_on,6,0,4,,,,,,,,,,3,,78,102
24000,note_on,6,0,3,,,,,,,,,,2,,81,102
24000,note_on,0,0,1,,,,,,,,,,0,,78,107
24000,note_on,24,0,1,,,,,,,,,,0,,81,104
24000,note_on,132,0,6,,,,,,,,,,5,,35,87
24024,note_on,24,0,4,,,,,,,,,,3,,78,0
24024,note_on,24,0,3,,,,,,,,,,2,,81,0
24029,note_on,29,0,6,,,,,,,,,,5,,35,0
24030,note_on,6,0,3,,,,,,,,,,2,,81,102
24030,note_on,6,0,4,,,,,,,,,,3,,78,102
24054,note_on,114,0,5,,,,,,,,,,4,,71,0
24054,note_on,24,0,3,,,,,,,,,,2,,81,0
24054,note_on,24,0,4,,,,,,,,,,3,,78,0
24060,note_on,6,0,4,,,,,,,,,,3,,78,102
24060,note_on,31,0,6,,,,,,,,,,5,,37,101
24060,note_on,6,0,3,,,,,,,,,,2,,81,102
24060,note_on,6,0,5,,,,,,,,,,4,,71,95
24084,note_on,24,0,3,,,,,,,,,,2,,81,0
24084,note_on,24,0,4,,,,,,,,,,3,,78,0
24089,note_on,29,0,6,,,,,,,,,,5,,37,0
24090,note_on,6,0,4,,,,,,,,,,3,,78,102
24090,note_on,6,0,3,,,,,,,,,,2,,81,102
24114,note_on,24,0,4,,,,,,,,,,3,,78,0
24114,note_on,24,0,3,,,,,,,,,,2,,81,0
24120,note_on,6,0,4,,,,,,,,,,3,,78,102
24120,note_on,31,0,6,,,,,,,,,,5,,39,107
24120,note_on,6,0,3,,,,,,,,,,2,,81,102
24144,note_on,24,0,4,,,,,,,,,,3,,78,0
24144,note_on,24,0,3,,,,,,,,,,2,,81,0
24149,note_on,29,0,6,,,,,,,,,,5,,39,0
24150,note_on,6,0,4,,,,,,,,,,3,,78,102
24150,note_on,6,0,3,,,,,,,,,,2,,81,102
24168,note_on,108,0,5,,,,,,,,,,4,,71,0
24174,note_on,24,0,3,,,,,,,,,,2,,81,0
24174,note_on,24,0,4,,,,,,,,,,3,,78,0
24180,note_on,6,0,4,,,,,,,,,,3,,78,102
24180,note_on,31,0,6,,,,,,,,,,5,,40,101
24180,note_on,12,0,5,,,,,,,,,,4,,71,98
24180,note_on,6,0,3,,,,,,,,,,2,,81,102
24204,note_on,24,0,4,,,,,,,,,,3,,78,0
24204,note_on,24,0,3,,,,,,,,,,2,,81,0
24209,note_on,29,0,6,,,,,,,,,,5,,40,0
24210,note_on,6,0,3,,,,,,,,,,2,,81,102
24210,note_on,6,0,4,,,,,,,,,,3,,78,102
24216,note_on,216,0,1,,,,,,,,,,0,,78,0
24234,note_on,24,0,3,,,,,,,,,,2,,81,0
24234,note_on,24,0,4,,,,,,,,,,3,,78,0
24240,note_on,6,0,4,,,,,,,,,,3,,75,96
24240,note_on,24,0,1,,,,,,,,,,0,,75,89
24240,note_on,31,0,6,,,,,,,,,,5,,42,103
24240,note_on,6,0,3,,,,,,,,,,2,,81,96
24240,note_on,0,0,4,,,,,,,,,,3,,78,96
24264,note_on,24,0,4,,,,,,,,,,3,,78,0
24264,note_on,0,0,4,,,,,,,,,,3,,75,0
24264,note_on,24,0,3,,,,,,,,,,2,,81,0
24270,note_on,0,0,4,,,,,,,,,,3,,78,96
24270,note_on,6,0,3,,,,,,,,,,2,,81,96
24270,note_on,6,0,4,,,,,,,,,,3,,75,96
24288,note_on,108,0,5,,,,,,,,,,4,,71,0
24294,note_on,0,0,4,,,,,,,,,,3,,75,0
24294,note_on,24,0,3,,,,,,,,,,2,,81,0
24294,note_on,24,0,4,,,,,,,,,,3,,78,0
24300,note_on,6,0,4,,,,,,,,,,3,,75,96
24300,note_on,6,0,3,,,,,,,,,,2,,81,96
24300,note_on,12,0,5,,,,,,,,,,4,,71,98
24300,note_on,0,0,4,,,,,,,,,,3,,78,96
24324,note_on,24,0,4,,,,,,,,,,3,,78,0
24324,note_on,24,0,3,,,,,,,,,,2,,81,0
24324,note_on,0,0,4,,,,,,,,,,3,,75,0
24330,note_on,6,0,3,,,,,,,,,,2,,81,96
24330,note_on,6,0,4,,,,,,,,,,3,,75,96
24330,note_on,0,0,4,,,,,,,,,,3,,78,96
24348,note_on,108,0,6,,,,,,,,,,5,,42,0
24354,note_on,24,0,3,,,,,,,,,,2,,81,0
24354,note_on,24,0,4,,,,,,,,,,3,,78,0
24354,note_on,0,0,4,,,,,,,,,,3,,75,0
24360,note_on,0,0,4,,,,,,,,,,3,,78,96
24360,note_on,6,0,4,,,,,,,,,,3,,75,96
24360,note_on,6,0,3,,,,,,,,,,2,,81,96
24384,note_on,24,0,3,,,,,,,,,,2,,81,0
24384,note_on,24,0,4,,,,,,,,,,3,,78,0
24384,note_on,0,0,4,,,,,,,,,,3,,75,0
24390,note_on,0,0,4,,,,,,,,,,3,,78,96
24390,note_on,6,0,3,,,,,,,,,,2,,81,96
24390,note_on,6,0,4,,,,,,,,,,3,,75,96
24408,note_on,108,0,5,,,,,,,,,,4,,71,0
24414,note_on,24,0,4,,,,,,,,,,3,,78,0
24414,note_on,24,0,3,,,,,,,,,,2,,81,0
24414,note_on,0,0,4,,,,,,,,,,3,,75,0
24420,note_on,6,0,3,,,,,,,,,,2,,81,96
24420,note_on,12,0,5,,,,,,,,,,4,,71,98
24420,note_on,6,0,4,,,,,,,,,,3,,75,96
24420,note_on,0,0,4,,,,,,,,,,3,,78,96
24444,note_on,0,0,4,,,,,,,,,,3,,75,0
24444,note_on,24,0,4,,,,,,,,,,3,,78,0
24444,note_on,24,0,3,,,,,,,,,,2,,81,0
24450,note_on,6,0,4,,,,,,,,,,3,,75,96
24450,note_on,0,0,4,,,,,,,,,,3,,78,96
24450,note_on,6,0,3,,,,,,,,,,2,,81,96
24456,note_on,216,0,1,,,,,,,,,,0,,75,0
24456,note_on,0,0,1,,,,,,,,,,0,,81,0
24474,note_on,24,0,3,,,,,,,,,,2,,81,0
24474,note_on,0,0,4,,,,,,,,,,3,,75,0
24474,note_on,24,0,4,,,,,,,,,,3,,78,0
24480,note_on,132,0,6,,,,,,,,,,5,,40,87
24480,note_on,0,0,1,,,,,,,,,,0,,79,91
24480,note_on,6,0,4,,,,,,,,,,3,,79,104
24480,note_on,6,0,3,,,,,,,,,,2,,79,92
24480,note_on,24,0,1,,,,,,,,,,0,,76,95
24534,note_on,114,0,5,,,,,,,,,,4,,71,0
24534,note_on,54,0,6,,,,,,,,,,5,,40,0
24534,note_on,54,0,4,,,,,,,,,,3,,79,0
24534,note_on,54,0,1,,,,,,,,,,0,,79,0
24534,note_on,0,0,1,,,,,,,,,,0,,76,0
24534,note_on,54,0,3,,,,,,,,,,2,,79,0
24540,note_on,6,0,4,,,,,,,,,,3,,64,68
24540,note_on,6,0,1,,,,,,,,,,0,,64,70
24540,note_on,6,0,6,,,,,,,,,,5,,40,95
24540,note_on,6,0,5,,,,,,,,,,4,,64,77
24540,note_on,6,0,3,,,,,,,,,,2,,64,69
24594,note_on,54,0,3,,,,,,,,,,2,,64,0
24594,note_on,54,0,6,,,,,,,,,,5,,40,0
24594,note_on,54,0,1,,,,,,,,,,0,,64,0
24594,note_on,54,0,4,,,,,,,,,,3,,64,0
24594,note_on,54,0,5,,,,,,,,,,4,,64,0
24600,note_on,6,0,3,,,,,,,,,,2,,67,101
24600,note_on,6,0,6,,,,,,,,,,5,,43,108
24600,note_on,6,0,1,,,,,,,,,,0,,67,100
24600,note_on,6,0,4,,,,,,,,,,3,,67,102
24600,note_on,6,0,5,,,,,,,,,,4,,67,105
24654,note_on,54,0,1,,,,,,,,,,0,,67,0
24654,note_on,54,0,6,,,,,,,,,,5,,43,0
24654,note_on,54,0,4,,,,,,,,,,3,,67,0
24654,note_on,54,0,3,,,,,,,,,,2,,67,0
24654,note_on,54,0,5,,,,,,,,,,4,,67,0
24660,note_on,6,0,5,,,,,,,,,,4,,71,105
24660,note_on,6,0,6,,,,,,,,,,5,,47,110
24660,note_on,6,0,4,,,,,,,,,,3,,71,106
24660,note_on,6,0,3,,,,,,,,,,2,,71,105
24660,note_on,6,0,1,,,,,,,,,,0,,71,104
24714,note_on,54,0,3,,,,,,,,,,2,,71,0
24714,note_on,54,0,6,,,,,,,,,,5,,47,0
24714,note_on,54,0,4,,,,,,,,,,3,,71,0
24714,note_on,54,0,5,,,,,,,,,,4,,71,0
24714,note_on,54,0,1,,,,,,,,,,0,,71,0
24720,note_on,6,0,1,,,,,,,,,,0,,76,112
24720,note_on,6,0,3,,,,,,,,,,2,,76,114
24720,note_on,6,0,6,,,,,,,,,,5,,52,114
24720,note_on,6,0,4,,,,,,,,,,3,,76,113
24720,note_on,6,0,5,,,,,,,,,,4,,76,113
24801,note_on,81,0,6,,,,,,,,,,5,,52,0
24801,note_on,81,0,1,,,,,,,,,,0,,76,0
24801,note_on,81,0,5,,,,,,,,,,4,,76,0
24801,note_on,81,0,3,,,,,,,,,,2,,76,0
24801,note_on,81,0,4,,,,,,,,,,3,,76,0
24810,note_on,9,0,4,,,,,,,,,,3,,74,93
24810,note_on,9,0,3,,,,,,,,,,2,,74,93
24810,note_on,9,0,1,,,,,,,,,,0,,74,92
24810,note_on,9,0,5,,,,,,,,,,4,,74,90
24810,note_on,9,0,6,,,,,,,,,,5,,50,94
24837,note_on,27,0,4,,,,,,,,,,3,,74,0
24837,note_on,27,0,5,,,,,,,,,,4,,74,0
24837,note_on,27,0,1,,,,,,,,,,0,,74,0
24837,note_on,27,0,6,,,,,,,,,,5,,50,0
24837,note_on,27,0,3,,,,,,,,,,2,,74,0
24840,note_on,3,0,6,,,,,,,,,,5,,50,97
24840,note_on,3,0,1,,,,,,,,,,0,,74,99
24840,note_on,3,0,3,,,,,,,,,,2,,74,100
24840,note_on,3,0,4,,,,,,,,,,3,,74,100
24840,note_on,3,0,5,,,,,,,,,,4,,74,98
24853,note_on,13,0,4,,,,,,,,,,3,,74,0
24853,note_on,13,0,5,,,,,,,,,,4,,74,0
24853,note_on,13,0,3,,,,,,,,,,2,,74,0
24853,note_on,13,0,6,,,,,,,,,,5,,50,0
24853,note_on,13,0,1,,,,,,,,,,0,,74,0
24855,note_on,2,0,5,,,,,,,,,,4,,76,102
24855,note_on,2,0,1,,,,,,,,,,0,,76,100
24855,note_on,2,0,6,,,,,,,,,,5,,52,101
24855,note_on,2,0,3,,,,,,,,,,2,,76,102
24855,note_on,2,0,4,,,,,,,,,,3,,76,104
24868,note_on,13,0,6,,,,,,,,,,5,,52,0
24868,note_on,13,0,3,,,,,,,,,,2,,76,0
24868,note_on,13,0,5,,,,,,,,,,4,,76,0
24868,note_on,13,0,1,,,,,,,,,,0,,76,0
24868,note_on,13,0,4,,,,,,,,,,3,,76,0
24870,note_on,2,0,6,,,,,,,,,,5,,50,89
24870,note_on,2,0,3,,,,,,,,,,2,,74,89
24870,note_on,2,0,1,,,,,,,,,,0,,74,89
24870,note_on,2,0,4,,,,,,,,,,3,,74,91
24870,note_on,2,0,5,,,,,,,,,,4,,74,88
24883,note_on,13,0,5,,,,,,,,,,4,,74,0
24883,note_on,13,0,6,,,,,,,,,,5,,50,0
24883,note_on,13,0,3,,,,,,,,,,2,,74,0
24883,note_on,13,0,4,,,,,,,,,,3,,74,0
24883,note_on,13,0,1,,,,,,,,,,0,,74,0
24885,note_on,2,0,4,,,,,,,,,,3,,76,100
24885,note_on,2,0,5,,,,,,,,,,4,,76,100
24885,note_on,2,0,6,,,,,,,,,,5,,52,100
24885,note_on,2,0,3,,,,,,,,,,2,,76,100
24885,note_on,2,0,1,,,,,,,,,,0,,76,102
24898,note_on,13,0,1,,,,,,,,,,0,,76,0
24898,note_on,13,0,6,,,,,,,,,,5,,52,0
24898,note_on,13,0,5,,,,,,,,,,4,,76,0
24898,note_on,13,0,4,,,,,,,,,,3,,76,0
24898,note_on,13,0,3,,,,,,,,,,2,,76,0
24900,note_on,2,0,1,,,,,,,,,,0,,74,89
24900,note_on,2,0,6,,,,,,,,,,5,,50,88
24900,note_on,2,0,5,,,,,,,,,,4,,74,91
24900,note_on,2,0,4,,,,,,,,,,3,,74,91
24900,note_on,2,0,3,,,,,,,,,,2,,74,89
24913,note_on,13,0,1,,,,,,,,,,0,,74,0
24913,note_on,13,0,6,,,,,,,,,,5,,50,0
24913,note_on,13,0,4,,,,,,,,,,3,,74,0
24913,note_on,13,0,5,,,,,,,,,,4,,74,0
24913,note_on,13,0,3,,,,,,,,,,2,,74,0
24915,note_on,2,0,4,,,,,,,,,,3,,76,99
24915,note_on,2,0,6,,,,,,,,,,5,,52,101
24915,note_on,2,0,1,,,,,,,,,,0,,76,103
24915,note_on,2,0,5,,,,,,,,,,4,,76,102
24915,note_on,2,0,3,,,,,,,,,,2,,76,102
24928,note_on,13,0,3,,,,,,,,,,2,,76,0
24928,note_on,13,0,6,,,,,,,,,,5,,52,0
24928,note_on,13,0,1,,,,,,,,,,0,,76,0
24928,note_on,13,0,4,,,,,,,,,,3,,76,0
24928,note_on,13,0,5,,,,,,,,,,4,,76,0
24930,note_on,2,0,1,,,,,,,,,,0,,73,89
24930,note_on,2,0,3,,,,,,,,,,2,,73,86
24930,note_on,2,0,5,,,,,,,,,,4,,73,88
24930,note_on,2,0,6,,,,,,,,,,5,,49,90
24930,note_on,2,0,4,,,,,,,,,,3,,73,86
24943,note_on,13,0,3,,,,,,,,,,2,,73,0
24943,note_on,13,0,1,,,,,,,,,,0,,73,0
24943,note_on,13,0,6,,,,,,,,,,5,,49,0
24943,note_on,13,0,4,,,,,,,,,,3,,73,0
24943,note_on,13,0,5,,,,,,,,,,4,,73,0
24945,note_on,2,0,4,,,,,,,,,,3,,74,97
24945,note_on,2,0,3,,,,,,,,,,2,,74,101
24945,note_on,2,0,5,,,,,,,,,,4,,74,100
24945,note_on,2,0,1,,,,,,,,,,0,,74,97
24945,note_on,2,0,6,,,,,,,,,,5,,50,98
24958,note_on,13,0,5,,,,,,,,,,4,,74,0
24958,note_on,13,0,4,,,,,,,,,,3,,74,0
24958,note_on,13,0,6,,,,,,,,,,5,,50,0
24958,note_on,13,0,1,,,,,,,,,,0,,74,0
24958,note_on,13,0,3,,,,,,,,,,2,,74,0
24960,note_on,2,0,1,,,,,,,,,,0,,73,95
24960,note_on,2,0,6,,,,,,,,,,5,,49,92
24960,note_on,2,0,4,,,,,,,,,,3,,73,102
24960,note_on,2,0,3,,,,,,,,,,2,,69,86
24960,note_on,0,0,4,,,,,,,,,,3,,76,102
24960,note_on,2,0,5,,,,,,,,,,4,,73,95
24960,note_on,1812,0,2,,,,,,,,,,1,,76,89
24960,note_on,0,0,2,,,,,,,,,,1,,79,89
24984,note_on,0,0,4,,,,,,,,,,3,,73,0
24984,note_on,24,0,4,,,,,,,,,,3,,76,0
24987,note_on,27,0,3,,,,,,,,,,2,,69,0
24990,note_on,3,0,3,,,,,,,,,,2,,79,115
24990,note_on,0,0,4,,,,,,,,,,3,,76,102
24990,note_on,6,0,4,,,,,,,,,,3,,73,102
25014,note_on,0,0,4,,,,,,,,,,3,,73,0
25014,note_on,24,0,4,,,,,,,,,,3,,76,0
25014,note_on,54,0,6,,,,,,,,,,5,,49,0
25014,note_on,54,0,5,,,,,,,,,,4,,73,0
25017,note_on,27,0,3,,,,,,,,,,2,,79,0
25020,note_on,6,0,5,,,,,,,,,,4,,69,84
25020,note_on,3,0,3,,,,,,,,,,2,,79,101
25020,note_on,0,0,4,,,,,,,,,,3,,76,102
25020,note_on,6,0,4,,,,,,,,,,3,,73,102
25020,note_on,6,0,6,,,,,,,,,,5,,33,69
25044,note_on,24,0,4,,,,,,,,,,3,,76,0
25044,note_on,0,0,4,,,,,,,,,,3,,73,0
25047,note_on,27,0,3,,,,,,,,,,2,,79,0
25050,note_on,0,0,4,,,,,,,,,,3,,76,102
25050,note_on,6,0,4,,,,,,,,,,3,,73,102
25050,note_on,3,0,3,,,,,,,,,,2,,79,94
25068,note_on,108,0,1,,,,,,,,,,0,,73,0
25074,note_on,0,0,4,,,,,,,,,,3,,73,0
25074,note_on,54,0,6,,,,,,,,,,5,,33,0
25074,note_on,24,0,4,,,,,,,,,,3,,76,0
25077,note_on,27,0,3,,,,,,,,,,2,,79,0
25080,note_on,6,0,4,,,,,,,,,,3,,73,102
25080,note_on,3,0,3,,,,,,,,,,2,,79,96
25080,note_on,0,0,4,,,,,,,,,,3,,76,102
25080,note_on,6,0,6,,,,,,,,,,5,,37,105
25104,note_on,24,0,3,,,,,,,,,,2,,79,0
25104,note_on,0,0,4,,,,,,,,,,3,,73,0
25104,note_on,24,0,4,,,,,,,,,,3,,76,0
25110,note_on,6,0,4,,,,,,,,,,3,,73,102
25110,note_on,6,0,3,,,,,,,,,,2,,79,96
25110,note_on,0,0,4,,,,,,,,,,3,,76,102
25128,note_on,108,0,5,,,,,,,,,,4,,69,0
25134,note_on,24,0,4,,,,,,,,,,3,,76,0
25134,note_on,0,0,4,,,,,,,,,,3,,73,0
25134,note_on,54,0,6,,,,,,,,,,5,,37,0
25134,note_on,24,0,3,,,,,,,,,,2,,79,0
25140,note_on,6,0,4,,,,,,,,,,3,,73,102
25140,note_on,0,0,4,,,,,,,,,,3,,76,102
25140,note_on,12,0,5,,,,,,,,,,4,,69,92
25140,note_on,6,0,6,,,,,,,,,,5,,40,106
25140,note_on,6,0,3,,,,,,,,,,2,,79,96
25164,note_on,24,0,3,,,,,,,,,,2,,79,0
25164,note_on,0,0,4,,,,,,,,,,3,,73,0
25164,note_on,24,0,4,,,,,,,,,,3,,76,0
25170,note_on,0,0,4,,,,,,,,,,3,,76,102
25170,note_on,6,0,3,,,,,,,,,,2,,79,96
25170,note_on,6,0,4,,,,,,,,,,3,,73,102
25194,note_on,24,0,3,,,,,,,,,,2,,79,0
25194,note_on,54,0,6,,,,,,,,,,5,,40,0
25194,note_on,0,0,4,,,,,,,,,,3,,73,0
25194,note_on,24,0,4,,,,,,,,,,3,,76,0
25200,note_on,132,0,1,,,,,,,,,,0,,73,84
25200,note_on,0,0,1,,,,,,,,,,0,,79,87
25200,note_on,6,0,6,,,,,,,,,,5,,45,111
25200,note_on,6,0,3,,,,,,,,,,2,,79,96
25200,note_on,6,0,4,,,,,,,,,,3,,73,96
25200,note_on,0,0,4,,,,,,,,,,3,,76,96
25224,note_on,24,0,4,,,,,,,,,,3,,76,0
25224,note_on,0,0,4,,,,,,,,,,3,,73,0
25224,note_on,24,0,3,,,,,,,,,,2,,79,0
25230,note_on,6,0,4,,,,,,,,,,3,,73,96
25230,note_on,0,0,4,,,,,,,,,,3,,76,96
25230,note_on,6,0,3,,,,,,,,,,2,,79,96
25248,note_on,108,0,5,,,,,,,,,,4,,69,0
25254,note_on,0,0,4,,,,,,,,,,3,,73,0
25254,note_on,24,0,3,,,,,,,,,,2,,79,0
25254,note_on,24,0,4,,,,,,,,,,3,,76,0
25260,note_on,6,0,4,,,,,,,,,,3,,73,96
25260,note_on,0,0,4,,,,,,,,,,3,,76,96
25260,note_on,12,0,5,,,,,,,,,,4,,69,97
25260,note_on,6,0,3,,,,,,,,,,2,,79,96
25284,note_on,24,0,4,,,,,,,,,,3,,76,0
25284,note_on,0,0,4,,,,,,,,,,3,,73,0
25284,note_on,24,0,3,,,,,,,,,,2,,79,0
25290,note_on,6,0,4,,,,,,,,,,3,,73,96
25290,note_on,0,0,4,,,,,,,,,,3,,76,96
25290,note_on,6,0,3,,,,,,,,,,2,,79,96
25308,note_on,108,0,6,,,,,,,,,,5,,45,0
25314,note_on,0,0,4,,,,,,,,,,3,,73,0
25314,note_on,24,0,4,,,,,,,,,,3,,76,0
25314,note_on,24,0,3,,,,,,,,,,2,,79,0
25320,note_on,6,0,4,,,,,,,,,,3,,73,96
25320,note_on,6,0,3,,,,,,,,,,2,,79,96
25320,note_on,0,0,4,,,,,,,,,,3,,76,96
25344,note_on,24,0,4,,,,,,,,,,3,,76,0
25344,note_on,0,0,4,,,,,,,,,,3,,73,0
25344,note_on,24,0,3,,,,,,,,,,2,,79,0
25350,note_on,6,0,3,,,,,,,,,,2,,79,96
25350,note_on,6,0,4,,,,,,,,,,3,,73,96
25350,note_on,0,0,4,,,,,,,,,,3,,76,96
25368,note_on,108,0,5,,,,,,,,,,4,,69,0
25374,note_on,24,0,3,,,,,,,,,,2,,79,0
25374,note_on,24,0,4,,,,,,,,,,3,,76,0
25374,note_on,0,0,4,,,,,,,,,,3,,73,0
25380,note_on,12,0,5,,,,,,,,,,4,,69,96
25380,note_on,6,0,4,,,,,,,,,,3,,73,96
25380,note_on,6,0,3,,,,,,,,,,2,,79,96
25380,note_on,0,0,4,,,,,,,,,,3,,76,96
25404,note_on,24,0,3,,,,,,,,,,2,,79,0
25404,note_on,24,0,4,,,,,,,,,,3,,76,0
25404,note_on,0,0,4,,,,,,,,,,3,,73,0
25410,note_on,0,0,4,,,,,,,,,,3,,76,96
25410,note_on,6,0,4,,,,,,,,,,3,,73,96
25410,note_on,6,0,3,,,,,,,,,,2,,79,96
25416,note_on,216,0,1,,,,,,,,,,0,,79,0
25416,note_on,456,0,2,,,,,,,,,,1,,79,0
25416,note_on,0,0,2,,,,,,,,,,1,,76,0
25416,note_on,0,0,1,,,,,,,,,,0,,73,0
25434,note_on,24,0,4,,,,,,,,,,3,,76,0
25434,note_on,0,0,4,,,,,,,,,,3,,73,0
25434,note_on,24,0,3,,,,,,,,,,2,,79,0
25440,note_on,6,0,4,,,,,,,,,,3,,74,90
25440,note_on,24,0,2,,,,,,,,,,1,,74,92
25440,note_on,0,0,2,,,,,,,,,,1,,78,92
25440,note_on,24,0,1,,,,,,,,,,0,,74,95
25440,note_on,132,0,6,,,,,,,,,,5,,38,89
25440,note_on,6,0,3,,,,,,,,,,2,,78,91
25440,note_on,0,0,1,,,,,,,,,,0,,78,95
25464,note_on,24,0,4,,,,,,,,,,3,,74,0
25464,note_on,24,0,3,,,,,,,,,,2,,78,0
25470,note_on,6,0,3,,,,,,,,,,2,,78,91
25470,note_on,6,0,4,,,,,,,,,,3,,74,90
25494,note_on,114,0,5,,,,,,,,,,4,,69,0
25494,note_on,54,0,6,,,,,,,,,,5,,38,0
25494,note_on,24,0,4,,,,,,,,,,3,,74,0
25494,note_on,24,0,3,,,,,,,,,,2,,78,0
25500,note_on,6,0,3,,,,,,,,,,2,,78,91
25500,note_on,6,0,6,,,,,,,,,,5,,40,99
25500,note_on,6,0,4,,,,,,,,,,3,,74,90
25500,note_on,6,0,5,,,,,,,,,,4,,69,98
25524,note_on,24,0,4,,,,,,,,,,3,,74,0
25524,note_on,24,0,3,,,,,,,,,,2,,78,0
25530,note_on,6,0,4,,,,,,,,,,3,,74,90
25530,note_on,6,0,3,,,,,,,,,,2,,78,91
25554,note_on,24,0,4,,,,,,,,,,3,,74,0
25554,note_on,54,0,6,,,,,,,,,,5,,40,0
25554,note_on,24,0,3,,,,,,,,,,2,,78,0
25560,note_on,6,0,6,,,,,,,,,,5,,42,107
25560,note_on,6,0,3,,,,,,,,,,2,,78,91
25560,note_on,6,0,4,,,,,,,,,,3,,74,90
25584,note_on,24,0,4,,,,,,,,,,3,,74,0
25584,note_on,24,0,3,,,,,,,,,,2,,78,0
25590,note_on,6,0,3,,,,,,,,,,2,,78,91
25590,note_on,6,0,4,,,,,,,,,,3,,74,90
25608,note_on,108,0,5,,,,,,,,,,4,,69,0
25614,note_on,54,0,6,,,,,,,,,,5,,42,0
25614,note_on,24,0,3,,,,,,,,,,2,,78,0
25614,note_on,24,0,4,,,,,,,,,,3,,74,0
25620,note_on,6,0,3,,,,,,,,,,2,,78,91
25620,note_on,12,0,5,,,,,,,,,,4,,69,98
25620,note_on,6,0,4,,,,,,,,,,3,,74,90
25620,note_on,6,0,6,,,,,,,,,,5,,43,101
25644,note_on,24,0,4,,,,,,,,,,3,,74,0
25644,note_on,24,0,3,,,,,,,,,,2,,78,0
25650,note_on,6,0,4,,,,,,,,,,3,,74,90
25650,note_on,6,0,3,,,,,,,,,,2,,78,91
25674,note_on,54,0,6,,,,,,,,,,5,,43,0
25674,note_on,24,0,3,,,,,,,,,,2,,78,0
25674,note_on,24,0,4,,,,,,,,,,3,,74,0
25680,note_on,6,0,6,,,,,,,,,,5,,45,102
25680,note_on,6,0,3,,,,,,,,,,2,,78,95
25680,note_on,6,0,4,,,,,,,,,,3,,74,95
25704,note_on,24,0,3,,,,,,,,,,2,,78,0
25704,note_on,24,0,4,,,,,,,,,,3,,74,0
25710,note_on,6,0,4,,,,,,,,,,3,,74,95
25710,note_on,6,0,3,,,,,,,,,,2,,78,95
25728,note_on,108,0,5,,,,,,,,,,4,,69,0
25734,note_on,24,0,4,,,,,,,,,,3,,74,0
25734,note_on,24,0,3,,,,,,,,,,2,,78,0
25740,note_on,12,0,5,,,,,,,,,,4,,69,95
25740,note_on,6,0,4,,,,,,,,,,3,,74,95
25740,note_on,6,0,3,,,,,,,,,,2,,78,95
25764,note_on,24,0,3,,,,,,,,,,2,,78,0
25764,note_on,24,0,4,,,,,,,,,,3,,74,0
25770,note_on,6,0,3,,,,,,,,,,2,,78,95
25770,note_on,6,0,4,,,,,,,,,,3,,74,95
25788,note_on,108,0,6,,,,,,,,,,5,,45,0
25794,note_on,24,0,3,,,,,,,,,,2,,78,0
25794,note_on,24,0,4,,,,,,,,,,3,,74,0
25800,note_on,6,0,3,,,,,,,,,,2,,78,95
25800,note_on,6,0,4,,,,,,,,,,3,,74,95
25824,note_on,24,0,3,,,,,,,,,,2,,78,0
25824,note_on,24,0,4,,,,,,,,,,3,,74,0
25830,note_on,6,0,3,,,,,,,,,,2,,78,95
25830,note_on,6,0,4,,,,,,,,,,3,,74,95
25848,note_on,108,0,5,,,,,,,,,,4,,69,0
25854,note_on,24,0,3,,,,,,,,,,2,,78,0
25854,note_on,24,0,4,,,,,,,,,,3,,74,0
25860,note_on,6,0,3,,,,,,,,,,2,,78,95
25860,note_on,6,0,4,,,,,,,,,,3,,74,95
25860,note_on,12,0,5,,,,,,,,,,4,,69,96
25884,note_on,24,0,3,,,,,,,,,,2,,78,0
25884,note_on,24,0,4,,,,,,,,,,3,,74,0
25890,note_on,6,0,3,,,,,,,,,,2,,78,95
25890,note_on,6,0,4,,,,,,,,,,3,,74,95
25896,note_on,0,0,2,,,,,,,,,,1,,74,0
25896,note_on,456,0,2,,,,,,,,,,1,,78,0
25896,note_on,456,0,1,,,,,,,,,,0,,78,0
25896,note_on,0,0,1,,,,,,,,,,0,,74,0
25914,note_on,24,0,4,,,,,,,,,,3,,74,0
25914,note_on,24,0,3,,,,,,,,,,2,,78,0
25920,note_on,0,0,4,,,,,,,,,,3,,76,102
25920,note_on,24,0,1,,,,,,,,,,0,,76,101
25920,note_on,0,0,1,,,,,,,,,,0,,79,101
25920,note_on,132,0,6,,,,,,,,,,5,,33,87
25920,note_on,0,0,2,,,,,,,,,,1,,79,101
25920,note_on,24,0,2,,,,,,,,,,1,,76,102
25920,note_on,6,0,3,,,,,,,,,,2,,79,100
25920,note_on,6,0,4,,,,,,,,,,3,,73,102
25944,note_on,24,0,4,,,,,,,,,,3,,76,0
25944,note_on,0,0,4,,,,,,,,,,3,,73,0
25944,note_on,24,0,3,,,,,,,,,,2,,79,0
25950,note_on,6,0,3,,,,,,,,,,2,,79,100
25950,note_on,6,0,4,,,,,,,,,,3,,73,102
25950,note_on,0,0,4,,,,,,,,,,3,,76,102
25974,note_on,24,0,4,,,,,,,,,,3,,76,0
25974,note_on,0,0,4,,,,,,,,,,3,,73,0
25974,note_on,114,0,5,,,,,,,,,,4,,69,0
25974,note_on,24,0,3,,,,,,,,,,2,,79,0
25974,note_on,54,0,6,,,,,,,,,,5,,33,0
25980,note_on,6,0,3,,,,,,,,,,2,,79,100
25980,note_on,6,0,6,,,,,,,,,,5,,35,99
25980,note_on,0,0,4,,,,,,,,,,3,,76,102
25980,note_on,6,0,4,,,,,,,,,,3,,73,102
25980,note_on,6,0,5,,,,,,,,,,4,,69,96
26004,note_on,24,0,4,,,,,,,,,,3,,76,0
26004,note_on,0,0,4,,,,,,,,,,3,,73,0
26004,note_on,24,0,3,,,,,,,,,,2,,79,0
26010,note_on,6,0,3,,,,,,,,,,2,,79,100
26010,note_on,6,0,4,,,,,,,,,,3,,73,102
26010,note_on,0,0,4,,,,,,,,,,3,,76,102
26034,note_on,24,0,4,,,,,,,,,,3,,76,0
26034,note_on,0,0,4,,,,,,,,,,3,,73,0
26034,note_on,54,0,6,,,,,,,,,,5,,35,0
26034,note_on,24,0,3,,,,,,,,,,2,,79,0
26040,note_on,6,0,4,,,,,,,,,,3,,73,102
26040,note_on,6,0,3,,,,,,,,,,2,,79,100
26040,note_on,6,0,6,,,,,,,,,,5,,37,105
26040,note_on,0,0,4,,,,,,,,,,3,,76,102
26064,note_on,24,0,3,,,,,,,,,,2,,79,0
26064,note_on,0,0,4,,,,,,,,,,3,,73,0
26064,note_on,24,0,4,,,,,,,,,,3,,76,0
26070,note_on,6,0,3,,,,,,,,,,2,,79,100
26070,note_on,6,0,4,,,,,,,,,,3,,73,102
26070,note_on,0,0,4,,,,,,,,,,3,,76,102
26088,note_on,108,0,5,,,,,,,,,,4,,69,0
26094,note_on,54,0,6,,,,,,,,,,5,,37,0
26094,note_on,0,0,4,,,,,,,,,,3,,73,0
26094,note_on,24,0,4,,,,,,,,,,3,,76,0
26094,note_on,24,0,3,,,,,,,,,,2,,79,0
26100,note_on,6,0,4,,,,,,,,,,3,,73,102
26100,note_on,12,0,5,,,,,,,,,,4,,69,95
26100,note_on,6,0,3,,,,,,,,,,2,,79,100
26100,note_on,0,0,4,,,,,,,,,,3,,76,102
26100,note_on,6,0,6,,,,,,,,,,5,,38,100
26124,note_on,0,0,4,,,,,,,,,,3,,73,0
26124,note_on,24,0,3,,,,,,,,,,2,,79,0
26124,note_on,24,0,4,,,,,,,,,,3,,76,0
26130,note_on,0,0,4,,,,,,,,,,3,,76,102
26130,note_on,6,0,4,,,,,,,,,,3,,73,102
26130,note_on,6,0,3,,,,,,,,,,2,,79,100
26154,note_on,24,0,4,,,,,,,,,,3,,76,0
26154,note_on,0,0,4,,,,,,,,,,3,,73,0
26154,note_on,24,0,3,,,,,,,,,,2,,79,0
26154,note_on,54,0,6,,,,,,,,,,5,,38,0
26160,note_on,6,0,3,,,,,,,,,,2,,79,96
26160,note_on,6,0,4,,,,,,,,,,3,,73,96
26160,note_on,6,0,6,,,,,,,,,,5,,40,104
26160,note_on,0,0,4,,,,,,,,,,3,,76,96
26184,note_on,24,0,3,,,,,,,,,,2,,79,0
26184,note_on,24,0,4,,,,,,,,,,3,,76,0
26184,note_on,0,0,4,,,,,,,,,,3,,73,0
26190,note_on,0,0,4,,,,,,,,,,3,,76,96
26190,note_on,6,0,4,,,,,,,,,,3,,73,96
26190,note_on,6,0,3,,,,,,,,,,2,,79,96
26208,note_on,108,0,5,,,,,,,,,,4,,69,0
26214,note_on,24,0,4,,,,,,,,,,3,,76,0
26214,note_on,24,0,3,,,,,,,,,,2,,79,0
26214,note_on,0,0,4,,,,,,,,,,3,,73,0
26220,note_on,6,0,4,,,,,,,,,,3,,73,96
26220,note_on,0,0,4,,,,,,,,,,3,,76,96
26220,note_on,12,0,5,,,,,,,,,,4,,69,95
26220,note_on,6,0,3,,,,,,,,,,2,,79,96
26244,note_on,24,0,4,,,,,,,,,,3,,76,0
26244,note_on,0,0,4,,,,,,,,,,3,,73,0
26244,note_on,24,0,3,,,,,,,,,,2,,79,0
26250,note_on,6,0,3,,,,,,,,,,2,,79,96
26250,note_on,6,0,4,,,,,,,,,,3,,73,96
26250,note_on,0,0,4,,,,,,,,,,3,,76,96
26268,note_on,108,0,6,,,,,,,,,,5,,40,0
26274,note_on,24,0,3,,,,,,,,,,2,,79,0
26274,note_on,24,0,4,,,,,,,,,,3,,76,0
26274,note_on,0,0,4,,,,,,,,,,3,,73,0
26280,note_on,0,0,4,,,,,,,,,,3,,76,96
26280,note_on,6,0,3,,,,,,,,,,2,,79,96
26280,note_on,6,0,4,,,,,,,,,,3,,73,96
26304,note_on,0,0,4,,,,,,,,,,3,,73,0
26304,note_on,24,0,4,,,,,,,,,,3,,76,0
26304,note_on,24,0,3,,,,,,,,,,2,,79,0
26310,note_on,6,0,3,,,,,,,,,,2,,79,96
26310,note_on,6,0,4,,,,,,,,,,3,,73,96
26310,note_on,0,0,4,,,,,,,,,,3,,76,96
26328,note_on,108,0,5,,,,,,,,,,4,,69,0
26334,note_on,24,0,3,,,,,,,,,,2,,79,0
26334,note_on,24,0,4,,,,,,,,,,3,,76,0
26334,note_on,0,0,4,,,,,,,,,,3,,73,0
26340,note_on,12,0,5,,,,,,,,,,4,,69,97
26340,note_on,6,0,4,,,,,,,,,,3,,73,96
26340,note_on,0,0,4,,,,,,,,,,3,,76,96
26340,note_on,6,0,3,,,,,,,,,,2,,79,96
26364,note_on,24,0,3,,,,,,,,,,2,,79,0
26364,note_on,0,0,4,,,,,,,,,,3,,73,0
26364,note_on,24,0,4,,,,,,,,,,3,,76,0
26370,note_on,6,0,3,,,,,,,,,,2,,79,96
26370,note_on,6,0,4,,,,,,,,,,3,,73,96
26370,note_on,0,0,4,,,,,,,,,,3,,76,96
26376,note_on,0,0,1,,,,,,,,,,0,,76,0
26376,note_on,0,0,2,,,,,,,,,,1,,76,0
26376,note_on,456,0,1,,,,,,,,,,0,,79,0
26376,note_on,456,0,2,,,,,,,,,,1,,79,0
26394,note_on,24,0,3,,,,,,,,,,2,,79,0
26394,note_on,24,0,4,,,,,,,,,,3,,76,0
26394,note_on,0,0,4,,,,,,,,,,3,,73,0
26400,note_on,132,0,6,,,,,,,,,,5,,38,88
26400,note_on,6,0,4,,,,,,,,,,3,,78,106
26400,note_on,24,0,1,,,,,,,,,,0,,74,95
26400,note_on,0,0,2,,,,,,,,,,1,,78,92
26400,note_on,24,0,2,,,,,,,,,,1,,74,94
26400,note_on,6,0,3,,,,,,,,,,2,,78,95
26400,note_on,0,0,1,,,,,,,,,,0,,78,93
26454,note_on,54,0,3,,,,,,,,,,2,,78,0
26454,note_on,54,0,4,,,,,,,,,,3,,78,0
26460,note_on,6,0,3,,,,,,,,,,2,,62,71
26460,note_on,6,0,4,,,,,,,,,,3,,62,71
26508,note_on,108,0,1,,,,,,,,,,0,,78,0
26508,note_on,0,0,1,,,,,,,,,,0,,74,0
26508,note_on,108,0,6,,,,,,,,,,5,,38,0
26508,note_on,168,0,5,,,,,,,,,,4,,69,0
26508,note_on,108,0,2,,,,,,,,,,1,,78,0
26508,note_on,0,0,2,,,,,,,,,,1,,74,0
26514,note_on,54,0,3,,,,,,,,,,2,,62,0
26514,note_on,54,0,4,,,,,,,,,,3,,62,0
26520,note_on,6,0,4,,,,,,,,,,3,,66,105
26520,note_on,6,0,3,,,,,,,,,,2,,66,104
26574,note_on,54,0,3,,,,,,,,,,2,,66,0
26574,note_on,54,0,4,,,,,,,,,,3,,66,0
26580,note_on,6,0,4,,,,,,,,,,3,,69,104
26580,note_on,6,0,3,,,,,,,,,,2,,69,104
26634,note_on,54,0,4,,,,,,,,,,3,,69,0
26634,note_on,54,0,3,,,,,,,,,,2,,69,0
26640,note_on,6,0,3,,,,,,,,,,2,,74,113
26640,note_on,0,0,2,,,,,,,,,,1,,81,85
26640,note_on,132,0,2,,,,,,,,,,1,,69,87
26640,note_on,132,0,6,,,,,,,,,,5,,50,88
26640,note_on,132,0,1,,,,,,,,,,0,,74,88
26640,note_on,132,0,5,,,,,,,,,,4,,69,90
26640,note_on,6,0,4,,,,,,,,,,3,,74,114
26694,note_on,54,0,6,,,,,,,,,,5,,50,0
26694,note_on,54,0,5,,,,,,,,,,4,,69,0
26700,note_on,6,0,6,,,,,,,,,,5,,45,83
26700,note_on,6,0,5,,,,,,,,,,4,,69,94
26721,note_on,81,0,3,,,,,,,,,,2,,74,0
26721,note_on,81,0,1,,,,,,,,,,0,,74,0
26721,note_on,81,0,4,,,,,,,,,,3,,74,0
26730,note_on,9,0,1,,,,,,,,,,0,,76,101
26730,note_on,9,0,4,,,,,,,,,,3,,76,104
26730,note_on,9,0,3,,,,,,,,,,2,,76,102
26754,note_on,54,0,5,,,,,,,,,,4,,69,0
26754,note_on,54,0,6,,,,,,,,,,5,,45,0
26757,note_on,27,0,4,,,,,,,,,,3,,76,0
26757,note_on,27,0,1,,,,,,,,,,0,,76,0
26757,note_on,27,0,3,,,,,,,,,,2,,76,0
26760,note_on,3,0,1,,,,,,,,,,0,,76,99
26760,note_on,3,0,3,,,,,,,,,,2,,76,99
26760,note_on,6,0,5,,,,,,,,,,4,,69,99
26760,note_on,6,0,6,,,,,,,,,,5,,49,105
26760,note_on,3,0,4,,,,,,,,,,3,,76,99
26773,note_on,13,0,3,,,,,,,,,,2,,76,0
26773,note_on,13,0,4,,,,,,,,,,3,,76,0
26773,note_on,13,0,1,,,,,,,,,,0,,76,0
26775,note_on,2,0,1,,,,,,,,,,0,,78,104
26775,note_on,2,0,4,,,,,,,,,,3,,78,100
26775,note_on,2,0,3,,,,,,,,,,2,,78,100
26788,note_on,13,0,4,,,,,,,,,,3,,78,0
26788,note_on,13,0,3,,,,,,,,,,2,,78,0
26788,note_on,13,0,1,,,,,,,,,,0,,78,0
26790,note_on,2,0,3,,,,,,,,,,2,,76,92
26790,note_on,2,0,4,,,,,,,,,,3,,76,88
26790,note_on,2,0,1,,,,,,,,,,0,,76,88
26803,note_on,13,0,3,,,,,,,,,,2,,76,0
26803,note_on,13,0,4,,,,,,,,,,3,,76,0
26803,note_on,13,0,1,,,,,,,,,,0,,76,0
26805,note_on,2,0,3,,,,,,,,,,2,,78,101
26805,note_on,2,0,1,,,,,,,,,,0,,78,99
26805,note_on,2,0,4,,,,,,,,,,3,,78,100
26814,note_on,54,0,6,,,,,,,,,,5,,49,0
26814,note_on,54,0,5,,,,,,,,,,4,,69,0
26818,note_on,13,0,4,,,,,,,,,,3,,78,0
26818,note_on,13,0,1,,,,,,,,,,0,,78,0
26818,note_on,13,0,3,,,,,,,,,,2,,78,0
26820,note_on,6,0,5,,,,,,,,,,4,,69,95
26820,note_on,2,0,4,,,,,,,,,,3,,76,89
26820,note_on,2,0,3,,,,,,,,,,2,,76,90
26820,note_on,6,0,6,,,,,,,,,,5,,45,89
26820,note_on,2,0,1,,,,,,,,,,0,,76,92
26833,note_on,13,0,4,,,,,,,,,,3,,76,0
26833,note_on,13,0,3,,,,,,,,,,2,,76,0
26833,note_on,13,0,1,,,,,,,,,,0,,76,0
26835,note_on,2,0,3,,,,,,,,,,2,,78,100
26835,note_on,2,0,1,,,,,,,,,,0,,78,102
26835,note_on,2,0,4,,,,,,,,,,3,,78,103
26848,note_on,13,0,4,,,,,,,,,,3,,78,0
26848,note_on,13,0,1,,,,,,,,,,0,,78,0
26848,note_on,13,0,3,,,,,,,,,,2,,78,0
26850,note_on,2,0,1,,,,,,,,,,0,,74,85
26850,note_on,2,0,3,,,,,,,,,,2,,74,85
26850,note_on,2,0,4,,,,,,,,,,3,,74,86
26856,note_on,216,0,2,,,,,,,,,,1,,81,0
26856,note_on,0,0,2,,,,,,,,,,1,,69,0
26863,note_on,13,0,4,,,,,,,,,,3,,74,0
26863,note_on,13,0,1,,,,,,,,,,0,,74,0
26863,note_on,13,0,3,,,,,,,,,,2,,74,0
26865,note_on,2,0,1,,,,,,,,,,0,,76,100
26865,note_on,2,0,3,,,,,,,,,,2,,76,102
26865,note_on,2,0,4,,,,,,,,,,3,,76,99
26874,note_on,54,0,6,,,,,,,,,,5,,45,0
26874,note_on,54,0,5,,,,,,,,,,4,,69,0
26878,note_on,13,0,4,,,,,,,,,,3,,76,0
26878,note_on,13,0,3,,,,,,,,,,2,,76,0
26878,note_on,13,0,1,,,,,,,,,,0,,76,0
26880,note_on,2,0,3,,,,,,,,,,2,,78,107
26880,note_on,2,0,4,,,,,,,,,,3,,78,105
26880,note_on,6,0,5,,,,,,,,,,4,,69,101
26880,note_on,24,0,2,,,,,,,,,,1,,69,97
26880,note_on,0,0,2,,,,,,,,,,1,,81,96
26880,note_on,2,0,1,,,,,,,,,,0,,78,104
26880,note_on,6,0,6,,,,,,,,,,5,,50,108
26934,note_on,54,0,3,,,,,,,,,,2,,78,0
26934,note_on,54,0,4,,,,,,,,,,3,,78,0
26940,note_on,6,0,4,,,,,,,,,,3,,66,71
26940,note_on,6,0,3,,,,,,,,,,2,,66,68
26988,note_on,0,0,2,,,,,,,,,,1,,69,0
26988,note_on,108,0,6,,,,,,,,,,5,,50,0
26988,note_on,108,0,1,,,,,,,,,,0,,78,0
26988,note_on,108,0,2,,,,,,,,,,1,,81,0
26988,note_on,108,0,5,,,,,,,,,,4,,69,0
26994,note_on,54,0,4,,,,,,,,,,3,,66,0
26994,note_on,54,0,3,,,,,,,,,,2,,66,0
27000,note_on,6,0,4,,,,,,,,,,3,,69,101
27000,note_on,6,0,3,,,,,,,,,,2,,69,103
27054,note_on,54,0,4,,,,,,,,,,3,,69,0
27054,note_on,54,0,3,,,,,,,,,,2,,69,0
27060,note_on,6,0,4,,,,,,,,,,3,,74,109
27060,note_on,6,0,3,,,,,,,,,,2,,74,109
27114,note_on,54,0,4,,,,,,,,,,3,,74,0
27114,note_on,54,0,3,,,,,,,,,,2,,74,0
27120,note_on,132,0,6,,,,,,,,,,5,,50,86
27120,note_on,6,0,3,,,,,,,,,,2,,78,110
27120,note_on,6,0,4,,,,,,,,,,3,,78,111
27120,note_on,0,0,2,,,,,,,,,,1,,78,88
27120,note_on,132,0,1,,,,,,,,,,0,,78,90
27120,note_on,132,0,2,,,,,,,,,,1,,74,88
27174,note_on,54,0,6,,,,,,,,,,5,,50,0
27180,note_on,6,0,6,,,,,,,,,,5,,50,94
27180,note_on,192,0,5,,,,,,,,,,4,,62,86
27201,note_on,81,0,4,,,,,,,,,,3,,78,0
27201,note_on,81,0,1,,,,,,,,,,0,,78,0
27201,note_on,81,0,3,,,,,,,,,,2,,78,0
27210,note_on,9,0,3,,,,,,,,,,2,,80,105
27210,note_on,9,0,4,,,,,,,,,,3,,80,103
27210,note_on,9,0,1,,,,,,,,,,0,,80,101
27228,note_on,108,0,2,,,,,,,,,,1,,78,0
27228,note_on,0,0,2,,,,,,,,,,1,,74,0
27234,note_on,54,0,5,,,,,,,,,,4,,62,0
27234,note_on,54,0,6,,,,,,,,,,5,,50,0
27237,note_on,27,0,3,,,,,,,,,,2,,80,0
27237,note_on,27,0,4,,,,,,,,,,3,,80,0
27237,note_on,27,0,1,,,,,,,,,,0,,80,0
27240,note_on,0,0,2,,,,,,,,,,1,,80,100
27240,note_on,6,0,6,,,,,,,,,,5,,47,89
27240,note_on,6,0,5,,,,,,,,,,4,,74,124
27240,note_on,3,0,1,,,,,,,,,,0,,80,100
27240,note_on,3,0,3,,,,,,,,,,2,,80,98
27240,note_on,12,0,2,,,,,,,,,,1,,74,99
27240,note_on,3,0,4,,,,,,,,,,3,,80,101
27253,note_on,13,0,1,,,,,,,,,,0,,80,0
27253,note_on,13,0,3,,,,,,,,,,2,,80,0
27253,note_on,13,0,4,,,,,,,,,,3,,80,0
27255,note_on,2,0,1,,,,,,,,,,0,,81,99
27255,note_on,2,0,3,,,,,,,,,,2,,81,99
27255,note_on,2,0,4,,,,,,,,,,3,,81,102
27268,note_on,13,0,1,,,,,,,,,,0,,81,0
27268,note_on,13,0,4,,,,,,,,,,3,,81,0
27268,note_on,13,0,3,,,,,,,,,,2,,81,0
27270,note_on,2,0,3,,,,,,,,,,2,,80,92
27270,note_on,2,0,4,,,,,,,,,,3,,80,92
27270,note_on,2,0,1,,,,,,,,,,0,,80,92
27283,note_on,13,0,4,,,,,,,,,,3,,80,0
27283,note_on,13,0,3,,,,,,,,,,2,,80,0
27283,note_on,13,0,1,,,,,,,,,,0,,80,0
27285,note_on,2,0,4,,,,,,,,,,3,,81,99
27285,note_on,2,0,1,,,,,,,,,,0,,81,99
27285,note_on,2,0,3,,,,,,,,,,2,,81,99
27294,note_on,54,0,6,,,,,,,,,,5,,47,0
27294,note_on,54,0,5,,,,,,,,,,4,,74,0
27298,note_on,13,0,1,,,,,,,,,,0,,81,0
27298,note_on,13,0,3,,,,,,,,,,2,,81,0
27298,note_on,13,0,4,,,,,,,,,,3,,81,0
27300,note_on,2,0,3,,,,,,,,,,2,,80,92
27300,note_on,2,0,1,,,,,,,,,,0,,80,94
27300,note_on,2,0,4,,,,,,,,,,3,,80,92
27300,note_on,6,0,6,,,,,,,,,,5,,47,96
27300,note_on,6,0,5,,,,,,,,,,4,,74,98
27313,note_on,13,0,3,,,,,,,,,,2,,80,0
27313,note_on,13,0,4,,,,,,,,,,3,,80,0
27313,note_on,13,0,1,,,,,,,,,,0,,80,0
27315,note_on,2,0,3,,,,,,,,,,2,,81,100
27315,note_on,2,0,4,,,,,,,,,,3,,81,98
27315,note_on,2,0,1,,,,,,,,,,0,,81,100
27328,note_on,13,0,1,,,,,,,,,,0,,81,0
27328,note_on,13,0,3,,,,,,,,,,2,,81,0
27328,note_on,13,0,4,,,,,,,,,,3,,81,0
27330,note_on,2,0,4,,,,,,,,,,3,,78,88
27330,note_on,2,0,1,,,,,,,,,,0,,78,88
27330,note_on,2,0,3,,,,,,,,,,2,,78,90
27343,note_on,13,0,4,,,,,,,,,,3,,78,0
27343,note_on,13,0,1,,,,,,,,,,0,,78,0
27343,note_on,13,0,3,,,,,,,,,,2,,78,0
27345,note_on,2,0,1,,,,,,,,,,0,,80,100
27345,note_on,2,0,3,,,,,,,,,,2,,80,99
27345,note_on,2,0,4,,,,,,,,,,3,,80,102
27348,note_on,0,0,2,,,,,,,,,,1,,74,0
27348,note_on,108,0,2,,,,,,,,,,1,,80,0
27354,note_on,54,0,6,,,,,,,,,,5,,47,0
27354,note_on,54,0,5,,,,,,,,,,4,,74,0
27358,note_on,13,0,1,,,,,,,,,,0,,80,0
27358,note_on,13,0,3,,,,,,,,,,2,,80,0
27358,note_on,13,0,4,,,,,,,,,,3,,80,0
27360,note_on,0,0,2,,,,,,,,,,1,,81,104
27360,note_on,2,0,1,,,,,,,,,,0,,81,104
27360,note_on,2,0,3,,,,,,,,,,2,,81,104
27360,note_on,12,0,2,,,,,,,,,,1,,69,103
27360,note_on,6,0,6,,,,,,,,,,5,,45,94
27360,note_on,6,0,5,,,,,,,,,,4,,69,87
27360,note_on,2,0,4,,,,,,,,,,3,,81,105
27414,note_on,54,0,5,,,,,,,,,,4,,69,0
27414,note_on,54,0,2,,,,,,,,,,1,,81,0
27414,note_on,0,0,2,,,,,,,,,,1,,69,0
27414,note_on,54,0,1,,,,,,,,,,0,,81,0
27414,note_on,54,0,6,,,,,,,,,,5,,45,0
27414,note_on,54,0,3,,,,,,,,,,2,,81,0
27414,note_on,54,0,4,,,,,,,,,,3,,81,0
27420,note_on,6,0,5,,,,,,,,,,4,,62,77
27420,note_on,6,0,3,,,,,,,,,,2,,62,69
27420,note_on,6,0,6,,,,,,,,,,5,,38,78
27420,note_on,6,0,4,,,,,,,,,,3,,62,70
27420,note_on,6,0,1,,,,,,,,,,0,,62,71
27420,note_on,6,0,2,,,,,,,,,,1,,62,78
27420,note_on,0,0,2,,,,,,,,,,1,,74,77
27474,note_on,54,0,2,,,,,,,,,,1,,74,0
27474,note_on,54,0,6,,,,,,,,,,5,,38,0
27474,note_on,54,0,3,,,,,,,,,,2,,62,0
27474,note_on,54,0,4,,,,,,,,,,3,,62,0
27474,note_on,54,0,1,,,,,,,,,,0,,62,0
27474,note_on,54,0,5,,,,,,,,,,4,,62,0
27474,note_on,0,0,2,,,,,,,,,,1,,62,0
27480,note_on,6,0,6,,,,,,,,,,5,,42,106
27480,note_on,6,0,5,,,,,,,,,,4,,66,106
27480,note_on,6,0,1,,,,,,,,,,0,,66,106
27480,note_on,6,0,4,,,,,,,,,,3,,66,106
27480,note_on,0,0,2,,,,,,,,,,1,,78,106
27480,note_on,6,0,2,,,,,,,,,,1,,69,107
27480,note_on,6,0,3,,,,,,,,,,2,,66,105
27534,note_on,54,0,4,,,,,,,,,,3,,66,0
27534,note_on,54,0,1,,,,,,,,,,0,,66,0
27534,note_on,54,0,5,,,,,,,,,,4,,66,0
27534,note_on,54,0,2,,,,,,,,,,1,,78,0
27534,note_on,0,0,2,,,,,,,,,,1,,69,0
27534,note_on,54,0,3,,,,,,,,,,2,,66,0
27534,note_on,54,0,6,,,,,,,,,,5,,42,0
27540,note_on,6,0,3,,,,,,,,,,2,,69,104
27540,note_on,6,0,6,,,,,,,,,,5,,45,104
27540,note_on,0,0,2,,,,,,,,,,1,,74,86
27540,note_on,6,0,5,,,,,,,,,,4,,69,103
27540,note_on,6,0,2,,,,,,,,,,1,,62,87
27540,note_on,6,0,1,,,,,,,,,,0,,69,107
27540,note_on,6,0,4,,,,,,,,,,3,,69,104
27594,note_on,54,0,4,,,,,,,,,,3,,69,0
27594,note_on,54,0,1,,,,,,,,,,0,,69,0
27594,note_on,54,0,6,,,,,,,,,,5,,45,0
27594,note_on,54,0,3,,,,,,,,,,2,,69,0
27594,note_on,54,0,5,,,,,,,,,,4,,69,0
27600,note_on,6,0,5,,,,,,,,,,4,,74,112
27600,note_on,6,0,4,,,,,,,,,,3,,74,115
27600,note_on,6,0,6,,,,,,,,,,5,,50,113
27600,note_on,6,0,3,,,,,,,,,,2,,74,111
27600,note_on,6,0,1,,,,,,,,,,0,,74,113
27681,note_on,81,0,4,,,,,,,,,,3,,74,0
27681,note_on,81,0,6,,,,,,,,,,5,,50,0
27681,note_on,81,0,5,,,,,,,,,,4,,74,0
27681,note_on,81,0,3,,,,,,,,,,2,,74,0
27681,note_on,81,0,1,,,,,,,,,,0,,74,0
27690,note_on,9,0,5,,,,,,,,,,4,,68,84
27690,note_on,9,0,6,,,,,,,,,,5,,44,82
27690,note_on,9,0,3,,,,,,,,,,2,,68,82
27690,note_on,9,0,4,,,,,,,,,,3,,68,84
27690,note_on,9,0,1,,,,,,,,,,0,,68,81
27717,note_on,27,0,3,,,,,,,,,,2,,68,0
27717,note_on,27,0,5,,,,,,,,,,4,,68,0
27717,note_on,27,0,4,,,,,,,,,,3,,68,0
27717,note_on,27,0,6,,,,,,,,,,5,,44,0
27717,note_on,27,0,1,,,,,,,,,,0,,68,0
27720,note_on,3,0,6,,,,,,,,,,5,,44,95
27720,note_on,3,0,3,,,,,,,,,,2,,68,95
27720,note_on,3,0,4,,,,,,,,,,3,,68,94
27720,note_on,3,0,5,,,,,,,,,,4,,68,96
27720,note_on,3,0,1,,,,,,,,,,0,,68,97
27733,note_on,13,0,3,,,,,,,,,,2,,68,0
27733,note_on,13,0,5,,,,,,,,,,4,,68,0
27733,note_on,13,0,6,,,,,,,,,,5,,44,0
27733,note_on,13,0,4,,,,,,,,,,3,,68,0
27733,note_on,13,0,1,,,,,,,,,,0,,68,0
27735,note_on,2,0,6,,,,,,,,,,5,,45,98
27735,note_on,2,0,1,,,,,,,,,,0,,69,102
27735,note_on,2,0,5,,,,,,,,,,4,,69,98
27735,note_on,2,0,4,,,,,,,,,,3,,69,101
27735,note_on,2,0,3,,,,,,,,,,2,,69,100
27748,note_on,13,0,3,,,,,,,,,,2,,69,0
27748,note_on,13,0,5,,,,,,,,,,4,,69,0
27748,note_on,13,0,1,,,,,,,,,,0,,69,0
27748,note_on,13,0,4,,,,,,,,,,3,,69,0
27748,note_on,13,0,6,,,,,,,,,,5,,45,0
27750,note_on,2,0,6,,,,,,,,,,5,,44,91
27750,note_on,2,0,5,,,,,,,,,,4,,68,93
27750,note_on,2,0,1,,,,,,,,,,0,,68,94
27750,note_on,2,0,4,,,,,,,,,,3,,68,92
27750,note_on,2,0,3,,,,,,,,,,2,,68,93
27756,note_on,0,0,2,,,,,,,,,,1,,62,0
27756,note_on,216,0,2,,,,,,,,,,1,,74,0
27763,note_on,13,0,5,,,,,,,,,,4,,68,0
27763,note_on,13,0,4,,,,,,,,,,3,,68,0
27763,note_on,13,0,3,,,,,,,,,,2,,68,0
27763,note_on,13,0,6,,,,,,,,,,5,,44,0
27763,note_on,13,0,1,,,,,,,,,,0,,68,0
27765,note_on,2,0,4,,,,,,,,,,3,,69,98
27765,note_on,2,0,6,,,,,,,,,,5,,45,98
27765,note_on,2,0,1,,,,,,,,,,0,,69,101
27765,note_on,2,0,5,,,,,,,,,,4,,69,100
27765,note_on,2,0,3,,,,,,,,,,2,,69,100
27778,note_on,13,0,3,,,,,,,,,,2,,69,0
27778,note_on,13,0,1,,,,,,,,,,0,,69,0
27778,note_on,13,0,4,,,,,,,,,,3,,69,0
27778,note_on,13,0,5,,,,,,,,,,4,,69,0
27778,note_on,13,0,6,,,,,,,,,,5,,45,0
27780,note_on,2,0,4,,,,,,,,,,3,,68,91
27780,note_on,2,0,6,,,,,,,,,,5,,44,92
27780,note_on,2,0,5,,,,,,,,,,4,,68,94
27780,note_on,2,0,1,,,,,,,,,,0,,68,93
27780,note_on,2,0,3,,,,,,,,,,2,,68,92
27793,note_on,13,0,3,,,,,,,,,,2,,68,0
27793,note_on,13,0,6,,,,,,,,,,5,,44,0
27793,note_on,13,0,1,,,,,,,,,,0,,68,0
27793,note_on,13,0,5,,,,,,,,,,4,,68,0
27793,note_on,13,0,4,,,,,,,,,,3,,68,0
27795,note_on,2,0,6,,,,,,,,,,5,,45,99
27795,note_on,2,0,5,,,,,,,,,,4,,69,99
27795,note_on,2,0,1,,,,,,,,,,0,,69,101
27795,note_on,2,0,4,,,,,,,,,,3,,69,100
27795,note_on,2,0,3,,,,,,,,,,2,,69,100
27808,note_on,13,0,5,,,,,,,,,,4,,69,0
27808,note_on,13,0,3,,,,,,,,,,2,,69,0
27808,note_on,13,0,1,,,,,,,,,,0,,69,0
27808,note_on,13,0,6,,,,,,,,,,5,,45,0
27808,note_on,13,0,4,,,,,,,,,,3,,69,0
27810,note_on,2,0,6,,,,,,,,,,5,,42,86
27810,note_on,2,0,3,,,,,,,,,,2,,66,90
27810,note_on,2,0,4,,,,,,,,,,3,,66,89
27810,note_on,2,0,1,,,,,,,,,,0,,66,89
27810,note_on,2,0,5,,,,,,,,,,4,,66,90
27823,note_on,13,0,3,,,,,,,,,,2,,66,0
27823,note_on,13,0,5,,,,,,,,,,4,,66,0
27823,note_on,13,0,1,,,,,,,,,,0,,66,0
27823,note_on,13,0,6,,,,,,,,,,5,,42,0
27823,note_on,13,0,4,,,,,,,,,,3,,66,0
27825,note_on,2,0,4,,,,,,,,,,3,,68,102
27825,note_on,2,0,1,,,,,,,,,,0,,68,100
27825,note_on,2,0,5,,,,,,,,,,4,,68,102
27825,note_on,2,0,6,,,,,,,,,,5,,44,99
27825,note_on,2,0,3,,,,,,,,,,2,,68,101
27838,note_on,13,0,5,,,,,,,,,,4,,68,0
27838,note_on,13,0,6,,,,,,,,,,5,,44,0
27838,note_on,13,0,4,,,,,,,,,,3,,68,0
27838,note_on,13,0,1,,,,,,,,,,0,,68,0
27838,note_on,13,0,3,,,,,,,,,,2,,68,0
27840,note_on,2,0,6,,,,,,,,,,5,,45,102
27840,note_on,84,0,2,,,,,,,,,,1,,57,88
27840,note_on,2,0,4,,,,,,,,,,3,,69,102
27840,note_on,2,0,5,,,,,,,,,,4,,69,103
27840,note_on,0,0,2,,,,,,,,,,1,,69,88
27840,note_on,2,0,3,,,,,,,,,,2,,69,103
27840,note_on,2,0,1,,,,,,,,,,0,,69,103
27948,note_on,108,0,4,,,,,,,,,,3,,69,0
27948,note_on,108,0,5,,,,,,,,,,4,,69,0
27948,note_on,108,0,6,,,,,,,,,,5,,45,0
27948,note_on,0,0,2,,,,,,,,,,1,,57,0
27948,note_on,108,0,2,,,,,,,,,,1,,69,0
27948,note_on,108,0,1,,,,,,,,,,0,,69,0
27948,note_on,108,0,3,,,,,,,,,,2,,69,0
27960,note_on,12,0,1,,,,,,,,,,0,,64,108
27960,note_on,12,0,2,,,,,,,,,,1,,57,94
27960,note_on,0,0,2,,,,,,,,,,1,,69,96
27960,note_on,12,0,5,,,,,,,,,,4,,69,94
27960,note_on,0,0,4,,,,,,,,,,3,,69,96
27960,note_on,0,0,4,,,,,,,,,,3,,64,98
27960,note_on,12,0,4,,,,,,,,,,3,,57,96
27960,note_on,0,0,3,,,,,,,,,,2,,69,95
27960,note_on,0,0,1,,,,,,,,,,0,,73,106
27960,note_on,12,0,6,,,,,,,,,,5,,33,68
27960,note_on,0,0,3,,,,,,,,,,2,,64,95
27960,note_on,12,0,3,,,,,,,,,,2,,57,94
28068,note_on,0,0,3,,,,,,,,,,2,,64,0
28068,note_on,108,0,1,,,,,,,,,,0,,73,0
28068,note_on,0,0,1,,,,,,,,,,0,,64,0
28068,note_on,108,0,2,,,,,,,,,,1,,69,0
28068,note_on,108,0,5,,,,,,,,,,4,,69,0
28068,note_on,0,0,4,,,,,,,,,,3,,57,0
28068,note_on,0,0,4,,,,,,,,,,3,,64,0
28068,note_on,108,0,3,,,,,,,,,,2,,69,0
28068,note_on,108,0,6,,,,,,,,,,5,,33,0
28068,note_on,108,0,4,,,,,,,,,,3,,69,0
28068,note_on,0,0,2,,,,,,,,,,1,,57,0
28068,note_on,0,0,3,,,,,,,,,,2,,57,0
28080,note_on,0,0,4,,,,,,,,,,3,,69,96
28080,note_on,12,0,3,,,,,,,,,,2,,57,94
28080,note_on,0,0,3,,,,,,,,,,2,,64,96
28080,note_on,0,0,3,,,,,,,,,,2,,69,98
28080,note_on,12,0,6,,,,,,,,,,5,,33,92
28080,note_on,0,0,2,,,,,,,,,,1,,69,96
28080,note_on,12,0,5,,,,,,,,,,4,,69,95
28080,note_on,0,0,4,,,,,,,,,,3,,64,96
28080,note_on,12,0,4,,,,,,,,,,3,,57,94
28080,note_on,0,0,1,,,,,,,,,,0,,73,97
28080,note_on,12,0,1,,,,,,,,,,0,,64,98
28080,note_on,12,0,2,,,,,,,,,,1,,57,96
28188,note_on,0,0,3,,,,,,,,,,2,,57,0
28188,note_on,0,0,3,,,,,,,,,,2,,64,0
28188,note_on,108,0,3,,,,,,,,,,2,,69,0
28188,note_on,0,0,4,,,,,,,,,,3,,64,0
28188,note_on,108,0,2,,,,,,,,,,1,,69,0
28188,note_on,108,0,4,,,,,,,,,,3,,69,0
28188,note_on,108,0,6,,,,,,,,,,5,,33,0
28188,note_on,108,0,5,,,,,,,,,,4,,69,0
28188,note_on,0,0,2,,,,,,,,,,1,,57,0
28188,note_on,0,0,1,,,,,,,,,,0,,64,0
28188,note_on,108,0,1,,,,,,,,,,0,,73,0
28188,note_on,0,0,4,,,,,,,,,,3,,57,0
28320,note_on,132,0,3,,,,,,,,,,2,,73,48
28320,note_on,132,0,6,,,,,,,,,,5,,45,46
28320,note_on,132,0,2,,,,,,,,,,1,,57,45
28320,note_on,0,0,2,,,,,,,,,,1,,69,45
28320,note_on,132,0,5,,,,,,,,,,4,,69,46
28374,note_on,54,0,3,,,,,,,,,,2,,73,0
28374,note_on,54,0,6,,,,,,,,,,5,,45,0
28374,note_on,54,0,5,,,,,,,,,,4,,69,0
28380,note_on,6,0,5,,,,,,,,,,4,,69,48
28380,note_on,6,0,6,,,,,,,,,,5,,47,50
28380,note_on,6,0,3,,,,,,,,,,2,,74,48
28434,note_on,54,0,6,,,,,,,,,,5,,47,0
28434,note_on,54,0,3,,,,,,,,,,2,,74,0
28434,note_on,54,0,5,,,,,,,,,,4,,69,0
28440,note_on,6,0,6,,,,,,,,,,5,,49,53
28440,note_on,6,0,3,,,,,,,,,,2,,76,52
28440,note_on,6,0,5,,,,,,,,,,4,,69,50
28494,note_on,54,0,3,,,,,,,,,,2,,76,0
28494,note_on,54,0,6,,,,,,,,,,5,,49,0
28494,note_on,54,0,5,,,,,,,,,,4,,69,0
28500,note_on,6,0,5,,,,,,,,,,4,,69,48
28500,note_on,6,0,3,,,,,,,,,,2,,78,50
28500,note_on,6,0,6,,,,,,,,,,5,,50,50
28554,note_on,54,0,5,,,,,,,,,,4,,69,0
28554,note_on,54,0,3,,,,,,,,,,2,,78,0
28554,note_on,54,0,6,,,,,,,,,,5,,50,0
28560,note_on,6,0,3,,,,,,,,,,2,,79,50
28560,note_on,6,0,6,,,,,,,,,,5,,52,52
28560,note_on,6,0,5,,,,,,,,,,4,,69,52
28614,note_on,54,0,5,,,,,,,,,,4,,69,0
28620,note_on,6,0,5,,,,,,,,,,4,,69,49
28668,note_on,108,0,3,,,,,,,,,,2,,79,0
28668,note_on,108,0,6,,,,,,,,,,5,,52,0
28674,note_on,54,0,5,,,,,,,,,,4,,69,0
28680,note_on,6,0,5,,,,,,,,,,4,,69,52
28734,note_on,54,0,5,,,,,,,,,,4,,69,0
28740,note_on,6,0,5,,,,,,,,,,4,,69,49
28794,note_on,54,0,5,,,,,,,,,,4,,69,0
28800,note_on,612,0,1,,,,,,,,,,0,,76,48
28800,note_on,132,0,3,,,,,,,,,,2,,79,45
28800,note_on,0,0,1,,,,,,,,,,0,,79,46
28800,note_on,6,0,5,,,,,,,,,,4,,69,51
28800,note_on,612,0,4,,,,,,,,,,3,,76,89
28829,note_on,29,0,3,,,,,,,,,,2,,79,0
28829,note_on,29,0,1,,,,,,,,,,0,,79,0
28829,note_on,0,0,1,,,,,,,,,,0,,76,0
28829,note_on,29,0,4,,,,,,,,,,3,,76,0
28854,note_on,54,0,5,,,,,,,,,,4,,69,0
28860,note_on,31,0,4,,,,,,,,,,3,,74,87
28860,note_on,31,0,3,,,,,,,,,,2,,78,44
28860,note_on,31,0,1,,,,,,,,,,0,,74,44
28860,note_on,6,0,5,,,,,,,,,,4,,69,50
28860,note_on,0,0,1,,,,,,,,,,0,,78,46
28889,note_on,29,0,4,,,,,,,,,,3,,74,0
28889,note_on,0,0,1,,,,,,,,,,0,,74,0
28889,note_on,29,0,1,,,,,,,,,,0,,78,0
28889,note_on,29,0,3,,,,,,,,,,2,,78,0
28914,note_on,54,0,5,,,,,,,,,,4,,69,0
28920,note_on,6,0,5,,,,,,,,,,4,,69,50
28920,note_on,0,0,1,,,,,,,,,,0,,76,48
28920,note_on,31,0,1,,,,,,,,,,0,,73,47
28920,note_on,31,0,4,,,,,,,,,,3,,73,91
28920,note_on,31,0,3,,,,,,,,,,2,,76,47
28949,note_on,29,0,3,,,,,,,,,,2,,76,0
28949,note_on,0,0,1,,,,,,,,,,0,,73,0
28949,note_on,29,0,4,,,,,,,,,,3,,73,0
28949,note_on,29,0,1,,,,,,,,,,0,,76,0
28974,note_on,54,0,5,,,,,,,,,,4,,69,0
28980,note_on,31,0,4,,,,,,,,,,3,,74,97
28980,note_on,0,0,1,,,,,,,,,,0,,78,49
28980,note_on,31,0,3,,,,,,,,,,2,,78,49
28980,note_on,31,0,1,,,,,,,,,,0,,74,52
28980,note_on,6,0,5,,,,,,,,,,4,,69,49
29009,note_on,29,0,1,,,,,,,,,,0,,78,0
29009,note_on,0,0,1,,,,,,,,,,0,,74,0
29009,note_on,29,0,3,,,,,,,,,,2,,78,0
29009,note_on,29,0,4,,,,,,,,,,3,,74,0
29034,note_on,54,0,5,,,,,,,,,,4,,69,0
29040,note_on,31,0,3,,,,,,,,,,2,,79,50
29040,note_on,31,0,1,,,,,,,,,,0,,76,49
29040,note_on,0,0,1,,,,,,,,,,0,,79,50
29040,note_on,6,0,5,,,,,,,,,,4,,69,50
29040,note_on,31,0,4,,,,,,,,,,3,,76,106
29094,note_on,54,0,5,,,,,,,,,,4,,69,0
29094,note_on,54,0,4,,,,,,,,,,3,,76,0
29100,note_on,6,0,5,,,,,,,,,,4,,69,48
29136,note_on,816,0,2,,,,,,,,,,1,,69,0
29136,note_on,0,0,2,,,,,,,,,,1,,57,0
29148,note_on,108,0,3,,,,,,,,,,2,,79,0
29148,note_on,108,0,1,,,,,,,,,,0,,79,0
29148,note_on,0,0,1,,,,,,,,,,0,,76,0
29154,note_on,54,0,5,,,,,,,,,,4,,69,0
29160,note_on,6,0,5,,,,,,,,,,4,,69,53
29214,note_on,54,0,5,,,,,,,,,,4,,69,0
29220,note_on,6,0,5,,,,,,,,,,4,,69,46
29274,note_on,54,0,5,,,,,,,,,,4,,69,0
29280,note_on,132,0,1,,,,,,,,,,0,,76,90
29280,note_on,144,0,2,,,,,,,,,,1,,81,91
29280,note_on,0,0,2,,,,,,,,,,1,,69,79
29280,note_on,612,0,6,,,,,,,,,,5,,33,88
29280,note_on,0,0,1,,,,,,,,,,0,,79,88
29280,note_on,6,0,5,,,,,,,,,,4,,69,101
29280,note_on,186,0,4,,,,,,,,,,3,,76,89
29280,note_on,132,0,3,,,,,,,,,,2,,79,90
29309,note_on,29,0,3,,,,,,,,,,2,,79,0
29309,note_on,0,0,1,,,,,,,,,,0,,76,0
29309,note_on,29,0,4,,,,,,,,,,3,,76,0
29309,note_on,29,0,1,,,,,,,,,,0,,79,0
29334,note_on,54,0,6,,,,,,,,,,5,,33,0
29340,note_on,0,0,1,,,,,,,,,,0,,78,89
29340,note_on,31,0,1,,,,,,,,,,0,,74,91
29340,note_on,31,0,3,,,,,,,,,,2,,78,90
29340,note_on,6,0,6,,,,,,,,,,5,,33,95
29340,note_on,31,0,4,,,,,,,,,,3,,74,89
29369,note_on,29,0,3,,,,,,,,,,2,,78,0
29369,note_on,29,0,1,,,,,,,,,,0,,78,0
29369,note_on,0,0,1,,,,,,,,,,0,,74,0
29369,note_on,29,0,4,,,,,,,,,,3,,74,0
29394,note_on,54,0,6,,,,,,,,,,5,,33,0
29400,note_on,31,0,4,,,,,,,,,,3,,73,92
29400,note_on,31,0,1,,,,,,,,,,0,,73,93
29400,note_on,0,0,1,,,,,,,,,,0,,76,91
29400,note_on,31,0,3,,,,,,,,,,2,,76,90
29400,note_on,6,0,6,,,,,,,,,,5,,33,99
29429,note_on,29,0,4,,,,,,,,,,3,,73,0
29429,note_on,29,0,1,,,,,,,,,,0,,76,0
29429,note_on,0,0,1,,,,,,,,,,0,,73,0
29429,note_on,29,0,3,,,,,,,,,,2,,76,0
29454,note_on,54,0,6,,,,,,,,,,5,,33,0
29460,note_on,31,0,4,,,,,,,,,,3,,71,87
29460,note_on,31,0,3,,,,,,,,,,2,,74,88
29460,note_on,6,0,6,,,,,,,,,,5,,33,95
29460,note_on,0,0,1,,,,,,,,,,0,,74,87
29460,note_on,31,0,1,,,,,,,,,,0,,71,90
29489,note_on,29,0,3,,,,,,,,,,2,,74,0
29489,note_on,0,0,1,,,,,,,,,,0,,71,0
29489,note_on,29,0,4,,,,,,,,,,3,,71,0
29489,note_on,29,0,1,,,,,,,,,,0,,74,0
29496,note_on,216,0,2,,,,,,,,,,1,,69,0
29514,note_on,54,0,6,,,,,,,,,,5,,33,0
29520,note_on,31,0,1,,,,,,,,,,0,,69,92
29520,note_on,24,0,2,,,,,,,,,,1,,76,111
29520,note_on,0,0,1,,,,,,,,,,0,,73,91
29520,note_on,31,0,3,,,,,,,,,,2,,73,95
29520,note_on,6,0,6,,,,,,,,,,5,,33,100
29520,note_on,31,0,4,,,,,,,,,,3,,69,93
29549,note_on,29,0,3,,,,,,,,,,2,,73,0
29549,note_on,29,0,1,,,,,,,,,,0,,73,0
29549,note_on,0,0,1,,,,,,,,,,0,,69,0
29549,note_on,29,0,4,,,,,,,,,,3,,69,0
29574,note_on,54,0,6,,,,,,,,,,5,,33,0
29580,note_on,31,0,3,,,,,,,,,,2,,71,89
29580,note_on,31,0,1,,,,,,,,,,0,,67,87
29580,note_on,6,0,6,,,,,,,,,,5,,33,97
29580,note_on,31,0,4,,,,,,,,,,3,,67,88
29580,note_on,0,0,1,,,,,,,,,,0,,71,90
29609,note_on,0,0,1,,,,,,,,,,0,,67,0
29609,note_on,29,0,3,,,,,,,,,,2,,71,0
29609,note_on,29,0,1,,,,,,,,,,0,,71,0
29609,note_on,29,0,4,,,,,,,,,,3,,67,0
29634,note_on,54,0,6,,,,,,,,,,5,,33,0
29640,note_on,6,0,6,,,,,,,,,,5,,33,99
29640,note_on,31,0,1,,,,,,,,,,0,,66,92
29640,note_on,31,0,3,,,,,,,,,,2,,69,93
29640,note_on,0,0,1,,,,,,,,,,0,,69,92
29640,note_on,31,0,4,,,,,,,,,,3,,66,91
29669,note_on,0,0,1,,,,,,,,,,0,,66,0
29669,note_on,29,0,3,,,,,,,,,,2,,69,0
29669,note_on,29,0,1,,,,,,,,,,0,,69,0
29669,note_on,29,0,4,,,,,,,,,,3,,66,0
29694,note_on,54,0,6,,,,,,,,,,5,,33,0
29700,note_on,31,0,3,,,,,,,,,,2,,67,89
29700,note_on,6,0,6,,,,,,,,,,5,,33,95
29700,note_on,0,0,1,,,,,,,,,,0,,67,88
29700,note_on,31,0,1,,,,,,,,,,0,,64,89
29700,note_on,31,0,4,,,,,,,,,,3,,64,90
29729,note_on,29,0,1,,,,,,,,,,0,,67,0
29729,note_on,0,0,1,,,,,,,,,,0,,64,0
29729,note_on,29,0,4,,,,,,,,,,3,,64,0
29729,note_on,29,0,3,,,,,,,,,,2,,67,0
29736,note_on,216,0,2,,,,,,,,,,1,,76,0
29736,note_on,456,0,5,,,,,,,,,,4,,69,0
29736,note_on,0,0,2,,,,,,,,,,1,,81,0
29754,note_on,54,0,6,,,,,,,,,,5,,33,0
29760,note_on,0,0,1,,,,,,,,,,0,,66,93
29760,note_on,31,0,1,,,,,,,,,,0,,62,93
29760,note_on,31,0,3,,,,,,,,,,2,,66,92
29760,note_on,0,0,2,,,,,,,,,,1,,81,96
29760,note_on,24,0,2,,,,,,,,,,1,,78,96
29760,note_on,31,0,4,,,,,,,,,,3,,66,105
29760,note_on,6,0,6,,,,,,,,,,5,,38,111
29760,note_on,24,0,5,,,,,,,,,,4,,69,98
29814,note_on,54,0,4,,,,,,,,,,3,,66,0
29814,note_on,54,0,6,,,,,,,,,,5,,38,0
29814,note_on,54,0,3,,,,,,,,,,2,,66,0
29820,note_on,6,0,3,,,,,,,,,,2,,62,83
29820,note_on,6,0,4,,,,,,,,,,3,,62,84
29820,note_on,6,0,6,,,,,,,,,,5,,38,98
29847,note_on,27,0,6,,,,,,,,,,5,,38,0
29847,note_on,27,0,3,,,,,,,,,,2,,62,0
29847,note_on,27,0,4,,,,,,,,,,3,,62,0
29850,note_on,3,0,6,,,,,,,,,,5,,42,106
29850,note_on,3,0,3,,,,,,,,,,2,,66,107
29850,note_on,3,0,4,,,,,,,,,,3,,66,105
29868,note_on,108,0,1,,,,,,,,,,0,,66,0
29868,note_on,0,0,1,,,,,,,,,,0,,62,0
29868,note_on,108,0,5,,,,,,,,,,4,,69,0
29868,note_on,0,0,2,,,,,,,,,,1,,78,0
29868,note_on,108,0,2,,,,,,,,,,1,,81,0
29877,note_on,27,0,3,,,,,,,,,,2,,66,0
29877,note_on,27,0,6,,,,,,,,,,5,,42,0
29877,note_on,27,0,4,,,,,,,,,,3,,66,0
29880,note_on,3,0,6,,,,,,,,,,5,,45,107
29880,note_on,3,0,3,,,,,,,,,,2,,69,106
29880,note_on,0,0,2,,,,,,,,,,1,,78,89
29880,note_on,12,0,1,,,,,,,,,,0,,69,121
29880,note_on,0,0,1,,,,,,,,,,0,,78,121
29880,note_on,12,0,2,,,,,,,,,,1,,74,89
29880,note_on,3,0,4,,,,,,,,,,3,,69,109
29934,note_on,54,0,4,,,,,,,,,,3,,69,0
29934,note_on,54,0,3,,,,,,,,,,2,,69,0
29934,note_on,54,0,6,,,,,,,,,,5,,45,0
29940,note_on,6,0,3,,,,,,,,,,2,,66,89
29940,note_on,6,0,4,,,,,,,,,,3,,66,88
29940,note_on,6,0,6,,,,,,,,,,5,,42,89
29961,note_on,0,0,2,,,,,,,,,,1,,74,0
29961,note_on,81,0,2,,,,,,,,,,1,,78,0
29967,note_on,27,0,4,,,,,,,,,,3,,66,0
29967,note_on,27,0,6,,,,,,,,,,5,,42,0
29967,note_on,27,0,3,,,,,,,,,,2,,66,0
29970,note_on,3,0,3,,,,,,,,,,2,,69,103
29970,note_on,3,0,6,,,,,,,,,,5,,45,105
29970,note_on,3,0,4,,,,,,,,,,3,,69,102
29970,note_on,0,0,2,,,,,,,,,,1,,78,92
29970,note_on,9,0,2,,,,,,,,,,1,,74,92
29988,note_on,108,0,1,,,,,,,,,,0,,78,0
29988,note_on,0,0,1,,,,,,,,,,0,,69,0
29997,note_on,27,0,6,,,,,,,,,,5,,45,0
29997,note_on,0,0,2,,,,,,,,,,1,,74,0
29997,note_on,27,0,2,,,,,,,,,,1,,78,0
29997,note_on,27,0,3,,,,,,,,,,2,,69,0
29997,note_on,27,0,4,,,,,,,,,,3,,69,0
30000,note_on,0,0,1,,,,,,,,,,0,,74,89
30000,note_on,132,0,5,,,,,,,,,,4,,74,90
30000,note_on,0,0,2,,,,,,,,,,1,,78,94
30000,note_on,3,0,6,,,,,,,,,,5,,50,108
30000,note_on,3,0,4,,,,,,,,,,3,,74,109
30000,note_on,3,0,3,,,,,,,,,,2,,74,108
30000,note_on,12,0,1,,,,,,,,,,0,,66,90
30000,note_on,3,0,2,,,,,,,,,,1,,74,96
30054,note_on,54,0,5,,,,,,,,,,4,,74,0
30060,note_on,6,0,5,,,,,,,,,,4,,69,83
30087,note_on,27,0,5,,,,,,,,,,4,,69,0
30090,note_on,3,0,5,,,,,,,,,,4,,66,87
30108,note_on,108,0,2,,,,,,,,,,1,,78,0
30108,note_on,0,0,2,,,,,,,,,,1,,74,0
30108,note_on,108,0,3,,,,,,,,,,2,,74,0
30108,note_on,108,0,6,,,,,,,,,,5,,50,0
30108,note_on,108,0,1,,,,,,,,,,0,,74,0
30108,note_on,108,0,4,,,,,,,,,,3,,74,0
30108,note_on,0,0,1,,,,,,,,,,0,,66,0
30117,note_on,27,0,5,,,,,,,,,,4,,66,0
30120,note_on,3,0,5,,,,,,,,,,4,,62,86
30174,note_on,54,0,5,,,,,,,,,,4,,62,0
30180,note_on,6,0,5,,,,,,,,,,4,,66,106
30207,note_on,27,0,5,,,,,,,,,,4,,66,0
30210,note_on,3,0,5,,,,,,,,,,4,,62,88
30237,note_on,27,0,5,,,,,,,,,,4,,62,0
30240,note_on,132,0,2,,,,,,,,,,1,,57,47
30240,note_on,132,0,3,,,,,,,,,,2,,73,44
30240,note_on,132,0,4,,,,,,,,,,3,,69,45
30240,note_on,0,0,2,,,,,,,,,,1,,69,46
30240,note_on,3,0,5,,,,,,,,,,4,,57,44
30294,note_on,54,0,4,,,,,,,,,,3,,69,0
30294,note_on,54,0,3,,,,,,,,,,2,,73,0
30294,note_on,54,0,5,,,,,,,,,,4,,57,0
30300,note_on,6,0,5,,,,,,,,,,4,,57,47
30300,note_on,6,0,3,,,,,,,,,,2,,74,51
30300,note_on,6,0,4,,,,,,,,,,3,,71,51
30354,note_on,54,0,5,,,,,,,,,,4,,57,0
30354,note_on,54,0,3,,,,,,,,,,2,,74,0
30354,note_on,54,0,4,,,,,,,,,,3,,71,0
30360,note_on,6,0,3,,,,,,,,,,2,,76,55
30360,note_on,6,0,5,,,,,,,,,,4,,57,52
30360,note_on,6,0,4,,,,,,,,,,3,,73,55
30414,note_on,54,0,4,,,,,,,,,,3,,73,0
30414,note_on,54,0,5,,,,,,,,,,4,,57,0
30414,note_on,54,0,3,,,,,,,,,,2,,76,0
30420,note_on,6,0,5,,,,,,,,,,4,,57,49
30420,note_on,6,0,3,,,,,,,,,,2,,78,51
30420,note_on,6,0,4,,,,,,,,,,3,,74,48
30474,note_on,54,0,5,,,,,,,,,,4,,57,0
30474,note_on,54,0,3,,,,,,,,,,2,,78,0
30474,note_on,54,0,4,,,,,,,,,,3,,74,0
30480,note_on,6,0,4,,,,,,,,,,3,,76,52
30480,note_on,6,0,3,,,,,,,,,,2,,79,50
30480,note_on,6,0,5,,,,,,,,,,4,,57,49
30534,note_on,54,0,5,,,,,,,,,,4,,57,0
30540,note_on,6,0,5,,,,,,,,,,4,,57,48
30588,note_on,108,0,4,,,,,,,,,,3,,76,0
30588,note_on,108,0,3,,,,,,,,,,2,,79,0
30594,note_on,54,0,5,,,,,,,,,,4,,57,0
30600,note_on,6,0,5,,,,,,,,,,4,,57,50
30654,note_on,54,0,5,,,,,,,,,,4,,57,0
30660,note_on,6,0,5,,,,,,,,,,4,,57,46
30696,note_on,0,0,2,,,,,,,,,,1,,57,0
30696,note_on,456,0,2,,,,,,,,,,1,,69,0
30714,note_on,54,0,5,,,,,,,,,,4,,57,0
30720,note_on,0,0,1,,,,,,,,,,0,,76,87
30720,note_on,612,0,1,,,,,,,,,,0,,73,88
30720,note_on,0,0,2,,,,,,,,,,1,,76,58
30720,note_on,132,0,3,,,,,,,,,,2,,76,46
30720,note_on,24,0,2,,,,,,,,,,1,,69,56
30720,note_on,132,0,4,,,,,,,,,,3,,73,47
30720,note_on,6,0,5,,,,,,,,,,4,,57,51
30720,note_on,612,0,6,,,,,,,,,,5,,33,90
30749,note_on,29,0,4,,,,,,,,,,3,,73,0
30749,note_on,29,0,3,,,,,,,,,,2,,76,0
30749,note_on,29,0,1,,,,,,,,,,0,,76,0
30749,note_on,0,0,1,,,,,,,,,,0,,73,0
30774,note_on,54,0,5,,,,,,,,,,4,,57,0
30774,note_on,0,0,2,,,,,,,,,,1,,69,0
30774,note_on,54,0,2,,,,,,,,,,1,,76,0
30780,note_on,31,0,3,,,,,,,,,,2,,78,52
30780,note_on,6,0,5,,,,,,,,,,4,,57,47
30780,note_on,31,0,4,,,,,,,,,,3,,74,48
30780,note_on,6,0,2,,,,,,,,,,1,,74,52
30780,note_on,31,0,1,,,,,,,,,,0,,74,101
30780,note_on,0,0,1,,,,,,,,,,0,,78,102
30780,note_on,0,0,2,,,,,,,,,,1,,78,51
30809,note_on,29,0,4,,,,,,,,,,3,,74,0
30809,note_on,29,0,1,,,,,,,,,,0,,78,0
30809,note_on,29,0,3,,,,,,,,,,2,,78,0
30809,note_on,0,0,1,,,,,,,,,,0,,74,0
30834,note_on,54,0,5,,,,,,,,,,4,,57,0
30834,note_on,54,0,2,,,,,,,,,,1,,78,0
30834,note_on,0,0,2,,,,,,,,,,1,,74,0
30840,note_on,0,0,2,,,,,,,,,,1,,79,52
30840,note_on,31,0,1,,,,,,,,,,0,,76,103
30840,note_on,0,0,1,,,,,,,,,,0,,79,104
30840,note_on,31,0,3,,,,,,,,,,2,,79,51
30840,note_on,6,0,5,,,,,,,,,,4,,57,50
30840,note_on,31,0,4,,,,,,,,,,3,,76,52
30840,note_on,6,0,2,,,,,,,,,,1,,76,52
30869,note_on,29,0,3,,,,,,,,,,2,,79,0
30869,note_on,29,0,1,,,,,,,,,,0,,79,0
30869,note_on,0,0,1,,,,,,,,,,0,,76,0
30869,note_on,29,0,4,,,,,,,,,,3,,76,0
30894,note_on,54,0,5,,,,,,,,,,4,,57,0
30894,note_on,54,0,2,,,,,,,,,,1,,79,0
30894,note_on,0,0,2,,,,,,,,,,1,,76,0
30900,note_on,0,0,1,,,,,,,,,,0,,78,90
30900,note_on,6,0,5,,,,,,,,,,4,,57,47
30900,note_on,31,0,1,,,,,,,,,,0,,74,93
30900,note_on,6,0,2,,,,,,,,,,1,,74,44
30900,note_on,0,0,2,,,,,,,,,,1,,78,48
30900,note_on,31,0,3,,,,,,,,,,2,,78,48
30900,note_on,31,0,4,,,,,,,,,,3,,74,46
30929,note_on,29,0,4,,,,,,,,,,3,,74,0
30929,note_on,29,0,3,,,,,,,,,,2,,78,0
30929,note_on,29,0,1,,,,,,,,,,0,,78,0
30929,note_on,0,0,1,,,,,,,,,,0,,74,0
30954,note_on,54,0,2,,,,,,,,,,1,,78,0
30954,note_on,0,0,2,,,,,,,,,,1,,74,0
30954,note_on,54,0,5,,,,,,,,,,4,,57,0
30960,note_on,31,0,1,,,,,,,,,,0,,73,92
30960,note_on,31,0,3,,,,,,,,,,2,,76,46
30960,note_on,6,0,2,,,,,,,,,,1,,69,44
30960,note_on,0,0,2,,,,,,,,,,1,,76,45
30960,note_on,0,0,1,,,,,,,,,,0,,76,91
30960,note_on,31,0,4,,,,,,,,,,3,,73,46
30960,note_on,6,0,5,,,,,,,,,,4,,57,53
31014,note_on,54,0,5,,,,,,,,,,4,,57,0
31020,note_on,6,0,5,,,,,,,,,,4,,57,46
31068,note_on,108,0,4,,,,,,,,,,3,,73,0
31068,note_on,108,0,3,,,,,,,,,,2,,76,0
31068,note_on,0,0,2,,,,,,,,,,1,,69,0
31068,note_on,108,0,2,,,,,,,,,,1,,76,0
31068,note_on,108,0,1,,,,,,,,,,0,,76,0
31068,note_on,0,0,1,,,,,,,,,,0,,73,0
31074,note_on,54,0,5,,,,,,,,,,4,,57,0
31080,note_on,6,0,5,,,,,,,,,,4,,57,53
31134,note_on,54,0,5,,,,,,,,,,4,,57,0
31140,note_on,6,0,5,,,,,,,,,,4,,57,47
31176,note_on,456,0,6,,,,,,,,,,5,,33,0
31194,note_on,54,0,5,,,,,,,,,,4,,57,0
31200,note_on,132,0,1,,,,,,,,,,0,,76,91
31200,note_on,6,0,5,,,,,,,,,,4,,57,101
31200,note_on,24,0,6,,,,,,,,,,5,,33,96
31200,note_on,132,0,3,,,,,,,,,,2,,79,89
31200,note_on,132,0,2,,,,,,,,,,1,,69,87
31200,note_on,0,0,1,,,,,,,,,,0,,79,89
31200,note_on,132,0,4,,,,,,,,,,3,,76,89
31200,note_on,0,0,2,,,,,,,,,,1,,76,87
31229,note_on,29,0,1,,,,,,,,,,0,,79,0
31229,note_on,0,0,1,,,,,,,,,,0,,76,0
31229,note_on,29,0,4,,,,,,,,,,3,,76,0
31229,note_on,29,0,3,,,,,,,,,,2,,79,0
31254,note_on,54,0,6,,,,,,,,,,5,,33,0
31254,note_on,54,0,5,,,,,,,,,,4,,57,0
31260,note_on,6,0,5,,,,,,,,,,4,,57,95
31260,note_on,6,0,6,,,,,,,,,,5,,33,95
31260,note_on,31,0,1,,,,,,,,,,0,,74,91
31260,note_on,0,0,1,,,,,,,,,,0,,78,91
31260,note_on,31,0,3,,,,,,,,,,2,,78,90
31260,note_on,31,0,4,,,,,,,,,,3,,74,88
31289,note_on,29,0,1,,,,,,,,,,0,,78,0
31289,note_on,29,0,4,,,,,,,,,,3,,74,0
31289,note_on,0,0,1,,,,,,,,,,0,,74,0
31289,note_on,29,0,3,,,,,,,,,,2,,78,0
31314,note_on,54,0,5,,,,,,,,,,4,,57,0
31314,note_on,54,0,6,,,,,,,,,,5,,33,0
31320,note_on,31,0,1,,,,,,,,,,0,,73,91
31320,note_on,0,0,1,,,,,,,,,,0,,76,92
31320,note_on,31,0,3,,,,,,,,,,2,,76,93
31320,note_on,31,0,4,,,,,,,,,,3,,73,91
31320,note_on,6,0,6,,,,,,,,,,5,,33,100
31320,note_on,6,0,5,,,,,,,,,,4,,57,100
31349,note_on,29,0,3,,,,,,,,,,2,,76,0
31349,note_on,29,0,4,,,,,,,,,,3,,73,0
31349,note_on,0,0,1,,,,,,,,,,0,,73,0
31349,note_on,29,0,1,,,,,,,,,,0,,76,0
31374,note_on,54,0,5,,,,,,,,,,4,,57,0
31374,note_on,54,0,6,,,,,,,,,,5,,33,0
31380,note_on,31,0,3,,,,,,,,,,2,,74,89
31380,note_on,6,0,6,,,,,,,,,,5,,33,95
31380,note_on,0,0,1,,,,,,,,,,0,,74,90
31380,note_on,31,0,4,,,,,,,,,,3,,71,87
31380,note_on,31,0,1,,,,,,,,,,0,,71,90
31380,note_on,6,0,5,,,,,,,,,,4,,57,97
31409,note_on,0,0,1,,,,,,,,,,0,,71,0
31409,note_on,29,0,1,,,,,,,,,,0,,74,0
31409,note_on,29,0,4,,,,,,,,,,3,,71,0
31409,note_on,29,0,3,,,,,,,,,,2,,74,0
31434,note_on,54,0,5,,,,,,,,,,4,,57,0
31434,note_on,54,0,6,,,,,,,,,,5,,33,0
31440,note_on,31,0,1,,,,,,,,,,0,,69,92
31440,note_on,6,0,5,,,,,,,,,,4,,57,99
31440,note_on,31,0,3,,,,,,,,,,2,,73,94
31440,note_on,31,0,4,,,,,,,,,,3,,69,93
31440,note_on,6,0,6,,,,,,,,,,5,,33,99
31440,note_on,0,0,1,,,,,,,,,,0,,73,92
31469,note_on,29,0,3,,,,,,,,,,2,,73,0
31469,note_on,0,0,1,,,,,,,,,,0,,69,0
31469,note_on,29,0,1,,,,,,,,,,0,,73,0
31469,note_on,29,0,4,,,,,,,,,,3,,69,0
31494,note_on,54,0,6,,,,,,,,,,5,,33,0
31494,note_on,54,0,5,,,,,,,,,,4,,57,0
31500,note_on,0,0,1,,,,,,,,,,0,,71,89
31500,note_on,31,0,3,,,,,,,,,,2,,71,87
31500,note_on,31,0,4,,,,,,,,,,3,,67,88
31500,note_on,6,0,5,,,,,,,,,,4,,57,96
31500,note_on,31,0,1,,,,,,,,,,0,,67,90
31500,note_on,6,0,6,,,,,,,,,,5,,33,95
31529,note_on,29,0,4,,,,,,,,,,3,,67,0
31529,note_on,29,0,1,,,,,,,,,,0,,71,0
31529,note_on,0,0,1,,,,,,,,,,0,,67,0
31529,note_on,29,0,3,,,,,,,,,,2,,71,0
31554,note_on,54,0,5,,,,,,,,,,4,,57,0
31554,note_on,54,0,6,,,,,,,,,,5,,33,0
31560,note_on,31,0,1,,,,,,,,,,0,,66,93
31560,note_on,31,0,4,,,,,,,,,,3,,66,94
31560,note_on,6,0,5,,,,,,,,,,4,,57,101
31560,note_on,6,0,6,,,,,,,,,,5,,33,99
31560,note_on,31,0,3,,,,,,,,,,2,,69,94
31560,note_on,0,0,1,,,,,,,,,,0,,69,90
31589,note_on,29,0,1,,,,,,,,,,0,,69,0
31589,note_on,0,0,1,,,,,,,,,,0,,66,0
31589,note_on,29,0,4,,,,,,,,,,3,,66,0
31589,note_on,29,0,3,,,,,,,,,,2,,69,0
31614,note_on,54,0,6,,,,,,,,,,5,,33,0
31614,note_on,54,0,5,,,,,,,,,,4,,57,0
31620,note_on,31,0,3,,,,,,,,,,2,,67,88
31620,note_on,6,0,5,,,,,,,,,,4,,57,96
31620,note_on,31,0,1,,,,,,,,,,0,,64,88
31620,note_on,6,0,6,,,,,,,,,,5,,33,94
31620,note_on,31,0,4,,,,,,,,,,3,,64,91
31620,note_on,0,0,1,,,,,,,,,,0,,67,90
31649,note_on,29,0,4,,,,,,,,,,3,,64,0
31649,note_on,0,0,1,,,,,,,,,,0,,64,0
31649,note_on,29,0,3,,,,,,,,,,2,,67,0
31649,note_on,29,0,1,,,,,,,,,,0,,67,0
31656,note_on,456,0,2,,,,,,,,,,1,,76,0
31656,note_on,0,0,2,,,,,,,,,,1,,69,0
31674,note_on,54,0,5,,,,,,,,,,4,,57,0
31674,note_on,54,0,6,,,,,,,,,,5,,33,0
31680,note_on,31,0,4,,,,,,,,,,3,,62,89
31680,note_on,31,0,3,,,,,,,,,,2,,66,94
31680,note_on,6,0,5,,,,,,,,,,4,,57,101
31680,note_on,6,0,6,,,,,,,,,,5,,38,111
31680,note_on,31,0,1,,,,,,,,,,0,,62,95
31680,note_on,0,0,1,,,,,,,,,,0,,66,94
31680,note_on,0,0,2,,,,,,,,,,1,,78,103
31680,note_on,24,0,2,,,,,,,,,,1,,74,104
31704,note_on,24,0,4,,,,,,,,,,3,,62,0
31710,note_on,6,0,4,,,,,,,,,,3,,62,89
31734,note_on,54,0,5,,,,,,,,,,4,,57,0
31734,note_on,24,0,4,,,,,,,,,,3,,62,0
31740,note_on,6,0,5,,,,,,,,,,4,,69,122
31740,note_on,6,0,4,,,,,,,,,,3,,62,89
31764,note_on,24,0,4,,,,,,,,,,3,,62,0
31767,note_on,27,0,5,,,,,,,,,,4,,69,0
31770,note_on,6,0,4,,,,,,,,,,3,,62,89
31770,note_on,3,0,5,,,,,,,,,,4,,67,93
31788,note_on,108,0,2,,,,,,,,,,1,,78,0
31788,note_on,108,0,6,,,,,,,,,,5,,38,0
31788,note_on,108,0,3,,,,,,,,,,2,,66,0
31788,note_on,0,0,1,,,,,,,,,,0,,62,0
31788,note_on,108,0,1,,,,,,,,,,0,,66,0
31788,note_on,0,0,2,,,,,,,,,,1,,74,0
31794,note_on,24,0,4,,,,,,,,,,3,,62,0
31797,note_on,27,0,5,,,,,,,,,,4,,67,0
31800,note_on,12,0,1,,,,,,,,,,0,,74,123
31800,note_on,0,0,1,,,,,,,,,,0,,81,121
31800,note_on,6,0,4,,,,,,,,,,3,,62,89
31800,note_on,12,0,3,,,,,,,,,,2,,81,121
31800,note_on,3,0,5,,,,,,,,,,4,,66,96
31824,note_on,24,0,4,,,,,,,,,,3,,62,0
31830,note_on,6,0,4,,,,,,,,,,3,,62,89
31854,note_on,54,0,5,,,,,,,,,,4,,66,0
31854,note_on,24,0,4,,,,,,,,,,3,,62,0
31860,note_on,6,0,5,,,,,,,,,,4,,66,95
31860,note_on,6,0,4,,,,,,,,,,3,,62,89
31884,note_on,24,0,4,,,,,,,,,,3,,62,0
31890,note_on,6,0,4,,,,,,,,,,3,,62,89
31914,note_on,54,0,5,,,,,,,,,,4,,66,0
31914,note_on,24,0,4,,,,,,,,,,3,,62,0
31920,note_on,6,0,4,,,,,,,,,,3,,62,95
31920,note_on,6,0,5,,,,,,,,,,4,,66,98
31920,note_on,132,0,2,,,,,,,,,,1,,74,85
31944,note_on,24,0,4,,,,,,,,,,3,,62,0
31950,note_on,6,0,4,,,,,,,,,,3,,62,95
31974,note_on,54,0,5,,,,,,,,,,4,,66,0
31974,note_on,24,0,4,,,,,,,,,,3,,62,0
31980,note_on,192,0,6,,,,,,,,,,5,,42,88
31980,note_on,6,0,5,,,,,,,,,,4,,69,104
31980,note_on,6,0,4,,,,,,,,,,3,,62,95
32004,note_on,24,0,4,,,,,,,,,,3,,62,0
32007,note_on,27,0,6,,,,,,,,,,5,,42,0
32007,note_on,27,0,5,,,,,,,,,,4,,69,0
32010,note_on,3,0,5,,,,,,,,,,4,,67,90
32010,note_on,6,0,4,,,,,,,,,,3,,62,95
32010,note_on,3,0,6,,,,,,,,,,5,,40,89
32016,note_on,0,0,1,,,,,,,,,,0,,74,0
32016,note_on,216,0,1,,,,,,,,,,0,,81,0
32016,note_on,216,0,3,,,,,,,,,,2,,81,0
32034,note_on,24,0,4,,,,,,,,,,3,,62,0
32037,note_on,27,0,6,,,,,,,,,,5,,40,0
32037,note_on,27,0,5,,,,,,,,,,4,,67,0
32040,note_on,24,0,3,,,,,,,,,,2,,72,83
32040,note_on,3,0,5,,,,,,,,,,4,,66,95
32040,note_on,0,0,1,,,,,,,,,,0,,74,81
32040,note_on,24,0,1,,,,,,,,,,0,,72,81
32040,note_on,3,0,6,,,,,,,,,,5,,38,93
32040,note_on,6,0,4,,,,,,,,,,3,,62,95
32053,note_on,13,0,3,,,,,,,,,,2,,72,0
32055,note_on,2,0,3,,,,,,,,,,2,,74,100
32064,note_on,24,0,4,,,,,,,,,,3,,62,0
32068,note_on,13,0,3,,,,,,,,,,2,,74,0
32070,note_on,6,0,4,,,,,,,,,,3,,62,95
32070,note_on,2,0,3,,,,,,,,,,2,,72,89
32083,note_on,13,0,3,,,,,,,,,,2,,72,0
32085,note_on,2,0,3,,,,,,,,,,2,,74,101
32094,note_on,24,0,4,,,,,,,,,,3,,62,0
32094,note_on,54,0,5,,,,,,,,,,4,,66,0
32094,note_on,54,0,6,,,,,,,,,,5,,38,0
32098,note_on,13,0,3,,,,,,,,,,2,,74,0
32100,note_on,6,0,4,,,,,,,,,,3,,62,95
32100,note_on,6,0,5,,,,,,,,,,4,,69,101
32100,note_on,6,0,6,,,,,,,,,,5,,42,106
32100,note_on,2,0,3,,,,,,,,,,2,,72,91
32113,note_on,13,0,3,,,,,,,,,,2,,72,0
32115,note_on,2,0,3,,,,,,,,,,2,,74,99
32124,note_on,24,0,4,,,,,,,,,,3,,62,0
32128,note_on,13,0,3,,,,,,,,,,2,,74,0
32130,note_on,2,0,3,,,,,,,,,,2,,71,86
32130,note_on,6,0,4,,,,,,,,,,3,,62,95
32143,note_on,13,0,3,,,,,,,,,,2,,71,0
32145,note_on,2,0,3,,,,,,,,,,2,,72,98
32148,note_on,108,0,1,,,,,,,,,,0,,72,0
32154,note_on,24,0,4,,,,,,,,,,3,,62,0
32154,note_on,54,0,5,,,,,,,,,,4,,69,0
32154,note_on,54,0,6,,,,,,,,,,5,,42,0
32158,note_on,13,0,3,,,,,,,,,,2,,72,0
32160,note_on,6,0,6,,,,,,,,,,5,,43,103
32160,note_on,12,0,1,,,,,,,,,,0,,71,89
32160,note_on,6,0,4,,,,,,,,,,3,,62,96
32160,note_on,6,0,5,,,,,,,,,,4,,62,83
32160,note_on,2,0,3,,,,,,,,,,2,,71,95
32184,note_on,24,0,4,,,,,,,,,,3,,62,0
32190,note_on,6,0,4,,,,,,,,,,3,,62,96
32214,note_on,54,0,5,,,,,,,,,,4,,62,0
32214,note_on,24,0,4,,,,,,,,,,3,,62,0
32220,note_on,6,0,4,,,,,,,,,,3,,62,96
32220,note_on,6,0,5,,,,,,,,,,4,,71,115
32244,note_on,24,0,4,,,,,,,,,,3,,62,0
32247,note_on,27,0,5,,,,,,,,,,4,,71,0
32250,note_on,3,0,5,,,,,,,,,,4,,69,92
32250,note_on,6,0,4,,,,,,,,,,3,,62,96
32268,note_on,108,0,1,,,,,,,,,,0,,71,0
32268,note_on,108,0,6,,,,,,,,,,5,,43,0
32268,note_on,108,0,3,,,,,,,,,,2,,71,0
32268,note_on,0,0,1,,,,,,,,,,0,,74,0
32268,note_on,348,0,2,,,,,,,,,,1,,74,0
32274,note_on,24,0,4,,,,,,,,,,3,,62,0
32277,note_on,27,0,5,,,,,,,,,,4,,69,0
32280,note_on,6,0,4,,,,,,,,,,3,,64,102
32280,note_on,12,0,3,,,,,,,,,,2,,83,123
32280,note_on,0,0,1,,,,,,,,,,0,,76,108
32280,note_on,12,0,1,,,,,,,,,,0,,83,115
32280,note_on,3,0,5,,,,,,,,,,4,,68,94
32304,note_on,24,0,4,,,,,,,,,,3,,64,0
32310,note_on,6,0,4,,,,,,,,,,3,,64,102
32334,note_on,54,0,5,,,,,,,,,,4,,68,0
32334,note_on,24,0,4,,,,,,,,,,3,,64,0
32340,note_on,6,0,5,,,,,,,,,,4,,68,95
32340,note_on,6,0,4,,,,,,,,,,3,,64,102
32364,note_on,24,0,4,,,,,,,,,,3,,64,0
32370,note_on,6,0,4,,,,,,,,,,3,,64,102
32394,note_on,54,0,5,,,,,,,,,,4,,68,0
32394,note_on,24,0,4,,,,,,,,,,3,,64,0
32400,note_on,132,0,2,,,,,,,,,,1,,76,86
32400,note_on,6,0,4,,,,,,,,,,3,,64,96
32400,note_on,6,0,5,,,,,,,,,,4,,68,99
32424,note_on,24,0,4,,,,,,,,,,3,,64,0
32430,note_on,6,0,4,,,,,,,,,,3,,64,96
32454,note_on,54,0,5,,,,,,,,,,4,,68,0
32454,note_on,24,0,4,,,,,,,,,,3,,64,0
32460,note_on,6,0,4,,,,,,,,,,3,,64,96
32460,note_on,192,0,6,,,,,,,,,,5,,44,87
32460,note_on,6,0,5,,,,,,,,,,4,,71,106
32484,note_on,24,0,4,,,,,,,,,,3,,64,0
32487,note_on,27,0,5,,,,,,,,,,4,,71,0
32487,note_on,27,0,6,,,,,,,,,,5,,44,0
32490,note_on,6,0,4,,,,,,,,,,3,,64,96
32490,note_on,3,0,6,,,,,,,,,,5,,42,86
32490,note_on,3,0,5,,,,,,,,,,4,,69,90
32496,note_on,216,0,3,,,,,,,,,,2,,83,0
32496,note_on,216,0,1,,,,,,,,,,0,,76,0
32496,note_on,0,0,1,,,,,,,,,,0,,83,0
32514,note_on,24,0,4,,,,,,,,,,3,,64,0
32517,note_on,27,0,6,,,,,,,,,,5,,42,0
32517,note_on,27,0,5,,,,,,,,,,4,,69,0
32520,note_on,6,0,4,,,,,,,,,,3,,64,96
32520,note_on,3,0,6,,,,,,,,,,5,,40,92
32520,note_on,24,0,1,,,,,,,,,,0,,76,82
32520,note_on,0,0,1,,,,,,,,,,0,,74,90
32520,note_on,24,0,3,,,,,,,,,,2,,74,81
32520,note_on,3,0,5,,,,,,,,,,4,,68,94
32533,note_on,13,0,3,,,,,,,,,,2,,74,0
32535,note_on,2,0,3,,,,,,,,,,2,,76,99
32544,note_on,24,0,4,,,,,,,,,,3,,64,0
32548,note_on,13,0,3,,,,,,,,,,2,,76,0
32550,note_on,6,0,4,,,,,,,,,,3,,64,96
32550,note_on,2,0,3,,,,,,,,,,2,,74,89
32563,note_on,13,0,3,,,,,,,,,,2,,74,0
32565,note_on,2,0,3,,,,,,,,,,2,,76,99
32574,note_on,24,0,4,,,,,,,,,,3,,64,0
32574,note_on,54,0,5,,,,,,,,,,4,,68,0
32574,note_on,54,0,6,,,,,,,,,,5,,40,0
32578,note_on,13,0,3,,,,,,,,,,2,,76,0
32580,note_on,6,0,5,,,,,,,,,,4,,71,104
32580,note_on,6,0,6,,,,,,,,,,5,,44,106
32580,note_on,2,0,3,,,,,,,,,,2,,74,92
32580,note_on,6,0,4,,,,,,,,,,3,,64,96
32593,note_on,13,0,3,,,,,,,,,,2,,74,0
32595,note_on,2,0,3,,,,,,,,,,2,,76,100
32604,note_on,24,0,4,,,,,,,,,,3,,64,0
32608,note_on,13,0,3,,,,,,,,,,2,,76,0
32610,note_on,2,0,3,,,,,,,,,,2,,73,88
32610,note_on,6,0,4,,,,,,,,,,3,,64,96
32623,note_on,13,0,3,,,,,,,,,,2,,73,0
32625,note_on,2,0,3,,,,,,,,,,2,,74,99
32628,note_on,108,0,1,,,,,,,,,,0,,74,0
32628,note_on,0,0,1,,,,,,,,,,0,,76,0
32634,note_on,54,0,5,,,,,,,,,,4,,71,0
32634,note_on,24,0,4,,,,,,,,,,3,,64,0
32634,note_on,54,0,6,,,,,,,,,,5,,44,0
32638,note_on,13,0,3,,,,,,,,,,2,,74,0
32640,note_on,6,0,4,,,,,,,,,,3,,64,100
32640,note_on,6,0,5,,,,,,,,,,4,,64,81
32640,note_on,12,0,1,,,,,,,,,,0,,78,103
32640,note_on,0,0,1,,,,,,,,,,0,,73,95
32640,note_on,240,0,2,,,,,,,,,,1,,69,95
32640,note_on,6,0,6,,,,,,,,,,5,,45,104
32640,note_on,2,0,3,,,,,,,,,,2,,73,95
32667,note_on,27,0,3,,,,,,,,,,2,,73,0
32667,note_on,27,0,1,,,,,,,,,,0,,73,0
32667,note_on,0,0,1,,,,,,,,,,0,,78,0
32667,note_on,27,0,4,,,,,,,,,,3,,64,0
32670,note_on,3,0,1,,,,,,,,,,0,,74,85
32670,note_on,0,0,1,,,,,,,,,,0,,71,88
32670,note_on,3,0,4,,,,,,,,,,3,,62,89
32670,note_on,3,0,3,,,,,,,,,,2,,71,91
32697,note_on,0,0,1,,,,,,,,,,0,,74,0
32697,note_on,27,0,1,,,,,,,,,,0,,71,0
32697,note_on,27,0,4,,,,,,,,,,3,,62,0
32697,note_on,27,0,3,,,,,,,,,,2,,71,0
32700,note_on,3,0,1,,,,,,,,,,0,,73,91
32700,note_on,3,0,3,,,,,,,,,,2,,69,88
32700,note_on,3,0,4,,,,,,,,,,3,,61,88
32700,note_on,0,0,1,,,,,,,,,,0,,69,87
32727,note_on,27,0,1,,,,,,,,,,0,,69,0
32727,note_on,0,0,1,,,,,,,,,,0,,73,0
32727,note_on,27,0,4,,,,,,,,,,3,,61,0
32727,note_on,27,0,3,,,,,,,,,,2,,69,0
32730,note_on,3,0,3,,,,,,,,,,2,,71,103
32730,note_on,0,0,1,,,,,,,,,,0,,71,103
32730,note_on,3,0,1,,,,,,,,,,0,,74,98
32730,note_on,3,0,4,,,,,,,,,,3,,62,98
32748,note_on,108,0,6,,,,,,,,,,5,,45,0
32748,note_on,108,0,2,,,,,,,,,,1,,69,0
32748,note_on,0,0,2,,,,,,,,,,1,,76,0
32748,note_on,108,0,5,,,,,,,,,,4,,64,0
32757,note_on,27,0,3,,,,,,,,,,2,,71,0
32757,note_on,27,0,4,,,,,,,,,,3,,62,0
32757,note_on,27,0,1,,,,,,,,,,0,,71,0
32757,note_on,0,0,1,,,,,,,,,,0,,74,0
32760,note_on,12,0,2,,,,,,,,,,1,,69,95
32760,note_on,0,0,1,,,,,,,,,,0,,69,92
32760,note_on,3,0,1,,,,,,,,,,0,,73,92
32760,note_on,12,0,6,,,,,,,,,,5,,45,99
32760,note_on,12,0,5,,,,,,,,,,4,,64,95
32760,note_on,3,0,4,,,,,,,,,,3,,61,95
32760,note_on,0,0,2,,,,,,,,,,1,,76,94
32760,note_on,3,0,3,,,,,,,,,,2,,69,92
32814,note_on,54,0,4,,,,,,,,,,3,,61,0
32814,note_on,0,0,1,,,,,,,,,,0,,73,0
32814,note_on,54,0,1,,,,,,,,,,0,,69,0
32814,note_on,54,0,3,,,,,,,,,,2,,69,0
32814,note_on,54,0,5,,,,,,,,,,4,,64,0
32814,note_on,54,0,6,,,,,,,,,,5,,45,0
32820,note_on,6,0,3,,,,,,,,,,2,,69,95
32820,note_on,6,0,5,,,,,,,,,,4,,64,94
32820,note_on,6,0,6,,,,,,,,,,5,,45,95
32820,note_on,6,0,1,,,,,,,,,,0,,73,94
32820,note_on,0,0,1,,,,,,,,,,0,,69,95
32820,note_on,6,0,4,,,,,,,,,,3,,61,94
32868,note_on,108,0,2,,,,,,,,,,1,,76,0
32868,note_on,0,0,2,,,,,,,,,,1,,69,0
32874,note_on,54,0,6,,,,,,,,,,5,,45,0
32874,note_on,54,0,1,,,,,,,,,,0,,69,0
32874,note_on,0,0,1,,,,,,,,,,0,,73,0
32874,note_on,54,0,3,,,,,,,,,,2,,69,0
32874,note_on,54,0,4,,,,,,,,,,3,,61,0
32874,note_on,54,0,5,,,,,,,,,,4,,64,0
32880,note_on,12,0,2,,,,,,,,,,1,,69,95
32880,note_on,0,0,2,,,,,,,,,,1,,76,95
32880,note_on,6,0,3,,,,,,,,,,2,,69,94
32880,note_on,6,0,4,,,,,,,,,,3,,61,95
32880,note_on,0,0,1,,,,,,,,,,0,,69,96
32880,note_on,6,0,1,,,,,,,,,,0,,73,95
32880,note_on,6,0,6,,,,,,,,,,5,,45,99
32880,note_on,6,0,5,,,,,,,,,,4,,64,100
32934,note_on,54,0,5,,,,,,,,,,4,,64,0
32934,note_on,54,0,6,,,,,,,,,,5,,45,0
32940,note_on,6,0,6,,,,,,,,,,5,,43,91
32940,note_on,6,0,5,,,,,,,,,,4,,64,95
32988,note_on,0,0,2,,,,,,,,,,1,,69,0
32988,note_on,108,0,3,,,,,,,,,,2,,69,0
32988,note_on,108,0,2,,,,,,,,,,1,,76,0
32988,note_on,108,0,4,,,,,,,,,,3,,61,0
32988,note_on,108,0,1,,,,,,,,,,0,,69,0
32988,note_on,0,0,1,,,,,,,,,,0,,73,0
32994,note_on,54,0,5,,,,,,,,,,4,,64,0
32994,note_on,54,0,6,,,,,,,,,,5,,43,0
33000,note_on,6,0,5,,,,,,,,,,4,,66,107
33000,note_on,6,0,6,,,,,,,,,,5,,42,94
33054,note_on,54,0,6,,,,,,,,,,5,,42,0
33054,note_on,54,0,5,,,,,,,,,,4,,66,0
33060,note_on,6,0,6,,,,,,,,,,5,,40,88
33060,note_on,6,0,5,,,,,,,,,,4,,67,100
33114,note_on,54,0,6,,,,,,,,,,5,,40,0
33114,note_on,54,0,5,,,,,,,,,,4,,67,0
33120,note_on,132,0,4,,,,,,,,,,3,,69,45
33120,note_on,6,0,6,,,,,,,,,,5,,38,49
33120,note_on,6,0,5,,,,,,,,,,4,,66,48
33120,note_on,132,0,3,,,,,,,,,,2,,78,46
33174,note_on,54,0,3,,,,,,,,,,2,,78,0
33180,note_on,6,0,3,,,,,,,,,,2,,74,43
33228,note_on,108,0,6,,,,,,,,,,5,,38,0
33228,note_on,108,0,5,,,,,,,,,,4,,66,0
33228,note_on,108,0,4,,,,,,,,,,3,,69,0
33234,note_on,54,0,3,,,,,,,,,,2,,74,0
33240,note_on,6,0,3,,,,,,,,,,2,,73,49
33240,note_on,12,0,5,,,,,,,,,,4,,71,55
33240,note_on,12,0,4,,,,,,,,,,3,,74,53
33240,note_on,12,0,6,,,,,,,,,,5,,47,56
33267,note_on,27,0,3,,,,,,,,,,2,,73,0
33270,note_on,3,0,3,,,,,,,,,,2,,74,47
33297,note_on,27,0,3,,,,,,,,,,2,,74,0
33300,note_on,3,0,3,,,,,,,,,,2,,76,50
33327,note_on,27,0,3,,,,,,,,,,2,,76,0
33330,note_on,3,0,3,,,,,,,,,,2,,78,50
33348,note_on,108,0,6,,,,,,,,,,5,,47,0
33348,note_on,108,0,5,,,,,,,,,,4,,71,0
33357,note_on,27,0,3,,,,,,,,,,2,,78,0
33360,note_on,12,0,5,,,,,,,,,,4,,67,44
33360,note_on,12,0,6,,,,,,,,,,5,,43,44
33360,note_on,3,0,3,,,,,,,,,,2,,79,53
33414,note_on,54,0,3,,,,,,,,,,2,,79,0
33420,note_on,6,0,3,,,,,,,,,,2,,76,43
33456,note_on,216,0,4,,,,,,,,,,3,,74,0
33468,note_on,108,0,6,,,,,,,,,,5,,43,0
33468,note_on,108,0,5,,,,,,,,,,4,,67,0
33474,note_on,54,0,3,,,,,,,,,,2,,76,0
33480,note_on,12,0,6,,,,,,,,,,5,,45,53
33480,note_on,24,0,4,,,,,,,,,,3,,73,45
33480,note_on,12,0,5,,,,,,,,,,4,,69,53
33480,note_on,6,0,3,,,,,,,,,,2,,75,50
33507,note_on,27,0,3,,,,,,,,,,2,,75,0
33510,note_on,3,0,3,,,,,,,,,,2,,76,48
33534,note_on,54,0,6,,,,,,,,,,5,,45,0
33534,note_on,54,0,5,,,,,,,,,,4,,69,0
33537,note_on,27,0,3,,,,,,,,,,2,,76,0
33540,note_on,6,0,6,,,,,,,,,,5,,43,44
33540,note_on,3,0,3,,,,,,,,,,2,,78,52
33540,note_on,6,0,5,,,,,,,,,,4,,67,43
33567,note_on,27,0,3,,,,,,,,,,2,,78,0
33570,note_on,3,0,3,,,,,,,,,,2,,79,48
33588,note_on,108,0,4,,,,,,,,,,3,,73,0
33594,note_on,54,0,5,,,,,,,,,,4,,67,0
33594,note_on,54,0,6,,,,,,,,,,5,,43,0
33597,note_on,27,0,3,,,,,,,,,,2,,79,0
33600,note_on,12,0,4,,,,,,,,,,3,,74,101
33600,note_on,6,0,5,,,,,,,,,,4,,66,95
33600,note_on,0,0,2,,,,,,,,,,1,,81,90
33600,note_on,612,0,2,,,,,,,,,,1,,74,87
33600,note_on,6,0,6,,,,,,,,,,5,,42,93
33600,note_on,3,0,3,,,,,,,,,,2,,81,106
33600,note_on,612,0,1,,,,,,,,,,0,,81,89
33600,note_on,0,0,1,,,,,,,,,,0,,74,88
33654,note_on,54,0,6,,,,,,,,,,5,,42,0
33654,note_on,54,0,5,,,,,,,,,,4,,66,0
33654,note_on,54,0,4,,,,,,,,,,3,,74,0
33654,note_on,54,0,3,,,,,,,,,,2,,81,0
33660,note_on,6,0,3,,,,,,,,,,2,,81,95
33660,note_on,6,0,4,,,,,,,,,,3,,81,116
33660,note_on,6,0,5,,,,,,,,,,4,,74,116
33660,note_on,6,0,6,,,,,,,,,,5,,42,94
33714,note_on,54,0,5,,,,,,,,,,4,,74,0
33714,note_on,54,0,4,,,,,,,,,,3,,81,0
33714,note_on,54,0,6,,,,,,,,,,5,,42,0
33714,note_on,54,0,3,,,,,,,,,,2,,81,0
33720,note_on,6,0,5,,,,,,,,,,4,,74,104
33720,note_on,6,0,3,,,,,,,,,,2,,81,100
33720,note_on,6,0,4,,,,,,,,,,3,,81,104
33720,note_on,6,0,6,,,,,,,,,,5,,42,98
33733,note_on,13,0,3,,,,,,,,,,2,,81,0
33733,note_on,13,0,4,,,,,,,,,,3,,81,0
33735,note_on,2,0,3,,,,,,,,,,2,,83,103
33735,note_on,2,0,4,,,,,,,,,,3,,83,100
33748,note_on,13,0,3,,,,,,,,,,2,,83,0
33748,note_on,13,0,4,,,,,,,,,,3,,83,0
33750,note_on,2,0,4,,,,,,,,,,3,,81,89
33750,note_on,2,0,3,,,,,,,,,,2,,81,92
33763,note_on,13,0,4,,,,,,,,,,3,,81,0
33763,note_on,13,0,3,,,,,,,,,,2,,81,0
33765,note_on,2,0,3,,,,,,,,,,2,,83,102
33765,note_on,2,0,4,,,,,,,,,,3,,83,99
33774,note_on,54,0,5,,,,,,,,,,4,,74,0
33774,note_on,54,0,6,,,,,,,,,,5,,42,0
33778,note_on,13,0,3,,,,,,,,,,2,,83,0
33778,note_on,13,0,4,,,,,,,,,,3,,83,0
33780,note_on,2,0,4,,,,,,,,,,3,,81,91
33780,note_on,2,0,3,,,,,,,,,,2,,81,89
33780,note_on,6,0,6,,,,,,,,,,5,,42,95
33780,note_on,6,0,5,,,,,,,,,,4,,74,94
33793,note_on,13,0,4,,,,,,,,,,3,,81,0
33793,note_on,13,0,3,,,,,,,,,,2,,81,0
33795,note_on,2,0,4,,,,,,,,,,3,,83,102
33795,note_on,2,0,3,,,,,,,,,,2,,83,102
33808,note_on,13,0,4,,,,,,,,,,3,,83,0
33808,note_on,13,0,3,,,,,,,,,,2,,83,0
33810,note_on,2,0,4,,,,,,,,,,3,,79,88
33810,note_on,2,0,3,,,,,,,,,,2,,79,85
33816,note_on,216,0,1,,,,,,,,,,0,,81,0
33816,note_on,0,0,2,,,,,,,,,,1,,74,0
33816,note_on,216,0,2,,,,,,,,,,1,,81,0
33823,note_on,13,0,3,,,,,,,,,,2,,79,0
33823,note_on,13,0,4,,,,,,,,,,3,,79,0
33825,note_on,2,0,4,,,,,,,,,,3,,81,99
33825,note_on,2,0,3,,,,,,,,,,2,,81,101
33834,note_on,54,0,6,,,,,,,,,,5,,42,0
33834,note_on,54,0,5,,,,,,,,,,4,,74,0
33838,note_on,13,0,4,,,,,,,,,,3,,81,0
33838,note_on,13,0,3,,,,,,,,,,2,,81,0
33840,note_on,24,0,1,,,,,,,,,,0,,83,100
33840,note_on,2,0,4,,,,,,,,,,3,,83,106
33840,note_on,6,0,5,,,,,,,,,,4,,74,100
33840,note_on,0,0,2,,,,,,,,,,1,,83,102
33840,note_on,2,0,3,,,,,,,,,,2,,83,103
33840,note_on,6,0,6,,,,,,,,,,5,,43,105
33840,note_on,24,0,2,,,,,,,,,,1,,74,98
33894,note_on,54,0,5,,,,,,,,,,4,,74,0
33894,note_on,54,0,4,,,,,,,,,,3,,83,0
33894,note_on,54,0,3,,,,,,,,,,2,,83,0
33894,note_on,54,0,6,,,,,,,,,,5,,43,0
33900,note_on,6,0,3,,,,,,,,,,2,,79,87
33900,note_on,6,0,5,,,,,,,,,,4,,71,85
33900,note_on,6,0,6,,,,,,,,,,5,,43,98
33900,note_on,6,0,4,,,,,,,,,,3,,79,87
33954,note_on,54,0,5,,,,,,,,,,4,,71,0
33954,note_on,54,0,6,,,,,,,,,,5,,43,0
33954,note_on,54,0,4,,,,,,,,,,3,,79,0
33954,note_on,54,0,3,,,,,,,,,,2,,79,0
33960,note_on,6,0,3,,,,,,,,,,2,,76,87
33960,note_on,6,0,6,,,,,,,,,,5,,43,99
33960,note_on,6,0,5,,,,,,,,,,4,,71,97
33960,note_on,6,0,4,,,,,,,,,,3,,76,91
34014,note_on,54,0,6,,,,,,,,,,5,,43,0
34014,note_on,54,0,3,,,,,,,,,,2,,76,0
34014,note_on,54,0,5,,,,,,,,,,4,,71,0
34014,note_on,54,0,4,,,,,,,,,,3,,76,0
34020,note_on,6,0,6,,,,,,,,,,5,,43,94
34020,note_on,6,0,3,,,,,,,,,,2,,71,80
34020,note_on,6,0,5,,,,,,,,,,4,,71,98
34020,note_on,6,0,4,,,,,,,,,,3,,71,81
34056,note_on,0,0,2,,,,,,,,,,1,,74,0
34056,note_on,0,0,1,,,,,,,,,,0,,74,0
34056,note_on,216,0,1,,,,,,,,,,0,,83,0
34056,note_on,216,0,2,,,,,,,,,,1,,83,0
34074,note_on,54,0,6,,,,,,,,,,5,,43,0
34074,note_on,54,0,4,,,,,,,,,,3,,71,0
34074,note_on,54,0,3,,,,,,,,,,2,,71,0
34074,note_on,54,0,5,,,,,,,,,,4,,71,0
34080,note_on,24,0,2,,,,,,,,,,1,,78,85
34080,note_on,0,0,2,,,,,,,,,,1,,74,94
34080,note_on,6,0,3,,,,,,,,,,2,,69,91
34080,note_on,24,0,1,,,,,,,,,,0,,78,89
34080,note_on,0,0,1,,,,,,,,,,0,,69,84
34080,note_on,6,0,4,,,,,,,,,,3,,69,90
34080,note_on,6,0,6,,,,,,,,,,5,,45,103
34080,note_on,6,0,5,,,,,,,,,,4,,69,93
34134,note_on,54,0,5,,,,,,,,,,4,,69,0
34134,note_on,54,0,6,,,,,,,,,,5,,45,0
34140,note_on,6,0,5,,,,,,,,,,4,,69,93
34140,note_on,6,0,6,,,,,,,,,,5,,45,95
34188,note_on,108,0,1,,,,,,,,,,0,,69,0
34188,note_on,108,0,4,,,,,,,,,,3,,69,0
34194,note_on,54,0,6,,,,,,,,,,5,,45,0
34194,note_on,54,0,5,,,,,,,,,,4,,69,0
34200,note_on,12,0,4,,,,,,,,,,3,,74,107
34200,note_on,6,0,6,,,,,,,,,,5,,45,97
34200,note_on,6,0,5,,,,,,,,,,4,,69,100
34200,note_on,12,0,1,,,,,,,,,,0,,74,106
34254,note_on,54,0,5,,,,,,,,,,4,,69,0
34254,note_on,54,0,6,,,,,,,,,,5,,45,0
34260,note_on,6,0,6,,,,,,,,,,5,,45,95
34260,note_on,6,0,5,,,,,,,,,,4,,69,96
34296,note_on,216,0,3,,,,,,,,,,2,,69,0
34296,note_on,216,0,2,,,,,,,,,,1,,78,0
34296,note_on,96,0,1,,,,,,,,,,0,,78,0
34314,note_on,54,0,5,,,,,,,,,,4,,69,0
34314,note_on,54,0,6,,,,,,,,,,5,,45,0
34320,note_on,24,0,1,,,,,,,,,,0,,76,90
34320,note_on,24,0,3,,,,,,,,,,2,,76,115
34320,note_on,24,0,2,,,,,,,,,,1,,76,87
34320,note_on,6,0,6,,,,,,,,,,5,,33,73
34320,note_on,6,0,5,,,,,,,,,,4,,69,97
34333,note_on,13,0,3,,,,,,,,,,2,,76,0
34333,note_on,13,0,1,,,,,,,,,,0,,76,0
34335,note_on,2,0,3,,,,,,,,,,2,,78,104
34335,note_on,2,0,1,,,,,,,,,,0,,78,101
34348,note_on,13,0,3,,,,,,,,,,2,,78,0
34348,note_on,13,0,1,,,,,,,,,,0,,78,0
34350,note_on,2,0,1,,,,,,,,,,0,,76,89
34350,note_on,2,0,3,,,,,,,,,,2,,76,90
34363,note_on,13,0,3,,,,,,,,,,2,,76,0
34363,note_on,13,0,1,,,,,,,,,,0,,76,0
34365,note_on,2,0,3,,,,,,,,,,2,,78,100
34365,note_on,2,0,1,,,,,,,,,,0,,78,100
34374,note_on,54,0,6,,,,,,,,,,5,,33,0
34374,note_on,54,0,5,,,,,,,,,,4,,69,0
34378,note_on,13,0,3,,,,,,,,,,2,,78,0
34378,note_on,13,0,1,,,,,,,,,,0,,78,0
34380,note_on,6,0,5,,,,,,,,,,4,,69,95
34380,note_on,6,0,6,,,,,,,,,,5,,33,93
34380,note_on,2,0,1,,,,,,,,,,0,,76,90
34380,note_on,2,0,3,,,,,,,,,,2,,76,91
34393,note_on,13,0,1,,,,,,,,,,0,,76,0
34393,note_on,13,0,3,,,,,,,,,,2,,76,0
34395,note_on,2,0,3,,,,,,,,,,2,,78,101
34395,note_on,2,0,1,,,,,,,,,,0,,78,101
34408,note_on,13,0,1,,,,,,,,,,0,,78,0
34408,note_on,13,0,3,,,,,,,,,,2,,78,0
34410,note_on,2,0,3,,,,,,,,,,2,,76,91
34410,note_on,2,0,1,,,,,,,,,,0,,76,89
34416,note_on,96,0,2,,,,,,,,,,1,,74,0
34416,note_on,216,0,4,,,,,,,,,,3,,74,0
34416,note_on,6,0,1,,,,,,,,,,0,,74,0
34423,note_on,7,0,1,,,,,,,,,,0,,76,0
34423,note_on,13,0,3,,,,,,,,,,2,,76,0
34425,note_on,2,0,1,,,,,,,,,,0,,78,100
34425,note_on,2,0,3,,,,,,,,,,2,,78,102
34434,note_on,54,0,6,,,,,,,,,,5,,33,0
34434,note_on,54,0,5,,,,,,,,,,4,,69,0
34438,note_on,13,0,1,,,,,,,,,,0,,78,0
34438,note_on,13,0,3,,,,,,,,,,2,,78,0
34440,note_on,2,0,1,,,,,,,,,,0,,76,93
34440,note_on,0,0,1,,,,,,,,,,0,,73,93
34440,note_on,6,0,5,,,,,,,,,,4,,67,93
34440,note_on,24,0,2,,,,,,,,,,1,,69,84
34440,note_on,6,0,6,,,,,,,,,,5,,33,98
34440,note_on,24,0,4,,,,,,,,,,3,,73,92
34440,note_on,2,0,3,,,,,,,,,,2,,76,91
34453,note_on,13,0,1,,,,,,,,,,0,,76,0
34453,note_on,13,0,3,,,,,,,,,,2,,76,0
34455,note_on,2,0,3,,,,,,,,,,2,,78,102
34455,note_on,2,0,1,,,,,,,,,,0,,78,100
34468,note_on,13,0,3,,,,,,,,,,2,,78,0
34468,note_on,13,0,1,,,,,,,,,,0,,78,0
34470,note_on,2,0,1,,,,,,,,,,0,,76,90
34470,note_on,2,0,3,,,,,,,,,,2,,76,90
34483,note_on,13,0,1,,,,,,,,,,0,,76,0
34483,note_on,13,0,3,,,,,,,,,,2,,76,0
34485,note_on,2,0,1,,,,,,,,,,0,,78,102
34485,note_on,2,0,3,,,,,,,,,,2,,78,100
34494,note_on,54,0,5,,,,,,,,,,4,,67,0
34494,note_on,54,0,6,,,,,,,,,,5,,33,0
34498,note_on,13,0,1,,,,,,,,,,0,,78,0
34498,note_on,13,0,3,,,,,,,,,,2,,78,0
34500,note_on,2,0,1,,,,,,,,,,0,,74,85
34500,note_on,2,0,3,,,,,,,,,,2,,74,87
34500,note_on,6,0,5,,,,,,,,,,4,,67,95
34500,note_on,6,0,6,,,,,,,,,,5,,33,97
34527,note_on,27,0,1,,,,,,,,,,0,,74,0
34527,note_on,27,0,3,,,,,,,,,,2,,74,0
34530,note_on,3,0,3,,,,,,,,,,2,,76,99
34530,note_on,3,0,1,,,,,,,,,,0,,76,99
34536,note_on,96,0,2,,,,,,,,,,1,,76,0
34548,note_on,12,0,2,,,,,,,,,,1,,69,0
34548,note_on,18,0,1,,,,,,,,,,0,,73,0
34548,note_on,108,0,4,,,,,,,,,,3,,73,0
34554,note_on,54,0,5,,,,,,,,,,4,,67,0
34554,note_on,54,0,6,,,,,,,,,,5,,33,0
34557,note_on,27,0,3,,,,,,,,,,2,,76,0
34557,note_on,9,0,1,,,,,,,,,,0,,76,0
34560,note_on,6,0,5,,,,,,,,,,4,,66,49
34560,note_on,3,0,1,,,,,,,,,,0,,74,62
34560,note_on,6,0,6,,,,,,,,,,5,,38,57
34560,note_on,0,0,2,,,,,,,,,,1,,74,60
34560,note_on,3,0,3,,,,,,,,,,2,,74,48
34560,note_on,12,0,2,,,,,,,,,,1,,66,62
34560,note_on,12,0,4,,,,,,,,,,3,,74,51
34614,note_on,54,0,4,,,,,,,,,,3,,74,0
34614,note_on,54,0,3,,,,,,,,,,2,,74,0
34620,note_on,6,0,3,,,,,,,,,,2,,62,33
34620,note_on,6,0,4,,,,,,,,,,3,,62,37
34668,note_on,108,0,6,,,,,,,,,,5,,38,0
34668,note_on,108,0,1,,,,,,,,,,0,,74,0
34668,note_on,108,0,2,,,,,,,,,,1,,74,0
34668,note_on,0,0,2,,,,,,,,,,1,,66,0
34668,note_on,108,0,5,,,,,,,,,,4,,66,0
34674,note_on,54,0,4,,,,,,,,,,3,,62,0
34674,note_on,54,0,3,,,,,,,,,,2,,62,0
34680,note_on,6,0,3,,,,,,,,,,2,,61,46
34680,note_on,12,0,6,,,,,,,,,,5,,47,61
34680,note_on,6,0,4,,,,,,,,,,3,,61,45
34680,note_on,12,0,5,,,,,,,,,,4,,62,42
34707,note_on,27,0,3,,,,,,,,,,2,,61,0
34707,note_on,27,0,4,,,,,,,,,,3,,61,0
34710,note_on,3,0,3,,,,,,,,,,2,,62,48
34710,note_on,3,0,4,,,,,,,,,,3,,62,51
34737,note_on,27,0,4,,,,,,,,,,3,,62,0
34737,note_on,27,0,3,,,,,,,,,,2,,62,0
34740,note_on,3,0,3,,,,,,,,,,2,,64,53
34740,note_on,3,0,4,,,,,,,,,,3,,64,51
34767,note_on,27,0,4,,,,,,,,,,3,,64,0
34767,note_on,27,0,3,,,,,,,,,,2,,64,0
34770,note_on,3,0,3,,,,,,,,,,2,,66,53
34770,note_on,3,0,4,,,,,,,,,,3,,66,49
34788,note_on,108,0,6,,,,,,,,,,5,,47,0
34797,note_on,27,0,4,,,,,,,,,,3,,66,0
34797,note_on,27,0,3,,,,,,,,,,2,,66,0
34800,note_on,3,0,3,,,,,,,,,,2,,67,54
34800,note_on,3,0,4,,,,,,,,,,3,,67,51
34800,note_on,12,0,6,,,,,,,,,,5,,43,43
34854,note_on,54,0,4,,,,,,,,,,3,,67,0
34854,note_on,54,0,3,,,,,,,,,,2,,67,0
34860,note_on,6,0,4,,,,,,,,,,3,,64,45
34860,note_on,6,0,3,,,,,,,,,,2,,64,43
34896,note_on,216,0,5,,,,,,,,,,4,,62,0
34908,note_on,108,0,6,,,,,,,,,,5,,43,0
34914,note_on,54,0,4,,,,,,,,,,3,,64,0
34914,note_on,54,0,3,,,,,,,,,,2,,64,0
34920,note_on,12,0,6,,,,,,,,,,5,,45,53
34920,note_on,6,0,4,,,,,,,,,,3,,63,47
34920,note_on,6,0,3,,,,,,,,,,2,,63,49
34920,note_on,24,0,5,,,,,,,,,,4,,61,45
34947,note_on,27,0,3,,,,,,,,,,2,,63,0
34947,note_on,27,0,4,,,,,,,,,,3,,63,0
34950,note_on,3,0,4,,,,,,,,,,3,,64,48
34950,note_on,3,0,3,,,,,,,,,,2,,64,49
34974,note_on,54,0,6,,,,,,,,,,5,,45,0
34977,note_on,27,0,4,,,,,,,,,,3,,64,0
34977,note_on,27,0,3,,,,,,,,,,2,,64,0
34980,note_on,3,0,4,,,,,,,,,,3,,66,52
34980,note_on,6,0,6,,,,,,,,,,5,,43,44
34980,note_on,3,0,3,,,,,,,,,,2,,66,51
35007,note_on,27,0,4,,,,,,,,,,3,,66,0
35007,note_on,27,0,3,,,,,,,,,,2,,66,0
35010,note_on,3,0,3,,,,,,,,,,2,,67,50
35010,note_on,3,0,4,,,,,,,,,,3,,67,49
35028,note_on,108,0,5,,,,,,,,,,4,,61,0
35034,note_on,54,0,6,,,,,,,,,,5,,43,0
35037,note_on,27,0,3,,,,,,,,,,2,,67,0
35037,note_on,27,0,4,,,,,,,,,,3,,67,0
35040,note_on,12,0,5,,,,,,,,,,4,,62,103
35040,note_on,3,0,4,,,,,,,,,,3,,69,105
35040,note_on,372,0,1,,,,,,,,,,0,,74,89
35040,note_on,0,0,1,,,,,,,,,,0,,69,89
35040,note_on,0,0,2,,,,,,,,,,1,,74,108
35040,note_on,372,0,2,,,,,,,,,,1,,81,89
35040,note_on,6,0,6,,,,,,,,,,5,,42,95
35040,note_on,3,0,3,,,,,,,,,,2,,69,56
35094,note_on,54,0,4,,,,,,,,,,3,,69,0
35094,note_on,54,0,6,,,,,,,,,,5,,42,0
35094,note_on,54,0,3,,,,,,,,,,2,,69,0
35094,note_on,54,0,5,,,,,,,,,,4,,62,0
35100,note_on,6,0,4,,,,,,,,,,3,,69,95
35100,note_on,6,0,6,,,,,,,,,,5,,42,94
35100,note_on,6,0,3,,,,,,,,,,2,,69,94
35100,note_on,6,0,5,,,,,,,,,,4,,62,97
35154,note_on,54,0,3,,,,,,,,,,2,,69,0
35154,note_on,54,0,4,,,,,,,,,,3,,69,0
35154,note_on,54,0,6,,,,,,,,,,5,,42,0
35154,note_on,54,0,5,,,,,,,,,,4,,62,0
35160,note_on,6,0,4,,,,,,,,,,3,,69,98
35160,note_on,6,0,3,,,,,,,,,,2,,69,99
35160,note_on,6,0,6,,,,,,,,,,5,,42,99
35160,note_on,6,0,5,,,,,,,,,,4,,62,99
35173,note_on,13,0,3,,,,,,,,,,2,,69,0
35173,note_on,13,0,4,,,,,,,,,,3,,69,0
35175,note_on,2,0,3,,,,,,,,,,2,,71,102
35175,note_on,2,0,4,,,,,,,,,,3,,71,101
35188,note_on,13,0,3,,,,,,,,,,2,,71,0
35188,note_on,13,0,4,,,,,,,,,,3,,71,0
35190,note_on,2,0,3,,,,,,,,,,2,,69,89
35190,note_on,2,0,4,,,,,,,,,,3,,69,89
35203,note_on,13,0,3,,,,,,,,,,2,,69,0
35203,note_on,13,0,4,,,,,,,,,,3,,69,0
35205,note_on,2,0,4,,,,,,,,,,3,,71,103
35205,note_on,2,0,3,,,,,,,,,,2,,71,100
35214,note_on,54,0,6,,,,,,,,,,5,,42,0
35214,note_on,54,0,5,,,,,,,,,,4,,62,0
35218,note_on,13,0,4,,,,,,,,,,3,,71,0
35218,note_on,13,0,3,,,,,,,,,,2,,71,0
35220,note_on,2,0,4,,,,,,,,,,3,,69,88
35220,note_on,6,0,5,,,,,,,,,,4,,62,95
35220,note_on,2,0,3,,,,,,,,,,2,,69,88
35220,note_on,6,0,6,,,,,,,,,,5,,42,96
35233,note_on,13,0,3,,,,,,,,,,2,,69,0
35233,note_on,13,0,4,,,,,,,,,,3,,69,0
35235,note_on,2,0,4,,,,,,,,,,3,,71,99
35235,note_on,2,0,3,,,,,,,,,,2,,71,100
35248,note_on,13,0,4,,,,,,,,,,3,,71,0
35248,note_on,13,0,3,,,,,,,,,,2,,71,0
35250,note_on,2,0,4,,,,,,,,,,3,,67,85
35250,note_on,2,0,3,,,,,,,,,,2,,67,87
35256,note_on,216,0,2,,,,,,,,,,1,,81,0
35256,note_on,216,0,1,,,,,,,,,,0,,69,0
35263,note_on,13,0,3,,,,,,,,,,2,,67,0
35263,note_on,13,0,4,,,,,,,,,,3,,67,0
35265,note_on,2,0,3,,,,,,,,,,2,,69,99
35265,note_on,2,0,4,,,,,,,,,,3,,69,100
35274,note_on,54,0,6,,,,,,,,,,5,,42,0
35274,note_on,54,0,5,,,,,,,,,,4,,62,0
35278,note_on,13,0,3,,,,,,,,,,2,,69,0
35278,note_on,13,0,4,,,,,,,,,,3,,69,0
35280,note_on,2,0,3,,,,,,,,,,2,,71,104
35280,note_on,6,0,5,,,,,,,,,,4,,62,101
35280,note_on,6,0,6,,,,,,,,,,5,,43,101
35280,note_on,2,0,4,,,,,,,,,,3,,71,103
35280,note_on,24,0,1,,,,,,,,,,0,,71,100
35280,note_on,24,0,2,,,,,,,,,,1,,83,101
35334,note_on,54,0,4,,,,,,,,,,3,,71,0
35334,note_on,54,0,5,,,,,,,,,,4,,62,0
35334,note_on,54,0,3,,,,,,,,,,2,,71,0
35334,note_on,54,0,6,,,,,,,,,,5,,43,0
35340,note_on,6,0,4,,,,,,,,,,3,,67,86
35340,note_on,6,0,6,,,,,,,,,,5,,43,98
35340,note_on,6,0,5,,,,,,,,,,4,,62,94
35340,note_on,6,0,3,,,,,,,,,,2,,67,87
35376,note_on,96,0,1,,,,,,,,,,0,,74,0
35394,note_on,54,0,3,,,,,,,,,,2,,67,0
35394,note_on,54,0,6,,,,,,,,,,5,,43,0
35394,note_on,54,0,4,,,,,,,,,,3,,67,0
35394,note_on,54,0,5,,,,,,,,,,4,,62,0
35400,note_on,6,0,6,,,,,,,,,,5,,44,102
35400,note_on,6,0,3,,,,,,,,,,2,,64,90
35400,note_on,24,0,1,,,,,,,,,,0,,76,101
35400,note_on,6,0,5,,,,,,,,,,4,,56,84
35400,note_on,6,0,4,,,,,,,,,,3,,64,90
35454,note_on,54,0,4,,,,,,,,,,3,,64,0
35454,note_on,54,0,5,,,,,,,,,,4,,56,0
35454,note_on,54,0,3,,,,,,,,,,2,,64,0
35454,note_on,54,0,6,,,,,,,,,,5,,44,0
35460,note_on,6,0,5,,,,,,,,,,4,,56,92
35460,note_on,6,0,3,,,,,,,,,,2,,59,83
35460,note_on,6,0,4,,,,,,,,,,3,,59,81
35460,note_on,6,0,6,,,,,,,,,,5,,44,94
35496,note_on,0,0,2,,,,,,,,,,1,,74,0
35496,note_on,216,0,2,,,,,,,,,,1,,83,0
35496,note_on,96,0,1,,,,,,,,,,0,,71,0
35508,note_on,12,0,1,,,,,,,,,,0,,76,0
35514,note_on,54,0,3,,,,,,,,,,2,,59,0
35514,note_on,54,0,4,,,,,,,,,,3,,59,0
35514,note_on,54,0,6,,,,,,,,,,5,,44,0
35514,note_on,54,0,5,,,,,,,,,,4,,56,0
35520,note_on,6,0,6,,,,,,,,,,5,,45,105
35520,note_on,0,0,1,,,,,,,,,,0,,69,94
35520,note_on,6,0,4,,,,,,,,,,3,,57,89
35520,note_on,12,0,1,,,,,,,,,,0,,78,104
35520,note_on,0,0,2,,,,,,,,,,1,,74,100
35520,note_on,6,0,5,,,,,,,,,,4,,57,101
35520,note_on,6,0,3,,,,,,,,,,2,,57,91
35520,note_on,24,0,2,,,,,,,,,,1,,78,88
35574,note_on,54,0,4,,,,,,,,,,3,,57,0
35574,note_on,54,0,5,,,,,,,,,,4,,57,0
35574,note_on,54,0,6,,,,,,,,,,5,,45,0
35580,note_on,6,0,5,,,,,,,,,,4,,57,96
35580,note_on,6,0,6,,,,,,,,,,5,,45,95
35580,note_on,6,0,4,,,,,,,,,,3,,57,93
35628,note_on,108,0,1,,,,,,,,,,0,,69,0
35634,note_on,54,0,5,,,,,,,,,,4,,57,0
35634,note_on,54,0,6,,,,,,,,,,5,,45,0
35634,note_on,54,0,4,,,,,,,,,,3,,57,0
35640,note_on,6,0,5,,,,,,,,,,4,,57,98
35640,note_on,12,0,1,,,,,,,,,,0,,74,110
35640,note_on,6,0,6,,,,,,,,,,5,,45,100
35640,note_on,6,0,4,,,,,,,,,,3,,62,110
35694,note_on,54,0,5,,,,,,,,,,4,,57,0
35694,note_on,54,0,6,,,,,,,,,,5,,45,0
35694,note_on,54,0,4,,,,,,,,,,3,,62,0
35700,note_on,6,0,6,,,,,,,,,,5,,45,96
35700,note_on,6,0,5,,,,,,,,,,4,,57,95
35700,note_on,6,0,4,,,,,,,,,,3,,62,98
35736,note_on,96,0,1,,,,,,,,,,0,,78,0
35736,note_on,216,0,3,,,,,,,,,,2,,57,0
35736,note_on,216,0,2,,,,,,,,,,1,,78,0
35754,note_on,54,0,4,,,,,,,,,,3,,62,0
35754,note_on,54,0,6,,,,,,,,,,5,,45,0
35754,note_on,54,0,5,,,,,,,,,,4,,57,0
35760,note_on,6,0,6,,,,,,,,,,5,,33,73
35760,note_on,6,0,4,,,,,,,,,,3,,62,97
35760,note_on,6,0,5,,,,,,,,,,4,,57,100
35760,note_on,24,0,3,,,,,,,,,,2,,64,112
35760,note_on,24,0,2,,,,,,,,,,1,,76,86
35760,note_on,24,0,1,,,,,,,,,,0,,76,93
35773,note_on,13,0,3,,,,,,,,,,2,,64,0
35773,note_on,13,0,1,,,,,,,,,,0,,76,0
35775,note_on,2,0,1,,,,,,,,,,0,,78,103
35775,note_on,2,0,3,,,,,,,,,,2,,66,102
35788,note_on,13,0,3,,,,,,,,,,2,,66,0
35788,note_on,13,0,1,,,,,,,,,,0,,78,0
35790,note_on,2,0,1,,,,,,,,,,0,,76,92
35790,note_on,2,0,3,,,,,,,,,,2,,64,92
35803,note_on,13,0,3,,,,,,,,,,2,,64,0
35803,note_on,13,0,1,,,,,,,,,,0,,76,0
35805,note_on,2,0,3,,,,,,,,,,2,,66,99
35805,note_on,2,0,1,,,,,,,,,,0,,78,100
35814,note_on,54,0,6,,,,,,,,,,5,,33,0
35814,note_on,54,0,5,,,,,,,,,,4,,57,0
35814,note_on,54,0,4,,,,,,,,,,3,,62,0
35818,note_on,13,0,3,,,,,,,,,,2,,66,0
35818,note_on,13,0,1,,,,,,,,,,0,,78,0
35820,note_on,6,0,5,,,,,,,,,,4,,57,97
35820,note_on,6,0,4,,,,,,,,,,3,,62,98
35820,note_on,6,0,6,,,,,,,,,,5,,33,90
35820,note_on,2,0,3,,,,,,,,,,2,,64,92
35820,note_on,2,0,1,,,,,,,,,,0,,76,90
35833,note_on,13,0,1,,,,,,,,,,0,,76,0
35833,note_on,13,0,3,,,,,,,,,,2,,64,0
35835,note_on,2,0,1,,,,,,,,,,0,,78,101
35835,note_on,2,0,3,,,,,,,,,,2,,66,103
35848,note_on,13,0,1,,,,,,,,,,0,,78,0
35848,note_on,13,0,3,,,,,,,,,,2,,66,0
35850,note_on,2,0,1,,,,,,,,,,0,,76,91
35850,note_on,2,0,3,,,,,,,,,,2,,64,88
35856,note_on,96,0,2,,,,,,,,,,1,,74,0
35856,note_on,6,0,1,,,,,,,,,,0,,74,0
35863,note_on,13,0,3,,,,,,,,,,2,,64,0
35863,note_on,7,0,1,,,,,,,,,,0,,76,0
35865,note_on,2,0,3,,,,,,,,,,2,,66,102
35865,note_on,2,0,1,,,,,,,,,,0,,78,102
35874,note_on,54,0,5,,,,,,,,,,4,,57,0
35874,note_on,54,0,4,,,,,,,,,,3,,62,0
35874,note_on,54,0,6,,,,,,,,,,5,,33,0
35878,note_on,13,0,1,,,,,,,,,,0,,78,0
35878,note_on,13,0,3,,,,,,,,,,2,,66,0
35880,note_on,6,0,4,,,,,,,,,,3,,61,92
35880,note_on,0,0,1,,,,,,,,,,0,,73,93
35880,note_on,6,0,6,,,,,,,,,,5,,33,98
35880,note_on,24,0,2,,,,,,,,,,1,,69,82
35880,note_on,2,0,3,,,,,,,,,,2,,64,94
35880,note_on,2,0,1,,,,,,,,,,0,,76,95
35880,note_on,6,0,5,,,,,,,,,,4,,57,100
35893,note_on,13,0,1,,,,,,,,,,0,,76,0
35893,note_on,13,0,3,,,,,,,,,,2,,64,0
35895,note_on,2,0,1,,,,,,,,,,0,,78,103
35895,note_on,2,0,3,,,,,,,,,,2,,66,103
35908,note_on,13,0,1,,,,,,,,,,0,,78,0
35908,note_on,13,0,3,,,,,,,,,,2,,66,0
35910,note_on,2,0,1,,,,,,,,,,0,,76,91
35910,note_on,2,0,3,,,,,,,,,,2,,64,89
35923,note_on,13,0,1,,,,,,,,,,0,,76,0
35923,note_on,13,0,3,,,,,,,,,,2,,64,0
35925,note_on,2,0,1,,,,,,,,,,0,,78,101
35925,note_on,2,0,3,,,,,,,,,,2,,66,102
35934,note_on,54,0,6,,,,,,,,,,5,,33,0
35934,note_on,54,0,5,,,,,,,,,,4,,57,0
35934,note_on,54,0,4,,,,,,,,,,3,,61,0
35938,note_on,13,0,1,,,,,,,,,,0,,78,0
35938,note_on,13,0,3,,,,,,,,,,2,,66,0
35940,note_on,6,0,4,,,,,,,,,,3,,61,96
35940,note_on,2,0,1,,,,,,,,,,0,,74,84
35940,note_on,6,0,6,,,,,,,,,,5,,33,94
35940,note_on,6,0,5,,,,,,,,,,4,,57,96
35940,note_on,2,0,3,,,,,,,,,,2,,62,85
35967,note_on,27,0,1,,,,,,,,,,0,,74,0
35967,note_on,27,0,3,,,,,,,,,,2,,62,0
35970,note_on,3,0,3,,,,,,,,,,2,,64,98
35970,note_on,3,0,1,,,,,,,,,,0,,76,98
35976,note_on,96,0,2,,,,,,,,,,1,,76,0
35988,note_on,18,0,1,,,,,,,,,,0,,73,0
35988,note_on,12,0,2,,,,,,,,,,1,,69,0
35994,note_on,54,0,4,,,,,,,,,,3,,61,0
35994,note_on,54,0,6,,,,,,,,,,5,,33,0
35994,note_on,54,0,5,,,,,,,,,,4,,57,0
35997,note_on,27,0,3,,,,,,,,,,2,,64,0
35997,note_on,9,0,1,,,,,,,,,,0,,76,0
36000,note_on,6,0,6,,,,,,,,,,5,,37,108
36000,note_on,3,0,1,,,,,,,,,,0,,74,93
36000,note_on,6,0,5,,,,,,,,,,4,,62,110
36000,note_on,12,0,2,,,,,,,,,,1,,74,90
36000,note_on,3,0,3,,,,,,,,,,2,,62,93
36000,note_on,6,0,4,,,,,,,,,,3,,62,102
36054,note_on,54,0,6,,,,,,,,,,5,,37,0
36054,note_on,54,0,1,,,,,,,,,,0,,74,0
36054,note_on,54,0,2,,,,,,,,,,1,,74,0
36054,note_on,54,0,4,,,,,,,,,,3,,62,0
36054,note_on,54,0,5,,,,,,,,,,4,,62,0
36054,note_on,54,0,3,,,,,,,,,,2,,62,0
36060,note_on,6,0,6,,,,,,,,,,5,,38,103
36060,note_on,6,0,3,,,,,,,,,,2,,62,95
36060,note_on,6,0,2,,,,,,,,,,1,,74,96
36060,note_on,6,0,5,,,,,,,,,,4,,62,98
36060,note_on,6,0,1,,,,,,,,,,0,,62,67
36060,note_on,6,0,4,,,,,,,,,,3,,62,96
36087,note_on,27,0,6,,,,,,,,,,5,,38,0
36087,note_on,27,0,4,,,,,,,,,,3,,62,0
36087,note_on,27,0,2,,,,,,,,,,1,,74,0
36087,note_on,27,0,1,,,,,,,,,,0,,62,0
36087,note_on,27,0,5,,,,,,,,,,4,,62,0
36087,note_on,27,0,3,,,,,,,,,,2,,62,0
36090,note_on,3,0,3,,,,,,,,,,2,,64,104
36090,note_on,3,0,1,,,,,,,,,,0,,64,97
36090,note_on,3,0,4,,,,,,,,,,3,,64,101
36090,note_on,3,0,6,,,,,,,,,,5,,40,102
36090,note_on,3,0,5,,,,,,,,,,4,,64,101
36090,note_on,3,0,2,,,,,,,,,,1,,76,100
36117,note_on,27,0,5,,,,,,,,,,4,,64,0
36117,note_on,27,0,3,,,,,,,,,,2,,64,0
36117,note_on,27,0,4,,,,,,,,,,3,,64,0
36117,note_on,27,0,6,,,,,,,,,,5,,40,0
36117,note_on,27,0,2,,,,,,,,,,1,,76,0
36117,note_on,27,0,1,,,,,,,,,,0,,64,0
36120,note_on,3,0,2,,,,,,,,,,1,,78,105
36120,note_on,3,0,5,,,,,,,,,,4,,66,103
36120,note_on,3,0,3,,,,,,,,,,2,,66,107
36120,note_on,3,0,6,,,,,,,,,,5,,42,105
36120,note_on,3,0,1,,,,,,,,,,0,,66,106
36120,note_on,3,0,4,,,,,,,,,,3,,66,106
36174,note_on,54,0,3,,,,,,,,,,2,,66,0
36174,note_on,54,0,5,,,,,,,,,,4,,66,0
36174,note_on,54,0,6,,,,,,,,,,5,,42,0
36174,note_on,54,0,2,,,,,,,,,,1,,78,0
36174,note_on,54,0,4,,,,,,,,,,3,,66,0
36174,note_on,54,0,1,,,,,,,,,,0,,66,0
36180,note_on,6,0,5,,,,,,,,,,4,,67,103
36180,note_on,6,0,4,,,,,,,,,,3,,67,99
36180,note_on,6,0,2,,,,,,,,,,1,,79,100
36180,note_on,6,0,1,,,,,,,,,,0,,67,100
36180,note_on,6,0,3,,,,,,,,,,2,,67,100
36180,note_on,6,0,6,,,,,,,,,,5,,43,102
36234,note_on,54,0,6,,,,,,,,,,5,,43,0
36234,note_on,54,0,2,,,,,,,,,,1,,79,0
36234,note_on,54,0,5,,,,,,,,,,4,,67,0
36234,note_on,54,0,4,,,,,,,,,,3,,67,0
36234,note_on,54,0,3,,,,,,,,,,2,,67,0
36234,note_on,54,0,1,,,,,,,,,,0,,67,0
36240,note_on,6,0,1,,,,,,,,,,0,,69,103
36240,note_on,6,0,2,,,,,,,,,,1,,69,103
36240,note_on,0,0,2,,,,,,,,,,1,,81,101
36240,note_on,6,0,3,,,,,,,,,,2,,69,102
36240,note_on,6,0,6,,,,,,,,,,5,,45,104
36240,note_on,6,0,4,,,,,,,,,,3,,69,102
36240,note_on,6,0,5,,,,,,,,,,4,,69,104
36348,note_on,108,0,2,,,,,,,,,,1,,81,0
36348,note_on,108,0,5,,,,,,,,,,4,,69,0
36348,note_on,108,0,1,,,,,,,,,,0,,69,0
36348,note_on,108,0,4,,,,,,,,,,3,,69,0
36348,note_on,108,0,6,,,,,,,,,,5,,45,0
36348,note_on,108,0,3,,,,,,,,,,2,,69,0
36348,note_on,0,0,2,,,,,,,,,,1,,69,0
36360,note_on,0,0,4,,,,,,,,,,3,,64,108
36360,note_on,12,0,4,,,,,,,,,,3,,57,106
36360,note_on,12,0,1,,,,,,,,,,0,,67,106
36360,note_on,12,0,3,,,,,,,,,,2,,57,107
36360,note_on,0,0,3,,,,,,,,,,2,,64,106
36360,note_on,12,0,5,,,,,,,,,,4,,57,71
36360,note_on,0,0,2,,,,,,,,,,1,,69,68
36360,note_on,0,0,3,,,,,,,,,,2,,73,107
36360,note_on,0,0,4,,,,,,,,,,3,,73,107
36360,note_on,12,0,2,,,,,,,,,,1,,57,68
36360,note_on,0,0,1,,,,,,,,,,0,,73,108
36360,note_on,12,0,6,,,,,,,,,,5,,33,71
36468,note_on,108,0,2,,,,,,,,,,1,,69,0
36468,note_on,0,0,2,,,,,,,,,,1,,57,0
36468,note_on,0,0,4,,,,,,,,,,3,,57,0
36468,note_on,0,0,1,,,,,,,,,,0,,67,0
36468,note_on,108,0,6,,,,,,,,,,5,,33,0
36468,note_on,108,0,3,,,,,,,,,,2,,73,0
36468,note_on,0,0,3,,,,,,,,,,2,,64,0
36468,note_on,0,0,3,,,,,,,,,,2,,57,0
36468,note_on,0,0,4,,,,,,,,,,3,,64,0
36468,note_on,108,0,4,,,,,,,,,,3,,73,0
36468,note_on,108,0,1,,,,,,,,,,0,,73,0
36468,note_on,108,0,5,,,,,,,,,,4,,57,0
36480,note_on,12,0,5,,,,,,,,,,4,,62,105
36480,note_on,12,0,4,,,,,,,,,,3,,57,107
36480,note_on,12,0,2,,,,,,,,,,1,,74,107
36480,note_on,0,0,4,,,,,,,,,,3,,66,107
36480,note_on,12,0,6,,,,,,,,,,5,,37,103
36480,note_on,0,0,4,,,,,,,,,,3,,74,106
36480,note_on,12,0,1,,,,,,,,,,0,,74,105
36480,note_on,0,0,3,,,,,,,,,,2,,74,104
36480,note_on,0,0,3,,,,,,,,,,2,,66,105
36480,note_on,12,0,3,,,,,,,,,,2,,57,106
36534,note_on,54,0,3,,,,,,,,,,2,,74,0
36534,note_on,0,0,3,,,,,,,,,,2,,57,0
36534,note_on,54,0,2,,,,,,,,,,1,,74,0
36534,note_on,54,0,5,,,,,,,,,,4,,62,0
36534,note_on,0,0,3,,,,,,,,,,2,,66,0
36534,note_on,54,0,6,,,,,,,,,,5,,37,0
36534,note_on,54,0,1,,,,,,,,,,0,,74,0
36534,note_on,54,0,4,,,,,,,,,,3,,74,0
36534,note_on,0,0,4,,,,,,,,,,3,,66,0
36534,note_on,0,0,4,,,,,,,,,,3,,57,0
36540,note_on,6,0,6,,,,,,,,,,5,,38,103
36540,note_on,6,0,5,,,,,,,,,,4,,62,96
36540,note_on,6,0,1,,,,,,,,,,0,,62,70
36540,note_on,6,0,4,,,,,,,,,,3,,62,71
36540,note_on,6,0,2,,,,,,,,,,1,,74,95
36540,note_on,6,0,3,,,,,,,,,,2,,62,72
36567,note_on,27,0,2,,,,,,,,,,1,,74,0
36567,note_on,27,0,4,,,,,,,,,,3,,62,0
36567,note_on,27,0,6,,,,,,,,,,5,,38,0
36567,note_on,27,0,5,,,,,,,,,,4,,62,0
36567,note_on,27,0,3,,,,,,,,,,2,,62,0
36567,note_on,27,0,1,,,,,,,,,,0,,62,0
36570,note_on,3,0,1,,,,,,,,,,0,,64,95
36570,note_on,3,0,4,,,,,,,,,,3,,64,98
36570,note_on,3,0,5,,,,,,,,,,4,,64,103
36570,note_on,3,0,6,,,,,,,,,,5,,40,103
36570,note_on,3,0,3,,,,,,,,,,2,,64,97
36570,note_on,3,0,2,,,,,,,,,,1,,76,101
36597,note_on,27,0,1,,,,,,,,,,0,,64,0
36597,note_on,27,0,6,,,,,,,,,,5,,40,0
36597,note_on,27,0,3,,,,,,,,,,2,,64,0
36597,note_on,27,0,4,,,,,,,,,,3,,64,0
36597,note_on,27,0,2,,,,,,,,,,1,,76,0
36597,note_on,27,0,5,,,,,,,,,,4,,64,0
36600,note_on,3,0,3,,,,,,,,,,2,,66,106
36600,note_on,3,0,1,,,,,,,,,,0,,66,105
36600,note_on,3,0,2,,,,,,,,,,1,,78,103
36600,note_on,3,0,6,,,,,,,,,,5,,42,105
36600,note_on,3,0,5,,,,,,,,,,4,,66,106
36600,note_on,3,0,4,,,,,,,,,,3,,66,104
36654,note_on,54,0,6,,,,,,,,,,5,,42,0
36654,note_on,54,0,1,,,,,,,,,,0,,66,0
36654,note_on,54,0,4,,,,,,,,,,3,,66,0
36654,note_on,54,0,5,,,,,,,,,,4,,66,0
36654,note_on,54,0,3,,,,,,,,,,2,,66,0
36654,note_on,54,0,2,,,,,,,,,,1,,78,0
36660,note_on,6,0,1,,,,,,,,,,0,,67,100
36660,note_on,6,0,5,,,,,,,,,,4,,67,100
36660,note_on,6,0,2,,,,,,,,,,1,,79,102
36660,note_on,6,0,3,,,,,,,,,,2,,67,102
36660,note_on,6,0,4,,,,,,,,,,3,,67,99
36660,note_on,6,0,6,,,,,,,,,,5,,43,100
36714,note_on,54,0,6,,,,,,,,,,5,,43,0
36714,note_on,54,0,4,,,,,,,,,,3,,67,0
36714,note_on,54,0,3,,,,,,,,,,2,,67,0
36714,note_on,54,0,1,,,,,,,,,,0,,67,0
36714,note_on,54,0,5,,,,,,,,,,4,,67,0
36714,note_on,54,0,2,,,,,,,,,,1,,79,0
36720,note_on,0,0,2,,,,,,,,,,1,,81,101
36720,note_on,6,0,6,,,,,,,,,,5,,45,101
36720,note_on,6,0,1,,,,,,,,,,0,,69,103
36720,note_on,6,0,2,,,,,,,,,,1,,69,100
36720,note_on,6,0,4,,,,,,,,,,3,,69,102
36720,note_on,6,0,5,,,,,,,,,,4,,69,103
36720,note_on,6,0,3,,,,,,,,,,2,,69,104
36828,note_on,108,0,1,,,,,,,,,,0,,69,0
36828,note_on,108,0,6,,,,,,,,,,5,,45,0
36828,note_on,108,0,5,,,,,,,,,,4,,69,0
36828,note_on,108,0,3,,,,,,,,,,2,,69,0
36828,note_on,0,0,2,,,,,,,,,,1,,69,0
36828,note_on,108,0,2,,,,,,,,,,1,,81,0
36828,note_on,108,0,4,,,,,,,,,,3,,69,0
36840,note_on,12,0,2,,,,,,,,,,1,,57,71
36840,note_on,12,0,3,,,,,,,,,,2,,57,107
36840,note_on,12,0,5,,,,,,,,,,4,,57,71
36840,note_on,0,0,2,,,,,,,,,,1,,69,72
36840,note_on,0,0,1,,,,,,,,,,0,,73,107
36840,note_on,0,0,4,,,,,,,,,,3,,73,106
36840,note_on,12,0,6,,,,,,,,,,5,,33,71
36840,note_on,0,0,4,,,,,,,,,,3,,64,109
36840,note_on,12,0,4,,,,,,,,,,3,,57,107
36840,note_on,0,0,3,,,,,,,,,,2,,73,108
36840,note_on,0,0,3,,,,,,,,,,2,,64,109
36840,note_on,12,0,1,,,,,,,,,,0,,67,106
36948,note_on,108,0,2,,,,,,,,,,1,,69,0
36948,note_on,0,0,2,,,,,,,,,,1,,57,0
36948,note_on,108,0,5,,,,,,,,,,4,,57,0
36948,note_on,108,0,4,,,,,,,,,,3,,73,0
36948,note_on,0,0,1,,,,,,,,,,0,,67,0
36948,note_on,108,0,1,,,,,,,,,,0,,73,0
36948,note_on,108,0,6,,,,,,,,,,5,,33,0
36948,note_on,0,0,3,,,,,,,,,,2,,57,0
36948,note_on,0,0,3,,,,,,,,,,2,,64,0
36948,note_on,108,0,3,,,,,,,,,,2,,73,0
36948,note_on,0,0,4,,,,,,,,,,3,,64,0
36948,note_on,0,0,4,,,,,,,,,,3,,57,0
36960,note_on,0,0,1,,,,,,,,,,0,,74,105
36960,note_on,12,0,1,,,,,,,,,,0,,66,103
36960,note_on,12,0,6,,,,,,,,,,5,,38,107
36960,note_on,0,0,4,,,,,,,,,,3,,66,105
36960,note_on,0,0,2,,,,,,,,,,1,,74,108
36960,note_on,12,0,2,,,,,,,,,,1,,62,106
36960,note_on,12,0,3,,,,,,,,,,2,,57,103
36960,note_on,12,0,5,,,,,,,,,,4,,62,106
36960,note_on,0,0,3,,,,,,,,,,2,,74,106
36960,note_on,0,0,4,,,,,,,,,,3,,74,103
36960,note_on,12,0,4,,,,,,,,,,3,,57,107
36960,note_on,0,0,3,,,,,,,,,,2,,66,104
37068,note_on,108,0,1,,,,,,,,,,0,,74,0
37068,note_on,108,0,4,,,,,,,,,,3,,74,0
37068,note_on,0,0,3,,,,,,,,,,2,,66,0
37068,note_on,0,0,4,,,,,,,,,,3,,66,0
37068,note_on,0,0,4,,,,,,,,,,3,,57,0
37068,note_on,108,0,6,,,,,,,,,,5,,38,0
37068,note_on,108,0,3,,,,,,,,,,2,,74,0
37068,note_on,108,0,5,,,,,,,,,,4,,62,0
37068,note_on,0,0,3,,,,,,,,,,2,,57,0
37068,note_on,0,0,1,,,,,,,,,,0,,66,0
37068,note_on,0,0,2,,,,,,,,,,1,,62,0
37068,note_on,108,0,2,,,,,,,,,,1,,74,0
37080,note_on,12,0,3,,,,,,,,,,2,,57,96
37080,note_on,0,0,3,,,,,,,,,,2,,74,95
37080,note_on,12,0,1,,,,,,,,,,0,,66,96
37080,note_on,0,0,2,,,,,,,,,,1,,78,108
37080,note_on,12,0,2,,,,,,,,,,1,,62,109
37080,note_on,12,0,6,,,,,,,,,,5,,38,97
37080,note_on,0,0,4,,,,,,,,,,3,,74,95
37080,note_on,0,0,4,,,,,,,,,,3,,66,96
37080,note_on,12,0,4,,,,,,,,,,3,,57,97
37080,note_on,0,0,1,,,,,,,,,,0,,74,95
37080,note_on,0,0,3,,,,,,,,,,2,,66,95
37080,note_on,12,0,5,,,,,,,,,,4,,62,99
37188,note_on,108,0,3,,,,,,,,,,2,,74,0
37188,note_on,0,0,1,,,,,,,,,,0,,66,0
37188,note_on,108,0,6,,,,,,,,,,5,,38,0
37188,note_on,108,0,2,,,,,,,,,,1,,78,0
37188,note_on,0,0,2,,,,,,,,,,1,,62,0
37188,note_on,0,0,3,,,,,,,,,,2,,66,0
37188,note_on,108,0,5,,,,,,,,,,4,,62,0
37188,note_on,0,0,3,,,,,,,,,,2,,57,0
37188,note_on,108,0,4,,,,,,,,,,3,,74,0
37188,note_on,108,0,1,,,,,,,,,,0,,74,0
37188,note_on,0,0,4,,,,,,,,,,3,,66,0
37188,note_on,0,0,4,,,,,,,,,,3,,57,0
37200,note_on,0,0,4,,,,,,,,,,3,,66,97
37200,note_on,0,0,4,,,,,,,,,,3,,74,96
37200,note_on,12,0,5,,,,,,,,,,4,,62,96
37200,note_on,0,0,2,,,,,,,,,,1,,78,98
37200,note_on,12,0,4,,,,,,,,,,3,,57,97
37200,note_on,12,0,2,,,,,,,,,,1,,62,98
37200,note_on,12,0,6,,,,,,,,,,5,,38,96
37200,note_on,0,0,1,,,,,,,,,,0,,74,94
37200,note_on,0,0,3,,,,,,,,,,2,,66,95
37200,note_on,12,0,3,,,,,,,,,,2,,57,95
37200,note_on,12,0,1,,,,,,,,,,0,,66,97
37200,note_on,0,0,3,,,,,,,,,,2,,74,95
37308,note_on,0,0,4,,,,,,,,,,3,,57,0
37308,note_on,0,0,3,,,,,,,,,,2,,66,0
37308,note_on,108,0,5,,,,,,,,,,4,,62,0
37308,note_on,0,0,3,,,,,,,,,,2,,57,0
37308,note_on,108,0,4,,,,,,,,,,3,,74,0
37308,note_on,0,0,4,,,,,,,,,,3,,66,0
37308,note_on,0,0,2,,,,,,,,,,1,,62,0
37308,note_on,108,0,2,,,,,,,,,,1,,78,0
37308,note_on,0,0,1,,,,,,,,,,0,,66,0
37308,note_on,108,0,1,,,,,,,,,,0,,74,0
37308,note_on,108,0,6,,,,,,,,,,5,,38,0
37308,note_on,108,0,3,,,,,,,,,,2,,74,0
37440,note_on,0,0,5,,,,,,,,,,4,,62,88
37440,note_on,0,0,3,,,,,,,,,,2,,62,89
37440,note_on,0,0,2,,,,,,,,,,1,,74,72
37440,control_change,132,0,2,,,,,,,,91,91,1,,,
37440,control_change,132,0,5,,,,,,,,91,64,4,,,
37440,control_change,132,0,3,,,,,,,,91,53,2,,,
37440,control_change,132,0,4,,,,,,,,91,54,3,,,
37440,note_on,0,0,6,,,,,,,,,,5,,38,87
37440,control_change,132,0,1,,,,,,,,91,76,0,,,
37440,note_on,0,0,1,,,,,,,,,,0,,74,71
37440,control_change,132,0,6,,,,,,,,91,72,5,,,
37440,note_on,0,0,4,,,,,,,,,,3,,62,88
37641,note_on,201,0,1,,,,,,,,,,0,,74,0
37641,note_on,201,0,2,,,,,,,,,,1,,74,0
37641,note_on,201,0,3,,,,,,,,,,2,,62,0
37641,note_on,201,0,6,,,,,,,,,,5,,38,0
37641,note_on,201,0,4,,,,,,,,,,3,,62,0
37641,note_on,201,0,5,,,,,,,,,,4,,62,0
37650,note_on,9,0,5,,,,,,,,,,4,,57,82
37650,note_on,9,0,2,,,,,,,,,,1,,69,64
37650,note_on,9,0,1,,,,,,,,,,0,,69,67
37650,note_on,9,0,3,,,,,,,,,,2,,57,84
37650,note_on,9,0,4,,,,,,,,,,3,,57,84
37650,note_on,9,0,6,,,,,,,,,,5,,33,85
37677,note_on,27,0,5,,,,,,,,,,4,,57,0
37677,note_on,27,0,2,,,,,,,,,,1,,69,0
37677,note_on,27,0,6,,,,,,,,,,5,,33,0
37677,note_on,27,0,4,,,,,,,,,,3,,57,0
37677,note_on,27,0,3,,,,,,,,,,2,,57,0
37677,note_on,27,0,1,,,,,,,,,,0,,69,0
37680,note_on,3,0,3,,,,,,,,,,2,,62,105
37680,note_on,3,0,4,,,,,,,,,,3,,62,108
37680,note_on,3,0,5,,,,,,,,,,4,,62,106
37680,note_on,3,0,6,,,,,,,,,,5,,38,106
37680,note_on,3,0,1,,,,,,,,,,0,,74,83
37680,note_on,3,0,2,,,,,,,,,,1,,74,83
37788,note_on,108,0,4,,,,,,,,,,3,,62,0
37788,note_on,108,0,5,,,,,,,,,,4,,62,0
37788,note_on,108,0,6,,,,,,,,,,5,,38,0
37788,note_on,108,0,1,,,,,,,,,,0,,74,0
37788,note_on,108,0,3,,,,,,,,,,2,,62,0
37788,note_on,108,0,2,,,,,,,,,,1,,74,0
37800,note_on,12,0,3,,,,,,,,,,2,,66,111
37800,note_on,12,0,5,,,,,,,,,,4,,66,110
37800,note_on,12,0,1,,,,,,,,,,0,,78,89
37800,note_on,12,0,4,,,,,,,,,,3,,66,113
37800,note_on,12,0,6,,,,,,,,,,5,,42,113
37881,note_on,81,0,5,,,,,,,,,,4,,66,0
37881,note_on,81,0,1,,,,,,,,,,0,,78,0
37881,note_on,81,0,4,,,,,,,,,,3,,66,0
37881,note_on,81,0,3,,,,,,,,,,2,,66,0
37881,note_on,81,0,6,,,,,,,,,,5,,42,0
37890,note_on,9,0,5,,,,,,,,,,4,,57,76
37890,note_on,9,0,3,,,,,,,,,,2,,57,78
37890,note_on,102,0,2,,,,,,,,,,1,,69,69
37890,note_on,9,0,1,,,,,,,,,,0,,69,62
37890,note_on,9,0,4,,,,,,,,,,3,,57,78
37890,note_on,9,0,6,,,,,,,,,,5,,33,78
37917,note_on,27,0,5,,,,,,,,,,4,,57,0
37917,note_on,27,0,4,,,,,,,,,,3,,57,0
37917,note_on,27,0,2,,,,,,,,,,1,,69,0
37917,note_on,27,0,6,,,,,,,,,,5,,33,0
37917,note_on,27,0,1,,,,,,,,,,0,,69,0
37917,note_on,27,0,3,,,,,,,,,,2,,57,0
37920,note_on,3,0,1,,,,,,,,,,0,,74,85
37920,note_on,3,0,4,,,,,,,,,,3,,62,108
37920,note_on,3,0,2,,,,,,,,,,1,,74,88
37920,note_on,3,0,3,,,,,,,,,,2,,62,107
37920,note_on,3,0,5,,,,,,,,,,4,,62,107
37920,note_on,3,0,6,,,,,,,,,,5,,38,107
38121,note_on,201,0,3,,,,,,,,,,2,,62,0
38121,note_on,201,0,2,,,,,,,,,,1,,74,0
38121,note_on,201,0,6,,,,,,,,,,5,,38,0
38121,note_on,201,0,4,,,,,,,,,,3,,62,0
38121,note_on,201,0,5,,,,,,,,,,4,,62,0
38121,note_on,201,0,1,,,,,,,,,,0,,74,0
38130,note_on,9,0,1,,,,,,,,,,0,,69,66
38130,note_on,9,0,4,,,,,,,,,,3,,57,83
38130,note_on,9,0,6,,,,,,,,,,5,,33,81
38130,note_on,9,0,5,,,,,,,,,,4,,57,84
38130,note_on,9,0,3,,,,,,,,,,2,,57,81
38130,note_on,9,0,2,,,,,,,,,,1,,69,64
38157,note_on,27,0,1,,,,,,,,,,0,,69,0
38157,note_on,27,0,2,,,,,,,,,,1,,69,0
38157,note_on,27,0,5,,,,,,,,,,4,,57,0
38157,note_on,27,0,6,,,,,,,,,,5,,33,0
38157,note_on,27,0,3,,,,,,,,,,2,,57,0
38157,note_on,27,0,4,,,,,,,,,,3,,57,0
38160,note_on,3,0,5,,,,,,,,,,4,,62,104
38160,note_on,3,0,6,,,,,,,,,,5,,38,106
38160,note_on,3,0,4,,,,,,,,,,3,,62,107
38160,note_on,3,0,1,,,,,,,,,,0,,74,85
38160,note_on,3,0,3,,,,,,,,,,2,,62,106
38160,note_on,3,0,2,,,,,,,,,,1,,74,83
38268,note_on,108,0,5,,,,,,,,,,4,,62,0
38268,note_on,108,0,1,,,,,,,,,,0,,74,0
38268,note_on,108,0,4,,,,,,,,,,3,,62,0
38268,note_on,108,0,3,,,,,,,,,,2,,62,0
38268,note_on,108,0,6,,,,,,,,,,5,,38,0
38268,note_on,108,0,2,,,,,,,,,,1,,74,0
38280,note_on,12,0,1,,,,,,,,,,0,,78,87
38280,note_on,12,0,4,,,,,,,,,,3,,66,110
38280,note_on,12,0,6,,,,,,,,,,5,,42,110
38280,note_on,12,0,5,,,,,,,,,,4,,66,110
38280,note_on,12,0,3,,,,,,,,,,2,,66,112
38361,note_on,81,0,1,,,,,,,,,,0,,78,0
38361,note_on,81,0,6,,,,,,,,,,5,,42,0
38361,note_on,81,0,3,,,,,,,,,,2,,66,0
38361,note_on,81,0,4,,,,,,,,,,3,,66,0
38361,note_on,81,0,5,,,,,,,,,,4,,66,0
38370,note_on,9,0,5,,,,,,,,,,4,,57,79
38370,note_on,102,0,2,,,,,,,,,,1,,69,69
38370,note_on,9,0,6,,,,,,,,,,5,,33,78
38370,note_on,9,0,1,,,,,,,,,,0,,69,62
38370,note_on,9,0,4,,,,,,,,,,3,,57,77
38370,note_on,9,0,3,,,,,,,,,,2,,57,79
38397,note_on,27,0,2,,,,,,,,,,1,,69,0
38397,note_on,27,0,6,,,,,,,,,,5,,33,0
38397,note_on,27,0,3,,,,,,,,,,2,,57,0
38397,note_on,27,0,4,,,,,,,,,,3,,57,0
38397,note_on,27,0,5,,,,,,,,,,4,,57,0
38397,note_on,27,0,1,,,,,,,,,,0,,69,0
38400,note_on,3,0,3,,,,,,,,,,2,,62,107
38400,note_on,3,0,2,,,,,,,,,,1,,74,89
38400,note_on,3,0,4,,,,,,,,,,3,,62,109
38400,note_on,3,0,1,,,,,,,,,,0,,74,86
38400,note_on,3,0,6,,,,,,,,,,5,,38,107
38400,note_on,3,0,5,,,,,,,,,,4,,62,106
38454,note_on,54,0,4,,,,,,,,,,3,,62,0
38454,note_on,54,0,6,,,,,,,,,,5,,38,0
38454,note_on,54,0,5,,,,,,,,,,4,,62,0
38454,note_on,54,0,3,,,,,,,,,,2,,62,0
38460,note_on,6,0,5,,,,,,,,,,4,,62,47
38460,note_on,6,0,6,,,,,,,,,,5,,38,47
38508,note_on,108,0,2,,,,,,,,,,1,,74,0
38508,note_on,108,0,1,,,,,,,,,,0,,74,0
38514,note_on,54,0,5,,,,,,,,,,4,,62,0
38514,note_on,54,0,6,,,,,,,,,,5,,38,0
38520,note_on,66,0,3,,,,,,,,,,2,,83,44
38520,note_on,66,0,4,,,,,,,,,,3,,79,47
38520,note_on,6,0,5,,,,,,,,,,4,,62,49
38520,note_on,6,0,6,,,,,,,,,,5,,38,51
38574,note_on,54,0,6,,,,,,,,,,5,,38,0
38574,note_on,54,0,4,,,,,,,,,,3,,79,0
38574,note_on,54,0,3,,,,,,,,,,2,,83,0
38574,note_on,54,0,5,,,,,,,,,,4,,62,0
38580,note_on,6,0,6,,,,,,,,,,5,,38,50
38580,note_on,6,0,5,,,,,,,,,,4,,62,50
38634,note_on,54,0,6,,,,,,,,,,5,,38,0
38634,note_on,54,0,5,,,,,,,,,,4,,62,0
38640,note_on,66,0,4,,,,,,,,,,3,,78,44
38640,note_on,6,0,5,,,,,,,,,,4,,62,52
38640,note_on,6,0,6,,,,,,,,,,5,,38,52
38640,note_on,66,0,3,,,,,,,,,,2,,81,45
38694,note_on,54,0,4,,,,,,,,,,3,,78,0
38694,note_on,54,0,5,,,,,,,,,,4,,62,0
38694,note_on,54,0,6,,,,,,,,,,5,,38,0
38694,note_on,54,0,3,,,,,,,,,,2,,81,0
38700,note_on,6,0,5,,,,,,,,,,4,,62,47
38700,note_on,6,0,6,,,,,,,,,,5,,38,49
38754,note_on,54,0,5,,,,,,,,,,4,,62,0
38754,note_on,54,0,6,,,,,,,,,,5,,38,0
38760,note_on,6,0,5,,,,,,,,,,4,,62,50
38760,note_on,6,0,6,,,,,,,,,,5,,38,52
38760,note_on,66,0,4,,,,,,,,,,3,,76,45
38760,note_on,66,0,3,,,,,,,,,,2,,79,48
38814,note_on,54,0,5,,,,,,,,,,4,,62,0
38814,note_on,54,0,6,,,,,,,,,,5,,38,0
38814,note_on,54,0,4,,,,,,,,,,3,,76,0
38814,note_on,54,0,3,,,,,,,,,,2,,79,0
38820,note_on,6,0,5,,,,,,,,,,4,,62,50
38820,note_on,6,0,6,,,,,,,,,,5,,38,49
38874,note_on,54,0,5,,,,,,,,,,4,,62,0
38874,note_on,54,0,6,,,,,,,,,,5,,38,0
38880,note_on,66,0,4,,,,,,,,,,3,,74,47
38880,note_on,6,0,5,,,,,,,,,,4,,62,51
38880,note_on,66,0,3,,,,,,,,,,2,,78,45
38880,note_on,6,0,6,,,,,,,,,,5,,38,50
38934,note_on,54,0,3,,,,,,,,,,2,,78,0
38934,note_on,54,0,5,,,,,,,,,,4,,62,0
38934,note_on,54,0,4,,,,,,,,,,3,,74,0
38934,note_on,54,0,6,,,,,,,,,,5,,38,0
38940,note_on,6,0,6,,,,,,,,,,5,,38,47
38940,note_on,6,0,5,,,,,,,,,,4,,62,47
38994,note_on,54,0,5,,,,,,,,,,4,,62,0
38994,note_on,54,0,6,,,,,,,,,,5,,38,0
39000,note_on,6,0,5,,,,,,,,,,4,,62,52
39000,note_on,6,0,6,,,,,,,,,,5,,38,52
39000,note_on,66,0,4,,,,,,,,,,3,,76,48
39000,note_on,66,0,3,,,,,,,,,,2,,79,45
39054,note_on,54,0,5,,,,,,,,,,4,,62,0
39054,note_on,54,0,3,,,,,,,,,,2,,79,0
39054,note_on,54,0,6,,,,,,,,,,5,,38,0
39054,note_on,54,0,4,,,,,,,,,,3,,76,0
39060,note_on,6,0,5,,,,,,,,,,4,,62,48
39060,note_on,6,0,6,,,,,,,,,,5,,38,49
39114,note_on,54,0,6,,,,,,,,,,5,,38,0
39114,note_on,54,0,5,,,,,,,,,,4,,62,0
39120,note_on,6,0,6,,,,,,,,,,5,,38,51
39120,note_on,66,0,4,,,,,,,,,,3,,74,45
39120,note_on,6,0,5,,,,,,,,,,4,,62,52
39120,note_on,66,0,3,,,,,,,,,,2,,78,45
39174,note_on,54,0,4,,,,,,,,,,3,,74,0
39174,note_on,54,0,5,,,,,,,,,,4,,62,0
39174,note_on,54,0,3,,,,,,,,,,2,,78,0
39174,note_on,54,0,6,,,,,,,,,,5,,38,0
39180,note_on,6,0,5,,,,,,,,,,4,,62,47
39180,note_on,6,0,6,,,,,,,,,,5,,38,49
39234,note_on,54,0,6,,,,,,,,,,5,,38,0
39234,note_on,54,0,5,,,,,,,,,,4,,62,0
39240,note_on,66,0,3,,,,,,,,,,2,,76,46
39240,note_on,6,0,5,,,,,,,,,,4,,62,53
39240,note_on,66,0,4,,,,,,,,,,3,,73,48
39240,note_on,6,0,6,,,,,,,,,,5,,38,49
39294,note_on,54,0,5,,,,,,,,,,4,,62,0
39294,note_on,54,0,4,,,,,,,,,,3,,73,0
39294,note_on,54,0,6,,,,,,,,,,5,,38,0
39294,note_on,54,0,3,,,,,,,,,,2,,76,0
39300,note_on,6,0,6,,,,,,,,,,5,,38,49
39300,note_on,6,0,5,,,,,,,,,,4,,62,47
39354,note_on,54,0,5,,,,,,,,,,4,,62,0
39354,note_on,54,0,6,,,,,,,,,,5,,38,0
39360,note_on,6,0,5,,,,,,,,,,4,,62,98
39360,note_on,852,0,2,,,,,,,,,,1,,74,89
39360,note_on,66,0,3,,,,,,,,,,2,,62,89
39360,note_on,0,0,4,,,,,,,,,,3,,74,87
39360,note_on,852,0,1,,,,,,,,,,0,,74,72
39360,note_on,0,0,3,,,,,,,,,,2,,74,90
39360,note_on,6,0,6,,,,,,,,,,5,,38,100
39360,note_on,66,0,4,,,,,,,,,,3,,62,90
39468,note_on,108,0,4,,,,,,,,,,3,,74,0
39468,note_on,108,0,3,,,,,,,,,,2,,74,0
39468,note_on,0,0,3,,,,,,,,,,2,,62,0
39468,note_on,0,0,4,,,,,,,,,,3,,62,0
39480,note_on,12,0,4,,,,,,,,,,3,,66,79
39480,note_on,12,0,3,,,,,,,,,,2,,66,76
39561,note_on,81,0,3,,,,,,,,,,2,,66,0
39561,note_on,81,0,4,,,,,,,,,,3,,66,0
39561,note_on,201,0,6,,,,,,,,,,5,,38,0
39561,note_on,201,0,2,,,,,,,,,,1,,74,0
39561,note_on,201,0,5,,,,,,,,,,4,,62,0
39561,note_on,201,0,1,,,,,,,,,,0,,74,0
39570,note_on,9,0,4,,,,,,,,,,3,,57,71
39570,note_on,9,0,1,,,,,,,,,,0,,69,66
39570,note_on,9,0,5,,,,,,,,,,4,,57,82
39570,note_on,9,0,3,,,,,,,,,,2,,57,69
39570,note_on,9,0,6,,,,,,,,,,5,,33,85
39570,note_on,9,0,2,,,,,,,,,,1,,69,85
39597,note_on,27,0,6,,,,,,,,,,5,,33,0
39597,note_on,27,0,4,,,,,,,,,,3,,57,0
39597,note_on,27,0,2,,,,,,,,,,1,,69,0
39597,note_on,27,0,5,,,,,,,,,,4,,57,0
39597,note_on,27,0,3,,,,,,,,,,2,,57,0
39597,note_on,27,0,1,,,,,,,,,,0,,69,0
39600,note_on,3,0,5,,,,,,,,,,4,,62,106
39600,note_on,3,0,2,,,,,,,,,,1,,74,105
39600,note_on,3,0,4,,,,,,,,,,3,,62,104
39600,note_on,3,0,3,,,,,,,,,,2,,62,102
39600,note_on,3,0,6,,,,,,,,,,5,,38,105
39600,note_on,3,0,1,,,,,,,,,,0,,74,83
39708,note_on,108,0,6,,,,,,,,,,5,,38,0
39708,note_on,108,0,5,,,,,,,,,,4,,62,0
39708,note_on,108,0,1,,,,,,,,,,0,,74,0
39708,note_on,108,0,2,,,,,,,,,,1,,74,0
39720,note_on,12,0,6,,,,,,,,,,5,,42,109
39720,note_on,12,0,5,,,,,,,,,,4,,66,111
39720,note_on,12,0,1,,,,,,,,,,0,,78,88
39801,note_on,201,0,4,,,,,,,,,,3,,62,0
39801,note_on,81,0,5,,,,,,,,,,4,,66,0
39801,note_on,201,0,3,,,,,,,,,,2,,62,0
39801,note_on,81,0,1,,,,,,,,,,0,,78,0
39801,note_on,81,0,6,,,,,,,,,,5,,42,0
39810,note_on,102,0,2,,,,,,,,,,1,,69,88
39810,note_on,9,0,5,,,,,,,,,,4,,57,79
39810,note_on,9,0,4,,,,,,,,,,3,,57,85
39810,note_on,9,0,3,,,,,,,,,,2,,57,82
39810,note_on,9,0,1,,,,,,,,,,0,,69,61
39810,note_on,9,0,6,,,,,,,,,,5,,33,78
39837,note_on,27,0,2,,,,,,,,,,1,,69,0
39837,note_on,27,0,5,,,,,,,,,,4,,57,0
39837,note_on,27,0,1,,,,,,,,,,0,,69,0
39837,note_on,27,0,4,,,,,,,,,,3,,57,0
39837,note_on,27,0,6,,,,,,,,,,5,,33,0
39837,note_on,27,0,3,,,,,,,,,,2,,57,0
39840,note_on,3,0,4,,,,,,,,,,3,,62,109
39840,note_on,3,0,3,,,,,,,,,,2,,62,109
39840,note_on,3,0,1,,,,,,,,,,0,,74,87
39840,note_on,3,0,2,,,,,,,,,,1,,74,110
39840,note_on,3,0,5,,,,,,,,,,4,,62,108
39840,note_on,3,0,6,,,,,,,,,,5,,38,110
40041,note_on,201,0,5,,,,,,,,,,4,,62,0
40041,note_on,201,0,2,,,,,,,,,,1,,74,0
40041,note_on,201,0,3,,,,,,,,,,2,,62,0
40041,note_on,201,0,1,,,,,,,,,,0,,74,0
40041,note_on,201,0,4,,,,,,,,,,3,,62,0
40041,note_on,201,0,6,,,,,,,,,,5,,38,0
40050,note_on,9,0,1,,,,,,,,,,0,,69,66
40050,note_on,9,0,3,,,,,,,,,,2,,57,85
40050,note_on,9,0,5,,,,,,,,,,4,,57,82
40050,note_on,9,0,6,,,,,,,,,,5,,33,82
40050,note_on,9,0,4,,,,,,,,,,3,,57,85
40050,note_on,9,0,2,,,,,,,,,,1,,69,84
40077,note_on,27,0,2,,,,,,,,,,1,,69,0
40077,note_on,27,0,3,,,,,,,,,,2,,57,0
40077,note_on,27,0,6,,,,,,,,,,5,,33,0
40077,note_on,27,0,4,,,,,,,,,,3,,57,0
40077,note_on,27,0,1,,,,,,,,,,0,,69,0
40077,note_on,27,0,5,,,,,,,,,,4,,57,0
40080,note_on,3,0,6,,,,,,,,,,5,,38,105
40080,note_on,3,0,1,,,,,,,,,,0,,74,84
40080,note_on,3,0,5,,,,,,,,,,4,,62,106
40080,note_on,3,0,4,,,,,,,,,,3,,62,106
40080,note_on,3,0,2,,,,,,,,,,1,,74,104
40080,note_on,3,0,3,,,,,,,,,,2,,62,105
40188,note_on,108,0,5,,,,,,,,,,4,,62,0
40188,note_on,108,0,6,,,,,,,,,,5,,38,0
40188,note_on,108,0,3,,,,,,,,,,2,,62,0
40188,note_on,108,0,2,,,,,,,,,,1,,74,0
40188,note_on,108,0,4,,,,,,,,,,3,,62,0
40188,note_on,108,0,1,,,,,,,,,,0,,74,0
40200,note_on,12,0,1,,,,,,,,,,0,,78,90
40200,note_on,12,0,6,,,,,,,,,,5,,42,112
40200,note_on,12,0,4,,,,,,,,,,3,,62,101
40200,note_on,12,0,5,,,,,,,,,,4,,66,112
40200,note_on,12,0,3,,,,,,,,,,2,,62,99
40281,note_on,81,0,3,,,,,,,,,,2,,62,0
40281,note_on,81,0,6,,,,,,,,,,5,,42,0
40281,note_on,81,0,1,,,,,,,,,,0,,78,0
40281,note_on,81,0,4,,,,,,,,,,3,,62,0
40281,note_on,81,0,5,,,,,,,,,,4,,66,0
40290,note_on,9,0,5,,,,,,,,,,4,,57,76
40290,note_on,9,0,3,,,,,,,,,,2,,57,83
40290,note_on,9,0,4,,,,,,,,,,3,,57,84
40290,note_on,102,0,2,,,,,,,,,,1,,69,85
40290,note_on,9,0,6,,,,,,,,,,5,,33,78
40290,note_on,9,0,1,,,,,,,,,,0,,69,62
40317,note_on,27,0,3,,,,,,,,,,2,,57,0
40317,note_on,27,0,2,,,,,,,,,,1,,69,0
40317,note_on,27,0,1,,,,,,,,,,0,,69,0
40317,note_on,27,0,6,,,,,,,,,,5,,33,0
40317,note_on,27,0,5,,,,,,,,,,4,,57,0
40317,note_on,27,0,4,,,,,,,,,,3,,57,0
40320,note_on,3,0,4,,,,,,,,,,3,,62,108
40320,note_on,3,0,6,,,,,,,,,,5,,38,109
40320,note_on,3,0,3,,,,,,,,,,2,,62,109
40320,note_on,3,0,5,,,,,,,,,,4,,62,107
40320,note_on,3,0,2,,,,,,,,,,1,,74,110
40320,note_on,0,0,2,,,,,,,,,,1,,74,108
40320,note_on,3,0,1,,,,,,,,,,0,,74,87
40374,note_on,54,0,4,,,,,,,,,,3,,62,0
40374,note_on,54,0,3,,,,,,,,,,2,,62,0
40374,note_on,54,0,5,,,,,,,,,,4,,62,0
40374,note_on,54,0,2,,,,,,,,,,1,,74,0
40374,note_on,0,0,2,,,,,,,,,,1,,74,0
40374,note_on,54,0,6,,,,,,,,,,5,,38,0
40380,note_on,6,0,5,,,,,,,,,,4,,62,48
40380,note_on,6,0,6,,,,,,,,,,5,,38,47
40428,note_on,108,0,1,,,,,,,,,,0,,74,0
40434,note_on,54,0,5,,,,,,,,,,4,,62,0
40434,note_on,54,0,6,,,,,,,,,,5,,38,0
40440,note_on,6,0,6,,,,,,,,,,5,,38,51
40440,note_on,66,0,2,,,,,,,,,,1,,79,45
40440,note_on,6,0,5,,,,,,,,,,4,,62,53
40440,note_on,66,0,3,,,,,,,,,,2,,83,46
40440,note_on,66,0,4,,,,,,,,,,3,,79,47
40440,note_on,0,0,2,,,,,,,,,,1,,83,45
40494,note_on,54,0,6,,,,,,,,,,5,,38,0
40494,note_on,54,0,4,,,,,,,,,,3,,79,0
40494,note_on,54,0,3,,,,,,,,,,2,,83,0
40494,note_on,54,0,2,,,,,,,,,,1,,83,0
40494,note_on,0,0,2,,,,,,,,,,1,,79,0
40494,note_on,54,0,5,,,,,,,,,,4,,62,0
40500,note_on,6,0,6,,,,,,,,,,5,,38,46
40500,note_on,6,0,5,,,,,,,,,,4,,62,46
40554,note_on,54,0,5,,,,,,,,,,4,,62,0
40554,note_on,54,0,6,,,,,,,,,,5,,38,0
40560,note_on,66,0,3,,,,,,,,,,2,,81,45
40560,note_on,66,0,2,,,,,,,,,,1,,78,44
40560,note_on,0,0,2,,,,,,,,,,1,,81,46
40560,note_on,6,0,5,,,,,,,,,,4,,62,51
40560,note_on,66,0,4,,,,,,,,,,3,,78,46
40560,note_on,6,0,6,,,,,,,,,,5,,38,51
40614,note_on,54,0,6,,,,,,,,,,5,,38,0
40614,note_on,0,0,2,,,,,,,,,,1,,78,0
40614,note_on,54,0,5,,,,,,,,,,4,,62,0
40614,note_on,54,0,2,,,,,,,,,,1,,81,0
40614,note_on,54,0,3,,,,,,,,,,2,,81,0
40614,note_on,54,0,4,,,,,,,,,,3,,78,0
40620,note_on,6,0,6,,,,,,,,,,5,,38,49
40620,note_on,6,0,5,,,,,,,,,,4,,62,50
40674,note_on,54,0,6,,,,,,,,,,5,,38,0
40674,note_on,54,0,5,,,,,,,,,,4,,62,0
40680,note_on,6,0,6,,,,,,,,,,5,,38,51
40680,note_on,0,0,2,,,,,,,,,,1,,79,45
40680,note_on,6,0,5,,,,,,,,,,4,,62,50
40680,note_on,66,0,2,,,,,,,,,,1,,76,45
40680,note_on,66,0,3,,,,,,,,,,2,,79,47
40680,note_on,66,0,4,,,,,,,,,,3,,76,47
40734,note_on,54,0,3,,,,,,,,,,2,,79,0
40734,note_on,54,0,5,,,,,,,,,,4,,62,0
40734,note_on,54,0,6,,,,,,,,,,5,,38,0
40734,note_on,54,0,4,,,,,,,,,,3,,76,0
40734,note_on,54,0,2,,,,,,,,,,1,,79,0
40734,note_on,0,0,2,,,,,,,,,,1,,76,0
40740,note_on,6,0,6,,,,,,,,,,5,,38,50
40740,note_on,6,0,5,,,,,,,,,,4,,62,47
40794,note_on,54,0,5,,,,,,,,,,4,,62,0
40794,note_on,54,0,6,,,,,,,,,,5,,38,0
40800,note_on,6,0,5,,,,,,,,,,4,,62,52
40800,note_on,66,0,2,,,,,,,,,,1,,74,47
40800,note_on,0,0,2,,,,,,,,,,1,,78,48
40800,note_on,6,0,6,,,,,,,,,,5,,38,49
40800,note_on,66,0,4,,,,,,,,,,3,,74,47
40800,note_on,66,0,3,,,,,,,,,,2,,78,46
40854,note_on,54,0,6,,,,,,,,,,5,,38,0
40854,note_on,54,0,4,,,,,,,,,,3,,74,0
40854,note_on,54,0,3,,,,,,,,,,2,,78,0
40854,note_on,54,0,2,,,,,,,,,,1,,78,0
40854,note_on,0,0,2,,,,,,,,,,1,,74,0
40854,note_on,54,0,5,,,,,,,,,,4,,62,0
40860,note_on,6,0,6,,,,,,,,,,5,,38,48
40860,note_on,6,0,5,,,,,,,,,,4,,62,48
40914,note_on,54,0,5,,,,,,,,,,4,,62,0
40914,note_on,54,0,6,,,,,,,,,,5,,38,0
40920,note_on,66,0,3,,,,,,,,,,2,,79,45
40920,note_on,66,0,4,,,,,,,,,,3,,76,45
40920,note_on,0,0,2,,,,,,,,,,1,,79,48
40920,note_on,66,0,2,,,,,,,,,,1,,76,45
40920,note_on,6,0,5,,,,,,,,,,4,,62,51
40920,note_on,6,0,6,,,,,,,,,,5,,38,50
40974,note_on,54,0,6,,,,,,,,,,5,,38,0
40974,note_on,0,0,2,,,,,,,,,,1,,76,0
40974,note_on,54,0,4,,,,,,,,,,3,,76,0
40974,note_on,54,0,5,,,,,,,,,,4,,62,0
40974,note_on,54,0,3,,,,,,,,,,2,,79,0
40974,note_on,54,0,2,,,,,,,,,,1,,79,0
40980,note_on,6,0,6,,,,,,,,,,5,,38,47
40980,note_on,6,0,5,,,,,,,,,,4,,62,47
41034,note_on,54,0,5,,,,,,,,,,4,,62,0
41034,note_on,54,0,6,,,,,,,,,,5,,38,0
41040,note_on,6,0,5,,,,,,,,,,4,,62,49
41040,note_on,66,0,2,,,,,,,,,,1,,74,47
41040,note_on,66,0,4,,,,,,,,,,3,,74,44
41040,note_on,0,0,2,,,,,,,,,,1,,78,45
41040,note_on,6,0,6,,,,,,,,,,5,,38,51
41040,note_on,66,0,3,,,,,,,,,,2,,78,45
41094,note_on,54,0,6,,,,,,,,,,5,,38,0
41094,note_on,54,0,5,,,,,,,,,,4,,62,0
41094,note_on,54,0,2,,,,,,,,,,1,,78,0
41094,note_on,0,0,2,,,,,,,,,,1,,74,0
41094,note_on,54,0,4,,,,,,,,,,3,,74,0
41094,note_on,54,0,3,,,,,,,,,,2,,78,0
41100,note_on,6,0,5,,,,,,,,,,4,,62,46
41100,note_on,6,0,6,,,,,,,,,,5,,38,50
41154,note_on,54,0,6,,,,,,,,,,5,,38,0
41154,note_on,54,0,5,,,,,,,,,,4,,62,0
41160,note_on,66,0,3,,,,,,,,,,2,,76,48
41160,note_on,6,0,6,,,,,,,,,,5,,38,53
41160,note_on,66,0,2,,,,,,,,,,1,,69,46
41160,note_on,0,0,2,,,,,,,,,,1,,76,44
41160,note_on,6,0,5,,,,,,,,,,4,,62,53
41160,note_on,66,0,4,,,,,,,,,,3,,73,46
41214,note_on,54,0,3,,,,,,,,,,2,,76,0
41214,note_on,54,0,6,,,,,,,,,,5,,38,0
41214,note_on,54,0,5,,,,,,,,,,4,,62,0
41214,note_on,0,0,2,,,,,,,,,,1,,69,0
41214,note_on,54,0,4,,,,,,,,,,3,,73,0
41214,note_on,54,0,2,,,,,,,,,,1,,76,0
41220,note_on,6,0,5,,,,,,,,,,4,,62,47
41220,note_on,6,0,6,,,,,,,,,,5,,38,49
41274,note_on,54,0,6,,,,,,,,,,5,,38,0
41274,note_on,54,0,5,,,,,,,,,,4,,62,0
41280,note_on,66,0,4,,,,,,,,,,3,,74,88
41280,note_on,6,0,6,,,,,,,,,,5,,38,99
41280,note_on,66,0,2,,,,,,,,,,1,,66,89
41280,note_on,0,0,2,,,,,,,,,,1,,74,88
41280,note_on,66,0,3,,,,,,,,,,2,,74,89
41280,note_on,6,0,5,,,,,,,,,,4,,62,100
41280,note_on,852,0,1,,,,,,,,,,0,,69,90
41280,note_on,0,0,1,,,,,,,,,,0,,78,88
41307,note_on,27,0,4,,,,,,,,,,3,,74,0
41307,note_on,27,0,3,,,,,,,,,,2,,74,0
41310,note_on,3,0,4,,,,,,,,,,3,,78,106
41310,note_on,3,0,3,,,,,,,,,,2,,81,111
41337,note_on,27,0,3,,,,,,,,,,2,,81,0
41337,note_on,27,0,4,,,,,,,,,,3,,78,0
41340,note_on,3,0,3,,,,,,,,,,2,,81,97
41340,note_on,3,0,4,,,,,,,,,,3,,78,96
41367,note_on,27,0,4,,,,,,,,,,3,,78,0
41367,note_on,27,0,3,,,,,,,,,,2,,81,0
41370,note_on,3,0,3,,,,,,,,,,2,,81,94
41370,note_on,3,0,4,,,,,,,,,,3,,78,94
41388,note_on,108,0,5,,,,,,,,,,4,,62,0
41388,note_on,0,0,2,,,,,,,,,,1,,66,0
41388,note_on,108,0,2,,,,,,,,,,1,,74,0
41388,note_on,108,0,6,,,,,,,,,,5,,38,0
41397,note_on,27,0,3,,,,,,,,,,2,,81,0
41397,note_on,27,0,4,,,,,,,,,,3,,78,0
41400,note_on,12,0,6,,,,,,,,,,5,,42,110
41400,note_on,3,0,3,,,,,,,,,,2,,81,96
41400,note_on,3,0,4,,,,,,,,,,3,,78,96
41400,note_on,12,0,5,,,,,,,,,,4,,66,110
41424,note_on,24,0,3,,,,,,,,,,2,,81,0
41424,note_on,24,0,4,,,,,,,,,,3,,78,0
41430,note_on,6,0,3,,,,,,,,,,2,,81,96
41430,note_on,6,0,4,,,,,,,,,,3,,78,96
41454,note_on,24,0,3,,,,,,,,,,2,,81,0
41454,note_on,24,0,4,,,,,,,,,,3,,78,0
41460,note_on,6,0,4,,,,,,,,,,3,,78,96
41460,note_on,6,0,3,,,,,,,,,,2,,81,96
41481,note_on,81,0,6,,,,,,,,,,5,,42,0
41481,note_on,81,0,5,,,,,,,,,,4,,66,0
41484,note_on,24,0,3,,,,,,,,,,2,,81,0
41484,note_on,24,0,4,,,,,,,,,,3,,78,0
41490,note_on,9,0,5,,,,,,,,,,4,,69,107
41490,note_on,6,0,3,,,,,,,,,,2,,81,96
41490,note_on,6,0,4,,,,,,,,,,3,,78,96
41490,note_on,9,0,6,,,,,,,,,,5,,45,104
41514,note_on,24,0,4,,,,,,,,,,3,,78,0
41514,note_on,24,0,3,,,,,,,,,,2,,81,0
41517,note_on,27,0,5,,,,,,,,,,4,,69,0
41517,note_on,27,0,6,,,,,,,,,,5,,45,0
41520,note_on,0,0,2,,,,,,,,,,1,,81,84
41520,note_on,132,0,2,,,,,,,,,,1,,78,86
41520,note_on,6,0,4,,,,,,,,,,3,,78,96
41520,note_on,6,0,3,,,,,,,,,,2,,81,96
41520,note_on,3,0,5,,,,,,,,,,4,,74,109
41520,note_on,3,0,6,,,,,,,,,,5,,50,110
41544,note_on,24,0,3,,,,,,,,,,2,,81,0
41544,note_on,24,0,4,,,,,,,,,,3,,78,0
41550,note_on,6,0,3,,,,,,,,,,2,,81,96
41550,note_on,6,0,4,,,,,,,,,,3,,78,96
41574,note_on,24,0,4,,,,,,,,,,3,,78,0
41574,note_on,24,0,3,,,,,,,,,,2,,81,0
41580,note_on,6,0,4,,,,,,,,,,3,,78,96
41580,note_on,6,0,3,,,,,,,,,,2,,81,96
41604,note_on,24,0,3,,,,,,,,,,2,,81,0
41604,note_on,24,0,4,,,,,,,,,,3,,78,0
41610,note_on,6,0,4,,,,,,,,,,3,,78,96
41610,note_on,6,0,3,,,,,,,,,,2,,81,96
41628,note_on,108,0,6,,,,,,,,,,5,,50,0
41628,note_on,108,0,5,,,,,,,,,,4,,74,0
41634,note_on,24,0,3,,,,,,,,,,2,,81,0
41634,note_on,24,0,4,,,,,,,,,,3,,78,0
41640,note_on,6,0,4,,,,,,,,,,3,,78,96
41640,note_on,12,0,6,,,,,,,,,,5,,45,87
41640,note_on,6,0,3,,,,,,,,,,2,,81,96
41640,note_on,12,0,5,,,,,,,,,,4,,69,89
41664,note_on,24,0,4,,,,,,,,,,3,,78,0
41664,note_on,24,0,3,,,,,,,,,,2,,81,0
41670,note_on,6,0,4,,,,,,,,,,3,,78,96
41670,note_on,6,0,3,,,,,,,,,,2,,81,96
41694,note_on,24,0,4,,,,,,,,,,3,,78,0
41694,note_on,24,0,3,,,,,,,,,,2,,81,0
41700,note_on,6,0,3,,,,,,,,,,2,,81,96
41700,note_on,6,0,4,,,,,,,,,,3,,78,96
41721,note_on,81,0,6,,,,,,,,,,5,,45,0
41721,note_on,81,0,5,,,,,,,,,,4,,69,0
41724,note_on,24,0,3,,,,,,,,,,2,,81,0
41724,note_on,24,0,4,,,,,,,,,,3,,78,0
41730,note_on,9,0,5,,,,,,,,,,4,,66,85
41730,note_on,6,0,3,,,,,,,,,,2,,81,96
41730,note_on,9,0,6,,,,,,,,,,5,,42,87
41730,note_on,6,0,4,,,,,,,,,,3,,78,96
41754,note_on,24,0,3,,,,,,,,,,2,,81,0
41754,note_on,24,0,4,,,,,,,,,,3,,78,0
41757,note_on,27,0,5,,,,,,,,,,4,,66,0
41757,note_on,27,0,6,,,,,,,,,,5,,42,0
41760,note_on,3,0,5,,,,,,,,,,4,,62,87
41760,note_on,6,0,4,,,,,,,,,,3,,78,96
41760,note_on,3,0,6,,,,,,,,,,5,,38,86
41760,note_on,6,0,3,,,,,,,,,,2,,81,96
41784,note_on,24,0,4,,,,,,,,,,3,,78,0
41784,note_on,24,0,3,,,,,,,,,,2,,81,0
41790,note_on,6,0,4,,,,,,,,,,3,,78,96
41790,note_on,6,0,3,,,,,,,,,,2,,81,96
41814,note_on,54,0,6,,,,,,,,,,5,,38,0
41814,note_on,24,0,3,,,,,,,,,,2,,81,0
41814,note_on,54,0,5,,,,,,,,,,4,,62,0
41814,note_on,24,0,4,,,,,,,,,,3,,78,0
41820,note_on,6,0,4,,,,,,,,,,3,,78,96
41820,note_on,6,0,3,,,,,,,,,,2,,81,96
41820,note_on,6,0,5,,,,,,,,,,4,,64,100
41820,note_on,6,0,6,,,,,,,,,,5,,40,99
41844,note_on,24,0,4,,,,,,,,,,3,,78,0
41844,note_on,24,0,3,,,,,,,,,,2,,81,0
41847,note_on,27,0,5,,,,,,,,,,4,,64,0
41847,note_on,27,0,6,,,,,,,,,,5,,40,0
41850,note_on,6,0,3,,,,,,,,,,2,,81,96
41850,note_on,3,0,5,,,,,,,,,,4,,66,103
41850,note_on,3,0,6,,,,,,,,,,5,,42,101
41850,note_on,6,0,4,,,,,,,,,,3,,78,96
41874,note_on,24,0,3,,,,,,,,,,2,,81,0
41874,note_on,24,0,4,,,,,,,,,,3,,78,0
41877,note_on,27,0,5,,,,,,,,,,4,,66,0
41877,note_on,27,0,6,,,,,,,,,,5,,42,0
41880,note_on,6,0,3,,,,,,,,,,2,,81,96
41880,note_on,3,0,5,,,,,,,,,,4,,67,102
41880,note_on,6,0,4,,,,,,,,,,3,,78,96
41880,note_on,3,0,6,,,,,,,,,,5,,43,105
41904,note_on,24,0,4,,,,,,,,,,3,,78,0
41904,note_on,24,0,3,,,,,,,,,,2,,81,0
41907,note_on,27,0,6,,,,,,,,,,5,,43,0
41907,note_on,27,0,5,,,,,,,,,,4,,67,0
41910,note_on,6,0,4,,,,,,,,,,3,,78,96
41910,note_on,6,0,3,,,,,,,,,,2,,81,96
41910,note_on,3,0,6,,,,,,,,,,5,,45,100
41910,note_on,3,0,5,,,,,,,,,,4,,69,101
41934,note_on,24,0,4,,,,,,,,,,3,,78,0
41934,note_on,24,0,3,,,,,,,,,,2,,81,0
41937,note_on,27,0,5,,,,,,,,,,4,,69,0
41937,note_on,27,0,6,,,,,,,,,,5,,45,0
41940,note_on,3,0,5,,,,,,,,,,4,,71,102
41940,note_on,6,0,3,,,,,,,,,,2,,81,96
41940,note_on,6,0,4,,,,,,,,,,3,,78,96
41940,note_on,3,0,6,,,,,,,,,,5,,47,100
41964,note_on,24,0,3,,,,,,,,,,2,,81,0
41964,note_on,24,0,4,,,,,,,,,,3,,78,0
41967,note_on,27,0,6,,,,,,,,,,5,,47,0
41967,note_on,27,0,5,,,,,,,,,,4,,71,0
41970,note_on,3,0,5,,,,,,,,,,4,,73,100
41970,note_on,6,0,4,,,,,,,,,,3,,78,96
41970,note_on,3,0,6,,,,,,,,,,5,,49,103
41970,note_on,6,0,3,,,,,,,,,,2,,81,96
41994,note_on,24,0,4,,,,,,,,,,3,,78,0
41994,note_on,24,0,3,,,,,,,,,,2,,81,0
41997,note_on,27,0,5,,,,,,,,,,4,,73,0
41997,note_on,27,0,6,,,,,,,,,,5,,49,0
42000,note_on,3,0,6,,,,,,,,,,5,,50,103
42000,note_on,6,0,3,,,,,,,,,,2,,81,96
42000,note_on,6,0,4,,,,,,,,,,3,,78,96
42000,note_on,3,0,5,,,,,,,,,,4,,74,105
42024,note_on,24,0,4,,,,,,,,,,3,,78,0
42024,note_on,24,0,3,,,,,,,,,,2,,81,0
42030,note_on,6,0,4,,,,,,,,,,3,,78,96
42030,note_on,6,0,3,,,,,,,,,,2,,81,96
42054,note_on,54,0,6,,,,,,,,,,5,,50,0
42054,note_on,24,0,3,,,,,,,,,,2,,81,0
42054,note_on,54,0,5,,,,,,,,,,4,,74,0
42054,note_on,24,0,4,,,,,,,,,,3,,78,0
42060,note_on,6,0,4,,,,,,,,,,3,,78,96
42060,note_on,6,0,6,,,,,,,,,,5,,45,83
42060,note_on,6,0,5,,,,,,,,,,4,,69,85
42060,note_on,6,0,3,,,,,,,,,,2,,81,96
42084,note_on,24,0,3,,,,,,,,,,2,,81,0
42084,note_on,24,0,4,,,,,,,,,,3,,78,0
42090,note_on,6,0,4,,,,,,,,,,3,,78,96
42090,note_on,6,0,3,,,,,,,,,,2,,81,96
42114,note_on,54,0,5,,,,,,,,,,4,,69,0
42114,note_on,54,0,6,,,,,,,,,,5,,45,0
42114,note_on,24,0,3,,,,,,,,,,2,,81,0
42114,note_on,24,0,4,,,,,,,,,,3,,78,0
42120,note_on,6,0,5,,,,,,,,,,4,,66,90
42120,note_on,6,0,4,,,,,,,,,,3,,78,96
42120,note_on,6,0,6,,,,,,,,,,5,,42,87
42120,note_on,6,0,3,,,,,,,,,,2,,81,96
42144,note_on,24,0,3,,,,,,,,,,2,,81,0
42144,note_on,24,0,4,,,,,,,,,,3,,78,0
42150,note_on,6,0,3,,,,,,,,,,2,,81,96
42150,note_on,6,0,4,,,,,,,,,,3,,78,96
42174,note_on,24,0,3,,,,,,,,,,2,,81,0
42174,note_on,54,0,6,,,,,,,,,,5,,42,0
42174,note_on,54,0,5,,,,,,,,,,4,,66,0
42174,note_on,24,0,4,,,,,,,,,,3,,78,0
42180,note_on,6,0,3,,,,,,,,,,2,,81,96
42180,note_on,6,0,5,,,,,,,,,,4,,62,84
42180,note_on,6,0,6,,,,,,,,,,5,,38,84
42180,note_on,6,0,4,,,,,,,,,,3,,78,96
42204,note_on,24,0,3,,,,,,,,,,2,,81,0
42204,note_on,24,0,4,,,,,,,,,,3,,78,0
42210,note_on,6,0,4,,,,,,,,,,3,,78,96
42210,note_on,6,0,3,,,,,,,,,,2,,81,96
42216,note_on,0,0,2,,,,,,,,,,1,,78,0
42216,note_on,696,0,2,,,,,,,,,,1,,81,0
42216,note_on,936,0,1,,,,,,,,,,0,,78,0
42216,note_on,0,0,1,,,,,,,,,,0,,69,0
42234,note_on,54,0,6,,,,,,,,,,5,,38,0
42234,note_on,54,0,5,,,,,,,,,,4,,62,0
42234,note_on,24,0,4,,,,,,,,,,3,,78,0
42234,note_on,24,0,3,,,,,,,,,,2,,81,0
42240,note_on,6,0,6,,,,,,,,,,5,,31,78
42240,note_on,0,0,2,,,,,,,,,,1,,83,106
42240,note_on,6,0,5,,,,,,,,,,4,,55,77
42240,note_on,0,0,1,,,,,,,,,,0,,79,102
42240,note_on,24,0,1,,,,,,,,,,0,,67,102
42240,note_on,24,0,2,,,,,,,,,,1,,79,103
42240,note_on,6,0,4,,,,,,,,,,3,,79,100
42240,note_on,6,0,3,,,,,,,,,,2,,83,102
42264,note_on,24,0,3,,,,,,,,,,2,,83,0
42264,note_on,24,0,4,,,,,,,,,,3,,79,0
42270,note_on,6,0,3,,,,,,,,,,2,,83,102
42270,note_on,6,0,4,,,,,,,,,,3,,79,100
42294,note_on,24,0,3,,,,,,,,,,2,,83,0
42294,note_on,24,0,4,,,,,,,,,,3,,79,0
42300,note_on,6,0,4,,,,,,,,,,3,,79,100
42300,note_on,6,0,3,,,,,,,,,,2,,83,102
42324,note_on,24,0,3,,,,,,,,,,2,,83,0
42324,note_on,24,0,4,,,,,,,,,,3,,79,0
42330,note_on,6,0,3,,,,,,,,,,2,,83,102
42330,note_on,6,0,4,,,,,,,,,,3,,79,100
42348,note_on,108,0,5,,,,,,,,,,4,,55,0
42348,note_on,108,0,6,,,,,,,,,,5,,31,0
42354,note_on,24,0,3,,,,,,,,,,2,,83,0
42354,note_on,24,0,4,,,,,,,,,,3,,79,0
42360,note_on,6,0,3,,,,,,,,,,2,,83,102
42360,note_on,12,0,6,,,,,,,,,,5,,35,106
42360,note_on,12,0,5,,,,,,,,,,4,,59,106
42360,note_on,6,0,4,,,,,,,,,,3,,79,100
42384,note_on,24,0,4,,,,,,,,,,3,,79,0
42384,note_on,24,0,3,,,,,,,,,,2,,83,0
42390,note_on,6,0,3,,,,,,,,,,2,,83,102
42390,note_on,6,0,4,,,,,,,,,,3,,79,100
42414,note_on,24,0,4,,,,,,,,,,3,,79,0
42414,note_on,24,0,3,,,,,,,,,,2,,83,0
42420,note_on,6,0,4,,,,,,,,,,3,,79,100
42420,note_on,6,0,3,,,,,,,,,,2,,83,102
42441,note_on,81,0,5,,,,,,,,,,4,,59,0
42441,note_on,81,0,6,,,,,,,,,,5,,35,0
42444,note_on,24,0,3,,,,,,,,,,2,,83,0
42444,note_on,24,0,4,,,,,,,,,,3,,79,0
42450,note_on,9,0,6,,,,,,,,,,5,,38,105
42450,note_on,9,0,5,,,,,,,,,,4,,62,103
42450,note_on,6,0,4,,,,,,,,,,3,,79,100
42450,note_on,6,0,3,,,,,,,,,,2,,83,102
42474,note_on,24,0,3,,,,,,,,,,2,,83,0
42474,note_on,24,0,4,,,,,,,,,,3,,79,0
42477,note_on,27,0,6,,,,,,,,,,5,,38,0
42477,note_on,27,0,5,,,,,,,,,,4,,62,0
42480,note_on,6,0,4,,,,,,,,,,3,,79,96
42480,note_on,3,0,6,,,,,,,,,,5,,43,111
42480,note_on,3,0,5,,,,,,,,,,4,,67,112
42480,note_on,6,0,3,,,,,,,,,,2,,83,96
42504,note_on,24,0,3,,,,,,,,,,2,,83,0
42504,note_on,24,0,4,,,,,,,,,,3,,79,0
42510,note_on,6,0,3,,,,,,,,,,2,,83,96
42510,note_on,6,0,4,,,,,,,,,,3,,79,96
42534,note_on,24,0,3,,,,,,,,,,2,,83,0
42534,note_on,24,0,4,,,,,,,,,,3,,79,0
42540,note_on,6,0,3,,,,,,,,,,2,,83,96
42540,note_on,6,0,4,,,,,,,,,,3,,79,96
42564,note_on,24,0,3,,,,,,,,,,2,,83,0
42564,note_on,24,0,4,,,,,,,,,,3,,79,0
42570,note_on,6,0,3,,,,,,,,,,2,,83,96
42570,note_on,6,0,4,,,,,,,,,,3,,79,96
42588,note_on,108,0,6,,,,,,,,,,5,,43,0
42588,note_on,108,0,5,,,,,,,,,,4,,67,0
42594,note_on,24,0,4,,,,,,,,,,3,,79,0
42594,note_on,24,0,3,,,,,,,,,,2,,83,0
42600,note_on,12,0,6,,,,,,,,,,5,,38,89
42600,note_on,6,0,4,,,,,,,,,,3,,79,96
42600,note_on,12,0,5,,,,,,,,,,4,,62,87
42600,note_on,6,0,3,,,,,,,,,,2,,83,96
42624,note_on,24,0,4,,,,,,,,,,3,,79,0
42624,note_on,24,0,3,,,,,,,,,,2,,83,0
42630,note_on,6,0,4,,,,,,,,,,3,,79,96
42630,note_on,6,0,3,,,,,,,,,,2,,83,96
42654,note_on,24,0,4,,,,,,,,,,3,,79,0
42654,note_on,24,0,3,,,,,,,,,,2,,83,0
42660,note_on,6,0,4,,,,,,,,,,3,,79,96
42660,note_on,6,0,3,,,,,,,,,,2,,83,96
42681,note_on,81,0,6,,,,,,,,,,5,,38,0
42681,note_on,81,0,5,,,,,,,,,,4,,62,0
42684,note_on,24,0,4,,,,,,,,,,3,,79,0
42684,note_on,24,0,3,,,,,,,,,,2,,83,0
42690,note_on,6,0,4,,,,,,,,,,3,,79,96
42690,note_on,6,0,3,,,,,,,,,,2,,83,96
42690,note_on,9,0,6,,,,,,,,,,5,,35,85
42690,note_on,9,0,5,,,,,,,,,,4,,59,86
42714,note_on,24,0,3,,,,,,,,,,2,,83,0
42714,note_on,24,0,4,,,,,,,,,,3,,79,0
42717,note_on,27,0,6,,,,,,,,,,5,,35,0
42717,note_on,27,0,5,,,,,,,,,,4,,59,0
42720,note_on,6,0,3,,,,,,,,,,2,,83,96
42720,note_on,3,0,5,,,,,,,,,,4,,55,87
42720,note_on,6,0,4,,,,,,,,,,3,,79,96
42720,note_on,3,0,6,,,,,,,,,,5,,31,87
42744,note_on,24,0,3,,,,,,,,,,2,,83,0
42744,note_on,24,0,4,,,,,,,,,,3,,79,0
42750,note_on,6,0,4,,,,,,,,,,3,,79,96
42750,note_on,6,0,3,,,,,,,,,,2,,83,96
42774,note_on,24,0,4,,,,,,,,,,3,,79,0
42774,note_on,54,0,5,,,,,,,,,,4,,55,0
42774,note_on,54,0,6,,,,,,,,,,5,,31,0
42774,note_on,24,0,3,,,,,,,,,,2,,83,0
42780,note_on,6,0,5,,,,,,,,,,4,,57,100
42780,note_on,6,0,3,,,,,,,,,,2,,83,96
42780,note_on,6,0,6,,,,,,,,,,5,,33,99
42780,note_on,6,0,4,,,,,,,,,,3,,79,96
42804,note_on,24,0,3,,,,,,,,,,2,,83,0
42804,note_on,24,0,4,,,,,,,,,,3,,79,0
42807,note_on,27,0,6,,,,,,,,,,5,,33,0
42807,note_on,27,0,5,,,,,,,,,,4,,57,0
42810,note_on,3,0,6,,,,,,,,,,5,,35,102
42810,note_on,3,0,5,,,,,,,,,,4,,59,102
42810,note_on,6,0,4,,,,,,,,,,3,,79,96
42810,note_on,6,0,3,,,,,,,,,,2,,83,96
42834,note_on,24,0,3,,,,,,,,,,2,,83,0
42834,note_on,24,0,4,,,,,,,,,,3,,79,0
42837,note_on,27,0,5,,,,,,,,,,4,,59,0
42837,note_on,27,0,6,,,,,,,,,,5,,35,0
42840,note_on,6,0,3,,,,,,,,,,2,,83,96
42840,note_on,6,0,4,,,,,,,,,,3,,79,96
42840,note_on,3,0,6,,,,,,,,,,5,,36,104
42840,note_on,3,0,5,,,,,,,,,,4,,60,105
42864,note_on,24,0,3,,,,,,,,,,2,,83,0
42864,note_on,24,0,4,,,,,,,,,,3,,79,0
42867,note_on,27,0,5,,,,,,,,,,4,,60,0
42867,note_on,27,0,6,,,,,,,,,,5,,36,0
42870,note_on,6,0,4,,,,,,,,,,3,,79,96
42870,note_on,3,0,5,,,,,,,,,,4,,62,102
42870,note_on,6,0,3,,,,,,,,,,2,,83,96
42870,note_on,3,0,6,,,,,,,,,,5,,38,100
42894,note_on,24,0,4,,,,,,,,,,3,,79,0
42894,note_on,24,0,3,,,,,,,,,,2,,83,0
42897,note_on,27,0,5,,,,,,,,,,4,,62,0
42897,note_on,27,0,6,,,,,,,,,,5,,38,0
42900,note_on,6,0,4,,,,,,,,,,3,,79,96
42900,note_on,6,0,3,,,,,,,,,,2,,83,96
42900,note_on,3,0,6,,,,,,,,,,5,,40,103
42900,note_on,3,0,5,,,,,,,,,,4,,64,104
42924,note_on,24,0,3,,,,,,,,,,2,,83,0
42924,note_on,24,0,4,,,,,,,,,,3,,79,0
42927,note_on,27,0,6,,,,,,,,,,5,,40,0
42927,note_on,27,0,5,,,,,,,,,,4,,64,0
42930,note_on,3,0,6,,,,,,,,,,5,,42,102
42930,note_on,6,0,3,,,,,,,,,,2,,83,96
42930,note_on,3,0,5,,,,,,,,,,4,,66,103
42930,note_on,6,0,4,,,,,,,,,,3,,79,96
42954,note_on,24,0,4,,,,,,,,,,3,,79,0
42954,note_on,24,0,3,,,,,,,,,,2,,83,0
42957,note_on,27,0,5,,,,,,,,,,4,,66,0
42957,note_on,27,0,6,,,,,,,,,,5,,42,0
42960,note_on,3,0,5,,,,,,,,,,4,,67,105
42960,note_on,3,0,6,,,,,,,,,,5,,43,103
42960,note_on,6,0,3,,,,,,,,,,2,,83,96
42960,note_on,6,0,4,,,,,,,,,,3,,79,96
42984,note_on,24,0,3,,,,,,,,,,2,,83,0
42984,note_on,24,0,4,,,,,,,,,,3,,79,0
42990,note_on,6,0,3,,,,,,,,,,2,,83,96
42990,note_on,6,0,4,,,,,,,,,,3,,79,96
43014,note_on,54,0,5,,,,,,,,,,4,,67,0
43014,note_on,54,0,6,,,,,,,,,,5,,43,0
43014,note_on,24,0,4,,,,,,,,,,3,,79,0
43014,note_on,24,0,3,,,,,,,,,,2,,83,0
43020,note_on,6,0,4,,,,,,,,,,3,,79,96
43020,note_on,6,0,5,,,,,,,,,,4,,74,116
43020,note_on,6,0,6,,,,,,,,,,5,,50,115
43020,note_on,6,0,3,,,,,,,,,,2,,83,96
43044,note_on,24,0,3,,,,,,,,,,2,,83,0
43044,note_on,24,0,4,,,,,,,,,,3,,79,0
43050,note_on,6,0,3,,,,,,,,,,2,,83,96
43050,note_on,6,0,4,,,,,,,,,,3,,79,96
43074,note_on,24,0,3,,,,,,,,,,2,,83,0
43074,note_on,54,0,5,,,,,,,,,,4,,74,0
43074,note_on,54,0,6,,,,,,,,,,5,,50,0
43074,note_on,24,0,4,,,,,,,,,,3,,79,0
43080,note_on,6,0,4,,,,,,,,,,3,,79,96
43080,note_on,6,0,3,,,,,,,,,,2,,83,96
43080,note_on,6,0,6,,,,,,,,,,5,,47,93
43080,note_on,6,0,5,,,,,,,,,,4,,71,93
43104,note_on,24,0,4,,,,,,,,,,3,,79,0
43104,note_on,24,0,3,,,,,,,,,,2,,83,0
43110,note_on,6,0,4,,,,,,,,,,3,,79,96
43110,note_on,6,0,3,,,,,,,,,,2,,83,96
43134,note_on,54,0,6,,,,,,,,,,5,,47,0
43134,note_on,24,0,4,,,,,,,,,,3,,79,0
43134,note_on,24,0,3,,,,,,,,,,2,,83,0
43134,note_on,54,0,5,,,,,,,,,,4,,71,0
43140,note_on,6,0,4,,,,,,,,,,3,,79,96
43140,note_on,6,0,3,,,,,,,,,,2,,83,96
43140,note_on,6,0,6,,,,,,,,,,5,,43,82
43140,note_on,6,0,5,,,,,,,,,,4,,67,85
43164,note_on,24,0,3,,,,,,,,,,2,,83,0
43164,note_on,24,0,4,,,,,,,,,,3,,79,0
43170,note_on,6,0,3,,,,,,,,,,2,,83,96
43170,note_on,6,0,4,,,,,,,,,,3,,79,96
43176,note_on,936,0,1,,,,,,,,,,0,,79,0
43176,note_on,0,0,1,,,,,,,,,,0,,67,0
43176,note_on,0,0,2,,,,,,,,,,1,,79,0
43176,note_on,936,0,2,,,,,,,,,,1,,83,0
43194,note_on,54,0,6,,,,,,,,,,5,,43,0
43194,note_on,24,0,3,,,,,,,,,,2,,83,0
43194,note_on,54,0,5,,,,,,,,,,4,,67,0
43194,note_on,24,0,4,,,,,,,,,,3,,79,0
43200,note_on,6,0,4,,,,,,,,,,3,,78,91
43200,note_on,24,0,2,,,,,,,,,,1,,78,94
43200,note_on,0,0,2,,,,,,,,,,1,,81,92
43200,note_on,6,0,3,,,,,,,,,,2,,81,90
43200,note_on,6,0,5,,,,,,,,,,4,,62,82
43200,note_on,0,0,1,,,,,,,,,,0,,78,93
43200,note_on,24,0,1,,,,,,,,,,0,,69,93
43200,note_on,6,0,6,,,,,,,,,,5,,38,82
43224,note_on,24,0,3,,,,,,,,,,2,,81,0
43224,note_on,24,0,4,,,,,,,,,,3,,78,0
43230,note_on,6,0,3,,,,,,,,,,2,,81,90
43230,note_on,6,0,4,,,,,,,,,,3,,78,91
43254,note_on,24,0,4,,,,,,,,,,3,,78,0
43254,note_on,24,0,3,,,,,,,,,,2,,81,0
43260,note_on,6,0,4,,,,,,,,,,3,,78,91
43260,note_on,6,0,3,,,,,,,,,,2,,81,90
43284,note_on,24,0,4,,,,,,,,,,3,,78,0
43284,note_on,24,0,3,,,,,,,,,,2,,81,0
43290,note_on,6,0,4,,,,,,,,,,3,,78,91
43290,note_on,6,0,3,,,,,,,,,,2,,81,90
43308,note_on,108,0,6,,,,,,,,,,5,,38,0
43308,note_on,108,0,5,,,,,,,,,,4,,62,0
43314,note_on,24,0,3,,,,,,,,,,2,,81,0
43314,note_on,24,0,4,,,,,,,,,,3,,78,0
43320,note_on,12,0,6,,,,,,,,,,5,,42,108
43320,note_on,6,0,3,,,,,,,,,,2,,81,90
43320,note_on,6,0,4,,,,,,,,,,3,,78,91
43320,note_on,12,0,5,,,,,,,,,,4,,66,108
43344,note_on,24,0,3,,,,,,,,,,2,,81,0
43344,note_on,24,0,4,,,,,,,,,,3,,78,0
43350,note_on,6,0,4,,,,,,,,,,3,,78,91
43350,note_on,6,0,3,,,,,,,,,,2,,81,90
43374,note_on,24,0,3,,,,,,,,,,2,,81,0
43374,note_on,24,0,4,,,,,,,,,,3,,78,0
43380,note_on,6,0,4,,,,,,,,,,3,,78,91
43380,note_on,6,0,3,,,,,,,,,,2,,81,90
43401,note_on,81,0,6,,,,,,,,,,5,,42,0
43401,note_on,81,0,5,,,,,,,,,,4,,66,0
43404,note_on,24,0,3,,,,,,,,,,2,,81,0
43404,note_on,24,0,4,,,,,,,,,,3,,78,0
43410,note_on,6,0,3,,,,,,,,,,2,,81,90
43410,note_on,9,0,6,,,,,,,,,,5,,45,103
43410,note_on,6,0,4,,,,,,,,,,3,,78,91
43410,note_on,9,0,5,,,,,,,,,,4,,69,107
43434,note_on,24,0,3,,,,,,,,,,2,,81,0
43434,note_on,24,0,4,,,,,,,,,,3,,78,0
43437,note_on,27,0,6,,,,,,,,,,5,,45,0
43437,note_on,27,0,5,,,,,,,,,,4,,69,0
43440,note_on,3,0,6,,,,,,,,,,5,,50,109
43440,note_on,3,0,5,,,,,,,,,,4,,74,112
43440,note_on,6,0,3,,,,,,,,,,2,,81,95
43440,note_on,6,0,4,,,,,,,,,,3,,78,95
43464,note_on,24,0,4,,,,,,,,,,3,,78,0
43464,note_on,24,0,3,,,,,,,,,,2,,81,0
43470,note_on,6,0,4,,,,,,,,,,3,,78,95
43470,note_on,6,0,3,,,,,,,,,,2,,81,95
43494,note_on,24,0,4,,,,,,,,,,3,,78,0
43494,note_on,24,0,3,,,,,,,,,,2,,81,0
43500,note_on,6,0,4,,,,,,,,,,3,,78,95
43500,note_on,6,0,3,,,,,,,,,,2,,81,95
43524,note_on,24,0,4,,,,,,,,,,3,,78,0
43524,note_on,24,0,3,,,,,,,,,,2,,81,0
43530,note_on,6,0,4,,,,,,,,,,3,,78,95
43530,note_on,6,0,3,,,,,,,,,,2,,81,95
43548,note_on,108,0,5,,,,,,,,,,4,,74,0
43548,note_on,108,0,6,,,,,,,,,,5,,50,0
43554,note_on,24,0,4,,,,,,,,,,3,,78,0
43554,note_on,24,0,3,,,,,,,,,,2,,81,0
43560,note_on,6,0,4,,,,,,,,,,3,,78,95
43560,note_on,12,0,6,,,,,,,,,,5,,45,88
43560,note_on,6,0,3,,,,,,,,,,2,,81,95
43560,note_on,12,0,5,,,,,,,,,,4,,69,86
43584,note_on,24,0,3,,,,,,,,,,2,,81,0
43584,note_on,24,0,4,,,,,,,,,,3,,78,0
43590,note_on,6,0,4,,,,,,,,,,3,,78,95
43590,note_on,6,0,3,,,,,,,,,,2,,81,95
43614,note_on,24,0,3,,,,,,,,,,2,,81,0
43614,note_on,24,0,4,,,,,,,,,,3,,78,0
43620,note_on,6,0,3,,,,,,,,,,2,,81,95
43620,note_on,6,0,4,,,,,,,,,,3,,78,95
43641,note_on,81,0,5,,,,,,,,,,4,,69,0
43641,note_on,81,0,6,,,,,,,,,,5,,45,0
43644,note_on,24,0,4,,,,,,,,,,3,,78,0
43644,note_on,24,0,3,,,,,,,,,,2,,81,0
43650,note_on,6,0,4,,,,,,,,,,3,,78,95
43650,note_on,9,0,6,,,,,,,,,,5,,42,86
43650,note_on,6,0,3,,,,,,,,,,2,,81,95
43650,note_on,9,0,5,,,,,,,,,,4,,66,87
43674,note_on,24,0,3,,,,,,,,,,2,,81,0
43674,note_on,24,0,4,,,,,,,,,,3,,78,0
43677,note_on,27,0,5,,,,,,,,,,4,,66,0
43677,note_on,27,0,6,,,,,,,,,,5,,42,0
43680,note_on,6,0,4,,,,,,,,,,3,,78,96
43680,note_on,6,0,3,,,,,,,,,,2,,81,96
43680,note_on,3,0,5,,,,,,,,,,4,,62,85
43680,note_on,3,0,6,,,,,,,,,,5,,38,87
43704,note_on,24,0,4,,,,,,,,,,3,,78,0
43704,note_on,24,0,3,,,,,,,,,,2,,81,0
43710,note_on,6,0,3,,,,,,,,,,2,,81,96
43710,note_on,6,0,4,,,,,,,,,,3,,78,96
43734,note_on,54,0,5,,,,,,,,,,4,,62,0
43734,note_on,54,0,6,,,,,,,,,,5,,38,0
43734,note_on,24,0,3,,,,,,,,,,2,,81,0
43734,note_on,24,0,4,,,,,,,,,,3,,78,0
43740,note_on,6,0,6,,,,,,,,,,5,,40,97
43740,note_on,6,0,4,,,,,,,,,,3,,78,96
43740,note_on,6,0,5,,,,,,,,,,4,,64,99
43740,note_on,6,0,3,,,,,,,,,,2,,81,96
43764,note_on,24,0,3,,,,,,,,,,2,,81,0
43764,note_on,24,0,4,,,,,,,,,,3,,78,0
43767,note_on,27,0,6,,,,,,,,,,5,,40,0
43767,note_on,27,0,5,,,,,,,,,,4,,64,0
43770,note_on,6,0,4,,,,,,,,,,3,,78,96
43770,note_on,6,0,3,,,,,,,,,,2,,81,96
43770,note_on,3,0,6,,,,,,,,,,5,,42,103
43770,note_on,3,0,5,,,,,,,,,,4,,66,102
43794,note_on,24,0,3,,,,,,,,,,2,,81,0
43794,note_on,24,0,4,,,,,,,,,,3,,78,0
43797,note_on,27,0,6,,,,,,,,,,5,,42,0
43797,note_on,27,0,5,,,,,,,,,,4,,66,0
43800,note_on,3,0,6,,,,,,,,,,5,,43,105
43800,note_on,6,0,3,,,,,,,,,,2,,81,96
43800,note_on,3,0,5,,,,,,,,,,4,,67,103
43800,note_on,6,0,4,,,,,,,,,,3,,78,96
43824,note_on,24,0,4,,,,,,,,,,3,,78,0
43824,note_on,24,0,3,,,,,,,,,,2,,81,0
43827,note_on,27,0,5,,,,,,,,,,4,,67,0
43827,note_on,27,0,6,,,,,,,,,,5,,43,0
43830,note_on,6,0,4,,,,,,,,,,3,,78,96
43830,note_on,3,0,5,,,,,,,,,,4,,69,101
43830,note_on,3,0,6,,,,,,,,,,5,,45,100
43830,note_on,6,0,3,,,,,,,,,,2,,81,96
43854,note_on,24,0,3,,,,,,,,,,2,,81,0
43854,note_on,24,0,4,,,,,,,,,,3,,78,0
43857,note_on,27,0,5,,,,,,,,,,4,,69,0
43857,note_on,27,0,6,,,,,,,,,,5,,45,0
43860,note_on,3,0,6,,,,,,,,,,5,,47,102
43860,note_on,3,0,5,,,,,,,,,,4,,71,101
43860,note_on,6,0,4,,,,,,,,,,3,,78,96
43860,note_on,6,0,3,,,,,,,,,,2,,81,96
43884,note_on,24,0,4,,,,,,,,,,3,,78,0
43884,note_on,24,0,3,,,,,,,,,,2,,81,0
43887,note_on,27,0,5,,,,,,,,,,4,,71,0
43887,note_on,27,0,6,,,,,,,,,,5,,47,0
43890,note_on,3,0,5,,,,,,,,,,4,,73,102
43890,note_on,6,0,3,,,,,,,,,,2,,81,96
43890,note_on,6,0,4,,,,,,,,,,3,,78,96
43890,note_on,3,0,6,,,,,,,,,,5,,49,103
43914,note_on,24,0,4,,,,,,,,,,3,,78,0
43914,note_on,24,0,3,,,,,,,,,,2,,81,0
43917,note_on,27,0,6,,,,,,,,,,5,,49,0
43917,note_on,27,0,5,,,,,,,,,,4,,73,0
43920,note_on,6,0,4,,,,,,,,,,3,,78,96
43920,note_on,3,0,5,,,,,,,,,,4,,74,104
43920,note_on,6,0,3,,,,,,,,,,2,,81,96
43920,note_on,3,0,6,,,,,,,,,,5,,50,105
43944,note_on,24,0,4,,,,,,,,,,3,,78,0
43944,note_on,24,0,3,,,,,,,,,,2,,81,0
43950,note_on,6,0,3,,,,,,,,,,2,,81,96
43950,note_on,6,0,4,,,,,,,,,,3,,78,96
43974,note_on,54,0,6,,,,,,,,,,5,,50,0
43974,note_on,24,0,3,,,,,,,,,,2,,81,0
43974,note_on,54,0,5,,,,,,,,,,4,,74,0
43974,note_on,24,0,4,,,,,,,,,,3,,78,0
43980,note_on,6,0,3,,,,,,,,,,2,,81,96
43980,note_on,6,0,6,,,,,,,,,,5,,45,86
43980,note_on,6,0,4,,,,,,,,,,3,,78,96
43980,note_on,6,0,5,,,,,,,,,,4,,69,86
44004,note_on,24,0,3,,,,,,,,,,2,,81,0
44004,note_on,24,0,4,,,,,,,,,,3,,78,0
44010,note_on,6,0,3,,,,,,,,,,2,,81,96
44010,note_on,6,0,4,,,,,,,,,,3,,78,96
44034,note_on,24,0,3,,,,,,,,,,2,,81,0
44034,note_on,24,0,4,,,,,,,,,,3,,78,0
44034,note_on,54,0,6,,,,,,,,,,5,,45,0
44034,note_on,54,0,5,,,,,,,,,,4,,69,0
44040,note_on,6,0,5,,,,,,,,,,4,,66,89
44040,note_on,6,0,3,,,,,,,,,,2,,81,96
44040,note_on,6,0,6,,,,,,,,,,5,,42,87
44040,note_on,6,0,4,,,,,,,,,,3,,78,96
44064,note_on,24,0,3,,,,,,,,,,2,,81,0
44064,note_on,24,0,4,,,,,,,,,,3,,78,0
44070,note_on,6,0,3,,,,,,,,,,2,,81,96
44070,note_on,6,0,4,,,,,,,,,,3,,78,96
44094,note_on,54,0,5,,,,,,,,,,4,,66,0
44094,note_on,24,0,4,,,,,,,,,,3,,78,0
44094,note_on,24,0,3,,,,,,,,,,2,,81,0
44094,note_on,54,0,6,,,,,,,,,,5,,42,0
44100,note_on,6,0,3,,,,,,,,,,2,,81,96
44100,note_on,6,0,6,,,,,,,,,,5,,38,84
44100,note_on,6,0,4,,,,,,,,,,3,,78,96
44100,note_on,6,0,5,,,,,,,,,,4,,62,83
44124,note_on,24,0,3,,,,,,,,,,2,,81,0
44124,note_on,24,0,4,,,,,,,,,,3,,78,0
44130,note_on,6,0,3,,,,,,,,,,2,,81,96
44130,note_on,6,0,4,,,,,,,,,,3,,78,96
44136,note_on,936,0,1,,,,,,,,,,0,,78,0
44136,note_on,0,0,2,,,,,,,,,,1,,78,0
44136,note_on,936,0,2,,,,,,,,,,1,,81,0
44136,note_on,0,0,1,,,,,,,,,,0,,69,0
44154,note_on,54,0,6,,,,,,,,,,5,,38,0
44154,note_on,54,0,5,,,,,,,,,,4,,62,0
44154,note_on,24,0,3,,,,,,,,,,2,,81,0
44154,note_on,24,0,4,,,,,,,,,,3,,78,0
44160,note_on,6,0,5,,,,,,,,,,4,,67,108
44160,note_on,0,0,1,,,,,,,,,,0,,71,91
44160,note_on,6,0,4,,,,,,,,,,3,,76,91
44160,note_on,6,0,3,,,,,,,,,,2,,83,107
44160,note_on,6,0,6,,,,,,,,,,5,,43,110
44160,note_on,24,0,1,,,,,,,,,,0,,76,94
44187,note_on,27,0,3,,,,,,,,,,2,,83,0
44190,note_on,3,0,3,,,,,,,,,,2,,81,90
44214,note_on,54,0,4,,,,,,,,,,3,,76,0
44214,note_on,54,0,1,,,,,,,,,,0,,76,0
44214,note_on,54,0,5,,,,,,,,,,4,,67,0
44217,note_on,27,0,3,,,,,,,,,,2,,81,0
44220,note_on,3,0,3,,,,,,,,,,2,,79,91
44220,note_on,6,0,1,,,,,,,,,,0,,79,104
44220,note_on,6,0,4,,,,,,,,,,3,,79,102
44220,note_on,6,0,5,,,,,,,,,,4,,55,70
44247,note_on,27,0,1,,,,,,,,,,0,,79,0
44247,note_on,27,0,3,,,,,,,,,,2,,79,0
44247,note_on,27,0,4,,,,,,,,,,3,,79,0
44250,note_on,3,0,1,,,,,,,,,,0,,78,91
44250,note_on,3,0,3,,,,,,,,,,2,,78,88
44250,note_on,3,0,4,,,,,,,,,,3,,78,93
44268,note_on,108,0,6,,,,,,,,,,5,,43,0
44274,note_on,54,0,5,,,,,,,,,,4,,55,0
44277,note_on,27,0,3,,,,,,,,,,2,,78,0
44277,note_on,27,0,4,,,,,,,,,,3,,78,0
44277,note_on,27,0,1,,,,,,,,,,0,,78,0
44280,note_on,3,0,3,,,,,,,,,,2,,76,94
44280,note_on,3,0,4,,,,,,,,,,3,,76,95
44280,note_on,3,0,1,,,,,,,,,,0,,76,91
44280,note_on,6,0,5,,,,,,,,,,4,,67,118
44307,note_on,27,0,4,,,,,,,,,,3,,76,0
44307,note_on,27,0,3,,,,,,,,,,2,,76,0
44310,note_on,3,0,4,,,,,,,,,,3,,75,89
44310,note_on,3,0,3,,,,,,,,,,2,,75,90
44322,note_on,42,0,1,,,,,,,,,,0,,71,0
44337,note_on,27,0,4,,,,,,,,,,3,,75,0
44337,note_on,27,0,3,,,,,,,,,,2,,75,0
44340,note_on,3,0,3,,,,,,,,,,2,,76,101
44340,note_on,3,0,4,,,,,,,,,,3,,76,101
44367,note_on,27,0,4,,,,,,,,,,3,,76,0
44367,note_on,27,0,3,,,,,,,,,,2,,76,0
44370,note_on,3,0,3,,,,,,,,,,2,,75,92
44370,note_on,3,0,4,,,,,,,,,,3,,75,90
44388,note_on,108,0,5,,,,,,,,,,4,,67,0
44388,note_on,66,0,1,,,,,,,,,,0,,76,0
44397,note_on,27,0,3,,,,,,,,,,2,,75,0
44397,note_on,27,0,4,,,,,,,,,,3,,75,0
44400,note_on,3,0,3,,,,,,,,,,2,,76,98
44400,note_on,3,0,4,,,,,,,,,,3,,76,100
44460,note_on,72,0,5,,,,,,,,,,4,,67,87
44460,note_on,192,0,6,,,,,,,,,,5,,43,86
44487,note_on,27,0,5,,,,,,,,,,4,,67,0
44487,note_on,27,0,6,,,,,,,,,,5,,43,0
44490,note_on,3,0,5,,,,,,,,,,4,,69,101
44490,note_on,3,0,6,,,,,,,,,,5,,45,99
44508,note_on,108,0,4,,,,,,,,,,3,,76,0
44508,note_on,108,0,3,,,,,,,,,,2,,76,0
44517,note_on,27,0,5,,,,,,,,,,4,,69,0
44517,note_on,27,0,6,,,,,,,,,,5,,45,0
44520,note_on,3,0,6,,,,,,,,,,5,,47,104
44520,note_on,3,0,5,,,,,,,,,,4,,71,105
44574,note_on,54,0,5,,,,,,,,,,4,,71,0
44574,note_on,54,0,6,,,,,,,,,,5,,47,0
44580,note_on,6,0,6,,,,,,,,,,5,,45,89
44580,note_on,6,0,5,,,,,,,,,,4,,69,91
44634,note_on,54,0,6,,,,,,,,,,5,,45,0
44634,note_on,54,0,5,,,,,,,,,,4,,69,0
44640,note_on,132,0,4,,,,,,,,,,3,,83,44
44640,note_on,0,0,1,,,,,,,,,,0,,71,45
44640,note_on,252,0,1,,,,,,,,,,0,,76,45
44640,note_on,132,0,3,,,,,,,,,,2,,83,46
44640,note_on,6,0,5,,,,,,,,,,4,,67,47
44640,note_on,6,0,6,,,,,,,,,,5,,43,48
44667,note_on,27,0,3,,,,,,,,,,2,,83,0
44667,note_on,27,0,4,,,,,,,,,,3,,83,0
44670,note_on,3,0,4,,,,,,,,,,3,,81,45
44670,note_on,3,0,3,,,,,,,,,,2,,81,46
44694,note_on,54,0,5,,,,,,,,,,4,,67,0
44694,note_on,54,0,1,,,,,,,,,,0,,76,0
44697,note_on,27,0,4,,,,,,,,,,3,,81,0
44697,note_on,27,0,3,,,,,,,,,,2,,81,0
44700,note_on,3,0,4,,,,,,,,,,3,,79,43
44700,note_on,6,0,1,,,,,,,,,,0,,79,49
44700,note_on,6,0,5,,,,,,,,,,4,,55,32
44700,note_on,3,0,3,,,,,,,,,,2,,79,42
44727,note_on,27,0,3,,,,,,,,,,2,,79,0
44727,note_on,27,0,4,,,,,,,,,,3,,79,0
44727,note_on,27,0,1,,,,,,,,,,0,,79,0
44730,note_on,3,0,4,,,,,,,,,,3,,78,46
44730,note_on,3,0,3,,,,,,,,,,2,,78,45
44730,note_on,3,0,1,,,,,,,,,,0,,78,48
44748,note_on,108,0,6,,,,,,,,,,5,,43,0
44754,note_on,54,0,5,,,,,,,,,,4,,55,0
44757,note_on,27,0,1,,,,,,,,,,0,,78,0
44757,note_on,27,0,3,,,,,,,,,,2,,78,0
44757,note_on,27,0,4,,,,,,,,,,3,,78,0
44760,note_on,3,0,1,,,,,,,,,,0,,76,43
44760,note_on,3,0,4,,,,,,,,,,3,,76,48
44760,note_on,6,0,5,,,,,,,,,,4,,67,60
44760,note_on,3,0,3,,,,,,,,,,2,,76,45
44787,note_on,27,0,4,,,,,,,,,,3,,76,0
44787,note_on,27,0,3,,,,,,,,,,2,,76,0
44790,note_on,3,0,4,,,,,,,,,,3,,75,44
44790,note_on,3,0,3,,,,,,,,,,2,,75,47
44802,note_on,42,0,1,,,,,,,,,,0,,71,0
44817,note_on,27,0,4,,,,,,,,,,3,,75,0
44817,note_on,27,0,3,,,,,,,,,,2,,75,0
44820,note_on,3,0,4,,,,,,,,,,3,,76,49
44820,note_on,3,0,3,,,,,,,,,,2,,76,51
44847,note_on,27,0,4,,,,,,,,,,3,,76,0
44847,note_on,27,0,3,,,,,,,,,,2,,76,0
44850,note_on,3,0,3,,,,,,,,,,2,,75,43
44850,note_on,3,0,4,,,,,,,,,,3,,75,45
44868,note_on,108,0,5,,,,,,,,,,4,,67,0
44868,note_on,66,0,1,,,,,,,,,,0,,76,0
44877,note_on,27,0,3,,,,,,,,,,2,,75,0
44877,note_on,27,0,4,,,,,,,,,,3,,75,0
44880,note_on,3,0,3,,,,,,,,,,2,,76,47
44880,note_on,3,0,4,,,,,,,,,,3,,76,49
44940,note_on,192,0,6,,,,,,,,,,5,,43,44
44940,note_on,72,0,5,,,,,,,,,,4,,67,42
44967,note_on,27,0,5,,,,,,,,,,4,,67,0
44967,note_on,27,0,6,,,,,,,,,,5,,43,0
44970,note_on,3,0,5,,,,,,,,,,4,,69,51
44970,note_on,3,0,6,,,,,,,,,,5,,45,52
44988,note_on,108,0,4,,,,,,,,,,3,,76,0
44988,note_on,108,0,3,,,,,,,,,,2,,76,0
44997,note_on,27,0,6,,,,,,,,,,5,,45,0
44997,note_on,27,0,5,,,,,,,,,,4,,69,0
45000,note_on,3,0,6,,,,,,,,,,5,,47,52
45000,note_on,3,0,5,,,,,,,,,,4,,71,56
45054,note_on,54,0,6,,,,,,,,,,5,,47,0
45054,note_on,54,0,5,,,,,,,,,,4,,71,0
45060,note_on,6,0,6,,,,,,,,,,5,,47,48
45060,note_on,6,0,5,,,,,,,,,,4,,69,44
45114,note_on,54,0,6,,,,,,,,,,5,,47,0
45114,note_on,54,0,5,,,,,,,,,,4,,69,0
45120,note_on,252,0,1,,,,,,,,,,0,,76,88
45120,note_on,0,0,1,,,,,,,,,,0,,71,88
45120,note_on,6,0,5,,,,,,,,,,4,,67,92
45120,note_on,132,0,4,,,,,,,,,,3,,83,89
45120,note_on,132,0,3,,,,,,,,,,2,,83,90
45120,note_on,6,0,6,,,,,,,,,,5,,43,88
45147,note_on,27,0,4,,,,,,,,,,3,,83,0
45147,note_on,27,0,3,,,,,,,,,,2,,83,0
45150,note_on,3,0,3,,,,,,,,,,2,,81,88
45150,note_on,3,0,4,,,,,,,,,,3,,81,88
45174,note_on,54,0,5,,,,,,,,,,4,,67,0
45174,note_on,54,0,6,,,,,,,,,,5,,43,0
45177,note_on,27,0,3,,,,,,,,,,2,,81,0
45177,note_on,27,0,4,,,,,,,,,,3,,81,0
45180,note_on,3,0,3,,,,,,,,,,2,,79,90
45180,note_on,6,0,6,,,,,,,,,,5,,43,93
45180,note_on,3,0,4,,,,,,,,,,3,,79,88
45180,note_on,6,0,5,,,,,,,,,,4,,71,103
45207,note_on,27,0,4,,,,,,,,,,3,,79,0
45207,note_on,27,0,3,,,,,,,,,,2,,79,0
45210,note_on,3,0,3,,,,,,,,,,2,,78,91
45210,note_on,3,0,4,,,,,,,,,,3,,78,90
45228,note_on,108,0,1,,,,,,,,,,0,,71,0
45228,note_on,0,0,1,,,,,,,,,,0,,76,0
45234,note_on,54,0,5,,,,,,,,,,4,,71,0
45234,note_on,54,0,6,,,,,,,,,,5,,43,0
45237,note_on,27,0,3,,,,,,,,,,2,,78,0
45237,note_on,27,0,4,,,,,,,,,,3,,78,0
45240,note_on,6,0,6,,,,,,,,,,5,,43,100
45240,note_on,6,0,5,,,,,,,,,,4,,71,101
45240,note_on,3,0,3,,,,,,,,,,2,,76,88
45240,note_on,3,0,4,,,,,,,,,,3,,76,90
45240,note_on,0,0,1,,,,,,,,,,0,,71,96
45240,note_on,12,0,1,,,,,,,,,,0,,76,95
45294,note_on,54,0,6,,,,,,,,,,5,,43,0
45294,note_on,54,0,5,,,,,,,,,,4,,71,0
45300,note_on,6,0,6,,,,,,,,,,5,,43,96
45300,note_on,6,0,5,,,,,,,,,,4,,71,96
45354,note_on,54,0,6,,,,,,,,,,5,,43,0
45354,note_on,54,0,5,,,,,,,,,,4,,71,0
45360,note_on,6,0,5,,,,,,,,,,4,,71,100
45360,note_on,6,0,6,,,,,,,,,,5,,44,101
45402,note_on,162,0,3,,,,,,,,,,2,,76,0
45402,note_on,162,0,1,,,,,,,,,,0,,76,0
45402,note_on,162,0,4,,,,,,,,,,3,,76,0
45414,note_on,54,0,6,,,,,,,,,,5,,44,0
45414,note_on,54,0,5,,,,,,,,,,4,,71,0
45420,note_on,18,0,3,,,,,,,,,,2,,78,102
45420,note_on,6,0,6,,,,,,,,,,5,,44,95
45420,note_on,6,0,5,,,,,,,,,,4,,71,94
45420,note_on,18,0,1,,,,,,,,,,0,,78,103
45420,note_on,18,0,4,,,,,,,,,,3,,78,101
45456,note_on,36,0,1,,,,,,,,,,0,,71,0
45474,note_on,54,0,6,,,,,,,,,,5,,44,0
45474,note_on,18,0,1,,,,,,,,,,0,,78,0
45474,note_on,54,0,5,,,,,,,,,,4,,71,0
45474,note_on,54,0,3,,,,,,,,,,2,,78,0
45474,note_on,54,0,4,,,,,,,,,,3,,78,0
45480,note_on,6,0,4,,,,,,,,,,3,,76,93
45480,note_on,6,0,3,,,,,,,,,,2,,76,93
45480,note_on,6,0,1,,,,,,,,,,0,,76,93
45480,note_on,6,0,6,,,,,,,,,,5,,44,99
45480,note_on,6,0,5,,,,,,,,,,4,,71,99
45480,note_on,0,0,1,,,,,,,,,,0,,71,97
45534,note_on,54,0,6,,,,,,,,,,5,,44,0
45534,note_on,54,0,3,,,,,,,,,,2,,76,0
45534,note_on,54,0,1,,,,,,,,,,0,,76,0
45534,note_on,54,0,4,,,,,,,,,,3,,76,0
45534,note_on,54,0,5,,,,,,,,,,4,,71,0
45540,note_on,6,0,5,,,,,,,,,,4,,71,95
45540,note_on,6,0,4,,,,,,,,,,3,,74,88
45540,note_on,6,0,3,,,,,,,,,,2,,74,88
45540,note_on,6,0,6,,,,,,,,,,5,,44,97
45540,note_on,6,0,1,,,,,,,,,,0,,74,91
45588,note_on,48,0,1,,,,,,,,,,0,,71,0
45594,note_on,54,0,5,,,,,,,,,,4,,71,0
45594,note_on,54,0,6,,,,,,,,,,5,,44,0
45594,note_on,6,0,1,,,,,,,,,,0,,74,0
45594,note_on,54,0,3,,,,,,,,,,2,,74,0
45594,note_on,54,0,4,,,,,,,,,,3,,74,0
45600,note_on,6,0,5,,,,,,,,,,4,,64,80
45600,note_on,0,0,2,,,,,,,,,,1,,69,89
45600,note_on,1464,0,2,,,,,,,,,,1,,57,91
45600,note_on,0,0,1,,,,,,,,,,0,,73,92
45600,note_on,6,0,1,,,,,,,,,,0,,69,93
45600,note_on,6,0,4,,,,,,,,,,3,,73,91
45600,note_on,6,0,6,,,,,,,,,,5,,45,103
45600,note_on,6,0,3,,,,,,,,,,2,,73,91
45654,note_on,54,0,4,,,,,,,,,,3,,73,0
45654,note_on,54,0,6,,,,,,,,,,5,,45,0
45654,note_on,54,0,5,,,,,,,,,,4,,64,0
45654,note_on,54,0,3,,,,,,,,,,2,,73,0
45660,note_on,6,0,3,,,,,,,,,,2,,81,115
45660,note_on,6,0,6,,,,,,,,,,5,,45,96
45660,note_on,6,0,4,,,,,,,,,,3,,81,115
45660,note_on,6,0,5,,,,,,,,,,4,,69,107
45687,note_on,27,0,3,,,,,,,,,,2,,81,0
45687,note_on,27,0,4,,,,,,,,,,3,,81,0
45690,note_on,3,0,3,,,,,,,,,,2,,81,98
45690,note_on,3,0,4,,,,,,,,,,3,,81,98
45708,note_on,0,0,1,,,,,,,,,,0,,69,0
45708,note_on,108,0,1,,,,,,,,,,0,,73,0
45714,note_on,54,0,6,,,,,,,,,,5,,45,0
45714,note_on,54,0,5,,,,,,,,,,4,,69,0
45717,note_on,27,0,3,,,,,,,,,,2,,81,0
45717,note_on,27,0,4,,,,,,,,,,3,,81,0
45720,note_on,3,0,3,,,,,,,,,,2,,80,91
45720,note_on,3,0,4,,,,,,,,,,3,,80,91
45720,note_on,6,0,6,,,,,,,,,,5,,44,93
45720,note_on,6,0,5,,,,,,,,,,4,,68,97
45744,note_on,24,0,3,,,,,,,,,,2,,80,0
45744,note_on,24,0,4,,,,,,,,,,3,,80,0
45750,note_on,6,0,3,,,,,,,,,,2,,80,91
45750,note_on,6,0,4,,,,,,,,,,3,,80,91
45774,note_on,24,0,3,,,,,,,,,,2,,80,0
45774,note_on,54,0,5,,,,,,,,,,4,,68,0
45774,note_on,54,0,6,,,,,,,,,,5,,44,0
45774,note_on,24,0,4,,,,,,,,,,3,,80,0
45780,note_on,6,0,4,,,,,,,,,,3,,78,89
45780,note_on,6,0,3,,,,,,,,,,2,,78,89
45780,note_on,6,0,6,,,,,,,,,,5,,42,88
45780,note_on,6,0,5,,,,,,,,,,4,,66,89
45804,note_on,24,0,3,,,,,,,,,,2,,78,0
45804,note_on,24,0,4,,,,,,,,,,3,,78,0
45810,note_on,6,0,3,,,,,,,,,,2,,78,89
45810,note_on,6,0,4,,,,,,,,,,3,,78,89
45834,note_on,54,0,6,,,,,,,,,,5,,42,0
45834,note_on,54,0,5,,,,,,,,,,4,,66,0
45834,note_on,24,0,3,,,,,,,,,,2,,78,0
45834,note_on,24,0,4,,,,,,,,,,3,,78,0
45840,note_on,6,0,6,,,,,,,,,,5,,40,92
45840,note_on,6,0,5,,,,,,,,,,4,,64,93
45840,note_on,6,0,3,,,,,,,,,,2,,76,89
45840,note_on,6,0,4,,,,,,,,,,3,,76,89
45864,note_on,24,0,4,,,,,,,,,,3,,76,0
45864,note_on,24,0,3,,,,,,,,,,2,,76,0
45870,note_on,6,0,4,,,,,,,,,,3,,76,89
45870,note_on,6,0,3,,,,,,,,,,2,,76,89
45894,note_on,24,0,3,,,,,,,,,,2,,76,0
45894,note_on,54,0,5,,,,,,,,,,4,,64,0
45894,note_on,54,0,6,,,,,,,,,,5,,40,0
45894,note_on,24,0,4,,,,,,,,,,3,,76,0
45900,note_on,6,0,4,,,,,,,,,,3,,74,89
45900,note_on,6,0,3,,,,,,,,,,2,,74,89
45900,note_on,6,0,6,,,,,,,,,,5,,38,90
45900,note_on,6,0,5,,,,,,,,,,4,,62,91
45924,note_on,24,0,3,,,,,,,,,,2,,74,0
45924,note_on,24,0,4,,,,,,,,,,3,,74,0
45930,note_on,6,0,3,,,,,,,,,,2,,74,89
45930,note_on,6,0,4,,,,,,,,,,3,,74,89
45954,note_on,54,0,6,,,,,,,,,,5,,38,0
45954,note_on,24,0,3,,,,,,,,,,2,,74,0
45954,note_on,54,0,5,,,,,,,,,,4,,62,0
45954,note_on,24,0,4,,,,,,,,,,3,,74,0
45960,note_on,6,0,3,,,,,,,,,,2,,73,90
45960,note_on,6,0,5,,,,,,,,,,4,,61,92
45960,note_on,6,0,6,,,,,,,,,,5,,37,92
45960,note_on,6,0,4,,,,,,,,,,3,,73,90
45984,note_on,24,0,3,,,,,,,,,,2,,73,0
45984,note_on,24,0,4,,,,,,,,,,3,,73,0
45990,note_on,6,0,3,,,,,,,,,,2,,73,90
45990,note_on,6,0,4,,,,,,,,,,3,,73,90
46014,note_on,24,0,4,,,,,,,,,,3,,73,0
46014,note_on,24,0,3,,,,,,,,,,2,,73,0
46014,note_on,54,0,5,,,,,,,,,,4,,61,0
46014,note_on,54,0,6,,,,,,,,,,5,,37,0
46020,note_on,6,0,3,,,,,,,,,,2,,71,89
46020,note_on,6,0,4,,,,,,,,,,3,,71,89
46020,note_on,6,0,6,,,,,,,,,,5,,35,89
46020,note_on,6,0,5,,,,,,,,,,4,,59,90
46044,note_on,24,0,4,,,,,,,,,,3,,71,0
46044,note_on,24,0,3,,,,,,,,,,2,,71,0
46050,note_on,6,0,4,,,,,,,,,,3,,71,89
46050,note_on,6,0,3,,,,,,,,,,2,,71,89
46056,note_on,456,0,2,,,,,,,,,,1,,69,0
46056,note_on,0,0,2,,,,,,,,,,1,,57,0
46074,note_on,54,0,6,,,,,,,,,,5,,35,0
46074,note_on,24,0,3,,,,,,,,,,2,,71,0
46074,note_on,54,0,5,,,,,,,,,,4,,59,0
46074,note_on,24,0,4,,,,,,,,,,3,,71,0
46080,note_on,6,0,5,,,,,,,,,,4,,57,93
46080,note_on,0,0,2,,,,,,,,,,1,,69,98
46080,note_on,6,0,6,,,,,,,,,,5,,33,93
46080,note_on,6,0,3,,,,,,,,,,2,,69,89
46080,note_on,24,0,2,,,,,,,,,,1,,57,96
46080,note_on,6,0,4,,,,,,,,,,3,,69,89
46080,note_on,372,0,1,,,,,,,,,,0,,69,89
46104,note_on,24,0,3,,,,,,,,,,2,,69,0
46104,note_on,24,0,4,,,,,,,,,,3,,69,0
46110,note_on,6,0,3,,,,,,,,,,2,,69,89
46110,note_on,6,0,4,,,,,,,,,,3,,69,89
46134,note_on,24,0,3,,,,,,,,,,2,,69,0
46134,note_on,54,0,5,,,,,,,,,,4,,57,0
46134,note_on,24,0,4,,,,,,,,,,3,,69,0
46134,note_on,54,0,1,,,,,,,,,,0,,69,0
46134,note_on,54,0,6,,,,,,,,,,5,,33,0
46140,note_on,6,0,6,,,,,,,,,,5,,45,120
46140,note_on,6,0,5,,,,,,,,,,4,,69,121
46140,note_on,6,0,4,,,,,,,,,,3,,69,89
46140,note_on,6,0,3,,,,,,,,,,2,,69,89
46140,note_on,6,0,1,,,,,,,,,,0,,81,119
46164,note_on,24,0,3,,,,,,,,,,2,,69,0
46164,note_on,24,0,4,,,,,,,,,,3,,69,0
46167,note_on,27,0,5,,,,,,,,,,4,,69,0
46170,note_on,6,0,3,,,,,,,,,,2,,69,89
46170,note_on,3,0,5,,,,,,,,,,4,,69,100
46170,note_on,6,0,4,,,,,,,,,,3,,69,89
46194,note_on,54,0,6,,,,,,,,,,5,,45,0
46194,note_on,24,0,3,,,,,,,,,,2,,69,0
46194,note_on,24,0,4,,,,,,,,,,3,,69,0
46194,note_on,54,0,1,,,,,,,,,,0,,81,0
46197,note_on,27,0,5,,,,,,,,,,4,,69,0
46200,note_on,3,0,5,,,,,,,,,,4,,68,92
46200,note_on,6,0,4,,,,,,,,,,3,,68,90
46200,note_on,6,0,6,,,,,,,,,,5,,44,101
46200,note_on,6,0,3,,,,,,,,,,2,,68,90
46200,note_on,6,0,1,,,,,,,,,,0,,80,101
46224,note_on,24,0,4,,,,,,,,,,3,,68,0
46224,note_on,24,0,3,,,,,,,,,,2,,68,0
46224,note_on,24,0,5,,,,,,,,,,4,,68,0
46230,note_on,6,0,4,,,,,,,,,,3,,68,90
46230,note_on,6,0,3,,,,,,,,,,2,,68,90
46230,note_on,6,0,5,,,,,,,,,,4,,68,92
46254,note_on,24,0,3,,,,,,,,,,2,,68,0
46254,note_on,24,0,5,,,,,,,,,,4,,68,0
46254,note_on,24,0,4,,,,,,,,,,3,,68,0
46254,note_on,54,0,1,,,,,,,,,,0,,80,0
46254,note_on,54,0,6,,,,,,,,,,5,,44,0
46260,note_on,6,0,5,,,,,,,,,,4,,66,90
46260,note_on,6,0,1,,,,,,,,,,0,,78,91
46260,note_on,6,0,6,,,,,,,,,,5,,42,88
46260,note_on,6,0,4,,,,,,,,,,3,,66,89
46260,note_on,6,0,3,,,,,,,,,,2,,66,89
46284,note_on,24,0,5,,,,,,,,,,4,,66,0
46284,note_on,24,0,4,,,,,,,,,,3,,66,0
46284,note_on,24,0,3,,,,,,,,,,2,,66,0
46290,note_on,6,0,5,,,,,,,,,,4,,66,90
46290,note_on,6,0,4,,,,,,,,,,3,,66,89
46290,note_on,6,0,3,,,,,,,,,,2,,66,89
46314,note_on,24,0,3,,,,,,,,,,2,,66,0
46314,note_on,24,0,5,,,,,,,,,,4,,66,0
46314,note_on,54,0,6,,,,,,,,,,5,,42,0
46314,note_on,24,0,4,,,,,,,,,,3,,66,0
46314,note_on,54,0,1,,,,,,,,,,0,,78,0
46320,note_on,6,0,4,,,,,,,,,,3,,64,89
46320,note_on,6,0,6,,,,,,,,,,5,,40,92
46320,note_on,6,0,3,,,,,,,,,,2,,64,89
46320,note_on,6,0,1,,,,,,,,,,0,,76,92
46320,note_on,6,0,5,,,,,,,,,,4,,64,89
46344,note_on,24,0,3,,,,,,,,,,2,,64,0
46344,note_on,24,0,4,,,,,,,,,,3,,64,0
46344,note_on,24,0,5,,,,,,,,,,4,,64,0
46350,note_on,6,0,5,,,,,,,,,,4,,64,89
46350,note_on,6,0,3,,,,,,,,,,2,,64,89
46350,note_on,6,0,4,,,,,,,,,,3,,64,89
46374,note_on,54,0,1,,,,,,,,,,0,,76,0
46374,note_on,54,0,6,,,,,,,,,,5,,40,0
46374,note_on,24,0,5,,,,,,,,,,4,,64,0
46374,note_on,24,0,4,,,,,,,,,,3,,64,0
46374,note_on,24,0,3,,,,,,,,,,2,,64,0
46380,note_on,6,0,1,,,,,,,,,,0,,74,89
46380,note_on,6,0,5,,,,,,,,,,4,,62,89
46380,note_on,6,0,6,,,,,,,,,,5,,38,91
46380,note_on,6,0,3,,,,,,,,,,2,,62,89
46380,note_on,6,0,4,,,,,,,,,,3,,62,89
46404,note_on,24,0,5,,,,,,,,,,4,,62,0
46404,note_on,24,0,3,,,,,,,,,,2,,62,0
46404,note_on,24,0,4,,,,,,,,,,3,,62,0
46410,note_on,6,0,5,,,,,,,,,,4,,62,89
46410,note_on,6,0,3,,,,,,,,,,2,,62,89
46410,note_on,6,0,4,,,,,,,,,,3,,62,89
46434,note_on,24,0,3,,,,,,,,,,2,,62,0
46434,note_on,24,0,4,,,,,,,,,,3,,62,0
46434,note_on,54,0,1,,,,,,,,,,0,,74,0
46434,note_on,54,0,6,,,,,,,,,,5,,38,0
46434,note_on,24,0,5,,,,,,,,,,4,,62,0
46440,note_on,6,0,1,,,,,,,,,,0,,73,92
46440,note_on,6,0,6,,,,,,,,,,5,,37,95
46440,note_on,6,0,4,,,,,,,,,,3,,61,90
46440,note_on,6,0,5,,,,,,,,,,4,,61,90
46440,note_on,6,0,3,,,,,,,,,,2,,61,90
46464,note_on,24,0,4,,,,,,,,,,3,,61,0
46464,note_on,24,0,5,,,,,,,,,,4,,61,0
46464,note_on,24,0,3,,,,,,,,,,2,,61,0
46470,note_on,6,0,3,,,,,,,,,,2,,61,90
46470,note_on,6,0,5,,,,,,,,,,4,,61,90
46470,note_on,6,0,4,,,,,,,,,,3,,61,90
46494,note_on,54,0,1,,,,,,,,,,0,,73,0
46494,note_on,24,0,5,,,,,,,,,,4,,61,0
46494,note_on,54,0,6,,,,,,,,,,5,,37,0
46494,note_on,24,0,3,,,,,,,,,,2,,61,0
46494,note_on,24,0,4,,,,,,,,,,3,,61,0
46500,note_on,6,0,3,,,,,,,,,,2,,59,89
46500,note_on,6,0,4,,,,,,,,,,3,,59,89
46500,note_on,6,0,1,,,,,,,,,,0,,71,88
46500,note_on,6,0,5,,,,,,,,,,4,,59,89
46500,note_on,6,0,6,,,,,,,,,,5,,35,89
46524,note_on,24,0,3,,,,,,,,,,2,,59,0
46524,note_on,24,0,4,,,,,,,,,,3,,59,0
46524,note_on,24,0,5,,,,,,,,,,4,,59,0
46530,note_on,6,0,3,,,,,,,,,,2,,59,89
46530,note_on,6,0,5,,,,,,,,,,4,,59,89
46530,note_on,6,0,4,,,,,,,,,,3,,59,89
46554,note_on,54,0,6,,,,,,,,,,5,,35,0
46554,note_on,24,0,3,,,,,,,,,,2,,59,0
46554,note_on,54,0,1,,,,,,,,,,0,,71,0
46554,note_on,24,0,4,,,,,,,,,,3,,59,0
46554,note_on,24,0,5,,,,,,,,,,4,,59,0
46560,note_on,6,0,3,,,,,,,,,,2,,57,92
46560,note_on,6,0,4,,,,,,,,,,3,,57,91
46560,note_on,6,0,5,,,,,,,,,,4,,57,91
46560,note_on,0,0,1,,,,,,,,,,0,,73,103
46560,note_on,6,0,1,,,,,,,,,,0,,69,103
46560,note_on,6,0,6,,,,,,,,,,5,,33,93
46668,note_on,0,0,2,,,,,,,,,,1,,57,0
46668,note_on,108,0,3,,,,,,,,,,2,,57,0
46668,note_on,108,0,5,,,,,,,,,,4,,57,0
46668,note_on,588,0,2,,,,,,,,,,1,,69,0
46668,note_on,108,0,4,,,,,,,,,,3,,57,0
46668,note_on,108,0,1,,,,,,,,,,0,,73,0
46668,note_on,0,0,1,,,,,,,,,,0,,69,0
46668,note_on,108,0,6,,,,,,,,,,5,,33,0
46680,note_on,0,0,2,,,,,,,,,,1,,76,113
46680,note_on,12,0,6,,,,,,,,,,5,,33,96
46680,note_on,12,0,3,,,,,,,,,,2,,64,120
46680,note_on,0,0,3,,,,,,,,,,2,,73,122
46680,note_on,0,0,3,,,,,,,,,,2,,81,121
46680,note_on,12,0,4,,,,,,,,,,3,,64,121
46680,note_on,0,0,4,,,,,,,,,,3,,73,120
46680,note_on,0,0,4,,,,,,,,,,3,,81,121
46680,note_on,0,0,1,,,,,,,,,,0,,73,98
46680,note_on,12,0,1,,,,,,,,,,0,,69,95
46680,note_on,12,0,2,,,,,,,,,,1,,69,114
46680,note_on,12,0,5,,,,,,,,,,4,,57,96
46788,note_on,108,0,4,,,,,,,,,,3,,81,0
46788,note_on,0,0,3,,,,,,,,,,2,,73,0
46788,note_on,0,0,4,,,,,,,,,,3,,73,0
46788,note_on,108,0,3,,,,,,,,,,2,,81,0
46788,note_on,108,0,5,,,,,,,,,,4,,57,0
46788,note_on,0,0,3,,,,,,,,,,2,,64,0
46788,note_on,0,0,4,,,,,,,,,,3,,64,0
46788,note_on,108,0,2,,,,,,,,,,1,,76,0
46788,note_on,0,0,2,,,,,,,,,,1,,69,0
46788,note_on,108,0,1,,,,,,,,,,0,,73,0
46788,note_on,0,0,1,,,,,,,,,,0,,69,0
46788,note_on,108,0,6,,,,,,,,,,5,,33,0
46800,note_on,0,0,1,,,,,,,,,,0,,73,94
46800,note_on,12,0,1,,,,,,,,,,0,,69,97
46800,note_on,12,0,6,,,,,,,,,,5,,33,94
46800,note_on,12,0,5,,,,,,,,,,4,,57,97
46800,note_on,0,0,2,,,,,,,,,,1,,76,97
46800,note_on,12,0,2,,,,,,,,,,1,,69,100
46800,note_on,0,0,3,,,,,,,,,,2,,81,100
46800,note_on,0,0,3,,,,,,,,,,2,,73,99
46800,note_on,12,0,3,,,,,,,,,,2,,64,102
46800,note_on,0,0,4,,,,,,,,,,3,,81,100
46800,note_on,0,0,4,,,,,,,,,,3,,73,99
46800,note_on,12,0,4,,,,,,,,,,3,,64,100
46908,note_on,108,0,1,,,,,,,,,,0,,73,0
46908,note_on,0,0,1,,,,,,,,,,0,,69,0
46908,note_on,0,0,2,,,,,,,,,,1,,69,0
46908,note_on,108,0,2,,,,,,,,,,1,,76,0
46908,note_on,108,0,6,,,,,,,,,,5,,33,0
46908,note_on,0,0,3,,,,,,,,,,2,,73,0
46908,note_on,108,0,3,,,,,,,,,,2,,81,0
46908,note_on,0,0,3,,,,,,,,,,2,,64,0
46908,note_on,0,0,4,,,,,,,,,,3,,73,0
46908,note_on,0,0,4,,,,,,,,,,3,,64,0
46908,note_on,108,0,5,,,,,,,,,,4,,57,0
46908,note_on,108,0,4,,,,,,,,,,3,,81,0
47040,note_on,132,0,2,,,,,,,,,,1,,76,46
47040,note_on,132,0,5,,,,,,,,,,4,,64,45
47040,note_on,132,0,4,,,,,,,,,,3,,68,45
47040,note_on,132,0,3,,,,,,,,,,2,,71,47
47094,note_on,54,0,3,,,,,,,,,,2,,71,0
47094,note_on,54,0,4,,,,,,,,,,3,,68,0
47094,note_on,54,0,5,,,,,,,,,,4,,64,0
47100,note_on,6,0,3,,,,,,,,,,2,,73,49
47100,note_on,6,0,4,,,,,,,,,,3,,69,50
47100,note_on,6,0,5,,,,,,,,,,4,,64,47
47154,note_on,54,0,5,,,,,,,,,,4,,64,0
47154,note_on,54,0,4,,,,,,,,,,3,,69,0
47154,note_on,54,0,3,,,,,,,,,,2,,73,0
47160,note_on,6,0,4,,,,,,,,,,3,,71,56
47160,note_on,6,0,3,,,,,,,,,,2,,74,52
47160,note_on,6,0,5,,,,,,,,,,4,,64,52
47214,note_on,54,0,4,,,,,,,,,,3,,71,0
47214,note_on,54,0,3,,,,,,,,,,2,,74,0
47214,note_on,54,0,5,,,,,,,,,,4,,64,0
47220,note_on,6,0,3,,,,,,,,,,2,,76,51
47220,note_on,6,0,4,,,,,,,,,,3,,73,50
47220,note_on,6,0,5,,,,,,,,,,4,,64,49
47274,note_on,54,0,5,,,,,,,,,,4,,64,0
47274,note_on,54,0,3,,,,,,,,,,2,,76,0
47274,note_on,54,0,4,,,,,,,,,,3,,73,0
47280,note_on,6,0,5,,,,,,,,,,4,,64,52
47280,note_on,6,0,3,,,,,,,,,,2,,74,46
47280,note_on,6,0,4,,,,,,,,,,3,,71,47
47334,note_on,54,0,5,,,,,,,,,,4,,64,0
47340,note_on,6,0,5,,,,,,,,,,4,,64,50
47388,note_on,108,0,3,,,,,,,,,,2,,74,0
47388,note_on,108,0,4,,,,,,,,,,3,,71,0
47394,note_on,54,0,5,,,,,,,,,,4,,64,0
47400,note_on,6,0,5,,,,,,,,,,4,,64,50
47454,note_on,54,0,5,,,,,,,,,,4,,64,0
47460,note_on,6,0,5,,,,,,,,,,4,,64,49
47514,note_on,54,0,5,,,,,,,,,,4,,64,0
47520,note_on,612,0,1,,,,,,,,,,0,,71,48
47520,note_on,0,0,1,,,,,,,,,,0,,80,45
47520,note_on,132,0,3,,,,,,,,,,2,,80,47
47520,note_on,132,0,4,,,,,,,,,,3,,71,45
47520,note_on,6,0,5,,,,,,,,,,4,,64,51
47549,note_on,29,0,1,,,,,,,,,,0,,80,0
47549,note_on,0,0,1,,,,,,,,,,0,,71,0
47549,note_on,29,0,4,,,,,,,,,,3,,71,0
47549,note_on,29,0,3,,,,,,,,,,2,,80,0
47574,note_on,54,0,5,,,,,,,,,,4,,64,0
47580,note_on,0,0,1,,,,,,,,,,0,,81,47
47580,note_on,31,0,1,,,,,,,,,,0,,73,49
47580,note_on,31,0,3,,,,,,,,,,2,,81,50
47580,note_on,31,0,4,,,,,,,,,,3,,73,50
47580,note_on,6,0,5,,,,,,,,,,4,,64,48
47609,note_on,29,0,4,,,,,,,,,,3,,73,0
47609,note_on,0,0,1,,,,,,,,,,0,,73,0
47609,note_on,29,0,1,,,,,,,,,,0,,81,0
47609,note_on,29,0,3,,,,,,,,,,2,,81,0
47634,note_on,54,0,5,,,,,,,,,,4,,64,0
47640,note_on,31,0,4,,,,,,,,,,3,,74,54
47640,note_on,0,0,1,,,,,,,,,,0,,83,54
47640,note_on,31,0,1,,,,,,,,,,0,,74,55
47640,note_on,31,0,3,,,,,,,,,,2,,83,52
47640,note_on,6,0,5,,,,,,,,,,4,,64,53
47669,note_on,29,0,3,,,,,,,,,,2,,83,0
47669,note_on,29,0,1,,,,,,,,,,0,,83,0
47669,note_on,29,0,4,,,,,,,,,,3,,74,0
47669,note_on,0,0,1,,,,,,,,,,0,,74,0
47694,note_on,54,0,5,,,,,,,,,,4,,64,0
47700,note_on,31,0,3,,,,,,,,,,2,,81,46
47700,note_on,6,0,5,,,,,,,,,,4,,64,49
47700,note_on,31,0,4,,,,,,,,,,3,,73,47
47700,note_on,0,0,1,,,,,,,,,,0,,81,43
47700,note_on,31,0,1,,,,,,,,,,0,,73,45
47729,note_on,29,0,1,,,,,,,,,,0,,81,0
47729,note_on,29,0,3,,,,,,,,,,2,,81,0
47729,note_on,0,0,1,,,,,,,,,,0,,73,0
47729,note_on,29,0,4,,,,,,,,,,3,,73,0
47754,note_on,54,0,5,,,,,,,,,,4,,64,0
47760,note_on,31,0,3,,,,,,,,,,2,,80,44
47760,note_on,31,0,1,,,,,,,,,,0,,71,43
47760,note_on,31,0,4,,,,,,,,,,3,,71,45
47760,note_on,6,0,5,,,,,,,,,,4,,64,50
47760,note_on,0,0,1,,,,,,,,,,0,,80,44
47814,note_on,54,0,5,,,,,,,,,,4,,64,0
47820,note_on,6,0,5,,,,,,,,,,4,,64,47
47868,note_on,0,0,1,,,,,,,,,,0,,71,0
47868,note_on,108,0,1,,,,,,,,,,0,,80,0
47868,note_on,108,0,4,,,,,,,,,,3,,71,0
47868,note_on,108,0,3,,,,,,,,,,2,,80,0
47874,note_on,54,0,5,,,,,,,,,,4,,64,0
47880,note_on,6,0,5,,,,,,,,,,4,,64,50
47934,note_on,54,0,5,,,,,,,,,,4,,64,0
47940,note_on,6,0,5,,,,,,,,,,4,,64,48
47976,note_on,936,0,2,,,,,,,,,,1,,76,0
47994,note_on,54,0,5,,,,,,,,,,4,,64,0
48000,note_on,24,0,2,,,,,,,,,,1,,76,97
48000,note_on,132,0,4,,,,,,,,,,3,,74,86
48000,note_on,132,0,3,,,,,,,,,,2,,80,89
48000,note_on,0,0,1,,,,,,,,,,0,,80,91
48000,note_on,6,0,5,,,,,,,,,,4,,64,96
48000,note_on,1092,0,6,,,,,,,,,,5,,40,86
48000,note_on,132,0,1,,,,,,,,,,0,,71,90
48024,note_on,24,0,4,,,,,,,,,,3,,74,0
48024,note_on,24,0,6,,,,,,,,,,5,,40,0
48024,note_on,24,0,5,,,,,,,,,,4,,64,0
48030,note_on,6,0,4,,,,,,,,,,3,,74,86
48030,note_on,6,0,6,,,,,,,,,,5,,40,86
48030,note_on,6,0,5,,,,,,,,,,4,,64,96
48054,note_on,24,0,4,,,,,,,,,,3,,74,0
48054,note_on,24,0,6,,,,,,,,,,5,,40,0
48054,note_on,24,0,5,,,,,,,,,,4,,64,0
48060,note_on,6,0,4,,,,,,,,,,3,,74,86
48060,note_on,6,0,5,,,,,,,,,,4,,64,96
48060,note_on,6,0,6,,,,,,,,,,5,,40,86
48081,note_on,81,0,3,,,,,,,,,,2,,80,0
48084,note_on,24,0,4,,,,,,,,,,3,,74,0
48084,note_on,24,0,6,,,,,,,,,,5,,40,0
48084,note_on,24,0,5,,,,,,,,,,4,,64,0
48090,note_on,6,0,4,,,,,,,,,,3,,74,86
48090,note_on,6,0,6,,,,,,,,,,5,,40,86
48090,note_on,6,0,5,,,,,,,,,,4,,64,96
48090,note_on,9,0,3,,,,,,,,,,2,,81,101
48114,note_on,24,0,6,,,,,,,,,,5,,40,0
48114,note_on,24,0,4,,,,,,,,,,3,,74,0
48114,note_on,24,0,5,,,,,,,,,,4,,64,0
48117,note_on,27,0,3,,,,,,,,,,2,,81,0
48120,note_on,6,0,4,,,,,,,,,,3,,74,86
48120,note_on,6,0,6,,,,,,,,,,5,,40,86
48120,note_on,6,0,5,,,,,,,,,,4,,64,96
48120,note_on,3,0,3,,,,,,,,,,2,,83,104
48144,note_on,24,0,5,,,,,,,,,,4,,64,0
48144,note_on,24,0,4,,,,,,,,,,3,,74,0
48144,note_on,24,0,6,,,,,,,,,,5,,40,0
48150,note_on,6,0,6,,,,,,,,,,5,,40,86
48150,note_on,6,0,5,,,,,,,,,,4,,64,96
48150,note_on,6,0,4,,,,,,,,,,3,,74,86
48174,note_on,24,0,5,,,,,,,,,,4,,64,0
48174,note_on,24,0,4,,,,,,,,,,3,,74,0
48174,note_on,24,0,6,,,,,,,,,,5,,40,0
48180,note_on,6,0,4,,,,,,,,,,3,,74,86
48180,note_on,6,0,5,,,,,,,,,,4,,64,96
48180,note_on,6,0,6,,,,,,,,,,5,,40,86
48201,note_on,81,0,3,,,,,,,,,,2,,83,0
48204,note_on,24,0,4,,,,,,,,,,3,,74,0
48204,note_on,24,0,5,,,,,,,,,,4,,64,0
48204,note_on,24,0,6,,,,,,,,,,5,,40,0
48210,note_on,6,0,6,,,,,,,,,,5,,40,86
48210,note_on,6,0,4,,,,,,,,,,3,,74,86
48210,note_on,6,0,5,,,,,,,,,,4,,64,96
48210,note_on,9,0,3,,,,,,,,,,2,,85,102
48234,note_on,24,0,4,,,,,,,,,,3,,74,0
48234,note_on,24,0,5,,,,,,,,,,4,,64,0
48234,note_on,24,0,6,,,,,,,,,,5,,40,0
48237,note_on,27,0,3,,,,,,,,,,2,,85,0
48240,note_on,6,0,4,,,,,,,,,,3,,74,94
48240,note_on,3,0,3,,,,,,,,,,2,,86,103
48240,note_on,6,0,6,,,,,,,,,,5,,40,94
48240,note_on,6,0,5,,,,,,,,,,4,,64,96
48264,note_on,24,0,4,,,,,,,,,,3,,74,0
48264,note_on,24,0,6,,,,,,,,,,5,,40,0
48264,note_on,24,0,5,,,,,,,,,,4,,64,0
48267,note_on,27,0,3,,,,,,,,,,2,,86,0
48270,note_on,6,0,5,,,,,,,,,,4,,64,96
48270,note_on,6,0,6,,,,,,,,,,5,,40,94
48270,note_on,3,0,3,,,,,,,,,,2,,83,89
48270,note_on,6,0,4,,,,,,,,,,3,,74,94
48294,note_on,24,0,4,,,,,,,,,,3,,74,0
48294,note_on,24,0,5,,,,,,,,,,4,,64,0
48294,note_on,24,0,6,,,,,,,,,,5,,40,0
48297,note_on,27,0,3,,,,,,,,,,2,,83,0
48300,note_on,6,0,4,,,,,,,,,,3,,74,94
48300,note_on,6,0,5,,,,,,,,,,4,,64,96
48300,note_on,6,0,6,,,,,,,,,,5,,40,94
48324,note_on,24,0,5,,,,,,,,,,4,,64,0
48324,note_on,24,0,6,,,,,,,,,,5,,40,0
48324,note_on,24,0,4,,,,,,,,,,3,,74,0
48330,note_on,6,0,5,,,,,,,,,,4,,64,96
48330,note_on,6,0,6,,,,,,,,,,5,,40,94
48330,note_on,6,0,4,,,,,,,,,,3,,74,94
48354,note_on,24,0,6,,,,,,,,,,5,,40,0
48354,note_on,24,0,4,,,,,,,,,,3,,74,0
48354,note_on,24,0,5,,,,,,,,,,4,,64,0
48360,note_on,6,0,6,,,,,,,,,,5,,40,94
48360,note_on,6,0,5,,,,,,,,,,4,,64,96
48360,note_on,63,0,3,,,,,,,,,,2,,83,88
48360,note_on,6,0,4,,,,,,,,,,3,,74,94
48384,note_on,24,0,6,,,,,,,,,,5,,40,0
48384,note_on,24,0,5,,,,,,,,,,4,,64,0
48384,note_on,24,0,4,,,,,,,,,,3,,74,0
48387,note_on,27,0,3,,,,,,,,,,2,,83,0
48390,note_on,6,0,6,,,,,,,,,,5,,40,94
48390,note_on,6,0,4,,,,,,,,,,3,,74,94
48390,note_on,6,0,5,,,,,,,,,,4,,64,96
48390,note_on,3,0,3,,,,,,,,,,2,,80,86
48414,note_on,24,0,6,,,,,,,,,,5,,40,0
48414,note_on,24,0,4,,,,,,,,,,3,,74,0
48414,note_on,24,0,5,,,,,,,,,,4,,64,0
48417,note_on,27,0,3,,,,,,,,,,2,,80,0
48420,note_on,6,0,6,,,,,,,,,,5,,40,94
48420,note_on,6,0,5,,,,,,,,,,4,,64,96
48420,note_on,6,0,4,,,,,,,,,,3,,74,94
48444,note_on,24,0,4,,,,,,,,,,3,,74,0
48444,note_on,24,0,5,,,,,,,,,,4,,64,0
48444,note_on,24,0,6,,,,,,,,,,5,,40,0
48450,note_on,6,0,6,,,,,,,,,,5,,40,94
48450,note_on,6,0,4,,,,,,,,,,3,,74,94
48450,note_on,6,0,5,,,,,,,,,,4,,64,96
48456,note_on,456,0,2,,,,,,,,,,1,,76,0
48456,note_on,456,0,1,,,,,,,,,,0,,80,0
48456,note_on,0,0,1,,,,,,,,,,0,,71,0
48474,note_on,24,0,6,,,,,,,,,,5,,40,0
48474,note_on,24,0,4,,,,,,,,,,3,,74,0
48474,note_on,24,0,5,,,,,,,,,,4,,64,0
48480,note_on,24,0,1,,,,,,,,,,0,,73,102
48480,note_on,24,0,2,,,,,,,,,,1,,69,99
48480,note_on,0,0,2,,,,,,,,,,1,,76,98
48480,note_on,6,0,4,,,,,,,,,,3,,73,93
48480,note_on,0,0,1,,,,,,,,,,0,,81,102
48480,note_on,6,0,6,,,,,,,,,,5,,33,79
48480,note_on,63,0,3,,,,,,,,,,2,,81,87
48480,note_on,6,0,5,,,,,,,,,,4,,64,101
48507,note_on,27,0,4,,,,,,,,,,3,,73,0
48507,note_on,27,0,3,,,,,,,,,,2,,81,0
48510,note_on,3,0,3,,,,,,,,,,2,,69,69
48510,note_on,3,0,4,,,,,,,,,,3,,69,85
48534,note_on,54,0,5,,,,,,,,,,4,,64,0
48534,note_on,54,0,6,,,,,,,,,,5,,33,0
48537,note_on,27,0,4,,,,,,,,,,3,,69,0
48537,note_on,27,0,3,,,,,,,,,,2,,69,0
48540,note_on,3,0,4,,,,,,,,,,3,,71,100
48540,note_on,6,0,5,,,,,,,,,,4,,69,108
48540,note_on,6,0,6,,,,,,,,,,5,,45,118
48540,note_on,3,0,3,,,,,,,,,,2,,71,99
48567,note_on,27,0,4,,,,,,,,,,3,,71,0
48567,note_on,27,0,3,,,,,,,,,,2,,71,0
48570,note_on,3,0,4,,,,,,,,,,3,,73,100
48570,note_on,3,0,3,,,,,,,,,,2,,73,101
48588,note_on,0,0,1,,,,,,,,,,0,,73,0
48588,note_on,108,0,2,,,,,,,,,,1,,76,0
48588,note_on,0,0,2,,,,,,,,,,1,,69,0
48588,note_on,108,0,1,,,,,,,,,,0,,81,0
48594,note_on,54,0,5,,,,,,,,,,4,,69,0
48594,note_on,54,0,6,,,,,,,,,,5,,45,0
48597,note_on,27,0,3,,,,,,,,,,2,,73,0
48597,note_on,27,0,4,,,,,,,,,,3,,73,0
48600,note_on,0,0,1,,,,,,,,,,0,,76,81
48600,note_on,3,0,4,,,,,,,,,,3,,74,105
48600,note_on,6,0,5,,,,,,,,,,4,,64,89
48600,note_on,12,0,1,,,,,,,,,,0,,73,84
48600,note_on,12,0,2,,,,,,,,,,1,,69,95
48600,note_on,6,0,6,,,,,,,,,,5,,40,89
48600,note_on,0,0,2,,,,,,,,,,1,,76,96
48600,note_on,3,0,3,,,,,,,,,,2,,74,103
48627,note_on,27,0,4,,,,,,,,,,3,,74,0
48627,note_on,27,0,3,,,,,,,,,,2,,74,0
48630,note_on,3,0,4,,,,,,,,,,3,,76,102
48630,note_on,3,0,3,,,,,,,,,,2,,76,101
48654,note_on,54,0,6,,,,,,,,,,5,,40,0
48654,note_on,54,0,5,,,,,,,,,,4,,64,0
48657,note_on,27,0,3,,,,,,,,,,2,,76,0
48657,note_on,27,0,4,,,,,,,,,,3,,76,0
48660,note_on,3,0,4,,,,,,,,,,3,,78,103
48660,note_on,6,0,5,,,,,,,,,,4,,61,86
48660,note_on,6,0,6,,,,,,,,,,5,,37,85
48660,note_on,3,0,3,,,,,,,,,,2,,78,101
48687,note_on,27,0,3,,,,,,,,,,2,,78,0
48687,note_on,27,0,4,,,,,,,,,,3,,78,0
48690,note_on,3,0,3,,,,,,,,,,2,,80,104
48690,note_on,3,0,4,,,,,,,,,,3,,80,102
48708,note_on,108,0,2,,,,,,,,,,1,,76,0
48708,note_on,0,0,2,,,,,,,,,,1,,69,0
48708,note_on,0,0,1,,,,,,,,,,0,,73,0
48708,note_on,108,0,1,,,,,,,,,,0,,76,0
48714,note_on,54,0,5,,,,,,,,,,4,,61,0
48714,note_on,54,0,6,,,,,,,,,,5,,37,0
48717,note_on,27,0,4,,,,,,,,,,3,,80,0
48717,note_on,27,0,3,,,,,,,,,,2,,80,0
48720,note_on,3,0,3,,,,,,,,,,2,,81,101
48720,note_on,0,0,2,,,,,,,,,,1,,76,98
48720,note_on,6,0,5,,,,,,,,,,4,,57,83
48720,note_on,6,0,6,,,,,,,,,,5,,33,85
48720,note_on,3,0,4,,,,,,,,,,3,,81,100
48720,note_on,12,0,1,,,,,,,,,,0,,73,91
48720,note_on,12,0,2,,,,,,,,,,1,,69,94
48720,note_on,0,0,1,,,,,,,,,,0,,76,91
48828,note_on,108,0,2,,,,,,,,,,1,,76,0
48828,note_on,108,0,3,,,,,,,,,,2,,81,0
48828,note_on,108,0,6,,,,,,,,,,5,,33,0
48828,note_on,0,0,2,,,,,,,,,,1,,69,0
48828,note_on,108,0,4,,,,,,,,,,3,,81,0
48828,note_on,108,0,5,,,,,,,,,,4,,57,0
48828,note_on,108,0,1,,,,,,,,,,0,,76,0
48828,note_on,0,0,1,,,,,,,,,,0,,73,0
48960,note_on,132,0,5,,,,,,,,,,4,,64,47
48960,note_on,132,0,3,,,,,,,,,,2,,86,46
48960,note_on,132,0,2,,,,,,,,,,1,,76,46
48960,note_on,132,0,6,,,,,,,,,,5,,40,44
48960,note_on,132,0,4,,,,,,,,,,3,,68,46
49014,note_on,54,0,4,,,,,,,,,,3,,68,0
49014,note_on,54,0,6,,,,,,,,,,5,,40,0
49020,note_on,6,0,4,,,,,,,,,,3,,69,48
49020,note_on,6,0,6,,,,,,,,,,5,,42,50
49068,note_on,108,0,5,,,,,,,,,,4,,64,0
49074,note_on,54,0,4,,,,,,,,,,3,,69,0
49074,note_on,54,0,6,,,,,,,,,,5,,42,0
49080,note_on,6,0,4,,,,,,,,,,3,,71,53
49080,note_on,12,0,5,,,,,,,,,,4,,66,53
49080,note_on,6,0,6,,,,,,,,,,5,,44,53
49093,note_on,13,0,5,,,,,,,,,,4,,66,0
49095,note_on,2,0,5,,,,,,,,,,4,,64,47
49108,note_on,13,0,5,,,,,,,,,,4,,64,0
49110,note_on,2,0,5,,,,,,,,,,4,,63,46
49134,note_on,54,0,6,,,,,,,,,,5,,44,0
49134,note_on,54,0,4,,,,,,,,,,3,,71,0
49137,note_on,27,0,5,,,,,,,,,,4,,63,0
49140,note_on,6,0,6,,,,,,,,,,5,,45,51
49140,note_on,3,0,5,,,,,,,,,,4,,64,50
49140,note_on,6,0,4,,,,,,,,,,3,,73,50
49167,note_on,27,0,5,,,,,,,,,,4,,64,0
49170,note_on,3,0,5,,,,,,,,,,4,,66,53
49194,note_on,54,0,6,,,,,,,,,,5,,45,0
49194,note_on,54,0,4,,,,,,,,,,3,,73,0
49197,note_on,27,0,5,,,,,,,,,,4,,66,0
49200,note_on,6,0,4,,,,,,,,,,3,,71,47
49200,note_on,3,0,5,,,,,,,,,,4,,64,47
49200,note_on,6,0,6,,,,,,,,,,5,,44,47
49254,note_on,54,0,5,,,,,,,,,,4,,64,0
49254,note_on,294,0,3,,,,,,,,,,2,,86,0
49260,note_on,6,0,5,,,,,,,,,,4,,64,47
49260,note_on,6,0,3,,,,,,,,,,2,,85,45
49289,note_on,29,0,3,,,,,,,,,,2,,85,0
49308,note_on,108,0,4,,,,,,,,,,3,,71,0
49308,note_on,108,0,6,,,,,,,,,,5,,44,0
49314,note_on,54,0,5,,,,,,,,,,4,,64,0
49320,note_on,31,0,3,,,,,,,,,,2,,83,48
49320,note_on,6,0,5,,,,,,,,,,4,,64,50
49349,note_on,29,0,3,,,,,,,,,,2,,83,0
49374,note_on,54,0,5,,,,,,,,,,4,,64,0
49380,note_on,6,0,5,,,,,,,,,,4,,64,46
49380,note_on,31,0,3,,,,,,,,,,2,,81,42
49409,note_on,29,0,3,,,,,,,,,,2,,81,0
49434,note_on,54,0,5,,,,,,,,,,4,,64,0
49440,note_on,132,0,4,,,,,,,,,,3,,68,46
49440,note_on,132,0,6,,,,,,,,,,5,,40,46
49440,note_on,6,0,5,,,,,,,,,,4,,64,52
49440,note_on,31,0,3,,,,,,,,,,2,,86,59
49494,note_on,54,0,4,,,,,,,,,,3,,68,0
49494,note_on,54,0,6,,,,,,,,,,5,,40,0
49500,note_on,6,0,6,,,,,,,,,,5,,42,50
49500,note_on,6,0,4,,,,,,,,,,3,,69,48
49548,note_on,108,0,5,,,,,,,,,,4,,64,0
49554,note_on,54,0,4,,,,,,,,,,3,,69,0
49554,note_on,54,0,6,,,,,,,,,,5,,42,0
49560,note_on,12,0,5,,,,,,,,,,4,,66,55
49560,note_on,6,0,4,,,,,,,,,,3,,71,55
49560,note_on,6,0,6,,,,,,,,,,5,,44,53
49573,note_on,13,0,5,,,,,,,,,,4,,66,0
49575,note_on,2,0,5,,,,,,,,,,4,,64,44
49588,note_on,13,0,5,,,,,,,,,,4,,64,0
49590,note_on,2,0,5,,,,,,,,,,4,,63,43
49614,note_on,54,0,6,,,,,,,,,,5,,44,0
49614,note_on,54,0,4,,,,,,,,,,3,,71,0
49617,note_on,27,0,5,,,,,,,,,,4,,63,0
49620,note_on,6,0,6,,,,,,,,,,5,,45,51
49620,note_on,3,0,5,,,,,,,,,,4,,64,50
49620,note_on,6,0,4,,,,,,,,,,3,,73,50
49647,note_on,27,0,5,,,,,,,,,,4,,64,0
49650,note_on,3,0,5,,,,,,,,,,4,,66,53
49674,note_on,54,0,6,,,,,,,,,,5,,45,0
49674,note_on,54,0,4,,,,,,,,,,3,,73,0
49677,note_on,27,0,5,,,,,,,,,,4,,66,0
49680,note_on,3,0,5,,,,,,,,,,4,,64,44
49680,note_on,6,0,4,,,,,,,,,,3,,71,44
49680,note_on,6,0,6,,,,,,,,,,5,,44,46
49734,note_on,294,0,3,,,,,,,,,,2,,86,0
49740,note_on,6,0,3,,,,,,,,,,2,,85,44
49769,note_on,29,0,3,,,,,,,,,,2,,85,0
49788,note_on,108,0,6,,,,,,,,,,5,,44,0
49788,note_on,108,0,4,,,,,,,,,,3,,71,0
49788,note_on,108,0,5,,,,,,,,,,4,,64,0
49800,note_on,31,0,3,,,,,,,,,,2,,83,49
49829,note_on,29,0,3,,,,,,,,,,2,,83,0
49860,note_on,31,0,3,,,,,,,,,,2,,81,46
49889,note_on,29,0,3,,,,,,,,,,2,,81,0
49896,note_on,936,0,2,,,,,,,,,,1,,76,0
49920,note_on,24,0,2,,,,,,,,,,1,,76,99
49920,note_on,31,0,3,,,,,,,,,,2,,86,113
49920,note_on,132,0,4,,,,,,,,,,3,,83,90
49920,note_on,132,0,5,,,,,,,,,,4,,64,90
49920,note_on,132,0,6,,,,,,,,,,5,,40,88
49920,note_on,1092,0,1,,,,,,,,,,0,,71,89
49920,note_on,0,0,1,,,,,,,,,,0,,80,89
49949,note_on,29,0,4,,,,,,,,,,3,,83,0
49949,note_on,29,0,3,,,,,,,,,,2,,86,0
49974,note_on,54,0,6,,,,,,,,,,5,,40,0
49974,note_on,54,0,5,,,,,,,,,,4,,64,0
49980,note_on,6,0,6,,,,,,,,,,5,,40,93
49980,note_on,31,0,3,,,,,,,,,,2,,85,92
49980,note_on,6,0,5,,,,,,,,,,4,,64,92
49980,note_on,31,0,4,,,,,,,,,,3,,81,86
50009,note_on,29,0,4,,,,,,,,,,3,,81,0
50009,note_on,29,0,3,,,,,,,,,,2,,85,0
50034,note_on,54,0,5,,,,,,,,,,4,,64,0
50034,note_on,54,0,6,,,,,,,,,,5,,40,0
50040,note_on,6,0,5,,,,,,,,,,4,,64,98
50040,note_on,31,0,4,,,,,,,,,,3,,80,91
50040,note_on,31,0,3,,,,,,,,,,2,,83,93
50040,note_on,6,0,6,,,,,,,,,,5,,40,99
50069,note_on,29,0,3,,,,,,,,,,2,,83,0
50069,note_on,29,0,4,,,,,,,,,,3,,80,0
50094,note_on,54,0,5,,,,,,,,,,4,,64,0
50094,note_on,54,0,6,,,,,,,,,,5,,40,0
50100,note_on,6,0,6,,,,,,,,,,5,,40,96
50100,note_on,6,0,5,,,,,,,,,,4,,64,96
50100,note_on,31,0,4,,,,,,,,,,3,,78,88
50100,note_on,31,0,3,,,,,,,,,,2,,81,88
50129,note_on,29,0,4,,,,,,,,,,3,,78,0
50129,note_on,29,0,3,,,,,,,,,,2,,81,0
50154,note_on,54,0,6,,,,,,,,,,5,,40,0
50154,note_on,54,0,5,,,,,,,,,,4,,64,0
50160,note_on,6,0,5,,,,,,,,,,4,,64,97
50160,note_on,6,0,6,,,,,,,,,,5,,40,98
50160,note_on,31,0,4,,,,,,,,,,3,,76,92
50160,note_on,31,0,3,,,,,,,,,,2,,80,91
50189,note_on,29,0,4,,,,,,,,,,3,,76,0
50189,note_on,29,0,3,,,,,,,,,,2,,80,0
50214,note_on,54,0,5,,,,,,,,,,4,,64,0
50214,note_on,54,0,6,,,,,,,,,,5,,40,0
50220,note_on,31,0,4,,,,,,,,,,3,,74,90
50220,note_on,6,0,5,,,,,,,,,,4,,64,95
50220,note_on,6,0,6,,,,,,,,,,5,,40,97
50220,note_on,31,0,3,,,,,,,,,,2,,78,87
50249,note_on,29,0,4,,,,,,,,,,3,,74,0
50249,note_on,29,0,3,,,,,,,,,,2,,78,0
50274,note_on,54,0,5,,,,,,,,,,4,,64,0
50274,note_on,54,0,6,,,,,,,,,,5,,40,0
50280,note_on,6,0,6,,,,,,,,,,5,,40,100
50280,note_on,31,0,4,,,,,,,,,,3,,73,93
50280,note_on,31,0,3,,,,,,,,,,2,,76,91
50280,note_on,6,0,5,,,,,,,,,,4,,64,98
50309,note_on,29,0,3,,,,,,,,,,2,,76,0
50309,note_on,29,0,4,,,,,,,,,,3,,73,0
50334,note_on,54,0,5,,,,,,,,,,4,,64,0
50334,note_on,54,0,6,,,,,,,,,,5,,40,0
50340,note_on,6,0,6,,,,,,,,,,5,,40,98
50340,note_on,6,0,5,,,,,,,,,,4,,64,97
50340,note_on,31,0,3,,,,,,,,,,2,,74,90
50340,note_on,31,0,4,,,,,,,,,,3,,71,90
50369,note_on,29,0,4,,,,,,,,,,3,,71,0
50369,note_on,29,0,3,,,,,,,,,,2,,74,0
50376,note_on,456,0,2,,,,,,,,,,1,,76,0
50376,note_on,0,0,1,,,,,,,,,,0,,71,0
50376,note_on,456,0,1,,,,,,,,,,0,,80,0
50394,note_on,54,0,6,,,,,,,,,,5,,40,0
50394,note_on,54,0,5,,,,,,,,,,4,,64,0
50400,note_on,31,0,4,,,,,,,,,,3,,69,91
50400,note_on,6,0,6,,,,,,,,,,5,,40,101
50400,note_on,24,0,1,,,,,,,,,,0,,73,101
50400,note_on,6,0,5,,,,,,,,,,4,,64,99
50400,note_on,24,0,2,,,,,,,,,,1,,76,98
50400,note_on,31,0,3,,,,,,,,,,2,,73,94
50400,note_on,0,0,1,,,,,,,,,,0,,81,101
50429,note_on,29,0,4,,,,,,,,,,3,,69,0
50429,note_on,29,0,3,,,,,,,,,,2,,73,0
50454,note_on,54,0,6,,,,,,,,,,5,,40,0
50454,note_on,54,0,5,,,,,,,,,,4,,64,0
50460,note_on,6,0,5,,,,,,,,,,4,,64,96
50460,note_on,31,0,4,,,,,,,,,,3,,71,101
50460,note_on,31,0,3,,,,,,,,,,2,,74,99
50460,note_on,6,0,6,,,,,,,,,,5,,40,97
50489,note_on,29,0,3,,,,,,,,,,2,,74,0
50489,note_on,29,0,4,,,,,,,,,,3,,71,0
50514,note_on,54,0,5,,,,,,,,,,4,,64,0
50514,note_on,54,0,6,,,,,,,,,,5,,40,0
50520,note_on,31,0,3,,,,,,,,,,2,,76,106
50520,note_on,6,0,6,,,,,,,,,,5,,40,100
50520,note_on,31,0,4,,,,,,,,,,3,,73,103
50520,note_on,6,0,5,,,,,,,,,,4,,64,97
50549,note_on,29,0,4,,,,,,,,,,3,,73,0
50549,note_on,29,0,3,,,,,,,,,,2,,76,0
50574,note_on,54,0,5,,,,,,,,,,4,,64,0
50574,note_on,54,0,6,,,,,,,,,,5,,40,0
50580,note_on,6,0,6,,,,,,,,,,5,,40,95
50580,note_on,6,0,5,,,,,,,,,,4,,64,97
50580,note_on,31,0,4,,,,,,,,,,3,,74,101
50580,note_on,31,0,3,,,,,,,,,,2,,78,103
50609,note_on,29,0,3,,,,,,,,,,2,,78,0
50609,note_on,29,0,4,,,,,,,,,,3,,74,0
50634,note_on,54,0,6,,,,,,,,,,5,,40,0
50634,note_on,54,0,5,,,,,,,,,,4,,64,0
50640,note_on,31,0,3,,,,,,,,,,2,,80,105
50640,note_on,6,0,6,,,,,,,,,,5,,40,97
50640,note_on,31,0,4,,,,,,,,,,3,,76,107
50640,note_on,6,0,5,,,,,,,,,,4,,64,98
50669,note_on,29,0,3,,,,,,,,,,2,,80,0
50669,note_on,29,0,4,,,,,,,,,,3,,76,0
50694,note_on,54,0,6,,,,,,,,,,5,,40,0
50694,note_on,54,0,5,,,,,,,,,,4,,64,0
50700,note_on,31,0,3,,,,,,,,,,2,,81,102
50700,note_on,6,0,6,,,,,,,,,,5,,40,96
50700,note_on,31,0,4,,,,,,,,,,3,,78,101
50700,note_on,6,0,5,,,,,,,,,,4,,64,94
50729,note_on,29,0,4,,,,,,,,,,3,,78,0
50729,note_on,29,0,3,,,,,,,,,,2,,81,0
50754,note_on,54,0,5,,,,,,,,,,4,,64,0
50754,note_on,54,0,6,,,,,,,,,,5,,40,0
50760,note_on,6,0,5,,,,,,,,,,4,,64,98
50760,note_on,31,0,4,,,,,,,,,,3,,80,106
50760,note_on,31,0,3,,,,,,,,,,2,,83,105
50760,note_on,6,0,6,,,,,,,,,,5,,40,99
50789,note_on,29,0,4,,,,,,,,,,3,,80,0
50789,note_on,29,0,3,,,,,,,,,,2,,83,0
50814,note_on,54,0,6,,,,,,,,,,5,,40,0
50814,note_on,54,0,5,,,,,,,,,,4,,64,0
50820,note_on,6,0,6,,,,,,,,,,5,,40,95
50820,note_on,6,0,5,,,,,,,,,,4,,64,98
50820,note_on,31,0,4,,,,,,,,,,3,,81,100
50820,note_on,31,0,3,,,,,,,,,,2,,85,104
50849,note_on,29,0,4,,,,,,,,,,3,,81,0
50849,note_on,29,0,3,,,,,,,,,,2,,85,0
50856,note_on,0,0,1,,,,,,,,,,0,,73,0
50856,note_on,456,0,1,,,,,,,,,,0,,81,0
50856,note_on,456,0,2,,,,,,,,,,1,,76,0
50874,note_on,54,0,6,,,,,,,,,,5,,40,0
50874,note_on,54,0,5,,,,,,,,,,4,,64,0
50880,note_on,24,0,1,,,,,,,,,,0,,83,110
50880,note_on,6,0,5,,,,,,,,,,4,,64,98
50880,note_on,31,0,4,,,,,,,,,,3,,83,107
50880,note_on,0,0,1,,,,,,,,,,0,,86,113
50880,note_on,6,0,6,,,,,,,,,,5,,40,101
50880,note_on,24,0,2,,,,,,,,,,1,,76,99
50880,note_on,31,0,3,,,,,,,,,,2,,86,105
50909,note_on,29,0,4,,,,,,,,,,3,,83,0
50909,note_on,29,0,1,,,,,,,,,,0,,86,0
50909,note_on,0,0,1,,,,,,,,,,0,,83,0
50909,note_on,29,0,3,,,,,,,,,,2,,86,0
50934,note_on,54,0,6,,,,,,,,,,5,,40,0
50940,note_on,31,0,1,,,,,,,,,,0,,81,94
50940,note_on,31,0,4,,,,,,,,,,3,,81,89
50940,note_on,31,0,3,,,,,,,,,,2,,85,93
50940,note_on,6,0,6,,,,,,,,,,5,,40,95
50940,note_on,0,0,1,,,,,,,,,,0,,85,93
50969,note_on,29,0,3,,,,,,,,,,2,,85,0
50969,note_on,29,0,4,,,,,,,,,,3,,81,0
50969,note_on,29,0,1,,,,,,,,,,0,,85,0
50969,note_on,0,0,1,,,,,,,,,,0,,81,0
50988,note_on,108,0,5,,,,,,,,,,4,,64,0
50994,note_on,54,0,6,,,,,,,,,,5,,40,0
51000,note_on,31,0,1,,,,,,,,,,0,,80,94
51000,note_on,0,0,1,,,,,,,,,,0,,83,93
51000,note_on,31,0,3,,,,,,,,,,2,,83,91
51000,note_on,31,0,4,,,,,,,,,,3,,80,95
51000,note_on,6,0,6,,,,,,,,,,5,,40,98
51029,note_on,29,0,1,,,,,,,,,,0,,83,0
51029,note_on,0,0,1,,,,,,,,,,0,,80,0
51029,note_on,29,0,3,,,,,,,,,,2,,83,0
51029,note_on,29,0,4,,,,,,,,,,3,,80,0
51054,note_on,54,0,6,,,,,,,,,,5,,40,0
51060,note_on,31,0,1,,,,,,,,,,0,,78,87
51060,note_on,6,0,6,,,,,,,,,,5,,40,95
51060,note_on,31,0,4,,,,,,,,,,3,,78,88
51060,note_on,0,0,1,,,,,,,,,,0,,81,90
51060,note_on,31,0,3,,,,,,,,,,2,,81,88
51089,note_on,29,0,1,,,,,,,,,,0,,81,0
51089,note_on,0,0,1,,,,,,,,,,0,,78,0
51089,note_on,29,0,3,,,,,,,,,,2,,81,0
51089,note_on,29,0,4,,,,,,,,,,3,,78,0
51114,note_on,54,0,6,,,,,,,,,,5,,40,0
51120,note_on,31,0,1,,,,,,,,,,0,,76,91
51120,note_on,0,0,1,,,,,,,,,,0,,80,92
51120,note_on,31,0,3,,,,,,,,,,2,,80,91
51120,note_on,31,0,4,,,,,,,,,,3,,76,91
51120,note_on,6,0,6,,,,,,,,,,5,,40,99
51149,note_on,29,0,4,,,,,,,,,,3,,76,0
51149,note_on,0,0,1,,,,,,,,,,0,,76,0
51149,note_on,29,0,1,,,,,,,,,,0,,80,0
51149,note_on,29,0,3,,,,,,,,,,2,,80,0
51174,note_on,54,0,6,,,,,,,,,,5,,40,0
51180,note_on,0,0,1,,,,,,,,,,0,,78,87
51180,note_on,31,0,1,,,,,,,,,,0,,74,88
51180,note_on,6,0,6,,,,,,,,,,5,,40,96
51180,note_on,31,0,3,,,,,,,,,,2,,78,91
51180,note_on,31,0,4,,,,,,,,,,3,,74,91
51209,note_on,29,0,4,,,,,,,,,,3,,74,0
51209,note_on,0,0,1,,,,,,,,,,0,,74,0
51209,note_on,29,0,3,,,,,,,,,,2,,78,0
51209,note_on,29,0,1,,,,,,,,,,0,,78,0
51234,note_on,54,0,6,,,,,,,,,,5,,40,0
51240,note_on,31,0,1,,,,,,,,,,0,,73,93
51240,note_on,0,0,1,,,,,,,,,,0,,76,92
51240,note_on,31,0,4,,,,,,,,,,3,,73,92
51240,note_on,31,0,3,,,,,,,,,,2,,76,90
51240,note_on,6,0,6,,,,,,,,,,5,,40,97
51269,note_on,29,0,4,,,,,,,,,,3,,73,0
51269,note_on,29,0,1,,,,,,,,,,0,,76,0
51269,note_on,0,0,1,,,,,,,,,,0,,73,0
51269,note_on,29,0,3,,,,,,,,,,2,,76,0
51294,note_on,54,0,6,,,,,,,,,,5,,40,0
51300,note_on,6,0,6,,,,,,,,,,5,,40,97
51300,note_on,31,0,1,,,,,,,,,,0,,71,88
51300,note_on,0,0,1,,,,,,,,,,0,,74,88
51300,note_on,31,0,3,,,,,,,,,,2,,74,87
51300,note_on,31,0,4,,,,,,,,,,3,,71,88
51329,note_on,29,0,4,,,,,,,,,,3,,71,0
51329,note_on,29,0,1,,,,,,,,,,0,,74,0
51329,note_on,0,0,1,,,,,,,,,,0,,71,0
51329,note_on,29,0,3,,,,,,,,,,2,,74,0
51336,note_on,456,0,2,,,,,,,,,,1,,76,0
51354,note_on,54,0,6,,,,,,,,,,5,,40,0
51360,note_on,31,0,4,,,,,,,,,,3,,69,48
51360,note_on,6,0,6,,,,,,,,,,5,,33,44
51360,note_on,372,0,5,,,,,,,,,,4,,64,47
51360,note_on,0,0,1,,,,,,,,,,0,,72,91
51360,note_on,31,0,3,,,,,,,,,,2,,72,46
51360,note_on,24,0,2,,,,,,,,,,1,,69,98
51360,note_on,0,0,2,,,,,,,,,,1,,76,99
51360,note_on,31,0,1,,,,,,,,,,0,,69,93
51414,note_on,54,0,3,,,,,,,,,,2,,72,0
51414,note_on,0,0,1,,,,,,,,,,0,,69,0
51414,note_on,54,0,1,,,,,,,,,,0,,72,0
51414,note_on,54,0,2,,,,,,,,,,1,,76,0
51414,note_on,0,0,2,,,,,,,,,,1,,69,0
51414,note_on,54,0,5,,,,,,,,,,4,,64,0
51414,note_on,54,0,4,,,,,,,,,,3,,69,0
51420,note_on,6,0,4,,,,,,,,,,3,,81,58
51420,note_on,6,0,5,,,,,,,,,,4,,64,45
51468,note_on,108,0,6,,,,,,,,,,5,,33,0
51480,note_on,12,0,6,,,,,,,,,,5,,45,58
51528,note_on,108,0,4,,,,,,,,,,3,,81,0
51528,note_on,108,0,5,,,,,,,,,,4,,64,0
51540,note_on,12,0,4,,,,,,,,,,3,,81,51
51540,note_on,12,0,5,,,,,,,,,,4,,64,46
51588,note_on,108,0,6,,,,,,,,,,5,,45,0
51600,note_on,12,0,6,,,,,,,,,,5,,48,55
51648,note_on,108,0,4,,,,,,,,,,3,,81,0
51648,note_on,108,0,5,,,,,,,,,,4,,64,0
51660,note_on,12,0,4,,,,,,,,,,3,,81,50
51660,note_on,12,0,5,,,,,,,,,,4,,64,47
51708,note_on,108,0,6,,,,,,,,,,5,,48,0
51720,note_on,12,0,6,,,,,,,,,,5,,45,47
51768,note_on,108,0,5,,,,,,,,,,4,,64,0
51768,note_on,108,0,4,,,,,,,,,,3,,81,0
51780,note_on,366,0,3,,,,,,,,,,2,,84,42
51780,note_on,12,0,4,,,,,,,,,,3,,81,47
51780,note_on,12,0,5,,,,,,,,,,4,,64,50
51828,note_on,108,0,6,,,,,,,,,,5,,45,0
51834,note_on,54,0,5,,,,,,,,,,4,,64,0
51834,note_on,54,0,3,,,,,,,,,,2,,84,0
51834,note_on,54,0,4,,,,,,,,,,3,,81,0
51840,note_on,6,0,3,,,,,,,,,,2,,86,53
51840,note_on,6,0,4,,,,,,,,,,3,,83,55
51840,note_on,12,0,6,,,,,,,,,,5,,38,44
51840,note_on,6,0,5,,,,,,,,,,4,,62,49
51894,note_on,54,0,3,,,,,,,,,,2,,86,0
51894,note_on,54,0,4,,,,,,,,,,3,,83,0
51894,note_on,54,0,5,,,,,,,,,,4,,62,0
51900,note_on,6,0,3,,,,,,,,,,2,,86,47
51900,note_on,6,0,4,,,,,,,,,,3,,83,47
51900,note_on,6,0,5,,,,,,,,,,4,,62,46
51948,note_on,108,0,6,,,,,,,,,,5,,38,0
51960,note_on,12,0,6,,,,,,,,,,5,,38,45
52008,note_on,108,0,3,,,,,,,,,,2,,86,0
52008,note_on,108,0,4,,,,,,,,,,3,,83,0
52008,note_on,108,0,5,,,,,,,,,,4,,62,0
52020,note_on,12,0,4,,,,,,,,,,3,,83,48
52020,note_on,12,0,5,,,,,,,,,,4,,65,53
52020,note_on,12,0,3,,,,,,,,,,2,,86,50
52068,note_on,108,0,6,,,,,,,,,,5,,38,0
52080,note_on,12,0,6,,,,,,,,,,5,,40,51
52128,note_on,108,0,3,,,,,,,,,,2,,86,0
52128,note_on,108,0,4,,,,,,,,,,3,,83,0
52128,note_on,108,0,5,,,,,,,,,,4,,65,0
52140,note_on,12,0,3,,,,,,,,,,2,,86,47
52140,note_on,12,0,4,,,,,,,,,,3,,83,48
52140,note_on,12,0,5,,,,,,,,,,4,,64,47
52188,note_on,108,0,6,,,,,,,,,,5,,40,0
52194,note_on,54,0,4,,,,,,,,,,3,,83,0
52194,note_on,54,0,3,,,,,,,,,,2,,86,0
52200,note_on,12,0,6,,,,,,,,,,5,,28,33
52200,note_on,6,0,4,,,,,,,,,,3,,81,49
52200,note_on,6,0,3,,,,,,,,,,2,,84,48
52248,note_on,108,0,5,,,,,,,,,,4,,64,0
52254,note_on,54,0,3,,,,,,,,,,2,,84,0
52254,note_on,54,0,4,,,,,,,,,,3,,81,0
52260,note_on,6,0,3,,,,,,,,,,2,,83,44
52260,note_on,12,0,5,,,,,,,,,,4,,62,46
52260,note_on,6,0,4,,,,,,,,,,3,,80,45
52308,note_on,108,0,6,,,,,,,,,,5,,28,0
52314,note_on,54,0,3,,,,,,,,,,2,,83,0
52314,note_on,54,0,5,,,,,,,,,,4,,62,0
52314,note_on,54,0,4,,,,,,,,,,3,,80,0
52320,note_on,0,0,1,,,,,,,,,,0,,72,44
52320,note_on,906,0,1,,,,,,,,,,0,,69,45
52320,note_on,12,0,6,,,,,,,,,,5,,33,53
52320,note_on,6,0,5,,,,,,,,,,4,,64,52
52320,note_on,6,0,4,,,,,,,,,,3,,81,53
52320,note_on,6,0,3,,,,,,,,,,2,,84,52
52374,note_on,54,0,5,,,,,,,,,,4,,64,0
52374,note_on,54,0,3,,,,,,,,,,2,,84,0
52374,note_on,54,0,4,,,,,,,,,,3,,81,0
52380,note_on,6,0,5,,,,,,,,,,4,,64,50
52428,note_on,108,0,6,,,,,,,,,,5,,33,0
52440,note_on,12,0,6,,,,,,,,,,5,,33,49
52488,note_on,108,0,5,,,,,,,,,,4,,64,0
52500,note_on,12,0,5,,,,,,,,,,4,,64,46
52536,note_on,216,0,1,,,,,,,,,,0,,72,0
52536,note_on,0,0,1,,,,,,,,,,0,,69,0
52548,note_on,108,0,6,,,,,,,,,,5,,33,0
52560,note_on,12,0,6,,,,,,,,,,5,,33,48
52560,note_on,0,0,1,,,,,,,,,,0,,76,53
52560,note_on,24,0,1,,,,,,,,,,0,,72,52
52608,note_on,108,0,5,,,,,,,,,,4,,64,0
52620,note_on,12,0,5,,,,,,,,,,4,,64,47
52668,note_on,108,0,6,,,,,,,,,,5,,33,0
52680,note_on,12,0,6,,,,,,,,,,5,,33,48
52728,note_on,108,0,5,,,,,,,,,,4,,64,0
52740,note_on,12,0,5,,,,,,,,,,4,,60,42
52740,note_on,366,0,4,,,,,,,,,,3,,76,44
52776,note_on,216,0,1,,,,,,,,,,0,,76,0
52776,note_on,0,0,1,,,,,,,,,,0,,72,0
52788,note_on,108,0,6,,,,,,,,,,5,,33,0
52794,note_on,54,0,5,,,,,,,,,,4,,60,0
52794,note_on,54,0,4,,,,,,,,,,3,,76,0
52800,note_on,6,0,5,,,,,,,,,,4,,62,55
52800,note_on,6,0,4,,,,,,,,,,3,,77,52
52800,note_on,0,0,1,,,,,,,,,,0,,77,52
52800,note_on,24,0,1,,,,,,,,,,0,,74,56
52800,note_on,12,0,6,,,,,,,,,,5,,38,59
52854,note_on,54,0,5,,,,,,,,,,4,,62,0
52854,note_on,0,0,1,,,,,,,,,,0,,74,0
52854,note_on,54,0,4,,,,,,,,,,3,,77,0
52854,note_on,54,0,1,,,,,,,,,,0,,77,0
52860,note_on,6,0,5,,,,,,,,,,4,,62,49
52860,note_on,6,0,4,,,,,,,,,,3,,77,47
52860,note_on,0,0,1,,,,,,,,,,0,,77,48
52860,note_on,6,0,1,,,,,,,,,,0,,74,49
52908,note_on,108,0,6,,,,,,,,,,5,,38,0
52920,note_on,12,0,6,,,,,,,,,,5,,38,48
52968,note_on,108,0,1,,,,,,,,,,0,,77,0
52968,note_on,108,0,4,,,,,,,,,,3,,77,0
52968,note_on,108,0,5,,,,,,,,,,4,,62,0
52968,note_on,0,0,1,,,,,,,,,,0,,74,0
52980,note_on,12,0,1,,,,,,,,,,0,,77,52
52980,note_on,0,0,1,,,,,,,,,,0,,81,55
52980,note_on,12,0,4,,,,,,,,,,3,,81,52
52980,note_on,12,0,5,,,,,,,,,,4,,65,52
53028,note_on,108,0,6,,,,,,,,,,5,,38,0
53040,note_on,12,0,6,,,,,,,,,,5,,38,50
53088,note_on,108,0,1,,,,,,,,,,0,,81,0
53088,note_on,0,0,1,,,,,,,,,,0,,77,0
53088,note_on,108,0,4,,,,,,,,,,3,,81,0
53088,note_on,108,0,5,,,,,,,,,,4,,65,0
53100,note_on,12,0,4,,,,,,,,,,3,,80,46
53100,note_on,12,0,5,,,,,,,,,,4,,64,45
53100,note_on,12,0,1,,,,,,,,,,0,,76,45
53100,note_on,0,0,1,,,,,,,,,,0,,80,45
53148,note_on,108,0,6,,,,,,,,,,5,,38,0
53160,note_on,12,0,6,,,,,,,,,,5,,38,48
53208,note_on,108,0,5,,,,,,,,,,4,,64,0
53208,note_on,0,0,1,,,,,,,,,,0,,76,0
53208,note_on,108,0,1,,,,,,,,,,0,,80,0
53208,note_on,108,0,4,,,,,,,,,,3,,80,0
53220,note_on,12,0,5,,,,,,,,,,4,,62,47
53220,note_on,0,0,1,,,,,,,,,,0,,83,51
53220,note_on,12,0,4,,,,,,,,,,3,,83,51
53220,note_on,12,0,1,,,,,,,,,,0,,74,52
53268,note_on,108,0,6,,,,,,,,,,5,,38,0
53274,note_on,54,0,1,,,,,,,,,,0,,83,0
53274,note_on,54,0,5,,,,,,,,,,4,,62,0
53274,note_on,54,0,4,,,,,,,,,,3,,83,0
53274,note_on,0,0,1,,,,,,,,,,0,,74,0
53280,note_on,6,0,5,,,,,,,,,,4,,61,94
53280,note_on,12,0,6,,,,,,,,,,5,,33,87
53280,note_on,0,0,2,,,,,,,,,,1,,76,89
53280,note_on,1866,0,2,,,,,,,,,,1,,69,89
53280,note_on,6,0,1,,,,,,,,,,0,,73,93
53280,note_on,0,0,4,,,,,,,,,,3,,81,96
53280,note_on,6,0,4,,,,,,,,,,3,,69,94
53280,note_on,906,0,3,,,,,,,,,,2,,69,89
53280,note_on,0,0,3,,,,,,,,,,2,,81,90
53280,note_on,0,0,1,,,,,,,,,,0,,81,92
53334,note_on,54,0,6,,,,,,,,,,5,,33,0
53334,note_on,54,0,5,,,,,,,,,,4,,61,0
53340,note_on,6,0,5,,,,,,,,,,4,,64,105
53340,note_on,6,0,6,,,,,,,,,,5,,40,109
53388,note_on,0,0,3,,,,,,,,,,2,,69,0
53388,note_on,0,0,1,,,,,,,,,,0,,73,0
53388,note_on,108,0,1,,,,,,,,,,0,,81,0
53388,note_on,108,0,4,,,,,,,,,,3,,81,0
53388,note_on,108,0,2,,,,,,,,,,1,,76,0
53388,note_on,0,0,4,,,,,,,,,,3,,69,0
53388,note_on,0,0,2,,,,,,,,,,1,,69,0
53388,note_on,108,0,3,,,,,,,,,,2,,81,0
53394,note_on,54,0,5,,,,,,,,,,4,,64,0
53394,note_on,54,0,6,,,,,,,,,,5,,40,0
53400,note_on,6,0,5,,,,,,,,,,4,,61,90
53400,note_on,6,0,6,,,,,,,,,,5,,37,91
53454,note_on,54,0,6,,,,,,,,,,5,,37,0
53454,note_on,54,0,5,,,,,,,,,,4,,61,0
53460,note_on,6,0,6,,,,,,,,,,5,,33,82
53460,note_on,6,0,5,,,,,,,,,,4,,57,85
53514,note_on,54,0,6,,,,,,,,,,5,,33,0
53514,note_on,54,0,5,,,,,,,,,,4,,57,0
53520,note_on,0,0,1,,,,,,,,,,0,,78,85
53520,note_on,132,0,1,,,,,,,,,,0,,74,84
53520,note_on,0,0,4,,,,,,,,,,3,,78,86
53520,note_on,0,0,4,,,,,,,,,,3,,69,85
53520,note_on,132,0,4,,,,,,,,,,3,,62,88
53520,note_on,6,0,5,,,,,,,,,,4,,57,98
53520,note_on,0,0,3,,,,,,,,,,2,,78,85
53520,note_on,0,0,3,,,,,,,,,,2,,69,84
53520,note_on,132,0,3,,,,,,,,,,2,,62,86
53520,note_on,6,0,6,,,,,,,,,,5,,33,96
53520,note_on,0,0,2,,,,,,,,,,1,,78,86
53520,note_on,132,0,2,,,,,,,,,,1,,74,85
53574,note_on,54,0,6,,,,,,,,,,5,,33,0
53574,note_on,54,0,5,,,,,,,,,,4,,57,0
53580,note_on,6,0,5,,,,,,,,,,4,,66,118
53580,note_on,6,0,6,,,,,,,,,,5,,42,115
53628,note_on,108,0,4,,,,,,,,,,3,,78,0
53628,note_on,108,0,1,,,,,,,,,,0,,78,0
53628,note_on,108,0,2,,,,,,,,,,1,,78,0
53628,note_on,0,0,4,,,,,,,,,,3,,62,0
53628,note_on,0,0,1,,,,,,,,,,0,,74,0
53628,note_on,0,0,3,,,,,,,,,,2,,69,0
53628,note_on,108,0,3,,,,,,,,,,2,,78,0
53628,note_on,0,0,2,,,,,,,,,,1,,74,0
53628,note_on,0,0,3,,,,,,,,,,2,,62,0
53628,note_on,0,0,4,,,,,,,,,,3,,69,0
53634,note_on,54,0,5,,,,,,,,,,4,,66,0
53634,note_on,54,0,6,,,,,,,,,,5,,42,0
53640,note_on,6,0,5,,,,,,,,,,4,,62,91
53640,note_on,6,0,6,,,,,,,,,,5,,38,92
53694,note_on,54,0,5,,,,,,,,,,4,,62,0
53694,note_on,54,0,6,,,,,,,,,,5,,38,0
53700,note_on,6,0,5,,,,,,,,,,4,,57,83
53700,note_on,6,0,6,,,,,,,,,,5,,33,81
53754,note_on,54,0,5,,,,,,,,,,4,,57,0
53754,note_on,54,0,6,,,,,,,,,,5,,33,0
53760,note_on,132,0,2,,,,,,,,,,1,,69,90
53760,note_on,6,0,6,,,,,,,,,,5,,33,97
53760,note_on,132,0,4,,,,,,,,,,3,,69,87
53760,note_on,0,0,4,,,,,,,,,,3,,76,88
53760,note_on,0,0,2,,,,,,,,,,1,,76,90
53760,note_on,0,0,1,,,,,,,,,,0,,76,88
53760,note_on,132,0,1,,,,,,,,,,0,,73,87
53760,note_on,132,0,3,,,,,,,,,,2,,69,89
53760,note_on,0,0,3,,,,,,,,,,2,,76,90
53760,note_on,6,0,5,,,,,,,,,,4,,57,97
53814,note_on,54,0,6,,,,,,,,,,5,,33,0
53814,note_on,54,0,5,,,,,,,,,,4,,57,0
53820,note_on,6,0,5,,,,,,,,,,4,,61,105
53820,note_on,6,0,6,,,,,,,,,,5,,33,95
53868,note_on,0,0,4,,,,,,,,,,3,,69,0
53868,note_on,108,0,4,,,,,,,,,,3,,76,0
53868,note_on,108,0,3,,,,,,,,,,2,,76,0
53868,note_on,0,0,3,,,,,,,,,,2,,69,0
53868,note_on,108,0,1,,,,,,,,,,0,,76,0
53868,note_on,0,0,2,,,,,,,,,,1,,69,0
53868,note_on,0,0,1,,,,,,,,,,0,,73,0
53868,note_on,108,0,2,,,,,,,,,,1,,76,0
53874,note_on,54,0,6,,,,,,,,,,5,,33,0
53874,note_on,54,0,5,,,,,,,,,,4,,61,0
53880,note_on,12,0,4,,,,,,,,,,3,,81,109
53880,note_on,0,0,2,,,,,,,,,,1,,81,106
53880,note_on,6,0,6,,,,,,,,,,5,,37,109
53880,note_on,12,0,3,,,,,,,,,,2,,81,112
53880,note_on,12,0,2,,,,,,,,,,1,,76,106
53880,note_on,6,0,5,,,,,,,,,,4,,64,109
53893,note_on,13,0,3,,,,,,,,,,2,,81,0
53893,note_on,13,0,4,,,,,,,,,,3,,81,0
53895,note_on,2,0,3,,,,,,,,,,2,,83,105
53895,note_on,2,0,4,,,,,,,,,,3,,83,104
53908,note_on,13,0,4,,,,,,,,,,3,,83,0
53908,note_on,13,0,3,,,,,,,,,,2,,83,0
53910,note_on,2,0,4,,,,,,,,,,3,,81,91
53910,note_on,2,0,3,,,,,,,,,,2,,81,90
53923,note_on,13,0,4,,,,,,,,,,3,,81,0
53923,note_on,13,0,3,,,,,,,,,,2,,81,0
53925,note_on,2,0,3,,,,,,,,,,2,,83,103
53925,note_on,2,0,4,,,,,,,,,,3,,83,99
53934,note_on,54,0,5,,,,,,,,,,4,,64,0
53934,note_on,54,0,6,,,,,,,,,,5,,37,0
53938,note_on,13,0,3,,,,,,,,,,2,,83,0
53938,note_on,13,0,4,,,,,,,,,,3,,83,0
53940,note_on,2,0,4,,,,,,,,,,3,,81,88
53940,note_on,6,0,6,,,,,,,,,,5,,37,97
53940,note_on,2,0,3,,,,,,,,,,2,,81,89
53940,note_on,6,0,5,,,,,,,,,,4,,64,95
53953,note_on,13,0,3,,,,,,,,,,2,,81,0
53953,note_on,13,0,4,,,,,,,,,,3,,81,0
53955,note_on,2,0,4,,,,,,,,,,3,,83,100
53955,note_on,2,0,3,,,,,,,,,,2,,83,102
53968,note_on,13,0,4,,,,,,,,,,3,,83,0
53968,note_on,13,0,3,,,,,,,,,,2,,83,0
53970,note_on,2,0,3,,,,,,,,,,2,,80,89
53970,note_on,2,0,4,,,,,,,,,,3,,80,88
53983,note_on,13,0,4,,,,,,,,,,3,,80,0
53983,note_on,13,0,3,,,,,,,,,,2,,80,0
53985,note_on,2,0,4,,,,,,,,,,3,,81,100
53985,note_on,2,0,3,,,,,,,,,,2,,81,100
53994,note_on,54,0,5,,,,,,,,,,4,,64,0
53994,note_on,54,0,6,,,,,,,,,,5,,37,0
53998,note_on,13,0,3,,,,,,,,,,2,,81,0
53998,note_on,13,0,4,,,,,,,,,,3,,81,0
54000,note_on,6,0,5,,,,,,,,,,4,,62,92
54000,note_on,6,0,6,,,,,,,,,,5,,35,94
54000,note_on,2,0,4,,,,,,,,,,3,,83,101
54000,note_on,2,0,3,,,,,,,,,,2,,83,102
54054,note_on,54,0,5,,,,,,,,,,4,,62,0
54054,note_on,54,0,6,,,,,,,,,,5,,35,0
54060,note_on,6,0,5,,,,,,,,,,4,,62,95
54060,note_on,6,0,6,,,,,,,,,,5,,35,96
54096,note_on,0,0,2,,,,,,,,,,1,,76,0
54096,note_on,216,0,2,,,,,,,,,,1,,81,0
54108,note_on,108,0,3,,,,,,,,,,2,,83,0
54108,note_on,108,0,4,,,,,,,,,,3,,83,0
54114,note_on,54,0,6,,,,,,,,,,5,,35,0
54114,note_on,54,0,5,,,,,,,,,,4,,62,0
54120,note_on,6,0,6,,,,,,,,,,5,,40,111
54120,note_on,6,0,5,,,,,,,,,,4,,68,115
54120,note_on,24,0,2,,,,,,,,,,1,,76,94
54120,note_on,12,0,3,,,,,,,,,,2,,64,76
54120,note_on,12,0,4,,,,,,,,,,3,,64,73
54120,note_on,252,0,1,,,,,,,,,,0,,74,84
54120,note_on,0,0,1,,,,,,,,,,0,,83,85
54120,note_on,0,0,4,,,,,,,,,,3,,74,76
54120,note_on,0,0,2,,,,,,,,,,1,,80,94
54120,note_on,0,0,3,,,,,,,,,,2,,74,77
54174,note_on,54,0,5,,,,,,,,,,4,,68,0
54174,note_on,54,0,6,,,,,,,,,,5,,40,0
54180,note_on,6,0,5,,,,,,,,,,4,,68,100
54180,note_on,6,0,6,,,,,,,,,,5,,40,97
54228,note_on,108,0,4,,,,,,,,,,3,,74,0
54228,note_on,0,0,4,,,,,,,,,,3,,64,0
54228,note_on,108,0,3,,,,,,,,,,2,,74,0
54228,note_on,108,0,2,,,,,,,,,,1,,80,0
54228,note_on,0,0,1,,,,,,,,,,0,,74,0
54228,note_on,0,0,2,,,,,,,,,,1,,76,0
54228,note_on,108,0,1,,,,,,,,,,0,,83,0
54228,note_on,0,0,3,,,,,,,,,,2,,64,0
54234,note_on,54,0,6,,,,,,,,,,5,,40,0
54234,note_on,54,0,5,,,,,,,,,,4,,68,0
54240,note_on,6,0,5,,,,,,,,,,4,,69,102
54240,note_on,0,0,3,,,,,,,,,,2,,81,110
54240,note_on,0,0,3,,,,,,,,,,2,,73,112
54240,note_on,12,0,3,,,,,,,,,,2,,64,113
54240,note_on,12,0,4,,,,,,,,,,3,,64,112
54240,note_on,0,0,4,,,,,,,,,,3,,73,111
54240,note_on,0,0,4,,,,,,,,,,3,,81,113
54240,note_on,0,0,2,,,,,,,,,,1,,81,102
54240,note_on,12,0,2,,,,,,,,,,1,,69,102
54240,note_on,6,0,6,,,,,,,,,,5,,33,83
54240,note_on,0,0,1,,,,,,,,,,0,,81,91
54240,note_on,12,0,1,,,,,,,,,,0,,73,92
54294,note_on,54,0,6,,,,,,,,,,5,,33,0
54294,note_on,54,0,5,,,,,,,,,,4,,69,0
54300,note_on,6,0,6,,,,,,,,,,5,,40,111
54300,note_on,6,0,5,,,,,,,,,,4,,64,82
54348,note_on,108,0,4,,,,,,,,,,3,,81,0
54348,note_on,0,0,4,,,,,,,,,,3,,64,0
54348,note_on,0,0,3,,,,,,,,,,2,,64,0
54348,note_on,0,0,3,,,,,,,,,,2,,73,0
54348,note_on,108,0,3,,,,,,,,,,2,,81,0
54348,note_on,108,0,1,,,,,,,,,,0,,81,0
54348,note_on,0,0,1,,,,,,,,,,0,,73,0
54348,note_on,108,0,2,,,,,,,,,,1,,81,0
54348,note_on,0,0,2,,,,,,,,,,1,,69,0
54348,note_on,0,0,4,,,,,,,,,,3,,73,0
54354,note_on,54,0,5,,,,,,,,,,4,,64,0
54354,note_on,54,0,6,,,,,,,,,,5,,40,0
54360,note_on,6,0,5,,,,,,,,,,4,,61,90
54360,note_on,6,0,6,,,,,,,,,,5,,37,94
54414,note_on,54,0,6,,,,,,,,,,5,,37,0
54414,note_on,54,0,5,,,,,,,,,,4,,61,0
54420,note_on,6,0,5,,,,,,,,,,4,,57,85
54420,note_on,6,0,6,,,,,,,,,,5,,33,84
54474,note_on,54,0,5,,,,,,,,,,4,,57,0
54474,note_on,54,0,6,,,,,,,,,,5,,33,0
54480,note_on,0,0,1,,,,,,,,,,0,,78,85
54480,note_on,132,0,1,,,,,,,,,,0,,74,87
54480,note_on,132,0,3,,,,,,,,,,2,,62,87
54480,note_on,0,0,4,,,,,,,,,,3,,69,85
54480,note_on,132,0,4,,,,,,,,,,3,,62,85
54480,note_on,0,0,3,,,,,,,,,,2,,69,88
54480,note_on,0,0,4,,,,,,,,,,3,,78,88
54480,note_on,132,0,2,,,,,,,,,,1,,74,86
54480,note_on,0,0,2,,,,,,,,,,1,,78,85
54480,note_on,6,0,5,,,,,,,,,,4,,57,97
54480,note_on,6,0,6,,,,,,,,,,5,,33,98
54480,note_on,0,0,3,,,,,,,,,,2,,78,85
54534,note_on,54,0,6,,,,,,,,,,5,,33,0
54534,note_on,54,0,5,,,,,,,,,,4,,57,0
54540,note_on,6,0,6,,,,,,,,,,5,,42,116
54540,note_on,6,0,5,,,,,,,,,,4,,66,118
54588,note_on,0,0,3,,,,,,,,,,2,,62,0
54588,note_on,0,0,3,,,,,,,,,,2,,69,0
54588,note_on,108,0,3,,,,,,,,,,2,,78,0
54588,note_on,0,0,2,,,,,,,,,,1,,74,0
54588,note_on,108,0,1,,,,,,,,,,0,,78,0
54588,note_on,108,0,4,,,,,,,,,,3,,78,0
54588,note_on,0,0,4,,,,,,,,,,3,,69,0
54588,note_on,0,0,4,,,,,,,,,,3,,62,0
54588,note_on,108,0,2,,,,,,,,,,1,,78,0
54588,note_on,0,0,1,,,,,,,,,,0,,74,0
54594,note_on,54,0,6,,,,,,,,,,5,,42,0
54594,note_on,54,0,5,,,,,,,,,,4,,66,0
54600,note_on,6,0,6,,,,,,,,,,5,,38,94
54600,note_on,6,0,5,,,,,,,,,,4,,62,94
54654,note_on,54,0,5,,,,,,,,,,4,,62,0
54654,note_on,54,0,6,,,,,,,,,,5,,38,0
54660,note_on,6,0,5,,,,,,,,,,4,,57,81
54660,note_on,6,0,6,,,,,,,,,,5,,33,83
54714,note_on,54,0,5,,,,,,,,,,4,,57,0
54714,note_on,54,0,6,,,,,,,,,,5,,33,0
54720,note_on,0,0,2,,,,,,,,,,1,,76,89
54720,note_on,6,0,6,,,,,,,,,,5,,33,95
54720,note_on,0,0,4,,,,,,,,,,3,,76,90
54720,note_on,132,0,2,,,,,,,,,,1,,69,90
54720,note_on,132,0,1,,,,,,,,,,0,,73,88
54720,note_on,132,0,3,,,,,,,,,,2,,69,89
54720,note_on,0,0,3,,,,,,,,,,2,,76,89
54720,note_on,6,0,5,,,,,,,,,,4,,57,95
54720,note_on,132,0,4,,,,,,,,,,3,,69,90
54720,note_on,0,0,1,,,,,,,,,,0,,76,89
54774,note_on,54,0,6,,,,,,,,,,5,,33,0
54774,note_on,54,0,5,,,,,,,,,,4,,57,0
54780,note_on,6,0,5,,,,,,,,,,4,,61,104
54780,note_on,6,0,6,,,,,,,,,,5,,33,96
54828,note_on,0,0,2,,,,,,,,,,1,,69,0
54828,note_on,108,0,3,,,,,,,,,,2,,76,0
54828,note_on,0,0,1,,,,,,,,,,0,,73,0
54828,note_on,108,0,1,,,,,,,,,,0,,76,0
54828,note_on,108,0,4,,,,,,,,,,3,,76,0
54828,note_on,0,0,4,,,,,,,,,,3,,69,0
54828,note_on,108,0,2,,,,,,,,,,1,,76,0
54828,note_on,0,0,3,,,,,,,,,,2,,69,0
54834,note_on,54,0,5,,,,,,,,,,4,,61,0
54834,note_on,54,0,6,,,,,,,,,,5,,33,0
54840,note_on,6,0,5,,,,,,,,,,4,,64,107
54840,note_on,12,0,4,,,,,,,,,,3,,81,109
54840,note_on,6,0,6,,,,,,,,,,5,,37,109
54840,note_on,12,0,3,,,,,,,,,,2,,81,111
54840,note_on,0,0,2,,,,,,,,,,1,,81,107
54840,note_on,12,0,2,,,,,,,,,,1,,76,106
54853,note_on,13,0,4,,,,,,,,,,3,,81,0
54853,note_on,13,0,3,,,,,,,,,,2,,81,0
54855,note_on,2,0,4,,,,,,,,,,3,,83,102
54855,note_on,2,0,3,,,,,,,,,,2,,83,104
54868,note_on,13,0,4,,,,,,,,,,3,,83,0
54868,note_on,13,0,3,,,,,,,,,,2,,83,0
54870,note_on,2,0,4,,,,,,,,,,3,,81,90
54870,note_on,2,0,3,,,,,,,,,,2,,81,89
54883,note_on,13,0,3,,,,,,,,,,2,,81,0
54883,note_on,13,0,4,,,,,,,,,,3,,81,0
54885,note_on,2,0,3,,,,,,,,,,2,,83,102
54885,note_on,2,0,4,,,,,,,,,,3,,83,100
54894,note_on,54,0,6,,,,,,,,,,5,,37,0
54894,note_on,54,0,5,,,,,,,,,,4,,64,0
54898,note_on,13,0,3,,,,,,,,,,2,,83,0
54898,note_on,13,0,4,,,,,,,,,,3,,83,0
54900,note_on,6,0,6,,,,,,,,,,5,,37,99
54900,note_on,2,0,4,,,,,,,,,,3,,81,91
54900,note_on,6,0,5,,,,,,,,,,4,,64,98
54900,note_on,2,0,3,,,,,,,,,,2,,81,88
54913,note_on,13,0,3,,,,,,,,,,2,,81,0
54913,note_on,13,0,4,,,,,,,,,,3,,81,0
54915,note_on,2,0,3,,,,,,,,,,2,,83,102
54915,note_on,2,0,4,,,,,,,,,,3,,83,100
54928,note_on,13,0,4,,,,,,,,,,3,,83,0
54928,note_on,13,0,3,,,,,,,,,,2,,83,0
54930,note_on,2,0,3,,,,,,,,,,2,,80,89
54930,note_on,2,0,4,,,,,,,,,,3,,80,90
54943,note_on,13,0,3,,,,,,,,,,2,,80,0
54943,note_on,13,0,4,,,,,,,,,,3,,80,0
54945,note_on,2,0,4,,,,,,,,,,3,,81,98
54945,note_on,2,0,3,,,,,,,,,,2,,81,98
54954,note_on,54,0,5,,,,,,,,,,4,,64,0
54954,note_on,54,0,6,,,,,,,,,,5,,37,0
54958,note_on,13,0,4,,,,,,,,,,3,,81,0
54958,note_on,13,0,3,,,,,,,,,,2,,81,0
54960,note_on,6,0,5,,,,,,,,,,4,,62,92
54960,note_on,2,0,4,,,,,,,,,,3,,83,103
54960,note_on,2,0,3,,,,,,,,,,2,,83,101
54960,note_on,6,0,6,,,,,,,,,,5,,35,92
55014,note_on,54,0,5,,,,,,,,,,4,,62,0
55014,note_on,54,0,6,,,,,,,,,,5,,35,0
55020,note_on,6,0,5,,,,,,,,,,4,,74,120
55020,note_on,6,0,6,,,,,,,,,,5,,35,96
55056,note_on,0,0,2,,,,,,,,,,1,,76,0
55056,note_on,216,0,2,,,,,,,,,,1,,81,0
55068,note_on,108,0,3,,,,,,,,,,2,,83,0
55068,note_on,108,0,4,,,,,,,,,,3,,83,0
55074,note_on,54,0,5,,,,,,,,,,4,,74,0
55074,note_on,54,0,6,,,,,,,,,,5,,35,0
55080,note_on,12,0,4,,,,,,,,,,3,,71,70
55080,note_on,12,0,3,,,,,,,,,,2,,71,68
55080,note_on,24,0,2,,,,,,,,,,1,,76,94
55080,note_on,0,0,2,,,,,,,,,,1,,80,93
55080,note_on,252,0,1,,,,,,,,,,0,,74,85
55080,note_on,0,0,1,,,,,,,,,,0,,83,84
55080,note_on,6,0,5,,,,,,,,,,4,,68,89
55080,note_on,6,0,6,,,,,,,,,,5,,40,109
55134,note_on,54,0,5,,,,,,,,,,4,,68,0
55134,note_on,54,0,6,,,,,,,,,,5,,40,0
55140,note_on,6,0,6,,,,,,,,,,5,,40,97
55140,note_on,6,0,5,,,,,,,,,,4,,68,94
55188,note_on,0,0,1,,,,,,,,,,0,,74,0
55188,note_on,108,0,3,,,,,,,,,,2,,71,0
55188,note_on,108,0,2,,,,,,,,,,1,,80,0
55188,note_on,108,0,4,,,,,,,,,,3,,71,0
55188,note_on,108,0,1,,,,,,,,,,0,,83,0
55188,note_on,0,0,2,,,,,,,,,,1,,76,0
55194,note_on,54,0,6,,,,,,,,,,5,,40,0
55194,note_on,54,0,5,,,,,,,,,,4,,68,0
55200,note_on,6,0,6,,,,,,,,,,5,,33,80
55200,note_on,12,0,4,,,,,,,,,,3,,57,101
55200,note_on,0,0,4,,,,,,,,,,3,,64,101
55200,note_on,12,0,2,,,,,,,,,,1,,69,69
55200,note_on,0,0,2,,,,,,,,,,1,,81,69
55200,note_on,12,0,1,,,,,,,,,,0,,81,92
55200,note_on,6,0,5,,,,,,,,,,4,,69,105
55200,note_on,12,0,3,,,,,,,,,,2,,73,100
55200,note_on,0,0,4,,,,,,,,,,3,,73,100
55254,note_on,54,0,3,,,,,,,,,,2,,73,0
55254,note_on,54,0,1,,,,,,,,,,0,,81,0
55260,note_on,6,0,3,,,,,,,,,,2,,69,44
55260,note_on,6,0,1,,,,,,,,,,0,,69,35
55308,note_on,0,0,2,,,,,,,,,,1,,69,0
55308,note_on,108,0,2,,,,,,,,,,1,,81,0
55308,note_on,108,0,5,,,,,,,,,,4,,69,0
55308,note_on,108,0,6,,,,,,,,,,5,,33,0
55308,note_on,0,0,4,,,,,,,,,,3,,57,0
55308,note_on,0,0,4,,,,,,,,,,3,,64,0
55308,note_on,108,0,4,,,,,,,,,,3,,73,0
55314,note_on,54,0,3,,,,,,,,,,2,,69,0
55314,note_on,54,0,1,,,,,,,,,,0,,69,0
55320,note_on,6,0,3,,,,,,,,,,2,,68,49
55320,note_on,12,0,5,,,,,,,,,,4,,66,43
55320,note_on,0,0,1,,,,,,,,,,0,,69,44
55320,note_on,6,0,1,,,,,,,,,,0,,68,48
55320,note_on,12,0,6,,,,,,,,,,5,,42,59
55320,note_on,12,0,4,,,,,,,,,,3,,69,41
55347,note_on,27,0,3,,,,,,,,,,2,,68,0
55347,note_on,27,0,1,,,,,,,,,,0,,68,0
55350,note_on,3,0,3,,,,,,,,,,2,,69,51
55350,note_on,3,0,1,,,,,,,,,,0,,69,51
55377,note_on,27,0,3,,,,,,,,,,2,,69,0
55377,note_on,27,0,1,,,,,,,,,,0,,69,0
55380,note_on,3,0,3,,,,,,,,,,2,,71,51
55380,note_on,3,0,1,,,,,,,,,,0,,71,50
55407,note_on,27,0,3,,,,,,,,,,2,,71,0
55407,note_on,27,0,1,,,,,,,,,,0,,71,0
55410,note_on,3,0,1,,,,,,,,,,0,,73,52
55410,note_on,3,0,3,,,,,,,,,,2,,73,50
55428,note_on,108,0,6,,,,,,,,,,5,,42,0
55428,note_on,108,0,5,,,,,,,,,,4,,66,0
55437,note_on,27,0,3,,,,,,,,,,2,,73,0
55437,note_on,27,0,1,,,,,,,,,,0,,73,0
55440,note_on,3,0,1,,,,,,,,,,0,,74,55
55440,note_on,12,0,6,,,,,,,,,,5,,38,44
55440,note_on,12,0,5,,,,,,,,,,4,,62,42
55440,note_on,3,0,3,,,,,,,,,,2,,74,51
55494,note_on,54,0,3,,,,,,,,,,2,,74,0
55494,note_on,54,0,1,,,,,,,,,,0,,74,0
55500,note_on,6,0,1,,,,,,,,,,0,,71,44
55500,note_on,6,0,3,,,,,,,,,,2,,71,43
55536,note_on,216,0,4,,,,,,,,,,3,,69,0
55536,note_on,36,0,1,,,,,,,,,,0,,69,0
55548,note_on,108,0,6,,,,,,,,,,5,,38,0
55548,note_on,108,0,5,,,,,,,,,,4,,62,0
55554,note_on,18,0,1,,,,,,,,,,0,,71,0
55554,note_on,54,0,3,,,,,,,,,,2,,71,0
55560,note_on,6,0,1,,,,,,,,,,0,,70,48
55560,note_on,0,0,1,,,,,,,,,,0,,68,44
55560,note_on,6,0,3,,,,,,,,,,2,,70,50
55560,note_on,24,0,4,,,,,,,,,,3,,68,46
55560,note_on,12,0,5,,,,,,,,,,4,,64,55
55560,note_on,12,0,6,,,,,,,,,,5,,40,54
55587,note_on,27,0,3,,,,,,,,,,2,,70,0
55587,note_on,27,0,1,,,,,,,,,,0,,70,0
55590,note_on,3,0,3,,,,,,,,,,2,,71,48
55590,note_on,3,0,1,,,,,,,,,,0,,71,50
55614,note_on,54,0,5,,,,,,,,,,4,,64,0
55614,note_on,54,0,6,,,,,,,,,,5,,40,0
55617,note_on,27,0,1,,,,,,,,,,0,,71,0
55617,note_on,27,0,3,,,,,,,,,,2,,71,0
55620,note_on,3,0,3,,,,,,,,,,2,,73,52
55620,note_on,6,0,6,,,,,,,,,,5,,38,43
55620,note_on,3,0,1,,,,,,,,,,0,,73,49
55620,note_on,6,0,5,,,,,,,,,,4,,62,45
55647,note_on,27,0,1,,,,,,,,,,0,,73,0
55647,note_on,27,0,3,,,,,,,,,,2,,73,0
55650,note_on,3,0,1,,,,,,,,,,0,,74,51
55650,note_on,3,0,3,,,,,,,,,,2,,74,48
55668,note_on,108,0,4,,,,,,,,,,3,,68,0
55668,note_on,18,0,1,,,,,,,,,,0,,68,0
55674,note_on,54,0,5,,,,,,,,,,4,,62,0
55674,note_on,54,0,6,,,,,,,,,,5,,38,0
55677,note_on,27,0,3,,,,,,,,,,2,,74,0
55677,note_on,9,0,1,,,,,,,,,,0,,74,0
55680,note_on,0,0,2,,,,,,,,,,1,,81,91
55680,note_on,6,0,6,,,,,,,,,,5,,37,94
55680,note_on,372,0,2,,,,,,,,,,1,,69,89
55680,note_on,3,0,3,,,,,,,,,,2,,76,104
55680,note_on,0,0,1,,,,,,,,,,0,,69,100
55680,note_on,6,0,5,,,,,,,,,,4,,61,92
55680,note_on,12,0,4,,,,,,,,,,3,,69,102
55680,note_on,3,0,1,,,,,,,,,,0,,76,105
55734,note_on,54,0,5,,,,,,,,,,4,,61,0
55734,note_on,54,0,6,,,,,,,,,,5,,37,0
55734,note_on,54,0,4,,,,,,,,,,3,,69,0
55734,note_on,54,0,1,,,,,,,,,,0,,76,0
55734,note_on,54,0,3,,,,,,,,,,2,,76,0
55740,note_on,6,0,5,,,,,,,,,,4,,69,114
55740,note_on,6,0,4,,,,,,,,,,3,,76,114
55740,note_on,6,0,1,,,,,,,,,,0,,76,95
55740,note_on,6,0,3,,,,,,,,,,2,,76,97
55740,note_on,6,0,6,,,,,,,,,,5,,37,96
55788,note_on,48,0,1,,,,,,,,,,0,,69,0
55794,note_on,54,0,6,,,,,,,,,,5,,37,0
55794,note_on,6,0,1,,,,,,,,,,0,,76,0
55794,note_on,54,0,5,,,,,,,,,,4,,69,0
55794,note_on,54,0,3,,,,,,,,,,2,,76,0
55794,note_on,54,0,4,,,,,,,,,,3,,76,0
55800,note_on,6,0,3,,,,,,,,,,2,,76,98
55800,note_on,6,0,6,,,,,,,,,,5,,37,100
55800,note_on,6,0,5,,,,,,,,,,4,,69,100
55800,note_on,0,0,1,,,,,,,,,,0,,69,95
55800,note_on,6,0,1,,,,,,,,,,0,,76,101
55800,note_on,6,0,4,,,,,,,,,,3,,76,102
55813,note_on,13,0,1,,,,,,,,,,0,,76,0
55813,note_on,13,0,4,,,,,,,,,,3,,76,0
55813,note_on,13,0,3,,,,,,,,,,2,,76,0
55815,note_on,2,0,4,,,,,,,,,,3,,78,100
55815,note_on,2,0,3,,,,,,,,,,2,,78,102
55815,note_on,2,0,1,,,,,,,,,,0,,78,100
55828,note_on,13,0,4,,,,,,,,,,3,,78,0
55828,note_on,13,0,3,,,,,,,,,,2,,78,0
55828,note_on,13,0,1,,,,,,,,,,0,,78,0
55830,note_on,2,0,4,,,,,,,,,,3,,76,91
55830,note_on,2,0,3,,,,,,,,,,2,,76,91
55830,note_on,2,0,1,,,,,,,,,,0,,76,91
55843,note_on,13,0,4,,,,,,,,,,3,,76,0
55843,note_on,13,0,1,,,,,,,,,,0,,76,0
55843,note_on,13,0,3,,,,,,,,,,2,,76,0
55845,note_on,2,0,3,,,,,,,,,,2,,78,103
55845,note_on,2,0,1,,,,,,,,,,0,,78,99
55845,note_on,2,0,4,,,,,,,,,,3,,78,101
55854,note_on,54,0,6,,,,,,,,,,5,,37,0
55854,note_on,54,0,5,,,,,,,,,,4,,69,0
55858,note_on,13,0,1,,,,,,,,,,0,,78,0
55858,note_on,13,0,4,,,,,,,,,,3,,78,0
55858,note_on,13,0,3,,,,,,,,,,2,,78,0
55860,note_on,2,0,3,,,,,,,,,,2,,76,88
55860,note_on,6,0,5,,,,,,,,,,4,,69,95
55860,note_on,2,0,4,,,,,,,,,,3,,76,88
55860,note_on,2,0,1,,,,,,,,,,0,,76,89
55860,note_on,6,0,6,,,,,,,,,,5,,37,97
55873,note_on,13,0,4,,,,,,,,,,3,,76,0
55873,note_on,13,0,3,,,,,,,,,,2,,76,0
55873,note_on,13,0,1,,,,,,,,,,0,,76,0
55875,note_on,2,0,3,,,,,,,,,,2,,78,101
55875,note_on,2,0,1,,,,,,,,,,0,,78,102
55875,note_on,2,0,4,,,,,,,,,,3,,78,103
55888,note_on,13,0,4,,,,,,,,,,3,,78,0
55888,note_on,13,0,3,,,,,,,,,,2,,78,0
55888,note_on,13,0,1,,,,,,,,,,0,,78,0
55890,note_on,2,0,3,,,,,,,,,,2,,74,86
55890,note_on,2,0,4,,,,,,,,,,3,,74,87
55890,note_on,2,0,1,,,,,,,,,,0,,74,87
55903,note_on,13,0,1,,,,,,,,,,0,,74,0
55903,note_on,13,0,3,,,,,,,,,,2,,74,0
55903,note_on,13,0,4,,,,,,,,,,3,,74,0
55905,note_on,2,0,4,,,,,,,,,,3,,76,102
55905,note_on,2,0,1,,,,,,,,,,0,,76,100
55905,note_on,2,0,3,,,,,,,,,,2,,76,101
55914,note_on,54,0,6,,,,,,,,,,5,,37,0
55914,note_on,54,0,5,,,,,,,,,,4,,69,0
55918,note_on,13,0,4,,,,,,,,,,3,,76,0
55918,note_on,13,0,1,,,,,,,,,,0,,76,0
55918,note_on,13,0,3,,,,,,,,,,2,,76,0
55920,note_on,2,0,1,,,,,,,,,,0,,78,104
55920,note_on,6,0,6,,,,,,,,,,5,,38,101
55920,note_on,6,0,5,,,,,,,,,,4,,69,101
55920,note_on,2,0,4,,,,,,,,,,3,,78,105
55920,note_on,2,0,3,,,,,,,,,,2,,78,106
55962,note_on,42,0,1,,,,,,,,,,0,,69,0
55974,note_on,12,0,1,,,,,,,,,,0,,78,0
55974,note_on,54,0,3,,,,,,,,,,2,,78,0
55974,note_on,54,0,4,,,,,,,,,,3,,78,0
55974,note_on,54,0,6,,,,,,,,,,5,,38,0
55974,note_on,54,0,5,,,,,,,,,,4,,69,0
55980,note_on,6,0,3,,,,,,,,,,2,,74,85
55980,note_on,6,0,1,,,,,,,,,,0,,74,88
55980,note_on,0,0,1,,,,,,,,,,0,,74,108
55980,note_on,6,0,6,,,,,,,,,,5,,38,95
55980,note_on,6,0,4,,,,,,,,,,3,,74,85
55980,note_on,6,0,5,,,,,,,,,,4,,66,86
56034,note_on,54,0,6,,,,,,,,,,5,,38,0
56034,note_on,54,0,5,,,,,,,,,,4,,66,0
56034,note_on,0,0,1,,,,,,,,,,0,,74,0
56034,note_on,54,0,3,,,,,,,,,,2,,74,0
56034,note_on,54,0,4,,,,,,,,,,3,,74,0
56034,note_on,54,0,1,,,,,,,,,,0,,74,0
56040,note_on,6,0,6,,,,,,,,,,5,,38,99
56040,note_on,6,0,3,,,,,,,,,,2,,71,91
56040,note_on,0,0,1,,,,,,,,,,0,,71,93
56040,note_on,6,0,5,,,,,,,,,,4,,66,95
56040,note_on,6,0,4,,,,,,,,,,3,,71,88
56040,note_on,6,0,1,,,,,,,,,,0,,71,91
56094,note_on,54,0,6,,,,,,,,,,5,,38,0
56094,note_on,54,0,3,,,,,,,,,,2,,71,0
56094,note_on,54,0,1,,,,,,,,,,0,,71,0
56094,note_on,0,0,1,,,,,,,,,,0,,71,0
56094,note_on,54,0,5,,,,,,,,,,4,,66,0
56094,note_on,54,0,4,,,,,,,,,,3,,71,0
56100,note_on,6,0,5,,,,,,,,,,4,,66,96
56100,note_on,6,0,6,,,,,,,,,,5,,38,96
56100,note_on,6,0,1,,,,,,,,,,0,,66,79
56100,note_on,0,0,1,,,,,,,,,,0,,66,81
56100,note_on,6,0,3,,,,,,,,,,2,,66,83
56100,note_on,6,0,4,,,,,,,,,,3,,66,82
56136,note_on,0,0,2,,,,,,,,,,1,,69,0
56136,note_on,456,0,2,,,,,,,,,,1,,81,0
56154,note_on,54,0,3,,,,,,,,,,2,,66,0
56154,note_on,54,0,4,,,,,,,,,,3,,66,0
56154,note_on,54,0,6,,,,,,,,,,5,,38,0
56154,note_on,0,0,1,,,,,,,,,,0,,66,0
56154,note_on,54,0,1,,,,,,,,,,0,,66,0
56154,note_on,54,0,5,,,,,,,,,,4,,66,0
56160,note_on,6,0,5,,,,,,,,,,4,,64,94
56160,note_on,0,0,2,,,,,,,,,,1,,81,97
56160,note_on,0,0,1,,,,,,,,,,0,,64,88
56160,note_on,6,0,1,,,,,,,,,,0,,64,89
56160,note_on,6,0,3,,,,,,,,,,2,,64,90
56160,note_on,24,0,2,,,,,,,,,,1,,76,96
56160,note_on,6,0,6,,,,,,,,,,5,,40,105
56160,note_on,6,0,4,,,,,,,,,,3,,64,92
56214,note_on,54,0,6,,,,,,,,,,5,,40,0
56214,note_on,54,0,5,,,,,,,,,,4,,64,0
56220,note_on,6,0,5,,,,,,,,,,4,,64,95
56220,note_on,6,0,6,,,,,,,,,,5,,40,96
56268,note_on,108,0,1,,,,,,,,,,0,,64,0
56268,note_on,0,0,1,,,,,,,,,,0,,64,0
56274,note_on,54,0,5,,,,,,,,,,4,,64,0
56274,note_on,54,0,6,,,,,,,,,,5,,40,0
56280,note_on,0,0,1,,,,,,,,,,0,,69,105
56280,note_on,6,0,5,,,,,,,,,,4,,69,112
56280,note_on,12,0,1,,,,,,,,,,0,,76,121
56280,note_on,6,0,6,,,,,,,,,,5,,40,99
56307,note_on,27,0,1,,,,,,,,,,0,,76,0
56310,note_on,3,0,1,,,,,,,,,,0,,73,93
56334,note_on,54,0,6,,,,,,,,,,5,,40,0
56334,note_on,54,0,5,,,,,,,,,,4,,69,0
56337,note_on,27,0,1,,,,,,,,,,0,,73,0
56340,note_on,6,0,5,,,,,,,,,,4,,69,99
56340,note_on,3,0,1,,,,,,,,,,0,,71,89
56340,note_on,6,0,6,,,,,,,,,,5,,40,95
56367,note_on,27,0,1,,,,,,,,,,0,,71,0
56370,note_on,3,0,1,,,,,,,,,,0,,69,88
56376,note_on,216,0,3,,,,,,,,,,2,,64,0
56376,note_on,216,0,4,,,,,,,,,,3,,64,0
56394,note_on,54,0,5,,,,,,,,,,4,,69,0
56394,note_on,54,0,6,,,,,,,,,,5,,40,0
56397,note_on,27,0,1,,,,,,,,,,0,,69,0
56400,note_on,6,0,6,,,,,,,,,,5,,40,98
56400,note_on,24,0,3,,,,,,,,,,2,,71,112
56400,note_on,6,0,5,,,,,,,,,,4,,69,99
56400,note_on,24,0,4,,,,,,,,,,3,,71,116
56400,note_on,3,0,1,,,,,,,,,,0,,71,106
56413,note_on,13,0,3,,,,,,,,,,2,,71,0
56413,note_on,13,0,4,,,,,,,,,,3,,71,0
56413,note_on,13,0,1,,,,,,,,,,0,,71,0
56415,note_on,2,0,4,,,,,,,,,,3,,73,103
56415,note_on,2,0,3,,,,,,,,,,2,,73,104
56415,note_on,2,0,1,,,,,,,,,,0,,73,104
56428,note_on,13,0,3,,,,,,,,,,2,,73,0
56428,note_on,13,0,1,,,,,,,,,,0,,73,0
56428,note_on,13,0,4,,,,,,,,,,3,,73,0
56430,note_on,2,0,4,,,,,,,,,,3,,71,90
56430,note_on,2,0,3,,,,,,,,,,2,,71,91
56430,note_on,2,0,1,,,,,,,,,,0,,71,91
56443,note_on,13,0,4,,,,,,,,,,3,,71,0
56443,note_on,13,0,3,,,,,,,,,,2,,71,0
56443,note_on,13,0,1,,,,,,,,,,0,,71,0
56445,note_on,2,0,3,,,,,,,,,,2,,73,102
56445,note_on,2,0,1,,,,,,,,,,0,,73,101
56445,note_on,2,0,4,,,,,,,,,,3,,73,102
56454,note_on,54,0,5,,,,,,,,,,4,,69,0
56454,note_on,54,0,6,,,,,,,,,,5,,40,0
56458,note_on,13,0,3,,,,,,,,,,2,,73,0
56458,note_on,13,0,1,,,,,,,,,,0,,73,0
56458,note_on,13,0,4,,,,,,,,,,3,,73,0
56460,note_on,2,0,1,,,,,,,,,,0,,71,91
56460,note_on,2,0,4,,,,,,,,,,3,,71,89
56460,note_on,6,0,5,,,,,,,,,,4,,69,96
56460,note_on,2,0,3,,,,,,,,,,2,,71,88
56460,note_on,6,0,6,,,,,,,,,,5,,40,94
56473,note_on,13,0,4,,,,,,,,,,3,,71,0
56473,note_on,13,0,1,,,,,,,,,,0,,71,0
56473,note_on,13,0,3,,,,,,,,,,2,,71,0
56475,note_on,2,0,4,,,,,,,,,,3,,73,99
56475,note_on,2,0,1,,,,,,,,,,0,,73,101
56475,note_on,2,0,3,,,,,,,,,,2,,73,102
56488,note_on,13,0,1,,,,,,,,,,0,,73,0
56488,note_on,13,0,4,,,,,,,,,,3,,73,0
56488,note_on,13,0,3,,,,,,,,,,2,,73,0
56490,note_on,2,0,1,,,,,,,,,,0,,71,89
56490,note_on,2,0,3,,,,,,,,,,2,,71,89
56490,note_on,2,0,4,,,,,,,,,,3,,71,91
56496,note_on,0,0,2,,,,,,,,,,1,,76,0
56496,note_on,336,0,2,,,,,,,,,,1,,81,0
56496,note_on,6,0,1,,,,,,,,,,0,,69,0
56503,note_on,13,0,4,,,,,,,,,,3,,71,0
56503,note_on,7,0,1,,,,,,,,,,0,,71,0
56503,note_on,13,0,3,,,,,,,,,,2,,71,0
56505,note_on,2,0,4,,,,,,,,,,3,,73,99
56505,note_on,2,0,1,,,,,,,,,,0,,73,101
56505,note_on,2,0,3,,,,,,,,,,2,,73,100
56514,note_on,54,0,5,,,,,,,,,,4,,69,0
56514,note_on,54,0,6,,,,,,,,,,5,,40,0
56518,note_on,13,0,1,,,,,,,,,,0,,73,0
56518,note_on,13,0,3,,,,,,,,,,2,,73,0
56518,note_on,13,0,4,,,,,,,,,,3,,73,0
56520,note_on,2,0,3,,,,,,,,,,2,,71,93
56520,note_on,6,0,5,,,,,,,,,,4,,68,93
56520,note_on,6,0,6,,,,,,,,,,5,,40,98
56520,note_on,2,0,1,,,,,,,,,,0,,71,93
56520,note_on,0,0,1,,,,,,,,,,0,,68,93
56520,note_on,2,0,4,,,,,,,,,,3,,71,93
56520,note_on,24,0,2,,,,,,,,,,1,,76,92
56520,note_on,0,0,2,,,,,,,,,,1,,80,92
56533,note_on,13,0,3,,,,,,,,,,2,,71,0
56533,note_on,13,0,1,,,,,,,,,,0,,71,0
56533,note_on,13,0,4,,,,,,,,,,3,,71,0
56535,note_on,2,0,3,,,,,,,,,,2,,73,99
56535,note_on,2,0,1,,,,,,,,,,0,,73,101
56535,note_on,2,0,4,,,,,,,,,,3,,73,100
56548,note_on,13,0,4,,,,,,,,,,3,,73,0
56548,note_on,13,0,1,,,,,,,,,,0,,73,0
56548,note_on,13,0,3,,,,,,,,,,2,,73,0
56550,note_on,2,0,4,,,,,,,,,,3,,71,92
56550,note_on,2,0,3,,,,,,,,,,2,,71,90
56550,note_on,2,0,1,,,,,,,,,,0,,71,89
56563,note_on,13,0,4,,,,,,,,,,3,,71,0
56563,note_on,13,0,1,,,,,,,,,,0,,71,0
56563,note_on,13,0,3,,,,,,,,,,2,,71,0
56565,note_on,2,0,1,,,,,,,,,,0,,73,102
56565,note_on,2,0,4,,,,,,,,,,3,,73,103
56565,note_on,2,0,3,,,,,,,,,,2,,73,100
56574,note_on,54,0,5,,,,,,,,,,4,,68,0
56574,note_on,54,0,6,,,,,,,,,,5,,40,0
56578,note_on,13,0,4,,,,,,,,,,3,,73,0
56578,note_on,13,0,3,,,,,,,,,,2,,73,0
56578,note_on,13,0,1,,,,,,,,,,0,,73,0
56580,note_on,2,0,4,,,,,,,,,,3,,69,88
56580,note_on,6,0,6,,,,,,,,,,5,,40,94
56580,note_on,2,0,3,,,,,,,,,,2,,69,86
56580,note_on,2,0,1,,,,,,,,,,0,,69,85
56580,note_on,6,0,5,,,,,,,,,,4,,68,96
56607,note_on,27,0,1,,,,,,,,,,0,,69,0
56607,note_on,27,0,3,,,,,,,,,,2,,69,0
56607,note_on,27,0,4,,,,,,,,,,3,,69,0
56610,note_on,3,0,3,,,,,,,,,,2,,71,99
56610,note_on,3,0,1,,,,,,,,,,0,,71,99
56610,note_on,3,0,4,,,,,,,,,,3,,71,100
56628,note_on,108,0,2,,,,,,,,,,1,,80,0
56628,note_on,0,0,2,,,,,,,,,,1,,76,0
56628,note_on,18,0,1,,,,,,,,,,0,,68,0
56634,note_on,54,0,5,,,,,,,,,,4,,68,0
56634,note_on,54,0,6,,,,,,,,,,5,,40,0
56637,note_on,27,0,4,,,,,,,,,,3,,71,0
56637,note_on,27,0,3,,,,,,,,,,2,,71,0
56637,note_on,9,0,1,,,,,,,,,,0,,71,0
56640,note_on,3,0,4,,,,,,,,,,3,,69,92
56640,note_on,12,0,2,,,,,,,,,,1,,69,67
56640,note_on,0,0,2,,,,,,,,,,1,,81,70
56640,note_on,6,0,5,,,,,,,,,,4,,69,104
56640,note_on,6,0,6,,,,,,,,,,5,,33,83
56640,note_on,0,0,1,,,,,,,,,,0,,69,101
56640,note_on,3,0,3,,,,,,,,,,2,,73,104
56640,note_on,3,0,1,,,,,,,,,,0,,73,107
56694,note_on,54,0,3,,,,,,,,,,2,,73,0
56694,note_on,54,0,1,,,,,,,,,,0,,73,0
56700,note_on,6,0,3,,,,,,,,,,2,,69,44
56700,note_on,6,0,1,,,,,,,,,,0,,69,43
56748,note_on,108,0,5,,,,,,,,,,4,,69,0
56748,note_on,0,0,2,,,,,,,,,,1,,69,0
56748,note_on,108,0,2,,,,,,,,,,1,,81,0
56748,note_on,48,0,1,,,,,,,,,,0,,69,0
56748,note_on,108,0,6,,,,,,,,,,5,,33,0
56748,note_on,108,0,4,,,,,,,,,,3,,69,0
56754,note_on,6,0,1,,,,,,,,,,0,,69,0
56754,note_on,54,0,3,,,,,,,,,,2,,69,0
56760,note_on,0,0,1,,,,,,,,,,0,,69,47
56760,note_on,6,0,1,,,,,,,,,,0,,68,46
56760,note_on,12,0,4,,,,,,,,,,3,,69,46
56760,note_on,12,0,5,,,,,,,,,,4,,66,43
56760,note_on,12,0,6,,,,,,,,,,5,,42,56
56760,note_on,6,0,3,,,,,,,,,,2,,68,48
56787,note_on,27,0,1,,,,,,,,,,0,,68,0
56787,note_on,27,0,3,,,,,,,,,,2,,68,0
56790,note_on,3,0,1,,,,,,,,,,0,,69,48
56790,note_on,3,0,3,,,,,,,,,,2,,69,51
56817,note_on,27,0,1,,,,,,,,,,0,,69,0
56817,note_on,27,0,3,,,,,,,,,,2,,69,0
56820,note_on,3,0,1,,,,,,,,,,0,,71,49
56820,note_on,3,0,3,,,,,,,,,,2,,71,50
56847,note_on,27,0,3,,,,,,,,,,2,,71,0
56847,note_on,27,0,1,,,,,,,,,,0,,71,0
56850,note_on,3,0,3,,,,,,,,,,2,,73,49
56850,note_on,3,0,1,,,,,,,,,,0,,73,53
56868,note_on,108,0,6,,,,,,,,,,5,,42,0
56868,note_on,108,0,5,,,,,,,,,,4,,66,0
56877,note_on,27,0,3,,,,,,,,,,2,,73,0
56877,note_on,27,0,1,,,,,,,,,,0,,73,0
56880,note_on,3,0,1,,,,,,,,,,0,,74,51
56880,note_on,3,0,3,,,,,,,,,,2,,74,54
56880,note_on,12,0,6,,,,,,,,,,5,,38,46
56880,note_on,12,0,5,,,,,,,,,,4,,62,41
56934,note_on,54,0,1,,,,,,,,,,0,,74,0
56934,note_on,54,0,3,,,,,,,,,,2,,74,0
56940,note_on,6,0,3,,,,,,,,,,2,,71,45
56940,note_on,6,0,1,,,,,,,,,,0,,71,43
56976,note_on,216,0,4,,,,,,,,,,3,,69,0
56976,note_on,36,0,1,,,,,,,,,,0,,69,0
56988,note_on,108,0,6,,,,,,,,,,5,,38,0
56988,note_on,108,0,5,,,,,,,,,,4,,62,0
56994,note_on,54,0,3,,,,,,,,,,2,,71,0
56994,note_on,18,0,1,,,,,,,,,,0,,71,0
57000,note_on,24,0,4,,,,,,,,,,3,,68,43
57000,note_on,6,0,3,,,,,,,,,,2,,70,49
57000,note_on,6,0,1,,,,,,,,,,0,,70,46
57000,note_on,12,0,6,,,,,,,,,,5,,40,51
57000,note_on,12,0,5,,,,,,,,,,4,,64,54
57000,note_on,0,0,1,,,,,,,,,,0,,68,45
57027,note_on,27,0,3,,,,,,,,,,2,,70,0
57027,note_on,27,0,1,,,,,,,,,,0,,70,0
57030,note_on,3,0,1,,,,,,,,,,0,,71,48
57030,note_on,3,0,3,,,,,,,,,,2,,71,49
57054,note_on,54,0,5,,,,,,,,,,4,,64,0
57054,note_on,54,0,6,,,,,,,,,,5,,40,0
57057,note_on,27,0,1,,,,,,,,,,0,,71,0
57057,note_on,27,0,3,,,,,,,,,,2,,71,0
57060,note_on,6,0,6,,,,,,,,,,5,,38,46
57060,note_on,3,0,3,,,,,,,,,,2,,73,52
57060,note_on,6,0,5,,,,,,,,,,4,,64,46
57060,note_on,3,0,1,,,,,,,,,,0,,73,49
57087,note_on,27,0,1,,,,,,,,,,0,,73,0
57087,note_on,27,0,3,,,,,,,,,,2,,73,0
57090,note_on,3,0,1,,,,,,,,,,0,,74,48
57090,note_on,3,0,3,,,,,,,,,,2,,74,48
57108,note_on,18,0,1,,,,,,,,,,0,,68,0
57108,note_on,108,0,4,,,,,,,,,,3,,68,0
57114,note_on,54,0,5,,,,,,,,,,4,,64,0
57114,note_on,54,0,6,,,,,,,,,,5,,38,0
57117,note_on,9,0,1,,,,,,,,,,0,,74,0
57117,note_on,27,0,3,,,,,,,,,,2,,74,0
57120,note_on,0,0,2,,,,,,,,,,1,,69,89
57120,note_on,372,0,2,,,,,,,,,,1,,76,91
57120,note_on,12,0,4,,,,,,,,,,3,,69,101
57120,note_on,6,0,5,,,,,,,,,,4,,61,91
57120,note_on,3,0,1,,,,,,,,,,0,,76,104
57120,note_on,0,0,1,,,,,,,,,,0,,69,103
57120,note_on,6,0,6,,,,,,,,,,5,,37,92
57120,note_on,3,0,3,,,,,,,,,,2,,76,104
57174,note_on,54,0,3,,,,,,,,,,2,,76,0
57174,note_on,54,0,5,,,,,,,,,,4,,61,0
57174,note_on,54,0,1,,,,,,,,,,0,,76,0
57174,note_on,54,0,6,,,,,,,,,,5,,37,0
57174,note_on,54,0,4,,,,,,,,,,3,,69,0
57180,note_on,6,0,1,,,,,,,,,,0,,76,95
57180,note_on,6,0,6,,,,,,,,,,5,,37,96
57180,note_on,6,0,4,,,,,,,,,,3,,76,112
57180,note_on,6,0,3,,,,,,,,,,2,,76,95
57180,note_on,6,0,5,,,,,,,,,,4,,69,111
57228,note_on,48,0,1,,,,,,,,,,0,,69,0
57234,note_on,54,0,3,,,,,,,,,,2,,76,0
57234,note_on,6,0,1,,,,,,,,,,0,,76,0
57234,note_on,54,0,5,,,,,,,,,,4,,69,0
57234,note_on,54,0,4,,,,,,,,,,3,,76,0
57234,note_on,54,0,6,,,,,,,,,,5,,37,0
57240,note_on,6,0,6,,,,,,,,,,5,,37,98
57240,note_on,6,0,3,,,,,,,,,,2,,76,99
57240,note_on,6,0,4,,,,,,,,,,3,,76,101
57240,note_on,6,0,5,,,,,,,,,,4,,69,101
57240,note_on,6,0,1,,,,,,,,,,0,,76,100
57240,note_on,0,0,1,,,,,,,,,,0,,69,94
57253,note_on,13,0,3,,,,,,,,,,2,,76,0
57253,note_on,13,0,4,,,,,,,,,,3,,76,0
57253,note_on,13,0,1,,,,,,,,,,0,,76,0
57255,note_on,2,0,3,,,,,,,,,,2,,78,101
57255,note_on,2,0,4,,,,,,,,,,3,,78,103
57255,note_on,2,0,1,,,,,,,,,,0,,78,102
57268,note_on,13,0,1,,,,,,,,,,0,,78,0
57268,note_on,13,0,4,,,,,,,,,,3,,78,0
57268,note_on,13,0,3,,,,,,,,,,2,,78,0
57270,note_on,2,0,3,,,,,,,,,,2,,76,92
57270,note_on,2,0,4,,,,,,,,,,3,,76,89
57270,note_on,2,0,1,,,,,,,,,,0,,76,91
57283,note_on,13,0,3,,,,,,,,,,2,,76,0
57283,note_on,13,0,4,,,,,,,,,,3,,76,0
57283,note_on,13,0,1,,,,,,,,,,0,,76,0
57285,note_on,2,0,4,,,,,,,,,,3,,78,101
57285,note_on,2,0,1,,,,,,,,,,0,,78,100
57285,note_on,2,0,3,,,,,,,,,,2,,78,100
57294,note_on,54,0,5,,,,,,,,,,4,,69,0
57294,note_on,54,0,6,,,,,,,,,,5,,37,0
57298,note_on,13,0,4,,,,,,,,,,3,,78,0
57298,note_on,13,0,1,,,,,,,,,,0,,78,0
57298,note_on,13,0,3,,,,,,,,,,2,,78,0
57300,note_on,2,0,4,,,,,,,,,,3,,76,89
57300,note_on,2,0,1,,,,,,,,,,0,,76,91
57300,note_on,6,0,5,,,,,,,,,,4,,69,95
57300,note_on,6,0,6,,,,,,,,,,5,,37,94
57300,note_on,2,0,3,,,,,,,,,,2,,76,92
57313,note_on,13,0,1,,,,,,,,,,0,,76,0
57313,note_on,13,0,4,,,,,,,,,,3,,76,0
57313,note_on,13,0,3,,,,,,,,,,2,,76,0
57315,note_on,2,0,4,,,,,,,,,,3,,78,101
57315,note_on,2,0,3,,,,,,,,,,2,,78,101
57315,note_on,2,0,1,,,,,,,,,,0,,78,101
57328,note_on,13,0,3,,,,,,,,,,2,,78,0
57328,note_on,13,0,4,,,,,,,,,,3,,78,0
57328,note_on,13,0,1,,,,,,,,,,0,,78,0
57330,note_on,2,0,1,,,,,,,,,,0,,74,87
57330,note_on,2,0,3,,,,,,,,,,2,,74,88
57330,note_on,2,0,4,,,,,,,,,,3,,74,85
57336,note_on,0,0,2,,,,,,,,,,1,,76,0
57336,note_on,216,0,2,,,,,,,,,,1,,69,0
57343,note_on,13,0,1,,,,,,,,,,0,,74,0
57343,note_on,13,0,3,,,,,,,,,,2,,74,0
57343,note_on,13,0,4,,,,,,,,,,3,,74,0
57345,note_on,2,0,1,,,,,,,,,,0,,76,101
57345,note_on,2,0,4,,,,,,,,,,3,,76,100
57345,note_on,2,0,3,,,,,,,,,,2,,76,98
57354,note_on,54,0,6,,,,,,,,,,5,,37,0
57354,note_on,54,0,5,,,,,,,,,,4,,69,0
57358,note_on,13,0,4,,,,,,,,,,3,,76,0
57358,note_on,13,0,3,,,,,,,,,,2,,76,0
57358,note_on,13,0,1,,,,,,,,,,0,,76,0
57360,note_on,2,0,4,,,,,,,,,,3,,78,104
57360,note_on,6,0,6,,,,,,,,,,5,,38,102
57360,note_on,2,0,1,,,,,,,,,,0,,78,105
57360,note_on,6,0,5,,,,,,,,,,4,,69,98
57360,note_on,24,0,2,,,,,,,,,,1,,78,98
57360,note_on,0,0,2,,,,,,,,,,1,,69,99
57360,note_on,2,0,3,,,,,,,,,,2,,78,104
57402,note_on,42,0,1,,,,,,,,,,0,,69,0
57414,note_on,12,0,1,,,,,,,,,,0,,78,0
57414,note_on,54,0,4,,,,,,,,,,3,,78,0
57414,note_on,54,0,5,,,,,,,,,,4,,69,0
57414,note_on,54,0,6,,,,,,,,,,5,,38,0
57414,note_on,54,0,3,,,,,,,,,,2,,78,0
57414,note_on,54,0,2,,,,,,,,,,1,,69,0
57420,note_on,6,0,5,,,,,,,,,,4,,66,89
57420,note_on,6,0,1,,,,,,,,,,0,,74,86
57420,note_on,0,0,1,,,,,,,,,,0,,74,110
57420,note_on,6,0,6,,,,,,,,,,5,,38,95
57420,note_on,6,0,3,,,,,,,,,,2,,74,88
57420,note_on,6,0,2,,,,,,,,,,1,,69,98
57420,note_on,6,0,4,,,,,,,,,,3,,74,85
57468,note_on,48,0,2,,,,,,,,,,1,,78,0
57474,note_on,0,0,1,,,,,,,,,,0,,74,0
57474,note_on,54,0,1,,,,,,,,,,0,,74,0
57474,note_on,54,0,6,,,,,,,,,,5,,38,0
57474,note_on,6,0,2,,,,,,,,,,1,,69,0
57474,note_on,54,0,5,,,,,,,,,,4,,66,0
57474,note_on,54,0,3,,,,,,,,,,2,,74,0
57474,note_on,54,0,4,,,,,,,,,,3,,74,0
57480,note_on,6,0,4,,,,,,,,,,3,,71,90
57480,note_on,0,0,1,,,,,,,,,,0,,71,92
57480,note_on,6,0,1,,,,,,,,,,0,,71,90
57480,note_on,6,0,5,,,,,,,,,,4,,66,99
57480,note_on,6,0,3,,,,,,,,,,2,,71,90
57480,note_on,6,0,6,,,,,,,,,,5,,38,99
57480,note_on,6,0,2,,,,,,,,,,1,,81,105
57480,note_on,0,0,2,,,,,,,,,,1,,74,110
57534,note_on,54,0,4,,,,,,,,,,3,,71,0
57534,note_on,54,0,6,,,,,,,,,,5,,38,0
57534,note_on,54,0,3,,,,,,,,,,2,,71,0
57534,note_on,54,0,2,,,,,,,,,,1,,74,0
57534,note_on,54,0,5,,,,,,,,,,4,,66,0
57534,note_on,0,0,1,,,,,,,,,,0,,71,0
57534,note_on,54,0,1,,,,,,,,,,0,,71,0
57540,note_on,6,0,2,,,,,,,,,,1,,78,108
57540,note_on,6,0,5,,,,,,,,,,4,,66,97
57540,note_on,6,0,1,,,,,,,,,,0,,66,80
57540,note_on,6,0,3,,,,,,,,,,2,,66,82
57540,note_on,6,0,4,,,,,,,,,,3,,66,83
57540,note_on,0,0,1,,,,,,,,,,0,,66,83
57540,note_on,6,0,6,,,,,,,,,,5,,39,100
57588,note_on,48,0,2,,,,,,,,,,1,,81,0
57594,note_on,54,0,5,,,,,,,,,,4,,66,0
57594,note_on,54,0,3,,,,,,,,,,2,,66,0
57594,note_on,54,0,4,,,,,,,,,,3,,66,0
57594,note_on,0,0,1,,,,,,,,,,0,,66,0
57594,note_on,54,0,6,,,,,,,,,,5,,39,0
57594,note_on,54,0,1,,,,,,,,,,0,,66,0
57594,note_on,6,0,2,,,,,,,,,,1,,78,0
57600,note_on,6,0,4,,,,,,,,,,3,,64,90
57600,note_on,6,0,2,,,,,,,,,,1,,76,100
57600,note_on,0,0,2,,,,,,,,,,1,,81,101
57600,note_on,6,0,1,,,,,,,,,,0,,64,90
57600,note_on,0,0,1,,,,,,,,,,0,,64,88
57600,note_on,6,0,5,,,,,,,,,,4,,64,95
57600,note_on,6,0,3,,,,,,,,,,2,,64,91
57600,note_on,6,0,6,,,,,,,,,,5,,40,103
57654,note_on,54,0,5,,,,,,,,,,4,,64,0
57654,note_on,54,0,4,,,,,,,,,,3,,64,0
57654,note_on,54,0,6,,,,,,,,,,5,,40,0
57660,note_on,6,0,6,,,,,,,,,,5,,40,94
57660,note_on,6,0,5,,,,,,,,,,4,,64,96
57660,note_on,6,0,4,,,,,,,,,,3,,64,95
57708,note_on,108,0,1,,,,,,,,,,0,,64,0
57708,note_on,0,0,1,,,,,,,,,,0,,64,0
57714,note_on,54,0,5,,,,,,,,,,4,,64,0
57714,note_on,54,0,6,,,,,,,,,,5,,40,0
57714,note_on,54,0,4,,,,,,,,,,3,,64,0
57720,note_on,6,0,5,,,,,,,,,,4,,64,100
57720,note_on,6,0,4,,,,,,,,,,3,,69,110
57720,note_on,0,0,1,,,,,,,,,,0,,69,106
57720,note_on,6,0,6,,,,,,,,,,5,,40,101
57720,note_on,12,0,1,,,,,,,,,,0,,76,125
57747,note_on,27,0,1,,,,,,,,,,0,,76,0
57750,note_on,3,0,1,,,,,,,,,,0,,73,93
57774,note_on,54,0,6,,,,,,,,,,5,,40,0
57774,note_on,54,0,4,,,,,,,,,,3,,69,0
57774,note_on,54,0,5,,,,,,,,,,4,,64,0
57777,note_on,27,0,1,,,,,,,,,,0,,73,0
57780,note_on,6,0,5,,,,,,,,,,4,,64,95
57780,note_on,3,0,1,,,,,,,,,,0,,71,91
57780,note_on,6,0,6,,,,,,,,,,5,,40,97
57780,note_on,6,0,4,,,,,,,,,,3,,69,98
57807,note_on,27,0,1,,,,,,,,,,0,,71,0
57810,note_on,3,0,1,,,,,,,,,,0,,69,88
57816,note_on,216,0,3,,,,,,,,,,2,,64,0
57834,note_on,54,0,5,,,,,,,,,,4,,64,0
57834,note_on,54,0,6,,,,,,,,,,5,,40,0
57834,note_on,54,0,4,,,,,,,,,,3,,69,0
57837,note_on,27,0,1,,,,,,,,,,0,,69,0
57840,note_on,24,0,3,,,,,,,,,,2,,71,115
57840,note_on,3,0,1,,,,,,,,,,0,,71,102
57840,note_on,6,0,6,,,,,,,,,,5,,40,98
57840,note_on,6,0,5,,,,,,,,,,4,,64,100
57840,note_on,6,0,4,,,,,,,,,,3,,69,97
57853,note_on,13,0,1,,,,,,,,,,0,,71,0
57853,note_on,13,0,3,,,,,,,,,,2,,71,0
57855,note_on,2,0,1,,,,,,,,,,0,,73,100
57855,note_on,2,0,3,,,,,,,,,,2,,73,103
57868,note_on,13,0,1,,,,,,,,,,0,,73,0
57868,note_on,13,0,3,,,,,,,,,,2,,73,0
57870,note_on,2,0,1,,,,,,,,,,0,,71,90
57870,note_on,2,0,3,,,,,,,,,,2,,71,90
57883,note_on,13,0,1,,,,,,,,,,0,,71,0
57883,note_on,13,0,3,,,,,,,,,,2,,71,0
57885,note_on,2,0,1,,,,,,,,,,0,,73,99
57885,note_on,2,0,3,,,,,,,,,,2,,73,99
57894,note_on,54,0,5,,,,,,,,,,4,,64,0
57894,note_on,54,0,4,,,,,,,,,,3,,69,0
57894,note_on,54,0,6,,,,,,,,,,5,,40,0
57898,note_on,13,0,3,,,,,,,,,,2,,73,0
57898,note_on,13,0,1,,,,,,,,,,0,,73,0
57900,note_on,6,0,5,,,,,,,,,,4,,64,96
57900,note_on,2,0,3,,,,,,,,,,2,,71,92
57900,note_on,6,0,6,,,,,,,,,,5,,40,95
57900,note_on,2,0,1,,,,,,,,,,0,,71,91
57900,note_on,6,0,4,,,,,,,,,,3,,69,96
57913,note_on,13,0,1,,,,,,,,,,0,,71,0
57913,note_on,13,0,3,,,,,,,,,,2,,71,0
57915,note_on,2,0,3,,,,,,,,,,2,,73,101
57915,note_on,2,0,1,,,,,,,,,,0,,73,100
57928,note_on,13,0,3,,,,,,,,,,2,,73,0
57928,note_on,13,0,1,,,,,,,,,,0,,73,0
57930,note_on,2,0,3,,,,,,,,,,2,,71,92
57930,note_on,2,0,1,,,,,,,,,,0,,71,91
57936,note_on,6,0,1,,,,,,,,,,0,,69,0
57936,note_on,336,0,2,,,,,,,,,,1,,81,0
57936,note_on,0,0,2,,,,,,,,,,1,,76,0
57943,note_on,7,0,1,,,,,,,,,,0,,71,0
57943,note_on,13,0,3,,,,,,,,,,2,,71,0
57945,note_on,2,0,1,,,,,,,,,,0,,73,102
57945,note_on,2,0,3,,,,,,,,,,2,,73,103
57954,note_on,54,0,4,,,,,,,,,,3,,69,0
57954,note_on,54,0,6,,,,,,,,,,5,,40,0
57954,note_on,54,0,5,,,,,,,,,,4,,64,0
57958,note_on,13,0,1,,,,,,,,,,0,,73,0
57958,note_on,13,0,3,,,,,,,,,,2,,73,0
57960,note_on,2,0,1,,,,,,,,,,0,,71,93
57960,note_on,0,0,1,,,,,,,,,,0,,68,91
57960,note_on,6,0,5,,,,,,,,,,4,,62,91
57960,note_on,0,0,2,,,,,,,,,,1,,80,92
57960,note_on,6,0,4,,,,,,,,,,3,,68,94
57960,note_on,6,0,6,,,,,,,,,,5,,40,99
57960,note_on,24,0,2,,,,,,,,,,1,,76,91
57960,note_on,2,0,3,,,,,,,,,,2,,71,92
57973,note_on,13,0,3,,,,,,,,,,2,,71,0
57973,note_on,13,0,1,,,,,,,,,,0,,71,0
57975,note_on,2,0,3,,,,,,,,,,2,,73,103
57975,note_on,2,0,1,,,,,,,,,,0,,73,103
57988,note_on,13,0,3,,,,,,,,,,2,,73,0
57988,note_on,13,0,1,,,,,,,,,,0,,73,0
57990,note_on,2,0,3,,,,,,,,,,2,,71,92
57990,note_on,2,0,1,,,,,,,,,,0,,71,89
58003,note_on,13,0,3,,,,,,,,,,2,,71,0
58003,note_on,13,0,1,,,,,,,,,,0,,71,0
58005,note_on,2,0,1,,,,,,,,,,0,,73,100
58005,note_on,2,0,3,,,,,,,,,,2,,73,102
58014,note_on,54,0,5,,,,,,,,,,4,,62,0
58014,note_on,54,0,4,,,,,,,,,,3,,68,0
58014,note_on,54,0,6,,,,,,,,,,5,,40,0
58018,note_on,13,0,1,,,,,,,,,,0,,73,0
58018,note_on,13,0,3,,,,,,,,,,2,,73,0
58020,note_on,2,0,3,,,,,,,,,,2,,69,86
58020,note_on,6,0,6,,,,,,,,,,5,,40,97
58020,note_on,6,0,4,,,,,,,,,,3,,68,97
58020,note_on,2,0,1,,,,,,,,,,0,,69,84
58020,note_on,6,0,5,,,,,,,,,,4,,62,95
58047,note_on,27,0,3,,,,,,,,,,2,,69,0
58047,note_on,27,0,1,,,,,,,,,,0,,69,0
58050,note_on,3,0,1,,,,,,,,,,0,,71,102
58050,note_on,3,0,3,,,,,,,,,,2,,71,98
58068,note_on,108,0,2,,,,,,,,,,1,,80,0
58068,note_on,0,0,2,,,,,,,,,,1,,76,0
58068,note_on,18,0,1,,,,,,,,,,0,,68,0
58074,note_on,54,0,5,,,,,,,,,,4,,62,0
58074,note_on,54,0,6,,,,,,,,,,5,,40,0
58074,note_on,54,0,4,,,,,,,,,,3,,68,0
58077,note_on,27,0,3,,,,,,,,,,2,,71,0
58077,note_on,9,0,1,,,,,,,,,,0,,71,0
58080,note_on,6,0,6,,,,,,,,,,5,,45,110
58080,note_on,12,0,2,,,,,,,,,,1,,69,103
58080,note_on,3,0,1,,,,,,,,,,0,,69,92
58080,note_on,3,0,3,,,,,,,,,,2,,69,92
58080,note_on,6,0,5,,,,,,,,,,4,,61,93
58080,note_on,0,0,2,,,,,,,,,,1,,81,101
58080,note_on,6,0,4,,,,,,,,,,3,,69,104
58134,note_on,54,0,5,,,,,,,,,,4,,61,0
58134,note_on,54,0,1,,,,,,,,,,0,,69,0
58134,note_on,54,0,3,,,,,,,,,,2,,69,0
58134,note_on,54,0,6,,,,,,,,,,5,,45,0
58134,note_on,54,0,4,,,,,,,,,,3,,69,0
58140,note_on,6,0,3,,,,,,,,,,2,,57,67
58140,note_on,6,0,4,,,,,,,,,,3,,57,69
58140,note_on,6,0,6,,,,,,,,,,5,,33,72
58140,note_on,6,0,1,,,,,,,,,,0,,69,94
58140,note_on,6,0,5,,,,,,,,,,4,,57,82
58167,note_on,27,0,1,,,,,,,,,,0,,69,0
58167,note_on,27,0,3,,,,,,,,,,2,,57,0
58167,note_on,27,0,5,,,,,,,,,,4,,57,0
58167,note_on,27,0,6,,,,,,,,,,5,,33,0
58167,note_on,27,0,4,,,,,,,,,,3,,57,0
58170,note_on,3,0,3,,,,,,,,,,2,,59,96
58170,note_on,3,0,6,,,,,,,,,,5,,35,96
58170,note_on,3,0,4,,,,,,,,,,3,,59,96
58170,note_on,3,0,1,,,,,,,,,,0,,71,103
58170,note_on,3,0,5,,,,,,,,,,4,,59,99
58188,note_on,0,0,2,,,,,,,,,,1,,69,0
58188,note_on,108,0,2,,,,,,,,,,1,,81,0
58197,note_on,27,0,4,,,,,,,,,,3,,59,0
58197,note_on,27,0,1,,,,,,,,,,0,,71,0
58197,note_on,27,0,6,,,,,,,,,,5,,35,0
58197,note_on,27,0,5,,,,,,,,,,4,,59,0
58197,note_on,27,0,3,,,,,,,,,,2,,59,0
58200,note_on,3,0,5,,,,,,,,,,4,,61,106
58200,note_on,3,0,3,,,,,,,,,,2,,61,107
58200,note_on,3,0,6,,,,,,,,,,5,,37,106
58200,note_on,3,0,4,,,,,,,,,,3,,61,107
58200,note_on,3,0,1,,,,,,,,,,0,,73,105
58254,note_on,54,0,4,,,,,,,,,,3,,61,0
58254,note_on,54,0,1,,,,,,,,,,0,,73,0
58254,note_on,54,0,3,,,,,,,,,,2,,61,0
58254,note_on,54,0,6,,,,,,,,,,5,,37,0
58254,note_on,54,0,5,,,,,,,,,,4,,61,0
58260,note_on,6,0,6,,,,,,,,,,5,,38,99
58260,note_on,6,0,1,,,,,,,,,,0,,74,100
58260,note_on,6,0,3,,,,,,,,,,2,,62,99
58260,note_on,6,0,5,,,,,,,,,,4,,62,101
58260,note_on,6,0,4,,,,,,,,,,3,,62,100
58314,note_on,54,0,4,,,,,,,,,,3,,62,0
58314,note_on,54,0,3,,,,,,,,,,2,,62,0
58314,note_on,54,0,5,,,,,,,,,,4,,62,0
58314,note_on,54,0,6,,,,,,,,,,5,,38,0
58314,note_on,54,0,1,,,,,,,,,,0,,74,0
58320,note_on,6,0,1,,,,,,,,,,0,,76,101
58320,note_on,6,0,3,,,,,,,,,,2,,64,103
58320,note_on,6,0,4,,,,,,,,,,3,,64,103
58320,note_on,6,0,6,,,,,,,,,,5,,40,101
58320,note_on,6,0,5,,,,,,,,,,4,,64,104
58428,note_on,108,0,1,,,,,,,,,,0,,76,0
58428,note_on,108,0,3,,,,,,,,,,2,,64,0
58428,note_on,108,0,5,,,,,,,,,,4,,64,0
58428,note_on,108,0,4,,,,,,,,,,3,,64,0
58428,note_on,108,0,6,,,,,,,,,,5,,40,0
58440,note_on,0,0,1,,,,,,,,,,0,,80,107
58440,note_on,0,0,3,,,,,,,,,,2,,80,124
58440,note_on,0,0,3,,,,,,,,,,2,,71,124
58440,note_on,12,0,3,,,,,,,,,,2,,64,122
58440,note_on,12,0,5,,,,,,,,,,4,,74,119
58440,note_on,0,0,4,,,,,,,,,,3,,80,124
58440,note_on,0,0,4,,,,,,,,,,3,,71,122
58440,note_on,12,0,4,,,,,,,,,,3,,64,125
58440,note_on,12,0,6,,,,,,,,,,5,,28,72
58440,note_on,12,0,1,,,,,,,,,,0,,71,108
58440,note_on,252,0,2,,,,,,,,,,1,,74,85
58440,note_on,0,0,2,,,,,,,,,,1,,76,84
58548,note_on,0,0,2,,,,,,,,,,1,,74,0
58548,note_on,108,0,1,,,,,,,,,,0,,80,0
58548,note_on,108,0,4,,,,,,,,,,3,,80,0
58548,note_on,0,0,4,,,,,,,,,,3,,71,0
58548,note_on,0,0,4,,,,,,,,,,3,,64,0
58548,note_on,108,0,5,,,,,,,,,,4,,74,0
58548,note_on,0,0,3,,,,,,,,,,2,,71,0
58548,note_on,0,0,1,,,,,,,,,,0,,71,0
58548,note_on,108,0,3,,,,,,,,,,2,,80,0
58548,note_on,0,0,3,,,,,,,,,,2,,64,0
58548,note_on,108,0,6,,,,,,,,,,5,,28,0
58548,note_on,108,0,2,,,,,,,,,,1,,76,0
58560,note_on,12,0,2,,,,,,,,,,1,,69,96
58560,note_on,0,0,2,,,,,,,,,,1,,76,98
58560,note_on,12,0,5,,,,,,,,,,4,,76,109
58560,note_on,0,0,3,,,,,,,,,,2,,81,110
58560,note_on,0,0,3,,,,,,,,,,2,,73,107
58560,note_on,12,0,6,,,,,,,,,,5,,33,105
58560,note_on,0,0,1,,,,,,,,,,0,,73,112
58560,note_on,12,0,1,,,,,,,,,,0,,81,104
58560,note_on,0,0,4,,,,,,,,,,3,,73,110
58560,note_on,12,0,4,,,,,,,,,,3,,64,109
58560,note_on,12,0,3,,,,,,,,,,2,,64,106
58560,note_on,0,0,4,,,,,,,,,,3,,81,108
58614,note_on,54,0,4,,,,,,,,,,3,,81,0
58614,note_on,54,0,6,,,,,,,,,,5,,33,0
58614,note_on,0,0,4,,,,,,,,,,3,,64,0
58614,note_on,0,0,4,,,,,,,,,,3,,73,0
58614,note_on,54,0,5,,,,,,,,,,4,,76,0
58614,note_on,0,0,1,,,,,,,,,,0,,81,0
58614,note_on,54,0,1,,,,,,,,,,0,,73,0
58614,note_on,54,0,3,,,,,,,,,,2,,81,0
58614,note_on,0,0,3,,,,,,,,,,2,,73,0
58614,note_on,0,0,3,,,,,,,,,,2,,64,0
58620,note_on,0,0,1,,,,,,,,,,0,,69,85
58620,note_on,6,0,1,,,,,,,,,,0,,69,69
58620,note_on,6,0,4,,,,,,,,,,3,,57,70
58620,note_on,6,0,5,,,,,,,,,,4,,57,69
58620,note_on,6,0,6,,,,,,,,,,5,,33,95
58620,note_on,6,0,3,,,,,,,,,,2,,57,72
58647,note_on,27,0,5,,,,,,,,,,4,,57,0
58647,note_on,0,0,1,,,,,,,,,,0,,69,0
58647,note_on,27,0,1,,,,,,,,,,0,,69,0
58647,note_on,27,0,6,,,,,,,,,,5,,33,0
58647,note_on,27,0,3,,,,,,,,,,2,,57,0
58647,note_on,27,0,4,,,,,,,,,,3,,57,0
58650,note_on,3,0,6,,,,,,,,,,5,,35,102
58650,note_on,3,0,3,,,,,,,,,,2,,59,96
58650,note_on,3,0,5,,,,,,,,,,4,,59,99
58650,note_on,3,0,4,,,,,,,,,,3,,59,97
58650,note_on,3,0,1,,,,,,,,,,0,,71,96
58650,note_on,0,0,1,,,,,,,,,,0,,71,102
58668,note_on,108,0,2,,,,,,,,,,1,,76,0
58668,note_on,0,0,2,,,,,,,,,,1,,69,0
58677,note_on,0,0,1,,,,,,,,,,0,,71,0
58677,note_on,27,0,6,,,,,,,,,,5,,35,0
58677,note_on,27,0,1,,,,,,,,,,0,,71,0
58677,note_on,27,0,4,,,,,,,,,,3,,59,0
58677,note_on,27,0,5,,,,,,,,,,4,,59,0
58677,note_on,27,0,3,,,,,,,,,,2,,59,0
58680,note_on,3,0,6,,,,,,,,,,5,,37,106
58680,note_on,3,0,5,,,,,,,,,,4,,61,105
58680,note_on,3,0,4,,,,,,,,,,3,,61,103
58680,note_on,3,0,3,,,,,,,,,,2,,61,104
58680,note_on,3,0,1,,,,,,,,,,0,,73,107
58680,note_on,0,0,1,,,,,,,,,,0,,73,106
58734,note_on,54,0,6,,,,,,,,,,5,,37,0
58734,note_on,54,0,3,,,,,,,,,,2,,61,0
58734,note_on,54,0,5,,,,,,,,,,4,,61,0
58734,note_on,0,0,1,,,,,,,,,,0,,73,0
58734,note_on,54,0,1,,,,,,,,,,0,,73,0
58734,note_on,54,0,4,,,,,,,,,,3,,61,0
58740,note_on,6,0,5,,,,,,,,,,4,,62,99
58740,note_on,0,0,1,,,,,,,,,,0,,74,100
58740,note_on,6,0,6,,,,,,,,,,5,,38,101
58740,note_on,6,0,1,,,,,,,,,,0,,74,102
58740,note_on,6,0,3,,,,,,,,,,2,,62,100
58740,note_on,6,0,4,,,,,,,,,,3,,62,103
58794,note_on,54,0,4,,,,,,,,,,3,,62,0
58794,note_on,54,0,5,,,,,,,,,,4,,62,0
58794,note_on,0,0,1,,,,,,,,,,0,,74,0
58794,note_on,54,0,6,,,,,,,,,,5,,38,0
58794,note_on,54,0,1,,,,,,,,,,0,,74,0
58794,note_on,54,0,3,,,,,,,,,,2,,62,0
58800,note_on,6,0,3,,,,,,,,,,2,,64,100
58800,note_on,6,0,1,,,,,,,,,,0,,76,101
58800,note_on,0,0,1,,,,,,,,,,0,,76,103
58800,note_on,6,0,6,,,,,,,,,,5,,40,101
58800,note_on,6,0,5,,,,,,,,,,4,,64,103
58800,note_on,6,0,4,,,,,,,,,,3,,64,104
58908,note_on,108,0,5,,,,,,,,,,4,,64,0
58908,note_on,108,0,3,,,,,,,,,,2,,64,0
58908,note_on,108,0,4,,,,,,,,,,3,,64,0
58908,note_on,108,0,1,,,,,,,,,,0,,76,0
58908,note_on,108,0,6,,,,,,,,,,5,,40,0
58908,note_on,0,0,1,,,,,,,,,,0,,76,0
58920,note_on,12,0,3,,,,,,,,,,2,,64,123
58920,note_on,0,0,3,,,,,,,,,,2,,80,125
58920,note_on,252,0,2,,,,,,,,,,1,,74,84
58920,note_on,0,0,2,,,,,,,,,,1,,76,85
58920,note_on,0,0,3,,,,,,,,,,2,,71,123
58920,note_on,12,0,1,,,,,,,,,,0,,80,108
58920,note_on,0,0,1,,,,,,,,,,0,,71,82
58920,note_on,12,0,6,,,,,,,,,,5,,28,69
58920,note_on,0,0,4,,,,,,,,,,3,,71,124
58920,note_on,0,0,4,,,,,,,,,,3,,80,121
58920,note_on,12,0,4,,,,,,,,,,3,,64,123
58920,note_on,12,0,5,,,,,,,,,,4,,74,119
59028,note_on,0,0,4,,,,,,,,,,3,,71,0
59028,note_on,108,0,4,,,,,,,,,,3,,80,0
59028,note_on,0,0,1,,,,,,,,,,0,,80,0
59028,note_on,0,0,3,,,,,,,,,,2,,64,0
59028,note_on,108,0,6,,,,,,,,,,5,,28,0
59028,note_on,108,0,2,,,,,,,,,,1,,76,0
59028,note_on,0,0,2,,,,,,,,,,1,,74,0
59028,note_on,0,0,4,,,,,,,,,,3,,64,0
59028,note_on,108,0,1,,,,,,,,,,0,,71,0
59028,note_on,108,0,3,,,,,,,,,,2,,80,0
59028,note_on,0,0,3,,,,,,,,,,2,,71,0
59028,note_on,108,0,5,,,,,,,,,,4,,74,0
59040,note_on,0,0,3,,,,,,,,,,2,,81,109
59040,note_on,0,0,4,,,,,,,,,,3,,73,106
59040,note_on,12,0,4,,,,,,,,,,3,,64,108
59040,note_on,0,0,2,,,,,,,,,,1,,76,97
59040,note_on,12,0,2,,,,,,,,,,1,,69,99
59040,note_on,0,0,3,,,,,,,,,,2,,73,110
59040,note_on,12,0,5,,,,,,,,,,4,,73,100
59040,note_on,12,0,1,,,,,,,,,,0,,69,103
59040,note_on,0,0,1,,,,,,,,,,0,,81,106
59040,note_on,12,0,6,,,,,,,,,,5,,33,107
59040,note_on,0,0,4,,,,,,,,,,3,,81,108
59040,note_on,12,0,3,,,,,,,,,,2,,64,106
59148,note_on,0,0,4,,,,,,,,,,3,,64,0
59148,note_on,108,0,1,,,,,,,,,,0,,81,0
59148,note_on,0,0,1,,,,,,,,,,0,,69,0
59148,note_on,0,0,4,,,,,,,,,,3,,73,0
59148,note_on,0,0,2,,,,,,,,,,1,,69,0
59148,note_on,108,0,5,,,,,,,,,,4,,73,0
59148,note_on,108,0,6,,,,,,,,,,5,,33,0
59148,note_on,0,0,3,,,,,,,,,,2,,64,0
59148,note_on,108,0,4,,,,,,,,,,3,,81,0
59148,note_on,108,0,2,,,,,,,,,,1,,76,0
59148,note_on,108,0,3,,,,,,,,,,2,,81,0
59148,note_on,0,0,3,,,,,,,,,,2,,73,0
59160,note_on,12,0,3,,,,,,,,,,2,,58,57
59160,note_on,12,0,1,,,,,,,,,,0,,70,59
59160,note_on,12,0,5,,,,,,,,,,4,,58,57
59160,note_on,12,0,6,,,,,,,,,,5,,34,84
59160,note_on,12,0,4,,,,,,,,,,3,,58,61
59376,note_on,216,0,3,,,,,,,,,,2,,58,0
59496,note_on,336,0,6,,,,,,,,,,5,,34,0
59496,note_on,336,0,4,,,,,,,,,,3,,58,0
59496,note_on,336,0,5,,,,,,,,,,4,,58,0
59496,note_on,336,0,1,,,,,,,,,,0,,70,0
59520,note_on,144,0,3,,,,,,,,,,2,,59,44
59520,note_on,0,0,2,,,,,,,,,,1,,78,45
59520,note_on,372,0,2,,,,,,,,,,1,,66,47
59520,note_on,24,0,6,,,,,,,,,,5,,35,54
59520,note_on,24,0,4,,,,,,,,,,3,,59,49
59520,note_on,24,0,5,,,,,,,,,,4,,59,51
59520,note_on,24,0,1,,,,,,,,,,0,,71,52
59579,note_on,59,0,1,,,,,,,,,,0,,71,0
59579,note_on,59,0,3,,,,,,,,,,2,,59,0
59579,note_on,59,0,4,,,,,,,,,,3,,59,0
59579,note_on,59,0,5,,,,,,,,,,4,,59,0
59579,note_on,59,0,6,,,,,,,,,,5,,35,0
59628,note_on,0,0,2,,,,,,,,,,1,,66,0
59628,note_on,108,0,2,,,,,,,,,,1,,78,0
59640,note_on,61,0,5,,,,,,,,,,4,,61,49
59640,note_on,61,0,1,,,,,,,,,,0,,73,52
59640,note_on,61,0,4,,,,,,,,,,3,,61,51
59640,note_on,61,0,3,,,,,,,,,,2,,61,49
59640,note_on,61,0,6,,,,,,,,,,5,,37,50
59699,note_on,59,0,5,,,,,,,,,,4,,61,0
59699,note_on,59,0,1,,,,,,,,,,0,,73,0
59699,note_on,59,0,4,,,,,,,,,,3,,61,0
59699,note_on,59,0,3,,,,,,,,,,2,,61,0
59699,note_on,59,0,6,,,,,,,,,,5,,37,0
59760,note_on,61,0,1,,,,,,,,,,0,,74,50
59760,note_on,61,0,4,,,,,,,,,,3,,62,52
59760,note_on,61,0,6,,,,,,,,,,5,,38,48
59760,note_on,61,0,3,,,,,,,,,,2,,62,50
59760,note_on,61,0,5,,,,,,,,,,4,,62,49
59819,note_on,59,0,4,,,,,,,,,,3,,62,0
59819,note_on,59,0,3,,,,,,,,,,2,,62,0
59819,note_on,59,0,1,,,,,,,,,,0,,74,0
59819,note_on,59,0,6,,,,,,,,,,5,,38,0
59819,note_on,59,0,5,,,,,,,,,,4,,62,0
59880,note_on,61,0,5,,,,,,,,,,4,,58,44
59880,note_on,252,0,2,,,,,,,,,,1,,66,42
59880,note_on,61,0,6,,,,,,,,,,5,,34,43
59880,note_on,0,0,2,,,,,,,,,,1,,78,45
59880,note_on,61,0,3,,,,,,,,,,2,,58,43
59880,note_on,61,0,1,,,,,,,,,,0,,70,42
59880,note_on,61,0,4,,,,,,,,,,3,,58,42
59939,note_on,59,0,4,,,,,,,,,,3,,58,0
59939,note_on,59,0,5,,,,,,,,,,4,,58,0
59939,note_on,59,0,1,,,,,,,,,,0,,70,0
59939,note_on,59,0,6,,,,,,,,,,5,,34,0
59939,note_on,59,0,3,,,,,,,,,,2,,58,0
59988,note_on,0,0,2,,,,,,,,,,1,,66,0
59988,note_on,108,0,2,,,,,,,,,,1,,78,0
60000,note_on,0,0,2,,,,,,,,,,1,,78,48
60000,note_on,61,0,6,,,,,,,,,,5,,35,51
60000,note_on,61,0,4,,,,,,,,,,3,,59,51
60000,note_on,61,0,5,,,,,,,,,,4,,59,51
60000,note_on,12,0,2,,,,,,,,,,1,,66,52
60000,note_on,61,0,3,,,,,,,,,,2,,59,54
60000,note_on,61,0,1,,,,,,,,,,0,,71,50
60059,note_on,59,0,4,,,,,,,,,,3,,59,0
60059,note_on,59,0,5,,,,,,,,,,4,,59,0
60059,note_on,59,0,3,,,,,,,,,,2,,59,0
60059,note_on,59,0,6,,,,,,,,,,5,,35,0
60108,note_on,108,0,2,,,,,,,,,,1,,78,0
60108,note_on,108,0,1,,,,,,,,,,0,,71,0
60108,note_on,0,0,2,,,,,,,,,,1,,66,0
60120,note_on,61,0,4,,,,,,,,,,3,,61,53
60120,note_on,61,0,3,,,,,,,,,,2,,61,50
60120,note_on,61,0,6,,,,,,,,,,5,,37,49
60120,note_on,12,0,1,,,,,,,,,,0,,73,53
60120,note_on,61,0,5,,,,,,,,,,4,,61,53
60179,note_on,59,0,3,,,,,,,,,,2,,61,0
60179,note_on,59,0,6,,,,,,,,,,5,,37,0
60179,note_on,59,0,4,,,,,,,,,,3,,61,0
60179,note_on,59,0,5,,,,,,,,,,4,,61,0
60228,note_on,108,0,1,,,,,,,,,,0,,73,0
60240,note_on,61,0,3,,,,,,,,,,2,,62,50
60240,note_on,61,0,4,,,,,,,,,,3,,62,51
60240,note_on,12,0,1,,,,,,,,,,0,,74,48
60240,note_on,61,0,5,,,,,,,,,,4,,62,51
60240,note_on,61,0,6,,,,,,,,,,5,,38,50
60299,note_on,59,0,4,,,,,,,,,,3,,62,0
60299,note_on,59,0,5,,,,,,,,,,4,,62,0
60299,note_on,59,0,6,,,,,,,,,,5,,38,0
60299,note_on,59,0,3,,,,,,,,,,2,,62,0
60348,note_on,108,0,1,,,,,,,,,,0,,74,0
60360,note_on,0,0,2,,,,,,,,,,1,,78,43
60360,note_on,12,0,1,,,,,,,,,,0,,70,43
60360,note_on,61,0,4,,,,,,,,,,3,,58,42
60360,note_on,252,0,2,,,,,,,,,,1,,66,43
60360,note_on,61,0,5,,,,,,,,,,4,,58,41
60360,note_on,61,0,3,,,,,,,,,,2,,58,45
60360,note_on,61,0,6,,,,,,,,,,5,,34,44
60419,note_on,59,0,5,,,,,,,,,,4,,58,0
60419,note_on,59,0,6,,,,,,,,,,5,,34,0
60419,note_on,59,0,3,,,,,,,,,,2,,58,0
60419,note_on,59,0,4,,,,,,,,,,3,,58,0
60468,note_on,108,0,1,,,,,,,,,,0,,70,0
60468,note_on,0,0,2,,,,,,,,,,1,,66,0
60468,note_on,108,0,2,,,,,,,,,,1,,78,0
60480,note_on,61,0,3,,,,,,,,,,2,,59,101
60480,note_on,0,0,1,,,,,,,,,,0,,71,95
60480,note_on,12,0,1,,,,,,,,,,0,,71,103
60480,note_on,61,0,5,,,,,,,,,,4,,59,103
60480,note_on,12,0,2,,,,,,,,,,1,,78,96
60480,note_on,61,0,6,,,,,,,,,,5,,35,103
60480,note_on,61,0,4,,,,,,,,,,3,,59,103
60507,note_on,27,0,4,,,,,,,,,,3,,59,0
60507,note_on,27,0,3,,,,,,,,,,2,,59,0
60509,note_on,29,0,6,,,,,,,,,,5,,35,0
60510,note_on,3,0,4,,,,,,,,,,3,,78,124
60510,note_on,3,0,3,,,,,,,,,,2,,81,122
60534,note_on,54,0,5,,,,,,,,,,4,,59,0
60537,note_on,27,0,3,,,,,,,,,,2,,81,0
60537,note_on,27,0,4,,,,,,,,,,3,,78,0
60540,note_on,6,0,5,,,,,,,,,,4,,71,123
60540,note_on,3,0,4,,,,,,,,,,3,,78,102
60540,note_on,31,0,6,,,,,,,,,,5,,37,100
60540,note_on,3,0,3,,,,,,,,,,2,,81,102
60567,note_on,27,0,4,,,,,,,,,,3,,78,0
60567,note_on,27,0,3,,,,,,,,,,2,,81,0
60569,note_on,29,0,6,,,,,,,,,,5,,37,0
60570,note_on,3,0,4,,,,,,,,,,3,,78,96
60570,note_on,3,0,3,,,,,,,,,,2,,81,97
60588,note_on,0,0,1,,,,,,,,,,0,,71,0
60588,note_on,108,0,1,,,,,,,,,,0,,71,0
60588,note_on,108,0,2,,,,,,,,,,1,,78,0
60597,note_on,27,0,3,,,,,,,,,,2,,81,0
60597,note_on,27,0,4,,,,,,,,,,3,,78,0
60600,note_on,3,0,3,,,,,,,,,,2,,81,96
60600,note_on,31,0,6,,,,,,,,,,5,,39,106
60600,note_on,3,0,4,,,,,,,,,,3,,78,96
60600,note_on,12,0,1,,,,,,,,,,0,,81,117
60600,note_on,0,0,1,,,,,,,,,,0,,71,98
60624,note_on,24,0,3,,,,,,,,,,2,,81,0
60624,note_on,24,0,4,,,,,,,,,,3,,78,0
60629,note_on,29,0,6,,,,,,,,,,5,,39,0
60630,note_on,6,0,3,,,,,,,,,,2,,81,96
60630,note_on,6,0,4,,,,,,,,,,3,,78,96
60648,note_on,108,0,5,,,,,,,,,,4,,71,0
60654,note_on,24,0,3,,,,,,,,,,2,,81,0
60654,note_on,24,0,4,,,,,,,,,,3,,78,0
60654,note_on,54,0,1,,,,,,,,,,0,,71,0
60660,note_on,6,0,1,,,,,,,,,,0,,73,104
60660,note_on,6,0,4,,,,,,,,,,3,,78,96
60660,note_on,6,0,3,,,,,,,,,,2,,81,96
60660,note_on,31,0,6,,,,,,,,,,5,,40,102
60660,note_on,12,0,5,,,,,,,,,,4,,71,100
60684,note_on,24,0,4,,,,,,,,,,3,,78,0
60684,note_on,24,0,3,,,,,,,,,,2,,81,0
60689,note_on,29,0,6,,,,,,,,,,5,,40,0
60690,note_on,6,0,3,,,,,,,,,,2,,81,96
60690,note_on,6,0,4,,,,,,,,,,3,,78,96
60714,note_on,24,0,4,,,,,,,,,,3,,78,0
60714,note_on,54,0,1,,,,,,,,,,0,,73,0
60714,note_on,24,0,3,,,,,,,,,,2,,81,0
60720,note_on,6,0,4,,,,,,,,,,3,,75,96
60720,note_on,6,0,3,,,,,,,,,,2,,81,96
60720,note_on,0,0,4,,,,,,,,,,3,,78,96
60720,note_on,6,0,1,,,,,,,,,,0,,75,104
60720,note_on,31,0,6,,,,,,,,,,5,,42,100
60744,note_on,24,0,3,,,,,,,,,,2,,81,0
60744,note_on,24,0,4,,,,,,,,,,3,,78,0
60744,note_on,0,0,4,,,,,,,,,,3,,75,0
60750,note_on,0,0,4,,,,,,,,,,3,,78,96
60750,note_on,6,0,3,,,,,,,,,,2,,81,96
60750,note_on,6,0,4,,,,,,,,,,3,,75,96
60768,note_on,108,0,5,,,,,,,,,,4,,71,0
60774,note_on,24,0,4,,,,,,,,,,3,,78,0
60774,note_on,24,0,3,,,,,,,,,,2,,81,0
60774,note_on,0,0,4,,,,,,,,,,3,,75,0
60780,note_on,0,0,4,,,,,,,,,,3,,78,96
60780,note_on,12,0,5,,,,,,,,,,4,,71,94
60780,note_on,6,0,4,,,,,,,,,,3,,75,96
60780,note_on,6,0,3,,,,,,,,,,2,,81,96
60804,note_on,24,0,4,,,,,,,,,,3,,78,0
60804,note_on,24,0,3,,,,,,,,,,2,,81,0
60804,note_on,0,0,4,,,,,,,,,,3,,75,0
60810,note_on,6,0,3,,,,,,,,,,2,,81,96
60810,note_on,6,0,4,,,,,,,,,,3,,75,96
60810,note_on,0,0,4,,,,,,,,,,3,,78,96
60828,note_on,108,0,6,,,,,,,,,,5,,42,0
60834,note_on,24,0,3,,,,,,,,,,2,,81,0
60834,note_on,24,0,4,,,,,,,,,,3,,78,0
60834,note_on,0,0,4,,,,,,,,,,3,,75,0
60840,note_on,6,0,4,,,,,,,,,,3,,75,96
60840,note_on,0,0,4,,,,,,,,,,3,,78,96
60840,note_on,6,0,3,,,,,,,,,,2,,81,96
60864,note_on,0,0,4,,,,,,,,,,3,,75,0
60864,note_on,24,0,4,,,,,,,,,,3,,78,0
60864,note_on,24,0,3,,,,,,,,,,2,,81,0
60870,note_on,6,0,3,,,,,,,,,,2,,81,96
60870,note_on,0,0,4,,,,,,,,,,3,,78,96
60870,note_on,6,0,4,,,,,,,,,,3,,75,96
60888,note_on,108,0,5,,,,,,,,,,4,,71,0
60894,note_on,0,0,4,,,,,,,,,,3,,75,0
60894,note_on,24,0,4,,,,,,,,,,3,,78,0
60894,note_on,24,0,3,,,,,,,,,,2,,81,0
60900,note_on,12,0,5,,,,,,,,,,4,,71,94
60900,note_on,6,0,4,,,,,,,,,,3,,75,96
60900,note_on,6,0,3,,,,,,,,,,2,,81,96
60900,note_on,0,0,4,,,,,,,,,,3,,78,96
60924,note_on,24,0,4,,,,,,,,,,3,,78,0
60924,note_on,24,0,3,,,,,,,,,,2,,81,0
60924,note_on,0,0,4,,,,,,,,,,3,,75,0
60930,note_on,6,0,4,,,,,,,,,,3,,75,96
60930,note_on,0,0,4,,,,,,,,,,3,,78,96
60930,note_on,6,0,3,,,,,,,,,,2,,81,96
60936,note_on,0,0,1,,,,,,,,,,0,,81,0
60936,note_on,216,0,1,,,,,,,,,,0,,75,0
60954,note_on,0,0,4,,,,,,,,,,3,,75,0
60954,note_on,24,0,3,,,,,,,,,,2,,81,0
60954,note_on,24,0,4,,,,,,,,,,3,,78,0
60960,note_on,6,0,3,,,,,,,,,,2,,79,90
60960,note_on,6,0,4,,,,,,,,,,3,,76,90
60960,note_on,0,0,1,,,,,,,,,,0,,79,95
60960,note_on,24,0,1,,,,,,,,,,0,,76,97
60960,note_on,132,0,6,,,,,,,,,,5,,40,88
60984,note_on,24,0,3,,,,,,,,,,2,,79,0
60984,note_on,24,0,4,,,,,,,,,,3,,76,0
60989,note_on,29,0,6,,,,,,,,,,5,,40,0
60990,note_on,6,0,4,,,,,,,,,,3,,76,90
60990,note_on,6,0,3,,,,,,,,,,2,,79,90
61014,note_on,24,0,4,,,,,,,,,,3,,76,0
61014,note_on,114,0,5,,,,,,,,,,4,,71,0
61014,note_on,24,0,3,,,,,,,,,,2,,79,0
61020,note_on,6,0,4,,,,,,,,,,3,,76,90
61020,note_on,6,0,3,,,,,,,,,,2,,79,90
61020,note_on,31,0,6,,,,,,,,,,5,,42,100
61020,note_on,6,0,5,,,,,,,,,,4,,71,98
61044,note_on,24,0,4,,,,,,,,,,3,,76,0
61044,note_on,24,0,3,,,,,,,,,,2,,79,0
61049,note_on,29,0,6,,,,,,,,,,5,,42,0
61050,note_on,6,0,3,,,,,,,,,,2,,79,90
61050,note_on,6,0,4,,,,,,,,,,3,,76,90
61074,note_on,24,0,3,,,,,,,,,,2,,79,0
61074,note_on,24,0,4,,,,,,,,,,3,,76,0
61080,note_on,6,0,4,,,,,,,,,,3,,76,90
61080,note_on,6,0,3,,,,,,,,,,2,,79,90
61080,note_on,31,0,6,,,,,,,,,,5,,43,104
61104,note_on,24,0,4,,,,,,,,,,3,,76,0
61104,note_on,24,0,3,,,,,,,,,,2,,79,0
61109,note_on,29,0,6,,,,,,,,,,5,,43,0
61110,note_on,6,0,4,,,,,,,,,,3,,76,90
61110,note_on,6,0,3,,,,,,,,,,2,,79,90
61128,note_on,108,0,5,,,,,,,,,,4,,71,0
61134,note_on,24,0,4,,,,,,,,,,3,,76,0
61134,note_on,24,0,3,,,,,,,,,,2,,79,0
61140,note_on,12,0,5,,,,,,,,,,4,,71,98
61140,note_on,31,0,6,,,,,,,,,,5,,45,103
61140,note_on,6,0,4,,,,,,,,,,3,,76,90
61140,note_on,6,0,3,,,,,,,,,,2,,79,90
61164,note_on,24,0,4,,,,,,,,,,3,,76,0
61164,note_on,24,0,3,,,,,,,,,,2,,79,0
61169,note_on,29,0,6,,,,,,,,,,5,,45,0
61170,note_on,6,0,4,,,,,,,,,,3,,76,90
61170,note_on,6,0,3,,,,,,,,,,2,,79,90
61194,note_on,24,0,4,,,,,,,,,,3,,76,0
61194,note_on,24,0,3,,,,,,,,,,2,,79,0
61200,note_on,31,0,6,,,,,,,,,,5,,47,102
61200,note_on,6,0,3,,,,,,,,,,2,,79,95
61200,note_on,6,0,4,,,,,,,,,,3,,76,95
61224,note_on,24,0,4,,,,,,,,,,3,,76,0
61224,note_on,24,0,3,,,,,,,,,,2,,79,0
61230,note_on,6,0,4,,,,,,,,,,3,,76,95
61230,note_on,6,0,3,,,,,,,,,,2,,79,95
61248,note_on,108,0,5,,,,,,,,,,4,,71,0
61254,note_on,24,0,3,,,,,,,,,,2,,79,0
61254,note_on,24,0,4,,,,,,,,,,3,,76,0
61260,note_on,12,0,5,,,,,,,,,,4,,71,97
61260,note_on,6,0,3,,,,,,,,,,2,,79,95
61260,note_on,6,0,4,,,,,,,,,,3,,76,95
61284,note_on,24,0,4,,,,,,,,,,3,,76,0
61284,note_on,24,0,3,,,,,,,,,,2,,79,0
61290,note_on,6,0,4,,,,,,,,,,3,,76,95
61290,note_on,6,0,3,,,,,,,,,,2,,79,95
61308,note_on,108,0,6,,,,,,,,,,5,,47,0
61314,note_on,24,0,4,,,,,,,,,,3,,76,0
61314,note_on,24,0,3,,,,,,,,,,2,,79,0
61320,note_on,6,0,4,,,,,,,,,,3,,76,95
61320,note_on,6,0,3,,,,,,,,,,2,,79,95
61344,note_on,24,0,4,,,,,,,,,,3,,76,0
61344,note_on,24,0,3,,,,,,,,,,2,,79,0
61350,note_on,6,0,4,,,,,,,,,,3,,76,95
61350,note_on,6,0,3,,,,,,,,,,2,,79,95
61368,note_on,108,0,5,,,,,,,,,,4,,71,0
61374,note_on,24,0,3,,,,,,,,,,2,,79,0
61374,note_on,24,0,4,,,,,,,,,,3,,76,0
61380,note_on,6,0,4,,,,,,,,,,3,,76,95
61380,note_on,12,0,5,,,,,,,,,,4,,71,94
61380,note_on,6,0,3,,,,,,,,,,2,,79,95
61404,note_on,24,0,4,,,,,,,,,,3,,76,0
61404,note_on,24,0,3,,,,,,,,,,2,,79,0
61410,note_on,6,0,4,,,,,,,,,,3,,76,95
61410,note_on,6,0,3,,,,,,,,,,2,,79,95
61416,note_on,456,0,1,,,,,,,,,,0,,79,0
61416,note_on,0,0,1,,,,,,,,,,0,,76,0
61434,note_on,24,0,4,,,,,,,,,,3,,76,0
61434,note_on,24,0,3,,,,,,,,,,2,,79,0
61440,note_on,6,0,3,,,,,,,,,,2,,81,102
61440,note_on,0,0,1,,,,,,,,,,0,,78,107
61440,note_on,24,0,1,,,,,,,,,,0,,81,104
61440,note_on,6,0,4,,,,,,,,,,3,,78,102
61440,note_on,132,0,6,,,,,,,,,,5,,35,87
61464,note_on,24,0,3,,,,,,,,,,2,,81,0
61464,note_on,24,0,4,,,,,,,,,,3,,78,0
61469,note_on,29,0,6,,,,,,,,,,5,,35,0
61470,note_on,6,0,4,,,,,,,,,,3,,78,102
61470,note_on,6,0,3,,,,,,,,,,2,,81,102
61494,note_on,24,0,4,,,,,,,,,,3,,78,0
61494,note_on,114,0,5,,,,,,,,,,4,,71,0
61494,note_on,24,0,3,,,,,,,,,,2,,81,0
61500,note_on,6,0,5,,,,,,,,,,4,,71,95
61500,note_on,6,0,4,,,,,,,,,,3,,78,102
61500,note_on,6,0,3,,,,,,,,,,2,,81,102
61500,note_on,31,0,6,,,,,,,,,,5,,37,101
61524,note_on,24,0,4,,,,,,,,,,3,,78,0
61524,note_on,24,0,3,,,,,,,,,,2,,81,0
61529,note_on,29,0,6,,,,,,,,,,5,,37,0
61530,note_on,6,0,3,,,,,,,,,,2,,81,102
61530,note_on,6,0,4,,,,,,,,,,3,,78,102
61554,note_on,24,0,4,,,,,,,,,,3,,78,0
61554,note_on,24,0,3,,,,,,,,,,2,,81,0
61560,note_on,6,0,4,,,,,,,,,,3,,78,102
61560,note_on,31,0,6,,,,,,,,,,5,,39,107
61560,note_on,6,0,3,,,,,,,,,,2,,81,102
61584,note_on,24,0,4,,,,,,,,,,3,,78,0
61584,note_on,24,0,3,,,,,,,,,,2,,81,0
61589,note_on,29,0,6,,,,,,,,,,5,,39,0
61590,note_on,6,0,4,,,,,,,,,,3,,78,102
61590,note_on,6,0,3,,,,,,,,,,2,,81,102
61608,note_on,108,0,5,,,,,,,,,,4,,71,0
61614,note_on,24,0,4,,,,,,,,,,3,,78,0
61614,note_on,24,0,3,,,,,,,,,,2,,81,0
61620,note_on,31,0,6,,,,,,,,,,5,,40,101
61620,note_on,12,0,5,,,,,,,,,,4,,71,98
61620,note_on,6,0,4,,,,,,,,,,3,,78,102
61620,note_on,6,0,3,,,,,,,,,,2,,81,102
61644,note_on,24,0,4,,,,,,,,,,3,,78,0
61644,note_on,24,0,3,,,,,,,,,,2,,81,0
61649,note_on,29,0,6,,,,,,,,,,5,,40,0
61650,note_on,6,0,4,,,,,,,,,,3,,78,102
61650,note_on,6,0,3,,,,,,,,,,2,,81,102
61656,note_on,216,0,1,,,,,,,,,,0,,78,0
61674,note_on,24,0,4,,,,,,,,,,3,,78,0
61674,note_on,24,0,3,,,,,,,,,,2,,81,0
61680,note_on,31,0,6,,,,,,,,,,5,,42,103
61680,note_on,6,0,3,,,,,,,,,,2,,81,96
61680,note_on,24,0,1,,,,,,,,,,0,,75,89
61680,note_on,0,0,4,,,,,,,,,,3,,78,96
61680,note_on,6,0,4,,,,,,,,,,3,,75,96
61704,note_on,24,0,4,,,,,,,,,,3,,78,0
61704,note_on,0,0,4,,,,,,,,,,3,,75,0
61704,note_on,24,0,3,,,,,,,,,,2,,81,0
61710,note_on,6,0,3,,,,,,,,,,2,,81,96
61710,note_on,0,0,4,,,,,,,,,,3,,78,96
61710,note_on,6,0,4,,,,,,,,,,3,,75,96
61728,note_on,108,0,5,,,,,,,,,,4,,71,0
61734,note_on,24,0,4,,,,,,,,,,3,,78,0
61734,note_on,24,0,3,,,,,,,,,,2,,81,0
61734,note_on,0,0,4,,,,,,,,,,3,,75,0
61740,note_on,6,0,3,,,,,,,,,,2,,81,96
61740,note_on,6,0,4,,,,,,,,,,3,,75,96
61740,note_on,0,0,4,,,,,,,,,,3,,78,96
61740,note_on,12,0,5,,,,,,,,,,4,,71,98
61764,note_on,24,0,3,,,,,,,,,,2,,81,0
61764,note_on,0,0,4,,,,,,,,,,3,,75,0
61764,note_on,24,0,4,,,,,,,,,,3,,78,0
61770,note_on,0,0,4,,,,,,,,,,3,,78,96
61770,note_on,6,0,4,,,,,,,,,,3,,75,96
61770,note_on,6,0,3,,,,,,,,,,2,,81,96
61788,note_on,108,0,6,,,,,,,,,,5,,42,0
61794,note_on,24,0,4,,,,,,,,,,3,,78,0
61794,note_on,0,0,4,,,,,,,,,,3,,75,0
61794,note_on,24,0,3,,,,,,,,,,2,,81,0
61800,note_on,6,0,3,,,,,,,,,,2,,81,96
61800,note_on,6,0,4,,,,,,,,,,3,,75,96
61800,note_on,0,0,4,,,,,,,,,,3,,78,96
61824,note_on,0,0,4,,,,,,,,,,3,,75,0
61824,note_on,24,0,3,,,,,,,,,,2,,81,0
61824,note_on,24,0,4,,,,,,,,,,3,,78,0
61830,note_on,0,0,4,,,,,,,,,,3,,78,96
61830,note_on,6,0,3,,,,,,,,,,2,,81,96
61830,note_on,6,0,4,,,,,,,,,,3,,75,96
61848,note_on,108,0,5,,,,,,,,,,4,,71,0
61854,note_on,24,0,4,,,,,,,,,,3,,78,0
61854,note_on,24,0,3,,,,,,,,,,2,,81,0
61854,note_on,0,0,4,,,,,,,,,,3,,75,0
61860,note_on,6,0,4,,,,,,,,,,3,,75,96
61860,note_on,6,0,3,,,,,,,,,,2,,81,96
61860,note_on,12,0,5,,,,,,,,,,4,,71,98
61860,note_on,0,0,4,,,,,,,,,,3,,78,96
61884,note_on,24,0,3,,,,,,,,,,2,,81,0
61884,note_on,24,0,4,,,,,,,,,,3,,78,0
61884,note_on,0,0,4,,,,,,,,,,3,,75,0
61890,note_on,6,0,4,,,,,,,,,,3,,75,96
61890,note_on,0,0,4,,,,,,,,,,3,,78,96
61890,note_on,6,0,3,,,,,,,,,,2,,81,96
61896,note_on,216,0,1,,,,,,,,,,0,,75,0
61896,note_on,0,0,1,,,,,,,,,,0,,81,0
61914,note_on,24,0,3,,,,,,,,,,2,,81,0
61914,note_on,0,0,4,,,,,,,,,,3,,75,0
61914,note_on,24,0,4,,,,,,,,,,3,,78,0
61920,note_on,0,0,1,,,,,,,,,,0,,79,91
61920,note_on,24,0,1,,,,,,,,,,0,,76,95
61920,note_on,6,0,4,,,,,,,,,,3,,79,104
61920,note_on,132,0,6,,,,,,,,,,5,,40,87
61920,note_on,6,0,3,,,,,,,,,,2,,79,92
61974,note_on,54,0,6,,,,,,,,,,5,,40,0
61974,note_on,0,0,1,,,,,,,,,,0,,76,0
61974,note_on,114,0,5,,,,,,,,,,4,,71,0
61974,note_on,54,0,1,,,,,,,,,,0,,79,0
61974,note_on,54,0,4,,,,,,,,,,3,,79,0
61974,note_on,54,0,3,,,,,,,,,,2,,79,0
61980,note_on,6,0,4,,,,,,,,,,3,,64,68
61980,note_on,6,0,5,,,,,,,,,,4,,64,77
61980,note_on,6,0,6,,,,,,,,,,5,,40,95
61980,note_on,6,0,3,,,,,,,,,,2,,64,69
61980,note_on,6,0,1,,,,,,,,,,0,,64,70
62034,note_on,54,0,3,,,,,,,,,,2,,64,0
62034,note_on,54,0,4,,,,,,,,,,3,,64,0
62034,note_on,54,0,5,,,,,,,,,,4,,64,0
62034,note_on,54,0,6,,,,,,,,,,5,,40,0
62034,note_on,54,0,1,,,,,,,,,,0,,64,0
62040,note_on,6,0,4,,,,,,,,,,3,,67,102
62040,note_on,6,0,5,,,,,,,,,,4,,67,105
62040,note_on,6,0,3,,,,,,,,,,2,,67,101
62040,note_on,6,0,6,,,,,,,,,,5,,43,108
62040,note_on,6,0,1,,,,,,,,,,0,,67,100
62094,note_on,54,0,4,,,,,,,,,,3,,67,0
62094,note_on,54,0,3,,,,,,,,,,2,,67,0
62094,note_on,54,0,5,,,,,,,,,,4,,67,0
62094,note_on,54,0,6,,,,,,,,,,5,,43,0
62094,note_on,54,0,1,,,,,,,,,,0,,67,0
62100,note_on,6,0,1,,,,,,,,,,0,,71,104
62100,note_on,6,0,4,,,,,,,,,,3,,71,106
62100,note_on,6,0,6,,,,,,,,,,5,,47,110
62100,note_on,6,0,3,,,,,,,,,,2,,71,105
62100,note_on,6,0,5,,,,,,,,,,4,,71,105
62154,note_on,54,0,5,,,,,,,,,,4,,71,0
62154,note_on,54,0,6,,,,,,,,,,5,,47,0
62154,note_on,54,0,3,,,,,,,,,,2,,71,0
62154,note_on,54,0,1,,,,,,,,,,0,,71,0
62154,note_on,54,0,4,,,,,,,,,,3,,71,0
62160,note_on,6,0,6,,,,,,,,,,5,,52,114
62160,note_on,6,0,4,,,,,,,,,,3,,76,113
62160,note_on,6,0,3,,,,,,,,,,2,,76,114
62160,note_on,6,0,5,,,,,,,,,,4,,76,113
62160,note_on,6,0,1,,,,,,,,,,0,,76,112
62241,note_on,81,0,1,,,,,,,,,,0,,76,0
62241,note_on,81,0,4,,,,,,,,,,3,,76,0
62241,note_on,81,0,3,,,,,,,,,,2,,76,0
62241,note_on,81,0,5,,,,,,,,,,4,,76,0
62241,note_on,81,0,6,,,,,,,,,,5,,52,0
62250,note_on,9,0,5,,,,,,,,,,4,,74,90
62250,note_on,9,0,6,,,,,,,,,,5,,50,94
62250,note_on,9,0,1,,,,,,,,,,0,,74,92
62250,note_on,9,0,4,,,,,,,,,,3,,74,93
62250,note_on,9,0,3,,,,,,,,,,2,,74,93
62277,note_on,27,0,6,,,,,,,,,,5,,50,0
62277,note_on,27,0,3,,,,,,,,,,2,,74,0
62277,note_on,27,0,5,,,,,,,,,,4,,74,0
62277,note_on,27,0,1,,,,,,,,,,0,,74,0
62277,note_on,27,0,4,,,,,,,,,,3,,74,0
62280,note_on,3,0,4,,,,,,,,,,3,,74,100
62280,note_on,3,0,6,,,,,,,,,,5,,50,97
62280,note_on,3,0,1,,,,,,,,,,0,,74,99
62280,note_on,3,0,5,,,,,,,,,,4,,74,98
62280,note_on,3,0,3,,,,,,,,,,2,,74,100
62293,note_on,13,0,1,,,,,,,,,,0,,74,0
62293,note_on,13,0,3,,,,,,,,,,2,,74,0
62293,note_on,13,0,6,,,,,,,,,,5,,50,0
62293,note_on,13,0,5,,,,,,,,,,4,,74,0
62293,note_on,13,0,4,,,,,,,,,,3,,74,0
62295,note_on,2,0,3,,,,,,,,,,2,,76,102
62295,note_on,2,0,1,,,,,,,,,,0,,76,100
62295,note_on,2,0,6,,,,,,,,,,5,,52,101
62295,note_on,2,0,4,,,,,,,,,,3,,76,104
62295,note_on,2,0,5,,,,,,,,,,4,,76,102
62308,note_on,13,0,5,,,,,,,,,,4,,76,0
62308,note_on,13,0,6,,,,,,,,,,5,,52,0
62308,note_on,13,0,4,,,,,,,,,,3,,76,0
62308,note_on,13,0,3,,,,,,,,,,2,,76,0
62308,note_on,13,0,1,,,,,,,,,,0,,76,0
62310,note_on,2,0,3,,,,,,,,,,2,,74,89
62310,note_on,2,0,5,,,,,,,,,,4,,74,88
62310,note_on,2,0,1,,,,,,,,,,0,,74,89
62310,note_on,2,0,6,,,,,,,,,,5,,50,89
62310,note_on,2,0,4,,,,,,,,,,3,,74,91
62323,note_on,13,0,1,,,,,,,,,,0,,74,0
62323,note_on,13,0,6,,,,,,,,,,5,,50,0
62323,note_on,13,0,4,,,,,,,,,,3,,74,0
62323,note_on,13,0,3,,,,,,,,,,2,,74,0
62323,note_on,13,0,5,,,,,,,,,,4,,74,0
62325,note_on,2,0,4,,,,,,,,,,3,,76,100
62325,note_on,2,0,6,,,,,,,,,,5,,52,100
62325,note_on,2,0,1,,,,,,,,,,0,,76,102
62325,note_on,2,0,3,,,,,,,,,,2,,76,100
62325,note_on,2,0,5,,,,,,,,,,4,,76,100
62338,note_on,13,0,5,,,,,,,,,,4,,76,0
62338,note_on,13,0,4,,,,,,,,,,3,,76,0
62338,note_on,13,0,3,,,,,,,,,,2,,76,0
62338,note_on,13,0,1,,,,,,,,,,0,,76,0
62338,note_on,13,0,6,,,,,,,,,,5,,52,0
62340,note_on,2,0,3,,,,,,,,,,2,,74,89
62340,note_on,2,0,4,,,,,,,,,,3,,74,91
62340,note_on,2,0,1,,,,,,,,,,0,,74,89
62340,note_on,2,0,6,,,,,,,,,,5,,50,88
62340,note_on,2,0,5,,,,,,,,,,4,,74,91
62353,note_on,13,0,6,,,,,,,,,,5,,50,0
62353,note_on,13,0,4,,,,,,,,,,3,,74,0
62353,note_on,13,0,5,,,,,,,,,,4,,74,0
62353,note_on,13,0,3,,,,,,,,,,2,,74,0
62353,note_on,13,0,1,,,,,,,,,,0,,74,0
62355,note_on,2,0,4,,,,,,,,,,3,,76,99
62355,note_on,2,0,5,,,,,,,,,,4,,76,102
62355,note_on,2,0,3,,,,,,,,,,2,,76,102
62355,note_on,2,0,6,,,,,,,,,,5,,52,101
62355,note_on,2,0,1,,,,,,,,,,0,,76,103
62368,note_on,13,0,5,,,,,,,,,,4,,76,0
62368,note_on,13,0,1,,,,,,,,,,0,,76,0
62368,note_on,13,0,6,,,,,,,,,,5,,52,0
62368,note_on,13,0,4,,,,,,,,,,3,,76,0
62368,note_on,13,0,3,,,,,,,,,,2,,76,0
62370,note_on,2,0,1,,,,,,,,,,0,,73,89
62370,note_on,2,0,5,,,,,,,,,,4,,73,88
62370,note_on,2,0,3,,,,,,,,,,2,,73,86
62370,note_on,2,0,6,,,,,,,,,,5,,49,90
62370,note_on,2,0,4,,,,,,,,,,3,,73,86
62383,note_on,13,0,1,,,,,,,,,,0,,73,0
62383,note_on,13,0,4,,,,,,,,,,3,,73,0
62383,note_on,13,0,6,,,,,,,,,,5,,49,0
62383,note_on,13,0,3,,,,,,,,,,2,,73,0
62383,note_on,13,0,5,,,,,,,,,,4,,73,0
62385,note_on,2,0,6,,,,,,,,,,5,,50,98
62385,note_on,2,0,3,,,,,,,,,,2,,74,101
62385,note_on,2,0,5,,,,,,,,,,4,,74,100
62385,note_on,2,0,1,,,,,,,,,,0,,74,97
62385,note_on,2,0,4,,,,,,,,,,3,,74,97
62398,note_on,13,0,4,,,,,,,,,,3,,74,0
62398,note_on,13,0,3,,,,,,,,,,2,,74,0
62398,note_on,13,0,6,,,,,,,,,,5,,50,0
62398,note_on,13,0,1,,,,,,,,,,0,,74,0
62398,note_on,13,0,5,,,,,,,,,,4,,74,0
62400,note_on,2,0,6,,,,,,,,,,5,,49,92
62400,note_on,0,0,4,,,,,,,,,,3,,76,102
62400,note_on,1812,0,2,,,,,,,,,,1,,76,89
62400,note_on,2,0,1,,,,,,,,,,0,,73,95
62400,note_on,2,0,3,,,,,,,,,,2,,69,86
62400,note_on,2,0,4,,,,,,,,,,3,,73,102
62400,note_on,0,0,2,,,,,,,,,,1,,79,89
62400,note_on,2,0,5,,,,,,,,,,4,,73,95
62424,note_on,0,0,4,,,,,,,,,,3,,73,0
62424,note_on,24,0,4,,,,,,,,,,3,,76,0
62427,note_on,27,0,3,,,,,,,,,,2,,69,0
62430,note_on,0,0,4,,,,,,,,,,3,,76,102
62430,note_on,6,0,4,,,,,,,,,,3,,73,102
62430,note_on,3,0,3,,,,,,,,,,2,,79,115
62454,note_on,54,0,5,,,,,,,,,,4,,73,0
62454,note_on,0,0,4,,,,,,,,,,3,,73,0
62454,note_on,24,0,4,,,,,,,,,,3,,76,0
62454,note_on,54,0,6,,,,,,,,,,5,,49,0
62457,note_on,27,0,3,,,,,,,,,,2,,79,0
62460,note_on,0,0,4,,,,,,,,,,3,,76,102
62460,note_on,6,0,4,,,,,,,,,,3,,73,102
62460,note_on,6,0,5,,,,,,,,,,4,,69,84
62460,note_on,6,0,6,,,,,,,,,,5,,33,69
62460,note_on,3,0,3,,,,,,,,,,2,,79,101
62484,note_on,24,0,4,,,,,,,,,,3,,76,0
62484,note_on,0,0,4,,,,,,,,,,3,,73,0
62487,note_on,27,0,3,,,,,,,,,,2,,79,0
62490,note_on,0,0,4,,,,,,,,,,3,,76,102
62490,note_on,6,0,4,,,,,,,,,,3,,73,102
62490,note_on,3,0,3,,,,,,,,,,2,,79,94
62508,note_on,108,0,1,,,,,,,,,,0,,73,0
62514,note_on,0,0,4,,,,,,,,,,3,,73,0
62514,note_on,24,0,4,,,,,,,,,,3,,76,0
62514,note_on,54,0,6,,,,,,,,,,5,,33,0
62517,note_on,27,0,3,,,,,,,,,,2,,79,0
62520,note_on,6,0,4,,,,,,,,,,3,,73,102
62520,note_on,0,0,4,,,,,,,,,,3,,76,102
62520,note_on,6,0,6,,,,,,,,,,5,,37,105
62520,note_on,3,0,3,,,,,,,,,,2,,79,96
62544,note_on,24,0,4,,,,,,,,,,3,,76,0
62544,note_on,0,0,4,,,,,,,,,,3,,73,0
62544,note_on,24,0,3,,,,,,,,,,2,,79,0
62550,note_on,6,0,4,,,,,,,,,,3,,73,102
62550,note_on,0,0,4,,,,,,,,,,3,,76,102
62550,note_on,6,0,3,,,,,,,,,,2,,79,96
62568,note_on,108,0,5,,,,,,,,,,4,,69,0
62574,note_on,24,0,4,,,,,,,,,,3,,76,0
62574,note_on,0,0,4,,,,,,,,,,3,,73,0
62574,note_on,24,0,3,,,,,,,,,,2,,79,0
62574,note_on,54,0,6,,,,,,,,,,5,,37,0
62580,note_on,12,0,5,,,,,,,,,,4,,69,92
62580,note_on,6,0,3,,,,,,,,,,2,,79,96
62580,note_on,6,0,4,,,,,,,,,,3,,73,102
62580,note_on,0,0,4,,,,,,,,,,3,,76,102
62580,note_on,6,0,6,,,,,,,,,,5,,40,106
62604,note_on,24,0,4,,,,,,,,,,3,,76,0
62604,note_on,0,0,4,,,,,,,,,,3,,73,0
62604,note_on,24,0,3,,,,,,,,,,2,,79,0
62610,note_on,6,0,4,,,,,,,,,,3,,73,102
62610,note_on,0,0,4,,,,,,,,,,3,,76,102
62610,note_on,6,0,3,,,,,,,,,,2,,79,96
62634,note_on,24,0,3,,,,,,,,,,2,,79,0
62634,note_on,0,0,4,,,,,,,,,,3,,73,0
62634,note_on,24,0,4,,,,,,,,,,3,,76,0
62634,note_on,54,0,6,,,,,,,,,,5,,40,0
62640,note_on,0,0,4,,,,,,,,,,3,,76,96
62640,note_on,6,0,6,,,,,,,,,,5,,45,111
62640,note_on,6,0,3,,,,,,,,,,2,,79,96
62640,note_on,6,0,4,,,,,,,,,,3,,73,96
62640,note_on,0,0,1,,,,,,,,,,0,,79,87
62640,note_on,132,0,1,,,,,,,,,,0,,73,84
62664,note_on,24,0,3,,,,,,,,,,2,,79,0
62664,note_on,24,0,4,,,,,,,,,,3,,76,0
62664,note_on,0,0,4,,,,,,,,,,3,,73,0
62670,note_on,0,0,4,,,,,,,,,,3,,76,96
62670,note_on,6,0,4,,,,,,,,,,3,,73,96
62670,note_on,6,0,3,,,,,,,,,,2,,79,96
62688,note_on,108,0,5,,,,,,,,,,4,,69,0
62694,note_on,24,0,3,,,,,,,,,,2,,79,0
62694,note_on,0,0,4,,,,,,,,,,3,,73,0
62694,note_on,24,0,4,,,,,,,,,,3,,76,0
62700,note_on,0,0,4,,,,,,,,,,3,,76,96
62700,note_on,6,0,4,,,,,,,,,,3,,73,96
62700,note_on,12,0,5,,,,,,,,,,4,,69,97
62700,note_on,6,0,3,,,,,,,,,,2,,79,96
62724,note_on,24,0,3,,,,,,,,,,2,,79,0
62724,note_on,24,0,4,,,,,,,,,,3,,76,0
62724,note_on,0,0,4,,,,,,,,,,3,,73,0
62730,note_on,6,0,4,,,,,,,,,,3,,73,96
62730,note_on,0,0,4,,,,,,,,,,3,,76,96
62730,note_on,6,0,3,,,,,,,,,,2,,79,96
62748,note_on,108,0,6,,,,,,,,,,5,,45,0
62754,note_on,24,0,3,,,,,,,,,,2,,79,0
62754,note_on,24,0,4,,,,,,,,,,3,,76,0
62754,note_on,0,0,4,,,,,,,,,,3,,73,0
62760,note_on,6,0,4,,,,,,,,,,3,,73,96
62760,note_on,0,0,4,,,,,,,,,,3,,76,96
62760,note_on,6,0,3,,,,,,,,,,2,,79,96
62784,note_on,24,0,3,,,,,,,,,,2,,79,0
62784,note_on,24,0,4,,,,,,,,,,3,,76,0
62784,note_on,0,0,4,,,,,,,,,,3,,73,0
62790,note_on,6,0,3,,,,,,,,,,2,,79,96
62790,note_on,6,0,4,,,,,,,,,,3,,73,96
62790,note_on,0,0,4,,,,,,,,,,3,,76,96
62808,note_on,108,0,5,,,,,,,,,,4,,69,0
62814,note_on,0,0,4,,,,,,,,,,3,,73,0
62814,note_on,24,0,3,,,,,,,,,,2,,79,0
62814,note_on,24,0,4,,,,,,,,,,3,,76,0
62820,note_on,6,0,3,,,,,,,,,,2,,79,96
62820,note_on,12,0,5,,,,,,,,,,4,,69,96
62820,note_on,6,0,4,,,,,,,,,,3,,73,96
62820,note_on,0,0,4,,,,,,,,,,3,,76,96
62844,note_on,0,0,4,,,,,,,,,,3,,73,0
62844,note_on,24,0,4,,,,,,,,,,3,,76,0
62844,note_on,24,0,3,,,,,,,,,,2,,79,0
62850,note_on,0,0,4,,,,,,,,,,3,,76,96
62850,note_on,6,0,4,,,,,,,,,,3,,73,96
62850,note_on,6,0,3,,,,,,,,,,2,,79,96
62856,note_on,0,0,2,,,,,,,,,,1,,76,0
62856,note_on,216,0,1,,,,,,,,,,0,,79,0
62856,note_on,456,0,2,,,,,,,,,,1,,79,0
62856,note_on,0,0,1,,,,,,,,,,0,,73,0
62874,note_on,0,0,4,,,,,,,,,,3,,73,0
62874,note_on,24,0,3,,,,,,,,,,2,,79,0
62874,note_on,24,0,4,,,,,,,,,,3,,76,0
62880,note_on,0,0,1,,,,,,,,,,0,,78,95
62880,note_on,24,0,1,,,,,,,,,,0,,74,95
62880,note_on,6,0,4,,,,,,,,,,3,,74,90
62880,note_on,132,0,6,,,,,,,,,,5,,38,89
62880,note_on,0,0,2,,,,,,,,,,1,,78,92
62880,note_on,24,0,2,,,,,,,,,,1,,74,92
62880,note_on,6,0,3,,,,,,,,,,2,,78,91
62904,note_on,24,0,4,,,,,,,,,,3,,74,0
62904,note_on,24,0,3,,,,,,,,,,2,,78,0
62910,note_on,6,0,4,,,,,,,,,,3,,74,90
62910,note_on,6,0,3,,,,,,,,,,2,,78,91
62934,note_on,114,0,5,,,,,,,,,,4,,69,0
62934,note_on,54,0,6,,,,,,,,,,5,,38,0
62934,note_on,24,0,3,,,,,,,,,,2,,78,0
62934,note_on,24,0,4,,,,,,,,,,3,,74,0
62940,note_on,6,0,5,,,,,,,,,,4,,69,98
62940,note_on,6,0,3,,,,,,,,,,2,,78,91
62940,note_on,6,0,4,,,,,,,,,,3,,74,90
62940,note_on,6,0,6,,,,,,,,,,5,,40,99
62964,note_on,24,0,3,,,,,,,,,,2,,78,0
62964,note_on,24,0,4,,,,,,,,,,3,,74,0
62970,note_on,6,0,3,,,,,,,,,,2,,78,91
62970,note_on,6,0,4,,,,,,,,,,3,,74,90
62994,note_on,24,0,3,,,,,,,,,,2,,78,0
62994,note_on,24,0,4,,,,,,,,,,3,,74,0
62994,note_on,54,0,6,,,,,,,,,,5,,40,0
63000,note_on,6,0,3,,,,,,,,,,2,,78,91
63000,note_on,6,0,4,,,,,,,,,,3,,74,90
63000,note_on,6,0,6,,,,,,,,,,5,,42,107
63024,note_on,24,0,3,,,,,,,,,,2,,78,0
63024,note_on,24,0,4,,,,,,,,,,3,,74,0
63030,note_on,6,0,4,,,,,,,,,,3,,74,90
63030,note_on,6,0,3,,,,,,,,,,2,,78,91
63048,note_on,108,0,5,,,,,,,,,,4,,69,0
63054,note_on,24,0,3,,,,,,,,,,2,,78,0
63054,note_on,24,0,4,,,,,,,,,,3,,74,0
63054,note_on,54,0,6,,,,,,,,,,5,,42,0
63060,note_on,12,0,5,,,,,,,,,,4,,69,98
63060,note_on,6,0,3,,,,,,,,,,2,,78,91
63060,note_on,6,0,4,,,,,,,,,,3,,74,90
63060,note_on,6,0,6,,,,,,,,,,5,,43,101
63084,note_on,24,0,3,,,,,,,,,,2,,78,0
63084,note_on,24,0,4,,,,,,,,,,3,,74,0
63090,note_on,6,0,3,,,,,,,,,,2,,78,91
63090,note_on,6,0,4,,,,,,,,,,3,,74,90
63114,note_on,24,0,3,,,,,,,,,,2,,78,0
63114,note_on,54,0,6,,,,,,,,,,5,,43,0
63114,note_on,24,0,4,,,,,,,,,,3,,74,0
63120,note_on,6,0,6,,,,,,,,,,5,,45,102
63120,note_on,6,0,3,,,,,,,,,,2,,78,95
63120,note_on,6,0,4,,,,,,,,,,3,,74,95
63144,note_on,24,0,3,,,,,,,,,,2,,78,0
63144,note_on,24,0,4,,,,,,,,,,3,,74,0
63150,note_on,6,0,3,,,,,,,,,,2,,78,95
63150,note_on,6,0,4,,,,,,,,,,3,,74,95
63168,note_on,108,0,5,,,,,,,,,,4,,69,0
63174,note_on,24,0,3,,,,,,,,,,2,,78,0
63174,note_on,24,0,4,,,,,,,,,,3,,74,0
63180,note_on,6,0,4,,,,,,,,,,3,,74,95
63180,note_on,6,0,3,,,,,,,,,,2,,78,95
63180,note_on,12,0,5,,,,,,,,,,4,,69,95
63204,note_on,24,0,4,,,,,,,,,,3,,74,0
63204,note_on,24,0,3,,,,,,,,,,2,,78,0
63210,note_on,6,0,4,,,,,,,,,,3,,74,95
63210,note_on,6,0,3,,,,,,,,,,2,,78,95
63228,note_on,108,0,6,,,,,,,,,,5,,45,0
63234,note_on,24,0,3,,,,,,,,,,2,,78,0
63234,note_on,24,0,4,,,,,,,,,,3,,74,0
63240,note_on,6,0,3,,,,,,,,,,2,,78,95
63240,note_on,6,0,4,,,,,,,,,,3,,74,95
63264,note_on,24,0,4,,,,,,,,,,3,,74,0
63264,note_on,24,0,3,,,,,,,,,,2,,78,0
63270,note_on,6,0,4,,,,,,,,,,3,,74,95
63270,note_on,6,0,3,,,,,,,,,,2,,78,95
63288,note_on,108,0,5,,,,,,,,,,4,,69,0
63294,note_on,24,0,3,,,,,,,,,,2,,78,0
63294,note_on,24,0,4,,,,,,,,,,3,,74,0
63300,note_on,6,0,3,,,,,,,,,,2,,78,95
63300,note_on,6,0,4,,,,,,,,,,3,,74,95
63300,note_on,12,0,5,,,,,,,,,,4,,69,96
63324,note_on,24,0,4,,,,,,,,,,3,,74,0
63324,note_on,24,0,3,,,,,,,,,,2,,78,0
63330,note_on,6,0,3,,,,,,,,,,2,,78,95
63330,note_on,6,0,4,,,,,,,,,,3,,74,95
63336,note_on,456,0,2,,,,,,,,,,1,,78,0
63336,note_on,0,0,2,,,,,,,,,,1,,74,0
63336,note_on,0,0,1,,,,,,,,,,0,,74,0
63336,note_on,456,0,1,,,,,,,,,,0,,78,0
63354,note_on,24,0,3,,,,,,,,,,2,,78,0
63354,note_on,24,0,4,,,,,,,,,,3,,74,0
63360,note_on,6,0,4,,,,,,,,,,3,,73,102
63360,note_on,0,0,4,,,,,,,,,,3,,76,102
63360,note_on,24,0,1,,,,,,,,,,0,,76,101
63360,note_on,24,0,2,,,,,,,,,,1,,76,102
63360,note_on,0,0,2,,,,,,,,,,1,,79,101
63360,note_on,0,0,1,,,,,,,,,,0,,79,101
63360,note_on,6,0,3,,,,,,,,,,2,,79,100
63360,note_on,132,0,6,,,,,,,,,,5,,33,87
63384,note_on,24,0,3,,,,,,,,,,2,,79,0
63384,note_on,24,0,4,,,,,,,,,,3,,76,0
63384,note_on,0,0,4,,,,,,,,,,3,,73,0
63390,note_on,6,0,3,,,,,,,,,,2,,79,100
63390,note_on,0,0,4,,,,,,,,,,3,,76,102
63390,note_on,6,0,4,,,,,,,,,,3,,73,102
63414,note_on,0,0,4,,,,,,,,,,3,,73,0
63414,note_on,24,0,4,,,,,,,,,,3,,76,0
63414,note_on,54,0,6,,,,,,,,,,5,,33,0
63414,note_on,24,0,3,,,,,,,,,,2,,79,0
63414,note_on,114,0,5,,,,,,,,,,4,,69,0
63420,note_on,6,0,4,,,,,,,,,,3,,73,102
63420,note_on,6,0,3,,,,,,,,,,2,,79,100
63420,note_on,0,0,4,,,,,,,,,,3,,76,102
63420,note_on,6,0,6,,,,,,,,,,5,,35,99
63420,note_on,6,0,5,,,,,,,,,,4,,69,96
63444,note_on,24,0,4,,,,,,,,,,3,,76,0
63444,note_on,0,0,4,,,,,,,,,,3,,73,0
63444,note_on,24,0,3,,,,,,,,,,2,,79,0
63450,note_on,6,0,4,,,,,,,,,,3,,73,102
63450,note_on,0,0,4,,,,,,,,,,3,,76,102
63450,note_on,6,0,3,,,,,,,,,,2,,79,100
63474,note_on,24,0,4,,,,,,,,,,3,,76,0
63474,note_on,54,0,6,,,,,,,,,,5,,35,0
63474,note_on,24,0,3,,,,,,,,,,2,,79,0
63474,note_on,0,0,4,,,,,,,,,,3,,73,0
63480,note_on,6,0,6,,,,,,,,,,5,,37,105
63480,note_on,6,0,3,,,,,,,,,,2,,79,100
63480,note_on,0,0,4,,,,,,,,,,3,,76,102
63480,note_on,6,0,4,,,,,,,,,,3,,73,102
63504,note_on,0,0,4,,,,,,,,,,3,,73,0
63504,note_on,24,0,4,,,,,,,,,,3,,76,0
63504,note_on,24,0,3,,,,,,,,,,2,,79,0
63510,note_on,6,0,4,,,,,,,,,,3,,73,102
63510,note_on,0,0,4,,,,,,,,,,3,,76,102
63510,note_on,6,0,3,,,,,,,,,,2,,79,100
63528,note_on,108,0,5,,,,,,,,,,4,,69,0
63534,note_on,54,0,6,,,,,,,,,,5,,37,0
63534,note_on,0,0,4,,,,,,,,,,3,,73,0
63534,note_on,24,0,4,,,,,,,,,,3,,76,0
63534,note_on,24,0,3,,,,,,,,,,2,,79,0
63540,note_on,0,0,4,,,,,,,,,,3,,76,102
63540,note_on,6,0,4,,,,,,,,,,3,,73,102
63540,note_on,6,0,6,,,,,,,,,,5,,38,100
63540,note_on,12,0,5,,,,,,,,,,4,,69,95
63540,note_on,6,0,3,,,,,,,,,,2,,79,100
63564,note_on,0,0,4,,,,,,,,,,3,,73,0
63564,note_on,24,0,3,,,,,,,,,,2,,79,0
63564,note_on,24,0,4,,,,,,,,,,3,,76,0
63570,note_on,6,0,4,,,,,,,,,,3,,73,102
63570,note_on,0,0,4,,,,,,,,,,3,,76,102
63570,note_on,6,0,3,,,,,,,,,,2,,79,100
63594,note_on,24,0,3,,,,,,,,,,2,,79,0
63594,note_on,24,0,4,,,,,,,,,,3,,76,0
63594,note_on,0,0,4,,,,,,,,,,3,,73,0
63594,note_on,54,0,6,,,,,,,,,,5,,38,0
63600,note_on,6,0,4,,,,,,,,,,3,,73,96
63600,note_on,0,0,4,,,,,,,,,,3,,76,96
63600,note_on,6,0,3,,,,,,,,,,2,,79,96
63600,note_on,6,0,6,,,,,,,,,,5,,40,104
63624,note_on,0,0,4,,,,,,,,,,3,,73,0
63624,note_on,24,0,4,,,,,,,,,,3,,76,0
63624,note_on,24,0,3,,,,,,,,,,2,,79,0
63630,note_on,0,0,4,,,,,,,,,,3,,76,96
63630,note_on,6,0,3,,,,,,,,,,2,,79,96
63630,note_on,6,0,4,,,,,,,,,,3,,73,96
63648,note_on,108,0,5,,,,,,,,,,4,,69,0
63654,note_on,24,0,4,,,,,,,,,,3,,76,0
63654,note_on,0,0,4,,,,,,,,,,3,,73,0
63654,note_on,24,0,3,,,,,,,,,,2,,79,0
63660,note_on,6,0,3,,,,,,,,,,2,,79,96
63660,note_on,12,0,5,,,,,,,,,,4,,69,95
63660,note_on,6,0,4,,,,,,,,,,3,,73,96
63660,note_on,0,0,4,,,,,,,,,,3,,76,96
63684,note_on,0,0,4,,,,,,,,,,3,,73,0
63684,note_on,24,0,3,,,,,,,,,,2,,79,0
63684,note_on,24,0,4,,,,,,,,,,3,,76,0
63690,note_on,0,0,4,,,,,,,,,,3,,76,96
63690,note_on,6,0,3,,,,,,,,,,2,,79,96
63690,note_on,6,0,4,,,,,,,,,,3,,73,96
63708,note_on,108,0,6,,,,,,,,,,5,,40,0
63714,note_on,24,0,3,,,,,,,,,,2,,79,0
63714,note_on,24,0,4,,,,,,,,,,3,,76,0
63714,note_on,0,0,4,,,,,,,,,,3,,73,0
63720,note_on,0,0,4,,,,,,,,,,3,,76,96
63720,note_on,6,0,3,,,,,,,,,,2,,79,96
63720,note_on,6,0,4,,,,,,,,,,3,,73,96
63744,note_on,24,0,4,,,,,,,,,,3,,76,0
63744,note_on,0,0,4,,,,,,,,,,3,,73,0
63744,note_on,24,0,3,,,,,,,,,,2,,79,0
63750,note_on,6,0,4,,,,,,,,,,3,,73,96
63750,note_on,0,0,4,,,,,,,,,,3,,76,96
63750,note_on,6,0,3,,,,,,,,,,2,,79,96
63768,note_on,108,0,5,,,,,,,,,,4,,69,0
63774,note_on,24,0,4,,,,,,,,,,3,,76,0
63774,note_on,0,0,4,,,,,,,,,,3,,73,0
63774,note_on,24,0,3,,,,,,,,,,2,,79,0
63780,note_on,12,0,5,,,,,,,,,,4,,69,97
63780,note_on,6,0,3,,,,,,,,,,2,,79,96
63780,note_on,0,0,4,,,,,,,,,,3,,76,96
63780,note_on,6,0,4,,,,,,,,,,3,,73,96
63804,note_on,24,0,4,,,,,,,,,,3,,76,0
63804,note_on,0,0,4,,,,,,,,,,3,,73,0
63804,note_on,24,0,3,,,,,,,,,,2,,79,0
63810,note_on,6,0,3,,,,,,,,,,2,,79,96
63810,note_on,6,0,4,,,,,,,,,,3,,73,96
63810,note_on,0,0,4,,,,,,,,,,3,,76,96
63816,note_on,0,0,1,,,,,,,,,,0,,76,0
63816,note_on,0,0,2,,,,,,,,,,1,,76,0
63816,note_on,456,0,2,,,,,,,,,,1,,79,0
63816,note_on,456,0,1,,,,,,,,,,0,,79,0
63834,note_on,0,0,4,,,,,,,,,,3,,73,0
63834,note_on,24,0,4,,,,,,,,,,3,,76,0
63834,note_on,24,0,3,,,,,,,,,,2,,79,0
63840,note_on,6,0,3,,,,,,,,,,2,,78,95
63840,note_on,24,0,2,,,,,,,,,,1,,74,94
63840,note_on,0,0,2,,,,,,,,,,1,,78,92
63840,note_on,24,0,1,,,,,,,,,,0,,74,95
63840,note_on,0,0,1,,,,,,,,,,0,,78,93
63840,note_on,6,0,4,,,,,,,,,,3,,78,106
63840,note_on,132,0,6,,,,,,,,,,5,,38,88
63894,note_on,54,0,4,,,,,,,,,,3,,78,0
63894,note_on,54,0,3,,,,,,,,,,2,,78,0
63900,note_on,6,0,4,,,,,,,,,,3,,62,71
63900,note_on,6,0,3,,,,,,,,,,2,,62,71
63948,note_on,108,0,2,,,,,,,,,,1,,78,0
63948,note_on,168,0,5,,,,,,,,,,4,,69,0
63948,note_on,0,0,1,,,,,,,,,,0,,74,0
63948,note_on,108,0,1,,,,,,,,,,0,,78,0
63948,note_on,0,0,2,,,,,,,,,,1,,74,0
63948,note_on,108,0,6,,,,,,,,,,5,,38,0
63954,note_on,54,0,3,,,,,,,,,,2,,62,0
63954,note_on,54,0,4,,,,,,,,,,3,,62,0
63960,note_on,6,0,3,,,,,,,,,,2,,66,104
63960,note_on,6,0,4,,,,,,,,,,3,,66,105
64014,note_on,54,0,4,,,,,,,,,,3,,66,0
64014,note_on,54,0,3,,,,,,,,,,2,,66,0
64020,note_on,6,0,4,,,,,,,,,,3,,69,104
64020,note_on,6,0,3,,,,,,,,,,2,,69,104
64074,note_on,54,0,4,,,,,,,,,,3,,69,0
64074,note_on,54,0,3,,,,,,,,,,2,,69,0
64080,note_on,0,0,2,,,,,,,,,,1,,81,85
64080,note_on,6,0,4,,,,,,,,,,3,,74,114
64080,note_on,132,0,2,,,,,,,,,,1,,69,87
64080,note_on,132,0,5,,,,,,,,,,4,,69,90
64080,note_on,6,0,3,,,,,,,,,,2,,74,113
64080,note_on,132,0,1,,,,,,,,,,0,,74,88
64080,note_on,132,0,6,,,,,,,,,,5,,50,88
64134,note_on,54,0,5,,,,,,,,,,4,,69,0
64134,note_on,54,0,6,,,,,,,,,,5,,50,0
64140,note_on,6,0,5,,,,,,,,,,4,,69,94
64140,note_on,6,0,6,,,,,,,,,,5,,45,83
64161,note_on,81,0,1,,,,,,,,,,0,,74,0
64161,note_on,81,0,3,,,,,,,,,,2,,74,0
64161,note_on,81,0,4,,,,,,,,,,3,,74,0
64170,note_on,9,0,3,,,,,,,,,,2,,76,102
64170,note_on,9,0,1,,,,,,,,,,0,,76,101
64170,note_on,9,0,4,,,,,,,,,,3,,76,104
64194,note_on,54,0,5,,,,,,,,,,4,,69,0
64194,note_on,54,0,6,,,,,,,,,,5,,45,0
64197,note_on,27,0,4,,,,,,,,,,3,,76,0
64197,note_on,27,0,1,,,,,,,,,,0,,76,0
64197,note_on,27,0,3,,,,,,,,,,2,,76,0
64200,note_on,6,0,6,,,,,,,,,,5,,49,105
64200,note_on,6,0,5,,,,,,,,,,4,,69,99
64200,note_on,3,0,1,,,,,,,,,,0,,76,99
64200,note_on,3,0,4,,,,,,,,,,3,,76,99
64200,note_on,3,0,3,,,,,,,,,,2,,76,99
64213,note_on,13,0,4,,,,,,,,,,3,,76,0
64213,note_on,13,0,3,,,,,,,,,,2,,76,0
64213,note_on,13,0,1,,,,,,,,,,0,,76,0
64215,note_on,2,0,4,,,,,,,,,,3,,78,100
64215,note_on,2,0,3,,,,,,,,,,2,,78,100
64215,note_on,2,0,1,,,,,,,,,,0,,78,104
64228,note_on,13,0,1,,,,,,,,,,0,,78,0
64228,note_on,13,0,3,,,,,,,,,,2,,78,0
64228,note_on,13,0,4,,,,,,,,,,3,,78,0
64230,note_on,2,0,3,,,,,,,,,,2,,76,92
64230,note_on,2,0,1,,,,,,,,,,0,,76,88
64230,note_on,2,0,4,,,,,,,,,,3,,76,88
64243,note_on,13,0,3,,,,,,,,,,2,,76,0
64243,note_on,13,0,4,,,,,,,,,,3,,76,0
64243,note_on,13,0,1,,,,,,,,,,0,,76,0
64245,note_on,2,0,4,,,,,,,,,,3,,78,100
64245,note_on,2,0,1,,,,,,,,,,0,,78,99
64245,note_on,2,0,3,,,,,,,,,,2,,78,101
64254,note_on,54,0,6,,,,,,,,,,5,,49,0
64254,note_on,54,0,5,,,,,,,,,,4,,69,0
64258,note_on,13,0,4,,,,,,,,,,3,,78,0
64258,note_on,13,0,1,,,,,,,,,,0,,78,0
64258,note_on,13,0,3,,,,,,,,,,2,,78,0
64260,note_on,6,0,6,,,,,,,,,,5,,45,89
64260,note_on,2,0,1,,,,,,,,,,0,,76,92
64260,note_on,6,0,5,,,,,,,,,,4,,69,95
64260,note_on,2,0,4,,,,,,,,,,3,,76,89
64260,note_on,2,0,3,,,,,,,,,,2,,76,90
64273,note_on,13,0,3,,,,,,,,,,2,,76,0
64273,note_on,13,0,4,,,,,,,,,,3,,76,0
64273,note_on,13,0,1,,,,,,,,,,0,,76,0
64275,note_on,2,0,1,,,,,,,,,,0,,78,102
64275,note_on,2,0,3,,,,,,,,,,2,,78,100
64275,note_on,2,0,4,,,,,,,,,,3,,78,103
64288,note_on,13,0,3,,,,,,,,,,2,,78,0
64288,note_on,13,0,1,,,,,,,,,,0,,78,0
64288,note_on,13,0,4,,,,,,,,,,3,,78,0
64290,note_on,2,0,4,,,,,,,,,,3,,74,86
64290,note_on,2,0,3,,,,,,,,,,2,,74,85
64290,note_on,2,0,1,,,,,,,,,,0,,74,85
64296,note_on,0,0,2,,,,,,,,,,1,,69,0
64296,note_on,216,0,2,,,,,,,,,,1,,81,0
64303,note_on,13,0,1,,,,,,,,,,0,,74,0
64303,note_on,13,0,3,,,,,,,,,,2,,74,0
64303,note_on,13,0,4,,,,,,,,,,3,,74,0
64305,note_on,2,0,1,,,,,,,,,,0,,76,100
64305,note_on,2,0,4,,,,,,,,,,3,,76,99
64305,note_on,2,0,3,,,,,,,,,,2,,76,102
64314,note_on,54,0,5,,,,,,,,,,4,,69,0
64314,note_on,54,0,6,,,,,,,,,,5,,45,0
64318,note_on,13,0,3,,,,,,,,,,2,,76,0
64318,note_on,13,0,4,,,,,,,,,,3,,76,0
64318,note_on,13,0,1,,,,,,,,,,0,,76,0
64320,note_on,24,0,2,,,,,,,,,,1,,69,97
64320,note_on,6,0,5,,,,,,,,,,4,,69,101
64320,note_on,2,0,3,,,,,,,,,,2,,78,107
64320,note_on,2,0,1,,,,,,,,,,0,,78,104
64320,note_on,2,0,4,,,,,,,,,,3,,78,105
64320,note_on,6,0,6,,,,,,,,,,5,,50,108
64320,note_on,0,0,2,,,,,,,,,,1,,81,96
64374,note_on,54,0,3,,,,,,,,,,2,,78,0
64374,note_on,54,0,4,,,,,,,,,,3,,78,0
64380,note_on,6,0,3,,,,,,,,,,2,,66,68
64380,note_on,6,0,4,,,,,,,,,,3,,66,71
64428,note_on,108,0,1,,,,,,,,,,0,,78,0
64428,note_on,108,0,2,,,,,,,,,,1,,81,0
64428,note_on,0,0,2,,,,,,,,,,1,,69,0
64428,note_on,108,0,6,,,,,,,,,,5,,50,0
64428,note_on,108,0,5,,,,,,,,,,4,,69,0
64434,note_on,54,0,3,,,,,,,,,,2,,66,0
64434,note_on,54,0,4,,,,,,,,,,3,,66,0
64440,note_on,6,0,3,,,,,,,,,,2,,69,103
64440,note_on,6,0,4,,,,,,,,,,3,,69,101
64494,note_on,54,0,4,,,,,,,,,,3,,69,0
64494,note_on,54,0,3,,,,,,,,,,2,,69,0
64500,note_on,6,0,4,,,,,,,,,,3,,74,109
64500,note_on,6,0,3,,,,,,,,,,2,,74,109
64554,note_on,54,0,4,,,,,,,,,,3,,74,0
64554,note_on,54,0,3,,,,,,,,,,2,,74,0
64560,note_on,0,0,2,,,,,,,,,,1,,78,88
64560,note_on,132,0,2,,,,,,,,,,1,,74,88
64560,note_on,132,0,6,,,,,,,,,,5,,50,86
64560,note_on,132,0,1,,,,,,,,,,0,,78,90
64560,note_on,6,0,4,,,,,,,,,,3,,78,111
64560,note_on,6,0,3,,,,,,,,,,2,,78,110
64614,note_on,54,0,6,,,,,,,,,,5,,50,0
64620,note_on,6,0,6,,,,,,,,,,5,,50,94
64620,note_on,192,0,5,,,,,,,,,,4,,62,86
64641,note_on,81,0,4,,,,,,,,,,3,,78,0
64641,note_on,81,0,1,,,,,,,,,,0,,78,0
64641,note_on,81,0,3,,,,,,,,,,2,,78,0
64650,note_on,9,0,3,,,,,,,,,,2,,80,105
64650,note_on,9,0,1,,,,,,,,,,0,,80,101
64650,note_on,9,0,4,,,,,,,,,,3,,80,103
64668,note_on,0,0,2,,,,,,,,,,1,,74,0
64668,note_on,108,0,2,,,,,,,,,,1,,78,0
64674,note_on,54,0,5,,,,,,,,,,4,,62,0
64674,note_on,54,0,6,,,,,,,,,,5,,50,0
64677,note_on,27,0,1,,,,,,,,,,0,,80,0
64677,note_on,27,0,4,,,,,,,,,,3,,80,0
64677,note_on,27,0,3,,,,,,,,,,2,,80,0
64680,note_on,3,0,4,,,,,,,,,,3,,80,101
64680,note_on,3,0,3,,,,,,,,,,2,,80,98
64680,note_on,0,0,2,,,,,,,,,,1,,80,100
64680,note_on,12,0,2,,,,,,,,,,1,,74,99
64680,note_on,6,0,6,,,,,,,,,,5,,47,89
64680,note_on,3,0,1,,,,,,,,,,0,,80,100
64680,note_on,6,0,5,,,,,,,,,,4,,74,124
64693,note_on,13,0,4,,,,,,,,,,3,,80,0
64693,note_on,13,0,3,,,,,,,,,,2,,80,0
64693,note_on,13,0,1,,,,,,,,,,0,,80,0
64695,note_on,2,0,1,,,,,,,,,,0,,81,99
64695,note_on,2,0,4,,,,,,,,,,3,,81,102
64695,note_on,2,0,3,,,,,,,,,,2,,81,99
64708,note_on,13,0,3,,,,,,,,,,2,,81,0
64708,note_on,13,0,1,,,,,,,,,,0,,81,0
64708,note_on,13,0,4,,,,,,,,,,3,,81,0
64710,note_on,2,0,3,,,,,,,,,,2,,80,92
64710,note_on,2,0,1,,,,,,,,,,0,,80,92
64710,note_on,2,0,4,,,,,,,,,,3,,80,92
64723,note_on,13,0,1,,,,,,,,,,0,,80,0
64723,note_on,13,0,4,,,,,,,,,,3,,80,0
64723,note_on,13,0,3,,,,,,,,,,2,,80,0
64725,note_on,2,0,1,,,,,,,,,,0,,81,99
64725,note_on,2,0,4,,,,,,,,,,3,,81,99
64725,note_on,2,0,3,,,,,,,,,,2,,81,99
64734,note_on,54,0,6,,,,,,,,,,5,,47,0
64734,note_on,54,0,5,,,,,,,,,,4,,74,0
64738,note_on,13,0,1,,,,,,,,,,0,,81,0
64738,note_on,13,0,3,,,,,,,,,,2,,81,0
64738,note_on,13,0,4,,,,,,,,,,3,,81,0
64740,note_on,2,0,1,,,,,,,,,,0,,80,94
64740,note_on,2,0,4,,,,,,,,,,3,,80,92
64740,note_on,2,0,3,,,,,,,,,,2,,80,92
64740,note_on,6,0,6,,,,,,,,,,5,,47,96
64740,note_on,6,0,5,,,,,,,,,,4,,74,98
64753,note_on,13,0,4,,,,,,,,,,3,,80,0
64753,note_on,13,0,3,,,,,,,,,,2,,80,0
64753,note_on,13,0,1,,,,,,,,,,0,,80,0
64755,note_on,2,0,3,,,,,,,,,,2,,81,100
64755,note_on,2,0,4,,,,,,,,,,3,,81,98
64755,note_on,2,0,1,,,,,,,,,,0,,81,100
64768,note_on,13,0,3,,,,,,,,,,2,,81,0
64768,note_on,13,0,4,,,,,,,,,,3,,81,0
64768,note_on,13,0,1,,,,,,,,,,0,,81,0
64770,note_on,2,0,1,,,,,,,,,,0,,78,88
64770,note_on,2,0,3,,,,,,,,,,2,,78,90
64770,note_on,2,0,4,,,,,,,,,,3,,78,88
64783,note_on,13,0,3,,,,,,,,,,2,,78,0
64783,note_on,13,0,1,,,,,,,,,,0,,78,0
64783,note_on,13,0,4,,,,,,,,,,3,,78,0
64785,note_on,2,0,3,,,,,,,,,,2,,80,99
64785,note_on,2,0,4,,,,,,,,,,3,,80,102
64785,note_on,2,0,1,,,,,,,,,,0,,80,100
64788,note_on,108,0,2,,,,,,,,,,1,,80,0
64788,note_on,0,0,2,,,,,,,,,,1,,74,0
64794,note_on,54,0,5,,,,,,,,,,4,,74,0
64794,note_on,54,0,6,,,,,,,,,,5,,47,0
64798,note_on,13,0,4,,,,,,,,,,3,,80,0
64798,note_on,13,0,1,,,,,,,,,,0,,80,0
64798,note_on,13,0,3,,,,,,,,,,2,,80,0
64800,note_on,6,0,5,,,,,,,,,,4,,69,87
64800,note_on,2,0,4,,,,,,,,,,3,,81,105
64800,note_on,6,0,6,,,,,,,,,,5,,45,94
64800,note_on,12,0,2,,,,,,,,,,1,,69,103
64800,note_on,2,0,1,,,,,,,,,,0,,81,104
64800,note_on,2,0,3,,,,,,,,,,2,,81,104
64800,note_on,0,0,2,,,,,,,,,,1,,81,104
64854,note_on,54,0,2,,,,,,,,,,1,,81,0
64854,note_on,54,0,1,,,,,,,,,,0,,81,0
64854,note_on,0,0,2,,,,,,,,,,1,,69,0
64854,note_on,54,0,4,,,,,,,,,,3,,81,0
64854,note_on,54,0,6,,,,,,,,,,5,,45,0
64854,note_on,54,0,5,,,,,,,,,,4,,69,0
64854,note_on,54,0,3,,,,,,,,,,2,,81,0
64860,note_on,6,0,5,,,,,,,,,,4,,62,77
64860,note_on,6,0,6,,,,,,,,,,5,,38,78
64860,note_on,6,0,3,,,,,,,,,,2,,62,69
64860,note_on,6,0,4,,,,,,,,,,3,,62,70
64860,note_on,6,0,2,,,,,,,,,,1,,62,78
64860,note_on,0,0,2,,,,,,,,,,1,,74,77
64860,note_on,6,0,1,,,,,,,,,,0,,62,71
64914,note_on,54,0,3,,,,,,,,,,2,,62,0
64914,note_on,54,0,1,,,,,,,,,,0,,62,0
64914,note_on,54,0,4,,,,,,,,,,3,,62,0
64914,note_on,54,0,2,,,,,,,,,,1,,74,0
64914,note_on,54,0,6,,,,,,,,,,5,,38,0
64914,note_on,0,0,2,,,,,,,,,,1,,62,0
64914,note_on,54,0,5,,,,,,,,,,4,,62,0
64920,note_on,6,0,2,,,,,,,,,,1,,69,107
64920,note_on,6,0,3,,,,,,,,,,2,,66,105
64920,note_on,6,0,5,,,,,,,,,,4,,66,106
64920,note_on,0,0,2,,,,,,,,,,1,,78,106
64920,note_on,6,0,4,,,,,,,,,,3,,66,106
64920,note_on,6,0,1,,,,,,,,,,0,,66,106
64920,note_on,6,0,6,,,,,,,,,,5,,42,106
64974,note_on,54,0,4,,,,,,,,,,3,,66,0
64974,note_on,54,0,6,,,,,,,,,,5,,42,0
64974,note_on,54,0,1,,,,,,,,,,0,,66,0
64974,note_on,0,0,2,,,,,,,,,,1,,69,0
64974,note_on,54,0,2,,,,,,,,,,1,,78,0
64974,note_on,54,0,5,,,,,,,,,,4,,66,0
64974,note_on,54,0,3,,,,,,,,,,2,,66,0
64980,note_on,6,0,3,,,,,,,,,,2,,69,104
64980,note_on,6,0,2,,,,,,,,,,1,,62,87
64980,note_on,6,0,6,,,,,,,,,,5,,45,104
64980,note_on,0,0,2,,,,,,,,,,1,,74,86
64980,note_on,6,0,4,,,,,,,,,,3,,69,104
64980,note_on,6,0,5,,,,,,,,,,4,,69,103
64980,note_on,6,0,1,,,,,,,,,,0,,69,107
65034,note_on,54,0,3,,,,,,,,,,2,,69,0
65034,note_on,54,0,5,,,,,,,,,,4,,69,0
65034,note_on,54,0,1,,,,,,,,,,0,,69,0
65034,note_on,54,0,4,,,,,,,,,,3,,69,0
65034,note_on,54,0,6,,,,,,,,,,5,,45,0
65040,note_on,6,0,5,,,,,,,,,,4,,74,112
65040,note_on,6,0,6,,,,,,,,,,5,,50,113
65040,note_on,6,0,3,,,,,,,,,,2,,74,111
65040,note_on,6,0,1,,,,,,,,,,0,,74,113
65040,note_on,6,0,4,,,,,,,,,,3,,74,115
65121,note_on,81,0,6,,,,,,,,,,5,,50,0
65121,note_on,81,0,3,,,,,,,,,,2,,74,0
65121,note_on,81,0,4,,,,,,,,,,3,,74,0
65121,note_on,81,0,5,,,,,,,,,,4,,74,0
65121,note_on,81,0,1,,,,,,,,,,0,,74,0
65130,note_on,9,0,4,,,,,,,,,,3,,68,84
65130,note_on,9,0,1,,,,,,,,,,0,,68,81
65130,note_on,9,0,3,,,,,,,,,,2,,68,82
65130,note_on,9,0,6,,,,,,,,,,5,,44,82
65130,note_on,9,0,5,,,,,,,,,,4,,68,84
65157,note_on,27,0,4,,,,,,,,,,3,,68,0
65157,note_on,27,0,5,,,,,,,,,,4,,68,0
65157,note_on,27,0,3,,,,,,,,,,2,,68,0
65157,note_on,27,0,6,,,,,,,,,,5,,44,0
65157,note_on,27,0,1,,,,,,,,,,0,,68,0
65160,note_on,3,0,1,,,,,,,,,,0,,68,97
65160,note_on,3,0,3,,,,,,,,,,2,,68,95
65160,note_on,3,0,5,,,,,,,,,,4,,68,96
65160,note_on,3,0,4,,,,,,,,,,3,,68,94
65160,note_on,3,0,6,,,,,,,,,,5,,44,95
65173,note_on,13,0,1,,,,,,,,,,0,,68,0
65173,note_on,13,0,5,,,,,,,,,,4,,68,0
65173,note_on,13,0,6,,,,,,,,,,5,,44,0
65173,note_on,13,0,3,,,,,,,,,,2,,68,0
65173,note_on,13,0,4,,,,,,,,,,3,,68,0
65175,note_on,2,0,5,,,,,,,,,,4,,69,98
65175,note_on,2,0,4,,,,,,,,,,3,,69,101
65175,note_on,2,0,3,,,,,,,,,,2,,69,100
65175,note_on,2,0,1,,,,,,,,,,0,,69,102
65175,note_on,2,0,6,,,,,,,,,,5,,45,98
65188,note_on,13,0,4,,,,,,,,,,3,,69,0
65188,note_on,13,0,5,,,,,,,,,,4,,69,0
65188,note_on,13,0,6,,,,,,,,,,5,,45,0
65188,note_on,13,0,1,,,,,,,,,,0,,69,0
65188,note_on,13,0,3,,,,,,,,,,2,,69,0
65190,note_on,2,0,6,,,,,,,,,,5,,44,91
65190,note_on,2,0,1,,,,,,,,,,0,,68,94
65190,note_on,2,0,3,,,,,,,,,,2,,68,93
65190,note_on,2,0,4,,,,,,,,,,3,,68,92
65190,note_on,2,0,5,,,,,,,,,,4,,68,93
65196,note_on,216,0,2,,,,,,,,,,1,,74,0
65196,note_on,0,0,2,,,,,,,,,,1,,62,0
65203,note_on,13,0,4,,,,,,,,,,3,,68,0
65203,note_on,13,0,5,,,,,,,,,,4,,68,0
65203,note_on,13,0,6,,,,,,,,,,5,,44,0
65203,note_on,13,0,1,,,,,,,,,,0,,68,0
65203,note_on,13,0,3,,,,,,,,,,2,,68,0
65205,note_on,2,0,5,,,,,,,,,,4,,69,100
65205,note_on,2,0,4,,,,,,,,,,3,,69,98
65205,note_on,2,0,1,,,,,,,,,,0,,69,101
65205,note_on,2,0,3,,,,,,,,,,2,,69,100
65205,note_on,2,0,6,,,,,,,,,,5,,45,98
65218,note_on,13,0,6,,,,,,,,,,5,,45,0
65218,note_on,13,0,3,,,,,,,,,,2,,69,0
65218,note_on,13,0,1,,,,,,,,,,0,,69,0
65218,note_on,13,0,5,,,,,,,,,,4,,69,0
65218,note_on,13,0,4,,,,,,,,,,3,,69,0
65220,note_on,2,0,4,,,,,,,,,,3,,68,91
65220,note_on,2,0,3,,,,,,,,,,2,,68,92
65220,note_on,2,0,1,,,,,,,,,,0,,68,93
65220,note_on,2,0,5,,,,,,,,,,4,,68,94
65220,note_on,2,0,6,,,,,,,,,,5,,44,92
65233,note_on,13,0,1,,,,,,,,,,0,,68,0
65233,note_on,13,0,3,,,,,,,,,,2,,68,0
65233,note_on,13,0,6,,,,,,,,,,5,,44,0
65233,note_on,13,0,5,,,,,,,,,,4,,68,0
65233,note_on,13,0,4,,,,,,,,,,3,,68,0
65235,note_on,2,0,6,,,,,,,,,,5,,45,99
65235,note_on,2,0,4,,,,,,,,,,3,,69,100
65235,note_on,2,0,1,,,,,,,,,,0,,69,101
65235,note_on,2,0,5,,,,,,,,,,4,,69,99
65235,note_on,2,0,3,,,,,,,,,,2,,69,100
65248,note_on,13,0,3,,,,,,,,,,2,,69,0
65248,note_on,13,0,5,,,,,,,,,,4,,69,0
65248,note_on,13,0,4,,,,,,,,,,3,,69,0
65248,note_on,13,0,1,,,,,,,,,,0,,69,0
65248,note_on,13,0,6,,,,,,,,,,5,,45,0
65250,note_on,2,0,1,,,,,,,,,,0,,66,89
65250,note_on,2,0,5,,,,,,,,,,4,,66,90
65250,note_on,2,0,3,,,,,,,,,,2,,66,90
65250,note_on,2,0,6,,,,,,,,,,5,,42,86
65250,note_on,2,0,4,,,,,,,,,,3,,66,89
65263,note_on,13,0,4,,,,,,,,,,3,,66,0
65263,note_on,13,0,5,,,,,,,,,,4,,66,0
65263,note_on,13,0,6,,,,,,,,,,5,,42,0
65263,note_on,13,0,1,,,,,,,,,,0,,66,0
65263,note_on,13,0,3,,,,,,,,,,2,,66,0
65265,note_on,2,0,6,,,,,,,,,,5,,44,99
65265,note_on,2,0,5,,,,,,,,,,4,,68,102
65265,note_on,2,0,1,,,,,,,,,,0,,68,100
65265,note_on,2,0,4,,,,,,,,,,3,,68,102
65265,note_on,2,0,3,,,,,,,,,,2,,68,101
65278,note_on,13,0,3,,,,,,,,,,2,,68,0
65278,note_on,13,0,1,,,,,,,,,,0,,68,0
65278,note_on,13,0,6,,,,,,,,,,5,,44,0
65278,note_on,13,0,4,,,,,,,,,,3,,68,0
65278,note_on,13,0,5,,,,,,,,,,4,,68,0
65280,note_on,0,0,2,,,,,,,,,,1,,69,88
65280,note_on,2,0,5,,,,,,,,,,4,,69,103
65280,note_on,2,0,4,,,,,,,,,,3,,69,102
65280,note_on,84,0,2,,,,,,,,,,1,,57,88
65280,note_on,2,0,1,,,,,,,,,,0,,69,103
65280,note_on,2,0,3,,,,,,,,,,2,,69,103
65280,note_on,2,0,6,,,,,,,,,,5,,45,102
65388,note_on,108,0,6,,,,,,,,,,5,,45,0
65388,note_on,108,0,4,,,,,,,,,,3,,69,0
65388,note_on,108,0,5,,,,,,,,,,4,,69,0
65388,note_on,0,0,2,,,,,,,,,,1,,57,0
65388,note_on,108,0,2,,,,,,,,,,1,,69,0
65388,note_on,108,0,1,,,,,,,,,,0,,69,0
65388,note_on,108,0,3,,,,,,,,,,2,,69,0
65400,note_on,12,0,5,,,,,,,,,,4,,69,94
65400,note_on,0,0,2,,,,,,,,,,1,,69,96
65400,note_on,12,0,2,,,,,,,,,,1,,57,94
65400,note_on,12,0,6,,,,,,,,,,5,,33,68
65400,note_on,0,0,3,,,,,,,,,,2,,69,95
65400,note_on,0,0,3,,,,,,,,,,2,,64,95
65400,note_on,12,0,1,,,,,,,,,,0,,64,108
65400,note_on,0,0,1,,,,,,,,,,0,,73,106
65400,note_on,12,0,4,,,,,,,,,,3,,57,96
65400,note_on,0,0,4,,,,,,,,,,3,,64,98
65400,note_on,0,0,4,,,,,,,,,,3,,69,96
65400,note_on,12,0,3,,,,,,,,,,2,,57,94
65508,note_on,108,0,1,,,,,,,,,,0,,73,0
65508,note_on,0,0,1,,,,,,,,,,0,,64,0
65508,note_on,108,0,2,,,,,,,,,,1,,69,0
65508,note_on,0,0,2,,,,,,,,,,1,,57,0
65508,note_on,108,0,6,,,,,,,,,,5,,33,0
65508,note_on,108,0,5,,,,,,,,,,4,,69,0
65508,note_on,0,0,4,,,,,,,,,,3,,64,0
65508,note_on,0,0,4,,,,,,,,,,3,,57,0
65508,note_on,108,0,4,,,,,,,,,,3,,69,0
65508,note_on,0,0,3,,,,,,,,,,2,,57,0
65508,note_on,108,0,3,,,,,,,,,,2,,69,0
65508,note_on,0,0,3,,,,,,,,,,2,,64,0
65520,note_on,0,0,2,,,,,,,,,,1,,69,96
65520,note_on,12,0,1,,,,,,,,,,0,,64,98
65520,note_on,0,0,1,,,,,,,,,,0,,73,97
65520,note_on,12,0,2,,,,,,,,,,1,,57,96
65520,note_on,12,0,4,,,,,,,,,,3,,57,94
65520,note_on,0,0,4,,,,,,,,,,3,,64,96
65520,note_on,0,0,3,,,,,,,,,,2,,64,96
65520,note_on,0,0,3,,,,,,,,,,2,,69,98
65520,note_on,12,0,5,,,,,,,,,,4,,69,95
65520,note_on,0,0,4,,,,,,,,,,3,,69,96
65520,note_on,12,0,3,,,,,,,,,,2,,57,94
65520,note_on,12,0,6,,,,,,,,,,5,,33,92
65628,note_on,0,0,2,,,,,,,,,,1,,57,0
65628,note_on,108,0,6,,,,,,,,,,5,,33,0
65628,note_on,0,0,4,,,,,,,,,,3,,57,0
65628,note_on,0,0,4,,,,,,,,,,3,,64,0
65628,note_on,108,0,2,,,,,,,,,,1,,69,0
65628,note_on,108,0,4,,,,,,,,,,3,,69,0
65628,note_on,108,0,5,,,,,,,,,,4,,69,0
65628,note_on,0,0,1,,,,,,,,,,0,,64,0
65628,note_on,108,0,3,,,,,,,,,,2,,69,0
65628,note_on,0,0,3,,,,,,,,,,2,,64,0
65628,note_on,0,0,3,,,,,,,,,,2,,57,0
65628,note_on,108,0,1,,,,,,,,,,0,,73,0
65760,note_on,132,0,5,,,,,,,,,,4,,69,46
65760,note_on,132,0,2,,,,,,,,,,1,,57,45
65760,note_on,132,0,6,,,,,,,,,,5,,45,46
65760,note_on,132,0,3,,,,,,,,,,2,,73,48
65760,note_on,0,0,2,,,,,,,,,,1,,69,45
65814,note_on,54,0,6,,,,,,,,,,5,,45,0
65814,note_on,54,0,3,,,,,,,,,,2,,73,0
65814,note_on,54,0,5,,,,,,,,,,4,,69,0
65820,note_on,6,0,6,,,,,,,,,,5,,47,50
65820,note_on,6,0,5,,,,,,,,,,4,,69,48
65820,note_on,6,0,3,,,,,,,,,,2,,74,48
65874,note_on,54,0,5,,,,,,,,,,4,,69,0
65874,note_on,54,0,6,,,,,,,,,,5,,47,0
65874,note_on,54,0,3,,,,,,,,,,2,,74,0
65880,note_on,6,0,5,,,,,,,,,,4,,69,50
65880,note_on,6,0,6,,,,,,,,,,5,,49,53
65880,note_on,6,0,3,,,,,,,,,,2,,76,52
65934,note_on,54,0,6,,,,,,,,,,5,,49,0
65934,note_on,54,0,3,,,,,,,,,,2,,76,0
65934,note_on,54,0,5,,,,,,,,,,4,,69,0
65940,note_on,6,0,3,,,,,,,,,,2,,78,50
65940,note_on,6,0,5,,,,,,,,,,4,,69,48
65940,note_on,6,0,6,,,,,,,,,,5,,50,50
65994,note_on,54,0,6,,,,,,,,,,5,,50,0
65994,note_on,54,0,3,,,,,,,,,,2,,78,0
65994,note_on,54,0,5,,,,,,,,,,4,,69,0
66000,note_on,6,0,5,,,,,,,,,,4,,69,52
66000,note_on,6,0,3,,,,,,,,,,2,,79,50
66000,note_on,6,0,6,,,,,,,,,,5,,52,52
66054,note_on,54,0,5,,,,,,,,,,4,,69,0
66060,note_on,6,0,5,,,,,,,,,,4,,69,49
66108,note_on,108,0,3,,,,,,,,,,2,,79,0
66108,note_on,108,0,6,,,,,,,,,,5,,52,0
66114,note_on,54,0,5,,,,,,,,,,4,,69,0
66120,note_on,6,0,5,,,,,,,,,,4,,69,52
66174,note_on,54,0,5,,,,,,,,,,4,,69,0
66180,note_on,6,0,5,,,,,,,,,,4,,69,49
66234,note_on,54,0,5,,,,,,,,,,4,,69,0
66240,note_on,6,0,5,,,,,,,,,,4,,69,51
66240,note_on,612,0,1,,,,,,,,,,0,,76,48
66240,note_on,132,0,3,,,,,,,,,,2,,79,45
66240,note_on,0,0,1,,,,,,,,,,0,,79,46
66240,note_on,612,0,4,,,,,,,,,,3,,76,89
66269,note_on,29,0,3,,,,,,,,,,2,,79,0
66269,note_on,0,0,1,,,,,,,,,,0,,76,0
66269,note_on,29,0,1,,,,,,,,,,0,,79,0
66269,note_on,29,0,4,,,,,,,,,,3,,76,0
66294,note_on,54,0,5,,,,,,,,,,4,,69,0
66300,note_on,0,0,1,,,,,,,,,,0,,78,46
66300,note_on,31,0,1,,,,,,,,,,0,,74,44
66300,note_on,6,0,5,,,,,,,,,,4,,69,50
66300,note_on,31,0,3,,,,,,,,,,2,,78,44
66300,note_on,31,0,4,,,,,,,,,,3,,74,87
66329,note_on,29,0,4,,,,,,,,,,3,,74,0
66329,note_on,29,0,3,,,,,,,,,,2,,78,0
66329,note_on,29,0,1,,,,,,,,,,0,,78,0
66329,note_on,0,0,1,,,,,,,,,,0,,74,0
66354,note_on,54,0,5,,,,,,,,,,4,,69,0
66360,note_on,31,0,3,,,,,,,,,,2,,76,47
66360,note_on,31,0,4,,,,,,,,,,3,,73,91
66360,note_on,31,0,1,,,,,,,,,,0,,73,47
66360,note_on,0,0,1,,,,,,,,,,0,,76,48
66360,note_on,6,0,5,,,,,,,,,,4,,69,50
66389,note_on,29,0,3,,,,,,,,,,2,,76,0
66389,note_on,0,0,1,,,,,,,,,,0,,73,0
66389,note_on,29,0,1,,,,,,,,,,0,,76,0
66389,note_on,29,0,4,,,,,,,,,,3,,73,0
66414,note_on,54,0,5,,,,,,,,,,4,,69,0
66420,note_on,6,0,5,,,,,,,,,,4,,69,49
66420,note_on,31,0,4,,,,,,,,,,3,,74,97
66420,note_on,31,0,3,,,,,,,,,,2,,78,49
66420,note_on,0,0,1,,,,,,,,,,0,,78,49
66420,note_on,31,0,1,,,,,,,,,,0,,74,52
66449,note_on,29,0,3,,,,,,,,,,2,,78,0
66449,note_on,29,0,4,,,,,,,,,,3,,74,0
66449,note_on,0,0,1,,,,,,,,,,0,,74,0
66449,note_on,29,0,1,,,,,,,,,,0,,78,0
66474,note_on,54,0,5,,,,,,,,,,4,,69,0
66480,note_on,31,0,1,,,,,,,,,,0,,76,49
66480,note_on,31,0,4,,,,,,,,,,3,,76,106
66480,note_on,6,0,5,,,,,,,,,,4,,69,50
66480,note_on,0,0,1,,,,,,,,,,0,,79,50
66480,note_on,31,0,3,,,,,,,,,,2,,79,50
66534,note_on,54,0,5,,,,,,,,,,4,,69,0
66534,note_on,54,0,4,,,,,,,,,,3,,76,0
66540,note_on,6,0,5,,,,,,,,,,4,,69,48
66576,note_on,816,0,2,,,,,,,,,,1,,69,0
66576,note_on,0,0,2,,,,,,,,,,1,,57,0
66588,note_on,108,0,3,,,,,,,,,,2,,79,0
66588,note_on,0,0,1,,,,,,,,,,0,,76,0
66588,note_on,108,0,1,,,,,,,,,,0,,79,0
66594,note_on,54,0,5,,,,,,,,,,4,,69,0
66600,note_on,6,0,5,,,,,,,,,,4,,69,53
66654,note_on,54,0,5,,,,,,,,,,4,,69,0
66660,note_on,6,0,5,,,,,,,,,,4,,69,46
66714,note_on,54,0,5,,,,,,,,,,4,,69,0
66720,note_on,132,0,3,,,,,,,,,,2,,79,90
66720,note_on,144,0,2,,,,,,,,,,1,,81,91
66720,note_on,0,0,2,,,,,,,,,,1,,69,79
66720,note_on,6,0,5,,,,,,,,,,4,,69,101
66720,note_on,186,0,4,,,,,,,,,,3,,76,89
66720,note_on,0,0,1,,,,,,,,,,0,,79,88
66720,note_on,132,0,1,,,,,,,,,,0,,76,90
66720,note_on,612,0,6,,,,,,,,,,5,,33,88
66749,note_on,29,0,1,,,,,,,,,,0,,79,0
66749,note_on,0,0,1,,,,,,,,,,0,,76,0
66749,note_on,29,0,4,,,,,,,,,,3,,76,0
66749,note_on,29,0,3,,,,,,,,,,2,,79,0
66774,note_on,54,0,6,,,,,,,,,,5,,33,0
66780,note_on,6,0,6,,,,,,,,,,5,,33,95
66780,note_on,31,0,1,,,,,,,,,,0,,74,91
66780,note_on,0,0,1,,,,,,,,,,0,,78,89
66780,note_on,31,0,3,,,,,,,,,,2,,78,90
66780,note_on,31,0,4,,,,,,,,,,3,,74,89
66809,note_on,29,0,3,,,,,,,,,,2,,78,0
66809,note_on,29,0,1,,,,,,,,,,0,,78,0
66809,note_on,0,0,1,,,,,,,,,,0,,74,0
66809,note_on,29,0,4,,,,,,,,,,3,,74,0
66834,note_on,54,0,6,,,,,,,,,,5,,33,0
66840,note_on,0,0,1,,,,,,,,,,0,,76,91
66840,note_on,31,0,4,,,,,,,,,,3,,73,92
66840,note_on,31,0,3,,,,,,,,,,2,,76,90
66840,note_on,31,0,1,,,,,,,,,,0,,73,93
66840,note_on,6,0,6,,,,,,,,,,5,,33,99
66869,note_on,29,0,3,,,,,,,,,,2,,76,0
66869,note_on,0,0,1,,,,,,,,,,0,,73,0
66869,note_on,29,0,1,,,,,,,,,,0,,76,0
66869,note_on,29,0,4,,,,,,,,,,3,,73,0
66894,note_on,54,0,6,,,,,,,,,,5,,33,0
66900,note_on,31,0,4,,,,,,,,,,3,,71,87
66900,note_on,31,0,3,,,,,,,,,,2,,74,88
66900,note_on,0,0,1,,,,,,,,,,0,,74,87
66900,note_on,31,0,1,,,,,,,,,,0,,71,90
66900,note_on,6,0,6,,,,,,,,,,5,,33,95
66929,note_on,29,0,4,,,,,,,,,,3,,71,0
66929,note_on,0,0,1,,,,,,,,,,0,,71,0
66929,note_on,29,0,3,,,,,,,,,,2,,74,0
66929,note_on,29,0,1,,,,,,,,,,0,,74,0
66936,note_on,216,0,2,,,,,,,,,,1,,69,0
66954,note_on,54,0,6,,,,,,,,,,5,,33,0
66960,note_on,6,0,6,,,,,,,,,,5,,33,100
66960,note_on,24,0,2,,,,,,,,,,1,,76,111
66960,note_on,0,0,1,,,,,,,,,,0,,73,91
66960,note_on,31,0,1,,,,,,,,,,0,,69,92
66960,note_on,31,0,3,,,,,,,,,,2,,73,95
66960,note_on,31,0,4,,,,,,,,,,3,,69,93
66989,note_on,29,0,1,,,,,,,,,,0,,73,0
66989,note_on,0,0,1,,,,,,,,,,0,,69,0
66989,note_on,29,0,4,,,,,,,,,,3,,69,0
66989,note_on,29,0,3,,,,,,,,,,2,,73,0
67014,note_on,54,0,6,,,,,,,,,,5,,33,0
67020,note_on,31,0,3,,,,,,,,,,2,,71,89
67020,note_on,6,0,6,,,,,,,,,,5,,33,97
67020,note_on,31,0,4,,,,,,,,,,3,,67,88
67020,note_on,31,0,1,,,,,,,,,,0,,67,87
67020,note_on,0,0,1,,,,,,,,,,0,,71,90
67049,note_on,0,0,1,,,,,,,,,,0,,67,0
67049,note_on,29,0,1,,,,,,,,,,0,,71,0
67049,note_on,29,0,3,,,,,,,,,,2,,71,0
67049,note_on,29,0,4,,,,,,,,,,3,,67,0
67074,note_on,54,0,6,,,,,,,,,,5,,33,0
67080,note_on,0,0,1,,,,,,,,,,0,,69,92
67080,note_on,31,0,1,,,,,,,,,,0,,66,92
67080,note_on,31,0,3,,,,,,,,,,2,,69,93
67080,note_on,31,0,4,,,,,,,,,,3,,66,91
67080,note_on,6,0,6,,,,,,,,,,5,,33,99
67109,note_on,29,0,1,,,,,,,,,,0,,69,0
67109,note_on,29,0,4,,,,,,,,,,3,,66,0
67109,note_on,0,0,1,,,,,,,,,,0,,66,0
67109,note_on,29,0,3,,,,,,,,,,2,,69,0
67134,note_on,54,0,6,,,,,,,,,,5,,33,0
67140,note_on,6,0,6,,,,,,,,,,5,,33,95
67140,note_on,31,0,3,,,,,,,,,,2,,67,89
67140,note_on,0,0,1,,,,,,,,,,0,,67,88
67140,note_on,31,0,4,,,,,,,,,,3,,64,90
67140,note_on,31,0,1,,,,,,,,,,0,,64,89
67169,note_on,29,0,4,,,,,,,,,,3,,64,0
67169,note_on,29,0,3,,,,,,,,,,2,,67,0
67169,note_on,29,0,1,,,,,,,,,,0,,67,0
67169,note_on,0,0,1,,,,,,,,,,0,,64,0
67176,note_on,456,0,5,,,,,,,,,,4,,69,0
67176,note_on,0,0,2,,,,,,,,,,1,,81,0
67176,note_on,216,0,2,,,,,,,,,,1,,76,0
67194,note_on,54,0,6,,,,,,,,,,5,,33,0
67200,note_on,24,0,5,,,,,,,,,,4,,69,98
67200,note_on,31,0,4,,,,,,,,,,3,,66,105
67200,note_on,6,0,6,,,,,,,,,,5,,38,111
67200,note_on,0,0,2,,,,,,,,,,1,,81,96
67200,note_on,24,0,2,,,,,,,,,,1,,78,96
67200,note_on,0,0,1,,,,,,,,,,0,,66,93
67200,note_on,31,0,3,,,,,,,,,,2,,66,92
67200,note_on,31,0,1,,,,,,,,,,0,,62,93
67254,note_on,54,0,6,,,,,,,,,,5,,38,0
67254,note_on,54,0,3,,,,,,,,,,2,,66,0
67254,note_on,54,0,4,,,,,,,,,,3,,66,0
67260,note_on,6,0,6,,,,,,,,,,5,,38,98
67260,note_on,6,0,3,,,,,,,,,,2,,62,83
67260,note_on,6,0,4,,,,,,,,,,3,,62,84
67287,note_on,27,0,3,,,,,,,,,,2,,62,0
67287,note_on,27,0,4,,,,,,,,,,3,,62,0
67287,note_on,27,0,6,,,,,,,,,,5,,38,0
67290,note_on,3,0,6,,,,,,,,,,5,,42,106
67290,note_on,3,0,4,,,,,,,,,,3,,66,105
67290,note_on,3,0,3,,,,,,,,,,2,,66,107
67308,note_on,108,0,5,,,,,,,,,,4,,69,0
67308,note_on,108,0,1,,,,,,,,,,0,,66,0
67308,note_on,0,0,1,,,,,,,,,,0,,62,0
67308,note_on,0,0,2,,,,,,,,,,1,,78,0
67308,note_on,108,0,2,,,,,,,,,,1,,81,0
67317,note_on,27,0,3,,,,,,,,,,2,,66,0
67317,note_on,27,0,4,,,,,,,,,,3,,66,0
67317,note_on,27,0,6,,,,,,,,,,5,,42,0
67320,note_on,3,0,3,,,,,,,,,,2,,69,106
67320,note_on,0,0,2,,,,,,,,,,1,,78,89
67320,note_on,12,0,2,,,,,,,,,,1,,74,89
67320,note_on,3,0,4,,,,,,,,,,3,,69,109
67320,note_on,0,0,1,,,,,,,,,,0,,78,121
67320,note_on,12,0,1,,,,,,,,,,0,,69,121
67320,note_on,3,0,6,,,,,,,,,,5,,45,107
67374,note_on,54,0,4,,,,,,,,,,3,,69,0
67374,note_on,54,0,3,,,,,,,,,,2,,69,0
67374,note_on,54,0,6,,,,,,,,,,5,,45,0
67380,note_on,6,0,4,,,,,,,,,,3,,66,88
67380,note_on,6,0,3,,,,,,,,,,2,,66,89
67380,note_on,6,0,6,,,,,,,,,,5,,42,89
67401,note_on,0,0,2,,,,,,,,,,1,,74,0
67401,note_on,81,0,2,,,,,,,,,,1,,78,0
67407,note_on,27,0,3,,,,,,,,,,2,,66,0
67407,note_on,27,0,4,,,,,,,,,,3,,66,0
67407,note_on,27,0,6,,,,,,,,,,5,,42,0
67410,note_on,0,0,2,,,,,,,,,,1,,78,92
67410,note_on,3,0,4,,,,,,,,,,3,,69,102
67410,note_on,9,0,2,,,,,,,,,,1,,74,92
67410,note_on,3,0,6,,,,,,,,,,5,,45,105
67410,note_on,3,0,3,,,,,,,,,,2,,69,103
67428,note_on,108,0,1,,,,,,,,,,0,,78,0
67428,note_on,0,0,1,,,,,,,,,,0,,69,0
67437,note_on,27,0,4,,,,,,,,,,3,,69,0
67437,note_on,27,0,6,,,,,,,,,,5,,45,0
67437,note_on,27,0,3,,,,,,,,,,2,,69,0
67437,note_on,27,0,2,,,,,,,,,,1,,78,0
67437,note_on,0,0,2,,,,,,,,,,1,,74,0
67440,note_on,0,0,1,,,,,,,,,,0,,74,89
67440,note_on,12,0,1,,,,,,,,,,0,,66,90
67440,note_on,3,0,4,,,,,,,,,,3,,74,109
67440,note_on,0,0,2,,,,,,,,,,1,,78,94
67440,note_on,132,0,5,,,,,,,,,,4,,74,90
67440,note_on,3,0,2,,,,,,,,,,1,,74,96
67440,note_on,3,0,3,,,,,,,,,,2,,74,108
67440,note_on,3,0,6,,,,,,,,,,5,,50,108
67494,note_on,54,0,5,,,,,,,,,,4,,74,0
67500,note_on,6,0,5,,,,,,,,,,4,,69,83
67527,note_on,27,0,5,,,,,,,,,,4,,69,0
67530,note_on,3,0,5,,,,,,,,,,4,,66,87
67548,note_on,108,0,4,,,,,,,,,,3,,74,0
67548,note_on,0,0,1,,,,,,,,,,0,,66,0
67548,note_on,108,0,1,,,,,,,,,,0,,74,0
67548,note_on,108,0,3,,,,,,,,,,2,,74,0
67548,note_on,108,0,6,,,,,,,,,,5,,50,0
67548,note_on,0,0,2,,,,,,,,,,1,,74,0
67548,note_on,108,0,2,,,,,,,,,,1,,78,0
67557,note_on,27,0,5,,,,,,,,,,4,,66,0
67560,note_on,3,0,5,,,,,,,,,,4,,62,86
67614,note_on,54,0,5,,,,,,,,,,4,,62,0
67620,note_on,6,0,5,,,,,,,,,,4,,66,106
67647,note_on,27,0,5,,,,,,,,,,4,,66,0
67650,note_on,3,0,5,,,,,,,,,,4,,62,88
67677,note_on,27,0,5,,,,,,,,,,4,,62,0
67680,note_on,132,0,3,,,,,,,,,,2,,73,44
67680,note_on,132,0,2,,,,,,,,,,1,,57,47
67680,note_on,0,0,2,,,,,,,,,,1,,69,46
67680,note_on,3,0,5,,,,,,,,,,4,,57,44
67680,note_on,132,0,4,,,,,,,,,,3,,69,45
67734,note_on,54,0,4,,,,,,,,,,3,,69,0
67734,note_on,54,0,3,,,,,,,,,,2,,73,0
67734,note_on,54,0,5,,,,,,,,,,4,,57,0
67740,note_on,6,0,4,,,,,,,,,,3,,71,51
67740,note_on,6,0,3,,,,,,,,,,2,,74,51
67740,note_on,6,0,5,,,,,,,,,,4,,57,47
67794,note_on,54,0,4,,,,,,,,,,3,,71,0
67794,note_on,54,0,3,,,,,,,,,,2,,74,0
67794,note_on,54,0,5,,,,,,,,,,4,,57,0
67800,note_on,6,0,3,,,,,,,,,,2,,76,55
67800,note_on,6,0,4,,,,,,,,,,3,,73,55
67800,note_on,6,0,5,,,,,,,,,,4,,57,52
67854,note_on,54,0,4,,,,,,,,,,3,,73,0
67854,note_on,54,0,3,,,,,,,,,,2,,76,0
67854,note_on,54,0,5,,,,,,,,,,4,,57,0
67860,note_on,6,0,5,,,,,,,,,,4,,57,49
67860,note_on,6,0,4,,,,,,,,,,3,,74,48
67860,note_on,6,0,3,,,,,,,,,,2,,78,51
67914,note_on,54,0,5,,,,,,,,,,4,,57,0
67914,note_on,54,0,4,,,,,,,,,,3,,74,0
67914,note_on,54,0,3,,,,,,,,,,2,,78,0
67920,note_on,6,0,5,,,,,,,,,,4,,57,49
67920,note_on,6,0,4,,,,,,,,,,3,,76,52
67920,note_on,6,0,3,,,,,,,,,,2,,79,50
67974,note_on,54,0,5,,,,,,,,,,4,,57,0
67980,note_on,6,0,5,,,,,,,,,,4,,57,48
68028,note_on,108,0,3,,,,,,,,,,2,,79,0
68028,note_on,108,0,4,,,,,,,,,,3,,76,0
68034,note_on,54,0,5,,,,,,,,,,4,,57,0
68040,note_on,6,0,5,,,,,,,,,,4,,57,50
68094,note_on,54,0,5,,,,,,,,,,4,,57,0
68100,note_on,6,0,5,,,,,,,,,,4,,57,46
68136,note_on,456,0,2,,,,,,,,,,1,,69,0
68136,note_on,0,0,2,,,,,,,,,,1,,57,0
68154,note_on,54,0,5,,,,,,,,,,4,,57,0
68160,note_on,24,0,2,,,,,,,,,,1,,69,56
68160,note_on,132,0,4,,,,,,,,,,3,,73,47
68160,note_on,6,0,5,,,,,,,,,,4,,57,51
68160,note_on,612,0,1,,,,,,,,,,0,,73,88
68160,note_on,0,0,1,,,,,,,,,,0,,76,87
68160,note_on,132,0,3,,,,,,,,,,2,,76,46
68160,note_on,612,0,6,,,,,,,,,,5,,33,90
68160,note_on,0,0,2,,,,,,,,,,1,,76,58
68189,note_on,29,0,3,,,,,,,,,,2,,76,0
68189,note_on,29,0,1,,,,,,,,,,0,,76,0
68189,note_on,29,0,4,,,,,,,,,,3,,73,0
68189,note_on,0,0,1,,,,,,,,,,0,,73,0
68214,note_on,0,0,2,,,,,,,,,,1,,69,0
68214,note_on,54,0,2,,,,,,,,,,1,,76,0
68214,note_on,54,0,5,,,,,,,,,,4,,57,0
68220,note_on,31,0,1,,,,,,,,,,0,,74,101
68220,note_on,0,0,1,,,,,,,,,,0,,78,102
68220,note_on,6,0,2,,,,,,,,,,1,,74,52
68220,note_on,0,0,2,,,,,,,,,,1,,78,51
68220,note_on,6,0,5,,,,,,,,,,4,,57,47
68220,note_on,31,0,3,,,,,,,,,,2,,78,52
68220,note_on,31,0,4,,,,,,,,,,3,,74,48
68249,note_on,29,0,4,,,,,,,,,,3,,74,0
68249,note_on,29,0,3,,,,,,,,,,2,,78,0
68249,note_on,0,0,1,,,,,,,,,,0,,74,0
68249,note_on,29,0,1,,,,,,,,,,0,,78,0
68274,note_on,54,0,2,,,,,,,,,,1,,78,0
68274,note_on,54,0,5,,,,,,,,,,4,,57,0
68274,note_on,0,0,2,,,,,,,,,,1,,74,0
68280,note_on,31,0,1,,,,,,,,,,0,,76,103
68280,note_on,6,0,5,,,,,,,,,,4,,57,50
68280,note_on,31,0,4,,,,,,,,,,3,,76,52
68280,note_on,0,0,1,,,,,,,,,,0,,79,104
68280,note_on,31,0,3,,,,,,,,,,2,,79,51
68280,note_on,6,0,2,,,,,,,,,,1,,76,52
68280,note_on,0,0,2,,,,,,,,,,1,,79,52
68309,note_on,29,0,3,,,,,,,,,,2,,79,0
68309,note_on,0,0,1,,,,,,,,,,0,,76,0
68309,note_on,29,0,1,,,,,,,,,,0,,79,0
68309,note_on,29,0,4,,,,,,,,,,3,,76,0
68334,note_on,0,0,2,,,,,,,,,,1,,76,0
68334,note_on,54,0,5,,,,,,,,,,4,,57,0
68334,note_on,54,0,2,,,,,,,,,,1,,79,0
68340,note_on,31,0,1,,,,,,,,,,0,,74,93
68340,note_on,6,0,5,,,,,,,,,,4,,57,47
68340,note_on,0,0,1,,,,,,,,,,0,,78,90
68340,note_on,0,0,2,,,,,,,,,,1,,78,48
68340,note_on,6,0,2,,,,,,,,,,1,,74,44
68340,note_on,31,0,3,,,,,,,,,,2,,78,48
68340,note_on,31,0,4,,,,,,,,,,3,,74,46
68369,note_on,0,0,1,,,,,,,,,,0,,74,0
68369,note_on,29,0,4,,,,,,,,,,3,,74,0
68369,note_on,29,0,3,,,,,,,,,,2,,78,0
68369,note_on,29,0,1,,,,,,,,,,0,,78,0
68394,note_on,54,0,5,,,,,,,,,,4,,57,0
68394,note_on,0,0,2,,,,,,,,,,1,,74,0
68394,note_on,54,0,2,,,,,,,,,,1,,78,0
68400,note_on,0,0,2,,,,,,,,,,1,,76,45
68400,note_on,0,0,1,,,,,,,,,,0,,76,91
68400,note_on,31,0,3,,,,,,,,,,2,,76,46
68400,note_on,6,0,2,,,,,,,,,,1,,69,44
68400,note_on,31,0,4,,,,,,,,,,3,,73,46
68400,note_on,6,0,5,,,,,,,,,,4,,57,53
68400,note_on,31,0,1,,,,,,,,,,0,,73,92
68454,note_on,54,0,5,,,,,,,,,,4,,57,0
68460,note_on,6,0,5,,,,,,,,,,4,,57,46
68508,note_on,108,0,1,,,,,,,,,,0,,76,0
68508,note_on,0,0,1,,,,,,,,,,0,,73,0
68508,note_on,108,0,3,,,,,,,,,,2,,76,0
68508,note_on,108,0,2,,,,,,,,,,1,,76,0
68508,note_on,0,0,2,,,,,,,,,,1,,69,0
68508,note_on,108,0,4,,,,,,,,,,3,,73,0
68514,note_on,54,0,5,,,,,,,,,,4,,57,0
68520,note_on,6,0,5,,,,,,,,,,4,,57,53
68574,note_on,54,0,5,,,,,,,,,,4,,57,0
68580,note_on,6,0,5,,,,,,,,,,4,,57,47
68616,note_on,456,0,6,,,,,,,,,,5,,33,0
68634,note_on,54,0,5,,,,,,,,,,4,,57,0
68640,note_on,132,0,1,,,,,,,,,,0,,76,91
68640,note_on,6,0,5,,,,,,,,,,4,,57,101
68640,note_on,0,0,1,,,,,,,,,,0,,79,89
68640,note_on,24,0,6,,,,,,,,,,5,,33,96
68640,note_on,132,0,3,,,,,,,,,,2,,79,89
68640,note_on,132,0,2,,,,,,,,,,1,,69,87
68640,note_on,132,0,4,,,,,,,,,,3,,76,89
68640,note_on,0,0,2,,,,,,,,,,1,,76,87
68669,note_on,29,0,1,,,,,,,,,,0,,79,0
68669,note_on,29,0,3,,,,,,,,,,2,,79,0
68669,note_on,29,0,4,,,,,,,,,,3,,76,0
68669,note_on,0,0,1,,,,,,,,,,0,,76,0
68694,note_on,54,0,6,,,,,,,,,,5,,33,0
68694,note_on,54,0,5,,,,,,,,,,4,,57,0
68700,note_on,6,0,6,,,,,,,,,,5,,33,95
68700,note_on,31,0,4,,,,,,,,,,3,,74,88
68700,note_on,31,0,1,,,,,,,,,,0,,74,91
68700,note_on,6,0,5,,,,,,,,,,4,,57,95
68700,note_on,31,0,3,,,,,,,,,,2,,78,90
68700,note_on,0,0,1,,,,,,,,,,0,,78,91
68729,note_on,29,0,1,,,,,,,,,,0,,78,0
68729,note_on,0,0,1,,,,,,,,,,0,,74,0
68729,note_on,29,0,4,,,,,,,,,,3,,74,0
68729,note_on,29,0,3,,,,,,,,,,2,,78,0
68754,note_on,54,0,5,,,,,,,,,,4,,57,0
68754,note_on,54,0,6,,,,,,,,,,5,,33,0
68760,note_on,6,0,6,,,,,,,,,,5,,33,100
68760,note_on,6,0,5,,,,,,,,,,4,,57,100
68760,note_on,31,0,4,,,,,,,,,,3,,73,91
68760,note_on,0,0,1,,,,,,,,,,0,,76,92
68760,note_on,31,0,1,,,,,,,,,,0,,73,91
68760,note_on,31,0,3,,,,,,,,,,2,,76,93
68789,note_on,29,0,4,,,,,,,,,,3,,73,0
68789,note_on,29,0,1,,,,,,,,,,0,,76,0
68789,note_on,0,0,1,,,,,,,,,,0,,73,0
68789,note_on,29,0,3,,,,,,,,,,2,,76,0
68814,note_on,54,0,5,,,,,,,,,,4,,57,0
68814,note_on,54,0,6,,,,,,,,,,5,,33,0
68820,note_on,31,0,3,,,,,,,,,,2,,74,89
68820,note_on,6,0,5,,,,,,,,,,4,,57,97
68820,note_on,6,0,6,,,,,,,,,,5,,33,95
68820,note_on,0,0,1,,,,,,,,,,0,,74,90
68820,note_on,31,0,1,,,,,,,,,,0,,71,90
68820,note_on,31,0,4,,,,,,,,,,3,,71,87
68849,note_on,29,0,4,,,,,,,,,,3,,71,0
68849,note_on,0,0,1,,,,,,,,,,0,,71,0
68849,note_on,29,0,1,,,,,,,,,,0,,74,0
68849,note_on,29,0,3,,,,,,,,,,2,,74,0
68874,note_on,54,0,6,,,,,,,,,,5,,33,0
68874,note_on,54,0,5,,,,,,,,,,4,,57,0
68880,note_on,0,0,1,,,,,,,,,,0,,73,92
68880,note_on,6,0,6,,,,,,,,,,5,,33,99
68880,note_on,6,0,5,,,,,,,,,,4,,57,99
68880,note_on,31,0,3,,,,,,,,,,2,,73,94
68880,note_on,31,0,1,,,,,,,,,,0,,69,92
68880,note_on,31,0,4,,,,,,,,,,3,,69,93
68909,note_on,29,0,3,,,,,,,,,,2,,73,0
68909,note_on,0,0,1,,,,,,,,,,0,,69,0
68909,note_on,29,0,4,,,,,,,,,,3,,69,0
68909,note_on,29,0,1,,,,,,,,,,0,,73,0
68934,note_on,54,0,5,,,,,,,,,,4,,57,0
68934,note_on,54,0,6,,,,,,,,,,5,,33,0
68940,note_on,31,0,1,,,,,,,,,,0,,67,90
68940,note_on,31,0,3,,,,,,,,,,2,,71,87
68940,note_on,31,0,4,,,,,,,,,,3,,67,88
68940,note_on,6,0,6,,,,,,,,,,5,,33,95
68940,note_on,6,0,5,,,,,,,,,,4,,57,96
68940,note_on,0,0,1,,,,,,,,,,0,,71,89
68969,note_on,29,0,1,,,,,,,,,,0,,71,0
68969,note_on,29,0,4,,,,,,,,,,3,,67,0
68969,note_on,29,0,3,,,,,,,,,,2,,71,0
68969,note_on,0,0,1,,,,,,,,,,0,,67,0
68994,note_on,54,0,6,,,,,,,,,,5,,33,0
68994,note_on,54,0,5,,,,,,,,,,4,,57,0
69000,note_on,31,0,3,,,,,,,,,,2,,69,94
69000,note_on,6,0,5,,,,,,,,,,4,,57,101
69000,note_on,31,0,1,,,,,,,,,,0,,66,93
69000,note_on,6,0,6,,,,,,,,,,5,,33,99
69000,note_on,0,0,1,,,,,,,,,,0,,69,90
69000,note_on,31,0,4,,,,,,,,,,3,,66,94
69029,note_on,29,0,4,,,,,,,,,,3,,66,0
69029,note_on,29,0,1,,,,,,,,,,0,,69,0
69029,note_on,0,0,1,,,,,,,,,,0,,66,0
69029,note_on,29,0,3,,,,,,,,,,2,,69,0
69054,note_on,54,0,6,,,,,,,,,,5,,33,0
69054,note_on,54,0,5,,,,,,,,,,4,,57,0
69060,note_on,6,0,6,,,,,,,,,,5,,33,94
69060,note_on,31,0,3,,,,,,,,,,2,,67,88
69060,note_on,31,0,1,,,,,,,,,,0,,64,88
69060,note_on,31,0,4,,,,,,,,,,3,,64,91
69060,note_on,0,0,1,,,,,,,,,,0,,67,90
69060,note_on,6,0,5,,,,,,,,,,4,,57,96
69089,note_on,29,0,4,,,,,,,,,,3,,64,0
69089,note_on,0,0,1,,,,,,,,,,0,,64,0
69089,note_on,29,0,1,,,,,,,,,,0,,67,0
69089,note_on,29,0,3,,,,,,,,,,2,,67,0
69096,note_on,0,0,2,,,,,,,,,,1,,69,0
69096,note_on,456,0,2,,,,,,,,,,1,,76,0
69114,note_on,54,0,5,,,,,,,,,,4,,57,0
69114,note_on,54,0,6,,,,,,,,,,5,,33,0
69120,note_on,31,0,3,,,,,,,,,,2,,66,94
69120,note_on,6,0,5,,,,,,,,,,4,,57,101
69120,note_on,6,0,6,,,,,,,,,,5,,38,111
69120,note_on,0,0,2,,,,,,,,,,1,,78,103
69120,note_on,31,0,1,,,,,,,,,,0,,62,95
69120,note_on,31,0,4,,,,,,,,,,3,,62,89
69120,note_on,24,0,2,,,,,,,,,,1,,74,104
69120,note_on,0,0,1,,,,,,,,,,0,,66,94
69144,note_on,24,0,4,,,,,,,,,,3,,62,0
69150,note_on,6,0,4,,,,,,,,,,3,,62,89
69174,note_on,24,0,4,,,,,,,,,,3,,62,0
69174,note_on,54,0,5,,,,,,,,,,4,,57,0
69180,note_on,6,0,4,,,,,,,,,,3,,62,89
69180,note_on,6,0,5,,,,,,,,,,4,,69,122
69204,note_on,24,0,4,,,,,,,,,,3,,62,0
69207,note_on,27,0,5,,,,,,,,,,4,,69,0
69210,note_on,6,0,4,,,,,,,,,,3,,62,89
69210,note_on,3,0,5,,,,,,,,,,4,,67,93
69228,note_on,108,0,6,,,,,,,,,,5,,38,0
69228,note_on,0,0,2,,,,,,,,,,1,,74,0
69228,note_on,108,0,3,,,,,,,,,,2,,66,0
69228,note_on,0,0,1,,,,,,,,,,0,,62,0
69228,note_on,108,0,1,,,,,,,,,,0,,66,0
69228,note_on,108,0,2,,,,,,,,,,1,,78,0
69234,note_on,24,0,4,,,,,,,,,,3,,62,0
69237,note_on,27,0,5,,,,,,,,,,4,,67,0
69240,note_on,0,0,1,,,,,,,,,,0,,81,121
69240,note_on,6,0,4,,,,,,,,,,3,,62,89
69240,note_on,3,0,5,,,,,,,,,,4,,66,96
69240,note_on,12,0,3,,,,,,,,,,2,,81,121
69240,note_on,12,0,1,,,,,,,,,,0,,74,123
69264,note_on,24,0,4,,,,,,,,,,3,,62,0
69270,note_on,6,0,4,,,,,,,,,,3,,62,89
69294,note_on,24,0,4,,,,,,,,,,3,,62,0
69294,note_on,54,0,5,,,,,,,,,,4,,66,0
69300,note_on,6,0,4,,,,,,,,,,3,,62,89
69300,note_on,6,0,5,,,,,,,,,,4,,66,95
69324,note_on,24,0,4,,,,,,,,,,3,,62,0
69330,note_on,6,0,4,,,,,,,,,,3,,62,89
69354,note_on,24,0,4,,,,,,,,,,3,,62,0
69354,note_on,54,0,5,,,,,,,,,,4,,66,0
69360,note_on,132,0,2,,,,,,,,,,1,,74,85
69360,note_on,6,0,5,,,,,,,,,,4,,66,98
69360,note_on,6,0,4,,,,,,,,,,3,,62,95
69384,note_on,24,0,4,,,,,,,,,,3,,62,0
69390,note_on,6,0,4,,,,,,,,,,3,,62,95
69414,note_on,54,0,5,,,,,,,,,,4,,66,0
69414,note_on,24,0,4,,,,,,,,,,3,,62,0
69420,note_on,192,0,6,,,,,,,,,,5,,42,88
69420,note_on,6,0,5,,,,,,,,,,4,,69,104
69420,note_on,6,0,4,,,,,,,,,,3,,62,95
69444,note_on,24,0,4,,,,,,,,,,3,,62,0
69447,note_on,27,0,5,,,,,,,,,,4,,69,0
69447,note_on,27,0,6,,,,,,,,,,5,,42,0
69450,note_on,3,0,6,,,,,,,,,,5,,40,89
69450,note_on,6,0,4,,,,,,,,,,3,,62,95
69450,note_on,3,0,5,,,,,,,,,,4,,67,90
69456,note_on,216,0,3,,,,,,,,,,2,,81,0
69456,note_on,216,0,1,,,,,,,,,,0,,81,0
69456,note_on,0,0,1,,,,,,,,,,0,,74,0
69474,note_on,24,0,4,,,,,,,,,,3,,62,0
69477,note_on,27,0,5,,,,,,,,,,4,,67,0
69477,note_on,27,0,6,,,,,,,,,,5,,40,0
69480,note_on,24,0,1,,,,,,,,,,0,,72,81
69480,note_on,0,0,1,,,,,,,,,,0,,74,81
69480,note_on,6,0,4,,,,,,,,,,3,,62,95
69480,note_on,3,0,5,,,,,,,,,,4,,66,95
69480,note_on,3,0,6,,,,,,,,,,5,,38,93
69480,note_on,24,0,3,,,,,,,,,,2,,72,83
69493,note_on,13,0,3,,,,,,,,,,2,,72,0
69495,note_on,2,0,3,,,,,,,,,,2,,74,100
69504,note_on,24,0,4,,,,,,,,,,3,,62,0
69508,note_on,13,0,3,,,,,,,,,,2,,74,0
69510,note_on,6,0,4,,,,,,,,,,3,,62,95
69510,note_on,2,0,3,,,,,,,,,,2,,72,89
69523,note_on,13,0,3,,,,,,,,,,2,,72,0
69525,note_on,2,0,3,,,,,,,,,,2,,74,101
69534,note_on,24,0,4,,,,,,,,,,3,,62,0
69534,note_on,54,0,5,,,,,,,,,,4,,66,0
69534,note_on,54,0,6,,,,,,,,,,5,,38,0
69538,note_on,13,0,3,,,,,,,,,,2,,74,0
69540,note_on,2,0,3,,,,,,,,,,2,,72,91
69540,note_on,6,0,6,,,,,,,,,,5,,42,106
69540,note_on,6,0,5,,,,,,,,,,4,,69,101
69540,note_on,6,0,4,,,,,,,,,,3,,62,95
69553,note_on,13,0,3,,,,,,,,,,2,,72,0
69555,note_on,2,0,3,,,,,,,,,,2,,74,99
69564,note_on,24,0,4,,,,,,,,,,3,,62,0
69568,note_on,13,0,3,,,,,,,,,,2,,74,0
69570,note_on,2,0,3,,,,,,,,,,2,,71,86
69570,note_on,6,0,4,,,,,,,,,,3,,62,95
69583,note_on,13,0,3,,,,,,,,,,2,,71,0
69585,note_on,2,0,3,,,,,,,,,,2,,72,98
69588,note_on,108,0,1,,,,,,,,,,0,,72,0
69594,note_on,54,0,5,,,,,,,,,,4,,69,0
69594,note_on,54,0,6,,,,,,,,,,5,,42,0
69594,note_on,24,0,4,,,,,,,,,,3,,62,0
69598,note_on,13,0,3,,,,,,,,,,2,,72,0
69600,note_on,6,0,4,,,,,,,,,,3,,62,96
69600,note_on,12,0,1,,,,,,,,,,0,,71,89
69600,note_on,6,0,6,,,,,,,,,,5,,43,103
69600,note_on,6,0,5,,,,,,,,,,4,,62,83
69600,note_on,2,0,3,,,,,,,,,,2,,71,95
69624,note_on,24,0,4,,,,,,,,,,3,,62,0
69630,note_on,6,0,4,,,,,,,,,,3,,62,96
69654,note_on,54,0,5,,,,,,,,,,4,,62,0
69654,note_on,24,0,4,,,,,,,,,,3,,62,0
69660,note_on,6,0,4,,,,,,,,,,3,,62,96
69660,note_on,6,0,5,,,,,,,,,,4,,71,115
69684,note_on,24,0,4,,,,,,,,,,3,,62,0
69687,note_on,27,0,5,,,,,,,,,,4,,71,0
69690,note_on,6,0,4,,,,,,,,,,3,,62,96
69690,note_on,3,0,5,,,,,,,,,,4,,69,92
69708,note_on,108,0,1,,,,,,,,,,0,,71,0
69708,note_on,0,0,1,,,,,,,,,,0,,74,0
69708,note_on,108,0,6,,,,,,,,,,5,,43,0
69708,note_on,108,0,3,,,,,,,,,,2,,71,0
69708,note_on,348,0,2,,,,,,,,,,1,,74,0
69714,note_on,24,0,4,,,,,,,,,,3,,62,0
69717,note_on,27,0,5,,,,,,,,,,4,,69,0
69720,note_on,12,0,1,,,,,,,,,,0,,83,115
69720,note_on,0,0,1,,,,,,,,,,0,,76,108
69720,note_on,12,0,3,,,,,,,,,,2,,83,123
69720,note_on,3,0,5,,,,,,,,,,4,,68,94
69720,note_on,6,0,4,,,,,,,,,,3,,64,102
69744,note_on,24,0,4,,,,,,,,,,3,,64,0
69750,note_on,6,0,4,,,,,,,,,,3,,64,102
69774,note_on,54,0,5,,,,,,,,,,4,,68,0
69774,note_on,24,0,4,,,,,,,,,,3,,64,0
69780,note_on,6,0,4,,,,,,,,,,3,,64,102
69780,note_on,6,0,5,,,,,,,,,,4,,68,95
69804,note_on,24,0,4,,,,,,,,,,3,,64,0
69810,note_on,6,0,4,,,,,,,,,,3,,64,102
69834,note_on,54,0,5,,,,,,,,,,4,,68,0
69834,note_on,24,0,4,,,,,,,,,,3,,64,0
69840,note_on,6,0,5,,,,,,,,,,4,,68,99
69840,note_on,6,0,4,,,,,,,,,,3,,64,96
69840,note_on,132,0,2,,,,,,,,,,1,,76,86
69864,note_on,24,0,4,,,,,,,,,,3,,64,0
69870,note_on,6,0,4,,,,,,,,,,3,,64,96
69894,note_on,24,0,4,,,,,,,,,,3,,64,0
69894,note_on,54,0,5,,,,,,,,,,4,,68,0
69900,note_on,192,0,6,,,,,,,,,,5,,44,87
69900,note_on,6,0,4,,,,,,,,,,3,,64,96
69900,note_on,6,0,5,,,,,,,,,,4,,71,106
69924,note_on,24,0,4,,,,,,,,,,3,,64,0
69927,note_on,27,0,5,,,,,,,,,,4,,71,0
69927,note_on,27,0,6,,,,,,,,,,5,,44,0
69930,note_on,3,0,6,,,,,,,,,,5,,42,86
69930,note_on,3,0,5,,,,,,,,,,4,,69,90
69930,note_on,6,0,4,,,,,,,,,,3,,64,96
69936,note_on,216,0,1,,,,,,,,,,0,,76,0
69936,note_on,0,0,1,,,,,,,,,,0,,83,0
69936,note_on,216,0,3,,,,,,,,,,2,,83,0
69954,note_on,24,0,4,,,,,,,,,,3,,64,0
69957,note_on,27,0,5,,,,,,,,,,4,,69,0
69957,note_on,27,0,6,,,,,,,,,,5,,42,0
69960,note_on,24,0,3,,,,,,,,,,2,,74,81
69960,note_on,3,0,6,,,,,,,,,,5,,40,92
69960,note_on,0,0,1,,,,,,,,,,0,,74,90
69960,note_on,24,0,1,,,,,,,,,,0,,76,82
69960,note_on,3,0,5,,,,,,,,,,4,,68,94
69960,note_on,6,0,4,,,,,,,,,,3,,64,96
69973,note_on,13,0,3,,,,,,,,,,2,,74,0
69975,note_on,2,0,3,,,,,,,,,,2,,76,99
69984,note_on,24,0,4,,,,,,,,,,3,,64,0
69988,note_on,13,0,3,,,,,,,,,,2,,76,0
69990,note_on,2,0,3,,,,,,,,,,2,,74,89
69990,note_on,6,0,4,,,,,,,,,,3,,64,96
70003,note_on,13,0,3,,,,,,,,,,2,,74,0
70005,note_on,2,0,3,,,,,,,,,,2,,76,99
70014,note_on,24,0,4,,,,,,,,,,3,,64,0
70014,note_on,54,0,5,,,,,,,,,,4,,68,0
70014,note_on,54,0,6,,,,,,,,,,5,,40,0
70018,note_on,13,0,3,,,,,,,,,,2,,76,0
70020,note_on,6,0,6,,,,,,,,,,5,,44,106
70020,note_on,6,0,4,,,,,,,,,,3,,64,96
70020,note_on,2,0,3,,,,,,,,,,2,,74,92
70020,note_on,6,0,5,,,,,,,,,,4,,71,104
70033,note_on,13,0,3,,,,,,,,,,2,,74,0
70035,note_on,2,0,3,,,,,,,,,,2,,76,100
70044,note_on,24,0,4,,,,,,,,,,3,,64,0
70048,note_on,13,0,3,,,,,,,,,,2,,76,0
70050,note_on,2,0,3,,,,,,,,,,2,,73,88
70050,note_on,6,0,4,,,,,,,,,,3,,64,96
70063,note_on,13,0,3,,,,,,,,,,2,,73,0
70065,note_on,2,0,3,,,,,,,,,,2,,74,99
70068,note_on,108,0,1,,,,,,,,,,0,,74,0
70068,note_on,0,0,1,,,,,,,,,,0,,76,0
70074,note_on,54,0,6,,,,,,,,,,5,,44,0
70074,note_on,24,0,4,,,,,,,,,,3,,64,0
70074,note_on,54,0,5,,,,,,,,,,4,,71,0
70078,note_on,13,0,3,,,,,,,,,,2,,74,0
70080,note_on,0,0,1,,,,,,,,,,0,,73,95
70080,note_on,12,0,1,,,,,,,,,,0,,78,103
70080,note_on,6,0,4,,,,,,,,,,3,,64,100
70080,note_on,240,0,2,,,,,,,,,,1,,69,95
70080,note_on,6,0,5,,,,,,,,,,4,,64,81
70080,note_on,6,0,6,,,,,,,,,,5,,45,104
70080,note_on,2,0,3,,,,,,,,,,2,,73,95
70107,note_on,27,0,3,,,,,,,,,,2,,73,0
70107,note_on,27,0,1,,,,,,,,,,0,,73,0
70107,note_on,0,0,1,,,,,,,,,,0,,78,0
70107,note_on,27,0,4,,,,,,,,,,3,,64,0
70110,note_on,3,0,3,,,,,,,,,,2,,71,91
70110,note_on,3,0,1,,,,,,,,,,0,,74,85
70110,note_on,0,0,1,,,,,,,,,,0,,71,88
70110,note_on,3,0,4,,,,,,,,,,3,,62,89
70137,note_on,27,0,3,,,,,,,,,,2,,71,0
70137,note_on,27,0,1,,,,,,,,,,0,,71,0
70137,note_on,0,0,1,,,,,,,,,,0,,74,0
70137,note_on,27,0,4,,,,,,,,,,3,,62,0
70140,note_on,3,0,3,,,,,,,,,,2,,69,88
70140,note_on,0,0,1,,,,,,,,,,0,,69,87
70140,note_on,3,0,1,,,,,,,,,,0,,73,91
70140,note_on,3,0,4,,,,,,,,,,3,,61,88
70167,note_on,27,0,1,,,,,,,,,,0,,69,0
70167,note_on,27,0,3,,,,,,,,,,2,,69,0
70167,note_on,0,0,1,,,,,,,,,,0,,73,0
70167,note_on,27,0,4,,,,,,,,,,3,,61,0
70170,note_on,3,0,4,,,,,,,,,,3,,62,98
70170,note_on,3,0,3,,,,,,,,,,2,,71,103
70170,note_on,3,0,1,,,,,,,,,,0,,74,98
70170,note_on,0,0,1,,,,,,,,,,0,,71,103
70188,note_on,108,0,2,,,,,,,,,,1,,69,0
70188,note_on,108,0,5,,,,,,,,,,4,,64,0
70188,note_on,108,0,6,,,,,,,,,,5,,45,0
70188,note_on,0,0,2,,,,,,,,,,1,,76,0
70197,note_on,0,0,1,,,,,,,,,,0,,74,0
70197,note_on,27,0,1,,,,,,,,,,0,,71,0
70197,note_on,27,0,3,,,,,,,,,,2,,71,0
70197,note_on,27,0,4,,,,,,,,,,3,,62,0
70200,note_on,12,0,5,,,,,,,,,,4,,64,95
70200,note_on,3,0,4,,,,,,,,,,3,,61,95
70200,note_on,0,0,1,,,,,,,,,,0,,69,92
70200,note_on,12,0,2,,,,,,,,,,1,,69,95
70200,note_on,0,0,2,,,,,,,,,,1,,76,94
70200,note_on,3,0,1,,,,,,,,,,0,,73,92
70200,note_on,12,0,6,,,,,,,,,,5,,45,99
70200,note_on,3,0,3,,,,,,,,,,2,,69,92
70254,note_on,54,0,4,,,,,,,,,,3,,61,0
70254,note_on,54,0,3,,,,,,,,,,2,,69,0
70254,note_on,54,0,5,,,,,,,,,,4,,64,0
70254,note_on,0,0,1,,,,,,,,,,0,,73,0
70254,note_on,54,0,1,,,,,,,,,,0,,69,0
70254,note_on,54,0,6,,,,,,,,,,5,,45,0
70260,note_on,6,0,1,,,,,,,,,,0,,73,94
70260,note_on,0,0,1,,,,,,,,,,0,,69,95
70260,note_on,6,0,5,,,,,,,,,,4,,64,94
70260,note_on,6,0,6,,,,,,,,,,5,,45,95
70260,note_on,6,0,3,,,,,,,,,,2,,69,95
70260,note_on,6,0,4,,,,,,,,,,3,,61,94
70308,note_on,0,0,2,,,,,,,,,,1,,69,0
70308,note_on,108,0,2,,,,,,,,,,1,,76,0
70314,note_on,54,0,4,,,,,,,,,,3,,61,0
70314,note_on,54,0,3,,,,,,,,,,2,,69,0
70314,note_on,54,0,6,,,,,,,,,,5,,45,0
70314,note_on,0,0,1,,,,,,,,,,0,,73,0
70314,note_on,54,0,1,,,,,,,,,,0,,69,0
70314,note_on,54,0,5,,,,,,,,,,4,,64,0
70320,note_on,0,0,2,,,,,,,,,,1,,76,95
70320,note_on,6,0,3,,,,,,,,,,2,,69,94
70320,note_on,6,0,4,,,,,,,,,,3,,61,95
70320,note_on,12,0,2,,,,,,,,,,1,,69,95
70320,note_on,6,0,1,,,,,,,,,,0,,73,95
70320,note_on,6,0,6,,,,,,,,,,5,,45,99
70320,note_on,6,0,5,,,,,,,,,,4,,64,100
70320,note_on,0,0,1,,,,,,,,,,0,,69,96
70374,note_on,54,0,5,,,,,,,,,,4,,64,0
70374,note_on,54,0,6,,,,,,,,,,5,,45,0
70380,note_on,6,0,5,,,,,,,,,,4,,64,95
70380,note_on,6,0,6,,,,,,,,,,5,,43,91
70428,note_on,108,0,3,,,,,,,,,,2,,69,0
70428,note_on,108,0,2,,,,,,,,,,1,,76,0
70428,note_on,0,0,2,,,,,,,,,,1,,69,0
70428,note_on,108,0,1,,,,,,,,,,0,,69,0
70428,note_on,108,0,4,,,,,,,,,,3,,61,0
70428,note_on,0,0,1,,,,,,,,,,0,,73,0
70434,note_on,54,0,6,,,,,,,,,,5,,43,0
70434,note_on,54,0,5,,,,,,,,,,4,,64,0
70440,note_on,6,0,5,,,,,,,,,,4,,66,107
70440,note_on,6,0,6,,,,,,,,,,5,,42,94
70494,note_on,54,0,6,,,,,,,,,,5,,42,0
70494,note_on,54,0,5,,,,,,,,,,4,,66,0
70500,note_on,6,0,5,,,,,,,,,,4,,67,100
70500,note_on,6,0,6,,,,,,,,,,5,,40,88
70554,note_on,54,0,6,,,,,,,,,,5,,40,0
70554,note_on,54,0,5,,,,,,,,,,4,,67,0
70560,note_on,6,0,5,,,,,,,,,,4,,66,48
70560,note_on,132,0,4,,,,,,,,,,3,,69,45
70560,note_on,6,0,6,,,,,,,,,,5,,38,49
70560,note_on,132,0,3,,,,,,,,,,2,,78,46
70614,note_on,54,0,3,,,,,,,,,,2,,78,0
70620,note_on,6,0,3,,,,,,,,,,2,,74,43
70668,note_on,108,0,4,,,,,,,,,,3,,69,0
70668,note_on,108,0,5,,,,,,,,,,4,,66,0
70668,note_on,108,0,6,,,,,,,,,,5,,38,0
70674,note_on,54,0,3,,,,,,,,,,2,,74,0
70680,note_on,6,0,3,,,,,,,,,,2,,73,49
70680,note_on,12,0,4,,,,,,,,,,3,,74,53
70680,note_on,12,0,5,,,,,,,,,,4,,71,55
70680,note_on,12,0,6,,,,,,,,,,5,,47,56
70707,note_on,27,0,3,,,,,,,,,,2,,73,0
70710,note_on,3,0,3,,,,,,,,,,2,,74,47
70737,note_on,27,0,3,,,,,,,,,,2,,74,0
70740,note_on,3,0,3,,,,,,,,,,2,,76,50
70767,note_on,27,0,3,,,,,,,,,,2,,76,0
70770,note_on,3,0,3,,,,,,,,,,2,,78,50
70788,note_on,108,0,5,,,,,,,,,,4,,71,0
70788,note_on,108,0,6,,,,,,,,,,5,,47,0
70797,note_on,27,0,3,,,,,,,,,,2,,78,0
70800,note_on,3,0,3,,,,,,,,,,2,,79,53
70800,note_on,12,0,5,,,,,,,,,,4,,67,44
70800,note_on,12,0,6,,,,,,,,,,5,,43,44
70854,note_on,54,0,3,,,,,,,,,,2,,79,0
70860,note_on,6,0,3,,,,,,,,,,2,,76,43
70896,note_on,216,0,4,,,,,,,,,,3,,74,0
70908,note_on,108,0,6,,,,,,,,,,5,,43,0
70908,note_on,108,0,5,,,,,,,,,,4,,67,0
70914,note_on,54,0,3,,,,,,,,,,2,,76,0
70920,note_on,12,0,5,,,,,,,,,,4,,69,53
70920,note_on,12,0,6,,,,,,,,,,5,,45,53
70920,note_on,24,0,4,,,,,,,,,,3,,73,45
70920,note_on,6,0,3,,,,,,,,,,2,,75,50
70947,note_on,27,0,3,,,,,,,,,,2,,75,0
70950,note_on,3,0,3,,,,,,,,,,2,,76,48
70974,note_on,54,0,5,,,,,,,,,,4,,69,0
70974,note_on,54,0,6,,,,,,,,,,5,,45,0
70977,note_on,27,0,3,,,,,,,,,,2,,76,0
70980,note_on,3,0,3,,,,,,,,,,2,,78,52
70980,note_on,6,0,6,,,,,,,,,,5,,43,44
70980,note_on,6,0,5,,,,,,,,,,4,,67,43
71007,note_on,27,0,3,,,,,,,,,,2,,78,0
71010,note_on,3,0,3,,,,,,,,,,2,,79,48
71028,note_on,108,0,4,,,,,,,,,,3,,73,0
71034,note_on,54,0,6,,,,,,,,,,5,,43,0
71034,note_on,54,0,5,,,,,,,,,,4,,67,0
71037,note_on,27,0,3,,,,,,,,,,2,,79,0
71040,note_on,612,0,1,,,,,,,,,,0,,81,89
71040,note_on,612,0,2,,,,,,,,,,1,,74,87
71040,note_on,0,0,2,,,,,,,,,,1,,81,90
71040,note_on,0,0,1,,,,,,,,,,0,,74,88
71040,note_on,3,0,3,,,,,,,,,,2,,81,106
71040,note_on,12,0,4,,,,,,,,,,3,,74,101
71040,note_on,6,0,5,,,,,,,,,,4,,66,95
71040,note_on,6,0,6,,,,,,,,,,5,,42,93
71094,note_on,54,0,6,,,,,,,,,,5,,42,0
71094,note_on,54,0,5,,,,,,,,,,4,,66,0
71094,note_on,54,0,3,,,,,,,,,,2,,81,0
71094,note_on,54,0,4,,,,,,,,,,3,,74,0
71100,note_on,6,0,4,,,,,,,,,,3,,81,116
71100,note_on,6,0,5,,,,,,,,,,4,,74,116
71100,note_on,6,0,6,,,,,,,,,,5,,42,94
71100,note_on,6,0,3,,,,,,,,,,2,,81,95
71154,note_on,54,0,6,,,,,,,,,,5,,42,0
71154,note_on,54,0,5,,,,,,,,,,4,,74,0
71154,note_on,54,0,3,,,,,,,,,,2,,81,0
71154,note_on,54,0,4,,,,,,,,,,3,,81,0
71160,note_on,6,0,6,,,,,,,,,,5,,42,98
71160,note_on,6,0,5,,,,,,,,,,4,,74,104
71160,note_on,6,0,3,,,,,,,,,,2,,81,100
71160,note_on,6,0,4,,,,,,,,,,3,,81,104
71173,note_on,13,0,3,,,,,,,,,,2,,81,0
71173,note_on,13,0,4,,,,,,,,,,3,,81,0
71175,note_on,2,0,3,,,,,,,,,,2,,83,103
71175,note_on,2,0,4,,,,,,,,,,3,,83,100
71188,note_on,13,0,3,,,,,,,,,,2,,83,0
71188,note_on,13,0,4,,,,,,,,,,3,,83,0
71190,note_on,2,0,4,,,,,,,,,,3,,81,89
71190,note_on,2,0,3,,,,,,,,,,2,,81,92
71203,note_on,13,0,4,,,,,,,,,,3,,81,0
71203,note_on,13,0,3,,,,,,,,,,2,,81,0
71205,note_on,2,0,4,,,,,,,,,,3,,83,99
71205,note_on,2,0,3,,,,,,,,,,2,,83,102
71214,note_on,54,0,6,,,,,,,,,,5,,42,0
71214,note_on,54,0,5,,,,,,,,,,4,,74,0
71218,note_on,13,0,3,,,,,,,,,,2,,83,0
71218,note_on,13,0,4,,,,,,,,,,3,,83,0
71220,note_on,2,0,3,,,,,,,,,,2,,81,89
71220,note_on,6,0,5,,,,,,,,,,4,,74,94
71220,note_on,6,0,6,,,,,,,,,,5,,42,95
71220,note_on,2,0,4,,,,,,,,,,3,,81,91
71233,note_on,13,0,4,,,,,,,,,,3,,81,0
71233,note_on,13,0,3,,,,,,,,,,2,,81,0
71235,note_on,2,0,3,,,,,,,,,,2,,83,102
71235,note_on,2,0,4,,,,,,,,,,3,,83,102
71248,note_on,13,0,4,,,,,,,,,,3,,83,0
71248,note_on,13,0,3,,,,,,,,,,2,,83,0
71250,note_on,2,0,3,,,,,,,,,,2,,79,85
71250,note_on,2,0,4,,,,,,,,,,3,,79,88
71256,note_on,0,0,2,,,,,,,,,,1,,74,0
71256,note_on,216,0,2,,,,,,,,,,1,,81,0
71256,note_on,216,0,1,,,,,,,,,,0,,81,0
71263,note_on,13,0,3,,,,,,,,,,2,,79,0
71263,note_on,13,0,4,,,,,,,,,,3,,79,0
71265,note_on,2,0,4,,,,,,,,,,3,,81,99
71265,note_on,2,0,3,,,,,,,,,,2,,81,101
71274,note_on,54,0,5,,,,,,,,,,4,,74,0
71274,note_on,54,0,6,,,,,,,,,,5,,42,0
71278,note_on,13,0,3,,,,,,,,,,2,,81,0
71278,note_on,13,0,4,,,,,,,,,,3,,81,0
71280,note_on,2,0,3,,,,,,,,,,2,,83,103
71280,note_on,24,0,1,,,,,,,,,,0,,83,100
71280,note_on,2,0,4,,,,,,,,,,3,,83,106
71280,note_on,0,0,2,,,,,,,,,,1,,83,102
71280,note_on,24,0,2,,,,,,,,,,1,,74,98
71280,note_on,6,0,5,,,,,,,,,,4,,74,100
71280,note_on,6,0,6,,,,,,,,,,5,,43,105
71334,note_on,54,0,4,,,,,,,,,,3,,83,0
71334,note_on,54,0,5,,,,,,,,,,4,,74,0
71334,note_on,54,0,6,,,,,,,,,,5,,43,0
71334,note_on,54,0,3,,,,,,,,,,2,,83,0
71340,note_on,6,0,6,,,,,,,,,,5,,43,98
71340,note_on,6,0,4,,,,,,,,,,3,,79,87
71340,note_on,6,0,5,,,,,,,,,,4,,71,85
71340,note_on,6,0,3,,,,,,,,,,2,,79,87
71394,note_on,54,0,3,,,,,,,,,,2,,79,0
71394,note_on,54,0,6,,,,,,,,,,5,,43,0
71394,note_on,54,0,5,,,,,,,,,,4,,71,0
71394,note_on,54,0,4,,,,,,,,,,3,,79,0
71400,note_on,6,0,4,,,,,,,,,,3,,76,91
71400,note_on,6,0,3,,,,,,,,,,2,,76,87
71400,note_on,6,0,6,,,,,,,,,,5,,43,99
71400,note_on,6,0,5,,,,,,,,,,4,,71,97
71454,note_on,54,0,3,,,,,,,,,,2,,76,0
71454,note_on,54,0,6,,,,,,,,,,5,,43,0
71454,note_on,54,0,5,,,,,,,,,,4,,71,0
71454,note_on,54,0,4,,,,,,,,,,3,,76,0
71460,note_on,6,0,3,,,,,,,,,,2,,71,80
71460,note_on,6,0,4,,,,,,,,,,3,,71,81
71460,note_on,6,0,6,,,,,,,,,,5,,43,94
71460,note_on,6,0,5,,,,,,,,,,4,,71,98
71496,note_on,0,0,1,,,,,,,,,,0,,74,0
71496,note_on,216,0,1,,,,,,,,,,0,,83,0
71496,note_on,216,0,2,,,,,,,,,,1,,83,0
71496,note_on,0,0,2,,,,,,,,,,1,,74,0
71514,note_on,54,0,4,,,,,,,,,,3,,71,0
71514,note_on,54,0,6,,,,,,,,,,5,,43,0
71514,note_on,54,0,3,,,,,,,,,,2,,71,0
71514,note_on,54,0,5,,,,,,,,,,4,,71,0
71520,note_on,6,0,3,,,,,,,,,,2,,69,91
71520,note_on,6,0,5,,,,,,,,,,4,,69,93
71520,note_on,6,0,6,,,,,,,,,,5,,45,103
71520,note_on,0,0,1,,,,,,,,,,0,,69,84
71520,note_on,0,0,2,,,,,,,,,,1,,74,94
71520,note_on,24,0,1,,,,,,,,,,0,,78,89
71520,note_on,6,0,4,,,,,,,,,,3,,69,90
71520,note_on,24,0,2,,,,,,,,,,1,,78,85
71574,note_on,54,0,6,,,,,,,,,,5,,45,0
71574,note_on,54,0,5,,,,,,,,,,4,,69,0
71580,note_on,6,0,5,,,,,,,,,,4,,69,93
71580,note_on,6,0,6,,,,,,,,,,5,,45,95
71628,note_on,108,0,4,,,,,,,,,,3,,69,0
71628,note_on,108,0,1,,,,,,,,,,0,,69,0
71634,note_on,54,0,5,,,,,,,,,,4,,69,0
71634,note_on,54,0,6,,,,,,,,,,5,,45,0
71640,note_on,6,0,5,,,,,,,,,,4,,69,100
71640,note_on,12,0,4,,,,,,,,,,3,,74,107
71640,note_on,12,0,1,,,,,,,,,,0,,74,106
71640,note_on,6,0,6,,,,,,,,,,5,,45,97
71694,note_on,54,0,5,,,,,,,,,,4,,69,0
71694,note_on,54,0,6,,,,,,,,,,5,,45,0
71700,note_on,6,0,5,,,,,,,,,,4,,69,96
71700,note_on,6,0,6,,,,,,,,,,5,,45,95
71736,note_on,96,0,1,,,,,,,,,,0,,78,0
71736,note_on,216,0,2,,,,,,,,,,1,,78,0
71736,note_on,216,0,3,,,,,,,,,,2,,69,0
71754,note_on,54,0,6,,,,,,,,,,5,,45,0
71754,note_on,54,0,5,,,,,,,,,,4,,69,0
71760,note_on,6,0,6,,,,,,,,,,5,,33,73
71760,note_on,24,0,3,,,,,,,,,,2,,76,115
71760,note_on,24,0,2,,,,,,,,,,1,,76,87
71760,note_on,24,0,1,,,,,,,,,,0,,76,90
71760,note_on,6,0,5,,,,,,,,,,4,,69,97
71773,note_on,13,0,3,,,,,,,,,,2,,76,0
71773,note_on,13,0,1,,,,,,,,,,0,,76,0
71775,note_on,2,0,3,,,,,,,,,,2,,78,104
71775,note_on,2,0,1,,,,,,,,,,0,,78,101
71788,note_on,13,0,1,,,,,,,,,,0,,78,0
71788,note_on,13,0,3,,,,,,,,,,2,,78,0
71790,note_on,2,0,3,,,,,,,,,,2,,76,90
71790,note_on,2,0,1,,,,,,,,,,0,,76,89
71803,note_on,13,0,3,,,,,,,,,,2,,76,0
71803,note_on,13,0,1,,,,,,,,,,0,,76,0
71805,note_on,2,0,1,,,,,,,,,,0,,78,100
71805,note_on,2,0,3,,,,,,,,,,2,,78,100
71814,note_on,54,0,5,,,,,,,,,,4,,69,0
71814,note_on,54,0,6,,,,,,,,,,5,,33,0
71818,note_on,13,0,1,,,,,,,,,,0,,78,0
71818,note_on,13,0,3,,,,,,,,,,2,,78,0
71820,note_on,2,0,1,,,,,,,,,,0,,76,90
71820,note_on,6,0,5,,,,,,,,,,4,,69,95
71820,note_on,2,0,3,,,,,,,,,,2,,76,91
71820,note_on,6,0,6,,,,,,,,,,5,,33,93
71833,note_on,13,0,1,,,,,,,,,,0,,76,0
71833,note_on,13,0,3,,,,,,,,,,2,,76,0
71835,note_on,2,0,1,,,,,,,,,,0,,78,101
71835,note_on,2,0,3,,,,,,,,,,2,,78,101
71848,note_on,13,0,1,,,,,,,,,,0,,78,0
71848,note_on,13,0,3,,,,,,,,,,2,,78,0
71850,note_on,2,0,3,,,,,,,,,,2,,76,91
71850,note_on,2,0,1,,,,,,,,,,0,,76,89
71856,note_on,216,0,4,,,,,,,,,,3,,74,0
71856,note_on,6,0,1,,,,,,,,,,0,,74,0
71856,note_on,96,0,2,,,,,,,,,,1,,74,0
71863,note_on,13,0,3,,,,,,,,,,2,,76,0
71863,note_on,7,0,1,,,,,,,,,,0,,76,0
71865,note_on,2,0,3,,,,,,,,,,2,,78,102
71865,note_on,2,0,1,,,,,,,,,,0,,78,100
71874,note_on,54,0,6,,,,,,,,,,5,,33,0
71874,note_on,54,0,5,,,,,,,,,,4,,69,0
71878,note_on,13,0,1,,,,,,,,,,0,,78,0
71878,note_on,13,0,3,,,,,,,,,,2,,78,0
71880,note_on,24,0,2,,,,,,,,,,1,,69,84
71880,note_on,0,0,1,,,,,,,,,,0,,73,93
71880,note_on,2,0,1,,,,,,,,,,0,,76,93
71880,note_on,6,0,6,,,,,,,,,,5,,33,98
71880,note_on,24,0,4,,,,,,,,,,3,,73,92
71880,note_on,2,0,3,,,,,,,,,,2,,76,91
71880,note_on,6,0,5,,,,,,,,,,4,,67,93
71893,note_on,13,0,1,,,,,,,,,,0,,76,0
71893,note_on,13,0,3,,,,,,,,,,2,,76,0
71895,note_on,2,0,1,,,,,,,,,,0,,78,100
71895,note_on,2,0,3,,,,,,,,,,2,,78,102
71908,note_on,13,0,1,,,,,,,,,,0,,78,0
71908,note_on,13,0,3,,,,,,,,,,2,,78,0
71910,note_on,2,0,1,,,,,,,,,,0,,76,90
71910,note_on,2,0,3,,,,,,,,,,2,,76,90
71923,note_on,13,0,3,,,,,,,,,,2,,76,0
71923,note_on,13,0,1,,,,,,,,,,0,,76,0
71925,note_on,2,0,3,,,,,,,,,,2,,78,100
71925,note_on,2,0,1,,,,,,,,,,0,,78,102
71934,note_on,54,0,6,,,,,,,,,,5,,33,0
71934,note_on,54,0,5,,,,,,,,,,4,,67,0
71938,note_on,13,0,1,,,,,,,,,,0,,78,0
71938,note_on,13,0,3,,,,,,,,,,2,,78,0
71940,note_on,2,0,1,,,,,,,,,,0,,74,85
71940,note_on,2,0,3,,,,,,,,,,2,,74,87
71940,note_on,6,0,5,,,,,,,,,,4,,67,95
71940,note_on,6,0,6,,,,,,,,,,5,,33,97
71967,note_on,27,0,3,,,,,,,,,,2,,74,0
71967,note_on,27,0,1,,,,,,,,,,0,,74,0
71970,note_on,3,0,1,,,,,,,,,,0,,76,99
71970,note_on,3,0,3,,,,,,,,,,2,,76,99
71976,note_on,96,0,2,,,,,,,,,,1,,76,0
71988,note_on,12,0,2,,,,,,,,,,1,,69,0
71988,note_on,18,0,1,,,,,,,,,,0,,73,0
71988,note_on,108,0,4,,,,,,,,,,3,,73,0
71994,note_on,54,0,5,,,,,,,,,,4,,67,0
71994,note_on,54,0,6,,,,,,,,,,5,,33,0
71997,note_on,27,0,3,,,,,,,,,,2,,76,0
71997,note_on,9,0,1,,,,,,,,,,0,,76,0
72000,note_on,6,0,5,,,,,,,,,,4,,66,49
72000,note_on,12,0,2,,,,,,,,,,1,,66,62
72000,note_on,3,0,1,,,,,,,,,,0,,74,62
72000,note_on,3,0,3,,,,,,,,,,2,,74,48
72000,note_on,6,0,6,,,,,,,,,,5,,38,57
72000,note_on,12,0,4,,,,,,,,,,3,,74,51
72000,note_on,0,0,2,,,,,,,,,,1,,74,60
72054,note_on,54,0,3,,,,,,,,,,2,,74,0
72054,note_on,54,0,4,,,,,,,,,,3,,74,0
72060,note_on,6,0,4,,,,,,,,,,3,,62,37
72060,note_on,6,0,3,,,,,,,,,,2,,62,33
72108,note_on,108,0,5,,,,,,,,,,4,,66,0
72108,note_on,108,0,6,,,,,,,,,,5,,38,0
72108,note_on,108,0,1,,,,,,,,,,0,,74,0
72108,note_on,108,0,2,,,,,,,,,,1,,74,0
72108,note_on,0,0,2,,,,,,,,,,1,,66,0
72114,note_on,54,0,4,,,,,,,,,,3,,62,0
72114,note_on,54,0,3,,,,,,,,,,2,,62,0
72120,note_on,12,0,6,,,,,,,,,,5,,47,61
72120,note_on,6,0,4,,,,,,,,,,3,,61,45
72120,note_on,6,0,3,,,,,,,,,,2,,61,46
72120,note_on,12,0,5,,,,,,,,,,4,,62,42
72147,note_on,27,0,3,,,,,,,,,,2,,61,0
72147,note_on,27,0,4,,,,,,,,,,3,,61,0
72150,note_on,3,0,3,,,,,,,,,,2,,62,48
72150,note_on,3,0,4,,,,,,,,,,3,,62,51
72177,note_on,27,0,3,,,,,,,,,,2,,62,0
72177,note_on,27,0,4,,,,,,,,,,3,,62,0
72180,note_on,3,0,3,,,,,,,,,,2,,64,53
72180,note_on,3,0,4,,,,,,,,,,3,,64,51
72207,note_on,27,0,4,,,,,,,,,,3,,64,0
72207,note_on,27,0,3,,,,,,,,,,2,,64,0
72210,note_on,3,0,4,,,,,,,,,,3,,66,49
72210,note_on,3,0,3,,,,,,,,,,2,,66,53
72228,note_on,108,0,6,,,,,,,,,,5,,47,0
72237,note_on,27,0,3,,,,,,,,,,2,,66,0
72237,note_on,27,0,4,,,,,,,,,,3,,66,0
72240,note_on,3,0,4,,,,,,,,,,3,,67,51
72240,note_on,12,0,6,,,,,,,,,,5,,43,43
72240,note_on,3,0,3,,,,,,,,,,2,,67,54
72294,note_on,54,0,3,,,,,,,,,,2,,67,0
72294,note_on,54,0,4,,,,,,,,,,3,,67,0
72300,note_on,6,0,3,,,,,,,,,,2,,64,43
72300,note_on,6,0,4,,,,,,,,,,3,,64,45
72336,note_on,216,0,5,,,,,,,,,,4,,62,0
72348,note_on,108,0,6,,,,,,,,,,5,,43,0
72354,note_on,54,0,4,,,,,,,,,,3,,64,0
72354,note_on,54,0,3,,,,,,,,,,2,,64,0
72360,note_on,24,0,5,,,,,,,,,,4,,61,45
72360,note_on,12,0,6,,,,,,,,,,5,,45,53
72360,note_on,6,0,4,,,,,,,,,,3,,63,47
72360,note_on,6,0,3,,,,,,,,,,2,,63,49
72387,note_on,27,0,4,,,,,,,,,,3,,63,0
72387,note_on,27,0,3,,,,,,,,,,2,,63,0
72390,note_on,3,0,3,,,,,,,,,,2,,64,49
72390,note_on,3,0,4,,,,,,,,,,3,,64,48
72414,note_on,54,0,6,,,,,,,,,,5,,45,0
72417,note_on,27,0,3,,,,,,,,,,2,,64,0
72417,note_on,27,0,4,,,,,,,,,,3,,64,0
72420,note_on,6,0,6,,,,,,,,,,5,,43,44
72420,note_on,3,0,3,,,,,,,,,,2,,66,51
72420,note_on,3,0,4,,,,,,,,,,3,,66,52
72447,note_on,27,0,4,,,,,,,,,,3,,66,0
72447,note_on,27,0,3,,,,,,,,,,2,,66,0
72450,note_on,3,0,4,,,,,,,,,,3,,67,49
72450,note_on,3,0,3,,,,,,,,,,2,,67,50
72468,note_on,108,0,5,,,,,,,,,,4,,61,0
72474,note_on,54,0,6,,,,,,,,,,5,,43,0
72477,note_on,27,0,3,,,,,,,,,,2,,67,0
72477,note_on,27,0,4,,,,,,,,,,3,,67,0
72480,note_on,3,0,4,,,,,,,,,,3,,69,105
72480,note_on,372,0,2,,,,,,,,,,1,,81,89
72480,note_on,372,0,1,,,,,,,,,,0,,74,89
72480,note_on,6,0,6,,,,,,,,,,5,,42,95
72480,note_on,3,0,3,,,,,,,,,,2,,69,56
72480,note_on,0,0,1,,,,,,,,,,0,,69,89
72480,note_on,12,0,5,,,,,,,,,,4,,62,103
72480,note_on,0,0,2,,,,,,,,,,1,,74,108
72534,note_on,54,0,4,,,,,,,,,,3,,69,0
72534,note_on,54,0,3,,,,,,,,,,2,,69,0
72534,note_on,54,0,5,,,,,,,,,,4,,62,0
72534,note_on,54,0,6,,,,,,,,,,5,,42,0
72540,note_on,6,0,5,,,,,,,,,,4,,62,97
72540,note_on,6,0,6,,,,,,,,,,5,,42,94
72540,note_on,6,0,3,,,,,,,,,,2,,69,94
72540,note_on,6,0,4,,,,,,,,,,3,,69,95
72594,note_on,54,0,6,,,,,,,,,,5,,42,0
72594,note_on,54,0,5,,,,,,,,,,4,,62,0
72594,note_on,54,0,3,,,,,,,,,,2,,69,0
72594,note_on,54,0,4,,,,,,,,,,3,,69,0
72600,note_on,6,0,6,,,,,,,,,,5,,42,99
72600,note_on,6,0,4,,,,,,,,,,3,,69,98
72600,note_on,6,0,5,,,,,,,,,,4,,62,99
72600,note_on,6,0,3,,,,,,,,,,2,,69,99
72613,note_on,13,0,4,,,,,,,,,,3,,69,0
72613,note_on,13,0,3,,,,,,,,,,2,,69,0
72615,note_on,2,0,3,,,,,,,,,,2,,71,102
72615,note_on,2,0,4,,,,,,,,,,3,,71,101
72628,note_on,13,0,4,,,,,,,,,,3,,71,0
72628,note_on,13,0,3,,,,,,,,,,2,,71,0
72630,note_on,2,0,3,,,,,,,,,,2,,69,89
72630,note_on,2,0,4,,,,,,,,,,3,,69,89
72643,note_on,13,0,4,,,,,,,,,,3,,69,0
72643,note_on,13,0,3,,,,,,,,,,2,,69,0
72645,note_on,2,0,4,,,,,,,,,,3,,71,103
72645,note_on,2,0,3,,,,,,,,,,2,,71,100
72654,note_on,54,0,5,,,,,,,,,,4,,62,0
72654,note_on,54,0,6,,,,,,,,,,5,,42,0
72658,note_on,13,0,3,,,,,,,,,,2,,71,0
72658,note_on,13,0,4,,,,,,,,,,3,,71,0
72660,note_on,6,0,5,,,,,,,,,,4,,62,95
72660,note_on,2,0,4,,,,,,,,,,3,,69,88
72660,note_on,6,0,6,,,,,,,,,,5,,42,96
72660,note_on,2,0,3,,,,,,,,,,2,,69,88
72673,note_on,13,0,3,,,,,,,,,,2,,69,0
72673,note_on,13,0,4,,,,,,,,,,3,,69,0
72675,note_on,2,0,4,,,,,,,,,,3,,71,99
72675,note_on,2,0,3,,,,,,,,,,2,,71,100
72688,note_on,13,0,4,,,,,,,,,,3,,71,0
72688,note_on,13,0,3,,,,,,,,,,2,,71,0
72690,note_on,2,0,3,,,,,,,,,,2,,67,87
72690,note_on,2,0,4,,,,,,,,,,3,,67,85
72696,note_on,216,0,2,,,,,,,,,,1,,81,0
72696,note_on,216,0,1,,,,,,,,,,0,,69,0
72703,note_on,13,0,4,,,,,,,,,,3,,67,0
72703,note_on,13,0,3,,,,,,,,,,2,,67,0
72705,note_on,2,0,3,,,,,,,,,,2,,69,99
72705,note_on,2,0,4,,,,,,,,,,3,,69,100
72714,note_on,54,0,6,,,,,,,,,,5,,42,0
72714,note_on,54,0,5,,,,,,,,,,4,,62,0
72718,note_on,13,0,3,,,,,,,,,,2,,69,0
72718,note_on,13,0,4,,,,,,,,,,3,,69,0
72720,note_on,2,0,3,,,,,,,,,,2,,71,104
72720,note_on,6,0,5,,,,,,,,,,4,,62,101
72720,note_on,24,0,2,,,,,,,,,,1,,83,101
72720,note_on,6,0,6,,,,,,,,,,5,,43,101
72720,note_on,24,0,1,,,,,,,,,,0,,71,100
72720,note_on,2,0,4,,,,,,,,,,3,,71,103
72774,note_on,54,0,3,,,,,,,,,,2,,71,0
72774,note_on,54,0,5,,,,,,,,,,4,,62,0
72774,note_on,54,0,6,,,,,,,,,,5,,43,0
72774,note_on,54,0,4,,,,,,,,,,3,,71,0
72780,note_on,6,0,6,,,,,,,,,,5,,43,98
72780,note_on,6,0,4,,,,,,,,,,3,,67,86
72780,note_on,6,0,3,,,,,,,,,,2,,67,87
72780,note_on,6,0,5,,,,,,,,,,4,,62,94
72816,note_on,96,0,1,,,,,,,,,,0,,74,0
72834,note_on,54,0,6,,,,,,,,,,5,,43,0
72834,note_on,54,0,3,,,,,,,,,,2,,67,0
72834,note_on,54,0,4,,,,,,,,,,3,,67,0
72834,note_on,54,0,5,,,,,,,,,,4,,62,0
72840,note_on,6,0,4,,,,,,,,,,3,,64,90
72840,note_on,6,0,3,,,,,,,,,,2,,64,90
72840,note_on,6,0,5,,,,,,,,,,4,,56,84
72840,note_on,24,0,1,,,,,,,,,,0,,76,101
72840,note_on,6,0,6,,,,,,,,,,5,,44,102
72894,note_on,54,0,3,,,,,,,,,,2,,64,0
72894,note_on,54,0,4,,,,,,,,,,3,,64,0
72894,note_on,54,0,5,,,,,,,,,,4,,56,0
72894,note_on,54,0,6,,,,,,,,,,5,,44,0
72900,note_on,6,0,6,,,,,,,,,,5,,44,94
72900,note_on,6,0,3,,,,,,,,,,2,,59,83
72900,note_on,6,0,4,,,,,,,,,,3,,59,81
72900,note_on,6,0,5,,,,,,,,,,4,,56,92
72936,note_on,0,0,2,,,,,,,,,,1,,74,0
72936,note_on,96,0,1,,,,,,,,,,0,,71,0
72936,note_on,216,0,2,,,,,,,,,,1,,83,0
72948,note_on,12,0,1,,,,,,,,,,0,,76,0
72954,note_on,54,0,4,,,,,,,,,,3,,59,0
72954,note_on,54,0,5,,,,,,,,,,4,,56,0
72954,note_on,54,0,3,,,,,,,,,,2,,59,0
72954,note_on,54,0,6,,,,,,,,,,5,,44,0
72960,note_on,0,0,1,,,,,,,,,,0,,69,94
72960,note_on,24,0,2,,,,,,,,,,1,,78,88
72960,note_on,12,0,1,,,,,,,,,,0,,78,104
72960,note_on,6,0,3,,,,,,,,,,2,,57,91
72960,note_on,0,0,2,,,,,,,,,,1,,74,100
72960,note_on,6,0,4,,,,,,,,,,3,,57,89
72960,note_on,6,0,5,,,,,,,,,,4,,57,101
72960,note_on,6,0,6,,,,,,,,,,5,,45,105
73014,note_on,54,0,4,,,,,,,,,,3,,57,0
73014,note_on,54,0,6,,,,,,,,,,5,,45,0
73014,note_on,54,0,5,,,,,,,,,,4,,57,0
73020,note_on,6,0,5,,,,,,,,,,4,,57,96
73020,note_on,6,0,4,,,,,,,,,,3,,57,93
73020,note_on,6,0,6,,,,,,,,,,5,,45,95
73068,note_on,108,0,1,,,,,,,,,,0,,69,0
73074,note_on,54,0,4,,,,,,,,,,3,,57,0
73074,note_on,54,0,5,,,,,,,,,,4,,57,0
73074,note_on,54,0,6,,,,,,,,,,5,,45,0
73080,note_on,6,0,6,,,,,,,,,,5,,45,100
73080,note_on,6,0,4,,,,,,,,,,3,,62,110
73080,note_on,6,0,5,,,,,,,,,,4,,57,98
73080,note_on,12,0,1,,,,,,,,,,0,,74,110
73134,note_on,54,0,4,,,,,,,,,,3,,62,0
73134,note_on,54,0,5,,,,,,,,,,4,,57,0
73134,note_on,54,0,6,,,,,,,,,,5,,45,0
73140,note_on,6,0,4,,,,,,,,,,3,,62,98
73140,note_on,6,0,6,,,,,,,,,,5,,45,96
73140,note_on,6,0,5,,,,,,,,,,4,,57,95
73176,note_on,216,0,3,,,,,,,,,,2,,57,0
73176,note_on,216,0,2,,,,,,,,,,1,,78,0
73176,note_on,96,0,1,,,,,,,,,,0,,78,0
73194,note_on,54,0,6,,,,,,,,,,5,,45,0
73194,note_on,54,0,4,,,,,,,,,,3,,62,0
73194,note_on,54,0,5,,,,,,,,,,4,,57,0
73200,note_on,24,0,3,,,,,,,,,,2,,64,112
73200,note_on,6,0,6,,,,,,,,,,5,,33,73
73200,note_on,24,0,1,,,,,,,,,,0,,76,93
73200,note_on,6,0,4,,,,,,,,,,3,,62,97
73200,note_on,24,0,2,,,,,,,,,,1,,76,86
73200,note_on,6,0,5,,,,,,,,,,4,,57,100
73213,note_on,13,0,1,,,,,,,,,,0,,76,0
73213,note_on,13,0,3,,,,,,,,,,2,,64,0
73215,note_on,2,0,1,,,,,,,,,,0,,78,103
73215,note_on,2,0,3,,,,,,,,,,2,,66,102
73228,note_on,13,0,3,,,,,,,,,,2,,66,0
73228,note_on,13,0,1,,,,,,,,,,0,,78,0
73230,note_on,2,0,1,,,,,,,,,,0,,76,92
73230,note_on,2,0,3,,,,,,,,,,2,,64,92
73243,note_on,13,0,1,,,,,,,,,,0,,76,0
73243,note_on,13,0,3,,,,,,,,,,2,,64,0
73245,note_on,2,0,1,,,,,,,,,,0,,78,100
73245,note_on,2,0,3,,,,,,,,,,2,,66,99
73254,note_on,54,0,5,,,,,,,,,,4,,57,0
73254,note_on,54,0,4,,,,,,,,,,3,,62,0
73254,note_on,54,0,6,,,,,,,,,,5,,33,0
73258,note_on,13,0,1,,,,,,,,,,0,,78,0
73258,note_on,13,0,3,,,,,,,,,,2,,66,0
73260,note_on,6,0,6,,,,,,,,,,5,,33,90
73260,note_on,6,0,4,,,,,,,,,,3,,62,98
73260,note_on,2,0,1,,,,,,,,,,0,,76,90
73260,note_on,6,0,5,,,,,,,,,,4,,57,97
73260,note_on,2,0,3,,,,,,,,,,2,,64,92
73273,note_on,13,0,1,,,,,,,,,,0,,76,0
73273,note_on,13,0,3,,,,,,,,,,2,,64,0
73275,note_on,2,0,1,,,,,,,,,,0,,78,101
73275,note_on,2,0,3,,,,,,,,,,2,,66,103
73288,note_on,13,0,1,,,,,,,,,,0,,78,0
73288,note_on,13,0,3,,,,,,,,,,2,,66,0
73290,note_on,2,0,1,,,,,,,,,,0,,76,91
73290,note_on,2,0,3,,,,,,,,,,2,,64,88
73296,note_on,96,0,2,,,,,,,,,,1,,74,0
73296,note_on,6,0,1,,,,,,,,,,0,,74,0
73303,note_on,13,0,3,,,,,,,,,,2,,64,0
73303,note_on,7,0,1,,,,,,,,,,0,,76,0
73305,note_on,2,0,3,,,,,,,,,,2,,66,102
73305,note_on,2,0,1,,,,,,,,,,0,,78,102
73314,note_on,54,0,6,,,,,,,,,,5,,33,0
73314,note_on,54,0,4,,,,,,,,,,3,,62,0
73314,note_on,54,0,5,,,,,,,,,,4,,57,0
73318,note_on,13,0,3,,,,,,,,,,2,,66,0
73318,note_on,13,0,1,,,,,,,,,,0,,78,0
73320,note_on,2,0,3,,,,,,,,,,2,,64,94
73320,note_on,2,0,1,,,,,,,,,,0,,76,95
73320,note_on,24,0,2,,,,,,,,,,1,,69,82
73320,note_on,6,0,4,,,,,,,,,,3,,61,92
73320,note_on,6,0,6,,,,,,,,,,5,,33,98
73320,note_on,0,0,1,,,,,,,,,,0,,73,93
73320,note_on,6,0,5,,,,,,,,,,4,,57,100
73333,note_on,13,0,1,,,,,,,,,,0,,76,0
73333,note_on,13,0,3,,,,,,,,,,2,,64,0
73335,note_on,2,0,1,,,,,,,,,,0,,78,103
73335,note_on,2,0,3,,,,,,,,,,2,,66,103
73348,note_on,13,0,1,,,,,,,,,,0,,78,0
73348,note_on,13,0,3,,,,,,,,,,2,,66,0
73350,note_on,2,0,3,,,,,,,,,,2,,64,89
73350,note_on,2,0,1,,,,,,,,,,0,,76,91
73363,note_on,13,0,3,,,,,,,,,,2,,64,0
73363,note_on,13,0,1,,,,,,,,,,0,,76,0
73365,note_on,2,0,3,,,,,,,,,,2,,66,102
73365,note_on,2,0,1,,,,,,,,,,0,,78,101
73374,note_on,54,0,6,,,,,,,,,,5,,33,0
73374,note_on,54,0,4,,,,,,,,,,3,,61,0
73374,note_on,54,0,5,,,,,,,,,,4,,57,0
73378,note_on,13,0,3,,,,,,,,,,2,,66,0
73378,note_on,13,0,1,,,,,,,,,,0,,78,0
73380,note_on,2,0,1,,,,,,,,,,0,,74,84
73380,note_on,6,0,5,,,,,,,,,,4,,57,96
73380,note_on,2,0,3,,,,,,,,,,2,,62,85
73380,note_on,6,0,4,,,,,,,,,,3,,61,96
73380,note_on,6,0,6,,,,,,,,,,5,,33,94
73407,note_on,27,0,3,,,,,,,,,,2,,62,0
73407,note_on,27,0,1,,,,,,,,,,0,,74,0
73410,note_on,3,0,1,,,,,,,,,,0,,76,98
73410,note_on,3,0,3,,,,,,,,,,2,,64,98
73416,note_on,96,0,2,,,,,,,,,,1,,76,0
73428,note_on,12,0,2,,,,,,,,,,1,,69,0
73428,note_on,18,0,1,,,,,,,,,,0,,73,0
73434,note_on,54,0,5,,,,,,,,,,4,,57,0
73434,note_on,54,0,4,,,,,,,,,,3,,61,0
73434,note_on,54,0,6,,,,,,,,,,5,,33,0
73437,note_on,9,0,1,,,,,,,,,,0,,76,0
73437,note_on,27,0,3,,,,,,,,,,2,,64,0
73440,note_on,3,0,3,,,,,,,,,,2,,62,93
73440,note_on,12,0,2,,,,,,,,,,1,,74,90
73440,note_on,3,0,1,,,,,,,,,,0,,74,93
73440,note_on,6,0,6,,,,,,,,,,5,,37,108
73440,note_on,6,0,5,,,,,,,,,,4,,62,110
73440,note_on,6,0,4,,,,,,,,,,3,,62,102
73494,note_on,54,0,5,,,,,,,,,,4,,62,0
73494,note_on,54,0,3,,,,,,,,,,2,,62,0
73494,note_on,54,0,4,,,,,,,,,,3,,62,0
73494,note_on,54,0,1,,,,,,,,,,0,,74,0
73494,note_on,54,0,2,,,,,,,,,,1,,74,0
73494,note_on,54,0,6,,,,,,,,,,5,,37,0
73500,note_on,6,0,1,,,,,,,,,,0,,62,67
73500,note_on,6,0,4,,,,,,,,,,3,,62,96
73500,note_on,6,0,6,,,,,,,,,,5,,38,103
73500,note_on,6,0,3,,,,,,,,,,2,,62,95
73500,note_on,6,0,5,,,,,,,,,,4,,62,98
73500,note_on,6,0,2,,,,,,,,,,1,,74,96
73527,note_on,27,0,6,,,,,,,,,,5,,38,0
73527,note_on,27,0,1,,,,,,,,,,0,,62,0
73527,note_on,27,0,4,,,,,,,,,,3,,62,0
73527,note_on,27,0,3,,,,,,,,,,2,,62,0
73527,note_on,27,0,5,,,,,,,,,,4,,62,0
73527,note_on,27,0,2,,,,,,,,,,1,,74,0
73530,note_on,3,0,3,,,,,,,,,,2,,64,104
73530,note_on,3,0,4,,,,,,,,,,3,,64,101
73530,note_on,3,0,6,,,,,,,,,,5,,40,102
73530,note_on,3,0,1,,,,,,,,,,0,,64,97
73530,note_on,3,0,2,,,,,,,,,,1,,76,100
73530,note_on,3,0,5,,,,,,,,,,4,,64,101
73557,note_on,27,0,6,,,,,,,,,,5,,40,0
73557,note_on,27,0,3,,,,,,,,,,2,,64,0
73557,note_on,27,0,4,,,,,,,,,,3,,64,0
73557,note_on,27,0,5,,,,,,,,,,4,,64,0
73557,note_on,27,0,2,,,,,,,,,,1,,76,0
73557,note_on,27,0,1,,,,,,,,,,0,,64,0
73560,note_on,3,0,1,,,,,,,,,,0,,66,106
73560,note_on,3,0,4,,,,,,,,,,3,,66,106
73560,note_on,3,0,5,,,,,,,,,,4,,66,103
73560,note_on,3,0,6,,,,,,,,,,5,,42,105
73560,note_on,3,0,2,,,,,,,,,,1,,78,105
73560,note_on,3,0,3,,,,,,,,,,2,,66,107
73614,note_on,54,0,2,,,,,,,,,,1,,78,0
73614,note_on,54,0,6,,,,,,,,,,5,,42,0
73614,note_on,54,0,3,,,,,,,,,,2,,66,0
73614,note_on,54,0,4,,,,,,,,,,3,,66,0
73614,note_on,54,0,1,,,,,,,,,,0,,66,0
73614,note_on,54,0,5,,,,,,,,,,4,,66,0
73620,note_on,6,0,2,,,,,,,,,,1,,79,100
73620,note_on,6,0,1,,,,,,,,,,0,,67,100
73620,note_on,6,0,3,,,,,,,,,,2,,67,100
73620,note_on,6,0,5,,,,,,,,,,4,,67,103
73620,note_on,6,0,6,,,,,,,,,,5,,43,102
73620,note_on,6,0,4,,,,,,,,,,3,,67,99
73674,note_on,54,0,4,,,,,,,,,,3,,67,0
73674,note_on,54,0,5,,,,,,,,,,4,,67,0
73674,note_on,54,0,3,,,,,,,,,,2,,67,0
73674,note_on,54,0,1,,,,,,,,,,0,,67,0
73674,note_on,54,0,2,,,,,,,,,,1,,79,0
73674,note_on,54,0,6,,,,,,,,,,5,,43,0
73680,note_on,6,0,3,,,,,,,,,,2,,69,102
73680,note_on,6,0,6,,,,,,,,,,5,,45,104
73680,note_on,6,0,2,,,,,,,,,,1,,69,103
73680,note_on,6,0,1,,,,,,,,,,0,,69,103
73680,note_on,6,0,4,,,,,,,,,,3,,69,102
73680,note_on,0,0,2,,,,,,,,,,1,,81,101
73680,note_on,6,0,5,,,,,,,,,,4,,69,104
73788,note_on,108,0,6,,,,,,,,,,5,,45,0
73788,note_on,108,0,1,,,,,,,,,,0,,69,0
73788,note_on,108,0,4,,,,,,,,,,3,,69,0
73788,note_on,0,0,2,,,,,,,,,,1,,69,0
73788,note_on,108,0,3,,,,,,,,,,2,,69,0
73788,note_on,108,0,5,,,,,,,,,,4,,69,0
73788,note_on,108,0,2,,,,,,,,,,1,,81,0
73800,note_on,12,0,6,,,,,,,,,,5,,33,71
73800,note_on,12,0,3,,,,,,,,,,2,,57,107
73800,note_on,0,0,3,,,,,,,,,,2,,64,106
73800,note_on,0,0,3,,,,,,,,,,2,,73,107
73800,note_on,0,0,1,,,,,,,,,,0,,73,108
73800,note_on,12,0,5,,,,,,,,,,4,,57,71
73800,note_on,0,0,4,,,,,,,,,,3,,64,108
73800,note_on,12,0,4,,,,,,,,,,3,,57,106
73800,note_on,0,0,2,,,,,,,,,,1,,69,68
73800,note_on,12,0,2,,,,,,,,,,1,,57,68
73800,note_on,0,0,4,,,,,,,,,,3,,73,107
73800,note_on,12,0,1,,,,,,,,,,0,,67,106
73908,note_on,108,0,6,,,,,,,,,,5,,33,0
73908,note_on,0,0,3,,,,,,,,,,2,,64,0
73908,note_on,108,0,5,,,,,,,,,,4,,57,0
73908,note_on,108,0,1,,,,,,,,,,0,,73,0
73908,note_on,0,0,4,,,,,,,,,,3,,57,0
73908,note_on,0,0,4,,,,,,,,,,3,,64,0
73908,note_on,108,0,4,,,,,,,,,,3,,73,0
73908,note_on,0,0,1,,,,,,,,,,0,,67,0
73908,note_on,0,0,3,,,,,,,,,,2,,57,0
73908,note_on,108,0,3,,,,,,,,,,2,,73,0
73908,note_on,0,0,2,,,,,,,,,,1,,57,0
73908,note_on,108,0,2,,,,,,,,,,1,,69,0
73920,note_on,0,0,3,,,,,,,,,,2,,66,105
73920,note_on,0,0,3,,,,,,,,,,2,,74,104
73920,note_on,12,0,2,,,,,,,,,,1,,74,107
73920,note_on,12,0,4,,,,,,,,,,3,,57,107
73920,note_on,0,0,4,,,,,,,,,,3,,66,107
73920,note_on,12,0,5,,,,,,,,,,4,,62,105
73920,note_on,12,0,3,,,,,,,,,,2,,57,106
73920,note_on,12,0,1,,,,,,,,,,0,,74,105
73920,note_on,0,0,4,,,,,,,,,,3,,74,106
73920,note_on,12,0,6,,,,,,,,,,5,,37,103
73974,note_on,54,0,1,,,,,,,,,,0,,74,0
73974,note_on,54,0,5,,,,,,,,,,4,,62,0
73974,note_on,54,0,2,,,,,,,,,,1,,74,0
73974,note_on,0,0,3,,,,,,,,,,2,,57,0
73974,note_on,0,0,3,,,,,,,,,,2,,66,0
73974,note_on,54,0,3,,,,,,,,,,2,,74,0
73974,note_on,54,0,6,,,,,,,,,,5,,37,0
73974,note_on,54,0,4,,,,,,,,,,3,,74,0
73974,note_on,0,0,4,,,,,,,,,,3,,66,0
73974,note_on,0,0,4,,,,,,,,,,3,,57,0
73980,note_on,6,0,2,,,,,,,,,,1,,74,95
73980,note_on,6,0,3,,,,,,,,,,2,,62,72
73980,note_on,6,0,1,,,,,,,,,,0,,62,70
73980,note_on,6,0,6,,,,,,,,,,5,,38,103
73980,note_on,6,0,5,,,,,,,,,,4,,62,96
73980,note_on,6,0,4,,,,,,,,,,3,,62,71
74007,note_on,27,0,4,,,,,,,,,,3,,62,0
74007,note_on,27,0,1,,,,,,,,,,0,,62,0
74007,note_on,27,0,5,,,,,,,,,,4,,62,0
74007,note_on,27,0,2,,,,,,,,,,1,,74,0
74007,note_on,27,0,3,,,,,,,,,,2,,62,0
74007,note_on,27,0,6,,,,,,,,,,5,,38,0
74010,note_on,3,0,5,,,,,,,,,,4,,64,103
74010,note_on,3,0,1,,,,,,,,,,0,,64,95
74010,note_on,3,0,2,,,,,,,,,,1,,76,101
74010,note_on,3,0,3,,,,,,,,,,2,,64,97
74010,note_on,3,0,6,,,,,,,,,,5,,40,103
74010,note_on,3,0,4,,,,,,,,,,3,,64,98
74037,note_on,27,0,5,,,,,,,,,,4,,64,0
74037,note_on,27,0,1,,,,,,,,,,0,,64,0
74037,note_on,27,0,2,,,,,,,,,,1,,76,0
74037,note_on,27,0,4,,,,,,,,,,3,,64,0
74037,note_on,27,0,3,,,,,,,,,,2,,64,0
74037,note_on,27,0,6,,,,,,,,,,5,,40,0
74040,note_on,3,0,4,,,,,,,,,,3,,66,104
74040,note_on,3,0,5,,,,,,,,,,4,,66,106
74040,note_on,3,0,3,,,,,,,,,,2,,66,106
74040,note_on,3,0,2,,,,,,,,,,1,,78,103
74040,note_on,3,0,6,,,,,,,,,,5,,42,105
74040,note_on,3,0,1,,,,,,,,,,0,,66,105
74094,note_on,54,0,4,,,,,,,,,,3,,66,0
74094,note_on,54,0,3,,,,,,,,,,2,,66,0
74094,note_on,54,0,1,,,,,,,,,,0,,66,0
74094,note_on,54,0,2,,,,,,,,,,1,,78,0
74094,note_on,54,0,6,,,,,,,,,,5,,42,0
74094,note_on,54,0,5,,,,,,,,,,4,,66,0
74100,note_on,6,0,4,,,,,,,,,,3,,67,99
74100,note_on,6,0,6,,,,,,,,,,5,,43,100
74100,note_on,6,0,1,,,,,,,,,,0,,67,100
74100,note_on,6,0,3,,,,,,,,,,2,,67,102
74100,note_on,6,0,2,,,,,,,,,,1,,79,102
74100,note_on,6,0,5,,,,,,,,,,4,,67,100
74154,note_on,54,0,6,,,,,,,,,,5,,43,0
74154,note_on,54,0,2,,,,,,,,,,1,,79,0
74154,note_on,54,0,1,,,,,,,,,,0,,67,0
74154,note_on,54,0,5,,,,,,,,,,4,,67,0
74154,note_on,54,0,4,,,,,,,,,,3,,67,0
74154,note_on,54,0,3,,,,,,,,,,2,,67,0
74160,note_on,0,0,2,,,,,,,,,,1,,81,101
74160,note_on,6,0,4,,,,,,,,,,3,,69,102
74160,note_on,6,0,6,,,,,,,,,,5,,45,101
74160,note_on,6,0,3,,,,,,,,,,2,,69,104
74160,note_on,6,0,2,,,,,,,,,,1,,69,100
74160,note_on,6,0,1,,,,,,,,,,0,,69,103
74160,note_on,6,0,5,,,,,,,,,,4,,69,103
74268,note_on,108,0,4,,,,,,,,,,3,,69,0
74268,note_on,108,0,2,,,,,,,,,,1,,81,0
74268,note_on,108,0,3,,,,,,,,,,2,,69,0
74268,note_on,0,0,2,,,,,,,,,,1,,69,0
74268,note_on,108,0,5,,,,,,,,,,4,,69,0
74268,note_on,108,0,6,,,,,,,,,,5,,45,0
74268,note_on,108,0,1,,,,,,,,,,0,,69,0
74280,note_on,0,0,2,,,,,,,,,,1,,69,72
74280,note_on,0,0,3,,,,,,,,,,2,,73,108
74280,note_on,0,0,4,,,,,,,,,,3,,64,109
74280,note_on,0,0,3,,,,,,,,,,2,,64,109
74280,note_on,12,0,5,,,,,,,,,,4,,57,71
74280,note_on,12,0,1,,,,,,,,,,0,,67,106
74280,note_on,12,0,3,,,,,,,,,,2,,57,107
74280,note_on,0,0,1,,,,,,,,,,0,,73,107
74280,note_on,12,0,6,,,,,,,,,,5,,33,71
74280,note_on,12,0,4,,,,,,,,,,3,,57,107
74280,note_on,0,0,4,,,,,,,,,,3,,73,106
74280,note_on,12,0,2,,,,,,,,,,1,,57,71
74388,note_on,108,0,1,,,,,,,,,,0,,73,0
74388,note_on,0,0,1,,,,,,,,,,0,,67,0
74388,note_on,108,0,3,,,,,,,,,,2,,73,0
74388,note_on,108,0,6,,,,,,,,,,5,,33,0
74388,note_on,108,0,2,,,,,,,,,,1,,69,0
74388,note_on,108,0,5,,,,,,,,,,4,,57,0
74388,note_on,0,0,3,,,,,,,,,,2,,64,0
74388,note_on,0,0,3,,,,,,,,,,2,,57,0
74388,note_on,108,0,4,,,,,,,,,,3,,73,0
74388,note_on,0,0,4,,,,,,,,,,3,,64,0
74388,note_on,0,0,4,,,,,,,,,,3,,57,0
74388,note_on,0,0,2,,,,,,,,,,1,,57,0
74400,note_on,12,0,2,,,,,,,,,,1,,62,106
74400,note_on,0,0,2,,,,,,,,,,1,,74,108
74400,note_on,0,0,4,,,,,,,,,,3,,74,103
74400,note_on,12,0,1,,,,,,,,,,0,,66,103
74400,note_on,0,0,1,,,,,,,,,,0,,74,105
74400,note_on,12,0,4,,,,,,,,,,3,,57,107
74400,note_on,0,0,4,,,,,,,,,,3,,66,105
74400,note_on,12,0,6,,,,,,,,,,5,,38,107
74400,note_on,0,0,3,,,,,,,,,,2,,66,104
74400,note_on,12,0,3,,,,,,,,,,2,,57,103
74400,note_on,12,0,5,,,,,,,,,,4,,62,106
74400,note_on,0,0,3,,,,,,,,,,2,,74,106
74508,note_on,0,0,4,,,,,,,,,,3,,57,0
74508,note_on,0,0,3,,,,,,,,,,2,,66,0
74508,note_on,108,0,6,,,,,,,,,,5,,38,0
74508,note_on,0,0,3,,,,,,,,,,2,,57,0
74508,note_on,108,0,4,,,,,,,,,,3,,74,0
74508,note_on,0,0,4,,,,,,,,,,3,,66,0
74508,note_on,108,0,3,,,,,,,,,,2,,74,0
74508,note_on,108,0,1,,,,,,,,,,0,,74,0
74508,note_on,0,0,2,,,,,,,,,,1,,62,0
74508,note_on,108,0,2,,,,,,,,,,1,,74,0
74508,note_on,108,0,5,,,,,,,,,,4,,62,0
74508,note_on,0,0,1,,,,,,,,,,0,,66,0
74520,note_on,12,0,3,,,,,,,,,,2,,57,96
74520,note_on,12,0,4,,,,,,,,,,3,,57,97
74520,note_on,12,0,1,,,,,,,,,,0,,66,96
74520,note_on,0,0,1,,,,,,,,,,0,,74,95
74520,note_on,0,0,4,,,,,,,,,,3,,66,96
74520,note_on,0,0,4,,,,,,,,,,3,,74,95
74520,set_tempo,74520,1,0,,,,,,437956,,,,,,,
74520,end_of_track,0,1,0,,,,,,,,,,,,,
74520,note_on,0,0,3,,,,,,,,,,2,,74,95
74520,note_on,12,0,6,,,,,,,,,,5,,38,97
74520,note_on,12,0,5,,,,,,,,,,4,,62,99
74520,note_on,12,0,2,,,,,,,,,,1,,62,109
74520,note_on,0,0,2,,,,,,,,,,1,,78,108
74520,note_on,0,0,3,,,,,,,,,,2,,66,95
74628,note_on,0,0,2,,,,,,,,,,1,,62,0
74628,note_on,108,0,2,,,,,,,,,,1,,78,0
74628,note_on,108,0,3,,,,,,,,,,2,,74,0
74628,note_on,108,0,1,,,,,,,,,,0,,74,0
74628,note_on,0,0,1,,,,,,,,,,0,,66,0
74628,note_on,0,0,3,,,,,,,,,,2,,66,0
74628,note_on,0,0,3,,,,,,,,,,2,,57,0
74628,note_on,108,0,6,,,,,,,,,,5,,38,0
74628,note_on,108,0,5,,,,,,,,,,4,,62,0
74628,note_on,0,0,4,,,,,,,,,,3,,57,0
74628,note_on,108,0,4,,,,,,,,,,3,,74,0
74628,note_on,0,0,4,,,,,,,,,,3,,66,0
74640,note_on,0,0,1,,,,,,,,,,0,,74,100
74640,note_on,0,0,4,,,,,,,,,,3,,74,100
74640,note_on,0,0,4,,,,,,,,,,3,,66,100
74640,note_on,12,0,4,,,,,,,,,,3,,57,100
74640,note_on,12,0,6,,,,,,,,,,5,,38,100
74640,note_on,12,0,5,,,,,,,,,,4,,62,100
74640,note_on,0,0,2,,,,,,,,,,1,,78,100
74640,note_on,12,0,3,,,,,,,,,,2,,57,100
74640,note_on,0,0,3,,,,,,,,,,2,,66,100
74640,note_on,0,0,3,,,,,,,,,,2,,74,100
74640,note_on,12,0,1,,,,,,,,,,0,,66,100
74640,note_on,12,0,2,,,,,,,,,,1,,62,100
74760,end_of_track,0,1,6,,,,,,,,,,,,,
74760,note_on,120,0,1,,,,,,,,,,0,,74,0
74760,note_on,120,0,6,,,,,,,,,,5,,38,0
74760,note_on,0,0,4,,,,,,,,,,3,,57,0
74760,note_on,0,0,2,,,,,,,,,,1,,62,0
74760,note_on,120,0,2,,,,,,,,,,1,,78,0
74760,end_of_track,0,1,5,,,,,,,,,,,,,
74760,note_on,120,0,5,,,,,,,,,,4,,62,0
74760,end_of_track,0,1,4,,,,,,,,,,,,,
74760,end_of_track,0,1,3,,,,,,,,,,,,,
74760,note_on,0,0,3,,,,,,,,,,2,,57,0
74760,note_on,0,0,3,,,,,,,,,,2,,66,0
74760,note_on,120,0,3,,,,,,,,,,2,,74,0
74760,note_on,0,0,1,,,,,,,,,,0,,66,0
74760,note_on,120,0,4,,,,,,,,,,3,,74,0
74760,note_on,0,0,4,,,,,,,,,,3,,66,0
74760,end_of_track,0,1,2,,,,,,,,,,,,,
74760,end_of_track,0,1,1,,,,,,,,,,,,,
