,note,step,duration,channel,velocity
0,70.0,12,690,2.0,64.0
1,46.0,0,180,14.0,64.0
2,82.0,0,690,0.0,64.0
3,74.0,0,690,0.0,64.0
4,70.0,0,240,11.0,64.0
5,62.0,108,240,11.0,64.0
6,58.0,36,180,13.0,64.0
7,62.0,0,240,10.0,64.0
8,70.0,0,240,10.0,64.0
9,82.0,0,690,10.0,64.0
10,58.0,0,690,12.0,64.0
11,62.0,0,690,2.0,64.0
12,82.0,0,690,11.0,64.0
13,58.0,0,180,1.0,64.0
14,65.0,0,690,12.0,64.0
15,50.0,0,90,13.0,64.0
16,53.0,0,90,1.0,64.0
17,38.0,120,90,14.0,64.0
18,46.0,0,90,14.0,64.0
19,58.0,0,90,13.0,64.0
20,58.0,120,90,1.0,64.0
21,50.0,0,90,13.0,64.0
22,50.0,0,90,1.0,64.0
23,38.0,108,90,14.0,64.0
24,53.0,216,90,1.0,64.0
25,53.0,0,90,13.0,64.0
26,41.0,0,90,14.0,64.0
27,34.0,126,180,14.0,64.0
28,46.0,0,180,13.0,64.0
29,46.0,0,180,1.0,64.0
30,58.0,0,90,12.0,64.0
31,70.0,0,90,10.0,64.0
32,50.0,0,90,12.0,64.0
33,65.0,240,90,11.0,64.0
34,53.0,0,90,12.0,64.0
35,60.0,0,90,12.0,64.0
36,72.0,0,90,10.0,64.0
37,69.0,240,90,11.0,64.0
38,58.0,0,90,12.0,64.0
39,74.0,240,90,10.0,64.0
40,62.0,0,90,12.0,64.0
41,70.0,0,90,11.0,64.0
42,60.0,0,90,12.0,64.0
43,75.0,240,90,10.0,64.0
44,72.0,0,90,11.0,64.0
45,63.0,0,90,12.0,64.0
46,73.0,0,90,11.0,64.0
47,61.0,0,90,12.0,64.0
48,76.0,240,90,10.0,64.0
49,64.0,0,90,12.0,64.0
50,62.0,0,90,12.0,64.0
51,65.0,0,90,12.0,64.0
52,77.0,240,90,10.0,64.0
53,74.0,0,90,11.0,64.0
54,63.0,0,90,12.0,64.0
55,75.0,0,90,11.0,64.0
56,79.0,240,90,10.0,64.0
57,67.0,0,90,12.0,64.0
58,62.0,0,90,12.0,64.0
59,71.0,354,90,11.0,64.0
60,74.0,0,90,10.0,64.0
61,59.0,0,90,12.0,64.0
62,63.0,0,300,12.0,64.0
63,72.0,0,300,0.0,64.0
64,60.0,0,300,1.0,64.0
65,53.0,0,180,13.0,64.0
66,41.0,96,180,14.0,64.0
67,75.0,48,300,0.0,64.0
68,60.0,0,300,12.0,64.0
69,72.0,0,300,11.0,64.0
70,75.0,0,300,10.0,64.0
71,57.0,0,300,1.0,64.0
72,65.0,0,690,2.0,64.0
73,53.0,12,690,2.0,64.0
74,48.0,0,90,13.0,64.0
75,36.0,120,90,14.0,64.0
76,41.0,0,90,14.0,64.0
77,62.0,0,90,1.0,64.0
78,58.0,0,90,1.0,64.0
79,58.0,120,90,12.0,64.0
80,70.0,0,90,0.0,64.0
81,62.0,0,90,12.0,64.0
82,74.0,0,90,0.0,64.0
83,53.0,0,90,13.0,64.0
84,74.0,0,90,10.0,64.0
85,70.0,0,90,11.0,64.0
86,60.0,0,180,12.0,64.0
87,60.0,0,180,1.0,64.0
88,57.0,0,180,12.0,64.0
89,33.0,0,90,14.0,64.0
90,69.0,12,180,11.0,64.0
91,72.0,0,180,0.0,64.0
92,69.0,0,180,0.0,64.0
93,45.0,96,90,13.0,64.0
94,72.0,0,180,10.0,64.0
95,63.0,0,180,1.0,64.0
96,36.0,216,90,14.0,64.0
97,48.0,0,90,13.0,64.0
98,41.0,126,180,13.0,64.0
99,29.0,0,180,14.0,64.0
100,65.0,0,90,11.0,64.0
101,53.0,0,90,12.0,64.0
102,57.0,0,90,12.0,64.0
103,69.0,240,90,10.0,64.0
104,58.0,240,90,12.0,64.0
105,55.0,0,90,12.0,64.0
106,70.0,0,90,10.0,64.0
107,67.0,0,90,11.0,64.0
108,57.0,0,90,12.0,64.0
109,69.0,240,90,11.0,64.0
110,72.0,0,90,10.0,64.0
111,60.0,0,90,12.0,64.0
112,74.0,240,90,10.0,64.0
113,58.0,0,90,12.0,64.0
114,70.0,0,90,11.0,64.0
115,62.0,0,90,12.0,64.0
116,63.0,240,90,12.0,64.0
117,60.0,0,90,12.0,64.0
118,72.0,0,90,11.0,64.0
119,75.0,0,90,10.0,64.0
120,62.0,0,90,12.0,64.0
121,74.0,0,90,11.0,64.0
122,65.0,240,90,12.0,64.0
123,77.0,0,90,10.0,64.0
124,75.0,0,90,11.0,64.0
125,79.0,240,90,10.0,64.0
126,63.0,0,90,12.0,64.0
127,67.0,0,90,12.0,64.0
128,64.0,0,90,12.0,64.0
129,61.0,0,90,12.0,64.0
130,73.0,0,90,11.0,64.0
131,76.0,354,90,10.0,64.0
132,62.0,0,300,1.0,64.0
133,62.0,0,300,12.0,64.0
134,58.0,0,300,1.0,64.0
135,74.0,0,300,11.0,64.0
136,58.0,96,180,13.0,64.0
137,46.0,0,180,14.0,64.0
138,65.0,0,300,12.0,64.0
139,58.0,12,690,2.0,64.0
140,74.0,0,300,0.0,64.0
141,70.0,0,690,2.0,64.0
142,77.0,0,300,0.0,64.0
143,77.0,48,300,10.0,64.0
144,41.0,0,90,14.0,64.0
145,53.0,120,90,13.0,64.0
146,60.0,0,90,12.0,64.0
147,75.0,0,90,10.0,64.0
148,75.0,0,90,0.0,64.0
149,58.0,0,90,13.0,64.0
150,72.0,0,90,11.0,64.0
151,63.0,0,90,1.0,64.0
152,63.0,0,90,12.0,64.0
153,72.0,120,90,0.0,64.0
154,60.0,0,90,1.0,64.0
155,46.0,0,90,14.0,64.0
156,65.0,0,180,1.0,64.0
157,62.0,0,180,1.0,64.0
158,70.0,0,180,11.0,64.0
159,38.0,96,90,14.0,64.0
160,62.0,12,180,12.0,64.0
161,58.0,0,180,12.0,64.0
162,70.0,0,180,0.0,64.0
163,74.0,0,180,0.0,64.0
164,50.0,0,90,13.0,64.0
165,74.0,0,180,10.0,64.0
166,41.0,0,90,14.0,64.0
167,53.0,216,90,13.0,64.0
168,34.0,168,180,14.0,64.0
169,46.0,0,180,13.0,64.0
170,82.0,120,120,10.0,64.0
171,81.0,120,120,10.0,64.0
172,65.0,0,240,12.0,64.0
173,62.0,192,240,1.0,64.0
174,70.0,0,420,11.0,64.0
175,82.0,120,120,10.0,64.0
176,62.0,0,240,12.0,64.0
177,80.0,0,120,10.0,64.0
178,79.0,0,180,10.0,64.0
179,63.0,168,180,12.0,64.0
180,63.0,0,180,1.0,64.0
181,82.0,120,120,10.0,64.0
182,81.0,120,120,10.0,64.0
183,70.0,168,420,11.0,64.0
184,62.0,0,240,1.0,64.0
185,62.0,0,240,12.0,64.0
186,65.0,192,240,12.0,64.0
187,82.0,120,120,10.0,64.0
188,80.0,0,120,10.0,64.0
189,79.0,0,180,10.0,64.0
190,63.0,0,180,1.0,64.0
191,63.0,0,180,12.0,64.0
192,82.0,120,120,10.0,64.0
193,81.0,120,120,10.0,64.0
194,62.0,0,240,12.0,64.0
195,62.0,0,240,1.0,64.0
196,65.0,192,240,12.0,64.0
197,82.0,120,120,10.0,64.0
198,70.0,0,420,11.0,64.0
199,80.0,0,120,10.0,64.0
200,79.0,0,180,10.0,64.0
201,63.0,0,180,1.0,64.0
202,63.0,888,180,12.0,64.0
203,75.0,0,120,11.0,64.0
204,67.0,0,120,12.0,64.0
205,63.0,120,120,12.0,64.0
206,79.0,0,120,10.0,64.0
207,78.0,0,120,10.0,64.0
208,62.0,0,120,12.0,64.0
209,66.0,120,120,12.0,64.0
210,74.0,0,120,11.0,64.0
211,75.0,0,120,11.0,64.0
212,79.0,120,120,10.0,64.0
213,67.0,0,120,12.0,64.0
214,63.0,0,120,12.0,64.0
215,62.0,0,120,12.0,64.0
216,65.0,0,120,12.0,64.0
217,74.0,480,120,11.0,64.0
218,77.0,0,120,10.0,64.0
219,75.0,0,480,10.0,64.0
220,72.0,0,480,11.0,64.0
221,63.0,0,480,12.0,64.0
222,60.0,192,480,12.0,64.0
223,57.0,0,240,13.0,64.0
224,45.0,0,240,14.0,64.0
225,74.0,0,180,10.0,64.0
226,58.0,0,180,12.0,64.0
227,62.0,0,180,12.0,64.0
228,58.0,108,180,13.0,64.0
229,46.0,0,180,14.0,64.0
230,70.0,0,180,11.0,64.0
231,39.0,27,120,14.0,64.0
232,74.0,0,60,11.0,64.0
233,51.0,0,120,13.0,64.0
234,77.0,0,60,10.0,64.0
235,65.0,72,60,12.0,64.0
236,62.0,0,60,12.0,64.0
237,72.0,213,90,11.0,64.0
238,63.0,0,90,12.0,64.0
239,60.0,0,90,12.0,64.0
240,75.0,0,90,10.0,64.0
241,58.0,0,120,12.0,64.0
242,41.0,0,120,14.0,64.0
243,74.0,0,120,10.0,64.0
244,70.0,0,120,11.0,64.0
245,53.0,240,120,13.0,64.0
246,62.0,0,120,12.0,64.0
247,69.0,0,120,11.0,64.0
248,57.0,0,120,12.0,64.0
249,41.0,0,120,14.0,64.0
250,60.0,240,120,12.0,64.0
251,53.0,0,120,13.0,64.0
252,72.0,0,120,10.0,64.0
253,69.0,0,480,11.0,64.0
254,58.0,168,900,2.0,64.0
255,57.0,0,480,12.0,64.0
256,72.0,0,480,10.0,64.0
257,46.0,0,120,14.0,64.0
258,65.0,0,900,2.0,64.0
259,58.0,240,120,13.0,64.0
260,60.0,132,480,12.0,64.0
261,41.0,0,120,14.0,64.0
262,53.0,108,120,13.0,64.0
263,70.0,0,180,11.0,64.0
264,50.0,0,120,13.0,64.0
265,74.0,0,180,10.0,64.0
266,38.0,60,120,14.0,64.0
267,62.0,0,180,12.0,64.0
268,58.0,240,180,12.0,64.0
269,58.0,0,2340,1.0,64.0
270,34.0,0,180,14.0,64.0
271,46.0,0,180,13.0,64.0
272,58.0,0,120,11.0,64.0
273,70.0,120,120,10.0,64.0
274,57.0,120,120,11.0,64.0
275,69.0,0,120,10.0,64.0
276,70.0,120,120,10.0,64.0
277,53.0,0,240,12.0,64.0
278,38.0,0,240,14.0,64.0
279,58.0,0,120,11.0,64.0
280,50.0,0,240,13.0,64.0
281,56.0,192,120,11.0,64.0
282,68.0,0,120,10.0,64.0
283,39.0,168,180,14.0,64.0
284,51.0,0,180,13.0,64.0
285,67.0,0,180,10.0,64.0
286,55.0,0,180,11.0,64.0
287,51.0,0,180,12.0,64.0
288,58.0,120,120,11.0,64.0
289,70.0,0,120,10.0,64.0
290,69.0,120,120,10.0,64.0
291,57.0,0,120,11.0,64.0
292,53.0,0,240,12.0,64.0
293,38.0,0,240,14.0,64.0
294,58.0,0,120,11.0,64.0
295,50.0,0,240,13.0,64.0
296,70.0,120,120,10.0,64.0
297,56.0,192,120,11.0,64.0
298,68.0,0,120,10.0,64.0
299,67.0,0,180,10.0,64.0
300,51.0,0,180,12.0,64.0
301,39.0,168,180,14.0,64.0
302,51.0,0,180,13.0,64.0
303,55.0,0,180,11.0,64.0
304,58.0,0,120,11.0,64.0
305,70.0,120,120,10.0,64.0
306,57.0,0,120,11.0,64.0
307,69.0,120,120,10.0,64.0
308,53.0,192,240,12.0,64.0
309,50.0,0,240,13.0,64.0
310,38.0,0,240,14.0,64.0
311,58.0,0,120,11.0,64.0
312,70.0,120,120,10.0,64.0
313,56.0,0,120,11.0,64.0
314,68.0,0,120,10.0,64.0
315,51.0,0,180,12.0,64.0
316,67.0,0,180,10.0,64.0
317,55.0,0,180,11.0,64.0
318,51.0,0,180,13.0,64.0
319,39.0,888,180,14.0,64.0
320,55.0,0,120,1.0,64.0
321,51.0,120,120,1.0,64.0
322,63.0,0,120,11.0,64.0
323,67.0,0,120,10.0,64.0
324,62.0,0,120,11.0,64.0
325,50.0,0,120,1.0,64.0
326,66.0,0,120,10.0,64.0
327,54.0,120,120,1.0,64.0
328,63.0,120,120,11.0,64.0
329,67.0,0,120,10.0,64.0
330,55.0,0,120,1.0,64.0
331,51.0,0,120,1.0,64.0
332,65.0,0,120,10.0,64.0
333,53.0,0,120,1.0,64.0
334,50.0,480,120,1.0,64.0
335,62.0,0,120,11.0,64.0
336,51.0,0,480,1.0,64.0
337,48.0,0,480,1.0,64.0
338,60.0,0,480,11.0,64.0
339,63.0,0,480,10.0,64.0
340,65.0,0,480,2.0,64.0
341,72.0,96,480,2.0,64.0
342,53.0,96,570,12.0,64.0
343,33.0,0,240,14.0,64.0
344,45.0,0,240,13.0,64.0
345,46.0,0,180,1.0,64.0
346,34.0,0,180,14.0,64.0
347,62.0,0,180,10.0,64.0
348,58.0,0,180,11.0,64.0
349,46.0,0,180,13.0,64.0
350,50.0,0,180,1.0,64.0
351,74.0,0,180,2.0,64.0
352,70.0,108,180,2.0,64.0
353,50.0,0,60,1.0,64.0
354,72.0,12,180,2.0,64.0
355,75.0,0,120,2.0,64.0
356,65.0,0,60,10.0,64.0
357,62.0,0,60,11.0,64.0
358,51.0,0,120,13.0,64.0
359,51.0,27,120,12.0,64.0
360,53.0,72,60,1.0,64.0
361,39.0,0,120,14.0,64.0
362,60.0,0,90,11.0,64.0
363,63.0,33,90,10.0,64.0
364,51.0,0,90,1.0,64.0
365,48.0,168,150,1.0,64.0
366,70.0,180,180,2.0,64.0
367,41.0,60,120,14.0,64.0
368,53.0,0,120,13.0,64.0
369,74.0,0,120,2.0,64.0
370,53.0,0,120,12.0,64.0
371,50.0,0,120,1.0,64.0
372,62.0,0,120,10.0,64.0
373,46.0,0,180,1.0,64.0
374,58.0,0,120,11.0,64.0
375,72.0,0,120,2.0,64.0
376,29.0,0,120,14.0,64.0
377,65.0,144,180,2.0,64.0
378,57.0,0,120,11.0,64.0
379,53.0,0,120,12.0,64.0
380,60.0,0,120,10.0,64.0
381,45.0,0,180,1.0,64.0
382,41.0,0,120,13.0,64.0
383,48.0,60,120,1.0,64.0
384,58.0,0,180,11.0,64.0
385,46.0,0,90,1.0,64.0
386,58.0,24,180,10.0,64.0
387,58.0,0,1410,2.0,64.0
388,34.0,0,90,14.0,64.0
389,70.0,0,1410,2.0,64.0
390,58.0,0,90,12.0,64.0
391,46.0,96,90,13.0,64.0
392,34.0,120,90,14.0,64.0
393,46.0,0,90,1.0,64.0
394,58.0,0,90,12.0,64.0
395,46.0,0,90,13.0,64.0
396,58.0,0,90,12.0,64.0
397,34.0,0,90,14.0,64.0
398,46.0,96,90,1.0,64.0
399,46.0,0,90,13.0,64.0
400,70.0,24,60,10.0,64.0
401,65.0,0,60,11.0,64.0
402,58.0,0,90,12.0,64.0
403,46.0,0,90,1.0,64.0
404,34.0,0,90,14.0,64.0
405,46.0,96,90,13.0,64.0
406,46.0,96,90,13.0,64.0
407,34.0,0,90,14.0,64.0
408,74.0,0,60,10.0,64.0
409,58.0,0,90,12.0,64.0
410,46.0,0,90,1.0,64.0
411,70.0,24,60,11.0,64.0
412,46.0,0,90,1.0,64.0
413,46.0,0,90,13.0,64.0
414,34.0,0,90,14.0,64.0
415,69.0,24,60,11.0,64.0
416,72.0,0,60,10.0,64.0
417,58.0,24,90,12.0,64.0
418,58.0,0,90,12.0,64.0
419,74.0,12,690,0.0,64.0
420,70.0,72,15,0.0,64.0
421,67.0,0,60,11.0,64.0
422,34.0,96,90,14.0,64.0
423,46.0,0,90,13.0,64.0
424,46.0,0,90,1.0,64.0
425,70.0,24,60,10.0,64.0
426,34.0,0,90,14.0,64.0
427,58.0,0,90,12.0,64.0
428,65.0,24,60,11.0,64.0
429,69.0,0,60,10.0,64.0
430,46.0,96,90,1.0,64.0
431,46.0,0,90,13.0,64.0
432,63.0,0,60,11.0,64.0
433,46.0,0,90,13.0,64.0
434,67.0,24,60,10.0,64.0
435,34.0,0,90,14.0,64.0
436,46.0,0,90,1.0,64.0
437,58.0,96,90,12.0,64.0
438,58.0,96,90,12.0,64.0
439,62.0,0,60,11.0,64.0
440,46.0,0,90,13.0,64.0
441,34.0,0,90,14.0,64.0
442,46.0,0,90,1.0,64.0
443,65.0,24,60,10.0,64.0
444,63.0,24,60,10.0,64.0
445,60.0,0,60,11.0,64.0
446,58.0,0,90,12.0,64.0
447,46.0,0,90,13.0,64.0
448,46.0,0,90,1.0,64.0
449,34.0,96,90,14.0,64.0
450,34.0,0,90,14.0,64.0
451,58.0,120,90,12.0,64.0
452,62.0,0,60,10.0,64.0
453,46.0,0,90,13.0,64.0
454,58.0,12,60,11.0,64.0
455,46.0,0,90,1.0,64.0
456,57.0,24,180,11.0,64.0
457,70.0,12,1410,2.0,64.0
458,58.0,0,1410,2.0,64.0
459,63.0,0,180,10.0,64.0
460,60.0,0,180,10.0,64.0
461,58.0,96,90,12.0,64.0
462,34.0,0,90,14.0,64.0
463,46.0,0,90,1.0,64.0
464,69.0,0,720,0.0,64.0
465,46.0,0,90,13.0,64.0
466,46.0,0,90,13.0,64.0
467,58.0,0,90,12.0,64.0
468,34.0,0,90,14.0,64.0
469,46.0,120,90,1.0,64.0
470,46.0,0,90,13.0,64.0
471,34.0,96,90,14.0,64.0
472,58.0,0,90,12.0,64.0
473,46.0,0,90,1.0,64.0
474,46.0,0,90,1.0,64.0
475,58.0,96,90,12.0,64.0
476,46.0,0,90,13.0,64.0
477,34.0,0,90,14.0,64.0
478,72.0,0,60,10.0,64.0
479,69.0,24,60,11.0,64.0
480,72.0,0,60,11.0,64.0
481,75.0,24,60,10.0,64.0
482,34.0,0,90,14.0,64.0
483,46.0,0,90,1.0,64.0
484,46.0,0,90,13.0,64.0
485,58.0,96,90,12.0,64.0
486,70.0,24,60,11.0,64.0
487,58.0,24,90,12.0,64.0
488,34.0,0,90,14.0,64.0
489,46.0,0,90,13.0,64.0
490,74.0,0,60,10.0,64.0
491,46.0,0,90,1.0,64.0
492,58.0,96,90,12.0,64.0
493,72.0,24,60,10.0,64.0
494,46.0,0,90,1.0,64.0
495,69.0,0,60,11.0,64.0
496,72.0,72,15,0.0,64.0
497,75.0,0,690,0.0,64.0
498,34.0,0,90,14.0,64.0
499,46.0,0,90,13.0,64.0
500,67.0,24,60,11.0,64.0
501,70.0,0,60,10.0,64.0
502,58.0,0,90,12.0,64.0
503,46.0,0,90,1.0,64.0
504,34.0,96,90,14.0,64.0
505,46.0,0,90,13.0,64.0
506,69.0,0,60,10.0,64.0
507,58.0,0,90,12.0,64.0
508,46.0,0,90,13.0,64.0
509,46.0,0,90,1.0,64.0
510,65.0,24,60,11.0,64.0
511,34.0,96,90,14.0,64.0
512,34.0,0,90,14.0,64.0
513,67.0,24,60,10.0,64.0
514,46.0,96,90,13.0,64.0
515,63.0,0,60,11.0,64.0
516,46.0,0,90,1.0,64.0
517,58.0,0,90,12.0,64.0
518,65.0,0,60,10.0,64.0
519,58.0,0,90,12.0,64.0
520,46.0,96,90,1.0,64.0
521,34.0,0,90,14.0,64.0
522,46.0,0,90,13.0,64.0
523,62.0,24,60,11.0,64.0
524,58.0,0,90,12.0,64.0
525,34.0,0,90,14.0,64.0
526,46.0,0,90,13.0,64.0
527,63.0,0,60,10.0,64.0
528,46.0,120,90,1.0,64.0
529,60.0,12,60,11.0,64.0
530,58.0,0,180,11.0,64.0
531,62.0,0,180,11.0,64.0
532,46.0,0,90,1.0,64.0
533,34.0,0,90,14.0,64.0
534,74.0,0,720,0.0,64.0
535,46.0,0,90,13.0,64.0
536,70.0,0,1410,2.0,64.0
537,58.0,96,90,12.0,64.0
538,70.0,72,720,0.0,64.0
539,58.0,0,1410,2.0,64.0
540,65.0,24,180,10.0,64.0
541,58.0,0,180,10.0,64.0
542,58.0,0,90,12.0,64.0
543,46.0,120,90,13.0,64.0
544,46.0,0,90,1.0,64.0
545,34.0,0,90,14.0,64.0
546,34.0,0,90,14.0,64.0
547,58.0,0,90,12.0,64.0
548,46.0,0,90,13.0,64.0
549,46.0,96,90,1.0,64.0
550,46.0,96,90,13.0,64.0
551,46.0,0,90,1.0,64.0
552,58.0,0,90,12.0,64.0
553,34.0,0,90,14.0,64.0
554,70.0,0,60,11.0,64.0
555,74.0,24,60,10.0,64.0
556,46.0,0,90,1.0,64.0
557,46.0,96,90,13.0,64.0
558,74.0,24,60,11.0,64.0
559,58.0,0,90,12.0,64.0
560,34.0,0,90,14.0,64.0
561,77.0,0,60,10.0,64.0
562,58.0,0,90,12.0,64.0
563,75.0,0,60,10.0,64.0
564,46.0,0,90,1.0,64.0
565,34.0,24,90,14.0,64.0
566,72.0,24,60,11.0,64.0
567,46.0,0,90,13.0,64.0
568,46.0,0,90,1.0,64.0
569,34.0,96,90,14.0,64.0
570,70.0,0,60,11.0,64.0
571,58.0,0,90,12.0,64.0
572,46.0,0,90,13.0,64.0
573,77.0,12,690,0.0,64.0
574,74.0,0,690,0.0,64.0
575,74.0,24,60,10.0,64.0
576,46.0,0,90,1.0,64.0
577,34.0,96,90,14.0,64.0
578,58.0,0,90,12.0,64.0
579,69.0,24,60,11.0,64.0
580,46.0,0,90,13.0,64.0
581,72.0,0,60,10.0,64.0
582,46.0,0,90,13.0,64.0
583,46.0,0,90,1.0,64.0
584,70.0,24,60,10.0,64.0
585,67.0,0,60,11.0,64.0
586,58.0,0,90,12.0,64.0
587,34.0,96,90,14.0,64.0
588,65.0,24,60,11.0,64.0
589,58.0,96,90,12.0,64.0
590,46.0,0,90,13.0,64.0
591,69.0,0,60,10.0,64.0
592,46.0,0,90,1.0,64.0
593,34.0,0,90,14.0,64.0
594,67.0,0,60,10.0,64.0
595,46.0,96,90,1.0,64.0
596,34.0,0,90,14.0,64.0
597,63.0,24,60,11.0,64.0
598,46.0,0,90,13.0,64.0
599,58.0,0,90,12.0,64.0
600,65.0,0,60,10.0,64.0
601,34.0,0,90,14.0,64.0
602,62.0,12,60,11.0,64.0
603,46.0,0,90,13.0,64.0
604,46.0,0,90,1.0,64.0
605,58.0,120,90,12.0,64.0
606,70.0,0,570,2.0,64.0
607,63.0,0,300,11.0,64.0
608,75.0,0,690,0.0,64.0
609,79.0,12,690,0.0,64.0
610,58.0,0,90,12.0,64.0
611,58.0,0,570,2.0,64.0
612,46.0,0,90,13.0,64.0
613,67.0,48,300,10.0,64.0
614,46.0,0,90,1.0,64.0
615,34.0,120,90,14.0,64.0
616,46.0,0,90,1.0,64.0
617,58.0,0,90,12.0,64.0
618,34.0,0,90,14.0,64.0
619,46.0,72,90,13.0,64.0
620,34.0,0,90,14.0,64.0
621,58.0,0,90,12.0,64.0
622,46.0,0,90,13.0,64.0
623,46.0,96,90,1.0,64.0
624,46.0,0,90,1.0,64.0
625,34.0,96,90,14.0,64.0
626,58.0,0,90,12.0,64.0
627,75.0,24,60,11.0,64.0
628,46.0,0,90,13.0,64.0
629,79.0,0,60,10.0,64.0
630,70.0,24,60,11.0,64.0
631,46.0,0,90,13.0,64.0
632,75.0,0,60,10.0,64.0
633,34.0,96,90,14.0,64.0
634,58.0,0,90,12.0,64.0
635,46.0,0,90,1.0,64.0
636,58.0,0,90,12.0,64.0
637,34.0,0,90,14.0,64.0
638,70.0,12,60,10.0,64.0
639,46.0,120,90,13.0,64.0
640,46.0,0,90,1.0,64.0
641,67.0,0,60,11.0,64.0
642,63.0,48,300,11.0,64.0
643,72.0,0,690,0.0,64.0
644,58.0,0,570,2.0,64.0
645,58.0,120,90,12.0,64.0
646,34.0,0,90,14.0,64.0
647,69.0,0,300,10.0,64.0
648,70.0,0,570,2.0,64.0
649,46.0,0,90,13.0,64.0
650,46.0,0,90,1.0,64.0
651,81.0,12,690,0.0,64.0
652,58.0,72,90,12.0,64.0
653,34.0,0,90,14.0,64.0
654,46.0,0,90,13.0,64.0
655,46.0,0,90,1.0,64.0
656,34.0,0,90,14.0,64.0
657,46.0,0,90,1.0,64.0
658,46.0,0,90,13.0,64.0
659,58.0,96,90,12.0,64.0
660,34.0,96,90,14.0,64.0
661,46.0,0,90,13.0,64.0
662,72.0,24,60,11.0,64.0
663,46.0,0,90,1.0,64.0
664,58.0,0,90,12.0,64.0
665,81.0,0,60,10.0,64.0
666,46.0,0,90,1.0,64.0
667,34.0,0,90,14.0,64.0
668,58.0,0,90,12.0,64.0
669,77.0,24,60,10.0,64.0
670,69.0,0,60,11.0,64.0
671,46.0,96,90,13.0,64.0
672,46.0,0,90,1.0,64.0
673,46.0,0,90,13.0,64.0
674,72.0,0,60,10.0,64.0
675,63.0,12,60,11.0,64.0
676,58.0,120,90,12.0,64.0
677,34.0,0,90,14.0,64.0
678,62.0,0,300,11.0,64.0
679,58.0,0,90,12.0,64.0
680,82.0,0,690,0.0,64.0
681,46.0,0,90,13.0,64.0
682,34.0,120,90,14.0,64.0
683,70.0,48,300,10.0,64.0
684,46.0,0,90,1.0,64.0
685,70.0,0,570,2.0,64.0
686,58.0,96,570,2.0,64.0
687,74.0,12,690,0.0,64.0
688,58.0,0,90,12.0,64.0
689,34.0,0,90,14.0,64.0
690,46.0,72,90,13.0,64.0
691,46.0,0,90,1.0,64.0
692,58.0,0,90,12.0,64.0
693,34.0,0,90,14.0,64.0
694,46.0,0,90,1.0,64.0
695,46.0,96,90,13.0,64.0
696,34.0,96,90,14.0,64.0
697,58.0,0,90,12.0,64.0
698,77.0,0,60,11.0,64.0
699,46.0,0,90,1.0,64.0
700,46.0,0,90,13.0,64.0
701,82.0,24,60,10.0,64.0
702,46.0,0,90,1.0,64.0
703,58.0,0,90,12.0,64.0
704,77.0,0,60,10.0,64.0
705,74.0,24,60,11.0,64.0
706,34.0,0,90,14.0,64.0
707,46.0,0,90,13.0,64.0
708,74.0,12,60,10.0,64.0
709,58.0,0,90,12.0,64.0
710,34.0,0,90,14.0,64.0
711,70.0,0,60,11.0,64.0
712,46.0,120,90,1.0,64.0
713,46.0,0,90,13.0,64.0
714,34.0,120,90,14.0,64.0
715,72.0,0,300,10.0,64.0
716,46.0,0,90,13.0,64.0
717,46.0,0,90,1.0,64.0
718,58.0,0,570,2.0,64.0
719,58.0,0,90,12.0,64.0
720,70.0,0,570,2.0,64.0
721,69.0,48,300,11.0,64.0
722,75.0,12,690,0.0,64.0
723,84.0,0,690,0.0,64.0
724,34.0,0,90,14.0,64.0
725,58.0,0,90,12.0,64.0
726,46.0,72,90,13.0,64.0
727,46.0,0,90,1.0,64.0
728,58.0,96,90,12.0,64.0
729,34.0,0,90,14.0,64.0
730,46.0,0,90,1.0,64.0
731,46.0,0,90,13.0,64.0
732,84.0,24,60,10.0,64.0
733,81.0,0,60,11.0,64.0
734,46.0,96,90,13.0,64.0
735,34.0,0,90,14.0,64.0
736,46.0,0,90,1.0,64.0
737,58.0,0,90,12.0,64.0
738,34.0,0,90,14.0,64.0
739,58.0,96,90,12.0,64.0
740,46.0,0,90,1.0,64.0
741,75.0,0,60,11.0,64.0
742,46.0,0,90,13.0,64.0
743,81.0,24,60,10.0,64.0
744,75.0,0,60,10.0,64.0
745,58.0,0,90,12.0,64.0
746,34.0,0,90,14.0,64.0
747,72.0,12,60,11.0,64.0
748,46.0,0,90,1.0,64.0
749,46.0,120,90,13.0,64.0
750,46.0,0,90,1.0,64.0
751,46.0,0,90,13.0,64.0
752,86.0,0,690,0.0,64.0
753,58.0,0,570,2.0,64.0
754,74.0,48,300,10.0,64.0
755,70.0,0,300,11.0,64.0
756,58.0,0,90,12.0,64.0
757,77.0,12,690,0.0,64.0
758,70.0,96,570,2.0,64.0
759,34.0,120,90,14.0,64.0
760,46.0,0,90,13.0,64.0
761,46.0,72,90,1.0,64.0
762,34.0,0,90,14.0,64.0
763,58.0,0,90,12.0,64.0
764,46.0,0,90,13.0,64.0
765,34.0,0,90,14.0,64.0
766,58.0,0,90,12.0,64.0
767,46.0,96,90,1.0,64.0
768,46.0,0,90,13.0,64.0
769,46.0,0,90,1.0,64.0
770,58.0,96,90,12.0,64.0
771,34.0,0,90,14.0,64.0
772,82.0,0,60,11.0,64.0
773,86.0,24,60,10.0,64.0
774,46.0,0,90,13.0,64.0
775,34.0,0,90,14.0,64.0
776,58.0,0,90,12.0,64.0
777,82.0,0,60,10.0,64.0
778,77.0,24,60,11.0,64.0
779,46.0,0,90,1.0,64.0
780,58.0,0,90,12.0,64.0
781,74.0,12,60,11.0,64.0
782,46.0,0,90,1.0,64.0
783,77.0,0,60,10.0,64.0
784,46.0,0,90,13.0,64.0
785,34.0,120,90,14.0,64.0
786,79.0,0,150,11.0,64.0
787,70.0,0,150,11.0,64.0
788,63.0,60,150,11.0,64.0
789,46.0,0,90,13.0,64.0
790,58.0,0,900,2.0,64.0
791,70.0,0,900,2.0,64.0
792,46.0,0,90,1.0,64.0
793,75.0,12,150,10.0,64.0
794,58.0,0,90,12.0,64.0
795,75.0,0,660,0.0,64.0
796,79.0,12,390,0.0,64.0
797,34.0,48,90,14.0,64.0
798,34.0,0,90,14.0,64.0
799,46.0,0,90,1.0,64.0
800,46.0,120,90,13.0,64.0
801,58.0,0,90,12.0,64.0
802,79.0,60,150,11.0,64.0
803,70.0,0,150,11.0,64.0
804,34.0,0,90,14.0,64.0
805,46.0,0,90,1.0,64.0
806,46.0,48,90,13.0,64.0
807,87.0,48,300,10.0,64.0
808,58.0,0,90,12.0,64.0
809,46.0,72,90,1.0,64.0
810,34.0,0,90,14.0,64.0
811,58.0,0,90,12.0,64.0
812,46.0,0,90,13.0,64.0
813,34.0,60,90,14.0,64.0
814,81.0,24,180,0.0,64.0
815,46.0,0,90,1.0,64.0
816,46.0,0,90,13.0,64.0
817,58.0,0,90,12.0,64.0
818,72.0,36,150,11.0,64.0
819,81.0,0,150,11.0,64.0
820,58.0,0,90,12.0,64.0
821,46.0,0,90,13.0,64.0
822,46.0,0,90,1.0,64.0
823,34.0,120,90,14.0,64.0
824,87.0,0,90,10.0,64.0
825,82.0,12,690,0.0,64.0
826,86.0,96,90,10.0,64.0
827,46.0,0,180,1.0,64.0
828,46.0,0,180,13.0,64.0
829,74.0,0,690,0.0,64.0
830,58.0,24,180,12.0,64.0
831,34.0,0,180,14.0,64.0
832,74.0,48,300,11.0,64.0
833,82.0,0,300,11.0,64.0
834,82.0,72,90,10.0,64.0
835,77.0,120,90,10.0,64.0
836,82.0,0,90,10.0,64.0
837,82.0,120,90,11.0,64.0
838,77.0,0,90,10.0,64.0
839,77.0,108,90,11.0,64.0
840,74.0,120,90,11.0,64.0
841,74.0,0,90,10.0,64.0
842,82.0,120,90,11.0,64.0
843,86.0,12,690,0.0,64.0
844,77.0,0,690,0.0,64.0
845,82.0,0,90,10.0,64.0
846,62.0,0,570,2.0,64.0
847,70.0,108,570,2.0,64.0
848,77.0,120,90,11.0,64.0
849,77.0,0,90,10.0,64.0
850,74.0,120,90,11.0,64.0
851,74.0,0,90,10.0,64.0
852,77.0,0,90,10.0,64.0
853,77.0,120,90,11.0,64.0
854,74.0,0,90,10.0,64.0
855,74.0,0,90,11.0,64.0
856,70.0,120,90,10.0,64.0
857,70.0,0,90,11.0,64.0
858,77.0,0,90,10.0,64.0
859,77.0,120,90,11.0,64.0
860,65.0,0,90,13.0,64.0
861,65.0,0,90,1.0,64.0
862,65.0,0,570,2.0,64.0
863,74.0,0,570,2.0,64.0
864,65.0,48,300,12.0,64.0
865,77.0,12,690,0.0,64.0
866,70.0,0,690,0.0,64.0
867,53.0,0,90,14.0,64.0
868,62.0,0,90,1.0,64.0
869,74.0,0,90,10.0,64.0
870,62.0,72,90,13.0,64.0
871,50.0,0,90,14.0,64.0
872,74.0,0,90,11.0,64.0
873,58.0,0,90,13.0,64.0
874,70.0,0,90,10.0,64.0
875,58.0,0,90,1.0,64.0
876,46.0,0,90,14.0,64.0
877,70.0,120,90,11.0,64.0
878,74.0,0,90,11.0,64.0
879,50.0,0,90,14.0,64.0
880,62.0,0,90,1.0,64.0
881,62.0,0,90,13.0,64.0
882,74.0,0,90,10.0,64.0
883,74.0,120,90,12.0,64.0
884,46.0,108,90,14.0,64.0
885,58.0,0,90,1.0,64.0
886,58.0,0,90,13.0,64.0
887,70.0,0,90,10.0,64.0
888,70.0,0,90,12.0,64.0
889,70.0,0,90,11.0,64.0
890,65.0,0,90,10.0,64.0
891,53.0,0,90,1.0,64.0
892,65.0,120,90,11.0,64.0
893,41.0,0,90,14.0,64.0
894,65.0,0,90,12.0,64.0
895,53.0,0,90,13.0,64.0
896,74.0,12,690,0.0,64.0
897,74.0,0,90,12.0,64.0
898,65.0,0,570,2.0,64.0
899,82.0,0,690,0.0,64.0
900,58.0,0,570,2.0,64.0
901,62.0,0,90,1.0,64.0
902,50.0,0,90,14.0,64.0
903,74.0,0,90,11.0,64.0
904,74.0,0,90,10.0,64.0
905,62.0,120,90,13.0,64.0
906,46.0,0,90,14.0,64.0
907,70.0,0,90,11.0,64.0
908,70.0,0,90,12.0,64.0
909,58.0,0,90,1.0,64.0
910,58.0,0,90,13.0,64.0
911,70.0,120,90,10.0,64.0
912,41.0,0,90,14.0,64.0
913,65.0,0,90,10.0,64.0
914,65.0,0,90,12.0,64.0
915,65.0,0,90,11.0,64.0
916,53.0,0,90,1.0,64.0
917,53.0,120,90,13.0,64.0
918,70.0,0,90,12.0,64.0
919,70.0,0,90,11.0,64.0
920,46.0,0,90,14.0,64.0
921,70.0,0,90,10.0,64.0
922,58.0,120,90,13.0,64.0
923,58.0,0,90,1.0,64.0
924,41.0,0,90,14.0,64.0
925,65.0,0,90,10.0,64.0
926,65.0,108,90,11.0,64.0
927,65.0,0,90,12.0,64.0
928,53.0,0,90,13.0,64.0
929,53.0,0,90,1.0,64.0
930,62.0,120,90,12.0,64.0
931,62.0,0,90,11.0,64.0
932,38.0,0,90,14.0,64.0
933,50.0,0,90,13.0,64.0
934,62.0,0,90,10.0,64.0
935,50.0,0,90,1.0,64.0
936,70.0,120,90,10.0,64.0
937,58.0,0,90,13.0,64.0
938,46.0,0,90,14.0,64.0
939,70.0,0,570,2.0,64.0
940,70.0,0,90,12.0,64.0
941,62.0,0,570,2.0,64.0
942,58.0,0,90,1.0,64.0
943,74.0,0,690,0.0,64.0
944,70.0,0,90,11.0,64.0
945,65.0,12,690,0.0,64.0
946,65.0,0,90,10.0,64.0
947,53.0,0,90,13.0,64.0
948,65.0,0,90,11.0,64.0
949,65.0,0,90,12.0,64.0
950,53.0,0,90,1.0,64.0
951,41.0,120,90,14.0,64.0
952,50.0,0,90,1.0,64.0
953,38.0,0,90,14.0,64.0
954,62.0,0,90,10.0,64.0
955,62.0,120,90,12.0,64.0
956,62.0,0,90,11.0,64.0
957,50.0,0,90,13.0,64.0
958,65.0,0,90,10.0,64.0
959,53.0,120,90,13.0,64.0
960,53.0,0,90,1.0,64.0
961,65.0,0,90,12.0,64.0
962,65.0,0,90,11.0,64.0
963,41.0,0,90,14.0,64.0
964,50.0,0,90,13.0,64.0
965,50.0,0,90,1.0,64.0
966,62.0,108,90,10.0,64.0
967,38.0,0,90,14.0,64.0
968,62.0,0,90,12.0,64.0
969,62.0,0,90,11.0,64.0
970,34.0,0,90,14.0,64.0
971,58.0,0,90,10.0,64.0
972,58.0,0,90,12.0,64.0
973,46.0,0,90,13.0,64.0
974,46.0,156,90,1.0,64.0
975,58.0,0,90,11.0,64.0
976,65.0,0,120,12.0,64.0
977,77.0,0,150,0.0,64.0
978,53.0,0,150,13.0,64.0
979,65.0,0,120,10.0,64.0
980,53.0,0,150,1.0,64.0
981,41.0,12,150,14.0,64.0
982,65.0,12,120,11.0,64.0
983,65.0,216,150,2.0,64.0
984,62.0,0,120,10.0,64.0
985,50.0,0,150,13.0,64.0
986,38.0,0,150,14.0,64.0
987,50.0,12,150,1.0,64.0
988,62.0,216,150,2.0,64.0
989,74.0,0,150,0.0,64.0
990,62.0,12,120,12.0,64.0
991,62.0,0,120,11.0,64.0
992,58.0,0,120,12.0,64.0
993,46.0,0,150,13.0,64.0
994,58.0,12,120,11.0,64.0
995,34.0,0,150,14.0,64.0
996,46.0,12,150,1.0,64.0
997,70.0,0,150,0.0,64.0
998,58.0,0,120,10.0,64.0
999,58.0,324,150,2.0,64.0
1000,41.0,0,720,14.0,64.0
1001,65.0,0,720,10.0,64.0
1002,65.0,0,360,0.0,64.0
1003,65.0,0,720,12.0,64.0
1004,65.0,0,720,11.0,64.0
1005,65.0,48,900,2.0,64.0
1006,53.0,0,900,2.0,64.0
1007,65.0,0,360,1.0,64.0
1008,64.0,0,120,1.0,64.0
1009,67.0,120,120,0.0,64.0
1010,63.0,120,120,1.0,64.0
1011,69.0,0,120,0.0,64.0
1012,70.0,0,120,0.0,64.0
1013,67.0,120,120,0.0,64.0
1014,62.0,0,120,1.0,64.0
1015,65.0,0,120,1.0,64.0
1016,60.0,0,120,1.0,64.0
1017,69.0,0,120,0.0,64.0
1018,63.0,0,120,1.0,64.0
1019,72.0,120,120,0.0,64.0
1020,62.0,0,120,1.0,64.0
1021,58.0,192,120,1.0,64.0
1022,70.0,0,120,0.0,64.0
1023,74.0,0,120,0.0,64.0
1024,53.0,0,15,13.0,64.0
1025,75.0,0,180,0.0,64.0
1026,72.0,0,180,0.0,64.0
1027,41.0,48,1620,14.0,64.0
1028,60.0,0,180,1.0,64.0
1029,57.0,0,180,1.0,64.0
1030,77.0,120,120,10.0,64.0
1031,79.0,120,120,10.0,64.0
1032,72.0,0,360,12.0,64.0
1033,75.0,0,360,11.0,64.0
1034,77.0,120,120,10.0,64.0
1035,81.0,60,120,10.0,64.0
1036,74.0,0,60,12.0,64.0
1037,77.0,48,60,11.0,64.0
1038,77.0,120,120,10.0,64.0
1039,72.0,12,40,12.0,64.0
1040,75.0,0,40,11.0,64.0
1041,74.0,0,240,11.0,64.0
1042,82.0,120,120,10.0,64.0
1043,70.0,0,480,12.0,64.0
1044,77.0,120,120,10.0,64.0
1045,76.0,120,120,10.0,64.0
1046,73.0,0,240,11.0,64.0
1047,77.0,120,120,10.0,64.0
1048,75.0,120,120,10.0,64.0
1049,69.0,0,240,12.0,64.0
1050,72.0,0,240,11.0,64.0
1051,77.0,120,120,10.0,64.0
1052,70.0,120,240,12.0,64.0
1053,74.0,72,120,10.0,64.0
1054,70.0,0,240,11.0,64.0
1055,77.0,0,120,10.0,64.0
1056,72.0,120,120,10.0,64.0
1057,69.0,120,240,11.0,64.0
1058,69.0,0,240,12.0,64.0
1059,77.0,0,120,10.0,64.0
1060,67.0,0,240,11.0,64.0
1061,70.0,108,120,10.0,64.0
1062,67.0,0,240,12.0,64.0
1063,77.0,252,120,10.0,64.0
1064,53.0,0,900,2.0,64.0
1065,65.0,0,360,1.0,64.0
1066,65.0,0,720,12.0,64.0
1067,65.0,0,720,11.0,64.0
1068,65.0,0,360,0.0,64.0
1069,65.0,0,900,2.0,64.0
1070,65.0,0,720,10.0,64.0
1071,53.0,0,720,13.0,64.0
1072,67.0,0,120,0.0,64.0
1073,64.0,120,120,1.0,64.0
1074,63.0,0,120,1.0,64.0
1075,69.0,120,120,0.0,64.0
1076,62.0,0,120,1.0,64.0
1077,70.0,120,120,0.0,64.0
1078,65.0,0,120,1.0,64.0
1079,67.0,0,120,0.0,64.0
1080,60.0,120,120,1.0,64.0
1081,72.0,0,120,0.0,64.0
1082,69.0,0,120,0.0,64.0
1083,63.0,0,120,1.0,64.0
1084,70.0,0,120,0.0,64.0
1085,62.0,0,120,1.0,64.0
1086,58.0,0,120,1.0,64.0
1087,74.0,0,120,0.0,64.0
1088,60.0,0,180,1.0,64.0
1089,57.0,48,180,1.0,64.0
1090,53.0,48,1620,13.0,64.0
1091,75.0,0,180,0.0,64.0
1092,41.0,192,15,14.0,64.0
1093,72.0,0,180,0.0,64.0
1094,77.0,120,120,10.0,64.0
1095,79.0,120,120,10.0,64.0
1096,72.0,0,360,12.0,64.0
1097,75.0,0,360,11.0,64.0
1098,77.0,120,120,10.0,64.0
1099,81.0,60,120,10.0,64.0
1100,74.0,0,60,12.0,64.0
1101,77.0,48,60,11.0,64.0
1102,77.0,120,120,10.0,64.0
1103,75.0,0,40,11.0,64.0
1104,72.0,12,40,12.0,64.0
1105,70.0,0,480,12.0,64.0
1106,74.0,0,240,11.0,64.0
1107,82.0,120,120,10.0,64.0
1108,77.0,120,120,10.0,64.0
1109,73.0,0,240,11.0,64.0
1110,76.0,120,120,10.0,64.0
1111,77.0,120,120,10.0,64.0
1112,69.0,0,240,12.0,64.0
1113,75.0,120,120,10.0,64.0
1114,72.0,120,240,11.0,64.0
1115,77.0,0,120,10.0,64.0
1116,70.0,0,240,11.0,64.0
1117,70.0,120,240,12.0,64.0
1118,74.0,72,120,10.0,64.0
1119,77.0,0,120,10.0,64.0
1120,69.0,120,240,11.0,64.0
1121,69.0,0,240,12.0,64.0
1122,72.0,120,120,10.0,64.0
1123,77.0,0,120,10.0,64.0
1124,67.0,0,240,12.0,64.0
1125,70.0,108,120,10.0,64.0
1126,67.0,108,240,11.0,64.0
1127,77.0,0,120,10.0,64.0
1128,77.0,0,180,0.0,64.0
1129,65.0,0,180,11.0,64.0
1130,72.0,0,180,2.0,64.0
1131,41.0,0,180,14.0,64.0
1132,53.0,0,180,1.0,64.0
1133,69.0,0,180,0.0,64.0
1134,53.0,0,180,13.0,64.0
1135,65.0,0,180,2.0,64.0
1136,69.0,96,90,10.0,64.0
1137,65.0,24,180,12.0,64.0
1138,72.0,120,90,10.0,64.0
1139,69.0,120,90,10.0,64.0
1140,72.0,120,90,10.0,64.0
1141,77.0,120,90,10.0,64.0
1142,81.0,120,90,10.0,64.0
1143,77.0,0,180,11.0,64.0
1144,77.0,96,90,10.0,64.0
1145,53.0,0,180,13.0,64.0
1146,53.0,0,180,1.0,64.0
1147,72.0,0,180,2.0,64.0
1148,65.0,24,180,2.0,64.0
1149,65.0,0,180,12.0,64.0
1150,77.0,0,180,0.0,64.0
1151,69.0,0,180,0.0,64.0
1152,69.0,0,180,11.0,64.0
1153,41.0,0,180,14.0,64.0
1154,72.0,120,90,10.0,64.0
1155,69.0,120,90,10.0,64.0
1156,72.0,120,90,10.0,64.0
1157,77.0,120,90,10.0,64.0
1158,81.0,120,90,10.0,64.0
1159,69.0,0,150,11.0,64.0
1160,53.0,0,150,1.0,64.0
1161,72.0,0,150,2.0,64.0
1162,65.0,0,150,12.0,64.0
1163,65.0,0,150,2.0,64.0
1164,53.0,0,150,13.0,64.0
1165,77.0,60,90,10.0,64.0
1166,41.0,60,150,14.0,64.0
1167,77.0,0,150,0.0,64.0
1168,69.0,0,150,0.0,64.0
1169,77.0,0,150,11.0,64.0
1170,72.0,120,90,10.0,64.0
1171,53.0,0,150,1.0,64.0
1172,53.0,60,150,13.0,64.0
1173,65.0,0,150,12.0,64.0
1174,69.0,0,150,11.0,64.0
1175,41.0,0,150,14.0,64.0
1176,72.0,0,150,2.0,64.0
1177,77.0,0,150,11.0,64.0
1178,65.0,0,150,2.0,64.0
1179,77.0,0,150,0.0,64.0
1180,69.0,0,150,0.0,64.0
1181,69.0,60,90,10.0,64.0
1182,72.0,120,90,10.0,64.0
1183,69.0,0,150,11.0,64.0
1184,69.0,0,150,0.0,64.0
1185,77.0,0,150,0.0,64.0
1186,65.0,0,150,2.0,64.0
1187,65.0,0,150,12.0,64.0
1188,53.0,0,150,13.0,64.0
1189,41.0,0,150,14.0,64.0
1190,72.0,0,150,2.0,64.0
1191,53.0,0,150,1.0,64.0
1192,77.0,60,90,10.0,64.0
1193,77.0,60,150,11.0,64.0
1194,81.0,216,90,10.0,64.0
1195,77.0,0,180,11.0,64.0
1196,72.0,0,180,10.0,64.0
1197,65.0,0,180,10.0,64.0
1198,77.0,1008,180,10.0,64.0
1199,53.0,0,180,13.0,64.0
1200,41.0,0,180,14.0,64.0
1201,65.0,0,180,2.0,64.0
1202,69.0,0,180,0.0,64.0
1203,77.0,0,180,0.0,64.0
1204,72.0,0,180,2.0,64.0
1205,69.0,0,180,11.0,64.0
1206,53.0,0,180,1.0,64.0
1207,65.0,0,180,12.0,64.0
1208,72.0,0,480,11.0,64.0
1209,84.0,240,480,10.0,64.0
1210,68.0,240,240,11.0,64.0
1211,80.0,0,240,10.0,64.0
1212,69.0,240,240,11.0,64.0
1213,81.0,0,240,10.0,64.0
1214,76.0,0,240,10.0,64.0
1215,64.0,228,240,11.0,64.0
1216,65.0,132,240,11.0,64.0
1217,77.0,0,240,10.0,64.0
1218,65.0,0,1410,12.0,64.0
1219,36.0,0,1620,14.0,64.0
1220,48.0,0,1620,13.0,64.0
1221,60.0,0,1410,11.0,64.0
1222,69.0,36,1410,12.0,64.0
1223,84.0,120,120,0.0,64.0
1224,81.0,0,120,0.0,64.0
1225,72.0,0,1410,10.0,64.0
1226,83.0,120,120,0.0,64.0
1227,80.0,0,120,0.0,64.0
1228,81.0,0,120,0.0,64.0
1229,84.0,120,120,0.0,64.0
1230,80.0,120,120,0.0,64.0
1231,83.0,0,120,0.0,64.0
1232,84.0,120,120,0.0,64.0
1233,81.0,0,120,0.0,64.0
1234,83.0,78,120,0.0,64.0
1235,80.0,0,120,0.0,64.0
1236,60.0,0,120,1.0,64.0
1237,81.0,42,90,0.0,64.0
1238,84.0,0,90,0.0,64.0
1239,57.0,120,120,1.0,64.0
1240,56.0,0,120,1.0,64.0
1241,59.0,78,120,1.0,64.0
1242,81.0,0,90,0.0,64.0
1243,60.0,120,120,1.0,64.0
1244,57.0,0,120,1.0,64.0
1245,77.0,42,90,0.0,64.0
1246,56.0,78,120,1.0,64.0
1247,59.0,0,120,1.0,64.0
1248,84.0,0,90,0.0,64.0
1249,81.0,42,90,0.0,64.0
1250,60.0,84,120,1.0,64.0
1251,57.0,0,15,1.0,64.0
1252,53.0,0,120,1.0,64.0
1253,79.0,0,180,0.0,64.0
1254,70.0,240,480,11.0,64.0
1255,82.0,0,180,0.0,64.0
1256,64.0,0,180,12.0,64.0
1257,58.0,0,180,1.0,64.0
1258,55.0,0,180,1.0,64.0
1259,67.0,288,180,12.0,64.0
1260,82.0,0,480,10.0,64.0
1261,66.0,240,240,11.0,64.0
1262,78.0,0,240,10.0,64.0
1263,79.0,240,240,10.0,64.0
1264,67.0,0,240,11.0,64.0
1265,63.0,228,240,11.0,64.0
1266,75.0,0,240,10.0,64.0
1267,64.0,132,240,11.0,64.0
1268,76.0,0,240,10.0,64.0
1269,48.0,36,1410,13.0,64.0
1270,70.0,0,1410,10.0,64.0
1271,79.0,0,120,0.0,64.0
1272,82.0,120,120,0.0,64.0
1273,58.0,0,1410,11.0,64.0
1274,64.0,0,1410,12.0,64.0
1275,67.0,0,1410,12.0,64.0
1276,36.0,0,1410,14.0,64.0
1277,78.0,0,120,0.0,64.0
1278,81.0,120,120,0.0,64.0
1279,82.0,0,120,0.0,64.0
1280,79.0,120,120,0.0,64.0
1281,81.0,120,120,0.0,64.0
1282,78.0,0,120,0.0,64.0
1283,82.0,0,120,0.0,64.0
1284,79.0,120,120,0.0,64.0
1285,78.0,0,120,0.0,64.0
1286,81.0,78,120,0.0,64.0
1287,58.0,120,120,1.0,64.0
1288,55.0,0,120,1.0,64.0
1289,82.0,0,90,0.0,64.0
1290,79.0,42,90,0.0,64.0
1291,54.0,78,120,1.0,64.0
1292,57.0,0,120,1.0,64.0
1293,58.0,120,120,1.0,64.0
1294,79.0,42,90,0.0,64.0
1295,76.0,0,90,0.0,64.0
1296,55.0,0,120,1.0,64.0
1297,54.0,78,120,1.0,64.0
1298,57.0,0,120,1.0,64.0
1299,58.0,84,120,1.0,64.0
1300,55.0,0,120,1.0,64.0
1301,82.0,42,90,0.0,64.0
1302,79.0,0,90,0.0,64.0
1303,52.0,0,120,1.0,64.0
1304,55.0,72,120,1.0,64.0
1305,53.0,120,180,13.0,64.0
1306,65.0,0,180,12.0,64.0
1307,69.0,0,60,10.0,64.0
1308,57.0,0,180,1.0,64.0
1309,57.0,120,60,11.0,64.0
1310,53.0,0,180,1.0,64.0
1311,77.0,0,180,0.0,64.0
1312,81.0,0,180,0.0,64.0
1313,41.0,0,180,14.0,64.0
1314,65.0,0,60,11.0,64.0
1315,69.0,0,60,11.0,64.0
1316,77.0,120,60,10.0,64.0
1317,67.0,78,60,11.0,64.0
1318,69.0,18,60,11.0,64.0
1319,79.0,30,30,10.0,64.0
1320,77.0,12,30,10.0,64.0
1321,79.0,30,30,10.0,64.0
1322,77.0,60,30,10.0,64.0
1323,76.0,12,60,10.0,64.0
1324,65.0,36,60,11.0,64.0
1325,77.0,84,40,10.0,64.0
1326,53.0,120,180,1.0,64.0
1327,74.0,0,60,10.0,64.0
1328,41.0,0,180,14.0,64.0
1329,53.0,0,180,13.0,64.0
1330,70.0,120,60,11.0,64.0
1331,65.0,0,180,12.0,64.0
1332,65.0,0,60,11.0,64.0
1333,74.0,0,60,11.0,64.0
1334,77.0,120,60,10.0,64.0
1335,72.0,78,60,11.0,64.0
1336,74.0,18,60,11.0,64.0
1337,79.0,30,30,10.0,64.0
1338,77.0,12,30,10.0,64.0
1339,79.0,30,30,10.0,64.0
1340,77.0,60,30,10.0,64.0
1341,76.0,12,60,10.0,64.0
1342,70.0,36,60,11.0,64.0
1343,77.0,84,40,10.0,64.0
1344,65.0,0,180,12.0,64.0
1345,53.0,0,180,1.0,64.0
1346,72.0,120,60,10.0,64.0
1347,69.0,0,60,11.0,64.0
1348,53.0,120,180,13.0,64.0
1349,41.0,0,180,14.0,64.0
1350,65.0,0,60,11.0,64.0
1351,77.0,0,60,10.0,64.0
1352,72.0,120,60,11.0,64.0
1353,70.0,78,60,11.0,64.0
1354,79.0,30,30,10.0,64.0
1355,69.0,18,60,11.0,64.0
1356,77.0,12,30,10.0,64.0
1357,79.0,30,30,10.0,64.0
1358,77.0,60,30,10.0,64.0
1359,76.0,12,60,10.0,64.0
1360,65.0,36,60,11.0,64.0
1361,77.0,84,40,10.0,64.0
1362,36.0,0,180,14.0,64.0
1363,76.0,0,60,10.0,64.0
1364,48.0,0,180,1.0,64.0
1365,60.0,0,180,12.0,64.0
1366,70.0,120,60,11.0,64.0
1367,48.0,0,180,13.0,64.0
1368,69.0,120,60,11.0,64.0
1369,67.0,120,60,11.0,64.0
1370,79.0,0,60,10.0,64.0
1371,65.0,120,60,11.0,64.0
1372,64.0,0,60,11.0,64.0
1373,84.0,120,60,10.0,64.0
1374,60.0,120,60,11.0,64.0
1375,41.0,0,180,14.0,64.0
1376,65.0,0,180,12.0,64.0
1377,53.0,0,180,13.0,64.0
1378,81.0,72,240,10.0,64.0
1379,65.0,120,60,11.0,64.0
1380,53.0,48,180,1.0,64.0
1381,67.0,0,60,11.0,64.0
1382,69.0,72,60,11.0,64.0
1383,77.0,48,150,10.0,64.0
1384,67.0,78,60,11.0,64.0
1385,79.0,30,30,10.0,64.0
1386,69.0,18,60,11.0,64.0
1387,77.0,12,30,10.0,64.0
1388,79.0,30,30,10.0,64.0
1389,77.0,60,30,10.0,64.0
1390,76.0,12,60,10.0,64.0
1391,65.0,36,60,11.0,64.0
1392,77.0,84,40,10.0,64.0
1393,70.0,0,60,11.0,64.0
1394,74.0,120,60,10.0,64.0
1395,53.0,0,180,1.0,64.0
1396,65.0,120,180,12.0,64.0
1397,53.0,0,180,13.0,64.0
1398,41.0,0,180,14.0,64.0
1399,65.0,0,60,11.0,64.0
1400,77.0,120,60,10.0,64.0
1401,74.0,0,60,11.0,64.0
1402,72.0,78,60,11.0,64.0
1403,74.0,18,60,11.0,64.0
1404,79.0,30,30,10.0,64.0
1405,77.0,12,30,10.0,64.0
1406,79.0,30,30,10.0,64.0
1407,77.0,60,30,10.0,64.0
1408,76.0,12,60,10.0,64.0
1409,70.0,36,60,11.0,64.0
1410,77.0,84,40,10.0,64.0
1411,72.0,120,60,10.0,64.0
1412,53.0,0,180,1.0,64.0
1413,65.0,120,180,12.0,64.0
1414,41.0,0,180,14.0,64.0
1415,53.0,0,180,13.0,64.0
1416,69.0,0,60,11.0,64.0
1417,65.0,0,60,11.0,64.0
1418,77.0,120,60,10.0,64.0
1419,72.0,0,60,11.0,64.0
1420,70.0,78,60,11.0,64.0
1421,79.0,30,30,10.0,64.0
1422,69.0,18,60,11.0,64.0
1423,77.0,12,30,10.0,64.0
1424,79.0,30,30,10.0,64.0
1425,77.0,60,30,10.0,64.0
1426,76.0,12,60,10.0,64.0
1427,65.0,36,60,11.0,64.0
1428,77.0,84,40,10.0,64.0
1429,70.0,120,60,11.0,64.0
1430,36.0,0,180,14.0,64.0
1431,48.0,120,180,1.0,64.0
1432,76.0,0,60,10.0,64.0
1433,48.0,0,180,13.0,64.0
1434,60.0,0,180,12.0,64.0
1435,69.0,0,60,11.0,64.0
1436,79.0,0,60,10.0,64.0
1437,67.0,120,60,11.0,64.0
1438,65.0,120,60,11.0,64.0
1439,64.0,120,60,11.0,64.0
1440,84.0,0,60,10.0,64.0
1441,60.0,120,60,11.0,64.0
1442,53.0,0,180,13.0,64.0
1443,81.0,72,240,10.0,64.0
1444,53.0,0,180,1.0,64.0
1445,65.0,0,180,12.0,64.0
1446,41.0,48,180,14.0,64.0
1447,65.0,120,60,11.0,64.0
1448,67.0,0,60,11.0,64.0
1449,77.0,12,180,10.0,64.0
1450,69.0,108,60,11.0,64.0
1451,67.0,120,60,11.0,64.0
1452,69.0,120,60,11.0,64.0
1453,81.0,144,90,10.0,64.0
1454,65.0,24,60,11.0,64.0
1455,79.0,120,240,10.0,64.0
1456,58.0,72,480,13.0,64.0
1457,46.0,0,480,14.0,64.0
1458,62.0,120,120,11.0,64.0
1459,67.0,0,120,11.0,64.0
1460,70.0,96,120,11.0,64.0
1461,82.0,0,240,10.0,64.0
1462,74.0,24,90,11.0,64.0
1463,75.0,120,60,11.0,64.0
1464,78.0,12,240,10.0,64.0
1465,48.0,120,240,14.0,64.0
1466,60.0,0,240,13.0,64.0
1467,75.0,36,60,11.0,64.0
1468,74.0,120,120,11.0,64.0
1469,58.0,72,480,13.0,64.0
1470,46.0,0,480,14.0,64.0
1471,79.0,120,240,10.0,64.0
1472,70.0,0,120,11.0,64.0
1473,67.0,72,120,11.0,64.0
1474,86.0,24,180,10.0,64.0
1475,62.0,24,90,11.0,64.0
1476,63.0,120,60,11.0,64.0
1477,48.0,0,240,14.0,64.0
1478,60.0,120,240,13.0,64.0
1479,78.0,48,60,10.0,64.0
1480,63.0,0,60,11.0,64.0
1481,79.0,120,240,10.0,64.0
1482,62.0,120,120,11.0,64.0
1483,58.0,72,480,13.0,64.0
1484,46.0,0,480,14.0,64.0
1485,67.0,0,120,11.0,64.0
1486,70.0,96,120,11.0,64.0
1487,82.0,0,240,10.0,64.0
1488,74.0,24,90,11.0,64.0
1489,78.0,12,240,10.0,64.0
1490,60.0,120,240,13.0,64.0
1491,48.0,0,240,14.0,64.0
1492,75.0,120,60,11.0,64.0
1493,75.0,36,60,11.0,64.0
1494,46.0,0,480,14.0,64.0
1495,58.0,72,480,13.0,64.0
1496,74.0,120,120,11.0,64.0
1497,79.0,0,240,10.0,64.0
1498,70.0,120,120,11.0,64.0
1499,86.0,24,180,10.0,64.0
1500,67.0,72,120,11.0,64.0
1501,62.0,24,90,11.0,64.0
1502,63.0,120,60,11.0,64.0
1503,48.0,72,240,14.0,64.0
1504,60.0,0,240,13.0,64.0
1505,63.0,0,60,11.0,64.0
1506,78.0,48,60,10.0,64.0
1507,79.0,72,720,10.0,64.0
1508,58.0,0,2160,12.0,64.0
1509,58.0,0,2160,1.0,64.0
1510,58.0,0,180,13.0,64.0
1511,46.0,0,180,14.0,64.0
1512,62.0,120,60,11.0,64.0
1513,67.0,120,60,11.0,64.0
1514,70.0,120,60,11.0,64.0
1515,74.0,120,60,11.0,64.0
1516,70.0,120,60,11.0,64.0
1517,67.0,48,60,11.0,64.0
1518,62.0,120,60,11.0,64.0
1519,82.0,72,720,10.0,64.0
1520,67.0,120,60,11.0,64.0
1521,70.0,120,60,11.0,64.0
1522,74.0,120,60,11.0,64.0
1523,70.0,120,60,11.0,64.0
1524,67.0,48,60,11.0,64.0
1525,86.0,72,720,10.0,64.0
1526,62.0,120,60,11.0,64.0
1527,67.0,120,60,11.0,64.0
1528,70.0,120,60,11.0,64.0
1529,74.0,120,60,11.0,64.0
1530,70.0,120,60,11.0,64.0
1531,67.0,48,60,11.0,64.0
1532,62.0,120,60,11.0,64.0
1533,59.0,108,690,12.0,64.0
1534,77.0,0,690,10.0,64.0
1535,59.0,0,690,1.0,64.0
1536,67.0,120,60,11.0,64.0
1537,71.0,120,60,11.0,64.0
1538,74.0,120,60,11.0,64.0
1539,71.0,120,60,11.0,64.0
1540,67.0,12,60,11.0,64.0
1541,72.0,0,2850,2.0,64.0
1542,72.0,0,720,0.0,64.0
1543,36.0,72,720,14.0,64.0
1544,76.0,0,720,0.0,64.0
1545,60.0,0,720,1.0,64.0
1546,48.0,0,720,13.0,64.0
1547,60.0,102,90,12.0,64.0
1548,76.0,0,60,10.0,64.0
1549,48.0,0,90,12.0,64.0
1550,76.0,18,60,11.0,64.0
1551,48.0,0,180,12.0,64.0
1552,72.0,0,60,10.0,64.0
1553,72.0,108,60,11.0,64.0
1554,60.0,12,180,12.0,64.0
1555,72.0,120,60,11.0,64.0
1556,72.0,0,60,10.0,64.0
1557,72.0,0,60,11.0,64.0
1558,48.0,0,180,12.0,64.0
1559,60.0,30,180,12.0,64.0
1560,72.0,78,60,10.0,64.0
1561,74.0,30,30,10.0,64.0
1562,74.0,0,30,11.0,64.0
1563,72.0,0,30,10.0,64.0
1564,72.0,0,30,11.0,64.0
1565,74.0,0,30,11.0,64.0
1566,74.0,30,30,10.0,64.0
1567,72.0,0,30,11.0,64.0
1568,72.0,60,30,10.0,64.0
1569,48.0,102,210,12.0,64.0
1570,71.0,0,60,10.0,64.0
1571,60.0,0,210,12.0,64.0
1572,71.0,48,60,11.0,64.0
1573,72.0,0,40,11.0,64.0
1574,72.0,12,40,10.0,64.0
1575,79.0,0,60,11.0,64.0
1576,70.0,0,720,0.0,64.0
1577,52.0,72,720,13.0,64.0
1578,79.0,0,720,0.0,64.0
1579,40.0,0,720,14.0,64.0
1580,64.0,0,720,1.0,64.0
1581,79.0,18,60,10.0,64.0
1582,72.0,108,60,11.0,64.0
1583,60.0,12,180,12.0,64.0
1584,48.0,0,180,12.0,64.0
1585,72.0,0,60,10.0,64.0
1586,72.0,0,60,11.0,64.0
1587,72.0,120,60,10.0,64.0
1588,60.0,0,180,12.0,64.0
1589,72.0,0,60,11.0,64.0
1590,72.0,78,60,10.0,64.0
1591,48.0,0,180,12.0,64.0
1592,74.0,0,30,11.0,64.0
1593,74.0,30,30,10.0,64.0
1594,72.0,30,30,11.0,64.0
1595,72.0,0,30,10.0,64.0
1596,74.0,30,30,11.0,64.0
1597,74.0,0,30,10.0,64.0
1598,72.0,60,30,10.0,64.0
1599,72.0,0,30,11.0,64.0
1600,71.0,48,60,10.0,64.0
1601,60.0,0,210,12.0,64.0
1602,71.0,0,60,11.0,64.0
1603,48.0,102,210,12.0,64.0
1604,72.0,0,40,11.0,64.0
1605,72.0,12,40,10.0,64.0
1606,82.0,0,60,10.0,64.0
1607,64.0,0,720,0.0,64.0
1608,55.0,0,720,13.0,64.0
1609,43.0,72,720,14.0,64.0
1610,82.0,18,60,11.0,64.0
1611,82.0,0,720,0.0,64.0
1612,67.0,0,720,1.0,64.0
1613,72.0,0,60,10.0,64.0
1614,48.0,0,180,12.0,64.0
1615,60.0,12,180,12.0,64.0
1616,72.0,108,60,11.0,64.0
1617,72.0,0,60,10.0,64.0
1618,72.0,120,60,11.0,64.0
1619,72.0,78,60,11.0,64.0
1620,72.0,0,60,10.0,64.0
1621,60.0,0,180,12.0,64.0
1622,48.0,0,180,12.0,64.0
1623,74.0,0,30,11.0,64.0
1624,74.0,30,30,10.0,64.0
1625,72.0,0,30,10.0,64.0
1626,72.0,30,30,11.0,64.0
1627,74.0,30,30,10.0,64.0
1628,74.0,0,30,11.0,64.0
1629,72.0,60,30,11.0,64.0
1630,72.0,0,30,10.0,64.0
1631,71.0,48,60,10.0,64.0
1632,48.0,102,210,12.0,64.0
1633,60.0,0,210,12.0,64.0
1634,71.0,0,60,11.0,64.0
1635,72.0,12,40,10.0,64.0
1636,72.0,0,40,11.0,64.0
1637,46.0,24,690,13.0,64.0
1638,58.0,0,690,1.0,64.0
1639,76.0,0,60,10.0,64.0
1640,34.0,0,690,14.0,64.0
1641,70.0,0,690,0.0,64.0
1642,76.0,0,690,0.0,64.0
1643,76.0,18,60,11.0,64.0
1644,72.0,108,60,10.0,64.0
1645,72.0,0,60,11.0,64.0
1646,48.0,0,180,12.0,64.0
1647,60.0,12,180,12.0,64.0
1648,72.0,0,60,10.0,64.0
1649,72.0,120,60,11.0,64.0
1650,72.0,0,60,10.0,64.0
1651,60.0,0,180,12.0,64.0
1652,48.0,0,180,12.0,64.0
1653,72.0,78,60,11.0,64.0
1654,74.0,0,30,10.0,64.0
1655,74.0,30,30,11.0,64.0
1656,72.0,30,30,10.0,64.0
1657,72.0,0,30,11.0,64.0
1658,74.0,0,30,10.0,64.0
1659,74.0,30,30,11.0,64.0
1660,72.0,0,30,10.0,64.0
1661,72.0,60,30,11.0,64.0
1662,48.0,0,240,12.0,64.0
1663,60.0,0,240,12.0,64.0
1664,71.0,24,60,10.0,64.0
1665,71.0,0,60,11.0,64.0
1666,72.0,0,40,11.0,64.0
1667,72.0,76,40,10.0,64.0
1668,65.0,0,180,2.0,64.0
1669,72.0,32,180,2.0,64.0
1670,57.0,0,120,1.0,64.0
1671,33.0,12,120,14.0,64.0
1672,45.0,0,120,13.0,64.0
1673,77.0,0,180,0.0,64.0
1674,65.0,0,180,0.0,64.0
1675,77.0,0,180,10.0,64.0
1676,77.0,68,60,11.0,64.0
1677,77.0,48,60,11.0,64.0
1678,77.0,80,60,11.0,64.0
1679,77.0,68,60,11.0,64.0
1680,65.0,0,120,12.0,64.0
1681,53.0,12,120,13.0,64.0
1682,41.0,0,120,14.0,64.0
1683,53.0,0,120,1.0,64.0
1684,77.0,80,60,11.0,64.0
1685,77.0,76,60,11.0,64.0
1686,77.0,56,60,11.0,64.0
1687,51.0,0,120,1.0,64.0
1688,53.0,0,180,2.0,64.0
1689,65.0,32,180,2.0,64.0
1690,63.0,12,120,12.0,64.0
1691,51.0,0,120,13.0,64.0
1692,70.0,0,60,0.0,64.0
1693,82.0,4,60,10.0,64.0
1694,39.0,0,120,14.0,64.0
1695,81.0,0,60,10.0,64.0
1696,69.0,12,60,0.0,64.0
1697,77.0,36,60,11.0,64.0
1698,67.0,12,60,0.0,64.0
1699,79.0,0,60,10.0,64.0
1700,77.0,4,60,11.0,64.0
1701,69.0,76,40,0.0,64.0
1702,81.0,0,40,10.0,64.0
1703,50.0,0,120,1.0,64.0
1704,65.0,0,180,2.0,64.0
1705,53.0,32,180,2.0,64.0
1706,62.0,12,120,12.0,64.0
1707,82.0,48,150,10.0,64.0
1708,50.0,0,120,13.0,64.0
1709,77.0,68,60,11.0,64.0
1710,70.0,0,120,0.0,64.0
1711,38.0,0,120,14.0,64.0
1712,77.0,0,60,11.0,64.0
1713,77.0,80,60,11.0,64.0
1714,48.0,0,120,1.0,64.0
1715,84.0,0,150,10.0,64.0
1716,77.0,68,60,11.0,64.0
1717,48.0,0,120,13.0,64.0
1718,36.0,0,120,14.0,64.0
1719,72.0,12,120,0.0,64.0
1720,69.0,0,120,0.0,64.0
1721,53.0,0,180,2.0,64.0
1722,65.0,32,180,2.0,64.0
1723,60.0,0,120,12.0,64.0
1724,77.0,48,60,11.0,64.0
1725,77.0,80,60,11.0,64.0
1726,46.0,0,120,13.0,64.0
1727,74.0,0,120,0.0,64.0
1728,34.0,0,120,14.0,64.0
1729,86.0,0,150,10.0,64.0
1730,77.0,68,60,11.0,64.0
1731,70.0,0,120,0.0,64.0
1732,58.0,0,120,12.0,64.0
1733,46.0,12,120,1.0,64.0
1734,53.0,0,180,2.0,64.0
1735,65.0,32,180,2.0,64.0
1736,77.0,48,60,11.0,64.0
1737,77.0,80,60,11.0,64.0
1738,77.0,68,60,11.0,64.0
1739,57.0,0,120,12.0,64.0
1740,84.0,0,150,10.0,64.0
1741,45.0,0,120,13.0,64.0
1742,65.0,32,180,2.0,64.0
1743,72.0,0,120,0.0,64.0
1744,53.0,0,180,2.0,64.0
1745,33.0,12,120,14.0,64.0
1746,45.0,0,120,1.0,64.0
1747,77.0,48,60,11.0,64.0
1748,77.0,80,60,11.0,64.0
1749,53.0,12,120,14.0,64.0
1750,77.0,68,60,11.0,64.0
1751,65.0,0,120,12.0,64.0
1752,65.0,0,120,13.0,64.0
1753,65.0,0,120,1.0,64.0
1754,77.0,80,60,11.0,64.0
1755,77.0,76,60,11.0,64.0
1756,63.0,0,120,12.0,64.0
1757,51.0,0,120,14.0,64.0
1758,63.0,12,120,1.0,64.0
1759,82.0,4,60,10.0,64.0
1760,63.0,0,120,13.0,64.0
1761,77.0,56,60,11.0,64.0
1762,81.0,12,60,10.0,64.0
1763,77.0,36,60,11.0,64.0
1764,79.0,44,60,10.0,64.0
1765,77.0,4,60,11.0,64.0
1766,81.0,76,40,10.0,64.0
1767,77.0,68,60,11.0,64.0
1768,50.0,0,120,14.0,64.0
1769,82.0,80,150,10.0,64.0
1770,62.0,12,120,12.0,64.0
1771,62.0,0,120,1.0,64.0
1772,62.0,0,120,13.0,64.0
1773,77.0,0,60,11.0,64.0
1774,77.0,80,60,11.0,64.0
1775,60.0,0,120,12.0,64.0
1776,48.0,12,120,14.0,64.0
1777,77.0,68,60,11.0,64.0
1778,60.0,0,120,1.0,64.0
1779,60.0,0,120,13.0,64.0
1780,84.0,0,150,10.0,64.0
1781,77.0,80,60,11.0,64.0
1782,77.0,80,60,11.0,64.0
1783,58.0,0,120,13.0,64.0
1784,77.0,68,60,11.0,64.0
1785,86.0,80,150,10.0,64.0
1786,58.0,0,120,1.0,64.0
1787,46.0,12,120,14.0,64.0
1788,58.0,0,120,12.0,64.0
1789,77.0,0,60,11.0,64.0
1790,77.0,80,60,11.0,64.0
1791,53.0,0,180,2.0,64.0
1792,57.0,0,90,1.0,64.0
1793,65.0,6,180,2.0,64.0
1794,77.0,14,60,11.0,64.0
1795,57.0,0,90,12.0,64.0
1796,84.0,48,150,10.0,64.0
1797,57.0,66,90,13.0,64.0
1798,77.0,54,390,0.0,64.0
1799,65.0,0,390,0.0,64.0
1800,45.0,0,90,14.0,64.0
1801,77.0,0,60,11.0,64.0
1802,57.0,26,90,1.0,64.0
1803,45.0,0,90,14.0,64.0
1804,57.0,0,90,12.0,64.0
1805,57.0,0,90,13.0,64.0
1806,77.0,80,60,11.0,64.0
1807,41.0,0,90,14.0,64.0
1808,53.0,18,90,1.0,64.0
1809,65.0,0,90,12.0,64.0
1810,77.0,14,60,11.0,64.0
1811,53.0,0,90,13.0,64.0
1812,65.0,48,90,2.0,64.0
1813,53.0,0,90,2.0,64.0
1814,77.0,0,60,11.0,64.0
1815,41.0,0,90,14.0,64.0
1816,65.0,0,90,2.0,64.0
1817,53.0,0,90,1.0,64.0
1818,65.0,18,90,12.0,64.0
1819,53.0,0,90,13.0,64.0
1820,53.0,8,90,2.0,64.0
1821,77.0,76,60,11.0,64.0
1822,51.0,0,90,1.0,64.0
1823,39.0,0,90,14.0,64.0
1824,70.0,0,60,0.0,64.0
1825,63.0,18,90,12.0,64.0
1826,53.0,24,90,2.0,64.0
1827,65.0,0,90,2.0,64.0
1828,77.0,14,60,11.0,64.0
1829,82.0,4,60,10.0,64.0
1830,51.0,0,90,13.0,64.0
1831,69.0,24,60,0.0,64.0
1832,81.0,0,60,10.0,64.0
1833,77.0,36,60,11.0,64.0
1834,79.0,18,60,10.0,64.0
1835,51.0,0,90,1.0,64.0
1836,65.0,8,90,2.0,64.0
1837,53.0,0,90,2.0,64.0
1838,51.0,0,90,13.0,64.0
1839,39.0,0,90,14.0,64.0
1840,63.0,18,90,12.0,64.0
1841,67.0,0,60,0.0,64.0
1842,77.0,4,60,11.0,64.0
1843,81.0,76,40,10.0,64.0
1844,69.0,0,40,0.0,64.0
1845,50.0,0,90,13.0,64.0
1846,53.0,0,180,2.0,64.0
1847,65.0,6,180,2.0,64.0
1848,62.0,0,90,12.0,64.0
1849,38.0,54,90,14.0,64.0
1850,77.0,14,60,11.0,64.0
1851,50.0,0,90,1.0,64.0
1852,70.0,12,120,0.0,64.0
1853,82.0,0,150,10.0,64.0
1854,77.0,48,60,11.0,64.0
1855,50.0,0,90,13.0,64.0
1856,50.0,0,90,1.0,64.0
1857,62.0,0,90,12.0,64.0
1858,38.0,26,90,14.0,64.0
1859,77.0,80,60,11.0,64.0
1860,48.0,54,90,13.0,64.0
1861,65.0,6,180,2.0,64.0
1862,60.0,0,90,12.0,64.0
1863,48.0,0,90,1.0,64.0
1864,53.0,0,180,2.0,64.0
1865,36.0,0,90,14.0,64.0
1866,72.0,0,120,0.0,64.0
1867,69.0,12,120,0.0,64.0
1868,77.0,14,60,11.0,64.0
1869,84.0,0,150,10.0,64.0
1870,77.0,48,60,11.0,64.0
1871,60.0,26,90,12.0,64.0
1872,36.0,0,90,14.0,64.0
1873,48.0,0,90,13.0,64.0
1874,48.0,0,90,1.0,64.0
1875,77.0,80,60,11.0,64.0
1876,46.0,0,90,13.0,64.0
1877,86.0,0,150,10.0,64.0
1878,34.0,0,90,14.0,64.0
1879,70.0,0,120,0.0,64.0
1880,65.0,6,180,2.0,64.0
1881,53.0,0,180,2.0,64.0
1882,46.0,54,90,1.0,64.0
1883,58.0,0,90,12.0,64.0
1884,77.0,14,60,11.0,64.0
1885,74.0,12,120,0.0,64.0
1886,77.0,48,60,11.0,64.0
1887,58.0,0,90,12.0,64.0
1888,46.0,0,90,1.0,64.0
1889,46.0,0,90,13.0,64.0
1890,34.0,26,90,14.0,64.0
1891,77.0,304,60,11.0,64.0
1892,77.0,0,300,11.0,64.0
1893,45.0,0,300,1.0,64.0
1894,65.0,12,2850,2.0,64.0
1895,87.0,168,300,10.0,64.0
1896,45.0,0,300,13.0,64.0
1897,33.0,0,300,14.0,64.0
1898,60.0,0,300,12.0,64.0
1899,75.0,48,660,0.0,64.0
1900,45.0,0,90,13.0,64.0
1901,33.0,0,90,14.0,64.0
1902,77.0,0,90,11.0,64.0
1903,87.0,0,90,10.0,64.0
1904,45.0,0,90,1.0,64.0
1905,60.0,120,90,12.0,64.0
1906,77.0,0,90,11.0,64.0
1907,45.0,0,90,13.0,64.0
1908,60.0,0,90,12.0,64.0
1909,87.0,72,90,10.0,64.0
1910,45.0,0,90,1.0,64.0
1911,33.0,0,90,14.0,64.0
1912,45.0,0,90,1.0,64.0
1913,60.0,0,90,12.0,64.0
1914,77.0,0,90,11.0,64.0
1915,33.0,0,90,14.0,64.0
1916,87.0,312,90,10.0,64.0
1917,45.0,0,90,13.0,64.0
1918,85.0,0,300,10.0,64.0
1919,77.0,0,300,11.0,64.0
1920,73.0,48,660,0.0,64.0
1921,57.0,0,300,1.0,64.0
1922,57.0,168,300,12.0,64.0
1923,45.0,0,300,14.0,64.0
1924,57.0,0,300,13.0,64.0
1925,45.0,0,90,14.0,64.0
1926,85.0,120,90,10.0,64.0
1927,57.0,0,90,12.0,64.0
1928,57.0,0,90,1.0,64.0
1929,77.0,0,90,11.0,64.0
1930,57.0,0,90,13.0,64.0
1931,57.0,0,90,1.0,64.0
1932,45.0,0,90,14.0,64.0
1933,85.0,0,90,10.0,64.0
1934,57.0,72,90,13.0,64.0
1935,77.0,0,90,11.0,64.0
1936,57.0,0,90,12.0,64.0
1937,77.0,0,90,11.0,64.0
1938,45.0,0,90,14.0,64.0
1939,57.0,0,90,1.0,64.0
1940,85.0,0,90,10.0,64.0
1941,57.0,312,90,12.0,64.0
1942,57.0,0,90,13.0,64.0
1943,74.0,48,660,0.0,64.0
1944,58.0,168,300,12.0,64.0
1945,77.0,0,300,11.0,64.0
1946,58.0,0,300,13.0,64.0
1947,86.0,0,300,10.0,64.0
1948,46.0,0,300,14.0,64.0
1949,58.0,0,300,1.0,64.0
1950,77.0,0,90,11.0,64.0
1951,58.0,0,90,1.0,64.0
1952,86.0,120,90,10.0,64.0
1953,58.0,0,90,13.0,64.0
1954,58.0,0,90,12.0,64.0
1955,46.0,0,90,14.0,64.0
1956,46.0,72,90,14.0,64.0
1957,58.0,0,90,13.0,64.0
1958,58.0,0,90,1.0,64.0
1959,58.0,0,90,12.0,64.0
1960,86.0,0,90,10.0,64.0
1961,77.0,0,90,11.0,64.0
1962,86.0,0,90,10.0,64.0
1963,58.0,0,90,12.0,64.0
1964,77.0,0,90,11.0,64.0
1965,58.0,0,90,13.0,64.0
1966,46.0,312,90,14.0,64.0
1967,58.0,0,90,1.0,64.0
1968,79.0,0,300,10.0,64.0
1969,77.0,0,300,11.0,64.0
1970,47.0,168,300,14.0,64.0
1971,59.0,0,300,13.0,64.0
1972,62.0,0,300,12.0,64.0
1973,67.0,36,660,0.0,64.0
1974,59.0,0,300,1.0,64.0
1975,77.0,0,90,11.0,64.0
1976,59.0,0,90,1.0,64.0
1977,59.0,0,90,13.0,64.0
1978,47.0,0,90,14.0,64.0
1979,62.0,120,90,12.0,64.0
1980,79.0,0,90,10.0,64.0
1981,79.0,0,90,10.0,64.0
1982,47.0,0,90,14.0,64.0
1983,59.0,0,90,13.0,64.0
1984,62.0,0,90,12.0,64.0
1985,59.0,72,90,1.0,64.0
1986,77.0,0,90,11.0,64.0
1987,79.0,0,90,10.0,64.0
1988,77.0,0,90,11.0,64.0
1989,47.0,54,90,14.0,64.0
1990,59.0,0,90,1.0,64.0
1991,62.0,0,90,12.0,64.0
1992,59.0,0,90,13.0,64.0
1993,65.0,0,240,0.0,64.0
1994,81.0,0,30,10.0,64.0
1995,48.0,0,90,14.0,64.0
1996,72.0,48,1110,2.0,64.0
1997,60.0,0,90,13.0,64.0
1998,77.0,30,30,11.0,64.0
1999,69.0,0,240,0.0,64.0
2000,60.0,0,90,1.0,64.0
2001,60.0,120,90,12.0,64.0
2002,82.0,0,30,10.0,64.0
2003,79.0,36,30,11.0,64.0
2004,81.0,0,180,11.0,64.0
2005,84.0,96,180,10.0,64.0
2006,48.0,24,90,14.0,64.0
2007,60.0,0,90,1.0,64.0
2008,60.0,0,90,12.0,64.0
2009,60.0,0,90,13.0,64.0
2010,60.0,0,90,1.0,64.0
2011,60.0,96,90,12.0,64.0
2012,60.0,0,90,13.0,64.0
2013,69.0,0,180,0.0,64.0
2014,72.0,24,180,0.0,64.0
2015,48.0,0,90,14.0,64.0
2016,77.0,0,60,10.0,64.0
2017,60.0,0,90,1.0,64.0
2018,60.0,0,90,12.0,64.0
2019,60.0,96,90,13.0,64.0
2020,69.0,0,60,11.0,64.0
2021,48.0,0,90,14.0,64.0
2022,69.0,0,60,11.0,64.0
2023,60.0,0,90,12.0,64.0
2024,77.0,24,60,10.0,64.0
2025,48.0,0,90,14.0,64.0
2026,77.0,60,120,0.0,64.0
2027,72.0,0,120,0.0,64.0
2028,60.0,36,90,1.0,64.0
2029,60.0,0,90,13.0,64.0
2030,60.0,0,90,12.0,64.0
2031,69.0,24,60,11.0,64.0
2032,60.0,0,90,1.0,64.0
2033,60.0,0,90,13.0,64.0
2034,48.0,54,90,14.0,64.0
2035,77.0,0,60,10.0,64.0
2036,60.0,120,90,12.0,64.0
2037,79.0,30,30,10.0,64.0
2038,48.0,0,90,13.0,64.0
2039,70.0,96,240,0.0,64.0
2040,79.0,0,240,0.0,64.0
2041,64.0,0,30,11.0,64.0
2042,48.0,0,90,1.0,64.0
2043,36.0,0,90,14.0,64.0
2044,65.0,0,30,11.0,64.0
2045,81.0,36,30,10.0,64.0
2046,67.0,0,180,11.0,64.0
2047,82.0,0,180,10.0,64.0
2048,36.0,0,90,14.0,64.0
2049,48.0,0,90,1.0,64.0
2050,48.0,0,90,13.0,64.0
2051,60.0,24,90,12.0,64.0
2052,67.0,0,180,0.0,64.0
2053,36.0,0,90,14.0,64.0
2054,82.0,0,180,0.0,64.0
2055,60.0,0,90,12.0,64.0
2056,48.0,48,90,13.0,64.0
2057,48.0,0,90,1.0,64.0
2058,67.0,24,60,11.0,64.0
2059,70.0,0,60,11.0,64.0
2060,36.0,0,90,14.0,64.0
2061,48.0,96,90,1.0,64.0
2062,48.0,0,90,13.0,64.0
2063,76.0,0,60,10.0,64.0
2064,60.0,0,90,12.0,64.0
2065,48.0,0,90,1.0,64.0
2066,48.0,0,90,13.0,64.0
2067,72.0,24,180,2.0,64.0
2068,36.0,36,90,14.0,64.0
2069,67.0,0,60,11.0,64.0
2070,70.0,60,120,0.0,64.0
2071,76.0,24,60,10.0,64.0
2072,60.0,0,90,12.0,64.0
2073,70.0,0,60,11.0,64.0
2074,76.0,0,120,0.0,64.0
2075,36.0,0,90,14.0,64.0
2076,76.0,0,60,10.0,64.0
2077,48.0,0,90,1.0,64.0
2078,48.0,216,90,13.0,64.0
2079,70.0,0,60,11.0,64.0
2080,67.0,0,60,11.0,64.0
2081,60.0,0,90,12.0,64.0
2082,53.0,168,180,13.0,64.0
2083,65.0,0,180,2.0,64.0
2084,77.0,0,180,0.0,64.0
2085,69.0,0,180,0.0,64.0
2086,60.0,0,180,12.0,64.0
2087,41.0,0,180,14.0,64.0
2088,77.0,0,180,10.0,64.0
2089,69.0,0,180,11.0,64.0
2090,65.0,0,180,11.0,64.0
2091,72.0,0,180,2.0,64.0
2092,53.0,0,180,1.0,64.0
2093,77.0,120,120,10.0,64.0
2094,76.0,120,120,10.0,64.0
2095,65.0,0,420,11.0,64.0
2096,57.0,192,240,1.0,64.0
2097,57.0,0,240,12.0,64.0
2098,60.0,0,240,12.0,64.0
2099,77.0,120,120,10.0,64.0
2100,75.0,0,120,10.0,64.0
2101,74.0,168,180,10.0,64.0
2102,58.0,0,180,1.0,64.0
2103,58.0,0,180,12.0,64.0
2104,79.0,120,120,10.0,64.0
2105,78.0,120,120,10.0,64.0
2106,79.0,120,120,10.0,64.0
2107,59.0,0,240,1.0,64.0
2108,62.0,192,240,12.0,64.0
2109,59.0,0,240,12.0,64.0
2110,67.0,0,420,11.0,64.0
2111,77.0,0,120,10.0,64.0
2112,60.0,0,180,12.0,64.0
2113,76.0,168,180,10.0,64.0
2114,60.0,0,180,1.0,64.0
2115,81.0,120,120,10.0,64.0
2116,80.0,120,120,10.0,64.0
2117,61.0,0,240,1.0,64.0
2118,61.0,192,240,12.0,64.0
2119,81.0,120,120,10.0,64.0
2120,64.0,0,240,12.0,64.0
2121,69.0,0,420,11.0,64.0
2122,79.0,0,120,10.0,64.0
2123,62.0,0,180,1.0,64.0
2124,62.0,168,180,12.0,64.0
2125,77.0,0,180,10.0,64.0
2126,82.0,120,120,10.0,64.0
2127,81.0,120,120,10.0,64.0
2128,62.0,192,240,1.0,64.0
2129,70.0,0,420,11.0,64.0
2130,62.0,0,240,12.0,64.0
2131,65.0,0,240,12.0,64.0
2132,82.0,120,120,10.0,64.0
2133,81.0,0,120,10.0,64.0
2134,79.0,0,180,10.0,64.0
2135,64.0,0,180,1.0,64.0
2136,64.0,168,180,12.0,64.0
2137,48.0,0,360,1.0,64.0
2138,72.0,120,120,11.0,64.0
2139,84.0,0,120,10.0,64.0
2140,48.0,0,360,13.0,64.0
2141,83.0,0,120,10.0,64.0
2142,71.0,120,120,11.0,64.0
2143,72.0,60,120,11.0,64.0
2144,84.0,0,120,10.0,64.0
2145,70.0,0,120,11.0,64.0
2146,50.0,60,60,1.0,64.0
2147,82.0,78,120,10.0,64.0
2148,50.0,0,60,13.0,64.0
2149,52.0,0,60,13.0,64.0
2150,52.0,0,60,1.0,64.0
2151,53.0,54,150,1.0,64.0
2152,81.0,0,150,10.0,64.0
2153,69.0,66,90,11.0,64.0
2154,53.0,0,150,13.0,64.0
2155,72.0,78,240,12.0,64.0
2156,72.0,42,90,11.0,64.0
2157,70.0,78,240,12.0,64.0
2158,79.0,0,120,10.0,64.0
2159,64.0,54,90,11.0,64.0
2160,55.0,0,120,1.0,64.0
2161,55.0,66,120,13.0,64.0
2162,72.0,42,90,11.0,64.0
2163,69.0,132,240,12.0,64.0
2164,65.0,54,90,11.0,64.0
2165,57.0,0,120,13.0,64.0
2166,77.0,0,120,10.0,64.0
2167,57.0,66,120,1.0,64.0
2168,72.0,42,90,11.0,64.0
2169,67.0,0,180,12.0,64.0
2170,60.0,168,180,11.0,64.0
2171,58.0,0,120,13.0,64.0
2172,76.0,60,120,10.0,64.0
2173,58.0,0,120,1.0,64.0
2174,72.0,0,120,11.0,64.0
2175,84.0,120,120,10.0,64.0
2176,48.0,60,360,13.0,64.0
2177,48.0,0,360,1.0,64.0
2178,71.0,120,120,11.0,64.0
2179,83.0,0,120,10.0,64.0
2180,84.0,0,120,10.0,64.0
2181,72.0,0,120,11.0,64.0
2182,50.0,0,60,1.0,64.0
2183,70.0,78,120,11.0,64.0
2184,82.0,0,120,10.0,64.0
2185,50.0,60,60,13.0,64.0
2186,52.0,0,60,13.0,64.0
2187,52.0,0,60,1.0,64.0
2188,72.0,78,240,12.0,64.0
2189,53.0,54,150,13.0,64.0
2190,69.0,66,90,11.0,64.0
2191,81.0,0,150,10.0,64.0
2192,53.0,0,150,1.0,64.0
2193,72.0,42,90,11.0,64.0
2194,64.0,54,90,11.0,64.0
2195,70.0,78,240,12.0,64.0
2196,79.0,66,120,10.0,64.0
2197,55.0,0,120,13.0,64.0
2198,55.0,0,120,1.0,64.0
2199,72.0,42,90,11.0,64.0
2200,65.0,54,90,11.0,64.0
2201,69.0,132,240,12.0,64.0
2202,57.0,0,120,13.0,64.0
2203,77.0,66,120,10.0,64.0
2204,57.0,0,120,1.0,64.0
2205,72.0,42,90,11.0,64.0
2206,58.0,0,120,1.0,64.0
2207,60.0,168,180,11.0,64.0
2208,58.0,60,120,13.0,64.0
2209,67.0,0,180,12.0,64.0
2210,76.0,0,120,10.0,64.0
2211,84.0,120,120,10.0,64.0
2212,72.0,0,120,11.0,64.0
2213,48.0,0,360,1.0,64.0
2214,48.0,0,360,13.0,64.0
2215,83.0,0,120,10.0,64.0
2216,71.0,120,120,11.0,64.0
2217,84.0,60,120,10.0,64.0
2218,72.0,0,120,11.0,64.0
2219,50.0,0,60,1.0,64.0
2220,50.0,60,60,13.0,64.0
2221,82.0,0,120,10.0,64.0
2222,70.0,120,120,11.0,64.0
2223,52.0,0,60,1.0,64.0
2224,52.0,0,60,13.0,64.0
2225,53.0,48,180,13.0,64.0
2226,69.0,0,120,11.0,64.0
2227,81.0,72,120,10.0,64.0
2228,65.0,0,120,12.0,64.0
2229,53.0,0,180,1.0,64.0
2230,68.0,0,120,11.0,64.0
2231,64.0,0,120,12.0,64.0
2232,80.0,120,120,10.0,64.0
2233,69.0,0,120,11.0,64.0
2234,65.0,0,120,12.0,64.0
2235,81.0,120,120,10.0,64.0
2236,79.0,0,120,10.0,64.0
2237,67.0,0,120,11.0,64.0
2238,64.0,120,120,12.0,64.0
2239,62.0,120,120,12.0,64.0
2240,77.0,0,120,10.0,64.0
2241,65.0,0,120,11.0,64.0
2242,76.0,0,120,10.0,64.0
2243,61.0,0,120,12.0,64.0
2244,64.0,120,120,11.0,64.0
2245,77.0,0,120,10.0,64.0
2246,62.0,120,120,12.0,64.0
2247,65.0,0,120,11.0,64.0
2248,64.0,120,120,11.0,64.0
2249,76.0,0,120,10.0,64.0
2250,60.0,0,120,12.0,64.0
2251,74.0,0,120,10.0,64.0
2252,62.0,0,120,11.0,64.0
2253,58.0,120,120,12.0,64.0
2254,73.0,0,120,10.0,64.0
2255,57.0,120,120,12.0,64.0
2256,61.0,0,120,11.0,64.0
2257,74.0,0,120,10.0,64.0
2258,62.0,0,120,11.0,64.0
2259,58.0,96,120,12.0,64.0
2260,72.0,0,90,10.0,64.0
2261,60.0,0,90,11.0,64.0
2262,57.0,144,90,12.0,64.0
2263,72.0,0,120,10.0,64.0
2264,46.0,84,120,1.0,64.0
2265,46.0,0,120,13.0,64.0
2266,60.0,0,120,11.0,64.0
2267,34.0,0,120,14.0,64.0
2268,57.0,12,120,12.0,64.0
2269,70.0,0,90,10.0,64.0
2270,58.0,0,90,11.0,64.0
2271,55.0,156,90,12.0,64.0
2272,48.0,240,120,1.0,64.0
2273,48.0,0,120,13.0,64.0
2274,69.0,0,120,10.0,64.0
2275,57.0,0,120,11.0,64.0
2276,53.0,0,120,12.0,64.0
2277,36.0,0,120,14.0,64.0
2278,55.0,0,120,11.0,64.0
2279,48.0,0,120,13.0,64.0
2280,36.0,0,120,14.0,64.0
2281,67.0,0,120,10.0,64.0
2282,48.0,240,120,1.0,64.0
2283,52.0,0,120,12.0,64.0
2284,41.0,0,120,1.0,64.0
2285,53.0,0,120,12.0,64.0
2286,29.0,228,120,14.0,64.0
2287,57.0,0,120,11.0,64.0
2288,65.0,0,120,10.0,64.0
2289,41.0,0,120,13.0,64.0
2290,53.0,0,120,13.0,64.0
2291,65.0,0,120,12.0,64.0
2292,69.0,0,480,0.0,64.0
2293,65.0,60,360,11.0,64.0
2294,77.0,0,360,10.0,64.0
2295,72.0,0,480,0.0,64.0
2296,41.0,0,120,14.0,64.0
2297,53.0,120,120,1.0,64.0
2298,64.0,0,120,12.0,64.0
2299,40.0,0,120,14.0,64.0
2300,52.0,0,120,13.0,64.0
2301,52.0,120,120,1.0,64.0
2302,41.0,0,120,14.0,64.0
2303,53.0,0,120,1.0,64.0
2304,65.0,0,120,12.0,64.0
2305,53.0,0,120,13.0,64.0
2306,79.0,0,60,10.0,64.0
2307,39.0,0,120,14.0,64.0
2308,67.0,60,60,11.0,64.0
2309,51.0,144,120,13.0,64.0
2310,63.0,0,120,12.0,64.0
2311,51.0,0,120,1.0,64.0
2312,81.0,0,60,10.0,64.0
2313,69.0,0,60,11.0,64.0
2314,70.0,168,180,2.0,64.0
2315,82.0,0,150,10.0,64.0
2316,50.0,0,150,1.0,64.0
2317,70.0,0,150,11.0,64.0
2318,50.0,0,150,13.0,64.0
2319,38.0,0,150,14.0,64.0
2320,62.0,48,150,12.0,64.0
2321,74.0,0,150,0.0,64.0
2322,70.0,0,180,0.0,64.0
2323,43.0,0,120,14.0,64.0
2324,67.0,0,120,12.0,64.0
2325,74.0,0,480,0.0,64.0
2326,71.0,0,480,0.0,64.0
2327,67.0,0,360,11.0,64.0
2328,55.0,120,120,1.0,64.0
2329,55.0,0,120,13.0,64.0
2330,79.0,0,360,10.0,64.0
2331,42.0,0,120,14.0,64.0
2332,54.0,120,120,13.0,64.0
2333,66.0,0,120,12.0,64.0
2334,54.0,0,120,1.0,64.0
2335,55.0,0,120,1.0,64.0
2336,67.0,0,120,12.0,64.0
2337,43.0,60,120,14.0,64.0
2338,55.0,0,120,13.0,64.0
2339,53.0,0,120,1.0,64.0
2340,53.0,0,120,13.0,64.0
2341,69.0,60,60,11.0,64.0
2342,65.0,144,120,12.0,64.0
2343,41.0,0,120,14.0,64.0
2344,81.0,0,60,10.0,64.0
2345,83.0,0,60,10.0,64.0
2346,71.0,0,60,11.0,64.0
2347,72.0,168,180,0.0,64.0
2348,52.0,0,150,1.0,64.0
2349,76.0,0,150,0.0,64.0
2350,40.0,0,150,14.0,64.0
2351,84.0,48,150,10.0,64.0
2352,72.0,0,180,2.0,64.0
2353,72.0,0,150,11.0,64.0
2354,52.0,0,150,13.0,64.0
2355,64.0,0,150,12.0,64.0
2356,72.0,0,660,0.0,64.0
2357,72.0,0,360,10.0,64.0
2358,60.0,120,120,12.0,64.0
2359,60.0,0,120,1.0,64.0
2360,60.0,0,360,11.0,64.0
2361,48.0,0,120,14.0,64.0
2362,60.0,0,120,13.0,64.0
2363,47.0,72,120,14.0,64.0
2364,59.0,0,120,1.0,64.0
2365,59.0,0,120,13.0,64.0
2366,59.0,0,120,12.0,64.0
2367,60.0,48,60,12.0,64.0
2368,60.0,0,120,1.0,64.0
2369,60.0,0,120,13.0,64.0
2370,48.0,60,120,14.0,64.0
2371,74.0,0,60,10.0,64.0
2372,58.0,0,120,1.0,64.0
2373,60.0,48,60,12.0,64.0
2374,58.0,0,120,13.0,64.0
2375,62.0,12,60,11.0,64.0
2376,46.0,0,120,14.0,64.0
2377,74.0,0,60,0.0,64.0
2378,76.0,72,60,10.0,64.0
2379,64.0,0,60,11.0,64.0
2380,76.0,0,60,0.0,64.0
2381,45.0,0,150,14.0,64.0
2382,65.0,72,60,11.0,64.0
2383,60.0,48,150,12.0,64.0
2384,72.0,0,180,2.0,64.0
2385,57.0,0,150,1.0,64.0
2386,57.0,0,150,13.0,64.0
2387,77.0,0,150,0.0,64.0
2388,77.0,0,60,10.0,64.0
2389,72.0,0,60,10.0,64.0
2390,60.0,120,60,11.0,64.0
2391,72.0,0,180,2.0,64.0
2392,43.0,0,120,14.0,64.0
2393,67.0,60,60,11.0,64.0
2394,64.0,48,150,12.0,64.0
2395,70.0,0,120,0.0,64.0
2396,79.0,0,120,0.0,64.0
2397,55.0,12,120,1.0,64.0
2398,55.0,0,120,13.0,64.0
2399,79.0,0,60,10.0,64.0
2400,72.0,0,60,10.0,64.0
2401,60.0,120,60,11.0,64.0
2402,53.0,0,120,13.0,64.0
2403,69.0,0,60,11.0,64.0
2404,81.0,60,60,10.0,64.0
2405,65.0,48,150,12.0,64.0
2406,72.0,0,180,2.0,64.0
2407,53.0,0,120,1.0,64.0
2408,81.0,0,120,0.0,64.0
2409,69.0,0,120,0.0,64.0
2410,41.0,12,120,14.0,64.0
2411,60.0,0,60,11.0,64.0
2412,72.0,120,60,10.0,64.0
2413,70.0,72,60,11.0,64.0
2414,52.0,0,150,13.0,64.0
2415,82.0,0,150,0.0,64.0
2416,52.0,0,150,1.0,64.0
2417,67.0,0,180,0.0,64.0
2418,40.0,48,150,14.0,64.0
2419,82.0,0,60,10.0,64.0
2420,67.0,0,150,12.0,64.0
2421,72.0,0,180,2.0,64.0
2422,82.0,0,60,10.0,64.0
2423,70.0,168,60,11.0,64.0
2424,60.0,120,120,12.0,64.0
2425,72.0,0,660,0.0,64.0
2426,72.0,0,360,10.0,64.0
2427,60.0,0,120,1.0,64.0
2428,60.0,0,120,13.0,64.0
2429,48.0,0,120,14.0,64.0
2430,60.0,0,360,11.0,64.0
2431,47.0,0,120,14.0,64.0
2432,59.0,0,120,1.0,64.0
2433,59.0,0,120,13.0,64.0
2434,59.0,72,120,12.0,64.0
2435,60.0,48,60,12.0,64.0
2436,48.0,0,120,14.0,64.0
2437,60.0,0,120,1.0,64.0
2438,60.0,60,120,13.0,64.0
2439,74.0,0,60,10.0,64.0
2440,60.0,48,60,12.0,64.0
2441,46.0,72,120,14.0,64.0
2442,62.0,12,60,11.0,64.0
2443,58.0,0,120,1.0,64.0
2444,74.0,0,60,0.0,64.0
2445,58.0,0,120,13.0,64.0
2446,76.0,0,60,0.0,64.0
2447,64.0,0,60,11.0,64.0
2448,76.0,0,60,10.0,64.0
2449,60.0,0,150,12.0,64.0
2450,65.0,72,60,11.0,64.0
2451,77.0,0,60,10.0,64.0
2452,77.0,0,150,0.0,64.0
2453,57.0,48,150,1.0,64.0
2454,57.0,0,150,13.0,64.0
2455,45.0,0,150,14.0,64.0
2456,72.0,0,180,2.0,64.0
2457,60.0,0,60,11.0,64.0
2458,72.0,120,60,10.0,64.0
2459,67.0,0,60,11.0,64.0
2460,55.0,0,120,13.0,64.0
2461,64.0,48,150,12.0,64.0
2462,79.0,60,60,10.0,64.0
2463,70.0,0,120,0.0,64.0
2464,43.0,0,120,14.0,64.0
2465,72.0,120,180,2.0,64.0
2466,55.0,0,120,1.0,64.0
2467,79.0,12,120,0.0,64.0
2468,60.0,0,60,11.0,64.0
2469,72.0,0,60,10.0,64.0
2470,69.0,60,60,11.0,64.0
2471,53.0,0,120,1.0,64.0
2472,41.0,12,120,14.0,64.0
2473,81.0,0,60,10.0,64.0
2474,65.0,48,150,12.0,64.0
2475,53.0,0,120,13.0,64.0
2476,72.0,120,180,2.0,64.0
2477,69.0,0,120,0.0,64.0
2478,81.0,0,120,0.0,64.0
2479,60.0,0,60,11.0,64.0
2480,72.0,0,60,10.0,64.0
2481,67.0,0,150,12.0,64.0
2482,67.0,0,180,0.0,64.0
2483,82.0,72,60,10.0,64.0
2484,82.0,0,150,0.0,64.0
2485,52.0,0,150,1.0,64.0
2486,72.0,0,180,2.0,64.0
2487,52.0,0,150,13.0,64.0
2488,40.0,48,150,14.0,64.0
2489,70.0,0,60,11.0,64.0
2490,82.0,0,60,10.0,64.0
2491,70.0,168,60,11.0,64.0
2492,60.0,0,360,11.0,64.0
2493,72.0,0,360,10.0,64.0
2494,72.0,0,660,0.0,64.0
2495,60.0,120,120,13.0,64.0
2496,60.0,0,120,1.0,64.0
2497,48.0,0,120,14.0,64.0
2498,60.0,0,120,12.0,64.0
2499,47.0,0,120,14.0,64.0
2500,59.0,72,120,13.0,64.0
2501,59.0,0,120,1.0,64.0
2502,59.0,0,120,12.0,64.0
2503,60.0,0,120,13.0,64.0
2504,48.0,0,120,14.0,64.0
2505,60.0,48,60,12.0,64.0
2506,60.0,60,120,1.0,64.0
2507,62.0,12,60,11.0,64.0
2508,60.0,48,60,12.0,64.0
2509,46.0,0,120,14.0,64.0
2510,58.0,0,120,13.0,64.0
2511,58.0,0,120,1.0,64.0
2512,74.0,0,60,10.0,64.0
2513,74.0,0,60,0.0,64.0
2514,76.0,0,60,0.0,64.0
2515,64.0,0,60,11.0,64.0
2516,76.0,72,60,10.0,64.0
2517,45.0,0,60,14.0,64.0
2518,72.0,0,180,2.0,64.0
2519,77.0,0,60,10.0,64.0
2520,57.0,24,60,1.0,64.0
2521,65.0,48,90,11.0,64.0
2522,60.0,0,60,12.0,64.0
2523,57.0,0,60,13.0,64.0
2524,77.0,48,150,0.0,64.0
2525,72.0,0,180,11.0,64.0
2526,67.0,0,60,12.0,64.0
2527,46.0,0,60,14.0,64.0
2528,58.0,0,60,1.0,64.0
2529,58.0,0,60,13.0,64.0
2530,76.0,120,60,10.0,64.0
2531,57.0,0,60,1.0,64.0
2532,45.0,0,60,14.0,64.0
2533,57.0,120,60,13.0,64.0
2534,77.0,0,60,10.0,64.0
2535,69.0,0,60,12.0,64.0
2536,72.0,0,180,11.0,64.0
2537,58.0,120,60,13.0,64.0
2538,58.0,0,60,1.0,64.0
2539,46.0,0,60,14.0,64.0
2540,76.0,0,60,10.0,64.0
2541,67.0,0,60,12.0,64.0
2542,69.0,0,60,12.0,64.0
2543,57.0,120,60,1.0,64.0
2544,57.0,0,60,13.0,64.0
2545,77.0,0,60,10.0,64.0
2546,45.0,0,60,14.0,64.0
2547,79.0,120,60,10.0,64.0
2548,76.0,0,60,11.0,64.0
2549,64.0,0,60,0.0,64.0
2550,67.0,0,60,0.0,64.0
2551,55.0,0,60,1.0,64.0
2552,43.0,0,60,14.0,64.0
2553,55.0,0,60,13.0,64.0
2554,70.0,0,60,12.0,64.0
2555,53.0,0,60,1.0,64.0
2556,81.0,0,60,10.0,64.0
2557,53.0,0,60,13.0,64.0
2558,77.0,0,60,11.0,64.0
2559,72.0,0,60,12.0,64.0
2560,72.0,0,180,2.0,64.0
2561,41.0,0,60,14.0,64.0
2562,69.0,0,60,0.0,64.0
2563,65.0,120,60,0.0,64.0
2564,46.0,0,60,14.0,64.0
2565,58.0,120,60,13.0,64.0
2566,76.0,0,60,11.0,64.0
2567,58.0,0,60,1.0,64.0
2568,67.0,0,60,0.0,64.0
2569,64.0,0,60,0.0,64.0
2570,79.0,0,60,10.0,64.0
2571,72.0,0,180,12.0,64.0
2572,57.0,0,60,13.0,64.0
2573,57.0,0,60,1.0,64.0
2574,77.0,0,60,11.0,64.0
2575,65.0,0,60,0.0,64.0
2576,81.0,120,60,10.0,64.0
2577,69.0,0,60,0.0,64.0
2578,45.0,0,60,14.0,64.0
2579,58.0,0,60,1.0,64.0
2580,79.0,0,60,10.0,64.0
2581,58.0,0,60,13.0,64.0
2582,72.0,0,180,12.0,64.0
2583,67.0,0,60,0.0,64.0
2584,64.0,0,60,0.0,64.0
2585,46.0,0,60,14.0,64.0
2586,76.0,120,60,11.0,64.0
2587,65.0,0,60,0.0,64.0
2588,57.0,120,60,13.0,64.0
2589,81.0,0,60,10.0,64.0
2590,57.0,0,60,1.0,64.0
2591,45.0,0,60,14.0,64.0
2592,69.0,0,60,0.0,64.0
2593,77.0,0,60,11.0,64.0
2594,82.0,0,60,10.0,64.0
2595,55.0,0,60,1.0,64.0
2596,55.0,0,60,13.0,64.0
2597,72.0,12,240,12.0,64.0
2598,79.0,0,60,11.0,64.0
2599,70.0,112,60,0.0,64.0
2600,43.0,0,60,14.0,64.0
2601,67.0,0,60,0.0,64.0
2602,53.0,0,120,13.0,64.0
2603,81.0,68,60,11.0,64.0
2604,69.0,32,180,0.0,64.0
2605,72.0,0,120,0.0,64.0
2606,53.0,0,120,1.0,64.0
2607,84.0,0,60,10.0,64.0
2608,41.0,0,120,14.0,64.0
2609,65.0,56,900,2.0,64.0
2610,77.0,0,60,11.0,64.0
2611,81.0,48,60,10.0,64.0
2612,79.0,80,60,11.0,64.0
2613,82.0,0,60,10.0,64.0
2614,81.0,0,60,11.0,64.0
2615,84.0,80,60,10.0,64.0
2616,77.0,0,60,11.0,64.0
2617,81.0,80,60,10.0,64.0
2618,82.0,0,60,10.0,64.0
2619,79.0,80,60,11.0,64.0
2620,84.0,80,60,10.0,64.0
2621,81.0,0,60,11.0,64.0
2622,81.0,80,60,10.0,64.0
2623,77.0,0,60,11.0,64.0
2624,82.0,80,60,10.0,64.0
2625,79.0,0,60,11.0,64.0
2626,81.0,80,60,11.0,64.0
2627,84.0,0,60,10.0,64.0
2628,77.0,0,60,11.0,64.0
2629,81.0,24,60,10.0,64.0
2630,79.0,0,60,11.0,64.0
2631,82.0,80,60,10.0,64.0
2632,65.0,56,180,2.0,64.0
2633,81.0,0,60,11.0,64.0
2634,84.0,80,60,10.0,64.0
2635,77.0,0,60,11.0,64.0
2636,81.0,24,60,10.0,64.0
2637,82.0,0,60,10.0,64.0
2638,79.0,80,60,11.0,64.0
2639,65.0,56,180,2.0,64.0
2640,84.0,0,60,10.0,64.0
2641,81.0,80,60,11.0,64.0
2642,77.0,0,60,11.0,64.0
2643,81.0,24,60,10.0,64.0
2644,79.0,0,60,11.0,64.0
2645,82.0,80,60,10.0,64.0
2646,63.0,0,900,0.0,64.0
2647,65.0,56,900,2.0,64.0
2648,63.0,0,900,1.0,64.0
2649,84.0,80,60,10.0,64.0
2650,65.0,0,900,12.0,64.0
2651,81.0,0,60,11.0,64.0
2652,77.0,0,60,11.0,64.0
2653,81.0,80,60,10.0,64.0
2654,79.0,80,60,11.0,64.0
2655,82.0,0,60,10.0,64.0
2656,84.0,80,60,10.0,64.0
2657,81.0,0,60,11.0,64.0
2658,81.0,0,60,10.0,64.0
2659,77.0,80,60,11.0,64.0
2660,82.0,0,60,10.0,64.0
2661,79.0,80,60,11.0,64.0
2662,81.0,0,60,11.0,64.0
2663,84.0,80,60,10.0,64.0
2664,77.0,0,60,11.0,64.0
2665,81.0,80,60,10.0,64.0
2666,79.0,80,60,11.0,64.0
2667,82.0,0,60,10.0,64.0
2668,84.0,0,60,10.0,64.0
2669,81.0,80,60,11.0,64.0
2670,77.0,24,60,11.0,64.0
2671,81.0,0,60,10.0,64.0
2672,79.0,80,60,11.0,64.0
2673,82.0,0,60,10.0,64.0
2674,84.0,80,60,10.0,64.0
2675,81.0,0,60,11.0,64.0
2676,63.0,0,180,0.0,64.0
2677,63.0,56,180,1.0,64.0
2678,65.0,0,180,2.0,64.0
2679,65.0,0,180,12.0,64.0
2680,77.0,0,60,11.0,64.0
2681,81.0,24,60,10.0,64.0
2682,79.0,80,60,11.0,64.0
2683,82.0,0,60,10.0,64.0
2684,63.0,0,180,0.0,64.0
2685,63.0,0,180,1.0,64.0
2686,65.0,56,180,12.0,64.0
2687,84.0,80,60,10.0,64.0
2688,65.0,0,180,2.0,64.0
2689,81.0,0,60,11.0,64.0
2690,77.0,0,60,11.0,64.0
2691,81.0,24,60,10.0,64.0
2692,82.0,112,60,10.0,64.0
2693,79.0,0,60,11.0,64.0
2694,50.0,0,90,14.0,64.0
2695,84.0,0,90,10.0,64.0
2696,62.0,0,1560,2.0,64.0
2697,66.0,60,870,1.0,64.0
2698,81.0,0,90,11.0,64.0
2699,69.0,12,1410,0.0,64.0
2700,72.0,0,1410,0.0,64.0
2701,66.0,0,90,12.0,64.0
2702,62.0,120,90,13.0,64.0
2703,84.0,24,180,10.0,64.0
2704,50.0,0,90,14.0,64.0
2705,66.0,96,90,12.0,64.0
2706,81.0,0,180,11.0,64.0
2707,62.0,0,90,13.0,64.0
2708,62.0,0,90,13.0,64.0
2709,50.0,0,90,14.0,64.0
2710,66.0,120,90,12.0,64.0
2711,84.0,24,180,10.0,64.0
2712,81.0,0,180,11.0,64.0
2713,66.0,96,90,12.0,64.0
2714,50.0,0,90,14.0,64.0
2715,62.0,0,90,13.0,64.0
2716,62.0,0,90,13.0,64.0
2717,50.0,0,90,14.0,64.0
2718,66.0,120,90,12.0,64.0
2719,62.0,120,90,13.0,64.0
2720,84.0,60,210,10.0,64.0
2721,66.0,0,90,12.0,64.0
2722,50.0,0,90,14.0,64.0
2723,81.0,0,210,11.0,64.0
2724,50.0,0,90,14.0,64.0
2725,66.0,0,90,12.0,64.0
2726,62.0,0,90,13.0,64.0
2727,84.0,24,180,10.0,64.0
2728,66.0,0,90,12.0,64.0
2729,81.0,0,180,11.0,64.0
2730,50.0,96,90,14.0,64.0
2731,62.0,0,90,13.0,64.0
2732,66.0,60,90,12.0,64.0
2733,66.0,60,150,1.0,64.0
2734,62.0,0,90,13.0,64.0
2735,50.0,0,90,14.0,64.0
2736,81.0,24,180,11.0,64.0
2737,50.0,0,90,14.0,64.0
2738,62.0,0,90,13.0,64.0
2739,66.0,96,90,12.0,64.0
2740,84.0,0,180,10.0,64.0
2741,50.0,0,90,14.0,64.0
2742,66.0,48,150,1.0,64.0
2743,62.0,0,90,13.0,64.0
2744,66.0,60,90,12.0,64.0
2745,66.0,0,90,12.0,64.0
2746,50.0,0,90,14.0,64.0
2747,62.0,0,90,13.0,64.0
2748,84.0,156,90,10.0,64.0
2749,81.0,0,90,11.0,64.0
2750,79.0,0,120,11.0,64.0
2751,71.0,0,120,0.0,64.0
2752,55.0,0,120,13.0,64.0
2753,67.0,480,120,0.0,64.0
2754,83.0,0,120,10.0,64.0
2755,65.0,0,120,12.0,64.0
2756,43.0,0,120,14.0,64.0
2757,65.0,0,120,1.0,64.0
2758,79.0,0,120,11.0,64.0
2759,60.0,0,120,12.0,64.0
2760,48.0,0,120,13.0,64.0
2761,64.0,0,120,12.0,64.0
2762,60.0,0,120,1.0,64.0
2763,64.0,0,120,1.0,64.0
2764,70.0,0,120,0.0,64.0
2765,82.0,0,120,10.0,64.0
2766,67.0,0,120,0.0,64.0
2767,36.0,240,120,14.0,64.0
2768,53.0,0,120,13.0,64.0
2769,65.0,0,120,0.0,64.0
2770,69.0,0,120,0.0,64.0
2771,77.0,0,120,11.0,64.0
2772,65.0,0,120,2.0,64.0
2773,60.0,0,120,1.0,64.0
2774,81.0,0,120,10.0,64.0
2775,60.0,0,120,12.0,64.0
2776,65.0,0,120,12.0,64.0
2777,41.0,240,120,14.0,64.0
2778,65.0,0,120,1.0,64.0
2779,70.0,0,120,2.0,64.0
2780,74.0,0,120,0.0,64.0
2781,65.0,0,120,0.0,64.0
2782,65.0,0,120,1.0,64.0
2783,58.0,0,120,1.0,64.0
2784,77.0,0,120,11.0,64.0
2785,65.0,378,120,12.0,64.0
2786,58.0,0,120,12.0,64.0
2787,46.0,0,120,13.0,64.0
2788,86.0,0,120,10.0,64.0
2789,58.0,0,120,2.0,64.0
2790,34.0,0,120,14.0,64.0
2791,48.0,0,2850,12.0,64.0
2792,74.0,30,30,11.0,64.0
2793,48.0,0,180,13.0,64.0
2794,86.0,0,30,10.0,64.0
2795,36.0,24,180,14.0,64.0
2796,60.0,36,2850,12.0,64.0
2797,84.0,0,30,10.0,64.0
2798,72.0,60,30,11.0,64.0
2799,83.0,72,60,10.0,64.0
2800,71.0,0,60,11.0,64.0
2801,72.0,0,90,11.0,64.0
2802,84.0,264,90,10.0,64.0
2803,53.0,0,240,1.0,64.0
2804,57.0,0,240,1.0,64.0
2805,81.0,0,240,0.0,64.0
2806,84.0,240,240,0.0,64.0
2807,58.0,0,240,1.0,64.0
2808,55.0,240,240,1.0,64.0
2809,82.0,0,240,0.0,64.0
2810,79.0,0,240,0.0,64.0
2811,81.0,0,240,0.0,64.0
2812,77.0,72,240,0.0,64.0
2813,57.0,0,240,1.0,64.0
2814,60.0,0,240,1.0,64.0
2815,55.0,0,240,1.0,64.0
2816,58.0,0,240,1.0,64.0
2817,60.0,0,60,11.0,64.0
2818,79.0,0,240,0.0,64.0
2819,72.0,168,60,10.0,64.0
2820,82.0,72,240,0.0,64.0
2821,84.0,0,180,0.0,64.0
2822,60.0,120,60,11.0,64.0
2823,72.0,0,60,10.0,64.0
2824,81.0,0,180,0.0,64.0
2825,53.0,78,180,1.0,64.0
2826,57.0,0,180,1.0,64.0
2827,36.0,0,180,14.0,64.0
2828,84.0,0,30,10.0,64.0
2829,72.0,30,30,11.0,64.0
2830,48.0,24,180,13.0,64.0
2831,82.0,0,30,10.0,64.0
2832,70.0,60,30,11.0,64.0
2833,81.0,0,60,10.0,64.0
2834,69.0,72,60,11.0,64.0
2835,70.0,0,90,11.0,64.0
2836,82.0,264,90,10.0,64.0
2837,82.0,0,240,0.0,64.0
2838,52.0,0,240,1.0,64.0
2839,55.0,0,240,1.0,64.0
2840,79.0,240,240,0.0,64.0
2841,81.0,240,240,0.0,64.0
2842,77.0,0,240,0.0,64.0
2843,53.0,0,240,1.0,64.0
2844,57.0,0,240,1.0,64.0
2845,58.0,72,240,1.0,64.0
2846,55.0,0,240,1.0,64.0
2847,76.0,0,240,0.0,64.0
2848,79.0,0,240,0.0,64.0
2849,77.0,72,240,0.0,64.0
2850,60.0,0,60,11.0,64.0
2851,72.0,168,60,10.0,64.0
2852,57.0,0,240,1.0,64.0
2853,60.0,0,240,1.0,64.0
2854,60.0,120,60,11.0,64.0
2855,72.0,0,180,0.0,64.0
2856,76.0,12,180,0.0,64.0
2857,72.0,0,60,10.0,64.0
2858,55.0,0,240,1.0,64.0
2859,58.0,64,240,1.0,64.0
2860,53.0,0,150,1.0,64.0
2861,65.0,0,150,11.0,64.0
2862,57.0,0,150,11.0,64.0
2863,41.0,0,150,14.0,64.0
2864,60.0,0,150,12.0,64.0
2865,53.0,0,150,13.0,64.0
2866,72.0,68,150,0.0,64.0
2867,77.0,0,150,0.0,64.0
2868,77.0,80,60,10.0,64.0
2869,57.0,0,150,1.0,64.0
2870,65.0,0,150,2.0,64.0
2871,77.0,12,60,10.0,64.0
2872,77.0,80,60,10.0,64.0
2873,69.0,80,60,10.0,64.0
2874,69.0,80,60,10.0,64.0
2875,69.0,80,60,10.0,64.0
2876,72.0,80,60,10.0,64.0
2877,72.0,80,60,10.0,64.0
2878,72.0,80,60,10.0,64.0
2879,77.0,80,60,10.0,64.0
2880,77.0,80,60,10.0,64.0
2881,77.0,80,60,10.0,64.0
2882,81.0,80,60,10.0,64.0
2883,81.0,80,60,10.0,64.0
2884,81.0,80,60,10.0,64.0
2885,36.0,0,150,14.0,64.0
2886,76.0,0,150,0.0,64.0
2887,70.0,0,150,12.0,64.0
2888,67.0,0,150,12.0,64.0
2889,72.0,0,150,2.0,64.0
2890,70.0,68,150,0.0,64.0
2891,84.0,80,60,10.0,64.0
2892,67.0,0,150,11.0,64.0
2893,72.0,0,150,11.0,64.0
2894,48.0,0,150,1.0,64.0
2895,76.0,0,150,11.0,64.0
2896,48.0,0,150,13.0,64.0
2897,84.0,12,60,10.0,64.0
2898,84.0,80,60,10.0,64.0
2899,77.0,80,60,10.0,64.0
2900,77.0,0,150,0.0,64.0
2901,69.0,0,150,0.0,64.0
2902,77.0,0,150,11.0,64.0
2903,65.0,0,150,11.0,64.0
2904,72.0,0,150,11.0,64.0
2905,53.0,0,150,1.0,64.0
2906,41.0,0,150,14.0,64.0
2907,72.0,0,150,2.0,64.0
2908,65.0,0,150,2.0,64.0
2909,69.0,0,150,12.0,64.0
2910,65.0,0,150,12.0,64.0
2911,53.0,68,150,13.0,64.0
2912,77.0,12,60,10.0,64.0
2913,77.0,80,60,10.0,64.0
2914,69.0,80,60,10.0,64.0
2915,69.0,80,60,10.0,64.0
2916,69.0,80,60,10.0,64.0
2917,72.0,80,60,10.0,64.0
2918,72.0,80,60,10.0,64.0
2919,72.0,80,60,10.0,64.0
2920,77.0,80,60,10.0,64.0
2921,77.0,80,60,10.0,64.0
2922,77.0,80,60,10.0,64.0
2923,81.0,80,60,10.0,64.0
2924,81.0,80,60,10.0,64.0
2925,81.0,80,60,10.0,64.0
2926,67.0,0,150,11.0,64.0
2927,36.0,0,150,14.0,64.0
2928,84.0,80,60,10.0,64.0
2929,48.0,0,150,1.0,64.0
2930,67.0,0,150,12.0,64.0
2931,76.0,0,150,11.0,64.0
2932,72.0,0,150,11.0,64.0
2933,48.0,0,150,13.0,64.0
2934,70.0,0,150,12.0,64.0
2935,72.0,68,150,2.0,64.0
2936,76.0,0,150,0.0,64.0
2937,70.0,0,150,0.0,64.0
2938,84.0,12,60,10.0,64.0
2939,84.0,112,60,10.0,64.0
2940,65.0,0,150,2.0,64.0
2941,72.0,0,150,2.0,64.0
2942,77.0,60,90,10.0,64.0
2943,53.0,0,150,1.0,64.0
2944,69.0,60,150,0.0,64.0
2945,41.0,0,150,14.0,64.0
2946,65.0,0,150,11.0,64.0
2947,72.0,0,150,11.0,64.0
2948,77.0,0,150,11.0,64.0
2949,69.0,0,150,12.0,64.0
2950,65.0,0,150,12.0,64.0
2951,53.0,0,150,13.0,64.0
2952,77.0,0,150,0.0,64.0
2953,72.0,120,90,10.0,64.0
2954,69.0,120,90,10.0,64.0
2955,72.0,120,90,10.0,64.0
2956,77.0,120,90,10.0,64.0
2957,81.0,120,90,10.0,64.0
2958,77.0,48,90,10.0,64.0
2959,41.0,0,150,14.0,64.0
2960,69.0,0,150,11.0,64.0
2961,77.0,0,150,11.0,64.0
2962,65.0,0,150,2.0,64.0
2963,65.0,0,150,12.0,64.0
2964,53.0,72,150,13.0,64.0
2965,77.0,0,150,0.0,64.0
2966,69.0,0,150,0.0,64.0
2967,53.0,0,150,1.0,64.0
2968,72.0,0,150,2.0,64.0
2969,72.0,120,90,10.0,64.0
2970,69.0,120,90,10.0,64.0
2971,72.0,120,90,10.0,64.0
2972,77.0,120,90,10.0,64.0
2973,81.0,168,90,10.0,64.0
2974,41.0,0,150,14.0,64.0
2975,77.0,0,150,10.0,64.0
2976,77.0,0,150,0.0,64.0
2977,69.0,0,150,0.0,64.0
2978,69.0,0,150,11.0,64.0
2979,65.0,0,150,12.0,64.0
2980,53.0,0,150,1.0,64.0
2981,72.0,228,150,2.0,64.0
2982,65.0,0,150,2.0,64.0
2983,77.0,12,150,11.0,64.0
2984,53.0,0,150,13.0,64.0
2985,69.0,0,150,0.0,64.0
2986,77.0,0,150,0.0,64.0
2987,41.0,0,150,14.0,64.0
2988,53.0,228,150,1.0,64.0
2989,53.0,0,150,13.0,64.0
2990,69.0,0,150,11.0,64.0
2991,77.0,12,150,11.0,64.0
2992,65.0,0,150,12.0,64.0
2993,77.0,0,150,10.0,64.0
2994,65.0,0,150,2.0,64.0
2995,72.0,0,150,2.0,64.0
2996,65.0,0,150,10.0,64.0
2997,72.0,0,150,10.0,64.0
2998,72.0,0,150,10.0,64.0
2999,65.0,0,150,12.0,64.0
3000,65.0,0,150,10.0,64.0
3001,69.0,0,150,11.0,64.0
3002,72.0,228,150,2.0,64.0
3003,41.0,0,150,14.0,64.0
3004,77.0,0,150,10.0,64.0
3005,77.0,12,150,11.0,64.0
3006,53.0,0,150,13.0,64.0
3007,53.0,0,150,1.0,64.0
3008,69.0,0,150,0.0,64.0
3009,77.0,0,150,0.0,64.0
3010,65.0,0,150,2.0,64.0
3011,65.0,0,150,10.0,64.0
3012,72.0,0,150,10.0,64.0
3013,53.0,0,150,1.0,64.0
3014,69.0,0,150,11.0,64.0
3015,65.0,228,150,2.0,64.0
3016,77.0,0,150,10.0,64.0
3017,53.0,0,150,13.0,64.0
3018,77.0,0,150,0.0,64.0
3019,69.0,0,150,0.0,64.0
3020,77.0,0,150,11.0,64.0
3021,41.0,0,150,14.0,64.0
3022,65.0,12,150,12.0,64.0
3023,72.0,0,150,2.0,64.0
3024,72.0,228,150,2.0,64.0
3025,53.0,0,150,13.0,64.0
3026,41.0,0,150,14.0,64.0
3027,69.0,0,150,0.0,64.0
3028,77.0,0,150,0.0,64.0
3029,65.0,0,150,2.0,64.0
3030,72.0,0,150,10.0,64.0
3031,77.0,0,150,10.0,64.0
3032,69.0,0,150,11.0,64.0
3033,65.0,0,150,12.0,64.0
3034,53.0,0,150,1.0,64.0
3035,77.0,12,150,11.0,64.0
3036,65.0,0,150,10.0,64.0
3037,53.0,0,150,1.0,64.0
3038,72.0,0,150,2.0,64.0
3039,65.0,0,150,2.0,64.0
3040,69.0,0,150,11.0,64.0
3041,77.0,0,150,11.0,64.0
3042,72.0,0,150,10.0,64.0
3043,53.0,0,150,13.0,64.0
3044,41.0,276,150,14.0,64.0
3045,69.0,0,150,0.0,64.0
3046,77.0,0,150,0.0,64.0
3047,65.0,0,150,10.0,64.0
3048,77.0,12,150,10.0,64.0
3049,65.0,0,150,12.0,64.0
3050,77.0,0,180,11.0,64.0
3051,65.0,0,180,10.0,64.0
3052,72.0,0,180,10.0,64.0
3053,41.0,0,180,14.0,64.0
3054,69.0,0,180,11.0,64.0
3055,65.0,0,180,12.0,64.0
3056,69.0,0,180,0.0,64.0
3057,77.0,0,180,10.0,64.0
3058,53.0,720,180,1.0,64.0
3059,65.0,0,180,2.0,64.0
3060,72.0,0,180,2.0,64.0
3061,53.0,0,180,13.0,64.0
3062,77.0,0,180,0.0,64.0
3063,69.0,0,180,0.0,64.0
3064,77.0,0,180,0.0,64.0
3065,53.0,0,180,13.0,64.0
3066,53.0,0,180,1.0,64.0
3067,72.0,0,180,2.0,64.0
3068,65.0,0,180,2.0,64.0
3069,77.0,558,180,10.0,64.0
3070,72.0,0,180,10.0,64.0
3071,65.0,0,180,10.0,64.0
3072,65.0,0,180,12.0,64.0
3073,69.0,0,180,11.0,64.0
3074,41.0,0,180,14.0,64.0
3075,77.0,0,180,11.0,64.0
3076,79.0,30,30,10.0,64.0
3077,77.0,30,30,10.0,64.0
3078,79.0,30,30,10.0,64.0
3079,77.0,60,30,10.0,64.0
3080,79.0,48,60,10.0,64.0
3081,77.0,252,40,10.0,64.0
3082,69.0,192,240,12.0,64.0
3083,72.0,0,240,11.0,64.0
3084,69.0,78,180,11.0,64.0
3085,65.0,0,180,12.0,64.0
3086,74.0,30,30,10.0,64.0
3087,72.0,30,30,10.0,64.0
3088,74.0,30,30,10.0,64.0
3089,72.0,60,30,10.0,64.0
3090,74.0,48,60,10.0,64.0
3091,72.0,252,40,10.0,64.0
3092,64.0,192,240,12.0,64.0
3093,67.0,0,240,11.0,64.0
3094,64.0,0,180,11.0,64.0
3095,60.0,288,180,12.0,64.0
3096,69.0,240,240,10.0,64.0
3097,65.0,240,240,10.0,64.0
3098,69.0,192,240,10.0,64.0
3099,72.0,288,180,10.0,64.0
3100,52.0,0,240,1.0,64.0
3101,52.0,0,240,13.0,64.0
3102,55.0,240,240,12.0,64.0
3103,48.0,480,240,1.0,64.0
3104,48.0,0,240,13.0,64.0
3105,52.0,0,240,12.0,64.0
3106,65.0,240,720,10.0,64.0
3107,65.0,240,960,11.0,64.0
3108,38.0,192,240,14.0,64.0
3109,50.0,0,240,13.0,64.0
3110,48.0,0,180,13.0,64.0
3111,36.0,48,180,14.0,64.0
3112,67.0,60,720,10.0,64.0
3113,46.0,0,720,13.0,64.0
3114,34.0,0,720,14.0,64.0
3115,64.0,240,240,11.0,64.0
3116,62.0,0,240,11.0,64.0
3117,65.0,180,60,11.0,64.0
3118,48.0,0,720,13.0,64.0
3119,60.0,126,780,12.0,64.0
3120,36.0,0,720,14.0,64.0
3121,70.0,0,720,10.0,64.0
3122,64.0,240,180,11.0,64.0
3123,62.0,240,240,11.0,64.0
3124,64.0,66,240,11.0,64.0
3125,69.0,0,180,10.0,64.0
3126,41.0,48,180,13.0,64.0
3127,65.0,0,60,11.0,64.0
3128,29.0,0,180,14.0,64.0
3129,67.0,0,120,11.0,64.0
3130,63.0,120,120,12.0,64.0
3131,65.0,120,120,11.0,64.0
3132,62.0,0,120,12.0,64.0
3133,63.0,120,120,11.0,64.0
3134,60.0,0,120,12.0,64.0
3135,58.0,0,120,12.0,64.0
3136,62.0,96,120,11.0,64.0
3137,60.0,0,90,11.0,64.0
3138,57.0,54,90,12.0,64.0
3139,84.0,30,30,10.0,64.0
3140,58.0,0,180,11.0,64.0
3141,58.0,0,180,12.0,64.0
3142,70.0,36,180,2.0,64.0
3143,82.0,30,30,10.0,64.0
3144,84.0,30,30,10.0,64.0
3145,82.0,60,30,10.0,64.0
3146,84.0,12,60,10.0,64.0
3147,82.0,252,40,10.0,64.0
3148,77.0,0,240,11.0,64.0
3149,74.0,192,240,12.0,64.0
3150,74.0,78,180,11.0,64.0
3151,70.0,0,180,12.0,64.0
3152,65.0,36,180,2.0,64.0
3153,79.0,30,30,10.0,64.0
3154,77.0,30,30,10.0,64.0
3155,79.0,30,30,10.0,64.0
3156,77.0,60,30,10.0,64.0
3157,79.0,12,60,10.0,64.0
3158,77.0,252,40,10.0,64.0
3159,69.0,192,240,12.0,64.0
3160,72.0,0,240,11.0,64.0
3161,69.0,0,180,11.0,64.0
3162,65.0,288,180,12.0,64.0
3163,62.0,240,240,2.0,64.0
3164,74.0,0,240,10.0,64.0
3165,70.0,240,240,10.0,64.0
3166,58.0,0,240,2.0,64.0
3167,62.0,0,240,2.0,64.0
3168,74.0,192,240,10.0,64.0
3169,77.0,288,180,10.0,64.0
3170,65.0,0,180,2.0,64.0
3171,57.0,0,240,13.0,64.0
3172,60.0,0,240,12.0,64.0
3173,57.0,192,240,1.0,64.0
3174,57.0,0,180,12.0,64.0
3175,53.0,528,180,13.0,64.0
3176,53.0,0,180,1.0,64.0
3177,70.0,240,960,11.0,64.0
3178,70.0,240,720,10.0,64.0
3179,55.0,0,240,13.0,64.0
3180,43.0,192,240,14.0,64.0
3181,53.0,0,180,13.0,64.0
3182,41.0,48,180,14.0,64.0
3183,39.0,0,720,14.0,64.0
3184,51.0,0,720,13.0,64.0
3185,72.0,240,720,10.0,64.0
3186,69.0,192,240,11.0,64.0
3187,67.0,48,180,11.0,64.0
3188,69.0,240,240,11.0,64.0
3189,60.0,0,240,12.0,64.0
3190,53.0,192,720,13.0,64.0
3191,75.0,0,720,10.0,64.0
3192,41.0,0,720,14.0,64.0
3193,70.0,240,240,11.0,64.0
3194,58.0,0,240,12.0,64.0
3195,57.0,0,240,12.0,64.0
3196,72.0,240,480,11.0,64.0
3197,74.0,48,180,10.0,64.0
3198,54.0,30,720,13.0,64.0
3199,42.0,0,720,14.0,64.0
3200,62.0,36,690,12.0,64.0
3201,70.0,192,240,11.0,64.0
3202,69.0,12,180,11.0,64.0
3203,67.0,36,180,1.0,64.0
3204,81.0,30,30,10.0,64.0
3205,55.0,0,180,1.0,64.0
3206,79.0,30,30,10.0,64.0
3207,81.0,30,30,10.0,64.0
3208,79.0,60,30,10.0,64.0
3209,81.0,12,60,10.0,64.0
3210,79.0,252,40,10.0,64.0
3211,74.0,0,240,11.0,64.0
3212,70.0,192,240,12.0,64.0
3213,70.0,78,180,11.0,64.0
3214,67.0,0,180,12.0,64.0
3215,50.0,0,180,1.0,64.0
3216,62.0,36,180,1.0,64.0
3217,75.0,30,30,10.0,64.0
3218,74.0,30,30,10.0,64.0
3219,75.0,30,30,10.0,64.0
3220,74.0,60,30,10.0,64.0
3221,75.0,12,60,10.0,64.0
3222,74.0,252,40,10.0,64.0
3223,66.0,0,240,12.0,64.0
3224,69.0,192,240,11.0,64.0
3225,62.0,0,180,12.0,64.0
3226,66.0,288,180,11.0,64.0
3227,58.0,240,240,1.0,64.0
3228,70.0,0,240,10.0,64.0
3229,46.0,0,240,1.0,64.0
3230,67.0,0,240,10.0,64.0
3231,43.0,0,240,1.0,64.0
3232,55.0,240,240,1.0,64.0
3233,70.0,240,240,10.0,64.0
3234,58.0,0,240,1.0,64.0
3235,46.0,0,240,1.0,64.0
3236,50.0,240,240,1.0,64.0
3237,62.0,0,240,1.0,64.0
3238,74.0,0,240,10.0,64.0
3239,54.0,192,240,13.0,64.0
3240,57.0,0,240,12.0,64.0
3241,54.0,0,180,12.0,64.0
3242,50.0,528,180,13.0,64.0
3243,67.0,240,960,11.0,64.0
3244,67.0,0,720,10.0,64.0
3245,55.0,0,720,1.0,64.0
3246,39.0,240,240,14.0,64.0
3247,51.0,0,240,13.0,64.0
3248,50.0,0,240,13.0,64.0
3249,38.0,240,240,14.0,64.0
3250,69.0,0,720,10.0,64.0
3251,36.0,0,720,14.0,64.0
3252,48.0,240,720,13.0,64.0
3253,57.0,0,720,1.0,64.0
3254,66.0,240,240,11.0,64.0
3255,64.0,0,240,11.0,64.0
3256,57.0,0,720,12.0,64.0
3257,60.0,0,720,1.0,64.0
3258,38.0,120,720,14.0,64.0
3259,66.0,240,240,11.0,64.0
3260,72.0,0,720,10.0,64.0
3261,50.0,0,720,13.0,64.0
3262,62.0,192,240,11.0,64.0
3263,64.0,48,180,11.0,64.0
3264,62.0,120,240,12.0,64.0
3265,43.0,384,720,13.0,64.0
3266,59.0,48,180,1.0,64.0
3267,71.0,24,570,10.0,64.0
3268,65.0,72,120,11.0,64.0
3269,31.0,0,720,14.0,64.0
3270,68.0,0,120,11.0,64.0
3271,67.0,120,120,11.0,64.0
3272,59.0,0,240,12.0,64.0
3273,65.0,96,120,11.0,64.0
3274,55.0,24,180,12.0,64.0
3275,63.0,72,120,11.0,64.0
3276,62.0,24,90,11.0,64.0
3277,72.0,240,720,10.0,64.0
3278,60.0,96,390,11.0,64.0
3279,56.0,0,240,13.0,64.0
3280,56.0,192,240,1.0,64.0
3281,55.0,48,180,1.0,64.0
3282,55.0,0,180,13.0,64.0
3283,72.0,240,480,11.0,64.0
3284,74.0,0,720,10.0,64.0
3285,53.0,0,720,13.0,64.0
3286,53.0,0,720,1.0,64.0
3287,71.0,240,240,11.0,64.0
3288,69.0,240,240,11.0,64.0
3289,62.0,0,720,12.0,64.0
3290,55.0,120,720,13.0,64.0
3291,55.0,0,720,1.0,64.0
3292,77.0,0,720,10.0,64.0
3293,71.0,240,240,11.0,64.0
3294,67.0,192,240,11.0,64.0
3295,69.0,48,180,11.0,64.0
3296,70.0,120,120,11.0,64.0
3297,48.0,0,720,1.0,64.0
3298,48.0,480,720,13.0,64.0
3299,67.0,120,240,12.0,64.0
3300,76.0,12,690,10.0,64.0
3301,74.0,0,120,11.0,64.0
3302,72.0,120,120,11.0,64.0
3303,64.0,0,240,12.0,64.0
3304,70.0,120,120,11.0,64.0
3305,69.0,84,120,11.0,64.0
3306,60.0,0,240,12.0,64.0
3307,67.0,24,90,11.0,64.0
3308,77.0,240,960,10.0,64.0
3309,77.0,240,720,0.0,64.0
3310,65.0,0,720,11.0,64.0
3311,62.0,192,240,13.0,64.0
3312,60.0,48,180,13.0,64.0
3313,58.0,240,720,13.0,64.0
3314,67.0,0,720,11.0,64.0
3315,79.0,0,720,0.0,64.0
3316,76.0,192,240,10.0,64.0
3317,74.0,48,180,10.0,64.0
3318,82.0,120,720,0.0,64.0
3319,70.0,0,720,11.0,64.0
3320,60.0,0,720,13.0,64.0
3321,67.0,96,570,12.0,64.0
3322,76.0,240,240,10.0,64.0
3323,72.0,96,240,10.0,64.0
3324,74.0,48,180,10.0,64.0
3325,75.0,120,120,10.0,64.0
3326,72.0,120,240,12.0,64.0
3327,53.0,0,720,13.0,64.0
3328,81.0,480,720,0.0,64.0
3329,69.0,24,570,11.0,64.0
3330,79.0,0,120,10.0,64.0
3331,77.0,120,120,10.0,64.0
3332,69.0,0,240,12.0,64.0
3333,75.0,96,120,10.0,64.0
3334,65.0,24,180,12.0,64.0
3335,74.0,72,120,10.0,64.0
3336,72.0,24,90,10.0,64.0
3337,70.0,0,1440,2.0,64.0
3338,70.0,0,960,11.0,64.0
3339,70.0,240,720,10.0,64.0
3340,58.0,240,960,1.0,64.0
3341,55.0,192,240,13.0,64.0
3342,43.0,0,240,14.0,64.0
3343,41.0,0,180,14.0,64.0
3344,53.0,48,180,13.0,64.0
3345,72.0,0,720,10.0,64.0
3346,39.0,0,720,14.0,64.0
3347,72.0,0,720,2.0,64.0
3348,51.0,0,720,13.0,64.0
3349,60.0,0,720,1.0,64.0
3350,57.0,240,240,1.0,64.0
3351,69.0,0,240,11.0,64.0
3352,67.0,0,240,11.0,64.0
3353,55.0,240,240,1.0,64.0
3354,60.0,0,720,12.0,64.0
3355,63.0,0,720,1.0,64.0
3356,41.0,0,720,14.0,64.0
3357,65.0,24,690,2.0,64.0
3358,72.0,0,480,2.0,64.0
3359,57.0,240,240,1.0,64.0
3360,53.0,0,720,13.0,64.0
3361,69.0,0,240,11.0,64.0
3362,75.0,120,720,10.0,64.0
3363,65.0,0,240,11.0,64.0
3364,53.0,96,240,1.0,64.0
3365,70.0,96,90,2.0,64.0
3366,55.0,0,240,1.0,64.0
3367,67.0,24,180,11.0,64.0
3368,72.0,0,90,2.0,64.0
3369,34.0,480,720,14.0,64.0
3370,65.0,120,240,12.0,64.0
3371,68.0,72,120,11.0,64.0
3372,74.0,0,180,2.0,64.0
3373,56.0,0,180,1.0,64.0
3374,62.0,0,180,1.0,64.0
3375,46.0,0,720,13.0,64.0
3376,74.0,12,690,10.0,64.0
3377,58.0,48,180,2.0,64.0
3378,72.0,0,120,11.0,64.0
3379,70.0,120,120,11.0,64.0
3380,62.0,120,240,12.0,64.0
3381,68.0,0,120,11.0,64.0
3382,67.0,72,120,11.0,64.0
3383,58.0,12,180,12.0,64.0
3384,65.0,24,90,11.0,64.0
3385,51.0,240,720,12.0,64.0
3386,63.0,240,960,12.0,64.0
3387,63.0,0,720,11.0,64.0
3388,75.0,0,720,10.0,64.0
3389,48.0,192,240,13.0,64.0
3390,46.0,48,180,13.0,64.0
3391,44.0,0,720,13.0,64.0
3392,65.0,60,720,11.0,64.0
3393,77.0,0,720,10.0,64.0
3394,53.0,12,1380,12.0,64.0
3395,62.0,240,240,12.0,64.0
3396,60.0,0,240,12.0,64.0
3397,46.0,0,690,13.0,64.0
3398,80.0,66,690,10.0,64.0
3399,68.0,0,690,11.0,64.0
3400,63.0,180,60,12.0,64.0
3401,62.0,240,180,12.0,64.0
3402,60.0,192,240,12.0,64.0
3403,62.0,0,180,12.0,64.0
3404,70.0,26,60,10.0,64.0
3405,67.0,0,60,11.0,64.0
3406,65.0,0,30,1.0,64.0
3407,65.0,30,30,12.0,64.0
3408,82.0,12,2340,0.0,64.0
3409,53.0,0,30,14.0,64.0
3410,75.0,0,60,11.0,64.0
3411,70.0,0,2340,0.0,64.0
3412,79.0,0,60,10.0,64.0
3413,65.0,0,30,13.0,64.0
3414,51.0,0,30,14.0,64.0
3415,63.0,0,30,1.0,64.0
3416,63.0,0,30,13.0,64.0
3417,63.0,4,30,12.0,64.0
3418,65.0,0,30,13.0,64.0
3419,53.0,0,30,14.0,64.0
3420,65.0,30,30,12.0,64.0
3421,65.0,0,30,1.0,64.0
3422,75.0,36,60,11.0,64.0
3423,67.0,0,60,11.0,64.0
3424,79.0,0,60,10.0,64.0
3425,70.0,0,60,10.0,64.0
3426,63.0,0,30,12.0,64.0
3427,63.0,0,30,13.0,64.0
3428,51.0,24,30,14.0,64.0
3429,63.0,0,30,1.0,64.0
3430,65.0,0,60,12.0,64.0
3431,65.0,0,60,1.0,64.0
3432,53.0,44,60,14.0,64.0
3433,65.0,0,60,13.0,64.0
3434,67.0,0,60,11.0,64.0
3435,79.0,0,60,10.0,64.0
3436,70.0,0,60,10.0,64.0
3437,75.0,16,60,11.0,64.0
3438,63.0,0,60,13.0,64.0
3439,63.0,0,60,12.0,64.0
3440,51.0,0,60,14.0,64.0
3441,63.0,64,60,1.0,64.0
3442,67.0,80,60,11.0,64.0
3443,75.0,0,60,11.0,64.0
3444,79.0,0,60,10.0,64.0
3445,70.0,0,60,10.0,64.0
3446,79.0,0,60,10.0,64.0
3447,75.0,0,60,11.0,64.0
3448,67.0,0,60,11.0,64.0
3449,70.0,80,60,10.0,64.0
3450,67.0,0,60,11.0,64.0
3451,70.0,80,60,10.0,64.0
3452,79.0,0,60,10.0,64.0
3453,75.0,0,60,11.0,64.0
3454,70.0,80,60,10.0,64.0
3455,79.0,0,60,10.0,64.0
3456,75.0,0,60,11.0,64.0
3457,67.0,0,60,11.0,64.0
3458,70.0,0,60,10.0,64.0
3459,75.0,80,60,11.0,64.0
3460,79.0,0,60,10.0,64.0
3461,67.0,0,60,11.0,64.0
3462,79.0,0,60,10.0,64.0
3463,70.0,0,60,10.0,64.0
3464,75.0,46,60,11.0,64.0
3465,67.0,0,60,11.0,64.0
3466,65.0,0,60,11.0,64.0
3467,74.0,0,60,11.0,64.0
3468,70.0,0,60,10.0,64.0
3469,77.0,26,60,10.0,64.0
3470,60.0,0,30,1.0,64.0
3471,48.0,30,30,14.0,64.0
3472,60.0,0,30,12.0,64.0
3473,60.0,0,30,13.0,64.0
3474,58.0,4,30,13.0,64.0
3475,58.0,0,30,12.0,64.0
3476,46.0,0,30,14.0,64.0
3477,58.0,0,30,1.0,64.0
3478,60.0,0,30,1.0,64.0
3479,60.0,30,30,13.0,64.0
3480,60.0,0,30,12.0,64.0
3481,48.0,0,30,14.0,64.0
3482,65.0,0,60,11.0,64.0
3483,74.0,0,60,11.0,64.0
3484,70.0,0,60,10.0,64.0
3485,77.0,36,60,10.0,64.0
3486,58.0,24,30,12.0,64.0
3487,58.0,0,30,1.0,64.0
3488,58.0,0,30,13.0,64.0
3489,46.0,0,30,14.0,64.0
3490,60.0,0,60,13.0,64.0
3491,60.0,44,60,1.0,64.0
3492,48.0,0,60,14.0,64.0
3493,60.0,0,60,12.0,64.0
3494,74.0,0,60,11.0,64.0
3495,70.0,0,60,10.0,64.0
3496,77.0,16,60,10.0,64.0
3497,65.0,0,60,11.0,64.0
3498,58.0,0,60,1.0,64.0
3499,58.0,64,60,12.0,64.0
3500,46.0,0,60,14.0,64.0
3501,58.0,0,60,13.0,64.0
3502,70.0,0,60,10.0,64.0
3503,74.0,0,60,11.0,64.0
3504,65.0,80,60,11.0,64.0
3505,77.0,0,60,10.0,64.0
3506,74.0,0,60,11.0,64.0
3507,65.0,80,60,11.0,64.0
3508,77.0,0,60,10.0,64.0
3509,70.0,0,60,10.0,64.0
3510,74.0,0,60,11.0,64.0
3511,65.0,0,60,11.0,64.0
3512,70.0,80,60,10.0,64.0
3513,77.0,0,60,10.0,64.0
3514,65.0,0,60,11.0,64.0
3515,74.0,0,60,11.0,64.0
3516,70.0,80,60,10.0,64.0
3517,77.0,0,60,10.0,64.0
3518,74.0,80,60,11.0,64.0
3519,77.0,0,60,10.0,64.0
3520,70.0,0,60,10.0,64.0
3521,65.0,0,60,11.0,64.0
3522,70.0,0,60,10.0,64.0
3523,77.0,80,60,10.0,64.0
3524,65.0,0,60,11.0,64.0
3525,74.0,0,60,11.0,64.0
3526,67.0,80,60,10.0,64.0
3527,43.0,0,240,14.0,64.0
3528,55.0,0,240,1.0,64.0
3529,55.0,0,240,13.0,64.0
3530,79.0,0,60,11.0,64.0
3531,70.0,0,60,11.0,64.0
3532,75.0,0,60,10.0,64.0
3533,55.0,64,240,12.0,64.0
3534,79.0,0,60,11.0,64.0
3535,70.0,0,60,11.0,64.0
3536,67.0,80,60,10.0,64.0
3537,75.0,0,60,10.0,64.0
3538,67.0,16,60,10.0,64.0
3539,79.0,0,60,11.0,64.0
3540,70.0,0,60,11.0,64.0
3541,75.0,0,60,10.0,64.0
3542,51.0,0,240,1.0,64.0
3543,51.0,0,240,13.0,64.0
3544,67.0,0,60,10.0,64.0
3545,39.0,64,240,14.0,64.0
3546,75.0,0,60,10.0,64.0
3547,79.0,0,60,11.0,64.0
3548,70.0,80,60,11.0,64.0
3549,51.0,0,240,12.0,64.0
3550,75.0,0,60,10.0,64.0
3551,67.0,0,60,10.0,64.0
3552,79.0,0,60,11.0,64.0
3553,70.0,80,60,11.0,64.0
3554,79.0,0,60,11.0,64.0
3555,70.0,0,60,11.0,64.0
3556,75.0,0,60,10.0,64.0
3557,67.0,16,60,10.0,64.0
3558,70.0,0,60,11.0,64.0
3559,79.0,80,60,11.0,64.0
3560,55.0,0,180,13.0,64.0
3561,55.0,0,180,1.0,64.0
3562,67.0,0,60,10.0,64.0
3563,43.0,32,180,14.0,64.0
3564,75.0,0,60,10.0,64.0
3565,55.0,0,180,12.0,64.0
3566,67.0,0,60,10.0,64.0
3567,79.0,0,60,11.0,64.0
3568,70.0,48,60,11.0,64.0
3569,75.0,0,60,10.0,64.0
3570,67.0,80,60,10.0,64.0
3571,75.0,0,60,10.0,64.0
3572,79.0,0,60,11.0,64.0
3573,70.0,0,60,11.0,64.0
3574,46.0,0,180,14.0,64.0
3575,77.0,0,60,11.0,64.0
3576,70.0,80,60,11.0,64.0
3577,58.0,0,180,13.0,64.0
3578,58.0,0,180,1.0,64.0
3579,58.0,32,180,12.0,64.0
3580,65.0,0,60,10.0,64.0
3581,74.0,0,60,10.0,64.0
3582,74.0,0,60,10.0,64.0
3583,70.0,0,60,11.0,64.0
3584,65.0,0,60,10.0,64.0
3585,77.0,36,60,11.0,64.0
3586,77.0,80,60,11.0,64.0
3587,65.0,0,60,10.0,64.0
3588,74.0,0,60,10.0,64.0
3589,70.0,0,60,11.0,64.0
3590,70.0,0,60,11.0,64.0
3591,77.0,80,60,11.0,64.0
3592,65.0,0,60,10.0,64.0
3593,82.0,0,150,0.0,64.0
3594,70.0,68,150,0.0,64.0
3595,74.0,0,60,10.0,64.0
3596,74.0,0,60,10.0,64.0
3597,65.0,0,60,10.0,64.0
3598,77.0,12,60,11.0,64.0
3599,70.0,0,60,11.0,64.0
3600,65.0,0,60,10.0,64.0
3601,74.0,0,60,10.0,64.0
3602,70.0,80,60,11.0,64.0
3603,77.0,0,60,11.0,64.0
3604,65.0,0,60,10.0,64.0
3605,82.0,0,150,0.0,64.0
3606,70.0,68,150,0.0,64.0
3607,70.0,0,60,11.0,64.0
3608,77.0,80,60,11.0,64.0
3609,74.0,0,60,10.0,64.0
3610,74.0,0,60,10.0,64.0
3611,65.0,12,60,10.0,64.0
3612,77.0,0,60,11.0,64.0
3613,70.0,0,60,11.0,64.0
3614,77.0,0,60,11.0,64.0
3615,70.0,0,60,11.0,64.0
3616,65.0,46,60,10.0,64.0
3617,74.0,0,60,10.0,64.0
3618,67.0,32,2340,0.0,64.0
3619,79.0,0,2340,0.0,64.0
3620,63.0,26,60,10.0,64.0
3621,67.0,0,60,11.0,64.0
3622,72.0,0,60,10.0,64.0
3623,75.0,0,60,11.0,64.0
3624,62.0,0,30,13.0,64.0
3625,50.0,0,30,14.0,64.0
3626,74.0,0,30,12.0,64.0
3627,62.0,30,30,1.0,64.0
3628,60.0,4,30,13.0,64.0
3629,72.0,0,30,12.0,64.0
3630,48.0,0,30,14.0,64.0
3631,60.0,0,30,1.0,64.0
3632,50.0,0,30,14.0,64.0
3633,62.0,30,30,1.0,64.0
3634,62.0,0,30,13.0,64.0
3635,74.0,0,30,12.0,64.0
3636,75.0,36,60,11.0,64.0
3637,72.0,0,60,10.0,64.0
3638,67.0,0,60,11.0,64.0
3639,63.0,0,60,10.0,64.0
3640,72.0,0,30,12.0,64.0
3641,60.0,0,30,13.0,64.0
3642,48.0,0,30,14.0,64.0
3643,60.0,24,30,1.0,64.0
3644,62.0,0,60,13.0,64.0
3645,74.0,0,60,12.0,64.0
3646,62.0,0,60,1.0,64.0
3647,50.0,44,60,14.0,64.0
3648,67.0,0,60,11.0,64.0
3649,75.0,0,60,11.0,64.0
3650,63.0,16,60,10.0,64.0
3651,72.0,0,60,10.0,64.0
3652,72.0,0,60,12.0,64.0
3653,60.0,64,60,13.0,64.0
3654,48.0,0,60,14.0,64.0
3655,60.0,0,60,1.0,64.0
3656,67.0,0,60,11.0,64.0
3657,75.0,80,60,11.0,64.0
3658,72.0,0,60,10.0,64.0
3659,63.0,0,60,10.0,64.0
3660,75.0,0,60,11.0,64.0
3661,72.0,0,60,10.0,64.0
3662,63.0,80,60,10.0,64.0
3663,67.0,0,60,11.0,64.0
3664,72.0,0,60,10.0,64.0
3665,67.0,80,60,11.0,64.0
3666,75.0,0,60,11.0,64.0
3667,63.0,0,60,10.0,64.0
3668,63.0,0,60,10.0,64.0
3669,67.0,0,60,11.0,64.0
3670,75.0,80,60,11.0,64.0
3671,72.0,0,60,10.0,64.0
3672,63.0,0,60,10.0,64.0
3673,67.0,80,60,11.0,64.0
3674,72.0,0,60,10.0,64.0
3675,75.0,0,60,11.0,64.0
3676,72.0,0,60,10.0,64.0
3677,67.0,46,60,11.0,64.0
3678,75.0,0,60,11.0,64.0
3679,63.0,0,60,10.0,64.0
3680,56.0,0,30,13.0,64.0
3681,67.0,26,60,11.0,64.0
3682,74.0,0,60,11.0,64.0
3683,68.0,0,30,12.0,64.0
3684,56.0,0,30,1.0,64.0
3685,71.0,0,60,10.0,64.0
3686,62.0,0,60,10.0,64.0
3687,44.0,30,30,14.0,64.0
3688,67.0,0,30,12.0,64.0
3689,55.0,0,30,1.0,64.0
3690,55.0,0,30,13.0,64.0
3691,43.0,4,30,14.0,64.0
3692,56.0,0,30,13.0,64.0
3693,56.0,30,30,1.0,64.0
3694,68.0,0,30,12.0,64.0
3695,44.0,0,30,14.0,64.0
3696,62.0,0,60,10.0,64.0
3697,71.0,0,60,10.0,64.0
3698,74.0,0,60,11.0,64.0
3699,67.0,36,60,11.0,64.0
3700,55.0,0,30,1.0,64.0
3701,43.0,0,30,14.0,64.0
3702,55.0,0,30,13.0,64.0
3703,67.0,24,30,12.0,64.0
3704,56.0,44,60,13.0,64.0
3705,44.0,0,60,14.0,64.0
3706,56.0,0,60,1.0,64.0
3707,68.0,0,60,12.0,64.0
3708,62.0,0,60,10.0,64.0
3709,71.0,0,60,10.0,64.0
3710,74.0,16,60,11.0,64.0
3711,67.0,0,60,11.0,64.0
3712,43.0,0,60,14.0,64.0
3713,55.0,64,60,13.0,64.0
3714,67.0,0,60,12.0,64.0
3715,55.0,0,60,1.0,64.0
3716,62.0,0,60,10.0,64.0
3717,71.0,80,60,10.0,64.0
3718,74.0,0,60,11.0,64.0
3719,67.0,0,60,11.0,64.0
3720,62.0,0,60,10.0,64.0
3721,71.0,0,60,10.0,64.0
3722,74.0,0,60,11.0,64.0
3723,67.0,80,60,11.0,64.0
3724,62.0,0,60,10.0,64.0
3725,71.0,0,60,10.0,64.0
3726,74.0,0,60,11.0,64.0
3727,67.0,80,60,11.0,64.0
3728,74.0,0,60,11.0,64.0
3729,67.0,0,60,11.0,64.0
3730,62.0,80,60,10.0,64.0
3731,71.0,0,60,10.0,64.0
3732,74.0,80,60,11.0,64.0
3733,67.0,0,60,11.0,64.0
3734,71.0,0,60,10.0,64.0
3735,62.0,0,60,10.0,64.0
3736,71.0,0,60,10.0,64.0
3737,62.0,80,60,10.0,64.0
3738,67.0,0,60,11.0,64.0
3739,74.0,0,60,11.0,64.0
3740,63.0,0,60,11.0,64.0
3741,72.0,0,60,11.0,64.0
3742,51.0,64,240,13.0,64.0
3743,75.0,80,60,10.0,64.0
3744,39.0,0,240,14.0,64.0
3745,51.0,0,240,1.0,64.0
3746,67.0,0,60,10.0,64.0
3747,63.0,0,240,12.0,64.0
3748,63.0,0,60,11.0,64.0
3749,72.0,0,60,11.0,64.0
3750,75.0,0,60,10.0,64.0
3751,67.0,80,60,10.0,64.0
3752,72.0,0,60,11.0,64.0
3753,67.0,16,60,10.0,64.0
3754,63.0,0,60,11.0,64.0
3755,75.0,0,60,10.0,64.0
3756,60.0,0,240,12.0,64.0
3757,36.0,0,240,14.0,64.0
3758,48.0,64,240,1.0,64.0
3759,67.0,0,60,10.0,64.0
3760,75.0,80,60,10.0,64.0
3761,48.0,0,240,13.0,64.0
3762,63.0,0,60,11.0,64.0
3763,72.0,0,60,11.0,64.0
3764,72.0,0,60,11.0,64.0
3765,63.0,80,60,11.0,64.0
3766,67.0,0,60,10.0,64.0
3767,75.0,0,60,10.0,64.0
3768,72.0,0,60,11.0,64.0
3769,67.0,0,60,10.0,64.0
3770,75.0,16,60,10.0,64.0
3771,63.0,0,60,11.0,64.0
3772,39.0,32,180,14.0,64.0
3773,63.0,0,60,11.0,64.0
3774,51.0,0,180,13.0,64.0
3775,72.0,80,60,11.0,64.0
3776,51.0,0,180,1.0,64.0
3777,75.0,0,60,10.0,64.0
3778,67.0,0,60,10.0,64.0
3779,63.0,0,180,12.0,64.0
3780,75.0,0,60,10.0,64.0
3781,67.0,0,60,10.0,64.0
3782,63.0,48,60,11.0,64.0
3783,72.0,0,60,11.0,64.0
3784,75.0,0,60,10.0,64.0
3785,63.0,0,60,11.0,64.0
3786,72.0,0,60,11.0,64.0
3787,67.0,80,60,10.0,64.0
3788,70.0,0,60,11.0,64.0
3789,55.0,0,180,13.0,64.0
3790,67.0,0,60,10.0,64.0
3791,55.0,0,180,1.0,64.0
3792,74.0,80,60,10.0,64.0
3793,62.0,0,60,11.0,64.0
3794,43.0,0,180,14.0,64.0
3795,67.0,0,180,12.0,64.0
3796,62.0,0,60,11.0,64.0
3797,74.0,0,60,10.0,64.0
3798,70.0,48,60,11.0,64.0
3799,67.0,0,60,10.0,64.0
3800,70.0,0,60,11.0,64.0
3801,67.0,0,60,10.0,64.0
3802,74.0,0,60,10.0,64.0
3803,62.0,80,60,11.0,64.0
3804,67.0,0,60,10.0,64.0
3805,67.0,0,150,0.0,64.0
3806,79.0,68,150,0.0,64.0
3807,70.0,80,60,11.0,64.0
3808,62.0,0,60,11.0,64.0
3809,74.0,0,60,10.0,64.0
3810,62.0,0,60,11.0,64.0
3811,67.0,0,60,10.0,64.0
3812,74.0,12,60,10.0,64.0
3813,70.0,0,60,11.0,64.0
3814,70.0,0,60,11.0,64.0
3815,62.0,80,60,11.0,64.0
3816,74.0,0,60,10.0,64.0
3817,67.0,0,60,10.0,64.0
3818,74.0,0,60,10.0,64.0
3819,70.0,0,60,11.0,64.0
3820,79.0,0,150,0.0,64.0
3821,67.0,0,60,10.0,64.0
3822,67.0,68,150,0.0,64.0
3823,62.0,80,60,11.0,64.0
3824,62.0,12,60,11.0,64.0
3825,70.0,0,60,11.0,64.0
3826,67.0,0,60,10.0,64.0
3827,74.0,0,60,10.0,64.0
3828,62.0,46,60,11.0,64.0
3829,74.0,0,60,10.0,64.0
3830,67.0,0,60,10.0,64.0
3831,70.0,0,60,11.0,64.0
3832,63.0,0,60,10.0,64.0
3833,60.0,0,60,11.0,64.0
3834,68.0,0,60,11.0,64.0
3835,72.0,26,60,10.0,64.0
3836,58.0,0,30,1.0,64.0
3837,70.0,30,30,12.0,64.0
3838,58.0,0,30,13.0,64.0
3839,75.0,0,2340,0.0,64.0
3840,63.0,0,2340,0.0,64.0
3841,46.0,0,30,14.0,64.0
3842,56.0,0,30,13.0,64.0
3843,56.0,0,30,1.0,64.0
3844,44.0,4,30,14.0,64.0
3845,68.0,0,30,12.0,64.0
3846,70.0,0,30,12.0,64.0
3847,58.0,0,30,1.0,64.0
3848,58.0,30,30,13.0,64.0
3849,46.0,0,30,14.0,64.0
3850,60.0,0,60,11.0,64.0
3851,63.0,0,60,10.0,64.0
3852,72.0,0,60,10.0,64.0
3853,68.0,36,60,11.0,64.0
3854,68.0,0,30,12.0,64.0
3855,56.0,24,30,1.0,64.0
3856,44.0,0,30,14.0,64.0
3857,56.0,0,30,13.0,64.0
3858,70.0,0,60,12.0,64.0
3859,58.0,44,60,13.0,64.0
3860,46.0,0,60,14.0,64.0
3861,58.0,0,60,1.0,64.0
3862,72.0,0,60,10.0,64.0
3863,60.0,0,60,11.0,64.0
3864,68.0,16,60,11.0,64.0
3865,63.0,0,60,10.0,64.0
3866,56.0,0,60,13.0,64.0
3867,44.0,64,60,14.0,64.0
3868,68.0,0,60,12.0,64.0
3869,56.0,0,60,1.0,64.0
3870,72.0,80,60,10.0,64.0
3871,63.0,0,60,10.0,64.0
3872,68.0,0,60,11.0,64.0
3873,60.0,0,60,11.0,64.0
3874,68.0,0,60,11.0,64.0
3875,72.0,80,60,10.0,64.0
3876,63.0,0,60,10.0,64.0
3877,60.0,0,60,11.0,64.0
3878,68.0,80,60,11.0,64.0
3879,72.0,0,60,10.0,64.0
3880,60.0,0,60,11.0,64.0
3881,63.0,0,60,10.0,64.0
3882,60.0,0,60,11.0,64.0
3883,68.0,80,60,11.0,64.0
3884,72.0,0,60,10.0,64.0
3885,63.0,0,60,10.0,64.0
3886,63.0,0,60,10.0,64.0
3887,60.0,80,60,11.0,64.0
3888,72.0,0,60,10.0,64.0
3889,68.0,0,60,11.0,64.0
3890,60.0,0,60,11.0,64.0
3891,68.0,0,60,11.0,64.0
3892,72.0,46,60,10.0,64.0
3893,63.0,0,60,10.0,64.0
3894,67.0,26,60,11.0,64.0
3895,63.0,0,60,10.0,64.0
3896,65.0,0,30,12.0,64.0
3897,58.0,0,60,11.0,64.0
3898,70.0,0,60,10.0,64.0
3899,41.0,30,30,14.0,64.0
3900,53.0,0,30,1.0,64.0
3901,53.0,0,30,13.0,64.0
3902,63.0,0,30,12.0,64.0
3903,51.0,0,30,1.0,64.0
3904,51.0,4,30,13.0,64.0
3905,39.0,0,30,14.0,64.0
3906,53.0,0,30,1.0,64.0
3907,41.0,0,30,14.0,64.0
3908,65.0,0,30,12.0,64.0
3909,53.0,30,30,13.0,64.0
3910,58.0,0,60,11.0,64.0
3911,67.0,0,60,11.0,64.0
3912,70.0,36,60,10.0,64.0
3913,63.0,0,60,10.0,64.0
3914,39.0,0,30,14.0,64.0
3915,63.0,0,30,12.0,64.0
3916,51.0,24,30,1.0,64.0
3917,51.0,0,30,13.0,64.0
3918,65.0,0,60,12.0,64.0
3919,53.0,44,60,13.0,64.0
3920,53.0,0,60,1.0,64.0
3921,41.0,0,60,14.0,64.0
3922,58.0,16,60,11.0,64.0
3923,67.0,0,60,11.0,64.0
3924,70.0,0,60,10.0,64.0
3925,63.0,0,60,10.0,64.0
3926,39.0,0,60,14.0,64.0
3927,51.0,0,60,13.0,64.0
3928,51.0,0,60,1.0,64.0
3929,63.0,64,60,12.0,64.0
3930,67.0,80,60,11.0,64.0
3931,58.0,0,60,11.0,64.0
3932,70.0,0,60,10.0,64.0
3933,63.0,0,60,10.0,64.0
3934,67.0,0,60,11.0,64.0
3935,70.0,80,60,10.0,64.0
3936,58.0,0,60,11.0,64.0
3937,63.0,0,60,10.0,64.0
3938,63.0,0,60,10.0,64.0
3939,67.0,0,60,11.0,64.0
3940,58.0,80,60,11.0,64.0
3941,70.0,0,60,10.0,64.0
3942,67.0,0,60,11.0,64.0
3943,63.0,80,60,10.0,64.0
3944,70.0,0,60,10.0,64.0
3945,58.0,0,60,11.0,64.0
3946,67.0,0,60,11.0,64.0
3947,58.0,0,60,11.0,64.0
3948,63.0,0,60,10.0,64.0
3949,70.0,80,60,10.0,64.0
3950,63.0,0,60,10.0,64.0
3951,70.0,0,60,10.0,64.0
3952,58.0,0,60,11.0,64.0
3953,67.0,80,60,11.0,64.0
3954,48.0,0,240,1.0,64.0
3955,72.0,0,60,11.0,64.0
3956,48.0,0,240,13.0,64.0
3957,60.0,64,240,12.0,64.0
3958,36.0,0,240,14.0,64.0
3959,63.0,0,60,11.0,64.0
3960,60.0,0,60,10.0,64.0
3961,68.0,80,60,10.0,64.0
3962,72.0,80,60,11.0,64.0
3963,63.0,0,60,11.0,64.0
3964,68.0,0,60,10.0,64.0
3965,60.0,0,60,10.0,64.0
3966,72.0,16,60,11.0,64.0
3967,63.0,0,60,11.0,64.0
3968,68.0,0,60,10.0,64.0
3969,60.0,0,60,10.0,64.0
3970,63.0,0,60,11.0,64.0
3971,72.0,80,60,11.0,64.0
3972,44.0,0,240,13.0,64.0
3973,32.0,64,240,14.0,64.0
3974,44.0,0,240,1.0,64.0
3975,60.0,0,60,10.0,64.0
3976,68.0,0,60,10.0,64.0
3977,56.0,0,240,12.0,64.0
3978,68.0,0,60,10.0,64.0
3979,60.0,80,60,10.0,64.0
3980,63.0,0,60,11.0,64.0
3981,72.0,0,60,11.0,64.0
3982,72.0,0,60,11.0,64.0
3983,63.0,0,60,11.0,64.0
3984,60.0,16,60,10.0,64.0
3985,68.0,0,60,10.0,64.0
3986,60.0,0,180,12.0,64.0
3987,36.0,0,180,14.0,64.0
3988,48.0,32,180,1.0,64.0
3989,72.0,0,60,11.0,64.0
3990,48.0,0,180,13.0,64.0
3991,63.0,0,60,11.0,64.0
3992,68.0,0,60,10.0,64.0
3993,60.0,80,60,10.0,64.0
3994,63.0,48,60,11.0,64.0
3995,60.0,0,60,10.0,64.0
3996,68.0,0,60,10.0,64.0
3997,72.0,0,60,11.0,64.0
3998,72.0,0,60,11.0,64.0
3999,60.0,80,60,10.0,64.0
4000,68.0,0,60,10.0,64.0
4001,63.0,0,60,11.0,64.0
4002,51.0,0,180,1.0,64.0
4003,51.0,32,180,13.0,64.0
4004,63.0,0,60,11.0,64.0
4005,70.0,80,60,11.0,64.0
4006,58.0,0,60,10.0,64.0
4007,39.0,0,180,14.0,64.0
4008,67.0,0,60,10.0,64.0
4009,63.0,0,180,12.0,64.0
4010,63.0,0,60,11.0,64.0
4011,70.0,0,60,11.0,64.0
4012,67.0,0,60,10.0,64.0
4013,58.0,48,60,10.0,64.0
4014,58.0,0,60,10.0,64.0
4015,70.0,80,60,11.0,64.0
4016,67.0,0,60,10.0,64.0
4017,63.0,0,60,11.0,64.0
4018,70.0,0,60,11.0,64.0
4019,75.0,68,150,0.0,64.0
4020,63.0,0,150,0.0,64.0
4021,63.0,80,60,11.0,64.0
4022,67.0,0,60,10.0,64.0
4023,58.0,0,60,10.0,64.0
4024,63.0,0,60,11.0,64.0
4025,67.0,0,60,10.0,64.0
4026,70.0,0,60,11.0,64.0
4027,58.0,12,60,10.0,64.0
4028,70.0,80,60,11.0,64.0
4029,58.0,0,60,10.0,64.0
4030,67.0,0,60,10.0,64.0
4031,63.0,0,60,11.0,64.0
4032,70.0,0,60,11.0,64.0
4033,63.0,0,60,11.0,64.0
4034,63.0,68,150,0.0,64.0
4035,58.0,80,60,10.0,64.0
4036,67.0,0,60,10.0,64.0
4037,75.0,0,150,0.0,64.0
4038,70.0,0,60,11.0,64.0
4039,63.0,12,60,11.0,64.0
4040,58.0,0,60,10.0,64.0
4041,67.0,0,60,10.0,64.0
4042,63.0,0,60,11.0,64.0
4043,70.0,0,60,11.0,64.0
4044,67.0,80,60,10.0,64.0
4045,58.0,0,60,10.0,64.0
4046,75.0,64,480,0.0,64.0
4047,65.0,0,60,11.0,64.0
4048,65.0,48,570,2.0,64.0
4049,65.0,80,60,10.0,64.0
4050,72.0,0,480,0.0,64.0
4051,65.0,0,60,10.0,64.0
4052,65.0,80,60,11.0,64.0
4053,65.0,80,60,11.0,64.0
4054,65.0,0,60,10.0,64.0
4055,72.0,80,60,11.0,64.0
4056,45.0,0,240,14.0,64.0
4057,57.0,0,240,1.0,64.0
4058,65.0,0,150,12.0,64.0
4059,75.0,0,60,10.0,64.0
4060,57.0,0,240,13.0,64.0
4061,75.0,0,60,10.0,64.0
4062,72.0,80,60,11.0,64.0
4063,72.0,0,60,11.0,64.0
4064,75.0,16,60,10.0,64.0
4065,70.0,32,60,11.0,64.0
4066,74.0,0,60,10.0,64.0
4067,58.0,0,180,1.0,64.0
4068,65.0,0,150,12.0,64.0
4069,58.0,0,180,13.0,64.0
4070,70.0,32,180,0.0,64.0
4071,74.0,0,180,0.0,64.0
4072,46.0,0,180,14.0,64.0
4073,70.0,48,60,11.0,64.0
4074,74.0,0,60,10.0,64.0
4075,74.0,0,60,10.0,64.0
4076,70.0,80,60,11.0,64.0
4077,65.0,80,60,11.0,64.0
4078,65.0,0,60,10.0,64.0
4079,81.0,64,480,0.0,64.0
4080,72.0,0,480,0.0,64.0
4081,65.0,0,390,2.0,64.0
4082,65.0,0,60,10.0,64.0
4083,65.0,80,60,11.0,64.0
4084,65.0,0,60,11.0,64.0
4085,65.0,80,60,10.0,64.0
4086,81.0,0,60,10.0,64.0
4087,65.0,0,150,12.0,64.0
4088,51.0,0,240,1.0,64.0
4089,51.0,0,240,13.0,64.0
4090,39.0,0,240,14.0,64.0
4091,72.0,80,60,11.0,64.0
4092,72.0,0,60,11.0,64.0
4093,81.0,80,60,10.0,64.0
4094,81.0,16,60,10.0,64.0
4095,72.0,0,60,11.0,64.0
4096,38.0,0,180,14.0,64.0
4097,65.0,48,150,12.0,64.0
4098,50.0,32,180,13.0,64.0
4099,50.0,0,180,1.0,64.0
4100,82.0,0,60,10.0,64.0
4101,70.0,0,180,2.0,64.0
4102,74.0,0,180,0.0,64.0
4103,82.0,0,180,0.0,64.0
4104,74.0,80,60,11.0,64.0
4105,58.0,0,180,2.0,64.0
4106,74.0,0,60,11.0,64.0
4107,82.0,0,60,10.0,64.0
4108,74.0,0,60,11.0,64.0
4109,82.0,80,60,10.0,64.0
4110,79.0,0,60,10.0,64.0
4111,79.0,0,120,0.0,64.0
4112,67.0,68,60,11.0,64.0
4113,43.0,0,120,14.0,64.0
4114,55.0,0,120,1.0,64.0
4115,55.0,12,120,13.0,64.0
4116,67.0,0,120,12.0,64.0
4117,67.0,0,60,11.0,64.0
4118,79.0,80,60,10.0,64.0
4119,79.0,0,60,10.0,64.0
4120,67.0,80,60,11.0,64.0
4121,65.0,0,60,11.0,64.0
4122,41.0,0,120,14.0,64.0
4123,53.0,0,120,1.0,64.0
4124,77.0,0,120,0.0,64.0
4125,65.0,12,120,12.0,64.0
4126,77.0,68,60,10.0,64.0
4127,53.0,0,120,13.0,64.0
4128,77.0,0,60,10.0,64.0
4129,65.0,80,60,11.0,64.0
4130,65.0,80,60,11.0,64.0
4131,77.0,0,60,10.0,64.0
4132,75.0,0,60,10.0,64.0
4133,63.0,68,60,11.0,64.0
4134,39.0,0,120,14.0,64.0
4135,51.0,0,120,1.0,64.0
4136,51.0,0,120,13.0,64.0
4137,63.0,0,120,12.0,64.0
4138,75.0,12,120,0.0,64.0
4139,75.0,80,60,10.0,64.0
4140,63.0,0,60,11.0,64.0
4141,75.0,80,60,10.0,64.0
4142,63.0,0,60,11.0,64.0
4143,50.0,0,120,13.0,64.0
4144,74.0,12,120,0.0,64.0
4145,62.0,68,60,11.0,64.0
4146,62.0,0,120,12.0,64.0
4147,74.0,0,60,10.0,64.0
4148,50.0,0,120,1.0,64.0
4149,38.0,0,120,14.0,64.0
4150,62.0,0,180,2.0,64.0
4151,74.0,32,180,2.0,64.0
4152,62.0,48,60,11.0,64.0
4153,74.0,0,60,10.0,64.0
4154,62.0,0,60,11.0,64.0
4155,74.0,80,60,10.0,64.0
4156,72.0,0,120,0.0,64.0
4157,72.0,0,60,10.0,64.0
4158,60.0,0,120,12.0,64.0
4159,72.0,32,180,2.0,64.0
4160,48.0,12,120,13.0,64.0
4161,48.0,0,120,1.0,64.0
4162,60.0,68,60,11.0,64.0
4163,36.0,0,120,14.0,64.0
4164,60.0,48,60,11.0,64.0
4165,72.0,0,60,10.0,64.0
4166,72.0,80,60,10.0,64.0
4167,60.0,0,60,11.0,64.0
4168,58.0,0,120,12.0,64.0
4169,70.0,0,120,0.0,64.0
4170,70.0,0,60,10.0,64.0
4171,46.0,0,120,13.0,64.0
4172,34.0,0,120,14.0,64.0
4173,58.0,32,180,2.0,64.0
4174,58.0,68,60,11.0,64.0
4175,46.0,12,120,1.0,64.0
4176,70.0,0,180,2.0,64.0
4177,70.0,48,60,10.0,64.0
4178,58.0,0,60,11.0,64.0
4179,70.0,0,60,10.0,64.0
4180,58.0,80,60,11.0,64.0
4181,65.0,0,180,12.0,64.0
4182,41.0,32,180,14.0,64.0
4183,65.0,0,180,2.0,64.0
4184,53.0,0,180,13.0,64.0
4185,77.0,0,180,0.0,64.0
4186,65.0,0,180,11.0,64.0
4187,77.0,80,60,10.0,64.0
4188,53.0,0,180,1.0,64.0
4189,77.0,48,60,10.0,64.0
4190,77.0,80,60,10.0,64.0
4191,81.0,80,60,10.0,64.0
4192,81.0,80,60,10.0,64.0
4193,81.0,80,60,10.0,64.0
4194,67.0,0,150,11.0,64.0
4195,76.0,0,150,11.0,64.0
4196,72.0,80,150,11.0,64.0
4197,70.0,0,150,12.0,64.0
4198,48.0,0,150,13.0,64.0
4199,76.0,0,150,0.0,64.0
4200,70.0,0,150,0.0,64.0
4201,36.0,0,150,14.0,64.0
4202,72.0,0,150,2.0,64.0
4203,48.0,0,150,1.0,64.0
4204,76.0,80,60,10.0,64.0
4205,67.0,0,150,12.0,64.0
4206,76.0,0,60,10.0,64.0
4207,76.0,80,60,10.0,64.0
4208,72.0,0,150,2.0,64.0
4209,41.0,0,150,14.0,64.0
4210,65.0,0,150,11.0,64.0
4211,77.0,0,150,11.0,64.0
4212,53.0,80,150,13.0,64.0
4213,65.0,0,150,2.0,64.0
4214,69.0,0,150,0.0,64.0
4215,77.0,0,150,0.0,64.0
4216,65.0,0,150,12.0,64.0
4217,72.0,0,150,11.0,64.0
4218,77.0,80,60,10.0,64.0
4219,53.0,0,150,1.0,64.0
4220,69.0,0,150,12.0,64.0
4221,77.0,0,60,10.0,64.0
4222,77.0,80,60,10.0,64.0
4223,84.0,80,60,10.0,64.0
4224,84.0,80,60,10.0,64.0
4225,84.0,80,60,10.0,64.0
4226,76.0,80,60,10.0,64.0
4227,70.0,0,150,12.0,64.0
4228,48.0,0,150,13.0,64.0
4229,76.0,0,150,11.0,64.0
4230,36.0,0,150,14.0,64.0
4231,70.0,0,150,0.0,64.0
4232,76.0,0,150,0.0,64.0
4233,48.0,0,150,1.0,64.0
4234,67.0,0,150,12.0,64.0
4235,72.0,0,150,11.0,64.0
4236,67.0,80,150,11.0,64.0
4237,72.0,0,150,2.0,64.0
4238,76.0,0,60,10.0,64.0
4239,76.0,80,60,10.0,64.0
4240,53.0,0,150,13.0,64.0
4241,41.0,0,150,14.0,64.0
4242,65.0,0,150,2.0,64.0
4243,69.0,0,150,12.0,64.0
4244,65.0,0,150,12.0,64.0
4245,72.0,0,150,11.0,64.0
4246,72.0,0,150,2.0,64.0
4247,77.0,0,150,11.0,64.0
4248,53.0,0,150,1.0,64.0
4249,69.0,0,150,0.0,64.0
4250,77.0,0,150,0.0,64.0
4251,65.0,0,150,11.0,64.0
4252,77.0,80,60,10.0,64.0
4253,77.0,80,60,10.0,64.0
4254,77.0,80,60,10.0,64.0
4255,81.0,80,60,10.0,64.0
4256,81.0,80,60,10.0,64.0
4257,81.0,80,60,10.0,64.0
4258,36.0,0,150,14.0,64.0
4259,70.0,0,150,12.0,64.0
4260,76.0,0,150,11.0,64.0
4261,72.0,0,150,11.0,64.0
4262,67.0,0,150,11.0,64.0
4263,48.0,80,150,13.0,64.0
4264,48.0,0,150,1.0,64.0
4265,67.0,0,150,12.0,64.0
4266,72.0,0,150,2.0,64.0
4267,76.0,80,60,10.0,64.0
4268,76.0,0,150,0.0,64.0
4269,70.0,0,150,0.0,64.0
4270,76.0,0,60,10.0,64.0
4271,76.0,80,60,10.0,64.0
4272,72.0,0,150,11.0,64.0
4273,77.0,80,60,10.0,64.0
4274,53.0,0,150,1.0,64.0
4275,53.0,0,150,13.0,64.0
4276,65.0,0,150,12.0,64.0
4277,69.0,0,150,12.0,64.0
4278,65.0,0,150,2.0,64.0
4279,41.0,0,150,14.0,64.0
4280,69.0,0,150,0.0,64.0
4281,77.0,0,150,0.0,64.0
4282,72.0,0,150,2.0,64.0
4283,77.0,0,150,11.0,64.0
4284,65.0,0,150,11.0,64.0
4285,77.0,80,60,10.0,64.0
4286,77.0,80,60,10.0,64.0
4287,84.0,80,60,10.0,64.0
4288,84.0,80,60,10.0,64.0
4289,84.0,80,60,10.0,64.0
4290,70.0,0,150,12.0,64.0
4291,76.0,80,60,10.0,64.0
4292,76.0,0,150,0.0,64.0
4293,70.0,0,150,0.0,64.0
4294,76.0,0,150,11.0,64.0
4295,72.0,0,150,11.0,64.0
4296,67.0,0,150,11.0,64.0
4297,48.0,0,150,13.0,64.0
4298,48.0,0,150,1.0,64.0
4299,67.0,0,150,12.0,64.0
4300,36.0,0,150,14.0,64.0
4301,72.0,0,150,2.0,64.0
4302,76.0,80,60,10.0,64.0
4303,76.0,160,60,10.0,64.0
4304,65.0,0,150,12.0,64.0
4305,77.0,0,150,0.0,64.0
4306,69.0,0,150,0.0,64.0
4307,65.0,0,150,2.0,64.0
4308,72.0,0,150,11.0,64.0
4309,77.0,0,150,11.0,64.0
4310,65.0,0,150,11.0,64.0
4311,41.0,12,150,14.0,64.0
4312,53.0,0,150,13.0,64.0
4313,69.0,0,150,12.0,64.0
4314,77.0,240,150,10.0,64.0
4315,53.0,0,150,1.0,64.0
4316,72.0,0,150,2.0,64.0
4317,77.0,240,150,10.0,64.0
4318,77.0,240,150,10.0,64.0
4319,77.0,240,150,10.0,64.0
4320,77.0,240,150,10.0,64.0
4321,77.0,114,150,10.0,64.0
4322,65.0,24,150,1.0,64.0
4323,79.0,30,30,10.0,64.0
4324,77.0,30,30,10.0,64.0
4325,79.0,30,30,10.0,64.0
4326,77.0,36,30,10.0,64.0
4327,79.0,48,60,10.0,64.0
4328,77.0,522,40,10.0,64.0
4329,60.0,24,150,1.0,64.0
4330,74.0,30,30,10.0,64.0
4331,72.0,30,30,10.0,64.0
4332,74.0,30,30,10.0,64.0
4333,72.0,36,30,10.0,64.0
4334,74.0,48,60,10.0,64.0
4335,72.0,732,40,10.0,64.0
4336,69.0,0,240,10.0,64.0
4337,57.0,240,240,1.0,64.0
4338,53.0,228,240,1.0,64.0
4339,65.0,0,240,10.0,64.0
4340,57.0,0,240,1.0,64.0
4341,69.0,204,240,10.0,64.0
4342,72.0,0,180,10.0,64.0
4343,60.0,768,180,1.0,64.0
4344,60.0,0,240,1.0,64.0
4345,72.0,240,240,10.0,64.0
4346,57.0,228,240,1.0,64.0
4347,69.0,0,240,10.0,64.0
4348,60.0,492,240,1.0,64.0
4349,72.0,0,240,10.0,64.0
4350,63.0,168,900,1.0,64.0
4351,75.0,432,15,10.0,64.0
4352,79.0,120,120,10.0,64.0
4353,67.0,0,240,1.0,64.0
4354,63.0,0,240,1.0,64.0
4355,75.0,120,120,10.0,64.0
4356,62.0,0,240,1.0,64.0
4357,65.0,0,240,1.0,64.0
4358,77.0,120,120,10.0,64.0
4359,74.0,120,120,10.0,64.0
4360,60.0,0,240,1.0,64.0
4361,75.0,120,120,10.0,64.0
4362,63.0,0,240,1.0,64.0
4363,72.0,120,120,10.0,64.0
4364,58.0,120,240,1.0,64.0
4365,62.0,0,240,1.0,64.0
4366,74.0,120,120,10.0,64.0
4367,70.0,0,120,10.0,64.0
4368,60.0,204,240,1.0,64.0
4369,57.0,0,240,1.0,64.0
4370,72.0,96,120,10.0,64.0
4371,69.0,12,90,10.0,64.0
4372,62.0,0,240,10.0,64.0
4373,70.0,0,240,10.0,64.0
4374,74.0,0,690,0.0,64.0
4375,58.0,0,180,13.0,64.0
4376,70.0,108,240,11.0,64.0
4377,82.0,0,690,10.0,64.0
4378,82.0,0,690,11.0,64.0
4379,82.0,0,690,0.0,64.0
4380,58.0,36,180,1.0,64.0
4381,70.0,0,690,2.0,64.0
4382,58.0,0,690,2.0,64.0
4383,46.0,0,180,14.0,64.0
4384,65.0,12,690,12.0,64.0
4385,58.0,0,690,12.0,64.0
4386,62.0,0,240,11.0,64.0
4387,53.0,0,90,13.0,64.0
4388,41.0,0,90,14.0,64.0
4389,53.0,120,90,1.0,64.0
4390,58.0,0,90,1.0,64.0
4391,58.0,0,90,13.0,64.0
4392,46.0,120,90,14.0,64.0
4393,38.0,108,90,14.0,64.0
4394,50.0,0,90,1.0,64.0
4395,50.0,0,90,13.0,64.0
4396,53.0,0,90,1.0,64.0
4397,41.0,216,90,14.0,64.0
4398,53.0,0,90,13.0,64.0
4399,46.0,0,180,13.0,64.0
4400,46.0,0,180,1.0,64.0
4401,34.0,126,180,14.0,64.0
4402,58.0,0,90,12.0,64.0
4403,70.0,240,90,10.0,64.0
4404,50.0,0,90,12.0,64.0
4405,65.0,0,90,11.0,64.0
4406,72.0,0,90,10.0,64.0
4407,60.0,240,90,12.0,64.0
4408,53.0,0,90,12.0,64.0
4409,69.0,0,90,11.0,64.0
4410,62.0,240,90,12.0,64.0
4411,74.0,0,90,10.0,64.0
4412,70.0,0,90,11.0,64.0
4413,58.0,0,90,12.0,64.0
4414,63.0,240,90,12.0,64.0
4415,60.0,0,90,12.0,64.0
4416,72.0,0,90,11.0,64.0
4417,75.0,0,90,10.0,64.0
4418,76.0,0,90,10.0,64.0
4419,61.0,0,90,12.0,64.0
4420,73.0,0,90,11.0,64.0
4421,64.0,240,90,12.0,64.0
4422,65.0,240,90,12.0,64.0
4423,74.0,0,90,11.0,64.0
4424,77.0,0,90,10.0,64.0
4425,62.0,0,90,12.0,64.0
4426,67.0,240,90,12.0,64.0
4427,63.0,0,90,12.0,64.0
4428,75.0,0,90,11.0,64.0
4429,79.0,0,90,10.0,64.0
4430,74.0,0,90,10.0,64.0
4431,59.0,0,90,12.0,64.0
4432,62.0,0,90,12.0,64.0
4433,71.0,354,90,11.0,64.0
4434,53.0,0,180,13.0,64.0
4435,72.0,0,300,0.0,64.0
4436,75.0,0,300,0.0,64.0
4437,72.0,0,300,11.0,64.0
4438,60.0,0,300,1.0,64.0
4439,57.0,0,300,1.0,64.0
4440,60.0,48,300,12.0,64.0
4441,75.0,0,300,10.0,64.0
4442,63.0,0,300,12.0,64.0
4443,53.0,0,690,2.0,64.0
4444,41.0,96,180,14.0,64.0
4445,65.0,12,690,2.0,64.0
4446,48.0,120,90,13.0,64.0
4447,36.0,0,90,14.0,64.0
4448,70.0,0,90,0.0,64.0
4449,41.0,0,90,14.0,64.0
4450,53.0,0,90,13.0,64.0
4451,70.0,120,90,11.0,64.0
4452,62.0,0,90,1.0,64.0
4453,74.0,0,90,0.0,64.0
4454,58.0,0,90,1.0,64.0
4455,62.0,0,90,12.0,64.0
4456,58.0,0,90,12.0,64.0
4457,74.0,0,90,10.0,64.0
4458,57.0,0,180,12.0,64.0
4459,45.0,0,90,13.0,64.0
4460,72.0,0,180,10.0,64.0
4461,69.0,0,180,0.0,64.0
4462,33.0,96,90,14.0,64.0
4463,69.0,0,180,11.0,64.0
4464,63.0,0,180,1.0,64.0
4465,60.0,0,180,1.0,64.0
4466,60.0,12,180,12.0,64.0
4467,72.0,0,180,0.0,64.0
4468,36.0,216,90,14.0,64.0
4469,48.0,0,90,13.0,64.0
4470,41.0,126,180,13.0,64.0
4471,29.0,0,180,14.0,64.0
4472,53.0,0,90,12.0,64.0
4473,69.0,0,90,10.0,64.0
4474,57.0,240,90,12.0,64.0
4475,65.0,0,90,11.0,64.0
4476,67.0,0,90,11.0,64.0
4477,70.0,240,90,10.0,64.0
4478,58.0,0,90,12.0,64.0
4479,55.0,0,90,12.0,64.0
4480,57.0,240,90,12.0,64.0
4481,60.0,0,90,12.0,64.0
4482,72.0,0,90,10.0,64.0
4483,69.0,0,90,11.0,64.0
4484,70.0,0,90,11.0,64.0
4485,74.0,0,90,10.0,64.0
4486,62.0,0,90,12.0,64.0
4487,58.0,240,90,12.0,64.0
4488,72.0,240,90,11.0,64.0
4489,63.0,0,90,12.0,64.0
4490,75.0,0,90,10.0,64.0
4491,60.0,0,90,12.0,64.0
4492,74.0,0,90,11.0,64.0
4493,77.0,0,90,10.0,64.0
4494,62.0,240,90,12.0,64.0
4495,65.0,0,90,12.0,64.0
4496,75.0,0,90,11.0,64.0
4497,79.0,0,90,10.0,64.0
4498,67.0,240,90,12.0,64.0
4499,63.0,0,90,12.0,64.0
4500,64.0,0,90,12.0,64.0
4501,76.0,354,90,10.0,64.0
4502,73.0,0,90,11.0,64.0
4503,61.0,0,90,12.0,64.0
4504,62.0,0,300,12.0,64.0
4505,65.0,0,300,12.0,64.0
4506,58.0,48,300,1.0,64.0
4507,58.0,0,180,13.0,64.0
4508,77.0,0,300,0.0,64.0
4509,74.0,0,300,11.0,64.0
4510,70.0,12,690,2.0,64.0
4511,58.0,0,690,2.0,64.0
4512,46.0,96,180,14.0,64.0
4513,62.0,0,300,1.0,64.0
4514,77.0,0,300,10.0,64.0
4515,74.0,0,300,0.0,64.0
4516,53.0,0,90,13.0,64.0
4517,41.0,120,90,14.0,64.0
4518,72.0,0,90,0.0,64.0
4519,60.0,0,90,1.0,64.0
4520,63.0,0,90,12.0,64.0
4521,60.0,0,90,12.0,64.0
4522,63.0,0,90,1.0,64.0
4523,75.0,0,90,0.0,64.0
4524,58.0,0,90,13.0,64.0
4525,75.0,0,90,10.0,64.0
4526,72.0,0,90,11.0,64.0
4527,46.0,120,90,14.0,64.0
4528,50.0,96,90,13.0,64.0
4529,74.0,0,180,0.0,64.0
4530,70.0,0,180,0.0,64.0
4531,38.0,0,90,14.0,64.0
4532,70.0,12,180,11.0,64.0
4533,65.0,0,180,1.0,64.0
4534,62.0,0,180,1.0,64.0
4535,74.0,0,180,10.0,64.0
4536,58.0,0,180,12.0,64.0
4537,62.0,0,180,12.0,64.0
4538,53.0,216,90,13.0,64.0
4539,41.0,0,90,14.0,64.0
4540,34.0,168,180,14.0,64.0
4541,46.0,0,180,13.0,64.0
4542,82.0,120,120,10.0,64.0
4543,81.0,120,120,10.0,64.0
4544,62.0,0,240,12.0,64.0
4545,82.0,120,120,10.0,64.0
4546,65.0,0,240,12.0,64.0
4547,62.0,0,240,1.0,64.0
4548,70.0,0,420,11.0,64.0
4549,80.0,192,120,10.0,64.0
4550,63.0,0,180,1.0,64.0
4551,63.0,0,180,12.0,64.0
4552,79.0,168,180,10.0,64.0
4553,82.0,120,120,10.0,64.0
4554,81.0,120,120,10.0,64.0
4555,62.0,0,240,12.0,64.0
4556,62.0,0,240,1.0,64.0
4557,82.0,120,120,10.0,64.0
4558,70.0,0,420,11.0,64.0
4559,65.0,0,240,12.0,64.0
4560,80.0,192,120,10.0,64.0
4561,63.0,168,180,12.0,64.0
4562,63.0,0,180,1.0,64.0
4563,79.0,0,180,10.0,64.0
4564,82.0,120,120,10.0,64.0
4565,81.0,120,120,10.0,64.0
4566,70.0,888,420,11.0,64.0
4567,82.0,120,120,10.0,64.0
4568,65.0,0,240,12.0,64.0
4569,62.0,0,240,1.0,64.0
4570,62.0,0,240,12.0,64.0
4571,80.0,192,120,10.0,64.0
4572,63.0,0,180,12.0,64.0
4573,79.0,0,180,10.0,64.0
4574,63.0,0,180,1.0,64.0
4575,67.0,120,120,12.0,64.0
4576,63.0,0,120,12.0,64.0
4577,75.0,0,120,11.0,64.0
4578,79.0,0,120,10.0,64.0
4579,62.0,0,120,12.0,64.0
4580,66.0,120,120,12.0,64.0
4581,78.0,0,120,10.0,64.0
4582,74.0,0,120,11.0,64.0
4583,75.0,0,120,11.0,64.0
4584,67.0,120,120,12.0,64.0
4585,79.0,0,120,10.0,64.0
4586,63.0,0,120,12.0,64.0
4587,77.0,0,120,10.0,64.0
4588,74.0,0,120,11.0,64.0
4589,62.0,480,120,12.0,64.0
4590,65.0,0,120,12.0,64.0
4591,75.0,0,480,10.0,64.0
4592,63.0,0,480,12.0,64.0
4593,60.0,0,480,12.0,64.0
4594,72.0,228,480,11.0,64.0
4595,57.0,0,240,13.0,64.0
4596,45.0,0,240,14.0,64.0
4597,62.0,0,240,12.0,64.0
4598,58.0,0,240,12.0,64.0
4599,58.0,0,240,13.0,64.0
4600,74.0,72,240,10.0,64.0
4601,46.0,0,240,14.0,64.0
4602,70.0,0,240,11.0,64.0
4603,39.0,0,120,14.0,64.0
4604,62.0,0,60,12.0,64.0
4605,51.0,27,120,13.0,64.0
4606,65.0,72,60,12.0,64.0
4607,74.0,0,60,11.0,64.0
4608,77.0,0,60,10.0,64.0
4609,60.0,0,90,12.0,64.0
4610,75.0,213,90,10.0,64.0
4611,72.0,0,90,11.0,64.0
4612,63.0,0,90,12.0,64.0
4613,74.0,0,120,10.0,64.0
4614,70.0,0,120,11.0,64.0
4615,41.0,0,120,14.0,64.0
4616,53.0,0,120,13.0,64.0
4617,58.0,0,120,12.0,64.0
4618,62.0,240,120,12.0,64.0
4619,72.0,240,120,10.0,64.0
4620,41.0,0,120,14.0,64.0
4621,60.0,0,120,12.0,64.0
4622,57.0,0,120,12.0,64.0
4623,69.0,0,120,11.0,64.0
4624,53.0,0,120,13.0,64.0
4625,72.0,0,480,10.0,64.0
4626,65.0,0,900,2.0,64.0
4627,60.0,0,480,12.0,64.0
4628,69.0,132,480,11.0,64.0
4629,57.0,0,480,12.0,64.0
4630,58.0,0,120,13.0,64.0
4631,46.0,240,120,14.0,64.0
4632,58.0,0,900,2.0,64.0
4633,41.0,0,120,14.0,64.0
4634,53.0,108,120,13.0,64.0
4635,70.0,0,180,11.0,64.0
4636,62.0,240,180,12.0,64.0
4637,58.0,0,180,12.0,64.0
4638,74.0,0,180,10.0,64.0
4639,50.0,60,120,13.0,64.0
4640,38.0,0,120,14.0,64.0
4641,34.0,168,180,14.0,64.0
4642,58.0,0,2340,1.0,64.0
4643,46.0,0,180,13.0,64.0
4644,58.0,0,120,11.0,64.0
4645,70.0,120,120,10.0,64.0
4646,69.0,0,120,10.0,64.0
4647,57.0,120,120,11.0,64.0
4648,58.0,0,120,11.0,64.0
4649,38.0,192,240,14.0,64.0
4650,50.0,0,240,13.0,64.0
4651,53.0,0,240,12.0,64.0
4652,70.0,120,120,10.0,64.0
4653,68.0,0,120,10.0,64.0
4654,56.0,0,120,11.0,64.0
4655,55.0,168,180,11.0,64.0
4656,51.0,0,180,12.0,64.0
4657,51.0,0,180,13.0,64.0
4658,67.0,0,180,10.0,64.0
4659,39.0,0,180,14.0,64.0
4660,70.0,0,120,10.0,64.0
4661,58.0,120,120,11.0,64.0
4662,69.0,120,120,10.0,64.0
4663,57.0,0,120,11.0,64.0
4664,58.0,120,120,11.0,64.0
4665,70.0,0,120,10.0,64.0
4666,38.0,0,240,14.0,64.0
4667,53.0,0,240,12.0,64.0
4668,50.0,192,240,13.0,64.0
4669,68.0,0,120,10.0,64.0
4670,56.0,0,120,11.0,64.0
4671,67.0,0,180,10.0,64.0
4672,55.0,0,180,11.0,64.0
4673,51.0,168,180,12.0,64.0
4674,39.0,0,180,14.0,64.0
4675,51.0,0,180,13.0,64.0
4676,58.0,120,120,11.0,64.0
4677,70.0,0,120,10.0,64.0
4678,69.0,0,120,10.0,64.0
4679,57.0,120,120,11.0,64.0
4680,58.0,0,120,11.0,64.0
4681,70.0,120,120,10.0,64.0
4682,50.0,0,240,13.0,64.0
4683,38.0,0,240,14.0,64.0
4684,53.0,192,240,12.0,64.0
4685,56.0,0,120,11.0,64.0
4686,68.0,0,120,10.0,64.0
4687,67.0,0,180,10.0,64.0
4688,55.0,0,180,11.0,64.0
4689,51.0,0,180,13.0,64.0
4690,39.0,888,180,14.0,64.0
4691,51.0,0,180,12.0,64.0
4692,51.0,0,120,1.0,64.0
4693,63.0,120,120,11.0,64.0
4694,67.0,0,120,10.0,64.0
4695,55.0,0,120,1.0,64.0
4696,66.0,0,120,10.0,64.0
4697,50.0,0,120,1.0,64.0
4698,62.0,120,120,11.0,64.0
4699,54.0,0,120,1.0,64.0
4700,55.0,120,120,1.0,64.0
4701,51.0,0,120,1.0,64.0
4702,67.0,0,120,10.0,64.0
4703,63.0,0,120,11.0,64.0
4704,65.0,0,120,10.0,64.0
4705,62.0,0,120,11.0,64.0
4706,53.0,480,120,1.0,64.0
4707,50.0,0,120,1.0,64.0
4708,72.0,0,480,2.0,64.0
4709,65.0,0,480,2.0,64.0
4710,51.0,0,480,1.0,64.0
4711,48.0,0,480,1.0,64.0
4712,60.0,0,480,11.0,64.0
4713,63.0,0,480,10.0,64.0
4714,53.0,60,720,12.0,64.0
4715,33.0,0,240,14.0,64.0
4716,45.0,192,240,13.0,64.0
4717,74.0,0,180,2.0,64.0
4718,70.0,0,180,2.0,64.0
4719,62.0,0,180,10.0,64.0
4720,34.0,0,180,14.0,64.0
4721,50.0,0,180,1.0,64.0
4722,46.0,0,180,1.0,64.0
4723,58.0,0,180,11.0,64.0
4724,46.0,48,180,13.0,64.0
4725,65.0,72,60,10.0,64.0
4726,51.0,12,120,13.0,64.0
4727,72.0,0,150,2.0,64.0
4728,62.0,0,60,11.0,64.0
4729,39.0,0,120,14.0,64.0
4730,51.0,0,120,12.0,64.0
4731,75.0,15,150,2.0,64.0
4732,50.0,0,60,1.0,64.0
4733,53.0,0,60,1.0,64.0
4734,51.0,213,90,1.0,64.0
4735,60.0,0,90,11.0,64.0
4736,48.0,0,90,1.0,64.0
4737,63.0,0,90,10.0,64.0
4738,62.0,12,120,11.0,64.0
4739,50.0,0,120,1.0,64.0
4740,46.0,0,120,1.0,64.0
4741,53.0,0,120,13.0,64.0
4742,53.0,0,120,12.0,64.0
4743,70.0,0,150,2.0,64.0
4744,74.0,228,150,2.0,64.0
4745,41.0,0,120,14.0,64.0
4746,62.0,0,120,10.0,64.0
4747,65.0,0,150,2.0,64.0
4748,53.0,0,120,12.0,64.0
4749,48.0,0,120,1.0,64.0
4750,72.0,192,150,2.0,64.0
4751,45.0,0,120,1.0,64.0
4752,60.0,12,120,11.0,64.0
4753,29.0,0,120,14.0,64.0
4754,41.0,0,120,13.0,64.0
4755,60.0,0,120,10.0,64.0
4756,46.0,0,90,13.0,64.0
4757,46.0,0,150,1.0,64.0
4758,70.0,78,720,0.0,64.0
4759,34.0,0,90,14.0,64.0
4760,70.0,0,1410,2.0,64.0
4761,58.0,0,150,10.0,64.0
4762,58.0,12,1410,2.0,64.0
4763,58.0,48,90,12.0,64.0
4764,58.0,72,150,11.0,64.0
4765,58.0,0,90,12.0,64.0
4766,34.0,120,90,14.0,64.0
4767,46.0,0,90,13.0,64.0
4768,34.0,0,90,14.0,64.0
4769,58.0,0,90,12.0,64.0
4770,46.0,102,90,13.0,64.0
4771,65.0,18,90,11.0,64.0
4772,70.0,0,90,10.0,64.0
4773,46.0,102,90,13.0,64.0
4774,58.0,0,90,12.0,64.0
4775,34.0,0,90,14.0,64.0
4776,74.0,18,90,10.0,64.0
4777,70.0,0,90,11.0,64.0
4778,34.0,102,90,14.0,64.0
4779,46.0,0,90,13.0,64.0
4780,58.0,0,90,12.0,64.0
4781,69.0,18,90,11.0,64.0
4782,72.0,0,90,10.0,64.0
4783,46.0,24,90,13.0,64.0
4784,34.0,0,90,14.0,64.0
4785,58.0,0,90,12.0,64.0
4786,34.0,102,90,14.0,64.0
4787,46.0,0,90,13.0,64.0
4788,67.0,18,90,11.0,64.0
4789,58.0,0,90,12.0,64.0
4790,74.0,0,690,0.0,64.0
4791,70.0,0,90,10.0,64.0
4792,70.0,0,690,0.0,64.0
4793,65.0,18,90,11.0,64.0
4794,58.0,0,90,12.0,64.0
4795,34.0,102,90,14.0,64.0
4796,69.0,0,90,10.0,64.0
4797,46.0,0,90,13.0,64.0
4798,34.0,0,90,14.0,64.0
4799,46.0,0,90,13.0,64.0
4800,67.0,18,90,10.0,64.0
4801,58.0,102,90,12.0,64.0
4802,63.0,0,90,11.0,64.0
4803,58.0,0,90,12.0,64.0
4804,46.0,102,90,13.0,64.0
4805,34.0,0,90,14.0,64.0
4806,62.0,0,90,11.0,64.0
4807,65.0,18,90,10.0,64.0
4808,46.0,102,90,13.0,64.0
4809,58.0,0,90,12.0,64.0
4810,34.0,0,90,14.0,64.0
4811,60.0,18,90,11.0,64.0
4812,63.0,0,90,10.0,64.0
4813,58.0,6,90,11.0,64.0
4814,62.0,0,90,10.0,64.0
4815,58.0,120,90,12.0,64.0
4816,34.0,0,90,14.0,64.0
4817,46.0,0,90,13.0,64.0
4818,57.0,0,1410,1.0,64.0
4819,58.0,0,1410,2.0,64.0
4820,46.0,96,90,13.0,64.0
4821,63.0,12,690,0.0,64.0
4822,72.0,78,720,0.0,64.0
4823,57.0,0,180,11.0,64.0
4824,34.0,0,90,14.0,64.0
4825,70.0,0,1410,2.0,64.0
4826,63.0,24,180,10.0,64.0
4827,60.0,0,180,10.0,64.0
4828,58.0,0,90,12.0,64.0
4829,34.0,0,90,14.0,64.0
4830,58.0,120,90,12.0,64.0
4831,46.0,0,90,13.0,64.0
4832,34.0,102,90,14.0,64.0
4833,46.0,0,90,13.0,64.0
4834,58.0,0,90,12.0,64.0
4835,58.0,102,90,12.0,64.0
4836,34.0,0,90,14.0,64.0
4837,46.0,0,90,13.0,64.0
4838,69.0,0,90,11.0,64.0
4839,72.0,18,90,10.0,64.0
4840,75.0,0,90,10.0,64.0
4841,72.0,18,90,11.0,64.0
4842,34.0,0,90,14.0,64.0
4843,46.0,0,90,13.0,64.0
4844,58.0,102,90,12.0,64.0
4845,58.0,0,90,12.0,64.0
4846,74.0,0,90,10.0,64.0
4847,46.0,24,90,13.0,64.0
4848,34.0,0,90,14.0,64.0
4849,70.0,6,90,11.0,64.0
4850,69.0,18,90,11.0,64.0
4851,72.0,0,90,10.0,64.0
4852,58.0,0,90,12.0,64.0
4853,34.0,102,90,14.0,64.0
4854,46.0,0,90,13.0,64.0
4855,75.0,0,690,0.0,64.0
4856,72.0,12,690,0.0,64.0
4857,46.0,0,90,13.0,64.0
4858,70.0,0,90,10.0,64.0
4859,34.0,0,90,14.0,64.0
4860,67.0,18,90,11.0,64.0
4861,58.0,102,90,12.0,64.0
4862,65.0,0,90,11.0,64.0
4863,34.0,102,90,14.0,64.0
4864,58.0,0,90,12.0,64.0
4865,69.0,18,90,10.0,64.0
4866,46.0,0,90,13.0,64.0
4867,63.0,0,90,11.0,64.0
4868,46.0,0,90,13.0,64.0
4869,67.0,18,90,10.0,64.0
4870,58.0,102,90,12.0,64.0
4871,34.0,0,90,14.0,64.0
4872,46.0,0,90,13.0,64.0
4873,62.0,0,90,11.0,64.0
4874,58.0,0,90,12.0,64.0
4875,34.0,102,90,14.0,64.0
4876,65.0,18,90,10.0,64.0
4877,46.0,0,90,13.0,64.0
4878,60.0,0,90,11.0,64.0
4879,58.0,120,90,12.0,64.0
4880,63.0,6,90,10.0,64.0
4881,34.0,0,90,14.0,64.0
4882,56.0,0,1410,1.0,64.0
4883,65.0,24,180,10.0,64.0
4884,58.0,0,180,10.0,64.0
4885,58.0,0,90,12.0,64.0
4886,58.0,0,180,11.0,64.0
4887,46.0,0,90,13.0,64.0
4888,62.0,0,180,11.0,64.0
4889,70.0,0,1410,2.0,64.0
4890,65.0,12,690,0.0,64.0
4891,34.0,96,90,14.0,64.0
4892,58.0,0,1410,2.0,64.0
4893,58.0,0,90,12.0,64.0
4894,46.0,120,90,13.0,64.0
4895,34.0,0,90,14.0,64.0
4896,34.0,0,90,14.0,64.0
4897,58.0,102,90,12.0,64.0
4898,46.0,0,90,13.0,64.0
4899,58.0,102,90,12.0,64.0
4900,34.0,0,90,14.0,64.0
4901,77.0,18,90,10.0,64.0
4902,46.0,0,90,13.0,64.0
4903,74.0,0,90,11.0,64.0
4904,77.0,0,90,11.0,64.0
4905,46.0,0,90,13.0,64.0
4906,80.0,18,90,10.0,64.0
4907,34.0,102,90,14.0,64.0
4908,58.0,0,90,12.0,64.0
4909,46.0,24,90,13.0,64.0
4910,34.0,0,90,14.0,64.0
4911,58.0,0,90,12.0,64.0
4912,75.0,6,90,11.0,64.0
4913,79.0,0,90,10.0,64.0
4914,34.0,0,90,14.0,64.0
4915,74.0,0,90,11.0,64.0
4916,58.0,102,90,12.0,64.0
4917,74.0,78,15,0.0,64.0
4918,46.0,0,90,13.0,64.0
4919,77.0,18,90,10.0,64.0
4920,77.0,12,690,0.0,64.0
4921,58.0,0,90,12.0,64.0
4922,34.0,0,90,14.0,64.0
4923,75.0,18,90,10.0,64.0
4924,46.0,102,90,13.0,64.0
4925,72.0,0,90,11.0,64.0
4926,46.0,0,90,13.0,64.0
4927,70.0,0,90,11.0,64.0
4928,34.0,102,90,14.0,64.0
4929,58.0,0,90,12.0,64.0
4930,74.0,18,90,10.0,64.0
4931,58.0,0,90,12.0,64.0
4932,34.0,0,90,14.0,64.0
4933,68.0,18,90,11.0,64.0
4934,46.0,102,90,13.0,64.0
4935,72.0,0,90,10.0,64.0
4936,67.0,18,90,11.0,64.0
4937,70.0,0,90,10.0,64.0
4938,46.0,102,90,13.0,64.0
4939,58.0,0,90,12.0,64.0
4940,34.0,0,90,14.0,64.0
4941,46.0,0,90,13.0,64.0
4942,58.0,120,90,12.0,64.0
4943,65.0,6,90,11.0,64.0
4944,68.0,0,90,10.0,64.0
4945,34.0,0,90,14.0,64.0
4946,67.0,60,90,10.0,64.0
4947,79.0,72,1680,0.0,64.0
4948,77.0,0,1440,0.0,64.0
4949,47.0,120,180,13.0,64.0
4950,62.0,36,150,2.0,64.0
4951,65.0,0,150,2.0,64.0
4952,65.0,0,90,11.0,64.0
4953,35.0,0,180,14.0,64.0
4954,62.0,0,180,12.0,64.0
4955,47.0,0,180,1.0,64.0
4956,79.0,0,180,10.0,64.0
4957,77.0,84,180,11.0,64.0
4958,65.0,42,150,2.0,64.0
4959,62.0,0,150,2.0,64.0
4960,67.0,0,90,12.0,64.0
4961,59.0,114,90,1.0,64.0
4962,59.0,0,90,13.0,64.0
4963,47.0,0,90,14.0,64.0
4964,79.0,0,180,10.0,64.0
4965,77.0,6,180,11.0,64.0
4966,62.0,78,90,1.0,64.0
4967,62.0,0,90,13.0,64.0
4968,65.0,42,150,2.0,64.0
4969,62.0,0,150,2.0,64.0
4970,71.0,0,90,12.0,64.0
4971,50.0,0,90,14.0,64.0
4972,48.0,0,90,14.0,64.0
4973,72.0,0,90,12.0,64.0
4974,79.0,0,210,10.0,64.0
4975,60.0,120,90,1.0,64.0
4976,77.0,60,210,11.0,64.0
4977,60.0,0,90,13.0,64.0
4978,62.0,42,150,2.0,64.0
4979,47.0,0,90,14.0,64.0
4980,59.0,0,90,1.0,64.0
4981,65.0,0,150,2.0,64.0
4982,74.0,0,90,12.0,64.0
4983,59.0,18,90,13.0,64.0
4984,56.0,114,90,1.0,64.0
4985,77.0,6,180,11.0,64.0
4986,44.0,0,90,14.0,64.0
4987,56.0,0,90,13.0,64.0
4988,72.0,0,90,12.0,64.0
4989,79.0,0,180,10.0,64.0
4990,55.0,0,90,13.0,64.0
4991,71.0,120,90,12.0,64.0
4992,43.0,0,90,14.0,64.0
4993,55.0,0,90,1.0,64.0
4994,53.0,0,90,1.0,64.0
4995,41.0,0,90,14.0,64.0
4996,79.0,6,180,10.0,64.0
4997,68.0,0,90,12.0,64.0
4998,77.0,0,180,11.0,64.0
4999,53.0,114,90,13.0,64.0
5000,51.0,120,90,1.0,64.0
5001,39.0,0,90,14.0,64.0
5002,51.0,0,90,13.0,64.0
5003,67.0,0,90,12.0,64.0
5004,50.0,0,90,1.0,64.0
5005,50.0,42,90,13.0,64.0
5006,77.0,96,120,11.0,64.0
5007,79.0,60,210,10.0,64.0
5008,38.0,0,90,14.0,64.0
5009,71.0,0,90,12.0,64.0
5010,36.0,48,180,14.0,64.0
5011,75.0,0,1410,0.0,64.0
5012,75.0,0,90,11.0,64.0
5013,48.0,0,180,1.0,64.0
5014,72.0,0,180,12.0,64.0
5015,48.0,0,180,13.0,64.0
5016,72.0,36,150,2.0,64.0
5017,75.0,0,180,11.0,64.0
5018,84.0,84,180,10.0,64.0
5019,72.0,36,1170,0.0,64.0
5020,72.0,42,150,2.0,64.0
5021,75.0,0,180,11.0,64.0
5022,51.0,0,90,14.0,64.0
5023,63.0,114,90,1.0,64.0
5024,84.0,6,180,10.0,64.0
5025,67.0,0,90,12.0,64.0
5026,63.0,0,90,13.0,64.0
5027,67.0,0,90,1.0,64.0
5028,55.0,0,90,14.0,64.0
5029,67.0,78,90,13.0,64.0
5030,63.0,0,90,12.0,64.0
5031,72.0,42,150,2.0,64.0
5032,84.0,60,210,10.0,64.0
5033,65.0,0,90,1.0,64.0
5034,75.0,0,210,11.0,64.0
5035,53.0,0,90,14.0,64.0
5036,65.0,0,90,13.0,64.0
5037,65.0,120,90,12.0,64.0
5038,67.0,0,90,12.0,64.0
5039,63.0,18,90,13.0,64.0
5040,51.0,0,90,14.0,64.0
5041,72.0,42,150,2.0,64.0
5042,63.0,0,90,1.0,64.0
5043,50.0,0,90,14.0,64.0
5044,62.0,0,90,1.0,64.0
5045,75.0,0,180,11.0,64.0
5046,84.0,6,180,10.0,64.0
5047,65.0,114,90,12.0,64.0
5048,62.0,0,90,13.0,64.0
5049,63.0,0,90,12.0,64.0
5050,60.0,0,90,13.0,64.0
5051,60.0,120,90,1.0,64.0
5052,48.0,0,90,14.0,64.0
5053,46.0,0,90,14.0,64.0
5054,58.0,0,90,13.0,64.0
5055,75.0,0,180,11.0,64.0
5056,58.0,0,90,1.0,64.0
5057,62.0,114,90,12.0,64.0
5058,84.0,6,180,10.0,64.0
5059,57.0,0,90,13.0,64.0
5060,60.0,0,90,12.0,64.0
5061,45.0,120,90,14.0,64.0
5062,57.0,0,90,1.0,64.0
5063,55.0,0,90,13.0,64.0
5064,43.0,0,90,14.0,64.0
5065,75.0,96,120,11.0,64.0
5066,58.0,0,90,12.0,64.0
5067,84.0,60,210,10.0,64.0
5068,55.0,6,90,1.0,64.0
5069,74.0,0,90,11.0,64.0
5070,57.0,48,180,12.0,64.0
5071,42.0,0,180,14.0,64.0
5072,74.0,0,240,0.0,64.0
5073,69.0,72,240,0.0,64.0
5074,54.0,0,180,1.0,64.0
5075,74.0,36,150,2.0,64.0
5076,62.0,0,150,2.0,64.0
5077,54.0,0,180,13.0,64.0
5078,74.0,0,180,10.0,64.0
5079,72.0,6,180,11.0,64.0
5080,81.0,72,960,0.0,64.0
5081,74.0,0,90,2.0,64.0
5082,62.0,120,90,2.0,64.0
5083,84.0,24,1170,0.0,64.0
5084,74.0,6,180,10.0,64.0
5085,54.0,0,90,13.0,64.0
5086,74.0,0,90,2.0,64.0
5087,54.0,0,90,1.0,64.0
5088,72.0,0,180,11.0,64.0
5089,62.0,0,90,2.0,64.0
5090,69.0,0,90,12.0,64.0
5091,42.0,114,90,14.0,64.0
5092,45.0,0,90,14.0,64.0
5093,57.0,120,90,13.0,64.0
5094,57.0,0,90,1.0,64.0
5095,74.0,0,90,2.0,64.0
5096,66.0,0,90,12.0,64.0
5097,62.0,0,90,2.0,64.0
5098,55.0,120,90,1.0,64.0
5099,72.0,60,210,11.0,64.0
5100,55.0,0,90,13.0,64.0
5101,43.0,0,90,14.0,64.0
5102,67.0,0,90,12.0,64.0
5103,74.0,0,90,2.0,64.0
5104,62.0,0,90,2.0,64.0
5105,74.0,0,210,10.0,64.0
5106,54.0,0,90,1.0,64.0
5107,74.0,42,150,2.0,64.0
5108,62.0,0,150,2.0,64.0
5109,54.0,0,90,13.0,64.0
5110,69.0,18,90,12.0,64.0
5111,42.0,0,90,14.0,64.0
5112,51.0,0,90,13.0,64.0
5113,67.0,114,90,12.0,64.0
5114,39.0,0,90,14.0,64.0
5115,74.0,6,180,10.0,64.0
5116,51.0,0,90,1.0,64.0
5117,72.0,0,180,11.0,64.0
5118,66.0,120,90,12.0,64.0
5119,50.0,0,90,1.0,64.0
5120,38.0,0,90,14.0,64.0
5121,50.0,0,90,13.0,64.0
5122,74.0,0,180,10.0,64.0
5123,48.0,42,90,13.0,64.0
5124,63.0,0,90,12.0,64.0
5125,48.0,0,90,1.0,64.0
5126,36.0,0,90,14.0,64.0
5127,72.0,6,180,11.0,64.0
5128,34.0,42,90,14.0,64.0
5129,79.0,78,120,0.0,64.0
5130,46.0,0,90,1.0,64.0
5131,62.0,0,90,12.0,64.0
5132,46.0,0,90,13.0,64.0
5133,45.0,0,90,1.0,64.0
5134,33.0,0,90,14.0,64.0
5135,78.0,0,90,0.0,64.0
5136,72.0,96,120,11.0,64.0
5137,74.0,60,210,10.0,64.0
5138,66.0,0,90,12.0,64.0
5139,45.0,18,90,13.0,64.0
5140,43.0,120,180,1.0,64.0
5141,43.0,0,180,13.0,64.0
5142,79.0,0,900,0.0,64.0
5143,62.0,36,150,2.0,64.0
5144,70.0,0,150,2.0,64.0
5145,31.0,0,180,14.0,64.0
5146,67.0,0,180,12.0,64.0
5147,70.0,0,90,11.0,64.0
5148,82.0,0,900,0.0,64.0
5149,82.0,6,180,10.0,64.0
5150,74.0,0,180,11.0,64.0
5151,62.0,0,90,2.0,64.0
5152,70.0,120,90,2.0,64.0
5153,70.0,0,90,2.0,64.0
5154,82.0,6,180,10.0,64.0
5155,46.0,0,90,14.0,64.0
5156,67.0,114,90,12.0,64.0
5157,62.0,0,90,2.0,64.0
5158,58.0,0,90,1.0,64.0
5159,74.0,0,180,11.0,64.0
5160,58.0,0,90,13.0,64.0
5161,62.0,120,90,13.0,64.0
5162,70.0,0,90,2.0,64.0
5163,62.0,0,90,2.0,64.0
5164,62.0,0,90,1.0,64.0
5165,50.0,0,90,14.0,64.0
5166,70.0,0,90,12.0,64.0
5167,70.0,0,90,2.0,64.0
5168,72.0,120,90,12.0,64.0
5169,82.0,96,210,10.0,64.0
5170,74.0,0,210,11.0,64.0
5171,62.0,0,90,2.0,64.0
5172,60.0,0,90,1.0,64.0
5173,48.0,0,90,14.0,64.0
5174,60.0,0,90,13.0,64.0
5175,58.0,0,90,1.0,64.0
5176,74.0,0,90,12.0,64.0
5177,58.0,0,90,13.0,64.0
5178,46.0,18,90,14.0,64.0
5179,70.0,6,180,2.0,64.0
5180,62.0,0,180,2.0,64.0
5181,57.0,0,90,13.0,64.0
5182,57.0,0,90,1.0,64.0
5183,45.0,0,90,14.0,64.0
5184,72.0,114,90,12.0,64.0
5185,74.0,6,180,11.0,64.0
5186,82.0,0,180,10.0,64.0
5187,43.0,120,90,14.0,64.0
5188,67.0,72,240,0.0,64.0
5189,55.0,0,90,13.0,64.0
5190,70.0,0,90,12.0,64.0
5191,55.0,0,90,1.0,64.0
5192,82.0,0,180,10.0,64.0
5193,53.0,0,90,13.0,64.0
5194,74.0,6,180,11.0,64.0
5195,53.0,0,90,1.0,64.0
5196,41.0,0,90,14.0,64.0
5197,69.0,42,90,12.0,64.0
5198,70.0,0,15,0.0,64.0
5199,51.0,0,90,13.0,64.0
5200,74.0,0,180,0.0,64.0
5201,67.0,114,90,12.0,64.0
5202,51.0,0,90,1.0,64.0
5203,39.0,0,90,14.0,64.0
5204,38.0,18,90,14.0,64.0
5205,50.0,0,90,1.0,64.0
5206,50.0,0,90,13.0,64.0
5207,65.0,0,90,12.0,64.0
5208,82.0,0,90,10.0,64.0
5209,74.0,54,90,11.0,64.0
5210,84.0,30,30,10.0,64.0
5211,51.0,24,300,13.0,64.0
5212,67.0,0,300,12.0,64.0
5213,51.0,0,300,1.0,64.0
5214,70.0,0,690,2.0,64.0
5215,39.0,0,300,14.0,64.0
5216,72.0,0,690,0.0,64.0
5217,72.0,0,300,11.0,64.0
5218,67.0,66,690,0.0,64.0
5219,58.0,0,690,2.0,64.0
5220,82.0,30,30,10.0,64.0
5221,84.0,30,30,10.0,64.0
5222,82.0,60,30,10.0,64.0
5223,81.0,60,60,10.0,64.0
5224,82.0,48,60,10.0,64.0
5225,82.0,120,60,10.0,64.0
5226,82.0,6,60,10.0,64.0
5227,67.0,0,90,12.0,64.0
5228,60.0,0,90,13.0,64.0
5229,60.0,114,90,1.0,64.0
5230,72.0,0,90,11.0,64.0
5231,48.0,0,90,14.0,64.0
5232,55.0,114,90,1.0,64.0
5233,82.0,6,60,10.0,64.0
5234,55.0,0,90,13.0,64.0
5235,67.0,0,90,12.0,64.0
5236,72.0,0,90,11.0,64.0
5237,43.0,0,90,14.0,64.0
5238,67.0,0,90,12.0,64.0
5239,72.0,0,90,11.0,64.0
5240,51.0,0,90,13.0,64.0
5241,51.0,6,90,1.0,64.0
5242,82.0,6,60,10.0,64.0
5243,39.0,0,90,14.0,64.0
5244,68.0,0,690,0.0,64.0
5245,53.0,0,300,13.0,64.0
5246,70.0,0,690,2.0,64.0
5247,58.0,0,690,2.0,64.0
5248,74.0,66,690,0.0,64.0
5249,53.0,0,300,1.0,64.0
5250,84.0,30,30,10.0,64.0
5251,74.0,0,300,11.0,64.0
5252,41.0,0,300,14.0,64.0
5253,68.0,24,300,12.0,64.0
5254,82.0,30,30,10.0,64.0
5255,84.0,30,30,10.0,64.0
5256,82.0,60,30,10.0,64.0
5257,81.0,60,60,10.0,64.0
5258,82.0,48,60,10.0,64.0
5259,82.0,120,60,10.0,64.0
5260,62.0,0,90,1.0,64.0
5261,50.0,0,90,14.0,64.0
5262,82.0,6,60,10.0,64.0
5263,62.0,0,90,13.0,64.0
5264,74.0,0,90,11.0,64.0
5265,68.0,114,90,12.0,64.0
5266,74.0,0,90,11.0,64.0
5267,44.0,0,90,14.0,64.0
5268,82.0,6,60,10.0,64.0
5269,56.0,0,90,1.0,64.0
5270,56.0,114,90,13.0,64.0
5271,68.0,0,90,12.0,64.0
5272,53.0,0,90,13.0,64.0
5273,68.0,6,90,12.0,64.0
5274,41.0,0,90,14.0,64.0
5275,82.0,6,60,10.0,64.0
5276,53.0,0,90,1.0,64.0
5277,74.0,0,90,11.0,64.0
5278,55.0,0,300,13.0,64.0
5279,58.0,66,690,2.0,64.0
5280,55.0,0,300,1.0,64.0
5281,70.0,0,690,2.0,64.0
5282,67.0,0,300,12.0,64.0
5283,84.0,30,30,10.0,64.0
5284,70.0,0,690,0.0,64.0
5285,75.0,0,690,0.0,64.0
5286,43.0,24,300,14.0,64.0
5287,75.0,0,300,11.0,64.0
5288,82.0,30,30,10.0,64.0
5289,84.0,30,30,10.0,64.0
5290,82.0,60,30,10.0,64.0
5291,81.0,60,60,10.0,64.0
5292,82.0,48,15,10.0,64.0
5293,67.0,114,90,12.0,64.0
5294,63.0,0,90,13.0,64.0
5295,82.0,6,60,10.0,64.0
5296,75.0,0,90,11.0,64.0
5297,51.0,0,90,14.0,64.0
5298,63.0,0,90,1.0,64.0
5299,46.0,0,90,14.0,64.0
5300,58.0,114,90,1.0,64.0
5301,75.0,0,90,11.0,64.0
5302,58.0,0,90,13.0,64.0
5303,82.0,6,60,10.0,64.0
5304,67.0,0,90,12.0,64.0
5305,55.0,0,90,1.0,64.0
5306,82.0,6,60,10.0,64.0
5307,75.0,0,90,11.0,64.0
5308,55.0,0,90,13.0,64.0
5309,67.0,6,90,12.0,64.0
5310,43.0,0,90,14.0,64.0
5311,65.0,0,300,12.0,64.0
5312,50.0,0,300,13.0,64.0
5313,80.0,0,690,0.0,64.0
5314,77.0,114,690,0.0,64.0
5315,50.0,0,300,1.0,64.0
5316,58.0,6,900,2.0,64.0
5317,84.0,30,30,10.0,64.0
5318,38.0,0,300,14.0,64.0
5319,80.0,24,300,11.0,64.0
5320,70.0,0,900,2.0,64.0
5321,82.0,30,30,10.0,64.0
5322,84.0,30,30,10.0,64.0
5323,82.0,60,30,10.0,64.0
5324,81.0,60,60,10.0,64.0
5325,82.0,48,15,10.0,64.0
5326,58.0,0,90,1.0,64.0
5327,46.0,0,90,14.0,64.0
5328,82.0,6,60,10.0,64.0
5329,80.0,0,90,11.0,64.0
5330,58.0,0,90,13.0,64.0
5331,65.0,114,90,12.0,64.0
5332,41.0,0,90,14.0,64.0
5333,80.0,114,90,11.0,64.0
5334,82.0,6,60,10.0,64.0
5335,53.0,0,90,1.0,64.0
5336,65.0,0,90,12.0,64.0
5337,53.0,0,90,13.0,64.0
5338,65.0,6,90,12.0,64.0
5339,82.0,6,60,10.0,64.0
5340,80.0,0,90,11.0,64.0
5341,38.0,0,90,14.0,64.0
5342,50.0,0,90,13.0,64.0
5343,50.0,0,90,1.0,64.0
5344,79.0,0,180,0.0,64.0
5345,79.0,0,90,11.0,64.0
5346,75.0,0,180,0.0,64.0
5347,63.0,0,180,12.0,64.0
5348,39.0,0,180,14.0,64.0
5349,51.0,0,180,1.0,64.0
5350,51.0,0,180,13.0,64.0
5351,82.0,114,90,10.0,64.0
5352,77.0,0,90,11.0,64.0
5353,81.0,120,90,10.0,64.0
5354,75.0,0,90,11.0,64.0
5355,79.0,120,90,10.0,64.0
5356,77.0,0,90,10.0,64.0
5357,74.0,120,90,11.0,64.0
5358,72.0,114,90,11.0,64.0
5359,75.0,0,90,10.0,64.0
5360,43.0,0,180,14.0,64.0
5361,67.0,0,180,12.0,64.0
5362,55.0,6,180,13.0,64.0
5363,55.0,0,180,1.0,64.0
5364,71.0,120,90,11.0,64.0
5365,74.0,0,90,10.0,64.0
5366,48.0,6,180,1.0,64.0
5367,67.0,0,180,12.0,64.0
5368,79.0,114,90,10.0,64.0
5369,48.0,0,180,13.0,64.0
5370,36.0,0,180,14.0,64.0
5371,75.0,0,90,11.0,64.0
5372,77.0,0,90,10.0,64.0
5373,74.0,120,90,11.0,64.0
5374,72.0,0,90,11.0,64.0
5375,75.0,120,90,10.0,64.0
5376,70.0,120,90,11.0,64.0
5377,74.0,0,90,10.0,64.0
5378,52.0,0,180,13.0,64.0
5379,40.0,0,180,14.0,64.0
5380,60.0,0,180,12.0,64.0
5381,69.0,0,90,11.0,64.0
5382,72.0,114,90,10.0,64.0
5383,60.0,6,180,1.0,64.0
5384,70.0,0,90,10.0,64.0
5385,67.0,102,90,11.0,64.0
5386,41.0,0,720,14.0,64.0
5387,65.0,60,60,10.0,64.0
5388,65.0,12,690,11.0,64.0
5389,65.0,0,900,2.0,64.0
5390,53.0,0,900,2.0,64.0
5391,65.0,0,360,0.0,64.0
5392,65.0,0,480,1.0,64.0
5393,60.0,48,180,12.0,64.0
5394,72.0,72,60,10.0,64.0
5395,67.0,0,120,0.0,64.0
5396,77.0,24,570,10.0,64.0
5397,64.0,120,120,1.0,64.0
5398,63.0,0,120,1.0,64.0
5399,69.0,120,120,0.0,64.0
5400,62.0,120,120,1.0,64.0
5401,70.0,0,120,0.0,64.0
5402,67.0,0,120,0.0,64.0
5403,63.0,0,120,1.0,64.0
5404,72.0,84,120,0.0,64.0
5405,60.0,0,120,1.0,64.0
5406,69.0,0,120,0.0,64.0
5407,58.0,0,120,1.0,64.0
5408,62.0,0,120,1.0,64.0
5409,74.0,0,120,0.0,64.0
5410,70.0,192,120,0.0,64.0
5411,60.0,0,180,1.0,64.0
5412,53.0,0,15,13.0,64.0
5413,41.0,0,1620,14.0,64.0
5414,75.0,0,180,0.0,64.0
5415,57.0,48,180,1.0,64.0
5416,72.0,0,180,0.0,64.0
5417,77.0,120,120,10.0,64.0
5418,79.0,120,120,10.0,64.0
5419,72.0,0,360,12.0,64.0
5420,75.0,0,360,11.0,64.0
5421,77.0,120,120,10.0,64.0
5422,81.0,60,120,10.0,64.0
5423,74.0,0,60,12.0,64.0
5424,77.0,48,60,11.0,64.0
5425,77.0,120,120,10.0,64.0
5426,72.0,12,40,12.0,64.0
5427,75.0,0,40,11.0,64.0
5428,70.0,0,480,12.0,64.0
5429,82.0,120,120,10.0,64.0
5430,74.0,0,240,11.0,64.0
5431,77.0,120,120,10.0,64.0
5432,76.0,120,120,10.0,64.0
5433,73.0,120,240,11.0,64.0
5434,77.0,0,120,10.0,64.0
5435,75.0,120,120,10.0,64.0
5436,69.0,120,240,12.0,64.0
5437,72.0,0,240,11.0,64.0
5438,77.0,0,120,10.0,64.0
5439,74.0,72,120,10.0,64.0
5440,70.0,120,240,12.0,64.0
5441,70.0,0,240,11.0,64.0
5442,77.0,0,120,10.0,64.0
5443,72.0,120,120,10.0,64.0
5444,69.0,0,240,11.0,64.0
5445,69.0,0,240,12.0,64.0
5446,77.0,120,120,10.0,64.0
5447,67.0,0,240,11.0,64.0
5448,70.0,96,120,10.0,64.0
5449,67.0,204,240,12.0,64.0
5450,77.0,12,90,10.0,64.0
5451,65.0,120,480,1.0,64.0
5452,65.0,36,690,11.0,64.0
5453,41.0,0,720,14.0,64.0
5454,60.0,48,180,12.0,64.0
5455,65.0,0,900,2.0,64.0
5456,53.0,0,900,2.0,64.0
5457,65.0,0,690,10.0,64.0
5458,65.0,120,360,0.0,64.0
5459,64.0,0,120,1.0,64.0
5460,67.0,120,120,0.0,64.0
5461,63.0,0,120,1.0,64.0
5462,69.0,0,120,0.0,64.0
5463,62.0,0,120,1.0,64.0
5464,70.0,0,120,0.0,64.0
5465,67.0,0,120,0.0,64.0
5466,63.0,0,120,1.0,64.0
5467,69.0,0,120,0.0,64.0
5468,60.0,84,120,1.0,64.0
5469,72.0,0,120,0.0,64.0
5470,74.0,0,120,0.0,64.0
5471,70.0,0,120,0.0,64.0
5472,62.0,0,120,1.0,64.0
5473,58.0,0,120,1.0,64.0
5474,60.0,48,180,1.0,64.0
5475,53.0,192,15,13.0,64.0
5476,72.0,0,180,0.0,64.0
5477,75.0,0,180,0.0,64.0
5478,41.0,48,1620,14.0,64.0
5479,57.0,0,180,1.0,64.0
5480,77.0,120,120,10.0,64.0
5481,75.0,0,360,11.0,64.0
5482,79.0,120,120,10.0,64.0
5483,72.0,0,360,12.0,64.0
5484,77.0,120,120,10.0,64.0
5485,81.0,60,120,10.0,64.0
5486,77.0,48,60,11.0,64.0
5487,74.0,0,60,12.0,64.0
5488,77.0,120,120,10.0,64.0
5489,75.0,12,40,11.0,64.0
5490,72.0,0,40,12.0,64.0
5491,74.0,0,240,11.0,64.0
5492,70.0,0,480,12.0,64.0
5493,82.0,120,120,10.0,64.0
5494,77.0,120,120,10.0,64.0
5495,73.0,0,240,11.0,64.0
5496,76.0,120,120,10.0,64.0
5497,77.0,120,120,10.0,64.0
5498,69.0,0,240,12.0,64.0
5499,72.0,120,240,11.0,64.0
5500,75.0,120,120,10.0,64.0
5501,77.0,0,120,10.0,64.0
5502,70.0,0,240,12.0,64.0
5503,74.0,72,120,10.0,64.0
5504,70.0,120,240,11.0,64.0
5505,77.0,0,120,10.0,64.0
5506,69.0,120,240,12.0,64.0
5507,69.0,0,240,11.0,64.0
5508,72.0,120,120,10.0,64.0
5509,77.0,0,120,10.0,64.0
5510,67.0,0,240,11.0,64.0
5511,70.0,96,120,10.0,64.0
5512,67.0,108,240,12.0,64.0
5513,77.0,12,90,10.0,64.0
5514,65.0,0,180,2.0,64.0
5515,72.0,0,180,2.0,64.0
5516,53.0,0,180,13.0,64.0
5517,69.0,96,90,10.0,64.0
5518,41.0,24,180,14.0,64.0
5519,65.0,0,180,12.0,64.0
5520,53.0,0,180,1.0,64.0
5521,77.0,0,180,0.0,64.0
5522,69.0,0,180,0.0,64.0
5523,65.0,0,180,11.0,64.0
5524,72.0,120,90,10.0,64.0
5525,69.0,120,90,10.0,64.0
5526,72.0,120,90,10.0,64.0
5527,77.0,120,90,10.0,64.0
5528,81.0,120,90,10.0,64.0
5529,65.0,0,180,12.0,64.0
5530,53.0,0,180,13.0,64.0
5531,53.0,24,180,1.0,64.0
5532,41.0,0,180,14.0,64.0
5533,77.0,0,180,0.0,64.0
5534,69.0,0,180,0.0,64.0
5535,72.0,0,180,2.0,64.0
5536,65.0,0,180,2.0,64.0
5537,77.0,96,90,10.0,64.0
5538,69.0,0,180,11.0,64.0
5539,77.0,0,180,11.0,64.0
5540,72.0,120,90,10.0,64.0
5541,69.0,120,90,10.0,64.0
5542,72.0,120,90,10.0,64.0
5543,77.0,120,90,10.0,64.0
5544,81.0,120,90,10.0,64.0
5545,72.0,0,150,2.0,64.0
5546,53.0,0,150,1.0,64.0
5547,77.0,60,90,10.0,64.0
5548,77.0,0,150,0.0,64.0
5549,69.0,0,150,0.0,64.0
5550,69.0,0,150,11.0,64.0
5551,77.0,0,150,11.0,64.0
5552,53.0,0,150,13.0,64.0
5553,41.0,0,150,14.0,64.0
5554,65.0,60,150,2.0,64.0
5555,65.0,0,150,12.0,64.0
5556,72.0,120,90,10.0,64.0
5557,72.0,0,150,2.0,64.0
5558,69.0,60,90,10.0,64.0
5559,77.0,0,150,11.0,64.0
5560,69.0,0,150,11.0,64.0
5561,65.0,0,150,2.0,64.0
5562,53.0,0,150,1.0,64.0
5563,69.0,0,150,0.0,64.0
5564,77.0,0,150,0.0,64.0
5565,53.0,0,150,13.0,64.0
5566,41.0,60,150,14.0,64.0
5567,65.0,0,150,12.0,64.0
5568,72.0,120,90,10.0,64.0
5569,77.0,0,150,0.0,64.0
5570,69.0,0,150,11.0,64.0
5571,77.0,0,150,11.0,64.0
5572,69.0,0,150,0.0,64.0
5573,53.0,0,150,1.0,64.0
5574,53.0,0,150,13.0,64.0
5575,65.0,0,150,12.0,64.0
5576,77.0,60,90,10.0,64.0
5577,65.0,0,150,2.0,64.0
5578,72.0,60,150,2.0,64.0
5579,41.0,0,150,14.0,64.0
5580,81.0,216,90,10.0,64.0
5581,53.0,0,180,13.0,64.0
5582,53.0,0,180,1.0,64.0
5583,77.0,1008,180,0.0,64.0
5584,72.0,0,180,2.0,64.0
5585,65.0,0,180,2.0,64.0
5586,69.0,0,180,0.0,64.0
5587,72.0,0,180,10.0,64.0
5588,77.0,0,180,10.0,64.0
5589,77.0,0,180,11.0,64.0
5590,69.0,0,180,11.0,64.0
5591,41.0,0,180,14.0,64.0
5592,65.0,0,180,12.0,64.0
5593,65.0,0,180,10.0,64.0
5594,77.0,0,480,10.0,64.0
5595,65.0,240,480,12.0,64.0
5596,73.0,0,240,10.0,64.0
5597,61.0,240,240,12.0,64.0
5598,62.0,240,240,12.0,64.0
5599,74.0,0,240,10.0,64.0
5600,69.0,228,240,10.0,64.0
5601,57.0,0,240,12.0,64.0
5602,58.0,0,240,12.0,64.0
5603,70.0,132,240,10.0,64.0
5604,41.0,0,1620,13.0,64.0
5605,29.0,0,1620,14.0,64.0
5606,77.0,0,120,0.0,64.0
5607,74.0,120,120,0.0,64.0
5608,65.0,0,1410,10.0,64.0
5609,58.0,0,1410,11.0,64.0
5610,62.0,0,1410,11.0,64.0
5611,53.0,36,1410,12.0,64.0
5612,76.0,120,120,0.0,64.0
5613,73.0,0,120,0.0,64.0
5614,74.0,120,120,0.0,64.0
5615,77.0,0,120,0.0,64.0
5616,73.0,0,120,0.0,64.0
5617,76.0,120,120,0.0,64.0
5618,77.0,120,120,0.0,64.0
5619,74.0,0,120,0.0,64.0
5620,73.0,0,120,0.0,64.0
5621,76.0,96,120,0.0,64.0
5622,65.0,0,120,1.0,64.0
5623,74.0,24,90,0.0,64.0
5624,77.0,0,90,0.0,64.0
5625,62.0,120,120,1.0,64.0
5626,61.0,78,120,1.0,64.0
5627,64.0,0,120,1.0,64.0
5628,74.0,0,90,0.0,64.0
5629,70.0,42,90,0.0,64.0
5630,65.0,0,120,1.0,64.0
5631,62.0,120,120,1.0,64.0
5632,64.0,0,120,1.0,64.0
5633,61.0,78,120,1.0,64.0
5634,65.0,0,120,1.0,64.0
5635,74.0,42,90,0.0,64.0
5636,77.0,0,90,0.0,64.0
5637,58.0,192,120,1.0,64.0
5638,62.0,84,15,1.0,64.0
5639,60.0,0,180,1.0,64.0
5640,60.0,0,180,12.0,64.0
5641,63.0,0,180,1.0,64.0
5642,87.0,240,480,10.0,64.0
5643,75.0,0,480,11.0,64.0
5644,75.0,0,180,0.0,64.0
5645,72.0,288,180,0.0,64.0
5646,57.0,0,180,12.0,64.0
5647,71.0,240,240,11.0,64.0
5648,83.0,0,240,10.0,64.0
5649,72.0,0,240,11.0,64.0
5650,84.0,240,240,10.0,64.0
5651,68.0,228,240,11.0,64.0
5652,80.0,0,240,10.0,64.0
5653,81.0,0,240,10.0,64.0
5654,69.0,108,240,11.0,64.0
5655,72.0,0,1440,12.0,64.0
5656,84.0,0,90,0.0,64.0
5657,69.0,0,1440,12.0,64.0
5658,75.0,0,1410,10.0,64.0
5659,63.0,36,1410,11.0,64.0
5660,41.0,0,1440,14.0,64.0
5661,81.0,120,90,0.0,64.0
5662,53.0,0,1440,13.0,64.0
5663,83.0,0,90,0.0,64.0
5664,80.0,120,90,0.0,64.0
5665,84.0,120,90,0.0,64.0
5666,81.0,0,90,0.0,64.0
5667,80.0,0,90,0.0,64.0
5668,83.0,120,90,0.0,64.0
5669,81.0,0,90,0.0,64.0
5670,84.0,120,90,0.0,64.0
5671,83.0,102,90,0.0,64.0
5672,80.0,0,90,0.0,64.0
5673,84.0,0,90,0.0,64.0
5674,81.0,42,90,0.0,64.0
5675,60.0,120,120,1.0,64.0
5676,63.0,0,120,1.0,64.0
5677,59.0,78,120,1.0,64.0
5678,62.0,0,120,1.0,64.0
5679,75.0,42,90,0.0,64.0
5680,81.0,0,90,0.0,64.0
5681,63.0,120,120,1.0,64.0
5682,60.0,0,120,1.0,64.0
5683,62.0,78,120,1.0,64.0
5684,59.0,0,120,1.0,64.0
5685,60.0,0,120,1.0,64.0
5686,63.0,84,120,1.0,64.0
5687,72.0,0,90,0.0,64.0
5688,75.0,42,90,0.0,64.0
5689,57.0,0,120,1.0,64.0
5690,60.0,72,120,1.0,64.0
5691,74.0,0,180,0.0,64.0
5692,46.0,0,180,13.0,64.0
5693,70.0,120,180,12.0,64.0
5694,34.0,0,180,14.0,64.0
5695,70.0,0,180,0.0,64.0
5696,74.0,114,90,10.0,64.0
5697,62.0,0,180,1.0,64.0
5698,58.0,0,180,1.0,64.0
5699,62.0,6,60,11.0,64.0
5700,70.0,0,60,11.0,64.0
5701,82.0,114,90,10.0,64.0
5702,74.0,6,60,11.0,64.0
5703,72.0,78,60,11.0,64.0
5704,74.0,18,60,11.0,64.0
5705,84.0,30,30,10.0,64.0
5706,82.0,12,30,10.0,64.0
5707,84.0,30,30,10.0,64.0
5708,82.0,60,30,10.0,64.0
5709,81.0,12,60,10.0,64.0
5710,70.0,48,60,11.0,64.0
5711,82.0,72,60,10.0,64.0
5712,75.0,6,60,11.0,64.0
5713,79.0,114,90,10.0,64.0
5714,46.0,0,180,13.0,64.0
5715,34.0,120,180,14.0,64.0
5716,70.0,0,60,11.0,64.0
5717,82.0,114,90,10.0,64.0
5718,79.0,6,60,11.0,64.0
5719,77.0,78,60,11.0,64.0
5720,79.0,18,60,11.0,64.0
5721,84.0,30,30,10.0,64.0
5722,82.0,12,30,10.0,64.0
5723,84.0,30,30,10.0,64.0
5724,82.0,60,30,10.0,64.0
5725,81.0,12,60,10.0,64.0
5726,75.0,48,60,11.0,64.0
5727,82.0,72,60,10.0,64.0
5728,74.0,6,60,11.0,64.0
5729,34.0,0,180,14.0,64.0
5730,77.0,114,90,10.0,64.0
5731,46.0,0,180,13.0,64.0
5732,70.0,120,60,11.0,64.0
5733,82.0,114,90,10.0,64.0
5734,77.0,6,60,11.0,64.0
5735,75.0,78,60,11.0,64.0
5736,84.0,30,30,10.0,64.0
5737,74.0,18,60,11.0,64.0
5738,82.0,12,30,10.0,64.0
5739,84.0,30,30,10.0,64.0
5740,82.0,60,30,10.0,64.0
5741,81.0,12,60,10.0,64.0
5742,70.0,48,60,11.0,64.0
5743,82.0,72,60,10.0,64.0
5744,75.0,6,60,11.0,64.0
5745,53.0,0,180,13.0,64.0
5746,41.0,120,180,14.0,64.0
5747,84.0,114,90,10.0,64.0
5748,74.0,0,60,11.0,64.0
5749,72.0,6,60,11.0,64.0
5750,81.0,114,90,10.0,64.0
5751,70.0,120,60,11.0,64.0
5752,77.0,114,90,10.0,64.0
5753,69.0,6,60,11.0,64.0
5754,65.0,120,60,11.0,64.0
5755,70.0,120,60,11.0,64.0
5756,74.0,0,720,0.0,64.0
5757,77.0,0,720,0.0,64.0
5758,58.0,48,180,13.0,64.0
5759,58.0,0,2130,2.0,64.0
5760,46.0,0,180,14.0,64.0
5761,70.0,36,2130,2.0,64.0
5762,70.0,0,180,12.0,64.0
5763,58.0,0,180,1.0,64.0
5764,86.0,72,240,10.0,64.0
5765,65.0,0,60,11.0,64.0
5766,62.0,72,60,11.0,64.0
5767,82.0,48,150,10.0,64.0
5768,60.0,78,60,11.0,64.0
5769,84.0,30,30,10.0,64.0
5770,62.0,18,60,11.0,64.0
5771,82.0,12,30,10.0,64.0
5772,84.0,30,30,10.0,64.0
5773,82.0,60,30,10.0,64.0
5774,81.0,12,60,10.0,64.0
5775,58.0,48,60,11.0,64.0
5776,82.0,72,60,10.0,64.0
5777,75.0,72,720,0.0,64.0
5778,58.0,0,180,13.0,64.0
5779,58.0,0,180,1.0,64.0
5780,46.0,0,180,14.0,64.0
5781,63.0,6,60,11.0,64.0
5782,70.0,120,180,12.0,64.0
5783,79.0,0,720,0.0,64.0
5784,79.0,114,90,10.0,64.0
5785,58.0,0,60,11.0,64.0
5786,67.0,6,60,11.0,64.0
5787,82.0,114,90,10.0,64.0
5788,65.0,78,60,11.0,64.0
5789,84.0,30,30,10.0,64.0
5790,67.0,18,60,11.0,64.0
5791,82.0,12,30,10.0,64.0
5792,84.0,30,30,10.0,64.0
5793,82.0,60,30,10.0,64.0
5794,81.0,12,60,10.0,64.0
5795,63.0,48,60,11.0,64.0
5796,82.0,0,60,10.0,64.0
5797,77.0,114,90,10.0,64.0
5798,74.0,0,720,0.0,64.0
5799,77.0,0,720,0.0,64.0
5800,70.0,0,180,12.0,64.0
5801,46.0,0,180,14.0,64.0
5802,58.0,0,180,1.0,64.0
5803,62.0,6,60,11.0,64.0
5804,58.0,0,180,13.0,64.0
5805,58.0,120,60,11.0,64.0
5806,82.0,114,90,10.0,64.0
5807,65.0,6,60,11.0,64.0
5808,63.0,78,60,11.0,64.0
5809,62.0,18,60,11.0,64.0
5810,84.0,30,30,10.0,64.0
5811,82.0,12,30,10.0,64.0
5812,84.0,30,30,10.0,64.0
5813,82.0,60,30,10.0,64.0
5814,81.0,12,60,10.0,64.0
5815,58.0,12,60,11.0,64.0
5816,82.0,72,60,10.0,64.0
5817,65.0,0,180,12.0,64.0
5818,63.0,6,60,11.0,64.0
5819,84.0,114,90,10.0,64.0
5820,72.0,0,690,2.0,64.0
5821,69.0,72,720,0.0,64.0
5822,75.0,0,720,0.0,64.0
5823,41.0,0,180,14.0,64.0
5824,53.0,0,180,1.0,64.0
5825,65.0,36,690,2.0,64.0
5826,53.0,0,180,13.0,64.0
5827,62.0,120,60,11.0,64.0
5828,81.0,114,90,10.0,64.0
5829,60.0,6,60,11.0,64.0
5830,58.0,120,60,11.0,64.0
5831,57.0,6,60,11.0,64.0
5832,77.0,114,90,10.0,64.0
5833,60.0,12,60,11.0,64.0
5834,46.0,0,180,13.0,64.0
5835,58.0,120,60,11.0,64.0
5836,86.0,72,240,10.0,64.0
5837,70.0,0,180,0.0,64.0
5838,74.0,0,180,0.0,64.0
5839,46.0,0,180,1.0,64.0
5840,58.0,0,180,12.0,64.0
5841,34.0,48,180,14.0,64.0
5842,65.0,0,180,2.0,64.0
5843,70.0,0,180,2.0,64.0
5844,57.0,0,60,11.0,64.0
5845,82.0,120,180,10.0,64.0
5846,58.0,120,60,11.0,64.0
5847,60.0,0,60,11.0,64.0
5848,62.0,120,60,11.0,64.0
5849,58.0,24,60,11.0,64.0
5850,74.0,144,90,10.0,64.0
5851,55.0,120,120,11.0,64.0
5852,51.0,0,480,13.0,64.0
5853,39.0,72,480,14.0,64.0
5854,72.0,120,240,10.0,64.0
5855,60.0,0,120,11.0,64.0
5856,63.0,96,120,11.0,64.0
5857,75.0,0,240,10.0,64.0
5858,67.0,24,90,11.0,64.0
5859,68.0,120,60,11.0,64.0
5860,53.0,120,240,13.0,64.0
5861,41.0,0,240,14.0,64.0
5862,71.0,48,180,10.0,64.0
5863,68.0,0,60,11.0,64.0
5864,72.0,0,480,0.0,64.0
5865,67.0,120,120,11.0,64.0
5866,39.0,0,480,14.0,64.0
5867,51.0,72,480,13.0,64.0
5868,72.0,0,240,10.0,64.0
5869,79.0,0,480,0.0,64.0
5870,63.0,120,120,11.0,64.0
5871,79.0,24,180,10.0,64.0
5872,60.0,72,120,11.0,64.0
5873,55.0,24,90,11.0,64.0
5874,41.0,0,240,14.0,64.0
5875,56.0,120,60,11.0,64.0
5876,80.0,0,240,0.0,64.0
5877,53.0,120,240,13.0,64.0
5878,71.0,0,240,0.0,64.0
5879,56.0,24,60,11.0,64.0
5880,71.0,24,90,10.0,64.0
5881,72.0,0,240,10.0,64.0
5882,79.0,48,180,0.0,64.0
5883,39.0,0,480,14.0,64.0
5884,55.0,72,120,11.0,64.0
5885,51.0,72,480,13.0,64.0
5886,72.0,0,180,0.0,64.0
5887,60.0,120,120,11.0,64.0
5888,75.0,0,240,10.0,64.0
5889,63.0,96,120,11.0,64.0
5890,67.0,24,90,11.0,64.0
5891,41.0,0,240,14.0,64.0
5892,53.0,120,240,13.0,64.0
5893,68.0,120,60,11.0,64.0
5894,71.0,0,180,10.0,64.0
5895,68.0,48,60,11.0,64.0
5896,51.0,0,480,13.0,64.0
5897,72.0,0,480,0.0,64.0
5898,39.0,72,480,14.0,64.0
5899,79.0,0,480,0.0,64.0
5900,67.0,120,120,11.0,64.0
5901,72.0,0,240,10.0,64.0
5902,63.0,120,120,11.0,64.0
5903,79.0,24,180,10.0,64.0
5904,60.0,72,120,11.0,64.0
5905,55.0,24,90,11.0,64.0
5906,41.0,0,240,14.0,64.0
5907,56.0,120,60,11.0,64.0
5908,71.0,0,240,0.0,64.0
5909,80.0,0,240,0.0,64.0
5910,53.0,72,240,13.0,64.0
5911,56.0,24,60,11.0,64.0
5912,71.0,24,90,10.0,64.0
5913,51.0,72,2160,12.0,64.0
5914,72.0,72,720,10.0,64.0
5915,72.0,0,180,0.0,64.0
5916,79.0,0,180,0.0,64.0
5917,39.0,0,180,14.0,64.0
5918,55.0,120,60,11.0,64.0
5919,51.0,0,180,13.0,64.0
5920,51.0,0,2160,1.0,64.0
5921,60.0,120,60,11.0,64.0
5922,63.0,120,60,11.0,64.0
5923,67.0,120,60,11.0,64.0
5924,63.0,120,60,11.0,64.0
5925,60.0,48,60,11.0,64.0
5926,55.0,120,60,11.0,64.0
5927,75.0,72,720,10.0,64.0
5928,60.0,120,60,11.0,64.0
5929,63.0,120,60,11.0,64.0
5930,67.0,120,60,11.0,64.0
5931,63.0,120,60,11.0,64.0
5932,60.0,48,60,11.0,64.0
5933,55.0,120,60,11.0,64.0
5934,79.0,0,720,10.0,64.0
5935,60.0,120,60,11.0,64.0
5936,63.0,120,60,11.0,64.0
5937,67.0,120,60,11.0,64.0
5938,63.0,120,60,11.0,64.0
5939,60.0,48,60,11.0,64.0
5940,52.0,108,690,1.0,64.0
5941,70.0,0,690,10.0,64.0
5942,52.0,0,690,12.0,64.0
5943,55.0,120,60,11.0,64.0
5944,60.0,120,60,11.0,64.0
5945,64.0,120,60,11.0,64.0
5946,67.0,120,60,11.0,64.0
5947,64.0,120,60,11.0,64.0
5948,60.0,12,60,11.0,64.0
5949,41.0,0,720,14.0,64.0
5950,69.0,0,60,11.0,64.0
5951,53.0,96,90,12.0,64.0
5952,69.0,72,720,0.0,64.0
5953,53.0,0,720,13.0,64.0
5954,65.0,120,1620,2.0,64.0
5955,53.0,0,1620,2.0,64.0
5956,69.0,24,60,10.0,64.0
5957,53.0,0,720,1.0,64.0
5958,57.0,0,180,12.0,64.0
5959,77.0,0,60,11.0,64.0
5960,77.0,120,60,10.0,64.0
5961,60.0,0,180,12.0,64.0
5962,77.0,120,60,10.0,64.0
5963,77.0,0,60,11.0,64.0
5964,77.0,0,60,10.0,64.0
5965,77.0,78,60,11.0,64.0
5966,57.0,0,180,12.0,64.0
5967,60.0,18,180,12.0,64.0
5968,79.0,30,30,10.0,64.0
5969,79.0,0,30,11.0,64.0
5970,77.0,0,30,11.0,64.0
5971,77.0,12,30,10.0,64.0
5972,79.0,30,30,10.0,64.0
5973,79.0,0,30,11.0,64.0
5974,77.0,0,30,11.0,64.0
5975,77.0,60,30,10.0,64.0
5976,76.0,48,60,10.0,64.0
5977,76.0,0,60,11.0,64.0
5978,60.0,0,210,12.0,64.0
5979,57.0,96,210,12.0,64.0
5980,77.0,12,40,10.0,64.0
5981,77.0,0,40,11.0,64.0
5982,57.0,72,720,1.0,64.0
5983,72.0,0,60,10.0,64.0
5984,57.0,0,720,13.0,64.0
5985,72.0,24,60,11.0,64.0
5986,45.0,0,720,14.0,64.0
5987,72.0,0,720,0.0,64.0
5988,77.0,0,60,10.0,64.0
5989,60.0,0,180,12.0,64.0
5990,77.0,120,60,11.0,64.0
5991,57.0,120,180,12.0,64.0
5992,77.0,0,60,10.0,64.0
5993,77.0,0,60,11.0,64.0
5994,77.0,0,60,11.0,64.0
5995,77.0,78,60,10.0,64.0
5996,57.0,18,180,12.0,64.0
5997,60.0,0,180,12.0,64.0
5998,79.0,0,30,11.0,64.0
5999,79.0,30,30,10.0,64.0
6000,77.0,12,30,10.0,64.0
6001,77.0,0,30,11.0,64.0
6002,79.0,30,30,11.0,64.0
6003,79.0,0,30,10.0,64.0
6004,77.0,60,30,11.0,64.0
6005,77.0,0,30,10.0,64.0
6006,76.0,0,60,11.0,64.0
6007,57.0,96,210,12.0,64.0
6008,76.0,48,60,10.0,64.0
6009,60.0,0,210,12.0,64.0
6010,77.0,12,40,11.0,64.0
6011,77.0,0,40,10.0,64.0
6012,60.0,0,720,13.0,64.0
6013,69.0,0,720,0.0,64.0
6014,75.0,0,720,0.0,64.0
6015,81.0,24,60,11.0,64.0
6016,48.0,72,720,14.0,64.0
6017,81.0,0,60,10.0,64.0
6018,60.0,0,720,1.0,64.0
6019,77.0,0,60,10.0,64.0
6020,60.0,0,180,12.0,64.0
6021,69.0,0,180,12.0,64.0
6022,77.0,0,60,11.0,64.0
6023,77.0,0,60,11.0,64.0
6024,65.0,0,180,2.0,64.0
6025,53.0,0,180,2.0,64.0
6026,77.0,120,60,10.0,64.0
6027,69.0,0,180,12.0,64.0
6028,77.0,78,60,10.0,64.0
6029,77.0,0,60,11.0,64.0
6030,60.0,18,180,12.0,64.0
6031,79.0,30,30,11.0,64.0
6032,79.0,0,30,10.0,64.0
6033,53.0,36,180,2.0,64.0
6034,65.0,0,180,2.0,64.0
6035,77.0,0,30,11.0,64.0
6036,77.0,12,30,10.0,64.0
6037,79.0,30,30,10.0,64.0
6038,79.0,0,30,11.0,64.0
6039,77.0,0,30,10.0,64.0
6040,77.0,60,30,11.0,64.0
6041,76.0,12,60,11.0,64.0
6042,76.0,0,60,10.0,64.0
6043,60.0,0,210,12.0,64.0
6044,69.0,96,210,12.0,64.0
6045,77.0,0,40,11.0,64.0
6046,77.0,12,40,10.0,64.0
6047,84.0,0,60,10.0,64.0
6048,72.0,0,690,0.0,64.0
6049,51.0,0,690,1.0,64.0
6050,81.0,0,690,0.0,64.0
6051,51.0,24,690,13.0,64.0
6052,39.0,0,690,14.0,64.0
6053,65.0,0,180,2.0,64.0
6054,84.0,24,60,11.0,64.0
6055,53.0,0,180,2.0,64.0
6056,77.0,0,60,11.0,64.0
6057,69.0,0,180,12.0,64.0
6058,60.0,0,180,12.0,64.0
6059,77.0,120,60,10.0,64.0
6060,53.0,0,180,2.0,64.0
6061,77.0,0,60,11.0,64.0
6062,77.0,120,60,10.0,64.0
6063,65.0,0,180,2.0,64.0
6064,77.0,0,60,10.0,64.0
6065,69.0,18,180,12.0,64.0
6066,77.0,78,60,11.0,64.0
6067,60.0,0,180,12.0,64.0
6068,79.0,30,30,10.0,64.0
6069,53.0,12,180,2.0,64.0
6070,65.0,0,180,2.0,64.0
6071,79.0,0,30,11.0,64.0
6072,77.0,0,30,11.0,64.0
6073,77.0,12,30,10.0,64.0
6074,79.0,0,30,10.0,64.0
6075,79.0,30,30,11.0,64.0
6076,77.0,0,30,10.0,64.0
6077,77.0,60,30,11.0,64.0
6078,76.0,0,60,11.0,64.0
6079,60.0,0,120,12.0,64.0
6080,76.0,12,60,10.0,64.0
6081,69.0,64,120,12.0,64.0
6082,77.0,0,40,11.0,64.0
6083,77.0,12,40,10.0,64.0
6084,70.0,68,60,11.0,64.0
6085,82.0,0,180,0.0,64.0
6086,74.0,0,180,0.0,64.0
6087,82.0,0,60,11.0,64.0
6088,38.0,0,120,14.0,64.0
6089,82.0,0,180,10.0,64.0
6090,58.0,0,180,2.0,64.0
6091,50.0,12,120,13.0,64.0
6092,62.0,0,120,12.0,64.0
6093,70.0,0,120,12.0,64.0
6094,65.0,32,180,2.0,64.0
6095,50.0,0,120,1.0,64.0
6096,82.0,0,60,11.0,64.0
6097,70.0,48,60,11.0,64.0
6098,70.0,80,60,11.0,64.0
6099,82.0,0,60,11.0,64.0
6100,58.0,0,120,1.0,64.0
6101,58.0,0,120,13.0,64.0
6102,46.0,12,120,14.0,64.0
6103,82.0,0,60,11.0,64.0
6104,70.0,68,60,11.0,64.0
6105,70.0,0,120,12.0,64.0
6106,82.0,80,60,11.0,64.0
6107,70.0,0,60,11.0,64.0
6108,70.0,0,60,11.0,64.0
6109,82.0,76,60,11.0,64.0
6110,56.0,0,120,1.0,64.0
6111,68.0,0,120,12.0,64.0
6112,44.0,12,120,14.0,64.0
6113,56.0,0,120,13.0,64.0
6114,75.0,4,60,10.0,64.0
6115,58.0,0,180,2.0,64.0
6116,70.0,32,180,2.0,64.0
6117,75.0,0,60,0.0,64.0
6118,70.0,0,60,11.0,64.0
6119,82.0,56,60,11.0,64.0
6120,74.0,0,60,0.0,64.0
6121,74.0,12,60,10.0,64.0
6122,70.0,0,60,11.0,64.0
6123,82.0,36,60,11.0,64.0
6124,72.0,12,60,10.0,64.0
6125,72.0,0,60,0.0,64.0
6126,82.0,0,60,11.0,64.0
6127,70.0,4,60,11.0,64.0
6128,74.0,76,40,10.0,64.0
6129,74.0,0,40,0.0,64.0
6130,82.0,68,60,11.0,64.0
6131,70.0,32,180,2.0,64.0
6132,58.0,0,180,2.0,64.0
6133,75.0,0,150,10.0,64.0
6134,55.0,0,120,1.0,64.0
6135,43.0,0,120,14.0,64.0
6136,67.0,0,120,12.0,64.0
6137,70.0,0,60,11.0,64.0
6138,75.0,0,150,0.0,64.0
6139,55.0,12,120,13.0,64.0
6140,70.0,48,60,11.0,64.0
6141,82.0,0,60,11.0,64.0
6142,82.0,80,60,11.0,64.0
6143,70.0,0,60,11.0,64.0
6144,77.0,48,150,10.0,64.0
6145,82.0,0,60,11.0,64.0
6146,65.0,0,120,12.0,64.0
6147,70.0,0,180,2.0,64.0
6148,58.0,32,180,2.0,64.0
6149,70.0,68,60,11.0,64.0
6150,41.0,12,120,14.0,64.0
6151,77.0,0,150,0.0,64.0
6152,53.0,0,120,1.0,64.0
6153,53.0,0,120,13.0,64.0
6154,70.0,0,60,11.0,64.0
6155,82.0,0,60,11.0,64.0
6156,70.0,80,60,11.0,64.0
6157,82.0,0,60,11.0,64.0
6158,51.0,0,120,13.0,64.0
6159,70.0,0,180,2.0,64.0
6160,58.0,32,180,2.0,64.0
6161,39.0,0,120,14.0,64.0
6162,51.0,0,120,1.0,64.0
6163,82.0,0,60,11.0,64.0
6164,63.0,12,120,12.0,64.0
6165,79.0,0,150,10.0,64.0
6166,79.0,0,150,0.0,64.0
6167,70.0,68,60,11.0,64.0
6168,82.0,48,60,11.0,64.0
6169,70.0,0,60,11.0,64.0
6170,82.0,0,60,11.0,64.0
6171,70.0,80,60,11.0,64.0
6172,50.0,12,120,1.0,64.0
6173,77.0,48,150,10.0,64.0
6174,58.0,0,180,2.0,64.0
6175,50.0,0,120,13.0,64.0
6176,58.0,68,60,11.0,64.0
6177,70.0,32,180,2.0,64.0
6178,77.0,0,150,0.0,64.0
6179,38.0,0,120,14.0,64.0
6180,62.0,0,120,12.0,64.0
6181,58.0,0,60,11.0,64.0
6182,58.0,80,60,11.0,64.0
6183,58.0,0,120,1.0,64.0
6184,46.0,12,120,14.0,64.0
6185,58.0,0,120,13.0,64.0
6186,58.0,68,60,11.0,64.0
6187,58.0,0,120,12.0,64.0
6188,58.0,80,60,11.0,64.0
6189,58.0,76,60,11.0,64.0
6190,63.0,4,60,10.0,64.0
6191,56.0,0,120,13.0,64.0
6192,44.0,0,120,14.0,64.0
6193,56.0,12,120,12.0,64.0
6194,56.0,0,120,1.0,64.0
6195,58.0,56,60,11.0,64.0
6196,62.0,12,60,10.0,64.0
6197,58.0,36,60,11.0,64.0
6198,60.0,44,60,10.0,64.0
6199,58.0,4,60,11.0,64.0
6200,62.0,76,40,10.0,64.0
6201,43.0,0,120,14.0,64.0
6202,55.0,0,120,1.0,64.0
6203,55.0,12,120,12.0,64.0
6204,55.0,0,120,13.0,64.0
6205,63.0,0,150,10.0,64.0
6206,58.0,68,60,11.0,64.0
6207,58.0,80,60,11.0,64.0
6208,58.0,80,60,11.0,64.0
6209,58.0,68,60,11.0,64.0
6210,53.0,12,120,1.0,64.0
6211,65.0,0,150,10.0,64.0
6212,41.0,0,120,14.0,64.0
6213,53.0,0,120,12.0,64.0
6214,53.0,0,120,13.0,64.0
6215,58.0,80,60,11.0,64.0
6216,58.0,80,60,11.0,64.0
6217,67.0,0,150,10.0,64.0
6218,51.0,0,120,12.0,64.0
6219,39.0,0,120,14.0,64.0
6220,51.0,12,120,13.0,64.0
6221,58.0,68,60,11.0,64.0
6222,51.0,0,120,1.0,64.0
6223,58.0,80,60,11.0,64.0
6224,58.0,80,60,11.0,64.0
6225,50.0,36,150,12.0,64.0
6226,50.0,0,90,1.0,64.0
6227,65.0,12,150,10.0,64.0
6228,58.0,6,180,2.0,64.0
6229,70.0,0,390,0.0,64.0
6230,82.0,0,390,0.0,64.0
6231,50.0,0,90,13.0,64.0
6232,38.0,66,90,14.0,64.0
6233,82.0,0,60,11.0,64.0
6234,70.0,0,180,2.0,64.0
6235,70.0,14,60,11.0,64.0
6236,82.0,0,60,11.0,64.0
6237,70.0,0,60,11.0,64.0
6238,50.0,26,90,1.0,64.0
6239,50.0,0,90,13.0,64.0
6240,38.0,0,90,14.0,64.0
6241,70.0,80,60,11.0,64.0
6242,82.0,0,60,11.0,64.0
6243,58.0,0,90,1.0,64.0
6244,70.0,18,90,12.0,64.0
6245,82.0,0,60,11.0,64.0
6246,58.0,48,90,2.0,64.0
6247,70.0,0,90,2.0,64.0
6248,46.0,0,90,14.0,64.0
6249,58.0,0,90,13.0,64.0
6250,70.0,14,60,11.0,64.0
6251,82.0,54,60,11.0,64.0
6252,70.0,0,60,11.0,64.0
6253,58.0,18,90,13.0,64.0
6254,58.0,0,90,1.0,64.0
6255,70.0,0,90,12.0,64.0
6256,70.0,0,90,2.0,64.0
6257,58.0,8,90,2.0,64.0
6258,46.0,0,90,14.0,64.0
6259,70.0,76,60,11.0,64.0
6260,82.0,0,60,11.0,64.0
6261,70.0,0,60,11.0,64.0
6262,82.0,14,60,11.0,64.0
6263,75.0,4,60,0.0,64.0
6264,56.0,0,90,13.0,64.0
6265,58.0,0,90,2.0,64.0
6266,70.0,24,90,2.0,64.0
6267,56.0,0,90,1.0,64.0
6268,75.0,0,60,10.0,64.0
6269,44.0,18,90,14.0,64.0
6270,68.0,0,90,12.0,64.0
6271,74.0,24,60,0.0,64.0
6272,74.0,0,60,10.0,64.0
6273,82.0,36,60,11.0,64.0
6274,70.0,0,60,11.0,64.0
6275,70.0,8,90,2.0,64.0
6276,58.0,0,90,2.0,64.0
6277,72.0,0,60,10.0,64.0
6278,56.0,0,90,13.0,64.0
6279,56.0,18,90,1.0,64.0
6280,72.0,18,60,0.0,64.0
6281,68.0,0,90,12.0,64.0
6282,44.0,0,90,14.0,64.0
6283,82.0,0,60,11.0,64.0
6284,70.0,4,60,11.0,64.0
6285,74.0,0,40,0.0,64.0
6286,74.0,76,40,10.0,64.0
6287,70.0,0,60,11.0,64.0
6288,75.0,0,150,0.0,64.0
6289,82.0,14,60,11.0,64.0
6290,75.0,0,150,10.0,64.0
6291,67.0,66,90,12.0,64.0
6292,55.0,0,90,1.0,64.0
6293,70.0,0,180,2.0,64.0
6294,58.0,6,180,2.0,64.0
6295,43.0,0,90,14.0,64.0
6296,55.0,0,90,13.0,64.0
6297,82.0,0,60,11.0,64.0
6298,70.0,48,60,11.0,64.0
6299,55.0,0,90,13.0,64.0
6300,55.0,26,90,1.0,64.0
6301,67.0,0,90,12.0,64.0
6302,43.0,0,90,14.0,64.0
6303,70.0,0,60,11.0,64.0
6304,82.0,80,60,11.0,64.0
6305,65.0,0,90,12.0,64.0
6306,53.0,0,90,13.0,64.0
6307,70.0,0,180,2.0,64.0
6308,58.0,6,180,2.0,64.0
6309,82.0,0,60,11.0,64.0
6310,41.0,0,90,14.0,64.0
6311,77.0,48,150,10.0,64.0
6312,77.0,0,150,0.0,64.0
6313,70.0,14,60,11.0,64.0
6314,53.0,66,90,1.0,64.0
6315,70.0,0,60,11.0,64.0
6316,82.0,0,60,11.0,64.0
6317,65.0,0,90,12.0,64.0
6318,53.0,0,90,1.0,64.0
6319,53.0,0,90,13.0,64.0
6320,41.0,26,90,14.0,64.0
6321,70.0,80,60,11.0,64.0
6322,82.0,0,60,11.0,64.0
6323,79.0,0,150,10.0,64.0
6324,51.0,0,90,13.0,64.0
6325,51.0,0,90,1.0,64.0
6326,63.0,66,90,12.0,64.0
6327,70.0,0,60,11.0,64.0
6328,82.0,14,60,11.0,64.0
6329,79.0,0,150,0.0,64.0
6330,58.0,6,180,2.0,64.0
6331,70.0,0,180,2.0,64.0
6332,39.0,0,90,14.0,64.0
6333,70.0,0,60,11.0,64.0
6334,82.0,48,60,11.0,64.0
6335,63.0,0,90,12.0,64.0
6336,39.0,0,90,14.0,64.0
6337,51.0,0,90,1.0,64.0
6338,51.0,26,90,13.0,64.0
6339,70.0,304,60,11.0,64.0
6340,82.0,0,60,11.0,64.0
6341,65.0,0,300,12.0,64.0
6342,50.0,0,300,1.0,64.0
6343,58.0,0,1410,2.0,64.0
6344,50.0,0,300,13.0,64.0
6345,80.0,0,300,10.0,64.0
6346,70.0,168,300,11.0,64.0
6347,82.0,0,300,11.0,64.0
6348,80.0,0,690,0.0,64.0
6349,68.0,12,690,0.0,64.0
6350,38.0,0,300,14.0,64.0
6351,70.0,0,1410,2.0,64.0
6352,65.0,120,90,12.0,64.0
6353,50.0,0,90,13.0,64.0
6354,82.0,0,90,11.0,64.0
6355,70.0,0,90,11.0,64.0
6356,50.0,0,90,1.0,64.0
6357,80.0,0,90,10.0,64.0
6358,38.0,0,90,14.0,64.0
6359,38.0,0,90,14.0,64.0
6360,50.0,0,90,13.0,64.0
6361,50.0,108,90,1.0,64.0
6362,65.0,0,90,12.0,64.0
6363,80.0,0,90,10.0,64.0
6364,70.0,0,90,11.0,64.0
6365,82.0,0,90,11.0,64.0
6366,80.0,0,90,10.0,64.0
6367,65.0,312,90,12.0,64.0
6368,38.0,0,90,14.0,64.0
6369,50.0,0,90,1.0,64.0
6370,70.0,0,90,11.0,64.0
6371,82.0,0,90,11.0,64.0
6372,50.0,0,90,13.0,64.0
6373,62.0,0,300,13.0,64.0
6374,66.0,0,690,0.0,64.0
6375,78.0,12,690,0.0,64.0
6376,62.0,168,300,1.0,64.0
6377,70.0,0,300,11.0,64.0
6378,50.0,0,300,14.0,64.0
6379,62.0,0,300,12.0,64.0
6380,82.0,0,300,11.0,64.0
6381,78.0,0,300,10.0,64.0
6382,62.0,0,90,13.0,64.0
6383,62.0,0,90,1.0,64.0
6384,78.0,120,90,10.0,64.0
6385,70.0,0,90,11.0,64.0
6386,62.0,0,90,12.0,64.0
6387,50.0,0,90,14.0,64.0
6388,82.0,0,90,11.0,64.0
6389,50.0,0,90,14.0,64.0
6390,78.0,0,90,10.0,64.0
6391,62.0,0,90,13.0,64.0
6392,70.0,0,90,11.0,64.0
6393,82.0,108,90,11.0,64.0
6394,62.0,0,90,1.0,64.0
6395,62.0,0,90,12.0,64.0
6396,82.0,0,90,11.0,64.0
6397,62.0,0,90,13.0,64.0
6398,50.0,0,90,14.0,64.0
6399,70.0,0,90,11.0,64.0
6400,62.0,312,90,1.0,64.0
6401,78.0,0,90,10.0,64.0
6402,62.0,0,90,12.0,64.0
6403,70.0,12,1410,2.0,64.0
6404,70.0,0,300,11.0,64.0
6405,82.0,0,300,11.0,64.0
6406,67.0,0,690,0.0,64.0
6407,79.0,12,690,0.0,64.0
6408,79.0,168,300,10.0,64.0
6409,63.0,0,300,12.0,64.0
6410,63.0,0,300,13.0,64.0
6411,63.0,0,300,1.0,64.0
6412,58.0,0,1410,2.0,64.0
6413,51.0,0,300,14.0,64.0
6414,51.0,0,90,14.0,64.0
6415,82.0,0,90,11.0,64.0
6416,70.0,0,90,11.0,64.0
6417,63.0,0,90,13.0,64.0
6418,63.0,0,90,12.0,64.0
6419,63.0,120,90,1.0,64.0
6420,79.0,0,90,10.0,64.0
6421,70.0,0,90,11.0,64.0
6422,63.0,0,90,13.0,64.0
6423,63.0,108,90,12.0,64.0
6424,51.0,0,90,14.0,64.0
6425,82.0,0,90,11.0,64.0
6426,79.0,0,90,10.0,64.0
6427,63.0,0,90,1.0,64.0
6428,63.0,0,90,1.0,64.0
6429,82.0,0,90,11.0,64.0
6430,79.0,0,90,10.0,64.0
6431,51.0,0,90,14.0,64.0
6432,63.0,312,90,12.0,64.0
6433,63.0,0,90,13.0,64.0
6434,70.0,0,90,11.0,64.0
6435,60.0,0,690,0.0,64.0
6436,52.0,0,300,14.0,64.0
6437,70.0,0,300,11.0,64.0
6438,82.0,0,300,11.0,64.0
6439,64.0,168,300,1.0,64.0
6440,72.0,0,300,10.0,64.0
6441,64.0,0,300,13.0,64.0
6442,72.0,0,690,0.0,64.0
6443,67.0,0,300,12.0,64.0
6444,52.0,0,90,14.0,64.0
6445,70.0,0,90,11.0,64.0
6446,64.0,0,90,13.0,64.0
6447,64.0,0,90,1.0,64.0
6448,82.0,0,90,11.0,64.0
6449,67.0,120,90,12.0,64.0
6450,72.0,0,90,10.0,64.0
6451,64.0,0,90,13.0,64.0
6452,72.0,0,90,10.0,64.0
6453,67.0,0,90,12.0,64.0
6454,52.0,108,90,14.0,64.0
6455,82.0,0,90,11.0,64.0
6456,70.0,0,90,11.0,64.0
6457,64.0,0,90,1.0,64.0
6458,52.0,0,90,14.0,64.0
6459,64.0,0,90,1.0,64.0
6460,72.0,0,90,10.0,64.0
6461,67.0,0,90,12.0,64.0
6462,64.0,54,90,13.0,64.0
6463,82.0,0,90,11.0,64.0
6464,70.0,0,90,11.0,64.0
6465,53.0,0,90,14.0,64.0
6466,65.0,0,90,13.0,64.0
6467,65.0,0,90,12.0,64.0
6468,62.0,12,180,0.0,64.0
6469,70.0,0,30,11.0,64.0
6470,74.0,30,30,10.0,64.0
6471,74.0,0,180,0.0,64.0
6472,58.0,0,180,2.0,64.0
6473,65.0,96,90,1.0,64.0
6474,70.0,0,180,2.0,64.0
6475,72.0,0,30,11.0,64.0
6476,75.0,36,30,10.0,64.0
6477,74.0,0,150,11.0,64.0
6478,77.0,12,150,10.0,64.0
6479,65.0,120,90,1.0,64.0
6480,65.0,0,90,13.0,64.0
6481,53.0,0,90,14.0,64.0
6482,65.0,0,90,12.0,64.0
6483,65.0,0,90,12.0,64.0
6484,53.0,0,90,14.0,64.0
6485,65.0,102,90,13.0,64.0
6486,77.0,0,240,0.0,64.0
6487,65.0,0,90,1.0,64.0
6488,70.0,0,90,2.0,64.0
6489,74.0,0,90,2.0,64.0
6490,65.0,0,90,12.0,64.0
6491,65.0,24,90,1.0,64.0
6492,53.0,0,90,14.0,64.0
6493,74.0,0,90,2.0,64.0
6494,70.0,0,90,2.0,64.0
6495,70.0,18,90,10.0,64.0
6496,62.0,0,90,11.0,64.0
6497,65.0,0,90,13.0,64.0
6498,53.0,0,90,14.0,64.0
6499,70.0,0,90,10.0,64.0
6500,74.0,96,90,2.0,64.0
6501,65.0,0,90,12.0,64.0
6502,62.0,18,90,11.0,64.0
6503,65.0,0,90,1.0,64.0
6504,70.0,0,90,2.0,64.0
6505,70.0,6,180,0.0,64.0
6506,74.0,78,15,0.0,64.0
6507,65.0,0,90,13.0,64.0
6508,70.0,0,90,2.0,64.0
6509,53.0,0,90,14.0,64.0
6510,65.0,54,90,12.0,64.0
6511,74.0,0,90,2.0,64.0
6512,65.0,0,90,13.0,64.0
6513,65.0,0,90,1.0,64.0
6514,70.0,0,90,10.0,64.0
6515,62.0,18,90,11.0,64.0
6516,41.0,0,90,14.0,64.0
6517,72.0,0,240,0.0,64.0
6518,72.0,0,30,10.0,64.0
6519,72.0,0,180,2.0,64.0
6520,65.0,12,180,2.0,64.0
6521,75.0,96,240,0.0,64.0
6522,53.0,0,90,13.0,64.0
6523,65.0,0,90,12.0,64.0
6524,57.0,30,30,11.0,64.0
6525,53.0,96,90,1.0,64.0
6526,74.0,0,30,10.0,64.0
6527,58.0,36,30,11.0,64.0
6528,75.0,0,150,10.0,64.0
6529,60.0,12,150,11.0,64.0
6530,53.0,0,90,13.0,64.0
6531,65.0,0,90,12.0,64.0
6532,41.0,24,90,14.0,64.0
6533,53.0,0,90,1.0,64.0
6534,65.0,0,90,2.0,64.0
6535,72.0,0,90,2.0,64.0
6536,53.0,0,90,13.0,64.0
6537,69.0,0,240,0.0,64.0
6538,72.0,78,240,0.0,64.0
6539,41.0,0,90,14.0,64.0
6540,53.0,102,90,1.0,64.0
6541,65.0,0,90,12.0,64.0
6542,65.0,0,90,12.0,64.0
6543,41.0,24,90,14.0,64.0
6544,53.0,0,90,1.0,64.0
6545,53.0,0,90,13.0,64.0
6546,60.0,0,90,11.0,64.0
6547,63.0,0,90,11.0,64.0
6548,65.0,0,90,2.0,64.0
6549,72.0,0,90,2.0,64.0
6550,69.0,18,90,10.0,64.0
6551,65.0,102,90,12.0,64.0
6552,75.0,0,240,0.0,64.0
6553,81.0,144,240,0.0,64.0
6554,63.0,0,90,11.0,64.0
6555,53.0,0,90,13.0,64.0
6556,65.0,0,90,2.0,64.0
6557,72.0,0,90,2.0,64.0
6558,60.0,0,90,11.0,64.0
6559,53.0,0,90,1.0,64.0
6560,41.0,0,90,14.0,64.0
6561,69.0,18,90,10.0,64.0
6562,65.0,0,90,12.0,64.0
6563,41.0,24,90,14.0,64.0
6564,63.0,0,90,11.0,64.0
6565,60.0,18,90,11.0,64.0
6566,53.0,0,90,13.0,64.0
6567,69.0,0,90,10.0,64.0
6568,53.0,0,90,1.0,64.0
6569,65.0,0,90,2.0,64.0
6570,72.0,0,90,2.0,64.0
6571,58.0,0,180,1.0,64.0
6572,58.0,0,180,13.0,64.0
6573,70.0,0,180,2.0,64.0
6574,74.0,0,180,0.0,64.0
6575,82.0,0,180,0.0,64.0
6576,62.0,0,180,11.0,64.0
6577,70.0,48,150,10.0,64.0
6578,58.0,0,180,2.0,64.0
6579,46.0,144,180,14.0,64.0
6580,46.0,0,180,1.0,64.0
6581,65.0,0,180,12.0,64.0
6582,58.0,0,180,11.0,64.0
6583,70.0,120,90,10.0,64.0
6584,69.0,120,90,10.0,64.0
6585,50.0,0,240,1.0,64.0
6586,70.0,120,90,10.0,64.0
6587,53.0,0,240,12.0,64.0
6588,50.0,192,240,12.0,64.0
6589,58.0,0,420,11.0,64.0
6590,68.0,24,90,10.0,64.0
6591,51.0,0,180,1.0,64.0
6592,51.0,168,180,12.0,64.0
6593,67.0,0,180,10.0,64.0
6594,72.0,120,120,10.0,64.0
6595,71.0,120,120,10.0,64.0
6596,72.0,120,120,10.0,64.0
6597,52.0,0,240,1.0,64.0
6598,52.0,0,240,12.0,64.0
6599,55.0,0,240,12.0,64.0
6600,60.0,168,420,11.0,64.0
6601,70.0,192,120,10.0,64.0
6602,53.0,0,180,12.0,64.0
6603,53.0,0,180,1.0,64.0
6604,69.0,0,180,10.0,64.0
6605,74.0,120,120,10.0,64.0
6606,73.0,120,120,10.0,64.0
6607,57.0,0,240,12.0,64.0
6608,54.0,0,240,12.0,64.0
6609,74.0,120,120,10.0,64.0
6610,54.0,192,240,1.0,64.0
6611,62.0,0,420,11.0,64.0
6612,72.0,0,120,10.0,64.0
6613,70.0,0,180,10.0,64.0
6614,55.0,168,180,12.0,64.0
6615,55.0,0,180,1.0,64.0
6616,75.0,120,120,10.0,64.0
6617,74.0,120,120,10.0,64.0
6618,55.0,0,240,1.0,64.0
6619,58.0,0,240,12.0,64.0
6620,55.0,144,240,12.0,64.0
6621,75.0,120,120,10.0,64.0
6622,63.0,0,420,11.0,64.0
6623,74.0,0,120,10.0,64.0
6624,57.0,168,180,12.0,64.0
6625,72.0,0,180,10.0,64.0
6626,57.0,48,150,1.0,64.0
6627,53.0,60,360,1.0,64.0
6628,53.0,0,360,13.0,64.0
6629,77.0,120,120,10.0,64.0
6630,65.0,0,120,11.0,64.0
6631,64.0,0,120,11.0,64.0
6632,76.0,120,120,10.0,64.0
6633,65.0,0,120,11.0,64.0
6634,77.0,0,120,10.0,64.0
6635,75.0,0,120,10.0,64.0
6636,63.0,0,120,11.0,64.0
6637,55.0,60,60,13.0,64.0
6638,55.0,0,60,1.0,64.0
6639,57.0,72,60,1.0,64.0
6640,57.0,0,60,13.0,64.0
6641,62.0,60,60,11.0,64.0
6642,58.0,0,120,1.0,64.0
6643,65.0,72,240,12.0,64.0
6644,58.0,60,120,13.0,64.0
6645,74.0,0,120,10.0,64.0
6646,65.0,48,60,11.0,64.0
6647,63.0,72,240,12.0,64.0
6648,60.0,0,120,1.0,64.0
6649,72.0,0,120,10.0,64.0
6650,69.0,60,60,11.0,64.0
6651,60.0,60,120,13.0,64.0
6652,65.0,48,60,11.0,64.0
6653,62.0,0,120,1.0,64.0
6654,62.0,132,240,12.0,64.0
6655,70.0,60,60,11.0,64.0
6656,62.0,60,120,13.0,64.0
6657,70.0,0,120,10.0,64.0
6658,65.0,48,60,11.0,64.0
6659,63.0,0,120,13.0,64.0
6660,65.0,168,180,12.0,64.0
6661,69.0,0,120,10.0,64.0
6662,72.0,0,180,11.0,64.0
6663,63.0,60,120,1.0,64.0
6664,53.0,0,360,1.0,64.0
6665,77.0,0,120,10.0,64.0
6666,65.0,120,120,11.0,64.0
6667,53.0,0,360,13.0,64.0
6668,76.0,120,120,10.0,64.0
6669,64.0,0,120,11.0,64.0
6670,65.0,0,120,11.0,64.0
6671,77.0,60,120,10.0,64.0
6672,63.0,0,120,11.0,64.0
6673,55.0,0,60,13.0,64.0
6674,75.0,72,120,10.0,64.0
6675,55.0,60,60,1.0,64.0
6676,57.0,0,60,13.0,64.0
6677,57.0,0,60,1.0,64.0
6678,58.0,0,120,1.0,64.0
6679,65.0,72,240,12.0,64.0
6680,62.0,60,60,11.0,64.0
6681,74.0,60,120,10.0,64.0
6682,58.0,0,120,13.0,64.0
6683,65.0,48,60,11.0,64.0
6684,60.0,0,120,1.0,64.0
6685,60.0,60,120,13.0,64.0
6686,69.0,60,60,11.0,64.0
6687,63.0,72,240,12.0,64.0
6688,72.0,0,120,10.0,64.0
6689,65.0,48,60,11.0,64.0
6690,70.0,60,60,11.0,64.0
6691,62.0,132,240,12.0,64.0
6692,62.0,0,120,13.0,64.0
6693,70.0,60,120,10.0,64.0
6694,62.0,0,120,1.0,64.0
6695,65.0,48,60,11.0,64.0
6696,72.0,48,150,11.0,64.0
6697,63.0,12,120,1.0,64.0
6698,63.0,0,120,13.0,64.0
6699,65.0,168,180,12.0,64.0
6700,69.0,0,120,10.0,64.0
6701,65.0,0,120,11.0,64.0
6702,53.0,0,360,1.0,64.0
6703,53.0,0,360,13.0,64.0
6704,77.0,120,120,10.0,64.0
6705,64.0,120,120,11.0,64.0
6706,76.0,0,120,10.0,64.0
6707,77.0,60,120,10.0,64.0
6708,65.0,0,120,11.0,64.0
6709,55.0,0,60,1.0,64.0
6710,63.0,0,120,11.0,64.0
6711,75.0,120,120,10.0,64.0
6712,55.0,60,60,13.0,64.0
6713,57.0,0,60,1.0,64.0
6714,57.0,0,60,13.0,64.0
6715,58.0,48,180,1.0,64.0
6716,62.0,72,120,11.0,64.0
6717,58.0,0,180,13.0,64.0
6718,86.0,0,120,0.0,64.0
6719,82.0,0,120,0.0,64.0
6720,74.0,0,120,10.0,64.0
6721,70.0,0,120,12.0,64.0
6722,85.0,0,120,0.0,64.0
6723,73.0,0,120,10.0,64.0
6724,69.0,0,120,12.0,64.0
6725,81.0,120,120,0.0,64.0
6726,61.0,0,120,11.0,64.0
6727,82.0,0,120,0.0,64.0
6728,86.0,0,120,0.0,64.0
6729,74.0,0,120,10.0,64.0
6730,62.0,0,120,11.0,64.0
6731,70.0,120,120,12.0,64.0
6732,60.0,0,120,11.0,64.0
6733,69.0,0,120,12.0,64.0
6734,84.0,0,120,0.0,64.0
6735,81.0,0,120,0.0,64.0
6736,72.0,120,120,10.0,64.0
6737,82.0,0,120,0.0,64.0
6738,55.0,120,120,1.0,64.0
6739,79.0,0,120,0.0,64.0
6740,58.0,0,120,11.0,64.0
6741,58.0,0,120,1.0,64.0
6742,67.0,0,120,12.0,64.0
6743,70.0,0,120,10.0,64.0
6744,54.0,0,120,1.0,64.0
6745,57.0,0,120,1.0,64.0
6746,69.0,120,120,10.0,64.0
6747,57.0,0,120,11.0,64.0
6748,81.0,0,120,0.0,64.0
6749,78.0,0,120,0.0,64.0
6750,66.0,0,120,12.0,64.0
6751,58.0,0,120,1.0,64.0
6752,55.0,0,120,1.0,64.0
6753,79.0,0,120,0.0,64.0
6754,82.0,0,120,0.0,64.0
6755,58.0,0,120,11.0,64.0
6756,70.0,120,120,10.0,64.0
6757,67.0,0,120,12.0,64.0
6758,65.0,0,120,12.0,64.0
6759,81.0,0,120,0.0,64.0
6760,57.0,0,120,11.0,64.0
6761,77.0,0,120,0.0,64.0
6762,57.0,0,120,1.0,64.0
6763,69.0,120,120,10.0,64.0
6764,53.0,0,120,1.0,64.0
6765,75.0,0,120,0.0,64.0
6766,67.0,0,120,12.0,64.0
6767,63.0,0,120,12.0,64.0
6768,79.0,0,120,0.0,64.0
6769,55.0,0,120,11.0,64.0
6770,55.0,120,120,1.0,64.0
6771,51.0,0,120,1.0,64.0
6772,67.0,0,120,10.0,64.0
6773,74.0,0,120,0.0,64.0
6774,62.0,0,120,11.0,64.0
6775,78.0,120,120,0.0,64.0
6776,66.0,0,120,10.0,64.0
6777,62.0,0,120,12.0,64.0
6778,54.0,0,120,1.0,64.0
6779,50.0,0,120,1.0,64.0
6780,66.0,0,120,12.0,64.0
6781,63.0,0,120,12.0,64.0
6782,67.0,0,120,10.0,64.0
6783,67.0,0,120,12.0,64.0
6784,63.0,0,120,11.0,64.0
6785,79.0,0,120,0.0,64.0
6786,51.0,0,120,1.0,64.0
6787,55.0,0,120,1.0,64.0
6788,75.0,96,120,0.0,64.0
6789,62.0,0,90,12.0,64.0
6790,65.0,0,90,12.0,64.0
6791,62.0,0,90,11.0,64.0
6792,65.0,0,90,10.0,64.0
6793,53.0,144,90,1.0,64.0
6794,74.0,0,90,0.0,64.0
6795,77.0,0,90,0.0,64.0
6796,50.0,0,90,1.0,64.0
6797,65.0,0,120,10.0,64.0
6798,74.0,0,120,0.0,64.0
6799,77.0,12,120,0.0,64.0
6800,62.0,0,120,11.0,64.0
6801,39.0,84,120,14.0,64.0
6802,51.0,0,120,13.0,64.0
6803,53.0,0,120,1.0,64.0
6804,50.0,0,120,1.0,64.0
6805,62.0,0,120,12.0,64.0
6806,65.0,0,120,12.0,64.0
6807,51.0,0,90,1.0,64.0
6808,63.0,0,90,10.0,64.0
6809,60.0,0,90,11.0,64.0
6810,60.0,144,90,12.0,64.0
6811,63.0,0,90,12.0,64.0
6812,75.0,0,90,0.0,64.0
6813,72.0,0,90,0.0,64.0
6814,48.0,0,90,1.0,64.0
6815,62.0,0,120,12.0,64.0
6816,58.0,0,120,12.0,64.0
6817,53.0,0,120,13.0,64.0
6818,50.0,0,120,1.0,64.0
6819,41.0,0,120,14.0,64.0
6820,46.0,0,120,1.0,64.0
6821,70.0,0,120,0.0,64.0
6822,74.0,12,120,0.0,64.0
6823,58.0,0,120,11.0,64.0
6824,62.0,228,120,10.0,64.0
6825,57.0,0,120,11.0,64.0
6826,45.0,0,120,1.0,64.0
6827,60.0,0,120,12.0,64.0
6828,29.0,228,120,14.0,64.0
6829,48.0,12,120,1.0,64.0
6830,57.0,0,120,12.0,64.0
6831,69.0,0,120,0.0,64.0
6832,72.0,0,120,0.0,64.0
6833,41.0,0,120,13.0,64.0
6834,60.0,0,120,10.0,64.0
6835,34.0,0,120,14.0,64.0
6836,46.0,12,120,1.0,64.0
6837,58.0,0,120,11.0,64.0
6838,58.0,12,120,12.0,64.0
6839,58.0,0,120,10.0,64.0
6840,46.0,0,120,13.0,64.0
6841,70.0,216,150,0.0,64.0
6842,58.0,120,120,13.0,64.0
6843,58.0,0,120,1.0,64.0
6844,65.0,0,480,0.0,64.0
6845,62.0,0,480,0.0,64.0
6846,70.0,60,360,10.0,64.0
6847,58.0,0,120,12.0,64.0
6848,46.0,0,120,14.0,64.0
6849,58.0,0,360,11.0,64.0
6850,57.0,0,120,13.0,64.0
6851,57.0,0,120,12.0,64.0
6852,45.0,0,120,14.0,64.0
6853,57.0,120,120,1.0,64.0
6854,58.0,0,120,1.0,64.0
6855,58.0,0,120,12.0,64.0
6856,46.0,0,120,14.0,64.0
6857,58.0,0,120,13.0,64.0
6858,56.0,0,120,1.0,64.0
6859,56.0,0,120,13.0,64.0
6860,56.0,144,120,12.0,64.0
6861,60.0,60,60,11.0,64.0
6862,44.0,0,120,14.0,64.0
6863,72.0,0,60,10.0,64.0
6864,62.0,0,60,11.0,64.0
6865,74.0,0,60,10.0,64.0
6866,63.0,0,180,11.0,64.0
6867,58.0,0,180,2.0,64.0
6868,70.0,0,180,2.0,64.0
6869,75.0,168,180,10.0,64.0
6870,43.0,0,180,14.0,64.0
6871,55.0,0,180,12.0,64.0
6872,67.0,48,150,0.0,64.0
6873,55.0,0,180,1.0,64.0
6874,55.0,0,180,13.0,64.0
6875,63.0,0,180,0.0,64.0
6876,48.0,0,120,14.0,64.0
6877,60.0,0,120,13.0,64.0
6878,64.0,0,480,0.0,64.0
6879,67.0,0,480,0.0,64.0
6880,60.0,0,360,11.0,64.0
6881,60.0,0,120,1.0,64.0
6882,60.0,120,120,12.0,64.0
6883,72.0,0,360,10.0,64.0
6884,59.0,0,120,1.0,64.0
6885,47.0,0,120,14.0,64.0
6886,59.0,120,120,13.0,64.0
6887,59.0,0,120,12.0,64.0
6888,60.0,0,120,1.0,64.0
6889,48.0,0,120,14.0,64.0
6890,60.0,0,120,13.0,64.0
6891,60.0,60,120,12.0,64.0
6892,74.0,0,60,10.0,64.0
6893,58.0,0,120,1.0,64.0
6894,58.0,0,120,12.0,64.0
6895,58.0,144,120,13.0,64.0
6896,46.0,0,120,14.0,64.0
6897,62.0,60,60,11.0,64.0
6898,75.0,0,60,10.0,64.0
6899,63.0,0,60,11.0,64.0
6900,57.0,0,180,12.0,64.0
6901,77.0,168,180,10.0,64.0
6902,57.0,0,180,1.0,64.0
6903,65.0,0,180,2.0,64.0
6904,69.0,48,150,0.0,64.0
6905,65.0,0,180,0.0,64.0
6906,72.0,0,180,2.0,64.0
6907,65.0,0,180,11.0,64.0
6908,57.0,0,180,13.0,64.0
6909,45.0,0,180,14.0,64.0
6910,65.0,60,360,0.0,64.0
6911,65.0,0,360,11.0,64.0
6912,65.0,0,120,13.0,64.0
6913,65.0,0,120,12.0,64.0
6914,77.0,0,360,10.0,64.0
6915,77.0,0,600,0.0,64.0
6916,53.0,120,120,14.0,64.0
6917,65.0,0,120,1.0,64.0
6918,64.0,66,120,1.0,64.0
6919,64.0,0,120,12.0,64.0
6920,64.0,0,120,13.0,64.0
6921,52.0,0,120,14.0,64.0
6922,53.0,0,120,14.0,64.0
6923,65.0,0,120,1.0,64.0
6924,65.0,54,60,12.0,64.0
6925,65.0,0,120,13.0,64.0
6926,79.0,0,60,10.0,64.0
6927,67.0,6,60,11.0,64.0
6928,67.0,0,60,0.0,64.0
6929,51.0,72,120,14.0,64.0
6930,63.0,0,120,1.0,64.0
6931,63.0,0,120,13.0,64.0
6932,65.0,54,60,12.0,64.0
6933,69.0,0,60,11.0,64.0
6934,69.0,0,60,0.0,64.0
6935,81.0,0,60,10.0,64.0
6936,65.0,0,120,12.0,64.0
6937,65.0,0,120,2.0,64.0
6938,53.0,0,120,2.0,64.0
6939,50.0,0,120,14.0,64.0
6940,82.0,0,120,10.0,64.0
6941,62.0,60,120,1.0,64.0
6942,70.0,60,60,11.0,64.0
6943,70.0,0,120,0.0,64.0
6944,62.0,0,120,13.0,64.0
6945,65.0,120,60,11.0,64.0
6946,65.0,60,120,2.0,64.0
6947,72.0,60,60,11.0,64.0
6948,53.0,0,120,2.0,64.0
6949,60.0,0,120,1.0,64.0
6950,48.0,0,120,14.0,64.0
6951,72.0,0,120,0.0,64.0
6952,75.0,0,120,0.0,64.0
6953,60.0,0,120,13.0,64.0
6954,84.0,0,120,10.0,64.0
6955,69.0,0,120,12.0,64.0
6956,65.0,120,60,11.0,64.0
6957,58.0,60,120,13.0,64.0
6958,86.0,0,120,10.0,64.0
6959,74.0,0,120,0.0,64.0
6960,70.0,0,120,12.0,64.0
6961,74.0,60,60,11.0,64.0
6962,53.0,0,120,2.0,64.0
6963,65.0,0,120,2.0,64.0
6964,58.0,0,120,1.0,64.0
6965,46.0,0,120,14.0,64.0
6966,65.0,120,60,11.0,64.0
6967,45.0,60,120,14.0,64.0
6968,53.0,0,120,2.0,64.0
6969,65.0,0,120,2.0,64.0
6970,75.0,60,60,11.0,64.0
6971,72.0,0,120,12.0,64.0
6972,75.0,0,120,0.0,64.0
6973,87.0,0,120,10.0,64.0
6974,57.0,0,120,1.0,64.0
6975,57.0,0,120,13.0,64.0
6976,72.0,0,120,0.0,64.0
6977,75.0,168,60,11.0,64.0
6978,65.0,0,360,0.0,64.0
6979,53.0,0,120,14.0,64.0
6980,65.0,0,120,13.0,64.0
6981,65.0,120,120,1.0,64.0
6982,65.0,0,360,11.0,64.0
6983,65.0,0,120,12.0,64.0
6984,77.0,0,600,0.0,64.0
6985,77.0,0,360,10.0,64.0
6986,64.0,66,120,13.0,64.0
6987,52.0,0,120,14.0,64.0
6988,64.0,0,120,12.0,64.0
6989,64.0,0,120,1.0,64.0
6990,65.0,60,120,1.0,64.0
6991,65.0,54,60,12.0,64.0
6992,65.0,0,120,13.0,64.0
6993,53.0,0,120,14.0,64.0
6994,67.0,0,60,11.0,64.0
6995,79.0,6,60,10.0,64.0
6996,65.0,54,60,12.0,64.0
6997,67.0,0,60,0.0,64.0
6998,51.0,0,120,14.0,64.0
6999,63.0,0,120,13.0,64.0
7000,63.0,0,120,1.0,64.0
7001,69.0,0,60,11.0,64.0
7002,81.0,72,60,10.0,64.0
7003,69.0,0,60,0.0,64.0
7004,62.0,0,120,1.0,64.0
7005,65.0,0,120,12.0,64.0
7006,82.0,0,120,10.0,64.0
7007,70.0,0,120,0.0,64.0
7008,62.0,60,120,13.0,64.0
7009,50.0,0,120,14.0,64.0
7010,65.0,0,120,2.0,64.0
7011,53.0,0,120,2.0,64.0
7012,70.0,60,60,11.0,64.0
7013,65.0,120,60,11.0,64.0
7014,72.0,60,60,11.0,64.0
7015,69.0,0,120,12.0,64.0
7016,53.0,0,120,2.0,64.0
7017,72.0,0,120,0.0,64.0
7018,60.0,0,120,1.0,64.0
7019,65.0,0,120,2.0,64.0
7020,48.0,0,120,14.0,64.0
7021,60.0,0,120,13.0,64.0
7022,75.0,0,120,0.0,64.0
7023,84.0,60,120,10.0,64.0
7024,65.0,120,60,11.0,64.0
7025,86.0,0,120,10.0,64.0
7026,74.0,60,120,0.0,64.0
7027,58.0,0,120,1.0,64.0
7028,46.0,0,120,14.0,64.0
7029,53.0,0,120,2.0,64.0
7030,65.0,0,120,2.0,64.0
7031,70.0,0,120,12.0,64.0
7032,58.0,0,120,13.0,64.0
7033,74.0,60,60,11.0,64.0
7034,65.0,120,60,11.0,64.0
7035,57.0,60,120,1.0,64.0
7036,87.0,0,120,10.0,64.0
7037,72.0,0,120,12.0,64.0
7038,72.0,0,120,0.0,64.0
7039,45.0,0,120,14.0,64.0
7040,57.0,0,120,13.0,64.0
7041,65.0,0,120,2.0,64.0
7042,53.0,0,120,2.0,64.0
7043,75.0,60,60,11.0,64.0
7044,75.0,0,120,0.0,64.0
7045,75.0,408,60,11.0,64.0
7046,65.0,0,360,11.0,64.0
7047,65.0,0,360,10.0,64.0
7048,53.0,0,360,12.0,64.0
7049,53.0,0,360,1.0,64.0
7050,41.0,60,360,14.0,64.0
7051,65.0,0,360,0.0,64.0
7052,53.0,0,360,13.0,64.0
7053,67.0,0,60,0.0,64.0
7054,43.0,0,60,14.0,64.0
7055,67.0,0,60,10.0,64.0
7056,55.0,0,60,13.0,64.0
7057,55.0,0,60,1.0,64.0
7058,67.0,60,60,11.0,64.0
7059,55.0,0,60,12.0,64.0
7060,57.0,0,60,13.0,64.0
7061,57.0,0,60,1.0,64.0
7062,69.0,0,60,10.0,64.0
7063,45.0,0,60,14.0,64.0
7064,69.0,192,60,11.0,64.0
7065,69.0,0,60,0.0,64.0
7066,57.0,0,60,12.0,64.0
7067,58.0,0,180,2.0,64.0
7068,70.0,0,180,2.0,64.0
7069,58.0,0,180,12.0,64.0
7070,58.0,408,180,1.0,64.0
7071,46.0,0,180,14.0,64.0
7072,58.0,0,180,13.0,64.0
7073,70.0,0,180,0.0,64.0
7074,70.0,0,180,10.0,64.0
7075,70.0,0,180,11.0,64.0
7076,57.0,60,360,1.0,64.0
7077,57.0,0,360,12.0,64.0
7078,45.0,0,360,14.0,64.0
7079,69.0,0,360,10.0,64.0
7080,57.0,0,360,13.0,64.0
7081,69.0,0,360,0.0,64.0
7082,69.0,0,360,11.0,64.0
7083,70.0,0,60,10.0,64.0
7084,58.0,0,60,1.0,64.0
7085,70.0,60,60,0.0,64.0
7086,46.0,0,60,14.0,64.0
7087,58.0,0,60,13.0,64.0
7088,70.0,0,60,11.0,64.0
7089,58.0,0,60,12.0,64.0
7090,72.0,0,60,11.0,64.0
7091,72.0,0,60,10.0,64.0
7092,60.0,0,60,1.0,64.0
7093,60.0,192,60,12.0,64.0
7094,60.0,0,60,13.0,64.0
7095,48.0,0,60,14.0,64.0
7096,72.0,0,60,0.0,64.0
7097,62.0,0,180,1.0,64.0
7098,62.0,0,180,2.0,64.0
7099,74.0,0,180,2.0,64.0
7100,62.0,0,180,13.0,64.0
7101,74.0,408,180,0.0,64.0
7102,74.0,0,180,11.0,64.0
7103,62.0,0,180,12.0,64.0
7104,50.0,0,180,14.0,64.0
7105,74.0,0,180,10.0,64.0
7106,60.0,60,360,12.0,64.0
7107,72.0,0,360,10.0,64.0
7108,48.0,0,360,14.0,64.0
7109,60.0,0,360,1.0,64.0
7110,60.0,0,360,13.0,64.0
7111,72.0,0,360,0.0,64.0
7112,72.0,0,360,11.0,64.0
7113,74.0,0,60,10.0,64.0
7114,62.0,0,60,13.0,64.0
7115,74.0,0,60,0.0,64.0
7116,62.0,0,60,1.0,64.0
7117,74.0,60,60,11.0,64.0
7118,62.0,0,60,12.0,64.0
7119,50.0,0,60,14.0,64.0
7120,75.0,0,60,10.0,64.0
7121,75.0,0,60,11.0,64.0
7122,63.0,72,60,1.0,64.0
7123,51.0,0,60,14.0,64.0
7124,63.0,0,60,12.0,64.0
7125,75.0,0,60,0.0,64.0
7126,63.0,0,60,13.0,64.0
7127,77.0,0,60,11.0,64.0
7128,65.0,0,180,2.0,64.0
7129,77.0,0,180,2.0,64.0
7130,65.0,0,60,12.0,64.0
7131,65.0,0,60,13.0,64.0
7132,77.0,0,180,0.0,64.0
7133,77.0,0,60,10.0,64.0
7134,65.0,120,60,1.0,64.0
7135,53.0,0,60,14.0,64.0
7136,62.0,0,60,1.0,64.0
7137,77.0,0,60,10.0,64.0
7138,70.0,0,180,11.0,64.0
7139,62.0,0,60,13.0,64.0
7140,50.0,0,60,14.0,64.0
7141,62.0,120,60,12.0,64.0
7142,63.0,0,60,12.0,64.0
7143,63.0,0,60,1.0,64.0
7144,51.0,120,60,14.0,64.0
7145,79.0,0,60,10.0,64.0
7146,63.0,0,60,13.0,64.0
7147,77.0,0,60,10.0,64.0
7148,50.0,120,60,14.0,64.0
7149,70.0,0,180,11.0,64.0
7150,62.0,0,60,13.0,64.0
7151,62.0,0,60,1.0,64.0
7152,62.0,0,60,12.0,64.0
7153,51.0,120,60,14.0,64.0
7154,63.0,0,60,13.0,64.0
7155,63.0,0,60,12.0,64.0
7156,79.0,0,60,10.0,64.0
7157,63.0,0,60,1.0,64.0
7158,48.0,0,60,14.0,64.0
7159,60.0,0,60,1.0,64.0
7160,60.0,0,60,13.0,64.0
7161,65.0,0,90,0.0,64.0
7162,69.0,24,90,0.0,64.0
7163,65.0,24,60,12.0,64.0
7164,75.0,66,120,11.0,64.0
7165,81.0,0,60,10.0,64.0
7166,65.0,0,60,12.0,64.0
7167,62.0,0,60,1.0,64.0
7168,82.0,0,60,10.0,64.0
7169,50.0,0,60,14.0,64.0
7170,62.0,114,60,13.0,64.0
7171,70.0,6,60,0.0,64.0
7172,74.0,0,60,11.0,64.0
7173,65.0,0,180,2.0,64.0
7174,77.0,0,180,2.0,64.0
7175,65.0,0,840,0.0,64.0
7176,81.0,0,60,10.0,64.0
7177,69.0,6,60,0.0,64.0
7178,60.0,0,60,1.0,64.0
7179,60.0,114,60,13.0,64.0
7180,48.0,0,60,14.0,64.0
7181,77.0,0,180,11.0,64.0
7182,63.0,0,60,12.0,64.0
7183,50.0,114,60,14.0,64.0
7184,62.0,0,60,1.0,64.0
7185,82.0,0,60,10.0,64.0
7186,70.0,6,60,0.0,64.0
7187,62.0,0,60,12.0,64.0
7188,62.0,0,60,13.0,64.0
7189,63.0,114,60,12.0,64.0
7190,60.0,0,60,13.0,64.0
7191,60.0,0,60,1.0,64.0
7192,48.0,0,60,14.0,64.0
7193,69.0,6,60,0.0,64.0
7194,77.0,0,180,11.0,64.0
7195,81.0,0,60,10.0,64.0
7196,62.0,114,60,13.0,64.0
7197,70.0,6,60,0.0,64.0
7198,50.0,0,60,14.0,64.0
7199,62.0,0,60,1.0,64.0
7200,62.0,0,60,12.0,64.0
7201,82.0,0,60,10.0,64.0
7202,84.0,0,60,10.0,64.0
7203,57.0,0,60,13.0,64.0
7204,72.0,6,60,0.0,64.0
7205,45.0,24,60,14.0,64.0
7206,77.0,88,90,11.0,64.0
7207,57.0,0,60,1.0,64.0
7208,57.0,0,60,12.0,64.0
7209,74.0,0,120,0.0,64.0
7210,70.0,68,870,2.0,64.0
7211,58.0,0,870,2.0,64.0
7212,58.0,0,120,1.0,64.0
7213,58.0,0,120,12.0,64.0
7214,46.0,12,120,14.0,64.0
7215,86.0,68,60,10.0,64.0
7216,77.0,0,60,11.0,64.0
7217,58.0,0,120,13.0,64.0
7218,74.0,0,60,11.0,64.0
7219,82.0,80,60,10.0,64.0
7220,84.0,80,60,10.0,64.0
7221,75.0,0,60,11.0,64.0
7222,77.0,0,60,11.0,64.0
7223,86.0,80,60,10.0,64.0
7224,82.0,0,60,10.0,64.0
7225,74.0,80,60,11.0,64.0
7226,84.0,0,60,10.0,64.0
7227,75.0,80,60,11.0,64.0
7228,86.0,0,60,10.0,64.0
7229,77.0,80,60,11.0,64.0
7230,74.0,0,60,11.0,64.0
7231,82.0,80,60,10.0,64.0
7232,75.0,80,60,11.0,64.0
7233,84.0,0,60,10.0,64.0
7234,86.0,0,60,10.0,64.0
7235,77.0,80,60,11.0,64.0
7236,82.0,12,60,10.0,64.0
7237,74.0,0,60,11.0,64.0
7238,75.0,0,60,11.0,64.0
7239,84.0,80,60,10.0,64.0
7240,70.0,68,150,2.0,64.0
7241,58.0,0,150,2.0,64.0
7242,77.0,80,60,11.0,64.0
7243,86.0,0,60,10.0,64.0
7244,82.0,12,60,10.0,64.0
7245,74.0,0,60,11.0,64.0
7246,84.0,0,60,10.0,64.0
7247,75.0,80,60,11.0,64.0
7248,86.0,0,60,10.0,64.0
7249,70.0,68,150,2.0,64.0
7250,77.0,80,60,11.0,64.0
7251,58.0,0,150,2.0,64.0
7252,74.0,0,60,11.0,64.0
7253,82.0,12,60,10.0,64.0
7254,75.0,0,60,11.0,64.0
7255,84.0,80,60,10.0,64.0
7256,58.0,0,870,12.0,64.0
7257,77.0,0,60,11.0,64.0
7258,70.0,68,870,12.0,64.0
7259,86.0,80,60,10.0,64.0
7260,70.0,0,870,0.0,64.0
7261,58.0,0,870,2.0,64.0
7262,70.0,0,870,2.0,64.0
7263,56.0,0,870,1.0,64.0
7264,74.0,80,60,11.0,64.0
7265,82.0,0,60,10.0,64.0
7266,84.0,80,60,10.0,64.0
7267,75.0,0,60,11.0,64.0
7268,86.0,0,60,10.0,64.0
7269,77.0,80,60,11.0,64.0
7270,82.0,0,60,10.0,64.0
7271,74.0,80,60,11.0,64.0
7272,75.0,0,60,11.0,64.0
7273,84.0,80,60,10.0,64.0
7274,86.0,0,60,10.0,64.0
7275,77.0,80,60,11.0,64.0
7276,74.0,0,60,11.0,64.0
7277,82.0,80,60,10.0,64.0
7278,75.0,80,60,11.0,64.0
7279,84.0,0,60,10.0,64.0
7280,77.0,0,60,11.0,64.0
7281,86.0,80,60,10.0,64.0
7282,74.0,0,60,11.0,64.0
7283,82.0,12,60,10.0,64.0
7284,84.0,80,60,10.0,64.0
7285,75.0,0,60,11.0,64.0
7286,58.0,0,150,12.0,64.0
7287,70.0,0,150,2.0,64.0
7288,58.0,0,150,2.0,64.0
7289,70.0,0,150,0.0,64.0
7290,56.0,68,150,1.0,64.0
7291,70.0,0,150,12.0,64.0
7292,77.0,80,60,11.0,64.0
7293,86.0,0,60,10.0,64.0
7294,82.0,0,60,10.0,64.0
7295,74.0,12,60,11.0,64.0
7296,75.0,80,60,11.0,64.0
7297,84.0,0,60,10.0,64.0
7298,70.0,0,150,12.0,64.0
7299,58.0,0,150,12.0,64.0
7300,86.0,0,60,10.0,64.0
7301,58.0,0,150,2.0,64.0
7302,70.0,68,150,2.0,64.0
7303,56.0,0,150,1.0,64.0
7304,77.0,80,60,11.0,64.0
7305,70.0,0,150,0.0,64.0
7306,74.0,0,60,11.0,64.0
7307,82.0,12,60,10.0,64.0
7308,84.0,112,60,10.0,64.0
7309,75.0,0,60,11.0,64.0
7310,74.0,0,1410,0.0,64.0
7311,77.0,0,1410,0.0,64.0
7312,59.0,0,90,12.0,64.0
7313,71.0,120,90,12.0,64.0
7314,55.0,0,90,13.0,64.0
7315,65.0,0,1410,2.0,64.0
7316,62.0,12,1410,2.0,64.0
7317,77.0,0,90,11.0,64.0
7318,43.0,0,90,14.0,64.0
7319,59.0,60,870,1.0,64.0
7320,86.0,0,90,10.0,64.0
7321,59.0,0,180,12.0,64.0
7322,71.0,0,180,12.0,64.0
7323,86.0,0,180,10.0,64.0
7324,77.0,24,180,11.0,64.0
7325,55.0,96,90,13.0,64.0
7326,43.0,0,90,14.0,64.0
7327,55.0,0,90,13.0,64.0
7328,43.0,120,90,14.0,64.0
7329,55.0,96,90,13.0,64.0
7330,77.0,24,180,11.0,64.0
7331,86.0,0,180,10.0,64.0
7332,71.0,0,180,12.0,64.0
7333,59.0,0,180,12.0,64.0
7334,43.0,0,90,14.0,64.0
7335,43.0,120,90,14.0,64.0
7336,55.0,0,90,13.0,64.0
7337,71.0,0,210,12.0,64.0
7338,43.0,120,90,14.0,64.0
7339,77.0,0,210,11.0,64.0
7340,55.0,0,90,13.0,64.0
7341,86.0,0,210,10.0,64.0
7342,59.0,60,210,12.0,64.0
7343,43.0,0,90,14.0,64.0
7344,55.0,0,90,13.0,64.0
7345,55.0,0,90,13.0,64.0
7346,59.0,24,180,12.0,64.0
7347,71.0,0,180,12.0,64.0
7348,43.0,96,90,14.0,64.0
7349,86.0,0,180,10.0,64.0
7350,77.0,0,180,11.0,64.0
7351,59.0,60,150,1.0,64.0
7352,55.0,60,90,13.0,64.0
7353,43.0,0,90,14.0,64.0
7354,86.0,24,180,10.0,64.0
7355,77.0,0,180,11.0,64.0
7356,55.0,96,90,13.0,64.0
7357,43.0,0,90,14.0,64.0
7358,71.0,0,180,12.0,64.0
7359,59.0,0,180,12.0,64.0
7360,55.0,0,90,13.0,64.0
7361,43.0,60,90,14.0,64.0
7362,59.0,48,150,1.0,64.0
7363,71.0,156,90,12.0,64.0
7364,77.0,0,90,11.0,64.0
7365,43.0,0,90,14.0,64.0
7366,86.0,0,90,10.0,64.0
7367,55.0,0,90,13.0,64.0
7368,59.0,0,90,12.0,64.0
7369,74.0,0,150,0.0,64.0
7370,77.0,0,150,0.0,64.0
7371,86.0,12,120,10.0,64.0
7372,55.0,228,150,13.0,64.0
7373,77.0,0,120,11.0,64.0
7374,43.0,0,150,14.0,64.0
7375,71.0,0,120,12.0,64.0
7376,59.0,0,120,12.0,64.0
7377,59.0,0,150,1.0,64.0
7378,87.0,0,120,10.0,64.0
7379,60.0,0,120,12.0,64.0
7380,75.0,12,120,11.0,64.0
7381,36.0,0,150,14.0,64.0
7382,72.0,0,150,0.0,64.0
7383,72.0,0,120,12.0,64.0
7384,75.0,0,150,0.0,64.0
7385,60.0,0,150,1.0,64.0
7386,48.0,228,150,13.0,64.0
7387,57.0,0,120,12.0,64.0
7388,41.0,0,150,14.0,64.0
7389,84.0,0,120,10.0,64.0
7390,75.0,12,120,11.0,64.0
7391,72.0,0,150,0.0,64.0
7392,75.0,0,150,0.0,64.0
7393,57.0,0,150,1.0,64.0
7394,69.0,0,120,12.0,64.0
7395,65.0,0,150,2.0,64.0
7396,72.0,0,150,2.0,64.0
7397,53.0,228,150,13.0,64.0
7398,46.0,0,150,13.0,64.0
7399,74.0,0,120,11.0,64.0
7400,70.0,0,120,12.0,64.0
7401,58.0,12,120,12.0,64.0
7402,86.0,0,120,10.0,64.0
7403,70.0,228,150,0.0,64.0
7404,34.0,0,150,14.0,64.0
7405,70.0,0,150,2.0,64.0
7406,58.0,0,150,1.0,64.0
7407,74.0,0,150,0.0,64.0
7408,58.0,0,150,2.0,64.0
7409,75.0,12,120,12.0,64.0
7410,81.0,0,150,0.0,64.0
7411,72.0,0,120,11.0,64.0
7412,75.0,0,150,0.0,64.0
7413,63.0,0,120,12.0,64.0
7414,54.0,0,150,1.0,64.0
7415,81.0,0,120,10.0,64.0
7416,54.0,0,150,13.0,64.0
7417,42.0,228,150,14.0,64.0
7418,55.0,0,150,13.0,64.0
7419,43.0,0,150,14.0,64.0
7420,55.0,0,150,1.0,64.0
7421,70.0,0,120,11.0,64.0
7422,74.0,0,120,12.0,64.0
7423,62.0,0,120,12.0,64.0
7424,82.0,0,150,0.0,64.0
7425,82.0,12,120,10.0,64.0
7426,74.0,288,150,0.0,64.0
7427,82.0,192,240,0.0,64.0
7428,51.0,48,180,1.0,64.0
7429,79.0,0,15,0.0,64.0
7430,75.0,0,180,0.0,64.0
7431,67.0,0,240,11.0,64.0
7432,82.0,192,240,10.0,64.0
7433,79.0,0,180,10.0,64.0
7434,63.0,240,180,11.0,64.0
7435,51.0,48,180,1.0,64.0
7436,79.0,192,240,0.0,64.0
7437,75.0,0,240,0.0,64.0
7438,63.0,192,240,11.0,64.0
7439,75.0,0,180,0.0,64.0
7440,79.0,0,240,10.0,64.0
7441,72.0,48,180,0.0,64.0
7442,60.0,78,180,11.0,64.0
7443,75.0,0,180,10.0,64.0
7444,65.0,36,2850,12.0,64.0
7445,74.0,0,30,10.0,64.0
7446,53.0,0,2850,12.0,64.0
7447,41.0,12,180,14.0,64.0
7448,53.0,0,180,13.0,64.0
7449,58.0,30,30,11.0,64.0
7450,75.0,132,30,10.0,64.0
7451,60.0,0,30,11.0,64.0
7452,62.0,276,150,11.0,64.0
7453,77.0,0,150,10.0,64.0
7454,77.0,0,240,0.0,64.0
7455,62.0,0,240,1.0,64.0
7456,74.0,0,240,0.0,64.0
7457,58.0,240,240,1.0,64.0
7458,63.0,240,240,1.0,64.0
7459,72.0,0,240,0.0,64.0
7460,75.0,0,240,0.0,64.0
7461,60.0,0,240,1.0,64.0
7462,65.0,0,240,1.0,64.0
7463,70.0,0,240,0.0,64.0
7464,74.0,0,240,0.0,64.0
7465,62.0,72,240,1.0,64.0
7466,65.0,0,60,11.0,64.0
7467,75.0,0,240,0.0,64.0
7468,72.0,72,240,0.0,64.0
7469,65.0,168,60,10.0,64.0
7470,60.0,0,240,1.0,64.0
7471,63.0,0,240,1.0,64.0
7472,58.0,78,180,1.0,64.0
7473,62.0,0,180,1.0,64.0
7474,65.0,0,60,11.0,64.0
7475,65.0,120,60,10.0,64.0
7476,77.0,0,180,0.0,64.0
7477,74.0,0,180,0.0,64.0
7478,72.0,0,30,10.0,64.0
7479,41.0,12,180,14.0,64.0
7480,53.0,0,180,13.0,64.0
7481,57.0,30,30,11.0,64.0
7482,74.0,0,30,10.0,64.0
7483,58.0,132,30,11.0,64.0
7484,60.0,276,150,11.0,64.0
7485,75.0,0,150,10.0,64.0
7486,60.0,240,240,1.0,64.0
7487,57.0,0,240,1.0,64.0
7488,75.0,0,240,0.0,64.0
7489,72.0,0,240,0.0,64.0
7490,70.0,0,240,0.0,64.0
7491,74.0,0,240,0.0,64.0
7492,62.0,240,240,1.0,64.0
7493,58.0,0,240,1.0,64.0
7494,69.0,0,240,0.0,64.0
7495,72.0,72,240,0.0,64.0
7496,63.0,0,240,1.0,64.0
7497,60.0,0,240,1.0,64.0
7498,65.0,0,240,1.0,64.0
7499,62.0,72,240,1.0,64.0
7500,65.0,0,60,10.0,64.0
7501,65.0,168,60,11.0,64.0
7502,70.0,0,240,0.0,64.0
7503,65.0,12,180,0.0,64.0
7504,69.0,0,180,0.0,64.0
7505,63.0,0,240,1.0,64.0
7506,65.0,120,60,10.0,64.0
7507,60.0,66,240,1.0,64.0
7508,65.0,0,60,11.0,64.0
7509,70.0,0,180,0.0,64.0
7510,58.0,120,60,10.0,64.0
7511,58.0,0,180,1.0,64.0
7512,65.0,168,180,0.0,64.0
7513,62.0,0,180,1.0,64.0
7514,58.0,0,180,2.0,64.0
7515,70.0,0,180,2.0,64.0
7516,58.0,0,60,11.0,64.0
7517,58.0,0,180,12.0,64.0
7518,65.0,0,60,10.0,64.0
7519,65.0,6,60,11.0,64.0
7520,58.0,0,360,12.0,64.0
7521,46.0,0,360,13.0,64.0
7522,34.0,0,360,14.0,64.0
7523,46.0,0,360,1.0,64.0
7524,70.0,0,120,11.0,64.0
7525,82.0,0,120,0.0,64.0
7526,70.0,120,120,10.0,64.0
7527,69.0,0,120,11.0,64.0
7528,81.0,120,120,0.0,64.0
7529,69.0,0,120,10.0,64.0
7530,70.0,0,120,10.0,64.0
7531,70.0,60,120,11.0,64.0
7532,82.0,0,120,0.0,64.0
7533,80.0,0,120,0.0,64.0
7534,48.0,0,60,13.0,64.0
7535,36.0,0,60,14.0,64.0
7536,68.0,0,120,10.0,64.0
7537,60.0,60,60,12.0,64.0
7538,48.0,0,60,1.0,64.0
7539,68.0,66,120,11.0,64.0
7540,38.0,0,60,14.0,64.0
7541,50.0,0,60,13.0,64.0
7542,50.0,0,60,1.0,64.0
7543,62.0,0,60,12.0,64.0
7544,79.0,0,180,0.0,64.0
7545,67.0,0,60,10.0,64.0
7546,51.0,0,180,13.0,64.0
7547,70.0,0,180,2.0,64.0
7548,51.0,168,180,1.0,64.0
7549,63.0,0,180,12.0,64.0
7550,67.0,120,60,11.0,64.0
7551,58.0,0,180,2.0,64.0
7552,39.0,0,180,14.0,64.0
7553,63.0,0,60,10.0,64.0
7554,63.0,6,60,11.0,64.0
7555,48.0,0,360,13.0,64.0
7556,72.0,0,120,10.0,64.0
7557,84.0,120,120,0.0,64.0
7558,72.0,0,120,11.0,64.0
7559,36.0,60,360,14.0,64.0
7560,60.0,0,360,12.0,64.0
7561,48.0,0,360,1.0,64.0
7562,71.0,0,120,10.0,64.0
7563,83.0,120,120,0.0,64.0
7564,71.0,0,120,11.0,64.0
7565,72.0,0,120,11.0,64.0
7566,84.0,0,120,0.0,64.0
7567,72.0,0,120,10.0,64.0
7568,62.0,0,60,12.0,64.0
7569,70.0,0,120,10.0,64.0
7570,70.0,0,120,11.0,64.0
7571,82.0,0,120,0.0,64.0
7572,50.0,0,60,1.0,64.0
7573,50.0,0,60,13.0,64.0
7574,38.0,60,60,14.0,64.0
7575,51.0,66,60,1.0,64.0
7576,51.0,0,60,13.0,64.0
7577,39.0,0,60,14.0,64.0
7578,63.0,0,60,12.0,64.0
7579,41.0,0,180,14.0,64.0
7580,72.0,0,180,2.0,64.0
7581,69.0,120,60,11.0,64.0
7582,65.0,0,180,2.0,64.0
7583,69.0,0,60,10.0,64.0
7584,81.0,168,180,0.0,64.0
7585,53.0,0,180,1.0,64.0
7586,65.0,0,180,12.0,64.0
7587,53.0,0,180,13.0,64.0
7588,65.0,0,60,10.0,64.0
7589,65.0,6,60,11.0,64.0
7590,53.0,60,360,12.0,64.0
7591,77.0,120,120,0.0,64.0
7592,53.0,0,360,1.0,64.0
7593,77.0,0,120,10.0,64.0
7594,41.0,0,360,14.0,64.0
7595,53.0,0,360,13.0,64.0
7596,77.0,0,120,11.0,64.0
7597,76.0,120,120,11.0,64.0
7598,76.0,0,120,10.0,64.0
7599,76.0,0,120,0.0,64.0
7600,77.0,0,120,11.0,64.0
7601,77.0,0,120,0.0,64.0
7602,77.0,0,120,10.0,64.0
7603,75.0,0,120,10.0,64.0
7604,55.0,0,60,13.0,64.0
7605,43.0,0,60,14.0,64.0
7606,55.0,0,60,1.0,64.0
7607,75.0,24,90,0.0,64.0
7608,77.0,0,90,0.0,64.0
7609,75.0,0,120,11.0,64.0
7610,55.0,36,60,12.0,64.0
7611,57.0,0,60,13.0,64.0
7612,45.0,0,60,14.0,64.0
7613,57.0,72,60,1.0,64.0
7614,57.0,0,60,12.0,64.0
7615,58.0,0,120,12.0,64.0
7616,74.0,60,60,11.0,64.0
7617,74.0,0,60,10.0,64.0
7618,58.0,0,120,13.0,64.0
7619,74.0,0,240,0.0,64.0
7620,77.0,72,240,0.0,64.0
7621,46.0,0,120,14.0,64.0
7622,65.0,0,180,2.0,64.0
7623,58.0,60,120,1.0,64.0
7624,77.0,48,60,10.0,64.0
7625,77.0,0,60,11.0,64.0
7626,60.0,0,120,12.0,64.0
7627,72.0,60,60,10.0,64.0
7628,72.0,0,240,0.0,64.0
7629,60.0,60,120,13.0,64.0
7630,72.0,0,60,11.0,64.0
7631,48.0,0,120,14.0,64.0
7632,60.0,0,120,1.0,64.0
7633,75.0,72,240,0.0,64.0
7634,65.0,48,180,2.0,64.0
7635,77.0,0,60,10.0,64.0
7636,77.0,0,60,11.0,64.0
7637,62.0,60,120,1.0,64.0
7638,70.0,60,60,10.0,64.0
7639,65.0,0,180,2.0,64.0
7640,74.0,0,240,0.0,64.0
7641,70.0,72,240,0.0,64.0
7642,62.0,0,120,12.0,64.0
7643,70.0,0,60,11.0,64.0
7644,62.0,0,120,13.0,64.0
7645,50.0,0,120,14.0,64.0
7646,77.0,48,60,10.0,64.0
7647,77.0,0,60,11.0,64.0
7648,69.0,0,180,0.0,64.0
7649,72.0,0,180,0.0,64.0
7650,51.0,0,120,14.0,64.0
7651,63.0,0,120,1.0,64.0
7652,69.0,60,60,11.0,64.0
7653,65.0,0,180,2.0,64.0
7654,63.0,0,120,12.0,64.0
7655,63.0,60,120,13.0,64.0
7656,69.0,0,60,10.0,64.0
7657,72.0,168,60,10.0,64.0
7658,72.0,0,60,11.0,64.0
7659,65.0,120,120,12.0,64.0
7660,65.0,60,600,0.0,64.0
7661,53.0,0,120,1.0,64.0
7662,53.0,0,120,13.0,64.0
7663,65.0,0,360,10.0,64.0
7664,65.0,0,360,11.0,64.0
7665,41.0,0,120,14.0,64.0
7666,52.0,0,120,13.0,64.0
7667,40.0,66,120,14.0,64.0
7668,64.0,0,120,12.0,64.0
7669,52.0,0,120,1.0,64.0
7670,65.0,54,60,12.0,64.0
7671,53.0,0,120,1.0,64.0
7672,41.0,0,120,14.0,64.0
7673,53.0,60,120,13.0,64.0
7674,67.0,0,60,10.0,64.0
7675,67.0,0,60,11.0,64.0
7676,39.0,0,120,14.0,64.0
7677,67.0,6,60,0.0,64.0
7678,51.0,0,120,13.0,64.0
7679,65.0,54,60,12.0,64.0
7680,51.0,0,120,1.0,64.0
7681,69.0,0,60,11.0,64.0
7682,69.0,0,60,10.0,64.0
7683,69.0,72,60,0.0,64.0
7684,53.0,120,180,2.0,64.0
7685,50.0,0,120,1.0,64.0
7686,65.0,0,120,12.0,64.0
7687,70.0,60,60,11.0,64.0
7688,50.0,0,120,13.0,64.0
7689,70.0,0,60,10.0,64.0
7690,38.0,0,120,14.0,64.0
7691,65.0,0,180,2.0,64.0
7692,70.0,0,120,0.0,64.0
7693,65.0,0,60,11.0,64.0
7694,65.0,0,60,10.0,64.0
7695,72.0,60,60,10.0,64.0
7696,72.0,0,60,11.0,64.0
7697,65.0,0,180,2.0,64.0
7698,36.0,0,120,14.0,64.0
7699,72.0,0,120,0.0,64.0
7700,69.0,0,120,0.0,64.0
7701,63.0,0,120,12.0,64.0
7702,48.0,60,120,1.0,64.0
7703,53.0,0,180,2.0,64.0
7704,48.0,0,120,13.0,64.0
7705,65.0,0,60,11.0,64.0
7706,65.0,120,60,10.0,64.0
7707,46.0,0,120,13.0,64.0
7708,62.0,0,120,12.0,64.0
7709,46.0,0,120,1.0,64.0
7710,65.0,114,180,2.0,64.0
7711,53.0,0,180,2.0,64.0
7712,70.0,60,120,0.0,64.0
7713,74.0,0,120,0.0,64.0
7714,34.0,0,120,14.0,64.0
7715,74.0,60,60,10.0,64.0
7716,74.0,0,60,11.0,64.0
7717,65.0,0,60,10.0,64.0
7718,65.0,0,60,11.0,64.0
7719,53.0,0,180,2.0,64.0
7720,65.0,0,180,2.0,64.0
7721,75.0,60,60,11.0,64.0
7722,72.0,0,60,0.0,64.0
7723,75.0,6,60,0.0,64.0
7724,45.0,54,120,1.0,64.0
7725,45.0,0,120,13.0,64.0
7726,33.0,0,120,14.0,64.0
7727,75.0,0,60,10.0,64.0
7728,60.0,0,120,12.0,64.0
7729,72.0,6,60,0.0,64.0
7730,72.0,0,60,10.0,64.0
7731,72.0,168,60,11.0,64.0
7732,65.0,0,120,13.0,64.0
7733,77.0,0,600,0.0,64.0
7734,77.0,0,360,10.0,64.0
7735,65.0,0,600,0.0,64.0
7736,65.0,0,120,1.0,64.0
7737,65.0,0,360,11.0,64.0
7738,53.0,120,120,14.0,64.0
7739,65.0,0,120,12.0,64.0
7740,64.0,66,120,1.0,64.0
7741,64.0,0,120,13.0,64.0
7742,64.0,0,120,12.0,64.0
7743,52.0,0,120,14.0,64.0
7744,65.0,0,120,13.0,64.0
7745,65.0,60,120,1.0,64.0
7746,53.0,0,120,14.0,64.0
7747,65.0,54,60,12.0,64.0
7748,67.0,0,60,11.0,64.0
7749,63.0,0,120,13.0,64.0
7750,51.0,0,120,14.0,64.0
7751,63.0,72,120,1.0,64.0
7752,65.0,54,60,12.0,64.0
7753,79.0,6,60,10.0,64.0
7754,69.0,0,60,11.0,64.0
7755,81.0,0,60,10.0,64.0
7756,82.0,0,120,10.0,64.0
7757,65.0,0,120,12.0,64.0
7758,62.0,12,120,13.0,64.0
7759,50.0,0,120,14.0,64.0
7760,70.0,0,150,2.0,64.0
7761,62.0,48,150,2.0,64.0
7762,70.0,60,60,11.0,64.0
7763,62.0,0,120,1.0,64.0
7764,65.0,120,60,11.0,64.0
7765,65.0,48,150,2.0,64.0
7766,60.0,0,120,13.0,64.0
7767,84.0,0,120,10.0,64.0
7768,60.0,0,120,1.0,64.0
7769,48.0,12,120,14.0,64.0
7770,72.0,60,60,11.0,64.0
7771,65.0,0,120,0.0,64.0
7772,77.0,0,120,0.0,64.0
7773,72.0,0,150,2.0,64.0
7774,69.0,0,120,12.0,64.0
7775,65.0,120,60,11.0,64.0
7776,46.0,0,120,14.0,64.0
7777,58.0,0,120,1.0,64.0
7778,65.0,0,120,0.0,64.0
7779,58.0,0,120,13.0,64.0
7780,70.0,12,120,12.0,64.0
7781,74.0,48,150,2.0,64.0
7782,70.0,0,150,2.0,64.0
7783,74.0,60,60,11.0,64.0
7784,86.0,0,120,10.0,64.0
7785,77.0,0,120,0.0,64.0
7786,65.0,180,60,11.0,64.0
7787,57.0,1272,120,1.0,64.0
7788,72.0,0,1410,12.0,64.0
7789,45.0,756,1410,14.0,64.0
7790,66.0,0,1410,12.0,64.0
7791,87.0,0,1410,10.0,64.0
7792,57.0,0,1410,13.0,64.0
7793,75.0,0,1410,11.0,64.0
7794,76.0,0,720,11.0,64.0
7795,85.0,720,720,10.0,64.0
7796,58.0,0,720,13.0,64.0
7797,46.0,0,720,14.0,64.0
7798,67.0,0,720,12.0,64.0
7799,73.0,0,720,12.0,64.0
7800,70.0,0,900,11.0,64.0
7801,58.0,0,900,12.0,64.0
7802,61.0,0,900,12.0,64.0
7803,54.0,192,720,13.0,64.0
7804,76.0,0,720,10.0,64.0
7805,42.0,0,720,14.0,64.0
7806,53.0,0,180,13.0,64.0
7807,77.0,0,180,10.0,64.0
7808,41.0,288,180,14.0,64.0
7809,72.0,240,240,11.0,64.0
7810,72.0,0,240,10.0,64.0
7811,48.0,0,240,14.0,64.0
7812,60.0,0,240,12.0,64.0
7813,60.0,0,240,13.0,64.0
7814,61.0,0,240,13.0,64.0
7815,49.0,0,240,14.0,64.0
7816,73.0,0,240,10.0,64.0
7817,61.0,240,240,12.0,64.0
7818,73.0,0,240,11.0,64.0
7819,69.0,0,240,11.0,64.0
7820,69.0,0,240,10.0,64.0
7821,57.0,0,240,13.0,64.0
7822,45.0,240,240,14.0,64.0
7823,57.0,0,240,12.0,64.0
7824,70.0,0,240,10.0,64.0
7825,46.0,0,240,14.0,64.0
7826,70.0,0,240,11.0,64.0
7827,58.0,0,240,12.0,64.0
7828,58.0,240,240,13.0,64.0
7829,66.0,0,240,11.0,64.0
7830,54.0,0,240,13.0,64.0
7831,54.0,0,240,12.0,64.0
7832,66.0,192,240,10.0,64.0
7833,42.0,0,240,14.0,64.0
7834,74.0,192,720,0.0,64.0
7835,70.0,0,720,0.0,64.0
7836,41.0,0,180,14.0,64.0
7837,65.0,0,180,11.0,64.0
7838,53.0,0,180,12.0,64.0
7839,53.0,0,180,13.0,64.0
7840,65.0,32,1620,2.0,64.0
7841,53.0,0,1440,2.0,64.0
7842,65.0,528,180,10.0,64.0
7843,69.0,64,720,0.0,64.0
7844,72.0,0,720,0.0,64.0
7845,53.0,0,180,12.0,64.0
7846,65.0,0,180,11.0,64.0
7847,41.0,0,180,14.0,64.0
7848,63.0,0,720,1.0,64.0
7849,53.0,528,180,13.0,64.0
7850,65.0,0,180,10.0,64.0
7851,62.0,0,150,12.0,64.0
7852,58.0,0,150,12.0,64.0
7853,70.0,0,150,0.0,64.0
7854,46.0,0,150,13.0,64.0
7855,65.0,36,150,11.0,64.0
7856,58.0,0,150,11.0,64.0
7857,70.0,0,150,11.0,64.0
7858,65.0,0,15,1.0,64.0
7859,62.0,0,150,1.0,64.0
7860,58.0,12,120,2.0,64.0
7861,70.0,68,60,10.0,64.0
7862,34.0,0,150,14.0,64.0
7863,70.0,0,60,10.0,64.0
7864,70.0,80,60,10.0,64.0
7865,62.0,80,60,10.0,64.0
7866,62.0,80,60,10.0,64.0
7867,62.0,80,60,10.0,64.0
7868,65.0,80,60,10.0,64.0
7869,65.0,80,60,10.0,64.0
7870,65.0,80,60,10.0,64.0
7871,70.0,80,60,10.0,64.0
7872,70.0,80,60,10.0,64.0
7873,70.0,80,60,10.0,64.0
7874,74.0,80,60,10.0,64.0
7875,74.0,80,60,10.0,64.0
7876,74.0,80,60,10.0,64.0
7877,65.0,0,150,12.0,64.0
7878,63.0,0,150,12.0,64.0
7879,53.0,0,150,1.0,64.0
7880,72.0,0,150,11.0,64.0
7881,72.0,0,150,2.0,64.0
7882,81.0,0,150,11.0,64.0
7883,65.0,0,150,2.0,64.0
7884,65.0,0,150,11.0,64.0
7885,53.0,0,150,13.0,64.0
7886,77.0,80,60,10.0,64.0
7887,41.0,0,150,14.0,64.0
7888,75.0,80,150,0.0,64.0
7889,81.0,0,150,0.0,64.0
7890,77.0,0,60,10.0,64.0
7891,77.0,80,60,10.0,64.0
7892,58.0,0,150,1.0,64.0
7893,70.0,80,60,10.0,64.0
7894,74.0,0,150,11.0,64.0
7895,70.0,0,150,2.0,64.0
7896,58.0,0,150,13.0,64.0
7897,82.0,0,150,11.0,64.0
7898,65.0,0,150,11.0,64.0
7899,46.0,0,150,14.0,64.0
7900,74.0,0,150,0.0,64.0
7901,82.0,0,150,0.0,64.0
7902,65.0,0,150,12.0,64.0
7903,62.0,0,150,12.0,64.0
7904,74.0,0,150,2.0,64.0
7905,70.0,80,60,10.0,64.0
7906,70.0,80,60,10.0,64.0
7907,62.0,80,60,10.0,64.0
7908,62.0,80,60,10.0,64.0
7909,62.0,80,60,10.0,64.0
7910,65.0,80,60,10.0,64.0
7911,65.0,80,60,10.0,64.0
7912,65.0,80,60,10.0,64.0
7913,70.0,80,60,10.0,64.0
7914,70.0,80,60,10.0,64.0
7915,70.0,80,60,10.0,64.0
7916,74.0,80,60,10.0,64.0
7917,74.0,80,60,10.0,64.0
7918,74.0,80,60,10.0,64.0
7919,65.0,0,150,11.0,64.0
7920,72.0,80,150,2.0,64.0
7921,53.0,0,150,1.0,64.0
7922,65.0,0,150,12.0,64.0
7923,65.0,0,150,2.0,64.0
7924,81.0,0,150,11.0,64.0
7925,72.0,0,150,11.0,64.0
7926,81.0,0,150,0.0,64.0
7927,77.0,80,60,10.0,64.0
7928,63.0,0,150,12.0,64.0
7929,41.0,0,150,14.0,64.0
7930,75.0,0,150,0.0,64.0
7931,53.0,0,150,13.0,64.0
7932,77.0,0,60,10.0,64.0
7933,77.0,112,60,10.0,64.0
7934,70.0,48,90,10.0,64.0
7935,74.0,0,150,11.0,64.0
7936,82.0,0,150,11.0,64.0
7937,65.0,0,150,11.0,64.0
7938,70.0,60,3030,2.0,64.0
7939,62.0,0,150,12.0,64.0
7940,65.0,72,150,12.0,64.0
7941,58.0,0,3030,2.0,64.0
7942,58.0,0,150,13.0,64.0
7943,62.0,0,3030,1.0,64.0
7944,65.0,0,3030,1.0,64.0
7945,46.0,0,150,14.0,64.0
7946,74.0,0,3030,0.0,64.0
7947,82.0,0,3030,0.0,64.0
7948,65.0,120,90,10.0,64.0
7949,62.0,120,90,10.0,64.0
7950,65.0,120,90,10.0,64.0
7951,70.0,120,90,10.0,64.0
7952,74.0,120,90,10.0,64.0
7953,70.0,48,90,10.0,64.0
7954,74.0,0,150,11.0,64.0
7955,82.0,0,150,11.0,64.0
7956,65.0,48,150,11.0,64.0
7957,70.0,0,180,12.0,64.0
7958,46.0,0,180,14.0,64.0
7959,62.0,24,180,12.0,64.0
7960,58.0,0,180,13.0,64.0
7961,62.0,120,90,10.0,64.0
7962,65.0,120,90,10.0,64.0
7963,70.0,120,90,10.0,64.0
7964,74.0,120,90,10.0,64.0
7965,77.0,120,90,10.0,64.0
7966,46.0,0,180,13.0,64.0
7967,70.0,24,180,12.0,64.0
7968,65.0,0,150,11.0,64.0
7969,74.0,0,150,11.0,64.0
7970,82.0,48,150,11.0,64.0
7971,74.0,48,90,10.0,64.0
7972,34.0,0,180,14.0,64.0
7973,62.0,0,180,12.0,64.0
7974,65.0,120,90,10.0,64.0
7975,70.0,120,90,10.0,64.0
7976,74.0,120,90,10.0,64.0
7977,77.0,120,90,10.0,64.0
7978,82.0,120,90,10.0,64.0
7979,46.0,0,180,14.0,64.0
7980,77.0,48,90,10.0,64.0
7981,70.0,0,180,12.0,64.0
7982,58.0,24,180,13.0,64.0
7983,74.0,48,150,11.0,64.0
7984,65.0,0,150,11.0,64.0
7985,62.0,0,180,12.0,64.0
7986,82.0,0,150,11.0,64.0
7987,70.0,120,90,10.0,64.0
7988,74.0,120,90,10.0,64.0
7989,77.0,120,90,10.0,64.0
7990,82.0,120,90,10.0,64.0
7991,86.0,120,90,10.0,64.0
7992,70.0,0,150,12.0,64.0
7993,82.0,12,150,10.0,64.0
7994,70.0,48,90,11.0,64.0
7995,34.0,0,150,14.0,64.0
7996,62.0,0,150,12.0,64.0
7997,46.0,0,150,13.0,64.0
7998,65.0,120,90,11.0,64.0
7999,34.0,60,150,14.0,64.0
8000,62.0,48,90,11.0,64.0
8001,58.0,0,150,2.0,64.0
8002,65.0,0,150,2.0,64.0
8003,58.0,0,150,1.0,64.0
8004,74.0,12,150,0.0,64.0
8005,82.0,0,150,0.0,64.0
8006,82.0,0,150,10.0,64.0
8007,62.0,0,150,10.0,64.0
8008,70.0,0,150,10.0,64.0
8009,46.0,0,150,13.0,64.0
8010,65.0,0,150,12.0,64.0
8011,65.0,120,90,11.0,64.0
8012,74.0,12,150,0.0,64.0
8013,82.0,0,150,0.0,64.0
8014,70.0,48,90,11.0,64.0
8015,70.0,0,150,10.0,64.0
8016,34.0,0,150,14.0,64.0
8017,65.0,60,150,2.0,64.0
8018,58.0,0,150,2.0,64.0
8019,58.0,0,150,1.0,64.0
8020,65.0,0,150,12.0,64.0
8021,82.0,0,150,10.0,64.0
8022,46.0,0,150,13.0,64.0
8023,62.0,0,150,10.0,64.0
8024,74.0,120,90,11.0,64.0
8025,46.0,0,150,13.0,64.0
8026,58.0,0,150,1.0,64.0
8027,82.0,0,150,0.0,64.0
8028,65.0,0,150,12.0,64.0
8029,70.0,48,90,11.0,64.0
8030,74.0,12,150,0.0,64.0
8031,65.0,0,150,2.0,64.0
8032,58.0,60,150,2.0,64.0
8033,82.0,0,150,10.0,64.0
8034,34.0,0,150,14.0,64.0
8035,62.0,0,150,10.0,64.0
8036,70.0,0,150,10.0,64.0
8037,65.0,120,90,11.0,64.0
8038,34.0,60,150,14.0,64.0
8039,62.0,48,90,11.0,64.0
8040,58.0,0,150,2.0,64.0
8041,65.0,0,150,2.0,64.0
8042,74.0,0,150,0.0,64.0
8043,65.0,0,150,12.0,64.0
8044,58.0,0,150,1.0,64.0
8045,46.0,0,150,13.0,64.0
8046,62.0,0,150,10.0,64.0
8047,70.0,0,150,10.0,64.0
8048,82.0,12,150,10.0,64.0
8049,82.0,0,150,0.0,64.0
8050,65.0,120,90,11.0,64.0
8051,58.0,60,150,2.0,64.0
8052,65.0,0,150,2.0,64.0
8053,65.0,12,150,12.0,64.0
8054,74.0,0,150,0.0,64.0
8055,82.0,0,150,10.0,64.0
8056,62.0,0,150,10.0,64.0
8057,70.0,48,90,11.0,64.0
8058,58.0,0,150,1.0,64.0
8059,82.0,0,150,0.0,64.0
8060,34.0,0,150,14.0,64.0
8061,46.0,0,150,13.0,64.0
8062,70.0,0,150,10.0,64.0
8063,74.0,216,90,11.0,64.0
8064,46.0,0,180,13.0,64.0
8065,65.0,0,180,12.0,64.0
8066,74.0,0,180,0.0,64.0
8067,82.0,0,180,0.0,64.0
8068,65.0,0,180,2.0,64.0
8069,58.0,0,180,2.0,64.0
8070,58.0,0,180,1.0,64.0
8071,82.0,0,180,10.0,64.0
8072,70.0,0,180,10.0,64.0
8073,62.0,0,180,10.0,64.0
8074,70.0,720,180,11.0,64.0
8075,34.0,0,180,14.0,64.0
8076,70.0,0,180,12.0,64.0
8077,58.0,0,180,1.0,64.0
8078,74.0,0,180,0.0,64.0
8079,82.0,0,180,0.0,64.0
8080,70.0,0,180,11.0,64.0
8081,58.0,0,180,12.0,64.0
8082,77.0,720,180,11.0,64.0
8083,62.0,0,180,11.0,64.0
8084,65.0,0,180,12.0,64.0
8085,65.0,0,180,2.0,64.0
8086,58.0,0,180,2.0,64.0
8087,62.0,0,180,10.0,64.0
8088,70.0,0,180,10.0,64.0
8089,82.0,0,180,10.0,64.0
8090,46.0,0,180,14.0,64.0
8091,58.0,0,180,13.0,64.0
8092,82.0,0,180,10.0,64.0
8093,74.0,0,180,0.0,64.0
8094,65.0,0,180,11.0,64.0
8095,82.0,0,180,11.0,64.0
8096,70.0,0,180,10.0,64.0
8097,46.0,0,180,13.0,64.0
8098,62.0,0,180,10.0,64.0
8099,82.0,0,180,0.0,64.0
8100,65.0,0,180,12.0,64.0
8101,58.0,2544,180,12.0,64.0
8102,70.0,0,180,12.0,64.0
8103,74.0,0,180,11.0,64.0
8104,58.0,0,180,2.0,64.0
8105,65.0,0,180,2.0,64.0
8106,58.0,0,180,1.0,64.0
8107,34.0,0,180,14.0,64.0
8108,34.0,0,570,14.0,64.0
