,note,step,duration,channel,velocity
0,60.0,144,1740,7.0,0.0
1,72.0,0,780,5.0,0.0
2,60.0,240,180,10.0,0.0
3,64.0,144,780,6.0,0.0
4,60.0,240,180,10.0,0.0
5,60.0,96,180,10.0,0.0
6,60.0,240,180,10.0,0.0
7,77.0,0,720,5.0,0.0
8,69.0,48,720,6.0,0.0
9,60.0,240,180,10.0,0.0
10,60.0,240,180,10.0,0.0
11,60.0,48,180,10.0,0.0
12,60.0,0,180,10.0,0.0
13,67.0,0,180,6.0,0.0
14,76.0,108,180,5.0,0.0
15,76.0,132,60,5.0,0.0
16,60.0,48,180,10.0,0.0
17,69.0,144,1740,7.0,0.0
18,67.0,0,60,6.0,0.0
19,65.0,0,180,6.0,0.0
20,74.0,192,180,5.0,0.0
21,64.0,108,180,6.0,0.0
22,60.0,0,180,10.0,0.0
23,73.0,0,180,5.0,0.0
24,67.0,0,60,6.0,0.0
25,60.0,48,180,10.0,0.0
26,76.0,132,60,5.0,0.0
27,74.0,192,180,5.0,0.0
28,65.0,0,180,6.0,0.0
29,64.0,0,180,6.0,0.0
30,60.0,240,180,10.0,0.0
31,73.0,0,180,5.0,0.0
32,65.0,48,390,6.0,0.0
33,74.0,0,390,5.0,0.0
34,60.0,192,180,10.0,0.0
35,60.0,240,180,10.0,0.0
36,60.0,96,180,10.0,0.0
37,60.0,288,180,10.0,0.0
38,62.0,192,1920,7.0,0.0
39,67.0,240,2100,6.0,0.0
40,59.0,144,1740,10.0,0.0
41,74.0,240,240,5.0,0.0
42,76.0,240,240,5.0,0.0
43,77.0,192,240,5.0,0.0
44,78.0,288,180,5.0,0.0
45,79.0,240,240,5.0,0.0
46,80.0,240,240,5.0,0.0
47,81.0,48,240,5.0,0.0
48,77.0,48,180,5.0,0.0
49,76.0,0,180,5.0,0.0
50,60.0,0,180,7.0,0.0
51,60.0,0,180,10.0,0.0
52,72.0,0,180,6.0,0.0
53,67.0,168,180,7.0,0.0
54,60.0,0,180,10.0,0.0
55,76.0,0,180,5.0,0.0
56,67.0,48,180,7.0,0.0
57,60.0,0,180,10.0,0.0
58,79.0,72,120,5.0,0.0
59,74.0,0,120,6.0,0.0
60,72.0,0,120,6.0,0.0
61,77.0,120,120,5.0,0.0
62,67.0,0,180,7.0,0.0
63,60.0,24,180,10.0,0.0
64,71.0,72,120,6.0,0.0
65,76.0,0,120,5.0,0.0
66,77.0,0,90,5.0,0.0
67,72.0,408,90,6.0,0.0
68,67.0,0,390,7.0,0.0
69,60.0,1296,390,10.0,0.0
70,79.0,0,390,5.0,0.0
71,76.0,0,390,6.0,0.0
72,48.0,0,780,2.0,0.0
73,60.0,0,720,7.0,0.0
74,48.0,0,720,10.0,0.0
75,60.0,72,780,2.0,0.0
76,36.0,0,720,11.0,0.0
77,48.0,0,720,1.0,0.0
78,60.0,0,720,5.0,0.0
79,60.0,48,720,6.0,0.0
80,36.0,0,720,12.0,0.0
81,72.0,0,720,0.0,0.0
82,50.0,0,120,10.0,0.0
83,62.0,0,120,7.0,0.0
84,74.0,0,120,0.0,0.0
85,38.0,0,120,11.0,0.0
86,38.0,0,120,12.0,0.0
87,50.0,96,120,1.0,0.0
88,62.0,0,120,6.0,0.0
89,62.0,0,120,5.0,0.0
90,52.0,0,90,10.0,0.0
91,64.0,192,90,7.0,0.0
92,76.0,0,90,0.0,0.0
93,64.0,0,90,5.0,0.0
94,64.0,0,90,6.0,0.0
95,52.0,0,90,1.0,0.0
96,40.0,0,90,11.0,0.0
97,40.0,0,90,12.0,0.0
98,53.0,0,180,1.0,0.0
99,53.0,0,180,10.0,0.0
100,41.0,0,180,12.0,0.0
101,65.0,0,180,6.0,0.0
102,77.0,0,180,0.0,0.0
103,65.0,0,180,5.0,0.0
104,65.0,0,180,7.0,0.0
105,41.0,240,180,11.0,0.0
106,65.0,0,180,6.0,0.0
107,41.0,0,180,12.0,0.0
108,53.0,0,180,1.0,0.0
109,41.0,0,180,11.0,0.0
110,53.0,0,180,10.0,0.0
111,65.0,0,180,7.0,0.0
112,77.0,0,180,0.0,0.0
113,65.0,192,180,5.0,0.0
114,53.0,0,180,1.0,0.0
115,41.0,0,180,12.0,0.0
116,65.0,48,120,6.0,0.0
117,65.0,0,120,5.0,0.0
118,77.0,0,180,0.0,0.0
119,65.0,0,180,7.0,0.0
120,53.0,72,180,10.0,0.0
121,41.0,0,180,11.0,0.0
122,67.0,120,120,5.0,0.0
123,67.0,0,120,6.0,0.0
124,64.0,48,120,5.0,0.0
125,76.0,0,180,0.0,0.0
126,52.0,0,180,1.0,0.0
127,64.0,0,120,6.0,0.0
128,52.0,0,180,10.0,0.0
129,64.0,48,180,7.0,0.0
130,40.0,0,180,12.0,0.0
131,40.0,0,180,11.0,0.0
132,65.0,0,90,6.0,0.0
133,65.0,192,90,5.0,0.0
134,62.0,120,240,6.0,0.0
135,62.0,72,180,2.0,0.0
136,62.0,0,240,5.0,0.0
137,50.0,0,240,1.0,0.0
138,38.0,0,240,11.0,0.0
139,74.0,0,240,0.0,0.0
140,38.0,0,240,12.0,0.0
141,50.0,0,240,10.0,0.0
142,62.0,0,240,7.0,0.0
143,40.0,0,120,11.0,0.0
144,40.0,0,120,12.0,0.0
145,76.0,0,120,0.0,0.0
146,64.0,0,120,6.0,0.0
147,52.0,48,120,1.0,0.0
148,52.0,0,120,10.0,0.0
149,64.0,0,120,7.0,0.0
150,62.0,48,180,2.0,0.0
151,64.0,0,120,5.0,0.0
152,41.0,0,90,11.0,0.0
153,65.0,0,90,5.0,0.0
154,41.0,0,90,12.0,0.0
155,65.0,0,90,7.0,0.0
156,65.0,144,90,6.0,0.0
157,77.0,0,90,0.0,0.0
158,53.0,0,90,10.0,0.0
159,53.0,0,90,1.0,0.0
160,67.0,0,120,5.0,0.0
161,55.0,0,180,1.0,0.0
162,43.0,24,180,12.0,0.0
163,67.0,48,120,6.0,0.0
164,43.0,0,180,11.0,0.0
165,67.0,0,180,7.0,0.0
166,55.0,0,180,10.0,0.0
167,62.0,0,180,2.0,0.0
168,55.0,0,180,2.0,0.0
169,79.0,48,180,0.0,0.0
170,69.0,120,120,5.0,0.0
171,69.0,0,120,6.0,0.0
172,41.0,0,180,12.0,0.0
173,65.0,48,120,6.0,0.0
174,65.0,0,180,7.0,0.0
175,53.0,24,180,1.0,0.0
176,55.0,0,180,2.0,0.0
177,62.0,0,180,2.0,0.0
178,53.0,0,180,10.0,0.0
179,65.0,0,120,5.0,0.0
180,77.0,0,180,0.0,0.0
181,41.0,24,180,11.0,0.0
182,67.0,0,90,6.0,0.0
183,67.0,408,90,5.0,0.0
184,76.0,0,390,0.0,0.0
185,64.0,0,390,7.0,0.0
186,60.0,0,390,2.0,0.0
187,64.0,0,390,5.0,0.0
188,40.0,0,390,11.0,0.0
189,52.0,744,390,1.0,0.0
190,52.0,0,390,10.0,0.0
191,40.0,0,390,12.0,0.0
192,64.0,0,390,2.0,0.0
193,64.0,0,390,6.0,0.0
194,79.0,168,720,5.0,0.0
195,72.0,144,1200,6.0,0.0
196,64.0,240,180,7.0,0.0
197,64.0,240,180,7.0,0.0
198,64.0,72,180,7.0,0.0
199,64.0,24,180,7.0,0.0
200,84.0,216,180,5.0,0.0
201,65.0,72,180,7.0,0.0
202,83.0,0,240,5.0,0.0
203,81.0,0,150,5.0,0.0
204,65.0,216,180,7.0,0.0
205,77.0,24,150,6.0,0.0
206,79.0,24,150,5.0,0.0
207,65.0,216,180,7.0,0.0
208,76.0,0,150,6.0,0.0
209,77.0,24,150,5.0,0.0
210,74.0,0,150,6.0,0.0
211,65.0,240,180,7.0,0.0
212,67.0,72,180,7.0,0.0
213,77.0,144,240,5.0,0.0
214,74.0,0,240,6.0,0.0
215,72.0,0,150,6.0,0.0
216,76.0,24,150,5.0,0.0
217,67.0,240,180,7.0,0.0
218,67.0,72,180,7.0,0.0
219,72.0,0,240,6.0,0.0
220,76.0,144,240,5.0,0.0
221,74.0,0,150,5.0,0.0
222,67.0,456,180,7.0,0.0
223,71.0,24,150,6.0,0.0
224,60.0,96,390,7.0,0.0
225,75.0,192,480,5.0,0.0
226,71.0,0,480,6.0,0.0
227,72.0,0,180,6.0,0.0
228,76.0,1008,180,5.0,0.0
229,48.0,0,720,10.0,0.0
230,60.0,0,720,7.0,0.0
231,60.0,0,720,6.0,0.0
232,60.0,48,720,5.0,0.0
233,60.0,72,780,2.0,0.0
234,48.0,0,780,2.0,0.0
235,72.0,0,720,0.0,0.0
236,36.0,0,720,11.0,0.0
237,48.0,0,720,1.0,0.0
238,36.0,0,720,12.0,0.0
239,50.0,0,120,1.0,0.0
240,50.0,0,120,10.0,0.0
241,62.0,0,120,5.0,0.0
242,38.0,0,120,12.0,0.0
243,38.0,96,120,11.0,0.0
244,62.0,0,120,6.0,0.0
245,62.0,0,120,7.0,0.0
246,74.0,0,120,0.0,0.0
247,64.0,0,90,5.0,0.0
248,64.0,0,90,7.0,0.0
249,52.0,0,90,10.0,0.0
250,76.0,192,90,0.0,0.0
251,52.0,0,90,1.0,0.0
252,40.0,0,90,12.0,0.0
253,64.0,0,90,6.0,0.0
254,40.0,0,90,11.0,0.0
255,65.0,0,180,7.0,0.0
256,53.0,0,180,10.0,0.0
257,53.0,0,180,1.0,0.0
258,77.0,240,180,0.0,0.0
259,65.0,0,180,6.0,0.0
260,65.0,0,180,5.0,0.0
261,41.0,0,180,12.0,0.0
262,41.0,0,180,11.0,0.0
263,65.0,0,180,6.0,0.0
264,41.0,0,180,12.0,0.0
265,65.0,0,180,5.0,0.0
266,53.0,0,180,10.0,0.0
267,65.0,0,180,7.0,0.0
268,53.0,0,180,1.0,0.0
269,41.0,192,180,11.0,0.0
270,77.0,0,180,0.0,0.0
271,77.0,0,180,0.0,0.0
272,65.0,0,120,7.0,0.0
273,41.0,0,180,11.0,0.0
274,65.0,0,120,6.0,0.0
275,53.0,0,180,1.0,0.0
276,41.0,0,180,12.0,0.0
277,65.0,48,120,5.0,0.0
278,53.0,72,180,10.0,0.0
279,67.0,120,120,6.0,0.0
280,67.0,0,120,7.0,0.0
281,67.0,0,120,5.0,0.0
282,40.0,0,180,12.0,0.0
283,64.0,0,120,7.0,0.0
284,52.0,0,180,10.0,0.0
285,64.0,0,120,6.0,0.0
286,40.0,0,180,11.0,0.0
287,52.0,0,180,1.0,0.0
288,64.0,48,120,5.0,0.0
289,76.0,48,180,0.0,0.0
290,65.0,0,90,7.0,0.0
291,65.0,192,90,6.0,0.0
292,65.0,0,90,5.0,0.0
293,62.0,0,240,7.0,0.0
294,38.0,0,240,12.0,0.0
295,62.0,0,240,5.0,0.0
296,50.0,0,240,10.0,0.0
297,38.0,0,240,11.0,0.0
298,62.0,72,180,2.0,0.0
299,62.0,120,240,6.0,0.0
300,50.0,0,240,1.0,0.0
301,74.0,0,240,0.0,0.0
302,64.0,0,120,5.0,0.0
303,52.0,0,120,1.0,0.0
304,52.0,0,120,10.0,0.0
305,64.0,0,120,7.0,0.0
306,64.0,0,120,6.0,0.0
307,40.0,48,120,12.0,0.0
308,40.0,0,120,11.0,0.0
309,62.0,48,180,2.0,0.0
310,76.0,0,120,0.0,0.0
311,53.0,0,90,10.0,0.0
312,41.0,0,90,11.0,0.0
313,77.0,0,90,0.0,0.0
314,65.0,144,90,7.0,0.0
315,53.0,0,90,1.0,0.0
316,65.0,0,90,5.0,0.0
317,41.0,0,90,12.0,0.0
318,65.0,0,90,6.0,0.0
319,43.0,0,180,12.0,0.0
320,67.0,0,120,7.0,0.0
321,55.0,48,180,1.0,0.0
322,55.0,0,180,2.0,0.0
323,55.0,24,180,10.0,0.0
324,43.0,0,180,11.0,0.0
325,62.0,0,180,2.0,0.0
326,67.0,48,120,5.0,0.0
327,67.0,0,120,6.0,0.0
328,79.0,0,180,0.0,0.0
329,69.0,0,120,7.0,0.0
330,69.0,120,120,6.0,0.0
331,69.0,0,120,5.0,0.0
332,53.0,24,180,1.0,0.0
333,41.0,24,180,12.0,0.0
334,65.0,48,120,5.0,0.0
335,65.0,0,120,7.0,0.0
336,62.0,0,180,2.0,0.0
337,55.0,0,180,2.0,0.0
338,65.0,0,120,6.0,0.0
339,77.0,0,180,0.0,0.0
340,41.0,0,180,11.0,0.0
341,53.0,0,180,10.0,0.0
342,67.0,0,90,6.0,0.0
343,67.0,408,90,5.0,0.0
344,67.0,0,90,7.0,0.0
345,60.0,0,390,2.0,0.0
346,64.0,0,390,6.0,0.0
347,52.0,0,390,1.0,0.0
348,52.0,0,390,10.0,0.0
349,64.0,0,390,2.0,0.0
350,40.0,792,390,12.0,0.0
351,64.0,0,390,7.0,0.0
352,76.0,0,390,0.0,0.0
353,64.0,0,390,5.0,0.0
354,40.0,0,390,11.0,0.0
355,72.0,0,210,6.0,0.0
356,64.0,240,210,7.0,0.0
357,79.0,192,720,5.0,0.0
358,64.0,0,210,7.0,0.0
359,72.0,240,210,6.0,0.0
360,64.0,24,210,7.0,0.0
361,72.0,0,210,6.0,0.0
362,84.0,24,180,5.0,0.0
363,72.0,240,210,6.0,0.0
364,64.0,0,210,7.0,0.0
365,65.0,0,210,7.0,0.0
366,72.0,240,210,6.0,0.0
367,84.0,192,720,5.0,0.0
368,65.0,240,210,7.0,0.0
369,72.0,0,210,6.0,0.0
370,72.0,24,210,6.0,0.0
371,65.0,0,210,7.0,0.0
372,65.0,240,210,7.0,0.0
373,81.0,24,180,5.0,0.0
374,72.0,0,210,6.0,0.0
375,65.0,0,210,7.0,0.0
376,72.0,24,210,6.0,0.0
377,81.0,216,240,5.0,0.0
378,72.0,0,210,6.0,0.0
379,65.0,24,210,7.0,0.0
380,72.0,216,240,5.0,0.0
381,72.0,0,210,6.0,0.0
382,65.0,24,210,7.0,0.0
383,81.0,192,240,5.0,0.0
384,65.0,240,210,7.0,0.0
385,84.0,24,180,5.0,0.0
386,72.0,0,210,6.0,0.0
387,84.0,192,720,5.0,0.0
388,72.0,0,210,6.0,0.0
389,64.0,240,210,7.0,0.0
390,72.0,0,210,6.0,0.0
391,64.0,240,210,7.0,0.0
392,72.0,0,210,6.0,0.0
393,64.0,24,210,7.0,0.0
394,79.0,24,180,5.0,0.0
395,64.0,216,210,7.0,0.0
396,72.0,0,210,6.0,0.0
397,79.0,192,240,5.0,0.0
398,64.0,0,180,7.0,0.0
399,72.0,48,180,6.0,0.0
400,72.0,0,180,6.0,0.0
401,64.0,48,180,7.0,0.0
402,72.0,192,240,5.0,0.0
403,72.0,48,180,6.0,0.0
404,64.0,0,180,7.0,0.0
405,79.0,192,240,5.0,0.0
406,72.0,108,180,6.0,0.0
407,84.0,0,180,5.0,0.0
408,64.0,0,180,7.0,0.0
409,72.0,48,180,6.0,0.0
410,81.0,60,60,5.0,0.0
411,65.0,0,180,7.0,0.0
412,83.0,72,60,5.0,0.0
413,84.0,300,120,5.0,0.0
414,69.0,0,180,6.0,0.0
415,53.0,48,180,7.0,0.0
416,74.0,60,60,5.0,0.0
417,76.0,72,60,5.0,0.0
418,77.0,300,120,5.0,0.0
419,55.0,48,180,7.0,0.0
420,60.0,60,60,6.0,0.0
421,76.0,0,60,5.0,0.0
422,77.0,72,60,5.0,0.0
423,62.0,0,60,6.0,0.0
424,64.0,300,120,6.0,0.0
425,79.0,0,120,5.0,0.0
426,62.0,60,60,6.0,0.0
427,71.0,0,60,5.0,0.0
428,55.0,48,180,7.0,0.0
429,64.0,0,60,6.0,0.0
430,72.0,72,60,5.0,0.0
431,74.0,432,120,5.0,0.0
432,65.0,0,120,6.0,0.0
433,72.0,0,780,5.0,0.0
434,64.0,0,780,6.0,0.0
435,48.0,48,390,4.0,0.0
436,48.0,0,180,11.0,0.0
437,72.0,0,780,6.0,0.0
438,60.0,0,180,10.0,0.0
439,60.0,192,180,1.0,0.0
440,72.0,0,780,0.0,0.0
441,60.0,0,780,2.0,0.0
442,60.0,144,780,3.0,0.0
443,48.0,0,180,12.0,0.0
444,72.0,0,780,3.0,0.0
445,48.0,0,780,2.0,0.0
446,60.0,0,780,7.0,0.0
447,48.0,0,180,11.0,0.0
448,60.0,0,180,1.0,0.0
449,60.0,0,180,10.0,0.0
450,48.0,240,180,12.0,0.0
451,60.0,0,180,10.0,0.0
452,48.0,96,180,11.0,0.0
453,60.0,0,180,1.0,0.0
454,48.0,0,180,12.0,0.0
455,60.0,0,180,10.0,0.0
456,48.0,240,180,11.0,0.0
457,48.0,0,180,12.0,0.0
458,60.0,0,180,1.0,0.0
459,64.0,0,570,7.0,0.0
460,76.0,0,570,3.0,0.0
461,64.0,96,570,3.0,0.0
462,76.0,0,570,0.0,0.0
463,76.0,0,570,5.0,0.0
464,52.0,0,180,11.0,0.0
465,52.0,192,180,12.0,0.0
466,64.0,0,180,10.0,0.0
467,64.0,0,180,1.0,0.0
468,64.0,0,570,2.0,0.0
469,52.0,0,570,2.0,0.0
470,76.0,0,570,6.0,0.0
471,48.0,48,390,4.0,0.0
472,64.0,0,180,1.0,0.0
473,52.0,0,180,11.0,0.0
474,52.0,0,180,12.0,0.0
475,64.0,144,180,10.0,0.0
476,52.0,0,180,12.0,0.0
477,64.0,0,180,1.0,0.0
478,64.0,0,180,10.0,0.0
479,52.0,216,180,11.0,0.0
480,67.0,0,180,5.0,0.0
481,67.0,0,180,0.0,0.0
482,55.0,240,180,10.0,0.0
483,43.0,0,180,12.0,0.0
484,55.0,0,180,7.0,0.0
485,43.0,0,180,11.0,0.0
486,55.0,0,180,2.0,0.0
487,55.0,0,180,1.0,0.0
488,67.0,0,180,3.0,0.0
489,67.0,24,180,6.0,0.0
490,72.0,0,570,6.0,0.0
491,60.0,0,180,1.0,0.0
492,48.0,48,390,4.0,0.0
493,72.0,0,570,0.0,0.0
494,60.0,0,180,10.0,0.0
495,60.0,0,570,2.0,0.0
496,72.0,96,570,5.0,0.0
497,48.0,0,180,11.0,0.0
498,60.0,0,570,7.0,0.0
499,48.0,192,180,12.0,0.0
500,72.0,0,570,3.0,0.0
501,60.0,144,180,10.0,0.0
502,48.0,0,180,11.0,0.0
503,48.0,0,180,12.0,0.0
504,60.0,0,180,1.0,0.0
505,60.0,0,180,1.0,0.0
506,48.0,0,180,11.0,0.0
507,60.0,0,180,10.0,0.0
508,48.0,216,180,12.0,0.0
509,40.0,0,180,12.0,0.0
510,64.0,0,180,2.0,0.0
511,52.0,0,180,2.0,0.0
512,64.0,0,180,5.0,0.0
513,40.0,0,180,11.0,0.0
514,64.0,24,180,0.0,0.0
515,64.0,0,180,3.0,0.0
516,64.0,0,180,6.0,0.0
517,52.0,0,180,10.0,0.0
518,52.0,216,180,1.0,0.0
519,52.0,0,180,7.0,0.0
520,43.0,192,180,12.0,0.0
521,55.0,0,180,2.0,0.0
522,67.0,0,180,2.0,0.0
523,43.0,0,180,11.0,0.0
524,67.0,0,180,3.0,0.0
525,55.0,0,180,10.0,0.0
526,55.0,0,180,1.0,0.0
527,67.0,0,180,0.0,0.0
528,67.0,24,180,6.0,0.0
529,55.0,0,180,7.0,0.0
530,43.0,24,390,4.0,0.0
531,67.0,0,180,5.0,0.0
532,36.0,0,180,12.0,0.0
533,60.0,0,180,2.0,0.0
534,48.0,0,180,2.0,0.0
535,36.0,216,180,11.0,0.0
536,60.0,0,180,0.0,0.0
537,60.0,0,180,3.0,0.0
538,48.0,0,180,7.0,0.0
539,48.0,0,180,10.0,0.0
540,60.0,0,180,5.0,0.0
541,48.0,0,180,1.0,0.0
542,60.0,24,180,6.0,0.0
543,52.0,0,180,7.0,0.0
544,52.0,192,180,10.0,0.0
545,64.0,0,180,3.0,0.0
546,52.0,0,180,1.0,0.0
547,52.0,24,180,2.0,0.0
548,64.0,0,180,6.0,0.0
549,40.0,0,180,11.0,0.0
550,64.0,0,180,0.0,0.0
551,43.0,24,390,4.0,0.0
552,40.0,0,180,12.0,0.0
553,64.0,0,180,2.0,0.0
554,64.0,0,180,5.0,0.0
555,43.0,0,180,1.0,0.0
556,55.0,24,180,2.0,0.0
557,43.0,0,180,2.0,0.0
558,67.0,0,180,3.0,0.0
559,55.0,0,180,3.0,0.0
560,55.0,0,180,6.0,0.0
561,67.0,0,180,0.0,0.0
562,55.0,0,180,5.0,0.0
563,31.0,0,180,12.0,0.0
564,43.0,0,180,10.0,0.0
565,31.0,144,180,11.0,0.0
566,55.0,0,180,7.0,0.0
567,60.0,0,390,7.0,0.0
568,72.0,0,420,0.0,0.0
569,36.0,0,390,12.0,0.0
570,48.0,0,390,10.0,0.0
571,60.0,120,90,5.0,0.0
572,36.0,0,390,11.0,0.0
573,60.0,0,390,2.0,0.0
574,48.0,0,390,2.0,0.0
575,64.0,0,390,3.0,0.0
576,60.0,0,390,3.0,0.0
577,48.0,0,390,4.0,0.0
578,48.0,24,390,1.0,0.0
579,60.0,0,90,6.0,0.0
580,60.0,0,90,6.0,0.0
581,60.0,120,90,5.0,0.0
582,55.0,48,90,5.0,0.0
583,67.0,48,180,0.0,0.0
584,55.0,0,90,6.0,0.0
585,55.0,0,90,6.0,0.0
586,55.0,120,90,5.0,0.0
587,57.0,0,90,5.0,0.0
588,69.0,48,180,0.0,0.0
589,57.0,72,90,6.0,0.0
590,57.0,0,90,5.0,0.0
591,57.0,120,90,6.0,0.0
592,59.0,0,90,5.0,0.0
593,71.0,48,180,0.0,0.0
594,59.0,72,90,6.0,0.0
595,59.0,120,90,6.0,0.0
596,59.0,0,90,5.0,0.0
597,72.0,0,390,0.0,0.0
598,48.0,0,390,4.0,0.0
599,60.0,0,390,1.0,0.0
600,64.0,0,390,3.0,0.0
601,48.0,0,390,11.0,0.0
602,60.0,72,390,10.0,0.0
603,60.0,0,90,5.0,0.0
604,60.0,120,90,6.0,0.0
605,52.0,0,390,7.0,0.0
606,48.0,0,390,12.0,0.0
607,72.0,0,390,3.0,0.0
608,52.0,0,390,2.0,0.0
609,60.0,0,390,2.0,0.0
610,60.0,120,90,6.0,0.0
611,60.0,0,90,5.0,0.0
612,55.0,0,90,6.0,0.0
613,55.0,48,90,5.0,0.0
614,55.0,0,90,5.0,0.0
615,55.0,120,90,6.0,0.0
616,62.0,0,390,2.0,0.0
617,43.0,0,390,11.0,0.0
618,43.0,0,390,4.0,0.0
619,55.0,72,390,7.0,0.0
620,59.0,0,90,6.0,0.0
621,67.0,0,390,3.0,0.0
622,43.0,0,390,12.0,0.0
623,55.0,0,390,2.0,0.0
624,74.0,0,390,0.0,0.0
625,55.0,0,390,10.0,0.0
626,74.0,0,390,3.0,0.0
627,62.0,120,90,5.0,0.0
628,55.0,0,390,1.0,0.0
629,59.0,0,90,6.0,0.0
630,62.0,120,90,5.0,0.0
631,55.0,0,90,5.0,0.0
632,55.0,48,90,6.0,0.0
633,55.0,0,90,6.0,0.0
634,55.0,120,90,5.0,0.0
635,48.0,48,390,4.0,0.0
636,72.0,0,180,0.0,0.0
637,64.0,0,390,2.0,0.0
638,36.0,0,390,12.0,0.0
639,72.0,0,390,3.0,0.0
640,60.0,0,390,2.0,0.0
641,76.0,24,180,0.0,0.0
642,64.0,0,90,5.0,0.0
643,60.0,96,90,6.0,0.0
644,48.0,0,390,10.0,0.0
645,76.0,0,390,3.0,0.0
646,48.0,0,390,1.0,0.0
647,36.0,0,390,11.0,0.0
648,55.0,0,390,7.0,0.0
649,64.0,0,90,5.0,0.0
650,60.0,120,90,6.0,0.0
651,67.0,0,180,0.0,0.0
652,71.0,24,180,0.0,0.0
653,55.0,48,90,6.0,0.0
654,59.0,0,90,5.0,0.0
655,55.0,0,90,6.0,0.0
656,59.0,120,90,5.0,0.0
657,60.0,0,90,5.0,0.0
658,72.0,24,180,0.0,0.0
659,69.0,0,180,0.0,0.0
660,57.0,96,90,6.0,0.0
661,57.0,0,90,6.0,0.0
662,60.0,120,90,5.0,0.0
663,71.0,24,180,0.0,0.0
664,74.0,0,180,0.0,0.0
665,59.0,0,90,6.0,0.0
666,62.0,96,90,5.0,0.0
667,59.0,0,90,6.0,0.0
668,62.0,120,90,5.0,0.0
669,48.0,72,390,4.0,0.0
670,60.0,0,90,6.0,0.0
671,72.0,0,390,0.0,0.0
672,76.0,0,390,0.0,0.0
673,48.0,0,390,1.0,0.0
674,72.0,0,390,3.0,0.0
675,60.0,0,390,3.0,0.0
676,60.0,0,390,2.0,0.0
677,55.0,0,390,7.0,0.0
678,48.0,0,390,2.0,0.0
679,64.0,120,90,5.0,0.0
680,36.0,0,390,12.0,0.0
681,48.0,0,390,10.0,0.0
682,36.0,0,390,11.0,0.0
683,64.0,0,90,5.0,0.0
684,60.0,120,90,6.0,0.0
685,60.0,48,90,5.0,0.0
686,55.0,0,90,6.0,0.0
687,55.0,120,90,6.0,0.0
688,60.0,0,90,5.0,0.0
689,55.0,0,390,7.0,0.0
690,48.0,0,390,12.0,0.0
691,48.0,0,390,11.0,0.0
692,77.0,0,390,0.0,0.0
693,60.0,0,390,1.0,0.0
694,60.0,0,390,2.0,0.0
695,48.0,0,390,2.0,0.0
696,48.0,72,390,4.0,0.0
697,60.0,0,390,10.0,0.0
698,72.0,0,390,3.0,0.0
699,60.0,0,390,3.0,0.0
700,65.0,0,90,5.0,0.0
701,74.0,0,390,0.0,0.0
702,62.0,120,90,6.0,0.0
703,65.0,0,90,5.0,0.0
704,62.0,120,90,6.0,0.0
705,62.0,48,90,5.0,0.0
706,55.0,0,90,6.0,0.0
707,62.0,0,90,5.0,0.0
708,55.0,120,90,6.0,0.0
709,48.0,0,390,10.0,0.0
710,55.0,0,390,7.0,0.0
711,67.0,120,90,5.0,0.0
712,72.0,0,390,3.0,0.0
713,60.0,0,390,3.0,0.0
714,48.0,144,1740,2.0,0.0
715,60.0,0,1740,2.0,0.0
716,79.0,0,1740,0.0,0.0
717,36.0,0,390,11.0,0.0
718,48.0,0,390,4.0,0.0
719,76.0,0,1740,0.0,0.0
720,48.0,0,390,1.0,0.0
721,64.0,0,90,6.0,0.0
722,36.0,72,390,12.0,0.0
723,60.0,0,90,6.0,0.0
724,60.0,120,90,5.0,0.0
725,62.0,0,90,5.0,0.0
726,62.0,48,90,6.0,0.0
727,64.0,120,90,6.0,0.0
728,64.0,0,90,5.0,0.0
729,65.0,120,90,5.0,0.0
730,65.0,0,90,6.0,0.0
731,67.0,0,90,6.0,0.0
732,67.0,120,90,5.0,0.0
733,69.0,120,90,5.0,0.0
734,69.0,0,90,6.0,0.0
735,71.0,120,90,6.0,0.0
736,71.0,0,90,5.0,0.0
737,72.0,0,90,5.0,0.0
738,72.0,120,90,6.0,0.0
739,74.0,120,90,5.0,0.0
740,74.0,0,90,6.0,0.0
741,76.0,120,90,6.0,0.0
742,76.0,0,90,5.0,0.0
743,77.0,0,90,6.0,0.0
744,77.0,216,90,5.0,0.0
745,79.0,0,180,5.0,0.0
746,79.0,96,180,6.0,0.0
747,72.0,0,180,5.0,0.0
748,72.0,312,180,6.0,0.0
749,81.0,0,270,0.0,0.0
750,77.0,0,270,0.0,0.0
751,48.0,0,270,2.0,0.0
752,65.0,0,270,5.0,0.0
753,72.0,0,270,5.0,0.0
754,41.0,0,270,11.0,0.0
755,53.0,0,270,10.0,0.0
756,53.0,0,270,1.0,0.0
757,60.0,0,270,3.0,0.0
758,41.0,0,270,12.0,0.0
759,60.0,0,270,2.0,0.0
760,81.0,0,270,5.0,0.0
761,72.0,0,270,3.0,0.0
762,65.0,0,270,7.0,0.0
763,48.0,0,270,4.0,0.0
764,65.0,0,270,6.0,0.0
765,72.0,480,270,6.0,0.0
766,81.0,0,270,6.0,0.0
767,48.0,0,270,4.0,0.0
768,79.0,0,270,6.0,0.0
769,72.0,0,270,6.0,0.0
770,64.0,0,270,6.0,0.0
771,60.0,0,270,3.0,0.0
772,79.0,0,270,5.0,0.0
773,76.0,0,270,0.0,0.0
774,36.0,0,270,12.0,0.0
775,48.0,0,270,10.0,0.0
776,72.0,0,270,5.0,0.0
777,64.0,0,270,5.0,0.0
778,48.0,0,270,1.0,0.0
779,79.0,0,270,0.0,0.0
780,72.0,0,270,3.0,0.0
781,60.0,816,270,7.0,0.0
782,48.0,0,270,2.0,0.0
783,60.0,0,270,2.0,0.0
784,36.0,0,270,11.0,0.0
785,81.0,120,120,5.0,0.0
786,79.0,120,120,5.0,0.0
787,77.0,96,120,5.0,0.0
788,76.0,216,90,5.0,0.0
789,76.0,192,240,5.0,0.0
790,65.0,0,180,7.0,0.0
791,72.0,48,180,6.0,0.0
792,74.0,0,180,5.0,0.0
793,65.0,240,180,7.0,0.0
794,72.0,0,180,6.0,0.0
795,72.0,0,180,6.0,0.0
796,74.0,192,720,5.0,0.0
797,65.0,240,180,7.0,0.0
798,65.0,240,180,7.0,0.0
799,72.0,0,180,6.0,0.0
800,71.0,48,180,6.0,0.0
801,67.0,0,180,7.0,0.0
802,75.0,192,240,5.0,0.0
803,71.0,48,180,6.0,0.0
804,67.0,0,180,7.0,0.0
805,71.0,48,180,6.0,0.0
806,67.0,0,240,7.0,0.0
807,76.0,192,240,5.0,0.0
808,68.0,192,240,7.0,0.0
809,64.0,48,180,6.0,0.0
810,71.0,0,180,5.0,0.0
811,64.0,0,180,6.0,0.0
812,69.0,48,180,7.0,0.0
813,74.0,192,240,5.0,0.0
814,73.0,192,240,5.0,0.0
815,64.0,0,180,6.0,0.0
816,57.0,48,180,7.0,0.0
817,64.0,240,180,6.0,0.0
818,57.0,0,180,7.0,0.0
819,72.0,120,720,5.0,0.0
820,64.0,0,180,6.0,0.0
821,57.0,240,180,7.0,0.0
822,69.0,0,240,6.0,0.0
823,54.0,48,180,7.0,0.0
824,66.0,48,180,7.0,0.0
825,74.0,72,120,5.0,0.0
826,71.0,0,120,6.0,0.0
827,76.0,0,120,5.0,0.0
828,72.0,144,120,6.0,0.0
829,71.0,0,150,6.0,0.0
830,74.0,48,150,5.0,0.0
831,66.0,192,180,7.0,0.0
832,72.0,0,150,5.0,0.0
833,69.0,48,150,6.0,0.0
834,66.0,288,180,7.0,0.0
835,71.0,0,240,5.0,0.0
836,67.0,192,240,6.0,0.0
837,67.0,96,780,7.0,0.0
838,74.0,288,180,5.0,0.0
839,71.0,0,180,6.0,0.0
840,71.0,48,390,6.0,0.0
841,74.0,48,240,5.0,0.0
842,79.0,168,180,5.0,0.0
843,79.0,120,120,5.0,0.0
844,64.0,96,780,7.0,0.0
845,71.0,144,480,6.0,0.0
846,78.0,120,120,5.0,0.0
847,79.0,120,120,5.0,0.0
848,78.0,0,120,5.0,0.0
849,79.0,144,150,5.0,0.0
850,67.0,192,390,6.0,0.0
851,73.0,0,150,5.0,0.0
852,62.0,0,90,7.0,0.0
853,74.0,72,390,5.0,0.0
854,66.0,120,90,6.0,0.0
855,62.0,120,90,7.0,0.0
856,62.0,0,90,6.0,0.0
857,62.0,0,90,6.0,0.0
858,62.0,48,90,7.0,0.0
859,62.0,0,90,6.0,0.0
860,62.0,120,90,7.0,0.0
861,62.0,120,90,7.0,0.0
862,62.0,0,90,6.0,0.0
863,62.0,0,90,7.0,0.0
864,62.0,120,90,6.0,0.0
865,62.0,0,90,6.0,0.0
866,62.0,120,90,7.0,0.0
867,62.0,0,90,6.0,0.0
868,62.0,120,90,7.0,0.0
869,62.0,0,180,2.0,0.0
870,72.0,0,180,0.0,0.0
871,38.0,0,180,11.0,0.0
872,62.0,72,90,6.0,0.0
873,78.0,24,180,0.0,0.0
874,62.0,0,90,7.0,0.0
875,62.0,0,330,5.0,0.0
876,50.0,0,180,10.0,0.0
877,38.0,0,180,12.0,0.0
878,54.0,0,180,1.0,0.0
879,74.0,0,330,3.0,0.0
880,57.0,24,180,1.0,0.0
881,69.0,0,330,5.0,0.0
882,78.0,0,330,5.0,0.0
883,62.0,120,90,6.0,0.0
884,62.0,0,90,7.0,0.0
885,50.0,0,180,12.0,0.0
886,54.0,0,180,1.0,0.0
887,57.0,24,180,1.0,0.0
888,50.0,0,180,11.0,0.0
889,62.0,72,90,7.0,0.0
890,62.0,0,180,2.0,0.0
891,62.0,0,90,6.0,0.0
892,72.0,0,180,0.0,0.0
893,78.0,0,180,0.0,0.0
894,62.0,24,180,10.0,0.0
895,62.0,120,90,7.0,0.0
896,62.0,0,90,6.0,0.0
897,69.0,72,330,5.0,0.0
898,78.0,0,330,5.0,0.0
899,62.0,0,330,5.0,0.0
900,38.0,0,180,11.0,0.0
901,72.0,0,180,0.0,0.0
902,74.0,0,330,3.0,0.0
903,62.0,72,90,6.0,0.0
904,62.0,0,90,7.0,0.0
905,38.0,24,180,12.0,0.0
906,57.0,0,180,1.0,0.0
907,54.0,0,180,1.0,0.0
908,50.0,0,180,10.0,0.0
909,78.0,0,180,0.0,0.0
910,62.0,24,180,2.0,0.0
911,62.0,120,90,7.0,0.0
912,62.0,0,90,6.0,0.0
913,62.0,24,180,2.0,0.0
914,62.0,0,90,7.0,0.0
915,62.0,24,180,10.0,0.0
916,62.0,0,90,6.0,0.0
917,54.0,0,180,1.0,0.0
918,72.0,0,180,0.0,0.0
919,50.0,0,180,11.0,0.0
920,78.0,0,180,0.0,0.0
921,57.0,0,180,1.0,0.0
922,50.0,0,180,12.0,0.0
923,62.0,120,90,7.0,0.0
924,62.0,0,90,6.0,0.0
925,62.0,120,90,7.0,0.0
926,55.0,0,390,1.0,0.0
927,59.0,0,390,1.0,0.0
928,74.0,72,390,3.0,0.0
929,62.0,0,90,6.0,0.0
930,38.0,0,390,11.0,0.0
931,62.0,0,390,5.0,0.0
932,79.0,0,390,5.0,0.0
933,71.0,0,390,5.0,0.0
934,71.0,0,390,0.0,0.0
935,79.0,0,390,0.0,0.0
936,62.0,0,390,2.0,0.0
937,50.0,0,390,10.0,0.0
938,38.0,0,390,12.0,0.0
939,62.0,0,90,7.0,0.0
940,62.0,120,90,6.0,0.0
941,62.0,48,90,7.0,0.0
942,62.0,0,90,6.0,0.0
943,62.0,0,90,7.0,0.0
944,62.0,120,90,6.0,0.0
945,62.0,120,90,7.0,0.0
946,62.0,0,90,6.0,0.0
947,62.0,0,90,7.0,0.0
948,62.0,120,90,6.0,0.0
949,62.0,0,90,7.0,0.0
950,62.0,120,90,6.0,0.0
951,62.0,120,90,6.0,0.0
952,62.0,0,90,7.0,0.0
953,50.0,0,180,10.0,0.0
954,79.0,0,180,0.0,0.0
955,38.0,24,180,11.0,0.0
956,59.0,24,180,1.0,0.0
957,62.0,0,330,5.0,0.0
958,38.0,0,180,12.0,0.0
959,79.0,0,330,5.0,0.0
960,71.0,0,330,5.0,0.0
961,62.0,72,90,7.0,0.0
962,71.0,0,180,0.0,0.0
963,74.0,0,330,3.0,0.0
964,62.0,0,180,2.0,0.0
965,55.0,0,180,1.0,0.0
966,62.0,0,90,6.0,0.0
967,62.0,0,90,7.0,0.0
968,62.0,120,90,6.0,0.0
969,50.0,0,180,11.0,0.0
970,62.0,0,180,2.0,0.0
971,62.0,24,180,10.0,0.0
972,79.0,0,180,0.0,0.0
973,50.0,0,180,12.0,0.0
974,62.0,72,90,7.0,0.0
975,62.0,0,90,6.0,0.0
976,71.0,0,180,0.0,0.0
977,55.0,24,180,1.0,0.0
978,59.0,0,180,1.0,0.0
979,62.0,0,90,7.0,0.0
980,62.0,120,90,6.0,0.0
981,71.0,0,330,5.0,0.0
982,62.0,0,330,5.0,0.0
983,79.0,0,330,5.0,0.0
984,38.0,0,180,11.0,0.0
985,50.0,0,180,10.0,0.0
986,71.0,0,180,0.0,0.0
987,79.0,0,180,0.0,0.0
988,62.0,0,90,6.0,0.0
989,59.0,0,180,1.0,0.0
990,55.0,0,180,1.0,0.0
991,38.0,24,180,12.0,0.0
992,74.0,0,330,3.0,0.0
993,62.0,72,90,7.0,0.0
994,62.0,24,180,2.0,0.0
995,62.0,0,90,6.0,0.0
996,62.0,120,90,7.0,0.0
997,50.0,0,180,11.0,0.0
998,50.0,0,180,12.0,0.0
999,62.0,72,90,6.0,0.0
1000,62.0,24,180,2.0,0.0
1001,55.0,0,180,1.0,0.0
1002,59.0,0,180,1.0,0.0
1003,62.0,24,180,10.0,0.0
1004,62.0,0,90,7.0,0.0
1005,71.0,0,180,0.0,0.0
1006,79.0,0,180,0.0,0.0
1007,62.0,120,90,7.0,0.0
1008,62.0,0,90,6.0,0.0
1009,62.0,0,90,6.0,0.0
1010,50.0,0,390,10.0,0.0
1011,78.0,0,390,5.0,0.0
1012,62.0,0,390,5.0,0.0
1013,81.0,0,390,5.0,0.0
1014,60.0,0,390,1.0,0.0
1015,57.0,0,390,1.0,0.0
1016,74.0,72,390,3.0,0.0
1017,62.0,120,90,7.0,0.0
1018,62.0,0,390,2.0,0.0
1019,81.0,0,390,0.0,0.0
1020,78.0,0,390,0.0,0.0
1021,38.0,0,390,11.0,0.0
1022,38.0,0,390,12.0,0.0
1023,62.0,120,90,6.0,0.0
1024,62.0,0,90,7.0,0.0
1025,62.0,0,90,7.0,0.0
1026,62.0,48,90,6.0,0.0
1027,62.0,0,90,7.0,0.0
1028,62.0,120,90,6.0,0.0
1029,62.0,0,90,6.0,0.0
1030,62.0,120,90,7.0,0.0
1031,62.0,0,90,6.0,0.0
1032,62.0,120,90,7.0,0.0
1033,62.0,120,90,7.0,0.0
1034,62.0,0,90,6.0,0.0
1035,62.0,120,90,7.0,0.0
1036,62.0,0,90,6.0,0.0
1037,57.0,0,180,1.0,0.0
1038,50.0,0,180,10.0,0.0
1039,78.0,0,180,0.0,0.0
1040,81.0,0,180,0.0,0.0
1041,74.0,72,330,3.0,0.0
1042,38.0,24,180,11.0,0.0
1043,60.0,0,180,1.0,0.0
1044,62.0,0,90,7.0,0.0
1045,38.0,0,180,12.0,0.0
1046,78.0,0,330,5.0,0.0
1047,62.0,0,330,5.0,0.0
1048,62.0,24,180,2.0,0.0
1049,62.0,72,90,6.0,0.0
1050,81.0,0,330,5.0,0.0
1051,62.0,0,90,7.0,0.0
1052,62.0,120,90,6.0,0.0
1053,62.0,0,180,2.0,0.0
1054,50.0,24,180,11.0,0.0
1055,62.0,0,180,10.0,0.0
1056,62.0,0,90,6.0,0.0
1057,81.0,0,180,0.0,0.0
1058,78.0,0,180,0.0,0.0
1059,60.0,0,180,1.0,0.0
1060,50.0,0,180,12.0,0.0
1061,62.0,0,90,7.0,0.0
1062,57.0,24,180,1.0,0.0
1063,62.0,0,90,7.0,0.0
1064,62.0,120,90,6.0,0.0
1065,38.0,24,180,11.0,0.0
1066,81.0,72,330,5.0,0.0
1067,62.0,0,90,6.0,0.0
1068,62.0,0,330,5.0,0.0
1069,78.0,0,330,5.0,0.0
1070,57.0,0,180,1.0,0.0
1071,62.0,24,180,2.0,0.0
1072,60.0,0,180,1.0,0.0
1073,62.0,72,90,7.0,0.0
1074,38.0,0,180,12.0,0.0
1075,74.0,0,330,3.0,0.0
1076,81.0,0,180,0.0,0.0
1077,78.0,0,180,0.0,0.0
1078,50.0,0,180,10.0,0.0
1079,62.0,0,90,7.0,0.0
1080,62.0,120,90,6.0,0.0
1081,62.0,24,180,10.0,0.0
1082,50.0,0,180,12.0,0.0
1083,62.0,0,180,2.0,0.0
1084,50.0,0,180,11.0,0.0
1085,81.0,0,180,0.0,0.0
1086,62.0,0,90,6.0,0.0
1087,78.0,0,180,0.0,0.0
1088,60.0,24,180,1.0,0.0
1089,57.0,0,180,1.0,0.0
1090,62.0,0,90,7.0,0.0
1091,62.0,120,90,6.0,0.0
1092,62.0,0,90,7.0,0.0
1093,38.0,0,390,12.0,0.0
1094,79.0,0,390,5.0,0.0
1095,50.0,0,390,10.0,0.0
1096,55.0,0,390,1.0,0.0
1097,62.0,0,390,2.0,0.0
1098,83.0,0,390,0.0,0.0
1099,79.0,0,390,0.0,0.0
1100,62.0,0,90,7.0,0.0
1101,38.0,72,390,11.0,0.0
1102,59.0,0,390,1.0,0.0
1103,83.0,0,390,5.0,0.0
1104,74.0,0,390,3.0,0.0
1105,62.0,0,390,5.0,0.0
1106,62.0,120,90,6.0,0.0
1107,62.0,0,90,7.0,0.0
1108,62.0,120,90,6.0,0.0
1109,62.0,48,90,7.0,0.0
1110,62.0,0,90,6.0,0.0
1111,62.0,0,90,6.0,0.0
1112,62.0,120,90,7.0,0.0
1113,62.0,0,90,6.0,0.0
1114,62.0,120,90,7.0,0.0
1115,62.0,120,90,7.0,0.0
1116,62.0,0,90,6.0,0.0
1117,62.0,120,90,7.0,0.0
1118,62.0,0,90,6.0,0.0
1119,62.0,0,90,7.0,0.0
1120,62.0,120,90,6.0,0.0
1121,62.0,0,90,6.0,0.0
1122,55.0,0,180,1.0,0.0
1123,79.0,0,330,5.0,0.0
1124,62.0,0,330,5.0,0.0
1125,83.0,0,330,5.0,0.0
1126,62.0,24,180,2.0,0.0
1127,59.0,0,180,1.0,0.0
1128,74.0,0,330,3.0,0.0
1129,83.0,0,180,0.0,0.0
1130,62.0,72,90,7.0,0.0
1131,50.0,24,180,10.0,0.0
1132,38.0,0,180,11.0,0.0
1133,38.0,0,180,12.0,0.0
1134,79.0,0,180,0.0,0.0
1135,62.0,120,90,7.0,0.0
1136,62.0,0,90,6.0,0.0
1137,50.0,0,180,11.0,0.0
1138,50.0,0,180,12.0,0.0
1139,62.0,0,90,6.0,0.0
1140,62.0,72,90,7.0,0.0
1141,83.0,0,180,0.0,0.0
1142,62.0,24,180,10.0,0.0
1143,79.0,24,180,0.0,0.0
1144,55.0,0,180,1.0,0.0
1145,62.0,0,180,2.0,0.0
1146,59.0,0,180,1.0,0.0
1147,62.0,120,90,6.0,0.0
1148,62.0,0,90,7.0,0.0
1149,79.0,0,330,5.0,0.0
1150,83.0,0,330,5.0,0.0
1151,62.0,72,330,5.0,0.0
1152,74.0,0,330,3.0,0.0
1153,38.0,0,180,12.0,0.0
1154,55.0,0,180,1.0,0.0
1155,62.0,72,90,6.0,0.0
1156,50.0,0,180,10.0,0.0
1157,59.0,0,180,1.0,0.0
1158,38.0,24,180,11.0,0.0
1159,62.0,0,90,7.0,0.0
1160,62.0,0,180,2.0,0.0
1161,79.0,24,180,0.0,0.0
1162,83.0,0,180,0.0,0.0
1163,62.0,0,90,7.0,0.0
1164,62.0,120,90,6.0,0.0
1165,62.0,0,90,6.0,0.0
1166,83.0,0,180,0.0,0.0
1167,59.0,0,180,1.0,0.0
1168,55.0,0,180,1.0,0.0
1169,50.0,0,180,11.0,0.0
1170,79.0,24,180,0.0,0.0
1171,62.0,0,180,2.0,0.0
1172,62.0,0,180,10.0,0.0
1173,62.0,0,90,7.0,0.0
1174,50.0,24,180,12.0,0.0
1175,62.0,408,90,7.0,0.0
1176,62.0,0,90,6.0,0.0
1177,50.0,0,390,10.0,0.0
1178,38.0,336,390,11.0,0.0
1179,84.0,0,390,0.0,0.0
1180,81.0,0,390,0.0,0.0
1181,57.0,0,390,1.0,0.0
1182,38.0,0,390,12.0,0.0
1183,54.0,0,390,1.0,0.0
1184,57.0,0,390,7.0,0.0
1185,74.0,0,390,3.0,0.0
1186,84.0,0,720,5.0,0.0
1187,66.0,0,390,7.0,0.0
1188,62.0,0,390,2.0,0.0
1189,72.0,240,720,6.0,0.0
1190,69.0,0,240,6.0,0.0
1191,81.0,240,240,5.0,0.0
1192,79.0,240,240,5.0,0.0
1193,67.0,0,240,6.0,0.0
1194,66.0,240,240,6.0,0.0
1195,78.0,0,240,5.0,0.0
1196,76.0,228,240,5.0,0.0
1197,64.0,0,240,6.0,0.0
1198,62.0,0,240,6.0,0.0
1199,74.0,252,240,5.0,0.0
1200,61.0,240,240,6.0,0.0
1201,73.0,0,240,5.0,0.0
1202,74.0,0,240,5.0,0.0
1203,62.0,240,240,6.0,0.0
1204,76.0,0,240,5.0,0.0
1205,64.0,228,240,6.0,0.0
1206,74.0,0,240,5.0,0.0
1207,62.0,252,240,6.0,0.0
1208,74.0,0,240,5.0,0.0
1209,62.0,240,240,6.0,0.0
1210,73.0,0,240,5.0,0.0
1211,61.0,240,240,6.0,0.0
1212,60.0,0,240,6.0,0.0
1213,72.0,192,240,5.0,0.0
1214,57.0,0,180,6.0,0.0
1215,69.0,816,180,5.0,0.0
1216,55.0,0,3780,10.0,0.0
1217,43.0,0,3780,11.0,0.0
1218,55.0,0,3780,7.0,0.0
1219,43.0,288,3780,12.0,0.0
1220,67.0,252,780,5.0,0.0
1221,59.0,0,780,6.0,0.0
1222,62.0,0,60,6.0,0.0
1223,71.0,180,60,5.0,0.0
1224,60.0,0,180,6.0,0.0
1225,69.0,240,180,5.0,0.0
1226,59.0,0,240,6.0,0.0
1227,67.0,240,240,5.0,0.0
1228,60.0,0,240,6.0,0.0
1229,69.0,192,240,5.0,0.0
1230,71.0,0,180,5.0,0.0
1231,62.0,336,180,6.0,0.0
1232,59.0,1152,300,6.0,0.0
1233,67.0,0,300,5.0,0.0
1234,72.0,0,960,5.0,0.0
1235,64.0,384,960,6.0,0.0
1236,71.0,0,390,5.0,0.0
1237,62.0,48,390,6.0,0.0
1238,60.0,144,300,10.0,0.0
1239,48.0,0,300,12.0,0.0
1240,64.0,0,300,7.0,0.0
1241,71.0,48,240,5.0,0.0
1242,48.0,0,300,11.0,0.0
1243,64.0,0,300,6.0,0.0
1244,69.0,288,180,5.0,0.0
1245,69.0,192,240,5.0,0.0
1246,47.0,0,480,11.0,0.0
1247,47.0,0,480,12.0,0.0
1248,62.0,0,480,7.0,0.0
1249,65.0,240,480,6.0,0.0
1250,59.0,0,480,10.0,0.0
1251,68.0,48,180,5.0,0.0
1252,60.0,0,300,10.0,0.0
1253,71.0,48,240,5.0,0.0
1254,48.0,0,300,12.0,0.0
1255,64.0,0,300,6.0,0.0
1256,64.0,144,300,7.0,0.0
1257,48.0,0,300,11.0,0.0
1258,69.0,288,180,5.0,0.0
1259,62.0,0,480,7.0,0.0
1260,69.0,192,240,5.0,0.0
1261,59.0,0,480,10.0,0.0
1262,65.0,0,480,6.0,0.0
1263,47.0,0,480,12.0,0.0
1264,47.0,240,480,11.0,0.0
1265,68.0,48,180,5.0,0.0
1266,48.0,0,300,11.0,0.0
1267,64.0,144,300,7.0,0.0
1268,48.0,0,300,12.0,0.0
1269,64.0,0,960,6.0,0.0
1270,60.0,0,300,10.0,0.0
1271,71.0,48,240,5.0,0.0
1272,69.0,288,180,5.0,0.0
1273,60.0,0,480,10.0,0.0
1274,48.0,0,480,11.0,0.0
1275,48.0,240,480,12.0,0.0
1276,57.0,0,870,7.0,0.0
1277,69.0,192,240,5.0,0.0
1278,67.0,48,180,5.0,0.0
1279,50.0,0,390,11.0,0.0
1280,67.0,144,240,5.0,0.0
1281,62.0,0,390,10.0,0.0
1282,50.0,0,390,12.0,0.0
1283,62.0,48,390,6.0,0.0
1284,66.0,288,180,5.0,0.0
1285,64.0,192,240,5.0,0.0
1286,62.0,816,180,5.0,0.0
1287,67.0,0,780,5.0,0.0
1288,55.0,0,3780,7.0,0.0
1289,43.0,96,3270,2.0,0.0
1290,43.0,288,3780,11.0,0.0
1291,55.0,0,3270,2.0,0.0
1292,79.0,252,780,0.0,0.0
1293,59.0,0,780,6.0,0.0
1294,55.0,0,3780,10.0,0.0
1295,43.0,0,3780,12.0,0.0
1296,59.0,0,780,1.0,0.0
1297,71.0,180,60,5.0,0.0
1298,83.0,0,60,0.0,0.0
1299,62.0,0,60,1.0,0.0
1300,62.0,0,60,6.0,0.0
1301,81.0,0,180,0.0,0.0
1302,60.0,0,180,1.0,0.0
1303,60.0,240,180,6.0,0.0
1304,69.0,0,180,5.0,0.0
1305,59.0,240,240,1.0,0.0
1306,67.0,0,240,5.0,0.0
1307,79.0,0,240,0.0,0.0
1308,59.0,0,240,6.0,0.0
1309,60.0,0,240,6.0,0.0
1310,69.0,0,240,5.0,0.0
1311,60.0,192,240,1.0,0.0
1312,81.0,0,240,0.0,0.0
1313,62.0,0,180,6.0,0.0
1314,83.0,0,180,0.0,0.0
1315,71.0,0,180,5.0,0.0
1316,62.0,336,180,1.0,0.0
1317,59.0,0,300,1.0,0.0
1318,59.0,0,300,6.0,0.0
1319,79.0,0,300,0.0,0.0
1320,67.0,1056,300,5.0,0.0
1321,64.0,384,960,1.0,0.0
1322,72.0,0,960,5.0,0.0
1323,84.0,0,960,0.0,0.0
1324,64.0,0,960,6.0,0.0
1325,62.0,48,390,6.0,0.0
1326,62.0,0,390,1.0,0.0
1327,71.0,0,390,5.0,0.0
1328,83.0,0,390,0.0,0.0
1329,71.0,192,240,5.0,0.0
1330,38.0,0,480,11.0,0.0
1331,60.0,0,480,1.0,0.0
1332,83.0,0,240,0.0,0.0
1333,60.0,0,480,7.0,0.0
1334,38.0,240,480,12.0,0.0
1335,66.0,0,480,6.0,0.0
1336,50.0,0,480,10.0,0.0
1337,81.0,0,180,0.0,0.0
1338,69.0,48,180,5.0,0.0
1339,52.0,0,450,10.0,0.0
1340,81.0,0,240,0.0,0.0
1341,40.0,0,450,11.0,0.0
1342,59.0,0,450,7.0,0.0
1343,59.0,0,450,1.0,0.0
1344,67.0,0,450,6.0,0.0
1345,40.0,264,450,12.0,0.0
1346,69.0,192,240,5.0,0.0
1347,79.0,0,180,0.0,0.0
1348,67.0,24,180,5.0,0.0
1349,60.0,0,480,1.0,0.0
1350,48.0,0,480,10.0,0.0
1351,60.0,240,480,7.0,0.0
1352,71.0,192,240,5.0,0.0
1353,83.0,0,240,0.0,0.0
1354,64.0,0,480,6.0,0.0
1355,36.0,0,480,11.0,0.0
1356,36.0,0,480,12.0,0.0
1357,81.0,0,180,0.0,0.0
1358,69.0,48,180,5.0,0.0
1359,81.0,0,240,0.0,0.0
1360,38.0,0,450,11.0,0.0
1361,69.0,192,240,5.0,0.0
1362,38.0,0,450,12.0,0.0
1363,60.0,0,450,6.0,0.0
1364,50.0,168,450,10.0,0.0
1365,57.0,0,450,1.0,0.0
1366,57.0,0,450,7.0,0.0
1367,78.0,24,180,0.0,0.0
1368,66.0,0,180,5.0,0.0
1369,59.0,0,390,1.0,0.0
1370,55.0,0,390,7.0,0.0
1371,31.0,0,390,11.0,0.0
1372,59.0,0,390,6.0,0.0
1373,31.0,0,390,12.0,0.0
1374,67.0,240,150,5.0,0.0
1375,43.0,96,390,10.0,0.0
1376,79.0,0,390,0.0,0.0
1377,67.0,240,240,5.0,0.0
1378,66.0,192,240,5.0,0.0
1379,67.0,432,180,5.0,0.0
1380,55.0,0,1920,1.0,0.0
1381,47.0,0,390,11.0,0.0
1382,67.0,384,1920,7.0,0.0
1383,59.0,96,390,10.0,0.0
1384,47.0,0,390,12.0,0.0
1385,67.0,240,240,5.0,0.0
1386,69.0,192,240,5.0,0.0
1387,71.0,432,180,5.0,0.0
1388,57.0,96,390,10.0,0.0
1389,45.0,0,390,12.0,0.0
1390,45.0,0,390,11.0,0.0
1391,72.0,240,240,5.0,0.0
1392,71.0,192,240,5.0,0.0
1393,72.0,48,180,5.0,0.0
1394,54.0,384,960,1.0,0.0
1395,38.0,0,390,12.0,0.0
1396,38.0,0,390,11.0,0.0
1397,66.0,0,960,7.0,0.0
1398,50.0,96,390,10.0,0.0
1399,76.0,240,240,5.0,0.0
1400,74.0,192,240,5.0,0.0
1401,72.0,48,180,5.0,0.0
1402,55.0,144,780,1.0,0.0
1403,55.0,0,390,10.0,0.0
1404,43.0,0,390,11.0,0.0
1405,43.0,96,390,12.0,0.0
1406,67.0,0,780,7.0,0.0
1407,71.0,240,240,5.0,0.0
1408,69.0,48,240,5.0,0.0
1409,67.0,432,180,5.0,0.0
1410,54.0,96,390,10.0,0.0
1411,42.0,0,390,11.0,0.0
1412,42.0,0,390,12.0,0.0
1413,69.0,384,960,7.0,0.0
1414,74.0,0,1920,5.0,0.0
1415,62.0,0,1920,1.0,0.0
1416,74.0,240,240,6.0,0.0
1417,76.0,192,240,6.0,0.0
1418,78.0,48,180,6.0,0.0
1419,71.0,384,960,7.0,0.0
1420,40.0,0,390,12.0,0.0
1421,40.0,96,390,11.0,0.0
1422,52.0,0,390,10.0,0.0
1423,79.0,240,240,6.0,0.0
1424,78.0,192,240,6.0,0.0
1425,79.0,48,180,6.0,0.0
1426,73.0,384,960,5.0,0.0
1427,61.0,0,960,1.0,0.0
1428,33.0,0,390,12.0,0.0
1429,33.0,0,390,11.0,0.0
1430,69.0,0,1740,7.0,0.0
1431,45.0,96,390,10.0,0.0
1432,83.0,240,240,6.0,0.0
1433,81.0,192,240,6.0,0.0
1434,79.0,48,180,6.0,0.0
1435,38.0,96,390,12.0,0.0
1436,62.0,144,780,1.0,0.0
1437,50.0,0,390,10.0,0.0
1438,38.0,0,390,11.0,0.0
1439,72.0,0,780,5.0,0.0
1440,78.0,240,240,6.0,0.0
1441,76.0,48,240,6.0,0.0
1442,74.0,432,180,6.0,0.0
1443,40.0,96,390,11.0,0.0
1444,79.0,0,1920,6.0,0.0
1445,67.0,384,1920,0.0,0.0
1446,71.0,144,780,5.0,0.0
1447,52.0,0,390,10.0,0.0
1448,40.0,0,390,12.0,0.0
1449,55.0,240,240,7.0,0.0
1450,57.0,48,240,7.0,0.0
1451,59.0,432,180,7.0,0.0
1452,33.0,96,390,11.0,0.0
1453,45.0,0,390,10.0,0.0
1454,33.0,0,390,12.0,0.0
1455,69.0,0,1920,5.0,0.0
1456,60.0,240,240,7.0,0.0
1457,59.0,192,240,7.0,0.0
1458,60.0,48,180,7.0,0.0
1459,78.0,0,960,6.0,0.0
1460,38.0,0,390,11.0,0.0
1461,66.0,384,960,0.0,0.0
1462,38.0,96,390,12.0,0.0
1463,50.0,0,390,10.0,0.0
1464,64.0,240,240,7.0,0.0
1465,62.0,192,240,7.0,0.0
1466,60.0,48,180,7.0,0.0
1467,67.0,0,780,5.0,0.0
1468,31.0,0,390,12.0,0.0
1469,79.0,0,780,6.0,0.0
1470,43.0,0,390,10.0,0.0
1471,67.0,144,780,0.0,0.0
1472,31.0,96,390,11.0,0.0
1473,59.0,240,240,7.0,0.0
1474,57.0,48,240,7.0,0.0
1475,55.0,528,180,7.0,0.0
1476,78.0,0,960,6.0,0.0
1477,74.0,0,1920,0.0,0.0
1478,62.0,0,1920,7.0,0.0
1479,69.0,0,960,5.0,0.0
1480,38.0,0,240,11.0,0.0
1481,50.0,240,240,10.0,0.0
1482,38.0,0,240,12.0,0.0
1483,40.0,192,240,12.0,0.0
1484,40.0,0,240,11.0,0.0
1485,52.0,0,240,10.0,0.0
1486,42.0,0,180,11.0,0.0
1487,42.0,48,180,12.0,0.0
1488,54.0,480,240,10.0,0.0
1489,76.0,0,1920,6.0,0.0
1490,71.0,0,960,5.0,0.0
1491,43.0,0,240,11.0,0.0
1492,55.0,0,240,10.0,0.0
1493,43.0,240,240,12.0,0.0
1494,54.0,0,240,10.0,0.0
1495,42.0,0,240,11.0,0.0
1496,42.0,192,240,12.0,0.0
1497,55.0,480,240,10.0,0.0
1498,43.0,0,180,11.0,0.0
1499,43.0,48,180,12.0,0.0
1500,73.0,480,960,0.0,0.0
1501,61.0,0,960,7.0,0.0
1502,64.0,0,960,5.0,0.0
1503,47.0,240,240,11.0,0.0
1504,59.0,0,240,10.0,0.0
1505,47.0,0,240,12.0,0.0
1506,45.0,192,240,12.0,0.0
1507,45.0,0,240,11.0,0.0
1508,57.0,0,240,10.0,0.0
1509,55.0,0,240,10.0,0.0
1510,43.0,0,180,11.0,0.0
1511,43.0,48,180,12.0,0.0
1512,69.0,0,780,5.0,0.0
1513,74.0,0,780,0.0,0.0
1514,62.0,144,780,7.0,0.0
1515,74.0,0,780,6.0,0.0
1516,42.0,0,240,12.0,0.0
1517,54.0,0,240,10.0,0.0
1518,42.0,240,240,11.0,0.0
1519,52.0,48,240,10.0,0.0
1520,40.0,0,240,12.0,0.0
1521,40.0,0,240,11.0,0.0
1522,50.0,480,240,10.0,0.0
1523,38.0,48,180,11.0,0.0
1524,38.0,0,180,12.0,0.0
1525,55.0,144,780,2.0,0.0
1526,67.0,0,1860,0.0,0.0
1527,79.0,0,1860,0.0,0.0
1528,47.0,0,960,12.0,0.0
1529,67.0,0,1860,7.0,0.0
1530,47.0,0,960,11.0,0.0
1531,62.0,0,780,2.0,0.0
1532,59.0,0,960,1.0,0.0
1533,59.0,480,960,10.0,0.0
1534,79.0,0,240,5.0,0.0
1535,67.0,240,240,6.0,0.0
1536,81.0,0,240,5.0,0.0
1537,69.0,48,240,6.0,0.0
1538,83.0,48,180,5.0,0.0
1539,71.0,0,180,6.0,0.0
1540,57.0,0,900,10.0,0.0
1541,45.0,0,900,11.0,0.0
1542,60.0,0,780,2.0,0.0
1543,64.0,144,780,2.0,0.0
1544,45.0,0,900,12.0,0.0
1545,57.0,0,900,1.0,0.0
1546,72.0,0,240,6.0,0.0
1547,84.0,240,240,5.0,0.0
1548,83.0,0,240,5.0,0.0
1549,71.0,48,240,6.0,0.0
1550,84.0,528,180,5.0,0.0
1551,72.0,0,180,6.0,0.0
1552,66.0,0,960,0.0,0.0
1553,66.0,0,960,7.0,0.0
1554,50.0,0,960,10.0,0.0
1555,38.0,0,960,12.0,0.0
1556,38.0,0,960,11.0,0.0
1557,78.0,0,960,0.0,0.0
1558,50.0,480,960,1.0,0.0
1559,62.0,144,780,2.0,0.0
1560,88.0,0,240,5.0,0.0
1561,76.0,240,240,6.0,0.0
1562,86.0,48,240,5.0,0.0
1563,74.0,0,240,6.0,0.0
1564,72.0,0,180,6.0,0.0
1565,84.0,48,180,5.0,0.0
1566,55.0,0,780,2.0,0.0
1567,62.0,0,780,2.0,0.0
1568,67.0,0,780,0.0,0.0
1569,43.0,0,780,11.0,0.0
1570,79.0,144,780,0.0,0.0
1571,55.0,0,780,1.0,0.0
1572,67.0,0,780,7.0,0.0
1573,43.0,0,780,12.0,0.0
1574,55.0,0,780,10.0,0.0
1575,83.0,240,240,5.0,0.0
1576,71.0,0,240,6.0,0.0
1577,81.0,48,240,5.0,0.0
1578,69.0,0,240,6.0,0.0
1579,67.0,0,180,6.0,0.0
1580,79.0,528,180,5.0,0.0
1581,86.0,0,1860,0.0,0.0
1582,74.0,0,900,0.0,0.0
1583,62.0,0,1860,1.0,0.0
1584,86.0,0,570,5.0,0.0
1585,86.0,144,570,6.0,0.0
1586,43.0,0,240,12.0,0.0
1587,43.0,0,240,11.0,0.0
1588,67.0,0,240,7.0,0.0
1589,55.0,96,240,10.0,0.0
1590,69.0,0,240,7.0,0.0
1591,45.0,168,240,11.0,0.0
1592,45.0,0,240,12.0,0.0
1593,57.0,0,240,10.0,0.0
1594,71.0,0,180,7.0,0.0
1595,47.0,528,180,12.0,0.0
1596,86.0,0,180,5.0,0.0
1597,59.0,0,180,10.0,0.0
1598,47.0,0,180,11.0,0.0
1599,86.0,24,180,6.0,0.0
1600,76.0,144,570,6.0,0.0
1601,64.0,528,1860,1.0,0.0
1602,76.0,0,1860,0.0,0.0
1603,76.0,0,570,5.0,0.0
1604,60.0,0,240,10.0,0.0
1605,48.0,0,240,12.0,0.0
1606,48.0,96,240,11.0,0.0
1607,72.0,0,240,7.0,0.0
1608,71.0,0,240,7.0,0.0
1609,47.0,60,240,11.0,0.0
1610,59.0,0,240,10.0,0.0
1611,47.0,0,240,12.0,0.0
1612,78.0,0,60,5.0,0.0
1613,72.0,0,180,7.0,0.0
1614,60.0,0,180,10.0,0.0
1615,48.0,48,180,12.0,0.0
1616,78.0,60,60,6.0,0.0
1617,48.0,0,180,11.0,0.0
1618,79.0,60,60,6.0,0.0
1619,79.0,0,60,5.0,0.0
1620,81.0,12,60,5.0,0.0
1621,81.0,0,60,6.0,0.0
1622,83.0,0,60,5.0,0.0
1623,83.0,312,60,6.0,0.0
1624,84.0,0,300,5.0,0.0
1625,84.0,0,1860,0.0,0.0
1626,60.0,0,1860,1.0,0.0
1627,84.0,168,300,6.0,0.0
1628,54.0,0,240,10.0,0.0
1629,42.0,0,240,11.0,0.0
1630,66.0,0,240,7.0,0.0
1631,42.0,240,240,12.0,0.0
1632,43.0,0,240,12.0,0.0
1633,67.0,0,240,7.0,0.0
1634,55.0,72,240,10.0,0.0
1635,84.0,0,300,5.0,0.0
1636,43.0,0,240,11.0,0.0
1637,84.0,120,300,6.0,0.0
1638,57.0,0,180,10.0,0.0
1639,45.0,0,180,12.0,0.0
1640,45.0,0,180,11.0,0.0
1641,69.0,0,180,7.0,0.0
1642,63.0,0,900,1.0,0.0
1643,84.0,0,480,6.0,0.0
1644,75.0,0,900,0.0,0.0
1645,84.0,0,480,5.0,0.0
1646,59.0,0,240,10.0,0.0
1647,47.0,0,240,12.0,0.0
1648,47.0,192,240,11.0,0.0
1649,71.0,0,240,7.0,0.0
1650,74.0,0,180,5.0,0.0
1651,45.0,0,240,12.0,0.0
1652,69.0,0,240,7.0,0.0
1653,74.0,48,180,6.0,0.0
1654,57.0,0,240,10.0,0.0
1655,45.0,192,240,11.0,0.0
1656,71.0,0,180,7.0,0.0
1657,59.0,528,180,10.0,0.0
1658,47.0,0,180,12.0,0.0
1659,47.0,0,180,11.0,0.0
1660,59.0,0,1860,1.0,0.0
1661,74.0,0,900,0.0,0.0
1662,83.0,144,570,5.0,0.0
1663,62.0,0,900,1.0,0.0
1664,83.0,0,1860,0.0,0.0
1665,83.0,0,570,6.0,0.0
1666,40.0,0,240,12.0,0.0
1667,40.0,0,240,11.0,0.0
1668,64.0,96,240,7.0,0.0
1669,52.0,0,240,10.0,0.0
1670,42.0,180,240,11.0,0.0
1671,42.0,0,240,12.0,0.0
1672,54.0,0,240,10.0,0.0
1673,66.0,0,240,7.0,0.0
1674,83.0,12,180,5.0,0.0
1675,68.0,0,180,7.0,0.0
1676,44.0,528,180,12.0,0.0
1677,56.0,0,180,10.0,0.0
1678,44.0,0,180,11.0,0.0
1679,83.0,0,180,6.0,0.0
1680,73.0,0,900,0.0,0.0
1681,61.0,0,900,1.0,0.0
1682,73.0,144,570,6.0,0.0
1683,73.0,0,570,5.0,0.0
1684,69.0,0,240,7.0,0.0
1685,45.0,0,240,12.0,0.0
1686,57.0,96,240,10.0,0.0
1687,45.0,0,240,11.0,0.0
1688,68.0,0,240,7.0,0.0
1689,44.0,0,240,11.0,0.0
1690,44.0,60,240,12.0,0.0
1691,56.0,0,240,10.0,0.0
1692,45.0,0,180,12.0,0.0
1693,74.0,60,60,5.0,0.0
1694,45.0,48,180,11.0,0.0
1695,74.0,0,60,6.0,0.0
1696,69.0,0,180,7.0,0.0
1697,57.0,0,180,10.0,0.0
1698,76.0,60,60,6.0,0.0
1699,76.0,0,60,5.0,0.0
1700,78.0,12,60,5.0,0.0
1701,78.0,0,60,6.0,0.0
1702,80.0,312,60,6.0,0.0
1703,80.0,0,60,5.0,0.0
1704,81.0,0,300,5.0,0.0
1705,81.0,432,1860,0.0,0.0
1706,72.0,528,900,0.0,0.0
1707,60.0,0,900,1.0,0.0
1708,57.0,0,1860,1.0,0.0
1709,81.0,168,300,6.0,0.0
1710,50.0,0,240,10.0,0.0
1711,62.0,240,240,7.0,0.0
1712,38.0,0,240,11.0,0.0
1713,38.0,0,240,12.0,0.0
1714,40.0,0,240,11.0,0.0
1715,81.0,0,300,5.0,0.0
1716,40.0,72,240,12.0,0.0
1717,64.0,0,240,7.0,0.0
1718,81.0,120,300,6.0,0.0
1719,52.0,0,240,10.0,0.0
1720,54.0,0,180,10.0,0.0
1721,42.0,0,180,12.0,0.0
1722,66.0,0,180,7.0,0.0
1723,42.0,0,180,11.0,0.0
1724,81.0,0,480,5.0,0.0
1725,81.0,192,480,6.0,0.0
1726,71.0,0,1860,0.0,0.0
1727,59.0,0,1860,1.0,0.0
1728,43.0,0,240,12.0,0.0
1729,55.0,0,240,10.0,0.0
1730,67.0,0,240,7.0,0.0
1731,43.0,0,240,11.0,0.0
1732,42.0,0,240,12.0,0.0
1733,71.0,0,180,5.0,0.0
1734,71.0,48,180,6.0,0.0
1735,54.0,0,240,10.0,0.0
1736,66.0,192,240,7.0,0.0
1737,42.0,0,240,11.0,0.0
1738,43.0,0,180,12.0,0.0
1739,55.0,0,180,10.0,0.0
1740,67.0,0,180,7.0,0.0
1741,43.0,0,180,11.0,0.0
1742,79.0,144,570,6.0,0.0
1743,79.0,0,570,5.0,0.0
1744,67.0,96,390,3.0,0.0
1745,76.0,0,390,3.0,0.0
1746,52.0,120,780,2.0,0.0
1747,55.0,0,1860,1.0,0.0
1748,64.0,0,780,2.0,0.0
1749,79.0,0,1860,0.0,0.0
1750,40.0,0,240,11.0,0.0
1751,40.0,0,240,12.0,0.0
1752,64.0,96,240,7.0,0.0
1753,52.0,0,240,10.0,0.0
1754,51.0,0,240,10.0,0.0
1755,39.0,48,240,12.0,0.0
1756,63.0,0,240,7.0,0.0
1757,39.0,0,240,11.0,0.0
1758,64.0,0,180,7.0,0.0
1759,52.0,0,180,10.0,0.0
1760,79.0,24,180,5.0,0.0
1761,40.0,432,180,12.0,0.0
1762,79.0,0,180,6.0,0.0
1763,40.0,0,180,11.0,0.0
1764,69.0,0,570,6.0,0.0
1765,48.0,0,780,2.0,0.0
1766,60.0,120,780,2.0,0.0
1767,57.0,0,1860,1.0,0.0
1768,76.0,0,390,3.0,0.0
1769,72.0,96,390,3.0,0.0
1770,69.0,144,570,5.0,0.0
1771,69.0,0,900,0.0,0.0
1772,48.0,0,240,10.0,0.0
1773,60.0,96,240,7.0,0.0
1774,36.0,0,240,12.0,0.0
1775,36.0,0,240,11.0,0.0
1776,47.0,0,240,10.0,0.0
1777,35.0,48,240,12.0,0.0
1778,35.0,0,240,11.0,0.0
1779,59.0,0,240,7.0,0.0
1780,69.0,0,180,5.0,0.0
1781,69.0,24,180,6.0,0.0
1782,60.0,0,180,7.0,0.0
1783,36.0,432,180,11.0,0.0
1784,48.0,0,180,10.0,0.0
1785,36.0,0,180,12.0,0.0
1786,78.0,0,570,6.0,0.0
1787,62.0,120,780,2.0,0.0
1788,78.0,144,570,5.0,0.0
1789,74.0,96,390,3.0,0.0
1790,72.0,0,900,0.0,0.0
1791,78.0,0,900,0.0,0.0
1792,54.0,0,900,1.0,0.0
1793,38.0,0,240,12.0,0.0
1794,50.0,0,240,10.0,0.0
1795,62.0,96,240,7.0,0.0
1796,38.0,0,240,11.0,0.0
1797,61.0,0,240,7.0,0.0
1798,37.0,48,240,12.0,0.0
1799,49.0,0,240,10.0,0.0
1800,37.0,0,240,11.0,0.0
1801,78.0,0,180,5.0,0.0
1802,38.0,0,180,11.0,0.0
1803,38.0,0,180,12.0,0.0
1804,62.0,192,180,7.0,0.0
1805,50.0,0,180,10.0,0.0
1806,78.0,24,180,6.0,0.0
1807,31.0,0,4740,12.0,0.0
1808,55.0,432,4740,7.0,0.0
1809,55.0,0,5190,2.0,0.0
1810,43.0,96,5190,2.0,0.0
1811,43.0,0,4740,10.0,0.0
1812,79.0,0,390,0.0,0.0
1813,71.0,0,390,0.0,0.0
1814,31.0,0,4740,11.0,0.0
1815,74.0,96,390,3.0,0.0
1816,79.0,0,150,6.0,0.0
1817,67.0,0,390,3.0,0.0
1818,79.0,240,150,5.0,0.0
1819,43.0,0,390,4.0,0.0
1820,55.0,0,390,1.0,0.0
1821,79.0,240,240,5.0,0.0
1822,67.0,0,240,6.0,0.0
1823,66.0,0,240,6.0,0.0
1824,78.0,192,240,5.0,0.0
1825,67.0,528,180,6.0,0.0
1826,79.0,0,180,5.0,0.0
1827,62.0,528,1860,1.0,0.0
1828,86.0,240,240,5.0,0.0
1829,74.0,0,240,6.0,0.0
1830,73.0,0,240,6.0,0.0
1831,85.0,192,240,5.0,0.0
1832,86.0,528,180,5.0,0.0
1833,74.0,0,180,6.0,0.0
1834,63.0,528,1860,1.0,0.0
1835,63.0,0,240,6.0,0.0
1836,75.0,240,240,5.0,0.0
1837,74.0,0,240,5.0,0.0
1838,62.0,192,240,6.0,0.0
1839,75.0,0,180,5.0,0.0
1840,63.0,0,180,6.0,0.0
1841,60.0,0,1860,1.0,0.0
1842,63.0,0,240,6.0,0.0
1843,75.0,144,240,5.0,0.0
1844,84.0,240,150,5.0,0.0
1845,72.0,0,150,6.0,0.0
1846,72.0,48,150,6.0,0.0
1847,84.0,0,150,5.0,0.0
1848,62.0,0,1860,1.0,0.0
1849,72.0,144,240,6.0,0.0
1850,84.0,0,240,5.0,0.0
1851,62.0,240,150,6.0,0.0
1852,74.0,0,150,5.0,0.0
1853,74.0,48,150,5.0,0.0
1854,62.0,0,150,6.0,0.0
1855,43.0,0,1920,11.0,0.0
1856,67.0,480,960,7.0,0.0
1857,55.0,0,1920,10.0,0.0
1858,58.0,0,1860,1.0,0.0
1859,82.0,0,1860,0.0,0.0
1860,74.0,48,900,0.0,0.0
1861,43.0,480,1920,12.0,0.0
1862,70.0,0,240,6.0,0.0
1863,82.0,240,240,5.0,0.0
1864,69.0,192,240,6.0,0.0
1865,81.0,0,240,5.0,0.0
1866,82.0,0,180,5.0,0.0
1867,70.0,0,180,6.0,0.0
1868,61.0,0,900,1.0,0.0
1869,73.0,48,900,0.0,0.0
1870,64.0,0,960,7.0,0.0
1871,61.0,0,240,6.0,0.0
1872,73.0,240,240,5.0,0.0
1873,59.0,0,240,6.0,0.0
1874,71.0,192,240,5.0,0.0
1875,61.0,0,180,6.0,0.0
1876,73.0,0,180,5.0,0.0
1877,63.0,480,960,7.0,0.0
1878,42.0,96,780,11.0,0.0
1879,57.0,0,1860,1.0,0.0
1880,60.0,48,900,1.0,0.0
1881,54.0,0,780,10.0,0.0
1882,72.0,0,900,0.0,0.0
1883,42.0,0,780,12.0,0.0
1884,81.0,0,1860,0.0,0.0
1885,72.0,144,240,5.0,0.0
1886,60.0,0,240,6.0,0.0
1887,69.0,0,150,6.0,0.0
1888,81.0,144,150,5.0,0.0
1889,69.0,0,150,6.0,0.0
1890,81.0,48,150,5.0,0.0
1891,55.0,96,780,10.0,0.0
1892,71.0,0,900,0.0,0.0
1893,43.0,0,900,11.0,0.0
1894,62.0,480,960,7.0,0.0
1895,43.0,0,900,12.0,0.0
1896,59.0,48,900,1.0,0.0
1897,81.0,144,240,5.0,0.0
1898,69.0,0,240,6.0,0.0
1899,71.0,0,150,5.0,0.0
1900,59.0,144,150,6.0,0.0
1901,59.0,0,150,6.0,0.0
1902,71.0,48,150,5.0,0.0
1903,39.0,480,960,12.0,0.0
1904,79.0,0,1860,0.0,0.0
1905,70.0,0,900,0.0,0.0
1906,39.0,0,960,11.0,0.0
1907,55.0,48,1860,1.0,0.0
1908,58.0,48,900,1.0,0.0
1909,51.0,0,960,10.0,0.0
1910,63.0,0,1920,7.0,0.0
1911,67.0,240,240,6.0,0.0
1912,79.0,0,240,5.0,0.0
1913,66.0,0,240,6.0,0.0
1914,78.0,192,240,5.0,0.0
1915,79.0,0,180,5.0,0.0
1916,67.0,0,180,6.0,0.0
1917,69.0,0,1920,0.0,0.0
1918,57.0,96,1920,1.0,0.0
1919,36.0,0,960,12.0,0.0
1920,36.0,480,960,11.0,0.0
1921,48.0,0,960,10.0,0.0
1922,69.0,0,240,5.0,0.0
1923,57.0,240,240,6.0,0.0
1924,68.0,0,240,5.0,0.0
1925,56.0,192,240,6.0,0.0
1926,69.0,0,180,5.0,0.0
1927,57.0,0,180,6.0,0.0
1928,50.0,0,900,10.0,0.0
1929,62.0,48,900,7.0,0.0
1930,78.0,0,960,0.0,0.0
1931,54.0,0,960,1.0,0.0
1932,38.0,0,900,12.0,0.0
1933,38.0,0,900,11.0,0.0
1934,74.0,0,240,5.0,0.0
1935,62.0,240,240,6.0,0.0
1936,73.0,192,240,5.0,0.0
1937,61.0,0,240,6.0,0.0
1938,74.0,0,180,5.0,0.0
1939,62.0,0,180,6.0,0.0
1940,79.0,0,390,0.0,0.0
1941,31.0,0,390,12.0,0.0
1942,55.0,0,390,1.0,0.0
1943,59.0,0,390,7.0,0.0
1944,55.0,0,390,6.0,0.0
1945,67.0,0,390,0.0,0.0
1946,43.0,72,390,10.0,0.0
1947,67.0,120,90,5.0,0.0
1948,31.0,0,390,11.0,0.0
1949,67.0,120,90,5.0,0.0
1950,62.0,48,90,5.0,0.0
1951,62.0,120,90,5.0,0.0
1952,64.0,120,90,5.0,0.0
1953,64.0,120,90,5.0,0.0
1954,66.0,120,90,5.0,0.0
1955,66.0,120,90,5.0,0.0
1956,67.0,120,90,5.0,0.0
1957,67.0,120,90,5.0,0.0
1958,66.0,120,90,5.0,0.0
1959,66.0,120,90,5.0,0.0
1960,67.0,120,90,5.0,0.0
1961,67.0,120,90,5.0,0.0
1962,68.0,120,90,5.0,0.0
1963,68.0,120,90,5.0,0.0
1964,69.0,120,90,5.0,0.0
1965,69.0,120,90,5.0,0.0
1966,62.0,120,90,5.0,0.0
1967,62.0,120,90,5.0,0.0
1968,66.0,120,90,5.0,0.0
1969,66.0,120,90,5.0,0.0
1970,67.0,120,90,5.0,0.0
1971,67.0,120,90,5.0,0.0
1972,69.0,120,90,5.0,0.0
1973,69.0,120,90,5.0,0.0
1974,68.0,120,90,5.0,0.0
1975,68.0,120,90,5.0,0.0
1976,69.0,120,90,5.0,0.0
1977,69.0,120,90,5.0,0.0
1978,70.0,120,90,5.0,0.0
1979,70.0,120,90,5.0,0.0
1980,71.0,72,390,5.0,0.0
1981,67.0,120,90,6.0,0.0
1982,67.0,120,90,6.0,0.0
1983,62.0,48,90,6.0,0.0
1984,62.0,120,90,6.0,0.0
1985,64.0,120,90,6.0,0.0
1986,71.0,48,300,5.0,0.0
1987,64.0,72,90,6.0,0.0
1988,66.0,120,90,6.0,0.0
1989,66.0,0,90,6.0,0.0
1990,71.0,84,90,5.0,0.0
1991,67.0,24,90,6.0,0.0
1992,72.0,36,60,5.0,0.0
1993,71.0,60,60,5.0,0.0
1994,72.0,36,60,5.0,0.0
1995,67.0,24,90,6.0,0.0
1996,71.0,60,60,5.0,0.0
1997,66.0,24,90,6.0,0.0
1998,72.0,36,60,5.0,0.0
1999,71.0,60,60,5.0,0.0
2000,72.0,36,60,5.0,0.0
2001,66.0,24,90,6.0,0.0
2002,71.0,60,60,5.0,0.0
2003,72.0,36,60,5.0,0.0
2004,67.0,24,90,6.0,0.0
2005,71.0,60,60,5.0,0.0
2006,72.0,36,60,5.0,0.0
2007,67.0,24,90,6.0,0.0
2008,71.0,96,60,5.0,0.0
2009,68.0,24,90,6.0,0.0
2010,69.0,96,120,5.0,0.0
2011,71.0,120,90,5.0,0.0
2012,68.0,0,90,6.0,0.0
2013,72.0,96,720,5.0,0.0
2014,69.0,120,90,6.0,0.0
2015,69.0,120,90,6.0,0.0
2016,62.0,120,90,6.0,0.0
2017,62.0,120,90,6.0,0.0
2018,66.0,120,90,6.0,0.0
2019,66.0,24,90,6.0,0.0
2020,67.0,96,90,6.0,0.0
2021,71.0,24,180,5.0,0.0
2022,67.0,120,90,6.0,0.0
2023,72.0,96,240,5.0,0.0
2024,69.0,120,90,6.0,0.0
2025,69.0,24,90,6.0,0.0
2026,71.0,96,240,5.0,0.0
2027,68.0,120,90,6.0,0.0
2028,68.0,24,90,6.0,0.0
2029,72.0,96,240,5.0,0.0
2030,69.0,120,90,6.0,0.0
2031,69.0,24,90,6.0,0.0
2032,70.0,96,90,6.0,0.0
2033,73.0,24,180,5.0,0.0
2034,70.0,120,90,6.0,0.0
2035,55.0,96,240,10.0,0.0
2036,74.0,0,390,5.0,0.0
2037,55.0,0,240,1.0,0.0
2038,71.0,0,390,6.0,0.0
2039,43.0,72,390,4.0,0.0
2040,43.0,0,240,12.0,0.0
2041,43.0,0,240,11.0,0.0
2042,67.0,120,90,7.0,0.0
2043,62.0,0,3660,2.0,0.0
2044,74.0,48,3660,3.0,0.0
2045,67.0,24,90,7.0,0.0
2046,38.0,0,240,12.0,0.0
2047,38.0,96,240,11.0,0.0
2048,50.0,0,240,1.0,0.0
2049,62.0,48,90,7.0,0.0
2050,50.0,0,240,10.0,0.0
2051,62.0,24,90,7.0,0.0
2052,52.0,0,240,1.0,0.0
2053,40.0,96,240,12.0,0.0
2054,64.0,120,90,7.0,0.0
2055,52.0,0,240,10.0,0.0
2056,40.0,0,240,11.0,0.0
2057,64.0,24,90,7.0,0.0
2058,42.0,24,180,12.0,0.0
2059,66.0,96,90,7.0,0.0
2060,54.0,0,180,1.0,0.0
2061,54.0,0,180,10.0,0.0
2062,42.0,0,180,11.0,0.0
2063,66.0,120,90,7.0,0.0
2064,55.0,0,240,1.0,0.0
2065,83.0,0,900,0.0,0.0
2066,43.0,0,240,12.0,0.0
2067,74.0,120,90,6.0,0.0
2068,67.0,0,90,7.0,0.0
2069,55.0,0,240,10.0,0.0
2070,62.0,0,90,6.0,0.0
2071,43.0,96,240,11.0,0.0
2072,83.0,0,90,5.0,0.0
2073,83.0,24,90,5.0,0.0
2074,62.0,0,90,6.0,0.0
2075,67.0,0,90,7.0,0.0
2076,74.0,0,90,6.0,0.0
2077,83.0,0,90,5.0,0.0
2078,74.0,0,90,6.0,0.0
2079,62.0,0,90,6.0,0.0
2080,54.0,0,240,1.0,0.0
2081,42.0,0,240,12.0,0.0
2082,54.0,0,240,10.0,0.0
2083,66.0,120,90,7.0,0.0
2084,42.0,96,240,11.0,0.0
2085,74.0,0,90,6.0,0.0
2086,66.0,0,90,7.0,0.0
2087,62.0,24,90,6.0,0.0
2088,83.0,0,90,5.0,0.0
2089,67.0,0,90,7.0,0.0
2090,74.0,0,90,6.0,0.0
2091,83.0,0,90,5.0,0.0
2092,55.0,0,240,1.0,0.0
2093,43.0,0,240,12.0,0.0
2094,55.0,0,240,10.0,0.0
2095,43.0,96,240,11.0,0.0
2096,62.0,120,90,6.0,0.0
2097,83.0,0,90,5.0,0.0
2098,67.0,0,90,7.0,0.0
2099,62.0,24,90,6.0,0.0
2100,74.0,0,90,6.0,0.0
2101,68.0,0,90,7.0,0.0
2102,44.0,24,180,12.0,0.0
2103,56.0,0,180,1.0,0.0
2104,74.0,0,90,6.0,0.0
2105,62.0,0,90,6.0,0.0
2106,44.0,0,180,11.0,0.0
2107,83.0,96,90,5.0,0.0
2108,56.0,0,180,10.0,0.0
2109,68.0,0,90,7.0,0.0
2110,83.0,0,90,5.0,0.0
2111,62.0,120,90,6.0,0.0
2112,74.0,0,90,6.0,0.0
2113,62.0,0,390,6.0,0.0
2114,74.0,72,390,6.0,0.0
2115,84.0,0,1200,0.0,0.0
2116,57.0,96,240,10.0,0.0
2117,57.0,0,240,1.0,0.0
2118,84.0,0,390,5.0,0.0
2119,69.0,120,90,7.0,0.0
2120,45.0,0,240,12.0,0.0
2121,45.0,0,240,11.0,0.0
2122,69.0,24,90,7.0,0.0
2123,38.0,0,240,11.0,0.0
2124,50.0,0,240,1.0,0.0
2125,38.0,0,240,12.0,0.0
2126,62.0,48,90,7.0,0.0
2127,50.0,96,240,10.0,0.0
2128,62.0,24,90,7.0,0.0
2129,42.0,0,240,12.0,0.0
2130,42.0,96,240,11.0,0.0
2131,54.0,0,240,1.0,0.0
2132,54.0,0,240,10.0,0.0
2133,66.0,120,90,7.0,0.0
2134,66.0,24,90,7.0,0.0
2135,67.0,96,90,7.0,0.0
2136,55.0,0,180,1.0,0.0
2137,43.0,0,180,11.0,0.0
2138,43.0,24,180,12.0,0.0
2139,55.0,0,180,10.0,0.0
2140,67.0,120,90,7.0,0.0
2141,57.0,0,240,1.0,0.0
2142,45.0,0,240,11.0,0.0
2143,84.0,0,90,5.0,0.0
2144,62.0,120,90,6.0,0.0
2145,69.0,0,90,7.0,0.0
2146,45.0,0,240,12.0,0.0
2147,57.0,96,240,10.0,0.0
2148,74.0,0,90,6.0,0.0
2149,84.0,0,90,5.0,0.0
2150,69.0,24,90,7.0,0.0
2151,74.0,0,90,6.0,0.0
2152,62.0,0,90,6.0,0.0
2153,44.0,0,240,11.0,0.0
2154,62.0,0,90,6.0,0.0
2155,74.0,0,90,6.0,0.0
2156,83.0,0,90,5.0,0.0
2157,56.0,0,240,1.0,0.0
2158,83.0,0,240,0.0,0.0
2159,68.0,120,90,7.0,0.0
2160,56.0,0,240,10.0,0.0
2161,44.0,96,240,12.0,0.0
2162,83.0,0,90,5.0,0.0
2163,62.0,24,90,6.0,0.0
2164,74.0,0,90,6.0,0.0
2165,68.0,0,90,7.0,0.0
2166,84.0,0,240,0.0,0.0
2167,69.0,0,90,7.0,0.0
2168,57.0,48,240,1.0,0.0
2169,74.0,0,90,6.0,0.0
2170,45.0,0,240,11.0,0.0
2171,84.0,120,90,5.0,0.0
2172,45.0,0,240,12.0,0.0
2173,57.0,0,240,10.0,0.0
2174,62.0,0,90,6.0,0.0
2175,74.0,0,90,6.0,0.0
2176,69.0,0,90,7.0,0.0
2177,62.0,24,90,6.0,0.0
2178,84.0,0,90,5.0,0.0
2179,74.0,0,90,6.0,0.0
2180,62.0,0,90,6.0,0.0
2181,70.0,0,90,7.0,0.0
2182,85.0,96,90,5.0,0.0
2183,58.0,0,180,10.0,0.0
2184,85.0,0,240,0.0,0.0
2185,58.0,24,180,1.0,0.0
2186,46.0,0,180,11.0,0.0
2187,46.0,0,180,12.0,0.0
2188,62.0,0,90,6.0,0.0
2189,70.0,0,90,7.0,0.0
2190,74.0,0,90,6.0,0.0
2191,85.0,24,90,5.0,0.0
2192,86.0,0,330,0.0,0.0
2193,55.0,0,330,2.0,0.0
2194,67.0,0,330,3.0,0.0
2195,71.0,204,330,7.0,0.0
2196,59.0,0,330,1.0,0.0
2197,62.0,0,330,2.0,0.0
2198,59.0,0,330,10.0,0.0
2199,74.0,0,330,3.0,0.0
2200,86.0,0,330,5.0,0.0
2201,74.0,336,15,0.0,0.0
2202,74.0,0,330,6.0,0.0
2203,62.0,0,330,6.0,0.0
2204,47.0,0,330,12.0,0.0
2205,47.0,0,330,11.0,0.0
2206,52.0,0,330,12.0,0.0
2207,64.0,0,330,1.0,0.0
2208,64.0,0,330,10.0,0.0
2209,64.0,0,330,2.0,0.0
2210,76.0,24,330,3.0,0.0
2211,64.0,0,330,3.0,0.0
2212,84.0,60,60,5.0,0.0
2213,52.0,0,330,11.0,0.0
2214,83.0,0,480,0.0,0.0
2215,80.0,0,480,0.0,0.0
2216,74.0,336,480,7.0,0.0
2217,81.0,0,60,6.0,0.0
2218,80.0,60,60,6.0,0.0
2219,83.0,0,60,5.0,0.0
2220,84.0,0,60,5.0,0.0
2221,81.0,60,60,6.0,0.0
2222,83.0,60,60,5.0,0.0
2223,80.0,0,60,6.0,0.0
2224,84.0,0,60,5.0,0.0
2225,81.0,36,60,6.0,0.0
2226,80.0,0,60,6.0,0.0
2227,83.0,60,60,5.0,0.0
2228,81.0,60,60,5.0,0.0
2229,78.0,0,60,6.0,0.0
2230,80.0,0,60,6.0,0.0
2231,83.0,0,60,5.0,0.0
2232,81.0,0,330,0.0,0.0
2233,84.0,0,330,0.0,0.0
2234,76.0,0,330,3.0,0.0
2235,64.0,0,330,3.0,0.0
2236,84.0,0,330,5.0,0.0
2237,45.0,0,330,12.0,0.0
2238,57.0,204,330,10.0,0.0
2239,45.0,0,330,11.0,0.0
2240,57.0,0,330,1.0,0.0
2241,81.0,0,330,6.0,0.0
2242,60.0,0,330,2.0,0.0
2243,72.0,0,330,7.0,0.0
2244,64.0,0,330,2.0,0.0
2245,74.0,0,330,3.0,0.0
2246,83.0,0,60,5.0,0.0
2247,62.0,0,330,2.0,0.0
2248,62.0,0,330,1.0,0.0
2249,72.0,0,480,7.0,0.0
2250,50.0,0,330,12.0,0.0
2251,79.0,60,60,6.0,0.0
2252,81.0,0,480,0.0,0.0
2253,62.0,0,330,10.0,0.0
2254,78.0,336,480,0.0,0.0
2255,50.0,24,330,11.0,0.0
2256,78.0,60,60,6.0,0.0
2257,81.0,0,60,5.0,0.0
2258,83.0,60,60,5.0,0.0
2259,79.0,0,60,6.0,0.0
2260,78.0,0,60,6.0,0.0
2261,81.0,60,60,5.0,0.0
2262,79.0,36,60,6.0,0.0
2263,83.0,0,60,5.0,0.0
2264,78.0,0,60,6.0,0.0
2265,81.0,60,60,5.0,0.0
2266,79.0,0,60,5.0,0.0
2267,76.0,60,60,6.0,0.0
2268,81.0,0,60,5.0,0.0
2269,78.0,0,60,6.0,0.0
2270,43.0,0,330,11.0,0.0
2271,43.0,0,330,12.0,0.0
2272,71.0,0,330,7.0,0.0
2273,55.0,0,330,1.0,0.0
2274,79.0,0,330,6.0,0.0
2275,55.0,0,330,10.0,0.0
2276,83.0,0,330,5.0,0.0
2277,55.0,0,330,2.0,0.0
2278,62.0,0,330,2.0,0.0
2279,74.0,0,330,3.0,0.0
2280,67.0,0,330,3.0,0.0
2281,83.0,312,330,0.0,0.0
2282,79.0,0,330,0.0,0.0
2283,64.0,0,180,2.0,0.0
2284,64.0,168,180,7.0,0.0
2285,79.0,0,180,6.0,0.0
2286,71.0,0,180,6.0,0.0
2287,52.0,0,180,10.0,0.0
2288,83.0,0,180,0.0,0.0
2289,79.0,0,180,5.0,0.0
2290,79.0,0,180,0.0,0.0
2291,71.0,0,180,5.0,0.0
2292,76.0,72,330,3.0,0.0
2293,40.0,0,180,12.0,0.0
2294,67.0,0,330,3.0,0.0
2295,40.0,0,180,11.0,0.0
2296,52.0,0,180,1.0,0.0
2297,79.0,0,180,0.0,0.0
2298,83.0,0,180,0.0,0.0
2299,40.0,0,180,11.0,0.0
2300,52.0,240,180,10.0,0.0
2301,71.0,0,180,6.0,0.0
2302,52.0,0,180,1.0,0.0
2303,79.0,0,180,6.0,0.0
2304,40.0,0,180,12.0,0.0
2305,64.0,0,180,2.0,0.0
2306,71.0,0,180,5.0,0.0
2307,79.0,0,180,5.0,0.0
2308,64.0,0,180,7.0,0.0
2309,72.0,0,330,3.0,0.0
2310,81.0,0,180,5.0,0.0
2311,48.0,0,180,10.0,0.0
2312,36.0,0,180,11.0,0.0
2313,60.0,0,180,7.0,0.0
2314,60.0,168,180,2.0,0.0
2315,36.0,0,180,12.0,0.0
2316,76.0,72,330,3.0,0.0
2317,81.0,0,180,0.0,0.0
2318,72.0,0,180,5.0,0.0
2319,64.0,0,180,2.0,0.0
2320,81.0,0,180,6.0,0.0
2321,72.0,0,180,6.0,0.0
2322,84.0,0,180,0.0,0.0
2323,48.0,0,180,1.0,0.0
2324,60.0,0,180,7.0,0.0
2325,81.0,0,180,6.0,0.0
2326,36.0,0,180,12.0,0.0
2327,72.0,0,180,6.0,0.0
2328,81.0,240,180,0.0,0.0
2329,36.0,0,180,11.0,0.0
2330,81.0,0,180,5.0,0.0
2331,84.0,0,180,0.0,0.0
2332,48.0,0,180,10.0,0.0
2333,72.0,0,180,5.0,0.0
2334,48.0,0,180,1.0,0.0
2335,60.0,0,180,2.0,0.0
2336,64.0,0,180,2.0,0.0
2337,38.0,0,180,12.0,0.0
2338,69.0,0,180,6.0,0.0
2339,78.0,0,180,5.0,0.0
2340,50.0,0,180,10.0,0.0
2341,78.0,0,180,6.0,0.0
2342,50.0,0,180,1.0,0.0
2343,69.0,0,180,5.0,0.0
2344,81.0,0,180,0.0,0.0
2345,38.0,0,180,11.0,0.0
2346,78.0,0,180,0.0,0.0
2347,62.0,168,180,7.0,0.0
2348,62.0,0,180,2.0,0.0
2349,74.0,72,330,3.0,0.0
2350,78.0,0,180,0.0,0.0
2351,50.0,0,180,10.0,0.0
2352,62.0,0,180,7.0,0.0
2353,81.0,240,180,0.0,0.0
2354,38.0,0,180,12.0,0.0
2355,38.0,0,180,11.0,0.0
2356,78.0,0,180,6.0,0.0
2357,62.0,0,180,2.0,0.0
2358,50.0,0,180,1.0,0.0
2359,69.0,0,180,6.0,0.0
2360,69.0,0,180,5.0,0.0
2361,78.0,0,180,5.0,0.0
2362,67.0,0,390,3.0,0.0
2363,62.0,0,390,2.0,0.0
2364,55.0,0,390,2.0,0.0
2365,79.0,0,390,0.0,0.0
2366,43.0,0,180,10.0,0.0
2367,31.0,24,390,11.0,0.0
2368,43.0,0,390,1.0,0.0
2369,74.0,0,390,3.0,0.0
2370,79.0,0,390,5.0,0.0
2371,71.0,0,390,6.0,0.0
2372,79.0,0,390,6.0,0.0
2373,31.0,0,390,12.0,0.0
2374,71.0,0,390,5.0,0.0
2375,55.0,216,180,7.0,0.0
2376,62.0,240,180,7.0,0.0
2377,59.0,0,180,7.0,0.0
2378,55.0,0,180,10.0,0.0
2379,55.0,0,180,10.0,0.0
2380,59.0,0,180,7.0,0.0
2381,62.0,240,180,7.0,0.0
2382,62.0,0,180,7.0,0.0
2383,59.0,0,180,7.0,0.0
2384,55.0,192,180,10.0,0.0
2385,60.0,48,120,6.0,0.0
2386,72.0,0,120,5.0,0.0
2387,60.0,0,180,7.0,0.0
2388,62.0,12,180,7.0,0.0
2389,57.0,60,180,10.0,0.0
2390,38.0,0,390,11.0,0.0
2391,38.0,24,390,12.0,0.0
2392,71.0,120,120,5.0,0.0
2393,59.0,0,120,6.0,0.0
2394,57.0,24,120,6.0,0.0
2395,69.0,0,120,5.0,0.0
2396,57.0,60,180,10.0,0.0
2397,62.0,12,180,7.0,0.0
2398,60.0,0,180,7.0,0.0
2399,71.0,0,120,5.0,0.0
2400,59.0,120,120,6.0,0.0
2401,60.0,48,120,6.0,0.0
2402,60.0,12,180,7.0,0.0
2403,62.0,0,180,7.0,0.0
2404,57.0,60,180,10.0,0.0
2405,72.0,0,120,5.0,0.0
2406,74.0,0,120,5.0,0.0
2407,62.0,120,120,6.0,0.0
2408,76.0,0,120,5.0,0.0
2409,57.0,60,180,10.0,0.0
2410,62.0,12,180,7.0,0.0
2411,64.0,48,120,6.0,0.0
2412,60.0,0,180,7.0,0.0
2413,78.0,120,120,5.0,0.0
2414,66.0,0,120,6.0,0.0
2415,43.0,24,390,12.0,0.0
2416,55.0,60,180,10.0,0.0
2417,62.0,0,180,7.0,0.0
2418,59.0,12,180,7.0,0.0
2419,67.0,0,120,6.0,0.0
2420,43.0,0,390,11.0,0.0
2421,79.0,48,120,5.0,0.0
2422,69.0,120,120,6.0,0.0
2423,81.0,0,120,5.0,0.0
2424,71.0,0,120,6.0,0.0
2425,59.0,0,180,7.0,0.0
2426,62.0,12,180,7.0,0.0
2427,83.0,24,120,5.0,0.0
2428,55.0,60,180,10.0,0.0
2429,69.0,0,120,6.0,0.0
2430,81.0,120,120,5.0,0.0
2431,62.0,0,180,7.0,0.0
2432,59.0,12,180,7.0,0.0
2433,67.0,48,120,6.0,0.0
2434,55.0,60,180,10.0,0.0
2435,79.0,0,120,5.0,0.0
2436,66.0,120,120,6.0,0.0
2437,78.0,0,120,5.0,0.0
2438,59.0,12,180,7.0,0.0
2439,62.0,0,180,7.0,0.0
2440,76.0,0,120,5.0,0.0
2441,64.0,48,120,6.0,0.0
2442,55.0,36,180,10.0,0.0
2443,62.0,0,90,6.0,0.0
2444,74.0,144,90,5.0,0.0
2445,62.0,12,180,7.0,0.0
2446,60.0,0,180,7.0,0.0
2447,57.0,60,180,10.0,0.0
2448,60.0,0,120,6.0,0.0
2449,38.0,0,390,11.0,0.0
2450,38.0,24,390,12.0,0.0
2451,72.0,48,120,5.0,0.0
2452,71.0,0,120,5.0,0.0
2453,59.0,120,120,6.0,0.0
2454,60.0,0,180,7.0,0.0
2455,62.0,12,180,7.0,0.0
2456,57.0,60,180,10.0,0.0
2457,69.0,0,120,5.0,0.0
2458,57.0,24,120,6.0,0.0
2459,59.0,120,120,6.0,0.0
2460,71.0,0,120,5.0,0.0
2461,72.0,48,120,5.0,0.0
2462,60.0,12,180,7.0,0.0
2463,57.0,60,180,10.0,0.0
2464,60.0,0,120,6.0,0.0
2465,62.0,0,180,7.0,0.0
2466,74.0,120,120,5.0,0.0
2467,62.0,0,120,6.0,0.0
2468,57.0,60,180,10.0,0.0
2469,62.0,0,180,7.0,0.0
2470,76.0,48,120,5.0,0.0
2471,64.0,0,120,6.0,0.0
2472,60.0,12,180,7.0,0.0
2473,66.0,0,120,6.0,0.0
2474,78.0,120,120,5.0,0.0
2475,55.0,60,180,10.0,0.0
2476,62.0,0,180,7.0,0.0
2477,59.0,12,180,7.0,0.0
2478,74.0,0,5580,0.0,0.0
2479,62.0,72,5580,0.0,0.0
2480,31.0,24,390,12.0,0.0
2481,31.0,0,390,11.0,0.0
2482,69.0,48,120,6.0,0.0
2483,81.0,0,120,5.0,0.0
2484,79.0,120,120,5.0,0.0
2485,67.0,0,120,6.0,0.0
2486,66.0,0,120,6.0,0.0
2487,55.0,60,180,10.0,0.0
2488,59.0,0,180,7.0,0.0
2489,62.0,12,180,7.0,0.0
2490,78.0,24,120,5.0,0.0
2491,79.0,168,120,5.0,0.0
2492,67.0,0,120,6.0,0.0
2493,62.0,12,180,7.0,0.0
2494,55.0,12,180,10.0,0.0
2495,74.0,0,180,5.0,0.0
2496,59.0,0,180,7.0,0.0
2497,62.0,216,180,6.0,0.0
2498,55.0,180,180,10.0,0.0
2499,59.0,0,180,7.0,0.0
2500,62.0,12,180,7.0,0.0
2501,72.0,0,120,5.0,0.0
2502,38.0,24,390,12.0,0.0
2503,57.0,60,180,10.0,0.0
2504,62.0,12,180,7.0,0.0
2505,60.0,0,180,7.0,0.0
2506,60.0,48,120,6.0,0.0
2507,38.0,0,390,11.0,0.0
2508,71.0,0,120,5.0,0.0
2509,59.0,120,120,6.0,0.0
2510,57.0,24,120,6.0,0.0
2511,69.0,0,120,5.0,0.0
2512,60.0,12,180,7.0,0.0
2513,57.0,60,180,10.0,0.0
2514,62.0,0,180,7.0,0.0
2515,71.0,120,120,5.0,0.0
2516,59.0,0,120,6.0,0.0
2517,57.0,60,180,10.0,0.0
2518,62.0,0,180,7.0,0.0
2519,60.0,48,120,6.0,0.0
2520,72.0,0,120,5.0,0.0
2521,60.0,12,180,7.0,0.0
2522,74.0,0,120,5.0,0.0
2523,62.0,120,120,6.0,0.0
2524,57.0,60,180,10.0,0.0
2525,64.0,48,120,6.0,0.0
2526,62.0,12,180,7.0,0.0
2527,76.0,0,120,5.0,0.0
2528,60.0,0,180,7.0,0.0
2529,66.0,120,120,6.0,0.0
2530,78.0,0,120,5.0,0.0
2531,43.0,24,390,12.0,0.0
2532,55.0,60,180,10.0,0.0
2533,43.0,0,390,11.0,0.0
2534,79.0,0,120,5.0,0.0
2535,67.0,48,120,6.0,0.0
2536,62.0,12,180,7.0,0.0
2537,59.0,0,180,7.0,0.0
2538,81.0,120,120,5.0,0.0
2539,69.0,0,120,6.0,0.0
2540,71.0,0,120,6.0,0.0
2541,62.0,12,180,7.0,0.0
2542,83.0,24,120,5.0,0.0
2543,55.0,60,180,10.0,0.0
2544,59.0,0,180,7.0,0.0
2545,69.0,0,120,6.0,0.0
2546,81.0,120,120,5.0,0.0
2547,67.0,48,120,6.0,0.0
2548,59.0,12,180,7.0,0.0
2549,62.0,0,180,7.0,0.0
2550,55.0,60,180,10.0,0.0
2551,79.0,0,120,5.0,0.0
2552,78.0,0,120,5.0,0.0
2553,66.0,120,120,6.0,0.0
2554,76.0,48,120,5.0,0.0
2555,59.0,0,180,7.0,0.0
2556,62.0,12,180,7.0,0.0
2557,55.0,36,180,10.0,0.0
2558,64.0,0,120,6.0,0.0
2559,62.0,144,90,6.0,0.0
2560,74.0,0,90,5.0,0.0
2561,72.0,48,120,5.0,0.0
2562,38.0,24,390,11.0,0.0
2563,38.0,0,390,12.0,0.0
2564,57.0,60,180,10.0,0.0
2565,60.0,0,120,6.0,0.0
2566,60.0,0,180,7.0,0.0
2567,62.0,12,180,7.0,0.0
2568,59.0,120,120,6.0,0.0
2569,71.0,0,120,5.0,0.0
2570,62.0,0,180,7.0,0.0
2571,57.0,60,180,10.0,0.0
2572,69.0,24,120,5.0,0.0
2573,57.0,0,120,6.0,0.0
2574,60.0,12,180,7.0,0.0
2575,59.0,120,120,6.0,0.0
2576,71.0,0,120,5.0,0.0
2577,57.0,60,180,10.0,0.0
2578,72.0,48,120,5.0,0.0
2579,60.0,0,120,6.0,0.0
2580,62.0,12,180,7.0,0.0
2581,60.0,0,180,7.0,0.0
2582,62.0,0,120,6.0,0.0
2583,74.0,120,120,5.0,0.0
2584,60.0,12,180,7.0,0.0
2585,57.0,60,180,10.0,0.0
2586,62.0,0,180,7.0,0.0
2587,76.0,0,120,5.0,0.0
2588,64.0,48,120,6.0,0.0
2589,78.0,120,120,5.0,0.0
2590,66.0,0,120,6.0,0.0
2591,55.0,60,180,10.0,0.0
2592,62.0,12,180,7.0,0.0
2593,69.0,48,120,6.0,0.0
2594,81.0,0,120,5.0,0.0
2595,59.0,0,180,7.0,0.0
2596,31.0,0,390,11.0,0.0
2597,31.0,24,390,12.0,0.0
2598,67.0,0,120,6.0,0.0
2599,79.0,120,120,5.0,0.0
2600,66.0,24,120,6.0,0.0
2601,59.0,0,180,7.0,0.0
2602,62.0,12,180,7.0,0.0
2603,78.0,0,120,5.0,0.0
2604,55.0,60,180,10.0,0.0
2605,79.0,0,120,5.0,0.0
2606,67.0,168,120,6.0,0.0
2607,74.0,216,180,5.0,0.0
2608,62.0,0,180,6.0,0.0
2609,59.0,12,180,7.0,0.0
2610,55.0,12,180,10.0,0.0
2611,62.0,0,180,7.0,0.0
2612,55.0,180,180,10.0,0.0
2613,62.0,12,180,7.0,0.0
2614,59.0,0,180,7.0,0.0
2615,62.0,12,180,7.0,0.0
2616,60.0,0,180,7.0,0.0
2617,57.0,60,180,10.0,0.0
2618,72.0,0,120,5.0,0.0
2619,60.0,48,120,6.0,0.0
2620,38.0,0,390,11.0,0.0
2621,38.0,24,390,12.0,0.0
2622,71.0,120,120,5.0,0.0
2623,59.0,0,120,6.0,0.0
2624,62.0,12,180,7.0,0.0
2625,57.0,60,180,10.0,0.0
2626,57.0,24,120,6.0,0.0
2627,60.0,0,180,7.0,0.0
2628,69.0,0,120,5.0,0.0
2629,71.0,120,120,5.0,0.0
2630,59.0,0,120,6.0,0.0
2631,60.0,12,180,7.0,0.0
2632,62.0,0,180,7.0,0.0
2633,72.0,0,120,5.0,0.0
2634,57.0,60,180,10.0,0.0
2635,60.0,48,120,6.0,0.0
2636,74.0,0,120,5.0,0.0
2637,62.0,48,120,6.0,0.0
2638,64.0,0,120,6.0,0.0
2639,57.0,48,180,10.0,0.0
2640,76.0,48,120,5.0,0.0
2641,62.0,0,180,7.0,0.0
2642,60.0,12,180,7.0,0.0
2643,66.0,0,120,6.0,0.0
2644,78.0,132,120,5.0,0.0
2645,55.0,0,780,2.0,0.0
2646,67.0,72,780,2.0,0.0
2647,79.0,0,600,0.0,0.0
2648,59.0,0,360,7.0,0.0
2649,43.0,0,390,4.0,0.0
2650,79.0,120,120,5.0,0.0
2651,62.0,0,360,7.0,0.0
2652,79.0,0,390,3.0,0.0
2653,43.0,120,600,11.0,0.0
2654,67.0,72,390,3.0,0.0
2655,55.0,0,600,10.0,0.0
2656,67.0,24,360,6.0,0.0
2657,43.0,0,600,12.0,0.0
2658,55.0,0,600,1.0,0.0
2659,81.0,120,120,5.0,0.0
2660,83.0,0,120,5.0,0.0
2661,81.0,144,90,5.0,0.0
2662,67.0,0,120,7.0,0.0
2663,79.0,0,120,5.0,0.0
2664,79.0,0,120,6.0,0.0
2665,54.0,0,120,1.0,0.0
2666,54.0,0,120,10.0,0.0
2667,42.0,0,120,12.0,0.0
2668,78.0,0,120,0.0,0.0
2669,78.0,0,120,5.0,0.0
2670,42.0,0,120,11.0,0.0
2671,66.0,0,120,7.0,0.0
2672,78.0,48,120,6.0,0.0
2673,52.0,0,120,10.0,0.0
2674,76.0,0,120,0.0,0.0
2675,76.0,0,120,5.0,0.0
2676,40.0,0,120,11.0,0.0
2677,52.0,0,120,1.0,0.0
2678,64.0,0,120,7.0,0.0
2679,76.0,96,120,6.0,0.0
2680,40.0,0,120,12.0,0.0
2681,75.0,0,90,5.0,0.0
2682,75.0,0,90,6.0,0.0
2683,63.0,0,90,7.0,0.0
2684,75.0,144,90,0.0,0.0
2685,39.0,0,90,11.0,0.0
2686,39.0,0,90,12.0,0.0
2687,51.0,0,90,10.0,0.0
2688,51.0,0,90,1.0,0.0
2689,40.0,0,600,11.0,0.0
2690,64.0,0,390,3.0,0.0
2691,76.0,72,390,3.0,0.0
2692,64.0,0,600,7.0,0.0
2693,76.0,120,120,6.0,0.0
2694,52.0,0,600,1.0,0.0
2695,52.0,0,780,2.0,0.0
2696,64.0,72,780,2.0,0.0
2697,40.0,120,600,12.0,0.0
2698,76.0,0,600,0.0,0.0
2699,76.0,0,120,5.0,0.0
2700,43.0,0,390,4.0,0.0
2701,52.0,0,600,10.0,0.0
2702,78.0,120,120,5.0,0.0
2703,78.0,0,120,6.0,0.0
2704,79.0,24,120,5.0,0.0
2705,79.0,0,120,6.0,0.0
2706,78.0,144,90,5.0,0.0
2707,78.0,0,90,6.0,0.0
2708,76.0,0,120,5.0,0.0
2709,76.0,0,120,6.0,0.0
2710,74.0,0,120,5.0,0.0
2711,50.0,0,120,1.0,0.0
2712,74.0,0,120,0.0,0.0
2713,62.0,0,120,7.0,0.0
2714,38.0,0,120,11.0,0.0
2715,38.0,0,120,12.0,0.0
2716,50.0,48,120,10.0,0.0
2717,74.0,0,120,6.0,0.0
2718,48.0,0,120,1.0,0.0
2719,72.0,0,120,0.0,0.0
2720,72.0,0,120,6.0,0.0
2721,72.0,0,120,5.0,0.0
2722,60.0,96,120,7.0,0.0
2723,36.0,0,120,11.0,0.0
2724,48.0,0,120,10.0,0.0
2725,36.0,0,120,12.0,0.0
2726,35.0,0,90,12.0,0.0
2727,47.0,0,90,1.0,0.0
2728,35.0,0,90,11.0,0.0
2729,71.0,0,90,0.0,0.0
2730,71.0,0,90,5.0,0.0
2731,71.0,0,90,6.0,0.0
2732,47.0,144,90,10.0,0.0
2733,59.0,0,90,7.0,0.0
2734,36.0,120,480,12.0,0.0
2735,36.0,0,480,11.0,0.0
2736,84.0,0,600,0.0,0.0
2737,48.0,0,480,1.0,0.0
2738,72.0,0,120,6.0,0.0
2739,48.0,72,780,2.0,0.0
2740,60.0,0,390,3.0,0.0
2741,48.0,0,600,10.0,0.0
2742,60.0,0,780,2.0,0.0
2743,72.0,120,120,5.0,0.0
2744,72.0,0,390,3.0,0.0
2745,60.0,0,600,7.0,0.0
2746,48.0,72,390,4.0,0.0
2747,74.0,120,120,5.0,0.0
2748,74.0,0,120,6.0,0.0
2749,76.0,0,120,6.0,0.0
2750,76.0,24,120,5.0,0.0
2751,74.0,24,90,6.0,0.0
2752,74.0,0,90,5.0,0.0
2753,60.0,0,120,1.0,0.0
2754,72.0,120,120,6.0,0.0
2755,72.0,0,120,5.0,0.0
2756,48.0,0,120,11.0,0.0
2757,48.0,0,120,12.0,0.0
2758,83.0,0,120,0.0,0.0
2759,71.0,0,120,6.0,0.0
2760,59.0,48,120,7.0,0.0
2761,71.0,0,120,5.0,0.0
2762,59.0,0,120,1.0,0.0
2763,47.0,0,120,11.0,0.0
2764,47.0,0,120,12.0,0.0
2765,47.0,0,120,10.0,0.0
2766,57.0,0,120,1.0,0.0
2767,45.0,96,120,11.0,0.0
2768,57.0,0,120,7.0,0.0
2769,45.0,0,120,12.0,0.0
2770,45.0,0,120,10.0,0.0
2771,81.0,0,120,0.0,0.0
2772,69.0,0,120,5.0,0.0
2773,69.0,0,120,6.0,0.0
2774,56.0,0,90,7.0,0.0
2775,44.0,0,90,11.0,0.0
2776,68.0,144,90,6.0,0.0
2777,44.0,0,90,10.0,0.0
2778,44.0,0,90,12.0,0.0
2779,56.0,0,90,1.0,0.0
2780,68.0,0,90,5.0,0.0
2781,80.0,0,90,0.0,0.0
2782,45.0,0,600,12.0,0.0
2783,69.0,0,120,6.0,0.0
2784,45.0,0,600,11.0,0.0
2785,57.0,0,600,1.0,0.0
2786,69.0,120,120,5.0,0.0
2787,45.0,0,600,10.0,0.0
2788,57.0,0,600,7.0,0.0
2789,81.0,120,600,0.0,0.0
2790,71.0,0,120,6.0,0.0
2791,71.0,120,120,5.0,0.0
2792,72.0,0,120,6.0,0.0
2793,72.0,96,120,5.0,0.0
2794,71.0,0,90,6.0,0.0
2795,71.0,144,90,5.0,0.0
2796,69.0,0,120,6.0,0.0
2797,69.0,0,120,5.0,0.0
2798,43.0,0,120,12.0,0.0
2799,67.0,0,120,5.0,0.0
2800,43.0,0,120,10.0,0.0
2801,43.0,0,120,11.0,0.0
2802,67.0,120,120,6.0,0.0
2803,55.0,0,120,7.0,0.0
2804,79.0,0,120,0.0,0.0
2805,55.0,0,120,1.0,0.0
2806,42.0,0,120,12.0,0.0
2807,42.0,96,120,10.0,0.0
2808,66.0,0,120,5.0,0.0
2809,54.0,0,120,7.0,0.0
2810,78.0,0,120,0.0,0.0
2811,42.0,0,120,11.0,0.0
2812,66.0,0,120,6.0,0.0
2813,54.0,0,120,1.0,0.0
2814,76.0,0,90,0.0,0.0
2815,52.0,0,90,1.0,0.0
2816,40.0,192,90,12.0,0.0
2817,64.0,0,90,5.0,0.0
2818,40.0,0,90,11.0,0.0
2819,52.0,0,90,7.0,0.0
2820,64.0,0,90,6.0,0.0
2821,40.0,0,90,10.0,0.0
2822,62.0,156,180,6.0,0.0
2823,50.0,0,330,1.0,0.0
2824,74.0,0,330,0.0,0.0
2825,38.0,0,330,11.0,0.0
2826,50.0,72,330,10.0,0.0
2827,62.0,0,180,5.0,0.0
2828,50.0,12,180,7.0,0.0
2829,38.0,0,330,12.0,0.0
2830,62.0,72,180,7.0,0.0
2831,78.0,168,240,5.0,0.0
2832,78.0,0,240,6.0,0.0
2833,55.0,0,330,2.0,0.0
2834,64.0,0,330,2.0,0.0
2835,64.0,12,180,7.0,0.0
2836,79.0,72,330,0.0,0.0
2837,71.0,0,330,0.0,0.0
2838,52.0,0,330,10.0,0.0
2839,67.0,0,330,3.0,0.0
2840,79.0,0,180,5.0,0.0
2841,79.0,156,180,6.0,0.0
2842,40.0,0,330,12.0,0.0
2843,40.0,0,330,11.0,0.0
2844,52.0,0,330,1.0,0.0
2845,76.0,0,330,3.0,0.0
2846,64.0,12,180,7.0,0.0
2847,64.0,0,180,6.0,0.0
2848,64.0,228,180,5.0,0.0
2849,36.0,0,330,11.0,0.0
2850,60.0,12,180,7.0,0.0
2851,72.0,0,330,0.0,0.0
2852,48.0,72,330,10.0,0.0
2853,60.0,0,180,5.0,0.0
2854,60.0,156,180,6.0,0.0
2855,76.0,0,330,3.0,0.0
2856,36.0,0,330,12.0,0.0
2857,48.0,0,330,1.0,0.0
2858,72.0,0,330,3.0,0.0
2859,81.0,0,330,0.0,0.0
2860,64.0,0,330,2.0,0.0
2861,60.0,0,330,2.0,0.0
2862,81.0,0,180,6.0,0.0
2863,60.0,12,180,7.0,0.0
2864,81.0,228,180,5.0,0.0
2865,62.0,156,180,6.0,0.0
2866,74.0,0,330,3.0,0.0
2867,38.0,72,330,12.0,0.0
2868,62.0,12,180,7.0,0.0
2869,50.0,0,330,10.0,0.0
2870,62.0,0,180,5.0,0.0
2871,50.0,0,330,1.0,0.0
2872,69.0,0,330,0.0,0.0
2873,62.0,0,330,2.0,0.0
2874,78.0,0,330,0.0,0.0
2875,38.0,0,330,11.0,0.0
2876,62.0,12,180,7.0,0.0
2877,78.0,252,180,5.0,0.0
2878,78.0,0,180,6.0,0.0
2879,79.0,144,780,0.0,0.0
2880,79.0,0,180,6.0,0.0
2881,55.0,0,180,10.0,0.0
2882,67.0,0,2310,3.0,0.0
2883,55.0,192,180,1.0,0.0
2884,67.0,0,780,0.0,0.0
2885,43.0,0,180,12.0,0.0
2886,55.0,0,180,7.0,0.0
2887,79.0,0,780,5.0,0.0
2888,55.0,0,180,2.0,0.0
2889,43.0,0,180,2.0,0.0
2890,43.0,0,180,11.0,0.0
2891,43.0,48,390,4.0,0.0
2892,43.0,0,180,11.0,0.0
2893,43.0,0,180,2.0,0.0
2894,55.0,0,180,7.0,0.0
2895,79.0,48,390,6.0,0.0
2896,55.0,192,180,2.0,0.0
2897,43.0,0,180,12.0,0.0
2898,55.0,0,180,10.0,0.0
2899,55.0,0,180,1.0,0.0
2900,43.0,0,180,11.0,0.0
2901,55.0,0,180,10.0,0.0
2902,55.0,96,180,1.0,0.0
2903,55.0,0,180,2.0,0.0
2904,55.0,0,180,7.0,0.0
2905,43.0,0,180,12.0,0.0
2906,43.0,0,180,2.0,0.0
2907,55.0,240,180,1.0,0.0
2908,79.0,0,420,6.0,0.0
2909,43.0,0,180,12.0,0.0
2910,43.0,0,180,11.0,0.0
2911,55.0,0,180,2.0,0.0
2912,55.0,0,180,10.0,0.0
2913,43.0,0,180,2.0,0.0
2914,55.0,0,180,7.0,0.0
2915,84.0,0,720,5.0,0.0
2916,43.0,0,180,2.0,0.0
2917,64.0,192,180,10.0,0.0
2918,52.0,0,180,12.0,0.0
2919,72.0,192,720,0.0,0.0
2920,64.0,0,180,1.0,0.0
2921,52.0,0,180,11.0,0.0
2922,43.0,48,390,4.0,0.0
2923,64.0,0,180,7.0,0.0
2924,55.0,0,180,2.0,0.0
2925,43.0,0,180,2.0,0.0
2926,64.0,0,180,10.0,0.0
2927,52.0,0,180,11.0,0.0
2928,64.0,192,180,7.0,0.0
2929,64.0,0,180,1.0,0.0
2930,79.0,48,390,6.0,0.0
2931,52.0,0,180,12.0,0.0
2932,55.0,0,180,2.0,0.0
2933,52.0,0,180,12.0,0.0
2934,52.0,0,180,11.0,0.0
2935,64.0,48,180,1.0,0.0
2936,55.0,0,180,2.0,0.0
2937,43.0,0,180,2.0,0.0
2938,64.0,0,180,7.0,0.0
2939,64.0,0,180,10.0,0.0
2940,62.0,108,180,1.0,0.0
2941,83.0,0,180,5.0,0.0
2942,71.0,0,180,0.0,0.0
2943,50.0,0,180,12.0,0.0
2944,79.0,0,420,6.0,0.0
2945,62.0,0,180,7.0,0.0
2946,55.0,0,180,2.0,0.0
2947,62.0,0,180,10.0,0.0
2948,50.0,0,180,11.0,0.0
2949,43.0,0,180,2.0,0.0
2950,55.0,0,180,2.0,0.0
2951,43.0,48,390,4.0,0.0
2952,48.0,0,180,12.0,0.0
2953,83.0,132,60,5.0,0.0
2954,43.0,48,180,2.0,0.0
2955,60.0,0,180,1.0,0.0
2956,60.0,0,180,7.0,0.0
2957,60.0,0,180,10.0,0.0
2958,71.0,0,60,0.0,0.0
2959,48.0,0,180,11.0,0.0
2960,81.0,144,180,5.0,0.0
2961,69.0,0,180,0.0,0.0
2962,79.0,48,390,6.0,0.0
2963,47.0,0,180,12.0,0.0
2964,68.0,0,180,0.0,0.0
2965,80.0,0,180,5.0,0.0
2966,59.0,108,180,7.0,0.0
2967,55.0,0,180,2.0,0.0
2968,59.0,0,180,10.0,0.0
2969,43.0,0,180,2.0,0.0
2970,47.0,0,180,11.0,0.0
2971,59.0,0,180,1.0,0.0
2972,71.0,0,60,0.0,0.0
2973,60.0,0,180,1.0,0.0
2974,60.0,0,180,7.0,0.0
2975,67.0,48,390,3.0,0.0
2976,48.0,0,180,11.0,0.0
2977,83.0,84,60,5.0,0.0
2978,43.0,0,180,2.0,0.0
2979,55.0,48,180,2.0,0.0
2980,48.0,0,180,12.0,0.0
2981,43.0,0,390,4.0,0.0
2982,60.0,0,180,10.0,0.0
2983,69.0,0,180,0.0,0.0
2984,81.0,144,180,5.0,0.0
2985,79.0,0,420,6.0,0.0
2986,59.0,0,180,7.0,0.0
2987,55.0,0,180,2.0,0.0
2988,47.0,240,180,11.0,0.0
2989,43.0,0,180,2.0,0.0
2990,68.0,0,180,0.0,0.0
2991,59.0,0,180,10.0,0.0
2992,59.0,0,180,1.0,0.0
2993,80.0,0,180,5.0,0.0
2994,47.0,0,180,12.0,0.0
2995,81.0,192,720,5.0,0.0
2996,60.0,192,180,7.0,0.0
2997,48.0,0,180,12.0,0.0
2998,48.0,0,180,11.0,0.0
2999,60.0,0,180,1.0,0.0
3000,43.0,0,180,2.0,0.0
3001,67.0,48,390,3.0,0.0
3002,43.0,0,390,4.0,0.0
3003,55.0,0,180,2.0,0.0
3004,60.0,0,180,10.0,0.0
3005,69.0,0,720,0.0,0.0
3006,55.0,192,180,2.0,0.0
3007,43.0,0,180,2.0,0.0
3008,48.0,0,180,12.0,0.0
3009,48.0,0,180,11.0,0.0
3010,79.0,48,390,6.0,0.0
3011,60.0,0,180,7.0,0.0
3012,60.0,0,180,1.0,0.0
3013,60.0,0,180,10.0,0.0
3014,60.0,0,180,7.0,0.0
3015,48.0,0,180,12.0,0.0
3016,60.0,0,180,10.0,0.0
3017,43.0,0,180,2.0,0.0
3018,55.0,0,180,2.0,0.0
3019,48.0,0,180,11.0,0.0
3020,60.0,48,180,1.0,0.0
3021,62.0,0,180,1.0,0.0
3022,50.0,0,180,12.0,0.0
3023,79.0,0,420,6.0,0.0
3024,50.0,0,180,11.0,0.0
3025,62.0,0,180,10.0,0.0
3026,62.0,0,180,7.0,0.0
3027,43.0,0,180,2.0,0.0
3028,71.0,108,180,0.0,0.0
3029,55.0,0,180,2.0,0.0
3030,83.0,0,180,5.0,0.0
3031,64.0,48,180,10.0,0.0
3032,67.0,0,390,3.0,0.0
3033,52.0,0,180,11.0,0.0
3034,52.0,0,180,12.0,0.0
3035,64.0,0,180,1.0,0.0
3036,64.0,0,180,7.0,0.0
3037,43.0,48,390,4.0,0.0
3038,43.0,0,180,2.0,0.0
3039,74.0,132,60,0.0,0.0
3040,86.0,0,60,5.0,0.0
3041,55.0,0,180,2.0,0.0
3042,84.0,0,180,5.0,0.0
3043,72.0,144,180,0.0,0.0
3044,83.0,0,180,5.0,0.0
3045,55.0,0,180,2.0,0.0
3046,63.0,0,180,7.0,0.0
3047,43.0,0,180,2.0,0.0
3048,51.0,108,180,11.0,0.0
3049,71.0,0,180,0.0,0.0
3050,63.0,0,180,1.0,0.0
3051,63.0,0,180,10.0,0.0
3052,79.0,48,390,6.0,0.0
3053,51.0,0,180,12.0,0.0
3054,43.0,0,180,2.0,0.0
3055,64.0,0,180,1.0,0.0
3056,55.0,0,180,2.0,0.0
3057,86.0,0,60,5.0,0.0
3058,52.0,0,180,11.0,0.0
3059,67.0,48,390,3.0,0.0
3060,43.0,0,390,4.0,0.0
3061,52.0,0,180,12.0,0.0
3062,64.0,0,180,10.0,0.0
3063,64.0,48,180,7.0,0.0
3064,74.0,84,60,0.0,0.0
3065,84.0,0,180,5.0,0.0
3066,72.0,144,180,0.0,0.0
3067,63.0,0,180,10.0,0.0
3068,79.0,0,420,6.0,0.0
3069,43.0,240,180,2.0,0.0
3070,55.0,0,180,2.0,0.0
3071,51.0,0,180,12.0,0.0
3072,71.0,0,180,0.0,0.0
3073,63.0,0,180,7.0,0.0
3074,83.0,0,180,5.0,0.0
3075,63.0,0,180,1.0,0.0
3076,51.0,0,180,11.0,0.0
3077,72.0,192,720,0.0,0.0
3078,84.0,0,720,5.0,0.0
3079,64.0,0,180,7.0,0.0
3080,43.0,0,180,2.0,0.0
3081,52.0,0,180,11.0,0.0
3082,67.0,48,390,3.0,0.0
3083,64.0,0,180,1.0,0.0
3084,64.0,0,180,10.0,0.0
3085,43.0,0,390,4.0,0.0
3086,55.0,192,180,2.0,0.0
3087,52.0,0,180,12.0,0.0
3088,79.0,48,390,6.0,0.0
3089,43.0,192,180,2.0,0.0
3090,64.0,0,180,7.0,0.0
3091,52.0,0,180,11.0,0.0
3092,52.0,0,180,12.0,0.0
3093,64.0,0,180,10.0,0.0
3094,55.0,0,180,2.0,0.0
3095,64.0,0,180,1.0,0.0
3096,55.0,0,180,2.0,0.0
3097,64.0,0,180,10.0,0.0
3098,52.0,0,180,11.0,0.0
3099,43.0,48,180,2.0,0.0
3100,64.0,0,180,7.0,0.0
3101,52.0,0,180,12.0,0.0
3102,64.0,0,180,1.0,0.0
3103,85.0,0,180,5.0,0.0
3104,64.0,0,180,1.0,0.0
3105,73.0,0,180,0.0,0.0
3106,55.0,0,180,2.0,0.0
3107,52.0,0,180,11.0,0.0
3108,43.0,0,180,2.0,0.0
3109,64.0,0,180,7.0,0.0
3110,64.0,0,180,10.0,0.0
3111,79.0,0,420,6.0,0.0
3112,52.0,108,180,12.0,0.0
3113,59.0,0,180,7.0,0.0
3114,67.0,48,390,3.0,0.0
3115,59.0,0,180,1.0,0.0
3116,76.0,132,60,0.0,0.0
3117,43.0,0,180,2.0,0.0
3118,88.0,0,60,5.0,0.0
3119,47.0,0,180,12.0,0.0
3120,59.0,48,180,10.0,0.0
3121,43.0,0,390,4.0,0.0
3122,55.0,0,180,2.0,0.0
3123,47.0,0,180,11.0,0.0
3124,86.0,0,180,5.0,0.0
3125,74.0,144,180,0.0,0.0
3126,79.0,48,390,6.0,0.0
3127,43.0,0,180,2.0,0.0
3128,55.0,108,180,2.0,0.0
3129,58.0,0,180,7.0,0.0
3130,73.0,0,180,0.0,0.0
3131,85.0,0,180,5.0,0.0
3132,58.0,0,180,10.0,0.0
3133,46.0,0,180,11.0,0.0
3134,46.0,0,180,12.0,0.0
3135,58.0,0,180,1.0,0.0
3136,88.0,0,60,5.0,0.0
3137,76.0,84,60,0.0,0.0
3138,43.0,0,180,2.0,0.0
3139,59.0,0,180,1.0,0.0
3140,55.0,0,180,2.0,0.0
3141,43.0,0,390,4.0,0.0
3142,67.0,48,390,3.0,0.0
3143,59.0,48,180,10.0,0.0
3144,59.0,0,180,7.0,0.0
3145,47.0,0,180,12.0,0.0
3146,47.0,0,180,11.0,0.0
3147,86.0,144,180,5.0,0.0
3148,74.0,0,180,0.0,0.0
3149,46.0,0,180,11.0,0.0
3150,43.0,0,180,2.0,0.0
3151,55.0,0,180,2.0,0.0
3152,46.0,0,180,12.0,0.0
3153,79.0,0,420,6.0,0.0
3154,85.0,0,180,5.0,0.0
3155,58.0,0,180,10.0,0.0
3156,58.0,0,180,7.0,0.0
3157,73.0,0,180,0.0,0.0
3158,58.0,240,180,1.0,0.0
3159,67.0,48,390,3.0,0.0
3160,43.0,0,390,4.0,0.0
3161,47.0,0,180,11.0,0.0
3162,59.0,0,180,1.0,0.0
3163,47.0,0,180,12.0,0.0
3164,86.0,120,720,5.0,0.0
3165,59.0,168,180,10.0,0.0
3166,74.0,0,840,0.0,0.0
3167,43.0,24,360,2.0,0.0
3168,55.0,0,360,2.0,0.0
3169,59.0,0,180,7.0,0.0
3170,59.0,0,180,7.0,0.0
3171,59.0,192,180,10.0,0.0
3172,79.0,48,390,6.0,0.0
3173,47.0,0,180,12.0,0.0
3174,47.0,0,180,11.0,0.0
3175,59.0,0,180,1.0,0.0
3176,62.0,0,360,2.0,0.0
3177,55.0,0,360,2.0,0.0
3178,79.0,72,360,0.0,0.0
3179,47.0,0,180,11.0,0.0
3180,47.0,0,180,12.0,0.0
3181,59.0,0,180,1.0,0.0
3182,59.0,0,180,10.0,0.0
3183,59.0,48,180,7.0,0.0
3184,59.0,0,180,10.0,0.0
3185,47.0,0,180,12.0,0.0
3186,62.0,0,180,7.0,0.0
3187,59.0,0,180,1.0,0.0
3188,79.0,24,180,6.0,0.0
3189,84.0,0,120,5.0,0.0
3190,47.0,0,180,11.0,0.0
3191,83.0,216,90,5.0,0.0
3192,81.0,0,720,5.0,0.0
3193,48.0,0,180,12.0,0.0
3194,60.0,0,180,10.0,0.0
3195,81.0,0,780,0.0,0.0
3196,60.0,0,180,1.0,0.0
3197,64.0,240,180,7.0,0.0
3198,76.0,0,780,0.0,0.0
3199,76.0,0,780,3.0,0.0
3200,72.0,0,780,3.0,0.0
3201,48.0,0,180,11.0,0.0
3202,81.0,48,720,6.0,0.0
3203,64.0,0,780,2.0,0.0
3204,60.0,72,780,2.0,0.0
3205,48.0,240,180,12.0,0.0
3206,60.0,0,180,1.0,0.0
3207,48.0,0,180,11.0,0.0
3208,64.0,0,180,7.0,0.0
3209,60.0,0,180,10.0,0.0
3210,64.0,0,180,7.0,0.0
3211,48.0,48,180,12.0,0.0
3212,60.0,0,180,1.0,0.0
3213,60.0,0,180,10.0,0.0
3214,48.0,0,180,11.0,0.0
3215,48.0,0,180,11.0,0.0
3216,60.0,0,180,1.0,0.0
3217,60.0,24,180,10.0,0.0
3218,64.0,0,180,7.0,0.0
3219,83.0,0,120,5.0,0.0
3220,48.0,0,180,12.0,0.0
3221,83.0,72,120,6.0,0.0
3222,84.0,0,90,5.0,0.0
3223,84.0,216,90,6.0,0.0
3224,74.0,0,720,6.0,0.0
3225,50.0,0,180,11.0,0.0
3226,50.0,0,180,12.0,0.0
3227,66.0,96,570,7.0,0.0
3228,74.0,48,720,5.0,0.0
3229,62.0,240,180,1.0,0.0
3230,74.0,0,780,3.0,0.0
3231,62.0,0,180,10.0,0.0
3232,62.0,0,780,2.0,0.0
3233,69.0,0,780,0.0,0.0
3234,78.0,48,780,0.0,0.0
3235,50.0,0,180,12.0,0.0
3236,62.0,144,180,1.0,0.0
3237,62.0,0,180,10.0,0.0
3238,50.0,0,180,11.0,0.0
3239,62.0,48,180,1.0,0.0
3240,50.0,0,180,12.0,0.0
3241,62.0,0,180,10.0,0.0
3242,50.0,0,180,11.0,0.0
3243,50.0,0,180,12.0,0.0
3244,76.0,72,120,5.0,0.0
3245,67.0,24,90,7.0,0.0
3246,76.0,0,120,6.0,0.0
3247,62.0,0,180,1.0,0.0
3248,62.0,24,180,10.0,0.0
3249,50.0,0,180,11.0,0.0
3250,78.0,0,90,6.0,0.0
3251,69.0,0,90,7.0,0.0
3252,78.0,336,90,5.0,0.0
3253,62.0,0,300,2.0,0.0
3254,71.0,0,300,0.0,0.0
3255,55.0,0,300,1.0,0.0
3256,55.0,0,390,10.0,0.0
3257,74.0,72,300,3.0,0.0
3258,67.0,0,300,3.0,0.0
3259,79.0,0,300,0.0,0.0
3260,79.0,0,300,5.0,0.0
3261,43.0,216,390,12.0,0.0
3262,55.0,0,300,2.0,0.0
3263,43.0,0,390,4.0,0.0
3264,71.0,0,390,7.0,0.0
3265,79.0,0,300,6.0,0.0
3266,43.0,0,390,11.0,0.0
3267,67.0,6,240,0.0,0.0
3268,79.0,114,120,6.0,0.0
3269,79.0,0,120,5.0,0.0
3270,74.0,120,120,5.0,0.0
3271,74.0,0,120,6.0,0.0
3272,71.0,0,120,6.0,0.0
3273,71.0,78,120,5.0,0.0
3274,67.0,336,90,5.0,0.0
3275,67.0,18,90,0.0,0.0
3276,67.0,0,90,6.0,0.0
3277,62.0,0,300,6.0,0.0
3278,62.0,0,300,2.0,0.0
3279,62.0,480,300,0.0,0.0
3280,62.0,0,300,5.0,0.0
3281,38.0,408,390,12.0,0.0
3282,74.0,0,300,5.0,0.0
3283,81.0,0,300,5.0,0.0
3284,62.0,0,300,5.0,0.0
3285,38.0,0,390,11.0,0.0
3286,78.0,0,300,0.0,0.0
3287,62.0,0,390,7.0,0.0
3288,81.0,0,300,0.0,0.0
3289,69.0,0,300,6.0,0.0
3290,78.0,0,300,6.0,0.0
3291,50.0,0,390,10.0,0.0
3292,50.0,0,300,1.0,0.0
3293,62.0,0,300,6.0,0.0
3294,74.0,0,300,3.0,0.0
3295,62.0,72,300,2.0,0.0
3296,74.0,0,300,3.0,0.0
3297,43.0,0,390,11.0,0.0
3298,43.0,0,390,4.0,0.0
3299,62.0,0,300,5.0,0.0
3300,74.0,0,300,5.0,0.0
3301,67.0,0,300,3.0,0.0
3302,83.0,0,300,5.0,0.0
3303,55.0,0,390,10.0,0.0
3304,62.0,0,300,6.0,0.0
3305,79.0,0,300,6.0,0.0
3306,83.0,0,300,0.0,0.0
3307,79.0,0,300,0.0,0.0
3308,67.0,0,390,7.0,0.0
3309,62.0,0,300,2.0,0.0
3310,55.0,72,300,2.0,0.0
3311,55.0,0,300,1.0,0.0
3312,71.0,0,300,6.0,0.0
3313,43.0,216,390,12.0,0.0
3314,79.0,0,120,5.0,0.0
3315,79.0,114,120,6.0,0.0
3316,67.0,6,240,0.0,0.0
3317,74.0,0,120,5.0,0.0
3318,74.0,120,120,6.0,0.0
3319,71.0,0,120,5.0,0.0
3320,71.0,78,120,6.0,0.0
3321,67.0,0,90,5.0,0.0
3322,67.0,336,90,6.0,0.0
3323,67.0,18,90,0.0,0.0
3324,62.0,0,300,2.0,0.0
3325,62.0,480,300,6.0,0.0
3326,62.0,0,300,0.0,0.0
3327,62.0,0,300,5.0,0.0
3328,74.0,0,300,3.0,0.0
3329,69.0,0,300,5.0,0.0
3330,62.0,0,300,5.0,0.0
3331,78.0,0,300,5.0,0.0
3332,38.0,0,300,12.0,0.0
3333,72.0,0,300,0.0,0.0
3334,78.0,0,300,0.0,0.0
3335,50.0,324,300,10.0,0.0
3336,50.0,0,300,1.0,0.0
3337,38.0,0,300,11.0,0.0
3338,62.0,0,300,2.0,0.0
3339,72.0,0,300,6.0,0.0
3340,62.0,0,300,7.0,0.0
3341,62.0,0,300,6.0,0.0
3342,55.0,0,150,1.0,0.0
3343,79.0,0,150,0.0,0.0
3344,71.0,0,150,0.0,0.0
3345,55.0,0,150,10.0,0.0
3346,43.0,0,150,12.0,0.0
3347,62.0,0,150,5.0,0.0
3348,79.0,0,150,5.0,0.0
3349,71.0,0,150,5.0,0.0
3350,43.0,12,390,4.0,0.0
3351,62.0,0,150,2.0,0.0
3352,67.0,0,150,7.0,0.0
3353,55.0,0,150,2.0,0.0
3354,43.0,0,150,11.0,0.0
3355,71.0,0,150,6.0,0.0
3356,62.0,0,150,6.0,0.0
3357,67.0,228,150,3.0,0.0
3358,31.0,0,150,12.0,0.0
3359,55.0,0,150,6.0,0.0
3360,43.0,0,150,10.0,0.0
3361,67.0,240,150,6.0,0.0
3362,31.0,0,150,11.0,0.0
3363,43.0,0,150,2.0,0.0
3364,67.0,0,150,0.0,0.0
3365,43.0,0,150,1.0,0.0
3366,55.0,0,150,7.0,0.0
3367,55.0,0,150,2.0,0.0
3368,67.0,0,150,3.0,0.0
3369,67.0,0,150,5.0,0.0
3370,55.0,0,150,5.0,0.0
3371,67.0,228,150,6.0,0.0
3372,55.0,0,150,6.0,0.0
3373,31.0,0,150,12.0,0.0
3374,55.0,0,150,7.0,0.0
3375,43.0,0,150,1.0,0.0
3376,55.0,0,150,2.0,0.0
3377,43.0,0,150,2.0,0.0
3378,67.0,0,150,3.0,0.0
3379,67.0,0,150,0.0,0.0
3380,31.0,0,150,11.0,0.0
3381,55.0,0,150,5.0,0.0
3382,43.0,0,150,10.0,0.0
3383,67.0,0,150,5.0,0.0
3384,43.0,12,390,4.0,0.0
3385,55.0,0,150,7.0,0.0
3386,55.0,0,150,2.0,0.0
3387,43.0,0,150,2.0,0.0
3388,43.0,468,150,10.0,0.0
3389,67.0,0,150,5.0,0.0
3390,55.0,0,150,5.0,0.0
3391,31.0,0,150,11.0,0.0
3392,43.0,0,150,1.0,0.0
3393,67.0,0,150,3.0,0.0
3394,31.0,0,150,12.0,0.0
3395,67.0,0,150,0.0,0.0
3396,55.0,0,150,6.0,0.0
3397,67.0,0,150,6.0,0.0
3398,55.0,0,390,7.0,0.0
3399,55.0,0,390,6.0,0.0
3400,43.0,0,390,4.0,0.0
3401,67.0,0,390,0.0,0.0
3402,67.0,0,390,6.0,0.0
3403,55.0,0,390,5.0,0.0
3404,31.0,0,390,12.0,0.0
3405,55.0,0,390,2.0,0.0
3406,31.0,768,390,11.0,0.0
3407,67.0,0,390,5.0,0.0
3408,67.0,0,390,3.0,0.0
3409,43.0,0,390,10.0,0.0
3410,43.0,0,390,1.0,0.0
3411,43.0,0,390,2.0,0.0
3412,64.0,0,780,6.0,0.0
3413,60.0,240,180,10.0,0.0
3414,72.0,144,780,5.0,0.0
3415,60.0,144,1740,7.0,0.0
3416,60.0,240,180,10.0,0.0
3417,60.0,96,180,10.0,0.0
3418,60.0,240,180,10.0,0.0
3419,69.0,0,720,6.0,0.0
3420,77.0,48,720,5.0,0.0
3421,60.0,240,180,10.0,0.0
3422,60.0,240,180,10.0,0.0
3423,60.0,48,180,10.0,0.0
3424,67.0,108,180,6.0,0.0
3425,76.0,0,180,5.0,0.0
3426,60.0,0,180,10.0,0.0
3427,76.0,132,60,5.0,0.0
3428,69.0,144,1740,7.0,0.0
3429,60.0,48,180,10.0,0.0
3430,67.0,0,60,6.0,0.0
3431,74.0,0,180,5.0,0.0
3432,65.0,192,180,6.0,0.0
3433,73.0,108,180,5.0,0.0
3434,60.0,0,180,10.0,0.0
3435,64.0,0,180,6.0,0.0
3436,76.0,132,60,5.0,0.0
3437,60.0,48,180,10.0,0.0
3438,67.0,0,60,6.0,0.0
3439,65.0,192,180,6.0,0.0
3440,74.0,0,180,5.0,0.0
3441,73.0,0,180,5.0,0.0
3442,64.0,240,180,6.0,0.0
3443,60.0,0,180,10.0,0.0
3444,65.0,0,390,6.0,0.0
3445,74.0,48,390,5.0,0.0
3446,60.0,192,180,10.0,0.0
3447,60.0,240,180,10.0,0.0
3448,60.0,96,180,10.0,0.0
3449,60.0,288,180,10.0,0.0
3450,67.0,0,2100,6.0,0.0
3451,74.0,240,240,5.0,0.0
3452,62.0,192,1920,7.0,0.0
3453,59.0,144,1740,10.0,0.0
3454,76.0,240,240,5.0,0.0
3455,77.0,192,240,5.0,0.0
3456,78.0,288,180,5.0,0.0
3457,79.0,240,240,5.0,0.0
3458,80.0,240,240,5.0,0.0
3459,81.0,48,240,5.0,0.0
3460,77.0,48,180,5.0,0.0
3461,60.0,0,180,10.0,0.0
3462,76.0,240,180,5.0,0.0
3463,60.0,0,180,7.0,0.0
3464,60.0,0,180,10.0,0.0
3465,72.0,0,180,6.0,0.0
3466,76.0,168,180,5.0,0.0
3467,67.0,0,180,7.0,0.0
3468,74.0,0,120,6.0,0.0
3469,79.0,72,120,5.0,0.0
3470,67.0,0,180,7.0,0.0
3471,60.0,48,180,10.0,0.0
3472,72.0,120,120,6.0,0.0
3473,77.0,0,120,5.0,0.0
3474,60.0,0,180,10.0,0.0
3475,76.0,0,120,5.0,0.0
3476,67.0,24,180,7.0,0.0
3477,71.0,72,120,6.0,0.0
3478,77.0,0,90,5.0,0.0
3479,72.0,408,90,6.0,0.0
3480,60.0,0,390,10.0,0.0
3481,79.0,0,390,5.0,0.0
3482,76.0,1296,390,6.0,0.0
3483,67.0,0,390,7.0,0.0
3484,48.0,0,720,1.0,0.0
3485,36.0,0,720,12.0,0.0
3486,36.0,0,720,11.0,0.0
3487,48.0,0,720,10.0,0.0
3488,60.0,0,720,6.0,0.0
3489,72.0,0,720,0.0,0.0
3490,60.0,48,720,5.0,0.0
3491,60.0,0,720,7.0,0.0
3492,48.0,72,780,2.0,0.0
3493,60.0,0,780,2.0,0.0
3494,50.0,0,120,1.0,0.0
3495,62.0,0,120,6.0,0.0
3496,62.0,0,120,7.0,0.0
3497,38.0,96,120,12.0,0.0
3498,38.0,0,120,11.0,0.0
3499,50.0,0,120,10.0,0.0
3500,62.0,0,120,5.0,0.0
3501,74.0,0,120,0.0,0.0
3502,52.0,0,90,10.0,0.0
3503,76.0,0,90,0.0,0.0
3504,64.0,0,90,5.0,0.0
3505,40.0,192,90,11.0,0.0
3506,64.0,0,90,7.0,0.0
3507,40.0,0,90,12.0,0.0
3508,52.0,0,90,1.0,0.0
3509,64.0,0,90,6.0,0.0
3510,41.0,0,180,12.0,0.0
3511,41.0,0,180,11.0,0.0
3512,53.0,0,180,1.0,0.0
3513,53.0,0,180,10.0,0.0
3514,65.0,0,180,5.0,0.0
3515,65.0,0,180,7.0,0.0
3516,65.0,240,180,6.0,0.0
3517,77.0,0,180,0.0,0.0
3518,65.0,0,180,7.0,0.0
3519,53.0,0,180,10.0,0.0
3520,41.0,0,180,12.0,0.0
3521,65.0,192,180,5.0,0.0
3522,53.0,0,180,1.0,0.0
3523,77.0,0,180,0.0,0.0
3524,41.0,0,180,11.0,0.0
3525,65.0,0,180,6.0,0.0
3526,77.0,0,180,0.0,0.0
3527,65.0,0,180,7.0,0.0
3528,53.0,0,180,1.0,0.0
3529,65.0,48,120,5.0,0.0
3530,65.0,0,120,6.0,0.0
3531,53.0,0,180,10.0,0.0
3532,41.0,0,180,12.0,0.0
3533,41.0,72,180,11.0,0.0
3534,67.0,0,120,6.0,0.0
3535,67.0,120,120,5.0,0.0
3536,40.0,0,180,12.0,0.0
3537,76.0,0,180,0.0,0.0
3538,64.0,48,120,6.0,0.0
3539,40.0,0,180,11.0,0.0
3540,52.0,48,180,10.0,0.0
3541,64.0,0,120,5.0,0.0
3542,64.0,0,180,7.0,0.0
3543,52.0,0,180,1.0,0.0
3544,65.0,0,90,5.0,0.0
3545,65.0,192,90,6.0,0.0
3546,62.0,0,240,7.0,0.0
3547,38.0,0,240,12.0,0.0
3548,50.0,0,240,1.0,0.0
3549,74.0,0,240,0.0,0.0
3550,62.0,120,240,6.0,0.0
3551,62.0,0,240,5.0,0.0
3552,50.0,0,240,10.0,0.0
3553,38.0,0,240,11.0,0.0
3554,62.0,72,180,2.0,0.0
3555,64.0,0,120,7.0,0.0
3556,64.0,0,120,5.0,0.0
3557,64.0,0,120,6.0,0.0
3558,40.0,0,120,12.0,0.0
3559,52.0,0,120,10.0,0.0
3560,52.0,0,120,1.0,0.0
3561,76.0,0,120,0.0,0.0
3562,40.0,48,120,11.0,0.0
3563,62.0,48,180,2.0,0.0
3564,65.0,0,90,5.0,0.0
3565,53.0,0,90,10.0,0.0
3566,41.0,144,90,12.0,0.0
3567,53.0,0,90,1.0,0.0
3568,65.0,0,90,6.0,0.0
3569,41.0,0,90,11.0,0.0
3570,77.0,0,90,0.0,0.0
3571,65.0,0,90,7.0,0.0
3572,79.0,48,180,0.0,0.0
3573,43.0,0,180,11.0,0.0
3574,62.0,0,180,2.0,0.0
3575,55.0,0,180,2.0,0.0
3576,43.0,0,180,12.0,0.0
3577,55.0,0,180,1.0,0.0
3578,67.0,0,180,7.0,0.0
3579,55.0,24,180,10.0,0.0
3580,67.0,0,120,6.0,0.0
3581,67.0,48,120,5.0,0.0
3582,69.0,120,120,6.0,0.0
3583,69.0,0,120,5.0,0.0
3584,62.0,0,180,2.0,0.0
3585,55.0,0,180,2.0,0.0
3586,77.0,24,180,0.0,0.0
3587,65.0,0,120,6.0,0.0
3588,53.0,0,180,1.0,0.0
3589,65.0,48,120,5.0,0.0
3590,53.0,0,180,10.0,0.0
3591,65.0,0,180,7.0,0.0
3592,41.0,0,180,12.0,0.0
3593,41.0,24,180,11.0,0.0
3594,67.0,408,90,6.0,0.0
3595,67.0,0,90,5.0,0.0
3596,64.0,0,390,5.0,0.0
3597,64.0,0,390,7.0,0.0
3598,52.0,0,390,10.0,0.0
3599,64.0,0,390,2.0,0.0
3600,76.0,0,390,0.0,0.0
3601,52.0,0,390,1.0,0.0
3602,40.0,744,390,12.0,0.0
3603,60.0,0,390,2.0,0.0
3604,64.0,0,390,6.0,0.0
3605,40.0,0,390,11.0,0.0
3606,79.0,168,720,5.0,0.0
3607,64.0,240,180,7.0,0.0
3608,72.0,144,1200,6.0,0.0
3609,64.0,240,180,7.0,0.0
3610,64.0,72,180,7.0,0.0
3611,64.0,24,180,7.0,0.0
3612,84.0,216,180,5.0,0.0
3613,83.0,0,240,5.0,0.0
3614,65.0,72,180,7.0,0.0
3615,81.0,24,150,5.0,0.0
3616,77.0,0,150,6.0,0.0
3617,65.0,216,180,7.0,0.0
3618,65.0,216,180,7.0,0.0
3619,79.0,0,150,5.0,0.0
3620,76.0,24,150,6.0,0.0
3621,65.0,240,180,7.0,0.0
3622,77.0,0,150,5.0,0.0
3623,74.0,24,150,6.0,0.0
3624,74.0,0,240,6.0,0.0
3625,67.0,72,180,7.0,0.0
3626,77.0,144,240,5.0,0.0
3627,72.0,0,150,6.0,0.0
3628,76.0,24,150,5.0,0.0
3629,67.0,240,180,7.0,0.0
3630,72.0,144,240,6.0,0.0
3631,76.0,0,240,5.0,0.0
3632,67.0,72,180,7.0,0.0
3633,67.0,456,180,7.0,0.0
3634,71.0,0,150,6.0,0.0
3635,74.0,24,150,5.0,0.0
3636,75.0,0,480,5.0,0.0
3637,60.0,96,390,7.0,0.0
3638,71.0,192,480,6.0,0.0
3639,76.0,0,180,5.0,0.0
3640,72.0,1008,180,6.0,0.0
3641,48.0,0,720,10.0,0.0
3642,36.0,48,720,12.0,0.0
3643,60.0,0,720,7.0,0.0
3644,60.0,0,720,5.0,0.0
3645,48.0,0,720,1.0,0.0
3646,60.0,0,720,6.0,0.0
3647,72.0,0,720,0.0,0.0
3648,36.0,0,720,11.0,0.0
3649,60.0,72,780,2.0,0.0
3650,48.0,0,780,2.0,0.0
3651,62.0,0,120,7.0,0.0
3652,38.0,0,120,11.0,0.0
3653,50.0,0,120,10.0,0.0
3654,74.0,0,120,0.0,0.0
3655,50.0,0,120,1.0,0.0
3656,38.0,96,120,12.0,0.0
3657,62.0,0,120,6.0,0.0
3658,62.0,0,120,5.0,0.0
3659,76.0,0,90,0.0,0.0
3660,52.0,0,90,1.0,0.0
3661,40.0,192,90,11.0,0.0
3662,64.0,0,90,6.0,0.0
3663,64.0,0,90,5.0,0.0
3664,64.0,0,90,7.0,0.0
3665,40.0,0,90,12.0,0.0
3666,52.0,0,90,10.0,0.0
3667,65.0,240,180,6.0,0.0
3668,53.0,0,180,10.0,0.0
3669,65.0,0,180,5.0,0.0
3670,41.0,0,180,12.0,0.0
3671,77.0,0,180,0.0,0.0
3672,65.0,0,180,7.0,0.0
3673,41.0,0,180,11.0,0.0
3674,53.0,0,180,1.0,0.0
3675,41.0,0,180,12.0,0.0
3676,41.0,0,180,11.0,0.0
3677,53.0,0,180,10.0,0.0
3678,65.0,0,180,7.0,0.0
3679,53.0,0,180,1.0,0.0
3680,65.0,0,180,5.0,0.0
3681,77.0,192,180,0.0,0.0
3682,65.0,0,180,6.0,0.0
3683,65.0,0,120,7.0,0.0
3684,53.0,0,180,1.0,0.0
3685,65.0,48,120,5.0,0.0
3686,53.0,0,180,10.0,0.0
3687,77.0,72,180,0.0,0.0
3688,65.0,0,120,6.0,0.0
3689,41.0,0,180,11.0,0.0
3690,41.0,0,180,12.0,0.0
3691,67.0,0,120,7.0,0.0
3692,67.0,0,120,5.0,0.0
3693,67.0,120,120,6.0,0.0
3694,40.0,48,180,11.0,0.0
3695,52.0,0,180,1.0,0.0
3696,64.0,0,120,5.0,0.0
3697,64.0,48,120,7.0,0.0
3698,64.0,0,120,6.0,0.0
3699,40.0,0,180,12.0,0.0
3700,76.0,0,180,0.0,0.0
3701,52.0,0,180,10.0,0.0
3702,65.0,0,90,5.0,0.0
3703,65.0,0,90,7.0,0.0
3704,65.0,192,90,6.0,0.0
3705,62.0,72,180,2.0,0.0
3706,50.0,0,240,10.0,0.0
3707,62.0,120,240,5.0,0.0
3708,50.0,0,240,1.0,0.0
3709,74.0,0,240,0.0,0.0
3710,62.0,0,240,6.0,0.0
3711,38.0,0,240,12.0,0.0
3712,62.0,0,240,7.0,0.0
3713,38.0,0,240,11.0,0.0
3714,40.0,48,120,12.0,0.0
3715,52.0,0,120,10.0,0.0
3716,64.0,0,120,5.0,0.0
3717,62.0,48,180,2.0,0.0
3718,64.0,0,120,7.0,0.0
3719,52.0,0,120,1.0,0.0
3720,76.0,0,120,0.0,0.0
3721,40.0,0,120,11.0,0.0
3722,64.0,0,120,6.0,0.0
3723,65.0,0,90,7.0,0.0
3724,53.0,0,90,10.0,0.0
3725,41.0,0,90,11.0,0.0
3726,65.0,0,90,6.0,0.0
3727,77.0,0,90,0.0,0.0
3728,53.0,0,90,1.0,0.0
3729,65.0,0,90,5.0,0.0
3730,41.0,144,90,12.0,0.0
3731,55.0,0,180,1.0,0.0
3732,79.0,48,180,0.0,0.0
3733,67.0,0,120,7.0,0.0
3734,55.0,0,180,10.0,0.0
3735,43.0,0,180,11.0,0.0
3736,67.0,48,120,6.0,0.0
3737,67.0,0,120,5.0,0.0
3738,55.0,0,180,2.0,0.0
3739,43.0,0,180,12.0,0.0
3740,62.0,24,180,2.0,0.0
3741,69.0,0,120,6.0,0.0
3742,69.0,120,120,7.0,0.0
3743,69.0,0,120,5.0,0.0
3744,65.0,0,120,5.0,0.0
3745,77.0,0,180,0.0,0.0
3746,53.0,24,180,1.0,0.0
3747,41.0,0,180,12.0,0.0
3748,65.0,48,120,6.0,0.0
3749,65.0,0,120,7.0,0.0
3750,62.0,0,180,2.0,0.0
3751,55.0,0,180,2.0,0.0
3752,53.0,0,180,10.0,0.0
3753,41.0,24,180,11.0,0.0
3754,67.0,0,90,5.0,0.0
3755,67.0,408,90,6.0,0.0
3756,67.0,0,90,7.0,0.0
3757,76.0,0,390,0.0,0.0
3758,64.0,0,390,7.0,0.0
3759,64.0,0,390,5.0,0.0
3760,52.0,0,390,10.0,0.0
3761,40.0,792,390,11.0,0.0
3762,52.0,0,390,1.0,0.0
3763,64.0,0,390,6.0,0.0
3764,64.0,0,390,2.0,0.0
3765,60.0,0,390,2.0,0.0
3766,40.0,0,390,12.0,0.0
3767,72.0,0,210,6.0,0.0
3768,64.0,240,210,7.0,0.0
3769,79.0,192,720,5.0,0.0
3770,72.0,240,210,6.0,0.0
3771,64.0,0,210,7.0,0.0
3772,72.0,0,210,6.0,0.0
3773,64.0,24,210,7.0,0.0
3774,84.0,24,180,5.0,0.0
3775,64.0,240,210,7.0,0.0
3776,72.0,0,210,6.0,0.0
3777,72.0,0,210,6.0,0.0
3778,84.0,192,720,5.0,0.0
3779,65.0,240,210,7.0,0.0
3780,72.0,0,210,6.0,0.0
3781,65.0,240,210,7.0,0.0
3782,72.0,0,210,6.0,0.0
3783,65.0,24,210,7.0,0.0
3784,81.0,24,180,5.0,0.0
3785,65.0,240,210,7.0,0.0
3786,72.0,0,210,6.0,0.0
3787,72.0,0,210,6.0,0.0
3788,65.0,24,210,7.0,0.0
3789,81.0,216,240,5.0,0.0
3790,65.0,0,210,7.0,0.0
3791,72.0,216,240,5.0,0.0
3792,72.0,24,210,6.0,0.0
3793,72.0,0,210,6.0,0.0
3794,65.0,24,210,7.0,0.0
3795,81.0,192,240,5.0,0.0
3796,65.0,240,210,7.0,0.0
3797,84.0,24,180,5.0,0.0
3798,72.0,0,210,6.0,0.0
3799,84.0,192,720,5.0,0.0
3800,72.0,0,210,6.0,0.0
3801,64.0,240,210,7.0,0.0
3802,64.0,240,210,7.0,0.0
3803,72.0,0,210,6.0,0.0
3804,72.0,0,210,6.0,0.0
3805,64.0,24,210,7.0,0.0
3806,72.0,0,210,6.0,0.0
3807,64.0,216,210,7.0,0.0
3808,79.0,24,180,5.0,0.0
3809,64.0,0,180,7.0,0.0
3810,72.0,48,180,6.0,0.0
3811,79.0,192,240,5.0,0.0
3812,72.0,48,180,6.0,0.0
3813,72.0,192,240,5.0,0.0
3814,64.0,0,180,7.0,0.0
3815,79.0,192,240,5.0,0.0
3816,64.0,0,180,7.0,0.0
3817,72.0,48,180,6.0,0.0
3818,84.0,0,180,5.0,0.0
3819,64.0,0,180,7.0,0.0
3820,72.0,108,180,6.0,0.0
3821,72.0,0,180,6.0,0.0
3822,81.0,60,60,5.0,0.0
3823,65.0,48,180,7.0,0.0
3824,83.0,72,60,5.0,0.0
3825,84.0,300,120,5.0,0.0
3826,69.0,48,180,6.0,0.0
3827,74.0,60,60,5.0,0.0
3828,53.0,0,180,7.0,0.0
3829,76.0,72,60,5.0,0.0
3830,77.0,300,120,5.0,0.0
3831,76.0,0,60,5.0,0.0
3832,55.0,48,180,7.0,0.0
3833,60.0,60,60,6.0,0.0
3834,62.0,0,60,6.0,0.0
3835,77.0,72,60,5.0,0.0
3836,79.0,300,120,5.0,0.0
3837,64.0,0,120,6.0,0.0
3838,62.0,60,60,6.0,0.0
3839,55.0,48,180,7.0,0.0
3840,71.0,0,60,5.0,0.0
3841,72.0,0,60,5.0,0.0
3842,64.0,72,60,6.0,0.0
3843,65.0,432,120,6.0,0.0
3844,74.0,0,120,5.0,0.0
3845,60.0,0,780,2.0,0.0
3846,48.0,192,180,11.0,0.0
3847,48.0,0,780,2.0,0.0
3848,60.0,0,180,1.0,0.0
3849,72.0,0,780,5.0,0.0
3850,60.0,0,780,3.0,0.0
3851,72.0,144,780,3.0,0.0
3852,48.0,0,180,12.0,0.0
3853,72.0,0,780,0.0,0.0
3854,60.0,0,180,10.0,0.0
3855,72.0,0,780,6.0,0.0
3856,64.0,0,780,6.0,0.0
3857,60.0,0,780,7.0,0.0
3858,48.0,48,390,4.0,0.0
3859,60.0,0,180,1.0,0.0
3860,48.0,0,180,12.0,0.0
3861,48.0,0,180,11.0,0.0
3862,60.0,240,180,10.0,0.0
3863,48.0,0,180,12.0,0.0
3864,48.0,0,180,11.0,0.0
3865,60.0,0,180,1.0,0.0
3866,60.0,96,180,10.0,0.0
3867,60.0,240,180,10.0,0.0
3868,48.0,0,180,11.0,0.0
3869,60.0,0,180,1.0,0.0
3870,48.0,0,180,12.0,0.0
3871,64.0,0,180,1.0,0.0
3872,64.0,96,570,3.0,0.0
3873,76.0,0,570,3.0,0.0
3874,76.0,0,570,0.0,0.0
3875,64.0,0,570,7.0,0.0
3876,48.0,48,390,4.0,0.0
3877,76.0,0,570,5.0,0.0
3878,64.0,0,570,2.0,0.0
3879,52.0,0,570,2.0,0.0
3880,52.0,0,180,12.0,0.0
3881,64.0,0,180,10.0,0.0
3882,52.0,192,180,11.0,0.0
3883,76.0,0,570,6.0,0.0
3884,64.0,0,180,10.0,0.0
3885,52.0,144,180,12.0,0.0
3886,64.0,0,180,1.0,0.0
3887,52.0,0,180,11.0,0.0
3888,64.0,216,180,10.0,0.0
3889,52.0,0,180,11.0,0.0
3890,52.0,0,180,12.0,0.0
3891,64.0,0,180,1.0,0.0
3892,67.0,0,180,3.0,0.0
3893,43.0,240,180,11.0,0.0
3894,67.0,0,180,6.0,0.0
3895,67.0,0,180,0.0,0.0
3896,55.0,0,180,1.0,0.0
3897,55.0,24,180,7.0,0.0
3898,43.0,0,180,12.0,0.0
3899,55.0,0,180,10.0,0.0
3900,67.0,0,180,5.0,0.0
3901,55.0,0,180,2.0,0.0
3902,60.0,0,570,7.0,0.0
3903,48.0,48,390,4.0,0.0
3904,60.0,0,570,2.0,0.0
3905,60.0,0,180,10.0,0.0
3906,72.0,0,570,5.0,0.0
3907,60.0,192,180,1.0,0.0
3908,72.0,0,570,0.0,0.0
3909,48.0,0,180,11.0,0.0
3910,48.0,0,180,12.0,0.0
3911,72.0,0,570,6.0,0.0
3912,72.0,96,570,3.0,0.0
3913,48.0,0,180,12.0,0.0
3914,60.0,0,180,1.0,0.0
3915,60.0,0,180,10.0,0.0
3916,48.0,144,180,11.0,0.0
3917,60.0,216,180,1.0,0.0
3918,48.0,0,180,11.0,0.0
3919,48.0,0,180,12.0,0.0
3920,60.0,0,180,10.0,0.0
3921,40.0,0,180,12.0,0.0
3922,52.0,0,180,7.0,0.0
3923,64.0,0,180,3.0,0.0
3924,52.0,216,180,10.0,0.0
3925,64.0,0,180,0.0,0.0
3926,64.0,0,180,2.0,0.0
3927,64.0,0,180,5.0,0.0
3928,64.0,24,180,6.0,0.0
3929,52.0,0,180,2.0,0.0
3930,40.0,0,180,11.0,0.0
3931,52.0,0,180,1.0,0.0
3932,55.0,0,180,1.0,0.0
3933,67.0,0,180,6.0,0.0
3934,43.0,192,180,11.0,0.0
3935,43.0,24,390,4.0,0.0
3936,43.0,0,180,12.0,0.0
3937,67.0,0,180,0.0,0.0
3938,67.0,0,180,5.0,0.0
3939,67.0,24,180,3.0,0.0
3940,55.0,0,180,7.0,0.0
3941,67.0,0,180,2.0,0.0
3942,55.0,0,180,10.0,0.0
3943,55.0,0,180,2.0,0.0
3944,48.0,0,180,2.0,0.0
3945,48.0,0,180,10.0,0.0
3946,60.0,0,180,2.0,0.0
3947,60.0,0,180,5.0,0.0
3948,36.0,0,180,12.0,0.0
3949,60.0,0,180,6.0,0.0
3950,48.0,0,180,7.0,0.0
3951,48.0,0,180,1.0,0.0
3952,36.0,216,180,11.0,0.0
3953,60.0,0,180,3.0,0.0
3954,60.0,24,180,0.0,0.0
3955,40.0,0,180,11.0,0.0
3956,64.0,0,180,6.0,0.0
3957,40.0,0,180,12.0,0.0
3958,52.0,24,180,2.0,0.0
3959,64.0,0,180,2.0,0.0
3960,52.0,192,180,10.0,0.0
3961,64.0,0,180,3.0,0.0
3962,64.0,0,180,0.0,0.0
3963,52.0,0,180,1.0,0.0
3964,43.0,24,390,4.0,0.0
3965,64.0,0,180,5.0,0.0
3966,52.0,0,180,7.0,0.0
3967,31.0,144,180,12.0,0.0
3968,55.0,0,180,5.0,0.0
3969,55.0,0,180,3.0,0.0
3970,67.0,0,180,0.0,0.0
3971,67.0,0,180,3.0,0.0
3972,55.0,0,180,7.0,0.0
3973,31.0,0,180,11.0,0.0
3974,43.0,0,180,1.0,0.0
3975,55.0,0,180,6.0,0.0
3976,43.0,0,180,10.0,0.0
3977,43.0,24,180,2.0,0.0
3978,55.0,0,180,2.0,0.0
3979,36.0,0,390,12.0,0.0
3980,60.0,24,390,2.0,0.0
3981,60.0,0,390,3.0,0.0
3982,48.0,0,390,1.0,0.0
3983,36.0,0,390,11.0,0.0
3984,48.0,0,390,4.0,0.0
3985,60.0,0,90,6.0,0.0
3986,60.0,120,90,5.0,0.0
3987,60.0,0,390,7.0,0.0
3988,48.0,0,390,2.0,0.0
3989,64.0,0,390,3.0,0.0
3990,72.0,48,420,0.0,0.0
3991,48.0,0,390,10.0,0.0
3992,60.0,0,90,5.0,0.0
3993,60.0,120,90,6.0,0.0
3994,67.0,0,180,0.0,0.0
3995,55.0,48,90,5.0,0.0
3996,55.0,0,90,6.0,0.0
3997,55.0,120,90,6.0,0.0
3998,55.0,0,90,5.0,0.0
3999,57.0,0,90,6.0,0.0
4000,69.0,48,180,0.0,0.0
4001,57.0,72,90,5.0,0.0
4002,57.0,0,90,5.0,0.0
4003,57.0,120,90,6.0,0.0
4004,59.0,72,90,6.0,0.0
4005,59.0,0,90,5.0,0.0
4006,71.0,48,180,0.0,0.0
4007,59.0,0,90,5.0,0.0
4008,59.0,120,90,6.0,0.0
4009,52.0,0,390,2.0,0.0
4010,60.0,0,390,2.0,0.0
4011,52.0,0,390,7.0,0.0
4012,64.0,0,390,3.0,0.0
4013,60.0,120,90,6.0,0.0
4014,48.0,0,390,12.0,0.0
4015,60.0,0,90,5.0,0.0
4016,48.0,0,390,4.0,0.0
4017,60.0,0,390,1.0,0.0
4018,48.0,0,390,11.0,0.0
4019,72.0,0,390,0.0,0.0
4020,72.0,0,390,3.0,0.0
4021,60.0,72,390,10.0,0.0
4022,60.0,120,90,6.0,0.0
4023,60.0,0,90,5.0,0.0
4024,55.0,0,90,6.0,0.0
4025,55.0,48,90,5.0,0.0
4026,55.0,120,90,6.0,0.0
4027,55.0,0,90,5.0,0.0
4028,43.0,0,390,4.0,0.0
4029,55.0,0,390,7.0,0.0
4030,55.0,0,390,2.0,0.0
4031,62.0,0,390,2.0,0.0
4032,43.0,0,390,12.0,0.0
4033,55.0,72,390,10.0,0.0
4034,59.0,0,90,6.0,0.0
4035,74.0,0,390,3.0,0.0
4036,62.0,120,90,5.0,0.0
4037,67.0,0,390,3.0,0.0
4038,55.0,0,390,1.0,0.0
4039,43.0,0,390,11.0,0.0
4040,74.0,0,390,0.0,0.0
4041,59.0,0,90,6.0,0.0
4042,62.0,120,90,5.0,0.0
4043,55.0,0,90,6.0,0.0
4044,55.0,48,90,5.0,0.0
4045,55.0,120,90,5.0,0.0
4046,55.0,0,90,6.0,0.0
4047,36.0,0,390,11.0,0.0
4048,36.0,0,390,12.0,0.0
4049,60.0,0,390,2.0,0.0
4050,64.0,0,390,2.0,0.0
4051,55.0,0,390,7.0,0.0
4052,48.0,0,390,10.0,0.0
4053,64.0,0,90,5.0,0.0
4054,48.0,0,390,4.0,0.0
4055,72.0,24,180,0.0,0.0
4056,60.0,96,90,6.0,0.0
4057,76.0,0,180,0.0,0.0
4058,48.0,0,390,1.0,0.0
4059,72.0,0,390,3.0,0.0
4060,76.0,48,390,3.0,0.0
4061,64.0,0,90,5.0,0.0
4062,60.0,120,90,6.0,0.0
4063,59.0,48,90,5.0,0.0
4064,71.0,24,180,0.0,0.0
4065,67.0,0,180,0.0,0.0
4066,55.0,0,90,6.0,0.0
4067,55.0,0,90,6.0,0.0
4068,59.0,120,90,5.0,0.0
4069,69.0,0,180,0.0,0.0
4070,72.0,24,180,0.0,0.0
4071,60.0,0,90,5.0,0.0
4072,57.0,96,90,6.0,0.0
4073,57.0,0,90,6.0,0.0
4074,60.0,120,90,5.0,0.0
4075,62.0,0,90,5.0,0.0
4076,59.0,96,90,6.0,0.0
4077,71.0,0,180,0.0,0.0
4078,74.0,24,180,0.0,0.0
4079,59.0,120,90,6.0,0.0
4080,62.0,0,90,5.0,0.0
4081,48.0,0,390,1.0,0.0
4082,36.0,0,390,11.0,0.0
4083,60.0,0,390,3.0,0.0
4084,72.0,0,390,3.0,0.0
4085,48.0,72,390,10.0,0.0
4086,55.0,0,390,7.0,0.0
4087,48.0,0,390,4.0,0.0
4088,72.0,0,390,0.0,0.0
4089,76.0,0,390,0.0,0.0
4090,36.0,0,390,12.0,0.0
4091,60.0,0,390,2.0,0.0
4092,60.0,0,90,6.0,0.0
4093,64.0,120,90,5.0,0.0
4094,48.0,0,390,2.0,0.0
4095,60.0,0,90,6.0,0.0
4096,64.0,120,90,5.0,0.0
4097,55.0,0,90,6.0,0.0
4098,60.0,48,90,5.0,0.0
4099,55.0,120,90,6.0,0.0
4100,60.0,0,90,5.0,0.0
4101,48.0,0,390,11.0,0.0
4102,60.0,0,390,10.0,0.0
4103,48.0,0,390,12.0,0.0
4104,60.0,0,390,3.0,0.0
4105,60.0,0,390,1.0,0.0
4106,62.0,0,90,6.0,0.0
4107,60.0,0,390,2.0,0.0
4108,72.0,0,390,3.0,0.0
4109,55.0,0,390,7.0,0.0
4110,48.0,0,390,4.0,0.0
4111,48.0,72,390,2.0,0.0
4112,65.0,120,90,5.0,0.0
4113,77.0,0,390,0.0,0.0
4114,74.0,0,390,0.0,0.0
4115,65.0,120,90,5.0,0.0
4116,62.0,0,90,6.0,0.0
4117,62.0,0,90,5.0,0.0
4118,55.0,48,90,6.0,0.0
4119,55.0,0,90,6.0,0.0
4120,62.0,120,90,5.0,0.0
4121,67.0,0,90,5.0,0.0
4122,36.0,0,390,11.0,0.0
4123,48.0,0,1740,2.0,0.0
4124,60.0,144,1740,2.0,0.0
4125,36.0,0,390,12.0,0.0
4126,48.0,0,390,10.0,0.0
4127,48.0,0,390,4.0,0.0
4128,55.0,72,390,7.0,0.0
4129,79.0,0,1740,0.0,0.0
4130,60.0,0,390,3.0,0.0
4131,48.0,0,390,1.0,0.0
4132,64.0,120,90,6.0,0.0
4133,72.0,0,390,3.0,0.0
4134,76.0,0,1740,0.0,0.0
4135,60.0,0,90,6.0,0.0
4136,60.0,120,90,5.0,0.0
4137,62.0,48,90,5.0,0.0
4138,62.0,0,90,6.0,0.0
4139,64.0,120,90,6.0,0.0
4140,64.0,0,90,5.0,0.0
4141,65.0,120,90,5.0,0.0
4142,65.0,0,90,6.0,0.0
4143,67.0,0,90,5.0,0.0
4144,67.0,120,90,6.0,0.0
4145,69.0,120,90,5.0,0.0
4146,69.0,0,90,6.0,0.0
4147,71.0,0,90,6.0,0.0
4148,71.0,120,90,5.0,0.0
4149,72.0,0,90,5.0,0.0
4150,72.0,120,90,6.0,0.0
4151,74.0,0,90,6.0,0.0
4152,74.0,120,90,5.0,0.0
4153,76.0,120,90,5.0,0.0
4154,76.0,0,90,6.0,0.0
4155,77.0,216,90,6.0,0.0
4156,77.0,0,90,5.0,0.0
4157,79.0,0,180,6.0,0.0
4158,79.0,96,180,5.0,0.0
4159,72.0,0,180,6.0,0.0
4160,72.0,312,180,5.0,0.0
4161,65.0,0,270,6.0,0.0
4162,72.0,0,270,6.0,0.0
4163,81.0,0,270,6.0,0.0
4164,72.0,0,270,3.0,0.0
4165,60.0,0,270,3.0,0.0
4166,53.0,0,270,10.0,0.0
4167,41.0,0,270,12.0,0.0
4168,60.0,0,270,2.0,0.0
4169,65.0,0,270,5.0,0.0
4170,72.0,480,270,5.0,0.0
4171,48.0,0,270,2.0,0.0
4172,48.0,0,270,4.0,0.0
4173,77.0,0,270,0.0,0.0
4174,81.0,0,270,0.0,0.0
4175,65.0,0,270,7.0,0.0
4176,41.0,0,270,11.0,0.0
4177,81.0,0,270,5.0,0.0
4178,53.0,0,270,1.0,0.0
4179,64.0,0,270,6.0,0.0
4180,79.0,0,270,5.0,0.0
4181,48.0,0,270,10.0,0.0
4182,60.0,0,270,3.0,0.0
4183,64.0,0,270,5.0,0.0
4184,36.0,0,270,12.0,0.0
4185,36.0,0,270,11.0,0.0
4186,72.0,0,270,5.0,0.0
4187,48.0,0,270,1.0,0.0
4188,60.0,816,270,7.0,0.0
4189,76.0,0,270,0.0,0.0
4190,72.0,0,270,3.0,0.0
4191,79.0,0,270,0.0,0.0
4192,60.0,0,270,2.0,0.0
4193,79.0,0,270,6.0,0.0
4194,72.0,0,270,6.0,0.0
4195,48.0,0,270,4.0,0.0
4196,48.0,0,270,2.0,0.0
4197,81.0,120,120,5.0,0.0
4198,79.0,120,120,5.0,0.0
4199,77.0,96,120,5.0,0.0
4200,76.0,216,90,5.0,0.0
4201,72.0,48,180,6.0,0.0
4202,76.0,192,240,5.0,0.0
4203,65.0,0,180,7.0,0.0
4204,65.0,0,180,7.0,0.0
4205,72.0,0,180,6.0,0.0
4206,74.0,240,180,5.0,0.0
4207,72.0,0,180,6.0,0.0
4208,65.0,240,180,7.0,0.0
4209,74.0,192,720,5.0,0.0
4210,72.0,240,180,6.0,0.0
4211,65.0,0,180,7.0,0.0
4212,67.0,0,180,7.0,0.0
4213,71.0,48,180,6.0,0.0
4214,71.0,0,180,6.0,0.0
4215,75.0,192,240,5.0,0.0
4216,67.0,48,180,7.0,0.0
4217,76.0,192,240,5.0,0.0
4218,71.0,48,180,6.0,0.0
4219,67.0,0,240,7.0,0.0
4220,64.0,48,180,6.0,0.0
4221,71.0,0,180,5.0,0.0
4222,68.0,192,240,7.0,0.0
4223,74.0,192,240,5.0,0.0
4224,69.0,0,180,7.0,0.0
4225,64.0,48,180,6.0,0.0
4226,73.0,192,240,5.0,0.0
4227,57.0,0,180,7.0,0.0
4228,64.0,48,180,6.0,0.0
4229,57.0,240,180,7.0,0.0
4230,72.0,0,720,5.0,0.0
4231,64.0,0,180,6.0,0.0
4232,57.0,240,180,7.0,0.0
4233,64.0,0,180,6.0,0.0
4234,54.0,48,180,7.0,0.0
4235,69.0,120,240,6.0,0.0
4236,66.0,48,180,7.0,0.0
4237,74.0,0,120,5.0,0.0
4238,71.0,72,120,6.0,0.0
4239,76.0,0,120,5.0,0.0
4240,72.0,144,120,6.0,0.0
4241,66.0,192,180,7.0,0.0
4242,74.0,0,150,5.0,0.0
4243,71.0,48,150,6.0,0.0
4244,66.0,288,180,7.0,0.0
4245,69.0,0,150,6.0,0.0
4246,72.0,48,150,5.0,0.0
4247,71.0,192,240,5.0,0.0
4248,67.0,0,240,6.0,0.0
4249,67.0,96,780,7.0,0.0
4250,71.0,288,180,6.0,0.0
4251,74.0,0,180,5.0,0.0
4252,71.0,48,390,6.0,0.0
4253,74.0,48,240,5.0,0.0
4254,79.0,168,180,5.0,0.0
4255,71.0,144,480,6.0,0.0
4256,79.0,120,120,5.0,0.0
4257,64.0,96,780,7.0,0.0
4258,78.0,120,120,5.0,0.0
4259,79.0,120,120,5.0,0.0
4260,78.0,0,120,5.0,0.0
4261,79.0,144,150,5.0,0.0
4262,67.0,192,390,6.0,0.0
4263,73.0,0,150,5.0,0.0
4264,66.0,120,90,6.0,0.0
4265,74.0,72,390,5.0,0.0
4266,62.0,0,90,7.0,0.0
4267,62.0,0,90,7.0,0.0
4268,62.0,120,90,6.0,0.0
4269,62.0,48,90,7.0,0.0
4270,62.0,0,90,6.0,0.0
4271,62.0,0,90,7.0,0.0
4272,62.0,120,90,6.0,0.0
4273,62.0,0,90,6.0,0.0
4274,62.0,120,90,7.0,0.0
4275,62.0,0,90,6.0,0.0
4276,62.0,120,90,7.0,0.0
4277,62.0,0,90,6.0,0.0
4278,62.0,120,90,7.0,0.0
4279,62.0,0,90,6.0,0.0
4280,62.0,120,90,7.0,0.0
4281,62.0,0,330,5.0,0.0
4282,69.0,0,330,5.0,0.0
4283,74.0,0,330,3.0,0.0
4284,38.0,24,180,11.0,0.0
4285,38.0,0,180,12.0,0.0
4286,50.0,0,180,10.0,0.0
4287,62.0,0,90,7.0,0.0
4288,78.0,0,330,5.0,0.0
4289,62.0,72,90,6.0,0.0
4290,72.0,0,180,0.0,0.0
4291,57.0,0,180,1.0,0.0
4292,62.0,24,180,2.0,0.0
4293,54.0,0,180,1.0,0.0
4294,78.0,0,180,0.0,0.0
4295,62.0,120,90,7.0,0.0
4296,62.0,0,90,6.0,0.0
4297,50.0,24,180,12.0,0.0
4298,72.0,0,180,0.0,0.0
4299,50.0,0,180,11.0,0.0
4300,62.0,0,180,10.0,0.0
4301,62.0,0,90,7.0,0.0
4302,54.0,24,180,1.0,0.0
4303,57.0,0,180,1.0,0.0
4304,78.0,0,180,0.0,0.0
4305,62.0,72,90,6.0,0.0
4306,62.0,0,180,2.0,0.0
4307,62.0,0,90,6.0,0.0
4308,62.0,120,90,7.0,0.0
4309,62.0,24,180,2.0,0.0
4310,54.0,0,180,1.0,0.0
4311,78.0,0,330,5.0,0.0
4312,50.0,24,180,10.0,0.0
4313,69.0,0,330,5.0,0.0
4314,62.0,0,330,5.0,0.0
4315,74.0,0,330,3.0,0.0
4316,78.0,0,180,0.0,0.0
4317,38.0,0,180,12.0,0.0
4318,62.0,0,90,6.0,0.0
4319,62.0,72,90,7.0,0.0
4320,72.0,0,180,0.0,0.0
4321,57.0,0,180,1.0,0.0
4322,38.0,0,180,11.0,0.0
4323,62.0,120,90,7.0,0.0
4324,62.0,0,90,6.0,0.0
4325,62.0,0,90,6.0,0.0
4326,62.0,72,90,7.0,0.0
4327,62.0,0,180,2.0,0.0
4328,57.0,24,180,1.0,0.0
4329,54.0,0,180,1.0,0.0
4330,50.0,24,180,12.0,0.0
4331,62.0,0,180,10.0,0.0
4332,50.0,0,180,11.0,0.0
4333,72.0,0,180,0.0,0.0
4334,78.0,0,180,0.0,0.0
4335,62.0,0,90,6.0,0.0
4336,62.0,120,90,7.0,0.0
4337,50.0,0,390,10.0,0.0
4338,59.0,0,390,1.0,0.0
4339,55.0,0,390,1.0,0.0
4340,38.0,0,390,12.0,0.0
4341,62.0,0,390,2.0,0.0
4342,38.0,0,390,11.0,0.0
4343,62.0,120,90,7.0,0.0
4344,62.0,0,90,6.0,0.0
4345,71.0,0,390,5.0,0.0
4346,74.0,72,390,3.0,0.0
4347,71.0,0,390,0.0,0.0
4348,79.0,0,390,5.0,0.0
4349,79.0,0,390,0.0,0.0
4350,62.0,0,390,5.0,0.0
4351,62.0,120,90,7.0,0.0
4352,62.0,0,90,6.0,0.0
4353,62.0,0,90,7.0,0.0
4354,62.0,48,90,6.0,0.0
4355,62.0,120,90,7.0,0.0
4356,62.0,0,90,6.0,0.0
4357,62.0,120,90,7.0,0.0
4358,62.0,0,90,6.0,0.0
4359,62.0,0,90,7.0,0.0
4360,62.0,120,90,6.0,0.0
4361,62.0,0,90,7.0,0.0
4362,62.0,120,90,6.0,0.0
4363,62.0,120,90,7.0,0.0
4364,62.0,0,90,6.0,0.0
4365,71.0,24,180,0.0,0.0
4366,59.0,0,180,1.0,0.0
4367,62.0,0,180,2.0,0.0
4368,62.0,0,330,5.0,0.0
4369,79.0,0,330,5.0,0.0
4370,38.0,0,180,11.0,0.0
4371,62.0,0,90,6.0,0.0
4372,55.0,0,180,1.0,0.0
4373,71.0,0,330,5.0,0.0
4374,38.0,0,180,12.0,0.0
4375,79.0,0,180,0.0,0.0
4376,62.0,72,90,7.0,0.0
4377,50.0,24,180,10.0,0.0
4378,74.0,0,330,3.0,0.0
4379,62.0,0,90,6.0,0.0
4380,62.0,120,90,7.0,0.0
4381,50.0,24,180,11.0,0.0
4382,50.0,0,180,12.0,0.0
4383,62.0,72,90,7.0,0.0
4384,62.0,0,90,6.0,0.0
4385,79.0,0,180,0.0,0.0
4386,71.0,24,180,0.0,0.0
4387,62.0,0,180,2.0,0.0
4388,62.0,0,180,10.0,0.0
4389,55.0,0,180,1.0,0.0
4390,59.0,0,180,1.0,0.0
4391,62.0,120,90,7.0,0.0
4392,62.0,0,90,6.0,0.0
4393,74.0,72,330,3.0,0.0
4394,71.0,0,180,0.0,0.0
4395,55.0,0,180,1.0,0.0
4396,62.0,72,90,7.0,0.0
4397,38.0,24,180,12.0,0.0
4398,79.0,0,180,0.0,0.0
4399,59.0,24,180,1.0,0.0
4400,79.0,0,330,5.0,0.0
4401,38.0,0,180,11.0,0.0
4402,62.0,0,90,6.0,0.0
4403,62.0,0,330,5.0,0.0
4404,50.0,0,180,10.0,0.0
4405,62.0,0,180,2.0,0.0
4406,71.0,0,330,5.0,0.0
4407,62.0,120,90,7.0,0.0
4408,62.0,0,90,6.0,0.0
4409,62.0,0,90,6.0,0.0
4410,62.0,0,90,7.0,0.0
4411,50.0,0,180,11.0,0.0
4412,71.0,0,180,0.0,0.0
4413,79.0,24,180,0.0,0.0
4414,50.0,24,180,12.0,0.0
4415,62.0,0,180,10.0,0.0
4416,62.0,0,180,2.0,0.0
4417,59.0,0,180,1.0,0.0
4418,55.0,0,180,1.0,0.0
4419,62.0,120,90,6.0,0.0
4420,62.0,0,90,7.0,0.0
4421,81.0,0,390,5.0,0.0
4422,50.0,0,390,10.0,0.0
4423,38.0,0,390,11.0,0.0
4424,62.0,0,90,6.0,0.0
4425,38.0,0,390,12.0,0.0
4426,62.0,0,390,2.0,0.0
4427,74.0,0,390,3.0,0.0
4428,62.0,120,90,7.0,0.0
4429,60.0,0,390,1.0,0.0
4430,57.0,0,390,1.0,0.0
4431,81.0,0,390,0.0,0.0
4432,78.0,0,390,0.0,0.0
4433,78.0,72,390,5.0,0.0
4434,62.0,0,390,5.0,0.0
4435,62.0,120,90,7.0,0.0
4436,62.0,0,90,6.0,0.0
4437,62.0,48,90,7.0,0.0
4438,62.0,0,90,6.0,0.0
4439,62.0,120,90,6.0,0.0
4440,62.0,0,90,7.0,0.0
4441,62.0,0,90,6.0,0.0
4442,62.0,120,90,7.0,0.0
4443,62.0,0,90,7.0,0.0
4444,62.0,120,90,6.0,0.0
4445,62.0,120,90,6.0,0.0
4446,62.0,0,90,7.0,0.0
4447,62.0,120,90,7.0,0.0
4448,62.0,0,90,6.0,0.0
4449,60.0,0,180,1.0,0.0
4450,38.0,0,180,11.0,0.0
4451,81.0,0,330,5.0,0.0
4452,62.0,72,330,5.0,0.0
4453,78.0,0,330,5.0,0.0
4454,78.0,0,180,0.0,0.0
4455,62.0,72,90,7.0,0.0
4456,81.0,0,180,0.0,0.0
4457,62.0,0,90,6.0,0.0
4458,74.0,0,330,3.0,0.0
4459,50.0,0,180,10.0,0.0
4460,62.0,24,180,2.0,0.0
4461,38.0,24,180,12.0,0.0
4462,57.0,0,180,1.0,0.0
4463,62.0,0,90,7.0,0.0
4464,62.0,120,90,6.0,0.0
4465,81.0,24,180,0.0,0.0
4466,78.0,0,180,0.0,0.0
4467,62.0,0,180,2.0,0.0
4468,50.0,0,180,12.0,0.0
4469,62.0,0,90,6.0,0.0
4470,50.0,24,180,11.0,0.0
4471,60.0,0,180,1.0,0.0
4472,57.0,0,180,1.0,0.0
4473,62.0,0,90,7.0,0.0
4474,62.0,0,180,10.0,0.0
4475,62.0,120,90,6.0,0.0
4476,62.0,0,90,7.0,0.0
4477,78.0,0,330,5.0,0.0
4478,81.0,24,180,0.0,0.0
4479,78.0,0,180,0.0,0.0
4480,62.0,72,90,6.0,0.0
4481,62.0,0,180,2.0,0.0
4482,74.0,72,330,3.0,0.0
4483,50.0,0,180,10.0,0.0
4484,57.0,0,180,1.0,0.0
4485,62.0,0,90,7.0,0.0
4486,81.0,0,330,5.0,0.0
4487,62.0,0,330,5.0,0.0
4488,38.0,0,180,11.0,0.0
4489,60.0,0,180,1.0,0.0
4490,38.0,24,180,12.0,0.0
4491,62.0,0,90,6.0,0.0
4492,62.0,120,90,7.0,0.0
4493,62.0,0,90,7.0,0.0
4494,62.0,0,90,6.0,0.0
4495,81.0,0,180,0.0,0.0
4496,62.0,0,180,2.0,0.0
4497,50.0,0,180,11.0,0.0
4498,62.0,24,180,10.0,0.0
4499,50.0,0,180,12.0,0.0
4500,57.0,0,180,1.0,0.0
4501,60.0,24,180,1.0,0.0
4502,78.0,0,180,0.0,0.0
4503,62.0,0,90,6.0,0.0
4504,62.0,120,90,7.0,0.0
4505,38.0,0,390,12.0,0.0
4506,62.0,0,90,7.0,0.0
4507,83.0,0,390,5.0,0.0
4508,83.0,0,390,0.0,0.0
4509,50.0,0,390,10.0,0.0
4510,62.0,120,90,6.0,0.0
4511,74.0,0,390,3.0,0.0
4512,38.0,0,390,11.0,0.0
4513,62.0,72,390,2.0,0.0
4514,59.0,0,390,1.0,0.0
4515,55.0,0,390,1.0,0.0
4516,62.0,0,390,5.0,0.0
4517,79.0,0,390,5.0,0.0
4518,79.0,0,390,0.0,0.0
4519,62.0,0,90,6.0,0.0
4520,62.0,120,90,7.0,0.0
4521,62.0,0,90,6.0,0.0
4522,62.0,48,90,7.0,0.0
4523,62.0,0,90,6.0,0.0
4524,62.0,120,90,7.0,0.0
4525,62.0,120,90,6.0,0.0
4526,62.0,0,90,7.0,0.0
4527,62.0,120,90,6.0,0.0
4528,62.0,0,90,7.0,0.0
4529,62.0,0,90,6.0,0.0
4530,62.0,120,90,7.0,0.0
4531,62.0,0,90,6.0,0.0
4532,62.0,120,90,7.0,0.0
4533,38.0,0,180,12.0,0.0
4534,83.0,0,180,0.0,0.0
4535,79.0,0,180,0.0,0.0
4536,83.0,0,330,5.0,0.0
4537,62.0,0,330,5.0,0.0
4538,79.0,0,330,5.0,0.0
4539,59.0,24,180,1.0,0.0
4540,55.0,0,180,1.0,0.0
4541,62.0,0,180,2.0,0.0
4542,38.0,24,180,11.0,0.0
4543,74.0,0,330,3.0,0.0
4544,62.0,0,90,6.0,0.0
4545,62.0,72,90,7.0,0.0
4546,50.0,0,180,10.0,0.0
4547,62.0,120,90,6.0,0.0
4548,62.0,0,90,7.0,0.0
4549,50.0,0,180,11.0,0.0
4550,50.0,0,180,12.0,0.0
4551,62.0,72,90,6.0,0.0
4552,62.0,0,90,7.0,0.0
4553,83.0,0,180,0.0,0.0
4554,59.0,24,180,1.0,0.0
4555,55.0,0,180,1.0,0.0
4556,62.0,0,180,2.0,0.0
4557,79.0,0,180,0.0,0.0
4558,62.0,24,180,10.0,0.0
4559,62.0,120,90,7.0,0.0
4560,62.0,0,90,6.0,0.0
4561,74.0,72,330,3.0,0.0
4562,83.0,24,180,0.0,0.0
4563,79.0,0,180,0.0,0.0
4564,38.0,0,180,12.0,0.0
4565,62.0,72,90,7.0,0.0
4566,55.0,0,180,1.0,0.0
4567,50.0,0,180,10.0,0.0
4568,62.0,0,90,6.0,0.0
4569,62.0,0,180,2.0,0.0
4570,62.0,0,330,5.0,0.0
4571,79.0,0,330,5.0,0.0
4572,83.0,0,330,5.0,0.0
4573,38.0,24,180,11.0,0.0
4574,59.0,0,180,1.0,0.0
4575,62.0,120,90,7.0,0.0
4576,62.0,0,90,6.0,0.0
4577,55.0,0,180,1.0,0.0
4578,62.0,0,180,10.0,0.0
4579,79.0,0,180,0.0,0.0
4580,62.0,0,90,7.0,0.0
4581,62.0,0,90,6.0,0.0
4582,50.0,0,180,12.0,0.0
4583,59.0,24,180,1.0,0.0
4584,50.0,24,180,11.0,0.0
4585,62.0,0,180,2.0,0.0
4586,83.0,0,180,0.0,0.0
4587,62.0,0,90,7.0,0.0
4588,62.0,408,90,6.0,0.0
4589,84.0,0,390,0.0,0.0
4590,57.0,0,390,7.0,0.0
4591,81.0,336,390,0.0,0.0
4592,54.0,0,390,1.0,0.0
4593,66.0,0,390,7.0,0.0
4594,62.0,0,390,2.0,0.0
4595,38.0,0,390,11.0,0.0
4596,72.0,240,720,6.0,0.0
4597,84.0,0,720,5.0,0.0
4598,74.0,0,390,3.0,0.0
4599,50.0,0,390,10.0,0.0
4600,38.0,0,390,12.0,0.0
4601,57.0,0,390,1.0,0.0
4602,69.0,0,240,6.0,0.0
4603,81.0,240,240,5.0,0.0
4604,67.0,0,240,6.0,0.0
4605,79.0,240,240,5.0,0.0
4606,66.0,240,240,6.0,0.0
4607,78.0,0,240,5.0,0.0
4608,76.0,0,240,5.0,0.0
4609,64.0,228,240,6.0,0.0
4610,74.0,0,240,5.0,0.0
4611,62.0,252,240,6.0,0.0
4612,73.0,240,240,5.0,0.0
4613,61.0,0,240,6.0,0.0
4614,62.0,0,240,6.0,0.0
4615,74.0,240,240,5.0,0.0
4616,76.0,228,240,5.0,0.0
4617,64.0,0,240,6.0,0.0
4618,74.0,252,240,5.0,0.0
4619,62.0,0,240,6.0,0.0
4620,62.0,0,240,6.0,0.0
4621,74.0,240,240,5.0,0.0
4622,61.0,0,240,6.0,0.0
4623,73.0,240,240,5.0,0.0
4624,72.0,192,240,5.0,0.0
4625,60.0,0,240,6.0,0.0
4626,57.0,0,180,6.0,0.0
4627,69.0,816,180,5.0,0.0
4628,43.0,0,3780,11.0,0.0
4629,43.0,288,3780,12.0,0.0
4630,59.0,0,780,6.0,0.0
4631,55.0,0,3780,10.0,0.0
4632,67.0,252,780,5.0,0.0
4633,55.0,0,3780,7.0,0.0
4634,62.0,180,60,6.0,0.0
4635,71.0,0,60,5.0,0.0
4636,60.0,0,180,6.0,0.0
4637,69.0,240,180,5.0,0.0
4638,59.0,0,240,6.0,0.0
4639,67.0,240,240,5.0,0.0
4640,69.0,0,240,5.0,0.0
4641,60.0,192,240,6.0,0.0
4642,71.0,0,180,5.0,0.0
4643,62.0,336,180,6.0,0.0
4644,67.0,1152,300,5.0,0.0
4645,59.0,0,300,6.0,0.0
4646,64.0,0,960,6.0,0.0
4647,72.0,384,960,5.0,0.0
4648,62.0,0,390,6.0,0.0
4649,71.0,48,390,5.0,0.0
4650,71.0,48,240,5.0,0.0
4651,64.0,144,300,6.0,0.0
4652,64.0,0,300,7.0,0.0
4653,60.0,0,300,10.0,0.0
4654,48.0,0,300,11.0,0.0
4655,48.0,0,300,12.0,0.0
4656,69.0,288,180,5.0,0.0
4657,47.0,240,480,12.0,0.0
4658,47.0,0,480,11.0,0.0
4659,65.0,0,480,6.0,0.0
4660,69.0,192,240,5.0,0.0
4661,59.0,0,480,10.0,0.0
4662,62.0,0,480,7.0,0.0
4663,68.0,48,180,5.0,0.0
4664,48.0,0,300,11.0,0.0
4665,64.0,0,300,6.0,0.0
4666,60.0,0,300,10.0,0.0
4667,48.0,144,300,12.0,0.0
4668,71.0,48,240,5.0,0.0
4669,64.0,0,300,7.0,0.0
4670,69.0,288,180,5.0,0.0
4671,65.0,240,480,6.0,0.0
4672,47.0,0,480,11.0,0.0
4673,47.0,0,480,12.0,0.0
4674,62.0,0,480,7.0,0.0
4675,59.0,0,480,10.0,0.0
4676,69.0,192,240,5.0,0.0
4677,68.0,48,180,5.0,0.0
4678,64.0,0,300,7.0,0.0
4679,48.0,144,300,11.0,0.0
4680,60.0,0,300,10.0,0.0
4681,48.0,0,300,12.0,0.0
4682,71.0,48,240,5.0,0.0
4683,64.0,0,960,6.0,0.0
4684,69.0,288,180,5.0,0.0
4685,48.0,0,480,12.0,0.0
4686,60.0,240,480,10.0,0.0
4687,57.0,0,870,7.0,0.0
4688,48.0,0,480,11.0,0.0
4689,69.0,192,240,5.0,0.0
4690,67.0,48,180,5.0,0.0
4691,67.0,144,240,5.0,0.0
4692,62.0,0,390,6.0,0.0
4693,50.0,48,390,11.0,0.0
4694,50.0,0,390,12.0,0.0
4695,62.0,0,390,10.0,0.0
4696,66.0,288,180,5.0,0.0
4697,64.0,192,240,5.0,0.0
4698,62.0,816,180,5.0,0.0
4699,55.0,288,3780,10.0,0.0
4700,43.0,0,3780,12.0,0.0
4701,43.0,0,3780,11.0,0.0
4702,43.0,96,3270,2.0,0.0
4703,59.0,0,780,1.0,0.0
4704,79.0,252,780,0.0,0.0
4705,67.0,0,780,5.0,0.0
4706,55.0,0,3780,7.0,0.0
4707,59.0,0,780,6.0,0.0
4708,55.0,0,3270,2.0,0.0
4709,71.0,0,60,5.0,0.0
4710,62.0,0,60,6.0,0.0
4711,62.0,0,60,1.0,0.0
4712,83.0,180,60,0.0,0.0
4713,69.0,240,180,5.0,0.0
4714,60.0,0,180,6.0,0.0
4715,60.0,0,180,1.0,0.0
4716,81.0,0,180,0.0,0.0
4717,79.0,0,240,0.0,0.0
4718,59.0,0,240,1.0,0.0
4719,67.0,0,240,5.0,0.0
4720,59.0,240,240,6.0,0.0
4721,60.0,192,240,6.0,0.0
4722,60.0,0,240,1.0,0.0
4723,81.0,0,240,0.0,0.0
4724,69.0,0,240,5.0,0.0
4725,62.0,0,180,1.0,0.0
4726,71.0,0,180,5.0,0.0
4727,83.0,0,180,0.0,0.0
4728,62.0,336,180,6.0,0.0
4729,59.0,0,300,6.0,0.0
4730,67.0,1056,300,5.0,0.0
4731,79.0,0,300,0.0,0.0
4732,59.0,0,300,1.0,0.0
4733,72.0,0,960,5.0,0.0
4734,64.0,0,960,1.0,0.0
4735,84.0,0,960,0.0,0.0
4736,64.0,384,960,6.0,0.0
4737,62.0,48,390,1.0,0.0
4738,71.0,0,390,5.0,0.0
4739,83.0,0,390,0.0,0.0
4740,62.0,0,390,6.0,0.0
4741,38.0,0,480,12.0,0.0
4742,60.0,0,480,7.0,0.0
4743,38.0,0,480,11.0,0.0
4744,66.0,0,480,6.0,0.0
4745,71.0,0,240,5.0,0.0
4746,83.0,192,240,0.0,0.0
4747,50.0,240,480,10.0,0.0
4748,60.0,0,480,1.0,0.0
4749,69.0,48,180,5.0,0.0
4750,81.0,0,180,0.0,0.0
4751,59.0,264,450,1.0,0.0
4752,59.0,0,450,7.0,0.0
4753,40.0,0,450,12.0,0.0
4754,69.0,192,240,5.0,0.0
4755,52.0,0,450,10.0,0.0
4756,40.0,0,450,11.0,0.0
4757,67.0,0,450,6.0,0.0
4758,81.0,0,240,0.0,0.0
4759,79.0,0,180,0.0,0.0
4760,67.0,24,180,5.0,0.0
4761,36.0,0,480,11.0,0.0
4762,71.0,192,240,5.0,0.0
4763,60.0,240,480,1.0,0.0
4764,36.0,0,480,12.0,0.0
4765,48.0,0,480,10.0,0.0
4766,83.0,0,240,0.0,0.0
4767,60.0,0,480,7.0,0.0
4768,64.0,0,480,6.0,0.0
4769,81.0,48,180,0.0,0.0
4770,69.0,0,180,5.0,0.0
4771,57.0,0,450,7.0,0.0
4772,38.0,168,450,12.0,0.0
4773,50.0,0,450,10.0,0.0
4774,69.0,192,240,5.0,0.0
4775,60.0,0,450,6.0,0.0
4776,57.0,0,450,1.0,0.0
4777,38.0,0,450,11.0,0.0
4778,81.0,0,240,0.0,0.0
4779,78.0,24,180,0.0,0.0
4780,66.0,0,180,5.0,0.0
4781,31.0,0,390,12.0,0.0
4782,59.0,0,390,1.0,0.0
4783,43.0,0,390,10.0,0.0
4784,55.0,96,390,7.0,0.0
4785,67.0,240,150,5.0,0.0
4786,79.0,0,390,0.0,0.0
4787,31.0,0,390,11.0,0.0
4788,59.0,0,390,6.0,0.0
4789,67.0,240,240,5.0,0.0
4790,66.0,192,240,5.0,0.0
4791,67.0,432,180,5.0,0.0
4792,55.0,384,1920,1.0,0.0
4793,59.0,0,390,10.0,0.0
4794,47.0,0,390,12.0,0.0
4795,67.0,0,1920,7.0,0.0
4796,47.0,96,390,11.0,0.0
4797,67.0,240,240,5.0,0.0
4798,69.0,192,240,5.0,0.0
4799,71.0,432,180,5.0,0.0
4800,45.0,0,390,11.0,0.0
4801,45.0,96,390,12.0,0.0
4802,57.0,0,390,10.0,0.0
4803,72.0,240,240,5.0,0.0
4804,71.0,192,240,5.0,0.0
4805,72.0,48,180,5.0,0.0
4806,38.0,96,390,12.0,0.0
4807,54.0,0,960,1.0,0.0
4808,50.0,0,390,10.0,0.0
4809,38.0,0,390,11.0,0.0
4810,66.0,384,960,7.0,0.0
4811,76.0,240,240,5.0,0.0
4812,74.0,192,240,5.0,0.0
4813,72.0,48,180,5.0,0.0
4814,43.0,96,390,11.0,0.0
4815,43.0,0,390,12.0,0.0
4816,55.0,0,780,1.0,0.0
4817,55.0,0,390,10.0,0.0
4818,67.0,144,780,7.0,0.0
4819,71.0,240,240,5.0,0.0
4820,69.0,48,240,5.0,0.0
4821,67.0,432,180,5.0,0.0
4822,74.0,0,1920,5.0,0.0
4823,69.0,384,960,7.0,0.0
4824,62.0,0,1920,1.0,0.0
4825,54.0,96,390,10.0,0.0
4826,42.0,0,390,11.0,0.0
4827,42.0,0,390,12.0,0.0
4828,74.0,240,240,6.0,0.0
4829,76.0,192,240,6.0,0.0
4830,78.0,48,180,6.0,0.0
4831,71.0,384,960,7.0,0.0
4832,52.0,0,390,10.0,0.0
4833,40.0,0,390,11.0,0.0
4834,40.0,96,390,12.0,0.0
4835,79.0,240,240,6.0,0.0
4836,78.0,192,240,6.0,0.0
4837,79.0,48,180,6.0,0.0
4838,73.0,384,960,5.0,0.0
4839,45.0,96,390,10.0,0.0
4840,69.0,144,1740,7.0,0.0
4841,33.0,0,390,12.0,0.0
4842,33.0,0,390,11.0,0.0
4843,61.0,0,960,1.0,0.0
4844,83.0,240,240,6.0,0.0
4845,81.0,192,240,6.0,0.0
4846,79.0,48,180,6.0,0.0
4847,72.0,0,780,5.0,0.0
4848,62.0,0,780,1.0,0.0
4849,38.0,0,390,11.0,0.0
4850,50.0,0,390,10.0,0.0
4851,38.0,96,390,12.0,0.0
4852,78.0,240,240,6.0,0.0
4853,76.0,48,240,6.0,0.0
4854,74.0,432,180,6.0,0.0
4855,79.0,0,1920,6.0,0.0
4856,40.0,96,390,12.0,0.0
4857,71.0,144,780,5.0,0.0
4858,67.0,384,1920,0.0,0.0
4859,40.0,0,390,11.0,0.0
4860,52.0,0,390,10.0,0.0
4861,55.0,240,240,7.0,0.0
4862,57.0,48,240,7.0,0.0
4863,59.0,432,180,7.0,0.0
4864,33.0,0,390,11.0,0.0
4865,33.0,0,390,12.0,0.0
4866,45.0,96,390,10.0,0.0
4867,69.0,0,1920,5.0,0.0
4868,60.0,240,240,7.0,0.0
4869,59.0,192,240,7.0,0.0
4870,60.0,48,180,7.0,0.0
4871,50.0,0,390,10.0,0.0
4872,66.0,0,960,0.0,0.0
4873,38.0,96,390,11.0,0.0
4874,38.0,0,390,12.0,0.0
4875,78.0,384,960,6.0,0.0
4876,64.0,240,240,7.0,0.0
4877,62.0,192,240,7.0,0.0
4878,60.0,48,180,7.0,0.0
4879,67.0,144,780,0.0,0.0
4880,31.0,0,390,12.0,0.0
4881,67.0,0,780,5.0,0.0
4882,43.0,0,390,10.0,0.0
4883,31.0,96,390,11.0,0.0
4884,79.0,0,780,6.0,0.0
4885,59.0,240,240,7.0,0.0
4886,57.0,48,240,7.0,0.0
4887,55.0,528,180,7.0,0.0
4888,78.0,480,960,6.0,0.0
4889,62.0,480,1920,7.0,0.0
4890,69.0,0,960,5.0,0.0
4891,74.0,0,1920,0.0,0.0
4892,38.0,0,240,12.0,0.0
4893,38.0,0,240,11.0,0.0
4894,50.0,240,240,10.0,0.0
4895,52.0,0,240,10.0,0.0
4896,40.0,0,240,11.0,0.0
4897,40.0,192,240,12.0,0.0
4898,54.0,0,240,10.0,0.0
4899,42.0,48,180,11.0,0.0
4900,42.0,0,180,12.0,0.0
4901,71.0,0,960,5.0,0.0
4902,76.0,0,1920,6.0,0.0
4903,43.0,0,240,11.0,0.0
4904,55.0,240,240,10.0,0.0
4905,43.0,0,240,12.0,0.0
4906,42.0,0,240,11.0,0.0
4907,54.0,0,240,10.0,0.0
4908,42.0,192,240,12.0,0.0
4909,43.0,48,180,11.0,0.0
4910,55.0,0,240,10.0,0.0
4911,43.0,0,180,12.0,0.0
4912,64.0,0,960,5.0,0.0
4913,73.0,0,960,0.0,0.0
4914,61.0,0,960,7.0,0.0
4915,59.0,0,240,10.0,0.0
4916,47.0,240,240,11.0,0.0
4917,47.0,0,240,12.0,0.0
4918,57.0,192,240,10.0,0.0
4919,45.0,0,240,12.0,0.0
4920,45.0,0,240,11.0,0.0
4921,55.0,480,240,10.0,0.0
4922,43.0,48,180,11.0,0.0
4923,43.0,0,180,12.0,0.0
4924,69.0,144,780,5.0,0.0
4925,74.0,0,780,0.0,0.0
4926,62.0,0,780,7.0,0.0
4927,74.0,0,780,6.0,0.0
4928,54.0,240,240,10.0,0.0
4929,42.0,0,240,12.0,0.0
4930,42.0,0,240,11.0,0.0
4931,40.0,0,240,12.0,0.0
4932,40.0,0,240,11.0,0.0
4933,52.0,48,240,10.0,0.0
4934,38.0,48,180,12.0,0.0
4935,38.0,0,180,11.0,0.0
4936,50.0,480,240,10.0,0.0
4937,67.0,528,1860,7.0,0.0
4938,47.0,0,960,11.0,0.0
4939,79.0,0,1860,0.0,0.0
4940,67.0,0,1860,0.0,0.0
4941,47.0,0,960,12.0,0.0
4942,55.0,0,780,2.0,0.0
4943,59.0,0,960,1.0,0.0
4944,62.0,144,780,2.0,0.0
4945,59.0,480,960,10.0,0.0
4946,67.0,240,240,6.0,0.0
4947,79.0,0,240,5.0,0.0
4948,81.0,0,240,5.0,0.0
4949,69.0,48,240,6.0,0.0
4950,83.0,0,180,5.0,0.0
4951,71.0,48,180,6.0,0.0
4952,57.0,0,900,1.0,0.0
4953,45.0,0,900,11.0,0.0
4954,60.0,0,780,2.0,0.0
4955,45.0,0,900,12.0,0.0
4956,64.0,144,780,2.0,0.0
4957,57.0,0,900,10.0,0.0
4958,72.0,0,240,6.0,0.0
4959,84.0,240,240,5.0,0.0
4960,71.0,48,240,6.0,0.0
4961,83.0,0,240,5.0,0.0
4962,72.0,0,180,6.0,0.0
4963,84.0,0,180,5.0,0.0
4964,62.0,144,780,2.0,0.0
4965,38.0,480,960,12.0,0.0
4966,50.0,0,960,10.0,0.0
4967,66.0,0,960,0.0,0.0
4968,78.0,0,960,0.0,0.0
4969,66.0,0,960,7.0,0.0
4970,50.0,0,960,1.0,0.0
4971,38.0,0,960,11.0,0.0
4972,88.0,0,240,5.0,0.0
4973,76.0,240,240,6.0,0.0
4974,86.0,0,240,5.0,0.0
4975,74.0,48,240,6.0,0.0
4976,72.0,0,180,6.0,0.0
4977,84.0,48,180,5.0,0.0
4978,55.0,0,780,2.0,0.0
4979,55.0,0,780,10.0,0.0
4980,67.0,0,780,7.0,0.0
4981,43.0,0,780,11.0,0.0
4982,62.0,0,780,2.0,0.0
4983,55.0,0,780,1.0,0.0
4984,43.0,144,780,12.0,0.0
4985,67.0,0,780,0.0,0.0
4986,79.0,0,780,0.0,0.0
4987,83.0,0,240,5.0,0.0
4988,71.0,240,240,6.0,0.0
4989,81.0,0,240,5.0,0.0
4990,69.0,48,240,6.0,0.0
4991,79.0,528,180,5.0,0.0
4992,67.0,0,180,6.0,0.0
4993,62.0,0,1860,1.0,0.0
4994,86.0,144,570,5.0,0.0
4995,86.0,0,1860,0.0,0.0
4996,74.0,0,900,0.0,0.0
4997,86.0,0,570,6.0,0.0
4998,55.0,0,240,10.0,0.0
4999,67.0,96,240,7.0,0.0
5000,43.0,0,240,12.0,0.0
5001,43.0,0,240,11.0,0.0
5002,45.0,0,240,12.0,0.0
5003,45.0,0,240,11.0,0.0
5004,57.0,168,240,10.0,0.0
5005,69.0,0,240,7.0,0.0
5006,86.0,0,180,6.0,0.0
5007,86.0,24,180,5.0,0.0
5008,47.0,0,180,12.0,0.0
5009,71.0,0,180,7.0,0.0
5010,59.0,528,180,10.0,0.0
5011,47.0,0,180,11.0,0.0
5012,76.0,0,570,6.0,0.0
5013,76.0,144,570,5.0,0.0
5014,76.0,0,1860,0.0,0.0
5015,64.0,0,1860,1.0,0.0
5016,60.0,0,240,10.0,0.0
5017,72.0,0,240,7.0,0.0
5018,48.0,0,240,12.0,0.0
5019,48.0,96,240,11.0,0.0
5020,47.0,0,240,12.0,0.0
5021,59.0,60,240,10.0,0.0
5022,71.0,0,240,7.0,0.0
5023,47.0,0,240,11.0,0.0
5024,78.0,0,60,6.0,0.0
5025,48.0,0,180,12.0,0.0
5026,72.0,0,180,7.0,0.0
5027,78.0,60,60,5.0,0.0
5028,48.0,0,180,11.0,0.0
5029,60.0,48,180,10.0,0.0
5030,79.0,60,60,6.0,0.0
5031,79.0,0,60,5.0,0.0
5032,81.0,0,60,6.0,0.0
5033,81.0,12,60,5.0,0.0
5034,83.0,312,60,6.0,0.0
5035,83.0,0,60,5.0,0.0
5036,84.0,0,1860,0.0,0.0
5037,84.0,168,300,5.0,0.0
5038,60.0,0,1860,1.0,0.0
5039,84.0,0,300,6.0,0.0
5040,66.0,0,240,7.0,0.0
5041,42.0,0,240,12.0,0.0
5042,42.0,0,240,11.0,0.0
5043,54.0,240,240,10.0,0.0
5044,84.0,120,300,5.0,0.0
5045,43.0,0,240,11.0,0.0
5046,84.0,0,300,6.0,0.0
5047,43.0,0,240,12.0,0.0
5048,67.0,0,240,7.0,0.0
5049,55.0,72,240,10.0,0.0
5050,69.0,0,180,7.0,0.0
5051,45.0,528,180,11.0,0.0
5052,57.0,0,180,10.0,0.0
5053,45.0,0,180,12.0,0.0
5054,75.0,0,900,0.0,0.0
5055,84.0,0,480,5.0,0.0
5056,63.0,0,900,1.0,0.0
5057,84.0,192,480,6.0,0.0
5058,47.0,0,240,11.0,0.0
5059,47.0,0,240,12.0,0.0
5060,71.0,0,240,7.0,0.0
5061,59.0,0,240,10.0,0.0
5062,45.0,0,240,12.0,0.0
5063,45.0,0,240,11.0,0.0
5064,69.0,192,240,7.0,0.0
5065,57.0,0,240,10.0,0.0
5066,74.0,0,180,6.0,0.0
5067,74.0,48,180,5.0,0.0
5068,47.0,0,180,11.0,0.0
5069,71.0,0,180,7.0,0.0
5070,59.0,0,180,10.0,0.0
5071,47.0,528,180,12.0,0.0
5072,59.0,0,1860,1.0,0.0
5073,62.0,0,900,1.0,0.0
5074,74.0,0,900,0.0,0.0
5075,83.0,0,1860,0.0,0.0
5076,83.0,0,570,6.0,0.0
5077,83.0,144,570,5.0,0.0
5078,40.0,0,240,12.0,0.0
5079,52.0,96,240,10.0,0.0
5080,40.0,0,240,11.0,0.0
5081,64.0,0,240,7.0,0.0
5082,42.0,0,240,12.0,0.0
5083,66.0,180,240,7.0,0.0
5084,42.0,0,240,11.0,0.0
5085,54.0,0,240,10.0,0.0
5086,83.0,12,180,6.0,0.0
5087,44.0,528,180,11.0,0.0
5088,68.0,0,180,7.0,0.0
5089,56.0,0,180,10.0,0.0
5090,83.0,0,180,5.0,0.0
5091,44.0,0,180,12.0,0.0
5092,61.0,0,900,1.0,0.0
5093,73.0,0,900,0.0,0.0
5094,73.0,144,570,5.0,0.0
5095,73.0,0,570,6.0,0.0
5096,45.0,0,240,11.0,0.0
5097,57.0,0,240,10.0,0.0
5098,69.0,0,240,7.0,0.0
5099,45.0,96,240,12.0,0.0
5100,44.0,0,240,11.0,0.0
5101,68.0,0,240,7.0,0.0
5102,56.0,0,240,10.0,0.0
5103,44.0,60,240,12.0,0.0
5104,57.0,0,180,10.0,0.0
5105,74.0,0,60,5.0,0.0
5106,74.0,60,60,6.0,0.0
5107,69.0,0,180,7.0,0.0
5108,45.0,48,180,12.0,0.0
5109,45.0,0,180,11.0,0.0
5110,76.0,0,60,5.0,0.0
5111,76.0,60,60,6.0,0.0
5112,78.0,0,60,5.0,0.0
5113,78.0,12,60,6.0,0.0
5114,80.0,312,60,5.0,0.0
5115,80.0,0,60,6.0,0.0
5116,81.0,0,1860,0.0,0.0
5117,72.0,528,900,0.0,0.0
5118,81.0,0,300,5.0,0.0
5119,60.0,0,900,1.0,0.0
5120,57.0,0,1860,1.0,0.0
5121,81.0,168,300,6.0,0.0
5122,50.0,0,240,10.0,0.0
5123,38.0,0,240,12.0,0.0
5124,38.0,0,240,11.0,0.0
5125,62.0,240,240,7.0,0.0
5126,81.0,0,300,6.0,0.0
5127,40.0,0,240,11.0,0.0
5128,40.0,72,240,12.0,0.0
5129,64.0,0,240,7.0,0.0
5130,81.0,120,300,5.0,0.0
5131,52.0,0,240,10.0,0.0
5132,42.0,0,180,11.0,0.0
5133,54.0,0,180,10.0,0.0
5134,66.0,0,180,7.0,0.0
5135,42.0,0,180,12.0,0.0
5136,71.0,0,1860,0.0,0.0
5137,81.0,0,480,5.0,0.0
5138,81.0,0,480,6.0,0.0
5139,59.0,0,1860,1.0,0.0
5140,43.0,0,240,12.0,0.0
5141,67.0,192,240,7.0,0.0
5142,55.0,0,240,10.0,0.0
5143,43.0,0,240,11.0,0.0
5144,42.0,0,240,11.0,0.0
5145,42.0,192,240,12.0,0.0
5146,71.0,48,180,6.0,0.0
5147,54.0,0,240,10.0,0.0
5148,66.0,0,240,7.0,0.0
5149,71.0,0,180,5.0,0.0
5150,55.0,432,180,10.0,0.0
5151,43.0,0,180,11.0,0.0
5152,67.0,0,180,7.0,0.0
5153,43.0,0,180,12.0,0.0
5154,79.0,0,570,5.0,0.0
5155,76.0,0,390,3.0,0.0
5156,67.0,96,390,3.0,0.0
5157,64.0,0,780,2.0,0.0
5158,52.0,120,780,2.0,0.0
5159,79.0,144,570,6.0,0.0
5160,55.0,0,1860,1.0,0.0
5161,79.0,432,1860,0.0,0.0
5162,40.0,0,240,11.0,0.0
5163,52.0,0,240,10.0,0.0
5164,64.0,96,240,7.0,0.0
5165,40.0,0,240,12.0,0.0
5166,51.0,0,240,10.0,0.0
5167,63.0,0,240,7.0,0.0
5168,39.0,48,240,12.0,0.0
5169,39.0,0,240,11.0,0.0
5170,40.0,0,180,11.0,0.0
5171,79.0,0,180,6.0,0.0
5172,64.0,0,180,7.0,0.0
5173,79.0,24,180,5.0,0.0
5174,52.0,0,180,10.0,0.0
5175,40.0,432,180,12.0,0.0
5176,69.0,144,570,6.0,0.0
5177,48.0,0,780,2.0,0.0
5178,76.0,96,390,3.0,0.0
5179,60.0,120,780,2.0,0.0
5180,57.0,0,1860,1.0,0.0
5181,69.0,0,570,5.0,0.0
5182,72.0,0,390,3.0,0.0
5183,69.0,0,900,0.0,0.0
5184,48.0,96,240,10.0,0.0
5185,60.0,0,240,7.0,0.0
5186,36.0,0,240,11.0,0.0
5187,36.0,0,240,12.0,0.0
5188,35.0,0,240,12.0,0.0
5189,35.0,0,240,11.0,0.0
5190,47.0,0,240,10.0,0.0
5191,59.0,48,240,7.0,0.0
5192,48.0,0,180,10.0,0.0
5193,36.0,0,180,12.0,0.0
5194,69.0,24,180,5.0,0.0
5195,60.0,0,180,7.0,0.0
5196,36.0,0,180,11.0,0.0
5197,69.0,0,180,6.0,0.0
5198,78.0,0,570,5.0,0.0
5199,78.0,144,570,6.0,0.0
5200,54.0,0,900,1.0,0.0
5201,78.0,0,900,0.0,0.0
5202,74.0,96,390,3.0,0.0
5203,62.0,120,780,2.0,0.0
5204,72.0,0,900,0.0,0.0
5205,38.0,0,240,12.0,0.0
5206,62.0,96,240,7.0,0.0
5207,50.0,0,240,10.0,0.0
5208,38.0,0,240,11.0,0.0
5209,49.0,48,240,10.0,0.0
5210,61.0,0,240,7.0,0.0
5211,37.0,0,240,11.0,0.0
5212,37.0,0,240,12.0,0.0
5213,38.0,192,180,11.0,0.0
5214,78.0,24,180,5.0,0.0
5215,38.0,0,180,12.0,0.0
5216,78.0,0,180,6.0,0.0
5217,50.0,0,180,10.0,0.0
5218,62.0,0,180,7.0,0.0
5219,31.0,0,4740,11.0,0.0
5220,55.0,0,390,1.0,0.0
5221,31.0,0,4740,12.0,0.0
5222,43.0,0,390,4.0,0.0
5223,79.0,0,390,0.0,0.0
5224,71.0,96,390,0.0,0.0
5225,55.0,0,4740,7.0,0.0
5226,79.0,0,150,6.0,0.0
5227,43.0,96,5190,2.0,0.0
5228,67.0,0,390,3.0,0.0
5229,74.0,0,390,3.0,0.0
5230,43.0,0,4740,10.0,0.0
5231,79.0,240,150,5.0,0.0
5232,55.0,0,5190,2.0,0.0
5233,79.0,240,240,5.0,0.0
5234,67.0,0,240,6.0,0.0
5235,66.0,192,240,6.0,0.0
5236,78.0,0,240,5.0,0.0
5237,67.0,528,180,6.0,0.0
5238,79.0,0,180,5.0,0.0
5239,62.0,528,1860,1.0,0.0
5240,74.0,240,240,6.0,0.0
5241,86.0,0,240,5.0,0.0
5242,85.0,192,240,5.0,0.0
5243,73.0,0,240,6.0,0.0
5244,86.0,0,180,5.0,0.0
5245,74.0,528,180,6.0,0.0
5246,63.0,528,1860,1.0,0.0
5247,75.0,0,240,5.0,0.0
5248,63.0,240,240,6.0,0.0
5249,74.0,0,240,5.0,0.0
5250,62.0,192,240,6.0,0.0
5251,75.0,0,180,5.0,0.0
5252,63.0,0,180,6.0,0.0
5253,60.0,432,1860,1.0,0.0
5254,63.0,0,240,6.0,0.0
5255,75.0,144,240,5.0,0.0
5256,72.0,240,150,6.0,0.0
5257,84.0,0,150,5.0,0.0
5258,84.0,0,150,5.0,0.0
5259,72.0,48,150,6.0,0.0
5260,62.0,0,1860,1.0,0.0
5261,72.0,144,240,6.0,0.0
5262,84.0,0,240,5.0,0.0
5263,74.0,0,150,5.0,0.0
5264,62.0,240,150,6.0,0.0
5265,62.0,0,150,6.0,0.0
5266,74.0,48,150,5.0,0.0
5267,67.0,480,960,7.0,0.0
5268,43.0,0,1920,11.0,0.0
5269,43.0,0,1920,12.0,0.0
5270,74.0,0,900,0.0,0.0
5271,82.0,0,1860,0.0,0.0
5272,55.0,0,1920,10.0,0.0
5273,58.0,0,1860,1.0,0.0
5274,82.0,0,240,5.0,0.0
5275,70.0,240,240,6.0,0.0
5276,69.0,192,240,6.0,0.0
5277,81.0,0,240,5.0,0.0
5278,82.0,48,180,5.0,0.0
5279,70.0,0,180,6.0,0.0
5280,64.0,480,960,7.0,0.0
5281,61.0,48,900,1.0,0.0
5282,73.0,0,900,0.0,0.0
5283,73.0,240,240,5.0,0.0
5284,61.0,0,240,6.0,0.0
5285,71.0,0,240,5.0,0.0
5286,59.0,192,240,6.0,0.0
5287,73.0,0,180,5.0,0.0
5288,61.0,0,180,6.0,0.0
5289,54.0,0,780,10.0,0.0
5290,42.0,0,780,12.0,0.0
5291,42.0,96,780,11.0,0.0
5292,57.0,0,1860,1.0,0.0
5293,60.0,0,900,1.0,0.0
5294,81.0,0,1860,0.0,0.0
5295,72.0,48,900,0.0,0.0
5296,63.0,480,960,7.0,0.0
5297,72.0,0,240,5.0,0.0
5298,60.0,144,240,6.0,0.0
5299,81.0,0,150,5.0,0.0
5300,69.0,144,150,6.0,0.0
5301,81.0,0,150,5.0,0.0
5302,69.0,48,150,6.0,0.0
5303,43.0,0,900,12.0,0.0
5304,55.0,96,780,10.0,0.0
5305,62.0,480,960,7.0,0.0
5306,43.0,0,900,11.0,0.0
5307,59.0,48,900,1.0,0.0
5308,71.0,0,900,0.0,0.0
5309,69.0,0,240,6.0,0.0
5310,81.0,144,240,5.0,0.0
5311,71.0,144,150,5.0,0.0
5312,59.0,0,150,6.0,0.0
5313,59.0,0,150,6.0,0.0
5314,71.0,48,150,5.0,0.0
5315,79.0,0,1860,0.0,0.0
5316,70.0,0,900,0.0,0.0
5317,58.0,0,900,1.0,0.0
5318,55.0,0,1860,1.0,0.0
5319,39.0,0,960,11.0,0.0
5320,51.0,480,960,10.0,0.0
5321,63.0,480,1920,7.0,0.0
5322,39.0,0,960,12.0,0.0
5323,67.0,0,240,6.0,0.0
5324,79.0,240,240,5.0,0.0
5325,66.0,192,240,6.0,0.0
5326,78.0,0,240,5.0,0.0
5327,67.0,0,180,6.0,0.0
5328,79.0,48,180,5.0,0.0
5329,57.0,96,1920,1.0,0.0
5330,69.0,0,1920,0.0,0.0
5331,36.0,0,960,12.0,0.0
5332,36.0,0,960,11.0,0.0
5333,48.0,0,960,10.0,0.0
5334,57.0,240,240,6.0,0.0
5335,69.0,0,240,5.0,0.0
5336,56.0,0,240,6.0,0.0
5337,68.0,192,240,5.0,0.0
5338,69.0,48,180,5.0,0.0
5339,57.0,0,180,6.0,0.0
5340,78.0,0,960,0.0,0.0
5341,54.0,0,960,1.0,0.0
5342,38.0,0,900,12.0,0.0
5343,38.0,0,900,11.0,0.0
5344,50.0,0,900,10.0,0.0
5345,62.0,0,900,7.0,0.0
5346,74.0,240,240,5.0,0.0
5347,62.0,0,240,6.0,0.0
5348,73.0,0,240,5.0,0.0
5349,61.0,192,240,6.0,0.0
5350,74.0,48,180,5.0,0.0
5351,62.0,0,180,6.0,0.0
5352,31.0,0,390,12.0,0.0
5353,43.0,0,390,10.0,0.0
5354,55.0,0,390,6.0,0.0
5355,67.0,0,390,0.0,0.0
5356,79.0,0,390,0.0,0.0
5357,55.0,72,390,1.0,0.0
5358,67.0,120,90,5.0,0.0
5359,59.0,0,390,7.0,0.0
5360,31.0,0,390,11.0,0.0
5361,67.0,120,90,5.0,0.0
5362,62.0,48,90,5.0,0.0
5363,62.0,120,90,5.0,0.0
5364,64.0,120,90,5.0,0.0
5365,64.0,120,90,5.0,0.0
5366,66.0,120,90,5.0,0.0
5367,66.0,120,90,5.0,0.0
5368,67.0,120,90,5.0,0.0
5369,67.0,120,90,5.0,0.0
5370,66.0,120,90,5.0,0.0
5371,66.0,120,90,5.0,0.0
5372,67.0,120,90,5.0,0.0
5373,67.0,120,90,5.0,0.0
5374,68.0,120,90,5.0,0.0
5375,68.0,120,90,5.0,0.0
5376,69.0,120,90,5.0,0.0
5377,69.0,120,90,5.0,0.0
5378,62.0,120,90,5.0,0.0
5379,62.0,120,90,5.0,0.0
5380,66.0,120,90,5.0,0.0
5381,66.0,120,90,5.0,0.0
5382,67.0,120,90,5.0,0.0
5383,67.0,120,90,5.0,0.0
5384,69.0,120,90,5.0,0.0
5385,69.0,120,90,5.0,0.0
5386,68.0,120,90,5.0,0.0
5387,68.0,120,90,5.0,0.0
5388,69.0,120,90,5.0,0.0
5389,69.0,120,90,5.0,0.0
5390,70.0,120,90,5.0,0.0
5391,70.0,120,90,5.0,0.0
5392,71.0,72,390,5.0,0.0
5393,67.0,120,90,6.0,0.0
5394,67.0,120,90,6.0,0.0
5395,62.0,48,90,6.0,0.0
5396,62.0,120,90,6.0,0.0
5397,64.0,120,90,6.0,0.0
5398,71.0,48,300,5.0,0.0
5399,64.0,72,90,6.0,0.0
5400,66.0,120,90,6.0,0.0
5401,71.0,0,90,5.0,0.0
5402,66.0,84,90,6.0,0.0
5403,72.0,36,60,5.0,0.0
5404,67.0,24,90,6.0,0.0
5405,71.0,60,60,5.0,0.0
5406,72.0,36,60,5.0,0.0
5407,67.0,24,90,6.0,0.0
5408,71.0,60,60,5.0,0.0
5409,72.0,36,60,5.0,0.0
5410,66.0,24,90,6.0,0.0
5411,71.0,60,60,5.0,0.0
5412,66.0,24,90,6.0,0.0
5413,72.0,36,60,5.0,0.0
5414,71.0,60,60,5.0,0.0
5415,72.0,36,60,5.0,0.0
5416,67.0,24,90,6.0,0.0
5417,71.0,60,60,5.0,0.0
5418,67.0,24,90,6.0,0.0
5419,72.0,36,60,5.0,0.0
5420,71.0,96,60,5.0,0.0
5421,68.0,24,90,6.0,0.0
5422,69.0,96,120,5.0,0.0
5423,71.0,0,90,5.0,0.0
5424,68.0,120,90,6.0,0.0
5425,72.0,96,720,5.0,0.0
5426,69.0,120,90,6.0,0.0
5427,69.0,120,90,6.0,0.0
5428,62.0,120,90,6.0,0.0
5429,62.0,120,90,6.0,0.0
5430,66.0,120,90,6.0,0.0
5431,66.0,24,90,6.0,0.0
5432,71.0,24,180,5.0,0.0
5433,67.0,96,90,6.0,0.0
5434,67.0,120,90,6.0,0.0
5435,69.0,120,90,6.0,0.0
5436,72.0,96,240,5.0,0.0
5437,69.0,24,90,6.0,0.0
5438,71.0,96,240,5.0,0.0
5439,68.0,120,90,6.0,0.0
5440,68.0,24,90,6.0,0.0
5441,69.0,120,90,6.0,0.0
5442,72.0,96,240,5.0,0.0
5443,69.0,24,90,6.0,0.0
5444,70.0,96,90,6.0,0.0
5445,73.0,24,180,5.0,0.0
5446,70.0,120,90,6.0,0.0
5447,74.0,48,3660,3.0,0.0
5448,55.0,0,240,1.0,0.0
5449,62.0,0,3660,2.0,0.0
5450,71.0,0,390,6.0,0.0
5451,43.0,0,240,11.0,0.0
5452,74.0,0,390,5.0,0.0
5453,55.0,96,240,10.0,0.0
5454,67.0,120,90,7.0,0.0
5455,43.0,0,240,12.0,0.0
5456,43.0,72,390,4.0,0.0
5457,67.0,24,90,7.0,0.0
5458,50.0,0,240,10.0,0.0
5459,38.0,0,240,11.0,0.0
5460,62.0,48,90,7.0,0.0
5461,50.0,96,240,1.0,0.0
5462,38.0,0,240,12.0,0.0
5463,62.0,24,90,7.0,0.0
5464,40.0,0,240,11.0,0.0
5465,52.0,96,240,10.0,0.0
5466,64.0,120,90,7.0,0.0
5467,40.0,0,240,12.0,0.0
5468,52.0,0,240,1.0,0.0
5469,64.0,24,90,7.0,0.0
5470,54.0,0,180,1.0,0.0
5471,66.0,96,90,7.0,0.0
5472,42.0,0,180,12.0,0.0
5473,42.0,0,180,11.0,0.0
5474,54.0,24,180,10.0,0.0
5475,66.0,120,90,7.0,0.0
5476,67.0,0,90,7.0,0.0
5477,74.0,120,90,6.0,0.0
5478,62.0,0,90,6.0,0.0
5479,55.0,96,240,1.0,0.0
5480,55.0,0,240,10.0,0.0
5481,43.0,0,240,12.0,0.0
5482,83.0,24,900,0.0,0.0
5483,83.0,0,90,5.0,0.0
5484,43.0,0,240,11.0,0.0
5485,83.0,0,90,5.0,0.0
5486,62.0,0,90,6.0,0.0
5487,74.0,0,90,6.0,0.0
5488,67.0,24,90,7.0,0.0
5489,83.0,0,90,5.0,0.0
5490,42.0,96,240,12.0,0.0
5491,66.0,0,90,7.0,0.0
5492,54.0,0,240,1.0,0.0
5493,54.0,0,240,10.0,0.0
5494,74.0,120,90,6.0,0.0
5495,62.0,0,90,6.0,0.0
5496,42.0,0,240,11.0,0.0
5497,66.0,24,90,7.0,0.0
5498,62.0,0,90,6.0,0.0
5499,74.0,0,90,6.0,0.0
5500,83.0,0,90,5.0,0.0
5501,55.0,96,240,1.0,0.0
5502,55.0,0,240,10.0,0.0
5503,43.0,0,240,11.0,0.0
5504,62.0,120,90,6.0,0.0
5505,43.0,0,240,12.0,0.0
5506,67.0,0,90,7.0,0.0
5507,74.0,0,90,6.0,0.0
5508,83.0,0,90,5.0,0.0
5509,74.0,0,90,6.0,0.0
5510,62.0,0,90,6.0,0.0
5511,83.0,0,90,5.0,0.0
5512,67.0,24,90,7.0,0.0
5513,44.0,0,180,12.0,0.0
5514,74.0,96,90,6.0,0.0
5515,56.0,0,180,10.0,0.0
5516,83.0,0,90,5.0,0.0
5517,56.0,0,180,1.0,0.0
5518,44.0,0,180,11.0,0.0
5519,68.0,0,90,7.0,0.0
5520,62.0,0,90,6.0,0.0
5521,83.0,0,90,5.0,0.0
5522,62.0,0,90,6.0,0.0
5523,68.0,120,90,7.0,0.0
5524,74.0,0,90,6.0,0.0
5525,45.0,96,240,12.0,0.0
5526,69.0,120,90,7.0,0.0
5527,84.0,0,1200,0.0,0.0
5528,57.0,0,240,10.0,0.0
5529,62.0,0,390,6.0,0.0
5530,57.0,0,240,1.0,0.0
5531,45.0,0,240,11.0,0.0
5532,84.0,0,390,5.0,0.0
5533,74.0,72,390,6.0,0.0
5534,69.0,24,90,7.0,0.0
5535,50.0,96,240,1.0,0.0
5536,38.0,0,240,11.0,0.0
5537,50.0,0,240,10.0,0.0
5538,62.0,48,90,7.0,0.0
5539,38.0,0,240,12.0,0.0
5540,62.0,24,90,7.0,0.0
5541,42.0,0,240,12.0,0.0
5542,66.0,120,90,7.0,0.0
5543,42.0,0,240,11.0,0.0
5544,54.0,0,240,1.0,0.0
5545,54.0,96,240,10.0,0.0
5546,66.0,24,90,7.0,0.0
5547,43.0,0,180,11.0,0.0
5548,67.0,96,90,7.0,0.0
5549,43.0,24,180,12.0,0.0
5550,55.0,0,180,10.0,0.0
5551,55.0,0,180,1.0,0.0
5552,67.0,120,90,7.0,0.0
5553,45.0,0,240,11.0,0.0
5554,69.0,0,90,7.0,0.0
5555,57.0,96,240,1.0,0.0
5556,62.0,0,90,6.0,0.0
5557,84.0,0,90,5.0,0.0
5558,45.0,0,240,12.0,0.0
5559,74.0,120,90,6.0,0.0
5560,57.0,0,240,10.0,0.0
5561,62.0,24,90,6.0,0.0
5562,84.0,0,90,5.0,0.0
5563,74.0,0,90,6.0,0.0
5564,69.0,0,90,7.0,0.0
5565,83.0,0,240,0.0,0.0
5566,44.0,0,240,11.0,0.0
5567,83.0,120,90,5.0,0.0
5568,62.0,0,90,6.0,0.0
5569,56.0,96,240,1.0,0.0
5570,68.0,0,90,7.0,0.0
5571,44.0,0,240,12.0,0.0
5572,56.0,0,240,10.0,0.0
5573,74.0,0,90,6.0,0.0
5574,68.0,24,90,7.0,0.0
5575,62.0,0,90,6.0,0.0
5576,83.0,0,90,5.0,0.0
5577,74.0,0,90,6.0,0.0
5578,84.0,48,240,0.0,0.0
5579,45.0,0,240,12.0,0.0
5580,84.0,0,90,5.0,0.0
5581,57.0,0,240,10.0,0.0
5582,74.0,120,90,6.0,0.0
5583,57.0,0,240,1.0,0.0
5584,62.0,0,90,6.0,0.0
5585,69.0,0,90,7.0,0.0
5586,45.0,0,240,11.0,0.0
5587,69.0,24,90,7.0,0.0
5588,84.0,0,90,5.0,0.0
5589,74.0,0,90,6.0,0.0
5590,62.0,0,90,6.0,0.0
5591,46.0,0,180,12.0,0.0
5592,58.0,0,180,10.0,0.0
5593,85.0,96,90,5.0,0.0
5594,70.0,0,90,7.0,0.0
5595,46.0,0,180,11.0,0.0
5596,58.0,24,180,1.0,0.0
5597,85.0,0,240,0.0,0.0
5598,62.0,0,90,6.0,0.0
5599,74.0,0,90,6.0,0.0
5600,74.0,0,90,6.0,0.0
5601,62.0,0,90,6.0,0.0
5602,85.0,0,90,5.0,0.0
5603,70.0,24,90,7.0,0.0
5604,47.0,0,330,12.0,0.0
5605,59.0,0,330,10.0,0.0
5606,59.0,0,330,1.0,0.0
5607,74.0,336,15,0.0,0.0
5608,74.0,0,330,3.0,0.0
5609,86.0,0,330,0.0,0.0
5610,71.0,0,330,7.0,0.0
5611,67.0,0,330,3.0,0.0
5612,74.0,0,330,6.0,0.0
5613,62.0,204,330,6.0,0.0
5614,55.0,0,330,2.0,0.0
5615,62.0,0,330,2.0,0.0
5616,47.0,0,330,11.0,0.0
5617,86.0,0,330,5.0,0.0
5618,52.0,0,330,11.0,0.0
5619,74.0,0,480,7.0,0.0
5620,76.0,0,330,3.0,0.0
5621,64.0,24,330,3.0,0.0
5622,83.0,0,480,0.0,0.0
5623,80.0,336,480,0.0,0.0
5624,52.0,0,330,12.0,0.0
5625,81.0,60,60,6.0,0.0
5626,84.0,0,60,5.0,0.0
5627,64.0,0,330,1.0,0.0
5628,64.0,0,330,2.0,0.0
5629,64.0,0,330,10.0,0.0
5630,80.0,60,60,6.0,0.0
5631,83.0,0,60,5.0,0.0
5632,81.0,0,60,6.0,0.0
5633,84.0,60,60,5.0,0.0
5634,83.0,60,60,5.0,0.0
5635,80.0,0,60,6.0,0.0
5636,81.0,36,60,6.0,0.0
5637,84.0,0,60,5.0,0.0
5638,80.0,60,60,6.0,0.0
5639,83.0,0,60,5.0,0.0
5640,81.0,0,60,5.0,0.0
5641,78.0,60,60,6.0,0.0
5642,80.0,0,60,6.0,0.0
5643,83.0,0,60,5.0,0.0
5644,81.0,0,330,6.0,0.0
5645,84.0,0,330,5.0,0.0
5646,57.0,0,330,10.0,0.0
5647,72.0,204,330,7.0,0.0
5648,84.0,0,330,0.0,0.0
5649,45.0,0,330,11.0,0.0
5650,81.0,0,330,0.0,0.0
5651,57.0,0,330,1.0,0.0
5652,64.0,0,330,3.0,0.0
5653,76.0,0,330,3.0,0.0
5654,60.0,0,330,2.0,0.0
5655,64.0,0,330,2.0,0.0
5656,45.0,0,330,12.0,0.0
5657,74.0,0,330,3.0,0.0
5658,62.0,0,330,1.0,0.0
5659,78.0,0,480,0.0,0.0
5660,72.0,0,480,7.0,0.0
5661,83.0,60,60,5.0,0.0
5662,81.0,0,480,0.0,0.0
5663,50.0,0,330,12.0,0.0
5664,62.0,0,330,10.0,0.0
5665,79.0,0,60,6.0,0.0
5666,50.0,0,330,11.0,0.0
5667,62.0,24,330,2.0,0.0
5668,78.0,0,60,6.0,0.0
5669,81.0,60,60,5.0,0.0
5670,79.0,60,60,6.0,0.0
5671,83.0,0,60,5.0,0.0
5672,81.0,0,60,5.0,0.0
5673,78.0,60,60,6.0,0.0
5674,79.0,36,60,6.0,0.0
5675,83.0,0,60,5.0,0.0
5676,78.0,0,60,6.0,0.0
5677,81.0,60,60,5.0,0.0
5678,79.0,60,60,5.0,0.0
5679,76.0,0,60,6.0,0.0
5680,78.0,0,60,6.0,0.0
5681,81.0,336,60,5.0,0.0
5682,43.0,0,330,11.0,0.0
5683,55.0,312,330,1.0,0.0
5684,79.0,0,330,0.0,0.0
5685,83.0,0,330,0.0,0.0
5686,71.0,0,330,7.0,0.0
5687,67.0,0,330,3.0,0.0
5688,62.0,0,330,2.0,0.0
5689,55.0,0,330,2.0,0.0
5690,55.0,0,330,10.0,0.0
5691,43.0,0,330,12.0,0.0
5692,79.0,0,330,6.0,0.0
5693,83.0,0,330,5.0,0.0
5694,74.0,0,330,3.0,0.0
5695,79.0,0,180,0.0,0.0
5696,83.0,0,180,0.0,0.0
5697,52.0,0,180,10.0,0.0
5698,64.0,0,180,7.0,0.0
5699,40.0,0,180,12.0,0.0
5700,52.0,0,180,1.0,0.0
5701,71.0,0,180,6.0,0.0
5702,40.0,0,180,11.0,0.0
5703,79.0,0,180,6.0,0.0
5704,71.0,0,180,5.0,0.0
5705,79.0,168,180,5.0,0.0
5706,64.0,0,180,2.0,0.0
5707,76.0,72,330,3.0,0.0
5708,67.0,0,330,3.0,0.0
5709,79.0,0,180,0.0,0.0
5710,83.0,0,180,0.0,0.0
5711,52.0,0,180,10.0,0.0
5712,64.0,0,180,2.0,0.0
5713,64.0,0,180,7.0,0.0
5714,40.0,0,180,12.0,0.0
5715,71.0,0,180,5.0,0.0
5716,79.0,0,180,5.0,0.0
5717,40.0,0,180,11.0,0.0
5718,79.0,0,180,6.0,0.0
5719,71.0,0,180,6.0,0.0
5720,52.0,240,180,1.0,0.0
5721,60.0,0,180,2.0,0.0
5722,72.0,72,330,3.0,0.0
5723,76.0,0,330,3.0,0.0
5724,36.0,0,180,11.0,0.0
5725,48.0,0,180,10.0,0.0
5726,84.0,0,180,0.0,0.0
5727,81.0,0,180,0.0,0.0
5728,64.0,0,180,2.0,0.0
5729,60.0,0,180,7.0,0.0
5730,81.0,0,180,6.0,0.0
5731,72.0,0,180,6.0,0.0
5732,48.0,168,180,1.0,0.0
5733,36.0,0,180,12.0,0.0
5734,72.0,0,180,5.0,0.0
5735,81.0,0,180,5.0,0.0
5736,81.0,0,180,0.0,0.0
5737,60.0,0,180,2.0,0.0
5738,64.0,240,180,2.0,0.0
5739,36.0,0,180,12.0,0.0
5740,84.0,0,180,0.0,0.0
5741,36.0,0,180,11.0,0.0
5742,48.0,0,180,10.0,0.0
5743,72.0,0,180,5.0,0.0
5744,81.0,0,180,5.0,0.0
5745,72.0,0,180,6.0,0.0
5746,81.0,0,180,6.0,0.0
5747,48.0,0,180,1.0,0.0
5748,60.0,0,180,7.0,0.0
5749,74.0,72,330,3.0,0.0
5750,50.0,0,180,10.0,0.0
5751,38.0,0,180,11.0,0.0
5752,62.0,0,180,7.0,0.0
5753,81.0,0,180,0.0,0.0
5754,78.0,0,180,0.0,0.0
5755,62.0,0,180,2.0,0.0
5756,69.0,0,180,6.0,0.0
5757,78.0,0,180,5.0,0.0
5758,38.0,0,180,12.0,0.0
5759,69.0,0,180,5.0,0.0
5760,78.0,168,180,6.0,0.0
5761,50.0,0,180,1.0,0.0
5762,38.0,0,180,11.0,0.0
5763,62.0,0,180,7.0,0.0
5764,78.0,240,180,6.0,0.0
5765,50.0,0,180,1.0,0.0
5766,62.0,0,180,2.0,0.0
5767,69.0,0,180,6.0,0.0
5768,78.0,0,180,0.0,0.0
5769,81.0,0,180,0.0,0.0
5770,69.0,0,180,5.0,0.0
5771,38.0,0,180,12.0,0.0
5772,78.0,0,180,5.0,0.0
5773,50.0,0,180,10.0,0.0
5774,43.0,216,180,10.0,0.0
5775,71.0,0,390,5.0,0.0
5776,31.0,0,390,11.0,0.0
5777,62.0,0,390,2.0,0.0
5778,43.0,0,390,1.0,0.0
5779,79.0,24,390,0.0,0.0
5780,74.0,0,390,3.0,0.0
5781,67.0,0,390,3.0,0.0
5782,31.0,0,390,12.0,0.0
5783,55.0,0,390,2.0,0.0
5784,79.0,0,390,5.0,0.0
5785,79.0,0,390,6.0,0.0
5786,55.0,0,180,7.0,0.0
5787,71.0,0,390,6.0,0.0
5788,55.0,240,180,10.0,0.0
5789,62.0,0,180,7.0,0.0
5790,59.0,0,180,7.0,0.0
5791,59.0,240,180,7.0,0.0
5792,62.0,0,180,7.0,0.0
5793,55.0,0,180,10.0,0.0
5794,62.0,0,180,7.0,0.0
5795,55.0,192,180,10.0,0.0
5796,59.0,0,180,7.0,0.0
5797,60.0,48,120,6.0,0.0
5798,62.0,12,180,7.0,0.0
5799,38.0,24,390,11.0,0.0
5800,57.0,60,180,10.0,0.0
5801,38.0,0,390,12.0,0.0
5802,60.0,0,180,7.0,0.0
5803,72.0,0,120,5.0,0.0
5804,71.0,0,120,5.0,0.0
5805,59.0,120,120,6.0,0.0
5806,62.0,12,180,7.0,0.0
5807,60.0,0,180,7.0,0.0
5808,57.0,60,180,10.0,0.0
5809,69.0,0,120,5.0,0.0
5810,57.0,24,120,6.0,0.0
5811,71.0,120,120,5.0,0.0
5812,59.0,0,120,6.0,0.0
5813,57.0,60,180,10.0,0.0
5814,60.0,48,120,6.0,0.0
5815,72.0,0,120,5.0,0.0
5816,60.0,0,180,7.0,0.0
5817,62.0,12,180,7.0,0.0
5818,74.0,120,120,5.0,0.0
5819,62.0,0,120,6.0,0.0
5820,62.0,12,180,7.0,0.0
5821,60.0,0,180,7.0,0.0
5822,57.0,60,180,10.0,0.0
5823,64.0,48,120,6.0,0.0
5824,76.0,0,120,5.0,0.0
5825,66.0,0,120,6.0,0.0
5826,78.0,120,120,5.0,0.0
5827,43.0,0,390,12.0,0.0
5828,67.0,48,120,6.0,0.0
5829,79.0,0,120,5.0,0.0
5830,62.0,12,180,7.0,0.0
5831,59.0,0,180,7.0,0.0
5832,43.0,24,390,11.0,0.0
5833,55.0,60,180,10.0,0.0
5834,69.0,0,120,6.0,0.0
5835,81.0,120,120,5.0,0.0
5836,55.0,60,180,10.0,0.0
5837,71.0,0,120,6.0,0.0
5838,62.0,12,180,7.0,0.0
5839,59.0,0,180,7.0,0.0
5840,83.0,24,120,5.0,0.0
5841,81.0,0,120,5.0,0.0
5842,69.0,120,120,6.0,0.0
5843,79.0,48,120,5.0,0.0
5844,67.0,0,120,6.0,0.0
5845,59.0,0,180,7.0,0.0
5846,62.0,12,180,7.0,0.0
5847,55.0,60,180,10.0,0.0
5848,66.0,120,120,6.0,0.0
5849,78.0,0,120,5.0,0.0
5850,76.0,48,120,5.0,0.0
5851,62.0,12,180,7.0,0.0
5852,59.0,0,180,7.0,0.0
5853,64.0,0,120,6.0,0.0
5854,55.0,36,180,10.0,0.0
5855,74.0,144,90,5.0,0.0
5856,62.0,0,90,6.0,0.0
5857,57.0,60,180,10.0,0.0
5858,60.0,48,120,6.0,0.0
5859,62.0,12,180,7.0,0.0
5860,60.0,0,180,7.0,0.0
5861,72.0,0,120,5.0,0.0
5862,38.0,24,390,12.0,0.0
5863,38.0,0,390,11.0,0.0
5864,71.0,0,120,5.0,0.0
5865,59.0,120,120,6.0,0.0
5866,69.0,0,120,5.0,0.0
5867,57.0,60,180,10.0,0.0
5868,60.0,12,180,7.0,0.0
5869,62.0,0,180,7.0,0.0
5870,57.0,24,120,6.0,0.0
5871,71.0,120,120,5.0,0.0
5872,59.0,0,120,6.0,0.0
5873,60.0,0,120,6.0,0.0
5874,72.0,48,120,5.0,0.0
5875,57.0,60,180,10.0,0.0
5876,60.0,0,180,7.0,0.0
5877,62.0,12,180,7.0,0.0
5878,74.0,0,120,5.0,0.0
5879,62.0,120,120,6.0,0.0
5880,76.0,48,120,5.0,0.0
5881,64.0,0,120,6.0,0.0
5882,62.0,0,180,7.0,0.0
5883,60.0,12,180,7.0,0.0
5884,57.0,60,180,10.0,0.0
5885,66.0,120,120,6.0,0.0
5886,78.0,0,120,5.0,0.0
5887,74.0,0,5580,0.0,0.0
5888,59.0,12,180,7.0,0.0
5889,81.0,48,120,5.0,0.0
5890,31.0,0,390,12.0,0.0
5891,55.0,60,180,10.0,0.0
5892,62.0,0,180,7.0,0.0
5893,31.0,24,390,11.0,0.0
5894,62.0,72,5580,0.0,0.0
5895,69.0,0,120,6.0,0.0
5896,79.0,120,120,5.0,0.0
5897,67.0,0,120,6.0,0.0
5898,55.0,60,180,10.0,0.0
5899,59.0,12,180,7.0,0.0
5900,62.0,0,180,7.0,0.0
5901,78.0,24,120,5.0,0.0
5902,66.0,0,120,6.0,0.0
5903,79.0,168,120,5.0,0.0
5904,67.0,0,120,6.0,0.0
5905,62.0,0,180,6.0,0.0
5906,62.0,12,180,7.0,0.0
5907,55.0,12,180,10.0,0.0
5908,59.0,0,180,7.0,0.0
5909,74.0,216,180,5.0,0.0
5910,55.0,180,180,10.0,0.0
5911,59.0,12,180,7.0,0.0
5912,62.0,0,180,7.0,0.0
5913,38.0,0,390,12.0,0.0
5914,72.0,48,120,5.0,0.0
5915,60.0,12,180,7.0,0.0
5916,62.0,0,180,7.0,0.0
5917,60.0,0,120,6.0,0.0
5918,38.0,24,390,11.0,0.0
5919,57.0,60,180,10.0,0.0
5920,59.0,120,120,6.0,0.0
5921,71.0,0,120,5.0,0.0
5922,69.0,0,120,5.0,0.0
5923,57.0,24,120,6.0,0.0
5924,62.0,12,180,7.0,0.0
5925,60.0,0,180,7.0,0.0
5926,57.0,60,180,10.0,0.0
5927,71.0,0,120,5.0,0.0
5928,59.0,120,120,6.0,0.0
5929,60.0,0,180,7.0,0.0
5930,60.0,0,120,6.0,0.0
5931,72.0,48,120,5.0,0.0
5932,57.0,60,180,10.0,0.0
5933,62.0,12,180,7.0,0.0
5934,62.0,0,120,6.0,0.0
5935,74.0,120,120,5.0,0.0
5936,62.0,0,180,7.0,0.0
5937,60.0,12,180,7.0,0.0
5938,57.0,60,180,10.0,0.0
5939,76.0,0,120,5.0,0.0
5940,64.0,48,120,6.0,0.0
5941,78.0,120,120,5.0,0.0
5942,66.0,0,120,6.0,0.0
5943,59.0,0,180,7.0,0.0
5944,62.0,12,180,7.0,0.0
5945,67.0,48,120,6.0,0.0
5946,43.0,0,390,11.0,0.0
5947,43.0,24,390,12.0,0.0
5948,55.0,60,180,10.0,0.0
5949,79.0,0,120,5.0,0.0
5950,69.0,120,120,6.0,0.0
5951,81.0,0,120,5.0,0.0
5952,83.0,0,120,5.0,0.0
5953,55.0,60,180,10.0,0.0
5954,59.0,0,180,7.0,0.0
5955,62.0,12,180,7.0,0.0
5956,71.0,24,120,6.0,0.0
5957,81.0,120,120,5.0,0.0
5958,69.0,0,120,6.0,0.0
5959,67.0,0,120,6.0,0.0
5960,55.0,60,180,10.0,0.0
5961,79.0,48,120,5.0,0.0
5962,59.0,12,180,7.0,0.0
5963,62.0,0,180,7.0,0.0
5964,66.0,0,120,6.0,0.0
5965,78.0,120,120,5.0,0.0
5966,59.0,0,180,7.0,0.0
5967,62.0,12,180,7.0,0.0
5968,64.0,0,120,6.0,0.0
5969,55.0,36,180,10.0,0.0
5970,76.0,48,120,5.0,0.0
5971,62.0,0,90,6.0,0.0
5972,74.0,144,90,5.0,0.0
5973,38.0,0,390,12.0,0.0
5974,38.0,24,390,11.0,0.0
5975,60.0,12,180,7.0,0.0
5976,72.0,48,120,5.0,0.0
5977,60.0,0,120,6.0,0.0
5978,62.0,0,180,7.0,0.0
5979,57.0,60,180,10.0,0.0
5980,71.0,120,120,5.0,0.0
5981,59.0,0,120,6.0,0.0
5982,62.0,0,180,7.0,0.0
5983,57.0,24,120,6.0,0.0
5984,69.0,0,120,5.0,0.0
5985,57.0,60,180,10.0,0.0
5986,60.0,12,180,7.0,0.0
5987,59.0,120,120,6.0,0.0
5988,71.0,0,120,5.0,0.0
5989,60.0,0,180,7.0,0.0
5990,62.0,12,180,7.0,0.0
5991,57.0,60,180,10.0,0.0
5992,60.0,48,120,6.0,0.0
5993,72.0,0,120,5.0,0.0
5994,62.0,120,120,6.0,0.0
5995,74.0,0,120,5.0,0.0
5996,64.0,48,120,6.0,0.0
5997,62.0,12,180,7.0,0.0
5998,76.0,0,120,5.0,0.0
5999,57.0,60,180,10.0,0.0
6000,60.0,0,180,7.0,0.0
6001,66.0,0,120,6.0,0.0
6002,78.0,120,120,5.0,0.0
6003,31.0,0,390,12.0,0.0
6004,31.0,24,390,11.0,0.0
6005,81.0,48,120,5.0,0.0
6006,59.0,12,180,7.0,0.0
6007,62.0,0,180,7.0,0.0
6008,55.0,60,180,10.0,0.0
6009,69.0,0,120,6.0,0.0
6010,79.0,120,120,5.0,0.0
6011,67.0,0,120,6.0,0.0
6012,66.0,0,120,6.0,0.0
6013,78.0,24,120,5.0,0.0
6014,55.0,60,180,10.0,0.0
6015,59.0,12,180,7.0,0.0
6016,62.0,0,180,7.0,0.0
6017,79.0,0,120,5.0,0.0
6018,67.0,168,120,6.0,0.0
6019,55.0,12,180,10.0,0.0
6020,62.0,12,180,7.0,0.0
6021,59.0,0,180,7.0,0.0
6022,62.0,0,180,6.0,0.0
6023,74.0,216,180,5.0,0.0
6024,55.0,180,180,10.0,0.0
6025,59.0,12,180,7.0,0.0
6026,62.0,0,180,7.0,0.0
6027,72.0,48,120,5.0,0.0
6028,62.0,0,180,7.0,0.0
6029,60.0,12,180,7.0,0.0
6030,38.0,0,390,11.0,0.0
6031,60.0,0,120,6.0,0.0
6032,38.0,24,390,12.0,0.0
6033,57.0,60,180,10.0,0.0
6034,59.0,120,120,6.0,0.0
6035,71.0,0,120,5.0,0.0
6036,60.0,0,180,7.0,0.0
6037,69.0,24,120,5.0,0.0
6038,62.0,12,180,7.0,0.0
6039,57.0,0,120,6.0,0.0
6040,57.0,60,180,10.0,0.0
6041,71.0,120,120,5.0,0.0
6042,59.0,0,120,6.0,0.0
6043,57.0,60,180,10.0,0.0
6044,60.0,0,180,7.0,0.0
6045,62.0,12,180,7.0,0.0
6046,60.0,0,120,6.0,0.0
6047,72.0,48,120,5.0,0.0
6048,62.0,48,120,6.0,0.0
6049,74.0,0,120,5.0,0.0
6050,76.0,0,120,5.0,0.0
6051,60.0,0,180,7.0,0.0
6052,62.0,12,180,7.0,0.0
6053,57.0,48,180,10.0,0.0
6054,64.0,48,120,6.0,0.0
6055,78.0,132,120,5.0,0.0
6056,66.0,0,120,6.0,0.0
6057,62.0,0,360,7.0,0.0
6058,67.0,0,780,2.0,0.0
6059,55.0,72,780,2.0,0.0
6060,43.0,0,390,4.0,0.0
6061,55.0,0,600,10.0,0.0
6062,79.0,0,600,0.0,0.0
6063,79.0,0,390,3.0,0.0
6064,79.0,120,120,5.0,0.0
6065,55.0,0,600,1.0,0.0
6066,59.0,0,360,7.0,0.0
6067,67.0,72,390,3.0,0.0
6068,43.0,0,600,12.0,0.0
6069,67.0,24,360,6.0,0.0
6070,43.0,120,600,11.0,0.0
6071,81.0,120,120,5.0,0.0
6072,83.0,0,120,5.0,0.0
6073,81.0,144,90,5.0,0.0
6074,79.0,0,120,5.0,0.0
6075,67.0,0,120,7.0,0.0
6076,79.0,0,120,6.0,0.0
6077,78.0,0,120,0.0,0.0
6078,78.0,0,120,6.0,0.0
6079,54.0,0,120,1.0,0.0
6080,54.0,0,120,10.0,0.0
6081,66.0,0,120,7.0,0.0
6082,42.0,0,120,11.0,0.0
6083,42.0,0,120,12.0,0.0
6084,78.0,48,120,5.0,0.0
6085,64.0,0,120,7.0,0.0
6086,52.0,0,120,1.0,0.0
6087,40.0,0,120,11.0,0.0
6088,52.0,0,120,10.0,0.0
6089,76.0,0,120,6.0,0.0
6090,40.0,96,120,12.0,0.0
6091,76.0,0,120,5.0,0.0
6092,76.0,0,120,0.0,0.0
6093,39.0,144,90,11.0,0.0
6094,75.0,0,90,0.0,0.0
6095,75.0,0,90,5.0,0.0
6096,63.0,0,90,7.0,0.0
6097,75.0,0,90,6.0,0.0
6098,51.0,0,90,10.0,0.0
6099,39.0,0,90,12.0,0.0
6100,51.0,0,90,1.0,0.0
6101,52.0,0,600,1.0,0.0
6102,40.0,0,600,12.0,0.0
6103,76.0,0,390,3.0,0.0
6104,76.0,120,120,5.0,0.0
6105,40.0,120,600,11.0,0.0
6106,43.0,0,390,4.0,0.0
6107,64.0,0,600,7.0,0.0
6108,52.0,0,780,2.0,0.0
6109,52.0,0,600,10.0,0.0
6110,76.0,0,120,6.0,0.0
6111,76.0,0,600,0.0,0.0
6112,64.0,72,780,2.0,0.0
6113,64.0,72,390,3.0,0.0
6114,78.0,0,120,6.0,0.0
6115,78.0,120,120,5.0,0.0
6116,79.0,0,120,5.0,0.0
6117,79.0,24,120,6.0,0.0
6118,78.0,0,90,5.0,0.0
6119,78.0,144,90,6.0,0.0
6120,76.0,0,120,5.0,0.0
6121,76.0,0,120,6.0,0.0
6122,74.0,0,120,0.0,0.0
6123,50.0,0,120,10.0,0.0
6124,62.0,0,120,7.0,0.0
6125,38.0,0,120,11.0,0.0
6126,50.0,48,120,1.0,0.0
6127,74.0,0,120,5.0,0.0
6128,74.0,0,120,6.0,0.0
6129,38.0,0,120,12.0,0.0
6130,72.0,0,120,5.0,0.0
6131,36.0,0,120,11.0,0.0
6132,72.0,0,120,0.0,0.0
6133,48.0,0,120,10.0,0.0
6134,60.0,0,120,7.0,0.0
6135,36.0,0,120,12.0,0.0
6136,72.0,96,120,6.0,0.0
6137,48.0,0,120,1.0,0.0
6138,71.0,0,90,0.0,0.0
6139,47.0,0,90,1.0,0.0
6140,35.0,0,90,12.0,0.0
6141,71.0,144,90,5.0,0.0
6142,47.0,0,90,10.0,0.0
6143,59.0,0,90,7.0,0.0
6144,35.0,0,90,11.0,0.0
6145,71.0,0,90,6.0,0.0
6146,36.0,0,480,11.0,0.0
6147,48.0,0,480,1.0,0.0
6148,72.0,0,120,5.0,0.0
6149,60.0,0,600,7.0,0.0
6150,72.0,0,390,3.0,0.0
6151,60.0,72,390,3.0,0.0
6152,48.0,0,780,2.0,0.0
6153,60.0,72,780,2.0,0.0
6154,84.0,0,600,0.0,0.0
6155,48.0,0,600,10.0,0.0
6156,72.0,120,120,6.0,0.0
6157,48.0,0,390,4.0,0.0
6158,36.0,120,480,12.0,0.0
6159,74.0,0,120,6.0,0.0
6160,74.0,120,120,5.0,0.0
6161,76.0,24,120,5.0,0.0
6162,76.0,0,120,6.0,0.0
6163,74.0,0,90,6.0,0.0
6164,74.0,24,90,5.0,0.0
6165,60.0,0,120,1.0,0.0
6166,72.0,0,120,6.0,0.0
6167,72.0,0,120,5.0,0.0
6168,48.0,120,120,11.0,0.0
6169,48.0,0,120,12.0,0.0
6170,59.0,0,120,7.0,0.0
6171,47.0,0,120,12.0,0.0
6172,71.0,0,120,6.0,0.0
6173,71.0,0,120,5.0,0.0
6174,47.0,0,120,10.0,0.0
6175,59.0,0,120,1.0,0.0
6176,47.0,48,120,11.0,0.0
6177,83.0,0,120,0.0,0.0
6178,57.0,96,120,1.0,0.0
6179,45.0,0,120,12.0,0.0
6180,57.0,0,120,7.0,0.0
6181,81.0,0,120,0.0,0.0
6182,69.0,0,120,6.0,0.0
6183,69.0,0,120,5.0,0.0
6184,45.0,0,120,11.0,0.0
6185,45.0,0,120,10.0,0.0
6186,44.0,0,90,11.0,0.0
6187,68.0,0,90,6.0,0.0
6188,80.0,0,90,0.0,0.0
6189,44.0,0,90,10.0,0.0
6190,44.0,0,90,12.0,0.0
6191,56.0,0,90,1.0,0.0
6192,68.0,144,90,5.0,0.0
6193,56.0,0,90,7.0,0.0
6194,45.0,0,600,10.0,0.0
6195,45.0,0,600,11.0,0.0
6196,69.0,0,120,6.0,0.0
6197,57.0,0,600,7.0,0.0
6198,57.0,120,600,1.0,0.0
6199,69.0,120,120,5.0,0.0
6200,45.0,0,600,12.0,0.0
6201,81.0,0,600,0.0,0.0
6202,71.0,120,120,5.0,0.0
6203,71.0,0,120,6.0,0.0
6204,72.0,96,120,6.0,0.0
6205,72.0,0,120,5.0,0.0
6206,71.0,0,90,5.0,0.0
6207,71.0,144,90,6.0,0.0
6208,69.0,0,120,6.0,0.0
6209,69.0,0,120,5.0,0.0
6210,43.0,120,120,11.0,0.0
6211,55.0,0,120,7.0,0.0
6212,79.0,0,120,0.0,0.0
6213,43.0,0,120,10.0,0.0
6214,67.0,0,120,5.0,0.0
6215,43.0,0,120,12.0,0.0
6216,67.0,0,120,6.0,0.0
6217,55.0,0,120,1.0,0.0
6218,42.0,0,120,10.0,0.0
6219,66.0,0,120,6.0,0.0
6220,54.0,0,120,1.0,0.0
6221,54.0,0,120,7.0,0.0
6222,42.0,0,120,12.0,0.0
6223,66.0,96,120,5.0,0.0
6224,78.0,0,120,0.0,0.0
6225,42.0,0,120,11.0,0.0
6226,52.0,0,90,7.0,0.0
6227,40.0,0,90,11.0,0.0
6228,40.0,0,90,10.0,0.0
6229,52.0,0,90,1.0,0.0
6230,40.0,0,90,12.0,0.0
6231,64.0,0,90,5.0,0.0
6232,64.0,192,90,6.0,0.0
6233,76.0,0,90,0.0,0.0
6234,74.0,0,330,0.0,0.0
6235,38.0,0,330,12.0,0.0
6236,62.0,0,180,5.0,0.0
6237,50.0,0,330,10.0,0.0
6238,38.0,0,330,11.0,0.0
6239,50.0,72,330,1.0,0.0
6240,62.0,156,180,6.0,0.0
6241,50.0,12,180,7.0,0.0
6242,78.0,0,240,6.0,0.0
6243,78.0,168,240,5.0,0.0
6244,62.0,72,180,7.0,0.0
6245,76.0,0,330,3.0,0.0
6246,79.0,0,330,0.0,0.0
6247,79.0,0,180,6.0,0.0
6248,40.0,0,330,12.0,0.0
6249,52.0,0,330,1.0,0.0
6250,67.0,0,330,3.0,0.0
6251,52.0,0,330,10.0,0.0
6252,71.0,72,330,0.0,0.0
6253,40.0,0,330,11.0,0.0
6254,55.0,0,330,2.0,0.0
6255,64.0,0,330,2.0,0.0
6256,64.0,12,180,7.0,0.0
6257,79.0,156,180,5.0,0.0
6258,64.0,12,180,7.0,0.0
6259,64.0,0,180,5.0,0.0
6260,64.0,228,180,6.0,0.0
6261,81.0,0,330,0.0,0.0
6262,36.0,0,330,12.0,0.0
6263,60.0,156,180,5.0,0.0
6264,60.0,0,330,2.0,0.0
6265,72.0,0,330,3.0,0.0
6266,76.0,0,330,3.0,0.0
6267,48.0,0,330,10.0,0.0
6268,60.0,0,180,6.0,0.0
6269,72.0,0,330,0.0,0.0
6270,64.0,0,330,2.0,0.0
6271,48.0,72,330,1.0,0.0
6272,60.0,12,180,7.0,0.0
6273,36.0,0,330,11.0,0.0
6274,81.0,228,180,5.0,0.0
6275,60.0,12,180,7.0,0.0
6276,81.0,0,180,6.0,0.0
6277,50.0,0,330,1.0,0.0
6278,38.0,0,330,12.0,0.0
6279,62.0,12,180,7.0,0.0
6280,62.0,0,330,2.0,0.0
6281,38.0,0,330,11.0,0.0
6282,62.0,0,180,5.0,0.0
6283,74.0,0,330,3.0,0.0
6284,69.0,72,330,0.0,0.0
6285,78.0,0,330,0.0,0.0
6286,50.0,0,330,10.0,0.0
6287,62.0,156,180,6.0,0.0
6288,62.0,12,180,7.0,0.0
6289,78.0,252,180,6.0,0.0
6290,78.0,0,180,5.0,0.0
6291,43.0,0,180,11.0,0.0
6292,43.0,0,180,2.0,0.0
6293,55.0,0,180,2.0,0.0
6294,67.0,0,780,0.0,0.0
6295,79.0,144,780,0.0,0.0
6296,67.0,0,2310,3.0,0.0
6297,43.0,0,180,12.0,0.0
6298,79.0,0,780,5.0,0.0
6299,43.0,48,390,4.0,0.0
6300,79.0,192,180,6.0,0.0
6301,55.0,0,180,10.0,0.0
6302,55.0,0,180,7.0,0.0
6303,55.0,0,180,1.0,0.0
6304,43.0,0,180,2.0,0.0
6305,43.0,0,180,12.0,0.0
6306,55.0,0,180,1.0,0.0
6307,55.0,0,180,10.0,0.0
6308,43.0,0,180,11.0,0.0
6309,55.0,192,180,2.0,0.0
6310,55.0,0,180,7.0,0.0
6311,79.0,48,390,6.0,0.0
6312,43.0,96,180,11.0,0.0
6313,55.0,0,180,1.0,0.0
6314,55.0,0,180,2.0,0.0
6315,43.0,0,180,12.0,0.0
6316,55.0,0,180,10.0,0.0
6317,55.0,0,180,7.0,0.0
6318,43.0,0,180,2.0,0.0
6319,55.0,0,180,2.0,0.0
6320,55.0,0,180,10.0,0.0
6321,55.0,0,180,7.0,0.0
6322,55.0,0,180,1.0,0.0
6323,43.0,0,180,12.0,0.0
6324,43.0,0,180,11.0,0.0
6325,43.0,240,180,2.0,0.0
6326,79.0,0,420,6.0,0.0
6327,43.0,0,180,2.0,0.0
6328,72.0,192,720,0.0,0.0
6329,55.0,0,180,2.0,0.0
6330,43.0,48,390,4.0,0.0
6331,64.0,0,180,10.0,0.0
6332,52.0,0,180,12.0,0.0
6333,64.0,0,180,1.0,0.0
6334,64.0,192,180,7.0,0.0
6335,84.0,0,720,5.0,0.0
6336,52.0,0,180,11.0,0.0
6337,52.0,0,180,12.0,0.0
6338,79.0,48,390,6.0,0.0
6339,52.0,192,180,11.0,0.0
6340,64.0,0,180,10.0,0.0
6341,55.0,0,180,2.0,0.0
6342,64.0,0,180,1.0,0.0
6343,43.0,0,180,2.0,0.0
6344,64.0,0,180,7.0,0.0
6345,43.0,0,180,2.0,0.0
6346,52.0,0,180,12.0,0.0
6347,64.0,0,180,7.0,0.0
6348,64.0,0,180,1.0,0.0
6349,52.0,48,180,11.0,0.0
6350,64.0,0,180,10.0,0.0
6351,55.0,0,180,2.0,0.0
6352,55.0,0,180,2.0,0.0
6353,43.0,0,180,2.0,0.0
6354,50.0,0,180,12.0,0.0
6355,79.0,48,420,6.0,0.0
6356,71.0,0,180,0.0,0.0
6357,83.0,0,180,5.0,0.0
6358,50.0,0,180,11.0,0.0
6359,62.0,108,180,7.0,0.0
6360,62.0,0,180,1.0,0.0
6361,62.0,0,180,10.0,0.0
6362,83.0,132,60,5.0,0.0
6363,71.0,0,60,0.0,0.0
6364,48.0,0,180,12.0,0.0
6365,60.0,0,180,10.0,0.0
6366,60.0,0,180,7.0,0.0
6367,48.0,0,180,11.0,0.0
6368,43.0,48,390,4.0,0.0
6369,60.0,0,180,1.0,0.0
6370,43.0,0,180,2.0,0.0
6371,55.0,0,180,2.0,0.0
6372,81.0,0,180,5.0,0.0
6373,69.0,144,180,0.0,0.0
6374,80.0,0,180,5.0,0.0
6375,55.0,0,180,2.0,0.0
6376,47.0,0,180,12.0,0.0
6377,59.0,108,180,10.0,0.0
6378,59.0,0,180,1.0,0.0
6379,47.0,0,180,11.0,0.0
6380,68.0,0,180,0.0,0.0
6381,59.0,0,180,7.0,0.0
6382,79.0,48,390,6.0,0.0
6383,43.0,0,180,2.0,0.0
6384,60.0,48,180,10.0,0.0
6385,43.0,48,390,4.0,0.0
6386,60.0,0,180,7.0,0.0
6387,48.0,0,180,11.0,0.0
6388,71.0,84,60,0.0,0.0
6389,48.0,0,180,12.0,0.0
6390,55.0,0,180,2.0,0.0
6391,43.0,0,180,2.0,0.0
6392,60.0,0,180,1.0,0.0
6393,67.0,0,390,3.0,0.0
6394,83.0,0,60,5.0,0.0
6395,69.0,144,180,0.0,0.0
6396,81.0,0,180,5.0,0.0
6397,59.0,0,180,7.0,0.0
6398,59.0,0,180,10.0,0.0
6399,80.0,240,180,5.0,0.0
6400,47.0,0,180,11.0,0.0
6401,68.0,0,180,0.0,0.0
6402,59.0,0,180,1.0,0.0
6403,79.0,0,420,6.0,0.0
6404,43.0,0,180,2.0,0.0
6405,55.0,0,180,2.0,0.0
6406,47.0,0,180,12.0,0.0
6407,60.0,0,180,10.0,0.0
6408,48.0,0,180,11.0,0.0
6409,60.0,0,180,7.0,0.0
6410,48.0,192,180,12.0,0.0
6411,67.0,0,390,3.0,0.0
6412,81.0,192,720,5.0,0.0
6413,60.0,0,180,1.0,0.0
6414,43.0,48,390,4.0,0.0
6415,55.0,0,180,2.0,0.0
6416,69.0,0,720,0.0,0.0
6417,43.0,0,180,2.0,0.0
6418,60.0,0,180,10.0,0.0
6419,79.0,48,390,6.0,0.0
6420,55.0,0,180,2.0,0.0
6421,43.0,0,180,2.0,0.0
6422,48.0,0,180,11.0,0.0
6423,60.0,192,180,7.0,0.0
6424,48.0,0,180,12.0,0.0
6425,60.0,0,180,1.0,0.0
6426,60.0,0,180,10.0,0.0
6427,60.0,0,180,1.0,0.0
6428,60.0,0,180,7.0,0.0
6429,48.0,0,180,11.0,0.0
6430,43.0,0,180,2.0,0.0
6431,48.0,0,180,12.0,0.0
6432,55.0,48,180,2.0,0.0
6433,50.0,0,180,12.0,0.0
6434,79.0,0,420,6.0,0.0
6435,43.0,108,180,2.0,0.0
6436,55.0,0,180,2.0,0.0
6437,62.0,0,180,1.0,0.0
6438,71.0,0,180,0.0,0.0
6439,62.0,0,180,10.0,0.0
6440,62.0,0,180,7.0,0.0
6441,50.0,0,180,11.0,0.0
6442,83.0,0,180,5.0,0.0
6443,64.0,0,180,10.0,0.0
6444,52.0,0,180,11.0,0.0
6445,64.0,0,180,1.0,0.0
6446,67.0,0,390,3.0,0.0
6447,64.0,48,180,7.0,0.0
6448,43.0,48,390,4.0,0.0
6449,52.0,0,180,12.0,0.0
6450,74.0,0,60,0.0,0.0
6451,86.0,132,60,5.0,0.0
6452,55.0,0,180,2.0,0.0
6453,43.0,0,180,2.0,0.0
6454,84.0,0,180,5.0,0.0
6455,72.0,144,180,0.0,0.0
6456,51.0,0,180,11.0,0.0
6457,63.0,0,180,1.0,0.0
6458,55.0,0,180,2.0,0.0
6459,83.0,108,180,5.0,0.0
6460,43.0,0,180,2.0,0.0
6461,71.0,0,180,0.0,0.0
6462,63.0,0,180,7.0,0.0
6463,51.0,0,180,12.0,0.0
6464,63.0,0,180,10.0,0.0
6465,79.0,48,390,6.0,0.0
6466,86.0,0,60,5.0,0.0
6467,52.0,0,180,12.0,0.0
6468,43.0,0,180,2.0,0.0
6469,55.0,48,180,2.0,0.0
6470,64.0,0,180,10.0,0.0
6471,67.0,48,390,3.0,0.0
6472,43.0,0,390,4.0,0.0
6473,74.0,84,60,0.0,0.0
6474,64.0,0,180,1.0,0.0
6475,52.0,0,180,11.0,0.0
6476,64.0,0,180,7.0,0.0
6477,72.0,144,180,0.0,0.0
6478,84.0,0,180,5.0,0.0
6479,63.0,0,180,1.0,0.0
6480,63.0,0,180,10.0,0.0
6481,83.0,0,180,5.0,0.0
6482,51.0,0,180,11.0,0.0
6483,63.0,0,180,7.0,0.0
6484,79.0,0,420,6.0,0.0
6485,51.0,0,180,12.0,0.0
6486,55.0,0,180,2.0,0.0
6487,43.0,240,180,2.0,0.0
6488,71.0,0,180,0.0,0.0
6489,64.0,0,180,10.0,0.0
6490,64.0,0,180,1.0,0.0
6491,64.0,192,180,7.0,0.0
6492,67.0,48,390,3.0,0.0
6493,84.0,192,720,5.0,0.0
6494,52.0,0,180,12.0,0.0
6495,72.0,0,720,0.0,0.0
6496,52.0,0,180,11.0,0.0
6497,55.0,0,180,2.0,0.0
6498,43.0,0,390,4.0,0.0
6499,43.0,0,180,2.0,0.0
6500,52.0,0,180,12.0,0.0
6501,43.0,0,180,2.0,0.0
6502,52.0,0,180,11.0,0.0
6503,79.0,48,390,6.0,0.0
6504,55.0,0,180,2.0,0.0
6505,64.0,0,180,7.0,0.0
6506,64.0,0,180,1.0,0.0
6507,64.0,192,180,10.0,0.0
6508,52.0,48,180,12.0,0.0
6509,55.0,0,180,2.0,0.0
6510,43.0,0,180,2.0,0.0
6511,64.0,0,180,10.0,0.0
6512,52.0,0,180,11.0,0.0
6513,64.0,0,180,7.0,0.0
6514,64.0,0,180,1.0,0.0
6515,64.0,0,180,10.0,0.0
6516,52.0,108,180,12.0,0.0
6517,73.0,0,180,0.0,0.0
6518,64.0,0,180,7.0,0.0
6519,64.0,0,180,1.0,0.0
6520,55.0,0,180,2.0,0.0
6521,85.0,0,180,5.0,0.0
6522,79.0,0,420,6.0,0.0
6523,52.0,0,180,11.0,0.0
6524,43.0,0,180,2.0,0.0
6525,43.0,0,390,4.0,0.0
6526,59.0,0,180,7.0,0.0
6527,43.0,0,180,2.0,0.0
6528,59.0,0,180,1.0,0.0
6529,47.0,0,180,12.0,0.0
6530,88.0,0,60,5.0,0.0
6531,47.0,0,180,11.0,0.0
6532,67.0,48,390,3.0,0.0
6533,76.0,132,60,0.0,0.0
6534,59.0,48,180,10.0,0.0
6535,55.0,0,180,2.0,0.0
6536,86.0,0,180,5.0,0.0
6537,74.0,144,180,0.0,0.0
6538,46.0,108,180,12.0,0.0
6539,58.0,0,180,1.0,0.0
6540,46.0,0,180,11.0,0.0
6541,85.0,0,180,5.0,0.0
6542,43.0,0,180,2.0,0.0
6543,58.0,0,180,7.0,0.0
6544,55.0,0,180,2.0,0.0
6545,79.0,48,390,6.0,0.0
6546,73.0,0,180,0.0,0.0
6547,58.0,0,180,10.0,0.0
6548,88.0,0,60,5.0,0.0
6549,59.0,48,180,7.0,0.0
6550,43.0,0,390,4.0,0.0
6551,67.0,48,390,3.0,0.0
6552,55.0,0,180,2.0,0.0
6553,59.0,0,180,10.0,0.0
6554,43.0,0,180,2.0,0.0
6555,47.0,0,180,11.0,0.0
6556,59.0,0,180,1.0,0.0
6557,47.0,0,180,12.0,0.0
6558,76.0,84,60,0.0,0.0
6559,74.0,144,180,0.0,0.0
6560,86.0,0,180,5.0,0.0
6561,43.0,0,180,2.0,0.0
6562,58.0,0,180,10.0,0.0
6563,46.0,0,180,11.0,0.0
6564,85.0,240,180,5.0,0.0
6565,55.0,0,180,2.0,0.0
6566,58.0,0,180,7.0,0.0
6567,73.0,0,180,0.0,0.0
6568,79.0,0,420,6.0,0.0
6569,46.0,0,180,12.0,0.0
6570,58.0,0,180,1.0,0.0
6571,67.0,0,390,3.0,0.0
6572,47.0,0,180,12.0,0.0
6573,43.0,48,390,4.0,0.0
6574,59.0,0,180,7.0,0.0
6575,74.0,72,840,0.0,0.0
6576,59.0,0,180,1.0,0.0
6577,43.0,24,360,2.0,0.0
6578,86.0,120,720,5.0,0.0
6579,59.0,168,180,10.0,0.0
6580,55.0,0,360,2.0,0.0
6581,47.0,0,180,11.0,0.0
6582,47.0,0,180,12.0,0.0
6583,79.0,48,390,6.0,0.0
6584,59.0,0,180,1.0,0.0
6585,59.0,0,180,7.0,0.0
6586,59.0,0,180,10.0,0.0
6587,47.0,192,180,11.0,0.0
6588,59.0,0,180,7.0,0.0
6589,47.0,0,180,12.0,0.0
6590,79.0,0,360,0.0,0.0
6591,47.0,0,180,11.0,0.0
6592,55.0,0,360,2.0,0.0
6593,59.0,48,180,1.0,0.0
6594,59.0,0,180,10.0,0.0
6595,62.0,0,360,2.0,0.0
6596,79.0,24,180,6.0,0.0
6597,59.0,0,180,10.0,0.0
6598,47.0,0,180,12.0,0.0
6599,62.0,0,180,7.0,0.0
6600,47.0,0,180,11.0,0.0
6601,84.0,0,120,5.0,0.0
6602,59.0,0,180,1.0,0.0
6603,83.0,216,90,5.0,0.0
6604,48.0,240,180,11.0,0.0
6605,60.0,0,180,1.0,0.0
6606,81.0,0,780,0.0,0.0
6607,81.0,48,720,6.0,0.0
6608,76.0,0,780,3.0,0.0
6609,72.0,0,780,3.0,0.0
6610,81.0,0,720,5.0,0.0
6611,48.0,0,180,12.0,0.0
6612,76.0,0,780,0.0,0.0
6613,64.0,0,780,2.0,0.0
6614,60.0,0,180,10.0,0.0
6615,60.0,72,780,2.0,0.0
6616,64.0,0,180,7.0,0.0
6617,48.0,0,180,12.0,0.0
6618,48.0,0,180,11.0,0.0
6619,60.0,240,180,1.0,0.0
6620,60.0,0,180,10.0,0.0
6621,64.0,0,180,7.0,0.0
6622,48.0,0,180,12.0,0.0
6623,64.0,0,180,7.0,0.0
6624,48.0,48,180,11.0,0.0
6625,60.0,0,180,10.0,0.0
6626,60.0,0,180,1.0,0.0
6627,60.0,0,180,1.0,0.0
6628,64.0,0,180,7.0,0.0
6629,60.0,24,180,10.0,0.0
6630,83.0,0,120,6.0,0.0
6631,48.0,0,180,12.0,0.0
6632,83.0,72,120,5.0,0.0
6633,48.0,0,180,11.0,0.0
6634,84.0,216,90,5.0,0.0
6635,84.0,0,90,6.0,0.0
6636,69.0,48,780,0.0,0.0
6637,78.0,0,780,0.0,0.0
6638,66.0,96,570,7.0,0.0
6639,62.0,0,180,10.0,0.0
6640,74.0,48,720,6.0,0.0
6641,50.0,0,180,11.0,0.0
6642,62.0,0,780,2.0,0.0
6643,74.0,0,720,5.0,0.0
6644,62.0,240,180,1.0,0.0
6645,50.0,0,180,12.0,0.0
6646,74.0,0,780,3.0,0.0
6647,62.0,0,180,10.0,0.0
6648,50.0,0,180,12.0,0.0
6649,62.0,0,180,1.0,0.0
6650,50.0,144,180,11.0,0.0
6651,50.0,0,180,12.0,0.0
6652,62.0,0,180,1.0,0.0
6653,50.0,48,180,11.0,0.0
6654,62.0,0,180,10.0,0.0
6655,50.0,0,180,12.0,0.0
6656,62.0,0,180,10.0,0.0
6657,67.0,24,90,7.0,0.0
6658,76.0,0,120,5.0,0.0
6659,62.0,0,180,1.0,0.0
6660,50.0,24,180,11.0,0.0
6661,76.0,72,120,6.0,0.0
6662,78.0,0,90,6.0,0.0
6663,78.0,0,90,5.0,0.0
6664,69.0,336,90,7.0,0.0
6665,43.0,0,390,4.0,0.0
6666,79.0,0,300,6.0,0.0
6667,62.0,0,300,2.0,0.0
6668,55.0,0,300,2.0,0.0
6669,67.0,0,300,3.0,0.0
6670,79.0,0,300,0.0,0.0
6671,55.0,0,300,1.0,0.0
6672,74.0,0,300,3.0,0.0
6673,71.0,72,300,0.0,0.0
6674,79.0,0,300,5.0,0.0
6675,43.0,0,390,12.0,0.0
6676,71.0,0,390,7.0,0.0
6677,55.0,0,390,10.0,0.0
6678,43.0,216,390,11.0,0.0
6679,79.0,114,120,6.0,0.0
6680,79.0,0,120,5.0,0.0
6681,67.0,6,240,0.0,0.0
6682,74.0,120,120,5.0,0.0
6683,74.0,0,120,6.0,0.0
6684,71.0,0,120,6.0,0.0
6685,71.0,78,120,5.0,0.0
6686,67.0,18,90,0.0,0.0
6687,67.0,0,90,6.0,0.0
6688,67.0,336,90,5.0,0.0
6689,62.0,0,300,5.0,0.0
6690,62.0,0,300,0.0,0.0
6691,62.0,480,300,2.0,0.0
6692,62.0,0,300,6.0,0.0
6693,50.0,0,300,1.0,0.0
6694,74.0,0,300,3.0,0.0
6695,62.0,408,390,7.0,0.0
6696,38.0,0,390,11.0,0.0
6697,69.0,0,300,6.0,0.0
6698,38.0,0,390,12.0,0.0
6699,62.0,0,300,6.0,0.0
6700,81.0,0,300,0.0,0.0
6701,78.0,0,300,0.0,0.0
6702,62.0,0,300,2.0,0.0
6703,78.0,0,300,6.0,0.0
6704,74.0,0,300,5.0,0.0
6705,50.0,0,390,10.0,0.0
6706,62.0,0,300,5.0,0.0
6707,81.0,72,300,5.0,0.0
6708,83.0,0,300,5.0,0.0
6709,43.0,0,390,4.0,0.0
6710,74.0,72,300,5.0,0.0
6711,62.0,0,300,5.0,0.0
6712,79.0,0,300,0.0,0.0
6713,83.0,0,300,0.0,0.0
6714,67.0,0,300,3.0,0.0
6715,74.0,0,300,3.0,0.0
6716,67.0,0,390,7.0,0.0
6717,43.0,216,390,12.0,0.0
6718,62.0,0,300,2.0,0.0
6719,43.0,0,390,11.0,0.0
6720,55.0,0,300,2.0,0.0
6721,62.0,0,300,6.0,0.0
6722,71.0,0,300,6.0,0.0
6723,79.0,0,300,6.0,0.0
6724,55.0,0,300,1.0,0.0
6725,55.0,0,390,10.0,0.0
6726,79.0,0,120,6.0,0.0
6727,67.0,6,240,0.0,0.0
6728,79.0,114,120,5.0,0.0
6729,74.0,0,120,6.0,0.0
6730,74.0,120,120,5.0,0.0
6731,71.0,78,120,6.0,0.0
6732,71.0,0,120,5.0,0.0
6733,67.0,18,90,0.0,0.0
6734,67.0,0,90,6.0,0.0
6735,67.0,336,90,5.0,0.0
6736,62.0,0,300,6.0,0.0
6737,62.0,0,300,0.0,0.0
6738,62.0,0,300,2.0,0.0
6739,62.0,480,300,5.0,0.0
6740,38.0,0,300,12.0,0.0
6741,50.0,0,300,1.0,0.0
6742,38.0,0,300,11.0,0.0
6743,62.0,0,300,6.0,0.0
6744,78.0,0,300,0.0,0.0
6745,62.0,0,300,2.0,0.0
6746,62.0,0,300,7.0,0.0
6747,72.0,0,300,0.0,0.0
6748,50.0,0,300,10.0,0.0
6749,69.0,0,300,5.0,0.0
6750,78.0,0,300,5.0,0.0
6751,74.0,324,300,3.0,0.0
6752,62.0,0,300,5.0,0.0
6753,72.0,0,300,6.0,0.0
6754,55.0,0,150,10.0,0.0
6755,62.0,0,150,2.0,0.0
6756,55.0,0,150,2.0,0.0
6757,62.0,0,150,6.0,0.0
6758,71.0,0,150,5.0,0.0
6759,79.0,0,150,5.0,0.0
6760,71.0,0,150,6.0,0.0
6761,62.0,0,150,5.0,0.0
6762,43.0,0,150,12.0,0.0
6763,71.0,0,150,0.0,0.0
6764,79.0,0,150,0.0,0.0
6765,43.0,12,390,4.0,0.0
6766,67.0,0,150,3.0,0.0
6767,67.0,228,150,7.0,0.0
6768,55.0,0,150,1.0,0.0
6769,43.0,0,150,11.0,0.0
6770,67.0,0,150,3.0,0.0
6771,55.0,0,150,7.0,0.0
6772,43.0,0,150,1.0,0.0
6773,43.0,0,150,10.0,0.0
6774,55.0,0,150,5.0,0.0
6775,67.0,0,150,0.0,0.0
6776,55.0,0,150,2.0,0.0
6777,43.0,0,150,2.0,0.0
6778,31.0,240,150,11.0,0.0
6779,55.0,0,150,6.0,0.0
6780,67.0,0,150,6.0,0.0
6781,67.0,0,150,5.0,0.0
6782,31.0,0,150,12.0,0.0
6783,55.0,0,150,5.0,0.0
6784,67.0,0,150,5.0,0.0
6785,55.0,0,150,6.0,0.0
6786,67.0,0,150,6.0,0.0
6787,43.0,0,150,2.0,0.0
6788,55.0,0,150,2.0,0.0
6789,55.0,0,150,7.0,0.0
6790,31.0,0,150,11.0,0.0
6791,31.0,0,150,12.0,0.0
6792,67.0,228,150,0.0,0.0
6793,43.0,0,150,10.0,0.0
6794,43.0,0,150,1.0,0.0
6795,43.0,12,390,4.0,0.0
6796,67.0,0,150,3.0,0.0
6797,43.0,468,150,2.0,0.0
6798,55.0,0,150,2.0,0.0
6799,67.0,0,150,3.0,0.0
6800,31.0,0,150,11.0,0.0
6801,31.0,0,150,12.0,0.0
6802,67.0,0,150,0.0,0.0
6803,43.0,0,150,10.0,0.0
6804,55.0,0,150,5.0,0.0
6805,67.0,0,150,5.0,0.0
6806,55.0,0,150,7.0,0.0
6807,55.0,0,150,6.0,0.0
6808,67.0,0,150,6.0,0.0
6809,43.0,0,150,1.0,0.0
6810,55.0,0,390,7.0,0.0
6811,43.0,1344,390,1.0,0.0
6812,43.0,0,390,2.0,0.0
6813,67.0,0,390,5.0,0.0
6814,43.0,0,390,4.0,0.0
6815,31.0,0,390,11.0,0.0
6816,43.0,0,390,10.0,0.0
6817,55.0,0,390,5.0,0.0
6818,55.0,0,390,2.0,0.0
6819,67.0,0,390,3.0,0.0
6820,31.0,0,390,12.0,0.0
6821,67.0,0,390,0.0,0.0
6822,67.0,0,390,6.0,0.0
6823,55.0,0,390,6.0,0.0
6824,79.0,768,780,5.0,0.0
6825,83.0,300,570,5.0,0.0
6826,74.0,240,150,5.0,0.0
6827,79.0,240,150,5.0,0.0
6828,71.0,240,150,5.0,0.0
6829,74.0,240,150,5.0,0.0
6830,67.0,240,150,5.0,0.0
6831,71.0,240,150,5.0,0.0
6832,62.0,240,150,5.0,0.0
6833,67.0,240,150,5.0,0.0
6834,55.0,1044,150,5.0,0.0
6835,65.0,240,1440,5.0,0.0
6836,62.0,0,1440,6.0,0.0
6837,59.0,96,1350,7.0,0.0
6838,43.0,0,480,12.0,0.0
6839,55.0,384,480,10.0,0.0
6840,43.0,0,480,11.0,0.0
6841,56.0,0,480,10.0,0.0
6842,44.0,0,480,11.0,0.0
6843,44.0,0,480,12.0,0.0
6844,60.0,0,390,6.0,0.0
6845,54.0,0,390,10.0,0.0
6846,42.0,48,390,11.0,0.0
6847,42.0,0,390,12.0,0.0
6848,60.0,144,240,7.0,0.0
6849,63.0,0,390,5.0,0.0
6850,57.0,108,180,7.0,0.0
6851,65.0,0,60,5.0,0.0
6852,62.0,60,60,6.0,0.0
6853,55.0,24,150,10.0,0.0
6854,55.0,0,150,7.0,0.0
6855,43.0,0,150,11.0,0.0
6856,43.0,0,150,12.0,0.0
6857,60.0,36,60,6.0,0.0
6858,63.0,0,60,5.0,0.0
6859,62.0,60,60,6.0,0.0
6860,65.0,0,60,5.0,0.0
6861,63.0,156,60,5.0,0.0
6862,60.0,0,60,6.0,0.0
6863,62.0,0,150,5.0,0.0
6864,43.0,240,150,12.0,0.0
6865,59.0,0,150,6.0,0.0
6866,55.0,0,150,7.0,0.0
6867,43.0,0,150,11.0,0.0
6868,55.0,0,150,10.0,0.0
6869,43.0,0,150,12.0,0.0
6870,55.0,0,150,7.0,0.0
6871,43.0,0,150,11.0,0.0
6872,59.0,240,150,6.0,0.0
6873,55.0,0,150,10.0,0.0
6874,62.0,0,150,5.0,0.0
6875,43.0,0,150,12.0,0.0
6876,43.0,0,150,11.0,0.0
6877,55.0,0,150,7.0,0.0
6878,59.0,468,150,6.0,0.0
6879,62.0,0,150,5.0,0.0
6880,55.0,0,150,10.0,0.0
6881,43.0,1344,390,12.0,0.0
6882,55.0,0,390,7.0,0.0
6883,62.0,0,390,5.0,0.0
6884,55.0,0,390,10.0,0.0
6885,59.0,0,390,6.0,0.0
6886,43.0,0,390,11.0,0.0
6887,79.0,768,780,5.0,0.0
6888,83.0,300,570,5.0,0.0
6889,74.0,240,150,5.0,0.0
6890,79.0,240,150,5.0,0.0
6891,71.0,240,150,5.0,0.0
6892,74.0,240,150,5.0,0.0
6893,67.0,240,150,5.0,0.0
6894,71.0,240,150,5.0,0.0
6895,62.0,240,150,5.0,0.0
6896,67.0,240,150,5.0,0.0
6897,55.0,1044,150,5.0,0.0
6898,59.0,0,1440,6.0,0.0
6899,56.0,96,1350,7.0,0.0
6900,62.0,0,1440,5.0,0.0
6901,40.0,0,480,12.0,0.0
6902,52.0,0,480,10.0,0.0
6903,40.0,384,480,11.0,0.0
6904,41.0,192,480,12.0,0.0
6905,41.0,0,480,11.0,0.0
6906,53.0,0,480,10.0,0.0
6907,39.0,0,390,11.0,0.0
6908,60.0,0,390,5.0,0.0
6909,51.0,0,390,10.0,0.0
6910,39.0,0,390,12.0,0.0
6911,57.0,192,180,7.0,0.0
6912,57.0,48,390,6.0,0.0
6913,54.0,108,180,7.0,0.0
6914,40.0,0,150,11.0,0.0
6915,62.0,60,60,5.0,0.0
6916,52.0,0,150,7.0,0.0
6917,52.0,0,150,10.0,0.0
6918,40.0,24,150,12.0,0.0
6919,59.0,0,60,6.0,0.0
6920,60.0,0,60,5.0,0.0
6921,57.0,36,60,6.0,0.0
6922,62.0,0,60,5.0,0.0
6923,59.0,60,60,6.0,0.0
6924,60.0,0,60,5.0,0.0
6925,57.0,144,60,6.0,0.0
6926,40.0,0,150,11.0,0.0
6927,40.0,228,150,12.0,0.0
6928,59.0,12,150,5.0,0.0
6929,56.0,0,150,6.0,0.0
6930,52.0,0,150,7.0,0.0
6931,52.0,0,150,10.0,0.0
6932,40.0,0,150,11.0,0.0
6933,56.0,12,150,6.0,0.0
6934,52.0,0,150,10.0,0.0
6935,59.0,0,150,5.0,0.0
6936,40.0,0,150,12.0,0.0
6937,52.0,228,150,7.0,0.0
6938,56.0,0,150,6.0,0.0
6939,40.0,468,150,11.0,0.0
6940,52.0,0,150,7.0,0.0
6941,52.0,0,150,10.0,0.0
6942,59.0,12,150,5.0,0.0
6943,40.0,0,150,12.0,0.0
6944,40.0,672,390,11.0,0.0
6945,59.0,0,390,5.0,0.0
6946,52.0,0,390,10.0,0.0
6947,56.0,0,390,6.0,0.0
6948,40.0,0,390,12.0,0.0
6949,52.0,0,390,7.0,0.0
6950,69.0,0,90,6.0,0.0
6951,64.0,0,90,6.0,0.0
6952,60.0,0,90,7.0,0.0
6953,57.0,120,90,7.0,0.0
6954,81.0,48,780,5.0,0.0
6955,60.0,0,3660,2.0,0.0
6956,64.0,0,3660,2.0,0.0
6957,43.0,0,3660,1.0,0.0
6958,57.0,0,3660,1.0,0.0
6959,72.0,0,3660,0.0,0.0
6960,76.0,48,3660,0.0,0.0
6961,69.0,0,90,6.0,0.0
6962,60.0,0,90,7.0,0.0
6963,57.0,0,90,7.0,0.0
6964,64.0,120,90,6.0,0.0
6965,60.0,0,90,7.0,0.0
6966,57.0,0,90,7.0,0.0
6967,69.0,120,90,6.0,0.0
6968,64.0,0,90,6.0,0.0
6969,64.0,0,90,6.0,0.0
6970,60.0,120,90,7.0,0.0
6971,69.0,0,90,6.0,0.0
6972,57.0,0,90,7.0,0.0
6973,69.0,0,90,6.0,0.0
6974,60.0,0,90,7.0,0.0
6975,57.0,0,90,7.0,0.0
6976,64.0,120,90,6.0,0.0
6977,60.0,0,90,7.0,0.0
6978,57.0,0,90,7.0,0.0
6979,69.0,0,90,6.0,0.0
6980,64.0,72,90,6.0,0.0
6981,60.0,120,90,7.0,0.0
6982,57.0,0,90,7.0,0.0
6983,69.0,0,90,6.0,0.0
6984,64.0,0,90,6.0,0.0
6985,64.0,0,90,6.0,0.0
6986,60.0,120,90,7.0,0.0
6987,57.0,0,90,7.0,0.0
6988,69.0,0,90,6.0,0.0
6989,84.0,0,570,5.0,0.0
6990,60.0,120,90,7.0,0.0
6991,57.0,0,90,7.0,0.0
6992,69.0,0,90,6.0,0.0
6993,64.0,0,90,6.0,0.0
6994,64.0,0,90,6.0,0.0
6995,69.0,0,90,6.0,0.0
6996,57.0,0,90,7.0,0.0
6997,60.0,120,90,7.0,0.0
6998,69.0,0,90,6.0,0.0
6999,64.0,0,90,6.0,0.0
7000,60.0,0,90,7.0,0.0
7001,57.0,120,90,7.0,0.0
7002,57.0,0,90,7.0,0.0
7003,60.0,0,90,7.0,0.0
7004,69.0,120,90,6.0,0.0
7005,64.0,0,90,6.0,0.0
7006,64.0,0,90,6.0,0.0
7007,57.0,120,90,7.0,0.0
7008,60.0,0,90,7.0,0.0
7009,69.0,0,90,6.0,0.0
7010,57.0,0,90,7.0,0.0
7011,64.0,120,90,6.0,0.0
7012,69.0,0,90,6.0,0.0
7013,60.0,0,90,7.0,0.0
7014,76.0,60,150,5.0,0.0
7015,57.0,0,90,7.0,0.0
7016,69.0,0,90,6.0,0.0
7017,60.0,0,90,7.0,0.0
7018,64.0,60,90,6.0,0.0
7019,64.0,0,90,6.0,0.0
7020,60.0,0,90,7.0,0.0
7021,69.0,0,90,6.0,0.0
7022,57.0,120,90,7.0,0.0
7023,81.0,0,570,5.0,0.0
7024,64.0,0,90,6.0,0.0
7025,60.0,0,90,7.0,0.0
7026,57.0,0,90,7.0,0.0
7027,69.0,120,90,6.0,0.0
7028,69.0,0,90,6.0,0.0
7029,64.0,120,90,6.0,0.0
7030,57.0,0,90,7.0,0.0
7031,60.0,0,90,7.0,0.0
7032,69.0,0,90,6.0,0.0
7033,64.0,0,90,6.0,0.0
7034,57.0,120,90,7.0,0.0
7035,60.0,0,90,7.0,0.0
7036,64.0,0,90,6.0,0.0
7037,69.0,0,90,6.0,0.0
7038,57.0,0,90,7.0,0.0
7039,60.0,120,90,7.0,0.0
7040,60.0,0,90,7.0,0.0
7041,57.0,0,90,7.0,0.0
7042,64.0,0,90,6.0,0.0
7043,69.0,120,90,6.0,0.0
7044,69.0,0,90,6.0,0.0
7045,57.0,120,90,7.0,0.0
7046,60.0,0,90,7.0,0.0
7047,64.0,0,90,6.0,0.0
7048,64.0,0,90,6.0,0.0
7049,72.0,60,150,5.0,0.0
7050,69.0,60,90,6.0,0.0
7051,57.0,0,90,7.0,0.0
7052,60.0,0,90,7.0,0.0
7053,60.0,0,90,7.0,0.0
7054,69.0,120,90,6.0,0.0
7055,64.0,0,90,6.0,0.0
7056,57.0,0,90,7.0,0.0
7057,76.0,60,150,5.0,0.0
7058,57.0,0,90,7.0,0.0
7059,64.0,60,90,6.0,0.0
7060,69.0,0,90,6.0,0.0
7061,60.0,0,90,7.0,0.0
7062,57.0,0,90,7.0,0.0
7063,60.0,0,90,7.0,0.0
7064,64.0,120,90,6.0,0.0
7065,69.0,0,90,6.0,0.0
7066,60.0,0,90,7.0,0.0
7067,57.0,0,90,7.0,0.0
7068,69.0,60,150,5.0,0.0
7069,69.0,60,90,6.0,0.0
7070,64.0,0,90,6.0,0.0
7071,57.0,0,90,7.0,0.0
7072,64.0,0,90,6.0,0.0
7073,60.0,120,90,7.0,0.0
7074,69.0,0,90,6.0,0.0
7075,57.0,60,90,7.0,0.0
7076,69.0,0,90,6.0,0.0
7077,64.0,0,90,6.0,0.0
7078,72.0,60,150,5.0,0.0
7079,60.0,0,90,7.0,0.0
7080,64.0,0,90,6.0,0.0
7081,60.0,0,90,7.0,0.0
7082,69.0,72,90,6.0,0.0
7083,57.0,0,90,7.0,0.0
7084,64.0,0,90,6.0,0.0
7085,69.0,60,90,6.0,0.0
7086,64.0,60,150,5.0,0.0
7087,60.0,0,90,7.0,0.0
7088,57.0,0,90,7.0,0.0
7089,57.0,0,90,7.0,0.0
7090,64.0,0,90,6.0,0.0
7091,69.0,0,90,6.0,0.0
7092,60.0,120,90,7.0,0.0
7093,65.0,48,3660,2.0,0.0
7094,65.0,0,90,6.0,0.0
7095,69.0,60,90,6.0,0.0
7096,62.0,0,3660,2.0,0.0
7097,50.0,0,780,11.0,0.0
7098,65.0,60,150,5.0,0.0
7099,50.0,0,3660,1.0,0.0
7100,77.0,0,3660,0.0,0.0
7101,50.0,48,780,12.0,0.0
7102,69.0,0,3660,0.0,0.0
7103,74.0,0,3660,3.0,0.0
7104,62.0,0,780,10.0,0.0
7105,38.0,0,3660,1.0,0.0
7106,62.0,0,90,7.0,0.0
7107,57.0,0,90,7.0,0.0
7108,57.0,0,90,7.0,0.0
7109,65.0,0,90,6.0,0.0
7110,62.0,120,90,7.0,0.0
7111,69.0,0,90,6.0,0.0
7112,69.0,0,90,6.0,0.0
7113,65.0,60,90,6.0,0.0
7114,57.0,0,90,7.0,0.0
7115,62.0,60,150,5.0,0.0
7116,62.0,0,90,7.0,0.0
7117,65.0,120,90,6.0,0.0
7118,57.0,0,90,7.0,0.0
7119,69.0,0,90,6.0,0.0
7120,62.0,0,90,7.0,0.0
7121,69.0,0,90,6.0,0.0
7122,62.0,0,90,7.0,0.0
7123,65.0,0,90,6.0,0.0
7124,69.0,60,630,5.0,0.0
7125,57.0,120,90,7.0,0.0
7126,62.0,0,90,7.0,0.0
7127,57.0,0,90,7.0,0.0
7128,65.0,0,90,6.0,0.0
7129,69.0,72,90,6.0,0.0
7130,69.0,0,90,6.0,0.0
7131,65.0,0,90,6.0,0.0
7132,62.0,0,90,7.0,0.0
7133,57.0,120,90,7.0,0.0
7134,57.0,0,90,7.0,0.0
7135,62.0,0,90,7.0,0.0
7136,69.0,120,90,6.0,0.0
7137,65.0,0,90,6.0,0.0
7138,65.0,0,90,6.0,0.0
7139,57.0,0,90,7.0,0.0
7140,69.0,0,90,6.0,0.0
7141,53.0,0,570,11.0,0.0
7142,53.0,120,570,12.0,0.0
7143,62.0,60,90,7.0,0.0
7144,65.0,0,570,10.0,0.0
7145,69.0,120,90,6.0,0.0
7146,57.0,0,90,7.0,0.0
7147,62.0,0,90,7.0,0.0
7148,65.0,0,90,6.0,0.0
7149,69.0,0,90,6.0,0.0
7150,65.0,60,90,6.0,0.0
7151,65.0,60,150,5.0,0.0
7152,62.0,0,90,7.0,0.0
7153,57.0,0,90,7.0,0.0
7154,57.0,120,90,7.0,0.0
7155,62.0,0,90,7.0,0.0
7156,69.0,0,90,6.0,0.0
7157,65.0,0,90,6.0,0.0
7158,65.0,0,90,6.0,0.0
7159,74.0,60,630,5.0,0.0
7160,69.0,0,90,6.0,0.0
7161,62.0,0,90,7.0,0.0
7162,57.0,0,90,7.0,0.0
7163,69.0,0,90,6.0,0.0
7164,65.0,0,90,6.0,0.0
7165,57.0,0,90,7.0,0.0
7166,62.0,120,90,7.0,0.0
7167,57.0,0,150,10.0,0.0
7168,65.0,0,90,6.0,0.0
7169,69.0,0,90,6.0,0.0
7170,45.0,0,150,11.0,0.0
7171,45.0,60,150,12.0,0.0
7172,62.0,0,90,7.0,0.0
7173,57.0,60,90,7.0,0.0
7174,57.0,0,90,7.0,0.0
7175,62.0,120,90,7.0,0.0
7176,69.0,0,90,6.0,0.0
7177,65.0,0,90,6.0,0.0
7178,50.0,0,570,12.0,0.0
7179,62.0,0,570,10.0,0.0
7180,57.0,0,90,7.0,0.0
7181,50.0,0,570,11.0,0.0
7182,65.0,0,90,6.0,0.0
7183,69.0,60,90,6.0,0.0
7184,62.0,0,90,7.0,0.0
7185,65.0,0,90,6.0,0.0
7186,69.0,0,90,6.0,0.0
7187,57.0,120,90,7.0,0.0
7188,62.0,0,90,7.0,0.0
7189,69.0,60,150,5.0,0.0
7190,57.0,0,90,7.0,0.0
7191,69.0,0,90,6.0,0.0
7192,65.0,0,90,6.0,0.0
7193,62.0,60,90,7.0,0.0
7194,62.0,0,90,7.0,0.0
7195,57.0,0,90,7.0,0.0
7196,65.0,0,90,6.0,0.0
7197,69.0,120,90,6.0,0.0
7198,57.0,0,90,7.0,0.0
7199,77.0,0,630,5.0,0.0
7200,65.0,0,90,6.0,0.0
7201,69.0,0,90,6.0,0.0
7202,62.0,120,90,7.0,0.0
7203,69.0,0,90,6.0,0.0
7204,65.0,0,90,6.0,0.0
7205,57.0,120,90,7.0,0.0
7206,62.0,0,90,7.0,0.0
7207,41.0,0,150,12.0,0.0
7208,62.0,0,90,7.0,0.0
7209,57.0,0,90,7.0,0.0
7210,65.0,0,90,6.0,0.0
7211,53.0,0,150,10.0,0.0
7212,69.0,60,90,6.0,0.0
7213,41.0,60,150,11.0,0.0
7214,69.0,0,90,6.0,0.0
7215,65.0,0,90,6.0,0.0
7216,57.0,0,90,7.0,0.0
7217,62.0,120,90,7.0,0.0
7218,69.0,60,90,6.0,0.0
7219,57.0,0,150,10.0,0.0
7220,65.0,0,90,6.0,0.0
7221,57.0,0,90,7.0,0.0
7222,45.0,60,150,12.0,0.0
7223,62.0,0,90,7.0,0.0
7224,45.0,0,150,11.0,0.0
7225,65.0,0,90,6.0,0.0
7226,69.0,120,90,6.0,0.0
7227,57.0,0,90,7.0,0.0
7228,62.0,0,90,7.0,0.0
7229,57.0,0,90,7.0,0.0
7230,50.0,60,150,10.0,0.0
7231,62.0,0,90,7.0,0.0
7232,65.0,60,90,6.0,0.0
7233,38.0,0,150,12.0,0.0
7234,74.0,0,150,5.0,0.0
7235,69.0,0,90,6.0,0.0
7236,38.0,0,150,11.0,0.0
7237,62.0,0,90,7.0,0.0
7238,69.0,120,90,6.0,0.0
7239,65.0,0,90,6.0,0.0
7240,57.0,0,90,7.0,0.0
7241,57.0,0,90,7.0,0.0
7242,62.0,60,90,7.0,0.0
7243,41.0,60,150,11.0,0.0
7244,41.0,0,150,12.0,0.0
7245,81.0,0,150,5.0,0.0
7246,69.0,0,90,6.0,0.0
7247,65.0,0,90,6.0,0.0
7248,53.0,0,150,10.0,0.0
7249,65.0,0,90,6.0,0.0
7250,69.0,0,90,6.0,0.0
7251,57.0,0,90,7.0,0.0
7252,62.0,72,90,7.0,0.0
7253,62.0,60,90,7.0,0.0
7254,57.0,0,90,7.0,0.0
7255,45.0,0,150,10.0,0.0
7256,33.0,0,150,11.0,0.0
7257,69.0,0,90,6.0,0.0
7258,65.0,0,90,6.0,0.0
7259,33.0,60,150,12.0,0.0
7260,77.0,0,150,5.0,0.0
7261,62.0,120,90,7.0,0.0
7262,57.0,0,90,7.0,0.0
7263,65.0,0,90,6.0,0.0
7264,69.0,0,90,6.0,0.0
7265,67.0,0,3660,3.0,0.0
7266,74.0,0,3660,3.0,0.0
7267,43.0,12,390,4.0,0.0
7268,43.0,0,150,10.0,0.0
7269,77.0,0,3660,0.0,0.0
7270,71.0,48,3660,0.0,0.0
7271,62.0,0,90,7.0,0.0
7272,59.0,60,90,7.0,0.0
7273,43.0,0,3660,1.0,0.0
7274,65.0,0,90,6.0,0.0
7275,71.0,0,90,6.0,0.0
7276,31.0,60,150,12.0,0.0
7277,62.0,0,3660,2.0,0.0
7278,31.0,0,150,11.0,0.0
7279,55.0,0,3660,1.0,0.0
7280,65.0,0,3660,2.0,0.0
7281,83.0,48,780,5.0,0.0
7282,65.0,0,90,6.0,0.0
7283,71.0,0,90,6.0,0.0
7284,62.0,120,90,7.0,0.0
7285,59.0,0,90,7.0,0.0
7286,71.0,48,90,6.0,0.0
7287,38.0,60,150,11.0,0.0
7288,50.0,0,150,10.0,0.0
7289,59.0,0,90,7.0,0.0
7290,62.0,0,90,7.0,0.0
7291,38.0,0,150,12.0,0.0
7292,65.0,0,90,6.0,0.0
7293,59.0,120,90,7.0,0.0
7294,65.0,0,90,6.0,0.0
7295,62.0,0,90,7.0,0.0
7296,71.0,0,90,6.0,0.0
7297,43.0,60,630,11.0,0.0
7298,55.0,0,630,10.0,0.0
7299,65.0,0,90,6.0,0.0
7300,43.0,0,630,12.0,0.0
7301,71.0,0,90,6.0,0.0
7302,62.0,0,90,7.0,0.0
7303,59.0,120,90,7.0,0.0
7304,71.0,72,90,6.0,0.0
7305,65.0,0,90,6.0,0.0
7306,59.0,0,90,7.0,0.0
7307,62.0,0,90,7.0,0.0
7308,59.0,0,90,7.0,0.0
7309,71.0,120,90,6.0,0.0
7310,65.0,0,90,6.0,0.0
7311,62.0,0,90,7.0,0.0
7312,59.0,0,90,7.0,0.0
7313,71.0,0,90,6.0,0.0
7314,65.0,120,90,6.0,0.0
7315,62.0,0,90,7.0,0.0
7316,65.0,0,90,6.0,0.0
7317,43.0,12,390,4.0,0.0
7318,59.0,60,90,7.0,0.0
7319,86.0,0,570,5.0,0.0
7320,62.0,0,90,7.0,0.0
7321,71.0,0,90,6.0,0.0
7322,62.0,0,90,7.0,0.0
7323,59.0,0,90,7.0,0.0
7324,65.0,0,90,6.0,0.0
7325,71.0,120,90,6.0,0.0
7326,62.0,0,90,7.0,0.0
7327,59.0,48,90,7.0,0.0
7328,38.0,0,150,12.0,0.0
7329,38.0,60,150,11.0,0.0
7330,71.0,0,90,6.0,0.0
7331,50.0,0,150,10.0,0.0
7332,65.0,0,90,6.0,0.0
7333,62.0,0,90,7.0,0.0
7334,59.0,120,90,7.0,0.0
7335,71.0,0,90,6.0,0.0
7336,65.0,0,90,6.0,0.0
7337,62.0,0,90,7.0,0.0
7338,59.0,120,90,7.0,0.0
7339,59.0,0,630,10.0,0.0
7340,47.0,60,630,12.0,0.0
7341,71.0,0,90,6.0,0.0
7342,47.0,0,630,11.0,0.0
7343,65.0,0,90,6.0,0.0
7344,59.0,0,90,7.0,0.0
7345,71.0,120,90,6.0,0.0
7346,65.0,0,90,6.0,0.0
7347,62.0,0,90,7.0,0.0
7348,71.0,0,90,6.0,0.0
7349,77.0,24,180,5.0,0.0
7350,65.0,96,90,6.0,0.0
7351,62.0,0,90,7.0,0.0
7352,59.0,0,90,7.0,0.0
7353,59.0,0,90,7.0,0.0
7354,65.0,0,90,6.0,0.0
7355,71.0,0,90,6.0,0.0
7356,62.0,120,90,7.0,0.0
7357,71.0,0,90,6.0,0.0
7358,65.0,60,90,6.0,0.0
7359,83.0,120,570,5.0,0.0
7360,43.0,12,390,4.0,0.0
7361,59.0,0,90,7.0,0.0
7362,62.0,0,90,7.0,0.0
7363,65.0,120,90,6.0,0.0
7364,71.0,0,90,6.0,0.0
7365,62.0,0,90,7.0,0.0
7366,59.0,0,90,7.0,0.0
7367,71.0,0,90,6.0,0.0
7368,65.0,48,90,6.0,0.0
7369,55.0,0,150,10.0,0.0
7370,43.0,60,150,12.0,0.0
7371,59.0,0,90,7.0,0.0
7372,62.0,0,90,7.0,0.0
7373,43.0,0,150,11.0,0.0
7374,62.0,0,90,7.0,0.0
7375,71.0,0,90,6.0,0.0
7376,65.0,0,90,6.0,0.0
7377,59.0,120,90,7.0,0.0
7378,62.0,0,630,10.0,0.0
7379,71.0,0,90,6.0,0.0
7380,62.0,0,90,7.0,0.0
7381,65.0,0,90,6.0,0.0
7382,50.0,36,630,11.0,0.0
7383,59.0,0,90,7.0,0.0
7384,50.0,0,630,12.0,0.0
7385,71.0,0,90,6.0,0.0
7386,65.0,0,90,6.0,0.0
7387,62.0,0,90,7.0,0.0
7388,59.0,120,90,7.0,0.0
7389,62.0,96,90,7.0,0.0
7390,71.0,0,90,6.0,0.0
7391,65.0,0,90,6.0,0.0
7392,59.0,0,90,7.0,0.0
7393,74.0,24,180,5.0,0.0
7394,65.0,0,90,6.0,0.0
7395,59.0,120,90,7.0,0.0
7396,71.0,0,90,6.0,0.0
7397,62.0,0,90,7.0,0.0
7398,59.0,60,90,7.0,0.0
7399,62.0,0,90,7.0,0.0
7400,77.0,24,180,5.0,0.0
7401,65.0,0,90,6.0,0.0
7402,71.0,0,90,6.0,0.0
7403,59.0,0,90,7.0,0.0
7404,62.0,0,90,7.0,0.0
7405,71.0,0,90,6.0,0.0
7406,65.0,120,90,6.0,0.0
7407,71.0,0,90,6.0,0.0
7408,65.0,60,90,6.0,0.0
7409,47.0,36,150,11.0,0.0
7410,59.0,0,90,7.0,0.0
7411,47.0,0,150,12.0,0.0
7412,71.0,24,180,5.0,0.0
7413,59.0,0,150,10.0,0.0
7414,62.0,0,90,7.0,0.0
7415,59.0,0,90,7.0,0.0
7416,62.0,0,90,7.0,0.0
7417,65.0,120,90,6.0,0.0
7418,71.0,0,90,6.0,0.0
7419,65.0,0,90,6.0,0.0
7420,71.0,60,90,6.0,0.0
7421,53.0,36,150,12.0,0.0
7422,62.0,0,90,7.0,0.0
7423,59.0,0,90,7.0,0.0
7424,65.0,0,150,10.0,0.0
7425,74.0,24,180,5.0,0.0
7426,53.0,0,150,11.0,0.0
7427,65.0,0,90,6.0,0.0
7428,59.0,0,90,7.0,0.0
7429,62.0,0,90,7.0,0.0
7430,71.0,72,90,6.0,0.0
7431,71.0,0,90,6.0,0.0
7432,65.0,60,90,6.0,0.0
7433,50.0,0,150,12.0,0.0
7434,59.0,0,90,7.0,0.0
7435,62.0,0,90,7.0,0.0
7436,50.0,36,150,11.0,0.0
7437,62.0,0,150,10.0,0.0
7438,65.0,24,180,5.0,0.0
7439,71.0,0,90,6.0,0.0
7440,62.0,0,90,7.0,0.0
7441,59.0,0,90,7.0,0.0
7442,65.0,120,90,6.0,0.0
7443,60.0,0,780,10.0,0.0
7444,76.0,0,3660,0.0,0.0
7445,67.0,0,3660,0.0,0.0
7446,60.0,0,3660,3.0,0.0
7447,72.0,0,3660,3.0,0.0
7448,48.0,12,390,4.0,0.0
7449,60.0,0,3660,1.0,0.0
7450,72.0,0,90,6.0,0.0
7451,48.0,0,780,12.0,0.0
7452,64.0,60,150,5.0,0.0
7453,55.0,0,90,7.0,0.0
7454,64.0,0,90,7.0,0.0
7455,64.0,60,90,6.0,0.0
7456,64.0,0,3660,2.0,0.0
7457,48.0,0,3660,1.0,0.0
7458,48.0,48,780,11.0,0.0
7459,60.0,48,3660,2.0,0.0
7460,64.0,120,90,7.0,0.0
7461,55.0,0,90,7.0,0.0
7462,64.0,0,90,6.0,0.0
7463,72.0,0,90,6.0,0.0
7464,72.0,0,90,6.0,0.0
7465,60.0,60,150,5.0,0.0
7466,64.0,0,90,6.0,0.0
7467,64.0,48,90,7.0,0.0
7468,55.0,0,90,7.0,0.0
7469,55.0,0,90,7.0,0.0
7470,64.0,120,90,6.0,0.0
7471,72.0,0,90,6.0,0.0
7472,64.0,0,90,7.0,0.0
7473,67.0,60,630,5.0,0.0
7474,72.0,0,90,6.0,0.0
7475,64.0,120,90,6.0,0.0
7476,64.0,0,90,7.0,0.0
7477,55.0,0,90,7.0,0.0
7478,64.0,0,90,7.0,0.0
7479,55.0,0,90,7.0,0.0
7480,64.0,0,90,6.0,0.0
7481,72.0,72,90,6.0,0.0
7482,55.0,0,90,7.0,0.0
7483,64.0,0,90,7.0,0.0
7484,72.0,0,90,6.0,0.0
7485,64.0,120,90,6.0,0.0
7486,64.0,0,90,6.0,0.0
7487,72.0,0,90,6.0,0.0
7488,64.0,120,90,7.0,0.0
7489,55.0,0,90,7.0,0.0
7490,48.0,12,390,4.0,0.0
7491,64.0,0,570,10.0,0.0
7492,52.0,0,570,12.0,0.0
7493,64.0,0,90,6.0,0.0
7494,72.0,0,90,6.0,0.0
7495,64.0,60,90,7.0,0.0
7496,55.0,0,90,7.0,0.0
7497,52.0,0,570,11.0,0.0
7498,64.0,0,90,6.0,0.0
7499,64.0,0,90,7.0,0.0
7500,55.0,0,90,7.0,0.0
7501,72.0,120,90,6.0,0.0
7502,64.0,60,150,5.0,0.0
7503,64.0,0,90,6.0,0.0
7504,64.0,48,90,7.0,0.0
7505,55.0,0,90,7.0,0.0
7506,72.0,0,90,6.0,0.0
7507,55.0,0,90,7.0,0.0
7508,64.0,0,90,7.0,0.0
7509,72.0,120,90,6.0,0.0
7510,64.0,0,90,6.0,0.0
7511,72.0,60,630,5.0,0.0
7512,55.0,0,90,7.0,0.0
7513,72.0,120,90,6.0,0.0
7514,64.0,0,90,6.0,0.0
7515,64.0,0,90,7.0,0.0
7516,72.0,0,90,6.0,0.0
7517,55.0,120,90,7.0,0.0
7518,64.0,0,90,7.0,0.0
7519,64.0,0,90,6.0,0.0
7520,72.0,0,90,6.0,0.0
7521,64.0,60,90,6.0,0.0
7522,43.0,0,150,11.0,0.0
7523,55.0,60,150,10.0,0.0
7524,43.0,0,150,12.0,0.0
7525,55.0,0,90,7.0,0.0
7526,64.0,0,90,7.0,0.0
7527,55.0,0,90,7.0,0.0
7528,72.0,120,90,6.0,0.0
7529,64.0,0,90,6.0,0.0
7530,64.0,0,90,7.0,0.0
7531,64.0,60,90,6.0,0.0
7532,48.0,0,570,12.0,0.0
7533,64.0,0,90,7.0,0.0
7534,48.0,12,390,4.0,0.0
7535,48.0,0,570,11.0,0.0
7536,55.0,0,90,7.0,0.0
7537,60.0,0,570,10.0,0.0
7538,72.0,0,90,6.0,0.0
7539,72.0,120,90,6.0,0.0
7540,64.0,0,90,6.0,0.0
7541,55.0,0,90,7.0,0.0
7542,64.0,0,90,7.0,0.0
7543,67.0,60,150,5.0,0.0
7544,64.0,48,90,6.0,0.0
7545,72.0,0,90,6.0,0.0
7546,64.0,0,90,7.0,0.0
7547,55.0,0,90,7.0,0.0
7548,64.0,0,90,7.0,0.0
7549,55.0,0,90,7.0,0.0
7550,72.0,120,90,6.0,0.0
7551,64.0,0,90,6.0,0.0
7552,76.0,0,630,5.0,0.0
7553,55.0,0,90,7.0,0.0
7554,64.0,0,90,7.0,0.0
7555,72.0,120,90,6.0,0.0
7556,64.0,0,90,6.0,0.0
7557,72.0,0,90,6.0,0.0
7558,64.0,0,90,6.0,0.0
7559,55.0,0,90,7.0,0.0
7560,64.0,120,90,7.0,0.0
7561,55.0,0,90,7.0,0.0
7562,64.0,60,90,7.0,0.0
7563,64.0,0,90,6.0,0.0
7564,72.0,0,90,6.0,0.0
7565,40.0,0,150,12.0,0.0
7566,40.0,0,150,11.0,0.0
7567,52.0,60,150,10.0,0.0
7568,55.0,120,90,7.0,0.0
7569,64.0,0,90,7.0,0.0
7570,72.0,0,90,6.0,0.0
7571,64.0,0,90,6.0,0.0
7572,72.0,0,90,6.0,0.0
7573,55.0,60,90,7.0,0.0
7574,43.0,0,150,12.0,0.0
7575,43.0,60,150,11.0,0.0
7576,64.0,0,90,7.0,0.0
7577,55.0,0,150,10.0,0.0
7578,64.0,0,90,6.0,0.0
7579,72.0,120,90,6.0,0.0
7580,64.0,0,90,6.0,0.0
7581,55.0,0,90,7.0,0.0
7582,64.0,0,90,7.0,0.0
7583,67.0,0,150,5.0,0.0
7584,72.0,0,90,6.0,0.0
7585,64.0,0,90,6.0,0.0
7586,64.0,60,90,7.0,0.0
7587,55.0,0,90,7.0,0.0
7588,36.0,0,150,11.0,0.0
7589,36.0,0,150,12.0,0.0
7590,48.0,60,150,10.0,0.0
7591,72.0,0,90,6.0,0.0
7592,64.0,120,90,6.0,0.0
7593,64.0,0,90,7.0,0.0
7594,55.0,0,90,7.0,0.0
7595,40.0,0,150,11.0,0.0
7596,52.0,0,150,10.0,0.0
7597,55.0,60,90,7.0,0.0
7598,64.0,0,90,7.0,0.0
7599,40.0,0,150,12.0,0.0
7600,72.0,60,150,5.0,0.0
7601,72.0,0,90,6.0,0.0
7602,64.0,0,90,6.0,0.0
7603,72.0,0,90,6.0,0.0
7604,64.0,0,90,7.0,0.0
7605,55.0,72,90,7.0,0.0
7606,64.0,0,90,6.0,0.0
7607,64.0,60,90,7.0,0.0
7608,72.0,0,90,6.0,0.0
7609,64.0,0,90,6.0,0.0
7610,43.0,0,150,10.0,0.0
7611,31.0,0,150,12.0,0.0
7612,31.0,60,150,11.0,0.0
7613,76.0,0,150,5.0,0.0
7614,55.0,0,90,7.0,0.0
7615,64.0,0,90,7.0,0.0
7616,55.0,0,90,7.0,0.0
7617,64.0,0,90,6.0,0.0
7618,72.0,120,90,6.0,0.0
7619,82.0,0,3660,0.0,0.0
7620,48.0,12,390,4.0,0.0
7621,60.0,0,4230,2.0,0.0
7622,36.0,48,3660,1.0,0.0
7623,48.0,0,150,10.0,0.0
7624,67.0,0,90,6.0,0.0
7625,70.0,60,90,6.0,0.0
7626,60.0,0,90,7.0,0.0
7627,64.0,0,90,7.0,0.0
7628,48.0,36,4230,2.0,0.0
7629,76.0,0,3660,0.0,0.0
7630,36.0,60,150,11.0,0.0
7631,72.0,0,4230,3.0,0.0
7632,36.0,0,150,12.0,0.0
7633,60.0,0,4230,3.0,0.0
7634,48.0,0,3660,1.0,0.0
7635,79.0,48,780,5.0,0.0
7636,70.0,0,90,6.0,0.0
7637,64.0,0,90,7.0,0.0
7638,67.0,120,90,6.0,0.0
7639,60.0,0,90,7.0,0.0
7640,31.0,0,150,11.0,0.0
7641,31.0,0,150,12.0,0.0
7642,70.0,0,90,6.0,0.0
7643,43.0,60,150,10.0,0.0
7644,67.0,0,90,6.0,0.0
7645,64.0,0,90,7.0,0.0
7646,60.0,48,90,7.0,0.0
7647,60.0,0,90,7.0,0.0
7648,64.0,120,90,7.0,0.0
7649,70.0,0,90,6.0,0.0
7650,67.0,0,90,6.0,0.0
7651,64.0,0,90,7.0,0.0
7652,67.0,0,90,6.0,0.0
7653,70.0,120,90,6.0,0.0
7654,40.0,0,630,12.0,0.0
7655,40.0,60,630,11.0,0.0
7656,60.0,0,90,7.0,0.0
7657,52.0,0,630,10.0,0.0
7658,70.0,0,90,6.0,0.0
7659,67.0,72,90,6.0,0.0
7660,60.0,0,90,7.0,0.0
7661,64.0,0,90,7.0,0.0
7662,60.0,120,90,7.0,0.0
7663,67.0,0,90,6.0,0.0
7664,70.0,0,90,6.0,0.0
7665,64.0,0,90,7.0,0.0
7666,67.0,0,90,6.0,0.0
7667,70.0,0,90,6.0,0.0
7668,64.0,0,90,7.0,0.0
7669,60.0,120,90,7.0,0.0
7670,64.0,0,90,7.0,0.0
7671,48.0,12,390,4.0,0.0
7672,70.0,0,90,6.0,0.0
7673,60.0,60,90,7.0,0.0
7674,82.0,120,570,5.0,0.0
7675,67.0,0,90,6.0,0.0
7676,70.0,0,90,6.0,0.0
7677,60.0,120,90,7.0,0.0
7678,64.0,0,90,7.0,0.0
7679,67.0,0,90,6.0,0.0
7680,67.0,0,90,6.0,0.0
7681,70.0,0,90,6.0,0.0
7682,48.0,60,150,10.0,0.0
7683,60.0,48,90,7.0,0.0
7684,36.0,0,150,12.0,0.0
7685,36.0,0,150,11.0,0.0
7686,64.0,0,90,7.0,0.0
7687,64.0,0,90,7.0,0.0
7688,60.0,120,90,7.0,0.0
7689,67.0,0,90,6.0,0.0
7690,70.0,0,90,6.0,0.0
7691,43.0,0,630,12.0,0.0
7692,70.0,0,90,6.0,0.0
7693,67.0,0,90,6.0,0.0
7694,55.0,60,630,10.0,0.0
7695,60.0,0,90,7.0,0.0
7696,43.0,0,630,11.0,0.0
7697,64.0,0,90,7.0,0.0
7698,70.0,120,90,6.0,0.0
7699,60.0,0,90,7.0,0.0
7700,67.0,0,90,6.0,0.0
7701,64.0,0,90,7.0,0.0
7702,76.0,60,150,5.0,0.0
7703,60.0,60,90,7.0,0.0
7704,67.0,0,90,6.0,0.0
7705,64.0,0,90,7.0,0.0
7706,70.0,0,90,6.0,0.0
7707,64.0,120,90,7.0,0.0
7708,60.0,0,90,7.0,0.0
7709,70.0,0,90,6.0,0.0
7710,67.0,0,90,6.0,0.0
7711,64.0,0,90,7.0,0.0
7712,70.0,0,90,6.0,0.0
7713,48.0,12,390,4.0,0.0
7714,79.0,0,570,5.0,0.0
7715,60.0,0,90,7.0,0.0
7716,67.0,60,90,6.0,0.0
7717,67.0,0,90,6.0,0.0
7718,70.0,0,90,6.0,0.0
7719,64.0,0,90,7.0,0.0
7720,60.0,120,90,7.0,0.0
7721,67.0,0,90,6.0,0.0
7722,40.0,60,150,12.0,0.0
7723,40.0,0,150,11.0,0.0
7724,52.0,0,150,10.0,0.0
7725,64.0,48,90,7.0,0.0
7726,70.0,0,90,6.0,0.0
7727,60.0,0,90,7.0,0.0
7728,60.0,120,90,7.0,0.0
7729,70.0,0,90,6.0,0.0
7730,64.0,0,90,7.0,0.0
7731,67.0,0,90,6.0,0.0
7732,46.0,0,630,12.0,0.0
7733,70.0,120,90,6.0,0.0
7734,46.0,0,630,11.0,0.0
7735,64.0,0,90,7.0,0.0
7736,60.0,0,90,7.0,0.0
7737,67.0,0,90,6.0,0.0
7738,58.0,0,630,10.0,0.0
7739,60.0,0,90,7.0,0.0
7740,67.0,0,90,6.0,0.0
7741,70.0,120,90,6.0,0.0
7742,64.0,0,90,7.0,0.0
7743,67.0,60,150,5.0,0.0
7744,67.0,0,90,6.0,0.0
7745,64.0,60,90,7.0,0.0
7746,60.0,0,90,7.0,0.0
7747,70.0,0,90,6.0,0.0
7748,64.0,0,90,7.0,0.0
7749,60.0,0,90,7.0,0.0
7750,70.0,0,90,6.0,0.0
7751,67.0,120,90,6.0,0.0
7752,70.0,60,90,6.0,0.0
7753,64.0,0,90,7.0,0.0
7754,60.0,0,90,7.0,0.0
7755,70.0,60,150,5.0,0.0
7756,48.0,12,390,4.0,0.0
7757,67.0,0,90,6.0,0.0
7758,60.0,120,90,7.0,0.0
7759,67.0,0,90,6.0,0.0
7760,64.0,0,90,7.0,0.0
7761,70.0,0,90,6.0,0.0
7762,70.0,0,90,6.0,0.0
7763,43.0,0,150,12.0,0.0
7764,60.0,48,90,7.0,0.0
7765,67.0,0,90,6.0,0.0
7766,64.0,0,90,7.0,0.0
7767,43.0,0,150,11.0,0.0
7768,55.0,0,150,10.0,0.0
7769,64.0,60,150,5.0,0.0
7770,60.0,120,90,7.0,0.0
7771,64.0,0,90,7.0,0.0
7772,67.0,0,90,6.0,0.0
7773,70.0,0,90,6.0,0.0
7774,40.0,60,150,11.0,0.0
7775,40.0,0,150,12.0,0.0
7776,64.0,0,90,7.0,0.0
7777,60.0,0,90,7.0,0.0
7778,48.0,12,390,4.0,0.0
7779,52.0,0,150,10.0,0.0
7780,70.0,0,90,6.0,0.0
7781,67.0,0,150,5.0,0.0
7782,67.0,60,90,6.0,0.0
7783,70.0,72,90,6.0,0.0
7784,64.0,0,90,7.0,0.0
7785,60.0,0,90,7.0,0.0
7786,67.0,0,90,6.0,0.0
7787,64.0,0,90,7.0,0.0
7788,60.0,0,90,7.0,0.0
7789,36.0,0,150,12.0,0.0
7790,70.0,48,90,6.0,0.0
7791,67.0,0,90,6.0,0.0
7792,36.0,0,150,11.0,0.0
7793,48.0,0,150,10.0,0.0
7794,60.0,60,150,5.0,0.0
7795,64.0,204,90,7.0,0.0
7796,70.0,0,90,6.0,0.0
7797,60.0,0,90,7.0,0.0
7798,67.0,0,90,6.0,0.0
7799,60.0,0,180,7.0,0.0
7800,65.0,0,180,7.0,0.0
7801,41.0,192,180,1.0,0.0
7802,60.0,36,870,1.0,0.0
7803,69.0,0,180,5.0,0.0
7804,53.0,12,180,10.0,0.0
7805,48.0,0,390,4.0,0.0
7806,81.0,0,390,0.0,0.0
7807,65.0,0,180,6.0,0.0
7808,77.0,0,390,0.0,0.0
7809,41.0,0,390,11.0,0.0
7810,41.0,0,390,12.0,0.0
7811,65.0,0,180,6.0,0.0
7812,53.0,0,180,10.0,0.0
7813,69.0,240,180,5.0,0.0
7814,60.0,0,180,7.0,0.0
7815,69.0,0,180,5.0,0.0
7816,60.0,0,180,7.0,0.0
7817,53.0,0,180,10.0,0.0
7818,65.0,204,180,6.0,0.0
7819,53.0,0,180,10.0,0.0
7820,69.0,0,180,5.0,0.0
7821,60.0,0,180,7.0,0.0
7822,65.0,240,180,6.0,0.0
7823,65.0,84,570,1.0,0.0
7824,65.0,0,180,6.0,0.0
7825,53.0,0,180,10.0,0.0
7826,69.0,0,180,5.0,0.0
7827,60.0,240,180,7.0,0.0
7828,60.0,0,180,7.0,0.0
7829,53.0,0,180,10.0,0.0
7830,65.0,156,180,6.0,0.0
7831,69.0,0,180,5.0,0.0
7832,60.0,0,180,7.0,0.0
7833,69.0,0,180,5.0,0.0
7834,53.0,204,180,10.0,0.0
7835,65.0,0,180,6.0,0.0
7836,60.0,0,180,7.0,0.0
7837,57.0,36,150,1.0,0.0
7838,53.0,204,180,10.0,0.0
7839,65.0,0,180,6.0,0.0
7840,69.0,0,180,5.0,0.0
7841,60.0,0,180,7.0,0.0
7842,53.0,0,180,10.0,0.0
7843,69.0,0,180,5.0,0.0
7844,60.0,36,150,1.0,0.0
7845,65.0,204,180,6.0,0.0
7846,69.0,204,180,5.0,0.0
7847,53.0,36,150,1.0,0.0
7848,65.0,0,180,6.0,0.0
7849,53.0,0,180,10.0,0.0
7850,60.0,0,180,7.0,0.0
7851,69.0,0,180,5.0,0.0
7852,57.0,36,150,1.0,0.0
7853,53.0,0,180,10.0,0.0
7854,65.0,0,180,6.0,0.0
7855,60.0,204,180,7.0,0.0
7856,65.0,0,180,6.0,0.0
7857,48.0,36,150,1.0,0.0
7858,69.0,204,180,5.0,0.0
7859,53.0,0,180,10.0,0.0
7860,60.0,0,180,7.0,0.0
7861,65.0,0,180,6.0,0.0
7862,53.0,0,180,10.0,0.0
7863,69.0,204,180,5.0,0.0
7864,53.0,36,150,1.0,0.0
7865,60.0,0,180,7.0,0.0
7866,45.0,36,150,1.0,0.0
7867,60.0,0,180,7.0,0.0
7868,69.0,204,180,5.0,0.0
7869,65.0,0,180,6.0,0.0
7870,53.0,0,180,10.0,0.0
7871,53.0,0,180,10.0,0.0
7872,69.0,204,180,5.0,0.0
7873,48.0,36,150,1.0,0.0
7874,65.0,0,180,6.0,0.0
7875,60.0,0,180,7.0,0.0
7876,65.0,0,180,6.0,0.0
7877,60.0,0,180,7.0,0.0
7878,53.0,0,180,10.0,0.0
7879,41.0,36,150,1.0,0.0
7880,69.0,240,180,5.0,0.0
7881,40.0,0,390,12.0,0.0
7882,40.0,0,390,11.0,0.0
7883,70.0,0,180,5.0,0.0
7884,52.0,0,180,10.0,0.0
7885,67.0,0,180,6.0,0.0
7886,61.0,204,180,7.0,0.0
7887,40.0,36,390,1.0,0.0
7888,79.0,132,780,0.0,0.0
7889,52.0,0,180,10.0,0.0
7890,70.0,0,180,5.0,0.0
7891,67.0,0,180,6.0,0.0
7892,61.0,240,180,7.0,0.0
7893,52.0,0,180,10.0,0.0
7894,67.0,0,180,6.0,0.0
7895,61.0,0,180,7.0,0.0
7896,70.0,108,180,5.0,0.0
7897,52.0,0,180,10.0,0.0
7898,61.0,0,180,7.0,0.0
7899,70.0,0,180,5.0,0.0
7900,67.0,240,180,6.0,0.0
7901,61.0,0,180,7.0,0.0
7902,70.0,0,180,5.0,0.0
7903,52.0,240,180,10.0,0.0
7904,82.0,84,570,0.0,0.0
7905,67.0,0,180,6.0,0.0
7906,61.0,0,180,7.0,0.0
7907,67.0,0,180,6.0,0.0
7908,70.0,0,180,5.0,0.0
7909,52.0,156,180,10.0,0.0
7910,61.0,0,180,7.0,0.0
7911,70.0,0,180,5.0,0.0
7912,67.0,204,180,6.0,0.0
7913,52.0,0,180,10.0,0.0
7914,67.0,0,180,6.0,0.0
7915,70.0,0,180,5.0,0.0
7916,61.0,240,180,7.0,0.0
7917,76.0,36,150,0.0,0.0
7918,52.0,0,180,10.0,0.0
7919,67.0,0,180,5.0,0.0
7920,61.0,0,180,6.0,0.0
7921,52.0,240,180,10.0,0.0
7922,79.0,84,570,0.0,0.0
7923,55.0,0,180,7.0,0.0
7924,52.0,0,180,10.0,0.0
7925,67.0,0,180,5.0,0.0
7926,55.0,0,180,7.0,0.0
7927,61.0,156,180,6.0,0.0
7928,61.0,204,180,6.0,0.0
7929,67.0,0,180,5.0,0.0
7930,55.0,0,180,7.0,0.0
7931,52.0,0,180,10.0,0.0
7932,61.0,204,180,6.0,0.0
7933,67.0,0,180,5.0,0.0
7934,55.0,0,180,7.0,0.0
7935,73.0,36,150,0.0,0.0
7936,52.0,0,180,10.0,0.0
7937,52.0,0,180,10.0,0.0
7938,76.0,36,150,0.0,0.0
7939,61.0,0,180,6.0,0.0
7940,67.0,204,180,5.0,0.0
7941,55.0,0,180,7.0,0.0
7942,67.0,0,180,5.0,0.0
7943,61.0,0,180,6.0,0.0
7944,67.0,36,150,0.0,0.0
7945,52.0,204,180,10.0,0.0
7946,55.0,0,180,7.0,0.0
7947,52.0,0,180,10.0,0.0
7948,55.0,204,180,7.0,0.0
7949,67.0,0,180,5.0,0.0
7950,70.0,36,150,0.0,0.0
7951,61.0,0,180,6.0,0.0
7952,61.0,0,180,6.0,0.0
7953,52.0,0,180,10.0,0.0
7954,55.0,240,180,7.0,0.0
7955,64.0,36,150,0.0,0.0
7956,67.0,0,180,5.0,0.0
7957,38.0,0,390,11.0,0.0
7958,62.0,0,180,6.0,0.0
7959,65.0,36,390,0.0,0.0
7960,50.0,0,180,10.0,0.0
7961,65.0,204,180,5.0,0.0
7962,38.0,0,390,12.0,0.0
7963,69.0,132,780,7.0,0.0
7964,62.0,240,180,6.0,0.0
7965,50.0,0,180,10.0,0.0
7966,65.0,0,180,5.0,0.0
7967,65.0,0,180,5.0,0.0
7968,50.0,0,180,10.0,0.0
7969,62.0,108,180,6.0,0.0
7970,65.0,240,180,5.0,0.0
7971,50.0,0,180,10.0,0.0
7972,62.0,0,180,6.0,0.0
7973,74.0,84,570,7.0,0.0
7974,62.0,0,180,6.0,0.0
7975,65.0,0,180,5.0,0.0
7976,50.0,240,180,10.0,0.0
7977,50.0,156,180,10.0,0.0
7978,65.0,0,180,5.0,0.0
7979,62.0,0,180,6.0,0.0
7980,50.0,0,180,10.0,0.0
7981,62.0,0,180,6.0,0.0
7982,65.0,216,180,5.0,0.0
7983,62.0,216,180,6.0,0.0
7984,65.0,24,150,7.0,0.0
7985,50.0,0,180,10.0,0.0
7986,65.0,0,180,5.0,0.0
7987,69.0,24,150,7.0,0.0
7988,65.0,0,180,5.0,0.0
7989,50.0,216,180,10.0,0.0
7990,57.0,0,180,6.0,0.0
7991,50.0,0,180,10.0,0.0
7992,62.0,24,150,7.0,0.0
7993,65.0,0,180,5.0,0.0
7994,57.0,216,180,6.0,0.0
7995,65.0,24,150,7.0,0.0
7996,50.0,216,180,10.0,0.0
7997,65.0,0,180,5.0,0.0
7998,57.0,0,180,6.0,0.0
7999,65.0,216,180,5.0,0.0
8000,57.0,24,150,7.0,0.0
8001,57.0,0,180,6.0,0.0
8002,50.0,0,180,10.0,0.0
8003,62.0,24,150,7.0,0.0
8004,57.0,0,180,6.0,0.0
8005,50.0,0,180,10.0,0.0
8006,65.0,216,180,5.0,0.0
8007,65.0,0,180,5.0,0.0
8008,53.0,24,150,7.0,0.0
8009,50.0,0,180,10.0,0.0
8010,57.0,216,180,6.0,0.0
8011,57.0,24,150,7.0,0.0
8012,57.0,0,180,6.0,0.0
8013,50.0,216,180,10.0,0.0
8014,65.0,0,180,5.0,0.0
8015,50.0,24,150,7.0,0.0
8016,57.0,0,180,6.0,0.0
8017,50.0,240,180,10.0,0.0
8018,65.0,0,180,5.0,0.0
8019,38.0,36,390,11.0,0.0
8020,50.0,204,180,10.0,0.0
8021,38.0,0,390,12.0,0.0
8022,77.0,132,780,6.0,0.0
8023,68.0,0,180,5.0,0.0
8024,59.0,0,180,7.0,0.0
8025,59.0,0,180,7.0,0.0
8026,50.0,0,180,10.0,0.0
8027,68.0,240,180,5.0,0.0
8028,68.0,0,180,5.0,0.0
8029,59.0,0,180,7.0,0.0
8030,50.0,108,180,10.0,0.0
8031,50.0,0,180,10.0,0.0
8032,59.0,240,180,7.0,0.0
8033,68.0,0,180,5.0,0.0
8034,59.0,0,180,7.0,0.0
8035,68.0,0,180,5.0,0.0
8036,80.0,84,570,6.0,0.0
8037,50.0,240,180,10.0,0.0
8038,68.0,156,180,5.0,0.0
8039,50.0,0,180,10.0,0.0
8040,59.0,0,180,7.0,0.0
8041,68.0,0,180,5.0,0.0
8042,50.0,216,180,10.0,0.0
8043,59.0,0,180,7.0,0.0
8044,50.0,0,180,10.0,0.0
8045,59.0,0,180,7.0,0.0
8046,74.0,24,150,6.0,0.0
8047,68.0,240,180,5.0,0.0
8048,68.0,0,180,5.0,0.0
8049,50.0,240,180,10.0,0.0
8050,59.0,0,180,7.0,0.0
8051,77.0,84,570,6.0,0.0
8052,68.0,0,180,5.0,0.0
8053,50.0,156,180,10.0,0.0
8054,59.0,0,180,7.0,0.0
8055,59.0,0,180,7.0,0.0
8056,50.0,0,180,10.0,0.0
8057,68.0,216,180,5.0,0.0
8058,71.0,24,150,6.0,0.0
8059,50.0,216,180,10.0,0.0
8060,59.0,0,180,7.0,0.0
8061,68.0,0,180,5.0,0.0
8062,50.0,0,180,10.0,0.0
8063,74.0,24,150,6.0,0.0
8064,68.0,216,180,5.0,0.0
8065,59.0,0,180,7.0,0.0
8066,68.0,216,180,5.0,0.0
8067,59.0,0,180,7.0,0.0
8068,65.0,24,150,6.0,0.0
8069,50.0,0,180,10.0,0.0
8070,59.0,0,180,7.0,0.0
8071,68.0,0,180,5.0,0.0
8072,50.0,216,180,10.0,0.0
8073,68.0,24,150,6.0,0.0
8074,59.0,0,180,7.0,0.0
8075,50.0,240,180,10.0,0.0
8076,62.0,24,150,6.0,0.0
8077,68.0,0,180,5.0,0.0
8078,39.0,0,390,11.0,0.0
8079,39.0,36,390,12.0,0.0
8080,60.0,0,180,7.0,0.0
8081,79.0,132,780,5.0,0.0
8082,51.0,204,180,10.0,0.0
8083,67.0,0,180,6.0,0.0
8084,67.0,240,180,6.0,0.0
8085,51.0,0,180,10.0,0.0
8086,60.0,0,180,7.0,0.0
8087,67.0,0,180,6.0,0.0
8088,51.0,0,180,10.0,0.0
8089,60.0,108,180,7.0,0.0
8090,60.0,0,180,7.0,0.0
8091,67.0,240,180,6.0,0.0
8092,51.0,0,180,10.0,0.0
8093,51.0,0,180,10.0,0.0
8094,84.0,84,570,5.0,0.0
8095,60.0,0,180,7.0,0.0
8096,67.0,240,180,6.0,0.0
8097,67.0,156,180,6.0,0.0
8098,51.0,0,180,10.0,0.0
8099,60.0,0,180,7.0,0.0
8100,67.0,216,180,6.0,0.0
8101,51.0,0,180,10.0,0.0
8102,60.0,0,180,7.0,0.0
8103,60.0,0,180,7.0,0.0
8104,67.0,0,180,6.0,0.0
8105,51.0,216,180,10.0,0.0
8106,75.0,24,150,5.0,0.0
8107,51.0,0,180,10.0,0.0
8108,60.0,0,180,7.0,0.0
8109,79.0,24,150,5.0,0.0
8110,67.0,216,180,6.0,0.0
8111,60.0,216,180,7.0,0.0
8112,72.0,24,150,5.0,0.0
8113,67.0,0,180,6.0,0.0
8114,51.0,0,180,10.0,0.0
8115,67.0,0,180,6.0,0.0
8116,75.0,24,150,5.0,0.0
8117,51.0,216,180,10.0,0.0
8118,60.0,0,180,7.0,0.0
8119,60.0,216,180,7.0,0.0
8120,67.0,24,150,5.0,0.0
8121,67.0,0,180,6.0,0.0
8122,51.0,0,180,10.0,0.0
8123,72.0,24,150,5.0,0.0
8124,60.0,0,180,7.0,0.0
8125,51.0,216,180,10.0,0.0
8126,67.0,0,180,6.0,0.0
8127,60.0,0,180,7.0,0.0
8128,67.0,216,180,6.0,0.0
8129,51.0,0,180,10.0,0.0
8130,63.0,24,150,5.0,0.0
8131,60.0,0,180,7.0,0.0
8132,67.0,0,180,6.0,0.0
8133,67.0,24,150,5.0,0.0
8134,51.0,216,180,10.0,0.0
8135,60.0,0,180,7.0,0.0
8136,67.0,0,180,6.0,0.0
8137,60.0,24,150,5.0,0.0
8138,51.0,300,180,10.0,0.0
8139,44.0,0,780,12.0,0.0
8140,63.0,228,240,6.0,0.0
8141,56.0,432,780,10.0,0.0
8142,66.0,36,2310,7.0,0.0
8143,44.0,0,780,11.0,0.0
8144,72.0,0,240,5.0,0.0
8145,62.0,300,240,6.0,0.0
8146,71.0,0,240,5.0,0.0
8147,72.0,0,720,5.0,0.0
8148,63.0,228,720,6.0,0.0
8149,48.0,0,570,12.0,0.0
8150,48.0,324,570,11.0,0.0
8151,60.0,0,570,10.0,0.0
8152,71.0,108,240,5.0,0.0
8153,62.0,0,240,6.0,0.0
8154,63.0,0,720,6.0,0.0
8155,72.0,144,720,5.0,0.0
8156,39.0,0,180,12.0,0.0
8157,51.0,240,180,10.0,0.0
8158,39.0,0,180,11.0,0.0
8159,56.0,60,180,10.0,0.0
8160,44.0,0,180,11.0,0.0
8161,44.0,0,180,12.0,0.0
8162,36.0,0,180,12.0,0.0
8163,36.0,0,180,11.0,0.0
8164,62.0,0,240,6.0,0.0
8165,71.0,180,240,5.0,0.0
8166,48.0,60,180,10.0,0.0
8167,63.0,180,240,6.0,0.0
8168,72.0,0,240,5.0,0.0
8169,39.0,0,180,11.0,0.0
8170,51.0,60,180,10.0,0.0
8171,39.0,0,180,12.0,0.0
8172,71.0,0,180,5.0,0.0
8173,32.0,0,180,12.0,0.0
8174,44.0,12,180,10.0,0.0
8175,32.0,0,180,11.0,0.0
8176,62.0,288,180,6.0,0.0
8177,63.0,240,240,6.0,0.0
8178,30.0,0,960,12.0,0.0
8179,42.0,0,960,10.0,0.0
8180,72.0,0,240,5.0,0.0
8181,30.0,0,960,11.0,0.0
8182,60.0,0,240,6.0,0.0
8183,75.0,240,240,5.0,0.0
8184,59.0,0,240,6.0,0.0
8185,62.0,168,300,7.0,0.0
8186,74.0,72,240,5.0,0.0
8187,57.0,132,240,6.0,0.0
8188,72.0,0,240,5.0,0.0
8189,43.0,0,390,10.0,0.0
8190,62.0,96,390,7.0,0.0
8191,31.0,0,390,11.0,0.0
8192,31.0,0,390,12.0,0.0
8193,71.0,0,120,5.0,0.0
8194,55.0,252,120,6.0,0.0
8195,79.0,240,240,5.0,0.0
8196,67.0,0,240,6.0,0.0
8197,69.0,0,240,6.0,0.0
8198,78.0,240,240,5.0,0.0
8199,71.0,240,240,6.0,0.0
8200,77.0,0,240,5.0,0.0
8201,72.0,240,480,6.0,0.0
8202,76.0,240,240,5.0,0.0
8203,75.0,0,240,5.0,0.0
8204,66.0,132,480,7.0,0.0
8205,74.0,240,240,5.0,0.0
8206,71.0,0,240,6.0,0.0
8207,69.0,0,240,6.0,0.0
8208,72.0,0,240,5.0,0.0
8209,71.0,0,120,5.0,0.0
8210,67.0,252,120,6.0,0.0
8211,67.0,96,390,7.0,0.0
8212,55.0,240,240,6.0,0.0
8213,79.0,0,240,0.0,0.0
8214,67.0,0,240,5.0,0.0
8215,78.0,240,240,0.0,0.0
8216,66.0,0,240,5.0,0.0
8217,57.0,0,240,6.0,0.0
8218,59.0,0,240,6.0,0.0
8219,77.0,0,240,0.0,0.0
8220,65.0,240,240,5.0,0.0
8221,60.0,240,480,6.0,0.0
8222,76.0,240,240,0.0,0.0
8223,64.0,0,240,5.0,0.0
8224,75.0,0,240,0.0,0.0
8225,63.0,0,240,5.0,0.0
8226,54.0,156,480,7.0,0.0
8227,74.0,0,240,0.0,0.0
8228,62.0,0,240,5.0,0.0
8229,59.0,192,240,6.0,0.0
8230,60.0,0,180,5.0,0.0
8231,72.0,48,180,0.0,0.0
8232,57.0,0,180,6.0,0.0
8233,55.0,0,180,7.0,0.0
8234,55.0,204,180,6.0,0.0
8235,79.0,0,180,0.0,0.0
8236,67.0,36,150,5.0,0.0
8237,67.0,276,150,5.0,0.0
8238,60.0,0,180,6.0,0.0
8239,63.0,0,180,6.0,0.0
8240,60.0,240,180,7.0,0.0
8241,79.0,0,180,0.0,0.0
8242,67.0,240,180,5.0,0.0
8243,59.0,240,180,6.0,0.0
8244,79.0,0,180,0.0,0.0
8245,62.0,0,180,6.0,0.0
8246,55.0,0,180,7.0,0.0
8247,67.0,240,180,5.0,0.0
8248,63.0,0,180,6.0,0.0
8249,79.0,0,180,0.0,0.0
8250,60.0,240,180,6.0,0.0
8251,60.0,0,180,7.0,0.0
8252,67.0,432,180,5.0,0.0
8253,55.0,0,390,7.0,0.0
8254,79.0,0,390,0.0,0.0
8255,62.0,96,390,6.0,0.0
8256,59.0,0,390,6.0,0.0
8257,67.0,240,240,5.0,0.0
8258,66.0,240,240,5.0,0.0
8259,67.0,240,240,5.0,0.0
8260,68.0,240,240,5.0,0.0
8261,69.0,240,240,5.0,0.0
8262,70.0,192,240,5.0,0.0
8263,71.0,240,180,5.0,0.0
8264,60.0,144,1740,7.0,0.0
8265,64.0,144,780,6.0,0.0
8266,60.0,240,180,10.0,0.0
8267,72.0,0,780,5.0,0.0
8268,60.0,240,180,10.0,0.0
8269,60.0,96,180,10.0,0.0
8270,60.0,240,180,10.0,0.0
8271,60.0,240,180,10.0,0.0
8272,69.0,48,720,6.0,0.0
8273,77.0,0,720,5.0,0.0
8274,60.0,240,180,10.0,0.0
8275,60.0,48,180,10.0,0.0
8276,60.0,0,180,10.0,0.0
8277,76.0,0,180,5.0,0.0
8278,67.0,108,180,6.0,0.0
8279,76.0,132,60,5.0,0.0
8280,60.0,48,180,10.0,0.0
8281,67.0,0,60,6.0,0.0
8282,69.0,144,1740,7.0,0.0
8283,65.0,0,180,6.0,0.0
8284,74.0,192,180,5.0,0.0
8285,64.0,108,180,6.0,0.0
8286,73.0,0,180,5.0,0.0
8287,60.0,0,180,10.0,0.0
8288,76.0,0,60,5.0,0.0
8289,67.0,132,60,6.0,0.0
8290,60.0,48,180,10.0,0.0
8291,74.0,0,180,5.0,0.0
8292,65.0,192,180,6.0,0.0
8293,64.0,240,180,6.0,0.0
8294,60.0,0,180,10.0,0.0
8295,73.0,0,180,5.0,0.0
8296,74.0,48,390,5.0,0.0
8297,65.0,0,390,6.0,0.0
8298,60.0,192,180,10.0,0.0
8299,60.0,240,180,10.0,0.0
8300,60.0,96,180,10.0,0.0
8301,60.0,288,180,10.0,0.0
8302,74.0,240,240,5.0,0.0
8303,59.0,144,1740,10.0,0.0
8304,67.0,0,2070,6.0,0.0
8305,62.0,156,1920,7.0,0.0
8306,76.0,240,240,5.0,0.0
8307,77.0,192,240,5.0,0.0
8308,78.0,288,180,5.0,0.0
8309,79.0,240,240,5.0,0.0
8310,80.0,240,240,5.0,0.0
8311,81.0,48,240,5.0,0.0
8312,77.0,48,180,5.0,0.0
8313,60.0,204,180,10.0,0.0
8314,76.0,36,150,5.0,0.0
8315,60.0,0,180,7.0,0.0
8316,67.0,0,180,7.0,0.0
8317,76.0,0,150,5.0,0.0
8318,60.0,168,180,10.0,0.0
8319,72.0,36,150,6.0,0.0
8320,74.0,0,120,6.0,0.0
8321,79.0,72,120,5.0,0.0
8322,60.0,0,180,10.0,0.0
8323,67.0,48,180,7.0,0.0
8324,77.0,0,120,5.0,0.0
8325,72.0,120,120,6.0,0.0
8326,76.0,72,120,5.0,0.0
8327,71.0,0,120,6.0,0.0
8328,67.0,0,180,7.0,0.0
8329,60.0,24,180,10.0,0.0
8330,77.0,0,90,5.0,0.0
8331,72.0,408,90,6.0,0.0
8332,76.0,0,390,6.0,0.0
8333,60.0,0,390,10.0,0.0
8334,79.0,1296,390,5.0,0.0
8335,67.0,0,390,7.0,0.0
8336,60.0,0,720,5.0,0.0
8337,48.0,0,780,2.0,0.0
8338,48.0,48,720,10.0,0.0
8339,60.0,72,780,2.0,0.0
8340,36.0,0,720,11.0,0.0
8341,48.0,0,720,1.0,0.0
8342,60.0,0,720,6.0,0.0
8343,72.0,0,720,0.0,0.0
8344,60.0,0,720,7.0,0.0
8345,36.0,0,720,12.0,0.0
8346,62.0,0,120,6.0,0.0
8347,50.0,0,120,1.0,0.0
8348,38.0,0,120,11.0,0.0
8349,62.0,0,120,7.0,0.0
8350,50.0,0,120,10.0,0.0
8351,38.0,96,120,12.0,0.0
8352,62.0,0,120,5.0,0.0
8353,74.0,0,120,0.0,0.0
8354,52.0,0,90,10.0,0.0
8355,64.0,0,90,5.0,0.0
8356,40.0,0,90,11.0,0.0
8357,76.0,0,90,0.0,0.0
8358,64.0,0,90,7.0,0.0
8359,64.0,192,90,6.0,0.0
8360,40.0,0,90,12.0,0.0
8361,52.0,0,90,1.0,0.0
8362,41.0,0,180,11.0,0.0
8363,41.0,0,180,12.0,0.0
8364,53.0,0,180,1.0,0.0
8365,65.0,0,180,6.0,0.0
8366,53.0,0,180,10.0,0.0
8367,65.0,240,180,7.0,0.0
8368,65.0,0,180,5.0,0.0
8369,77.0,0,180,0.0,0.0
8370,65.0,0,180,7.0,0.0
8371,41.0,0,180,12.0,0.0
8372,53.0,0,180,1.0,0.0
8373,53.0,0,180,10.0,0.0
8374,65.0,0,180,5.0,0.0
8375,77.0,0,180,0.0,0.0
8376,41.0,192,180,11.0,0.0
8377,65.0,0,180,6.0,0.0
8378,53.0,0,180,10.0,0.0
8379,53.0,0,180,1.0,0.0
8380,65.0,48,120,5.0,0.0
8381,65.0,0,180,7.0,0.0
8382,41.0,0,180,12.0,0.0
8383,41.0,0,180,11.0,0.0
8384,65.0,0,120,6.0,0.0
8385,77.0,72,180,0.0,0.0
8386,67.0,120,120,6.0,0.0
8387,67.0,0,120,5.0,0.0
8388,64.0,0,180,7.0,0.0
8389,52.0,0,180,1.0,0.0
8390,64.0,0,120,5.0,0.0
8391,64.0,48,120,6.0,0.0
8392,76.0,0,180,0.0,0.0
8393,52.0,48,180,10.0,0.0
8394,40.0,0,180,11.0,0.0
8395,40.0,0,180,12.0,0.0
8396,65.0,0,90,5.0,0.0
8397,65.0,192,90,6.0,0.0
8398,38.0,0,240,12.0,0.0
8399,62.0,0,240,6.0,0.0
8400,62.0,120,240,7.0,0.0
8401,62.0,72,180,2.0,0.0
8402,50.0,0,240,1.0,0.0
8403,74.0,0,240,0.0,0.0
8404,50.0,0,240,10.0,0.0
8405,62.0,0,240,5.0,0.0
8406,38.0,0,240,11.0,0.0
8407,64.0,0,120,5.0,0.0
8408,76.0,0,120,0.0,0.0
8409,64.0,0,120,6.0,0.0
8410,40.0,0,120,12.0,0.0
8411,40.0,0,120,11.0,0.0
8412,62.0,48,180,2.0,0.0
8413,52.0,0,120,1.0,0.0
8414,52.0,48,120,10.0,0.0
8415,64.0,0,120,7.0,0.0
8416,41.0,144,90,11.0,0.0
8417,77.0,0,90,0.0,0.0
8418,65.0,0,90,5.0,0.0
8419,65.0,0,90,7.0,0.0
8420,65.0,0,90,6.0,0.0
8421,41.0,0,90,12.0,0.0
8422,53.0,0,90,1.0,0.0
8423,53.0,0,90,10.0,0.0
8424,67.0,0,120,6.0,0.0
8425,67.0,24,180,7.0,0.0
8426,55.0,48,180,1.0,0.0
8427,43.0,0,180,12.0,0.0
8428,62.0,0,180,2.0,0.0
8429,55.0,0,180,2.0,0.0
8430,79.0,0,180,0.0,0.0
8431,43.0,0,180,11.0,0.0
8432,55.0,0,180,10.0,0.0
8433,67.0,48,120,5.0,0.0
8434,69.0,120,120,6.0,0.0
8435,69.0,0,120,5.0,0.0
8436,62.0,0,180,2.0,0.0
8437,65.0,0,180,7.0,0.0
8438,53.0,24,180,10.0,0.0
8439,53.0,24,180,1.0,0.0
8440,65.0,48,120,6.0,0.0
8441,77.0,0,180,0.0,0.0
8442,55.0,0,180,2.0,0.0
8443,65.0,0,120,5.0,0.0
8444,41.0,0,180,11.0,0.0
8445,41.0,0,180,12.0,0.0
8446,67.0,0,90,5.0,0.0
8447,67.0,408,90,6.0,0.0
8448,76.0,0,390,0.0,0.0
8449,40.0,0,390,11.0,0.0
8450,52.0,0,390,10.0,0.0
8451,64.0,0,390,5.0,0.0
8452,64.0,744,390,7.0,0.0
8453,52.0,0,390,1.0,0.0
8454,64.0,0,390,6.0,0.0
8455,40.0,0,390,12.0,0.0
8456,60.0,0,390,2.0,0.0
8457,64.0,0,390,2.0,0.0
8458,79.0,168,720,5.0,0.0
8459,64.0,240,180,7.0,0.0
8460,72.0,144,1200,6.0,0.0
8461,64.0,240,180,7.0,0.0
8462,64.0,72,180,7.0,0.0
8463,84.0,216,180,5.0,0.0
8464,64.0,24,180,7.0,0.0
8465,83.0,0,240,5.0,0.0
8466,65.0,72,180,7.0,0.0
8467,81.0,0,150,5.0,0.0
8468,65.0,216,180,7.0,0.0
8469,77.0,24,150,6.0,0.0
8470,76.0,0,150,6.0,0.0
8471,65.0,216,180,7.0,0.0
8472,79.0,24,150,5.0,0.0
8473,74.0,24,150,6.0,0.0
8474,65.0,240,180,7.0,0.0
8475,77.0,0,150,5.0,0.0
8476,74.0,144,240,6.0,0.0
8477,77.0,0,240,5.0,0.0
8478,67.0,72,180,7.0,0.0
8479,76.0,24,150,5.0,0.0
8480,67.0,240,180,7.0,0.0
8481,72.0,0,150,6.0,0.0
8482,76.0,0,240,5.0,0.0
8483,72.0,144,240,6.0,0.0
8484,67.0,72,180,7.0,0.0
8485,74.0,0,150,5.0,0.0
8486,71.0,24,150,6.0,0.0
8487,67.0,456,180,7.0,0.0
8488,60.0,96,390,7.0,0.0
8489,75.0,0,480,5.0,0.0
8490,71.0,192,480,6.0,0.0
8491,76.0,1008,180,5.0,0.0
8492,72.0,0,180,6.0,0.0
8493,72.0,0,720,0.0,0.0
8494,48.0,0,720,1.0,0.0
8495,48.0,0,720,10.0,0.0
8496,60.0,0,720,6.0,0.0
8497,36.0,0,720,12.0,0.0
8498,60.0,48,720,7.0,0.0
8499,60.0,0,780,2.0,0.0
8500,48.0,72,780,2.0,0.0
8501,36.0,0,720,11.0,0.0
8502,60.0,0,720,5.0,0.0
8503,50.0,0,120,1.0,0.0
8504,74.0,0,120,0.0,0.0
8505,38.0,0,120,12.0,0.0
8506,50.0,0,120,10.0,0.0
8507,62.0,0,120,5.0,0.0
8508,38.0,96,120,11.0,0.0
8509,62.0,0,120,6.0,0.0
8510,62.0,0,120,7.0,0.0
8511,40.0,0,90,12.0,0.0
8512,76.0,0,90,0.0,0.0
8513,52.0,0,90,1.0,0.0
8514,52.0,0,90,10.0,0.0
8515,64.0,0,90,6.0,0.0
8516,40.0,0,90,11.0,0.0
8517,64.0,0,90,7.0,0.0
8518,64.0,192,90,5.0,0.0
8519,53.0,0,180,10.0,0.0
8520,53.0,0,180,1.0,0.0
8521,65.0,0,180,6.0,0.0
8522,41.0,0,180,12.0,0.0
8523,77.0,0,180,0.0,0.0
8524,65.0,0,180,5.0,0.0
8525,41.0,0,180,11.0,0.0
8526,65.0,240,180,7.0,0.0
8527,65.0,0,180,6.0,0.0
8528,53.0,0,180,10.0,0.0
8529,41.0,0,180,11.0,0.0
8530,65.0,0,180,5.0,0.0
8531,65.0,0,180,7.0,0.0
8532,77.0,192,180,0.0,0.0
8533,41.0,0,180,12.0,0.0
8534,53.0,0,180,1.0,0.0
8535,77.0,72,180,0.0,0.0
8536,41.0,0,180,11.0,0.0
8537,65.0,48,120,6.0,0.0
8538,41.0,0,180,12.0,0.0
8539,53.0,0,180,10.0,0.0
8540,65.0,0,120,5.0,0.0
8541,53.0,0,180,1.0,0.0
8542,65.0,0,120,7.0,0.0
8543,67.0,0,120,6.0,0.0
8544,67.0,120,120,5.0,0.0
8545,67.0,0,120,7.0,0.0
8546,76.0,0,180,0.0,0.0
8547,64.0,0,120,7.0,0.0
8548,64.0,48,120,6.0,0.0
8549,40.0,0,180,11.0,0.0
8550,52.0,0,180,1.0,0.0
8551,64.0,0,120,5.0,0.0
8552,40.0,0,180,12.0,0.0
8553,52.0,48,180,10.0,0.0
8554,65.0,0,90,6.0,0.0
8555,65.0,192,90,5.0,0.0
8556,65.0,0,90,7.0,0.0
8557,62.0,72,180,2.0,0.0
8558,62.0,0,240,5.0,0.0
8559,38.0,0,240,12.0,0.0
8560,38.0,0,240,11.0,0.0
8561,74.0,120,240,0.0,0.0
8562,50.0,0,240,10.0,0.0
8563,50.0,0,240,1.0,0.0
8564,62.0,0,240,6.0,0.0
8565,62.0,0,240,7.0,0.0
8566,64.0,0,120,7.0,0.0
8567,40.0,0,120,12.0,0.0
8568,40.0,0,120,11.0,0.0
8569,52.0,48,120,1.0,0.0
8570,52.0,0,120,10.0,0.0
8571,64.0,0,120,6.0,0.0
8572,62.0,48,180,2.0,0.0
8573,64.0,0,120,5.0,0.0
8574,76.0,0,120,0.0,0.0
8575,41.0,0,90,11.0,0.0
8576,41.0,0,90,12.0,0.0
8577,65.0,0,90,5.0,0.0
8578,65.0,0,90,7.0,0.0
8579,53.0,0,90,1.0,0.0
8580,65.0,144,90,6.0,0.0
8581,53.0,0,90,10.0,0.0
8582,77.0,0,90,0.0,0.0
8583,67.0,48,120,6.0,0.0
8584,62.0,24,180,2.0,0.0
8585,55.0,0,180,2.0,0.0
8586,43.0,0,180,11.0,0.0
8587,43.0,0,180,12.0,0.0
8588,79.0,0,180,0.0,0.0
8589,67.0,0,120,7.0,0.0
8590,55.0,0,180,10.0,0.0
8591,55.0,48,180,1.0,0.0
8592,67.0,0,120,5.0,0.0
8593,69.0,120,120,5.0,0.0
8594,69.0,0,120,6.0,0.0
8595,69.0,0,120,7.0,0.0
8596,53.0,24,180,1.0,0.0
8597,77.0,0,180,0.0,0.0
8598,65.0,0,120,7.0,0.0
8599,62.0,24,180,2.0,0.0
8600,41.0,0,180,12.0,0.0
8601,65.0,0,120,6.0,0.0
8602,53.0,0,180,10.0,0.0
8603,65.0,48,120,5.0,0.0
8604,55.0,0,180,2.0,0.0
8605,41.0,0,180,11.0,0.0
8606,67.0,408,90,7.0,0.0
8607,67.0,0,90,6.0,0.0
8608,67.0,0,90,5.0,0.0
8609,64.0,0,390,2.0,0.0
8610,60.0,0,390,2.0,0.0
8611,52.0,0,390,10.0,0.0
8612,64.0,792,390,7.0,0.0
8613,40.0,0,390,11.0,0.0
8614,64.0,0,390,6.0,0.0
8615,52.0,0,390,1.0,0.0
8616,40.0,0,390,12.0,0.0
8617,64.0,0,390,5.0,0.0
8618,76.0,0,390,0.0,0.0
8619,72.0,0,210,6.0,0.0
8620,64.0,240,210,7.0,0.0
8621,79.0,192,720,5.0,0.0
8622,72.0,0,210,6.0,0.0
8623,64.0,240,210,7.0,0.0
8624,72.0,24,210,6.0,0.0
8625,64.0,0,210,7.0,0.0
8626,84.0,24,180,5.0,0.0
8627,64.0,0,210,7.0,0.0
8628,72.0,240,210,6.0,0.0
8629,65.0,240,210,7.0,0.0
8630,84.0,192,720,5.0,0.0
8631,72.0,0,210,6.0,0.0
8632,65.0,240,210,7.0,0.0
8633,72.0,0,210,6.0,0.0
8634,72.0,0,210,6.0,0.0
8635,65.0,24,210,7.0,0.0
8636,72.0,0,210,6.0,0.0
8637,81.0,24,180,5.0,0.0
8638,65.0,240,210,7.0,0.0
8639,72.0,24,210,6.0,0.0
8640,65.0,0,210,7.0,0.0
8641,81.0,216,240,5.0,0.0
8642,72.0,216,240,5.0,0.0
8643,65.0,24,210,7.0,0.0
8644,72.0,0,210,6.0,0.0
8645,65.0,0,210,7.0,0.0
8646,81.0,192,240,5.0,0.0
8647,72.0,24,210,6.0,0.0
8648,65.0,0,210,7.0,0.0
8649,84.0,24,180,5.0,0.0
8650,72.0,240,210,6.0,0.0
8651,84.0,192,720,5.0,0.0
8652,64.0,240,210,7.0,0.0
8653,72.0,0,210,6.0,0.0
8654,64.0,240,210,7.0,0.0
8655,72.0,0,210,6.0,0.0
8656,64.0,24,210,7.0,0.0
8657,72.0,0,210,6.0,0.0
8658,72.0,0,210,6.0,0.0
8659,79.0,24,180,5.0,0.0
8660,64.0,216,210,7.0,0.0
8661,72.0,0,180,6.0,0.0
8662,79.0,192,240,5.0,0.0
8663,64.0,48,180,7.0,0.0
8664,72.0,0,180,6.0,0.0
8665,64.0,48,180,7.0,0.0
8666,72.0,192,240,5.0,0.0
8667,64.0,48,180,7.0,0.0
8668,72.0,0,180,6.0,0.0
8669,79.0,192,240,5.0,0.0
8670,84.0,0,180,5.0,0.0
8671,64.0,108,180,7.0,0.0
8672,72.0,0,180,6.0,0.0
8673,72.0,48,180,6.0,0.0
8674,65.0,0,180,7.0,0.0
8675,81.0,60,60,5.0,0.0
8676,83.0,72,60,5.0,0.0
8677,84.0,300,120,5.0,0.0
8678,69.0,0,180,6.0,0.0
8679,74.0,60,60,5.0,0.0
8680,53.0,48,180,7.0,0.0
8681,76.0,72,60,5.0,0.0
8682,77.0,300,120,5.0,0.0
8683,55.0,48,180,7.0,0.0
8684,76.0,0,60,5.0,0.0
8685,60.0,60,60,6.0,0.0
8686,77.0,72,60,5.0,0.0
8687,62.0,0,60,6.0,0.0
8688,79.0,0,120,5.0,0.0
8689,64.0,300,120,6.0,0.0
8690,71.0,60,60,5.0,0.0
8691,62.0,0,60,6.0,0.0
8692,55.0,48,180,7.0,0.0
8693,64.0,0,60,6.0,0.0
8694,72.0,72,60,5.0,0.0
8695,65.0,432,120,6.0,0.0
8696,74.0,0,120,5.0,0.0
8697,72.0,0,780,6.0,0.0
8698,60.0,0,780,3.0,0.0
8699,60.0,0,780,2.0,0.0
8700,60.0,0,180,10.0,0.0
8701,60.0,0,180,1.0,0.0
8702,48.0,0,780,2.0,0.0
8703,60.0,0,780,7.0,0.0
8704,48.0,192,180,12.0,0.0
8705,72.0,0,780,5.0,0.0
8706,72.0,0,780,3.0,0.0
8707,48.0,48,390,4.0,0.0
8708,48.0,0,180,11.0,0.0
8709,64.0,0,780,6.0,0.0
8710,72.0,144,780,0.0,0.0
8711,48.0,0,180,12.0,0.0
8712,60.0,0,180,1.0,0.0
8713,48.0,240,180,11.0,0.0
8714,60.0,0,180,10.0,0.0
8715,60.0,0,180,10.0,0.0
8716,60.0,0,180,1.0,0.0
8717,48.0,96,180,12.0,0.0
8718,48.0,0,180,11.0,0.0
8719,60.0,0,180,10.0,0.0
8720,48.0,240,180,11.0,0.0
8721,48.0,0,180,12.0,0.0
8722,60.0,0,180,1.0,0.0
8723,76.0,0,570,0.0,0.0
8724,64.0,0,180,10.0,0.0
8725,76.0,0,570,5.0,0.0
8726,52.0,192,180,11.0,0.0
8727,64.0,96,570,7.0,0.0
8728,64.0,0,180,1.0,0.0
8729,52.0,0,570,2.0,0.0
8730,52.0,0,180,12.0,0.0
8731,64.0,0,570,2.0,0.0
8732,48.0,48,390,4.0,0.0
8733,76.0,0,570,6.0,0.0
8734,64.0,0,570,3.0,0.0
8735,76.0,0,570,3.0,0.0
8736,64.0,0,180,10.0,0.0
8737,64.0,0,180,1.0,0.0
8738,52.0,0,180,12.0,0.0
8739,52.0,144,180,11.0,0.0
8740,64.0,216,180,10.0,0.0
8741,64.0,0,180,1.0,0.0
8742,52.0,0,180,12.0,0.0
8743,52.0,0,180,11.0,0.0
8744,43.0,0,180,12.0,0.0
8745,55.0,0,180,1.0,0.0
8746,55.0,0,180,2.0,0.0
8747,67.0,24,180,6.0,0.0
8748,67.0,0,180,5.0,0.0
8749,55.0,0,180,7.0,0.0
8750,67.0,0,180,0.0,0.0
8751,67.0,0,180,3.0,0.0
8752,43.0,240,180,11.0,0.0
8753,55.0,0,180,10.0,0.0
8754,60.0,0,570,7.0,0.0
8755,72.0,0,570,5.0,0.0
8756,60.0,0,180,1.0,0.0
8757,60.0,192,180,10.0,0.0
8758,60.0,96,570,2.0,0.0
8759,72.0,0,570,6.0,0.0
8760,72.0,0,570,3.0,0.0
8761,48.0,48,390,4.0,0.0
8762,48.0,0,180,12.0,0.0
8763,48.0,0,180,11.0,0.0
8764,72.0,0,570,0.0,0.0
8765,60.0,144,180,1.0,0.0
8766,48.0,0,180,12.0,0.0
8767,48.0,0,180,11.0,0.0
8768,60.0,0,180,10.0,0.0
8769,48.0,0,180,11.0,0.0
8770,60.0,0,180,1.0,0.0
8771,48.0,0,180,12.0,0.0
8772,60.0,216,180,10.0,0.0
8773,64.0,0,180,5.0,0.0
8774,64.0,0,180,3.0,0.0
8775,40.0,0,180,12.0,0.0
8776,64.0,24,180,6.0,0.0
8777,40.0,216,180,11.0,0.0
8778,52.0,0,180,7.0,0.0
8779,52.0,0,180,10.0,0.0
8780,64.0,0,180,2.0,0.0
8781,64.0,0,180,0.0,0.0
8782,52.0,0,180,1.0,0.0
8783,52.0,0,180,2.0,0.0
8784,67.0,0,180,5.0,0.0
8785,67.0,0,180,3.0,0.0
8786,55.0,24,180,7.0,0.0
8787,43.0,24,390,4.0,0.0
8788,67.0,0,180,6.0,0.0
8789,43.0,0,180,12.0,0.0
8790,55.0,192,180,10.0,0.0
8791,67.0,0,180,0.0,0.0
8792,55.0,0,180,2.0,0.0
8793,55.0,0,180,1.0,0.0
8794,43.0,0,180,11.0,0.0
8795,67.0,0,180,2.0,0.0
8796,60.0,0,180,0.0,0.0
8797,60.0,0,180,2.0,0.0
8798,60.0,0,180,6.0,0.0
8799,48.0,24,180,2.0,0.0
8800,48.0,0,180,1.0,0.0
8801,48.0,0,180,10.0,0.0
8802,60.0,0,180,3.0,0.0
8803,36.0,0,180,11.0,0.0
8804,48.0,0,180,7.0,0.0
8805,36.0,216,180,12.0,0.0
8806,60.0,0,180,5.0,0.0
8807,43.0,24,390,4.0,0.0
8808,52.0,192,180,10.0,0.0
8809,64.0,0,180,0.0,0.0
8810,40.0,0,180,11.0,0.0
8811,64.0,0,180,3.0,0.0
8812,52.0,0,180,7.0,0.0
8813,64.0,0,180,5.0,0.0
8814,52.0,0,180,1.0,0.0
8815,40.0,0,180,12.0,0.0
8816,64.0,0,180,2.0,0.0
8817,64.0,0,180,6.0,0.0
8818,52.0,24,180,2.0,0.0
8819,67.0,0,180,0.0,0.0
8820,55.0,0,180,6.0,0.0
8821,31.0,0,180,11.0,0.0
8822,55.0,0,180,3.0,0.0
8823,67.0,24,180,3.0,0.0
8824,55.0,0,180,2.0,0.0
8825,43.0,0,180,10.0,0.0
8826,55.0,0,180,7.0,0.0
8827,31.0,144,180,12.0,0.0
8828,55.0,0,180,5.0,0.0
8829,43.0,0,180,2.0,0.0
8830,43.0,0,180,1.0,0.0
8831,72.0,48,420,0.0,0.0
8832,36.0,0,390,11.0,0.0
8833,48.0,0,390,2.0,0.0
8834,60.0,0,390,7.0,0.0
8835,60.0,0,90,6.0,0.0
8836,60.0,0,390,2.0,0.0
8837,60.0,0,390,3.0,0.0
8838,48.0,0,390,4.0,0.0
8839,36.0,0,390,12.0,0.0
8840,48.0,24,390,10.0,0.0
8841,60.0,120,90,5.0,0.0
8842,48.0,0,390,1.0,0.0
8843,64.0,0,390,3.0,0.0
8844,60.0,120,90,5.0,0.0
8845,60.0,0,90,6.0,0.0
8846,55.0,0,90,5.0,0.0
8847,67.0,0,180,0.0,0.0
8848,55.0,48,90,6.0,0.0
8849,55.0,120,90,6.0,0.0
8850,55.0,0,90,5.0,0.0
8851,57.0,0,90,5.0,0.0
8852,69.0,48,180,0.0,0.0
8853,57.0,72,90,6.0,0.0
8854,57.0,120,90,6.0,0.0
8855,57.0,0,90,5.0,0.0
8856,59.0,0,90,6.0,0.0
8857,59.0,72,90,5.0,0.0
8858,71.0,48,180,0.0,0.0
8859,59.0,120,90,5.0,0.0
8860,59.0,0,90,6.0,0.0
8861,64.0,0,390,3.0,0.0
8862,48.0,0,390,12.0,0.0
8863,60.0,72,390,1.0,0.0
8864,52.0,0,390,2.0,0.0
8865,60.0,120,90,6.0,0.0
8866,60.0,0,390,10.0,0.0
8867,52.0,0,390,7.0,0.0
8868,60.0,0,390,2.0,0.0
8869,48.0,0,390,4.0,0.0
8870,48.0,0,390,11.0,0.0
8871,60.0,0,90,5.0,0.0
8872,72.0,0,390,0.0,0.0
8873,72.0,0,390,3.0,0.0
8874,60.0,120,90,6.0,0.0
8875,60.0,0,90,5.0,0.0
8876,55.0,0,90,5.0,0.0
8877,55.0,48,90,6.0,0.0
8878,55.0,0,90,5.0,0.0
8879,55.0,120,90,6.0,0.0
8880,55.0,72,390,2.0,0.0
8881,62.0,0,390,2.0,0.0
8882,74.0,0,390,3.0,0.0
8883,62.0,0,90,5.0,0.0
8884,43.0,0,390,12.0,0.0
8885,43.0,0,390,4.0,0.0
8886,59.0,120,90,6.0,0.0
8887,55.0,0,390,10.0,0.0
8888,74.0,0,390,0.0,0.0
8889,43.0,0,390,11.0,0.0
8890,55.0,0,390,7.0,0.0
8891,55.0,0,390,1.0,0.0
8892,67.0,0,390,3.0,0.0
8893,59.0,120,90,6.0,0.0
8894,62.0,0,90,5.0,0.0
8895,55.0,0,90,5.0,0.0
8896,55.0,48,90,6.0,0.0
8897,55.0,0,90,5.0,0.0
8898,55.0,120,90,6.0,0.0
8899,48.0,0,390,4.0,0.0
8900,76.0,0,390,3.0,0.0
8901,72.0,48,390,3.0,0.0
8902,60.0,0,390,2.0,0.0
8903,64.0,0,90,5.0,0.0
8904,64.0,0,390,2.0,0.0
8905,36.0,0,390,11.0,0.0
8906,36.0,0,390,12.0,0.0
8907,60.0,96,90,6.0,0.0
8908,48.0,0,390,1.0,0.0
8909,48.0,0,390,10.0,0.0
8910,55.0,0,390,7.0,0.0
8911,72.0,0,180,0.0,0.0
8912,76.0,24,180,0.0,0.0
8913,60.0,0,90,6.0,0.0
8914,64.0,120,90,5.0,0.0
8915,67.0,24,180,0.0,0.0
8916,71.0,0,180,0.0,0.0
8917,55.0,48,90,6.0,0.0
8918,59.0,0,90,5.0,0.0
8919,55.0,120,90,6.0,0.0
8920,59.0,0,90,5.0,0.0
8921,60.0,0,90,5.0,0.0
8922,57.0,96,90,6.0,0.0
8923,69.0,24,180,0.0,0.0
8924,72.0,0,180,0.0,0.0
8925,60.0,0,90,5.0,0.0
8926,57.0,120,90,6.0,0.0
8927,59.0,0,90,6.0,0.0
8928,62.0,96,90,5.0,0.0
8929,71.0,24,180,0.0,0.0
8930,74.0,0,180,0.0,0.0
8931,59.0,120,90,6.0,0.0
8932,62.0,0,90,5.0,0.0
8933,48.0,0,390,10.0,0.0
8934,36.0,0,390,12.0,0.0
8935,48.0,0,390,2.0,0.0
8936,60.0,0,390,2.0,0.0
8937,60.0,0,90,6.0,0.0
8938,76.0,0,390,0.0,0.0
8939,72.0,0,390,0.0,0.0
8940,72.0,72,390,3.0,0.0
8941,36.0,0,390,11.0,0.0
8942,60.0,0,390,3.0,0.0
8943,48.0,0,390,4.0,0.0
8944,55.0,0,390,7.0,0.0
8945,48.0,0,390,1.0,0.0
8946,64.0,120,90,5.0,0.0
8947,64.0,120,90,5.0,0.0
8948,60.0,0,90,6.0,0.0
8949,60.0,48,90,5.0,0.0
8950,55.0,0,90,6.0,0.0
8951,55.0,0,90,6.0,0.0
8952,60.0,120,90,5.0,0.0
8953,48.0,72,390,4.0,0.0
8954,72.0,0,390,3.0,0.0
8955,60.0,0,390,2.0,0.0
8956,48.0,0,390,2.0,0.0
8957,74.0,0,390,0.0,0.0
8958,77.0,0,390,0.0,0.0
8959,60.0,0,390,10.0,0.0
8960,60.0,0,390,3.0,0.0
8961,48.0,0,390,11.0,0.0
8962,62.0,0,90,6.0,0.0
8963,48.0,0,390,12.0,0.0
8964,55.0,0,390,7.0,0.0
8965,60.0,0,390,1.0,0.0
8966,65.0,120,90,5.0,0.0
8967,65.0,0,90,5.0,0.0
8968,62.0,120,90,6.0,0.0
8969,62.0,48,90,5.0,0.0
8970,55.0,0,90,6.0,0.0
8971,62.0,120,90,5.0,0.0
8972,55.0,0,90,6.0,0.0
8973,48.0,0,390,10.0,0.0
8974,60.0,0,1740,2.0,0.0
8975,48.0,0,390,1.0,0.0
8976,79.0,144,1740,0.0,0.0
8977,76.0,0,1740,0.0,0.0
8978,55.0,0,390,7.0,0.0
8979,64.0,0,90,6.0,0.0
8980,36.0,0,390,11.0,0.0
8981,48.0,0,1740,2.0,0.0
8982,60.0,0,390,3.0,0.0
8983,36.0,72,390,12.0,0.0
8984,72.0,0,390,3.0,0.0
8985,67.0,120,90,5.0,0.0
8986,48.0,0,390,4.0,0.0
8987,60.0,0,90,6.0,0.0
8988,60.0,120,90,5.0,0.0
8989,62.0,48,90,6.0,0.0
8990,62.0,0,90,5.0,0.0
8991,64.0,0,90,6.0,0.0
8992,64.0,120,90,5.0,0.0
8993,65.0,0,90,6.0,0.0
8994,65.0,120,90,5.0,0.0
8995,67.0,0,90,5.0,0.0
8996,67.0,120,90,6.0,0.0
8997,69.0,0,90,5.0,0.0
8998,69.0,120,90,6.0,0.0
8999,71.0,0,90,5.0,0.0
9000,71.0,120,90,6.0,0.0
9001,72.0,120,90,5.0,0.0
9002,72.0,0,90,6.0,0.0
9003,74.0,0,90,6.0,0.0
9004,74.0,120,90,5.0,0.0
9005,76.0,120,90,6.0,0.0
9006,76.0,0,90,5.0,0.0
9007,77.0,0,90,6.0,0.0
9008,77.0,216,90,5.0,0.0
9009,79.0,0,180,6.0,0.0
9010,79.0,96,180,5.0,0.0
9011,72.0,0,180,5.0,0.0
9012,72.0,312,180,6.0,0.0
9013,81.0,0,270,5.0,0.0
9014,72.0,0,270,6.0,0.0
9015,60.0,0,270,2.0,0.0
9016,81.0,0,270,6.0,0.0
9017,48.0,0,270,4.0,0.0
9018,60.0,0,270,3.0,0.0
9019,72.0,0,270,5.0,0.0
9020,65.0,0,270,7.0,0.0
9021,65.0,0,270,5.0,0.0
9022,41.0,0,270,12.0,0.0
9023,41.0,0,270,11.0,0.0
9024,48.0,0,270,2.0,0.0
9025,77.0,0,270,0.0,0.0
9026,65.0,0,270,6.0,0.0
9027,72.0,480,270,3.0,0.0
9028,53.0,0,270,10.0,0.0
9029,53.0,0,270,1.0,0.0
9030,81.0,0,270,0.0,0.0
9031,79.0,0,270,6.0,0.0
9032,72.0,0,270,5.0,0.0
9033,60.0,0,270,7.0,0.0
9034,60.0,0,270,2.0,0.0
9035,48.0,0,270,2.0,0.0
9036,64.0,0,270,5.0,0.0
9037,79.0,0,270,5.0,0.0
9038,48.0,0,270,1.0,0.0
9039,72.0,0,270,6.0,0.0
9040,60.0,0,270,3.0,0.0
9041,79.0,0,270,0.0,0.0
9042,76.0,0,270,0.0,0.0
9043,72.0,0,270,3.0,0.0
9044,36.0,0,270,11.0,0.0
9045,64.0,0,270,6.0,0.0
9046,36.0,0,270,12.0,0.0
9047,48.0,0,270,10.0,0.0
9048,48.0,816,270,4.0,0.0
9049,81.0,120,120,5.0,0.0
9050,79.0,120,120,5.0,0.0
9051,77.0,96,120,5.0,0.0
9052,76.0,204,90,5.0,0.0
9053,72.0,0,180,6.0,0.0
9054,66.0,60,180,7.0,0.0
9055,76.0,180,240,5.0,0.0
9056,72.0,0,180,6.0,0.0
9057,66.0,12,180,7.0,0.0
9058,74.0,228,180,5.0,0.0
9059,74.0,36,870,5.0,0.0
9060,72.0,240,180,6.0,0.0
9061,66.0,0,180,7.0,0.0
9062,66.0,240,180,7.0,0.0
9063,72.0,0,180,6.0,0.0
9064,66.0,204,180,7.0,0.0
9065,72.0,0,180,6.0,0.0
9066,66.0,0,180,7.0,0.0
9067,72.0,240,180,6.0,0.0
9068,72.0,240,180,6.0,0.0
9069,76.0,180,720,5.0,0.0
9070,67.0,0,180,7.0,0.0
9071,67.0,0,180,7.0,0.0
9072,72.0,240,180,6.0,0.0
9073,72.0,60,180,6.0,0.0
9074,69.0,0,180,7.0,0.0
9075,77.0,228,180,5.0,0.0
9076,72.0,0,180,6.0,0.0
9077,69.0,12,180,7.0,0.0
9078,72.0,0,180,6.0,0.0
9079,69.0,240,180,7.0,0.0
9080,77.0,36,870,5.0,0.0
9081,69.0,240,180,7.0,0.0
9082,72.0,0,180,6.0,0.0
9083,69.0,204,180,7.0,0.0
9084,72.0,0,180,6.0,0.0
9085,72.0,0,180,6.0,0.0
9086,69.0,240,180,7.0,0.0
9087,79.0,180,720,5.0,0.0
9088,72.0,0,180,6.0,0.0
9089,64.0,240,180,7.0,0.0
9090,72.0,0,180,6.0,0.0
9091,64.0,240,180,7.0,0.0
9092,65.0,0,180,7.0,0.0
9093,72.0,60,180,6.0,0.0
9094,80.0,228,180,5.0,0.0
9095,65.0,12,180,7.0,0.0
9096,72.0,0,180,6.0,0.0
9097,80.0,36,870,5.0,0.0
9098,72.0,0,180,6.0,0.0
9099,65.0,240,180,7.0,0.0
9100,65.0,0,180,7.0,0.0
9101,72.0,240,180,6.0,0.0
9102,65.0,204,180,7.0,0.0
9103,72.0,0,180,6.0,0.0
9104,72.0,0,180,6.0,0.0
9105,65.0,240,180,7.0,0.0
9106,79.0,180,720,5.0,0.0
9107,63.0,0,180,7.0,0.0
9108,72.0,240,180,6.0,0.0
9109,63.0,0,180,7.0,0.0
9110,72.0,240,180,6.0,0.0
9111,62.0,0,180,7.0,0.0
9112,72.0,60,180,6.0,0.0
9113,62.0,0,180,7.0,0.0
9114,78.0,228,180,5.0,0.0
9115,72.0,12,180,6.0,0.0
9116,72.0,240,180,6.0,0.0
9117,78.0,36,870,5.0,0.0
9118,62.0,0,180,7.0,0.0
9119,62.0,240,180,7.0,0.0
9120,72.0,0,180,6.0,0.0
9121,72.0,204,180,6.0,0.0
9122,62.0,0,180,7.0,0.0
9123,72.0,240,180,6.0,0.0
9124,62.0,0,180,7.0,0.0
9125,77.0,192,720,5.0,0.0
9126,71.0,0,180,6.0,0.0
9127,55.0,240,180,7.0,0.0
9128,55.0,0,180,7.0,0.0
9129,71.0,300,180,6.0,0.0
9130,60.0,96,780,7.0,0.0
9131,72.0,240,480,6.0,0.0
9132,76.0,48,180,5.0,0.0
9133,67.0,48,390,6.0,0.0
9134,76.0,48,240,5.0,0.0
9135,75.0,288,180,5.0,0.0
9136,75.0,192,240,5.0,0.0
9137,69.0,144,780,6.0,0.0
9138,54.0,0,780,7.0,0.0
9139,74.0,288,180,5.0,0.0
9140,74.0,48,240,5.0,0.0
9141,72.0,144,180,5.0,0.0
9142,67.0,120,90,6.0,0.0
9143,71.0,72,390,5.0,0.0
9144,55.0,0,90,6.0,0.0
9145,67.0,0,90,7.0,0.0
9146,55.0,0,90,7.0,0.0
9147,55.0,120,90,6.0,0.0
9148,55.0,0,90,7.0,0.0
9149,67.0,0,90,7.0,0.0
9150,67.0,0,90,6.0,0.0
9151,67.0,0,90,6.0,0.0
9152,55.0,0,90,6.0,0.0
9153,55.0,48,90,7.0,0.0
9154,67.0,0,90,7.0,0.0
9155,67.0,0,90,7.0,0.0
9156,55.0,0,90,7.0,0.0
9157,67.0,0,90,6.0,0.0
9158,55.0,120,90,6.0,0.0
9159,67.0,0,90,7.0,0.0
9160,67.0,120,90,6.0,0.0
9161,55.0,0,90,6.0,0.0
9162,55.0,0,90,7.0,0.0
9163,55.0,0,90,7.0,0.0
9164,67.0,0,90,7.0,0.0
9165,55.0,120,90,6.0,0.0
9166,67.0,0,90,6.0,0.0
9167,55.0,0,90,6.0,0.0
9168,67.0,0,90,7.0,0.0
9169,67.0,120,90,6.0,0.0
9170,55.0,0,90,7.0,0.0
9171,55.0,0,90,6.0,0.0
9172,55.0,120,90,7.0,0.0
9173,67.0,0,90,7.0,0.0
9174,67.0,0,90,6.0,0.0
9175,67.0,0,90,7.0,0.0
9176,55.0,60,90,7.0,0.0
9177,43.0,12,150,10.0,0.0
9178,31.0,24,180,12.0,0.0
9179,43.0,12,390,4.0,0.0
9180,43.0,0,180,1.0,0.0
9181,55.0,0,90,6.0,0.0
9182,71.0,0,180,0.0,0.0
9183,55.0,0,180,2.0,0.0
9184,62.0,0,180,2.0,0.0
9185,67.0,24,180,3.0,0.0
9186,67.0,0,90,6.0,0.0
9187,31.0,0,180,11.0,0.0
9188,71.0,0,330,5.0,0.0
9189,65.0,0,180,0.0,0.0
9190,55.0,0,330,5.0,0.0
9191,62.0,0,330,5.0,0.0
9192,55.0,0,90,6.0,0.0
9193,67.0,0,90,6.0,0.0
9194,67.0,120,90,7.0,0.0
9195,55.0,0,90,7.0,0.0
9196,43.0,24,180,11.0,0.0
9197,62.0,0,180,2.0,0.0
9198,55.0,0,180,2.0,0.0
9199,55.0,12,150,10.0,0.0
9200,67.0,24,180,3.0,0.0
9201,67.0,0,90,7.0,0.0
9202,55.0,48,90,7.0,0.0
9203,55.0,0,180,1.0,0.0
9204,67.0,0,90,6.0,0.0
9205,55.0,0,90,6.0,0.0
9206,43.0,0,180,12.0,0.0
9207,71.0,0,180,0.0,0.0
9208,65.0,0,180,0.0,0.0
9209,55.0,0,90,7.0,0.0
9210,67.0,0,90,7.0,0.0
9211,55.0,0,90,6.0,0.0
9212,67.0,120,90,6.0,0.0
9213,67.0,0,180,3.0,0.0
9214,67.0,0,90,7.0,0.0
9215,43.0,12,390,4.0,0.0
9216,62.0,0,180,2.0,0.0
9217,55.0,0,180,2.0,0.0
9218,67.0,0,90,6.0,0.0
9219,31.0,24,180,12.0,0.0
9220,55.0,0,330,5.0,0.0
9221,71.0,0,330,5.0,0.0
9222,62.0,0,330,5.0,0.0
9223,43.0,0,180,1.0,0.0
9224,55.0,0,90,6.0,0.0
9225,31.0,0,180,11.0,0.0
9226,43.0,12,150,10.0,0.0
9227,65.0,0,180,0.0,0.0
9228,55.0,60,90,7.0,0.0
9229,71.0,24,180,0.0,0.0
9230,55.0,0,90,6.0,0.0
9231,67.0,0,90,7.0,0.0
9232,55.0,120,90,7.0,0.0
9233,67.0,0,90,6.0,0.0
9234,67.0,0,90,6.0,0.0
9235,71.0,0,180,0.0,0.0
9236,43.0,0,180,12.0,0.0
9237,67.0,0,180,3.0,0.0
9238,55.0,0,180,1.0,0.0
9239,55.0,12,150,10.0,0.0
9240,55.0,0,90,6.0,0.0
9241,65.0,24,180,0.0,0.0
9242,43.0,24,180,11.0,0.0
9243,62.0,0,180,2.0,0.0
9244,55.0,48,90,7.0,0.0
9245,55.0,0,180,2.0,0.0
9246,67.0,0,90,7.0,0.0
9247,67.0,0,90,7.0,0.0
9248,67.0,0,90,6.0,0.0
9249,55.0,0,90,6.0,0.0
9250,55.0,120,90,7.0,0.0
9251,67.0,0,90,7.0,0.0
9252,64.0,0,390,2.0,0.0
9253,60.0,0,390,2.0,0.0
9254,31.0,0,390,12.0,0.0
9255,67.0,0,90,6.0,0.0
9256,31.0,0,390,11.0,0.0
9257,64.0,0,390,0.0,0.0
9258,43.0,0,390,10.0,0.0
9259,72.0,0,390,0.0,0.0
9260,55.0,120,90,6.0,0.0
9261,55.0,0,90,7.0,0.0
9262,43.0,0,390,1.0,0.0
9263,67.0,0,390,3.0,0.0
9264,43.0,72,390,4.0,0.0
9265,55.0,0,390,5.0,0.0
9266,64.0,0,390,5.0,0.0
9267,72.0,0,390,5.0,0.0
9268,67.0,0,90,7.0,0.0
9269,55.0,0,90,7.0,0.0
9270,67.0,120,90,6.0,0.0
9271,55.0,0,90,6.0,0.0
9272,67.0,0,90,6.0,0.0
9273,55.0,48,90,6.0,0.0
9274,67.0,0,90,7.0,0.0
9275,55.0,0,90,7.0,0.0
9276,67.0,0,90,6.0,0.0
9277,55.0,0,90,6.0,0.0
9278,67.0,120,90,7.0,0.0
9279,55.0,0,90,7.0,0.0
9280,55.0,0,90,7.0,0.0
9281,67.0,0,90,7.0,0.0
9282,55.0,0,90,6.0,0.0
9283,67.0,120,90,6.0,0.0
9284,55.0,0,90,7.0,0.0
9285,67.0,0,90,7.0,0.0
9286,67.0,0,90,6.0,0.0
9287,55.0,120,90,6.0,0.0
9288,67.0,0,90,7.0,0.0
9289,55.0,120,90,7.0,0.0
9290,55.0,0,90,6.0,0.0
9291,67.0,0,90,6.0,0.0
9292,67.0,120,90,6.0,0.0
9293,67.0,0,90,7.0,0.0
9294,55.0,0,90,7.0,0.0
9295,55.0,0,90,6.0,0.0
9296,31.0,24,180,11.0,0.0
9297,67.0,0,90,7.0,0.0
9298,55.0,0,90,7.0,0.0
9299,31.0,0,180,12.0,0.0
9300,43.0,12,390,4.0,0.0
9301,55.0,60,90,6.0,0.0
9302,43.0,0,180,1.0,0.0
9303,72.0,0,180,0.0,0.0
9304,64.0,24,180,0.0,0.0
9305,43.0,12,150,10.0,0.0
9306,72.0,0,330,5.0,0.0
9307,64.0,0,330,5.0,0.0
9308,67.0,0,180,3.0,0.0
9309,55.0,0,330,5.0,0.0
9310,64.0,0,180,2.0,0.0
9311,60.0,0,180,2.0,0.0
9312,67.0,0,90,6.0,0.0
9313,55.0,0,90,6.0,0.0
9314,67.0,0,90,7.0,0.0
9315,67.0,120,90,6.0,0.0
9316,55.0,0,90,7.0,0.0
9317,64.0,0,180,2.0,0.0
9318,67.0,0,180,3.0,0.0
9319,55.0,0,180,1.0,0.0
9320,60.0,24,180,2.0,0.0
9321,67.0,48,90,7.0,0.0
9322,55.0,0,90,6.0,0.0
9323,43.0,24,180,11.0,0.0
9324,67.0,0,90,6.0,0.0
9325,72.0,0,180,0.0,0.0
9326,64.0,0,180,0.0,0.0
9327,43.0,0,180,12.0,0.0
9328,55.0,0,90,7.0,0.0
9329,55.0,12,150,10.0,0.0
9330,67.0,0,90,6.0,0.0
9331,55.0,0,90,6.0,0.0
9332,67.0,120,90,7.0,0.0
9333,55.0,0,90,7.0,0.0
9334,43.0,12,390,4.0,0.0
9335,67.0,0,180,3.0,0.0
9336,67.0,60,90,6.0,0.0
9337,60.0,0,180,2.0,0.0
9338,31.0,0,180,11.0,0.0
9339,64.0,0,180,0.0,0.0
9340,72.0,0,180,0.0,0.0
9341,55.0,0,90,7.0,0.0
9342,67.0,0,90,7.0,0.0
9343,64.0,0,180,2.0,0.0
9344,55.0,0,90,6.0,0.0
9345,55.0,0,330,5.0,0.0
9346,72.0,0,330,5.0,0.0
9347,31.0,24,180,12.0,0.0
9348,43.0,24,180,1.0,0.0
9349,64.0,0,330,5.0,0.0
9350,43.0,12,150,10.0,0.0
9351,55.0,120,90,7.0,0.0
9352,67.0,0,90,7.0,0.0
9353,55.0,0,90,6.0,0.0
9354,67.0,0,90,6.0,0.0
9355,55.0,0,90,6.0,0.0
9356,43.0,24,180,11.0,0.0
9357,55.0,12,150,10.0,0.0
9358,64.0,0,180,2.0,0.0
9359,60.0,24,180,2.0,0.0
9360,55.0,0,180,1.0,0.0
9361,43.0,0,180,12.0,0.0
9362,67.0,0,180,3.0,0.0
9363,72.0,0,180,0.0,0.0
9364,64.0,0,180,0.0,0.0
9365,55.0,0,90,7.0,0.0
9366,67.0,48,90,7.0,0.0
9367,67.0,0,90,6.0,0.0
9368,55.0,0,90,7.0,0.0
9369,67.0,0,90,7.0,0.0
9370,55.0,0,90,6.0,0.0
9371,67.0,120,90,6.0,0.0
9372,71.0,0,390,0.0,0.0
9373,31.0,0,390,12.0,0.0
9374,74.0,72,390,0.0,0.0
9375,55.0,0,390,5.0,0.0
9376,43.0,0,390,1.0,0.0
9377,67.0,120,90,7.0,0.0
9378,55.0,0,90,6.0,0.0
9379,67.0,0,390,5.0,0.0
9380,62.0,0,390,2.0,0.0
9381,65.0,0,390,2.0,0.0
9382,55.0,0,90,7.0,0.0
9383,67.0,0,90,6.0,0.0
9384,43.0,0,390,10.0,0.0
9385,67.0,0,390,3.0,0.0
9386,31.0,0,390,11.0,0.0
9387,43.0,0,390,4.0,0.0
9388,74.0,0,390,5.0,0.0
9389,55.0,0,90,7.0,0.0
9390,67.0,120,90,7.0,0.0
9391,55.0,0,90,6.0,0.0
9392,67.0,0,90,6.0,0.0
9393,55.0,48,90,6.0,0.0
9394,67.0,0,90,7.0,0.0
9395,67.0,0,90,6.0,0.0
9396,55.0,0,90,7.0,0.0
9397,67.0,0,90,6.0,0.0
9398,55.0,0,90,6.0,0.0
9399,55.0,120,90,7.0,0.0
9400,67.0,0,90,7.0,0.0
9401,55.0,0,90,7.0,0.0
9402,67.0,0,90,7.0,0.0
9403,67.0,0,90,6.0,0.0
9404,55.0,120,90,6.0,0.0
9405,55.0,120,90,6.0,0.0
9406,67.0,0,90,7.0,0.0
9407,67.0,0,90,6.0,0.0
9408,55.0,0,90,7.0,0.0
9409,55.0,120,90,7.0,0.0
9410,55.0,0,90,6.0,0.0
9411,67.0,0,90,6.0,0.0
9412,67.0,0,90,7.0,0.0
9413,55.0,0,90,7.0,0.0
9414,67.0,120,90,7.0,0.0
9415,67.0,0,90,6.0,0.0
9416,55.0,0,90,6.0,0.0
9417,43.0,12,150,10.0,0.0
9418,62.0,0,180,2.0,0.0
9419,65.0,0,180,2.0,0.0
9420,43.0,12,390,4.0,0.0
9421,31.0,0,180,11.0,0.0
9422,67.0,0,180,3.0,0.0
9423,71.0,0,180,0.0,0.0
9424,74.0,24,180,0.0,0.0
9425,67.0,0,90,6.0,0.0
9426,55.0,0,330,5.0,0.0
9427,67.0,0,330,5.0,0.0
9428,43.0,0,180,1.0,0.0
9429,74.0,0,330,5.0,0.0
9430,67.0,60,90,7.0,0.0
9431,55.0,0,90,7.0,0.0
9432,31.0,24,180,12.0,0.0
9433,55.0,0,90,6.0,0.0
9434,55.0,0,90,6.0,0.0
9435,67.0,0,90,6.0,0.0
9436,67.0,0,90,7.0,0.0
9437,55.0,120,90,7.0,0.0
9438,74.0,0,180,0.0,0.0
9439,55.0,48,90,6.0,0.0
9440,67.0,0,90,6.0,0.0
9441,55.0,12,150,10.0,0.0
9442,65.0,0,180,2.0,0.0
9443,62.0,0,180,2.0,0.0
9444,67.0,24,180,3.0,0.0
9445,71.0,0,180,0.0,0.0
9446,43.0,0,180,11.0,0.0
9447,55.0,0,180,1.0,0.0
9448,67.0,0,90,7.0,0.0
9449,55.0,0,90,7.0,0.0
9450,43.0,24,180,12.0,0.0
9451,67.0,120,90,6.0,0.0
9452,55.0,0,90,7.0,0.0
9453,67.0,0,90,7.0,0.0
9454,55.0,0,90,6.0,0.0
9455,74.0,0,330,5.0,0.0
9456,31.0,24,180,12.0,0.0
9457,43.0,12,150,10.0,0.0
9458,67.0,0,180,3.0,0.0
9459,67.0,48,330,5.0,0.0
9460,55.0,0,90,6.0,0.0
9461,55.0,0,330,5.0,0.0
9462,67.0,60,90,6.0,0.0
9463,62.0,0,180,2.0,0.0
9464,31.0,0,180,11.0,0.0
9465,67.0,0,90,7.0,0.0
9466,55.0,0,90,7.0,0.0
9467,71.0,0,180,0.0,0.0
9468,74.0,0,180,0.0,0.0
9469,43.0,0,180,1.0,0.0
9470,43.0,12,390,4.0,0.0
9471,65.0,24,180,2.0,0.0
9472,55.0,0,90,7.0,0.0
9473,55.0,0,90,6.0,0.0
9474,67.0,0,90,6.0,0.0
9475,67.0,120,90,7.0,0.0
9476,55.0,0,90,7.0,0.0
9477,62.0,0,180,2.0,0.0
9478,65.0,0,180,2.0,0.0
9479,55.0,0,90,6.0,0.0
9480,67.0,0,90,6.0,0.0
9481,71.0,0,180,0.0,0.0
9482,74.0,0,180,0.0,0.0
9483,55.0,0,180,1.0,0.0
9484,67.0,24,180,3.0,0.0
9485,55.0,12,150,10.0,0.0
9486,43.0,0,180,11.0,0.0
9487,67.0,0,90,7.0,0.0
9488,43.0,24,180,12.0,0.0
9489,55.0,120,90,7.0,0.0
9490,67.0,0,90,7.0,0.0
9491,67.0,0,90,6.0,0.0
9492,55.0,0,90,6.0,0.0
9493,60.0,0,390,2.0,0.0
9494,67.0,120,90,6.0,0.0
9495,55.0,0,90,6.0,0.0
9496,67.0,0,90,7.0,0.0
9497,43.0,0,390,4.0,0.0
9498,64.0,72,390,2.0,0.0
9499,43.0,0,390,1.0,0.0
9500,31.0,0,390,12.0,0.0
9501,67.0,0,390,5.0,0.0
9502,55.0,0,390,5.0,0.0
9503,76.0,0,390,5.0,0.0
9504,43.0,0,390,10.0,0.0
9505,31.0,0,390,11.0,0.0
9506,76.0,0,390,0.0,0.0
9507,72.0,0,390,0.0,0.0
9508,67.0,0,390,3.0,0.0
9509,55.0,0,90,7.0,0.0
9510,72.0,0,390,5.0,0.0
9511,55.0,0,90,6.0,0.0
9512,67.0,0,90,7.0,0.0
9513,55.0,0,90,7.0,0.0
9514,67.0,120,90,6.0,0.0
9515,67.0,0,90,6.0,0.0
9516,55.0,48,90,6.0,0.0
9517,55.0,0,90,7.0,0.0
9518,67.0,0,90,7.0,0.0
9519,55.0,0,90,6.0,0.0
9520,67.0,0,90,6.0,0.0
9521,55.0,0,90,7.0,0.0
9522,67.0,120,90,7.0,0.0
9523,67.0,0,90,6.0,0.0
9524,55.0,0,90,6.0,0.0
9525,67.0,0,90,7.0,0.0
9526,55.0,120,90,7.0,0.0
9527,55.0,120,90,6.0,0.0
9528,55.0,0,90,7.0,0.0
9529,67.0,0,90,7.0,0.0
9530,67.0,0,90,6.0,0.0
9531,55.0,0,90,7.0,0.0
9532,67.0,0,90,7.0,0.0
9533,67.0,0,90,6.0,0.0
9534,55.0,120,90,6.0,0.0
9535,67.0,0,90,7.0,0.0
9536,55.0,0,90,7.0,0.0
9537,55.0,0,90,6.0,0.0
9538,67.0,120,90,6.0,0.0
9539,64.0,24,180,2.0,0.0
9540,67.0,60,90,7.0,0.0
9541,55.0,0,90,7.0,0.0
9542,43.0,0,180,1.0,0.0
9543,43.0,12,150,10.0,0.0
9544,76.0,0,330,5.0,0.0
9545,72.0,0,330,5.0,0.0
9546,67.0,0,330,5.0,0.0
9547,55.0,0,330,5.0,0.0
9548,67.0,0,180,3.0,0.0
9549,31.0,24,180,11.0,0.0
9550,67.0,0,90,6.0,0.0
9551,55.0,0,90,6.0,0.0
9552,60.0,0,180,2.0,0.0
9553,76.0,0,180,0.0,0.0
9554,43.0,12,390,4.0,0.0
9555,31.0,0,180,12.0,0.0
9556,72.0,0,180,0.0,0.0
9557,55.0,0,90,6.0,0.0
9558,67.0,120,90,6.0,0.0
9559,55.0,0,90,7.0,0.0
9560,67.0,0,90,7.0,0.0
9561,67.0,48,90,7.0,0.0
9562,55.0,0,90,7.0,0.0
9563,55.0,12,150,10.0,0.0
9564,76.0,0,180,0.0,0.0
9565,43.0,24,180,11.0,0.0
9566,67.0,0,180,3.0,0.0
9567,67.0,0,90,6.0,0.0
9568,55.0,0,90,6.0,0.0
9569,64.0,0,180,2.0,0.0
9570,60.0,0,180,2.0,0.0
9571,55.0,0,180,1.0,0.0
9572,72.0,24,180,0.0,0.0
9573,43.0,0,180,12.0,0.0
9574,55.0,0,90,6.0,0.0
9575,67.0,0,90,6.0,0.0
9576,67.0,0,90,7.0,0.0
9577,55.0,120,90,7.0,0.0
9578,43.0,0,180,1.0,0.0
9579,60.0,0,180,2.0,0.0
9580,64.0,0,180,2.0,0.0
9581,67.0,0,90,6.0,0.0
9582,67.0,24,180,3.0,0.0
9583,31.0,24,180,11.0,0.0
9584,31.0,0,180,12.0,0.0
9585,55.0,60,90,6.0,0.0
9586,72.0,0,180,0.0,0.0
9587,76.0,0,180,0.0,0.0
9588,67.0,0,330,5.0,0.0
9589,67.0,0,90,7.0,0.0
9590,43.0,12,390,4.0,0.0
9591,76.0,0,330,5.0,0.0
9592,55.0,0,90,7.0,0.0
9593,72.0,0,330,5.0,0.0
9594,43.0,12,150,10.0,0.0
9595,55.0,0,330,5.0,0.0
9596,67.0,0,90,6.0,0.0
9597,55.0,0,90,6.0,0.0
9598,55.0,120,90,7.0,0.0
9599,67.0,0,90,7.0,0.0
9600,55.0,0,180,1.0,0.0
9601,43.0,24,180,12.0,0.0
9602,60.0,24,180,2.0,0.0
9603,67.0,48,90,7.0,0.0
9604,64.0,0,180,2.0,0.0
9605,67.0,0,180,3.0,0.0
9606,55.0,0,90,6.0,0.0
9607,67.0,0,90,6.0,0.0
9608,72.0,0,180,0.0,0.0
9609,55.0,12,150,10.0,0.0
9610,55.0,0,90,7.0,0.0
9611,76.0,0,180,0.0,0.0
9612,43.0,0,180,11.0,0.0
9613,67.0,0,90,7.0,0.0
9614,55.0,0,90,6.0,0.0
9615,55.0,408,90,7.0,0.0
9616,67.0,0,90,6.0,0.0
9617,65.0,192,720,6.0,0.0
9618,62.0,0,390,2.0,0.0
9619,55.0,336,390,2.0,0.0
9620,71.0,0,390,0.0,0.0
9621,31.0,0,390,11.0,0.0
9622,43.0,0,390,10.0,0.0
9623,77.0,0,390,0.0,0.0
9624,31.0,0,390,12.0,0.0
9625,43.0,0,390,4.0,0.0
9626,62.0,0,390,7.0,0.0
9627,77.0,0,720,5.0,0.0
9628,67.0,0,390,3.0,0.0
9629,43.0,0,390,1.0,0.0
9630,59.0,0,390,7.0,0.0
9631,74.0,0,180,6.0,0.0
9632,86.0,288,180,5.0,0.0
9633,72.0,0,240,6.0,0.0
9634,84.0,240,240,5.0,0.0
9635,71.0,0,240,6.0,0.0
9636,83.0,240,240,5.0,0.0
9637,81.0,228,240,5.0,0.0
9638,69.0,0,240,6.0,0.0
9639,79.0,0,240,5.0,0.0
9640,67.0,252,240,6.0,0.0
9641,78.0,240,240,5.0,0.0
9642,66.0,0,240,6.0,0.0
9643,67.0,240,240,6.0,0.0
9644,79.0,0,240,5.0,0.0
9645,81.0,0,240,5.0,0.0
9646,69.0,228,240,6.0,0.0
9647,67.0,252,240,6.0,0.0
9648,79.0,0,240,5.0,0.0
9649,67.0,240,240,6.0,0.0
9650,79.0,0,240,5.0,0.0
9651,66.0,0,240,6.0,0.0
9652,78.0,240,240,5.0,0.0
9653,65.0,228,240,6.0,0.0
9654,77.0,0,240,5.0,0.0
9655,62.0,0,240,6.0,0.0
9656,74.0,780,240,5.0,0.0
9657,72.0,252,780,5.0,0.0
9658,60.0,240,3840,7.0,0.0
9659,36.0,0,3780,12.0,0.0
9660,64.0,0,780,6.0,0.0
9661,48.0,48,3780,10.0,0.0
9662,36.0,0,3780,11.0,0.0
9663,67.0,0,60,6.0,0.0
9664,76.0,180,60,5.0,0.0
9665,65.0,0,180,6.0,0.0
9666,74.0,240,180,5.0,0.0
9667,72.0,240,240,5.0,0.0
9668,64.0,0,240,6.0,0.0
9669,74.0,192,240,5.0,0.0
9670,65.0,0,240,6.0,0.0
9671,67.0,0,180,6.0,0.0
9672,76.0,384,180,5.0,0.0
9673,64.0,0,330,6.0,0.0
9674,72.0,1104,330,5.0,0.0
9675,69.0,0,960,6.0,0.0
9676,77.0,384,960,5.0,0.0
9677,67.0,48,390,6.0,0.0
9678,76.0,72,720,5.0,0.0
9679,41.0,0,300,11.0,0.0
9680,69.0,0,300,6.0,0.0
9681,53.0,0,300,10.0,0.0
9682,41.0,120,300,12.0,0.0
9683,57.0,0,300,7.0,0.0
9684,74.0,288,180,5.0,0.0
9685,43.0,0,480,12.0,0.0
9686,43.0,240,480,11.0,0.0
9687,74.0,192,240,5.0,0.0
9688,70.0,0,480,6.0,0.0
9689,55.0,0,480,10.0,0.0
9690,64.0,0,480,7.0,0.0
9691,73.0,48,180,5.0,0.0
9692,41.0,0,300,12.0,0.0
9693,76.0,72,240,5.0,0.0
9694,69.0,0,300,6.0,0.0
9695,53.0,0,300,10.0,0.0
9696,65.0,144,300,7.0,0.0
9697,41.0,0,300,11.0,0.0
9698,74.0,264,210,5.0,0.0
9699,43.0,240,480,11.0,0.0
9700,43.0,0,480,12.0,0.0
9701,74.0,192,240,5.0,0.0
9702,55.0,0,480,10.0,0.0
9703,64.0,0,480,7.0,0.0
9704,70.0,0,480,6.0,0.0
9705,73.0,48,180,5.0,0.0
9706,65.0,48,390,7.0,0.0
9707,41.0,0,300,12.0,0.0
9708,69.0,0,960,6.0,0.0
9709,76.0,72,240,5.0,0.0
9710,53.0,0,300,10.0,0.0
9711,41.0,72,300,11.0,0.0
9712,74.0,288,180,5.0,0.0
9713,62.0,0,870,7.0,0.0
9714,54.0,0,480,10.0,0.0
9715,42.0,240,480,12.0,0.0
9716,42.0,0,480,11.0,0.0
9717,74.0,192,240,5.0,0.0
9718,72.0,48,180,5.0,0.0
9719,55.0,96,390,10.0,0.0
9720,67.0,0,390,6.0,0.0
9721,43.0,0,390,11.0,0.0
9722,72.0,144,240,5.0,0.0
9723,43.0,0,390,12.0,0.0
9724,71.0,240,240,5.0,0.0
9725,69.0,192,240,5.0,0.0
9726,67.0,816,180,5.0,0.0
9727,48.0,0,3780,10.0,0.0
9728,72.0,0,780,5.0,0.0
9729,36.0,144,3660,11.0,0.0
9730,60.0,0,780,1.0,0.0
9731,64.0,252,780,6.0,0.0
9732,36.0,0,3660,12.0,0.0
9733,76.0,0,780,0.0,0.0
9734,60.0,288,3780,7.0,0.0
9735,60.0,0,3270,2.0,0.0
9736,48.0,96,3270,2.0,0.0
9737,76.0,180,60,5.0,0.0
9738,64.0,0,60,1.0,0.0
9739,67.0,0,60,6.0,0.0
9740,79.0,0,60,0.0,0.0
9741,74.0,0,180,5.0,0.0
9742,65.0,240,180,6.0,0.0
9743,62.0,0,180,1.0,0.0
9744,77.0,0,180,0.0,0.0
9745,64.0,0,240,6.0,0.0
9746,60.0,0,240,1.0,0.0
9747,76.0,240,240,0.0,0.0
9748,72.0,0,240,5.0,0.0
9749,74.0,0,240,5.0,0.0
9750,62.0,0,240,1.0,0.0
9751,77.0,192,240,0.0,0.0
9752,65.0,0,240,6.0,0.0
9753,76.0,0,180,5.0,0.0
9754,79.0,0,180,0.0,0.0
9755,67.0,0,180,6.0,0.0
9756,64.0,360,180,1.0,0.0
9757,64.0,0,300,6.0,0.0
9758,72.0,72,300,5.0,0.0
9759,76.0,960,390,0.0,0.0
9760,60.0,0,390,1.0,0.0
9761,65.0,0,960,1.0,0.0
9762,81.0,0,960,0.0,0.0
9763,69.0,0,960,6.0,0.0
9764,77.0,288,960,5.0,0.0
9765,79.0,0,720,0.0,0.0
9766,76.0,192,720,5.0,0.0
9767,64.0,0,720,1.0,0.0
9768,67.0,0,720,6.0,0.0
9769,43.0,0,480,11.0,0.0
9770,43.0,0,480,12.0,0.0
9771,55.0,240,480,10.0,0.0
9772,59.0,0,480,7.0,0.0
9773,62.0,0,180,1.0,0.0
9774,74.0,0,180,5.0,0.0
9775,77.0,0,180,0.0,0.0
9776,65.0,48,180,6.0,0.0
9777,74.0,0,240,5.0,0.0
9778,57.0,0,390,10.0,0.0
9779,65.0,144,240,6.0,0.0
9780,45.0,0,390,12.0,0.0
9781,45.0,48,390,11.0,0.0
9782,77.0,0,240,0.0,0.0
9783,62.0,0,240,1.0,0.0
9784,60.0,0,390,7.0,0.0
9785,72.0,288,180,5.0,0.0
9786,76.0,0,180,0.0,0.0
9787,60.0,0,180,1.0,0.0
9788,64.0,0,180,6.0,0.0
9789,67.0,0,240,6.0,0.0
9790,41.0,240,480,12.0,0.0
9791,53.0,0,480,10.0,0.0
9792,41.0,0,480,11.0,0.0
9793,79.0,192,240,0.0,0.0
9794,76.0,0,240,5.0,0.0
9795,64.0,0,240,1.0,0.0
9796,57.0,0,480,7.0,0.0
9797,65.0,0,180,6.0,0.0
9798,62.0,48,180,1.0,0.0
9799,74.0,0,180,5.0,0.0
9800,77.0,0,180,0.0,0.0
9801,65.0,0,240,6.0,0.0
9802,55.0,48,390,10.0,0.0
9803,55.0,0,390,7.0,0.0
9804,62.0,0,240,1.0,0.0
9805,43.0,0,390,11.0,0.0
9806,77.0,144,240,0.0,0.0
9807,43.0,0,390,12.0,0.0
9808,74.0,0,240,5.0,0.0
9809,71.0,0,180,5.0,0.0
9810,59.0,180,180,1.0,0.0
9811,62.0,0,180,6.0,0.0
9812,74.0,0,180,0.0,0.0
9813,36.0,0,390,12.0,0.0
9814,72.0,0,390,0.0,0.0
9815,36.0,0,390,11.0,0.0
9816,72.0,252,120,5.0,0.0
9817,55.0,0,390,7.0,0.0
9818,48.0,96,390,10.0,0.0
9819,60.0,0,390,1.0,0.0
9820,64.0,0,390,6.0,0.0
9821,60.0,240,240,5.0,0.0
9822,59.0,192,240,5.0,0.0
9823,60.0,432,180,5.0,0.0
9824,40.0,96,390,11.0,0.0
9825,60.0,384,1920,7.0,0.0
9826,40.0,0,390,12.0,0.0
9827,52.0,0,390,10.0,0.0
9828,72.0,0,1920,0.0,0.0
9829,60.0,240,240,5.0,0.0
9830,62.0,192,240,5.0,0.0
9831,64.0,432,180,5.0,0.0
9832,38.0,0,390,12.0,0.0
9833,50.0,96,390,10.0,0.0
9834,38.0,0,390,11.0,0.0
9835,65.0,240,240,5.0,0.0
9836,64.0,192,240,5.0,0.0
9837,65.0,48,180,5.0,0.0
9838,43.0,0,390,12.0,0.0
9839,71.0,384,960,0.0,0.0
9840,59.0,0,960,7.0,0.0
9841,55.0,0,390,10.0,0.0
9842,43.0,96,390,11.0,0.0
9843,69.0,240,240,5.0,0.0
9844,67.0,192,240,5.0,0.0
9845,65.0,48,180,5.0,0.0
9846,48.0,0,390,10.0,0.0
9847,60.0,144,780,7.0,0.0
9848,36.0,0,390,11.0,0.0
9849,72.0,96,390,0.0,0.0
9850,36.0,0,390,12.0,0.0
9851,64.0,240,240,5.0,0.0
9852,62.0,48,240,5.0,0.0
9853,60.0,432,180,5.0,0.0
9854,47.0,96,390,10.0,0.0
9855,35.0,0,390,12.0,0.0
9856,35.0,0,390,11.0,0.0
9857,55.0,384,1920,1.0,0.0
9858,62.0,384,960,7.0,0.0
9859,67.0,0,1920,5.0,0.0
9860,67.0,240,240,6.0,0.0
9861,69.0,192,240,6.0,0.0
9862,71.0,48,180,6.0,0.0
9863,64.0,0,960,7.0,0.0
9864,33.0,96,390,11.0,0.0
9865,45.0,0,390,10.0,0.0
9866,33.0,0,390,12.0,0.0
9867,72.0,240,240,6.0,0.0
9868,71.0,192,240,6.0,0.0
9869,72.0,48,180,6.0,0.0
9870,38.0,0,390,11.0,0.0
9871,38.0,0,390,12.0,0.0
9872,50.0,96,390,10.0,0.0
9873,66.0,0,960,5.0,0.0
9874,62.0,0,1740,7.0,0.0
9875,54.0,384,960,1.0,0.0
9876,76.0,240,240,6.0,0.0
9877,74.0,192,240,6.0,0.0
9878,72.0,48,180,6.0,0.0
9879,31.0,0,390,11.0,0.0
9880,55.0,0,390,1.0,0.0
9881,43.0,96,390,10.0,0.0
9882,31.0,0,390,12.0,0.0
9883,65.0,144,780,5.0,0.0
9884,71.0,240,240,6.0,0.0
9885,69.0,48,240,6.0,0.0
9886,67.0,432,180,6.0,0.0
9887,45.0,96,390,10.0,0.0
9888,72.0,384,1920,6.0,0.0
9889,60.0,0,1920,1.0,0.0
9890,64.0,384,960,5.0,0.0
9891,33.0,0,390,12.0,0.0
9892,33.0,0,390,11.0,0.0
9893,48.0,240,240,7.0,0.0
9894,50.0,192,240,7.0,0.0
9895,52.0,48,180,7.0,0.0
9896,38.0,0,390,12.0,0.0
9897,38.0,96,390,11.0,0.0
9898,50.0,0,390,10.0,0.0
9899,62.0,0,1920,5.0,0.0
9900,53.0,240,240,7.0,0.0
9901,52.0,192,240,7.0,0.0
9902,53.0,48,180,7.0,0.0
9903,59.0,0,960,1.0,0.0
9904,31.0,0,390,11.0,0.0
9905,31.0,96,390,12.0,0.0
9906,43.0,0,390,10.0,0.0
9907,71.0,384,960,6.0,0.0
9908,57.0,240,240,7.0,0.0
9909,55.0,192,240,7.0,0.0
9910,53.0,48,180,7.0,0.0
9911,72.0,0,780,6.0,0.0
9912,60.0,144,780,5.0,0.0
9913,60.0,0,780,1.0,0.0
9914,48.0,0,390,10.0,0.0
9915,36.0,0,390,11.0,0.0
9916,36.0,96,390,12.0,0.0
9917,52.0,240,240,7.0,0.0
9918,50.0,48,240,7.0,0.0
9919,48.0,528,180,7.0,0.0
9920,71.0,480,960,6.0,0.0
9921,55.0,0,1920,7.0,0.0
9922,62.0,0,960,5.0,0.0
9923,79.0,0,1920,0.0,0.0
9924,43.0,0,240,10.0,0.0
9925,31.0,240,240,12.0,0.0
9926,31.0,0,240,11.0,0.0
9927,45.0,192,240,10.0,0.0
9928,33.0,0,240,12.0,0.0
9929,33.0,0,240,11.0,0.0
9930,35.0,48,180,11.0,0.0
9931,35.0,0,180,12.0,0.0
9932,47.0,0,180,10.0,0.0
9933,64.0,480,960,5.0,0.0
9934,69.0,0,1920,6.0,0.0
9935,48.0,0,240,10.0,0.0
9936,36.0,240,240,11.0,0.0
9937,36.0,0,240,12.0,0.0
9938,35.0,0,240,12.0,0.0
9939,47.0,192,240,10.0,0.0
9940,35.0,0,240,11.0,0.0
9941,48.0,0,180,10.0,0.0
9942,36.0,48,180,12.0,0.0
9943,36.0,0,180,11.0,0.0
9944,54.0,0,960,7.0,0.0
9945,57.0,0,960,5.0,0.0
9946,78.0,480,960,0.0,0.0
9947,40.0,0,240,12.0,0.0
9948,40.0,240,240,11.0,0.0
9949,52.0,0,240,10.0,0.0
9950,38.0,0,240,11.0,0.0
9951,38.0,0,240,12.0,0.0
9952,50.0,192,240,10.0,0.0
9953,36.0,0,180,12.0,0.0
9954,36.0,0,180,11.0,0.0
9955,48.0,48,180,10.0,0.0
9956,55.0,144,780,7.0,0.0
9957,62.0,0,780,5.0,0.0
9958,67.0,0,780,6.0,0.0
9959,79.0,0,780,0.0,0.0
9960,47.0,0,240,10.0,0.0
9961,35.0,0,240,12.0,0.0
9962,35.0,240,240,11.0,0.0
9963,33.0,0,240,12.0,0.0
9964,45.0,48,240,10.0,0.0
9965,33.0,0,240,11.0,0.0
9966,31.0,0,180,12.0,0.0
9967,31.0,0,180,11.0,0.0
9968,43.0,528,180,10.0,0.0
9969,67.0,0,960,2.0,0.0
9970,64.0,480,960,2.0,0.0
9971,40.0,0,960,12.0,0.0
9972,72.0,0,1830,0.0,0.0
9973,40.0,0,960,11.0,0.0
9974,60.0,0,960,7.0,0.0
9975,52.0,0,960,1.0,0.0
9976,52.0,0,960,10.0,0.0
9977,84.0,0,1830,0.0,0.0
9978,72.0,240,240,5.0,0.0
9979,60.0,0,240,6.0,0.0
9980,62.0,0,240,6.0,0.0
9981,74.0,192,240,5.0,0.0
9982,64.0,48,180,6.0,0.0
9983,76.0,0,180,5.0,0.0
9984,65.0,0,870,2.0,0.0
9985,38.0,0,780,11.0,0.0
9986,38.0,0,780,12.0,0.0
9987,50.0,96,780,10.0,0.0
9988,50.0,0,870,1.0,0.0
9989,62.0,48,870,2.0,0.0
9990,60.0,0,780,7.0,0.0
9991,65.0,0,240,6.0,0.0
9992,77.0,240,240,5.0,0.0
9993,76.0,0,240,5.0,0.0
9994,64.0,48,240,6.0,0.0
9995,77.0,528,180,5.0,0.0
9996,65.0,0,180,6.0,0.0
9997,55.0,0,960,1.0,0.0
9998,71.0,0,960,0.0,0.0
9999,62.0,0,960,2.0,0.0
10000,55.0,0,960,2.0,0.0
10001,43.0,0,960,11.0,0.0
10002,83.0,0,960,0.0,0.0
10003,59.0,0,960,7.0,0.0
10004,43.0,480,960,12.0,0.0
10005,55.0,0,960,10.0,0.0
10006,69.0,240,240,6.0,0.0
10007,81.0,0,240,5.0,0.0
10008,67.0,0,240,6.0,0.0
10009,79.0,192,240,5.0,0.0
10010,77.0,48,180,5.0,0.0
10011,65.0,0,180,6.0,0.0
10012,60.0,0,780,7.0,0.0
10013,64.0,0,780,2.0,0.0
10014,84.0,0,780,0.0,0.0
10015,72.0,0,780,0.0,0.0
10016,36.0,144,780,12.0,0.0
10017,48.0,0,780,10.0,0.0
10018,36.0,0,780,11.0,0.0
10019,60.0,0,780,2.0,0.0
10020,48.0,0,780,1.0,0.0
10021,76.0,0,240,5.0,0.0
10022,64.0,240,240,6.0,0.0
10023,62.0,48,240,6.0,0.0
10024,74.0,0,240,5.0,0.0
10025,60.0,0,180,6.0,0.0
10026,72.0,528,180,5.0,0.0
10027,79.0,144,570,5.0,0.0
10028,79.0,0,570,6.0,0.0
10029,67.0,0,1740,1.0,0.0
10030,55.0,108,780,1.0,0.0
10031,79.0,12,1740,0.0,0.0
10032,48.0,0,240,11.0,0.0
10033,60.0,0,240,10.0,0.0
10034,60.0,96,240,7.0,0.0
10035,48.0,0,240,12.0,0.0
10036,62.0,0,240,7.0,0.0
10037,62.0,0,240,10.0,0.0
10038,50.0,0,240,12.0,0.0
10039,50.0,48,240,11.0,0.0
10040,64.0,0,180,10.0,0.0
10041,64.0,528,180,7.0,0.0
10042,52.0,0,180,11.0,0.0
10043,79.0,36,150,6.0,0.0
10044,52.0,0,180,12.0,0.0
10045,79.0,0,150,5.0,0.0
10046,81.0,24,1740,0.0,0.0
10047,57.0,0,1740,1.0,0.0
10048,69.0,144,570,5.0,0.0
10049,69.0,0,570,6.0,0.0
10050,65.0,0,240,10.0,0.0
10051,65.0,0,240,7.0,0.0
10052,53.0,0,240,11.0,0.0
10053,53.0,96,240,12.0,0.0
10054,64.0,0,240,7.0,0.0
10055,64.0,0,240,10.0,0.0
10056,52.0,0,240,12.0,0.0
10057,52.0,48,240,11.0,0.0
10058,65.0,0,180,7.0,0.0
10059,71.0,60,60,6.0,0.0
10060,53.0,0,180,12.0,0.0
10061,65.0,36,180,10.0,0.0
10062,71.0,0,60,5.0,0.0
10063,53.0,0,180,11.0,0.0
10064,72.0,60,60,6.0,0.0
10065,72.0,0,60,5.0,0.0
10066,74.0,12,60,5.0,0.0
10067,74.0,0,60,6.0,0.0
10068,76.0,324,40,6.0,0.0
10069,76.0,0,40,5.0,0.0
10070,77.0,168,300,5.0,0.0
10071,77.0,144,1740,0.0,0.0
10072,65.0,0,1740,1.0,0.0
10073,77.0,0,300,6.0,0.0
10074,47.0,0,240,12.0,0.0
10075,59.0,240,240,10.0,0.0
10076,59.0,0,240,7.0,0.0
10077,47.0,0,240,11.0,0.0
10078,77.0,120,300,5.0,0.0
10079,77.0,0,300,6.0,0.0
10080,60.0,0,240,7.0,0.0
10081,48.0,0,240,11.0,0.0
10082,48.0,0,240,12.0,0.0
10083,60.0,48,240,10.0,0.0
10084,50.0,528,180,12.0,0.0
10085,50.0,0,180,11.0,0.0
10086,62.0,0,180,7.0,0.0
10087,62.0,0,180,10.0,0.0
10088,77.0,0,480,6.0,0.0
10089,77.0,0,480,5.0,0.0
10090,79.0,0,1740,0.0,0.0
10091,55.0,108,1740,1.0,0.0
10092,64.0,0,240,7.0,0.0
10093,64.0,0,240,10.0,0.0
10094,52.0,192,240,11.0,0.0
10095,52.0,0,240,12.0,0.0
10096,62.0,0,240,7.0,0.0
10097,67.0,48,180,6.0,0.0
10098,62.0,0,240,10.0,0.0
10099,50.0,0,240,12.0,0.0
10100,67.0,0,180,5.0,0.0
10101,50.0,48,240,11.0,0.0
10102,64.0,0,180,7.0,0.0
10103,52.0,0,180,12.0,0.0
10104,64.0,0,180,10.0,0.0
10105,52.0,528,180,11.0,0.0
10106,76.0,0,570,6.0,0.0
10107,64.0,12,1740,1.0,0.0
10108,76.0,0,1740,0.0,0.0
10109,88.0,144,570,5.0,0.0
10110,57.0,0,240,10.0,0.0
10111,69.0,0,240,7.0,0.0
10112,45.0,0,240,11.0,0.0
10113,45.0,96,240,12.0,0.0
10114,47.0,0,240,11.0,0.0
10115,59.0,0,240,10.0,0.0
10116,71.0,48,240,7.0,0.0
10117,47.0,0,240,12.0,0.0
10118,61.0,528,180,10.0,0.0
10119,49.0,0,180,11.0,0.0
10120,73.0,0,180,7.0,0.0
10121,88.0,36,150,5.0,0.0
10122,49.0,0,180,12.0,0.0
10123,76.0,0,150,6.0,0.0
10124,77.0,144,570,5.0,0.0
10125,77.0,0,1740,0.0,0.0
10126,53.0,24,1740,1.0,0.0
10127,65.0,0,570,6.0,0.0
10128,50.0,0,240,12.0,0.0
10129,50.0,0,240,11.0,0.0
10130,62.0,0,240,10.0,0.0
10131,74.0,96,240,7.0,0.0
10132,49.0,48,240,12.0,0.0
10133,49.0,0,240,11.0,0.0
10134,61.0,0,240,10.0,0.0
10135,73.0,0,240,7.0,0.0
10136,62.0,0,180,10.0,0.0
10137,50.0,48,180,11.0,0.0
10138,79.0,0,60,5.0,0.0
10139,74.0,0,180,7.0,0.0
10140,67.0,60,60,6.0,0.0
10141,50.0,0,180,12.0,0.0
10142,81.0,0,60,5.0,0.0
10143,69.0,60,60,6.0,0.0
10144,83.0,0,60,5.0,0.0
10145,71.0,12,60,6.0,0.0
10146,84.0,0,60,5.0,0.0
10147,72.0,312,60,6.0,0.0
10148,86.0,0,300,5.0,0.0
10149,62.0,144,1740,1.0,0.0
10150,74.0,0,1740,0.0,0.0
10151,74.0,168,300,6.0,0.0
10152,43.0,240,240,11.0,0.0
10153,55.0,0,240,10.0,0.0
10154,43.0,0,240,12.0,0.0
10155,67.0,0,240,7.0,0.0
10156,74.0,120,300,6.0,0.0
10157,45.0,48,240,12.0,0.0
10158,45.0,0,240,11.0,0.0
10159,69.0,0,240,7.0,0.0
10160,86.0,0,300,5.0,0.0
10161,57.0,0,240,10.0,0.0
10162,47.0,528,180,11.0,0.0
10163,59.0,0,180,10.0,0.0
10164,71.0,0,180,7.0,0.0
10165,47.0,0,180,12.0,0.0
10166,86.0,192,480,5.0,0.0
10167,52.0,0,1740,1.0,0.0
10168,76.0,0,1740,0.0,0.0
10169,74.0,0,480,6.0,0.0
10170,60.0,0,240,10.0,0.0
10171,48.0,0,240,11.0,0.0
10172,72.0,0,240,7.0,0.0
10173,48.0,0,240,12.0,0.0
10174,59.0,0,240,10.0,0.0
10175,47.0,48,240,11.0,0.0
10176,71.0,0,240,7.0,0.0
10177,47.0,0,240,12.0,0.0
10178,76.0,0,180,5.0,0.0
10179,64.0,48,180,6.0,0.0
10180,48.0,0,180,11.0,0.0
10181,72.0,0,180,7.0,0.0
10182,48.0,432,180,12.0,0.0
10183,60.0,0,180,10.0,0.0
10184,72.0,0,570,6.0,0.0
10185,60.0,108,1740,1.0,0.0
10186,84.0,144,570,5.0,0.0
10187,64.0,108,780,2.0,0.0
10188,60.0,0,1740,2.0,0.0
10189,76.0,0,390,3.0,0.0
10190,72.0,96,390,3.0,0.0
10191,72.0,0,1740,0.0,0.0
10192,48.0,0,390,4.0,0.0
10193,45.0,0,240,12.0,0.0
10194,57.0,0,240,10.0,0.0
10195,69.0,96,240,7.0,0.0
10196,45.0,0,240,11.0,0.0
10197,56.0,0,240,10.0,0.0
10198,68.0,0,240,7.0,0.0
10199,44.0,0,240,12.0,0.0
10200,44.0,48,240,11.0,0.0
10201,57.0,0,180,10.0,0.0
10202,84.0,0,150,5.0,0.0
10203,69.0,432,180,7.0,0.0
10204,45.0,0,180,12.0,0.0
10205,45.0,0,180,11.0,0.0
10206,72.0,36,150,6.0,0.0
10207,72.0,0,390,3.0,0.0
10208,74.0,0,1860,0.0,0.0
10209,62.0,144,570,6.0,0.0
10210,48.0,96,390,4.0,0.0
10211,62.0,108,1740,2.0,0.0
10212,50.0,0,1860,1.0,0.0
10213,74.0,0,570,5.0,0.0
10214,74.0,0,390,3.0,0.0
10215,65.0,0,240,7.0,0.0
10216,41.0,0,240,12.0,0.0
10217,53.0,0,240,10.0,0.0
10218,41.0,96,240,11.0,0.0
10219,64.0,48,240,7.0,0.0
10220,40.0,0,240,11.0,0.0
10221,40.0,0,240,12.0,0.0
10222,52.0,0,240,10.0,0.0
10223,62.0,36,150,6.0,0.0
10224,41.0,0,180,11.0,0.0
10225,74.0,0,150,5.0,0.0
10226,53.0,0,180,10.0,0.0
10227,65.0,0,180,7.0,0.0
10228,41.0,432,180,12.0,0.0
10229,83.0,144,570,5.0,0.0
10230,71.0,0,570,6.0,0.0
10231,67.0,96,390,3.0,0.0
10232,74.0,0,390,3.0,0.0
10233,43.0,0,390,4.0,0.0
10234,71.0,0,900,0.0,0.0
10235,55.0,0,780,2.0,0.0
10236,59.0,0,900,1.0,0.0
10237,43.0,0,240,11.0,0.0
10238,43.0,0,240,12.0,0.0
10239,67.0,0,240,7.0,0.0
10240,55.0,96,240,10.0,0.0
10241,66.0,0,240,7.0,0.0
10242,42.0,0,240,12.0,0.0
10243,42.0,0,240,11.0,0.0
10244,54.0,48,240,10.0,0.0
10245,43.0,0,180,12.0,0.0
10246,83.0,0,150,5.0,0.0
10247,67.0,180,180,7.0,0.0
10248,55.0,0,180,10.0,0.0
10249,71.0,36,150,6.0,0.0
10250,43.0,0,180,11.0,0.0
10251,60.0,144,5580,7.0,0.0
10252,48.0,0,4800,10.0,0.0
10253,36.0,480,4800,12.0,0.0
10254,48.0,0,390,4.0,0.0
10255,64.0,0,390,3.0,0.0
10256,84.0,0,120,5.0,0.0
10257,60.0,0,450,1.0,0.0
10258,72.0,72,390,3.0,0.0
10259,48.0,48,4740,2.0,0.0
10260,60.0,0,4740,2.0,0.0
10261,36.0,0,4800,11.0,0.0
10262,72.0,24,450,0.0,0.0
10263,72.0,252,120,6.0,0.0
10264,48.0,0,450,1.0,0.0
10265,60.0,0,240,6.0,0.0
10266,72.0,240,240,5.0,0.0
10267,71.0,192,240,5.0,0.0
10268,59.0,0,240,6.0,0.0
10269,72.0,0,180,5.0,0.0
10270,60.0,528,180,6.0,0.0
10271,55.0,0,1860,1.0,0.0
10272,67.0,0,240,6.0,0.0
10273,79.0,240,240,5.0,0.0
10274,78.0,0,240,5.0,0.0
10275,66.0,192,240,6.0,0.0
10276,79.0,0,180,5.0,0.0
10277,67.0,528,180,6.0,0.0
10278,56.0,528,1860,1.0,0.0
10279,68.0,0,240,5.0,0.0
10280,56.0,240,240,6.0,0.0
10281,67.0,192,240,5.0,0.0
10282,55.0,0,240,6.0,0.0
10283,56.0,0,180,6.0,0.0
10284,68.0,528,180,5.0,0.0
10285,53.0,0,1860,1.0,0.0
10286,68.0,0,240,5.0,0.0
10287,56.0,144,240,6.0,0.0
10288,77.0,0,150,5.0,0.0
10289,65.0,240,150,6.0,0.0
10290,65.0,48,150,6.0,0.0
10291,77.0,0,150,5.0,0.0
10292,55.0,0,1860,1.0,0.0
10293,77.0,0,240,5.0,0.0
10294,65.0,144,240,6.0,0.0
10295,67.0,240,150,5.0,0.0
10296,55.0,0,150,6.0,0.0
10297,67.0,48,150,5.0,0.0
10298,55.0,0,150,6.0,0.0
10299,60.0,0,1860,10.0,0.0
10300,79.0,528,900,0.0,0.0
10301,48.0,0,1860,11.0,0.0
10302,48.0,0,1860,12.0,0.0
10303,75.0,0,1860,0.0,0.0
10304,51.0,0,1860,1.0,0.0
10305,75.0,0,240,6.0,0.0
10306,87.0,240,240,5.0,0.0
10307,74.0,48,240,6.0,0.0
10308,86.0,0,240,5.0,0.0
10309,75.0,0,180,6.0,0.0
10310,87.0,0,180,5.0,0.0
10311,69.0,480,960,7.0,0.0
10312,78.0,0,900,0.0,0.0
10313,54.0,0,900,1.0,0.0
10314,78.0,0,240,5.0,0.0
10315,66.0,240,240,6.0,0.0
10316,76.0,192,240,5.0,0.0
10317,64.0,0,240,6.0,0.0
10318,66.0,48,180,6.0,0.0
10319,78.0,0,180,5.0,0.0
10320,68.0,48,900,7.0,0.0
10321,47.0,0,960,12.0,0.0
10322,59.0,480,960,10.0,0.0
10323,50.0,0,1860,1.0,0.0
10324,53.0,0,900,1.0,0.0
10325,47.0,0,960,11.0,0.0
10326,74.0,0,1860,0.0,0.0
10327,77.0,0,900,0.0,0.0
10328,65.0,0,240,6.0,0.0
10329,77.0,156,240,5.0,0.0
10330,74.0,240,150,6.0,0.0
10331,86.0,0,150,5.0,0.0
10332,74.0,0,150,6.0,0.0
10333,86.0,36,150,5.0,0.0
10334,60.0,0,900,10.0,0.0
10335,67.0,0,900,7.0,0.0
10336,48.0,0,900,11.0,0.0
10337,48.0,0,900,12.0,0.0
10338,76.0,0,900,0.0,0.0
10339,52.0,528,900,1.0,0.0
10340,86.0,156,240,5.0,0.0
10341,74.0,0,240,6.0,0.0
10342,64.0,0,150,6.0,0.0
10343,76.0,240,150,5.0,0.0
10344,76.0,0,150,5.0,0.0
10345,64.0,36,150,6.0,0.0
10346,48.0,0,1860,1.0,0.0
10347,44.0,0,900,11.0,0.0
10348,56.0,0,900,10.0,0.0
10349,72.0,0,1860,0.0,0.0
10350,75.0,0,900,0.0,0.0
10351,68.0,0,1860,7.0,0.0
10352,44.0,0,900,12.0,0.0
10353,51.0,0,900,1.0,0.0
10354,72.0,0,240,6.0,0.0
10355,84.0,240,240,5.0,0.0
10356,83.0,0,240,5.0,0.0
10357,71.0,192,240,6.0,0.0
10358,84.0,0,180,5.0,0.0
10359,72.0,528,180,6.0,0.0
10360,41.0,0,900,12.0,0.0
10361,41.0,0,900,11.0,0.0
10362,53.0,0,900,10.0,0.0
10363,50.0,0,1860,1.0,0.0
10364,74.0,0,1860,0.0,0.0
10365,74.0,240,240,5.0,0.0
10366,62.0,0,240,6.0,0.0
10367,61.0,0,240,6.0,0.0
10368,73.0,192,240,5.0,0.0
10369,62.0,528,180,6.0,0.0
10370,74.0,0,180,5.0,0.0
10371,55.0,0,900,10.0,0.0
10372,47.0,0,900,1.0,0.0
10373,71.0,144,900,0.0,0.0
10374,67.0,0,900,7.0,0.0
10375,43.0,0,900,12.0,0.0
10376,43.0,0,900,11.0,0.0
10377,67.0,0,240,6.0,0.0
10378,79.0,240,240,5.0,0.0
10379,66.0,192,240,6.0,0.0
10380,78.0,0,240,5.0,0.0
10381,67.0,0,180,6.0,0.0
10382,79.0,0,180,5.0,0.0
10383,64.0,0,390,7.0,0.0
10384,48.0,0,390,10.0,0.0
10385,60.0,0,390,6.0,0.0
10386,48.0,0,390,1.0,0.0
10387,72.0,96,1200,0.0,0.0
10388,36.0,0,390,12.0,0.0
10389,60.0,120,90,5.0,0.0
10390,36.0,72,390,11.0,0.0
10391,60.0,120,90,5.0,0.0
10392,55.0,48,90,5.0,0.0
10393,55.0,120,90,5.0,0.0
10394,57.0,120,90,5.0,0.0
10395,57.0,120,90,5.0,0.0
10396,59.0,120,90,5.0,0.0
10397,59.0,120,90,5.0,0.0
10398,60.0,120,90,5.0,0.0
10399,60.0,24,90,5.0,0.0
10400,71.0,96,240,0.0,0.0
10401,59.0,120,90,5.0,0.0
10402,59.0,24,90,5.0,0.0
10403,72.0,96,240,0.0,0.0
10404,60.0,120,90,5.0,0.0
10405,60.0,24,90,5.0,0.0
10406,61.0,96,90,5.0,0.0
10407,73.0,24,180,0.0,0.0
10408,61.0,120,90,5.0,0.0
10409,62.0,120,90,5.0,0.0
10410,74.0,96,1200,0.0,0.0
10411,62.0,120,90,5.0,0.0
10412,55.0,120,90,5.0,0.0
10413,55.0,120,90,5.0,0.0
10414,59.0,120,90,5.0,0.0
10415,59.0,120,90,5.0,0.0
10416,60.0,120,90,5.0,0.0
10417,60.0,120,90,5.0,0.0
10418,62.0,120,90,5.0,0.0
10419,62.0,24,90,5.0,0.0
10420,73.0,96,240,0.0,0.0
10421,61.0,120,90,5.0,0.0
10422,61.0,24,90,5.0,0.0
10423,74.0,96,240,0.0,0.0
10424,62.0,120,90,5.0,0.0
10425,62.0,24,90,5.0,0.0
10426,63.0,96,90,5.0,0.0
10427,75.0,24,180,0.0,0.0
10428,63.0,120,90,5.0,0.0
10429,72.0,60,1200,0.0,0.0
10430,60.0,120,90,6.0,0.0
10431,76.0,48,780,0.0,0.0
10432,64.0,24,300,5.0,0.0
10433,60.0,96,90,6.0,0.0
10434,55.0,120,90,6.0,0.0
10435,55.0,120,90,6.0,0.0
10436,57.0,120,90,6.0,0.0
10437,64.0,54,240,5.0,0.0
10438,57.0,18,90,6.0,0.0
10439,59.0,102,90,6.0,0.0
10440,59.0,84,90,6.0,0.0
10441,64.0,18,90,5.0,0.0
10442,60.0,24,90,6.0,0.0
10443,76.0,24,900,0.0,0.0
10444,65.0,36,60,5.0,0.0
10445,64.0,60,60,5.0,0.0
10446,60.0,24,90,6.0,0.0
10447,65.0,36,60,5.0,0.0
10448,64.0,0,60,5.0,0.0
10449,59.0,24,90,6.0,0.0
10450,65.0,36,60,5.0,0.0
10451,71.0,0,240,0.0,0.0
10452,64.0,60,60,5.0,0.0
10453,65.0,36,60,5.0,0.0
10454,59.0,24,90,6.0,0.0
10455,64.0,60,60,5.0,0.0
10456,72.0,0,240,0.0,0.0
10457,60.0,24,90,6.0,0.0
10458,65.0,36,60,5.0,0.0
10459,64.0,60,60,5.0,0.0
10460,60.0,24,90,6.0,0.0
10461,65.0,36,60,5.0,0.0
10462,64.0,96,60,5.0,0.0
10463,62.0,72,120,5.0,0.0
10464,73.0,0,180,0.0,0.0
10465,61.0,24,90,6.0,0.0
10466,61.0,120,90,6.0,0.0
10467,64.0,0,90,5.0,0.0
10468,74.0,0,720,0.0,0.0
10469,77.0,96,720,0.0,0.0
10470,65.0,0,720,5.0,0.0
10471,62.0,120,90,6.0,0.0
10472,62.0,120,90,6.0,0.0
10473,55.0,120,90,6.0,0.0
10474,55.0,120,90,6.0,0.0
10475,59.0,120,90,6.0,0.0
10476,59.0,24,90,6.0,0.0
10477,72.0,0,180,0.0,0.0
10478,60.0,96,90,6.0,0.0
10479,64.0,0,180,5.0,0.0
10480,76.0,24,180,0.0,0.0
10481,60.0,120,90,6.0,0.0
10482,65.0,0,240,5.0,0.0
10483,74.0,96,240,0.0,0.0
10484,77.0,0,240,0.0,0.0
10485,62.0,120,90,6.0,0.0
10486,62.0,24,90,6.0,0.0
10487,64.0,96,240,5.0,0.0
10488,61.0,120,90,6.0,0.0
10489,73.0,0,240,0.0,0.0
10490,76.0,0,240,0.0,0.0
10491,61.0,24,90,6.0,0.0
10492,74.0,96,240,0.0,0.0
10493,77.0,0,240,0.0,0.0
10494,65.0,0,240,5.0,0.0
10495,62.0,120,90,6.0,0.0
10496,62.0,24,90,6.0,0.0
10497,66.0,0,180,5.0,0.0
10498,75.0,24,180,0.0,0.0
10499,78.0,0,180,0.0,0.0
10500,63.0,96,90,6.0,0.0
10501,63.0,120,90,6.0,0.0
10502,79.0,0,390,0.0,0.0
10503,76.0,0,390,0.0,0.0
10504,55.0,12,4230,2.0,0.0
10505,43.0,0,4230,2.0,0.0
10506,67.0,0,4230,3.0,0.0
10507,55.0,0,4230,3.0,0.0
10508,43.0,0,390,4.0,0.0
10509,60.0,120,90,7.0,0.0
10510,60.0,96,240,1.0,0.0
10511,60.0,0,240,10.0,0.0
10512,48.0,0,240,12.0,0.0
10513,67.0,0,390,5.0,0.0
10514,64.0,72,390,6.0,0.0
10515,48.0,0,240,11.0,0.0
10516,60.0,24,90,7.0,0.0
10517,55.0,0,240,1.0,0.0
10518,55.0,0,240,10.0,0.0
10519,43.0,0,240,11.0,0.0
10520,43.0,96,240,12.0,0.0
10521,55.0,48,90,7.0,0.0
10522,55.0,24,90,7.0,0.0
10523,57.0,0,240,1.0,0.0
10524,57.0,0,240,10.0,0.0
10525,45.0,0,240,12.0,0.0
10526,45.0,96,240,11.0,0.0
10527,57.0,120,90,7.0,0.0
10528,57.0,24,90,7.0,0.0
10529,59.0,0,180,10.0,0.0
10530,47.0,24,180,11.0,0.0
10531,59.0,0,180,1.0,0.0
10532,59.0,96,90,7.0,0.0
10533,47.0,0,180,12.0,0.0
10534,59.0,120,90,7.0,0.0
10535,55.0,120,90,6.0,0.0
10536,67.0,48,780,0.0,0.0
10537,48.0,96,240,11.0,0.0
10538,67.0,0,90,6.0,0.0
10539,76.0,0,780,0.0,0.0
10540,76.0,0,90,5.0,0.0
10541,60.0,0,240,10.0,0.0
10542,60.0,0,240,1.0,0.0
10543,60.0,0,90,7.0,0.0
10544,48.0,0,240,12.0,0.0
10545,67.0,0,90,6.0,0.0
10546,55.0,0,90,6.0,0.0
10547,60.0,24,90,7.0,0.0
10548,76.0,0,90,5.0,0.0
10549,47.0,96,240,12.0,0.0
10550,76.0,0,90,5.0,0.0
10551,55.0,120,90,6.0,0.0
10552,67.0,0,90,6.0,0.0
10553,59.0,0,240,1.0,0.0
10554,47.0,0,240,11.0,0.0
10555,59.0,0,90,7.0,0.0
10556,59.0,0,240,10.0,0.0
10557,55.0,0,90,6.0,0.0
10558,59.0,0,90,7.0,0.0
10559,67.0,0,90,6.0,0.0
10560,76.0,24,90,5.0,0.0
10561,60.0,120,90,7.0,0.0
10562,76.0,0,90,5.0,0.0
10563,48.0,0,240,11.0,0.0
10564,55.0,0,90,6.0,0.0
10565,60.0,48,240,1.0,0.0
10566,67.0,0,90,6.0,0.0
10567,48.0,0,240,12.0,0.0
10568,60.0,0,240,10.0,0.0
10569,67.0,0,90,6.0,0.0
10570,60.0,0,90,7.0,0.0
10571,76.0,0,90,5.0,0.0
10572,55.0,24,90,6.0,0.0
10573,76.0,96,90,5.0,0.0
10574,49.0,0,180,12.0,0.0
10575,55.0,0,90,6.0,0.0
10576,67.0,0,90,6.0,0.0
10577,49.0,24,180,11.0,0.0
10578,61.0,0,90,7.0,0.0
10579,61.0,0,180,10.0,0.0
10580,61.0,0,180,1.0,0.0
10581,67.0,0,90,6.0,0.0
10582,55.0,0,90,6.0,0.0
10583,76.0,0,90,5.0,0.0
10584,61.0,120,90,7.0,0.0
10585,50.0,0,240,12.0,0.0
10586,55.0,0,390,6.0,0.0
10587,43.0,0,390,4.0,0.0
10588,67.0,0,390,6.0,0.0
10589,62.0,120,90,7.0,0.0
10590,50.0,0,240,11.0,0.0
10591,62.0,96,240,1.0,0.0
10592,62.0,0,240,10.0,0.0
10593,67.0,24,1860,0.0,0.0
10594,77.0,72,390,5.0,0.0
10595,77.0,96,1200,0.0,0.0
10596,62.0,24,90,7.0,0.0
10597,43.0,0,240,11.0,0.0
10598,55.0,48,90,7.0,0.0
10599,55.0,0,240,10.0,0.0
10600,43.0,96,240,12.0,0.0
10601,55.0,0,240,1.0,0.0
10602,55.0,24,90,7.0,0.0
10603,59.0,0,240,1.0,0.0
10604,59.0,96,240,10.0,0.0
10605,47.0,0,240,11.0,0.0
10606,59.0,120,90,7.0,0.0
10607,47.0,0,240,12.0,0.0
10608,59.0,24,90,7.0,0.0
10609,60.0,96,90,7.0,0.0
10610,60.0,24,180,1.0,0.0
10611,60.0,0,180,10.0,0.0
10612,48.0,0,180,12.0,0.0
10613,48.0,0,180,11.0,0.0
10614,60.0,120,90,7.0,0.0
10615,77.0,0,90,5.0,0.0
10616,62.0,0,90,7.0,0.0
10617,50.0,0,240,12.0,0.0
10618,55.0,120,90,6.0,0.0
10619,50.0,0,240,11.0,0.0
10620,62.0,0,240,10.0,0.0
10621,62.0,0,240,1.0,0.0
10622,67.0,0,90,6.0,0.0
10623,67.0,0,90,6.0,0.0
10624,55.0,0,90,6.0,0.0
10625,62.0,0,90,7.0,0.0
10626,77.0,24,90,5.0,0.0
10627,55.0,0,90,6.0,0.0
10628,49.0,0,240,11.0,0.0
10629,67.0,0,90,6.0,0.0
10630,76.0,0,240,0.0,0.0
10631,61.0,0,240,10.0,0.0
10632,61.0,120,90,7.0,0.0
10633,61.0,0,240,1.0,0.0
10634,76.0,0,90,5.0,0.0
10635,49.0,96,240,12.0,0.0
10636,76.0,0,90,5.0,0.0
10637,55.0,24,90,6.0,0.0
10638,61.0,0,90,7.0,0.0
10639,67.0,0,90,6.0,0.0
10640,77.0,0,240,0.0,0.0
10641,77.0,0,90,5.0,0.0
10642,62.0,0,240,1.0,0.0
10643,67.0,0,90,6.0,0.0
10644,50.0,96,240,11.0,0.0
10645,50.0,0,240,12.0,0.0
10646,62.0,0,240,10.0,0.0
10647,62.0,0,90,7.0,0.0
10648,55.0,120,90,6.0,0.0
10649,77.0,0,90,5.0,0.0
10650,62.0,0,90,7.0,0.0
10651,55.0,24,90,6.0,0.0
10652,67.0,0,90,6.0,0.0
10653,63.0,0,90,7.0,0.0
10654,78.0,96,90,5.0,0.0
10655,63.0,0,180,1.0,0.0
10656,51.0,0,180,12.0,0.0
10657,78.0,0,180,0.0,0.0
10658,51.0,0,180,11.0,0.0
10659,63.0,0,180,10.0,0.0
10660,67.0,0,90,6.0,0.0
10661,55.0,0,90,6.0,0.0
10662,63.0,0,90,7.0,0.0
10663,78.0,0,90,5.0,0.0
10664,67.0,0,90,6.0,0.0
10665,55.0,180,90,6.0,0.0
10666,52.0,0,240,12.0,0.0
10667,67.0,0,150,6.0,0.0
10668,55.0,72,150,6.0,0.0
10669,64.0,84,240,1.0,0.0
10670,52.0,0,240,11.0,0.0
10671,64.0,0,240,10.0,0.0
10672,79.0,0,360,0.0,0.0
10673,67.0,24,360,0.0,0.0
10674,64.0,48,300,7.0,0.0
10675,79.0,0,150,5.0,0.0
10676,76.0,312,150,6.0,0.0
10677,79.0,0,150,5.0,0.0
10678,73.0,0,360,0.0,0.0
10679,67.0,156,480,7.0,0.0
10680,45.0,0,240,12.0,0.0
10681,76.0,0,360,0.0,0.0
10682,64.0,36,360,2.0,0.0
10683,67.0,0,360,2.0,0.0
10684,45.0,0,240,11.0,0.0
10685,57.0,0,240,1.0,0.0
10686,57.0,132,240,10.0,0.0
10687,76.0,84,150,5.0,0.0
10688,73.0,0,150,6.0,0.0
10689,50.0,0,240,12.0,0.0
10690,74.0,0,360,0.0,0.0
10691,77.0,0,360,0.0,0.0
10692,77.0,0,150,5.0,0.0
10693,65.0,48,300,7.0,0.0
10694,65.0,0,360,2.0,0.0
10695,62.0,0,240,10.0,0.0
10696,62.0,0,240,1.0,0.0
10697,50.0,84,240,11.0,0.0
10698,62.0,36,360,2.0,0.0
10699,74.0,72,150,6.0,0.0
10700,77.0,312,150,5.0,0.0
10701,74.0,0,150,6.0,0.0
10702,55.0,0,360,2.0,0.0
10703,65.0,48,300,7.0,0.0
10704,71.0,0,360,0.0,0.0
10705,74.0,0,360,3.0,0.0
10706,67.0,24,360,3.0,0.0
10707,43.0,12,390,4.0,0.0
10708,55.0,84,240,1.0,0.0
10709,74.0,0,360,0.0,0.0
10710,55.0,0,240,10.0,0.0
10711,62.0,0,360,2.0,0.0
10712,43.0,0,240,11.0,0.0
10713,43.0,0,240,12.0,0.0
10714,74.0,240,150,5.0,0.0
10715,71.0,0,150,6.0,0.0
10716,64.0,0,150,7.0,0.0
10717,48.0,0,150,12.0,0.0
10718,72.0,156,150,6.0,0.0
10719,72.0,72,300,0.0,0.0
10720,72.0,12,390,3.0,0.0
10721,48.0,0,150,11.0,0.0
10722,60.0,0,150,10.0,0.0
10723,60.0,0,300,2.0,0.0
10724,64.0,0,300,2.0,0.0
10725,60.0,0,150,1.0,0.0
10726,76.0,0,390,3.0,0.0
10727,76.0,0,150,5.0,0.0
10728,48.0,0,390,4.0,0.0
10729,76.0,0,300,0.0,0.0
10730,64.0,240,150,7.0,0.0
10731,60.0,0,150,10.0,0.0
10732,60.0,0,150,1.0,0.0
10733,48.0,0,150,11.0,0.0
10734,72.0,0,150,6.0,0.0
10735,48.0,0,150,12.0,0.0
10736,76.0,0,150,5.0,0.0
10737,64.0,0,150,2.0,0.0
10738,45.0,0,150,12.0,0.0
10739,57.0,0,150,1.0,0.0
10740,60.0,240,150,2.0,0.0
10741,76.0,0,150,5.0,0.0
10742,45.0,0,150,11.0,0.0
10743,69.0,0,150,7.0,0.0
10744,84.0,0,150,5.0,0.0
10745,57.0,0,150,10.0,0.0
10746,72.0,0,150,6.0,0.0
10747,76.0,0,150,6.0,0.0
10748,72.0,0,150,0.0,0.0
10749,76.0,0,150,0.0,0.0
10750,45.0,0,150,12.0,0.0
10751,64.0,0,150,2.0,0.0
10752,76.0,0,150,6.0,0.0
10753,72.0,0,150,6.0,0.0
10754,45.0,0,150,11.0,0.0
10755,60.0,240,150,2.0,0.0
10756,76.0,0,150,5.0,0.0
10757,69.0,0,150,7.0,0.0
10758,57.0,0,150,10.0,0.0
10759,84.0,0,150,5.0,0.0
10760,76.0,0,150,0.0,0.0
10761,72.0,0,150,0.0,0.0
10762,57.0,0,150,1.0,0.0
10763,74.0,0,150,0.0,0.0
10764,77.0,0,150,0.0,0.0
10765,62.0,0,150,2.0,0.0
10766,65.0,0,150,2.0,0.0
10767,69.0,240,150,7.0,0.0
10768,86.0,0,150,5.0,0.0
10769,77.0,0,150,5.0,0.0
10770,53.0,0,150,10.0,0.0
10771,74.0,0,150,6.0,0.0
10772,77.0,0,150,6.0,0.0
10773,53.0,0,150,1.0,0.0
10774,41.0,0,150,12.0,0.0
10775,41.0,0,150,11.0,0.0
10776,41.0,240,150,11.0,0.0
10777,86.0,0,150,5.0,0.0
10778,77.0,0,150,5.0,0.0
10779,77.0,0,150,0.0,0.0
10780,53.0,0,150,1.0,0.0
10781,74.0,0,150,0.0,0.0
10782,53.0,0,150,10.0,0.0
10783,62.0,0,150,2.0,0.0
10784,41.0,0,150,12.0,0.0
10785,74.0,0,150,6.0,0.0
10786,65.0,0,150,2.0,0.0
10787,69.0,0,150,7.0,0.0
10788,77.0,0,150,6.0,0.0
10789,43.0,0,150,11.0,0.0
10790,43.0,0,150,12.0,0.0
10791,74.0,0,150,6.0,0.0
10792,67.0,0,150,6.0,0.0
10793,55.0,0,150,10.0,0.0
10794,74.0,0,360,3.0,0.0
10795,55.0,0,150,2.0,0.0
10796,74.0,0,150,0.0,0.0
10797,55.0,0,150,1.0,0.0
10798,43.0,12,390,4.0,0.0
10799,71.0,0,150,0.0,0.0
10800,83.0,204,150,5.0,0.0
10801,67.0,0,150,7.0,0.0
10802,74.0,0,150,5.0,0.0
10803,67.0,24,360,3.0,0.0
10804,62.0,0,150,2.0,0.0
10805,74.0,0,150,0.0,0.0
10806,71.0,0,150,0.0,0.0
10807,62.0,0,150,2.0,0.0
10808,55.0,0,150,2.0,0.0
10809,55.0,0,150,10.0,0.0
10810,74.0,0,150,5.0,0.0
10811,83.0,0,150,5.0,0.0
10812,74.0,0,150,6.0,0.0
10813,67.0,0,150,6.0,0.0
10814,55.0,0,150,1.0,0.0
10815,67.0,0,150,7.0,0.0
10816,43.0,0,150,12.0,0.0
10817,43.0,240,150,11.0,0.0
10818,48.0,0,390,1.0,0.0
10819,52.0,0,390,2.0,0.0
10820,60.0,0,390,2.0,0.0
10821,72.0,0,390,6.0,0.0
10822,48.0,0,150,10.0,0.0
10823,36.0,0,390,12.0,0.0
10824,67.0,228,150,7.0,0.0
10825,48.0,0,390,4.0,0.0
10826,64.0,0,390,3.0,0.0
10827,84.0,0,390,5.0,0.0
10828,76.0,0,390,5.0,0.0
10829,76.0,0,390,6.0,0.0
10830,36.0,12,390,11.0,0.0
10831,72.0,0,390,0.0,0.0
10832,72.0,0,390,3.0,0.0
10833,64.0,0,150,7.0,0.0
10834,60.0,240,150,10.0,0.0
10835,67.0,0,150,7.0,0.0
10836,60.0,0,150,10.0,0.0
10837,67.0,240,150,7.0,0.0
10838,64.0,0,150,7.0,0.0
10839,64.0,0,150,7.0,0.0
10840,60.0,0,150,10.0,0.0
10841,67.0,204,150,7.0,0.0
10842,67.0,60,180,7.0,0.0
10843,43.0,36,390,12.0,0.0
10844,62.0,0,180,10.0,0.0
10845,43.0,0,390,11.0,0.0
10846,65.0,60,120,6.0,0.0
10847,77.0,0,120,5.0,0.0
10848,65.0,0,180,7.0,0.0
10849,64.0,120,120,6.0,0.0
10850,76.0,0,120,5.0,0.0
10851,65.0,0,180,7.0,0.0
10852,62.0,0,180,10.0,0.0
10853,62.0,24,120,6.0,0.0
10854,67.0,60,180,7.0,0.0
10855,74.0,0,120,5.0,0.0
10856,64.0,120,120,6.0,0.0
10857,76.0,0,120,5.0,0.0
10858,62.0,0,180,10.0,0.0
10859,65.0,0,180,7.0,0.0
10860,77.0,60,120,5.0,0.0
10861,65.0,0,120,6.0,0.0
10862,67.0,60,180,7.0,0.0
10863,67.0,120,120,6.0,0.0
10864,79.0,0,120,5.0,0.0
10865,62.0,36,180,10.0,0.0
10866,81.0,0,120,5.0,0.0
10867,69.0,60,120,6.0,0.0
10868,65.0,0,180,7.0,0.0
10869,67.0,0,180,7.0,0.0
10870,83.0,0,90,5.0,0.0
10871,71.0,144,90,6.0,0.0
10872,48.0,0,390,12.0,0.0
10873,84.0,60,120,5.0,0.0
10874,72.0,0,120,6.0,0.0
10875,48.0,36,390,11.0,0.0
10876,64.0,60,180,7.0,0.0
10877,67.0,0,180,7.0,0.0
10878,60.0,0,180,10.0,0.0
10879,83.0,120,120,5.0,0.0
10880,71.0,0,120,6.0,0.0
10881,72.0,0,120,6.0,0.0
10882,84.0,24,120,5.0,0.0
10883,67.0,0,180,7.0,0.0
10884,64.0,60,180,7.0,0.0
10885,60.0,0,180,10.0,0.0
10886,71.0,0,120,6.0,0.0
10887,83.0,120,120,5.0,0.0
10888,84.0,0,120,5.0,0.0
10889,72.0,60,120,6.0,0.0
10890,60.0,60,180,10.0,0.0
10891,64.0,0,180,7.0,0.0
10892,67.0,0,180,7.0,0.0
10893,71.0,0,120,6.0,0.0
10894,83.0,120,120,5.0,0.0
10895,69.0,0,120,6.0,0.0
10896,64.0,0,180,7.0,0.0
10897,67.0,36,180,7.0,0.0
10898,60.0,0,180,10.0,0.0
10899,81.0,60,120,5.0,0.0
10900,67.0,0,90,6.0,0.0
10901,79.0,144,90,5.0,0.0
10902,65.0,0,120,6.0,0.0
10903,62.0,0,180,10.0,0.0
10904,77.0,60,120,5.0,0.0
10905,43.0,36,390,11.0,0.0
10906,65.0,60,180,7.0,0.0
10907,67.0,0,180,7.0,0.0
10908,43.0,0,390,12.0,0.0
10909,76.0,120,120,5.0,0.0
10910,64.0,0,120,6.0,0.0
10911,74.0,0,120,5.0,0.0
10912,62.0,0,180,10.0,0.0
10913,67.0,60,180,7.0,0.0
10914,62.0,24,120,6.0,0.0
10915,65.0,0,180,7.0,0.0
10916,76.0,0,120,5.0,0.0
10917,64.0,120,120,6.0,0.0
10918,65.0,0,180,7.0,0.0
10919,67.0,60,180,7.0,0.0
10920,77.0,0,120,5.0,0.0
10921,65.0,60,120,6.0,0.0
10922,62.0,0,180,10.0,0.0
10923,79.0,0,120,5.0,0.0
10924,67.0,120,120,6.0,0.0
10925,67.0,0,180,7.0,0.0
10926,81.0,0,120,5.0,0.0
10927,65.0,0,180,7.0,0.0
10928,62.0,36,180,10.0,0.0
10929,69.0,60,120,6.0,0.0
10930,71.0,0,90,6.0,0.0
10931,83.0,204,90,5.0,0.0
10932,36.0,36,390,11.0,0.0
10933,67.0,0,5700,0.0,0.0
10934,36.0,0,390,12.0,0.0
10935,83.0,0,240,5.0,0.0
10936,79.0,24,5700,0.0,0.0
10937,71.0,144,240,6.0,0.0
10938,60.0,0,180,10.0,0.0
10939,64.0,60,180,7.0,0.0
10940,67.0,0,180,7.0,0.0
10941,84.0,0,240,5.0,0.0
10942,72.0,180,240,6.0,0.0
10943,64.0,0,180,7.0,0.0
10944,60.0,60,180,10.0,0.0
10945,67.0,0,180,7.0,0.0
10946,64.0,0,180,7.0,0.0
10947,67.0,0,180,7.0,0.0
10948,79.0,0,180,5.0,0.0
10949,60.0,12,180,10.0,0.0
10950,67.0,228,180,6.0,0.0
10951,64.0,0,180,7.0,0.0
10952,67.0,0,180,7.0,0.0
10953,60.0,180,180,10.0,0.0
10954,77.0,60,120,5.0,0.0
10955,65.0,0,120,6.0,0.0
10956,43.0,0,390,12.0,0.0
10957,43.0,36,390,11.0,0.0
10958,67.0,0,180,7.0,0.0
10959,65.0,60,180,7.0,0.0
10960,62.0,0,180,10.0,0.0
10961,76.0,0,120,5.0,0.0
10962,64.0,120,120,6.0,0.0
10963,62.0,60,180,10.0,0.0
10964,67.0,0,180,7.0,0.0
10965,65.0,0,180,7.0,0.0
10966,62.0,24,120,6.0,0.0
10967,74.0,0,120,5.0,0.0
10968,76.0,0,120,5.0,0.0
10969,64.0,120,120,6.0,0.0
10970,77.0,0,120,5.0,0.0
10971,67.0,60,180,7.0,0.0
10972,65.0,0,180,7.0,0.0
10973,62.0,0,180,10.0,0.0
10974,65.0,60,120,6.0,0.0
10975,79.0,120,120,5.0,0.0
10976,67.0,0,120,6.0,0.0
10977,62.0,36,180,10.0,0.0
10978,69.0,0,120,6.0,0.0
10979,81.0,60,120,5.0,0.0
10980,67.0,0,180,7.0,0.0
10981,65.0,0,180,7.0,0.0
10982,83.0,0,90,5.0,0.0
10983,71.0,144,90,6.0,0.0
10984,84.0,60,120,5.0,0.0
10985,72.0,0,120,6.0,0.0
10986,48.0,0,390,12.0,0.0
10987,48.0,36,390,11.0,0.0
10988,67.0,60,180,7.0,0.0
10989,64.0,0,180,7.0,0.0
10990,60.0,0,180,10.0,0.0
10991,83.0,120,120,5.0,0.0
10992,71.0,0,120,6.0,0.0
10993,84.0,0,120,5.0,0.0
10994,60.0,60,180,10.0,0.0
10995,72.0,24,120,6.0,0.0
10996,67.0,0,180,7.0,0.0
10997,64.0,0,180,7.0,0.0
10998,83.0,0,120,5.0,0.0
10999,71.0,120,120,6.0,0.0
11000,67.0,0,180,7.0,0.0
11001,64.0,0,180,7.0,0.0
11002,72.0,60,120,6.0,0.0
11003,60.0,60,180,10.0,0.0
11004,84.0,0,120,5.0,0.0
11005,71.0,120,120,6.0,0.0
11006,83.0,0,120,5.0,0.0
11007,81.0,60,120,5.0,0.0
11008,64.0,36,180,7.0,0.0
11009,60.0,0,180,10.0,0.0
11010,69.0,0,120,6.0,0.0
11011,67.0,0,180,7.0,0.0
11012,79.0,0,90,5.0,0.0
11013,67.0,144,90,6.0,0.0
11014,77.0,60,120,5.0,0.0
11015,43.0,0,390,12.0,0.0
11016,67.0,60,180,7.0,0.0
11017,65.0,0,180,7.0,0.0
11018,62.0,0,180,10.0,0.0
11019,43.0,36,390,11.0,0.0
11020,65.0,0,120,6.0,0.0
11021,76.0,0,120,5.0,0.0
11022,64.0,120,120,6.0,0.0
11023,74.0,0,120,5.0,0.0
11024,62.0,24,120,6.0,0.0
11025,65.0,0,180,7.0,0.0
11026,67.0,0,180,7.0,0.0
11027,62.0,60,180,10.0,0.0
11028,76.0,0,120,5.0,0.0
11029,64.0,120,120,6.0,0.0
11030,62.0,0,180,10.0,0.0
11031,77.0,60,120,5.0,0.0
11032,65.0,0,180,7.0,0.0
11033,65.0,0,120,6.0,0.0
11034,67.0,60,180,7.0,0.0
11035,79.0,0,120,5.0,0.0
11036,67.0,120,120,6.0,0.0
11037,81.0,0,120,5.0,0.0
11038,62.0,36,180,10.0,0.0
11039,65.0,0,180,7.0,0.0
11040,67.0,0,180,7.0,0.0
11041,69.0,60,120,6.0,0.0
11042,71.0,204,90,6.0,0.0
11043,83.0,0,90,5.0,0.0
11044,36.0,0,390,11.0,0.0
11045,71.0,0,240,6.0,0.0
11046,83.0,144,240,5.0,0.0
11047,36.0,36,390,12.0,0.0
11048,64.0,60,180,7.0,0.0
11049,60.0,0,180,10.0,0.0
11050,67.0,0,180,7.0,0.0
11051,67.0,60,180,7.0,0.0
11052,60.0,0,180,10.0,0.0
11053,72.0,180,240,6.0,0.0
11054,64.0,0,180,7.0,0.0
11055,84.0,0,240,5.0,0.0
11056,67.0,0,180,7.0,0.0
11057,79.0,228,180,5.0,0.0
11058,67.0,0,180,6.0,0.0
11059,60.0,12,180,10.0,0.0
11060,64.0,0,180,7.0,0.0
11061,60.0,180,180,10.0,0.0
11062,64.0,0,180,7.0,0.0
11063,67.0,0,180,7.0,0.0
11064,65.0,0,180,7.0,0.0
11065,67.0,60,180,7.0,0.0
11066,43.0,0,390,11.0,0.0
11067,77.0,60,120,5.0,0.0
11068,43.0,36,390,12.0,0.0
11069,62.0,0,180,10.0,0.0
11070,65.0,0,120,6.0,0.0
11071,76.0,120,120,5.0,0.0
11072,64.0,0,120,6.0,0.0
11073,74.0,0,120,5.0,0.0
11074,62.0,24,120,6.0,0.0
11075,62.0,0,180,10.0,0.0
11076,67.0,0,180,7.0,0.0
11077,65.0,60,180,7.0,0.0
11078,64.0,120,120,6.0,0.0
11079,76.0,0,120,5.0,0.0
11080,77.0,60,120,5.0,0.0
11081,65.0,0,180,7.0,0.0
11082,65.0,0,120,6.0,0.0
11083,62.0,60,180,10.0,0.0
11084,67.0,0,180,7.0,0.0
11085,67.0,120,120,6.0,0.0
11086,79.0,0,120,5.0,0.0
11087,62.0,12,180,10.0,0.0
11088,65.0,0,180,7.0,0.0
11089,67.0,0,180,7.0,0.0
11090,81.0,0,120,5.0,0.0
11091,69.0,60,120,6.0,0.0
11092,71.0,0,90,6.0,0.0
11093,83.0,144,90,5.0,0.0
11094,48.0,0,780,2.0,0.0
11095,72.0,0,360,6.0,0.0
11096,72.0,0,390,3.0,0.0
11097,60.0,72,780,2.0,0.0
11098,60.0,96,390,3.0,0.0
11099,64.0,0,360,7.0,0.0
11100,67.0,24,360,7.0,0.0
11101,48.0,0,600,11.0,0.0
11102,60.0,0,600,1.0,0.0
11103,84.0,0,600,0.0,0.0
11104,60.0,0,600,10.0,0.0
11105,48.0,0,600,12.0,0.0
11106,84.0,120,120,5.0,0.0
11107,48.0,0,390,4.0,0.0
11108,83.0,120,120,5.0,0.0
11109,84.0,0,120,5.0,0.0
11110,83.0,120,120,5.0,0.0
11111,84.0,0,120,6.0,0.0
11112,84.0,120,120,5.0,0.0
11113,72.0,0,120,7.0,0.0
11114,47.0,0,120,12.0,0.0
11115,83.0,0,120,0.0,0.0
11116,59.0,0,120,1.0,0.0
11117,83.0,0,120,6.0,0.0
11118,71.0,48,120,7.0,0.0
11119,47.0,0,120,11.0,0.0
11120,59.0,0,120,10.0,0.0
11121,83.0,0,120,5.0,0.0
11122,57.0,0,120,1.0,0.0
11123,45.0,0,120,12.0,0.0
11124,81.0,0,120,0.0,0.0
11125,81.0,0,120,5.0,0.0
11126,81.0,0,120,6.0,0.0
11127,69.0,96,120,7.0,0.0
11128,57.0,0,120,10.0,0.0
11129,45.0,0,120,11.0,0.0
11130,44.0,0,90,11.0,0.0
11131,80.0,144,90,0.0,0.0
11132,80.0,0,90,6.0,0.0
11133,56.0,0,90,1.0,0.0
11134,44.0,0,90,12.0,0.0
11135,80.0,0,90,5.0,0.0
11136,56.0,0,90,10.0,0.0
11137,68.0,0,90,7.0,0.0
11138,81.0,120,120,6.0,0.0
11139,48.0,0,780,2.0,0.0
11140,81.0,0,120,5.0,0.0
11141,81.0,120,600,0.0,0.0
11142,72.0,0,390,3.0,0.0
11143,45.0,0,600,11.0,0.0
11144,57.0,0,600,10.0,0.0
11145,60.0,0,390,3.0,0.0
11146,60.0,72,780,2.0,0.0
11147,57.0,0,600,1.0,0.0
11148,48.0,96,390,4.0,0.0
11149,45.0,0,600,12.0,0.0
11150,69.0,0,600,7.0,0.0
11151,80.0,0,120,5.0,0.0
11152,80.0,120,120,6.0,0.0
11153,81.0,0,120,5.0,0.0
11154,81.0,24,120,6.0,0.0
11155,80.0,0,120,5.0,0.0
11156,80.0,120,120,6.0,0.0
11157,81.0,0,120,6.0,0.0
11158,81.0,0,120,5.0,0.0
11159,55.0,0,120,1.0,0.0
11160,79.0,0,120,0.0,0.0
11161,43.0,0,120,12.0,0.0
11162,55.0,48,120,10.0,0.0
11163,79.0,0,120,5.0,0.0
11164,43.0,0,120,11.0,0.0
11165,79.0,0,120,6.0,0.0
11166,67.0,0,120,7.0,0.0
11167,41.0,0,120,12.0,0.0
11168,65.0,0,120,7.0,0.0
11169,77.0,0,120,5.0,0.0
11170,53.0,0,120,1.0,0.0
11171,41.0,96,120,11.0,0.0
11172,53.0,0,120,10.0,0.0
11173,77.0,0,120,0.0,0.0
11174,77.0,0,120,6.0,0.0
11175,76.0,0,90,5.0,0.0
11176,40.0,0,90,11.0,0.0
11177,40.0,0,90,12.0,0.0
11178,64.0,0,90,7.0,0.0
11179,52.0,0,90,1.0,0.0
11180,76.0,144,90,6.0,0.0
11181,76.0,0,90,0.0,0.0
11182,52.0,0,90,10.0,0.0
11183,65.0,0,600,7.0,0.0
11184,77.0,120,120,5.0,0.0
11185,53.0,0,600,1.0,0.0
11186,53.0,0,600,10.0,0.0
11187,77.0,120,600,0.0,0.0
11188,41.0,0,600,12.0,0.0
11189,77.0,0,120,6.0,0.0
11190,41.0,0,600,11.0,0.0
11191,76.0,120,120,6.0,0.0
11192,76.0,0,120,5.0,0.0
11193,77.0,0,120,5.0,0.0
11194,77.0,120,120,6.0,0.0
11195,76.0,0,120,6.0,0.0
11196,76.0,120,120,5.0,0.0
11197,77.0,0,120,6.0,0.0
11198,77.0,0,120,5.0,0.0
11199,76.0,0,120,5.0,0.0
11200,52.0,0,120,10.0,0.0
11201,76.0,0,120,6.0,0.0
11202,64.0,0,120,7.0,0.0
11203,52.0,120,120,1.0,0.0
11204,40.0,0,120,12.0,0.0
11205,40.0,0,120,11.0,0.0
11206,76.0,0,120,0.0,0.0
11207,74.0,0,120,0.0,0.0
11208,38.0,0,120,12.0,0.0
11209,74.0,0,120,6.0,0.0
11210,50.0,0,120,10.0,0.0
11211,50.0,96,120,1.0,0.0
11212,74.0,0,120,5.0,0.0
11213,62.0,0,120,7.0,0.0
11214,38.0,0,120,11.0,0.0
11215,73.0,0,90,5.0,0.0
11216,49.0,0,90,10.0,0.0
11217,73.0,144,90,6.0,0.0
11218,49.0,0,90,1.0,0.0
11219,37.0,0,90,12.0,0.0
11220,37.0,0,90,11.0,0.0
11221,73.0,0,90,0.0,0.0
11222,61.0,0,90,7.0,0.0
11223,74.0,0,120,5.0,0.0
11224,74.0,96,390,3.0,0.0
11225,74.0,120,120,6.0,0.0
11226,50.0,0,600,10.0,0.0
11227,62.0,0,600,7.0,0.0
11228,62.0,72,780,2.0,0.0
11229,38.0,0,600,12.0,0.0
11230,38.0,0,600,11.0,0.0
11231,74.0,0,600,0.0,0.0
11232,50.0,0,600,1.0,0.0
11233,73.0,120,120,6.0,0.0
11234,73.0,0,120,5.0,0.0
11235,74.0,24,120,5.0,0.0
11236,74.0,0,120,6.0,0.0
11237,73.0,0,120,5.0,0.0
11238,73.0,120,120,6.0,0.0
11239,74.0,0,120,6.0,0.0
11240,74.0,120,120,5.0,0.0
11241,72.0,0,120,5.0,0.0
11242,36.0,48,120,11.0,0.0
11243,36.0,0,120,12.0,0.0
11244,60.0,0,120,7.0,0.0
11245,72.0,0,120,0.0,0.0
11246,48.0,0,120,1.0,0.0
11247,72.0,0,120,6.0,0.0
11248,48.0,0,120,10.0,0.0
11249,71.0,0,120,6.0,0.0
11250,71.0,0,120,5.0,0.0
11251,71.0,0,120,0.0,0.0
11252,59.0,0,120,7.0,0.0
11253,47.0,0,120,1.0,0.0
11254,35.0,0,120,11.0,0.0
11255,35.0,0,120,12.0,0.0
11256,47.0,96,120,10.0,0.0
11257,57.0,192,90,7.0,0.0
11258,69.0,0,90,0.0,0.0
11259,69.0,0,90,5.0,0.0
11260,45.0,0,90,10.0,0.0
11261,45.0,0,90,1.0,0.0
11262,33.0,0,90,11.0,0.0
11263,69.0,0,90,6.0,0.0
11264,33.0,0,90,12.0,0.0
11265,67.0,0,180,6.0,0.0
11266,43.0,0,180,1.0,0.0
11267,67.0,0,330,3.0,0.0
11268,67.0,48,330,0.0,0.0
11269,31.0,0,180,11.0,0.0
11270,55.0,0,180,7.0,0.0
11271,43.0,0,180,10.0,0.0
11272,31.0,168,180,12.0,0.0
11273,67.0,0,180,5.0,0.0
11274,55.0,0,330,2.0,0.0
11275,43.0,24,390,4.0,0.0
11276,43.0,0,180,11.0,0.0
11277,83.0,168,240,5.0,0.0
11278,55.0,72,180,1.0,0.0
11279,43.0,0,180,12.0,0.0
11280,55.0,0,180,10.0,0.0
11281,83.0,0,240,6.0,0.0
11282,67.0,0,180,7.0,0.0
11283,84.0,0,180,6.0,0.0
11284,48.0,24,390,4.0,0.0
11285,76.0,48,330,3.0,0.0
11286,72.0,0,810,3.0,0.0
11287,57.0,168,180,1.0,0.0
11288,57.0,0,180,10.0,0.0
11289,72.0,0,810,0.0,0.0
11290,64.0,0,330,2.0,0.0
11291,45.0,0,180,12.0,0.0
11292,45.0,0,180,11.0,0.0
11293,84.0,0,180,5.0,0.0
11294,60.0,0,810,2.0,0.0
11295,69.0,0,180,7.0,0.0
11296,76.0,0,330,0.0,0.0
11297,45.0,0,180,11.0,0.0
11298,57.0,0,180,1.0,0.0
11299,72.0,0,180,5.0,0.0
11300,69.0,0,180,7.0,0.0
11301,57.0,240,180,10.0,0.0
11302,72.0,0,180,6.0,0.0
11303,45.0,0,180,12.0,0.0
11304,41.0,0,180,11.0,0.0
11305,53.0,0,180,10.0,0.0
11306,65.0,168,180,5.0,0.0
11307,65.0,0,180,7.0,0.0
11308,53.0,0,180,1.0,0.0
11309,62.0,48,330,2.0,0.0
11310,74.0,0,330,3.0,0.0
11311,41.0,0,180,12.0,0.0
11312,65.0,0,180,6.0,0.0
11313,74.0,0,330,0.0,0.0
11314,48.0,24,390,4.0,0.0
11315,81.0,0,180,6.0,0.0
11316,65.0,0,180,7.0,0.0
11317,53.0,0,180,1.0,0.0
11318,41.0,0,180,11.0,0.0
11319,53.0,240,180,10.0,0.0
11320,81.0,0,180,5.0,0.0
11321,41.0,0,180,12.0,0.0
11322,43.0,0,180,11.0,0.0
11323,62.0,0,330,2.0,0.0
11324,43.0,24,390,4.0,0.0
11325,74.0,0,330,0.0,0.0
11326,71.0,0,330,0.0,0.0
11327,67.0,168,180,7.0,0.0
11328,74.0,48,330,3.0,0.0
11329,43.0,0,180,12.0,0.0
11330,67.0,0,330,3.0,0.0
11331,55.0,0,330,2.0,0.0
11332,55.0,0,180,6.0,0.0
11333,55.0,0,180,10.0,0.0
11334,55.0,0,180,1.0,0.0
11335,55.0,0,180,5.0,0.0
11336,71.0,0,180,6.0,0.0
11337,43.0,0,180,11.0,0.0
11338,67.0,0,180,7.0,0.0
11339,43.0,0,180,12.0,0.0
11340,55.0,0,180,1.0,0.0
11341,71.0,0,180,5.0,0.0
11342,55.0,252,180,10.0,0.0
11343,72.0,132,1740,3.0,0.0
11344,72.0,132,780,0.0,0.0
11345,60.0,0,1740,3.0,0.0
11346,48.0,0,180,10.0,0.0
11347,60.0,0,180,7.0,0.0
11348,36.0,0,180,11.0,0.0
11349,60.0,0,180,2.0,0.0
11350,48.0,192,180,2.0,0.0
11351,72.0,0,780,5.0,0.0
11352,72.0,0,180,6.0,0.0
11353,48.0,0,180,1.0,0.0
11354,36.0,12,180,12.0,0.0
11355,48.0,36,390,4.0,0.0
11356,48.0,192,180,2.0,0.0
11357,60.0,0,180,2.0,0.0
11358,48.0,0,180,1.0,0.0
11359,60.0,0,180,7.0,0.0
11360,36.0,0,180,11.0,0.0
11361,72.0,36,390,6.0,0.0
11362,36.0,0,180,12.0,0.0
11363,48.0,12,180,10.0,0.0
11364,48.0,0,180,2.0,0.0
11365,60.0,96,180,2.0,0.0
11366,60.0,12,180,7.0,0.0
11367,48.0,0,180,1.0,0.0
11368,36.0,0,180,12.0,0.0
11369,36.0,0,180,11.0,0.0
11370,48.0,0,180,10.0,0.0
11371,48.0,0,180,10.0,0.0
11372,36.0,12,180,12.0,0.0
11373,60.0,0,180,7.0,0.0
11374,36.0,0,180,11.0,0.0
11375,72.0,0,420,6.0,0.0
11376,48.0,228,180,2.0,0.0
11377,60.0,0,180,2.0,0.0
11378,48.0,0,180,1.0,0.0
11379,77.0,0,720,0.0,0.0
11380,57.0,0,180,10.0,0.0
11381,69.0,0,180,7.0,0.0
11382,60.0,192,180,2.0,0.0
11383,77.0,48,720,5.0,0.0
11384,48.0,0,180,2.0,0.0
11385,48.0,36,390,4.0,0.0
11386,57.0,0,180,1.0,0.0
11387,45.0,12,180,11.0,0.0
11388,45.0,0,180,12.0,0.0
11389,72.0,36,390,6.0,0.0
11390,57.0,0,180,1.0,0.0
11391,48.0,0,180,2.0,0.0
11392,57.0,0,180,10.0,0.0
11393,45.0,0,180,12.0,0.0
11394,45.0,0,180,11.0,0.0
11395,60.0,192,180,2.0,0.0
11396,69.0,12,180,7.0,0.0
11397,60.0,48,180,2.0,0.0
11398,48.0,0,180,2.0,0.0
11399,45.0,12,180,12.0,0.0
11400,57.0,0,180,1.0,0.0
11401,45.0,0,180,11.0,0.0
11402,57.0,0,180,10.0,0.0
11403,69.0,0,180,7.0,0.0
11404,43.0,0,180,11.0,0.0
11405,76.0,0,180,0.0,0.0
11406,55.0,0,180,10.0,0.0
11407,76.0,0,180,5.0,0.0
11408,55.0,0,180,1.0,0.0
11409,67.0,0,180,7.0,0.0
11410,72.0,0,420,6.0,0.0
11411,60.0,108,180,2.0,0.0
11412,48.0,0,180,2.0,0.0
11413,43.0,12,180,12.0,0.0
11414,41.0,12,180,12.0,0.0
11415,76.0,120,60,0.0,0.0
11416,41.0,0,180,11.0,0.0
11417,60.0,36,390,3.0,0.0
11418,53.0,0,180,10.0,0.0
11419,60.0,0,180,2.0,0.0
11420,48.0,48,180,2.0,0.0
11421,48.0,0,390,4.0,0.0
11422,65.0,0,180,7.0,0.0
11423,53.0,0,180,1.0,0.0
11424,76.0,0,60,5.0,0.0
11425,72.0,0,390,3.0,0.0
11426,74.0,144,180,5.0,0.0
11427,74.0,0,180,0.0,0.0
11428,40.0,12,180,12.0,0.0
11429,64.0,0,180,7.0,0.0
11430,73.0,108,180,0.0,0.0
11431,40.0,0,180,11.0,0.0
11432,60.0,0,180,2.0,0.0
11433,73.0,0,180,5.0,0.0
11434,52.0,0,180,10.0,0.0
11435,72.0,36,390,6.0,0.0
11436,52.0,0,180,1.0,0.0
11437,48.0,0,180,2.0,0.0
11438,48.0,0,390,4.0,0.0
11439,53.0,0,180,10.0,0.0
11440,72.0,36,390,3.0,0.0
11441,76.0,0,60,0.0,0.0
11442,60.0,48,180,2.0,0.0
11443,60.0,0,390,3.0,0.0
11444,41.0,12,180,11.0,0.0
11445,53.0,0,180,1.0,0.0
11446,65.0,0,180,7.0,0.0
11447,76.0,84,60,5.0,0.0
11448,41.0,0,180,12.0,0.0
11449,48.0,0,180,2.0,0.0
11450,74.0,144,180,0.0,0.0
11451,74.0,0,180,5.0,0.0
11452,64.0,0,180,7.0,0.0
11453,40.0,0,180,11.0,0.0
11454,52.0,0,180,1.0,0.0
11455,40.0,12,180,12.0,0.0
11456,73.0,0,180,0.0,0.0
11457,73.0,228,180,5.0,0.0
11458,60.0,0,180,2.0,0.0
11459,72.0,0,420,6.0,0.0
11460,52.0,0,180,10.0,0.0
11461,48.0,0,180,2.0,0.0
11462,41.0,0,180,12.0,0.0
11463,72.0,0,390,3.0,0.0
11464,74.0,180,720,0.0,0.0
11465,48.0,0,180,2.0,0.0
11466,60.0,36,390,3.0,0.0
11467,74.0,0,720,5.0,0.0
11468,65.0,0,180,7.0,0.0
11469,60.0,192,180,2.0,0.0
11470,41.0,0,180,11.0,0.0
11471,48.0,0,390,4.0,0.0
11472,53.0,0,180,10.0,0.0
11473,53.0,12,180,1.0,0.0
11474,41.0,12,180,11.0,0.0
11475,65.0,0,180,7.0,0.0
11476,72.0,36,390,6.0,0.0
11477,41.0,0,180,12.0,0.0
11478,53.0,0,180,10.0,0.0
11479,48.0,192,180,2.0,0.0
11480,53.0,0,180,1.0,0.0
11481,60.0,0,180,2.0,0.0
11482,41.0,0,180,12.0,0.0
11483,41.0,0,180,11.0,0.0
11484,60.0,48,180,2.0,0.0
11485,48.0,0,180,2.0,0.0
11486,53.0,0,180,10.0,0.0
11487,65.0,0,180,7.0,0.0
11488,53.0,12,180,1.0,0.0
11489,43.0,0,180,12.0,0.0
11490,76.0,0,180,5.0,0.0
11491,76.0,0,180,0.0,0.0
11492,72.0,48,420,6.0,0.0
11493,67.0,0,180,7.0,0.0
11494,43.0,0,180,11.0,0.0
11495,60.0,0,180,2.0,0.0
11496,48.0,108,180,2.0,0.0
11497,55.0,0,180,1.0,0.0
11498,55.0,12,180,10.0,0.0
11499,45.0,0,180,11.0,0.0
11500,79.0,0,60,0.0,0.0
11501,79.0,120,60,5.0,0.0
11502,57.0,0,180,1.0,0.0
11503,57.0,0,180,10.0,0.0
11504,60.0,0,180,2.0,0.0
11505,48.0,0,180,2.0,0.0
11506,45.0,0,180,12.0,0.0
11507,60.0,0,390,3.0,0.0
11508,72.0,0,390,3.0,0.0
11509,48.0,36,390,4.0,0.0
11510,69.0,12,180,7.0,0.0
11511,77.0,144,180,5.0,0.0
11512,77.0,0,180,0.0,0.0
11513,48.0,0,180,2.0,0.0
11514,76.0,0,180,0.0,0.0
11515,72.0,36,390,6.0,0.0
11516,44.0,0,180,11.0,0.0
11517,56.0,0,180,10.0,0.0
11518,56.0,0,180,1.0,0.0
11519,60.0,108,180,2.0,0.0
11520,44.0,0,180,12.0,0.0
11521,68.0,12,180,7.0,0.0
11522,76.0,0,180,5.0,0.0
11523,79.0,84,60,5.0,0.0
11524,48.0,48,180,2.0,0.0
11525,57.0,0,180,1.0,0.0
11526,48.0,0,390,4.0,0.0
11527,60.0,0,180,2.0,0.0
11528,45.0,0,180,12.0,0.0
11529,69.0,12,180,7.0,0.0
11530,57.0,0,180,10.0,0.0
11531,45.0,0,180,11.0,0.0
11532,60.0,36,390,3.0,0.0
11533,72.0,0,390,3.0,0.0
11534,79.0,0,60,0.0,0.0
11535,77.0,144,180,5.0,0.0
11536,77.0,0,180,0.0,0.0
11537,76.0,0,180,5.0,0.0
11538,76.0,228,180,0.0,0.0
11539,68.0,0,180,7.0,0.0
11540,72.0,0,420,6.0,0.0
11541,44.0,0,180,12.0,0.0
11542,56.0,12,180,10.0,0.0
11543,48.0,0,180,2.0,0.0
11544,60.0,0,180,2.0,0.0
11545,56.0,0,180,1.0,0.0
11546,44.0,0,180,11.0,0.0
11547,69.0,0,180,7.0,0.0
11548,48.0,36,390,4.0,0.0
11549,57.0,0,180,10.0,0.0
11550,45.0,0,180,12.0,0.0
11551,77.0,180,720,5.0,0.0
11552,45.0,0,180,11.0,0.0
11553,57.0,12,180,1.0,0.0
11554,60.0,192,180,2.0,0.0
11555,48.0,0,180,2.0,0.0
11556,60.0,0,390,3.0,0.0
11557,72.0,0,390,3.0,0.0
11558,77.0,0,720,0.0,0.0
11559,57.0,0,180,10.0,0.0
11560,69.0,0,180,7.0,0.0
11561,48.0,192,180,2.0,0.0
11562,57.0,0,180,1.0,0.0
11563,72.0,36,390,6.0,0.0
11564,45.0,12,180,12.0,0.0
11565,45.0,0,180,11.0,0.0
11566,60.0,0,180,2.0,0.0
11567,45.0,0,180,12.0,0.0
11568,45.0,0,180,11.0,0.0
11569,48.0,0,180,2.0,0.0
11570,57.0,12,180,1.0,0.0
11571,60.0,48,180,2.0,0.0
11572,69.0,0,180,7.0,0.0
11573,57.0,0,180,10.0,0.0
11574,57.0,0,180,1.0,0.0
11575,45.0,0,180,12.0,0.0
11576,60.0,0,180,2.0,0.0
11577,48.0,0,180,2.0,0.0
11578,45.0,0,180,11.0,0.0
11579,69.0,0,180,7.0,0.0
11580,78.0,0,180,0.0,0.0
11581,57.0,12,180,10.0,0.0
11582,72.0,0,420,6.0,0.0
11583,78.0,108,180,5.0,0.0
11584,81.0,0,60,0.0,0.0
11585,72.0,36,390,3.0,0.0
11586,52.0,0,180,10.0,0.0
11587,48.0,48,180,2.0,0.0
11588,40.0,0,180,11.0,0.0
11589,60.0,0,390,3.0,0.0
11590,60.0,0,180,2.0,0.0
11591,52.0,12,180,1.0,0.0
11592,48.0,0,390,4.0,0.0
11593,81.0,120,60,5.0,0.0
11594,64.0,0,180,7.0,0.0
11595,40.0,0,180,12.0,0.0
11596,79.0,0,180,0.0,0.0
11597,79.0,144,180,5.0,0.0
11598,78.0,108,180,5.0,0.0
11599,63.0,0,180,7.0,0.0
11600,39.0,0,180,11.0,0.0
11601,48.0,0,180,2.0,0.0
11602,78.0,0,180,0.0,0.0
11603,60.0,0,180,2.0,0.0
11604,72.0,36,390,6.0,0.0
11605,51.0,12,180,1.0,0.0
11606,51.0,0,180,10.0,0.0
11607,39.0,0,180,12.0,0.0
11608,81.0,0,60,0.0,0.0
11609,64.0,0,180,7.0,0.0
11610,72.0,0,390,3.0,0.0
11611,60.0,36,390,3.0,0.0
11612,52.0,0,180,10.0,0.0
11613,40.0,12,180,12.0,0.0
11614,52.0,0,180,1.0,0.0
11615,40.0,0,180,11.0,0.0
11616,60.0,0,180,2.0,0.0
11617,48.0,48,180,2.0,0.0
11618,48.0,0,390,4.0,0.0
11619,81.0,84,60,5.0,0.0
11620,79.0,0,180,0.0,0.0
11621,79.0,144,180,5.0,0.0
11622,39.0,0,180,11.0,0.0
11623,60.0,0,180,2.0,0.0
11624,51.0,0,180,10.0,0.0
11625,72.0,192,420,6.0,0.0
11626,78.0,228,180,5.0,0.0
11627,63.0,12,180,7.0,0.0
11628,51.0,0,180,1.0,0.0
11629,39.0,0,180,12.0,0.0
11630,48.0,0,180,2.0,0.0
11631,78.0,0,180,0.0,0.0
11632,52.0,0,180,10.0,0.0
11633,48.0,0,180,2.0,0.0
11634,79.0,120,720,5.0,0.0
11635,48.0,36,390,4.0,0.0
11636,40.0,0,180,11.0,0.0
11637,60.0,0,390,3.0,0.0
11638,72.0,0,390,3.0,0.0
11639,64.0,0,180,7.0,0.0
11640,52.0,0,180,1.0,0.0
11641,60.0,0,180,2.0,0.0
11642,79.0,0,720,0.0,0.0
11643,40.0,12,180,12.0,0.0
11644,40.0,0,180,11.0,0.0
11645,72.0,36,390,6.0,0.0
11646,60.0,0,180,2.0,0.0
11647,48.0,192,180,2.0,0.0
11648,40.0,0,180,12.0,0.0
11649,52.0,0,180,1.0,0.0
11650,64.0,12,180,7.0,0.0
11651,52.0,0,180,10.0,0.0
11652,48.0,0,180,2.0,0.0
11653,52.0,0,180,10.0,0.0
11654,60.0,48,180,2.0,0.0
11655,64.0,12,180,7.0,0.0
11656,40.0,0,180,11.0,0.0
11657,40.0,0,180,12.0,0.0
11658,52.0,0,180,1.0,0.0
11659,67.0,0,180,7.0,0.0
11660,60.0,0,180,2.0,0.0
11661,40.0,0,180,12.0,0.0
11662,77.0,60,120,0.0,0.0
11663,52.0,0,180,1.0,0.0
11664,48.0,24,180,2.0,0.0
11665,72.0,0,180,6.0,0.0
11666,77.0,0,120,5.0,0.0
11667,52.0,12,180,10.0,0.0
11668,40.0,0,180,11.0,0.0
11669,76.0,0,90,0.0,0.0
11670,76.0,204,90,5.0,0.0
11671,62.0,0,780,2.0,0.0
11672,74.0,48,720,6.0,0.0
11673,65.0,72,780,2.0,0.0
11674,53.0,0,180,1.0,0.0
11675,69.0,0,900,0.0,0.0
11676,81.0,0,900,0.0,0.0
11677,74.0,0,720,5.0,0.0
11678,69.0,228,180,7.0,0.0
11679,53.0,12,180,10.0,0.0
11680,41.0,0,180,11.0,0.0
11681,41.0,0,180,12.0,0.0
11682,69.0,228,180,7.0,0.0
11683,41.0,0,180,12.0,0.0
11684,53.0,0,180,1.0,0.0
11685,41.0,0,180,11.0,0.0
11686,53.0,12,180,10.0,0.0
11687,69.0,48,180,7.0,0.0
11688,53.0,0,180,10.0,0.0
11689,41.0,12,180,12.0,0.0
11690,41.0,0,180,11.0,0.0
11691,53.0,0,180,1.0,0.0
11692,41.0,0,180,11.0,0.0
11693,76.0,0,120,5.0,0.0
11694,69.0,24,180,7.0,0.0
11695,53.0,0,180,10.0,0.0
11696,53.0,0,180,1.0,0.0
11697,76.0,60,120,6.0,0.0
11698,41.0,12,180,12.0,0.0
11699,77.0,0,90,6.0,0.0
11700,77.0,204,90,5.0,0.0
11701,43.0,0,180,11.0,0.0
11702,43.0,36,390,4.0,0.0
11703,71.0,0,900,0.0,0.0
11704,55.0,0,180,1.0,0.0
11705,67.0,0,720,5.0,0.0
11706,55.0,204,180,10.0,0.0
11707,67.0,0,780,3.0,0.0
11708,62.0,0,780,2.0,0.0
11709,55.0,72,780,2.0,0.0
11710,59.0,0,720,7.0,0.0
11711,67.0,48,720,6.0,0.0
11712,43.0,0,180,12.0,0.0
11713,65.0,24,900,0.0,0.0
11714,43.0,0,180,12.0,0.0
11715,43.0,0,180,11.0,0.0
11716,55.0,240,180,10.0,0.0
11717,55.0,0,180,1.0,0.0
11718,43.0,0,180,12.0,0.0
11719,55.0,0,180,10.0,0.0
11720,55.0,0,180,1.0,0.0
11721,43.0,60,180,11.0,0.0
11722,69.0,0,120,6.0,0.0
11723,69.0,0,120,5.0,0.0
11724,55.0,12,180,1.0,0.0
11725,60.0,60,120,7.0,0.0
11726,55.0,0,180,10.0,0.0
11727,43.0,0,180,12.0,0.0
11728,43.0,0,180,11.0,0.0
11729,71.0,0,90,5.0,0.0
11730,71.0,204,90,6.0,0.0
11731,62.0,0,90,7.0,0.0
11732,72.0,0,180,5.0,0.0
11733,48.0,0,180,10.0,0.0
11734,36.0,12,180,12.0,0.0
11735,36.0,0,180,11.0,0.0
11736,64.0,144,480,0.0,0.0
11737,72.0,96,780,6.0,0.0
11738,64.0,0,180,7.0,0.0
11739,48.0,0,180,2.0,0.0
11740,48.0,0,180,1.0,0.0
11741,60.0,192,180,2.0,0.0
11742,60.0,132,1740,3.0,0.0
11743,48.0,36,390,4.0,0.0
11744,72.0,0,1740,3.0,0.0
11745,72.0,36,870,0.0,0.0
11746,36.0,0,180,11.0,0.0
11747,60.0,0,180,2.0,0.0
11748,48.0,48,180,2.0,0.0
11749,36.0,12,180,12.0,0.0
11750,84.0,36,390,5.0,0.0
11751,48.0,0,180,1.0,0.0
11752,60.0,0,180,7.0,0.0
11753,48.0,0,180,10.0,0.0
11754,36.0,0,180,11.0,0.0
11755,48.0,12,180,10.0,0.0
11756,48.0,96,180,2.0,0.0
11757,48.0,0,180,1.0,0.0
11758,60.0,0,180,7.0,0.0
11759,60.0,0,180,2.0,0.0
11760,36.0,0,180,12.0,0.0
11761,48.0,0,180,10.0,0.0
11762,48.0,0,180,2.0,0.0
11763,60.0,228,180,2.0,0.0
11764,84.0,0,420,5.0,0.0
11765,36.0,0,180,11.0,0.0
11766,48.0,0,180,1.0,0.0
11767,36.0,0,180,12.0,0.0
11768,60.0,12,180,7.0,0.0
11769,45.0,0,180,12.0,0.0
11770,77.0,0,720,6.0,0.0
11771,48.0,36,390,4.0,0.0
11772,60.0,0,180,2.0,0.0
11773,77.0,48,720,0.0,0.0
11774,48.0,192,180,2.0,0.0
11775,45.0,0,180,11.0,0.0
11776,57.0,0,180,1.0,0.0
11777,57.0,12,180,10.0,0.0
11778,69.0,0,180,7.0,0.0
11779,45.0,0,180,12.0,0.0
11780,57.0,12,180,1.0,0.0
11781,60.0,0,180,2.0,0.0
11782,48.0,192,180,2.0,0.0
11783,45.0,0,180,11.0,0.0
11784,84.0,36,390,5.0,0.0
11785,69.0,0,180,7.0,0.0
11786,57.0,0,180,10.0,0.0
11787,45.0,12,180,11.0,0.0
11788,57.0,0,180,10.0,0.0
11789,57.0,0,180,1.0,0.0
11790,69.0,0,180,7.0,0.0
11791,45.0,0,180,12.0,0.0
11792,48.0,0,180,2.0,0.0
11793,60.0,48,180,2.0,0.0
11794,67.0,0,180,7.0,0.0
11795,76.0,0,180,0.0,0.0
11796,76.0,0,180,6.0,0.0
11797,60.0,108,180,2.0,0.0
11798,55.0,12,180,10.0,0.0
11799,48.0,0,180,2.0,0.0
11800,43.0,0,180,11.0,0.0
11801,55.0,0,180,1.0,0.0
11802,43.0,0,180,12.0,0.0
11803,84.0,48,420,5.0,0.0
11804,53.0,12,180,10.0,0.0
11805,48.0,0,180,2.0,0.0
11806,60.0,0,390,3.0,0.0
11807,65.0,0,180,7.0,0.0
11808,76.0,0,60,0.0,0.0
11809,41.0,0,180,12.0,0.0
11810,53.0,0,180,1.0,0.0
11811,76.0,120,60,6.0,0.0
11812,41.0,0,180,11.0,0.0
11813,60.0,0,180,2.0,0.0
11814,72.0,0,390,3.0,0.0
11815,48.0,36,390,4.0,0.0
11816,74.0,144,180,0.0,0.0
11817,74.0,0,180,6.0,0.0
11818,48.0,0,180,2.0,0.0
11819,52.0,0,180,10.0,0.0
11820,52.0,0,180,1.0,0.0
11821,40.0,0,180,12.0,0.0
11822,40.0,12,180,11.0,0.0
11823,84.0,36,390,5.0,0.0
11824,60.0,0,180,2.0,0.0
11825,73.0,0,180,6.0,0.0
11826,73.0,108,180,0.0,0.0
11827,64.0,0,180,7.0,0.0
11828,76.0,84,60,6.0,0.0
11829,41.0,0,180,12.0,0.0
11830,65.0,0,180,7.0,0.0
11831,60.0,36,390,3.0,0.0
11832,53.0,12,180,10.0,0.0
11833,48.0,48,180,2.0,0.0
11834,60.0,0,180,2.0,0.0
11835,48.0,0,390,4.0,0.0
11836,72.0,0,390,3.0,0.0
11837,41.0,0,180,11.0,0.0
11838,53.0,0,180,1.0,0.0
11839,76.0,0,60,0.0,0.0
11840,74.0,144,180,6.0,0.0
11841,74.0,0,180,0.0,0.0
11842,64.0,0,180,7.0,0.0
11843,73.0,228,180,0.0,0.0
11844,52.0,0,180,1.0,0.0
11845,52.0,12,180,10.0,0.0
11846,40.0,0,180,12.0,0.0
11847,84.0,0,420,5.0,0.0
11848,48.0,0,180,2.0,0.0
11849,60.0,0,180,2.0,0.0
11850,73.0,0,180,6.0,0.0
11851,40.0,0,180,11.0,0.0
11852,53.0,0,180,10.0,0.0
11853,72.0,0,390,3.0,0.0
11854,60.0,0,390,3.0,0.0
11855,74.0,180,720,0.0,0.0
11856,48.0,36,390,4.0,0.0
11857,41.0,0,180,12.0,0.0
11858,74.0,0,720,6.0,0.0
11859,65.0,0,180,7.0,0.0
11860,48.0,0,180,2.0,0.0
11861,60.0,192,180,2.0,0.0
11862,53.0,0,180,1.0,0.0
11863,41.0,12,180,11.0,0.0
11864,53.0,0,180,10.0,0.0
11865,41.0,0,180,12.0,0.0
11866,65.0,0,180,7.0,0.0
11867,60.0,0,180,2.0,0.0
11868,48.0,192,180,2.0,0.0
11869,53.0,0,180,1.0,0.0
11870,84.0,36,390,5.0,0.0
11871,41.0,12,180,11.0,0.0
11872,53.0,0,180,1.0,0.0
11873,48.0,0,180,2.0,0.0
11874,60.0,48,180,2.0,0.0
11875,65.0,0,180,7.0,0.0
11876,41.0,12,180,12.0,0.0
11877,41.0,0,180,11.0,0.0
11878,53.0,0,180,10.0,0.0
11879,55.0,0,180,10.0,0.0
11880,55.0,0,180,1.0,0.0
11881,84.0,48,420,5.0,0.0
11882,76.0,108,180,6.0,0.0
11883,76.0,0,180,0.0,0.0
11884,43.0,0,180,11.0,0.0
11885,48.0,0,180,2.0,0.0
11886,60.0,0,180,2.0,0.0
11887,67.0,0,180,7.0,0.0
11888,43.0,12,180,12.0,0.0
11889,48.0,36,390,4.0,0.0
11890,79.0,120,60,6.0,0.0
11891,45.0,0,180,11.0,0.0
11892,79.0,0,60,0.0,0.0
11893,69.0,12,180,7.0,0.0
11894,45.0,0,180,12.0,0.0
11895,60.0,0,390,3.0,0.0
11896,60.0,0,180,2.0,0.0
11897,48.0,0,180,2.0,0.0
11898,57.0,0,180,10.0,0.0
11899,72.0,0,390,3.0,0.0
11900,57.0,0,180,1.0,0.0
11901,77.0,0,180,0.0,0.0
11902,77.0,144,180,6.0,0.0
11903,56.0,0,180,1.0,0.0
11904,44.0,0,180,12.0,0.0
11905,76.0,0,180,0.0,0.0
11906,56.0,0,180,10.0,0.0
11907,60.0,108,180,2.0,0.0
11908,68.0,12,180,7.0,0.0
11909,84.0,36,390,5.0,0.0
11910,44.0,0,180,11.0,0.0
11911,48.0,0,180,2.0,0.0
11912,76.0,0,180,6.0,0.0
11913,69.0,0,180,7.0,0.0
11914,79.0,0,60,6.0,0.0
11915,60.0,36,390,3.0,0.0
11916,72.0,0,390,3.0,0.0
11917,45.0,0,180,12.0,0.0
11918,57.0,0,180,10.0,0.0
11919,45.0,12,180,11.0,0.0
11920,79.0,84,60,0.0,0.0
11921,57.0,0,180,1.0,0.0
11922,60.0,48,180,2.0,0.0
11923,48.0,0,390,4.0,0.0
11924,48.0,0,180,2.0,0.0
11925,77.0,144,180,6.0,0.0
11926,77.0,0,180,0.0,0.0
11927,84.0,192,420,5.0,0.0
11928,48.0,0,180,2.0,0.0
11929,76.0,0,180,6.0,0.0
11930,68.0,0,180,7.0,0.0
11931,44.0,0,180,12.0,0.0
11932,60.0,228,180,2.0,0.0
11933,44.0,12,180,11.0,0.0
11934,56.0,0,180,1.0,0.0
11935,56.0,0,180,10.0,0.0
11936,76.0,0,180,0.0,0.0
11937,77.0,180,720,6.0,0.0
11938,57.0,0,180,10.0,0.0
11939,57.0,0,180,1.0,0.0
11940,45.0,0,180,11.0,0.0
11941,77.0,0,720,0.0,0.0
11942,72.0,0,390,3.0,0.0
11943,60.0,0,390,3.0,0.0
11944,48.0,0,180,2.0,0.0
11945,60.0,0,180,2.0,0.0
11946,45.0,0,180,12.0,0.0
11947,48.0,36,390,4.0,0.0
11948,69.0,12,180,7.0,0.0
11949,69.0,0,180,7.0,0.0
11950,48.0,0,180,2.0,0.0
11951,60.0,192,180,2.0,0.0
11952,84.0,36,390,5.0,0.0
11953,57.0,0,180,10.0,0.0
11954,45.0,0,180,12.0,0.0
11955,45.0,0,180,11.0,0.0
11956,57.0,12,180,1.0,0.0
11957,48.0,0,180,2.0,0.0
11958,45.0,0,180,11.0,0.0
11959,60.0,48,180,2.0,0.0
11960,45.0,0,180,12.0,0.0
11961,69.0,0,180,7.0,0.0
11962,57.0,0,180,10.0,0.0
11963,57.0,12,180,1.0,0.0
11964,84.0,0,420,5.0,0.0
11965,57.0,0,180,10.0,0.0
11966,78.0,108,180,0.0,0.0
11967,60.0,0,180,2.0,0.0
11968,48.0,0,180,2.0,0.0
11969,78.0,0,180,6.0,0.0
11970,69.0,0,180,7.0,0.0
11971,45.0,0,180,11.0,0.0
11972,45.0,12,180,12.0,0.0
11973,57.0,0,180,1.0,0.0
11974,52.0,0,180,1.0,0.0
11975,40.0,0,180,12.0,0.0
11976,40.0,0,180,11.0,0.0
11977,64.0,12,180,7.0,0.0
11978,48.0,0,180,2.0,0.0
11979,60.0,48,180,2.0,0.0
11980,48.0,0,390,4.0,0.0
11981,72.0,0,390,3.0,0.0
11982,52.0,0,180,10.0,0.0
11983,81.0,0,60,0.0,0.0
11984,60.0,36,390,3.0,0.0
11985,81.0,120,60,6.0,0.0
11986,79.0,144,180,0.0,0.0
11987,79.0,0,180,6.0,0.0
11988,63.0,0,180,7.0,0.0
11989,78.0,0,180,6.0,0.0
11990,78.0,0,180,0.0,0.0
11991,39.0,0,180,11.0,0.0
11992,51.0,0,180,1.0,0.0
11993,84.0,36,390,5.0,0.0
11994,39.0,12,180,12.0,0.0
11995,48.0,108,180,2.0,0.0
11996,60.0,0,180,2.0,0.0
11997,51.0,0,180,10.0,0.0
11998,60.0,48,180,2.0,0.0
11999,48.0,0,180,2.0,0.0
12000,52.0,0,180,10.0,0.0
12001,52.0,0,180,1.0,0.0
12002,60.0,0,390,3.0,0.0
12003,72.0,36,390,3.0,0.0
12004,48.0,0,390,4.0,0.0
12005,64.0,12,180,7.0,0.0
12006,81.0,0,60,6.0,0.0
12007,81.0,84,60,0.0,0.0
12008,40.0,0,180,11.0,0.0
12009,40.0,0,180,12.0,0.0
12010,79.0,144,180,0.0,0.0
12011,79.0,0,180,6.0,0.0
12012,39.0,0,180,11.0,0.0
12013,60.0,0,180,2.0,0.0
12014,78.0,228,180,6.0,0.0
12015,51.0,12,180,1.0,0.0
12016,84.0,0,420,5.0,0.0
12017,78.0,0,180,0.0,0.0
12018,48.0,0,180,2.0,0.0
12019,39.0,0,180,12.0,0.0
12020,63.0,0,180,7.0,0.0
12021,51.0,0,180,10.0,0.0
12022,52.0,0,180,10.0,0.0
12023,40.0,0,180,12.0,0.0
12024,64.0,0,180,7.0,0.0
12025,52.0,0,180,1.0,0.0
12026,72.0,0,390,3.0,0.0
12027,48.0,36,390,4.0,0.0
12028,40.0,12,180,11.0,0.0
12029,60.0,0,390,3.0,0.0
12030,60.0,0,180,2.0,0.0
12031,48.0,192,180,2.0,0.0
12032,79.0,180,720,0.0,0.0
12033,79.0,0,720,6.0,0.0
12034,40.0,0,180,12.0,0.0
12035,40.0,0,180,11.0,0.0
12036,52.0,12,180,1.0,0.0
12037,48.0,192,180,2.0,0.0
12038,60.0,0,180,2.0,0.0
12039,64.0,0,180,7.0,0.0
12040,52.0,0,180,10.0,0.0
12041,84.0,36,390,5.0,0.0
12042,60.0,48,180,2.0,0.0
12043,40.0,0,180,11.0,0.0
12044,64.0,0,180,7.0,0.0
12045,48.0,0,180,2.0,0.0
12046,52.0,12,180,10.0,0.0
12047,40.0,0,180,12.0,0.0
12048,52.0,0,180,1.0,0.0
12049,40.0,0,180,12.0,0.0
12050,80.0,0,180,6.0,0.0
12051,40.0,0,180,11.0,0.0
12052,52.0,0,180,1.0,0.0
12053,80.0,0,180,5.0,0.0
12054,80.0,0,180,0.0,0.0
12055,52.0,0,180,10.0,0.0
12056,48.0,0,180,2.0,0.0
12057,60.0,108,180,2.0,0.0
12058,64.0,12,180,7.0,0.0
12059,72.0,72,570,3.0,0.0
12060,48.0,24,390,4.0,0.0
12061,65.0,192,180,7.0,0.0
12062,83.0,120,60,5.0,0.0
12063,60.0,0,570,3.0,0.0
12064,41.0,6,180,11.0,0.0
12065,48.0,0,180,2.0,0.0
12066,60.0,0,180,2.0,0.0
12067,53.0,0,180,1.0,0.0
12068,83.0,0,60,6.0,0.0
12069,41.0,0,180,12.0,0.0
12070,53.0,0,180,10.0,0.0
12071,83.0,0,60,0.0,0.0
12072,81.0,0,120,6.0,0.0
12073,81.0,0,120,5.0,0.0
12074,81.0,6,120,0.0,0.0
12075,40.0,0,180,12.0,0.0
12076,80.0,0,180,6.0,0.0
12077,52.0,0,180,1.0,0.0
12078,80.0,0,180,0.0,0.0
12079,52.0,12,180,10.0,0.0
12080,80.0,12,180,5.0,0.0
12081,40.0,0,180,11.0,0.0
12082,60.0,0,180,2.0,0.0
12083,64.0,144,180,7.0,0.0
12084,48.0,0,180,2.0,0.0
12085,81.0,12,180,5.0,0.0
12086,81.0,0,180,6.0,0.0
12087,65.0,216,180,7.0,0.0
12088,53.0,0,180,10.0,0.0
12089,60.0,0,180,2.0,0.0
12090,41.0,0,180,11.0,0.0
12091,48.0,0,180,2.0,0.0
12092,41.0,12,180,12.0,0.0
12093,81.0,0,180,0.0,0.0
12094,53.0,0,180,1.0,0.0
12095,38.0,12,180,11.0,0.0
12096,50.0,0,180,10.0,0.0
12097,62.0,108,180,7.0,0.0
12098,43.0,0,180,4.0,0.0
12099,50.0,0,180,1.0,0.0
12100,71.0,0,180,6.0,0.0
12101,67.0,0,180,3.0,0.0
12102,71.0,12,180,0.0,0.0
12103,38.0,0,180,12.0,0.0
12104,83.0,0,180,5.0,0.0
12105,55.0,0,180,2.0,0.0
12106,40.0,0,180,11.0,0.0
12107,86.0,0,60,5.0,0.0
12108,64.0,192,180,7.0,0.0
12109,74.0,120,60,6.0,0.0
12110,74.0,0,60,0.0,0.0
12111,52.0,6,180,10.0,0.0
12112,55.0,0,180,2.0,0.0
12113,67.0,0,180,3.0,0.0
12114,43.0,24,390,4.0,0.0
12115,40.0,0,180,12.0,0.0
12116,52.0,0,180,1.0,0.0
12117,72.0,6,120,0.0,0.0
12118,84.0,0,120,5.0,0.0
12119,72.0,0,120,6.0,0.0
12120,38.0,12,180,11.0,0.0
12121,71.0,12,180,6.0,0.0
12122,83.0,0,180,5.0,0.0
12123,67.0,0,180,3.0,0.0
12124,50.0,0,180,1.0,0.0
12125,38.0,0,180,12.0,0.0
12126,62.0,216,180,7.0,0.0
12127,55.0,0,180,2.0,0.0
12128,71.0,0,180,0.0,0.0
12129,50.0,0,180,10.0,0.0
12130,72.0,0,180,6.0,0.0
12131,40.0,0,180,12.0,0.0
12132,64.0,216,180,7.0,0.0
12133,67.0,0,180,3.0,0.0
12134,72.0,0,180,0.0,0.0
12135,40.0,0,180,11.0,0.0
12136,52.0,0,180,10.0,0.0
12137,55.0,0,180,2.0,0.0
12138,84.0,12,180,5.0,0.0
12139,52.0,12,180,1.0,0.0
12140,67.0,0,180,3.0,0.0
12141,74.0,0,180,0.0,0.0
12142,43.0,0,180,4.0,0.0
12143,47.0,0,180,1.0,0.0
12144,35.0,0,180,12.0,0.0
12145,47.0,0,180,10.0,0.0
12146,74.0,0,180,6.0,0.0
12147,86.0,12,180,5.0,0.0
12148,55.0,0,180,2.0,0.0
12149,59.0,228,180,7.0,0.0
12150,35.0,12,180,11.0,0.0
12151,48.0,0,180,10.0,0.0
12152,48.0,0,180,1.0,0.0
12153,72.0,0,180,6.0,0.0
12154,36.0,0,180,12.0,0.0
12155,88.0,48,330,5.0,0.0
12156,76.0,0,780,0.0,0.0
12157,48.0,36,390,4.0,0.0
12158,64.0,0,1740,3.0,0.0
12159,67.0,48,1740,3.0,0.0
12160,36.0,12,180,11.0,0.0
12161,60.0,0,1740,2.0,0.0
12162,60.0,144,180,7.0,0.0
12163,52.0,0,1740,2.0,0.0
12164,48.0,0,180,1.0,0.0
12165,67.0,36,390,7.0,0.0
12166,36.0,0,180,11.0,0.0
12167,48.0,0,180,10.0,0.0
12168,36.0,204,180,12.0,0.0
12169,76.0,0,390,6.0,0.0
12170,72.0,0,390,6.0,0.0
12171,48.0,0,180,1.0,0.0
12172,48.0,108,180,10.0,0.0
12173,36.0,0,180,11.0,0.0
12174,84.0,84,330,5.0,0.0
12175,36.0,0,180,12.0,0.0
12176,48.0,48,300,4.0,0.0
12177,72.0,0,420,6.0,0.0
12178,36.0,0,180,11.0,0.0
12179,76.0,0,420,6.0,0.0
12180,67.0,24,180,7.0,0.0
12181,48.0,12,180,10.0,0.0
12182,36.0,0,180,12.0,0.0
12183,48.0,0,180,1.0,0.0
12184,48.0,204,90,4.0,0.0
12185,48.0,0,180,1.0,0.0
12186,84.0,0,780,0.0,0.0
12187,48.0,36,390,4.0,0.0
12188,36.0,0,180,12.0,0.0
12189,67.0,144,180,7.0,0.0
12190,48.0,12,180,10.0,0.0
12191,79.0,48,330,5.0,0.0
12192,36.0,0,180,11.0,0.0
12193,36.0,0,180,11.0,0.0
12194,48.0,0,180,10.0,0.0
12195,36.0,0,180,12.0,0.0
12196,67.0,36,390,7.0,0.0
12197,76.0,0,390,6.0,0.0
12198,72.0,0,390,6.0,0.0
12199,48.0,204,180,1.0,0.0
12200,48.0,108,180,10.0,0.0
12201,36.0,0,180,12.0,0.0
12202,76.0,84,330,5.0,0.0
12203,36.0,0,180,11.0,0.0
12204,48.0,0,180,1.0,0.0
12205,36.0,0,180,11.0,0.0
12206,48.0,0,180,10.0,0.0
12207,36.0,12,180,12.0,0.0
12208,67.0,228,180,7.0,0.0
12209,76.0,0,180,6.0,0.0
12210,48.0,0,180,1.0,0.0
12211,72.0,0,180,6.0,0.0
12212,41.0,0,180,11.0,0.0
12213,74.0,0,720,5.0,0.0
12214,74.0,120,720,6.0,0.0
12215,53.0,240,180,1.0,0.0
12216,53.0,0,180,10.0,0.0
12217,41.0,0,180,12.0,0.0
12218,81.0,0,720,0.0,0.0
12219,69.0,0,720,7.0,0.0
12220,41.0,240,180,12.0,0.0
12221,53.0,0,180,1.0,0.0
12222,41.0,0,180,11.0,0.0
12223,53.0,0,180,10.0,0.0
12224,41.0,0,180,11.0,0.0
12225,53.0,0,180,10.0,0.0
12226,53.0,60,180,1.0,0.0
12227,41.0,0,180,12.0,0.0
12228,77.0,60,120,5.0,0.0
12229,74.0,0,180,0.0,0.0
12230,77.0,0,15,0.0,0.0
12231,53.0,0,180,10.0,0.0
12232,65.0,24,180,7.0,0.0
12233,41.0,12,180,11.0,0.0
12234,53.0,0,180,1.0,0.0
12235,41.0,0,180,12.0,0.0
12236,77.0,0,120,6.0,0.0
12237,81.0,204,90,5.0,0.0
12238,81.0,0,90,6.0,0.0
12239,55.0,0,180,1.0,0.0
12240,76.0,180,480,0.0,0.0
12241,72.0,0,480,0.0,0.0
12242,43.0,0,180,12.0,0.0
12243,64.0,36,390,2.0,0.0
12244,60.0,0,390,2.0,0.0
12245,72.0,0,480,6.0,0.0
12246,72.0,0,480,5.0,0.0
12247,55.0,0,180,10.0,0.0
12248,64.0,0,480,7.0,0.0
12249,43.0,204,180,11.0,0.0
12250,43.0,0,180,12.0,0.0
12251,43.0,0,180,11.0,0.0
12252,55.0,0,180,1.0,0.0
12253,55.0,60,180,10.0,0.0
12254,55.0,0,180,10.0,0.0
12255,71.0,0,390,0.0,0.0
12256,74.0,0,390,0.0,0.0
12257,55.0,0,180,1.0,0.0
12258,71.0,0,390,5.0,0.0
12259,71.0,36,390,6.0,0.0
12260,43.0,204,180,11.0,0.0
12261,43.0,0,180,12.0,0.0
12262,55.0,0,390,2.0,0.0
12263,62.0,0,390,2.0,0.0
12264,62.0,0,390,7.0,0.0
12265,55.0,0,180,10.0,0.0
12266,43.0,240,180,11.0,0.0
12267,43.0,0,180,12.0,0.0
12268,55.0,0,180,1.0,0.0
12269,67.0,0,1740,3.0,0.0
12270,76.0,0,780,0.0,0.0
12271,48.0,0,180,10.0,0.0
12272,64.0,0,1740,3.0,0.0
12273,48.0,0,180,1.0,0.0
12274,48.0,36,390,4.0,0.0
12275,88.0,48,330,5.0,0.0
12276,36.0,12,180,11.0,0.0
12277,52.0,48,1740,2.0,0.0
12278,60.0,0,1740,2.0,0.0
12279,36.0,0,180,12.0,0.0
12280,60.0,144,180,7.0,0.0
12281,72.0,0,180,6.0,0.0
12282,72.0,36,390,6.0,0.0
12283,48.0,0,180,1.0,0.0
12284,36.0,0,180,11.0,0.0
12285,36.0,204,180,12.0,0.0
12286,67.0,0,390,7.0,0.0
12287,48.0,0,180,10.0,0.0
12288,76.0,0,390,6.0,0.0
12289,36.0,0,180,12.0,0.0
12290,36.0,0,180,11.0,0.0
12291,48.0,48,300,4.0,0.0
12292,48.0,108,180,1.0,0.0
12293,84.0,84,330,5.0,0.0
12294,48.0,0,180,10.0,0.0
12295,72.0,144,420,6.0,0.0
12296,48.0,0,180,1.0,0.0
12297,48.0,0,180,10.0,0.0
12298,36.0,12,180,12.0,0.0
12299,67.0,24,180,7.0,0.0
12300,76.0,0,420,6.0,0.0
12301,36.0,0,180,11.0,0.0
12302,48.0,204,90,4.0,0.0
12303,36.0,0,180,12.0,0.0
12304,79.0,48,330,5.0,0.0
12305,48.0,36,390,4.0,0.0
12306,67.0,0,180,7.0,0.0
12307,84.0,0,780,0.0,0.0
12308,48.0,0,180,1.0,0.0
12309,48.0,12,180,10.0,0.0
12310,36.0,0,180,11.0,0.0
12311,48.0,0,180,1.0,0.0
12312,67.0,0,390,7.0,0.0
12313,36.0,0,180,11.0,0.0
12314,76.0,0,390,6.0,0.0
12315,72.0,36,390,6.0,0.0
12316,48.0,0,180,10.0,0.0
12317,36.0,204,180,12.0,0.0
12318,76.0,84,330,5.0,0.0
12319,36.0,0,180,12.0,0.0
12320,48.0,0,180,1.0,0.0
12321,48.0,108,180,10.0,0.0
12322,36.0,0,180,11.0,0.0
12323,72.0,0,180,6.0,0.0
12324,76.0,228,180,6.0,0.0
12325,48.0,0,180,1.0,0.0
12326,67.0,0,180,7.0,0.0
12327,36.0,0,180,12.0,0.0
12328,36.0,12,180,11.0,0.0
12329,48.0,0,180,10.0,0.0
12330,41.0,0,180,12.0,0.0
12331,53.0,0,180,10.0,0.0
12332,69.0,0,720,7.0,0.0
12333,81.0,0,720,0.0,0.0
12334,74.0,120,720,6.0,0.0
12335,53.0,0,180,1.0,0.0
12336,41.0,240,180,11.0,0.0
12337,77.0,0,720,0.0,0.0
12338,74.0,0,720,5.0,0.0
12339,41.0,0,180,11.0,0.0
12340,41.0,0,180,12.0,0.0
12341,53.0,240,180,10.0,0.0
12342,53.0,0,180,1.0,0.0
12343,41.0,0,180,11.0,0.0
12344,53.0,0,180,1.0,0.0
12345,53.0,0,180,10.0,0.0
12346,41.0,60,180,12.0,0.0
12347,77.0,60,120,5.0,0.0
12348,77.0,0,120,6.0,0.0
12349,41.0,0,180,11.0,0.0
12350,41.0,0,180,12.0,0.0
12351,74.0,0,180,0.0,0.0
12352,53.0,0,180,10.0,0.0
12353,65.0,24,180,7.0,0.0
12354,77.0,0,180,0.0,0.0
12355,53.0,12,180,1.0,0.0
12356,81.0,204,90,6.0,0.0
12357,81.0,0,90,5.0,0.0
12358,64.0,36,390,2.0,0.0
12359,55.0,0,180,1.0,0.0
12360,60.0,0,390,2.0,0.0
12361,64.0,0,480,7.0,0.0
12362,43.0,0,180,11.0,0.0
12363,76.0,0,480,0.0,0.0
12364,72.0,180,480,0.0,0.0
12365,43.0,0,180,12.0,0.0
12366,72.0,0,480,5.0,0.0
12367,72.0,0,480,6.0,0.0
12368,55.0,204,180,10.0,0.0
12369,43.0,0,180,12.0,0.0
12370,55.0,0,180,1.0,0.0
12371,43.0,0,180,11.0,0.0
12372,55.0,60,180,10.0,0.0
12373,43.0,0,180,11.0,0.0
12374,43.0,204,180,12.0,0.0
12375,55.0,0,180,1.0,0.0
12376,74.0,0,390,0.0,0.0
12377,62.0,36,390,7.0,0.0
12378,55.0,0,180,10.0,0.0
12379,71.0,0,390,0.0,0.0
12380,55.0,0,390,2.0,0.0
12381,71.0,0,390,6.0,0.0
12382,71.0,0,390,5.0,0.0
12383,62.0,0,390,2.0,0.0
12384,55.0,0,180,10.0,0.0
12385,43.0,0,180,12.0,0.0
12386,55.0,0,180,1.0,0.0
12387,43.0,372,180,11.0,0.0
12388,48.0,0,300,1.0,0.0
12389,52.0,0,300,2.0,0.0
12390,72.0,48,330,6.0,0.0
12391,60.0,0,300,2.0,0.0
12392,72.0,0,300,3.0,0.0
12393,36.0,0,330,11.0,0.0
12394,72.0,0,330,5.0,0.0
12395,72.0,24,300,0.0,0.0
12396,60.0,0,330,7.0,0.0
12397,48.0,216,390,4.0,0.0
12398,36.0,0,330,12.0,0.0
12399,48.0,0,330,10.0,0.0
12400,64.0,0,300,3.0,0.0
12401,72.0,0,120,6.0,0.0
12402,72.0,6,240,0.0,0.0
12403,48.0,0,240,2.0,0.0
12404,60.0,0,240,2.0,0.0
12405,72.0,114,120,5.0,0.0
12406,67.0,0,120,6.0,0.0
12407,67.0,120,120,5.0,0.0
12408,64.0,0,120,6.0,0.0
12409,64.0,78,120,5.0,0.0
12410,48.0,0,90,2.0,0.0
12411,60.0,342,90,6.0,0.0
12412,60.0,0,90,5.0,0.0
12413,60.0,12,90,2.0,0.0
12414,72.0,0,90,0.0,0.0
12415,67.0,48,300,0.0,0.0
12416,55.0,432,360,5.0,0.0
12417,55.0,0,360,6.0,0.0
12418,55.0,0,300,2.0,0.0
12419,43.0,0,300,2.0,0.0
12420,74.0,0,300,0.0,0.0
12421,83.0,0,330,5.0,0.0
12422,43.0,0,330,12.0,0.0
12423,67.0,0,330,5.0,0.0
12424,43.0,408,390,4.0,0.0
12425,83.0,0,300,0.0,0.0
12426,67.0,0,300,3.0,0.0
12427,55.0,0,330,10.0,0.0
12428,62.0,48,330,6.0,0.0
12429,71.0,0,330,6.0,0.0
12430,74.0,0,300,3.0,0.0
12431,74.0,0,330,5.0,0.0
12432,55.0,0,300,1.0,0.0
12433,67.0,0,330,7.0,0.0
12434,43.0,0,330,11.0,0.0
12435,55.0,24,300,2.0,0.0
12436,79.0,0,330,6.0,0.0
12437,62.0,0,300,2.0,0.0
12438,84.0,24,330,5.0,0.0
12439,76.0,0,330,5.0,0.0
12440,72.0,0,330,7.0,0.0
12441,67.0,0,330,5.0,0.0
12442,48.0,216,390,4.0,0.0
12443,48.0,0,330,11.0,0.0
12444,76.0,0,300,3.0,0.0
12445,64.0,0,300,2.0,0.0
12446,60.0,24,300,1.0,0.0
12447,48.0,0,330,12.0,0.0
12448,60.0,0,300,2.0,0.0
12449,76.0,0,330,6.0,0.0
12450,72.0,0,330,6.0,0.0
12451,60.0,0,330,10.0,0.0
12452,76.0,0,300,0.0,0.0
12453,84.0,24,360,0.0,0.0
12454,72.0,0,300,3.0,0.0
12455,72.0,0,240,0.0,0.0
12456,72.0,114,120,6.0,0.0
12457,72.0,0,120,5.0,0.0
12458,60.0,0,240,2.0,0.0
12459,48.0,6,240,2.0,0.0
12460,67.0,120,120,5.0,0.0
12461,67.0,0,120,6.0,0.0
12462,64.0,78,120,6.0,0.0
12463,64.0,0,120,5.0,0.0
12464,60.0,0,90,5.0,0.0
12465,72.0,0,90,0.0,0.0
12466,48.0,0,90,2.0,0.0
12467,60.0,12,90,2.0,0.0
12468,60.0,342,90,6.0,0.0
12469,55.0,0,360,5.0,0.0
12470,55.0,0,300,2.0,0.0
12471,43.0,0,300,2.0,0.0
12472,55.0,432,360,6.0,0.0
12473,67.0,48,300,0.0,0.0
12474,74.0,0,300,3.0,0.0
12475,55.0,0,300,2.0,0.0
12476,62.0,0,300,2.0,0.0
12477,43.0,0,330,12.0,0.0
12478,79.0,0,330,6.0,0.0
12479,67.0,0,300,3.0,0.0
12480,55.0,48,330,10.0,0.0
12481,55.0,24,300,1.0,0.0
12482,83.0,0,330,5.0,0.0
12483,74.0,0,330,5.0,0.0
12484,67.0,0,330,5.0,0.0
12485,43.0,0,330,11.0,0.0
12486,71.0,0,330,6.0,0.0
12487,62.0,0,330,6.0,0.0
12488,83.0,0,300,0.0,0.0
12489,43.0,408,390,4.0,0.0
12490,67.0,0,330,7.0,0.0
12491,48.0,0,330,12.0,0.0
12492,84.0,0,360,0.0,0.0
12493,48.0,354,360,4.0,0.0
12494,64.0,0,300,3.0,0.0
12495,84.0,0,330,5.0,0.0
12496,52.0,0,300,2.0,0.0
12497,76.0,0,300,0.0,0.0
12498,60.0,0,300,2.0,0.0
12499,67.0,0,330,5.0,0.0
12500,72.0,24,330,7.0,0.0
12501,72.0,0,330,6.0,0.0
12502,72.0,24,300,3.0,0.0
12503,48.0,0,330,11.0,0.0
12504,76.0,0,330,6.0,0.0
12505,60.0,0,300,1.0,0.0
12506,60.0,0,330,10.0,0.0
12507,76.0,0,330,5.0,0.0
12508,60.0,0,240,6.0,0.0
12509,48.0,150,300,4.0,0.0
12510,72.0,54,240,0.0,0.0
12511,60.0,0,240,7.0,0.0
12512,36.0,0,240,12.0,0.0
12513,48.0,0,240,1.0,0.0
12514,60.0,0,240,3.0,0.0
12515,60.0,0,240,5.0,0.0
12516,60.0,0,240,2.0,0.0
12517,48.0,0,240,10.0,0.0
12518,72.0,0,240,3.0,0.0
12519,48.0,0,240,2.0,0.0
12520,36.0,0,240,11.0,0.0
12521,48.0,18,90,10.0,0.0
12522,72.0,0,90,0.0,0.0
12523,48.0,0,90,1.0,0.0
12524,60.0,0,90,6.0,0.0
12525,60.0,0,90,3.0,0.0
12526,60.0,0,90,2.0,0.0
12527,60.0,0,90,7.0,0.0
12528,48.0,408,90,4.0,0.0
12529,36.0,0,90,12.0,0.0
12530,72.0,0,90,3.0,0.0
12531,60.0,0,90,5.0,0.0
12532,48.0,0,90,2.0,0.0
12533,36.0,0,90,11.0,0.0
12534,72.0,3264,390,0.0,0.0
12535,36.0,0,390,12.0,0.0
12536,36.0,0,390,11.0,0.0
12537,60.0,0,390,7.0,0.0
12538,60.0,0,390,6.0,0.0
12539,48.0,0,390,1.0,0.0
12540,72.0,0,390,3.0,0.0
12541,60.0,0,390,3.0,0.0
12542,48.0,0,390,2.0,0.0
12543,48.0,0,390,4.0,0.0
12544,60.0,0,390,5.0,0.0
12545,48.0,0,390,10.0,0.0
12546,60.0,0,390,2.0,0.0
12547,19.0,0,780,11.0,0.0
