,note,step,duration,channel,velocity
0,62.0,0,300,4.0,0.0
1,74.0,0,300,0.0,0.0
2,62.0,480,300,5.0,0.0
3,55.0,0,1140,3.0,0.0
4,79.0,0,780,0.0,0.0
5,58.0,0,300,6.0,0.0
6,67.0,96,1140,3.0,0.0
7,67.0,0,780,4.0,0.0
8,67.0,48,780,5.0,0.0
9,67.0,0,780,1.0,0.0
10,55.0,0,300,7.0,0.0
11,43.0,48,300,8.0,0.0
12,55.0,432,330,2.0,0.0
13,58.0,336,330,2.0,0.0
14,58.0,0,300,7.0,0.0
15,55.0,0,300,6.0,0.0
16,46.0,0,300,8.0,0.0
17,82.0,0,870,0.0,0.0
18,55.0,0,300,7.0,0.0
19,50.0,48,300,6.0,0.0
20,43.0,0,300,8.0,0.0
21,55.0,48,330,2.0,0.0
22,70.0,0,870,4.0,0.0
23,70.0,480,390,1.0,0.0
24,70.0,264,870,5.0,0.0
25,62.0,0,780,3.0,0.0
26,50.0,120,780,3.0,0.0
27,38.0,0,780,8.0,0.0
28,50.0,0,780,2.0,0.0
29,74.0,0,780,1.0,0.0
30,50.0,0,780,7.0,0.0
31,62.0,0,780,6.0,0.0
32,69.0,0,180,5.0,0.0
33,81.0,120,180,0.0,0.0
34,69.0,0,180,4.0,0.0
35,67.0,0,180,4.0,0.0
36,67.0,0,180,5.0,0.0
37,79.0,240,180,0.0,0.0
38,62.0,0,390,3.0,0.0
39,66.0,216,180,5.0,0.0
40,66.0,0,390,1.0,0.0
41,48.0,0,390,7.0,0.0
42,48.0,0,390,2.0,0.0
43,62.0,0,390,6.0,0.0
44,66.0,0,180,4.0,0.0
45,78.0,0,180,0.0,0.0
46,50.0,24,390,3.0,0.0
47,36.0,0,390,8.0,0.0
48,69.0,0,180,5.0,0.0
49,69.0,360,180,4.0,0.0
50,81.0,0,180,0.0,0.0
51,67.0,0,300,5.0,0.0
52,62.0,0,390,6.0,0.0
53,62.0,0,390,3.0,0.0
54,79.0,0,300,0.0,0.0
55,50.0,384,390,3.0,0.0
56,34.0,0,390,8.0,0.0
57,46.0,0,390,2.0,0.0
58,67.0,0,390,1.0,0.0
59,46.0,0,390,7.0,0.0
60,67.0,96,300,4.0,0.0
61,62.0,0,300,5.0,0.0
62,74.0,480,300,0.0,0.0
63,62.0,0,300,4.0,0.0
64,67.0,480,300,5.0,0.0
65,67.0,0,300,4.0,0.0
66,79.0,0,300,0.0,0.0
67,70.0,0,780,4.0,0.0
68,43.0,0,300,8.0,0.0
69,55.0,432,330,2.0,0.0
70,62.0,0,300,6.0,0.0
71,70.0,48,780,5.0,0.0
72,55.0,48,300,7.0,0.0
73,82.0,0,780,0.0,0.0
74,67.0,0,780,1.0,0.0
75,55.0,0,1140,3.0,0.0
76,67.0,96,1140,3.0,0.0
77,58.0,336,330,2.0,0.0
78,55.0,0,300,6.0,0.0
79,58.0,0,300,7.0,0.0
80,46.0,0,300,8.0,0.0
81,55.0,48,330,2.0,0.0
82,70.0,480,390,1.0,0.0
83,74.0,0,870,4.0,0.0
84,74.0,264,870,5.0,0.0
85,58.0,48,300,6.0,0.0
86,43.0,0,300,8.0,0.0
87,86.0,0,870,0.0,0.0
88,55.0,0,300,7.0,0.0
89,50.0,120,780,3.0,0.0
90,38.0,0,780,8.0,0.0
91,50.0,0,780,7.0,0.0
92,74.0,0,780,1.0,0.0
93,62.0,0,780,3.0,0.0
94,50.0,0,780,2.0,0.0
95,54.0,0,780,6.0,0.0
96,72.0,120,180,4.0,0.0
97,84.0,0,180,0.0,0.0
98,72.0,0,180,5.0,0.0
99,82.0,0,180,0.0,0.0
100,70.0,0,180,5.0,0.0
101,70.0,240,180,4.0,0.0
102,81.0,216,180,0.0,0.0
103,54.0,0,390,2.0,0.0
104,62.0,0,390,6.0,0.0
105,69.0,0,180,5.0,0.0
106,69.0,24,390,1.0,0.0
107,50.0,0,390,3.0,0.0
108,54.0,0,390,7.0,0.0
109,69.0,0,180,4.0,0.0
110,62.0,0,390,3.0,0.0
111,42.0,0,390,8.0,0.0
112,84.0,0,180,0.0,0.0
113,72.0,0,180,4.0,0.0
114,72.0,360,180,5.0,0.0
115,70.0,0,330,5.0,0.0
116,70.0,48,330,4.0,0.0
117,55.0,0,390,2.0,0.0
118,70.0,0,390,1.0,0.0
119,50.0,384,390,6.0,0.0
120,55.0,0,390,7.0,0.0
121,50.0,0,390,3.0,0.0
122,82.0,48,300,0.0,0.0
123,43.0,0,390,8.0,0.0
124,62.0,0,390,3.0,0.0
125,67.0,0,330,5.0,0.0
126,67.0,480,330,4.0,0.0
127,79.0,48,300,0.0,0.0
128,62.0,0,330,5.0,0.0
129,74.0,480,330,4.0,0.0
130,55.0,0,330,3.0,0.0
131,39.0,432,330,8.0,0.0
132,67.0,0,780,5.0,0.0
133,55.0,0,330,6.0,0.0
134,79.0,0,780,4.0,0.0
135,67.0,48,780,1.0,0.0
136,79.0,0,780,1.0,0.0
137,55.0,0,330,2.0,0.0
138,51.0,0,330,2.0,0.0
139,67.0,0,330,3.0,0.0
140,51.0,0,330,7.0,0.0
141,55.0,0,330,3.0,0.0
142,67.0,0,330,6.0,0.0
143,67.0,0,330,2.0,0.0
144,63.0,0,330,7.0,0.0
145,67.0,0,330,3.0,0.0
146,51.0,480,330,8.0,0.0
147,63.0,0,330,2.0,0.0
148,82.0,96,780,1.0,0.0
149,70.0,360,390,1.0,0.0
150,62.0,48,330,7.0,0.0
151,70.0,24,750,5.0,0.0
152,50.0,0,330,8.0,0.0
153,55.0,0,330,3.0,0.0
154,65.0,0,330,6.0,0.0
155,62.0,0,330,2.0,0.0
156,65.0,0,330,2.0,0.0
157,82.0,0,750,4.0,0.0
158,67.0,0,330,3.0,0.0
159,76.0,0,780,1.0,0.0
160,64.0,0,780,6.0,0.0
161,49.0,0,1140,8.0,0.0
162,64.0,120,780,2.0,0.0
163,61.0,0,780,2.0,0.0
164,67.0,264,390,3.0,0.0
165,55.0,0,390,3.0,0.0
166,61.0,96,1140,7.0,0.0
167,69.0,120,180,5.0,0.0
168,81.0,0,180,4.0,0.0
169,81.0,0,300,1.0,0.0
170,77.0,240,180,4.0,0.0
171,65.0,0,180,5.0,0.0
172,57.0,0,780,6.0,0.0
173,76.0,0,180,4.0,0.0
174,57.0,264,870,2.0,0.0
175,64.0,24,180,5.0,0.0
176,76.0,0,300,1.0,0.0
177,81.0,24,390,0.0,0.0
178,69.0,96,300,3.0,0.0
179,67.0,336,180,5.0,0.0
180,79.0,0,180,4.0,0.0
181,62.0,48,300,3.0,0.0
182,69.0,0,300,3.0,0.0
183,50.0,48,330,8.0,0.0
184,62.0,0,330,7.0,0.0
185,77.0,0,330,4.0,0.0
186,89.0,0,270,0.0,0.0
187,65.0,0,330,5.0,0.0
188,77.0,24,270,1.0,0.0
189,88.0,0,180,0.0,0.0
190,76.0,120,180,4.0,0.0
191,58.0,0,300,6.0,0.0
192,43.0,72,330,8.0,0.0
193,55.0,0,330,7.0,0.0
194,76.0,0,180,1.0,0.0
195,64.0,0,180,5.0,0.0
196,58.0,48,300,2.0,0.0
197,74.0,0,180,1.0,0.0
198,74.0,0,180,4.0,0.0
199,62.0,0,180,5.0,0.0
200,86.0,240,180,0.0,0.0
201,73.0,120,180,1.0,0.0
202,73.0,0,180,4.0,0.0
203,57.0,72,330,7.0,0.0
204,55.0,48,300,2.0,0.0
205,45.0,0,330,8.0,0.0
206,61.0,0,180,5.0,0.0
207,55.0,0,300,6.0,0.0
208,85.0,0,180,0.0,0.0
209,69.0,0,300,3.0,0.0
210,64.0,0,180,5.0,0.0
211,76.0,0,180,1.0,0.0
212,88.0,0,180,0.0,0.0
213,76.0,336,180,4.0,0.0
214,46.0,312,330,8.0,0.0
215,86.0,24,270,0.0,0.0
216,62.0,0,330,5.0,0.0
217,53.0,48,300,2.0,0.0
218,74.0,0,330,4.0,0.0
219,74.0,0,270,1.0,0.0
220,58.0,0,330,7.0,0.0
221,53.0,0,300,6.0,0.0
222,62.0,0,300,3.0,0.0
223,55.0,48,300,6.0,0.0
224,40.0,72,330,8.0,0.0
225,60.0,0,180,5.0,0.0
226,55.0,0,300,2.0,0.0
227,72.0,0,180,1.0,0.0
228,52.0,0,330,7.0,0.0
229,55.0,0,300,3.0,0.0
230,72.0,0,180,4.0,0.0
231,84.0,120,180,0.0,0.0
232,58.0,240,180,5.0,0.0
233,70.0,0,180,4.0,0.0
234,82.0,0,180,0.0,0.0
235,70.0,0,180,1.0,0.0
236,69.0,0,180,1.0,0.0
237,57.0,120,180,5.0,0.0
238,62.0,0,300,3.0,0.0
239,50.0,0,300,3.0,0.0
240,81.0,0,180,0.0,0.0
241,50.0,48,300,6.0,0.0
242,54.0,72,330,7.0,0.0
243,69.0,0,180,4.0,0.0
244,42.0,0,330,8.0,0.0
245,50.0,0,300,2.0,0.0
246,72.0,336,180,1.0,0.0
247,60.0,0,180,5.0,0.0
248,72.0,0,180,4.0,0.0
249,84.0,0,180,0.0,0.0
250,55.0,0,300,2.0,0.0
251,62.0,0,300,3.0,0.0
252,55.0,48,300,3.0,0.0
253,58.0,0,330,5.0,0.0
254,70.0,24,270,1.0,0.0
255,43.0,0,330,8.0,0.0
256,70.0,0,330,4.0,0.0
257,55.0,432,330,7.0,0.0
258,82.0,0,300,0.0,0.0
259,62.0,0,300,6.0,0.0
260,49.0,0,330,7.0,0.0
261,82.0,0,330,4.0,0.0
262,79.0,0,300,1.0,0.0
263,76.0,0,300,0.0,0.0
264,64.0,0,300,6.0,0.0
265,49.0,48,300,2.0,0.0
266,70.0,0,330,5.0,0.0
267,37.0,432,330,8.0,0.0
268,50.0,432,330,7.0,0.0
269,77.0,0,300,0.0,0.0
270,81.0,0,330,4.0,0.0
271,65.0,0,300,6.0,0.0
272,69.0,0,330,5.0,0.0
273,38.0,0,330,8.0,0.0
274,77.0,0,300,1.0,0.0
275,74.0,0,300,1.0,0.0
276,50.0,48,300,2.0,0.0
277,76.0,0,780,1.0,0.0
278,74.0,0,300,1.0,0.0
279,52.0,0,300,2.0,0.0
280,83.0,0,300,0.0,0.0
281,68.0,0,330,5.0,0.0
282,59.0,48,300,6.0,0.0
283,80.0,432,330,4.0,0.0
284,52.0,0,330,7.0,0.0
285,40.0,0,330,8.0,0.0
286,33.0,432,330,8.0,0.0
287,67.0,0,330,5.0,0.0
288,61.0,0,300,6.0,0.0
289,45.0,0,330,7.0,0.0
290,73.0,48,300,1.0,0.0
291,45.0,0,300,2.0,0.0
292,79.0,0,330,4.0,0.0
293,85.0,0,300,0.0,0.0
294,69.0,0,300,3.0,0.0
295,65.0,48,330,5.0,0.0
296,62.0,0,300,3.0,0.0
297,74.0,384,390,1.0,0.0
298,62.0,0,300,6.0,0.0
299,46.0,0,300,2.0,0.0
300,34.0,0,330,8.0,0.0
301,77.0,0,330,4.0,0.0
302,46.0,0,330,7.0,0.0
303,86.0,48,300,0.0,0.0
304,43.0,0,330,8.0,0.0
305,88.0,264,480,0.0,0.0
306,55.0,0,300,2.0,0.0
307,58.0,0,780,6.0,0.0
308,76.0,0,480,4.0,0.0
309,67.0,48,300,3.0,0.0
310,64.0,0,480,5.0,0.0
311,76.0,48,780,1.0,0.0
312,55.0,144,330,7.0,0.0
313,79.0,0,780,1.0,0.0
314,52.0,0,330,7.0,0.0
315,40.0,408,330,8.0,0.0
316,79.0,24,270,4.0,0.0
317,52.0,0,300,2.0,0.0
318,91.0,0,270,0.0,0.0
319,67.0,0,270,5.0,0.0
320,61.0,0,270,5.0,0.0
321,85.0,0,270,0.0,0.0
322,73.0,24,270,4.0,0.0
323,55.0,0,300,6.0,0.0
324,55.0,48,300,2.0,0.0
325,69.0,0,300,3.0,0.0
326,76.0,432,390,1.0,0.0
327,73.0,0,390,1.0,0.0
328,55.0,48,330,7.0,0.0
329,43.0,0,330,8.0,0.0
330,74.0,0,330,1.0,0.0
331,50.0,0,330,2.0,0.0
332,86.0,0,330,0.0,0.0
333,38.0,0,330,8.0,0.0
334,53.0,0,330,6.0,0.0
335,74.0,0,330,4.0,0.0
336,50.0,0,330,7.0,0.0
337,62.0,0,330,5.0,0.0
338,69.0,912,330,3.0,0.0
339,62.0,0,330,3.0,0.0
340,74.0,0,300,0.0,0.0
341,62.0,0,300,5.0,0.0
342,62.0,480,300,4.0,0.0
343,67.0,0,780,1.0,0.0
344,79.0,0,780,0.0,0.0
345,67.0,48,780,4.0,0.0
346,55.0,0,300,7.0,0.0
347,58.0,48,300,6.0,0.0
348,55.0,432,330,2.0,0.0
349,55.0,96,1140,3.0,0.0
350,67.0,0,1140,3.0,0.0
351,43.0,0,300,8.0,0.0
352,67.0,0,780,5.0,0.0
353,58.0,336,330,2.0,0.0
354,58.0,0,300,7.0,0.0
355,55.0,0,300,6.0,0.0
356,46.0,0,300,8.0,0.0
357,55.0,48,330,2.0,0.0
358,43.0,48,300,8.0,0.0
359,50.0,0,300,6.0,0.0
360,70.0,480,390,1.0,0.0
361,70.0,0,870,4.0,0.0
362,70.0,264,870,5.0,0.0
363,55.0,0,300,7.0,0.0
364,82.0,0,870,0.0,0.0
365,74.0,0,780,1.0,0.0
366,50.0,0,780,7.0,0.0
367,50.0,0,780,2.0,0.0
368,62.0,120,780,3.0,0.0
369,38.0,0,780,8.0,0.0
370,50.0,0,780,3.0,0.0
371,62.0,0,780,6.0,0.0
372,69.0,0,180,4.0,0.0
373,81.0,120,180,0.0,0.0
374,69.0,0,180,5.0,0.0
375,67.0,0,180,5.0,0.0
376,67.0,0,180,4.0,0.0
377,79.0,240,180,0.0,0.0
378,66.0,216,180,5.0,0.0
379,50.0,24,390,3.0,0.0
380,36.0,0,390,8.0,0.0
381,48.0,0,390,2.0,0.0
382,78.0,0,180,0.0,0.0
383,62.0,0,390,6.0,0.0
384,48.0,0,390,7.0,0.0
385,66.0,0,390,1.0,0.0
386,62.0,0,390,3.0,0.0
387,66.0,0,180,4.0,0.0
388,69.0,0,180,5.0,0.0
389,81.0,360,180,0.0,0.0
390,69.0,0,180,4.0,0.0
391,67.0,96,300,4.0,0.0
392,67.0,0,390,1.0,0.0
393,79.0,0,300,0.0,0.0
394,46.0,0,390,7.0,0.0
395,62.0,0,390,3.0,0.0
396,62.0,384,390,6.0,0.0
397,46.0,0,390,2.0,0.0
398,67.0,0,300,5.0,0.0
399,34.0,0,390,8.0,0.0
400,50.0,0,390,3.0,0.0
401,62.0,0,300,5.0,0.0
402,74.0,480,300,0.0,0.0
403,62.0,0,300,4.0,0.0
404,67.0,0,300,4.0,0.0
405,79.0,0,300,0.0,0.0
406,67.0,480,300,5.0,0.0
407,43.0,48,300,8.0,0.0
408,82.0,0,780,0.0,0.0
409,55.0,96,1140,3.0,0.0
410,62.0,0,300,6.0,0.0
411,67.0,0,780,1.0,0.0
412,70.0,0,780,5.0,0.0
413,70.0,0,780,4.0,0.0
414,55.0,432,330,2.0,0.0
415,67.0,0,1140,3.0,0.0
416,55.0,0,300,7.0,0.0
417,58.0,0,300,7.0,0.0
418,58.0,336,330,2.0,0.0
419,55.0,0,300,6.0,0.0
420,46.0,48,300,8.0,0.0
421,43.0,0,300,8.0,0.0
422,70.0,480,390,1.0,0.0
423,74.0,0,870,5.0,0.0
424,58.0,48,300,6.0,0.0
425,55.0,48,330,2.0,0.0
426,74.0,264,870,4.0,0.0
427,86.0,0,870,0.0,0.0
428,55.0,0,300,7.0,0.0
429,50.0,120,780,2.0,0.0
430,50.0,0,780,7.0,0.0
431,38.0,0,780,8.0,0.0
432,62.0,0,780,3.0,0.0
433,74.0,0,780,1.0,0.0
434,50.0,0,780,3.0,0.0
435,54.0,0,780,6.0,0.0
436,72.0,0,180,4.0,0.0
437,84.0,120,180,0.0,0.0
438,72.0,0,180,5.0,0.0
439,70.0,0,180,4.0,0.0
440,70.0,240,180,5.0,0.0
441,82.0,0,180,0.0,0.0
442,69.0,0,180,5.0,0.0
443,42.0,0,390,8.0,0.0
444,62.0,0,390,6.0,0.0
445,81.0,216,180,0.0,0.0
446,69.0,0,180,4.0,0.0
447,54.0,0,390,2.0,0.0
448,50.0,24,390,3.0,0.0
449,62.0,0,390,3.0,0.0
450,69.0,0,390,1.0,0.0
451,54.0,0,390,7.0,0.0
452,72.0,0,180,4.0,0.0
453,84.0,360,180,0.0,0.0
454,72.0,0,180,5.0,0.0
455,62.0,0,390,3.0,0.0
456,82.0,48,300,0.0,0.0
457,55.0,0,390,7.0,0.0
458,70.0,0,330,5.0,0.0
459,50.0,0,390,3.0,0.0
460,55.0,0,390,2.0,0.0
461,43.0,0,390,8.0,0.0
462,50.0,0,390,6.0,0.0
463,70.0,48,330,4.0,0.0
464,70.0,384,390,1.0,0.0
465,79.0,48,300,0.0,0.0
466,67.0,0,330,5.0,0.0
467,67.0,480,330,4.0,0.0
468,62.0,0,330,5.0,0.0
469,74.0,480,330,4.0,0.0
470,79.0,0,780,1.0,0.0
471,79.0,0,780,4.0,0.0
472,67.0,0,780,5.0,0.0
473,67.0,48,780,1.0,0.0
474,67.0,0,330,3.0,0.0
475,55.0,0,330,3.0,0.0
476,55.0,0,330,2.0,0.0
477,55.0,0,330,6.0,0.0
478,51.0,0,330,2.0,0.0
479,51.0,432,330,7.0,0.0
480,39.0,0,330,8.0,0.0
481,63.0,0,330,2.0,0.0
482,67.0,0,330,2.0,0.0
483,67.0,0,330,6.0,0.0
484,51.0,0,330,8.0,0.0
485,67.0,0,330,3.0,0.0
486,63.0,480,330,7.0,0.0
487,55.0,0,330,3.0,0.0
488,50.0,0,330,8.0,0.0
489,82.0,96,780,1.0,0.0
490,65.0,0,330,2.0,0.0
491,82.0,24,750,4.0,0.0
492,70.0,0,750,5.0,0.0
493,62.0,0,330,7.0,0.0
494,70.0,360,390,1.0,0.0
495,65.0,48,330,6.0,0.0
496,55.0,0,330,3.0,0.0
497,67.0,0,330,3.0,0.0
498,62.0,0,330,2.0,0.0
499,76.0,120,780,1.0,0.0
500,49.0,0,1140,8.0,0.0
501,64.0,0,780,6.0,0.0
502,64.0,0,780,2.0,0.0
503,61.0,0,780,2.0,0.0
504,67.0,0,390,3.0,0.0
505,61.0,96,1140,7.0,0.0
506,55.0,264,390,3.0,0.0
507,81.0,0,300,1.0,0.0
508,69.0,0,180,5.0,0.0
509,81.0,120,180,4.0,0.0
510,77.0,240,180,4.0,0.0
511,65.0,0,180,5.0,0.0
512,76.0,96,300,1.0,0.0
513,81.0,24,390,0.0,0.0
514,57.0,0,780,6.0,0.0
515,76.0,24,180,4.0,0.0
516,64.0,0,180,5.0,0.0
517,57.0,264,870,2.0,0.0
518,69.0,0,300,3.0,0.0
519,67.0,0,180,5.0,0.0
520,79.0,336,180,4.0,0.0
521,77.0,24,270,1.0,0.0
522,62.0,0,330,7.0,0.0
523,65.0,0,330,5.0,0.0
524,50.0,48,330,8.0,0.0
525,69.0,48,300,3.0,0.0
526,62.0,0,300,3.0,0.0
527,77.0,0,330,4.0,0.0
528,89.0,0,270,0.0,0.0
529,76.0,0,180,4.0,0.0
530,88.0,120,180,0.0,0.0
531,58.0,0,300,6.0,0.0
532,43.0,0,330,8.0,0.0
533,76.0,0,180,1.0,0.0
534,64.0,0,180,5.0,0.0
535,58.0,48,300,2.0,0.0
536,55.0,72,330,7.0,0.0
537,74.0,0,180,1.0,0.0
538,86.0,0,180,0.0,0.0
539,74.0,0,180,4.0,0.0
540,62.0,240,180,5.0,0.0
541,55.0,0,300,6.0,0.0
542,69.0,48,300,3.0,0.0
543,73.0,120,180,1.0,0.0
544,55.0,0,300,2.0,0.0
545,45.0,0,330,8.0,0.0
546,61.0,0,180,5.0,0.0
547,73.0,0,180,4.0,0.0
548,57.0,72,330,7.0,0.0
549,85.0,0,180,0.0,0.0
550,76.0,336,180,1.0,0.0
551,76.0,0,180,4.0,0.0
552,88.0,0,180,0.0,0.0
553,64.0,0,180,5.0,0.0
554,62.0,48,300,3.0,0.0
555,53.0,0,300,6.0,0.0
556,86.0,0,270,0.0,0.0
557,74.0,0,330,4.0,0.0
558,74.0,24,270,1.0,0.0
559,58.0,312,330,7.0,0.0
560,62.0,0,330,5.0,0.0
561,53.0,0,300,2.0,0.0
562,46.0,0,330,8.0,0.0
563,72.0,0,180,1.0,0.0
564,84.0,0,180,0.0,0.0
565,55.0,0,300,3.0,0.0
566,52.0,0,330,7.0,0.0
567,72.0,120,180,4.0,0.0
568,55.0,0,300,2.0,0.0
569,60.0,0,180,5.0,0.0
570,40.0,72,330,8.0,0.0
571,55.0,48,300,6.0,0.0
572,70.0,240,180,4.0,0.0
573,70.0,0,180,1.0,0.0
574,58.0,0,180,5.0,0.0
575,82.0,0,180,0.0,0.0
576,62.0,0,300,3.0,0.0
577,42.0,72,330,8.0,0.0
578,81.0,0,180,0.0,0.0
579,69.0,0,180,1.0,0.0
580,57.0,0,180,5.0,0.0
581,69.0,120,180,4.0,0.0
582,50.0,48,300,2.0,0.0
583,50.0,0,300,3.0,0.0
584,50.0,0,300,6.0,0.0
585,54.0,0,330,7.0,0.0
586,60.0,0,180,5.0,0.0
587,84.0,0,180,0.0,0.0
588,72.0,336,180,4.0,0.0
589,72.0,0,180,1.0,0.0
590,62.0,48,300,3.0,0.0
591,58.0,432,330,5.0,0.0
592,55.0,0,300,3.0,0.0
593,43.0,0,330,8.0,0.0
594,62.0,0,300,6.0,0.0
595,82.0,0,300,0.0,0.0
596,70.0,0,330,4.0,0.0
597,55.0,0,300,2.0,0.0
598,70.0,24,270,1.0,0.0
599,55.0,0,330,7.0,0.0
600,76.0,0,300,0.0,0.0
601,79.0,0,300,1.0,0.0
602,49.0,0,330,7.0,0.0
603,70.0,0,330,5.0,0.0
604,82.0,432,330,4.0,0.0
605,64.0,0,300,6.0,0.0
606,49.0,48,300,2.0,0.0
607,37.0,0,330,8.0,0.0
608,77.0,48,300,0.0,0.0
609,65.0,0,300,6.0,0.0
610,77.0,0,300,1.0,0.0
611,81.0,0,330,4.0,0.0
612,69.0,432,330,5.0,0.0
613,50.0,0,330,7.0,0.0
614,38.0,0,330,8.0,0.0
615,74.0,0,300,1.0,0.0
616,50.0,0,300,2.0,0.0
617,52.0,0,330,7.0,0.0
618,59.0,0,300,6.0,0.0
619,80.0,432,330,4.0,0.0
620,74.0,0,300,1.0,0.0
621,40.0,0,330,8.0,0.0
622,52.0,48,300,2.0,0.0
623,76.0,0,780,1.0,0.0
624,68.0,0,330,5.0,0.0
625,83.0,0,300,0.0,0.0
626,33.0,432,330,8.0,0.0
627,67.0,0,330,5.0,0.0
628,45.0,0,300,2.0,0.0
629,85.0,0,300,0.0,0.0
630,45.0,0,330,7.0,0.0
631,61.0,0,300,6.0,0.0
632,73.0,0,300,1.0,0.0
633,69.0,48,300,3.0,0.0
634,79.0,0,330,4.0,0.0
635,46.0,0,330,7.0,0.0
636,46.0,0,300,2.0,0.0
637,34.0,0,330,8.0,0.0
638,77.0,0,330,4.0,0.0
639,65.0,48,330,5.0,0.0
640,74.0,384,390,1.0,0.0
641,86.0,0,300,0.0,0.0
642,62.0,48,300,6.0,0.0
643,62.0,0,300,3.0,0.0
644,88.0,264,480,0.0,0.0
645,67.0,48,300,3.0,0.0
646,64.0,0,480,5.0,0.0
647,43.0,144,330,8.0,0.0
648,76.0,48,780,1.0,0.0
649,79.0,0,780,1.0,0.0
650,58.0,0,780,6.0,0.0
651,76.0,0,480,4.0,0.0
652,55.0,0,300,2.0,0.0
653,55.0,0,330,7.0,0.0
654,79.0,0,270,4.0,0.0
655,52.0,0,300,2.0,0.0
656,40.0,0,330,8.0,0.0
657,52.0,408,330,7.0,0.0
658,91.0,24,270,0.0,0.0
659,67.0,0,270,5.0,0.0
660,76.0,432,390,1.0,0.0
661,55.0,48,300,6.0,0.0
662,69.0,0,300,3.0,0.0
663,85.0,0,270,0.0,0.0
664,61.0,24,270,5.0,0.0
665,73.0,0,390,1.0,0.0
666,55.0,0,300,2.0,0.0
667,43.0,0,330,8.0,0.0
668,55.0,48,330,7.0,0.0
669,73.0,0,270,4.0,0.0
670,74.0,0,330,1.0,0.0
671,50.0,912,330,7.0,0.0
672,69.0,0,330,3.0,0.0
673,50.0,0,330,2.0,0.0
674,86.0,0,330,0.0,0.0
675,62.0,0,330,5.0,0.0
676,74.0,0,330,4.0,0.0
677,38.0,0,330,8.0,0.0
678,62.0,0,330,3.0,0.0
679,53.0,0,330,6.0,0.0
680,53.0,0,300,7.0,0.0
681,65.0,0,300,6.0,0.0
682,65.0,0,300,1.0,0.0
683,77.0,0,300,0.0,0.0
684,41.0,528,300,8.0,0.0
685,70.0,0,780,6.0,0.0
686,82.0,48,780,0.0,0.0
687,46.0,0,780,8.0,0.0
688,58.0,0,780,7.0,0.0
689,77.0,0,330,4.0,0.0
690,53.0,0,330,2.0,0.0
691,70.0,0,780,1.0,0.0
692,65.0,432,330,5.0,0.0
693,65.0,0,330,5.0,0.0
694,53.0,480,330,2.0,0.0
695,77.0,0,330,4.0,0.0
696,53.0,528,330,2.0,0.0
697,86.0,264,870,0.0,0.0
698,50.0,0,870,8.0,0.0
699,65.0,0,330,5.0,0.0
700,74.0,0,870,6.0,0.0
701,62.0,0,870,7.0,0.0
702,74.0,0,870,1.0,0.0
703,77.0,0,330,4.0,0.0
704,87.0,0,1140,4.0,0.0
705,63.0,216,1140,2.0,0.0
706,75.0,0,1140,5.0,0.0
707,60.0,0,180,7.0,0.0
708,72.0,0,180,6.0,0.0
709,48.0,0,180,8.0,0.0
710,84.0,240,180,0.0,0.0
711,72.0,0,180,1.0,0.0
712,70.0,0,180,6.0,0.0
713,82.0,0,180,0.0,0.0
714,46.0,240,180,8.0,0.0
715,70.0,0,180,1.0,0.0
716,58.0,0,180,7.0,0.0
717,45.0,0,180,8.0,0.0
718,69.0,0,180,6.0,0.0
719,69.0,0,180,1.0,0.0
720,81.0,24,180,0.0,0.0
721,57.0,0,180,7.0,0.0
722,60.0,0,180,7.0,0.0
723,48.0,0,180,8.0,0.0
724,72.0,240,180,6.0,0.0
725,72.0,0,180,1.0,0.0
726,84.0,0,180,0.0,0.0
727,86.0,0,180,4.0,0.0
728,74.0,0,180,5.0,0.0
729,58.0,0,390,7.0,0.0
730,62.0,216,180,2.0,0.0
731,70.0,0,390,1.0,0.0
732,46.0,24,390,8.0,0.0
733,82.0,0,390,0.0,0.0
734,70.0,0,390,6.0,0.0
735,70.0,240,180,5.0,0.0
736,58.0,0,180,2.0,0.0
737,82.0,0,180,4.0,0.0
738,65.0,0,180,5.0,0.0
739,77.0,240,180,4.0,0.0
740,53.0,0,180,2.0,0.0
741,74.0,0,180,4.0,0.0
742,62.0,408,180,5.0,0.0
743,50.0,0,180,2.0,0.0
744,38.0,0,390,8.0,0.0
745,70.0,0,330,4.0,0.0
746,50.0,0,390,7.0,0.0
747,58.0,0,330,5.0,0.0
748,62.0,0,390,1.0,0.0
749,74.0,432,390,0.0,0.0
750,46.0,48,330,2.0,0.0
751,62.0,0,390,6.0,0.0
752,50.0,0,330,2.0,0.0
753,79.0,0,780,1.0,0.0
754,67.0,0,780,1.0,0.0
755,43.0,0,780,8.0,0.0
756,67.0,48,780,6.0,0.0
757,62.0,0,390,3.0,0.0
758,50.0,384,390,3.0,0.0
759,74.0,48,330,4.0,0.0
760,79.0,0,780,0.0,0.0
761,62.0,0,330,5.0,0.0
762,55.0,0,780,7.0,0.0
763,62.0,0,330,5.0,0.0
764,50.0,0,330,2.0,0.0
765,62.0,0,390,3.0,0.0
766,50.0,432,390,3.0,0.0
767,74.0,48,330,4.0,0.0
768,82.0,0,870,0.0,0.0
769,62.0,480,390,3.0,0.0
770,50.0,0,390,3.0,0.0
771,62.0,48,330,5.0,0.0
772,58.0,0,870,7.0,0.0
773,46.0,0,870,8.0,0.0
774,50.0,0,330,2.0,0.0
775,74.0,0,330,4.0,0.0
776,70.0,0,870,1.0,0.0
777,82.0,0,870,1.0,0.0
778,70.0,264,870,6.0,0.0
779,84.0,0,1140,4.0,0.0
780,72.0,192,1140,5.0,0.0
781,60.0,0,1140,2.0,0.0
782,62.0,0,390,3.0,0.0
783,50.0,0,390,3.0,0.0
784,50.0,0,390,3.0,0.0
785,81.0,0,180,0.0,0.0
786,62.0,24,390,3.0,0.0
787,69.0,0,180,6.0,0.0
788,81.0,0,180,1.0,0.0
789,57.0,0,180,7.0,0.0
790,45.0,0,180,8.0,0.0
791,69.0,216,180,1.0,0.0
792,43.0,240,180,8.0,0.0
793,67.0,0,180,6.0,0.0
794,55.0,0,180,7.0,0.0
795,67.0,0,180,1.0,0.0
796,79.0,0,180,1.0,0.0
797,79.0,0,180,0.0,0.0
798,62.0,24,390,3.0,0.0
799,66.0,24,180,6.0,0.0
800,66.0,0,180,1.0,0.0
801,78.0,0,180,0.0,0.0
802,54.0,0,180,7.0,0.0
803,78.0,0,180,1.0,0.0
804,42.0,0,180,8.0,0.0
805,50.0,0,390,3.0,0.0
806,81.0,240,180,0.0,0.0
807,57.0,0,180,7.0,0.0
808,45.0,0,180,8.0,0.0
809,69.0,0,180,6.0,0.0
810,69.0,0,180,1.0,0.0
811,81.0,0,180,1.0,0.0
812,58.0,0,180,2.0,0.0
813,70.0,0,180,5.0,0.0
814,67.0,0,390,6.0,0.0
815,82.0,216,180,4.0,0.0
816,50.0,0,390,3.0,0.0
817,79.0,0,390,0.0,0.0
818,62.0,0,390,3.0,0.0
819,55.0,0,390,7.0,0.0
820,79.0,24,390,1.0,0.0
821,67.0,0,390,1.0,0.0
822,43.0,0,390,8.0,0.0
823,67.0,240,180,5.0,0.0
824,79.0,0,180,4.0,0.0
825,55.0,0,180,2.0,0.0
826,62.0,0,180,5.0,0.0
827,50.0,0,180,2.0,0.0
828,74.0,240,180,4.0,0.0
829,70.0,0,180,4.0,0.0
830,46.0,0,180,2.0,0.0
831,58.0,408,180,5.0,0.0
832,55.0,48,330,5.0,0.0
833,46.0,0,390,7.0,0.0
834,58.0,0,390,6.0,0.0
835,70.0,0,390,0.0,0.0
836,70.0,0,390,1.0,0.0
837,58.0,0,390,1.0,0.0
838,67.0,0,330,4.0,0.0
839,34.0,432,390,8.0,0.0
840,43.0,0,330,2.0,0.0
841,46.0,0,330,2.0,0.0
842,75.0,0,780,0.0,0.0
843,70.0,432,330,4.0,0.0
844,63.0,48,780,6.0,0.0
845,51.0,0,780,7.0,0.0
846,58.0,0,330,5.0,0.0
847,75.0,0,780,1.0,0.0
848,63.0,0,780,1.0,0.0
849,39.0,0,780,8.0,0.0
850,58.0,0,330,5.0,0.0
851,70.0,0,330,4.0,0.0
852,46.0,480,330,2.0,0.0
853,58.0,0,330,5.0,0.0
854,70.0,0,330,4.0,0.0
855,79.0,0,810,0.0,0.0
856,79.0,312,810,1.0,0.0
857,46.0,480,330,2.0,0.0
858,55.0,0,810,7.0,0.0
859,67.0,0,810,6.0,0.0
860,67.0,0,810,1.0,0.0
861,43.0,0,810,8.0,0.0
862,80.0,216,1140,4.0,0.0
863,56.0,0,1140,2.0,0.0
864,68.0,0,1140,5.0,0.0
865,65.0,0,180,1.0,0.0
866,65.0,0,180,6.0,0.0
867,53.0,0,180,7.0,0.0
868,41.0,0,180,8.0,0.0
869,77.0,0,180,1.0,0.0
870,77.0,240,180,0.0,0.0
871,75.0,0,180,1.0,0.0
872,63.0,0,180,1.0,0.0
873,63.0,0,180,6.0,0.0
874,75.0,0,180,0.0,0.0
875,39.0,0,180,8.0,0.0
876,51.0,240,180,7.0,0.0
877,38.0,24,180,8.0,0.0
878,62.0,0,180,6.0,0.0
879,50.0,0,180,7.0,0.0
880,74.0,0,180,0.0,0.0
881,74.0,0,180,1.0,0.0
882,62.0,0,180,1.0,0.0
883,41.0,0,180,8.0,0.0
884,53.0,0,180,7.0,0.0
885,65.0,0,180,6.0,0.0
886,77.0,0,180,0.0,0.0
887,77.0,0,180,1.0,0.0
888,65.0,408,180,1.0,0.0
889,75.0,0,330,1.0,0.0
890,75.0,0,330,0.0,0.0
891,55.0,0,330,2.0,0.0
892,63.0,0,330,6.0,0.0
893,51.0,0,330,7.0,0.0
894,63.0,0,330,1.0,0.0
895,79.0,312,330,4.0,0.0
896,67.0,0,330,5.0,0.0
897,39.0,0,330,8.0,0.0
898,59.0,0,780,6.0,0.0
899,35.0,0,780,8.0,0.0
900,71.0,0,780,0.0,0.0
901,65.0,240,180,5.0,0.0
902,53.0,0,180,2.0,0.0
903,77.0,0,180,4.0,0.0
904,47.0,120,780,7.0,0.0
905,59.0,0,780,1.0,0.0
906,71.0,0,780,1.0,0.0
907,63.0,0,180,5.0,0.0
908,51.0,0,180,2.0,0.0
909,75.0,240,180,4.0,0.0
910,62.0,0,180,5.0,0.0
911,50.0,120,180,2.0,0.0
912,74.0,0,180,4.0,0.0
913,65.0,408,180,5.0,0.0
914,53.0,0,180,2.0,0.0
915,77.0,0,180,4.0,0.0
916,63.0,312,330,5.0,0.0
917,48.0,0,330,7.0,0.0
918,60.0,0,330,1.0,0.0
919,60.0,0,330,6.0,0.0
920,75.0,0,330,4.0,0.0
921,72.0,0,330,1.0,0.0
922,36.0,0,330,8.0,0.0
923,51.0,0,330,2.0,0.0
924,72.0,0,330,0.0,0.0
925,74.0,0,780,0.0,0.0
926,50.0,0,780,7.0,0.0
927,38.0,0,780,8.0,0.0
928,62.0,0,180,5.0,0.0
929,62.0,0,780,6.0,0.0
930,62.0,120,780,1.0,0.0
931,74.0,0,780,1.0,0.0
932,50.0,0,180,2.0,0.0
933,74.0,240,180,4.0,0.0
934,60.0,0,180,5.0,0.0
935,48.0,240,180,2.0,0.0
936,72.0,0,180,4.0,0.0
937,59.0,120,180,5.0,0.0
938,47.0,0,180,2.0,0.0
939,71.0,0,180,4.0,0.0
940,62.0,408,180,5.0,0.0
941,50.0,0,180,2.0,0.0
942,74.0,0,180,4.0,0.0
943,60.0,0,330,5.0,0.0
944,72.0,0,330,4.0,0.0
945,51.0,0,330,7.0,0.0
946,75.0,0,330,1.0,0.0
947,39.0,0,330,8.0,0.0
948,63.0,312,330,6.0,0.0
949,48.0,0,330,2.0,0.0
950,75.0,0,330,0.0,0.0
951,63.0,0,330,1.0,0.0
952,73.0,120,780,1.0,0.0
953,73.0,0,780,6.0,0.0
954,55.0,0,780,3.0,0.0
955,85.0,0,780,1.0,0.0
956,67.0,0,780,3.0,0.0
957,61.0,0,780,7.0,0.0
958,49.0,0,780,8.0,0.0
959,58.0,0,180,5.0,0.0
960,70.0,0,180,4.0,0.0
961,46.0,240,180,2.0,0.0
962,85.0,0,780,0.0,0.0
963,69.0,0,180,4.0,0.0
964,45.0,240,180,2.0,0.0
965,57.0,0,180,5.0,0.0
966,58.0,0,180,5.0,0.0
967,70.0,0,180,4.0,0.0
968,46.0,120,180,2.0,0.0
969,55.0,408,180,5.0,0.0
970,43.0,0,180,2.0,0.0
971,67.0,0,180,4.0,0.0
972,86.0,0,330,0.0,0.0
973,62.0,0,390,3.0,0.0
974,50.0,264,390,3.0,0.0
975,74.0,0,330,1.0,0.0
976,62.0,0,330,7.0,0.0
977,86.0,48,330,1.0,0.0
978,74.0,0,330,6.0,0.0
979,66.0,0,330,4.0,0.0
980,42.0,0,330,2.0,0.0
981,62.0,0,330,5.0,0.0
982,50.0,0,330,8.0,0.0
983,46.0,0,180,8.0,0.0
984,85.0,0,780,4.0,0.0
985,61.0,0,780,2.0,0.0
986,82.0,240,180,0.0,0.0
987,73.0,0,780,5.0,0.0
988,67.0,120,780,3.0,0.0
989,55.0,0,780,3.0,0.0
990,58.0,0,180,7.0,0.0
991,70.0,0,180,6.0,0.0
992,82.0,0,180,1.0,0.0
993,70.0,0,180,1.0,0.0
994,69.0,240,180,1.0,0.0
995,81.0,0,180,1.0,0.0
996,57.0,0,180,7.0,0.0
997,45.0,0,180,8.0,0.0
998,69.0,0,180,6.0,0.0
999,81.0,0,180,0.0,0.0
1000,82.0,0,180,0.0,0.0
1001,70.0,0,180,6.0,0.0
1002,46.0,0,180,8.0,0.0
1003,70.0,0,180,1.0,0.0
1004,58.0,0,180,7.0,0.0
1005,82.0,120,180,1.0,0.0
1006,79.0,408,180,0.0,0.0
1007,67.0,0,180,1.0,0.0
1008,79.0,0,180,1.0,0.0
1009,45.0,0,180,8.0,0.0
1010,55.0,0,180,7.0,0.0
1011,67.0,0,180,6.0,0.0
1012,62.0,0,390,2.0,0.0
1013,86.0,264,390,4.0,0.0
1014,62.0,0,390,3.0,0.0
1015,66.0,0,330,1.0,0.0
1016,42.0,48,330,8.0,0.0
1017,74.0,0,390,5.0,0.0
1018,50.0,0,390,3.0,0.0
1019,54.0,0,330,7.0,0.0
1020,66.0,0,330,6.0,0.0
1021,78.0,0,330,1.0,0.0
1022,78.0,0,330,0.0,0.0
1023,74.0,0,180,0.0,0.0
1024,38.0,0,180,8.0,0.0
1025,50.0,0,180,7.0,0.0
1026,62.0,240,180,6.0,0.0
1027,50.0,96,780,3.0,0.0
1028,62.0,0,780,3.0,0.0
1029,74.0,0,180,1.0,0.0
1030,37.0,0,180,8.0,0.0
1031,73.0,0,180,0.0,0.0
1032,49.0,0,180,7.0,0.0
1033,73.0,0,180,1.0,0.0
1034,61.0,240,180,6.0,0.0
1035,74.0,0,420,1.0,0.0
1036,38.0,0,180,8.0,0.0
1037,50.0,0,180,7.0,0.0
1038,50.0,24,390,2.0,0.0
1039,62.0,0,180,6.0,0.0
1040,74.0,120,180,0.0,0.0
1041,62.0,0,390,4.0,0.0
1042,72.0,0,180,0.0,0.0
1043,72.0,0,180,1.0,0.0
1044,60.0,0,180,6.0,0.0
1045,36.0,360,180,8.0,0.0
1046,48.0,0,180,7.0,0.0
1047,58.0,0,330,6.0,0.0
1048,70.0,48,300,0.0,0.0
1049,70.0,0,300,1.0,0.0
1050,55.0,0,780,2.0,0.0
1051,46.0,48,330,7.0,0.0
1052,79.0,0,780,1.0,0.0
1053,55.0,384,390,3.0,0.0
1054,34.0,0,330,8.0,0.0
1055,67.0,48,780,4.0,0.0
1056,62.0,0,330,6.0,0.0
1057,46.0,0,330,8.0,0.0
1058,58.0,432,330,7.0,0.0
1059,70.0,312,810,4.0,0.0
1060,67.0,0,330,5.0,0.0
1061,67.0,0,330,1.0,0.0
1062,82.0,0,810,1.0,0.0
1063,58.0,0,330,6.0,0.0
1064,43.0,0,330,8.0,0.0
1065,79.0,48,300,0.0,0.0
1066,58.0,0,810,2.0,0.0
1067,55.0,480,330,2.0,0.0
1068,55.0,0,330,7.0,0.0
1069,60.0,0,900,2.0,0.0
1070,72.0,48,780,5.0,0.0
1071,84.0,0,780,0.0,0.0
1072,51.0,0,330,7.0,0.0
1073,39.0,0,330,8.0,0.0
1074,72.0,0,900,1.0,0.0
1075,55.0,0,330,6.0,0.0
1076,63.0,72,330,6.0,0.0
1077,36.0,0,330,8.0,0.0
1078,48.0,0,330,7.0,0.0
1079,57.0,0,180,2.0,0.0
1080,81.0,120,180,1.0,0.0
1081,69.0,0,180,4.0,0.0
1082,82.0,0,180,1.0,0.0
1083,58.0,0,180,2.0,0.0
1084,70.0,240,180,4.0,0.0
1085,87.0,24,390,0.0,0.0
1086,75.0,0,810,5.0,0.0
1087,48.0,48,330,8.0,0.0
1088,75.0,312,810,1.0,0.0
1089,79.0,168,180,1.0,0.0
1090,60.0,0,330,7.0,0.0
1091,67.0,0,180,4.0,0.0
1092,57.0,0,810,6.0,0.0
1093,63.0,0,810,2.0,0.0
1094,55.0,0,180,2.0,0.0
1095,69.0,0,180,4.0,0.0
1096,81.0,0,180,1.0,0.0
1097,57.0,408,180,2.0,0.0
1098,78.0,0,900,1.0,0.0
1099,50.0,0,330,8.0,0.0
1100,87.0,0,330,0.0,0.0
1101,62.0,0,330,7.0,0.0
1102,54.0,0,900,2.0,0.0
1103,62.0,0,1380,3.0,0.0
1104,50.0,0,1380,3.0,0.0
1105,66.0,48,780,4.0,0.0
1106,54.0,72,330,6.0,0.0
1107,74.0,120,180,1.0,0.0
1108,62.0,0,180,2.0,0.0
1109,74.0,0,180,5.0,0.0
1110,57.0,0,330,7.0,0.0
1111,45.0,0,330,8.0,0.0
1112,86.0,0,180,0.0,0.0
1113,63.0,0,180,2.0,0.0
1114,75.0,240,180,5.0,0.0
1115,75.0,0,180,1.0,0.0
1116,87.0,0,180,0.0,0.0
1117,72.0,0,180,1.0,0.0
1118,42.0,0,330,8.0,0.0
1119,62.0,0,810,6.0,0.0
1120,60.0,0,180,2.0,0.0
1121,81.0,0,810,4.0,0.0
1122,57.0,0,810,2.0,0.0
1123,54.0,72,330,7.0,0.0
1124,81.0,312,810,1.0,0.0
1125,84.0,168,180,0.0,0.0
1126,72.0,0,180,5.0,0.0
1127,62.0,0,180,2.0,0.0
1128,74.0,408,180,5.0,0.0
1129,86.0,0,180,0.0,0.0
1130,74.0,0,180,1.0,0.0
1131,58.0,240,900,2.0,0.0
1132,43.0,0,330,8.0,0.0
1133,70.0,48,780,5.0,0.0
1134,55.0,0,330,7.0,0.0
1135,43.0,0,1380,3.0,0.0
1136,82.0,0,780,0.0,0.0
1137,55.0,0,1380,3.0,0.0
1138,70.0,0,900,1.0,0.0
1139,38.0,0,330,8.0,0.0
1140,55.0,120,180,2.0,0.0
1141,79.0,0,180,1.0,0.0
1142,79.0,0,180,4.0,0.0
1143,58.0,0,330,6.0,0.0
1144,50.0,72,330,7.0,0.0
1145,56.0,0,180,2.0,0.0
1146,80.0,0,180,1.0,0.0
1147,80.0,0,180,4.0,0.0
1148,77.0,0,180,1.0,0.0
1149,86.0,48,810,5.0,0.0
1150,77.0,0,180,4.0,0.0
1151,74.0,0,810,1.0,0.0
1152,67.0,0,810,6.0,0.0
1153,35.0,0,330,8.0,0.0
1154,47.0,48,330,7.0,0.0
1155,62.0,0,810,2.0,0.0
1156,86.0,24,390,0.0,0.0
1157,53.0,168,180,2.0,0.0
1158,79.0,0,180,1.0,0.0
1159,79.0,408,180,4.0,0.0
1160,55.0,0,180,2.0,0.0
1161,48.0,0,330,7.0,0.0
1162,51.0,0,900,2.0,0.0
1163,86.0,264,390,0.0,0.0
1164,75.0,48,780,4.0,0.0
1165,36.0,0,330,8.0,0.0
1166,75.0,24,900,1.0,0.0
1167,84.0,96,180,0.0,0.0
1168,72.0,24,180,1.0,0.0
1169,84.0,0,180,5.0,0.0
1170,60.0,0,180,2.0,0.0
1171,66.0,0,330,6.0,0.0
1172,44.0,0,330,7.0,0.0
1173,32.0,72,330,8.0,0.0
1174,86.0,0,180,5.0,0.0
1175,62.0,0,180,2.0,0.0
1176,74.0,0,180,1.0,0.0
1177,86.0,216,180,0.0,0.0
1178,67.0,72,330,6.0,0.0
1179,43.0,0,330,7.0,0.0
1180,82.0,144,180,0.0,0.0
1181,31.0,0,330,8.0,0.0
1182,87.0,0,810,4.0,0.0
1183,58.0,0,180,2.0,0.0
1184,63.0,312,810,2.0,0.0
1185,82.0,0,180,5.0,0.0
1186,70.0,24,180,1.0,0.0
1187,75.0,0,810,1.0,0.0
1188,60.0,0,180,2.0,0.0
1189,84.0,0,180,5.0,0.0
1190,84.0,384,180,0.0,0.0
1191,72.0,24,180,1.0,0.0
1192,57.0,0,900,2.0,0.0
1193,81.0,48,780,5.0,0.0
1194,69.0,0,810,1.0,0.0
1195,30.0,0,330,8.0,0.0
1196,81.0,0,780,0.0,0.0
1197,42.0,0,330,7.0,0.0
1198,69.0,0,330,6.0,0.0
1199,42.0,0,330,8.0,0.0
1200,62.0,0,180,2.0,0.0
1201,54.0,0,330,7.0,0.0
1202,74.0,0,330,1.0,0.0
1203,57.0,72,330,6.0,0.0
1204,86.0,120,180,4.0,0.0
1205,87.0,0,180,4.0,0.0
1206,63.0,240,180,2.0,0.0
1207,81.0,0,330,1.0,0.0
1208,84.0,0,330,1.0,0.0
1209,84.0,168,180,4.0,0.0
1210,62.0,48,330,3.0,0.0
1211,78.0,0,330,5.0,0.0
1212,69.0,0,330,3.0,0.0
1213,69.0,0,330,6.0,0.0
1214,50.0,0,330,7.0,0.0
1215,54.0,0,420,2.0,0.0
1216,60.0,0,180,2.0,0.0
1217,38.0,0,330,8.0,0.0
1218,90.0,24,390,0.0,0.0
1219,62.0,0,180,2.0,0.0
1220,86.0,360,180,4.0,0.0
1221,82.0,0,300,1.0,0.0
1222,91.0,0,300,0.0,0.0
1223,55.0,0,300,3.0,0.0
1224,43.0,0,300,8.0,0.0
1225,79.0,480,300,5.0,0.0
1226,67.0,0,300,6.0,0.0
1227,55.0,0,300,7.0,0.0
1228,58.0,0,300,2.0,0.0
1229,82.0,0,300,4.0,0.0
1230,79.0,0,300,1.0,0.0
1231,67.0,0,300,3.0,0.0
1232,78.0,0,300,4.0,0.0
1233,62.0,0,300,7.0,0.0
1234,69.0,0,300,6.0,0.0
1235,60.0,0,300,2.0,0.0
1236,62.0,0,300,3.0,0.0
1237,69.0,0,300,3.0,0.0
1238,50.0,0,300,8.0,0.0
1239,81.0,0,300,1.0,0.0
1240,78.0,0,300,1.0,0.0
1241,84.0,480,300,0.0,0.0
1242,72.0,0,300,5.0,0.0
1243,66.0,0,300,2.0,0.0
1244,79.0,0,300,4.0,0.0
1245,63.0,480,300,7.0,0.0
1246,82.0,0,300,0.0,0.0
1247,67.0,0,300,3.0,0.0
1248,58.0,0,300,2.0,0.0
1249,55.0,0,300,3.0,0.0
1250,67.0,0,300,6.0,0.0
1251,51.0,0,300,8.0,0.0
1252,67.0,0,300,2.0,0.0
1253,70.0,0,300,5.0,0.0
1254,79.0,0,300,1.0,0.0
1255,63.0,0,300,2.0,0.0
1256,60.0,0,300,6.0,0.0
1257,69.0,480,300,4.0,0.0
1258,75.0,0,780,1.0,0.0
1259,81.0,0,300,1.0,0.0
1260,60.0,0,300,2.0,0.0
1261,69.0,0,300,3.0,0.0
1262,72.0,0,300,3.0,0.0
1263,60.0,0,300,7.0,0.0
1264,48.0,0,300,8.0,0.0
1265,84.0,0,300,0.0,0.0
1266,63.0,0,300,5.0,0.0
1267,84.0,0,300,1.0,0.0
1268,63.0,0,300,6.0,0.0
1269,57.0,0,300,7.0,0.0
1270,57.0,432,300,2.0,0.0
1271,45.0,0,300,8.0,0.0
1272,72.0,0,300,5.0,0.0
1273,87.0,0,300,0.0,0.0
1274,60.0,0,300,2.0,0.0
1275,81.0,0,300,4.0,0.0
1276,78.0,384,390,1.0,0.0
1277,78.0,96,300,4.0,0.0
1278,54.0,0,300,2.0,0.0
1279,62.0,0,300,6.0,0.0
1280,74.0,48,240,1.0,0.0
1281,62.0,0,300,3.0,0.0
1282,69.0,0,300,3.0,0.0
1283,81.0,0,300,0.0,0.0
1284,50.0,0,300,8.0,0.0
1285,62.0,0,300,7.0,0.0
1286,69.0,0,300,5.0,0.0
1287,57.0,0,300,2.0,0.0
1288,72.0,0,150,1.0,0.0
1289,55.0,0,300,2.0,0.0
1290,79.0,0,300,0.0,0.0
1291,70.0,0,300,5.0,0.0
1292,79.0,0,300,1.0,0.0
1293,43.0,0,300,8.0,0.0
1294,62.0,0,300,6.0,0.0
1295,70.0,672,300,1.0,0.0
1296,79.0,0,300,4.0,0.0
1297,55.0,0,300,3.0,0.0
1298,67.0,0,300,3.0,0.0
1299,55.0,0,300,7.0,0.0
1300,67.0,336,480,2.0,0.0
1301,74.0,144,330,0.0,0.0
1302,69.0,0,480,1.0,0.0
1303,66.0,480,480,2.0,0.0
1304,65.0,288,480,2.0,0.0
1305,71.0,0,480,1.0,0.0
1306,79.0,96,780,0.0,0.0
1307,72.0,96,390,1.0,0.0
1308,64.0,480,480,2.0,0.0
1309,79.0,0,810,1.0,0.0
1310,73.0,0,480,1.0,0.0
1311,82.0,0,810,0.0,0.0
1312,63.0,336,480,2.0,0.0
1313,62.0,312,330,2.0,0.0
1314,74.0,0,330,1.0,0.0
1315,72.0,0,180,1.0,0.0
1316,62.0,72,330,2.0,0.0
1317,81.0,168,180,0.0,0.0
1318,74.0,240,420,1.0,0.0
1319,79.0,0,180,0.0,0.0
1320,70.0,0,180,1.0,0.0
1321,62.0,72,330,2.0,0.0
1322,69.0,0,180,1.0,0.0
1323,78.0,168,180,0.0,0.0
1324,72.0,408,180,1.0,0.0
1325,81.0,0,180,0.0,0.0
1326,70.0,144,1140,1.0,0.0
1327,76.0,0,1140,1.0,0.0
1328,79.0,480,330,0.0,0.0
1329,61.0,0,330,2.0,0.0
1330,61.0,336,330,2.0,0.0
1331,79.0,480,330,0.0,0.0
1332,61.0,0,330,2.0,0.0
1333,70.0,0,330,1.0,0.0
1334,62.0,0,390,7.0,0.0
1335,50.0,0,330,3.0,0.0
1336,62.0,0,330,3.0,0.0
1337,50.0,0,390,8.0,0.0
1338,67.0,0,390,5.0,0.0
1339,58.0,48,330,2.0,0.0
1340,70.0,0,390,4.0,0.0
1341,62.0,0,330,2.0,0.0
1342,82.0,48,780,0.0,0.0
1343,79.0,0,330,1.0,0.0
1344,62.0,384,390,6.0,0.0
1345,70.0,0,330,1.0,0.0
1346,55.0,0,330,2.0,0.0
1347,58.0,480,330,2.0,0.0
1348,74.0,0,330,1.0,0.0
1349,62.0,0,330,3.0,0.0
1350,50.0,0,330,3.0,0.0
1351,58.0,0,330,2.0,0.0
1352,55.0,0,330,2.0,0.0
1353,50.0,0,330,3.0,0.0
1354,62.0,0,330,3.0,0.0
1355,86.0,0,810,0.0,0.0
1356,70.0,480,330,1.0,0.0
1357,74.0,0,330,1.0,0.0
1358,50.0,0,330,3.0,0.0
1359,60.0,0,390,6.0,0.0
1360,62.0,0,330,3.0,0.0
1361,66.0,0,390,5.0,0.0
1362,62.0,0,390,6.0,0.0
1363,38.0,0,390,8.0,0.0
1364,50.0,0,390,7.0,0.0
1365,54.0,48,330,2.0,0.0
1366,57.0,0,330,2.0,0.0
1367,74.0,0,330,1.0,0.0
1368,72.0,0,330,1.0,0.0
1369,69.0,264,390,4.0,0.0
1370,50.0,0,330,3.0,0.0
1371,72.0,72,330,1.0,0.0
1372,74.0,0,330,1.0,0.0
1373,78.0,168,180,0.0,0.0
1374,54.0,0,330,2.0,0.0
1375,57.0,0,330,2.0,0.0
1376,62.0,0,330,3.0,0.0
1377,79.0,240,180,0.0,0.0
1378,57.0,72,330,2.0,0.0
1379,54.0,0,330,2.0,0.0
1380,50.0,0,330,3.0,0.0
1381,62.0,0,330,3.0,0.0
1382,72.0,0,330,1.0,0.0
1383,74.0,0,330,1.0,0.0
1384,81.0,168,180,0.0,0.0
1385,82.0,408,180,0.0,0.0
1386,74.0,0,330,1.0,0.0
1387,70.0,0,330,1.0,0.0
1388,79.0,48,330,0.0,0.0
1389,43.0,0,390,8.0,0.0
1390,62.0,0,330,3.0,0.0
1391,50.0,0,330,3.0,0.0
1392,55.0,0,330,2.0,0.0
1393,55.0,0,390,7.0,0.0
1394,67.0,912,390,5.0,0.0
1395,58.0,0,390,6.0,0.0
1396,62.0,0,390,6.0,0.0
1397,67.0,0,390,4.0,0.0
1398,65.0,0,330,6.0,0.0
1399,65.0,0,330,1.0,0.0
1400,41.0,480,330,8.0,0.0
1401,77.0,0,330,0.0,0.0
1402,53.0,0,330,7.0,0.0
1403,70.0,48,780,6.0,0.0
1404,58.0,0,780,7.0,0.0
1405,53.0,0,330,2.0,0.0
1406,65.0,432,330,5.0,0.0
1407,82.0,0,780,0.0,0.0
1408,77.0,0,330,4.0,0.0
1409,70.0,0,780,1.0,0.0
1410,46.0,0,780,8.0,0.0
1411,77.0,480,330,4.0,0.0
1412,53.0,0,330,2.0,0.0
1413,65.0,0,330,5.0,0.0
1414,77.0,528,330,4.0,0.0
1415,65.0,0,330,5.0,0.0
1416,74.0,0,870,6.0,0.0
1417,53.0,0,330,2.0,0.0
1418,86.0,0,870,0.0,0.0
1419,62.0,0,870,7.0,0.0
1420,74.0,264,870,1.0,0.0
1421,50.0,0,870,8.0,0.0
1422,75.0,0,1140,5.0,0.0
1423,63.0,216,1140,2.0,0.0
1424,87.0,0,1140,4.0,0.0
1425,48.0,0,180,8.0,0.0
1426,84.0,240,180,0.0,0.0
1427,72.0,0,180,1.0,0.0
1428,72.0,0,180,6.0,0.0
1429,60.0,0,180,7.0,0.0
1430,70.0,0,180,6.0,0.0
1431,82.0,0,180,0.0,0.0
1432,46.0,240,180,8.0,0.0
1433,58.0,0,180,7.0,0.0
1434,70.0,0,180,1.0,0.0
1435,69.0,24,180,6.0,0.0
1436,81.0,0,180,0.0,0.0
1437,57.0,0,180,7.0,0.0
1438,69.0,0,180,1.0,0.0
1439,45.0,0,180,8.0,0.0
1440,84.0,0,180,0.0,0.0
1441,72.0,0,180,1.0,0.0
1442,60.0,240,180,7.0,0.0
1443,48.0,0,180,8.0,0.0
1444,72.0,0,180,6.0,0.0
1445,74.0,216,180,5.0,0.0
1446,62.0,0,180,2.0,0.0
1447,58.0,0,390,7.0,0.0
1448,46.0,0,390,8.0,0.0
1449,86.0,0,180,4.0,0.0
1450,70.0,0,390,1.0,0.0
1451,82.0,0,390,0.0,0.0
1452,70.0,24,390,6.0,0.0
1453,58.0,0,180,2.0,0.0
1454,82.0,240,180,4.0,0.0
1455,70.0,0,180,5.0,0.0
1456,65.0,240,180,5.0,0.0
1457,53.0,0,180,2.0,0.0
1458,77.0,0,180,4.0,0.0
1459,62.0,0,180,5.0,0.0
1460,74.0,408,180,4.0,0.0
1461,50.0,0,180,2.0,0.0
1462,74.0,0,390,0.0,0.0
1463,38.0,0,390,8.0,0.0
1464,58.0,48,330,5.0,0.0
1465,62.0,0,390,1.0,0.0
1466,46.0,0,330,2.0,0.0
1467,62.0,432,390,6.0,0.0
1468,50.0,0,390,7.0,0.0
1469,70.0,0,330,4.0,0.0
1470,67.0,0,780,1.0,0.0
1471,74.0,48,330,4.0,0.0
1472,55.0,0,780,7.0,0.0
1473,67.0,0,780,6.0,0.0
1474,50.0,0,330,2.0,0.0
1475,79.0,0,780,0.0,0.0
1476,62.0,384,390,3.0,0.0
1477,50.0,0,390,3.0,0.0
1478,43.0,48,780,8.0,0.0
1479,79.0,0,780,1.0,0.0
1480,62.0,0,330,5.0,0.0
1481,50.0,432,390,3.0,0.0
1482,62.0,48,330,5.0,0.0
1483,50.0,0,330,2.0,0.0
1484,62.0,0,390,3.0,0.0
1485,74.0,0,330,4.0,0.0
1486,82.0,0,870,0.0,0.0
1487,70.0,264,870,1.0,0.0
1488,46.0,0,870,8.0,0.0
1489,82.0,0,870,1.0,0.0
1490,50.0,48,330,2.0,0.0
1491,58.0,0,870,7.0,0.0
1492,62.0,480,390,3.0,0.0
1493,50.0,0,390,3.0,0.0
1494,74.0,0,330,4.0,0.0
1495,70.0,0,870,6.0,0.0
1496,62.0,0,330,5.0,0.0
1497,62.0,0,390,3.0,0.0
1498,50.0,0,390,3.0,0.0
1499,72.0,0,1140,5.0,0.0
1500,84.0,0,1140,4.0,0.0
1501,60.0,192,1140,2.0,0.0
1502,69.0,0,180,6.0,0.0
1503,62.0,24,390,3.0,0.0
1504,50.0,0,390,3.0,0.0
1505,57.0,0,180,7.0,0.0
1506,45.0,0,180,8.0,0.0
1507,81.0,216,180,0.0,0.0
1508,81.0,0,180,1.0,0.0
1509,69.0,0,180,1.0,0.0
1510,79.0,0,180,0.0,0.0
1511,79.0,0,180,1.0,0.0
1512,67.0,240,180,1.0,0.0
1513,55.0,0,180,7.0,0.0
1514,43.0,0,180,8.0,0.0
1515,67.0,0,180,6.0,0.0
1516,66.0,0,180,6.0,0.0
1517,78.0,0,180,0.0,0.0
1518,42.0,24,180,8.0,0.0
1519,78.0,0,180,1.0,0.0
1520,66.0,0,180,1.0,0.0
1521,54.0,0,180,7.0,0.0
1522,50.0,24,390,3.0,0.0
1523,62.0,0,390,3.0,0.0
1524,81.0,0,180,1.0,0.0
1525,57.0,0,180,7.0,0.0
1526,45.0,0,180,8.0,0.0
1527,69.0,0,180,1.0,0.0
1528,69.0,0,180,6.0,0.0
1529,81.0,240,180,0.0,0.0
1530,55.0,0,390,7.0,0.0
1531,62.0,0,390,3.0,0.0
1532,50.0,0,390,3.0,0.0
1533,58.0,216,180,2.0,0.0
1534,67.0,24,390,1.0,0.0
1535,67.0,0,390,6.0,0.0
1536,70.0,0,180,5.0,0.0
1537,79.0,0,390,0.0,0.0
1538,82.0,0,180,4.0,0.0
1539,43.0,0,390,8.0,0.0
1540,79.0,0,390,1.0,0.0
1541,67.0,0,180,5.0,0.0
1542,79.0,240,180,4.0,0.0
1543,55.0,0,180,2.0,0.0
1544,50.0,240,180,2.0,0.0
1545,62.0,0,180,5.0,0.0
1546,74.0,0,180,4.0,0.0
1547,46.0,0,180,2.0,0.0
1548,70.0,408,180,4.0,0.0
1549,58.0,0,180,5.0,0.0
1550,58.0,0,390,1.0,0.0
1551,70.0,0,390,0.0,0.0
1552,34.0,0,390,8.0,0.0
1553,46.0,0,390,7.0,0.0
1554,55.0,0,330,5.0,0.0
1555,43.0,0,330,2.0,0.0
1556,67.0,48,330,4.0,0.0
1557,70.0,432,390,1.0,0.0
1558,58.0,0,390,6.0,0.0
1559,39.0,0,780,8.0,0.0
1560,58.0,0,330,5.0,0.0
1561,46.0,432,330,2.0,0.0
1562,70.0,0,330,4.0,0.0
1563,51.0,48,780,7.0,0.0
1564,75.0,0,780,0.0,0.0
1565,63.0,0,780,1.0,0.0
1566,63.0,0,780,6.0,0.0
1567,75.0,0,780,1.0,0.0
1568,46.0,0,330,2.0,0.0
1569,58.0,0,330,5.0,0.0
1570,70.0,480,330,4.0,0.0
1571,58.0,0,330,5.0,0.0
1572,79.0,0,810,0.0,0.0
1573,43.0,0,810,8.0,0.0
1574,67.0,0,810,6.0,0.0
1575,67.0,0,810,1.0,0.0
1576,70.0,0,330,4.0,0.0
1577,46.0,480,330,2.0,0.0
1578,55.0,0,810,7.0,0.0
1579,79.0,312,810,1.0,0.0
1580,80.0,0,1140,4.0,0.0
1581,56.0,216,1140,2.0,0.0
1582,68.0,0,1140,5.0,0.0
1583,77.0,0,180,1.0,0.0
1584,65.0,240,180,1.0,0.0
1585,65.0,0,180,6.0,0.0
1586,41.0,0,180,8.0,0.0
1587,77.0,0,180,0.0,0.0
1588,53.0,0,180,7.0,0.0
1589,75.0,0,180,0.0,0.0
1590,63.0,240,180,6.0,0.0
1591,75.0,0,180,1.0,0.0
1592,51.0,0,180,7.0,0.0
1593,39.0,0,180,8.0,0.0
1594,63.0,0,180,1.0,0.0
1595,62.0,0,180,6.0,0.0
1596,50.0,0,180,7.0,0.0
1597,38.0,24,180,8.0,0.0
1598,74.0,0,180,1.0,0.0
1599,62.0,0,180,1.0,0.0
1600,74.0,0,180,0.0,0.0
1601,77.0,0,180,1.0,0.0
1602,77.0,408,180,0.0,0.0
1603,53.0,0,180,7.0,0.0
1604,41.0,0,180,8.0,0.0
1605,65.0,0,180,6.0,0.0
1606,65.0,0,180,1.0,0.0
1607,75.0,0,330,0.0,0.0
1608,63.0,0,330,6.0,0.0
1609,67.0,0,330,5.0,0.0
1610,51.0,0,330,7.0,0.0
1611,39.0,0,330,8.0,0.0
1612,79.0,0,330,4.0,0.0
1613,63.0,0,330,1.0,0.0
1614,75.0,312,330,1.0,0.0
1615,55.0,0,330,2.0,0.0
1616,65.0,240,180,5.0,0.0
1617,77.0,0,180,4.0,0.0
1618,71.0,0,780,1.0,0.0
1619,53.0,0,180,2.0,0.0
1620,35.0,0,780,8.0,0.0
1621,47.0,120,780,7.0,0.0
1622,71.0,0,780,0.0,0.0
1623,59.0,0,780,1.0,0.0
1624,59.0,0,780,6.0,0.0
1625,75.0,240,180,4.0,0.0
1626,63.0,0,180,5.0,0.0
1627,51.0,0,180,2.0,0.0
1628,50.0,120,180,2.0,0.0
1629,74.0,0,180,4.0,0.0
1630,62.0,0,180,5.0,0.0
1631,65.0,0,180,5.0,0.0
1632,77.0,408,180,4.0,0.0
1633,53.0,0,180,2.0,0.0
1634,60.0,0,330,6.0,0.0
1635,75.0,0,330,4.0,0.0
1636,36.0,0,330,8.0,0.0
1637,63.0,0,330,5.0,0.0
1638,51.0,312,330,2.0,0.0
1639,60.0,0,330,1.0,0.0
1640,72.0,0,330,1.0,0.0
1641,48.0,0,330,7.0,0.0
1642,72.0,0,330,0.0,0.0
1643,50.0,0,780,7.0,0.0
1644,62.0,240,180,5.0,0.0
1645,62.0,0,780,1.0,0.0
1646,74.0,0,180,4.0,0.0
1647,74.0,120,780,0.0,0.0
1648,38.0,0,780,8.0,0.0
1649,62.0,0,780,6.0,0.0
1650,74.0,0,780,1.0,0.0
1651,50.0,0,180,2.0,0.0
1652,72.0,240,180,4.0,0.0
1653,48.0,0,180,2.0,0.0
1654,60.0,0,180,5.0,0.0
1655,47.0,0,180,2.0,0.0
1656,71.0,120,180,4.0,0.0
1657,59.0,0,180,5.0,0.0
1658,62.0,0,180,5.0,0.0
1659,74.0,0,180,4.0,0.0
1660,50.0,408,180,2.0,0.0
1661,48.0,0,330,2.0,0.0
1662,75.0,0,330,0.0,0.0
1663,72.0,0,330,4.0,0.0
1664,60.0,0,330,5.0,0.0
1665,75.0,0,330,1.0,0.0
1666,63.0,0,330,1.0,0.0
1667,51.0,0,330,7.0,0.0
1668,39.0,0,330,8.0,0.0
1669,63.0,312,330,6.0,0.0
1670,73.0,0,780,1.0,0.0
1671,85.0,0,780,1.0,0.0
1672,46.0,0,180,2.0,0.0
1673,73.0,0,780,6.0,0.0
1674,49.0,120,780,8.0,0.0
1675,85.0,0,780,0.0,0.0
1676,58.0,0,180,5.0,0.0
1677,70.0,240,180,4.0,0.0
1678,61.0,0,780,7.0,0.0
1679,55.0,0,780,3.0,0.0
1680,67.0,0,780,3.0,0.0
1681,57.0,0,180,5.0,0.0
1682,69.0,0,180,4.0,0.0
1683,45.0,240,180,2.0,0.0
1684,70.0,120,180,4.0,0.0
1685,58.0,0,180,5.0,0.0
1686,46.0,0,180,2.0,0.0
1687,55.0,0,180,5.0,0.0
1688,43.0,408,180,2.0,0.0
1689,67.0,0,180,4.0,0.0
1690,66.0,0,330,4.0,0.0
1691,42.0,0,330,2.0,0.0
1692,50.0,48,330,8.0,0.0
1693,62.0,0,330,5.0,0.0
1694,50.0,0,390,3.0,0.0
1695,74.0,0,330,6.0,0.0
1696,62.0,264,390,3.0,0.0
1697,86.0,0,330,1.0,0.0
1698,62.0,0,330,7.0,0.0
1699,86.0,0,330,0.0,0.0
1700,74.0,0,330,1.0,0.0
1701,55.0,0,780,3.0,0.0
1702,46.0,0,180,8.0,0.0
1703,73.0,0,780,5.0,0.0
1704,70.0,0,180,6.0,0.0
1705,85.0,0,780,4.0,0.0
1706,61.0,0,780,2.0,0.0
1707,70.0,0,180,1.0,0.0
1708,82.0,240,180,1.0,0.0
1709,58.0,0,180,7.0,0.0
1710,67.0,120,780,3.0,0.0
1711,82.0,0,180,0.0,0.0
1712,81.0,0,180,1.0,0.0
1713,69.0,0,180,1.0,0.0
1714,81.0,240,180,0.0,0.0
1715,69.0,0,180,6.0,0.0
1716,45.0,0,180,8.0,0.0
1717,57.0,0,180,7.0,0.0
1718,46.0,0,180,8.0,0.0
1719,82.0,0,180,1.0,0.0
1720,70.0,0,180,1.0,0.0
1721,70.0,120,180,6.0,0.0
1722,82.0,0,180,0.0,0.0
1723,58.0,0,180,7.0,0.0
1724,67.0,408,180,6.0,0.0
1725,55.0,0,180,7.0,0.0
1726,79.0,0,180,1.0,0.0
1727,67.0,0,180,1.0,0.0
1728,79.0,0,180,0.0,0.0
1729,45.0,0,180,8.0,0.0
1730,62.0,0,390,2.0,0.0
1731,42.0,0,330,8.0,0.0
1732,78.0,0,330,1.0,0.0
1733,66.0,0,330,1.0,0.0
1734,50.0,0,390,3.0,0.0
1735,62.0,0,390,3.0,0.0
1736,86.0,0,390,4.0,0.0
1737,74.0,264,390,5.0,0.0
1738,54.0,48,330,7.0,0.0
1739,78.0,0,330,0.0,0.0
1740,66.0,0,330,6.0,0.0
1741,38.0,0,180,8.0,0.0
1742,62.0,240,180,6.0,0.0
1743,74.0,0,180,0.0,0.0
1744,62.0,0,780,3.0,0.0
1745,50.0,96,780,3.0,0.0
1746,50.0,0,180,7.0,0.0
1747,74.0,0,180,1.0,0.0
1748,37.0,0,180,8.0,0.0
1749,49.0,240,180,7.0,0.0
1750,61.0,0,180,6.0,0.0
1751,73.0,0,180,1.0,0.0
1752,73.0,0,180,0.0,0.0
1753,62.0,24,390,4.0,0.0
1754,50.0,0,180,7.0,0.0
1755,74.0,0,180,0.0,0.0
1756,38.0,120,180,8.0,0.0
1757,74.0,0,420,1.0,0.0
1758,62.0,0,180,6.0,0.0
1759,50.0,0,390,2.0,0.0
1760,72.0,360,180,1.0,0.0
1761,72.0,0,180,0.0,0.0
1762,36.0,0,180,8.0,0.0
1763,48.0,0,180,7.0,0.0
1764,60.0,0,180,6.0,0.0
1765,70.0,48,300,1.0,0.0
1766,70.0,0,300,0.0,0.0
1767,79.0,0,780,1.0,0.0
1768,67.0,0,780,4.0,0.0
1769,55.0,48,780,2.0,0.0
1770,55.0,384,390,3.0,0.0
1771,34.0,0,330,8.0,0.0
1772,58.0,48,330,6.0,0.0
1773,46.0,0,330,7.0,0.0
1774,58.0,0,330,7.0,0.0
1775,46.0,0,330,8.0,0.0
1776,62.0,432,330,6.0,0.0
1777,55.0,0,330,7.0,0.0
1778,67.0,480,330,1.0,0.0
1779,82.0,0,810,1.0,0.0
1780,43.0,0,330,8.0,0.0
1781,70.0,312,810,4.0,0.0
1782,67.0,0,330,5.0,0.0
1783,58.0,0,810,2.0,0.0
1784,79.0,48,300,0.0,0.0
1785,58.0,0,330,6.0,0.0
1786,55.0,0,330,2.0,0.0
1787,72.0,0,900,1.0,0.0
1788,51.0,0,330,7.0,0.0
1789,55.0,0,330,6.0,0.0
1790,84.0,48,780,0.0,0.0
1791,60.0,0,900,2.0,0.0
1792,72.0,0,780,5.0,0.0
1793,39.0,0,330,8.0,0.0
1794,36.0,0,330,8.0,0.0
1795,69.0,120,180,4.0,0.0
1796,57.0,0,180,2.0,0.0
1797,81.0,0,180,1.0,0.0
1798,63.0,0,330,6.0,0.0
1799,48.0,72,330,7.0,0.0
1800,82.0,0,180,1.0,0.0
1801,58.0,240,180,2.0,0.0
1802,70.0,0,180,4.0,0.0
1803,67.0,0,180,4.0,0.0
1804,75.0,312,810,1.0,0.0
1805,48.0,48,330,8.0,0.0
1806,60.0,0,330,7.0,0.0
1807,75.0,0,810,5.0,0.0
1808,57.0,0,810,6.0,0.0
1809,87.0,24,390,0.0,0.0
1810,79.0,0,180,1.0,0.0
1811,63.0,0,810,2.0,0.0
1812,55.0,168,180,2.0,0.0
1813,57.0,0,180,2.0,0.0
1814,69.0,0,180,4.0,0.0
1815,81.0,408,180,1.0,0.0
1816,62.0,0,330,7.0,0.0
1817,54.0,0,900,2.0,0.0
1818,50.0,0,330,8.0,0.0
1819,66.0,48,780,4.0,0.0
1820,78.0,0,900,1.0,0.0
1821,87.0,0,330,0.0,0.0
1822,62.0,0,1380,3.0,0.0
1823,50.0,0,1380,3.0,0.0
1824,86.0,0,180,0.0,0.0
1825,62.0,0,180,2.0,0.0
1826,57.0,72,330,7.0,0.0
1827,74.0,120,180,1.0,0.0
1828,54.0,0,330,6.0,0.0
1829,45.0,0,330,8.0,0.0
1830,74.0,0,180,5.0,0.0
1831,63.0,240,180,2.0,0.0
1832,87.0,0,180,0.0,0.0
1833,75.0,0,180,5.0,0.0
1834,75.0,0,180,1.0,0.0
1835,54.0,72,330,7.0,0.0
1836,81.0,0,810,1.0,0.0
1837,81.0,0,810,4.0,0.0
1838,84.0,0,180,0.0,0.0
1839,72.0,0,180,5.0,0.0
1840,72.0,168,180,1.0,0.0
1841,42.0,0,330,8.0,0.0
1842,57.0,312,810,2.0,0.0
1843,60.0,0,180,2.0,0.0
1844,62.0,0,810,6.0,0.0
1845,86.0,0,180,0.0,0.0
1846,74.0,0,180,1.0,0.0
1847,62.0,408,180,2.0,0.0
1848,74.0,0,180,5.0,0.0
1849,70.0,48,780,5.0,0.0
1850,55.0,0,330,7.0,0.0
1851,43.0,0,330,8.0,0.0
1852,82.0,0,780,0.0,0.0
1853,55.0,0,1380,3.0,0.0
1854,58.0,0,900,2.0,0.0
1855,43.0,0,1380,3.0,0.0
1856,70.0,0,900,1.0,0.0
1857,58.0,0,330,6.0,0.0
1858,79.0,0,180,1.0,0.0
1859,79.0,120,180,4.0,0.0
1860,50.0,0,330,7.0,0.0
1861,55.0,0,180,2.0,0.0
1862,38.0,72,330,8.0,0.0
1863,56.0,240,180,2.0,0.0
1864,80.0,0,180,4.0,0.0
1865,80.0,0,180,1.0,0.0
1866,47.0,48,330,7.0,0.0
1867,67.0,0,810,6.0,0.0
1868,86.0,24,390,0.0,0.0
1869,74.0,0,810,1.0,0.0
1870,77.0,168,180,1.0,0.0
1871,53.0,0,180,2.0,0.0
1872,86.0,0,810,5.0,0.0
1873,35.0,0,330,8.0,0.0
1874,62.0,48,810,2.0,0.0
1875,77.0,0,180,4.0,0.0
1876,55.0,0,180,2.0,0.0
1877,79.0,408,180,1.0,0.0
1878,79.0,0,180,4.0,0.0
1879,75.0,48,780,4.0,0.0
1880,36.0,0,330,8.0,0.0
1881,75.0,0,900,1.0,0.0
1882,51.0,24,900,2.0,0.0
1883,86.0,264,390,0.0,0.0
1884,48.0,0,330,7.0,0.0
1885,44.0,72,330,7.0,0.0
1886,84.0,0,180,5.0,0.0
1887,66.0,0,330,6.0,0.0
1888,32.0,0,330,8.0,0.0
1889,72.0,0,180,1.0,0.0
1890,84.0,96,180,0.0,0.0
1891,60.0,24,180,2.0,0.0
1892,86.0,216,180,0.0,0.0
1893,74.0,0,180,1.0,0.0
1894,86.0,0,180,5.0,0.0
1895,62.0,0,180,2.0,0.0
1896,70.0,24,180,1.0,0.0
1897,43.0,0,330,7.0,0.0
1898,82.0,144,180,0.0,0.0
1899,58.0,0,180,2.0,0.0
1900,63.0,0,810,2.0,0.0
1901,31.0,72,330,8.0,0.0
1902,87.0,0,810,4.0,0.0
1903,75.0,0,810,1.0,0.0
1904,82.0,0,180,5.0,0.0
1905,67.0,0,330,6.0,0.0
1906,84.0,384,180,0.0,0.0
1907,72.0,0,180,1.0,0.0
1908,84.0,0,180,5.0,0.0
1909,60.0,24,180,2.0,0.0
1910,81.0,0,780,5.0,0.0
1911,69.0,0,810,1.0,0.0
1912,42.0,0,330,7.0,0.0
1913,81.0,48,780,0.0,0.0
1914,57.0,0,900,2.0,0.0
1915,69.0,0,330,6.0,0.0
1916,30.0,312,330,8.0,0.0
1917,54.0,72,330,7.0,0.0
1918,42.0,0,330,8.0,0.0
1919,86.0,0,180,4.0,0.0
1920,62.0,120,180,2.0,0.0
1921,57.0,0,330,6.0,0.0
1922,74.0,0,330,1.0,0.0
1923,87.0,240,180,4.0,0.0
1924,63.0,0,180,2.0,0.0
1925,62.0,0,330,3.0,0.0
1926,60.0,0,180,2.0,0.0
1927,81.0,0,330,1.0,0.0
1928,69.0,0,330,3.0,0.0
1929,84.0,48,330,1.0,0.0
1930,90.0,24,390,0.0,0.0
1931,69.0,0,330,6.0,0.0
1932,78.0,0,330,5.0,0.0
1933,50.0,0,330,7.0,0.0
1934,54.0,0,420,2.0,0.0
1935,38.0,0,330,8.0,0.0
1936,84.0,168,180,4.0,0.0
1937,62.0,0,180,2.0,0.0
1938,86.0,360,180,4.0,0.0
1939,82.0,0,300,1.0,0.0
1940,67.0,0,300,6.0,0.0
1941,79.0,0,300,1.0,0.0
1942,91.0,0,300,0.0,0.0
1943,79.0,0,300,5.0,0.0
1944,67.0,0,300,3.0,0.0
1945,55.0,0,300,3.0,0.0
1946,43.0,0,300,8.0,0.0
1947,55.0,0,300,7.0,0.0
1948,82.0,0,300,4.0,0.0
1949,58.0,480,300,2.0,0.0
1950,66.0,0,300,2.0,0.0
1951,60.0,0,300,2.0,0.0
1952,78.0,0,300,4.0,0.0
1953,62.0,0,300,3.0,0.0
1954,69.0,0,300,3.0,0.0
1955,62.0,0,300,7.0,0.0
1956,69.0,0,300,6.0,0.0
1957,84.0,0,300,0.0,0.0
1958,72.0,0,300,5.0,0.0
1959,50.0,480,300,8.0,0.0
1960,78.0,0,300,1.0,0.0
1961,81.0,0,300,1.0,0.0
1962,79.0,0,300,4.0,0.0
1963,70.0,0,300,5.0,0.0
1964,67.0,0,300,2.0,0.0
1965,51.0,0,300,8.0,0.0
1966,55.0,480,300,3.0,0.0
1967,82.0,0,300,0.0,0.0
1968,58.0,0,300,2.0,0.0
1969,79.0,0,300,1.0,0.0
1970,67.0,0,300,6.0,0.0
1971,63.0,0,300,7.0,0.0
1972,67.0,0,300,3.0,0.0
1973,60.0,0,300,6.0,0.0
1974,69.0,0,300,3.0,0.0
1975,72.0,0,300,3.0,0.0
1976,69.0,0,300,4.0,0.0
1977,63.0,480,300,5.0,0.0
1978,60.0,0,300,7.0,0.0
1979,48.0,0,300,8.0,0.0
1980,84.0,0,300,0.0,0.0
1981,75.0,432,780,1.0,0.0
1982,81.0,0,300,1.0,0.0
1983,63.0,0,300,2.0,0.0
1984,60.0,0,300,2.0,0.0
1985,45.0,0,300,8.0,0.0
1986,81.0,0,300,4.0,0.0
1987,87.0,0,300,0.0,0.0
1988,72.0,0,300,5.0,0.0
1989,63.0,0,300,6.0,0.0
1990,84.0,0,300,1.0,0.0
1991,57.0,0,300,2.0,0.0
1992,60.0,0,300,2.0,0.0
1993,57.0,0,300,7.0,0.0
1994,78.0,0,300,4.0,0.0
1995,62.0,0,300,6.0,0.0
1996,69.0,0,300,5.0,0.0
1997,54.0,0,300,2.0,0.0
1998,78.0,384,390,1.0,0.0
1999,81.0,0,300,0.0,0.0
2000,69.0,0,300,3.0,0.0
2001,74.0,48,240,1.0,0.0
2002,62.0,0,300,7.0,0.0
2003,57.0,0,300,2.0,0.0
2004,50.0,96,300,8.0,0.0
2005,62.0,0,300,3.0,0.0
2006,72.0,0,150,1.0,0.0
2007,79.0,0,300,1.0,0.0
2008,70.0,0,300,1.0,0.0
2009,43.0,0,300,8.0,0.0
2010,67.0,0,300,3.0,0.0
2011,79.0,0,300,4.0,0.0
2012,55.0,0,300,3.0,0.0
2013,62.0,0,300,6.0,0.0
2014,79.0,0,300,0.0,0.0
2015,55.0,672,300,2.0,0.0
2016,55.0,0,300,7.0,0.0
2017,70.0,0,300,5.0,0.0
2018,67.0,336,480,2.0,0.0
2019,74.0,144,330,0.0,0.0
2020,66.0,0,480,2.0,0.0
2021,69.0,480,480,1.0,0.0
2022,79.0,96,780,0.0,0.0
2023,65.0,288,480,2.0,0.0
2024,71.0,0,480,1.0,0.0
2025,64.0,480,480,2.0,0.0
2026,72.0,96,390,1.0,0.0
2027,79.0,312,810,1.0,0.0
2028,73.0,0,480,1.0,0.0
2029,82.0,0,810,0.0,0.0
2030,63.0,336,480,2.0,0.0
2031,74.0,0,330,1.0,0.0
2032,62.0,0,330,2.0,0.0
2033,72.0,168,180,1.0,0.0
2034,62.0,72,330,2.0,0.0
2035,81.0,0,180,0.0,0.0
2036,74.0,240,420,1.0,0.0
2037,79.0,0,180,0.0,0.0
2038,70.0,0,180,1.0,0.0
2039,78.0,0,180,0.0,0.0
2040,62.0,72,330,2.0,0.0
2041,69.0,168,180,1.0,0.0
2042,81.0,0,180,0.0,0.0
2043,72.0,408,180,1.0,0.0
2044,61.0,480,330,2.0,0.0
2045,76.0,144,1140,1.0,0.0
2046,79.0,0,330,0.0,0.0
2047,70.0,0,1140,1.0,0.0
2048,61.0,336,330,2.0,0.0
2049,61.0,480,330,2.0,0.0
2050,79.0,0,330,0.0,0.0
2051,62.0,0,390,7.0,0.0
2052,79.0,0,330,1.0,0.0
2053,70.0,0,330,1.0,0.0
2054,62.0,384,390,6.0,0.0
2055,70.0,0,390,4.0,0.0
2056,58.0,0,330,2.0,0.0
2057,67.0,0,390,5.0,0.0
2058,50.0,0,390,8.0,0.0
2059,82.0,48,780,0.0,0.0
2060,50.0,48,330,3.0,0.0
2061,62.0,0,330,3.0,0.0
2062,62.0,0,330,2.0,0.0
2063,62.0,480,330,3.0,0.0
2064,55.0,0,330,2.0,0.0
2065,58.0,0,330,2.0,0.0
2066,70.0,0,330,1.0,0.0
2067,74.0,0,330,1.0,0.0
2068,50.0,0,330,3.0,0.0
2069,55.0,480,330,2.0,0.0
2070,62.0,0,330,3.0,0.0
2071,58.0,0,330,2.0,0.0
2072,86.0,0,810,0.0,0.0
2073,74.0,0,330,1.0,0.0
2074,70.0,0,330,1.0,0.0
2075,50.0,0,330,3.0,0.0
2076,60.0,264,390,6.0,0.0
2077,62.0,0,390,6.0,0.0
2078,72.0,0,330,1.0,0.0
2079,50.0,0,390,7.0,0.0
2080,54.0,48,330,2.0,0.0
2081,66.0,0,390,5.0,0.0
2082,69.0,0,390,4.0,0.0
2083,38.0,0,390,8.0,0.0
2084,74.0,0,330,1.0,0.0
2085,50.0,0,330,3.0,0.0
2086,62.0,0,330,3.0,0.0
2087,57.0,0,330,2.0,0.0
2088,50.0,0,330,3.0,0.0
2089,62.0,0,330,3.0,0.0
2090,72.0,0,330,1.0,0.0
2091,74.0,72,330,1.0,0.0
2092,78.0,168,180,0.0,0.0
2093,57.0,0,330,2.0,0.0
2094,54.0,0,330,2.0,0.0
2095,79.0,240,180,0.0,0.0
2096,81.0,168,180,0.0,0.0
2097,72.0,0,330,1.0,0.0
2098,74.0,0,330,1.0,0.0
2099,62.0,0,330,3.0,0.0
2100,50.0,0,330,3.0,0.0
2101,54.0,72,330,2.0,0.0
2102,57.0,0,330,2.0,0.0
2103,82.0,408,180,0.0,0.0
2104,55.0,0,330,2.0,0.0
2105,43.0,0,390,8.0,0.0
2106,58.0,0,390,6.0,0.0
2107,62.0,1056,390,6.0,0.0
2108,55.0,0,390,7.0,0.0
2109,50.0,0,330,3.0,0.0
2110,79.0,0,330,0.0,0.0
2111,70.0,0,330,1.0,0.0
2112,67.0,0,390,4.0,0.0
2113,74.0,0,330,1.0,0.0
2114,62.0,48,330,3.0,0.0
2115,67.0,0,390,5.0,0.0
2116,59.0,0,480,5.0,0.0
2117,67.0,480,480,4.0,0.0
2118,71.0,0,480,4.0,0.0
2119,67.0,480,480,5.0,0.0
2120,74.0,456,480,4.0,0.0
2121,71.0,0,480,5.0,0.0
2122,72.0,0,450,4.0,0.0
2123,69.0,408,450,5.0,0.0
2124,69.0,0,390,4.0,0.0
2125,66.0,504,390,5.0,0.0
2126,62.0,0,420,7.0,0.0
2127,50.0,552,420,8.0,0.0
2128,66.0,480,480,5.0,0.0
2129,69.0,0,480,4.0,0.0
2130,72.0,0,480,4.0,0.0
2131,69.0,480,480,5.0,0.0
2132,76.0,456,480,4.0,0.0
2133,72.0,0,480,5.0,0.0
2134,71.0,0,450,5.0,0.0
2135,74.0,408,450,4.0,0.0
2136,71.0,0,390,4.0,0.0
2137,67.0,360,390,5.0,0.0
2138,62.0,264,480,6.0,0.0
2139,55.0,216,270,7.0,0.0
2140,43.0,0,270,8.0,0.0
2141,67.0,0,870,6.0,0.0
2142,40.0,0,270,8.0,0.0
2143,52.0,0,270,7.0,0.0
2144,59.0,480,270,5.0,0.0
2145,36.0,0,270,8.0,0.0
2146,64.0,120,270,5.0,0.0
2147,48.0,0,270,7.0,0.0
2148,69.0,156,390,4.0,0.0
2149,33.0,0,270,8.0,0.0
2150,66.0,24,240,6.0,0.0
2151,60.0,216,270,5.0,0.0
2152,71.0,180,60,4.0,0.0
2153,45.0,0,270,7.0,0.0
2154,69.0,0,180,4.0,0.0
2155,64.0,240,240,6.0,0.0
2156,67.0,0,240,4.0,0.0
2157,50.0,120,270,7.0,0.0
2158,57.0,0,270,5.0,0.0
2159,69.0,24,240,4.0,0.0
2160,38.0,0,270,8.0,0.0
2161,66.0,48,390,6.0,0.0
2162,71.0,312,180,4.0,0.0
2163,62.0,0,270,5.0,0.0
2164,67.0,360,390,6.0,0.0
2165,35.0,0,270,8.0,0.0
2166,67.0,0,390,4.0,0.0
2167,47.0,120,270,7.0,0.0
2168,59.0,696,270,5.0,0.0
2169,43.0,0,270,7.0,0.0
2170,31.0,0,270,8.0,0.0
2171,62.0,480,480,1.0,0.0
2172,67.0,0,480,1.0,0.0
2173,71.0,480,480,1.0,0.0
2174,67.0,0,480,1.0,0.0
2175,71.0,0,480,1.0,0.0
2176,74.0,384,15,1.0,0.0
2177,79.0,576,390,1.0,0.0
2178,83.0,0,480,1.0,0.0
2179,79.0,336,480,1.0,0.0
2180,78.0,480,330,1.0,0.0
2181,81.0,0,330,1.0,0.0
2182,69.0,336,480,0.0,0.0
2183,78.0,0,330,1.0,0.0
2184,81.0,144,330,1.0,0.0
2185,78.0,144,330,1.0,0.0
2186,81.0,0,330,1.0,0.0
2187,74.0,336,480,0.0,0.0
2188,81.0,144,330,1.0,0.0
2189,78.0,336,480,0.0,0.0
2190,78.0,0,330,1.0,0.0
2191,81.0,576,390,0.0,0.0
2192,81.0,48,330,1.0,0.0
2193,78.0,0,330,1.0,0.0
2194,78.0,0,480,1.0,0.0
2195,86.0,336,480,0.0,0.0
2196,81.0,0,480,1.0,0.0
2197,79.0,0,330,1.0,0.0
2198,85.0,0,330,0.0,0.0
2199,76.0,480,330,1.0,0.0
2200,85.0,0,330,0.0,0.0
2201,76.0,0,330,1.0,0.0
2202,45.0,336,480,2.0,0.0
2203,79.0,144,330,1.0,0.0
2204,79.0,0,330,1.0,0.0
2205,49.0,336,480,2.0,0.0
2206,85.0,144,330,0.0,0.0
2207,76.0,0,330,1.0,0.0
2208,76.0,0,330,1.0,0.0
2209,79.0,0,330,1.0,0.0
2210,52.0,336,480,2.0,0.0
2211,85.0,144,330,0.0,0.0
2212,76.0,0,330,1.0,0.0
2213,79.0,0,330,1.0,0.0
2214,57.0,576,390,2.0,0.0
2215,85.0,48,330,0.0,0.0
2216,76.0,0,480,1.0,0.0
2217,79.0,0,480,1.0,0.0
2218,85.0,384,480,0.0,0.0
2219,58.0,0,480,2.0,0.0
2220,59.0,0,390,2.0,0.0
2221,74.0,0,390,1.0,0.0
2222,78.0,480,390,1.0,0.0
2223,86.0,0,390,0.0,0.0
2224,78.0,0,390,0.0,0.0
2225,57.0,576,390,2.0,0.0
2226,74.0,0,390,1.0,0.0
2227,78.0,0,480,1.0,0.0
2228,71.0,0,960,1.0,0.0
2229,81.0,480,480,0.0,0.0
2230,55.0,384,960,2.0,0.0
2231,79.0,0,480,0.0,0.0
2232,76.0,0,480,1.0,0.0
2233,57.0,0,390,2.0,0.0
2234,67.0,480,390,1.0,0.0
2235,73.0,0,390,1.0,0.0
2236,76.0,0,390,0.0,0.0
2237,74.0,480,480,4.0,0.0
2238,74.0,0,390,1.0,0.0
2239,74.0,0,390,0.0,0.0
2240,50.0,96,390,2.0,0.0
2241,66.0,0,390,1.0,0.0
2242,81.0,384,480,4.0,0.0
2243,78.0,480,390,4.0,0.0
2244,57.0,0,390,7.0,0.0
2245,67.0,0,390,6.0,0.0
2246,76.0,132,420,4.0,0.0
2247,73.0,24,390,5.0,0.0
2248,45.0,0,390,8.0,0.0
2249,78.0,144,60,4.0,0.0
2250,76.0,228,150,4.0,0.0
2251,74.0,240,180,4.0,0.0
2252,76.0,240,180,4.0,0.0
2253,78.0,432,180,4.0,0.0
2254,74.0,0,480,1.0,0.0
2255,62.0,96,390,7.0,0.0
2256,66.0,0,390,6.0,0.0
2257,74.0,0,390,5.0,0.0
2258,50.0,0,390,8.0,0.0
2259,74.0,480,480,4.0,0.0
2260,81.0,384,480,1.0,0.0
2261,69.0,0,480,4.0,0.0
2262,66.0,0,390,4.0,0.0
2263,78.0,480,390,1.0,0.0
2264,76.0,0,390,1.0,0.0
2265,45.0,0,390,8.0,0.0
2266,61.0,156,390,5.0,0.0
2267,55.0,0,390,6.0,0.0
2268,64.0,0,390,4.0,0.0
2269,57.0,0,390,7.0,0.0
2270,78.0,144,60,1.0,0.0
2271,66.0,0,60,4.0,0.0
2272,64.0,0,150,4.0,0.0
2273,76.0,228,150,1.0,0.0
2274,74.0,240,180,1.0,0.0
2275,62.0,0,180,4.0,0.0
2276,76.0,0,180,1.0,0.0
2277,64.0,240,180,4.0,0.0
2278,66.0,0,180,4.0,0.0
2279,78.0,432,180,1.0,0.0
2280,50.0,0,390,7.0,0.0
2281,54.0,0,390,6.0,0.0
2282,74.0,960,480,1.0,0.0
2283,62.0,0,390,5.0,0.0
2284,38.0,0,390,8.0,0.0
2285,62.0,96,390,4.0,0.0
2286,67.0,0,480,4.0,0.0
2287,59.0,480,480,5.0,0.0
2288,71.0,480,480,4.0,0.0
2289,67.0,0,480,5.0,0.0
2290,71.0,456,480,5.0,0.0
2291,74.0,0,480,4.0,0.0
2292,72.0,408,450,4.0,0.0
2293,69.0,0,450,5.0,0.0
2294,69.0,504,390,4.0,0.0
2295,66.0,0,390,5.0,0.0
2296,62.0,0,420,7.0,0.0
2297,50.0,552,420,8.0,0.0
2298,69.0,480,480,4.0,0.0
2299,66.0,0,480,5.0,0.0
2300,69.0,480,480,5.0,0.0
2301,72.0,0,480,4.0,0.0
2302,76.0,456,480,4.0,0.0
2303,72.0,0,480,5.0,0.0
2304,74.0,0,450,4.0,0.0
2305,71.0,408,450,5.0,0.0
2306,67.0,0,390,5.0,0.0
2307,71.0,360,390,4.0,0.0
2308,43.0,0,270,8.0,0.0
2309,55.0,216,270,7.0,0.0
2310,62.0,264,480,6.0,0.0
2311,59.0,480,270,5.0,0.0
2312,67.0,0,870,6.0,0.0
2313,52.0,0,270,7.0,0.0
2314,40.0,0,270,8.0,0.0
2315,69.0,156,390,4.0,0.0
2316,64.0,120,270,5.0,0.0
2317,48.0,0,270,7.0,0.0
2318,36.0,0,270,8.0,0.0
2319,71.0,180,60,4.0,0.0
2320,45.0,0,270,7.0,0.0
2321,66.0,0,240,6.0,0.0
2322,60.0,216,270,5.0,0.0
2323,33.0,0,270,8.0,0.0
2324,69.0,24,180,4.0,0.0
2325,67.0,240,240,4.0,0.0
2326,64.0,0,240,6.0,0.0
2327,69.0,24,240,4.0,0.0
2328,66.0,48,390,6.0,0.0
2329,57.0,0,270,5.0,0.0
2330,50.0,0,270,7.0,0.0
2331,38.0,120,270,8.0,0.0
2332,71.0,312,180,4.0,0.0
2333,67.0,360,390,4.0,0.0
2334,62.0,120,270,5.0,0.0
2335,47.0,0,270,7.0,0.0
2336,67.0,0,390,6.0,0.0
2337,35.0,0,270,8.0,0.0
2338,31.0,0,270,8.0,0.0
2339,59.0,0,270,5.0,0.0
2340,43.0,696,270,7.0,0.0
2341,62.0,480,480,1.0,0.0
2342,67.0,0,480,1.0,0.0
2343,67.0,480,480,1.0,0.0
2344,71.0,0,480,1.0,0.0
2345,74.0,384,480,1.0,0.0
2346,71.0,0,480,1.0,0.0
2347,74.0,0,390,1.0,0.0
2348,79.0,576,390,1.0,0.0
2349,79.0,336,480,1.0,0.0
2350,83.0,0,480,1.0,0.0
2351,78.0,480,330,1.0,0.0
2352,81.0,0,330,1.0,0.0
2353,78.0,0,330,1.0,0.0
2354,81.0,144,330,1.0,0.0
2355,69.0,336,480,0.0,0.0
2356,81.0,144,330,1.0,0.0
2357,74.0,336,480,0.0,0.0
2358,78.0,0,330,1.0,0.0
2359,78.0,0,330,1.0,0.0
2360,81.0,144,330,1.0,0.0
2361,78.0,336,480,0.0,0.0
2362,78.0,48,330,1.0,0.0
2363,81.0,576,390,0.0,0.0
2364,81.0,0,330,1.0,0.0
2365,78.0,336,480,1.0,0.0
2366,81.0,0,480,1.0,0.0
2367,86.0,0,480,0.0,0.0
2368,85.0,0,330,0.0,0.0
2369,76.0,0,330,1.0,0.0
2370,79.0,480,330,1.0,0.0
2371,79.0,0,330,1.0,0.0
2372,85.0,0,330,0.0,0.0
2373,76.0,144,330,1.0,0.0
2374,45.0,336,480,2.0,0.0
2375,85.0,0,330,0.0,0.0
2376,76.0,144,330,1.0,0.0
2377,79.0,0,330,1.0,0.0
2378,49.0,336,480,2.0,0.0
2379,79.0,144,330,1.0,0.0
2380,52.0,336,480,2.0,0.0
2381,85.0,0,330,0.0,0.0
2382,76.0,0,330,1.0,0.0
2383,76.0,48,330,1.0,0.0
2384,79.0,0,330,1.0,0.0
2385,57.0,576,390,2.0,0.0
2386,85.0,0,330,0.0,0.0
2387,79.0,0,480,1.0,0.0
2388,76.0,384,480,1.0,0.0
2389,85.0,0,480,0.0,0.0
2390,58.0,0,480,2.0,0.0
2391,78.0,0,390,1.0,0.0
2392,59.0,480,390,2.0,0.0
2393,86.0,0,390,0.0,0.0
2394,74.0,0,390,1.0,0.0
2395,74.0,0,390,1.0,0.0
2396,78.0,576,390,0.0,0.0
2397,57.0,0,390,2.0,0.0
2398,71.0,384,960,1.0,0.0
2399,78.0,480,480,1.0,0.0
2400,55.0,0,960,2.0,0.0
2401,81.0,0,480,0.0,0.0
2402,76.0,0,480,1.0,0.0
2403,79.0,0,480,0.0,0.0
2404,73.0,0,390,1.0,0.0
2405,57.0,480,390,2.0,0.0
2406,76.0,0,390,0.0,0.0
2407,67.0,0,390,1.0,0.0
2408,74.0,480,480,4.0,0.0
2409,50.0,0,390,2.0,0.0
2410,74.0,96,390,0.0,0.0
2411,74.0,0,390,1.0,0.0
2412,66.0,0,390,1.0,0.0
2413,81.0,384,480,4.0,0.0
2414,78.0,480,390,4.0,0.0
2415,67.0,0,390,6.0,0.0
2416,73.0,24,390,5.0,0.0
2417,45.0,0,390,8.0,0.0
2418,57.0,0,390,7.0,0.0
2419,76.0,132,420,4.0,0.0
2420,78.0,144,60,4.0,0.0
2421,76.0,228,150,4.0,0.0
2422,74.0,240,180,4.0,0.0
2423,76.0,240,180,4.0,0.0
2424,78.0,432,180,4.0,0.0
2425,62.0,0,390,7.0,0.0
2426,74.0,480,480,4.0,0.0
2427,74.0,0,480,1.0,0.0
2428,50.0,0,390,8.0,0.0
2429,74.0,96,390,5.0,0.0
2430,66.0,0,390,6.0,0.0
2431,81.0,0,480,1.0,0.0
2432,69.0,384,480,4.0,0.0
2433,78.0,0,390,1.0,0.0
2434,66.0,480,390,4.0,0.0
2435,64.0,0,390,4.0,0.0
2436,45.0,0,390,8.0,0.0
2437,55.0,0,390,6.0,0.0
2438,76.0,0,390,1.0,0.0
2439,57.0,156,390,7.0,0.0
2440,61.0,0,390,5.0,0.0
2441,66.0,144,60,4.0,0.0
2442,78.0,0,60,1.0,0.0
2443,64.0,0,150,4.0,0.0
2444,76.0,228,150,1.0,0.0
2445,74.0,0,180,1.0,0.0
2446,62.0,240,180,4.0,0.0
2447,64.0,240,180,4.0,0.0
2448,76.0,0,180,1.0,0.0
2449,78.0,432,180,1.0,0.0
2450,66.0,0,180,4.0,0.0
2451,62.0,0,390,4.0,0.0
2452,74.0,0,390,1.0,0.0
2453,38.0,0,390,8.0,0.0
2454,50.0,0,390,7.0,0.0
2455,62.0,0,390,5.0,0.0
2456,54.0,1056,390,6.0,0.0
2457,38.0,0,480,8.0,0.0
2458,50.0,480,480,7.0,0.0
2459,42.0,480,480,8.0,0.0
2460,54.0,0,480,7.0,0.0
2461,57.0,408,480,7.0,0.0
2462,45.0,0,480,8.0,0.0
2463,69.0,0,480,1.0,0.0
2464,50.0,0,420,8.0,0.0
2465,72.0,0,480,1.0,0.0
2466,57.0,0,480,2.0,0.0
2467,84.0,480,480,0.0,0.0
2468,62.0,72,420,7.0,0.0
2469,60.0,0,480,2.0,0.0
2470,55.0,384,480,2.0,0.0
2471,59.0,0,480,2.0,0.0
2472,67.0,0,480,1.0,0.0
2473,83.0,0,480,0.0,0.0
2474,71.0,0,480,1.0,0.0
2475,81.0,0,390,0.0,0.0
2476,69.0,0,390,1.0,0.0
2477,57.0,576,390,2.0,0.0
2478,66.0,0,390,1.0,0.0
2479,54.0,0,390,2.0,0.0
2480,38.0,480,480,8.0,0.0
2481,50.0,0,480,7.0,0.0
2482,55.0,480,480,7.0,0.0
2483,43.0,0,480,8.0,0.0
2484,59.0,408,480,7.0,0.0
2485,47.0,0,480,8.0,0.0
2486,71.0,480,480,1.0,0.0
2487,50.0,0,420,8.0,0.0
2488,86.0,0,480,0.0,0.0
2489,62.0,72,420,7.0,0.0
2490,62.0,0,480,2.0,0.0
2491,59.0,0,480,2.0,0.0
2492,74.0,0,480,1.0,0.0
2493,60.0,0,480,2.0,0.0
2494,84.0,0,480,0.0,0.0
2495,72.0,384,480,1.0,0.0
2496,57.0,0,480,2.0,0.0
2497,69.0,0,480,1.0,0.0
2498,83.0,0,390,0.0,0.0
2499,55.0,576,390,2.0,0.0
2500,59.0,0,390,2.0,0.0
2501,67.0,0,390,1.0,0.0
2502,71.0,0,390,1.0,0.0
2503,40.0,0,480,8.0,0.0
2504,52.0,480,480,7.0,0.0
2505,44.0,480,480,8.0,0.0
2506,56.0,0,480,7.0,0.0
2507,47.0,408,480,8.0,0.0
2508,59.0,0,480,7.0,0.0
2509,64.0,0,420,7.0,0.0
2510,52.0,72,420,8.0,0.0
2511,72.0,0,480,1.0,0.0
2512,64.0,0,1260,2.0,0.0
2513,88.0,0,480,0.0,0.0
2514,76.0,0,480,1.0,0.0
2515,56.0,480,480,2.0,0.0
2516,71.0,288,480,1.0,0.0
2517,74.0,0,480,1.0,0.0
2518,86.0,0,480,0.0,0.0
2519,57.0,96,780,2.0,0.0
2520,84.0,0,390,0.0,0.0
2521,69.0,576,390,1.0,0.0
2522,72.0,0,390,1.0,0.0
2523,74.0,0,480,1.0,0.0
2524,62.0,0,1260,2.0,0.0
2525,54.0,480,480,2.0,0.0
2526,86.0,0,480,0.0,0.0
2527,71.0,0,480,1.0,0.0
2528,72.0,0,480,1.0,0.0
2529,84.0,0,480,0.0,0.0
2530,55.0,96,780,2.0,0.0
2531,69.0,288,480,1.0,0.0
2532,83.0,0,390,0.0,0.0
2533,67.0,336,390,1.0,0.0
2534,71.0,0,390,1.0,0.0
2535,64.0,96,390,2.0,0.0
2536,48.0,0,390,2.0,0.0
2537,71.0,0,240,1.0,0.0
2538,74.0,144,240,1.0,0.0
2539,86.0,0,240,0.0,0.0
2540,69.0,0,240,1.0,0.0
2541,84.0,480,240,0.0,0.0
2542,72.0,0,240,1.0,0.0
2543,71.0,0,480,1.0,0.0
2544,50.0,96,780,2.0,0.0
2545,83.0,288,480,0.0,0.0
2546,67.0,0,480,1.0,0.0
2547,62.0,0,780,2.0,0.0
2548,69.0,0,390,1.0,0.0
2549,81.0,0,390,0.0,0.0
2550,66.0,576,390,1.0,0.0
2551,59.0,480,480,5.0,0.0
2552,59.0,0,480,3.0,0.0
2553,67.0,0,480,4.0,0.0
2554,67.0,0,15,3.0,0.0
2555,71.0,0,960,3.0,0.0
2556,67.0,0,480,5.0,0.0
2557,71.0,480,480,4.0,0.0
2558,74.0,384,480,4.0,0.0
2559,71.0,0,480,5.0,0.0
2560,69.0,0,390,5.0,0.0
2561,72.0,0,390,3.0,0.0
2562,69.0,480,390,3.0,0.0
2563,72.0,0,390,4.0,0.0
2564,69.0,0,390,3.0,0.0
2565,69.0,0,390,4.0,0.0
2566,66.0,0,390,5.0,0.0
2567,62.0,384,390,3.0,0.0
2568,50.0,480,300,8.0,0.0
2569,62.0,0,300,7.0,0.0
2570,62.0,0,300,6.0,0.0
2571,62.0,0,480,3.0,0.0
2572,50.0,0,300,8.0,0.0
2573,62.0,192,300,6.0,0.0
2574,66.0,480,480,5.0,0.0
2575,69.0,0,480,4.0,0.0
2576,62.0,0,300,7.0,0.0
2577,69.0,0,480,3.0,0.0
2578,72.0,0,480,4.0,0.0
2579,72.0,0,960,3.0,0.0
2580,69.0,480,480,5.0,0.0
2581,69.0,0,960,3.0,0.0
2582,76.0,0,480,4.0,0.0
2583,72.0,384,480,5.0,0.0
2584,74.0,480,390,4.0,0.0
2585,71.0,0,390,3.0,0.0
2586,74.0,0,390,3.0,0.0
2587,71.0,0,390,5.0,0.0
2588,71.0,0,390,3.0,0.0
2589,67.0,0,390,3.0,0.0
2590,67.0,384,390,5.0,0.0
2591,71.0,0,390,4.0,0.0
2592,43.0,0,300,8.0,0.0
2593,59.0,0,300,6.0,0.0
2594,55.0,0,300,7.0,0.0
2595,62.0,480,300,6.0,0.0
2596,55.0,576,300,7.0,0.0
2597,43.0,0,300,8.0,0.0
2598,62.0,0,300,6.0,0.0
2599,59.0,0,300,6.0,0.0
2600,62.0,0,390,3.0,0.0
2601,69.0,0,390,3.0,0.0
2602,69.0,0,390,4.0,0.0
2603,66.0,156,390,5.0,0.0
2604,71.0,144,60,3.0,0.0
2605,50.0,0,300,7.0,0.0
2606,62.0,0,300,6.0,0.0
2607,60.0,0,300,6.0,0.0
2608,71.0,0,60,4.0,0.0
2609,38.0,144,300,8.0,0.0
2610,67.0,0,60,5.0,0.0
2611,69.0,0,150,3.0,0.0
2612,62.0,0,360,3.0,0.0
2613,66.0,0,150,5.0,0.0
2614,69.0,84,150,4.0,0.0
2615,64.0,0,180,5.0,0.0
2616,67.0,240,180,4.0,0.0
2617,67.0,0,180,3.0,0.0
2618,62.0,0,300,6.0,0.0
2619,38.0,96,300,8.0,0.0
2620,50.0,0,300,7.0,0.0
2621,66.0,48,390,5.0,0.0
2622,69.0,0,180,4.0,0.0
2623,62.0,0,420,3.0,0.0
2624,69.0,96,180,3.0,0.0
2625,60.0,0,300,6.0,0.0
2626,71.0,336,180,3.0,0.0
2627,71.0,0,180,4.0,0.0
2628,59.0,96,300,6.0,0.0
2629,62.0,0,300,6.0,0.0
2630,43.0,0,300,7.0,0.0
2631,67.0,0,390,4.0,0.0
2632,67.0,0,390,5.0,0.0
2633,67.0,384,390,3.0,0.0
2634,31.0,0,300,8.0,0.0
2635,43.0,672,300,8.0,0.0
2636,55.0,0,300,7.0,0.0
2637,55.0,480,480,3.0,0.0
2638,59.0,0,480,3.0,0.0
2639,59.0,480,480,3.0,0.0
2640,62.0,0,480,3.0,0.0
2641,62.0,0,480,3.0,0.0
2642,67.0,384,15,3.0,0.0
2643,71.0,96,390,3.0,0.0
2644,38.0,0,480,2.0,0.0
2645,50.0,480,480,2.0,0.0
2646,54.0,0,480,2.0,0.0
2647,74.0,0,480,3.0,0.0
2648,71.0,0,480,3.0,0.0
2649,42.0,360,480,2.0,0.0
2650,57.0,0,480,2.0,0.0
2651,45.0,360,480,2.0,0.0
2652,72.0,0,360,3.0,0.0
2653,69.0,120,360,3.0,0.0
2654,66.0,336,480,1.0,0.0
2655,72.0,0,360,3.0,0.0
2656,69.0,24,360,3.0,0.0
2657,78.0,0,480,0.0,0.0
2658,62.0,96,390,2.0,0.0
2659,50.0,0,390,2.0,0.0
2660,66.0,0,330,2.0,0.0
2661,62.0,24,330,2.0,0.0
2662,72.0,0,360,3.0,0.0
2663,69.0,336,480,1.0,0.0
2664,81.0,0,480,0.0,0.0
2665,69.0,120,360,3.0,0.0
2666,66.0,0,330,2.0,0.0
2667,62.0,24,330,2.0,0.0
2668,69.0,120,360,3.0,0.0
2669,84.0,336,480,0.0,0.0
2670,72.0,0,360,3.0,0.0
2671,72.0,0,480,1.0,0.0
2672,72.0,24,360,3.0,0.0
2673,66.0,24,330,2.0,0.0
2674,62.0,0,330,2.0,0.0
2675,69.0,0,360,3.0,0.0
2676,86.0,0,390,0.0,0.0
2677,74.0,576,390,1.0,0.0
2678,69.0,0,480,3.0,0.0
2679,72.0,288,480,3.0,0.0
2680,81.0,0,480,1.0,0.0
2681,63.0,0,480,2.0,0.0
2682,66.0,0,480,2.0,0.0
2683,90.0,0,480,0.0,0.0
2684,84.0,0,480,1.0,0.0
2685,64.0,96,300,2.0,0.0
2686,67.0,0,300,2.0,0.0
2687,79.0,0,300,1.0,0.0
2688,83.0,0,300,1.0,0.0
2689,67.0,0,390,3.0,0.0
2690,71.0,384,390,3.0,0.0
2691,91.0,0,300,0.0,0.0
2692,62.0,480,300,2.0,0.0
2693,83.0,0,300,0.0,0.0
2694,79.0,0,300,1.0,0.0
2695,60.0,192,300,2.0,0.0
2696,83.0,288,480,1.0,0.0
2697,86.0,0,480,0.0,0.0
2698,76.0,0,780,1.0,0.0
2699,84.0,0,300,0.0,0.0
2700,81.0,480,300,1.0,0.0
2701,81.0,576,300,0.0,0.0
2702,78.0,0,300,1.0,0.0
2703,72.0,0,300,1.0,0.0
2704,62.0,0,300,2.0,0.0
2705,79.0,0,390,1.0,0.0
2706,79.0,96,390,0.0,0.0
2707,71.0,0,390,1.0,0.0
2708,67.0,480,480,4.0,0.0
2709,55.0,0,480,2.0,0.0
2710,74.0,0,480,4.0,0.0
2711,62.0,384,480,2.0,0.0
2712,71.0,480,390,4.0,0.0
2713,59.0,0,390,2.0,0.0
2714,69.0,0,420,4.0,0.0
2715,50.0,24,390,7.0,0.0
2716,38.0,0,390,8.0,0.0
2717,66.0,0,390,5.0,0.0
2718,57.0,132,420,2.0,0.0
2719,62.0,0,390,6.0,0.0
2720,60.0,0,390,6.0,0.0
2721,59.0,144,60,2.0,0.0
2722,71.0,0,60,4.0,0.0
2723,69.0,0,150,4.0,0.0
2724,57.0,228,150,2.0,0.0
2725,67.0,0,180,4.0,0.0
2726,55.0,240,180,2.0,0.0
2727,69.0,0,180,4.0,0.0
2728,57.0,240,180,2.0,0.0
2729,71.0,0,180,4.0,0.0
2730,59.0,432,180,2.0,0.0
2731,55.0,96,390,2.0,0.0
2732,55.0,0,390,7.0,0.0
2733,59.0,0,390,6.0,0.0
2734,67.0,0,390,5.0,0.0
2735,43.0,0,390,8.0,0.0
2736,79.0,480,480,0.0,0.0
2737,67.0,0,480,4.0,0.0
2738,62.0,0,390,6.0,0.0
2739,86.0,0,480,0.0,0.0
2740,74.0,384,480,4.0,0.0
2741,83.0,0,390,0.0,0.0
2742,71.0,432,390,4.0,0.0
2743,72.0,48,330,1.0,0.0
2744,60.0,0,390,5.0,0.0
2745,78.0,0,330,1.0,0.0
2746,69.0,0,390,4.0,0.0
2747,38.0,0,390,8.0,0.0
2748,54.0,0,390,6.0,0.0
2749,62.0,156,390,5.0,0.0
2750,62.0,0,330,3.0,0.0
2751,50.0,0,390,7.0,0.0
2752,81.0,0,390,0.0,0.0
2753,69.0,0,330,3.0,0.0
2754,69.0,0,330,3.0,0.0
2755,62.0,0,330,3.0,0.0
2756,83.0,144,60,0.0,0.0
2757,72.0,96,330,1.0,0.0
2758,71.0,0,60,4.0,0.0
2759,78.0,0,330,1.0,0.0
2760,69.0,0,150,4.0,0.0
2761,81.0,132,150,0.0,0.0
2762,79.0,0,180,0.0,0.0
2763,67.0,240,180,4.0,0.0
2764,69.0,0,330,3.0,0.0
2765,62.0,96,330,3.0,0.0
2766,81.0,144,180,0.0,0.0
2767,69.0,0,180,4.0,0.0
2768,78.0,0,330,1.0,0.0
2769,72.0,0,330,1.0,0.0
2770,71.0,0,180,4.0,0.0
2771,83.0,384,180,0.0,0.0
2772,59.0,0,390,5.0,0.0
2773,43.0,0,390,7.0,0.0
2774,67.0,0,390,4.0,0.0
2775,59.0,0,390,3.0,0.0
2776,67.0,0,390,3.0,0.0
2777,79.0,48,330,1.0,0.0
2778,71.0,0,330,1.0,0.0
2779,62.0,1056,390,5.0,0.0
2780,79.0,0,390,0.0,0.0
2781,55.0,0,390,6.0,0.0
2782,31.0,0,390,8.0,0.0
2783,38.0,0,480,8.0,0.0
2784,50.0,480,480,7.0,0.0
2785,42.0,0,480,8.0,0.0
2786,54.0,480,480,7.0,0.0
2787,57.0,408,480,7.0,0.0
2788,45.0,0,480,8.0,0.0
2789,60.0,0,480,2.0,0.0
2790,62.0,72,420,7.0,0.0
2791,72.0,0,480,1.0,0.0
2792,57.0,0,480,2.0,0.0
2793,50.0,0,420,8.0,0.0
2794,69.0,0,480,1.0,0.0
2795,84.0,480,480,0.0,0.0
2796,59.0,0,480,2.0,0.0
2797,55.0,0,480,2.0,0.0
2798,71.0,0,480,1.0,0.0
2799,67.0,0,480,1.0,0.0
2800,83.0,384,480,0.0,0.0
2801,66.0,576,390,1.0,0.0
2802,69.0,0,390,1.0,0.0
2803,57.0,0,390,2.0,0.0
2804,81.0,0,390,0.0,0.0
2805,54.0,0,390,2.0,0.0
2806,50.0,0,480,7.0,0.0
2807,38.0,480,480,8.0,0.0
2808,55.0,480,480,7.0,0.0
2809,43.0,0,480,8.0,0.0
2810,59.0,0,480,7.0,0.0
2811,47.0,408,480,8.0,0.0
2812,71.0,0,480,1.0,0.0
2813,74.0,0,480,1.0,0.0
2814,62.0,0,480,2.0,0.0
2815,86.0,480,480,0.0,0.0
2816,59.0,0,480,2.0,0.0
2817,62.0,72,420,7.0,0.0
2818,50.0,0,420,8.0,0.0
2819,84.0,0,480,0.0,0.0
2820,60.0,0,480,2.0,0.0
2821,57.0,0,480,2.0,0.0
2822,72.0,0,480,1.0,0.0
2823,69.0,384,480,1.0,0.0
2824,67.0,0,390,1.0,0.0
2825,71.0,576,390,1.0,0.0
2826,55.0,0,390,2.0,0.0
2827,59.0,0,390,2.0,0.0
2828,83.0,0,390,0.0,0.0
2829,52.0,480,480,7.0,0.0
2830,40.0,0,480,8.0,0.0
2831,44.0,0,480,8.0,0.0
2832,56.0,480,480,7.0,0.0
2833,47.0,0,480,8.0,0.0
2834,59.0,408,480,7.0,0.0
2835,88.0,0,480,0.0,0.0
2836,76.0,0,480,1.0,0.0
2837,72.0,0,480,1.0,0.0
2838,64.0,96,1260,2.0,0.0
2839,56.0,480,480,2.0,0.0
2840,64.0,0,420,7.0,0.0
2841,52.0,72,420,8.0,0.0
2842,57.0,0,780,2.0,0.0
2843,86.0,0,480,0.0,0.0
2844,71.0,288,480,1.0,0.0
2845,74.0,0,480,1.0,0.0
2846,84.0,576,390,0.0,0.0
2847,69.0,0,390,1.0,0.0
2848,72.0,0,390,1.0,0.0
2849,86.0,0,480,0.0,0.0
2850,74.0,0,480,1.0,0.0
2851,71.0,480,480,1.0,0.0
2852,62.0,96,1260,2.0,0.0
2853,54.0,0,480,2.0,0.0
2854,72.0,0,480,1.0,0.0
2855,69.0,288,480,1.0,0.0
2856,84.0,0,480,0.0,0.0
2857,55.0,0,780,2.0,0.0
2858,83.0,0,390,0.0,0.0
2859,67.0,336,390,1.0,0.0
2860,71.0,0,390,1.0,0.0
2861,71.0,144,240,1.0,0.0
2862,74.0,0,240,1.0,0.0
2863,64.0,96,390,2.0,0.0
2864,86.0,0,240,0.0,0.0
2865,48.0,0,390,2.0,0.0
2866,69.0,0,240,1.0,0.0
2867,72.0,480,240,1.0,0.0
2868,84.0,0,240,0.0,0.0
2869,62.0,96,780,2.0,0.0
2870,83.0,0,480,0.0,0.0
2871,71.0,288,480,1.0,0.0
2872,67.0,0,480,1.0,0.0
2873,50.0,0,780,2.0,0.0
2874,66.0,0,390,1.0,0.0
2875,69.0,576,390,1.0,0.0
2876,81.0,0,390,0.0,0.0
2877,59.0,0,480,5.0,0.0
2878,59.0,480,480,3.0,0.0
2879,67.0,0,480,3.0,0.0
2880,67.0,0,480,4.0,0.0
2881,71.0,480,480,4.0,0.0
2882,71.0,0,960,3.0,0.0
2883,67.0,0,480,5.0,0.0
2884,67.0,0,960,3.0,0.0
2885,71.0,384,480,5.0,0.0
2886,74.0,0,480,4.0,0.0
2887,72.0,480,390,4.0,0.0
2888,69.0,0,390,3.0,0.0
2889,72.0,0,390,3.0,0.0
2890,69.0,0,390,5.0,0.0
2891,69.0,0,390,4.0,0.0
2892,66.0,0,390,5.0,0.0
2893,62.0,384,390,3.0,0.0
2894,69.0,0,390,3.0,0.0
2895,62.0,0,300,7.0,0.0
2896,50.0,0,300,8.0,0.0
2897,62.0,480,300,6.0,0.0
2898,69.0,0,480,4.0,0.0
2899,62.0,0,300,7.0,0.0
2900,50.0,192,300,8.0,0.0
2901,62.0,0,480,3.0,0.0
2902,66.0,480,480,5.0,0.0
2903,62.0,0,300,6.0,0.0
2904,72.0,0,480,4.0,0.0
2905,69.0,0,15,3.0,0.0
2906,72.0,0,960,3.0,0.0
2907,69.0,480,480,5.0,0.0
2908,76.0,0,480,4.0,0.0
2909,72.0,384,480,5.0,0.0
2910,71.0,0,390,3.0,0.0
2911,74.0,0,390,3.0,0.0
2912,74.0,480,390,4.0,0.0
2913,71.0,0,390,5.0,0.0
2914,67.0,0,390,5.0,0.0
2915,71.0,0,390,3.0,0.0
2916,71.0,0,390,4.0,0.0
2917,67.0,384,390,3.0,0.0
2918,59.0,0,300,6.0,0.0
2919,62.0,0,300,6.0,0.0
2920,55.0,0,300,7.0,0.0
2921,43.0,480,300,8.0,0.0
2922,62.0,0,300,6.0,0.0
2923,59.0,0,300,6.0,0.0
2924,55.0,576,300,7.0,0.0
2925,43.0,0,300,8.0,0.0
2926,66.0,156,390,5.0,0.0
2927,69.0,0,390,4.0,0.0
2928,62.0,0,390,3.0,0.0
2929,69.0,0,390,3.0,0.0
2930,71.0,0,60,3.0,0.0
2931,38.0,144,300,8.0,0.0
2932,50.0,0,300,7.0,0.0
2933,67.0,0,60,5.0,0.0
2934,62.0,0,300,6.0,0.0
2935,60.0,0,300,6.0,0.0
2936,71.0,144,60,4.0,0.0
2937,66.0,0,150,5.0,0.0
2938,62.0,0,360,3.0,0.0
2939,69.0,0,150,4.0,0.0
2940,69.0,84,150,3.0,0.0
2941,64.0,240,180,5.0,0.0
2942,67.0,0,180,3.0,0.0
2943,67.0,0,180,4.0,0.0
2944,66.0,48,390,5.0,0.0
2945,69.0,96,180,4.0,0.0
2946,50.0,0,300,7.0,0.0
2947,62.0,0,420,3.0,0.0
2948,69.0,0,180,3.0,0.0
2949,60.0,0,300,6.0,0.0
2950,62.0,0,300,6.0,0.0
2951,38.0,96,300,8.0,0.0
2952,71.0,0,180,3.0,0.0
2953,71.0,336,180,4.0,0.0
2954,67.0,384,390,5.0,0.0
2955,67.0,0,390,4.0,0.0
2956,43.0,0,300,7.0,0.0
2957,67.0,0,390,3.0,0.0
2958,62.0,96,300,6.0,0.0
2959,31.0,0,300,8.0,0.0
2960,59.0,0,300,6.0,0.0
2961,55.0,672,300,7.0,0.0
2962,43.0,0,300,8.0,0.0
2963,55.0,0,480,3.0,0.0
2964,59.0,480,15,3.0,0.0
2965,62.0,0,15,3.0,0.0
2966,67.0,0,480,3.0,0.0
2967,50.0,0,480,2.0,0.0
2968,38.0,480,480,2.0,0.0
2969,71.0,0,390,3.0,0.0
2970,67.0,96,390,3.0,0.0
2971,54.0,0,480,2.0,0.0
2972,42.0,0,480,2.0,0.0
2973,71.0,0,480,3.0,0.0
2974,74.0,360,480,3.0,0.0
2975,57.0,360,480,2.0,0.0
2976,45.0,0,480,2.0,0.0
2977,72.0,0,360,3.0,0.0
2978,69.0,120,360,3.0,0.0
2979,78.0,336,480,0.0,0.0
2980,62.0,96,390,2.0,0.0
2981,50.0,0,390,2.0,0.0
2982,66.0,0,480,1.0,0.0
2983,72.0,0,360,3.0,0.0
2984,69.0,24,360,3.0,0.0
2985,69.0,120,360,3.0,0.0
2986,72.0,0,360,3.0,0.0
2987,69.0,336,480,1.0,0.0
2988,81.0,0,480,0.0,0.0
2989,62.0,24,330,2.0,0.0
2990,66.0,0,330,2.0,0.0
2991,62.0,0,330,2.0,0.0
2992,84.0,0,480,0.0,0.0
2993,72.0,336,480,1.0,0.0
2994,69.0,120,360,3.0,0.0
2995,72.0,0,360,3.0,0.0
2996,66.0,24,330,2.0,0.0
2997,74.0,576,390,1.0,0.0
2998,72.0,0,360,3.0,0.0
2999,62.0,24,330,2.0,0.0
3000,86.0,0,390,0.0,0.0
3001,66.0,0,330,2.0,0.0
3002,69.0,24,360,3.0,0.0
3003,84.0,0,480,1.0,0.0
3004,81.0,0,480,1.0,0.0
3005,72.0,0,480,3.0,0.0
3006,63.0,288,480,2.0,0.0
3007,66.0,0,480,2.0,0.0
3008,69.0,0,480,3.0,0.0
3009,90.0,0,480,0.0,0.0
3010,91.0,0,300,0.0,0.0
3011,83.0,96,300,1.0,0.0
3012,79.0,0,300,1.0,0.0
3013,71.0,0,390,3.0,0.0
3014,67.0,0,300,2.0,0.0
3015,64.0,0,300,2.0,0.0
3016,67.0,384,390,3.0,0.0
3017,83.0,480,300,0.0,0.0
3018,79.0,0,300,1.0,0.0
3019,62.0,0,300,2.0,0.0
3020,60.0,192,300,2.0,0.0
3021,76.0,0,780,1.0,0.0
3022,86.0,288,480,0.0,0.0
3023,83.0,0,480,1.0,0.0
3024,81.0,0,300,1.0,0.0
3025,84.0,480,300,0.0,0.0
3026,72.0,0,300,1.0,0.0
3027,78.0,0,300,1.0,0.0
3028,62.0,576,300,2.0,0.0
3029,81.0,0,300,0.0,0.0
3030,79.0,0,390,0.0,0.0
3031,71.0,96,390,1.0,0.0
3032,55.0,0,480,2.0,0.0
3033,67.0,480,480,4.0,0.0
3034,79.0,0,390,1.0,0.0
3035,62.0,0,480,2.0,0.0
3036,74.0,384,480,4.0,0.0
3037,59.0,480,390,2.0,0.0
3038,71.0,0,390,4.0,0.0
3039,69.0,132,420,4.0,0.0
3040,57.0,0,420,2.0,0.0
3041,60.0,24,390,6.0,0.0
3042,62.0,0,390,6.0,0.0
3043,38.0,0,390,8.0,0.0
3044,66.0,0,390,5.0,0.0
3045,50.0,0,390,7.0,0.0
3046,59.0,0,60,2.0,0.0
3047,71.0,144,60,4.0,0.0
3048,57.0,228,150,2.0,0.0
3049,69.0,0,150,4.0,0.0
3050,55.0,0,180,2.0,0.0
3051,67.0,240,180,4.0,0.0
3052,57.0,240,180,2.0,0.0
3053,69.0,0,180,4.0,0.0
3054,59.0,432,180,2.0,0.0
3055,71.0,0,180,4.0,0.0
3056,43.0,96,390,8.0,0.0
3057,67.0,480,480,4.0,0.0
3058,67.0,0,390,5.0,0.0
3059,59.0,0,390,6.0,0.0
3060,79.0,0,480,0.0,0.0
3061,62.0,0,390,6.0,0.0
3062,55.0,0,390,7.0,0.0
3063,55.0,0,390,2.0,0.0
3064,86.0,0,480,0.0,0.0
3065,74.0,384,480,4.0,0.0
3066,83.0,432,390,0.0,0.0
3067,71.0,0,390,4.0,0.0
3068,78.0,0,330,1.0,0.0
3069,72.0,48,330,1.0,0.0
3070,69.0,0,390,4.0,0.0
3071,54.0,0,390,6.0,0.0
3072,38.0,0,390,8.0,0.0
3073,60.0,0,390,5.0,0.0
3074,62.0,156,390,5.0,0.0
3075,69.0,0,330,3.0,0.0
3076,81.0,0,390,0.0,0.0
3077,50.0,0,390,7.0,0.0
3078,62.0,0,330,3.0,0.0
3079,72.0,0,330,1.0,0.0
3080,62.0,0,330,3.0,0.0
3081,83.0,144,60,0.0,0.0
3082,69.0,96,330,3.0,0.0
3083,71.0,0,60,4.0,0.0
3084,78.0,0,330,1.0,0.0
3085,69.0,0,150,4.0,0.0
3086,81.0,132,150,0.0,0.0
3087,67.0,0,180,4.0,0.0
3088,79.0,240,180,0.0,0.0
3089,81.0,144,180,0.0,0.0
3090,69.0,0,330,3.0,0.0
3091,72.0,0,330,1.0,0.0
3092,62.0,0,330,3.0,0.0
3093,69.0,0,180,4.0,0.0
3094,78.0,96,330,1.0,0.0
3095,71.0,0,180,4.0,0.0
3096,83.0,384,180,0.0,0.0
3097,59.0,0,390,3.0,0.0
3098,67.0,0,390,3.0,0.0
3099,55.0,0,390,6.0,0.0
3100,62.0,0,390,5.0,0.0
3101,43.0,864,390,7.0,0.0
3102,79.0,0,390,0.0,0.0
3103,59.0,0,390,5.0,0.0
3104,31.0,0,390,8.0,0.0
3105,67.0,0,390,4.0,0.0
3106,79.0,0,330,1.0,0.0
3107,71.0,48,330,1.0,0.0
3108,62.0,0,300,5.0,0.0
3109,74.0,528,300,0.0,0.0
3110,62.0,0,300,4.0,0.0
3111,55.0,144,1140,3.0,0.0
3112,67.0,0,780,4.0,0.0
3113,43.0,0,330,8.0,0.0
3114,67.0,0,780,5.0,0.0
3115,67.0,0,1140,3.0,0.0
3116,58.0,0,330,6.0,0.0
3117,55.0,432,330,7.0,0.0
3118,55.0,0,330,2.0,0.0
3119,79.0,48,780,0.0,0.0
3120,67.0,0,780,1.0,0.0
3121,58.0,0,330,2.0,0.0
3122,46.0,0,330,8.0,0.0
3123,58.0,0,330,7.0,0.0
3124,55.0,336,330,6.0,0.0
3125,82.0,0,870,0.0,0.0
3126,55.0,0,330,2.0,0.0
3127,50.0,0,330,6.0,0.0
3128,70.0,480,390,1.0,0.0
3129,70.0,0,870,4.0,0.0
3130,70.0,264,870,5.0,0.0
3131,55.0,0,330,7.0,0.0
3132,43.0,48,330,8.0,0.0
3133,62.0,0,780,3.0,0.0
3134,50.0,0,780,7.0,0.0
3135,50.0,0,780,3.0,0.0
3136,50.0,0,780,2.0,0.0
3137,62.0,0,780,6.0,0.0
3138,74.0,120,780,1.0,0.0
3139,38.0,0,780,8.0,0.0
3140,81.0,0,180,0.0,0.0
3141,69.0,0,180,5.0,0.0
3142,69.0,120,180,4.0,0.0
3143,79.0,0,180,0.0,0.0
3144,67.0,240,180,4.0,0.0
3145,67.0,0,180,5.0,0.0
3146,48.0,0,390,2.0,0.0
3147,50.0,24,390,3.0,0.0
3148,62.0,0,390,3.0,0.0
3149,78.0,0,180,0.0,0.0
3150,66.0,216,180,4.0,0.0
3151,48.0,0,390,7.0,0.0
3152,66.0,0,390,1.0,0.0
3153,36.0,0,390,8.0,0.0
3154,62.0,0,390,6.0,0.0
3155,66.0,0,180,5.0,0.0
3156,81.0,360,180,0.0,0.0
3157,69.0,0,180,5.0,0.0
3158,69.0,0,180,4.0,0.0
3159,50.0,0,390,3.0,0.0
3160,34.0,0,390,8.0,0.0
3161,79.0,48,300,0.0,0.0
3162,67.0,384,390,1.0,0.0
3163,46.0,0,390,2.0,0.0
3164,62.0,0,390,6.0,0.0
3165,62.0,0,390,3.0,0.0
3166,46.0,0,390,7.0,0.0
3167,67.0,0,330,4.0,0.0
3168,67.0,48,330,5.0,0.0
3169,62.0,0,330,5.0,0.0
3170,62.0,432,330,4.0,0.0
3171,74.0,48,300,0.0,0.0
3172,67.0,0,330,5.0,0.0
3173,67.0,480,330,4.0,0.0
3174,79.0,48,300,0.0,0.0
3175,67.0,48,780,1.0,0.0
3176,70.0,0,780,4.0,0.0
3177,70.0,0,780,5.0,0.0
3178,43.0,432,330,8.0,0.0
3179,55.0,0,330,2.0,0.0
3180,55.0,0,1140,3.0,0.0
3181,67.0,144,1140,3.0,0.0
3182,82.0,0,780,0.0,0.0
3183,55.0,0,330,7.0,0.0
3184,62.0,0,330,6.0,0.0
3185,58.0,0,330,2.0,0.0
3186,46.0,0,330,8.0,0.0
3187,58.0,336,330,7.0,0.0
3188,55.0,0,330,6.0,0.0
3189,55.0,0,330,2.0,0.0
3190,55.0,0,330,7.0,0.0
3191,43.0,0,330,8.0,0.0
3192,70.0,480,390,1.0,0.0
3193,74.0,0,870,5.0,0.0
3194,86.0,0,870,0.0,0.0
3195,74.0,264,870,4.0,0.0
3196,58.0,48,330,6.0,0.0
3197,50.0,120,780,3.0,0.0
3198,54.0,0,780,6.0,0.0
3199,50.0,0,780,7.0,0.0
3200,62.0,0,780,3.0,0.0
3201,38.0,0,780,8.0,0.0
3202,50.0,0,780,2.0,0.0
3203,74.0,0,780,1.0,0.0
3204,84.0,0,180,0.0,0.0
3205,72.0,0,180,5.0,0.0
3206,72.0,120,180,4.0,0.0
3207,70.0,240,180,4.0,0.0
3208,70.0,0,180,5.0,0.0
3209,82.0,0,180,0.0,0.0
3210,42.0,0,390,8.0,0.0
3211,69.0,0,180,5.0,0.0
3212,69.0,24,390,1.0,0.0
3213,62.0,0,390,6.0,0.0
3214,54.0,0,390,7.0,0.0
3215,81.0,0,180,0.0,0.0
3216,54.0,0,390,2.0,0.0
3217,62.0,0,390,3.0,0.0
3218,69.0,216,180,4.0,0.0
3219,50.0,0,390,3.0,0.0
3220,84.0,0,180,0.0,0.0
3221,72.0,360,180,4.0,0.0
3222,72.0,0,180,5.0,0.0
3223,50.0,0,390,3.0,0.0
3224,70.0,0,390,1.0,0.0
3225,50.0,0,390,6.0,0.0
3226,70.0,48,330,5.0,0.0
3227,55.0,0,390,2.0,0.0
3228,55.0,384,390,7.0,0.0
3229,70.0,0,330,4.0,0.0
3230,82.0,48,300,0.0,0.0
3231,43.0,0,390,8.0,0.0
3232,62.0,0,390,3.0,0.0
3233,79.0,48,300,0.0,0.0
3234,67.0,480,330,5.0,0.0
3235,67.0,0,330,4.0,0.0
3236,74.0,0,330,4.0,0.0
3237,62.0,480,330,5.0,0.0
3238,67.0,0,330,3.0,0.0
3239,55.0,0,330,3.0,0.0
3240,79.0,48,780,4.0,0.0
3241,55.0,0,330,2.0,0.0
3242,51.0,432,330,7.0,0.0
3243,79.0,0,780,1.0,0.0
3244,67.0,0,780,1.0,0.0
3245,39.0,0,330,8.0,0.0
3246,51.0,0,330,2.0,0.0
3247,55.0,0,330,6.0,0.0
3248,67.0,0,780,5.0,0.0
3249,67.0,0,330,2.0,0.0
3250,63.0,480,330,2.0,0.0
3251,67.0,0,330,6.0,0.0
3252,67.0,0,330,3.0,0.0
3253,51.0,0,330,8.0,0.0
3254,55.0,0,330,3.0,0.0
3255,63.0,0,330,7.0,0.0
3256,67.0,0,330,3.0,0.0
3257,55.0,0,330,3.0,0.0
3258,82.0,24,750,4.0,0.0
3259,65.0,0,330,6.0,0.0
3260,62.0,0,330,2.0,0.0
3261,65.0,0,330,2.0,0.0
3262,62.0,0,330,7.0,0.0
3263,70.0,360,390,1.0,0.0
3264,82.0,96,780,1.0,0.0
3265,70.0,0,750,5.0,0.0
3266,50.0,48,330,8.0,0.0
3267,49.0,0,1140,8.0,0.0
3268,55.0,264,390,3.0,0.0
3269,67.0,0,390,3.0,0.0
3270,64.0,0,780,2.0,0.0
3271,61.0,120,780,2.0,0.0
3272,64.0,0,780,6.0,0.0
3273,76.0,0,780,1.0,0.0
3274,61.0,96,1140,7.0,0.0
3275,69.0,0,180,5.0,0.0
3276,81.0,120,180,4.0,0.0
3277,81.0,0,300,1.0,0.0
3278,77.0,0,180,4.0,0.0
3279,65.0,240,180,5.0,0.0
3280,64.0,24,180,5.0,0.0
3281,57.0,0,780,6.0,0.0
3282,57.0,264,870,2.0,0.0
3283,76.0,0,180,4.0,0.0
3284,76.0,0,300,1.0,0.0
3285,81.0,24,390,0.0,0.0
3286,69.0,96,300,3.0,0.0
3287,79.0,0,180,4.0,0.0
3288,67.0,336,180,5.0,0.0
3289,62.0,0,300,3.0,0.0
3290,69.0,48,300,3.0,0.0
3291,89.0,24,270,0.0,0.0
3292,50.0,0,330,8.0,0.0
3293,62.0,48,330,7.0,0.0
3294,77.0,0,270,1.0,0.0
3295,65.0,0,330,5.0,0.0
3296,77.0,0,330,4.0,0.0
3297,88.0,0,180,0.0,0.0
3298,58.0,0,300,2.0,0.0
3299,55.0,72,330,7.0,0.0
3300,43.0,0,330,8.0,0.0
3301,76.0,0,180,4.0,0.0
3302,58.0,48,300,6.0,0.0
3303,76.0,0,180,1.0,0.0
3304,64.0,120,180,5.0,0.0
3305,62.0,240,180,5.0,0.0
3306,86.0,0,180,0.0,0.0
3307,74.0,0,180,1.0,0.0
3308,74.0,0,180,4.0,0.0
3309,61.0,0,180,5.0,0.0
3310,69.0,0,300,3.0,0.0
3311,73.0,120,180,1.0,0.0
3312,57.0,72,330,7.0,0.0
3313,55.0,0,300,6.0,0.0
3314,85.0,0,180,0.0,0.0
3315,45.0,0,330,8.0,0.0
3316,55.0,48,300,2.0,0.0
3317,73.0,0,180,4.0,0.0
3318,88.0,336,180,0.0,0.0
3319,64.0,0,180,5.0,0.0
3320,76.0,0,180,1.0,0.0
3321,76.0,0,180,4.0,0.0
3322,58.0,312,330,7.0,0.0
3323,86.0,0,270,0.0,0.0
3324,53.0,0,300,2.0,0.0
3325,46.0,0,330,8.0,0.0
3326,62.0,0,300,3.0,0.0
3327,53.0,48,300,6.0,0.0
3328,62.0,0,330,5.0,0.0
3329,74.0,24,270,1.0,0.0
3330,74.0,0,330,4.0,0.0
3331,55.0,0,300,6.0,0.0
3332,55.0,0,300,2.0,0.0
3333,55.0,48,300,3.0,0.0
3334,52.0,0,330,7.0,0.0
3335,84.0,0,180,0.0,0.0
3336,72.0,0,180,1.0,0.0
3337,72.0,0,180,4.0,0.0
3338,60.0,120,180,5.0,0.0
3339,40.0,72,330,8.0,0.0
3340,70.0,0,180,4.0,0.0
3341,58.0,240,180,5.0,0.0
3342,70.0,0,180,1.0,0.0
3343,82.0,0,180,0.0,0.0
3344,50.0,0,300,6.0,0.0
3345,50.0,48,300,2.0,0.0
3346,42.0,72,330,8.0,0.0
3347,54.0,0,330,7.0,0.0
3348,81.0,0,180,0.0,0.0
3349,57.0,120,180,5.0,0.0
3350,69.0,0,180,4.0,0.0
3351,69.0,0,180,1.0,0.0
3352,62.0,0,300,3.0,0.0
3353,50.0,0,300,3.0,0.0
3354,72.0,0,180,4.0,0.0
3355,72.0,336,180,1.0,0.0
3356,60.0,0,180,5.0,0.0
3357,84.0,0,180,0.0,0.0
3358,43.0,432,330,8.0,0.0
3359,55.0,0,300,2.0,0.0
3360,58.0,0,330,5.0,0.0
3361,70.0,0,330,4.0,0.0
3362,70.0,24,270,1.0,0.0
3363,55.0,48,300,3.0,0.0
3364,55.0,0,330,7.0,0.0
3365,62.0,0,300,3.0,0.0
3366,62.0,0,300,6.0,0.0
3367,82.0,0,300,0.0,0.0
3368,37.0,0,330,8.0,0.0
3369,70.0,432,330,5.0,0.0
3370,49.0,0,300,2.0,0.0
3371,64.0,0,300,6.0,0.0
3372,82.0,0,330,4.0,0.0
3373,49.0,0,330,7.0,0.0
3374,79.0,48,300,1.0,0.0
3375,76.0,0,300,0.0,0.0
3376,38.0,0,330,8.0,0.0
3377,81.0,0,330,4.0,0.0
3378,50.0,0,300,2.0,0.0
3379,65.0,0,300,6.0,0.0
3380,50.0,432,330,7.0,0.0
3381,74.0,48,300,1.0,0.0
3382,77.0,0,300,1.0,0.0
3383,69.0,0,330,5.0,0.0
3384,77.0,0,300,0.0,0.0
3385,68.0,0,330,5.0,0.0
3386,52.0,0,300,2.0,0.0
3387,40.0,432,330,8.0,0.0
3388,59.0,0,300,6.0,0.0
3389,74.0,48,300,1.0,0.0
3390,76.0,0,780,1.0,0.0
3391,52.0,0,330,7.0,0.0
3392,83.0,0,300,0.0,0.0
3393,80.0,0,330,4.0,0.0
3394,85.0,0,300,0.0,0.0
3395,69.0,48,300,3.0,0.0
3396,67.0,0,330,5.0,0.0
3397,45.0,432,330,7.0,0.0
3398,61.0,0,300,6.0,0.0
3399,79.0,0,330,4.0,0.0
3400,45.0,0,300,2.0,0.0
3401,33.0,0,330,8.0,0.0
3402,73.0,0,300,1.0,0.0
3403,62.0,0,300,6.0,0.0
3404,77.0,0,330,4.0,0.0
3405,46.0,48,330,7.0,0.0
3406,46.0,0,300,2.0,0.0
3407,62.0,48,300,3.0,0.0
3408,65.0,0,330,5.0,0.0
3409,74.0,384,390,1.0,0.0
3410,34.0,0,330,8.0,0.0
3411,86.0,0,300,0.0,0.0
3412,67.0,48,300,3.0,0.0
3413,55.0,144,330,7.0,0.0
3414,43.0,0,330,8.0,0.0
3415,76.0,264,480,4.0,0.0
3416,64.0,0,480,5.0,0.0
3417,79.0,0,780,1.0,0.0
3418,76.0,48,780,1.0,0.0
3419,55.0,0,300,2.0,0.0
3420,88.0,0,480,0.0,0.0
3421,58.0,0,780,6.0,0.0
3422,91.0,24,270,0.0,0.0
3423,52.0,408,330,7.0,0.0
3424,52.0,0,300,2.0,0.0
3425,40.0,0,330,8.0,0.0
3426,79.0,0,270,4.0,0.0
3427,67.0,0,270,5.0,0.0
3428,43.0,0,330,8.0,0.0
3429,76.0,0,390,1.0,0.0
3430,73.0,432,390,1.0,0.0
3431,61.0,0,270,5.0,0.0
3432,55.0,0,300,6.0,0.0
3433,85.0,0,270,0.0,0.0
3434,73.0,24,270,4.0,0.0
3435,55.0,48,300,2.0,0.0
3436,69.0,0,300,3.0,0.0
3437,55.0,48,330,7.0,0.0
3438,62.0,0,330,5.0,0.0
3439,74.0,912,330,1.0,0.0
3440,86.0,0,330,0.0,0.0
3441,53.0,0,330,6.0,0.0
3442,50.0,0,330,7.0,0.0
3443,38.0,0,330,8.0,0.0
3444,50.0,0,330,2.0,0.0
3445,69.0,0,330,3.0,0.0
3446,74.0,0,330,4.0,0.0
3447,62.0,0,330,3.0,0.0
3448,41.0,0,300,8.0,0.0
3449,65.0,0,300,6.0,0.0
3450,77.0,528,300,0.0,0.0
3451,65.0,0,300,1.0,0.0
3452,53.0,0,300,7.0,0.0
3453,46.0,0,780,8.0,0.0
3454,70.0,48,780,1.0,0.0
3455,58.0,0,780,7.0,0.0
3456,70.0,0,780,6.0,0.0
3457,82.0,0,780,0.0,0.0
3458,65.0,0,330,5.0,0.0
3459,77.0,0,330,4.0,0.0
3460,53.0,432,330,2.0,0.0
3461,77.0,480,330,4.0,0.0
3462,53.0,0,330,2.0,0.0
3463,65.0,0,330,5.0,0.0
3464,74.0,0,870,6.0,0.0
3465,86.0,0,870,0.0,0.0
3466,77.0,0,330,4.0,0.0
3467,74.0,264,870,1.0,0.0
3468,65.0,528,330,5.0,0.0
3469,50.0,0,870,8.0,0.0
3470,62.0,0,870,7.0,0.0
3471,53.0,0,330,2.0,0.0
3472,87.0,0,1140,4.0,0.0
3473,75.0,0,1140,5.0,0.0
3474,63.0,216,1140,2.0,0.0
3475,72.0,0,180,1.0,0.0
3476,60.0,240,180,7.0,0.0
3477,48.0,0,180,8.0,0.0
3478,72.0,0,180,6.0,0.0
3479,84.0,0,180,0.0,0.0
3480,70.0,0,180,1.0,0.0
3481,82.0,240,180,0.0,0.0
3482,70.0,0,180,6.0,0.0
3483,46.0,0,180,8.0,0.0
3484,58.0,0,180,7.0,0.0
3485,69.0,24,180,6.0,0.0
3486,81.0,0,180,0.0,0.0
3487,45.0,0,180,8.0,0.0
3488,69.0,0,180,1.0,0.0
3489,57.0,0,180,7.0,0.0
3490,84.0,0,180,0.0,0.0
3491,72.0,240,180,1.0,0.0
3492,60.0,0,180,7.0,0.0
3493,48.0,0,180,8.0,0.0
3494,72.0,0,180,6.0,0.0
3495,70.0,0,390,6.0,0.0
3496,58.0,0,390,7.0,0.0
3497,82.0,24,390,0.0,0.0
3498,62.0,0,180,2.0,0.0
3499,70.0,0,390,1.0,0.0
3500,46.0,0,390,8.0,0.0
3501,86.0,0,180,4.0,0.0
3502,74.0,216,180,5.0,0.0
3503,70.0,0,180,5.0,0.0
3504,58.0,240,180,2.0,0.0
3505,82.0,0,180,4.0,0.0
3506,65.0,0,180,5.0,0.0
3507,77.0,0,180,4.0,0.0
3508,53.0,240,180,2.0,0.0
3509,50.0,0,180,2.0,0.0
3510,74.0,0,180,4.0,0.0
3511,62.0,408,180,5.0,0.0
3512,70.0,0,330,4.0,0.0
3513,62.0,0,390,1.0,0.0
3514,46.0,0,330,2.0,0.0
3515,58.0,48,330,5.0,0.0
3516,50.0,0,390,7.0,0.0
3517,38.0,0,390,8.0,0.0
3518,74.0,0,390,0.0,0.0
3519,62.0,432,390,6.0,0.0
3520,79.0,0,780,1.0,0.0
3521,50.0,0,330,2.0,0.0
3522,79.0,0,780,0.0,0.0
3523,43.0,0,780,8.0,0.0
3524,67.0,0,780,6.0,0.0
3525,62.0,0,330,5.0,0.0
3526,74.0,48,330,4.0,0.0
3527,55.0,48,780,7.0,0.0
3528,67.0,0,780,1.0,0.0
3529,62.0,384,390,3.0,0.0
3530,50.0,0,390,3.0,0.0
3531,50.0,432,390,3.0,0.0
3532,74.0,0,330,4.0,0.0
3533,50.0,48,330,2.0,0.0
3534,62.0,0,390,3.0,0.0
3535,62.0,0,330,5.0,0.0
3536,74.0,0,330,4.0,0.0
3537,50.0,0,330,2.0,0.0
3538,82.0,0,870,1.0,0.0
3539,58.0,264,870,7.0,0.0
3540,50.0,0,390,3.0,0.0
3541,62.0,480,390,3.0,0.0
3542,46.0,0,870,8.0,0.0
3543,70.0,0,870,6.0,0.0
3544,62.0,48,330,5.0,0.0
3545,70.0,0,870,1.0,0.0
3546,82.0,0,870,0.0,0.0
3547,84.0,0,1140,4.0,0.0
3548,72.0,192,1140,5.0,0.0
3549,60.0,0,1140,2.0,0.0
3550,50.0,0,390,3.0,0.0
3551,62.0,0,390,3.0,0.0
3552,69.0,0,180,6.0,0.0
3553,62.0,0,390,3.0,0.0
3554,45.0,216,180,8.0,0.0
3555,81.0,0,180,0.0,0.0
3556,50.0,24,390,3.0,0.0
3557,69.0,0,180,1.0,0.0
3558,81.0,0,180,1.0,0.0
3559,57.0,0,180,7.0,0.0
3560,67.0,240,180,6.0,0.0
3561,67.0,0,180,1.0,0.0
3562,79.0,0,180,0.0,0.0
3563,79.0,0,180,1.0,0.0
3564,55.0,0,180,7.0,0.0
3565,43.0,0,180,8.0,0.0
3566,42.0,0,180,8.0,0.0
3567,78.0,0,180,0.0,0.0
3568,78.0,0,180,1.0,0.0
3569,66.0,0,180,1.0,0.0
3570,54.0,0,180,7.0,0.0
3571,50.0,0,390,3.0,0.0
3572,62.0,24,390,3.0,0.0
3573,66.0,24,180,6.0,0.0
3574,81.0,0,180,0.0,0.0
3575,57.0,240,180,7.0,0.0
3576,81.0,0,180,1.0,0.0
3577,69.0,0,180,6.0,0.0
3578,69.0,0,180,1.0,0.0
3579,45.0,0,180,8.0,0.0
3580,79.0,0,390,1.0,0.0
3581,67.0,0,390,1.0,0.0
3582,50.0,0,390,3.0,0.0
3583,55.0,24,390,7.0,0.0
3584,79.0,0,390,0.0,0.0
3585,43.0,0,390,8.0,0.0
3586,82.0,0,180,4.0,0.0
3587,70.0,216,180,5.0,0.0
3588,67.0,0,390,6.0,0.0
3589,62.0,0,390,3.0,0.0
3590,58.0,0,180,2.0,0.0
3591,67.0,0,180,5.0,0.0
3592,55.0,240,180,2.0,0.0
3593,79.0,0,180,4.0,0.0
3594,50.0,0,180,2.0,0.0
3595,62.0,240,180,5.0,0.0
3596,74.0,0,180,4.0,0.0
3597,46.0,0,180,2.0,0.0
3598,70.0,0,180,4.0,0.0
3599,58.0,408,180,5.0,0.0
3600,46.0,432,390,7.0,0.0
3601,67.0,48,330,4.0,0.0
3602,55.0,0,330,5.0,0.0
3603,34.0,0,390,8.0,0.0
3604,58.0,0,390,6.0,0.0
3605,70.0,0,390,0.0,0.0
3606,43.0,0,330,2.0,0.0
3607,58.0,0,390,1.0,0.0
3608,70.0,0,390,1.0,0.0
3609,75.0,0,780,0.0,0.0
3610,75.0,0,780,1.0,0.0
3611,63.0,0,780,6.0,0.0
3612,70.0,432,330,4.0,0.0
3613,63.0,0,780,1.0,0.0
3614,58.0,0,330,5.0,0.0
3615,46.0,0,330,2.0,0.0
3616,39.0,0,780,8.0,0.0
3617,51.0,48,780,7.0,0.0
3618,70.0,480,330,4.0,0.0
3619,46.0,0,330,2.0,0.0
3620,58.0,0,330,5.0,0.0
3621,55.0,312,810,7.0,0.0
3622,70.0,0,330,4.0,0.0
3623,67.0,0,810,6.0,0.0
3624,58.0,0,330,5.0,0.0
3625,43.0,0,810,8.0,0.0
3626,46.0,480,330,2.0,0.0
3627,79.0,0,810,1.0,0.0
3628,79.0,0,810,0.0,0.0
3629,67.0,0,810,1.0,0.0
3630,68.0,0,1140,5.0,0.0
3631,56.0,0,1140,2.0,0.0
3632,80.0,216,1140,4.0,0.0
3633,77.0,0,180,1.0,0.0
3634,77.0,240,180,0.0,0.0
3635,53.0,0,180,7.0,0.0
3636,65.0,0,180,6.0,0.0
3637,65.0,0,180,1.0,0.0
3638,41.0,0,180,8.0,0.0
3639,39.0,0,180,8.0,0.0
3640,63.0,0,180,6.0,0.0
3641,75.0,240,180,0.0,0.0
3642,51.0,0,180,7.0,0.0
3643,75.0,0,180,1.0,0.0
3644,63.0,0,180,1.0,0.0
3645,38.0,0,180,8.0,0.0
3646,62.0,0,180,1.0,0.0
3647,50.0,0,180,7.0,0.0
3648,62.0,24,180,6.0,0.0
3649,74.0,0,180,1.0,0.0
3650,74.0,0,180,0.0,0.0
3651,53.0,408,180,7.0,0.0
3652,65.0,0,180,1.0,0.0
3653,77.0,0,180,0.0,0.0
3654,77.0,0,180,1.0,0.0
3655,41.0,0,180,8.0,0.0
3656,65.0,0,180,6.0,0.0
3657,79.0,312,330,4.0,0.0
3658,75.0,0,330,1.0,0.0
3659,39.0,0,330,8.0,0.0
3660,67.0,0,330,5.0,0.0
3661,75.0,0,330,0.0,0.0
3662,63.0,0,330,1.0,0.0
3663,63.0,0,330,6.0,0.0
3664,55.0,0,330,2.0,0.0
3665,51.0,0,330,7.0,0.0
3666,65.0,240,180,5.0,0.0
3667,47.0,0,780,7.0,0.0
3668,59.0,0,780,1.0,0.0
3669,35.0,0,780,8.0,0.0
3670,59.0,0,780,6.0,0.0
3671,71.0,0,780,1.0,0.0
3672,77.0,0,180,4.0,0.0
3673,53.0,0,180,2.0,0.0
3674,71.0,120,780,0.0,0.0
3675,75.0,240,180,4.0,0.0
3676,51.0,0,180,2.0,0.0
3677,63.0,0,180,5.0,0.0
3678,62.0,0,180,5.0,0.0
3679,74.0,120,180,4.0,0.0
3680,50.0,0,180,2.0,0.0
3681,53.0,0,180,2.0,0.0
3682,77.0,0,180,4.0,0.0
3683,65.0,408,180,5.0,0.0
3684,75.0,0,330,4.0,0.0
3685,48.0,0,330,7.0,0.0
3686,72.0,0,330,1.0,0.0
3687,60.0,312,330,6.0,0.0
3688,72.0,0,330,0.0,0.0
3689,36.0,0,330,8.0,0.0
3690,51.0,0,330,2.0,0.0
3691,63.0,0,330,5.0,0.0
3692,60.0,0,330,1.0,0.0
3693,74.0,0,180,4.0,0.0
3694,38.0,0,780,8.0,0.0
3695,62.0,0,780,1.0,0.0
3696,62.0,0,780,6.0,0.0
3697,50.0,0,780,7.0,0.0
3698,62.0,0,180,5.0,0.0
3699,50.0,240,180,2.0,0.0
3700,74.0,120,780,0.0,0.0
3701,74.0,0,780,1.0,0.0
3702,72.0,0,180,4.0,0.0
3703,60.0,0,180,5.0,0.0
3704,48.0,240,180,2.0,0.0
3705,47.0,0,180,2.0,0.0
3706,71.0,0,180,4.0,0.0
3707,59.0,120,180,5.0,0.0
3708,62.0,0,180,5.0,0.0
3709,74.0,0,180,4.0,0.0
3710,50.0,408,180,2.0,0.0
3711,63.0,0,330,6.0,0.0
3712,72.0,0,330,4.0,0.0
3713,75.0,0,330,1.0,0.0
3714,51.0,0,330,7.0,0.0
3715,60.0,312,330,5.0,0.0
3716,48.0,0,330,2.0,0.0
3717,63.0,0,330,1.0,0.0
3718,75.0,0,330,0.0,0.0
3719,39.0,0,330,8.0,0.0
3720,49.0,0,780,8.0,0.0
3721,46.0,0,180,2.0,0.0
3722,67.0,0,780,3.0,0.0
3723,73.0,0,780,1.0,0.0
3724,85.0,0,780,1.0,0.0
3725,73.0,0,780,6.0,0.0
3726,85.0,120,780,0.0,0.0
3727,61.0,0,780,7.0,0.0
3728,70.0,0,180,4.0,0.0
3729,55.0,0,780,3.0,0.0
3730,58.0,240,180,5.0,0.0
3731,57.0,0,180,5.0,0.0
3732,69.0,240,180,4.0,0.0
3733,45.0,0,180,2.0,0.0
3734,58.0,0,180,5.0,0.0
3735,46.0,0,180,2.0,0.0
3736,70.0,120,180,4.0,0.0
3737,43.0,408,180,2.0,0.0
3738,55.0,0,180,5.0,0.0
3739,67.0,0,180,4.0,0.0
3740,62.0,0,330,5.0,0.0
3741,62.0,0,330,7.0,0.0
3742,62.0,264,390,3.0,0.0
3743,50.0,0,390,3.0,0.0
3744,86.0,0,330,0.0,0.0
3745,42.0,0,330,2.0,0.0
3746,74.0,0,330,6.0,0.0
3747,66.0,0,330,4.0,0.0
3748,50.0,48,330,8.0,0.0
3749,74.0,0,330,1.0,0.0
3750,86.0,0,330,1.0,0.0
3751,55.0,0,780,3.0,0.0
3752,58.0,0,180,7.0,0.0
3753,82.0,0,180,1.0,0.0
3754,70.0,0,180,1.0,0.0
3755,82.0,0,180,0.0,0.0
3756,61.0,0,780,2.0,0.0
3757,85.0,0,780,4.0,0.0
3758,73.0,120,780,5.0,0.0
3759,67.0,0,780,3.0,0.0
3760,46.0,0,180,8.0,0.0
3761,70.0,240,180,6.0,0.0
3762,69.0,0,180,1.0,0.0
3763,57.0,0,180,7.0,0.0
3764,69.0,0,180,6.0,0.0
3765,45.0,0,180,8.0,0.0
3766,81.0,240,180,0.0,0.0
3767,81.0,0,180,1.0,0.0
3768,82.0,0,180,1.0,0.0
3769,82.0,0,180,0.0,0.0
3770,58.0,0,180,7.0,0.0
3771,70.0,0,180,1.0,0.0
3772,70.0,0,180,6.0,0.0
3773,46.0,120,180,8.0,0.0
3774,79.0,0,180,1.0,0.0
3775,67.0,0,180,1.0,0.0
3776,79.0,0,180,0.0,0.0
3777,45.0,408,180,8.0,0.0
3778,55.0,0,180,7.0,0.0
3779,67.0,0,180,6.0,0.0
3780,66.0,0,330,6.0,0.0
3781,86.0,0,390,4.0,0.0
3782,62.0,0,390,2.0,0.0
3783,42.0,0,330,8.0,0.0
3784,62.0,264,390,3.0,0.0
3785,50.0,0,390,3.0,0.0
3786,54.0,48,330,7.0,0.0
3787,66.0,0,330,1.0,0.0
3788,78.0,0,330,1.0,0.0
3789,74.0,0,390,5.0,0.0
3790,78.0,0,330,0.0,0.0
3791,38.0,0,180,8.0,0.0
3792,74.0,0,180,0.0,0.0
3793,62.0,240,180,6.0,0.0
3794,62.0,0,780,3.0,0.0
3795,50.0,0,180,7.0,0.0
3796,50.0,96,780,3.0,0.0
3797,74.0,0,180,1.0,0.0
3798,73.0,240,180,1.0,0.0
3799,73.0,0,180,0.0,0.0
3800,37.0,0,180,8.0,0.0
3801,61.0,0,180,6.0,0.0
3802,49.0,0,180,7.0,0.0
3803,74.0,0,420,1.0,0.0
3804,62.0,0,180,6.0,0.0
3805,74.0,0,180,0.0,0.0
3806,50.0,0,180,7.0,0.0
3807,38.0,120,180,8.0,0.0
3808,62.0,0,390,4.0,0.0
3809,50.0,24,390,2.0,0.0
3810,60.0,360,180,6.0,0.0
3811,36.0,0,180,8.0,0.0
3812,48.0,0,180,7.0,0.0
3813,72.0,0,180,0.0,0.0
3814,72.0,0,180,1.0,0.0
3815,58.0,0,330,6.0,0.0
3816,55.0,384,390,3.0,0.0
3817,67.0,0,780,4.0,0.0
3818,70.0,48,300,1.0,0.0
3819,79.0,0,780,1.0,0.0
3820,34.0,0,330,8.0,0.0
3821,70.0,0,300,0.0,0.0
3822,55.0,48,780,2.0,0.0
3823,46.0,48,330,7.0,0.0
3824,62.0,0,330,6.0,0.0
3825,46.0,432,330,8.0,0.0
3826,58.0,0,330,7.0,0.0
3827,67.0,0,330,5.0,0.0
3828,82.0,0,810,1.0,0.0
3829,67.0,0,330,1.0,0.0
3830,55.0,480,330,7.0,0.0
3831,55.0,0,330,2.0,0.0
3832,79.0,48,300,0.0,0.0
3833,58.0,0,330,6.0,0.0
3834,58.0,0,810,2.0,0.0
3835,70.0,0,810,4.0,0.0
3836,43.0,0,330,8.0,0.0
3837,72.0,0,780,5.0,0.0
3838,51.0,312,330,7.0,0.0
3839,39.0,0,330,8.0,0.0
3840,60.0,0,900,2.0,0.0
3841,55.0,0,330,6.0,0.0
3842,72.0,0,900,1.0,0.0
3843,84.0,48,780,0.0,0.0
3844,57.0,120,180,2.0,0.0
3845,36.0,0,330,8.0,0.0
3846,63.0,72,330,6.0,0.0
3847,81.0,0,180,1.0,0.0
3848,48.0,0,330,7.0,0.0
3849,69.0,0,180,4.0,0.0
3850,82.0,0,180,1.0,0.0
3851,70.0,0,180,4.0,0.0
3852,58.0,240,180,2.0,0.0
3853,79.0,168,180,1.0,0.0
3854,60.0,48,330,7.0,0.0
3855,87.0,24,390,0.0,0.0
3856,57.0,0,810,6.0,0.0
3857,75.0,0,810,1.0,0.0
3858,67.0,0,180,4.0,0.0
3859,55.0,0,180,2.0,0.0
3860,63.0,0,810,2.0,0.0
3861,48.0,0,330,8.0,0.0
3862,75.0,0,810,5.0,0.0
3863,57.0,0,180,2.0,0.0
3864,81.0,408,180,1.0,0.0
3865,69.0,0,180,4.0,0.0
3866,62.0,0,330,7.0,0.0
3867,54.0,0,900,2.0,0.0
3868,78.0,0,900,1.0,0.0
3869,50.0,0,330,8.0,0.0
3870,66.0,48,780,4.0,0.0
3871,50.0,0,1380,3.0,0.0
3872,62.0,0,1380,3.0,0.0
3873,87.0,312,330,0.0,0.0
3874,74.0,0,180,5.0,0.0
3875,62.0,0,180,2.0,0.0
3876,57.0,0,330,7.0,0.0
3877,74.0,0,180,1.0,0.0
3878,86.0,120,180,0.0,0.0
3879,54.0,72,330,6.0,0.0
3880,45.0,0,330,8.0,0.0
3881,75.0,0,180,5.0,0.0
3882,75.0,0,180,1.0,0.0
3883,87.0,240,180,0.0,0.0
3884,63.0,0,180,2.0,0.0
3885,60.0,0,180,2.0,0.0
3886,72.0,168,180,5.0,0.0
3887,42.0,72,330,8.0,0.0
3888,57.0,0,810,2.0,0.0
3889,84.0,0,180,0.0,0.0
3890,72.0,0,180,1.0,0.0
3891,81.0,0,810,1.0,0.0
3892,54.0,0,330,7.0,0.0
3893,62.0,0,810,6.0,0.0
3894,81.0,0,810,4.0,0.0
3895,86.0,0,180,0.0,0.0
3896,62.0,0,180,2.0,0.0
3897,74.0,0,180,1.0,0.0
3898,74.0,408,180,5.0,0.0
3899,55.0,0,1380,3.0,0.0
3900,82.0,0,780,0.0,0.0
3901,58.0,0,900,2.0,0.0
3902,43.0,0,1380,3.0,0.0
3903,70.0,48,780,5.0,0.0
3904,70.0,0,900,1.0,0.0
3905,55.0,0,330,7.0,0.0
3906,43.0,312,330,8.0,0.0
3907,79.0,120,180,4.0,0.0
3908,55.0,0,180,2.0,0.0
3909,50.0,72,330,7.0,0.0
3910,58.0,0,330,6.0,0.0
3911,38.0,0,330,8.0,0.0
3912,79.0,0,180,1.0,0.0
3913,56.0,0,180,2.0,0.0
3914,80.0,0,180,4.0,0.0
3915,80.0,240,180,1.0,0.0
3916,53.0,168,180,2.0,0.0
3917,62.0,0,810,2.0,0.0
3918,67.0,0,810,6.0,0.0
3919,47.0,48,330,7.0,0.0
3920,86.0,24,390,0.0,0.0
3921,77.0,0,180,1.0,0.0
3922,74.0,0,810,1.0,0.0
3923,86.0,48,810,5.0,0.0
3924,77.0,0,180,4.0,0.0
3925,35.0,0,330,8.0,0.0
3926,55.0,0,180,2.0,0.0
3927,79.0,408,180,4.0,0.0
3928,79.0,0,180,1.0,0.0
3929,48.0,0,330,7.0,0.0
3930,51.0,0,900,2.0,0.0
3931,36.0,0,330,8.0,0.0
3932,86.0,264,390,0.0,0.0
3933,75.0,0,900,1.0,0.0
3934,75.0,48,780,4.0,0.0
3935,84.0,96,180,0.0,0.0
3936,66.0,72,330,6.0,0.0
3937,44.0,0,330,7.0,0.0
3938,60.0,24,180,2.0,0.0
3939,72.0,0,180,1.0,0.0
3940,84.0,0,180,5.0,0.0
3941,32.0,0,330,8.0,0.0
3942,86.0,216,180,0.0,0.0
3943,62.0,24,180,2.0,0.0
3944,74.0,0,180,1.0,0.0
3945,86.0,0,180,5.0,0.0
3946,87.0,0,810,4.0,0.0
3947,31.0,0,330,8.0,0.0
3948,75.0,0,810,1.0,0.0
3949,70.0,0,180,1.0,0.0
3950,82.0,24,180,5.0,0.0
3951,67.0,72,330,6.0,0.0
3952,63.0,0,810,2.0,0.0
3953,58.0,0,180,2.0,0.0
3954,43.0,0,330,7.0,0.0
3955,82.0,144,180,0.0,0.0
3956,84.0,24,180,5.0,0.0
3957,84.0,384,180,0.0,0.0
3958,72.0,0,180,1.0,0.0
3959,60.0,0,180,2.0,0.0
3960,69.0,0,810,1.0,0.0
3961,69.0,0,330,6.0,0.0
3962,81.0,0,780,5.0,0.0
3963,57.0,0,900,2.0,0.0
3964,30.0,312,330,8.0,0.0
3965,42.0,0,330,7.0,0.0
3966,81.0,48,780,0.0,0.0
3967,86.0,120,180,4.0,0.0
3968,62.0,0,180,2.0,0.0
3969,57.0,0,330,6.0,0.0
3970,54.0,0,330,7.0,0.0
3971,74.0,0,330,1.0,0.0
3972,42.0,72,330,8.0,0.0
3973,63.0,240,180,2.0,0.0
3974,87.0,0,180,4.0,0.0
3975,84.0,168,180,4.0,0.0
3976,69.0,0,330,6.0,0.0
3977,50.0,0,330,7.0,0.0
3978,81.0,0,330,1.0,0.0
3979,78.0,48,330,5.0,0.0
3980,90.0,24,390,0.0,0.0
3981,60.0,0,180,2.0,0.0
3982,54.0,360,420,2.0,0.0
3983,38.0,0,330,8.0,0.0
3984,69.0,0,330,3.0,0.0
3985,62.0,0,330,3.0,0.0
3986,84.0,0,330,1.0,0.0
3987,62.0,0,180,2.0,0.0
3988,86.0,0,180,4.0,0.0
3989,43.0,0,300,8.0,0.0
3990,82.0,0,300,4.0,0.0
3991,91.0,480,300,0.0,0.0
3992,67.0,0,300,6.0,0.0
3993,79.0,0,300,5.0,0.0
3994,58.0,0,300,2.0,0.0
3995,55.0,0,300,3.0,0.0
3996,67.0,0,300,3.0,0.0
3997,79.0,0,300,1.0,0.0
3998,82.0,0,300,1.0,0.0
3999,55.0,0,300,7.0,0.0
4000,78.0,0,300,1.0,0.0
4001,69.0,0,300,3.0,0.0
4002,62.0,0,300,3.0,0.0
4003,50.0,0,300,8.0,0.0
4004,72.0,0,300,5.0,0.0
4005,81.0,0,300,1.0,0.0
4006,62.0,480,300,7.0,0.0
4007,78.0,0,300,4.0,0.0
4008,69.0,0,300,6.0,0.0
4009,66.0,0,300,2.0,0.0
4010,60.0,0,300,2.0,0.0
4011,84.0,0,300,0.0,0.0
4012,82.0,0,300,0.0,0.0
4013,63.0,0,300,7.0,0.0
4014,55.0,0,300,3.0,0.0
4015,70.0,0,300,5.0,0.0
4016,79.0,0,300,1.0,0.0
4017,79.0,0,300,4.0,0.0
4018,51.0,0,300,8.0,0.0
4019,67.0,0,300,2.0,0.0
4020,58.0,0,300,2.0,0.0
4021,67.0,480,300,6.0,0.0
4022,67.0,0,300,3.0,0.0
4023,60.0,0,300,6.0,0.0
4024,63.0,0,300,5.0,0.0
4025,60.0,0,300,2.0,0.0
4026,63.0,0,300,2.0,0.0
4027,84.0,0,300,0.0,0.0
4028,60.0,0,300,7.0,0.0
4029,72.0,0,300,3.0,0.0
4030,75.0,0,780,1.0,0.0
4031,48.0,480,300,8.0,0.0
4032,69.0,0,300,3.0,0.0
4033,81.0,0,300,1.0,0.0
4034,69.0,0,300,4.0,0.0
4035,45.0,0,300,8.0,0.0
4036,72.0,0,300,5.0,0.0
4037,81.0,0,300,4.0,0.0
4038,57.0,0,300,2.0,0.0
4039,63.0,0,300,6.0,0.0
4040,57.0,0,300,7.0,0.0
4041,87.0,0,300,0.0,0.0
4042,84.0,432,300,1.0,0.0
4043,60.0,0,300,2.0,0.0
4044,69.0,0,300,3.0,0.0
4045,57.0,0,300,2.0,0.0
4046,54.0,96,300,2.0,0.0
4047,62.0,0,300,3.0,0.0
4048,74.0,48,240,1.0,0.0
4049,78.0,384,390,1.0,0.0
4050,69.0,0,300,5.0,0.0
4051,50.0,0,300,8.0,0.0
4052,62.0,0,300,6.0,0.0
4053,78.0,0,300,4.0,0.0
4054,62.0,0,300,7.0,0.0
4055,81.0,0,300,0.0,0.0
4056,72.0,0,150,1.0,0.0
4057,55.0,672,300,2.0,0.0
4058,79.0,0,300,0.0,0.0
4059,67.0,0,300,3.0,0.0
4060,79.0,0,300,4.0,0.0
4061,55.0,0,300,3.0,0.0
4062,43.0,0,300,8.0,0.0
4063,79.0,0,300,1.0,0.0
4064,70.0,0,300,1.0,0.0
4065,62.0,0,300,6.0,0.0
4066,70.0,0,300,5.0,0.0
4067,55.0,0,300,7.0,0.0
4068,67.0,336,480,2.0,0.0
4069,69.0,480,480,1.0,0.0
4070,66.0,0,480,2.0,0.0
4071,74.0,144,330,0.0,0.0
4072,65.0,0,480,2.0,0.0
4073,71.0,288,480,1.0,0.0
4074,79.0,96,780,0.0,0.0
4075,64.0,480,480,2.0,0.0
4076,72.0,96,390,1.0,0.0
4077,63.0,0,480,2.0,0.0
4078,79.0,0,810,1.0,0.0
4079,82.0,312,810,0.0,0.0
4080,73.0,336,480,1.0,0.0
4081,74.0,0,330,1.0,0.0
4082,62.0,0,330,2.0,0.0
4083,72.0,168,180,1.0,0.0
4084,81.0,0,180,0.0,0.0
4085,74.0,0,420,1.0,0.0
4086,62.0,72,330,2.0,0.0
4087,79.0,0,180,0.0,0.0
4088,70.0,240,180,1.0,0.0
4089,78.0,168,180,0.0,0.0
4090,69.0,0,180,1.0,0.0
4091,62.0,72,330,2.0,0.0
4092,81.0,408,180,0.0,0.0
4093,72.0,0,180,1.0,0.0
4094,79.0,480,330,0.0,0.0
4095,61.0,0,330,2.0,0.0
4096,76.0,144,1140,1.0,0.0
4097,70.0,0,1140,1.0,0.0
4098,61.0,336,330,2.0,0.0
4099,79.0,0,330,0.0,0.0
4100,61.0,480,330,2.0,0.0
4101,58.0,0,330,2.0,0.0
4102,62.0,0,330,2.0,0.0
4103,50.0,0,330,3.0,0.0
4104,50.0,384,390,8.0,0.0
4105,62.0,0,390,7.0,0.0
4106,62.0,0,330,3.0,0.0
4107,70.0,0,390,4.0,0.0
4108,67.0,0,390,5.0,0.0
4109,70.0,48,330,1.0,0.0
4110,62.0,0,390,6.0,0.0
4111,79.0,0,330,1.0,0.0
4112,82.0,48,780,0.0,0.0
4113,50.0,0,330,3.0,0.0
4114,62.0,0,330,3.0,0.0
4115,58.0,0,330,2.0,0.0
4116,55.0,0,330,2.0,0.0
4117,70.0,0,330,1.0,0.0
4118,74.0,480,330,1.0,0.0
4119,58.0,0,330,2.0,0.0
4120,86.0,0,810,0.0,0.0
4121,70.0,0,330,1.0,0.0
4122,55.0,480,330,2.0,0.0
4123,62.0,0,330,3.0,0.0
4124,50.0,0,330,3.0,0.0
4125,74.0,0,330,1.0,0.0
4126,50.0,0,390,7.0,0.0
4127,38.0,0,390,8.0,0.0
4128,54.0,0,330,2.0,0.0
4129,60.0,0,390,6.0,0.0
4130,62.0,0,390,6.0,0.0
4131,69.0,264,390,4.0,0.0
4132,57.0,48,330,2.0,0.0
4133,62.0,0,330,3.0,0.0
4134,50.0,0,330,3.0,0.0
4135,74.0,0,330,1.0,0.0
4136,72.0,0,330,1.0,0.0
4137,66.0,0,390,5.0,0.0
4138,62.0,0,330,3.0,0.0
4139,50.0,0,330,3.0,0.0
4140,74.0,0,330,1.0,0.0
4141,54.0,0,330,2.0,0.0
4142,78.0,168,180,0.0,0.0
4143,72.0,72,330,1.0,0.0
4144,57.0,0,330,2.0,0.0
4145,79.0,240,180,0.0,0.0
4146,57.0,0,330,2.0,0.0
4147,74.0,0,330,1.0,0.0
4148,54.0,0,330,2.0,0.0
4149,72.0,0,330,1.0,0.0
4150,81.0,168,180,0.0,0.0
4151,62.0,0,330,3.0,0.0
4152,50.0,72,330,3.0,0.0
4153,82.0,432,180,0.0,0.0
4154,67.0,0,360,4.0,0.0
4155,58.0,4728,360,6.0,0.0
4156,62.0,0,360,6.0,0.0
4157,67.0,0,360,5.0,0.0
4158,62.0,0,360,3.0,0.0
4159,50.0,0,360,3.0,0.0
4160,55.0,0,360,2.0,0.0
4161,70.0,0,360,1.0,0.0
4162,74.0,0,360,1.0,0.0
4163,43.0,0,360,8.0,0.0
4164,79.0,0,360,0.0,0.0
4165,55.0,0,360,7.0,0.0
4166,29.0,0,780,8.0,0.0
