,note,step,duration,channel,velocity
0,62.0,120,90,11.0,64.0
1,61.0,120,90,11.0,64.0
2,62.0,120,90,11.0,64.0
3,64.0,120,90,11.0,64.0
4,66.0,120,90,11.0,64.0
5,64.0,120,90,11.0,64.0
6,66.0,120,90,11.0,64.0
7,81.0,96,480,10.0,64.0
8,64.0,120,90,11.0,64.0
9,62.0,120,90,11.0,64.0
10,61.0,24,90,11.0,64.0
11,62.0,96,90,11.0,64.0
12,78.0,24,180,10.0,64.0
13,64.0,120,90,11.0,64.0
14,66.0,120,90,11.0,64.0
15,64.0,120,90,11.0,64.0
16,74.0,96,480,10.0,64.0
17,66.0,120,90,11.0,64.0
18,62.0,120,90,11.0,64.0
19,64.0,120,90,11.0,64.0
20,63.0,24,90,11.0,64.0
21,64.0,96,90,11.0,64.0
22,73.0,24,180,10.0,64.0
23,66.0,120,90,11.0,64.0
24,67.0,120,90,11.0,64.0
25,66.0,120,90,11.0,64.0
26,81.0,96,480,10.0,64.0
27,67.0,120,90,11.0,64.0
28,66.0,120,90,11.0,64.0
29,64.0,120,90,11.0,64.0
30,63.0,24,90,11.0,64.0
31,79.0,24,180,10.0,64.0
32,64.0,96,90,11.0,64.0
33,66.0,120,90,11.0,64.0
34,67.0,120,90,11.0,64.0
35,66.0,120,90,11.0,64.0
36,76.0,96,480,10.0,64.0
37,67.0,120,90,11.0,64.0
38,64.0,120,90,11.0,64.0
39,66.0,120,90,11.0,64.0
40,64.0,24,90,11.0,64.0
41,74.0,24,180,10.0,64.0
42,66.0,96,90,11.0,64.0
43,67.0,120,90,11.0,64.0
44,69.0,120,90,11.0,64.0
45,67.0,120,90,11.0,64.0
46,86.0,96,480,10.0,64.0
47,69.0,120,90,11.0,64.0
48,67.0,120,90,11.0,64.0
49,66.0,120,90,11.0,64.0
50,67.0,24,90,11.0,64.0
51,81.0,24,180,10.0,64.0
52,69.0,96,90,11.0,64.0
53,71.0,120,90,11.0,64.0
54,72.0,120,90,11.0,64.0
55,71.0,120,90,11.0,64.0
56,72.0,120,90,11.0,64.0
57,78.0,96,240,10.0,64.0
58,69.0,24,90,11.0,64.0
59,71.0,60,90,11.0,64.0
60,79.0,60,150,10.0,64.0
61,69.0,84,90,11.0,64.0
62,83.0,36,60,10.0,64.0
63,67.0,24,90,11.0,64.0
64,81.0,60,60,10.0,64.0
65,66.0,12,90,11.0,64.0
66,83.0,36,60,10.0,64.0
67,81.0,108,40,10.0,64.0
68,67.0,96,90,11.0,64.0
69,83.0,24,180,10.0,64.0
70,69.0,120,90,11.0,64.0
71,71.0,120,90,11.0,64.0
72,73.0,84,90,11.0,64.0
73,83.0,84,60,10.0,64.0
74,74.0,60,150,11.0,64.0
75,81.0,132,150,10.0,64.0
76,79.0,48,90,10.0,64.0
77,71.0,72,150,11.0,64.0
78,78.0,84,90,10.0,64.0
79,78.0,84,60,10.0,64.0
80,67.0,60,150,11.0,64.0
81,76.0,132,150,10.0,64.0
82,69.0,72,150,11.0,64.0
83,74.0,48,90,10.0,64.0
84,73.0,120,90,10.0,64.0
85,74.0,0,390,1.0,64.0
86,62.0,72,390,2.0,64.0
87,62.0,0,90,12.0,64.0
88,62.0,0,90,13.0,64.0
89,62.0,0,90,3.0,64.0
90,74.0,0,390,0.0,64.0
91,62.0,0,390,5.0,64.0
92,74.0,0,90,10.0,64.0
93,50.0,0,90,14.0,64.0
94,50.0,0,390,4.0,64.0
95,74.0,120,90,11.0,64.0
96,50.0,0,390,6.0,64.0
97,66.0,0,90,13.0,64.0
98,66.0,0,90,3.0,64.0
99,54.0,120,90,14.0,64.0
100,66.0,0,90,12.0,64.0
101,78.0,0,90,10.0,64.0
102,78.0,0,90,11.0,64.0
103,76.0,48,90,11.0,64.0
104,64.0,0,90,3.0,64.0
105,64.0,0,90,13.0,64.0
106,76.0,0,90,10.0,64.0
107,64.0,0,90,12.0,64.0
108,52.0,0,90,14.0,64.0
109,74.0,0,90,11.0,64.0
110,50.0,0,90,14.0,64.0
111,62.0,0,90,3.0,64.0
112,62.0,120,90,13.0,64.0
113,74.0,0,90,10.0,64.0
114,62.0,0,90,12.0,64.0
115,49.0,0,90,14.0,64.0
116,61.0,0,90,13.0,64.0
117,74.0,72,150,0.0,64.0
118,61.0,0,90,3.0,64.0
119,62.0,0,150,2.0,64.0
120,50.0,0,150,4.0,64.0
121,73.0,0,90,10.0,64.0
122,61.0,48,90,12.0,64.0
123,74.0,0,150,1.0,64.0
124,73.0,0,90,11.0,64.0
125,62.0,0,150,5.0,64.0
126,74.0,0,90,10.0,64.0
127,62.0,0,90,13.0,64.0
128,62.0,0,90,12.0,64.0
129,74.0,0,90,11.0,64.0
130,62.0,0,90,3.0,64.0
131,50.0,120,90,14.0,64.0
132,50.0,72,150,4.0,64.0
133,71.0,0,90,11.0,64.0
134,74.0,0,150,1.0,64.0
135,71.0,0,90,10.0,64.0
136,50.0,48,90,6.0,64.0
137,74.0,0,150,0.0,64.0
138,62.0,0,150,5.0,64.0
139,62.0,0,150,2.0,64.0
140,59.0,0,90,13.0,64.0
141,47.0,0,90,14.0,64.0
142,59.0,0,90,12.0,64.0
143,59.0,0,90,3.0,64.0
144,73.0,0,90,11.0,64.0
145,49.0,0,90,14.0,64.0
146,61.0,120,90,3.0,64.0
147,73.0,0,90,10.0,64.0
148,61.0,0,90,12.0,64.0
149,61.0,0,90,13.0,64.0
150,50.0,0,90,6.0,64.0
151,57.0,0,90,12.0,64.0
152,45.0,0,90,14.0,64.0
153,57.0,0,90,13.0,64.0
154,57.0,0,90,3.0,64.0
155,50.0,72,390,6.0,64.0
156,66.0,0,390,2.0,64.0
157,66.0,0,390,5.0,64.0
158,78.0,0,390,1.0,64.0
159,78.0,0,390,0.0,64.0
160,69.0,120,90,10.0,64.0
161,69.0,0,90,11.0,64.0
162,54.0,0,390,4.0,64.0
163,62.0,0,90,12.0,64.0
164,50.0,0,90,14.0,64.0
165,74.0,120,90,10.0,64.0
166,62.0,0,90,13.0,64.0
167,74.0,0,90,11.0,64.0
168,62.0,0,90,3.0,64.0
169,61.0,0,90,12.0,64.0
170,73.0,0,90,11.0,64.0
171,49.0,0,90,14.0,64.0
172,61.0,48,90,13.0,64.0
173,61.0,0,90,3.0,64.0
174,73.0,0,90,10.0,64.0
175,71.0,0,90,11.0,64.0
176,71.0,120,90,10.0,64.0
177,47.0,0,90,14.0,64.0
178,59.0,0,90,13.0,64.0
179,59.0,0,90,3.0,64.0
180,59.0,0,90,12.0,64.0
181,78.0,0,150,0.0,64.0
182,57.0,48,90,12.0,64.0
183,57.0,0,90,13.0,64.0
184,66.0,0,150,5.0,64.0
185,45.0,0,90,14.0,64.0
186,66.0,0,150,2.0,64.0
187,69.0,0,90,10.0,64.0
188,57.0,0,90,3.0,64.0
189,69.0,0,90,11.0,64.0
190,54.0,0,150,4.0,64.0
191,78.0,72,150,1.0,64.0
192,71.0,120,90,11.0,64.0
193,71.0,0,90,10.0,64.0
194,59.0,0,90,12.0,64.0
195,59.0,0,90,13.0,64.0
196,59.0,0,90,3.0,64.0
197,47.0,0,90,14.0,64.0
198,78.0,0,150,0.0,64.0
199,50.0,0,90,6.0,64.0
200,66.0,0,150,5.0,64.0
201,54.0,0,150,4.0,64.0
202,55.0,0,90,12.0,64.0
203,55.0,0,90,3.0,64.0
204,55.0,48,90,13.0,64.0
205,67.0,0,90,11.0,64.0
206,43.0,0,90,14.0,64.0
207,66.0,72,150,2.0,64.0
208,67.0,0,90,10.0,64.0
209,78.0,0,150,1.0,64.0
210,45.0,0,90,14.0,64.0
211,50.0,0,90,6.0,64.0
212,57.0,0,90,13.0,64.0
213,69.0,120,90,11.0,64.0
214,69.0,0,90,10.0,64.0
215,57.0,0,90,12.0,64.0
216,57.0,0,90,3.0,64.0
217,54.0,0,90,3.0,64.0
218,66.0,120,90,11.0,64.0
219,42.0,0,90,14.0,64.0
220,69.0,0,390,5.0,64.0
221,81.0,0,390,0.0,64.0
222,66.0,0,90,10.0,64.0
223,81.0,0,390,1.0,64.0
224,50.0,72,390,6.0,64.0
225,54.0,0,90,12.0,64.0
226,69.0,0,390,2.0,64.0
227,57.0,0,390,4.0,64.0
228,54.0,0,90,13.0,64.0
229,59.0,0,90,12.0,64.0
230,59.0,0,90,13.0,64.0
231,59.0,0,90,3.0,64.0
232,71.0,0,90,11.0,64.0
233,71.0,0,90,10.0,64.0
234,47.0,120,90,14.0,64.0
235,45.0,0,90,14.0,64.0
236,57.0,0,90,13.0,64.0
237,57.0,0,90,3.0,64.0
238,69.0,0,90,11.0,64.0
239,69.0,48,90,10.0,64.0
240,57.0,0,90,12.0,64.0
241,67.0,0,90,10.0,64.0
242,55.0,0,90,3.0,64.0
243,43.0,0,90,14.0,64.0
244,67.0,0,90,11.0,64.0
245,55.0,0,90,13.0,64.0
246,55.0,120,90,12.0,64.0
247,57.0,0,150,4.0,64.0
248,54.0,0,90,13.0,64.0
249,54.0,48,90,3.0,64.0
250,81.0,0,150,0.0,64.0
251,66.0,0,90,10.0,64.0
252,81.0,0,150,1.0,64.0
253,42.0,0,90,14.0,64.0
254,54.0,0,90,12.0,64.0
255,69.0,0,150,2.0,64.0
256,69.0,72,150,5.0,64.0
257,66.0,0,90,11.0,64.0
258,67.0,0,90,11.0,64.0
259,55.0,0,90,13.0,64.0
260,67.0,120,90,10.0,64.0
261,55.0,0,90,3.0,64.0
262,43.0,0,90,14.0,64.0
263,55.0,0,90,12.0,64.0
264,52.0,48,90,12.0,64.0
265,81.0,72,150,1.0,64.0
266,81.0,0,150,0.0,64.0
267,69.0,0,150,2.0,64.0
268,57.0,0,150,4.0,64.0
269,52.0,0,90,3.0,64.0
270,40.0,0,90,14.0,64.0
271,50.0,0,90,6.0,64.0
272,69.0,0,150,5.0,64.0
273,64.0,0,90,11.0,64.0
274,64.0,0,90,10.0,64.0
275,52.0,0,90,13.0,64.0
276,66.0,0,90,11.0,64.0
277,54.0,120,90,3.0,64.0
278,66.0,0,90,10.0,64.0
279,54.0,0,90,13.0,64.0
280,50.0,0,90,6.0,64.0
281,54.0,0,90,12.0,64.0
282,42.0,0,90,14.0,64.0
283,74.0,0,180,2.0,64.0
284,50.0,0,180,6.0,64.0
285,50.0,0,180,4.0,64.0
286,86.0,0,180,1.0,64.0
287,81.0,0,180,1.0,64.0
288,62.0,0,180,10.0,64.0
289,38.0,0,180,14.0,64.0
290,62.0,96,90,11.0,64.0
291,62.0,0,180,5.0,64.0
292,69.0,0,180,2.0,64.0
293,74.0,0,180,5.0,64.0
294,81.0,0,180,0.0,64.0
295,50.0,24,180,13.0,64.0
296,86.0,0,180,0.0,64.0
297,50.0,0,180,3.0,64.0
298,50.0,0,180,12.0,64.0
299,62.0,0,180,4.0,64.0
300,61.0,120,90,11.0,64.0
301,62.0,120,90,11.0,64.0
302,64.0,120,90,11.0,64.0
303,66.0,120,90,11.0,64.0
304,64.0,120,90,11.0,64.0
305,81.0,96,480,10.0,64.0
306,66.0,120,90,11.0,64.0
307,64.0,120,90,11.0,64.0
308,62.0,120,90,11.0,64.0
309,61.0,24,90,11.0,64.0
310,78.0,24,180,10.0,64.0
311,62.0,96,90,11.0,64.0
312,64.0,120,90,11.0,64.0
313,66.0,120,90,11.0,64.0
314,64.0,120,90,11.0,64.0
315,66.0,120,90,11.0,64.0
316,74.0,96,480,10.0,64.0
317,62.0,120,90,11.0,64.0
318,64.0,120,90,11.0,64.0
319,63.0,24,90,11.0,64.0
320,64.0,96,90,11.0,64.0
321,73.0,24,180,10.0,64.0
322,66.0,120,90,11.0,64.0
323,67.0,120,90,11.0,64.0
324,66.0,120,90,11.0,64.0
325,81.0,96,480,10.0,64.0
326,67.0,120,90,11.0,64.0
327,66.0,120,90,11.0,64.0
328,64.0,120,90,11.0,64.0
329,63.0,24,90,11.0,64.0
330,79.0,24,180,10.0,64.0
331,64.0,96,90,11.0,64.0
332,66.0,120,90,11.0,64.0
333,67.0,120,90,11.0,64.0
334,66.0,120,90,11.0,64.0
335,76.0,96,480,10.0,64.0
336,67.0,120,90,11.0,64.0
337,64.0,120,90,11.0,64.0
338,66.0,120,90,11.0,64.0
339,64.0,24,90,11.0,64.0
340,66.0,96,90,11.0,64.0
341,74.0,24,180,10.0,64.0
342,67.0,120,90,11.0,64.0
343,69.0,120,90,11.0,64.0
344,67.0,120,90,11.0,64.0
345,86.0,96,480,10.0,64.0
346,69.0,120,90,11.0,64.0
347,67.0,120,90,11.0,64.0
348,66.0,120,90,11.0,64.0
349,67.0,24,90,11.0,64.0
350,69.0,96,90,11.0,64.0
351,81.0,24,180,10.0,64.0
352,71.0,120,90,11.0,64.0
353,72.0,120,90,11.0,64.0
354,71.0,120,90,11.0,64.0
355,72.0,120,90,11.0,64.0
356,78.0,96,240,10.0,64.0
357,69.0,24,90,11.0,64.0
358,71.0,60,90,11.0,64.0
359,79.0,60,150,10.0,64.0
360,69.0,84,90,11.0,64.0
361,67.0,24,90,11.0,64.0
362,83.0,36,60,10.0,64.0
363,81.0,60,60,10.0,64.0
364,83.0,36,60,10.0,64.0
365,66.0,12,90,11.0,64.0
366,81.0,108,40,10.0,64.0
367,83.0,24,180,10.0,64.0
368,67.0,96,90,11.0,64.0
369,69.0,120,90,11.0,64.0
370,71.0,120,90,11.0,64.0
371,73.0,84,90,11.0,64.0
372,83.0,96,60,10.0,64.0
373,74.0,73,150,11.0,64.0
374,81.0,107,180,10.0,64.0
375,79.0,60,90,10.0,64.0
376,71.0,60,150,11.0,64.0
377,78.0,84,90,10.0,64.0
378,78.0,96,60,10.0,64.0
379,67.0,73,150,11.0,64.0
380,76.0,107,180,10.0,64.0
381,74.0,60,90,10.0,64.0
382,69.0,60,150,11.0,64.0
383,73.0,144,90,10.0,64.0
384,66.0,60,150,11.0,64.0
385,76.0,36,120,10.0,64.0
386,74.0,144,90,10.0,64.0
387,61.0,60,150,11.0,64.0
388,78.0,36,120,10.0,64.0
389,76.0,144,90,10.0,64.0
390,62.0,84,150,11.0,64.0
391,79.0,36,120,10.0,64.0
392,78.0,120,120,10.0,64.0
393,81.0,36,120,10.0,64.0
394,64.0,60,150,11.0,64.0
395,79.0,84,90,10.0,64.0
396,66.0,73,150,11.0,64.0
397,83.0,96,60,10.0,64.0
398,81.0,107,180,10.0,64.0
399,79.0,60,90,10.0,64.0
400,71.0,60,150,11.0,64.0
401,78.0,84,90,10.0,64.0
402,78.0,96,60,10.0,64.0
403,67.0,73,150,11.0,64.0
404,76.0,107,180,10.0,64.0
405,74.0,60,90,10.0,64.0
406,69.0,60,150,11.0,64.0
407,73.0,120,90,10.0,64.0
408,74.0,120,90,10.0,64.0
409,50.0,0,390,6.0,64.0
410,74.0,0,90,11.0,64.0
411,62.0,0,90,3.0,64.0
412,62.0,0,90,12.0,64.0
413,50.0,0,90,14.0,64.0
414,50.0,72,390,4.0,64.0
415,62.0,0,390,5.0,64.0
416,74.0,0,390,1.0,64.0
417,74.0,0,390,0.0,64.0
418,62.0,0,390,2.0,64.0
419,62.0,0,90,13.0,64.0
420,66.0,120,90,12.0,64.0
421,78.0,0,90,11.0,64.0
422,54.0,0,90,14.0,64.0
423,66.0,0,90,3.0,64.0
424,78.0,0,90,10.0,64.0
425,66.0,0,90,13.0,64.0
426,64.0,0,90,12.0,64.0
427,76.0,48,90,11.0,64.0
428,52.0,0,90,14.0,64.0
429,76.0,0,90,10.0,64.0
430,64.0,0,90,13.0,64.0
431,64.0,0,90,3.0,64.0
432,62.0,0,90,13.0,64.0
433,74.0,0,90,10.0,64.0
434,50.0,0,90,14.0,64.0
435,74.0,0,90,11.0,64.0
436,62.0,120,90,3.0,64.0
437,62.0,0,90,12.0,64.0
438,61.0,0,90,13.0,64.0
439,74.0,0,150,1.0,64.0
440,61.0,0,90,3.0,64.0
441,62.0,0,150,2.0,64.0
442,61.0,0,90,12.0,64.0
443,73.0,0,90,11.0,64.0
444,73.0,0,90,10.0,64.0
445,74.0,0,150,0.0,64.0
446,49.0,48,90,14.0,64.0
447,62.0,72,150,5.0,64.0
448,50.0,0,150,4.0,64.0
449,50.0,0,90,14.0,64.0
450,62.0,0,90,13.0,64.0
451,62.0,0,90,3.0,64.0
452,62.0,0,90,12.0,64.0
453,74.0,120,90,11.0,64.0
454,74.0,0,90,10.0,64.0
455,59.0,0,90,3.0,64.0
456,74.0,0,150,0.0,64.0
457,71.0,0,90,10.0,64.0
458,47.0,0,90,14.0,64.0
459,50.0,48,90,6.0,64.0
460,62.0,0,150,5.0,64.0
461,50.0,72,150,4.0,64.0
462,59.0,0,90,12.0,64.0
463,74.0,0,150,1.0,64.0
464,71.0,0,90,11.0,64.0
465,59.0,0,90,13.0,64.0
466,62.0,0,150,2.0,64.0
467,73.0,120,90,10.0,64.0
468,49.0,0,90,14.0,64.0
469,61.0,0,90,13.0,64.0
470,73.0,0,90,11.0,64.0
471,61.0,0,90,3.0,64.0
472,50.0,0,90,6.0,64.0
473,61.0,0,90,12.0,64.0
474,78.0,0,390,1.0,64.0
475,66.0,0,390,2.0,64.0
476,69.0,0,90,11.0,64.0
477,57.0,0,90,3.0,64.0
478,66.0,0,390,5.0,64.0
479,78.0,0,390,0.0,64.0
480,57.0,0,90,13.0,64.0
481,69.0,120,90,10.0,64.0
482,57.0,0,90,12.0,64.0
483,45.0,0,90,14.0,64.0
484,54.0,0,390,4.0,64.0
485,50.0,72,390,6.0,64.0
486,74.0,120,90,10.0,64.0
487,62.0,0,90,3.0,64.0
488,50.0,0,90,14.0,64.0
489,62.0,0,90,12.0,64.0
490,62.0,0,90,13.0,64.0
491,74.0,0,90,11.0,64.0
492,73.0,0,90,10.0,64.0
493,49.0,48,90,14.0,64.0
494,61.0,0,90,3.0,64.0
495,61.0,0,90,12.0,64.0
496,73.0,0,90,11.0,64.0
497,61.0,0,90,13.0,64.0
498,59.0,0,90,12.0,64.0
499,71.0,120,90,11.0,64.0
500,59.0,0,90,3.0,64.0
501,47.0,0,90,14.0,64.0
502,59.0,0,90,13.0,64.0
503,71.0,0,90,10.0,64.0
504,57.0,0,90,3.0,64.0
505,45.0,0,90,14.0,64.0
506,57.0,0,90,13.0,64.0
507,54.0,0,150,4.0,64.0
508,66.0,0,150,5.0,64.0
509,69.0,0,90,10.0,64.0
510,78.0,0,150,0.0,64.0
511,57.0,48,90,12.0,64.0
512,78.0,0,150,1.0,64.0
513,69.0,0,90,11.0,64.0
514,66.0,72,150,2.0,64.0
515,71.0,0,90,11.0,64.0
516,59.0,0,90,3.0,64.0
517,59.0,0,90,12.0,64.0
518,59.0,120,90,13.0,64.0
519,71.0,0,90,10.0,64.0
520,47.0,0,90,14.0,64.0
521,55.0,0,90,3.0,64.0
522,50.0,0,90,6.0,64.0
523,54.0,0,150,4.0,64.0
524,66.0,0,150,5.0,64.0
525,78.0,72,150,1.0,64.0
526,43.0,0,90,14.0,64.0
527,67.0,0,90,11.0,64.0
528,67.0,0,90,10.0,64.0
529,55.0,0,90,12.0,64.0
530,66.0,0,150,2.0,64.0
531,55.0,48,90,13.0,64.0
532,78.0,0,150,0.0,64.0
533,69.0,0,90,10.0,64.0
534,50.0,120,90,6.0,64.0
535,57.0,0,90,3.0,64.0
536,57.0,0,90,12.0,64.0
537,57.0,0,90,13.0,64.0
538,69.0,0,90,11.0,64.0
539,45.0,0,90,14.0,64.0
540,69.0,0,390,5.0,64.0
541,66.0,0,90,11.0,64.0
542,66.0,0,90,10.0,64.0
543,54.0,0,90,12.0,64.0
544,50.0,0,390,6.0,64.0
545,54.0,120,90,13.0,64.0
546,57.0,72,390,4.0,64.0
547,54.0,0,90,3.0,64.0
548,69.0,0,390,2.0,64.0
549,81.0,0,390,1.0,64.0
550,81.0,0,390,0.0,64.0
551,42.0,0,90,14.0,64.0
552,71.0,0,90,10.0,64.0
553,59.0,0,90,13.0,64.0
554,59.0,120,90,12.0,64.0
555,71.0,0,90,11.0,64.0
556,47.0,0,90,14.0,64.0
557,59.0,0,90,3.0,64.0
558,57.0,0,90,3.0,64.0
559,45.0,48,90,14.0,64.0
560,57.0,0,90,13.0,64.0
561,57.0,0,90,12.0,64.0
562,69.0,0,90,11.0,64.0
563,69.0,0,90,10.0,64.0
564,55.0,0,90,12.0,64.0
565,55.0,120,90,13.0,64.0
566,67.0,0,90,10.0,64.0
567,67.0,0,90,11.0,64.0
568,55.0,0,90,3.0,64.0
569,43.0,0,90,14.0,64.0
570,69.0,0,150,2.0,64.0
571,54.0,0,90,3.0,64.0
572,66.0,0,90,10.0,64.0
573,54.0,0,90,13.0,64.0
574,57.0,72,150,4.0,64.0
575,42.0,0,90,14.0,64.0
576,81.0,0,150,1.0,64.0
577,81.0,0,150,0.0,64.0
578,69.0,0,150,5.0,64.0
579,54.0,48,90,12.0,64.0
580,66.0,0,90,11.0,64.0
581,55.0,0,90,13.0,64.0
582,67.0,120,90,11.0,64.0
583,55.0,0,90,3.0,64.0
584,43.0,0,90,14.0,64.0
585,55.0,0,90,12.0,64.0
586,67.0,0,90,10.0,64.0
587,40.0,0,90,14.0,64.0
588,69.0,0,150,5.0,64.0
589,81.0,0,150,1.0,64.0
590,57.0,0,150,4.0,64.0
591,50.0,0,90,6.0,64.0
592,52.0,0,90,3.0,64.0
593,69.0,0,150,2.0,64.0
594,64.0,0,90,11.0,64.0
595,64.0,0,90,10.0,64.0
596,52.0,48,90,13.0,64.0
597,81.0,72,150,0.0,64.0
598,52.0,0,90,12.0,64.0
599,54.0,0,90,3.0,64.0
600,66.0,0,90,11.0,64.0
601,42.0,0,90,14.0,64.0
602,66.0,0,90,10.0,64.0
603,50.0,0,90,6.0,64.0
604,54.0,0,90,13.0,64.0
605,54.0,120,90,12.0,64.0
606,38.0,48,180,14.0,64.0
607,81.0,0,1860,0.0,64.0
608,86.0,0,1860,0.0,64.0
609,50.0,0,180,3.0,64.0
610,50.0,12,390,6.0,64.0
611,62.0,12,150,10.0,64.0
612,69.0,60,90,11.0,64.0
613,62.0,0,330,4.0,64.0
614,86.0,0,1860,1.0,64.0
615,78.0,6,1860,1.0,64.0
616,69.0,30,1740,2.0,64.0
617,74.0,0,1740,2.0,64.0
618,50.0,0,90,12.0,64.0
619,62.0,0,360,5.0,64.0
620,74.0,24,360,5.0,64.0
621,50.0,0,180,13.0,64.0
622,62.0,0,90,11.0,64.0
623,50.0,0,330,4.0,64.0
624,66.0,0,90,12.0,64.0
625,69.0,120,90,11.0,64.0
626,62.0,0,90,11.0,64.0
627,62.0,0,90,11.0,64.0
628,86.0,12,150,10.0,64.0
629,62.0,48,180,13.0,64.0
630,50.0,0,180,14.0,64.0
631,69.0,0,90,11.0,64.0
632,66.0,24,90,12.0,64.0
633,62.0,0,180,3.0,64.0
634,66.0,120,90,12.0,64.0
635,69.0,0,90,11.0,64.0
636,62.0,0,90,11.0,64.0
637,62.0,0,90,11.0,64.0
638,66.0,0,180,4.0,64.0
639,66.0,72,90,12.0,64.0
640,69.0,0,90,11.0,64.0
641,50.0,0,180,14.0,64.0
642,62.0,48,180,3.0,64.0
643,62.0,0,180,13.0,64.0
644,62.0,0,180,4.0,64.0
645,62.0,102,90,11.0,64.0
646,66.0,0,90,12.0,64.0
647,69.0,0,90,11.0,64.0
648,66.0,0,90,12.0,64.0
649,50.0,0,180,14.0,64.0
650,69.0,0,90,11.0,64.0
651,62.0,72,90,11.0,64.0
652,81.0,18,90,10.0,64.0
653,66.0,0,180,4.0,64.0
654,62.0,30,180,4.0,64.0
655,62.0,0,180,3.0,64.0
656,62.0,0,180,13.0,64.0
657,66.0,0,90,12.0,64.0
658,69.0,120,90,11.0,64.0
659,78.0,18,90,10.0,64.0
660,62.0,0,90,11.0,64.0
661,62.0,0,330,4.0,64.0
662,66.0,0,330,4.0,64.0
663,69.0,60,90,11.0,64.0
664,50.0,48,180,13.0,64.0
665,62.0,0,90,11.0,64.0
666,50.0,0,180,3.0,64.0
667,74.0,12,150,10.0,64.0
668,66.0,0,90,12.0,64.0
669,38.0,0,180,14.0,64.0
670,62.0,0,90,11.0,64.0
671,69.0,102,90,11.0,64.0
672,66.0,0,90,12.0,64.0
673,78.0,18,90,10.0,64.0
674,50.0,30,180,14.0,64.0
675,62.0,0,90,11.0,64.0
676,62.0,0,180,13.0,64.0
677,62.0,0,180,3.0,64.0
678,66.0,72,90,12.0,64.0
679,69.0,0,90,11.0,64.0
680,62.0,0,90,11.0,64.0
681,69.0,120,90,11.0,64.0
682,66.0,0,90,12.0,64.0
683,74.0,18,90,10.0,64.0
684,62.0,0,90,11.0,64.0
685,62.0,0,180,3.0,64.0
686,50.0,0,180,14.0,64.0
687,69.0,12,150,10.0,64.0
688,66.0,0,90,12.0,64.0
689,69.0,60,90,11.0,64.0
690,62.0,48,180,13.0,64.0
691,66.0,0,90,12.0,64.0
692,62.0,0,90,11.0,64.0
693,69.0,72,90,11.0,64.0
694,62.0,0,180,13.0,64.0
695,62.0,0,180,4.0,64.0
696,66.0,0,180,4.0,64.0
697,62.0,72,90,11.0,64.0
698,62.0,6,90,5.0,64.0
699,50.0,0,90,6.0,64.0
700,74.0,0,90,5.0,64.0
701,69.0,0,90,11.0,64.0
702,62.0,24,180,3.0,64.0
703,66.0,0,90,12.0,64.0
704,50.0,0,180,14.0,64.0
705,66.0,12,90,10.0,64.0
706,66.0,0,90,12.0,64.0
707,62.0,0,90,11.0,64.0
708,50.0,120,90,6.0,64.0
709,74.0,6,90,5.0,64.0
710,62.0,0,90,5.0,64.0
711,69.0,0,90,11.0,64.0
712,62.0,12,90,10.0,64.0
713,83.0,96,960,0.0,64.0
714,50.0,48,180,3.0,64.0
715,76.0,0,3780,1.0,64.0
716,83.0,0,960,1.0,64.0
717,64.0,0,90,12.0,64.0
718,62.0,0,330,4.0,64.0
719,62.0,36,540,5.0,64.0
720,55.0,12,150,10.0,64.0
721,74.0,0,540,5.0,64.0
722,50.0,0,570,6.0,64.0
723,67.0,30,3660,2.0,64.0
724,64.0,0,330,4.0,64.0
725,79.0,6,3780,0.0,64.0
726,50.0,0,180,13.0,64.0
727,38.0,0,180,14.0,64.0
728,67.0,60,90,11.0,64.0
729,71.0,0,90,11.0,64.0
730,71.0,0,960,2.0,64.0
731,64.0,120,90,12.0,64.0
732,67.0,0,90,11.0,64.0
733,71.0,0,90,11.0,64.0
734,64.0,0,90,12.0,64.0
735,83.0,12,150,10.0,64.0
736,62.0,48,180,13.0,64.0
737,67.0,60,90,11.0,64.0
738,62.0,0,180,3.0,64.0
739,71.0,0,90,11.0,64.0
740,50.0,0,180,14.0,64.0
741,64.0,84,90,12.0,64.0
742,67.0,0,90,11.0,64.0
743,71.0,0,90,11.0,64.0
744,62.0,0,180,4.0,64.0
745,64.0,0,180,4.0,64.0
746,71.0,0,90,11.0,64.0
747,62.0,48,180,13.0,64.0
748,64.0,72,90,12.0,64.0
749,62.0,0,180,3.0,64.0
750,67.0,0,90,11.0,64.0
751,50.0,0,180,14.0,64.0
752,64.0,0,90,12.0,64.0
753,67.0,0,90,11.0,64.0
754,71.0,114,90,11.0,64.0
755,64.0,0,180,4.0,64.0
756,50.0,0,180,14.0,64.0
757,62.0,42,180,13.0,64.0
758,71.0,0,90,11.0,64.0
759,62.0,0,180,4.0,64.0
760,67.0,0,90,11.0,64.0
761,50.0,0,90,6.0,64.0
762,71.0,12,150,10.0,64.0
763,74.0,6,90,5.0,64.0
764,62.0,0,90,5.0,64.0
765,62.0,0,180,3.0,64.0
766,64.0,60,90,12.0,64.0
767,62.0,0,90,5.0,64.0
768,74.0,6,90,5.0,64.0
769,71.0,0,90,11.0,64.0
770,67.0,24,90,11.0,64.0
771,64.0,0,90,12.0,64.0
772,50.0,0,90,6.0,64.0
773,67.0,0,90,11.0,64.0
774,50.0,0,180,3.0,64.0
775,50.0,48,180,13.0,64.0
776,70.0,60,90,11.0,64.0
777,62.0,0,360,5.0,64.0
778,38.0,0,180,14.0,64.0
779,70.0,48,780,2.0,64.0
780,50.0,12,390,6.0,64.0
781,64.0,0,90,12.0,64.0
782,74.0,24,360,5.0,64.0
783,62.0,0,330,4.0,64.0
784,64.0,0,330,4.0,64.0
785,64.0,12,150,10.0,64.0
786,82.0,24,900,1.0,64.0
787,82.0,0,900,0.0,64.0
788,70.0,0,90,11.0,64.0
789,67.0,120,90,11.0,64.0
790,64.0,0,90,12.0,64.0
791,50.0,0,180,14.0,64.0
792,62.0,0,180,13.0,64.0
793,62.0,48,180,3.0,64.0
794,79.0,12,150,10.0,64.0
795,64.0,0,90,12.0,64.0
796,67.0,0,90,11.0,64.0
797,70.0,24,90,11.0,64.0
798,64.0,0,90,12.0,64.0
799,70.0,120,90,11.0,64.0
800,67.0,0,90,11.0,64.0
801,62.0,48,180,3.0,64.0
802,74.0,24,360,5.0,64.0
803,62.0,0,180,13.0,64.0
804,70.0,0,90,11.0,64.0
805,50.0,0,180,14.0,64.0
806,50.0,12,390,6.0,64.0
807,67.0,0,90,11.0,64.0
808,62.0,0,360,5.0,64.0
809,64.0,0,180,4.0,64.0
810,64.0,72,90,12.0,64.0
811,62.0,0,180,4.0,64.0
812,64.0,0,90,12.0,64.0
813,67.0,0,90,11.0,64.0
814,70.0,72,90,11.0,64.0
815,58.0,12,150,10.0,64.0
816,62.0,0,180,4.0,64.0
817,62.0,0,180,3.0,64.0
818,70.0,0,90,11.0,64.0
819,62.0,24,180,13.0,64.0
820,64.0,0,90,12.0,64.0
821,67.0,24,90,11.0,64.0
822,50.0,0,180,14.0,64.0
823,64.0,0,180,4.0,64.0
824,70.0,0,90,11.0,64.0
825,67.0,120,90,11.0,64.0
826,64.0,0,90,12.0,64.0
827,57.0,0,360,5.0,64.0
828,49.0,0,180,13.0,64.0
829,49.0,48,180,3.0,64.0
830,37.0,0,180,14.0,64.0
831,67.0,60,90,11.0,64.0
832,69.0,0,90,11.0,64.0
833,88.0,0,1860,0.0,64.0
834,69.0,24,360,5.0,64.0
835,64.0,0,330,4.0,64.0
836,81.0,0,3450,1.0,64.0
837,57.0,0,330,4.0,64.0
838,64.0,0,90,12.0,64.0
839,57.0,0,90,12.0,64.0
840,45.0,12,390,6.0,64.0
841,69.0,0,3450,2.0,64.0
842,57.0,12,150,10.0,64.0
843,64.0,0,90,12.0,64.0
844,67.0,0,90,11.0,64.0
845,69.0,0,90,11.0,64.0
846,57.0,120,90,12.0,64.0
847,61.0,48,180,3.0,64.0
848,64.0,0,90,12.0,64.0
849,57.0,24,90,12.0,64.0
850,49.0,0,180,14.0,64.0
851,88.0,12,150,10.0,64.0
852,61.0,0,180,13.0,64.0
853,69.0,0,90,11.0,64.0
854,67.0,0,90,11.0,64.0
855,64.0,0,90,12.0,64.0
856,57.0,0,90,12.0,64.0
857,69.0,0,90,11.0,64.0
858,67.0,120,90,11.0,64.0
859,69.0,0,90,11.0,64.0
860,67.0,0,90,11.0,64.0
861,61.0,0,180,13.0,64.0
862,57.0,72,90,12.0,64.0
863,61.0,0,180,3.0,64.0
864,64.0,0,90,12.0,64.0
865,64.0,0,180,4.0,64.0
866,57.0,0,180,4.0,64.0
867,49.0,48,180,14.0,64.0
868,64.0,102,90,12.0,64.0
869,67.0,0,90,11.0,64.0
870,69.0,0,90,11.0,64.0
871,57.0,0,90,12.0,64.0
872,61.0,0,180,13.0,64.0
873,69.0,0,90,11.0,64.0
874,67.0,0,90,11.0,64.0
875,61.0,30,180,3.0,64.0
876,64.0,0,180,4.0,64.0
877,57.0,0,180,4.0,64.0
878,79.0,18,90,10.0,64.0
879,64.0,72,90,12.0,64.0
880,57.0,0,90,12.0,64.0
881,49.0,0,180,14.0,64.0
882,69.0,0,90,11.0,64.0
883,57.0,0,90,12.0,64.0
884,64.0,120,90,12.0,64.0
885,67.0,0,90,11.0,64.0
886,76.0,18,90,10.0,64.0
887,49.0,0,180,3.0,64.0
888,57.0,0,330,4.0,64.0
889,64.0,0,90,12.0,64.0
890,64.0,0,330,4.0,64.0
891,37.0,0,180,14.0,64.0
892,69.0,0,90,11.0,64.0
893,67.0,60,90,11.0,64.0
894,73.0,12,150,10.0,64.0
895,57.0,0,90,12.0,64.0
896,49.0,48,180,13.0,64.0
897,69.0,102,90,11.0,64.0
898,67.0,0,90,11.0,64.0
899,64.0,0,90,12.0,64.0
900,57.0,0,90,12.0,64.0
901,49.0,0,180,14.0,64.0
902,67.0,72,90,11.0,64.0
903,69.0,0,90,11.0,64.0
904,57.0,0,90,12.0,64.0
905,64.0,0,90,12.0,64.0
906,76.0,18,90,10.0,64.0
907,61.0,0,180,13.0,64.0
908,61.0,30,180,3.0,64.0
909,67.0,0,90,11.0,64.0
910,57.0,120,90,12.0,64.0
911,64.0,0,90,12.0,64.0
912,73.0,18,90,10.0,64.0
913,69.0,0,90,11.0,64.0
914,61.0,48,180,13.0,64.0
915,69.0,12,150,10.0,64.0
916,61.0,0,180,3.0,64.0
917,49.0,0,180,14.0,64.0
918,69.0,0,90,11.0,64.0
919,67.0,60,90,11.0,64.0
920,64.0,0,90,12.0,64.0
921,57.0,0,90,12.0,64.0
922,57.0,0,90,12.0,64.0
923,64.0,0,90,12.0,64.0
924,69.0,72,90,11.0,64.0
925,67.0,0,90,11.0,64.0
926,67.0,72,90,11.0,64.0
927,67.0,12,90,10.0,64.0
928,61.0,24,180,13.0,64.0
929,57.0,6,90,5.0,64.0
930,69.0,0,90,5.0,64.0
931,45.0,0,90,6.0,64.0
932,61.0,0,180,3.0,64.0
933,49.0,0,180,14.0,64.0
934,57.0,0,180,4.0,64.0
935,64.0,0,180,4.0,64.0
936,64.0,0,90,12.0,64.0
937,57.0,0,90,12.0,64.0
938,69.0,0,90,11.0,64.0
939,67.0,0,90,11.0,64.0
940,57.0,0,90,5.0,64.0
941,64.0,0,90,12.0,64.0
942,69.0,0,90,11.0,64.0
943,57.0,0,90,12.0,64.0
944,69.0,6,90,5.0,64.0
945,64.0,12,90,10.0,64.0
946,45.0,120,90,6.0,64.0
947,50.0,0,330,4.0,64.0
948,66.0,60,90,11.0,64.0
949,69.0,0,90,11.0,64.0
950,62.0,60,330,4.0,64.0
951,69.0,36,540,5.0,64.0
952,38.0,0,180,14.0,64.0
953,66.0,12,150,10.0,64.0
954,62.0,0,90,12.0,64.0
955,66.0,0,1530,2.0,64.0
956,81.0,0,1350,0.0,64.0
957,78.0,0,1350,0.0,64.0
958,78.0,0,1530,1.0,64.0
959,57.0,0,90,12.0,64.0
960,62.0,0,540,5.0,64.0
961,50.0,24,180,13.0,64.0
962,50.0,24,180,3.0,64.0
963,50.0,0,570,6.0,64.0
964,66.0,120,90,11.0,64.0
965,57.0,0,90,12.0,64.0
966,69.0,0,90,11.0,64.0
967,62.0,0,90,12.0,64.0
968,62.0,0,180,13.0,64.0
969,62.0,0,90,12.0,64.0
970,57.0,0,90,12.0,64.0
971,81.0,12,150,10.0,64.0
972,69.0,0,90,11.0,64.0
973,66.0,0,90,11.0,64.0
974,50.0,24,180,14.0,64.0
975,62.0,24,180,3.0,64.0
976,62.0,84,90,12.0,64.0
977,69.0,0,90,11.0,64.0
978,66.0,0,90,11.0,64.0
979,57.0,0,90,12.0,64.0
980,62.0,72,90,12.0,64.0
981,50.0,0,180,14.0,64.0
982,57.0,0,90,12.0,64.0
983,62.0,24,180,3.0,64.0
984,62.0,0,180,13.0,64.0
985,50.0,24,180,4.0,64.0
986,62.0,0,180,4.0,64.0
987,69.0,0,90,11.0,64.0
988,66.0,0,90,11.0,64.0
989,69.0,0,90,11.0,64.0
990,62.0,0,90,12.0,64.0
991,57.0,0,90,12.0,64.0
992,66.0,114,90,11.0,64.0
993,66.0,12,150,10.0,64.0
994,62.0,0,180,13.0,64.0
995,62.0,18,180,3.0,64.0
996,62.0,0,180,4.0,64.0
997,50.0,24,180,4.0,64.0
998,57.0,0,90,12.0,64.0
999,50.0,0,180,14.0,64.0
1000,62.0,6,90,5.0,64.0
1001,74.0,0,90,5.0,64.0
1002,69.0,60,90,11.0,64.0
1003,66.0,0,90,11.0,64.0
1004,50.0,0,90,6.0,64.0
1005,62.0,0,90,12.0,64.0
1006,69.0,0,90,11.0,64.0
1007,50.0,120,90,6.0,64.0
1008,62.0,0,90,12.0,64.0
1009,57.0,0,90,12.0,64.0
1010,74.0,6,90,5.0,64.0
1011,62.0,0,90,5.0,64.0
1012,66.0,0,90,11.0,64.0
1013,62.0,0,390,5.0,64.0
1014,50.0,0,150,3.0,64.0
1015,50.0,0,390,6.0,64.0
1016,50.0,12,390,4.0,64.0
1017,62.0,0,390,4.0,64.0
1018,50.0,0,150,13.0,64.0
1019,69.0,60,90,11.0,64.0
1020,74.0,0,390,5.0,64.0
1021,57.0,0,90,12.0,64.0
1022,62.0,0,90,12.0,64.0
1023,38.0,0,150,14.0,64.0
1024,62.0,60,150,10.0,64.0
1025,66.0,0,90,11.0,64.0
1026,57.0,0,90,12.0,64.0
1027,62.0,0,90,12.0,64.0
1028,66.0,120,90,11.0,64.0
1029,69.0,0,90,11.0,64.0
1030,62.0,0,90,12.0,64.0
1031,57.0,48,90,12.0,64.0
1032,66.0,0,90,11.0,64.0
1033,62.0,60,150,13.0,64.0
1034,86.0,0,150,10.0,64.0
1035,50.0,0,150,14.0,64.0
1036,69.0,0,90,11.0,64.0
1037,62.0,0,150,3.0,64.0
1038,57.0,120,90,12.0,64.0
1039,62.0,0,90,12.0,64.0
1040,69.0,0,90,11.0,64.0
1041,66.0,0,90,11.0,64.0
1042,62.0,0,150,4.0,64.0
1043,74.0,0,390,5.0,64.0
1044,62.0,12,390,5.0,64.0
1045,50.0,0,150,4.0,64.0
1046,50.0,0,150,14.0,64.0
1047,62.0,0,150,13.0,64.0
1048,62.0,60,150,3.0,64.0
1049,81.0,0,390,0.0,64.0
1050,66.0,60,90,11.0,64.0
1051,69.0,0,90,11.0,64.0
1052,57.0,0,90,12.0,64.0
1053,62.0,0,90,12.0,64.0
1054,57.0,102,90,12.0,64.0
1055,62.0,0,90,12.0,64.0
1056,66.0,0,90,11.0,64.0
1057,69.0,0,90,11.0,64.0
1058,69.0,42,150,2.0,64.0
1059,86.0,18,90,10.0,64.0
1060,65.0,0,90,12.0,64.0
1061,62.0,0,150,4.0,64.0
1062,53.0,0,150,13.0,64.0
1063,74.0,0,150,1.0,64.0
1064,41.0,0,150,14.0,64.0
1065,57.0,0,150,4.0,64.0
1066,81.0,48,90,11.0,64.0
1067,53.0,0,150,3.0,64.0
1068,86.0,18,90,10.0,64.0
1069,81.0,0,90,11.0,64.0
1070,65.0,120,90,12.0,64.0
1071,68.0,0,1140,2.0,64.0
1072,52.0,0,150,13.0,64.0
1073,86.0,0,1140,0.0,64.0
1074,80.0,0,1140,0.0,64.0
1075,64.0,0,90,12.0,64.0
1076,71.0,0,1140,2.0,64.0
1077,76.0,0,3780,5.0,64.0
1078,64.0,48,570,4.0,64.0
1079,52.0,0,150,3.0,64.0
1080,86.0,60,150,10.0,64.0
1081,40.0,0,150,14.0,64.0
1082,80.0,0,90,11.0,64.0
1083,83.0,0,1140,1.0,64.0
1084,74.0,24,1140,1.0,64.0
1085,71.0,60,90,11.0,64.0
1086,80.0,0,90,11.0,64.0
1087,64.0,120,90,12.0,64.0
1088,71.0,0,90,11.0,64.0
1089,64.0,60,90,12.0,64.0
1090,44.0,0,150,14.0,64.0
1091,56.0,60,150,3.0,64.0
1092,71.0,12,390,10.0,64.0
1093,71.0,0,90,11.0,64.0
1094,80.0,0,90,11.0,64.0
1095,56.0,0,150,13.0,64.0
1096,71.0,0,90,11.0,64.0
1097,64.0,120,90,12.0,64.0
1098,80.0,0,90,11.0,64.0
1099,47.0,60,150,14.0,64.0
1100,59.0,0,150,3.0,64.0
1101,64.0,0,90,12.0,64.0
1102,59.0,0,150,13.0,64.0
1103,71.0,0,90,11.0,64.0
1104,80.0,0,90,11.0,64.0
1105,80.0,0,90,11.0,64.0
1106,71.0,102,90,11.0,64.0
1107,64.0,0,90,12.0,64.0
1108,80.0,0,90,11.0,64.0
1109,71.0,60,90,11.0,64.0
1110,64.0,18,90,4.0,64.0
1111,86.0,0,420,10.0,64.0
1112,56.0,0,150,3.0,64.0
1113,56.0,42,150,13.0,64.0
1114,44.0,0,150,14.0,64.0
1115,64.0,0,90,12.0,64.0
1116,71.0,0,90,11.0,64.0
1117,80.0,0,90,11.0,64.0
1118,64.0,120,90,12.0,64.0
1119,64.0,18,90,4.0,64.0
1120,40.0,0,150,14.0,64.0
1121,52.0,0,150,3.0,64.0
1122,52.0,0,150,13.0,64.0
1123,64.0,60,90,12.0,64.0
1124,80.0,0,90,11.0,64.0
1125,71.0,0,90,11.0,64.0
1126,64.0,36,150,4.0,64.0
1127,64.0,0,90,12.0,64.0
1128,80.0,120,90,11.0,64.0
1129,71.0,0,90,11.0,64.0
1130,56.0,0,150,13.0,64.0
1131,71.0,0,90,11.0,64.0
1132,80.0,60,90,11.0,64.0
1133,44.0,60,150,14.0,64.0
1134,68.0,0,390,2.0,64.0
1135,71.0,0,390,2.0,64.0
1136,74.0,12,390,1.0,64.0
1137,83.0,0,390,1.0,64.0
1138,64.0,0,90,12.0,64.0
1139,80.0,0,390,0.0,64.0
1140,56.0,0,150,3.0,64.0
1141,86.0,0,390,0.0,64.0
1142,74.0,0,390,10.0,64.0
1143,64.0,0,150,4.0,64.0
1144,71.0,0,90,11.0,64.0
1145,80.0,120,90,11.0,64.0
1146,64.0,0,90,12.0,64.0
1147,80.0,48,90,11.0,64.0
1148,59.0,60,150,13.0,64.0
1149,64.0,0,90,12.0,64.0
1150,59.0,0,150,3.0,64.0
1151,71.0,0,90,11.0,64.0
1152,47.0,0,150,14.0,64.0
1153,64.0,0,150,4.0,64.0
1154,80.0,0,90,11.0,64.0
1155,64.0,0,90,12.0,64.0
1156,71.0,102,90,11.0,64.0
1157,44.0,0,150,14.0,64.0
1158,56.0,0,150,3.0,64.0
1159,68.0,0,180,2.0,64.0
1160,56.0,36,150,13.0,64.0
1161,74.0,0,180,1.0,64.0
1162,86.0,18,90,10.0,64.0
1163,64.0,0,90,12.0,64.0
1164,83.0,6,180,1.0,64.0
1165,71.0,60,90,11.0,64.0
1166,80.0,0,180,0.0,64.0
1167,86.0,0,180,0.0,64.0
1168,80.0,0,90,11.0,64.0
1169,71.0,0,180,2.0,64.0
1170,64.0,0,150,4.0,64.0
1171,86.0,18,90,10.0,64.0
1172,80.0,0,90,11.0,64.0
1173,71.0,0,90,11.0,64.0
1174,64.0,120,90,12.0,64.0
1175,76.0,0,1140,2.0,64.0
1176,69.0,0,1140,2.0,64.0
1177,52.0,0,150,3.0,64.0
1178,40.0,36,150,14.0,64.0
1179,85.0,24,180,10.0,64.0
1180,52.0,0,150,13.0,64.0
1181,85.0,24,1140,0.0,64.0
1182,81.0,0,1140,0.0,64.0
1183,69.0,0,90,11.0,64.0
1184,81.0,0,90,11.0,64.0
1185,64.0,60,90,12.0,64.0
1186,81.0,0,1140,1.0,64.0
1187,73.0,0,1140,1.0,64.0
1188,64.0,0,570,4.0,64.0
1189,64.0,0,90,12.0,64.0
1190,81.0,120,90,11.0,64.0
1191,69.0,0,90,11.0,64.0
1192,45.0,0,150,14.0,64.0
1193,73.0,12,390,10.0,64.0
1194,57.0,0,150,13.0,64.0
1195,69.0,60,90,11.0,64.0
1196,81.0,0,90,11.0,64.0
1197,64.0,0,90,12.0,64.0
1198,57.0,60,150,3.0,64.0
1199,81.0,0,90,11.0,64.0
1200,69.0,0,90,11.0,64.0
1201,64.0,120,90,12.0,64.0
1202,81.0,0,90,11.0,64.0
1203,69.0,0,90,11.0,64.0
1204,61.0,0,150,13.0,64.0
1205,64.0,48,90,12.0,64.0
1206,61.0,60,150,3.0,64.0
1207,49.0,0,150,14.0,64.0
1208,69.0,0,90,11.0,64.0
1209,81.0,0,90,11.0,64.0
1210,64.0,102,90,12.0,64.0
1211,57.0,36,150,13.0,64.0
1212,64.0,0,90,12.0,64.0
1213,64.0,18,90,4.0,64.0
1214,85.0,6,180,10.0,64.0
1215,57.0,0,150,3.0,64.0
1216,69.0,60,90,11.0,64.0
1217,81.0,0,90,11.0,64.0
1218,45.0,0,150,14.0,64.0
1219,69.0,0,90,11.0,64.0
1220,81.0,0,90,11.0,64.0
1221,64.0,18,90,4.0,64.0
1222,64.0,120,90,12.0,64.0
1223,64.0,0,150,4.0,64.0
1224,85.0,0,180,10.0,64.0
1225,52.0,36,150,3.0,64.0
1226,64.0,60,90,12.0,64.0
1227,52.0,0,150,13.0,64.0
1228,81.0,0,90,11.0,64.0
1229,69.0,0,90,11.0,64.0
1230,40.0,0,150,14.0,64.0
1231,64.0,120,90,12.0,64.0
1232,81.0,0,90,11.0,64.0
1233,69.0,0,90,11.0,64.0
1234,73.0,0,390,10.0,64.0
1235,45.0,0,150,14.0,64.0
1236,69.0,60,90,11.0,64.0
1237,81.0,0,90,11.0,64.0
1238,76.0,12,390,2.0,64.0
1239,69.0,0,390,2.0,64.0
1240,81.0,0,390,0.0,64.0
1241,64.0,0,150,4.0,64.0
1242,85.0,0,390,0.0,64.0
1243,64.0,0,90,12.0,64.0
1244,57.0,60,150,13.0,64.0
1245,57.0,0,150,3.0,64.0
1246,73.0,0,390,1.0,64.0
1247,81.0,0,390,1.0,64.0
1248,81.0,0,90,11.0,64.0
1249,64.0,0,90,12.0,64.0
1250,69.0,120,90,11.0,64.0
1251,64.0,0,150,4.0,64.0
1252,49.0,60,150,14.0,64.0
1253,64.0,0,90,12.0,64.0
1254,61.0,0,150,13.0,64.0
1255,81.0,0,90,11.0,64.0
1256,61.0,0,150,3.0,64.0
1257,69.0,48,90,11.0,64.0
1258,64.0,0,90,12.0,64.0
1259,81.0,0,90,11.0,64.0
1260,69.0,120,90,11.0,64.0
1261,64.0,0,90,12.0,64.0
1262,81.0,60,90,11.0,64.0
1263,76.0,0,180,2.0,64.0
1264,69.0,0,90,11.0,64.0
1265,64.0,0,150,4.0,64.0
1266,81.0,0,180,1.0,64.0
1267,85.0,0,90,10.0,64.0
1268,73.0,24,180,1.0,64.0
1269,69.0,0,180,2.0,64.0
1270,45.0,0,150,14.0,64.0
1271,85.0,0,180,0.0,64.0
1272,57.0,36,150,3.0,64.0
1273,57.0,0,150,13.0,64.0
1274,81.0,0,180,0.0,64.0
1275,69.0,120,90,11.0,64.0
1276,85.0,0,90,10.0,64.0
1277,64.0,0,90,12.0,64.0
1278,81.0,0,90,11.0,64.0
1279,51.0,0,180,13.0,64.0
1280,69.0,12,1350,5.0,64.0
1281,63.0,0,90,12.0,64.0
1282,39.0,0,180,14.0,64.0
1283,51.0,24,180,3.0,64.0
1284,69.0,96,90,11.0,64.0
1285,78.0,0,90,11.0,64.0
1286,72.0,24,1140,2.0,64.0
1287,81.0,0,1140,1.0,64.0
1288,78.0,0,1140,1.0,64.0
1289,84.0,0,180,10.0,64.0
1290,57.0,0,570,4.0,64.0
1291,69.0,0,1140,2.0,64.0
1292,66.0,0,570,4.0,64.0
1293,81.0,0,1140,0.0,64.0
1294,84.0,0,1140,0.0,64.0
1295,63.0,120,90,12.0,64.0
1296,69.0,0,90,11.0,64.0
1297,78.0,0,90,11.0,64.0
1298,69.0,0,90,11.0,64.0
1299,42.0,0,180,14.0,64.0
1300,63.0,96,90,12.0,64.0
1301,54.0,24,180,13.0,64.0
1302,72.0,48,390,10.0,64.0
1303,54.0,0,180,3.0,64.0
1304,78.0,0,90,11.0,64.0
1305,78.0,120,90,11.0,64.0
1306,69.0,0,90,11.0,64.0
1307,63.0,0,90,12.0,64.0
1308,57.0,0,180,13.0,64.0
1309,63.0,0,90,12.0,64.0
1310,57.0,0,180,3.0,64.0
1311,45.0,24,180,14.0,64.0
1312,78.0,0,90,11.0,64.0
1313,69.0,48,90,11.0,64.0
1314,69.0,0,90,11.0,64.0
1315,78.0,0,90,11.0,64.0
1316,63.0,102,90,12.0,64.0
1317,78.0,96,90,11.0,64.0
1318,69.0,0,90,11.0,64.0
1319,57.0,18,90,4.0,64.0
1320,66.0,0,90,4.0,64.0
1321,84.0,0,90,10.0,64.0
1322,54.0,0,180,3.0,64.0
1323,54.0,6,180,13.0,64.0
1324,42.0,0,180,14.0,64.0
1325,63.0,0,90,12.0,64.0
1326,69.0,120,90,11.0,64.0
1327,78.0,0,90,11.0,64.0
1328,63.0,0,90,12.0,64.0
1329,66.0,0,90,4.0,64.0
1330,84.0,0,90,10.0,64.0
1331,57.0,18,90,4.0,64.0
1332,78.0,0,90,11.0,64.0
1333,51.0,0,180,13.0,64.0
1334,69.0,0,90,11.0,64.0
1335,63.0,60,90,12.0,64.0
1336,51.0,0,180,3.0,64.0
1337,57.0,36,150,4.0,64.0
1338,84.0,0,180,10.0,64.0
1339,66.0,0,150,4.0,64.0
1340,39.0,0,180,14.0,64.0
1341,63.0,0,90,12.0,64.0
1342,69.0,120,90,11.0,64.0
1343,78.0,0,90,11.0,64.0
1344,66.0,36,150,4.0,64.0
1345,63.0,0,90,12.0,64.0
1346,69.0,0,390,10.0,64.0
1347,54.0,0,180,3.0,64.0
1348,78.0,48,90,11.0,64.0
1349,81.0,0,390,1.0,64.0
1350,69.0,0,90,11.0,64.0
1351,42.0,24,180,14.0,64.0
1352,54.0,0,180,13.0,64.0
1353,81.0,0,390,0.0,64.0
1354,84.0,0,390,0.0,64.0
1355,72.0,12,390,2.0,64.0
1356,69.0,0,390,2.0,64.0
1357,57.0,0,150,4.0,64.0
1358,78.0,0,390,1.0,64.0
1359,69.0,120,90,11.0,64.0
1360,78.0,0,90,11.0,64.0
1361,63.0,0,90,12.0,64.0
1362,78.0,0,90,11.0,64.0
1363,45.0,24,180,14.0,64.0
1364,69.0,12,390,5.0,64.0
1365,57.0,0,180,13.0,64.0
1366,69.0,48,90,11.0,64.0
1367,57.0,36,150,4.0,64.0
1368,63.0,0,90,12.0,64.0
1369,57.0,0,180,3.0,64.0
1370,66.0,0,150,4.0,64.0
1371,69.0,120,90,11.0,64.0
1372,78.0,0,90,11.0,64.0
1373,63.0,0,90,12.0,64.0
1374,72.0,0,180,2.0,64.0
1375,63.0,48,90,12.0,64.0
1376,81.0,0,90,10.0,64.0
1377,69.0,0,180,2.0,64.0
1378,69.0,0,90,11.0,64.0
1379,78.0,0,180,1.0,64.0
1380,81.0,0,180,1.0,64.0
1381,78.0,0,90,11.0,64.0
1382,54.0,0,180,3.0,64.0
1383,81.0,24,180,0.0,64.0
1384,66.0,36,150,4.0,64.0
1385,57.0,0,150,4.0,64.0
1386,51.0,0,180,13.0,64.0
1387,39.0,0,180,14.0,64.0
1388,78.0,120,90,11.0,64.0
1389,69.0,0,90,11.0,64.0
1390,81.0,0,90,10.0,64.0
1391,63.0,0,90,12.0,64.0
1392,76.0,0,2310,0.0,64.0
1393,88.0,0,2310,0.0,64.0
1394,52.0,0,300,3.0,64.0
1395,68.0,36,150,2.0,64.0
1396,76.0,0,390,5.0,64.0
1397,64.0,60,90,12.0,64.0
1398,80.0,24,180,10.0,64.0
1399,76.0,0,390,1.0,64.0
1400,80.0,12,390,1.0,64.0
1401,40.0,0,300,14.0,64.0
1402,71.0,0,150,2.0,64.0
1403,80.0,0,90,11.0,64.0
1404,52.0,24,300,13.0,64.0
1405,71.0,0,90,12.0,64.0
1406,83.0,96,90,11.0,64.0
1407,80.0,48,90,11.0,64.0
1408,68.0,0,90,12.0,64.0
1409,64.0,60,150,4.0,64.0
1410,64.0,0,90,12.0,64.0
1411,76.0,120,90,11.0,64.0
1412,72.0,0,90,11.0,64.0
1413,72.0,0,390,1.0,64.0
1414,81.0,12,390,1.0,64.0
1415,60.0,60,90,12.0,64.0
1416,57.0,60,150,3.0,64.0
1417,64.0,60,630,4.0,64.0
1418,45.0,0,150,14.0,64.0
1419,57.0,0,150,13.0,64.0
1420,64.0,0,90,12.0,64.0
1421,76.0,120,90,11.0,64.0
1422,48.0,0,150,14.0,64.0
1423,72.0,0,90,11.0,64.0
1424,60.0,0,150,13.0,64.0
1425,60.0,60,150,3.0,64.0
1426,60.0,48,90,12.0,64.0
1427,72.0,0,150,2.0,64.0
1428,69.0,0,150,2.0,64.0
1429,64.0,0,150,10.0,64.0
1430,72.0,0,150,10.0,64.0
1431,81.0,0,150,10.0,64.0
1432,69.0,0,90,11.0,64.0
1433,57.0,120,90,12.0,64.0
1434,80.0,60,90,11.0,64.0
1435,64.0,0,390,10.0,64.0
1436,71.0,0,390,10.0,64.0
1437,80.0,12,390,10.0,64.0
1438,68.0,0,90,12.0,64.0
1439,64.0,0,300,3.0,64.0
1440,71.0,0,390,1.0,64.0
1441,80.0,0,390,1.0,64.0
1442,64.0,0,300,13.0,64.0
1443,71.0,0,300,2.0,64.0
1444,68.0,24,300,2.0,64.0
1445,52.0,0,300,14.0,64.0
1446,83.0,0,90,11.0,64.0
1447,71.0,96,90,12.0,64.0
1448,80.0,48,90,11.0,64.0
1449,68.0,0,90,12.0,64.0
1450,64.0,60,150,4.0,64.0
1451,64.0,120,90,12.0,64.0
1452,76.0,0,90,11.0,64.0
1453,60.0,60,90,12.0,64.0
1454,72.0,0,390,1.0,64.0
1455,57.0,0,150,13.0,64.0
1456,45.0,60,150,14.0,64.0
1457,72.0,0,90,11.0,64.0
1458,81.0,0,390,1.0,64.0
1459,64.0,0,630,4.0,64.0
1460,57.0,0,150,3.0,64.0
1461,76.0,0,90,11.0,64.0
1462,64.0,120,90,12.0,64.0
1463,72.0,0,90,11.0,64.0
1464,60.0,0,150,13.0,64.0
1465,69.0,60,150,2.0,64.0
1466,72.0,0,150,2.0,64.0
1467,72.0,0,150,10.0,64.0
1468,60.0,0,150,3.0,64.0
1469,60.0,48,90,12.0,64.0
1470,64.0,0,150,10.0,64.0
1471,81.0,12,150,10.0,64.0
1472,48.0,0,150,14.0,64.0
1473,69.0,120,90,11.0,64.0
1474,57.0,0,90,12.0,64.0
1475,68.0,60,150,2.0,64.0
1476,71.0,12,390,10.0,64.0
1477,52.0,0,300,3.0,64.0
1478,40.0,0,300,14.0,64.0
1479,52.0,24,300,13.0,64.0
1480,64.0,60,90,12.0,64.0
1481,71.0,0,390,1.0,64.0
1482,68.0,0,90,11.0,64.0
1483,80.0,0,390,1.0,64.0
1484,64.0,0,390,10.0,64.0
1485,71.0,0,150,2.0,64.0
1486,80.0,0,390,10.0,64.0
1487,71.0,0,90,11.0,64.0
1488,64.0,96,90,12.0,64.0
1489,76.0,0,150,2.0,64.0
1490,64.0,60,150,2.0,64.0
1491,64.0,48,90,12.0,64.0
1492,76.0,0,90,11.0,64.0
1493,76.0,0,90,11.0,64.0
1494,64.0,120,90,12.0,64.0
1495,76.0,60,150,2.0,64.0
1496,76.0,0,90,11.0,64.0
1497,64.0,0,150,2.0,64.0
1498,64.0,60,90,12.0,64.0
1499,76.0,120,90,11.0,64.0
1500,64.0,0,90,12.0,64.0
1501,64.0,48,90,12.0,64.0
1502,81.0,0,150,1.0,64.0
1503,73.0,0,150,1.0,64.0
1504,81.0,0,150,0.0,64.0
1505,85.0,0,150,0.0,64.0
1506,76.0,0,150,2.0,64.0
1507,76.0,24,180,5.0,64.0
1508,76.0,12,150,10.0,64.0
1509,85.0,0,150,10.0,64.0
1510,69.0,0,180,5.0,64.0
1511,45.0,0,150,14.0,64.0
1512,64.0,0,150,2.0,64.0
1513,57.0,0,150,13.0,64.0
1514,64.0,0,150,4.0,64.0
1515,57.0,0,150,4.0,64.0
1516,81.0,0,90,11.0,64.0
1517,57.0,36,150,3.0,64.0
1518,76.0,120,90,11.0,64.0
1519,64.0,0,90,12.0,64.0
1520,80.0,36,150,0.0,64.0
1521,76.0,24,180,5.0,64.0
1522,64.0,0,150,4.0,64.0
1523,80.0,0,150,1.0,64.0
1524,40.0,0,150,14.0,64.0
1525,52.0,0,150,13.0,64.0
1526,64.0,48,90,12.0,64.0
1527,52.0,0,150,3.0,64.0
1528,71.0,0,150,1.0,64.0
1529,83.0,12,150,10.0,64.0
1530,76.0,0,150,10.0,64.0
1531,80.0,0,90,11.0,64.0
1532,76.0,0,150,2.0,64.0
1533,83.0,0,150,0.0,64.0
1534,64.0,0,150,2.0,64.0
1535,76.0,0,90,11.0,64.0
1536,64.0,120,90,12.0,64.0
1537,57.0,0,150,4.0,64.0
1538,57.0,36,150,3.0,64.0
1539,81.0,0,90,11.0,64.0
1540,81.0,0,150,0.0,64.0
1541,69.0,24,180,5.0,64.0
1542,64.0,48,90,12.0,64.0
1543,76.0,0,150,2.0,64.0
1544,64.0,0,150,4.0,64.0
1545,81.0,0,150,1.0,64.0
1546,57.0,0,150,13.0,64.0
1547,76.0,12,150,10.0,64.0
1548,85.0,0,150,10.0,64.0
1549,45.0,0,150,14.0,64.0
1550,85.0,0,150,0.0,64.0
1551,76.0,0,180,5.0,64.0
1552,73.0,0,150,1.0,64.0
1553,64.0,0,150,2.0,64.0
1554,64.0,120,90,12.0,64.0
1555,76.0,0,90,11.0,64.0
1556,80.0,0,150,1.0,64.0
1557,80.0,0,150,0.0,64.0
1558,83.0,12,150,10.0,64.0
1559,76.0,0,150,10.0,64.0
1560,64.0,36,150,2.0,64.0
1561,76.0,0,150,2.0,64.0
1562,83.0,0,150,0.0,64.0
1563,52.0,0,150,3.0,64.0
1564,64.0,0,150,4.0,64.0
1565,64.0,0,90,12.0,64.0
1566,80.0,48,90,11.0,64.0
1567,76.0,24,180,5.0,64.0
1568,71.0,0,150,1.0,64.0
1569,52.0,0,150,13.0,64.0
1570,40.0,0,150,14.0,64.0
1571,64.0,0,90,12.0,64.0
1572,76.0,120,90,11.0,64.0
1573,64.0,0,150,2.0,64.0
1574,76.0,12,150,10.0,64.0
1575,57.0,0,150,13.0,64.0
1576,85.0,0,150,10.0,64.0
1577,45.0,0,150,14.0,64.0
1578,76.0,0,150,2.0,64.0
1579,81.0,0,150,0.0,64.0
1580,57.0,0,150,4.0,64.0
1581,64.0,0,90,12.0,64.0
1582,81.0,48,90,11.0,64.0
1583,69.0,0,180,5.0,64.0
1584,76.0,24,180,5.0,64.0
1585,81.0,0,150,1.0,64.0
1586,73.0,36,150,1.0,64.0
1587,85.0,0,150,0.0,64.0
1588,57.0,0,150,3.0,64.0
1589,64.0,0,150,4.0,64.0
1590,64.0,312,90,12.0,64.0
1591,76.0,0,90,11.0,64.0
1592,80.0,0,300,11.0,64.0
1593,64.0,0,300,4.0,64.0
1594,40.0,0,300,14.0,64.0
1595,76.0,0,300,5.0,64.0
1596,52.0,0,300,3.0,64.0
1597,83.0,0,300,10.0,64.0
1598,76.0,0,300,10.0,64.0
1599,83.0,0,300,0.0,64.0
1600,80.0,0,300,0.0,64.0
1601,71.0,0,300,1.0,64.0
1602,64.0,0,300,2.0,64.0
1603,76.0,0,300,2.0,64.0
1604,64.0,0,300,12.0,64.0
1605,52.0,0,300,13.0,64.0
1606,80.0,480,300,1.0,64.0
1607,64.0,0,300,3.0,64.0
1608,64.0,0,300,11.0,64.0
1609,71.0,0,300,11.0,64.0
1610,88.0,0,300,10.0,64.0
1611,80.0,0,300,11.0,64.0
1612,64.0,0,300,12.0,64.0
1613,76.0,0,300,5.0,64.0
1614,64.0,504,300,4.0,64.0
1615,88.0,0,300,0.0,64.0
1616,76.0,0,300,2.0,64.0
1617,64.0,0,300,2.0,64.0
1618,64.0,0,300,13.0,64.0
1619,76.0,0,300,1.0,64.0
1620,52.0,0,300,14.0,64.0
1621,64.0,0,390,11.0,64.0
1622,40.0,0,390,14.0,64.0
1623,64.0,0,390,10.0,64.0
1624,52.0,0,390,3.0,64.0
1625,52.0,0,390,13.0,64.0
1626,64.0,0,390,1.0,64.0
1627,76.0,0,390,5.0,64.0
1628,76.0,0,390,0.0,64.0
1629,64.0,1344,390,2.0,64.0
1630,52.0,0,390,12.0,64.0
1631,64.0,72,300,4.0,64.0
1632,76.0,960,780,10.0,64.0
1633,81.0,312,780,10.0,64.0
1634,80.0,120,120,10.0,64.0
1635,64.0,72,780,11.0,64.0
1636,81.0,120,120,10.0,64.0
1637,78.0,120,120,10.0,64.0
1638,80.0,120,120,10.0,64.0
1639,76.0,120,120,10.0,64.0
1640,78.0,48,120,10.0,64.0
1641,74.0,96,120,10.0,64.0
1642,76.0,144,90,10.0,64.0
1643,73.0,120,120,10.0,64.0
1644,57.0,72,780,4.0,64.0
1645,69.0,0,780,11.0,64.0
1646,74.0,120,120,10.0,64.0
1647,76.0,96,120,10.0,64.0
1648,73.0,144,90,10.0,64.0
1649,78.0,168,120,10.0,64.0
1650,78.0,240,120,10.0,64.0
1651,64.0,0,780,4.0,64.0
1652,76.0,0,120,10.0,64.0
1653,68.0,120,120,11.0,64.0
1654,76.0,72,780,1.0,64.0
1655,78.0,0,120,10.0,64.0
1656,69.0,120,120,11.0,64.0
1657,66.0,0,120,11.0,64.0
1658,74.0,120,120,10.0,64.0
1659,76.0,120,120,10.0,64.0
1660,68.0,0,120,11.0,64.0
1661,73.0,120,120,10.0,64.0
1662,64.0,0,120,11.0,64.0
1663,66.0,48,120,11.0,64.0
1664,74.0,0,120,10.0,64.0
1665,71.0,0,120,10.0,64.0
1666,62.0,96,120,11.0,64.0
1667,73.0,0,90,10.0,64.0
1668,64.0,144,90,11.0,64.0
1669,81.0,72,780,1.0,64.0
1670,69.0,72,390,4.0,64.0
1671,61.0,120,120,11.0,64.0
1672,69.0,0,120,10.0,64.0
1673,62.0,0,120,11.0,64.0
1674,71.0,120,120,10.0,64.0
1675,64.0,0,120,11.0,64.0
1676,73.0,24,120,10.0,64.0
1677,61.0,144,90,11.0,64.0
1678,69.0,0,90,10.0,64.0
1679,74.0,0,120,10.0,64.0
1680,66.0,168,120,11.0,64.0
1681,74.0,216,120,10.0,64.0
1682,66.0,0,120,11.0,64.0
1683,73.0,96,120,10.0,64.0
1684,45.0,0,780,13.0,64.0
1685,64.0,24,90,11.0,64.0
1686,45.0,48,780,3.0,64.0
1687,74.0,96,120,10.0,64.0
1688,66.0,24,90,11.0,64.0
1689,62.0,24,90,11.0,64.0
1690,71.0,96,120,10.0,64.0
1691,73.0,96,120,10.0,64.0
1692,64.0,24,90,11.0,64.0
1693,57.0,96,960,12.0,64.0
1694,69.0,96,120,10.0,64.0
1695,61.0,24,90,11.0,64.0
1696,71.0,48,120,10.0,64.0
1697,62.0,24,90,11.0,64.0
1698,68.0,96,120,10.0,64.0
1699,59.0,24,90,11.0,64.0
1700,61.0,144,90,11.0,64.0
1701,69.0,0,90,10.0,64.0
1702,50.0,0,390,3.0,64.0
1703,50.0,120,120,13.0,64.0
1704,62.0,24,900,11.0,64.0
1705,66.0,72,390,10.0,64.0
1706,49.0,120,120,13.0,64.0
1707,47.0,24,120,13.0,64.0
1708,45.0,24,90,13.0,64.0
1709,71.0,96,120,10.0,64.0
1710,59.0,96,960,12.0,64.0
1711,56.0,24,90,3.0,64.0
1712,44.0,48,390,13.0,64.0
1713,69.0,96,120,10.0,64.0
1714,54.0,24,90,3.0,64.0
1715,52.0,24,90,3.0,64.0
1716,68.0,24,120,10.0,64.0
1717,66.0,0,90,10.0,64.0
1718,50.0,144,90,3.0,64.0
1719,49.0,120,120,13.0,64.0
1720,49.0,0,390,3.0,64.0
1721,61.0,24,900,11.0,64.0
1722,64.0,72,390,10.0,64.0
1723,47.0,120,120,13.0,64.0
1724,45.0,24,120,13.0,64.0
1725,44.0,24,90,13.0,64.0
1726,54.0,24,90,3.0,64.0
1727,42.0,48,390,13.0,64.0
1728,57.0,96,960,12.0,64.0
1729,69.0,96,120,10.0,64.0
1730,52.0,24,90,3.0,64.0
1731,68.0,96,120,10.0,64.0
1732,50.0,24,90,3.0,64.0
1733,66.0,24,120,10.0,64.0
1734,49.0,0,90,3.0,64.0
1735,64.0,144,90,10.0,64.0
1736,47.0,72,390,3.0,64.0
1737,47.0,120,120,13.0,64.0
1738,59.0,0,1350,11.0,64.0
1739,62.0,0,390,10.0,64.0
1740,45.0,120,120,13.0,64.0
1741,44.0,24,120,13.0,64.0
1742,42.0,24,90,13.0,64.0
1743,74.0,96,120,10.0,64.0
1744,59.0,24,90,3.0,64.0
1745,56.0,0,390,12.0,64.0
1746,40.0,72,390,13.0,64.0
1747,73.0,96,120,10.0,64.0
1748,57.0,24,90,3.0,64.0
1749,56.0,24,90,3.0,64.0
1750,71.0,24,120,10.0,64.0
1751,54.0,0,90,3.0,64.0
1752,69.0,144,90,10.0,64.0
1753,52.0,0,3780,3.0,64.0
1754,52.0,120,120,13.0,64.0
1755,62.0,120,960,12.0,64.0
1756,68.0,72,390,10.0,64.0
1757,54.0,120,120,13.0,64.0
1758,56.0,24,120,13.0,64.0
1759,57.0,144,90,13.0,64.0
1760,68.0,0,120,11.0,64.0
1761,59.0,72,390,13.0,64.0
1762,80.0,120,120,10.0,64.0
1763,69.0,0,120,11.0,64.0
1764,81.0,120,120,10.0,64.0
1765,83.0,0,120,10.0,64.0
1766,71.0,24,120,11.0,64.0
1767,85.0,0,90,10.0,64.0
1768,73.0,24,90,11.0,64.0
1769,86.0,120,120,10.0,64.0
1770,64.0,288,2820,4.0,64.0
1771,68.0,0,2820,2.0,64.0
1772,74.0,0,2820,2.0,64.0
1773,74.0,0,120,11.0,64.0
1774,73.0,0,120,11.0,64.0
1775,85.0,120,120,10.0,64.0
1776,86.0,120,120,10.0,64.0
1777,74.0,0,120,11.0,64.0
1778,85.0,0,120,10.0,64.0
1779,73.0,120,120,11.0,64.0
1780,86.0,120,120,10.0,64.0
1781,74.0,0,120,11.0,64.0
1782,73.0,0,120,11.0,64.0
1783,85.0,120,120,10.0,64.0
1784,74.0,0,120,11.0,64.0
1785,86.0,96,120,10.0,64.0
1786,73.0,0,90,11.0,64.0
1787,85.0,264,90,10.0,64.0
1788,86.0,0,240,10.0,64.0
1789,74.0,96,240,11.0,64.0
1790,73.0,204,90,11.0,64.0
1791,85.0,0,90,10.0,64.0
1792,73.0,0,60,11.0,64.0
1793,85.0,60,60,10.0,64.0
1794,83.0,0,60,10.0,64.0
1795,71.0,60,60,11.0,64.0
1796,73.0,0,60,11.0,64.0
1797,85.0,60,60,10.0,64.0
1798,71.0,96,60,11.0,64.0
1799,83.0,0,60,10.0,64.0
1800,69.0,384,90,11.0,64.0
1801,81.0,0,90,10.0,64.0
1802,68.0,96,240,11.0,64.0
1803,80.0,0,240,10.0,64.0
1804,78.0,0,90,10.0,64.0
1805,66.0,204,90,11.0,64.0
1806,66.0,0,60,11.0,64.0
1807,78.0,60,60,10.0,64.0
1808,64.0,0,60,11.0,64.0
1809,76.0,60,60,10.0,64.0
1810,66.0,0,60,11.0,64.0
1811,78.0,60,60,10.0,64.0
1812,64.0,0,60,11.0,64.0
1813,76.0,96,60,10.0,64.0
1814,75.0,0,90,10.0,64.0
1815,63.0,96,90,11.0,64.0
1816,74.0,96,240,10.0,64.0
1817,68.0,30,1740,2.0,64.0
1818,62.0,0,240,11.0,64.0
1819,71.0,0,1740,1.0,64.0
1820,80.0,0,1740,1.0,64.0
1821,74.0,0,1740,2.0,64.0
1822,52.0,0,1740,3.0,64.0
1823,64.0,0,1740,4.0,64.0
1824,73.0,204,90,10.0,64.0
1825,61.0,0,90,11.0,64.0
1826,61.0,60,60,11.0,64.0
1827,73.0,0,60,10.0,64.0
1828,59.0,0,60,11.0,64.0
1829,71.0,60,60,10.0,64.0
1830,61.0,0,60,11.0,64.0
1831,73.0,60,60,10.0,64.0
1832,59.0,96,60,11.0,64.0
1833,71.0,0,60,10.0,64.0
1834,57.0,0,90,11.0,64.0
1835,69.0,222,90,10.0,64.0
1836,56.0,0,90,11.0,64.0
1837,68.0,240,90,10.0,64.0
1838,59.0,0,90,11.0,64.0
1839,71.0,240,90,10.0,64.0
1840,62.0,210,90,11.0,64.0
1841,74.0,0,90,10.0,64.0
1842,71.0,0,90,10.0,64.0
1843,59.0,354,90,11.0,64.0
1844,64.0,0,180,11.0,64.0
1845,69.0,0,180,11.0,64.0
1846,69.0,0,180,2.0,64.0
1847,45.0,0,180,14.0,64.0
1848,57.0,0,180,13.0,64.0
1849,57.0,0,180,3.0,64.0
1850,76.0,0,180,0.0,64.0
1851,81.0,0,180,0.0,64.0
1852,73.0,0,180,2.0,64.0
1853,57.0,0,180,11.0,64.0
1854,64.0,480,180,4.0,64.0
1855,57.0,0,180,10.0,64.0
1856,69.0,0,180,10.0,64.0
1857,81.0,0,180,1.0,64.0
1858,73.0,0,180,1.0,64.0
1859,64.0,0,180,10.0,64.0
1860,57.0,0,180,4.0,64.0
1861,61.0,0,180,12.0,64.0
1862,64.0,0,180,4.0,64.0
1863,83.0,0,180,0.0,64.0
1864,56.0,0,180,3.0,64.0
1865,62.0,0,180,12.0,64.0
1866,56.0,0,180,13.0,64.0
1867,76.0,0,180,0.0,64.0
1868,62.0,0,180,2.0,64.0
1869,83.0,408,180,1.0,64.0
1870,64.0,0,180,10.0,64.0
1871,44.0,0,180,14.0,64.0
1872,64.0,0,180,11.0,64.0
1873,71.0,0,180,11.0,64.0
1874,74.0,0,180,1.0,64.0
1875,71.0,0,180,10.0,64.0
1876,71.0,0,180,2.0,64.0
1877,76.0,120,120,10.0,64.0
1878,78.0,120,120,10.0,64.0
1879,76.0,120,120,10.0,64.0
1880,78.0,120,120,10.0,64.0
1881,76.0,120,120,10.0,64.0
1882,74.0,120,120,10.0,64.0
1883,73.0,96,120,10.0,64.0
1884,71.0,216,90,10.0,64.0
1885,64.0,0,180,10.0,64.0
1886,76.0,0,180,0.0,64.0
1887,69.0,0,180,10.0,64.0
1888,64.0,0,180,4.0,64.0
1889,57.0,480,180,4.0,64.0
1890,57.0,0,180,13.0,64.0
1891,61.0,0,180,12.0,64.0
1892,57.0,0,180,10.0,64.0
1893,57.0,0,180,3.0,64.0
1894,81.0,0,180,0.0,64.0
1895,45.0,0,180,14.0,64.0
1896,57.0,0,180,11.0,64.0
1897,69.0,0,180,2.0,64.0
1898,73.0,0,180,2.0,64.0
1899,64.0,0,180,11.0,64.0
1900,69.0,0,180,11.0,64.0
1901,81.0,0,180,1.0,64.0
1902,73.0,0,180,1.0,64.0
1903,71.0,0,180,10.0,64.0
1904,76.0,0,180,0.0,64.0
1905,83.0,0,180,0.0,64.0
1906,62.0,408,180,2.0,64.0
1907,44.0,0,180,14.0,64.0
1908,71.0,0,180,2.0,64.0
1909,64.0,0,180,4.0,64.0
1910,74.0,0,180,1.0,64.0
1911,64.0,0,180,11.0,64.0
1912,62.0,0,180,12.0,64.0
1913,64.0,0,180,10.0,64.0
1914,56.0,0,180,3.0,64.0
1915,71.0,0,180,11.0,64.0
1916,56.0,0,180,13.0,64.0
1917,83.0,0,180,1.0,64.0
1918,76.0,120,120,10.0,64.0
1919,78.0,120,120,10.0,64.0
1920,76.0,120,120,10.0,64.0
1921,78.0,120,120,10.0,64.0
1922,76.0,120,120,10.0,64.0
1923,74.0,120,120,10.0,64.0
1924,73.0,96,120,10.0,64.0
1925,71.0,120,90,10.0,64.0
1926,64.0,0,90,11.0,64.0
1927,45.0,60,150,13.0,64.0
1928,33.0,0,150,14.0,64.0
1929,45.0,12,390,6.0,64.0
1930,69.0,0,780,5.0,64.0
1931,57.0,0,780,5.0,64.0
1932,57.0,0,780,4.0,64.0
1933,45.0,0,780,4.0,64.0
1934,60.0,0,2400,2.0,64.0
1935,45.0,0,150,3.0,64.0
1936,64.0,0,780,2.0,64.0
1937,69.0,0,780,1.0,64.0
1938,69.0,0,570,10.0,64.0
1939,69.0,48,780,0.0,64.0
1940,60.0,0,90,11.0,64.0
1941,57.0,60,90,12.0,64.0
1942,64.0,0,90,11.0,64.0
1943,60.0,120,90,11.0,64.0
1944,57.0,0,90,12.0,64.0
1945,57.0,0,90,12.0,64.0
1946,64.0,48,90,11.0,64.0
1947,60.0,0,90,11.0,64.0
1948,57.0,60,150,3.0,64.0
1949,45.0,0,150,14.0,64.0
1950,57.0,0,150,13.0,64.0
1951,57.0,120,90,12.0,64.0
1952,60.0,0,90,11.0,64.0
1953,64.0,0,90,11.0,64.0
1954,57.0,0,150,13.0,64.0
1955,57.0,0,150,3.0,64.0
1956,60.0,0,90,11.0,64.0
1957,64.0,60,90,11.0,64.0
1958,57.0,0,90,12.0,64.0
1959,45.0,60,150,14.0,64.0
1960,57.0,0,90,12.0,64.0
1961,60.0,0,90,11.0,64.0
1962,64.0,72,90,11.0,64.0
1963,72.0,0,90,10.0,64.0
1964,57.0,0,150,3.0,64.0
1965,45.0,60,150,14.0,64.0
1966,60.0,60,90,11.0,64.0
1967,57.0,0,150,13.0,64.0
1968,57.0,0,90,12.0,64.0
1969,45.0,0,90,6.0,64.0
1970,64.0,0,90,11.0,64.0
1971,69.0,120,90,10.0,64.0
1972,64.0,0,90,11.0,64.0
1973,57.0,0,90,12.0,64.0
1974,45.0,0,90,6.0,64.0
1975,60.0,0,90,11.0,64.0
1976,65.0,0,1440,2.0,64.0
1977,33.0,0,150,14.0,64.0
1978,45.0,60,150,13.0,64.0
1979,77.0,60,570,10.0,64.0
1980,57.0,48,780,4.0,64.0
1981,45.0,12,390,6.0,64.0
1982,45.0,0,780,4.0,64.0
1983,57.0,0,780,5.0,64.0
1984,69.0,0,780,5.0,64.0
1985,72.0,0,1440,1.0,64.0
1986,77.0,0,1440,1.0,64.0
1987,77.0,0,1440,0.0,64.0
1988,84.0,96,1440,0.0,64.0
1989,45.0,0,150,3.0,64.0
1990,60.0,0,90,11.0,64.0
1991,65.0,60,90,11.0,64.0
1992,69.0,0,90,12.0,64.0
1993,60.0,0,90,11.0,64.0
1994,65.0,0,90,11.0,64.0
1995,69.0,120,90,12.0,64.0
1996,57.0,0,150,13.0,64.0
1997,45.0,0,150,14.0,64.0
1998,60.0,0,90,11.0,64.0
1999,57.0,60,150,3.0,64.0
2000,65.0,48,90,11.0,64.0
2001,69.0,0,90,12.0,64.0
2002,69.0,120,90,12.0,64.0
2003,60.0,0,90,11.0,64.0
2004,65.0,0,90,11.0,64.0
2005,57.0,0,150,13.0,64.0
2006,57.0,60,150,3.0,64.0
2007,60.0,0,90,11.0,64.0
2008,65.0,0,90,11.0,64.0
2009,69.0,0,90,12.0,64.0
2010,45.0,0,150,14.0,64.0
2011,69.0,0,90,12.0,64.0
2012,65.0,0,90,11.0,64.0
2013,60.0,72,90,11.0,64.0
2014,45.0,0,90,6.0,64.0
2015,65.0,0,90,11.0,64.0
2016,57.0,60,150,3.0,64.0
2017,57.0,0,150,13.0,64.0
2018,45.0,0,150,14.0,64.0
2019,81.0,60,90,10.0,64.0
2020,69.0,0,90,12.0,64.0
2021,60.0,0,90,11.0,64.0
2022,77.0,0,90,10.0,64.0
2023,65.0,0,90,11.0,64.0
2024,60.0,120,90,11.0,64.0
2025,45.0,0,90,6.0,64.0
2026,69.0,0,90,12.0,64.0
2027,60.0,24,90,11.0,64.0
2028,45.0,60,150,3.0,64.0
2029,65.0,0,90,11.0,64.0
2030,57.0,0,390,4.0,64.0
2031,45.0,0,150,13.0,64.0
2032,69.0,0,390,5.0,64.0
2033,33.0,12,150,14.0,64.0
2034,57.0,0,390,5.0,64.0
2035,45.0,0,390,4.0,64.0
2036,45.0,0,390,6.0,64.0
2037,69.0,0,90,12.0,64.0
2038,84.0,24,120,10.0,64.0
2039,69.0,0,90,12.0,64.0
2040,60.0,0,90,11.0,64.0
2041,65.0,120,90,11.0,64.0
2042,45.0,12,150,14.0,64.0
2043,77.0,24,120,10.0,64.0
2044,60.0,24,90,11.0,64.0
2045,65.0,0,90,11.0,64.0
2046,57.0,60,150,3.0,64.0
2047,69.0,0,90,12.0,64.0
2048,57.0,0,150,13.0,64.0
2049,69.0,24,90,12.0,64.0
2050,60.0,0,90,11.0,64.0
2051,65.0,0,90,11.0,64.0
2052,69.0,0,90,12.0,64.0
2053,45.0,0,390,4.0,64.0
2054,57.0,0,390,4.0,64.0
2055,84.0,24,120,10.0,64.0
2056,64.0,0,390,2.0,64.0
2057,76.0,0,390,0.0,64.0
2058,45.0,60,150,3.0,64.0
2059,45.0,12,150,13.0,64.0
2060,33.0,0,150,14.0,64.0
2061,76.0,0,390,1.0,64.0
2062,65.0,0,90,11.0,64.0
2063,60.0,24,90,11.0,64.0
2064,69.0,120,90,12.0,64.0
2065,60.0,0,90,11.0,64.0
2066,65.0,0,90,11.0,64.0
2067,77.0,24,120,10.0,64.0
2068,45.0,12,150,14.0,64.0
2069,57.0,0,150,13.0,64.0
2070,65.0,0,90,11.0,64.0
2071,60.0,24,90,11.0,64.0
2072,57.0,60,150,3.0,64.0
2073,69.0,0,90,12.0,64.0
2074,65.0,144,90,11.0,64.0
2075,60.0,0,90,11.0,64.0
2076,69.0,0,90,12.0,64.0
2077,75.0,240,120,10.0,64.0
2078,83.0,0,480,0.0,64.0
2079,57.0,384,480,3.0,64.0
2080,59.0,0,870,2.0,64.0
2081,45.0,0,390,14.0,64.0
2082,66.0,0,390,12.0,64.0
2083,75.0,0,480,0.0,64.0
2084,63.0,0,390,11.0,64.0
2085,63.0,0,480,2.0,64.0
2086,71.0,0,870,1.0,64.0
2087,59.0,96,390,12.0,64.0
2088,75.0,0,480,1.0,64.0
2089,57.0,0,390,13.0,64.0
2090,83.0,24,120,10.0,64.0
2091,64.0,0,960,10.0,64.0
2092,74.0,0,960,10.0,64.0
2093,71.0,0,480,12.0,64.0
2094,74.0,0,390,1.0,64.0
2095,62.0,96,390,2.0,64.0
2096,44.0,0,15,14.0,64.0
2097,56.0,0,15,13.0,64.0
2098,64.0,0,15,11.0,64.0
2099,71.0,0,480,12.0,64.0
2100,56.0,480,15,3.0,64.0
2101,73.0,240,660,10.0,64.0
2102,69.0,0,390,12.0,64.0
2103,57.0,96,390,13.0,64.0
2104,57.0,0,390,3.0,64.0
2105,45.0,0,390,14.0,64.0
2106,65.0,192,240,11.0,64.0
2107,62.0,0,900,12.0,64.0
2108,66.0,0,900,11.0,64.0
2109,50.0,144,780,3.0,64.0
2110,50.0,0,900,13.0,64.0
2111,38.0,0,900,14.0,64.0
2112,71.0,240,180,10.0,64.0
2113,74.0,96,180,10.0,64.0
2114,78.0,528,180,10.0,64.0
2115,61.0,60,480,11.0,64.0
2116,64.0,0,870,11.0,64.0
2117,52.0,0,780,13.0,64.0
2118,52.0,96,780,3.0,64.0
2119,61.0,0,480,12.0,64.0
2120,40.0,0,780,14.0,64.0
2121,69.0,0,480,10.0,64.0
2122,62.0,0,390,11.0,64.0
2123,68.0,12,390,12.0,64.0
2124,73.0,228,60,10.0,64.0
2125,71.0,180,330,10.0,64.0
2126,69.0,48,780,0.0,64.0
2127,64.0,60,90,11.0,64.0
2128,45.0,12,390,6.0,64.0
2129,69.0,0,570,10.0,64.0
2130,45.0,0,780,4.0,64.0
2131,57.0,0,780,4.0,64.0
2132,60.0,0,90,11.0,64.0
2133,33.0,0,150,14.0,64.0
2134,57.0,0,90,12.0,64.0
2135,45.0,60,150,3.0,64.0
2136,60.0,96,2400,2.0,64.0
2137,64.0,0,780,2.0,64.0
2138,69.0,0,780,5.0,64.0
2139,45.0,0,150,13.0,64.0
2140,57.0,0,780,5.0,64.0
2141,69.0,0,780,1.0,64.0
2142,57.0,0,90,12.0,64.0
2143,60.0,120,90,11.0,64.0
2144,64.0,0,90,11.0,64.0
2145,57.0,60,150,13.0,64.0
2146,60.0,0,90,11.0,64.0
2147,57.0,48,90,12.0,64.0
2148,64.0,0,90,11.0,64.0
2149,57.0,0,150,3.0,64.0
2150,45.0,0,150,14.0,64.0
2151,60.0,0,90,11.0,64.0
2152,64.0,0,90,11.0,64.0
2153,57.0,120,90,12.0,64.0
2154,45.0,0,150,14.0,64.0
2155,60.0,0,90,11.0,64.0
2156,64.0,0,90,11.0,64.0
2157,57.0,60,150,3.0,64.0
2158,57.0,0,150,13.0,64.0
2159,57.0,60,90,12.0,64.0
2160,64.0,0,90,11.0,64.0
2161,60.0,0,90,11.0,64.0
2162,57.0,72,90,12.0,64.0
2163,45.0,60,90,6.0,64.0
2164,45.0,0,150,14.0,64.0
2165,57.0,0,150,3.0,64.0
2166,57.0,0,90,12.0,64.0
2167,72.0,0,90,10.0,64.0
2168,64.0,0,90,11.0,64.0
2169,57.0,60,150,13.0,64.0
2170,60.0,0,90,11.0,64.0
2171,64.0,0,90,11.0,64.0
2172,57.0,0,90,12.0,64.0
2173,69.0,0,90,10.0,64.0
2174,60.0,120,90,11.0,64.0
2175,45.0,0,90,6.0,64.0
2176,84.0,0,1440,0.0,64.0
2177,60.0,0,90,11.0,64.0
2178,77.0,0,570,10.0,64.0
2179,45.0,48,780,4.0,64.0
2180,57.0,0,780,4.0,64.0
2181,45.0,12,390,6.0,64.0
2182,45.0,60,150,3.0,64.0
2183,72.0,0,1440,1.0,64.0
2184,57.0,0,780,5.0,64.0
2185,65.0,60,90,11.0,64.0
2186,69.0,0,90,12.0,64.0
2187,45.0,0,150,13.0,64.0
2188,65.0,0,1440,2.0,64.0
2189,77.0,0,1440,0.0,64.0
2190,77.0,0,1440,1.0,64.0
2191,69.0,0,780,5.0,64.0
2192,33.0,0,150,14.0,64.0
2193,65.0,0,90,11.0,64.0
2194,69.0,120,90,12.0,64.0
2195,60.0,0,90,11.0,64.0
2196,60.0,0,90,11.0,64.0
2197,69.0,0,90,12.0,64.0
2198,57.0,0,150,13.0,64.0
2199,65.0,48,90,11.0,64.0
2200,45.0,60,150,14.0,64.0
2201,57.0,0,150,3.0,64.0
2202,69.0,120,90,12.0,64.0
2203,65.0,0,90,11.0,64.0
2204,60.0,0,90,11.0,64.0
2205,45.0,0,150,14.0,64.0
2206,65.0,60,90,11.0,64.0
2207,57.0,0,150,3.0,64.0
2208,69.0,0,90,12.0,64.0
2209,57.0,60,150,13.0,64.0
2210,60.0,0,90,11.0,64.0
2211,69.0,72,90,12.0,64.0
2212,65.0,0,90,11.0,64.0
2213,60.0,0,90,11.0,64.0
2214,69.0,0,90,12.0,64.0
2215,81.0,0,90,10.0,64.0
2216,45.0,0,150,14.0,64.0
2217,60.0,0,90,11.0,64.0
2218,65.0,60,90,11.0,64.0
2219,45.0,0,90,6.0,64.0
2220,57.0,0,150,3.0,64.0
2221,57.0,60,150,13.0,64.0
2222,65.0,0,90,11.0,64.0
2223,60.0,0,90,11.0,64.0
2224,45.0,0,90,6.0,64.0
2225,69.0,120,90,12.0,64.0
2226,77.0,0,90,10.0,64.0
2227,84.0,24,120,10.0,64.0
2228,45.0,12,150,13.0,64.0
2229,69.0,0,390,5.0,64.0
2230,57.0,0,390,5.0,64.0
2231,45.0,0,390,6.0,64.0
2232,45.0,0,390,4.0,64.0
2233,57.0,0,390,4.0,64.0
2234,45.0,60,150,3.0,64.0
2235,69.0,0,90,12.0,64.0
2236,33.0,0,150,14.0,64.0
2237,60.0,0,90,11.0,64.0
2238,65.0,24,90,11.0,64.0
2239,60.0,0,90,11.0,64.0
2240,65.0,120,90,11.0,64.0
2241,69.0,0,90,12.0,64.0
2242,65.0,0,90,11.0,64.0
2243,45.0,0,150,14.0,64.0
2244,57.0,12,150,13.0,64.0
2245,69.0,0,90,12.0,64.0
2246,57.0,60,150,3.0,64.0
2247,77.0,24,120,10.0,64.0
2248,60.0,24,90,11.0,64.0
2249,65.0,24,90,11.0,64.0
2250,60.0,0,90,11.0,64.0
2251,69.0,0,90,12.0,64.0
2252,65.0,0,90,11.0,64.0
2253,33.0,0,150,14.0,64.0
2254,76.0,12,390,1.0,64.0
2255,45.0,12,150,13.0,64.0
2256,60.0,0,90,11.0,64.0
2257,45.0,0,390,4.0,64.0
2258,45.0,60,150,3.0,64.0
2259,57.0,0,390,4.0,64.0
2260,76.0,0,390,0.0,64.0
2261,84.0,24,120,10.0,64.0
2262,69.0,24,90,12.0,64.0
2263,64.0,0,390,2.0,64.0
2264,60.0,0,90,11.0,64.0
2265,65.0,0,90,11.0,64.0
2266,69.0,120,90,12.0,64.0
2267,45.0,0,150,14.0,64.0
2268,65.0,24,90,11.0,64.0
2269,69.0,0,90,12.0,64.0
2270,57.0,0,150,13.0,64.0
2271,57.0,60,150,3.0,64.0
2272,60.0,0,90,11.0,64.0
2273,77.0,24,120,10.0,64.0
2274,65.0,0,90,11.0,64.0
2275,69.0,0,90,12.0,64.0
2276,60.0,144,90,11.0,64.0
2277,57.0,0,390,3.0,64.0
2278,59.0,0,390,12.0,64.0
2279,57.0,0,390,13.0,64.0
2280,63.0,0,390,11.0,64.0
2281,75.0,240,120,10.0,64.0
2282,45.0,0,390,14.0,64.0
2283,66.0,576,390,12.0,64.0
2284,83.0,24,120,10.0,64.0
2285,71.0,0,480,12.0,64.0
2286,64.0,0,960,10.0,64.0
2287,74.0,0,960,10.0,64.0
2288,56.0,0,480,3.0,64.0
2289,56.0,0,480,13.0,64.0
2290,56.0,0,480,13.0,64.0
2291,44.0,0,15,14.0,64.0
2292,71.0,0,480,12.0,64.0
2293,64.0,480,15,11.0,64.0
2294,56.0,384,480,3.0,64.0
2295,69.0,96,390,12.0,64.0
2296,45.0,0,390,14.0,64.0
2297,57.0,0,390,13.0,64.0
2298,57.0,0,390,3.0,64.0
2299,73.0,192,480,10.0,64.0
2300,70.0,0,180,10.0,64.0
2301,49.0,0,180,13.0,64.0
2302,67.0,0,180,12.0,64.0
2303,37.0,480,180,14.0,64.0
2304,62.0,0,180,11.0,64.0
2305,59.0,0,480,3.0,64.0
2306,50.0,0,180,13.0,64.0
2307,38.0,288,180,14.0,64.0
2308,71.0,0,180,10.0,64.0
2309,66.0,0,180,12.0,64.0
2310,83.0,0,480,0.0,64.0
2311,71.0,480,480,1.0,64.0
2312,82.0,0,480,0.0,64.0
2313,70.0,0,480,1.0,64.0
2314,58.0,384,480,3.0,64.0
2315,59.0,0,390,3.0,64.0
2316,83.0,288,390,0.0,64.0
2317,71.0,0,390,1.0,64.0
2318,40.0,480,180,14.0,64.0
2319,67.0,0,180,12.0,64.0
2320,52.0,0,180,13.0,64.0
2321,69.0,0,180,11.0,64.0
2322,73.0,0,180,10.0,64.0
2323,69.0,0,180,11.0,64.0
2324,42.0,288,180,14.0,64.0
2325,66.0,0,180,12.0,64.0
2326,62.0,0,480,3.0,64.0
2327,74.0,0,180,10.0,64.0
2328,74.0,0,480,1.0,64.0
2329,54.0,0,180,13.0,64.0
2330,86.0,480,480,0.0,64.0
2331,61.0,384,480,3.0,64.0
2332,85.0,0,480,0.0,64.0
2333,73.0,0,480,1.0,64.0
2334,74.0,0,390,1.0,64.0
2335,86.0,1008,390,0.0,64.0
2336,62.0,0,390,3.0,64.0
2337,78.0,168,900,10.0,64.0
2338,77.0,120,120,10.0,64.0
2339,78.0,120,120,10.0,64.0
2340,80.0,120,120,10.0,64.0
2341,78.0,120,120,10.0,64.0
2342,76.0,120,120,10.0,64.0
2343,74.0,120,120,10.0,64.0
2344,73.0,120,120,10.0,64.0
2345,71.0,192,120,10.0,64.0
2346,69.0,768,180,10.0,64.0
2347,60.0,0,480,11.0,64.0
2348,39.0,384,480,14.0,64.0
2349,51.0,0,480,13.0,64.0
2350,66.0,0,480,12.0,64.0
2351,69.0,0,870,10.0,64.0
2352,64.0,0,780,12.0,64.0
2353,40.0,72,780,14.0,64.0
2354,52.0,0,780,13.0,64.0
2355,61.0,384,390,11.0,64.0
2356,71.0,0,360,10.0,64.0
2357,62.0,96,360,11.0,64.0
2358,59.0,0,90,11.0,64.0
2359,68.0,120,90,10.0,64.0
2360,69.0,0,390,5.0,64.0
2361,69.0,0,390,11.0,64.0
2362,61.0,72,390,11.0,64.0
2363,57.0,0,390,4.0,64.0
2364,45.0,0,390,6.0,64.0
2365,64.0,0,390,4.0,64.0
2366,57.0,0,390,13.0,64.0
2367,64.0,0,390,11.0,64.0
2368,69.0,0,390,2.0,64.0
2369,76.0,0,390,1.0,64.0
2370,73.0,0,390,1.0,64.0
2371,69.0,0,390,12.0,64.0
2372,81.0,0,390,0.0,64.0
2373,57.0,0,390,3.0,64.0
2374,81.0,120,90,10.0,64.0
2375,64.0,0,390,2.0,64.0
2376,45.0,0,390,14.0,64.0
2377,81.0,120,90,10.0,64.0
2378,76.0,48,90,10.0,64.0
2379,76.0,120,90,10.0,64.0
2380,73.0,120,90,10.0,64.0
2381,73.0,120,90,10.0,64.0
2382,69.0,120,90,10.0,64.0
2383,69.0,120,90,10.0,64.0
2384,64.0,0,390,2.0,64.0
2385,56.0,0,390,13.0,64.0
2386,44.0,0,390,14.0,64.0
2387,56.0,72,390,3.0,64.0
2388,76.0,0,390,1.0,64.0
2389,83.0,0,390,0.0,64.0
2390,74.0,0,390,1.0,64.0
2391,68.0,0,390,12.0,64.0
2392,71.0,0,390,2.0,64.0
2393,83.0,120,90,10.0,64.0
2394,64.0,0,390,11.0,64.0
2395,74.0,0,390,11.0,64.0
2396,64.0,0,390,4.0,64.0
2397,83.0,120,90,10.0,64.0
2398,80.0,48,90,10.0,64.0
2399,80.0,120,90,10.0,64.0
2400,76.0,120,90,10.0,64.0
2401,76.0,120,90,10.0,64.0
2402,71.0,120,90,10.0,64.0
2403,71.0,120,90,10.0,64.0
2404,69.0,0,390,2.0,64.0
2405,45.0,0,390,14.0,64.0
2406,69.0,0,390,12.0,64.0
2407,45.0,0,390,6.0,64.0
2408,57.0,0,390,13.0,64.0
2409,64.0,0,390,11.0,64.0
2410,73.0,0,390,11.0,64.0
2411,76.0,0,390,11.0,64.0
2412,64.0,0,390,4.0,64.0
2413,76.0,0,390,1.0,64.0
2414,57.0,0,390,3.0,64.0
2415,85.0,120,90,10.0,64.0
2416,73.0,0,390,1.0,64.0
2417,57.0,0,390,4.0,64.0
2418,85.0,72,390,0.0,64.0
2419,64.0,0,390,2.0,64.0
2420,69.0,0,390,5.0,64.0
2421,85.0,120,90,10.0,64.0
2422,81.0,48,90,10.0,64.0
2423,81.0,120,90,10.0,64.0
2424,76.0,120,90,10.0,64.0
2425,76.0,120,90,10.0,64.0
2426,73.0,120,90,10.0,64.0
2427,73.0,120,90,10.0,64.0
2428,47.0,0,390,14.0,64.0
2429,74.0,72,390,2.0,64.0
2430,68.0,0,390,2.0,64.0
2431,64.0,0,390,4.0,64.0
2432,62.0,0,390,4.0,64.0
2433,86.0,120,90,10.0,64.0
2434,76.0,0,390,1.0,64.0
2435,80.0,0,390,1.0,64.0
2436,71.0,0,390,11.0,64.0
2437,80.0,0,390,11.0,64.0
2438,59.0,0,390,13.0,64.0
2439,59.0,0,390,3.0,64.0
2440,64.0,0,390,11.0,64.0
2441,86.0,0,390,0.0,64.0
2442,71.0,0,390,12.0,64.0
2443,86.0,120,90,10.0,64.0
2444,83.0,48,90,10.0,64.0
2445,83.0,120,90,10.0,64.0
2446,80.0,120,90,10.0,64.0
2447,80.0,120,90,10.0,64.0
2448,74.0,120,90,10.0,64.0
2449,74.0,120,90,10.0,64.0
2450,88.0,120,90,10.0,64.0
2451,57.0,0,390,4.0,64.0
2452,69.0,0,390,2.0,64.0
2453,61.0,0,390,3.0,64.0
2454,73.0,0,390,2.0,64.0
2455,64.0,0,390,4.0,64.0
2456,73.0,0,390,12.0,64.0
2457,76.0,48,1740,0.0,64.0
2458,45.0,0,390,6.0,64.0
2459,69.0,72,390,11.0,64.0
2460,81.0,0,390,11.0,64.0
2461,64.0,0,390,11.0,64.0
2462,76.0,0,390,1.0,64.0
2463,88.0,0,1740,0.0,64.0
2464,81.0,0,390,1.0,64.0
2465,61.0,0,390,13.0,64.0
2466,69.0,0,390,5.0,64.0
2467,49.0,0,390,14.0,64.0
2468,88.0,120,90,10.0,64.0
2469,85.0,48,90,10.0,64.0
2470,85.0,120,90,10.0,64.0
2471,81.0,120,90,10.0,64.0
2472,81.0,120,90,10.0,64.0
2473,73.0,0,180,12.0,64.0
2474,64.0,0,180,4.0,64.0
2475,76.0,72,90,10.0,64.0
2476,61.0,48,180,3.0,64.0
2477,61.0,0,180,13.0,64.0
2478,76.0,0,90,11.0,64.0
2479,49.0,0,180,14.0,64.0
2480,76.0,0,90,11.0,64.0
2481,76.0,120,90,10.0,64.0
2482,74.0,72,90,10.0,64.0
2483,59.0,0,180,3.0,64.0
2484,47.0,0,180,14.0,64.0
2485,59.0,0,180,13.0,64.0
2486,64.0,0,180,4.0,64.0
2487,74.0,0,90,11.0,64.0
2488,71.0,48,180,12.0,64.0
2489,74.0,0,90,11.0,64.0
2490,74.0,120,90,10.0,64.0
2491,56.0,0,180,3.0,64.0
2492,44.0,0,180,14.0,64.0
2493,68.0,0,180,12.0,64.0
2494,64.0,0,180,4.0,64.0
2495,71.0,72,90,10.0,64.0
2496,56.0,48,180,13.0,64.0
2497,71.0,0,90,11.0,64.0
2498,71.0,0,90,11.0,64.0
2499,71.0,120,90,10.0,64.0
2500,40.0,0,180,14.0,64.0
2501,52.0,0,180,3.0,64.0
2502,64.0,0,180,12.0,64.0
2503,68.0,0,90,10.0,64.0
2504,64.0,0,180,4.0,64.0
2505,68.0,72,90,11.0,64.0
2506,52.0,48,180,13.0,64.0
2507,68.0,0,90,10.0,64.0
2508,68.0,72,90,11.0,64.0
2509,56.0,0,180,13.0,64.0
2510,62.0,72,90,10.0,64.0
2511,56.0,0,180,3.0,64.0
2512,59.0,48,180,12.0,64.0
2513,64.0,0,180,4.0,64.0
2514,62.0,0,90,11.0,64.0
2515,44.0,0,180,14.0,64.0
2516,62.0,0,90,11.0,64.0
2517,62.0,264,90,10.0,64.0
2518,61.0,0,240,10.0,64.0
2519,57.0,0,480,12.0,64.0
2520,61.0,0,240,11.0,64.0
2521,76.0,0,570,5.0,64.0
2522,76.0,0,570,0.0,64.0
2523,88.0,0,570,0.0,64.0
2524,57.0,0,240,3.0,64.0
2525,69.0,0,480,2.0,64.0
2526,45.0,0,240,14.0,64.0
2527,73.0,0,240,1.0,64.0
2528,57.0,240,240,13.0,64.0
2529,64.0,60,570,4.0,64.0
2530,64.0,0,240,11.0,64.0
2531,76.0,0,240,1.0,64.0
2532,61.0,0,240,3.0,64.0
2533,49.0,0,240,14.0,64.0
2534,64.0,0,240,10.0,64.0
2535,61.0,0,240,13.0,64.0
2536,62.0,0,180,11.0,64.0
2537,56.0,0,180,12.0,64.0
2538,59.0,0,180,3.0,64.0
2539,62.0,36,150,10.0,64.0
2540,74.0,0,180,1.0,64.0
2541,68.0,0,180,2.0,64.0
2542,47.0,0,180,14.0,64.0
2543,64.0,96,15,2.0,64.0
2544,59.0,168,180,13.0,64.0
2545,71.0,120,120,10.0,64.0
2546,73.0,78,120,10.0,64.0
2547,74.0,120,90,10.0,64.0
2548,73.0,120,90,10.0,64.0
2549,71.0,120,90,10.0,64.0
2550,69.0,120,90,10.0,64.0
2551,68.0,120,90,10.0,64.0
2552,66.0,120,90,10.0,64.0
2553,64.0,120,90,10.0,64.0
2554,62.0,282,90,10.0,64.0
2555,45.0,0,240,14.0,64.0
2556,57.0,0,480,12.0,64.0
2557,57.0,240,240,13.0,64.0
2558,57.0,0,240,3.0,64.0
2559,76.0,0,570,5.0,64.0
2560,61.0,0,240,11.0,64.0
2561,88.0,0,570,0.0,64.0
2562,69.0,0,480,2.0,64.0
2563,76.0,60,570,0.0,64.0
2564,73.0,0,240,1.0,64.0
2565,64.0,0,570,4.0,64.0
2566,61.0,0,240,10.0,64.0
2567,64.0,0,240,11.0,64.0
2568,61.0,96,240,13.0,64.0
2569,76.0,0,240,1.0,64.0
2570,61.0,0,240,3.0,64.0
2571,64.0,0,240,10.0,64.0
2572,49.0,0,240,14.0,64.0
2573,74.0,0,180,1.0,64.0
2574,62.0,36,150,10.0,64.0
2575,59.0,168,180,3.0,64.0
2576,47.0,0,180,14.0,64.0
2577,62.0,0,180,11.0,64.0
2578,64.0,0,15,2.0,64.0
2579,56.0,0,180,12.0,64.0
2580,68.0,0,180,2.0,64.0
2581,59.0,0,180,13.0,64.0
2582,71.0,120,120,10.0,64.0
2583,73.0,78,120,10.0,64.0
2584,74.0,120,90,10.0,64.0
2585,73.0,120,90,10.0,64.0
2586,71.0,120,90,10.0,64.0
2587,69.0,120,90,10.0,64.0
2588,68.0,120,90,10.0,64.0
2589,66.0,120,90,10.0,64.0
2590,64.0,120,90,10.0,64.0
2591,62.0,138,90,10.0,64.0
2592,61.0,120,90,10.0,64.0
2593,64.0,120,90,10.0,64.0
2594,49.0,0,240,13.0,64.0
2595,69.0,0,90,11.0,64.0
2596,37.0,0,240,14.0,64.0
2597,49.0,96,240,3.0,64.0
2598,57.0,0,480,12.0,64.0
2599,69.0,120,90,10.0,64.0
2600,67.0,0,90,10.0,64.0
2601,67.0,24,90,11.0,64.0
2602,38.0,0,240,14.0,64.0
2603,50.0,0,240,13.0,64.0
2604,66.0,0,90,11.0,64.0
2605,66.0,120,90,10.0,64.0
2606,50.0,96,240,3.0,64.0
2607,62.0,24,90,10.0,64.0
2608,62.0,0,90,11.0,64.0
2609,71.0,120,90,10.0,64.0
2610,51.0,0,240,13.0,64.0
2611,71.0,0,90,11.0,64.0
2612,39.0,96,240,14.0,64.0
2613,59.0,0,480,12.0,64.0
2614,51.0,0,240,3.0,64.0
2615,69.0,24,90,10.0,64.0
2616,69.0,0,90,11.0,64.0
2617,68.0,0,90,10.0,64.0
2618,52.0,0,240,13.0,64.0
2619,40.0,0,240,14.0,64.0
2620,68.0,120,90,11.0,64.0
2621,52.0,96,240,3.0,64.0
2622,64.0,24,90,10.0,64.0
2623,64.0,0,90,11.0,64.0
2624,41.0,0,180,14.0,64.0
2625,53.0,24,180,13.0,64.0
2626,61.0,72,480,12.0,64.0
2627,53.0,0,180,3.0,64.0
2628,73.0,96,90,10.0,64.0
2629,73.0,0,90,11.0,64.0
2630,71.0,0,90,10.0,64.0
2631,71.0,120,90,11.0,64.0
2632,69.0,120,90,10.0,64.0
2633,54.0,6,300,3.0,64.0
2634,54.0,0,300,13.0,64.0
2635,69.0,0,90,11.0,64.0
2636,42.0,0,300,14.0,64.0
2637,66.0,0,90,11.0,64.0
2638,66.0,24,90,10.0,64.0
2639,62.0,72,480,12.0,64.0
2640,74.0,102,90,11.0,64.0
2641,74.0,18,90,1.0,64.0
2642,74.0,0,90,10.0,64.0
2643,73.0,18,90,1.0,64.0
2644,73.0,0,90,10.0,64.0
2645,73.0,120,90,11.0,64.0
2646,56.0,0,300,3.0,64.0
2647,56.0,0,300,13.0,64.0
2648,44.0,6,300,14.0,64.0
2649,71.0,0,90,10.0,64.0
2650,71.0,60,150,1.0,64.0
2651,71.0,60,90,11.0,64.0
2652,68.0,0,90,11.0,64.0
2653,68.0,24,90,10.0,64.0
2654,64.0,72,480,12.0,64.0
2655,76.0,18,90,1.0,64.0
2656,76.0,0,90,11.0,64.0
2657,76.0,102,90,10.0,64.0
2658,74.0,120,90,11.0,64.0
2659,74.0,18,90,1.0,64.0
2660,74.0,0,90,10.0,64.0
2661,45.0,0,300,14.0,64.0
2662,73.0,0,90,11.0,64.0
2663,73.0,60,90,10.0,64.0
2664,57.0,0,300,13.0,64.0
2665,73.0,60,150,1.0,64.0
2666,57.0,6,300,3.0,64.0
2667,69.0,0,90,11.0,64.0
2668,69.0,24,90,10.0,64.0
2669,78.0,18,90,1.0,64.0
2670,78.0,0,90,11.0,64.0
2671,66.0,42,150,12.0,64.0
2672,78.0,60,90,10.0,64.0
2673,76.0,0,90,11.0,64.0
2674,76.0,18,90,1.0,64.0
2675,76.0,120,90,10.0,64.0
2676,47.0,0,390,14.0,64.0
2677,86.0,72,870,0.0,64.0
2678,74.0,120,90,11.0,64.0
2679,59.0,0,390,13.0,64.0
2680,62.0,72,390,4.0,64.0
2681,78.0,0,390,0.0,64.0
2682,66.0,0,390,4.0,64.0
2683,66.0,0,390,12.0,64.0
2684,59.0,0,390,3.0,64.0
2685,74.0,0,390,1.0,64.0
2686,74.0,0,90,10.0,64.0
2687,73.0,120,90,10.0,64.0
2688,73.0,0,90,11.0,64.0
2689,71.0,0,90,11.0,64.0
2690,71.0,48,90,10.0,64.0
2691,73.0,120,90,10.0,64.0
2692,73.0,0,90,11.0,64.0
2693,71.0,0,390,1.0,64.0
2694,52.0,0,390,13.0,64.0
2695,68.0,0,390,1.0,64.0
2696,74.0,0,90,11.0,64.0
2697,80.0,0,390,0.0,64.0
2698,74.0,120,90,10.0,64.0
2699,40.0,0,390,14.0,64.0
2700,64.0,0,390,4.0,64.0
2701,64.0,0,390,12.0,64.0
2702,52.0,0,390,3.0,64.0
2703,76.0,0,90,11.0,64.0
2704,76.0,120,90,10.0,64.0
2705,78.0,48,90,11.0,64.0
2706,78.0,0,90,10.0,64.0
2707,80.0,0,90,10.0,64.0
2708,80.0,144,90,11.0,64.0
2709,57.0,0,390,13.0,64.0
2710,57.0,96,390,3.0,64.0
2711,57.0,0,780,4.0,64.0
2712,57.0,72,780,2.0,64.0
2713,81.0,0,120,11.0,64.0
2714,69.0,0,390,5.0,64.0
2715,85.0,0,180,0.0,64.0
2716,45.0,0,390,14.0,64.0
2717,69.0,0,780,1.0,64.0
2718,45.0,0,390,6.0,64.0
2719,69.0,0,120,12.0,64.0
2720,81.0,72,120,10.0,64.0
2721,81.0,48,180,0.0,64.0
2722,68.0,0,120,12.0,64.0
2723,80.0,120,120,11.0,64.0
2724,80.0,0,120,10.0,64.0
2725,66.0,24,120,12.0,64.0
2726,78.0,0,120,10.0,64.0
2727,78.0,0,120,11.0,64.0
2728,77.0,120,120,11.0,64.0
2729,65.0,0,120,12.0,64.0
2730,77.0,0,120,10.0,64.0
2731,78.0,120,120,10.0,64.0
2732,66.0,0,120,12.0,64.0
2733,78.0,0,120,11.0,64.0
2734,64.0,48,120,12.0,64.0
2735,76.0,0,120,11.0,64.0
2736,76.0,0,120,10.0,64.0
2737,74.0,96,120,11.0,64.0
2738,74.0,0,120,10.0,64.0
2739,62.0,0,120,12.0,64.0
2740,73.0,0,90,10.0,64.0
2741,61.0,120,90,12.0,64.0
2742,73.0,0,90,11.0,64.0
2743,86.0,0,120,0.0,64.0
2744,74.0,96,120,11.0,64.0
2745,62.0,24,90,13.0,64.0
2746,62.0,0,120,12.0,64.0
2747,62.0,0,390,5.0,64.0
2748,66.0,48,780,4.0,64.0
2749,50.0,0,90,14.0,64.0
2750,62.0,0,90,3.0,64.0
2751,78.0,0,780,1.0,64.0
2752,66.0,0,780,2.0,64.0
2753,74.0,0,120,10.0,64.0
2754,74.0,0,390,5.0,64.0
2755,50.0,72,390,6.0,64.0
2756,73.0,0,120,10.0,64.0
2757,61.0,0,90,3.0,64.0
2758,49.0,0,90,14.0,64.0
2759,85.0,0,120,0.0,64.0
2760,61.0,24,90,13.0,64.0
2761,61.0,0,120,12.0,64.0
2762,73.0,96,120,11.0,64.0
2763,59.0,0,90,13.0,64.0
2764,59.0,24,90,3.0,64.0
2765,59.0,0,120,12.0,64.0
2766,71.0,0,120,10.0,64.0
2767,83.0,24,120,0.0,64.0
2768,71.0,0,120,11.0,64.0
2769,47.0,0,90,14.0,64.0
2770,69.0,96,120,11.0,64.0
2771,57.0,0,90,13.0,64.0
2772,45.0,0,90,14.0,64.0
2773,69.0,0,120,10.0,64.0
2774,81.0,0,120,0.0,64.0
2775,57.0,0,120,12.0,64.0
2776,57.0,24,90,3.0,64.0
2777,47.0,24,90,14.0,64.0
2778,83.0,0,120,0.0,64.0
2779,59.0,0,90,3.0,64.0
2780,71.0,0,120,10.0,64.0
2781,71.0,0,120,11.0,64.0
2782,59.0,96,120,12.0,64.0
2783,59.0,0,90,13.0,64.0
2784,57.0,0,120,12.0,64.0
2785,69.0,0,120,11.0,64.0
2786,45.0,0,90,14.0,64.0
2787,81.0,0,120,0.0,64.0
2788,57.0,24,90,13.0,64.0
2789,69.0,48,120,10.0,64.0
2790,57.0,0,90,3.0,64.0
2791,55.0,24,90,13.0,64.0
2792,55.0,0,90,3.0,64.0
2793,80.0,96,120,0.0,64.0
2794,43.0,0,90,14.0,64.0
2795,68.0,0,120,10.0,64.0
2796,68.0,0,120,11.0,64.0
2797,56.0,0,120,12.0,64.0
2798,54.0,0,90,12.0,64.0
2799,54.0,0,90,3.0,64.0
2800,66.0,0,90,10.0,64.0
2801,66.0,180,90,11.0,64.0
2802,42.0,0,90,14.0,64.0
2803,78.0,0,90,0.0,64.0
2804,54.0,0,90,13.0,64.0
2805,40.0,0,150,14.0,64.0
2806,52.0,0,150,12.0,64.0
2807,64.0,0,150,11.0,64.0
2808,52.0,0,150,3.0,64.0
2809,76.0,162,150,0.0,64.0
2810,64.0,12,390,2.0,64.0
2811,52.0,0,150,13.0,64.0
2812,64.0,0,390,4.0,64.0
2813,64.0,0,150,10.0,64.0
2814,76.0,0,390,1.0,64.0
2815,56.0,0,90,12.0,64.0
2816,62.0,0,150,3.0,64.0
2817,68.0,0,90,11.0,64.0
2818,80.0,0,90,0.0,64.0
2819,62.0,42,150,13.0,64.0
2820,50.0,0,150,14.0,64.0
2821,68.0,66,90,10.0,64.0
2822,83.0,198,90,0.0,64.0
2823,71.0,0,90,11.0,64.0
2824,71.0,0,90,10.0,64.0
2825,59.0,0,90,12.0,64.0
2826,61.0,0,150,3.0,64.0
2827,49.0,0,150,14.0,64.0
2828,76.0,0,150,10.0,64.0
2829,76.0,0,150,11.0,64.0
2830,88.0,0,150,0.0,64.0
2831,61.0,240,150,13.0,64.0
2832,64.0,0,150,12.0,64.0
2833,45.0,0,150,14.0,64.0
2834,81.0,0,150,10.0,64.0
2835,61.0,0,150,12.0,64.0
2836,57.0,0,180,4.0,64.0
2837,69.0,0,150,10.0,64.0
2838,81.0,0,150,11.0,64.0
2839,64.0,0,180,4.0,64.0
2840,81.0,0,150,0.0,64.0
2841,69.0,0,150,11.0,64.0
2842,69.0,204,180,1.0,64.0
2843,76.0,0,180,1.0,64.0
2844,57.0,0,150,3.0,64.0
2845,57.0,36,150,13.0,64.0
2846,88.0,0,150,0.0,64.0
2847,78.0,0,180,11.0,64.0
2848,62.0,36,150,12.0,64.0
2849,69.0,0,180,11.0,64.0
2850,62.0,0,150,13.0,64.0
2851,62.0,0,180,11.0,64.0
2852,69.0,204,180,10.0,64.0
2853,78.0,0,180,0.0,64.0
2854,78.0,0,180,10.0,64.0
2855,50.0,0,150,14.0,64.0
2856,62.0,0,150,3.0,64.0
2857,62.0,0,180,10.0,64.0
2858,66.0,0,180,4.0,64.0
2859,62.0,0,180,4.0,64.0
2860,78.0,0,180,1.0,64.0
2861,69.0,0,180,1.0,64.0
2862,88.0,0,180,0.0,64.0
2863,59.0,0,150,12.0,64.0
2864,59.0,240,150,3.0,64.0
2865,59.0,0,150,13.0,64.0
2866,47.0,0,150,14.0,64.0
2867,52.0,0,150,14.0,64.0
2868,71.0,0,180,10.0,64.0
2869,76.0,0,180,10.0,64.0
2870,68.0,0,180,1.0,64.0
2871,71.0,0,180,11.0,64.0
2872,64.0,36,150,3.0,64.0
2873,64.0,0,150,12.0,64.0
2874,68.0,0,180,11.0,64.0
2875,76.0,0,180,11.0,64.0
2876,80.0,204,180,0.0,64.0
2877,83.0,0,180,0.0,64.0
2878,68.0,0,180,10.0,64.0
2879,76.0,0,180,1.0,64.0
2880,64.0,0,180,4.0,64.0
2881,64.0,0,150,13.0,64.0
2882,52.0,0,150,12.0,64.0
2883,52.0,204,150,3.0,64.0
2884,40.0,0,150,14.0,64.0
2885,52.0,0,150,13.0,64.0
2886,81.0,0,120,11.0,64.0
2887,45.0,0,390,6.0,64.0
2888,69.0,96,390,5.0,64.0
2889,69.0,0,120,12.0,64.0
2890,57.0,0,780,2.0,64.0
2891,57.0,0,390,3.0,64.0
2892,57.0,0,780,4.0,64.0
2893,57.0,0,390,13.0,64.0
2894,45.0,0,390,14.0,64.0
2895,81.0,120,120,10.0,64.0
2896,69.0,72,780,1.0,64.0
2897,68.0,120,120,12.0,64.0
2898,80.0,0,120,11.0,64.0
2899,80.0,0,120,10.0,64.0
2900,78.0,0,120,10.0,64.0
2901,78.0,0,120,11.0,64.0
2902,66.0,24,120,12.0,64.0
2903,77.0,0,120,11.0,64.0
2904,65.0,0,120,12.0,64.0
2905,77.0,120,120,10.0,64.0
2906,66.0,0,120,12.0,64.0
2907,78.0,0,120,11.0,64.0
2908,78.0,120,120,10.0,64.0
2909,64.0,0,120,12.0,64.0
2910,76.0,0,120,10.0,64.0
2911,76.0,48,120,11.0,64.0
2912,62.0,96,120,12.0,64.0
2913,74.0,0,120,10.0,64.0
2914,74.0,0,120,11.0,64.0
2915,73.0,120,90,10.0,64.0
2916,61.0,0,90,12.0,64.0
2917,73.0,0,90,11.0,64.0
2918,86.0,0,120,0.0,64.0
2919,62.0,0,90,13.0,64.0
2920,78.0,0,780,1.0,64.0
2921,50.0,0,90,14.0,64.0
2922,74.0,0,390,5.0,64.0
2923,66.0,48,780,2.0,64.0
2924,74.0,0,120,11.0,64.0
2925,62.0,24,90,3.0,64.0
2926,62.0,72,390,5.0,64.0
2927,62.0,0,120,12.0,64.0
2928,74.0,96,120,10.0,64.0
2929,66.0,0,780,4.0,64.0
2930,50.0,0,390,6.0,64.0
2931,49.0,24,90,14.0,64.0
2932,73.0,0,120,11.0,64.0
2933,85.0,0,120,0.0,64.0
2934,73.0,0,120,10.0,64.0
2935,61.0,0,90,3.0,64.0
2936,61.0,0,90,13.0,64.0
2937,61.0,96,120,12.0,64.0
2938,59.0,24,120,12.0,64.0
2939,71.0,0,120,11.0,64.0
2940,83.0,0,120,0.0,64.0
2941,71.0,0,120,10.0,64.0
2942,59.0,0,90,13.0,64.0
2943,47.0,0,90,14.0,64.0
2944,59.0,24,90,3.0,64.0
2945,69.0,0,120,10.0,64.0
2946,57.0,24,90,13.0,64.0
2947,69.0,0,120,11.0,64.0
2948,57.0,0,90,3.0,64.0
2949,81.0,96,120,0.0,64.0
2950,57.0,0,120,12.0,64.0
2951,45.0,0,90,14.0,64.0
2952,59.0,24,90,13.0,64.0
2953,71.0,96,120,11.0,64.0
2954,83.0,0,120,0.0,64.0
2955,59.0,0,120,12.0,64.0
2956,47.0,0,90,14.0,64.0
2957,71.0,0,120,10.0,64.0
2958,59.0,0,90,3.0,64.0
2959,57.0,0,90,3.0,64.0
2960,45.0,0,90,14.0,64.0
2961,69.0,0,120,11.0,64.0
2962,57.0,48,120,12.0,64.0
2963,81.0,0,120,0.0,64.0
2964,69.0,0,120,10.0,64.0
2965,57.0,24,90,13.0,64.0
2966,68.0,96,120,10.0,64.0
2967,68.0,0,120,11.0,64.0
2968,80.0,0,120,0.0,64.0
2969,56.0,0,120,12.0,64.0
2970,55.0,0,90,3.0,64.0
2971,43.0,0,90,14.0,64.0
2972,55.0,24,90,13.0,64.0
2973,42.0,0,90,14.0,64.0
2974,66.0,180,90,10.0,64.0
2975,54.0,0,90,3.0,64.0
2976,78.0,0,90,0.0,64.0
2977,54.0,0,90,13.0,64.0
2978,66.0,0,90,11.0,64.0
2979,54.0,0,90,12.0,64.0
2980,64.0,0,390,4.0,64.0
2981,76.0,12,390,1.0,64.0
2982,52.0,0,150,12.0,64.0
2983,52.0,0,150,3.0,64.0
2984,76.0,0,150,0.0,64.0
2985,52.0,162,150,13.0,64.0
2986,64.0,0,390,2.0,64.0
2987,40.0,0,150,14.0,64.0
2988,64.0,0,150,11.0,64.0
2989,64.0,0,150,10.0,64.0
2990,68.0,0,90,10.0,64.0
2991,50.0,42,150,14.0,64.0
2992,62.0,0,150,3.0,64.0
2993,56.0,0,90,12.0,64.0
2994,62.0,0,150,13.0,64.0
2995,68.0,0,90,11.0,64.0
2996,80.0,66,90,0.0,64.0
2997,83.0,0,90,0.0,64.0
2998,71.0,0,90,10.0,64.0
2999,59.0,198,90,12.0,64.0
3000,71.0,0,90,11.0,64.0
3001,88.0,0,150,0.0,64.0
3002,64.0,0,150,12.0,64.0
3003,61.0,240,150,3.0,64.0
3004,61.0,0,150,13.0,64.0
3005,76.0,0,150,11.0,64.0
3006,76.0,0,150,10.0,64.0
3007,49.0,0,150,14.0,64.0
3008,45.0,0,150,14.0,64.0
3009,76.0,0,180,1.0,64.0
3010,57.0,0,150,13.0,64.0
3011,61.0,0,150,12.0,64.0
3012,69.0,0,150,10.0,64.0
3013,81.0,0,150,10.0,64.0
3014,69.0,0,150,11.0,64.0
3015,81.0,36,150,11.0,64.0
3016,88.0,0,150,0.0,64.0
3017,57.0,0,150,3.0,64.0
3018,81.0,0,150,0.0,64.0
3019,69.0,0,180,1.0,64.0
3020,64.0,0,180,4.0,64.0
3021,57.0,204,180,4.0,64.0
3022,78.0,0,180,10.0,64.0
3023,69.0,0,180,10.0,64.0
3024,50.0,36,150,14.0,64.0
3025,62.0,0,180,10.0,64.0
3026,69.0,0,180,1.0,64.0
3027,62.0,0,180,11.0,64.0
3028,62.0,0,150,12.0,64.0
3029,62.0,0,150,3.0,64.0
3030,78.0,0,180,11.0,64.0
3031,69.0,204,180,11.0,64.0
3032,78.0,0,180,0.0,64.0
3033,62.0,0,180,4.0,64.0
3034,66.0,0,180,4.0,64.0
3035,62.0,0,150,13.0,64.0
3036,78.0,0,180,1.0,64.0
3037,88.0,0,180,0.0,64.0
3038,59.0,0,150,3.0,64.0
3039,59.0,240,150,12.0,64.0
3040,47.0,0,150,14.0,64.0
3041,59.0,0,150,13.0,64.0
3042,68.0,204,180,1.0,64.0
3043,64.0,0,150,13.0,64.0
3044,76.0,0,180,10.0,64.0
3045,52.0,0,150,14.0,64.0
3046,76.0,0,180,11.0,64.0
3047,71.0,0,180,11.0,64.0
3048,68.0,0,180,10.0,64.0
3049,76.0,0,180,1.0,64.0
3050,71.0,0,180,10.0,64.0
3051,68.0,0,180,11.0,64.0
3052,64.0,0,150,12.0,64.0
3053,64.0,0,180,4.0,64.0
3054,83.0,0,180,0.0,64.0
3055,64.0,36,150,3.0,64.0
3056,80.0,0,180,0.0,64.0
3057,52.0,0,150,13.0,64.0
3058,40.0,0,150,14.0,64.0
3059,52.0,0,150,12.0,64.0
3060,52.0,180,150,3.0,64.0
3061,81.0,0,90,0.0,64.0
3062,45.0,0,180,6.0,64.0
3063,57.0,0,390,12.0,64.0
3064,64.0,0,390,4.0,64.0
3065,76.0,0,1920,1.0,64.0
3066,45.0,0,390,14.0,64.0
3067,57.0,0,390,3.0,64.0
3068,57.0,0,480,2.0,64.0
3069,73.0,96,480,1.0,64.0
3070,69.0,0,480,2.0,64.0
3071,69.0,0,180,5.0,64.0
3072,76.0,24,180,5.0,64.0
3073,69.0,96,90,10.0,64.0
3074,69.0,0,390,11.0,64.0
3075,57.0,72,390,4.0,64.0
3076,57.0,0,390,13.0,64.0
3077,76.0,0,90,10.0,64.0
3078,76.0,120,90,0.0,64.0
3079,73.0,48,90,10.0,64.0
3080,73.0,0,90,0.0,64.0
3081,69.0,24,90,10.0,64.0
3082,69.0,0,90,0.0,64.0
3083,64.0,0,480,2.0,64.0
3084,74.0,0,90,0.0,64.0
3085,74.0,120,90,10.0,64.0
3086,68.0,96,240,2.0,64.0
3087,71.0,0,240,1.0,64.0
3088,71.0,0,90,0.0,64.0
3089,71.0,24,90,10.0,64.0
3090,80.0,0,90,10.0,64.0
3091,76.0,0,180,11.0,64.0
3092,74.0,0,180,11.0,64.0
3093,71.0,0,180,12.0,64.0
3094,64.0,0,180,12.0,64.0
3095,71.0,96,240,2.0,64.0
3096,52.0,0,180,3.0,64.0
3097,74.0,0,240,1.0,64.0
3098,80.0,96,90,0.0,64.0
3099,64.0,0,180,4.0,64.0
3100,52.0,0,180,13.0,64.0
3101,40.0,24,180,14.0,64.0
3102,76.0,0,90,10.0,64.0
3103,76.0,24,90,0.0,64.0
3104,73.0,0,390,11.0,64.0
3105,64.0,0,390,4.0,64.0
3106,81.0,96,90,10.0,64.0
3107,76.0,72,390,11.0,64.0
3108,57.0,0,390,4.0,64.0
3109,76.0,24,180,5.0,64.0
3110,57.0,0,390,3.0,64.0
3111,57.0,0,390,13.0,64.0
3112,45.0,0,180,6.0,64.0
3113,45.0,0,390,14.0,64.0
3114,69.0,0,390,12.0,64.0
3115,69.0,0,180,5.0,64.0
3116,64.0,0,390,12.0,64.0
3117,69.0,96,480,2.0,64.0
3118,57.0,0,480,2.0,64.0
3119,73.0,0,480,1.0,64.0
3120,81.0,0,90,0.0,64.0
3121,76.0,120,90,10.0,64.0
3122,76.0,0,90,0.0,64.0
3123,73.0,0,90,0.0,64.0
3124,73.0,48,90,10.0,64.0
3125,69.0,0,90,10.0,64.0
3126,69.0,24,90,0.0,64.0
3127,74.0,120,90,10.0,64.0
3128,64.0,0,480,2.0,64.0
3129,68.0,0,240,2.0,64.0
3130,71.0,96,240,1.0,64.0
3131,74.0,0,90,0.0,64.0
3132,71.0,24,90,10.0,64.0
3133,71.0,0,90,0.0,64.0
3134,52.0,0,180,3.0,64.0
3135,64.0,0,180,12.0,64.0
3136,76.0,0,180,11.0,64.0
3137,74.0,96,240,1.0,64.0
3138,64.0,0,180,4.0,64.0
3139,80.0,96,90,10.0,64.0
3140,52.0,0,180,13.0,64.0
3141,71.0,0,180,12.0,64.0
3142,71.0,0,240,2.0,64.0
3143,40.0,24,180,14.0,64.0
3144,74.0,0,180,11.0,64.0
3145,80.0,0,90,0.0,64.0
3146,76.0,24,90,0.0,64.0
3147,76.0,0,90,10.0,64.0
3148,69.0,0,180,2.0,64.0
3149,64.0,0,390,4.0,64.0
3150,57.0,0,390,4.0,64.0
3151,81.0,96,90,10.0,64.0
3152,57.0,0,390,3.0,64.0
3153,57.0,0,180,2.0,64.0
3154,73.0,0,90,11.0,64.0
3155,76.0,0,90,11.0,64.0
3156,69.0,0,390,12.0,64.0
3157,45.0,0,390,14.0,64.0
3158,57.0,72,390,12.0,64.0
3159,69.0,0,180,5.0,64.0
3160,45.0,0,180,6.0,64.0
3161,76.0,0,180,1.0,64.0
3162,73.0,0,180,1.0,64.0
3163,81.0,24,180,0.0,64.0
3164,76.0,0,180,5.0,64.0
3165,57.0,0,390,13.0,64.0
3166,64.0,0,390,12.0,64.0
3167,81.0,0,90,11.0,64.0
3168,81.0,120,90,10.0,64.0
3169,80.0,48,90,10.0,64.0
3170,80.0,0,90,11.0,64.0
3171,78.0,0,90,11.0,64.0
3172,78.0,120,90,10.0,64.0
3173,76.0,120,90,10.0,64.0
3174,76.0,0,90,11.0,64.0
3175,78.0,120,90,11.0,64.0
3176,78.0,0,90,10.0,64.0
3177,74.0,120,90,10.0,64.0
3178,74.0,0,90,11.0,64.0
3179,76.0,0,90,10.0,64.0
3180,76.0,120,90,11.0,64.0
3181,73.0,120,90,11.0,64.0
3182,73.0,0,90,10.0,64.0
3183,78.0,0,90,10.0,64.0
3184,78.0,120,90,11.0,64.0
3185,76.0,0,90,10.0,64.0
3186,76.0,120,90,11.0,64.0
3187,74.0,0,90,11.0,64.0
3188,74.0,120,90,10.0,64.0
3189,73.0,120,90,10.0,64.0
3190,73.0,0,90,11.0,64.0
3191,74.0,120,90,10.0,64.0
3192,74.0,0,90,11.0,64.0
3193,71.0,120,90,11.0,64.0
3194,71.0,0,90,10.0,64.0
3195,73.0,0,90,11.0,64.0
3196,73.0,102,90,10.0,64.0
3197,45.0,0,390,6.0,64.0
3198,57.0,0,90,13.0,64.0
3199,69.0,0,390,1.0,64.0
3200,69.0,54,390,5.0,64.0
3201,69.0,120,90,10.0,64.0
3202,81.0,0,390,0.0,64.0
3203,57.0,0,390,2.0,64.0
3204,57.0,0,390,4.0,64.0
3205,45.0,0,90,14.0,64.0
3206,57.0,0,90,3.0,64.0
3207,69.0,0,90,12.0,64.0
3208,69.0,0,90,11.0,64.0
3209,73.0,120,90,10.0,64.0
3210,61.0,0,90,13.0,64.0
3211,49.0,0,90,14.0,64.0
3212,73.0,0,90,11.0,64.0
3213,61.0,0,90,3.0,64.0
3214,73.0,0,90,12.0,64.0
3215,47.0,0,90,14.0,64.0
3216,59.0,0,90,13.0,64.0
3217,71.0,0,90,10.0,64.0
3218,71.0,0,90,12.0,64.0
3219,59.0,66,90,3.0,64.0
3220,71.0,0,90,11.0,64.0
3221,69.0,0,90,11.0,64.0
3222,45.0,0,90,14.0,64.0
3223,69.0,0,90,12.0,64.0
3224,69.0,0,90,10.0,64.0
3225,57.0,120,90,13.0,64.0
3226,57.0,0,90,3.0,64.0
3227,57.0,0,150,4.0,64.0
3228,68.0,0,90,11.0,64.0
3229,68.0,0,90,10.0,64.0
3230,69.0,0,150,1.0,64.0
3231,56.0,0,90,13.0,64.0
3232,56.0,0,90,3.0,64.0
3233,68.0,0,90,12.0,64.0
3234,81.0,0,150,0.0,64.0
3235,69.0,0,150,5.0,64.0
3236,57.0,42,150,2.0,64.0
3237,44.0,78,90,14.0,64.0
3238,45.0,0,90,14.0,64.0
3239,69.0,0,90,11.0,64.0
3240,57.0,0,90,13.0,64.0
3241,69.0,120,90,12.0,64.0
3242,69.0,0,90,10.0,64.0
3243,57.0,0,90,3.0,64.0
3244,66.0,0,90,11.0,64.0
3245,54.0,0,90,13.0,64.0
3246,69.0,0,150,1.0,64.0
3247,42.0,0,90,14.0,64.0
3248,66.0,0,90,10.0,64.0
3249,81.0,42,150,0.0,64.0
3250,66.0,18,90,12.0,64.0
3251,57.0,0,150,2.0,64.0
3252,45.0,60,90,6.0,64.0
3253,57.0,0,150,4.0,64.0
3254,69.0,0,150,5.0,64.0
3255,54.0,0,90,3.0,64.0
3256,44.0,0,90,14.0,64.0
3257,56.0,0,90,13.0,64.0
3258,68.0,0,90,12.0,64.0
3259,45.0,102,90,6.0,64.0
3260,68.0,18,90,10.0,64.0
3261,68.0,0,90,11.0,64.0
3262,56.0,0,90,3.0,64.0
3263,73.0,0,390,1.0,64.0
3264,45.0,0,390,6.0,64.0
3265,52.0,0,90,13.0,64.0
3266,40.0,120,90,14.0,64.0
3267,69.0,0,390,5.0,64.0
3268,64.0,0,90,12.0,64.0
3269,57.0,54,390,4.0,64.0
3270,61.0,0,390,2.0,64.0
3271,52.0,0,90,3.0,64.0
3272,85.0,0,390,0.0,64.0
3273,64.0,0,90,11.0,64.0
3274,64.0,0,90,10.0,64.0
3275,69.0,0,90,10.0,64.0
3276,69.0,0,90,12.0,64.0
3277,57.0,0,90,13.0,64.0
3278,69.0,0,90,11.0,64.0
3279,57.0,120,90,3.0,64.0
3280,45.0,0,90,14.0,64.0
3281,56.0,66,90,13.0,64.0
3282,44.0,0,90,14.0,64.0
3283,68.0,0,90,11.0,64.0
3284,68.0,0,90,12.0,64.0
3285,68.0,0,90,10.0,64.0
3286,56.0,0,90,3.0,64.0
3287,54.0,0,90,3.0,64.0
3288,66.0,0,90,10.0,64.0
3289,42.0,120,90,14.0,64.0
3290,66.0,0,90,12.0,64.0
3291,66.0,0,90,11.0,64.0
3292,54.0,0,90,13.0,64.0
3293,61.0,0,150,2.0,64.0
3294,64.0,0,90,11.0,64.0
3295,64.0,0,90,10.0,64.0
3296,57.0,0,150,4.0,64.0
3297,52.0,0,90,3.0,64.0
3298,69.0,42,150,5.0,64.0
3299,40.0,78,90,14.0,64.0
3300,73.0,0,150,1.0,64.0
3301,52.0,0,90,13.0,64.0
3302,64.0,0,90,12.0,64.0
3303,85.0,0,150,0.0,64.0
3304,42.0,0,90,14.0,64.0
3305,54.0,0,90,13.0,64.0
3306,66.0,0,90,11.0,64.0
3307,66.0,120,90,10.0,64.0
3308,66.0,0,90,12.0,64.0
3309,54.0,0,90,3.0,64.0
3310,69.0,0,150,5.0,64.0
3311,62.0,0,90,12.0,64.0
3312,73.0,42,150,1.0,64.0
3313,61.0,0,150,2.0,64.0
3314,50.0,0,90,13.0,64.0
3315,62.0,18,90,11.0,64.0
3316,57.0,0,150,4.0,64.0
3317,45.0,60,90,6.0,64.0
3318,85.0,0,150,0.0,64.0
3319,50.0,0,90,3.0,64.0
3320,38.0,0,90,14.0,64.0
3321,62.0,0,90,10.0,64.0
3322,64.0,0,90,10.0,64.0
3323,52.0,0,90,3.0,64.0
3324,40.0,18,90,14.0,64.0
3325,64.0,0,90,12.0,64.0
3326,64.0,0,90,11.0,64.0
3327,45.0,102,90,6.0,64.0
3328,52.0,0,90,13.0,64.0
3329,76.0,0,390,1.0,64.0
3330,88.0,0,390,0.0,64.0
3331,37.0,0,90,14.0,64.0
3332,61.0,0,90,12.0,64.0
3333,61.0,0,90,10.0,64.0
3334,49.0,0,90,13.0,64.0
3335,69.0,0,390,5.0,64.0
3336,45.0,54,390,6.0,64.0
3337,61.0,0,90,11.0,64.0
3338,64.0,0,390,2.0,64.0
3339,49.0,120,90,3.0,64.0
3340,57.0,0,390,4.0,64.0
3341,54.0,0,90,13.0,64.0
3342,42.0,0,90,14.0,64.0
3343,54.0,0,90,3.0,64.0
3344,66.0,0,90,10.0,64.0
3345,66.0,120,90,12.0,64.0
3346,66.0,0,90,11.0,64.0
3347,52.0,0,90,13.0,64.0
3348,64.0,0,90,10.0,64.0
3349,52.0,0,90,3.0,64.0
3350,40.0,0,90,14.0,64.0
3351,64.0,66,90,11.0,64.0
3352,64.0,0,90,12.0,64.0
3353,62.0,0,90,11.0,64.0
3354,38.0,0,90,14.0,64.0
3355,50.0,0,90,3.0,64.0
3356,62.0,0,90,12.0,64.0
3357,62.0,0,90,10.0,64.0
3358,50.0,120,90,13.0,64.0
3359,61.0,0,90,10.0,64.0
3360,61.0,0,90,12.0,64.0
3361,57.0,0,150,4.0,64.0
3362,61.0,0,90,11.0,64.0
3363,37.0,0,90,14.0,64.0
3364,49.0,78,90,13.0,64.0
3365,76.0,0,150,1.0,64.0
3366,49.0,0,90,3.0,64.0
3367,64.0,0,150,2.0,64.0
3368,88.0,42,150,0.0,64.0
3369,69.0,0,150,5.0,64.0
3370,38.0,120,90,14.0,64.0
3371,62.0,0,90,11.0,64.0
3372,50.0,0,90,3.0,64.0
3373,62.0,0,90,10.0,64.0
3374,62.0,0,90,12.0,64.0
3375,50.0,0,90,13.0,64.0
3376,88.0,42,150,0.0,64.0
3377,69.0,0,150,5.0,64.0
3378,47.0,0,90,13.0,64.0
3379,35.0,0,90,14.0,64.0
3380,76.0,0,150,1.0,64.0
3381,45.0,60,90,6.0,64.0
3382,64.0,0,150,2.0,64.0
3383,59.0,18,90,12.0,64.0
3384,57.0,0,150,4.0,64.0
3385,59.0,0,90,11.0,64.0
3386,59.0,0,90,10.0,64.0
3387,47.0,0,90,3.0,64.0
3388,49.0,0,90,13.0,64.0
3389,61.0,18,90,11.0,64.0
3390,61.0,0,90,10.0,64.0
3391,49.0,0,90,3.0,64.0
3392,45.0,72,90,6.0,64.0
3393,61.0,0,90,12.0,64.0
3394,37.0,0,90,14.0,64.0
3395,45.0,0,90,13.0,64.0
3396,33.0,30,90,14.0,64.0
3397,81.0,0,150,0.0,64.0
3398,69.0,0,150,5.0,64.0
3399,57.0,12,150,4.0,64.0
3400,81.0,0,150,1.0,64.0
3401,45.0,0,90,3.0,64.0
3402,57.0,0,90,11.0,64.0
3403,57.0,0,90,10.0,64.0
3404,69.0,0,150,2.0,64.0
3405,57.0,0,90,12.0,64.0
3406,45.0,30,40,6.0,64.0
3407,45.0,48,40,6.0,64.0
3408,45.0,30,40,6.0,64.0
3409,59.0,30,90,11.0,64.0
3410,47.0,0,90,3.0,64.0
3411,59.0,0,90,10.0,64.0
3412,35.0,0,90,14.0,64.0
3413,47.0,0,90,13.0,64.0
3414,59.0,0,90,12.0,64.0
3415,45.0,60,40,6.0,64.0
3416,37.0,0,90,14.0,64.0
3417,88.0,0,150,0.0,64.0
3418,49.0,0,90,13.0,64.0
3419,76.0,12,150,1.0,64.0
3420,49.0,0,90,3.0,64.0
3421,64.0,0,150,2.0,64.0
3422,45.0,30,40,6.0,64.0
3423,61.0,30,90,11.0,64.0
3424,61.0,0,90,12.0,64.0
3425,61.0,0,90,10.0,64.0
3426,64.0,0,150,4.0,64.0
3427,45.0,48,40,6.0,64.0
3428,59.0,0,90,10.0,64.0
3429,45.0,30,40,6.0,64.0
3430,35.0,0,90,14.0,64.0
3431,47.0,0,90,13.0,64.0
3432,59.0,0,90,11.0,64.0
3433,59.0,30,90,12.0,64.0
3434,47.0,0,90,3.0,64.0
3435,45.0,60,40,6.0,64.0
3436,81.0,0,150,0.0,64.0
3437,45.0,30,40,6.0,64.0
3438,57.0,0,150,4.0,64.0
3439,57.0,30,90,12.0,64.0
3440,45.0,0,90,13.0,64.0
3441,57.0,0,90,10.0,64.0
3442,57.0,0,90,11.0,64.0
3443,45.0,0,90,3.0,64.0
3444,81.0,0,150,1.0,64.0
3445,69.0,12,150,2.0,64.0
3446,69.0,0,150,5.0,64.0
3447,33.0,0,90,14.0,64.0
3448,45.0,48,40,6.0,64.0
3449,59.0,0,90,10.0,64.0
3450,47.0,0,90,3.0,64.0
3451,35.0,0,90,14.0,64.0
3452,47.0,30,90,13.0,64.0
3453,59.0,0,90,12.0,64.0
3454,45.0,30,40,6.0,64.0
3455,59.0,0,90,11.0,64.0
3456,45.0,60,40,6.0,64.0
3457,49.0,0,90,13.0,64.0
3458,64.0,0,150,2.0,64.0
3459,61.0,0,90,12.0,64.0
3460,49.0,0,90,3.0,64.0
3461,45.0,30,40,6.0,64.0
3462,61.0,0,90,11.0,64.0
3463,88.0,12,150,0.0,64.0
3464,76.0,0,150,1.0,64.0
3465,61.0,30,90,10.0,64.0
3466,37.0,0,90,14.0,64.0
3467,64.0,0,150,4.0,64.0
3468,45.0,48,40,6.0,64.0
3469,47.0,0,90,3.0,64.0
3470,59.0,0,90,10.0,64.0
3471,45.0,30,40,6.0,64.0
3472,59.0,0,90,12.0,64.0
3473,35.0,0,90,14.0,64.0
3474,59.0,0,90,11.0,64.0
3475,47.0,30,90,13.0,64.0
3476,45.0,204,40,6.0,64.0
3477,57.0,0,300,4.0,64.0
3478,69.0,0,300,2.0,64.0
3479,57.0,0,300,10.0,64.0
3480,81.0,0,300,1.0,64.0
3481,69.0,0,300,5.0,64.0
3482,81.0,0,300,0.0,64.0
3483,57.0,360,300,11.0,64.0
3484,45.0,120,180,6.0,64.0
3485,57.0,0,300,12.0,64.0
3486,45.0,0,300,3.0,64.0
3487,33.0,0,300,14.0,64.0
3488,45.0,0,300,13.0,64.0
3489,57.0,0,300,13.0,64.0
3490,81.0,0,300,1.0,64.0
3491,45.0,0,300,14.0,64.0
3492,64.0,0,300,11.0,64.0
3493,69.0,0,300,5.0,64.0
3494,73.0,0,300,11.0,64.0
3495,73.0,552,300,10.0,64.0
3496,81.0,0,300,0.0,64.0
3497,57.0,0,300,4.0,64.0
3498,81.0,0,300,11.0,64.0
3499,57.0,0,300,3.0,64.0
3500,76.0,0,300,1.0,64.0
3501,45.0,120,180,6.0,64.0
3502,69.0,0,300,12.0,64.0
3503,73.0,0,300,2.0,64.0
3504,81.0,0,300,10.0,64.0
3505,69.0,0,300,2.0,64.0
3506,64.0,0,300,10.0,64.0
3507,57.0,0,390,10.0,64.0
3508,45.0,0,390,3.0,64.0
3509,57.0,0,390,12.0,64.0
3510,45.0,0,390,6.0,64.0
3511,73.0,0,390,2.0,64.0
3512,69.0,0,390,2.0,64.0
3513,57.0,0,390,4.0,64.0
3514,33.0,0,390,14.0,64.0
3515,57.0,0,390,11.0,64.0
3516,45.0,0,390,13.0,64.0
3517,76.0,0,390,1.0,64.0
3518,69.0,0,390,5.0,64.0
3519,81.0,1344,390,0.0,64.0
3520,81.0,0,390,1.0,64.0
3521,76.0,960,780,10.0,64.0
3522,81.0,312,780,10.0,64.0
3523,80.0,120,120,10.0,64.0
3524,64.0,72,780,11.0,64.0
3525,81.0,120,120,10.0,64.0
3526,78.0,120,120,10.0,64.0
3527,80.0,120,120,10.0,64.0
3528,76.0,120,120,10.0,64.0
3529,78.0,48,120,10.0,64.0
3530,74.0,96,120,10.0,64.0
3531,76.0,144,90,10.0,64.0
3532,73.0,120,120,10.0,64.0
3533,57.0,0,780,4.0,64.0
3534,69.0,72,780,11.0,64.0
3535,74.0,120,120,10.0,64.0
3536,76.0,96,120,10.0,64.0
3537,73.0,144,90,10.0,64.0
3538,78.0,168,120,10.0,64.0
3539,78.0,240,120,10.0,64.0
3540,64.0,0,780,4.0,64.0
3541,68.0,120,120,11.0,64.0
3542,76.0,0,120,10.0,64.0
3543,76.0,72,780,1.0,64.0
3544,78.0,0,120,10.0,64.0
3545,69.0,120,120,11.0,64.0
3546,66.0,0,120,11.0,64.0
3547,74.0,120,120,10.0,64.0
3548,68.0,0,120,11.0,64.0
3549,76.0,120,120,10.0,64.0
3550,73.0,120,120,10.0,64.0
3551,64.0,0,120,11.0,64.0
3552,66.0,0,120,11.0,64.0
3553,74.0,48,120,10.0,64.0
3554,62.0,0,120,11.0,64.0
3555,71.0,96,120,10.0,64.0
3556,64.0,0,90,11.0,64.0
3557,73.0,144,90,10.0,64.0
3558,69.0,72,390,4.0,64.0
3559,69.0,0,120,10.0,64.0
3560,61.0,120,120,11.0,64.0
3561,81.0,72,780,1.0,64.0
3562,71.0,0,120,10.0,64.0
3563,62.0,120,120,11.0,64.0
3564,64.0,24,120,11.0,64.0
3565,73.0,0,120,10.0,64.0
3566,69.0,0,90,10.0,64.0
3567,61.0,144,90,11.0,64.0
3568,66.0,168,120,11.0,64.0
3569,74.0,0,120,10.0,64.0
3570,74.0,240,120,10.0,64.0
3571,66.0,0,120,11.0,64.0
3572,81.0,72,780,0.0,64.0
3573,64.0,0,120,11.0,64.0
3574,73.0,120,120,10.0,64.0
3575,66.0,120,120,11.0,64.0
3576,74.0,0,120,10.0,64.0
3577,71.0,96,120,10.0,64.0
3578,62.0,0,120,11.0,64.0
3579,64.0,24,90,11.0,64.0
3580,73.0,120,120,10.0,64.0
3581,61.0,72,390,11.0,64.0
3582,69.0,120,120,10.0,64.0
3583,71.0,48,120,10.0,64.0
3584,67.0,24,120,10.0,64.0
3585,69.0,144,90,10.0,64.0
3586,86.0,0,780,0.0,64.0
3587,66.0,120,120,10.0,64.0
3588,62.0,48,720,11.0,64.0
3589,50.0,48,780,3.0,64.0
3590,67.0,120,120,10.0,64.0
3591,69.0,96,120,10.0,64.0
3592,66.0,120,90,10.0,64.0
3593,71.0,144,90,10.0,64.0
3594,55.0,168,180,11.0,64.0
3595,71.0,96,90,10.0,64.0
3596,85.0,120,120,0.0,64.0
3597,57.0,0,780,3.0,64.0
3598,69.0,0,780,2.0,64.0
3599,57.0,72,780,2.0,64.0
3600,69.0,0,120,10.0,64.0
3601,57.0,48,720,11.0,64.0
3602,71.0,120,120,10.0,64.0
3603,86.0,0,120,0.0,64.0
3604,67.0,0,120,10.0,64.0
3605,83.0,120,120,0.0,64.0
3606,69.0,0,120,10.0,64.0
3607,85.0,120,120,0.0,64.0
3608,81.0,0,120,0.0,64.0
3609,66.0,120,120,10.0,64.0
3610,83.0,0,120,0.0,64.0
3611,67.0,0,120,10.0,64.0
3612,79.0,0,120,0.0,64.0
3613,64.0,72,120,10.0,64.0
3614,61.0,24,180,11.0,64.0
3615,81.0,120,90,0.0,64.0
3616,66.0,0,90,10.0,64.0
3617,78.0,96,120,0.0,64.0
3618,62.0,72,390,10.0,64.0
3619,74.0,48,780,2.0,64.0
3620,62.0,24,90,11.0,64.0
3621,62.0,0,780,2.0,64.0
3622,64.0,24,90,11.0,64.0
3623,79.0,96,120,0.0,64.0
3624,81.0,24,120,0.0,64.0
3625,66.0,24,90,11.0,64.0
3626,62.0,0,90,11.0,64.0
3627,78.0,120,90,0.0,64.0
3628,83.0,0,90,0.0,64.0
3629,78.0,0,90,10.0,64.0
3630,74.0,192,90,11.0,64.0
3631,78.0,264,90,10.0,64.0
3632,83.0,0,90,0.0,64.0
3633,74.0,0,90,11.0,64.0
3634,73.0,0,240,11.0,64.0
3635,82.0,120,120,0.0,64.0
3636,66.0,72,780,12.0,64.0
3637,76.0,120,240,10.0,64.0
3638,83.0,0,120,0.0,64.0
3639,80.0,120,120,0.0,64.0
3640,74.0,120,240,10.0,64.0
3641,71.0,0,240,11.0,64.0
3642,82.0,0,120,0.0,64.0
3643,78.0,120,120,0.0,64.0
3644,70.0,0,390,11.0,64.0
3645,73.0,72,390,10.0,64.0
3646,79.0,48,120,0.0,64.0
3647,76.0,24,120,0.0,64.0
3648,78.0,144,90,0.0,64.0
3649,71.0,72,390,11.0,64.0
3650,71.0,48,780,12.0,64.0
3651,74.0,120,120,0.0,64.0
3652,47.0,0,780,3.0,64.0
3653,71.0,0,120,10.0,64.0
3654,76.0,0,120,0.0,64.0
3655,73.0,120,120,10.0,64.0
3656,78.0,24,120,0.0,64.0
3657,74.0,0,120,10.0,64.0
3658,71.0,0,90,10.0,64.0
3659,74.0,120,90,0.0,64.0
3660,62.0,144,150,10.0,64.0
3661,79.0,48,90,0.0,64.0
3662,79.0,48,90,0.0,64.0
3663,74.0,216,150,10.0,64.0
3664,54.0,0,780,3.0,64.0
3665,70.0,120,120,12.0,64.0
3666,78.0,72,780,0.0,64.0
3667,73.0,0,240,10.0,64.0
3668,71.0,120,120,12.0,64.0
3669,71.0,0,240,10.0,64.0
3670,68.0,120,120,12.0,64.0
3671,70.0,120,120,12.0,64.0
3672,70.0,48,240,10.0,64.0
3673,66.0,120,120,12.0,64.0
3674,67.0,0,120,12.0,64.0
3675,67.0,120,240,10.0,64.0
3676,64.0,96,120,12.0,64.0
3677,66.0,24,90,12.0,64.0
3678,62.0,120,120,12.0,64.0
3679,59.0,72,390,3.0,64.0
3680,66.0,96,480,10.0,64.0
3681,83.0,48,780,0.0,64.0
3682,64.0,120,120,12.0,64.0
3683,66.0,24,120,12.0,64.0
3684,62.0,24,90,12.0,64.0
3685,62.0,132,150,10.0,64.0
3686,67.0,60,90,12.0,64.0
3687,67.0,60,90,12.0,64.0
3688,71.0,204,150,10.0,64.0
3689,66.0,0,120,12.0,64.0
3690,74.0,72,780,1.0,64.0
3691,69.0,120,120,10.0,64.0
3692,67.0,120,120,12.0,64.0
3693,71.0,0,120,10.0,64.0
3694,64.0,0,120,12.0,64.0
3695,67.0,120,120,10.0,64.0
3696,66.0,0,120,12.0,64.0
3697,69.0,120,120,10.0,64.0
3698,62.0,0,120,12.0,64.0
3699,66.0,120,120,10.0,64.0
3700,64.0,0,120,12.0,64.0
3701,67.0,48,120,10.0,64.0
3702,60.0,0,120,12.0,64.0
3703,64.0,96,120,10.0,64.0
3704,62.0,0,90,12.0,64.0
3705,66.0,144,90,10.0,64.0
3706,59.0,120,120,12.0,64.0
3707,62.0,72,390,10.0,64.0
3708,79.0,48,780,1.0,64.0
3709,43.0,0,780,3.0,64.0
3710,67.0,120,600,11.0,64.0
3711,60.0,120,120,12.0,64.0
3712,62.0,24,120,12.0,64.0
3713,59.0,120,90,12.0,64.0
3714,64.0,24,90,12.0,64.0
3715,69.0,48,120,11.0,64.0
3716,71.0,96,120,11.0,64.0
3717,64.0,24,90,12.0,64.0
3718,73.0,144,90,11.0,64.0
3719,50.0,0,780,3.0,64.0
3720,62.0,72,780,12.0,64.0
3721,78.0,120,120,1.0,64.0
3722,74.0,0,120,11.0,64.0
3723,62.0,0,930,1.0,64.0
3724,79.0,0,120,1.0,64.0
3725,76.0,120,120,11.0,64.0
3726,76.0,0,120,1.0,64.0
3727,72.0,120,120,11.0,64.0
3728,74.0,0,120,11.0,64.0
3729,78.0,120,120,1.0,64.0
3730,71.0,0,120,11.0,64.0
3731,74.0,120,120,1.0,64.0
3732,72.0,0,120,11.0,64.0
3733,76.0,48,120,1.0,64.0
3734,69.0,0,120,11.0,64.0
3735,72.0,96,120,1.0,64.0
3736,71.0,144,90,11.0,64.0
3737,74.0,0,90,1.0,64.0
3738,67.0,48,780,11.0,64.0
3739,55.0,120,120,10.0,64.0
3740,55.0,72,390,3.0,64.0
3741,71.0,0,120,1.0,64.0
3742,67.0,144,930,1.0,64.0
3743,57.0,0,120,10.0,64.0
3744,72.0,120,120,1.0,64.0
3745,59.0,24,120,10.0,64.0
3746,74.0,0,120,1.0,64.0
3747,71.0,0,90,1.0,64.0
3748,55.0,120,90,10.0,64.0
3749,76.0,0,90,1.0,64.0
3750,71.0,192,90,10.0,64.0
3751,71.0,0,90,10.0,64.0
3752,76.0,120,90,1.0,64.0
3753,59.0,72,780,12.0,64.0
3754,71.0,0,240,10.0,64.0
3755,59.0,0,780,13.0,64.0
3756,66.0,120,240,11.0,64.0
3757,74.0,120,120,1.0,64.0
3758,76.0,0,120,1.0,64.0
3759,66.0,48,180,10.0,64.0
3760,72.0,72,120,1.0,64.0
3761,64.0,0,240,11.0,64.0
3762,74.0,120,120,1.0,64.0
3763,62.0,72,390,11.0,64.0
3764,71.0,120,120,1.0,64.0
3765,66.0,48,660,10.0,64.0
3766,72.0,48,120,1.0,64.0
3767,69.0,24,120,1.0,64.0
3768,71.0,144,90,1.0,64.0
3769,52.0,48,780,3.0,64.0
3770,64.0,0,780,13.0,64.0
3771,67.0,72,120,1.0,64.0
3772,76.0,0,780,0.0,64.0
3773,64.0,0,780,12.0,64.0
3774,69.0,96,120,1.0,64.0
3775,71.0,96,120,1.0,64.0
3776,64.0,24,90,10.0,64.0
3777,67.0,120,90,1.0,64.0
3778,63.0,0,90,10.0,64.0
3779,72.0,96,90,1.0,64.0
3780,64.0,96,180,10.0,64.0
3781,67.0,168,180,10.0,64.0
3782,72.0,96,90,1.0,64.0
3783,66.0,120,120,12.0,64.0
3784,63.0,0,120,13.0,64.0
3785,71.0,0,390,1.0,64.0
3786,83.0,48,780,0.0,64.0
3787,66.0,72,390,10.0,64.0
3788,59.0,0,780,3.0,64.0
3789,71.0,0,780,11.0,64.0
3790,64.0,120,120,13.0,64.0
3791,67.0,0,120,12.0,64.0
3792,64.0,0,120,12.0,64.0
3793,61.0,24,120,13.0,64.0
3794,63.0,96,120,13.0,64.0
3795,66.0,24,90,12.0,64.0
3796,59.0,120,120,13.0,64.0
3797,63.0,24,90,12.0,64.0
3798,60.0,48,120,13.0,64.0
3799,66.0,24,90,12.0,64.0
3800,57.0,96,120,13.0,64.0
3801,59.0,144,90,13.0,64.0
3802,55.0,120,120,13.0,64.0
3803,76.0,0,780,10.0,64.0
3804,64.0,0,780,2.0,64.0
3805,76.0,48,780,11.0,64.0
3806,64.0,0,390,3.0,64.0
3807,64.0,72,390,12.0,64.0
3808,57.0,120,120,13.0,64.0
3809,59.0,24,120,13.0,64.0
3810,55.0,120,90,13.0,64.0
3811,60.0,192,90,13.0,64.0
3812,60.0,264,90,13.0,64.0
3813,71.0,0,780,2.0,64.0
3814,59.0,72,780,12.0,64.0
3815,59.0,0,120,13.0,64.0
3816,83.0,0,780,0.0,64.0
3817,71.0,0,780,0.0,64.0
3818,83.0,48,720,10.0,64.0
3819,75.0,120,120,11.0,64.0
3820,60.0,120,120,13.0,64.0
3821,76.0,0,120,11.0,64.0
3822,72.0,0,120,11.0,64.0
3823,57.0,120,120,13.0,64.0
3824,74.0,120,120,11.0,64.0
3825,59.0,0,120,13.0,64.0
3826,55.0,120,120,13.0,64.0
3827,71.0,0,120,11.0,64.0
3828,72.0,0,120,11.0,64.0
3829,57.0,0,120,13.0,64.0
3830,75.0,24,180,10.0,64.0
3831,54.0,72,120,13.0,64.0
3832,69.0,0,120,11.0,64.0
3833,57.0,264,90,13.0,64.0
3834,72.0,0,90,11.0,64.0
3835,76.0,48,780,1.0,64.0
3836,64.0,0,780,1.0,64.0
3837,55.0,192,240,13.0,64.0
3838,55.0,0,240,3.0,64.0
3839,71.0,0,240,11.0,64.0
3840,76.0,0,240,10.0,64.0
3841,76.0,0,780,0.0,64.0
3842,88.0,0,780,0.0,64.0
3843,64.0,144,570,12.0,64.0
3844,69.0,96,240,11.0,64.0
3845,78.0,48,180,10.0,64.0
3846,54.0,0,240,13.0,64.0
3847,54.0,0,240,3.0,64.0
3848,52.0,0,240,3.0,64.0
3849,79.0,0,960,10.0,64.0
3850,67.0,0,240,11.0,64.0
3851,52.0,48,240,13.0,64.0
3852,50.0,24,180,13.0,64.0
3853,50.0,0,180,3.0,64.0
3854,66.0,96,90,12.0,64.0
3855,66.0,0,180,11.0,64.0
3856,67.0,504,90,12.0,64.0
3857,67.0,0,480,11.0,64.0
3858,49.0,0,480,3.0,64.0
3859,69.0,96,780,1.0,64.0
3860,49.0,288,480,13.0,64.0
3861,81.0,0,780,1.0,64.0
3862,50.0,0,450,13.0,64.0
3863,69.0,0,15,12.0,64.0
3864,78.0,0,450,10.0,64.0
3865,50.0,72,390,3.0,64.0
3866,62.0,0,450,11.0,64.0
3867,76.0,0,480,10.0,64.0
3868,55.0,0,480,3.0,64.0
3869,76.0,0,480,1.0,64.0
3870,79.0,0,480,1.0,64.0
3871,71.0,96,780,11.0,64.0
3872,67.0,288,480,12.0,64.0
3873,55.0,0,480,13.0,64.0
3874,56.0,288,390,3.0,64.0
3875,74.0,0,390,10.0,64.0
3876,66.0,0,390,12.0,64.0
3877,74.0,0,390,1.0,64.0
3878,56.0,0,390,13.0,64.0
3879,78.0,0,390,1.0,64.0
3880,45.0,0,390,6.0,64.0
3881,57.0,0,390,5.0,64.0
3882,45.0,0,390,4.0,64.0
3883,81.0,96,780,10.0,64.0
3884,57.0,192,180,13.0,64.0
3885,69.0,0,390,5.0,64.0
3886,57.0,0,390,4.0,64.0
3887,69.0,0,390,11.0,64.0
3888,64.0,0,390,2.0,64.0
3889,73.0,0,390,1.0,64.0
3890,45.0,0,180,14.0,64.0
3891,61.0,0,390,2.0,64.0
3892,57.0,0,180,3.0,64.0
3893,64.0,0,390,12.0,64.0
3894,81.0,0,390,0.0,64.0
3895,76.0,240,390,1.0,64.0
3896,57.0,0,150,4.0,64.0
3897,45.0,0,150,4.0,64.0
3898,69.0,0,150,5.0,64.0
3899,57.0,0,150,5.0,64.0
3900,81.0,144,150,0.0,64.0
3901,61.0,0,150,2.0,64.0
3902,76.0,0,150,1.0,64.0
3903,73.0,0,150,1.0,64.0
3904,64.0,0,150,2.0,64.0
3905,57.0,0,150,4.0,64.0
3906,45.0,0,150,4.0,64.0
3907,69.0,0,150,5.0,64.0
3908,57.0,0,150,5.0,64.0
3909,76.0,0,150,1.0,64.0
3910,73.0,0,150,1.0,64.0
3911,64.0,0,150,2.0,64.0
3912,61.0,0,150,2.0,64.0
3913,81.0,480,150,0.0,64.0
3914,57.0,0,390,5.0,64.0
3915,57.0,240,390,4.0,64.0
3916,69.0,0,390,5.0,64.0
3917,77.0,0,390,1.0,64.0
3918,81.0,0,390,0.0,64.0
3919,74.0,0,390,1.0,64.0
3920,62.0,0,390,2.0,64.0
3921,86.0,96,780,10.0,64.0
3922,45.0,0,390,4.0,64.0
3923,65.0,0,390,2.0,64.0
3924,74.0,0,150,1.0,64.0
3925,81.0,144,150,0.0,64.0
3926,77.0,0,150,1.0,64.0
3927,45.0,0,150,4.0,64.0
3928,57.0,0,150,4.0,64.0
3929,62.0,0,150,2.0,64.0
3930,57.0,0,150,5.0,64.0
3931,69.0,0,150,5.0,64.0
3932,65.0,0,150,2.0,64.0
3933,74.0,0,150,1.0,64.0
3934,77.0,0,150,1.0,64.0
3935,65.0,0,150,2.0,64.0
3936,45.0,0,150,4.0,64.0
3937,81.0,0,150,0.0,64.0
3938,69.0,216,150,5.0,64.0
3939,62.0,0,150,2.0,64.0
3940,57.0,0,150,5.0,64.0
3941,57.0,0,150,4.0,64.0
3942,57.0,48,180,3.0,64.0
3943,57.0,0,180,13.0,64.0
3944,81.0,0,390,0.0,64.0
3945,64.0,96,390,2.0,64.0
3946,61.0,0,390,2.0,64.0
3947,45.0,0,390,6.0,64.0
3948,69.0,0,780,11.0,64.0
3949,45.0,0,180,14.0,64.0
3950,45.0,0,390,4.0,64.0
3951,73.0,0,390,1.0,64.0
3952,69.0,0,390,5.0,64.0
3953,57.0,72,780,12.0,64.0
3954,57.0,0,390,4.0,64.0
3955,57.0,0,390,5.0,64.0
3956,76.0,0,390,1.0,64.0
3957,85.0,72,120,10.0,64.0
3958,86.0,120,120,10.0,64.0
3959,83.0,24,120,10.0,64.0
3960,85.0,120,120,10.0,64.0
3961,57.0,0,150,5.0,64.0
3962,69.0,96,150,5.0,64.0
3963,61.0,0,150,2.0,64.0
3964,57.0,0,150,4.0,64.0
3965,64.0,0,150,2.0,64.0
3966,81.0,0,150,0.0,64.0
3967,73.0,0,150,1.0,64.0
3968,81.0,24,120,10.0,64.0
3969,45.0,0,150,4.0,64.0
3970,76.0,0,150,1.0,64.0
3971,82.0,48,120,10.0,64.0
3972,57.0,0,150,5.0,64.0
3973,69.0,0,150,5.0,64.0
3974,61.0,0,150,2.0,64.0
3975,64.0,0,150,2.0,64.0
3976,81.0,0,150,0.0,64.0
3977,76.0,0,150,1.0,64.0
3978,79.0,24,120,10.0,64.0
3979,45.0,72,150,4.0,64.0
3980,73.0,0,150,1.0,64.0
3981,57.0,0,150,4.0,64.0
3982,81.0,144,90,10.0,64.0
3983,65.0,0,390,2.0,64.0
3984,62.0,72,780,12.0,64.0
3985,69.0,0,390,5.0,64.0
3986,74.0,0,390,1.0,64.0
3987,57.0,0,390,5.0,64.0
3988,57.0,96,390,4.0,64.0
3989,77.0,120,120,10.0,64.0
3990,45.0,0,390,4.0,64.0
3991,77.0,0,390,1.0,64.0
3992,62.0,0,390,2.0,64.0
3993,74.0,0,780,11.0,64.0
3994,81.0,0,390,0.0,64.0
3995,79.0,120,120,10.0,64.0
3996,76.0,24,120,10.0,64.0
3997,77.0,120,120,10.0,64.0
3998,81.0,0,150,0.0,64.0
3999,77.0,0,150,1.0,64.0
4000,74.0,0,150,1.0,64.0
4001,45.0,0,150,4.0,64.0
4002,74.0,24,120,10.0,64.0
4003,62.0,0,150,2.0,64.0
4004,57.0,96,150,5.0,64.0
4005,69.0,0,150,5.0,64.0
4006,57.0,0,150,4.0,64.0
4007,65.0,0,150,2.0,64.0
4008,77.0,48,120,10.0,64.0
4009,69.0,0,150,5.0,64.0
4010,77.0,72,150,1.0,64.0
4011,57.0,0,150,4.0,64.0
4012,45.0,0,150,4.0,64.0
4013,57.0,0,150,5.0,64.0
4014,76.0,24,120,10.0,64.0
4015,74.0,0,150,1.0,64.0
4016,65.0,0,150,2.0,64.0
4017,62.0,0,150,2.0,64.0
4018,81.0,0,150,0.0,64.0
4019,74.0,120,90,10.0,64.0
4020,45.0,0,780,14.0,64.0
4021,61.0,0,90,12.0,64.0
4022,61.0,0,390,2.0,64.0
4023,81.0,0,390,0.0,64.0
4024,73.0,144,90,11.0,64.0
4025,81.0,0,780,10.0,64.0
4026,57.0,0,780,3.0,64.0
4027,73.0,0,390,1.0,64.0
4028,45.0,0,390,4.0,64.0
4029,57.0,0,390,4.0,64.0
4030,69.0,0,390,5.0,64.0
4031,57.0,0,390,5.0,64.0
4032,64.0,96,390,2.0,64.0
4033,57.0,72,780,13.0,64.0
4034,76.0,0,390,1.0,64.0
4035,45.0,0,390,6.0,64.0
4036,62.0,0,120,12.0,64.0
4037,74.0,120,120,11.0,64.0
4038,59.0,24,120,12.0,64.0
4039,71.0,0,120,11.0,64.0
4040,73.0,0,120,11.0,64.0
4041,61.0,120,120,12.0,64.0
4042,76.0,0,150,1.0,64.0
4043,64.0,0,150,2.0,64.0
4044,57.0,0,150,5.0,64.0
4045,69.0,0,150,5.0,64.0
4046,69.0,24,120,11.0,64.0
4047,73.0,0,150,1.0,64.0
4048,61.0,0,150,2.0,64.0
4049,45.0,0,150,4.0,64.0
4050,57.0,0,120,12.0,64.0
4051,81.0,0,150,0.0,64.0
4052,57.0,96,150,4.0,64.0
4053,70.0,48,120,11.0,64.0
4054,58.0,0,120,12.0,64.0
4055,55.0,0,120,12.0,64.0
4056,76.0,0,150,1.0,64.0
4057,57.0,72,150,4.0,64.0
4058,45.0,0,150,4.0,64.0
4059,61.0,0,150,2.0,64.0
4060,67.0,24,120,11.0,64.0
4061,57.0,0,150,5.0,64.0
4062,81.0,0,150,0.0,64.0
4063,69.0,0,150,5.0,64.0
4064,64.0,0,150,2.0,64.0
4065,73.0,0,150,1.0,64.0
4066,57.0,0,90,12.0,64.0
4067,69.0,144,90,11.0,64.0
4068,69.0,0,390,5.0,64.0
4069,53.0,120,120,12.0,64.0
4070,65.0,0,390,2.0,64.0
4071,62.0,0,390,2.0,64.0
4072,57.0,0,390,5.0,64.0
4073,62.0,0,780,3.0,64.0
4074,86.0,0,780,10.0,64.0
4075,74.0,0,390,1.0,64.0
4076,62.0,24,780,13.0,64.0
4077,57.0,0,390,4.0,64.0
4078,50.0,0,390,6.0,64.0
4079,81.0,96,390,0.0,64.0
4080,65.0,0,120,11.0,64.0
4081,50.0,0,780,14.0,64.0
4082,45.0,0,390,4.0,64.0
4083,77.0,0,390,1.0,64.0
4084,67.0,120,120,11.0,64.0
4085,55.0,0,120,12.0,64.0
4086,64.0,0,120,11.0,64.0
4087,52.0,24,120,12.0,64.0
4088,53.0,0,120,12.0,64.0
4089,65.0,72,120,11.0,64.0
4090,45.0,0,150,4.0,64.0
4091,57.0,0,150,4.0,64.0
4092,50.0,0,60,12.0,64.0
4093,81.0,0,150,0.0,64.0
4094,74.0,0,150,1.0,64.0
4095,69.0,0,150,5.0,64.0
4096,77.0,0,150,1.0,64.0
4097,65.0,0,150,2.0,64.0
4098,62.0,48,150,2.0,64.0
4099,62.0,72,60,11.0,64.0
4100,57.0,0,150,5.0,64.0
4101,65.0,96,60,12.0,64.0
4102,77.0,0,60,11.0,64.0
4103,81.0,0,150,0.0,64.0
4104,74.0,0,150,1.0,64.0
4105,77.0,0,150,1.0,64.0
4106,76.0,72,60,11.0,64.0
4107,64.0,0,60,12.0,64.0
4108,45.0,48,150,4.0,64.0
4109,57.0,0,150,4.0,64.0
4110,62.0,0,150,2.0,64.0
4111,65.0,0,150,2.0,64.0
4112,69.0,0,150,5.0,64.0
4113,57.0,0,150,5.0,64.0
4114,74.0,0,60,11.0,64.0
4115,62.0,168,60,12.0,64.0
4116,57.0,0,390,4.0,64.0
4117,45.0,0,390,4.0,64.0
4118,45.0,0,390,6.0,64.0
4119,49.0,120,120,14.0,64.0
4120,73.0,0,120,11.0,64.0
4121,61.0,0,120,12.0,64.0
4122,64.0,96,390,2.0,64.0
4123,61.0,0,390,2.0,64.0
4124,69.0,0,390,5.0,64.0
4125,81.0,0,390,0.0,64.0
4126,61.0,0,120,13.0,64.0
4127,57.0,0,390,5.0,64.0
4128,85.0,0,120,10.0,64.0
4129,61.0,0,120,3.0,64.0
4130,76.0,0,390,1.0,64.0
4131,73.0,0,390,1.0,64.0
4132,86.0,0,120,10.0,64.0
4133,62.0,0,120,3.0,64.0
4134,74.0,120,120,11.0,64.0
4135,62.0,0,120,13.0,64.0
4136,62.0,0,120,12.0,64.0
4137,50.0,0,120,14.0,64.0
4138,59.0,0,120,12.0,64.0
4139,59.0,0,120,3.0,64.0
4140,83.0,24,120,10.0,64.0
4141,71.0,0,120,11.0,64.0
4142,47.0,0,120,14.0,64.0
4143,59.0,0,120,13.0,64.0
4144,61.0,120,120,13.0,64.0
4145,73.0,0,120,11.0,64.0
4146,85.0,0,120,10.0,64.0
4147,49.0,0,120,14.0,64.0
4148,61.0,0,120,12.0,64.0
4149,61.0,0,120,3.0,64.0
4150,57.0,0,120,3.0,64.0
4151,69.0,0,120,11.0,64.0
4152,61.0,96,150,2.0,64.0
4153,64.0,0,150,2.0,64.0
4154,57.0,0,120,12.0,64.0
4155,81.0,24,120,10.0,64.0
4156,57.0,0,150,4.0,64.0
4157,45.0,0,150,4.0,64.0
4158,57.0,0,150,5.0,64.0
4159,69.0,0,150,5.0,64.0
4160,76.0,0,150,1.0,64.0
4161,73.0,0,150,1.0,64.0
4162,45.0,0,120,14.0,64.0
4163,57.0,0,120,13.0,64.0
4164,81.0,0,150,0.0,64.0
4165,46.0,0,120,14.0,64.0
4166,58.0,0,120,12.0,64.0
4167,70.0,0,120,11.0,64.0
4168,58.0,0,120,13.0,64.0
4169,82.0,96,120,10.0,64.0
4170,58.0,0,120,3.0,64.0
4171,73.0,0,150,1.0,64.0
4172,45.0,24,90,6.0,64.0
4173,57.0,0,150,5.0,64.0
4174,43.0,24,120,14.0,64.0
4175,76.0,0,150,1.0,64.0
4176,69.0,0,150,5.0,64.0
4177,45.0,0,150,4.0,64.0
4178,81.0,72,150,0.0,64.0
4179,64.0,0,150,2.0,64.0
4180,61.0,0,150,2.0,64.0
4181,55.0,0,120,13.0,64.0
4182,55.0,0,120,12.0,64.0
4183,67.0,0,120,11.0,64.0
4184,79.0,0,120,10.0,64.0
4185,57.0,0,150,4.0,64.0
4186,55.0,0,120,3.0,64.0
4187,57.0,0,90,13.0,64.0
4188,57.0,0,90,12.0,64.0
4189,57.0,0,90,3.0,64.0
4190,69.0,144,90,11.0,64.0
4191,81.0,0,90,10.0,64.0
4192,45.0,0,90,14.0,64.0
4193,45.0,0,90,6.0,64.0
4194,77.0,0,390,1.0,64.0
4195,62.0,0,390,2.0,64.0
4196,65.0,0,390,2.0,64.0
4197,45.0,0,390,4.0,64.0
4198,57.0,0,390,4.0,64.0
4199,77.0,0,120,10.0,64.0
4200,65.0,0,120,11.0,64.0
4201,74.0,0,390,1.0,64.0
4202,53.0,120,120,13.0,64.0
4203,69.0,0,390,5.0,64.0
4204,81.0,0,390,0.0,64.0
4205,53.0,0,120,3.0,64.0
4206,53.0,0,120,12.0,64.0
4207,57.0,96,390,5.0,64.0
4208,50.0,0,390,6.0,64.0
4209,41.0,0,120,14.0,64.0
4210,43.0,0,120,14.0,64.0
4211,55.0,0,120,13.0,64.0
4212,55.0,120,120,3.0,64.0
4213,67.0,0,120,11.0,64.0
4214,79.0,0,120,10.0,64.0
4215,55.0,0,120,12.0,64.0
4216,76.0,0,120,10.0,64.0
4217,52.0,0,120,12.0,64.0
4218,40.0,0,120,14.0,64.0
4219,52.0,0,120,3.0,64.0
4220,64.0,24,120,11.0,64.0
4221,52.0,0,120,13.0,64.0
4222,53.0,0,120,13.0,64.0
4223,53.0,0,120,12.0,64.0
4224,53.0,0,120,3.0,64.0
4225,65.0,120,120,11.0,64.0
4226,41.0,0,120,14.0,64.0
4227,77.0,0,120,10.0,64.0
4228,57.0,0,150,4.0,64.0
4229,74.0,0,120,10.0,64.0
4230,81.0,0,150,0.0,64.0
4231,50.0,24,120,3.0,64.0
4232,69.0,96,150,5.0,64.0
4233,57.0,0,150,5.0,64.0
4234,50.0,0,120,12.0,64.0
4235,38.0,0,120,14.0,64.0
4236,45.0,0,150,4.0,64.0
4237,62.0,0,150,2.0,64.0
4238,65.0,0,150,2.0,64.0
4239,50.0,0,120,13.0,64.0
4240,77.0,0,150,1.0,64.0
4241,74.0,0,150,1.0,64.0
4242,62.0,0,120,11.0,64.0
4243,65.0,0,120,11.0,64.0
4244,77.0,0,120,10.0,64.0
4245,41.0,0,120,14.0,64.0
4246,53.0,0,120,13.0,64.0
4247,53.0,96,120,12.0,64.0
4248,53.0,0,120,3.0,64.0
4249,57.0,72,150,5.0,64.0
4250,69.0,0,150,5.0,64.0
4251,52.0,24,120,13.0,64.0
4252,76.0,0,120,10.0,64.0
4253,57.0,0,150,4.0,64.0
4254,74.0,0,150,1.0,64.0
4255,77.0,0,150,1.0,64.0
4256,50.0,24,90,6.0,64.0
4257,52.0,0,120,3.0,64.0
4258,64.0,0,120,11.0,64.0
4259,40.0,0,120,14.0,64.0
4260,81.0,0,150,0.0,64.0
4261,62.0,0,150,2.0,64.0
4262,65.0,0,150,2.0,64.0
4263,45.0,0,150,4.0,64.0
4264,52.0,0,120,12.0,64.0
4265,50.0,0,90,6.0,64.0
4266,38.0,0,90,14.0,64.0
4267,50.0,0,90,13.0,64.0
4268,50.0,180,90,12.0,64.0
4269,62.0,0,90,11.0,64.0
4270,74.0,0,90,10.0,64.0
4271,50.0,0,90,3.0,64.0
4272,45.0,204,180,6.0,64.0
4273,45.0,0,150,4.0,64.0
4274,81.0,0,150,10.0,64.0
4275,57.0,0,150,4.0,64.0
4276,57.0,0,150,12.0,64.0
4277,69.0,0,150,11.0,64.0
4278,64.0,0,150,2.0,64.0
4279,61.0,0,150,2.0,64.0
4280,73.0,0,150,1.0,64.0
4281,76.0,36,150,1.0,64.0
4282,57.0,0,150,5.0,64.0
4283,45.0,0,150,14.0,64.0
4284,69.0,0,150,5.0,64.0
4285,57.0,0,150,3.0,64.0
4286,57.0,0,150,13.0,64.0
4287,81.0,108,3660,0.0,64.0
4288,73.0,240,150,11.0,64.0
4289,81.0,0,150,10.0,64.0
4290,76.0,0,150,11.0,64.0
4291,69.0,0,150,12.0,64.0
4292,69.0,0,150,10.0,64.0
4293,50.0,0,150,14.0,64.0
4294,62.0,0,150,2.0,64.0
4295,62.0,0,150,3.0,64.0
4296,77.0,0,150,1.0,64.0
4297,62.0,0,150,13.0,64.0
4298,57.0,0,150,5.0,64.0
4299,65.0,0,150,2.0,64.0
4300,69.0,240,150,5.0,64.0
4301,57.0,0,150,4.0,64.0
4302,45.0,0,150,4.0,64.0
4303,74.0,0,150,1.0,64.0
4304,81.0,0,150,10.0,64.0
4305,69.0,240,150,10.0,64.0
4306,77.0,0,150,11.0,64.0
4307,74.0,0,150,11.0,64.0
4308,74.0,0,150,12.0,64.0
4309,69.0,0,150,5.0,64.0
4310,45.0,0,150,4.0,64.0
4311,57.0,0,150,5.0,64.0
4312,49.0,0,150,14.0,64.0
4313,57.0,240,150,4.0,64.0
4314,76.0,0,150,1.0,64.0
4315,64.0,0,150,2.0,64.0
4316,61.0,0,150,3.0,64.0
4317,67.0,0,150,2.0,64.0
4318,61.0,0,150,13.0,64.0
4319,79.0,0,150,1.0,64.0
4320,79.0,0,150,11.0,64.0
4321,76.0,240,150,11.0,64.0
4322,69.0,0,150,10.0,64.0
4323,73.0,0,150,12.0,64.0
4324,81.0,0,150,10.0,64.0
4325,62.0,0,150,13.0,64.0
4326,57.0,0,150,5.0,64.0
4327,50.0,240,150,14.0,64.0
4328,69.0,0,150,5.0,64.0
4329,57.0,0,150,4.0,64.0
4330,74.0,0,150,1.0,64.0
4331,45.0,0,150,4.0,64.0
4332,62.0,0,150,3.0,64.0
4333,65.0,0,150,2.0,64.0
4334,77.0,0,150,1.0,64.0
4335,62.0,0,150,2.0,64.0
4336,74.0,240,150,12.0,64.0
4337,77.0,0,150,11.0,64.0
4338,69.0,0,150,10.0,64.0
4339,81.0,0,150,10.0,64.0
4340,74.0,0,150,11.0,64.0
4341,45.0,0,150,14.0,64.0
4342,45.0,204,180,6.0,64.0
4343,57.0,0,150,4.0,64.0
4344,45.0,0,150,4.0,64.0
4345,69.0,0,150,5.0,64.0
4346,73.0,0,150,1.0,64.0
4347,57.0,0,150,13.0,64.0
4348,57.0,0,150,5.0,64.0
4349,76.0,0,150,1.0,64.0
4350,61.0,36,150,2.0,64.0
4351,64.0,0,150,2.0,64.0
4352,57.0,0,150,3.0,64.0
4353,76.0,0,150,11.0,64.0
4354,69.0,0,150,12.0,64.0
4355,73.0,0,150,11.0,64.0
4356,69.0,0,150,10.0,64.0
4357,81.0,240,150,10.0,64.0
4358,62.0,0,150,2.0,64.0
4359,62.0,0,150,3.0,64.0
4360,57.0,0,150,5.0,64.0
4361,62.0,0,150,13.0,64.0
4362,65.0,0,150,2.0,64.0
4363,57.0,0,150,4.0,64.0
4364,45.0,0,150,4.0,64.0
4365,77.0,0,150,1.0,64.0
4366,74.0,0,150,1.0,64.0
4367,50.0,0,150,14.0,64.0
4368,69.0,240,150,5.0,64.0
4369,69.0,0,150,10.0,64.0
4370,81.0,0,150,10.0,64.0
4371,74.0,0,150,11.0,64.0
4372,77.0,0,150,11.0,64.0
4373,74.0,240,150,12.0,64.0
4374,64.0,0,150,2.0,64.0
4375,67.0,0,150,2.0,64.0
4376,49.0,240,150,14.0,64.0
4377,57.0,0,150,5.0,64.0
4378,69.0,0,150,5.0,64.0
4379,79.0,0,150,1.0,64.0
4380,61.0,0,150,3.0,64.0
4381,61.0,0,150,13.0,64.0
4382,76.0,0,150,1.0,64.0
4383,45.0,0,150,4.0,64.0
4384,57.0,0,150,4.0,64.0
4385,81.0,240,150,10.0,64.0
4386,69.0,0,150,10.0,64.0
4387,73.0,0,150,12.0,64.0
4388,79.0,0,150,11.0,64.0
4389,76.0,0,150,11.0,64.0
4390,50.0,0,150,14.0,64.0
4391,77.0,0,150,1.0,64.0
4392,57.0,0,150,4.0,64.0
4393,62.0,0,150,3.0,64.0
4394,74.0,0,150,1.0,64.0
4395,45.0,132,150,4.0,64.0
4396,69.0,0,150,5.0,64.0
4397,57.0,0,150,5.0,64.0
4398,62.0,0,150,2.0,64.0
4399,62.0,0,150,13.0,64.0
4400,65.0,0,150,2.0,64.0
4401,74.0,0,150,11.0,64.0
4402,77.0,0,150,11.0,64.0
4403,81.0,0,150,10.0,64.0
4404,74.0,0,150,12.0,64.0
4405,69.0,324,150,10.0,64.0
4406,69.0,96,240,11.0,64.0
4407,57.0,288,1860,4.0,64.0
4408,45.0,0,1860,4.0,64.0
4409,73.0,0,1860,1.0,64.0
4410,76.0,0,1860,1.0,64.0
4411,81.0,0,240,10.0,64.0
4412,70.0,204,90,11.0,64.0
4413,82.0,0,90,10.0,64.0
4414,73.0,60,60,11.0,64.0
4415,85.0,0,60,10.0,64.0
4416,83.0,60,60,10.0,64.0
4417,71.0,0,60,11.0,64.0
4418,73.0,60,60,11.0,64.0
4419,85.0,0,60,10.0,64.0
4420,71.0,96,60,11.0,64.0
4421,83.0,0,60,10.0,64.0
4422,81.0,0,90,10.0,64.0
4423,69.0,384,90,11.0,64.0
4424,79.0,96,240,10.0,64.0
4425,67.0,0,240,11.0,64.0
4426,66.0,0,90,11.0,64.0
4427,78.0,204,90,10.0,64.0
4428,66.0,60,60,11.0,64.0
4429,78.0,0,60,10.0,64.0
4430,64.0,60,60,11.0,64.0
4431,76.0,0,60,10.0,64.0
4432,78.0,0,60,10.0,64.0
4433,66.0,60,60,11.0,64.0
4434,64.0,96,60,11.0,64.0
4435,76.0,0,60,10.0,64.0
4436,74.0,0,90,10.0,64.0
4437,62.0,96,90,11.0,64.0
4438,73.0,0,1860,1.0,64.0
4439,76.0,0,1860,1.0,64.0
4440,57.0,0,1860,4.0,64.0
4441,85.0,0,1860,0.0,64.0
4442,79.0,0,1860,0.0,64.0
4443,45.0,144,1860,4.0,64.0
4444,73.0,0,240,10.0,64.0
4445,61.0,96,240,11.0,64.0
4446,59.0,0,90,11.0,64.0
4447,71.0,204,90,10.0,64.0
4448,59.0,0,60,11.0,64.0
4449,71.0,60,60,10.0,64.0
4450,69.0,60,60,10.0,64.0
4451,57.0,0,60,11.0,64.0
4452,59.0,60,60,11.0,64.0
4453,71.0,0,60,10.0,64.0
4454,69.0,96,60,10.0,64.0
4455,57.0,0,60,11.0,64.0
4456,68.0,0,90,10.0,64.0
4457,56.0,216,90,11.0,64.0
4458,55.0,0,60,11.0,64.0
4459,67.0,240,60,10.0,64.0
4460,66.0,240,60,10.0,64.0
4461,66.0,0,60,11.0,64.0
4462,67.0,0,60,10.0,64.0
4463,67.0,240,60,11.0,64.0
4464,64.0,0,60,10.0,64.0
4465,64.0,120,60,11.0,64.0
4466,74.0,0,180,1.0,64.0
4467,62.0,96,90,11.0,64.0
4468,78.0,0,180,0.0,64.0
4469,86.0,0,180,0.0,64.0
4470,78.0,0,180,1.0,64.0
4471,50.0,24,180,4.0,64.0
4472,62.0,0,180,10.0,64.0
4473,61.0,120,90,11.0,64.0
4474,62.0,120,90,11.0,64.0
4475,64.0,120,90,11.0,64.0
4476,66.0,120,90,11.0,64.0
4477,64.0,120,90,11.0,64.0
4478,66.0,120,90,11.0,64.0
4479,81.0,96,480,10.0,64.0
4480,64.0,120,90,11.0,64.0
4481,62.0,120,90,11.0,64.0
4482,61.0,24,90,11.0,64.0
4483,62.0,96,90,11.0,64.0
4484,78.0,24,180,10.0,64.0
4485,64.0,120,90,11.0,64.0
4486,66.0,120,90,11.0,64.0
4487,64.0,120,90,11.0,64.0
4488,66.0,120,90,11.0,64.0
4489,74.0,96,480,10.0,64.0
4490,62.0,120,90,11.0,64.0
4491,64.0,120,90,11.0,64.0
4492,63.0,24,90,11.0,64.0
4493,64.0,96,90,11.0,64.0
4494,73.0,24,180,10.0,64.0
4495,66.0,120,90,11.0,64.0
4496,67.0,120,90,11.0,64.0
4497,66.0,120,90,11.0,64.0
4498,67.0,120,90,11.0,64.0
4499,81.0,96,480,10.0,64.0
4500,66.0,120,90,11.0,64.0
4501,64.0,120,90,11.0,64.0
4502,63.0,24,90,11.0,64.0
4503,79.0,24,180,10.0,64.0
4504,64.0,96,90,11.0,64.0
4505,66.0,120,90,11.0,64.0
4506,67.0,120,90,11.0,64.0
4507,66.0,120,90,11.0,64.0
4508,67.0,120,90,11.0,64.0
4509,76.0,96,480,10.0,64.0
4510,64.0,120,90,11.0,64.0
4511,66.0,120,90,11.0,64.0
4512,64.0,24,90,11.0,64.0
4513,66.0,96,90,11.0,64.0
4514,74.0,24,180,10.0,64.0
4515,67.0,120,90,11.0,64.0
4516,69.0,120,90,11.0,64.0
4517,67.0,120,90,11.0,64.0
4518,69.0,120,90,11.0,64.0
4519,86.0,96,480,10.0,64.0
4520,67.0,120,90,11.0,64.0
4521,66.0,120,90,11.0,64.0
4522,67.0,24,90,11.0,64.0
4523,81.0,24,180,10.0,64.0
4524,69.0,96,90,11.0,64.0
4525,71.0,120,90,11.0,64.0
4526,72.0,120,90,11.0,64.0
4527,71.0,120,90,11.0,64.0
4528,78.0,96,240,10.0,64.0
4529,72.0,120,90,11.0,64.0
4530,69.0,24,90,11.0,64.0
4531,79.0,60,150,10.0,64.0
4532,71.0,60,90,11.0,64.0
4533,69.0,84,90,11.0,64.0
4534,83.0,36,60,10.0,64.0
4535,67.0,24,90,11.0,64.0
4536,81.0,60,60,10.0,64.0
4537,83.0,36,60,10.0,64.0
4538,66.0,12,90,11.0,64.0
4539,81.0,108,40,10.0,64.0
4540,67.0,96,90,11.0,64.0
4541,83.0,24,180,10.0,64.0
4542,69.0,120,90,11.0,64.0
4543,71.0,120,90,11.0,64.0
4544,73.0,84,90,11.0,64.0
4545,83.0,96,60,10.0,64.0
4546,74.0,21,150,11.0,64.0
4547,81.0,141,120,10.0,64.0
4548,71.0,42,150,11.0,64.0
4549,79.0,78,90,10.0,64.0
4550,78.0,102,90,10.0,64.0
4551,78.0,96,60,10.0,64.0
4552,67.0,21,150,11.0,64.0
4553,76.0,141,120,10.0,64.0
4554,74.0,78,90,10.0,64.0
4555,69.0,42,150,11.0,64.0
4556,73.0,138,90,10.0,64.0
4557,50.0,0,390,4.0,64.0
4558,62.0,0,390,5.0,64.0
4559,74.0,0,90,11.0,64.0
4560,62.0,0,90,3.0,64.0
4561,74.0,0,390,1.0,64.0
4562,74.0,0,390,0.0,64.0
4563,50.0,0,390,6.0,64.0
4564,62.0,120,90,12.0,64.0
4565,74.0,0,90,10.0,64.0
4566,50.0,0,90,14.0,64.0
4567,62.0,72,390,2.0,64.0
4568,62.0,0,90,13.0,64.0
4569,78.0,0,90,11.0,64.0
4570,66.0,120,90,13.0,64.0
4571,66.0,0,90,12.0,64.0
4572,78.0,0,90,10.0,64.0
4573,66.0,0,90,3.0,64.0
4574,54.0,0,90,14.0,64.0
4575,52.0,0,90,14.0,64.0
4576,76.0,0,90,11.0,64.0
4577,76.0,0,90,10.0,64.0
4578,64.0,0,90,3.0,64.0
4579,64.0,48,90,12.0,64.0
4580,64.0,0,90,13.0,64.0
4581,74.0,120,90,10.0,64.0
4582,74.0,0,90,11.0,64.0
4583,62.0,0,90,13.0,64.0
4584,50.0,0,90,14.0,64.0
4585,62.0,0,90,12.0,64.0
4586,62.0,0,90,3.0,64.0
4587,61.0,0,90,12.0,64.0
4588,49.0,0,90,14.0,64.0
4589,73.0,48,90,11.0,64.0
4590,50.0,0,150,4.0,64.0
4591,61.0,0,90,13.0,64.0
4592,62.0,0,150,2.0,64.0
4593,74.0,0,150,1.0,64.0
4594,61.0,0,90,3.0,64.0
4595,73.0,0,90,10.0,64.0
4596,74.0,72,150,0.0,64.0
4597,62.0,0,150,5.0,64.0
4598,74.0,0,90,10.0,64.0
4599,74.0,0,90,11.0,64.0
4600,62.0,0,90,12.0,64.0
4601,50.0,0,90,14.0,64.0
4602,62.0,0,90,3.0,64.0
4603,62.0,120,90,13.0,64.0
4604,59.0,0,90,3.0,64.0
4605,59.0,48,90,13.0,64.0
4606,71.0,0,90,11.0,64.0
4607,71.0,0,90,10.0,64.0
4608,62.0,72,150,5.0,64.0
4609,74.0,0,150,0.0,64.0
4610,62.0,0,150,2.0,64.0
4611,50.0,0,90,6.0,64.0
4612,47.0,0,90,14.0,64.0
4613,74.0,0,150,1.0,64.0
4614,59.0,0,90,12.0,64.0
4615,50.0,0,150,4.0,64.0
4616,61.0,0,90,13.0,64.0
4617,49.0,0,90,14.0,64.0
4618,50.0,0,90,6.0,64.0
4619,61.0,0,90,3.0,64.0
4620,73.0,0,90,11.0,64.0
4621,73.0,120,90,10.0,64.0
4622,61.0,0,90,12.0,64.0
4623,57.0,120,90,13.0,64.0
4624,78.0,0,390,1.0,64.0
4625,57.0,0,90,3.0,64.0
4626,69.0,0,90,11.0,64.0
4627,54.0,0,390,4.0,64.0
4628,69.0,0,90,10.0,64.0
4629,50.0,0,390,6.0,64.0
4630,66.0,72,390,2.0,64.0
4631,57.0,0,90,12.0,64.0
4632,78.0,0,390,0.0,64.0
4633,45.0,0,90,14.0,64.0
4634,66.0,0,390,5.0,64.0
4635,74.0,0,90,10.0,64.0
4636,62.0,0,90,12.0,64.0
4637,62.0,120,90,13.0,64.0
4638,62.0,0,90,3.0,64.0
4639,50.0,0,90,14.0,64.0
4640,74.0,0,90,11.0,64.0
4641,61.0,0,90,13.0,64.0
4642,61.0,48,90,12.0,64.0
4643,49.0,0,90,14.0,64.0
4644,73.0,0,90,11.0,64.0
4645,73.0,0,90,10.0,64.0
4646,61.0,0,90,3.0,64.0
4647,47.0,0,90,14.0,64.0
4648,71.0,120,90,10.0,64.0
4649,59.0,0,90,12.0,64.0
4650,59.0,0,90,3.0,64.0
4651,59.0,0,90,13.0,64.0
4652,71.0,0,90,11.0,64.0
4653,78.0,0,150,1.0,64.0
4654,66.0,72,150,2.0,64.0
4655,57.0,0,90,13.0,64.0
4656,45.0,48,90,14.0,64.0
4657,57.0,0,90,12.0,64.0
4658,69.0,0,90,11.0,64.0
4659,78.0,0,150,0.0,64.0
4660,54.0,0,150,4.0,64.0
4661,69.0,0,90,10.0,64.0
4662,66.0,0,150,5.0,64.0
4663,57.0,0,90,3.0,64.0
4664,59.0,0,90,12.0,64.0
4665,71.0,0,90,11.0,64.0
4666,59.0,0,90,13.0,64.0
4667,59.0,120,90,3.0,64.0
4668,71.0,0,90,10.0,64.0
4669,47.0,0,90,14.0,64.0
4670,78.0,72,150,0.0,64.0
4671,67.0,0,90,10.0,64.0
4672,55.0,48,90,12.0,64.0
4673,55.0,0,90,3.0,64.0
4674,43.0,0,90,14.0,64.0
4675,50.0,0,90,6.0,64.0
4676,66.0,0,150,2.0,64.0
4677,54.0,0,150,4.0,64.0
4678,55.0,0,90,13.0,64.0
4679,78.0,0,150,1.0,64.0
4680,66.0,0,150,5.0,64.0
4681,67.0,0,90,11.0,64.0
4682,57.0,0,90,3.0,64.0
4683,45.0,0,90,14.0,64.0
4684,50.0,0,90,6.0,64.0
4685,69.0,0,90,10.0,64.0
4686,69.0,0,90,11.0,64.0
4687,57.0,0,90,13.0,64.0
4688,57.0,120,90,12.0,64.0
4689,42.0,0,90,14.0,64.0
4690,69.0,72,390,2.0,64.0
4691,66.0,0,90,10.0,64.0
4692,81.0,0,390,0.0,64.0
4693,54.0,0,90,13.0,64.0
4694,57.0,0,390,4.0,64.0
4695,54.0,0,90,12.0,64.0
4696,81.0,0,390,1.0,64.0
4697,69.0,0,390,5.0,64.0
4698,54.0,120,90,3.0,64.0
4699,50.0,0,390,6.0,64.0
4700,66.0,0,90,11.0,64.0
4701,71.0,0,90,10.0,64.0
4702,59.0,0,90,12.0,64.0
4703,59.0,0,90,3.0,64.0
4704,47.0,0,90,14.0,64.0
4705,59.0,120,90,13.0,64.0
4706,71.0,0,90,11.0,64.0
4707,57.0,0,90,13.0,64.0
4708,69.0,0,90,11.0,64.0
4709,57.0,0,90,3.0,64.0
4710,45.0,0,90,14.0,64.0
4711,69.0,0,90,10.0,64.0
4712,57.0,48,90,12.0,64.0
4713,55.0,0,90,12.0,64.0
4714,55.0,0,90,13.0,64.0
4715,67.0,120,90,11.0,64.0
4716,67.0,0,90,10.0,64.0
4717,43.0,0,90,14.0,64.0
4718,55.0,0,90,3.0,64.0
4719,42.0,0,90,14.0,64.0
4720,66.0,48,90,11.0,64.0
4721,54.0,0,90,13.0,64.0
4722,54.0,0,90,3.0,64.0
4723,57.0,72,150,4.0,64.0
4724,69.0,0,150,5.0,64.0
4725,66.0,0,90,10.0,64.0
4726,54.0,0,90,12.0,64.0
4727,69.0,0,150,2.0,64.0
4728,81.0,0,150,0.0,64.0
4729,81.0,0,150,1.0,64.0
4730,67.0,0,90,11.0,64.0
4731,55.0,0,90,12.0,64.0
4732,43.0,120,90,14.0,64.0
4733,55.0,0,90,13.0,64.0
4734,55.0,0,90,3.0,64.0
4735,67.0,0,90,10.0,64.0
4736,64.0,0,90,11.0,64.0
4737,81.0,72,150,0.0,64.0
4738,69.0,0,150,2.0,64.0
4739,57.0,0,150,4.0,64.0
4740,64.0,0,90,10.0,64.0
4741,50.0,0,90,6.0,64.0
4742,69.0,0,150,5.0,64.0
4743,40.0,0,90,14.0,64.0
4744,52.0,0,90,13.0,64.0
4745,52.0,0,90,3.0,64.0
4746,52.0,48,90,12.0,64.0
4747,81.0,0,150,1.0,64.0
4748,66.0,0,90,10.0,64.0
4749,54.0,0,90,3.0,64.0
4750,50.0,0,90,6.0,64.0
4751,54.0,0,90,13.0,64.0
4752,66.0,0,90,11.0,64.0
4753,42.0,0,90,14.0,64.0
4754,54.0,144,90,12.0,64.0
4755,39.0,0,120,14.0,64.0
4756,72.0,0,3780,2.0,64.0
4757,81.0,0,570,0.0,64.0
4758,84.0,0,720,0.0,64.0
4759,51.0,120,120,3.0,64.0
4760,69.0,0,3780,2.0,64.0
4761,84.0,0,720,1.0,64.0
4762,63.0,0,120,10.0,64.0
4763,51.0,0,120,13.0,64.0
4764,45.0,0,390,6.0,64.0
4765,63.0,0,120,11.0,64.0
4766,51.0,0,120,12.0,64.0
4767,66.0,72,3660,4.0,64.0
4768,57.0,0,3660,4.0,64.0
4769,81.0,24,570,1.0,64.0
4770,69.0,96,390,5.0,64.0
4771,64.0,0,120,11.0,64.0
4772,52.0,0,120,13.0,64.0
4773,52.0,0,120,3.0,64.0
4774,52.0,0,120,12.0,64.0
4775,40.0,120,120,14.0,64.0
4776,64.0,0,120,10.0,64.0
4777,54.0,0,120,12.0,64.0
4778,66.0,0,120,10.0,64.0
4779,54.0,0,120,13.0,64.0
4780,54.0,0,120,3.0,64.0
4781,66.0,0,120,11.0,64.0
4782,42.0,24,120,14.0,64.0
4783,55.0,0,120,3.0,64.0
4784,67.0,96,120,11.0,64.0
4785,67.0,0,120,10.0,64.0
4786,55.0,0,120,13.0,64.0
4787,55.0,0,120,12.0,64.0
4788,43.0,0,120,14.0,64.0
4789,69.0,0,120,10.0,64.0
4790,57.0,120,120,13.0,64.0
4791,69.0,0,120,11.0,64.0
4792,57.0,0,120,12.0,64.0
4793,45.0,0,120,14.0,64.0
4794,57.0,0,120,3.0,64.0
4795,55.0,120,120,12.0,64.0
4796,43.0,0,120,14.0,64.0
4797,67.0,0,120,10.0,64.0
4798,55.0,0,120,3.0,64.0
4799,67.0,0,120,11.0,64.0
4800,55.0,0,120,13.0,64.0
4801,54.0,0,120,12.0,64.0
4802,81.0,24,180,1.0,64.0
4803,54.0,0,120,3.0,64.0
4804,66.0,0,120,11.0,64.0
4805,42.0,72,120,14.0,64.0
4806,54.0,0,120,13.0,64.0
4807,81.0,0,180,0.0,64.0
4808,66.0,0,120,10.0,64.0
4809,52.0,0,90,3.0,64.0
4810,64.0,0,90,10.0,64.0
4811,40.0,0,90,14.0,64.0
4812,52.0,144,90,12.0,64.0
4813,64.0,0,90,11.0,64.0
4814,52.0,0,90,13.0,64.0
4815,63.0,0,120,11.0,64.0
4816,84.0,120,240,0.0,64.0
4817,81.0,48,180,0.0,64.0
4818,39.0,0,120,14.0,64.0
4819,51.0,0,120,3.0,64.0
4820,81.0,0,180,1.0,64.0
4821,84.0,0,240,1.0,64.0
4822,51.0,0,120,13.0,64.0
4823,63.0,72,120,10.0,64.0
4824,51.0,0,120,12.0,64.0
4825,52.0,0,120,13.0,64.0
4826,52.0,0,120,3.0,64.0
4827,64.0,0,120,11.0,64.0
4828,64.0,0,120,10.0,64.0
4829,40.0,0,120,14.0,64.0
4830,52.0,0,120,12.0,64.0
4831,66.0,72,120,11.0,64.0
4832,54.0,0,120,13.0,64.0
4833,81.0,48,180,0.0,64.0
4834,42.0,0,120,14.0,64.0
4835,81.0,0,180,1.0,64.0
4836,54.0,0,120,12.0,64.0
4837,66.0,0,120,10.0,64.0
4838,54.0,0,120,3.0,64.0
4839,43.0,0,120,14.0,64.0
4840,55.0,0,120,12.0,64.0
4841,55.0,0,120,13.0,64.0
4842,67.0,0,120,10.0,64.0
4843,55.0,0,120,3.0,64.0
4844,67.0,120,120,11.0,64.0
4845,45.0,0,120,14.0,64.0
4846,81.0,48,180,0.0,64.0
4847,57.0,0,120,3.0,64.0
4848,57.0,0,120,13.0,64.0
4849,69.0,0,120,10.0,64.0
4850,81.0,0,180,1.0,64.0
4851,57.0,72,120,12.0,64.0
4852,69.0,0,120,11.0,64.0
4853,84.0,0,240,0.0,64.0
4854,84.0,0,240,1.0,64.0
4855,55.0,0,120,3.0,64.0
4856,55.0,0,120,13.0,64.0
4857,67.0,0,120,11.0,64.0
4858,67.0,0,120,10.0,64.0
4859,43.0,120,120,14.0,64.0
4860,55.0,0,120,12.0,64.0
4861,54.0,0,120,12.0,64.0
4862,54.0,0,120,3.0,64.0
4863,66.0,0,120,10.0,64.0
4864,81.0,24,180,0.0,64.0
4865,42.0,0,120,14.0,64.0
4866,54.0,72,120,13.0,64.0
4867,81.0,0,180,1.0,64.0
4868,66.0,0,120,11.0,64.0
4869,64.0,0,90,10.0,64.0
4870,52.0,0,90,12.0,64.0
4871,40.0,0,90,14.0,64.0
4872,52.0,144,90,3.0,64.0
4873,52.0,0,90,13.0,64.0
4874,64.0,0,90,11.0,64.0
4875,38.0,0,120,14.0,64.0
4876,81.0,0,570,1.0,64.0
4877,62.0,0,120,10.0,64.0
4878,84.0,0,720,1.0,64.0
4879,50.0,96,390,6.0,64.0
4880,62.0,0,120,11.0,64.0
4881,50.0,0,120,3.0,64.0
4882,74.0,48,780,5.0,64.0
4883,62.0,0,780,5.0,64.0
4884,84.0,0,720,0.0,64.0
4885,81.0,24,570,0.0,64.0
4886,50.0,0,120,13.0,64.0
4887,50.0,120,120,12.0,64.0
4888,64.0,0,120,11.0,64.0
4889,64.0,0,120,10.0,64.0
4890,52.0,120,120,12.0,64.0
4891,40.0,0,120,14.0,64.0
4892,52.0,0,120,13.0,64.0
4893,52.0,0,120,3.0,64.0
4894,54.0,24,120,13.0,64.0
4895,66.0,0,120,11.0,64.0
4896,66.0,0,120,10.0,64.0
4897,42.0,0,120,14.0,64.0
4898,54.0,0,120,12.0,64.0
4899,54.0,0,120,3.0,64.0
4900,67.0,0,120,11.0,64.0
4901,55.0,0,120,13.0,64.0
4902,55.0,0,120,3.0,64.0
4903,67.0,0,120,10.0,64.0
4904,43.0,0,120,14.0,64.0
4905,55.0,96,120,12.0,64.0
4906,57.0,0,120,12.0,64.0
4907,69.0,120,120,11.0,64.0
4908,57.0,0,120,13.0,64.0
4909,69.0,0,120,10.0,64.0
4910,57.0,0,120,3.0,64.0
4911,45.0,0,120,14.0,64.0
4912,67.0,0,120,11.0,64.0
4913,67.0,0,120,10.0,64.0
4914,55.0,0,120,13.0,64.0
4915,55.0,0,120,3.0,64.0
4916,55.0,0,120,12.0,64.0
4917,43.0,48,120,14.0,64.0
4918,54.0,0,120,13.0,64.0
4919,50.0,24,90,6.0,64.0
4920,81.0,0,180,0.0,64.0
4921,81.0,24,180,1.0,64.0
4922,66.0,0,120,11.0,64.0
4923,42.0,0,120,14.0,64.0
4924,54.0,0,120,3.0,64.0
4925,54.0,0,120,12.0,64.0
4926,66.0,72,120,10.0,64.0
4927,40.0,0,90,14.0,64.0
4928,52.0,0,90,12.0,64.0
4929,64.0,0,90,10.0,64.0
4930,52.0,144,90,13.0,64.0
4931,50.0,0,90,6.0,64.0
4932,64.0,0,90,11.0,64.0
4933,52.0,0,90,3.0,64.0
4934,50.0,0,390,6.0,64.0
4935,62.0,72,120,10.0,64.0
4936,74.0,48,390,5.0,64.0
4937,84.0,0,240,1.0,64.0
4938,62.0,0,390,5.0,64.0
4939,50.0,0,120,12.0,64.0
4940,81.0,0,180,1.0,64.0
4941,81.0,48,180,0.0,64.0
4942,62.0,0,120,11.0,64.0
4943,84.0,0,240,0.0,64.0
4944,38.0,0,120,14.0,64.0
4945,50.0,0,120,3.0,64.0
4946,50.0,0,120,13.0,64.0
4947,40.0,0,120,14.0,64.0
4948,52.0,0,120,3.0,64.0
4949,52.0,0,120,12.0,64.0
4950,52.0,0,120,13.0,64.0
4951,64.0,120,120,11.0,64.0
4952,64.0,0,120,10.0,64.0
4953,54.0,0,120,3.0,64.0
4954,42.0,0,120,14.0,64.0
4955,81.0,0,180,0.0,64.0
4956,66.0,0,120,11.0,64.0
4957,54.0,24,120,13.0,64.0
4958,81.0,48,180,1.0,64.0
4959,54.0,0,120,12.0,64.0
4960,66.0,0,120,10.0,64.0
4961,43.0,0,120,14.0,64.0
4962,55.0,120,120,3.0,64.0
4963,67.0,0,120,11.0,64.0
4964,55.0,0,120,13.0,64.0
4965,67.0,0,120,10.0,64.0
4966,55.0,0,120,12.0,64.0
4967,69.0,0,120,10.0,64.0
4968,57.0,0,120,12.0,64.0
4969,50.0,48,390,6.0,64.0
4970,81.0,0,180,0.0,64.0
4971,84.0,0,240,1.0,64.0
4972,81.0,48,180,1.0,64.0
4973,57.0,72,120,13.0,64.0
4974,74.0,0,390,5.0,64.0
4975,45.0,0,120,14.0,64.0
4976,57.0,0,120,3.0,64.0
4977,84.0,0,240,0.0,64.0
4978,69.0,0,120,11.0,64.0
4979,62.0,0,390,5.0,64.0
4980,55.0,0,120,3.0,64.0
4981,55.0,0,120,12.0,64.0
4982,67.0,0,120,10.0,64.0
4983,67.0,48,120,11.0,64.0
4984,55.0,0,120,13.0,64.0
4985,43.0,0,120,14.0,64.0
4986,81.0,0,180,0.0,64.0
4987,66.0,24,120,10.0,64.0
4988,42.0,0,120,14.0,64.0
4989,81.0,24,180,1.0,64.0
4990,66.0,0,120,11.0,64.0
4991,54.0,0,120,13.0,64.0
4992,54.0,0,120,12.0,64.0
4993,54.0,0,120,3.0,64.0
4994,52.0,180,90,3.0,64.0
4995,52.0,0,90,12.0,64.0
4996,40.0,0,90,14.0,64.0
4997,64.0,0,90,10.0,64.0
4998,52.0,0,90,13.0,64.0
4999,64.0,0,90,11.0,64.0
5000,62.0,12,390,4.0,64.0
5001,83.0,0,450,0.0,64.0
5002,67.0,0,930,2.0,64.0
5003,79.0,0,450,0.0,64.0
5004,67.0,0,390,4.0,64.0
5005,83.0,0,450,1.0,64.0
5006,62.0,0,180,5.0,64.0
5007,55.0,0,180,13.0,64.0
5008,67.0,0,150,11.0,64.0
5009,50.0,0,180,6.0,64.0
5010,67.0,36,150,10.0,64.0
5011,74.0,0,180,5.0,64.0
5012,55.0,0,180,12.0,64.0
5013,79.0,0,930,1.0,64.0
5014,43.0,192,180,14.0,64.0
5015,71.0,180,450,2.0,64.0
5016,55.0,0,180,3.0,64.0
5017,83.0,60,150,11.0,64.0
5018,83.0,0,150,10.0,64.0
5019,45.0,0,180,6.0,64.0
5020,52.0,192,180,13.0,64.0
5021,52.0,0,180,3.0,64.0
5022,67.0,0,180,12.0,64.0
5023,69.0,0,180,12.0,64.0
5024,64.0,0,150,10.0,64.0
5025,64.0,36,150,11.0,64.0
5026,85.0,180,450,0.0,64.0
5027,81.0,0,930,0.0,64.0
5028,85.0,0,450,1.0,64.0
5029,40.0,0,180,14.0,64.0
5030,69.0,0,180,5.0,64.0
5031,73.0,0,450,2.0,64.0
5032,76.0,0,180,5.0,64.0
5033,67.0,0,390,4.0,64.0
5034,57.0,12,390,4.0,64.0
5035,85.0,60,150,10.0,64.0
5036,85.0,0,150,11.0,64.0
5037,62.0,36,150,11.0,64.0
5038,38.0,0,180,14.0,64.0
5039,74.0,0,180,5.0,64.0
5040,50.0,0,180,13.0,64.0
5041,62.0,0,150,10.0,64.0
5042,86.0,180,450,0.0,64.0
5043,50.0,0,180,3.0,64.0
5044,78.0,192,180,5.0,64.0
5045,50.0,0,180,6.0,64.0
5046,69.0,0,180,12.0,64.0
5047,66.0,0,180,12.0,64.0
5048,81.0,0,450,1.0,64.0
5049,86.0,0,450,1.0,64.0
5050,69.0,0,450,2.0,64.0
5051,66.0,0,390,4.0,64.0
5052,74.0,0,450,2.0,64.0
5053,62.0,12,390,4.0,64.0
5054,86.0,0,150,10.0,64.0
5055,86.0,60,150,11.0,64.0
5056,47.0,192,180,13.0,64.0
5057,47.0,0,180,3.0,64.0
5058,62.0,0,180,12.0,64.0
5059,62.0,0,180,5.0,64.0
5060,35.0,0,180,14.0,64.0
5061,74.0,0,450,0.0,64.0
5062,80.0,0,450,0.0,64.0
5063,80.0,120,450,1.0,64.0
5064,74.0,0,450,1.0,64.0
5065,62.0,0,390,4.0,64.0
5066,50.0,12,390,4.0,64.0
5067,50.0,0,180,6.0,64.0
5068,74.0,0,180,5.0,64.0
5069,68.0,0,450,2.0,64.0
5070,59.0,0,180,12.0,64.0
5071,62.0,36,150,11.0,64.0
5072,62.0,0,150,10.0,64.0
5073,80.0,0,150,10.0,64.0
5074,80.0,60,150,11.0,64.0
5075,81.0,0,2310,0.0,64.0
5076,81.0,0,90,11.0,64.0
5077,73.0,0,390,2.0,64.0
5078,69.0,0,390,2.0,64.0
5079,69.0,24,180,5.0,64.0
5080,45.0,0,390,6.0,64.0
5081,33.0,0,390,14.0,64.0
5082,81.0,0,390,10.0,64.0
5083,61.0,96,90,12.0,64.0
5084,69.0,0,2310,0.0,64.0
5085,81.0,0,450,1.0,64.0
5086,76.0,0,450,1.0,64.0
5087,45.0,0,390,3.0,64.0
5088,45.0,48,390,13.0,64.0
5089,64.0,0,90,12.0,64.0
5090,76.0,120,90,11.0,64.0
5091,73.0,0,90,11.0,64.0
5092,57.0,24,180,4.0,64.0
5093,61.0,48,90,12.0,64.0
5094,69.0,0,90,11.0,64.0
5095,57.0,120,90,12.0,64.0
5096,77.0,0,90,11.0,64.0
5097,74.0,0,450,1.0,64.0
5098,77.0,0,450,1.0,64.0
5099,50.0,24,180,13.0,64.0
5100,50.0,0,180,3.0,64.0
5101,38.0,0,180,14.0,64.0
5102,65.0,96,90,12.0,64.0
5103,57.0,0,660,4.0,64.0
5104,81.0,120,90,11.0,64.0
5105,69.0,0,90,12.0,64.0
5106,74.0,0,180,2.0,64.0
5107,77.0,36,150,10.0,64.0
5108,53.0,0,180,3.0,64.0
5109,41.0,0,180,14.0,64.0
5110,53.0,24,180,13.0,64.0
5111,65.0,0,180,2.0,64.0
5112,62.0,0,150,10.0,64.0
5113,69.0,0,150,10.0,64.0
5114,65.0,0,90,12.0,64.0
5115,77.0,60,90,11.0,64.0
5116,45.0,0,90,6.0,64.0
5117,45.0,0,90,6.0,64.0
5118,74.0,120,90,11.0,64.0
5119,62.0,0,90,12.0,64.0
5120,73.0,0,450,1.0,64.0
5121,76.0,120,450,1.0,64.0
5122,61.0,0,90,12.0,64.0
5123,45.0,0,390,3.0,64.0
5124,73.0,96,90,11.0,64.0
5125,73.0,24,180,10.0,64.0
5126,76.0,24,420,10.0,64.0
5127,69.0,0,180,10.0,64.0
5128,45.0,0,390,13.0,64.0
5129,73.0,48,390,2.0,64.0
5130,64.0,0,390,2.0,64.0
5131,45.0,0,390,6.0,64.0
5132,33.0,0,390,14.0,64.0
5133,76.0,0,90,11.0,64.0
5134,64.0,120,90,12.0,64.0
5135,73.0,0,90,11.0,64.0
5136,57.0,0,180,4.0,64.0
5137,61.0,48,90,12.0,64.0
5138,57.0,0,90,12.0,64.0
5139,69.0,0,90,11.0,64.0
5140,65.0,96,90,12.0,64.0
5141,57.0,24,660,4.0,64.0
5142,38.0,0,180,14.0,64.0
5143,77.0,0,450,1.0,64.0
5144,74.0,0,450,1.0,64.0
5145,77.0,0,90,11.0,64.0
5146,50.0,0,180,13.0,64.0
5147,50.0,24,180,3.0,64.0
5148,81.0,0,90,11.0,64.0
5149,69.0,120,90,12.0,64.0
5150,77.0,0,150,10.0,64.0
5151,65.0,0,180,2.0,64.0
5152,74.0,0,180,2.0,64.0
5153,69.0,0,150,10.0,64.0
5154,53.0,0,180,3.0,64.0
5155,65.0,0,90,12.0,64.0
5156,77.0,0,90,11.0,64.0
5157,41.0,0,180,14.0,64.0
5158,45.0,60,90,6.0,64.0
5159,53.0,24,180,13.0,64.0
5160,62.0,36,150,10.0,64.0
5161,74.0,0,90,11.0,64.0
5162,45.0,0,90,6.0,64.0
5163,62.0,120,90,12.0,64.0
5164,73.0,60,90,11.0,64.0
5165,57.0,0,390,13.0,64.0
5166,73.0,0,390,1.0,64.0
5167,45.0,0,390,14.0,64.0
5168,76.0,0,390,1.0,64.0
5169,69.0,0,390,5.0,64.0
5170,45.0,48,390,6.0,64.0
5171,57.0,0,390,3.0,64.0
5172,64.0,36,150,2.0,64.0
5173,69.0,0,180,10.0,64.0
5174,73.0,0,180,10.0,64.0
5175,73.0,0,150,2.0,64.0
5176,61.0,0,90,12.0,64.0
5177,76.0,24,420,10.0,64.0
5178,81.0,120,90,11.0,64.0
5179,69.0,0,90,12.0,64.0
5180,69.0,24,300,2.0,64.0
5181,57.0,0,300,2.0,64.0
5182,69.0,48,90,12.0,64.0
5183,81.0,0,90,11.0,64.0
5184,81.0,96,90,11.0,64.0
5185,69.0,0,90,12.0,64.0
5186,81.0,0,90,11.0,64.0
5187,69.0,120,90,12.0,64.0
5188,69.0,120,90,12.0,64.0
5189,81.0,0,90,11.0,64.0
5190,62.0,0,150,3.0,64.0
5191,50.0,24,180,14.0,64.0
5192,74.0,0,150,5.0,64.0
5193,78.0,0,150,5.0,64.0
5194,57.0,0,150,2.0,64.0
5195,69.0,60,90,12.0,64.0
5196,62.0,0,150,13.0,64.0
5197,50.0,0,180,6.0,64.0
5198,78.0,0,150,10.0,64.0
5199,78.0,0,150,0.0,64.0
5200,88.0,0,150,0.0,64.0
5201,86.0,0,150,10.0,64.0
5202,69.0,0,150,2.0,64.0
5203,66.0,0,150,4.0,64.0
5204,62.0,36,150,4.0,64.0
5205,81.0,0,90,11.0,64.0
5206,78.0,0,150,1.0,64.0
5207,74.0,0,150,1.0,64.0
5208,81.0,120,90,11.0,64.0
5209,69.0,0,90,12.0,64.0
5210,73.0,0,150,1.0,64.0
5211,57.0,0,150,4.0,64.0
5212,64.0,0,150,4.0,64.0
5213,57.0,0,150,3.0,64.0
5214,57.0,0,150,2.0,64.0
5215,76.0,0,150,5.0,64.0
5216,57.0,0,150,13.0,64.0
5217,85.0,0,150,0.0,64.0
5218,85.0,0,150,10.0,64.0
5219,76.0,36,150,10.0,64.0
5220,76.0,0,150,0.0,64.0
5221,69.0,0,150,5.0,64.0
5222,69.0,0,150,2.0,64.0
5223,76.0,0,150,1.0,64.0
5224,69.0,0,90,11.0,64.0
5225,81.0,60,90,11.0,64.0
5226,45.0,0,180,6.0,64.0
5227,69.0,0,90,12.0,64.0
5228,45.0,24,180,14.0,64.0
5229,69.0,0,90,11.0,64.0
5230,81.0,120,90,11.0,64.0
5231,69.0,0,90,12.0,64.0
5232,69.0,0,90,12.0,64.0
5233,78.0,0,150,10.0,64.0
5234,86.0,0,150,10.0,64.0
5235,57.0,0,150,2.0,64.0
5236,78.0,0,150,5.0,64.0
5237,69.0,0,150,2.0,64.0
5238,50.0,24,180,6.0,64.0
5239,62.0,0,150,13.0,64.0
5240,74.0,36,150,5.0,64.0
5241,74.0,0,150,1.0,64.0
5242,69.0,0,90,11.0,64.0
5243,81.0,60,90,11.0,64.0
5244,66.0,0,150,4.0,64.0
5245,62.0,0,150,3.0,64.0
5246,62.0,0,150,4.0,64.0
5247,86.0,0,150,0.0,64.0
5248,78.0,0,150,0.0,64.0
5249,50.0,0,180,14.0,64.0
5250,78.0,0,150,1.0,64.0
5251,69.0,0,90,12.0,64.0
5252,81.0,120,90,11.0,64.0
5253,69.0,0,90,11.0,64.0
5254,81.0,0,90,11.0,64.0
5255,45.0,24,180,6.0,64.0
5256,69.0,0,90,12.0,64.0
5257,76.0,0,150,5.0,64.0
5258,69.0,0,150,5.0,64.0
5259,57.0,0,150,3.0,64.0
5260,76.0,0,150,0.0,64.0
5261,85.0,0,150,0.0,64.0
5262,76.0,36,150,10.0,64.0
5263,69.0,0,150,2.0,64.0
5264,57.0,0,150,2.0,64.0
5265,45.0,0,180,14.0,64.0
5266,73.0,0,150,1.0,64.0
5267,85.0,0,150,10.0,64.0
5268,57.0,0,150,13.0,64.0
5269,57.0,0,150,4.0,64.0
5270,69.0,60,90,11.0,64.0
5271,76.0,0,150,1.0,64.0
5272,64.0,0,150,4.0,64.0
5273,69.0,0,90,12.0,64.0
5274,81.0,0,90,11.0,64.0
5275,69.0,120,90,11.0,64.0
5276,78.0,0,150,10.0,64.0
5277,62.0,36,150,3.0,64.0
5278,62.0,0,150,13.0,64.0
5279,86.0,0,150,10.0,64.0
5280,69.0,0,90,12.0,64.0
5281,57.0,0,150,2.0,64.0
5282,78.0,0,150,5.0,64.0
5283,62.0,0,150,4.0,64.0
5284,74.0,0,150,5.0,64.0
5285,69.0,60,90,11.0,64.0
5286,81.0,0,90,11.0,64.0
5287,66.0,0,150,4.0,64.0
5288,74.0,0,150,1.0,64.0
5289,69.0,0,150,2.0,64.0
5290,50.0,24,180,14.0,64.0
5291,78.0,0,150,0.0,64.0
5292,86.0,0,150,0.0,64.0
5293,50.0,0,180,6.0,64.0
5294,78.0,0,150,1.0,64.0
5295,81.0,0,90,11.0,64.0
5296,69.0,336,90,11.0,64.0
5297,69.0,0,90,12.0,64.0
5298,45.0,0,390,6.0,64.0
5299,76.0,0,300,0.0,64.0
5300,85.0,0,300,0.0,64.0
5301,57.0,0,300,2.0,64.0
5302,76.0,0,300,5.0,64.0
5303,69.0,0,300,5.0,64.0
5304,81.0,0,300,11.0,64.0
5305,69.0,72,300,11.0,64.0
5306,57.0,0,300,3.0,64.0
5307,76.0,0,300,1.0,64.0
5308,57.0,0,300,13.0,64.0
5309,76.0,0,300,10.0,64.0
5310,85.0,0,300,10.0,64.0
5311,73.0,0,300,1.0,64.0
5312,57.0,0,300,4.0,64.0
5313,69.0,408,390,12.0,64.0
5314,69.0,0,300,2.0,64.0
5315,64.0,0,300,4.0,64.0
5316,45.0,0,390,14.0,64.0
5317,57.0,0,300,5.0,64.0
5318,57.0,72,300,13.0,64.0
5319,69.0,0,300,2.0,64.0
5320,57.0,0,300,2.0,64.0
5321,69.0,0,300,10.0,64.0
5322,81.0,0,300,10.0,64.0
5323,81.0,0,300,1.0,64.0
5324,45.0,0,390,6.0,64.0
5325,69.0,0,300,11.0,64.0
5326,57.0,0,300,4.0,64.0
5327,69.0,0,300,5.0,64.0
5328,69.0,0,300,4.0,64.0
5329,81.0,0,300,0.0,64.0
5330,45.0,0,390,14.0,64.0
5331,69.0,480,390,12.0,64.0
5332,57.0,0,300,3.0,64.0
5333,45.0,192,390,6.0,64.0
5334,33.0,0,390,14.0,64.0
5335,69.0,0,390,0.0,64.0
5336,57.0,0,390,5.0,64.0
5337,57.0,0,570,11.0,64.0
5338,45.0,0,390,3.0,64.0
5339,69.0,0,390,1.0,64.0
5340,69.0,0,390,5.0,64.0
5341,57.0,0,390,2.0,64.0
5342,69.0,0,390,2.0,64.0
5343,45.0,0,390,4.0,64.0
5344,57.0,0,390,4.0,64.0
5345,57.0,384,570,10.0,64.0
5346,57.0,0,390,12.0,64.0
5347,45.0,0,390,13.0,64.0
5348,69.0,0,240,10.0,64.0
5349,57.0,144,240,11.0,64.0
5350,56.0,0,150,11.0,64.0
5351,68.0,240,150,10.0,64.0
5352,69.0,0,150,10.0,64.0
5353,57.0,240,150,11.0,64.0
5354,57.0,0,150,11.0,64.0
5355,69.0,240,150,10.0,64.0
5356,57.0,0,150,11.0,64.0
5357,69.0,336,150,10.0,64.0
5358,70.0,0,240,10.0,64.0
5359,58.0,240,240,11.0,64.0
5360,59.0,0,240,11.0,64.0
5361,71.0,240,240,10.0,64.0
5362,60.0,0,240,11.0,64.0
5363,72.0,192,240,10.0,64.0
5364,61.0,0,180,11.0,64.0
5365,73.0,240,180,10.0,64.0
5366,62.0,0,180,4.0,64.0
5367,62.0,0,180,11.0,64.0
5368,74.0,0,180,11.0,64.0
5369,54.0,0,180,4.0,64.0
5370,62.0,0,180,10.0,64.0
5371,69.0,0,180,12.0,64.0
5372,66.0,0,180,12.0,64.0
5373,74.0,0,180,10.0,64.0
5374,66.0,0,180,2.0,64.0
5375,50.0,0,180,6.0,64.0
5376,86.0,0,180,0.0,64.0
5377,62.0,0,180,5.0,64.0
5378,74.0,0,180,5.0,64.0
5379,50.0,480,180,14.0,64.0
5380,62.0,0,180,3.0,64.0
5381,69.0,0,180,1.0,64.0
5382,74.0,0,180,1.0,64.0
5383,62.0,0,180,13.0,64.0
5384,74.0,0,180,2.0,64.0
5385,69.0,0,180,5.0,64.0
5386,69.0,0,180,1.0,64.0
5387,76.0,0,180,2.0,64.0
5388,67.0,0,180,2.0,64.0
5389,69.0,0,180,10.0,64.0
5390,76.0,0,180,10.0,64.0
5391,76.0,0,180,1.0,64.0
5392,61.0,408,180,3.0,64.0
5393,88.0,0,180,0.0,64.0
5394,61.0,0,180,13.0,64.0
5395,45.0,0,180,6.0,64.0
5396,64.0,0,180,4.0,64.0
5397,69.0,0,180,12.0,64.0
5398,67.0,0,180,12.0,64.0
5399,49.0,0,180,14.0,64.0
5400,69.0,0,180,11.0,64.0
5401,76.0,0,180,11.0,64.0
5402,57.0,0,180,4.0,64.0
5403,81.0,120,120,10.0,64.0
5404,83.0,120,120,10.0,64.0
5405,81.0,120,120,10.0,64.0
5406,83.0,120,120,10.0,64.0
5407,81.0,120,120,10.0,64.0
5408,79.0,120,120,10.0,64.0
5409,78.0,96,120,10.0,64.0
5410,76.0,216,90,10.0,64.0
5411,62.0,0,180,11.0,64.0
5412,66.0,0,180,2.0,64.0
5413,50.0,0,180,6.0,64.0
5414,66.0,480,180,12.0,64.0
5415,69.0,0,180,12.0,64.0
5416,62.0,0,180,5.0,64.0
5417,62.0,0,180,3.0,64.0
5418,74.0,0,180,1.0,64.0
5419,74.0,0,180,2.0,64.0
5420,69.0,0,180,1.0,64.0
5421,62.0,0,180,13.0,64.0
5422,74.0,0,180,10.0,64.0
5423,62.0,0,180,10.0,64.0
5424,74.0,0,180,5.0,64.0
5425,62.0,0,180,4.0,64.0
5426,54.0,0,180,4.0,64.0
5427,86.0,0,180,0.0,64.0
5428,50.0,0,180,14.0,64.0
5429,74.0,0,180,11.0,64.0
5430,69.0,0,180,5.0,64.0
5431,67.0,0,180,12.0,64.0
5432,76.0,0,180,10.0,64.0
5433,69.0,0,180,10.0,64.0
5434,69.0,0,180,12.0,64.0
5435,45.0,408,180,6.0,64.0
5436,57.0,0,180,4.0,64.0
5437,76.0,0,180,2.0,64.0
5438,69.0,0,180,11.0,64.0
5439,64.0,0,180,4.0,64.0
5440,88.0,0,180,0.0,64.0
5441,61.0,0,180,13.0,64.0
5442,76.0,0,180,1.0,64.0
5443,69.0,0,180,1.0,64.0
5444,76.0,0,180,11.0,64.0
5445,67.0,0,180,2.0,64.0
5446,49.0,0,180,14.0,64.0
5447,61.0,0,180,3.0,64.0
5448,81.0,120,120,10.0,64.0
5449,83.0,120,120,10.0,64.0
5450,81.0,120,120,10.0,64.0
5451,83.0,120,120,10.0,64.0
5452,81.0,120,120,10.0,64.0
5453,79.0,120,120,10.0,64.0
5454,78.0,96,120,10.0,64.0
5455,76.0,120,90,10.0,64.0
5456,74.0,0,570,10.0,64.0
5457,62.0,0,780,5.0,64.0
5458,50.0,12,390,6.0,64.0
5459,74.0,0,780,5.0,64.0
5460,69.0,0,90,11.0,64.0
5461,50.0,48,780,4.0,64.0
5462,62.0,0,780,4.0,64.0
5463,50.0,36,150,13.0,64.0
5464,50.0,0,150,3.0,64.0
5465,69.0,0,900,2.0,64.0
5466,65.0,0,900,2.0,64.0
5467,62.0,0,900,1.0,64.0
5468,38.0,24,180,14.0,64.0
5469,62.0,0,900,0.0,64.0
5470,62.0,60,90,12.0,64.0
5471,65.0,0,90,11.0,64.0
5472,62.0,0,570,10.0,64.0
5473,69.0,0,90,11.0,64.0
5474,65.0,0,90,11.0,64.0
5475,62.0,120,90,12.0,64.0
5476,62.0,36,150,3.0,64.0
5477,65.0,48,90,11.0,64.0
5478,62.0,0,150,13.0,64.0
5479,62.0,0,90,12.0,64.0
5480,69.0,0,90,11.0,64.0
5481,50.0,24,180,14.0,64.0
5482,65.0,0,90,11.0,64.0
5483,62.0,0,90,12.0,64.0
5484,69.0,120,90,11.0,64.0
5485,69.0,0,90,11.0,64.0
5486,62.0,0,150,13.0,64.0
5487,62.0,36,150,3.0,64.0
5488,62.0,60,90,12.0,64.0
5489,65.0,0,90,11.0,64.0
5490,50.0,24,180,14.0,64.0
5491,65.0,0,90,11.0,64.0
5492,62.0,0,90,12.0,64.0
5493,69.0,72,90,11.0,64.0
5494,69.0,0,90,11.0,64.0
5495,77.0,0,90,10.0,64.0
5496,50.0,60,90,6.0,64.0
5497,50.0,24,180,14.0,64.0
5498,62.0,0,90,12.0,64.0
5499,62.0,0,150,13.0,64.0
5500,62.0,36,150,3.0,64.0
5501,65.0,0,90,11.0,64.0
5502,74.0,0,90,10.0,64.0
5503,69.0,120,90,11.0,64.0
5504,50.0,0,90,6.0,64.0
5505,62.0,0,90,12.0,64.0
5506,65.0,0,90,11.0,64.0
5507,62.0,0,780,4.0,64.0
5508,70.0,0,1410,2.0,64.0
5509,77.0,0,1890,1.0,64.0
5510,65.0,0,1890,2.0,64.0
5511,82.0,0,1410,0.0,64.0
5512,62.0,48,780,5.0,64.0
5513,74.0,0,780,5.0,64.0
5514,74.0,0,90,12.0,64.0
5515,50.0,36,150,3.0,64.0
5516,50.0,0,150,13.0,64.0
5517,38.0,24,180,14.0,64.0
5518,82.0,0,1410,1.0,64.0
5519,50.0,0,780,4.0,64.0
5520,86.0,0,1890,0.0,64.0
5521,82.0,0,570,10.0,64.0
5522,50.0,12,390,6.0,64.0
5523,65.0,0,90,11.0,64.0
5524,70.0,60,90,11.0,64.0
5525,65.0,0,90,11.0,64.0
5526,70.0,120,90,11.0,64.0
5527,74.0,0,90,12.0,64.0
5528,62.0,36,150,3.0,64.0
5529,74.0,0,90,12.0,64.0
5530,70.0,48,90,11.0,64.0
5531,65.0,0,90,11.0,64.0
5532,50.0,24,180,14.0,64.0
5533,62.0,0,150,13.0,64.0
5534,74.0,120,90,12.0,64.0
5535,70.0,0,90,11.0,64.0
5536,65.0,0,90,11.0,64.0
5537,70.0,60,90,11.0,64.0
5538,62.0,36,150,13.0,64.0
5539,50.0,24,180,14.0,64.0
5540,74.0,0,90,12.0,64.0
5541,62.0,0,150,3.0,64.0
5542,65.0,0,90,11.0,64.0
5543,65.0,72,90,11.0,64.0
5544,70.0,0,90,11.0,64.0
5545,74.0,0,90,12.0,64.0
5546,50.0,24,180,14.0,64.0
5547,74.0,0,90,12.0,64.0
5548,77.0,0,90,10.0,64.0
5549,65.0,0,90,11.0,64.0
5550,70.0,0,90,11.0,64.0
5551,50.0,60,90,6.0,64.0
5552,62.0,0,150,3.0,64.0
5553,62.0,36,150,13.0,64.0
5554,70.0,0,90,11.0,64.0
5555,65.0,0,90,11.0,64.0
5556,82.0,120,90,10.0,64.0
5557,50.0,0,90,6.0,64.0
5558,74.0,0,90,12.0,64.0
5559,50.0,0,180,6.0,64.0
5560,50.0,0,150,13.0,64.0
5561,62.0,0,390,5.0,64.0
5562,70.0,36,90,11.0,64.0
5563,65.0,0,90,11.0,64.0
5564,74.0,12,390,5.0,64.0
5565,86.0,24,120,10.0,64.0
5566,38.0,24,180,14.0,64.0
5567,74.0,0,90,12.0,64.0
5568,50.0,36,150,3.0,64.0
5569,62.0,0,390,4.0,64.0
5570,50.0,0,390,4.0,64.0
5571,65.0,120,90,11.0,64.0
5572,74.0,0,90,12.0,64.0
5573,70.0,0,90,11.0,64.0
5574,50.0,24,180,14.0,64.0
5575,82.0,12,120,10.0,64.0
5576,62.0,36,150,3.0,64.0
5577,74.0,36,90,12.0,64.0
5578,62.0,0,150,13.0,64.0
5579,65.0,0,90,11.0,64.0
5580,70.0,0,90,11.0,64.0
5581,70.0,0,90,11.0,64.0
5582,74.0,0,90,12.0,64.0
5583,65.0,120,90,11.0,64.0
5584,69.0,0,450,2.0,64.0
5585,81.0,0,450,1.0,64.0
5586,74.0,0,90,12.0,64.0
5587,50.0,24,180,6.0,64.0
5588,50.0,0,150,13.0,64.0
5589,50.0,36,150,3.0,64.0
5590,69.0,0,90,11.0,64.0
5591,65.0,36,90,11.0,64.0
5592,81.0,0,450,0.0,64.0
5593,62.0,0,390,5.0,64.0
5594,74.0,12,390,5.0,64.0
5595,38.0,0,180,14.0,64.0
5596,62.0,0,390,4.0,64.0
5597,50.0,0,390,4.0,64.0
5598,86.0,24,120,10.0,64.0
5599,74.0,0,90,12.0,64.0
5600,69.0,0,90,11.0,64.0
5601,65.0,120,90,11.0,64.0
5602,62.0,36,150,13.0,64.0
5603,81.0,12,120,10.0,64.0
5604,65.0,0,90,11.0,64.0
5605,69.0,0,90,11.0,64.0
5606,62.0,0,150,3.0,64.0
5607,50.0,24,180,14.0,64.0
5608,74.0,36,90,12.0,64.0
5609,65.0,0,90,11.0,64.0
5610,69.0,156,90,11.0,64.0
5611,74.0,0,90,12.0,64.0
5612,68.0,0,450,2.0,64.0
5613,74.0,0,390,5.0,64.0
5614,62.0,0,390,5.0,64.0
5615,71.0,0,390,12.0,64.0
5616,88.0,0,450,0.0,64.0
5617,62.0,72,390,3.0,64.0
5618,80.0,0,450,0.0,64.0
5619,80.0,240,120,10.0,64.0
5620,71.0,0,450,2.0,64.0
5621,64.0,0,390,11.0,64.0
5622,50.0,0,390,14.0,64.0
5623,80.0,408,450,1.0,64.0
5624,76.0,0,930,1.0,64.0
5625,50.0,0,390,6.0,64.0
5626,62.0,0,390,13.0,64.0
5627,64.0,0,390,4.0,64.0
5628,50.0,0,390,4.0,64.0
5629,88.0,12,120,10.0,64.0
5630,79.0,0,960,10.0,64.0
5631,69.0,0,960,10.0,64.0
5632,61.0,480,480,13.0,64.0
5633,79.0,0,450,0.0,64.0
5634,57.0,0,390,4.0,64.0
5635,64.0,72,390,4.0,64.0
5636,76.0,0,450,0.0,64.0
5637,45.0,0,390,6.0,64.0
5638,69.0,0,480,11.0,64.0
5639,64.0,0,450,2.0,64.0
5640,69.0,0,390,5.0,64.0
5641,61.0,0,480,3.0,64.0
5642,79.0,0,450,1.0,64.0
5643,67.0,24,450,2.0,64.0
5644,49.0,0,480,14.0,64.0
5645,64.0,0,15,12.0,64.0
5646,61.0,0,480,3.0,64.0
5647,69.0,192,720,11.0,64.0
5648,49.0,0,480,14.0,64.0
5649,61.0,0,480,13.0,64.0
5650,62.0,0,450,13.0,64.0
5651,78.0,288,660,10.0,64.0
5652,50.0,0,450,14.0,64.0
5653,62.0,0,450,3.0,64.0
5654,62.0,216,450,12.0,64.0
5655,70.0,24,180,11.0,64.0
5656,67.0,384,960,12.0,64.0
5657,71.0,0,960,11.0,64.0
5658,55.0,0,960,3.0,64.0
5659,43.0,0,960,14.0,64.0
5660,55.0,0,960,13.0,64.0
5661,76.0,240,240,10.0,64.0
5662,79.0,192,240,10.0,64.0
5663,83.0,48,180,10.0,64.0
5664,66.0,0,480,11.0,64.0
5665,69.0,0,870,11.0,64.0
5666,57.0,0,780,13.0,64.0
5667,69.0,60,480,12.0,64.0
5668,57.0,0,780,3.0,64.0
5669,74.0,96,390,10.0,64.0
5670,45.0,96,780,14.0,64.0
5671,78.0,228,60,10.0,64.0
5672,67.0,0,390,11.0,64.0
5673,73.0,12,390,12.0,64.0
5674,76.0,180,330,10.0,64.0
5675,65.0,0,900,2.0,64.0
5676,69.0,24,900,2.0,64.0
5677,74.0,48,780,5.0,64.0
5678,62.0,0,780,5.0,64.0
5679,74.0,0,570,10.0,64.0
5680,62.0,0,570,10.0,64.0
5681,50.0,12,390,6.0,64.0
5682,62.0,0,900,1.0,64.0
5683,69.0,60,90,11.0,64.0
5684,50.0,36,150,3.0,64.0
5685,65.0,0,90,11.0,64.0
5686,62.0,0,900,0.0,64.0
5687,62.0,0,90,12.0,64.0
5688,38.0,24,180,14.0,64.0
5689,50.0,0,780,4.0,64.0
5690,62.0,0,780,4.0,64.0
5691,50.0,0,150,13.0,64.0
5692,62.0,0,90,12.0,64.0
5693,69.0,0,90,11.0,64.0
5694,65.0,120,90,11.0,64.0
5695,62.0,36,150,13.0,64.0
5696,62.0,48,90,12.0,64.0
5697,65.0,0,90,11.0,64.0
5698,69.0,0,90,11.0,64.0
5699,50.0,24,180,14.0,64.0
5700,62.0,0,150,3.0,64.0
5701,62.0,0,90,12.0,64.0
5702,65.0,120,90,11.0,64.0
5703,69.0,0,90,11.0,64.0
5704,62.0,0,150,13.0,64.0
5705,62.0,36,150,3.0,64.0
5706,62.0,60,90,12.0,64.0
5707,50.0,24,180,14.0,64.0
5708,65.0,0,90,11.0,64.0
5709,69.0,0,90,11.0,64.0
5710,62.0,72,90,12.0,64.0
5711,65.0,0,90,11.0,64.0
5712,69.0,0,90,11.0,64.0
5713,62.0,0,150,13.0,64.0
5714,69.0,60,90,11.0,64.0
5715,65.0,0,90,11.0,64.0
5716,50.0,0,180,14.0,64.0
5717,62.0,0,90,12.0,64.0
5718,50.0,0,90,6.0,64.0
5719,77.0,0,90,10.0,64.0
5720,62.0,36,150,3.0,64.0
5721,74.0,0,90,10.0,64.0
5722,69.0,0,90,11.0,64.0
5723,62.0,0,90,12.0,64.0
5724,50.0,120,90,6.0,64.0
5725,65.0,0,90,11.0,64.0
5726,38.0,24,180,14.0,64.0
5727,82.0,120,1410,0.0,64.0
5728,82.0,0,570,10.0,64.0
5729,74.0,60,90,12.0,64.0
5730,50.0,48,780,4.0,64.0
5731,62.0,0,780,4.0,64.0
5732,86.0,0,1890,0.0,64.0
5733,50.0,12,390,6.0,64.0
5734,62.0,0,780,5.0,64.0
5735,50.0,0,150,3.0,64.0
5736,50.0,36,150,13.0,64.0
5737,77.0,0,1890,1.0,64.0
5738,65.0,0,90,11.0,64.0
5739,70.0,0,90,11.0,64.0
5740,70.0,0,1410,2.0,64.0
5741,65.0,0,1890,2.0,64.0
5742,74.0,0,780,5.0,64.0
5743,82.0,0,1410,1.0,64.0
5744,70.0,0,90,11.0,64.0
5745,65.0,120,90,11.0,64.0
5746,74.0,0,90,12.0,64.0
5747,62.0,36,150,3.0,64.0
5748,74.0,0,90,12.0,64.0
5749,50.0,24,180,14.0,64.0
5750,62.0,0,150,13.0,64.0
5751,70.0,0,90,11.0,64.0
5752,65.0,48,90,11.0,64.0
5753,65.0,0,90,11.0,64.0
5754,74.0,0,90,12.0,64.0
5755,70.0,120,90,11.0,64.0
5756,70.0,60,90,11.0,64.0
5757,65.0,0,90,11.0,64.0
5758,62.0,36,150,3.0,64.0
5759,50.0,24,180,14.0,64.0
5760,74.0,0,90,12.0,64.0
5761,62.0,0,150,13.0,64.0
5762,74.0,72,90,12.0,64.0
5763,65.0,0,90,11.0,64.0
5764,70.0,0,90,11.0,64.0
5765,62.0,0,150,13.0,64.0
5766,50.0,24,180,14.0,64.0
5767,70.0,0,90,11.0,64.0
5768,65.0,60,90,11.0,64.0
5769,77.0,0,90,10.0,64.0
5770,62.0,36,150,3.0,64.0
5771,74.0,0,90,12.0,64.0
5772,50.0,0,90,6.0,64.0
5773,65.0,0,90,11.0,64.0
5774,82.0,0,90,10.0,64.0
5775,70.0,0,90,11.0,64.0
5776,50.0,0,90,6.0,64.0
5777,74.0,120,90,12.0,64.0
5778,50.0,36,150,3.0,64.0
5779,70.0,0,90,11.0,64.0
5780,65.0,0,90,11.0,64.0
5781,50.0,0,150,13.0,64.0
5782,62.0,0,390,5.0,64.0
5783,74.0,12,390,5.0,64.0
5784,74.0,36,90,12.0,64.0
5785,38.0,24,180,14.0,64.0
5786,62.0,0,390,4.0,64.0
5787,86.0,24,120,10.0,64.0
5788,50.0,0,390,4.0,64.0
5789,50.0,0,180,6.0,64.0
5790,65.0,0,90,11.0,64.0
5791,74.0,0,90,12.0,64.0
5792,70.0,120,90,11.0,64.0
5793,62.0,0,150,13.0,64.0
5794,50.0,24,180,14.0,64.0
5795,74.0,36,90,12.0,64.0
5796,70.0,0,90,11.0,64.0
5797,82.0,12,120,10.0,64.0
5798,65.0,0,90,11.0,64.0
5799,62.0,36,150,3.0,64.0
5800,74.0,0,90,12.0,64.0
5801,70.0,0,90,11.0,64.0
5802,65.0,0,90,11.0,64.0
5803,38.0,24,180,14.0,64.0
5804,81.0,0,450,0.0,64.0
5805,50.0,0,180,6.0,64.0
5806,62.0,0,390,4.0,64.0
5807,50.0,0,390,4.0,64.0
5808,86.0,24,120,10.0,64.0
5809,50.0,0,150,13.0,64.0
5810,69.0,156,450,2.0,64.0
5811,74.0,36,90,12.0,64.0
5812,62.0,0,390,5.0,64.0
5813,74.0,12,390,5.0,64.0
5814,69.0,0,90,11.0,64.0
5815,65.0,0,90,11.0,64.0
5816,50.0,36,150,3.0,64.0
5817,81.0,0,450,1.0,64.0
5818,74.0,0,90,12.0,64.0
5819,69.0,0,90,11.0,64.0
5820,65.0,120,90,11.0,64.0
5821,62.0,0,150,3.0,64.0
5822,74.0,0,90,12.0,64.0
5823,62.0,36,150,13.0,64.0
5824,69.0,0,90,11.0,64.0
5825,81.0,12,120,10.0,64.0
5826,65.0,36,90,11.0,64.0
5827,50.0,24,180,14.0,64.0
5828,65.0,0,90,11.0,64.0
5829,74.0,0,90,12.0,64.0
5830,69.0,0,90,11.0,64.0
5831,80.0,240,120,10.0,64.0
5832,50.0,0,390,14.0,64.0
5833,62.0,72,390,13.0,64.0
5834,88.0,0,450,0.0,64.0
5835,50.0,0,390,4.0,64.0
5836,71.0,0,450,2.0,64.0
5837,62.0,0,390,3.0,64.0
5838,64.0,0,390,11.0,64.0
5839,64.0,0,390,4.0,64.0
5840,80.0,0,450,0.0,64.0
5841,50.0,0,390,6.0,64.0
5842,68.0,408,450,2.0,64.0
5843,71.0,0,390,12.0,64.0
5844,74.0,0,390,5.0,64.0
5845,62.0,0,390,5.0,64.0
5846,80.0,0,450,1.0,64.0
5847,76.0,0,930,1.0,64.0
5848,88.0,12,120,10.0,64.0
5849,76.0,24,450,0.0,64.0
5850,69.0,0,960,10.0,64.0
5851,79.0,288,960,10.0,64.0
5852,57.0,0,390,4.0,64.0
5853,61.0,0,480,13.0,64.0
5854,61.0,0,480,3.0,64.0
5855,69.0,0,390,5.0,64.0
5856,64.0,0,450,2.0,64.0
5857,79.0,0,450,0.0,64.0
5858,67.0,0,450,2.0,64.0
5859,79.0,0,450,1.0,64.0
5860,45.0,0,390,6.0,64.0
5861,64.0,72,390,4.0,64.0
5862,49.0,0,480,14.0,64.0
5863,64.0,480,15,12.0,64.0
5864,69.0,0,15,11.0,64.0
5865,49.0,0,480,14.0,64.0
5866,61.0,0,480,13.0,64.0
5867,61.0,0,480,3.0,64.0
5868,62.0,0,450,13.0,64.0
5869,50.0,0,450,14.0,64.0
5870,62.0,0,390,3.0,64.0
5871,62.0,168,450,12.0,64.0
5872,78.0,72,390,10.0,64.0
5873,42.0,0,150,14.0,64.0
5874,54.0,480,150,13.0,64.0
5875,75.0,0,150,10.0,64.0
5876,69.0,0,150,12.0,64.0
5877,72.0,0,150,11.0,64.0
5878,55.0,0,150,13.0,64.0
5879,64.0,0,480,2.0,64.0
5880,67.0,0,150,12.0,64.0
5881,43.0,0,150,14.0,64.0
5882,71.0,0,150,11.0,64.0
5883,76.0,336,150,10.0,64.0
5884,52.0,480,480,3.0,64.0
5885,76.0,0,480,0.0,64.0
5886,63.0,384,480,2.0,64.0
5887,75.0,0,480,0.0,64.0
5888,51.0,0,480,3.0,64.0
5889,76.0,0,390,0.0,64.0
5890,52.0,0,390,3.0,64.0
5891,64.0,240,390,2.0,64.0
5892,45.0,0,150,14.0,64.0
5893,74.0,0,150,11.0,64.0
5894,57.0,480,150,13.0,64.0
5895,62.0,0,150,11.0,64.0
5896,78.0,0,150,10.0,64.0
5897,72.0,0,150,12.0,64.0
5898,47.0,0,150,14.0,64.0
5899,67.0,0,480,2.0,64.0
5900,55.0,480,480,3.0,64.0
5901,59.0,0,150,13.0,64.0
5902,62.0,0,150,11.0,64.0
5903,74.0,0,150,11.0,64.0
5904,79.0,0,480,0.0,64.0
5905,71.0,0,150,12.0,64.0
5906,79.0,336,150,10.0,64.0
5907,78.0,0,480,0.0,64.0
5908,66.0,384,480,2.0,64.0
5909,54.0,0,480,3.0,64.0
5910,67.0,0,390,2.0,64.0
5911,79.0,0,390,0.0,64.0
5912,55.0,456,390,3.0,64.0
5913,55.0,0,1140,13.0,64.0
5914,59.0,0,1860,3.0,64.0
5915,83.0,0,1860,1.0,64.0
5916,74.0,0,1860,1.0,64.0
5917,43.0,0,1140,14.0,64.0
5918,62.0,0,1140,11.0,64.0
5919,59.0,240,1140,12.0,64.0
5920,83.0,120,120,10.0,64.0
5921,82.0,120,120,10.0,64.0
5922,83.0,120,120,10.0,64.0
5923,82.0,120,120,10.0,64.0
5924,83.0,120,120,10.0,64.0
5925,82.0,180,120,10.0,64.0
5926,83.0,408,900,10.0,64.0
5927,43.0,240,180,14.0,64.0
5928,59.0,0,180,12.0,64.0
5929,55.0,0,180,13.0,64.0
5930,62.0,0,180,11.0,64.0
5931,62.0,0,180,11.0,64.0
5932,55.0,0,180,13.0,64.0
5933,43.0,0,180,14.0,64.0
5934,59.0,240,180,12.0,64.0
5935,62.0,12,180,11.0,64.0
5936,59.0,0,180,12.0,64.0
5937,43.0,0,180,14.0,64.0
5938,55.0,0,180,13.0,64.0
5939,55.0,0,1140,13.0,64.0
5940,64.0,0,1140,11.0,64.0
5941,82.0,0,1860,1.0,64.0
5942,73.0,0,1860,1.0,64.0
5943,43.0,240,1140,14.0,64.0
5944,61.0,0,1140,12.0,64.0
5945,58.0,0,1860,3.0,64.0
5946,55.0,228,1860,3.0,64.0
5947,82.0,120,120,10.0,64.0
5948,81.0,120,120,10.0,64.0
5949,82.0,120,120,10.0,64.0
5950,81.0,120,120,10.0,64.0
5951,82.0,120,120,10.0,64.0
5952,81.0,180,120,10.0,64.0
5953,82.0,0,900,10.0,64.0
5954,55.0,0,180,13.0,64.0
5955,64.0,0,180,11.0,64.0
5956,61.0,240,180,12.0,64.0
5957,43.0,0,180,14.0,64.0
5958,55.0,0,180,13.0,64.0
5959,61.0,0,180,12.0,64.0
5960,43.0,240,180,14.0,64.0
5961,64.0,0,180,11.0,64.0
5962,43.0,0,180,14.0,64.0
5963,61.0,12,180,12.0,64.0
5964,55.0,0,180,13.0,64.0
5965,64.0,0,180,11.0,64.0
5966,57.0,180,480,3.0,64.0
5967,81.0,0,480,1.0,64.0
5968,74.0,0,480,1.0,64.0
5969,62.0,0,180,12.0,64.0
5970,66.0,180,180,11.0,64.0
5971,54.0,0,180,13.0,64.0
5972,42.0,0,180,14.0,64.0
5973,54.0,0,480,3.0,64.0
5974,81.0,96,120,10.0,64.0
5975,78.0,24,90,10.0,64.0
5976,43.0,180,180,14.0,64.0
5977,55.0,0,180,13.0,64.0
5978,64.0,0,180,12.0,64.0
5979,71.0,0,180,11.0,64.0
5980,52.0,180,480,3.0,64.0
5981,55.0,0,480,3.0,64.0
5982,76.0,0,480,1.0,64.0
5983,79.0,0,480,1.0,64.0
5984,79.0,96,120,10.0,64.0
5985,76.0,24,90,10.0,64.0
5986,74.0,0,480,1.0,64.0
5987,78.0,0,480,1.0,64.0
5988,69.0,0,180,11.0,64.0
5989,66.0,0,180,12.0,64.0
5990,50.0,0,480,3.0,64.0
5991,45.0,180,180,14.0,64.0
5992,54.0,180,480,3.0,64.0
5993,57.0,0,180,13.0,64.0
5994,78.0,96,120,10.0,64.0
5995,74.0,24,90,10.0,64.0
5996,76.0,0,390,1.0,64.0
5997,33.0,0,180,14.0,64.0
5998,45.0,0,180,13.0,64.0
5999,73.0,0,390,1.0,64.0
6000,52.0,0,390,3.0,64.0
6001,69.0,0,180,11.0,64.0
6002,67.0,0,180,11.0,64.0
6003,64.0,180,180,12.0,64.0
6004,49.0,72,390,3.0,64.0
6005,76.0,24,120,10.0,64.0
6006,73.0,120,90,10.0,64.0
6007,38.0,0,390,14.0,64.0
6008,50.0,0,390,4.0,64.0
6009,78.0,0,390,0.0,64.0
6010,81.0,0,390,0.0,64.0
6011,57.0,0,390,11.0,64.0
6012,69.0,0,390,11.0,64.0
6013,66.0,0,390,11.0,64.0
6014,50.0,0,390,6.0,64.0
6015,62.0,0,390,12.0,64.0
6016,62.0,0,390,5.0,64.0
6017,62.0,0,390,4.0,64.0
6018,69.0,0,390,2.0,64.0
6019,50.0,72,390,3.0,64.0
6020,74.0,0,390,5.0,64.0
6021,74.0,0,390,1.0,64.0
6022,74.0,120,90,10.0,64.0
6023,66.0,0,390,2.0,64.0
6024,50.0,0,390,13.0,64.0
6025,74.0,120,90,10.0,64.0
6026,69.0,48,90,10.0,64.0
6027,69.0,120,90,10.0,64.0
6028,66.0,120,90,10.0,64.0
6029,66.0,120,90,10.0,64.0
6030,62.0,120,90,10.0,64.0
6031,62.0,120,90,10.0,64.0
6032,61.0,0,390,12.0,64.0
6033,45.0,0,390,6.0,64.0
6034,76.0,120,90,10.0,64.0
6035,81.0,0,390,0.0,64.0
6036,37.0,0,390,14.0,64.0
6037,76.0,0,390,1.0,64.0
6038,69.0,0,390,1.0,64.0
6039,49.0,0,390,13.0,64.0
6040,69.0,0,390,2.0,64.0
6041,67.0,0,390,2.0,64.0
6042,57.0,0,390,4.0,64.0
6043,64.0,0,390,4.0,64.0
6044,69.0,0,390,11.0,64.0
6045,69.0,0,390,5.0,64.0
6046,49.0,0,390,3.0,64.0
6047,67.0,0,390,11.0,64.0
6048,57.0,72,390,11.0,64.0
6049,76.0,0,390,5.0,64.0
6050,79.0,0,390,0.0,64.0
6051,76.0,120,90,10.0,64.0
6052,73.0,48,90,10.0,64.0
6053,73.0,120,90,10.0,64.0
6054,69.0,120,90,10.0,64.0
6055,69.0,120,90,10.0,64.0
6056,64.0,120,90,10.0,64.0
6057,64.0,120,90,10.0,64.0
6058,50.0,0,390,6.0,64.0
6059,81.0,0,390,0.0,64.0
6060,78.0,120,90,10.0,64.0
6061,66.0,72,390,4.0,64.0
6062,50.0,0,390,3.0,64.0
6063,78.0,0,390,0.0,64.0
6064,69.0,0,390,2.0,64.0
6065,74.0,0,390,5.0,64.0
6066,69.0,0,390,11.0,64.0
6067,66.0,0,390,2.0,64.0
6068,57.0,0,390,11.0,64.0
6069,50.0,0,390,13.0,64.0
6070,69.0,0,390,1.0,64.0
6071,78.0,0,390,1.0,64.0
6072,38.0,0,390,14.0,64.0
6073,62.0,0,390,12.0,64.0
6074,62.0,0,390,4.0,64.0
6075,78.0,0,390,5.0,64.0
6076,66.0,0,390,11.0,64.0
6077,78.0,120,90,10.0,64.0
6078,74.0,48,90,10.0,64.0
6079,74.0,120,90,10.0,64.0
6080,69.0,120,90,10.0,64.0
6081,69.0,120,90,10.0,64.0
6082,66.0,120,90,10.0,64.0
6083,66.0,120,90,10.0,64.0
6084,79.0,0,390,1.0,64.0
6085,45.0,0,390,6.0,64.0
6086,40.0,0,390,14.0,64.0
6087,69.0,0,390,1.0,64.0
6088,69.0,0,390,5.0,64.0
6089,52.0,0,390,3.0,64.0
6090,85.0,0,390,0.0,64.0
6091,79.0,120,90,10.0,64.0
6092,64.0,0,390,4.0,64.0
6093,57.0,0,390,4.0,64.0
6094,64.0,0,390,12.0,64.0
6095,52.0,0,390,13.0,64.0
6096,64.0,0,390,11.0,64.0
6097,73.0,0,390,11.0,64.0
6098,57.0,0,390,11.0,64.0
6099,71.0,72,390,2.0,64.0
6100,69.0,0,390,2.0,64.0
6101,81.0,0,390,0.0,64.0
6102,76.0,0,390,5.0,64.0
6103,79.0,120,90,10.0,64.0
6104,76.0,48,90,10.0,64.0
6105,76.0,120,90,10.0,64.0
6106,73.0,120,90,10.0,64.0
6107,73.0,120,90,10.0,64.0
6108,67.0,120,90,10.0,64.0
6109,67.0,120,90,10.0,64.0
6110,81.0,120,90,10.0,64.0
6111,54.0,0,390,3.0,64.0
6112,74.0,0,390,1.0,64.0
6113,74.0,0,390,5.0,64.0
6114,62.0,0,390,5.0,64.0
6115,62.0,0,390,4.0,64.0
6116,81.0,0,390,0.0,64.0
6117,69.0,0,390,2.0,64.0
6118,66.0,0,390,2.0,64.0
6119,54.0,0,390,13.0,64.0
6120,50.0,0,390,6.0,64.0
6121,57.0,0,390,11.0,64.0
6122,66.0,0,390,11.0,64.0
6123,74.0,72,390,11.0,64.0
6124,50.0,0,390,4.0,64.0
6125,86.0,0,390,0.0,64.0
6126,66.0,0,390,12.0,64.0
6127,42.0,0,390,14.0,64.0
6128,78.0,0,390,1.0,64.0
6129,81.0,120,90,10.0,64.0
6130,78.0,48,90,10.0,64.0
6131,78.0,120,90,10.0,64.0
6132,86.0,120,90,10.0,64.0
6133,69.0,0,2100,1.0,64.0
6134,81.0,0,2100,1.0,64.0
6135,86.0,120,90,10.0,64.0
6136,66.0,0,150,12.0,64.0
6137,81.0,60,90,10.0,64.0
6138,81.0,0,90,11.0,64.0
6139,54.0,60,150,13.0,64.0
6140,57.0,0,150,4.0,64.0
6141,54.0,0,150,3.0,64.0
6142,42.0,0,150,14.0,64.0
6143,81.0,0,90,11.0,64.0
6144,81.0,120,90,10.0,64.0
6145,40.0,0,150,14.0,64.0
6146,64.0,0,150,12.0,64.0
6147,79.0,0,90,11.0,64.0
6148,79.0,60,90,10.0,64.0
6149,57.0,60,150,4.0,64.0
6150,52.0,0,150,3.0,64.0
6151,52.0,0,150,13.0,64.0
6152,79.0,120,90,10.0,64.0
6153,79.0,0,90,11.0,64.0
6154,49.0,0,150,13.0,64.0
6155,49.0,0,150,3.0,64.0
6156,61.0,0,150,12.0,64.0
6157,57.0,60,150,4.0,64.0
6158,76.0,60,90,11.0,64.0
6159,76.0,0,90,10.0,64.0
6160,37.0,0,150,14.0,64.0
6161,76.0,0,90,10.0,64.0
6162,76.0,120,90,11.0,64.0
6163,57.0,60,150,12.0,64.0
6164,33.0,0,150,14.0,64.0
6165,57.0,0,150,4.0,64.0
6166,45.0,0,150,13.0,64.0
6167,45.0,0,150,3.0,64.0
6168,73.0,60,90,11.0,64.0
6169,73.0,0,90,10.0,64.0
6170,73.0,0,90,11.0,64.0
6171,73.0,120,90,10.0,64.0
6172,67.0,60,90,11.0,64.0
6173,49.0,0,150,3.0,64.0
6174,52.0,0,150,12.0,64.0
6175,37.0,60,150,14.0,64.0
6176,49.0,0,150,13.0,64.0
6177,57.0,0,150,4.0,64.0
6178,67.0,0,90,10.0,64.0
6179,67.0,264,90,10.0,64.0
6180,67.0,0,90,11.0,64.0
6181,38.0,0,240,14.0,64.0
6182,45.0,96,390,6.0,64.0
6183,66.0,0,240,11.0,64.0
6184,66.0,0,240,2.0,64.0
6185,50.0,0,240,3.0,64.0
6186,50.0,0,480,12.0,64.0
6187,69.0,0,660,5.0,64.0
6188,50.0,0,240,13.0,64.0
6189,66.0,0,240,10.0,64.0
6190,57.0,0,660,5.0,64.0
6191,78.0,0,240,0.0,64.0
6192,45.0,168,660,4.0,64.0
6193,57.0,0,660,4.0,64.0
6194,69.0,0,240,11.0,64.0
6195,54.0,192,240,3.0,64.0
6196,74.0,144,15,2.0,64.0
6197,54.0,0,240,13.0,64.0
6198,69.0,0,240,10.0,64.0
6199,81.0,0,240,0.0,64.0
6200,69.0,0,240,2.0,64.0
6201,42.0,0,240,14.0,64.0
6202,79.0,0,180,0.0,64.0
6203,67.0,0,180,11.0,64.0
6204,52.0,0,180,13.0,64.0
6205,40.0,0,180,14.0,64.0
6206,73.0,0,180,2.0,64.0
6207,67.0,0,180,2.0,64.0
6208,49.0,0,180,12.0,64.0
6209,52.0,0,180,3.0,64.0
6210,67.0,0,180,10.0,64.0
6211,76.0,96,120,10.0,64.0
6212,78.0,102,90,10.0,64.0
6213,79.0,120,90,10.0,64.0
6214,78.0,120,90,10.0,64.0
6215,76.0,120,90,10.0,64.0
6216,74.0,120,90,10.0,64.0
6217,73.0,120,90,10.0,64.0
6218,71.0,120,90,10.0,64.0
6219,69.0,120,90,10.0,64.0
6220,67.0,282,90,10.0,64.0
6221,38.0,0,240,14.0,64.0
6222,78.0,0,240,0.0,64.0
6223,69.0,0,660,1.0,64.0
6224,81.0,0,660,1.0,64.0
6225,57.0,0,660,4.0,64.0
6226,45.0,0,660,4.0,64.0
6227,66.0,0,240,10.0,64.0
6228,66.0,0,240,11.0,64.0
6229,50.0,0,480,12.0,64.0
6230,50.0,144,240,13.0,64.0
6231,50.0,0,240,3.0,64.0
6232,69.0,168,660,5.0,64.0
6233,66.0,0,240,2.0,64.0
6234,74.0,0,240,2.0,64.0
6235,57.0,0,660,5.0,64.0
6236,45.0,96,390,6.0,64.0
6237,69.0,0,240,11.0,64.0
6238,81.0,0,240,0.0,64.0
6239,54.0,0,240,13.0,64.0
6240,69.0,0,240,10.0,64.0
6241,54.0,192,240,3.0,64.0
6242,74.0,0,240,2.0,64.0
6243,69.0,0,240,2.0,64.0
6244,42.0,0,240,14.0,64.0
6245,40.0,0,180,14.0,64.0
6246,67.0,0,180,11.0,64.0
6247,67.0,0,180,2.0,64.0
6248,67.0,0,180,10.0,64.0
6249,49.0,0,180,12.0,64.0
6250,52.0,0,180,13.0,64.0
6251,79.0,0,180,0.0,64.0
6252,52.0,0,180,3.0,64.0
6253,73.0,0,180,2.0,64.0
6254,76.0,96,120,10.0,64.0
6255,78.0,102,90,10.0,64.0
6256,79.0,120,90,10.0,64.0
6257,78.0,120,90,10.0,64.0
6258,76.0,120,90,10.0,64.0
6259,74.0,120,90,10.0,64.0
6260,73.0,120,90,10.0,64.0
6261,71.0,120,90,10.0,64.0
6262,69.0,120,90,10.0,64.0
6263,67.0,138,90,10.0,64.0
6264,66.0,120,90,10.0,64.0
6265,69.0,120,90,10.0,64.0
6266,74.0,0,90,10.0,64.0
6267,74.0,120,90,11.0,64.0
6268,62.0,0,480,12.0,64.0
6269,54.0,96,240,3.0,64.0
6270,42.0,0,240,14.0,64.0
6271,54.0,0,240,13.0,64.0
6272,72.0,0,90,11.0,64.0
6273,72.0,24,90,10.0,64.0
6274,55.0,96,240,13.0,64.0
6275,71.0,0,90,11.0,64.0
6276,43.0,0,240,14.0,64.0
6277,55.0,0,240,3.0,64.0
6278,71.0,120,90,10.0,64.0
6279,67.0,0,90,11.0,64.0
6280,67.0,24,90,10.0,64.0
6281,64.0,24,420,12.0,64.0
6282,56.0,96,240,3.0,64.0
6283,76.0,120,90,10.0,64.0
6284,56.0,0,240,13.0,64.0
6285,44.0,0,240,14.0,64.0
6286,76.0,0,90,11.0,64.0
6287,74.0,0,90,10.0,64.0
6288,74.0,24,90,11.0,64.0
6289,45.0,0,240,14.0,64.0
6290,57.0,0,240,13.0,64.0
6291,57.0,96,240,3.0,64.0
6292,73.0,96,90,11.0,64.0
6293,73.0,0,90,10.0,64.0
6294,69.0,0,90,11.0,64.0
6295,69.0,24,90,10.0,64.0
6296,58.0,0,180,3.0,64.0
6297,58.0,0,180,13.0,64.0
6298,46.0,24,180,14.0,64.0
6299,78.0,96,90,10.0,64.0
6300,78.0,0,90,1.0,64.0
6301,78.0,0,90,11.0,64.0
6302,66.0,72,390,12.0,64.0
6303,76.0,0,90,10.0,64.0
6304,76.0,0,90,11.0,64.0
6305,76.0,120,90,1.0,64.0
6306,59.0,0,300,13.0,64.0
6307,74.0,0,90,10.0,64.0
6308,74.0,0,90,1.0,64.0
6309,59.0,0,300,3.0,64.0
6310,47.0,24,300,14.0,64.0
6311,74.0,48,90,11.0,64.0
6312,71.0,0,90,11.0,64.0
6313,71.0,96,90,10.0,64.0
6314,71.0,0,90,1.0,64.0
6315,79.0,0,90,1.0,64.0
6316,79.0,120,90,10.0,64.0
6317,67.0,24,420,12.0,64.0
6318,79.0,0,90,11.0,64.0
6319,78.0,120,90,11.0,64.0
6320,78.0,0,90,1.0,64.0
6321,78.0,0,90,10.0,64.0
6322,76.0,96,90,1.0,64.0
6323,76.0,0,90,11.0,64.0
6324,49.0,0,300,14.0,64.0
6325,57.0,0,390,4.0,64.0
6326,64.0,72,390,4.0,64.0
6327,61.0,24,300,3.0,64.0
6328,61.0,0,300,13.0,64.0
6329,76.0,0,90,10.0,64.0
6330,73.0,96,90,1.0,64.0
6331,73.0,0,90,10.0,64.0
6332,73.0,0,90,11.0,64.0
6333,81.0,0,90,11.0,64.0
6334,81.0,48,90,1.0,64.0
6335,81.0,0,90,10.0,64.0
6336,69.0,72,390,12.0,64.0
6337,79.0,120,90,1.0,64.0
6338,79.0,0,90,11.0,64.0
6339,79.0,0,90,10.0,64.0
6340,78.0,0,90,1.0,64.0
6341,50.0,24,300,14.0,64.0
6342,62.0,0,300,13.0,64.0
6343,62.0,48,390,4.0,64.0
6344,66.0,0,390,4.0,64.0
6345,78.0,0,90,11.0,64.0
6346,62.0,0,300,3.0,64.0
6347,78.0,48,90,10.0,64.0
6348,74.0,0,90,11.0,64.0
6349,74.0,0,90,1.0,64.0
6350,74.0,96,90,10.0,64.0
6351,83.0,0,90,11.0,64.0
6352,83.0,48,90,10.0,64.0
6353,71.0,24,180,12.0,64.0
6354,83.0,0,90,1.0,64.0
6355,81.0,0,90,1.0,64.0
6356,81.0,120,90,10.0,64.0
6357,81.0,0,90,11.0,64.0
6358,79.0,72,390,1.0,64.0
6359,64.0,0,390,4.0,64.0
6360,67.0,0,870,4.0,64.0
6361,71.0,0,390,12.0,64.0
6362,64.0,0,390,13.0,64.0
6363,64.0,0,390,3.0,64.0
6364,79.0,0,870,0.0,64.0
6365,79.0,120,90,10.0,64.0
6366,52.0,0,390,14.0,64.0
6367,79.0,0,90,11.0,64.0
6368,83.0,0,390,0.0,64.0
6369,78.0,0,90,10.0,64.0
6370,78.0,120,90,11.0,64.0
6371,76.0,48,90,11.0,64.0
6372,76.0,0,90,10.0,64.0
6373,78.0,120,90,11.0,64.0
6374,78.0,0,90,10.0,64.0
6375,57.0,0,390,13.0,64.0
6376,79.0,0,90,11.0,64.0
6377,69.0,0,390,12.0,64.0
6378,45.0,0,390,14.0,64.0
6379,69.0,0,390,1.0,64.0
6380,79.0,120,90,10.0,64.0
6381,76.0,0,390,1.0,64.0
6382,57.0,0,390,4.0,64.0
6383,85.0,72,390,0.0,64.0
6384,57.0,0,390,3.0,64.0
6385,81.0,0,90,11.0,64.0
6386,81.0,120,90,10.0,64.0
6387,83.0,48,90,11.0,64.0
6388,83.0,0,90,10.0,64.0
6389,85.0,0,90,10.0,64.0
6390,85.0,144,90,11.0,64.0
6391,62.0,0,120,3.0,64.0
6392,86.0,0,120,10.0,64.0
6393,50.0,0,120,14.0,64.0
6394,74.0,0,120,12.0,64.0
6395,62.0,120,120,13.0,64.0
6396,62.0,0,780,2.0,64.0
6397,86.0,0,120,0.0,64.0
6398,62.0,96,390,4.0,64.0
6399,86.0,0,120,11.0,64.0
6400,66.0,0,390,4.0,64.0
6401,50.0,0,390,6.0,64.0
6402,74.0,72,780,1.0,64.0
6403,74.0,0,390,5.0,64.0
6404,85.0,120,120,0.0,64.0
6405,49.0,0,120,14.0,64.0
6406,61.0,0,120,3.0,64.0
6407,61.0,0,120,13.0,64.0
6408,73.0,0,120,12.0,64.0
6409,85.0,0,120,11.0,64.0
6410,85.0,0,120,10.0,64.0
6411,71.0,24,120,12.0,64.0
6412,83.0,0,120,10.0,64.0
6413,83.0,0,120,0.0,64.0
6414,59.0,0,120,3.0,64.0
6415,83.0,0,120,11.0,64.0
6416,47.0,0,120,14.0,64.0
6417,59.0,0,120,13.0,64.0
6418,58.0,0,120,3.0,64.0
6419,82.0,0,120,11.0,64.0
6420,70.0,0,120,12.0,64.0
6421,82.0,0,120,0.0,64.0
6422,58.0,0,120,13.0,64.0
6423,46.0,120,120,14.0,64.0
6424,82.0,0,120,10.0,64.0
6425,62.0,48,180,4.0,64.0
6426,66.0,0,180,4.0,64.0
6427,59.0,0,120,13.0,64.0
6428,83.0,0,120,0.0,64.0
6429,59.0,0,120,3.0,64.0
6430,71.0,72,120,12.0,64.0
6431,83.0,0,120,10.0,64.0
6432,83.0,0,120,11.0,64.0
6433,47.0,0,120,14.0,64.0
6434,81.0,0,120,11.0,64.0
6435,57.0,0,120,13.0,64.0
6436,45.0,0,120,14.0,64.0
6437,81.0,48,120,0.0,64.0
6438,81.0,0,120,10.0,64.0
6439,69.0,0,120,12.0,64.0
6440,57.0,0,120,3.0,64.0
6441,66.0,0,180,4.0,64.0
6442,62.0,24,180,4.0,64.0
6443,79.0,0,120,10.0,64.0
6444,55.0,0,120,3.0,64.0
6445,79.0,0,120,11.0,64.0
6446,55.0,0,120,13.0,64.0
6447,43.0,72,120,14.0,64.0
6448,67.0,0,120,12.0,64.0
6449,79.0,0,120,0.0,64.0
6450,54.0,120,120,13.0,64.0
6451,78.0,24,90,10.0,64.0
6452,66.0,0,120,12.0,64.0
6453,78.0,0,90,11.0,64.0
6454,42.0,0,120,14.0,64.0
6455,78.0,0,90,0.0,64.0
6456,54.0,0,120,3.0,64.0
6457,55.0,0,120,13.0,64.0
6458,67.0,0,120,12.0,64.0
6459,43.0,0,120,14.0,64.0
6460,62.0,0,390,4.0,64.0
6461,64.0,0,390,4.0,64.0
6462,55.0,120,120,3.0,64.0
6463,79.0,0,120,11.0,64.0
6464,50.0,96,390,6.0,64.0
6465,83.0,72,780,1.0,64.0
6466,79.0,0,120,0.0,64.0
6467,71.0,0,780,2.0,64.0
6468,79.0,0,120,10.0,64.0
6469,74.0,0,390,5.0,64.0
6470,78.0,0,120,11.0,64.0
6471,78.0,0,120,0.0,64.0
6472,54.0,0,120,13.0,64.0
6473,42.0,0,120,14.0,64.0
6474,66.0,120,120,12.0,64.0
6475,54.0,0,120,3.0,64.0
6476,78.0,0,120,10.0,64.0
6477,40.0,0,120,14.0,64.0
6478,52.0,0,120,13.0,64.0
6479,76.0,0,120,10.0,64.0
6480,76.0,24,120,0.0,64.0
6481,52.0,0,120,3.0,64.0
6482,76.0,0,120,11.0,64.0
6483,64.0,0,120,12.0,64.0
6484,50.0,0,120,3.0,64.0
6485,74.0,0,120,11.0,64.0
6486,74.0,0,120,10.0,64.0
6487,50.0,120,120,13.0,64.0
6488,38.0,0,120,14.0,64.0
6489,74.0,0,120,0.0,64.0
6490,62.0,0,120,12.0,64.0
6491,76.0,0,120,10.0,64.0
6492,76.0,0,120,0.0,64.0
6493,64.0,0,120,12.0,64.0
6494,64.0,48,180,4.0,64.0
6495,76.0,0,120,11.0,64.0
6496,52.0,72,120,3.0,64.0
6497,40.0,0,120,14.0,64.0
6498,62.0,0,180,4.0,64.0
6499,52.0,0,120,13.0,64.0
6500,74.0,0,120,11.0,64.0
6501,38.0,0,120,14.0,64.0
6502,62.0,0,120,12.0,64.0
6503,74.0,48,120,10.0,64.0
6504,74.0,0,120,0.0,64.0
6505,50.0,0,120,3.0,64.0
6506,50.0,0,120,13.0,64.0
6507,49.0,72,120,13.0,64.0
6508,37.0,0,120,14.0,64.0
6509,73.0,0,120,0.0,64.0
6510,61.0,0,120,12.0,64.0
6511,73.0,0,120,11.0,64.0
6512,62.0,24,180,4.0,64.0
6513,73.0,0,120,10.0,64.0
6514,64.0,0,180,4.0,64.0
6515,49.0,0,120,3.0,64.0
6516,71.0,0,90,10.0,64.0
6517,71.0,0,90,11.0,64.0
6518,35.0,0,90,14.0,64.0
6519,47.0,0,90,3.0,64.0
6520,71.0,0,90,0.0,64.0
6521,47.0,0,90,13.0,64.0
6522,59.0,180,90,12.0,64.0
6523,64.0,0,390,4.0,64.0
6524,57.0,0,390,4.0,64.0
6525,45.0,0,390,6.0,64.0
6526,81.0,0,390,1.0,64.0
6527,69.0,0,150,10.0,64.0
6528,33.0,0,150,14.0,64.0
6529,45.0,0,150,3.0,64.0
6530,69.0,0,150,0.0,64.0
6531,69.0,0,390,5.0,64.0
6532,45.0,0,150,13.0,64.0
6533,69.0,162,150,11.0,64.0
6534,57.0,0,150,12.0,64.0
6535,69.0,12,390,2.0,64.0
6536,73.0,66,90,0.0,64.0
6537,67.0,0,150,12.0,64.0
6538,49.0,0,90,3.0,64.0
6539,73.0,0,90,11.0,64.0
6540,55.0,42,150,13.0,64.0
6541,73.0,0,90,10.0,64.0
6542,43.0,0,150,14.0,64.0
6543,76.0,198,90,10.0,64.0
6544,76.0,0,90,11.0,64.0
6545,52.0,0,90,3.0,64.0
6546,76.0,0,90,0.0,64.0
6547,66.0,0,150,12.0,64.0
6548,81.0,0,150,11.0,64.0
6549,81.0,0,150,10.0,64.0
6550,62.0,204,180,4.0,64.0
6551,66.0,0,180,4.0,64.0
6552,42.0,0,150,14.0,64.0
6553,54.0,0,150,13.0,64.0
6554,57.0,36,150,3.0,64.0
6555,81.0,0,150,0.0,64.0
6556,50.0,0,150,13.0,64.0
6557,74.0,0,180,1.0,64.0
6558,81.0,204,180,1.0,64.0
6559,86.0,0,150,0.0,64.0
6560,66.0,0,180,4.0,64.0
6561,54.0,0,150,3.0,64.0
6562,69.0,0,180,4.0,64.0
6563,81.0,0,150,10.0,64.0
6564,62.0,0,150,10.0,64.0
6565,69.0,0,150,10.0,64.0
6566,69.0,0,150,11.0,64.0
6567,81.0,0,150,11.0,64.0
6568,62.0,0,150,12.0,64.0
6569,62.0,0,150,11.0,64.0
6570,38.0,36,150,14.0,64.0
6571,43.0,0,150,14.0,64.0
6572,83.0,0,180,0.0,64.0
6573,67.0,0,180,4.0,64.0
6574,64.0,0,180,4.0,64.0
6575,55.0,0,150,3.0,64.0
6576,71.0,204,180,1.0,64.0
6577,79.0,0,180,1.0,64.0
6578,79.0,0,180,10.0,64.0
6579,71.0,0,180,10.0,64.0
6580,62.0,0,180,11.0,64.0
6581,79.0,0,180,11.0,64.0
6582,67.0,36,150,12.0,64.0
6583,62.0,0,180,10.0,64.0
6584,71.0,0,180,11.0,64.0
6585,55.0,0,150,13.0,64.0
6586,52.0,0,150,3.0,64.0
6587,40.0,0,150,14.0,64.0
6588,52.0,240,150,13.0,64.0
6589,64.0,0,150,12.0,64.0
6590,57.0,36,150,13.0,64.0
6591,69.0,0,150,12.0,64.0
6592,76.0,0,180,10.0,64.0
6593,73.0,0,180,10.0,64.0
6594,69.0,0,180,10.0,64.0
6595,45.0,0,150,14.0,64.0
6596,73.0,0,180,11.0,64.0
6597,76.0,0,180,11.0,64.0
6598,69.0,0,180,11.0,64.0
6599,57.0,0,180,4.0,64.0
6600,64.0,0,180,4.0,64.0
6601,76.0,0,180,1.0,64.0
6602,73.0,0,180,1.0,64.0
6603,81.0,204,180,0.0,64.0
6604,57.0,0,150,3.0,64.0
6605,45.0,0,150,3.0,64.0
6606,57.0,0,150,12.0,64.0
6607,33.0,204,150,14.0,64.0
6608,45.0,0,150,13.0,64.0
6609,50.0,0,120,14.0,64.0
6610,74.0,72,780,1.0,64.0
6611,74.0,96,390,5.0,64.0
6612,74.0,0,120,12.0,64.0
6613,62.0,0,780,2.0,64.0
6614,66.0,0,390,4.0,64.0
6615,62.0,0,390,4.0,64.0
6616,62.0,0,120,3.0,64.0
6617,86.0,0,120,0.0,64.0
6618,50.0,0,390,6.0,64.0
6619,62.0,0,120,13.0,64.0
6620,86.0,0,120,10.0,64.0
6621,86.0,120,120,11.0,64.0
6622,85.0,0,120,10.0,64.0
6623,61.0,0,120,3.0,64.0
6624,49.0,120,120,14.0,64.0
6625,73.0,0,120,12.0,64.0
6626,85.0,0,120,0.0,64.0
6627,61.0,0,120,13.0,64.0
6628,85.0,0,120,11.0,64.0
6629,59.0,0,120,13.0,64.0
6630,71.0,0,120,12.0,64.0
6631,83.0,0,120,0.0,64.0
6632,83.0,0,120,11.0,64.0
6633,59.0,0,120,3.0,64.0
6634,83.0,24,120,10.0,64.0
6635,47.0,0,120,14.0,64.0
6636,70.0,0,120,12.0,64.0
6637,82.0,0,120,0.0,64.0
6638,58.0,0,120,13.0,64.0
6639,46.0,0,120,14.0,64.0
6640,82.0,0,120,11.0,64.0
6641,58.0,120,120,3.0,64.0
6642,82.0,0,120,10.0,64.0
6643,59.0,0,120,13.0,64.0
6644,83.0,0,120,10.0,64.0
6645,83.0,0,120,0.0,64.0
6646,71.0,0,120,12.0,64.0
6647,47.0,0,120,14.0,64.0
6648,83.0,0,120,11.0,64.0
6649,59.0,72,120,3.0,64.0
6650,66.0,48,180,4.0,64.0
6651,62.0,0,180,4.0,64.0
6652,81.0,0,120,10.0,64.0
6653,81.0,0,120,11.0,64.0
6654,45.0,0,120,14.0,64.0
6655,69.0,0,120,12.0,64.0
6656,57.0,0,120,13.0,64.0
6657,81.0,0,120,0.0,64.0
6658,57.0,48,120,3.0,64.0
6659,55.0,0,120,3.0,64.0
6660,79.0,0,120,10.0,64.0
6661,79.0,0,120,0.0,64.0
6662,66.0,0,180,4.0,64.0
6663,62.0,24,180,4.0,64.0
6664,79.0,72,120,11.0,64.0
6665,55.0,0,120,13.0,64.0
6666,43.0,0,120,14.0,64.0
6667,67.0,0,120,12.0,64.0
6668,54.0,0,120,3.0,64.0
6669,78.0,0,90,10.0,64.0
6670,78.0,24,90,11.0,64.0
6671,78.0,0,90,0.0,64.0
6672,66.0,0,120,12.0,64.0
6673,54.0,0,120,13.0,64.0
6674,42.0,120,120,14.0,64.0
6675,67.0,120,120,12.0,64.0
6676,74.0,0,390,5.0,64.0
6677,79.0,0,120,11.0,64.0
6678,55.0,0,120,3.0,64.0
6679,55.0,0,120,13.0,64.0
6680,83.0,72,780,1.0,64.0
6681,43.0,0,120,14.0,64.0
6682,79.0,0,120,0.0,64.0
6683,79.0,0,120,10.0,64.0
6684,62.0,0,390,4.0,64.0
6685,64.0,0,390,4.0,64.0
6686,71.0,0,780,2.0,64.0
6687,50.0,96,390,6.0,64.0
6688,54.0,120,120,13.0,64.0
6689,42.0,0,120,14.0,64.0
6690,78.0,0,120,11.0,64.0
6691,78.0,0,120,10.0,64.0
6692,66.0,0,120,12.0,64.0
6693,78.0,0,120,0.0,64.0
6694,54.0,0,120,3.0,64.0
6695,64.0,0,120,12.0,64.0
6696,40.0,0,120,14.0,64.0
6697,76.0,0,120,0.0,64.0
6698,76.0,0,120,11.0,64.0
6699,76.0,24,120,10.0,64.0
6700,52.0,0,120,13.0,64.0
6701,52.0,0,120,3.0,64.0
6702,50.0,0,120,3.0,64.0
6703,74.0,120,120,0.0,64.0
6704,74.0,0,120,11.0,64.0
6705,50.0,0,120,13.0,64.0
6706,38.0,0,120,14.0,64.0
6707,62.0,0,120,12.0,64.0
6708,74.0,0,120,10.0,64.0
6709,64.0,0,120,12.0,64.0
6710,52.0,72,120,3.0,64.0
6711,76.0,0,120,0.0,64.0
6712,52.0,0,120,13.0,64.0
6713,62.0,48,180,4.0,64.0
6714,64.0,0,180,4.0,64.0
6715,76.0,0,120,10.0,64.0
6716,76.0,0,120,11.0,64.0
6717,40.0,0,120,14.0,64.0
6718,62.0,0,120,12.0,64.0
6719,74.0,0,120,10.0,64.0
6720,50.0,0,120,13.0,64.0
6721,38.0,0,120,14.0,64.0
6722,50.0,48,120,3.0,64.0
6723,74.0,0,120,0.0,64.0
6724,74.0,0,120,11.0,64.0
6725,64.0,0,180,4.0,64.0
6726,62.0,24,180,4.0,64.0
6727,73.0,0,120,0.0,64.0
6728,61.0,0,120,12.0,64.0
6729,73.0,72,120,10.0,64.0
6730,49.0,0,120,13.0,64.0
6731,73.0,0,120,11.0,64.0
6732,49.0,0,120,3.0,64.0
6733,37.0,0,120,14.0,64.0
6734,71.0,0,90,11.0,64.0
6735,59.0,180,90,12.0,64.0
6736,71.0,0,90,0.0,64.0
6737,47.0,0,90,13.0,64.0
6738,47.0,0,90,3.0,64.0
6739,35.0,0,90,14.0,64.0
6740,71.0,0,90,10.0,64.0
6741,45.0,0,390,6.0,64.0
6742,45.0,0,150,3.0,64.0
6743,69.0,12,390,2.0,64.0
6744,45.0,162,150,13.0,64.0
6745,69.0,0,390,5.0,64.0
6746,69.0,0,150,10.0,64.0
6747,33.0,0,150,14.0,64.0
6748,64.0,0,390,4.0,64.0
6749,57.0,0,150,12.0,64.0
6750,69.0,0,150,11.0,64.0
6751,81.0,0,390,1.0,64.0
6752,69.0,0,150,0.0,64.0
6753,57.0,0,390,4.0,64.0
6754,49.0,0,90,3.0,64.0
6755,73.0,0,90,0.0,64.0
6756,67.0,42,150,12.0,64.0
6757,55.0,0,150,13.0,64.0
6758,43.0,0,150,14.0,64.0
6759,73.0,66,90,10.0,64.0
6760,73.0,0,90,11.0,64.0
6761,52.0,0,90,3.0,64.0
6762,76.0,198,90,0.0,64.0
6763,76.0,0,90,11.0,64.0
6764,76.0,0,90,10.0,64.0
6765,54.0,0,150,13.0,64.0
6766,81.0,0,150,10.0,64.0
6767,42.0,0,150,14.0,64.0
6768,57.0,36,150,3.0,64.0
6769,66.0,0,180,4.0,64.0
6770,81.0,0,150,11.0,64.0
6771,62.0,204,180,4.0,64.0
6772,81.0,0,150,0.0,64.0
6773,66.0,0,150,12.0,64.0
6774,74.0,204,180,1.0,64.0
6775,81.0,0,180,1.0,64.0
6776,62.0,0,150,12.0,64.0
6777,81.0,0,150,10.0,64.0
6778,62.0,0,150,10.0,64.0
6779,69.0,36,150,10.0,64.0
6780,66.0,0,180,4.0,64.0
6781,69.0,0,180,4.0,64.0
6782,86.0,0,150,0.0,64.0
6783,38.0,0,150,14.0,64.0
6784,69.0,0,150,11.0,64.0
6785,62.0,0,150,11.0,64.0
6786,81.0,0,150,11.0,64.0
6787,50.0,0,150,13.0,64.0
6788,54.0,0,150,3.0,64.0
6789,79.0,0,180,1.0,64.0
6790,55.0,0,150,13.0,64.0
6791,71.0,0,180,1.0,64.0
6792,55.0,0,150,3.0,64.0
6793,79.0,0,180,10.0,64.0
6794,43.0,36,150,14.0,64.0
6795,71.0,0,180,10.0,64.0
6796,79.0,0,180,11.0,64.0
6797,64.0,0,180,4.0,64.0
6798,67.0,0,180,4.0,64.0
6799,83.0,0,180,0.0,64.0
6800,62.0,204,180,10.0,64.0
6801,67.0,0,150,12.0,64.0
6802,62.0,0,180,11.0,64.0
6803,71.0,0,180,11.0,64.0
6804,52.0,0,150,13.0,64.0
6805,52.0,0,150,3.0,64.0
6806,40.0,0,150,14.0,64.0
6807,64.0,240,150,12.0,64.0
6808,76.0,0,180,1.0,64.0
6809,81.0,0,180,0.0,64.0
6810,57.0,0,150,13.0,64.0
6811,57.0,0,150,3.0,64.0
6812,69.0,36,150,12.0,64.0
6813,64.0,0,180,4.0,64.0
6814,57.0,0,180,4.0,64.0
6815,45.0,0,150,14.0,64.0
6816,73.0,0,180,1.0,64.0
6817,76.0,0,180,10.0,64.0
6818,73.0,0,180,10.0,64.0
6819,69.0,0,180,10.0,64.0
6820,76.0,204,180,11.0,64.0
6821,69.0,0,180,11.0,64.0
6822,73.0,0,180,11.0,64.0
6823,45.0,0,150,3.0,64.0
6824,33.0,0,150,14.0,64.0
6825,57.0,0,150,12.0,64.0
6826,45.0,180,150,13.0,64.0
6827,74.0,120,90,10.0,64.0
6828,62.0,0,390,5.0,64.0
6829,50.0,0,390,13.0,64.0
6830,81.0,0,4020,1.0,64.0
6831,78.0,0,390,1.0,64.0
6832,74.0,0,390,5.0,64.0
6833,50.0,72,390,6.0,64.0
6834,62.0,0,390,12.0,64.0
6835,62.0,0,390,4.0,64.0
6836,74.0,0,390,2.0,64.0
6837,50.0,0,390,3.0,64.0
6838,62.0,0,390,11.0,64.0
6839,74.0,0,390,11.0,64.0
6840,50.0,0,390,4.0,64.0
6841,74.0,0,90,0.0,64.0
6842,69.0,0,4020,2.0,64.0
6843,38.0,0,390,14.0,64.0
6844,78.0,120,90,0.0,64.0
6845,78.0,0,90,10.0,64.0
6846,81.0,0,90,10.0,64.0
6847,81.0,48,90,0.0,64.0
6848,78.0,0,90,10.0,64.0
6849,78.0,120,90,0.0,64.0
6850,73.0,0,240,2.0,64.0
6851,79.0,120,90,0.0,64.0
6852,79.0,0,90,10.0,64.0
6853,76.0,96,240,1.0,64.0
6854,76.0,24,90,10.0,64.0
6855,76.0,0,90,0.0,64.0
6856,45.0,24,180,6.0,64.0
6857,76.0,0,180,2.0,64.0
6858,45.0,0,150,14.0,64.0
6859,64.0,0,180,4.0,64.0
6860,79.0,0,150,11.0,64.0
6861,69.0,0,150,5.0,64.0
6862,76.0,0,180,5.0,64.0
6863,57.0,0,150,4.0,64.0
6864,79.0,0,180,1.0,64.0
6865,85.0,0,90,10.0,64.0
6866,69.0,0,150,12.0,64.0
6867,57.0,36,150,13.0,64.0
6868,85.0,60,90,0.0,64.0
6869,64.0,0,150,12.0,64.0
6870,69.0,0,150,11.0,64.0
6871,57.0,0,150,3.0,64.0
6872,81.0,0,90,0.0,64.0
6873,81.0,120,90,10.0,64.0
6874,50.0,0,390,14.0,64.0
6875,74.0,0,390,2.0,64.0
6876,62.0,0,390,13.0,64.0
6877,62.0,0,390,12.0,64.0
6878,78.0,0,390,11.0,64.0
6879,69.0,0,390,11.0,64.0
6880,69.0,0,390,12.0,64.0
6881,50.0,0,390,4.0,64.0
6882,62.0,0,390,4.0,64.0
6883,86.0,0,90,0.0,64.0
6884,86.0,120,90,10.0,64.0
6885,62.0,0,390,5.0,64.0
6886,62.0,0,390,11.0,64.0
6887,78.0,0,390,1.0,64.0
6888,74.0,0,390,5.0,64.0
6889,50.0,0,390,6.0,64.0
6890,62.0,72,390,3.0,64.0
6891,81.0,0,90,0.0,64.0
6892,81.0,120,90,10.0,64.0
6893,78.0,0,90,10.0,64.0
6894,78.0,48,90,0.0,64.0
6895,74.0,0,90,0.0,64.0
6896,74.0,120,90,10.0,64.0
6897,73.0,0,240,2.0,64.0
6898,79.0,0,90,0.0,64.0
6899,79.0,120,90,10.0,64.0
6900,76.0,96,240,1.0,64.0
6901,76.0,0,90,0.0,64.0
6902,76.0,24,90,10.0,64.0
6903,57.0,0,150,13.0,64.0
6904,85.0,60,90,0.0,64.0
6905,85.0,0,90,10.0,64.0
6906,57.0,0,150,3.0,64.0
6907,45.0,0,150,14.0,64.0
6908,69.0,36,150,5.0,64.0
6909,79.0,0,150,11.0,64.0
6910,76.0,0,180,2.0,64.0
6911,64.0,0,150,12.0,64.0
6912,45.0,0,180,6.0,64.0
6913,76.0,24,180,5.0,64.0
6914,69.0,0,150,11.0,64.0
6915,64.0,0,180,4.0,64.0
6916,69.0,0,150,12.0,64.0
6917,57.0,0,150,4.0,64.0
6918,79.0,0,180,1.0,64.0
6919,81.0,0,90,10.0,64.0
6920,81.0,120,90,0.0,64.0
6921,74.0,0,390,2.0,64.0
6922,50.0,0,390,4.0,64.0
6923,50.0,0,390,14.0,64.0
6924,62.0,0,390,3.0,64.0
6925,62.0,0,390,5.0,64.0
6926,50.0,0,390,6.0,64.0
6927,69.0,72,390,12.0,64.0
6928,78.0,0,390,1.0,64.0
6929,78.0,0,390,11.0,64.0
6930,74.0,0,390,5.0,64.0
6931,62.0,0,390,12.0,64.0
6932,86.0,0,90,0.0,64.0
6933,69.0,0,390,11.0,64.0
6934,62.0,0,390,4.0,64.0
6935,62.0,0,390,11.0,64.0
6936,86.0,120,90,10.0,64.0
6937,62.0,0,390,13.0,64.0
6938,81.0,120,90,0.0,64.0
6939,81.0,0,90,10.0,64.0
6940,78.0,48,90,10.0,64.0
6941,78.0,0,90,0.0,64.0
6942,74.0,0,90,10.0,64.0
6943,74.0,120,90,0.0,64.0
6944,76.0,96,240,1.0,64.0
6945,73.0,0,240,2.0,64.0
6946,79.0,0,90,10.0,64.0
6947,79.0,120,90,0.0,64.0
6948,76.0,24,90,10.0,64.0
6949,76.0,0,90,0.0,64.0
6950,69.0,0,150,12.0,64.0
6951,85.0,0,90,0.0,64.0
6952,64.0,0,180,4.0,64.0
6953,57.0,0,150,4.0,64.0
6954,45.0,0,150,14.0,64.0
6955,69.0,0,150,11.0,64.0
6956,76.0,24,180,5.0,64.0
6957,45.0,0,180,6.0,64.0
6958,64.0,0,150,12.0,64.0
6959,85.0,60,90,10.0,64.0
6960,69.0,0,150,5.0,64.0
6961,79.0,36,150,11.0,64.0
6962,57.0,0,150,3.0,64.0
6963,57.0,0,150,13.0,64.0
6964,76.0,0,180,2.0,64.0
6965,79.0,0,180,1.0,64.0
6966,81.0,120,90,0.0,64.0
6967,81.0,0,90,10.0,64.0
6968,50.0,0,150,14.0,64.0
6969,74.0,0,150,5.0,64.0
6970,69.0,0,150,11.0,64.0
6971,78.0,0,150,11.0,64.0
6972,62.0,0,150,12.0,64.0
6973,69.0,36,150,12.0,64.0
6974,50.0,24,180,6.0,64.0
6975,62.0,0,150,5.0,64.0
6976,62.0,0,150,13.0,64.0
6977,62.0,0,150,3.0,64.0
6978,86.0,60,90,10.0,64.0
6979,74.0,0,240,2.0,64.0
6980,86.0,0,90,0.0,64.0
6981,50.0,0,150,4.0,64.0
6982,62.0,0,150,4.0,64.0
6983,78.0,96,240,1.0,64.0
6984,81.0,0,90,0.0,64.0
6985,81.0,24,90,10.0,64.0
6986,57.0,0,150,13.0,64.0
6987,79.0,96,240,1.0,64.0
6988,76.0,0,240,2.0,64.0
6989,85.0,60,90,10.0,64.0
6990,64.0,0,150,12.0,64.0
6991,69.0,0,150,5.0,64.0
6992,69.0,0,150,11.0,64.0
6993,69.0,0,150,12.0,64.0
6994,57.0,0,150,3.0,64.0
6995,76.0,0,150,5.0,64.0
6996,64.0,36,150,4.0,64.0
6997,79.0,0,150,11.0,64.0
6998,57.0,0,150,4.0,64.0
6999,45.0,24,180,6.0,64.0
7000,45.0,0,150,14.0,64.0
7001,85.0,0,90,0.0,64.0
7002,81.0,24,90,10.0,64.0
7003,81.0,0,90,0.0,64.0
7004,50.0,0,150,14.0,64.0
7005,74.0,0,240,2.0,64.0
7006,50.0,0,150,4.0,64.0
7007,62.0,0,150,3.0,64.0
7008,69.0,0,150,11.0,64.0
7009,78.0,0,150,11.0,64.0
7010,86.0,0,90,0.0,64.0
7011,62.0,0,150,4.0,64.0
7012,62.0,0,150,13.0,64.0
7013,78.0,96,240,1.0,64.0
7014,74.0,0,150,5.0,64.0
7015,62.0,0,150,5.0,64.0
7016,50.0,24,180,6.0,64.0
7017,69.0,36,150,12.0,64.0
7018,62.0,0,150,12.0,64.0
7019,86.0,60,90,10.0,64.0
7020,81.0,0,90,10.0,64.0
7021,81.0,24,90,0.0,64.0
7022,76.0,0,150,5.0,64.0
7023,79.0,96,240,1.0,64.0
7024,57.0,0,150,4.0,64.0
7025,64.0,0,150,12.0,64.0
7026,85.0,0,90,10.0,64.0
7027,45.0,0,150,14.0,64.0
7028,76.0,0,240,2.0,64.0
7029,45.0,24,180,6.0,64.0
7030,69.0,0,150,5.0,64.0
7031,57.0,0,150,3.0,64.0
7032,69.0,0,150,12.0,64.0
7033,57.0,0,150,13.0,64.0
7034,79.0,0,150,11.0,64.0
7035,85.0,60,90,0.0,64.0
7036,64.0,0,150,4.0,64.0
7037,69.0,36,150,11.0,64.0
7038,81.0,0,90,10.0,64.0
7039,81.0,24,90,0.0,64.0
7040,78.0,96,90,11.0,64.0
7041,62.0,72,390,5.0,64.0
7042,74.0,24,180,2.0,64.0
7043,69.0,0,90,11.0,64.0
7044,62.0,0,390,4.0,64.0
7045,50.0,0,390,4.0,64.0
7046,50.0,0,390,14.0,64.0
7047,74.0,0,390,5.0,64.0
7048,78.0,0,180,1.0,64.0
7049,62.0,0,390,3.0,64.0
7050,86.0,0,90,10.0,64.0
7051,69.0,0,390,12.0,64.0
7052,62.0,0,390,12.0,64.0
7053,86.0,0,180,0.0,64.0
7054,50.0,0,390,6.0,64.0
7055,62.0,0,390,13.0,64.0
7056,86.0,0,90,10.0,64.0
7057,86.0,120,90,11.0,64.0
7058,85.0,0,90,11.0,64.0
7059,85.0,48,90,10.0,64.0
7060,83.0,120,90,11.0,64.0
7061,83.0,0,90,10.0,64.0
7062,81.0,120,90,11.0,64.0
7063,81.0,0,90,10.0,64.0
7064,83.0,0,90,11.0,64.0
7065,83.0,120,90,10.0,64.0
7066,79.0,0,90,10.0,64.0
7067,79.0,120,90,11.0,64.0
7068,81.0,0,90,10.0,64.0
7069,81.0,120,90,11.0,64.0
7070,78.0,120,90,10.0,64.0
7071,78.0,0,90,11.0,64.0
7072,83.0,120,90,11.0,64.0
7073,83.0,0,90,10.0,64.0
7074,81.0,120,90,11.0,64.0
7075,81.0,0,90,10.0,64.0
7076,79.0,0,90,10.0,64.0
7077,79.0,120,90,11.0,64.0
7078,78.0,120,90,11.0,64.0
7079,78.0,0,90,10.0,64.0
7080,79.0,120,90,10.0,64.0
7081,79.0,0,90,11.0,64.0
7082,76.0,0,90,10.0,64.0
7083,76.0,120,90,11.0,64.0
7084,78.0,0,90,10.0,64.0
7085,78.0,120,90,11.0,64.0
7086,62.0,0,90,3.0,64.0
7087,62.0,0,90,13.0,64.0
7088,50.0,72,390,4.0,64.0
7089,74.0,0,390,0.0,64.0
7090,74.0,120,90,11.0,64.0
7091,74.0,0,390,1.0,64.0
7092,50.0,0,90,14.0,64.0
7093,62.0,0,390,5.0,64.0
7094,50.0,0,390,6.0,64.0
7095,62.0,0,390,2.0,64.0
7096,62.0,0,90,12.0,64.0
7097,74.0,0,90,10.0,64.0
7098,78.0,0,90,10.0,64.0
7099,66.0,0,90,3.0,64.0
7100,54.0,120,90,14.0,64.0
7101,66.0,0,90,12.0,64.0
7102,78.0,0,90,11.0,64.0
7103,66.0,0,90,13.0,64.0
7104,52.0,0,90,14.0,64.0
7105,64.0,0,90,3.0,64.0
7106,76.0,0,90,10.0,64.0
7107,76.0,0,90,11.0,64.0
7108,64.0,48,90,12.0,64.0
7109,64.0,0,90,13.0,64.0
7110,74.0,0,90,11.0,64.0
7111,62.0,0,90,12.0,64.0
7112,50.0,0,90,14.0,64.0
7113,74.0,0,90,10.0,64.0
7114,62.0,0,90,3.0,64.0
7115,62.0,120,90,13.0,64.0
7116,50.0,0,150,4.0,64.0
7117,73.0,0,90,10.0,64.0
7118,62.0,60,150,2.0,64.0
7119,74.0,0,150,1.0,64.0
7120,74.0,0,150,0.0,64.0
7121,61.0,0,90,3.0,64.0
7122,49.0,60,90,14.0,64.0
7123,62.0,0,150,5.0,64.0
7124,61.0,0,90,12.0,64.0
7125,61.0,0,90,13.0,64.0
7126,73.0,0,90,11.0,64.0
7127,62.0,0,90,13.0,64.0
7128,74.0,120,90,11.0,64.0
7129,62.0,0,90,3.0,64.0
7130,62.0,0,90,12.0,64.0
7131,50.0,0,90,14.0,64.0
7132,74.0,0,90,10.0,64.0
7133,50.0,0,90,6.0,64.0
7134,74.0,0,150,0.0,64.0
7135,71.0,0,90,11.0,64.0
7136,59.0,0,90,12.0,64.0
7137,71.0,0,90,10.0,64.0
7138,74.0,60,150,1.0,64.0
7139,62.0,0,150,2.0,64.0
7140,59.0,0,90,3.0,64.0
7141,59.0,0,90,13.0,64.0
7142,62.0,0,150,5.0,64.0
7143,50.0,0,150,4.0,64.0
7144,47.0,60,90,14.0,64.0
7145,61.0,0,90,13.0,64.0
7146,61.0,120,90,3.0,64.0
7147,61.0,0,90,12.0,64.0
7148,73.0,0,90,10.0,64.0
7149,50.0,0,90,6.0,64.0
7150,73.0,0,90,11.0,64.0
7151,49.0,0,90,14.0,64.0
7152,57.0,0,90,12.0,64.0
7153,78.0,0,390,0.0,64.0
7154,66.0,0,390,5.0,64.0
7155,57.0,0,90,13.0,64.0
7156,50.0,0,390,6.0,64.0
7157,45.0,120,90,14.0,64.0
7158,69.0,0,90,10.0,64.0
7159,54.0,72,390,4.0,64.0
7160,66.0,0,390,2.0,64.0
7161,57.0,0,90,3.0,64.0
7162,69.0,0,90,11.0,64.0
7163,78.0,0,390,1.0,64.0
7164,62.0,0,90,3.0,64.0
7165,74.0,120,90,11.0,64.0
7166,62.0,0,90,13.0,64.0
7167,62.0,0,90,12.0,64.0
7168,74.0,0,90,10.0,64.0
7169,50.0,0,90,14.0,64.0
7170,61.0,0,90,3.0,64.0
7171,61.0,0,90,13.0,64.0
7172,61.0,0,90,12.0,64.0
7173,73.0,48,90,11.0,64.0
7174,73.0,0,90,10.0,64.0
7175,49.0,0,90,14.0,64.0
7176,59.0,0,90,13.0,64.0
7177,71.0,0,90,11.0,64.0
7178,59.0,0,90,12.0,64.0
7179,71.0,0,90,10.0,64.0
7180,47.0,0,90,14.0,64.0
7181,59.0,120,90,3.0,64.0
7182,54.0,0,150,4.0,64.0
7183,57.0,0,90,13.0,64.0
7184,45.0,0,90,14.0,64.0
7185,69.0,0,90,11.0,64.0
7186,78.0,0,150,0.0,64.0
7187,69.0,0,90,10.0,64.0
7188,66.0,0,150,2.0,64.0
7189,57.0,0,90,3.0,64.0
7190,66.0,60,150,5.0,64.0
7191,57.0,60,90,12.0,64.0
7192,78.0,0,150,1.0,64.0
7193,59.0,0,90,13.0,64.0
7194,71.0,0,90,11.0,64.0
7195,47.0,0,90,14.0,64.0
7196,71.0,120,90,10.0,64.0
7197,59.0,0,90,12.0,64.0
7198,59.0,0,90,3.0,64.0
7199,67.0,60,90,11.0,64.0
7200,55.0,0,90,12.0,64.0
7201,50.0,0,90,6.0,64.0
7202,78.0,0,150,1.0,64.0
7203,54.0,60,150,4.0,64.0
7204,55.0,0,90,3.0,64.0
7205,67.0,0,90,10.0,64.0
7206,66.0,0,150,5.0,64.0
7207,43.0,0,90,14.0,64.0
7208,66.0,0,150,2.0,64.0
7209,55.0,0,90,13.0,64.0
7210,78.0,0,150,0.0,64.0
7211,57.0,0,90,12.0,64.0
7212,69.0,0,90,11.0,64.0
7213,57.0,0,90,3.0,64.0
7214,57.0,0,90,13.0,64.0
7215,69.0,0,90,10.0,64.0
7216,50.0,120,90,6.0,64.0
7217,45.0,0,90,14.0,64.0
7218,42.0,0,90,14.0,64.0
7219,81.0,0,390,1.0,64.0
7220,69.0,72,390,2.0,64.0
7221,54.0,0,90,13.0,64.0
7222,66.0,120,90,10.0,64.0
7223,57.0,0,390,4.0,64.0
7224,50.0,0,390,6.0,64.0
7225,66.0,0,90,11.0,64.0
7226,81.0,0,390,0.0,64.0
7227,54.0,0,90,3.0,64.0
7228,69.0,0,390,5.0,64.0
7229,54.0,0,90,12.0,64.0
7230,59.0,0,90,12.0,64.0
7231,71.0,0,90,11.0,64.0
7232,59.0,120,90,3.0,64.0
7233,47.0,0,90,14.0,64.0
7234,71.0,0,90,10.0,64.0
7235,59.0,0,90,13.0,64.0
7236,57.0,0,90,12.0,64.0
7237,57.0,48,90,3.0,64.0
7238,57.0,0,90,13.0,64.0
7239,69.0,0,90,11.0,64.0
7240,45.0,0,90,14.0,64.0
7241,69.0,0,90,10.0,64.0
7242,43.0,0,90,14.0,64.0
7243,55.0,0,90,12.0,64.0
7244,67.0,0,90,10.0,64.0
7245,67.0,0,90,11.0,64.0
7246,55.0,120,90,13.0,64.0
7247,55.0,0,90,3.0,64.0
7248,54.0,0,90,3.0,64.0
7249,66.0,0,90,10.0,64.0
7250,69.0,60,150,2.0,64.0
7251,42.0,0,90,14.0,64.0
7252,81.0,0,150,0.0,64.0
7253,69.0,0,150,5.0,64.0
7254,81.0,0,150,1.0,64.0
7255,57.0,0,150,4.0,64.0
7256,66.0,60,90,11.0,64.0
7257,54.0,0,90,13.0,64.0
7258,54.0,0,90,12.0,64.0
7259,67.0,0,90,11.0,64.0
7260,67.0,0,90,10.0,64.0
7261,55.0,0,90,3.0,64.0
7262,43.0,120,90,14.0,64.0
7263,55.0,0,90,12.0,64.0
7264,55.0,0,90,13.0,64.0
7265,52.0,0,90,13.0,64.0
7266,50.0,0,90,6.0,64.0
7267,81.0,0,150,0.0,64.0
7268,52.0,0,90,3.0,64.0
7269,64.0,60,90,11.0,64.0
7270,69.0,0,150,2.0,64.0
7271,64.0,0,90,10.0,64.0
7272,40.0,0,90,14.0,64.0
7273,57.0,60,150,4.0,64.0
7274,52.0,0,90,12.0,64.0
7275,69.0,0,150,5.0,64.0
7276,81.0,0,150,1.0,64.0
7277,54.0,0,90,12.0,64.0
7278,50.0,0,90,6.0,64.0
7279,54.0,0,90,13.0,64.0
7280,54.0,0,90,3.0,64.0
7281,42.0,0,90,14.0,64.0
7282,66.0,0,90,11.0,64.0
7283,66.0,72,90,10.0,64.0
7284,50.0,48,40,6.0,64.0
7285,62.0,0,150,4.0,64.0
7286,50.0,0,90,12.0,64.0
7287,50.0,0,90,13.0,64.0
7288,86.0,12,150,0.0,64.0
7289,86.0,0,150,1.0,64.0
7290,62.0,0,90,10.0,64.0
7291,50.0,12,90,3.0,64.0
7292,38.0,0,90,14.0,64.0
7293,74.0,0,150,2.0,64.0
7294,74.0,0,150,5.0,64.0
7295,62.0,0,90,11.0,64.0
7296,50.0,48,40,6.0,64.0
7297,52.0,0,90,12.0,64.0
7298,52.0,0,90,3.0,64.0
7299,64.0,0,90,11.0,64.0
7300,52.0,0,90,13.0,64.0
7301,50.0,48,40,6.0,64.0
7302,40.0,0,90,14.0,64.0
7303,64.0,12,90,10.0,64.0
7304,50.0,60,40,6.0,64.0
7305,42.0,0,90,14.0,64.0
7306,69.0,0,150,5.0,64.0
7307,57.0,0,150,4.0,64.0
7308,54.0,0,90,12.0,64.0
7309,69.0,0,150,2.0,64.0
7310,81.0,12,150,1.0,64.0
7311,66.0,0,90,11.0,64.0
7312,54.0,0,90,3.0,64.0
7313,54.0,0,90,13.0,64.0
7314,50.0,48,40,6.0,64.0
7315,81.0,0,150,0.0,64.0
7316,66.0,12,90,10.0,64.0
7317,50.0,48,40,6.0,64.0
7318,40.0,0,90,14.0,64.0
7319,64.0,0,90,10.0,64.0
7320,64.0,0,90,11.0,64.0
7321,52.0,12,90,12.0,64.0
7322,52.0,0,90,3.0,64.0
7323,50.0,48,40,6.0,64.0
7324,52.0,0,90,13.0,64.0
7325,50.0,60,40,6.0,64.0
7326,74.0,0,150,5.0,64.0
7327,62.0,0,90,11.0,64.0
7328,74.0,0,150,2.0,64.0
7329,50.0,0,90,12.0,64.0
7330,38.0,0,90,14.0,64.0
7331,50.0,12,90,3.0,64.0
7332,62.0,0,90,10.0,64.0
7333,86.0,0,150,1.0,64.0
7334,50.0,48,40,6.0,64.0
7335,50.0,0,90,13.0,64.0
7336,86.0,12,150,0.0,64.0
7337,62.0,0,150,4.0,64.0
7338,50.0,48,40,6.0,64.0
7339,50.0,48,40,6.0,64.0
7340,52.0,0,90,3.0,64.0
7341,64.0,0,90,11.0,64.0
7342,64.0,0,90,10.0,64.0
7343,40.0,0,90,14.0,64.0
7344,52.0,12,90,13.0,64.0
7345,52.0,0,90,12.0,64.0
7346,50.0,60,40,6.0,64.0
7347,57.0,0,150,4.0,64.0
7348,42.0,0,90,14.0,64.0
7349,54.0,12,90,3.0,64.0
7350,81.0,0,150,0.0,64.0
7351,81.0,0,150,1.0,64.0
7352,54.0,0,90,12.0,64.0
7353,54.0,0,90,13.0,64.0
7354,66.0,0,90,11.0,64.0
7355,69.0,12,150,5.0,64.0
7356,50.0,48,40,6.0,64.0
7357,69.0,0,150,2.0,64.0
7358,66.0,0,90,10.0,64.0
7359,50.0,48,40,6.0,64.0
7360,64.0,0,90,10.0,64.0
7361,50.0,48,40,6.0,64.0
7362,52.0,0,90,12.0,64.0
7363,52.0,12,90,3.0,64.0
7364,52.0,0,90,13.0,64.0
7365,64.0,0,90,11.0,64.0
7366,40.0,0,90,14.0,64.0
7367,50.0,204,40,6.0,64.0
7368,62.0,0,300,10.0,64.0
7369,86.0,0,300,1.0,64.0
7370,81.0,0,300,0.0,64.0
7371,78.0,0,300,1.0,64.0
7372,38.0,0,300,14.0,64.0
7373,50.0,0,300,3.0,64.0
7374,74.0,0,300,2.0,64.0
7375,69.0,0,300,2.0,64.0
7376,50.0,120,180,6.0,64.0
7377,50.0,360,300,12.0,64.0
7378,62.0,0,300,11.0,64.0
7379,62.0,0,300,5.0,64.0
7380,50.0,0,300,13.0,64.0
7381,86.0,0,300,0.0,64.0
7382,62.0,0,300,4.0,64.0
7383,50.0,0,300,4.0,64.0
7384,74.0,0,300,5.0,64.0
7385,62.0,0,300,5.0,64.0
7386,50.0,0,300,13.0,64.0
7387,62.0,0,300,12.0,64.0
7388,50.0,0,300,4.0,64.0
7389,62.0,0,300,4.0,64.0
7390,50.0,120,180,6.0,64.0
7391,74.0,0,300,2.0,64.0
7392,50.0,0,300,3.0,64.0
7393,69.0,0,300,2.0,64.0
7394,74.0,0,300,5.0,64.0
7395,38.0,0,300,14.0,64.0
7396,81.0,0,300,0.0,64.0
7397,78.0,552,300,11.0,64.0
7398,86.0,0,300,0.0,64.0
7399,74.0,0,300,10.0,64.0
7400,69.0,0,300,11.0,64.0
7401,86.0,0,300,10.0,64.0
7402,86.0,0,300,1.0,64.0
7403,78.0,0,300,1.0,64.0
7404,62.0,0,300,10.0,64.0
7405,62.0,0,300,11.0,64.0
7406,38.0,0,390,14.0,64.0
7407,78.0,0,390,1.0,64.0
7408,86.0,0,390,1.0,64.0
7409,74.0,0,390,10.0,64.0
7410,74.0,0,390,2.0,64.0
7411,81.0,0,390,0.0,64.0
7412,86.0,0,390,0.0,64.0
7413,62.0,0,390,10.0,64.0
7414,50.0,0,390,3.0,64.0
7415,78.0,0,390,11.0,64.0
7416,69.0,0,390,11.0,64.0
7417,62.0,0,390,11.0,64.0
7418,50.0,0,390,4.0,64.0
7419,69.0,0,390,2.0,64.0
7420,62.0,0,390,4.0,64.0
7421,74.0,0,390,5.0,64.0
7422,50.0,0,390,13.0,64.0
7423,62.0,0,390,12.0,64.0
7424,50.0,1344,390,6.0,64.0
7425,86.0,0,390,10.0,64.0
7426,26.0,0,780,14.0,64.0
